<?xml version="1.0"?>
<svg xmlns="http://www.w3.org/2000/svg" xmlns:xlink="http://www.w3.org/1999/xlink" version="1.1" id="Layer_1" x="0px" y="0px" viewBox="0 0 512.001 512.001" style="enable-background:new 0 0 512.001 512.001;" xml:space="preserve" width="512px" height="512px" class=""><g><path style="fill:#FFFFFF" d="M16.29,408.438L217.785,59.437c16.984-29.418,59.446-29.418,76.43,0l201.495,349.001  c16.984,29.418-4.246,66.191-38.215,66.191H54.504C20.536,474.627-0.694,437.856,16.29,408.438z" data-original="#EFEFEF" class="" data-old_color="#EFEFEF"/><g>
	<circle style="fill:#FF9500" cx="255.999" cy="371.772" r="23.155" data-original="#FAC51C" class="" data-old_color="#FAC51C"/>
	<path style="fill:#FF9500" d="M256.001,307.455c-11.367,0-20.582-9.215-20.582-20.582V199.4c0-11.367,9.215-20.582,20.582-20.582   c11.367,0,20.582,9.215,20.582,20.582v87.473C276.583,298.241,267.368,307.455,256.001,307.455z" data-original="#FAC51C" class="" data-old_color="#FAC51C"/>
</g><g>
	<path style="fill:#0E0D0D" d="M504.624,403.292L303.128,54.291C293.291,37.253,275.673,27.083,256,27.083   c-19.672,0-37.289,10.172-47.125,27.208L7.378,403.292c-9.837,17.038-9.837,37.38,0,54.418s27.454,27.208,47.128,27.208h402.992   c19.672,0,37.289-10.172,47.127-27.208S514.46,420.329,504.624,403.292z M486.799,447.419   c-6.116,10.594-17.071,16.917-29.303,16.917H54.504c-12.233,0-23.187-6.325-29.303-16.917c-6.116-10.594-6.116-23.242,0-33.836   L226.698,64.582c6.116-10.594,17.07-16.917,29.303-16.917s23.188,6.325,29.304,16.917L486.8,413.583   C492.916,424.177,492.916,436.825,486.799,447.419z" data-original="#231F20" class="active-path" data-old_color="#0F0E0E"/>
	<path style="fill:#0E0D0D" d="M372.118,423.172h-1.029c-5.683,0-10.291,4.608-10.291,10.291s4.608,10.291,10.291,10.291h1.029   c5.683,0,10.291-4.608,10.291-10.291S377.801,423.172,372.118,423.172z" data-original="#231F20" class="active-path" data-old_color="#0F0E0E"/>
	<path style="fill:#0E0D0D" d="M267.484,74.882c-3.326-5.773-8.623-6.636-11.484-6.636c-2.858,0-8.15,0.861-11.478,6.626   L43.021,423.884c-3.32,5.762-1.422,10.77,0.006,13.246c1.429,2.474,4.821,6.625,11.478,6.625h270.788   c5.683,0,10.291-4.608,10.291-10.291s-4.608-10.291-10.291-10.291H67.197L256.001,96.156l188.803,327.017h-28.607   c-5.683,0-10.291,4.608-10.291,10.291s4.608,10.291,10.291,10.291h41.3c6.661,0,10.052-4.154,11.474-6.623   c1.43-2.474,3.333-7.488,0.003-13.258L267.484,74.882z" data-original="#231F20" class="active-path" data-old_color="#0F0E0E"/>
	<path style="fill:#0E0D0D" d="M256.001,405.22c18.442,0,33.446-15.003,33.446-33.446c0-18.442-15.003-33.446-33.446-33.446   c-18.441,0-33.446,15.003-33.446,33.446C222.555,390.217,237.558,405.22,256.001,405.22z M256.001,358.91   c7.094,0,12.864,5.77,12.864,12.864c0,7.094-5.77,12.864-12.864,12.864c-7.094,0-12.864-5.77-12.864-12.864   C243.137,364.681,248.907,358.91,256.001,358.91z" data-original="#231F20" class="active-path" data-old_color="#0F0E0E"/>
	<path style="fill:#0E0D0D" d="M256.001,317.746c17.023,0,30.873-13.85,30.873-30.873V199.4c0-17.023-13.85-30.873-30.873-30.873   s-30.873,13.85-30.873,30.873v87.473C225.128,303.897,238.977,317.746,256.001,317.746z M245.71,199.4   c0-5.674,4.617-10.291,10.291-10.291c5.674,0,10.291,4.617,10.291,10.291v87.473c0,5.674-4.617,10.291-10.291,10.291   c-5.674,0-10.291-4.617-10.291-10.291V199.4z" data-original="#231F20" class="active-path" data-old_color="#0F0E0E"/>
</g></g> </svg>
