<?xml version="1.0" encoding="iso-8859-1"?>
<!-- Generator: Adobe Illustrator 19.0.0, SVG Export Plug-In . SVG Version: 6.00 Build 0)  -->
<svg version="1.1" id="Layer_1" xmlns="http://www.w3.org/2000/svg" xmlns:xlink="http://www.w3.org/1999/xlink" x="0px" y="0px"
	 viewBox="0 0 512 512" style="enable-background:new 0 0 512 512;" xml:space="preserve">
<path style="fill:#1F63AD;" d="M495.304,512H16.696C7.467,512,0,504.533,0,495.304c0-9.228,7.467-16.696,16.696-16.696h478.609
	c9.228,0,16.696,7.467,16.696,16.696C512,504.533,504.533,512,495.304,512z"/>
<path style="fill:#004999;" d="M495.304,478.609H256V512h239.304c9.228,0,16.696-7.467,16.696-16.696
	C512,486.076,504.533,478.609,495.304,478.609z"/>
<path style="fill:#FFDA44;" d="M495.304,0H395.13c-9.228,0-16.696,7.467-16.696,16.696v411.826c0,9.228,7.467,16.696,16.696,16.696
	h100.174c9.228,0,16.696-7.467,16.696-16.696V16.696C512,7.467,504.533,0,495.304,0z"/>
<path style="fill:#FFAA00;" d="M512,428.522V16.696C512,7.467,504.533,0,495.304,0h-50.087v445.217h50.087
	C504.533,445.217,512,437.75,512,428.522z"/>
<path style="fill:#32BBFF;" d="M205.913,445.217h100.174c9.228,0,16.696-7.467,16.696-16.696v-267.13
	c0-9.228-7.467-16.696-16.696-16.696H205.913c-9.228,0-16.696,7.467-16.696,16.696v267.13
	C189.217,437.75,196.685,445.217,205.913,445.217z"/>
<path style="fill:#2C9FD9;" d="M322.783,428.522v-267.13c0-9.228-7.467-16.696-16.696-16.696H256v300.522h50.087
	C315.315,445.217,322.783,437.75,322.783,428.522z"/>
<path style="fill:#FF4B26;" d="M16.696,445.217H116.87c9.228,0,16.696-7.467,16.696-16.696V294.957
	c0-9.228-7.467-16.696-16.696-16.696H16.696C7.467,278.261,0,285.728,0,294.957v133.565C0,437.75,7.467,445.217,16.696,445.217z"/>
<path style="fill:#D93F21;" d="M133.565,428.522V294.957c0-9.228-7.467-16.696-16.696-16.696H66.783v166.957h50.087
	C126.098,445.217,133.565,437.75,133.565,428.522z"/>
<g>
</g>
<g>
</g>
<g>
</g>
<g>
</g>
<g>
</g>
<g>
</g>
<g>
</g>
<g>
</g>
<g>
</g>
<g>
</g>
<g>
</g>
<g>
</g>
<g>
</g>
<g>
</g>
<g>
</g>
</svg>
