<?xml version="1.0" encoding="iso-8859-1"?>
<!-- Generator: Adobe Illustrator 19.0.0, SVG Export Plug-In . SVG Version: 6.00 Build 0)  -->
<svg version="1.1" id="Layer_1" xmlns="http://www.w3.org/2000/svg" xmlns:xlink="http://www.w3.org/1999/xlink" x="0px" y="0px"
	 viewBox="0 0 512 512" style="enable-background:new 0 0 512 512;" xml:space="preserve">
<path style="fill:#FF4B26;" d="M461.913,66.784c-98.862,0-184.81,0-278.261,0c-48.778,0-86.222,0-133.565,0
	C22.419,66.8,0.018,89.203,0,116.871v93.496v1.113c0,18.442,14.949,33.391,33.391,33.391h445.217
	c18.442,0,33.391-16.062,33.391-34.504v1.113v-94.609C511.982,89.203,489.581,66.8,461.913,66.784z"/>
<path style="fill:#D93F21;" d="M461.913,66.784c-72.498,0-133.415,0-205.913,0v178.087h222.609
	c18.442,0,33.391-14.949,33.391-33.391l0,0v-94.609C511.982,89.203,489.581,66.8,461.913,66.784z"/>
<path style="fill:#FFEECC;" d="M0,211.479v33.391v217.043c0.018,27.667,22.419,50.069,50.087,50.085h411.826
	c27.668-0.017,50.069-22.419,50.087-50.085V244.871v-33.391C328.836,211.479,183.915,211.479,0,211.479z"/>
<path style="fill:#FFD9B3;" d="M256,211.479v300.519h205.913c27.668-0.017,50.069-22.419,50.087-50.085V244.871v-33.391
	C368.834,211.479,398.249,211.479,256,211.479z"/>
<g>
	<path style="fill:#004999;" d="M361.739,311.653h66.783c9.22,0,16.696-7.475,16.696-16.696c0-9.223-7.475-16.696-16.696-16.696
		h-66.783c-9.222,0-16.696,7.473-16.696,16.696C345.043,304.178,352.518,311.653,361.739,311.653"/>
	<path style="fill:#004999;" d="M361.739,378.436h66.783c9.22,0,16.696-7.475,16.696-16.696c0-9.223-7.475-16.696-16.696-16.696
		h-66.783c-9.222,0-16.696,7.473-16.696,16.696C345.043,370.961,352.518,378.436,361.739,378.436"/>
	<path style="fill:#004999;" d="M361.739,445.218h66.783c9.22,0,16.696-7.475,16.696-16.696c0-9.223-7.475-16.696-16.696-16.696
		h-66.783c-9.222,0-16.696,7.473-16.696,16.696C345.043,437.743,352.518,445.218,361.739,445.218"/>
</g>
<g>
	<path style="fill:#1F63AD;" d="M222.609,311.653h66.783c9.22,0,16.696-7.475,16.696-16.696c0-9.223-7.475-16.696-16.696-16.696
		h-66.783c-9.222,0-16.696,7.473-16.696,16.696C205.913,304.178,213.387,311.653,222.609,311.653"/>
	<path style="fill:#1F63AD;" d="M222.609,378.436h66.783c9.22,0,16.696-7.475,16.696-16.696c0-9.223-7.475-16.696-16.696-16.696
		h-66.783c-9.222,0-16.696,7.473-16.696,16.696C205.913,370.961,213.387,378.436,222.609,378.436"/>
	<path style="fill:#1F63AD;" d="M222.609,445.218h66.783c9.22,0,16.696-7.475,16.696-16.696c0-9.223-7.475-16.696-16.696-16.696
		h-66.783c-9.222,0-16.696,7.473-16.696,16.696C205.913,437.743,213.387,445.218,222.609,445.218"/>
</g>
<g>
	<path style="fill:#004999;" d="M289.391,278.262H256v33.391h33.391c9.22,0,16.696-7.475,16.696-16.696
		C306.087,285.735,298.612,278.262,289.391,278.262z"/>
	<path style="fill:#004999;" d="M289.391,345.045H256v33.391h33.391c9.22,0,16.696-7.475,16.696-16.696
		C306.087,352.518,298.612,345.045,289.391,345.045z"/>
	<path style="fill:#004999;" d="M289.391,411.827H256v33.391h33.391c9.22,0,16.696-7.475,16.696-16.696
		C306.087,419.3,298.612,411.827,289.391,411.827z"/>
</g>
<g>
	<path style="fill:#1F63AD;" d="M83.478,311.653h66.783c9.22,0,16.696-7.475,16.696-16.696c0-9.223-7.475-16.696-16.696-16.696
		H83.478c-9.222,0-16.696,7.473-16.696,16.696C66.783,304.178,74.257,311.653,83.478,311.653"/>
	<path style="fill:#1F63AD;" d="M83.478,378.436h66.783c9.22,0,16.696-7.475,16.696-16.696c0-9.223-7.475-16.696-16.696-16.696
		H83.478c-9.222,0-16.696,7.473-16.696,16.696C66.783,370.961,74.257,378.436,83.478,378.436"/>
	<path style="fill:#1F63AD;" d="M83.478,445.218h66.783c9.22,0,16.696-7.475,16.696-16.696c0-9.223-7.475-16.696-16.696-16.696
		H83.478c-9.222,0-16.696,7.473-16.696,16.696C66.783,437.743,74.257,445.218,83.478,445.218"/>
</g>
<path style="fill:#E6F3FF;" d="M100.174,133.566L100.174,133.566c-18.442,0-33.391-14.949-33.391-33.391V33.392
	c0-18.442,14.949-33.391,33.391-33.391l0,0c18.442,0,33.391,14.949,33.391,33.391v66.783
	C133.565,118.616,118.616,133.566,100.174,133.566z"/>
<path style="fill:#CFDBE6;" d="M411.826,133.566L411.826,133.566c-18.442,0-33.391-14.949-33.391-33.391V33.392
	c0-18.442,14.949-33.391,33.391-33.391l0,0c18.442,0,33.391,14.949,33.391,33.391v66.783
	C445.217,118.616,430.268,133.566,411.826,133.566z"/>
<g>
</g>
<g>
</g>
<g>
</g>
<g>
</g>
<g>
</g>
<g>
</g>
<g>
</g>
<g>
</g>
<g>
</g>
<g>
</g>
<g>
</g>
<g>
</g>
<g>
</g>
<g>
</g>
<g>
</g>
</svg>
