<?xml version="1.0" encoding="iso-8859-1"?>
<!-- Generator: Adobe Illustrator 19.0.0, SVG Export Plug-In . SVG Version: 6.00 Build 0)  -->
<svg version="1.1" id="Layer_1" xmlns="http://www.w3.org/2000/svg" xmlns:xlink="http://www.w3.org/1999/xlink" x="0px" y="0px"
	 viewBox="0 0 512 512" style="enable-background:new 0 0 512 512;" xml:space="preserve">
<path style="fill:#FFAA00;" d="M256,512C114.848,511.989,0.011,397.152,0,256C0.011,114.848,114.848,0.011,256,0
	c141.152,0.011,255.989,114.848,256,256C511.989,397.152,397.152,511.989,256,512L256,512z"/>
<path style="fill:#F28D00;" d="M436.926,75.071L75.071,436.926C121.426,483.282,185.423,511.994,256,512
	c141.152-0.011,255.989-114.848,256-256C511.994,185.423,483.282,121.426,436.926,75.071z"/>
<path style="fill:#2EE6E6;" d="M255.913,444.87c-104.076,0-188.75-84.587-188.75-188.554c0-104.348,84.609-189.24,188.597-189.24
	c104.413,0,189.359,84.75,189.359,188.924C445.119,360.141,360.239,444.87,255.913,444.87z"/>
<path style="fill:#26BFBF;" d="M255.913,444.87c104.326,0,189.206-84.728,189.206-188.87c0-52.105-21.252-99.348-55.561-133.561
	L122.466,389.532C156.649,423.702,203.852,444.87,255.913,444.87z"/>
<g>
	<path style="fill:#CFDBE6;" d="M422.957,272.696h-33.391c-9.228,0-16.696-7.467-16.696-16.696c0-9.228,7.467-16.696,16.696-16.696
		h33.391c9.228,0,16.696,7.467,16.696,16.696C439.652,265.228,432.185,272.696,422.957,272.696z"/>
	<path style="fill:#CFDBE6;" d="M256,439.652c-9.228,0-16.696-7.467-16.696-16.696v-33.391c0-9.228,7.467-16.696,16.696-16.696
		c9.228,0,16.696,7.467,16.696,16.696v33.391C272.696,432.185,265.228,439.652,256,439.652z"/>
</g>
<g>
	<path style="fill:#E6F3FF;" d="M256,139.13c-9.228,0-16.696-7.467-16.696-16.696V89.043c0-9.228,7.467-16.696,16.696-16.696
		c9.228,0,16.696,7.467,16.696,16.696v33.391C272.696,131.663,265.228,139.13,256,139.13z"/>
	<path style="fill:#E6F3FF;" d="M122.435,272.696H89.043c-9.228,0-16.696-7.467-16.696-16.696c0-9.228,7.467-16.696,16.696-16.696
		h33.391c9.228,0,16.696,7.467,16.696,16.696C139.13,265.228,131.663,272.696,122.435,272.696z"/>
</g>
<path style="fill:#FF5023;" d="M220.605,220.605c-1.335,1.335-2.337,2.67-3.006,4.341l-47.415,94.496
	c-3.338,6.344-2.003,14.025,3.006,19.368c5.341,5.01,13.021,6.344,19.366,3.006l94.499-47.417c1.67-0.667,3.006-1.67,4.341-3.004
	L220.605,220.605z"/>
<path style="fill:#CD2A00;" d="M173.191,338.809c5.341,5.01,13.021,6.344,19.366,3.006l94.499-47.417
	c1.67-0.667,3.006-1.67,4.341-3.004L256,256l-82.81,82.808L173.191,338.809z"/>
<path style="fill:#E6F3FF;" d="M341.816,192.555l-47.083,94.499c-0.667,1.67-2.003,3.004-3.338,4.341l-70.79-70.79
	c1.335-1.337,2.672-2.672,4.341-3.34l94.498-47.081c6.344-3.006,14.023-2.003,19.031,3.338
	C343.819,178.532,344.82,186.211,341.816,192.555z"/>
<path style="fill:#CFDBE6;" d="M291.395,291.395c1.335-1.337,2.672-2.672,3.338-4.341l47.083-94.499
	c3.004-6.344,2.003-14.023-3.34-19.033L256,256L291.395,291.395z"/>
<g>
</g>
<g>
</g>
<g>
</g>
<g>
</g>
<g>
</g>
<g>
</g>
<g>
</g>
<g>
</g>
<g>
</g>
<g>
</g>
<g>
</g>
<g>
</g>
<g>
</g>
<g>
</g>
<g>
</g>
</svg>
