<?xml version="1.0" encoding="iso-8859-1"?>
<!-- Generator: Adobe Illustrator 19.0.0, SVG Export Plug-In . SVG Version: 6.00 Build 0)  -->
<svg version="1.1" id="Layer_1" xmlns="http://www.w3.org/2000/svg" xmlns:xlink="http://www.w3.org/1999/xlink" x="0px" y="0px"
	 viewBox="0 0 512 512" style="enable-background:new 0 0 512 512;" xml:space="preserve">
<path style="fill:#A4B8CC;" d="M456.348,83.478c-9.228,0-16.696,7.467-16.696,16.696c0,31.533-78.554,66.783-183.652,66.783
	s-183.652-35.25-183.652-66.783c0-9.228-7.467-16.696-16.696-16.696s-16.696,7.467-16.696,16.696c0,116.413,0,214.28,0,311.652
	C38.957,468.924,132.25,512,256,512s217.043-43.076,217.043-100.174c0-97.249,0-195.085,0-311.652
	C473.043,90.946,465.576,83.478,456.348,83.478z"/>
<path style="fill:#8FA8BF;" d="M456.348,83.478c-9.228,0-16.696,7.467-16.696,16.696c0,31.533-78.554,66.783-183.652,66.783
	c0,286.148,0,48.947,0,345.043c123.75,0,217.043-43.076,217.043-100.174c0-97.249,0-195.085,0-311.652
	C473.043,90.946,465.576,83.478,456.348,83.478z"/>
<path style="fill:#B8C9D9;" d="M256,200.348c-123.75,0-217.043-43.076-217.043-100.174v221.688c0,9.942,4.053,19.759,11.982,25.756
	C94.659,380.679,167.16,400.696,256,400.696s161.341-20.017,205.062-53.079c7.929-5.996,11.982-15.814,11.982-25.756V100.174
	C473.043,157.272,379.75,200.348,256,200.348z"/>
<path style="fill:#A4B8CC;" d="M461.062,347.617c7.929-5.996,11.982-15.814,11.982-25.756V100.174
	c0,57.098-93.293,100.174-217.043,100.174v200.348C344.84,400.696,417.341,380.679,461.062,347.617z"/>
<path style="fill:#E6F3FF;" d="M256,200.348c-123.75,0-217.043-43.076-217.043-100.174S132.25,0,256,0
	s217.043,43.076,217.043,100.174S379.75,200.348,256,200.348z"/>
<g>
	<path style="fill:#CFDBE6;" d="M473.043,100.174C473.043,43.076,379.75,0,256,0v200.348
		C379.75,200.348,473.043,157.272,473.043,100.174z"/>
	<path style="fill:#CFDBE6;" d="M256,200.348c-123.75,0-217.043-43.076-217.043-100.174v121.514c0,9.942,4.053,19.759,11.982,25.756
		C94.659,280.505,167.16,300.522,256,300.522s161.341-20.017,205.062-53.079c7.929-5.996,11.982-15.814,11.982-25.756V100.174
		C473.043,157.272,379.75,200.348,256,200.348z"/>
</g>
<path style="fill:#B8C9D9;" d="M461.062,247.443c7.929-5.996,11.982-15.814,11.982-25.756V100.174
	c0,57.098-93.293,100.174-217.043,100.174v100.174C344.84,300.522,417.341,280.505,461.062,247.443z"/>
<g>
</g>
<g>
</g>
<g>
</g>
<g>
</g>
<g>
</g>
<g>
</g>
<g>
</g>
<g>
</g>
<g>
</g>
<g>
</g>
<g>
</g>
<g>
</g>
<g>
</g>
<g>
</g>
<g>
</g>
</svg>
