<?xml version="1.0" encoding="iso-8859-1"?>
<!-- Generator: Adobe Illustrator 19.0.0, SVG Export Plug-In . SVG Version: 6.00 Build 0)  -->
<svg version="1.1" id="Layer_1" xmlns="http://www.w3.org/2000/svg" xmlns:xlink="http://www.w3.org/1999/xlink" x="0px" y="0px"
	 viewBox="0 0 512 512" style="enable-background:new 0 0 512 512;" xml:space="preserve">
<path style="fill:#E6F3FF;" d="M509.089,246.749C452.116,169.217,353.608,89.922,256,89.594
	C158.199,89.922,59.492,169.751,2.911,246.749c-3.882,5.563-3.882,12.936,0,18.501C59.884,342.783,158.392,422.078,256,422.406
	c97.801-0.328,196.509-80.158,253.089-157.156C512.97,259.686,512.97,252.313,509.089,246.749z"/>
<path style="fill:#CFDBE6;" d="M509.089,246.749C452.116,169.217,353.608,89.922,256,89.594v332.812
	c97.801-0.328,196.509-80.158,253.089-157.156C512.97,259.686,512.97,252.313,509.089,246.749z"/>
<path style="fill:#32BBFF;" d="M256,155.839c-55.286,0.027-100.133,44.876-100.162,100.162
	c0.029,55.284,44.876,100.133,100.162,100.16c55.286-0.027,100.133-44.876,100.162-100.16
	C356.133,200.716,311.286,155.866,256,155.839z"/>
<path style="fill:#2C9FD9;" d="M256,155.839v200.322c55.286-0.027,100.133-44.876,100.162-100.16
	C356.133,200.716,311.286,155.866,256,155.839z"/>
<circle style="fill:#003F84;" cx="256.003" cy="256.003" r="33.387"/>
<path style="fill:#000051;" d="M256,222.614v66.775c18.44,0,33.387-14.948,33.387-33.387S274.44,222.614,256,222.614z"/>
<circle style="fill:#E6F3FF;" cx="322.778" cy="189.229" r="33.387"/>
<g>
</g>
<g>
</g>
<g>
</g>
<g>
</g>
<g>
</g>
<g>
</g>
<g>
</g>
<g>
</g>
<g>
</g>
<g>
</g>
<g>
</g>
<g>
</g>
<g>
</g>
<g>
</g>
<g>
</g>
</svg>
