<?xml version="1.0" encoding="iso-8859-1"?>
<!-- Generator: Adobe Illustrator 19.0.0, SVG Export Plug-In . SVG Version: 6.00 Build 0)  -->
<svg version="1.1" id="Layer_1" xmlns="http://www.w3.org/2000/svg" xmlns:xlink="http://www.w3.org/1999/xlink" x="0px" y="0px"
	 viewBox="0 0 512 512" style="enable-background:new 0 0 512 512;" xml:space="preserve">
<path style="fill:#1F63AD;" d="M461.913,105.74H227.362l-19.547-39.096c-8.487-16.968-25.828-27.687-44.8-27.687H50.087
	C22.419,38.968,0.01,61.374,0,89.045v83.478v33.391c183.845,0,328.797,0,512,0v-33.391v-16.696
	C511.988,128.159,489.581,105.75,461.913,105.74z"/>
<path style="fill:#004999;" d="M461.913,105.74H256v100.174c142.249,0,112.529,0,256,0v-33.391v-16.696
	C511.988,128.159,489.581,105.75,461.913,105.74z"/>
<path style="fill:#FFDA44;" d="M0,172.523v33.391v217.043c0.01,27.668,22.419,50.075,50.087,50.085h411.826
	c27.668-0.01,50.077-22.417,50.087-50.085V205.914v-33.391C328.836,172.523,183.915,172.523,0,172.523z"/>
<path style="fill:#FFAA00;" d="M256,172.523v300.519h205.913c27.668-0.01,50.077-22.417,50.087-50.085V205.914v-33.391
	C368.834,172.523,398.249,172.523,256,172.523z"/>
<g>
</g>
<g>
</g>
<g>
</g>
<g>
</g>
<g>
</g>
<g>
</g>
<g>
</g>
<g>
</g>
<g>
</g>
<g>
</g>
<g>
</g>
<g>
</g>
<g>
</g>
<g>
</g>
<g>
</g>
</svg>
