<?xml version="1.0" encoding="iso-8859-1"?>
<!-- Generator: Adobe Illustrator 19.0.0, SVG Export Plug-In . SVG Version: 6.00 Build 0)  -->
<svg version="1.1" id="Layer_1" xmlns="http://www.w3.org/2000/svg" xmlns:xlink="http://www.w3.org/1999/xlink" x="0px" y="0px"
	 viewBox="0 0 512 512" style="enable-background:new 0 0 512 512;" xml:space="preserve">
<path style="fill:#FF4B26;" d="M256,478.609c-5.946,0-11.532-2.315-15.74-6.521L39.88,271.282C14.163,245.533,0,210.456,0,172.522
	c0-76.718,62.413-139.13,139.13-139.13c46.903,0,90.88,23.598,116.87,62.152c25.99-38.555,69.967-62.152,116.87-62.152
	c76.718,0,139.13,62.413,139.13,139.13c0,37.914-14.185,73-39.946,98.794L271.74,472.087
	C267.532,476.294,261.946,478.609,256,478.609z"/>
<path style="fill:#D93F21;" d="M271.74,472.087l200.314-200.772C497.815,245.522,512,210.435,512,172.522
	c0-76.718-62.413-139.13-139.13-139.13c-46.903,0-90.88,23.598-116.87,62.152v383.065
	C261.946,478.609,267.532,476.294,271.74,472.087z"/>
<g>
</g>
<g>
</g>
<g>
</g>
<g>
</g>
<g>
</g>
<g>
</g>
<g>
</g>
<g>
</g>
<g>
</g>
<g>
</g>
<g>
</g>
<g>
</g>
<g>
</g>
<g>
</g>
<g>
</g>
</svg>
