<?xml version="1.0" encoding="iso-8859-1"?>
<!-- Generator: Adobe Illustrator 19.0.0, SVG Export Plug-In . SVG Version: 6.00 Build 0)  -->
<svg version="1.1" id="Layer_1" xmlns="http://www.w3.org/2000/svg" xmlns:xlink="http://www.w3.org/1999/xlink" x="0px" y="0px"
	 viewBox="0 0 512 512" style="enable-background:new 0 0 512 512;" xml:space="preserve">
<path style="fill:#E6F3FF;" d="M498.31,173.746C473.043,98.616,413.496,39.068,338.365,13.69C312.544,4.786,284.829,0,256,0
	s-56.432,4.786-82.254,13.69C98.616,38.957,39.068,98.504,13.69,173.635C4.786,199.457,0,227.172,0,256s4.785,56.543,13.69,82.365
	c25.377,75.13,84.814,134.567,159.944,159.944C199.456,507.214,227.171,512,256,512s56.544-4.786,82.365-13.69
	c75.13-25.377,134.678-84.925,159.944-160.056C507.214,312.431,512,284.828,512,256S507.215,199.569,498.31,173.746z
	 M274.031,343.263c-5.898,1.113-11.908,1.781-18.031,1.781c-6.123,0-12.133-0.668-18.031-1.781
	c-34.616-7.235-61.995-34.616-69.232-69.231c-1.111-5.899-1.78-11.91-1.78-18.031c0-6.122,0.669-12.132,1.78-18.031
	c7.236-34.616,34.617-61.997,69.232-69.231c5.898-1.113,11.908-1.781,18.031-1.781c6.234,0,12.243,0.668,18.143,1.781
	c34.616,7.235,61.884,34.616,69.121,69.231c1.112,5.899,1.78,11.91,1.78,18.031c0,6.122-0.669,12.132-1.78,18.031
	C336.027,308.647,308.647,336.028,274.031,343.263z"/>
<path style="fill:#CFDBE6;" d="M274.143,168.737c34.616,7.235,61.884,34.616,69.121,69.231c1.112,5.899,1.78,11.91,1.78,18.031
	c0,6.122-0.669,12.132-1.78,18.031c-7.236,34.616-34.617,61.997-69.232,69.231c-5.898,1.113-11.908,1.781-18.031,1.781V512
	c28.829,0,56.544-4.786,82.365-13.69c75.13-25.377,134.678-84.925,159.944-160.056C507.214,312.431,512,284.828,512,256
	s-4.785-56.431-13.69-82.254C473.043,98.616,413.496,39.068,338.365,13.69C312.544,4.786,284.829,0,256,0v166.957
	C262.234,166.957,268.243,167.624,274.143,168.737z"/>
<g>
	<path style="fill:#D94F21;" d="M498.31,173.746l-155.046,64.223c-7.236-34.616-34.505-61.997-69.121-69.231L338.365,13.69
		C413.496,39.068,473.043,98.616,498.31,173.746z"/>
	<path style="fill:#D94F21;" d="M498.31,338.254c-25.266,75.13-84.814,134.678-159.944,160.056l-64.334-155.047
		c34.616-7.235,61.995-34.616,69.232-69.231L498.31,338.254z"/>
</g>
<g>
	<path style="fill:#FF5C26;" d="M237.969,343.263L173.635,498.31C98.504,472.932,39.068,413.496,13.69,338.365l155.046-64.334
		C175.973,308.647,203.353,336.028,237.969,343.263z"/>
	<path style="fill:#FF5C26;" d="M173.746,13.69l64.223,155.047c-34.616,7.235-61.995,34.616-69.232,69.231L13.69,173.635
		C39.068,98.504,98.616,38.957,173.746,13.69z"/>
</g>
<g>
</g>
<g>
</g>
<g>
</g>
<g>
</g>
<g>
</g>
<g>
</g>
<g>
</g>
<g>
</g>
<g>
</g>
<g>
</g>
<g>
</g>
<g>
</g>
<g>
</g>
<g>
</g>
<g>
</g>
</svg>
