<?xml version="1.0" encoding="iso-8859-1"?>
<!-- Generator: Adobe Illustrator 19.0.0, SVG Export Plug-In . SVG Version: 6.00 Build 0)  -->
<svg version="1.1" id="Layer_1" xmlns="http://www.w3.org/2000/svg" xmlns:xlink="http://www.w3.org/1999/xlink" x="0px" y="0px"
	 viewBox="0 0 512 512" style="enable-background:new 0 0 512 512;" xml:space="preserve">
<path style="fill:#32BBFF;" d="M512,256c0,5.565-0.223,11.13-0.557,16.584c-3.45,54.205-23.819,103.736-55.763,143.471
	c-6.901,8.793-14.47,17.03-22.595,24.598C387.116,484.842,324.675,512,256,512c-68.786,0-131.228-27.158-177.197-71.457
	c-8.125-7.679-15.805-15.917-22.706-24.821c-31.833-39.736-52.09-89.155-55.541-143.137C0.223,267.13,0,261.565,0,256
	c0-5.677,0.223-11.242,0.668-16.807c3.228-50.977,21.482-97.948,50.31-136.459C57.656,93.83,64.89,85.37,72.682,77.468
	C122.008,26.673,188.432,0,256,0c67.781,0,133.994,26.802,183.096,77.245c7.791,7.903,15.026,16.362,21.704,25.266
	c28.939,38.511,47.304,85.593,50.532,136.682C511.777,244.758,512,250.323,512,256z"/>
<path style="fill:#2C9FD9;" d="M433.085,440.654c8.125-7.569,15.694-15.805,22.595-24.598
	c31.944-39.736,52.313-89.266,55.763-143.471C511.777,267.13,512,261.565,512,256c0-5.677-0.223-11.242-0.668-16.807
	c-3.228-51.089-21.593-98.17-50.532-136.682c-6.678-8.904-13.913-17.363-21.704-25.266C389.994,26.802,323.781,0,256,0v512
	C324.675,512,387.116,484.842,433.085,440.654z"/>
<path style="fill:#E6F3FF;" d="M511.443,272.584C511.777,267.13,512,261.565,512,256c0-5.677-0.223-11.13-0.668-16.696H392.038
	c-1.023-30.964-4.847-60.37-11.025-87.161c28.82-12.466,55.749-29.046,79.786-49.633c-6.678-8.904-13.913-17.363-21.704-25.266
	c-20.368,17.362-42.85,31.497-67.113,42.405C348.146,47.293,305.566,0,256,0c-49.621,0-92.24,47.395-116.063,119.886
	c-0.009-0.004-0.019-0.008-0.028-0.011C115.645,108.967,93.05,94.72,72.682,77.468C64.89,85.37,57.656,93.83,50.977,102.734
	c24.042,20.48,50.977,37.176,79.917,49.53c0.019,0.008,0.039,0.014,0.058,0.023c-6.157,26.751-9.971,56.11-10.991,87.017H0.668
	C0.223,244.87,0,250.323,0,256c0,5.565,0.223,11.13,0.557,16.584h119.396c1.134,34.814,5.801,67.538,13.38,96.951
	c-27.823,11.576-53.752,27.044-77.235,46.186c6.901,8.904,14.581,17.141,22.706,24.821c19.689-16.017,41.377-29.031,64.402-38.936
	C167.544,468.717,208.578,512,256,512c47.367,0,88.358-43.185,112.707-110.16c23.014,10.015,44.697,23.136,64.378,38.814
	c8.125-7.569,15.694-15.805,22.595-24.598c-23.365-18.915-49.29-34.492-77.105-46.178c7.63-29.501,12.334-62.343,13.472-97.293
	L511.443,272.584L511.443,272.584z M272.696,177.53c26.358-1.446,52.161-6.117,76.852-13.786c4.939,22.802,8.046,48.255,8.99,75.56
	h-85.842V177.53z M340.844,131.474c-21.901,6.886-44.803,11.221-68.148,12.665V36.837
	C299.012,47.088,324.477,80.858,340.844,131.474z M239.304,36.837v107.191c-23.432-1.332-46.306-5.551-68.188-12.423
	C187.482,80.918,212.964,47.097,239.304,36.837z M162.421,163.878c24.667,7.654,50.442,12.319,76.883,13.653v61.774h-85.841
	C154.405,212.054,157.499,186.644,162.421,163.878z M239.304,272.584v72.793c-25.558,1.333-50.446,5.664-74.454,12.769
	c-6.266-25.399-10.32-54.107-11.393-85.561h85.847V272.584z M174.487,390.213c20.902-6.22,42.582-10.111,64.817-11.333v96.283
	C214.708,465.583,190.871,435.437,174.487,390.213z M272.696,475.163V378.88c22.222,1.222,43.888,5.221,64.778,11.434
	C321.092,435.48,297.273,465.589,272.696,475.163z M347.067,358.486c-23.904-7.328-48.915-11.775-74.371-13.108v-72.793h85.847
	C357.465,304.178,353.381,333.004,347.067,358.486z"/>
<path style="fill:#B8D0E6;" d="M368.707,401.84c23.014,10.015,44.697,23.136,64.378,38.814c8.125-7.569,15.694-15.805,22.595-24.598
	c-23.365-18.915-49.29-34.492-77.105-46.178c7.63-29.501,12.334-62.343,13.472-97.293h119.396C511.777,267.13,512,261.565,512,256
	c0-5.677-0.223-11.242-0.668-16.807H392.038c-1.023-30.964-4.847-60.259-11.025-87.05c28.82-12.466,55.749-29.046,79.786-49.633
	c-6.678-8.904-13.913-17.363-21.704-25.266c-20.368,17.362-42.85,31.497-67.113,42.405C348.146,47.293,305.566,0,256,0v512
	C303.367,512,344.358,468.815,368.707,401.84z M272.696,36.837c26.317,10.251,51.781,44.021,68.148,94.635
	c-21.901,6.888-44.803,11.222-68.148,12.666V36.837z M272.696,177.53c26.358-1.446,52.161-6.117,76.852-13.786
	c4.939,22.802,8.046,48.255,8.99,75.56h-85.842V177.53z M272.696,272.584h85.847c-1.079,31.594-5.161,60.419-11.475,85.901
	c-23.904-7.328-48.915-11.775-74.371-13.108V272.584z M272.696,378.88c22.222,1.222,43.888,5.221,64.778,11.434
	c-16.383,45.166-40.201,75.274-64.778,84.847V378.88z"/>
<g>
</g>
<g>
</g>
<g>
</g>
<g>
</g>
<g>
</g>
<g>
</g>
<g>
</g>
<g>
</g>
<g>
</g>
<g>
</g>
<g>
</g>
<g>
</g>
<g>
</g>
<g>
</g>
<g>
</g>
</svg>
