<?xml version="1.0" encoding="iso-8859-1"?>
<!-- Generator: Adobe Illustrator 19.0.0, SVG Export Plug-In . SVG Version: 6.00 Build 0)  -->
<svg version="1.1" id="Layer_1" xmlns="http://www.w3.org/2000/svg" xmlns:xlink="http://www.w3.org/1999/xlink" x="0px" y="0px"
	 viewBox="0 0 512.001 512.001" style="enable-background:new 0 0 512.001 512.001;" xml:space="preserve">
<path style="fill:#000051;" d="M198.948,289.168l-48.917,48.917c-6.52,6.52-6.52,17.091,0,23.612c6.52,6.52,17.091,6.52,23.612,0
	l48.917-48.917c6.52-6.52,6.52-17.091,0-23.612C216.04,282.648,205.469,282.648,198.948,289.168"/>
<path style="fill:#1F63AD;" d="M14.949,426.525l78.034-78.639c19.533-19.533,51.293-19.533,70.826,0
	c19.501,19.5,19.501,51.326,0,70.826l-78.034,78.639c-19.533,19.533-51.293,19.533-70.826,0
	C-4.62,477.782-4.62,446.093,14.949,426.525z"/>
<path style="fill:#004999;" d="M85.775,497.35l78.034-78.639c19.494-19.494,19.494-51.303,0.012-70.806L14.937,497.33l0.006,0.014
	C34.481,516.883,66.243,516.883,85.775,497.35z"/>
<path style="fill:#FFAA00;" d="M511.729,182.919C511.717,81.889,429.84,0.01,328.81,0C227.781,0.01,145.903,81.889,145.893,182.919
	c0.01,101.03,81.889,182.909,182.916,182.919C429.84,365.827,511.717,283.949,511.729,182.919z"/>
<path style="fill:#F28D00;" d="M511.729,182.919c-0.004-50.514-20.478-96.242-53.577-129.341L199.47,312.258
	c33.1,33.1,78.826,53.573,129.339,53.58C429.84,365.827,511.717,283.949,511.729,182.919z"/>
<path style="fill:#FFFFFF;" d="M445.212,182.919c-0.029-64.234-52.168-116.372-116.403-116.403
	c-64.233,0.03-116.37,52.168-116.401,116.403c0.03,64.234,52.168,116.372,116.401,116.403
	C393.044,299.291,445.184,247.152,445.212,182.919z"/>
<path style="fill:#D1E7F8;" d="M445.212,182.919c-0.014-32.117-13.058-61.212-34.125-82.278L246.534,265.195
	c21.069,21.069,50.159,34.11,82.276,34.127C393.044,299.291,445.184,247.152,445.212,182.919z"/>
<g>
</g>
<g>
</g>
<g>
</g>
<g>
</g>
<g>
</g>
<g>
</g>
<g>
</g>
<g>
</g>
<g>
</g>
<g>
</g>
<g>
</g>
<g>
</g>
<g>
</g>
<g>
</g>
<g>
</g>
</svg>
