<?xml version="1.0" encoding="iso-8859-1"?>
<!-- Generator: Adobe Illustrator 19.0.0, SVG Export Plug-In . SVG Version: 6.00 Build 0)  -->
<svg version="1.1" id="Layer_1" xmlns="http://www.w3.org/2000/svg" xmlns:xlink="http://www.w3.org/1999/xlink" x="0px" y="0px"
	 viewBox="0 0 512 512" style="enable-background:new 0 0 512 512;" xml:space="preserve">
<path style="fill:#E6F3FF;" d="M511.777,117.426c-2.56-25.266-23.93-45.078-49.864-45.078H50.087
	c-25.934,0-47.304,19.812-49.864,45.078C0.111,119.096,0,120.765,0,122.435v267.13c0,27.603,22.483,50.087,50.087,50.087h411.826
	c27.603,0,50.087-22.483,50.087-50.087v-267.13C512,120.765,511.889,119.096,511.777,117.426z"/>
<path style="fill:#FFDA44;" d="M461.913,72.348H50.087c-25.934,0-47.304,19.812-49.864,45.078l221.496,221.496
	c17.809,17.809,49.753,18.81,69.676-1.113l220.383-220.383C509.217,92.16,487.847,72.348,461.913,72.348z"/>
<path style="fill:#CFDBE6;" d="M461.913,72.348H256v367.304h205.913c27.603,0,50.087-22.483,50.087-50.087v-267.13
	c0-1.67-0.111-3.339-0.223-5.009C509.217,92.16,487.847,72.348,461.913,72.348z"/>
<path style="fill:#FFAA00;" d="M461.913,72.348H256v280.145c12.627-0.072,25.494-4.784,35.395-14.684l220.383-220.383
	C509.217,92.16,487.847,72.348,461.913,72.348z"/>
<g>
</g>
<g>
</g>
<g>
</g>
<g>
</g>
<g>
</g>
<g>
</g>
<g>
</g>
<g>
</g>
<g>
</g>
<g>
</g>
<g>
</g>
<g>
</g>
<g>
</g>
<g>
</g>
<g>
</g>
</svg>
