<?xml version="1.0" encoding="iso-8859-1"?>
<!-- Generator: Adobe Illustrator 19.0.0, SVG Export Plug-In . SVG Version: 6.00 Build 0)  -->
<svg version="1.1" id="Layer_1" xmlns="http://www.w3.org/2000/svg" xmlns:xlink="http://www.w3.org/1999/xlink" x="0px" y="0px"
	 viewBox="0 0 512 512" style="enable-background:new 0 0 512 512;" xml:space="preserve">
<path style="fill:#FFEECC;" d="M512,24.261v409.411c0,6.901-4.241,13.078-10.674,15.571L345.6,509.526
	c-1.97,0.768-4.052,1.135-6.122,1.124c-2.048-0.011-4.096-0.39-6.033-1.169L178.554,447.53c-1.937-0.768-3.985-1.158-6.033-1.169
	c-2.07-0.011-4.152,0.367-6.122,1.124L22.717,503.104C11.787,507.333,0,499.264,0,487.532V88.584c0-6.556,3.84-12.511,9.828-15.215
	L166.044,2.824c2.059-0.935,4.263-1.425,6.478-1.469c2.215-0.056,4.43,0.323,6.534,1.158l154.39,61.752
	c1.937,0.768,3.985,1.158,6.033,1.169c2.07,0.011,4.152-0.367,6.122-1.124L489.283,8.69C500.213,4.46,512,12.53,512,24.261z"/>
<path style="fill:#FFD9B3;" d="M339.478,65.433V510.65c-2.048-0.011-4.096-0.39-6.033-1.169L178.554,447.53
	c-1.937-0.768-3.985-1.158-6.033-1.169V1.355c2.215-0.056,4.43,0.323,6.534,1.158l154.39,61.752
	C335.382,65.032,337.43,65.422,339.478,65.433z"/>
<g>
	<polygon style="fill:#7BD921;" points="172.522,36.182 172.522,409.23 97.002,438.514 96.991,438.514 33.402,463.168 33.402,99.37 
		77.913,79.157 110.381,64.409 	"/>
	<polygon style="fill:#7BD921;" points="478.397,48.626 478.397,422.23 339.501,476.001 339.501,102.564 415.076,73.213 	"/>
</g>
<polygon style="fill:#66B31B;" points="339.501,102.564 339.501,476.035 172.522,409.241 172.522,36.182 "/>
<polygon style="fill:#FFDA44;" points="478.397,48.626 478.397,57.107 97.002,438.514 96.991,438.514 33.402,463.168 
	33.402,454.887 243.523,244.766 77.913,79.157 110.381,64.409 267.13,221.159 415.076,73.213 "/>
<polygon style="fill:#FFAA00;" points="339.501,148.789 339.501,196.004 172.522,362.994 172.522,315.767 243.523,244.766 
	172.522,173.765 172.522,126.55 267.13,221.159 "/>
<g>
</g>
<g>
</g>
<g>
</g>
<g>
</g>
<g>
</g>
<g>
</g>
<g>
</g>
<g>
</g>
<g>
</g>
<g>
</g>
<g>
</g>
<g>
</g>
<g>
</g>
<g>
</g>
<g>
</g>
</svg>
