<?xml version="1.0" encoding="iso-8859-1"?>
<!-- Generator: Adobe Illustrator 19.0.0, SVG Export Plug-In . SVG Version: 6.00 Build 0)  -->
<svg version="1.1" id="Layer_1" xmlns="http://www.w3.org/2000/svg" xmlns:xlink="http://www.w3.org/1999/xlink" x="0px" y="0px"
	 viewBox="0 0 512 512" style="enable-background:new 0 0 512 512;" xml:space="preserve">
<path style="fill:#CFDBE6;" d="M50.962,511.992C22.936,512.474,0,489.053,0,461.025V150.261c0-9.22,7.475-16.696,16.696-16.696
	h83.478v328.348C100.174,489.24,78.179,511.525,50.962,511.992z"/>
<path style="fill:#E6F4FF;" d="M495.304,0H116.87c-9.228,0-16.696,7.467-16.696,16.696v116.87v311.652v16.696
	c0,27.619-22.468,50.087-50.087,50.087h395.13C482.032,512,512,482.032,512,445.217V16.696C512,7.467,504.533,0,495.304,0z"/>
<path style="fill:#CFDBE6;" d="M495.304,0H306.087v512h139.13C482.032,512,512,482.032,512,445.217V16.696
	C512,7.467,504.533,0,495.304,0z"/>
<path style="fill:#B8C8D9;" d="M428.522,445.217h-244.87c-9.228,0-16.696-7.467-16.696-16.696c0-9.228,7.467-16.696,16.696-16.696
	h244.87c9.228,0,16.696,7.467,16.696,16.696C445.217,437.75,437.75,445.217,428.522,445.217z"/>
<path style="fill:#A3B8CC;" d="M428.522,411.826H306.087v33.391h122.435c9.228,0,16.696-7.467,16.696-16.696
	C445.217,419.293,437.75,411.826,428.522,411.826z"/>
<path style="fill:#B8C8D9;" d="M428.522,378.435h-244.87c-9.228,0-16.696-7.467-16.696-16.696c0-9.228,7.467-16.696,16.696-16.696
	h244.87c9.228,0,16.696,7.467,16.696,16.696C445.217,370.967,437.75,378.435,428.522,378.435z"/>
<path style="fill:#A3B8CC;" d="M428.522,345.043H306.087v33.391h122.435c9.228,0,16.696-7.467,16.696-16.696
	C445.217,352.511,437.75,345.043,428.522,345.043z"/>
<path style="fill:#B8C8D9;" d="M428.522,311.652h-244.87c-9.228,0-16.696-7.467-16.696-16.696V150.261
	c0-9.228,7.467-16.696,16.696-16.696h244.87c9.228,0,16.696,7.467,16.696,16.696v144.696
	C445.217,304.185,437.75,311.652,428.522,311.652z"/>
<path style="fill:#A3B8CC;" d="M428.522,133.565H306.087v178.087h122.435c9.228,0,16.696-7.467,16.696-16.696V150.261
	C445.217,141.033,437.75,133.565,428.522,133.565z"/>
<path style="fill:#B8C8D9;" d="M428.522,100.174h-244.87c-9.228,0-16.696-7.467-16.696-16.696s7.467-16.696,16.696-16.696h244.87
	c9.228,0,16.696,7.467,16.696,16.696S437.75,100.174,428.522,100.174z"/>
<path style="fill:#A3B8CC;" d="M428.522,66.783H306.087v33.391h122.435c9.228,0,16.696-7.467,16.696-16.696
	S437.75,66.783,428.522,66.783z"/>
<g>
</g>
<g>
</g>
<g>
</g>
<g>
</g>
<g>
</g>
<g>
</g>
<g>
</g>
<g>
</g>
<g>
</g>
<g>
</g>
<g>
</g>
<g>
</g>
<g>
</g>
<g>
</g>
<g>
</g>
</svg>
