<?xml version="1.0" encoding="iso-8859-1"?>
<!-- Generator: Adobe Illustrator 19.0.0, SVG Export Plug-In . SVG Version: 6.00 Build 0)  -->
<svg version="1.1" id="Layer_1" xmlns="http://www.w3.org/2000/svg" xmlns:xlink="http://www.w3.org/1999/xlink" x="0px" y="0px"
	 viewBox="0 0 512 512" style="enable-background:new 0 0 512 512;" xml:space="preserve">
<path style="fill:#FFAA00;" d="M256,100.174c-27.619,0-50.087-22.468-50.087-50.087S228.381,0,256,0s50.087,22.468,50.087,50.087
	S283.619,100.174,256,100.174z M256,33.391c-9.196,0-16.696,7.5-16.696,16.696s7.5,16.696,16.696,16.696
	c9.196,0,16.696-7.5,16.696-16.696S265.196,33.391,256,33.391z"/>
<path style="fill:#F28D00;" d="M256.006,0v33.394c9.194,0.003,16.69,7.5,16.69,16.693s-7.496,16.69-16.69,16.693v33.394
	c27.618-0.004,50.081-22.469,50.081-50.087S283.624,0.004,256.006,0z"/>
<path style="fill:#FFAA00;" d="M256,512c-46.043,0-83.478-37.435-83.478-83.478c0-9.228,7.467-16.696,16.696-16.696h133.565
	c9.228,0,16.696,7.467,16.696,16.696C339.478,474.565,302.043,512,256,512z"/>
<path style="fill:#F28D00;" d="M322.783,411.826h-66.777V512c46.042-0.004,83.473-37.437,83.473-83.478
	C339.478,419.293,332.011,411.826,322.783,411.826z"/>
<path style="fill:#FFDA44;" d="M439.652,348.113v-97.678C439.642,149,357.435,66.793,256,66.783
	C154.565,66.793,72.358,149,72.348,250.435v97.678c-19.41,6.901-33.384,25.233-33.391,47.017
	c0.01,27.668,22.419,50.075,50.087,50.085h333.913c27.668-0.01,50.077-22.417,50.087-50.085
	C473.036,373.346,459.063,355.014,439.652,348.113z"/>
<path style="fill:#FFAA00;" d="M439.652,348.113v-97.678C439.642,149,357.435,66.793,256,66.783v378.432h166.957
	c27.668-0.01,50.077-22.417,50.087-50.085C473.036,373.346,459.063,355.014,439.652,348.113z"/>
<path style="fill:#FFF3DB;" d="M155.826,267.13c-9.228,0-16.696-7.467-16.696-16.696c0-47.022,28.011-89.283,71.381-107.641
	c8.446-3.587,18.294,0.326,21.88,8.836c3.62,8.51-0.358,18.294-8.836,21.88c-31.012,13.142-51.033,43.337-51.033,76.925
	C172.522,259.663,165.054,267.13,155.826,267.13z"/>
<g>
</g>
<g>
</g>
<g>
</g>
<g>
</g>
<g>
</g>
<g>
</g>
<g>
</g>
<g>
</g>
<g>
</g>
<g>
</g>
<g>
</g>
<g>
</g>
<g>
</g>
<g>
</g>
<g>
</g>
</svg>
