<?xml version="1.0" encoding="iso-8859-1"?>
<!-- Generator: Adobe Illustrator 19.0.0, SVG Export Plug-In . SVG Version: 6.00 Build 0)  -->
<svg version="1.1" id="Layer_1" xmlns="http://www.w3.org/2000/svg" xmlns:xlink="http://www.w3.org/1999/xlink" x="0px" y="0px"
	 viewBox="0 0 511.999 511.999" style="enable-background:new 0 0 511.999 511.999;" xml:space="preserve">
<path style="fill:#FFAA00;" d="M495.281,133.577H16.719c-13.275,0-21.3-14.873-13.889-25.954L69.606,7.46
	c3.097-4.63,8.315-7.434,13.889-7.434h345.01c5.576,0,10.792,2.805,13.889,7.434l66.776,100.164
	C516.58,118.703,508.556,133.577,495.281,133.577z"/>
<path style="fill:#F28D00;" d="M442.394,7.458c-3.097-4.63-8.315-7.434-13.889-7.434H256v133.552h239.281
	c13.274,0,21.299-14.874,13.889-25.954L442.394,7.458z"/>
<path style="fill:#FFDA44;" d="M495.281,511.975H16.719c-9.227,0-16.694-7.467-16.694-16.694V116.883
	c0-9.227,7.467-16.694,16.694-16.694h478.562c9.227,0,16.694,7.467,16.694,16.694v378.398
	C511.975,504.508,504.508,511.975,495.281,511.975z"/>
<path style="fill:#FFAA00;" d="M495.281,100.189H256v411.786h239.281c9.227,0,16.694-7.467,16.694-16.694V116.883
	C511.975,107.655,504.508,100.189,495.281,100.189z"/>
<path style="fill:#FFFFFF;" d="M289.388,200.353h-66.776c-9.22,0-16.694-7.474-16.694-16.694V0.025h100.164v183.634
	C306.082,192.879,298.607,200.353,289.388,200.353z"/>
<g>
	<path style="fill:#FFEECC;" d="M256,200.353h33.388c9.22,0,16.694-7.474,16.694-16.694V0.025H256L256,200.353L256,200.353z"/>
	<rect x="205.914" y="0.025" style="fill:#FFEECC;" width="100.164" height="100.164"/>
</g>
<rect x="255.996" y="0.025" style="fill:#FFD9B3;" width="50.082" height="100.164"/>
<path style="fill:#1F63AD;" d="M422.94,445.199H222.612c-9.227,0-16.694-7.467-16.694-16.694s7.467-16.694,16.694-16.694H422.94
	c9.227,0,16.694,7.467,16.694,16.694S432.167,445.199,422.94,445.199z"/>
<g>
	<path style="fill:#004999;" d="M422.94,411.811H256v33.388h166.94c9.227,0,16.694-7.467,16.694-16.694
		S432.167,411.811,422.94,411.811z"/>
	<path style="fill:#004999;" d="M434.743,283.149l-33.388-33.388c-6.521-6.521-17.086-6.521-23.606,0l-33.388,33.388
		c-6.521,6.521-6.521,17.086,0,23.606c6.521,6.521,17.086,6.521,23.606,0l4.891-4.891v59.864c0,9.227,7.467,16.694,16.694,16.694
		s16.694-7.467,16.694-16.694v-59.864l4.891,4.891c6.521,6.521,17.086,6.521,23.606,0S441.263,289.67,434.743,283.149z"/>
</g>
<path style="fill:#1F63AD;" d="M301.19,283.149l-33.388-33.388c-6.521-6.521-17.086-6.521-23.606,0l-33.388,33.388
	c-6.521,6.521-6.521,17.086,0,23.606s17.086,6.521,23.606,0l4.891-4.891v59.864c0,9.227,7.467,16.694,16.694,16.694
	s16.694-7.467,16.694-16.694v-59.864l4.891,4.891c6.521,6.521,17.086,6.521,23.606,0S307.711,289.67,301.19,283.149z"/>
<path style="fill:#004999;" d="M272.694,361.729v-59.864l4.891,4.891c6.521,6.521,17.086,6.521,23.606,0s6.521-17.086,0-23.606
	l-33.388-33.388c-3.261-3.261-7.532-4.891-11.803-4.891v133.552C265.227,378.423,272.694,370.956,272.694,361.729z"/>
<g>
</g>
<g>
</g>
<g>
</g>
<g>
</g>
<g>
</g>
<g>
</g>
<g>
</g>
<g>
</g>
<g>
</g>
<g>
</g>
<g>
</g>
<g>
</g>
<g>
</g>
<g>
</g>
<g>
</g>
</svg>
