<?xml version="1.0" encoding="iso-8859-1"?>
<!-- Generator: Adobe Illustrator 19.0.0, SVG Export Plug-In . SVG Version: 6.00 Build 0)  -->
<svg version="1.1" id="Layer_1" xmlns="http://www.w3.org/2000/svg" xmlns:xlink="http://www.w3.org/1999/xlink" x="0px" y="0px"
	 viewBox="0 0 512 512" style="enable-background:new 0 0 512 512;" xml:space="preserve">
<path style="fill:#E6F3FF;" d="M389.571,244.87h-33.391c-9.228,0-16.696-7.467-16.696-16.696v-77.913
	c0-46.043-37.435-83.478-83.478-83.478s-83.478,37.435-83.478,83.478v77.913c0,9.228-7.467,16.696-16.696,16.696H122.44
	c-9.228,0-16.696-7.467-16.696-16.696v-77.913C105.745,67.403,173.147,0,256.006,0s150.261,67.403,150.261,150.261v77.913
	C406.266,237.402,398.799,244.87,389.571,244.87z"/>
<path style="fill:#CFDBE6;" d="M339.484,150.261v77.913c0,9.228,7.467,16.696,16.696,16.696h33.391
	c9.228,0,16.696-7.467,16.696-16.696v-77.913C406.266,67.403,338.864,0,256.006,0v66.783
	C302.05,66.783,339.484,104.218,339.484,150.261z"/>
<path style="fill:#FFAA00;" d="M422.957,512H89.043c-27.619,0-50.087-22.468-50.087-50.087V261.565
	c0-27.619,22.468-50.087,50.087-50.087h333.913c27.619,0,50.087,22.468,50.087,50.087v200.348
	C473.043,489.532,450.576,512,422.957,512z"/>
<path style="fill:#F28D00;" d="M256.006,512h166.951c27.619,0,50.087-22.468,50.087-50.087V261.565
	c0-27.619-22.468-50.087-50.087-50.087H256.006V512z"/>
<path style="fill:#144F9B;" d="M256,278.261c-27.667,0.022-50.065,22.419-50.087,50.087c0.018,21.779,13.988,40.104,33.391,47.009
	v53.165c0,9.22,7.475,16.696,16.696,16.696s16.696-7.475,16.696-16.696v-53.165c19.404-6.905,33.374-25.23,33.391-47.009
	C306.065,300.68,283.667,278.283,256,278.261z"/>
<path style="fill:#003F84;" d="M272.696,428.522v-53.165c19.404-6.905,33.374-25.23,33.391-47.009
	c-0.022-27.668-22.42-50.065-50.087-50.087v166.957C265.22,445.217,272.696,437.742,272.696,428.522z"/>
<g>
</g>
<g>
</g>
<g>
</g>
<g>
</g>
<g>
</g>
<g>
</g>
<g>
</g>
<g>
</g>
<g>
</g>
<g>
</g>
<g>
</g>
<g>
</g>
<g>
</g>
<g>
</g>
<g>
</g>
</svg>
