<?xml version="1.0" encoding="iso-8859-1"?>
<!-- Generator: Adobe Illustrator 19.0.0, SVG Export Plug-In . SVG Version: 6.00 Build 0)  -->
<svg version="1.1" id="Layer_1" xmlns="http://www.w3.org/2000/svg" xmlns:xlink="http://www.w3.org/1999/xlink" x="0px" y="0px"
	 viewBox="0 0 512 512" style="enable-background:new 0 0 512 512;" xml:space="preserve">
<path style="fill:#000051;" d="M239.304,361.739v66.783c0,9.22,7.474,16.696,16.696,16.696c9.22,0,16.696-7.475,16.696-16.696
	v-66.783c0-9.223-7.475-16.696-16.696-16.696C246.778,345.043,239.304,352.516,239.304,361.739"/>
<path style="fill:#1F63AD;" d="M256,512c-27.619,0-50.087-22.468-50.087-50.087s22.468-50.087,50.087-50.087
	s50.087,22.468,50.087,50.087S283.619,512,256,512z M256,445.217c-9.196,0-16.696,7.5-16.696,16.696s7.5,16.696,16.696,16.696
	c9.196,0,16.696-7.5,16.696-16.696S265.196,445.217,256,445.217z"/>
<path style="fill:#004999;" d="M272.696,461.913c0,9.196-7.5,16.696-16.696,16.696V512c27.619,0,50.087-22.468,50.087-50.087
	S283.619,411.826,256,411.826v33.391C265.196,445.217,272.696,452.717,272.696,461.913z"/>
<path style="fill:#E6F3FF;" d="M461.913,33.391H50.087c-9.18,0-16.696,7.477-16.696,16.696v294.957
	c0.01,18.446,14.943,33.379,33.391,33.389h378.435c18.449-0.01,33.381-14.943,33.391-33.389V50.087
	C478.609,40.869,471.093,33.391,461.913,33.391z"/>
<path style="fill:#CFDBE6;" d="M461.913,33.391H256v345.041h189.217c18.449-0.01,33.381-14.943,33.391-33.389V50.087
	C478.609,40.869,471.093,33.391,461.913,33.391z"/>
<path style="fill:#32BBFF;" d="M478.609,66.783H33.391C14.984,66.783,0,51.816,0,33.391S14.984,0,33.391,0h445.217
	C497.033,0,512,14.967,512,33.391S497.033,66.783,478.609,66.783z"/>
<path style="fill:#2C9FD9;" d="M478.609,0H256v66.783h222.609c18.424,0,33.391-14.967,33.391-33.391S497.033,0,478.609,0z"/>
<g>
</g>
<g>
</g>
<g>
</g>
<g>
</g>
<g>
</g>
<g>
</g>
<g>
</g>
<g>
</g>
<g>
</g>
<g>
</g>
<g>
</g>
<g>
</g>
<g>
</g>
<g>
</g>
<g>
</g>
</svg>
