<?xml version="1.0" encoding="iso-8859-1"?>
<!-- Generator: Adobe Illustrator 19.0.0, SVG Export Plug-In . SVG Version: 6.00 Build 0)  -->
<svg version="1.1" id="Layer_1" xmlns="http://www.w3.org/2000/svg" xmlns:xlink="http://www.w3.org/1999/xlink" x="0px" y="0px"
	 viewBox="0 0 512.001 512.001" style="enable-background:new 0 0 512.001 512.001;" xml:space="preserve">
<path style="fill:#32BBFF;" d="M490.141,2.527c-0.305-0.188-11.127,0.943-19.412,10.219
	c-78.91,88.34-279.879,340.309-279.879,340.309c-2.332,2.998-3.665,6.663-3.665,10.439v131.815
	c0,14.436,17.101,21.988,27.762,12.437l97.501-87.395l8.884-7.884c1.777-1.555,3.109-3.554,4.109-5.663
	c0,0,168.081-384.839,169.349-390.114C496.113,11.181,495.047,5.549,490.141,2.527z"/>
<path style="fill:#03A9F4;" d="M214.945,507.745l97.501-87.395l19.989-6.774c1.777-1.555,3.109-3.554,4.109-5.664
	c0,0,160.465-388.893,160.465-391.225c0-5.663-1.747-11.057-6.855-14.168L198.005,510.796
	C203.441,512.856,209.898,512.266,214.945,507.745z"/>
<path style="fill:#E6F3FF;" d="M490.154,2.52c-5.055-3.083-10.913-3.268-15.799-0.935l-3.22,1.999l-449.414,276.4
	c-5.33,3.331-8.329,9.328-7.773,15.658c0.444,6.219,4.553,11.66,10.328,13.992l162.908,65.075L490.154,2.52
	C490.137,2.511,490.171,2.53,490.154,2.52z"/>
<path style="fill:#CFDBE6;" d="M473.245,508.634c5.619,3.176,12.67,2.878,17.941-0.896c4.325-3.097,6.934-8.224,6.934-13.539V16.689
	c0-5.643-2.732-11.015-7.966-14.168L312.446,420.35l0,0L473.245,508.634z"/>
<g>
</g>
<g>
</g>
<g>
</g>
<g>
</g>
<g>
</g>
<g>
</g>
<g>
</g>
<g>
</g>
<g>
</g>
<g>
</g>
<g>
</g>
<g>
</g>
<g>
</g>
<g>
</g>
<g>
</g>
</svg>
