<?xml version="1.0" encoding="iso-8859-1"?>
<!-- Generator: Adobe Illustrator 19.0.0, SVG Export Plug-In . SVG Version: 6.00 Build 0)  -->
<svg version="1.1" id="Layer_1" xmlns="http://www.w3.org/2000/svg" xmlns:xlink="http://www.w3.org/1999/xlink" x="0px" y="0px"
	 viewBox="0 0 512 512" style="enable-background:new 0 0 512 512;" xml:space="preserve">
<path style="fill:#1F63AD;" d="M410.063,98.273L376.672,31.49c-2.835-5.668-8.596-9.228-14.933-9.228H150.261
	c-6.337,0-12.1,3.558-14.933,9.228l-33.391,66.783c-5.545,11.083,2.54,24.163,14.933,24.163H395.13
	C407.523,122.436,415.605,109.357,410.063,98.273z"/>
<path style="fill:#004999;" d="M410.063,98.273L376.672,31.49c-2.835-5.668-8.596-9.228-14.933-9.228H256v100.174h139.13
	C407.523,122.436,415.605,109.357,410.063,98.273z"/>
<path style="fill:#FFAA00;" d="M0,222.61c0,83.111,0,134.17,0,217.043c0.01,27.668,22.419,50.075,50.087,50.085h411.826
	c27.668-0.01,50.077-22.417,50.087-50.085c0-82.874,0-133.933,0-217.043C286.454,222.61,225.467,222.61,0,222.61z"/>
<path style="fill:#F28D00;" d="M256,222.61v267.128h205.913c27.668-0.01,50.077-22.417,50.087-50.085c0-82.874,0-133.933,0-217.043
	C368.834,222.61,398.249,222.61,256,222.61z"/>
<path style="fill:#E6F3FF;" d="M461.913,89.045H50.087C22.419,89.055,0.01,111.461,0,139.132c0,105.524,0,50.068,0,116.87
	c187.276,0,325.323,0,512,0c0-66.78,0-11.389,0-116.87C511.99,111.461,489.581,89.055,461.913,89.045z"/>
<path style="fill:#CFDBE6;" d="M461.913,89.045H256v166.957c142.249,0,112.529,0,256,0c0-66.78,0-11.389,0-116.87
	C511.99,111.461,489.581,89.055,461.913,89.045z"/>
<path style="fill:#66B31B;" d="M395.13,189.218h33.391c9.22,0,16.696-7.475,16.696-16.696c0-9.222-7.475-16.696-16.696-16.696
	H395.13c-9.222,0-16.696,7.474-16.696,16.696C378.435,181.743,385.909,189.218,395.13,189.218"/>
<path style="fill:#1F63AD;" d="M256,189.218c-64.551,0.01-116.86,52.316-116.87,116.87c0.01,64.551,52.319,116.857,116.87,116.867
	c64.551-0.01,116.86-52.316,116.87-116.867C372.86,241.535,320.551,189.229,256,189.218z"/>
<path style="fill:#004999;" d="M256,189.218v233.737c64.551-0.01,116.86-52.316,116.87-116.867
	C372.86,241.535,320.551,189.229,256,189.218z"/>
<path style="fill:#E6F3FF;" d="M256,256.001c-27.655,0.027-50.058,22.408-50.087,50.087c0.029,27.677,22.432,50.058,50.087,50.085
	c27.655-0.027,50.058-22.408,50.087-50.085C306.058,278.409,283.655,256.028,256,256.001z"/>
<path style="fill:#CFDBE6;" d="M256,256.001v100.172c27.655-0.027,50.058-22.408,50.087-50.085
	C306.058,278.409,283.655,256.028,256,256.001z"/>
<g>
</g>
<g>
</g>
<g>
</g>
<g>
</g>
<g>
</g>
<g>
</g>
<g>
</g>
<g>
</g>
<g>
</g>
<g>
</g>
<g>
</g>
<g>
</g>
<g>
</g>
<g>
</g>
<g>
</g>
</svg>
