<?xml version="1.0" encoding="iso-8859-1"?>
<!-- Generator: Adobe Illustrator 19.0.0, SVG Export Plug-In . SVG Version: 6.00 Build 0)  -->
<svg version="1.1" id="Layer_1" xmlns="http://www.w3.org/2000/svg" xmlns:xlink="http://www.w3.org/1999/xlink" x="0px" y="0px"
	 viewBox="0 0 512 512" style="enable-background:new 0 0 512 512;" xml:space="preserve">
<path style="fill:#FFAA00;" d="M50.087,511.968C22.424,511.968,0,489.543,0,461.881V50.119C0,22.457,22.424,0.032,50.087,0.032
	h411.826C489.576,0.032,512,22.457,512,50.119v411.76c0,27.662-22.424,50.087-50.087,50.087H50.087V511.968z"/>
<path style="fill:#F28D00;" d="M461.913,0.032H256v511.934h205.913c27.662,0,50.087-22.424,50.087-50.087V50.119
	C512,22.457,489.576,0.032,461.913,0.032z"/>
<path style="fill:#E6F3FF;" d="M445.217,83.511v345.043c0,9.238-7.456,16.696-16.696,16.696H83.478
	c-8.125,0-14.805-5.677-16.362-13.357c-0.223-1.113-0.334-2.226-0.334-3.339V83.511c0-9.238,7.456-16.696,16.696-16.696h345.043
	C437.761,66.815,445.217,74.272,445.217,83.511z"/>
<path style="fill:#CFDBE6;" d="M256,445.25h172.522c9.239,0,16.696-7.457,16.696-16.696V83.511c0-9.238-7.456-16.696-16.696-16.696
	H256V445.25z"/>
<path style="fill:#66B31B;" d="M234.408,333.277l-66.783-66.783c-6.568-6.567-17.03-6.567-23.598,0L66.783,343.74v84.814
	c0,1.113,0.111,2.226,0.334,3.339c1.557,7.68,8.237,13.357,16.362,13.357h55.652c4.452,0,8.682-1.781,11.799-4.897l83.478-83.478
	C240.974,350.307,240.974,339.844,234.408,333.277z"/>
<path style="fill:#7BD921;" d="M351.278,216.297c-6.568-6.456-17.03-6.456-23.598,0L256,287.977L98.838,445.25h329.683
	c9.239,0,16.696-7.457,16.696-16.696V310.237L351.278,216.297z"/>
<path style="fill:#66B31B;" d="M445.217,310.237v118.316c0,9.238-7.456,16.696-16.696,16.696H256V287.977l71.679-71.68
	c6.568-6.456,17.03-6.456,23.598,0L445.217,310.237z"/>
<path style="fill:#FFDA44;" d="M189.217,205.945c-27.619,0-50.087-22.468-50.087-50.087s22.468-50.087,50.087-50.087
	s50.087,22.468,50.087,50.087S216.836,205.945,189.217,205.945z"/>
<path style="fill:#FFAA00;" d="M239.304,155.858c0-27.619-22.468-50.087-50.087-50.087v100.174
	C216.836,205.945,239.304,183.479,239.304,155.858z"/>
<g>
</g>
<g>
</g>
<g>
</g>
<g>
</g>
<g>
</g>
<g>
</g>
<g>
</g>
<g>
</g>
<g>
</g>
<g>
</g>
<g>
</g>
<g>
</g>
<g>
</g>
<g>
</g>
<g>
</g>
</svg>
