<?xml version="1.0" encoding="iso-8859-1"?>
<!-- Generator: Adobe Illustrator 19.0.0, SVG Export Plug-In . SVG Version: 6.00 Build 0)  -->
<svg version="1.1" id="Layer_1" xmlns="http://www.w3.org/2000/svg" xmlns:xlink="http://www.w3.org/1999/xlink" x="0px" y="0px"
	 viewBox="0 0 512 512" style="enable-background:new 0 0 512 512;" xml:space="preserve">
<path style="fill:#32BBFF;" d="M417.391,278.262H233.739V94.611c0-9.218-7.515-16.696-16.696-16.696
	C97.168,77.925,0.011,175.08,0.001,294.958c0.01,119.871,97.155,217.021,217.028,217.04l0.014,0.002v-0.002
	c119.875-0.01,217.033-97.165,217.043-217.04C434.086,285.74,426.571,278.262,417.391,278.262z"/>
<path style="fill:#2C9FD9;" d="M417.391,278.262H233.737v-0.051l-170.19,170.19c39.272,39.285,93.535,63.587,153.482,63.597
	l0.014,0.002v-0.002c119.875-0.01,217.033-97.165,217.043-217.04C434.086,285.74,426.571,278.262,417.391,278.262z"/>
<path style="fill:#FFDA44;" d="M267.131,244.869V16.839c0-9.142,7.372-16.535,16.511-16.767
	c127.213-3.219,231.498,101.061,228.285,228.284c-0.23,9.14-7.623,16.512-16.767,16.512L267.131,244.869L267.131,244.869z"/>
<path style="fill:#FFAA00;" d="M511.927,228.357c1.606-63.61-23.66-121.484-65.23-163.055L267.131,244.869H495.16
	C504.302,244.869,511.696,237.496,511.927,228.357z"/>
<g>
</g>
<g>
</g>
<g>
</g>
<g>
</g>
<g>
</g>
<g>
</g>
<g>
</g>
<g>
</g>
<g>
</g>
<g>
</g>
<g>
</g>
<g>
</g>
<g>
</g>
<g>
</g>
<g>
</g>
</svg>
