<?xml version="1.0" encoding="iso-8859-1"?>
<!-- Generator: Adobe Illustrator 19.0.0, SVG Export Plug-In . SVG Version: 6.00 Build 0)  -->
<svg version="1.1" id="Layer_1" xmlns="http://www.w3.org/2000/svg" xmlns:xlink="http://www.w3.org/1999/xlink" x="0px" y="0px"
	 viewBox="0 0 512 512" style="enable-background:new 0 0 512 512;" xml:space="preserve">
<path style="fill:#FF4B26;" d="M444.233,169.659C434.592,72.933,353.67,0,256.01,0C151.676,0,66.798,84.878,66.798,189.212
	c0,41.238,12.957,80.324,37.489,113.062L242.163,504.63c3.109,4.609,8.293,7.369,13.847,7.369s10.738-2.76,13.847-7.369
	l137.496-201.855C435.929,264.83,449.027,217.549,444.233,169.659z M256.01,272.689c-46.031,0-83.476-37.445-83.476-83.476
	s37.445-83.476,83.476-83.476s83.476,37.445,83.476,83.476S302.041,272.689,256.01,272.689z"/>
<path style="fill:#D93F21;" d="M339.486,189.212c0,46.031-37.445,83.476-83.476,83.476V512c5.554,0,10.738-2.76,13.847-7.369
	l137.496-201.855c28.576-37.945,41.672-85.226,36.88-133.117C434.592,72.933,353.67,0,256.01,0v105.736
	C302.041,105.736,339.486,143.182,339.486,189.212z"/>
<g>
</g>
<g>
</g>
<g>
</g>
<g>
</g>
<g>
</g>
<g>
</g>
<g>
</g>
<g>
</g>
<g>
</g>
<g>
</g>
<g>
</g>
<g>
</g>
<g>
</g>
<g>
</g>
<g>
</g>
</svg>
