<?xml version="1.0" encoding="iso-8859-1"?>
<!-- Generator: Adobe Illustrator 19.0.0, SVG Export Plug-In . SVG Version: 6.00 Build 0)  -->
<svg version="1.1" id="Layer_1" xmlns="http://www.w3.org/2000/svg" xmlns:xlink="http://www.w3.org/1999/xlink" x="0px" y="0px"
	 viewBox="0 0 512 512" style="enable-background:new 0 0 512 512;" xml:space="preserve">
<path style="fill:#1F63AD;" d="M269.446,446.076L169.272,416.01c-21.358-6.391-35.706-25.663-35.706-47.934v-41.967
	c0-11.479,11.216-19.201,21.49-15.978l166.957,50.087c7.076,2.119,11.902,8.608,11.902,15.978v21.914
	c0,15.978-7.369,30.652-20.185,40.174C300.611,448.048,284.247,450.607,269.446,446.076z M166.957,348.544v19.533
	c0,7.402,4.794,13.826,11.902,15.978l100.174,30.066c11.188,3.228,21.49-5.178,21.49-16.011v-9.489L166.957,348.544z"/>
<path style="fill:#004999;" d="M322.011,360.218l-88.272-26.483v34.846l66.783,20.038v9.489c0,10.832-10.3,19.237-21.49,16.011
	l-45.293-13.594v34.834l35.706,10.716c14.8,4.53,31.164,1.971,44.282-7.794c12.816-9.521,20.185-24.195,20.185-40.173v-21.914
	C333.913,368.826,329.087,362.337,322.011,360.218z"/>
<polygon style="fill:#FFAA00;" points="467.478,73.282 66.783,193.489 66.783,318.506 467.478,438.717 "/>
<polygon style="fill:#F28D00;" points="467.478,256 66.783,256 66.783,318.506 467.478,438.717 "/>
<path style="fill:#E6F3FF;" d="M478.609,456.348c-18.424,0-33.391-14.967-33.391-33.391V89.043
	c0-18.424,14.967-33.391,33.391-33.391S512,70.619,512,89.043v333.913C512,441.381,497.033,456.348,478.609,456.348z"/>
<path style="fill:#B8D0E6;" d="M445.217,256v166.957c0,18.424,14.967,33.391,33.391,33.391S512,441.381,512,422.957V256H445.217z"/>
<path style="fill:#E6F3FF;" d="M33.391,356.174C14.984,356.174,0,341.207,0,322.783V189.217c0-18.424,14.984-33.391,33.391-33.391
	s33.391,14.967,33.391,33.391v133.565C66.783,341.207,51.799,356.174,33.391,356.174z"/>
<path style="fill:#B8D0E6;" d="M0,256v66.783c0,18.424,14.984,33.391,33.391,33.391s33.391-14.967,33.391-33.391V256H0z"/>
<g>
</g>
<g>
</g>
<g>
</g>
<g>
</g>
<g>
</g>
<g>
</g>
<g>
</g>
<g>
</g>
<g>
</g>
<g>
</g>
<g>
</g>
<g>
</g>
<g>
</g>
<g>
</g>
<g>
</g>
</svg>
