<?xml version="1.0" encoding="iso-8859-1"?>
<!-- Generator: Adobe Illustrator 19.0.0, SVG Export Plug-In . SVG Version: 6.00 Build 0)  -->
<svg version="1.1" id="Layer_1" xmlns="http://www.w3.org/2000/svg" xmlns:xlink="http://www.w3.org/1999/xlink" x="0px" y="0px"
	 viewBox="0 0 512 512" style="enable-background:new 0 0 512 512;" xml:space="preserve">
<path style="fill:#B8C8D9;" d="M495.304,205.913h-45.519c-4.73-18.267-11.996-35.493-21.382-51.291l33.961-33.961
	c6.487-6.491,6.516-17.094,0-23.611L414.95,49.633c-6.521-6.521-17.093-6.521-23.613,0l-33.959,33.961
	c-15.797-9.385-33.024-16.649-51.291-21.382V16.696C306.087,7.477,298.572,0,289.391,0h-66.783c-9.18,0-16.696,7.477-16.696,16.696
	v45.517c-18.265,4.73-35.493,11.992-51.291,21.379l-33.959-33.959c-6.521-6.521-17.093-6.521-23.613,0L49.635,97.05
	c-6.521,6.52-6.52,17.089,0,23.611l33.961,33.961c-9.385,15.799-16.651,33.024-21.382,51.291H16.696
	C7.515,205.913,0,213.39,0,222.609v66.783c0,9.214,7.482,16.693,16.696,16.693h45.519c4.73,18.267,11.996,35.493,21.382,51.291
	l-33.961,33.961c-6.521,6.52-6.52,17.089,0,23.611l47.415,47.417c6.527,6.527,17.084,6.525,23.613,0l33.959-33.959
	c15.797,9.387,33.026,16.647,51.291,21.379v45.519c0,9.214,7.482,16.696,16.696,16.696h66.783c9.157,0,16.696-7.463,16.696-16.696
	v-45.519c18.265-4.73,35.493-11.992,51.291-21.379l33.959,33.959c6.527,6.527,17.084,6.525,23.613,0l47.415-47.417
	c6.487-6.491,6.516-17.094,0-23.611l-33.961-33.961c9.385-15.799,16.651-33.024,21.382-51.291h45.519
	c9.214,0,16.696-7.48,16.696-16.693v-66.783C512,213.447,504.541,205.913,495.304,205.913z M256,339.476
	c-46.08-0.029-83.449-37.396-83.478-83.476c0.029-46.082,37.398-83.449,83.478-83.478c46.08,0.029,83.449,37.396,83.478,83.478
	C339.449,302.08,302.08,339.448,256,339.476z"/>
<path style="fill:#A3B8CC;" d="M339.478,256c-0.029,46.08-37.398,83.448-83.478,83.476V512h33.391
	c9.157,0,16.696-7.463,16.696-16.696v-45.519c18.265-4.73,35.493-11.992,51.291-21.379l33.959,33.959
	c6.526,6.526,17.085,6.524,23.613,0l47.415-47.417c6.487-6.491,6.516-17.095,0-23.611l-33.961-33.961
	c9.385-15.799,16.651-33.024,21.382-51.291h45.519c9.214,0,16.696-7.482,16.696-16.693v-66.783c0-9.161-7.46-16.696-16.696-16.696
	h-45.519c-4.73-18.267-11.996-35.493-21.382-51.291l33.961-33.961c6.487-6.491,6.516-17.095,0-23.611L414.95,49.633
	c-6.521-6.521-17.093-6.521-23.613,0l-33.959,33.961c-15.797-9.385-33.024-16.649-51.291-21.382V16.696
	C306.087,7.477,298.571,0,289.391,0H256v172.522C302.08,172.551,339.449,209.918,339.478,256z"/>
<g>
</g>
<g>
</g>
<g>
</g>
<g>
</g>
<g>
</g>
<g>
</g>
<g>
</g>
<g>
</g>
<g>
</g>
<g>
</g>
<g>
</g>
<g>
</g>
<g>
</g>
<g>
</g>
<g>
</g>
</svg>
