<?xml version="1.0" encoding="iso-8859-1"?>
<!-- Generator: Adobe Illustrator 19.0.0, SVG Export Plug-In . SVG Version: 6.00 Build 0)  -->
<svg version="1.1" id="Layer_1" xmlns="http://www.w3.org/2000/svg" xmlns:xlink="http://www.w3.org/1999/xlink" x="0px" y="0px"
	 viewBox="0 0 512 512" style="enable-background:new 0 0 512 512;" xml:space="preserve">
<path style="fill:#144F9B;" d="M183.257,237.344l159.047-76.871c8.426-3.745,12.22-13.611,8.475-22.037s-13.611-12.22-22.037-8.475
	l-159.047,76.871c-8.426,3.745-12.22,13.611-8.475,22.037C164.964,237.295,174.83,241.09,183.257,237.344"/>
<path style="fill:#003F84;" d="M169.695,305.169l159.047,76.871c8.426,3.745,18.293-0.05,22.037-8.475
	c3.745-8.426-0.05-18.293-8.475-22.037l-159.047-76.871c-8.426-3.745-18.293,0.05-22.037,8.475
	C157.475,291.557,161.269,301.424,169.695,305.169"/>
<path style="fill:#32BBFF;" d="M411.826,300.523c-55.331,0.01-100.164,44.841-100.174,100.174
	c0.01,55.331,44.843,100.162,100.174,100.172c55.33-0.01,100.164-44.841,100.174-100.172
	C511.99,345.364,467.157,300.533,411.826,300.523z"/>
<path style="fill:#03A9F4;" d="M512,400.697c-0.01-55.333-44.843-100.164-100.174-100.174v200.346
	C467.157,500.858,511.99,456.027,512,400.697z"/>
<path style="fill:#32BBFF;" d="M411.826,11.132c-55.331,0.01-100.164,44.841-100.174,100.174
	c0.01,55.331,44.843,100.162,100.174,100.172c55.33-0.01,100.164-44.841,100.174-100.172
	C511.99,55.973,467.157,11.142,411.826,11.132z"/>
<path style="fill:#03A9F4;" d="M512,111.305c-0.01-55.333-44.843-100.164-100.174-100.174v200.346
	C467.157,211.467,511.99,166.636,512,111.305z"/>
<path style="fill:#32BBFF;" d="M100.174,155.827C44.843,155.837,0.01,200.668,0,256.001c0.01,55.331,44.843,100.162,100.174,100.172
	c55.33-0.01,100.164-44.841,100.174-100.172C200.338,200.668,155.504,155.837,100.174,155.827z"/>
<path style="fill:#03A9F4;" d="M200.348,256.001c-0.01-55.333-44.843-100.164-100.174-100.174v200.346
	C155.504,356.163,200.338,311.332,200.348,256.001z"/>
<g>
</g>
<g>
</g>
<g>
</g>
<g>
</g>
<g>
</g>
<g>
</g>
<g>
</g>
<g>
</g>
<g>
</g>
<g>
</g>
<g>
</g>
<g>
</g>
<g>
</g>
<g>
</g>
<g>
</g>
</svg>
