<?xml version="1.0" encoding="iso-8859-1"?>
<!-- Generator: Adobe Illustrator 19.0.0, SVG Export Plug-In . SVG Version: 6.00 Build 0)  -->
<svg version="1.1" id="Layer_1" xmlns="http://www.w3.org/2000/svg" xmlns:xlink="http://www.w3.org/1999/xlink" x="0px" y="0px"
	 viewBox="0 0 512 512" style="enable-background:new 0 0 512 512;" xml:space="preserve">
<path style="fill:#E6F3FF;" d="M250.562,511.054c-143.838-51.55-215.755-198.44-216.073-391.831
	c-0.012-7.269,4.806-13.723,11.7-16.027C118.518,79.028,174.818,50.827,246.623,2.824c2.929-1.958,6.346-2.897,9.744-2.819
	c3.138,0.072,6.259,1.012,8.963,2.821C337.087,50.808,393.42,79.01,465.85,103.214c6.817,2.277,11.604,8.639,11.647,15.826
	c1.165,193.566-72.203,340.437-216.119,392.015C257.896,512.316,254.06,512.315,250.562,511.054z"/>
<path style="fill:#B8D0E6;" d="M261.378,511.054c143.916-51.578,217.285-198.448,216.119-392.015
	c-0.043-7.186-4.831-13.549-11.646-15.826C393.42,79.01,337.087,50.807,265.329,2.824c-2.704-1.809-5.825-2.748-8.963-2.821v511.979
	C258.066,511.942,259.761,511.641,261.378,511.054z"/>
<path style="fill:#7BD921;" d="M248.986,438.073C128.751,379.82,104.838,242.759,101.283,166.233
	c-0.315-6.848,3.761-13.152,10.153-15.664c46.448-18.24,89.689-40.122,136.094-68.873c5.174-3.218,11.718-3.207,16.892-0.011
	c46.404,28.762,89.657,50.644,136.126,68.884c6.391,2.511,10.468,8.816,10.153,15.675c-3.565,76.514-27.501,213.587-147.736,271.828
	C258.522,440.218,253.428,440.218,248.986,438.073z"/>
<path style="fill:#66B31B;" d="M400.547,150.57c-46.47-18.24-89.721-40.122-136.126-68.884c-2.472-1.527-5.257-2.317-8.055-2.386
	v360.359c2.253-0.056,4.499-0.573,6.598-1.586C383.199,379.831,407.133,242.759,410.7,166.244
	C411.015,159.385,406.939,153.081,400.547,150.57z"/>
<g>
</g>
<g>
</g>
<g>
</g>
<g>
</g>
<g>
</g>
<g>
</g>
<g>
</g>
<g>
</g>
<g>
</g>
<g>
</g>
<g>
</g>
<g>
</g>
<g>
</g>
<g>
</g>
<g>
</g>
</svg>
