<?xml version="1.0" encoding="iso-8859-1"?>
<!-- Generator: Adobe Illustrator 19.0.0, SVG Export Plug-In . SVG Version: 6.00 Build 0)  -->
<svg version="1.1" id="Layer_1" xmlns="http://www.w3.org/2000/svg" xmlns:xlink="http://www.w3.org/1999/xlink" x="0px" y="0px"
	 viewBox="0 0 512 512" style="enable-background:new 0 0 512 512;" xml:space="preserve">
<path style="fill:#32BBFF;" d="M495.302,77.914H89.447l45.246,233.738h341.361L511.77,97.36
	C513.466,87.136,505.58,77.914,495.302,77.914z M422.955,228.174c0,9.217-7.478,16.696-16.696,16.696
	c-9.217,0-16.696-7.479-16.696-16.696v-66.782c0-9.217,7.478-16.696,16.696-16.696c9.217,0,16.696,7.479,16.696,16.696V228.174z"/>
<path style="fill:#2C9FD9;" d="M306.086,311.652h169.969L511.77,97.36c1.696-10.223-6.19-19.446-16.467-19.446H306.086
	C306.086,85.034,306.086,299.38,306.086,311.652z"/>
<path style="fill:#B8C8D9;" d="M489.737,345.043H150.26c-9.206,0-16.696-7.49-16.696-16.696s7.49-16.696,16.696-16.696h339.477
	c9.217,0,16.696-7.478,16.696-16.696c0-9.217-7.478-16.696-16.696-16.696H162.241L111,13.522
	c-1.523-7.847-8.391-13.521-16.392-13.521H16.696C7.479,0.001,0,7.48,0,16.697s7.479,16.696,16.696,16.696h64.141l48.327,249.69
	c-17.067,7.992-28.99,25.207-28.99,45.265c0,27.619,22.468,50.087,50.087,50.087h339.477c9.217,0,16.696-7.478,16.696-16.696
	C506.433,352.522,498.954,345.043,489.737,345.043z"/>
<g>
	<path style="fill:#A3B8CC;" d="M506.433,361.739c0-9.217-7.478-16.696-16.696-16.696H306.086v33.391h183.651
		C498.954,378.434,506.433,370.956,506.433,361.739z"/>
	<path style="fill:#A3B8CC;" d="M489.737,278.261H306.086v33.391h183.651c9.217,0,16.696-7.478,16.696-16.696
		C506.433,285.739,498.954,278.261,489.737,278.261z"/>
</g>
<g>
	<path style="fill:#E6F3FF;" d="M205.912,244.87L205.912,244.87c-9.22,0-16.696-7.475-16.696-16.696v-66.782
		c0-9.22,7.475-16.696,16.696-16.696l0,0c9.22,0,16.696,7.475,16.696,16.696v66.782C222.608,237.394,215.133,244.87,205.912,244.87z
		"/>
	<path style="fill:#E6F3FF;" d="M306.086,244.87L306.086,244.87c-9.22,0-16.696-7.475-16.696-16.696v-66.782
		c0-9.22,7.475-16.696,16.696-16.696l0,0c9.22,0,16.696,7.475,16.696,16.696v66.782C322.781,237.394,315.306,244.87,306.086,244.87z
		"/>
</g>
<g>
	<path style="fill:#CFDBE6;" d="M406.259,244.87L406.259,244.87c-9.22,0-16.696-7.475-16.696-16.696v-66.782
		c0-9.22,7.475-16.696,16.696-16.696l0,0c9.22,0,16.696,7.475,16.696,16.696v66.782C422.955,237.394,415.48,244.87,406.259,244.87z"
		/>
	<path style="fill:#CFDBE6;" d="M322.781,228.174v-66.782c0-9.22-7.475-16.696-16.696-16.696c0,31.399,0,68.729,0,100.173
		C315.306,244.87,322.781,237.394,322.781,228.174z"/>
</g>
<path style="fill:#144F9B;" d="M406.259,511.999c-27.619,0-50.087-22.468-50.087-50.087s22.468-50.087,50.087-50.087
	c27.619,0,50.087,22.468,50.087,50.087S433.878,511.999,406.259,511.999z"/>
<path style="fill:#003F84;" d="M456.346,461.912c0-27.619-22.468-50.087-50.087-50.087v100.173
	C433.878,511.999,456.346,489.531,456.346,461.912z"/>
<path style="fill:#E6F3FF;" d="M406.259,445.217c-9.206,0-16.696,7.49-16.696,16.696s7.49,16.696,16.696,16.696
	c9.206,0,16.696-7.49,16.696-16.696S415.465,445.217,406.259,445.217z"/>
<path style="fill:#144F9B;" d="M217.043,511.999c-27.619,0-50.087-22.468-50.087-50.087s22.468-50.087,50.087-50.087
	s50.087,22.468,50.087,50.087S244.661,511.999,217.043,511.999z"/>
<path style="fill:#003F84;" d="M267.129,461.912c0-27.619-22.468-50.087-50.087-50.087v100.173
	C244.661,511.999,267.129,489.531,267.129,461.912z"/>
<path style="fill:#E6F3FF;" d="M217.043,445.217c-9.206,0-16.696,7.49-16.696,16.696s7.49,16.696,16.696,16.696
	c9.206,0,16.696-7.49,16.696-16.696S226.248,445.217,217.043,445.217z"/>
<g>
</g>
<g>
</g>
<g>
</g>
<g>
</g>
<g>
</g>
<g>
</g>
<g>
</g>
<g>
</g>
<g>
</g>
<g>
</g>
<g>
</g>
<g>
</g>
<g>
</g>
<g>
</g>
<g>
</g>
</svg>
