<?xml version="1.0" encoding="iso-8859-1"?>
<!-- Generator: Adobe Illustrator 19.0.0, SVG Export Plug-In . SVG Version: 6.00 Build 0)  -->
<svg version="1.1" id="Layer_1" xmlns="http://www.w3.org/2000/svg" xmlns:xlink="http://www.w3.org/1999/xlink" x="0px" y="0px"
	 viewBox="0 0 512 512" style="enable-background:new 0 0 512 512;" xml:space="preserve">
<g>
	<path style="fill:#144F9B;" d="M428.522,77.357V16.696c0-9.22-7.475-16.696-16.696-16.696H100.174
		c-9.22,0-16.696,7.475-16.696,16.696v60.661c0,8.606,6.977,15.583,15.583,15.583h313.878
		C421.545,92.939,428.522,85.963,428.522,77.357z"/>
	<path style="fill:#144F9B;" d="M83.478,406.539v88.765c0,9.22,7.475,16.696,16.696,16.696h311.652
		c9.22,0,16.696-7.475,16.696-16.696v-88.765c0-9.067-7.351-16.417-16.417-16.417H99.896
		C90.829,390.122,83.478,397.472,83.478,406.539z"/>
</g>
<path style="fill:#003F84;" d="M256,422.957V512h155.826c9.217,0,16.696-7.479,16.696-16.696v-72.348H256z"/>
<path style="fill:#32BBFF;" d="M428.522,422.957H83.478V77.913h345.043V422.957z"/>
<circle style="fill:#E6F3FF;" cx="256" cy="461.913" r="16.696"/>
<path style="fill:#CFDBE6;" d="M272.696,461.913c0-9.22-7.475-16.696-16.696-16.696v33.391
	C265.22,478.609,272.696,471.133,272.696,461.913z"/>
<rect x="256" y="77.913" style="fill:#2C9FD9;" width="172.522" height="345.043"/>
<path style="fill:#003F84;" d="M428.522,16.696C428.522,7.479,421.043,0,411.826,0H256v77.913h172.522V16.696z"/>
<g>
</g>
<g>
</g>
<g>
</g>
<g>
</g>
<g>
</g>
<g>
</g>
<g>
</g>
<g>
</g>
<g>
</g>
<g>
</g>
<g>
</g>
<g>
</g>
<g>
</g>
<g>
</g>
<g>
</g>
</svg>
