<?xml version="1.0" encoding="iso-8859-1"?>
<!-- Generator: Adobe Illustrator 19.0.0, SVG Export Plug-In . SVG Version: 6.00 Build 0)  -->
<svg version="1.1" id="Layer_1" xmlns="http://www.w3.org/2000/svg" xmlns:xlink="http://www.w3.org/1999/xlink" x="0px" y="0px"
	 viewBox="0 0 512 512" style="enable-background:new 0 0 512 512;" xml:space="preserve">
<path style="fill:#7BD921;" d="M320.457,200.347H83.478C37.435,200.347,0,162.912,0,116.869S37.435,33.39,83.478,33.39h236.979
	c9.228,0,16.696,7.467,16.696,16.696v133.566C337.153,192.88,329.685,200.347,320.457,200.347z"/>
<path style="fill:#66B31B;" d="M337.153,50.086c0-9.228-7.467-16.696-16.696-16.696H83.478C37.435,33.39,0,70.825,0,116.869h337.153
	V50.086z"/>
<path style="fill:#E6F3FF;" d="M512,116.87C511.99,52.319,459.684,0.01,395.13,0c-64.551,0.01-116.858,52.319-116.868,116.87
	c0.01,64.551,52.316,116.859,116.868,116.869C459.684,233.729,511.99,181.421,512,116.87z"/>
<path style="fill:#CFDBE6;" d="M512,116.87H278.263c0.01,64.551,52.316,116.859,116.868,116.869
	C459.684,233.729,511.99,181.421,512,116.87z"/>
<path style="fill:#FF4B26;" d="M174.847,461.913V328.347c0-9.228,7.467-16.696,16.696-16.696h236.979
	c46.043,0,83.478,37.435,83.478,83.478s-37.435,83.478-83.478,83.478H191.543C182.315,478.609,174.847,471.141,174.847,461.913z"/>
<path style="fill:#D93F21;" d="M174.847,328.347c0-9.228,7.467-16.696,16.696-16.696h236.979c46.043,0,83.478,37.435,83.478,83.478
	H174.847L174.847,328.347L174.847,328.347z"/>
<path style="fill:#E6F3FF;" d="M116.87,512c64.551-0.01,116.858-52.318,116.868-116.869c-0.01-64.551-52.317-116.86-116.868-116.87
	C52.316,278.272,0.01,330.58,0,395.131C0.01,459.682,52.316,511.99,116.87,512z"/>
<path style="fill:#CFDBE6;" d="M0,395.131h233.737C233.727,459.682,181.421,511.99,116.87,512C52.316,511.99,0.01,459.682,0,395.131
	z"/>
<g>
</g>
<g>
</g>
<g>
</g>
<g>
</g>
<g>
</g>
<g>
</g>
<g>
</g>
<g>
</g>
<g>
</g>
<g>
</g>
<g>
</g>
<g>
</g>
<g>
</g>
<g>
</g>
<g>
</g>
</svg>
