<?xml version="1.0" encoding="iso-8859-1"?>
<!-- Generator: Adobe Illustrator 19.0.0, SVG Export Plug-In . SVG Version: 6.00 Build 0)  -->
<svg version="1.1" id="Layer_1" xmlns="http://www.w3.org/2000/svg" xmlns:xlink="http://www.w3.org/1999/xlink" x="0px" y="0px"
	 viewBox="0 0 512 512" style="enable-background:new 0 0 512 512;" xml:space="preserve">
<path style="fill:#FFDAB3;" d="M454.422,194.387c-2.84-2.294-5.935-4.265-9.209-5.891c-12.071-5.991-26.648-7.183-40.779-1.503
	c-7.706-28.485-38.363-44.844-66.814-33.407c-7.338-27.116-35.913-44.309-64.888-34.009V49.689
	c-0.022-66.202-100.199-66.302-100.222,0v257.714c-25.367-25.367-48.051-48.051-48.106-48.106
	c-19.543-19.565-51.369-19.565-70.912,0c-19.521,19.488-19.588,51.313,0.011,70.901c4.844,4.833,127.682,127.682,132.526,132.526
	c0.011,0.011,0.022,0.022,0.033,0.022C217.62,494.306,260.526,512,305.025,512v-0.111c92.872-0.011,168.138-75.278,168.15-168.15
	c0-33.396,0-28.051,0-110.311C473.163,217.293,465.702,203.396,454.422,194.387z"/>
<path style="fill:#FFC3A6;" d="M473.174,233.429c0,82.26,0,76.915,0,110.311c-0.011,92.872-75.278,168.139-168.15,168.15V512
	c-44.498,0-87.404-17.695-118.963-49.253l268.36-268.36C465.702,203.396,473.163,217.293,473.174,233.429z"/>
<g>
</g>
<g>
</g>
<g>
</g>
<g>
</g>
<g>
</g>
<g>
</g>
<g>
</g>
<g>
</g>
<g>
</g>
<g>
</g>
<g>
</g>
<g>
</g>
<g>
</g>
<g>
</g>
<g>
</g>
</svg>
