<?xml version="1.0" encoding="iso-8859-1"?>
<!-- Generator: Adobe Illustrator 19.0.0, SVG Export Plug-In . SVG Version: 6.00 Build 0)  -->
<svg version="1.1" id="Layer_1" xmlns="http://www.w3.org/2000/svg" xmlns:xlink="http://www.w3.org/1999/xlink" x="0px" y="0px"
	 viewBox="0 0 512.001 512.001" style="enable-background:new 0 0 512.001 512.001;" xml:space="preserve">
<path style="fill:#003F84;" d="M433.236,470.611l63.238-63.238c9.685-9.682,14.692-22.371,14.692-35.395
	c0-13.021-5.008-25.71-14.692-35.395l-69.455-69.12c-19.031-19.366-51.088-19.366-70.79,0l-39.512,39.514l-11.686,11.686
	c-6.678,6.344-6.678,17.03,0,23.374L433.236,470.611z"/>
<path style="fill:#144F9B;" d="M251.522,84.229l-69.455-69.453c-19.368-19.702-51.09-19.702-70.456,0L65.614,55.874L41.908,79.583
	l128.874,128.57c6.465,6.45,16.933,6.443,23.391-0.013l11.686-12.021l45.664-41.432C271.221,135.319,271.221,103.597,251.522,84.229
	z"/>
<path style="fill:#32BBFF;" d="M316.717,306.978l-11.686,11.686c-6.344,6.01-17.698,6.344-24.043,0l-86.816-87.485
	c-6.678-6.678-6.632-16.408,0-23.04l11.686-12.021L65.614,55.874L41.908,79.583L30.553,91.269
	c-19.7,19.367-29.718,42.407-29.718,67.785c0.334,68.786,73.127,141.579,131.896,200.014l19.702,19.7
	c29.384,29.718,62.442,62.776,96.5,88.822c34.393,25.711,69.788,44.077,104.515,44.41c25.712,0,48.417-10.018,67.785-29.384
	l35.395-35.395L316.717,306.978z"/>
<path style="fill:#2C9FD9;" d="M248.933,467.589c34.393,25.712,69.788,44.078,104.515,44.412c25.712,0,48.417-10.018,67.785-29.384
	l35.395-35.395l-139.91-140.243l-11.686,11.686c-6.344,6.01-17.699,6.344-24.043,0l-43.076-43.406l-94.497,94.496l9.017,9.015
	C181.817,408.487,214.875,441.544,248.933,467.589z"/>
<g>
</g>
<g>
</g>
<g>
</g>
<g>
</g>
<g>
</g>
<g>
</g>
<g>
</g>
<g>
</g>
<g>
</g>
<g>
</g>
<g>
</g>
<g>
</g>
<g>
</g>
<g>
</g>
<g>
</g>
</svg>
