<?xml version="1.0" encoding="iso-8859-1"?>
<!-- Generator: Adobe Illustrator 19.0.0, SVG Export Plug-In . SVG Version: 6.00 Build 0)  -->
<svg version="1.1" id="Layer_1" xmlns="http://www.w3.org/2000/svg" xmlns:xlink="http://www.w3.org/1999/xlink" x="0px" y="0px"
	 viewBox="0 0 512 512" style="enable-background:new 0 0 512 512;" xml:space="preserve">
<path style="fill:#2EE6E6;" d="M256,512C114.837,512,0,397.163,0,256S114.837,0,256,0s256,114.837,256,256S397.163,512,256,512z"/>
<path style="fill:#26BFBF;" d="M256.055,0.001v511.998C397.193,511.969,512,397.145,512,256S397.193,0.031,256.055,0.001z"/>
<path style="fill:#FFAA00;" d="M256,512c-65.737,0-129.113-25.38-177.014-71.192C101.181,360.756,173.838,306.087,256,306.087
	c82.202,0,154.901,54.615,177.122,134.588C385.279,486.577,321.869,512,256,512z"/>
<path style="fill:#F28D00;" d="M256.055,511.998c65.849-0.013,129.238-25.433,177.067-71.322
	c-22.217-79.955-94.891-134.561-177.067-134.586V511.998z"/>
<path style="fill:#FFEECC;" d="M256,339.478c-64.445,0-116.87-52.424-116.87-116.87s52.424-116.87,116.87-116.87
	s116.87,52.424,116.87,116.87S320.445,339.478,256,339.478z"/>
<path style="fill:#FFD9B3;" d="M256.055,105.741v233.734c64.42-0.029,116.815-52.439,116.815-116.866
	S320.474,105.771,256.055,105.741z"/>
<g>
</g>
<g>
</g>
<g>
</g>
<g>
</g>
<g>
</g>
<g>
</g>
<g>
</g>
<g>
</g>
<g>
</g>
<g>
</g>
<g>
</g>
<g>
</g>
<g>
</g>
<g>
</g>
<g>
</g>
</svg>
