<?xml version="1.0" encoding="iso-8859-1"?>
<!-- Generator: Adobe Illustrator 19.0.0, SVG Export Plug-In . SVG Version: 6.00 Build 0)  -->
<svg version="1.1" id="Layer_1" xmlns="http://www.w3.org/2000/svg" xmlns:xlink="http://www.w3.org/1999/xlink" x="0px" y="0px"
	 viewBox="0 0 512 512" style="enable-background:new 0 0 512 512;" xml:space="preserve">
<path style="fill:#1F63AD;" d="M50.087,286.781l-28.115-13.379C11.186,269.807,0,277.866,0,289.241v166.957
	c0,11.353,11.164,19.445,21.971,15.839l28.115-13.379l50.087-23.819V310.6L50.087,286.781z"/>
<polygon style="fill:#004999;" points="100.174,310.6 100.174,434.838 50.087,458.657 50.087,286.781 "/>
<path style="fill:#FFAA00;" d="M500.87,289.341v166.957c0,27.714-22.371,50.087-50.087,50.087H150.261
	c-27.716,0-50.087-22.373-50.087-50.087V289.341c0-27.716,22.371-50.087,50.087-50.087h300.522
	C478.498,239.254,500.87,261.625,500.87,289.341z"/>
<path style="fill:#F28D00;" d="M500.87,289.341v166.957c0,27.714-22.371,50.087-50.087,50.087H300.522v-267.13h150.261
	C478.498,239.254,500.87,261.625,500.87,289.341z"/>
<path style="fill:#1F63AD;" d="M412.025,5.616c-55.279-0.022-99.992,44.676-99.974,99.974
	c-0.018,55.277,44.676,99.992,99.974,99.971c55.281,0.02,99.992-44.68,99.974-99.971C512.018,50.308,467.324,5.594,412.025,5.616z
	 M412.091,138.915h-0.098c-18.642,0-33.292-14.969-33.292-33.292c0-18.587,14.823-33.357,33.26-33.357
	c18.837,0,33.39,15.003,33.39,33.292C445.35,124.306,430.368,138.915,412.091,138.915z"/>
<path style="fill:#004999;" d="M445.35,105.558c0,18.748-14.982,33.357-33.259,33.357h-0.066v66.646
	c55.281,0.02,99.992-44.68,99.975-99.97c0.018-55.282-44.676-99.997-99.975-99.975v66.662
	C430.832,72.314,445.35,87.29,445.35,105.558z"/>
<path style="fill:#1F63AD;" d="M178.286,5.616c-55.279-0.022-99.992,44.676-99.974,99.974
	c-0.018,55.277,44.676,99.992,99.974,99.971c55.282,0.02,99.992-44.68,99.974-99.971C278.279,50.308,233.584,5.594,178.286,5.616z
	 M178.352,138.915h-0.098c-18.642,0-33.292-14.969-33.292-33.292c0-18.587,14.824-33.357,33.26-33.357
	c18.837,0,33.39,15.003,33.39,33.292C211.611,124.306,196.629,138.915,178.352,138.915z"/>
<path style="fill:#004999;" d="M211.611,105.558c0,18.748-14.982,33.357-33.259,33.357h-0.066v66.646
	c55.282,0.02,99.992-44.68,99.975-99.97c0.018-55.282-44.676-99.997-99.975-99.975v66.662
	C197.093,72.314,211.611,87.29,211.611,105.558z"/>
<g>
</g>
<g>
</g>
<g>
</g>
<g>
</g>
<g>
</g>
<g>
</g>
<g>
</g>
<g>
</g>
<g>
</g>
<g>
</g>
<g>
</g>
<g>
</g>
<g>
</g>
<g>
</g>
<g>
</g>
</svg>
