<?xml version="1.0" encoding="iso-8859-1"?>
<!-- Generator: Adobe Illustrator 19.0.0, SVG Export Plug-In . SVG Version: 6.00 Build 0)  -->
<svg version="1.1" id="Layer_1" xmlns="http://www.w3.org/2000/svg" xmlns:xlink="http://www.w3.org/1999/xlink" x="0px" y="0px"
	 viewBox="0 0 512 512" style="enable-background:new 0 0 512 512;" xml:space="preserve">
<path style="fill:#7D98B3;" d="M239.304,417.391v77.913c0,9.22,7.474,16.696,16.696,16.696c9.22,0,16.696-7.475,16.696-16.696
	v-77.913c0-9.223-7.475-16.696-16.696-16.696C246.778,400.696,239.304,408.169,239.304,417.391"/>
<path style="fill:#1F63AD;" d="M322.78,478.609H189.215c-9.22,0-16.696,7.473-16.696,16.696c0,9.22,7.475,16.696,16.696,16.696
	H322.78c9.22,0,16.696-7.475,16.696-16.696C339.475,486.082,331.999,478.609,322.78,478.609z"/>
<path style="fill:#004999;" d="M322.78,478.609h-66.783V512h66.783c9.22,0,16.696-7.475,16.696-16.696
	C339.475,486.082,331.999,478.609,322.78,478.609z"/>
<path style="fill:#B8C8D9;" d="M406.26,250.437c-0.014,82.793-67.357,150.244-150.261,150.261
	c-82.794-0.017-150.248-67.355-150.262-150.261c0-9.223-7.474-16.696-16.695-16.696c-9.222,0-16.695,7.473-16.695,16.696
	c0.03,101.307,82.342,183.62,183.651,183.65c101.308-0.03,183.62-82.343,183.651-183.65c0-9.223-7.474-16.696-16.695-16.696
	C413.734,233.741,406.26,241.214,406.26,250.437L406.26,250.437z"/>
<path style="fill:#A3B8CC;" d="M439.652,250.437c0-9.223-7.475-16.696-16.696-16.696c-9.22,0-16.693,7.473-16.693,16.696h-0.002
	c-0.014,82.792-67.357,150.244-150.261,150.261v33.389C357.308,434.057,439.618,351.744,439.652,250.437z"/>
<path style="fill:#E6F3FF;" d="M255.999,0c-58.769,0-107.519,43.743-115.535,100.174c-1.001,5.341-1.335,11.018-1.335,16.696
	v133.565c0,64.445,52.424,116.87,116.87,116.87s116.87-52.424,116.87-116.87V116.87C372.869,52.424,320.444,0,255.999,0z"/>
<path style="fill:#CFDBE6;" d="M372.869,116.87v133.565c0,64.445-52.424,116.87-116.87,116.87V0
	C320.444,0,372.869,52.424,372.869,116.87z"/>
<path style="fill:#1F63AD;" d="M139.13,233.739v16.696c0.03,64.49,52.378,116.839,116.87,116.87
	c64.492-0.03,116.839-52.38,116.87-116.87v-16.696H139.13z"/>
<path style="fill:#004999;" d="M255.999,233.739v133.565c64.492-0.03,116.839-52.38,116.87-116.87v-16.696H255.999z"/>
<g>
	<path style="fill:#A3B8CC;" d="M372.869,116.87v16.696h-50.087c-9.351,0-16.696-7.347-16.696-16.696
		c0-9.351,7.345-16.696,16.696-16.696h48.751C372.534,105.515,372.869,111.192,372.869,116.87z"/>
	<path style="fill:#A3B8CC;" d="M372.869,166.957v33.391h-50.087c-9.351,0-16.696-7.347-16.696-16.696
		c0-9.351,7.345-16.696,16.696-16.696H372.869z"/>
</g>
<g>
	<path style="fill:#B8C8D9;" d="M205.912,116.87c0,9.348-7.345,16.696-16.696,16.696H139.13V116.87
		c0-5.678,0.334-11.354,1.335-16.696h48.752C198.566,100.174,205.912,107.519,205.912,116.87z"/>
	<path style="fill:#B8C8D9;" d="M205.912,183.652c0,9.348-7.345,16.696-16.696,16.696H139.13v-33.391h50.087
		C198.566,166.957,205.912,174.301,205.912,183.652z"/>
</g>
<g>
</g>
<g>
</g>
<g>
</g>
<g>
</g>
<g>
</g>
<g>
</g>
<g>
</g>
<g>
</g>
<g>
</g>
<g>
</g>
<g>
</g>
<g>
</g>
<g>
</g>
<g>
</g>
<g>
</g>
</svg>
