<?xml version="1.0" encoding="iso-8859-1"?>
<!-- Generator: Adobe Illustrator 19.0.0, SVG Export Plug-In . SVG Version: 6.00 Build 0)  -->
<svg version="1.1" id="Layer_1" xmlns="http://www.w3.org/2000/svg" xmlns:xlink="http://www.w3.org/1999/xlink" x="0px" y="0px"
	 viewBox="0 0 512 512" style="enable-background:new 0 0 512 512;" xml:space="preserve">
<path style="fill:#1F63AD;" d="M356.174,372.87H155.826c-11.35,0-19.443,11.162-15.84,21.974l33.391,105.739
	c2.281,6.842,8.629,11.418,15.84,11.418h133.565c7.21,0,13.559-4.578,15.84-11.418l33.391-105.739
	C375.601,384.076,367.57,372.87,356.174,372.87z"/>
<path style="fill:#004999;" d="M356.174,372.87H256V512h66.783c7.21,0,13.559-4.578,15.84-11.418l33.391-105.739
	C375.601,384.076,367.57,372.87,356.174,372.87z"/>
<path style="fill:#1F63AD;" d="M372.014,117.154L338.622,11.415C336.342,4.573,329.993,0,322.783,0H189.217
	c-7.21,0-13.559,4.573-15.84,11.415l-33.391,105.739c-3.588,10.768,4.443,21.974,15.84,21.974h200.348
	C367.57,139.128,375.603,127.922,372.014,117.154z"/>
<path style="fill:#004999;" d="M372.014,117.154L338.622,11.415C336.342,4.573,329.993,0,322.783,0H256v139.128h100.174
	C367.57,139.128,375.603,127.922,372.014,117.154z"/>
<path style="fill:#E6F3FF;" d="M356.174,105.739H155.826c-27.668,0.01-50.077,22.417-50.087,50.087v200.348
	c0.01,27.668,22.419,50.075,50.087,50.085h200.348c27.668-0.01,50.077-22.417,50.087-50.085V155.826
	C406.251,128.156,383.842,105.749,356.174,105.739z"/>
<path style="fill:#CFDBE6;" d="M356.174,105.739H256v300.519h100.174c27.668-0.01,50.077-22.417,50.087-50.085V155.826
	C406.251,128.156,383.842,105.749,356.174,105.739z"/>
<path style="fill:#000051;" d="M239.304,189.217V256c0,9.159,7.461,16.696,16.696,16.696h66.783c9.22,0,16.696-7.475,16.696-16.696
	c0-9.222-7.475-16.696-16.696-16.696h-50.087v-50.087c0-9.222-7.475-16.696-16.696-16.696
	C246.778,172.522,239.304,179.996,239.304,189.217z"/>
<g>
</g>
<g>
</g>
<g>
</g>
<g>
</g>
<g>
</g>
<g>
</g>
<g>
</g>
<g>
</g>
<g>
</g>
<g>
</g>
<g>
</g>
<g>
</g>
<g>
</g>
<g>
</g>
<g>
</g>
</svg>
