<?xml version="1.0" encoding="iso-8859-1"?>
<!-- Generator: Adobe Illustrator 19.1.0, SVG Export Plug-In . SVG Version: 6.00 Build 0)  -->
<svg version="1.1" id="Capa_1" xmlns="http://www.w3.org/2000/svg" xmlns:xlink="http://www.w3.org/1999/xlink" x="0px" y="0px"
	 viewBox="0 0 297.644 297.644" style="enable-background:new 0 0 297.644 297.644;" xml:space="preserve">
<g>
	<path style="fill:#FF684D;" d="M112.675,42.642c1.203-7.393,3.688-12.594,7.434-15.51c4.669-3.635,12.146-4.187,22.223-1.636
		c20.354,5.148,41.068,6.716,54.671-16.46c1.677-2.857,0.72-6.534-2.138-8.212c-2.857-1.675-6.534-0.719-8.212,2.138
		c-8.061,13.736-18.889,16.584-41.38,10.9c-13.851-3.504-24.796-2.225-32.536,3.801c-6.744,5.251-10.786,13.691-12.261,25.608
		c2.45-0.642,5.005-0.983,7.596-0.983C109.629,42.289,111.167,42.413,112.675,42.642z"/>
	<path style="fill:#FFD4C4;" d="M221.211,170.081c-3.866-22.86-20.326-25.967-27.416-26.223c-2.007-0.072-3.835-1.128-4.911-2.824
		c-5.367-8.456-12.645-10.681-18.814-10.681c-2.823-0.001-5.414,0.465-7.484,1.013c-0.608,0.16-1.227,0.239-1.839,0.239
		c-2.178,0-4.277-0.994-5.589-2.811c-5.28-7.315-12.171-9.293-18.078-9.293c-1.58,0-3.09,0.142-4.48,0.36
		c-0.37,0.059-0.738,0.087-1.101,0.087c-3.779,0-6.968-3.07-6.973-6.987l-0.051-42.287c-0.014-10.927-8.209-16.386-16.404-16.386
		c-8.211,0-16.422,5.477-16.408,16.426c0.023,18.357,0.089,73.493,0.109,90.107c0.003,2.807-1.675,5.344-4.265,6.427
		c-32.541,13.602,7.642,74.619,14.839,85.076c0.703,1.021,1.118,2.203,1.211,3.439l1.76,23.498c0.274,3.65,3.316,6.56,6.976,6.56
		c0.003,0,0.006,0,0.009,0l78.623-0.185c3.509-0.005,6.472-2.651,6.929-6.13l3.202-24.411c0.135-1.032,0.509-2.033,1.074-2.907
		C223.144,219.709,224.794,191.27,221.211,170.081z"/>
	<path d="M233.043,168.08c-2.798-16.547-11.149-25.209-17.662-29.563c-6.354-4.246-12.953-5.881-18.102-6.433
		c-6.64-8.881-16.195-13.73-27.209-13.73c-2.417-0.001-4.878,0.231-7.351,0.69c-6.537-7.47-15.52-11.542-25.64-11.542
		c-0.186,0-0.373,0.002-0.561,0.004l-0.044-36.845c-0.011-8.464-3.266-16.01-9.166-21.249c-4.058-3.604-9.141-5.932-14.635-6.77
		c-1.508-0.229-3.046-0.353-4.604-0.353c-2.591,0-5.146,0.342-7.596,0.983c-4.88,1.277-9.342,3.763-12.818,7.243
		c-5.239,5.246-8.004,12.236-7.994,20.215l0.062,50.811l0.044,36.111c-7.589,4.057-12.836,10.48-15.268,18.75
		c-3.746,12.739-0.76,29.146,9.13,50.159c6.509,13.827,14.322,25.924,18.062,31.44l1.658,22.07
		c0.74,9.854,9.062,17.572,18.942,17.572l78.647-0.097c9.489-0.012,17.576-7.115,18.811-16.523l3.055-23.263
		C231.374,228.648,238.184,198.479,233.043,168.08z M201.056,255.073l-3.202,24.39c-0.457,3.479-3.42,6.169-6.929,6.174
		l-78.623,0.185c-0.003,0-0.006,0-0.009,0c-3.659,0-6.701-2.91-6.976-6.56l-1.76-23.453c-0.093-1.236-0.508-2.44-1.211-3.461
		c-7.197-10.457-47.38-71.484-14.839-85.088c2.59-1.082,4.268-3.626,4.265-6.433c-0.021-16.613-0.086-71.752-0.109-90.109
		C91.65,59.769,99.861,54.29,108.072,54.29c8.195,0,16.391,5.459,16.404,16.386l0.051,42.287c0.005,3.916,3.193,6.986,6.973,6.986
		c0.362,0,0.73-0.028,1.101-0.087c1.39-0.219,2.899-0.36,4.48-0.36c5.907,0,12.798,1.978,18.078,9.293
		c1.312,1.816,3.411,2.811,5.589,2.811c0.611,0,1.23-0.079,1.839-0.239c2.07-0.548,4.661-1.014,7.484-1.013
		c6.169,0,13.447,2.225,18.814,10.681c1.076,1.696,2.904,2.752,4.911,2.824c7.09,0.256,23.55,3.362,27.416,26.223
		c3.583,21.189,1.933,49.616-19.081,82.097C201.565,253.051,201.191,254.041,201.056,255.073z"/>
</g>
<g>
</g>
<g>
</g>
<g>
</g>
<g>
</g>
<g>
</g>
<g>
</g>
<g>
</g>
<g>
</g>
<g>
</g>
<g>
</g>
<g>
</g>
<g>
</g>
<g>
</g>
<g>
</g>
<g>
</g>
</svg>
