<?xml version="1.0" encoding="iso-8859-1"?>
<!-- Generator: Adobe Illustrator 19.1.0, SVG Export Plug-In . SVG Version: 6.00 Build 0)  -->
<svg version="1.1" id="Capa_1" xmlns="http://www.w3.org/2000/svg" xmlns:xlink="http://www.w3.org/1999/xlink" x="0px" y="0px"
	 viewBox="0 0 190.041 190.041" style="enable-background:new 0 0 190.041 190.041;" xml:space="preserve">
<g>
	<path style="fill:#FFD4C4;" d="M167.628,62.478c-2.39-20.223-13.667-26.568-23.459-26.568c-1.358,0-2.688,0.121-3.961,0.346
		c-0.197,0.035-0.395,0.051-0.589,0.051c-1.735,0-3.334-1.316-4.289-2.826c-5.37-8.496-12.663-10.729-18.845-10.729
		c-2.823,0-5.413,0.466-7.483,1.013c-0.609,0.161-1.228,0.239-1.84,0.239c-2.178,0-4.277-0.994-5.588-2.809
		c-4.01-5.556-9.915-8.502-15.725-8.502c-3.888,0-7.732,1.318-10.939,4.058c-1.74,1.487-3.103,2.601-4.502,2.601
		c-0.932,0-1.879-0.493-2.964-1.697C64.071,13.908,59.091,12,54.187,12c-8.166,0-16.121,5.29-16.107,16.215
		c0.023,18.355,0.089,8.394,0.109,24.996c0.003,2.803-1.673,5.352-4.258,6.432c-32.554,13.597,7.634,74.621,14.832,85.079
		c0.702,1.021,1.118,2.203,1.211,3.439l1.759,23.398c0.274,3.65,3.316,6.461,6.976,6.461c0.004,0,0.006,0,0.01,0l78.623-0.086
		c3.509-0.005,6.471-2.602,6.928-6.08l3.202-24.387c0.136-1.032,0.51-2.021,1.074-2.895
		C169.56,112.093,170.16,83.915,167.628,62.478z"/>
	<path d="M179.545,61.07c-1.432-12.116-5.677-21.595-12.617-28.171c-6.118-5.798-14.2-8.99-22.759-8.99
		c-0.3,0-0.601,0.004-0.9,0.012c-6.62-8.525-16.001-13.17-26.782-13.171c-2.423,0-4.891,0.233-7.37,0.694
		C103.061,4.656,94.586,0.69,85.849,0.69c-5.301,0-10.487,1.477-14.988,4.219C66.036,1.741,60.236,0,54.187,0
		c-7.817,0-14.991,2.872-20.2,8.087c-5.183,5.19-7.917,12.155-7.907,20.143c0.012,9.467,0.035,11.477,0.058,13.419
		c0.019,1.552,0.035,3.03,0.046,8.401c-7.586,4.057-12.833,10.479-15.265,18.744c-3.749,12.739-0.764,29.147,9.127,50.162
		c6.509,13.829,14.323,25.927,18.063,31.443l1.658,22.069c0.74,9.854,9.061,17.572,18.941,17.572l78.647-0.097
		c9.489-0.012,17.576-7.115,18.812-16.523l3.054-23.263C182.533,113.58,181.998,81.833,179.545,61.07z M147.471,147.47l-3.202,24.39
		c-0.457,3.479-3.419,6.07-6.928,6.075l-78.623,0.086c-0.004,0-0.006,0-0.01,0c-3.659,0-6.701-2.81-6.976-6.461l-1.759-23.404
		c-0.093-1.235-0.509-2.415-1.211-3.436c-7.198-10.459-47.386-71.481-14.832-85.078c2.585-1.08,4.261-3.629,4.258-6.432
		c-0.021-16.603-0.087-6.641-0.109-24.995c-0.014-10.925,7.941-16.216,16.107-16.216c4.903,0,9.884,1.909,13.257,5.652
		c1.085,1.204,2.032,1.697,2.964,1.697c1.399,0,2.762-1.113,4.502-2.601c3.207-2.739,7.052-4.058,10.939-4.058
		c5.81,0,11.715,2.946,15.725,8.502c1.311,1.815,3.41,2.809,5.588,2.809c0.612,0,1.23-0.078,1.84-0.239
		c2.07-0.547,4.66-1.013,7.483-1.013c6.182,0,13.475,2.233,18.845,10.729c0.955,1.51,2.554,2.826,4.289,2.826
		c0.194,0,0.392-0.016,0.589-0.051c1.273-0.225,2.603-0.346,3.961-0.346c9.792,0,21.069,6.346,23.459,26.568
		c2.532,21.438,1.933,49.617-19.082,82.098C147.981,145.448,147.607,146.439,147.471,147.47z"/>
</g>
<g>
</g>
<g>
</g>
<g>
</g>
<g>
</g>
<g>
</g>
<g>
</g>
<g>
</g>
<g>
</g>
<g>
</g>
<g>
</g>
<g>
</g>
<g>
</g>
<g>
</g>
<g>
</g>
<g>
</g>
</svg>
