<?xml version="1.0" encoding="iso-8859-1"?>
<!-- Generator: Adobe Illustrator 19.1.0, SVG Export Plug-In . SVG Version: 6.00 Build 0)  -->
<svg version="1.1" id="Capa_1" xmlns="http://www.w3.org/2000/svg" xmlns:xlink="http://www.w3.org/1999/xlink" x="0px" y="0px"
	 viewBox="0 0 297.047 297.047" style="enable-background:new 0 0 297.047 297.047;" xml:space="preserve">
<g>
	<path style="fill:#FFD4C4;" d="M148.727,274.592c3.916,0,7.831-1.695,10.515-5.086c4.256-5.377,3.51-13.18-1.339-18.028
		l-4.28-4.279c-0.372,5.139-2.499,10.174-6.419,14.095l-5.566,5.565c-1.053,1.054-2.194,1.987-3.406,2.797l1.034,1.034
		C141.867,273.291,145.298,274.592,148.727,274.592z"/>
	<path style="fill:#FFD4C4;" d="M108.977,77.69c-13.881-0.049-25.158-11.355-25.158-25.248c0-7.034,2.896-13.401,7.555-17.984
		l-0.551-0.517c-1.057-0.909-2.36-1.358-3.661-1.358c-1.445,0-2.885,0.554-3.978,1.649l-69.562,69.671
		c-1.989,1.994-2.193,5.153-0.477,7.388l31.209,34.843c0.515,0.671,0.862,1.446,1.043,2.271c0.514,2.359,1.171,4.749,1.946,7.161
		l0.035-0.035c4.196-4.199,9.776-6.512,15.713-6.512c5.936,0,11.516,2.312,15.713,6.509c0.026,0.026,0.052,0.053,0.078,0.079
		l0.072,0.073c2.891,2.905,4.854,6.477,5.804,10.36c3.316-1.898,7.076-2.929,11.001-2.929c5.925,0,11.496,2.304,15.69,6.487
		l0.094,0.093c0.012,0.012,0.024,0.024,0.036,0.036c4.195,4.196,6.507,9.776,6.507,15.711c0,2.755-0.519,5.425-1.472,7.924
		c4.794,0.643,9.23,2.802,12.713,6.282l0.109,0.109c3.085,3.086,5.05,6.865,5.938,10.839l50.44,50.441
		c2.701,2.701,6.317,4.129,9.921,4.129c2.867,0,5.725-0.903,8.107-2.789c6.36-5.035,6.755-14.404,1.183-19.976l-48.811-48.811
		c-2.516-2.516-2.516-6.595,0-9.11c1.277-1.276,2.95-1.915,4.623-1.915c1.674,0,3.347,0.639,4.623,1.915l62.081,62.081
		c2.7,2.7,6.317,4.129,9.921,4.129c2.867,0,5.725-0.904,8.107-2.789c6.36-5.035,6.755-14.404,1.183-19.977l-62.373-62.374
		c-2.551-2.55-2.551-6.685,0-9.234l0,0c1.259-1.26,2.91-1.89,4.561-1.89c1.65,0,3.301,0.63,4.561,1.89l48.518,48.518
		c2.7,2.701,6.317,4.129,9.921,4.129c2.867,0,5.725-0.903,8.107-2.789c6.361-5.035,6.756-14.404,1.183-19.977L153.29,78.252
		L108.977,77.69z"/>
	<path style="fill:#FFD4C4;" d="M213.862,24.104c-1.093-1.096-2.533-1.649-3.978-1.649c-1.301,0-2.605,0.449-3.661,1.358
		l-4.646,2.65c-0.008,0.006-0.017,0.011-0.026,0.012l-92.483,12.72c-7.286,0-13.248,5.961-13.248,13.247
		c0,7.286,5.962,13.248,13.248,13.248l49.324,0.626c0,0,76.437,76.475,93.427,93.465c13.356-17.018,25.27-34.811,28.649-50.322
		c0.181-0.826,0.528-1.602,1.043-2.271l2.391-6.024c1.716-2.234,1.512-5.394-0.477-7.388L213.862,24.104z"/>
	<path d="M291.919,85.301l-69.564-69.675c-3.324-3.333-7.755-5.171-12.47-5.171c-3.72,0-7.335,1.18-10.33,3.347l-1.929,1.1
		l-89.508,12.311c-2.05,0.076-4.036,0.401-5.934,0.939l-3.141-2.953c-0.129-0.121-0.261-0.24-0.395-0.355
		c-3.194-2.748-7.273-4.261-11.487-4.261c-4.714,0-9.145,1.838-12.474,5.176L5.132,95.425c-6.219,6.233-6.864,16.195-1.505,23.175
		c0.185,0.239,0.378,0.473,0.579,0.698l29.846,33.319c0.967,4.03,2.293,8.183,3.95,12.439c-7.239,8.719-6.783,21.715,1.385,29.886
		c0.014,0.014,0.028,0.027,0.042,0.041l0.097,0.096c4.099,4.084,9.513,6.358,15.282,6.46c-0.107,0.893-0.181,1.792-0.181,2.705
		c0,5.923,2.302,11.491,6.483,15.686l0.089,0.09c0.014,0.014,0.027,0.028,0.041,0.042c4.197,4.197,9.777,6.51,15.713,6.51
		c0.688,0,1.368-0.038,2.045-0.1c0.066,0.075,0.137,0.15,0.204,0.226c-0.012,0.301-0.044,0.599-0.044,0.901
		c0,5.924,2.303,11.494,6.485,15.688l0.092,0.094c0.013,0.013,0.025,0.025,0.038,0.038c4.196,4.196,9.776,6.507,15.712,6.507
		c0.015,0,0.029-0.002,0.044-0.002l2.118,2.118c0.246,5.559,2.501,10.753,6.461,14.713c0.025,0.024,0.051,0.05,0.076,0.075
		l0.077,0.076c3.952,3.93,9.128,6.168,14.663,6.413l5.855,5.856c4.783,4.783,11.157,7.417,17.947,7.417
		c7.814,0,15.076-3.513,19.924-9.639c2.636-3.329,4.295-7.151,5.002-11.11l3.677,3.678c4.857,4.856,11.566,7.643,18.406,7.643
		c5.648,0,11.172-1.91,15.555-5.38c4.869-3.853,8.134-9.344,9.23-15.386c4.696,4.017,10.766,6.289,16.942,6.289
		c5.647,0,11.172-1.911,15.555-5.38c5.679-4.495,9.177-11.218,9.596-18.444c0.39-6.715-1.895-13.293-6.303-18.286
		c4.077-0.719,7.942-2.432,11.184-4.997c5.68-4.495,9.177-11.218,9.596-18.444c0.42-7.239-2.268-14.32-7.375-19.427l-9.433-9.433
		c0.344-0.342,0.673-0.7,0.976-1.086c17.664-22.508,27.176-39.253,30.683-54.068c0.275-0.484,0.518-0.988,0.724-1.508l1.948-4.908
		C298.637,99.89,297.626,91.021,291.919,85.301z M283.901,101.163l-2.391,6.024c-0.515,0.67-0.862,1.445-1.043,2.271
		c-3.38,15.511-15.294,33.305-28.649,50.322c-16.99-16.99-93.427-93.465-93.427-93.465l-49.324-0.626
		c-7.286,0-13.248-5.962-13.248-13.248c0-7.286,5.962-13.247,13.248-13.247l92.483-12.72c0.01-0.001,0.019-0.006,0.026-0.012
		l4.646-2.65c1.057-0.909,2.36-1.358,3.661-1.358c1.444,0,2.885,0.554,3.978,1.649l69.562,69.671
		C285.413,95.769,285.617,98.929,283.901,101.163z M260.048,206.17c-2.383,1.886-5.24,2.789-8.107,2.789
		c-3.604,0-7.221-1.428-9.921-4.129l-48.518-48.518c-1.26-1.26-2.91-1.89-4.561-1.89c-1.65,0-3.302,0.63-4.561,1.89l0,0
		c-2.551,2.55-2.551,6.685,0,9.234l62.373,62.374c5.572,5.572,5.178,14.941-1.183,19.977c-2.383,1.885-5.24,2.789-8.107,2.789
		c-3.604,0-7.221-1.429-9.921-4.129l-62.081-62.081c-1.276-1.276-2.949-1.915-4.623-1.915c-1.673,0-3.346,0.639-4.623,1.915
		c-2.516,2.516-2.516,6.595,0,9.11l48.811,48.811c5.572,5.572,5.178,14.941-1.183,19.976c-2.383,1.886-5.24,2.789-8.107,2.789
		c-3.604,0-7.22-1.428-9.921-4.129l-50.44-50.441c-0.888-3.974-2.853-7.753-5.938-10.839l-0.109-0.109
		c-3.482-3.48-7.919-5.639-12.713-6.282c0.953-2.499,1.472-5.169,1.472-7.924c0-5.934-2.311-11.515-6.507-15.711
		c-0.012-0.012-0.024-0.024-0.036-0.036l-0.094-0.093c-4.194-4.184-9.766-6.487-15.69-6.487c-3.925,0-7.685,1.03-11.001,2.929
		c-0.949-3.883-2.913-7.455-5.804-10.36l-0.072-0.073c-0.026-0.026-0.052-0.053-0.078-0.079c-4.197-4.197-9.777-6.509-15.713-6.509
		c-5.937,0-11.517,2.312-15.713,6.512l-0.035,0.035c-0.775-2.412-1.433-4.802-1.946-7.161c-0.181-0.825-0.528-1.601-1.043-2.271
		l-31.209-34.843c-1.716-2.234-1.512-5.394,0.477-7.388l69.562-69.671c1.093-1.096,2.532-1.649,3.978-1.649
		c1.301,0,2.604,0.449,3.661,1.358l0.551,0.517c-4.658,4.583-7.555,10.95-7.555,17.984c0,13.893,11.277,25.199,25.158,25.248
		l44.312,0.562l107.94,107.941C266.804,191.766,266.409,201.135,260.048,206.17z M118.701,258.374l-0.108-0.106
		c-3.992-3.991-3.992-10.463,0-14.453l5.567-5.567c1.996-1.995,4.611-2.993,7.227-2.993c2.615,0,5.231,0.998,7.227,2.993
		l0.107,0.108c3.989,3.991,3.989,10.461,0,14.451l-5.568,5.567c-1.995,1.995-4.61,2.993-7.226,2.993
		C123.31,261.367,120.696,260.369,118.701,258.374z M47.873,172.008l7.994-7.994c1.995-1.996,4.609-2.994,7.225-2.994
		c2.616,0,5.231,0.998,7.228,2.994l0.105,0.107c3.992,3.99,3.992,10.461,0,14.451l-7.992,7.993c-1.995,1.995-4.61,2.993-7.226,2.993
		s-5.229-0.998-7.226-2.993l-0.108-0.107C43.884,182.468,43.884,175.997,47.873,172.008z M69.62,211.47
		c-3.991-3.991-3.991-10.46,0-14.451l18.912-18.912c1.997-1.996,4.612-2.994,7.228-2.994c2.616,0,5.231,0.998,7.227,2.994
		l0.107,0.106c3.99,3.991,3.99,10.462,0,14.451L84.18,211.577c-1.996,1.996-4.611,2.994-7.227,2.994
		c-2.615,0-5.23-0.998-7.227-2.994L69.62,211.47z M94.151,220.372l12.239-12.241c1.996-1.995,4.61-2.992,7.226-2.992
		c2.615,0,5.23,0.997,7.227,2.992l0.108,0.108c3.989,3.99,3.989,10.462,0,14.452l-12.241,12.241
		c-1.994,1.995-4.609,2.992-7.225,2.992c-2.616,0-5.231-0.997-7.226-2.992l-0.108-0.108C90.16,230.834,90.16,224.363,94.151,220.372
		z M141.638,266.858l5.566-5.565c3.92-3.921,6.047-8.956,6.419-14.095l4.28,4.279c4.849,4.849,5.595,12.651,1.339,18.028
		c-2.684,3.391-6.599,5.086-10.515,5.086c-3.43,0-6.86-1.301-9.462-3.902l-1.034-1.034
		C139.443,268.846,140.585,267.912,141.638,266.858z"/>
	<path style="fill:#FFD4C4;" d="M47.981,186.565c1.996,1.995,4.61,2.993,7.226,2.993s5.23-0.998,7.226-2.993l7.992-7.993
		c3.992-3.99,3.992-10.461,0-14.451l-0.105-0.107c-1.996-1.996-4.611-2.994-7.228-2.994c-2.615,0-5.229,0.998-7.225,2.994
		l-7.994,7.994c-3.989,3.989-3.989,10.46,0,14.45L47.981,186.565z"/>
	<path style="fill:#FFD4C4;" d="M76.953,214.571c2.615,0,5.23-0.998,7.227-2.994l18.914-18.913c3.99-3.989,3.99-10.46,0-14.451
		l-0.107-0.106c-1.995-1.996-4.61-2.994-7.227-2.994c-2.615,0-5.23,0.998-7.228,2.994L69.62,197.018
		c-3.991,3.991-3.991,10.46,0,14.451l0.106,0.107C71.722,213.573,74.338,214.571,76.953,214.571z"/>
	<path style="fill:#FFD4C4;" d="M94.259,234.933c1.995,1.995,4.61,2.992,7.226,2.992c2.615,0,5.231-0.997,7.225-2.992l12.241-12.241
		c3.989-3.99,3.989-10.462,0-14.452l-0.108-0.108c-1.996-1.995-4.611-2.992-7.227-2.992c-2.615,0-5.229,0.997-7.226,2.992
		l-12.239,12.241c-3.991,3.991-3.991,10.462,0,14.452L94.259,234.933z"/>
	<path style="fill:#FFD4C4;" d="M133.151,258.374l5.568-5.567c3.989-3.99,3.989-10.46,0-14.451l-0.107-0.108
		c-1.995-1.995-4.611-2.993-7.227-2.993c-2.615,0-5.23,0.998-7.227,2.993l-5.567,5.567c-3.992,3.99-3.992,10.462,0,14.453
		l0.108,0.106c1.995,1.995,4.609,2.993,7.225,2.993C128.541,261.367,131.156,260.369,133.151,258.374z"/>
</g>
<g>
</g>
<g>
</g>
<g>
</g>
<g>
</g>
<g>
</g>
<g>
</g>
<g>
</g>
<g>
</g>
<g>
</g>
<g>
</g>
<g>
</g>
<g>
</g>
<g>
</g>
<g>
</g>
<g>
</g>
</svg>
