<?xml version="1.0" encoding="iso-8859-1"?>
<!-- Generator: Adobe Illustrator 19.1.0, SVG Export Plug-In . SVG Version: 6.00 Build 0)  -->
<svg version="1.1" id="Capa_1" xmlns="http://www.w3.org/2000/svg" xmlns:xlink="http://www.w3.org/1999/xlink" x="0px" y="0px"
	 viewBox="0 0 235.864 235.864" style="enable-background:new 0 0 235.864 235.864;" xml:space="preserve">
<g>
	<path style="fill:#FFD4C4;" d="M206.504,125.247c-3.366-26.094-15.15-46.294-41.243-69.118
		c-13.444-11.757-32.95-24.512-32.95-24.512c-3.374-2.531-6.971-3.603-10.401-3.603c-2.003,0-3.949,0.365-5.761,1.02
		c-1.15,0.414-2.348,0.612-3.542,0.612c-2.294,0-4.58-0.729-6.515-2.056c-3.874-2.655-6.415-4.292-6.415-4.292
		c-3.388-2.541-7.002-3.619-10.444-3.619c-2.856-0.001-5.595,0.741-7.991,2.006c-1.709,0.901-3.578,1.351-5.438,1.351
		c-2.283,0-4.554-0.677-6.502-2.028c-4.737-3.287-7.976-5.384-7.976-5.384C57.936,13.08,54.318,12,50.871,12
		c-12.713-0.001-23.104,14.691-11.29,24.785c0.207,0.177,0.421,0.343,0.64,0.506c3.201,2.392,29.631,22.184,42.271,33.244
		c13.467,11.784,38.575,42.647,22.852,67.606c-4.906,7.787-12.99,10.229-20.753,10.229c-6.296,0-12.38-1.605-16.393-3.268
		c-5.582-2.561,0,0.001-17.946-8.234c-2.425-1.112-4.776-1.609-6.977-1.61c-13.617-0.002-21.51,19.026-6.079,28.957
		c17.924,11.536,35.601,16.13,44.438,29.177c5.124,7.563,17.892,20.813,24.031,27.007c2.157,2.175,5.089,3.466,8.151,3.466h60.062
		c6.314,0,11.441-5.169,11.474-11.482l0.09-17.609c0.013-2.442,0.812-4.835,2.268-6.797
		C204.39,165.499,208.958,144.269,206.504,125.247z"/>
	
		<line style="fill:none;stroke:#000000;stroke-width:0;stroke-linecap:round;stroke-linejoin:round;" x1="50.872" y1="0" x2="50.873" y2="0"/>
	<path d="M218.406,123.712c-3.775-29.264-17.306-52.177-45.244-76.615c-13.159-11.508-31.35-23.592-33.986-25.328
		c-5.159-3.766-11.119-5.754-17.266-5.754c-3.138,0-6.247,0.514-9.252,1.528c-3.092-2.116-5.331-3.584-6.149-4.115
		c-5.166-3.762-11.13-5.748-17.276-5.748c-4.601-0.001-9.218,1.132-13.368,3.276c-3.898-2.7-6.762-4.586-7.693-5.195
		C62.999,1.99,57.028,0.001,50.872,0c-11.89-0.001-22.975,7.531-26.955,18.317c-3.611,9.786-0.597,20.358,7.869,27.591
		c0.387,0.33,0.785,0.647,1.256,0.999c2.952,2.205,29.226,21.877,41.548,32.659c9.588,8.39,31.979,34.118,20.601,52.179
		c-0.797,1.265-2.914,4.626-10.6,4.626c-4.411,0-8.853-1.163-11.614-2.278l-2.242-1.029l-11.321-5.194l-4.156-1.907
		c-3.908-1.793-7.938-2.703-11.979-2.704c-11.817,0-22.038,7.769-25.437,19.331c-3.521,11.974,1.527,24.423,12.86,31.717
		c6.664,4.289,13.265,7.674,19.088,10.659c9.966,5.11,17.837,9.145,21.909,15.157c5.289,7.808,16.756,19.961,25.444,28.725
		c4.379,4.417,10.456,7.018,16.673,7.018h60.062c12.877,0,23.407-10.544,23.474-23.421l0.089-17.427
		C214.485,171.997,221.537,147.985,218.406,123.712z M185.352,212.382c-0.032,6.314-5.16,11.482-11.474,11.482h-60.062
		c-3.062,0-5.994-1.291-8.151-3.466c-6.14-6.193-18.907-19.409-24.031-26.973c-8.837-13.047-26.514-17.658-44.438-29.194
		c-15.431-9.931-7.538-28.968,6.079-28.965c2.201,0,4.553,0.493,6.977,1.606c17.946,8.235,12.364,5.671,17.946,8.232
		c4.013,1.662,10.097,3.267,16.393,3.267c7.763,0,15.847-2.443,20.753-10.23c15.724-24.959-9.385-55.823-22.852-67.607
		c-12.641-11.06-39.07-30.853-42.271-33.244c-0.219-0.163-0.433-0.329-0.64-0.506C27.767,26.691,38.159,11.999,50.871,12
		c3.446,0,7.064,1.08,10.455,3.624c0,0,3.238,2.097,7.976,5.384c1.948,1.351,4.219,2.028,6.502,2.028
		c1.859,0,3.729-0.449,5.438-1.351c2.396-1.265,5.135-2.007,7.991-2.006c3.442,0,7.057,1.078,10.444,3.619
		c0,0,2.541,1.637,6.415,4.292c1.934,1.326,4.221,2.056,6.515,2.056c1.194,0,2.392-0.198,3.542-0.612
		c1.812-0.654,3.758-1.02,5.761-1.02c3.431,0,7.027,1.071,10.401,3.603c0,0,19.506,12.755,32.95,24.512
		c26.093,22.824,37.877,43.024,41.243,69.118c2.454,19.021-2.114,40.234-18.794,62.712c-1.456,1.961-2.256,4.371-2.268,6.814
		L185.352,212.382z"/>
</g>
<g>
</g>
<g>
</g>
<g>
</g>
<g>
</g>
<g>
</g>
<g>
</g>
<g>
</g>
<g>
</g>
<g>
</g>
<g>
</g>
<g>
</g>
<g>
</g>
<g>
</g>
<g>
</g>
<g>
</g>
</svg>
