<?xml version="1.0" encoding="iso-8859-1"?>
<!-- Generator: Adobe Illustrator 19.1.0, SVG Export Plug-In . SVG Version: 6.00 Build 0)  -->
<svg version="1.1" id="Capa_1" xmlns="http://www.w3.org/2000/svg" xmlns:xlink="http://www.w3.org/1999/xlink" x="0px" y="0px"
	 viewBox="0 0 256.111 256.111" style="enable-background:new 0 0 256.111 256.111;" xml:space="preserve">
<g>
	<path style="fill:#FFD4C4;" d="M227,101.052H122.282c-10.676,0-17.521-11.448-12.532-20.888
		c5.314-10.054,9.973-20.924,14.377-32.174c5.068-12.946-4.189-23.639-14.677-23.639c-5.325,0-10.966,2.737-15.212,9.333
		C81.63,53.276,74.73,78.109,60.471,87.769c-8.815,5.972-34.252,18.527-44.136,23.396C13.847,112.39,12,114.916,12,117.688v76.996
		c0,3.65,2.98,6.735,6.598,7.216l30.682,4.059c1.087,0.144,2.199,0.537,3.116,1.139c26.638,17.479,45.589,24.68,63.314,24.68
		c3.796,0,7.551-0.33,11.303-0.96c22.44-3.768,25.954-19.639,26.349-27.001c0.121-2.271,1.279-4.387,3.186-5.627
		c11.948-7.771,11.167-19.415,9.471-26.016c-0.744-2.895,0.277-5.974,2.691-7.735c9.045-6.6,9.857-15.558,8.898-22.116
		c-0.646-4.418,2.726-8.27,7.192-8.27H227C249,134.052,249,101.052,227,101.052z"/>
	<path d="M227.639,89.052H122.282c-0.815,0-1.442-0.449-1.863-1.148c-0.419-0.696-0.439-1.461-0.06-2.181
		c4.951-9.366,9.699-19.99,14.941-33.382c3.755-9.591,2.782-19.684-2.668-27.671c-5.27-7.722-13.935-12.337-23.183-12.337
		c-10.006,0-19.228,5.409-25.303,14.848c-4.895,7.606-8.834,15.612-12.643,23.357C65.718,62.305,60.252,73.417,53.74,77.829
		c-5.653,3.83-21.793,12.267-42.708,22.568C4.398,103.665,0,110.29,0,117.688v76.996c0,9.627,7.474,17.844,17.017,19.111
		l29.614,3.916c28.011,18.261,48.752,26.065,69.044,26.065c4.421,0,8.797-0.368,13.307-1.126
		c16.26-2.729,24.925-10.822,29.316-17.13c4.571-6.567,6.288-13.467,6.857-18.715c10.914-8.145,15.702-20.669,13.136-34.547
		c7.78-6.739,11.807-16.207,11.632-26.207h37.716c16.231,0,28.473-12.269,28.473-28.5S243.87,89.052,227.639,89.052z
		 M177.608,142.322c0.96,6.559,0.148,15.577-8.897,22.178c-2.413,1.762-3.434,4.809-2.689,7.704c1.696,6.601,2.48,18.23-9.47,26.001
		c-1.906,1.24-3.06,3.348-3.182,5.619c-0.395,7.362-3.899,23.23-26.34,26.997c-3.752,0.63-7.49,0.958-11.286,0.958
		c-17.725,0-36.641-7.201-63.279-24.681c-0.917-0.601-1.959-0.995-3.046-1.14L18.598,201.9c-3.618-0.48-6.598-3.566-6.598-7.216
		v-76.996c0-2.772,1.847-5.302,4.334-6.526c9.884-4.868,35.182-17.427,43.997-23.398c14.26-9.66,21.229-34.499,33.838-54.09
		c4.245-6.597,9.921-9.346,15.245-9.346c10.488,0,19.763,10.669,14.695,23.615c-4.404,11.25-9.054,22.168-14.368,32.222
		c-4.989,9.439,1.865,20.888,12.54,20.888H227c22,0,22,33,0,33h-42.2C180.334,134.052,176.962,137.904,177.608,142.322z"/>
</g>
<g>
</g>
<g>
</g>
<g>
</g>
<g>
</g>
<g>
</g>
<g>
</g>
<g>
</g>
<g>
</g>
<g>
</g>
<g>
</g>
<g>
</g>
<g>
</g>
<g>
</g>
<g>
</g>
<g>
</g>
</svg>
