<?xml version="1.0" encoding="iso-8859-1"?>
<!-- Generator: Adobe Illustrator 19.1.0, SVG Export Plug-In . SVG Version: 6.00 Build 0)  -->
<svg version="1.1" id="Capa_1" xmlns="http://www.w3.org/2000/svg" xmlns:xlink="http://www.w3.org/1999/xlink" x="0px" y="0px"
	 viewBox="0 0 254.443 254.443" style="enable-background:new 0 0 254.443 254.443;" xml:space="preserve">
<g>
	<path style="fill:#FFD4C4;" d="M225.022,164.737c3.872-25.063,15.222-113.644,15.222-113.644
		c1.557-12.252-7.796-19.078-17.05-19.078c-7.658,0-15.248,4.674-16.536,14.812l-7.605,49.004c-0.351,2.611-2.674,4.437-5.006,4.437
		c-0.985,0-1.972-0.325-2.812-1.054c-3.65-3.161-8.579-4.546-13.33-4.546c-4.342,0-8.535,1.155-11.47,3.169
		c-0.594,0.406-1.268,0.587-1.956,0.587c-1.389,0-2.835-0.735-3.794-1.828c-4.703-5.356-10.073-7.321-15.123-7.322
		c-4.773,0-9.26,1.756-12.628,4.063c-0.657,0.451-1.407,0.652-2.113,0.652c-2.457,0-4.905-2.436-4.905-5.214V28.839
		c0-11.226-8.581-16.839-17-16.839c-8.419,0-17,5.613-17,16.839V153c0,5.952-4.692,10.24-10.021,10.24
		c-1.68,0-3.302-0.426-4.929-1.359c-11.922-6.844-25.019-12.607-38.792-18.001c-2.568-1.005-5.026-1.459-7.357-1.46
		c-15.773-0.002-24.641,20.784-7.193,32.014c20.026,12.889,45.424,19.942,55.299,34.52c6.084,8.98,14.98,24.856,18.393,31.119
		c0.87,1.599,2.548,2.371,4.368,2.371h89.048c2.342,0,4.367-1.414,4.859-3.705L199.644,220c0.217-1.008,0.752-1.857,1.504-2.561
		C213.405,205.955,221.268,189.037,225.022,164.737z"/>
	<path d="M245.555,29.849c-5.506-6.249-13.656-9.832-22.361-9.832c-14.793,0-26.453,10.319-28.417,25.117l-6.086,39.209
		c-3.378-1.1-7.02-1.674-10.787-1.674c-4.275,0-8.42,0.736-12.14,2.125c-7.202-6.109-14.801-7.519-20.242-7.52
		c-2.52,0-5.607,0.309-7.607,0.903V28.839c0-8.602-3.259-16.272-9.249-21.598C123.413,2.572,116.49,0,109.137,0
		c-7.354,0-14.487,2.572-19.74,7.241c-5.991,5.325-9.481,12.995-9.481,21.598v121.101c-10-5.738-22.252-11.256-37.519-17.233
		c-3.873-1.517-7.727-2.285-11.654-2.286c-12.904-0.001-23.953,8.262-27.571,20.562c-1.776,6.043-1.463,12.34,0.86,18.209
		c2.4,6.067,6.938,11.37,13.097,15.334c7.762,4.995,15.948,9.018,23.858,12.909c12.061,5.932,23.455,11.534,28.003,18.25
		c5.927,8.749,15.115,25.222,17.789,30.13c2.975,5.46,8.687,8.63,14.905,8.63h89.048c7.943,0,14.921-5.415,16.592-13.182
		l3.603-16.641c13.489-13.427,21.988-32.427,25.955-58.107c3.852-24.93,14.803-110.3,15.267-113.923
		C253.242,43.97,250.9,35.915,245.555,29.849z M199.644,220.11l-4.054,18.628c-0.492,2.291-2.518,3.705-4.859,3.705h-89.048
		c-1.82,0-3.494-0.773-4.365-2.371c-3.412-6.263-12.306-22.249-18.39-31.23c-9.874-14.576-35.267-21.574-55.292-34.464
		c-17.448-11.23-8.568-31.987,7.205-31.985c2.33,0,4.813,0.468,7.382,1.474c13.773,5.393,26.921,11.165,38.843,18.008
		c1.627,0.934,3.149,1.363,4.829,1.363c5.329,0,10.021-4.285,10.021-10.237V28.839c0-11.226,8.581-16.839,17-16.839
		c8.419,0,17,5.613,17,16.839v59.938c0,2.778,2.448,5.214,4.905,5.214c0.706,0,1.435-0.201,2.093-0.652
		c3.368-2.308,7.865-4.063,12.638-4.063c5.049,0.001,10.425,1.966,15.127,7.322c0.959,1.093,2.408,1.828,3.796,1.828
		c0.689,0,1.364-0.181,1.957-0.587c2.935-2.014,7.129-3.169,11.47-3.169c4.751,0,9.68,1.385,13.33,4.546
		c0.841,0.729,1.828,1.054,2.812,1.054c2.333,0,4.656-1.825,5.006-4.437l7.606-49.004c1.288-10.139,8.878-14.812,16.536-14.812
		c9.254,0,18.607,6.826,17.05,19.078c0,0-11.35,88.58-15.222,113.644c-3.754,24.3-11.617,41.273-23.874,52.757
		C200.396,218.198,199.861,219.103,199.644,220.11z"/>
</g>
<g>
</g>
<g>
</g>
<g>
</g>
<g>
</g>
<g>
</g>
<g>
</g>
<g>
</g>
<g>
</g>
<g>
</g>
<g>
</g>
<g>
</g>
<g>
</g>
<g>
</g>
<g>
</g>
<g>
</g>
</svg>
