<?xml version="1.0" encoding="iso-8859-1"?>
<!-- Generator: Adobe Illustrator 19.1.0, SVG Export Plug-In . SVG Version: 6.00 Build 0)  -->
<svg version="1.1" id="Capa_1" xmlns="http://www.w3.org/2000/svg" xmlns:xlink="http://www.w3.org/1999/xlink" x="0px" y="0px"
	 viewBox="0 0 273.556 273.556" style="enable-background:new 0 0 273.556 273.556;" xml:space="preserve">
<g>
	<path style="fill:#FF684D;" d="M54.518,96.01c3.018,0,5.616-2.271,5.956-5.341c0.364-3.294-2.01-6.259-5.304-6.624
		C41.202,82.5,30.669,70.717,30.669,56.639c0-13.662,9.989-25.03,23.046-27.198l-8.751,8.751c-2.344,2.343-2.344,6.142,0,8.484
		c1.171,1.172,2.707,1.758,4.242,1.758c1.535,0,3.071-0.586,4.242-1.758l17.979-17.979c2.344-2.343,2.344-6.142,0.001-8.484
		L52.976,1.758c-2.344-2.344-6.143-2.343-8.485-0.001c-2.344,2.344-2.344,6.143-0.001,8.485l7.346,7.346
		c-18.784,3.073-33.167,19.41-33.167,39.051c0,20.204,15.124,37.114,35.181,39.335C54.074,95.998,54.297,96.01,54.518,96.01z"/>
	<path style="fill:#FFD4C4;" d="M242.004,146.314c-3.973-23.739-20.508-26.75-28.641-26.75c-0.268,0-0.525,0.003-0.773,0.009
		c-0.056,0.002-0.112,0.002-0.168,0.002c-2.22,0-4.453-1.035-5.5-2.991c-5.442-10.166-14.303-11.777-20.922-11.777
		c-0.353,0-0.698-0.028-1.037-0.028c-0.04,0-0.082,0-0.122,0c-2.788,0-5.396-2.173-5.396-4.976V34.307
		c0-8.678-6.287-16.836-16.269-16.836c-9.209,0-16.731,7-16.731,16.11v65.659c0,3.235-2.362,5.537-5.597,5.537
		c-0.032,0-0.064,0-0.097,0c-3.174,0-5.759-2.381-5.757-5.567l0.015-53.3c0.006-10.519-8.134-15.73-16.272-15.73
		c-8.133,0-16.265,5.277-16.27,15.787l-0.043,81.409c-0.003,6.936-7.174,11.228-14.058,11.228c-4.184,0-8.263-1.58-10.561-5.115
		l-1.132-1.737c-3.341-5.52-8.199-7.808-13.013-7.809c-10.808-0.001-21.392,11.536-14.098,23.923
		c0.084,0.143,0.164,0.291,0.235,0.441l59.906,109.42c1.095,2.312,3.423,3.897,5.981,3.898l82.674,0.152c0.001,0,0.003,0,0.003,0
		c3.163,0,5.884-2.346,6.497-5.448l8.26-24.767c0.165-0.838,0.498-1.669,0.968-2.383
		C237.226,194.014,245.859,169.354,242.004,146.314z"/>
	<path d="M253.84,144.334c-2.87-17.151-11.37-25.953-17.994-30.317c-7.145-4.707-14.852-6.132-20.503-6.401
		c-4.311-6.394-11.898-12.836-23.898-14.406V34.307c0-16.17-12.272-28.836-28.153-28.836c-7.572,0-14.628,2.817-20.02,7.934
		c-3.168,3.005-5.488,6.605-6.942,10.56c-4.931-3.711-11.103-5.736-17.614-5.736c-16.108,0-28.251,11.933-28.259,27.757
		l-0.037,80.191c-0.491,0.219-1.232,0.434-2.056,0.434c-0.341,0-0.599-0.038-0.77-0.077l-0.767-1.179
		c-5.237-8.525-13.669-13.41-23.164-13.411c-10.139-0.001-19.951,5.704-25,14.535c-4.855,8.493-4.688,18.427,0.45,27.288
		c0.052,0.102,0.106,0.202,0.16,0.303l59.78,109.191c3.142,6.24,9.619,10.25,16.627,10.254l82.674,0.041
		c8.555,0,16.001-5.864,18.068-14.076l8.078-24.169c0.033-0.1,0.065-0.199,0.096-0.3
		C249.389,197.155,258.135,170.005,253.84,144.334z M213.121,231.508l-8.26,24.822c-0.613,3.103-3.334,5.448-6.496,5.448
		c0,0-0.003,0-0.004,0l-82.674-0.152c-2.559-0.001-4.887-1.53-5.981-3.843L49.8,148.335c-0.071-0.149-0.151-0.312-0.235-0.454
		c-7.294-12.387,3.29-23.931,14.098-23.93c4.813,0.001,9.672,2.285,13.013,7.806l1.132,1.737c2.298,3.535,6.377,5.117,10.561,5.117
		c6.884,0,14.055-4.286,14.058-11.222l0.043-81.397c0.005-10.51,8.137-15.763,16.27-15.763c8.139,0,16.278,5.261,16.272,15.778
		l-0.015,53.203c-0.002,3.187,2.583,5.567,5.757,5.567c0.032,0,0.064,0,0.097,0c3.234,0,5.597-2.302,5.597-5.537V33.582
		c0-9.11,7.523-16.11,16.731-16.11c9.982,0,16.269,8.158,16.269,16.836v65.495c0,2.803,2.607,4.976,5.396,4.976
		c0.04,0,0.081,0,0.121,0c0.339,0,0.686,0.028,1.037,0.028c6.619,0,15.479,1.591,20.923,11.757c1.047,1.956,3.28,3.002,5.5,3.002
		c0.056,0,0.112,0.005,0.168,0.003c0.248-0.006,0.506-0.007,0.773-0.007c8.133,0,24.668,3.013,28.641,26.752
		c3.855,23.04-4.777,47.672-27.915,82.838C213.619,229.865,213.286,230.67,213.121,231.508z"/>
</g>
<g>
</g>
<g>
</g>
<g>
</g>
<g>
</g>
<g>
</g>
<g>
</g>
<g>
</g>
<g>
</g>
<g>
</g>
<g>
</g>
<g>
</g>
<g>
</g>
<g>
</g>
<g>
</g>
<g>
</g>
</svg>
