<?xml version="1.0" encoding="iso-8859-1"?>
<!-- Generator: Adobe Illustrator 19.1.0, SVG Export Plug-In . SVG Version: 6.00 Build 0)  -->
<svg version="1.1" id="Capa_1" xmlns="http://www.w3.org/2000/svg" xmlns:xlink="http://www.w3.org/1999/xlink" x="0px" y="0px"
	 viewBox="0 0 268.646 268.646" style="enable-background:new 0 0 268.646 268.646;" xml:space="preserve">
<g>
	<path style="fill:#FF684D;" d="M44.179,112.891C25.834,110.859,12,95.387,12,76.897c0-19.454,15.421-35.369,34.681-36.177
		L32.607,54.795c-2.343,2.343-2.343,6.142,0.001,8.486c1.171,1.17,2.707,1.756,4.242,1.756c1.535,0,3.071-0.586,4.243-1.758
		l22.606-22.607c2.343-2.343,2.343-6.141-0.001-8.484L40.497,8.986c-2.342-2.344-6.142-2.344-8.484,0
		c-2.344,2.343-2.344,6.142,0,8.484L43.46,28.919C19.098,31.315,0,51.916,0,76.897c0,24.614,18.425,45.215,42.858,47.921
		c0.225,0.023,0.447,0.037,0.668,0.037c3.018,0,5.616-2.272,5.956-5.342C49.847,116.22,47.473,113.256,44.179,112.891z"/>
	<path style="fill:#FFD4C4;" d="M256.32,140.878c-3.566-21.241-17.374-22.673-23.749-22.716c-2.31-0.015-4.478-1.147-5.755-3.071
		c-5.241-7.891-12.23-9.984-18.171-9.984c-2.689,0-5.162,0.429-7.163,0.943c-0.601,0.154-1.21,0.229-1.814,0.229
		c-2.208,0-4.333-1.011-5.618-2.879c-4.855-7.055-11.39-9.366-17.42-9.366c-6.037,0-11.567,2.316-14.402,4.509
		c-0.633,0.489-1.216,1.017-1.754,1.57c-1.417,1.459-3.232,2.141-5.021,2.141c-2.89,0-5.713-1.772-6.694-4.905L127.258,30.77
		c-2.512-8.014-8.718-11.453-14.989-11.454c-9.883-0.001-19.931,8.535-15.972,21.162l24.152,75.045
		c2.837,9.058-4.367,16.828-12.376,16.828c-2.607,0-5.301-0.823-7.76-2.694l0,0c-0.147-0.112-0.29-0.233-0.426-0.358
		c-3.46-3.158-7.219-4.491-10.809-4.492c-12.722-0.002-23.356,16.724-11.325,28.218c0.098,0.093,0.194,0.181,0.296,0.27
		c2.714,2.374,41.426,45.167,51.442,57.159c7.632,9.136,13.598,25.942,16.218,34.339c0.913,2.925,3.617,4.627,6.682,4.627h73.736
		c3.3,0,6.151-2.02,6.845-5.246l1.684-23.987c0.093-0.431,0.224-0.774,0.395-1.18C237.597,212.995,259.652,160.724,256.32,140.878z"
		/>
	<path d="M268.154,138.891c-3.312-19.724-15.243-31.488-32.914-32.636c-6.544-8.502-15.893-13.148-26.595-13.148
		c-2.269,0-4.577,0.206-6.898,0.616c-6.371-7.566-15.167-11.688-25.115-11.688c-7.431,0-14.02,2.292-18.614,4.938L138.69,27.124
		c-3.854-12.219-13.973-19.807-26.421-19.809l0,0c-9.41-0.001-18.261,4.399-23.676,11.77c-5.233,7.125-6.563,15.997-3.747,24.982
		c0.01,0.028,0.019,0.057,0.027,0.085l24.133,74.986c0.136,0.445,0.061,0.548-0.042,0.687c-0.23,0.313-0.647,0.524-0.892,0.524
		c-0.098,0-0.225-0.062-0.342-0.138c-5.415-4.846-11.856-7.406-18.65-7.407c-11.477,0-22.16,7.42-26.589,18.466
		c-4.25,10.6-1.578,22.259,6.972,30.428c0.18,0.172,0.356,0.335,0.54,0.498c3.85,3.75,40.516,44.259,50.277,55.947
		c4.451,5.328,9.675,16.448,13.974,30.222c2.489,7.977,9.777,13.052,18.137,13.052h73.736c8.894,0,16.706-6.027,18.577-14.723
		c0.119-0.557,0.199-0.979,0.239-1.547l1.57-22.444c2.494-5.934,7.934-19.239,12.765-33.794
		C267,165.645,269.903,149.308,268.154,138.891z M234.656,220.326l-1.684,23.846c-0.693,3.226-3.545,5.246-6.845,5.246h-73.736
		c-3.064,0-5.769-1.702-6.682-4.627c-2.62-8.396-8.586-25.346-16.218-34.48c-10.017-11.993-48.729-54.715-51.442-57.089
		c-0.102-0.089-0.198-0.141-0.296-0.234c-12.03-11.493-1.396-28.202,11.325-28.199c3.59,0.001,7.353,1.343,10.813,4.501
		c0.136,0.125,0.431,0.252,0.431,0.364v0.001c2,1.871,5.147,2.695,7.755,2.695c8.009,0,15.211-7.77,12.373-16.827L96.299,40.478
		c-3.96-12.628,6.088-21.163,15.97-21.162c6.271,0.001,12.478,3.44,14.989,11.454l21.502,66.579
		c0.981,3.133,3.804,4.905,6.693,4.905c1.79,0,3.605-0.682,5.021-2.141c0.538-0.554,1.121-1.081,1.754-1.57
		c2.835-2.192,8.365-4.509,14.402-4.509c6.03,0,12.565,2.312,17.42,9.366c1.285,1.868,3.41,2.879,5.618,2.879
		c0.604,0,1.213-0.075,1.814-0.229c2.001-0.515,4.475-0.943,7.163-0.943c5.941,0,12.93,2.094,18.171,9.984
		c1.277,1.924,3.445,3.057,5.755,3.071c6.375,0.043,20.183,1.475,23.749,22.716c3.332,19.846-18.724,72.188-21.27,78.197
		C234.88,219.481,234.749,219.895,234.656,220.326z"/>
</g>
<g>
</g>
<g>
</g>
<g>
</g>
<g>
</g>
<g>
</g>
<g>
</g>
<g>
</g>
<g>
</g>
<g>
</g>
<g>
</g>
<g>
</g>
<g>
</g>
<g>
</g>
<g>
</g>
<g>
</g>
</svg>
