<?xml version="1.0" encoding="iso-8859-1"?>
<!-- Generator: Adobe Illustrator 19.1.0, SVG Export Plug-In . SVG Version: 6.00 Build 0)  -->
<svg version="1.1" id="Capa_1" xmlns="http://www.w3.org/2000/svg" xmlns:xlink="http://www.w3.org/1999/xlink" x="0px" y="0px"
	 viewBox="0 0 271.982 271.982" style="enable-background:new 0 0 271.982 271.982;" xml:space="preserve">
<g>
	<path style="fill:#FF684D;" d="M36.501,128.76C22.533,127.214,12,115.43,12,101.352c0-13.662,9.988-25.029,23.045-27.198
		l-8.75,8.751c-2.344,2.343-2.344,6.142,0,8.484c1.171,1.172,2.707,1.758,4.242,1.758c1.535,0,3.071-0.586,4.242-1.758L52.759,73.41
		c2.344-2.343,2.344-6.142,0.001-8.484L34.308,46.471c-2.344-2.343-6.144-2.344-8.485-0.001c-2.344,2.344-2.344,6.143-0.001,8.485
		l7.346,7.347C14.382,65.376,0,81.713,0,101.352c0,20.204,15.124,37.114,35.181,39.335c0.225,0.025,0.447,0.037,0.668,0.037
		c3.018,0,5.616-2.271,5.956-5.341C42.169,132.091,39.795,129.125,36.501,128.76z"/>
	<path style="fill:#FFD4C4;" d="M259.067,148.045c-3.872-23.728-15.358-30.205-22.151-31.937c-3.27-0.833-5.985-3.017-7.652-5.95
		c-5.37-9.447-13.27-11.682-18.872-11.917c-3.995-0.169-7.597-2.422-9.684-5.833c-5.387-8.807-15.197-14.506-25.77-14.506
		c-2.088,0-4.203,0.222-6.322,0.686c-0.819,0.18-1.646,0.267-2.464,0.267c-3.525,0-6.929-1.612-9.249-4.384
		c-4.831-5.772-13.366-15.138-26.533-26.881c-12.929-11.531-23.293-17.959-25.396-19.221c-0.273-0.164-0.538-0.344-0.797-0.529
		c-3.572-2.555-7.36-3.646-10.974-3.646C79.35,24.192,68.027,40.222,80.968,51.212c0.191,0.162,0.389,0.316,0.589,0.468
		c2.623,1.983,22.328,16.94,35.987,28.891c14.658,12.826,41.988,46.418,24.873,73.584c-5.341,8.477-14.138,11.134-22.588,11.134
		c-6.852,0-13.475-1.747-17.842-3.556c-6.075-2.788,0,0-19.534-8.964c-2.639-1.211-5.199-1.753-7.594-1.753
		c-14.821-0.003-23.411,20.707-6.616,31.517c19.509,12.556,38.747,17.595,48.367,31.795c6.456,9.53,17.75,22.598,26.152,30.139
		c2.236,2.008,5.128,3.323,8.133,3.323h68.724c5.727,0,10.676-4.2,11.879-9.798l2.555-11.979c0.315-1.47,0.907-2.917,1.73-4.175
		C256.642,189.92,262.507,169.127,259.067,148.045z"/>
	
		<line style="fill:none;stroke:#000000;stroke-width:0;stroke-linecap:round;stroke-linejoin:round;" x1="93.206" y1="12.193" x2="93.206" y2="12.193"/>
	<path d="M270.91,146.112c-2.072-12.703-6.378-22.86-12.796-30.189c-5.01-5.722-11.315-9.679-18.234-11.442
		c0.01-0.002-0.087-0.082-0.184-0.252c-6.272-11.034-16.449-17.413-28.664-17.971c-0.024-0.024-0.057-0.061-0.087-0.111
		c-7.639-12.487-21.436-20.244-36.007-20.244c-2.934,0-5.88,0.314-8.759,0.935c-0.02-0.015-0.047-0.036-0.074-0.068
		c-5.101-6.095-14.056-15.922-27.748-28.135c-13.333-11.892-24.062-18.661-27.14-20.513l-0.059-0.041
		c-5.383-3.851-11.591-5.886-17.953-5.887C80.681,12.192,69.021,20.12,64.85,31.472c-3.821,10.401-0.7,21.2,8.351,28.886
		c0.346,0.293,0.701,0.577,1.12,0.894c2.201,1.665,21.909,16.613,35.321,28.35c10.626,9.298,35.403,37.869,22.622,58.156
		c-0.861,1.367-3.484,5.53-12.434,5.53c-4.964,0-9.962-1.311-13.063-2.566l-4.494-2.062l-14.814-6.798
		c-4.114-1.888-8.352-2.845-12.597-2.846c-12.386,0-23.101,8.148-26.667,20.277c-3.695,12.569,1.625,25.652,13.555,33.33
		c7.192,4.629,14.336,8.299,20.64,11.537c11.002,5.651,19.692,10.116,24.286,16.898c6.949,10.258,18.755,23.975,28.072,32.339
		c4.447,3.992,10.183,6.393,16.148,6.393h68.724c11.305,0,21.172-8.224,23.549-19.275l2.493-11.979v-0.05
		c0,0,0.071-0.057,0.104-0.108C267.65,194.891,274.978,171.04,270.91,146.112z M234.053,225.912l-2.555,12.079
		c-1.203,5.598-6.152,9.798-11.879,9.798h-68.724c-3.005,0-5.896-1.315-8.133-3.323c-8.402-7.541-19.696-20.507-26.152-30.038
		c-9.62-14.199-28.858-19.289-48.367-31.845c-16.795-10.809-8.205-31.545,6.616-31.542c2.395,0,4.955,0.529,7.594,1.74
		c19.534,8.963,13.459,6.169,19.534,8.957c4.367,1.809,10.99,3.553,17.842,3.553c8.45,0,17.247-2.659,22.588-11.136
		c17.115-27.165-10.215-60.758-24.873-73.584C103.885,68.62,84.18,53.663,81.557,51.679c-0.2-0.151-0.397-0.305-0.589-0.468
		c-12.94-10.989-1.618-27.02,12.236-27.019c3.613,0.001,7.401,1.092,10.974,3.646c0.259,0.185,0.523,0.365,0.797,0.529
		c2.103,1.262,12.467,7.689,25.396,19.221c13.167,11.743,21.702,21.108,26.533,26.881c2.32,2.772,5.724,4.384,9.249,4.384
		c0.818,0,1.645-0.087,2.464-0.267c2.119-0.464,4.234-0.686,6.322-0.686c10.572,0,20.383,5.699,25.77,14.506
		c2.087,3.411,5.688,5.664,9.684,5.833c5.602,0.235,13.502,2.47,18.872,11.917c1.667,2.934,4.383,5.117,7.652,5.95
		c6.793,1.731,18.279,8.209,22.151,31.937c3.44,21.082-2.426,41.824-23.285,73.742C234.96,223.045,234.368,224.442,234.053,225.912z
		"/>
</g>
<g>
</g>
<g>
</g>
<g>
</g>
<g>
</g>
<g>
</g>
<g>
</g>
<g>
</g>
<g>
</g>
<g>
</g>
<g>
</g>
<g>
</g>
<g>
</g>
<g>
</g>
<g>
</g>
<g>
</g>
</svg>
