<?xml version="1.0" encoding="iso-8859-1"?>
<!-- Generator: Adobe Illustrator 19.1.0, SVG Export Plug-In . SVG Version: 6.00 Build 0)  -->
<svg version="1.1" id="Capa_1" xmlns="http://www.w3.org/2000/svg" xmlns:xlink="http://www.w3.org/1999/xlink" x="0px" y="0px"
	 viewBox="0 0 284.022 284.022" style="enable-background:new 0 0 284.022 284.022;" xml:space="preserve">
<g>
	<path style="fill:#FFD4C4;" d="M230.555,156.779c-3.973-23.739-20.508-26.75-28.642-26.75c-0.268,0-0.524,0.003-0.773,0.009
		c-0.056,0.001-0.111,0.002-0.168,0.002c-2.22,0-4.453-1.036-5.5-2.991c-5.441-10.165-14.272-11.736-20.892-11.736
		c-0.352,0-1.008,0.005-1.008,0.013l-0.167,0.001c-3,0-5.167-2.256-5.167-5.059V44.772c0-8.678-6.287-16.836-16.27-16.836
		c-9.208,0-16.73,7-16.73,16.11v65.659c0,3.235-2.605,6.294-5.84,6.294c-0.032,0-0.064,0-0.097,0c-3.175,0-5.759-2.759-5.758-5.945
		l0.016-53.49c0.005-10.518-8.134-15.824-16.272-15.824c-8.133,0-16.265,5.229-16.27,15.74l-0.043,81.385
		c-0.004,6.936-7.174,11.217-14.058,11.217c-4.185,0-8.263-1.587-10.562-5.121l-1.131-1.741c-3.342-5.52-8.2-7.809-13.013-7.809
		c-10.808-0.002-21.393,11.535-14.098,23.922c0.084,0.143,0.164,0.291,0.235,0.441l59.906,109.421
		c1.094,2.312,3.423,3.775,5.98,3.776l82.675,0.03h0.003c3.162,0,5.883-2.225,6.496-5.326l8.26-24.706
		c0.166-0.839,0.499-1.64,0.969-2.353C225.777,204.449,234.41,179.819,230.555,156.779z"/>
	<path d="M224.396,124.481c-7.145-4.707-14.729-6.132-20.38-6.401c-4.312-6.395-11.776-12.837-23.776-14.406V44.772
		c0-16.17-12.393-28.836-28.275-28.836c-7.572,0-14.688,2.817-20.081,7.933c-3.168,3.006-5.518,6.606-6.972,10.562
		c-4.931-3.711-11.118-5.736-17.63-5.736c-16.108-0.001-28.259,11.933-28.267,27.757l-0.041,80.191
		c-0.49,0.219-1.234,0.434-2.057,0.434c-0.341,0-0.6-0.038-0.772-0.077l-0.767-1.18c-5.238-8.524-13.669-13.409-23.164-13.41
		c-10.139-0.001-19.951,5.704-25,14.535c-4.855,8.492-4.688,18.426,0.449,27.287c0.052,0.102,0.106,0.203,0.16,0.304l59.781,109.192
		c3.142,6.239,9.619,10.249,16.626,10.253l82.675,0.041c8.554,0,15.999-5.864,18.067-14.075l8.078-24.169
		c0.033-0.1,0.065-0.2,0.097-0.301c24.787-37.853,33.537-65.009,29.241-90.678C239.52,137.648,231.021,128.846,224.396,124.481z
		 M201.671,241.973l-8.26,24.701c-0.613,3.102-3.334,5.326-6.496,5.326h-0.003l-82.675-0.03c-2.558-0.001-4.887-1.471-5.98-3.782
		L38.351,158.77c-0.071-0.149-0.151-0.297-0.235-0.439c-7.295-12.387,3.29-23.923,14.098-23.922
		c4.812,0.001,9.671,2.289,13.013,7.81l1.131,1.739c2.299,3.535,6.377,5.119,10.562,5.119c6.884,0,14.054-4.286,14.058-11.223
		l0.043-81.396c0.005-10.51,8.137-15.763,16.27-15.763c8.139,0,16.277,5.261,16.272,15.778l-0.016,53.582
		c-0.001,3.187,2.583,5.945,5.758,5.945c0.032,0,0.064,0,0.097,0c3.234,0,5.84-3.059,5.84-6.294V44.047
		c0-9.11,7.523-16.11,16.73-16.11c9.982,0,16.27,8.158,16.27,16.836v65.495c0,2.803,2.485,4.732,5.273,4.732c0.04,0,0.02,0,0.061,0
		c0.339,0,0.655,0.15,1.008,0.15c6.619,0,15.464,1.652,20.905,11.817c1.048,1.955,3.273,3.031,5.493,3.031
		c0.056,0,0.108,0.02,0.164,0.019c0.248-0.006,0.504,0.002,0.772,0.002c8.134,0,24.668,3.016,28.641,26.755
		c3.855,23.04-4.778,47.674-27.916,82.84C202.17,240.328,201.837,241.135,201.671,241.973z"/>
	<path style="fill:#FF684D;" d="M258.596,52.977L217.609,12h16.964c3.313,0,6-2.686,6-6s-2.687-6-6-6h-31
		c-3.314,0-6.333,2.665-6.333,5.978v33c0,3.313,2.687,6,6,6c3.314,0,6-2.687,6-6V20.911l40.706,40.539
		c1.171,1.172,2.79,1.758,4.325,1.758c1.535,0,3.113-0.58,4.284-1.752C260.898,59.113,260.94,55.319,258.596,52.977z"/>
</g>
<g>
</g>
<g>
</g>
<g>
</g>
<g>
</g>
<g>
</g>
<g>
</g>
<g>
</g>
<g>
</g>
<g>
</g>
<g>
</g>
<g>
</g>
<g>
</g>
<g>
</g>
<g>
</g>
<g>
</g>
</svg>
