<?xml version="1.0" encoding="iso-8859-1"?>
<!-- Generator: Adobe Illustrator 19.1.0, SVG Export Plug-In . SVG Version: 6.00 Build 0)  -->
<svg version="1.1" id="Capa_1" xmlns="http://www.w3.org/2000/svg" xmlns:xlink="http://www.w3.org/1999/xlink" x="0px" y="0px"
	 viewBox="0 0 268.085 268.085" style="enable-background:new 0 0 268.085 268.085;" xml:space="preserve">
<g>
	<path style="fill:#FF684D;" d="M43.238,96.863c1.535,0,3.071-0.586,4.242-1.758l25.831-25.831c2.344-2.343,2.344-6.142,0-8.484
		c-2.342-2.344-6.309-2.344-8.651,0L48.741,76.541V6.112c0-3.313-2.686-6-6-6c-3.313,0-6,2.687-6,6v70.103L22.146,61.453
		c-2.342-2.344-6.059-2.344-8.401,0c-2.344,2.343-2.302,6.142,0.042,8.484l25.189,25.168C40.146,96.277,41.703,96.863,43.238,96.863
		z"/>
	<path style="fill:#FFD4C4;" d="M243.194,140.843c-3.973-23.738-20.508-26.75-28.641-26.75c-0.268,0-0.525,0.004-0.773,0.01
		c-0.056,0.001-0.112,0.002-0.168,0.002c-2.22,0-4.453-1.036-5.5-2.992c-5.442-10.165-14.302-11.735-20.921-11.735
		c-0.353,0-0.698,0.004-1.038,0.012c-0.039,0.001-0.196,0.002-0.236,0.002c-2.788,0-5.176-2.256-5.176-5.06V28.836
		c0-8.678-6.287-16.836-16.269-16.836c-9.209,0-16.731,7-16.731,16.11V93.77c0,3.235-2.468,6.343-5.702,6.343
		c-0.032,0-0.064,0-0.096,0c-3.175,0-5.759-2.783-5.758-5.97l0.015-53.502c0.006-10.518-8.134-15.83-16.271-15.831
		c-8.133,0-16.266,5.227-16.271,15.737l-0.042,81.384c-0.004,6.935-7.175,11.216-14.058,11.216c-4.185,0-8.263-1.587-10.562-5.122
		l-1.132-1.74c-3.341-5.521-8.199-7.81-13.013-7.811c-10.807-0.001-21.392,11.535-14.098,23.922c0.084,0.143,0.164,0.291,0.235,0.44
		l59.906,109.421c1.095,2.312,3.423,3.8,5.981,3.801l82.674,0.055h0.004c3.162,0,5.883-2.249,6.496-5.351l8.259-24.719
		c0.166-0.838,0.5-1.645,0.97-2.358C238.417,188.519,247.049,163.884,243.194,140.843z"/>
	<path d="M255.03,138.862c-2.87-17.15-11.37-25.953-17.994-30.317c-7.145-4.707-14.799-6.131-20.45-6.4
		c-4.311-6.395-11.845-12.838-23.845-14.407V28.836C192.741,12.666,180.417,0,164.535,0c-7.572,0-14.654,2.817-20.047,7.934
		c-3.168,3.006-5.5,6.605-6.954,10.561c-4.931-3.71-11.109-5.736-17.621-5.736c-16.108,0-28.255,11.933-28.263,27.757l-0.038,80.191
		c-0.491,0.22-1.233,0.434-2.057,0.434c-0.341,0-0.599-0.038-0.771-0.077l-0.767-1.18c-5.238-8.524-13.669-13.409-23.164-13.41
		c-10.138-0.001-19.951,5.704-25,14.535c-4.855,8.493-4.688,18.426,0.449,27.287c0.052,0.102,0.106,0.203,0.161,0.304l59.78,109.192
		c3.142,6.24,9.619,10.25,16.627,10.253l82.674,0.041c8.555,0,16.001-5.863,18.068-14.075l8.078-24.169
		c0.033-0.1,0.065-0.2,0.096-0.301C250.576,191.688,259.325,164.532,255.03,138.862z M214.31,226.036l-8.259,24.726
		c-0.613,3.102-3.334,5.351-6.496,5.351h-0.004l-82.674-0.055c-2.559-0.001-4.887-1.482-5.981-3.794L50.99,142.84
		c-0.071-0.15-0.151-0.3-0.235-0.442c-7.294-12.388,3.291-23.925,14.098-23.924c4.813,0.001,9.672,2.289,13.013,7.809l1.132,1.739
		c2.299,3.535,6.377,5.118,10.562,5.118c6.883,0,14.054-4.286,14.058-11.222l0.042-81.397c0.005-10.51,8.138-15.763,16.271-15.763
		c8.138,0,16.277,5.261,16.271,15.779l-0.015,53.605c-0.001,3.187,2.583,5.97,5.758,5.97c0.031,0,0.064,0,0.096,0
		c3.234,0,5.702-3.107,5.702-6.343V28.11c0-9.11,7.523-16.11,16.731-16.11c9.982,0,16.269,8.158,16.269,16.836v65.495
		c0,2.804,2.388,5.06,5.176,5.06c0.04,0,0.138-0.001,0.178-0.002c0.339-0.008,0.714-0.012,1.067-0.012
		c6.619,0,15.493,1.57,20.935,11.735c1.047,1.956,3.288,2.992,5.508,2.992c0.056,0,0.116-0.001,0.172-0.002
		c0.248-0.006,0.508-0.01,0.775-0.01c8.133,0,24.669,3.012,28.642,26.75c3.855,23.041-4.778,47.673-27.914,82.839
		C214.81,224.395,214.476,225.198,214.31,226.036z"/>
</g>
<g>
</g>
<g>
</g>
<g>
</g>
<g>
</g>
<g>
</g>
<g>
</g>
<g>
</g>
<g>
</g>
<g>
</g>
<g>
</g>
<g>
</g>
<g>
</g>
<g>
</g>
<g>
</g>
<g>
</g>
</svg>
