<?xml version="1.0" encoding="iso-8859-1"?>
<!-- Generator: Adobe Illustrator 19.1.0, SVG Export Plug-In . SVG Version: 6.00 Build 0)  -->
<svg version="1.1" id="Capa_1" xmlns="http://www.w3.org/2000/svg" xmlns:xlink="http://www.w3.org/1999/xlink" x="0px" y="0px"
	 viewBox="0 0 297 297" style="enable-background:new 0 0 297 297;" xml:space="preserve">
<g>
	<path style="fill:none;" d="M167.084,53c0-22.607-18.252-41-40.859-41S85.066,30.393,85.066,53
		c0,11.438,5.135,21.793,12.135,29.237V69.753c0-3.242,0.724-6.322,1.632-9.182c-0.667-2.411-0.916-4.948-0.916-7.571
		c0-15.649,12.743-28.335,28.391-28.335c15.65,0,28.364,12.686,28.364,28.335c0,2.809-0.681,5.519-1.443,8.08
		c0.808,2.714,0.972,5.623,0.972,8.673v12.778C162.201,75.066,167.084,64.592,167.084,53z"/>
	<path style="fill:#FF684D;" d="M85.136,53c0-22.607,18.508-41,41.115-41s40.776,18.393,40.776,41
		c0,11.592-4.826,22.066-12.826,29.531v15.184c15-9.416,24.883-25.934,24.883-44.716c0-29.225-23.635-53-52.859-53
		S73.066,23.775,73.066,53c0,18.65,10.135,35.069,24.135,44.518v-15.28C90.201,74.793,85.136,64.438,85.136,53z"/>
	<path style="fill:#FF684D;" d="M126.366,24.665c-15.648,0-28.334,12.686-28.334,28.335c0,2.623,0.364,5.16,1.031,7.571
		c3.653-11.495,14.114-19.37,27.148-19.37c13.228,0,23.812,8.105,27.313,19.879c0.761-2.562,1.176-5.271,1.176-8.08
		C154.701,37.351,142.016,24.665,126.366,24.665z"/>
	<path style="fill:#FFD4C4;" d="M240.235,169.856c-3.769-22.452-19.597-26.04-27.034-26.462c-2.342-0.133-4.516-1.32-5.801-3.282
		c-5.388-8.225-12.609-10.4-18.742-10.4c-4.405,0-8.249,1.122-10.449,1.932c-0.275,0.102-0.559,0.15-0.837,0.15
		c-0.87,0-1.701-0.47-2.163-1.262c-5.472-9.387-13.252-11.809-19.822-11.809c-3.824,0-7.237,0.82-9.548,1.564
		c-0.241,0.077-0.764,0.114-1,0.114c-1.256,0-2.637-1.03-2.637-2.376V69.753c0-11.035-8.224-16.552-16.5-16.552
		c-8.276,0-16.5,5.517-16.5,16.552v84.912c0,4.989-3.811,8.074-7.918,8.074c-2.495,0-4.899-1.138-6.552-3.678l-7.937-12.281
		c-3.508-5.788-8.576-8.188-13.625-8.189c-11.412-0.001-22.574,12.258-14.644,25.344l62.491,119.692
		c0.408,0.782,1.225,1.373,2.108,1.373h87.757c1.253,0,2.289-1.075,2.365-2.325l2.196-35.816c0.025-0.413,0.162-0.84,0.39-1.186
		C237.617,212.679,243.853,191.414,240.235,169.856z"/>
	<path d="M252.07,167.87c-4.949-29.482-26.585-35.193-35.98-36.267c-6.673-8.979-16.33-13.892-27.432-13.892
		c-2.664,0-5.165,0.28-7.412,0.697c-6.587-7.587-15.832-11.686-26.139-11.686c-0.209,0-0.906,0.002-0.906,0.005v-9.013V82.531
		V69.753c0-3.05-0.15-5.959-0.957-8.673c-3.502-11.774-13.946-19.879-27.174-19.879c-13.034,0-23.654,7.875-27.307,19.37
		c-0.909,2.859-1.562,5.939-1.562,9.182v12.484v15.28v43.873l-0.429-1.012c-5.388-8.765-13.937-13.786-23.688-13.787
		c-10.507-0.001-20.581,5.932-25.753,15.112c-4.941,8.77-4.662,18.985,0.701,28.089l62.342,119.392
		c2.486,4.759,7.382,7.815,12.751,7.815h87.757c7.578,0,13.879-6.025,14.343-13.59l2.04-33.263
		C249.032,216.644,256.227,192.64,252.07,167.87z M215.442,246.809l-2.196,35.866c-0.076,1.25-1.112,2.325-2.365,2.325h-87.757
		c-0.883,0-1.692-0.591-2.1-1.373L58.539,163.986c-7.93-13.086,3.246-25.37,14.658-25.369c5.049,0,10.146,2.388,13.653,8.176
		l7.994,12.275c1.653,2.54,3.943,3.674,6.438,3.674c4.107,0,7.918-3.088,7.918-8.077V69.753c0-11.035,8.224-16.552,16.5-16.552
		c8.276,0,16.5,5.517,16.5,16.552v48.273c0,1.346,1.381,2.376,2.637,2.376c0.236,0,0.618-0.037,0.86-0.114
		c2.311-0.744,5.794-1.564,9.619-1.564c6.569,0,14.385,2.422,19.857,11.809c0.462,0.792,1.311,1.262,2.181,1.262
		c0.278,0,0.57-0.049,0.845-0.15c2.201-0.81,6.048-1.932,10.454-1.932c6.133,0,13.357,2.176,18.744,10.4
		c1.285,1.962,3.461,3.149,5.801,3.282c7.438,0.422,23.267,4.01,27.036,26.462c3.618,21.558-2.618,42.797-24.403,75.792
		C215.604,245.993,215.467,246.395,215.442,246.809z"/>
</g>
<g>
</g>
<g>
</g>
<g>
</g>
<g>
</g>
<g>
</g>
<g>
</g>
<g>
</g>
<g>
</g>
<g>
</g>
<g>
</g>
<g>
</g>
<g>
</g>
<g>
</g>
<g>
</g>
<g>
</g>
</svg>
