<?xml version="1.0" encoding="iso-8859-1"?>
<!-- Generator: Adobe Illustrator 19.1.0, SVG Export Plug-In . SVG Version: 6.00 Build 0)  -->
<svg version="1.1" id="Capa_1" xmlns="http://www.w3.org/2000/svg" xmlns:xlink="http://www.w3.org/1999/xlink" x="0px" y="0px"
	 viewBox="0 0 285.328 285.328" style="enable-background:new 0 0 285.328 285.328;" xml:space="preserve">
<g>
	<path style="fill:none;" d="M146.957,53c0-22.607-18.393-41-41-41c-22.607,0-41,18.393-41,41c0,11.492,4.759,21.889,12.402,29.34
		L77.33,58.413c-0.01-7.978,2.755-14.968,7.994-20.214c5.222-5.229,12.663-8.228,20.414-8.228c7.233,0,14.066,2.53,19.238,7.123
		c5.9,5.24,9.155,12.786,9.166,21.25l0.029,24.361C142.038,75.23,146.957,64.683,146.957,53z"/>
	<path style="fill:#FF684D;" d="M64.957,53c0-22.607,18.393-41,41-41c22.607,0,41,18.393,41,41c0,11.683-4.919,22.23-12.785,29.706
		l0.015,12.483c0.188-0.003,0.374-0.004,0.56-0.004c1.037,0,2.06,0.054,3.071,0.139c12.83-9.682,21.14-25.049,21.14-42.324
		c0-29.225-23.775-53-53-53s-53,23.775-53,53c0,18.704,9.748,35.163,24.421,44.599L77.36,82.34
		C69.716,74.889,64.957,64.492,64.957,53z"/>
	<path style="fill:#FFD4C4;" d="M218.878,157.765c-3.866-22.86-20.326-25.967-27.416-26.223c-2.007-0.072-3.835-1.129-4.911-2.824
		c-5.367-8.456-12.645-10.681-18.814-10.681c-2.823-0.001-5.414,0.465-7.484,1.013c-0.608,0.16-1.227,0.239-1.839,0.239
		c-2.179,0-4.277-0.994-5.589-2.811c-5.28-7.315-12.171-9.293-18.078-9.293c-1.58,0-3.09,0.142-4.48,0.36
		c-0.371,0.059-0.738,0.087-1.1,0.087c-3.779,0-6.969-3.07-6.974-6.987l-0.05-42.287c-0.014-10.927-8.209-16.387-16.404-16.387
		c-8.211,0-16.422,5.479-16.408,16.427c0.023,18.357,0.089,73.493,0.109,90.106c0.003,2.808-1.675,5.345-4.265,6.428
		c-32.541,13.603,7.642,74.619,14.839,85.076c0.702,1.02,1.118,2.203,1.211,3.438l1.76,23.577c0.273,3.65,3.315,6.64,6.976,6.64
		c0.003,0,0.006,0,0.009,0l78.623-0.265c3.509-0.005,6.472-2.69,6.928-6.169l3.202-24.432c0.136-1.032,0.51-2.043,1.075-2.917
		C220.811,207.402,222.461,178.954,218.878,157.765z"/>
	<path d="M230.71,155.764c-2.799-16.547-11.149-25.21-17.662-29.563c-6.352-4.246-12.953-5.882-18.102-6.433
		c-6.64-8.881-16.195-13.73-27.209-13.73c-2.417-0.001-4.878,0.231-7.351,0.69c-5.867-6.705-13.708-10.661-22.569-11.403
		c-1.012-0.085-2.034-0.139-3.071-0.139c-0.186,0-0.372,0.001-0.56,0.004l-0.015-12.483l-0.029-24.361
		c-0.011-8.464-3.266-16.01-9.166-21.25c-5.172-4.593-12.005-7.123-19.238-7.123c-7.751,0-15.192,2.999-20.414,8.228
		c-5.239,5.246-8.004,12.236-7.994,20.214L77.36,82.34l0.019,15.259l0.017,13.992l0.041,33.745
		c-7.59,4.057-12.837,10.48-15.269,18.749c-3.746,12.739-0.76,29.147,9.13,50.16c6.509,13.827,14.322,25.924,18.062,31.44
		l1.658,22.07c0.74,9.854,9.061,17.572,18.942,17.572l78.646-0.097c9.489-0.012,17.576-7.115,18.812-16.523l3.054-23.263
		C229.043,216.331,235.851,186.165,230.71,155.764z M198.722,242.757l-3.202,24.389c-0.456,3.479-3.419,6.249-6.928,6.254
		l-78.623,0.265c-0.003,0-0.006,0-0.009,0c-3.66,0-6.702-2.989-6.976-6.64l-1.76-23.493c-0.093-1.235-0.509-2.46-1.211-3.48
		c-7.197-10.457-47.38-71.494-14.839-85.098c2.59-1.082,4.268-3.631,4.265-6.438c-0.021-16.613-0.086-71.755-0.109-90.112
		c-0.014-10.948,8.197-16.429,16.408-16.429c8.195,0,16.391,5.458,16.404,16.385l0.05,42.287c0.005,3.916,3.194,6.986,6.974,6.986
		c0.362,0,0.729-0.028,1.1-0.087c1.39-0.219,2.9-0.36,4.48-0.36c5.907,0,12.798,1.978,18.078,9.293
		c1.312,1.816,3.41,2.811,5.589,2.811c0.611,0,1.23-0.079,1.839-0.239c2.07-0.548,4.661-1.014,7.484-1.013
		c6.169,0,13.447,2.225,18.814,10.681c1.076,1.695,2.904,2.752,4.911,2.824c7.09,0.256,23.55,3.362,27.416,26.223
		c3.583,21.189,1.933,49.616-19.081,82.097C199.232,240.734,198.858,241.725,198.722,242.757z"/>
</g>
<g>
</g>
<g>
</g>
<g>
</g>
<g>
</g>
<g>
</g>
<g>
</g>
<g>
</g>
<g>
</g>
<g>
</g>
<g>
</g>
<g>
</g>
<g>
</g>
<g>
</g>
<g>
</g>
<g>
</g>
</svg>
