<?xml version="1.0" encoding="iso-8859-1"?>
<!-- Generator: Adobe Illustrator 19.1.0, SVG Export Plug-In . SVG Version: 6.00 Build 0)  -->
<svg version="1.1" id="Capa_1" xmlns="http://www.w3.org/2000/svg" xmlns:xlink="http://www.w3.org/1999/xlink" x="0px" y="0px"
	 viewBox="0 0 297.703 297.703" style="enable-background:new 0 0 297.703 297.703;" xml:space="preserve">
<g>
	<path style="fill:#FF684D;" d="M40.16,77.084c0-20.462,16.646-37.108,37.108-37.108c3.313,0,6-2.687,6-6c0-3.313-2.687-6-6-6
		c-27.078,0-49.108,22.03-49.108,49.108c0,3.313,2.687,6,6,6C37.473,83.084,40.16,80.397,40.16,77.084z"/>
	<path style="fill:#FF684D;" d="M77.268,12c3.313,0,6-2.686,6-6c0-3.313-2.687-6-6-6C34.764,0,0.184,34.58,0.184,77.084
		c0,3.313,2.687,6,6,6s6-2.687,6-6C12.184,41.196,41.38,12,77.268,12z"/>
	<path style="fill:#FF684D;" d="M220.435,27.976c-3.314,0-6,2.687-6,6c0,3.313,2.686,6,6,6c20.462,0,37.108,16.646,37.108,37.108
		c0,3.313,2.686,6,6,6s6-2.687,6-6C269.543,50.006,247.513,27.976,220.435,27.976z"/>
	<path style="fill:#FF684D;" d="M220.435,0c-3.314,0-6,2.687-6,6c0,3.314,2.686,6,6,6c35.888,0,65.084,29.196,65.084,65.084
		c0,3.313,2.686,6,6,6c3.313,0,6-2.687,6-6C297.519,34.58,262.939,0,220.435,0z"/>
	<path style="fill:#FFD4C4;" d="M240.518,154.959v-48.976c0-7.359-5.645-13.381-13.005-13.381c-0.521,0-0.855,0.03-1.387,0.092
		c-6.812,0.793-11.608,6.838-11.608,13.694v42.39c0,3.413-2.777,6.132-6.19,6.132h-0.111c-3.693,0-6.698-2.945-6.698-6.64V79.895
		c0-6.857-4.984-12.902-11.795-13.695c-0.532-0.062-1.182-0.092-1.702-0.092c-7.36-0.001-13.502,6.021-13.502,13.381v69.028
		c0,3.558-2.895,6.442-6.452,6.442c-3.61,0-6.548-2.928-6.548-6.538V60.625c0-6.856-4.855-12.902-11.667-13.694
		c-0.532-0.062-1.246-0.093-1.767-0.093c-7.36,0-13.567,6.022-13.567,13.382v88.209c0,3.606-2.934,6.53-6.54,6.53
		c-3.563,0-6.46-2.888-6.46-6.449V79.895c0-6.857-4.727-12.902-11.538-13.695c-0.532-0.062-1.311-0.092-1.831-0.092
		c-7.36-0.001-13.631,6.021-13.631,13.381v99.605c0,3.695-2.644,6.164-5.811,6.164c-1.458,0-2.756-0.522-3.993-1.69l-15.779-14.99
		c-2.576-2.576-5.924-3.864-9.32-3.864c-3.396,0-6.768,1.288-9.344,3.864c-5.151,5.152-5.139,13.583,0.012,18.734l56.408,74.39
		c0.006,0.008,0.013,0.018,0.013,0.027l1.413,18.883c0.221,2.931,2.665,5.3,5.602,5.3c0.003,0,0.005,0,0.008,0l98.451-0.182
		c2.816-0.003,5.195-2.145,5.562-4.938l2.569-19.596c0.11-0.838,0.037-1.646,0.493-2.357
		C235.82,235.448,240.518,196.787,240.518,154.959z"/>
	<path d="M227.513,80.603c-0.985,0-1.801,0.058-2.784,0.172c-4.218,0.491-8.21,2.021-11.21,4.319v-5.199
		c0-13.116-9.63-24.128-22.409-25.614c-0.983-0.115-1.979-0.173-2.966-0.173c-5.229-0.001-10.219,1.579-14.435,4.514
		c-0.923-12.218-10.215-22.164-22.337-23.574c-0.983-0.114-1.971-0.137-2.957-0.137h-0.005h-0.004
		c-6.765,0-13.136,2.607-17.938,7.409c-4.424,4.424-7.017,10.162-7.396,16.332c-3.311-2.319-7.203-3.869-11.442-4.362
		c-0.983-0.115-1.982-0.177-2.968-0.177c-6.765-0.001-13.516,2.641-18.318,7.442c-4.801,4.802-7.827,11.169-7.827,17.934v86.04
		l-5.524-5.577c-4.742-4.67-10.834-7.239-17.522-7.239c-6.754,0-12.998,2.621-17.757,7.379c-9.619,9.619-9.791,25.133-0.611,35.021
		l53.878,71.029l1.16,15.265c0.687,9.139,8.409,16.297,17.573,16.297l98.471-0.078c8.805-0.011,16.306-6.598,17.452-15.323
		l2.388-18.182c7.557-12.231,12.779-28.446,16.272-48.228c3.051-17.273,4.221-37.775,4.221-60.934v-48.976
		C252.518,91.988,241.509,80.603,227.513,80.603z M217.74,280.739c-0.366,2.793-2.745,4.986-5.562,4.989l-98.451,0.182
		c-0.003,0-0.005,0-0.008,0c-2.938,0-5.38-2.369-5.601-5.3l-1.411-18.831c-0.001-0.01-0.004-0.045-0.011-0.053l-56.401-74.402
		c-5.152-5.152-5.152-13.59,0-18.741c2.576-2.576,5.972-3.868,9.367-3.868c3.396,0,6.792,1.287,9.368,3.863l15.874,14.988
		c1.237,1.168,2.344,1.691,3.802,1.691c3.167,0,5.811-2.47,5.811-6.165V79.488c0-7.359,6.402-13.382,13.762-13.381
		c0.521,0,0.977,0.03,1.51,0.092c6.811,0.793,11.728,6.838,11.728,13.695v68.615c0,3.562,2.897,6.449,6.46,6.449
		c3.606,0,6.54-2.924,6.54-6.53V60.22c0-7.36,6.274-13.382,13.633-13.382c0.52,0,1.042,0.03,1.574,0.093
		c6.811,0.792,11.793,6.838,11.793,13.694v87.796c0,3.61,2.938,6.538,6.548,6.538c3.558,0,6.452-2.885,6.452-6.442V79.488
		c0-7.359,6.145-13.382,13.505-13.381c0.52,0,1.105,0.03,1.637,0.092c6.811,0.793,11.857,6.838,11.857,13.695v68.376
		c0,3.694,3.005,6.64,6.698,6.64h0.111c3.413,0,6.19-2.719,6.19-6.132v-42.39c0-6.856,4.985-12.901,11.795-13.694
		c0.532-0.062,0.681-0.092,1.202-0.092c7.359,0,13.003,6.021,13.003,13.381v48.976c0,41.828-4.698,80.477-19.716,103.867
		c-0.456,0.711-0.57,1.506-0.68,2.344L217.74,280.739z"/>
</g>
<g>
</g>
<g>
</g>
<g>
</g>
<g>
</g>
<g>
</g>
<g>
</g>
<g>
</g>
<g>
</g>
<g>
</g>
<g>
</g>
<g>
</g>
<g>
</g>
<g>
</g>
<g>
</g>
<g>
</g>
</svg>
