<?xml version="1.0" encoding="iso-8859-1"?>
<!-- Generator: Adobe Illustrator 19.1.0, SVG Export Plug-In . SVG Version: 6.00 Build 0)  -->
<svg version="1.1" id="Capa_1" xmlns="http://www.w3.org/2000/svg" xmlns:xlink="http://www.w3.org/1999/xlink" x="0px" y="0px"
	 viewBox="0 0 228.16 228.16" style="enable-background:new 0 0 228.16 228.16;" xml:space="preserve">
<g>
	<path style="fill:none;" d="M69.069,91.533c0.699,0.613,1.695,1.087,1.695,1.442v-26.59L54.57,70.643
		c-2.625,0.673-5.054,1.014-7.624,1.014c-0.827,0-1.544-0.035-2.353-0.106c7.742,3.977,13.767,9.822,19.313,15.072
		C65.757,88.374,67.351,90.028,69.069,91.533z"/>
	<path style="fill:#FFD4C4;" d="M214.612,101.83c-3.876-23.083-20.357-26.446-27.708-26.775c-2.231-0.1-4.224-1.347-5.441-3.219
		c-5.452-8.383-12.319-10.598-18.245-10.598c-2.793,0-5.375,0.491-7.503,1.062c-0.605,0.161-1.221,0.24-1.83,0.24
		c-2.154,0-4.233-0.987-5.518-2.792c-5.398-7.579-12.483-9.62-18.549-9.62c-1.725,0-3.367,0.165-4.864,0.415
		c-0.376,0.062-0.893,0.093-1.259,0.093c-3.681,0-6.929-3.04-6.929-6.861V28.722c0-11.151-8.212-16.721-16.575-16.722
		c-0.809,0-1.544,0.053-2.345,0.156c-2.104,0.273-54.241,14.271-54.241,14.271c-20.027,5.135-14.475,33.229,3.53,33.229
		c1.528,0,3.155-0.202,4.855-0.638l23.037-5.905c0.577-0.147,0.745-0.218,1.309-0.218c3.667,0,6.43,2.976,6.43,6.854v37.124
		c0,6.236-3.601,9.004-8.639,9.004c-4.182,0-8.867-1.907-12.76-5.319c-7.876-6.902-15.345-15.814-25.314-19.718
		c-2.552-0.999-4.968-1.45-7.285-1.451c-15.675-0.002-24.476,20.655-7.136,31.815c19.903,12.811,39.598,42.216,49.41,56.703
		c6.232,9.201,21.891,36.847,27.658,45.336c1.275,1.876,3.401,2.917,5.671,2.917h78.095c3.398,0,6.282-2.411,6.777-5.773
		l4.117-25.927c0.146-0.988,0.512-1.916,1.06-2.751C216.056,148.768,218.244,123.467,214.612,101.83z"/>
	<polyline style="fill:none;stroke:#000000;stroke-width:0;stroke-linecap:round;stroke-linejoin:round;" points="100.334,0 
		100.335,0 100.335,0 	"/>
	<path d="M226.446,99.843c-2.794-16.64-11.126-25.415-17.623-29.847c-6.563-4.477-13.423-6.166-18.697-6.727
		c-8.447-11.533-19.192-14.031-26.908-14.031c-2.362,0-4.809,0.239-7.305,0.713c-6.633-7.652-15.917-11.823-26.24-11.823
		c-0.254,0-0.909,0.003-0.909,0.008v-9.414c0-8.569-3.141-16.208-9.107-21.512c-5.229-4.648-12.071-7.209-19.394-7.21
		c-1.323,0-2.62,0.087-3.93,0.257c-0.935,0.121-2.876,0.375-55.765,14.565c-14.46,3.742-23.253,16.586-21.403,31.258
		c1.185,9.387,6.344,17.029,13.608,21.455c-1.319-0.174-2.636-0.375-3.954-0.375c-0.001,0-0.003,0-0.003,0
		c-12.858,0-23.914,8.347-27.519,20.603c-1.77,6.021-1.483,12.353,0.831,18.201c2.392,6.044,6.898,11.354,13.032,15.303
		c17.444,11.228,36.3,39.093,45.361,52.477l0.596,0.887c2.956,4.364,8.489,13.713,13.84,22.751
		c5.538,9.354,10.769,18.111,13.821,22.604c3.511,5.168,9.339,8.176,15.59,8.176h78.095c9.253,0,17.25-6.803,18.637-15.943
		l3.949-24.859C224.612,157.227,231.411,129.42,226.446,99.843z M193.358,184.501l-4.117,25.887
		c-0.495,3.361-3.379,5.773-6.777,5.773h-78.095c-2.27,0-4.389-1.041-5.664-2.917c-5.768-8.489-21.419-36.175-27.651-45.376
		c-9.812-14.487-29.494-43.873-49.397-56.683c-17.341-11.16-8.514-31.808,7.161-31.806c2.316,0,4.783,0.457,7.336,1.456
		c9.969,3.903,17.54,12.817,25.416,19.721c3.894,3.412,8.374,5.32,12.556,5.32c5.038,0,8.639-2.767,8.639-9.003V59.749
		c0-3.878-2.76-6.854-6.427-6.854c-0.563,0-0.934,0.07-1.512,0.218l-22.93,5.905c-1.7,0.436-3.266,0.638-4.796,0.638
		c-18.005,0-23.513-28.095-3.486-33.229c0,0,52.185-13.998,54.289-14.271C98.705,12.053,99.374,12,100.184,12
		c8.361,0.001,16.58,5.57,16.58,16.722v15.053c0,3.821,3.249,6.861,6.929,6.861c0.366,0,0.811-0.03,1.187-0.093
		c1.498-0.25,3.175-0.415,4.901-0.415c6.064,0,13.169,2.041,18.567,9.62c1.284,1.805,3.373,2.792,5.528,2.792
		c0.609,0,1.229-0.079,1.833-0.24c2.129-0.57,4.713-1.062,7.506-1.062c5.926,0,12.794,2.215,18.247,10.598
		c1.217,1.872,3.21,3.119,5.441,3.219c7.351,0.329,23.832,3.692,27.708,26.775c3.632,21.637,1.445,46.957-20.194,79.899
		C193.869,182.564,193.503,183.513,193.358,184.501z M44.696,71.551c0.809,0.07,1.628,0.106,2.455,0.106
		c2.569,0,4.794-0.341,7.419-1.014l16.194-4.257v26.59c0-0.355-0.996-0.829-1.695-1.442c-1.718-1.505-3.262-3.159-5.111-4.91
		C58.411,81.373,52.438,75.527,44.696,71.551z"/>
</g>
<g>
</g>
<g>
</g>
<g>
</g>
<g>
</g>
<g>
</g>
<g>
</g>
<g>
</g>
<g>
</g>
<g>
</g>
<g>
</g>
<g>
</g>
<g>
</g>
<g>
</g>
<g>
</g>
<g>
</g>
</svg>
