<?xml version="1.0" encoding="iso-8859-1"?>
<!-- Generator: Adobe Illustrator 19.1.0, SVG Export Plug-In . SVG Version: 6.00 Build 0)  -->
<svg version="1.1" id="Capa_1" xmlns="http://www.w3.org/2000/svg" xmlns:xlink="http://www.w3.org/1999/xlink" x="0px" y="0px"
	 viewBox="0 0 260.054 260.054" style="enable-background:new 0 0 260.054 260.054;" xml:space="preserve">
<g>
	<path style="fill:#FFD4C4;" d="M247.098,131.164c-3.768-22.44-19.639-25.946-27.001-26.341c-2.271-0.122-4.387-1.275-5.627-3.182
		c-5.367-8.252-12.581-10.432-18.706-10.432c-2.743,0-5.268,0.438-7.311,0.962c-0.624,0.161-1.257,0.239-1.884,0.239
		c-2.277,0-4.469-1.036-5.851-2.929c-5.288-7.247-12.169-9.209-18.069-9.209c-1.464,0-2.867,0.121-4.171,0.312
		c-0.366,0.054-0.773,0.08-1.13,0.08c-3.963,0-7.348-3.176-7.348-7.271V30.555c0-10.982-8.264-16.473-16.5-16.473
		S117,19.573,117,30.555v105.355c0,8.237-6.688,14.193-14.111,14.193c-2.198,0-4.418-0.521-6.574-1.661
		c-10.055-5.314-20.859-9.973-32.109-14.377c-2.513-0.983-4.932-1.428-7.213-1.428c-15.43-0.002-24.113,20.331-7.044,31.316
		c19.591,12.608,44.432,19.509,54.092,33.769c5.972,8.815,18.531,34.141,23.399,44.024c1.225,2.487,3.755,4.224,6.528,4.224h76.996
		c3.649,0,6.735-2.869,7.216-6.486l4.059-30.628c0.145-1.086,0.538-2.171,1.139-3.087
		C244.602,173.426,250.668,152.43,247.098,131.164z"/>
	<path d="M258.932,129.176c-2.729-16.26-10.822-24.907-17.13-29.299c-6.565-4.57-13.466-6.279-18.713-6.848
		c-6.651-8.935-16.266-13.82-27.325-13.82c-2.416,0-4.879,0.231-7.353,0.689c-6.555-7.522-15.633-11.626-25.804-11.626
		c-0.188,0-0.607,0.002-0.607,0.005V30.555c0-16.232-12.269-28.473-28.5-28.473S105,14.323,105,30.555v105.355
		c0,1.642-1.427,2.193-2.111,2.193c-0.329,0-0.622-0.088-0.968-0.27c-9.366-4.95-19.949-9.698-33.34-14.941
		c-3.819-1.495-7.712-2.254-11.586-2.254c-12.74-0.002-23.695,8.157-27.265,20.302c-3.646,12.398,1.744,25.393,13.727,33.105
		c7.606,4.895,15.615,8.834,23.36,12.644c11.766,5.786,22.879,11.252,27.29,17.764c3.83,5.654,12.267,21.683,22.569,42.598
		c3.268,6.634,9.893,10.921,17.292,10.921h76.996c9.627,0,17.844-7.363,19.111-16.906l3.916-29.559
		C255.867,177.947,263.096,153.98,258.932,129.176z M222.239,208.774l-4.059,30.711c-0.48,3.617-3.566,6.486-7.216,6.486h-76.996
		c-2.772,0-5.302-1.736-6.526-4.224c-4.868-9.884-17.427-35.126-23.398-43.941c-9.66-14.26-34.499-21.201-54.09-33.81
		c-17.068-10.985-8.381-31.34,7.049-31.338c2.28,0,4.709,0.434,7.221,1.418c11.25,4.404,22.072,9.058,32.127,14.371
		c2.156,1.14,4.34,1.659,6.539,1.659c7.423,0,14.111-5.959,14.111-14.196V30.555c0-10.982,8.264-16.473,16.5-16.473
		s16.5,5.49,16.5,16.473v42.839c0,4.095,3.385,7.271,7.348,7.271c0.357,0,0.743-0.026,1.11-0.08c1.304-0.19,2.717-0.312,4.181-0.312
		c5.899,0,12.785,1.962,18.075,9.209c1.382,1.893,3.576,2.929,5.853,2.929c0.627,0,1.261-0.078,1.885-0.239
		c2.043-0.524,4.568-0.962,7.311-0.962c6.124,0,13.339,2.18,18.706,10.432c1.24,1.907,3.356,3.06,5.628,3.182
		c7.362,0.394,23.233,3.9,27,26.341c3.57,21.267-2.496,42.221-23.72,74.564C222.777,206.645,222.384,207.687,222.239,208.774z"/>
	<path style="fill:#FF684D;" d="M48.333,99.971c0-3.313-2.687-6-6-6H21.434L75,39.96v20.9c0,3.313,2.687,6,6,6s6-2.687,6-6v-36
		c0-3.313-2.354-5.889-5.667-5.889h-35c-3.313,0-6,2.686-6,6s2.687,6,6,6h21.128L12,85.99V64.86c0-3.313-2.686-6-6-6s-6,2.687-6,6
		v35c0,3.313,3.02,6.111,6.333,6.111h36C45.646,105.971,48.333,103.285,48.333,99.971z"/>
</g>
<g>
</g>
<g>
</g>
<g>
</g>
<g>
</g>
<g>
</g>
<g>
</g>
<g>
</g>
<g>
</g>
<g>
</g>
<g>
</g>
<g>
</g>
<g>
</g>
<g>
</g>
<g>
</g>
<g>
</g>
</svg>
