<?xml version="1.0" encoding="iso-8859-1"?>
<!-- Generator: Adobe Illustrator 19.0.0, SVG Export Plug-In . SVG Version: 6.00 Build 0)  -->
<svg version="1.1" id="Capa_1" xmlns="http://www.w3.org/2000/svg" xmlns:xlink="http://www.w3.org/1999/xlink" x="0px" y="0px"
	 viewBox="0 0 512.002 512.002" style="enable-background:new 0 0 512.002 512.002;" xml:space="preserve">
<polygon style="fill:#FFCB5A;" points="495.215,121.703 360.92,222.424 360.92,163.67 235.018,163.67 235.018,71.342 360.92,71.342 
	360.92,12.588 "/>
<polygon style="fill:#00448F;" points="268.592,348.326 268.592,440.654 109.116,440.654 109.116,499.408 8.395,390.293 
	109.116,289.572 109.116,348.326 "/>
<path style="fill:#168DE2;" d="M109.116,507.801c-2.342,0-4.583-0.974-6.169-2.694L2.226,395.992
	c-3.055-3.315-2.954-8.444,0.235-11.633l100.721-100.721c3.282-3.273,8.595-3.273,11.868,0c1.578,1.578,2.459,3.71,2.459,5.934
	v50.361h151.082c4.633,0,8.393,3.76,8.393,8.393v92.328c0,4.633-3.76,8.393-8.393,8.393H117.51v50.361
	C117.51,504.041,113.758,507.801,109.116,507.801z M20.037,390.52l80.686,87.418v-37.284c0-4.633,3.76-8.393,8.393-8.393h151.082
	v-75.541H109.116c-4.633,0-8.393-3.76-8.393-8.393v-38.492L20.037,390.52z"/>
<g>
	<path style="fill:#F5B05C;" d="M360.92,230.818c-4.633,0-8.393-3.76-8.393-8.393v-50.361H235.018c-4.633,0-8.393-3.76-8.393-8.393
		V71.342c0-4.633,3.76-8.393,8.393-8.393h117.508V12.588c0-4.633,3.76-8.393,8.402-8.385c1.922,0,3.785,0.663,5.279,1.872
		L500.503,115.19c3.601,2.921,4.146,8.209,1.225,11.81c-0.428,0.529-0.932,1.007-1.477,1.418L365.956,229.139
		C364.504,230.23,362.741,230.818,360.92,230.818z M243.412,155.277H360.92c4.633,0,8.393,3.76,8.393,8.393v41.967l112.262-84.195
		L369.313,30.214v41.128c0,4.633-3.76,8.393-8.393,8.393H243.412V155.277z"/>
	<rect x="142.69" y="62.949" style="fill:#F5B05C;" width="67.148" height="16.787"/>
	<rect x="109.116" y="62.949" style="fill:#F5B05C;" width="16.787" height="16.787"/>
	<rect x="33.575" y="113.31" style="fill:#F5B05C;" width="58.754" height="16.787"/>
	<rect x="176.264" y="155.277" style="fill:#F5B05C;" width="33.574" height="16.787"/>
	<rect x="92.33" y="155.277" style="fill:#F5B05C;" width="50.361" height="16.787"/>
	<rect x="58.756" y="155.277" style="fill:#F5B05C;" width="16.787" height="16.787"/>
	<rect x="25.182" y="155.277" style="fill:#F5B05C;" width="16.787" height="16.787"/>
	<rect x="134.297" y="113.31" style="fill:#F5B05C;" width="16.787" height="16.787"/>
	<rect x="167.871" y="113.31" style="fill:#F5B05C;" width="41.967" height="16.787"/>
	<rect x="0.002" y="113.31" style="fill:#F5B05C;" width="16.787" height="16.787"/>
</g>
<g>
	<rect x="293.772" y="339.932" style="fill:#168DE2;" width="83.934" height="16.787"/>
	<rect x="394.493" y="339.932" style="fill:#168DE2;" width="16.787" height="16.787"/>
	<rect x="411.28" y="390.293" style="fill:#168DE2;" width="58.754" height="16.787"/>
	<rect x="293.772" y="432.26" style="fill:#168DE2;" width="16.787" height="16.787"/>
	<rect x="386.1" y="432.26" style="fill:#168DE2;" width="50.361" height="16.787"/>
	<rect x="453.248" y="432.26" style="fill:#168DE2;" width="16.787" height="16.787"/>
	<rect x="495.215" y="432.26" style="fill:#168DE2;" width="16.787" height="16.787"/>
	<rect x="360.92" y="390.293" style="fill:#168DE2;" width="16.787" height="16.787"/>
	<rect x="293.772" y="390.293" style="fill:#168DE2;" width="50.361" height="16.787"/>
	<rect x="486.821" y="390.293" style="fill:#168DE2;" width="16.787" height="16.787"/>
	<rect x="327.346" y="432.26" style="fill:#168DE2;" width="16.787" height="16.787"/>
	<rect x="453.248" y="339.932" style="fill:#168DE2;" width="50.361" height="16.787"/>
</g>
<rect x="8.395" y="62.949" style="fill:#F5B05C;" width="50.361" height="16.787"/>
<path d="M109.116,507.801c4.633,0,8.393-3.76,8.393-8.393v-50.361h151.082c4.633,0,8.393-3.76,8.393-8.393v-92.328
	c0-4.633-3.76-8.393-8.393-8.393H117.51v-50.361c0-4.633-3.76-8.393-8.393-8.393c-2.224,0-4.356,0.881-5.934,2.459L2.461,384.359
	c-3.19,3.19-3.29,8.318-0.235,11.633l100.721,109.115C104.542,506.828,106.775,507.801,109.116,507.801z M100.723,477.937
	L20.037,390.52l80.686-80.686v38.492c0,4.633,3.76,8.393,8.393,8.393h151.082v75.541H109.116c-4.633,0-8.393,3.76-8.393,8.393
	V477.937z"/>
<path d="M500.503,115.19L366.208,6.075c-3.601-2.921-8.889-2.367-11.81,1.234c-1.209,1.486-1.872,3.357-1.872,5.279v50.361H235.018
	c-4.633,0-8.393,3.76-8.393,8.393v92.328c0,4.633,3.76,8.393,8.393,8.393h117.508v50.361c0,4.633,3.76,8.393,8.393,8.393
	c1.813,0,3.584-0.588,5.036-1.679l134.295-100.721c3.71-2.787,4.457-8.041,1.67-11.751
	C501.518,116.113,501.04,115.618,500.503,115.19z M369.313,205.637V163.67c0-4.633-3.76-8.393-8.393-8.393H243.412V79.736H360.92
	c4.633,0,8.393-3.76,8.393-8.393V30.214l112.262,91.228L369.313,205.637z"/>
<rect x="142.69" y="62.949" width="67.148" height="16.787"/>
<rect x="109.116" y="62.949" width="16.787" height="16.787"/>
<rect x="33.575" y="113.31" width="58.754" height="16.787"/>
<rect x="176.264" y="155.277" width="33.574" height="16.787"/>
<rect x="92.33" y="155.277" width="50.361" height="16.787"/>
<rect x="58.756" y="155.277" width="16.787" height="16.787"/>
<rect x="25.182" y="155.277" width="16.787" height="16.787"/>
<rect x="134.297" y="113.31" width="16.787" height="16.787"/>
<rect x="167.871" y="113.31" width="41.967" height="16.787"/>
<rect x="0.002" y="113.31" width="16.787" height="16.787"/>
<rect x="293.772" y="339.932" width="83.934" height="16.787"/>
<rect x="394.493" y="339.932" width="16.787" height="16.787"/>
<rect x="411.28" y="390.293" width="58.754" height="16.787"/>
<rect x="293.772" y="432.26" width="16.787" height="16.787"/>
<rect x="386.1" y="432.26" width="50.361" height="16.787"/>
<rect x="453.248" y="432.26" width="16.787" height="16.787"/>
<rect x="495.215" y="432.26" width="16.787" height="16.787"/>
<rect x="360.92" y="390.293" width="16.787" height="16.787"/>
<rect x="293.772" y="390.293" width="50.361" height="16.787"/>
<rect x="486.821" y="390.293" width="16.787" height="16.787"/>
<rect x="327.346" y="432.26" width="16.787" height="16.787"/>
<rect x="453.248" y="339.932" width="50.361" height="16.787"/>
<rect x="8.395" y="62.949" width="50.361" height="16.787"/>
<g>
</g>
<g>
</g>
<g>
</g>
<g>
</g>
<g>
</g>
<g>
</g>
<g>
</g>
<g>
</g>
<g>
</g>
<g>
</g>
<g>
</g>
<g>
</g>
<g>
</g>
<g>
</g>
<g>
</g>
</svg>
