<svg width="20" height="20" viewBox="0 0 20 20" fill="none" xmlns="http://www.w3.org/2000/svg">
<path d="M10 0C8.02219 0 6.08879 0.58649 4.4443 1.6853C2.79981 2.78412 1.51809 4.3459 0.761209 6.17317C0.00433284 8.00043 -0.193701 10.0111 0.192152 11.9509C0.578004 13.8907 1.53041 15.6725 2.92894 17.0711C4.32746 18.4696 6.10929 19.422 8.0491 19.8079C9.98891 20.1937 11.9996 19.9957 13.8268 19.2388C15.6541 18.4819 17.2159 17.2002 18.3147 15.5557C19.4135 13.9112 20 11.9778 20 10C20 8.68678 19.7413 7.38642 19.2388 6.17317C18.7363 4.95991 17.9997 3.85752 17.0711 2.92893C16.1425 2.00035 15.0401 1.26375 13.8268 0.761205C12.6136 0.258658 11.3132 0 10 0ZM14.71 7.71L9.71 12.71C9.61704 12.8037 9.50644 12.8781 9.38458 12.9289C9.26272 12.9797 9.13202 13.0058 9 13.0058C8.86799 13.0058 8.73729 12.9797 8.61543 12.9289C8.49357 12.8781 8.38297 12.8037 8.29 12.71L6.29 10.71C6.1017 10.5217 5.99591 10.2663 5.99591 10C5.99591 9.7337 6.1017 9.4783 6.29 9.29C6.47831 9.1017 6.7337 8.99591 7 8.99591C7.26631 8.99591 7.5217 9.1017 7.71 9.29L9 10.59L13.29 6.29C13.4783 6.1017 13.7337 5.99591 14 5.99591C14.2663 5.99591 14.5217 6.1017 14.71 6.29C14.8983 6.4783 15.0041 6.7337 15.0041 7C15.0041 7.2663 14.8983 7.5217 14.71 7.71Z" fill="#0F8D38"/>
</svg>
