<svg width="644" height="259" viewBox="0 0 644 259" fill="none" xmlns="http://www.w3.org/2000/svg">
<path d="M46.4189 145.602C43.5189 139.102 36.0189 136.202 29.4189 139.002C23.0189 141.802 20.0189 149.402 22.8189 156.002C25.7189 162.502 33.2189 165.402 39.8189 162.602C46.4189 159.702 49.3189 152.102 46.4189 145.602Z" fill="url(#paint0_linear_6178_23688)"/>
<path d="M33.0189 97.9013C26.0189 99.1013 21.4189 105.801 22.6189 112.801C23.8189 119.701 30.5189 124.401 37.5189 123.201C44.5189 122.001 49.1189 115.301 47.9189 108.301C46.7189 101.301 40.0189 96.6013 33.0189 97.9013Z" fill="url(#paint1_linear_6178_23688)"/>
<path d="M52.919 62.2013C45.919 63.4013 41.319 70.1013 42.519 77.1013C43.719 84.0013 50.419 88.7013 57.419 87.5013C64.419 86.3013 69.019 79.6013 67.819 72.6013C66.619 65.7013 59.919 61.0013 52.919 62.2013Z" fill="url(#paint2_linear_6178_23688)"/>
<path d="M83.8189 37.3015C76.8189 38.5015 72.2189 45.2015 73.4189 52.2015C74.6189 59.1015 81.3189 63.8015 88.3189 62.6015C95.3189 61.4015 99.9189 54.7015 98.7189 47.7015C97.5189 40.7015 90.8189 36.1015 83.8189 37.3015Z" fill="url(#paint3_linear_6178_23688)"/>
<path d="M120.119 22.2014C113.119 23.4014 108.519 30.1014 109.719 37.1014C110.919 44.0014 117.619 48.7014 124.619 47.5014C131.619 46.3014 136.219 39.6014 135.019 32.6014C133.819 25.6014 127.119 21.0014 120.119 22.2014Z" fill="url(#paint4_linear_6178_23688)"/>
<path d="M159.819 21.4016C152.819 22.6016 148.219 29.3016 149.419 36.3016C150.619 43.2016 157.319 47.9016 164.319 46.7016C171.319 45.5016 175.919 38.8016 174.719 31.8016C173.519 24.8016 166.819 20.2016 159.819 21.4016Z" fill="url(#paint5_linear_6178_23688)"/>
<path d="M69.0189 130.201C68.7189 123.601 63.3189 118.201 56.6189 117.901C52.9189 117.801 49.4189 119.201 46.8189 121.801C43.6189 125.101 39.2189 127.102 34.5189 127.102C29.9189 127.102 25.5189 125.301 22.2189 121.901C19.6189 119.301 16.1189 117.802 12.4189 118.002C5.71889 118.202 0.318899 123.701 0.0188991 130.401C-0.181101 134.001 1.2189 137.302 3.61891 139.802C4.81891 141.102 6.2189 142.001 7.8189 142.701C9.4189 143.401 11.2189 143.701 12.9189 143.701C14.7189 143.701 16.6189 143.301 18.2189 142.501C19.7189 141.801 21.1189 140.802 22.3189 139.602C25.1189 136.602 29.0189 134.801 33.2189 134.501C33.3189 134.501 33.3189 134.401 33.4189 134.501C33.6189 134.501 33.8189 134.401 34.0189 134.501C34.1189 134.501 34.2189 134.501 34.3189 134.501H34.4189C34.5189 134.501 34.6189 134.501 34.7189 134.501C34.8189 134.501 34.9189 134.501 35.0189 134.501H35.1189C35.2189 134.501 35.4189 134.501 35.5189 134.501C35.6189 134.501 35.8189 134.501 35.9189 134.501C36.1189 134.601 36.3189 134.502 36.5189 134.602C36.6189 134.602 36.6189 134.601 36.7189 134.701C40.4189 135.201 44.0189 137.002 46.6189 139.602C49.1189 142.202 52.4189 143.602 55.9189 143.602C59.4189 143.502 62.7189 142.202 65.2189 139.602C67.9189 137.102 69.2189 133.701 69.0189 130.201Z" fill="url(#paint6_linear_6178_23688)"/>
<path d="M75.7189 107.802C78.5189 101.802 76.2189 94.5016 70.4189 91.2016C67.2189 89.4016 63.4189 89.0016 59.9189 90.2016C55.6189 91.6016 50.7189 91.3016 46.6189 89.2016C42.5189 87.1016 39.4189 83.4016 38.1189 78.9016C37.1189 75.4016 34.6189 72.4016 31.2189 70.9016C25.1189 68.0016 17.8189 70.4016 14.5189 76.1016C12.7189 79.2016 12.3189 82.8016 13.3189 86.1016C13.8189 87.8016 14.6189 89.2016 15.7189 90.6016C16.8189 92.0016 18.2189 93.1016 19.7189 93.9016C21.3189 94.7016 23.1189 95.2016 25.0189 95.3016C26.7189 95.4016 28.3189 95.1016 29.9189 94.6016C33.8189 93.2016 38.0189 93.5016 41.9189 95.1016C42.0189 95.2016 42.0189 95.1016 42.1189 95.2016C42.3189 95.3016 42.5189 95.3016 42.6189 95.5016C42.7189 95.6016 42.8189 95.6016 42.9189 95.6016L43.0189 95.7016C43.1189 95.8016 43.2189 95.8016 43.3189 95.8016C43.4189 95.9016 43.5189 95.9016 43.6189 95.9016L43.7189 96.0016C43.8189 96.1016 44.0189 96.1016 44.0189 96.2016C44.0189 96.3016 44.3189 96.3016 44.3189 96.4016C44.4189 96.5016 44.6189 96.6016 44.8189 96.7016C44.9189 96.8016 44.9189 96.8016 44.9189 96.8016C48.0189 99.0016 50.3189 102.202 51.4189 105.702C52.4189 109.202 54.7189 111.902 57.8189 113.602C61.0189 115.202 64.5189 115.502 67.9189 114.402C71.5189 113.402 74.2189 111.002 75.7189 107.802Z" fill="url(#paint7_linear_6178_23688)"/>
<path d="M92.7188 89.3015C97.7188 85.0015 98.6188 77.4015 94.6188 72.0015C92.4188 69.0015 89.1188 67.1015 85.4188 66.7015C80.9188 66.2015 76.5188 64.0015 73.7188 60.3015C70.8188 56.7015 69.5188 52.1015 70.2188 47.4015C70.7188 43.8015 69.6188 40.1015 67.2188 37.3015C62.9188 32.2015 55.2188 31.3015 49.8188 35.3015C46.9188 37.4015 45.1188 40.5015 44.6188 43.9015C44.3188 45.6015 44.5188 47.3015 44.9188 49.0015C45.3188 50.7015 46.2188 52.3015 47.2188 53.6015C48.3188 55.0015 49.8188 56.2015 51.4188 57.0015C52.9188 57.8015 54.5188 58.2015 56.2188 58.4015C60.3188 58.7015 64.1188 60.7015 67.0188 63.8015C67.0188 63.9015 67.1188 63.9015 67.2188 63.9015C67.4188 64.0015 67.5188 64.2015 67.6188 64.4015C67.6188 64.5015 67.8188 64.5015 67.8188 64.6015V64.7015C67.8188 64.8015 68.0188 64.8015 68.0188 64.9015C68.0188 65.0015 68.2188 65.0015 68.2188 65.1015V65.2015C68.2188 65.3015 68.4188 65.4015 68.4188 65.5015C68.4188 65.6015 68.6188 65.7015 68.6188 65.8015C68.7188 66.0015 68.8188 66.1015 68.9188 66.3015C68.9188 66.4015 68.9188 66.4015 69.0188 66.5015C70.9188 69.8015 71.7188 73.6015 71.3188 77.3015C70.8188 80.9015 71.8188 84.4015 73.9188 87.1015C76.1188 89.8015 79.2188 91.6015 82.8188 91.9015C86.6188 92.7015 90.1188 91.6015 92.7188 89.3015Z" fill="url(#paint8_linear_6178_23688)"/>
<path d="M118.019 74.3012C124.019 71.6012 126.919 64.4012 124.719 58.2012C123.419 54.8012 120.819 52.0012 117.319 50.6012C113.119 48.9012 109.619 45.5012 107.819 41.2012C106.019 36.9012 106.119 32.1012 108.019 27.9012C109.519 24.5012 109.519 20.7012 107.919 17.4012C105.219 11.3012 98.0189 8.40122 91.8189 10.6012C88.4189 11.8012 85.8189 14.3012 84.5189 17.5012C83.8189 19.1012 83.5189 20.7012 83.4189 22.5012C83.3189 24.3012 83.8189 26.0012 84.3189 27.6012C85.0189 29.3012 86.1189 30.8012 87.4189 32.1012C88.6189 33.3012 90.0189 34.1012 91.6189 34.8012C95.4189 36.2012 98.5189 39.2012 100.419 43.0012C100.419 43.1012 100.519 43.1012 100.519 43.2012C100.619 43.4012 100.719 43.6012 100.719 43.8012C100.719 43.9012 100.819 44.0012 100.819 44.1012V44.2012C100.819 44.3012 100.919 44.4012 100.919 44.5012C100.919 44.6012 101.019 44.7012 101.019 44.8012V44.9012C101.019 45.0012 101.119 45.2012 101.119 45.3012C101.119 45.4012 101.219 45.6012 101.219 45.7012C101.219 45.9012 101.319 46.1012 101.319 46.3012C101.319 46.4012 101.319 46.4012 101.319 46.5012C102.219 50.2012 102.019 54.1012 100.519 57.5012C99.0189 60.8012 99.0189 64.4012 100.319 67.7012C101.719 71.0012 104.219 73.4012 107.519 74.8012C111.219 75.8012 114.919 75.7012 118.019 74.3012Z" fill="url(#paint9_linear_6178_23688)"/>
<path d="M144.319 68.7014C150.919 68.2014 156.119 62.5014 156.019 55.8014C155.919 52.1014 154.419 48.6014 151.719 46.2014C148.319 43.2014 146.119 38.8014 145.919 34.2014C145.719 29.6014 147.419 25.1014 150.619 21.7014C153.119 19.0014 154.419 15.4014 154.119 11.8014C153.619 5.10141 147.919 -0.0985817 141.319 0.0014183C137.719 0.0014183 134.419 1.50142 132.119 4.00142C130.919 5.20142 130.119 6.70141 129.419 8.30141C128.819 9.90141 128.519 11.7014 128.619 13.4014C128.719 15.2014 129.219 17.0014 130.019 18.7014C130.819 20.2014 131.819 21.5014 133.119 22.6014C136.219 25.3014 138.119 29.1014 138.619 33.3014C138.619 33.4014 138.719 33.4014 138.619 33.5014C138.619 33.7014 138.719 33.9014 138.619 34.1014C138.619 34.2014 138.619 34.3014 138.619 34.4014V34.5014C138.619 34.6014 138.619 34.7014 138.619 34.8014C138.619 34.9014 138.619 35.0014 138.619 35.1014V35.2014C138.619 35.3014 138.619 35.5014 138.619 35.6014C138.619 35.7014 138.619 35.9014 138.619 36.0014C138.519 36.2014 138.619 36.4014 138.519 36.6014C138.519 36.7014 138.519 36.7014 138.419 36.8014C138.019 40.6014 136.419 44.2014 133.919 46.8014C131.419 49.4014 130.119 52.8014 130.219 56.3014C130.419 59.8014 131.919 63.0014 134.619 65.5014C137.419 67.8014 140.819 69.0014 144.319 68.7014Z" fill="url(#paint10_linear_6178_23688)"/>
<path d="M67.4189 188.402C68.6189 181.402 64.0189 174.702 57.0189 173.502C50.0189 172.302 43.3189 177.002 42.1189 183.902C40.9189 190.902 45.5189 197.602 52.5189 198.802C59.5189 200.002 66.2189 195.402 67.4189 188.402Z" fill="url(#paint11_linear_6178_23688)"/>
<path d="M98.2189 213.402C99.4189 206.402 94.8189 199.702 87.8189 198.502C80.8189 197.302 74.1189 202.002 72.9189 208.902C71.7189 215.902 76.3189 222.602 83.3189 223.802C90.3189 225.002 97.0189 220.402 98.2189 213.402Z" fill="url(#paint12_linear_6178_23688)"/>
<path d="M135.019 227.402C136.219 220.402 131.619 213.702 124.619 212.502C117.619 211.302 110.919 216.002 109.719 222.902C108.519 229.902 113.119 236.602 120.119 237.802C127.119 239.102 133.819 234.502 135.019 227.402Z" fill="url(#paint13_linear_6178_23688)"/>
<path d="M175.119 226.601C176.319 219.601 171.719 212.901 164.719 211.701C157.719 210.501 151.019 215.201 149.819 222.101C148.619 229.101 153.219 235.801 160.219 237.001C167.219 238.201 173.819 233.601 175.119 226.601Z" fill="url(#paint14_linear_6178_23688)"/>
<path d="M67.6189 146.601C64.1189 145.501 60.6189 145.801 57.5189 147.401C54.4189 149.001 52.1189 151.801 51.1189 155.301C50.0189 158.801 47.7189 162.001 44.6189 164.201C44.5189 164.301 44.5189 164.301 44.5189 164.301C44.4189 164.401 44.2189 164.501 44.0189 164.601C43.9189 164.701 43.7189 164.701 43.7189 164.801C43.6189 164.901 43.4189 164.901 43.4189 165.001L43.3189 165.101C43.2189 165.201 43.1189 165.201 43.0189 165.201C42.9189 165.301 42.8189 165.301 42.7189 165.301L42.6189 165.401C42.5189 165.501 42.4189 165.501 42.3189 165.501C42.2189 165.601 42.0189 165.701 41.8189 165.801C41.7189 165.901 41.7189 165.801 41.6189 165.901C37.7189 167.601 33.4189 167.801 29.6189 166.401C28.0189 165.901 26.4189 165.601 24.7189 165.701C22.9189 165.801 21.1189 166.301 19.4189 167.101C17.9189 167.901 16.4189 169.001 15.4189 170.401C14.3189 171.801 13.5189 173.201 13.0189 174.901C12.0189 178.201 12.4189 181.801 14.2189 184.901C17.5189 190.701 24.8189 193.101 30.9189 190.201C34.3189 188.701 36.7189 185.801 37.8189 182.201C39.1189 177.701 42.2189 174.101 46.3189 171.901C50.4189 169.801 55.3189 169.501 59.6189 170.901C63.1189 172.101 66.9189 171.701 70.1189 169.901C75.9189 166.601 78.3189 159.301 75.4189 153.301C73.9189 150.101 71.2189 147.701 67.6189 146.601Z" fill="url(#paint15_linear_6178_23688)"/>
<path d="M82.5188 168.901C78.9188 169.301 75.8188 171.001 73.6188 173.701C71.4188 176.501 70.5188 180.001 71.0188 183.501C71.5188 187.101 70.7188 191.001 68.7188 194.301C68.7188 194.401 68.7188 194.401 68.6188 194.501C68.5188 194.701 68.4188 194.801 68.3188 195.001C68.3188 195.101 68.1188 195.201 68.1188 195.301C68.1188 195.401 67.9188 195.501 67.9188 195.601V195.701C67.9188 195.801 67.7188 195.801 67.7188 195.901C67.7188 196.001 67.5188 196.001 67.5188 196.101V196.201C67.5188 196.301 67.3188 196.301 67.3188 196.401C67.2188 196.601 67.1188 196.701 66.9188 196.901C66.9188 197.001 66.8188 197.001 66.7188 197.001C63.8188 200.101 60.0188 202.101 55.9188 202.401C54.2188 202.601 52.6188 203.001 51.1188 203.801C49.5188 204.601 48.0188 205.801 46.9188 207.201C45.9188 208.601 45.0188 210.201 44.6188 211.801C44.2188 213.501 44.0188 215.101 44.2188 216.901C44.7188 220.301 46.5188 223.401 49.3188 225.501C54.7188 229.401 62.3188 228.601 66.7188 223.501C69.2188 220.701 70.2188 217.101 69.7188 213.401C69.1188 208.801 70.4188 204.201 73.3188 200.601C76.2188 197.001 80.5188 194.701 85.0188 194.301C88.7188 193.901 92.0188 192.001 94.2188 189.101C98.1188 183.701 97.3188 176.101 92.3188 171.801C89.7188 169.501 86.2188 168.401 82.5188 168.901Z" fill="url(#paint16_linear_6178_23688)"/>
<path d="M107.319 186.802C103.919 188.202 101.519 190.702 100.119 193.902C98.8188 197.202 98.8188 200.802 100.319 204.102C101.819 207.502 102.019 211.402 101.119 215.102C101.119 215.202 101.119 215.202 101.119 215.302C101.119 215.502 101.019 215.702 101.019 215.902C101.019 216.002 100.919 216.202 100.919 216.302C100.919 216.402 100.819 216.602 100.819 216.702V216.802C100.819 216.902 100.719 217.002 100.719 217.102C100.719 217.202 100.619 217.302 100.619 217.402V217.502C100.619 217.602 100.519 217.702 100.519 217.802C100.519 218.002 100.419 218.202 100.319 218.402C100.319 218.502 100.219 218.502 100.219 218.602C98.3188 222.402 95.2188 225.302 91.3188 226.702C89.7188 227.302 88.3188 228.202 87.1188 229.402C85.8188 230.602 84.7188 232.202 84.0188 233.902C83.4188 235.502 83.0188 237.302 83.0188 239.002C83.0188 240.702 83.3188 242.402 84.1188 244.002C85.5188 247.202 88.1188 249.702 91.4188 250.902C97.6188 253.202 104.819 250.302 107.519 244.202C109.119 240.902 109.119 237.002 107.619 233.702C105.719 229.402 105.719 224.602 107.519 220.402C109.319 216.102 112.819 212.802 117.019 211.102C120.519 209.702 123.119 207.002 124.419 203.502C126.719 197.302 123.819 190.102 117.819 187.402C114.419 185.402 110.819 185.302 107.319 186.802Z" fill="url(#paint17_linear_6178_23688)"/>
<path d="M132.819 193.801C130.319 196.401 129.019 199.701 129.119 203.201C129.219 206.701 130.719 210.001 133.419 212.401C136.119 214.901 138.019 218.401 138.619 222.101C138.619 222.201 138.619 222.201 138.719 222.301C138.819 222.501 138.719 222.701 138.819 222.901C138.819 223.001 138.819 223.201 138.819 223.301C138.819 223.401 138.819 223.601 138.819 223.701V223.801C138.819 223.901 138.819 224.001 138.819 224.101C138.819 224.201 138.819 224.301 138.819 224.401V224.501C138.819 224.601 138.819 224.701 138.819 224.801C138.919 225.001 138.819 225.201 138.819 225.401C138.819 225.501 138.719 225.501 138.819 225.601C138.619 229.801 136.919 233.801 134.019 236.601C132.819 237.801 131.919 239.201 131.219 240.701C130.519 242.401 130.119 244.201 130.219 246.001C130.319 247.701 130.619 249.501 131.419 251.101C132.219 252.701 133.119 254.101 134.419 255.201C137.019 257.501 140.319 258.801 143.919 258.501C150.519 258.101 155.919 252.501 155.919 245.801C156.019 242.101 154.519 238.601 151.719 236.101C148.319 233.001 146.319 228.601 146.219 224.001C146.119 219.401 147.919 214.901 151.119 211.601C153.719 208.901 155.019 205.401 154.819 201.701C154.419 195.101 148.819 189.701 142.219 189.701C138.719 189.701 135.319 191.101 132.819 193.801Z" fill="url(#paint18_linear_6178_23688)"/>
<path d="M173.219 138.801L155.119 94.3013H135.919V163.101H149.519V115.801L165.719 155.501H180.819L197.219 115.701V163.101H210.819V94.3013H191.519L173.219 138.801Z" fill="white"/>
<path d="M256.419 140.702C256.419 144.402 255.619 147.002 254.219 148.402C252.719 149.802 249.719 150.602 245.619 150.602C242.319 150.602 239.919 149.902 238.719 148.702C237.519 147.402 236.819 144.802 236.819 141.102V113.102H223.319V141.102C223.319 148.502 224.919 153.802 228.119 157.202C231.319 160.602 236.519 162.402 243.419 162.402C248.119 162.402 251.819 161.802 254.719 160.702C255.419 160.402 256.019 160.102 256.619 159.802C256.519 162.102 256.219 164.002 255.719 165.402C255.219 166.702 254.419 167.602 253.219 168.202C252.119 168.702 249.919 169.302 245.719 169.302C241.119 169.302 239.219 168.602 238.519 168.102C238.119 167.902 237.319 167.402 237.219 165.202L237.119 162.202H223.519V165.402C223.619 170.602 225.719 174.802 229.719 177.302C233.419 179.702 238.619 180.902 245.819 180.902C254.319 180.902 260.319 179.102 264.119 175.302C267.919 171.602 269.819 165.602 269.819 157.402V113.102H256.319V140.702H256.419Z" fill="white"/>
<path d="M348.319 60.7013L312.919 163.101H298.419L275.819 104.101C275.019 101.901 275.319 99.4013 276.619 97.5013C277.919 95.6013 280.119 94.4013 282.519 94.4013C285.519 94.4013 288.219 96.3013 289.219 99.1013L305.519 144.601L306.119 142.901L334.719 56.2013C335.719 53.2013 338.419 51.3013 341.519 51.3013C343.819 51.3013 346.019 52.4013 347.419 54.3013C348.719 56.1013 349.019 58.5013 348.319 60.7013ZM382.119 124.601C383.419 128.501 384.119 133.401 384.119 139.201V142.301H350.119C350.419 145.701 351.219 148.301 352.519 149.801C354.119 151.601 357.019 152.501 361.219 152.501C365.919 152.501 367.919 151.701 368.619 151.301C369.019 151.101 370.019 150.401 370.119 147.901L370.219 144.901H383.719V148.001C383.719 153.501 381.619 157.801 377.519 160.501C373.719 163.001 368.319 164.201 360.919 164.201C355.319 164.201 350.719 163.301 347.119 161.601C343.319 159.701 340.419 156.701 338.719 152.701C337.119 149.001 336.319 144.101 336.319 138.201C336.319 129.801 338.119 123.401 341.619 119.001C345.319 114.401 351.619 112.101 360.219 112.101C366.119 112.101 370.719 113.101 374.319 115.101C378.019 117.101 380.619 120.301 382.119 124.601ZM366.719 124.501C365.219 123.801 363.019 123.501 360.319 123.501C357.519 123.501 355.419 123.801 353.919 124.501C352.719 125.001 351.919 125.901 351.319 127.101C350.919 128.101 350.519 129.401 350.319 131.001H370.319C370.119 129.401 369.819 128.101 369.319 127.101C368.719 125.901 367.919 125.101 366.719 124.501ZM407.319 113.801C406.019 114.301 404.919 114.901 403.819 115.701L403.419 113.001H391.619V163.101H405.119V130.301C405.919 128.501 407.119 127.301 408.919 126.501C411.219 125.401 413.919 124.901 416.919 124.901H421.119V112.101H417.119C413.819 112.001 410.519 112.601 407.319 113.801ZM425.219 107.101H441.219V92.6013H425.219V107.101ZM426.419 163.101H439.919V113.001H426.419V163.101Z" fill="url(#paint19_linear_6178_23688)"/>
<path d="M490.119 138.801L471.919 94.3013H452.719V163.101H466.319V115.801L482.519 155.501H497.619L514.019 115.701V163.101H527.619V94.3013H508.419L490.119 138.801Z" fill="white"/>
<path d="M583.219 124.601C581.719 120.301 579.119 117.101 575.519 115.001C572.019 113.001 567.419 112.001 561.419 112.001C552.719 112.001 546.419 114.301 542.819 118.901C539.319 123.301 537.519 129.701 537.519 138.101C537.519 144.101 538.319 148.801 539.919 152.601C541.619 156.601 544.519 159.601 548.319 161.501C551.919 163.201 556.519 164.101 562.119 164.101C569.519 164.101 574.919 162.901 578.719 160.401C582.819 157.701 584.919 153.401 584.919 147.901V144.801H571.419L571.319 147.801C571.219 150.401 570.219 151.001 569.819 151.201C569.019 151.701 567.119 152.401 562.419 152.401C558.219 152.401 555.319 151.501 553.719 149.701C552.419 148.201 551.619 145.701 551.319 142.201H585.319V139.101C585.319 133.401 584.619 128.501 583.219 124.601ZM570.419 127.201C570.819 128.201 571.219 129.501 571.419 131.101H551.419C551.619 129.501 551.919 128.201 552.419 127.201C553.019 125.901 553.819 125.101 555.019 124.601C556.519 123.901 558.719 123.601 561.519 123.601C564.319 123.601 566.419 123.901 567.919 124.601C569.119 125.101 569.919 125.901 570.419 127.201Z" fill="white"/>
<path d="M624.919 94.3012V114.301C624.319 114.001 623.719 113.701 623.119 113.501C620.319 112.401 616.819 111.901 612.319 111.901C604.919 111.901 599.219 114.001 595.519 118.201C591.819 122.301 590.019 128.901 590.019 138.401C590.019 147.401 591.819 153.701 595.519 157.801C599.219 161.901 604.919 164.001 612.219 164.001C616.019 164.001 619.019 163.601 621.519 162.801C623.419 162.201 625.019 161.401 626.419 160.501L626.819 162.901H638.419V94.2012H624.919V94.3012ZM603.619 138.501C603.619 134.301 604.019 131.001 604.719 128.701C605.319 126.901 606.219 125.601 607.519 124.901C609.019 124.101 611.219 123.601 614.119 123.601C618.119 123.601 620.319 124.201 621.419 124.701C622.219 125.101 623.319 125.801 624.019 128.101C624.719 130.301 625.019 133.701 625.019 138.001C625.019 142.101 624.619 145.201 623.919 147.501C623.319 149.301 622.319 150.501 621.019 151.201C619.419 152.001 617.019 152.501 614.019 152.501C611.119 152.501 608.919 152.101 607.519 151.301C606.319 150.601 605.419 149.501 604.819 147.801C603.919 145.601 603.619 142.501 603.619 138.501Z" fill="white"/>
<path d="M285.519 218.802C287.719 218.802 289.419 218.402 290.619 217.602C291.819 216.802 292.419 215.502 292.419 213.702C292.419 212.702 292.219 211.802 291.819 211.102C291.419 210.402 290.919 209.802 290.219 209.302C289.519 208.802 288.819 208.402 288.019 208.102C287.219 207.802 286.319 207.402 285.419 207.002C284.219 206.502 283.219 206.102 282.319 205.602C281.419 205.102 280.619 204.602 279.919 204.002C279.219 203.402 278.819 202.702 278.419 201.902C278.119 201.102 277.919 200.202 277.919 199.102C277.919 196.702 278.719 194.902 280.319 193.602C281.919 192.402 284.119 191.702 287.019 191.702C287.819 191.702 288.519 191.802 289.219 191.902C289.919 192.002 290.619 192.202 291.319 192.302C291.919 192.502 292.519 192.702 293.119 192.902C293.619 193.102 294.119 193.302 294.419 193.602L293.419 195.902C292.619 195.402 291.719 194.902 290.519 194.602C289.419 194.302 288.219 194.102 286.919 194.102C286.019 194.102 285.219 194.202 284.419 194.402C283.719 194.602 283.019 194.902 282.519 195.302C282.019 195.702 281.519 196.202 281.219 196.802C280.919 197.402 280.719 198.102 280.719 199.002C280.719 199.902 280.919 200.602 281.219 201.202C281.519 201.802 282.019 202.302 282.619 202.702C283.219 203.102 283.919 203.502 284.719 203.902C285.519 204.302 286.319 204.602 287.319 205.002C288.419 205.502 289.519 205.902 290.519 206.402C291.519 206.902 292.419 207.402 293.119 208.002C293.819 208.602 294.419 209.402 294.919 210.302C295.319 211.202 295.619 212.302 295.619 213.602C295.619 216.202 294.719 218.102 292.919 219.302C291.119 220.602 288.719 221.202 285.719 221.202C284.619 221.202 283.619 221.102 282.719 221.002C281.819 220.902 281.019 220.702 280.319 220.502C279.619 220.302 279.019 220.102 278.519 219.902C278.019 219.702 277.619 219.502 277.419 219.302L278.319 216.902C278.619 217.102 278.919 217.302 279.419 217.502C279.919 217.702 280.419 217.902 281.019 218.102C281.619 218.302 282.319 218.502 283.119 218.602C283.719 218.802 284.619 218.802 285.519 218.802Z" fill="white"/>
<path d="M301.419 210.102C301.419 208.302 301.719 206.602 302.219 205.302C302.719 204.002 303.419 202.802 304.319 201.902C305.219 201.002 306.119 200.302 307.219 199.802C308.319 199.402 309.419 199.102 310.619 199.102C313.219 199.102 315.219 199.902 316.819 201.602C318.319 203.302 319.119 205.902 319.119 209.402C319.119 209.602 319.119 209.802 319.119 210.102C319.119 210.302 319.119 210.502 319.019 210.702H304.219C304.319 213.302 304.919 215.302 306.119 216.602C307.319 218.002 309.219 218.702 311.819 218.702C313.219 218.702 314.419 218.602 315.219 218.302C316.019 218.002 316.719 217.802 317.019 217.602L317.519 219.902C317.119 220.102 316.419 220.402 315.419 220.702C314.419 221.002 313.119 221.102 311.719 221.102C309.919 221.102 308.319 220.802 307.019 220.302C305.719 219.802 304.619 219.002 303.819 218.002C303.019 217.002 302.319 215.902 302.019 214.502C301.619 213.202 301.419 211.702 301.419 210.102ZM316.319 208.402C316.219 206.202 315.719 204.502 314.819 203.302C313.819 202.102 312.419 201.502 310.619 201.502C309.719 201.502 308.819 201.702 308.119 202.102C307.419 202.502 306.719 203.002 306.119 203.602C305.519 204.202 305.119 205.002 304.819 205.802C304.519 206.602 304.319 207.502 304.219 208.402H316.319Z" fill="white"/>
<path d="M336.019 221.102C334.419 221.102 332.919 220.802 331.719 220.302C330.519 219.802 329.419 219.002 328.619 218.102C327.819 217.102 327.119 216.002 326.719 214.602C326.319 213.302 326.019 211.802 326.019 210.102C326.019 208.402 326.219 206.902 326.719 205.602C327.219 204.202 327.819 203.102 328.619 202.102C329.419 201.102 330.519 200.402 331.719 199.802C332.919 199.302 334.219 199.001 335.719 199.001C336.819 199.001 337.919 199.102 338.919 199.302C339.919 199.502 340.719 199.701 341.219 200.001L340.519 202.302C340.019 202.002 339.319 201.802 338.719 201.602C338.019 201.402 337.119 201.401 336.019 201.401C333.719 201.401 331.919 202.201 330.719 203.701C329.519 205.201 328.919 207.302 328.919 210.102C328.919 211.302 329.019 212.501 329.319 213.501C329.619 214.501 330.019 215.401 330.619 216.201C331.219 216.901 332.019 217.501 333.019 218.001C334.019 218.401 335.119 218.602 336.519 218.602C337.619 218.602 338.619 218.501 339.419 218.201C340.219 217.901 340.719 217.701 341.119 217.501L341.719 219.802C341.219 220.102 340.419 220.302 339.419 220.602C338.219 220.902 337.119 221.102 336.019 221.102Z" fill="white"/>
<path d="M364.419 219.901C363.619 220.101 362.619 220.401 361.219 220.601C359.919 220.901 358.219 221.001 356.319 221.001C354.719 221.001 353.419 220.801 352.319 220.301C351.219 219.801 350.419 219.201 349.719 218.301C349.019 217.501 348.619 216.401 348.319 215.201C348.019 214.001 347.919 212.701 347.919 211.201V199.401H350.519V210.401C350.519 211.901 350.619 213.201 350.819 214.201C351.019 215.201 351.419 216.101 351.919 216.701C352.419 217.301 353.019 217.801 353.819 218.101C354.619 218.401 355.519 218.501 356.619 218.501C357.919 218.501 358.919 218.401 359.919 218.301C360.819 218.201 361.419 218.001 361.719 217.901V199.401H364.319V219.901H364.419Z" fill="white"/>
<path d="M380.919 199.202C381.819 199.202 382.619 199.302 383.419 199.402C384.219 199.502 384.719 199.702 385.019 199.802L384.519 202.102C384.319 202.002 383.819 201.902 383.219 201.802C382.519 201.702 381.719 201.602 380.619 201.602C379.519 201.602 378.519 201.702 377.819 201.802C377.119 202.002 376.719 202.102 376.419 202.202V220.702H373.819V200.602C374.519 200.302 375.419 200.002 376.619 199.702C377.719 199.302 379.219 199.202 380.919 199.202Z" fill="white"/>
<path d="M394.519 193.202C394.519 193.802 394.319 194.302 393.919 194.702C393.519 195.102 393.119 195.302 392.519 195.302C392.019 195.302 391.519 195.102 391.119 194.702C390.719 194.302 390.519 193.802 390.519 193.202C390.519 192.602 390.719 192.102 391.119 191.702C391.519 191.302 391.919 191.202 392.519 191.202C393.019 191.202 393.519 191.402 393.919 191.702C394.319 192.102 394.519 192.602 394.519 193.202ZM393.919 220.602H391.319V199.502H393.919V220.602Z" fill="white"/>
<path d="M403.219 200.302C404.019 200.102 405.019 199.802 406.419 199.602C407.719 199.302 409.419 199.202 411.319 199.202C412.919 199.202 414.219 199.402 415.319 199.902C416.419 200.402 417.219 201.002 417.919 201.902C418.519 202.802 419.019 203.802 419.319 205.002C419.619 206.202 419.719 207.502 419.719 209.002V220.802H417.019V209.902C417.019 208.402 416.919 207.102 416.719 206.102C416.519 205.102 416.219 204.202 415.719 203.602C415.219 203.002 414.619 202.502 413.819 202.202C413.019 201.902 412.119 201.802 410.919 201.802C409.719 201.802 408.619 201.902 407.719 202.002C406.819 202.102 406.219 202.302 405.919 202.402V220.902H403.319V200.302H403.219Z" fill="white"/>
<path d="M442.419 218.202C442.219 218.302 442.019 218.502 441.719 218.702C441.419 218.902 441.019 219.102 440.519 219.202C440.019 219.402 439.519 219.502 438.919 219.702C438.319 219.802 437.619 219.902 436.819 219.902C435.619 219.902 434.419 219.702 433.319 219.302C432.219 218.902 431.219 218.302 430.319 217.502C429.419 216.702 428.819 215.602 428.219 214.302C427.719 213.002 427.419 211.402 427.419 209.602C427.419 208.102 427.619 206.702 428.119 205.402C428.619 204.102 429.219 203.002 430.119 202.102C431.019 201.202 432.019 200.402 433.219 199.902C434.419 199.402 435.819 199.102 437.419 199.102C439.419 199.102 440.919 199.202 442.119 199.502C443.319 199.802 444.319 200.002 445.019 200.302V219.502C445.019 222.702 444.219 224.902 442.619 226.202C441.019 227.502 438.519 228.202 435.219 228.202C433.819 228.202 432.619 228.102 431.519 227.902C430.419 227.702 429.519 227.502 428.719 227.202L429.219 224.802C429.919 225.102 430.719 225.402 431.919 225.602C433.119 225.802 434.219 225.902 435.319 225.902C437.819 225.902 439.619 225.402 440.719 224.502C441.819 223.502 442.419 221.902 442.419 219.602V218.202ZM442.319 202.102C441.819 202.002 441.219 201.802 440.519 201.702C439.819 201.602 438.719 201.502 437.419 201.502C436.319 201.502 435.219 201.702 434.419 202.102C433.519 202.502 432.819 203.102 432.119 203.802C431.519 204.502 431.019 205.402 430.719 206.402C430.419 207.402 430.219 208.502 430.219 209.702C430.219 211.102 430.419 212.302 430.819 213.302C431.219 214.302 431.719 215.102 432.319 215.702C432.919 216.302 433.619 216.802 434.419 217.102C435.219 217.402 436.019 217.502 436.819 217.502C438.019 217.502 439.119 217.302 440.119 217.002C441.119 216.602 441.919 216.202 442.419 215.802V202.102H442.319Z" fill="white"/>
<path d="M468.319 199.601H476.719V201.801H468.319V213.001C468.319 214.201 468.419 215.201 468.619 215.901C468.819 216.601 469.119 217.201 469.519 217.601C469.919 218.001 470.319 218.301 470.919 218.401C471.419 218.501 472.019 218.601 472.719 218.601C473.819 218.601 474.719 218.501 475.419 218.201C476.119 217.901 476.619 217.701 477.019 217.501L477.719 219.701C477.319 219.901 476.719 220.201 475.719 220.501C474.819 220.801 473.719 221.001 472.619 221.001C471.319 221.001 470.219 220.801 469.319 220.501C468.419 220.201 467.719 219.601 467.219 219.001C466.719 218.301 466.319 217.401 466.119 216.401C465.919 215.401 465.819 214.101 465.819 212.701V193.401L468.419 192.901V199.601H468.319Z" fill="white"/>
<path d="M483.919 220.602V189.501L486.519 189.001V200.201C487.419 199.901 488.319 199.601 489.119 199.401C490.019 199.201 490.919 199.102 491.819 199.102C493.419 199.102 494.819 199.302 495.919 199.802C497.019 200.302 497.919 200.902 498.519 201.802C499.219 202.702 499.619 203.701 499.919 204.901C500.219 206.101 500.319 207.401 500.319 208.901V220.701H497.719V209.802C497.719 208.302 497.619 207.001 497.419 206.001C497.219 205.001 496.919 204.101 496.419 203.501C495.919 202.901 495.319 202.402 494.519 202.102C493.719 201.802 492.719 201.701 491.519 201.701C491.019 201.701 490.519 201.702 490.019 201.802C489.519 201.902 489.019 202.002 488.519 202.102C488.019 202.202 487.619 202.301 487.319 202.401C486.919 202.501 486.719 202.602 486.619 202.602V220.701H483.919V220.602Z" fill="white"/>
<path d="M508.119 210.102C508.119 208.302 508.419 206.602 508.919 205.302C509.419 203.902 510.119 202.802 511.019 201.902C511.919 201.002 512.819 200.302 513.919 199.802C515.019 199.402 516.119 199.102 517.319 199.102C519.919 199.102 521.919 199.902 523.519 201.602C525.019 203.302 525.819 205.902 525.819 209.402C525.819 209.602 525.819 209.802 525.819 210.102C525.819 210.302 525.819 210.502 525.719 210.702H510.919C511.019 213.302 511.619 215.302 512.819 216.602C514.019 218.002 515.919 218.702 518.519 218.702C519.919 218.702 521.119 218.602 521.919 218.302C522.719 218.002 523.419 217.802 523.719 217.602L524.219 219.902C523.819 220.102 523.119 220.402 522.119 220.702C521.119 221.002 519.819 221.102 518.419 221.102C516.619 221.102 515.019 220.802 513.719 220.302C512.419 219.802 511.319 219.002 510.519 218.002C509.719 217.002 509.019 215.902 508.719 214.502C508.319 213.202 508.119 211.702 508.119 210.102ZM523.019 208.402C522.919 206.202 522.419 204.502 521.519 203.302C520.519 202.102 519.119 201.502 517.319 201.502C516.419 201.502 515.519 201.702 514.819 202.102C514.119 202.502 513.419 203.002 512.819 203.602C512.219 204.202 511.819 205.002 511.519 205.802C511.219 206.602 511.019 207.502 510.919 208.402H523.019Z" fill="white"/>
<path d="M554.319 221.102C552.719 221.102 551.219 220.802 550.019 220.302C548.819 219.802 547.719 219.002 546.919 218.102C546.119 217.102 545.419 216.002 545.019 214.602C544.619 213.302 544.319 211.802 544.319 210.102C544.319 208.402 544.519 206.902 545.019 205.602C545.519 204.202 546.119 203.102 546.919 202.102C547.719 201.102 548.819 200.402 550.019 199.802C551.219 199.302 552.519 199.001 554.019 199.001C555.119 199.001 556.219 199.102 557.219 199.302C558.219 199.502 559.019 199.701 559.519 200.001L558.819 202.302C558.319 202.002 557.619 201.802 557.019 201.602C556.319 201.402 555.419 201.401 554.319 201.401C552.019 201.401 550.219 202.201 549.019 203.701C547.819 205.201 547.219 207.302 547.219 210.102C547.219 211.302 547.319 212.501 547.619 213.501C547.919 214.501 548.319 215.401 548.919 216.201C549.519 216.901 550.319 217.501 551.319 218.001C552.319 218.401 553.419 218.602 554.819 218.602C555.919 218.602 556.919 218.501 557.719 218.201C558.519 217.901 559.019 217.701 559.419 217.501L560.019 219.802C559.519 220.102 558.719 220.302 557.719 220.602C556.519 220.902 555.419 221.102 554.319 221.102Z" fill="white"/>
<path d="M566.619 220.602V189.501L569.219 189.001V200.201C570.119 199.901 571.019 199.601 571.819 199.401C572.719 199.201 573.619 199.102 574.519 199.102C576.119 199.102 577.519 199.302 578.619 199.802C579.719 200.302 580.619 200.902 581.219 201.802C581.919 202.702 582.319 203.701 582.619 204.901C582.919 206.101 583.019 207.401 583.019 208.901V220.701H580.419V209.802C580.419 208.302 580.319 207.001 580.119 206.001C579.919 205.001 579.619 204.101 579.119 203.501C578.619 202.901 578.019 202.402 577.219 202.102C576.419 201.802 575.419 201.701 574.219 201.701C573.719 201.701 573.219 201.702 572.719 201.802C572.219 201.902 571.719 202.002 571.219 202.102C570.719 202.202 570.319 202.301 570.019 202.401C569.619 202.501 569.419 202.602 569.319 202.602V220.701H566.619V220.602Z" fill="white"/>
<path d="M598.419 199.102C599.819 199.102 601.019 199.302 601.919 199.702C602.919 200.102 603.619 200.602 604.219 201.302C604.819 202.002 605.219 202.802 605.519 203.802C605.819 204.802 605.919 205.802 605.919 206.902V220.202C605.619 220.302 605.219 220.402 604.719 220.502C604.219 220.602 603.619 220.702 602.919 220.802C602.219 220.902 601.519 221.002 600.619 221.102C599.819 221.202 598.919 221.202 598.119 221.202C597.019 221.202 596.019 221.102 595.019 220.802C594.119 220.602 593.219 220.202 592.619 219.602C591.919 219.102 591.419 218.402 591.019 217.602C590.619 216.802 590.419 215.802 590.419 214.602C590.419 213.502 590.619 212.502 591.119 211.702C591.519 210.902 592.119 210.202 592.919 209.702C593.719 209.202 594.619 208.802 595.719 208.502C596.819 208.302 598.019 208.102 599.219 208.102C599.619 208.102 600.019 208.102 600.419 208.202C600.819 208.202 601.219 208.302 601.619 208.402C602.019 208.502 602.319 208.502 602.619 208.602C602.919 208.702 603.119 208.702 603.219 208.802V207.502C603.219 206.802 603.119 206.102 603.019 205.402C602.919 204.702 602.719 204.102 602.319 203.502C601.919 202.902 601.419 202.502 600.819 202.202C600.119 201.902 599.319 201.702 598.219 201.702C596.719 201.702 595.519 201.802 594.719 202.002C593.919 202.202 593.419 202.402 593.019 202.502L592.619 200.202C593.119 200.002 593.819 199.802 594.719 199.602C595.919 199.202 597.119 199.102 598.419 199.102ZM598.719 218.702C599.719 218.702 600.619 218.702 601.419 218.602C602.219 218.502 602.819 218.402 603.419 218.302V210.902C603.119 210.802 602.619 210.602 602.019 210.502C601.319 210.402 600.519 210.302 599.319 210.302C598.619 210.302 598.019 210.302 597.319 210.402C596.619 210.502 595.919 210.702 595.319 211.002C594.719 211.302 594.219 211.702 593.819 212.302C593.419 212.802 593.219 213.602 593.219 214.502C593.219 215.302 593.319 216.002 593.619 216.502C593.919 217.002 594.219 217.502 594.719 217.802C595.219 218.102 595.719 218.402 596.419 218.502C597.119 218.602 597.819 218.702 598.719 218.702Z" fill="white"/>
<path d="M618.319 193.202C618.319 193.802 618.119 194.302 617.719 194.702C617.319 195.102 616.919 195.302 616.319 195.302C615.819 195.302 615.319 195.102 614.919 194.702C614.519 194.302 614.319 193.802 614.319 193.202C614.319 192.602 614.519 192.102 614.919 191.702C615.319 191.302 615.719 191.202 616.319 191.202C616.819 191.202 617.319 191.402 617.719 191.702C618.119 192.102 618.319 192.602 618.319 193.202ZM617.719 220.602H615.019V199.502H617.619V220.602H617.719Z" fill="white"/>
<path d="M627.019 200.302C627.819 200.102 628.819 199.802 630.219 199.602C631.519 199.302 633.219 199.202 635.119 199.202C636.719 199.202 638.019 199.402 639.119 199.902C640.219 200.402 641.019 201.002 641.719 201.902C642.319 202.802 642.819 203.802 643.119 205.002C643.419 206.202 643.519 207.502 643.519 209.002V220.802H640.919V209.902C640.919 208.402 640.819 207.102 640.619 206.102C640.419 205.102 640.119 204.202 639.619 203.602C639.119 203.002 638.519 202.502 637.719 202.202C636.919 201.902 636.019 201.802 634.819 201.802C633.619 201.802 632.519 201.902 631.619 202.002C630.719 202.102 630.119 202.302 629.819 202.402V220.902H627.019V200.302Z" fill="white"/>
<defs>
<linearGradient id="paint0_linear_6178_23688" x1="23.5266" y1="157.203" x2="45.8251" y2="144.329" gradientUnits="userSpaceOnUse">
<stop stop-color="#008D2C"/>
<stop offset="1" stop-color="#004C9F"/>
</linearGradient>
<linearGradient id="paint1_linear_6178_23688" x1="24.1317" y1="116.959" x2="46.4296" y2="104.086" gradientUnits="userSpaceOnUse">
<stop stop-color="#008D2C"/>
<stop offset="1" stop-color="#004C9F"/>
</linearGradient>
<linearGradient id="paint2_linear_6178_23688" x1="44.0347" y1="68.4656" x2="66.3373" y2="81.342" gradientUnits="userSpaceOnUse">
<stop stop-color="#008D2C"/>
<stop offset="1" stop-color="#004C9F"/>
</linearGradient>
<linearGradient id="paint3_linear_6178_23688" x1="74.9009" y1="43.5561" x2="97.2035" y2="56.4326" gradientUnits="userSpaceOnUse">
<stop stop-color="#008D2C"/>
<stop offset="1" stop-color="#004C9F"/>
</linearGradient>
<linearGradient id="paint4_linear_6178_23688" x1="111.182" y1="28.3936" x2="133.485" y2="41.2701" gradientUnits="userSpaceOnUse">
<stop stop-color="#008D2C"/>
<stop offset="1" stop-color="#004C9F"/>
</linearGradient>
<linearGradient id="paint5_linear_6178_23688" x1="150.913" y1="27.6371" x2="173.216" y2="40.5135" gradientUnits="userSpaceOnUse">
<stop stop-color="#008D2C"/>
<stop offset="1" stop-color="#004C9F"/>
</linearGradient>
<linearGradient id="paint6_linear_6178_23688" x1="7.1967" y1="146.645" x2="61.9031" y2="115.06" gradientUnits="userSpaceOnUse">
<stop stop-color="#008D2C"/>
<stop offset="1" stop-color="#004C9F"/>
</linearGradient>
<linearGradient id="paint7_linear_6178_23688" x1="15.0664" y1="75.2166" x2="74.6918" y2="109.641" gradientUnits="userSpaceOnUse">
<stop stop-color="#008D2C"/>
<stop offset="1" stop-color="#004C9F"/>
</linearGradient>
<linearGradient id="paint8_linear_6178_23688" x1="42.3325" y1="46.1554" x2="99.3982" y2="79.1023" gradientUnits="userSpaceOnUse">
<stop stop-color="#008D2C"/>
<stop offset="1" stop-color="#004C9F"/>
</linearGradient>
<linearGradient id="paint9_linear_6178_23688" x1="78.5106" y1="27.5908" x2="130.382" y2="57.5387" gradientUnits="userSpaceOnUse">
<stop stop-color="#008D2C"/>
<stop offset="1" stop-color="#004C9F"/>
</linearGradient>
<linearGradient id="paint10_linear_6178_23688" x1="121.117" y1="22.0434" x2="163.438" y2="46.4775" gradientUnits="userSpaceOnUse">
<stop stop-color="#008D2C"/>
<stop offset="1" stop-color="#004C9F"/>
</linearGradient>
<linearGradient id="paint11_linear_6178_23688" x1="43.6059" y1="192.575" x2="65.9086" y2="179.699" gradientUnits="userSpaceOnUse">
<stop stop-color="#008D2C"/>
<stop offset="1" stop-color="#004C9F"/>
</linearGradient>
<linearGradient id="paint12_linear_6178_23688" x1="74.4202" y1="217.549" x2="96.723" y2="204.673" gradientUnits="userSpaceOnUse">
<stop stop-color="#008D2C"/>
<stop offset="1" stop-color="#004C9F"/>
</linearGradient>
<linearGradient id="paint13_linear_6178_23688" x1="111.243" y1="231.628" x2="133.546" y2="218.752" gradientUnits="userSpaceOnUse">
<stop stop-color="#008D2C"/>
<stop offset="1" stop-color="#004C9F"/>
</linearGradient>
<linearGradient id="paint14_linear_6178_23688" x1="151.258" y1="230.777" x2="173.56" y2="217.9" gradientUnits="userSpaceOnUse">
<stop stop-color="#008D2C"/>
<stop offset="1" stop-color="#004C9F"/>
</linearGradient>
<linearGradient id="paint15_linear_6178_23688" x1="14.6763" y1="185.802" x2="74.2981" y2="151.379" gradientUnits="userSpaceOnUse">
<stop stop-color="#008D2C"/>
<stop offset="1" stop-color="#004C9F"/>
</linearGradient>
<linearGradient id="paint16_linear_6178_23688" x1="41.8639" y1="214.926" x2="98.9583" y2="181.962" gradientUnits="userSpaceOnUse">
<stop stop-color="#008D2C"/>
<stop offset="1" stop-color="#004C9F"/>
</linearGradient>
<linearGradient id="paint17_linear_6178_23688" x1="77.9906" y1="233.566" x2="129.91" y2="203.59" gradientUnits="userSpaceOnUse">
<stop stop-color="#008D2C"/>
<stop offset="1" stop-color="#004C9F"/>
</linearGradient>
<linearGradient id="paint18_linear_6178_23688" x1="122.499" y1="235.793" x2="162.583" y2="212.65" gradientUnits="userSpaceOnUse">
<stop stop-color="#008D2C"/>
<stop offset="1" stop-color="#004C9F"/>
</linearGradient>
<linearGradient id="paint19_linear_6178_23688" x1="275.255" y1="107.604" x2="441.198" y2="107.604" gradientUnits="userSpaceOnUse">
<stop stop-color="#008D2C"/>
<stop offset="1" stop-color="#004C9F"/>
</linearGradient>
</defs>
</svg>
