<?xml version="1.0" encoding="iso-8859-1"?>
<!-- Generator: Adobe Illustrator 19.0.0, SVG Export Plug-In . SVG Version: 6.00 Build 0)  -->
<svg version="1.1" id="Capa_1" xmlns="http://www.w3.org/2000/svg" xmlns:xlink="http://www.w3.org/1999/xlink" x="0px" y="0px"
	 viewBox="0 0 512 512" style="enable-background:new 0 0 512 512;" xml:space="preserve">
<polygon style="fill:#A8EEFC;" points="504.522,504.466 7.478,504.466 81.283,325.801 430.717,325.801 "/>
<polygon style="fill:#7EE5F2;" points="430.717,325.801 403.797,325.801 477.602,504.466 504.522,504.466 "/>
<polygon style="fill:#FFDB56;" points="471.917,425.535 455.509,385.817 261.217,385.817 192.59,325.801 164.783,325.801 
	148.388,325.801 123.596,385.817 56.491,385.817 40.083,425.535 107.188,425.535 74.583,504.466 118.786,504.466 173.759,371.389 
	330.199,504.466 396.889,504.466 306.634,425.535 "/>
<polygon style="fill:#FFBB24;" points="444.996,425.536 471.917,425.536 455.509,385.817 428.589,385.817 "/>
<g>
	<polygon style="fill:#4CE166;" points="123.596,385.817 56.491,385.817 81.283,325.801 148.388,325.801 	"/>
	<polygon style="fill:#4CE166;" points="455.509,385.817 261.217,385.817 192.59,325.801 430.717,325.801 	"/>
</g>
<polygon style="fill:#44C868;" points="455.509,385.817 430.717,325.801 403.797,325.801 428.589,385.817 "/>
<polygon style="fill:#4CE166;" points="173.759,371.389 118.786,504.466 330.199,504.466 "/>
<path style="fill:#FF4A4A;" d="M256,7.534c-85.074,0-154.039,69.485-154.039,155.198C101.961,293.257,256,413.353,256,413.353
	s154.039-120.096,154.039-250.622C410.039,77.018,341.073,7.534,256,7.534z M256,224.632c-33.931,0-61.438-27.714-61.438-61.9
	c0-34.187,27.507-61.9,61.438-61.9s61.438,27.714,61.438,61.9S289.931,224.632,256,224.632z"/>
<path style="fill:#E7343F;" d="M256,7.534c-4.536,0-9.023,0.209-13.46,0.596c78.769,6.872,140.579,73.458,140.579,154.601
	c0,106.776-103.066,206.555-140.579,239.337c8.344,7.292,13.46,11.284,13.46,11.284S410.039,293.256,410.039,162.73
	C410.039,77.018,341.073,7.534,256,7.534z"/>
<path d="M256,232.166c38,0,68.915-31.148,68.915-69.435c0-38.286-30.915-69.434-68.915-69.434c-14.021,0-27.516,4.218-39.025,12.198
	c-3.402,2.359-4.262,7.05-1.921,10.478c2.342,3.428,6.998,4.294,10.4,1.936c9.004-6.243,19.566-9.543,30.546-9.543
	c29.754,0,53.96,24.388,53.96,54.365s-24.206,54.366-53.96,54.366s-53.96-24.389-53.96-54.366c0-8.843,2.038-17.273,6.057-25.055
	c1.906-3.692,0.482-8.241-3.182-10.161c-3.665-1.919-8.178-0.486-10.085,3.206c-5.067,9.812-7.746,20.881-7.746,32.01
	C187.085,201.018,218,232.166,256,232.166z"/>
<path d="M511.426,501.571l-73.804-178.665l0,0l0,0l0,0c-1.16-2.809-3.883-4.639-6.903-4.639h-73.547
	c14.305-19.498,26.212-38.919,35.511-57.988c16.48-33.794,24.835-66.613,24.835-97.547C417.517,73.001,345.061,0,256,0
	S94.483,73.001,94.483,162.731c0,30.934,8.355,63.754,24.835,97.547c9.298,19.069,21.205,38.491,35.511,57.988l0,0H81.282
	c-3.02,0-5.744,1.831-6.903,4.639L24.087,444.651c-1.587,3.842,0.217,8.252,4.03,9.85c0.94,0.394,1.912,0.581,2.87,0.581
	c2.93,0,5.711-1.746,6.906-4.641l7.176-17.372h50.906l-26.38,63.862H18.69l7.647-18.513c1.587-3.842-0.217-8.252-4.03-9.85
	c-3.815-1.601-8.191,0.219-9.777,4.06L0.575,501.571c-0.961,2.325-0.705,4.981,0.683,7.075c1.386,2.095,3.72,3.354,6.22,3.354l0,0
	h497.044l0,0l0,0l0,0c2.499,0,4.834-1.259,6.221-3.354C512.13,506.552,512.386,503.896,511.426,501.571z M109.439,162.731
	c0-81.422,65.747-147.663,146.561-147.663S402.561,81.31,402.561,162.731c0,34.143-11.775,88.703-66.245,158.231
	c-0.055,0.065-0.104,0.134-0.156,0.201c-2.782,3.547-5.672,7.132-8.681,10.757c-29.932,36.062-60.222,62.395-71.48,71.751
	c-11.225-9.324-41.372-35.525-71.283-71.518c-3.084-3.711-6.042-7.38-8.889-11.01c-0.046-0.058-0.089-0.118-0.137-0.175
	C121.222,251.445,109.439,196.887,109.439,162.731z M86.269,333.335h50.907l-18.568,44.948H67.702L86.269,333.335z M129.997,496.932
	l46.741-113.148l133.014,113.148H129.997z M332.935,496.932l-154.352-131.3c-1.822-1.551-4.27-2.132-6.584-1.566
	c-2.316,0.565-4.228,2.21-5.143,4.427l-53.057,128.438H85.795l28.296-68.502c0.961-2.325,0.705-4.98-0.683-7.075
	c-1.386-2.095-3.721-3.354-6.221-3.354H51.296l10.182-24.65h62.118c3.02,0,5.744-1.831,6.903-4.639l22.876-55.377h12.978
	c2.253,2.83,4.543,5.661,6.894,8.491c38.585,46.43,76.578,76.239,78.177,77.486c1.348,1.051,2.962,1.575,4.576,1.575
	s3.229-0.525,4.576-1.575c0.879-0.685,12.757-10.009,29.673-25.96h84.681c4.13,0,7.478-3.373,7.478-7.534s-3.348-7.534-7.478-7.534
	h-69.269c10.368-10.503,21.7-22.749,33.093-36.457c2.351-2.83,4.642-5.66,6.894-8.491h80.083l18.567,44.948h-39.457
	c-4.13,0-7.478,3.373-7.478,7.534s3.347,7.534,7.478,7.534h45.681l0,0l10.182,24.65h-154.07c-3.121,0-5.913,1.952-7.006,4.898
	c-1.091,2.946-0.253,6.265,2.104,8.326l75.133,65.707L332.935,496.932L332.935,496.932z M399.681,496.932l-73.024-63.862H466.93
	l26.381,63.862H399.681z"/>
<g>
</g>
<g>
</g>
<g>
</g>
<g>
</g>
<g>
</g>
<g>
</g>
<g>
</g>
<g>
</g>
<g>
</g>
<g>
</g>
<g>
</g>
<g>
</g>
<g>
</g>
<g>
</g>
<g>
</g>
</svg>
