<?xml version="1.0" encoding="iso-8859-1"?>
<!-- Generator: Adobe Illustrator 19.0.0, SVG Export Plug-In . SVG Version: 6.00 Build 0)  -->
<svg version="1.1" id="Capa_1" xmlns="http://www.w3.org/2000/svg" xmlns:xlink="http://www.w3.org/1999/xlink" x="0px" y="0px"
	 viewBox="0 0 512 512" style="enable-background:new 0 0 512 512;" xml:space="preserve">
<circle style="fill:#0094CE;" cx="256" cy="256" r="201.353"/>
<circle style="fill:#1EA4E9;" cx="256" cy="256" r="178.676"/>
<circle style="fill:#A8EEFC;" cx="256" cy="256" r="154.208"/>
<circle style="fill:#FF4A4A;" cx="256" cy="256" r="100.781"/>
<path style="fill:#E7343F;" d="M256.002,329.769c-51.078,0-93.274-38.002-99.873-87.272c-0.592,4.418-0.903,8.925-0.903,13.504
	c0,55.657,45.119,100.776,100.777,100.776S356.779,311.657,356.779,256c0-4.579-0.311-9.086-0.903-13.504
	C349.276,291.767,307.08,329.769,256.002,329.769z"/>
<path d="M324.54,339.831c3.207-2.624,3.679-7.351,1.054-10.557c-2.625-3.207-7.352-3.678-10.557-1.054
	c-16.59,13.577-37.556,21.056-59.035,21.056c-51.432,0-93.274-41.843-93.274-93.275c0-51.431,41.842-93.274,93.274-93.274
	s93.274,41.843,93.274,93.274c0,18.693-5.507,36.724-15.925,52.146c-2.319,3.434-1.416,8.098,2.018,10.416
	c3.433,2.319,8.097,1.416,10.416-2.018c12.101-17.912,18.496-38.848,18.496-60.545c0-59.706-48.574-108.279-108.279-108.279
	c-59.706,0-108.279,48.574-108.279,108.279c0,59.706,48.574,108.28,108.279,108.28C280.937,364.28,305.277,355.597,324.54,339.831z"
	/>
<path d="M504.498,248.497l-39.788,0.001C460.832,139.289,372.713,51.17,263.502,47.294l-0.001-39.791
	c0-4.144-3.359-7.502-7.502-7.502c-4.144,0-7.502,3.359-7.502,7.502l0.001,39.791C139.289,51.172,51.172,139.29,47.295,248.498
	l-39.792-0.001c-4.143,0-7.502,3.358-7.502,7.502c0,4.143,3.358,7.502,7.502,7.502l39.795,0.001
	c2.028,56.032,26.667,109.311,68.335,147.152c3.066,2.786,7.813,2.559,10.597-0.51c2.786-3.067,2.558-7.812-0.51-10.597
	c-38.543-35.003-61.387-84.235-63.408-136.045l32.155,0.001c3.82,83.211,70.819,150.21,154.031,154.03l-0.001,32.173
	c-36.158-1.377-70.89-12.7-100.876-32.957c-3.434-2.318-8.097-1.417-10.416,2.018c-2.319,3.433-1.416,8.097,2.018,10.416
	c32.475,21.94,70.11,34.154,109.274,35.538l-0.001,39.776c0,4.143,3.358,7.502,7.502,7.502c4.143,0,7.502-3.358,7.502-7.502
	l0.001-39.79c109.21-3.876,197.33-91.995,201.207-201.205l39.788-0.001c4.144,0,7.502-3.359,7.502-7.502
	C512,251.855,508.64,248.497,504.498,248.497z M449.695,248.499l-32.159,0.001c-3.818-83.213-70.818-150.214-154.031-154.033
	l-0.001-32.158C364.438,66.17,445.832,147.563,449.695,248.499z M109.293,256c0-34.651,12.305-68.279,34.648-94.692
	c2.676-3.163,2.28-7.897-0.883-10.573c-3.165-2.676-7.899-2.281-10.572,0.883C109.47,178.826,96.12,212.977,94.467,248.5
	l-32.157-0.001c3.861-100.935,85.255-182.327,186.189-186.19l0.001,32.151c-34.276,1.536-66.42,13.603-93.373,35.14
	c-3.237,2.587-3.765,7.308-1.178,10.544c2.587,3.235,7.308,3.766,10.544,1.178c26.225-20.955,57.868-32.031,91.509-32.031
	c80.895,0,146.709,65.814,146.709,146.709s-65.814,146.709-146.709,146.709C175.107,402.709,109.293,336.895,109.293,256z
	 M263.503,449.693l0.001-32.159c83.212-3.819,150.211-70.818,154.031-154.03l32.159-0.001
	C445.832,364.438,364.438,445.831,263.503,449.693z"/>
<g>
</g>
<g>
</g>
<g>
</g>
<g>
</g>
<g>
</g>
<g>
</g>
<g>
</g>
<g>
</g>
<g>
</g>
<g>
</g>
<g>
</g>
<g>
</g>
<g>
</g>
<g>
</g>
<g>
</g>
</svg>
