<?xml version="1.0" encoding="iso-8859-1"?>
<!-- Generator: Adobe Illustrator 19.0.0, SVG Export Plug-In . SVG Version: 6.00 Build 0)  -->
<svg version="1.1" id="Capa_1" xmlns="http://www.w3.org/2000/svg" xmlns:xlink="http://www.w3.org/1999/xlink" x="0px" y="0px"
	 viewBox="0 0 512 512" style="enable-background:new 0 0 512 512;" xml:space="preserve">
<path style="fill:#FF4A4A;" d="M492.922,492.838L492.922,492.838c15.21-15.21,15.379-39.701,0.377-54.703l-95.658-95.658
	l-55.08,55.08l95.658,95.658C453.221,508.218,477.712,508.049,492.922,492.838z"/>
<path style="fill:#E7343F;" d="M364.424,375.694l95.658,95.658c11.17,11.17,27.599,13.923,41.543,8.325
	c-1.92,4.783-4.818,9.275-8.702,13.161l0,0c-15.21,15.209-39.701,15.379-54.703,0.377l-95.658-95.658L364.424,375.694z"/>
<ellipse transform="matrix(0.7071 0.7071 -0.7071 0.7071 200.0517 -82.882)" style="fill:#546F7A;" cx="200.073" cy="200.043" rx="191.157" ry="193.815"/>
<path style="fill:#475D63;" d="M335.246,307.923c-75.69,75.69-197.567,76.531-272.221,1.878
	c-33.537-33.537-51.828-76.605-54.952-120.733c-3.758,53.3,14.517,107.588,54.951,148.023
	c74.653,74.653,196.53,73.812,272.221-1.878c41.687-41.687,60.66-97.385,56.83-151.487
	C388.896,228.831,369.94,273.229,335.246,307.923z"/>
<path style="fill:#546F7A;" d="M335.246,335.162c6.198-6.199,11.884-12.712,17.078-19.479l36.055,36.054l-36.557,36.557
	l-36.054-36.054C322.534,347.047,329.048,341.361,335.246,335.162z"/>
<path style="fill:#475D63;" d="M334.445,335.938l34.867,34.867l-17.491,17.491l-36.054-36.054
	C322.246,347.269,328.486,341.831,334.445,335.938z"/>
<circle style="fill:#A8EEFC;" cx="198.658" cy="198.627" r="147.232"/>
<path style="fill:#7EE5F2;" d="M198.661,318.565c-76.71,0-139.707-58.67-146.594-133.583c-0.413,4.494-0.635,9.043-0.635,13.645
	c0,81.312,65.916,147.228,147.228,147.228s147.228-65.916,147.228-147.228c0-4.602-0.222-9.151-0.635-13.645
	C338.367,259.896,275.371,318.565,198.661,318.565z"/>
<g>
	<path style="fill:#4CE166;" d="M198.661,51.399c22.106,0,43.069,4.881,61.884,13.609c-0.778,0.066-49.093,4.191-49.704,14.587
		c-0.617,10.479,57.946,24.658,49.723,43.151c-6.843,15.389-49.407-20.447-61.586-13.614c-12.178,6.834,21.726,19.508,4.465,42.143
		s-35.744,32.034-39.756,56.923c-4.012,24.89-28.355,34.137-39.765,16.876c-6.748-10.207-1.233-57.946-22.191-78.904
		c-9.764-9.764-16.976-22.076-22.237-34.003C106.254,75.345,149.658,51.399,198.661,51.399z"/>
	<path style="fill:#4CE166;" d="M91.99,300.101c3.306-5.372,7.686-10.28,13.438-13.209c18.493-9.419,32.055-24.921,45.617-14.704
		c13.562,10.216-4.526,29.326,10.066,39.19c10.611,7.172,22.281,21.183,16.969,33.039
		C144.387,339.703,114.346,323.596,91.99,300.101z"/>
</g>
<path style="fill:#44C868;" d="M165.676,314.853c-21.958-5.026-42.039-14.967-59.036-28.595c-0.402,0.213-0.805,0.427-1.211,0.634
	c-5.752,2.93-10.133,7.838-13.438,13.21c22.356,23.494,52.397,39.601,86.09,44.314C182.632,334.257,174.712,322.518,165.676,314.853
	z"/>
<path style="fill:#4CE166;" d="M251.384,227.642c13.439,6.517,30.141-14.177,55.248-18.731
	c24.748-4.489,36.878,13.663,37.221,14.185c-8.366,50.005-41.929,91.468-87.199,110.889c-16.367-0.632-28.411-23.272-16.834-41.186
	c11.58-17.918-24.273-23.145-25.765-47.035C212.561,221.872,237.946,221.125,251.384,227.642z"/>
<path style="fill:#44C868;" d="M338.562,217.296c-15.51,47.24-54.27,83.934-102.752,96.538c2.236,10.924,10.708,19.76,20.844,20.151
	c45.269-19.421,78.833-60.884,87.199-110.889C343.725,222.903,341.974,220.284,338.562,217.296z"/>
<path d="M498.66,432.774l-11.503-11.503c-2.96-2.959-7.76-2.96-10.72,0.001c-2.96,2.96-2.96,7.76,0,10.721l11.503,11.502
	c12.022,12.023,11.853,31.754-0.377,43.984c-5.939,5.939-13.795,9.241-22.122,9.299c-0.074,0-0.147,0-0.22,0
	c-8.204,0-15.883-3.164-21.641-8.922l-90.298-90.298l0,0c0.003-0.003-0.003,0.003,0,0l44.361-44.361c0.003-0.003-0.003,0.003,0,0
	l0,0l57.204,57.205c2.96,2.959,7.76,2.959,10.72,0c2.96-2.961,2.96-7.76,0-10.721l-62.564-62.564c-1.421-1.421-3.35-2.22-5.36-2.22
	s-3.939,0.798-5.36,2.22l-3.902,3.901l-26.06-26.06c56.145-78.457,49.698-187.792-19.835-257.328
	c-77.49-77.489-204.417-76.647-282.941,1.878C21.518,97.535,0.374,147.896,0.005,201.316
	c-0.369,53.461,20.108,103.583,57.66,141.135c37.219,37.219,86.787,57.665,139.715,57.665c0.473,0,0.946-0.002,1.419-0.005
	c42.192-0.291,82.469-13.552,116.274-37.843l26.028,26.028l-3.9,3.901c-2.96,2.961-2.96,7.76,0,10.722l95.658,95.657
	c8.625,8.626,20.103,13.364,32.357,13.363c0.108,0,0.219,0,0.328-0.001c12.337-0.085,23.963-4.964,32.737-13.738
	C516.424,480.058,516.593,450.708,498.66,432.774z M198.694,384.95c-0.44,0.004-0.871,0.005-1.311,0.005
	c-48.876-0.002-94.647-18.873-128.998-53.225c-34.66-34.659-53.56-80.937-53.22-130.309c0.341-49.411,19.908-96.002,55.098-131.191
	c36.653-36.653,84.681-55.017,132.479-55.017c46.897,0,93.574,17.69,129.022,53.138c65.609,65.609,70.361,169.633,14.779,242.449
	c-0.077,0.09-0.158,0.175-0.23,0.269c-5.056,6.587-10.583,12.89-16.425,18.733c-5.84,5.84-12.143,11.367-18.735,16.427
	c-0.219,0.169-0.428,0.348-0.625,0.537C278.396,371.255,239.51,384.669,198.694,384.95z M327.139,352.892
	c4.637-3.887,9.136-7.988,13.467-12.319c4.363-4.363,8.474-8.884,12.357-13.531l24.695,24.696l-25.837,25.837L327.139,352.892z"/>
<path d="M320.033,294.719c8.514-10.742,15.527-22.572,20.902-35.093c0.196-0.456,0.392-0.914,0.584-1.372
	c0.319-0.765,0.635-1.532,0.943-2.303c0.269-0.671,0.529-1.346,0.787-2.021c0.244-0.636,0.491-1.268,0.727-1.907
	c0.476-1.291,0.936-2.589,1.379-3.896c0.133-0.394,0.256-0.791,0.386-1.187c0.336-1.018,0.663-2.039,0.977-3.066
	c0.153-0.498,0.299-0.998,0.447-1.498c0.284-0.963,0.559-1.93,0.825-2.901c0.13-0.475,0.262-0.95,0.387-1.427
	c0.309-1.175,0.604-2.356,0.887-3.543c0.06-0.251,0.125-0.499,0.184-0.751c0.34-1.457,0.656-2.925,0.954-4.398
	c0.061-0.298,0.114-0.597,0.172-0.897c0.237-1.204,0.459-2.413,0.666-3.626c0.028-0.164,0.063-0.325,0.09-0.488
	c0.01-0.062,0.013-0.123,0.022-0.185c1.385-8.31,2.117-16.839,2.117-25.536c0-61.945-36.577-115.5-89.263-140.226
	c-0.159-0.088-0.305-0.191-0.471-0.269c-15.677-7.272-32.189-11.79-49.258-13.512c-0.017-0.002-0.035-0.003-0.053-0.005
	c-1.257-0.126-2.517-0.241-3.779-0.337c-0.227-0.017-0.457-0.029-0.685-0.045c-1.073-0.077-2.148-0.151-3.226-0.205
	c-0.538-0.027-1.079-0.042-1.618-0.065c-0.79-0.032-1.58-0.07-2.372-0.09c-1.356-0.035-2.718-0.055-4.082-0.055
	c-1.386,0-2.769,0.025-4.152,0.063c-0.378,0.01-0.756,0.024-1.134,0.037c-1.118,0.038-2.235,0.089-3.35,0.152
	c-0.284,0.016-0.569,0.029-0.853,0.046c-1.429,0.088-2.857,0.195-4.281,0.322c-0.053,0.005-0.105,0.011-0.158,0.016
	c-1.404,0.127-2.804,0.278-4.202,0.443c-0.154,0.018-0.307,0.036-0.462,0.056c-29.221,3.549-57.06,15.383-79.884,34.219
	c-6.484,5.352-12.489,11.209-17.979,17.485c-0.117,0.133-0.235,0.267-0.352,0.4c-0.896,1.031-1.781,2.069-2.648,3.122
	c-0.343,0.414-0.675,0.838-1.014,1.256c-0.45,0.557-0.898,1.115-1.339,1.678c-0.492,0.626-0.978,1.256-1.462,1.891
	c-0.216,0.284-0.429,0.57-0.642,0.856c-0.463,0.618-0.935,1.227-1.39,1.853c-0.04,0.057-0.071,0.118-0.11,0.175
	c-12.814,17.705-21.849,38.024-26.254,59.549c-0.84,4.103,1.805,8.107,5.907,8.947c4.098,0.839,8.107-1.804,8.946-5.907
	c3.119-15.243,8.821-29.813,16.721-43.103c5.248,9.467,11.204,17.566,17.798,24.159c11.607,11.606,13.987,35.021,15.726,52.116
	c1.206,11.858,2.077,20.427,5.502,25.608c5.228,7.909,13.044,12.259,21.604,12.259c1.827,0,3.689-0.198,5.566-0.603
	c13.419-2.89,23.783-15.258,26.402-31.506c2.343-14.537,10.257-22.773,21.208-34.172c5.284-5.497,11.272-11.729,17.091-19.361
	c13.51-17.717,3.065-31.763-2.649-39.358c5.207,1.567,13.063,5.34,17.89,7.658c13.858,6.657,25.825,12.408,34.942,9.054
	c3.556-1.307,6.264-3.866,7.836-7.401c2.562-5.762,3.044-14.662-9.21-24.329c-6.586-5.197-15.699-9.836-23.738-13.931
	c-4.239-2.16-10.01-5.098-13.59-7.403c6.886-2.844,22.444-5.93,38.158-7.411c46.817,22.575,79.198,70.514,79.198,125.875
	c0,2.976-0.105,5.926-0.289,8.856c-7.45-4.765-18.335-8.645-32.74-6.029c-3.653,0.662-7.259,1.636-11.024,2.977
	c-3.944,1.404-6.003,5.74-4.599,9.684c1.404,3.943,5.742,6.001,9.684,4.599c2.983-1.061,5.812-1.828,8.646-2.342
	c15.065-2.738,24.204,4.844,27.791,8.748c-0.045,0.234-0.089,0.471-0.135,0.705c-0.157,0.792-0.323,1.582-0.493,2.371
	c-0.108,0.499-0.213,0.999-0.326,1.496c-0.191,0.838-0.395,1.674-0.602,2.508c-0.104,0.418-0.2,0.841-0.308,1.258
	c-0.302,1.175-0.623,2.346-0.956,3.512c-0.157,0.55-0.325,1.095-0.489,1.641c-0.198,0.662-0.396,1.324-0.604,1.983
	c-0.196,0.621-0.399,1.238-0.603,1.855c-0.187,0.564-0.376,1.126-0.57,1.687c-0.231,0.671-0.467,1.341-0.709,2.007
	c-0.164,0.452-0.334,0.902-0.502,1.351c-0.286,0.763-0.571,1.526-0.869,2.282c-0.005,0.012-0.009,0.023-0.014,0.035
	c-13.454,34.032-39.913,61.551-73.212,76.412c-4.034-0.776-7.852-3.898-10.231-8.473c-3.47-6.676-3.083-14.466,1.036-20.838
	c9.703-15.014-2.536-25.344-10.634-32.179c-6.904-5.828-13.425-11.331-13.933-19.442c-0.499-7.985,3.036-10.356,4.199-11.136
	c5.603-3.759,15.918-2.766,22.258,0.308c8.699,4.219,17.307,1.135,24.58-2.438c3.758-1.846,5.307-6.389,3.461-10.146
	c-1.847-3.759-6.388-5.305-10.147-3.462c-7.108,3.492-9.692,3.175-11.279,2.405c-14.441-7.005-29.469-4.525-37.319,0.742
	c-7.691,5.159-11.556,13.92-10.883,24.672c0.911,14.575,11.531,23.538,19.285,30.083c10.14,8.558,9.52,9.517,7.68,12.364
	c-7.113,11.007-7.769,24.486-1.756,36.059c1.574,3.028,3.545,5.725,5.8,8.032c-12.335,3.577-25.364,5.5-38.837,5.5
	c-3.942,0-7.844-0.173-11.704-0.495c-0.248-12.514-10.276-25.029-21.6-32.683c-3.067-2.073-3.205-4.526-2.106-12.493
	c1.03-7.472,2.586-18.763-7.643-26.47c-14.188-10.69-28.19-1.707-40.542,6.218c-4.189,2.688-8.52,5.466-13.075,7.786
	c-3.787,1.928-7.265,4.621-10.419,8.01c-20.311-24.256-32.557-55.484-32.557-89.521c0-4.187-3.394-7.58-7.58-7.58
	s-7.58,3.393-7.58,7.58c0,40.939,15.981,78.211,42.022,105.924c0.194,0.267,0.392,0.533,0.625,0.777
	c12.04,12.652,26.122,23.118,41.502,31.018c0.62,0.319,1.245,0.627,1.87,0.938c0.358,0.177,0.714,0.359,1.072,0.534
	c0.792,0.387,1.591,0.764,2.39,1.138c0.18,0.084,0.36,0.169,0.54,0.253c0.887,0.41,1.779,0.812,2.674,1.206
	c0.064,0.028,0.128,0.057,0.192,0.084c5.849,2.563,11.885,4.774,18.083,6.607c0.02,0.006,0.04,0.012,0.061,0.018
	c0.971,0.287,1.947,0.564,2.925,0.832c0.132,0.036,0.264,0.072,0.396,0.107c0.929,0.252,1.861,0.497,2.798,0.733
	c0.149,0.037,0.298,0.073,0.447,0.109c2.756,0.682,5.542,1.291,8.355,1.823c0.309,0.059,0.618,0.121,0.928,0.178
	c0.721,0.131,1.444,0.253,2.168,0.375c0.439,0.074,0.876,0.149,1.315,0.218c0.735,0.117,1.471,0.226,2.208,0.334
	c0.202,0.029,0.403,0.064,0.604,0.091c0.03,0.004,0.06,0.002,0.09,0.006c7.043,0.984,14.232,1.506,21.542,1.506
	c21.397,0,41.792-4.365,60.346-12.249c0.214-0.07,0.428-0.146,0.636-0.236C283.179,330.854,304.061,314.867,320.033,294.719z
	 M203.272,79.15c-0.543,9.228,9.915,14.553,24.389,21.925c7.414,3.775,15.817,8.055,21.227,12.323
	c0.84,0.663,4.668,3.782,4.831,5.695c-4.237,0.136-15.967-5.474-22.444-8.586c-14.525-6.977-27.07-13.004-36.008-7.986
	c-4.357,2.445-5.853,5.726-6.341,8.047c-1.213,5.766,2.302,10.439,5.703,14.958c6,7.976,9.087,12.89,2.786,21.153
	c-5.295,6.945-10.721,12.591-15.967,18.051c-11.39,11.854-22.148,23.05-25.244,42.262c-1.84,11.412-8.672,17.815-14.627,19.099
	c-4.523,0.967-8.441-0.823-11.329-5.194c-1.377-2.153-2.354-11.765-3.068-18.783c-1.969-19.361-4.664-45.88-20.089-61.304
	c-7.102-7.101-13.42-16.401-18.817-27.686c0.18-0.232,0.358-0.466,0.54-0.697c0.442-0.561,0.887-1.117,1.336-1.671
	c0.251-0.309,0.497-0.623,0.751-0.93c0.79-0.957,1.593-1.903,2.407-2.836c0.064-0.074,0.128-0.146,0.192-0.218
	c22.819-26.056,54.663-42.787,88.942-46.834c0.103-0.012,0.206-0.025,0.309-0.037c2.496-0.289,5.006-0.508,7.526-0.661
	c0.303-0.018,0.607-0.033,0.911-0.05c0.934-0.051,1.869-0.091,2.805-0.122c0.342-0.011,0.684-0.024,1.026-0.033
	c1.213-0.032,2.428-0.054,3.645-0.054c1.224,0,2.444,0.017,3.663,0.049c0.792,0.02,1.581,0.057,2.37,0.09
	c0.404,0.017,0.81,0.027,1.214,0.049c1.087,0.056,2.169,0.126,3.248,0.206c0.087,0.006,0.174,0.011,0.261,0.017
	c6.465,0.494,12.805,1.441,18.996,2.791C215.538,65.081,203.832,69.639,203.272,79.15z M108.868,293.647
	c5.226-2.662,10.09-5.782,14.382-8.535c12.68-8.136,17.969-10.837,23.234-6.87c2.708,2.041,2.808,4.588,1.747,12.29
	c-1.069,7.755-2.684,19.474,8.636,27.125c8.475,5.729,13.305,12.565,14.559,17.942c-0.07-0.013-0.139-0.026-0.209-0.04
	c-1.534-0.307-3.063-0.638-4.584-0.997c-0.076-0.018-0.151-0.037-0.226-0.056c-1.481-0.352-2.954-0.73-4.421-1.13
	c-0.129-0.035-0.259-0.07-0.388-0.105c-3.121-0.862-6.211-1.83-9.261-2.906c-0.032-0.011-0.065-0.023-0.097-0.034
	c-3.065-1.083-6.089-2.275-9.069-3.569c-0.086-0.037-0.171-0.075-0.257-0.112c-1.456-0.636-2.904-1.295-4.339-1.98
	c-0.012-0.005-0.023-0.011-0.035-0.016c-1.353-0.647-2.694-1.322-4.026-2.012c-0.37-0.192-0.738-0.389-1.106-0.584
	c-0.874-0.463-1.741-0.938-2.607-1.419c-0.515-0.288-1.034-0.57-1.544-0.864c-0.835-0.478-1.661-0.974-2.486-1.47
	c-1.055-0.636-2.102-1.284-3.139-1.947c-0.11-0.07-0.219-0.141-0.329-0.21c-7.665-4.932-14.816-10.596-21.36-16.887
	C104.085,296.784,106.403,294.903,108.868,293.647z"/>
<g>
</g>
<g>
</g>
<g>
</g>
<g>
</g>
<g>
</g>
<g>
</g>
<g>
</g>
<g>
</g>
<g>
</g>
<g>
</g>
<g>
</g>
<g>
</g>
<g>
</g>
<g>
</g>
<g>
</g>
</svg>
