<?xml version="1.0" encoding="iso-8859-1"?>
<!-- Generator: Adobe Illustrator 19.0.0, SVG Export Plug-In . SVG Version: 6.00 Build 0)  -->
<svg version="1.1" id="Capa_1" xmlns="http://www.w3.org/2000/svg" xmlns:xlink="http://www.w3.org/1999/xlink" x="0px" y="0px"
	 viewBox="0 0 512 512" style="enable-background:new 0 0 512 512;" xml:space="preserve">
<path style="fill:#A8EEFC;" d="M440.364,107.344H55.911v19.992v202.523c-26.288,0-47.662,20.975-48.339,47.1
	c0.677,24.997,21.138,45.056,46.297,45.056h386.495V107.344z"/>
<path style="fill:#7EE5F2;" d="M9.933,363.232c-1.413,4.339-2.237,8.945-2.36,13.726c0.677,24.996,21.138,45.056,46.297,45.056
	h386.495v-27.142H53.869C33.418,394.871,16.072,381.618,9.933,363.232z"/>
<path style="fill:#4CE166;" d="M126.303,107.344c0,0-15.365,72.451-70.392,73.669v-73.669
	C55.911,107.344,126.303,107.344,126.303,107.344z"/>
<path style="fill:#546F7A;" d="M55.911,329.859V30.593c-26.715,0-48.371,21.656-48.371,48.371V378.23
	C7.539,351.515,29.196,329.859,55.911,329.859z"/>
<path style="fill:#475D63;" d="M34.682,35.496C18.61,43.359,7.539,59.866,7.539,78.964V378.23c0-19.098,11.071-35.605,27.142-43.469
	V35.496z"/>
<g>
	<path style="fill:#4CE166;" d="M268.172,151.002c0,0-50.926,0.717-74.517,18.641c-18.098,13.75-20.63,28.653,45.523,14.179
		c48.352-10.578,67.748,11.057,57.321,21.209c-10.426,10.153-47.953,8.883-65.721,7.615c-17.767-1.269-19.037,8.883-38.073,26.651
		c-19.037,17.767-6.345,34.266,27.972,38.073c34.318,3.807,41.829,24.113,43.099,40.612c1.269,16.498-7.615,21.575-11.422,34.266
		s-1.27,34.266,15.23,41.881c16.498,7.615,38.073-17.767,44.294-24.113c6.22-6.345,6.471-36.805,10.279-45.688
		c3.807-8.884,29.573-29.481,29.573-29.481s-48.609-46.665-38.456-61.894c10.153-15.23,24.113-7.615,46.957,15.23
		c9.27,9.27,38.155-18.41,46.151-43.77c13.118-31.561,25.392-67.126,32.364-97.067H272.74c-8.602,5.298-16.608,10.586-20.691,14.215
		C240.627,131.712,268.172,151.002,268.172,151.002z"/>
	<path style="fill:#4CE166;" d="M103.744,245.79c6.439,15.03,24.636,4.957,39.665-1.482c15.03-6.439,24.621-34.477,18.182-49.507
		s-23.375-4.135-38.404,2.303C108.158,203.542,97.305,230.76,103.744,245.79z"/>
	<path style="fill:#4CE166;" d="M227.242,422.013c0,0-14.936-46.966-57.877-43.784s-26.138-20.155-57.877-17.355
		c-31.739,2.801-57.62,61.139-57.62,61.139H227.242z"/>
</g>
<path style="fill:#44C868;" d="M69.148,394.871c-9.477,14.067-15.279,27.142-15.279,27.142h173.372c0,0-4.69-14.737-16.361-27.142
	H69.148z"/>
<circle style="fill:#DDDDDD;" cx="396.244" cy="373.193" r="108.216"/>
<path style="fill:#C6C5CA;" d="M396.243,454.265c-55.171,0-100.696-41.285-107.372-94.646c-0.556,4.446-0.845,8.975-0.845,13.571
	c0,59.767,48.451,108.217,108.217,108.217s108.217-48.451,108.217-108.217c0-4.596-0.29-9.125-0.845-13.571
	C496.939,412.98,451.414,454.265,396.243,454.265z"/>
<polygon style="fill:#FFBB24;" points="418.073,395.021 451.151,318.282 374.413,351.359 "/>
<polygon style="fill:#FF4A4A;" points="374.413,351.359 341.335,428.098 418.073,395.021 "/>
<path d="M157.856,180.938c-9.587-3.68-20.584,1.412-31.216,6.334c-2.234,1.033-4.343,2.011-6.424,2.902
	c-18.766,8.04-31.453,39.796-23.404,58.584c2.308,5.387,5.946,9.089,10.814,11.001c2.537,0.997,5.183,1.424,7.906,1.424
	c8.362-0.001,17.447-4.029,26.306-7.956c1.534-0.681,3.052-1.354,4.539-1.99c8.999-3.855,16.752-13.302,21.271-25.92
	c4.339-12.115,4.665-24.633,0.873-33.486C166.208,186.43,162.62,182.766,157.856,180.938z M153.453,220.234
	c-3.019,8.429-8.005,14.999-13.012,17.144c-1.543,0.66-3.12,1.359-4.713,2.066c-7.649,3.392-18.123,8.031-22.586,6.282
	c-0.44-0.173-1.47-0.577-2.466-2.904h-0.001c-4.786-11.171,4.33-34.009,15.481-38.787c2.28-0.976,4.587-2.044,6.819-3.078
	c5.787-2.678,13.424-6.214,17.732-6.214c0.671,0,1.261,0.086,1.75,0.273c0.304,0.116,1.228,0.471,2.205,2.752
	C156.924,203.05,156.449,211.868,153.453,220.234z"/>
<path d="M447.903,269.621v-41.286c0-4.165-3.375-7.539-7.539-7.539c-4.164,0-7.539,3.375-7.539,7.539v35.025
	c-11.503-3.841-23.803-5.927-36.581-5.927c-19.761,0-38.949,5.097-55.852,14.41c-1.958-2.254-3.951-4.622-5.896-7.05
	c-17.153-21.415-14.982-27.612-14.95-27.661c2.842-4.263,4.947-4.471,5.638-4.541c8.021-0.779,24.345,15.548,29.715,20.919
	c2.112,2.113,6.817,5.371,14.585,3.467c15.646-3.829,36.937-28.051,43.982-49.974c7.177-17.288,13.758-34.947,19.36-51.811v42.985
	c0,4.165,3.376,7.539,7.539,7.539c4.165,0,7.539-3.375,7.539-7.539v-90.834c0-4.165-3.375-7.539-7.539-7.539h-1.62H272.741H126.304
	H63.45V30.592c0-4.164-3.375-7.539-7.539-7.539C25.081,23.054,0,48.135,0,78.964v299.264c0,0.549,0.062,1.083,0.173,1.598
	c0.992,13.069,6.65,25.211,16.101,34.429c10.113,9.865,23.465,15.296,37.594,15.296h173.374h67.926
	c19.821,35.405,57.696,59.395,101.076,59.395C460.072,488.947,512,437.02,512,373.19C512,327.916,485.87,288.637,447.903,269.621z
	 M63.45,114.883h52.9c-5.542,16.975-20.776,52.238-52.9,57.845C63.45,172.728,63.45,114.883,63.45,114.883z M66.098,414.474
	c2.736-5.032,6.43-11.324,10.859-17.66c12.339-17.655,24.509-27.485,35.195-28.428c11.186-0.981,13.61,1.46,17.617,5.511
	c7.475,7.559,15.662,13.666,40.152,11.852c15.048-1.112,27.943,4.793,38.33,17.559c3.119,3.833,5.564,7.761,7.401,11.166
	L66.098,414.474L66.098,414.474z M232.398,414.474c-2.129-4.938-6.021-12.673-12.111-20.264
	c-13.532-16.864-31.329-24.985-51.479-23.499c-19.544,1.453-23.808-2.858-28.315-7.417c-6.245-6.313-12.789-11.418-29.666-9.929
	c-15.487,1.366-31.041,13.078-46.229,34.81c-7.192,10.291-12.531,20.327-15.354,26.02c-18.901-2.205-33.505-17.75-34.128-37.242
	c0.04-1.325,0.147-2.633,0.307-3.921c0.014-0.114,0.028-0.228,0.043-0.342c0.061-0.462,0.136-0.92,0.212-1.377
	c0.053-0.312,0.107-0.623,0.167-0.932c0.046-0.24,0.097-0.479,0.147-0.718c3.948-18.415,20.343-32.267,39.921-32.267
	c4.165,0,7.539-3.376,7.539-7.539V295.13c0-4.165-3.375-7.539-7.539-7.539s-7.539,3.375-7.539,7.539v27.691
	c-11.839,1.591-22.821,6.919-31.502,15.395c-0.613,0.599-1.208,1.212-1.79,1.835V78.964c0-19.939,14.367-36.588,33.292-40.134
	v68.514v73.668v83.961c0,4.164,3.375,7.539,7.539,7.539s7.539-3.376,7.539-7.539v-76.992c22.065-2.916,40.899-16.768,54.794-40.443
	c7.528-12.825,11.827-25.479,13.892-32.654H248.26c-0.431,0.358-0.843,0.708-1.218,1.04c-3.679,3.27-5.553,7.698-5.278,12.469
	c0.333,5.741,3.874,11.457,8.065,16.29c-17.861,1.896-44.627,6.717-60.734,18.954c-11.978,9.1-16.324,17.451-12.921,24.824
	c5.022,10.877,23.74,11.666,64.615,2.724c18.032-3.946,30.04-2.788,36.941-1.124c8.016,1.934,12.283,5.245,13.603,7.698
	c0.627,1.165,0.355,1.429-0.094,1.868c-4.654,4.533-24.989,7.986-59.924,5.497c-16.29-1.164-22.898,6.257-31.269,15.649
	c-3.37,3.781-7.189,8.065-12.485,13.009c-12.967,12.102-11.969,22.759-10.219,28.033c4.07,12.273,19.165,20.458,42.503,23.047
	c30.575,3.392,35.424,20.856,36.414,33.697c0.633,8.247-1.759,12.465-5.072,18.305c-2.08,3.665-4.436,7.82-6.055,13.215
	c-2.465,8.217-2.48,18.326-0.039,27.044c3.095,11.055,9.96,19.525,19.331,23.85c3.21,1.483,6.465,2.127,9.707,2.127
	c3.307,0,6.597-0.69,9.812-1.833c1.13,4.51,2.517,8.919,4.159,13.203h-55.705V414.474z M396.243,473.868
	c-55.514,0-100.677-45.164-100.677-100.678c0-11.475,1.913-22.728,5.687-33.448c1.383-3.928-0.681-8.232-4.608-9.614
	c-3.926-1.384-8.232,0.681-9.614,4.608c-4.342,12.333-6.543,25.271-6.543,38.455c0,4.39,0.25,8.722,0.73,12.985
	c-3.823,1.804-7.484,2.491-10.473,1.11c-12.053-5.563-14.229-22.664-11.167-32.869c1.13-3.767,2.877-6.848,4.728-10.109
	c3.74-6.593,7.977-14.063,6.99-26.902c-2.132-27.716-19.347-44.151-49.784-47.527c-19.624-2.177-28.346-8.259-29.854-12.806
	c-1.427-4.305,3.269-9.53,6.195-12.262c5.804-5.417,10.046-10.176,13.454-14.001c7.134-8.005,9.568-10.738,16.477-10.738
	c0.762,0,1.578,0.033,2.461,0.096c38.034,2.715,62.097-0.559,71.517-9.734c5.471-5.328,6.563-12.922,2.853-19.817
	c-3.821-7.099-12.112-12.501-23.346-15.212c-12.1-2.919-27.211-2.556-43.7,1.052c-29.504,6.455-41.514,6.111-46.044,5.336
	c1.195-1.458,3.274-3.549,6.692-6.146c8.619-6.548,23.314-11.583,42.498-14.562c14.936-2.32,27.318-2.537,27.563-2.541
	c3.268-0.046,6.132-2.194,7.095-5.317c0.964-3.122-0.196-6.514-2.87-8.394c-8.905-6.262-16.068-14.82-15.716-17.345
	c0-0.001,0.061-0.105,0.271-0.292c2.123-1.887,6.933-5.535,17.826-12.31h154.236c-6.673,25.751-17.278,56.739-29.704,86.633
	c-0.085,0.206-0.162,0.415-0.229,0.627c-2.975,9.438-9.647,20.246-17.849,28.911c-8.067,8.524-14.16,11.306-16.152,11.421
	c-15.895-15.85-29.046-26.127-41.489-24.888c-6.566,0.651-12.185,4.413-16.697,11.182c-6.419,9.627-1.394,24.103,15.812,45.556
	c1.576,1.965,3.173,3.883,4.754,5.735c-9.673,7.12-18.3,15.767-25.456,25.748c-2.427,3.384-1.651,8.094,1.734,10.52
	c3.382,2.427,8.095,1.652,10.52-1.734c18.894-26.352,49.503-42.083,81.881-42.083c55.515,0,100.678,45.164,100.678,100.677
	C496.921,428.704,451.758,473.868,396.243,473.868z"/>
<path d="M448.167,311.358l-76.739,33.078c-0.032,0.014-0.061,0.033-0.094,0.047c-0.144,0.064-0.281,0.14-0.421,0.213
	c-0.133,0.07-0.268,0.137-0.396,0.214c-0.132,0.079-0.255,0.169-0.381,0.255c-0.126,0.086-0.252,0.17-0.372,0.263
	c-0.12,0.093-0.23,0.196-0.344,0.297c-0.114,0.101-0.23,0.199-0.337,0.306c-0.108,0.108-0.205,0.223-0.306,0.337
	c-0.101,0.114-0.203,0.224-0.297,0.344c-0.093,0.12-0.177,0.246-0.263,0.372c-0.086,0.126-0.177,0.249-0.255,0.381
	c-0.077,0.128-0.144,0.262-0.214,0.396c-0.073,0.14-0.149,0.276-0.213,0.421c-0.014,0.032-0.033,0.061-0.047,0.094l-33.077,76.739
	c-1.222,2.836-0.591,6.132,1.592,8.316c1.444,1.443,3.372,2.208,5.334,2.208c1.006,0,2.021-0.201,2.983-0.615l76.739-33.077
	c0.032-0.014,0.06-0.032,0.092-0.047c0.147-0.065,0.287-0.142,0.428-0.216c0.131-0.069,0.263-0.135,0.39-0.21
	c0.133-0.08,0.258-0.171,0.385-0.259c0.124-0.085,0.249-0.168,0.367-0.259c0.121-0.094,0.232-0.198,0.347-0.3
	c0.113-0.101,0.228-0.197,0.335-0.304c0.108-0.108,0.206-0.224,0.307-0.338c0.101-0.114,0.203-0.223,0.297-0.343
	c0.093-0.12,0.177-0.246,0.263-0.372c0.086-0.126,0.176-0.249,0.255-0.381c0.077-0.128,0.144-0.263,0.214-0.396
	c0.073-0.14,0.149-0.276,0.213-0.421c0.014-0.032,0.034-0.061,0.047-0.094l33.077-76.74c1.222-2.836,0.591-6.132-1.592-8.316
	C454.298,310.767,451.005,310.136,448.167,311.358z M355.765,413.668l21.173-49.12l27.946,27.946L355.765,413.668z M415.548,381.832
	l-27.946-27.946l49.12-21.174L415.548,381.832z"/>
<g>
</g>
<g>
</g>
<g>
</g>
<g>
</g>
<g>
</g>
<g>
</g>
<g>
</g>
<g>
</g>
<g>
</g>
<g>
</g>
<g>
</g>
<g>
</g>
<g>
</g>
<g>
</g>
<g>
</g>
</svg>
