<?xml version="1.0" encoding="iso-8859-1"?>
<!-- Generator: Adobe Illustrator 19.0.0, SVG Export Plug-In . SVG Version: 6.00 Build 0)  -->
<svg version="1.1" id="Capa_1" xmlns="http://www.w3.org/2000/svg" xmlns:xlink="http://www.w3.org/1999/xlink" x="0px" y="0px"
	 viewBox="0 0 512 512" style="enable-background:new 0 0 512 512;" xml:space="preserve">
<path style="fill:#546F7A;" d="M483.78,451.763H28.22c-11.441,0-20.715-9.274-20.715-20.715V80.953
	c0-11.441,9.274-20.715,20.715-20.715h455.56c11.441,0,20.715,9.274,20.715,20.715v350.095
	C504.495,442.489,495.22,451.763,483.78,451.763z"/>
<path style="fill:#475D63;" d="M483.78,60.238h-27.018c11.441,0,20.715,9.274,20.715,20.715v350.095
	c0,11.441-9.274,20.715-20.715,20.715h27.018c11.441,0,20.715-9.274,20.715-20.715V80.953
	C504.495,69.512,495.22,60.238,483.78,60.238z"/>
<circle style="fill:#37494F;" cx="255.999" cy="410.682" r="17.343"/>
<rect x="43.409" y="96.924" style="fill:#606060;" width="425.181" height="276.042"/>
<rect x="441.572" y="96.924" style="fill:#4C4C4C;" width="27.018" height="276.042"/>
<polygon style="fill:#E0E0E0;" points="421.53,372.968 90.47,372.968 187.687,96.928 324.313,96.928 "/>
<polygon style="fill:#FF4A4A;" points="256,328.609 309.775,351.216 256,234.615 202.226,351.216 "/>
<polygon style="fill:#E7343F;" points="256,301.592 217.683,317.7 202.226,351.216 256,328.609 309.775,351.216 294.318,317.7 "/>
<path d="M483.78,52.733H28.22C12.659,52.733,0,65.393,0,80.952v350.096c0,15.56,12.659,28.219,28.22,28.219H483.78
	c15.56,0,28.22-12.658,28.22-28.219V80.952C512,65.393,499.341,52.733,483.78,52.733z M496.99,431.049
	c0,7.283-5.926,13.209-13.21,13.209H28.22c-7.284,0-13.21-5.926-13.21-13.209V80.952c0-7.283,5.926-13.209,13.21-13.209H483.78
	c7.284,0,13.21,5.926,13.21,13.209V431.049z"/>
<path d="M255.997,385.83c-13.701,0-24.848,11.147-24.848,24.848c0,13.701,11.147,24.848,24.848,24.848
	c13.701,0,24.848-11.147,24.848-24.848C280.845,396.978,269.699,385.83,255.997,385.83z M255.997,420.517
	c-5.426,0-9.839-4.413-9.839-9.838c0-5.426,4.413-9.839,9.839-9.839s9.838,4.413,9.838,9.839
	C265.836,416.104,261.423,420.517,255.997,420.517z"/>
<path d="M114.375,403.174H77.256c-4.146,0-7.505,3.359-7.505,7.505c0,4.146,3.359,7.505,7.505,7.505h37.119
	c4.146,0,7.505-3.359,7.505-7.505C121.879,406.534,118.519,403.174,114.375,403.174z"/>
<path d="M434.738,403.174h-37.12c-4.146,0-7.505,3.359-7.505,7.505c0,4.146,3.359,7.505,7.505,7.505h37.12
	c4.146,0,7.505-3.359,7.505-7.505C442.243,406.534,438.884,403.174,434.738,403.174z"/>
<path d="M468.59,89.423H324.313H187.688H43.41c-4.146,0-7.505,3.359-7.505,7.505v34.746c0,4.146,3.359,7.505,7.505,7.505
	s7.505-3.359,7.505-7.505v-27.241h126.173L85.156,365.464H50.915V161.693c0-4.146-3.359-7.505-7.505-7.505s-7.505,3.359-7.505,7.505
	v211.275c0,4.146,3.359,7.505,7.505,7.505h47.06H421.53h47.06c4.146,0,7.505-3.359,7.505-7.505v-47.997
	c0-4.146-3.359-7.505-7.505-7.505c-4.146,0-7.505,3.359-7.505,7.505v40.492h-34.242l-60.382-171.451
	c-1.377-3.909-5.665-5.963-9.571-4.586c-3.91,1.377-5.963,5.662-4.586,9.572l58.627,166.465H101.07l91.932-261.03h55.364v30.026
	c0,4.146,3.359,7.505,7.505,7.505s7.505-3.359,7.505-7.505v-30.026h55.624l23.325,66.228c1.377,3.909,5.664,5.961,9.571,4.586
	c3.91-1.377,5.963-5.663,4.586-9.571l-21.568-61.241h126.173v190.52c0,4.146,3.359,7.505,7.505,7.505
	c4.146,0,7.505-3.359,7.505-7.505V96.927C476.095,92.783,472.736,89.423,468.59,89.423z"/>
<path d="M255.87,212.014c4.146,0,7.505-3.359,7.505-7.505v-36.342c0-4.146-3.359-7.505-7.505-7.505s-7.505,3.359-7.505,7.505v36.342
	C248.365,208.655,251.725,212.014,255.87,212.014z"/>
<path d="M196.828,356.431c2.153,2.226,5.453,2.902,8.305,1.703L256,336.751l50.867,21.383c0.941,0.395,1.927,0.586,2.906,0.586
	c1.995,0,3.955-0.797,5.4-2.29c2.151-2.227,2.715-5.547,1.418-8.359l-53.775-116.6c-1.226-2.659-3.888-4.362-6.816-4.362
	s-5.589,1.703-6.816,4.362l-53.775,116.6C194.113,350.884,194.677,354.204,196.828,356.431z M256,252.535l38.865,84.272
	l-35.957-15.115c-0.931-0.391-1.919-0.586-2.908-0.586c-0.989,0-1.978,0.195-2.908,0.586l-35.957,15.115L256,252.535z"/>
<g>
</g>
<g>
</g>
<g>
</g>
<g>
</g>
<g>
</g>
<g>
</g>
<g>
</g>
<g>
</g>
<g>
</g>
<g>
</g>
<g>
</g>
<g>
</g>
<g>
</g>
<g>
</g>
<g>
</g>
</svg>
