<?xml version="1.0" encoding="iso-8859-1"?>
<!-- Generator: Adobe Illustrator 19.0.0, SVG Export Plug-In . SVG Version: 6.00 Build 0)  -->
<svg version="1.1" id="Capa_1" xmlns="http://www.w3.org/2000/svg" xmlns:xlink="http://www.w3.org/1999/xlink" x="0px" y="0px"
	 viewBox="0 0 511.999 511.999" style="enable-background:new 0 0 511.999 511.999;" xml:space="preserve">
<path style="fill:#DDDDDD;" d="M392.611,42.425c0-19.287-15.636-34.922-34.922-34.922H154.311
	c-19.288,0-34.922,15.636-34.922,34.922v427.149c0,19.288,15.636,34.923,34.922,34.923h203.378
	c19.288,0,34.922-15.636,34.922-34.923L392.611,42.425L392.611,42.425z"/>
<path style="fill:#C6C5CA;" d="M357.689,7.502h-27.008c19.287,0,34.922,15.636,34.922,34.922v427.149
	c0,19.287-15.636,34.922-34.922,34.922h27.008c19.287,0,34.922-15.636,34.922-34.922V42.425
	C392.611,23.138,376.975,7.502,357.689,7.502z"/>
<rect x="151.454" y="77.413" style="fill:#4CE166;" width="209.091" height="335.718"/>
<rect x="333.538" y="77.413" style="fill:#44C868;" width="27.008" height="335.718"/>
<polygon style="fill:#A8EEFC;" points="360.543,77.416 221.446,77.416 360.544,303.761 "/>
<polygon style="fill:#7EE5F2;" points="333.536,77.416 333.536,259.813 360.544,303.761 360.544,77.416 "/>
<polygon style="fill:#FFDB56;" points="360.544,413.128 287.604,298.79 151.456,413.128 151.456,338.784 257.137,250.184 
	151.456,77.416 221.446,77.416 360.544,303.761 "/>
<polygon style="fill:#FFBB24;" points="333.536,259.813 333.536,370.791 360.544,413.128 360.544,303.761 "/>
<circle style="fill:#475D63;" cx="256.005" cy="458.574" r="21.623"/>
<path style="fill:#FF4A4A;" d="M256,117.51c-36.498,0-66.085,29.588-66.085,66.085c0,55.579,66.085,106.718,66.085,106.718
	s66.085-51.139,66.085-106.718C322.085,147.098,292.498,117.51,256,117.51z M256,209.955c-14.557,0-26.358-11.8-26.358-26.358
	s11.8-26.358,26.358-26.358s26.358,11.8,26.358,26.358C282.358,198.153,270.557,209.955,256,209.955z"/>
<path style="fill:#E7343F;" d="M256,117.51c-4.628,0-9.144,0.48-13.504,1.385c30.021,6.234,52.581,32.831,52.581,64.7
	c0,39.428-33.253,76.614-52.581,94.902c7.918,7.491,13.504,11.816,13.504,11.816s66.085-51.139,66.085-106.718
	C322.085,147.098,292.498,117.51,256,117.51z"/>
<circle style="fill:#FFFFFF;" cx="256.005" cy="183.594" r="26.358"/>
<path d="M360.544,69.913L360.544,69.913H151.456c-0.311,0-0.616,0.025-0.918,0.062c-0.079,0.01-0.157,0.024-0.236,0.036
	c-0.237,0.037-0.469,0.084-0.698,0.142c-0.069,0.018-0.138,0.034-0.207,0.053c-0.587,0.167-1.143,0.403-1.662,0.7
	c-0.061,0.035-0.119,0.073-0.179,0.109c-0.203,0.124-0.399,0.256-0.588,0.398c-0.059,0.044-0.118,0.086-0.176,0.132
	c-0.232,0.184-0.455,0.379-0.663,0.589c-0.025,0.026-0.048,0.054-0.073,0.08c-0.184,0.191-0.356,0.392-0.519,0.602
	c-0.048,0.062-0.095,0.125-0.141,0.189c-0.158,0.217-0.305,0.441-0.44,0.674c-0.013,0.023-0.031,0.044-0.044,0.067
	c-0.004,0.007-0.007,0.015-0.011,0.023c-0.151,0.271-0.284,0.553-0.401,0.844c-0.02,0.049-0.036,0.099-0.055,0.149
	c-0.089,0.235-0.166,0.476-0.231,0.722c-0.019,0.072-0.039,0.145-0.056,0.217c-0.059,0.253-0.106,0.51-0.139,0.773
	c-0.005,0.042-0.015,0.084-0.019,0.126c-0.029,0.267-0.046,0.538-0.046,0.813v153.581c0,4.144,3.359,7.502,7.502,7.502
	c4.143,0,7.502-3.358,7.502-7.502v-126.94l30.055,49.135c-4.226,9.275-6.602,19.564-6.602,30.404
	c0,33.334,21.422,64.493,40.41,85.567l-63.864,53.543v-61.7c0-4.144-3.359-7.502-7.502-7.502s-7.502,3.358-7.502,7.502v152.124l0,0
	c0,0.331,0.029,0.654,0.07,0.973c0.01,0.079,0.023,0.156,0.036,0.235c0.046,0.281,0.105,0.557,0.181,0.826
	c0.011,0.038,0.018,0.076,0.029,0.113c0.093,0.312,0.207,0.613,0.338,0.906c0.023,0.051,0.049,0.101,0.073,0.151
	c0.118,0.249,0.249,0.489,0.392,0.722c0.032,0.051,0.061,0.104,0.094,0.154c0.171,0.263,0.356,0.515,0.558,0.753
	c0.038,0.045,0.079,0.086,0.118,0.13c0.174,0.197,0.359,0.384,0.553,0.562c0.057,0.052,0.112,0.105,0.171,0.155
	c0.238,0.205,0.487,0.398,0.75,0.572c0.032,0.021,0.067,0.04,0.1,0.061c0.248,0.159,0.507,0.302,0.774,0.431
	c0.033,0.016,0.062,0.038,0.095,0.053c0.029,0.014,0.06,0.022,0.089,0.036c0.175,0.079,0.354,0.149,0.536,0.214
	c0.068,0.025,0.135,0.052,0.204,0.075c0.191,0.063,0.386,0.114,0.583,0.162c0.061,0.015,0.121,0.034,0.182,0.047
	c0.207,0.044,0.418,0.076,0.631,0.103c0.051,0.007,0.101,0.018,0.152,0.023c0.253,0.026,0.509,0.041,0.769,0.041
	c0.007,0,0.014,0.001,0.022,0.001c0,0,0,0,0.001,0h0.001h209.071c0.005,0,0.01,0.001,0.016,0.001c0.016,0,0.032-0.003,0.048-0.003
	c0.305-0.002,0.604-0.026,0.899-0.064c0.08-0.01,0.16-0.024,0.241-0.037c0.277-0.044,0.548-0.102,0.814-0.175
	c0.033-0.009,0.067-0.012,0.1-0.021c0.011-0.003,0.021-0.009,0.033-0.013c0.355-0.105,0.697-0.239,1.028-0.394
	c0.059-0.028,0.117-0.056,0.176-0.085c0.319-0.159,0.627-0.335,0.918-0.537c0.042-0.029,0.08-0.061,0.121-0.09
	c0.265-0.191,0.517-0.399,0.755-0.623c0.038-0.035,0.078-0.068,0.115-0.104c0.247-0.242,0.474-0.504,0.686-0.779
	c0.042-0.055,0.083-0.11,0.124-0.165c0.208-0.285,0.4-0.582,0.567-0.896c0.012-0.023,0.022-0.048,0.034-0.071
	c0.159-0.307,0.295-0.627,0.411-0.957c0.016-0.045,0.034-0.089,0.05-0.135c0.111-0.336,0.197-0.683,0.259-1.038
	c0.012-0.068,0.021-0.135,0.031-0.204c0.054-0.363,0.091-0.732,0.091-1.11l0,0V147.52c0-4.144-3.359-7.502-7.502-7.502
	c-4.143,0-7.502,3.358-7.502,7.502v129.705l-32.911-53.553c6.284-13.756,9.457-27.15,9.457-40.076
	c0-40.577-33.011-73.587-73.588-73.587c-1.878,0-3.733,0.094-5.576,0.233l-15.563-25.324h118.18v32.594
	c0,4.144,3.359,7.502,7.502,7.502c4.143,0,7.502-3.358,7.502-7.502V77.416C368.046,73.271,364.687,69.913,360.544,69.913z
	 M353.041,305.882v81.537l-59.111-92.663c-1.162-1.822-3.052-3.054-5.188-3.381c-2.137-0.331-4.308,0.281-5.962,1.671
	l-61.192,51.389c-3.173,2.665-3.585,7.397-0.92,10.569c2.665,3.173,7.398,3.586,10.569,0.92l54.642-45.888l60.979,95.592H172.055
	l36.012-30.243c3.173-2.665,3.585-7.397,0.92-10.569c-2.665-3.173-7.397-3.585-10.569-0.92l-39.459,33.138v-54.746l74.258-62.256
	c9.762,9.623,17.283,15.516,18.192,16.22c1.351,1.046,2.972,1.568,4.591,1.568c1.619,0,3.24-0.522,4.591-1.568
	c0.701-0.542,17.356-13.512,34.204-33.634c6.667-7.962,12.379-15.843,17.139-23.623L353.041,305.882z M256,125.014
	c32.302,0,58.583,26.28,58.583,58.582c0,42.97-44.052,84.458-58.587,96.974c-14.543-12.503-58.578-53.924-58.578-96.974
	C197.417,151.293,223.697,125.014,256,125.014z M234.623,113.186c-14.803,4.503-27.635,13.559-36.878,25.526l-32.906-53.795h52.41
	L234.623,113.186z"/>
<path d="M254.863,50.605h37.535c4.143,0,7.502-3.358,7.502-7.502s-3.359-7.502-7.502-7.502h-37.535
	c-4.143,0-7.502,3.358-7.502,7.502C247.36,47.246,250.719,50.605,254.863,50.605z"/>
<path d="M219.602,50.605h13.46c4.143,0,7.502-3.358,7.502-7.502s-3.359-7.502-7.502-7.502h-13.46c-4.143,0-7.502,3.358-7.502,7.502
	C212.1,47.246,215.459,50.605,219.602,50.605z"/>
<path d="M256,429.45c-16.06,0-29.126,13.066-29.126,29.126S239.94,487.701,256,487.701s29.126-13.065,29.126-29.126
	S272.06,429.45,256,429.45z M256,472.697c-7.786,0-14.121-6.335-14.121-14.121c0-7.786,6.335-14.121,14.121-14.121
	c7.786,0,14.121,6.335,14.121,14.121S263.786,472.697,256,472.697z"/>
<path d="M357.688,0H154.311c-23.393,0-42.425,19.032-42.425,42.425v427.148c0,23.394,19.032,42.425,42.425,42.425h203.377
	c23.393,0,42.425-19.032,42.425-42.425V42.425C400.113,19.032,381.082,0,357.688,0z M385.109,469.574
	c0,15.119-12.301,27.421-27.421,27.421H154.311c-15.119,0-27.421-12.302-27.421-27.421V42.425c0-15.119,12.301-27.421,27.421-27.421
	h203.377c15.119,0,27.421,12.302,27.421,27.421V469.574z"/>
<path d="M256,217.457c18.67,0,33.86-15.19,33.86-33.861s-15.189-33.86-33.86-33.86s-33.86,15.189-33.86,33.86
	C222.14,202.266,237.33,217.457,256,217.457z M256,164.74c10.397,0,18.856,8.458,18.856,18.856c0,10.397-8.458,18.857-18.856,18.857
	c-10.397,0-18.856-8.458-18.856-18.857C237.144,173.199,245.603,164.74,256,164.74z"/>
<g>
</g>
<g>
</g>
<g>
</g>
<g>
</g>
<g>
</g>
<g>
</g>
<g>
</g>
<g>
</g>
<g>
</g>
<g>
</g>
<g>
</g>
<g>
</g>
<g>
</g>
<g>
</g>
<g>
</g>
</svg>
