<?xml version="1.0" encoding="iso-8859-1"?>
<!-- Generator: Adobe Illustrator 19.0.0, SVG Export Plug-In . SVG Version: 6.00 Build 0)  -->
<svg version="1.1" id="Capa_1" xmlns="http://www.w3.org/2000/svg" xmlns:xlink="http://www.w3.org/1999/xlink" x="0px" y="0px"
	 viewBox="0 0 512.002 512.002" style="enable-background:new 0 0 512.002 512.002;" xml:space="preserve">
<path style="fill:#4CE166;" d="M290.626,501.66c0,0-49.615,15.419-55.526-25.343c0,0,8.76-40.913,6.285-64.415
	c-2.475-23.502-11.739-165.419-43.236-167.645c-31.497-2.226-115.82-21.752-124.603-40.438c0,0-10.983-95.498,10.285-103.568
	s82.903-51.516,106.131-51.644c26.301-0.145,71.819-7.078,94.494,10.233c21.124,16.127,87.506,68.914,114.546,72.322
	c27.039,3.408,56.683,9.032,34.45,36.79c-22.234,27.759-16.824,43.516-38.056,63.429s-15.007,73.644-15.007,73.644
	s-24.807,33.462-29.412,35.259c-4.606,1.797-43.219,36.999-44.293,62.939C305.61,429.163,290.626,501.66,290.626,501.66z"/>
<path style="fill:#44C868;" d="M401.012,131.42c13.218,5.145,19.255,14.145,5.171,31.728
	c-23.005,28.722-17.408,45.027-39.377,65.631c-21.97,20.605-15.528,76.2-15.528,76.2s-25.669,34.624-30.433,36.483
	c-4.765,1.859-44.72,38.283-45.83,65.123c-0.937,22.639-12.114,79.551-15.59,96.812c14.993,3.296,31.203-1.737,31.203-1.737
	s14.984-72.498,16.058-98.437c1.074-25.94,39.687-61.142,44.293-62.939c4.605-1.797,29.412-35.259,29.412-35.259
	s-6.226-53.731,15.007-73.644s15.823-35.67,38.056-63.429C455.137,140.881,427.476,134.862,401.012,131.42z"/>
<path style="fill:#4CE166;" d="M131.109,277.59c24.402-2.114,57.376,26.972,59.155,49.758c1.78,22.787-8.094,53.36-34.915,34.73
	s-45.207-13.298-45.207-39.364C110.142,296.647,100.262,280.262,131.109,277.59z"/>
<path style="fill:#44C868;" d="M190.264,327.348c-1.287-16.486-18.904-36.26-37.787-45.14c8.275,9.953,13.888,20.967,14.673,31.007
	c1.378,17.645-2.814,39.002-14.129,47.293c0.769,0.505,1.545,1.025,2.329,1.57C182.17,380.708,192.044,350.135,190.264,327.348z"/>
<circle style="fill:#FF4A4A;" cx="257.226" cy="57.299" r="49.8"/>
<path style="fill:#E7343F;" d="M257.226,7.5c-4.681,0-9.205,0.66-13.5,1.867c20.942,5.887,36.3,25.11,36.3,47.932
	s-15.359,42.046-36.3,47.933c4.295,1.207,8.819,1.867,13.5,1.867c27.504,0,49.8-22.297,49.8-49.8
	C307.026,29.796,284.73,7.5,257.226,7.5z"/>
<path style="fill:#E2E2E2;" d="M257.226,107.1c-4.381,0-8.628-0.571-12.676-1.633v94.785c0,6.649,5.39,12.039,12.039,12.039h1.274
	c6.649,0,12.038-5.39,12.038-12.039v-94.785C265.854,106.529,261.607,107.1,257.226,107.1z"/>
<path style="fill:#C6C5CA;" d="M244.551,105.467v27c4.048,1.062,8.294,1.633,12.676,1.633c4.381,0,8.628-0.571,12.675-1.633v-27
	c-4.048,1.063-8.294,1.633-12.675,1.633C252.845,107.1,248.598,106.529,244.551,105.467z"/>
<path d="M387.05,285.479c0.045-4.142-3.276-7.536-7.418-7.582c-0.028,0-0.056,0-0.084,0c-4.104,0-7.452,3.304-7.498,7.418
	c-0.084,7.674,0.311,14.011,0.602,17.544c-10.001,13.369-21.832,28.161-25.119,30.761c-5.501,2.752-17.476,14.439-25.756,24.241
	c-9.94,11.767-21.928,29.134-22.586,45.052c-0.883,21.311-11.684,76.274-14.97,92.597c-7.131,1.479-21.835,3.429-31.657-2.767
	c-5.272-3.326-8.499-8.649-9.841-16.247c1.551-7.58,8.457-43.189,6.12-65.379c-0.238-2.257-0.545-5.689-0.933-10.032
	c-1.851-20.701-5.294-59.232-11.943-93.732c-9.181-47.636-20.682-69.403-37.289-70.577c-14.036-0.992-42.339-6.042-69.28-13.774
	c-32.759-9.402-45.605-17.609-48.566-21.567c-0.588-5.603-2.546-25.753-2.618-46.399c-0.155-44.062,8.193-47.74,8.277-47.771
	c7.611-2.888,19.225-9.517,33.615-17.883c3.581-2.082,4.796-6.673,2.715-10.254c-2.082-3.58-6.672-4.797-10.254-2.715
	c-13.313,7.74-24.866,14.349-31.396,16.827c-12.553,4.762-18.091,23.837-17.957,61.849c0.088,25.013,2.768,48.597,2.882,49.588
	c0.093,0.809,0.317,1.597,0.663,2.334c1.83,3.893,7.399,15.743,58.502,30.409c25.052,7.191,54.807,13.078,72.359,14.319
	c1.282,0.091,12.836,2.501,23.619,58.452c6.506,33.755,9.905,71.795,11.732,92.23c0.394,4.409,0.705,7.893,0.955,10.268
	c2.32,22.028-6.075,61.661-6.16,62.06c-0.186,0.869-0.216,1.766-0.089,2.646c1.842,12.697,7.522,22.131,16.886,28.036
	c8.035,5.068,17.534,6.57,25.977,6.57c11.857,0,21.628-2.965,22.314-3.178c2.606-0.81,4.566-2.972,5.119-5.644
	c0.617-2.985,15.12-73.398,16.207-99.645c0.872-21.057,34.253-52.937,39.876-56.402c2.199-0.929,7.692-4.363,32.36-37.638
	c1.133-1.529,1.643-3.436,1.425-5.325C387.831,304.088,386.933,296.121,387.05,285.479z"/>
<path d="M173.734,287.167c-14.144-11.991-29.918-18.208-43.272-17.049c-11.819,1.023-19.493,4.084-24.151,9.633
	c-6.323,7.532-5.478,17.149-4.499,28.285c0.408,4.642,0.83,9.441,0.83,14.679c0,5.734,0.79,10.483,2.417,14.519
	c1.547,3.842,5.918,5.702,9.759,4.153c3.843-1.548,5.702-5.917,4.153-9.759c-0.895-2.221-1.329-5.136-1.329-8.913
	c0-5.896-0.472-11.26-0.888-15.992c-0.687-7.812-1.279-14.558,1.045-17.327c1.851-2.204,6.678-3.703,13.958-4.334
	c9.108-0.794,21.489,4.399,32.276,13.546c10.711,9.082,18.072,20.592,18.754,29.324c1.107,14.167-2.817,28.013-8.934,31.521
	c-4.133,2.376-10.02-0.611-14.227-3.534c-7.627-5.298-14.441-8.66-19.523-10.998c-3.761-1.733-8.217-0.084-9.947,3.68
	c-1.732,3.763-0.084,8.217,3.68,9.947c4.523,2.081,10.57,5.063,17.234,9.691c7.621,5.293,14.092,7.107,19.383,7.107
	c4.471-0.001,8.1-1.296,10.865-2.883c13.219-7.584,17.773-28.417,16.424-45.699C196.734,313.861,187.758,299.059,173.734,287.167z"
	/>
<path d="M447.394,144.093c-5.672-13.995-26.553-17.738-47.453-20.373c-18.133-2.285-59.696-31.963-87.106-52.614
	c1.099-4.425,1.692-9.047,1.692-13.807c0-31.595-25.705-57.3-57.3-57.3c-25.827,0-47.708,17.179-54.841,40.707
	c-4.492,0.213-8.72,0.38-12.462,0.4c-10.287,0.057-25.555,6.106-51.049,20.226c-3.623,2.006-4.933,6.57-2.927,10.194
	c2.007,3.623,6.568,4.933,10.194,2.928c8.167-4.523,33.019-18.288,43.863-18.348c3.104-0.017,6.45-0.126,9.959-0.276
	c-0.012,0.49-0.037,0.976-0.037,1.469c0,24.497,15.457,45.442,37.125,53.622v89.33c0,10.773,8.765,19.538,19.538,19.538h1.273
	c10.773,0,19.539-8.765,19.539-19.538v-89.33c12.601-4.757,23.09-13.833,29.669-25.414c35.724,26.723,71.273,50.61,90.994,53.095
	c8.059,1.016,32.582,4.106,35.426,11.124c1.058,2.608-1.09,7.543-5.892,13.538c-11.273,14.072-15.864,25.245-19.915,35.102
	c-4.188,10.189-7.495,18.237-17.42,27.545c-6.76,6.341-11.715,15.841-14.725,28.236c-0.978,4.024,1.493,8.08,5.519,9.058
	c0.595,0.144,1.189,0.214,1.775,0.214c3.38,0,6.449-2.302,7.282-5.733c2.311-9.513,5.813-16.522,10.41-20.834
	c12.3-11.535,16.541-21.857,21.032-32.784c3.847-9.358,7.823-19.036,17.748-31.426C448.09,161.676,450.735,152.337,447.394,144.093z
	 M262.402,114.366v85.886c0,2.502-2.036,4.538-4.539,4.538h-1.273c-2.502,0-4.538-2.036-4.538-4.538v-85.886
	c0.439,0.04,0.88,0.06,1.32,0.089c0.366,0.024,0.73,0.057,1.098,0.074c0.861,0.041,1.723,0.063,2.585,0.066
	c0.058,0,0.114,0.004,0.172,0.004c0.055,0,0.109-0.004,0.164-0.004c0.865-0.002,1.73-0.024,2.594-0.066
	c0.365-0.017,0.726-0.049,1.089-0.074C261.516,114.426,261.96,114.406,262.402,114.366z M267.862,98.244
	c-0.783,0.203-1.573,0.382-2.367,0.539c-0.179,0.035-0.36,0.063-0.539,0.096c-0.672,0.124-1.347,0.234-2.025,0.325
	c-0.184,0.025-0.368,0.048-0.552,0.07c-0.739,0.089-1.481,0.161-2.224,0.212c-0.098,0.007-0.196,0.017-0.295,0.022
	c-1.754,0.108-3.514,0.108-5.267,0c-0.099-0.006-0.198-0.016-0.297-0.022c-0.743-0.051-1.483-0.123-2.222-0.212
	c-0.184-0.023-0.369-0.046-0.553-0.07c-0.679-0.091-1.355-0.202-2.028-0.326c-0.178-0.033-0.358-0.061-0.535-0.096
	c-0.796-0.157-1.588-0.337-2.373-0.54c-18.191-4.73-31.66-21.292-31.66-40.943C214.926,33.975,233.901,15,257.226,15
	c23.325,0,42.3,18.976,42.3,42.3C299.526,76.952,286.055,93.515,267.862,98.244z"/>
<g>
</g>
<g>
</g>
<g>
</g>
<g>
</g>
<g>
</g>
<g>
</g>
<g>
</g>
<g>
</g>
<g>
</g>
<g>
</g>
<g>
</g>
<g>
</g>
<g>
</g>
<g>
</g>
<g>
</g>
</svg>
