<?xml version="1.0" encoding="iso-8859-1"?>
<!-- Generator: Adobe Illustrator 19.0.0, SVG Export Plug-In . SVG Version: 6.00 Build 0)  -->
<svg version="1.1" id="Capa_1" xmlns="http://www.w3.org/2000/svg" xmlns:xlink="http://www.w3.org/1999/xlink" x="0px" y="0px"
	 viewBox="0 0 512 512" style="enable-background:new 0 0 512 512;" xml:space="preserve">
<path style="fill:#A8EEFC;" d="M504.497,356.048V76.704c0-8.287-6.718-15.005-15.005-15.005H22.508
	c-8.287,0-15.005,6.718-15.005,15.005v279.344H504.497z"/>
<path style="fill:#7EE5F2;" d="M489.492,61.698h-25.008c8.287,0,15.005,6.718,15.005,15.005v279.344h25.009V76.704
	C504.497,68.417,497.779,61.698,489.492,61.698z"/>
<rect x="146.93" y="477.442" style="fill:#E0E0E0;" width="218.144" height="26.328"/>
<polygon style="fill:#919191;" points="322.76,477.442 189.241,477.442 195.243,425.158 316.758,425.158 "/>
<path style="fill:#E0E0E0;" d="M7.503,356.048v54.104c0,8.287,6.718,15.005,15.005,15.005h466.985
	c8.287,0,15.005-6.718,15.005-15.005v-54.104H7.503z"/>
<path style="fill:#C6C5CA;" d="M479.489,356.048v54.104c0,8.287-6.718,15.005-15.005,15.005h25.008
	c8.287,0,15.005-6.718,15.005-15.005v-54.104H479.489z"/>
<polygon style="fill:#777777;" points="316.758,425.158 291.749,425.158 297.751,477.442 322.76,477.442 "/>
<rect x="340.066" y="477.442" style="fill:#C6C5CA;" width="25.008" height="26.328"/>
<ellipse style="fill:#FFDB56;" cx="255.997" cy="294.69" rx="75.066" ry="30.593"/>
<path style="fill:#FFBB24;" d="M323.362,281.182c-12.241,10.122-37.802,17.089-67.364,17.089c-29.563,0-55.123-6.966-67.364-17.089
	c-4.927,4.073-7.706,8.656-7.706,13.505c0,16.897,33.61,30.593,75.07,30.593s75.07-13.698,75.07-30.593
	C331.068,289.838,328.289,285.255,323.362,281.182z"/>
<circle style="fill:#FFFFFF;" cx="255.997" cy="117.299" r="43.503"/>
<path style="fill:#FF4A4A;" d="M256,8.229c-60.238,0-109.071,48.833-109.071,109.072C146.929,209.034,256,293.436,256,293.436
	s109.071-84.403,109.071-176.135C365.072,57.063,316.238,8.229,256,8.229z M256,160.804c-24.026,0-43.503-19.477-43.503-43.503
	S231.974,73.799,256,73.799s43.503,19.477,43.503,43.503S280.026,160.804,256,160.804z"/>
<path style="fill:#E7343F;" d="M256,8.229c-4.574,0-9.079,0.285-13.505,0.832c53.865,6.652,95.566,52.574,95.566,108.24
	c0,71.561-66.376,138.659-95.566,164.708c8.228,7.342,13.505,11.426,13.505,11.426s109.071-84.402,109.071-176.134
	C365.072,57.063,316.238,8.229,256,8.229z"/>
<path d="M504.497,158.335c-4.144,0-7.503,3.358-7.503,7.503v182.707H15.005V303.64c0-4.144-3.359-7.503-7.503-7.503
	S0,299.495,0,303.64v52.408v54.105c0,12.41,10.096,22.508,22.508,22.508h164.322l-4.279,37.28h-35.621
	c-4.143,0-7.503,3.358-7.503,7.503v26.327c0,4.144,3.359,7.503,7.503,7.503h218.142c4.144,0,7.503-3.358,7.503-7.503v-26.328
	c0-4.144-3.358-7.503-7.503-7.503H329.45l-4.279-37.28h164.322c12.41,0,22.508-10.097,22.508-22.508v-54.105V165.838
	C512,161.694,508.642,158.335,504.497,158.335z M357.569,496.267H154.431v-11.323h34.81H322.76h34.81v11.323H357.569z
	 M314.346,469.939H197.654l4.279-37.28h108.133L314.346,469.939z M496.995,410.153c0,4.137-3.365,7.503-7.503,7.503H316.757H195.243
	H22.508c-4.136,0-7.503-3.365-7.503-7.503V363.55h481.99V410.153z"/>
<path d="M307.005,117.301c0-28.125-22.881-51.005-51.005-51.005s-51.005,22.881-51.005,51.005s22.881,51.005,51.005,51.005
	S307.005,145.426,307.005,117.301z M220,117.301c0-19.851,16.149-36,36-36s36,16.15,36,36c0,19.851-16.15,36-36,36
	C236.149,153.302,220,137.152,220,117.301z"/>
<path d="M489.492,54.196H353.973C333.195,22.05,297.043,0.728,256,0.728c-41.042,0-77.195,21.322-97.973,53.468H22.508
	C10.096,54.196,0,64.293,0,76.704v196.926c0,4.144,3.359,7.503,7.503,7.503s7.503-3.358,7.503-7.503V76.704
	c0-4.137,3.366-7.503,7.503-7.503H149.82c-6.673,14.672-10.394,30.96-10.394,48.1c0,4.144,3.359,7.503,7.503,7.503
	c4.143,0,7.503-3.358,7.503-7.503c0-56.005,45.563-101.569,101.569-101.569s101.569,45.563,101.569,101.569
	c0,76.411-81.188,149.349-101.571,166.451c-17.878-14.992-82.512-72.892-98.136-138.427c-0.96-4.029-5.008-6.513-9.038-5.559
	c-4.03,0.961-6.519,5.008-5.558,9.038c10.772,45.18,41.991,85.884,68.155,113.563c-21.801,6.133-37.996,17.056-37.996,32.32
	c0,24.744,42.543,38.096,82.572,38.096s82.572-13.352,82.572-38.096c0-15.285-16.241-26.217-38.088-32.345
	c5.129-5.436,10.459-11.371,15.805-17.757c37.349-44.607,56.286-87.431,56.286-127.283c0-17.141-3.72-33.428-10.394-48.1h127.312
	c4.137,0,7.503,3.365,7.503,7.503v59.124c0,4.144,3.358,7.503,7.503,7.503c4.144,0,7.503-3.358,7.503-7.503V76.704
	C512,64.293,501.903,54.196,489.492,54.196z M323.565,294.687c0,9.415-26.322,23.091-67.567,23.091
	c-41.246,0-67.567-13.676-67.567-23.091c0-6.628,13.061-15.359,35.177-19.952c15.099,14.707,26.525,23.647,27.801,24.634
	c1.351,1.046,2.972,1.569,4.592,1.569c1.62,0,3.239-0.522,4.592-1.569c0.735-0.569,12.264-9.551,27.722-24.649
	C310.475,279.308,323.565,288.051,323.565,294.687z"/>
<g>
</g>
<g>
</g>
<g>
</g>
<g>
</g>
<g>
</g>
<g>
</g>
<g>
</g>
<g>
</g>
<g>
</g>
<g>
</g>
<g>
</g>
<g>
</g>
<g>
</g>
<g>
</g>
<g>
</g>
</svg>
