<?xml version="1.0" encoding="iso-8859-1"?>
<!-- Generator: Adobe Illustrator 19.0.0, SVG Export Plug-In . SVG Version: 6.00 Build 0)  -->
<svg version="1.1" id="Capa_1" xmlns="http://www.w3.org/2000/svg" xmlns:xlink="http://www.w3.org/1999/xlink" x="0px" y="0px"
	 viewBox="0 0 511.999 511.999" style="enable-background:new 0 0 511.999 511.999;" xml:space="preserve">
<path style="fill:#FF4A4A;" d="M256,7.502c104.971,0,190.066,85.095,190.066,190.066C446.065,357.419,256,504.497,256,504.497
	S65.934,357.419,65.934,197.568C65.934,92.598,151.029,7.502,256,7.502z"/>
<g>
	<path style="fill:#E7343F;" d="M256,7.503c-6.074,0-12.078,0.297-18.005,0.854c96.524,9.072,172.06,90.314,172.06,189.211
		c0,129.458-124.656,250.532-172.06,291.895C249.124,499.175,256,504.497,256,504.497s190.066-147.078,190.066-306.929
		C446.065,92.598,360.97,7.503,256,7.503z"/>
	<circle style="fill:#E7343F;" cx="256.005" cy="197.568" r="129.878"/>
</g>
<circle style="fill:#FFDB56;" cx="256.005" cy="197.568" r="55.836"/>
<path d="M306.725,448.405c-22.886,23.114-42.241,39.525-50.724,46.468c-12.978-10.633-51.453-43.488-89.476-88.944
	c-27.154-32.462-48.765-64.903-64.232-96.42c-19.149-39.018-28.857-76.679-28.857-111.94c0-55.349,24.7-107.092,67.767-141.964
	c3.22-2.608,3.717-7.331,1.109-10.552c-2.608-3.22-7.333-3.717-10.552-1.109c-46.602,37.733-73.329,93.727-73.329,153.625
	c0,37.618,10.25,77.555,30.466,118.703c16.03,32.627,38.342,66.111,66.316,99.521c47.491,56.721,94.228,93.116,96.194,94.638
	c1.351,1.046,2.972,1.568,4.591,1.568c1.619,0,3.24-0.523,4.591-1.568c1.02-0.789,25.331-19.688,56.798-51.467
	c2.915-2.945,2.892-7.694-0.053-10.609C314.392,445.439,309.641,445.464,306.725,448.405z"/>
<path d="M256,0c-34.544,0-68.545,9.049-98.326,26.169c-3.592,2.065-4.83,6.651-2.765,10.243c2.064,3.592,6.65,4.83,10.243,2.765
	C192.661,23.363,224.075,15.004,256,15.004c100.665,0,182.563,81.898,182.563,182.564c0,88.178-60.259,173.026-110.809,228.675
	c-2.786,3.067-2.558,7.812,0.509,10.598c1.437,1.305,3.243,1.949,5.042,1.949c2.042,0,4.074-0.828,5.556-2.458
	c52.329-57.608,114.708-145.794,114.708-238.764C453.567,88.629,364.938,0,256,0z"/>
<path d="M287.767,331.255c29.584-7.005,56.402-24.004,75.513-47.866c19.41-24.234,30.099-54.711,30.099-85.821
	c0-75.751-61.628-137.38-137.379-137.38s-137.38,61.628-137.38,137.38s61.628,137.38,137.38,137.38c4.143,0,7.502-3.358,7.502-7.502
	s-3.359-7.502-7.502-7.502c-67.478,0-122.376-54.898-122.376-122.376S188.521,75.192,255.999,75.192
	c67.478,0,122.375,54.898,122.375,122.376c0,28.113-9.269,54.546-26.805,76.441c-17.03,21.262-40.916,36.408-67.26,42.645
	c-4.032,0.954-6.526,4.996-5.572,9.029C279.692,329.716,283.736,332.212,287.767,331.255z"/>
<path d="M256.001,296.136c4.143,0,7.502-3.358,7.502-7.502v-28.186c28.936-3.432,51.944-26.44,55.376-55.376h28.186
	c4.143,0,7.502-3.358,7.502-7.502c0-4.144-3.359-7.502-7.502-7.502h-28.186c-3.432-28.937-26.44-51.944-55.376-55.377v-28.185
	c0-4.144-3.359-7.502-7.502-7.502c-4.143,0-7.502,3.358-7.502,7.502v28.185c-28.937,3.432-51.944,26.44-55.376,55.377h-28.186
	c-4.143,0-7.502,3.358-7.502,7.502c0,4.144,3.359,7.502,7.502,7.502h28.186c3.433,28.936,26.44,51.944,55.376,55.376v28.186
	C248.498,292.777,251.857,296.136,256.001,296.136z M207.667,197.569c0-26.651,21.682-48.334,48.334-48.334
	c26.652,0,48.334,21.683,48.334,48.334c0,26.652-21.682,48.333-48.334,48.333C229.35,245.902,207.667,224.22,207.667,197.569z"/>
<g>
</g>
<g>
</g>
<g>
</g>
<g>
</g>
<g>
</g>
<g>
</g>
<g>
</g>
<g>
</g>
<g>
</g>
<g>
</g>
<g>
</g>
<g>
</g>
<g>
</g>
<g>
</g>
<g>
</g>
</svg>
