<?xml version="1.0" encoding="iso-8859-1"?>
<!-- Generator: Adobe Illustrator 19.0.0, SVG Export Plug-In . SVG Version: 6.00 Build 0)  -->
<svg version="1.1" id="Capa_1" xmlns="http://www.w3.org/2000/svg" xmlns:xlink="http://www.w3.org/1999/xlink" x="0px" y="0px"
	 viewBox="0 0 512 512" style="enable-background:new 0 0 512 512;" xml:space="preserve">
<path style="fill:#E0E0E0;" d="M489.511,453.513H22.488c-8.28,0-14.992-6.713-14.992-14.992V73.482
	c0-8.28,6.713-14.992,14.992-14.992h467.022c8.28,0,14.992,6.713,14.992,14.992V438.52
	C504.503,446.8,497.791,453.513,489.511,453.513z"/>
<path style="fill:#C6C5CA;" d="M489.511,58.489h-24.987c8.28,0,14.992,6.713,14.992,14.992V438.52
	c0,8.28-6.713,14.992-14.992,14.992h24.987c8.28,0,14.992-6.713,14.992-14.992V73.482C504.503,65.201,497.791,58.489,489.511,58.489
	z"/>
<path style="fill:#546F7A;" d="M489.511,58.489H22.488c-8.28,0-14.992,6.713-14.992,14.992v59.937h497.007V73.482
	C504.503,65.201,497.791,58.489,489.511,58.489z"/>
<path style="fill:#475D63;" d="M489.511,58.489h-24.987c8.28,0,14.992,6.713,14.992,14.992v59.937h24.987V73.482
	C504.503,65.201,497.791,58.489,489.511,58.489z"/>
<rect id="SVGCleanerId_0" x="42.592" y="171.552" style="fill:#A8EEFC;" width="426.811" height="248.562"/>
<g>
	<rect id="SVGCleanerId_0_1_" x="42.592" y="171.552" style="fill:#A8EEFC;" width="426.811" height="248.562"/>
</g>
<rect x="442.423" y="171.552" style="fill:#7EE5F2;" width="26.986" height="248.562"/>
<g>
	<rect x="42.592" y="321.605" style="fill:#4CE166;" width="95.401" height="98.509"/>
	<rect x="245.474" y="171.552" style="fill:#4CE166;" width="223.935" height="106.825"/>
</g>
<rect x="442.423" y="171.552" style="fill:#44C868;" width="26.986" height="106.825"/>
<rect x="181.217" y="321.605" style="fill:#4CE166;" width="85.456" height="98.509"/>
<polygon style="fill:#FFDB56;" points="42.592,278.378 42.592,321.604 137.992,321.604 137.992,420.117 181.218,420.117 
	181.218,321.604 266.671,321.604 266.671,420.117 309.898,420.117 309.898,376.09 353.924,420.117 415.055,420.117 316.542,321.604 
	469.407,321.604 469.407,278.378 245.475,278.378 245.475,171.553 202.248,171.553 202.248,278.378 137.677,278.378 
	137.677,171.553 94.45,171.553 94.45,278.378 "/>
<rect x="442.423" y="278.377" style="fill:#FFBB24;" width="26.986" height="43.228"/>
<path style="fill:#FF4A4A;" d="M350.744,200.724c-38.042,0-68.883,30.839-68.883,68.883c0,57.932,68.883,111.235,68.883,111.235
	s68.883-53.303,68.883-111.235C419.626,231.565,388.786,200.724,350.744,200.724z M350.744,297.081
	c-15.173,0-27.474-12.301-27.474-27.474c0-15.173,12.301-27.474,27.474-27.474s27.474,12.301,27.474,27.474
	C378.218,284.78,365.917,297.081,350.744,297.081z"/>
<path style="fill:#E7343F;" d="M350.744,200.724c-4.619,0-9.129,0.463-13.493,1.33c31.581,6.274,55.39,34.128,55.39,67.552
	c0,41.495-35.335,80.61-55.39,99.469c7.944,7.471,13.493,11.766,13.493,11.766s68.883-53.303,68.883-111.235
	C419.626,231.565,388.786,200.724,350.744,200.724z"/>
<circle style="fill:#FFFFFF;" cx="350.74" cy="269.612" r="27.474"/>
<path d="M489.512,50.992L489.512,50.992H22.488C10.088,50.992,0,61.081,0,73.481l0,0v365.039c0,12.4,10.088,22.488,22.488,22.488
	h467.023c12.401,0,22.488-10.089,22.488-22.488V73.482C512,61.081,501.911,50.992,489.512,50.992z M14.992,73.482
	c0-4.134,3.363-7.496,7.496-7.496h467.022c4.133,0,7.496,3.362,7.496,7.496v52.441H14.992V73.482z M497.008,438.519
	c0,4.134-3.363,7.496-7.496,7.496H22.488c-4.133,0-7.496-3.362-7.496-7.496V140.914h482.015V438.519z"/>
<path d="M53.031,82.66c-6.929,0-12.566,5.637-12.566,12.566c0,6.929,5.637,12.566,12.566,12.566c6.929,0,12.567-5.637,12.567-12.566
	C65.597,88.297,59.96,82.66,53.031,82.66z"/>
<path d="M90.628,82.66c-6.929,0-12.566,5.637-12.566,12.566c0,6.929,5.637,12.566,12.566,12.566c6.929,0,12.566-5.637,12.566-12.566
	C103.194,88.297,97.558,82.66,90.628,82.66z"/>
<path d="M128.226,82.66c-6.929,0-12.566,5.637-12.566,12.566c0,6.929,5.637,12.566,12.566,12.566s12.566-5.637,12.566-12.566
	C140.793,88.297,135.156,82.66,128.226,82.66z"/>
<path d="M469.407,427.613c4.14,0,7.496-3.355,7.496-7.496V171.553c0-4.141-3.356-7.496-7.496-7.496l0,0l0,0l0,0H42.592l0,0
	c-4.14,0-7.496,3.355-7.496,7.496l0,0v248.563l0,0c0,4.141,3.356,7.496,7.496,7.496H469.407 M50.088,329.101h80.408v83.52H50.088
	V329.101z M259.175,412.621h-70.461v-83.519h70.461V412.621z M317.394,412.621v-18.432l18.433,18.432H317.394z M418.16,412.621
	l-43.342-43.341c5.001-4.973,10.547-10.868,16.114-17.518c6.391-7.632,11.934-15.19,16.641-22.66h54.338v83.52H418.16V412.621z
	 M425.552,285.875h36.358v28.234h-45.964C420.601,304.52,423.806,295.098,425.552,285.875z M350.744,371.108
	c-14.972-12.861-61.386-56.378-61.386-101.501c0-33.849,27.538-61.386,61.386-61.386s61.385,27.538,61.385,61.386
	C412.13,314.734,365.711,358.251,350.744,371.108z M461.911,270.882h-34.807c0.007-0.425,0.019-0.851,0.019-1.274
	c0-42.115-34.263-76.379-76.378-76.379c-42.115,0-76.379,34.263-76.379,76.379c0,0.424,0.012,0.85,0.019,1.274h-21.413v-91.833
	h208.94v91.833H461.911z M145.173,179.05h49.579v91.833h-49.579V179.05z M130.181,179.05v99.329c0,4.14,3.356,7.496,7.496,7.496
	h64.571c4.14,0,7.496-3.356,7.496-7.496v-99.329h28.234v99.329c0,4.14,3.356,7.496,7.496,7.496h30.46
	c3.985,21.053,15.576,43.143,34.62,65.887c17.539,20.947,34.872,34.445,35.602,35.009c1.35,1.045,2.969,1.567,4.588,1.567
	s3.237-0.523,4.588-1.567c0.308-0.238,3.577-2.785,8.563-7.213l33.064,33.064h-39.93l-41.831-41.831
	c-2.143-2.144-5.368-2.785-8.169-1.624c-2.802,1.159-4.628,3.894-4.628,6.925v36.53h-28.234v-91.016
	c0-4.141-3.356-7.496-7.496-7.496h-85.453c-4.14,0-7.496,3.355-7.496,7.496v91.016h-28.233v-91.016c0-4.141-3.356-7.496-7.496-7.496
	H50.088v-28.234H94.45c4.14,0,7.496-3.356,7.496-7.496v-99.329L130.181,179.05L130.181,179.05z M86.954,179.05v91.833H50.088
	v-91.833L86.954,179.05L86.954,179.05z"/>
<path d="M350.744,234.638c-19.282,0-34.97,15.687-34.97,34.969s15.687,34.969,34.97,34.969c19.282,0,34.969-15.687,34.969-34.969
	C385.714,250.325,370.026,234.638,350.744,234.638z M350.744,289.584c-11.015,0-19.978-8.961-19.978-19.977
	c0-11.015,8.961-19.977,19.978-19.977c11.015,0,19.977,8.961,19.977,19.977C370.722,280.623,361.759,289.584,350.744,289.584z"/>
<g>
</g>
<g>
</g>
<g>
</g>
<g>
</g>
<g>
</g>
<g>
</g>
<g>
</g>
<g>
</g>
<g>
</g>
<g>
</g>
<g>
</g>
<g>
</g>
<g>
</g>
<g>
</g>
<g>
</g>
</svg>
