<?xml version="1.0" encoding="iso-8859-1"?>
<!-- Generator: Adobe Illustrator 19.0.0, SVG Export Plug-In . SVG Version: 6.00 Build 0)  -->
<svg version="1.1" id="Capa_1" xmlns="http://www.w3.org/2000/svg" xmlns:xlink="http://www.w3.org/1999/xlink" x="0px" y="0px"
	 viewBox="0 0 512 512" style="enable-background:new 0 0 512 512;" xml:space="preserve">
<path style="fill:#A8EEFC;" d="M440.364,107.343H55.911v19.992v202.523c-26.288,0-47.662,20.975-48.339,47.1
	c0.677,24.997,21.138,45.056,46.297,45.056h386.495V107.343z"/>
<g>
	<rect x="174.353" y="107.341" style="fill:#4CE166;" width="140.696" height="81.359"/>
	<rect x="358.517" y="191.15" style="fill:#4CE166;" width="81.838" height="133.388"/>
</g>
<path style="fill:#7EE5F2;" d="M9.933,363.232c-1.413,4.339-2.237,8.945-2.36,13.726c0.677,24.996,21.138,45.055,46.297,45.055
	h386.495V394.87H53.869C33.419,394.87,16.073,381.617,9.933,363.232z"/>
<path style="fill:#4CE166;" d="M7.573,376.957c0.677,24.996,21.136,45.054,46.294,45.055h77.004V309.395h-74.96v20.462
	C29.623,329.858,8.248,350.832,7.573,376.957z"/>
<path style="fill:#44C868;" d="M53.869,394.87c-20.451,0-37.797-13.253-43.937-31.639c-1.413,4.339-2.237,8.945-2.36,13.726
	c0.677,24.996,21.136,45.054,46.294,45.055h77.004V394.87H53.869z"/>
<path style="fill:#546F7A;" d="M55.911,329.858V30.593c-26.715,0-48.371,21.656-48.371,48.371v299.265
	C7.54,351.514,29.197,329.858,55.911,329.858z"/>
<path style="fill:#475D63;" d="M34.682,35.494C18.61,43.358,7.539,59.865,7.539,78.963v299.265
	c0-19.098,11.071-35.605,27.142-43.469V35.494z"/>
<path style="fill:#FFDB56;" d="M440.364,324.533h-81.842V191.15h81.842v-43.477h-81.842v-40.33h-43.476v81.359H174.348v-81.359
	h-43.477v44.183l-44.183-44.183H55.911v19.992v10.716l74.96,74.96v52.909h-74.96v43.477h74.96v112.616h43.477v-82.34l82.34,82.34
	h101.834v-54.003h81.842V324.533z M315.046,418.887L174.348,278.189v-46.011h140.698V418.887z"/>
<g>
	<rect x="130.875" y="394.866" style="fill:#FFBB24;" width="43.478" height="27.142"/>
	<polygon style="fill:#FFBB24;" points="315.046,394.87 315.046,418.887 291.029,394.87 229.546,394.87 256.688,422.012 
		358.522,422.012 358.522,394.87 	"/>
</g>
<circle style="fill:#DDDDDD;" cx="396.244" cy="373.193" r="108.216"/>
<path style="fill:#C6C5CA;" d="M396.243,454.264c-55.17,0-100.695-41.285-107.372-94.646c-0.556,4.446-0.845,8.975-0.845,13.571
	c0,59.767,48.451,108.217,108.217,108.217s108.217-48.451,108.217-108.217c0-4.596-0.289-9.125-0.845-13.571
	C496.939,412.979,451.414,454.264,396.243,454.264z"/>
<polygon style="fill:#FFBB24;" points="418.074,395.02 451.151,318.281 374.413,351.359 "/>
<polygon style="fill:#FF4A4A;" points="374.413,351.359 341.336,428.097 418.074,395.02 "/>
<path d="M440.365,99.804H63.45V30.593c0-4.164-3.375-7.539-7.539-7.539C25.081,23.053,0,48.134,0,78.963v299.266
	c0,0.549,0.062,1.083,0.174,1.598c0.992,13.069,6.65,25.209,16.102,34.428c10.112,9.865,23.464,15.297,37.593,15.297l0,0l0,0
	h241.299l0,0c19.821,35.404,57.697,59.394,101.076,59.394c63.828,0,115.756-51.928,115.756-115.756
	c0-45.274-26.13-84.554-64.097-103.569v-22.364c0-4.165-3.375-7.539-7.539-7.539s-7.539,3.375-7.539,7.539v16.103
	c-11.503-3.841-23.803-5.927-36.582-5.927c-10.439,0-20.556,1.397-30.182,4v-62.744h66.763v18.409c0,4.165,3.375,7.539,7.539,7.539
	s7.539-3.375,7.539-7.539l0,0V107.343l0,0C447.904,103.179,444.529,99.804,440.365,99.804 M366.062,114.883h66.763v25.251h-66.763
	V114.883z M181.887,114.883h125.621v66.28H181.887V114.883z M123.333,114.883v18.443l-18.442-18.443
	C104.891,114.883,123.333,114.883,123.333,114.883z M15.079,78.963c0-19.939,14.367-36.587,33.292-40.133l0,0v152.954l0,0
	c0,4.165,3.375,7.539,7.539,7.539s7.539-3.375,7.539-7.539v-35.531l59.881,59.881v42.246H63.45v-36.439
	c0-4.165-3.375-7.539-7.539-7.539s-7.539,3.375-7.539,7.539l0,0v100.88l0,0c-11.838,1.591-22.821,6.919-31.502,15.396
	c-0.613,0.599-1.208,1.212-1.79,1.835V78.963z M123.333,414.473H53.869c-21.095,0-38.081-16.464-38.755-37.521
	c0.04-1.324,0.147-2.629,0.307-3.915c0.015-0.117,0.029-0.234,0.045-0.351c0.061-0.458,0.135-0.913,0.21-1.365
	c0.054-0.316,0.109-0.632,0.169-0.946c0.045-0.235,0.094-0.468,0.144-0.702c3.945-18.419,20.343-32.275,39.923-32.275
	c4.165,0,7.539-3.375,7.539-7.539v-12.923h59.881V414.473z M181.887,414.473v-56.599l56.598,56.599H181.887z M259.81,414.473
	l-80.131-80.132c-2.157-2.156-5.4-2.803-8.217-1.634c-2.818,1.166-4.654,3.917-4.654,6.965v74.801H138.41V309.396
	c0-4.165-3.375-7.539-7.539-7.539H63.45v-28.398h67.421c4.165,0,7.539-3.375,7.539-7.539V213.01c0-1.999-0.794-3.916-2.208-5.332
	L63.45,134.927v-20.044h20.115l41.975,41.976c2.157,2.156,5.398,2.802,8.217,1.634c2.818-1.166,4.654-3.915,4.654-6.965v-36.644
	h28.397v73.819c0,4.165,3.375,7.539,7.539,7.539h140.699c4.165,0,7.539-3.375,7.539-7.539v-73.819h28.397v32.791
	c0,4.165,3.375,7.539,7.539,7.539h74.303v28.398h-74.303c-4.165,0-7.539,3.375-7.539,7.539v75.501
	c-10.316,4.399-19.869,10.253-28.397,17.305v-51.778c0-4.165-3.375-7.539-7.539-7.539H174.348c-4.165,0-7.539,3.375-7.539,7.539
	v46.011c0,1.999,0.794,3.917,2.208,5.332l31.207,31.207c1.473,1.472,3.403,2.208,5.332,2.208c1.929,0,3.859-0.736,5.332-2.208
	c2.944-2.945,2.944-7.718,0-10.663l-29-28.999v-35.348h125.621v59.227c-16.855,20.112-27.02,46.012-27.02,74.246
	c0,0.161,0.005,0.321,0.006,0.481l-48.052-48.053c-2.944-2.942-7.717-2.944-10.663,0c-2.944,2.945-2.944,7.718,0,10.663
	l61.304,61.305c1.25,5.801,2.934,11.442,5.02,16.886L259.81,414.473L259.81,414.473z M396.244,473.867
	c-55.515,0-100.678-45.164-100.678-100.677c0-55.515,45.164-100.678,100.678-100.678s100.677,45.164,100.677,100.678
	S451.758,473.867,396.244,473.867z"/>
<path d="M448.167,311.357l-76.739,33.077c-0.032,0.014-0.061,0.033-0.094,0.047c-0.144,0.064-0.281,0.14-0.421,0.213
	c-0.133,0.07-0.268,0.137-0.396,0.214c-0.132,0.079-0.255,0.169-0.381,0.255c-0.126,0.086-0.252,0.17-0.372,0.263
	c-0.12,0.093-0.23,0.196-0.344,0.297c-0.114,0.101-0.23,0.199-0.337,0.306c-0.108,0.108-0.205,0.223-0.306,0.338
	c-0.101,0.114-0.203,0.224-0.297,0.343c-0.093,0.12-0.177,0.246-0.263,0.372c-0.086,0.126-0.177,0.249-0.255,0.381
	c-0.077,0.128-0.144,0.263-0.214,0.396c-0.073,0.14-0.149,0.276-0.213,0.421c-0.014,0.032-0.033,0.061-0.047,0.094l-33.077,76.739
	c-1.222,2.836-0.591,6.132,1.592,8.316c1.444,1.443,3.372,2.208,5.334,2.208c1.006,0,2.021-0.201,2.983-0.615l76.739-33.077
	c0.032-0.014,0.062-0.033,0.094-0.047c0.144-0.064,0.281-0.14,0.421-0.213c0.133-0.07,0.268-0.137,0.396-0.214
	c0.132-0.079,0.255-0.169,0.381-0.255c0.126-0.086,0.252-0.17,0.372-0.263c0.12-0.093,0.23-0.196,0.344-0.297
	c0.114-0.101,0.23-0.198,0.337-0.306c0.108-0.108,0.205-0.223,0.306-0.337c0.101-0.114,0.203-0.224,0.297-0.344
	c0.093-0.12,0.177-0.246,0.263-0.372c0.086-0.126,0.176-0.249,0.255-0.381c0.077-0.128,0.144-0.262,0.214-0.396
	c0.073-0.139,0.149-0.276,0.213-0.421c0.014-0.032,0.034-0.061,0.047-0.094l33.077-76.739c1.222-2.836,0.591-6.132-1.592-8.316
	C454.298,310.766,451.005,310.135,448.167,311.357z M376.939,364.548l27.946,27.946l-49.119,21.173L376.939,364.548z
	 M415.548,381.831l-27.946-27.946l49.12-21.173L415.548,381.831z"/>
<g>
</g>
<g>
</g>
<g>
</g>
<g>
</g>
<g>
</g>
<g>
</g>
<g>
</g>
<g>
</g>
<g>
</g>
<g>
</g>
<g>
</g>
<g>
</g>
<g>
</g>
<g>
</g>
<g>
</g>
</svg>
