<?xml version="1.0" encoding="iso-8859-1"?>
<!-- Generator: Adobe Illustrator 19.0.0, SVG Export Plug-In . SVG Version: 6.00 Build 0)  -->
<svg version="1.1" id="Capa_1" xmlns="http://www.w3.org/2000/svg" xmlns:xlink="http://www.w3.org/1999/xlink" x="0px" y="0px"
	 viewBox="0 0 512 512" style="enable-background:new 0 0 512 512;" xml:space="preserve">
<polygon style="fill:#4CE166;" points="504.522,502.611 7.478,502.611 81.283,325.279 430.718,325.279 "/>
<polygon style="fill:#44C868;" points="430.718,325.279 403.797,325.279 477.602,502.611 504.522,502.611 "/>
<ellipse style="fill:#FFDB56;" cx="255.993" cy="413.946" rx="62.509" ry="25.475"/>
<path style="fill:#FF4A4A;" d="M256,9.388c-85.073,0-154.039,68.966-154.039,154.04c0,129.551,154.039,248.75,154.039,248.75
	s154.04-119.2,154.04-248.75C410.039,78.354,341.074,9.388,256,9.388z M256,224.865c-33.932,0-61.438-27.507-61.438-61.438
	s27.507-61.438,61.438-61.438s61.438,27.507,61.438,61.438S289.931,224.865,256,224.865z"/>
<path style="fill:#E7343F;" d="M256,9.388c-4.537,0-9.023,0.207-13.46,0.592c78.769,6.821,140.579,72.91,140.579,153.447
	c0,105.979-103.066,205.014-140.579,237.551c8.343,7.237,13.46,11.2,13.46,11.2s154.04-119.2,154.04-248.75
	C410.039,78.354,341.074,9.388,256,9.388z"/>
<path d="M324.915,163.428c0-38.001-30.916-68.916-68.915-68.916c-13.809,0-27.135,4.072-38.536,11.775
	c-3.423,2.312-4.322,6.96-2.011,10.382c2.311,3.423,6.959,4.321,10.382,2.011c8.921-6.027,19.351-9.212,30.165-9.212
	c29.754,0,53.959,24.206,53.959,53.96s-24.205,53.96-53.959,53.96s-53.959-24.206-53.959-53.96c0-8.806,2.166-17.54,6.261-25.256
	c1.935-3.648,0.548-8.175-3.099-10.112c-3.651-1.935-8.175-0.548-10.112,3.099c-5.238,9.868-8.006,21.027-8.006,32.269
	c0,38.001,30.916,68.916,68.915,68.916S324.915,201.428,324.915,163.428z"/>
<path d="M511.426,499.737L454.721,363.49c-0.012-0.028-0.023-0.057-0.035-0.085l-17.064-40.999c-1.16-2.788-3.884-4.604-6.904-4.604
	h-73.547c14.306-19.352,26.212-38.629,35.511-57.556c16.479-33.542,24.835-66.115,24.835-96.819
	c0-89.061-72.456-161.517-161.516-161.517S94.484,74.366,94.484,163.428c0,30.703,8.355,63.278,24.835,96.819
	c9.299,18.927,21.205,38.203,35.511,57.556H81.282c-3.02,0-5.744,1.817-6.904,4.604l-31.35,75.326
	c-1.587,3.813,0.217,8.191,4.03,9.777c3.812,1.588,8.19-0.217,9.777-4.03l6.718-16.141c7.518-0.146,22.227-1.101,39.507-5.732
	c28.301-7.587,51.821-22.059,68.79-42.112c0.468,0.563,0.926,1.128,1.398,1.691c5.486,6.552,10.956,12.757,16.315,18.609
	c-34.031,11.767-54.3,31.93-54.3,54.152c0,8.467,2.903,16.505,8.217,23.851c-23.083,14.205-48.307,20.357-75.119,18.29
	c-13.492-1.041-24.336-4.039-30.816-6.253l7.785-18.706c1.587-3.813-0.217-8.191-4.03-9.777c-3.815-1.59-8.191,0.216-9.777,4.03
	L0.575,499.737c-0.961,2.307-0.705,4.943,0.683,7.022c1.387,2.08,3.721,3.329,6.221,3.329h294.878c0.007,0,0.014,0.001,0.021,0.001
	c0.006,0,0.012-0.001,0.019-0.001h202.126c2.5,0,4.835-1.249,6.221-3.329C512.131,504.681,512.386,502.045,511.426,499.737z
	 M425.73,332.758l11.105,26.682c-32.459,3.267-57.441,20.289-68.997,29.694c-9.165-12.145-24.973-22.363-45.348-29.397
	c5.342-5.835,10.795-12.021,16.263-18.552c2.352-2.809,4.641-5.618,6.895-8.427H425.73z M99.643,367.039
	c-11.748,3.189-22.309,4.501-29.732,5.027l16.36-39.308h71.672C143.263,348.989,123.724,360.501,99.643,367.039z M109.44,163.428
	c0-80.815,65.747-146.562,146.561-146.562s146.561,65.747,146.561,146.562c0,35.65-13.025,93.722-75.083,167.926
	c-29.932,35.792-60.222,61.929-71.48,71.215c-11.225-9.255-41.372-35.26-71.283-70.984
	C122.498,257.278,109.44,199.125,109.44,163.428z M251.424,418.093c1.348,1.043,2.962,1.563,4.576,1.563
	c1.614,0,3.228-0.521,4.576-1.563c0.755-0.584,9.616-7.485,22.814-19.445c18.044,3.871,27.639,11.007,27.639,15.299
	c0,6.108-19.424,17.997-55.031,17.997s-55.031-11.889-55.031-17.997c0-4.291,9.597-11.429,27.644-15.3
	C241.807,410.608,250.669,417.508,251.424,418.093z M377.749,495.133c11.505-3.667,22.341-7.886,32.433-12.675
	c3.731-1.77,5.321-6.231,3.551-9.962c-1.771-3.731-6.231-5.321-9.962-3.552c-28.091,13.328-62.339,22.136-101.791,26.188H18.69
	l13.091-31.455c7.232,2.543,19.414,6.011,34.759,7.267c3.537,0.289,7.351,0.465,11.405,0.465c20.919,0,48.176-4.681,75.977-22.523
	c21.226,17.931,58.63,29.606,102.074,29.606c4.13,0,7.478-3.347,7.478-7.478c0-4.13-3.348-7.478-7.478-7.478
	c-29.106,0-56.353-5.652-76.72-15.915c-18.468-9.306-29.06-21.581-29.06-33.676c0-15.579,17.488-31.099,45.639-40.505
	c1.616-0.54,2.918-1.583,3.807-2.891c5.611,5.825,11.005,11.191,16.061,16.056c-2.351,0.736-4.613,1.531-6.75,2.403
	c-14.809,6.036-22.964,14.892-22.964,24.939c0,10.046,8.156,18.903,22.964,24.938c12.681,5.169,29.382,8.014,47.023,8.014
	s34.341-2.846,47.023-8.014c14.808-6.035,22.964-14.892,22.964-24.938c0-10.046-8.156-18.903-22.964-24.939
	c-2.135-0.87-4.396-1.666-6.745-2.401c4.676-4.501,9.639-9.423,14.8-14.748c23.945,7.049,41.694,18.437,48.093,31.435
	c0.121,0.313,0.261,0.62,0.426,0.917c1.422,3.169,2.184,6.426,2.184,9.736c0,17.197-21.169,34.082-53.932,43.014
	c-3.984,1.087-6.334,5.198-5.249,9.182c0.907,3.326,3.921,5.513,7.21,5.513c0.651,0,1.313-0.086,1.972-0.265
	c40.065-10.924,64.953-32.935,64.953-57.443c0-3.851-0.597-7.616-1.747-11.272c9.044-7.738,34.69-26.954,67.896-28.707
	l19.869,47.741c-3.475,5.569-13.26,19.011-33.792,32.943c-3.418,2.318-4.308,6.968-1.989,10.386c1.446,2.132,3.8,3.28,6.195,3.28
	c1.445,0,2.905-0.419,4.192-1.291c15.772-10.701,25.948-21.253,32.159-29.066l23.796,57.174h-115.56V495.133z"/>
<g>
</g>
<g>
</g>
<g>
</g>
<g>
</g>
<g>
</g>
<g>
</g>
<g>
</g>
<g>
</g>
<g>
</g>
<g>
</g>
<g>
</g>
<g>
</g>
<g>
</g>
<g>
</g>
<g>
</g>
</svg>
