<?xml version="1.0" encoding="iso-8859-1"?>
<!-- Generator: Adobe Illustrator 19.0.0, SVG Export Plug-In . SVG Version: 6.00 Build 0)  -->
<svg version="1.1" id="Capa_1" xmlns="http://www.w3.org/2000/svg" xmlns:xlink="http://www.w3.org/1999/xlink" x="0px" y="0px"
	 viewBox="0 0 512 512" style="enable-background:new 0 0 512 512;" xml:space="preserve">
<path style="fill:#FFDB56;" d="M160.688,465.791h-35.853V25.43c0-9.9,8.026-17.927,17.926-17.927l0,0
	c9.9,0,17.927,8.026,17.927,17.927V465.791z"/>
<path style="fill:#FFBB24;" d="M142.762,7.504v458.287h17.927V25.43C160.688,15.53,152.662,7.504,142.762,7.504z"/>
<path style="fill:#F77935;" d="M183.929,465.791h-82.336c-22.967,0-42.904,16.04-48.108,38.705l0,0h178.552l0,0
	C226.834,481.832,206.897,465.791,183.929,465.791z"/>
<path style="fill:#EA5A21;" d="M183.929,465.83h-45.02c22.967,0,42.904,16.04,48.108,38.705l0,0h45.02l0,0
	C226.834,481.871,206.897,465.83,183.929,465.83z"/>
<path style="fill:#E7343F;" d="M391.578,121.242c-34.843,2.796-61.043-4.243-88.523-28.061v134.67
	c-21.058-14.757-41.021-21.604-58.969-23.728v45.795c0,0,23.689,8.245,55.239,26.854c21.968,12.958,61.337,26.587,97.761,23.665
	c39.169-3.143,61.426-22.098,61.426-22.098V101.18C458.512,101.18,430.747,118.099,391.578,121.242z"/>
<path style="fill:#CC2939;" d="M330.067,246.09v-18.238V111.453c-9.1-4.448-17.988-10.45-27.012-18.271v134.67
	c-21.058-14.757-41.021-21.604-58.969-23.728v45.795c0,0,14.331,4.99,35.544,15.962L330.067,246.09z"/>
<path style="fill:#FF4A4A;" d="M303.055,227.852c-78.631-55.103-142.036,0-142.036,0V55.626c0,0,63.403-55.103,142.036,0V227.852z"
	/>
<path style="fill:#E7343F;" d="M187.7,39.998c-16.796,7.004-26.68,15.588-26.68,15.588v172.226c0,0,9.885-8.584,26.68-15.588V39.998
	z"/>
<path style="fill:#B7253A;" d="M244.085,249.92l58.969-22.068c-21.058-14.757-41.021-21.604-58.969-23.728L244.085,249.92
	L244.085,249.92z"/>
<path d="M462.191,94.646c-2.357-1.328-5.258-1.282-7.574,0.121c-0.265,0.16-26.874,16.045-63.638,18.995
	c-33.08,2.652-56.627-4.341-80.42-24.061V55.626c0-2.447-1.193-4.74-3.197-6.145c-42.988-30.125-81.782-28.466-106.754-21.766
	c-13.692,3.672-24.743,9.171-32.415,13.786V25.43c0-14.022-11.408-25.43-25.429-25.43c-14.022,0-25.429,11.408-25.429,25.43v78.455
	c0,4.145,3.359,7.503,7.503,7.503s7.503-3.359,7.503-7.503V25.43c0-5.748,4.676-10.424,10.423-10.424
	c5.748,0,10.424,4.676,10.424,10.424v289.856c0,4.145,3.359,7.503,7.503,7.503c4.144,0,7.503-3.358,7.503-7.503v-83.54
	c4.965-3.712,17.911-12.378,36.303-17.31c10.722-2.876,21.429-4.029,32.087-3.482v38.965c0,0.36,0.034,0.715,0.084,1.067
	c0.016,0.109,0.039,0.215,0.059,0.322c0.047,0.246,0.104,0.488,0.174,0.727c0.033,0.111,0.065,0.22,0.103,0.329
	c0.089,0.259,0.194,0.51,0.311,0.757c0.032,0.068,0.058,0.139,0.092,0.206c0.159,0.312,0.34,0.612,0.541,0.899
	c0.038,0.054,0.082,0.103,0.122,0.156c0.169,0.227,0.348,0.445,0.543,0.653c0.073,0.078,0.15,0.153,0.227,0.228
	c0.179,0.176,0.367,0.342,0.565,0.5c0.085,0.068,0.169,0.138,0.257,0.203c0.051,0.037,0.096,0.081,0.148,0.117
	c0.123,0.085,0.256,0.147,0.383,0.224c0.156,0.095,0.31,0.193,0.475,0.278c0.19,0.098,0.386,0.176,0.583,0.257
	c0.123,0.05,0.238,0.116,0.365,0.16c0.23,0.081,23.451,8.274,53.896,26.233c19.869,11.719,55.411,25.105,91.346,25.105
	c0.949,0,1.901-0.01,2.851-0.029c4.143-0.082,7.434-3.509,7.351-7.65c-0.081-4.093-3.425-7.354-7.498-7.354
	c-0.051,0-0.102,0.001-0.152,0.002c-31.617,0.619-66.094-11.097-86.273-22.998c-15.231-8.985-28.61-15.58-38.536-20.057
	l41.084-15.375c0.153-0.057,0.294-0.134,0.441-0.201c0.13-0.059,0.264-0.104,0.392-0.17c0.017-0.009,0.033-0.021,0.05-0.031
	c0.172-0.091,0.331-0.199,0.494-0.302c0.127-0.08,0.259-0.153,0.38-0.24c0.153-0.11,0.292-0.236,0.435-0.357
	c0.116-0.098,0.238-0.188,0.348-0.292c0.135-0.128,0.254-0.271,0.379-0.408c0.101-0.112,0.21-0.218,0.304-0.335
	c0.118-0.147,0.219-0.307,0.325-0.462c0.083-0.121,0.174-0.238,0.25-0.364c0.098-0.163,0.177-0.337,0.263-0.508
	c0.066-0.13,0.14-0.256,0.197-0.39c0.073-0.169,0.126-0.346,0.186-0.52c0.051-0.147,0.11-0.29,0.152-0.44
	c0.046-0.167,0.072-0.34,0.107-0.511c0.034-0.166,0.076-0.329,0.099-0.498c0.002-0.016,0.007-0.031,0.009-0.047
	c0.022-0.172,0.02-0.342,0.03-0.513c0.008-0.145,0.03-0.287,0.03-0.434V108.572c23.866,16.674,49.086,22.762,81.62,20.149
	c25.77-2.067,46.707-9.77,58.831-15.284v161.147c-4.878,3.389-16.328,10.377-33.195,14.783c-4.01,1.048-6.411,5.148-5.363,9.156
	c1.048,4.009,5.148,6.413,9.156,5.363c26.356-6.887,41.153-19.309,41.77-19.834c1.675-1.426,2.639-3.514,2.639-5.713V101.18
	C466.016,98.472,464.551,95.976,462.191,94.646z M231.129,195.905c-11.564,0-21.874,1.717-30.523,4.036
	c-13.492,3.619-24.427,9.014-32.083,13.586V59.272c5.198-3.838,17.983-12.237,35.971-17.063
	c30.733-8.242,61.347-2.396,91.057,17.377v33.595v120.96c-1.09-0.634-2.185-1.251-3.279-1.852c-0.269-0.147-0.538-0.287-0.807-0.433
	c-0.035-0.019-0.071-0.038-0.107-0.057c-0.158-0.085-0.317-0.17-0.475-0.255c-0.718-0.385-1.436-0.766-2.156-1.137
	c-0.404-0.208-0.809-0.411-1.215-0.615c-0.799-0.402-1.6-0.796-2.401-1.183c-0.416-0.2-0.832-0.4-1.25-0.595
	c-0.863-0.405-1.729-0.797-2.594-1.183c-0.329-0.146-0.658-0.298-0.987-0.442c-1.189-0.517-2.379-1.018-3.573-1.498
	c-0.212-0.085-0.424-0.164-0.636-0.247c-0.986-0.391-1.974-0.77-2.962-1.135c-0.396-0.146-0.794-0.286-1.191-0.428
	c-0.822-0.294-1.646-0.581-2.469-0.857c-0.419-0.141-0.838-0.28-1.258-0.416c-0.862-0.279-1.725-0.547-2.588-0.807
	c-0.351-0.106-0.702-0.216-1.054-0.319c-1.209-0.352-2.418-0.689-3.631-1.002c-0.119-0.031-0.238-0.057-0.356-0.087
	c-1.092-0.279-2.186-0.542-3.28-0.79c-0.386-0.087-0.772-0.168-1.159-0.251c-0.844-0.183-1.689-0.357-2.534-0.521
	c-0.421-0.082-0.843-0.162-1.266-0.239c-0.856-0.156-1.713-0.301-2.57-0.439c-0.374-0.06-0.748-0.124-1.124-0.18
	c-1.22-0.183-2.439-0.352-3.661-0.497c-0.323-0.038-0.646-0.047-0.968-0.043C239.563,196.141,235.262,195.905,231.129,195.905z
	 M255.479,213.797c0.34,0.082,0.68,0.167,1.019,0.253c1.166,0.294,2.33,0.605,3.493,0.94c0.142,0.041,0.285,0.077,0.427,0.119
	c1.285,0.375,2.567,0.782,3.848,1.207c0.33,0.109,0.659,0.223,0.989,0.336c1.091,0.373,2.183,0.763,3.272,1.173
	c0.226,0.085,0.453,0.165,0.679,0.251c1.27,0.486,2.537,0.999,3.804,1.534c0.314,0.132,0.628,0.27,0.941,0.406
	c1.052,0.454,2.105,0.925,3.155,1.414c0.277,0.129,0.554,0.253,0.831,0.384c1.261,0.597,2.518,1.219,3.774,1.864
	c0.279,0.143,0.558,0.293,0.837,0.439c1.048,0.548,2.096,1.114,3.141,1.695c0.189,0.105,0.377,0.209,0.566,0.315l-34.672,12.975
	v-26.179C252.887,213.184,254.184,213.482,255.479,213.797z"/>
<path d="M183.929,458.288h-15.738V345.299c0-4.145-3.36-7.503-7.503-7.503c-4.144,0-7.503,3.358-7.503,7.503v112.99h-20.846v-324.39
	c0-4.145-3.36-7.503-7.503-7.503s-7.503,3.358-7.503,7.503v324.389h-15.738c-26.612,0-49.401,18.311-55.421,44.53
	c-0.511,2.227,0.021,4.566,1.444,6.354C49.04,510.959,51.2,512,53.486,512h178.552c2.285,0,4.446-1.041,5.87-2.828
	c1.424-1.788,1.955-4.127,1.444-6.355C233.331,476.599,210.541,458.288,183.929,458.288z M64.017,496.993
	c6.913-14.32,21.274-23.699,37.577-23.699l0,0h82.336l0,0c16.302,0,30.664,9.379,37.577,23.699H64.017z"/>
<g>
</g>
<g>
</g>
<g>
</g>
<g>
</g>
<g>
</g>
<g>
</g>
<g>
</g>
<g>
</g>
<g>
</g>
<g>
</g>
<g>
</g>
<g>
</g>
<g>
</g>
<g>
</g>
<g>
</g>
</svg>
