<?xml version="1.0" encoding="iso-8859-1"?>
<!-- Generator: Adobe Illustrator 19.0.0, SVG Export Plug-In . SVG Version: 6.00 Build 0)  -->
<svg version="1.1" id="Capa_1" xmlns="http://www.w3.org/2000/svg" xmlns:xlink="http://www.w3.org/1999/xlink" x="0px" y="0px"
	 viewBox="0 0 512 512" style="enable-background:new 0 0 512 512;" xml:space="preserve">
<circle style="fill:#546F7A;" cx="256.005" cy="256.005" r="248.493"/>
<path style="fill:#475D63;" d="M256,7.503c-4.531,0-9.033,0.129-13.504,0.369c130.96,7.014,234.993,115.419,234.993,248.129
	S373.456,497.114,242.496,504.128c4.471,0.24,8.973,0.369,13.504,0.369c137.241,0,248.497-111.256,248.497-248.497
	S393.241,7.503,256,7.503z"/>
<circle style="fill:#C6C5CA;" cx="256.005" cy="256.005" r="202.869"/>
<circle style="fill:#DDDDDD;" cx="256.005" cy="256.005" r="175.011"/>
<g>
	<polygon style="fill:#606060;" points="297.125,296.461 398.893,256 326.903,227.378 	"/>
	<polygon style="fill:#606060;" points="284.621,185.097 256,113.107 215.539,214.875 	"/>
	<polygon style="fill:#606060;" points="214.875,215.539 113.107,256 185.097,284.621 	"/>
	<polygon style="fill:#606060;" points="227.378,326.903 256,398.893 296.461,297.125 	"/>
</g>
<polygon style="fill:#FFDB56;" points="296.925,296.925 358.935,153.064 215.075,215.075 "/>
<polygon style="fill:#FF4A4A;" points="215.075,215.075 153.064,358.935 296.925,296.925 "/>
<path d="M377.867,408.712c-32.968,26.345-72.369,40.958-114.368,42.513l0.003-20.214c0-4.144-3.358-7.502-7.501-7.503
	c0,0,0,0-0.001,0c-4.143,0-7.501,3.358-7.502,7.501l-0.003,20.203C146.723,447.347,64.65,365.274,60.787,263.501l20.2,0.003
	c0.001,0,0.001,0,0.001,0c4.143,0,7.501-3.358,7.502-7.501c0-4.143-3.358-7.502-7.501-7.503l-20.204-0.003
	c1.844-49.078,21.734-95.026,56.506-130.081c2.918-2.941,2.899-7.691-0.043-10.609c-2.941-2.915-7.69-2.898-10.609,0.044
	c-39.335,39.655-61.001,92.253-61.012,148.108c0,0.013-0.002,0.026-0.002,0.039c0,0.013,0.002,0.025,0.002,0.038
	c0.019,115.983,94.382,210.337,210.369,210.341c0.001,0,0.001,0,0.001,0c0.001,0,0.001,0,0.001,0s0,0,0.001,0s0.002,0,0.003,0
	c48.242,0,93.622-15.887,131.234-45.941c3.237-2.587,3.764-7.308,1.177-10.544C385.825,406.653,381.105,406.126,377.867,408.712z"/>
<path d="M437.019,74.981C388.667,26.629,324.38,0,256,0S123.333,26.629,74.981,74.981S0.001,187.619,0.001,256
	s26.629,132.667,74.98,181.019S187.62,512,256,512s132.667-26.629,181.019-74.981s74.98-112.638,74.98-181.019
	S485.37,123.333,437.019,74.981z M426.409,426.409C380.892,471.927,320.372,496.995,256,496.995s-124.892-25.067-170.41-70.586
	S15.005,320.372,15.005,256S40.073,131.108,85.59,85.59S191.628,15.004,256,15.004S380.892,40.073,426.409,85.59
	s70.586,106.037,70.586,170.409S471.927,380.891,426.409,426.409z"/>
<path d="M256.001,45.624L256.001,45.624c-0.001,0-0.001,0-0.001,0c-45.788,0-89.319,14.456-125.886,41.806
	c-3.318,2.481-3.996,7.183-1.514,10.501c2.482,3.318,7.183,3.995,10.501,1.514c31.949-23.896,69.628-37.188,109.396-38.673
	l-0.003,20.216c-0.001,4.144,3.358,7.502,7.501,7.503c0.001,0,0.001,0,0.001,0c4.143,0,7.501-3.358,7.502-7.501l0.003-20.203
	c101.774,3.863,183.849,85.938,187.712,187.711l-20.203-0.003c0,0,0,0-0.001,0c-4.143,0-7.501,3.358-7.502,7.501
	c0,4.143,3.358,7.502,7.501,7.503l20.208,0.003c-1.775,46.729-20.08,91.012-52.021,125.408c-2.82,3.036-2.644,7.782,0.392,10.603
	c1.444,1.341,3.276,2.005,5.103,2.005c2.014,0,4.021-0.806,5.5-2.397c36.233-39.016,56.185-89.844,56.185-143.121
	C466.375,139.999,372.002,45.625,256.001,45.624z"/>
<path d="M364.24,147.759c-2.173-2.174-5.453-2.802-8.274-1.584l-67.225,28.976l-25.77-64.817c-1.135-2.856-3.897-4.73-6.971-4.73
	c-3.073,0-5.837,1.875-6.971,4.73l-39.455,99.237l-99.239,39.456c-2.856,1.136-4.73,3.898-4.73,6.972
	c0,3.073,1.875,5.836,4.73,6.972l64.817,25.77l-28.977,67.225c-1.216,2.822-0.589,6.102,1.584,8.274
	c1.436,1.436,3.355,2.197,5.307,2.197c1.001,0,2.011-0.2,2.968-0.612l67.225-28.977l25.77,64.817c1.135,2.856,3.897,4.73,6.971,4.73
	c3.073,0,5.837-1.875,6.971-4.73l39.455-99.237l27.249-10.834c3.85-1.53,5.731-5.894,4.199-9.743c-1.53-3.851-5.891-5.732-9.743-4.2
	l-12.947,5.147l19.723-45.754l47.679,18.957l-26.262,10.441c-3.85,1.53-5.73,5.894-4.199,9.743c1.53,3.851,5.892,5.731,9.743,4.2
	l43.797-17.412c2.856-1.136,4.73-3.898,4.73-6.972c0-3.073-1.875-5.836-4.73-6.972l-64.817-25.77l28.976-67.225
	C367.042,153.212,366.413,149.933,364.24,147.759z M256,133.413l18.957,47.68l-45.754,19.722L256,133.413z M133.413,256
	l67.403-26.798l-19.723,45.754L133.413,256z M256,378.587l-18.957-47.68l45.754-19.722L256,378.587z M283.802,294.411
	l-116.379,50.165c-0.002,0.001,0.002-0.001,0,0l0,0l50.165-116.379L283.802,294.411L283.802,294.411z M294.412,283.802
	l-66.214-66.213l0,0l116.379-50.165c0.002-0.001-0.002,0.001,0,0l0,0L294.412,283.802z"/>
<g>
</g>
<g>
</g>
<g>
</g>
<g>
</g>
<g>
</g>
<g>
</g>
<g>
</g>
<g>
</g>
<g>
</g>
<g>
</g>
<g>
</g>
<g>
</g>
<g>
</g>
<g>
</g>
<g>
</g>
</svg>
