<?xml version="1.0" encoding="iso-8859-1"?>
<!-- Generator: Adobe Illustrator 19.0.0, SVG Export Plug-In . SVG Version: 6.00 Build 0)  -->
<svg version="1.1" id="Capa_1" xmlns="http://www.w3.org/2000/svg" xmlns:xlink="http://www.w3.org/1999/xlink" x="0px" y="0px"
	 viewBox="0 0 511.999 511.999" style="enable-background:new 0 0 511.999 511.999;" xml:space="preserve">
<path style="fill:#FF4A4A;" d="M91.219,287.046c-45.933,0-83.169,37.236-83.169,83.169c0,69.948,83.169,134.306,83.169,134.306
	s83.169-64.359,83.169-134.306C174.388,324.282,137.152,287.046,91.219,287.046z M91.219,403.387
	c-18.32,0-33.172-14.851-33.172-33.172s14.851-33.172,33.172-33.172s33.172,14.851,33.172,33.172S109.54,403.387,91.219,403.387z"/>
<path style="fill:#E7343F;" d="M91.219,287.046c-4.585,0-9.078,0.387-13.462,1.101c39.529,6.436,69.707,40.721,69.707,82.069
	c0,52.119-46.168,101.126-69.707,122.728c8.052,7.389,13.462,11.578,13.462,11.578s83.169-64.359,83.169-134.306
	C174.388,324.282,137.152,287.046,91.219,287.046z"/>
<path style="fill:#FF4A4A;" d="M425.09,119.131c-43.552,0-78.859,35.307-78.859,78.859c0,66.322,78.859,127.346,78.859,127.346
	s78.859-61.023,78.859-127.346C503.949,154.436,468.642,119.131,425.09,119.131z M425.09,229.442
	c-17.371,0-31.453-14.082-31.453-31.452s14.081-31.452,31.453-31.452s31.452,14.082,31.452,31.452S442.461,229.442,425.09,229.442z"
	/>
<path style="fill:#E7343F;" d="M425.09,119.131c-4.592,0-9.084,0.415-13.462,1.168c37.135,6.391,65.397,38.731,65.397,77.691
	c0,48.906-42.876,94.926-65.397,115.725c8.019,7.407,13.462,11.62,13.462,11.62s78.859-61.023,78.859-127.346
	C503.949,154.436,468.642,119.131,425.09,119.131z"/>
<path style="fill:#FF4A4A;" d="M117.088,7.479c-39.671,0-71.832,32.16-71.832,71.832c0,60.412,71.832,115.998,71.832,115.998
	s71.832-55.586,71.832-115.998C188.92,39.639,156.76,7.479,117.088,7.479z M117.088,107.961c-15.822,0-28.649-12.827-28.649-28.649
	s12.827-28.65,28.649-28.65s28.649,12.827,28.649,28.65C145.739,95.133,132.912,107.961,117.088,107.961z"/>
<path style="fill:#E7343F;" d="M117.088,7.479c-4.603,0-9.099,0.451-13.462,1.278c33.233,6.304,58.37,35.485,58.37,70.553
	c0,43.695-37.572,84.858-58.37,104.297c7.957,7.437,13.462,11.7,13.462,11.7s71.832-55.586,71.832-115.998
	C188.92,39.639,156.76,7.479,117.088,7.479z"/>
<path d="M91.219,279.566c-20.453,0-40.508,7.008-56.471,19.734c-3.229,2.575-3.759,7.281-1.185,10.51
	c2.575,3.229,7.279,3.761,10.51,1.186c13.517-10.777,29.819-16.473,47.145-16.473c41.736,0,75.69,33.954,75.69,75.69
	c0,56.209-58.67,110.157-75.693,124.623c-17.034-14.455-75.687-68.331-75.687-124.623c0-13.615,3.653-26.96,10.565-38.595
	c2.109-3.551,0.94-8.139-2.611-10.249c-3.551-2.11-8.139-0.94-10.249,2.611C4.95,337.924,0.572,353.913,0.572,370.214
	c0,72.781,82.557,137.502,86.072,140.221c1.348,1.043,2.963,1.564,4.577,1.564c1.614,0,3.229-0.522,4.577-1.564
	c3.514-2.719,86.071-67.44,86.071-140.221C181.867,320.232,141.203,279.566,91.219,279.566z"/>
<path d="M131.87,370.215c0-22.415-18.236-40.651-40.652-40.651c-22.415,0-40.651,18.236-40.651,40.651
	c0,22.415,18.236,40.652,40.651,40.652C113.634,410.866,131.87,392.63,131.87,370.215z M65.527,370.215
	c0-14.167,11.526-25.693,25.693-25.693s25.694,11.526,25.694,25.693c0,14.167-11.527,25.694-25.694,25.694
	C77.052,395.908,65.527,384.382,65.527,370.215z"/>
<path d="M425.09,111.652c-47.607,0-86.338,38.731-86.338,86.338c0,29.309,13.853,60.714,41.174,93.344
	c20.004,23.891,39.755,39.272,40.587,39.916c1.348,1.043,2.963,1.564,4.577,1.564c1.614,0,3.229-0.522,4.577-1.564
	c1.029-0.797,25.455-19.832,47.46-48.479c2.515-3.275,1.9-7.971-1.376-10.487c-3.277-2.516-7.97-1.899-10.487,1.376
	c-15.309,19.931-32.231,35.24-40.168,41.986c-16.423-13.996-71.386-64.797-71.386-117.657c0-39.359,32.021-71.38,71.38-71.38
	s71.38,32.021,71.38,71.38c0,16.047-5.108,33.374-15.18,51.502c-2.006,3.61-0.706,8.164,2.905,10.169
	c3.609,2.007,8.165,0.705,10.169-2.905c11.322-20.377,17.063-40.149,17.063-58.768C511.428,150.383,472.697,111.652,425.09,111.652z
	"/>
<path d="M386.158,197.99c0,21.467,17.465,38.931,38.931,38.931s38.931-17.465,38.931-38.931s-17.465-38.931-38.931-38.931
	S386.158,176.523,386.158,197.99z M449.063,197.99c0,13.219-10.755,23.974-23.974,23.974s-23.974-10.755-23.974-23.974
	s10.755-23.974,23.974-23.974S449.063,184.771,449.063,197.99z"/>
<path d="M153.217,79.311c0-19.922-16.207-36.129-36.128-36.129c-19.922,0-36.128,16.207-36.128,36.129s16.207,36.128,36.128,36.128
	C137.009,115.44,153.217,99.233,153.217,79.311z M95.917,79.311c0-11.673,9.497-21.171,21.17-21.171s21.17,9.497,21.17,21.171
	c0,11.673-9.497,21.17-21.17,21.17C105.415,100.482,95.917,90.984,95.917,79.311z"/>
<path d="M57.778,125.943c3.761-1.705,5.428-6.138,3.722-9.9c-5.816-12.824-8.764-25.183-8.764-36.732
	c0.001-35.484,28.869-64.353,64.353-64.353s64.353,28.869,64.353,64.353c0,47.423-48.958,93.103-64.358,106.297
	c-8.307-7.102-26.359-23.623-41.19-44.752c-2.373-3.381-7.037-4.197-10.418-1.825c-3.381,2.373-4.198,7.038-1.825,10.418
	c21.215,30.224,47.742,50.91,48.86,51.775c1.348,1.043,2.963,1.564,4.577,1.564s3.229-0.521,4.577-1.564
	c0.76-0.588,18.806-14.642,37.074-36.457c24.991-29.847,37.661-58.598,37.661-85.454C196.399,35.579,160.82,0,117.088,0
	s-79.31,35.579-79.31,79.311c0,13.694,3.398,28.131,10.101,42.909C49.584,125.982,54.016,127.653,57.778,125.943z"/>
<path d="M221.597,245.356c1.654-3.785-0.072-8.195-3.856-9.849l-9.136-3.995c-3.787-1.655-8.195,0.074-9.849,3.856
	c-1.654,3.785,0.072,8.195,3.856,9.849l9.136,3.995c0.976,0.427,1.992,0.628,2.993,0.628
	C217.622,249.841,220.368,248.165,221.597,245.356z"/>
<path d="M367.79,309.264c1.654-3.785-0.072-8.195-3.856-9.849l-9.136-3.995c-3.787-1.654-8.194,0.072-9.849,3.856
	c-1.654,3.785,0.072,8.195,3.856,9.849l9.136,3.995c0.976,0.427,1.992,0.628,2.993,0.628
	C363.815,313.748,366.562,312.073,367.79,309.264z"/>
<path d="M181.192,219.53l-9.137-3.994c-3.789-1.654-8.194,0.073-9.848,3.857c-1.654,3.785,0.073,8.195,3.857,9.848l9.137,3.994
	c0.976,0.427,1.991,0.628,2.992,0.628c2.883,0,5.629-1.676,6.857-4.485C186.704,225.592,184.976,221.184,181.192,219.53z"/>
<path d="M135.507,199.559c-3.789-1.655-8.195,0.073-9.848,3.857c-1.654,3.785,0.073,8.195,3.857,9.848l9.137,3.994
	c0.976,0.427,1.991,0.628,2.992,0.628c2.883,0,5.629-1.676,6.857-4.485c1.654-3.785-0.073-8.195-3.857-9.848L135.507,199.559z"/>
<path d="M404.339,325.239c1.654-3.784-0.072-8.194-3.857-9.848l-9.137-3.995c-3.782-1.654-8.194,0.073-9.848,3.857
	c-1.654,3.784,0.072,8.194,3.857,9.848l9.137,3.995c0.975,0.427,1.991,0.628,2.992,0.628
	C400.363,329.724,403.111,328.049,404.339,325.239z"/>
<path d="M331.243,293.285c1.654-3.785-0.073-8.195-3.857-9.848l-9.137-3.994c-3.788-1.655-8.195,0.073-9.848,3.857
	c-1.654,3.785,0.073,8.195,3.857,9.848l9.137,3.994c0.975,0.427,1.991,0.628,2.992,0.628
	C327.268,297.77,330.014,296.095,331.243,293.285z"/>
<path d="M294.694,277.309c1.654-3.785-0.073-8.195-3.857-9.848l-9.137-3.994c-3.788-1.655-8.195,0.073-9.848,3.857
	c-1.654,3.785,0.073,8.195,3.857,9.848l9.137,3.994c0.976,0.427,1.991,0.628,2.992,0.628
	C290.72,281.794,293.466,280.118,294.694,277.309z"/>
<path d="M258.145,261.332c1.654-3.784-0.072-8.194-3.857-9.848l-9.137-3.995c-3.783-1.655-8.194,0.073-9.848,3.857
	c-1.654,3.784,0.072,8.194,3.857,9.848l9.137,3.995c0.974,0.427,1.991,0.628,2.992,0.628
	C254.171,265.817,256.918,264.142,258.145,261.332z"/>
<path d="M126.284,487.982l-8.8,4.69c-3.645,1.943-5.025,6.473-3.083,10.119c1.346,2.525,3.932,3.964,6.607,3.964
	c1.186,0,2.39-0.283,3.511-0.881l8.8-4.69c3.645-1.943,5.025-6.473,3.083-10.118C134.46,487.421,129.93,486.039,126.284,487.982z"/>
<path d="M161.484,469.22l-8.8,4.69c-3.645,1.943-5.025,6.473-3.083,10.118c1.346,2.525,3.932,3.964,6.607,3.964
	c1.186,0,2.39-0.283,3.51-0.881l8.8-4.69c3.645-1.943,5.025-6.473,3.083-10.118C169.66,468.659,165.129,467.279,161.484,469.22z"/>
<path d="M196.682,450.459l-8.8,4.69c-3.645,1.943-5.025,6.473-3.083,10.119c1.346,2.525,3.932,3.964,6.607,3.964
	c1.186,0,2.39-0.283,3.51-0.881l8.8-4.69c3.645-1.943,5.025-6.473,3.083-10.118C204.858,449.897,200.329,448.516,196.682,450.459z"
	/>
<path d="M372.682,356.65l-8.8,4.69c-3.645,1.943-5.025,6.473-3.083,10.118c1.346,2.525,3.932,3.964,6.607,3.964
	c1.186,0,2.39-0.283,3.511-0.881l8.8-4.69c3.645-1.943,5.025-6.473,3.083-10.119S376.329,354.708,372.682,356.65z"/>
<path d="M407.882,337.889l-8.8,4.69c-3.645,1.943-5.025,6.473-3.083,10.119c1.346,2.525,3.932,3.964,6.607,3.964
	c1.186,0,2.39-0.283,3.511-0.881l8.8-4.69c3.645-1.943,5.025-6.473,3.083-10.118C416.057,337.328,411.529,335.948,407.882,337.889z"
	/>
<path d="M337.482,375.413l-8.799,4.69c-3.645,1.943-5.025,6.472-3.082,10.118c1.345,2.525,3.932,3.964,6.606,3.964
	c1.186,0,2.39-0.283,3.51-0.882l8.799-4.69c3.645-1.942,5.025-6.472,3.082-10.118C345.657,374.849,341.127,373.467,337.482,375.413z
	"/>
<path d="M231.882,431.697l-8.8,4.69c-3.645,1.943-5.025,6.473-3.083,10.118c1.346,2.525,3.932,3.964,6.607,3.964
	c1.186,0,2.39-0.283,3.51-0.881l8.8-4.69c3.645-1.943,5.025-6.473,3.083-10.118C240.058,431.137,235.529,429.754,231.882,431.697z"
	/>
<path d="M302.282,394.175l-8.799,4.69c-3.645,1.943-5.025,6.472-3.082,10.118c1.345,2.525,3.932,3.964,6.606,3.964
	c1.187,0,2.391-0.283,3.511-0.882l8.799-4.69c3.645-1.943,5.025-6.472,3.082-10.118
	C310.458,393.612,305.926,392.229,302.282,394.175z"/>
<path d="M267.082,412.937l-8.799,4.69c-3.645,1.943-5.025,6.472-3.082,10.118c1.345,2.525,3.932,3.963,6.606,3.963
	c1.187,0,2.391-0.282,3.511-0.881l8.799-4.69c3.645-1.943,5.025-6.472,3.082-10.117C275.257,412.373,270.726,410.99,267.082,412.937
	z"/>
<g>
</g>
<g>
</g>
<g>
</g>
<g>
</g>
<g>
</g>
<g>
</g>
<g>
</g>
<g>
</g>
<g>
</g>
<g>
</g>
<g>
</g>
<g>
</g>
<g>
</g>
<g>
</g>
<g>
</g>
</svg>
