<?xml version="1.0" encoding="iso-8859-1"?>
<!-- Generator: Adobe Illustrator 19.0.0, SVG Export Plug-In . SVG Version: 6.00 Build 0)  -->
<svg version="1.1" id="Capa_1" xmlns="http://www.w3.org/2000/svg" xmlns:xlink="http://www.w3.org/1999/xlink" x="0px" y="0px"
	 viewBox="0 0 512.001 512.001" style="enable-background:new 0 0 512.001 512.001;" xml:space="preserve">
<circle style="fill:#A8EEFC;" cx="256.005" cy="256.005" r="248.493"/>
<path style="fill:#7EE5F2;" d="M256,7.503c-6.056,0-12.058,0.228-18.005,0.654c128.835,9.227,230.492,116.658,230.492,247.844
	S366.829,494.617,237.995,503.843c5.948,0.426,11.949,0.654,18.005,0.654c137.241,0,248.497-111.256,248.497-248.497
	S393.241,7.503,256,7.503z"/>
<g>
	<path style="fill:#4CE166;" d="M167.011,304.974c-22.683,11-50.873-23.929-93.25-31.614c-41.769-7.575-62.243,23.061-62.822,23.941
		c14.121,84.4,70.77,154.382,147.178,187.163c27.624-1.065,47.954-39.28,28.413-69.516c-19.546-30.243,40.968-39.064,43.488-79.388
		C232.537,295.234,189.693,293.975,167.011,304.974z"/>
	<path style="fill:#4CE166;" d="M256,7.503c-37.311,0-72.693,8.238-104.45,22.971c1.314,0.111,82.861,7.074,83.894,24.619
		c1.04,17.687-97.803,41.618-83.925,72.832c11.549,25.975,83.392-34.511,103.947-22.979c20.555,11.533-36.67,32.927-7.537,71.132
		c29.133,38.204,60.331,54.067,67.102,96.078c6.771,42.01,47.858,57.617,67.118,28.484c11.389-17.228,2.081-97.803,37.456-133.178
		c16.479-16.479,28.653-37.261,37.532-57.392C411.966,47.921,338.708,7.503,256,7.503z"/>
</g>
<path style="fill:#44C868;" d="M440.467,141.291c6.538-10.12,12.054-20.755,16.669-31.22C411.966,47.921,338.708,7.503,256,7.503
	c-6.026,0-11.995,0.237-17.912,0.66C326.244,14.51,401.652,66.839,440.467,141.291z"/>
<path style="fill:#4CE166;" d="M436.043,427.273c-5.58-9.067-12.972-17.35-22.682-22.296
	c-31.214-15.898-54.104-42.062-76.994-24.818c-22.89,17.244,7.638,49.499-16.99,66.145c-17.908,12.105-37.608,35.753-28.641,55.764
	C347.605,494.113,398.308,466.927,436.043,427.273z"/>
<path style="fill:#44C868;" d="M417.199,407.184c-31.943,41.606-76.746,72.818-128.476,87.677c0.31,2.437,0.956,4.847,2.014,7.208
	c56.868-7.955,107.572-35.141,145.306-74.796C431.223,419.442,425.048,412.2,417.199,407.184z"/>
<g>
	<circle style="fill:#FF4A4A;" cx="338.339" cy="80.494" r="23.929"/>
	<circle style="fill:#FF4A4A;" cx="109.372" cy="279.923" r="23.929"/>
</g>
<path d="M494.95,324.867c-3.947-1.263-8.17,0.905-9.437,4.851c-10.243,31.918-26.77,60.893-48.632,85.629
	c-5.916-7.535-12.654-13.255-20.114-17.053c-7.923-4.035-15.346-8.799-22.527-13.404c-20.344-13.051-41.383-26.547-62.387-10.722
	c-14.782,11.137-12.598,26.989-10.841,39.728c1.792,13,2.404,20.625-5.836,26.196c-19.353,13.081-36.425,34.938-33.904,55.6
	c-8.342,0.862-16.774,1.306-25.272,1.306c-26.328,0-52.008-4.198-76.283-12.269c6.365-4.384,11.827-10.614,15.825-18.304
	c9.263-17.823,8.249-38.588-2.711-55.547c-5.895-9.121-2.524-13.845,13.992-27.786c13.048-11.012,29.286-24.717,30.682-47.062
	c0.023-0.377,0.036-0.744,0.053-1.114c1.971-0.16,3.939-0.303,5.887-0.409c4.138-0.226,7.309-3.763,7.083-7.899
	c-0.226-4.137-3.782-7.272-7.899-7.083c-2.147,0.117-4.317,0.276-6.488,0.455c-2.789-10.656-9.04-17.088-14.67-20.864
	c-16.406-11.006-41.461-8.778-57.731-0.886c-6.544,3.174-14.595,0.555-25.814-5.171c1.846-3.997,2.88-8.443,2.88-13.128
	c0-17.331-14.1-31.432-31.431-31.432c-12.787,0-23.806,7.679-28.71,18.664c-1.825-0.436-3.674-0.838-5.562-1.181
	c-28.05-5.089-47.571,5.384-58.839,14.783c-0.83-8.177-1.258-16.438-1.258-24.764c0-42.524,11.225-84.324,32.461-120.878
	c2.081-3.583,0.863-8.174-2.719-10.256c-3.583-2.082-8.174-0.864-10.256,2.719C11.926,166.426,0,210.832,0,256.001
	c0,68.38,26.629,132.667,74.981,181.019S187.619,512,256,512c55.311,0,107.967-17.357,152.277-50.196
	c43.437-32.191,75.086-76.28,91.524-127.502C501.067,330.357,498.894,326.132,494.95,324.867z M109.373,263.499
	c9.058,0,16.427,7.369,16.427,16.428c0,9.058-7.369,16.427-16.427,16.427s-16.427-7.369-16.427-16.427
	C92.946,270.868,100.315,263.499,109.373,263.499z M72.422,280.742c1.893,0.343,3.752,0.761,5.592,1.218
	c0.889,13.84,10.773,25.268,23.856,28.485v42.31c0,4.144,3.358,7.502,7.502,7.502s7.502-3.358,7.502-7.502v-42.31
	c4.208-1.034,8.083-2.922,11.437-5.462c14.66,7.747,28.638,13.207,41.972,6.741c15.644-7.584,34.058-6.035,42.826-0.153
	c6.935,4.65,10.104,12.565,9.419,23.52c-0.996,15.948-13.395,26.412-25.384,36.532c-13.707,11.569-30.766,25.968-16.916,47.398
	c7.995,12.372,8.743,27.506,1.998,40.484c-5.106,9.828-13.738,16.345-22.813,17.345c-35.964-15.755-67.871-40.367-92.365-71.269
	C42.508,374.623,25.893,337.9,18.882,299.192C24.132,292.744,41.609,275.154,72.422,280.742z M296.259,493.626
	c-0.918-11.233,7.453-27.678,27.321-41.106c16.378-11.07,14.114-27.486,12.297-40.675c-1.749-12.685-2.379-20.132,5.005-25.695
	c3.747-2.823,7.522-4.085,11.568-4.085c8.996,0,19.333,6.241,33.69,15.452c7.487,4.804,15.231,9.772,23.819,14.146
	c6.045,3.078,11.567,8.02,16.469,14.724C391.095,461.7,345.297,485.353,296.259,493.626z"/>
<path d="M437.019,74.981C392.493,30.455,334.451,4.37,272.147,0.518c-0.471-0.03-0.942-0.059-1.413-0.086
	c-0.98-0.055-1.961-0.111-2.943-0.156c-1.575-0.073-3.153-0.129-4.73-0.173c-0.511-0.014-1.022-0.024-1.534-0.035
	c-1.841-0.04-3.683-0.067-5.526-0.067c-2.443,0-4.879,0.037-7.311,0.105c-0.996,0.027-1.987,0.081-2.98,0.119
	c-1.41,0.055-2.821,0.105-4.226,0.182c-1.293,0.071-2.582,0.169-3.871,0.259c-1.077,0.076-2.156,0.144-3.231,0.234
	c-1.488,0.123-2.973,0.271-4.456,0.419c-0.845,0.085-1.69,0.165-2.534,0.258c-1.656,0.182-3.307,0.388-4.956,0.602
	c-0.638,0.083-1.276,0.164-1.913,0.252c-1.814,0.249-3.621,0.521-5.425,0.809c-0.437,0.07-0.874,0.14-1.311,0.212
	c-1.977,0.326-3.947,0.675-5.912,1.048c-0.217,0.041-0.434,0.083-0.65,0.125c-23.305,4.481-45.821,12.198-67.309,23.148
	c-34.486,17.575-65.065,43.243-88.432,74.229c-2.495,3.308-1.836,8.012,1.473,10.507c3.307,2.494,8.011,1.836,10.507-1.473
	c22.003-29.178,50.796-53.347,83.265-69.893c2.036-1.037,4.082-2.041,6.137-3.017c5.298,0.501,20.54,2.074,36.347,4.933
	c28.992,5.247,36.584,10.648,38.36,12.394c-3.36,4.377-19.101,12.394-29.732,17.808c-13.352,6.8-28.484,14.506-39.189,22.953
	c-14.462,11.41-19.169,23.106-13.987,34.758c2.059,4.628,5.592,7.974,10.218,9.675c13.286,4.885,33.48-4.815,54.859-15.085
	c9.578-4.6,19.482-9.357,27.645-12.13c10.333-3.511,13.642-2.376,14.41-1.943c0.22,0.123,0.399,0.234,0.544,0.331
	c-0.791,1.997-3.73,5.903-5.754,8.595c-9.387,12.478-25.097,33.361-4.622,60.212c7.478,9.806,15.008,18.046,20.733,24.131
	c2.839,3.018,7.587,3.16,10.605,0.322c3.018-2.84,3.162-7.587,0.322-10.605c-5.478-5.821-12.67-13.69-19.73-22.947
	c-13.584-17.814-4.298-30.157,4.681-42.093c5.26-6.991,10.228-13.595,8.676-20.976c-0.87-4.14-3.601-7.522-8.113-10.056
	c-12.69-7.121-32.712,2.499-55.893,13.634c-15.132,7.268-35.854,17.223-43.186,14.526c-0.707-0.26-1.209-0.619-1.685-1.687
	c-5.322-11.969,25.729-27.781,46.275-38.245c22.64-11.529,38.996-19.86,38.283-31.979c-0.693-11.786-15.024-19.496-47.923-25.776
	c-4.448-0.849-8.9-1.599-13.16-2.256c8.89-2.881,17.921-5.229,27.076-7.041c0.168-0.033,0.336-0.064,0.503-0.097
	c2.545-0.498,5.1-0.949,7.664-1.364c0.533-0.086,1.064-0.176,1.598-0.259c1.184-0.183,2.371-0.356,3.558-0.522
	c0.932-0.13,1.868-0.25,2.802-0.369c1.431-0.183,2.866-0.353,4.302-0.51c1.316-0.143,2.635-0.281,3.956-0.403
	c0.819-0.076,1.639-0.147,2.461-0.214c1.683-0.138,3.367-0.262,5.057-0.366c0.443-0.027,0.886-0.057,1.329-0.082
	c1.926-0.107,3.857-0.188,5.793-0.25c0.569-0.018,1.139-0.035,1.71-0.049c2.11-0.053,4.221-0.091,6.341-0.091
	c2.287,0,4.572,0.038,6.857,0.104c0.45,0.012,0.897,0.034,1.346,0.049c1.985,0.068,3.969,0.153,5.951,0.27
	c0.23,0.013,0.46,0.028,0.689,0.042c33.61,2.082,66.639,11.189,96.334,26.664c31.689,16.514,59.721,40.269,81.309,68.865
	c-9.663,20.927-21.152,38.123-34.188,51.159c-24.7,24.701-29.142,68.374-32.383,100.262c-1.475,14.506-3,29.506-6.027,34.084
	c-6.095,9.221-14.852,13.138-24.652,11.024c-0.4-0.086-0.803-0.186-1.207-0.294c0.022-0.038,0.049-0.07,0.071-0.109
	c1.749-3.136,3.308-6.555,4.63-10.162c1.427-3.89-0.569-8.2-4.459-9.627c-3.895-1.429-8.201,0.57-9.627,4.459
	c-1.052,2.868-2.278,5.564-3.643,8.011c-6.769-6.176-12.463-15.811-14.563-28.843c-3.975-24.659-15.804-40.729-27.993-54.419
	c-2.757-3.093-7.496-3.369-10.592-0.614c-3.095,2.756-3.369,7.497-0.614,10.592c12.342,13.86,21.211,27.128,24.387,46.829
	c4.07,25.256,19.948,44.43,40.452,48.846c2.762,0.595,5.501,0.887,8.192,0.887c12.701,0,24.331-6.498,32.136-18.305
	c5.063-7.658,6.479-21.576,8.437-40.84c3.015-29.646,7.143-70.247,28.067-91.17c12.619-12.62,23.838-28.649,33.459-47.748
	c25.133,38.662,38.626,83.781,38.626,130.98c0,15.302-1.443,30.616-4.291,45.517c-0.778,4.07,1.891,7.999,5.96,8.777
	c0.477,0.092,0.949,0.135,1.417,0.135c3.528,0,6.673-2.501,7.359-6.095c3.025-15.827,4.559-32.089,4.559-48.334
	C512,187.619,485.37,123.334,437.019,74.981z"/>
<path d="M338.342,49.066c-17.331,0-31.432,14.1-31.432,31.431c0,14.745,10.21,27.146,23.93,30.519v42.31
	c0,4.144,3.358,7.502,7.502,7.502c4.144,0,7.502-3.358,7.502-7.502v-42.31c13.72-3.374,23.929-15.774,23.929-30.519
	C369.773,63.165,355.673,49.066,338.342,49.066z M338.342,96.924c-9.059,0-16.428-7.369-16.428-16.427s7.369-16.427,16.428-16.427
	c9.058,0,16.427,7.369,16.427,16.427C354.769,89.554,347.4,96.924,338.342,96.924z"/>
<path d="M120.541,374.233c1.464,0,2.943-0.428,4.241-1.318c0.028-0.02,2.885-1.975,8.041-4.951c3.589-2.072,4.817-6.66,2.746-10.248
	c-2.073-3.589-6.662-4.816-10.248-2.746c-5.732,3.31-8.915,5.495-9.047,5.587c-3.41,2.35-4.269,7.016-1.923,10.427
	C115.807,373.097,118.154,374.233,120.541,374.233z"/>
<path d="M352.792,272.477c0.137,0.008,0.273,0.011,0.408,0.011c3.959,0,7.271-3.101,7.484-7.101
	c0.151-2.825,0.228-5.777,0.229-8.777c0-0.563-0.003-1.127-0.008-1.69c-0.037-4.12-3.389-7.435-7.501-7.435
	c-0.022,0-0.046,0-0.068,0c-4.144,0.038-7.472,3.427-7.435,7.569c0.005,0.518,0.008,1.037,0.008,1.553
	c-0.001,2.733-0.071,5.417-0.208,7.977C345.481,268.723,348.656,272.256,352.792,272.477z"/>
<path d="M155.946,355.57c0.989,0,1.996-0.197,2.962-0.613c2.973-1.278,6.005-2.521,9.014-3.689c3.862-1.499,5.778-5.847,4.277-9.709
	c-1.5-3.861-5.847-5.78-9.709-4.277c-3.177,1.233-6.377,2.544-9.514,3.894c-3.806,1.638-5.563,6.051-3.925,9.857
	C150.274,353.871,153.039,355.57,155.946,355.57z"/>
<path d="M280.588,335.75c0.517,0.064,1.03,0.126,1.541,0.183c0.284,0.032,0.565,0.048,0.844,0.048c3.77,0,7.018-2.834,7.446-6.668
	c0.461-4.117-2.503-7.829-6.62-8.29c-0.448-0.051-0.899-0.104-1.354-0.161c-2.913-0.363-5.875-0.672-8.803-0.916
	c-4.13-0.343-7.755,2.722-8.101,6.851c-0.346,4.129,2.722,7.756,6.851,8.101C275.118,335.125,277.876,335.413,280.588,335.75z"/>
<path d="M193.728,342.46c0.638,0,1.286-0.082,1.933-0.254c3.12-0.829,6.296-1.608,9.441-2.317c4.041-0.91,6.58-4.925,5.67-8.968
	c-0.91-4.041-4.926-6.581-8.968-5.67c-3.329,0.749-6.693,1.575-9.997,2.454c-4.004,1.063-6.388,5.173-5.323,9.178
	C187.375,340.242,190.41,342.46,193.728,342.46z"/>
<path d="M343.516,226.164c0.544,3.733,3.75,6.422,7.414,6.422c0.36,0,0.725-0.026,1.091-0.079c4.101-0.598,6.94-4.405,6.343-8.506
	c-0.481-3.307-1.039-6.715-1.658-10.132c-0.737-4.078-4.645-6.786-8.717-6.048c-4.077,0.736-6.785,4.639-6.048,8.717
	C342.529,219.788,343.059,223.027,343.516,226.164z"/>
<path d="M312.75,334.582c0.615,0,1.24-0.076,1.865-0.236c3.772-0.965,7.379-2.249,10.722-3.816c3.752-1.76,5.367-6.227,3.608-9.978
	c-1.76-3.752-6.226-5.367-9.978-3.608c-2.493,1.169-5.21,2.134-8.072,2.866c-4.014,1.026-6.436,5.112-5.408,9.128
	C306.355,332.327,309.405,334.582,312.75,334.582z"/>
<path d="M349.879,183.94c-0.933-3.396-1.898-6.71-2.87-9.852c-1.226-3.958-5.428-6.176-9.386-4.948
	c-3.958,1.226-6.174,5.428-4.948,9.386c0.925,2.988,1.846,6.147,2.735,9.387c0.914,3.331,3.936,5.519,7.23,5.519
	c0.656,0,1.325-0.087,1.99-0.27C348.627,192.064,350.977,187.936,349.879,183.94z"/>
<g>
</g>
<g>
</g>
<g>
</g>
<g>
</g>
<g>
</g>
<g>
</g>
<g>
</g>
<g>
</g>
<g>
</g>
<g>
</g>
<g>
</g>
<g>
</g>
<g>
</g>
<g>
</g>
<g>
</g>
</svg>
