<?xml version="1.0" encoding="iso-8859-1"?>
<!-- Generator: Adobe Illustrator 19.0.0, SVG Export Plug-In . SVG Version: 6.00 Build 0)  -->
<svg version="1.1" id="Capa_1" xmlns="http://www.w3.org/2000/svg" xmlns:xlink="http://www.w3.org/1999/xlink" x="0px" y="0px"
	 viewBox="0 0 511.999 511.999" style="enable-background:new 0 0 511.999 511.999;" xml:space="preserve">
<path style="fill:#DDDDDD;" d="M296.095,42.425c0-19.287-15.636-34.922-34.923-34.922H57.794c-19.288,0-34.922,15.636-34.922,34.922
	v427.149c0,19.288,15.636,34.923,34.922,34.923h203.378c19.288,0,34.923-15.636,34.923-34.923V42.425z"/>
<path style="fill:#C6C5CA;" d="M261.171,7.502h-27.008c19.287,0,34.922,15.636,34.922,34.922v427.149
	c0,19.287-15.636,34.922-34.922,34.922h27.008c19.287,0,34.922-15.636,34.922-34.922V42.425
	C296.094,23.138,280.458,7.502,261.171,7.502z"/>
<rect x="54.939" y="77.413" style="fill:#4CE166;" width="209.091" height="335.718"/>
<rect x="237.019" y="77.413" style="fill:#44C868;" width="27.008" height="335.718"/>
<polygon style="fill:#A8EEFC;" points="54.939,413.128 194.037,413.128 54.939,186.783 "/>
<polygon style="fill:#FFDB56;" points="54.939,77.416 127.878,191.754 264.026,77.416 264.026,151.759 158.345,240.359 
	264.026,413.128 194.037,413.128 54.939,186.783 "/>
<g>
	<polygon style="fill:#FFBB24;" points="237.018,413.128 264.026,413.128 237.018,368.975 	"/>
	<polygon style="fill:#FFBB24;" points="237.018,100.097 237.018,174.402 264.026,151.759 264.026,77.416 	"/>
</g>
<circle style="fill:#475D63;" cx="159.487" cy="458.574" r="21.623"/>
<circle style="fill:#546F7A;" cx="306.64" cy="321.964" r="114.744"/>
<path style="fill:#475D63;" d="M243.511,385.096c-41.766-41.766-44.595-107.716-8.503-152.767c-3.283,2.63-6.459,5.46-9.502,8.503
	c-44.809,44.809-44.809,117.46,0,162.27c44.809,44.809,117.46,44.809,162.27,0c3.044-3.044,5.873-6.219,8.503-9.503
	C351.227,429.691,285.277,426.862,243.511,385.096z"/>
<path style="fill:#FF4A4A;" d="M482.388,497.744L482.388,497.744c-9.005,9.005-23.604,9.005-32.609,0l-57.418-57.418l32.609-32.609
	l57.418,57.418C491.393,474.14,491.393,488.739,482.388,497.744z"/>
<path style="fill:#E7343F;" d="M466.163,480.971l-57.223-57.223l-16.578,16.578l57.418,57.418c9.005,9.005,23.604,9.005,32.609,0
	c2.918-2.918,4.873-6.426,5.901-10.137C480.666,489.266,472.245,487.053,466.163,480.971z"/>
<path style="fill:#475D63;" d="M387.746,403.101c-3.669,3.669-7.529,7.032-11.541,10.101l21.64,21.641l21.642-21.642l-21.64-21.641
	C394.778,395.572,391.415,399.432,387.746,403.101z"/>
<circle style="fill:#A8EEFC;" cx="306.47" cy="321.404" r="82.614"/>
<g>
	<path style="fill:#B0EDF4;" d="M283.598,400.78l102.253-102.253c-3.698-12.858-10.429-24.424-19.378-33.882L249.716,381.403
		C259.174,390.351,270.739,397.082,283.598,400.78z"/>
	<path style="fill:#B0EDF4;" d="M242.062,373.112l116.121-116.121c-4.17-3.353-8.673-6.306-13.45-8.808L233.254,359.662
		C235.757,364.44,238.709,368.942,242.062,373.112z"/>
</g>
<path d="M158.345,35.6c-4.143,0-7.502,3.358-7.502,7.502s3.359,7.502,7.502,7.502h37.535c4.143,0,7.502-3.358,7.502-7.502
	s-3.359-7.502-7.502-7.502H158.345z"/>
<path d="M123.085,35.6c-4.143,0-7.502,3.358-7.502,7.502s3.359,7.502,7.502,7.502h13.461c4.143,0,7.502-3.358,7.502-7.502
	s-3.359-7.502-7.502-7.502H123.085z"/>
<path d="M188.608,458.575c0-16.061-13.066-29.126-29.126-29.126s-29.126,13.066-29.126,29.126s13.066,29.126,29.126,29.126
	C175.542,487.702,188.608,474.636,188.608,458.575z M145.361,458.575c0-7.786,6.335-14.121,14.121-14.121
	c7.786,0,14.121,6.335,14.121,14.121c0,7.786-6.335,14.121-14.121,14.121C151.696,472.697,145.361,466.363,145.361,458.575z"/>
<path d="M487.694,459.83l-57.418-57.417c-2.931-2.929-7.68-2.929-10.61,0l-0.178,0.178l-11.807-11.807
	c32.419-47.56,27.559-113.098-14.598-155.256c0-0.001,0-0.001-0.001-0.001c-24.604-24.604-57.173-36.506-89.484-35.707v-48.285
	c0-4.144-3.358-7.502-7.502-7.502s-7.502,3.358-7.502,7.502v49.58c-5.754,0.852-11.457,2.112-17.064,3.783l0,0V77.416
	c0-0.331-0.029-0.654-0.07-0.973c-0.01-0.079-0.023-0.156-0.036-0.234c-0.046-0.282-0.105-0.558-0.181-0.828
	c-0.01-0.037-0.018-0.075-0.029-0.111c-0.093-0.312-0.207-0.614-0.338-0.907c-0.022-0.05-0.048-0.099-0.072-0.148
	c-0.118-0.25-0.25-0.493-0.395-0.727c-0.031-0.05-0.059-0.101-0.091-0.15c-0.172-0.264-0.357-0.517-0.56-0.756
	c-0.036-0.043-0.076-0.083-0.114-0.125c-0.176-0.199-0.363-0.389-0.56-0.568c-0.055-0.05-0.109-0.102-0.165-0.15
	c-0.24-0.207-0.49-0.4-0.755-0.575c-0.03-0.02-0.061-0.036-0.091-0.056c-0.252-0.161-0.514-0.306-0.785-0.437
	c-0.031-0.015-0.059-0.036-0.091-0.05c-0.022-0.01-0.046-0.016-0.068-0.026c-0.3-0.137-0.608-0.257-0.928-0.354
	c-0.023-0.007-0.046-0.011-0.068-0.018c-0.279-0.081-0.565-0.144-0.857-0.193c-0.084-0.014-0.169-0.028-0.253-0.039
	c-0.262-0.035-0.527-0.056-0.796-0.063c-0.054-0.001-0.109-0.008-0.163-0.008c-0.011,0-0.022-0.002-0.034-0.002H54.939
	c-0.292,0-0.578,0.021-0.861,0.053c-0.036,0.004-0.072,0.012-0.108,0.016c-0.361,0.047-0.713,0.119-1.055,0.215
	c-0.026,0.007-0.052,0.008-0.077,0.016c-0.011,0.003-0.021,0.009-0.033,0.013c-0.355,0.105-0.697,0.24-1.028,0.394
	c-0.059,0.027-0.117,0.055-0.175,0.084c-0.319,0.159-0.627,0.336-0.918,0.537c-0.042,0.029-0.08,0.061-0.121,0.09
	c-0.265,0.191-0.517,0.399-0.755,0.623c-0.038,0.036-0.078,0.068-0.115,0.104c-0.247,0.242-0.474,0.504-0.686,0.779
	c-0.042,0.055-0.083,0.11-0.124,0.166c-0.208,0.285-0.4,0.582-0.567,0.896c-0.012,0.023-0.022,0.048-0.034,0.071
	c-0.159,0.307-0.295,0.627-0.411,0.957c-0.016,0.046-0.034,0.089-0.05,0.135c-0.111,0.336-0.197,0.683-0.26,1.038
	c-0.012,0.068-0.021,0.135-0.031,0.204c-0.054,0.363-0.091,0.732-0.091,1.11l0,0v248.907c0,4.143,3.359,7.502,7.502,7.502
	s7.502-3.359,7.502-7.502V213.318l118.18,192.307H62.441v-49.291c0-4.144-3.359-7.502-7.502-7.502s-7.502,3.358-7.502,7.502v56.793
	c0,4.144,3.359,7.502,7.502,7.502h179.494l0,0c16.001,11.762,34.501,19.373,54.159,22.264v26.68
	c0,15.119-12.301,27.421-27.42,27.421H57.794c-15.119,0-27.421-12.302-27.421-27.421V42.425
	c0.001-15.119,12.302-27.421,27.421-27.421h203.378c15.119,0,27.42,12.302,27.42,27.421v79.099c0,4.143,3.358,7.502,7.502,7.502
	s7.502-3.359,7.502-7.502V42.425C303.596,19.032,284.564,0,261.171,0H57.794C34.401,0,15.369,19.032,15.369,42.425v427.148
	c0,23.394,19.032,42.425,42.425,42.425h203.378c23.393,0,42.424-19.032,42.424-42.425v-25.4c1.013,0.025,2.028,0.037,3.045,0.037
	c24.907,0,48.674-7.407,68.797-21.165l11.797,11.797l-0.178,0.178c-1.406,1.407-2.197,3.315-2.197,5.306
	c0,1.99,0.79,3.897,2.197,5.306l57.418,57.417c5.958,5.957,13.783,8.937,21.609,8.937c7.826,0,15.652-2.98,21.609-8.937
	C499.608,491.133,499.608,471.745,487.694,459.83z M191.622,280.383l-23.505-38.427l88.407-74.118v42.635
	c-13.178,5.906-25.519,14.251-36.323,25.053C207.298,248.431,197.638,263.713,191.622,280.383z M243.427,84.918l-113.824,95.591
	L68.624,84.918H243.427z M198.232,405.626L62.441,184.661v-81.536l59.111,92.663c1.162,1.822,3.052,3.054,5.188,3.381
	c2.135,0.329,4.308-0.281,5.963-1.671L256.524,93.512v54.747l-102.998,86.351c-2.846,2.386-3.518,6.495-1.58,9.663l34.339,56.138
	c-1.246,7.045-1.888,14.25-1.888,21.554c0,31.36,11.735,60.914,33.119,83.66L198.232,405.626L198.232,405.626z M382.441,397.797
	c-3.361,3.362-6.993,6.541-10.793,9.447c-0.103,0.078-0.195,0.167-0.293,0.25c-18.533,14.084-41.035,21.712-64.713,21.712
	c-3.105,0-6.188-0.139-9.246-0.398c-0.423-0.074-0.856-0.12-1.301-0.12c-0.022,0-0.043,0.003-0.064,0.003
	c-24.636-2.405-47.486-13.162-65.218-30.895c-20.255-20.254-31.409-47.185-31.409-75.829c0-28.645,11.154-55.575,31.409-75.83
	c20.906-20.906,48.367-31.36,75.83-31.36c27.462,0,54.923,10.453,75.83,31.36c38.314,38.315,41.513,98.643,9.61,140.641
	c-0.063,0.076-0.132,0.146-0.192,0.225C388.979,390.805,385.8,394.438,382.441,397.797z M387.37,413.758
	c1.949-1.719,3.857-3.498,5.711-5.352c1.849-1.849,3.616-3.746,5.321-5.681l10.475,10.476l-11.032,11.032L387.37,413.758z
	 M477.084,492.438c-6.065,6.067-15.934,6.065-21.997,0l-52.114-52.112l0.168-0.168c0.003-0.003,0.007-0.006,0.01-0.009
	l21.642-21.642c0.003-0.003,0.006-0.007,0.009-0.01l0.169-0.169l52.113,52.113C483.148,476.505,483.148,486.373,477.084,492.438z"/>
<path d="M306.469,231.282c-28.393,0-54.549,12.976-71.761,35.599c-2.509,3.298-1.869,8.004,1.428,10.513
	c3.297,2.509,8.003,1.871,10.513-1.428c14.349-18.863,36.153-29.68,59.82-29.68c41.417,0,75.113,33.696,75.113,75.113
	s-33.696,75.113-75.113,75.113s-75.112-33.696-75.112-75.113c0-7.073,0.98-14.07,2.915-20.797c1.144-3.981-1.155-8.138-5.138-9.283
	c-3.983-1.146-8.138,1.155-9.283,5.138c-2.322,8.074-3.498,16.467-3.498,24.943c0,49.691,40.427,90.117,90.116,90.117
	s90.117-40.427,90.117-90.117S356.159,231.282,306.469,231.282z"/>
<g>
</g>
<g>
</g>
<g>
</g>
<g>
</g>
<g>
</g>
<g>
</g>
<g>
</g>
<g>
</g>
<g>
</g>
<g>
</g>
<g>
</g>
<g>
</g>
<g>
</g>
<g>
</g>
<g>
</g>
</svg>
