<?xml version="1.0" encoding="iso-8859-1"?>
<!-- Generator: Adobe Illustrator 19.0.0, SVG Export Plug-In . SVG Version: 6.00 Build 0)  -->
<svg version="1.1" id="Capa_1" xmlns="http://www.w3.org/2000/svg" xmlns:xlink="http://www.w3.org/1999/xlink" x="0px" y="0px"
	 viewBox="0 0 512.002 512.002" style="enable-background:new 0 0 512.002 512.002;" xml:space="preserve">
<rect x="220.62" y="7.517" style="fill:#546F7A;" width="70.76" height="32.525"/>
<rect x="37.576" y="80.971" style="fill:#A8EEFC;" width="436.85" height="259.12"/>
<rect x="447.43" y="80.971" style="fill:#7EE5F2;" width="26.991" height="259.12"/>
<rect x="264.39" y="7.517" style="fill:#475D63;" width="26.991" height="32.525"/>
<g>
	<rect x="7.497" y="40.041" style="fill:#FF4A4A;" width="497" height="40.929"/>
	<rect x="7.497" y="340.091" style="fill:#FF4A4A;" width="497" height="40.929"/>
</g>
<g>
	<rect x="477.51" y="40.041" style="fill:#E7343F;" width="26.991" height="40.929"/>
	<rect x="477.51" y="340.091" style="fill:#E7343F;" width="26.991" height="40.929"/>
</g>
<g>
	<polygon style="fill:#546F7A;" points="144.965,504.485 105.996,504.485 173.714,381.016 212.682,381.016 	"/>
	<polygon style="fill:#546F7A;" points="367.035,504.485 406.003,504.485 338.286,381.016 299.318,381.016 	"/>
</g>
<polygon style="fill:#334347;" points="330.086,437.116 181.914,437.116 164.378,469.09 347.622,469.09 "/>
<g>
	<polygon style="fill:#232E30;" points="208.905,437.116 181.914,437.116 164.378,469.09 191.369,469.09 	"/>
	<polygon style="fill:#232E30;" points="303.095,437.116 330.086,437.116 347.622,469.09 320.631,469.09 	"/>
</g>
<path style="fill:#4CE166;" d="M203.348,136.505c11.88,25.111,85.785-33.364,106.929-22.215
	c21.145,11.15-37.722,31.832-7.754,68.767s62.061,52.27,69.026,92.884s49.231,55.702,69.043,27.538
	c11.181-15.895,2.973-87.566,33.831-123.803V80.971H272.968C245.021,95.944,192.852,114.322,203.348,136.505z"/>
<path style="fill:#44C868;" d="M447.432,80.971v191.788c3.181-28.656,6.325-68.814,26.991-93.082V80.971H447.432z"/>
<ellipse style="fill:#FF4A4A;" cx="395.69" cy="144.261" rx="24.23" ry="24.286"/>
<path style="fill:#4CE166;" d="M156.772,254.124c-21.675,11.164-48.612-24.286-89.107-32.086
	c-11.802-2.273-21.811-1.143-30.089,1.582v116.467h139.963c11.859-14.691,37.843-27.771,39.44-54.923
	C219.388,244.239,178.447,242.96,156.772,254.124z"/>
<ellipse style="fill:#FF4A4A;" cx="119.3" cy="223.651" rx="24.23" ry="24.286"/>
<path d="M388.187,175.161v43.02c0,4.151,3.357,7.516,7.497,7.516c4.141,0,7.498-3.365,7.498-7.516v-43.02
	c13.885-3.387,24.226-15.951,24.226-30.897c0-17.535-14.231-31.801-31.724-31.801c-17.492,0-31.724,14.266-31.724,31.801
	C363.961,159.21,374.302,171.774,388.187,175.161z M395.684,127.495c9.225,0,16.729,7.523,16.729,16.769
	c0,9.247-7.504,16.77-16.729,16.77c-9.224,0-16.728-7.523-16.728-16.77C378.956,135.018,386.46,127.495,395.684,127.495z"/>
<path d="M504.502,32.526H298.879V7.517c0-4.151-3.357-7.516-7.498-7.516h-70.764c-4.141,0-7.498,3.365-7.498,7.516v25.009H7.498
	C3.357,32.526,0,35.891,0,40.042V80.97c0,4.151,3.357,7.516,7.498,7.516h22.581v40.746c0,4.151,3.357,7.516,7.497,7.516
	c4.141,0,7.498-3.365,7.498-7.516V88.486h195.539c-10.637,5.229-21.395,10.924-29.607,17.014
	c-15.043,11.156-19.899,22.67-14.432,34.226c4.621,9.767,14.699,12.809,29.955,9.041c10.876-2.685,23.877-8.554,36.449-14.23
	c14.93-6.739,37.489-16.928,43.809-13.594c0.122,0.064,0.232,0.125,0.331,0.182c-1.005,1.966-3.741,5.384-5.656,7.776
	c-5.031,6.285-11.291,14.106-13.903,23.812c-3.193,11.866-0.115,23.671,9.149,35.088c9.191,11.328,18.681,20.779,27.244,29.167
	c-3.12,1.121-5.231,4.227-4.941,7.695c0.328,3.923,3.605,6.889,7.463,6.889c0.209,0,0.421-0.009,0.634-0.027
	c3.208-0.269,6.487-0.493,9.744-0.667c0.324-0.017,0.64-0.062,0.951-0.118c13.153,13.651,22.995,26.861,26.359,46.476
	c4.118,24.015,20.039,42.531,40.559,47.174c3.129,0.708,6.231,1.055,9.274,1.055c12.897-0.001,24.708-6.234,32.726-17.632
	c5.278-7.503,6.741-21.023,8.766-39.735c2.055-18.994,4.458-41.152,11.44-59.984v49.635c0,4.151,3.357,7.516,7.498,7.516
	s7.497-3.365,7.497-7.516v-78.05v-91.19h22.582c4.141,0,7.498-3.365,7.498-7.516V40.042C512,35.891,508.643,32.526,504.502,32.526z
	 M228.115,15.033h55.769v17.493h-55.769V15.033z M466.926,176.991c-19.327,24.59-23.372,61.96-26.348,89.463
	c-1.509,13.947-3.069,28.367-6.113,32.694c-6.387,9.079-16.024,12.936-26.445,10.577c-11.072-2.505-25.332-13.189-29.082-35.057
	c-5.134-29.94-22.441-46.866-42.48-66.465c-9.214-9.012-18.741-18.331-28.119-29.888c-12.743-15.705-6.367-26.037,4.816-40.007
	c5.44-6.795,10.578-13.214,9.048-20.584c-0.872-4.2-3.71-7.593-8.437-10.086c-3.023-1.594-6.474-2.295-10.296-2.295
	c-12.346,0-28.558,7.318-46.652,15.487c-16.209,7.316-43.336,19.563-46.698,12.454c-5.244-11.084,26.561-26.307,47.607-36.38
	c6.108-2.923,11.911-5.701,17.098-8.418h192.099v88.505H466.926z M497.005,73.454h-22.581H272.968H37.576H14.995V47.558h205.623
	h70.764h205.623V73.454z"/>
<path d="M504.502,332.571H481.92v-44.78c0-4.151-3.357-7.516-7.497-7.516c-4.141,0-7.498,3.365-7.498,7.516v44.78H195.881
	c12.327-11.058,27.282-24.85,28.583-46.964c0.668-11.342-1.624-19.749-5.138-25.964c1.331-0.598,2.663-1.191,3.991-1.767
	c3.8-1.65,5.546-6.075,3.9-9.884c-1.646-3.807-6.058-5.561-9.86-3.909c-2.906,1.262-5.831,2.584-8.712,3.927
	c-0.233-0.16-0.466-0.317-0.698-0.469c-7.512-4.907-17.172-7.305-27.937-6.901c-9.342,0.339-18.812,2.754-26.664,6.799l0,0
	c-3.639,1.874-7.837,1.649-12.923-0.088c6.498-5.828,10.597-14.291,10.597-23.698c0-17.535-14.231-31.802-31.724-31.802
	c-16.322,0-29.8,12.423-31.531,28.332c-5.869-2.314-12.069-4.251-18.685-5.525c-8.262-1.591-16.299-1.77-24.006-0.551v-54.809
	c0-4.151-3.357-7.516-7.498-7.516s-7.497,3.365-7.497,7.516v64.324v108.949H7.498c-4.141,0-7.498,3.365-7.498,7.516v40.929
	c0,4.151,3.357,7.516,7.498,7.516h153.538L99.427,500.864c-1.277,2.328-1.233,5.159,0.117,7.447c1.349,2.287,3.803,3.69,6.453,3.69
	h38.968c2.734,0,5.253-1.492,6.57-3.895l17.277-31.501h40.093c4.141,0,7.498-3.365,7.498-7.516s-3.357-7.516-7.498-7.516h-31.849
	l9.292-16.941h139.304l9.292,16.941h-96.048c-4.141,0-7.497,3.365-7.497,7.516s3.357,7.516,7.497,7.516h104.293l17.277,31.501
	c1.317,2.403,3.836,3.895,6.57,3.895h38.968c2.651,0,5.104-1.403,6.453-3.69s1.394-5.118,0.117-7.447l-61.609-112.332h153.538
	c4.141,0,7.498-3.365,7.498-7.516v-40.929C512,335.936,508.643,332.571,504.502,332.571z M119.296,206.882
	c9.225,0,16.729,7.523,16.729,16.77c0,9.247-7.504,16.77-16.729,16.77c-9.224,0-16.729-7.523-16.729-16.77
	C102.568,214.405,110.072,206.882,119.296,206.882z M45.074,229.379c6.691-1.395,13.791-1.383,21.176,0.039
	c8.821,1.699,17.053,4.877,24.764,8.612c4.147,8.163,11.71,14.291,20.784,16.508v43.031c0,4.151,3.357,7.516,7.498,7.516
	s7.498-3.365,7.498-7.516v-39.734c11.528,5.652,22.637,8.521,33.405,2.974c11.004-5.666,28.609-7.829,39.562-0.673
	c7.145,4.667,10.42,12.94,9.735,24.587c-0.962,16.339-12.825,26.975-24.299,37.262c-3.988,3.576-7.801,6.994-11.083,10.587H45.074
	V229.379z M200.004,388.532l-59.472,108.437c-0.001,0.002,0.001-0.002,0,0l0,0h-21.857l59.473-108.437H200.004L200.004,388.532z
	 M194.592,429.6l22.524-41.068h77.768l22.524,41.068H194.592z M393.325,496.969h-21.857l0,0c-0.001-0.002,0.001,0.002,0,0
	l-59.473-108.437c-0.001-0.001,0.001,0.001,0,0l0,0h21.857L393.325,496.969z M497.005,373.5H14.995v-25.897l0,0l0,0h482.01l0,0
	V373.5"/>
<path d="M146.712,285.251c-5.279,4.087-8.099,6.635-8.217,6.742c-3.07,2.781-3.309,7.529-0.536,10.609
	c1.48,1.644,3.52,2.48,5.568,2.48c1.79,0,3.585-0.638,5.019-1.933c0.025-0.022,2.566-2.311,7.333-6.001
	c3.277-2.538,3.882-7.258,1.351-10.543C154.697,283.32,149.987,282.713,146.712,285.251z"/>
<path d="M179.966,280.533c2.757-1.709,5.582-3.401,8.396-5.03c3.586-2.077,4.814-6.673,2.743-10.268
	c-2.07-3.594-6.657-4.825-10.242-2.75c-2.944,1.705-5.899,3.475-8.783,5.263c-3.522,2.183-4.612,6.814-2.434,10.345
	c1.418,2.299,3.872,3.564,6.384,3.564C177.375,281.658,178.738,281.295,179.966,280.533z"/>
<path d="M248.344,247.746c0.787,0,1.588-0.125,2.376-0.389c3.078-1.03,6.214-2.031,9.321-2.971c3.964-1.2,6.207-5.394,5.01-9.369
	c-1.198-3.974-5.382-6.222-9.345-5.021c-3.246,0.983-6.521,2.027-9.736,3.102c-3.927,1.315-6.048,5.573-4.736,9.51
	C242.282,245.756,245.207,247.746,248.344,247.746z"/>
<path d="M366.142,230.643c3.185,0.122,6.407,0.294,9.577,0.509c0.172,0.011,0.343,0.017,0.513,0.017c3.91,0,7.206-3.04,7.473-7.009
	c0.279-4.142-2.843-7.725-6.975-8.006c-3.316-0.224-6.685-0.403-10.015-0.53c-4.173-0.177-7.621,3.075-7.779,7.222
	C358.779,226.993,362.005,230.484,366.142,230.643z"/>
<path d="M286.926,237.302c0.504,0,1.016-0.052,1.529-0.159c3.19-0.663,6.419-1.282,9.596-1.843c4.078-0.719,6.802-4.617,6.085-8.705
	s-4.605-6.816-8.684-6.1c-3.325,0.587-6.703,1.236-10.04,1.929c-4.055,0.842-6.661,4.82-5.821,8.884
	C280.327,234.86,283.447,237.302,286.926,237.302z"/>
<g>
</g>
<g>
</g>
<g>
</g>
<g>
</g>
<g>
</g>
<g>
</g>
<g>
</g>
<g>
</g>
<g>
</g>
<g>
</g>
<g>
</g>
<g>
</g>
<g>
</g>
<g>
</g>
<g>
</g>
</svg>
