<?xml version="1.0" encoding="iso-8859-1"?>
<!-- Generator: Adobe Illustrator 19.0.0, SVG Export Plug-In . SVG Version: 6.00 Build 0)  -->
<svg version="1.1" id="Capa_1" xmlns="http://www.w3.org/2000/svg" xmlns:xlink="http://www.w3.org/1999/xlink" x="0px" y="0px"
	 viewBox="0 0 511.999 511.999" style="enable-background:new 0 0 511.999 511.999;" xml:space="preserve">
<path style="fill:#A8EEFC;" d="M504.484,131.524H63.055v22.954v232.536c-30.184,0-54.725,24.083-55.502,54.079
	c0.777,28.701,24.27,51.733,53.158,51.733h443.771V131.524H504.484z"/>
<path style="fill:#7EE5F2;" d="M9.634,427.39c-1.238,4.372-1.957,8.963-2.079,13.704c0.777,28.701,24.27,51.733,53.158,51.733
	h443.771v-27.059H60.712C36.478,465.768,16.049,449.556,9.634,427.39z"/>
<path style="fill:#4CE166;" d="M143.88,131.524c0,0-17.643,83.188-80.825,84.586v-84.586H143.88z"/>
<path style="fill:#546F7A;" d="M63.055,387.015V43.399c-30.673,0-55.539,24.866-55.539,55.54v343.615
	C7.516,411.88,32.382,387.015,63.055,387.015z"/>
<path style="fill:#475D63;" d="M34.612,51.236C18.387,60.931,7.516,78.662,7.516,98.939v343.615
	c0-20.276,10.87-38.007,27.096-47.703C34.612,394.85,34.612,51.236,34.612,51.236z"/>
<g>
	<path style="fill:#4CE166;" d="M306.774,181.652c0,0-58.473,0.823-85.56,21.402c-20.78,15.788-23.687,32.899,52.269,16.28
		c55.517-12.146,77.787,12.695,65.816,24.353c-11.971,11.657-55.06,10.2-75.46,8.743c-20.401-1.457-21.858,10.2-43.716,30.601
		c-21.858,20.4-7.286,39.344,32.118,43.716s48.028,27.687,49.485,46.63c1.457,18.943-8.743,24.773-13.114,39.344
		s-1.457,39.344,17.486,48.087s43.716-20.4,50.857-27.687c7.141-7.286,7.43-42.258,11.802-52.46
		c4.371-10.2,33.955-33.851,33.955-33.851s-55.813-53.581-44.156-71.067s27.687-8.743,53.916,17.487
		c10.643,10.643,43.81-21.138,52.99-50.257c15.062-36.238,29.155-77.074,37.16-111.452H312.018
		c-9.876,6.082-19.069,12.155-23.757,16.322C275.145,159.504,306.774,181.652,306.774,181.652z"/>
	<path style="fill:#4CE166;" d="M117.978,290.487c7.393,17.256,28.286,5.691,45.544-1.702c17.256-7.393,28.27-39.587,20.877-56.843
		c-7.393-17.256-26.839-4.748-44.095,2.645C123.045,241.979,110.585,273.23,117.978,290.487z"/>
	<path style="fill:#4CE166;" d="M259.778,492.826c0,0-17.149-53.926-66.454-50.273c-49.305,3.654-30.011-23.142-66.454-19.927
		c-36.443,3.216-66.158,70.199-66.158,70.199h199.066V492.826z"/>
</g>
<path style="fill:#44C868;" d="M75.56,465.768c-9.275,14.5-14.848,27.059-14.848,27.059h199.066c0,0-4.415-13.865-15.19-27.059
	H75.56z"/>
<path style="fill:#4CE166;" d="M504.484,321.472c0,0-48.75,22.697-48.201,54.882c0.548,32.185-70.209,54.325-49.227,116.472h97.428
	V321.472z"/>
<path style="fill:#44C868;" d="M407.056,492.826h97.428v-27.059H403.38C402.691,473.895,403.685,482.842,407.056,492.826z"/>
<path style="fill:#FF4A4A;" d="M403.165,19.171c-36.566,0-66.209,29.643-66.209,66.209c0,55.685,66.209,106.918,66.209,106.918
	s66.209-51.235,66.209-106.918C469.375,48.815,439.732,19.171,403.165,19.171z M403.165,111.788
	c-14.585,0-26.407-11.823-26.407-26.407s11.823-26.407,26.407-26.407c14.585,0,26.407,11.823,26.407,26.407
	S417.75,111.788,403.165,111.788z"/>
<path style="fill:#E7343F;" d="M403.165,19.171c-4.637,0-9.161,0.481-13.529,1.388c30.077,6.246,52.68,32.892,52.68,64.821
	c0,39.502-33.314,76.758-52.68,95.08c7.933,7.505,13.529,11.839,13.529,11.839s66.209-51.235,66.209-106.918
	C469.375,48.815,439.732,19.171,403.165,19.171z"/>
<path d="M179.702,217.09c-10.558-4.049-22.958,1.692-34.952,7.243c-2.573,1.191-5.003,2.316-7.407,3.345
	c-21.068,9.026-35.31,44.677-26.274,65.769c2.525,5.895,6.491,9.94,11.786,12.019c2.763,1.085,5.659,1.551,8.654,1.551
	c9.374,0,19.692-4.574,29.748-9.033c1.767-0.784,3.514-1.558,5.224-2.291c10.042-4.302,18.717-14.908,23.798-29.097
	c4.889-13.647,5.272-27.708,1.027-37.615C188.776,223.074,184.871,219.073,179.702,217.09z M176.127,261.528
	c-3.571,9.968-9.535,17.764-15.566,20.348c-1.769,0.758-3.573,1.557-5.399,2.366c-9.463,4.197-21.242,9.421-26.812,7.232
	c-0.915-0.36-2.27-1.16-3.464-3.948c-5.809-13.559,4.838-40.232,18.376-46.032c2.603-1.114,5.245-2.338,7.802-3.522
	c8.3-3.843,18.632-8.621,23.253-6.85c0.508,0.195,1.859,0.714,3.172,3.776C180.236,241.311,179.713,251.514,176.127,261.528z"/>
<path d="M437.09,85.381c0-18.705-15.219-33.923-33.924-33.923c-18.706,0-33.924,15.218-33.924,33.923s15.218,33.924,33.924,33.924
	C421.871,119.304,437.09,104.086,437.09,85.381z M384.274,85.381c0-10.417,8.474-18.891,18.892-18.891
	c10.418,0,18.892,8.474,18.892,18.891s-8.474,18.892-18.892,18.892C392.748,104.272,384.274,95.797,384.274,85.381z"/>
<path d="M173.087,359.855c-5.819,2.052-9.148,3.035-9.181,3.045c-3.982,1.169-6.264,5.343-5.097,9.325
	c0.96,3.278,3.958,5.406,7.21,5.406c0.699,0,1.41-0.098,2.115-0.305c0.148-0.044,3.705-1.089,9.955-3.294
	c3.914-1.382,5.969-5.674,4.587-9.589C181.293,360.527,177,358.475,173.087,359.855z"/>
<path d="M361.124,246.556c1.435,1.286,3.228,1.919,5.014,1.919c2.062,0,4.115-0.843,5.6-2.499c2.284-2.548,4.545-5.136,6.721-7.693
	c2.691-3.161,2.308-7.905-0.854-10.595c-3.161-2.69-7.905-2.307-10.595,0.854c-2.093,2.458-4.268,4.949-6.466,7.401
	C357.773,239.033,358.033,243.785,361.124,246.556z"/>
<path d="M310.405,283.112c-2.566,2.048-5.182,4.091-7.775,6.07c-3.299,2.519-3.932,7.236-1.412,10.536
	c1.48,1.937,3.716,2.955,5.98,2.955c1.59,0,3.195-0.503,4.556-1.543c2.678-2.044,5.38-4.154,8.029-6.27
	c3.244-2.59,3.775-7.319,1.186-10.564C318.378,281.051,313.647,280.521,310.405,283.112z"/>
<path d="M340.039,257.16c-2.335,2.246-4.749,4.513-7.177,6.739c-3.06,2.806-3.265,7.56-0.459,10.62
	c1.482,1.616,3.509,2.436,5.541,2.436c1.815,0,3.635-0.653,5.078-1.976c2.513-2.306,5.016-4.655,7.437-6.984
	c2.991-2.877,3.085-7.636,0.206-10.628C347.791,254.375,343.032,254.281,340.039,257.16z"/>
<path d="M209.604,344.919c-2.995,1.379-6.03,2.738-9.02,4.04c-3.806,1.658-5.547,6.087-3.889,9.892
	c1.232,2.828,3.995,4.517,6.895,4.517c1.002,0,2.02-0.201,2.997-0.627c3.083-1.343,6.211-2.744,9.299-4.165
	c3.771-1.736,5.422-6.199,3.687-9.97C217.837,344.836,213.376,343.184,209.604,344.919z"/>
<path d="M150.75,354.032c-2.935-2.935-7.694-2.936-10.63,0l-11.692,11.692l-11.692-11.692c-2.935-2.934-7.694-2.936-10.63,0
	c-2.935,2.935-2.935,7.695,0,10.629l11.693,11.692l-11.693,11.692c-2.935,2.935-2.935,7.695,0,10.63
	c1.468,1.468,3.391,2.202,5.316,2.202c1.923,0,3.847-0.734,5.315-2.202l11.692-11.692l11.692,11.692
	c1.468,1.467,3.392,2.202,5.316,2.202c1.923,0,3.847-0.734,5.315-2.202c2.935-2.935,2.935-7.695,0-10.63l-11.692-11.692
	l11.692-11.692C153.685,361.727,153.685,356.967,150.75,354.032z"/>
<path d="M504.484,124.007h-1.861h-34.515c5.842-13.248,8.784-26.155,8.784-38.627c0-40.652-33.074-73.726-73.726-73.726
	c-9.95,0-19.605,1.95-28.7,5.797c-3.823,1.618-5.612,6.028-3.994,9.851c1.618,3.823,6.026,5.612,9.85,3.995
	c7.232-3.059,14.917-4.61,22.843-4.61c32.364,0,58.693,26.329,58.693,58.693c0,43.05-44.135,84.616-58.697,97.156
	c-14.571-12.526-58.69-54.025-58.69-97.156c0-13.859,4.92-27.309,13.853-37.874c2.681-3.17,2.284-7.912-0.886-10.592
	c-3.169-2.681-7.911-2.284-10.592,0.886c-11.225,13.274-17.408,30.172-17.408,47.58c0,13.397,3.461,26.441,8.825,38.627l0,0H70.573
	l0,0V43.4c0-4.151-3.364-7.516-7.516-7.516C28.287,35.884,0,64.17,0,98.939v343.616c0,0.569,0.069,1.122,0.189,1.656
	c1.099,14.764,7.479,28.483,18.153,38.894c11.398,11.117,26.445,17.239,42.369,17.239h443.771l0,0l0,0
	c4.152,0,7.516-3.365,7.516-7.516l0,0V131.524C512,127.373,508.635,124.007,504.484,124.007z M346.02,139.04
	c15.807,26.758,38.567,47.521,48.133,55.601c-1.296,0.541-2.457,1.447-3.308,2.695c-1.838,2.695-3.735,5.399-5.64,8.036
	c-2.43,3.365-1.673,8.063,1.693,10.494c1.331,0.961,2.869,1.423,4.396,1.423c2.331,0,4.63-1.081,6.099-3.116
	c1.984-2.747,3.96-5.562,5.873-8.369c1.264-1.853,1.578-4.069,1.067-6.084c1.221-0.191,2.405-0.681,3.433-1.477
	c0.702-0.543,17.389-13.537,34.267-33.697c7.206-8.606,13.304-17.115,18.287-25.506h32.726
	c-7.65,29.891-20.006,66.12-34.524,101.052c-0.085,0.204-0.16,0.413-0.228,0.625c-3.583,11.367-11.635,24.247-21.54,34.455
	c-10.251,10.567-17.375,12.933-19.069,12.643c-18.166-18.153-33.132-29.944-47.045-28.574c-7.185,0.712-13.354,4.862-18.337,12.336
	c-7.053,10.58-1.303,26.774,18.097,50.962c7.679,9.575,15.805,18.258,21.138,23.73c-9.7,8.168-25.952,22.716-29.688,31.433
	c-2.208,5.151-3.329,13.66-4.629,23.511c-1.095,8.297-3.132,23.739-5.632,26.648c-0.675,0.689-1.501,1.564-2.461,2.583
	c-6.817,7.229-27.552,29.226-39.878,23.542c-14.424-6.657-17.071-26.987-13.437-39.104c1.335-4.449,3.372-8.04,5.53-11.843
	c4.213-7.427,8.988-15.844,7.88-30.237c-1.777-23.089-12.877-39.218-32.432-47.594c0.544-0.189,1.079-0.427,1.586-0.752
	c2.854-1.825,5.72-3.698,8.521-5.57c3.451-2.306,4.379-6.974,2.073-10.426c-2.307-3.452-6.975-4.379-10.426-2.073
	c-2.717,1.815-5.498,3.633-8.267,5.403c-3.475,2.222-4.503,6.824-2.323,10.313c-4.598-1.29-9.561-2.235-14.884-2.825
	c-18.985-2.107-32.817-8.183-35.236-15.48c-1.84-5.547,3.858-11.949,7.417-15.271c6.626-6.184,11.478-11.628,15.376-16.002
	c8.277-9.287,11.325-12.708,19.798-12.708c0.895,0,1.851,0.038,2.878,0.111c10.731,0.767,26.71,1.485,41.889,0.551
	c19.851-1.22,32.722-4.951,39.352-11.407c5.902-5.746,7.076-13.945,3.067-21.396c-4.232-7.861-13.489-13.862-26.069-16.897
	c-13.727-3.311-30.9-2.892-49.664,1.213c-38.211,8.36-51.151,6.872-55.078,5.747c1.128-1.729,3.717-4.716,8.961-8.702
	c24.751-18.805,80.417-19.861,81.118-19.872c3.258-0.045,6.114-2.188,7.074-5.301c0.961-3.114-0.196-6.493-2.862-8.367
	c-8.709-6.12-18.218-15.915-18.494-20.743c-0.022-0.391-0.038-0.673,0.657-1.292c2.488-2.213,8.131-6.491,20.9-14.424h31.866V139.04
	z M134.012,139.04c-6.083,19.267-24.085,62.968-63.439,68.9v-68.9H134.012z M72.785,485.31
	c11.082-20.812,32.816-53.261,54.746-55.195c13.39-1.183,16.471,1.939,21.141,6.661c8.379,8.474,17.565,15.323,45.208,13.274
	c17.678-1.313,32.838,5.629,45.021,20.632c4.135,5.091,7.25,10.32,9.458,14.629H72.785z M496.967,485.31H412.65
	c-8.005-30.931,9.983-49.923,27.408-68.318c2.824-2.982,5.492-5.799,8.046-8.666c2.76-3.1,2.484-7.851-0.615-10.612
	c-3.098-2.76-7.849-2.485-10.612,0.614c-2.399,2.694-4.99,5.429-7.733,8.325c-16.92,17.862-39.59,41.795-31.922,78.656H264.946
	c-2.337-5.544-6.829-14.702-14.044-23.694c-15.292-19.061-35.405-28.249-58.135-26.557c-22.969,1.704-28.041-3.424-33.407-8.852
	c-7.209-7.291-14.225-12.735-33.151-11.067c-34.739,3.066-62.3,53.92-70.154,69.939c-22.653-2.248-40.256-20.747-40.984-43.99
	c0.069-2.312,0.304-4.596,0.694-6.84c0.011-0.065,0.023-0.13,0.035-0.195c0.117-0.658,0.25-1.313,0.394-1.964
	c0.035-0.156,0.072-0.313,0.108-0.469c0.129-0.556,0.268-1.109,0.416-1.66c0.073-0.268,0.149-0.532,0.226-0.798
	c0.126-0.437,0.256-0.872,0.395-1.304c0.125-0.39,0.259-0.778,0.395-1.164c0.106-0.304,0.211-0.608,0.324-0.91
	c0.193-0.518,0.398-1.031,0.608-1.54c0.069-0.169,0.137-0.34,0.208-0.508c0.272-0.636,0.556-1.266,0.855-1.887
	c0.021-0.045,0.041-0.09,0.063-0.134c6.406-13.248,18.722-23.124,33.502-26.188c0.04-0.008,0.08-0.018,0.12-0.027
	c0.678-0.138,1.363-0.258,2.051-0.368c0.115-0.018,0.228-0.041,0.344-0.058c0.623-0.095,1.253-0.169,1.884-0.241
	c0.175-0.019,0.349-0.046,0.525-0.063c0.607-0.061,1.22-0.102,1.834-0.139c0.194-0.012,0.387-0.032,0.581-0.042
	c0.803-0.04,1.61-0.061,2.422-0.061c4.152,0,7.516-3.365,7.516-7.516v-59.805c0-4.151-3.364-7.516-7.516-7.516
	s-7.516,3.365-7.516,7.516v52.733c-0.993,0.117-1.979,0.266-2.961,0.429c-0.062,0.01-0.123,0.023-0.185,0.033
	c-0.921,0.156-1.835,0.335-2.745,0.531c-0.064,0.014-0.128,0.029-0.192,0.043c-11.395,2.498-21.899,8.121-30.43,16.45
	c-1.405,1.372-2.734,2.803-3.993,4.281V98.939c0-23.923,17.585-43.817,40.508-47.436l0,0v245.639l0,0
	c0,4.151,3.364,7.516,7.516,7.516s7.516-3.365,7.516-7.516v-74.039c25.405-3.019,47.097-18.79,63.071-46.007
	c8.885-15.139,13.823-30.062,16.073-38.057h137.46c-1.517,1.159-2.822,2.221-3.91,3.189c-4.016,3.569-5.98,8.203-5.678,13.399
	c0.404,6.971,5.151,13.961,10.448,19.676c-20.318,1.99-52.398,7.354-71.369,21.766c-13.268,10.081-18.143,19.205-14.489,27.118
	c3.823,8.282,15.475,15.059,72.912,2.491c20.915-4.576,34.888-3.224,42.927-1.285c9.57,2.308,14.724,6.374,16.356,9.408
	c1.041,1.934,0.444,2.76-0.317,3.502c-5.123,4.989-26.445,9.719-69.682,6.63c-18.137-1.298-25.199,6.625-34.97,17.59
	c-3.885,4.359-8.289,9.301-14.41,15.014c-6.191,5.778-15.908,17.488-11.429,30.993c3.592,10.832,15.05,18.811,32.793,23.102
	c-0.064,0.034-0.128,0.07-0.192,0.104c-3.663,1.954-5.048,6.507-3.095,10.169c1.353,2.536,3.951,3.981,6.638,3.981
	c1.194,0,2.403-0.286,3.531-0.886c2.985-1.592,5.99-3.233,8.932-4.877c2.063-1.152,3.369-3.134,3.74-5.295
	c24.356,3.891,36.572,16.411,38.321,39.126c0.755,9.816-2.212,15.047-5.968,21.668c-2.358,4.156-5.032,8.868-6.853,14.94
	c-5.157,17.191-1.884,46.263,21.537,57.072c3.518,1.624,7.091,2.333,10.664,2.332c18.903-0.003,37.645-19.874,46.451-29.209
	c0.882-0.935,1.641-1.74,2.261-2.373c5.556-5.669,7.409-17.082,9.799-35.204c1.008-7.644,2.151-16.307,3.543-19.555
	c2.238-5.223,18.218-20.128,31.74-30.942c1.691-1.352,2.716-3.367,2.814-5.53c0.099-2.163-0.741-4.262-2.301-5.762
	c-0.137-0.131-13.827-13.322-25.871-28.355c-17.603-21.975-18.411-31.359-17.236-33.121c3.193-4.79,5.701-5.556,7.311-5.715
	c8.706-0.862,24.171,13.482,35.037,24.347c2.254,2.255,7.287,5.73,15.67,3.679c17.655-4.32,41.726-31.796,49.701-56.665
	c9.206-22.175,17.561-44.884,24.44-66.246v137.544c-12.753,6.82-48.725,28.809-48.2,59.624c0.071,4.152,3.48,7.424,7.644,7.387
	c4.151-0.071,7.457-3.493,7.387-7.644c-0.296-17.303,18.82-33.126,33.17-42.05V485.31H496.967z"/>
<g>
</g>
<g>
</g>
<g>
</g>
<g>
</g>
<g>
</g>
<g>
</g>
<g>
</g>
<g>
</g>
<g>
</g>
<g>
</g>
<g>
</g>
<g>
</g>
<g>
</g>
<g>
</g>
<g>
</g>
</svg>
