<?xml version="1.0" encoding="iso-8859-1"?>
<!-- Generator: Adobe Illustrator 19.0.0, SVG Export Plug-In . SVG Version: 6.00 Build 0)  -->
<svg version="1.1" id="Capa_1" xmlns="http://www.w3.org/2000/svg" xmlns:xlink="http://www.w3.org/1999/xlink" x="0px" y="0px"
	 viewBox="0 0 512 512" style="enable-background:new 0 0 512 512;" xml:space="preserve">
<ellipse style="fill:#FFDB56;" cx="435.99" cy="243.31" rx="68.48" ry="27.772"/>
<path style="fill:#FFBB24;" d="M495.86,229.828c-11.694,8.521-34.115,14.289-59.868,14.289s-48.174-5.768-59.868-14.289
	c-5.48,3.993-8.613,8.589-8.613,13.483c0,15.338,30.66,27.772,68.481,27.772s68.481-12.434,68.481-27.772
	C504.473,238.417,501.34,233.821,495.86,229.828z"/>
<ellipse style="fill:#FF4A4A;" cx="435.99" cy="64.946" rx="57.59" ry="57.31"/>
<path style="fill:#E7343F;" d="M435.992,7.635c-4.669,0-9.202,0.567-13.549,1.611c25.266,6.065,44.042,28.694,44.042,55.7
	s-18.776,49.634-44.042,55.7c4.347,1.043,8.88,1.61,13.549,1.61c31.807,0,57.591-25.659,57.591-57.311S467.799,7.635,435.992,7.635z
	"/>
<path style="fill:#E2E2E2;" d="M435.992,122.256c-5.066,0-9.977-0.657-14.658-1.879v109.08c0,7.651,6.233,13.854,13.922,13.854
	h1.473c7.689,0,13.922-6.203,13.922-13.854v-109.08C445.97,121.599,441.058,122.256,435.992,122.256z"/>
<path style="fill:#C6C5CA;" d="M421.334,120.377v26.966c4.681,1.222,9.592,1.879,14.658,1.879c5.066,0,9.978-0.657,14.658-1.879
	v-26.966c-4.681,1.223-9.592,1.879-14.658,1.879C430.926,122.256,426.015,121.599,421.334,120.377z"/>
<ellipse style="fill:#FFDB56;" cx="96.64" cy="468.23" rx="89.11" ry="36.14"/>
<path style="fill:#FFBB24;" d="M179.334,454.743c-13.177,13.28-45.235,22.655-82.696,22.655s-69.518-9.375-82.696-22.655
	c-4.134,4.167-6.415,8.717-6.415,13.483c0,19.959,39.896,36.138,89.11,36.138s89.11-16.18,89.11-36.138
	C185.748,463.46,183.468,458.91,179.334,454.743z"/>
<ellipse style="fill:#FF4A4A;" cx="96.64" cy="236.13" rx="74.94" ry="74.58"/>
<path style="fill:#E7343F;" d="M96.638,161.555c-4.629,0-9.152,0.439-13.549,1.239c34.917,6.349,61.391,36.756,61.391,73.336
	s-26.474,66.987-61.391,73.336c4.397,0.799,8.92,1.239,13.549,1.239c41.388,0,74.94-33.388,74.94-74.575
	C171.578,194.943,138.026,161.555,96.638,161.555z"/>
<path style="fill:#E2E2E2;" d="M96.638,310.705c-6.592,0-12.983-0.855-19.074-2.446v140.986c0,10.483,8.54,18.981,19.074,18.981l0,0
	c10.534,0,19.074-8.498,19.074-18.981V308.259C109.621,309.85,103.23,310.705,96.638,310.705z"/>
<path style="fill:#C6C5CA;" d="M77.564,308.259v26.966c6.091,1.591,12.481,2.445,19.074,2.445c6.593,0,12.983-0.855,19.074-2.445
	v-26.966c-6.091,1.591-12.481,2.446-19.074,2.446S83.655,309.85,77.564,308.259z"/>
<path d="M210.86,463.306c-0.011,0-0.023,0-0.034,0l-5.018,0.022c-4.157,0.018-7.512,3.387-7.493,7.524
	c0.019,4.126,3.385,7.457,7.527,7.457c0.011,0,0.023,0,0.034,0l5.018-0.022c4.157-0.019,7.512-3.387,7.493-7.524
	C218.368,466.637,215.002,463.306,210.86,463.306z"/>
<path d="M324.213,350.215c4.158,0,7.527-3.354,7.527-7.491s-3.37-7.491-7.527-7.491h-9.942c-4.158,0-7.527,3.354-7.527,7.491
	s3.37,7.491,7.527,7.491H324.213z"/>
<path d="M315.282,253.189c4.158,0,7.527-3.354,7.527-7.491s-3.37-7.49-7.527-7.49h-3.437c-2.498,0-5.014,0.165-7.475,0.491
	c-4.121,0.545-7.019,4.311-6.471,8.412c0.503,3.766,3.735,6.505,7.452,6.505c0.33,0,0.665-0.022,1.001-0.066
	c1.807-0.239,3.656-0.36,5.493-0.36h3.437V253.189z"/>
<path d="M363.982,350.215c4.158,0,7.527-3.354,7.527-7.491s-3.37-7.491-7.527-7.491h-9.942c-4.158,0-7.527,3.354-7.527,7.491
	s3.37,7.491,7.527,7.491H363.982z"/>
<path d="M267.828,272.028c1.329,0.951,2.864,1.407,4.385,1.407c2.341,0,4.649-1.084,6.12-3.121c1.634-2.264,3.507-4.37,5.565-6.261
	c3.056-2.805,3.248-7.544,0.429-10.585c-2.818-3.04-7.58-3.232-10.636-0.427c-2.806,2.576-5.358,5.447-7.586,8.532
	C263.681,264.935,264.452,269.615,267.828,272.028z"/>
<path d="M290.396,462.946c-0.012,0-0.023,0-0.035,0l-9.942,0.045c-4.157,0.019-7.512,3.388-7.493,7.525
	c0.019,4.125,3.385,7.457,7.526,7.457c0.012,0,0.024,0,0.035,0l9.942-0.045c4.157-0.019,7.512-3.388,7.493-7.525
	C297.904,466.277,294.537,462.946,290.396,462.946z"/>
<path d="M250.628,463.126c-0.012,0-0.023,0-0.035,0l-9.942,0.045c-4.157,0.019-7.512,3.388-7.493,7.525
	c0.019,4.125,3.385,7.456,7.526,7.456c0.012,0,0.024,0,0.035,0l9.942-0.045c4.157-0.019,7.512-3.388,7.493-7.525
	C258.136,466.457,254.77,463.126,250.628,463.126z"/>
<path d="M271.383,302.108c-0.505-2.582-0.762-5.24-0.762-7.897l0.002-0.416c0.049-4.137-3.281-7.529-7.439-7.577
	c-0.029,0-0.059,0-0.089,0c-4.116,0-7.477,3.297-7.525,7.403l-0.003,0.591c0,3.617,0.35,7.238,1.04,10.762
	c0.7,3.577,3.85,6.06,7.38,6.06c0.476,0,0.962-0.045,1.447-0.139C269.515,310.102,272.178,306.169,271.383,302.108z"/>
<path d="M285.864,342.764c2.498,0,4.942-1.237,6.373-3.495c2.219-3.499,1.166-8.125-2.349-10.332
	c-2.366-1.485-4.591-3.219-6.612-5.153c-2.995-2.867-7.761-2.774-10.643,0.208c-2.882,2.982-2.788,7.724,0.209,10.591
	c2.754,2.635,5.787,4.999,9.013,7.025C283.101,342.39,284.491,342.764,285.864,342.764z"/>
<path d="M330.129,462.766l-9.941,0.045c-4.157,0.019-7.512,3.388-7.493,7.525c0.019,4.125,3.385,7.456,7.526,7.456
	c0.012,0,0.024,0,0.035,0l9.941-0.045c4.157-0.019,7.512-3.388,7.493-7.525C337.672,466.085,334.264,462.716,330.129,462.766z"/>
<path d="M448.413,461.738c-2.473,0.339-5.001,0.516-7.511,0.527l-1.409,0.006c-4.157,0.019-7.512,3.387-7.493,7.524
	c0.019,4.126,3.385,7.457,7.526,7.457c0.012,0,0.023,0,0.035,0l1.409-0.006c3.171-0.015,6.365-0.239,9.492-0.667
	c4.118-0.563,6.998-4.343,6.432-8.441C456.329,464.039,452.526,461.18,448.413,461.738z"/>
<path d="M440.646,350.215c0.851,0,1.698,0.018,2.539,0.056c0.114,0.005,0.226,0.007,0.339,0.007c4.004,0,7.335-3.139,7.513-7.159
	c0.184-4.133-3.033-7.632-7.186-7.815c-1.058-0.047-2.136-0.07-3.205-0.07h-7.069c-4.158,0-7.527,3.354-7.527,7.491
	s3.37,7.491,7.527,7.491L440.646,350.215L440.646,350.215z"/>
<path d="M409.666,462.406l-9.942,0.045c-4.157,0.019-7.512,3.388-7.493,7.525c0.019,4.125,3.385,7.456,7.526,7.456
	c0.012,0,0.023,0,0.035,0l9.942-0.045c4.157-0.019,7.512-3.388,7.493-7.525C417.209,465.726,413.858,462.371,409.666,462.406z"/>
<path d="M480.166,363.855c2.225,0,4.427-0.977,5.913-2.849c2.576-3.247,2.019-7.957-1.244-10.521
	c-2.899-2.277-5.999-4.346-9.214-6.149c-3.622-2.031-8.212-0.756-10.253,2.849c-2.041,3.604-0.759,8.172,2.863,10.203
	c2.539,1.423,4.986,3.057,7.275,4.856C476.888,363.328,478.533,363.855,480.166,363.855z"/>
<path d="M504.765,410.688c-4.079-0.766-8.021,1.91-8.79,5.976c-0.54,2.85-1.308,5.679-2.287,8.406
	c-1.397,3.897,0.646,8.182,4.561,9.571c0.836,0.297,1.689,0.437,2.529,0.437c3.092,0,5.991-1.912,7.09-4.976
	c1.241-3.462,2.216-7.052,2.9-10.668C511.538,415.37,508.85,411.453,504.765,410.688z"/>
<path d="M479.474,446.81c-2.115,2.004-4.401,3.858-6.796,5.511c-3.416,2.357-4.265,7.023-1.898,10.423
	c1.462,2.098,3.808,3.223,6.193,3.223c1.479,0,2.974-0.433,4.282-1.335c3.032-2.092,5.926-4.438,8.602-6.975
	c3.01-2.853,3.126-7.595,0.259-10.59S482.485,443.958,479.474,446.81z"/>
<path d="M403.751,350.215c4.158,0,7.527-3.354,7.527-7.491s-3.37-7.491-7.527-7.491h-9.942c-4.158,0-7.527,3.354-7.527,7.491
	s3.37,7.491,7.527,7.491H403.751z"/>
<path d="M369.898,462.586l-9.942,0.045c-4.158,0.019-7.511,3.388-7.493,7.525c0.019,4.126,3.385,7.456,7.526,7.456
	c0.012,0,0.023,0,0.035,0l9.942-0.045c4.158-0.019,7.511-3.388,7.493-7.525C377.441,465.904,374.061,462.543,369.898,462.586z"/>
<path d="M495.336,372.629c-3.768,1.749-5.397,6.207-3.639,9.955c1.233,2.631,2.266,5.376,3.069,8.159
	c0.948,3.286,3.96,5.426,7.231,5.426c0.688,0,1.387-0.095,2.081-0.293c3.996-1.142,6.305-5.29,5.158-9.267
	c-1.02-3.536-2.331-7.021-3.896-10.36C503.582,372.502,499.104,370.881,495.336,372.629z"/>
<path d="M357.852,245.698c0-4.137-3.37-7.49-7.527-7.49h-5.018c-4.158,0-7.527,3.354-7.527,7.49c0,4.137,3.37,7.491,7.527,7.491
	h5.018C354.483,253.189,357.852,249.835,357.852,245.698z"/>
<path d="M487.256,269.886C503.212,263.415,512,253.977,512,243.311s-8.788-20.104-24.744-26.574
	c-8.334-3.38-18.284-5.822-29.079-7.243v-16.697c0-4.137-3.37-7.49-7.527-7.49c-4.158,0-7.527,3.354-7.527,7.49v36.661
	c0,3.509-2.869,6.363-6.394,6.363h-1.473c-3.525,0-6.394-2.854-6.394-6.363V129.359c0.061,0.007,0.122,0.008,0.183,0.015
	c0.876,0.093,1.759,0.158,2.645,0.216c0.273,0.018,0.544,0.048,0.818,0.062c1.155,0.061,2.316,0.095,3.486,0.095
	c1.169,0,2.331-0.034,3.485-0.095c0.278-0.015,0.554-0.045,0.831-0.063c0.878-0.058,1.755-0.122,2.623-0.214
	c0.063-0.007,0.127-0.009,0.19-0.016v33.474c0,4.137,3.37,7.491,7.527,7.491c4.158,0,7.527-3.354,7.527-7.491V125.87
	c25.016-9.049,42.934-32.942,42.934-60.924c0-35.731-29.212-64.801-65.118-64.801s-65.118,29.07-65.118,64.801
	c0,27.982,17.917,51.875,42.933,60.924v83.622c-10.795,1.422-20.744,3.865-29.079,7.245c-15.956,6.471-24.744,15.909-24.744,26.574
	c0,10.666,8.788,20.104,24.744,26.575c13.816,5.603,32.021,8.688,51.265,8.688C455.235,278.574,473.441,275.489,487.256,269.886z
	 M385.929,64.946c0-27.471,22.458-49.82,50.064-49.82s50.064,22.349,50.064,49.82c0,23.137-15.932,42.639-37.452,48.216
	c-0.94,0.243-1.887,0.457-2.84,0.644c-0.198,0.039-0.4,0.07-0.599,0.107c-0.804,0.148-1.612,0.279-2.423,0.388
	c-0.219,0.029-0.438,0.057-0.657,0.083c-0.866,0.104-1.734,0.188-2.604,0.248c-0.128,0.009-0.255,0.021-0.384,0.029
	c-2.067,0.126-4.142,0.126-6.209,0c-0.13-0.008-0.259-0.021-0.389-0.03c-0.868-0.06-1.734-0.143-2.597-0.247
	c-0.222-0.027-0.443-0.054-0.664-0.084c-0.807-0.108-1.61-0.238-2.41-0.385c-0.203-0.038-0.409-0.069-0.612-0.109
	c-0.95-0.187-1.894-0.4-2.831-0.642C401.863,107.587,385.929,88.084,385.929,64.946z M375.039,243.311
	c0-2.983,4.025-8.1,15.371-12.701c6.69-2.713,14.668-4.735,23.397-6.008v4.856c0,11.769,9.622,21.344,21.449,21.344h1.473
	c11.827,0,21.449-9.575,21.449-21.344v-4.855c8.729,1.274,16.707,3.294,23.397,6.008c11.346,4.601,15.371,9.718,15.371,12.701
	c0,2.984-4.025,8.1-15.371,12.701c-12.053,4.888-28.242,7.581-45.582,7.581c-17.341,0-33.53-2.692-45.583-7.581
	C379.064,251.411,375.039,246.294,375.039,243.311z"/>
<path d="M123.239,426.233v-28.528c0-4.137-3.37-7.491-7.527-7.491s-7.527,3.354-7.527,7.491v51.54c0,6.336-5.18,11.49-11.547,11.49
	s-11.547-5.155-11.547-11.49V317.391c0.988,0.138,1.979,0.257,2.972,0.36c0.236,0.025,0.475,0.039,0.712,0.062
	c1.009,0.096,2.019,0.172,3.031,0.23c0.374,0.022,0.749,0.042,1.125,0.059c1.178,0.052,2.357,0.087,3.537,0.089
	c0.057,0,0.113,0.004,0.17,0.004s0.112-0.004,0.169-0.004c1.178-0.002,2.355-0.037,3.532-0.089c0.381-0.017,0.76-0.037,1.139-0.059
	c1.004-0.058,2.006-0.134,3.006-0.228c0.244-0.023,0.49-0.039,0.733-0.064c0.992-0.103,1.982-0.221,2.968-0.359v50.352
	c0,4.137,3.37,7.491,7.527,7.491s7.527-3.354,7.527-7.491V313.79c32.455-11.04,55.866-41.67,55.866-77.659
	c0-45.251-36.995-82.066-82.467-82.066c-14.04,0-27.907,3.576-40.101,10.34c-3.631,2.014-4.934,6.576-2.91,10.19
	c2.025,3.613,6.608,4.91,10.24,2.895c9.959-5.524,21.291-8.444,32.771-8.444c37.172,0,67.413,30.094,67.413,67.084
	c0,31.19-21.501,57.475-50.528,64.952c-0.074,0.019-0.149,0.035-0.223,0.054c-0.881,0.224-1.771,0.425-2.665,0.614
	c-0.236,0.049-0.471,0.102-0.708,0.148c-0.891,0.178-1.789,0.337-2.692,0.48c-0.354,0.056-0.71,0.103-1.065,0.153
	c-0.599,0.085-1.201,0.16-1.805,0.229c-0.407,0.046-0.813,0.097-1.22,0.136c-0.802,0.077-1.609,0.135-2.419,0.184
	c-0.475,0.028-0.951,0.049-1.427,0.068c-0.543,0.021-1.088,0.033-1.634,0.041c-0.685,0.01-1.37,0.01-2.055,0
	c-0.545-0.008-1.088-0.02-1.629-0.041c-0.477-0.018-0.955-0.039-1.432-0.068c-0.808-0.048-1.613-0.107-2.413-0.183
	c-0.411-0.039-0.821-0.09-1.231-0.137c-0.599-0.068-1.195-0.143-1.789-0.227c-0.36-0.05-0.719-0.098-1.078-0.155
	c-0.9-0.142-1.795-0.301-2.683-0.478c-0.24-0.048-0.48-0.101-0.72-0.151c-0.889-0.188-1.773-0.388-2.649-0.61
	c-0.078-0.02-0.157-0.037-0.235-0.057c-29.025-7.478-50.525-33.763-50.525-64.951c0-15.312,5.047-29.728,14.594-41.69
	c2.586-3.24,2.043-7.951-1.212-10.524s-7.99-2.032-10.576,1.206C20.347,199.761,14.17,217.399,14.17,236.13
	c0,35.989,23.411,66.619,55.866,77.659V426.24C32.703,430.873,0,445.261,0,468.226c0,28.338,49.79,43.629,96.638,43.629
	s96.638-15.291,96.638-43.629C193.275,445.261,160.574,430.866,123.239,426.233z M96.638,496.874
	c-50.546,0-81.583-16.685-81.583-28.648c0-9.689,20.383-22.463,54.982-26.973v7.992c0,14.596,11.933,26.471,26.601,26.471
	s26.602-11.875,26.602-26.471v-7.996c34.603,4.509,54.982,17.288,54.982,26.977C178.221,480.189,147.184,496.874,96.638,496.874z"/>
<g>
</g>
<g>
</g>
<g>
</g>
<g>
</g>
<g>
</g>
<g>
</g>
<g>
</g>
<g>
</g>
<g>
</g>
<g>
</g>
<g>
</g>
<g>
</g>
<g>
</g>
<g>
</g>
<g>
</g>
</svg>
