<?xml version="1.0" encoding="iso-8859-1"?>
<!-- Generator: Adobe Illustrator 19.0.0, SVG Export Plug-In . SVG Version: 6.00 Build 0)  -->
<svg version="1.1" id="Capa_1" xmlns="http://www.w3.org/2000/svg" xmlns:xlink="http://www.w3.org/1999/xlink" x="0px" y="0px"
	 viewBox="0 0 512 512" style="enable-background:new 0 0 512 512;" xml:space="preserve">
<path style="fill:#FF4A4A;" d="M256,7.502c105.051,0,190.212,85.095,190.212,190.067C446.212,357.42,256,504.498,256,504.498
	S65.788,357.42,65.788,197.569C65.788,92.598,150.949,7.502,256,7.502z"/>
<g>
	<path style="fill:#E7343F;" d="M256,7.502c-6.078,0-12.087,0.297-18.019,0.855c96.598,9.072,172.193,90.315,172.193,189.212
		c0,129.458-124.751,250.534-172.193,291.897C249.119,499.176,256,504.498,256,504.498s190.212-147.078,190.212-306.93
		C446.212,92.598,361.05,7.502,256,7.502z"/>
	<ellipse style="fill:#E7343F;" cx="256.001" cy="197.57" rx="129.978" ry="129.878"/>
</g>
<polygon style="fill:#FFDB57;" points="256.001,107.831 347.005,192.935 320.318,192.935 320.318,262.764 273.847,262.764 
	273.847,220.161 256.001,220.161 238.155,220.161 238.155,262.764 191.685,262.764 191.685,192.935 164.997,192.935 "/>
<path d="M306.765,448.408c-22.903,23.113-42.275,39.525-50.764,46.468c-12.96-10.605-51.318-43.325-89.35-88.714
	c-27.224-32.489-48.892-64.958-64.403-96.505c-19.21-39.071-28.951-76.782-28.951-112.087c0-55.349,24.719-107.093,67.82-141.964
	c3.222-2.608,3.72-7.332,1.11-10.552c-2.61-3.22-7.338-3.717-10.56-1.11C85.028,81.677,58.28,137.671,58.28,197.569
	c0,37.618,10.258,77.555,30.489,118.703c16.042,32.627,38.372,66.111,66.367,99.522c47.527,56.72,94.3,93.116,96.268,94.638
	c1.352,1.046,2.974,1.569,4.595,1.569s3.242-0.523,4.595-1.569c1.021-0.789,25.351-19.688,56.841-51.468
	c2.917-2.944,2.894-7.694-0.053-10.609C314.437,445.439,309.683,445.463,306.765,448.408z"/>
<path d="M256,0c-34.572,0-68.598,9.049-98.401,26.169c-3.595,2.064-4.834,6.651-2.767,10.243c2.066,3.592,6.655,4.829,10.251,2.765
	C192.612,23.363,224.051,15.005,256,15.005c100.743,0,182.704,81.898,182.704,182.565c0,88.178-60.305,173.025-110.895,228.677
	c-2.788,3.067-2.56,7.812,0.51,10.598c1.439,1.305,3.245,1.949,5.045,1.949c2.042,0,4.078-0.828,5.56-2.458
	c52.37-57.609,114.796-145.797,114.796-238.765C453.72,88.629,365.023,0,256,0z"/>
<path d="M287.792,331.256c29.606-7.005,56.445-24.004,75.571-47.866c19.425-24.234,30.122-54.712,30.122-85.821
	c0-75.752-61.675-137.381-137.485-137.381S118.514,121.817,118.514,197.57c0,75.751,61.675,137.38,137.486,137.38
	c4.146,0,7.508-3.359,7.508-7.502c0-4.143-3.362-7.502-7.508-7.502c-67.53,0-122.47-54.897-122.47-122.376
	S188.469,75.194,256,75.194c67.53,0,122.469,54.897,122.469,122.376c0,28.114-9.276,54.547-26.825,76.441
	c-17.043,21.263-40.947,36.408-67.311,42.644c-4.035,0.955-6.531,4.997-5.576,9.03C279.711,329.716,283.758,332.206,287.792,331.256
	z"/>
<path d="M273.848,270.266h46.47c4.146,0,7.508-3.359,7.508-7.502v-62.326h19.179c3.082,0,5.851-1.882,6.983-4.747
	c1.132-2.864,0.397-6.128-1.853-8.234l-91.003-85.103c-2.887-2.699-7.374-2.699-10.261,0l-91.004,85.103
	c-2.25,2.104-2.985,5.37-1.853,8.234c1.132,2.865,3.901,4.747,6.983,4.747h19.179v62.326c0,4.143,3.362,7.502,7.508,7.502h46.47
	c4.146,0,7.508-3.359,7.508-7.502v-35.099h20.676v35.099C266.34,266.907,269.701,270.266,273.848,270.266z M238.155,212.66
	c-4.146,0-7.508,3.359-7.508,7.502v35.099h-31.454v-62.326c0-4.143-3.362-7.502-7.508-7.502h-7.677l71.993-67.326l71.994,67.326
	h-7.677c-4.146,0-7.508,3.359-7.508,7.502v62.326h-31.454v-35.099c0-4.143-3.362-7.502-7.508-7.502H238.155z"/>
<g>
</g>
<g>
</g>
<g>
</g>
<g>
</g>
<g>
</g>
<g>
</g>
<g>
</g>
<g>
</g>
<g>
</g>
<g>
</g>
<g>
</g>
<g>
</g>
<g>
</g>
<g>
</g>
<g>
</g>
</svg>
