<?xml version="1.0" encoding="iso-8859-1"?>
<!-- Generator: Adobe Illustrator 19.0.0, SVG Export Plug-In . SVG Version: 6.00 Build 0)  -->
<svg version="1.1" id="Capa_1" xmlns="http://www.w3.org/2000/svg" xmlns:xlink="http://www.w3.org/1999/xlink" x="0px" y="0px"
	 viewBox="0 0 512 512" style="enable-background:new 0 0 512 512;" xml:space="preserve">
<circle style="fill:#44C868;" cx="256.005" cy="256.005" r="248.493"/>
<circle style="fill:#4CE166;" cx="256.005" cy="256.005" r="225.076"/>
<path style="fill:#FFDB56;" d="M255.998,7.503L256,255.999L418.867,68.315C375.251,30.435,318.304,7.503,256,7.503
	C255.999,7.503,255.999,7.503,255.998,7.503z"/>
<path style="fill:#FFBB24;" d="M256,30.919c56.434,0,108.014,20.771,147.519,55.082l15.347-17.685
	C375.251,30.435,318.304,7.503,256,7.503c-0.001,0-0.001,0-0.002,0v23.416C255.999,30.919,255.999,30.919,256,30.919z"/>
<circle style="fill:#334347;" cx="256.005" cy="256.005" r="37.281"/>
<g>
	<circle style="fill:#FF4A4A;" cx="98.859" cy="135.16" r="22.046"/>
	<circle style="fill:#FF4A4A;" cx="142.952" cy="349.023" r="22.046"/>
	<circle style="fill:#FF4A4A;" cx="432.197" cy="429.426" r="22.046"/>
	<circle style="fill:#FF4A4A;" cx="403.668" cy="256.386" r="22.046"/>
</g>
<path d="M512,256c0-68.38-26.629-132.667-74.981-181.019S324.38,0.001,256,0.001S123.333,26.629,74.981,74.981S0,187.62,0,256
	S26.629,388.667,74.981,437.02s112.638,74.98,181.019,74.98c58.729,0,115.739-20.245,161.204-57.123
	c4.397,2.6,9.52,4.098,14.988,4.098c16.292,0,29.546-13.254,29.546-29.546c0-5.637-1.588-10.908-4.338-15.393
	C492.649,369.14,512,313.269,512,256z M432.192,399.885c-16.292,0-29.546,13.254-29.546,29.546c0,5.357,1.44,10.38,3.942,14.716
	c-40.658,32.564-90.958,51.091-143.087,52.717v-35.262c36.482-1.317,71.801-12.231,102.585-31.763
	c32.002-20.308,57.769-48.974,74.512-82.9c1.834-3.715,0.308-8.214-3.407-10.048c-3.717-1.833-8.213-0.307-10.048,3.407
	c-15.526,31.457-39.418,58.039-69.096,76.872c-28.375,18.005-60.917,28.104-94.546,29.415v-35.595
	c34.678-1.676,67.869-14.93,94.168-37.757c26.295-22.824,44.131-53.762,50.684-87.671c11.725-1.876,21.167-10.673,23.992-22.057
	h14.242c-0.66,17.072-3.575,33.878-8.694,50.063c-1.248,3.951,0.941,8.166,4.892,9.415c0.752,0.238,1.514,0.351,2.264,0.351
	c3.185,0,6.141-2.045,7.151-5.243c5.58-17.648,8.731-35.977,9.399-54.587h35.264c-1.591,50.779-19.284,100.004-50.358,140.093
	C442.263,401.234,437.383,399.885,432.192,399.885z M142.949,334.483c8.018,0,14.54,6.523,14.54,14.541s-6.523,14.541-14.54,14.541
	c-8.018,0-14.541-6.523-14.541-14.541S134.932,334.483,142.949,334.483z M142.949,319.479c-3.832,0-7.492,0.741-10.854,2.075
	c-9.485-17.908-14.96-37.721-16.045-58.051h41.249c3.66,48.611,42.586,87.538,91.199,91.198v41.261
	c-29.538-1.572-57.718-12.403-80.683-31.012c2.956-4.599,4.679-10.063,4.679-15.926C172.494,332.733,159.24,319.479,142.949,319.479
	z M178.345,130.148c-2.355-3.408-7.027-4.265-10.437-1.909c-39.937,27.586-64.554,72.121-66.884,120.259H65.427
	c1.174-30.017,9.37-59.263,23.945-85.371c2.981,1.014,6.172,1.573,9.492,1.573c16.291,0,29.545-13.254,29.545-29.546
	c0-6.028-1.818-11.636-4.929-16.315c33.946-32.827,77.976-51.607,125.019-53.415v35.582c-18.278,0.863-36.026,4.885-52.852,11.997
	c-3.816,1.612-5.604,6.015-3.99,9.831c1.611,3.816,6.017,5.602,9.83,3.99c14.971-6.326,30.753-9.943,47.013-10.793v41.269
	c-48.611,3.66-87.539,42.586-91.199,91.198h-41.255c2.315-43.206,24.511-83.129,60.393-107.914
	C179.846,138.229,180.701,133.557,178.345,130.148z M113.403,135.155c0,8.018-6.523,14.541-14.54,14.541
	s-14.541-6.523-14.541-14.541s6.523-14.541,14.541-14.541S113.403,127.137,113.403,135.155z M446.572,248.498h-14.434
	c-3.041-10.956-12.246-19.369-23.632-21.252c-5.963-31.763-21.809-60.955-45.259-83.389l23.264-26.809
	C421.855,150.264,444.56,196.768,446.572,248.498z M393.495,228.65c-8.867,3.263-15.743,10.664-18.291,19.848H354.7
	c-1.817-24.124-12.321-45.859-28.38-62.086l27.078-31.203C373.96,175.085,387.965,200.734,393.495,228.65z M279.261,217.747
	c-4.746-2.897-10.074-4.925-15.759-5.889v-39.484c15.45,1.375,29.702,6.949,41.617,15.574L279.261,217.747z M256,226.222
	c16.42,0,29.779,13.358,29.779,29.779S272.421,285.778,256,285.778S226.221,272.42,226.221,256S239.58,226.222,256,226.222z
	 M263.502,300.142c18.69-3.167,33.472-17.948,36.64-36.64h39.485c-3.589,40.328-35.796,72.534-76.124,76.123V300.142z
	 M300.142,248.498c-1.329-7.847-4.697-15.009-9.553-20.91l25.857-29.797c12.924,13.416,21.435,31.098,23.181,50.707H300.142z
	 M314.994,176.568c-14.602-10.873-32.291-17.822-51.493-19.268v-41.26c28.588,1.529,56.003,11.765,78.565,29.331L314.994,176.568z
	 M248.498,211.859c-18.691,3.168-33.473,17.948-36.64,36.64h-39.485c3.59-40.328,35.795-72.534,76.124-76.123L248.498,211.859
	L248.498,211.859z M211.858,263.503c3.167,18.691,17.948,33.473,36.64,36.64v39.484c-40.328-3.59-72.534-35.795-76.124-76.123
	H211.858z M263.502,354.7c48.611-3.66,87.538-42.586,91.199-91.198h20.296c2.356,9.492,9.31,17.186,18.354,20.569
	c-6.127,30.088-22.111,57.512-45.517,77.828c-23.569,20.458-53.269,32.398-84.332,34.061V354.7z M403.893,270.919
	c-0.248-0.064-0.501-0.116-0.759-0.155c-0.615-0.092-1.222-0.098-1.817-0.042c-6.9-1.13-12.188-7.118-12.188-14.333
	c0-7.251,5.341-13.261,12.292-14.348c0.23,0.021,0.462,0.033,0.697,0.033c0.359,0,0.723-0.026,1.089-0.079
	c0.233-0.034,0.461-0.081,0.686-0.135c7.915,0.12,14.319,6.587,14.319,14.529C418.212,264.332,411.809,270.799,403.893,270.919z
	 M351.914,134.023c-25.309-19.915-56.207-31.454-88.413-33.01V65.429c42.151,1.639,80.831,17.018,111.682,41.779L351.914,134.023z
	 M263.502,50.414V15.133c53.364,1.621,103.75,20.507,144.717,54.005l-23.2,26.735C351.523,68.831,309.408,52.069,263.502,50.414z
	 M496.868,248.498h-35.281c-2.028-56.246-26.736-106.802-65.24-142.784l23.184-26.717c2.326,2.153,4.625,4.34,6.879,6.594
	C470.154,129.335,494.998,186.938,496.868,248.498z M85.59,85.591c43.745-43.745,101.347-68.588,162.907-70.458v35.279
	c-51.337,1.829-99.379,22.39-136.245,58.42c-4.023-2.055-8.572-3.222-13.39-3.222c-16.292,0-29.546,13.254-29.546,29.546
	c0,7.543,2.846,14.432,7.515,19.66c-16.174,28.592-25.235,60.718-26.431,93.683H15.131C17.002,186.938,41.845,129.335,85.59,85.591z
	 M15.131,263.503H50.41c0.875,24.592,6.042,48.493,15.424,71.15c1.196,2.89,3.99,4.634,6.935,4.634c0.956,0,1.93-0.184,2.867-0.573
	c3.828-1.584,5.647-5.973,4.062-9.801c-8.625-20.828-13.406-42.8-14.274-65.41h35.605c1.134,23.54,7.578,46.486,18.871,67.069
	c-4.059,5.06-6.496,11.476-6.496,18.453c0,16.292,13.254,29.546,29.546,29.546c4.942,0,9.601-1.225,13.699-3.38
	c25.939,21.642,58.114,34.178,91.85,35.8v35.58c-30.805-1.21-60.924-9.837-87.538-25.163c-27.922-16.08-51.51-39.151-68.212-66.72
	c-2.149-3.544-6.762-4.674-10.305-2.529c-3.543,2.148-4.675,6.76-2.529,10.304c18.012,29.729,43.448,54.608,73.558,71.947
	c28.888,16.636,61.593,25.964,95.026,27.181v35.277c-61.56-1.871-119.162-26.714-162.907-70.459
	C41.845,382.665,17.002,325.062,15.131,263.503z M432.192,443.971c-8.018,0-14.541-6.523-14.541-14.541
	c0-8.018,6.524-14.541,14.541-14.541c3.599,0,6.891,1.322,9.433,3.496c0.377,0.535,0.823,1.032,1.352,1.469
	c0.13,0.107,0.266,0.201,0.4,0.298c2.094,2.52,3.356,5.754,3.356,9.278C446.734,437.448,440.21,443.971,432.192,443.971z"/>
<g>
</g>
<g>
</g>
<g>
</g>
<g>
</g>
<g>
</g>
<g>
</g>
<g>
</g>
<g>
</g>
<g>
</g>
<g>
</g>
<g>
</g>
<g>
</g>
<g>
</g>
<g>
</g>
<g>
</g>
</svg>
