<?xml version="1.0" encoding="iso-8859-1"?>
<!-- Generator: Adobe Illustrator 19.0.0, SVG Export Plug-In . SVG Version: 6.00 Build 0)  -->
<svg version="1.1" id="Capa_1" xmlns="http://www.w3.org/2000/svg" xmlns:xlink="http://www.w3.org/1999/xlink" x="0px" y="0px"
	 viewBox="0 0 512 512" style="enable-background:new 0 0 512 512;" xml:space="preserve">
<rect x="209.581" y="106.624" style="fill:#A8EEFC;" width="294.929" height="362.289"/>
<g>
	<rect x="209.581" y="106.624" style="fill:#4CE166;" width="144.978" height="95.337"/>
	<rect x="397.757" y="309.373" style="fill:#4CE166;" width="106.753" height="159.55"/>
	<rect x="209.581" y="245.149" style="fill:#4CE166;" width="144.978" height="85.398"/>
</g>
<polygon style="fill:#7EE5F2;" points="108.537,405.368 209.583,468.916 209.583,106.622 108.537,43.074 "/>
<polygon style="fill:#44C868;" points="108.498,181.63 108.498,266.994 209.583,330.549 209.583,245.154 "/>
<polygon style="fill:#A8EEFC;" points="108.537,405.368 7.491,468.916 7.491,106.622 108.537,43.074 "/>
<polygon style="fill:#4CE166;" points="7.491,106.622 7.452,201.869 108.498,138.322 108.537,43.074 "/>
<polygon style="fill:#44C868;" points="209.583,106.622 209.622,201.869 108.575,138.322 108.537,43.074 "/>
<polygon style="fill:#4CE166;" points="7.452,245.178 108.498,181.63 108.498,266.994 7.452,330.541 "/>
<polygon style="fill:#FFBB24;" points="108.498,138.322 108.498,181.63 209.545,245.178 209.545,201.869 "/>
<polygon style="fill:#FFDB56;" points="108.498,138.322 108.498,181.63 7.452,245.178 7.452,201.869 "/>
<polygon style="fill:#FFBB24;" points="108.498,266.994 108.498,310.302 209.545,373.85 209.545,330.541 "/>
<g>
	<polygon style="fill:#FFDB56;" points="108.498,266.994 108.498,310.302 7.452,373.85 7.452,330.541 	"/>
	<polygon style="fill:#FFDB56;" points="209.583,464.274 209.583,468.916 266.032,468.916 354.56,380.387 354.56,468.916 
		397.757,468.916 397.757,309.368 504.51,309.368 504.51,266.17 397.757,266.17 397.757,201.643 504.51,201.643 504.51,158.445 
		397.757,158.445 397.757,106.622 354.56,106.622 354.56,201.957 209.583,201.957 209.583,245.154 354.56,245.154 354.56,330.549 
		209.583,330.549 209.583,373.746 300.111,373.746 	"/>
</g>
<path style="fill:#FF4A4A;" d="M346.768,141.994c-46.639,0-84.447,37.808-84.447,84.447c0,71.023,84.447,136.369,84.447,136.369
	s84.447-65.347,84.447-136.369C431.215,179.802,393.407,141.994,346.768,141.994z M346.768,260.122
	c-18.602,0-33.681-15.08-33.681-33.681c0-18.602,15.08-33.681,33.681-33.681c18.602,0,33.681,15.08,33.681,33.681
	C380.449,245.042,365.369,260.122,346.768,260.122z"/>
<path style="fill:#E7343F;" d="M346.768,141.994c-4.591,0-9.091,0.38-13.484,1.085c40.227,6.457,70.963,41.315,70.963,83.363
	c0,53.055-47.12,102.937-70.963,124.783c8.074,7.398,13.484,11.586,13.484,11.586s84.447-65.347,84.447-136.369
	C431.215,179.802,393.407,141.994,346.768,141.994z"/>
<circle style="fill:#FFFFFF;" cx="346.768" cy="226.441" r="33.681"/>
<path d="M346.769,267.613c22.702,0,41.173-18.47,41.173-41.172s-18.47-41.173-41.173-41.173s-41.173,18.47-41.173,41.173
	S324.066,267.613,346.769,267.613z M346.769,200.25c14.442,0,26.191,11.749,26.191,26.191s-11.749,26.19-26.191,26.19
	s-26.191-11.749-26.191-26.19S332.327,200.25,346.769,200.25z"/>
<path d="M0,468.916c0,2.727,1.481,5.239,3.868,6.557c1.13,0.624,2.377,0.934,3.623,0.934c1.387,0,2.772-0.385,3.988-1.15
	l97.058-61.039l97.058,61.039c0.034,0.021,0.071,0.036,0.105,0.056c0.244,0.148,0.495,0.284,0.756,0.404
	c0.039,0.018,0.077,0.039,0.116,0.056c0.293,0.129,0.595,0.239,0.906,0.33c0.053,0.016,0.107,0.027,0.16,0.041
	c0.253,0.068,0.51,0.122,0.773,0.164c0.077,0.012,0.154,0.026,0.232,0.035c0.309,0.039,0.621,0.065,0.941,0.065h294.926
	c4.138,0,7.491-3.354,7.491-7.491v-52.112c0-4.137-3.353-7.491-7.491-7.491c-4.138,0-7.491,3.354-7.491,7.491v44.621h-91.77V316.859
	h91.77v69.981c0,4.137,3.353,7.491,7.491,7.491c4.138,0,7.491-3.354,7.491-7.491l0,0c0-0.007,0,0.007,0,0V106.635
	c0-0.007,0,0,0-0.007l0,0c0-0.007,0,0,0-0.007l0,0c0-0.007,0,0.007,0,0l0,0c0-4.137-3.353-7.491-7.491-7.491l0,0H211.742l0,0
	l-99.217-62.398c-0.06-0.038-0.124-0.064-0.185-0.099c-0.062-0.037-0.118-0.082-0.181-0.117c-0.088-0.049-0.181-0.082-0.271-0.126
	c-0.151-0.076-0.301-0.148-0.455-0.213s-0.312-0.122-0.469-0.176c-0.158-0.054-0.316-0.105-0.475-0.149
	c-0.159-0.043-0.319-0.078-0.479-0.111c-0.164-0.033-0.328-0.063-0.492-0.084c-0.161-0.021-0.321-0.035-0.482-0.046
	c-0.168-0.011-0.335-0.019-0.503-0.019c-0.161,0-0.32,0.008-0.48,0.018c-0.169,0.011-0.336,0.025-0.503,0.048
	c-0.159,0.021-0.317,0.05-0.474,0.081c-0.166,0.033-0.331,0.069-0.494,0.114c-0.158,0.043-0.312,0.093-0.466,0.146
	c-0.16,0.055-0.318,0.112-0.474,0.178c-0.154,0.064-0.304,0.137-0.453,0.212c-0.09,0.045-0.183,0.078-0.271,0.127
	c-0.063,0.035-0.119,0.08-0.181,0.117c-0.061,0.036-0.125,0.062-0.185,0.099L3.503,100.281c-2.18,1.37-3.503,3.766-3.503,6.34
	v29.128c0,4.137,3.353,7.491,7.491,7.491c4.137,0,7.491-3.354,7.491-7.491v-24.99l86.064-54.125v77.524l-86.064,54.126v-22.569
	c0-4.137-3.354-7.491-7.491-7.491c-4.138,0-7.491,3.354-7.491,7.491V468.916 M14.982,205.984l86.025-54.101v25.61l-86.025,54.101
	V205.984z M14.982,334.655l86.025-54.101v25.61l-86.025,54.101V334.655z M101.046,401.23l-86.064,54.125v-77.391l86.064-54.126
	V401.23z M101.046,262.832l-86.064,54.125v-67.666l86.064-54.126V262.832z M116.028,151.907l86.026,54.101v25.61l-86.026-54.101
	C116.028,177.516,116.028,151.907,116.028,151.907z M116.028,280.579l86.026,54.101v25.61l-86.026-54.101
	C116.028,306.188,116.028,280.579,116.028,280.579z M202.092,455.355l-86.064-54.125v-77.343l86.064,54.125V455.355z
	 M202.092,317.005l-86.064-54.125v-67.665l86.064,54.125V317.005z M202.092,188.334l-86.064-54.125V56.635l86.064,54.125V188.334z
	 M390.266,114.113v31.35c-8.668-4.674-18.168-7.994-28.215-9.682v-21.667C362.05,114.113,390.266,114.113,390.266,114.113z
	 M217.074,114.113h129.994v20.394c-0.101,0-0.2-0.004-0.301-0.004c-12.409,0-24.45,2.432-35.789,7.227
	c-3.81,1.612-5.593,6.008-3.98,9.817c1.611,3.811,6.006,5.591,9.817,3.981c9.483-4.011,19.56-6.045,29.952-6.045
	c42.433,0,76.955,34.522,76.955,76.955c0,57.181-59.739,112.048-76.955,126.668c-15.474-13.141-65.279-58.786-75.214-109.403
	c-0.007-0.036-0.014-0.072-0.021-0.107c-1.107-5.67-1.721-11.402-1.721-17.159c0-7.55,1.09-14.912,3.163-21.933
	c0.127-0.349,0.234-0.705,0.309-1.076c3.79-12.173,10.605-23.265,20.079-32.398c2.977-2.872,3.064-7.614,0.193-10.592
	s-7.613-3.065-10.592-0.194c-10.142,9.777-17.734,21.437-22.459,34.218h-43.43L217.074,114.113L217.074,114.113z M217.074,209.448
	h39.313c-1.026,5.541-1.556,11.223-1.556,16.993c0,3.765,0.229,7.507,0.642,11.222h-38.399L217.074,209.448L217.074,209.448z
	 M217.074,252.645h41.12c6.62,26.457,22.102,50.865,38.01,70.413h-79.13V252.645z M217.074,381.237h64.952l-64.952,64.952V381.237z
	 M347.068,461.425h-62.952l62.952-62.952V461.425z M362.05,461.424v-81.037c0-3.03-1.825-5.761-4.625-6.921
	c-2.8-1.16-6.021-0.518-8.164,1.624l-86.333,86.333h-39.901l82.381-82.381c2.142-2.142,2.783-5.365,1.623-8.163
	c-1.159-2.8-3.891-4.624-6.921-4.624h-83.037V338.04h92.185c16.871,18.129,31.48,29.576,32.925,30.694
	c1.35,1.044,2.967,1.566,4.585,1.566s3.234-0.522,4.585-1.566c1.614-1.249,19.648-15.379,38.914-37.317v130.006L362.05,461.424
	L362.05,461.424z M497.018,301.876h-84.156c5.78-8.855,11.056-18.316,15.312-28.215h68.844V301.876z M497.018,258.679H433.67
	c3.169-10.446,5.035-21.25,5.035-32.238c0-5.916-0.568-11.7-1.641-17.307h59.954L497.018,258.679L497.018,258.679z M497.018,194.152
	h-64.171c-3.927-10.435-9.698-19.973-16.917-28.214h81.088L497.018,194.152L497.018,194.152z M497.018,150.955h-91.77v-36.841h91.77
	V150.955z"/>
<g>
</g>
<g>
</g>
<g>
</g>
<g>
</g>
<g>
</g>
<g>
</g>
<g>
</g>
<g>
</g>
<g>
</g>
<g>
</g>
<g>
</g>
<g>
</g>
<g>
</g>
<g>
</g>
<g>
</g>
</svg>
