<?xml version="1.0" encoding="iso-8859-1"?>
<!-- Generator: Adobe Illustrator 19.0.0, SVG Export Plug-In . SVG Version: 6.00 Build 0)  -->
<svg version="1.1" id="Capa_1" xmlns="http://www.w3.org/2000/svg" xmlns:xlink="http://www.w3.org/1999/xlink" x="0px" y="0px"
	 viewBox="0 0 512 512" style="enable-background:new 0 0 512 512;" xml:space="preserve">
<path style="fill:#A8EEFC;" d="M439.406,92.322H55.789v19.948v202.083c-26.23,0-47.559,20.929-48.234,46.997
	c0.675,24.942,21.092,44.958,46.197,44.958h385.655V92.322z"/>
<path style="fill:#7EE5F2;" d="M9.91,347.654c-1.41,4.329-2.232,8.925-2.355,13.696c0.675,24.941,21.092,44.958,46.197,44.958
	h385.655v-27.083H53.752C33.345,379.224,16.037,365.999,9.91,347.654z"/>
<path style="fill:#4CE166;" d="M126.028,92.322c0,0-15.332,72.294-70.239,73.508V92.322H126.028z"/>
<path style="fill:#546F7A;" d="M55.789,314.353V15.738c-26.657,0-48.266,21.609-48.266,48.266v298.615
	C7.523,335.962,29.132,314.353,55.789,314.353z"/>
<path style="fill:#475D63;" d="M34.606,20.63C18.57,28.476,7.523,44.948,7.523,64.004v298.615c0-19.056,11.047-35.528,27.083-43.374
	V20.63z"/>
<g>
	<path style="fill:#4CE166;" d="M267.589,135.885c0,0-50.815,0.715-74.355,18.6c-18.058,13.72-20.585,28.591,45.424,14.148
		c48.247-10.555,67.6,11.033,57.196,21.163c-10.403,10.131-47.849,8.864-65.578,7.598s-18.995,8.864-37.99,26.594
		s-6.331,34.192,27.912,37.99s41.738,24.061,43.004,40.523c1.266,16.462-7.598,21.528-11.397,34.192
		c-3.799,12.664-1.266,34.192,15.197,41.789c16.462,7.598,37.991-17.728,44.198-24.061c6.206-6.331,6.457-36.725,10.256-45.589
		c3.799-8.864,29.508-29.417,29.508-29.417s-48.504-46.564-38.373-61.759c10.131-15.197,24.061-7.598,46.856,15.197
		c9.249,9.249,38.072-18.369,46.049-43.675c13.089-31.492,25.337-66.98,32.294-96.856H272.147
		c-8.583,5.286-16.572,10.563-20.646,14.184C240.103,116.637,267.589,135.885,267.589,135.885z"/>
	<path style="fill:#4CE166;" d="M103.518,230.466c6.425,14.997,24.582,4.946,39.579-1.479s24.567-34.402,18.143-49.399
		c-6.425-14.997-23.325-4.126-38.321,2.298C107.922,188.312,97.094,215.469,103.518,230.466z"/>
	<path style="fill:#4CE166;" d="M252.249,406.307c0,0-17.1-46.864-66.264-43.689s-29.926-20.112-66.264-17.317
		c-36.338,2.795-65.969,61.006-65.969,61.006H252.249z"/>
</g>
<path style="fill:#44C868;" d="M71.244,379.224c-10.849,14.036-17.493,27.083-17.493,27.083h198.497c0,0-5.368-14.705-18.731-27.083
	H71.244z"/>
<circle style="fill:#546F7A;" cx="328.447" cy="320.203" r="110.689"/>
<path style="fill:#475D63;" d="M267.544,381.098c-40.29-40.29-43.019-103.908-8.202-147.366c-3.167,2.537-6.23,5.266-9.166,8.202
	c-43.226,43.226-43.226,113.307,0,156.532c43.226,43.226,113.307,43.226,156.533,0c2.936-2.936,5.665-5.999,8.202-9.166
	C371.452,424.117,307.834,421.388,267.544,381.098z"/>
<path style="fill:#FF4A4A;" d="M497.977,489.763L497.977,489.763c-8.687,8.686-22.769,8.686-31.455,0l-55.388-55.388l31.455-31.455
	l55.388,55.388C506.663,466.994,506.663,481.077,497.977,489.763z"/>
<path style="fill:#E7343F;" d="M482.325,473.584l-55.199-55.199l-15.992,15.992l55.388,55.388c8.687,8.687,22.769,8.687,31.455,0
	c2.815-2.815,4.701-6.199,5.692-9.779C496.314,481.586,488.192,479.451,482.325,473.584z"/>
<path style="fill:#475D63;" d="M406.68,398.467c-3.54,3.54-7.263,6.784-11.133,9.744l20.876,20.876l20.877-20.877l-20.876-20.876
	C413.464,391.204,410.22,394.927,406.68,398.467z"/>
<circle style="fill:#A8EEFC;" cx="328.277" cy="319.651" r="79.694"/>
<g>
	<path style="fill:#B0EDF4;" d="M306.214,396.229l98.638-98.638c-3.568-12.404-10.061-23.56-18.693-32.684l-112.63,112.629
		C282.653,386.168,293.81,392.661,306.214,396.229z"/>
	<path style="fill:#B0EDF4;" d="M266.146,369.539l112.016-112.015c-4.023-3.234-8.366-6.083-12.975-8.496L257.65,356.564
		C260.063,361.173,262.912,365.516,266.146,369.539z"/>
</g>
<path d="M107.393,244.406c2.532,0.995,5.171,1.421,7.888,1.421c8.344,0,17.41-4.019,26.248-7.938
	c1.531-0.679,3.046-1.351,4.529-1.986c18.375-7.872,30.353-40.003,22.096-59.277c-2.309-5.391-5.889-9.048-10.642-10.87
	c-9.563-3.667-20.536,1.409-31.147,6.32c-2.229,1.032-4.334,2.006-6.411,2.896c-18.725,8.023-31.385,39.71-23.354,58.457
	C98.906,238.805,102.536,242.498,107.393,244.406z M125.881,188.803c2.275-0.974,4.578-2.04,6.806-3.071
	c5.774-2.672,13.393-6.2,17.692-6.2c0.669,0,1.258,0.085,1.746,0.274c0.303,0.116,1.225,0.469,2.2,2.746
	c2.257,5.269,1.783,14.067-1.206,22.415c-3.012,8.412-7.987,14.966-12.985,17.106c-1.54,0.66-3.113,1.356-4.702,2.061
	c-7.631,3.383-18.082,8.021-22.537,6.268c-0.439-0.173-1.466-0.577-2.462-2.898C105.658,216.357,114.754,193.569,125.881,188.803z"
	/>
<path d="M328.277,232.436c-19.317,0-37.619,6.186-52.929,17.891c-3.3,2.524-3.93,7.245-1.406,10.545
	c2.524,3.3,7.244,3.931,10.545,1.407c12.663-9.681,27.805-14.797,43.79-14.797c39.795,0,72.17,32.375,72.17,72.171
	c0,39.795-32.375,72.17-72.17,72.17s-72.171-32.375-72.171-72.17c0-13.048,3.517-25.83,10.17-36.964
	c2.131-3.567,0.968-8.186-2.599-10.317c-3.566-2.13-8.186-0.969-10.318,2.599c-8.047,13.465-12.301,28.917-12.301,44.682
	c0,48.091,39.125,87.216,87.217,87.216s87.216-39.125,87.216-87.216C415.493,271.561,376.368,232.436,328.277,232.436z"/>
<path d="M503.296,452.988L447.908,397.6c-0.307-0.307-0.637-0.574-0.98-0.817l0,0V229.454c0-4.155-3.367-7.523-7.523-7.523
	c-4.156,0-7.523,3.368-7.523,7.523v33.441c-5.292-9.521-11.94-18.364-19.855-26.28c-5.382-5.382-11.162-10.127-17.241-14.252
	c8.006-9.377,14.527-20.486,17.777-30.595c7.162-17.252,13.729-34.874,19.318-51.701v59.295c0,4.155,3.367,7.523,7.523,7.523
	c4.156,0,7.523-3.368,7.523-7.523V92.322c0-4.155-3.367-7.523-7.523-7.523h-1.618l0,0H63.312l0,0V15.738
	c0-4.155-3.368-7.523-7.523-7.523C25.027,8.215,0,33.243,0,64.004v298.615c0,0.548,0.062,1.08,0.173,1.594
	c0.99,13.041,6.635,25.155,16.066,34.354c10.091,9.843,23.413,15.263,37.512,15.263h202.51l0,0
	c20.588,15.939,45.719,24.578,72.18,24.578c24.005,0,46.913-7.114,66.33-20.332l11.012,11.012c-2.907,2.94-2.899,7.68,0.029,10.608
	l55.389,55.388c5.803,5.802,13.425,8.703,21.047,8.703s15.244-2.901,21.047-8.703h0.001
	C514.902,483.477,514.902,464.593,503.296,452.988z M428.188,99.845c-6.657,25.69-17.238,56.61-29.64,86.446
	c-0.085,0.205-0.16,0.413-0.229,0.625c-2.872,9.11-9.108,19.345-16.737,27.691c-44.307-22.255-99.794-14.924-136.726,22.007
	c-5.918,5.917-11.123,12.356-15.589,19.206c-2.649-0.553-5.396-1.003-8.24-1.318c-19.58-2.173-28.285-8.241-29.789-12.778
	c-1.425-4.296,3.261-9.509,6.182-12.236c5.792-5.406,10.025-10.155,13.425-13.972c7.902-8.867,10.025-11.252,18.896-10.618
	c37.952,2.712,61.962-0.557,71.363-9.713c5.459-5.316,6.549-12.894,2.847-19.774c-3.813-7.084-12.086-12.473-23.295-15.178
	c-12.074-2.913-27.152-2.55-43.605,1.049c-29.441,6.442-41.424,6.096-45.943,5.324c1.192-1.455,3.266-3.541,6.677-6.133
	c21.275-16.164,69.429-17.06,69.909-17.068c3.261-0.046,6.119-2.19,7.08-5.305c0.962-3.117-0.196-6.5-2.864-8.375
	c-8.885-6.248-16.033-14.788-15.682-17.307c0.001-0.001,0.061-0.104,0.271-0.291c2.117-1.882,6.917-5.52,17.788-12.285
	C274.286,99.845,428.188,99.845,428.188,99.845z M116.077,99.845c-5.564,16.939-20.818,52.11-52.765,57.716V99.845H116.077z
	 M15.081,361.345c0.04-1.321,0.145-2.623,0.306-3.907c0.015-0.116,0.029-0.234,0.044-0.349c0.061-0.458,0.134-0.912,0.21-1.364
	c0.054-0.314,0.107-0.629,0.169-0.941c0.045-0.236,0.095-0.47,0.144-0.705c3.937-18.378,20.298-32.203,39.835-32.203
	c4.155,0,7.523-3.368,7.523-7.523v-44.302c0-4.155-3.368-7.523-7.523-7.523s-7.523,3.368-7.523,7.523v37.28
	c-11.813,1.588-22.772,6.904-31.432,15.362c-0.612,0.598-1.206,1.21-1.786,1.831V64.004c0-19.896,14.336-36.507,33.22-40.047l0,0
	v216.001l0,0c0,4.155,3.368,7.523,7.523,7.523s7.523-3.368,7.523-7.523v-67.175c22.019-2.91,40.81-16.732,54.675-40.356
	c7.511-12.797,11.8-25.424,13.86-32.583h115.87c-0.43,0.357-0.843,0.706-1.217,1.039c-3.671,3.263-5.541,7.683-5.265,12.443
	c0.331,5.728,3.866,11.431,8.048,16.255c-17.823,1.891-44.53,6.703-60.603,18.913c-11.952,9.08-16.289,17.413-12.892,24.77
	c5.011,10.853,23.693,11.641,64.476,2.717c31.709-6.936,47.671,1.425,50.435,6.561c0.626,1.163,0.355,1.426-0.094,1.864
	c-4.645,4.524-24.934,7.974-59.793,5.484c-16.251-1.164-22.847,6.243-31.201,15.616c-3.362,3.773-7.173,8.049-12.458,12.982
	c-12.939,12.076-11.943,22.708-10.197,27.971c4.061,12.246,19.123,20.413,42.411,22.997c0.716,0.079,1.413,0.179,2.113,0.276
	c-7.364,15.579-11.247,32.725-11.247,50.469c0,13.747,2.333,27.135,6.808,39.714c-9.698-3.891-20.301-5.529-31.542-4.804
	c-23.24,1.503-28.338-2.993-33.736-7.75c-7.137-6.29-14.069-10.989-32.62-9.561c-34.274,2.636-61.696,46.491-69.736,60.739
	C30.417,396.458,15.708,380.887,15.081,361.345z M66.729,398.784c11.304-18.015,32.247-44.343,53.568-45.982
	c13.69-1.052,16.804,1.692,21.517,5.847c6.765,5.962,15.184,13.38,44.655,11.477c20.956-1.35,35.308,7.515,44.583,17.113
	c2.649,3.831,5.538,7.523,8.659,11.059c0.102,0.161,0.21,0.327,0.309,0.486H66.729V398.784z M401.36,393.147
	c-3.235,3.236-6.729,6.292-10.384,9.088c-0.103,0.078-0.196,0.168-0.294,0.251c-17.826,13.543-39.468,20.878-62.241,20.878
	c-23.875,0-46.51-8.062-64.805-22.888c-0.006-0.004-0.01-0.01-0.016-0.015c-2.079-1.683-4.105-3.459-6.048-5.295
	c-0.047-0.045-0.096-0.088-0.143-0.133c-0.655-0.621-1.3-1.25-1.935-1.884c-1.408-1.408-2.765-2.855-4.083-4.328
	c-2.241-3.371-4.995-7.026-8.325-10.642c-0.004-0.004-0.008-0.008-0.012-0.013c-11.569-16.962-17.797-36.982-17.797-57.963
	c0-27.556,10.731-53.462,30.216-72.947c20.112-20.112,46.529-30.168,72.947-30.168c26.418,0,52.835,10.056,72.947,30.168
	c19.486,19.485,30.216,45.391,30.216,72.947c0,22.756-7.324,44.383-20.847,62.201c-0.104,0.119-0.212,0.235-0.309,0.361
	C407.653,386.419,404.595,389.912,401.36,393.147z M431.883,377.506v14.647l-5.588-5.588
	C428.299,383.623,430.163,380.601,431.883,377.506z M406.734,408.759c1.805-1.6,3.574-3.253,5.294-4.973
	c1.71-1.71,3.354-3.469,4.946-5.263l9.686,9.687l-10.238,10.238L406.734,408.759z M492.658,484.443
	c-5.741,5.74-15.078,5.738-20.817,0l-50.068-50.068l20.816-20.817l50.068,50.068C498.396,469.367,498.396,478.705,492.658,484.443z"
	/>
<g>
</g>
<g>
</g>
<g>
</g>
<g>
</g>
<g>
</g>
<g>
</g>
<g>
</g>
<g>
</g>
<g>
</g>
<g>
</g>
<g>
</g>
<g>
</g>
<g>
</g>
<g>
</g>
<g>
</g>
</svg>
