<?xml version="1.0" encoding="iso-8859-1"?>
<!-- Generator: Adobe Illustrator 19.0.0, SVG Export Plug-In . SVG Version: 6.00 Build 0)  -->
<svg version="1.1" id="Capa_1" xmlns="http://www.w3.org/2000/svg" xmlns:xlink="http://www.w3.org/1999/xlink" x="0px" y="0px"
	 viewBox="0 0 512 512" style="enable-background:new 0 0 512 512;" xml:space="preserve">
<path style="fill:#E0E0E0;" d="M450.469,486.805H61.531c-29.849,0-54.046-24.198-54.046-54.047l0,0h497.031l0,0
	C504.515,462.608,480.318,486.805,450.469,486.805z"/>
<path style="fill:#546F7A;" d="M487.895,432.759H24.105V155.549c0-16.535,13.404-29.939,29.939-29.939h403.913
	c16.535,0,29.939,13.404,29.939,29.939V432.759z"/>
<rect x="64.348" y="167.169" style="fill:#A8EEFC;" width="383.296" height="265.587"/>
<rect x="420.7" y="167.169" style="fill:#7EE5F2;" width="26.945" height="265.587"/>
<g>
	<polygon style="fill:#4CE166;" points="64.352,270.914 142.853,270.914 142.853,330.724 64.352,409.226 	"/>
	<rect x="368.846" y="167.388" style="fill:#4CE166;" width="78.798" height="167.068"/>
</g>
<rect x="420.7" y="167.388" style="fill:#44C868;" width="26.945" height="167.068"/>
<g>
	<path style="fill:#C6C5CA;" d="M474.577,432.759L474.577,432.759c0,29.849-24.198,54.047-54.047,54.047h29.939
		c29.849,0,54.047-24.198,54.047-54.047l0,0H474.577z"/>
	<path style="fill:#C6C5CA;" d="M294.633,457.401h-77.268c-13.609,0-24.643-11.032-24.643-24.643l0,0h126.552l0,0
		C319.276,446.369,308.244,457.401,294.633,457.401z"/>
</g>
<rect x="186.01" y="309.947" style="fill:#4CE166;" width="139.674" height="122.809"/>
<path style="fill:#475D63;" d="M457.957,125.612h-24.949c16.535,0,29.939,13.404,29.939,29.939V432.76h24.949v-277.21
	C487.895,139.015,474.491,125.612,457.957,125.612z"/>
<polygon style="fill:#FFDB56;" points="447.648,334.464 368.85,334.464 368.85,167.392 325.69,167.392 325.69,266.788 
	186.014,266.788 186.014,167.392 142.853,167.392 142.853,227.754 64.352,227.754 64.352,270.914 142.853,270.914 142.853,330.724 
	64.352,409.226 64.352,432.759 101.857,432.759 142.853,391.762 142.853,432.759 186.014,432.759 186.014,309.949 325.69,309.949 
	325.69,432.759 368.85,432.759 368.85,377.623 447.648,377.623 "/>
<rect x="420.7" y="334.467" style="fill:#FFBB24;" width="26.945" height="43.162"/>
<circle style="fill:#FFFFFF;" cx="255.996" cy="122.41" r="38.775"/>
<path style="fill:#FF4A4A;" d="M256,25.195c-53.691,0-97.217,43.525-97.217,97.217c0,81.762,97.217,156.991,97.217,156.991
	s97.217-75.229,97.217-156.991C353.217,68.721,309.691,25.195,256,25.195z M256,161.187c-21.414,0-38.775-17.359-38.775-38.775
	S234.584,83.637,256,83.637c21.414,0,38.775,17.36,38.775,38.775C294.774,143.826,277.415,161.187,256,161.187z"/>
<path style="fill:#E7343F;" d="M256,25.195c-4.572,0-9.068,0.323-13.472,0.934c47.314,6.561,83.745,47.164,83.745,96.283
	c0,62.635-57.051,121.436-83.745,145.518c8.151,7.354,13.472,11.473,13.472,11.473s97.217-75.229,97.217-156.991
	C353.217,68.721,309.691,25.195,256,25.195z"/>
<path d="M504.515,425.274h-9.135V155.549c0-20.636-16.788-37.423-37.423-37.423h-97.35C358.35,62.374,312.296,17.71,256,17.71
	c-14.132,0-27.844,2.769-40.757,8.231c-3.807,1.611-5.588,6.003-3.978,9.809c1.61,3.806,5.999,5.588,9.81,3.978
	c11.057-4.677,22.807-7.049,34.926-7.049c49.479,0,89.732,40.254,89.732,89.732c0,14.022-3.097,27.916-8.157,41.272
	c-0.269,0.511-0.477,1.059-0.624,1.632c-4.366,11.135-10.079,21.88-16.486,31.994c-0.797,0.778-1.417,1.734-1.804,2.803
	c-22.118,33.849-51.484,60.191-62.664,69.619c-14.785-12.453-61.339-54.423-80.917-104.292c-0.157-0.66-0.394-1.287-0.713-1.866
	c-5.027-13.317-8.1-27.17-8.1-41.16c0-25.843,11.155-50.446,30.604-67.498c3.109-2.725,3.419-7.454,0.694-10.562
	c-2.726-3.11-7.456-3.418-10.562-0.694c-21.614,18.949-34.438,45.894-35.608,74.469H54.043c-20.636,0-37.423,16.788-37.423,37.423
	v269.724H7.485c-4.134,0-7.485,3.351-7.485,7.485c0,33.928,27.603,61.53,61.531,61.53h388.938c33.929,0,61.531-27.603,61.531-61.531
	C512,428.625,508.649,425.274,504.515,425.274z M480.411,155.549v269.724h-25.278l0,0l0,0V242.102c0-4.134-3.351-7.485-7.485-7.485
	s-7.485,3.351-7.485,7.485v84.875h-63.827V174.656h63.827v37.507c0,4.134,3.351,7.485,7.485,7.485s7.485-3.351,7.485-7.485v-44.992
	c0-4.134-3.351-7.485-7.485-7.485h-92.801c2.759-9.001,4.544-17.868,5.351-26.592h97.76
	C470.338,133.095,480.411,143.169,480.411,155.549z M440.163,425.274h-63.827v-40.166h63.827V425.274z M318.205,226.612v32.691
	h-28.824c6.575-6.614,13.753-14.316,20.966-22.93C313.081,233.109,315.692,229.855,318.205,226.612z M256,286.888
	c1.616,0,3.232-0.522,4.581-1.565c0.452-0.349,5.47-4.258,13.049-11.049h52.061c4.134,0,7.485-3.351,7.485-7.485v-61.402
	c6.54-10.305,11.927-20.481,16.142-30.51h12.049v159.587c0,4.134,3.351,7.485,7.485,7.485h71.312v28.191h-71.312
	c-4.134,0-7.485,3.351-7.485,7.485v47.651h-28.191V309.949c0-4.134-3.351-7.485-7.485-7.485H186.014
	c-4.134,0-7.485,3.351-7.485,7.485v115.326h-28.191v-33.512c0-3.027-1.823-5.756-4.621-6.915c-2.794-1.158-6.016-0.519-8.156,1.623
	l-38.805,38.805H71.837v-12.949l76.309-76.309c1.404-1.403,2.193-3.307,2.193-5.292v-59.81c0-4.134-3.351-7.485-7.485-7.485H71.837
	v-28.191h71.017c4.134,0,7.485-3.351,7.485-7.485v-52.878h12.345c4.152,9.876,9.44,19.895,15.846,30.041v61.871
	c0,4.134,3.351,7.485,7.485,7.485h52.356c7.579,6.791,12.598,10.7,13.049,11.049C252.768,286.366,254.384,286.888,256,286.888z
	 M318.205,425.274H193.498v-107.84h124.707V425.274z M310.072,440.243c-2.785,5.721-8.658,9.673-15.437,9.673h-77.268
	c-6.779,0-12.653-3.952-15.437-9.673H310.072z M119.926,425.274l15.442-15.442v15.442H119.926z M71.837,220.269v-45.613h63.532
	v45.613H71.837z M222.619,259.303h-29.12v-33.072c2.602,3.369,5.314,6.749,8.154,10.142
	C208.866,244.988,216.044,252.689,222.619,259.303z M31.589,155.549c0-12.382,10.072-22.454,22.454-22.454h97.76
	c0.806,8.722,2.592,17.591,5.351,26.592H64.352c-4.134,0-7.485,3.351-7.485,7.485v60.582v43.161v45.5
	c0,4.134,3.351,7.485,7.485,7.485s7.485-3.351,7.485-7.485v-38.015h63.532v49.225l-63.532,63.532v-44.803
	c0-4.134-3.351-7.485-7.485-7.485s-7.485,3.351-7.485,7.485v62.872v16.048H31.589C31.589,425.274,31.589,155.549,31.589,155.549z
	 M15.57,440.243h170.443h0.115c3.383,14.115,16.1,24.643,31.238,24.643h77.268c15.137,0,27.855-10.526,31.238-24.643l0,0H496.43l0,0
	l0,0c-3.592,22.128-22.834,39.077-45.961,39.077H61.531C38.404,479.32,19.162,462.371,15.57,440.243"/>
<path d="M302.259,122.412c0-25.508-20.752-46.259-46.259-46.259s-46.259,20.752-46.259,46.259s20.752,46.259,46.259,46.259
	S302.259,147.919,302.259,122.412z M224.709,122.412c0-17.253,14.036-31.29,31.29-31.29s31.29,14.036,31.29,31.29
	s-14.036,31.29-31.29,31.29C238.747,153.702,224.709,139.665,224.709,122.412z"/>
<g>
</g>
<g>
</g>
<g>
</g>
<g>
</g>
<g>
</g>
<g>
</g>
<g>
</g>
<g>
</g>
<g>
</g>
<g>
</g>
<g>
</g>
<g>
</g>
<g>
</g>
<g>
</g>
<g>
</g>
</svg>
