<?xml version="1.0" encoding="iso-8859-1"?>
<!-- Generator: Adobe Illustrator 19.0.0, SVG Export Plug-In . SVG Version: 6.00 Build 0)  -->
<svg version="1.1" id="Capa_1" xmlns="http://www.w3.org/2000/svg" xmlns:xlink="http://www.w3.org/1999/xlink" x="0px" y="0px"
	 viewBox="0 0 512 512" style="enable-background:new 0 0 512 512;" xml:space="preserve">
<g>
	<path style="fill:#1EA4E9;" d="M175.192,218.992l-30.865-58.062c-17.143,20.117-28.948,44.92-33.219,72.224L175.192,218.992z"/>
	<path style="fill:#1EA4E9;" d="M400.892,233.154c-4.273-27.32-16.089-52.135-33.248-72.259l-30.881,58.086L400.892,233.154z"/>
	<path style="fill:#1EA4E9;" d="M293.052,175.214l58.05-30.859c-20.113-17.149-44.913-28.961-72.216-33.24L293.052,175.214z"/>
	<path style="fill:#1EA4E9;" d="M233.113,111.115c-27.311,4.28-52.118,16.098-72.235,33.256l58.064,30.869L233.113,111.115z"/>
	<path style="fill:#1EA4E9;" d="M175.165,293.103l-64.041-14.152c4.286,27.27,16.088,52.041,33.216,72.136L175.165,293.103z"/>
	<path style="fill:#1EA4E9;" d="M336.789,293.114l30.84,58.008c17.144-20.101,28.957-44.885,33.245-72.17L336.789,293.114z"/>
	<path style="fill:#1EA4E9;" d="M293.008,336.808l-14.162,64.085c27.304-4.271,52.107-16.076,72.224-33.219L293.008,336.808z"/>
	<path style="fill:#1EA4E9;" d="M218.895,336.83l-57.984,30.827c20.095,17.129,44.867,28.931,72.137,33.217L218.895,336.83z"/>
</g>
<path style="fill:#0993C9;" d="M256,109.317c-4.55,0-9.049,0.219-13.494,0.624c74.685,6.814,133.19,69.599,133.19,146.06
	S317.19,395.247,242.505,402.06c4.445,0.406,8.944,0.624,13.494,0.624c81.011,0,146.684-65.673,146.684-146.684
	S337.011,109.317,256,109.317z"/>
<path style="fill:#FFDB56;" d="M256,192.435c17.569,0,33.473,7.129,44.979,18.651L256,7.548L211.02,211.085
	C222.526,199.564,238.43,192.435,256,192.435z"/>
<path style="fill:#FF4A4A;" d="M256,319.565c-17.612,0-33.548-7.165-45.06-18.736l45.009,203.674l44.979-203.537
	C289.427,312.458,273.544,319.565,256,319.565z"/>
<g>
	<path style="fill:#A8EEFC;" d="M300.967,211.071c11.492,11.502,18.599,27.385,18.599,44.928c0,17.612-7.165,33.548-18.736,45.06
		l203.674-45.009L300.967,211.071z"/>
	<path style="fill:#A8EEFC;" d="M192.435,256c0-17.543,7.108-33.426,18.599-44.928L7.497,256.051L211.17,301.06
		C199.6,289.548,192.435,273.612,192.435,256z"/>
	<polygon style="fill:#A8EEFC;" points="211.023,211.074 218.942,175.24 125.535,125.581 175.192,218.992 	"/>
	<polygon style="fill:#A8EEFC;" points="300.926,300.977 336.76,293.058 386.419,386.465 293.008,336.808 	"/>
	<polygon style="fill:#A8EEFC;" points="211.023,300.972 218.942,336.805 125.535,386.465 175.192,293.053 	"/>
</g>
<g>
	<polygon style="fill:#7EE5F2;" points="192.518,319.94 198.631,347.603 218.942,336.805 211.023,300.972 175.192,293.053 
		164.223,313.687 	"/>
	<polygon style="fill:#7EE5F2;" points="319.482,319.94 313.369,347.603 293.058,336.805 300.977,300.972 336.808,293.053 
		347.777,313.687 	"/>
	<polygon style="fill:#7EE5F2;" points="192.518,192.06 198.631,164.396 218.942,175.195 211.023,211.028 175.192,218.947 
		164.223,198.312 	"/>
</g>
<polygon style="fill:#A8EEFC;" points="300.926,211.068 336.76,218.988 386.419,125.581 293.008,175.238 "/>
<polygon style="fill:#7EE5F2;" points="319.482,192.06 313.369,164.396 293.058,175.195 300.977,211.028 336.808,218.947 
	347.777,198.312 "/>
<circle style="fill:#DDDDDD;" cx="255.996" cy="255.997" r="63.562"/>
<circle style="fill:#FF4A4A;" cx="255.996" cy="255.996" r="28.257"/>
<path d="M506.121,248.731l-98.707-21.813c-4.671-24.44-15.234-47.39-30.801-66.921l16.426-30.895c1.547-2.91,1.013-6.489-1.318-8.82
	c-2.33-2.33-5.909-2.867-8.82-1.318l-30.897,16.425c-19.521-15.557-42.456-26.117-66.879-30.792L263.319,5.93
	c-0.759-3.434-3.803-5.879-7.32-5.879c-3.517,0-6.561,2.445-7.32,5.879l-10.033,45.398c-0.894,4.042,1.659,8.044,5.702,8.937
	c4.038,0.896,8.043-1.66,8.937-5.702l2.712-12.273l27.71,125.388l1.899,8.594c0.027,0.194,0.036,0.388,0.079,0.583l3.608,16.328
	c-7.963-4.234-16.687-6.898-25.786-7.848l0.048-24.408c0.008-4.14-3.341-7.503-7.482-7.512c-0.005,0-0.01,0-0.015,0
	c-4.133,0-7.488,3.347-7.496,7.482l-0.048,24.434c-9.13,0.95-17.883,3.624-25.87,7.88l0,0l0,0l24.111-109.107
	c0.894-4.042-1.659-8.044-5.702-8.937c-4.045-0.896-8.043,1.66-8.937,5.702l-5.243,23.723
	c-24.432,4.677-47.375,15.242-66.899,30.808l-30.922-16.44c-2.911-1.547-6.489-1.013-8.82,1.318
	c-2.331,2.331-2.866,5.909-1.318,8.82l16.443,30.932c-15.552,19.524-26.105,42.462-30.772,66.885l-23.122,5.11
	c-4.043,0.894-6.596,4.895-5.702,8.937c0.894,4.042,4.894,6.598,8.937,5.702l108.487-23.974c0.002,0,0,0,0.002,0l0,0l0,0
	c-4.237,7.965-6.902,16.693-7.853,25.794l-24.407,0.047c-4.14,0.008-7.491,3.371-7.482,7.512c0.008,4.135,3.363,7.482,7.496,7.482
	c0.005,0,0.01,0,0.015,0l24.374-0.048c0.95,9.135,3.626,17.89,7.887,25.88l0,0c-0.219-0.048,0.219,0.028,0,0L42.239,256.051
	l12.918-2.855c4.043-0.894,6.596-4.895,5.702-8.937c-0.894-4.043-4.899-6.597-8.937-5.702L5.879,248.731
	C2.445,249.489,0,252.534,0,256.051c0,3.516,2.445,6.561,5.879,7.32l98.728,21.817c4.68,24.392,15.231,47.299,30.766,66.798
	l-16.458,30.958c-1.546,2.911-1.012,6.489,1.318,8.82c1.441,1.441,3.361,2.196,5.304,2.196c1.198,0,2.407-0.287,3.516-0.878
	l30.957-16.458c19.516,15.55,42.447,26.105,66.864,30.778l21.804,98.666c0.759,3.434,3.803,5.879,7.32,5.879
	c3.517,0,6.561-2.445,7.32-5.879l10.033-45.398c0.894-4.042-1.659-8.044-5.702-8.937c-4.042-0.894-8.043,1.659-8.937,5.702
	l-2.712,12.273l-33.352-150.922c7.986,4.255,16.74,6.93,25.87,7.88l0.048,24.434c0.008,4.135,3.363,7.482,7.496,7.482
	c0.005,0,0.01,0,0.015,0c4.14-0.008,7.49-3.371,7.482-7.512l-0.048-24.408c9.103-0.951,17.83-3.615,25.797-7.854l0,0
	l-24.066,109.084c-0.046,0.208,0.028-0.21,0,0l0,0c-0.894,4.042,1.659,8.044,5.702,8.937c4.038,0.893,8.043-1.659,8.937-5.702
	l5.243-23.722c24.408-4.671,47.331-15.222,66.845-30.765l30.931,16.443c1.111,0.59,2.318,0.878,3.516,0.878
	c1.943,0,3.862-0.755,5.304-2.196c2.331-2.33,2.866-5.91,1.318-8.82l-16.441-30.923c15.551-19.507,26.112-42.426,30.794-66.833
	l98.728-21.817c3.434-0.759,5.879-3.803,5.879-7.32C512,252.534,509.555,249.489,506.121,248.731z M261.721,311.779
	c-0.821,0.084-1.648,0.142-2.479,0.189c-0.128,0.007-0.255,0.022-0.383,0.028c-0.947,0.048-1.9,0.072-2.859,0.072
	c-0.004,0-0.008,0-0.012,0c-0.955,0-1.903-0.025-2.846-0.072c-0.136-0.007-0.271-0.022-0.408-0.03
	c-0.822-0.048-1.641-0.105-2.453-0.187c-0.022-0.002-0.044-0.006-0.066-0.008c-27.158-2.797-48.623-25.058-50.186-52.559
	c-0.007-0.117-0.02-0.233-0.026-0.351c-0.041-0.82-0.057-1.646-0.063-2.475c0.008-0.144,0.021-0.286,0.021-0.432
	c0-0.128-0.013-0.254-0.02-0.381c0.006-0.814,0.021-1.624,0.062-2.43c0.007-0.143,0.023-0.284,0.031-0.427
	c0.047-0.815,0.104-1.627,0.186-2.432c0.004-0.036,0.01-0.071,0.013-0.107c2.725-26.293,23.695-47.249,49.995-49.951
	c0.017-0.002,0.034-0.005,0.052-0.006c0.817-0.083,1.64-0.141,2.467-0.188c0.132-0.008,0.263-0.022,0.395-0.029
	c0.947-0.048,1.9-0.073,2.859-0.073c0.959,0,1.911,0.025,2.859,0.073c0.132,0.007,0.263,0.021,0.395,0.029
	c0.827,0.048,1.65,0.105,2.467,0.188c0.017,0.002,0.033,0.005,0.05,0.006c13.154,1.351,24.976,7.268,33.849,16.136
	c0.005,0.005,0.01,0.01,0.015,0.015c8.858,8.86,14.77,20.663,16.133,33.796c0.004,0.038,0.01,0.075,0.014,0.112
	c0.082,0.805,0.138,1.616,0.186,2.43c0.008,0.144,0.024,0.286,0.031,0.429c0.048,0.946,0.072,1.898,0.072,2.856
	c0,0.96-0.025,1.914-0.073,2.862c-0.006,0.118-0.019,0.234-0.026,0.351c-1.562,27.509-23.041,49.776-50.211,52.562
	C261.747,311.776,261.734,311.778,261.721,311.779z M388.657,222.772l-40.644-8.982l20.851-39.219
	c10.608,14.676,18.231,31.241,22.452,48.788L388.657,222.772z M368.292,143.707L368.292,143.707L368.292,143.707l-35.474,66.725
	l-25.553-5.646l-5.663-25.626L368.292,143.707L368.292,143.707L368.292,143.707L368.292,143.707L368.292,143.707z M337.426,143.135
	l-39.183,20.829l-9.562-43.269C306.211,124.918,322.762,132.537,337.426,143.135z M223.318,120.696l-1.99,9.004l-7.578,34.29
	l-39.198-20.84C189.22,132.545,205.781,124.92,223.318,120.696z M210.393,179.186l-5.658,25.601l0,0l-25.598,5.656l0,0
	l-35.476-66.734c-0.001-0.002,0.001,0.002,0,0l0,0L210.393,179.186z M143.11,174.611l20.833,39.191l-43.258,9.559
	C124.902,205.832,132.517,189.277,143.11,174.611z M120.711,288.748l43.204,9.548l-20.793,39.114
	C132.545,322.768,124.936,306.246,120.711,288.748z M150.96,354.609c0.001-0.001,0.001-0.002,0.002-0.003l14.995-28.207
	l13.155-24.746l25.637,5.665l5.645,25.542l-66.73,35.477L150.96,354.609z M174.59,368.875l39.115-20.795l9.549,43.208
	C205.754,387.064,189.23,379.454,174.59,368.875z M337.389,368.89c-14.655,10.584-31.195,18.195-48.707,22.413l9.553-43.228
	l17.762,9.442L337.389,368.89z M301.592,332.88l5.648-25.56l25.603-5.658l35.448,66.675L301.592,332.88z M368.849,337.447
	l-20.81-39.143l43.25-9.557C387.06,306.26,379.441,322.798,368.849,337.447z M318.786,289.353
	c4.258-7.987,6.934-16.741,7.882-25.873l24.435,0.048c0.005,0,0.01,0,0.015,0c4.133,0,7.488-3.346,7.497-7.482
	c0.008-4.14-3.341-7.503-7.482-7.512l-24.468-0.048c-0.951-9.098-3.614-17.823-7.85-25.787l0,0c0.035,0.008,0,0.001,0.035,0.008
	l150.911,33.343c0.001,0-0.001,0,0,0l0,0L318.786,289.353"/>
<path d="M256,220.243c-19.716,0-35.756,16.04-35.756,35.756s16.04,35.756,35.756,35.756s35.756-16.04,35.756-35.756
	S275.716,220.243,256,220.243z M256,276.762c-11.449,0-20.763-9.314-20.763-20.763s9.314-20.763,20.763-20.763
	s20.763,9.314,20.763,20.763C276.762,267.448,267.448,276.762,256,276.762z"/>
<g>
</g>
<g>
</g>
<g>
</g>
<g>
</g>
<g>
</g>
<g>
</g>
<g>
</g>
<g>
</g>
<g>
</g>
<g>
</g>
<g>
</g>
<g>
</g>
<g>
</g>
<g>
</g>
<g>
</g>
</svg>
