<?xml version="1.0" encoding="iso-8859-1"?>
<!-- Generator: Adobe Illustrator 19.0.0, SVG Export Plug-In . SVG Version: 6.00 Build 0)  -->
<svg version="1.1" id="Capa_1" xmlns="http://www.w3.org/2000/svg" xmlns:xlink="http://www.w3.org/1999/xlink" x="0px" y="0px"
	 viewBox="0 0 512.001 512.001" style="enable-background:new 0 0 512.001 512.001;" xml:space="preserve">
<path style="fill:#FFDB56;" d="M167.426,465.791h-35.853V25.43c0-9.9,8.026-17.926,17.926-17.926l0,0
	c9.9,0,17.927,8.026,17.927,17.926V465.791z"/>
<path style="fill:#FFBB24;" d="M149.5,7.503V465.79h17.927V25.43C167.426,15.53,159.4,7.503,149.5,7.503z"/>
<path style="fill:#F77935;" d="M190.667,465.791h-82.336c-22.967,0-42.904,16.04-48.108,38.705l0,0h178.552l0,0
	C233.571,481.831,213.634,465.791,190.667,465.791z"/>
<path style="fill:#EA5A21;" d="M190.667,465.791h-45.02c22.967,0,42.904,16.04,48.108,38.705l0,0h45.02l0,0
	C233.571,481.832,213.634,465.791,190.667,465.791z"/>
<polygon style="fill:#FF4A4A;" points="167.758,249.919 451.778,249.919 375.198,151.95 451.778,53.98 167.758,53.98 "/>
<rect x="167.756" y="53.98" style="fill:#E7343F;" width="27.012" height="195.938"/>
<path d="M190.668,458.288h-15.739v-91.63c0-4.144-3.359-7.503-7.503-7.503c-4.144,0-7.503,3.36-7.503,7.503v91.63h-20.846V151.095
	c0-4.144-3.359-7.503-7.503-7.503c-4.144,0-7.503,3.36-7.503,7.503v307.193h-15.738c-26.612,0-49.401,18.311-55.421,44.53
	c-0.511,2.227,0.02,4.566,1.444,6.354c1.424,1.788,3.585,2.829,5.87,2.829h178.552c2.285,0,4.446-1.041,5.87-2.829
	c1.424-1.788,1.955-4.127,1.444-6.354C240.068,476.598,217.279,458.288,190.668,458.288z M70.754,496.992
	c6.913-14.318,21.275-23.699,37.577-23.699h23.241h35.853h23.241c16.303,0,30.664,9.378,37.577,23.699H70.754z"/>
<path d="M432.452,213.012c-2.552-3.265-7.269-3.843-10.533-1.291c-3.264,2.552-3.843,7.268-1.291,10.533l15.76,20.162H175.261
	V61.484h261.128l-67.103,85.845c-2.122,2.715-2.122,6.527,0,9.242l32.434,41.492c2.554,3.265,7.269,3.843,10.533,1.291
	c3.265-2.552,3.843-7.268,1.291-10.533l-28.822-36.87l72.968-93.349c1.767-2.26,2.09-5.33,0.832-7.91
	c-1.258-2.579-3.875-4.215-6.744-4.215H174.929V25.43C174.929,11.408,163.521,0,149.5,0s-25.43,11.408-25.43,25.43v95.651
	c0,4.144,3.36,7.503,7.503,7.503c4.144,0,7.503-3.359,7.503-7.503V25.43c0-5.748,4.676-10.424,10.424-10.424
	c5.748,0,10.423,4.676,10.423,10.424v311.214c0,4.144,3.36,7.503,7.503,7.503c4.144,0,7.503-3.359,7.503-7.503v-79.221h276.849
	c2.869,0,5.486-1.636,6.744-4.215c1.258-2.579,0.934-5.649-0.832-7.91L432.452,213.012z"/>
<g>
</g>
<g>
</g>
<g>
</g>
<g>
</g>
<g>
</g>
<g>
</g>
<g>
</g>
<g>
</g>
<g>
</g>
<g>
</g>
<g>
</g>
<g>
</g>
<g>
</g>
<g>
</g>
<g>
</g>
</svg>
