<?xml version="1.0" encoding="iso-8859-1"?>
<!-- Generator: Adobe Illustrator 19.0.0, SVG Export Plug-In . SVG Version: 6.00 Build 0)  -->
<svg version="1.1" id="Capa_1" xmlns="http://www.w3.org/2000/svg" xmlns:xlink="http://www.w3.org/1999/xlink" x="0px" y="0px"
	 viewBox="0 0 512 512" style="enable-background:new 0 0 512 512;" xml:space="preserve">
<path style="fill:#546F7A;" d="M483.78,451.763H28.22c-11.441,0-20.715-9.274-20.715-20.715V80.952
	c0-11.441,9.274-20.715,20.715-20.715H483.78c11.441,0,20.715,9.274,20.715,20.715v350.096
	C504.495,442.489,495.221,451.763,483.78,451.763z"/>
<path style="fill:#475D63;" d="M483.78,60.237h-27.018c11.441,0,20.715,9.274,20.715,20.715v350.096
	c0,11.441-9.274,20.715-20.715,20.715h27.018c11.441,0,20.715-9.274,20.715-20.715V80.953
	C504.495,69.512,495.221,60.237,483.78,60.237z"/>
<rect x="43.409" y="96.924" style="fill:#4CE166;" width="425.182" height="276.043"/>
<rect x="441.572" y="96.924" style="fill:#44C868;" width="27.018" height="276.043"/>
<rect x="279.585" y="96.924" style="fill:#A8EEFC;" width="98.715" height="185.453"/>
<polygon style="fill:#FFDB56;" points="378.307,96.927 378.307,282.379 278.982,282.379 278.982,96.927 235.704,96.927 
	235.704,261.111 136.377,187.05 136.377,96.927 93.101,96.927 93.101,372.968 136.377,372.968 136.377,241.034 235.704,315.094 
	235.704,372.968 278.982,372.968 278.982,325.656 378.307,325.656 378.307,372.968 421.585,372.968 421.585,96.927 "/>
<circle style="fill:#37494F;" cx="256" cy="410.682" r="17.343"/>
<path style="fill:#FF4A4A;" d="M255.807,126.466c-36.511,0-66.11,29.599-66.11,66.11c0,55.601,66.11,106.758,66.11,106.758
	s66.11-51.158,66.11-106.758C321.917,156.064,292.319,126.466,255.807,126.466z M255.807,218.943
	c-14.563,0-26.367-11.805-26.367-26.367c0-14.563,11.805-26.367,26.367-26.367s26.367,11.805,26.367,26.367
	S270.37,218.943,255.807,218.943z"/>
<path style="fill:#E7343F;" d="M255.807,126.466c-4.63,0-9.147,0.48-13.509,1.386c30.032,6.236,52.601,32.843,52.601,64.724
	c0,39.443-33.265,76.643-52.601,94.937c7.921,7.494,13.509,11.821,13.509,11.821s66.11-51.158,66.11-106.758
	C321.917,156.064,292.319,126.466,255.807,126.466z"/>
<circle style="fill:#FFFFFF;" cx="255.809" cy="192.577" r="26.367"/>
<path d="M483.78,52.732H28.22C12.659,52.732,0,65.391,0,80.953v350.096c0,15.56,12.659,28.22,28.22,28.22H483.78
	c15.56,0,28.22-12.659,28.22-28.22V80.953C512,65.391,499.341,52.732,483.78,52.732z M496.99,431.048
	c0,7.284-5.926,13.21-13.21,13.21H28.22c-7.284,0-13.21-5.926-13.21-13.21V80.953c0-7.284,5.926-13.21,13.21-13.21H483.78
	c7.284,0,13.21,5.926,13.21,13.21L496.99,431.048L496.99,431.048z"/>
<path d="M43.409,380.473h425.183c4.145,0,7.505-3.36,7.505-7.505V96.927c0-4.145-3.36-7.505-7.505-7.505H43.409
	c-4.145,0-7.505,3.36-7.505,7.505v48.946c0,4.145,3.36,7.505,7.505,7.505s7.505-3.36,7.505-7.505v-41.441h34.682v261.031H50.914
	V175.892c0-4.145-3.36-7.505-7.505-7.505s-7.505,3.36-7.505,7.505v197.076C35.904,377.113,39.264,380.473,43.409,380.473
	 M208.372,232.605c-0.145-0.333-0.316-0.656-0.51-0.968c-6.358-12.306-10.66-25.604-10.66-39.062
	c0-32.315,26.29-58.605,58.605-58.605c32.315,0,58.605,26.289,58.605,58.605c0,42.985-44.068,84.489-58.609,97.01
	C245.921,281.089,222.427,259.243,208.372,232.605z M271.477,104.432v16.224c-5.052-1.1-10.292-1.695-15.669-1.695
	c-4.297,0-8.502,0.391-12.598,1.101v-15.629C243.209,104.432,271.477,104.432,271.477,104.432z M294.617,271.623
	c23.095-27.583,34.805-54.18,34.805-79.047c0-29.645-17.624-55.236-42.935-66.891v-21.252h84.316v170.442h-78.961
	C292.765,273.81,293.69,272.73,294.617,271.623z M228.199,104.432v19.92c-26.948,10.945-46.007,37.393-46.007,68.223
	c0,7.25,1.016,14.396,2.797,21.359l-41.106-30.649v-78.852L228.199,104.432L228.199,104.432z M370.803,365.463h-84.316v-32.302
	h84.316V365.463z M461.086,365.463h-31.997v-131.51c0-4.145-3.36-7.505-7.505-7.505s-7.505,3.36-7.505,7.505v131.51h-28.268v-39.807
	c0-4.145-3.36-7.505-7.505-7.505h-99.326c-4.145,0-7.505,3.36-7.505,7.505v39.807h-28.268v-50.369c0-2.37-1.12-4.6-3.019-6.017
	l-99.326-74.06c-2.275-1.696-5.315-1.964-7.852-0.691c-2.538,1.274-4.139,3.87-4.139,6.708v38.2c0,4.145,3.36,7.505,7.505,7.505
	s7.505-3.36,7.505-7.505v-23.242l84.317,62.869v46.604h-84.317v-56.209c0-4.145-3.36-7.505-7.505-7.505s-7.505,3.36-7.505,7.505
	v56.209h-28.267V104.432h28.267v82.618c0,2.37,1.119,4.6,3.019,6.017l63.718,47.51c19.504,36.407,53.599,63.14,55.605,64.692
	c1.352,1.046,2.973,1.569,4.593,1.569c1.62,0,3.241-0.523,4.593-1.569c0.457-0.354,7.717-6.008,17.391-15.489
	c0.388,0.062,0.785,0.103,1.191,0.103h99.326c4.145,0,7.505-3.36,7.505-7.505V104.432h28.268v99.501c0,4.145,3.36,7.505,7.505,7.505
	s7.505-3.36,7.505-7.505v-99.502h31.997L461.086,365.463L461.086,365.463z"/>
<path d="M255.996,385.83c-13.701,0-24.848,11.147-24.848,24.848s11.146,24.848,24.848,24.848c13.702,0,24.848-11.147,24.848-24.848
	C280.845,396.977,269.699,385.83,255.996,385.83z M255.996,420.517c-5.425,0-9.839-4.414-9.839-9.839
	c0-5.425,4.414-9.839,9.839-9.839s9.839,4.414,9.839,9.839C265.835,416.104,261.422,420.517,255.996,420.517z"/>
<path d="M114.374,403.174H77.255c-4.145,0-7.505,3.36-7.505,7.505s3.36,7.505,7.505,7.505h37.119c4.145,0,7.505-3.36,7.505-7.505
	S118.518,403.174,114.374,403.174z"/>
<path d="M434.739,403.174h-37.12c-4.145,0-7.505,3.36-7.505,7.505s3.36,7.505,7.505,7.505h37.12c4.145,0,7.505-3.36,7.505-7.505
	S438.884,403.174,434.739,403.174z"/>
<path d="M289.68,192.576c0-18.677-15.195-33.872-33.872-33.872s-33.872,15.195-33.872,33.872s15.195,33.873,33.872,33.873
	C274.485,226.448,289.68,211.253,289.68,192.576z M236.945,192.576c0-10.401,8.462-18.862,18.862-18.862
	c10.401,0,18.862,8.462,18.862,18.862s-8.462,18.863-18.862,18.863C245.406,211.438,236.945,202.976,236.945,192.576z"/>
<g>
</g>
<g>
</g>
<g>
</g>
<g>
</g>
<g>
</g>
<g>
</g>
<g>
</g>
<g>
</g>
<g>
</g>
<g>
</g>
<g>
</g>
<g>
</g>
<g>
</g>
<g>
</g>
<g>
</g>
</svg>
