<?xml version="1.0" encoding="iso-8859-1"?>
<!-- Generator: Adobe Illustrator 19.0.0, SVG Export Plug-In . SVG Version: 6.00 Build 0)  -->
<svg version="1.1" id="Capa_1" xmlns="http://www.w3.org/2000/svg" xmlns:xlink="http://www.w3.org/1999/xlink" x="0px" y="0px"
	 viewBox="0 0 512.001 512.001" style="enable-background:new 0 0 512.001 512.001;" xml:space="preserve">
<polygon style="fill:#7EE5F2;" points="172.982,437.113 338.675,500.56 338.675,156.788 172.982,93.341 "/>
<polygon style="fill:#FFBB24;" points="338.675,267.222 338.675,219.568 172.982,156.121 172.982,203.775 243.037,230.631 
	243.037,338.477 172.982,311.62 172.982,359.274 243.037,386.131 243.037,463.969 284.635,479.916 284.635,402.078 338.675,422.722 
	338.675,375.068 284.635,354.424 284.635,246.579 "/>
<g>
	<polygon style="fill:#44C868;" points="172.982,203.775 172.982,311.62 243.037,338.477 243.037,230.631 	"/>
	<polygon style="fill:#44C868;" points="338.675,374.863 284.635,354.424 284.635,246.579 338.675,267.222 	"/>
</g>
<polygon style="fill:#A8EEFC;" points="172.982,437.113 7.479,500.56 7.479,156.788 172.982,93.341 "/>
<g>
	<polygon style="fill:#4CE166;" points="7.479,422.722 7.479,500.56 172.982,437.113 172.982,359.274 	"/>
	<polygon style="fill:#4CE166;" points="84.106,237.847 172.982,311.62 172.982,203.775 	"/>
</g>
<polygon style="fill:#A8EEFC;" points="504.521,437.113 338.675,500.56 338.675,156.788 504.521,93.341 "/>
<polygon style="fill:#FFDB56;" points="338.675,219.568 338.675,267.222 503.987,203.775 503.987,156.121 "/>
<g>
	<polygon style="fill:#4CE166;" points="448.187,380.666 448.187,458.709 504.521,437.113 503.987,359.274 	"/>
	<polygon style="fill:#4CE166;" points="338.675,374.863 338.675,267.222 503.987,203.775 503.987,311.62 	"/>
</g>
<g>
	<polygon style="fill:#FFDB56;" points="338.675,422.517 406.589,396.613 406.589,474.657 448.187,458.709 448.187,380.666 
		503.987,359.274 503.987,311.62 338.675,374.863 	"/>
	<polygon style="fill:#FFDB56;" points="172.982,156.121 7.479,219.568 7.479,267.222 35.346,256.539 123.721,330.505 
		7.479,375.068 7.479,422.722 172.982,359.274 172.982,311.62 84.106,237.847 172.982,203.775 	"/>
</g>
<circle style="fill:#DDDDDD;" cx="339.021" cy="135.086" r="123.648"/>
<path style="fill:#C6C5CA;" d="M339.018,231.801c-63.736,0-116.201-48.228-122.911-110.181c-0.479,4.423-0.732,8.913-0.732,13.463
	c0,68.286,55.357,123.644,123.644,123.644s123.643-55.357,123.643-123.644c0-4.55-0.253-9.04-0.732-13.463
	C455.219,183.573,402.755,231.801,339.018,231.801z"/>
<polygon style="fill:#FFBB24;" points="363.961,160.025 401.753,72.348 314.076,110.141 "/>
<polygon style="fill:#FF4A4A;" points="314.076,110.141 276.283,197.819 363.961,160.025 "/>
<path d="M0,500.561c0,2.463,1.213,4.768,3.241,6.163c1.264,0.87,2.745,1.316,4.238,1.316c0.903,0,1.81-0.164,2.677-0.496
	l162.827-62.421l0,0c0.114,0.05-0.118-0.045,0,0L336,507.546c0.249,0.096-0.255-0.068,0,0l0,0c0.118,0.045,0.238,0.079,0.358,0.119
	c0.06,0.02,0.119,0.042,0.18,0.06c0.312,0.094,0.627,0.165,0.945,0.215c0.064,0.01,0.128,0.018,0.191,0.026
	c0.332,0.045,0.666,0.075,1,0.075l0,0c0,0,0,0,0.001,0c0.334,0,0.668-0.03,1-0.075c0.064-0.009,0.127-0.016,0.189-0.026
	c0.318-0.052,0.634-0.123,0.947-0.216c0.06-0.018,0.119-0.04,0.178-0.059c0.119-0.039,0.239-0.073,0.357-0.118l0,0
	c0.32-0.076-0.311,0.12,0,0l165.683-63.371c0.17-0.065,0,0,0.163-0.076l0,0c2.895-1.107,4.807-3.886,4.807-6.986V93.341
	c0-2.462-1.212-4.766-3.24-6.162c-2.028-1.395-4.614-1.704-6.912-0.824l-36.404,13.927C450.159,44.818,399.274,3.961,339.018,3.961
	c-21.652,0-43.112,5.39-62.06,15.589c-3.637,1.958-4.999,6.493-3.041,10.131c1.958,3.637,6.493,4.999,10.131,3.041
	c16.777-9.029,35.785-13.802,54.97-13.802c64.053,0,116.164,52.111,116.164,116.163c0,46.013-26.892,85.862-65.783,104.659
	l-6.194,2.377c-0.784,0.3-1.483,0.724-2.094,1.232c-13.058,5.094-27.254,7.896-42.093,7.896
	c-64.053,0-116.163-52.111-116.163-116.164c0-32.637,13.854-63.961,38.008-85.941c3.056-2.78,3.278-7.51,0.498-10.566
	c-2.78-3.055-7.51-3.279-10.566-0.498c-18.544,16.874-31.7,38.631-38.224,62.412l-36.914-14.135
	c-0.008-0.003-0.017-0.005-0.025-0.008c-0.16-0.061-0.324-0.104-0.487-0.154c-0.128-0.039-0.254-0.086-0.384-0.118
	c-0.134-0.033-0.27-0.05-0.406-0.075c-0.161-0.03-0.32-0.068-0.482-0.087c-0.112-0.013-0.224-0.012-0.337-0.021
	c-0.186-0.014-0.373-0.033-0.559-0.033c-0.11,0-0.22,0.014-0.33,0.02c-0.188,0.008-0.377,0.012-0.564,0.035
	c-0.115,0.014-0.228,0.043-0.343,0.062c-0.182,0.031-0.364,0.056-0.544,0.101c-0.109,0.027-0.214,0.068-0.322,0.099
	c-0.184,0.054-0.367,0.104-0.545,0.172c-0.008,0.003-0.016,0.004-0.023,0.007L4.802,149.805C1.91,150.913,0,153.69,0,156.788
	V500.561 M393.154,354.021c1.475,3.858,5.802,5.792,9.658,4.313l93.695-35.845v31.641l-50.999,19.551
	c-2.892,1.109-4.802,3.885-4.802,6.984v72.852l-26.639,10.192v-67.097c0-2.46-1.21-4.764-3.237-6.159
	c-2.026-1.396-4.61-1.705-6.908-0.829l-57.769,22.034v-31.65l28.6-10.941c3.858-1.476,5.789-5.8,4.313-9.658
	c-1.475-3.858-5.799-5.79-9.658-4.313l-23.255,8.896v-97.985c17.49-0.942,34.077-5.329,49.099-12.491l101.788-39.067v91.818
	l-99.574,38.094C393.61,345.84,391.678,350.164,393.154,354.021z M292.114,257.525c12.255,4.71,25.388,7.631,39.082,8.441v98.238
	l-39.082-14.93V257.525z M497.041,104.21v46.565l-29.724,11.408c1.846-8.748,2.823-17.812,2.823-27.1
	c0-6.798-0.521-13.477-1.523-19.999L497.041,104.21z M462.144,180.191l34.364-13.188v31.631l-58.644,22.508
	C448.282,209.191,456.575,195.344,462.144,180.191z M277.155,250.667v103.757c0,3.1,1.914,5.88,4.811,6.987l49.23,18.806v31.641
	l-43.891-16.768c-2.298-0.878-4.882-0.568-6.91,0.827c-2.027,1.396-3.238,3.7-3.238,6.161v66.918l-26.639-10.201v-72.664
	c0-3.098-1.91-5.875-4.802-6.984l-65.253-25.016v-31.634l59.898,22.962c2.3,0.882,4.885,0.575,6.915-0.821
	c2.029-1.395,3.241-3.7,3.241-6.163V231.745C258.545,239.101,267.489,245.472,277.155,250.667z M331.196,427.87v61.817
	l-39.082-14.966V412.94L331.196,427.87z M240.684,221.719l-60.222-23.087v-31.638l35.595,13.63
	C221.715,195.853,230.128,209.752,240.684,221.719z M180.461,306.478v-91.826l55.096,21.122V327.6L180.461,306.478z
	 M165.503,295.691l-66.785-55.436l66.785-25.603V295.691z M210.809,162.596l-30.348-11.621v-46.762l28.952,11.086
	c-0.999,6.511-1.517,13.122-1.517,19.783C207.896,144.518,208.906,153.721,210.809,162.596z M165.503,104.218v46.76L76.966,184.92
	c-3.857,1.478-5.785,5.804-4.306,9.661c1.478,3.857,5.806,5.785,9.661,4.306l83.183-31.889v31.634l-84.074,32.231
	c-2.48,0.951-4.27,3.146-4.702,5.767c-0.433,2.621,0.558,5.274,2.603,6.972l86.173,71.53v39L14.959,411.845V380.21l111.44-42.722
	c2.475-0.949,4.263-3.137,4.7-5.752c0.437-2.615-0.543-5.265-2.577-6.967l-88.375-73.966c-2.081-1.742-4.943-2.22-7.477-1.248
	l-17.711,6.789v-31.634l39.43-15.116c3.857-1.478,5.785-5.804,4.306-9.661c-1.478-3.857-5.805-5.783-9.661-4.306L14.959,208.69
	v-46.76L165.503,104.218z M14.959,272.365l18.959-7.268l75.248,62.979L14.959,364.19V272.365z M14.959,427.864l150.544-57.712
	v61.819L14.959,489.683V427.864z M180.461,370.151l55.096,21.122v61.793l-55.096-21.098V370.151z M346.154,427.669l52.955-20.198
	v61.961l-52.955,20.259V427.669z M455.666,447.795v-61.986l41.375-15.862v62.02L455.666,447.795z"/>
<path d="M276.285,205.298c0.997,0,2.004-0.199,2.959-0.611l87.677-37.793c0.031-0.013,0.059-0.032,0.09-0.045
	c0.148-0.066,0.289-0.143,0.432-0.218c0.128-0.068,0.257-0.132,0.38-0.205c0.133-0.08,0.258-0.171,0.386-0.258
	c0.122-0.085,0.245-0.166,0.362-0.256c0.12-0.094,0.229-0.196,0.343-0.297c0.113-0.1,0.226-0.196,0.333-0.302
	c0.106-0.106,0.202-0.22,0.302-0.333c0.101-0.113,0.203-0.224,0.297-0.343c0.091-0.117,0.172-0.24,0.256-0.362
	c0.089-0.128,0.178-0.252,0.259-0.386c0.074-0.123,0.138-0.252,0.205-0.38c0.076-0.143,0.153-0.284,0.218-0.432
	c0.014-0.031,0.032-0.059,0.045-0.09l37.792-87.677c1.213-2.813,0.587-6.083-1.58-8.249c-2.166-2.167-5.436-2.793-8.249-1.58
	l-87.677,37.793c-0.031,0.013-0.059,0.032-0.09,0.045c-0.148,0.066-0.289,0.144-0.432,0.218c-0.128,0.068-0.257,0.132-0.38,0.205
	c-0.133,0.08-0.258,0.171-0.386,0.258c-0.122,0.085-0.245,0.166-0.362,0.256c-0.12,0.094-0.23,0.196-0.343,0.297
	c-0.113,0.1-0.226,0.196-0.333,0.302c-0.107,0.106-0.202,0.22-0.302,0.333c-0.101,0.114-0.203,0.224-0.297,0.343
	c-0.091,0.117-0.172,0.24-0.256,0.362c-0.089,0.128-0.178,0.253-0.259,0.386c-0.074,0.123-0.138,0.252-0.205,0.38
	c-0.076,0.143-0.153,0.284-0.218,0.432c-0.014,0.031-0.032,0.059-0.045,0.09l-37.792,87.677c-1.213,2.813-0.587,6.083,1.58,8.249
	C272.426,204.539,274.34,205.298,276.285,205.298z M387.439,86.662l-25.983,60.28l-34.297-34.297L387.439,86.662z M316.581,123.223
	l34.297,34.297l-60.28,25.984L316.581,123.223z"/>
<g>
</g>
<g>
</g>
<g>
</g>
<g>
</g>
<g>
</g>
<g>
</g>
<g>
</g>
<g>
</g>
<g>
</g>
<g>
</g>
<g>
</g>
<g>
</g>
<g>
</g>
<g>
</g>
<g>
</g>
</svg>
