<?xml version="1.0" encoding="iso-8859-1"?>
<!-- Generator: Adobe Illustrator 19.0.0, SVG Export Plug-In . SVG Version: 6.00 Build 0)  -->
<svg version="1.1" id="Capa_1" xmlns="http://www.w3.org/2000/svg" xmlns:xlink="http://www.w3.org/1999/xlink" x="0px" y="0px"
	 viewBox="0 0 512 512" style="enable-background:new 0 0 512 512;" xml:space="preserve">
<polygon style="fill:#CC2939;" points="172.875,101.583 256.007,8.252 339.14,101.583 284.841,101.583 284.841,503.746 
	227.173,503.746 227.173,101.583 "/>
<path style="fill:#B7253A;" d="M284.841,165.925c-12.842,6.148-24.739,14.376-35.269,24.532
	c-8.856,8.54-16.355,18.066-22.399,28.331v284.958h57.669v-337.82H284.841z"/>
<path style="fill:#E7343F;" d="M284.828,503.746V303.023c0-20.463,8.168-39.611,22.999-53.913
	c14.808-14.278,34.361-21.883,55.048-21.45l47.071-0.018v57l94.575-82.038l-94.575-82.038v50.192l-45.407,0.015
	c-0.078-0.002-0.156-0.005-0.233-0.006c-36.388-0.802-70.755,12.54-96.783,37.64c-26.029,25.099-40.363,58.701-40.363,94.615
	v200.723L284.828,503.746L284.828,503.746z"/>
<path style="fill:#CC2939;" d="M227.159,503.746h57.669V314.827c-6.044-10.265-13.543-19.791-22.399-28.331
	c-8.972-8.653-18.937-15.907-29.632-21.667c-3.71,12.22-5.637,25.051-5.637,38.193L227.159,503.746L227.159,503.746z"/>
<path style="fill:#FF4A4A;" d="M227.172,503.746V399.062c0-20.463-8.168-39.611-22.999-53.913
	c-14.808-14.278-34.361-21.883-55.048-21.45l-47.071-0.018v57L7.479,298.644l94.575-82.038v50.192l45.407,0.015
	c0.078-0.002,0.156-0.004,0.233-0.006c36.388-0.802,70.755,12.54,96.783,37.64c26.029,25.099,40.363,58.701,40.363,94.615v104.683
	h-57.669V503.746z"/>
<path d="M509.421,196.955l-94.575-82.038c-2.213-1.919-5.341-2.369-8.006-1.155c-2.665,1.217-4.374,3.875-4.374,6.804v42.715
	l-37.826,0.012l-0.171-0.004c-25.662-0.568-50.379,5.557-72.148,17.576V109.06h46.818c2.947,0,5.618-1.73,6.824-4.419
	c1.206-2.689,0.721-5.835-1.24-8.035L261.591,3.278c-1.419-1.594-3.451-2.505-5.586-2.505c-2.134,0-4.165,0.911-5.586,2.505
	l-83.132,93.33c-1.96,2.2-2.445,5.346-1.24,8.035c1.206,2.689,3.878,4.419,6.824,4.419h46.818v32.93
	c0,4.131,3.349,7.479,7.479,7.479c4.131,0,7.479-3.349,7.479-7.479v-40.409c0-4.131-3.349-7.479-7.479-7.479h-37.62l66.454-74.606
	l66.454,74.606h-37.618c-4.131,0-7.479,3.349-7.479,7.479v88.82c-5.25,3.83-10.277,8.036-15.031,12.621
	c-11.451,11.042-20.731,23.537-27.678,37.134v-68.249c0-4.131-3.349-7.479-7.479-7.479s-7.479,3.349-7.479,7.479v104.998
	c-21.761-12.025-46.465-18.154-72.138-17.577l-0.18,0.004l-37.841-0.012v-42.715c0-2.929-1.709-5.589-4.374-6.804
	c-2.666-1.216-5.794-0.765-8.006,1.155L2.579,292.995C0.94,294.415,0,296.476,0,298.644c0,2.168,0.94,4.229,2.579,5.649
	l29.129,25.267c3.121,2.707,7.844,2.371,10.551-0.749s2.371-7.844-0.749-10.551l-22.616-19.618l75.682-65.649v33.803
	c0,4.13,3.347,7.478,7.477,7.479l45.407,0.015c0.048,0,0.095,0,0.143-0.001l0.257-0.006c34.399-0.75,66.872,11.867,91.427,35.547
	c24.289,23.422,37.774,54.686,38.062,88.139v17.728c0,4.131,3.349,7.479,7.479,7.479c0.002,0,0.004,0,0.007,0
	c0.002,0,0.005,0,0.007,0c4.131,0,7.479-3.349,7.479-7.479v-16.636c0-0.365-0.011-0.728-0.014-1.093v-94.946
	c0-18.415,7.356-35.649,20.712-48.53c13.351-12.875,30.985-19.763,49.698-19.355c0.053,0.001,0.106,0.009,0.16,0.001l39.589-0.015
	v49.518c0,2.929,1.709,5.588,4.374,6.804c2.665,1.216,5.793,0.764,8.006-1.155l94.575-82.038c1.637-1.42,2.579-3.482,2.579-5.649
	C512,200.437,511.06,198.375,509.421,196.955z M417.425,268.254v-40.612c0-1.985-0.789-3.886-2.192-5.289
	c-1.402-1.402-3.305-2.19-5.287-2.19c-0.001,0-0.002,0-0.003,0l-46.992,0.018c-22.653-0.436-44.095,7.904-60.316,23.545
	c-16.307,15.725-25.287,36.783-25.287,59.297v33.298c-6.962-13.658-16.249-26.236-27.678-37.258
	c-4.453-4.294-9.141-8.257-14.029-11.891c3.553-28.059,16.325-53.374,37.073-73.382c24.555-23.68,57.016-36.326,91.507-35.544
	c0.013,0,0.119,0.003,0.131,0.003c0.063,0.002,0.132,0.008,0.189,0.003l45.407-0.015c4.13-0.001,7.477-3.35,7.477-7.479v-33.803
	l75.681,65.649L417.425,268.254z"/>
<path d="M284.841,438.136c-4.131,0-7.479,3.349-7.479,7.479v50.652h-42.711v-97.205c0-22.514-8.98-43.572-25.287-59.297
	c-16.219-15.64-37.661-24.006-60.315-23.545l-46.993-0.018c-0.001,0-0.002,0-0.003,0c-1.983,0-3.885,0.788-5.287,2.19
	c-1.403,1.403-2.192,3.305-2.192,5.289v40.612l-30.46-26.422c-3.12-2.707-7.845-2.37-10.551,0.749
	c-2.707,3.12-2.371,7.844,0.749,10.551l42.839,37.161c2.212,1.919,5.341,2.37,8.006,1.155c2.665-1.217,4.374-3.875,4.374-6.804
	v-49.518l39.588,0.015c0.06,0.007,0.107,0,0.16-0.001c18.701-0.39,36.348,6.481,49.699,19.356
	c13.356,12.878,20.712,30.114,20.712,48.529v104.684c0,4.131,3.349,7.479,7.479,7.479h57.669c4.131,0,7.479-3.349,7.479-7.479
	v-58.133C292.32,441.484,288.972,438.136,284.841,438.136z"/>
<g>
</g>
<g>
</g>
<g>
</g>
<g>
</g>
<g>
</g>
<g>
</g>
<g>
</g>
<g>
</g>
<g>
</g>
<g>
</g>
<g>
</g>
<g>
</g>
<g>
</g>
<g>
</g>
<g>
</g>
</svg>
