<?xml version="1.0" encoding="iso-8859-1"?>
<!-- Generator: Adobe Illustrator 19.0.0, SVG Export Plug-In . SVG Version: 6.00 Build 0)  -->
<svg version="1.1" id="Capa_1" xmlns="http://www.w3.org/2000/svg" xmlns:xlink="http://www.w3.org/1999/xlink" x="0px" y="0px"
	 viewBox="0 0 512 512" style="enable-background:new 0 0 512 512;" xml:space="preserve">
<path style="fill:#DDDDDD;" d="M392.612,42.425c0-19.287-15.636-34.922-34.923-34.922H154.311
	c-19.288,0-34.922,15.636-34.922,34.922v427.15c0,19.288,15.636,34.923,34.922,34.923h203.378c19.288,0,34.923-15.636,34.923-34.923
	V42.425z"/>
<path style="fill:#C6C5CA;" d="M357.689,7.502h-27.008c19.287,0,34.922,15.636,34.922,34.922v427.15
	c0,19.287-15.636,34.922-34.922,34.922h27.008c19.287,0,34.922-15.636,34.922-34.922V42.425
	C392.612,23.138,376.977,7.502,357.689,7.502z"/>
<rect x="151.455" y="77.413" style="fill:#606060;" width="209.092" height="335.719"/>
<rect x="333.539" y="77.413" style="fill:#4C4C4C;" width="27.008" height="335.719"/>
<circle style="fill:#475D63;" cx="256.706" cy="458.575" r="21.623"/>
<polygon style="fill:#E0E0E0;" points="360.544,413.129 151.457,413.129 221.348,77.415 290.653,77.415 "/>
<polygon style="fill:#C6C5CA;" points="333.536,283.399 333.536,413.129 360.544,413.129 "/>
<polygon style="fill:#FF4A4A;" points="254.864,331.011 313.174,355.524 254.864,229.089 196.552,355.524 "/>
<polygon style="fill:#E7343F;" points="254.864,304.003 212.004,322.02 196.552,355.524 254.864,331.011 313.174,355.524 
	297.722,322.02 "/>
<path d="M292.398,50.604c4.144,0,7.502-3.359,7.502-7.502c0-4.143-3.358-7.502-7.502-7.502h-37.534
	c-4.144,0-7.502,3.359-7.502,7.502s3.358,7.502,7.502,7.502H292.398z"/>
<path d="M233.063,50.604c4.144,0,7.502-3.359,7.502-7.502c0-4.143-3.358-7.502-7.502-7.502h-13.461
	c-4.144,0-7.502,3.359-7.502,7.502s3.358,7.502,7.502,7.502H233.063z"/>
<path d="M227.583,458.576c0,16.06,13.065,29.126,29.125,29.126c16.061,0,29.126-13.066,29.126-29.126s-13.065-29.126-29.126-29.126
	C240.648,429.451,227.583,442.517,227.583,458.576z M270.829,458.576c0,7.786-6.335,14.121-14.121,14.121s-14.12-6.335-14.12-14.121
	s6.334-14.121,14.12-14.121C264.493,444.455,270.829,450.79,270.829,458.576z"/>
<path d="M360.544,420.631c0.274,0,0.545-0.017,0.812-0.046c0.063-0.007,0.125-0.02,0.188-0.029c0.205-0.027,0.409-0.059,0.609-0.103
	c0.071-0.016,0.141-0.036,0.211-0.054c0.189-0.047,0.376-0.099,0.559-0.16c0.075-0.025,0.148-0.054,0.221-0.081
	c0.175-0.065,0.346-0.134,0.515-0.211c0.077-0.035,0.152-0.072,0.227-0.109c0.16-0.08,0.316-0.165,0.47-0.256
	c0.077-0.045,0.153-0.09,0.228-0.139c0.149-0.095,0.293-0.198,0.434-0.303c0.07-0.052,0.142-0.102,0.21-0.157
	c0.155-0.124,0.302-0.256,0.446-0.391c0.047-0.044,0.096-0.084,0.142-0.129c0.188-0.187,0.367-0.383,0.536-0.588
	c0.003-0.004,0.007-0.007,0.01-0.011c0.021-0.026,0.037-0.054,0.058-0.08c0.141-0.177,0.274-0.36,0.398-0.55
	c0.043-0.065,0.08-0.132,0.12-0.198c0.098-0.16,0.192-0.323,0.278-0.491c0.038-0.074,0.073-0.15,0.108-0.225
	c0.078-0.165,0.15-0.332,0.215-0.504c0.03-0.079,0.06-0.158,0.087-0.238c0.059-0.169,0.11-0.341,0.156-0.516
	c0.023-0.085,0.046-0.17,0.066-0.256c0.038-0.168,0.068-0.339,0.095-0.512c0.015-0.095,0.032-0.189,0.043-0.285
	c0.019-0.161,0.028-0.325,0.036-0.489c0.005-0.107,0.015-0.213,0.016-0.32c0-0.023,0.003-0.046,0.003-0.069V292.306
	c0-4.143-3.358-7.502-7.502-7.502s-7.502,3.359-7.502,7.502v47.976L299.875,84.917h53.164v177.38c0,4.143,3.358,7.502,7.502,7.502
	s7.502-3.359,7.502-7.502V77.415c0-4.143-3.358-7.502-7.502-7.502l0,0H151.457l0,0c-4.144,0-7.502,3.359-7.502,7.502v54.609
	c0,4.143,3.358,7.502,7.502,7.502s7.502-3.359,7.502-7.502V84.917h53.164l-53.164,255.365v-178.25c0-4.143-3.358-7.502-7.502-7.502
	s-7.502,3.359-7.502,7.502v251.095c0,0.023,0.003,0.046,0.003,0.07c0.001,0.106,0.011,0.212,0.016,0.318
	c0.008,0.165,0.017,0.329,0.036,0.49c0.011,0.096,0.028,0.19,0.043,0.285c0.027,0.172,0.057,0.343,0.095,0.512
	c0.02,0.086,0.043,0.171,0.066,0.256c0.046,0.174,0.098,0.347,0.156,0.516c0.028,0.08,0.057,0.16,0.088,0.239
	c0.066,0.171,0.138,0.339,0.215,0.503c0.035,0.075,0.07,0.15,0.108,0.224c0.086,0.168,0.18,0.331,0.279,0.492
	c0.04,0.066,0.077,0.133,0.12,0.198c0.124,0.19,0.258,0.372,0.398,0.55c0.02,0.026,0.037,0.054,0.058,0.08
	c0.003,0.004,0.007,0.007,0.01,0.011c0.168,0.206,0.347,0.402,0.536,0.588c0.046,0.045,0.095,0.085,0.142,0.129
	c0.144,0.135,0.291,0.267,0.446,0.391c0.068,0.055,0.14,0.105,0.21,0.157c0.141,0.106,0.285,0.208,0.434,0.303
	c0.075,0.048,0.151,0.093,0.228,0.139c0.153,0.091,0.309,0.176,0.469,0.256c0.076,0.038,0.151,0.075,0.228,0.11
	c0.168,0.077,0.34,0.146,0.514,0.211c0.074,0.027,0.147,0.056,0.221,0.081c0.183,0.061,0.37,0.113,0.559,0.16
	c0.07,0.018,0.14,0.039,0.211,0.054c0.2,0.044,0.404,0.076,0.609,0.103c0.063,0.009,0.125,0.022,0.188,0.029
	c0.267,0.029,0.538,0.046,0.812,0.046L360.544,420.631 M227.449,84.917h21.626v31.5c0,4.143,3.358,7.502,7.502,7.502
	c4.144,0,7.502-3.359,7.502-7.502v-31.5h20.472l66.767,320.71h-87.239v-28.563c0-4.143-3.358-7.502-7.502-7.502
	s-7.502,3.359-7.502,7.502v28.563h-88.393L227.449,84.917z"/>
<path d="M357.689,0H154.311c-23.393,0-42.425,19.032-42.425,42.425v334.638c0,4.143,3.358,7.502,7.502,7.502
	c4.144,0,7.502-3.359,7.502-7.502V42.425c0-15.119,12.301-27.42,27.42-27.42h203.378c15.119,0,27.42,12.301,27.42,27.42v427.15
	c0,15.119-12.301,27.421-27.42,27.421H154.311c-15.119,0-27.42-12.301-27.42-27.421v-58.032c0-4.143-3.358-7.502-7.502-7.502
	c-4.144,0-7.502,3.359-7.502,7.502v58.032c0,23.393,19.032,42.426,42.425,42.426h203.378c23.393,0,42.424-19.032,42.424-42.426
	V42.425C400.115,19.032,381.082,0,357.689,0z"/>
<path d="M254.864,339.149l55.403,23.291c0.939,0.395,1.927,0.586,2.905,0.586c1.995,0,3.953-0.796,5.397-2.29
	c2.151-2.226,2.714-5.545,1.417-8.355l-58.31-126.434c-1.226-2.658-3.886-4.36-6.813-4.36s-5.587,1.702-6.813,4.36l-58.31,126.434
	c-1.296,2.811-0.733,6.13,1.417,8.355c2.152,2.226,5.451,2.901,8.302,1.702L254.864,339.149z M254.864,247.003l43.406,94.117
	l-40.498-17.025c-0.929-0.391-1.919-0.586-2.907-0.586c-0.988,0-1.979,0.195-2.907,0.586L211.46,341.12L254.864,247.003z"/>
<path d="M256.577,197.773c4.144,0,7.502-3.359,7.502-7.502v-36.33c0-4.143-3.358-7.502-7.502-7.502s-7.502,3.359-7.502,7.502v36.33
	C249.075,194.414,252.434,197.773,256.577,197.773z"/>
<g>
</g>
<g>
</g>
<g>
</g>
<g>
</g>
<g>
</g>
<g>
</g>
<g>
</g>
<g>
</g>
<g>
</g>
<g>
</g>
<g>
</g>
<g>
</g>
<g>
</g>
<g>
</g>
<g>
</g>
</svg>
