<?xml version="1.0" encoding="iso-8859-1"?>
<!-- Generator: Adobe Illustrator 19.0.0, SVG Export Plug-In . SVG Version: 6.00 Build 0)  -->
<svg version="1.1" id="Capa_1" xmlns="http://www.w3.org/2000/svg" xmlns:xlink="http://www.w3.org/1999/xlink" x="0px" y="0px"
	 viewBox="0 0 512.001 512.001" style="enable-background:new 0 0 512.001 512.001;" xml:space="preserve">
<path style="fill:#FFDB56;" d="M12.55,243.786L243.786,12.55c6.746-6.745,17.683-6.745,24.428,0L499.45,243.786
	c6.745,6.746,6.745,17.683,0,24.428L268.214,499.451c-6.746,6.746-17.683,6.746-24.428,0L12.55,268.214
	C5.804,261.468,5.804,250.531,12.55,243.786z"/>
<path style="fill:#FFBB24;" d="M499.45,243.786l-19.17-19.17c6.973,6.973,6.973,18.277,0,25.25L249.866,480.28
	c-6.973,6.973-18.278,6.973-25.25,0l19.17,19.17c6.746,6.746,17.683,6.746,24.428,0L499.45,268.213
	C506.196,261.468,506.196,250.531,499.45,243.786z"/>
<path style="fill:#FF4A4A;" d="M217.467,366.666v-81.331c0-17.355,6.836-33.594,19.249-45.723
	c12.393-12.109,28.757-18.56,46.071-18.191l17.048-0.015v48.341l79.152-69.576l-79.152-69.575v42.567l-15.655,0.012
	c-0.065-0.001-0.13-0.004-0.196-0.005c-30.454-0.68-59.216,10.635-81,31.922c-21.784,21.287-33.781,49.784-33.781,80.242v81.331
	h48.265V366.666z"/>
<path d="M504.747,238.49L273.51,7.253c-9.655-9.654-25.365-9.654-35.021,0.001l-53.572,53.572c-2.925,2.925-2.925,7.668,0,10.592
	c2.926,2.925,7.668,2.925,10.593,0l53.571-53.572c3.815-3.815,10.023-3.814,13.836,0l231.237,231.238
	c1.848,1.848,2.865,4.303,2.865,6.917c0,2.614-1.019,5.069-2.866,6.918L333.196,423.876c-2.925,2.925-2.925,7.668,0,10.593
	c1.463,1.462,3.381,2.194,5.297,2.194c1.917,0,3.834-0.732,5.297-2.194l160.957-160.958c4.678-4.678,7.254-10.897,7.254-17.511
	C512,249.386,509.423,243.167,504.747,238.49z"/>
<path d="M311.919,445.153l-49,49.001c-3.815,3.815-10.023,3.814-13.837,0L17.846,262.917c-1.848-1.849-2.865-4.305-2.865-6.918
	c0-2.614,1.019-5.069,2.866-6.918L174.234,92.694c2.925-2.925,2.925-7.668,0-10.592c-2.926-2.925-7.668-2.925-10.594,0
	L7.254,238.489C2.577,243.167,0,249.385,0,256c0,6.615,2.577,12.833,7.253,17.51L238.49,504.748
	c4.828,4.827,11.169,7.241,17.51,7.241c6.342,0,12.682-2.414,17.511-7.242l49.001-49.002c2.925-2.925,2.925-7.668,0-10.593
	C319.585,442.227,314.843,442.229,311.919,445.153z"/>
<path d="M296.747,276.57c2.681,1.212,5.823,0.745,8.032-1.198l79.152-69.575c1.618-1.422,2.546-3.472,2.546-5.626
	c0-2.154-0.928-4.203-2.546-5.626l-79.152-69.575c-2.21-1.942-5.354-2.411-8.032-1.198c-2.68,1.212-4.402,3.883-4.402,6.824v35.083
	l-8.08,0.006c-0.03-0.001-0.101-0.003-0.114-0.003c-32.477-0.711-63.187,11.369-86.401,34.053
	c-23.24,22.707-36.037,53.107-36.037,85.599v81.332c0,4.137,3.353,7.49,7.49,7.49h48.264c4.138,0,7.49-3.354,7.49-7.49v-35.213
	c0-4.137-3.353-7.49-7.49-7.49c-4.138,0-7.49,3.354-7.49,7.49v27.723h-33.283v-73.842c0-28.425,11.196-55.02,31.526-74.885
	c20.307-19.846,47.167-30.432,75.628-29.79l0.219,0.005c0.04,0,0.075-0.003,0.118,0.001l15.656-0.012
	c4.135-0.003,7.484-3.356,7.484-7.49v-26.011l60.316,53.018l-60.316,53.018v-31.785c0-1.987-0.79-3.894-2.196-5.299
	c-1.404-1.403-3.309-2.191-5.294-2.191c-0.002,0-0.005,0-0.007,0l-16.968,0.015c-19.314-0.395-37.566,6.827-51.379,20.323
	c-13.867,13.551-21.504,31.692-21.504,51.08v16.158c0,4.137,3.353,7.49,7.49,7.49c4.138,0,7.49-3.354,7.49-7.49v-16.158
	c0-15.322,6.035-29.657,16.994-40.366c10.932-10.682,25.386-16.38,40.677-16.06c0.055,0.001,0.088-0.001,0.166,0.002l9.551-0.008
	v40.845C292.344,272.688,294.066,275.358,296.747,276.57z"/>
<g>
</g>
<g>
</g>
<g>
</g>
<g>
</g>
<g>
</g>
<g>
</g>
<g>
</g>
<g>
</g>
<g>
</g>
<g>
</g>
<g>
</g>
<g>
</g>
<g>
</g>
<g>
</g>
<g>
</g>
</svg>
