<?xml version="1.0" encoding="iso-8859-1"?>
<!-- Generator: Adobe Illustrator 19.0.0, SVG Export Plug-In . SVG Version: 6.00 Build 0)  -->
<svg version="1.1" id="Capa_1" xmlns="http://www.w3.org/2000/svg" xmlns:xlink="http://www.w3.org/1999/xlink" x="0px" y="0px"
	 viewBox="0 0 512.001 512.001" style="enable-background:new 0 0 512.001 512.001;" xml:space="preserve">
<circle style="fill:#A8EEFC;" cx="255.997" cy="256.005" r="248.493"/>
<path style="fill:#7EE5F2;" d="M256.001,7.502c-6.056,0-12.059,0.228-18.005,0.654c128.835,9.227,230.492,116.658,230.492,247.844
	S366.831,494.617,237.996,503.844c5.947,0.426,11.95,0.654,18.005,0.654c137.241,0,248.497-111.256,248.497-248.497
	S393.243,7.502,256.001,7.502z"/>
<path style="fill:#4CE166;" d="M329.169,18.457c-11.536,7.105-22.274,14.198-27.75,19.066
	c-15.32,13.617,21.624,39.488,21.624,39.488s-68.3,0.961-99.939,24.999c-24.272,18.441-27.668,38.428,61.054,19.017
	c64.848-14.187,90.861,14.828,76.878,28.445c-13.982,13.617-64.313,11.915-88.143,10.213c-23.829-1.702-25.532,11.915-51.063,35.744
	s-8.511,45.957,37.515,51.063c46.026,5.106,56.1,32.34,57.802,54.467c1.701,22.128-10.213,28.936-15.319,45.957
	c-5.107,17.021-1.703,45.957,20.425,56.169s51.063-23.829,59.405-32.34c8.342-8.51,8.679-49.361,13.785-61.275
	c5.107-11.915,39.662-39.54,39.662-39.54s-65.193-62.585-51.576-83.01c13.617-20.425,32.34-10.213,62.978,20.425
	c12.432,12.432,33.154,9.169,53.391,0.902C482.318,117.95,415.86,45.129,329.169,18.457z"/>
<path style="fill:#44C868;" d="M329.169,18.457c-4.58,2.821-9.029,5.638-13.078,8.316
	c77.535,32.545,135.065,103.278,149.085,188.668c10.52,0.857,22.706-2.288,34.721-7.195
	C482.318,117.95,415.86,45.129,329.169,18.457z"/>
<path style="fill:#4CE166;" d="M140.63,351.478c-19.749-38.087-60.658-4.232-60.658-36.677c0-28.691-33.415-52.61-72.454-57.685
	c0.565,128.12,98.076,233.347,222.966,246.087c-0.034-0.035-32.016-61.442-67.928-66.631
	C140.915,433.446,160.379,389.566,140.63,351.478z"/>
<path style="fill:#49C158;" d="M102.26,215.282c8.395,19.598,32.123,6.463,51.722-1.933c19.598-8.395,32.105-44.957,23.709-64.555
	c-8.395-19.598-30.48-5.392-50.078,3.004C108.016,160.194,93.865,195.685,102.26,215.282z"/>
<circle style="fill:#FFFFFF;" cx="354.116" cy="104.951" r="38.865"/>
<path style="fill:#FF4A4A;" d="M354.113,7.502c-53.817,0-97.445,43.627-97.445,97.445c0,81.953,97.445,157.358,97.445,157.358
	s97.445-75.405,97.445-157.358C451.558,51.13,407.93,7.502,354.113,7.502z M354.113,143.812c-21.464,0-38.865-17.401-38.865-38.865
	c0-21.465,17.4-38.865,38.865-38.865c21.464,0,38.865,17.4,38.865,38.865C392.979,126.411,375.579,143.812,354.113,143.812z"/>
<path style="fill:#E7343F;" d="M354.113,7.502c-4.583,0-9.09,0.324-13.504,0.936c47.425,6.576,83.941,47.274,83.941,96.508
	c0,62.782-57.185,121.72-83.941,145.859c8.17,7.371,13.504,11.499,13.504,11.499s97.445-75.405,97.445-157.358
	C451.558,51.13,407.93,7.502,354.113,7.502z"/>
<path d="M411.068,440.489c-43.307,36.439-98.377,56.507-155.067,56.507c-7.004,0-13.958-0.315-20.857-0.902
	c-8.925-15.915-37.515-62.034-71.516-66.947c-1.377-0.199-2.678-0.387-3.756-4.31c-1.241-4.518-1.368-11.398-1.515-19.364
	c-0.308-16.681-0.691-37.441-11.066-57.448c-12.276-23.675-32.323-24.194-45.587-24.538c-13.297-0.344-14.228-0.913-14.228-8.686
	c0-29.728-30.695-56.481-72.408-64.082c1.068-50.198,17.36-97.877,47.287-138.2c2.47-3.327,1.774-8.025-1.553-10.495
	c-3.327-2.469-8.026-1.775-10.495,1.553C17.396,147.917,0.002,200.624,0.002,256.001c0,68.38,26.629,132.667,74.98,181.019
	c1.003,1.003,2.024,1.983,3.041,2.967c0.409,0.396,0.812,0.801,1.223,1.194c1.015,0.97,2.046,1.921,3.074,2.872
	c0.438,0.405,0.87,0.817,1.311,1.219c1.178,1.075,2.371,2.131,3.566,3.182c0.27,0.237,0.536,0.478,0.806,0.713
	c1.382,1.205,2.777,2.391,4.18,3.563c0.054,0.045,0.108,0.091,0.162,0.137c45.887,38.281,103.165,59.133,163.655,59.133
	c60.218,0,118.72-21.319,164.728-60.031c3.17-2.668,3.577-7.4,0.91-10.57C418.97,438.228,414.24,437.82,411.068,440.489z
	 M96.788,436.905c-0.453-0.4-0.907-0.798-1.358-1.202c-0.801-0.716-1.596-1.441-2.389-2.17c-0.618-0.568-1.233-1.14-1.847-1.716
	c-0.698-0.655-1.396-1.312-2.088-1.978c-0.678-0.652-1.35-1.313-2.023-1.974c-0.654-0.643-1.31-1.282-1.958-1.933
	c-0.586-0.589-1.159-1.187-1.738-1.781c-1.849-1.898-3.677-3.818-5.468-5.782c-38.267-41.949-60.339-95.714-62.691-152.261
	c-0.001-0.028-0.002-0.056-0.003-0.083c32.719,6.863,57.244,27.269,57.244,48.775c0,22.938,17.358,23.388,28.844,23.685
	c12.578,0.326,24.458,0.634,32.657,16.445l0,0c8.758,16.889,9.105,35.702,9.384,50.818c0.324,17.563,0.659,35.724,18.129,38.247
	c12.501,1.807,26.96,12.688,41.814,31.469c5.136,6.493,9.516,12.915,12.911,18.257C171.834,486.343,130.535,466.645,96.788,436.905z
	"/>
<path d="M458.937,99.933C456.312,44.385,410.301,0,354.113,0c-13.386,0-26.193,2.524-37.974,7.112C296.55,2.397,276.333,0,256.001,0
	c-35.763,0-70.366,7.233-102.848,21.5C121.78,35.279,93.868,54.928,70.193,79.9c-2.851,3.007-2.724,7.755,0.283,10.606
	c1.451,1.375,3.308,2.058,5.161,2.058c1.987,0,3.97-0.785,5.446-2.341c22.293-23.514,48.571-42.013,78.105-54.985
	c30.569-13.425,63.143-20.233,96.815-20.233c13.154,0,26.255,1.068,39.147,3.172c-21.14,14.412-36.758,36.343-42.994,61.909
	c-13.918,4.23-25.208,9.585-33.589,15.952c-14.752,11.208-20.363,21.237-16.677,29.81c3.089,7.185,11.392,10.673,26.511,10.673
	c6.743,0,14.868-0.706,24.463-2.077c1.523,6.202,3.512,12.469,5.973,18.796c-10.642,2.739-17.061,9.94-25.21,19.084
	c-4.556,5.113-9.721,10.908-16.914,17.621c-15.509,14.475-15.635,26.95-13.01,34.866c5.12,15.436,24.586,25.783,54.816,29.137
	c20.562,2.281,48.234,9.696,51.15,47.586c0.911,11.855-2.64,18.113-7.134,26.038c-2.721,4.796-5.805,10.233-7.891,17.188
	c-3.17,10.566-3.185,23.582-0.039,34.816c3.999,14.282,12.474,24.766,24.506,30.32c3.92,1.81,7.917,2.602,11.919,2.602
	c21.537-0.001,43.179-22.948,53.331-33.713c1.035-1.098,1.928-2.045,2.655-2.788c6.213-6.338,8.335-19.489,11.094-40.396
	c1.188-9.009,2.535-19.221,4.23-23.176c3.008-7.017,23.711-25.649,37.451-36.636c1.688-1.349,2.712-3.362,2.81-5.521
	c0.098-2.159-0.74-4.255-2.299-5.752c-0.222-0.213-20.766-20.014-35.889-40.455c1.387-1.596,2.781-3.223,4.174-4.888
	c6.056-7.233,11.564-14.414,16.538-21.539c4.718,4.011,10.022,8.961,16.076,15.013c6.974,6.975,16.139,10.463,27.409,10.463
	c7.558,0,16.067-1.576,25.491-4.716c1.914,12.324,2.896,24.88,2.896,37.604c0,61.244-22.997,119.619-64.755,164.373
	c-2.827,3.03-2.663,7.776,0.367,10.603c1.445,1.349,3.283,2.018,5.116,2.018c2.008,0,4.01-0.801,5.487-2.384
	c44.36-47.541,68.79-109.552,68.79-174.609C512.002,198.956,493.652,145.004,458.937,99.933z M216.101,119.862
	c0.839-1.834,3.806-6,11.542-11.879c5.575-4.235,12.904-7.99,21.853-11.22c-0.209,2.702-0.329,5.429-0.329,8.183
	c0,4.863,0.314,9.776,0.94,14.734C226.096,123.025,218.288,120.884,216.101,119.862z M423.926,269.387
	c-11.089,9.273-30.974,26.851-35.378,37.127c-2.509,5.855-3.809,15.711-5.315,27.124c-1.32,10.008-3.777,28.636-6.934,31.855
	c-0.783,0.799-1.742,1.817-2.856,2.997c-8.978,9.52-32.82,34.807-48.046,27.782c-17.504-8.079-20.762-32.604-16.383-47.202
	c1.6-5.335,4.015-9.59,6.57-14.095c4.83-8.517,10.306-18.168,9.043-34.592c-1.197-15.571-5.774-27.946-13.988-37.835
	c-10.878-13.094-27.858-21.005-50.466-23.513c-27.515-3.053-39.856-11.789-42.229-18.948c-2.254-6.797,3.653-14.179,9.005-19.175
	c7.697-7.184,13.342-13.518,17.878-18.607c8.46-9.493,12.481-13.95,20.203-15c8.305,16.924,19.853,34.244,34.61,51.868
	c24.598,29.379,48.862,48.273,49.883,49.063c1.352,1.045,2.972,1.568,4.591,1.568s3.239-0.523,4.591-1.568
	c0.818-0.633,16.563-12.899,35.442-32.861C404.638,249.191,416.818,262.145,423.926,269.387z M354.11,252.61
	c-18.945-15.958-89.94-80.269-89.94-147.663c0-49.595,40.348-89.942,89.943-89.942c49.594,0,89.942,40.348,89.942,89.942
	C444.055,172.253,373.049,236.639,354.11,252.61z M451.811,202.04c-7.024-7.024-13.003-12.57-18.39-17.048
	c12.873-20.982,20.925-41.421,24.092-61.152c15.924,24.282,27.444,51.426,33.734,79.675
	C477.313,208.412,460.918,211.146,451.811,202.04z"/>
<path d="M108.176,231.332c3.003,1.18,6.166,1.688,9.446,1.688c10.438,0,22.049-5.148,33.367-10.166c2.011-0.891,4-1.774,5.948-2.608
	c11.14-4.772,20.785-16.598,26.461-32.444c5.466-15.258,5.911-30.945,1.191-41.962c-2.76-6.443-7-10.799-12.601-12.948
	c-11.582-4.441-25.466,1.985-38.889,8.198c-2.8,1.295-5.695,2.636-8.438,3.811c-23.491,10.064-39.371,49.816-29.295,73.335
	C98.12,224.668,102.43,229.075,108.176,231.332z M111.408,182.121c4.519-11.322,11.861-20.299,19.161-23.427
	c2.942-1.26,5.937-2.646,8.833-3.986c8.497-3.933,17.946-8.307,24.104-8.307c1.163,0,2.211,0.156,3.11,0.501
	c1.081,0.415,2.692,1.368,4.182,4.847c3.217,7.51,2.634,19.387-1.524,30.994c-4.147,11.581-11.138,20.667-18.243,23.711
	c-2.005,0.858-4.051,1.766-6.121,2.684c-10.924,4.843-24.52,10.869-31.245,8.229c-1.212-0.476-2.998-1.516-4.506-5.038
	C106.025,205.019,106.888,193.445,111.408,182.121z"/>
<path d="M354.113,58.579c-4.144,0-7.502,3.359-7.502,7.502s3.358,7.502,7.502,7.502c17.293,0,31.363,14.069,31.363,31.363
	s-14.07,31.363-31.363,31.363c-17.294,0-31.363-14.069-31.363-31.363c0-8.261,3.185-16.059,8.968-21.955
	c2.9-2.958,2.855-7.708-0.104-10.609c-2.957-2.9-7.707-2.855-10.609,0.104c-8.55,8.72-13.258,20.247-13.258,32.461
	c0,25.568,20.801,46.368,46.368,46.368c25.568,0,46.368-20.8,46.368-46.368S379.681,58.579,354.113,58.579z"/>
<g>
</g>
<g>
</g>
<g>
</g>
<g>
</g>
<g>
</g>
<g>
</g>
<g>
</g>
<g>
</g>
<g>
</g>
<g>
</g>
<g>
</g>
<g>
</g>
<g>
</g>
<g>
</g>
<g>
</g>
</svg>
