<?xml version="1.0" encoding="iso-8859-1"?>
<!-- Generator: Adobe Illustrator 19.0.0, SVG Export Plug-In . SVG Version: 6.00 Build 0)  -->
<svg version="1.1" id="Capa_1" xmlns="http://www.w3.org/2000/svg" xmlns:xlink="http://www.w3.org/1999/xlink" x="0px" y="0px"
	 viewBox="0 0 512 512" style="enable-background:new 0 0 512 512;" xml:space="preserve">
<path style="fill:#FF4A4A;" d="M256,7.502c-104.971,0-190.066,85.095-190.066,190.066C65.934,357.419,256,504.498,256,504.498
	s190.066-147.078,190.066-306.93C446.066,92.597,360.971,7.502,256,7.502z M256,273.376c-41.867,0-75.807-33.94-75.807-75.807
	s33.94-75.807,75.807-75.807s75.807,33.94,75.807,75.807C331.807,239.436,297.867,273.376,256,273.376z"/>
<path style="fill:#E7343F;" d="M256,7.502c-6.074,0-12.078,0.297-18.005,0.854c96.524,9.072,172.061,90.315,172.061,189.212
	c0,129.458-124.656,250.533-172.061,291.896C249.124,499.175,256,504.498,256,504.498s190.066-147.078,190.066-306.93
	C446.066,92.597,360.971,7.502,256,7.502z"/>
<path d="M256,512c-1.619,0-3.24-0.523-4.591-1.568c-3.735-2.891-92.121-71.889-148.324-167.831
	c-2.095-3.575-0.894-8.171,2.681-10.265c3.574-2.095,8.17-0.895,10.265,2.681c47.547,81.166,121,144.29,139.972,159.855
	c12.984-10.638,51.454-43.491,89.471-88.94c27.154-32.463,48.764-64.903,64.232-96.42c19.149-39.018,28.858-76.681,28.858-111.94
	c0-27.777-6.076-54.447-18.058-79.267c-1.801-3.731-0.236-8.216,3.495-10.018c3.73-1.802,8.215-0.237,10.018,3.494
	c12.972,26.872,19.55,55.735,19.55,85.79c0,37.618-10.251,77.556-30.467,118.703c-16.03,32.627-38.342,66.111-66.317,99.521
	c-47.491,56.721-94.228,93.115-96.194,94.638C259.24,511.477,257.619,512,256,512z M95.301,319.778
	c-2.776,0-5.445-1.546-6.746-4.209c-19.988-40.897-30.123-80.598-30.123-118.001C58.432,88.629,147.061,0,256,0
	c64.705,0,125.404,31.767,162.369,84.979c2.364,3.403,1.521,8.077-1.882,10.441c-3.401,2.365-8.077,1.521-10.441-1.882
	C371.884,44.363,315.793,15.004,256,15.004c-100.667,0-182.564,81.897-182.564,182.564c0,35.099,9.622,72.584,28.598,111.412
	c1.82,3.723,0.276,8.215-3.446,10.035C97.529,319.533,96.406,319.778,95.301,319.778z M256,280.878
	c-45.937,0-83.31-37.372-83.31-83.31c0-15.418,4.246-30.479,12.279-43.554c2.168-3.53,6.788-4.634,10.319-2.465
	c3.53,2.169,4.633,6.789,2.465,10.319c-6.581,10.71-10.059,23.056-10.059,35.7c0,37.663,30.641,68.305,68.305,68.305
	s68.305-30.641,68.305-68.305s-30.641-68.305-68.305-68.305c-14.353,0-28.086,4.4-39.714,12.725
	c-3.37,2.412-8.055,1.636-10.467-1.733s-1.636-8.055,1.732-10.467c14.19-10.159,30.943-15.529,48.448-15.529
	c45.937,0,83.31,37.372,83.31,83.31C339.31,243.506,301.938,280.878,256,280.878z"/>
<g>
</g>
<g>
</g>
<g>
</g>
<g>
</g>
<g>
</g>
<g>
</g>
<g>
</g>
<g>
</g>
<g>
</g>
<g>
</g>
<g>
</g>
<g>
</g>
<g>
</g>
<g>
</g>
<g>
</g>
</svg>
