<?xml version="1.0" encoding="iso-8859-1"?>
<!-- Generator: Adobe Illustrator 19.0.0, SVG Export Plug-In . SVG Version: 6.00 Build 0)  -->
<svg version="1.1" id="Capa_1" xmlns="http://www.w3.org/2000/svg" xmlns:xlink="http://www.w3.org/1999/xlink" x="0px" y="0px"
	 viewBox="0 0 512 512" style="enable-background:new 0 0 512 512;" xml:space="preserve">
<path style="fill:#A8EEFC;" d="M448.949,374.893v-232.52V119.42H63.051v22.952v232.519c-30.182,0-54.721,24.081-55.498,54.075
	c0.777,28.699,24.268,51.729,53.154,51.729h390.585c28.886,0,52.378-23.03,53.154-51.729
	C503.671,398.973,479.13,374.893,448.949,374.893z"/>
<path style="fill:#7EE5F2;" d="M451.293,453.639H60.707c-24.232,0-44.659-16.21-51.075-38.374
	c-1.238,4.372-1.957,8.963-2.079,13.702c0.777,28.699,24.268,51.729,53.154,51.729h390.585c28.886,0,52.378-23.03,53.154-51.729
	c-0.122-4.739-0.842-9.329-2.079-13.702C495.952,437.43,475.525,453.639,451.293,453.639z"/>
<path style="fill:#546F7A;" d="M63.051,374.893V31.302c-30.671,0-55.535,24.864-55.535,55.535v343.59
	C7.516,399.757,32.38,374.893,63.051,374.893z"/>
<path style="fill:#475D63;" d="M34.609,39.137c-16.225,9.695-27.094,27.425-27.094,47.7v343.59c0-20.274,10.869-38.004,27.094-47.7
	C34.609,382.727,34.609,39.137,34.609,39.137z"/>
<path style="fill:#546F7A;" d="M448.949,374.893V31.302c30.671,0,55.535,24.864,55.535,55.535v343.59
	C504.484,399.757,479.62,374.893,448.949,374.893z"/>
<path style="fill:#475D63;" d="M477.391,39.137c16.225,9.695,27.094,27.425,27.094,47.7v343.59c0-20.274-10.869-38.004-27.094-47.7
	V39.137z"/>
<g>
	<path style="fill:#4CE166;" d="M229.605,430.412c0,0-30.154,9.371-33.747-15.402c0,0,5.324-24.866,3.82-39.149
		c-1.504-14.284-7.135-100.536-26.278-101.889s-70.391-13.22-75.728-24.576c0,0-6.675-58.04,6.25-62.945
		c12.926-4.904,50.385-31.309,64.503-31.388c15.984-0.088,43.648-4.302,57.43,6.219c12.838,9.801,53.183,41.884,69.617,43.955
		c16.433,2.071,34.45,5.489,20.938,22.36c-13.512,16.87-10.224,26.447-23.129,38.551c-12.905,12.102-9.121,44.758-9.121,44.758
		s-15.077,20.338-17.875,21.429c-2.799,1.092-26.267,22.487-26.919,38.252C238.712,386.35,229.605,430.412,229.605,430.412z"/>
	<path style="fill:#4CE166;" d="M132.656,294.23c14.831-1.285,34.871,16.392,35.952,30.241c1.081,13.849-4.919,32.431-21.22,21.108
		s-27.475-8.082-27.475-23.924C119.913,305.812,113.908,295.854,132.656,294.23z"/>
	<path style="fill:#4CE166;" d="M285.003,119.42c0,0,17.111,49.327,62.333,62.161c45.223,12.834,45.833,31.957,32.389,49.284
		c-13.444,17.327-24.444,37.493-11.611,57.049s57.781,64.166,80.834,50.722V119.42H285.003z"/>
	<path style="fill:#4CE166;" d="M327.396,439.708c0,0-40.053-4.855-39.446-21.239c0.607-16.385,6.069-28.522,11.53-46.728
		c5.461-18.205,12.744-36.968,31.556-30.621c18.812,6.347,67.361,37.746,66.147,53.906
		C395.97,411.187,392.936,457.914,327.396,439.708z"/>
	<path style="fill:#4CE166;" d="M7.553,428.968c0.777,28.699,24.268,51.729,53.154,51.729h90.039l0,0c0,0,25.48-46.923-6.882-65.431
		s-23.794-85.339-80.813-85.649v45.276C32.87,374.893,8.329,398.973,7.553,428.968z"/>
</g>
<path style="fill:#44C868;" d="M60.707,453.639c-24.232,0-44.66-16.21-51.075-38.374c-1.238,4.372-1.957,8.963-2.079,13.702
	c0.777,28.699,24.268,51.729,53.154,51.729h90.039l0,0c0,0,6.761-12.452,8.894-27.057H60.707z"/>
<path d="M512,86.837c0-34.766-28.284-63.051-63.051-63.051c-4.151,0-7.516,3.365-7.516,7.516v80.603h-156.43h-97.176
	c-4.151,0-7.516,3.365-7.516,7.516s3.365,7.516,7.516,7.516h92.093c5.923,13.628,25.299,50.506,65.365,61.875
	c19.448,5.52,31.538,12.761,34.042,20.39c1.518,4.624-0.346,10.363-5.54,17.057c-8.168,10.527-29.866,38.491-11.957,65.78
	c6.636,10.112,21.46,26.818,38.328,39.603c14.855,11.259,28.113,16.971,39.13,16.971c0.726,0,1.439-0.033,2.145-0.082v26.364
	c0,4.151,3.365,7.516,7.516,7.516c0.813,0,1.62,0.021,2.422,0.061c0.194,0.01,0.387,0.03,0.581,0.042
	c0.613,0.038,1.227,0.079,1.834,0.14c0.175,0.017,0.35,0.044,0.525,0.063c0.63,0.07,1.26,0.145,1.882,0.24
	c0.116,0.017,0.23,0.041,0.347,0.059c0.687,0.109,1.372,0.228,2.048,0.367c0.041,0.008,0.081,0.018,0.122,0.027
	c14.781,3.065,27.098,12.944,33.501,26.195c0.015,0.032,0.03,0.065,0.045,0.097c0.305,0.633,0.594,1.275,0.871,1.923
	c0.067,0.158,0.13,0.319,0.196,0.477c0.215,0.519,0.423,1.042,0.62,1.571c0.108,0.293,0.21,0.587,0.314,0.882
	c0.139,0.395,0.276,0.792,0.404,1.191c0.135,0.424,0.263,0.851,0.387,1.278c0.08,0.274,0.159,0.547,0.235,0.824
	c0.146,0.542,0.283,1.088,0.411,1.636c0.038,0.163,0.077,0.328,0.114,0.492c0.142,0.644,0.274,1.292,0.389,1.943
	c0.013,0.072,0.026,0.144,0.039,0.216c0.126,0.727,0.237,1.456,0.331,2.191l0,0c0.193,1.531,0.315,3.079,0.362,4.64
	c-0.777,24.81-20.783,44.217-45.635,44.217H351.215c-4.151,0-7.516,3.365-7.516,7.516c0,4.151,3.365,7.516,7.516,7.516h100.078
	c15.923,0,30.969-6.122,42.366-17.238c10.673-10.411,17.054-24.128,18.152-38.891c0.12-0.533,0.189-1.085,0.189-1.655L512,86.837
	L512,86.837z M456.465,39.405c22.92,3.619,40.504,23.511,40.504,47.432v302.748c-1.26-1.478-2.587-2.909-3.992-4.281
	c-8.531-8.329-19.034-13.95-30.428-16.449c-0.064-0.014-0.127-0.029-0.191-0.043c-0.91-0.196-1.826-0.375-2.747-0.531
	c-0.061-0.01-0.122-0.023-0.183-0.033c-0.982-0.164-1.969-0.312-2.962-0.429l0,0L456.465,39.405L456.465,39.405z M374.398,283.79
	c-8.424-12.835-5.055-27.285,11.266-48.318c8.444-10.882,11.117-21.299,7.946-30.96c-4.29-13.068-18.755-22.935-44.22-30.161
	c-28.839-8.184-45.455-33.261-52.772-47.415h144.817v206.527C423.572,336.489,387.586,303.886,374.398,283.79z"/>
<path d="M321.152,473.18H162.236c1.758-4.743,3.564-10.651,4.621-17.032c3.601-21.75-3.06-38.143-19.261-47.408
	c-10.626-6.078-16.453-19.645-22.621-34.009c-9.364-21.806-20.873-48.581-54.408-52.211V126.936h87.198
	c4.151,0,7.516-3.365,7.516-7.516s-3.365-7.516-7.516-7.516H70.567V31.302c0-4.151-3.365-7.516-7.516-7.516
	C28.284,23.786,0,52.071,0,86.837v343.591c0,0.569,0.069,1.122,0.189,1.655c1.098,14.763,7.479,28.481,18.152,38.891
	c11.397,11.116,26.442,17.238,42.366,17.238l0,0h260.445c4.151,0,7.516-3.365,7.516-7.516
	C328.668,476.545,325.302,473.18,321.152,473.18z M55.535,39.405L55.535,39.405v328.414l0,0c-0.993,0.117-1.979,0.266-2.962,0.429
	c-0.061,0.01-0.122,0.023-0.183,0.033c-0.921,0.156-1.836,0.335-2.747,0.531c-0.064,0.014-0.127,0.029-0.191,0.043
	c-11.394,2.498-21.897,8.12-30.428,16.449c-1.405,1.372-2.733,2.803-3.992,4.281V86.837C15.031,62.916,32.615,43.025,55.535,39.405z
	 M60.707,473.18c-0.777,0-1.548-0.019-2.315-0.056c-1.533-0.075-3.046-0.223-4.534-0.444c-0.745-0.11-1.482-0.237-2.215-0.382
	c-20.489-4.053-35.892-21.626-36.571-43.336c0.003-0.104,0.013-0.207,0.017-0.313c0.053-1.454,0.163-2.897,0.345-4.325
	c0-0.001,0-0.003,0-0.004c0.092-0.734,0.204-1.462,0.33-2.187c0.013-0.073,0.026-0.147,0.039-0.22
	c0.116-0.65,0.247-1.297,0.389-1.939c0.037-0.165,0.076-0.331,0.114-0.495c0.127-0.547,0.264-1.092,0.41-1.633
	c0.075-0.277,0.155-0.551,0.235-0.826c0.123-0.427,0.251-0.852,0.386-1.275c0.129-0.401,0.266-0.799,0.405-1.194
	c0.102-0.294,0.204-0.587,0.313-0.879c0.197-0.529,0.406-1.053,0.621-1.573c0.065-0.158,0.128-0.318,0.195-0.475
	c0.278-0.649,0.567-1.292,0.872-1.926c0.015-0.031,0.029-0.063,0.044-0.094c6.397-13.238,18.695-23.109,33.456-26.185
	c0.06-0.012,0.119-0.027,0.179-0.039c0.654-0.134,1.316-0.248,1.98-0.355c0.138-0.022,0.277-0.05,0.415-0.071
	c0.593-0.09,1.193-0.16,1.795-0.228c0.204-0.023,0.408-0.054,0.613-0.074c0.562-0.056,1.13-0.093,1.698-0.129
	c0.24-0.015,0.476-0.04,0.716-0.052c0.679-0.034,1.365-0.047,2.051-0.052c0.12-0.001,0.241-0.009,0.361-0.009
	c4.151,0,7.516-3.365,7.516-7.516l0,0V337.66c23.551,3.318,31.512,21.851,40.596,43.005c6.872,16.003,13.979,32.552,28.972,41.126
	c10.473,5.99,14.382,16.309,11.951,31.548c-1.294,8.112-4.155,15.522-6.068,19.844h-85.31V473.18z"/>
<path d="M101.257,179.423c-8.954,3.397-12.908,15.846-12.822,40.365c0.054,15.364,1.701,29.856,1.772,30.466
	c0.093,0.811,0.318,1.6,0.664,2.338c1.386,2.949,5.068,10.783,37.415,20.067c15.317,4.396,33.535,8.003,44.407,8.797
	c0.694,0.42,6.681,4.881,12.338,35.813c3.605,19.71,5.546,41.425,6.588,53.091c0.243,2.706,0.435,4.853,0.585,6.287
	c1.36,12.914-3.645,36.552-3.695,36.79c-0.186,0.871-0.216,1.77-0.088,2.652c1.556,10.727,7.173,16.316,11.611,19.116
	c5.481,3.457,11.816,4.48,17.393,4.48c7.31,0,13.321-1.758,14.411-2.096c2.611-0.812,4.577-2.978,5.13-5.656
	c0.377-1.824,9.238-44.847,9.909-61.037c0.2-4.834,4.198-12.191,10.968-20.185c2.683-3.168,2.29-7.91-0.878-10.592
	c-3.167-2.684-7.911-2.29-10.592,0.878c-9.282,10.959-14.166,20.81-14.516,29.278c-0.497,12.011-6.322,42.188-8.654,53.885
	c-4.499,0.716-10.967,0.97-15.151-1.669c-2.34-1.476-3.834-3.889-4.546-7.355c1.147-5.716,5.058-26.666,3.648-40.062
	c-0.146-1.38-0.33-3.446-0.563-6.052c-6.489-72.593-15.646-101.345-32.659-102.548c-8.092-0.572-24.576-3.489-40.429-7.96
	c-20.612-5.813-26.904-10.344-28.564-11.877c-0.403-4.017-1.289-13.876-1.449-24.37c-0.342-22.317,2.879-28.023,3.556-28.97
	c5.256-2.083,13.059-6.623,22.054-11.856c12.103-7.042,32.362-18.827,39.366-18.865c3.387-0.018,7.185-0.208,11.207-0.411
	c13.843-0.693,32.803-1.644,41.621,5.089c1.089,0.832,2.379,1.826,3.836,2.948c27.187,20.952,54.412,40.6,69.402,42.489
	c14.263,1.798,18.106,3.767,19.083,4.876c-0.087,0.508-0.559,2.193-3.071,5.329c-7.116,8.885-10.118,16.189-12.529,22.058
	c-2.503,6.091-4.311,10.491-9.875,15.708c-6.781,6.359-10.736,17.086-11.757,31.882c-0.461,6.698-0.205,12.696,0.04,16.15
	c-2.017,2.674-5.513,7.253-8.716,11.186c-2.621,3.218-2.138,7.953,1.079,10.574c3.217,2.62,7.952,2.138,10.574-1.079
	c5.063-6.214,10.604-13.682,10.838-13.996c1.134-1.53,1.645-3.441,1.429-5.334c-1.276-11.192-0.56-31.52,6.795-38.417
	c7.944-7.451,10.767-14.318,13.495-20.959c2.258-5.494,4.593-11.176,10.359-18.375c5.983-7.47,7.782-14.303,5.347-20.311
	c-4.048-9.988-17.638-12.494-31.211-14.205c-13-1.637-49.96-30.121-62.106-39.481c-1.478-1.138-2.785-2.146-3.89-2.99
	c-13.193-10.072-34.43-9.006-51.495-8.153c-3.849,0.193-7.485,0.375-10.537,0.392c-10.224,0.056-25.864,8.7-46.842,20.904
	C113.218,173.294,105.355,177.868,101.257,179.423z"/>
<path d="M160.474,297.793c-9.193-7.794-19.577-11.818-28.466-11.051l0,0c-5.045,0.437-12.263,1.627-16.688,6.9
	c-4.632,5.517-4.013,12.549-3.415,19.35c0.243,2.757,0.493,5.609,0.493,8.662c0,15.379,9.237,19.427,17.386,22.998
	c3.93,1.723,8.386,3.675,13.317,7.099c5.252,3.649,9.796,4.821,13.471,4.821c3.554,0,6.295-1.098,8.07-2.116
	c9.781-5.612,12.287-19.975,11.459-30.57C175.429,315.274,169.587,305.52,160.474,297.793z M157.164,341.419
	c-0.709,0.405-2.678-0.06-5.487-2.011c-6.133-4.26-11.525-6.623-15.859-8.522c-7.595-3.328-8.389-3.676-8.389-9.229
	c0-3.713-0.293-7.042-0.551-9.979c-0.261-2.964-0.654-7.444-0.046-8.371c0.01-0.011,1.088-1.122,6.474-1.588h-0.001
	c4.789-0.414,11.473,2.475,17.449,7.541c5.847,4.957,10.013,11.307,10.364,15.798C161.768,333.414,159.254,340.219,157.164,341.419z
	"/>
<path d="M292.282,369.581c-1.29,4.299-2.578,8.249-3.825,12.071c-4.033,12.367-7.518,23.048-8.017,36.538
	c-0.804,21.677,36.502,27.761,45.484,28.908c10.338,2.831,19.741,4.246,28.176,4.246c11.821-0.001,21.736-2.78,29.636-8.33
	c18.355-12.898,20.151-36.856,20.918-47.087l0.025-0.339c0.281-3.742,1.136-15.131-28.573-37.226
	c-14.444-10.742-31.989-20.761-42.666-24.364c-7.367-2.486-14.13-2.182-20.099,0.903
	C301.705,340.915,296.37,355.955,292.282,369.581z M320.241,348.255c0.834-0.431,2.006-0.885,3.738-0.885
	c1.239,0,2.763,0.231,4.655,0.87c7.698,2.597,23.807,11.254,38.501,22.182c18.832,14.007,22.688,22.255,22.554,24.039l-0.025,0.342
	c-0.71,9.471-2.03,27.099-14.57,35.911c-9.772,6.867-25.145,7.458-45.686,1.751c-0.36-0.1-0.732-0.173-1.102-0.218
	c-16.752-2.052-33.02-8.74-32.844-13.501c0.422-11.387,3.451-20.675,7.286-32.434c1.274-3.905,2.591-7.942,3.931-12.412
	C308.827,366.742,313.296,351.845,320.241,348.255z"/>
<g>
</g>
<g>
</g>
<g>
</g>
<g>
</g>
<g>
</g>
<g>
</g>
<g>
</g>
<g>
</g>
<g>
</g>
<g>
</g>
<g>
</g>
<g>
</g>
<g>
</g>
<g>
</g>
<g>
</g>
</svg>
