<?xml version="1.0" encoding="iso-8859-1"?>
<!-- Generator: Adobe Illustrator 19.0.0, SVG Export Plug-In . SVG Version: 6.00 Build 0)  -->
<svg version="1.1" id="Capa_1" xmlns="http://www.w3.org/2000/svg" xmlns:xlink="http://www.w3.org/1999/xlink" x="0px" y="0px"
	 viewBox="0 0 512 512" style="enable-background:new 0 0 512 512;" xml:space="preserve">
<rect x="7.604" y="7.604" style="fill:#666666;" width="496.792" height="496.792"/>
<g>
	<rect x="7.604" y="7.604" style="fill:#50C98A;" width="203.938" height="275.831"/>
	<rect x="7.604" y="345.788" style="fill:#50C98A;" width="386.423" height="158.608"/>
</g>
<polyline style="fill:#A6C8E8;" points="504.396,283.433 273.891,283.433 273.891,64.449 504.396,64.449 "/>
<path style="fill:#F74B68;" d="M410.821,251.497l-73.013-94.442c-28.404-36.741-25.083-88.866,7.755-121.705l0,0
	c36.041-36.041,94.475-36.041,130.516,0l0,0c32.839,32.839,36.16,84.964,7.755,121.705L410.821,251.497z"/>
<g>
	<circle style="fill:#F2F2F2;" cx="410.817" cy="96.834" r="60.223"/>
	<rect x="34.422" y="382.276" style="fill:#F2F2F2;" width="107.165" height="97.675"/>
	<rect x="188.01" y="382.276" style="fill:#F2F2F2;" width="166.476" height="97.675"/>
</g>
<g>
	<circle style="fill:#38A877;" cx="60.355" cy="61.278" r="45.999"/>
	<circle style="fill:#38A877;" cx="141.586" cy="163.931" r="45.999"/>
</g>
<path d="M7.604,291.037h203.937c4.199,0,7.604-3.405,7.604-7.604V7.604c0-4.199-3.405-7.604-7.604-7.604
	c-4.199,0-7.604,3.405-7.604,7.604v268.225H7.604c-4.199,0-7.604,3.405-7.604,7.604C0,287.633,3.405,291.037,7.604,291.037z"/>
<path d="M394.027,338.179h-289.44c-4.199,0-7.604,3.405-7.604,7.604s3.405,7.604,7.604,7.604h281.836v151.01
	c0,4.199,3.405,7.604,7.604,7.604c4.199,0,7.604-3.405,7.604-7.604V345.783C401.631,341.583,398.227,338.179,394.027,338.179z"/>
<path d="M86.842,345.783c0-4.199-3.405-7.604-7.604-7.604H7.604c-4.199,0-7.604,3.405-7.604,7.604s3.405,7.604,7.604,7.604h71.634
	C83.438,353.386,86.842,349.982,86.842,345.783z"/>
<path d="M504.396,275.829H281.495V72.053h13.686c4.199,0,7.604-3.405,7.604-7.604s-3.405-7.604-7.604-7.604h-21.29
	c-4.199,0-7.604,3.405-7.604,7.604v218.983c0,4.199,3.405,7.604,7.604,7.604h230.505c4.199,0,7.604-3.405,7.604-7.604
	S508.595,275.829,504.396,275.829z"/>
<path d="M352.089,187.962c2.57,3.321,7.344,3.934,10.667,1.365c3.322-2.569,3.933-7.344,1.365-10.667l-20.299-26.255
	c-25.991-33.619-22.932-81.629,7.116-111.678c33.019-33.018,86.745-33.017,119.762,0c30.048,30.048,33.108,78.059,7.116,111.678
	l-66.998,86.661l-31.043-40.153c-2.568-3.322-7.343-3.933-10.667-1.365c-3.322,2.569-3.933,7.344-1.365,10.667l37.059,47.934
	c1.44,1.862,3.661,2.953,6.016,2.953s4.576-1.091,6.016-2.953l73.013-94.442c30.658-39.656,27.05-96.289-8.395-131.733
	C462.586,11.107,437.5,0.716,410.819,0.716c-26.682,0-51.768,10.391-70.635,29.258c-35.444,35.444-39.053,92.077-8.395,131.733
	L352.089,187.962z"/>
<path d="M478.65,96.83C478.65,59.428,448.222,29,410.821,29s-67.829,30.428-67.829,67.829s30.428,67.829,67.829,67.829
	C448.222,164.659,478.65,134.231,478.65,96.83z M358.199,96.83c0-29.016,23.606-52.621,52.621-52.621
	c29.016,0,52.621,23.606,52.621,52.621s-23.606,52.621-52.621,52.621C381.805,149.451,358.199,125.846,358.199,96.83z"/>
<path d="M417.087,121.441c0.233,0.021,0.464,0.031,0.693,0.031c3.89,0,7.208-2.971,7.564-6.92l1.742-19.277l14.944-8.963
	c3.601-2.16,4.77-6.83,2.611-10.433c-2.161-3.601-6.83-4.77-10.433-2.61l-14.499,8.696l-15.637-8.66
	c-3.675-2.035-8.301-0.706-10.336,2.968c-2.035,3.674-0.706,8.301,2.968,10.336l7.934,4.394l-10.272,6.16l-7.362-3.798
	c-3.733-1.924-8.319-0.46-10.244,3.272c-1.925,3.732-0.46,8.319,3.272,10.244l11.127,5.739c1.096,0.565,2.291,0.846,3.486,0.846
	c1.357,0,2.71-0.363,3.911-1.083l12.384-7.428l-0.743,8.224C409.821,117.366,412.905,121.063,417.087,121.441z"/>
<path d="M141.588,374.676H34.422c-4.199,0-7.604,3.405-7.604,7.604v97.673c0,4.199,3.405,7.604,7.604,7.604h107.166
	c4.199,0,7.604-3.405,7.604-7.604v-97.673C149.192,378.08,145.787,374.676,141.588,374.676z M133.984,472.349H42.026v-82.465h91.958
	V472.349z"/>
<path d="M354.489,374.676H188.015c-4.199,0-7.604,3.405-7.604,7.604v97.673c0,4.199,3.405,7.604,7.604,7.604h166.474
	c4.199,0,7.604-3.405,7.604-7.604v-97.673C362.092,378.08,358.688,374.676,354.489,374.676z M346.885,472.349H195.618v-82.465
	h151.266V472.349z"/>
<path d="M52.751,114.336v31.723c0,4.199,3.405,7.604,7.604,7.604s7.604-3.405,7.604-7.604v-31.723
	c25.968-3.705,46.002-26.081,46.002-53.056c0-4.199-3.405-7.604-7.604-7.604c-4.199,0-7.604,3.405-7.604,7.604
	c0,18.57-13.251,34.1-30.794,37.639v-37.64c0-4.199-3.405-7.604-7.604-7.604s-7.604,3.405-7.604,7.604v37.639
	c-17.543-3.538-30.794-19.069-30.794-37.639c0-21.172,17.226-38.398,38.398-38.398c14.013,0,26.916,7.636,33.674,19.93
	c2.024,3.68,6.648,5.024,10.327,3c3.68-2.024,5.024-6.647,3-10.327c-9.431-17.154-27.441-27.81-47.002-27.81
	c-29.558,0-53.606,24.048-53.606,53.606C6.749,88.256,26.783,110.631,52.751,114.336z"/>
<path d="M87.982,163.928c0,26.976,20.033,49.352,46.002,53.056v31.723c0,4.199,3.405,7.604,7.604,7.604s7.604-3.405,7.604-7.604
	v-31.723c25.968-3.705,46.002-26.081,46.002-53.056c0-29.558-24.048-53.606-53.606-53.606
	C112.03,110.322,87.982,134.37,87.982,163.928z M141.588,125.53c21.172,0,38.398,17.225,38.398,38.398
	c0,18.57-13.251,34.1-30.794,37.639v-37.639c0-4.199-3.405-7.604-7.604-7.604s-7.604,3.405-7.604,7.604v37.639
	c-17.543-3.538-30.794-19.069-30.794-37.639C103.19,142.756,120.415,125.53,141.588,125.53z"/>
<g>
</g>
<g>
</g>
<g>
</g>
<g>
</g>
<g>
</g>
<g>
</g>
<g>
</g>
<g>
</g>
<g>
</g>
<g>
</g>
<g>
</g>
<g>
</g>
<g>
</g>
<g>
</g>
<g>
</g>
</svg>
