<?xml version="1.0" encoding="iso-8859-1"?>
<!-- Generator: Adobe Illustrator 19.0.0, SVG Export Plug-In . SVG Version: 6.00 Build 0)  -->
<svg version="1.1" id="Capa_1" xmlns="http://www.w3.org/2000/svg" xmlns:xlink="http://www.w3.org/1999/xlink" x="0px" y="0px"
	 viewBox="0 0 512 512" style="enable-background:new 0 0 512 512;" xml:space="preserve">
<path style="fill:#AAE6FF;" d="M135.695,87.995H58.001v318c-26.51,0-48.001,21.491-48.001,48.001l0,0
	c0,26.51,21.491,48.001,48.001,48.001h205.577h28.117H454c26.51,0,48.001-21.491,48.001-48.001l0,0
	c0-26.51-21.491-48.001-48.001-48.001v-318h-77.694C376.306,87.995,135.695,87.995,135.695,87.995z"/>
<path style="fill:#FAE196;" d="M10,453.995L10,453.995c0,26.51,21.491,48.001,48.001,48.001h67.907l2.592-0.861l55.387-58.459
	c16.429-17.341,39.266-27.163,63.154-27.163l0,0c28.733,0,55.612-14.187,71.825-37.909l39.515-57.817
	c16.213-23.722,43.092-37.909,71.825-37.909h16.51l7.283-21.608V88.179h-71.573c-30.896,0-59.8,15.255-77.234,40.763l-42.491,62.171
	c-17.434,25.508-46.337,40.763-77.234,40.763l0,0c-25.687,0-50.243,10.562-67.909,29.208L58,323.946v82.049
	C31.491,405.994,10,427.485,10,453.995z"/>
<g>
	<path style="fill:#6E87F5;" d="M58.001,10.004L58.001,10.004C31.491,10.004,10,31.495,10,58.005v395.991l0,0
		c0-26.51,21.491-48.001,48.001-48.001V10.004z"/>
	<path style="fill:#6E87F5;" d="M453.999,10.004L453.999,10.004c26.51,0,48.001,21.491,48.001,48.001v395.991l0,0
		c0-26.51-21.491-48.001-48.001-48.001V10.004z"/>
</g>
<path style="fill:#FF5A5A;" d="M387.409,141.413c0-72.575-58.834-131.409-131.409-131.409S124.591,68.838,124.591,141.413
	c0,31.461,11.061,60.335,29.5,82.958h-0.009L256,355.004l101.432-129.949h-0.076C376.129,202.332,387.409,173.19,387.409,141.413z"
	/>
<circle style="fill:#FFFFFF;" cx="256" cy="141.41" r="74"/>
<path d="M17.07,384.764c1.86-1.86,2.93-4.43,2.93-7.07c0-2.63-1.07-5.21-2.93-7.07c-1.86-1.86-4.44-2.93-7.07-2.93
	s-5.21,1.07-7.07,2.93S0,375.064,0,377.694c0,2.64,1.07,5.21,2.93,7.07c1.86,1.87,4.44,2.93,7.07,2.93S15.21,386.634,17.07,384.764z
	"/>
<path d="M318.227,275.29c-4.353-3.4-10.637-2.629-14.037,1.724l-0.575,0.736c-3.4,4.353-2.628,10.637,1.724,14.037
	c1.828,1.428,3.997,2.12,6.149,2.12c2.973,0,5.916-1.32,7.887-3.844l0.575-0.736C323.351,284.974,322.579,278.69,318.227,275.29z"/>
<path d="M340,141.413c0-46.318-37.682-84-84-84s-84,37.682-84,84s37.682,84,84,84S340,187.73,340,141.413z M256,205.413
	c-35.29,0-64-28.71-64-64s28.71-64,64-64s64,28.71,64,64S291.29,205.413,256,205.413z"/>
<path d="M454,0.004c-5.523,0-10,4.477-10,10v67.991h-61.634C359.078,31.782,311.184,0.004,256,0.004S152.922,31.782,129.635,77.995
	H68.001V10.004c0-5.523-4.477-10-10-10C26.019,0.004,0,26.023,0,58.005v280.262c0,5.523,4.477,10,10,10s10-4.477,10-10V58.005
	c0-17.494,11.883-32.266,28.001-36.666v66.656v308.862C20.766,401.608,0,425.421,0,453.995c0,31.982,26.019,58.001,58.001,58.001
	H454c31.981,0,58-26.019,58-58.001V58.005C512,26.023,485.981,0.004,454,0.004z M20,453.995c0-20.954,17.047-38.001,38.001-38.001
	c5.523,0,10-4.477,10-10v-78.063l56.817-59.969c3.798-4.009,3.627-10.339-0.381-14.137c-4.01-3.798-10.339-3.628-14.137,0.381
	l-42.298,44.645V97.995h53.418c-4.426,13.687-6.828,28.276-6.828,43.418c0,32.322,11.184,63.903,31.503,88.975
	c0.034,0.045,0.068,0.09,0.103,0.135l101.918,130.633c1.895,2.428,4.803,3.848,7.883,3.849H256c3.08,0,5.988-1.419,7.883-3.847
	l27.146-34.777c3.398-4.354,2.624-10.638-1.73-14.036c-4.353-3.398-10.638-2.624-14.036,1.73l-19.261,24.676L162.2,218.519
	c-0.114-0.158-0.233-0.313-0.358-0.466c-17.573-21.561-27.251-48.779-27.251-76.64c0-66.945,54.464-121.409,121.409-121.409
	s121.409,54.464,121.409,121.409c0,28.161-9.859,55.603-27.762,77.273c-0.293,0.355-0.558,0.726-0.795,1.111l-17.76,22.754
	c-3.398,4.354-2.624,10.638,1.73,14.036s10.638,2.624,14.036-1.73l18.458-23.648c0.176-0.225,0.341-0.456,0.495-0.693
	c20.386-25.102,31.599-56.696,31.599-89.103c0-15.142-2.402-29.731-6.828-43.418H444v173.884h-13.793
	c-32.056,0-61.993,15.8-80.081,42.266l-39.515,57.817c-14.359,21.009-38.123,33.551-63.57,33.551
	c-26.513,0-52.178,11.039-70.413,30.285l-53.244,56.198H58.001C37.047,491.996,20,474.949,20,453.995z M454,491.996H150.934
	l40.212-42.442c14.476-15.278,34.849-24.041,55.895-24.041c32.056,0,61.993-15.8,80.081-42.266l39.515-57.817
	c14.359-21.009,38.123-33.551,63.569-33.551H444v114.116c0,5.523,4.477,10,10,10c20.954,0,38,17.047,38,38.001
	S474.953,491.996,454,491.996z M492,410.229c-7.796-6.778-17.405-11.523-28-13.373V87.995V21.339c16.118,4.4,28,19.172,28,36.666
	V410.229z"/>
<g>
</g>
<g>
</g>
<g>
</g>
<g>
</g>
<g>
</g>
<g>
</g>
<g>
</g>
<g>
</g>
<g>
</g>
<g>
</g>
<g>
</g>
<g>
</g>
<g>
</g>
<g>
</g>
<g>
</g>
</svg>
