<?xml version="1.0" encoding="iso-8859-1"?>
<!-- Generator: Adobe Illustrator 19.0.0, SVG Export Plug-In . SVG Version: 6.00 Build 0)  -->
<svg version="1.1" id="Capa_1" xmlns="http://www.w3.org/2000/svg" xmlns:xlink="http://www.w3.org/1999/xlink" x="0px" y="0px"
	 viewBox="0 0 512.001 512.001" style="enable-background:new 0 0 512.001 512.001;" xml:space="preserve">
<path style="fill:#57555C;" d="M266,10.001c-16.57,0-30,13.43-30,30v422h60v-422C296,23.431,282.57,10.001,266,10.001z"/>
<path style="fill:#85E374;" d="M502,126.001l-55.14,46.96c-3.17,1.99-6.85,3.04-10.6,3.04H296h-60h-20c-11.05,0-20-8.95-20-20v-60
	c0-11.05,8.95-20,20-20h20h60h140.26c3.75,0,7.43,1.05,10.6,3.04L502,126.001z"/>
<path style="fill:#FED42D;" d="M356,482.001v20H176v-20c0-11.05,8.95-20,20-20h40h60h40C347.05,462.001,356,470.951,356,482.001z"/>
<path style="fill:#85E374;" d="M316,256.001v60c0,11.05-8.95,20-20,20h-60H75.74c-3.75,0-7.43-1.05-10.6-3.04L10,286.001
	l55.14-46.96c3.17-1.99,6.85-3.04,10.6-3.04H236h60C307.05,236.001,316,244.951,316,256.001z"/>
<path d="M90,296.001c5.52,0,10-4.48,10-10s-4.48-10-10-10s-10,4.48-10,10S84.48,296.001,90,296.001z"/>
<path d="M3.516,293.614l55.14,46.96c0.368,0.313,0.757,0.599,1.167,0.855c4.762,2.991,10.267,4.572,15.917,4.572H226v106h-30
	c-16.542,0-30,13.458-30,30v20c0,5.522,4.477,10,10,10h180c5.522,0,10-4.478,10-10v-20c0-16.542-13.458-30-30-30h-30v-107.72
	c11.639-4.128,20-15.243,20-28.28v-60c0-13.036-8.361-24.152-20-28.28v-41.72h130.26c5.65,0,11.155-1.581,15.918-4.571
	c0.409-0.257,0.799-0.542,1.166-0.855l55.14-46.96c2.231-1.9,3.517-4.683,3.517-7.613s-1.285-5.713-3.517-7.613l-55.14-46.96
	c-0.367-0.313-0.757-0.599-1.166-0.855c-4.763-2.992-10.268-4.573-15.918-4.573H306v-26c0-22.056-17.944-40-40-40s-40,17.944-40,40
	v26h-10c-16.542,0-30,13.458-30,30v60c0,16.542,13.458,30,30,30h10v40H75.74c-5.65,0-11.155,1.581-15.917,4.571
	c-0.409,0.257-0.799,0.542-1.167,0.855l-55.14,46.96C1.285,280.288,0,283.07,0,286.001S1.285,291.714,3.516,293.614z M346,482.001
	v10H186v-10c0-5.514,4.486-10,10-10h140C341.514,472.001,346,476.487,346,482.001z M246,452.001v-106h40v106H246z M246,40.001
	c0-11.028,8.972-20,20-20c11.028,0,20,8.972,20,20v26h-40V40.001z M206,156.001v-60c0-5.514,4.486-10,10-10h220.26
	c1.681,0,3.316,0.415,4.767,1.206l45.55,38.794l-45.551,38.794c-1.45,0.791-3.086,1.206-4.767,1.206H216
	C210.486,166.001,206,161.515,206,156.001z M246,186.001h40v40h-40V186.001z M70.975,247.207c1.45-0.791,3.085-1.206,4.766-1.206
	H296c5.514,0,10,4.486,10,10v60c0,5.514-4.486,10-10,10H75.74c-1.681,0-3.316-0.415-4.766-1.206l-45.551-38.794L70.975,247.207z"/>
<path d="M382,136.001c5.522,0,10-4.478,10-10s-4.478-10-10-10H236c-5.523,0-10,4.478-10,10s4.477,10,10,10H382z"/>
<path d="M422,136.001c5.52,0,10-4.48,10-10s-4.48-10-10-10s-10,4.48-10,10C412,131.521,416.48,136.001,422,136.001z"/>
<path d="M130,296.001h146c5.522,0,10-4.478,10-10s-4.478-10-10-10H130c-5.523,0-10,4.478-10,10S124.477,296.001,130,296.001z"/>
<g>
</g>
<g>
</g>
<g>
</g>
<g>
</g>
<g>
</g>
<g>
</g>
<g>
</g>
<g>
</g>
<g>
</g>
<g>
</g>
<g>
</g>
<g>
</g>
<g>
</g>
<g>
</g>
<g>
</g>
</svg>
