<?xml version="1.0" encoding="iso-8859-1"?>
<!-- Generator: Adobe Illustrator 19.0.0, SVG Export Plug-In . SVG Version: 6.00 Build 0)  -->
<svg version="1.1" id="Layer_1" xmlns="http://www.w3.org/2000/svg" xmlns:xlink="http://www.w3.org/1999/xlink" x="0px" y="0px"
	 viewBox="0 0 512 512" style="enable-background:new 0 0 512 512;" xml:space="preserve">
<g>
	<path style="fill:#9BF57D;" d="M354.389,341.525c-44.872,0-81.248-36.375-81.248-81.248c0-39.458,28.135-72.32,65.432-79.683
		c-19.083-18.775-44.857-27.222-68.639-27.222c-44.9,0-53.007,14.772-82.316,14.772c-29.31,0-37.417-14.772-82.317-14.772
		S8.018,182.916,8.018,256.778c0,118.178,67.35,221.585,134.7,221.585c29.933,0,22.45-7.386,44.9-7.386
		c22.449,0,14.966,7.386,44.899,7.386c50.461,0,100.876-58.08,123.009-136.896C355.144,341.472,354.774,341.525,354.389,341.525z"/>
	<path style="fill:#9BF57D;" d="M179.066,97.781c0,6.476,0.98,12.721,2.766,18.615c5.894,1.785,12.138,2.766,18.615,2.766
		c35.425,0,64.143-28.718,64.143-64.143c0-6.476-0.98-12.721-2.766-18.615c-5.894-1.785-12.138-2.766-18.615-2.766
		C207.783,33.638,179.066,62.356,179.066,97.781z"/>
</g>
<path style="fill:#8CE16E;" d="M261.823,36.405l-79.992,79.992c5.894,1.785,12.138,2.766,18.615,2.766
	c35.425,0,64.143-28.718,64.143-64.143C264.589,48.543,263.608,42.299,261.823,36.405L261.823,36.405z"/>
<circle style="fill:#7F8499;" cx="354.39" cy="260.282" r="21.381"/>
<path style="fill:#8CE16E;" d="M110.43,224.165c3.325-29.514,12.514-51.769,24.847-68.011c-8.016-1.635-17.559-2.783-29.975-2.783
	c-44.9,0-97.284,29.544-97.284,103.406c0,118.178,67.35,221.585,134.7,221.585c27.31,0,23.54-6.132,39.71-7.21
	C132.751,437.957,98.017,334.346,110.43,224.165z"/>
<path d="M354.389,230.878c-16.211,0-29.399,13.188-29.399,29.399c0,16.211,13.188,29.399,29.399,29.399
	c16.211,0,29.399-13.188,29.399-29.399C383.788,244.066,370.6,230.878,354.389,230.878z M354.389,273.64
	c-7.369,0-13.363-5.994-13.363-13.363c0-7.369,5.994-13.363,13.363-13.363c7.369,0,13.363,5.994,13.363,13.363
	C367.752,267.646,361.758,273.64,354.389,273.64z"/>
<path d="M405.415,209.252c-3.131-3.131-8.208-3.131-11.338,0c-3.131,3.131-3.131,8.208,0,11.338
	c21.883,21.883,21.883,57.489,0,79.373c-3.131,3.131-3.131,8.208,0,11.338c1.565,1.565,3.618,2.349,5.669,2.349
	s4.104-0.783,5.669-2.349C433.55,283.167,433.55,237.386,405.415,209.252z"/>
<path d="M435.652,179.014c-3.131-3.131-8.208-3.131-11.338,0c-3.131,3.131-3.131,8.208,0,11.338
	c18.677,18.677,28.963,43.51,28.963,69.923s-10.286,51.247-28.963,69.923c-3.131,3.131-3.131,8.208,0,11.338
	c1.565,1.565,3.618,2.349,5.669,2.349s4.104-0.783,5.669-2.349C480.46,296.732,480.46,223.822,435.652,179.014z"/>
<path d="M465.889,148.777c-3.131-3.132-8.208-3.131-11.338,0c-3.131,3.131-3.131,8.208,0,11.338
	c55.228,55.229,55.229,145.094,0,200.322c-3.131,3.131-3.131,8.208,0,11.338c1.565,1.565,3.618,2.349,5.669,2.349
	s4.104-0.783,5.669-2.349C527.371,310.296,527.371,210.258,465.889,148.777z"/>
<path d="M355.417,333.45c-0.341,0.004-0.677,0.025-1.012,0.049l-0.111,0.007c-40.335-0.052-73.136-32.883-73.136-73.23
	c0-34.869,24.799-65.072,58.968-71.817c2.916-0.575,5.275-2.718,6.127-5.564c0.853-2.848,0.062-5.933-2.057-8.018
	c-19.072-18.764-46.139-29.525-74.263-29.525c-26.134,0-40.45,4.765-53.08,8.969c-7.087,2.359-13.445,4.471-21.238,5.358
	c-0.144-11.839-1.418-22.85-3.459-32.987c2.751,0.32,5.517,0.485,8.29,0.485c39.79,0,72.161-32.371,72.161-72.161
	c0-7.08-1.047-14.125-3.111-20.939c-0.777-2.565-2.784-4.572-5.348-5.348c-6.814-2.064-13.859-3.111-20.939-3.111
	c-32.663,0-60.309,21.819-69.172,51.644c-11.19-20.268-22.725-31.447-23.658-32.333c-3.207-3.046-8.264-2.915-11.317,0.284
	c-3.052,3.199-2.932,8.271,0.26,11.33c0.398,0.382,39.34,38.491,40.237,103.131c-7.764-0.892-14.107-3-21.175-5.352
	c-12.631-4.205-26.948-8.969-53.082-8.969c-26.376,0-52.184,9.487-70.804,26.028C11.928,191.43,0,220.959,0,256.778
	c0,57.001,15.783,115.079,43.303,159.343c27.76,44.652,63.995,70.26,99.415,70.26c17.587,0,23.775-2.478,29.234-4.665
	c3.795-1.52,6.793-2.721,15.666-2.721c8.873,0,11.871,1.201,15.666,2.721c5.459,2.186,11.646,4.665,29.234,4.665
	c53.368,0,107.126-58.699,130.729-142.746c0.684-2.434,0.179-5.049-1.362-7.055C360.342,334.576,357.946,333.442,355.417,333.45z
	 M243.209,41.656c4.05,0,8.085,0.442,12.049,1.314c0.872,3.964,1.314,8,1.314,12.049c0,30.948-25.177,56.125-56.125,56.125
	c-0.657,0-1.314-0.03-1.97-0.053l20.469-20.469c3.131-3.131,3.131-8.208,0-11.338c-3.131-3.131-8.208-3.131-11.338,0l-20.47,20.468
	c-0.024-0.656-0.053-1.313-0.053-1.97C187.084,66.833,212.261,41.656,243.209,41.656z M298.654,434.143
	c-20.765,23.345-44.253,36.202-66.136,36.202c-14.495,0-18.956-1.787-23.271-3.515c-4.751-1.903-9.663-3.871-21.628-3.871
	c-11.965,0-16.878,1.968-21.629,3.871c-4.315,1.728-8.776,3.515-23.271,3.515c-29.756,0-61.028-22.85-85.797-62.691
	c-25.985-41.792-40.887-96.785-40.887-150.876c0-65.893,44.834-95.388,89.266-95.388c23.535,0,35.981,4.143,48.017,8.148
	c10.235,3.407,19.901,6.624,34.299,6.624c14.397,0,24.064-3.218,34.298-6.624c12.036-4.006,24.481-8.148,48.017-8.148
	c18.868,0,37.127,5.637,51.896,15.773c-33.621,13.174-56.707,45.973-56.707,83.114c0,46.013,34.993,84.006,79.765,88.763
	C334.236,382.441,318.012,412.378,298.654,434.143z"/>
<g>
</g>
<g>
</g>
<g>
</g>
<g>
</g>
<g>
</g>
<g>
</g>
<g>
</g>
<g>
</g>
<g>
</g>
<g>
</g>
<g>
</g>
<g>
</g>
<g>
</g>
<g>
</g>
<g>
</g>
</svg>
