<?xml version="1.0" encoding="iso-8859-1"?>
<!-- Generator: Adobe Illustrator 19.0.0, SVG Export Plug-In . SVG Version: 6.00 Build 0)  -->
<svg version="1.1" id="Layer_1" xmlns="http://www.w3.org/2000/svg" xmlns:xlink="http://www.w3.org/1999/xlink" x="0px" y="0px"
	 viewBox="0 0 512 512" style="enable-background:new 0 0 512 512;" xml:space="preserve">
<path style="fill:#FFDC64;" d="M350.063,495.432H161.937c-9.446,0-17.102-7.656-17.102-17.102V238.898
	c0-9.446,7.656-17.102,17.102-17.102h188.125c9.446,0,17.102,7.656,17.102,17.102V478.33
	C367.165,487.776,359.508,495.432,350.063,495.432z"/>
<path style="fill:#FF5050;" d="M281.653,290.205l25.653-17.102l25.653,17.102v-68.409c0-4.722-3.829-8.551-8.551-8.551h-34.205
	c-4.722,0-8.551,3.829-8.551,8.551V290.205z"/>
<path style="fill:#7F8499;" d="M25.119,290.205c-9.445,0-17.102,7.658-17.102,17.102v102.614c0,9.446,7.658,17.102,17.102,17.102
	h17.102V290.205H25.119z"/>
<path style="fill:#959CB5;" d="M76.426,444.125H59.324c-9.446,0-17.102-7.656-17.102-17.102V290.205
	c0-9.446,7.656-17.102,17.102-17.102h17.102c9.446,0,17.102,7.656,17.102,17.102v136.818
	C93.528,436.468,85.872,444.125,76.426,444.125z"/>
<path style="fill:#7F8499;" d="M486.881,290.205h-17.102v136.818h17.102c9.445,0,17.102-7.658,17.102-17.102V307.307
	C503.983,297.861,496.326,290.205,486.881,290.205z"/>
<path style="fill:#959CB5;" d="M435.574,273.102h17.102c9.446,0,17.102,7.656,17.102,17.102v136.818
	c0,9.446-7.656,17.102-17.102,17.102h-17.102c-9.446,0-17.102-7.656-17.102-17.102V290.205
	C418.472,280.759,426.128,273.102,435.574,273.102z"/>
<path style="fill:#C84146;" d="M290.205,213.244c-4.722,0-8.551,3.829-8.551,8.551v68.409l25.653-17.102v-59.858H290.205z"/>
<path d="M486.881,282.188h-9.086v-51.841C477.795,108.048,378.299,8.551,256,8.551S34.205,108.048,34.205,230.347v51.841h-9.086
	C11.268,282.188,0,293.456,0,307.307v102.614c0,13.851,11.268,25.119,25.119,25.119h10.405c3.354,9.93,12.752,17.102,23.8,17.102
	h17.102c13.851,0,25.119-11.268,25.119-25.119V290.205c0-13.851-11.268-25.119-25.119-25.119H59.324
	c-3.203,0-6.266,0.609-9.086,1.707v-36.446c0-113.458,92.304-205.762,205.762-205.762s205.762,92.304,205.762,205.762v36.446
	c-2.82-1.098-5.882-1.707-9.086-1.707h-17.102c-13.851,0-25.119,11.268-25.119,25.119v136.818c0,13.851,11.268,25.119,25.119,25.119
	h17.102c11.048,0,20.446-7.172,23.8-17.102h10.405c13.851,0,25.119-11.268,25.119-25.119V307.307
	C512,293.456,500.732,282.188,486.881,282.188z M16.033,409.921V307.307c0-5.011,4.076-9.086,9.086-9.086h9.086v120.785h-9.086
	C20.109,419.006,16.033,414.931,16.033,409.921z M59.324,281.119h17.102c5.01,0,9.086,4.076,9.086,9.086v136.818
	c0,5.01-4.076,9.086-9.086,9.086H59.324c-5.01,0-9.086-4.076-9.086-9.086V290.205C50.238,285.195,54.314,281.119,59.324,281.119z
	 M452.676,436.109h-17.102c-5.01,0-9.086-4.076-9.086-9.086V290.205c0-5.011,4.076-9.086,9.086-9.086h17.102
	c5.01,0,9.086,4.076,9.086,9.086v136.818C461.762,432.033,457.686,436.109,452.676,436.109z M495.967,409.921
	c0,5.01-4.076,9.086-9.086,9.086h-9.086V298.221h9.086c5.01,0,9.086,4.076,9.086,9.086V409.921z"/>
<path d="M350.063,213.779h-11.165c-2.829-5.093-8.26-8.551-14.489-8.551h-34.205c-6.228,0-11.659,3.458-14.489,8.551H161.937
	c-13.851,0-25.119,11.268-25.119,25.119V478.33c0,13.851,11.268,25.119,25.119,25.119h188.125c13.851,0,25.119-11.268,25.119-25.119
	V238.898C375.182,225.047,363.913,213.779,350.063,213.779z M289.67,221.795c0-0.294,0.239-0.534,0.534-0.534h34.205
	c0.295,0,0.534,0.241,0.534,0.534v53.43l-13.19-8.794c-1.347-0.898-2.897-1.347-4.447-1.347c-1.55,0-3.1,0.449-4.447,1.347
	l-13.19,8.794V221.795z M359.148,478.33c0,5.01-4.076,9.086-9.086,9.086H161.937c-5.01,0-9.086-4.076-9.086-9.086V238.898
	c0-5.01,4.076-9.086,9.086-9.086h111.699v60.392c0,2.957,1.627,5.674,4.234,7.068c2.607,1.396,5.769,1.242,8.229-0.398
	l21.207-14.138l21.207,14.138c1.341,0.895,2.892,1.347,4.448,1.347c1.297,0,2.597-0.314,3.783-0.949
	c2.606-1.395,4.234-4.112,4.234-7.068v-60.392h9.086c5.01,0,9.086,4.076,9.086,9.086V478.33H359.148z"/>
<path d="M179.04,247.983c-4.427,0-8.017,3.589-8.017,8.017v205.228c0,4.427,3.589,8.017,8.017,8.017s8.017-3.589,8.017-8.017V256
	C187.056,251.573,183.467,247.983,179.04,247.983z"/>
<path d="M247.449,349.528h51.307c4.427,0,8.017-3.589,8.017-8.017c0-4.427-3.589-8.017-8.017-8.017h-51.307
	c-4.427,0-8.017,3.589-8.017,8.017C239.432,345.939,243.021,349.528,247.449,349.528z"/>
<path d="M315.858,367.699h-85.511c-4.427,0-8.017,3.589-8.017,8.017c0,4.427,3.589,8.017,8.017,8.017h85.511
	c4.427,0,8.017-3.589,8.017-8.017C323.875,371.289,320.285,367.699,315.858,367.699z"/>
<g>
</g>
<g>
</g>
<g>
</g>
<g>
</g>
<g>
</g>
<g>
</g>
<g>
</g>
<g>
</g>
<g>
</g>
<g>
</g>
<g>
</g>
<g>
</g>
<g>
</g>
<g>
</g>
<g>
</g>
</svg>
