<?xml version="1.0" encoding="iso-8859-1"?>
<!-- Generator: Adobe Illustrator 19.0.0, SVG Export Plug-In . SVG Version: 6.00 Build 0)  -->
<svg version="1.1" id="Layer_1" xmlns="http://www.w3.org/2000/svg" xmlns:xlink="http://www.w3.org/1999/xlink" x="0px" y="0px"
	 viewBox="0 0 512 512" style="enable-background:new 0 0 512 512;" xml:space="preserve">
<path style="fill:#C7CFE2;" d="M324.409,503.983H187.591c-14.168,0-25.653-11.485-25.653-25.653V33.67
	c0-14.168,11.485-25.653,25.653-25.653h136.818c14.168,0,25.653,11.485,25.653,25.653v444.66
	C350.063,492.498,338.577,503.983,324.409,503.983z"/>
<circle style="fill:#959CB5;" cx="256" cy="401.37" r="59.858"/>
<path style="fill:#FF5050;" d="M307.307,247.449H204.693c-4.722,0-8.551-3.829-8.551-8.551V119.182c0-4.722,3.829-8.551,8.551-8.551
	h102.614c4.722,0,8.551,3.829,8.551,8.551v119.716C315.858,243.62,312.029,247.449,307.307,247.449z"/>
<path style="fill:#7F8499;" d="M298.756,76.426h-85.511c-9.446,0-17.102-7.656-17.102-17.102l0,0
	c0-9.446,7.656-17.102,17.102-17.102h85.511c9.446,0,17.102,7.656,17.102,17.102l0,0C315.858,68.769,308.202,76.426,298.756,76.426z
	"/>
<circle style="fill:#D5DCED;" cx="256" cy="401.37" r="25.653"/>
<circle style="fill:#959CB5;" cx="213.244" cy="298.756" r="17.102"/>
<circle style="fill:#FF5050;" cx="298.756" cy="298.756" r="17.102"/>
<g>
	<circle style="fill:#707487;" cx="256" cy="59.324" r="17.102"/>
	<circle style="fill:#707487;" cx="298.756" cy="59.324" r="17.102"/>
	<circle style="fill:#707487;" cx="213.244" cy="59.324" r="17.102"/>
</g>
<path d="M324.409,0H187.591c-18.566,0-33.67,15.105-33.67,33.67v444.66c0,18.566,15.105,33.67,33.67,33.67h136.818
	c18.566,0,33.67-15.105,33.67-33.67V33.67C358.079,15.105,342.975,0,324.409,0z M342.046,478.33c0,9.725-7.912,17.637-17.637,17.637
	H187.591c-9.725,0-17.637-7.912-17.637-17.637V33.67c0-9.725,7.912-17.637,17.637-17.637h136.818
	c9.725,0,17.637,7.912,17.637,17.637V478.33z"/>
<path d="M256,333.495c-37.426,0-67.875,30.448-67.875,67.875s30.449,67.875,67.875,67.875s67.875-30.448,67.875-67.875
	S293.426,333.495,256,333.495z M256,453.211c-28.585,0-51.841-23.256-51.841-51.841c0-28.585,23.256-51.841,51.841-51.841
	s51.841,23.256,51.841,51.841C307.841,429.955,284.585,453.211,256,453.211z"/>
<path d="M307.307,102.614H204.693c-9.136,0-16.568,7.432-16.568,16.568v119.716c0,9.136,7.432,16.568,16.568,16.568h102.614
	c9.136,0,16.568-7.432,16.568-16.568V119.182C323.875,110.046,316.443,102.614,307.307,102.614z M307.841,238.898
	c0,0.295-0.239,0.534-0.534,0.534H204.693c-0.295,0-0.534-0.239-0.534-0.534V119.182c0-0.295,0.239-0.534,0.534-0.534h102.614
	c0.295,0,0.534,0.239,0.534,0.534V238.898z"/>
<path d="M298.756,34.205h-85.511c-13.851,0-25.119,11.268-25.119,25.119s11.268,25.119,25.119,25.119h85.511
	c13.851,0,25.119-11.268,25.119-25.119S312.606,34.205,298.756,34.205z M298.756,68.409h-85.511c-5.01,0-9.086-4.076-9.086-9.086
	s4.076-9.086,9.086-9.086h85.511c5.01,0,9.086,4.076,9.086,9.086S303.766,68.409,298.756,68.409z"/>
<path d="M281.653,153.921c-4.427,0-8.017,3.589-8.017,8.017c0,9.725-7.912,17.637-17.637,17.637s-17.637-7.912-17.637-17.637
	c0-4.427-3.589-8.017-8.017-8.017s-8.017,3.589-8.017,8.017c0,15.804,10.947,29.091,25.653,32.699v10.592h-0.534
	c-4.427,0-8.017,3.589-8.017,8.017s3.589,8.017,8.017,8.017h17.102c4.427,0,8.017-3.589,8.017-8.017s-3.589-8.017-8.017-8.017
	h-0.534v-10.592c14.707-3.606,25.653-16.895,25.653-32.699C289.67,157.51,286.081,153.921,281.653,153.921z"/>
<path d="M256,169.954c4.427,0,8.017-3.589,8.017-8.017v-17.102c0-4.427-3.589-8.017-8.017-8.017c-4.427,0-8.017,3.589-8.017,8.017
	v17.102C247.983,166.365,251.573,169.954,256,169.954z"/>
<path d="M256,367.699c-18.566,0-33.67,15.105-33.67,33.67c0,18.566,15.105,33.67,33.67,33.67c18.566,0,33.67-15.105,33.67-33.67
	C289.67,382.804,274.566,367.699,256,367.699z M256,419.006c-9.725,0-17.637-7.912-17.637-17.637
	c0-9.725,7.912-17.637,17.637-17.637s17.637,7.912,17.637,17.637C273.637,411.094,265.725,419.006,256,419.006z"/>
<path d="M238.363,298.756c0-13.851-11.268-25.119-25.119-25.119c-13.851,0-25.119,11.268-25.119,25.119
	c0,13.851,11.268,25.119,25.119,25.119C227.095,323.875,238.363,312.606,238.363,298.756z M204.159,298.756
	c0-5.01,4.076-9.086,9.086-9.086s9.086,4.076,9.086,9.086s-4.076,9.086-9.086,9.086S204.159,303.766,204.159,298.756z"/>
<path d="M298.756,273.637c-13.851,0-25.119,11.268-25.119,25.119c0,13.851,11.268,25.119,25.119,25.119
	c13.851,0,25.119-11.268,25.119-25.119C323.875,284.905,312.606,273.637,298.756,273.637z M298.756,307.841
	c-5.01,0-9.086-4.076-9.086-9.086s4.076-9.086,9.086-9.086s9.086,4.076,9.086,9.086S303.766,307.841,298.756,307.841z"/>
<g>
</g>
<g>
</g>
<g>
</g>
<g>
</g>
<g>
</g>
<g>
</g>
<g>
</g>
<g>
</g>
<g>
</g>
<g>
</g>
<g>
</g>
<g>
</g>
<g>
</g>
<g>
</g>
<g>
</g>
</svg>
