<?xml version="1.0" encoding="iso-8859-1"?>
<!-- Generator: Adobe Illustrator 19.0.0, SVG Export Plug-In . SVG Version: 6.00 Build 0)  -->
<svg version="1.1" id="Layer_1" xmlns="http://www.w3.org/2000/svg" xmlns:xlink="http://www.w3.org/1999/xlink" x="0px" y="0px"
	 viewBox="0 0 512 512" style="enable-background:new 0 0 512 512;" xml:space="preserve">
<path style="fill:#D29B6E;" d="M325.917,376.837l-74.947-23.06c-7.175-2.207-12.072-8.839-12.072-16.345v-47.227H119.183v47.227
	c0,7.508-4.897,14.138-12.072,16.345l-74.948,23.06c-14.353,4.417-24.146,17.676-24.146,32.692v34.596
	c0,9.445,7.658,17.102,17.102,17.102H332.96c9.445,0,17.102-7.658,17.102-17.102v-34.596
	C350.063,394.514,340.269,381.254,325.917,376.837z"/>
<path style="fill:#C7CFE2;" d="M325.917,376.837l-62.657-19.28c-15.381,31-47.268,52.362-84.22,52.362s-68.839-21.362-84.22-52.362
	l-62.656,19.28c-14.353,4.417-24.146,17.676-24.146,32.692v34.596c0,9.445,7.658,17.102,17.102,17.102H332.96
	c9.445,0,17.102-7.658,17.102-17.102v-34.596C350.063,394.514,340.269,381.254,325.917,376.837z"/>
<g>
	<path style="fill:#959CB5;" d="M102.079,196.142H76.426c-9.445,0-17.102,7.656-17.102,17.102V256
		c0,9.445,7.658,17.102,17.102,17.102h25.653V196.142z"/>
	<path style="fill:#959CB5;" d="M256,273.102h25.653c9.445,0,17.102-7.656,17.102-17.102v-42.756
		c0-9.445-7.658-17.102-17.102-17.102H256V273.102z"/>
</g>
<path style="fill:#F0C087;" d="M211.828,327.014l34.32-28.6c6.352-5.293,10.571-12.708,11.878-20.872l14.616-91.347
	c9.215-57.594-35.275-109.769-93.602-109.769l0,0c-58.326,0-102.817,52.174-93.602,109.769l14.616,91.347
	c1.306,8.164,5.526,15.579,11.878,20.872l34.32,28.6c4.61,3.842,10.422,5.946,16.422,5.946h32.732
	C201.406,332.96,207.218,330.857,211.828,327.014z"/>
<path style="fill:#E6AF78;" d="M179.04,332.958h-5.905c-2.166,0-4.262-2.104-5.925-5.946l-12.381-28.599
	c-2.292-5.293-3.814-12.708-4.285-20.872l-5.273-91.347c-3.323-57.579,12.719-109.739,33.751-109.766
	c-58.32,0.011-102.799,52.179-93.585,109.767l14.615,91.348c1.306,8.164,5.526,15.579,11.878,20.872l34.32,28.599
	c4.61,3.842,10.422,5.946,16.422,5.946h16.367V332.958z"/>
<path style="fill:#694B4B;" d="M179.04,76.426c-58.327,0-102.817,52.174-93.602,109.768l4.328,27.05c10.514,0,20.862,0,20.859,0
	l7.684-54.432c0.554-3.306,2.973-6.05,6.212-6.908c35.593-9.425,73.443-9.425,109.036,0c3.241,0.858,5.659,3.602,6.213,6.908
	l7.684,54.432h20.859l4.328-27.05C281.857,128.601,237.367,76.426,179.04,76.426z"/>
<path style="fill:#5A4146;" d="M85.438,186.194l4.328,27.05c10.514,0,20.862,0,20.859,0l7.684-54.432
	c0.554-3.306,2.973-6.05,6.212-6.908c7.061-1.871,14.228-3.262,21.431-4.39c3.767-40.31,16.93-71.066,33.069-71.087
	C120.703,76.438,76.224,128.606,85.438,186.194z"/>
<g>
	<circle style="fill:#E4EAF8;" cx="144.835" cy="221.795" r="17.102"/>
	<circle style="fill:#E4EAF8;" cx="213.244" cy="221.795" r="17.102"/>
</g>
<g>
	<path style="fill:#AFB9D2;" d="M58.644,419.331L17.975,385.44c-6.217,6.262-9.958,14.833-9.958,24.09v34.596
		c0,9.445,7.658,17.102,17.102,17.102h42.756v-22.189C67.875,431.425,64.494,424.204,58.644,419.331z"/>
	<path style="fill:#AFB9D2;" d="M299.436,419.331l40.669-33.891c6.217,6.262,9.958,14.833,9.958,24.09v34.596
		c0,9.445-7.658,17.102-17.102,17.102h-42.756v-22.189C290.205,431.425,293.587,424.204,299.436,419.331z"/>
	<path style="fill:#AFB9D2;" d="M179.04,435.574c48.512,0,90.19-28.909,108.996-70.392l-24.776-7.623
		c-15.381,31-47.268,52.362-84.22,52.362s-68.839-21.362-84.22-52.362l-24.776,7.623C88.85,406.665,130.528,435.574,179.04,435.574z
		"/>
</g>
<path style="fill:#959CB5;" d="M478.33,213.244H358.614c-14.168,0-25.653,11.485-25.653,25.653v34.205l-42.756,42.756h42.756v8.551
	c0,14.168,11.485,25.653,25.653,25.653H478.33c14.168,0,25.653-11.485,25.653-25.653v-85.511
	C503.983,224.73,492.498,213.244,478.33,213.244z"/>
<path style="fill:#E4EAF8;" d="M435.574,247.449c-9.445,0-17.102,7.656-17.102,17.102c0-9.446-7.658-17.102-17.102-17.102h-34.205
	v59.858h34.205c9.445,0,17.102,7.656,17.102,17.102c0-9.446,7.658-17.102,17.102-17.102h34.205v-59.858H435.574z"/>
<path d="M328.274,369.176l-74.947-23.06c-3.836-1.18-6.413-4.67-6.413-8.684v-29.219l4.365-3.639
	c7.237-6.032,12.224-14.293,14.218-23.454h16.155c13.851,0,25.119-11.268,25.119-25.119V170.49
	c0-70.434-57.3-127.734-127.733-127.734s-127.733,57.3-127.733,127.733V256c0,13.851,11.268,25.119,25.119,25.119h16.155
	c1.995,9.161,6.98,17.422,14.218,23.454l4.365,3.638v29.219c0,4.014-2.577,7.504-6.413,8.684l-74.947,23.06
	C11.978,374.661,0,390.878,0,409.529v34.596c0,13.851,11.268,25.119,25.119,25.119H332.96c13.851,0,25.119-11.268,25.119-25.119
	v-34.596C358.079,390.878,346.101,374.661,328.274,369.176z M213.244,196.676c-8.84,0-16.621,4.593-21.099,11.514
	c-3.956-1.914-8.427-2.963-13.106-2.963s-9.15,1.049-13.106,2.963c-4.478-6.921-12.259-11.514-21.099-11.514
	c-7.507,0-14.251,3.315-18.856,8.551h-6.126l6.372-45.136c0.055-0.229,0.219-0.403,0.35-0.438c34.322-9.089,70.607-9.089,104.93,0
	c0.133,0.035,0.296,0.21,0.351,0.438l6.372,45.136h-6.126C227.495,199.991,220.751,196.676,213.244,196.676z M204.159,221.785
	c0.005-5.006,4.079-9.075,9.086-9.075c5.01,0,9.086,4.076,9.086,9.086s-4.076,9.086-9.086,9.086c-5.009,0-9.083-4.075-9.086-9.083
	V221.785z M144.835,212.71c5.007,0,9.079,4.07,9.086,9.075v0.013c-0.001,5.009-4.077,9.083-9.086,9.083
	c-5.01,0-9.086-4.076-9.086-9.086S139.825,212.71,144.835,212.71z M254.419,205.228l-6.711-47.536
	c-0.01-0.067-0.02-0.136-0.031-0.203c-1.08-6.443-5.816-11.678-12.068-13.333c-37.009-9.801-76.132-9.801-113.141,0
	c-6.251,1.656-10.987,6.89-12.067,13.333c-0.012,0.067-0.022,0.136-0.031,0.203l-6.711,47.536h-7.059l-3.248-20.299
	c-4.021-25.13,3.144-50.65,19.657-70.014c16.513-19.365,40.581-30.472,66.03-30.472s49.516,11.107,66.029,30.471
	c16.512,19.365,23.677,44.884,19.657,70.014l-3.247,20.3H254.419z M290.739,256c0,5.01-4.076,9.086-9.086,9.086h-13.516
	l9.748-60.927h3.768c5.01,0,9.086,4.076,9.086,9.086V256z M179.04,58.789c61.592,0,111.699,50.108,111.699,111.699v19.344
	c-2.82-1.098-5.882-1.707-9.086-1.707h-1.202l0.106-0.664c4.764-29.773-3.724-60.008-23.289-82.95
	c-19.563-22.944-48.077-36.102-78.228-36.102s-58.665,13.159-78.229,36.101c-19.564,22.943-28.052,53.177-23.289,82.95l0.107,0.665
	h-1.203c-3.203,0-6.266,0.609-9.086,1.707v-19.344C67.34,108.897,117.448,58.789,179.04,58.789z M67.34,256v-42.756
	c0-5.01,4.076-9.086,9.086-9.086h3.768l9.748,60.927H76.426C71.416,265.086,67.34,261.01,67.34,256z M99.167,221.261h20.562
	c-0.004,0.179-0.014,0.355-0.014,0.534c0,13.851,11.268,25.119,25.119,25.119c12.803,0,23.393-9.631,24.922-22.028
	c2.239-2.261,5.63-3.626,9.282-3.626s7.043,1.365,9.282,3.626c1.531,12.397,12.12,22.028,24.923,22.028
	c13.851,0,25.119-11.268,25.119-25.119c0-0.18-0.01-0.356-0.014-0.534h20.562l-8.802,55.014c-1,6.252-4.231,11.928-9.094,15.981
	l-34.32,28.6c-3.163,2.636-7.172,4.087-11.291,4.087h-32.732c-4.118,0-8.128-1.452-11.291-4.087l-34.32-28.6
	c-4.863-4.053-8.094-9.729-9.094-15.981L99.167,221.261z M109.466,361.44c10.606-3.263,17.732-12.911,17.732-24.008v-15.858
	l13.92,11.601c6.039,5.032,13.695,7.804,21.555,7.804h32.732c7.861,0,15.516-2.772,21.555-7.804l13.92-11.602v15.858
	c0,11.097,7.126,20.745,17.732,24.008l2.86,0.88c-15.773,24.566-42.974,39.585-72.434,39.585c-29.459,0-56.661-15.02-72.433-39.584
	L109.466,361.44z M90.793,367.185c18.276,31.382,51.805,50.752,88.247,50.752c36.443,0,69.971-19.37,88.248-50.752l56.272,17.314
	c1.216,0.374,2.38,0.842,3.505,1.371l-32.76,27.302c-7.7,6.416-12.116,15.843-12.116,25.866v14.172H75.891v-14.172
	c0-10.022-4.416-19.451-12.115-25.866l-32.762-27.302c1.123-0.529,2.288-0.997,3.505-1.371L90.793,367.185z M16.033,444.125v-34.596
	c0-4.537,1.157-8.833,3.212-12.596l34.267,28.555c4.033,3.361,6.346,8.299,6.346,13.548v14.174H25.119
	C20.109,453.211,16.033,449.135,16.033,444.125z M342.046,444.125c0,5.01-4.076,9.086-9.086,9.086h-34.739v-14.172
	c0-5.25,2.313-10.188,6.346-13.548l34.267-28.556c2.056,3.763,3.212,8.058,3.212,12.596V444.125z"/>
<path d="M478.33,205.228H358.614c-18.566,0-33.67,15.105-33.67,33.67v30.885l-40.407,40.407c-2.293,2.293-2.979,5.741-1.738,8.736
	c1.241,2.996,4.164,4.949,7.406,4.949h34.739v0.534c0,18.566,15.105,33.67,33.67,33.67H478.33c18.566,0,33.67-15.105,33.67-33.67
	v-85.511C512,220.332,496.895,205.228,478.33,205.228z M495.967,324.409c0,9.725-7.912,17.637-17.637,17.637H358.614
	c-9.725,0-17.637-7.912-17.637-17.637v-8.551c0-4.427-3.589-8.017-8.017-8.017h-23.402l29.071-29.071
	c1.504-1.503,2.348-3.542,2.348-5.668v-34.205c0-9.725,7.912-17.637,17.637-17.637H478.33c9.725,0,17.637,7.912,17.637,17.637
	L495.967,324.409L495.967,324.409z"/>
<path d="M469.779,239.432h-34.205c-6.603,0-12.614,2.564-17.102,6.745c-4.488-4.18-10.5-6.745-17.102-6.745h-34.205
	c-4.427,0-8.017,3.589-8.017,8.017v59.858c0,4.427,3.589,8.017,8.017,8.017h34.205c5.01,0,9.086,4.076,9.086,9.086
	c0,4.427,3.589,8.017,8.017,8.017c4.427,0,8.017-3.589,8.017-8.017c0-5.01,4.076-9.086,9.086-9.086h34.205
	c4.427,0,8.017-3.589,8.017-8.017v-59.858C477.795,243.021,474.206,239.432,469.779,239.432z M410.455,300.99
	c-2.819-1.098-5.883-1.7-9.086-1.7h-26.188v-43.825h26.188c5.01,0,9.086,4.076,9.086,9.086V300.99z M461.762,299.29h-26.188
	c-3.202,0-6.267,0.602-9.086,1.7v-36.439c0-5.01,4.076-9.086,9.086-9.086h26.188V299.29z"/>
<g>
</g>
<g>
</g>
<g>
</g>
<g>
</g>
<g>
</g>
<g>
</g>
<g>
</g>
<g>
</g>
<g>
</g>
<g>
</g>
<g>
</g>
<g>
</g>
<g>
</g>
<g>
</g>
<g>
</g>
</svg>
