<?xml version="1.0" encoding="iso-8859-1"?>
<!-- Generator: Adobe Illustrator 19.0.0, SVG Export Plug-In . SVG Version: 6.00 Build 0)  -->
<svg version="1.1" id="Layer_1" xmlns="http://www.w3.org/2000/svg" xmlns:xlink="http://www.w3.org/1999/xlink" x="0px" y="0px"
	 viewBox="0 0 512 512" style="enable-background:new 0 0 512 512;" xml:space="preserve">
<path style="fill:#7F8499;" d="M345.787,435.574H55.048c-9.446,0-17.102-7.656-17.102-17.102V33.67
	c0-9.446,7.656-17.102,17.102-17.102h290.739c9.446,0,17.102,7.656,17.102,17.102v384.802
	C362.889,427.917,355.232,435.574,345.787,435.574z"/>
<g>
	<path style="fill:#FFDC64;" d="M157.662,110.63l-25.653-17.102l-25.653,17.102V16.568c0-4.722,3.829-8.551,8.551-8.551h34.205
		c4.722,0,8.551,3.829,8.551,8.551V110.63z"/>
	<polygon style="fill:#FFDC64;" points="217.52,180.287 229.821,205.21 257.324,209.207 237.423,228.606 242.12,256 217.52,243.066 
		192.919,256 197.618,228.606 177.715,209.207 205.22,205.21 	"/>
	<polygon style="fill:#FFDC64;" points="297.431,180.287 309.731,205.21 337.236,209.207 317.333,228.606 322.032,256 
		297.431,243.066 272.831,256 277.529,228.606 257.627,209.207 285.131,205.21 	"/>
	<polygon style="fill:#FFDC64;" points="137.608,180.287 149.909,205.21 177.413,209.207 157.511,228.606 162.209,256 
		137.608,243.066 113.008,256 117.707,228.606 97.804,209.207 125.309,205.21 	"/>
</g>
<path style="fill:#707487;" d="M72.15,435.574H55.048c-9.446,0-17.102-7.656-17.102-17.102V33.67
	c0-9.446,7.656-17.102,17.102-17.102H72.15V435.574z"/>
<path style="fill:#FFC850;" d="M114.906,8.017c-4.722,0-8.551,3.829-8.551,8.551v94.063l25.653-17.102V8.017H114.906z"/>
<path style="fill:#707487;" d="M226.071,392.818c0,14.945,2.479,29.293,6.908,42.756h112.808c9.445,0,17.102-7.658,17.102-17.102
	V256C287.327,256,226.071,317.256,226.071,392.818z"/>
<circle style="fill:#FFDC64;" cx="362.889" cy="392.818" r="111.165"/>
<path style="fill:#FFC850;" d="M390.681,485.456c-61.395,0-111.165-49.771-111.165-111.165c0-32.59,14.109-61.81,36.451-82.142
	c-37.913,17.704-64.243,56.065-64.243,100.669c0,61.394,49.77,111.165,111.165,111.165c28.806,0,54.967-11.05,74.715-29.024
	C423.332,481.625,407.472,485.456,390.681,485.456z"/>
<path style="fill:#FFFFFF;" d="M401.427,371.374h-37.318c10.951-9.291,17.2-21.637,19.546-30.219
	c1.666-6.097-0.917-12.882-6.658-15.528c-7.464-3.44-15.95,0.733-17.979,8.344c-0.668,2.514-7.206,24.576-30.334,24.576l0,0
	c-9.446,0-17.102,7.656-17.102,17.102v55.582c0,9.446,7.656,17.102,17.102,17.102h56.382c12.024,0,22.434-8.351,25.042-20.089
	l8.013-36.059C420.496,381.506,412.368,371.374,401.427,371.374z"/>
<path d="M370.906,273.913V33.67c0-13.851-11.268-25.119-25.119-25.119H163.599C160.77,3.458,155.339,0,149.111,0h-34.205
	c-6.228,0-11.659,3.458-14.489,8.551H55.048c-13.851,0-25.119,11.268-25.119,25.119v384.802c0,13.851,11.268,25.119,25.119,25.119
	H255.08C274.18,483.984,315.321,512,362.889,512c65.717,0,119.182-53.465,119.182-119.182
	C482.071,329.795,432.899,278.05,370.906,273.913z M114.906,16.033h34.205c0.295,0,0.534,0.239,0.534,0.534v79.083l-13.19-8.794
	c-1.347-0.898-2.897-1.347-4.447-1.347c-1.55,0-3.1,0.449-4.447,1.347l-13.19,8.794V16.568
	C114.372,16.273,114.611,16.033,114.906,16.033z M45.962,418.472V33.67c0-5.01,4.076-9.086,9.086-9.086h9.086v402.973h-9.086
	C50.038,427.557,45.962,423.482,45.962,418.472z M80.167,427.557V24.585h18.171v86.046c0,2.957,1.627,5.674,4.234,7.069
	c2.607,1.395,5.77,1.242,8.229-0.399l21.207-14.138l21.207,14.138c1.341,0.895,2.892,1.347,4.448,1.347
	c1.297,0,2.597-0.314,3.783-0.948c2.606-1.395,4.234-4.112,4.234-7.069V24.585h180.109c5.01,0,9.086,4.076,9.086,9.086v240.242
	c-61.993,4.138-111.165,55.883-111.165,118.906c0,12.08,1.813,23.743,5.169,34.739H80.167z M362.889,495.967
	c-56.876,0-103.148-46.272-103.148-103.148S306.014,289.67,362.889,289.67s103.148,46.272,103.148,103.148
	S419.765,495.967,362.889,495.967z"/>
<path d="M401.427,363.358h-19.506c6.013-8.891,8.622-16.995,9.467-20.088c2.745-10.043-2-20.758-11.036-24.922
	c-5.673-2.615-12.146-2.6-17.762,0.04c-5.604,2.634-9.729,7.561-11.318,13.526c-0.149,0.56-1.562,5.607-5.286,10.318
	c-4.416,5.586-10.075,8.301-17.301,8.301c-13.851,0-25.119,11.268-25.119,25.119v55.582c0,13.851,11.268,25.119,25.119,25.119
	h56.382c15.902,0,29.418-10.842,32.868-26.366l8.014-36.06c1.662-7.477-0.134-15.191-4.927-21.166
	C416.228,366.784,409.087,363.358,401.427,363.358z M410.297,390.448l-8.013,36.06c-1.808,8.131-8.887,13.81-17.217,13.81h-56.382
	c-5.01,0-9.086-4.076-9.086-9.086V375.65c0-5.01,4.076-9.086,9.086-9.086c29.126,0,37.251-27.409,38.08-30.529
	c0.367-1.378,1.331-2.522,2.643-3.138c0.457-0.215,1.193-0.47,2.101-0.47c0.638,0,1.361,0.126,2.132,0.482
	c1.971,0.909,2.973,3.602,2.281,6.133c-2.03,7.425-7.561,18.212-16.999,26.22c-2.563,2.175-3.497,5.719-2.339,8.875
	c1.158,3.156,4.163,5.255,7.526,5.255h37.318c2.771,0,5.353,1.24,7.087,3.4C410.248,384.952,410.898,387.742,410.297,390.448z"/>
<path d="M250.022,254.645l-3.986-23.239l11.439-11.151l11.439,11.151l-3.986,23.239c-0.515,3.008,0.72,6.048,3.19,7.84
	c1.397,1.015,3.051,1.532,4.713,1.532c1.275,0,2.557-0.305,3.729-0.92l20.869-10.972l20.87,10.972
	c2.702,1.421,5.975,1.184,8.442-0.61c2.469-1.794,3.705-4.832,3.19-7.84l-3.986-23.239l16.884-16.458
	c2.185-2.13,2.972-5.316,2.029-8.218s-3.451-5.017-6.471-5.456l-23.334-3.391l-10.436-21.144c-1.351-2.736-4.138-4.469-7.189-4.469
	c-3.052,0-5.838,1.733-7.189,4.469l-10.435,21.144l-22.331,3.245l-22.332-3.245l-10.435-21.144
	c-1.351-2.736-4.138-4.469-7.189-4.469c-3.052,0-5.838,1.733-7.189,4.469l-10.435,21.144l-22.332,3.245l-22.332-3.245
	l-10.435-21.144c-1.351-2.736-4.138-4.469-7.189-4.469c-3.051,0-5.838,1.733-7.189,4.469l-10.436,21.144l-23.334,3.391
	c-3.02,0.438-5.528,2.554-6.471,5.456c-0.943,2.902-0.156,6.087,2.029,8.218l16.884,16.458l-3.986,23.239
	c-0.515,3.008,0.72,6.048,3.19,7.84c2.468,1.795,5.741,2.031,8.442,0.61l20.87-10.972l20.869,10.972
	c1.174,0.617,2.454,0.92,3.729,0.92c1.662,0,3.317-0.516,4.713-1.532c2.469-1.794,3.705-4.832,3.19-7.84l-3.986-23.239
	l11.439-11.151l11.439,11.151l-3.986,23.239c-0.515,3.008,0.72,6.048,3.19,7.84c2.468,1.795,5.741,2.031,8.442,0.61l20.87-10.972
	l20.87,10.972c1.174,0.617,2.454,0.92,3.729,0.92c1.662,0,3.317-0.516,4.713-1.532C249.301,260.692,250.538,257.653,250.022,254.645
	z M286.284,213.144c2.611-0.379,4.869-2.019,6.036-4.386l5.111-10.357l5.111,10.357c1.168,2.365,3.425,4.006,6.036,4.386
	l11.43,1.661l-8.27,8.062c-1.89,1.842-2.752,4.496-2.306,7.096l1.953,11.383l-10.223-5.374c-1.168-0.614-2.45-0.92-3.73-0.92
	c-1.281,0-2.562,0.307-3.73,0.92l-10.222,5.374l1.953-11.383c0.446-2.601-0.416-5.255-2.306-7.096l-8.27-8.062L286.284,213.144z
	 M151.915,222.866c-1.89,1.842-2.752,4.496-2.306,7.096l1.953,11.383l-10.222-5.374c-2.337-1.227-5.125-1.227-7.461,0l-10.223,5.374
	l1.953-11.383c0.446-2.601-0.416-5.255-2.306-7.096l-8.27-8.062l11.43-1.661c2.611-0.379,4.868-2.019,6.036-4.386l5.111-10.357
	l5.111,10.357c1.167,2.365,3.425,4.006,6.036,4.386l11.43,1.661L151.915,222.866z M231.827,222.866
	c-1.89,1.842-2.752,4.496-2.306,7.096l1.953,11.383l-10.223-5.374c-1.168-0.614-2.45-0.92-3.73-0.92s-2.562,0.307-3.73,0.92
	l-10.223,5.374l1.953-11.383c0.446-2.601-0.416-5.255-2.306-7.096l-8.271-8.062l11.43-1.661c2.611-0.379,4.869-2.019,6.036-4.386
	l5.111-10.357l5.111,10.357c1.167,2.365,3.425,4.006,6.036,4.386l11.43,1.661L231.827,222.866z"/>
<g>
</g>
<g>
</g>
<g>
</g>
<g>
</g>
<g>
</g>
<g>
</g>
<g>
</g>
<g>
</g>
<g>
</g>
<g>
</g>
<g>
</g>
<g>
</g>
<g>
</g>
<g>
</g>
<g>
</g>
</svg>
