<?xml version="1.0" encoding="iso-8859-1"?>
<!-- Generator: Adobe Illustrator 19.0.0, SVG Export Plug-In . SVG Version: 6.00 Build 0)  -->
<svg version="1.1" id="Layer_1" xmlns="http://www.w3.org/2000/svg" xmlns:xlink="http://www.w3.org/1999/xlink" x="0px" y="0px"
	 viewBox="0 0 512 512" style="enable-background:new 0 0 512 512;" xml:space="preserve">
<path style="fill:#E4EAF8;" d="M486.881,465.503H25.119c-9.446,0-17.102-7.656-17.102-17.102V63.599
	c0-9.446,7.656-17.102,17.102-17.102h461.762c9.446,0,17.102,7.656,17.102,17.102v384.802
	C503.983,457.846,496.326,465.503,486.881,465.503z"/>
<path style="fill:#7F8499;" d="M298.756,465.503H59.324V157.662c0-4.722,3.829-8.551,8.551-8.551h222.33
	c4.722,0,8.551,3.829,8.551,8.551V465.503z"/>
<path style="fill:#D5DCED;" d="M486.881,46.497H50.772v42.756h453.211V63.599C503.983,54.153,496.326,46.497,486.881,46.497z"/>
<rect x="375.716" y="46.497" style="fill:#FF5050;" width="42.756" height="42.756"/>
<rect x="418.472" y="46.497" style="fill:#FFF082;" width="42.756" height="42.756"/>
<path style="fill:#A0FFB4;" d="M503.983,89.253h-42.756V46.497h25.653c9.446,0,17.102,7.656,17.102,17.102V89.253z"/>
<path style="fill:#707487;" d="M67.875,149.111h25.653v316.392H59.324V157.662C59.324,152.939,63.152,149.111,67.875,149.111z"/>
<path style="fill:#FF5050;" d="M170.489,226.071l-21.378-17.102l-21.378,17.102v-76.96c0-4.722,3.829-8.551,8.551-8.551h25.653
	c4.722,0,8.551,3.829,8.551,8.551V226.071z"/>
<path style="fill:#707487;" d="M187.591,345.787c0,61.394,49.77,111.165,111.165,111.165v-222.33
	C237.362,234.622,187.591,284.392,187.591,345.787z"/>
<circle style="fill:#FF5050;" cx="298.756" cy="345.787" r="85.511"/>
<path style="fill:#C84146;" d="M320.134,417.047c-47.227,0-85.511-38.285-85.511-85.512c0-25.069,10.854-47.545,28.039-63.187
	c-29.163,13.619-49.417,43.127-49.417,77.438c0,47.226,38.285,85.511,85.511,85.511c22.158,0,42.282-8.5,57.473-22.326
	C345.25,414.1,333.05,417.047,320.134,417.047z"/>
<path d="M486.881,38.48H25.119C11.268,38.48,0,49.748,0,63.599v384.802c0,13.851,11.268,25.119,25.119,25.119h461.762
	c13.851,0,25.119-11.268,25.119-25.119V63.599C512,49.748,500.732,38.48,486.881,38.48z M495.967,63.599v17.637h-26.722V54.514
	h17.637C491.891,54.514,495.967,58.589,495.967,63.599z M426.489,81.236V54.514h26.722v26.722H426.489z M383.733,81.236V54.514
	h26.722v26.722H383.733z M58.789,81.236V54.514h308.91v26.722H58.789z M25.119,54.514h17.637v26.722H16.033V63.599
	C16.033,58.589,20.109,54.514,25.119,54.514z M119.716,157.127v68.944c0,3.082,1.766,5.891,4.544,7.226
	c2.778,1.335,6.073,0.961,8.481-0.965l16.37-13.096l16.37,13.096c1.449,1.16,3.222,1.757,5.009,1.757
	c1.18,0,2.368-0.261,3.472-0.791c2.778-1.335,4.544-4.144,4.544-7.226v-68.945h111.699c0.295,0,0.534,0.239,0.534,0.534v94.944
	c-21.702,1.851-41.312,11.14-56.262,25.306h-89.642c-4.427,0-8.017,3.589-8.017,8.017c0,4.427,3.589,8.017,8.017,8.017h76.114
	c-3.781,5.654-6.96,11.742-9.449,18.171h-83.767c-4.427,0-8.017,3.589-8.017,8.017c0,4.427,3.589,8.017,8.017,8.017h79.17
	c-1.095,5.714-1.675,11.608-1.675,17.637c0,48.871,37.678,89.101,85.511,93.181v18.519H101.545V157.127H119.716z M162.472,149.121
	v60.271l-8.353-6.683c-1.464-1.171-3.236-1.757-5.008-1.757c-1.772,0-3.543,0.586-5.008,1.757l-8.353,6.683v-60.281
	c0-0.295,0.239-0.534,0.534-0.534h25.653c0.294,0,0.533,0.238,0.534,0.532v0.002V149.121z M298.756,423.282
	c-42.731,0-77.495-34.764-77.495-77.495s34.764-77.495,77.495-77.495s77.495,34.764,77.495,77.495S341.487,423.282,298.756,423.282z
	 M85.511,457.486H67.34V157.662c0-0.295,0.239-0.534,0.534-0.534h17.637V457.486z M486.881,457.486H306.772v-18.519
	c47.833-4.08,85.511-44.31,85.511-93.181s-37.678-89.101-85.511-93.181v-94.944c0-9.136-7.432-16.568-16.568-16.568H176.426
	c-2.829-5.093-8.26-8.551-14.489-8.551h-25.653c-6.228,0-11.659,3.458-14.489,8.551h-53.92c-9.136,0-16.568,7.432-16.568,16.568
	v299.825H25.119c-5.01,0-9.086-4.076-9.086-9.086V97.269h479.933v351.132C495.967,453.411,491.891,457.486,486.881,457.486z"/>
<path d="M338.629,305.914c-3.131-3.131-8.207-3.131-11.337,0l-68.409,68.409c-3.131,3.131-3.131,8.207,0,11.337
	c1.565,1.565,3.617,2.348,5.668,2.348c2.051,0,4.103-0.782,5.668-2.348l68.409-68.409
	C341.759,314.121,341.759,309.044,338.629,305.914z"/>
<path d="M289.67,315.858c0-11.493-9.351-20.843-20.843-20.843c-11.493,0-20.843,9.351-20.843,20.843
	c0,11.493,9.351,20.843,20.843,20.843C280.319,336.701,289.67,327.351,289.67,315.858z M264.017,315.858
	c0-2.652,2.158-4.81,4.81-4.81c2.652,0,4.81,2.158,4.81,4.81c0,2.652-2.158,4.81-4.81,4.81
	C266.175,320.668,264.017,318.51,264.017,315.858z"/>
<path d="M328.685,354.873c-11.493,0-20.843,9.351-20.843,20.843c0,11.493,9.351,20.843,20.843,20.843
	c11.493,0,20.843-9.351,20.843-20.843C349.528,364.223,340.178,354.873,328.685,354.873z M328.685,380.526
	c-2.652,0-4.81-2.158-4.81-4.81c0-2.652,2.158-4.81,4.81-4.81c2.652,0,4.81,2.158,4.81,4.81
	C333.495,378.368,331.337,380.526,328.685,380.526z"/>
<path d="M341.511,148.576h85.512c4.427,0,8.017-3.589,8.017-8.017c0-4.427-3.589-8.017-8.017-8.017h-85.512
	c-4.427,0-8.017,3.589-8.017,8.017C333.495,144.987,337.084,148.576,341.511,148.576z"/>
<path d="M452.676,166.747H341.511c-4.427,0-8.017,3.589-8.017,8.017s3.589,8.017,8.017,8.017h111.165
	c4.427,0,8.017-3.589,8.017-8.017S457.104,166.747,452.676,166.747z"/>
<path d="M358.614,218.054h-17.102c-4.427,0-8.017,3.589-8.017,8.017s3.589,8.017,8.017,8.017h17.102
	c4.427,0,8.017-3.589,8.017-8.017S363.041,218.054,358.614,218.054z"/>
<path d="M452.676,286.463h-42.756c-4.427,0-8.017,3.589-8.017,8.017c0,4.427,3.589,8.017,8.017,8.017h42.756
	c4.427,0,8.017-3.589,8.017-8.017C460.693,290.053,457.104,286.463,452.676,286.463z"/>
<path d="M452.676,218.054h-59.858c-4.427,0-8.017,3.589-8.017,8.017s3.589,8.017,8.017,8.017h59.858
	c4.427,0,8.017-3.589,8.017-8.017S457.104,218.054,452.676,218.054z"/>
<path d="M452.676,252.259h-76.96c-4.427,0-8.017,3.589-8.017,8.017c0,4.427,3.589,8.017,8.017,8.017h76.96
	c4.427,0,8.017-3.589,8.017-8.017C460.693,255.848,457.104,252.259,452.676,252.259z"/>
<g>
</g>
<g>
</g>
<g>
</g>
<g>
</g>
<g>
</g>
<g>
</g>
<g>
</g>
<g>
</g>
<g>
</g>
<g>
</g>
<g>
</g>
<g>
</g>
<g>
</g>
<g>
</g>
<g>
</g>
</svg>
