<?xml version="1.0" encoding="iso-8859-1"?>
<!-- Generator: Adobe Illustrator 19.0.0, SVG Export Plug-In . SVG Version: 6.00 Build 0)  -->
<svg version="1.1" id="Layer_1" xmlns="http://www.w3.org/2000/svg" xmlns:xlink="http://www.w3.org/1999/xlink" x="0px" y="0px"
	 viewBox="0 0 512 512" style="enable-background:new 0 0 512 512;" xml:space="preserve">
<path style="fill:#E4EAF8;" d="M367.165,371.441H25.119c-9.446,0-17.102-7.656-17.102-17.102V63.599
	c0-9.446,7.656-17.102,17.102-17.102h342.046c9.446,0,17.102,7.656,17.102,17.102v290.739
	C384.267,363.783,376.61,371.441,367.165,371.441z"/>
<path style="fill:#D5DCED;" d="M170.489,371.441h196.676c9.446,0,17.102-7.656,17.102-17.102V243.173H213.244
	c-23.613,0-42.756,19.143-42.756,42.756V371.441z"/>
<rect x="42.221" y="114.906" style="fill:#0096DC;" width="213.779" height="153.921"/>
<path style="fill:#D5DCED;" d="M367.165,46.497H42.221v34.205h342.046V63.599C384.267,54.154,376.61,46.497,367.165,46.497z"/>
<rect x="290.205" y="114.906" style="fill:#FFDC64;" width="59.858" height="42.756"/>
<g>
	<rect x="290.205" y="191.866" style="fill:#00C3FF;" width="59.858" height="42.756"/>
	<path style="fill:#00C3FF;" d="M273.102,268.827l-51.307-51.307v51.307l0,0c-14.168,0-25.653,11.485-25.653,25.653v145.37
		c0,14.168,11.485,25.653,25.653,25.653H478.33c14.168,0,25.653-11.485,25.653-25.653V294.48c0-14.168-11.485-25.653-25.653-25.653
		H273.102z"/>
</g>
<path style="fill:#F0C087;" d="M187.591,268.827V249.85c0-7.848-5.341-14.689-12.954-16.591l-14.773-3.693
	c-3.806-0.951-6.477-4.372-6.477-8.296v-6.122c5.09-2.962,8.551-8.416,8.551-14.73v-51.307h-34.205
	c-9.446,0-17.102,7.656-17.102,17.102v34.205c0,6.314,3.461,11.767,8.551,14.73v6.122c0,3.924-2.67,7.344-6.477,8.296l-14.773,3.693
	c-7.614,1.904-12.954,8.744-12.954,16.591v18.977"/>
<path style="fill:#694B4B;" d="M161.937,149.111h-34.205c-9.446,0-17.102,7.656-17.102,17.102v17.102c0,0,25.653,0,51.307-8.551
	V149.111z"/>
<rect x="315.858" y="46.497" style="fill:#FFF082;" width="34.205" height="34.205"/>
<rect x="281.653" y="46.497" style="fill:#FF5050;" width="34.205" height="34.205"/>
<path style="fill:#A0FFB4;" d="M384.267,80.701h-34.205V46.497h17.102c9.446,0,17.102,7.656,17.102,17.102V80.701z"/>
<g>
	<path style="fill:#5B5D6E;" d="M174.636,233.258l-11.837-2.959c-6.242,7.807-15.738,12.874-26.516,12.874
		c-10.778,0-20.273-5.068-26.516-12.874l-11.837,2.959c-7.614,1.904-12.955,8.745-12.955,16.591v18.977h102.614V249.85
		C187.591,242.002,182.25,235.161,174.636,233.258z"/>
	<path style="fill:#5B5D6E;" d="M290.167,353.143v51.307c0,4.722,3.829,8.551,8.551,8.551h102.614c4.722,0,8.551-3.829,8.551-8.551
		v-51.307H290.167z"/>
</g>
<path style="fill:#464655;" d="M290.167,388.543l46.638,12.437c4.311,1.149,8.759,1.733,13.22,1.733
	c4.462,0,8.909-0.583,13.22-1.733l46.638-12.437v-35.4H290.167V388.543z"/>
<path style="fill:#707487;" d="M350.063,311.582l-108.798,31.086c-3.137,0.897-3.137,5.342,0,6.238l108.798,31.084l108.798-31.084
	c3.137-0.897,3.137-5.342,0-6.238L350.063,311.582z"/>
<path d="M290.205,165.678h59.858c4.427,0,8.017-3.589,8.017-8.017v-42.756c0-4.427-3.589-8.017-8.017-8.017h-59.858
	c-4.427,0-8.017,3.589-8.017,8.017v42.756C282.188,162.089,285.777,165.678,290.205,165.678z M298.221,122.923h43.825v26.722
	h-43.825V122.923z"/>
<path d="M290.205,242.639h59.858c4.427,0,8.017-3.589,8.017-8.017v-42.756c0-4.427-3.589-8.017-8.017-8.017h-59.858
	c-4.427,0-8.017,3.589-8.017,8.017v42.756C282.188,239.049,285.777,242.639,290.205,242.639z M298.221,199.883h43.825v26.722
	h-43.825V199.883z"/>
<path d="M161.937,295.015H42.221c-4.427,0-8.017,3.589-8.017,8.017c0,4.427,3.589,8.017,8.017,8.017h119.716
	c4.427,0,8.017-3.589,8.017-8.017C169.954,298.604,166.365,295.015,161.937,295.015z"/>
<path d="M59.324,329.219H42.221c-4.427,0-8.017,3.589-8.017,8.017c0,4.427,3.589,8.017,8.017,8.017h17.102
	c4.427,0,8.017-3.589,8.017-8.017C67.34,332.809,63.751,329.219,59.324,329.219z"/>
<path d="M127.733,329.219H93.528c-4.427,0-8.017,3.589-8.017,8.017c0,4.427,3.589,8.017,8.017,8.017h34.205
	c4.427,0,8.017-3.589,8.017-8.017C135.749,332.809,132.16,329.219,127.733,329.219z"/>
<path d="M478.33,260.81h-86.046V63.599c0-13.851-11.268-25.119-25.119-25.119H25.119C11.268,38.48,0,49.748,0,63.599v290.739
	c0,13.851,11.268,25.119,25.119,25.119h163.006v60.392c0,18.566,15.105,33.67,33.67,33.67H478.33c18.566,0,33.67-15.105,33.67-33.67
	V294.48C512,275.915,496.895,260.81,478.33,260.81z M376.251,63.599v9.086h-18.171V54.514h9.086
	C372.175,54.514,376.251,58.589,376.251,63.599z M323.875,72.685V54.514h18.171v18.171H323.875z M289.67,72.685V54.514h18.171
	v18.171H289.67z M50.238,72.685V54.514h223.399v18.171H50.238z M25.119,54.514h9.086v18.171H16.033v-9.086
	C16.033,58.589,20.109,54.514,25.119,54.514z M25.119,363.424c-5.01,0-9.086-4.076-9.086-9.086V88.718h360.217V260.81h-99.828
	l-12.406-12.406V114.906c0-4.427-3.589-8.017-8.017-8.017H42.221c-4.427,0-8.017,3.589-8.017,8.017v153.921
	c0,4.427,3.589,8.017,8.017,8.017h150.905c-3.169,5.133-5.001,11.174-5.001,17.637v68.944H25.119z M227.464,211.852
	c-2.293-2.294-5.742-2.978-8.736-1.738c-2.996,1.241-4.949,4.164-4.949,7.406v43.29h-18.171v-10.96
	c0-11.547-7.824-21.568-19.026-24.369l-15.178-3.795v-2.482c5.363-4.722,8.551-11.569,8.551-18.787v-51.307
	c0-4.427-3.589-8.017-8.017-8.017h-34.205c-13.851,0-25.119,11.268-25.119,25.119v34.205c0,7.218,3.189,14.064,8.551,18.787v2.482
	l-15.178,3.795c-11.202,2.8-19.026,12.821-19.026,24.369v10.96H50.238V122.923h197.745v109.448L227.464,211.852z M92.994,260.81
	v-10.96c0-4.176,2.829-7.801,6.882-8.814l21.25-5.312c3.569-0.893,6.072-4.099,6.072-7.777v-12.798c0-2.854-1.518-5.493-3.985-6.929
	c-2.859-1.664-4.566-4.581-4.566-7.802v-34.205c0-5.01,4.076-9.086,9.086-9.086h26.189v43.29c0,3.221-1.707,6.138-4.566,7.802
	c-2.467,1.436-3.985,4.075-3.985,6.929v12.798c0,3.678,2.503,6.885,6.072,7.777l21.25,5.312c4.052,1.013,6.882,4.638,6.882,8.814
	v10.96H92.994z M495.967,439.85c0,9.725-7.912,17.637-17.637,17.637H221.795c-9.725,0-17.637-7.912-17.637-17.637V294.48
	c0-9.725,7.912-17.637,17.637-17.637c4.427,0,8.017-3.589,8.017-8.017v-31.953l20.515,20.515c0.002,0.003,0.005,0.005,0.009,0.009
	l17.098,17.098c1.503,1.504,3.542,2.348,5.668,2.348H478.33c9.725,0,17.637,7.912,17.637,17.637V439.85z"/>
<path d="M461.064,334.959l-108.798-31.086c-1.44-0.412-2.965-0.412-4.405,0l-108.798,31.086c-4.885,1.396-8.167,5.746-8.167,10.827
	s3.282,9.432,8.167,10.828l43.126,12.322v36.709c0,9.136,7.432,16.568,16.568,16.568H401.37c9.136,0,16.568-7.432,16.568-16.568
	v-36.709l18.096-5.17l0.075,41.893c0.007,4.423,3.595,8.003,8.017,8.003c0.004,0,0.01,0,0.015,0c4.427-0.007,8.01-3.603,8.003-8.031
	l-0.082-46.443l9.004-2.573c4.885-1.396,8.167-5.747,8.167-10.828C469.23,340.706,465.949,336.355,461.064,334.959z M350.063,319.92
	l90.534,25.867l-90.534,25.866l-90.534-25.866L350.063,319.92z M401.904,405.645c0,0.294-0.239,0.534-0.534,0.534H298.756
	c-0.295,0-0.534-0.24-0.534-0.534v-32.128l49.638,14.182c0.719,0.205,1.461,0.309,2.203,0.309c0.742,0,1.483-0.103,2.203-0.309
	l49.638-14.182V405.645z"/>
<circle cx="444.125" cy="431.299" r="8.017"/>
<g>
</g>
<g>
</g>
<g>
</g>
<g>
</g>
<g>
</g>
<g>
</g>
<g>
</g>
<g>
</g>
<g>
</g>
<g>
</g>
<g>
</g>
<g>
</g>
<g>
</g>
<g>
</g>
<g>
</g>
</svg>
