<?xml version="1.0" encoding="iso-8859-1"?>
<!-- Generator: Adobe Illustrator 19.0.0, SVG Export Plug-In . SVG Version: 6.00 Build 0)  -->
<svg version="1.1" id="Layer_1" xmlns="http://www.w3.org/2000/svg" xmlns:xlink="http://www.w3.org/1999/xlink" x="0px" y="0px"
	 viewBox="0 0 512 512" style="enable-background:new 0 0 512 512;" xml:space="preserve">
<path style="fill:#00AAF0;" d="M375.716,503.983H136.284c-18.891,0-34.205-15.314-34.205-34.205V42.221
	c0-18.891,15.314-34.205,34.205-34.205h239.432c18.891,0,34.205,15.314,34.205,34.205v427.557
	C409.921,488.669,394.607,503.983,375.716,503.983z"/>
<rect x="136.284" y="42.221" style="fill:#464655;" width="239.432" height="376.251"/>
<path style="fill:#0096DC;" d="M273.102,478.33h-34.205c-4.722,0-8.551-3.829-8.551-8.551v-17.102c0-4.722,3.829-8.551,8.551-8.551
	h34.205c4.722,0,8.551,3.829,8.551,8.551v17.102C281.653,474.501,277.825,478.33,273.102,478.33z"/>
<path style="fill:#FFC850;" d="M196.142,350.063H179.04c-4.722,0-8.551,3.829-8.551,8.551v17.102c0,4.722,3.829,8.551,8.551,8.551
	h17.102c4.722,0,8.551-3.829,8.551-8.551v-17.102C204.693,353.891,200.864,350.063,196.142,350.063z"/>
<path style="fill:#AFB9D2;" d="M196.142,281.653H179.04c-4.722,0-8.551,3.829-8.551,8.551v17.102c0,4.722,3.829,8.551,8.551,8.551
	h17.102c4.722,0,8.551-3.829,8.551-8.551v-17.102C204.693,285.482,200.864,281.653,196.142,281.653z"/>
<path style="fill:#D5DCED;" d="M332.96,281.653h-17.102c-4.722,0-8.551,3.829-8.551,8.551v17.102c0,4.722,3.829,8.551,8.551,8.551
	h17.102c4.722,0,8.551-3.829,8.551-8.551v-17.102C341.511,285.482,337.683,281.653,332.96,281.653z"/>
<g>
	<path style="fill:#AFB9D2;" d="M264.551,281.653h-17.102c-4.722,0-8.551,3.829-8.551,8.551v17.102c0,4.722,3.829,8.551,8.551,8.551
		h17.102c4.722,0,8.551-3.829,8.551-8.551v-17.102C273.102,285.482,269.274,281.653,264.551,281.653z"/>
	<path style="fill:#AFB9D2;" d="M196.142,213.244H179.04c-4.722,0-8.551,3.829-8.551,8.551v17.102c0,4.722,3.829,8.551,8.551,8.551
		h17.102c4.722,0,8.551-3.829,8.551-8.551v-17.102C204.693,217.073,200.864,213.244,196.142,213.244z"/>
</g>
<path style="fill:#D5DCED;" d="M332.96,213.244h-17.102c-4.722,0-8.551,3.829-8.551,8.551v17.102c0,4.722,3.829,8.551,8.551,8.551
	h17.102c4.722,0,8.551-3.829,8.551-8.551v-17.102C341.511,217.073,337.683,213.244,332.96,213.244z"/>
<g>
	<path style="fill:#AFB9D2;" d="M264.551,213.244h-17.102c-4.722,0-8.551,3.829-8.551,8.551v17.102c0,4.722,3.829,8.551,8.551,8.551
		h17.102c4.722,0,8.551-3.829,8.551-8.551v-17.102C273.102,217.073,269.274,213.244,264.551,213.244z"/>
	<path style="fill:#AFB9D2;" d="M196.142,144.835H179.04c-4.722,0-8.551,3.829-8.551,8.551v17.102c0,4.722,3.829,8.551,8.551,8.551
		h17.102c4.722,0,8.551-3.829,8.551-8.551v-17.102C204.693,148.664,200.864,144.835,196.142,144.835z"/>
</g>
<path style="fill:#D5DCED;" d="M332.96,144.835h-17.102c-4.722,0-8.551,3.829-8.551,8.551v17.102c0,4.722,3.829,8.551,8.551,8.551
	h17.102c4.722,0,8.551-3.829,8.551-8.551v-17.102C341.511,148.664,337.683,144.835,332.96,144.835z"/>
<path style="fill:#AFB9D2;" d="M264.551,144.835h-17.102c-4.722,0-8.551,3.829-8.551,8.551v17.102c0,4.722,3.829,8.551,8.551,8.551
	h17.102c4.722,0,8.551-3.829,8.551-8.551v-17.102C273.102,148.664,269.274,144.835,264.551,144.835z"/>
<path style="fill:#FFC850;" d="M332.96,350.063h-85.511c-4.722,0-8.551,3.829-8.551,8.551v17.102c0,4.722,3.829,8.551,8.551,8.551
	h85.511c4.722,0,8.551-3.829,8.551-8.551v-17.102C341.511,353.891,337.683,350.063,332.96,350.063z"/>
<path d="M375.716,0H136.284c-23.28,0-42.221,18.941-42.221,42.221v427.557c0,23.28,18.941,42.221,42.221,42.221h239.432
	c23.28,0,42.221-18.941,42.221-42.221V42.221C417.937,18.941,398.997,0,375.716,0z M401.904,469.779
	c0,14.44-11.748,26.188-26.188,26.188H136.284c-14.44,0-26.188-11.748-26.188-26.188V42.221c0-14.44,11.748-26.188,26.188-26.188
	h239.432c14.44,0,26.188,11.748,26.188,26.188V469.779z"/>
<path d="M375.716,34.205H136.284c-4.427,0-8.017,3.589-8.017,8.017v376.251c0,4.427,3.589,8.017,8.017,8.017h239.432
	c4.427,0,8.017-3.589,8.017-8.017V42.221C383.733,37.794,380.143,34.205,375.716,34.205z M367.699,410.455H144.301V50.238h223.399
	V410.455z"/>
<path d="M273.102,436.109h-34.205c-9.136,0-16.568,7.432-16.568,16.568v17.102c0,9.136,7.432,16.568,16.568,16.568h34.205
	c9.136,0,16.568-7.432,16.568-16.568v-17.102C289.67,443.541,282.238,436.109,273.102,436.109z M273.637,469.779
	c0,0.294-0.239,0.534-0.534,0.534h-34.205c-0.295,0-0.534-0.241-0.534-0.534v-17.102c0-0.294,0.239-0.534,0.534-0.534h34.205
	c0.295,0,0.534,0.241,0.534,0.534V469.779z"/>
<path d="M196.142,453.211h-8.551c-4.427,0-8.017,3.589-8.017,8.017s3.589,8.017,8.017,8.017h8.551c4.427,0,8.017-3.589,8.017-8.017
	S200.569,453.211,196.142,453.211z"/>
<path d="M324.409,453.211h-8.551c-4.427,0-8.017,3.589-8.017,8.017s3.589,8.017,8.017,8.017h8.551c4.427,0,8.017-3.589,8.017-8.017
	S328.837,453.211,324.409,453.211z"/>
<path d="M179.04,392.284h17.102c9.136,0,16.568-7.432,16.568-16.568v-17.102c0-9.136-7.432-16.568-16.568-16.568H179.04
	c-9.136,0-16.568,7.432-16.568,16.568v17.102C162.472,384.852,169.904,392.284,179.04,392.284z M178.505,358.614
	c0-0.294,0.239-0.534,0.534-0.534h17.102c0.295,0,0.534,0.241,0.534,0.534v17.102c0,0.294-0.239,0.534-0.534,0.534H179.04
	c-0.295,0-0.534-0.241-0.534-0.534V358.614z"/>
<path d="M179.04,323.875h17.102c9.136,0,16.568-7.432,16.568-16.568v-17.102c0-9.136-7.432-16.568-16.568-16.568H179.04
	c-9.136,0-16.568,7.432-16.568,16.568v17.102C162.472,316.443,169.904,323.875,179.04,323.875z M178.505,290.205
	c0-0.294,0.239-0.534,0.534-0.534h17.102c0.295,0,0.534,0.241,0.534,0.534v17.102c0,0.294-0.239,0.534-0.534,0.534H179.04
	c-0.295,0-0.534-0.241-0.534-0.534V290.205z"/>
<path d="M332.96,273.637h-17.102c-9.136,0-16.568,7.432-16.568,16.568v17.102c0,9.136,7.432,16.568,16.568,16.568h17.102
	c9.136,0,16.568-7.432,16.568-16.568v-17.102C349.528,281.069,342.096,273.637,332.96,273.637z M333.495,307.307
	c0,0.294-0.239,0.534-0.534,0.534h-17.102c-0.295,0-0.534-0.241-0.534-0.534v-17.102c0-0.294,0.239-0.534,0.534-0.534h17.102
	c0.295,0,0.534,0.241,0.534,0.534V307.307z"/>
<path d="M247.449,323.875h17.102c9.136,0,16.568-7.432,16.568-16.568v-17.102c0-9.136-7.432-16.568-16.568-16.568h-17.102
	c-9.136,0-16.568,7.432-16.568,16.568v17.102C230.881,316.443,238.313,323.875,247.449,323.875z M246.914,290.205
	c0-0.294,0.239-0.534,0.534-0.534h17.102c0.295,0,0.534,0.241,0.534,0.534v17.102c0,0.294-0.239,0.534-0.534,0.534h-17.102
	c-0.295,0-0.534-0.241-0.534-0.534V290.205z"/>
<path d="M179.04,255.466h17.102c9.136,0,16.568-7.432,16.568-16.568v-17.102c0-9.136-7.432-16.568-16.568-16.568H179.04
	c-9.136,0-16.568,7.432-16.568,16.568v17.102C162.472,248.034,169.904,255.466,179.04,255.466z M178.505,221.795
	c0-0.294,0.239-0.534,0.534-0.534h17.102c0.295,0,0.534,0.241,0.534,0.534v17.102c0,0.294-0.239,0.534-0.534,0.534H179.04
	c-0.295,0-0.534-0.241-0.534-0.534V221.795z"/>
<path d="M332.96,205.228h-17.102c-9.136,0-16.568,7.432-16.568,16.568v17.102c0,9.136,7.432,16.568,16.568,16.568h17.102
	c9.136,0,16.568-7.432,16.568-16.568v-17.102C349.528,212.66,342.096,205.228,332.96,205.228z M333.495,238.898
	c0,0.294-0.239,0.534-0.534,0.534h-17.102c-0.295,0-0.534-0.241-0.534-0.534v-17.102c0-0.294,0.239-0.534,0.534-0.534h17.102
	c0.295,0,0.534,0.241,0.534,0.534V238.898z"/>
<path d="M247.449,255.466h17.102c9.136,0,16.568-7.432,16.568-16.568v-17.102c0-9.136-7.432-16.568-16.568-16.568h-17.102
	c-9.136,0-16.568,7.432-16.568,16.568v17.102C230.881,248.034,238.313,255.466,247.449,255.466z M246.914,221.795
	c0-0.294,0.239-0.534,0.534-0.534h17.102c0.295,0,0.534,0.241,0.534,0.534v17.102c0,0.294-0.239,0.534-0.534,0.534h-17.102
	c-0.295,0-0.534-0.241-0.534-0.534V221.795z"/>
<path d="M179.04,187.056h17.102c9.136,0,16.568-7.432,16.568-16.568v-17.102c0-9.136-7.432-16.568-16.568-16.568H179.04
	c-9.136,0-16.568,7.432-16.568,16.568v17.102C162.472,179.624,169.904,187.056,179.04,187.056z M178.505,153.386
	c0-0.294,0.239-0.534,0.534-0.534h17.102c0.295,0,0.534,0.241,0.534,0.534v17.102c0,0.294-0.239,0.534-0.534,0.534H179.04
	c-0.295,0-0.534-0.241-0.534-0.534V153.386z"/>
<path d="M299.29,153.386v17.102c0,9.136,7.432,16.568,16.568,16.568h17.102c9.136,0,16.568-7.432,16.568-16.568v-17.102
	c0-9.136-7.432-16.568-16.568-16.568h-17.102C306.722,136.818,299.29,144.25,299.29,153.386z M315.324,153.386
	c0-0.294,0.239-0.534,0.534-0.534h17.102c0.295,0,0.534,0.241,0.534,0.534v17.102c0,0.294-0.239,0.534-0.534,0.534h-17.102
	c-0.295,0-0.534-0.241-0.534-0.534V153.386z"/>
<path d="M247.449,187.056h17.102c9.136,0,16.568-7.432,16.568-16.568v-17.102c0-9.136-7.432-16.568-16.568-16.568h-17.102
	c-9.136,0-16.568,7.432-16.568,16.568v17.102C230.881,179.624,238.313,187.056,247.449,187.056z M246.914,153.386
	c0-0.294,0.239-0.534,0.534-0.534h17.102c0.295,0,0.534,0.241,0.534,0.534v17.102c0,0.294-0.239,0.534-0.534,0.534h-17.102
	c-0.295,0-0.534-0.241-0.534-0.534V153.386z"/>
<path d="M247.449,392.284h85.511c9.136,0,16.568-7.432,16.568-16.568v-17.102c0-9.136-7.432-16.568-16.568-16.568h-85.511
	c-9.136,0-16.568,7.432-16.568,16.568v17.102C230.881,384.852,238.313,392.284,247.449,392.284z M246.914,358.614
	c0-0.294,0.239-0.534,0.534-0.534h85.511c0.295,0,0.534,0.241,0.534,0.534v17.102c0,0.294-0.239,0.534-0.534,0.534h-85.511
	c-0.295,0-0.534-0.241-0.534-0.534V358.614z"/>
<path d="M332.96,101.545h8.551c4.427,0,8.017-3.589,8.017-8.017c0-4.427-3.589-8.017-8.017-8.017h-8.551
	c-4.427,0-8.017,3.589-8.017,8.017C324.944,97.956,328.533,101.545,332.96,101.545z"/>
<path d="M247.449,101.545H256c4.427,0,8.017-3.589,8.017-8.017c0-4.427-3.589-8.017-8.017-8.017h-8.551
	c-4.427,0-8.017,3.589-8.017,8.017C239.432,97.956,243.021,101.545,247.449,101.545z"/>
<path d="M290.205,101.545h8.551c4.427,0,8.017-3.589,8.017-8.017c0-4.427-3.589-8.017-8.017-8.017h-8.551
	c-4.427,0-8.017,3.589-8.017,8.017C282.188,97.956,285.777,101.545,290.205,101.545z"/>
<g>
</g>
<g>
</g>
<g>
</g>
<g>
</g>
<g>
</g>
<g>
</g>
<g>
</g>
<g>
</g>
<g>
</g>
<g>
</g>
<g>
</g>
<g>
</g>
<g>
</g>
<g>
</g>
<g>
</g>
</svg>
