<?xml version="1.0" encoding="iso-8859-1"?>
<!-- Generator: Adobe Illustrator 19.0.0, SVG Export Plug-In . SVG Version: 6.00 Build 0)  -->
<svg version="1.1" id="Layer_1" xmlns="http://www.w3.org/2000/svg" xmlns:xlink="http://www.w3.org/1999/xlink" x="0px" y="0px"
	 viewBox="0 0 512 512" style="enable-background:new 0 0 512 512;" xml:space="preserve">
<path style="fill:#959CB5;" d="M435.574,25.119v461.762c0,9.446-7.656,17.102-17.102,17.102H93.528
	c-9.446,0-17.102-7.656-17.102-17.102V25.119c0-9.446,7.656-17.102,17.102-17.102h324.944
	C427.918,8.017,435.574,15.673,435.574,25.119z"/>
<rect x="110.63" y="42.221" style="fill:#F5DCB4;" width="290.739" height="393.353"/>
<path style="fill:#FAEBC8;" d="M367.165,409.921h-222.33c-4.722,0-8.551-3.829-8.551-8.551V76.426c0-4.722,3.829-8.551,8.551-8.551
	h222.33c4.722,0,8.551,3.829,8.551,8.551V401.37C375.716,406.092,371.887,409.921,367.165,409.921z"/>
<circle style="fill:#7F8499;" cx="256" cy="469.779" r="12.827"/>
<polygon style="fill:#FF5050;" points="315.858,345.074 315.858,401.37 332.96,392.818 350.063,401.37 350.063,345.074 "/>
<circle style="fill:#FFDC64;" cx="332.96" cy="324.409" r="25.653"/>
<path d="M418.472,0H93.528C79.677,0,68.409,11.268,68.409,25.119v461.762c0,13.851,11.268,25.119,25.119,25.119h324.944
	c13.851,0,25.119-11.268,25.119-25.119V25.119C443.591,11.268,432.323,0,418.472,0z M427.557,486.881
	c0,5.01-4.076,9.086-9.086,9.086H93.528c-5.01,0-9.086-4.076-9.086-9.086V25.119c0-5.01,4.076-9.086,9.086-9.086h324.944
	c5.01,0,9.086,4.076,9.086,9.086V486.881z"/>
<path d="M401.37,34.205H110.63c-4.427,0-8.017,3.589-8.017,8.017v393.353c0,4.427,3.589,8.017,8.017,8.017H401.37
	c4.427,0,8.017-3.589,8.017-8.017V42.221C409.386,37.794,405.797,34.205,401.37,34.205z M393.353,427.557H118.647V50.238h274.706
	V427.557z"/>
<path d="M256,448.935c-11.493,0-20.843,9.351-20.843,20.843s9.351,20.843,20.843,20.843s20.843-9.351,20.843-20.843
	S267.493,448.935,256,448.935z M256,474.589c-2.652,0-4.81-2.158-4.81-4.81s2.158-4.81,4.81-4.81c2.652,0,4.81,2.158,4.81,4.81
	S258.652,474.589,256,474.589z"/>
<path d="M213.244,101.545h0.534v43.29c0,23.28,18.941,42.221,42.221,42.221c23.281,0,42.221-18.941,42.221-42.221v-43.29h0.534
	c4.427,0,8.017-3.589,8.017-8.017c0-4.427-3.589-8.017-8.017-8.017h-17.102c-4.427,0-8.017,3.589-8.017,8.017
	c0,4.427,3.589,8.017,8.017,8.017h0.534v43.29c0,14.44-11.748,26.188-26.188,26.188c-14.44,0-26.188-11.748-26.188-26.188v-43.29
	h0.534c4.427,0,8.017-3.589,8.017-8.017c0-4.427-3.589-8.017-8.017-8.017h-17.102c-4.427,0-8.017,3.589-8.017,8.017
	C205.228,97.956,208.817,101.545,213.244,101.545z"/>
<path d="M170.489,144.301h17.102c4.427,0,8.017-3.589,8.017-8.017c0-4.427-3.589-8.017-8.017-8.017h-17.102
	c-4.427,0-8.017,3.589-8.017,8.017C162.472,140.711,166.061,144.301,170.489,144.301z"/>
<path d="M324.409,144.301h17.102c4.427,0,8.017-3.589,8.017-8.017c0-4.427-3.589-8.017-8.017-8.017h-17.102
	c-4.427,0-8.017,3.589-8.017,8.017C316.392,140.711,319.982,144.301,324.409,144.301z"/>
<path d="M170.489,229.812h171.023c4.427,0,8.017-3.589,8.017-8.017s-3.589-8.017-8.017-8.017H170.489
	c-4.427,0-8.017,3.589-8.017,8.017S166.061,229.812,170.489,229.812z"/>
<path d="M170.489,264.017h171.023c4.427,0,8.017-3.589,8.017-8.017c0-4.427-3.589-8.017-8.017-8.017H170.489
	c-4.427,0-8.017,3.589-8.017,8.017C162.472,260.427,166.061,264.017,170.489,264.017z"/>
<path d="M273.102,307.841h-85.511c-4.427,0-8.017,3.589-8.017,8.017c0,4.427,3.589,8.017,8.017,8.017h85.511
	c4.427,0,8.017-3.589,8.017-8.017C281.119,311.431,277.53,307.841,273.102,307.841z"/>
<path d="M273.102,342.046h-51.307c-4.427,0-8.017,3.589-8.017,8.017c0,4.427,3.589,8.017,8.017,8.017h51.307
	c4.427,0,8.017-3.589,8.017-8.017C281.119,345.635,277.53,342.046,273.102,342.046z"/>
<path d="M299.29,324.409c0,8.59,3.238,16.434,8.551,22.389v54.571c0,2.778,1.439,5.358,3.802,6.82s5.315,1.594,7.8,0.351
	l13.517-6.759l13.517,6.759c1.132,0.565,2.36,0.847,3.585,0.847c1.467,0,2.928-0.402,4.215-1.197
	c2.363-1.461,3.802-4.042,3.802-6.82v-54.571c5.313-5.955,8.551-13.799,8.551-22.389c0-18.566-15.105-33.67-33.67-33.67
	C314.395,290.739,299.29,305.844,299.29,324.409z M336.545,385.648c-2.256-1.129-4.914-1.129-7.17,0l-5.501,2.75v-31.574
	c2.892,0.812,5.938,1.256,9.086,1.256c3.148,0,6.193-0.444,9.086-1.256v31.574L336.545,385.648z M350.597,324.409
	c0,9.725-7.912,17.637-17.637,17.637c-9.725,0-17.637-7.912-17.637-17.637c0-9.725,7.912-17.637,17.637-17.637
	C342.685,306.772,350.597,314.684,350.597,324.409z"/>
<g>
</g>
<g>
</g>
<g>
</g>
<g>
</g>
<g>
</g>
<g>
</g>
<g>
</g>
<g>
</g>
<g>
</g>
<g>
</g>
<g>
</g>
<g>
</g>
<g>
</g>
<g>
</g>
<g>
</g>
</svg>
