<?xml version="1.0" encoding="iso-8859-1"?>
<!-- Generator: Adobe Illustrator 19.0.0, SVG Export Plug-In . SVG Version: 6.00 Build 0)  -->
<svg version="1.1" id="Layer_1" xmlns="http://www.w3.org/2000/svg" xmlns:xlink="http://www.w3.org/1999/xlink" x="0px" y="0px"
	 viewBox="0 0 512 512" style="enable-background:new 0 0 512 512;" xml:space="preserve">
<path style="fill:#FFC850;" d="M469.779,56.815H42.221c-18.891,0-34.205,15.314-34.205,34.205v256.534
	c0,18.891,15.314,34.205,34.205,34.205h34.205v64.867c0,7.618,9.211,11.434,14.598,6.047l70.914-70.914h307.841
	c18.891,0,34.205-15.314,34.205-34.205V91.02C503.983,72.129,488.669,56.815,469.779,56.815z"/>
<path d="M469.779,48.798H42.221C18.941,48.798,0,67.739,0,91.019v256.534c0,23.28,18.941,42.221,42.221,42.221h26.188v56.85
	c0,6.725,4.015,12.734,10.228,15.307c2.062,0.854,4.22,1.27,6.357,1.27c4.303,0,8.521-1.684,11.698-4.861l68.565-68.565h304.521
	c23.28,0,42.221-18.941,42.221-42.221V91.02C512,67.739,493.059,48.798,469.779,48.798z M495.967,347.554
	c0,14.44-11.748,26.188-26.188,26.188H161.937c-2.126,0-4.165,0.844-5.668,2.348l-70.915,70.914
	c-0.135,0.136-0.252,0.253-0.581,0.115c-0.33-0.137-0.33-0.302-0.33-0.494v-64.867c0-4.427-3.589-8.017-8.017-8.017H42.221
	c-14.44,0-26.188-11.748-26.188-26.188V91.019c0-14.44,11.748-26.188,26.188-26.188h427.557c14.44,0,26.188,11.748,26.188,26.188
	V347.554z"/>
<path d="M181.908,143.313c-3.316-10.5-12.942-17.554-23.953-17.554h-9.137c-11.011,0-20.637,7.055-23.953,17.554l-47.533,150.52
	c-1.334,4.222,1.008,8.725,5.231,10.058c4.223,1.333,8.725-1.009,10.058-5.231l11.732-37.153h98.065l11.732,37.153
	c1.08,3.419,4.238,5.605,7.643,5.605c0.8,0,1.613-0.121,2.416-0.374c4.222-1.334,6.564-5.836,5.231-10.058L181.908,143.313z
	 M109.417,245.475l30.737-97.333c1.199-3.798,4.681-6.349,8.663-6.349h9.137c3.983,0,7.464,2.551,8.663,6.349l30.737,97.333H109.417
	z"/>
<path d="M281.653,202.719c-9.884,0-18.986,3.414-26.188,9.125v-69.518c0-4.427-3.589-8.017-8.017-8.017s-8.017,3.589-8.017,8.017
	v119.716c0,23.281,18.941,42.221,42.221,42.221c27.995,0,50.772-22.777,50.772-50.772S309.649,202.719,281.653,202.719z
	 M281.653,288.23c-14.44,0-26.188-11.748-26.188-26.188V244.94c0-14.44,11.748-26.188,26.188-26.188
	c19.155,0,34.739,15.584,34.739,34.739S300.808,288.23,281.653,288.23z"/>
<path d="M392.799,218.752c11.04,0,21.176,5.073,27.81,13.917c2.657,3.541,7.681,4.258,11.223,1.602
	c3.541-2.657,4.258-7.682,1.602-11.223c-9.692-12.919-24.503-20.328-40.636-20.328c-27.995,0-50.772,22.777-50.772,50.772
	c0,27.995,22.777,50.772,50.772,50.772c16.12,0,30.924-7.4,40.617-20.303c2.659-3.54,1.945-8.565-1.595-11.224
	s-8.566-1.945-11.224,1.595c-6.636,8.833-16.768,13.899-27.797,13.899c-19.155,0-34.739-15.584-34.739-34.739
	S373.645,218.752,392.799,218.752z"/>
<g>
</g>
<g>
</g>
<g>
</g>
<g>
</g>
<g>
</g>
<g>
</g>
<g>
</g>
<g>
</g>
<g>
</g>
<g>
</g>
<g>
</g>
<g>
</g>
<g>
</g>
<g>
</g>
<g>
</g>
</svg>
