<?xml version="1.0" encoding="iso-8859-1"?>
<!-- Generator: Adobe Illustrator 19.0.0, SVG Export Plug-In . SVG Version: 6.00 Build 0)  -->
<svg version="1.1" id="Layer_1" xmlns="http://www.w3.org/2000/svg" xmlns:xlink="http://www.w3.org/1999/xlink" x="0px" y="0px"
	 viewBox="0 0 512 512" style="enable-background:new 0 0 512 512;" xml:space="preserve">
<path style="fill:#D4F5FF;" d="M409.921,196.142c-1.029,0-2.028,0.121-3.051,0.154c-19.196-40.492-60.325-68.563-108.114-68.563
	c-46.599,0-86.883,26.683-106.663,65.55c-10.44-8.866-23.937-14.243-38.707-14.243c-30.352,0-55.367,22.611-59.268,51.898
	c-3.004-0.356-6.042-0.591-9.141-0.591c-42.505,0-76.96,34.456-76.96,76.96c0,42.504,34.456,76.96,76.96,76.96h324.944
	c51.949,0,94.063-42.113,94.063-94.063S461.87,196.142,409.921,196.142z"/>
<path style="fill:#BAEFFF;" d="M84.977,341.511c0-42.505,34.456-76.96,76.96-76.96c3.099,0,6.138,0.235,9.141,0.591
	c3.901-29.287,28.916-51.898,59.268-51.898c7.394,0,14.47,1.347,21.002,3.805c10.611,3.992,22.392,1.06,29.268-7.953
	c21.851-28.646,56.285-47.16,95.099-47.16c2.327,0,4.624,0.122,6.917,0.253c-21.573-21.292-51.16-34.458-83.877-34.458
	c-46.599,0-86.883,26.683-106.663,65.55c-10.44-8.866-23.937-14.243-38.707-14.243c-30.352,0-55.367,22.611-59.268,51.898
	c-3.004-0.356-6.042-0.591-9.141-0.591c-44.2,0-79.696,37.26-76.795,82.082c2.648,40.906,38.44,71.838,79.431,71.838h10.342
	C89.766,372.037,84.977,357.336,84.977,341.511z"/>
<path style="fill:#FFDC64;" d="M264.551,384.267H127.733v-145.37c0-4.722,3.829-8.551,8.551-8.551H256
	c4.722,0,8.551,3.829,8.551,8.551V384.267z"/>
<g>
	<path style="fill:#FF5050;" d="M238.898,273.102l-17.102-8.551l-17.102,8.551v-42.756c0-4.722,3.829-8.551,8.551-8.551h17.102
		c4.722,0,8.551,3.829,8.551,8.551V273.102z"/>
	<path style="fill:#FF5050;" d="M298.756,161.937v188.125h136.818L298.756,161.937z M332.96,269.896l33.428,45.962H332.96V269.896z"
		/>
</g>
<rect x="127.733" y="358.614" style="fill:#FFC850;" width="136.818" height="25.653"/>
<path d="M411.757,188.141c-10.243-19.499-25.322-36.035-43.864-48.04c-20.595-13.336-44.503-20.385-69.137-20.385
	c-45.116,0-86.175,23.429-109.264,61.741c-10.769-6.777-23.291-10.435-36.105-10.435c-31.276,0-58.323,21.601-65.781,51.356
	c-0.893-0.033-1.768-0.049-2.628-0.049C38.121,222.33,0,260.451,0,307.307s38.121,84.977,84.977,84.977h324.944
	c56.287,0,102.079-45.792,102.079-102.079C512,234.533,467.197,189.128,411.757,188.141z M200.478,279.922
	c2.363,1.46,5.316,1.594,7.8,0.351l13.517-6.759l13.517,6.759c1.132,0.565,2.36,0.847,3.585,0.847c1.467,0,2.928-0.402,4.215-1.197
	c2.363-1.46,3.802-4.04,3.802-6.82v-34.739H256c0.295,0,0.534,0.241,0.534,0.534v137.353H135.749V238.898
	c0-0.294,0.239-0.534,0.534-0.534h60.392v34.739C196.676,275.881,198.115,278.462,200.478,279.922z M230.881,230.398v29.732
	l-5.501-2.75c-1.129-0.564-2.357-0.847-3.585-0.847s-2.456,0.282-3.585,0.847l-5.501,2.751v-29.785c0-0.294,0.239-0.534,0.534-0.534
	h17.102c0.291,0,0.527,0.234,0.532,0.524c0,0.003,0,0.006,0,0.011C230.879,230.365,230.881,230.381,230.881,230.398z
	 M409.921,376.251H272.568V238.898c0-9.136-7.432-16.568-16.568-16.568h-11.165c-2.829-5.093-8.26-8.551-14.489-8.551h-17.102
	c-6.228,0-11.66,3.458-14.489,8.551h-62.471c-9.136,0-16.568,7.432-16.568,16.568v137.353H84.977
	c-38.015,0-68.944-30.928-68.944-68.944s30.928-68.944,68.944-68.944c2.476,0,5.156,0.175,8.197,0.536
	c4.355,0.516,8.312-2.559,8.89-6.902c3.414-25.62,25.477-44.941,51.322-44.941c12.247,0,24.151,4.381,33.517,12.336
	c1.868,1.587,4.361,2.233,6.766,1.75c2.405-0.482,4.455-2.038,5.568-4.224c19.202-37.73,57.335-61.169,99.518-61.169
	c21.534,0,42.429,6.159,60.422,17.81c17.519,11.343,31.507,27.309,40.448,46.171c1.366,2.883,4.309,4.687,7.501,4.578
	c0.53-0.017,1.055-0.051,1.58-0.089c0.402-0.028,0.803-0.062,1.212-0.062c47.446,0,86.046,38.6,86.046,86.046
	S457.367,376.251,409.921,376.251z"/>
<path d="M305.239,157.222c-2.043-2.808-5.66-3.983-8.963-2.908c-3.302,1.073-5.538,4.152-5.538,7.623v188.125
	c0,4.427,3.589,8.017,8.017,8.017h136.818c3.015,0,5.775-1.692,7.144-4.379c1.368-2.687,1.113-5.914-0.661-8.352L305.239,157.222z
	 M306.772,342.046v-18.171h0.534c4.427,0,8.017-3.589,8.017-8.017c0-4.427-3.589-8.017-8.017-8.017h-0.534V289.67h0.534
	c4.427,0,8.017-3.589,8.017-8.017c0-4.427-3.589-8.017-8.017-8.017h-0.534v-18.171h0.534c4.427,0,8.017-3.589,8.017-8.017
	s-3.589-8.017-8.017-8.017h-0.534v-18.171h0.534c4.427,0,8.017-3.589,8.017-8.017s-3.589-8.017-8.017-8.017h-0.534V186.59
	l113.059,155.456H306.772z"/>
<path d="M332.96,323.875h33.428c3.015,0,5.775-1.692,7.145-4.379c1.368-2.687,1.113-5.914-0.661-8.352l-33.428-45.962
	c-2.043-2.808-5.66-3.983-8.963-2.908c-3.303,1.074-5.538,4.15-5.538,7.623v45.962C324.944,320.285,328.533,323.875,332.96,323.875z
	 M340.977,294.548l9.667,13.294h-9.667V294.548z"/>
<path d="M171.023,307.307c0,4.427,3.589,8.017,8.017,8.017h34.205c4.427,0,8.017-3.589,8.017-8.017c0-4.427-3.589-8.017-8.017-8.017
	H179.04C174.612,299.29,171.023,302.88,171.023,307.307z"/>
<path d="M153.921,341.511c0,4.427,3.589,8.017,8.017,8.017h68.409c4.427,0,8.017-3.589,8.017-8.017c0-4.427-3.589-8.017-8.017-8.017
	h-68.409C157.51,333.495,153.921,337.084,153.921,341.511z"/>
<g>
</g>
<g>
</g>
<g>
</g>
<g>
</g>
<g>
</g>
<g>
</g>
<g>
</g>
<g>
</g>
<g>
</g>
<g>
</g>
<g>
</g>
<g>
</g>
<g>
</g>
<g>
</g>
<g>
</g>
</svg>
