<?xml version="1.0" encoding="iso-8859-1"?>
<!-- Generator: Adobe Illustrator 19.0.0, SVG Export Plug-In . SVG Version: 6.00 Build 0)  -->
<svg version="1.1" id="Layer_1" xmlns="http://www.w3.org/2000/svg" xmlns:xlink="http://www.w3.org/1999/xlink" x="0px" y="0px"
	 viewBox="0 0 512 512" style="enable-background:new 0 0 512 512;" xml:space="preserve">
<path style="fill:#E4EAF8;" d="M478.33,435.574H33.67c-14.168,0-25.653-11.485-25.653-25.653V102.079
	c0-14.168,11.485-25.653,25.653-25.653h444.66c14.168,0,25.653,11.485,25.653,25.653v307.841
	C503.983,424.089,492.498,435.574,478.33,435.574z"/>
<path style="fill:#707487;" d="M33.67,435.574h94.063V76.426H33.67c-14.168,0-25.653,11.485-25.653,25.653v307.841
	C8.017,424.089,19.502,435.574,33.67,435.574z"/>
<path d="M478.33,68.409H33.67C15.105,68.409,0,83.514,0,102.079v307.841c0,18.566,15.105,33.67,33.67,33.67h444.66
	c18.566,0,33.67-15.105,33.67-33.67V102.079C512,83.514,496.895,68.409,478.33,68.409z M16.033,409.921V102.079
	c0-9.725,7.912-17.637,17.637-17.637h86.046v343.115H33.67C23.945,427.557,16.033,419.645,16.033,409.921z M495.967,409.921
	c0,9.725-7.912,17.637-17.637,17.637h-342.58V84.443h342.58c9.725,0,17.637,7.912,17.637,17.637V409.921z"/>
<path d="M204.159,110.63c0-4.427-3.589-8.017-8.017-8.017h-34.205c-4.427,0-8.017,3.589-8.017,8.017
	c0,4.427,3.589,8.017,8.017,8.017h34.205C200.569,118.647,204.159,115.058,204.159,110.63z"/>
<path d="M42.221,118.647h51.307c4.427,0,8.017-3.589,8.017-8.017c0-4.427-3.589-8.017-8.017-8.017H42.221
	c-4.427,0-8.017,3.589-8.017,8.017C34.205,115.058,37.794,118.647,42.221,118.647z"/>
<path d="M93.528,188.125H42.221c-4.427,0-8.017,3.589-8.017,8.017s3.589,8.017,8.017,8.017h51.307c4.427,0,8.017-3.589,8.017-8.017
	S97.956,188.125,93.528,188.125z"/>
<path d="M93.528,256.534H42.221c-4.427,0-8.017,3.589-8.017,8.017c0,4.427,3.589,8.017,8.017,8.017h51.307
	c4.427,0,8.017-3.589,8.017-8.017C101.545,260.124,97.956,256.534,93.528,256.534z"/>
<path d="M93.528,324.944H42.221c-4.427,0-8.017,3.589-8.017,8.017c0,4.427,3.589,8.017,8.017,8.017h51.307
	c4.427,0,8.017-3.589,8.017-8.017C101.545,328.533,97.956,324.944,93.528,324.944z"/>
<path d="M93.528,222.33H42.221c-4.427,0-8.017,3.589-8.017,8.017s3.589,8.017,8.017,8.017h51.307c4.427,0,8.017-3.589,8.017-8.017
	S97.956,222.33,93.528,222.33z"/>
<path d="M93.528,290.739H42.221c-4.427,0-8.017,3.589-8.017,8.017c0,4.427,3.589,8.017,8.017,8.017h51.307
	c4.427,0,8.017-3.589,8.017-8.017C101.545,294.328,97.956,290.739,93.528,290.739z"/>
<path d="M76.426,376.251H42.221c-4.427,0-8.017,3.589-8.017,8.017c0,4.427,3.589,8.017,8.017,8.017h34.205
	c4.427,0,8.017-3.589,8.017-8.017C84.443,379.84,80.853,376.251,76.426,376.251z"/>
<path d="M42.221,152.852h34.205c4.427,0,8.017-3.589,8.017-8.017c0-4.427-3.589-8.017-8.017-8.017H42.221
	c-4.427,0-8.017,3.589-8.017,8.017C34.205,149.262,37.794,152.852,42.221,152.852z"/>
<path d="M264.551,102.614h-34.205c-4.427,0-8.017,3.589-8.017,8.017c0,4.427,3.589,8.017,8.017,8.017h34.205
	c4.427,0,8.017-3.589,8.017-8.017C272.568,106.203,268.979,102.614,264.551,102.614z"/>
<path d="M298.756,118.647h34.205c4.427,0,8.017-3.589,8.017-8.017c0-4.427-3.589-8.017-8.017-8.017h-34.205
	c-4.427,0-8.017,3.589-8.017,8.017C290.739,115.058,294.328,118.647,298.756,118.647z"/>
<path d="M409.386,110.63c0-4.427-3.589-8.017-8.017-8.017h-34.205c-4.427,0-8.017,3.589-8.017,8.017
	c0,4.427,3.589,8.017,8.017,8.017h34.205C405.797,118.647,409.386,115.058,409.386,110.63z"/>
<path d="M469.779,102.614h-34.205c-4.427,0-8.017,3.589-8.017,8.017c0,4.427,3.589,8.017,8.017,8.017h34.205
	c4.427,0,8.017-3.589,8.017-8.017C477.795,106.203,474.206,102.614,469.779,102.614z"/>
<path d="M213.244,229.812c11.038,0,21.176,5.073,27.81,13.917c2.657,3.541,7.682,4.26,11.223,1.602s4.258-7.682,1.602-11.223
	c-9.693-12.92-24.503-20.329-40.636-20.329c-27.995,0-50.772,22.777-50.772,50.772s22.777,50.772,50.772,50.772
	c16.12,0,30.924-7.4,40.617-20.303c2.659-3.54,1.945-8.565-1.595-11.224c-3.54-2.659-8.566-1.945-11.224,1.595
	c-6.636,8.833-16.768,13.899-27.798,13.899c-19.155,0-34.739-15.584-34.739-34.739S194.09,229.812,213.244,229.812z"/>
<path d="M358.079,247.449c0-18.566-15.105-33.67-33.67-33.67h-42.756c-4.427,0-8.017,3.589-8.017,8.017v85.511
	c0,4.427,3.589,8.017,8.017,8.017c4.427,0,8.017-3.589,8.017-8.017v-26.188h22.18l23.248,30.998c1.576,2.1,3.983,3.207,6.42,3.207
	c1.674,0,3.362-0.523,4.804-1.603c3.541-2.656,4.26-7.682,1.603-11.223l-16.575-22.1
	C346.596,277.188,358.079,263.636,358.079,247.449z M324.409,265.086H289.67v-35.273h34.739c9.725,0,17.637,7.912,17.637,17.637
	S334.134,265.086,324.409,265.086z"/>
<path d="M460.654,220.998c-0.368-3.675-3.198-6.623-6.855-7.14c-3.653-0.518-7.194,1.531-8.565,4.961l-26.762,66.903l-26.762-66.903
	c-1.372-3.429-4.908-5.474-8.565-4.961c-3.657,0.517-6.487,3.465-6.855,7.14l-8.551,85.511c-0.44,4.406,2.774,8.334,7.18,8.775
	c4.401,0.44,8.333-2.774,8.775-7.18l5.293-52.927l22.043,55.107c1.217,3.043,4.164,5.039,7.443,5.039s6.226-1.996,7.443-5.039
	l22.043-55.107l5.293,52.927c0.414,4.134,3.898,7.219,7.968,7.219c0.267,0,0.536-0.013,0.807-0.041
	c4.406-0.44,7.62-4.369,7.18-8.775L460.654,220.998z"/>
<g>
</g>
<g>
</g>
<g>
</g>
<g>
</g>
<g>
</g>
<g>
</g>
<g>
</g>
<g>
</g>
<g>
</g>
<g>
</g>
<g>
</g>
<g>
</g>
<g>
</g>
<g>
</g>
<g>
</g>
</svg>
