<?xml version="1.0" encoding="iso-8859-1"?>
<!-- Generator: Adobe Illustrator 19.0.0, SVG Export Plug-In . SVG Version: 6.00 Build 0)  -->
<svg version="1.1" id="Layer_1" xmlns="http://www.w3.org/2000/svg" xmlns:xlink="http://www.w3.org/1999/xlink" x="0px" y="0px"
	 viewBox="0 0 512.001 512.001" style="enable-background:new 0 0 512.001 512.001;" xml:space="preserve">
<rect x="119.183" y="324.409" style="fill:#C7CFE2;" width="85.511" height="42.756"/>
<path style="fill:#E4EAF8;" d="M298.757,324.414H25.12c-9.446,0-17.102-7.656-17.102-17.102V136.289
	c0-9.446,7.656-17.102,17.102-17.102h273.637c9.446,0,17.102,7.656,17.102,17.102v171.023
	C315.859,316.758,308.203,324.414,298.757,324.414z"/>
<path style="fill:#FFDC64;" d="M298.757,119.187H25.12c-9.446,0-17.102,7.656-17.102,17.102V290.21h307.841V136.289
	C315.859,126.844,308.203,119.187,298.757,119.187z"/>
<path style="fill:#FFFFFF;" d="M42.222,290.21V163.595c0,0,41.638-10.204,76.592-10.204c33.509,0,43.083,10.204,43.083,10.204
	s9.574-10.204,43.083-10.204c34.954,0,76.592,10.204,76.592,10.204V290.21H42.222z"/>
<g>
	<path style="fill:#C7CFE2;" d="M461.229,332.965h-68.409c-9.445,0-17.102,7.656-17.102,17.102v17.102h102.614v-17.102
		C478.331,340.622,470.673,332.965,461.229,332.965z"/>
	<circle style="fill:#C7CFE2;" cx="486.882" cy="213.244" r="17.102"/>
	<polygon style="fill:#C7CFE2;" points="395.032,235.914 273.103,173.845 311.621,135.88 403.067,182.433 	"/>
</g>
<path style="fill:#F5DCB4;" d="M495.433,401.375H16.569c-4.722,0-8.551-3.829-8.551-8.551v-17.102c0-4.722,3.829-8.551,8.551-8.551
	h478.864c4.722,0,8.551,3.829,8.551,8.551v17.102C503.984,397.546,500.156,401.375,495.433,401.375z"/>
<path style="fill:#E4EAF8;" d="M380.155,170.769l11.688-22.836c6.428-12.626,1.403-28.072-11.223-34.5
	c-12.626-6.427-28.072-1.402-34.5,11.223l-11.688,22.837L380.155,170.769z"/>
<path d="M495.433,359.153h-9.086v-9.086c0-13.159-10.174-23.981-23.068-25.028l24.772-86.701c13.31-0.612,23.95-11.631,23.95-25.089
	c0-13.851-11.268-25.119-25.119-25.119c-5.215,0-10.064,1.599-14.083,4.33l-70.24-53.449c0.355-4.379-0.158-8.829-1.558-13.132
	c-2.782-8.552-8.729-15.51-16.744-19.59c-8.015-4.08-17.139-4.794-25.691-2.013c-8.552,2.782-15.51,8.729-19.59,16.744
	l-8.002,15.717l-7.321-3.726c-1.613-12.306-12.159-21.841-24.898-21.841H25.119C11.268,111.171,0,122.439,0,136.29v171.023
	c0,13.851,11.268,25.119,25.119,25.119h86.047v26.722H16.569c-9.136,0-16.568,7.432-16.568,16.568v17.102
	c0,9.136,7.432,16.568,16.568,16.568h478.864c9.136,0,16.568-7.432,16.568-16.568v-17.102
	C512.001,366.585,504.569,359.153,495.433,359.153z M470.314,350.068v9.086h-86.58v-9.086c0-5.01,4.076-9.086,9.086-9.086h59.832
	c0.01,0,0.02,0.002,0.03,0.002c0.009,0,0.017-0.002,0.026-0.002h8.521C466.239,340.982,470.314,345.058,470.314,350.068z
	 M212.711,359.153v-26.722h86.046c13.851,0,25.119-11.268,25.119-25.119v-98.626l67.519,34.371c1.143,0.581,2.389,0.872,3.636,0.872
	c1.259,0,2.518-0.296,3.67-0.889c2.292-1.18,3.876-3.388,4.258-5.937l7.119-47.386c1.061-7.063-2.502-13.986-8.868-17.226
	l-10.225-5.206l6.213-12.207l65.888,50.136c-0.854,2.524-1.324,5.223-1.324,8.032c0,8.564,4.311,16.138,10.875,20.673
	l-26.007,91.026h-53.81c-13.851,0-25.119,11.268-25.119,25.119v9.086h-154.99V359.153z M50.239,282.193V169.998
	c12.657-2.74,42.714-8.59,68.575-8.59c26.758,0,36.212,6.888,37.334,7.791c1.505,1.816,3.374,2.869,5.749,2.869
	s4.245-1.053,5.75-2.87c1.122-0.903,10.577-7.791,37.333-7.791c22.088,0,47.285,4.28,62.041,7.232c-1.512,1.768-2.2,4.11-1.84,6.432
	c0.394,2.546,1.989,4.748,4.285,5.917l4.089,2.081v99.124H50.239z M312.86,145.916c0.164-0.161,0.412-0.2,0.617-0.095l80.461,40.961
	c0.205,0.105,0.32,0.328,0.286,0.556l-5.467,36.387l-102.104-51.978L312.86,145.916z M289.588,191.232l18.255,9.292v81.669h-18.255
	V191.232z M495.968,213.249c0,5.01-4.076,9.086-9.086,9.086s-9.086-4.076-9.086-9.086s4.076-9.086,9.086-9.086
	S495.968,208.239,495.968,213.249z M353.265,128.294c2.138-4.199,5.782-7.312,10.261-8.77c4.48-1.456,9.259-1.083,13.457,1.054
	c4.199,2.138,7.313,5.782,8.77,10.261c1.457,4.48,1.083,9.259-1.054,13.457l-8.001,15.718l-31.435-16.002L353.265,128.294z
	 M25.12,127.203h273.637c3.148,0,5.925,1.61,7.556,4.049c-1.711,0.788-3.31,1.866-4.708,3.245l-20.948,20.647
	c-10.082-2.31-45.006-9.77-75.677-9.77c-23.354,0-36.379,4.67-43.083,8.435c-6.704-3.764-19.73-8.435-43.083-8.435
	c-35.514,0-76.762,10.008-78.5,10.433c-3.586,0.879-6.109,4.094-6.109,7.787v118.598H16.034V136.289
	C16.034,131.279,20.11,127.203,25.12,127.203z M16.034,307.312v-9.086h291.808v9.086c0,5.01-4.076,9.086-9.086,9.086H25.12
	C20.11,316.398,16.034,312.322,16.034,307.312z M127.199,332.431h69.478v26.722h-69.478V332.431z M495.968,392.824
	c0,0.295-0.239,0.534-0.534,0.534H16.569c-0.295,0-0.534-0.239-0.534-0.534v-17.102c0-0.295,0.239-0.534,0.534-0.534h478.864
	c0.295,0,0.534,0.239,0.534,0.534V392.824z"/>
<path d="M248.566,183.311c-16.378-2.476-31.042-3.732-43.586-3.732c-10.484,0-19.859,0.959-27.865,2.851
	c-4.309,1.019-6.977,5.336-5.959,9.645c1.019,4.31,5.337,6.976,9.645,5.959c6.8-1.607,14.936-2.421,24.179-2.421
	c11.745,0,25.603,1.195,41.19,3.551c0.406,0.062,0.809,0.091,1.208,0.091c3.898,0,7.317-2.849,7.916-6.82
	C255.956,188.058,252.944,183.972,248.566,183.311z"/>
<path d="M248.566,251.72c-16.378-2.476-31.042-3.732-43.586-3.732c-10.484,0-19.859,0.959-27.865,2.851
	c-4.309,1.019-6.977,5.336-5.959,9.645c1.019,4.309,5.337,6.977,9.645,5.959c6.8-1.607,14.936-2.421,24.179-2.421
	c11.745,0,25.603,1.195,41.19,3.551c0.406,0.062,0.809,0.091,1.208,0.091c3.898,0,7.317-2.849,7.916-6.82
	C255.956,256.467,252.944,252.382,248.566,251.72z"/>
<path d="M178.951,232.454c0.609,0,1.229-0.069,1.849-0.216c2.411-0.57,5.028-1.045,7.776-1.415c4.388-0.59,7.467-4.625,6.877-9.013
	c-0.59-4.387-4.623-7.469-9.013-6.877c-3.267,0.439-6.404,1.011-9.325,1.701c-4.309,1.018-6.977,5.336-5.96,9.645
	C172.027,229.968,175.318,232.454,178.951,232.454z"/>
<path d="M248.566,217.515c-9.271-1.402-18.102-2.423-26.249-3.036c-4.412-0.325-8.263,2.978-8.596,7.394
	c-0.332,4.415,2.978,8.263,7.394,8.596c7.749,0.583,16.179,1.558,25.055,2.9c0.406,0.062,0.809,0.091,1.208,0.091
	c3.898,0,7.317-2.848,7.916-6.82C255.956,222.262,252.944,218.177,248.566,217.515z"/>
<path d="M146.597,182.43c-8.006-1.892-17.381-2.851-27.865-2.851c-12.545,0-27.209,1.255-43.586,3.732
	c-4.378,0.662-7.39,4.747-6.728,9.125c0.601,3.972,4.018,6.82,7.916,6.82c0.399,0,0.802-0.03,1.208-0.091
	c15.587-2.356,29.445-3.551,41.19-3.551c9.244,0,17.379,0.814,24.179,2.421c4.308,1.017,8.627-1.65,9.645-5.959
	C153.574,187.766,150.906,183.448,146.597,182.43z"/>
<path d="M146.597,250.839c-8.006-1.892-17.381-2.851-27.865-2.851c-12.545,0-27.209,1.255-43.586,3.732
	c-4.378,0.662-7.39,4.747-6.728,9.125c0.601,3.972,4.018,6.82,7.916,6.82c0.399,0,0.802-0.03,1.208-0.091
	c15.587-2.356,29.445-3.551,41.19-3.551c9.244,0,17.379,0.814,24.179,2.421c4.308,1.017,8.627-1.65,9.645-5.959
	C153.574,256.175,150.906,251.857,146.597,250.839z"/>
<path d="M142.911,232.238c0.62,0.146,1.24,0.217,1.85,0.217c3.632,0,6.923-2.486,7.794-6.175c1.019-4.309-1.649-8.627-5.958-9.645
	c-2.915-0.689-6.053-1.261-9.329-1.702c-4.387-0.588-8.424,2.488-9.014,6.877c-0.59,4.388,2.488,8.423,6.877,9.014
	C137.888,231.194,140.506,231.671,142.911,232.238z"/>
<path d="M76.334,233.459c0.399,0,0.802-0.03,1.208-0.091c8.876-1.341,17.305-2.317,25.055-2.9c4.415-0.332,7.725-4.18,7.394-8.596
	c-0.332-4.415-4.17-7.721-8.596-7.394c-8.147,0.614-16.978,1.634-26.249,3.036c-4.378,0.662-7.39,4.747-6.728,9.125
	C69.017,230.611,72.436,233.459,76.334,233.459z"/>
<g>
</g>
<g>
</g>
<g>
</g>
<g>
</g>
<g>
</g>
<g>
</g>
<g>
</g>
<g>
</g>
<g>
</g>
<g>
</g>
<g>
</g>
<g>
</g>
<g>
</g>
<g>
</g>
<g>
</g>
</svg>
