<?xml version="1.0" encoding="iso-8859-1"?>
<!-- Generator: Adobe Illustrator 19.0.0, SVG Export Plug-In . SVG Version: 6.00 Build 0)  -->
<svg version="1.1" id="Layer_1" xmlns="http://www.w3.org/2000/svg" xmlns:xlink="http://www.w3.org/1999/xlink" x="0px" y="0px"
	 viewBox="0 0 512 512" style="enable-background:new 0 0 512 512;" xml:space="preserve">
<path style="fill:#E4EAF8;" d="M102.079,25.119c0-9.446,7.656-17.102,17.102-17.102h256.534l85.511,85.511v393.353
	c0,9.446-7.656,17.102-17.102,17.102H119.182c-9.446,0-17.102-7.656-17.102-17.102V25.119z"/>
<g>
	<path style="fill:#D5DCED;" d="M298.756,469.779H102.079V298.756h196.676c23.613,0,42.756,19.143,42.756,42.756v85.512
		C341.511,450.636,322.369,469.779,298.756,469.779z"/>
	<path style="fill:#D5DCED;" d="M375.716,8.017v68.409c0,9.445,7.658,17.102,17.102,17.102h68.409L375.716,8.017z"/>
</g>
<path style="fill:#00AAF0;" d="M221.795,196.142v42.756c0,4.722,3.829,8.551,8.551,8.551H332.96c4.722,0,8.551-3.829,8.551-8.551
	v-42.756H221.795z"/>
<path style="fill:#0096DC;" d="M221.795,223.532l46.638,12.437c4.311,1.149,8.758,1.733,13.22,1.733s8.909-0.583,13.22-1.733
	l46.638-12.437v-27.39H221.795V223.532z"/>
<g>
	<path style="fill:#00C3FF;" d="M272.84,147.186l-108.747,28.999c-2.924,0.78-2.924,4.931,0,5.71l108.747,28.999
		c5.774,1.54,11.852,1.54,17.626,0l108.747-28.999c2.924-0.78,2.924-4.931,0-5.71l-108.747-28.999
		C284.692,145.645,278.615,145.645,272.84,147.186z"/>
	<path style="fill:#00C3FF;" d="M298.756,444.125H67.875c-9.446,0-17.102-7.656-17.102-17.102v-85.512
		c0-9.446,7.656-17.102,17.102-17.102h230.881c9.446,0,17.102,7.656,17.102,17.102v85.512
		C315.858,436.469,308.202,444.125,298.756,444.125z"/>
</g>
<path d="M401.28,168.438l-117.56-31.35c-1.354-0.361-2.778-0.361-4.131,0l-117.56,31.35c-4.871,1.3-8.144,5.56-8.144,10.601
	s3.273,9.301,8.145,10.601l51.749,13.799v35.457c0,9.136,7.432,16.568,16.568,16.568H332.96c9.136,0,16.568-7.432,16.568-16.568
	v-35.456l18.097-4.826l0.074,48.845c0.006,4.423,3.595,8.005,8.017,8.005c0.004,0,0.009,0,0.013,0
	c4.427-0.006,8.011-3.601,8.005-8.028l-0.08-53.095l17.627-4.7c4.871-1.3,8.144-5.56,8.144-10.601S406.151,169.738,401.28,168.438z
	 M281.653,153.132l97.155,25.908l-97.155,25.907l-97.155-25.907L281.653,153.132z M333.495,238.898c0,0.295-0.239,0.534-0.534,0.534
	H230.347c-0.295,0-0.534-0.239-0.534-0.534v-31.182l49.775,13.274c0.677,0.181,1.371,0.27,2.066,0.27c0.695,0,1.389-0.09,2.066-0.27
	l49.775-13.274V238.898z"/>
<circle cx="375.716" cy="273.102" r="8.017"/>
<path d="M466.896,87.859L381.384,2.347C379.882,0.844,377.842,0,375.716,0H119.182c-13.851,0-25.119,11.268-25.119,25.119v291.273
	H67.875c-13.851,0-25.119,11.268-25.119,25.119v85.512c0,13.851,11.268,25.119,25.119,25.119h26.188v34.739
	c0,13.851,11.268,25.119,25.119,25.119h324.944c13.851,0,25.119-11.268,25.119-25.119V93.528
	C469.244,91.401,468.4,89.363,466.896,87.859z M383.733,27.37l58.141,58.141h-49.056c-5.01,0-9.086-4.076-9.086-9.086V27.37z
	 M58.789,427.023v-85.512c0-5.01,4.076-9.086,9.086-9.086h230.881c5.01,0,9.086,4.076,9.086,9.086v85.512
	c0,5.01-4.076,9.086-9.086,9.086H67.875C62.865,436.109,58.789,432.033,58.789,427.023z M444.125,495.967H119.182
	c-5.01,0-9.086-4.076-9.086-9.086v-34.739h188.66c13.851,0,25.119-11.268,25.119-25.119v-85.512
	c0-13.851-11.268-25.119-25.119-25.119h-188.66V25.119c0-5.01,4.076-9.086,9.086-9.086h248.518v60.392
	c0,13.851,11.268,25.119,25.119,25.119h60.392v385.336C453.211,491.891,449.135,495.967,444.125,495.967z"/>
<path d="M110.63,417.937c18.566,0,33.67-15.105,33.67-33.67c0-18.566-15.105-33.67-33.67-33.67H84.977
	c-4.427,0-8.017,3.589-8.017,8.017v51.307c0,4.427,3.589,8.017,8.017,8.017H110.63z M92.994,366.63h17.637
	c9.725,0,17.637,7.912,17.637,17.637c0,9.725-7.912,17.637-17.637,17.637H92.994V366.63z"/>
<path d="M187.591,417.937c18.566,0,33.67-15.105,33.67-33.67c0-18.566-15.105-33.67-33.67-33.67s-33.67,15.105-33.67,33.67
	C153.921,402.833,169.025,417.937,187.591,417.937z M187.591,366.63c9.725,0,17.637,7.912,17.637,17.637
	c0,9.725-7.912,17.637-17.637,17.637c-9.725,0-17.637-7.912-17.637-17.637C169.954,374.542,177.866,366.63,187.591,366.63z"/>
<path d="M264.551,417.937c9.566,0,18.712-4.091,25.094-11.221c2.953-3.3,2.672-8.367-0.626-11.32
	c-3.3-2.953-8.368-2.672-11.32,0.626c-3.345,3.738-8.138,5.881-13.147,5.881c-9.725,0-17.637-7.912-17.637-17.637
	c0-9.725,7.912-17.637,17.637-17.637c5.02,0,9.818,2.15,13.162,5.898c2.948,3.303,8.017,3.59,11.319,0.642
	c3.303-2.948,3.59-8.017,0.642-11.319c-6.384-7.153-15.542-11.256-25.124-11.256c-18.566,0-33.67,15.105-33.67,33.67
	C230.881,402.833,245.986,417.937,264.551,417.937z"/>
<g>
</g>
<g>
</g>
<g>
</g>
<g>
</g>
<g>
</g>
<g>
</g>
<g>
</g>
<g>
</g>
<g>
</g>
<g>
</g>
<g>
</g>
<g>
</g>
<g>
</g>
<g>
</g>
<g>
</g>
</svg>
