<?xml version="1.0" encoding="iso-8859-1"?>
<!-- Generator: Adobe Illustrator 19.0.0, SVG Export Plug-In . SVG Version: 6.00 Build 0)  -->
<svg version="1.1" id="Layer_1" xmlns="http://www.w3.org/2000/svg" xmlns:xlink="http://www.w3.org/1999/xlink" x="0px" y="0px"
	 viewBox="0 0 512 512" style="enable-background:new 0 0 512 512;" xml:space="preserve">
<path style="fill:#D5DCED;" d="M76.426,84.977c0-9.446,7.656-17.102,17.102-17.102h222.33l85.512,85.511v333.495
	c0,9.446-7.656,17.102-17.102,17.102H93.528c-9.446,0-17.102-7.656-17.102-17.102V84.977z"/>
<path style="fill:#E4EAF8;" d="M110.63,50.772c0-9.446,7.656-17.102,17.102-17.102h222.33l85.511,85.511v333.495
	c0,9.446-7.656,17.102-17.102,17.102H127.733c-9.446,0-17.102-7.656-17.102-17.102V50.772z"/>
<g>
	<path style="fill:#D5DCED;" d="M166.213,213.244c25.933,0,47.031-21.098,47.031-47.031V67.875
		c0-14.146-11.508-25.653-25.653-25.653c-6.564,0-12.561,2.478-17.102,6.548v-2.272c0-7.073,5.754-12.827,12.827-12.827h-62.841
		c-0.845,4.146-1.292,8.435-1.292,12.827v119.716C119.182,192.146,140.279,213.244,166.213,213.244z"/>
	<path style="fill:#D5DCED;" d="M350.063,33.67v68.409c0,9.445,7.658,17.102,17.102,17.102h68.409L350.063,33.67z"/>
</g>
<path style="fill:#00AAF0;" d="M213.282,264.551v51.307c0,4.722,3.829,8.551,8.551,8.551h102.614c4.722,0,8.551-3.829,8.551-8.551
	v-51.307H213.282z"/>
<path style="fill:#0096DC;" d="M213.282,300.493l46.638,12.437c4.311,1.149,8.759,1.733,13.22,1.733
	c4.462,0,8.909-0.583,13.22-1.733l46.638-12.437v-27.39H213.282V300.493z"/>
<path style="fill:#00C3FF;" d="M264.327,224.146L155.58,253.145c-2.924,0.78-2.924,4.931,0,5.71l108.747,28.999
	c5.774,1.54,11.852,1.54,17.626,0L390.7,258.855c2.924-0.78,2.924-4.931,0-5.71l-108.747-28.999
	C276.179,222.606,270.101,222.606,264.327,224.146z"/>
<path d="M392.729,245.399l-117.56-31.35c-1.354-0.361-2.778-0.361-4.131,0l-117.56,31.35c-4.871,1.3-8.144,5.56-8.144,10.601
	c0,5.041,3.273,9.302,8.145,10.601l51.749,13.799v35.457c0,9.136,7.432,16.568,16.568,16.568h102.614
	c9.136,0,16.568-7.432,16.568-16.568v-35.456l18.097-4.826l0.074,48.845c0.006,4.423,3.595,8.005,8.017,8.005
	c0.004,0,0.009,0,0.013,0c4.427-0.006,8.011-3.601,8.005-8.028l-0.08-53.095l17.627-4.701c4.871-1.3,8.144-5.56,8.144-10.601
	C400.874,250.959,397.6,246.699,392.729,245.399z M273.102,230.092L370.257,256l-97.155,25.907L175.947,256L273.102,230.092z
	 M324.944,315.858c0,0.295-0.239,0.534-0.534,0.534H221.795c-0.295,0-0.534-0.239-0.534-0.534v-31.182l49.775,13.273
	c0.677,0.181,1.371,0.27,2.066,0.27c0.695,0,1.389-0.09,2.066-0.27l49.775-13.273V315.858z"/>
<circle cx="367.165" cy="350.063" r="8.017"/>
<path d="M441.242,113.512l-85.511-85.511c-1.503-1.503-3.542-2.347-5.668-2.347H224.883C217.079,10.104,201.03,0,183.315,0
	c-18.147,0-33.888,10.456-41.544,25.653h-14.039c-13.851,0-25.119,11.268-25.119,25.119v9.086h-9.086
	c-13.851,0-25.119,11.268-25.119,25.119v401.904c0,13.851,11.268,25.119,25.119,25.119h290.739
	c13.851,0,25.119-11.268,25.119-25.119v-9.086h9.086c13.851,0,25.119-11.268,25.119-25.119V119.182
	C443.591,117.055,442.746,115.016,441.242,113.512z M358.079,53.024l58.141,58.141h-49.056c-5.01,0-9.086-4.076-9.086-9.086V53.024z
	 M183.315,16.033c8.576,0,16.543,3.627,22.189,9.62h-44.375C166.69,19.738,174.576,16.033,183.315,16.033z M393.353,486.881
	c0,5.01-4.076,9.086-9.086,9.086H93.528c-5.01,0-9.086-4.076-9.086-9.086V84.977c0-5.01,4.076-9.086,9.086-9.086h9.086v376.785
	c0,13.851,11.268,25.119,25.119,25.119h265.62V486.881z M418.472,461.762H127.733c-5.01,0-9.086-4.076-9.086-9.086V50.772
	c0-5.01,4.076-9.086,9.086-9.086h9.334c-0.162,1.582-0.248,3.186-0.248,4.81v119.716c0,16.209,13.186,29.395,29.395,29.395
	s29.395-13.186,29.395-29.395V67.875c0-4.427-3.589-8.017-8.017-8.017s-8.017,3.589-8.017,8.017v98.338
	c0,7.368-5.993,13.361-13.361,13.361s-13.361-5.993-13.361-13.361V46.497c0-1.636,0.134-3.243,0.384-4.81h188.81v60.392
	c0,13.851,11.268,25.119,25.119,25.119h60.392v325.478C427.557,457.686,423.482,461.762,418.472,461.762z"/>
<g>
</g>
<g>
</g>
<g>
</g>
<g>
</g>
<g>
</g>
<g>
</g>
<g>
</g>
<g>
</g>
<g>
</g>
<g>
</g>
<g>
</g>
<g>
</g>
<g>
</g>
<g>
</g>
<g>
</g>
</svg>
