<?xml version="1.0" encoding="iso-8859-1"?>
<!-- Generator: Adobe Illustrator 19.0.0, SVG Export Plug-In . SVG Version: 6.00 Build 0)  -->
<svg version="1.1" id="Layer_1" xmlns="http://www.w3.org/2000/svg" xmlns:xlink="http://www.w3.org/1999/xlink" x="0px" y="0px"
	 viewBox="0 0 511.999 511.999" style="enable-background:new 0 0 511.999 511.999;" xml:space="preserve">
<rect x="221.784" y="418.472" style="fill:#5B5D6E;" width="34.205" height="51.307"/>
<circle style="fill:#59D8FF;" cx="238.886" cy="213.245" r="171.023"/>
<path style="fill:#00C3F0;" d="M276.01,319.897c-87.263-36.146-128.703-136.189-92.557-223.452
	c8.396-20.27,20.352-37.942,34.682-52.87C158.982,50.87,105.319,88.803,80.884,147.797c-36.146,87.263,5.293,187.306,92.556,223.452
	c66.993,27.749,141.406,9.646,188.768-39.687C333.864,335.056,304.278,331.607,276.01,319.897z"/>
<polygon style="fill:#7F8499;" points="332.951,503.983 144.826,503.983 161.928,469.778 315.848,469.778 "/>
<g>
	<path style="fill:#B4FF87;" d="M396.892,278.693c7.504-18.116,11.483-36.773,12.583-55.304l-10.763-3.576
		c-3.292-1.167-6.856-1.335-10.243-0.48l-4.93,1.244c-6.408,1.617-13.175-0.603-17.379-5.701l-8.757-10.621
		c-4.08-4.948-9.429-8.694-15.473-10.839l-12.823-4.548c-6.818-2.419-14.423-0.441-19.201,4.991l-8.731,9.929
		c-2.861,3.254-5.076,7.025-6.525,11.109c-3.584,10.105-2.201,21.307,3.733,30.237l0.61,0.919
		c4.079,6.139,10.039,10.788,16.985,13.252l0.416,0.148c9.21,3.267,14.028,13.38,10.762,22.59l-6.62,18.665
		c-2.137,6.022-3.027,12.415-2.618,18.792l1.502,23.4c0.348,5.432,5.373,11.556,10.384,15.046
		C358.842,339.733,382.776,312.771,396.892,278.693z"/>
	<path style="fill:#B4FF87;" d="M409.204,198.786c-2.195-25.606-10.194-50.269-23.124-72.257l-13.487,5.526
		c-1.78,0.848-3.151,2.369-3.811,4.227l-4.188,11.809c-1.433,4.043-4.415,7.35-8.286,9.195c-2.267,1.08-4.753,1.617-7.263,1.569
		l-12.31-1.029c-5.339-0.446-10.308,2.762-12.1,7.813l-2.874,8.106c-2.177,6.14,1.035,12.882,7.174,15.06l9.539,3.383
		c4.348,1.542,9.197,0.407,12.409-2.904l11.026-11.367L409.204,198.786z"/>
</g>
<path style="fill:#9BF57D;" d="M362.188,331.564c-14.296,1.76-28.908,1.742-43.509-0.199l0.74,11.531
	c0.346,5.402,5.322,11.481,10.305,14.979c0.547-0.344,1.113-0.656,1.656-1.006c1.674-1.075,3.302-2.225,4.94-3.36
	c1.954-1.356,3.911-2.705,5.811-4.145c1.231-0.93,2.419-1.92,3.627-2.883c2.243-1.797,4.479-3.603,6.635-5.518
	c0.724-0.639,1.414-1.318,2.127-1.971c2.558-2.349,5.085-4.739,7.506-7.255C362.08,331.683,362.131,331.622,362.188,331.564z"/>
<g>
	<path style="fill:#B4FF87;" d="M247.742,256.154l-1.586-3.329c-2.018-4.236-5.635-7.497-10.058-9.065l-2.505-0.889
		c-2.948-1.045-5.362-3.219-6.705-6.044l-10.737-22.539c-3.364-7.06-9.394-12.495-16.767-15.11l-23.531-8.346l-14.465,18.54
		l-4.971,14.017c-1.565,4.411-0.961,9.304,1.629,13.203l12.347,18.581c2.591,3.899,3.194,8.791,1.63,13.203l-6.628,18.685
		c-2.64,7.445-3.758,15.345-3.287,23.23l1.283,21.483c0.169,2.829,1.983,5.296,4.635,6.3l0.043,0.016
		c3.772,1.429,7.982-0.522,9.33-4.324l7.4-20.866l14.223-3.589c4.125-1.041,7.737-3.533,10.175-7.019l8.59-12.291
		c1.97-2.524,5.332-3.504,8.349-2.434l3.494,1.239c3.216,1.141,6.796-0.053,8.682-2.897l8.204-12.363
		C249.947,268.366,250.414,261.765,247.742,256.154z"/>
	<path style="fill:#B4FF87;" d="M257.042,124.946l8.384,2.974c2.051,0.728,4.335,0.267,5.944-1.198l2.662-2.425
		c2.25-2.049,2.571-5.475,0.741-7.907l-10.313-13.703c-2.618-3.478,0.146-8.41,4.48-7.994l19.255,1.851l2.485-7.009L250.32,75.22
		l-31.136-0.432l3.344-9.425l-6.742-2.39c-5.897-2.092-12.383-1.755-18.031,0.935l-4.842,2.307
		c-2.941,1.401-6.459,0.153-7.861-2.788l-5.148-10.51c-23.874,8.789-45.728,22.792-63.743,41.363l-0.248,32.942
		c-0.122,6.401,3.865,12.161,9.899,14.301l3.914,1.388l0.977,7.914c0.669,5.418,3.803,10.225,8.489,13.024l13.36,7.976l3.354-6.842
		c3.268-9.21,13.38-14.028,22.59-10.762l11.359,4.029l62.68-33.073C253.947,124.507,255.568,124.423,257.042,124.946z"/>
</g>
<g>
	<path style="fill:#9BF57D;" d="M125.812,141.524l3.914,1.388l0.977,7.914c0.669,5.418,3.803,10.225,8.489,13.024l13.36,7.976
		l3.354-6.842c2.361-6.655,8.307-10.961,14.895-11.637c0.951-19.056,4.931-38.265,12.65-56.902
		c5.151-12.434,11.773-23.766,19.328-34.211c-1.718,0.383-3.409,0.905-5.024,1.674l-4.842,2.307
		c-2.941,1.401-6.459,0.153-7.861-2.788l-5.148-10.508c-0.016,0.005-0.031,0.012-0.048,0.017
		c-23.853,8.792-45.693,22.786-63.695,41.345l-0.248,32.942C115.791,133.624,119.778,139.385,125.812,141.524z"/>
	<path style="fill:#9BF57D;" d="M173.515,193.829l-12.128,15.544l-4.971,14.017c-1.565,4.411-0.961,9.304,1.629,13.203
		l12.347,18.581c2.591,3.899,3.194,8.791,1.63,13.203l-6.628,18.685c-2.64,7.445-3.758,15.345-3.287,23.23l1.283,21.483
		c0.169,2.829,1.983,5.296,4.635,6.3l0.043,0.016c3.772,1.429,7.982-0.522,9.33-4.324l7.4-20.866l14.223-3.589
		c4.125-1.041,7.737-3.533,10.175-7.019l8.59-12.291c1.852-2.374,4.933-3.315,7.804-2.535
		C198.483,262.443,180.334,229.507,173.515,193.829z"/>
</g>
<path d="M435.899,131.64c-20.775-50.156-58.989-89.725-108.087-112.2l3.46-8.353c1.694-4.091-0.248-8.78-4.34-10.474
	c-4.089-1.694-8.779,0.249-10.474,4.34l-16.555,39.975c-42.146-15.328-87.833-14.365-129.53,2.906
	c-44.183,18.302-78.595,52.712-96.895,96.895s-18.302,92.848,0,137.031c17.274,41.704,48.907,74.695,89.558,93.656l-10.086,24.355
	c-0.001,0.003-0.003,0.006-0.005,0.011s-0.002,0.007-0.004,0.011l-6.468,15.618c-1.694,4.091,0.248,8.78,4.34,10.474
	c1.003,0.416,2.042,0.612,3.065,0.612c3.146,0,6.131-1.864,7.41-4.951l3.467-8.372c15.998,5.948,32.432,9.927,49.016,11.918v36.669
	h-46.557c-6.316,0-11.994,3.509-14.818,9.158l-14.739,29.478c-1.243,2.485-1.111,5.436,0.351,7.8s4.041,3.802,6.82,3.802h188.125
	c2.778,0,5.358-1.439,6.82-3.802s1.594-5.315,0.351-7.8l-14.739-29.479c-2.825-5.648-8.503-9.157-14.818-9.157h-46.557v-36.669
	c19.176-2.303,38.155-7.243,56.486-14.836c52.624-21.797,93.609-62.782,115.407-115.407
	C457.697,242.226,457.697,184.264,435.899,131.64z M175.92,62.9l1.894,3.976c3.3,6.925,11.62,9.878,18.546,6.578l4.842-2.307
	c3.494-1.665,7.397-1.971,11.082-0.885l-0.655,1.848v0.001l-1.971,5.557c-1.48,4.173,0.702,8.755,4.875,10.236
	c0.886,0.314,1.79,0.463,2.68,0.463c3.299,0,6.39-2.052,7.555-5.339l0.05-0.143l24.068,0.333l13.673,4.85
	c-2.253,1.146-4.173,2.945-5.46,5.242c-2.523,4.501-2.147,10.074,0.956,14.197l9.153,12.162l-0.297,0.27l-7.187-2.549
	c-3.502-1.242-7.279-1.046-10.637,0.552c-0.098,0.047-0.197,0.096-0.293,0.148l-59.57,31.433l-8.047-2.854
	c-6.472-2.296-13.451-1.934-19.65,1.021c-5.588,2.662-9.923,7.153-12.408,12.75l-5.815-3.472c-2.582-1.541-4.276-4.138-4.643-7.123
	l-0.977-7.914c-0.372-3.013-2.415-5.558-5.276-6.574l-3.914-1.388c-2.786-0.988-4.62-3.637-4.563-6.592l0.579-30.379
	C139.112,82.631,156.466,71.045,175.92,62.9z M88.29,275.625c-16.662-40.227-16.662-84.533,0-124.759
	c5.225-12.613,11.891-24.35,19.823-35.036l-0.215,11.24c-0.183,9.595,5.603,18.226,14.476,21.725l0.372,3.013
	c0.979,7.931,5.476,14.83,12.337,18.925l22.061,13.17c0.642,0.384,1.152,0.944,1.474,1.62l0.886,1.859
	c1.069,2.245,2.52,4.232,4.274,5.89l-8.714,11.168c-0.53,0.68-0.947,1.44-1.236,2.252l-4.971,14.017
	c-2.395,6.754-1.457,14.35,2.509,20.319l12.347,18.581c1.188,1.787,1.469,4.063,0.751,6.086l-6.628,18.686
	c-3.015,8.504-4.272,17.382-3.734,26.388l1.283,21.483c0.357,5.972,4.203,11.199,9.84,13.334c1.755,0.665,3.579,0.996,5.397,0.996
	c2.177,0,4.347-0.475,6.387-1.419c3.742-1.734,6.563-4.83,7.942-8.718l5.965-16.822l10.064-2.54
	c5.992-1.512,11.243-5.135,14.783-10.2l8.115-11.611l3.068,1.088c6.694,2.375,14.114-0.102,18.042-6.021l8.203-12.364
	c4.964-7.482,5.649-17.165,1.787-25.271l-1.585-3.33c-2.954-6.201-8.145-10.878-14.617-13.174l-2.505-0.888
	c-0.951-0.338-1.713-1.024-2.147-1.937l-10.737-22.539c-4.308-9.044-11.881-15.869-21.323-19.218l-25.935-9.198
	c-0.951-0.338-1.715-1.025-2.148-1.937l-0.886-1.859c-1.688-3.542-4.361-6.479-7.73-8.49l-2.293-1.369l0.392-1.104
	c0.864-2.436,2.625-4.39,4.958-5.502c2.333-1.112,4.959-1.248,7.397-0.384l3.387,1.201c-0.781,3.741,1.202,7.614,4.875,9.077
	c0.974,0.388,1.977,0.572,2.964,0.572c3.185,0,6.199-1.912,7.45-5.052l1.366-3.429l59.385-31.335l7.503,2.66
	c4.849,1.72,10.221,0.635,14.021-2.827l2.663-2.425c5.339-4.863,6.091-12.883,1.748-18.653l-6.203-8.243l12.452,1.197
	c3.667,0.353,7.093-1.834,8.322-5.3l2.486-7.009c0.711-2.004,0.596-4.208-0.317-6.128c-0.914-1.92-2.554-3.397-4.558-4.108
	L253,67.662c-0.825-0.293-1.692-0.448-2.569-0.461l-20.041-0.278c0.77-3.844-1.381-7.77-5.184-9.119l-6.74-2.391
	c-4.28-1.518-8.739-2.082-13.133-1.722c11.083-2.356,22.318-3.546,33.555-3.546c21.133,0,42.266,4.165,62.379,12.496
	c30.138,12.484,55.283,33.203,73.006,59.726l-5.13,2.443c-3.726,1.775-6.538,4.896-7.917,8.785l-4.189,11.809
	c-0.728,2.053-2.213,3.699-4.178,4.637c-1.073,0.511-2.262,0.783-3.45,0.793l-12.009-1.004c-8.962-0.75-17.318,4.648-20.323,13.121
	l-2.875,8.106c-1.257,3.546-1.418,7.21-0.698,10.647c-3.609,1.472-6.914,3.774-9.619,6.851l-8.732,9.929
	c-3.551,4.038-6.263,8.655-8.06,13.723c-4.404,12.417-2.68,26.38,4.611,37.352l0.611,0.919c5.006,7.534,12.457,13.348,20.979,16.37
	l0.419,0.149c5.029,1.783,7.669,7.326,5.885,12.354l-6.621,18.665c-2.513,7.086-3.542,14.482-3.061,21.985l1.501,23.4
	c0.314,4.892,2.017,9.498,4.772,13.362c-4.823,2.586-9.798,4.948-14.922,7.071c-40.225,16.662-84.532,16.662-124.759,0
	C136.282,347.181,104.953,315.851,88.29,275.625z M177.068,250.736l-12.347-18.581c-1.188-1.788-1.469-4.064-0.751-6.086
	l4.536-12.791l10.112-12.959l18.085,6.414c5.405,1.918,9.741,5.824,12.207,11.002l10.737,22.538
	c2.276,4.778,6.275,8.383,11.264,10.153l2.505,0.888c2.436,0.864,4.39,2.625,5.501,4.958l1.585,3.33
	c1.454,3.051,1.196,6.696-0.672,9.511l-7.953,11.986l-3.067-1.088c-6.279-2.227-13.25-0.193-17.348,5.058
	c-0.087,0.111-0.17,0.223-0.25,0.339l-8.591,12.292c-1.333,1.907-3.308,3.27-5.564,3.839l-14.224,3.589
	c-2.6,0.656-4.699,2.567-5.595,5.093l-6.083,17.155l-1.049-17.563c-0.409-6.85,0.546-13.604,2.84-20.073l6.628-18.686
	C181.972,264.301,181.034,256.706,177.068,250.736z M330.035,348.442c-1.516-1.636-2.469-3.762-2.616-6.058l-1.501-23.4
	c-0.341-5.323,0.389-10.571,2.172-15.599l6.621-18.665c2.295-6.472,1.933-13.451-1.021-19.652
	c-2.953-6.2-8.145-10.878-14.614-13.173l-0.419-0.149c-5.277-1.872-9.888-5.47-12.987-10.133l-0.611-0.919
	c-4.513-6.792-5.58-15.435-2.854-23.12c1.113-3.137,2.791-5.994,4.989-8.494l8.732-9.929c2.628-2.989,6.75-4.06,10.501-2.73
	l12.823,4.548c4.674,1.658,8.813,4.557,11.967,8.383l8.757,10.621c6.144,7.45,16.162,10.736,25.525,8.375l4.931-1.244
	c1.86-0.468,3.796-0.378,5.602,0.263l5.155,1.829c-1.57,15.763-5.47,31.382-11.702,46.429
	C377.044,305.659,356.426,330.73,330.035,348.442z M401.972,212.461l-0.58-0.205c-4.801-1.703-9.947-1.943-14.884-0.698
	l-4.931,1.244c-3.385,0.854-7.011-0.333-9.233-3.029l-8.757-10.621c-1.703-2.064-3.598-3.943-5.633-5.648l5.841-6.022l37.908,16.497
	C401.867,206.806,401.958,209.633,401.972,212.461z M365.105,170.567c-3.061-1.332-6.629-0.627-8.953,1.769l-11.025,11.367
	c-1.026,1.058-2.587,1.423-3.976,0.93l-9.538-3.383c-1.964-0.697-2.995-2.861-2.299-4.825l2.875-8.106
	c0.573-1.616,2.183-2.644,3.876-2.502l12.31,1.029c0.172,0.014,0.343,0.024,0.515,0.027c3.757,0.077,7.491-0.741,10.864-2.347
	c5.834-2.779,10.236-7.663,12.395-13.752l4.109-11.583l6.294-2.998c2.533,4.745,4.849,9.639,6.934,14.675
	c4.684,11.307,8.05,22.936,10.101,34.707L365.105,170.567z M311.04,478.09l8.938,17.876H157.797l8.937-17.876
	c0.09-0.178,0.277-0.295,0.478-0.295h143.35C310.767,477.796,310.951,477.91,311.04,478.09z M247.973,461.763h-18.171v-35.365
	c3.027,0.131,6.056,0.208,9.086,0.208s6.058-0.077,9.086-0.208V461.763z M421.086,288.715
	c-20.158,48.667-58.062,86.571-106.73,106.73c-46.19,19.133-96.823,20.093-143.466,2.908l6.956-16.799
	c19.826,7.214,40.429,10.83,61.04,10.829c23.209-0.001,46.426-4.576,68.515-13.726c44.183-18.302,78.594-52.712,96.895-96.895
	c18.3-44.183,18.302-92.848,0-137.031c-17.278-41.712-48.92-74.708-89.583-93.668l6.957-16.799
	c45.144,20.828,80.278,57.315,99.413,103.514C441.245,186.443,441.244,240.047,421.086,288.715z"/>
<path d="M341.501,144.302c2.051,0,4.103-0.782,5.668-2.348l8.551-8.551c3.131-3.131,3.131-8.206,0-11.337s-8.207-3.131-11.337,0
	l-8.551,8.551c-3.131,3.131-3.131,8.206,0,11.337C337.398,143.519,339.449,144.302,341.501,144.302z"/>
<g>
</g>
<g>
</g>
<g>
</g>
<g>
</g>
<g>
</g>
<g>
</g>
<g>
</g>
<g>
</g>
<g>
</g>
<g>
</g>
<g>
</g>
<g>
</g>
<g>
</g>
<g>
</g>
<g>
</g>
</svg>
