<?xml version="1.0" encoding="iso-8859-1"?>
<!-- Generator: Adobe Illustrator 19.0.0, SVG Export Plug-In . SVG Version: 6.00 Build 0)  -->
<svg version="1.1" id="Layer_1" xmlns="http://www.w3.org/2000/svg" xmlns:xlink="http://www.w3.org/1999/xlink" x="0px" y="0px"
	 viewBox="0 0 512 512" style="enable-background:new 0 0 512 512;" xml:space="preserve">
<path style="fill:#E4EAF8;" d="M474.25,268.499c8.016-8.016,12.52-18.889,12.52-30.226V50.799c0-9.444-7.655-17.098-17.098-17.098
	H25.114c-9.444,0-17.098,7.655-17.098,17.098v307.771c0,9.444,7.655,17.098,17.098,17.098h324.261
	c11.337,0,22.21-4.503,30.226-12.52L474.25,268.499z"/>
<path style="fill:#C7CFE2;" d="M379.601,363.147l94.648-94.648c6.168-6.168,10.199-14.04,11.756-22.501
	c-3.279,15.467-16.989,27.08-33.433,27.08h-68.393v68.393c0,16.442-11.613,30.154-27.08,33.433
	C365.561,373.346,373.433,369.317,379.601,363.147z"/>
<polygon style="fill:#464655;" points="415.79,299.797 415.79,424.306 443.103,406.405 472.882,478.299 501.64,466.388 
	471.86,394.493 503.984,387.99 "/>
<path style="fill:#00C3FF;" d="M119.154,187.585H59.31c-4.721,0-8.549-3.828-8.549-8.549v-85.45c0-4.721,3.828-8.549,8.549-8.549
	h59.844c4.721,0,8.549,3.828,8.549,8.549v85.45C127.703,183.759,123.877,187.585,119.154,187.585z"/>
<path style="fill:#FFDC64;" d="M435.474,187.585H290.138c-4.721,0-8.549-3.828-8.549-8.549v-85.45c0-4.721,3.828-8.549,8.549-8.549
	h145.336c4.721,0,8.549,3.828,8.549,8.549v85.45C444.023,183.759,440.196,187.585,435.474,187.585z"/>
<path d="M511.658,390.305c0.853-2.827,0.081-5.894-2.006-7.981l-68.946-68.946l39.211-39.211c7.901-7.901,12.868-17.95,14.373-28.83
	c0.325-2.105,0.494-4.262,0.494-6.457c0-0.066,0-188.082,0-188.082c0-13.848-11.266-25.113-25.113-25.113H25.113
	C11.266,25.685,0,36.951,0,50.799v307.771c0,13.848,11.266,25.113,25.113,25.113c0,0,324.803,0,324.869,0
	c2.195,0,4.352-0.17,6.457-0.494c10.879-1.506,20.927-6.473,28.829-14.373l22.508-22.507v77.997c0,2.944,1.615,5.652,4.205,7.052
	c2.593,1.401,5.742,1.266,8.203-0.348l19.217-12.596l26.076,62.953c0.813,1.964,2.373,3.524,4.338,4.338
	c0.982,0.406,2.025,0.61,3.067,0.61c1.042,0,2.085-0.203,3.067-0.61l28.758-11.912c4.09-1.694,6.031-6.383,4.338-10.472
	l-26.055-62.903l22.584-4.571C508.468,395.26,510.806,393.131,511.658,390.305z M478.754,50.799v187.475
	c0,1.583-0.113,3.148-0.321,4.69c-1.966,12.504-12.813,22.099-25.861,22.099h-68.393c-4.426,0-8.015,3.589-8.015,8.015v68.393
	c0,13.047-9.594,23.894-22.098,25.861c-1.543,0.207-3.109,0.321-4.692,0.321h-93.967V41.715h214.264
	C474.68,41.715,478.754,45.79,478.754,50.799z M16.03,358.569V50.799c0-5.009,4.075-9.084,9.084-9.084h214.264v325.938H25.113
	C20.104,367.653,16.03,363.578,16.03,358.569z M392.194,339.22v-58.128h58.128l-20.951,20.951l-7.914-7.914
	c-2.292-2.293-5.74-2.977-8.734-1.738c-2.995,1.241-4.948,4.163-4.948,7.405v23.843L392.194,339.22z M470.271,386.637
	c-2.348,0.476-4.36,1.976-5.484,4.09c-1.125,2.115-1.247,4.621-0.33,6.834l26.713,64.49l-13.948,5.778l-26.713-64.49
	c-0.914-2.206-2.762-3.889-5.044-4.592c-0.774-0.238-1.569-0.356-2.36-0.356c-1.544,0-3.073,0.446-4.394,1.311l-14.904,9.768
	v-90.324l63.952,63.952L470.271,386.637z"/>
<path d="M161.9,93.01h51.295c4.426,0,8.015-3.589,8.015-8.015s-3.589-8.015-8.015-8.015H161.9c-4.426,0-8.015,3.589-8.015,8.015
	S157.474,93.01,161.9,93.01z"/>
<path d="M213.195,111.177H161.9c-4.426,0-8.015,3.589-8.015,8.015s3.589,8.015,8.015,8.015h51.295c4.426,0,8.015-3.589,8.015-8.015
	S217.622,111.177,213.195,111.177z"/>
<path d="M213.195,145.374H161.9c-4.426,0-8.015,3.589-8.015,8.015c0,4.426,3.589,8.015,8.015,8.015h51.295
	c4.426,0,8.015-3.589,8.015-8.015C221.21,148.962,217.622,145.374,213.195,145.374z"/>
<path d="M213.195,179.571H161.9c-4.426,0-8.015,3.589-8.015,8.015c0,4.426,3.589,8.015,8.015,8.015h51.295
	c4.426,0,8.015-3.589,8.015-8.015C221.21,183.159,217.622,179.571,213.195,179.571z"/>
<path d="M50.761,229.797h25.648c4.426,0,8.015-3.589,8.015-8.015c0-4.426-3.589-8.015-8.015-8.015H50.761
	c-4.426,0-8.015,3.589-8.015,8.015C42.746,226.209,46.334,229.797,50.761,229.797z"/>
<path d="M213.195,213.767h-102.59c-4.426,0-8.015,3.589-8.015,8.015c0,4.426,3.589,8.015,8.015,8.015h102.59
	c4.426,0,8.015-3.589,8.015-8.015C221.21,217.356,217.622,213.767,213.195,213.767z"/>
<path d="M281.589,229.797h162.435c4.426,0,8.015-3.589,8.015-8.015c0-4.426-3.589-8.015-8.015-8.015H281.589
	c-4.426,0-8.015,3.589-8.015,8.015C273.574,226.209,277.162,229.797,281.589,229.797z"/>
<path d="M281.589,263.994h68.393c4.426,0,8.015-3.589,8.015-8.015s-3.589-8.015-8.015-8.015h-68.393
	c-4.426,0-8.015,3.589-8.015,8.015S277.162,263.994,281.589,263.994z"/>
<path d="M281.589,298.191h17.098c4.426,0,8.015-3.589,8.015-8.015s-3.589-8.015-8.015-8.015h-17.098
	c-4.426,0-8.015,3.589-8.015,8.015S277.162,298.191,281.589,298.191z"/>
<path d="M349.982,282.161h-17.098c-4.426,0-8.015,3.589-8.015,8.015s3.589,8.015,8.015,8.015h17.098
	c4.426,0,8.015-3.589,8.015-8.015S354.409,282.161,349.982,282.161z"/>
<path d="M349.982,316.358h-68.393c-4.426,0-8.015,3.589-8.015,8.015s3.589,8.015,8.015,8.015h68.393
	c4.426,0,8.015-3.589,8.015-8.015S354.409,316.358,349.982,316.358z"/>
<path d="M50.761,263.994h94.041c4.426,0,8.015-3.589,8.015-8.015s-3.589-8.015-8.015-8.015H50.761c-4.426,0-8.015,3.589-8.015,8.015
	S46.334,263.994,50.761,263.994z"/>
<path d="M213.195,247.964h-34.197c-4.426,0-8.015,3.589-8.015,8.015s3.589,8.015,8.015,8.015h34.197
	c4.426,0,8.015-3.589,8.015-8.015S217.622,247.964,213.195,247.964z"/>
<path d="M213.195,282.161H50.761c-4.426,0-8.015,3.589-8.015,8.015s3.589,8.015,8.015,8.015h162.435
	c4.426,0,8.015-3.589,8.015-8.015S217.622,282.161,213.195,282.161z"/>
<path d="M213.195,316.358h-85.492c-4.426,0-8.015,3.589-8.015,8.015s3.589,8.015,8.015,8.015h85.492
	c4.426,0,8.015-3.589,8.015-8.015S217.622,316.358,213.195,316.358z"/>
<path d="M93.507,316.358H50.761c-4.426,0-8.015,3.589-8.015,8.015s3.589,8.015,8.015,8.015h42.746c4.426,0,8.015-3.589,8.015-8.015
	S97.933,316.358,93.507,316.358z"/>
<path d="M59.31,195.6h59.844c9.134,0,16.564-7.43,16.564-16.564V93.544c0-9.134-7.43-16.564-16.564-16.564H59.31
	c-9.134,0-16.564,7.43-16.564,16.564v85.492C42.746,188.17,50.176,195.6,59.31,195.6z M58.776,93.544
	c0-0.295,0.239-0.534,0.534-0.534h59.844c0.295,0,0.534,0.239,0.534,0.534v85.492c0,0.295-0.239,0.534-0.534,0.534H59.31
	c-0.295,0-0.534-0.239-0.534-0.534V93.544z"/>
<path d="M290.138,195.6h145.336c9.134,0,16.564-7.43,16.564-16.564V93.544c0-9.134-7.43-16.564-16.564-16.564H290.138
	c-9.134,0-16.564,7.43-16.564,16.564v85.492C273.574,188.17,281.004,195.6,290.138,195.6z M289.604,93.544
	c0-0.295,0.239-0.534,0.534-0.534h145.336c0.295,0,0.534,0.239,0.534,0.534v85.492c0,0.295-0.239,0.534-0.534,0.534H290.138
	c-0.295,0-0.534-0.239-0.534-0.534V93.544z"/>
<g>
</g>
<g>
</g>
<g>
</g>
<g>
</g>
<g>
</g>
<g>
</g>
<g>
</g>
<g>
</g>
<g>
</g>
<g>
</g>
<g>
</g>
<g>
</g>
<g>
</g>
<g>
</g>
<g>
</g>
</svg>
