<?xml version="1.0" encoding="iso-8859-1"?>
<!-- Generator: Adobe Illustrator 19.0.0, SVG Export Plug-In . SVG Version: 6.00 Build 0)  -->
<svg version="1.1" id="Layer_1" xmlns="http://www.w3.org/2000/svg" xmlns:xlink="http://www.w3.org/1999/xlink" x="0px" y="0px"
	 viewBox="0 0 512 512" style="enable-background:new 0 0 512 512;" xml:space="preserve">
<path style="fill:#5B5D6E;" d="M307.307,503.983H204.693c-9.446,0-17.102-7.656-17.102-17.102V298.756
	c0-9.446,7.656-17.102,17.102-17.102h102.614c9.446,0,17.102,7.656,17.102,17.102v188.125
	C324.409,496.327,316.753,503.983,307.307,503.983z"/>
<rect x="187.591" y="315.858" style="fill:#FFDC64;" width="136.818" height="136.818"/>
<path style="fill:#FFC850;" d="M418.472,247.449H93.528c-9.446,0-17.102-7.656-17.102-17.102V50.772
	c0-9.446,7.656-17.102,17.102-17.102h324.944c9.446,0,17.102,7.656,17.102,17.102v179.574
	C435.574,239.792,427.918,247.449,418.472,247.449z"/>
<polygon style="fill:#FF5050;" points="298.756,350.063 281.653,350.063 281.653,204.693 230.347,204.693 230.347,350.063 
	213.244,350.063 256,392.818 "/>
<path style="fill:#C84146;" d="M230.347,232.856c6.967,1.547,11.04,3.434,12.951,4.552c3.868,2.263,8.282,3.458,12.765,3.458
	c4.483,0,8.897-1.196,12.764-3.458c1.9-1.112,5.932-2.985,12.827-4.528v-28.188h-51.307v28.163H230.347z"/>
<path style="fill:#E4EAF8;" d="M308.373,8.017c-40.686,0-52.311,12.388-52.311,12.388S244.438,8.017,203.751,8.017
	c-42.44,0-92.997,12.388-92.997,12.388v196.676c0,0,50.557-12.388,92.997-12.388c40.686,0,52.311,12.388,52.311,12.388
	s11.624-12.388,52.311-12.388c42.44,0,92.997,12.388,92.997,12.388V20.405C401.37,20.405,350.813,8.017,308.373,8.017z"/>
<path d="M418.472,25.653h-9.086v-5.248c0-3.693-2.523-6.907-6.109-7.787C401.175,12.104,351.288,0,308.373,0
	c-29.029,0-44.739,6.127-52.311,10.565C248.491,6.127,232.78,0,203.751,0c-42.915,0-92.802,12.104-94.905,12.619
	c-3.586,0.879-6.109,4.094-6.109,7.787v5.247h-9.21c-13.851,0-25.119,11.268-25.119,25.119v179.574
	c0,13.851,11.268,25.119,25.119,25.119H222.33v18.171h-17.637c-13.851,0-25.119,11.268-25.119,25.119v188.125
	c0,13.851,11.268,25.119,25.119,25.119h102.614c13.851,0,25.119-11.268,25.119-25.119V298.756c0-13.851-11.268-25.119-25.119-25.119
	H289.67v-18.171h128.802c13.851,0,25.119-11.268,25.119-25.119V50.772C443.591,36.922,432.323,25.653,418.472,25.653z
	 M393.353,26.798v180.256c-17.031-3.634-52.948-10.378-84.98-10.378c-21.244,0-35.348,3.282-44.356,6.781V25.119
	c0-0.206-0.016-0.408-0.031-0.61c4.728-2.819,17.553-8.475,44.387-8.475C340.848,16.033,378.792,23.604,393.353,26.798z
	 M316.392,444.66H195.608V323.875h26.722v18.171h-9.086c-3.243,0-6.165,1.953-7.406,4.949c-1.241,2.996-0.555,6.443,1.738,8.736
	l42.756,42.756c1.565,1.565,3.617,2.348,5.668,2.348c2.051,0,4.103-0.782,5.668-2.348l42.756-42.756
	c2.293-2.293,2.979-5.741,1.738-8.736c-1.241-2.996-4.164-4.949-7.406-4.949h-9.086v-18.171h26.722V444.66z M273.637,350.063
	c0,3.737,2.557,6.876,6.017,7.766L256,381.482l-23.654-23.654c3.46-0.889,6.017-4.029,6.017-7.766V217.039
	c7.919,2.454,11.348,5.131,11.934,5.626c1.51,1.78,3.419,2.806,5.765,2.806c2.345,0,4.254-1.026,5.765-2.806
	c0.583-0.493,3.98-3.144,11.81-5.587V350.063z M118.771,26.797c14.553-3.195,52.47-10.764,84.98-10.764
	c26.6,0,39.44,5.56,44.266,8.403c-0.019,0.226-0.034,0.452-0.034,0.683v178.29c-9.013-3.481-23.086-6.733-44.232-6.733
	c-32.032,0-67.95,6.744-84.98,10.378C118.771,207.054,118.771,26.797,118.771,26.797z M93.528,239.432
	c-5.01,0-9.086-4.076-9.086-9.086V50.772c0-5.01,4.076-9.086,9.086-9.086h9.21v175.395c0,2.462,1.132,4.788,3.069,6.308
	c1.937,1.519,4.464,2.065,6.857,1.479c0.496-0.122,50.09-12.159,91.089-12.159c7.154,0,13.302,0.405,18.578,1.049v25.674H93.528z
	 M204.693,289.67h17.637v18.171h-26.722v-9.086C195.608,293.746,199.683,289.67,204.693,289.67z M307.307,495.967H204.693
	c-5.01,0-9.086-4.076-9.086-9.086v-26.188h120.785v26.188C316.392,491.891,312.317,495.967,307.307,495.967z M307.307,289.67
	c5.01,0,9.086,4.076,9.086,9.086v9.086H289.67V289.67H307.307z M427.557,230.347c0,5.01-4.076,9.086-9.086,9.086H289.67v-25.659
	c5.303-0.652,11.493-1.064,18.702-1.064c40.947,0,90.593,12.037,91.09,12.159c2.391,0.586,4.919,0.041,6.856-1.48
	c1.937-1.519,3.069-3.845,3.069-6.306V41.687h9.086c5.01,0,9.086,4.076,9.086,9.086v179.574H427.557z"/>
<path d="M220.924,162.277c0.297,0.033,0.592,0.048,0.884,0.048c4.035,0,7.509-3.039,7.959-7.143c0.483-4.402-2.694-8.36-7.094-8.843
	c-5.871-0.645-12.238-0.971-18.922-0.971c-5.223,0-10.83,0.184-16.665,0.547c-4.419,0.275-7.778,4.079-7.504,8.499
	c0.275,4.42,4.085,7.78,8.499,7.504c5.506-0.342,10.778-0.515,15.671-0.515C209.854,161.403,215.631,161.697,220.924,162.277z"/>
<path d="M152.199,149.714c-2.843,0.423-5.765,0.884-8.68,1.367c-4.367,0.725-7.321,4.854-6.596,9.221
	c0.651,3.924,4.049,6.705,7.899,6.705c0.436,0,0.878-0.035,1.322-0.109c2.828-0.469,5.661-0.916,8.418-1.326
	c4.379-0.652,7.4-4.731,6.748-9.11S156.574,149.055,152.199,149.714z"/>
<path d="M144.821,132.803c0.436,0,0.879-0.035,1.322-0.109c21.974-3.647,41.355-5.495,57.609-5.495
	c6.102,0,11.88,0.294,17.173,0.874c4.397,0.486,8.361-2.694,8.843-7.094c0.483-4.402-2.694-8.36-7.094-8.843
	c-5.871-0.645-12.238-0.971-18.922-0.971c-17.129,0-37.394,1.922-60.233,5.711c-4.368,0.725-7.322,4.854-6.596,9.22
	C137.574,130.021,140.971,132.803,144.821,132.803z"/>
<path d="M222.673,77.931c-2.889-0.317-5.92-0.559-9.008-0.72c-4.435-0.229-8.193,3.166-8.423,7.588
	c-0.231,4.422,3.167,8.193,7.588,8.423c2.784,0.145,5.508,0.362,8.094,0.646c0.297,0.033,0.592,0.048,0.884,0.048
	c4.035,0,7.509-3.039,7.959-7.143C230.25,82.372,227.074,78.414,222.673,77.931z"/>
<path d="M144.821,98.598c0.436,0,0.879-0.035,1.322-0.109c11.868-1.97,23.171-3.433,33.597-4.35c4.41-0.388,7.671-4.278,7.283-8.688
	c-0.388-4.41-4.271-7.666-8.688-7.283c-10.832,0.953-22.546,2.468-34.817,4.504c-4.368,0.725-7.321,4.854-6.596,9.221
	C137.574,95.817,140.971,98.598,144.821,98.598z"/>
<path d="M144.821,64.393c0.436,0,0.879-0.035,1.322-0.109c21.973-3.647,41.355-5.495,57.608-5.495c6.102,0,11.88,0.294,17.173,0.874
	c4.397,0.486,8.361-2.694,8.843-7.094c0.483-4.402-2.694-8.36-7.094-8.843c-5.871-0.643-12.238-0.971-18.922-0.971
	c-17.129,0-37.394,1.922-60.233,5.711c-4.367,0.725-7.322,4.854-6.596,9.22C137.574,61.612,140.971,64.393,144.821,64.393z"/>
<path d="M290.195,162.326c0.292,0,0.587-0.016,0.884-0.048c5.293-0.58,11.071-0.874,17.173-0.874c4.892,0,10.165,0.174,15.671,0.515
	c4.415,0.284,8.224-3.085,8.499-7.504s-3.085-8.224-7.504-8.499c-5.835-0.363-11.443-0.547-16.665-0.547
	c-6.684,0-13.049,0.327-18.922,0.971c-4.401,0.483-7.577,4.441-7.094,8.843C282.686,159.288,286.159,162.326,290.195,162.326z"/>
<path d="M368.485,151.081c-2.916-0.484-5.836-0.944-8.681-1.367c-4.38-0.66-8.458,2.368-9.11,6.748
	c-0.652,4.379,2.369,8.458,6.748,9.11c2.757,0.41,5.588,0.857,8.418,1.326c0.445,0.074,0.886,0.109,1.322,0.109
	c3.85,0,7.248-2.782,7.899-6.705C375.806,155.934,372.853,151.805,368.485,151.081z"/>
<path d="M291.079,128.073c5.293-0.58,11.071-0.874,17.173-0.874c16.253,0,35.635,1.848,57.609,5.495
	c0.445,0.074,0.886,0.109,1.322,0.109c3.85,0,7.247-2.782,7.899-6.705c0.725-4.368-2.229-8.496-6.596-9.22
	c-22.838-3.789-43.103-5.711-60.233-5.711c-6.684,0-13.049,0.327-18.922,0.971c-4.401,0.483-7.577,4.441-7.094,8.843
	C282.72,125.381,286.68,128.568,291.079,128.073z"/>
<path d="M290.195,93.917c0.292,0,0.587-0.016,0.884-0.048c2.586-0.283,5.309-0.501,8.094-0.646c4.421-0.23,7.819-4.002,7.588-8.423
	c-0.231-4.421-3.999-7.825-8.423-7.588c-3.088,0.16-6.118,0.403-9.008,0.72c-4.401,0.483-7.577,4.441-7.094,8.843
	C282.686,90.878,286.159,93.917,290.195,93.917z"/>
<path d="M368.485,82.671c-12.271-2.036-23.985-3.552-34.817-4.504c-4.402-0.387-8.301,2.873-8.688,7.283
	c-0.387,4.41,2.873,8.301,7.283,8.688c10.425,0.917,21.728,2.38,33.596,4.35c0.445,0.074,0.886,0.109,1.322,0.109
	c3.85,0,7.247-2.782,7.899-6.705C375.806,87.525,372.853,83.396,368.485,82.671z"/>
<path d="M291.079,59.664c5.293-0.58,11.071-0.874,17.173-0.874c16.253,0,35.635,1.848,57.609,5.495
	c0.445,0.074,0.886,0.109,1.322,0.109c3.85,0,7.247-2.782,7.899-6.705c0.725-4.367-2.229-8.496-6.596-9.22
	c-22.84-3.79-43.105-5.712-60.234-5.712c-6.684,0-13.049,0.327-18.922,0.971c-4.401,0.483-7.577,4.441-7.094,8.843
	C282.719,56.971,286.68,60.151,291.079,59.664z"/>
<path d="M264.551,470.313h-17.102c-4.427,0-8.017,3.589-8.017,8.017s3.589,8.017,8.017,8.017h17.102
	c4.427,0,8.017-3.589,8.017-8.017S268.979,470.313,264.551,470.313z"/>
<path d="M281.653,410.455h-51.307c-4.427,0-8.017,3.589-8.017,8.017c0,4.427,3.589,8.017,8.017,8.017h51.307
	c4.427,0,8.017-3.589,8.017-8.017C289.67,414.044,286.081,410.455,281.653,410.455z"/>
<g>
</g>
<g>
</g>
<g>
</g>
<g>
</g>
<g>
</g>
<g>
</g>
<g>
</g>
<g>
</g>
<g>
</g>
<g>
</g>
<g>
</g>
<g>
</g>
<g>
</g>
<g>
</g>
<g>
</g>
</svg>
