<?xml version="1.0" encoding="iso-8859-1"?>
<!-- Generator: Adobe Illustrator 19.0.0, SVG Export Plug-In . SVG Version: 6.00 Build 0)  -->
<svg version="1.1" id="Layer_1" xmlns="http://www.w3.org/2000/svg" xmlns:xlink="http://www.w3.org/1999/xlink" x="0px" y="0px"
	 viewBox="0 0 512.001 512.001" style="enable-background:new 0 0 512.001 512.001;" xml:space="preserve">
<path style="fill:#FAEBC8;" d="M332.961,59.324c-6.803,0-13.329-2.703-18.14-7.513l-36.279-36.279
	c-4.811-4.811-11.336-7.513-18.14-7.513h-51.432v51.307h123.992V59.324z"/>
<path style="fill:#EBC9A0;" d="M281.654,59.324c-6.803,0-13.329-2.703-18.14-7.513l-36.279-36.279
	c-4.811-4.811-11.336-7.513-18.14-7.513h-51.432v51.307h141.094h-17.102V59.324z"/>
<path style="fill:#F5DCB4;" d="M452.677,59.324h-222.33c-6.804,0-13.329-2.703-18.14-7.513l-36.279-36.279
	c-4.811-4.811-11.336-7.513-18.14-7.513H59.324c-9.446,0-17.102,7.656-17.102,17.102v359.148c0,9.446,7.656,17.102,17.102,17.102
	h393.353c9.446,0,17.102-7.656,17.102-17.102V76.427C469.779,66.981,462.122,59.324,452.677,59.324z"/>
<path style="fill:#EBC9A0;" d="M307.307,324.409H204.694c-14.168,0-25.653,11.485-25.653,25.653v51.307h153.921v-51.307
	C332.961,335.894,321.476,324.409,307.307,324.409z"/>
<polygon style="fill:#5B5D6E;" points="307.307,435.574 307.307,350.063 204.694,350.063 204.694,435.574 170.489,435.574 
	256.001,503.983 341.512,435.574 "/>
<polygon style="fill:#AFB9D2;" points="375.717,170.489 375.717,144.835 256.001,102.079 136.284,144.835 136.284,170.489 
	153.387,170.489 153.387,281.653 136.284,281.653 136.284,315.858 375.717,315.858 375.717,281.653 358.614,281.653 
	358.614,170.489 "/>
<g>
	<rect x="153.387" y="170.489" style="fill:#959CB5;" width="205.228" height="25.653"/>
	<rect x="153.387" y="256" style="fill:#959CB5;" width="205.228" height="25.653"/>
</g>
<path d="M452.677,51.307H332.961c-4.712,0-9.14-1.834-12.471-5.166L284.211,9.863C277.851,3.503,269.396,0,260.402,0H59.324
	C45.473,0,34.205,11.268,34.205,25.119v359.148c0,13.851,11.268,25.119,25.119,25.119h137.353v18.171h-26.188
	c-3.404,0-6.438,2.151-7.565,5.364c-1.127,3.212-0.102,6.786,2.557,8.913l85.511,68.409c1.464,1.172,3.236,1.757,5.008,1.757
	c1.772,0,3.543-0.586,5.008-1.757l85.512-68.409c2.658-2.127,3.683-5.7,2.557-8.913c-1.127-3.213-4.16-5.364-7.565-5.364h-26.188
	v-18.171h137.353c13.851,0,25.119-11.268,25.119-25.119V76.426C477.796,62.575,466.528,51.307,452.677,51.307z M272.873,21.199
	l30.108,30.108h-21.327c-4.712,0-9.14-1.834-12.471-5.166l-30.109-30.108h21.328C265.113,16.033,269.541,17.868,272.873,21.199z
	 M209.095,16.033c4.711,0,9.14,1.834,12.471,5.166l30.108,30.108h-21.327c-4.711,0-9.14-1.834-12.471-5.166l-30.109-30.108H209.095z
	 M318.658,443.591l-62.657,50.127l-62.657-50.127h11.351c4.427,0,8.017-3.589,8.017-8.017v-77.495h86.58v77.495
	c0,4.427,3.589,8.017,8.017,8.017H318.658z M461.763,384.267c0,5.01-4.076,9.086-9.086,9.086H315.324v-43.29
	c0-4.427-3.589-8.017-8.017-8.017H204.694c-4.427,0-8.017,3.589-8.017,8.017v43.29H59.324c-5.01,0-9.086-4.076-9.086-9.086V25.119
	c0-5.01,4.076-9.086,9.086-9.086h98.464c4.711,0,9.14,1.834,12.471,5.166l36.279,36.279c6.359,6.36,14.815,9.862,23.809,9.862
	h222.33c5.01,0,9.086,4.076,9.086,9.086V384.267z"/>
<path d="M378.412,137.285L258.696,94.53c-1.743-0.623-3.649-0.623-5.393,0l-119.716,42.756c-3.191,1.139-5.321,4.162-5.321,7.55
	v25.653c0,4.427,3.589,8.017,8.017,8.017h9.086v95.132h-9.086c-4.427,0-8.017,3.589-8.017,8.017v34.205
	c0,4.427,3.589,8.017,8.017,8.017h239.432c4.427,0,8.017-3.589,8.017-8.017v-34.205c0-4.427-3.589-8.017-8.017-8.017h-9.085v-95.132
	h9.086c4.427,0,8.017-3.589,8.017-8.017v-25.653C383.733,141.448,381.603,138.425,378.412,137.285z M161.403,178.505h18.171v95.132
	h-18.171V178.505z M213.779,178.505v95.132h-18.171v-95.132H213.779z M247.984,178.505v95.132h-18.171v-95.132H247.984z
	 M282.188,178.505v95.132h-18.171v-95.132H282.188z M316.393,178.505v95.132h-18.171v-95.132H316.393z M367.7,307.841H144.301
	V289.67H367.7V307.841z M350.598,273.637h-18.171v-95.132h18.171V273.637z M367.7,162.472H144.301v-11.988l111.699-39.892
	L367.7,150.484V162.472z"/>
<g>
</g>
<g>
</g>
<g>
</g>
<g>
</g>
<g>
</g>
<g>
</g>
<g>
</g>
<g>
</g>
<g>
</g>
<g>
</g>
<g>
</g>
<g>
</g>
<g>
</g>
<g>
</g>
<g>
</g>
</svg>
