<?xml version="1.0" encoding="iso-8859-1"?>
<!-- Generator: Adobe Illustrator 19.0.0, SVG Export Plug-In . SVG Version: 6.00 Build 0)  -->
<svg version="1.1" id="Layer_1" xmlns="http://www.w3.org/2000/svg" xmlns:xlink="http://www.w3.org/1999/xlink" x="0px" y="0px"
	 viewBox="0 0 512 512" style="enable-background:new 0 0 512 512;" xml:space="preserve">
<path style="fill:#FAEBC8;" d="M298.756,76.432c-6.803,0-13.329-2.703-18.14-7.513l-36.279-36.279
	c-4.811-4.811-11.336-7.513-18.14-7.513h-50.363v51.307h122.923V76.432z"/>
<path style="fill:#EBC9A0;" d="M247.449,76.432c-6.804,0-13.329-2.703-18.14-7.513l-36.279-36.279
	c-4.811-4.811-11.336-7.513-18.14-7.513h-51.432v51.307h123.992V76.432z"/>
<path style="fill:#F5DCB4;" d="M418.472,76.432h-222.33c-6.804,0-13.329-2.703-18.14-7.513l-36.279-36.279
	c-4.811-4.811-11.336-7.513-18.14-7.513H25.119c-9.446,0-17.102,7.656-17.102,17.102v359.148c0,9.446,7.656,17.102,17.102,17.102
	h393.353c9.446,0,17.102-7.656,17.102-17.102V93.535C435.574,84.088,427.917,76.432,418.472,76.432z"/>
<path style="fill:#EBC9A0;" d="M430.136,340.484c-8.077-8.077-18.814-12.523-30.233-12.523c-5.425,0-10.671,1.073-15.575,2.992
	l-0.538-0.538c16.943-24.291,26.13-53.211,26.13-82.961c0-80.157-65.213-145.37-145.37-145.37s-145.37,65.212-145.37,145.37
	s65.213,145.37,145.37,145.37c29.749,0,58.671-9.187,82.96-26.13l0.539,0.538c-1.92,4.904-2.993,10.15-2.993,15.575
	c0,11.421,4.448,22.158,12.524,30.234l5.437,5.437h55.453c9.445,0,17.102-7.658,17.102-17.102v-55.453L430.136,340.484z"/>
<path style="fill:#FFFFFF;" d="M264.551,358.62c-61.297,0-111.165-49.868-111.165-111.165S203.254,136.29,264.551,136.29
	s111.165,49.868,111.165,111.165S325.848,358.62,264.551,358.62z"/>
<path style="fill:#FAEBC8;" d="M317.91,305.26c-61.297,0-111.165-49.868-111.165-111.165c0-7.732,0.909-15.239,2.443-22.516
	c-23.407,17.127-38.7,44.715-38.7,75.875c0,51.866,42.196,94.063,94.063,94.063c31.16,0,58.749-15.294,75.875-38.7
	C333.148,304.352,325.643,305.26,317.91,305.26z"/>
<path style="fill:#959CB5;" d="M144.835,136.29H59.324c-4.722,0-8.551-3.829-8.551-8.551v-17.102c0-4.722,3.829-8.551,8.551-8.551
	h85.511c4.722,0,8.551,3.829,8.551,8.551v17.102C153.386,132.461,149.557,136.29,144.835,136.29z"/>
<path style="fill:#707487;" d="M462.698,481.877l-86.979-86.978c-6.678-6.678-6.678-17.507,0-24.186l12.089-12.089
	c6.678-6.678,17.507-6.678,24.186,0l86.979,86.979c6.678,6.678,6.678,17.507,0,24.186l-12.089,12.089
	C480.206,488.556,469.377,488.556,462.698,481.877z"/>
<path style="fill:#5B5D6E;" d="M479.801,464.775l-86.978-86.978c-5.818-5.818-6.559-14.783-2.239-21.412
	c-0.98,0.639-1.913,1.379-2.774,2.239l-12.089,12.089c-6.678,6.68-6.678,17.507,0,24.186l86.978,86.978
	c6.68,6.68,17.507,6.68,24.186,0l12.089-12.089c0.86-0.86,1.601-1.794,2.239-2.774C494.582,471.333,485.619,470.593,479.801,464.775
	z"/>
<g>
	<path style="fill:#00C3FF;" d="M312.316,201.157l23.459,23.459c3.216,3.216,3.352,8.387,0.309,11.767l-65.177,72.419
		c-3.397,3.774-9.315,3.774-12.712,0l-65.177-72.419c-3.042-3.381-2.906-8.551,0.31-11.767l23.459-23.459
		c3.208-3.208,7.557-5.009,12.093-5.009h71.343C304.759,196.148,309.109,197.949,312.316,201.157z"/>
	<polygon style="fill:#00C3FF;" points="247.449,196.148 238.898,230.352 290.205,230.352 281.653,196.148 	"/>
</g>
<path style="fill:#80E1FF;" d="M338.258,230.352c-0.076-2.088-0.898-4.151-2.484-5.737l-23.461-23.461
	c-3.207-3.206-7.555-5.007-12.09-5.007h-18.569l8.551,34.205L338.258,230.352L338.258,230.352z"/>
<g>
	<path style="fill:#00AAF0;" d="M238.898,230.352l8.551-34.205h-18.57c-4.535,0-8.884,1.801-12.09,5.007l-23.461,23.461
		c-1.586,1.586-2.407,3.65-2.483,5.737L238.898,230.352L238.898,230.352z"/>
	<path style="fill:#00AAF0;" d="M238.898,230.352l21.909,80.334c2.373,1.167,5.116,1.167,7.489,0l21.909-80.334L238.898,230.352
		L238.898,230.352z"/>
</g>
<path d="M504.643,439.933l-61.052-61.051V93.534c0-13.851-11.268-25.119-25.119-25.119H298.756c-4.711,0-9.14-1.834-12.471-5.166
	L250.006,26.97c-6.36-6.36-14.815-9.862-23.809-9.862H25.119C11.268,17.108,0,28.376,0,42.227v359.148
	c0,13.851,11.268,25.119,25.119,25.119h370.859l61.052,61.052c4.897,4.897,11.329,7.345,17.762,7.345
	c6.433,0,12.865-2.449,17.762-7.345l12.089-12.089c4.744-4.744,7.357-11.052,7.357-17.762S509.387,444.677,504.643,439.933z
	 M238.668,38.308l30.108,30.108h-21.327c-4.711,0-9.14-1.834-12.471-5.166l-30.108-30.108h21.327
	C230.908,33.142,235.336,34.976,238.668,38.308z M174.89,33.142c4.711,0,9.14,1.835,12.471,5.166l30.108,30.108h-21.327
	c-4.711,0-9.14-1.834-12.471-5.166l-30.108-30.108C153.564,33.142,174.89,33.142,174.89,33.142z M25.119,410.461
	c-5.01,0-9.086-4.076-9.086-9.086V42.227c0-5.01,4.076-9.086,9.086-9.086h98.464c4.711,0,9.14,1.835,12.471,5.166l36.279,36.279
	c6.36,6.36,14.815,9.862,23.809,9.862h222.33c5.01,0,9.086,4.076,9.086,9.086v269.314l-9.893-9.893
	c-4.744-4.745-11.052-7.357-17.762-7.357c-6.709,0-13.018,2.612-17.762,7.357l-0.376,0.376l-21.449-21.448
	c19.884-22.528,31.968-52.091,31.968-84.429c0-70.433-57.3-127.733-127.733-127.733s-127.733,57.3-127.733,127.733
	s57.3,127.733,127.733,127.733c32.337,0,61.901-12.086,84.428-31.968l21.449,21.448l-0.376,0.376
	c-9.794,9.793-9.794,25.729,0,35.523l9.894,9.894H25.119V410.461z M264.551,359.154c-61.592,0-111.699-50.108-111.699-111.699
	s50.108-111.699,111.699-111.699s111.699,50.108,111.699,111.699S326.143,359.154,264.551,359.154z M493.305,464.119l-12.089,12.089
	c-3.543,3.542-9.307,3.542-12.849,0l-86.979-86.979c-3.542-3.542-3.542-9.307,0-12.849l12.089-12.09
	c1.716-1.716,3.998-2.66,6.425-2.66s4.708,0.945,6.424,2.66l86.979,86.979c1.716,1.717,2.662,3.998,2.662,6.424
	C495.967,460.122,495.022,462.403,493.305,464.119z"/>
<path d="M144.835,144.307c9.136,0,16.568-7.432,16.568-16.568v-17.102c0-9.136-7.432-16.568-16.568-16.568H59.324
	c-9.136,0-16.568,7.432-16.568,16.568v17.102c0,9.136,7.432,16.568,16.568,16.568H144.835z M58.789,127.739v-17.102
	c0-0.294,0.239-0.534,0.534-0.534h85.511c0.295,0,0.534,0.241,0.534,0.534v17.102c0,0.294-0.239,0.534-0.534,0.534H59.324
	C59.029,128.273,58.789,128.033,58.789,127.739z"/>
<path d="M127.733,162.478H59.324c-4.427,0-8.017,3.589-8.017,8.017s3.589,8.017,8.017,8.017h68.409c4.427,0,8.017-3.589,8.017-8.017
	S132.16,162.478,127.733,162.478z"/>
<path d="M347.18,224.683l-34.205-34.205c-1.503-1.504-3.542-2.348-5.668-2.348h-85.511c-2.126,0-4.165,0.844-5.668,2.348
	l-34.205,34.205c-3.015,3.015-3.143,7.862-0.29,11.032l76.96,85.512c1.52,1.689,3.687,2.653,5.959,2.653
	c2.272,0,4.438-0.964,5.959-2.653l76.96-85.512C350.322,232.546,350.195,227.698,347.18,224.683z M232.933,238.369l13.671,45.57
	l-41.012-45.57L232.933,238.369L232.933,238.369z M275.394,204.165l4.543,18.171h-30.772l4.543-18.171H275.394z M279.43,238.369
	l-14.879,49.596l-14.879-49.596H279.43z M296.169,238.369h27.341l-41.012,45.57L296.169,238.369z M322.157,222.336h-25.694
	l-4.543-18.171h12.066L322.157,222.336z M225.115,204.165h12.066l-4.543,18.171h-25.694L225.115,204.165z"/>
<g>
</g>
<g>
</g>
<g>
</g>
<g>
</g>
<g>
</g>
<g>
</g>
<g>
</g>
<g>
</g>
<g>
</g>
<g>
</g>
<g>
</g>
<g>
</g>
<g>
</g>
<g>
</g>
<g>
</g>
</svg>
