<?xml version="1.0" encoding="iso-8859-1"?>
<!-- Generator: Adobe Illustrator 19.0.0, SVG Export Plug-In . SVG Version: 6.00 Build 0)  -->
<svg version="1.1" id="Layer_1" xmlns="http://www.w3.org/2000/svg" xmlns:xlink="http://www.w3.org/1999/xlink" x="0px" y="0px"
	 viewBox="0 0 512 512" style="enable-background:new 0 0 512 512;" xml:space="preserve">
<path style="fill:#00C3FF;" d="M34.834,362.16c-9.772,0-17.693-7.921-17.693-17.693V25.987c0-9.772,7.921-17.693,17.693-17.693
	h442.333c9.772,0,17.693,7.921,17.693,17.693v318.479c0,9.772-7.921,17.693-17.693,17.693H34.834z"/>
<path style="fill:#9BF57D;" d="M432.933,247.153l-26.54,17.693v17.693h26.54c4.886,0,8.847,3.961,8.847,8.847l0,0h26.54v-17.693
	l-26.54-26.54H432.933z"/>
<path style="fill:#00AAF0;" d="M336.121,300.48c-1.658-0.166-3.301-0.247-4.924-0.247c-4.787,0-9.416,0.696-13.789,1.989
	c-7.088-5.81-15.842-9.621-25.52-10.589c-1.658-0.166-3.301-0.247-4.924-0.247c-4.742,0-9.38,0.673-13.804,1.975
	c-7.086-5.802-15.833-9.607-25.504-10.575c-0.167-0.017-0.334-0.032-0.501-0.048v-74.135c0-25.821-18.801-47.175-43.732-49.671
	c-1.658-0.166-3.301-0.247-4.923-0.247c-0.001,0-0.001,0-0.001,0c-12.997,0-25.216,5.06-34.406,14.251
	c-9.191,9.191-14.251,21.409-14.251,34.406V362.16h230.013v-12.009C379.853,324.329,361.052,302.976,336.121,300.48z"/>
<g>
	<path style="fill:#9BF57D;" d="M149.84,123.3h-17.693v4.423c0,7.328-5.942,13.27-13.27,13.27c-7.328,0-13.27-5.942-13.27-13.27
		V96.76v-8.847H17.14V123.3h13.786c7.617,0,14.378,4.873,16.787,12.098l17.637,52.91c3.012,9.036,10.634,15.764,19.974,17.632
		l11.437,2.288v-14.155c0-4.886,3.961-8.847,8.847-8.847H123.3l30.204-30.205c3.319-3.319,5.183-7.819,5.183-12.511v-10.364
		C158.687,127.261,154.726,123.3,149.84,123.3z"/>
	<path style="fill:#9BF57D;" d="M140.994,211.767H123.3v44.234c9.771-0.001,17.693,7.919,17.693,17.692v53.08l35.387-53.08V229.46
		L140.994,211.767z"/>
</g>
<polygon style="fill:#8CE16E;" points="149.84,313.503 176.38,273.693 176.38,229.46 149.84,216.19 "/>
<path style="fill:#9BF57D;" d="M445.444,87.914c-2.347,0-4.597-0.932-6.256-2.591l-12.51-12.51c-1.66-1.66-3.91-2.592-6.258-2.592
	h-22.874c-4.886,0-8.847-3.961-8.847-8.847v-8.847h-17.693l-97.313,53.08v26.54h-8.847c-9.772,0-17.693,7.921-17.693,17.693v8.847
	h26.54c4.886,0,8.847,3.961,8.847,8.847v17.693h-53.08c-4.886,0-8.847,3.961-8.847,8.847v35.387h17.693
	c9.772,0,17.693,7.921,17.693,17.693v33.956c18.404,5.97,35.387-7.586,35.387-25.109v-17.693l26.54-44.233h26.54v26.54l26.54-26.54
	l17.693,17.693l17.693-26.54c0-9.652,7.729-17.499,17.334-17.69c9.804-0.195,18.053-7.182,18.053-16.989v-9.554
	c0-4.886,3.961-8.847,8.847-8.847h44.233V87.914H445.444z"/>
<path style="fill:#8CE16E;" d="M247.153,231.914v-23.31c0-8.477-2.188-16.373-5.792-23.377H229.46c-4.886,0-8.847,3.961-8.847,8.847
	v35.387h17.693C241.547,229.46,244.542,230.394,247.153,231.914z"/>
<path style="fill:#F0C087;" d="M353.313,415.24v-65.089c0-11.569-8.325-22.111-19.836-23.263
	c-13.239-1.325-24.397,9.036-24.397,22.002v-7.586c0-11.569-8.325-22.111-19.836-23.263c-13.239-1.325-24.397,9.036-24.397,22.002
	v-7.586c0-11.569-8.325-22.111-19.836-23.263c-13.239-1.325-24.397,9.036-24.397,22.002V208.601
	c0-11.569-8.325-22.111-19.836-23.263c-13.239-1.325-24.397,9.036-24.397,22.002v207.896c0,48.859,39.608,88.467,88.467,88.467l0,0
	C313.706,503.706,353.313,464.099,353.313,415.24z"/>
<g>
	<path style="fill:#E6AF78;" d="M256,313.603c-4.409-3.332-10.031-5.139-16.164-4.333c-10.693,1.405-19.223,12.698-19.223,23.483
		v7.289c0,7.328,5.942,13.27,13.27,13.27l0,0c7.328,0,13.27-5.942,13.27-13.27v-8.847C247.153,323.984,250.659,317.64,256,313.603z"
		/>
	<path style="fill:#E6AF78;" d="M300.233,322.449c-4.409-3.332-10.031-5.139-16.164-4.333
		c-10.693,1.406-19.223,12.698-19.223,23.483v7.289c0,7.328,5.942,13.27,13.27,13.27l0,0c7.328,0,13.27-5.942,13.27-13.27v-8.847
		C291.387,332.831,294.892,326.487,300.233,322.449z"/>
	<path style="fill:#E6AF78;" d="M344.467,331.296c-4.409-3.332-10.031-5.139-16.164-4.333
		c-10.693,1.406-19.223,12.698-19.223,23.483v7.289c0,7.328,5.942,13.27,13.27,13.27l0,0c7.328,0,13.27-5.942,13.27-13.27v-8.847
		C335.62,341.678,339.125,335.333,344.467,331.296z"/>
	<path style="fill:#E6AF78;" d="M202.92,415.24V207.343c0-7.164,3.476-13.445,8.756-17.487c-3.073-2.445-6.768-4.103-10.898-4.516
		c-13.239-1.325-24.398,9.035-24.398,22.002v207.896c0,48.859,39.608,88.467,88.467,88.467c4.523,0,8.931-0.447,13.27-1.101
		C235.57,496.187,202.92,459.576,202.92,415.24z"/>
</g>
<path d="M477.166,0H34.834C20.504,0,8.847,11.658,8.847,25.987v318.479c0,14.329,11.658,25.987,25.987,25.987h133.253v44.786
	c0,53.354,43.406,96.76,96.76,96.76s96.76-43.406,96.76-96.76v-44.786h115.559c14.329,0,25.987-11.658,25.987-25.987V25.987
	C503.153,11.658,491.496,0,477.166,0z M450.626,123.853c-9.452,0-17.14,7.689-17.14,17.14v8.847c0,5.183-4.217,9.4-9.4,9.4
	c-13.409,0-24.479,10.21-25.846,23.263l-10.829,16.245l-10.54-10.54c-3.239-3.239-8.491-3.239-11.728,0l-12.383,12.383v-6.518
	c0-4.58-3.713-8.294-8.294-8.294h-26.54c-2.913,0-5.613,1.528-7.112,4.026l-26.54,44.233c-0.773,1.289-1.182,2.765-1.182,4.267V256
	c0,10.061-8.185,18.246-18.246,18.246h-0.553v-27.093c0-14.329-11.658-25.987-25.987-25.987h-9.4v-27.093
	c0-0.305,0.248-0.553,0.553-0.553h53.08c4.58,0,8.294-3.713,8.294-8.294v-17.693c0-9.452-7.689-17.14-17.14-17.14h-18.246v-0.553
	c0-5.183,4.217-9.4,9.4-9.4h8.847c4.58,0,8.294-3.713,8.294-8.294V110.53l91.135-49.709h7.284v0.553
	c0,9.452,7.689,17.14,17.14,17.14h22.876c0.147,0,0.286,0.058,0.391,0.161l12.51,12.51c3.238,3.238,7.542,5.02,12.12,5.02h41.121
	v27.646h-35.94V123.853z M247.153,166.981h26.54c0.305,0,0.553,0.248,0.553,0.553v9.4h-36.492v-0.553
	C237.754,171.197,241.97,166.981,247.153,166.981z M34.834,16.587h442.333c5.183,0,9.4,4.217,9.4,9.4V79.62h-41.123
	c-0.147,0-0.286-0.058-0.391-0.161l-12.51-12.511c-3.238-3.238-7.542-5.02-12.12-5.02h-22.875c-0.305,0-0.553-0.248-0.553-0.553
	v-8.847c0-4.58-3.713-8.294-8.294-8.294h-17.693c-1.388,0-2.754,0.348-3.971,1.013l-88.831,48.453
	c-1.42-1.764-3.198-3.26-5.269-4.368c-5.582-2.988-12.326-2.663-17.596,0.85l-12.786,8.525c-3.812,2.54-4.841,7.69-2.3,11.501
	c2.541,3.812,7.692,4.842,11.501,2.3l12.787-8.524c0.116-0.077,0.276-0.185,0.567-0.028c0.292,0.156,0.292,0.348,0.292,0.488v1.152
	c0,0.021,0,0.041,0,0.061v18.196h-0.553c-14.329,0-25.987,11.658-25.987,25.987v1.918c-10.273,3.47-17.693,13.193-17.693,24.622
	v2.696c-1.828,1.015-3.446,2.361-4.787,3.946c-4.235-3.249-9.29-5.385-14.775-5.934c-8.581-0.855-17.148,1.948-23.507,7.701
	c-6.362,5.757-10.011,13.978-10.011,22.553v8.697l-23.384-11.692c-1.152-0.576-2.421-0.876-3.709-0.876h-17.007l-18.933-3.155
	v-6.244c0-0.305,0.248-0.553,0.553-0.553H123.3c2.2,0,4.309-0.874,5.864-2.43l30.204-30.204c4.909-4.908,7.611-11.434,7.611-18.376
	v-10.365c0-9.452-7.689-17.14-17.14-17.14h-17.693c-4.58,0-8.294,3.713-8.294,8.294v4.423c0,2.744-2.233,4.976-4.976,4.976
	c-2.744,0-4.976-2.233-4.976-4.976V79.067c0-4.58-3.713-8.294-8.294-8.294s-8.293,3.713-8.293,8.294v0.553H25.434V25.987
	C25.434,20.804,29.651,16.587,34.834,16.587z M131.594,249.063V220.06h7.441l29.051,14.525v36.596l-18.799,28.199v-25.687
	C149.287,262.262,141.869,252.532,131.594,249.063z M25.434,96.207h71.879v31.516c0,11.89,9.674,21.564,21.564,21.564
	c10.57,0,19.387-7.644,21.216-17.693h9.747c0.305,0,0.553,0.248,0.553,0.553v10.365c0,2.511-0.978,4.871-2.754,6.647l-27.774,27.774
	h-14.259c-9.452,0-17.14,7.689-17.14,17.14v3.479l-1.121-0.187c-6.684-1.114-12.167-5.799-14.309-12.228l-17.454-52.363
	c-3.543-10.626-13.45-17.767-24.653-17.767h-5.494V96.207z M34.834,353.866c-5.183,0-9.4-4.217-9.4-9.4V131.594h5.494
	c4.053,0,7.636,2.583,8.917,6.427L57.3,190.383c4.09,12.273,14.559,21.218,27.32,23.344l30.387,5.065V256
	c0,4.58,3.713,8.294,8.294,8.294c5.183,0,9.4,4.217,9.4,9.4v53.08c0,3.655,2.393,6.878,5.891,7.938
	c0.794,0.24,1.603,0.356,2.403,0.356c2.721,0,5.335-1.344,6.901-3.693l20.192-30.289v52.781H34.834z M345.019,415.24
	c0,44.208-35.965,80.173-80.173,80.173s-80.173-35.965-80.173-80.173V273.668c0-0.01,0-0.021,0-0.031v-66.293
	c0-3.898,1.659-7.636,4.553-10.254c2.572-2.327,5.82-3.569,9.268-3.569c0.482,0,0.968,0.024,1.456,0.073
	c6.936,0.693,12.369,7.287,12.369,15.011v122.592c0,4.58,3.713,8.294,8.294,8.294s8.294-3.713,8.294-8.294
	c0-3.898,1.659-7.636,4.553-10.254c2.932-2.652,6.737-3.898,10.724-3.496c6.936,0.693,12.369,7.287,12.369,15.011v7.586
	c0,4.58,3.713,8.294,8.294,8.294s8.294-3.713,8.294-8.294c0-3.898,1.659-7.636,4.553-10.254c2.932-2.653,6.738-3.897,10.724-3.496
	c6.936,0.693,12.369,7.287,12.369,15.011v7.586c0,4.58,3.713,8.294,8.294,8.294s8.294-3.713,8.294-8.294
	c0-3.898,1.659-7.636,4.553-10.254c2.932-2.652,6.736-3.896,10.724-3.496c6.936,0.693,12.369,7.287,12.369,15.011V415.24z
	 M477.166,353.866H361.607v-3.716c0-16.14-11.993-29.982-27.303-31.516c-7.713-0.77-15.414,1.418-21.511,6.046
	c-4.857-8.15-13.139-13.932-22.723-14.892c-7.714-0.772-15.414,1.418-21.511,6.046c-4.857-8.15-13.139-13.932-22.723-14.892
	c-5.886-0.588-11.765,0.546-16.93,3.175v-66.362h9.4c5.183,0,9.4,4.217,9.4,9.4v35.387c0,4.58,3.713,8.294,8.294,8.294h8.847
	c19.207,0,34.834-15.626,34.834-34.834v-15.396l22.943-38.236h13.55v18.246c0,3.355,2.02,6.378,5.12,7.662
	c3.099,1.284,6.667,0.575,9.038-1.798l20.676-20.676l11.829,11.829c1.757,1.757,4.207,2.631,6.681,2.389
	c2.473-0.244,4.705-1.586,6.083-3.653l17.693-26.54c0.908-1.362,1.393-2.964,1.393-4.6c0-5.183,4.217-9.4,9.4-9.4
	c14.329,0,25.987-11.658,25.987-25.987v-8.847c0-0.305,0.248-0.553,0.553-0.553h13.121l-2.845,5.691
	c-2.049,4.097-0.388,9.079,3.709,11.127c1.191,0.596,2.456,0.877,3.702,0.877c3.042,0,5.971-1.681,7.425-4.586l6.554-13.109h4.274
	v204.026C486.566,349.65,482.349,353.866,477.166,353.866z"/>
<path d="M220.613,149.287c4.58,0,8.294-3.713,8.294-8.294v-8.847c0-4.58-3.713-8.294-8.294-8.294s-8.294,3.713-8.294,8.294v8.847
	C212.32,145.574,216.033,149.287,220.613,149.287z"/>
<path d="M61.374,69.667h17.693c4.58,0,8.294-3.713,8.294-8.294s-3.713-8.294-8.294-8.294H61.374c-4.58,0-8.294,3.713-8.294,8.294
	S56.793,69.667,61.374,69.667z"/>
<path d="M317.927,247.706c-4.58,0-8.294,3.713-8.294,8.294v8.847c0,4.58,3.713,8.294,8.294,8.294s8.294-3.713,8.294-8.294V256
	C326.22,251.42,322.507,247.706,317.927,247.706z"/>
<path d="M447.644,241.289c-1.555-1.556-3.665-2.43-5.864-2.43h-8.847c-1.637,0-3.238,0.484-4.6,1.393l-26.54,17.693
	c-2.307,1.538-3.693,4.127-3.693,6.9v17.693c0,4.58,3.713,8.294,8.294,8.294h26.54c0.305,0,0.553,0.248,0.553,0.553
	c0,4.58,3.713,8.294,8.294,8.294h26.54c4.58,0,8.294-3.713,8.294-8.294v-17.693c0-2.199-0.874-4.309-2.43-5.864L447.644,241.289z
	 M460.026,283.093H447.93c-2.926-5.271-8.551-8.847-14.997-8.847h-18.246v-4.961l20.758-13.838h2.901l21.681,21.681V283.093z"/>
<path d="M405.84,238.307c0-4.58-3.713-8.294-8.294-8.294h-6.888l-15.943-7.971c-4.097-2.049-9.078-0.388-11.127,3.709
	s-0.388,9.079,3.709,11.127l17.693,8.847c1.152,0.576,2.421,0.876,3.709,0.876h8.847C402.127,246.6,405.84,242.887,405.84,238.307z"
	/>
<path d="M424.086,228.907c4.58,0,8.294-3.713,8.294-8.294v-8.847c0-4.58-3.713-8.294-8.294-8.294s-8.294,3.713-8.294,8.294v8.847
	C415.793,225.194,419.506,228.907,424.086,228.907z"/>
<path d="M309.08,69.667c2.122,0,4.245-0.809,5.864-2.43l8.847-8.847c3.239-3.239,3.239-8.491,0-11.728
	c-3.239-3.239-8.491-3.239-11.728,0l-8.847,8.847c-3.239,3.239-3.239,8.491,0,11.728C304.835,68.858,306.958,69.667,309.08,69.667z"
	/>
<path d="M135.129,93.778c1.619,1.62,3.742,2.43,5.864,2.43c2.122,0,4.245-0.809,5.864-2.43c3.239-3.239,3.239-8.491,0-11.728
	l-8.847-8.847c-3.239-3.239-8.491-3.239-11.728,0c-3.239,3.239-3.239,8.491,0,11.728L135.129,93.778z"/>
<circle cx="105.607" cy="52.527" r="8.294"/>
<g>
</g>
<g>
</g>
<g>
</g>
<g>
</g>
<g>
</g>
<g>
</g>
<g>
</g>
<g>
</g>
<g>
</g>
<g>
</g>
<g>
</g>
<g>
</g>
<g>
</g>
<g>
</g>
<g>
</g>
</svg>
