<?xml version="1.0" encoding="iso-8859-1"?>
<!-- Generator: Adobe Illustrator 19.0.0, SVG Export Plug-In . SVG Version: 6.00 Build 0)  -->
<svg version="1.1" id="Layer_1" xmlns="http://www.w3.org/2000/svg" xmlns:xlink="http://www.w3.org/1999/xlink" x="0px" y="0px"
	 viewBox="0 0 512.001 512.001" style="enable-background:new 0 0 512.001 512.001;" xml:space="preserve">
<path style="fill:#D5DCED;" d="M33.67,136.284h256.534c14.168,0,25.653,11.485,25.653,25.653v136.818
	c0,14.168-11.485,25.653-25.653,25.653H127.733l-47.786,47.786c-7.611,7.611-20.623,2.22-20.623-8.543V324.41H33.67
	c-14.168,0-25.653-11.485-25.653-25.653V161.938C8.017,147.77,19.502,136.284,33.67,136.284z"/>
<path style="fill:#C7CFE2;" d="M171.439,324.41h118.766c14.168,0,25.653-11.485,25.653-25.653V161.938h-93.112
	c-28.336,0-51.307,22.971-51.307,51.307V324.41z"/>
<path style="fill:#9BF57D;" d="M478.33,187.591H221.795c-14.168,0-25.653,11.485-25.653,25.653v136.818
	c0,14.168,11.485,25.653,25.653,25.653h162.472l47.786,47.786c7.611,7.611,20.623,2.22,20.623-8.543v-39.243h25.653
	c14.168,0,25.653-11.485,25.653-25.653V213.245C503.983,199.077,492.498,187.591,478.33,187.591z"/>
<path d="M478.33,179.575H323.875v-17.637c0-18.566-15.105-33.67-33.67-33.67H117.14C152.826,89.354,202.562,67.341,256,67.341
	c56.674,0,109.877,25.37,145.574,68.649l-20.078-6.944c-4.187-1.447-8.75,0.773-10.197,4.956c-1.447,4.185,0.773,8.75,4.956,10.197
	l47.123,16.295c0.855,0.296,1.74,0.44,2.619,0.44c1.856,0,3.686-0.645,5.15-1.872c2.159-1.809,3.21-4.617,2.77-7.399l-7.798-49.247
	c-0.693-4.373-4.8-7.358-9.172-6.665c-4.373,0.693-7.357,4.799-6.665,9.172l3.222,20.347C374.783,78.635,317.264,51.307,256,51.307
	c-32.35,0-63.3,7.33-91.992,21.788c-26.17,13.187-49.576,32.221-67.942,55.172H33.67c-18.566,0-33.67,15.105-33.67,33.67v136.818
	c0,18.566,15.105,33.67,33.67,33.67h17.637v31.227c0,8.158,4.87,15.445,12.407,18.568c2.501,1.036,5.119,1.539,7.712,1.539
	c5.219,0,10.336-2.043,14.191-5.897l45.437-45.437h57.072v17.637c0,18.566,15.105,33.67,33.67,33.67h159.152l7.056,7.056
	C352.541,425.568,305.864,444.66,256,444.66c-45.021,0-87.444-15.565-121.36-44.186l23.815,4.031
	c4.37,0.741,8.504-2.202,9.242-6.567c0.738-4.365-2.202-8.503-6.567-9.242l-49.163-8.319c-2.778-0.47-5.596,0.552-7.428,2.69
	c-1.831,2.139-2.406,5.083-1.515,7.753l15.794,47.294c1.121,3.357,4.248,5.479,7.603,5.479c0.842,0,1.698-0.134,2.541-0.415
	c4.2-1.402,6.467-5.944,5.064-10.144l-5.665-16.962c36.103,28.934,80.561,44.621,127.639,44.621
	c54.159,0,104.853-20.757,143.342-58.566l27.043,27.043c3.853,3.853,8.971,5.897,14.191,5.897c2.592,0,5.211-0.505,7.712-1.539
	c7.537-3.122,12.407-10.41,12.407-18.568v-31.228h17.637c18.566,0,33.67-15.105,33.67-33.67V213.245
	C512,194.679,496.895,179.575,478.33,179.575z M127.733,316.393c-2.126,0-4.165,0.844-5.668,2.348l-47.786,47.786
	c-1.734,1.733-3.675,1.193-4.429,0.881s-2.509-1.304-2.509-3.755V324.41c0-4.427-3.589-8.017-8.017-8.017H33.67
	c-9.725,0-17.637-7.912-17.637-17.637V161.938c0-9.725,7.912-17.637,17.637-17.637h256.534c9.725,0,17.637,7.912,17.637,17.637
	v17.637h-86.046c-18.566,0-33.67,15.105-33.67,33.67v103.148H127.733z M495.967,350.063c0,9.725-7.912,17.637-17.637,17.637h-25.653
	c-4.427,0-8.017,3.589-8.017,8.017v39.243c0,2.451-1.755,3.442-2.509,3.755c-0.754,0.312-2.696,0.852-4.43-0.881l-47.786-47.786
	c-1.503-1.504-3.542-2.348-5.668-2.348H221.795c-9.725,0-17.637-7.912-17.637-17.637V213.245c0-9.725,7.912-17.637,17.637-17.637
	H478.33c9.725,0,17.637,7.912,17.637,17.637V350.063z"/>
<path d="M50.772,187.057h25.652c4.427,0,8.017-3.589,8.017-8.017s-3.589-8.017-8.017-8.017H50.772c-4.427,0-8.017,3.589-8.017,8.017
	S46.345,187.057,50.772,187.057z"/>
<path d="M170.489,171.023h-59.86c-4.427,0-8.017,3.588-8.017,8.017c0,4.427,3.589,8.017,8.017,8.017h59.86
	c4.427,0,8.017-3.589,8.017-8.017C178.505,174.612,174.916,171.023,170.489,171.023z"/>
<path d="M50.772,221.261h59.854c4.427,0,8.017-3.589,8.017-8.017s-3.589-8.017-8.017-8.017H50.772c-4.427,0-8.017,3.589-8.017,8.017
	S46.345,221.261,50.772,221.261z"/>
<path d="M161.937,205.228h-17.103c-4.427,0-8.017,3.589-8.017,8.017s3.589,8.017,8.017,8.017h17.103
	c4.427,0,8.017-3.589,8.017-8.017S166.365,205.228,161.937,205.228z"/>
<path d="M161.937,239.433H50.772c-4.427,0-8.017,3.589-8.017,8.017c0,4.427,3.589,8.017,8.017,8.017h111.165
	c4.427,0,8.017-3.589,8.017-8.017C169.954,243.022,166.365,239.433,161.937,239.433z"/>
<path d="M76.425,273.637H50.772c-4.427,0-8.017,3.589-8.017,8.017c0,4.427,3.589,8.017,8.017,8.017h25.652
	c4.427,0,8.017-3.589,8.017-8.017C84.442,277.227,80.852,273.637,76.425,273.637z"/>
<path d="M161.937,273.637h-51.309c-4.427,0-8.017,3.589-8.017,8.017c0,4.427,3.589,8.017,8.017,8.017h51.309
	c4.427,0,8.017-3.589,8.017-8.017C169.954,277.227,166.365,273.637,161.937,273.637z"/>
<path d="M431.833,258.138c-3.541-2.656-8.567-1.938-11.223,1.603l-19.24,25.653l-19.24-25.653c-2.657-3.541-7.681-4.26-11.223-1.603
	c-3.541,2.656-4.26,7.682-1.603,11.223l22.046,29.395l-22.046,29.395c-2.656,3.541-1.938,8.567,1.603,11.223
	c1.442,1.082,3.13,1.603,4.804,1.603c2.437,0,4.845-1.107,6.42-3.207l19.24-25.653l19.24,25.653c1.576,2.1,3.983,3.207,6.42,3.207
	c1.674,0,3.362-0.523,4.804-1.603c3.541-2.656,4.26-7.682,1.603-11.223l-22.046-29.395l22.046-29.395
	C436.093,265.82,435.374,260.795,431.833,258.138z"/>
<path d="M444.125,222.33h-85.511c-3.037,0-5.813,1.716-7.17,4.432l-48.412,96.824l-22.759-45.517
	c-1.357-2.716-4.133-4.432-7.17-4.432h-25.653c-4.427,0-8.017,3.589-8.017,8.017c0,4.427,3.589,8.017,8.017,8.017h20.699
	l23.438,46.875c1.357,2.716,4.133,4.432,7.17,4.432h8.551c3.037,0,5.813-1.716,7.17-4.432l49.091-98.182h80.557
	c4.427,0,8.017-3.589,8.017-8.017C452.142,225.92,448.553,222.33,444.125,222.33z"/>
<g>
</g>
<g>
</g>
<g>
</g>
<g>
</g>
<g>
</g>
<g>
</g>
<g>
</g>
<g>
</g>
<g>
</g>
<g>
</g>
<g>
</g>
<g>
</g>
<g>
</g>
<g>
</g>
<g>
</g>
</svg>
