<?xml version="1.0" encoding="iso-8859-1"?>
<!-- Generator: Adobe Illustrator 19.0.0, SVG Export Plug-In . SVG Version: 6.00 Build 0)  -->
<svg version="1.1" id="Layer_1" xmlns="http://www.w3.org/2000/svg" xmlns:xlink="http://www.w3.org/1999/xlink" x="0px" y="0px"
	 viewBox="0 0 512 512" style="enable-background:new 0 0 512 512;" xml:space="preserve">
<path style="fill:#00C3FF;" d="M478.33,298.756H238.898c-14.168,0-25.653-11.485-25.653-25.653V102.079
	c0-14.168,11.485-25.653,25.653-25.653H478.33c14.168,0,25.653,11.485,25.653,25.653v171.023
	C503.983,287.27,492.498,298.756,478.33,298.756z"/>
<circle style="fill:#80DAC0;" cx="439.85" cy="140.56" r="47.031"/>
<path style="fill:#8CE16E;" d="M302.297,148.377c-6.678-6.678-17.507-6.678-24.186,0l-64.867,64.867v59.858
	c0,14.168,11.485,25.653,25.653,25.653h213.779L302.297,148.377z"/>
<path style="fill:#9BF57D;" d="M478.33,298.756c11.595,0,21.277-7.742,24.455-18.302l-97.873-97.873
	c-6.678-6.678-17.507-6.678-24.186,0L264.551,298.756H478.33z"/>
<circle style="fill:#FFF082;" cx="439.85" cy="140.56" r="21.378"/>
<path style="fill:#0096DC;" d="M324.409,298.756h-85.511c-14.168,0-25.653-11.485-25.653-25.653v-85.511h59.858
	c28.336,0,51.307,22.971,51.307,51.307V298.756z"/>
<path style="fill:#7DC86E;" d="M273.102,187.591h-34.205l-25.653,25.653v59.858c0,14.168,11.485,25.653,25.653,25.653h85.511
	v-59.858C324.409,210.561,301.439,187.591,273.102,187.591z"/>
<polygon style="fill:#8CE16E;" points="264.551,298.756 324.409,298.756 324.409,238.898 "/>
<path style="fill:#FFC850;" d="M273.102,435.574H33.67c-14.168,0-25.653-11.485-25.653-25.653V238.898
	c0-14.168,11.485-25.653,25.653-25.653h239.432c14.168,0,25.653,11.485,25.653,25.653v171.023
	C298.756,424.089,287.27,435.574,273.102,435.574z"/>
<path d="M478.33,68.409H238.898c-18.566,0-33.67,15.105-33.67,33.67v103.148H33.67c-18.566,0-33.67,15.105-33.67,33.67v171.023
	c0,18.566,15.105,33.67,33.67,33.67h239.432c18.566,0,33.67-15.105,33.67-33.67V306.772H478.33c18.566,0,33.67-15.105,33.67-33.67
	V102.079C512,83.514,496.895,68.409,478.33,68.409z M238.898,84.443H478.33c9.725,0,17.637,7.912,17.637,17.637V262.3
	l-85.386-85.386c-4.744-4.744-11.052-7.357-17.762-7.357c-6.709,0-13.018,2.613-17.762,7.357l-16.443,16.443l-50.647-50.647
	c-4.744-4.744-11.052-7.357-17.762-7.357c-6.709,0-13.018,2.613-17.762,7.357l-51.182,51.182v-91.812
	C221.261,92.355,229.173,84.443,238.898,84.443z M273.102,205.228h-40.505l51.182-51.182c1.716-1.716,3.998-2.662,6.425-2.662
	c2.427,0,4.708,0.945,6.424,2.662l50.647,50.647l-40.504,40.505v-6.3C306.772,220.332,291.668,205.228,273.102,205.228z
	 M290.739,409.921c0,9.725-7.912,17.637-17.637,17.637H33.67c-9.725,0-17.637-7.912-17.637-17.637V238.898
	c0-9.725,7.912-17.637,17.637-17.637h239.432c9.725,0,17.637,7.912,17.637,17.637V409.921z M478.33,290.739H306.772v-22.868
	l79.621-79.621c1.716-1.716,3.998-2.662,6.425-2.662c2.427,0,4.708,0.945,6.424,2.662l94.085,94.085
	C490.218,287.368,484.667,290.739,478.33,290.739z"/>
<path d="M135.265,266.401c-3.001-10.845-12.957-18.418-24.209-18.418H93.103c-11.252,0-21.207,7.574-24.208,18.418L34.495,390.681
	c-1.181,4.267,1.32,8.684,5.588,9.865c4.266,1.181,8.684-1.32,9.865-5.588l7.84-28.326h88.583l7.84,28.326
	c0.982,3.552,4.207,5.88,7.722,5.88c0.709,0,1.428-0.094,2.143-0.293c4.267-1.181,6.769-5.598,5.588-9.865L135.265,266.401z
	 M62.226,350.597l22.121-79.919c1.085-3.922,4.686-6.661,8.755-6.661h17.954c4.07,0,7.67,2.74,8.756,6.661l22.121,79.919H62.226z"/>
<path d="M264.551,384.802c-0.295,0-0.534-0.239-0.534-0.534v-25.653v-8.551v-34.205c0-4.427-3.589-8.017-8.017-8.017
	c-4.427,0-8.017,3.589-8.017,8.017v1.123c-7.203-5.714-16.301-9.14-26.188-9.14c-23.281,0-42.221,18.941-42.221,42.221v8.551
	c0,23.28,18.941,42.221,42.221,42.221c10.482,0,20.076-3.848,27.466-10.195c2.502,5.98,8.411,10.195,15.289,10.195
	c4.427,0,8.017-3.589,8.017-8.017C272.568,388.391,268.979,384.802,264.551,384.802z M221.795,384.802
	c-14.44,0-26.188-11.748-26.188-26.188v-8.551c0-14.44,11.748-26.188,26.188-26.188s26.188,11.748,26.188,26.188v8.551
	C247.983,373.053,236.235,384.802,221.795,384.802z"/>
<path d="M439.85,169.954c16.209,0,29.395-13.186,29.395-29.395s-13.186-29.395-29.395-29.395s-29.395,13.186-29.395,29.395
	S423.641,169.954,439.85,169.954z M439.85,127.198c7.368,0,13.361,5.993,13.361,13.361s-5.993,13.361-13.361,13.361
	s-13.361-5.993-13.361-13.361S432.482,127.198,439.85,127.198z"/>
<g>
</g>
<g>
</g>
<g>
</g>
<g>
</g>
<g>
</g>
<g>
</g>
<g>
</g>
<g>
</g>
<g>
</g>
<g>
</g>
<g>
</g>
<g>
</g>
<g>
</g>
<g>
</g>
<g>
</g>
</svg>
