<?xml version="1.0" encoding="iso-8859-1"?>
<!-- Generator: Adobe Illustrator 19.0.0, SVG Export Plug-In . SVG Version: 6.00 Build 0)  -->
<svg version="1.1" id="Layer_1" xmlns="http://www.w3.org/2000/svg" xmlns:xlink="http://www.w3.org/1999/xlink" x="0px" y="0px"
	 viewBox="0 0 512 512" style="enable-background:new 0 0 512 512;" xml:space="preserve">
<g>
	<path style="fill:#E4EAF8;" d="M478.33,486.881H33.67c-14.168,0-25.653-11.485-25.653-25.653V307.307
		c0-14.168,11.485-25.653,25.653-25.653h444.66c14.168,0,25.653,11.485,25.653,25.653v153.921
		C503.983,475.396,492.498,486.881,478.33,486.881z"/>
	<path style="fill:#E4EAF8;" d="M136.284,25.119c-9.445,0-17.102,7.656-17.102,17.102c0-9.446-7.658-17.102-17.102-17.102H8.017
		V179.04h94.063c9.445,0,17.102,7.656,17.102,17.102c0-9.446,7.658-17.102,17.102-17.102h94.063V25.119H136.284z"/>
	<path style="fill:#E4EAF8;" d="M495.432,179.04H290.205c-4.722,0-8.551-3.829-8.551-8.551V33.67c0-4.722,3.829-8.551,8.551-8.551
		h205.228c4.722,0,8.551,3.829,8.551,8.551v136.818C503.983,175.211,500.155,179.04,495.432,179.04z"/>
</g>
<path d="M358.614,444.66H153.386c-4.427,0-8.017,3.589-8.017,8.017c0,4.427,3.589,8.017,8.017,8.017h205.228
	c4.427,0,8.017-3.589,8.017-8.017C366.63,448.249,363.041,444.66,358.614,444.66z"/>
<path d="M119.182,444.66h-17.102c-4.427,0-8.017,3.589-8.017,8.017c0,4.427,3.589,8.017,8.017,8.017h17.102
	c4.427,0,8.017-3.589,8.017-8.017C127.198,448.249,123.609,444.66,119.182,444.66z"/>
<path d="M67.875,444.66H50.772c-4.427,0-8.017,3.589-8.017,8.017c0,4.427,3.589,8.017,8.017,8.017h17.102
	c4.427,0,8.017-3.589,8.017-8.017C75.891,448.249,72.302,444.66,67.875,444.66z"/>
<path d="M461.228,444.66h-17.102c-4.427,0-8.017,3.589-8.017,8.017c0,4.427,3.589,8.017,8.017,8.017h17.102
	c4.427,0,8.017-3.589,8.017-8.017C469.244,448.249,465.655,444.66,461.228,444.66z"/>
<path d="M409.921,444.66h-17.102c-4.427,0-8.017,3.589-8.017,8.017c0,4.427,3.589,8.017,8.017,8.017h17.102
	c4.427,0,8.017-3.589,8.017-8.017C417.937,448.249,414.348,444.66,409.921,444.66z"/>
<path d="M427.023,426.489h34.205c4.427,0,8.017-3.589,8.017-8.017c0-4.427-3.589-8.017-8.017-8.017h-34.205
	c-4.427,0-8.017,3.589-8.017,8.017C419.006,422.899,422.596,426.489,427.023,426.489z"/>
<path d="M375.716,426.489h17.102c4.427,0,8.017-3.589,8.017-8.017c0-4.427-3.589-8.017-8.017-8.017h-17.102
	c-4.427,0-8.017,3.589-8.017,8.017C367.699,422.899,371.289,426.489,375.716,426.489z"/>
<path d="M324.409,426.489h17.102c4.427,0,8.017-3.589,8.017-8.017c0-4.427-3.589-8.017-8.017-8.017h-17.102
	c-4.427,0-8.017,3.589-8.017,8.017C316.392,422.899,319.982,426.489,324.409,426.489z"/>
<path d="M273.102,426.489h17.102c4.427,0,8.017-3.589,8.017-8.017c0-4.427-3.589-8.017-8.017-8.017h-17.102
	c-4.427,0-8.017,3.589-8.017,8.017C265.086,422.899,268.675,426.489,273.102,426.489z"/>
<path d="M221.795,426.489h17.102c4.427,0,8.017-3.589,8.017-8.017c0-4.427-3.589-8.017-8.017-8.017h-17.102
	c-4.427,0-8.017,3.589-8.017,8.017C213.779,422.899,217.368,426.489,221.795,426.489z"/>
<path d="M170.489,426.489h17.102c4.427,0,8.017-3.589,8.017-8.017c0-4.427-3.589-8.017-8.017-8.017h-17.102
	c-4.427,0-8.017,3.589-8.017,8.017C162.472,422.899,166.061,426.489,170.489,426.489z"/>
<path d="M136.284,410.455h-17.102c-4.427,0-8.017,3.589-8.017,8.017c0,4.427,3.589,8.017,8.017,8.017h17.102
	c4.427,0,8.017-3.589,8.017-8.017C144.301,414.044,140.711,410.455,136.284,410.455z"/>
<path d="M84.977,410.455H50.772c-4.427,0-8.017,3.589-8.017,8.017c0,4.427,3.589,8.017,8.017,8.017h34.205
	c4.427,0,8.017-3.589,8.017-8.017C92.994,414.044,89.404,410.455,84.977,410.455z"/>
<path d="M427.023,358.079h34.205c4.427,0,8.017-3.589,8.017-8.017c0-4.427-3.589-8.017-8.017-8.017h-34.205
	c-4.427,0-8.017,3.589-8.017,8.017C419.006,354.49,422.596,358.079,427.023,358.079z"/>
<path d="M375.716,358.079h17.102c4.427,0,8.017-3.589,8.017-8.017c0-4.427-3.589-8.017-8.017-8.017h-17.102
	c-4.427,0-8.017,3.589-8.017,8.017C367.699,354.49,371.289,358.079,375.716,358.079z"/>
<path d="M324.409,358.079h17.102c4.427,0,8.017-3.589,8.017-8.017c0-4.427-3.589-8.017-8.017-8.017h-17.102
	c-4.427,0-8.017,3.589-8.017,8.017C316.392,354.49,319.982,358.079,324.409,358.079z"/>
<path d="M273.102,358.079h17.102c4.427,0,8.017-3.589,8.017-8.017c0-4.427-3.589-8.017-8.017-8.017h-17.102
	c-4.427,0-8.017,3.589-8.017,8.017C265.086,354.49,268.675,358.079,273.102,358.079z"/>
<path d="M221.795,358.079h17.102c4.427,0,8.017-3.589,8.017-8.017c0-4.427-3.589-8.017-8.017-8.017h-17.102
	c-4.427,0-8.017,3.589-8.017,8.017C213.779,354.49,217.368,358.079,221.795,358.079z"/>
<path d="M170.489,358.079h17.102c4.427,0,8.017-3.589,8.017-8.017c0-4.427-3.589-8.017-8.017-8.017h-17.102
	c-4.427,0-8.017,3.589-8.017,8.017C162.472,354.49,166.061,358.079,170.489,358.079z"/>
<path d="M119.182,358.079h17.102c4.427,0,8.017-3.589,8.017-8.017c0-4.427-3.589-8.017-8.017-8.017h-17.102
	c-4.427,0-8.017,3.589-8.017,8.017C111.165,354.49,114.754,358.079,119.182,358.079z"/>
<path d="M50.772,358.079h34.205c4.427,0,8.017-3.589,8.017-8.017c0-4.427-3.589-8.017-8.017-8.017H50.772
	c-4.427,0-8.017,3.589-8.017,8.017C42.756,354.49,46.345,358.079,50.772,358.079z"/>
<path d="M461.228,376.251h-17.102c-4.427,0-8.017,3.589-8.017,8.017c0,4.427,3.589,8.017,8.017,8.017h17.102
	c4.427,0,8.017-3.589,8.017-8.017C469.244,379.84,465.655,376.251,461.228,376.251z"/>
<path d="M409.921,376.251h-17.102c-4.427,0-8.017,3.589-8.017,8.017c0,4.427,3.589,8.017,8.017,8.017h17.102
	c4.427,0,8.017-3.589,8.017-8.017C417.937,379.84,414.348,376.251,409.921,376.251z"/>
<path d="M358.614,376.251h-17.102c-4.427,0-8.017,3.589-8.017,8.017c0,4.427,3.589,8.017,8.017,8.017h17.102
	c4.427,0,8.017-3.589,8.017-8.017C366.63,379.84,363.041,376.251,358.614,376.251z"/>
<path d="M307.307,376.251h-17.102c-4.427,0-8.017,3.589-8.017,8.017c0,4.427,3.589,8.017,8.017,8.017h17.102
	c4.427,0,8.017-3.589,8.017-8.017C315.324,379.84,311.734,376.251,307.307,376.251z"/>
<path d="M230.881,384.267c0,4.427,3.589,8.017,8.017,8.017H256c4.427,0,8.017-3.589,8.017-8.017c0-4.427-3.589-8.017-8.017-8.017
	h-17.102C234.47,376.251,230.881,379.84,230.881,384.267z"/>
<path d="M204.693,376.251h-17.102c-4.427,0-8.017,3.589-8.017,8.017c0,4.427,3.589,8.017,8.017,8.017h17.102
	c4.427,0,8.017-3.589,8.017-8.017C212.71,379.84,209.12,376.251,204.693,376.251z"/>
<path d="M153.386,376.251h-17.102c-4.427,0-8.017,3.589-8.017,8.017c0,4.427,3.589,8.017,8.017,8.017h17.102
	c4.427,0,8.017-3.589,8.017-8.017C161.403,379.84,157.814,376.251,153.386,376.251z"/>
<path d="M50.772,392.284h51.307c4.427,0,8.017-3.589,8.017-8.017c0-4.427-3.589-8.017-8.017-8.017H50.772
	c-4.427,0-8.017,3.589-8.017,8.017C42.756,388.695,46.345,392.284,50.772,392.284z"/>
<path d="M444.125,323.875h17.102c4.427,0,8.017-3.589,8.017-8.017c0-4.427-3.589-8.017-8.017-8.017h-17.102
	c-4.427,0-8.017,3.589-8.017,8.017C436.109,320.285,439.698,323.875,444.125,323.875z"/>
<path d="M392.818,323.875h17.102c4.427,0,8.017-3.589,8.017-8.017c0-4.427-3.589-8.017-8.017-8.017h-17.102
	c-4.427,0-8.017,3.589-8.017,8.017C384.802,320.285,388.391,323.875,392.818,323.875z"/>
<path d="M341.511,323.875h17.102c4.427,0,8.017-3.589,8.017-8.017c0-4.427-3.589-8.017-8.017-8.017h-17.102
	c-4.427,0-8.017,3.589-8.017,8.017C333.495,320.285,337.084,323.875,341.511,323.875z"/>
<path d="M290.205,323.875h17.102c4.427,0,8.017-3.589,8.017-8.017c0-4.427-3.589-8.017-8.017-8.017h-17.102
	c-4.427,0-8.017,3.589-8.017,8.017C282.188,320.285,285.777,323.875,290.205,323.875z"/>
<path d="M238.898,307.841c-4.427,0-8.017,3.589-8.017,8.017c0,4.427,3.589,8.017,8.017,8.017H256c4.427,0,8.017-3.589,8.017-8.017
	c0-4.427-3.589-8.017-8.017-8.017H238.898z"/>
<path d="M187.591,323.875h17.102c4.427,0,8.017-3.589,8.017-8.017c0-4.427-3.589-8.017-8.017-8.017h-17.102
	c-4.427,0-8.017,3.589-8.017,8.017C179.574,320.285,183.163,323.875,187.591,323.875z"/>
<path d="M136.284,323.875h17.102c4.427,0,8.017-3.589,8.017-8.017c0-4.427-3.589-8.017-8.017-8.017h-17.102
	c-4.427,0-8.017,3.589-8.017,8.017C128.267,320.285,131.857,323.875,136.284,323.875z"/>
<path d="M50.772,323.875h51.307c4.427,0,8.017-3.589,8.017-8.017c0-4.427-3.589-8.017-8.017-8.017H50.772
	c-4.427,0-8.017,3.589-8.017,8.017C42.756,320.285,46.345,323.875,50.772,323.875z"/>
<path d="M84.977,59.858H42.221c-4.427,0-8.017,3.589-8.017,8.017s3.589,8.017,8.017,8.017h42.756c4.427,0,8.017-3.589,8.017-8.017
	S89.404,59.858,84.977,59.858z"/>
<path d="M84.977,128.267H42.221c-4.427,0-8.017,3.589-8.017,8.017c0,4.427,3.589,8.017,8.017,8.017h42.756
	c4.427,0,8.017-3.589,8.017-8.017C92.994,131.857,89.404,128.267,84.977,128.267z"/>
<path d="M84.977,94.063H42.221c-4.427,0-8.017,3.589-8.017,8.017c0,4.427,3.589,8.017,8.017,8.017h42.756
	c4.427,0,8.017-3.589,8.017-8.017C92.994,97.652,89.404,94.063,84.977,94.063z"/>
<path d="M153.386,75.891h42.756c4.427,0,8.017-3.589,8.017-8.017s-3.589-8.017-8.017-8.017h-42.756
	c-4.427,0-8.017,3.589-8.017,8.017S148.959,75.891,153.386,75.891z"/>
<path d="M153.386,144.301h42.756c4.427,0,8.017-3.589,8.017-8.017c0-4.427-3.589-8.017-8.017-8.017h-42.756
	c-4.427,0-8.017,3.589-8.017,8.017C145.37,140.711,148.959,144.301,153.386,144.301z"/>
<path d="M153.386,110.096h42.756c4.427,0,8.017-3.589,8.017-8.017c0-4.427-3.589-8.017-8.017-8.017h-42.756
	c-4.427,0-8.017,3.589-8.017,8.017C145.37,106.507,148.959,110.096,153.386,110.096z"/>
<path d="M406.654,67.34h63.125c4.427,0,8.017-3.589,8.017-8.017s-3.589-8.017-8.017-8.017h-63.125
	c-6.316,0-11.994,3.509-14.819,9.158l-33.221,66.443l-16.12-32.239c-2.824-5.649-8.502-9.158-14.818-9.158h-11.818
	c-4.427,0-8.017,3.589-8.017,8.017c0,4.427,3.589,8.017,8.017,8.017h11.818c0.203,0,0.387,0.113,0.478,0.295l23.29,46.58
	c1.357,2.716,4.133,4.432,7.17,4.432c3.037,0,5.813-1.716,7.17-4.432l40.392-80.784C406.267,67.454,406.45,67.34,406.654,67.34z"/>
<path d="M466.359,87.369c-3.401-2.834-8.456-2.375-11.291,1.026L439.85,106.66l-15.219-18.263
	c-2.835-3.402-7.891-3.861-11.291-1.026c-3.401,2.835-3.861,7.889-1.026,11.291l17.101,20.522l-17.101,20.522
	c-2.835,3.401-2.375,8.456,1.026,11.291c1.499,1.248,3.318,1.858,5.127,1.858c2.296,0,4.577-0.982,6.163-2.885l15.219-18.263
	l15.219,18.263c1.585,1.903,3.866,2.885,6.163,2.885c1.81,0,3.63-0.609,5.127-1.858c3.401-2.835,3.861-7.89,1.026-11.291
	l-17.1-20.523l17.101-20.522C470.221,95.259,469.761,90.204,466.359,87.369z"/>
<path d="M375.716,238.363c13.851,0,25.119-11.268,25.119-25.119v-26.188h94.597c9.136,0,16.568-7.432,16.568-16.568V33.67
	c0-9.136-7.432-16.568-16.568-16.568H290.205c-9.136,0-16.568,7.432-16.568,16.568v136.818c0,9.136,7.432,16.568,16.568,16.568
	h94.597v26.188c0,5.01-4.076,9.086-9.086,9.086H136.284c-5.01,0-9.086-4.076-9.086-9.086v-17.102c0-5.01,4.076-9.086,9.086-9.086
	h94.063c4.427,0,8.017-3.589,8.017-8.017V25.119c0-4.427-3.589-8.017-8.017-8.017h-94.063c-6.603,0-12.614,2.564-17.102,6.745
	c-4.488-4.18-10.5-6.745-17.102-6.745H8.017C3.589,17.102,0,20.692,0,25.119V179.04c0,4.427,3.589,8.017,8.017,8.017h94.063
	c5.01,0,9.086,4.076,9.086,9.086v17.102c0,13.851,11.268,25.119,25.119,25.119h111.769l-0.057,35.273H33.67
	c-18.566,0-33.67,15.105-33.67,33.67v153.921c0,18.566,15.105,33.67,33.67,33.67h444.66c18.566,0,33.67-15.105,33.67-33.67V307.307
	c0-18.566-15.105-33.67-33.67-33.67h-214.3l0.057-35.273H375.716z M289.67,170.489V33.67c0-0.295,0.239-0.534,0.534-0.534h205.228
	c0.295,0,0.534,0.239,0.534,0.534v136.818c0,0.295-0.239,0.534-0.534,0.534H290.205C289.91,171.023,289.67,170.784,289.67,170.489z
	 M136.284,33.136h86.046v137.887h-86.046c-3.202,0-6.267,0.602-9.086,1.7V42.221C127.198,37.211,131.274,33.136,136.284,33.136z
	 M102.079,171.023H16.033V33.136h86.046c5.01,0,9.086,4.076,9.086,9.086v130.501C108.346,171.625,105.282,171.023,102.079,171.023z
	 M495.967,307.307v153.921c0,9.725-7.912,17.637-17.637,17.637H33.67c-9.725,0-17.637-7.912-17.637-17.637V307.307
	c0-9.725,7.912-17.637,17.637-17.637h444.66C488.055,289.67,495.967,297.582,495.967,307.307z"/>
<g>
</g>
<g>
</g>
<g>
</g>
<g>
</g>
<g>
</g>
<g>
</g>
<g>
</g>
<g>
</g>
<g>
</g>
<g>
</g>
<g>
</g>
<g>
</g>
<g>
</g>
<g>
</g>
<g>
</g>
</svg>
