<?xml version="1.0" encoding="iso-8859-1"?>
<!-- Generator: Adobe Illustrator 19.0.0, SVG Export Plug-In . SVG Version: 6.00 Build 0)  -->
<svg version="1.1" id="Layer_1" xmlns="http://www.w3.org/2000/svg" xmlns:xlink="http://www.w3.org/1999/xlink" x="0px" y="0px"
	 viewBox="0 0 512 512" style="enable-background:new 0 0 512 512;" xml:space="preserve">
<path style="fill:#E4EAF8;" d="M452.676,315.858H350.063c-4.722,0-8.551,3.829-8.551,8.551v171.023c0,4.722,3.829,8.551,8.551,8.551
	h111.165V324.409C461.228,319.686,457.399,315.858,452.676,315.858z"/>
<rect x="341.511" y="350.063" style="fill:#00C3FF;" width="119.716" height="119.716"/>
<rect x="401.37" y="350.063" style="fill:#00AAF0;" width="59.858" height="119.716"/>
<rect x="401.37" y="469.779" style="fill:#D5DCED;" width="59.858" height="34.205"/>
<path style="fill:#5B5D6E;" d="M435.574,503.983h51.307c4.722,0,8.551-3.829,8.551-8.551V392.818c0-4.722-3.829-8.551-8.551-8.551
	h-51.307c-4.722,0-8.551,3.829-8.551,8.551v102.614C427.023,500.155,430.851,503.983,435.574,503.983z"/>
<rect x="110.63" y="469.779" style="fill:#C7CFE2;" width="34.205" height="34.205"/>
<path style="fill:#E4EAF8;" d="M221.795,469.779H33.67c-9.446,0-17.102-7.656-17.102-17.102v-17.102h222.33v17.102
	C238.898,462.121,231.24,469.779,221.795,469.779z"/>
<path style="fill:#FFDC64;" d="M238.898,435.574H16.568V332.96c0-9.446,7.656-17.102,17.102-17.102h188.125
	c9.446,0,17.102,7.656,17.102,17.102V435.574z"/>
<path style="fill:#A0FFB4;" d="M495.432,469.779h-68.409v-76.96c0-4.722,3.829-8.551,8.551-8.551h51.307
	c4.722,0,8.551,3.829,8.551,8.551V469.779z"/>
<path style="fill:#E4EAF8;" d="M307.592,8.017c-33.509,0-43.083,10.204-43.083,10.204s-9.574-10.204-43.083-10.204
	c-34.954,0-76.592,10.204-76.592,10.204V179.04c0,0,41.638-10.204,76.592-10.204c33.509,0,43.083,10.204,43.083,10.204
	s9.574-10.204,43.083-10.204c34.954,0,76.592,10.204,76.592,10.204V18.22C384.184,18.22,342.546,8.017,307.592,8.017z"/>
<path d="M486.881,376.251h-17.637v-51.841c0-9.136-7.432-16.568-16.568-16.568h-43.29v-43.29c0-13.851-11.268-25.119-25.119-25.119
	H272.494l0.068-56.256c4.238-2.299,14.573-6.324,35.03-6.324c33.546,0,74.277,9.873,74.685,9.973c2.391,0.586,4.919,0.04,6.856-1.48
	c1.937-1.52,3.068-3.845,3.068-6.306V18.22c0-3.693-2.523-6.907-6.109-7.786C384.354,10.008,343.106,0,307.592,0
	c-23.354,0-36.379,4.67-43.083,8.434C257.805,4.67,244.781,0,221.427,0c-35.514,0-76.762,10.008-78.5,10.433
	c-3.586,0.879-6.109,4.094-6.109,7.786v160.82c0,2.462,1.132,4.788,3.069,6.308c1.937,1.519,4.464,2.064,6.857,1.479
	c0.407-0.099,41.086-9.973,74.684-9.973c20.573,0,30.909,4.069,35.102,6.362l-0.069,56.216H144.835
	c-13.851,0-25.119,11.268-25.119,25.119v43.29H33.67c-13.851,0-25.119,11.268-25.119,25.119v119.716
	c0,13.851,11.268,25.119,25.119,25.119h68.944v18.171H84.977c-4.427,0-8.017,3.589-8.017,8.017c0,4.427,3.589,8.017,8.017,8.017
	h85.511c4.427,0,8.017-3.589,8.017-8.017c0-4.427-3.589-8.017-8.017-8.017h-17.637v-18.171h68.944
	c13.851,0,25.119-11.268,25.119-25.119V332.96c0-13.851-11.268-25.119-25.119-25.119h-86.046v-43.29c0-5.01,4.076-9.086,9.086-9.086
	h239.432c5.01,0,9.086,4.076,9.086,9.086v43.29h-43.29c-9.136,0-16.568,7.432-16.568,16.568v171.023
	c0,9.136,7.432,16.568,16.568,16.568h136.818c9.136,0,16.568-7.432,16.568-16.568V392.818
	C503.449,383.683,496.017,376.251,486.881,376.251z M152.852,169.037V24.623c12.657-2.74,42.714-8.59,68.575-8.59
	c26.758,0,36.212,6.888,37.334,7.791c1.505,1.816,3.375,2.869,5.749,2.869c2.375,0,4.243-1.053,5.749-2.869
	c1.121-0.902,10.575-7.791,37.333-7.791c25.826,0,55.91,5.852,68.575,8.591v144.413c-14.677-3.069-43.102-8.218-68.575-8.218
	c-23.354,0-36.379,4.67-43.083,8.434c-6.704-3.764-19.73-8.434-43.083-8.434C195.954,160.819,167.529,165.968,152.852,169.037z
	 M136.818,495.967h-18.171v-18.171h18.171V495.967z M221.795,461.762H33.67c-5.01,0-9.086-4.076-9.086-9.086v-9.086h206.296v9.086
	C230.881,457.686,226.805,461.762,221.795,461.762z M230.881,332.96v94.597H24.585V332.96c0-5.01,4.076-9.086,9.086-9.086h188.125
	C226.805,323.875,230.881,327.95,230.881,332.96z M487.415,392.818v68.944H435.04v-68.944c0-0.295,0.239-0.534,0.534-0.534h51.307
	C487.176,392.284,487.415,392.523,487.415,392.818z M435.574,376.251c-9.136,0-16.568,7.432-16.568,16.568v68.944h-69.478V358.079
	h103.683v18.171H435.574z M350.063,323.875h102.614c0.295,0,0.534,0.239,0.534,0.534v17.637H349.528v-17.637
	C349.528,324.114,349.768,323.875,350.063,323.875z M349.528,495.432v-17.637h69.478v17.637c0,0.181,0.021,0.356,0.027,0.534h-68.97
	C349.768,495.967,349.528,495.727,349.528,495.432z M486.881,495.967h-51.307c-0.295,0-0.534-0.239-0.534-0.534v-17.637h52.376
	v17.637C487.415,495.727,487.176,495.967,486.881,495.967z"/>
<path d="M283.413,61.21c6.8-1.607,14.935-2.421,24.179-2.421c11.746,0,25.604,1.195,41.189,3.551
	c0.406,0.061,0.809,0.091,1.208,0.091c3.898,0,7.317-2.848,7.916-6.82c0.662-4.378-2.35-8.463-6.728-9.125
	c-16.375-2.476-31.041-3.73-43.585-3.73c-10.485,0-19.86,0.959-27.866,2.851c-4.309,1.018-6.977,5.336-5.959,9.645
	C274.787,59.56,279.101,62.229,283.413,61.21z"/>
<path d="M283.413,129.619c6.8-1.607,14.936-2.421,24.179-2.421c11.747,0,25.605,1.195,41.189,3.551
	c0.406,0.061,0.809,0.091,1.208,0.091c3.897,0,7.317-2.848,7.916-6.82c0.663-4.377-2.35-8.462-6.728-9.125
	c-16.374-2.476-31.04-3.73-43.585-3.73c-10.484,0-19.859,0.959-27.866,2.851c-4.309,1.018-6.977,5.336-5.959,9.645
	C274.787,127.969,279.101,130.637,283.413,129.619z"/>
<path d="M281.563,95.632c0.61,0,1.23-0.071,1.849-0.217c2.408-0.569,5.025-1.045,7.776-1.415c4.388-0.59,7.466-4.625,6.877-9.014
	c-0.59-4.388-4.621-7.469-9.014-6.877c-3.27,0.439-6.407,1.012-9.325,1.702c-4.309,1.018-6.977,5.336-5.959,9.645
	C274.639,93.146,277.929,95.632,281.563,95.632z"/>
<path d="M351.177,80.691c-9.272-1.401-18.103-2.423-26.249-3.036c-4.425-0.333-8.263,2.978-8.596,7.394
	c-0.332,4.415,2.978,8.263,7.394,8.595c7.748,0.583,16.178,1.558,25.054,2.9c0.406,0.061,0.809,0.091,1.208,0.091
	c3.898,0,7.317-2.848,7.916-6.82C358.568,85.438,355.556,81.352,351.177,80.691z"/>
<path d="M249.209,45.606c-8.006-1.892-17.381-2.851-27.865-2.851c-12.546,0-27.21,1.255-43.586,3.73
	c-4.378,0.662-7.39,4.747-6.728,9.125c0.601,3.972,4.018,6.82,7.916,6.82c0.399,0,0.802-0.03,1.208-0.091
	c15.586-2.356,29.444-3.551,41.19-3.551c9.244,0,17.379,0.814,24.179,2.421c4.308,1.019,8.627-1.65,9.645-5.959
	C256.187,50.942,253.519,46.624,249.209,45.606z"/>
<path d="M249.209,114.016c-8.007-1.892-17.382-2.851-27.865-2.851c-12.547,0-27.211,1.255-43.586,3.73
	c-4.378,0.662-7.39,4.747-6.728,9.125c0.601,3.972,4.018,6.82,7.916,6.82c0.399,0,0.802-0.03,1.208-0.091
	c15.584-2.356,29.443-3.551,41.19-3.551c9.243,0,17.378,0.814,24.179,2.421c4.308,1.018,8.627-1.65,9.645-5.959
	C256.187,119.352,253.519,115.033,249.209,114.016z"/>
<path d="M245.524,95.415c0.62,0.146,1.24,0.217,1.85,0.217c3.632,0,6.923-2.486,7.794-6.175c1.019-4.309-1.649-8.627-5.958-9.646
	c-2.917-0.689-6.056-1.261-9.329-1.702c-4.388-0.592-8.423,2.489-9.013,6.877c-0.59,4.388,2.489,8.423,6.877,9.013
	C240.499,94.369,243.117,94.846,245.524,95.415z"/>
<path d="M178.947,96.635c0.399,0,0.802-0.03,1.208-0.091c8.877-1.343,17.306-2.317,25.055-2.9c4.415-0.332,7.725-4.18,7.394-8.595
	s-4.177-7.721-8.596-7.394c-8.146,0.612-16.977,1.634-26.249,3.036c-4.378,0.662-7.39,4.747-6.728,9.125
	C171.63,93.788,175.048,96.635,178.947,96.635z"/>
<g>
</g>
<g>
</g>
<g>
</g>
<g>
</g>
<g>
</g>
<g>
</g>
<g>
</g>
<g>
</g>
<g>
</g>
<g>
</g>
<g>
</g>
<g>
</g>
<g>
</g>
<g>
</g>
<g>
</g>
</svg>
