<?xml version="1.0" encoding="iso-8859-1"?>
<!-- Generator: Adobe Illustrator 19.0.0, SVG Export Plug-In . SVG Version: 6.00 Build 0)  -->
<svg version="1.1" id="Layer_1" xmlns="http://www.w3.org/2000/svg" xmlns:xlink="http://www.w3.org/1999/xlink" x="0px" y="0px"
	 viewBox="0 0 512 512" style="enable-background:new 0 0 512 512;" xml:space="preserve">
<path style="fill:#D5DCED;" d="M221.795,230.347h-85.511c-4.722,0-8.551-3.829-8.551-8.551v-51.307c0-4.722,3.829-8.551,8.551-8.551
	h85.511c4.722,0,8.551,3.829,8.551,8.551v51.307C230.347,226.518,226.518,230.347,221.795,230.347z"/>
<path style="fill:#FFDC64;" d="M204.693,127.733h-51.307c-9.446,0-17.102,7.656-17.102,17.102v17.102h85.511v-17.102
	C221.795,135.389,214.139,127.733,204.693,127.733z"/>
<path style="fill:#F0C087;" d="M184.049,127.733H174.03c-2.268,0-4.443-0.901-6.047-2.504l-12.093-12.093
	c-1.603-1.603-2.504-3.779-2.504-6.047V84.977c0-9.446,7.656-17.102,17.102-17.102h34.205v39.213c0,2.268-0.901,4.443-2.504,6.047
	l-12.093,12.093C188.492,126.832,186.317,127.733,184.049,127.733z"/>
<path style="fill:#D5DCED;" d="M144.835,444.125H59.324c-4.722,0-8.551-3.829-8.551-8.551v-51.307c0-4.722,3.829-8.551,8.551-8.551
	h85.511c4.722,0,8.551,3.829,8.551,8.551v51.307C153.386,440.296,149.557,444.125,144.835,444.125z"/>
<path style="fill:#5B5D6E;" d="M127.733,341.511H76.426c-9.446,0-17.102,7.656-17.102,17.102v17.102h85.511v-17.102
	C144.835,349.168,137.179,341.511,127.733,341.511z"/>
<path style="fill:#F0C087;" d="M107.088,341.511H97.069c-2.268,0-4.443-0.901-6.047-2.504l-12.093-12.093
	c-1.603-1.603-2.504-3.779-2.504-6.047v-22.111c0-9.446,7.656-17.102,17.102-17.102h34.205v39.213c0,2.268-0.901,4.443-2.504,6.047
	l-12.093,12.093C111.532,340.61,109.356,341.511,107.088,341.511z"/>
<path style="fill:#D5DCED;" d="M298.756,444.125h-85.511c-4.722,0-8.551-3.829-8.551-8.551v-51.307c0-4.722,3.829-8.551,8.551-8.551
	h85.511c4.722,0,8.551,3.829,8.551,8.551v51.307C307.307,440.296,303.478,444.125,298.756,444.125z"/>
<path style="fill:#FF5050;" d="M281.653,341.511h-51.307c-9.446,0-17.102,7.656-17.102,17.102v17.102h85.511v-17.102
	C298.756,349.168,291.099,341.511,281.653,341.511z"/>
<path style="fill:#F0C087;" d="M261.009,341.511H250.99c-2.268,0-4.443-0.901-6.047-2.504l-12.093-12.093
	c-1.603-1.603-2.504-3.779-2.504-6.047v-22.111c0-9.446,7.656-17.102,17.102-17.102h34.205v39.213c0,2.268-0.901,4.443-2.504,6.047
	l-12.093,12.093C265.452,340.61,263.277,341.511,261.009,341.511z"/>
<path style="fill:#D5DCED;" d="M452.676,444.125h-85.511c-4.722,0-8.551-3.829-8.551-8.551v-51.307c0-4.722,3.829-8.551,8.551-8.551
	h85.511c4.722,0,8.551,3.829,8.551,8.551v51.307C461.228,440.296,457.399,444.125,452.676,444.125z"/>
<path style="fill:#A0FFB4;" d="M435.574,341.511h-51.307c-9.446,0-17.102,7.656-17.102,17.102v17.102h85.511v-17.102
	C452.676,349.168,445.019,341.511,435.574,341.511z"/>
<path style="fill:#F0C087;" d="M414.93,341.511h-10.019c-2.268,0-4.443-0.901-6.047-2.504l-12.093-12.093
	c-1.603-1.603-2.504-3.779-2.504-6.047v-22.111c0-9.446,7.656-17.102,17.102-17.102h34.205v39.213c0,2.268-0.901,4.443-2.504,6.047
	l-12.093,12.093C419.373,340.61,417.198,341.511,414.93,341.511z"/>
<path style="fill:#D5DCED;" d="M375.716,230.347h-85.512c-4.722,0-8.551-3.829-8.551-8.551v-51.307c0-4.722,3.829-8.551,8.551-8.551
	h85.512c4.722,0,8.551,3.829,8.551,8.551v51.307C384.267,226.518,380.438,230.347,375.716,230.347z"/>
<path style="fill:#00C3FF;" d="M358.614,127.733h-51.307c-9.446,0-17.102,7.656-17.102,17.102v17.102h85.512v-17.102
	C375.716,135.389,368.059,127.733,358.614,127.733z"/>
<path style="fill:#F0C087;" d="M337.969,127.733H327.95c-2.268,0-4.443-0.901-6.047-2.504l-12.093-12.093
	c-1.603-1.603-2.504-3.779-2.504-6.047V84.977c0-9.446,7.656-17.102,17.102-17.102h34.205v39.213c0,2.268-0.901,4.443-2.504,6.047
	l-12.093,12.093C342.413,126.832,340.237,127.733,337.969,127.733z"/>
<path d="M503.983,436.109h-34.766c0.005-0.178,0.027-0.354,0.027-0.534v-51.307c0-6.228-3.458-11.659-8.551-14.489v-11.165
	c0-13.125-10.12-23.924-22.966-25.021l1.01-1.011c3.13-3.129,4.854-7.29,4.854-11.715v-39.213c0-4.427-3.589-8.017-8.017-8.017
	H401.37c-13.851,0-25.119,11.268-25.119,25.119v22.111c0,4.426,1.723,8.586,4.853,11.715l1.011,1.011
	c-12.846,1.097-22.966,11.896-22.966,25.021v11.165c-5.093,2.829-8.551,8.26-8.551,14.489v51.307c0,0.181,0.021,0.356,0.027,0.534
	h-35.328c0.005-0.178,0.027-0.354,0.027-0.534v-51.307c0-6.228-3.458-11.659-8.551-14.489v-11.165
	c0-13.125-10.12-23.924-22.966-25.021l1.01-1.011c3.13-3.129,4.854-7.29,4.854-11.715v-39.213c0-4.427-3.589-8.017-8.017-8.017
	h-34.205c-13.851,0-25.119,11.268-25.119,25.119v22.111c0,4.426,1.723,8.586,4.853,11.715l1.011,1.011
	c-12.845,1.097-22.965,11.896-22.965,25.021v11.165c-5.093,2.829-8.551,8.26-8.551,14.489v51.307c0,0.181,0.021,0.356,0.027,0.534
	h-35.328c0.005-0.178,0.027-0.354,0.027-0.534v-51.307c0-6.228-3.458-11.659-8.551-14.489v-11.165
	c0-13.125-10.12-23.924-22.966-25.021l1.01-1.011c3.13-3.129,4.854-7.29,4.854-11.715v-39.213c0-4.427-3.589-8.017-8.017-8.017
	H93.527c-13.85,0-25.118,11.268-25.118,25.119v22.111c0,4.426,1.723,8.586,4.853,11.715l1.011,1.011
	c-12.846,1.097-22.966,11.896-22.966,25.021v11.165c-5.093,2.829-8.551,8.26-8.551,14.489v51.307c0,0.181,0.021,0.356,0.027,0.534
	H8.017c-4.427,0-8.017,3.589-8.017,8.017c0,4.427,3.589,8.017,8.017,8.017h495.967c4.427,0,8.017-3.589,8.017-8.017
	C512,439.698,508.411,436.109,503.983,436.109z M392.284,298.756c0-5.01,4.076-9.086,9.086-9.086h26.188v31.197
	c0,0.142-0.056,0.277-0.156,0.378l-12.092,12.092c-0.102,0.102-0.236,0.157-0.378,0.157h-10.019c-0.142,0-0.277-0.056-0.378-0.156
	l-12.093-12.093c-0.1-0.1-0.156-0.235-0.156-0.377L392.284,298.756L392.284,298.756z M384.267,349.528h51.307
	c5.01,0,9.086,4.076,9.086,9.086v9.086h-69.478v-9.086C375.182,353.604,379.257,349.528,384.267,349.528z M238.363,298.756
	c0-5.01,4.076-9.086,9.086-9.086h26.188v31.197c0,0.142-0.056,0.277-0.156,0.378l-12.092,12.092
	c-0.102,0.102-0.236,0.157-0.378,0.157h-10.019c-0.142,0-0.277-0.056-0.378-0.156l-12.093-12.093c-0.1-0.1-0.156-0.235-0.156-0.377
	V298.756z M230.347,349.528h51.307c5.01,0,9.086,4.076,9.086,9.086v9.086h-69.478v-9.086
	C221.261,353.604,225.337,349.528,230.347,349.528z M84.443,298.756c0-5.01,4.076-9.086,9.086-9.086h26.188v31.197
	c0,0.142-0.056,0.277-0.156,0.378l-12.092,12.092c-0.102,0.102-0.236,0.157-0.378,0.157H97.071c-0.143,0-0.278-0.056-0.378-0.156
	l-12.093-12.093c-0.1-0.1-0.156-0.235-0.156-0.377V298.756z M76.426,349.528h51.307c5.01,0,9.086,4.076,9.086,9.086v9.086H67.34
	v-9.086C67.34,353.604,71.416,349.528,76.426,349.528z M59.324,436.109c-0.295,0-0.534-0.239-0.534-0.534v-51.307
	c0-0.295,0.239-0.534,0.534-0.534h85.511c0.295,0,0.534,0.239,0.534,0.534v51.307c0,0.295-0.239,0.534-0.534,0.534H59.324z
	 M213.244,436.109c-0.295,0-0.534-0.239-0.534-0.534v-51.307c0-0.295,0.239-0.534,0.534-0.534h85.511
	c0.295,0,0.534,0.239,0.534,0.534v51.307c0,0.295-0.239,0.534-0.534,0.534H213.244z M367.165,436.109
	c-0.295,0-0.534-0.239-0.534-0.534v-51.307c0-0.295,0.239-0.534,0.534-0.534h85.511c0.295,0,0.534,0.239,0.534,0.534v51.307
	c0,0.295-0.239,0.534-0.534,0.534H367.165z"/>
<path d="M256.043,401.904h-0.086c-4.427,0-7.974,3.589-7.974,8.017c0,4.427,3.632,8.017,8.059,8.017
	c4.427,0,8.017-3.589,8.017-8.017C264.059,405.493,260.47,401.904,256.043,401.904z"/>
<path d="M409.963,401.904h-0.086c-4.427,0-7.974,3.589-7.974,8.017c0,4.427,3.632,8.017,8.059,8.017
	c4.427,0,8.017-3.589,8.017-8.017C417.98,405.493,414.391,401.904,409.963,401.904z"/>
<path d="M102.122,401.904h-0.086c-4.427,0-7.974,3.589-7.974,8.017c0,4.427,3.632,8.017,8.059,8.017
	c4.427,0,8.017-3.589,8.017-8.017C110.139,405.493,106.549,401.904,102.122,401.904z"/>
<path d="M84.977,238.363h342.046c4.427,0,8.017-3.589,8.017-8.017s-3.589-8.017-8.017-8.017h-34.766
	c0.005-0.179,0.027-0.354,0.027-0.534v-51.307c0-6.228-3.458-11.66-8.551-14.489v-11.165c0-13.125-10.12-23.924-22.966-25.021
	l1.01-1.01c3.13-3.129,4.854-7.29,4.854-11.716V67.875c0-4.427-3.589-8.017-8.017-8.017h-34.205
	c-13.851,0-25.119,11.268-25.119,25.119v22.111c0,4.426,1.723,8.586,4.853,11.715l1.011,1.011
	c-12.846,1.097-22.966,11.896-22.966,25.021V156c-5.093,2.829-8.551,8.26-8.551,14.489v51.307c0,0.181,0.021,0.356,0.027,0.534
	h-35.328c0.005-0.179,0.027-0.354,0.027-0.534v-51.307c0-6.228-3.458-11.66-8.551-14.489v-11.165
	c0-13.125-10.12-23.924-22.966-25.021l1.01-1.01c3.13-3.129,4.854-7.29,4.854-11.716V67.875c0-4.427-3.589-8.017-8.017-8.017
	h-34.205c-13.85,0-25.118,11.268-25.118,25.119v22.111c0,4.426,1.723,8.586,4.853,11.715l1.011,1.011
	c-12.846,1.097-22.966,11.896-22.966,25.021V156c-5.093,2.829-8.551,8.26-8.551,14.489v51.307c0,0.181,0.021,0.356,0.027,0.534
	H84.977c-4.427,0-8.017,3.589-8.017,8.017S80.55,238.363,84.977,238.363z M315.324,84.977c0-5.01,4.076-9.086,9.086-9.086h26.188
	v31.197c0,0.143-0.056,0.277-0.156,0.378l-12.092,12.092c-0.102,0.1-0.236,0.157-0.378,0.157h-10.019
	c-0.143,0-0.277-0.056-0.378-0.156l-12.093-12.093c-0.1-0.1-0.156-0.235-0.156-0.377L315.324,84.977L315.324,84.977z
	 M307.307,135.749h51.307c5.01,0,9.086,4.076,9.086,9.086v9.086h-69.478v-9.086C298.221,139.825,302.297,135.749,307.307,135.749z
	 M289.67,221.795v-51.307c0-0.295,0.239-0.534,0.534-0.534h85.512c0.295,0,0.534,0.239,0.534,0.534v51.307
	c0,0.295-0.239,0.534-0.534,0.534h-85.512C289.91,222.33,289.67,222.09,289.67,221.795z M161.403,84.977
	c0-5.01,4.076-9.086,9.086-9.086h26.188v31.197c0,0.143-0.056,0.277-0.156,0.378l-12.092,12.092c-0.102,0.1-0.235,0.157-0.378,0.157
	h-10.019c-0.143,0-0.278-0.056-0.378-0.156l-12.093-12.093c-0.1-0.1-0.156-0.235-0.156-0.377V84.977z M153.386,135.749h51.307
	c5.01,0,9.086,4.076,9.086,9.086v9.086h-69.478v-9.086C144.301,139.825,148.376,135.749,153.386,135.749z M135.749,221.795v-51.307
	c0-0.295,0.239-0.534,0.534-0.534h85.511c0.295,0,0.534,0.239,0.534,0.534v51.307c0,0.295-0.239,0.534-0.534,0.534h-85.511
	C135.989,222.33,135.749,222.09,135.749,221.795z"/>
<path d="M333.003,188.125h-0.086c-4.427,0-7.974,3.589-7.974,8.017s3.632,8.017,8.059,8.017c4.427,0,8.017-3.589,8.017-8.017
	S337.43,188.125,333.003,188.125z"/>
<path d="M179.082,188.125h-0.086c-4.427,0-7.974,3.589-7.974,8.017s3.632,8.017,8.059,8.017s8.017-3.589,8.017-8.017
	S183.51,188.125,179.082,188.125z"/>
<g>
</g>
<g>
</g>
<g>
</g>
<g>
</g>
<g>
</g>
<g>
</g>
<g>
</g>
<g>
</g>
<g>
</g>
<g>
</g>
<g>
</g>
<g>
</g>
<g>
</g>
<g>
</g>
<g>
</g>
</svg>
