<?xml version="1.0" encoding="iso-8859-1"?>
<!-- Generator: Adobe Illustrator 19.0.0, SVG Export Plug-In . SVG Version: 6.00 Build 0)  -->
<svg version="1.1" id="Layer_1" xmlns="http://www.w3.org/2000/svg" xmlns:xlink="http://www.w3.org/1999/xlink" x="0px" y="0px"
	 viewBox="0 0 512 512" style="enable-background:new 0 0 512 512;" xml:space="preserve">
<path style="fill:#E4EAF8;" d="M486.881,465.503H25.119c-9.446,0-17.102-7.656-17.102-17.102V63.599
	c0-9.446,7.656-17.102,17.102-17.102h461.762c9.446,0,17.102,7.656,17.102,17.102v384.802
	C503.983,457.847,496.327,465.503,486.881,465.503z"/>
<path style="fill:#707487;" d="M119.182,414.196L119.182,414.196c23.613,0,42.756-19.143,42.756-42.756v-25.653H76.426v25.653
	C76.426,395.053,95.569,414.196,119.182,414.196z"/>
<g>
	<path style="fill:#FFFFFF;" d="M427.023,337.236H221.795c-4.722,0-8.551-3.829-8.551-8.551v-17.102
		c0-4.722,3.829-8.551,8.551-8.551h205.228c4.722,0,8.551,3.829,8.551,8.551v17.102
		C435.574,333.407,431.745,337.236,427.023,337.236z"/>
	<path style="fill:#FFFFFF;" d="M427.023,405.645H221.795c-4.722,0-8.551-3.829-8.551-8.551v-17.102
		c0-4.722,3.829-8.551,8.551-8.551h205.228c4.722,0,8.551,3.829,8.551,8.551v17.102
		C435.574,401.816,431.745,405.645,427.023,405.645z"/>
</g>
<path style="fill:#00AAF0;" d="M196.179,183.315v51.307c0,4.722,3.829,8.551,8.551,8.551h102.614c4.722,0,8.551-3.829,8.551-8.551
	v-51.307H196.179z"/>
<path style="fill:#0096DC;" d="M196.179,219.257l46.638,12.437c4.311,1.149,8.759,1.733,13.22,1.733
	c4.462,0,8.909-0.583,13.22-1.733l46.638-12.437v-27.39H196.179V219.257z"/>
<path style="fill:#00C3FF;" d="M247.224,142.91l-108.747,28.999c-2.924,0.78-2.924,4.931,0,5.71l108.747,28.999
	c5.774,1.54,11.852,1.54,17.626,0l108.747-28.999c2.924-0.78,2.924-4.931,0-5.71L264.85,142.91
	C259.076,141.37,252.999,141.37,247.224,142.91z"/>
<path style="fill:#D5DCED;" d="M503.983,89.253H50.772V46.497h436.109c9.446,0,17.102,7.656,17.102,17.102V89.253z"/>
<rect x="375.716" y="46.497" style="fill:#FF5050;" width="42.756" height="42.756"/>
<rect x="418.472" y="46.497" style="fill:#FFF082;" width="42.756" height="42.756"/>
<path style="fill:#A0FFB4;" d="M503.983,89.253h-42.756V46.497h25.653c9.446,0,17.102,7.656,17.102,17.102V89.253z"/>
<path d="M323.875,234.622v-35.456l18.097-4.826l0.074,48.845c0.006,4.423,3.595,8.005,8.017,8.005c0.004,0,0.009,0,0.013,0
	c4.427-0.006,8.011-3.601,8.005-8.028L358,190.066l17.627-4.7c4.871-1.3,8.144-5.56,8.144-10.601s-3.273-9.301-8.145-10.601
	l-117.56-31.35c-1.354-0.361-2.778-0.361-4.131,0l-117.56,31.35c-4.871,1.3-8.144,5.56-8.144,10.601s3.273,9.302,8.145,10.601
	l51.749,13.798v35.457c0,9.136,7.432,16.568,16.568,16.568h102.614C316.443,251.19,323.875,243.758,323.875,234.622z M256,148.856
	l97.155,25.908L256,200.671l-97.155-25.907L256,148.856z M204.159,234.622V203.44l49.775,13.274c0.677,0.181,1.371,0.27,2.066,0.27
	c0.695,0,1.388-0.09,2.066-0.27l49.775-13.274v31.182c0,0.295-0.239,0.534-0.534,0.534H204.693
	C204.398,235.157,204.159,234.917,204.159,234.622z"/>
<path d="M486.881,38.48H25.119C11.268,38.48,0,49.748,0,63.599v384.802c0,13.851,11.268,25.119,25.119,25.119h461.762
	c13.851,0,25.119-11.268,25.119-25.119V63.599C512,49.748,500.732,38.48,486.881,38.48z M495.967,63.599v17.637h-26.722V54.514
	h17.637C491.891,54.514,495.967,58.589,495.967,63.599z M426.489,81.236V54.514h26.722v26.722H426.489z M383.733,81.236V54.514
	h26.722v26.722H383.733z M58.789,81.236V54.514h308.91v26.722H58.789z M25.119,54.514h17.637v26.722H16.033V63.599
	C16.033,58.589,20.109,54.514,25.119,54.514z M486.881,457.486H25.119c-5.01,0-9.086-4.076-9.086-9.086V97.269h479.933v351.132
	C495.967,453.411,491.891,457.486,486.881,457.486z"/>
<path d="M427.023,295.015H221.795c-9.136,0-16.568,7.432-16.568,16.568v17.102c0,9.136,7.432,16.568,16.568,16.568h205.228
	c9.136,0,16.568-7.432,16.568-16.568v-17.102C443.591,302.447,436.159,295.015,427.023,295.015z M427.557,328.685
	c0,0.295-0.239,0.534-0.534,0.534H221.795c-0.295,0-0.534-0.239-0.534-0.534v-17.102c0-0.295,0.239-0.534,0.534-0.534h205.228
	c0.295,0,0.534,0.239,0.534,0.534V328.685z"/>
<path d="M427.023,363.424H221.795c-9.136,0-16.568,7.432-16.568,16.568v17.102c0,9.136,7.432,16.568,16.568,16.568h205.228
	c9.136,0,16.568-7.432,16.568-16.568v-17.102C443.591,370.856,436.159,363.424,427.023,363.424z M427.557,397.094
	c0,0.295-0.239,0.534-0.534,0.534H221.795c-0.295,0-0.534-0.239-0.534-0.534v-17.102c0-0.295,0.239-0.534,0.534-0.534h205.228
	c0.295,0,0.534,0.239,0.534,0.534V397.094z"/>
<path d="M161.937,337.77h-0.534v-17.637c0-23.28-18.941-42.221-42.221-42.221S76.96,296.853,76.96,320.134v17.637h-0.534
	c-4.427,0-8.017,3.589-8.017,8.017v25.653c0,27.995,22.777,50.772,50.772,50.772s50.772-22.777,50.772-50.772v-25.653
	C169.954,341.36,166.365,337.77,161.937,337.77z M92.994,320.134c0-14.44,11.748-26.188,26.188-26.188s26.188,11.748,26.188,26.188
	v17.637H92.994V320.134z M153.921,371.441c0,19.155-15.584,34.739-34.739,34.739s-34.739-15.584-34.739-34.739v-17.637h69.478
	V371.441z"/>
<path d="M119.182,363.424c-4.427,0-8.017,3.589-8.017,8.017v8.551c0,4.427,3.589,8.017,8.017,8.017c4.427,0,8.017-3.589,8.017-8.017
	v-8.551C127.198,367.013,123.609,363.424,119.182,363.424z"/>
<circle cx="350.063" cy="268.827" r="8.017"/>
<g>
</g>
<g>
</g>
<g>
</g>
<g>
</g>
<g>
</g>
<g>
</g>
<g>
</g>
<g>
</g>
<g>
</g>
<g>
</g>
<g>
</g>
<g>
</g>
<g>
</g>
<g>
</g>
<g>
</g>
</svg>
