<?xml version="1.0" encoding="iso-8859-1"?>
<!-- Generator: Adobe Illustrator 19.0.0, SVG Export Plug-In . SVG Version: 6.00 Build 0)  -->
<svg version="1.1" id="Layer_1" xmlns="http://www.w3.org/2000/svg" xmlns:xlink="http://www.w3.org/1999/xlink" x="0px" y="0px"
	 viewBox="0 0 512 512" style="enable-background:new 0 0 512 512;" xml:space="preserve">
<polygon style="fill:#FF5050;" points="221.795,204.693 358.614,8.017 427.023,8.017 290.205,204.693 "/>
<circle style="fill:#FFC850;" cx="256" cy="367.165" r="136.818"/>
<circle style="fill:#FFDC64;" cx="256" cy="367.165" r="111.165"/>
<polygon style="fill:#C84146;" points="274.722,128.612 221.795,204.693 290.205,204.693 308.926,177.782 "/>
<polygon style="fill:#FF5050;" points="290.205,204.693 153.386,8.017 84.977,8.017 221.795,204.693 "/>
<path d="M175.185,343.207c-6.918,23.46-5.096,48.008,5.131,69.124c10.353,21.375,28.048,36.683,49.825,43.106
	c7.242,2.136,14.669,3.186,22.098,3.186c17.063,0,34.135-5.543,48.968-16.216c3.594-2.586,4.411-7.596,1.826-11.189
	c-2.586-3.594-7.597-4.41-11.189-1.826c-17.242,12.407-38.078,16.295-57.167,10.665c-17.391-5.129-31.572-17.458-39.931-34.717
	c-8.485-17.518-9.97-37.975-4.183-57.599c5.788-19.626,18.135-36.003,34.767-46.114c16.387-9.961,34.988-12.623,52.379-7.494
	c29.363,8.659,46.908,40.011,46.908,65.318c0,25.063-10.284,34.098-16.414,37.252c-7.155,3.681-14.284,2.526-18.174-0.253
	c-2.926-2.09-4.142-5.024-3.615-8.721l2.538-15.859c0-0.005,0.001-0.011,0.002-0.016l4.967-31.049
	c0.73-4.561-0.443-9.306-3.216-13.019c-2.783-3.727-6.837-6.107-11.411-6.7c-25.1-3.25-45.584,7.274-59.231,30.447
	c-7.981,13.556-10.169,27.58-6.159,39.488c3.105,9.222,9.577,16.255,18.226,19.8c8.693,3.564,19.708,2.301,30.219-3.463
	c3.719-2.039,7.174-4.511,10.289-7.309c1.765,3.665,4.485,6.885,8.071,9.446c9.585,6.846,23.255,7.42,34.83,1.463
	c15.959-8.212,25.112-26.986,25.112-51.509c0-36.185-25.109-70.877-58.406-80.697c-21.779-6.422-44.949-3.165-65.243,9.172
	C196.955,300.115,182.104,319.747,175.185,343.207z M278.091,338.273l-4.956,30.975c-1.722,9.398-8.974,18.834-18.495,24.055
	c-6.155,3.376-12.297,4.38-16.426,2.686c-4.278-1.754-7.515-5.335-9.113-10.082c-2.502-7.433-0.805-16.752,4.78-26.237
	c9.137-15.517,21.165-23.132,36.634-23.132c2.171,0,4.41,0.15,6.718,0.449c0.245,0.032,0.456,0.165,0.629,0.394
	C277.975,337.535,278.157,337.855,278.091,338.273z"/>
<path d="M434.128,4.304C432.746,1.659,430.007,0,427.023,0h-34.084c-0.004,0-0.007,0-0.012,0h-34.314
	c-2.624,0-5.083,1.285-6.581,3.439L256,141.485L159.967,3.439C158.469,1.285,156.01,0,153.386,0H84.977
	c-2.984,0-5.723,1.659-7.105,4.304c-1.382,2.646-1.18,5.84,0.525,8.29l123.869,178.062c-8.364,4.082-14.14,12.672-14.14,22.588
	c0,8.606,4.351,16.213,10.969,20.741c-51.654,22.156-87.929,73.509-87.929,133.18C111.165,447.027,176.138,512,256,512
	s144.835-64.973,144.835-144.835c0-59.671-36.275-111.024-87.929-133.18c6.617-4.528,10.969-12.135,10.969-20.741
	c0-9.916-5.776-18.506-14.14-22.588l123.87-178.062C435.308,10.145,435.51,6.95,434.128,4.304z M362.803,16.033h14.673
	L273.102,166.07l-7.337-10.546L362.803,16.033z M274.862,196.676h-14.674L134.524,16.033h14.673L274.862,196.676z M114.993,16.033
	l125.664,180.643h-14.673L100.32,16.033H114.993z M384.802,367.165c0,71.022-57.78,128.802-128.802,128.802
	s-128.802-57.78-128.802-128.802S184.978,238.363,256,238.363S384.802,296.143,384.802,367.165z M307.841,213.244
	c0,5.01-4.076,9.086-9.086,9.086h-85.511c-5.01,0-9.086-4.076-9.086-9.086c0-4.5,3.292-8.237,7.592-8.952l3.464,4.979
	c1.499,2.154,3.957,3.439,6.581,3.439h68.409c2.644,0,5.09-1.305,6.576-3.442l0.005,0.003l3.464-4.979
	C304.549,205.007,307.841,208.744,307.841,213.244z M290.205,190.654l-7.337-10.546l114.14-164.075h14.674L290.205,190.654z"/>
<g>
</g>
<g>
</g>
<g>
</g>
<g>
</g>
<g>
</g>
<g>
</g>
<g>
</g>
<g>
</g>
<g>
</g>
<g>
</g>
<g>
</g>
<g>
</g>
<g>
</g>
<g>
</g>
<g>
</g>
</svg>
