<?xml version="1.0" encoding="iso-8859-1"?>
<!-- Generator: Adobe Illustrator 19.0.0, SVG Export Plug-In . SVG Version: 6.00 Build 0)  -->
<svg version="1.1" id="Layer_1" xmlns="http://www.w3.org/2000/svg" xmlns:xlink="http://www.w3.org/1999/xlink" x="0px" y="0px"
	 viewBox="0 0 512 512" style="enable-background:new 0 0 512 512;" xml:space="preserve">
<path style="fill:#E4EAF8;" d="M102.079,25.119c0-9.446,7.656-17.102,17.102-17.102h256.534l85.511,85.511v393.353
	c0,9.446-7.656,17.102-17.102,17.102H119.182c-9.446,0-17.102-7.656-17.102-17.102V25.119z"/>
<g>
	<path style="fill:#D5DCED;" d="M315.858,469.779H102.079V298.756h213.779c23.613,0,42.756,19.143,42.756,42.756v85.512
		C358.614,450.636,339.471,469.779,315.858,469.779z"/>
	<path style="fill:#D5DCED;" d="M375.716,8.017v68.409c0,9.445,7.658,17.102,17.102,17.102h68.409L375.716,8.017z"/>
</g>
<path style="fill:#FFB450;" d="M315.858,444.125H67.875c-9.446,0-17.102-7.656-17.102-17.102v-85.512
	c0-9.446,7.656-17.102,17.102-17.102h247.983c9.446,0,17.102,7.656,17.102,17.102v85.512
	C332.96,436.468,325.304,444.125,315.858,444.125z"/>
<polygon style="fill:#E69B41;" points="332.96,247.449 384.267,256 384.267,204.693 332.96,213.244 "/>
<g>
	<circle style="fill:#FFB450;" cx="226.071" cy="149.111" r="38.48"/>
	<circle style="fill:#FFB450;" cx="303.031" cy="149.111" r="38.48"/>
	<path style="fill:#FFB450;" d="M324.409,187.591H204.693c-9.446,0-17.102,7.656-17.102,17.102V256
		c0,9.446,7.656,17.102,17.102,17.102h119.716c9.446,0,17.102-7.656,17.102-17.102v-51.307
		C341.511,195.247,333.854,187.591,324.409,187.591z"/>
</g>
<path d="M466.896,87.86L381.384,2.348C379.882,0.844,377.842,0,375.716,0H119.182c-13.851,0-25.119,11.268-25.119,25.119v291.273
	H67.875c-13.851,0-25.119,11.268-25.119,25.119v85.512c0,13.851,11.268,25.119,25.119,25.119h26.188v34.739
	c0,13.851,11.268,25.119,25.119,25.119h324.944c13.851,0,25.119-11.268,25.119-25.119V93.528
	C469.244,91.402,468.4,89.363,466.896,87.86z M383.733,27.37l58.141,58.141h-49.056c-5.01,0-9.086-4.076-9.086-9.086V27.37z
	 M58.789,427.023v-85.512c0-5.01,4.076-9.086,9.086-9.086h247.983c5.01,0,9.086,4.076,9.086,9.086v85.512
	c0,5.01-4.076,9.086-9.086,9.086H67.875C62.865,436.109,58.789,432.033,58.789,427.023z M444.125,495.967H119.182
	c-5.01,0-9.086-4.076-9.086-9.086v-34.739h205.762c13.851,0,25.119-11.268,25.119-25.119v-85.512
	c0-13.851-11.268-25.119-25.119-25.119H110.096V25.119c0-5.01,4.076-9.086,9.086-9.086h248.518v60.392
	c0,13.851,11.268,25.119,25.119,25.119h60.392v385.336C453.211,491.891,449.135,495.967,444.125,495.967z"/>
<path d="M107.642,404.759c1.317,2.823,4.149,4.627,7.264,4.627c3.115,0,5.947-1.804,7.264-4.626l14.648-31.388v36.549
	c0,4.427,3.589,8.017,8.017,8.017c4.427,0,8.017-3.589,8.017-8.017v-51.307c0-4.427-3.589-8.017-8.017-8.017h-9.976
	c-3.115,0-5.947,1.804-7.264,4.626l-12.689,27.189l-12.688-27.188c-1.317-2.823-4.149-4.627-7.264-4.627h-9.977
	c-4.427,0-8.017,3.589-8.017,8.017v51.307c0,4.427,3.589,8.017,8.017,8.017c4.427,0,8.017-3.589,8.017-8.017v-36.549
	L107.642,404.759z"/>
<path d="M179.04,417.937c4.427,0,8.017-3.589,8.017-8.017v-13.25l5.641-4.512l23.43,23.43c1.565,1.565,3.617,2.348,5.668,2.348
	s4.103-0.782,5.668-2.348c3.131-3.131,3.131-8.207,0-11.337l-22.171-22.171l21.509-17.208c3.457-2.765,4.018-7.81,1.252-11.268
	c-2.766-3.458-7.811-4.019-11.268-1.252l-29.729,23.786v-17.526c0-4.427-3.589-8.017-8.017-8.017s-8.017,3.589-8.017,8.017v51.307
	C171.023,414.348,174.612,417.937,179.04,417.937z"/>
<path d="M254.997,406.608c2.259,6.776,8.575,11.329,15.718,11.329h4.776c7.142,0,13.458-4.552,15.718-11.329l15.154-45.46
	c1.4-4.2-0.87-8.74-5.071-10.141c-4.199-1.401-8.74,0.87-10.141,5.071l-15.154,45.46c-0.073,0.219-0.277,0.366-0.507,0.366h-4.776
	c-0.23,0-0.434-0.146-0.507-0.366l-15.154-45.46c-1.4-4.201-5.942-6.472-10.141-5.071c-4.201,1.4-6.47,5.941-5.071,10.141
	L254.997,406.608z"/>
<path d="M389.35,198.494c-1.858-1.522-4.3-2.13-6.655-1.661l-33.198,6.64c-0.448-9.302-5.98-17.287-13.87-21.243
	c8.573-8.441,13.901-20.167,13.901-33.119c0-25.638-20.858-46.497-46.497-46.497c-15.984,0-30.108,8.109-38.48,20.427
	c-8.373-12.318-22.496-20.427-38.48-20.427c-25.638,0-46.497,20.858-46.497,46.497c0,12.952,5.328,24.678,13.901,33.118
	c-8.234,4.128-13.901,12.645-13.901,22.465V256c0,13.851,11.268,25.119,25.119,25.119h119.716c13.441,0,24.449-10.612,25.088-23.897
	l33.198,6.64c0.522,0.105,1.049,0.156,1.572,0.156c1.837,0,3.636-0.632,5.083-1.817c1.858-1.523,2.934-3.798,2.934-6.2v-51.307
	C392.284,202.291,391.208,200.017,389.35,198.494z M303.031,118.647c16.798,0,30.463,13.666,30.463,30.463
	s-13.666,30.463-30.463,30.463c-16.798,0-30.463-13.666-30.463-30.463S286.234,118.647,303.031,118.647z M267.949,179.574h-6.795
	c1.214-1.397,2.355-2.858,3.398-4.393C265.594,176.716,266.735,178.177,267.949,179.574z M226.071,118.647
	c16.798,0,30.463,13.666,30.463,30.463s-13.666,30.463-30.463,30.463s-30.463-13.666-30.463-30.463S209.273,118.647,226.071,118.647
	z M324.409,265.086H204.693c-5.01,0-9.086-4.076-9.086-9.086v-51.307c0-5.01,4.076-9.086,9.086-9.086h119.716
	c5.01,0,9.086,4.076,9.086,9.086v8.48c0,0.02,0,0.041,0,0.06v34.227c0,0.02,0,0.041,0,0.06v8.48
	C333.495,261.01,329.419,265.086,324.409,265.086z M376.251,246.222l-26.722-5.344v-21.06l26.722-5.344V246.222z"/>
<path d="M303.031,161.403c6.778,0,12.292-5.514,12.292-12.292c0-6.778-5.514-12.292-12.292-12.292
	c-6.778,0-12.292,5.514-12.292,12.292C290.739,155.889,296.253,161.403,303.031,161.403z"/>
<path d="M226.071,161.403c6.778,0,12.292-5.514,12.292-12.292c0-6.778-5.514-12.292-12.292-12.292s-12.292,5.514-12.292,12.292
	C213.779,155.889,219.293,161.403,226.071,161.403z"/>
<g>
</g>
<g>
</g>
<g>
</g>
<g>
</g>
<g>
</g>
<g>
</g>
<g>
</g>
<g>
</g>
<g>
</g>
<g>
</g>
<g>
</g>
<g>
</g>
<g>
</g>
<g>
</g>
<g>
</g>
</svg>
