<?xml version="1.0" encoding="iso-8859-1"?>
<!-- Generator: Adobe Illustrator 19.0.0, SVG Export Plug-In . SVG Version: 6.00 Build 0)  -->
<svg version="1.1" id="Layer_1" xmlns="http://www.w3.org/2000/svg" xmlns:xlink="http://www.w3.org/1999/xlink" x="0px" y="0px"
	 viewBox="0 0 512 512" style="enable-background:new 0 0 512 512;" xml:space="preserve">
<g>
	<path style="fill:#5B5D6E;" d="M374.003,234.591H137.997l-8.089,80.895c-1.252,12.519,6.76,24.098,18.916,27.34l89.551,23.881
		c11.549,3.079,23.703,3.079,35.251,0l89.551-23.881c12.156-3.242,20.167-14.821,18.916-27.34L374.003,234.591z"/>
	<circle style="fill:#5B5D6E;" cx="418.463" cy="345.758" r="17.102"/>
	<path style="fill:#5B5D6E;" d="M435.57,431.263h-34.204v-51.306c0-9.446,7.656-17.102,17.102-17.102l0,0
		c9.446,0,17.102,7.656,17.102,17.102V431.263z"/>
</g>
<path style="fill:#464655;" d="M377.206,266.626L377.206,266.626l-1.173-11.728l-2.03-20.307l0,0H256H137.997l0,0l-8.089,80.895
	c-1.252,12.519,6.76,24.098,18.916,27.34l89.552,23.881c5.774,1.539,11.7,2.31,17.626,2.31v-66.937c4.572,0,9.15-0.526,13.602-1.565
	l108.463-25.308L377.206,266.626z"/>
<path style="fill:#707487;" d="M263.772,275.531l238.27-55.596c2.589-0.604,2.589-4.29,0-4.894l-238.27-55.596
	c-5.112-1.193-10.431-1.193-15.545,0L9.959,215.041c-2.589,0.604-2.589,4.29,0,4.894l238.27,55.596
	C253.341,276.724,258.659,276.724,263.772,275.531z"/>
<path d="M503.863,207.235l-238.27-55.596c-6.276-1.464-12.911-1.464-19.187,0L8.136,207.235C3.346,208.353,0,212.57,0,217.489
	c0,4.919,3.346,9.136,8.137,10.254l119.694,27.929l-5.901,59.017c-1.651,16.516,8.789,31.607,24.827,35.883l89.551,23.881
	c6.441,1.718,13.067,2.577,19.692,2.577s13.25-0.858,19.692-2.577l89.551-23.881c16.037-4.277,26.478-19.367,24.827-35.882
	l-5.901-59.018l26.28-6.132l0.003,72.415c-9.93,3.354-17.102,12.752-17.102,23.799c0,6.602,2.564,12.614,6.745,17.102
	c-4.18,4.488-6.745,10.5-6.745,17.102v51.306c0,4.427,3.589,8.017,8.017,8.017h34.204c4.427,0,8.017-3.589,8.017-8.017v-51.306
	c0-6.602-2.564-12.614-6.745-17.102c4.18-4.488,6.745-10.5,6.745-17.102c0-11.048-7.172-20.445-17.102-23.799l-0.003-76.156
	l77.382-18.055c4.79-1.118,8.136-5.335,8.136-10.254C512,212.57,508.653,208.353,503.863,207.235z M427.554,423.246h-18.171v-43.289
	c0-5.01,4.076-9.085,9.085-9.085c5.01,0,9.085,4.076,9.085,9.085V423.246z M418.468,354.839c-5.01,0-9.085-4.076-9.085-9.085
	c0-5.01,4.076-9.085,9.085-9.085c5.01,0,9.085,4.076,9.085,9.085C427.554,350.763,423.478,354.839,418.468,354.839z
	 M150.888,335.079c-8.4-2.24-13.87-10.145-13.005-18.796l5.694-56.939l102.829,23.993c0.523,0.122,1.051,0.218,1.578,0.32v76.802
	c-2.538-0.339-5.058-0.837-7.544-1.5L150.888,335.079z M374.116,316.284c0.866,8.65-4.604,16.556-13.005,18.795L271.56,358.96
	c-2.485,0.663-5.006,1.161-7.544,1.5v-76.802c0.527-0.102,1.055-0.198,1.578-0.32l102.829-23.993L374.116,316.284z M411.539,232.822
	l-119.714-24.682c-4.337-0.893-8.576,1.897-9.47,6.233c-0.894,4.336,1.896,8.577,6.233,9.47l85.704,17.671l-112.34,26.213
	c-3.894,0.909-8.008,0.909-11.902,0L34.75,217.489l184.195-42.978c-1.903,3.089-1.523,7.187,1.154,9.865
	c3.131,3.131,8.207,3.131,11.336,0c13.545-13.545,35.583-13.545,49.127,0c1.565,1.565,3.617,2.348,5.668,2.348
	s4.103-0.782,5.668-2.348c2.678-2.678,3.057-6.775,1.154-9.865l184.195,42.978L411.539,232.822z"/>
<path d="M170.971,123.909c46.885-46.884,123.171-46.884,170.057,0c1.565,1.565,3.617,2.348,5.668,2.348
	c2.051,0,4.103-0.782,5.668-2.348c3.131-3.131,3.131-8.207,0-11.336c-53.136-53.136-139.596-53.136-192.731,0
	c-3.131,3.131-3.131,8.207,0,11.336C162.764,127.041,167.841,127.04,170.971,123.909z"/>
<path d="M189.867,142.804c-3.131,3.131-3.131,8.207,0,11.336c3.131,3.131,8.207,3.131,11.336,0
	c14.636-14.636,34.097-22.697,54.796-22.697s40.16,8.061,54.796,22.697c1.565,1.566,3.617,2.348,5.668,2.348
	s4.103-0.782,5.668-2.348c3.131-3.131,3.131-8.207,0-11.336c-17.664-17.665-41.152-27.393-66.133-27.393
	S207.532,125.14,189.867,142.804z"/>
<path d="M256,196.646c-6.778,0-12.292,5.514-12.292,12.292c0,6.778,5.514,12.292,12.292,12.292c6.778,0,12.292-5.514,12.292-12.292
	C268.292,202.16,262.778,196.646,256,196.646z"/>
<g>
</g>
<g>
</g>
<g>
</g>
<g>
</g>
<g>
</g>
<g>
</g>
<g>
</g>
<g>
</g>
<g>
</g>
<g>
</g>
<g>
</g>
<g>
</g>
<g>
</g>
<g>
</g>
<g>
</g>
</svg>
