<?xml version="1.0" encoding="iso-8859-1"?>
<!-- Generator: Adobe Illustrator 19.0.0, SVG Export Plug-In . SVG Version: 6.00 Build 0)  -->
<svg version="1.1" id="Layer_1" xmlns="http://www.w3.org/2000/svg" xmlns:xlink="http://www.w3.org/1999/xlink" x="0px" y="0px"
	 viewBox="0 0 512 512" style="enable-background:new 0 0 512 512;" xml:space="preserve">
<path style="fill:#E4EAF8;" d="M102.079,25.119c0-9.446,7.656-17.102,17.102-17.102h256.534l85.511,85.511v393.353
	c0,9.446-7.656,17.102-17.102,17.102H119.182c-9.446,0-17.102-7.656-17.102-17.102V25.119z"/>
<g>
	<path style="fill:#7DF5A5;" d="M213.244,273.102h-8.551c-9.446,0-17.102-7.656-17.102-17.102v-34.205
		c0-9.446,7.656-17.102,17.102-17.102h8.551c4.722,0,8.551,3.829,8.551,8.551v51.307
		C221.795,269.274,217.967,273.102,213.244,273.102z"/>
	<path style="fill:#7DF5A5;" d="M350.063,204.693h8.551c9.446,0,17.102,7.656,17.102,17.102V256c0,9.446-7.656,17.102-17.102,17.102
		h-8.551c-4.722,0-8.551-3.829-8.551-8.551v-51.307C341.511,208.522,345.34,204.693,350.063,204.693z"/>
</g>
<g>
	<path style="fill:#D5DCED;" d="M298.756,469.779H102.079V298.756h196.676c23.613,0,42.756,19.143,42.756,42.756v85.512
		C341.511,450.636,322.369,469.779,298.756,469.779z"/>
	<path style="fill:#D5DCED;" d="M375.716,8.017v68.409c0,9.445,7.658,17.102,17.102,17.102h68.409L375.716,8.017z"/>
</g>
<path style="fill:#7DF5A5;" d="M298.756,444.125H67.875c-9.446,0-17.102-7.656-17.102-17.102v-85.512
	c0-9.446,7.656-17.102,17.102-17.102h230.881c9.446,0,17.102,7.656,17.102,17.102v85.512
	C315.858,436.469,308.202,444.125,298.756,444.125z"/>
<path d="M466.896,87.859L381.384,2.347C379.882,0.844,377.842,0,375.716,0H119.182c-13.851,0-25.119,11.268-25.119,25.119v291.273
	H67.875c-13.851,0-25.119,11.268-25.119,25.119v85.512c0,13.851,11.268,25.119,25.119,25.119h26.188v34.739
	c0,13.851,11.268,25.119,25.119,25.119h324.944c13.851,0,25.119-11.268,25.119-25.119V93.528
	C469.244,91.401,468.4,89.363,466.896,87.859z M383.733,27.37l58.141,58.141h-49.056c-5.01,0-9.086-4.076-9.086-9.086V27.37z
	 M58.789,427.023v-85.512c0-5.01,4.076-9.086,9.086-9.086h230.881c5.01,0,9.086,4.076,9.086,9.086v85.512
	c0,5.01-4.076,9.086-9.086,9.086H102.141c-0.021,0-0.042-0.003-0.062-0.003c-0.02,0-0.041,0.003-0.062,0.003H67.875
	C62.865,436.109,58.789,432.033,58.789,427.023z M444.125,495.967H119.182c-5.01,0-9.086-4.076-9.086-9.086v-34.739h188.66
	c13.851,0,25.119-11.268,25.119-25.119v-85.512c0-13.851-11.268-25.119-25.119-25.119h-188.66V25.119
	c0-5.01,4.076-9.086,9.086-9.086h248.518v60.392c0,13.851,11.268,25.119,25.119,25.119h60.392v385.336
	C453.211,491.891,449.135,495.967,444.125,495.967z"/>
<path d="M161.937,417.937c4.427,0,8.017-3.589,8.017-8.017v-9.086h26.188c13.851,0,25.119-11.268,25.119-25.119
	c0-13.851-11.268-25.119-25.119-25.119h-34.205c-4.427,0-8.017,3.589-8.017,8.017v51.307
	C153.921,414.348,157.51,417.937,161.937,417.937z M205.228,375.716c0,5.01-4.076,9.086-9.086,9.086h-26.188V366.63h26.188
	C201.152,366.63,205.228,370.706,205.228,375.716z"/>
<path d="M104.962,389.936c3.131,3.131,8.207,3.131,11.337,0l11.968-11.968v31.954c0,4.427,3.589,8.017,8.017,8.017
	c4.427,0,8.017-3.589,8.017-8.017v-51.307c0-3.243-1.953-6.165-4.949-7.406c-2.994-1.239-6.443-0.556-8.736,1.738l-19.985,19.985
	l-19.985-19.985c-2.293-2.294-5.741-2.977-8.736-1.738c-2.996,1.241-4.949,4.164-4.949,7.406v51.307
	c0,4.427,3.589,8.017,8.017,8.017c4.427,0,8.017-3.589,8.017-8.017v-31.954L104.962,389.936z"/>
<path d="M268.827,401.904h-29.929c-4.427,0-8.017,3.589-8.017,8.017c0,4.427,3.589,8.017,8.017,8.017h29.929
	c11.493,0,20.843-9.351,20.843-20.843c0-4.839-1.672-9.285-4.448-12.827c2.777-3.541,4.448-7.988,4.448-12.827
	c0-11.493-9.351-20.843-20.843-20.843h-29.929c-4.427,0-8.017,3.589-8.017,8.017c0,4.427,3.589,8.017,8.017,8.017h29.929
	c2.652,0,4.81,2.158,4.81,4.81c0,2.652-2.158,4.81-4.81,4.81H256c-4.427,0-8.017,3.589-8.017,8.017c0,4.427,3.589,8.017,8.017,8.017
	h12.827c2.652,0,4.81,2.158,4.81,4.81S271.479,401.904,268.827,401.904z"/>
<path d="M366.63,197.995v-1.853c0-46.856-38.121-84.977-84.977-84.977s-84.977,38.121-84.977,84.977v1.853
	c-9.93,3.354-17.102,12.752-17.102,23.8V256c0,13.851,11.268,25.119,25.119,25.119h8.551c9.136,0,16.568-7.432,16.568-16.568
	v-51.307c0-9.136-7.432-16.568-16.568-16.568h-0.534v-0.534c0-38.015,30.928-68.944,68.944-68.944s68.944,30.928,68.944,68.944
	v0.534h-0.534c-9.136,0-16.568,7.432-16.568,16.568v51.307c0,9.136,7.432,16.568,16.568,16.568h8.551
	c13.851,0,25.119-11.268,25.119-25.119v-34.205C383.733,210.747,376.561,201.35,366.63,197.995z M213.779,213.244v51.307
	c0,0.295-0.239,0.534-0.534,0.534h-8.551c-5.01,0-9.086-4.076-9.086-9.086v-34.205c0-5.01,4.076-9.086,9.086-9.086h8.551
	C213.539,212.71,213.779,212.949,213.779,213.244z M367.699,256c0,5.01-4.076,9.086-9.086,9.086h-8.551
	c-0.295,0-0.534-0.239-0.534-0.534v-51.307c0-0.295,0.239-0.534,0.534-0.534h8.551c5.01,0,9.086,4.076,9.086,9.086V256z"/>
<g>
</g>
<g>
</g>
<g>
</g>
<g>
</g>
<g>
</g>
<g>
</g>
<g>
</g>
<g>
</g>
<g>
</g>
<g>
</g>
<g>
</g>
<g>
</g>
<g>
</g>
<g>
</g>
<g>
</g>
</svg>
