<?xml version="1.0" encoding="iso-8859-1"?>
<!-- Generator: Adobe Illustrator 19.0.0, SVG Export Plug-In . SVG Version: 6.00 Build 0)  -->
<svg version="1.1" id="Layer_1" xmlns="http://www.w3.org/2000/svg" xmlns:xlink="http://www.w3.org/1999/xlink" x="0px" y="0px"
	 viewBox="0 0 512 512" style="enable-background:new 0 0 512 512;" xml:space="preserve">
<path style="fill:#FFDC64;" d="M486.881,503.951H25.119c-9.446,0-17.102-7.656-17.102-17.102V221.763
	c0-9.446,7.656-17.102,17.102-17.102h461.762c9.446,0,17.102,7.656,17.102,17.102v265.086
	C503.983,496.295,496.327,503.951,486.881,503.951z"/>
<rect x="42.221" y="426.991" style="fill:#AFB9D2;" width="427.557" height="42.756"/>
<path style="fill:#E4EAF8;" d="M332.96,170.456c-59.858,0-76.96,17.102-76.96,17.102s-17.102-17.102-76.96-17.102
	c-62.439,0-136.818,17.102-136.818,17.102v256.91c0,0,74.379-17.102,136.818-17.102c59.858,0,76.96,17.102,76.96,17.102
	s17.102-17.102,76.96-17.102c62.439,0,136.818,17.102,136.818,17.102v-256.91C469.779,187.559,395.4,170.456,332.96,170.456z"/>
<rect x="230.347" y="469.747" style="fill:#FFC850;" width="51.307" height="34.205"/>
<path d="M486.881,196.644h-9.086v-9.461c0-3.736-2.58-6.976-6.22-7.813c-3.073-0.707-75.986-17.306-138.615-17.306
	c-45.151,0-67.5,9.439-76.96,15.229c-9.461-5.789-31.809-15.229-76.96-15.229c-62.63,0-135.542,16.6-138.615,17.306
	c-3.641,0.837-6.22,4.077-6.22,7.813v9.461h-9.086C11.268,196.644,0,207.913,0,221.763v265.086
	c0,13.851,11.268,25.119,25.119,25.119h461.762c13.851,0,25.119-11.268,25.119-25.119V221.763
	C512,207.913,500.732,196.644,486.881,196.644z M50.238,450.556c19.036-4.006,78.275-15.548,128.802-15.548
	c38.855,0,60.659,7.704,68.944,13.027v13.696H50.238V450.556z M273.637,477.763v18.171h-35.273v-18.171H273.637z M264.017,461.73
	v-13.696c8.285-5.322,30.088-13.027,68.944-13.027c50.488,0,109.758,11.544,128.802,15.549v11.173H264.017z M461.762,193.647
	v240.514c-22.403-4.636-78.872-15.187-128.802-15.187c-35.42,0-56.803,5.808-68.944,11.107V191.124
	c8.285-5.322,30.087-13.026,68.944-13.026C383.443,178.098,442.712,189.64,461.762,193.647z M179.04,178.098
	c38.856,0,60.659,7.704,68.944,13.026v238.958c-12.141-5.299-33.524-11.107-68.944-11.107c-49.93,0-106.399,10.551-128.802,15.187
	V204.672c0-0.003,0-0.006,0-0.011s0-0.006,0-0.011v-11.004C69.281,189.639,128.519,178.098,179.04,178.098z M16.033,486.849V221.763
	c0-5.01,4.076-9.086,9.086-9.086h9.086v231.415v25.653c0,4.427,3.589,8.017,8.017,8.017H222.33v18.171H25.119
	C20.109,495.935,16.033,491.859,16.033,486.849z M495.967,486.849c0,5.01-4.076,9.086-9.086,9.086H289.67v-18.171h180.109
	c4.427,0,8.017-3.589,8.017-8.017v-25.653V212.678h9.086c5.01,0,9.086,4.076,9.086,9.086V486.849z"/>
<path d="M84.967,263.986c0.433,0,0.872-0.035,1.314-0.108c31.672-5.218,60.069-8.151,84.398-8.72
	c4.426-0.104,7.93-3.775,7.828-8.202c-0.103-4.427-3.771-7.912-8.202-7.828c-25.074,0.586-54.221,3.589-86.628,8.93
	c-4.369,0.719-7.326,4.844-6.607,9.214C77.714,261.199,81.113,263.986,84.967,263.986z"/>
<path d="M223.332,242.845c-5.596-1.093-11.601-1.962-17.847-2.585c-4.413-0.438-8.332,2.778-8.771,7.183
	c-0.439,4.406,2.777,8.333,7.183,8.771c5.751,0.573,11.254,1.369,16.36,2.367c0.519,0.102,1.037,0.151,1.547,0.151
	c3.757,0,7.111-2.655,7.86-6.481C230.512,247.905,227.678,243.695,223.332,242.845z"/>
<path d="M84.967,229.781c0.433,0,0.872-0.035,1.314-0.108c8.607-1.418,17.153-2.691,25.402-3.783c4.389-0.58,7.477-4.61,6.895-8.999
	c-0.58-4.389-4.611-7.478-8.999-6.895c-8.418,1.114-17.132,2.411-25.906,3.857c-4.369,0.72-7.326,4.845-6.607,9.214
	C77.714,226.995,81.113,229.781,84.967,229.781z"/>
<path d="M145.466,222.28c12.015-0.946,23.312-1.425,33.574-1.425c15.388,0,29.256,1.185,41.219,3.523
	c0.519,0.102,1.037,0.151,1.547,0.151c3.757,0,7.111-2.655,7.86-6.481c0.849-4.345-1.985-8.557-6.33-9.405
	c-12.973-2.535-27.876-3.82-44.293-3.82c-10.68,0-22.4,0.496-34.832,1.475c-4.413,0.347-7.71,4.207-7.363,8.621
	C137.192,219.331,141.059,222.626,145.466,222.28z"/>
<path d="M84.967,298.19c0.433,0,0.872-0.035,1.314-0.108c11.603-1.911,22.996-3.543,33.863-4.852
	c4.395-0.529,7.53-4.521,7.001-8.918c-0.529-4.396-4.522-7.533-8.918-7.001c-11.095,1.335-22.72,3.001-34.553,4.95
	c-4.369,0.719-7.326,4.844-6.607,9.213C77.714,295.404,81.113,298.19,84.967,298.19z"/>
<path d="M223.332,277.05c-12.973-2.535-27.876-3.82-44.293-3.82c-8.16,0-16.959,0.29-26.152,0.863
	c-4.419,0.275-7.778,4.08-7.504,8.5c0.275,4.419,4.089,7.776,8.499,7.504c8.863-0.552,17.326-0.832,25.156-0.832
	c15.388,0,29.256,1.185,41.219,3.523c0.519,0.102,1.037,0.151,1.547,0.151c3.757,0,7.111-2.655,7.86-6.481
	C230.512,282.11,227.678,277.9,223.332,277.05z"/>
<path d="M84.967,366.599c0.433,0,0.872-0.035,1.314-0.108c5.693-0.937,11.389-1.817,16.932-2.613
	c4.382-0.63,7.425-4.692,6.795-9.075c-0.63-4.382-4.69-7.428-9.075-6.795c-5.651,0.811-11.457,1.708-17.258,2.664
	c-4.369,0.719-7.326,4.844-6.607,9.213C77.714,363.813,81.113,366.599,84.967,366.599z"/>
<path d="M223.332,345.459c-12.973-2.535-27.876-3.82-44.293-3.82c-13.129,0-27.767,0.748-43.506,2.224
	c-4.408,0.414-7.647,4.323-7.233,8.731s4.322,7.644,8.73,7.233c15.245-1.429,29.379-2.154,42.01-2.154
	c15.388,0,29.256,1.185,41.219,3.523c0.519,0.102,1.037,0.151,1.547,0.151c3.757,0,7.111-2.655,7.86-6.481
	C230.512,350.519,227.678,346.309,223.332,345.459z"/>
<path d="M84.967,332.395c0.433,0,0.872-0.035,1.314-0.108c21.096-3.475,41.01-5.963,59.189-7.395
	c4.413-0.347,7.71-4.207,7.364-8.621c-0.347-4.413-4.217-7.712-8.621-7.363c-18.629,1.467-38.995,4.009-60.537,7.558
	c-4.369,0.719-7.326,4.844-6.607,9.214C77.714,329.608,81.113,332.395,84.967,332.395z"/>
<path d="M223.332,311.254c-12.973-2.535-27.876-3.82-44.293-3.82c-4.427,0-8.017,3.589-8.017,8.017c0,4.427,3.589,8.017,8.017,8.017
	c15.388,0,29.256,1.185,41.219,3.523c0.519,0.102,1.037,0.151,1.547,0.151c3.757,0,7.111-2.655,7.86-6.481
	C230.512,316.314,227.678,312.104,223.332,311.254z"/>
<path d="M84.967,400.804c0.433,0,0.872-0.035,1.314-0.108c27.999-4.612,53.571-7.451,76.006-8.437
	c4.423-0.195,7.851-3.938,7.658-8.36c-0.195-4.423-3.934-7.866-8.361-7.658c-23.07,1.013-49.282,3.918-77.91,8.633
	c-4.369,0.719-7.326,4.844-6.607,9.214C77.714,398.017,81.113,400.804,84.967,400.804z"/>
<path d="M223.332,379.664c-8.165-1.596-17.146-2.704-26.693-3.297c-4.406-0.274-8.224,3.086-8.498,7.505
	c-0.274,4.419,3.087,8.223,7.505,8.498c8.852,0.549,17.131,1.568,24.61,3.029c0.519,0.102,1.037,0.151,1.547,0.151
	c3.757,0,7.111-2.655,7.86-6.481C230.512,384.724,227.678,380.513,223.332,379.664z"/>
<path d="M428.326,248.058c-32.409-5.339-61.554-8.344-86.628-8.93c-4.435-0.094-8.099,3.402-8.202,7.827
	c-0.104,4.426,3.401,8.098,7.828,8.202c24.329,0.569,52.724,3.502,84.398,8.72c0.441,0.073,0.88,0.108,1.314,0.108
	c3.853,0,7.254-2.787,7.9-6.715C435.653,252.902,432.695,248.777,428.326,248.058z"/>
<path d="M290.196,258.732c0.51,0,1.027-0.049,1.547-0.151c5.106-0.997,10.61-1.794,16.36-2.367c4.406-0.438,7.621-4.365,7.183-8.771
	c-0.438-4.406-4.372-7.623-8.771-7.183c-6.247,0.622-12.252,1.492-17.847,2.585c-4.345,0.849-7.18,5.06-6.33,9.405
	C283.085,256.077,286.439,258.732,290.196,258.732z"/>
<path d="M400.318,225.89c8.25,1.091,16.796,2.364,25.402,3.783c0.441,0.073,0.88,0.108,1.314,0.108c3.853,0,7.254-2.787,7.9-6.715
	c0.719-4.369-2.238-8.493-6.607-9.214c-8.773-1.445-17.488-2.743-25.906-3.857c-4.39-0.586-8.419,2.507-8.999,6.895
	C392.841,221.281,395.928,225.31,400.318,225.89z"/>
<path d="M290.196,224.528c0.51,0,1.027-0.049,1.547-0.151c11.962-2.338,25.831-3.523,41.219-3.523
	c10.262,0,21.557,0.48,33.574,1.425c4.415,0.346,8.274-2.949,8.622-7.363c0.347-4.415-2.949-8.274-7.363-8.621
	c-12.433-0.979-24.153-1.475-34.832-1.475c-16.417,0-31.321,1.286-44.293,3.82c-4.345,0.849-7.18,5.06-6.33,9.405
	C283.085,221.872,286.439,224.528,290.196,224.528z"/>
<path d="M428.326,282.263c-11.832-1.949-23.457-3.615-34.553-4.95c-4.398-0.528-8.389,2.605-8.918,7.001
	c-0.529,4.395,2.606,8.389,7.001,8.918c10.866,1.308,22.26,2.941,33.863,4.852c0.441,0.073,0.88,0.108,1.314,0.108
	c3.853,0,7.254-2.787,7.9-6.715C435.653,287.107,432.695,282.982,428.326,282.263z"/>
<path d="M290.196,292.937c0.51,0,1.027-0.049,1.547-0.151c11.962-2.338,25.831-3.523,41.219-3.523c7.83,0,16.293,0.28,25.156,0.832
	c4.422,0.274,8.224-3.085,8.499-7.504c0.275-4.419-3.084-8.224-7.504-8.5c-9.193-0.572-17.992-0.863-26.152-0.863
	c-16.418,0-31.321,1.286-44.293,3.82c-4.345,0.849-7.18,5.06-6.33,9.405C283.085,290.282,286.439,292.937,290.196,292.937z"/>
<path d="M428.326,350.672c-5.801-0.956-11.608-1.851-17.258-2.664c-4.385-0.631-8.445,2.412-9.075,6.795
	c-0.63,4.382,2.412,8.445,6.795,9.075c5.543,0.796,11.239,1.675,16.932,2.613c0.441,0.073,0.88,0.108,1.314,0.108
	c3.853,0,7.254-2.787,7.9-6.715C435.653,355.516,432.695,351.391,428.326,350.672z"/>
<path d="M290.196,361.346c0.51,0,1.027-0.049,1.547-0.151c11.962-2.338,25.83-3.523,41.219-3.523c12.631,0,26.765,0.725,42.01,2.154
	c4.409,0.412,8.317-2.825,8.73-7.233c0.413-4.408-2.825-8.317-7.233-8.731c-15.741-1.475-30.377-2.224-43.506-2.224
	c-16.418,0-31.321,1.286-44.293,3.82c-4.345,0.849-7.18,5.06-6.33,9.405C283.085,358.691,286.439,361.346,290.196,361.346z"/>
<path d="M428.326,316.467c-21.541-3.549-41.909-6.092-60.537-7.558c-4.408-0.351-8.273,2.949-8.621,7.363s2.949,8.273,7.364,8.621
	c18.179,1.431,38.092,3.92,59.189,7.395c0.441,0.073,0.88,0.108,1.314,0.108c3.853,0,7.254-2.787,7.9-6.715
	C435.653,321.312,432.695,317.187,428.326,316.467z"/>
<path d="M290.196,327.141c0.51,0,1.027-0.049,1.547-0.151c11.962-2.338,25.831-3.523,41.219-3.523c4.427,0,8.017-3.589,8.017-8.017
	c0-4.427-3.589-8.017-8.017-8.017c-16.417,0-31.321,1.286-44.293,3.82c-4.345,0.849-7.18,5.06-6.33,9.405
	C283.085,324.486,286.439,327.141,290.196,327.141z"/>
<path d="M428.326,384.876c-28.626-4.716-54.839-7.62-77.91-8.633c-4.437-0.202-8.166,3.234-8.361,7.658
	c-0.195,4.423,3.233,8.166,7.658,8.36c22.436,0.986,48.008,3.823,76.006,8.437c0.441,0.073,0.88,0.108,1.314,0.108
	c3.853,0,7.254-2.787,7.9-6.715C435.653,389.721,432.695,385.596,428.326,384.876z"/>
<path d="M315.36,376.367c-9.547,0.592-18.528,1.701-26.693,3.297c-4.345,0.849-7.18,5.06-6.33,9.405
	c0.748,3.827,4.101,6.481,7.86,6.481c0.51,0,1.027-0.049,1.547-0.151c7.479-1.462,15.76-2.481,24.61-3.029
	c4.419-0.274,7.779-4.078,7.505-8.498C323.583,379.452,319.776,376.093,315.36,376.367z"/>
<path d="M170.97,51.221c46.886-46.885,123.174-46.885,170.061,0c1.565,1.566,3.617,2.348,5.668,2.348s4.103-0.782,5.668-2.348
	c3.131-3.131,3.131-8.207,0-11.337c-53.137-53.137-139.599-53.137-192.735,0c-3.131,3.131-3.131,8.207,0,11.337
	C162.763,54.352,167.839,54.353,170.97,51.221z"/>
<path d="M316.465,83.803c2.051,0,4.103-0.782,5.668-2.348c3.131-3.131,3.131-8.206,0-11.337
	c-17.665-17.665-41.152-27.394-66.135-27.394s-48.469,9.729-66.135,27.394c-3.131,3.131-3.131,8.207,0,11.337
	c3.131,3.132,8.207,3.132,11.337,0c14.636-14.636,34.098-22.697,54.797-22.697s40.16,8.061,54.797,22.697
	C312.362,83.02,314.414,83.803,316.465,83.803z"/>
<path d="M286.233,114.036c2.051,0,4.103-0.782,5.668-2.348c3.131-3.131,3.131-8.206,0-11.337c-19.797-19.797-52.006-19.797-71.803,0
	c-3.131,3.131-3.131,8.206,0,11.337c3.131,3.131,8.207,3.131,11.337,0c13.545-13.544,35.583-13.544,49.129,0
	C282.129,113.252,284.181,114.036,286.233,114.036z"/>
<path d="M243.708,136.252c0,6.778,5.514,12.292,12.292,12.292c6.778,0,12.292-5.514,12.292-12.292S262.778,123.96,256,123.96
	C249.222,123.96,243.708,129.474,243.708,136.252z"/>
<g>
</g>
<g>
</g>
<g>
</g>
<g>
</g>
<g>
</g>
<g>
</g>
<g>
</g>
<g>
</g>
<g>
</g>
<g>
</g>
<g>
</g>
<g>
</g>
<g>
</g>
<g>
</g>
<g>
</g>
</svg>
