<?xml version="1.0" encoding="iso-8859-1"?>
<!-- Generator: Adobe Illustrator 19.0.0, SVG Export Plug-In . SVG Version: 6.00 Build 0)  -->
<svg version="1.1" id="Layer_1" xmlns="http://www.w3.org/2000/svg" xmlns:xlink="http://www.w3.org/1999/xlink" x="0px" y="0px"
	 viewBox="0 0 512 512" style="enable-background:new 0 0 512 512;" xml:space="preserve">
<path style="fill:#E4EAF8;" d="M102.079,25.119c0-9.446,7.656-17.102,17.102-17.102h256.534l85.511,85.511v393.353
	c0,9.446-7.656,17.102-17.102,17.102H119.182c-9.446,0-17.102-7.656-17.102-17.102V25.119z"/>
<g>
	<path style="fill:#D5DCED;" d="M298.756,469.779H102.079V298.756h196.676c23.613,0,42.756,19.143,42.756,42.756v85.512
		C341.511,450.636,322.369,469.779,298.756,469.779z"/>
	<path style="fill:#D5DCED;" d="M375.716,8.017v68.409c0,9.445,7.658,17.102,17.102,17.102h68.409L375.716,8.017z"/>
</g>
<g>
	<path style="fill:#FF5050;" d="M298.756,444.125H67.875c-9.446,0-17.102-7.656-17.102-17.102v-85.512
		c0-9.446,7.656-17.102,17.102-17.102h230.881c9.446,0,17.102,7.656,17.102,17.102v85.512
		C315.858,436.469,308.202,444.125,298.756,444.125z"/>
	<circle style="fill:#FF5050;" cx="281.653" cy="187.591" r="85.511"/>
</g>
<path d="M466.896,87.859L381.384,2.347C379.882,0.844,377.842,0,375.716,0H119.182c-13.851,0-25.119,11.268-25.119,25.119v291.273
	H67.875c-13.851,0-25.119,11.268-25.119,25.119v85.512c0,13.851,11.268,25.119,25.119,25.119h26.188v34.739
	c0,13.851,11.268,25.119,25.119,25.119h324.944c13.851,0,25.119-11.268,25.119-25.119V93.528
	C469.244,91.401,468.4,89.363,466.896,87.859z M383.733,27.37l58.141,58.141h-49.056c-5.01,0-9.086-4.076-9.086-9.086V27.37z
	 M58.789,427.023v-85.512c0-5.01,4.076-9.086,9.086-9.086h230.881c5.01,0,9.086,4.076,9.086,9.086v85.512
	c0,5.01-4.076,9.086-9.086,9.086H67.875C62.865,436.109,58.789,432.033,58.789,427.023z M444.125,495.967H119.182
	c-5.01,0-9.086-4.076-9.086-9.086v-34.739h188.66c13.851,0,25.119-11.268,25.119-25.119v-85.512
	c0-13.851-11.268-25.119-25.119-25.119h-188.66V25.119c0-5.01,4.076-9.086,9.086-9.086h248.518v60.392
	c0,13.851,11.268,25.119,25.119,25.119h60.392v385.336C453.211,491.891,449.135,495.967,444.125,495.967z"/>
<path d="M92.994,400.835h26.188c13.851,0,25.119-11.268,25.119-25.119c0-13.851-11.268-25.119-25.119-25.119H84.977
	c-4.427,0-8.017,3.589-8.017,8.017v51.307c0,4.427,3.589,8.017,8.017,8.017c4.427,0,8.017-3.589,8.017-8.017V400.835z
	 M128.267,375.716c0,5.01-4.076,9.086-9.086,9.086H92.994V366.63h26.188C124.192,366.63,128.267,370.706,128.267,375.716z"/>
<path d="M161.937,417.937h25.653c18.566,0,33.67-15.105,33.67-33.67c0-18.566-15.105-33.67-33.67-33.67h-25.653
	c-4.427,0-8.017,3.589-8.017,8.017v51.307C153.921,414.348,157.51,417.937,161.937,417.937z M169.954,366.63h17.637
	c9.725,0,17.637,7.912,17.637,17.637c0,9.725-7.912,17.637-17.637,17.637h-17.637V366.63z"/>
<path d="M238.898,417.937c4.427,0,8.017-3.589,8.017-8.017v-17.637h17.637c4.427,0,8.017-3.589,8.017-8.017
	c0-4.427-3.589-8.017-8.017-8.017h-17.637v-9.62h34.739c4.427,0,8.017-3.589,8.017-8.017c0-4.427-3.589-8.017-8.017-8.017h-42.756
	c-4.427,0-8.017,3.589-8.017,8.017v51.307C230.881,414.348,234.47,417.937,238.898,417.937z"/>
<path d="M281.653,94.063c-51.572,0-93.528,41.956-93.528,93.528s41.956,93.528,93.528,93.528s93.528-41.956,93.528-93.528
	S333.225,94.063,281.653,94.063z M281.653,265.086c-42.731,0-77.495-34.764-77.495-77.495s34.764-77.495,77.495-77.495
	s77.495,34.764,77.495,77.495S324.385,265.086,281.653,265.086z"/>
<path d="M281.739,152.852c4.427,0,8.017-3.589,8.017-8.017c0-4.427-3.589-8.017-8.017-8.017h-0.086
	c-4.427,0-7.974,3.589-7.974,8.017C273.68,149.262,277.312,152.852,281.739,152.852z"/>
<path d="M290.205,178.505c4.427,0,8.017-3.589,8.017-8.017s-3.589-8.017-8.017-8.017h-17.102c-4.427,0-8.017,3.589-8.017,8.017
	s3.589,8.017,8.017,8.017h0.534v43.825h-0.534c-4.427,0-8.017,3.589-8.017,8.017s3.589,8.017,8.017,8.017h17.102
	c4.427,0,8.017-3.589,8.017-8.017s-3.589-8.017-8.017-8.017h-0.534v-43.825H290.205z"/>
<g>
</g>
<g>
</g>
<g>
</g>
<g>
</g>
<g>
</g>
<g>
</g>
<g>
</g>
<g>
</g>
<g>
</g>
<g>
</g>
<g>
</g>
<g>
</g>
<g>
</g>
<g>
</g>
<g>
</g>
</svg>
