<?xml version="1.0" encoding="iso-8859-1"?>
<!-- Generator: Adobe Illustrator 19.0.0, SVG Export Plug-In . SVG Version: 6.00 Build 0)  -->
<svg version="1.1" id="Layer_1" xmlns="http://www.w3.org/2000/svg" xmlns:xlink="http://www.w3.org/1999/xlink" x="0px" y="0px"
	 viewBox="0 0 512 512" style="enable-background:new 0 0 512 512;" xml:space="preserve">
<path style="fill:#C7CFE2;" d="M315.858,8.017H196.142c-4.722,0-8.551,3.829-8.551,8.551v128.267h136.818V16.568
	C324.409,11.845,320.58,8.017,315.858,8.017z"/>
<path style="fill:#00C3FF;" d="M350.063,144.835H161.937c-4.722,0-8.551,3.829-8.551,8.551V401.37
	c0,56.672,45.942,102.614,102.614,102.614l0,0c56.672,0,102.614-45.942,102.614-102.614V153.386
	C358.614,148.664,354.785,144.835,350.063,144.835z"/>
<path style="fill:#E4EAF8;" d="M213.244,307.307v42.756c0,4.722,3.829,8.551,8.551,8.551h68.409c4.722,0,8.551-3.829,8.551-8.551
	v-42.756H213.244z"/>
<polygon style="fill:#FFFFFF;" points="256,273.102 179.04,298.756 256,324.409 332.96,298.756 "/>
<path d="M221.795,34.205c-4.427,0-8.017,3.589-8.017,8.017v25.653c0,4.427,3.589,8.017,8.017,8.017s8.017-3.589,8.017-8.017V42.221
	C229.812,37.794,226.223,34.205,221.795,34.205z"/>
<path d="M290.205,34.205c-4.427,0-8.017,3.589-8.017,8.017v25.653c0,4.427,3.589,8.017,8.017,8.017c4.427,0,8.017-3.589,8.017-8.017
	V42.221C298.221,37.794,294.632,34.205,290.205,34.205z"/>
<path d="M350.063,136.818h-17.637V16.568C332.426,7.432,324.994,0,315.858,0H196.142c-9.136,0-16.568,7.432-16.568,16.568v120.251
	h-17.637c-9.136,0-16.568,7.432-16.568,16.568V401.37C145.37,462.371,194.998,512,256,512s110.63-49.629,110.63-110.63V153.386
	C366.63,144.25,359.198,136.818,350.063,136.818z M195.608,16.568c0-0.295,0.239-0.534,0.534-0.534h119.716
	c0.295,0,0.534,0.239,0.534,0.534v120.251H195.608V16.568z M350.597,401.37c0,52.161-42.436,94.597-94.597,94.597
	s-94.597-42.436-94.597-94.597V153.386c0-0.295,0.239-0.534,0.534-0.534h188.125c0.295,0,0.534,0.239,0.534,0.534V401.37z"/>
<path d="M335.496,291.151l-76.96-25.653c-1.645-0.548-3.425-0.548-5.07,0l-76.96,25.653c-3.274,1.091-5.481,4.155-5.481,7.605
	c0,3.45,2.208,6.514,5.481,7.605l28.722,9.574v34.128c0,9.136,7.432,16.568,16.568,16.568h68.409
	c9.136,0,16.568-7.432,16.568-16.568v-34.127l9.545-3.182l0.075,37.325c0.009,4.422,3.596,8.001,8.017,8.001
	c0.005,0,0.011,0,0.017,0c4.427-0.009,8.009-3.605,8.001-8.033l-0.086-42.633l3.154-1.052c3.274-1.091,5.481-4.155,5.481-7.605
	C340.977,295.306,338.769,292.242,335.496,291.151z M290.739,350.063c0,0.295-0.239,0.534-0.534,0.534h-68.409
	c-0.295,0-0.534-0.239-0.534-0.534v-28.782l32.204,10.734c0.823,0.274,1.679,0.412,2.535,0.412s1.712-0.137,2.535-0.412
	l32.204-10.735V350.063z M256,315.959l-51.609-17.203L256,281.553l51.609,17.203L256,315.959z"/>
<path d="M187.591,187.056h136.818c4.427,0,8.017-3.589,8.017-8.017s-3.589-8.017-8.017-8.017H187.591
	c-4.427,0-8.017,3.589-8.017,8.017S183.163,187.056,187.591,187.056z"/>
<circle cx="324.409" cy="375.716" r="8.017"/>
<g>
</g>
<g>
</g>
<g>
</g>
<g>
</g>
<g>
</g>
<g>
</g>
<g>
</g>
<g>
</g>
<g>
</g>
<g>
</g>
<g>
</g>
<g>
</g>
<g>
</g>
<g>
</g>
<g>
</g>
</svg>
