<?xml version="1.0" encoding="iso-8859-1"?>
<!-- Generator: Adobe Illustrator 19.0.0, SVG Export Plug-In . SVG Version: 6.00 Build 0)  -->
<svg version="1.1" id="Layer_1" xmlns="http://www.w3.org/2000/svg" xmlns:xlink="http://www.w3.org/1999/xlink" x="0px" y="0px"
	 viewBox="0 0 512 512" style="enable-background:new 0 0 512 512;" xml:space="preserve">
<path style="fill:#FFDC64;" d="M258.792,8.037C350.5,9.367,429.274,78.89,442.248,169.686C466.03,336.123,256,469.779,256,469.779
	S67.875,350.063,67.875,196.142C67.875,91.315,153.614,6.512,258.792,8.037z"/>
<circle style="fill:#FFC850;" cx="256" cy="196.142" r="136.818"/>
<path style="fill:#FFFFFF;" d="M299.125,102.079c-24.519,0-36.224,5.463-40.739,8.394c-1.455,0.945-3.233,0.945-4.689,0
	c-4.515-2.931-16.219-8.394-40.738-8.394c-26.448,0-56.722,5.841-69.891,8.685c-3.929,0.849-6.701,4.33-6.701,8.349v148.624
	c0,2.729,2.481,4.772,5.146,4.185c12.194-2.685,43.896-9.024,71.446-9.024c12.393,0,21.498,1.395,28.062,3.154
	c3.786,1.014,6.428,3.107,6.428,7.027v0.024c0,4.727,3.825,8.551,8.551,8.551c4.727,0,8.551-3.824,8.551-8.551l0,0
	c0-3.915,2.638-6.005,6.419-7.024c6.569-1.771,15.701-3.18,28.155-3.18c27.55,0,59.252,6.339,71.446,9.024
	c2.665,0.587,5.146-1.456,5.146-4.185V119.113c0-4.02-2.772-7.501-6.701-8.349C355.846,107.921,325.572,102.079,299.125,102.079z"/>
<path d="M377.624,104.496c-1.738-0.426-42.987-10.433-78.5-10.433c-23.354,0-36.379,4.67-43.083,8.435
	c-6.704-3.765-19.729-8.435-43.083-8.435c-35.514,0-76.762,10.007-78.5,10.433c-3.586,0.879-6.109,4.094-6.109,7.787v160.606
	c0,1.68,0.436,3.357,1.393,4.74c1.958,2.828,5.362,4.037,8.532,3.261c0.407-0.099,41.086-9.973,74.684-9.973
	c17.935,0,28.089,3.093,33.176,5.405c1.134,0.515,1.848,1.66,1.848,2.905v2.092c0,4.39,3.382,8.218,7.77,8.349
	c4.54,0.137,8.264-3.504,8.264-8.014v-2.39c0-1.242,0.71-2.384,1.839-2.901c5.057-2.316,15.226-5.447,33.269-5.447
	c33.546,0,74.277,9.873,74.685,9.974c3.168,0.775,6.577-0.434,8.534-3.268c0.955-1.383,1.39-3.06,1.39-4.742V112.284
	C383.733,108.59,381.21,105.375,377.624,104.496z M367.699,263.101c-14.677-3.069-43.102-8.218-68.575-8.218
	c-23.354,0-36.379,4.67-43.083,8.435c-6.704-3.764-19.729-8.435-43.083-8.435c-25.474,0-53.898,5.149-68.575,8.218V118.686
	c12.657-2.74,42.714-8.59,68.575-8.59c26.758,0,36.211,6.888,37.333,7.791c1.505,1.817,3.374,2.869,5.749,2.869
	c2.374,0,4.244-1.052,5.749-2.869c1.122-0.903,10.577-7.791,37.334-7.791c25.826,0,55.91,5.852,68.575,8.591v144.414H367.699z"/>
<path d="M271.258,139.669c-4.309,1.019-6.977,5.337-5.958,9.645c1.018,4.309,5.337,6.977,9.645,5.959
	c6.799-1.607,14.934-2.421,24.179-2.421c11.747,0,25.605,1.195,41.189,3.551c0.406,0.061,0.809,0.091,1.208,0.091
	c3.897,0,7.317-2.848,7.916-6.82c0.663-4.378-2.35-8.462-6.728-9.125c-16.374-2.476-31.04-3.73-43.585-3.73
	C288.64,136.818,279.263,137.777,271.258,139.669z"/>
<path d="M342.71,208.958c-16.374-2.476-31.04-3.73-43.585-3.73c-10.485,0-19.861,0.959-27.866,2.851
	c-4.309,1.019-6.977,5.337-5.958,9.645c1.018,4.31,5.337,6.978,9.645,5.959c6.799-1.607,14.934-2.421,24.179-2.421
	c11.747,0,25.605,1.195,41.189,3.551c0.406,0.061,0.809,0.091,1.208,0.091c3.897,0,7.317-2.848,7.916-6.82
	C350.1,213.706,347.088,209.621,342.71,208.958z"/>
<path d="M273.095,189.694c0.61,0,1.23-0.069,1.85-0.217c2.405-0.568,5.022-1.044,7.775-1.414c4.388-0.59,7.466-4.625,6.877-9.014
	c-0.59-4.387-4.623-7.469-9.014-6.877c-3.273,0.44-6.41,1.012-9.326,1.702c-4.309,1.019-6.976,5.337-5.958,9.646
	C266.172,187.209,269.463,189.694,273.095,189.694z"/>
<path d="M340.313,190.607c0.406,0.061,0.809,0.091,1.208,0.091c3.898,0,7.317-2.848,7.916-6.82c0.662-4.378-2.35-8.464-6.728-9.125
	c-9.275-1.402-18.106-2.423-26.249-3.036c-4.422-0.325-8.263,2.979-8.595,7.394c-0.332,4.416,2.978,8.263,7.394,8.595
	C323.005,188.289,331.433,189.265,340.313,190.607z"/>
<path d="M170.479,156.493c0.399,0,0.802-0.03,1.208-0.091c15.584-2.357,29.443-3.551,41.189-3.551c9.245,0,17.38,0.814,24.179,2.421
	c4.307,1.018,8.627-1.649,9.645-5.959c1.018-4.31-1.649-8.627-5.958-9.645c-8.006-1.892-17.381-2.851-27.866-2.851
	c-12.546,0-27.211,1.255-43.585,3.73c-4.378,0.662-7.39,4.747-6.728,9.125C163.162,153.646,166.581,156.493,170.479,156.493z"/>
<path d="M240.743,208.078c-8.006-1.892-17.381-2.851-27.866-2.851c-12.546,0-27.211,1.255-43.585,3.73
	c-4.378,0.662-7.39,4.747-6.728,9.125c0.601,3.972,4.018,6.82,7.916,6.82c0.399,0,0.802-0.03,1.208-0.091
	c15.584-2.357,29.443-3.551,41.189-3.551c9.245,0,17.38,0.814,24.179,2.421c4.307,1.018,8.627-1.649,9.645-5.959
	C247.718,213.413,245.051,209.096,240.743,208.078z"/>
<path d="M240.742,173.874c-2.919-0.691-6.058-1.262-9.329-1.702c-4.39-0.592-8.423,2.489-9.013,6.877
	c-0.59,4.388,2.489,8.423,6.877,9.013c2.751,0.37,5.368,0.847,7.778,1.415c0.62,0.146,1.239,0.217,1.849,0.217
	c3.632,0,6.924-2.486,7.795-6.175C247.718,179.21,245.05,174.891,240.742,173.874z"/>
<path d="M195.54,171.718c-8.144,0.612-16.975,1.633-26.25,3.036c-4.378,0.662-7.39,4.747-6.728,9.125
	c0.601,3.972,4.018,6.82,7.916,6.82c0.399,0,0.802-0.03,1.208-0.091c8.88-1.343,17.31-2.318,25.054-2.901
	c4.415-0.332,7.726-4.179,7.394-8.595C203.803,174.698,199.956,171.39,195.54,171.718z"/>
<path d="M256,0C147.847,0,59.858,87.989,59.858,196.142c0,36.446,10.21,73.954,30.347,111.481
	c15.947,29.718,38.132,59.527,65.939,88.598c47.16,49.303,93.598,79.077,95.553,80.32c1.313,0.836,2.808,1.254,4.303,1.254
	c1.495,0,2.991-0.418,4.303-1.254c1.954-1.243,48.392-31.017,95.553-80.32c27.807-29.072,49.992-58.88,65.939-88.598
	c20.137-37.528,30.347-75.035,30.347-111.481C452.142,87.989,364.153,0,256,0z M407.757,299.874
	c-15.221,28.41-36.498,57.012-63.243,85.01c-37.73,39.499-75.929,66.715-88.513,75.267c-12.584-8.552-50.783-35.768-88.513-75.267
	c-26.745-27.999-48.023-56.601-63.243-85.01C85.43,264.76,75.891,229.859,75.891,196.142C75.891,96.83,156.688,16.033,256,16.033
	S436.109,96.83,436.109,196.142C436.109,229.859,426.57,264.76,407.757,299.874z"/>
<path d="M307.307,495.967H204.693c-4.427,0-8.017,3.589-8.017,8.017c0,4.427,3.589,8.017,8.017,8.017h102.614
	c4.427,0,8.017-3.589,8.017-8.017C315.324,499.556,311.734,495.967,307.307,495.967z"/>
<g>
</g>
<g>
</g>
<g>
</g>
<g>
</g>
<g>
</g>
<g>
</g>
<g>
</g>
<g>
</g>
<g>
</g>
<g>
</g>
<g>
</g>
<g>
</g>
<g>
</g>
<g>
</g>
<g>
</g>
</svg>
