<?xml version="1.0" encoding="iso-8859-1"?>
<!-- Generator: Adobe Illustrator 19.0.0, SVG Export Plug-In . SVG Version: 6.00 Build 0)  -->
<svg version="1.1" id="Layer_1" xmlns="http://www.w3.org/2000/svg" xmlns:xlink="http://www.w3.org/1999/xlink" x="0px" y="0px"
	 viewBox="0 0 512 512" style="enable-background:new 0 0 512 512;" xml:space="preserve">
<path style="fill:#E4EAF8;" d="M341.511,298.756H33.67c-14.168,0-25.653-11.485-25.653-25.653V59.324
	c0-14.168,11.485-25.653,25.653-25.653h307.841c14.168,0,25.653,11.485,25.653,25.653v213.779
	C367.165,287.27,355.68,298.756,341.511,298.756z"/>
<path style="fill:#C7CFE2;" d="M364.689,127.733h-29.252c-27.411,0-53.389,11.913-71.276,32.682
	c-17.886,20.77-25.813,48.227-21.747,75.335l9.45,63.007h89.647c14.168,0,25.653-11.485,25.653-25.653V127.866
	C366.337,127.845,365.521,127.733,364.689,127.733z"/>
<g>
	<circle style="fill:#FF5050;" cx="102.079" cy="256" r="17.102"/>
	<path style="fill:#FF5050;" d="M238.898,213.244H136.284c-18.891,0-34.205-15.314-34.205-34.205V110.63
		c0-18.891,15.314-34.205,34.205-34.205h102.614c18.891,0,34.205,15.314,34.205,34.205v68.409
		C273.102,197.93,257.788,213.244,238.898,213.244z"/>
</g>
<path style="fill:#5B5D6E;" d="M484.552,405.063l-83.182-20.795H298.756l-83.182,20.795c-11.42,2.855-19.431,13.116-19.431,24.887
	v31.278c0,9.445,7.658,17.102,17.102,17.102h273.637c9.445,0,17.102-7.658,17.102-17.102V429.95
	C503.983,418.179,495.972,407.918,484.552,405.063z"/>
<rect x="298.756" y="324.409" style="fill:#D29B6E;" width="102.614" height="85.511"/>
<path style="fill:#F0C087;" d="M374.3,361.219l34.174-28.477c6.44-5.367,10.686-12.912,11.929-21.203l11.94-79.595
	c6.204-41.361-25.829-78.557-67.652-78.557h-29.253c-41.824,0-73.856,37.196-67.652,78.557l11.94,79.595
	c1.243,8.29,5.489,15.836,11.929,21.203l34.174,28.477c4.61,3.842,10.422,5.946,16.422,5.946h15.629
	C363.878,367.165,369.69,365.061,374.3,361.219z"/>
<path style="fill:#E6AF78;" d="M364.689,153.386h-29.252c-41.824,0-73.857,37.196-67.653,78.557l11.94,79.595
	c1.244,8.29,5.489,15.836,11.929,21.203l34.174,28.477c4.611,3.842,10.423,5.946,16.424,5.946h3.539l-15.962-31.923
	c-3.563-7.124-5.416-14.979-5.416-22.945v-67.215c4.115-0.386,8.25-0.827,12.319-1.35c1.483,2.424,3.372,4.61,5.621,6.454
	c4.625,3.792,10.385,5.815,16.264,5.815c1.675,0,3.361-0.164,5.031-0.498c4.503-0.9,40.224-8.584,69.366-30.677
	C434.781,186.412,404.096,153.386,364.689,153.386z"/>
<path style="fill:#FFFFFF;" d="M161.937,124.466v40.737c0,6.357,6.689,10.491,12.376,7.648l40.737-20.369
	c6.302-3.151,6.302-12.146,0-15.297l-40.737-20.369C168.627,113.975,161.937,118.11,161.937,124.466z"/>
<path style="fill:#C7CFE2;" d="M427.023,196.142c0,0,0.212-0.532,0.524-1.32c-10.393-24.122-34.335-41.436-62.857-41.436h-29.253
	c-38.362,0-68.395,31.311-68.332,68.409h5.999c0,0,59.858,0,85.511-8.551v11.685c0,2.806,2.608,4.857,5.322,4.149
	C376.189,225.885,406.879,216.286,427.023,196.142z"/>
<path style="fill:#AFB9D2;" d="M364.689,153.386h-29.253c-38.362,0-68.395,31.311-68.332,68.409h5.999c0,0,26.249-0.016,51.433-2.5
	c1.149-31.715,23.818-57.919,53.889-64.363C373.979,154.024,369.43,153.386,364.689,153.386z"/>
<g>
	<circle style="fill:#E4EAF8;" cx="315.858" cy="273.102" r="17.102"/>
	<circle style="fill:#E4EAF8;" cx="384.267" cy="273.102" r="17.102"/>
</g>
<g>
	<path style="fill:#EBC9A0;" d="M264.551,392.818l-48.978,12.244c-11.42,2.855-19.431,13.116-19.431,24.887v31.278
		c0,9.445,7.658,17.102,17.102,17.102h76.96l-17.102-85.511H264.551z"/>
	<path style="fill:#EBC9A0;" d="M435.574,392.818l48.978,12.244c11.42,2.855,19.431,13.116,19.431,24.887v31.278
		c0,9.445-7.658,17.102-17.102,17.102h-76.96l17.102-85.511H435.574z"/>
</g>
<g>
	<path style="fill:#7F8499;" d="M297.391,372.321l52.672,37.623l-27.584,27.584c-3.555,3.555-9.397,3.291-12.616-0.572
		l-36.761-44.113l12.204-18.305C287.986,370.517,293.46,369.513,297.391,372.321z"/>
	<path style="fill:#7F8499;" d="M402.735,372.321l-52.672,37.623l27.584,27.584c3.555,3.555,9.397,3.291,12.616-0.572l36.761-44.113
		l-12.204-18.305C412.14,370.517,406.665,369.513,402.735,372.321z"/>
</g>
<path style="fill:#C84146;" d="M273.102,179.04v-27.558c-3.139,2.783-6.168,5.712-8.941,8.934
	c-12.85,14.922-20.46,33.312-22.274,52.529C259.354,211.406,273.102,196.906,273.102,179.04z"/>
<path d="M315.858,298.221c12.813,0,23.408-9.645,24.926-22.053c2.216-2.246,5.604-3.6,9.279-3.6c3.675,0,7.063,1.355,9.279,3.6
	c1.518,12.409,12.113,22.053,24.926,22.053c13.851,0,25.119-11.268,25.119-25.119s-11.268-25.119-25.119-25.119
	c-8.834,0-16.612,4.588-21.091,11.502c-3.951-1.907-8.423-2.951-13.113-2.951c-4.69,0-9.163,1.044-13.113,2.951
	c-4.48-6.915-12.257-11.502-21.091-11.502c-13.851,0-25.119,11.268-25.119,25.119S302.007,298.221,315.858,298.221z
	 M384.267,264.017c5.01,0,9.086,4.076,9.086,9.086c0,5.01-4.076,9.086-9.086,9.086s-9.086-4.076-9.086-9.086
	S379.257,264.017,384.267,264.017z M315.858,264.017c5.01,0,9.086,4.076,9.086,9.086c0,5.01-4.076,9.086-9.086,9.086
	s-9.086-4.076-9.086-9.086S310.848,264.017,315.858,264.017z"/>
<path d="M485.634,397.631l-53.728-11.94l-10.416-15.625c-2.511-3.767-6.346-6.29-10.799-7.106c-0.435-0.079-0.87-0.127-1.305-0.173
	v-20.371l4.219-3.516c7.959-6.631,13.188-15.926,14.725-26.172l11.94-79.595c3.304-22.023-3.137-44.335-17.67-61.209
	c-12.225-14.196-29.109-23.272-47.418-25.805V59.324c0-18.566-15.105-33.67-33.67-33.67H33.669C15.105,25.653,0,40.758,0,59.324
	v213.779c0,18.566,15.105,33.67,33.67,33.67h237.231l0.894,5.955c1.537,10.245,6.766,19.54,14.725,26.172l4.219,3.516v20.371
	c-0.435,0.045-0.87,0.093-1.305,0.173c-4.453,0.816-8.287,3.34-10.799,7.106l-10.416,15.625l-53.728,11.94
	c-15.523,3.451-26.365,16.968-26.365,32.869v30.729c0,13.851,11.268,25.119,25.119,25.119h273.637
	c13.851,0,25.119-11.268,25.119-25.119v-30.729C512,414.597,501.158,401.081,485.634,397.631z M358.079,470.313v-41.039
	l13.898,13.898c3.107,3.107,7.343,4.853,11.72,4.853c0.248,0,0.497-0.005,0.746-0.017c4.639-0.211,9.004-2.377,11.977-5.945
	l16.55-19.86l-9.622,48.111H358.079z M296.777,470.313l-9.622-48.109l16.55,19.86c2.973,3.567,7.338,5.735,11.977,5.945
	c0.249,0.012,0.497,0.017,0.746,0.017c4.377,0,8.613-1.746,11.72-4.853l13.898-13.9v41.039H296.777z M417.032,392.285L384.103,431.8
	c-0.042,0.049-0.151,0.181-0.386,0.192c-0.238-0.004-0.357-0.111-0.402-0.156l-20.892-20.892l44.972-32.122
	c0.045-0.032,0.183-0.131,0.406-0.091c0.222,0.041,0.317,0.183,0.348,0.229L417.032,392.285z M410.452,182.386
	c2.981,3.462,5.522,7.218,7.618,11.181c-16.365,14.56-38.83,22.72-51.439,26.432v-6.754c0-2.577-1.239-4.997-3.33-6.503
	c-2.091-1.506-4.778-1.918-7.223-1.102c-21.265,7.088-69.066,8.005-80.488,8.123c1.539-11.484,6.356-22.403,14.083-31.375
	c11.485-13.336,28.164-20.983,45.763-20.983h29.253C382.288,161.403,398.967,169.051,410.452,182.386z M265.086,179.04
	c0,14.44-11.748,26.188-26.188,26.188H136.284c-14.44,0-26.188-11.748-26.188-26.188V110.63c0-14.44,11.748-26.188,26.188-26.188
	h102.614c14.44,0,26.188,11.748,26.188,26.188V179.04z M33.67,290.739c-9.725,0-17.637-7.912-17.637-17.637V59.324
	c0-9.725,7.912-17.637,17.637-17.637h307.841c9.725,0,17.637,7.912,17.637,17.637v86.046h-23.712
	c-20.504,0-40.008,8.221-54.317,22.692V110.63c0-23.281-18.941-42.221-42.221-42.221H136.284c-23.28,0-42.221,18.941-42.221,42.221
	v68.409c0,23.281,18.941,42.221,42.221,42.221h102.614c7.37,0,14.303-1.904,20.34-5.237c-0.426,5.657-0.241,11.39,0.618,17.109
	l2.228,14.85H125.879c-3.354-9.93-12.752-17.102-23.8-17.102s-20.446,7.172-23.8,17.102H42.221c-4.427,0-8.017,3.589-8.017,8.017
	c0,4.427,3.589,8.017,8.017,8.017h36.058c3.354,9.93,12.752,17.102,23.8,17.102s20.446-7.172,23.8-17.102h138.609l4.008,26.722
	H33.67z M111.164,256.015c-0.009,5.002-4.08,9.071-9.085,9.071c-5.01,0-9.086-4.076-9.086-9.086c0-5.01,4.076-9.086,9.086-9.086
	c5.005,0,9.076,4.067,9.085,9.071c0,0.005-0.001,0.011-0.001,0.015C111.163,256.004,111.164,256.011,111.164,256.015z
	 M275.711,230.754c-0.048-0.319-0.075-0.637-0.117-0.956c10.302-0.089,49.318-0.782,75.002-6.178v6.725
	c0,2.402,1.076,4.676,2.934,6.2c1.446,1.185,3.245,1.817,5.083,1.817c0.524,0,1.05-0.051,1.572-0.156
	c1.652-0.33,36.873-7.578,63.642-28.575c1.413,6.874,1.651,14.014,0.586,21.121l-11.94,79.595
	c-0.953,6.355-4.196,12.12-9.133,16.233l-34.174,28.477c-3.163,2.636-7.173,4.087-11.291,4.087h-15.629
	c-4.117,0-8.128-1.452-11.291-4.087l-34.174-28.477c-4.936-4.113-8.179-9.879-9.133-16.233L275.711,230.754z M320.693,367.378
	c6.038,5.032,13.694,7.804,21.555,7.804h15.629c7.861,0,15.516-2.772,21.555-7.804l13.92-11.601v13.37l-43.29,30.922l-43.29-30.922
	v-13.37L320.693,367.378z M291.976,378.96c0.031-0.046,0.126-0.188,0.348-0.229c0.221-0.041,0.36,0.059,0.406,0.091l44.972,32.122
	l-20.892,20.892c-0.046,0.045-0.161,0.153-0.402,0.156c-0.235-0.011-0.345-0.142-0.386-0.192l-32.929-39.515L291.976,378.96z
	 M204.159,461.228v-30.729c0-8.33,5.679-15.409,13.81-17.217l48.878-10.862l13.578,67.893h-67.181
	C208.234,470.313,204.159,466.237,204.159,461.228z M495.967,461.228c0,5.01-4.076,9.086-9.086,9.086H419.7l13.578-67.893
	l48.878,10.862c8.131,1.807,13.81,8.887,13.81,17.217V461.228z"/>
<path d="M218.635,130.016l-40.737-20.369c-5.173-2.587-11.2-2.316-16.12,0.725c-4.92,3.041-7.857,8.31-7.857,14.093v40.737
	c0,5.784,2.937,11.052,7.857,14.093c2.678,1.655,5.683,2.489,8.7,2.489c2.527,0,5.062-0.586,7.419-1.764l40.737-20.369
	c5.649-2.825,9.158-8.503,9.158-14.819C227.792,138.517,224.284,132.841,218.635,130.016z M211.465,145.313l-40.737,20.369
	c-0.099,0.05-0.267,0.134-0.519-0.024c-0.254-0.157-0.254-0.343-0.254-0.454v-40.737c0-0.111,0-0.298,0.253-0.455
	c0.11-0.067,0.203-0.091,0.282-0.091c0.104,0,0.182,0.04,0.238,0.067l40.737,20.369c0.131,0.066,0.295,0.148,0.295,0.478
	C211.76,145.165,211.596,145.248,211.465,145.313z"/>
<g>
</g>
<g>
</g>
<g>
</g>
<g>
</g>
<g>
</g>
<g>
</g>
<g>
</g>
<g>
</g>
<g>
</g>
<g>
</g>
<g>
</g>
<g>
</g>
<g>
</g>
<g>
</g>
<g>
</g>
</svg>
