<?xml version="1.0" encoding="iso-8859-1"?>
<!-- Generator: Adobe Illustrator 19.0.0, SVG Export Plug-In . SVG Version: 6.00 Build 0)  -->
<svg version="1.1" id="Layer_1" xmlns="http://www.w3.org/2000/svg" xmlns:xlink="http://www.w3.org/1999/xlink" x="0px" y="0px"
	 viewBox="0 0 512 512" style="enable-background:new 0 0 512 512;" xml:space="preserve">
<g>
	<path style="fill:#5B5D6E;" d="M33.67,392.818v25.653c0,4.722,3.829,8.551,8.551,8.551h17.102c4.722,0,8.551-3.829,8.551-8.551
		v-25.653H33.67z"/>
	<path style="fill:#5B5D6E;" d="M444.125,392.818v25.653c0,4.722,3.829,8.551,8.551,8.551h17.102c4.722,0,8.551-3.829,8.551-8.551
		v-25.653H444.125z"/>
</g>
<path style="fill:#707487;" d="M486.881,392.818H25.119c-9.446,0-17.102-7.656-17.102-17.102V256
	c0-9.446,7.656-17.102,17.102-17.102h461.762c9.446,0,17.102,7.656,17.102,17.102v119.716
	C503.983,385.162,496.327,392.818,486.881,392.818z"/>
<circle style="fill:#959CB5;" cx="350.063" cy="273.102" r="85.511"/>
<circle style="fill:#00C3F0;" cx="350.063" cy="273.102" r="51.307"/>
<g>
	<path style="fill:#59D8FF;" d="M367.165,307.307c-28.336,0-51.307-22.97-51.307-51.307c0-9.781,2.787-18.889,7.537-26.668
		c-14.756,9.011-24.639,25.215-24.639,43.77c0,28.336,22.971,51.307,51.307,51.307c18.555,0,34.76-9.883,43.77-24.639
		C386.054,304.52,376.946,307.307,367.165,307.307z"/>
	<circle style="fill:#59D8FF;" cx="353.729" cy="269.436" r="18.321"/>
</g>
<path d="M486.881,230.881h-53.377c-15.454-30.416-47.052-51.307-83.441-51.307s-67.987,20.89-83.441,51.307H25.119
	C11.268,230.881,0,242.149,0,256v119.716c0,13.851,11.268,25.119,25.119,25.119h0.534v17.637c0,9.136,7.432,16.568,16.568,16.568
	h17.102c9.136,0,16.568-7.432,16.568-16.568v-17.637h360.217v17.637c0,9.136,7.432,16.568,16.568,16.568h17.102
	c9.136,0,16.568-7.432,16.568-16.568v-17.637h0.534c13.851,0,25.119-11.268,25.119-25.119V256
	C512,242.149,500.732,230.881,486.881,230.881z M350.063,195.608c42.731,0,77.495,34.764,77.495,77.495
	s-34.764,77.495-77.495,77.495s-77.495-34.764-77.495-77.495S307.331,195.608,350.063,195.608z M59.858,418.472
	c0,0.295-0.239,0.534-0.534,0.534H42.221c-0.295,0-0.534-0.239-0.534-0.534v-17.637h18.171V418.472z M470.313,418.472
	c0,0.295-0.239,0.534-0.534,0.534h-17.102c-0.295,0-0.534-0.239-0.534-0.534v-17.637h18.171V418.472z M495.967,375.716
	c0,5.01-4.076,9.086-9.086,9.086H25.119c-5.01,0-9.086-4.076-9.086-9.086V256c0-5.01,4.076-9.086,9.086-9.086h235.152
	c-2.429,8.314-3.737,17.1-3.737,26.188c0,51.572,41.956,93.528,93.528,93.528s93.528-41.956,93.528-93.528
	c0-9.088-1.308-17.874-3.737-26.188h47.027c5.01,0,9.086,4.076,9.086,9.086V375.716z"/>
<path d="M350.063,332.426c32.711,0,59.324-26.612,59.324-59.324s-26.612-59.324-59.324-59.324s-59.324,26.612-59.324,59.324
	S317.351,332.426,350.063,332.426z M350.063,229.812c23.871,0,43.29,19.42,43.29,43.29s-19.42,43.29-43.29,43.29
	c-23.871,0-43.29-19.42-43.29-43.29S326.192,229.812,350.063,229.812z"/>
<path d="M196.142,265.086c-4.427,0-8.017,3.589-8.017,8.017v85.512c0,4.427,3.589,8.017,8.017,8.017s8.017-3.589,8.017-8.017
	v-85.512C204.159,268.675,200.569,265.086,196.142,265.086z"/>
<path d="M161.937,265.086c-4.427,0-8.017,3.589-8.017,8.017v85.512c0,4.427,3.589,8.017,8.017,8.017s8.017-3.589,8.017-8.017
	v-85.512C169.954,268.675,166.365,265.086,161.937,265.086z"/>
<path d="M127.733,265.086c-4.427,0-8.017,3.589-8.017,8.017v85.512c0,4.427,3.589,8.017,8.017,8.017
	c4.427,0,8.017-3.589,8.017-8.017v-85.512C135.749,268.675,132.16,265.086,127.733,265.086z"/>
<path d="M93.528,265.086c-4.427,0-8.017,3.589-8.017,8.017v85.512c0,4.427,3.589,8.017,8.017,8.017c4.427,0,8.017-3.589,8.017-8.017
	v-85.512C101.545,268.675,97.956,265.086,93.528,265.086z"/>
<path d="M260.764,181.864c-3.162,3.099-3.213,8.175-0.113,11.337c3.1,3.162,8.174,3.212,11.337,0.113
	c20.994-20.577,48.722-31.911,78.075-31.911c29.357,0,57.087,11.336,78.083,31.918c1.561,1.53,3.586,2.293,5.612,2.293
	c2.078,0,4.156-0.803,5.725-2.405c3.1-3.162,3.05-8.238-0.112-11.337c-24.012-23.539-55.728-36.503-89.307-36.503
	C316.488,145.37,284.774,158.33,260.764,181.864z"/>
<path d="M462.301,167.47c3.062-3.197,2.953-8.272-0.245-11.335c-30.28-29-70.053-44.97-111.993-44.97
	c-41.947,0-81.723,15.975-112.005,44.981c-3.197,3.062-3.306,8.137-0.244,11.335c1.574,1.644,3.68,2.471,5.79,2.471
	c1.993,0,3.991-0.74,5.544-2.228c27.282-26.133,63.121-40.526,100.914-40.526c37.789,0,73.623,14.389,100.904,40.516
	C454.164,170.777,459.239,170.667,462.301,167.47z"/>
<path d="M227.264,141.414c33.457-31.223,77.068-48.42,122.799-48.42c45.749,0,89.373,17.209,122.836,48.456
	c1.546,1.443,3.509,2.157,5.47,2.157c2.143,0,4.282-0.855,5.861-2.545c3.022-3.236,2.848-8.309-0.388-11.331
	c-36.442-34.029-83.952-52.77-133.778-52.77c-49.806,0-97.301,18.727-133.738,52.732c-3.237,3.021-3.412,8.094-0.391,11.33
	C218.955,144.26,224.027,144.434,227.264,141.414z"/>
<path d="M350.063,264.017c5.01,0,9.086,4.076,9.086,9.086c0,4.427,3.589,8.017,8.017,8.017c4.427,0,8.017-3.589,8.017-8.017
	c0-13.851-11.268-25.119-25.119-25.119c-4.427,0-8.017,3.589-8.017,8.017C342.046,260.427,345.635,264.017,350.063,264.017z"/>
<g>
</g>
<g>
</g>
<g>
</g>
<g>
</g>
<g>
</g>
<g>
</g>
<g>
</g>
<g>
</g>
<g>
</g>
<g>
</g>
<g>
</g>
<g>
</g>
<g>
</g>
<g>
</g>
<g>
</g>
</svg>
