<?xml version="1.0" encoding="iso-8859-1"?>
<!-- Generator: Adobe Illustrator 19.0.0, SVG Export Plug-In . SVG Version: 6.00 Build 0)  -->
<svg version="1.1" id="Layer_1" xmlns="http://www.w3.org/2000/svg" xmlns:xlink="http://www.w3.org/1999/xlink" x="0px" y="0px"
	 viewBox="0 0 512 512" style="enable-background:new 0 0 512 512;" xml:space="preserve">
<path style="fill:#E4EAF8;" d="M486.881,435.574H25.119c-9.446,0-17.102-7.656-17.102-17.102V93.528
	c0-9.446,7.656-17.102,17.102-17.102h461.762c9.446,0,17.102,7.656,17.102,17.102v324.944
	C503.983,427.917,496.326,435.574,486.881,435.574z"/>
<path style="fill:#FFFFFF;" d="M247.449,324.409l-34.205-34.205v-25.653c0-9.446-7.658-17.102-17.102-17.102H93.528
	c-9.445,0-17.102,7.656-17.102,17.102v68.409c0,9.445,7.658,17.102,17.102,17.102h102.614c9.445,0,17.102-7.658,17.102-17.102
	v-8.551H247.449z"/>
<path style="fill:#D29B6E;" d="M406.777,380.369l-27.918-9.307c-6.984-2.328-11.694-8.863-11.694-16.225V332.96h-51.307v21.878
	c0,7.361-4.71,13.897-11.694,16.225l-27.918,9.307c-6.984,2.328-11.694,8.863-11.694,16.225v38.979h153.921v-38.98
	C418.472,389.232,413.762,382.697,406.777,380.369z"/>
<path style="fill:#5B5D6E;" d="M406.777,380.369l-27.918-9.307c-1.677-0.559-3.205-1.386-4.586-2.384
	c-7.844,9.446-19.527,15.589-32.762,15.589c-13.235,0-24.918-6.143-32.762-15.589c-1.381,0.997-2.908,1.826-4.586,2.384
	l-27.918,9.307c-6.984,2.328-11.694,8.863-11.694,16.225v38.98h153.921v-38.98C418.472,389.232,413.762,382.697,406.777,380.369z"/>
<ellipse style="fill:#694B4B;" cx="341.511" cy="260.276" rx="68.409" ry="64.134"/>
<path style="fill:#5A4146;" d="M358.041,198.106c-5.303-1.236-10.819-1.964-16.529-1.964c-37.781,0-68.409,28.714-68.409,64.134
	c0,30.414,22.607,55.826,52.91,62.418c0-11.005,0-27.379,0-51.729C326.013,233.921,343.848,210.741,358.041,198.106z"/>
<path style="fill:#F0C087;" d="M384.632,328.502l-27.823,13.912c-9.63,4.814-20.964,4.814-30.594,0l-27.823-13.912
	c-5.115-2.557-8.612-7.501-9.322-13.175l-5.194-41.55c-0.612-4.898,3.011-9.269,7.935-9.591
	c15.938-1.043,49.178-5.044,69.669-20.388c3.456-2.588,8.28-2.132,11.233,1.018l23.773,25.354c1.739,1.855,2.562,4.387,2.247,6.909
	l-4.781,38.247C393.244,321,389.746,325.945,384.632,328.502z"/>
<path style="fill:#E6AF78;" d="M396.488,270.17l-23.774-25.355c-2.974-3.171-7.815-3.569-11.298-0.968
	c-10.381,7.751-24.006,12.583-37.006,15.618v0.001c-12.713,2.967-24.825,4.214-32.68,4.726c-4.954,0.323-8.469,4.661-7.853,9.586
	l5.193,41.548c0.71,5.675,4.207,10.619,9.323,13.176l27.823,13.912c4.155,2.077,8.639,3.078,13.155,3.364l-10.446-20.892
	c-2.968-5.936-4.514-12.481-4.514-19.118v-13.239c0-4.003,2.779-7.391,6.673-8.321c10.865-2.595,22.152-6.299,32.494-11.632
	l14.197,15.142c4.765,5.083,11.825,9.027,18.599,8.257l2.362-18.895C399.05,274.557,398.227,272.025,396.488,270.17z"/>
<path style="fill:#5B5D6E;" d="M392.818,187.591H290.205l-6.545,26.18c-1.118,4.474,1.512,9.029,5.946,10.296l47.207,13.487
	c3.071,0.878,6.326,0.878,9.397,0l47.207-13.487c4.435-1.267,7.065-5.822,5.946-10.296L392.818,187.591z"/>
<path style="fill:#464655;" d="M290.205,187.591l-6.546,26.18c-1.118,4.474,1.513,9.029,5.946,10.296l47.208,13.488
	c1.536,0.438,3.117,0.658,4.699,0.658v-50.623H290.205z"/>
<path style="fill:#707487;" d="M334.761,154.325l-76.489,21.652c-3.006,0.851-3.006,5.276,0,6.127l76.489,21.652
	c4.419,1.251,9.08,1.251,13.5,0l76.489-21.652c3.006-0.851,3.006-5.276,0-6.127l-76.489-21.652
	C343.842,153.074,339.18,153.074,334.761,154.325z"/>
<path d="M486.881,68.409H25.119C11.268,68.409,0,79.677,0,93.528v324.944c0,13.851,11.268,25.119,25.119,25.119h461.762
	c13.851,0,25.119-11.268,25.119-25.119V93.528C512,79.677,500.732,68.409,486.881,68.409z M336.945,162.038L336.945,162.038
	c2.988-0.845,6.145-0.847,9.134,0l60.061,17.002l-60.062,17.002c-2.988,0.845-6.146,0.845-9.133,0l-60.061-17.002L336.945,162.038z
	 M376.578,237.216l17.55-5.014c5.104,8.223,7.776,17.463,7.776,27.062c0,1.583-0.081,3.156-0.228,4.719L376.578,237.216z
	 M390.94,215.857c0.013,0.037,0.022,0.125,0.012,0.23c-0.154,0.151-0.295,0.311-0.434,0.471l-40.99,11.712v-16.575
	c0.306-0.077,0.612-0.14,0.916-0.226l35.667-10.096L390.94,215.857z M332.578,211.468c0.304,0.086,0.611,0.149,0.917,0.226v16.575
	l-40.967-11.704c-0.148-0.171-0.298-0.339-0.462-0.498c-0.006-0.095,0.005-0.173,0.017-0.208l4.828-14.486L332.578,211.468z
	 M288.895,232.202l50.414,14.404c0.032,0.01,0.066,0.012,0.098,0.021c-25.228,9.725-56.273,9.91-56.686,9.91
	c-0.519,0-1.031,0.058-1.533,0.155C281.624,248.016,284.249,239.687,288.895,232.202z M291.763,272.237
	c16.635-1.028,52.262-5.215,74.812-22.247l24.236,25.848L386,314.334c-0.378,3.022-2.229,5.638-4.952,7l-27.823,13.912
	c-7.335,3.666-16.09,3.665-23.424,0l-27.823-13.912c-2.724-1.362-4.575-3.978-4.952-7L291.763,272.237z M410.455,427.557h-60.927
	v-35.914c9.95-1.593,19.232-6.127,26.634-13.037c0.055,0.019,0.107,0.043,0.162,0.061l27.918,9.307
	c3.715,1.239,6.212,4.702,6.212,8.62V427.557z M323.875,350.162c5.572,2.56,11.602,3.857,17.637,3.857
	c6.035,0,12.065-1.297,17.637-3.857v4.676c0,5.018,1.498,9.758,4.11,13.75c-6.125,4.917-13.783,7.662-21.747,7.662
	c-7.962,0-15.622-2.746-21.748-7.662c2.613-3.992,4.111-8.732,4.111-13.75V350.162z M306.699,378.668
	c0.056-0.018,0.108-0.043,0.164-0.062c7.401,6.91,16.683,11.445,26.633,13.038v35.913h-60.927v-30.964
	c0-3.918,2.496-7.381,6.212-8.62L306.699,378.668z M495.967,418.472c0,5.01-4.076,9.086-9.086,9.086h-60.392v-30.964
	c0-10.829-6.903-20.406-17.176-23.83l-27.918-9.307c-3.717-1.239-6.212-4.702-6.212-8.618V342.19l13.035-6.517
	c7.529-3.765,12.648-10.999,13.691-19.351l2.01-16.079c9.169-12.04,14.02-26.195,14.02-40.978c0-13.62-4.069-26.651-11.808-38.007
	c1.119-3.376,1.155-7.066,0.021-10.47l-4.595-13.787l17.451-4.94v38.286c0,4.427,3.589,8.017,8.017,8.017
	c4.427,0,8.017-3.589,8.017-8.017V179.04c0-0.305-0.02-0.605-0.053-0.901c-0.359-4.683-3.504-8.589-8.052-9.877l-76.489-21.652
	c-5.845-1.655-12.023-1.655-17.867,0l-76.489,21.65c-4.838,1.369-8.088,5.7-8.088,10.778c0,5.077,3.251,9.408,8.088,10.778
	L281.469,197l-4.596,13.787c-1.134,3.403-1.098,7.094,0.021,10.47c-7.74,11.357-11.808,24.388-11.808,38.008
	c0,14.823,4.845,28.938,14.019,40.973l2.011,16.084c1.044,8.352,6.162,15.588,13.691,19.351l13.035,6.518v12.648
	c0,3.918-2.496,7.381-6.212,8.618l-27.918,9.307c-10.273,3.424-17.176,13.001-17.176,23.83v30.964H25.119
	c-5.01,0-9.086-4.076-9.086-9.086V93.528c0-5.01,4.076-9.086,9.086-9.086h461.762c5.01,0,9.086,4.076,9.086,9.086V418.472z"/>
<path d="M67.875,393.353H50.238V118.647h17.637c4.427,0,8.017-3.589,8.017-8.017c0-4.427-3.589-8.017-8.017-8.017H42.221
	c-4.427,0-8.017,3.589-8.017,8.017V401.37c0,4.427,3.589,8.017,8.017,8.017h25.653c4.427,0,8.017-3.589,8.017-8.017
	C75.891,396.942,72.302,393.353,67.875,393.353z"/>
<path d="M469.78,102.614h-25.653c-4.427,0-8.017,3.589-8.017,8.017c0,4.427,3.589,8.017,8.017,8.017h17.637v274.706h-17.637
	c-4.427,0-8.017,3.589-8.017,8.017c0,4.427,3.589,8.017,8.017,8.017h25.653c4.427,0,8.017-3.589,8.017-8.017V110.63
	C477.797,106.203,474.207,102.614,469.78,102.614z"/>
<path d="M68.409,144.835v51.307c0,4.427,3.589,8.017,8.017,8.017s8.017-3.589,8.017-8.017v-9.086h5.766l14.754,14.754
	c3.131,3.131,8.207,3.131,11.337,0c3.131-3.131,3.131-8.207,0-11.337l-8.133-8.133c6.344-4.564,10.482-12.009,10.482-20.402
	c0-13.851-11.268-25.119-25.119-25.119H76.426C71.999,136.818,68.409,140.408,68.409,144.835z M93.528,152.852
	c5.01,0,9.086,4.076,9.086,9.086s-4.076,9.086-9.086,9.086h-9.086v-18.171H93.528z"/>
<path d="M136.284,204.159h34.205c4.427,0,8.017-3.589,8.017-8.017s-3.589-8.017-8.017-8.017h-26.188v-9.62h9.086
	c4.427,0,8.017-3.589,8.017-8.017s-3.589-8.017-8.017-8.017h-9.086v-9.62h26.188c4.427,0,8.017-3.589,8.017-8.017
	c0-4.427-3.589-8.017-8.017-8.017h-34.205c-4.427,0-8.017,3.589-8.017,8.017v51.307
	C128.267,200.569,131.857,204.159,136.284,204.159z"/>
<path d="M212.888,204.159c6.422,0,12.523-2.035,17.645-5.884c3.54-2.66,4.252-7.685,1.593-11.224
	c-2.66-3.54-7.686-4.253-11.224-1.593c-2.323,1.745-5.093,2.668-8.013,2.668c-7.368,0-13.361-5.993-13.361-13.361v-8.551
	c0-7.368,5.993-13.361,13.361-13.361c2.916,0,5.684,0.92,8.006,2.663c3.542,2.657,8.567,1.938,11.223-1.602
	c2.657-3.541,1.939-8.567-1.602-11.223c-5.12-3.841-11.215-5.87-17.627-5.87c-16.209,0-29.395,13.186-29.395,29.395v8.551
	C183.494,190.973,196.68,204.159,212.888,204.159z"/>
<path d="M179.04,273.637H110.63c-4.427,0-8.017,3.589-8.017,8.017c0,4.427,3.589,8.017,8.017,8.017h68.409
	c4.427,0,8.017-3.589,8.017-8.017C187.056,277.226,183.467,273.637,179.04,273.637z"/>
<path d="M179.04,307.841H110.63c-4.427,0-8.017,3.589-8.017,8.017c0,4.427,3.589,8.017,8.017,8.017h68.409
	c4.427,0,8.017-3.589,8.017-8.017C187.056,311.431,183.467,307.841,179.04,307.841z"/>
<path d="M221.261,264.551c0-13.851-11.268-25.119-25.119-25.119H93.528c-13.851,0-25.119,11.268-25.119,25.119v68.409
	c0,13.851,11.268,25.119,25.119,25.119h102.614c13.851,0,25.119-11.268,25.119-25.119v-0.534h26.188
	c3.243,0,6.165-1.953,7.406-4.949c1.241-2.996,0.555-6.443-1.738-8.736l-31.856-31.856V264.551z M228.095,316.392h-14.851
	c-4.427,0-8.017,3.589-8.017,8.017v8.551c0,5.01-4.076,9.086-9.086,9.086H93.528c-5.01,0-9.086-4.076-9.086-9.086v-68.409
	c0-5.01,4.076-9.086,9.086-9.086h102.614c5.01,0,9.086,4.076,9.086,9.086v25.653c0,2.126,0.844,4.165,2.348,5.668L228.095,316.392z"
	/>
<g>
</g>
<g>
</g>
<g>
</g>
<g>
</g>
<g>
</g>
<g>
</g>
<g>
</g>
<g>
</g>
<g>
</g>
<g>
</g>
<g>
</g>
<g>
</g>
<g>
</g>
<g>
</g>
<g>
</g>
</svg>
