<?xml version="1.0" encoding="iso-8859-1"?>
<!-- Generator: Adobe Illustrator 19.0.0, SVG Export Plug-In . SVG Version: 6.00 Build 0)  -->
<svg version="1.1" id="Layer_1" xmlns="http://www.w3.org/2000/svg" xmlns:xlink="http://www.w3.org/1999/xlink" x="0px" y="0px"
	 viewBox="0 0 512 512" style="enable-background:new 0 0 512 512;" xml:space="preserve">
<path style="fill:#7DF5A5;" d="M359.586,392.818H103.052c-9.446,0-17.102-7.656-17.102-17.102V33.67
	c0-9.446,7.656-17.102,17.102-17.102h256.534c9.446,0,17.102,7.656,17.102,17.102v342.046
	C376.689,385.161,369.031,392.818,359.586,392.818z"/>
<g>
	<path style="fill:#64DCA0;" d="M120.154,392.818h-17.102c-9.446,0-17.102-7.656-17.102-17.102V33.67
		c0-9.446,7.656-17.102,17.102-17.102h17.102V392.818z"/>
	<path style="fill:#64DCA0;" d="M359.586,392.818c9.445,0,17.102-7.658,17.102-17.102v-60.461l-33.167-33.167
		c-4.908-4.907-11.469-7.514-18.146-7.514c-3.305,0-6.638,0.639-9.812,1.954c-9.586,3.97-15.836,13.325-15.836,23.701v92.59H359.586
		z"/>
</g>
<polygon style="fill:#464655;" points="325.382,300.228 325.382,442.351 356.558,421.918 390.551,503.983 423.377,490.386 
	389.384,408.321 426.052,400.898 "/>
<path style="fill:#5B5D6E;" d="M197.114,93.528l-21.378-17.102l-21.378,17.102v-76.96c0-4.722,3.829-8.551,8.551-8.551h25.653
	c4.722,0,8.551,3.829,8.551,8.551V93.528z"/>
<path d="M431.721,395.23l-47.015-47.016V33.67c0-13.851-11.268-25.119-25.119-25.119H203.052C200.223,3.458,194.792,0,188.563,0
	H162.91c-6.228,0-11.66,3.458-14.489,8.551h-45.369c-13.851,0-25.119,11.268-25.119,25.119v342.046
	c0,13.851,11.268,25.119,25.119,25.119h214.313v41.516c0,2.945,1.615,5.653,4.206,7.054c2.592,1.4,5.742,1.267,8.205-0.348
	l23.08-15.127l30.288,73.122c0.813,1.965,2.374,3.525,4.339,4.339c0.982,0.406,2.026,0.61,3.068,0.61
	c1.042,0,2.085-0.203,3.068-0.61l32.826-13.597c4.091-1.694,6.033-6.384,4.339-10.474l-30.267-73.072l27.126-5.491
	c2.895-0.586,5.232-2.716,6.084-5.543C434.578,400.385,433.809,397.317,431.721,395.23z M162.375,16.568
	c0-0.295,0.239-0.534,0.534-0.534h25.653c0.293,0,0.531,0.237,0.533,0.53v0.004c0,0.007,0.001,0.014,0.001,0.02v60.26l-8.353-6.683
	c-1.464-1.172-3.236-1.757-5.008-1.757s-3.543,0.586-5.008,1.757l-8.353,6.683V16.568z M93.966,375.716V33.67
	c0-5.01,4.076-9.086,9.086-9.086h9.086v360.217h-9.086C98.042,384.802,93.966,380.726,93.966,375.716z M128.171,384.802V24.585
	h18.171v68.944c0,3.082,1.766,5.891,4.544,7.226c2.778,1.335,6.073,0.961,8.481-0.965l16.37-13.096l16.37,13.096
	c1.449,1.159,3.222,1.756,5.009,1.756c1.18,0,2.368-0.261,3.472-0.791c2.778-1.335,4.544-4.144,4.544-7.226V24.585h154.455
	c5.01,0,9.086,4.076,9.086,9.086v298.51l-37.621-37.622c-2.293-2.293-5.741-2.978-8.736-1.738c-2.996,1.241-4.949,4.164-4.949,7.406
	v84.575H128.171z M387.793,400.463c-2.347,0.476-4.36,1.976-5.486,4.091c-1.126,2.115-1.246,4.622-0.33,6.836l30.924,74.659
	l-18.013,7.461l-30.925-74.659c-0.914-2.206-2.763-3.89-5.045-4.593c-0.774-0.238-1.569-0.356-2.36-0.356
	c-1.545,0-3.074,0.446-4.395,1.312l-18.766,12.299v-107.93l76.423,76.424L387.793,400.463z"/>
<path d="M347.401,261.839c4.932-8.543,6.489-23.873-14.097-48.392c-2.445-2.912-5.124-5.834-7.989-8.753
	c2.864-2.919,5.544-5.843,7.989-8.753c20.587-24.519,19.03-39.849,14.097-48.392c-4.932-8.543-17.428-17.555-48.957-11.988
	c-3.744,0.662-7.616,1.521-11.576,2.542c-1.096-3.94-2.287-7.723-3.586-11.295c-10.941-30.088-24.996-36.404-34.86-36.404
	c-9.865,0-23.919,6.316-34.861,36.404c-1.299,3.572-2.491,7.355-3.586,11.295c-3.96-1.021-7.832-1.88-11.575-2.542
	c-31.526-5.569-44.026,3.446-48.957,11.988c-4.932,8.543-6.49,23.873,14.097,48.392c2.445,2.912,5.124,5.834,7.989,8.753
	c-2.864,2.919-5.544,5.843-7.989,8.753c-20.587,24.519-19.028,39.849-14.097,48.392c3.874,6.708,12.41,13.707,31.166,13.707
	c5.129,0,11.022-0.524,17.792-1.719c3.743-0.662,7.616-1.521,11.575-2.542c1.096,3.94,2.287,7.722,3.586,11.295
	c10.941,30.088,24.996,36.404,34.861,36.404c9.864,0,23.919-6.316,34.86-36.404c1.299-3.572,2.491-7.355,3.586-11.295
	c3.96,1.021,7.832,1.88,11.576,2.542c6.771,1.196,12.662,1.719,17.792,1.719C334.988,275.546,343.528,268.547,347.401,261.839z
	 M333.516,155.564c2.512,4.35,0.549,14.535-12.491,30.066c-2.26,2.691-4.746,5.398-7.412,8.105
	c-6.033-5.216-12.632-10.352-19.688-15.315c-0.767-8.57-1.912-16.834-3.408-24.649C313.726,147.779,329.843,149.205,333.516,155.564
	z M263.735,231.219c-5.213,3.009-10.321,5.739-15.311,8.226c-5.095-2.541-10.214-5.28-15.317-8.226
	c-5.213-3.01-10.132-6.07-14.783-9.149c-0.341-5.567-0.532-11.357-0.532-17.377c0-6.019,0.19-11.808,0.531-17.374
	c4.748-3.141,9.68-6.206,14.783-9.152c5.213-3.009,10.321-5.739,15.312-8.226c5.095,2.541,10.214,5.28,15.317,8.226
	c5.213,3.01,10.132,6.07,14.783,9.149c0.341,5.567,0.532,11.357,0.532,17.377c0,6.019-0.19,11.808-0.531,17.374
	C273.77,225.209,268.838,228.273,263.735,231.219z M276.465,242.327c-0.423,2.945-0.89,5.8-1.4,8.557
	c-2.671-0.953-5.371-1.979-8.097-3.074c1.596-0.884,3.192-1.785,4.783-2.705C273.337,244.189,274.908,243.263,276.465,242.327z
	 M229.852,247.797c-2.751,1.101-5.447,2.121-8.081,3.056c-0.508-2.748-0.973-5.592-1.394-8.527c1.556,0.936,3.128,1.862,4.713,2.777
	C226.676,246.019,228.263,246.917,229.852,247.797z M201.808,210.164c-2.339-1.84-4.577-3.672-6.712-5.491
	c2.161-1.836,4.398-3.662,6.712-5.475c-0.033,1.825-0.049,3.657-0.049,5.495C201.759,206.523,201.776,208.348,201.808,210.164z
	 M220.377,167.06c0.423-2.945,0.89-5.8,1.4-8.558c2.671,0.953,5.371,1.979,8.097,3.075c-1.597,0.884-3.192,1.785-4.784,2.705
	C223.505,165.197,221.934,166.123,220.377,167.06z M266.99,161.589c2.751-1.101,5.448-2.121,8.082-3.056
	c0.507,2.748,0.972,5.592,1.394,8.527c-1.556-0.936-3.128-1.862-4.713-2.777C270.168,163.368,268.58,162.47,266.99,161.589z
	 M295.035,199.223c2.339,1.84,4.577,3.672,6.712,5.491c-2.161,1.836-4.398,3.662-6.712,5.475c0.033-1.825,0.049-3.657,0.049-5.496
	C295.083,202.863,295.067,201.039,295.035,199.223z M248.421,106.435c7.342,0,16.635,13.246,23.05,36.342
	c-7.515,2.612-15.245,5.752-23.051,9.373c-7.806-3.62-15.534-6.761-23.051-9.373C231.785,119.68,241.079,106.435,248.421,106.435z
	 M163.327,155.564c1.78-3.083,7.217-5.684,17.341-5.684c4.164,0,9.122,0.44,14.942,1.469c3.461,0.611,7.048,1.411,10.726,2.365
	c-1.502,7.833-2.65,16.116-3.418,24.707c-7.039,4.95-13.622,10.073-19.643,15.277C166.48,176.594,159.655,161.922,163.327,155.564z
	 M163.327,253.823c-2.512-4.35-0.549-14.534,12.491-30.066c2.26-2.691,4.746-5.398,7.412-8.105
	c6.033,5.216,12.632,10.352,19.688,15.315c0.767,8.57,1.912,16.834,3.408,24.649C183.116,261.607,166.998,260.182,163.327,253.823z
	 M248.421,302.951c-7.343,0-16.636-13.246-23.051-36.342c7.516-2.612,15.245-5.753,23.051-9.373
	c7.806,3.62,15.534,6.761,23.051,9.373C265.058,289.706,255.765,302.951,248.421,302.951z M333.516,253.823
	c-2.512,4.351-12.31,7.744-32.284,4.216c-3.461-0.611-7.048-1.411-10.726-2.367c1.502-7.832,2.65-16.115,3.418-24.707
	c7.039-4.95,13.622-10.073,19.643-15.277C330.363,232.792,337.188,247.464,333.516,253.823z"/>
<path d="M248.421,192.401c-6.778,0-12.292,5.514-12.292,12.292s5.514,12.292,12.292,12.292c6.778,0,12.292-5.514,12.292-12.292
	S255.199,192.401,248.421,192.401z"/>
<g>
</g>
<g>
</g>
<g>
</g>
<g>
</g>
<g>
</g>
<g>
</g>
<g>
</g>
<g>
</g>
<g>
</g>
<g>
</g>
<g>
</g>
<g>
</g>
<g>
</g>
<g>
</g>
<g>
</g>
</svg>
