<?xml version="1.0" encoding="iso-8859-1"?>
<!-- Generator: Adobe Illustrator 19.0.0, SVG Export Plug-In . SVG Version: 6.00 Build 0)  -->
<svg version="1.1" id="Layer_1" xmlns="http://www.w3.org/2000/svg" xmlns:xlink="http://www.w3.org/1999/xlink" x="0px" y="0px"
	 viewBox="0 0 512 512" style="enable-background:new 0 0 512 512;" xml:space="preserve">
<path style="fill:#D5DCED;" d="M230.347,33.67h-17.102c-4.722,0-8.551,3.829-8.551,8.551v76.96h34.205v-76.96
	C238.898,37.499,235.069,33.67,230.347,33.67z"/>
<path style="fill:#707487;" d="M238.898,67.875h-34.205V42.221c0-4.722,3.829-8.551,8.551-8.551h17.102
	c4.722,0,8.551,3.829,8.551,8.551V67.875z"/>
<path style="fill:#959CB5;" d="M290.205,177.359v45.204c15.933,18.056,25.653,41.707,25.653,67.642
	c0,25.937-9.722,49.6-25.653,67.673v45.151c36.05-24.658,59.858-65.948,59.858-112.824
	C350.063,243.315,326.278,201.987,290.205,177.359z"/>
<path style="fill:#707487;" d="M204.693,238.898v35.629c0,3.936,3.829,7.126,8.551,7.126h17.102c4.722,0,8.551-3.191,8.551-7.126
	v-35.629H204.693z"/>
<path style="fill:#AFB9D2;" d="M290.205,238.898h-51.307v-68.409h51.307c4.722,0,8.551,3.829,8.551,8.551v51.307
	C298.756,235.069,294.927,238.898,290.205,238.898z"/>
<path style="fill:#959CB5;" d="M170.489,358.614h111.165c4.722,0,8.551-3.829,8.551-8.551V332.96c0-4.722-3.829-8.551-8.551-8.551
	H170.489c-4.722,0-8.551,3.829-8.551,8.551v17.102C161.937,354.785,165.766,358.614,170.489,358.614z"/>
<path style="fill:#C7CFE2;" d="M204.693,238.898h34.205c4.722,0,8.551-3.829,8.551-8.551V127.733c0-4.722-3.829-8.551-8.551-8.551
	h-34.205c-4.722,0-8.551,3.829-8.551,8.551v102.614C196.142,235.069,199.971,238.898,204.693,238.898z"/>
<circle style="fill:#707487;" cx="298.756" cy="187.591" r="25.653"/>
<path style="fill:#AFB9D2;" d="M358.614,444.125H153.386c-4.722,0-8.551,3.829-8.551,8.551v17.102h222.33v-17.102
	C367.165,447.953,363.336,444.125,358.614,444.125z"/>
<g>
	<path style="fill:#C7CFE2;" d="M238.898,401.37h-34.205c-4.722,0-8.551,3.829-8.551,8.551v34.205h51.307v-34.205
		C247.449,405.197,243.62,401.37,238.898,401.37z"/>
	<path style="fill:#C7CFE2;" d="M320.051,372.591c-2.489-8.296-10.125-13.977-18.786-13.977c-10.831,0-19.612,8.781-19.612,19.612
		v65.899h59.858L320.051,372.591z"/>
</g>
<g>
	<path style="fill:#707487;" d="M33.67,478.33h42.756V136.284H33.67c-14.168,0-25.653,11.485-25.653,25.653v290.739
		C8.017,466.845,19.502,478.33,33.67,478.33z"/>
	<path style="fill:#707487;" d="M478.33,136.284h-42.756V478.33h42.756c14.168,0,25.653-11.485,25.653-25.653V161.937
		C503.983,147.769,492.498,136.284,478.33,136.284z"/>
</g>
<path d="M478.33,128.267H255.466v-0.534c0-6.228-3.458-11.659-8.551-14.489V42.221c0-9.136-7.432-16.568-16.568-16.568h-17.102
	c-9.136,0-16.568,7.432-16.568,16.568v71.023c-5.093,2.829-8.551,8.26-8.551,14.489v0.534H33.67c-18.566,0-33.67,15.105-33.67,33.67
	v290.739c0,18.566,15.105,33.67,33.67,33.67h444.66c18.566,0,33.67-15.105,33.67-33.67V161.937
	C512,143.372,496.895,128.267,478.33,128.267z M427.557,144.301v326.013h-52.376v-17.637c0-9.136-7.432-16.568-16.568-16.568
	h-11.138l-17.91-59.703c18.665-25.09,28.514-54.813,28.514-86.201c0-31.432-10.399-62.269-29.35-87.306
	c2.357-4.596,3.696-9.796,3.696-15.308c0-18.566-15.105-33.67-33.67-33.67c-8.59,0-16.434,3.238-22.389,8.551h-20.901v-18.171
	H427.557z M239.432,436.109h-35.273v-26.188c0-0.295,0.239-0.534,0.534-0.534h34.205c0.295,0,0.534,0.239,0.534,0.534V436.109z
	 M358.614,452.142c0.295,0,0.534,0.239,0.534,0.534v17.637H152.852v-17.637c0-0.295,0.239-0.534,0.534-0.534H358.614z
	 M212.71,75.891h18.171v35.273H212.71V75.891z M238.898,127.198c0.295,0,0.534,0.239,0.534,0.534v102.614
	c0,0.295-0.239,0.534-0.534,0.534h-34.205c-0.295,0-0.534-0.239-0.534-0.534V127.733c0-0.295,0.239-0.534,0.534-0.534H238.898z
	 M212.71,246.914h18.171v26.188c0,0.295-0.239,0.534-0.534,0.534h-17.102c-0.295,0-0.534-0.239-0.534-0.534V246.914z
	 M255.466,230.347v-51.841h10.876c-0.812,2.892-1.256,5.938-1.256,9.086c0,15.804,10.947,29.091,25.653,32.699v10.592h-35.3
	C255.444,230.702,255.466,230.527,255.466,230.347z M298.756,205.228c-9.725,0-17.637-7.912-17.637-17.637
	c0-9.725,7.912-17.637,17.637-17.637c9.725,0,17.637,7.912,17.637,17.637C316.392,197.316,308.481,205.228,298.756,205.228z
	 M306.772,220.289c4.05-0.993,7.813-2.72,11.142-5.032c15.798,21.936,24.131,47.696,24.131,74.948
	c0,24.946-7.013,48.703-20.351,69.399c-4.153-4.577-9.765-7.674-16.047-8.661c11.826-17.949,18.227-39.005,18.227-60.738
	c0-20.996-5.916-41.338-17.102-59.007V220.289z M282.188,350.063c0,0.295-0.239,0.534-0.534,0.534H170.489
	c-0.295,0-0.534-0.239-0.534-0.534V332.96c0-0.295,0.239-0.534,0.534-0.534h111.165c0.295,0,0.534,0.239,0.534,0.534V350.063z
	 M289.67,378.226c0-6.394,5.201-11.595,11.595-11.595c5.161,0,9.623,3.321,11.107,8.264l18.365,61.214H289.67V378.226z
	 M213.244,41.687h17.102c0.295,0,0.534,0.239,0.534,0.534v17.637H212.71V42.221C212.71,41.926,212.949,41.687,213.244,41.687z
	 M196.676,244.835v28.267c0,9.136,7.432,16.568,16.568,16.568h17.102c9.136,0,16.568-7.432,16.568-16.568v-26.215
	c0.177,0.012,0.354,0.027,0.534,0.027h49.893c6.894,13.333,10.5,28.113,10.5,43.29c0,14.565-3.355,28.781-9.677,41.638
	c-0.579-8.614-7.753-15.45-16.511-15.45H170.489c-9.136,0-16.568,7.432-16.568,16.568v17.102c0,9.136,7.432,16.568,16.568,16.568
	h105.708c-1.639,3.528-2.56,7.456-2.56,11.595v57.883h-18.171v-26.188c0-9.136-7.432-16.568-16.568-16.568h-34.205
	c-9.136,0-16.568,7.432-16.568,16.568v26.188h-34.739c-9.136,0-16.568,7.432-16.568,16.568v17.637H84.443V144.301h103.683v86.046
	C188.125,236.575,191.583,242.006,196.676,244.835z M16.033,452.676V161.937c0-9.725,7.912-17.637,17.637-17.637h34.739v326.013
	H33.67C23.945,470.313,16.033,462.401,16.033,452.676z M495.967,452.676c0,9.725-7.912,17.637-17.637,17.637h-34.739V144.301h34.739
	c9.725,0,17.637,7.912,17.637,17.637V452.676z"/>
<path d="M469.779,290.739c-4.427,0-8.017,3.589-8.017,8.017v17.102c0,4.427,3.589,8.017,8.017,8.017s8.017-3.589,8.017-8.017
	v-17.102C477.795,294.328,474.206,290.739,469.779,290.739z"/>
<path d="M42.221,282.188c-4.427,0-8.017,3.589-8.017,8.017v34.205c0,4.427,3.589,8.017,8.017,8.017s8.017-3.589,8.017-8.017v-34.205
	C50.238,285.777,46.649,282.188,42.221,282.188z"/>
<path d="M42.307,264.017c4.427,0,8.017-3.589,8.017-8.017c0-4.427-3.589-8.017-8.017-8.017h-0.086c-4.427,0-7.974,3.589-7.974,8.017
	C34.247,260.427,37.879,264.017,42.307,264.017z"/>
<g>
</g>
<g>
</g>
<g>
</g>
<g>
</g>
<g>
</g>
<g>
</g>
<g>
</g>
<g>
</g>
<g>
</g>
<g>
</g>
<g>
</g>
<g>
</g>
<g>
</g>
<g>
</g>
<g>
</g>
</svg>
