<?xml version="1.0" encoding="iso-8859-1"?>
<!-- Generator: Adobe Illustrator 19.0.0, SVG Export Plug-In . SVG Version: 6.00 Build 0)  -->
<svg version="1.1" id="Layer_1" xmlns="http://www.w3.org/2000/svg" xmlns:xlink="http://www.w3.org/1999/xlink" x="0px" y="0px"
	 viewBox="0 0 512 512" style="enable-background:new 0 0 512 512;" xml:space="preserve">
<path style="fill:#464655;" d="M358.614,119.182l-34.205-17.102V59.324l20.024,10.012c8.691,4.345,14.181,13.229,14.181,22.945
	V119.182z"/>
<path style="fill:#5B5D6E;" d="M315.858,110.63h-17.102c-4.722,0-8.551-3.829-8.551-8.551V59.324c0-4.722,3.829-8.551,8.551-8.551
	h17.102c4.722,0,8.551,3.829,8.551,8.551v42.756C324.409,106.802,320.58,110.63,315.858,110.63z"/>
<path style="fill:#464655;" d="M392.818,119.182l34.205-17.102V59.324l-20.024,10.012c-8.691,4.345-14.181,13.229-14.181,22.945
	V119.182z"/>
<g>
	<path style="fill:#5B5D6E;" d="M435.574,110.63h17.102c4.722,0,8.551-3.829,8.551-8.551V59.324c0-4.722-3.829-8.551-8.551-8.551
		h-17.102c-4.722,0-8.551,3.829-8.551,8.551v42.756C427.023,106.802,430.852,110.63,435.574,110.63z"/>
	<path style="fill:#5B5D6E;" d="M204.693,8.017H67.875c-9.446,0-17.102,7.656-17.102,17.102v34.205h171.023V25.119
		C221.795,15.674,214.139,8.017,204.693,8.017z"/>
	<path style="fill:#5B5D6E;" d="M67.875,332.96h136.818c9.446,0,17.102-7.656,17.102-17.102v-34.205H50.772v34.205
		C50.772,325.304,58.43,332.96,67.875,332.96z"/>
</g>
<path d="M127.733,41.687h17.102c4.427,0,8.017-3.589,8.017-8.017s-3.589-8.017-8.017-8.017h-17.102
	c-4.427,0-8.017,3.589-8.017,8.017S123.305,41.687,127.733,41.687z"/>
<path d="M102.165,41.687c4.427,0,8.017-3.589,8.017-8.017s-3.589-8.017-8.017-8.017h-0.086c-4.427,0-7.974,3.589-7.974,8.017
	S97.737,41.687,102.165,41.687z"/>
<path d="M152.852,307.307c0-4.427-3.589-8.017-8.017-8.017h-17.102c-4.427,0-8.017,3.589-8.017,8.017
	c0,4.427,3.589,8.017,8.017,8.017h17.102C149.262,315.324,152.852,311.734,152.852,307.307z"/>
<path d="M452.676,42.756h-17.102c-7.236,0-13.388,4.67-15.639,11.15l-16.521,8.26c-11.481,5.74-18.613,17.28-18.613,30.115v368.947
	c0,19.155-15.584,34.739-34.739,34.739c-14.571,0-27.067-9.021-32.218-21.769c4.549,2.296,9.681,3.598,15.115,3.598
	c18.566,0,33.67-15.105,33.67-33.67V92.281c0-12.835-7.132-24.375-18.613-30.115l-16.52-8.26c-2.252-6.48-8.404-11.15-15.64-11.15
	h-17.102c-9.136,0-16.568,7.432-16.568,16.568v42.756c0,9.136,7.432,16.568,16.568,16.568h17.102c4.958,0,9.401-2.2,12.44-5.661
	l22.299,11.15v319.989c0,9.725-7.912,17.637-17.637,17.637c-9.725,0-17.637-7.912-17.637-17.637V204.693
	c0-18.566-15.105-33.67-33.67-33.67c-18.566,0-33.67,15.105-33.67,33.67v239.432c0,28.585-23.256,51.841-51.841,51.841
	s-51.841-23.256-51.841-51.841V340.977h60.392c13.851,0,25.119-11.268,25.119-25.119V25.119C229.812,11.268,218.544,0,204.693,0
	H67.875C54.024,0,42.756,11.268,42.756,25.119v290.739c0,13.851,11.268,25.119,25.119,25.119h60.392v103.148
	c0,37.426,30.448,67.875,67.875,67.875s67.875-30.448,67.875-67.875V204.693c0-9.725,7.912-17.637,17.637-17.637
	c9.725,0,17.637,7.912,17.637,17.637v256.534c0,27.995,22.777,50.772,50.772,50.772c27.995,0,50.772-22.777,50.772-50.772V124.136
	l22.299-11.15c3.039,3.461,7.482,5.661,12.44,5.661h17.102c9.136,0,16.568-7.432,16.568-16.568V59.324
	C469.244,50.188,461.812,42.756,452.676,42.756z M316.392,102.079c0,0.295-0.239,0.534-0.534,0.534h-17.102
	c-0.295,0-0.534-0.239-0.534-0.534V59.324c0-0.295,0.239-0.534,0.534-0.534h17.102c0.295,0,0.534,0.239,0.534,0.534V102.079z
	 M332.426,97.125v-24.83l8.422,4.211c6.014,3.007,9.749,9.051,9.749,15.775v13.93L332.426,97.125z M58.789,67.34h154.99v206.296
	H58.789V67.34z M67.875,16.033h136.818c5.01,0,9.086,4.076,9.086,9.086v26.188H58.789V25.119
	C58.789,20.109,62.865,16.033,67.875,16.033z M58.789,315.858V289.67h154.99v26.188c0,5.01-4.076,9.086-9.086,9.086H67.875
	C62.865,324.944,58.789,320.868,58.789,315.858z M400.835,92.281c0-6.723,3.736-12.768,9.749-15.775l8.422-4.211v24.83
	l-18.171,9.086V92.281z M453.211,102.079c0,0.295-0.239,0.534-0.534,0.534h-17.102c-0.295,0-0.534-0.239-0.534-0.534V59.324
	c0-0.295,0.239-0.534,0.534-0.534h17.102c0.295,0,0.534,0.239,0.534,0.534V102.079z"/>
<path d="M82.442,152.44c0.841,0.28,1.695,0.414,2.536,0.414c3.356,0,6.484-2.125,7.604-5.483l3.874-11.621h28.349l3.874,11.621
	c1.4,4.201,5.941,6.47,10.141,5.071c4.201-1.4,6.47-5.94,5.071-10.141L128.736,96.84c-2.26-6.776-8.576-11.328-15.718-11.328h-4.776
	c-7.142,0-13.458,4.552-15.718,11.329l-15.154,45.46C75.972,146.5,78.242,151.04,82.442,152.44z M108.243,101.545h4.776
	c0.231,0,0.435,0.148,0.508,0.366l5.935,17.806H101.8l5.936-17.806C107.809,101.691,108.013,101.545,108.243,101.545z"/>
<path d="M170.489,118.647h17.102c4.427,0,8.017-3.589,8.017-8.017c0-4.427-3.589-8.017-8.017-8.017h-17.102
	c-4.427,0-8.017,3.589-8.017,8.017C162.472,115.058,166.061,118.647,170.489,118.647z"/>
<path d="M187.591,136.818h-17.102c-4.427,0-8.017,3.589-8.017,8.017c0,4.427,3.589,8.017,8.017,8.017h17.102
	c4.427,0,8.017-3.589,8.017-8.017C195.608,140.408,192.018,136.818,187.591,136.818z"/>
<path d="M187.591,171.023H84.977c-4.427,0-8.017,3.589-8.017,8.017s3.589,8.017,8.017,8.017h102.614
	c4.427,0,8.017-3.589,8.017-8.017S192.018,171.023,187.591,171.023z"/>
<path d="M187.591,205.228H84.977c-4.427,0-8.017,3.589-8.017,8.017s3.589,8.017,8.017,8.017h102.614
	c4.427,0,8.017-3.589,8.017-8.017S192.018,205.228,187.591,205.228z"/>
<path d="M187.591,239.432H84.977c-4.427,0-8.017,3.589-8.017,8.017s3.589,8.017,8.017,8.017h102.614
	c4.427,0,8.017-3.589,8.017-8.017S192.018,239.432,187.591,239.432z"/>
<g>
</g>
<g>
</g>
<g>
</g>
<g>
</g>
<g>
</g>
<g>
</g>
<g>
</g>
<g>
</g>
<g>
</g>
<g>
</g>
<g>
</g>
<g>
</g>
<g>
</g>
<g>
</g>
<g>
</g>
</svg>
