<?xml version="1.0" encoding="iso-8859-1"?>
<!-- Generator: Adobe Illustrator 19.0.0, SVG Export Plug-In . SVG Version: 6.00 Build 0)  -->
<svg version="1.1" id="Layer_1" xmlns="http://www.w3.org/2000/svg" xmlns:xlink="http://www.w3.org/1999/xlink" x="0px" y="0px"
	 viewBox="0 0 512 512" style="enable-background:new 0 0 512 512;" xml:space="preserve">
<path style="fill:#E4EAF8;" d="M375.719,8.017H127.733c-4.722,0-8.551,3.829-8.551,8.551v419.006h316.392
	c4.722,0,8.551-3.829,8.551-8.551V76.424L375.719,8.017z"/>
<path style="fill:#D5DCED;" d="M247.449,435.574H119.182V221.795h85.511c23.613,0,42.756,19.143,42.756,42.756V435.574z"/>
<path style="fill:#464655;" d="M204.693,503.983H84.977c-9.446,0-17.102-7.656-17.102-17.102v-222.33
	c0-9.446,7.656-17.102,17.102-17.102h119.716c9.446,0,17.102,7.656,17.102,17.102v222.33
	C221.795,496.327,214.139,503.983,204.693,503.983z"/>
<rect x="67.875" y="281.653" style="fill:#00C3FF;" width="153.921" height="171.023"/>
<path style="fill:#D5DCED;" d="M375.716,8.017v59.858c0,4.722,3.829,8.551,8.551,8.551h59.858L375.716,8.017z"/>
<path d="M153.386,470.313h-17.102c-4.427,0-8.017,3.589-8.017,8.017s3.589,8.017,8.017,8.017h17.102
	c4.427,0,8.017-3.589,8.017-8.017S157.814,470.313,153.386,470.313z"/>
<path d="M449.794,70.754L381.388,2.348C379.885,0.844,377.845,0,375.719,0H127.733c-9.136,0-16.568,7.432-16.568,16.568v222.864
	H84.977c-13.851,0-25.119,11.268-25.119,25.119v222.33c0,13.851,11.268,25.119,25.119,25.119h119.716
	c13.851,0,25.119-11.268,25.119-25.119v-43.29h205.762c9.136,0,16.568-7.432,16.568-16.568V76.424
	C452.142,74.297,451.298,72.258,449.794,70.754z M383.733,27.368l41.041,41.041h-40.507c-0.295,0-0.534-0.239-0.534-0.534V27.368z
	 M84.977,255.466h119.716c5.01,0,9.086,4.076,9.086,9.086v9.086H75.891v-9.086C75.891,259.541,79.967,255.466,84.977,255.466z
	 M75.891,289.67h137.887v145.842c0,0.021-0.003,0.041-0.003,0.062s0.003,0.041,0.003,0.062v9.024H75.891V289.67z M204.693,495.967
	H84.977c-5.01,0-9.086-4.076-9.086-9.086v-26.188h137.887v26.188C213.779,491.891,209.703,495.967,204.693,495.967z
	 M435.574,427.557H229.812V264.551c0-13.851-11.268-25.119-25.119-25.119h-77.495V16.568c0-0.295,0.239-0.534,0.534-0.534h239.967
	v51.841c0,9.136,7.432,16.568,16.568,16.568h51.841v342.58C436.109,427.318,435.869,427.557,435.574,427.557z"/>
<path d="M170.489,118.647h68.409c4.427,0,8.017-3.589,8.017-8.017c0-4.427-3.589-8.017-8.017-8.017h-68.409
	c-4.427,0-8.017,3.589-8.017,8.017C162.472,115.058,166.061,118.647,170.489,118.647z"/>
<path d="M170.489,67.34h51.307c4.427,0,8.017-3.589,8.017-8.017s-3.589-8.017-8.017-8.017h-51.307c-4.427,0-8.017,3.589-8.017,8.017
	S166.061,67.34,170.489,67.34z"/>
<path d="M256,67.34h25.653c4.427,0,8.017-3.589,8.017-8.017s-3.589-8.017-8.017-8.017H256c-4.427,0-8.017,3.589-8.017,8.017
	S251.573,67.34,256,67.34z"/>
<path d="M265.086,110.63c0,4.427,3.589,8.017,8.017,8.017h68.409c4.427,0,8.017-3.589,8.017-8.017c0-4.427-3.589-8.017-8.017-8.017
	h-68.409C268.675,102.614,265.086,106.203,265.086,110.63z"/>
<path d="M392.818,102.614h-17.102c-4.427,0-8.017,3.589-8.017,8.017c0,4.427,3.589,8.017,8.017,8.017h17.102
	c4.427,0,8.017-3.589,8.017-8.017C400.835,106.203,397.246,102.614,392.818,102.614z"/>
<path d="M392.818,136.818h-68.409c-4.427,0-8.017,3.589-8.017,8.017c0,4.427,3.589,8.017,8.017,8.017h68.409
	c4.427,0,8.017-3.589,8.017-8.017C400.835,140.408,397.246,136.818,392.818,136.818z"/>
<path d="M290.205,136.818h-68.409c-4.427,0-8.017,3.589-8.017,8.017c0,4.427,3.589,8.017,8.017,8.017h68.409
	c4.427,0,8.017-3.589,8.017-8.017C298.221,140.408,294.632,136.818,290.205,136.818z"/>
<path d="M170.489,152.852h17.102c4.427,0,8.017-3.589,8.017-8.017c0-4.427-3.589-8.017-8.017-8.017h-17.102
	c-4.427,0-8.017,3.589-8.017,8.017C162.472,149.262,166.061,152.852,170.489,152.852z"/>
<path d="M246.914,179.04c0-4.427-3.589-8.017-8.017-8.017h-68.409c-4.427,0-8.017,3.589-8.017,8.017s3.589,8.017,8.017,8.017h68.409
	C243.325,187.056,246.914,183.467,246.914,179.04z"/>
<path d="M265.086,179.04c0,4.427,3.589,8.017,8.017,8.017h68.409c4.427,0,8.017-3.589,8.017-8.017s-3.589-8.017-8.017-8.017h-68.409
	C268.675,171.023,265.086,174.612,265.086,179.04z"/>
<path d="M392.818,171.023h-17.102c-4.427,0-8.017,3.589-8.017,8.017s3.589,8.017,8.017,8.017h17.102
	c4.427,0,8.017-3.589,8.017-8.017S397.246,171.023,392.818,171.023z"/>
<path d="M392.818,239.432h-34.205c-4.427,0-8.017,3.589-8.017,8.017s3.589,8.017,8.017,8.017h34.205
	c4.427,0,8.017-3.589,8.017-8.017S397.246,239.432,392.818,239.432z"/>
<path d="M392.818,205.228h-68.409c-4.427,0-8.017,3.589-8.017,8.017s3.589,8.017,8.017,8.017h68.409
	c4.427,0,8.017-3.589,8.017-8.017S397.246,205.228,392.818,205.228z"/>
<path d="M392.818,273.637H256c-4.427,0-8.017,3.589-8.017,8.017c0,4.427,3.589,8.017,8.017,8.017h136.818
	c4.427,0,8.017-3.589,8.017-8.017C400.835,277.226,397.246,273.637,392.818,273.637z"/>
<path d="M187.591,307.841h-85.511c-4.427,0-8.017,3.589-8.017,8.017c0,4.427,3.589,8.017,8.017,8.017h85.511
	c4.427,0,8.017-3.589,8.017-8.017C195.608,311.431,192.018,307.841,187.591,307.841z"/>
<path d="M187.591,376.251h-85.511c-4.427,0-8.017,3.589-8.017,8.017c0,4.427,3.589,8.017,8.017,8.017h85.511
	c4.427,0,8.017-3.589,8.017-8.017C195.608,379.84,192.018,376.251,187.591,376.251z"/>
<path d="M187.591,342.046h-34.205c-4.427,0-8.017,3.589-8.017,8.017c0,4.427,3.589,8.017,8.017,8.017h34.205
	c4.427,0,8.017-3.589,8.017-8.017C195.608,345.635,192.018,342.046,187.591,342.046z"/>
<path d="M102.079,358.079h17.102c4.427,0,8.017-3.589,8.017-8.017c0-4.427-3.589-8.017-8.017-8.017h-17.102
	c-4.427,0-8.017,3.589-8.017,8.017C94.063,354.49,97.652,358.079,102.079,358.079z"/>
<path d="M136.284,410.455h-34.205c-4.427,0-8.017,3.589-8.017,8.017c0,4.427,3.589,8.017,8.017,8.017h34.205
	c4.427,0,8.017-3.589,8.017-8.017C144.301,414.044,140.711,410.455,136.284,410.455z"/>
<path d="M187.591,410.455h-17.102c-4.427,0-8.017,3.589-8.017,8.017c0,4.427,3.589,8.017,8.017,8.017h17.102
	c4.427,0,8.017-3.589,8.017-8.017C195.608,414.044,192.018,410.455,187.591,410.455z"/>
<path d="M298.221,213.244c0-4.427-3.589-8.017-8.017-8.017h-68.409c-4.427,0-8.017,3.589-8.017,8.017s3.589,8.017,8.017,8.017
	h68.409C294.632,221.261,298.221,217.672,298.221,213.244z"/>
<path d="M247.983,247.449c0,4.427,3.589,8.017,8.017,8.017h68.409c4.427,0,8.017-3.589,8.017-8.017s-3.589-8.017-8.017-8.017H256
	C251.573,239.432,247.983,243.021,247.983,247.449z"/>
<path d="M392.818,307.841h-34.205c-4.427,0-8.017,3.589-8.017,8.017c0,4.427,3.589,8.017,8.017,8.017h34.205
	c4.427,0,8.017-3.589,8.017-8.017C400.835,311.431,397.246,307.841,392.818,307.841z"/>
<path d="M392.818,342.046H256c-4.427,0-8.017,3.589-8.017,8.017c0,4.427,3.589,8.017,8.017,8.017h136.818
	c4.427,0,8.017-3.589,8.017-8.017C400.835,345.635,397.246,342.046,392.818,342.046z"/>
<path d="M256,323.875h68.409c4.427,0,8.017-3.589,8.017-8.017c0-4.427-3.589-8.017-8.017-8.017H256
	c-4.427,0-8.017,3.589-8.017,8.017C247.983,320.285,251.573,323.875,256,323.875z"/>
<path d="M187.591,205.228h-17.102c-4.427,0-8.017,3.589-8.017,8.017s3.589,8.017,8.017,8.017h17.102
	c4.427,0,8.017-3.589,8.017-8.017S192.018,205.228,187.591,205.228z"/>
<g>
</g>
<g>
</g>
<g>
</g>
<g>
</g>
<g>
</g>
<g>
</g>
<g>
</g>
<g>
</g>
<g>
</g>
<g>
</g>
<g>
</g>
<g>
</g>
<g>
</g>
<g>
</g>
<g>
</g>
</svg>
