<?xml version="1.0" encoding="iso-8859-1"?>
<!-- Generator: Adobe Illustrator 19.0.0, SVG Export Plug-In . SVG Version: 6.00 Build 0)  -->
<svg version="1.1" id="Layer_1" xmlns="http://www.w3.org/2000/svg" xmlns:xlink="http://www.w3.org/1999/xlink" x="0px" y="0px"
	 viewBox="0 0 512 512" style="enable-background:new 0 0 512 512;" xml:space="preserve">
<path style="fill:#E4EAF8;" d="M486.881,324.409H161.937c-9.446,0-17.102-7.656-17.102-17.102V50.772
	c0-9.446,7.656-17.102,17.102-17.102h324.944c9.446,0,17.102,7.656,17.102,17.102v256.534
	C503.983,316.753,496.326,324.409,486.881,324.409z"/>
<rect x="409.921" y="67.875" style="fill:#7DF5A5;" width="42.756" height="222.33"/>
<rect x="332.96" y="136.284" style="fill:#FFDC64;" width="42.756" height="153.921"/>
<rect x="256" y="204.693" style="fill:#FF5050;" width="42.756" height="85.511"/>
<path style="fill:#D29B6E;" d="M210.119,363.267L182.2,353.96c-6.984-2.328-11.694-8.863-11.694-16.225v-21.877H119.2v21.878
	c0,7.361-4.71,13.897-11.694,16.225l-27.918,9.307c-6.984,2.328-11.694,8.863-11.694,16.225v98.837h153.921v-98.838
	C221.813,372.13,217.103,365.595,210.119,363.267z"/>
<path style="fill:#5B5D6E;" d="M210.119,363.267L182.2,353.96c-1.677-0.559-3.205-1.386-4.586-2.384
	c-7.844,9.446-19.527,15.589-32.762,15.589c-13.235,0-24.918-6.143-32.762-15.589c-1.381,0.997-2.908,1.826-4.586,2.384
	l-27.918,9.307c-6.984,2.328-11.694,8.863-11.694,16.225v98.838h153.921v-98.838C221.813,372.13,217.103,365.595,210.119,363.267z"
	/>
<ellipse style="fill:#694B4B;" cx="144.856" cy="243.173" rx="68.409" ry="64.134"/>
<path style="fill:#5A4146;" d="M161.382,181.003c-5.303-1.236-10.819-1.964-16.529-1.964c-37.781,0-68.409,28.714-68.409,64.134
	c0,30.414,22.607,55.826,52.91,62.418c0-11.005,0-27.379,0-51.729C129.354,216.819,147.19,193.639,161.382,181.003z"/>
<path style="fill:#F0C087;" d="M187.973,311.4l-27.823,13.912c-9.63,4.814-20.964,4.814-30.594,0L101.733,311.4
	c-5.115-2.557-8.612-7.501-9.322-13.175l-5.194-41.55c-0.612-4.898,3.011-9.269,7.935-9.591
	c15.938-1.043,49.178-5.044,69.669-20.388c3.456-2.588,8.28-2.132,11.233,1.018l23.773,25.354c1.739,1.855,2.562,4.387,2.247,6.909
	l-4.781,38.247C196.586,303.898,193.087,308.843,187.973,311.4z"/>
<path style="fill:#E6AF78;" d="M199.829,253.068l-23.774-25.355c-2.974-3.171-7.815-3.569-11.298-0.968
	c-10.381,7.751-24.006,12.583-37.006,15.618v0.001c-12.713,2.967-24.825,4.214-32.68,4.726c-4.954,0.323-8.469,4.661-7.853,9.586
	l5.193,41.548c0.71,5.675,4.207,10.619,9.323,13.177l27.823,13.912c4.155,2.077,8.639,3.078,13.155,3.364l-10.446-20.892
	c-2.968-5.936-4.514-12.481-4.514-19.118v-13.239c0-4.003,2.779-7.391,6.673-8.321c10.865-2.595,22.152-6.299,32.494-11.632
	l14.197,15.142c4.765,5.083,11.825,9.027,18.599,8.257l2.362-18.895C202.392,257.455,201.568,254.923,199.829,253.068z"/>
<path style="fill:#5B5D6E;" d="M196.16,170.489H93.546l-6.545,26.18c-1.118,4.474,1.512,9.029,5.946,10.296l47.207,13.487
	c3.071,0.878,6.326,0.878,9.397,0l47.207-13.487c4.435-1.267,7.065-5.822,5.946-10.296L196.16,170.489z"/>
<path style="fill:#464655;" d="M93.546,170.489L87,196.669c-1.118,4.474,1.512,9.029,5.946,10.296l47.208,13.488
	c1.536,0.438,3.117,0.658,4.699,0.658v-50.623H93.546z"/>
<path style="fill:#707487;" d="M138.103,137.222l-76.489,21.652c-3.006,0.851-3.006,5.276,0,6.127l76.489,21.652
	c4.419,1.251,9.08,1.251,13.5,0l76.489-21.652c3.006-0.851,3.006-5.276,0-6.127l-76.489-21.652
	C147.183,135.972,142.522,135.972,138.103,137.222z"/>
<path style="fill:#D5DCED;" d="M187.591,478.33h-85.511c-4.722,0-8.551-3.829-8.551-8.551v-51.307c0-4.722,3.829-8.551,8.551-8.551
	h85.511c4.722,0,8.551,3.829,8.551,8.551v51.307C196.142,474.501,192.313,478.33,187.591,478.33z"/>
<path d="M486.881,25.653H161.937c-13.851,0-25.119,11.268-25.119,25.119v78.507c-0.311,0.078-0.624,0.142-0.934,0.23l-76.489,21.65
	c-4.838,1.369-8.088,5.7-8.088,10.778c0,5.077,3.251,9.408,8.087,10.778l25.379,7.184l-4.595,13.787
	c-1.134,3.403-1.098,7.094,0.021,10.47c-7.739,11.356-11.808,24.387-11.808,38.007c0,14.823,4.845,28.938,14.019,40.973
	l2.011,16.084c1.044,8.352,6.162,15.588,13.691,19.351l13.035,6.517v12.648c0,3.917-2.496,7.381-6.212,8.618l-27.92,9.307
	c-10.273,3.425-17.175,13.001-17.175,23.83v90.823H8.017c-4.427,0-8.017,3.589-8.017,8.017s3.589,8.017,8.017,8.017h273.637
	c4.427,0,8.017-3.589,8.017-8.017s-3.589-8.017-8.017-8.017h-51.859v-90.822c0-10.829-6.903-20.406-17.176-23.83l-27.918-9.307
	c-3.715-1.239-6.212-4.702-6.212-8.618v-5.31h308.394c13.851,0,25.119-11.268,25.119-25.119V50.772
	C512,36.922,500.732,25.653,486.881,25.653z M140.251,144.936C140.252,144.936,140.252,144.936,140.251,144.936
	c2.989-0.845,6.146-0.845,9.133,0l60.062,17.002l-60.061,17.002c-2.988,0.846-6.146,0.846-9.133,0l-60.062-17.002L140.251,144.936z
	 M144.817,359.148c-7.962,0-15.622-2.746-21.748-7.662c2.613-3.992,4.111-8.732,4.111-13.75v-4.676
	c5.572,2.56,11.602,3.857,17.637,3.857s12.065-1.297,17.637-3.857v4.676c0,5.017,1.496,9.757,4.11,13.749
	C160.442,356.403,152.796,359.148,144.817,359.148z M84.496,239.589c0.434-8.676,3.059-17.005,7.706-24.49l50.413,14.404
	c0.032,0.01,0.066,0.012,0.098,0.021c-25.228,9.725-56.273,9.91-56.686,9.91C85.509,239.434,84.997,239.492,84.496,239.589z
	 M197.433,215.1c5.104,8.223,7.776,17.463,7.776,27.062c0,1.583-0.081,3.156-0.228,4.719l-25.099-26.767L197.433,215.1z
	 M194.246,198.755c0.013,0.038,0.024,0.125,0.012,0.23c-0.154,0.151-0.295,0.311-0.434,0.471l-40.99,11.711v-16.575
	c0.306-0.077,0.614-0.14,0.917-0.226l35.666-10.096L194.246,198.755z M135.885,194.367c0.304,0.086,0.61,0.149,0.915,0.226v16.575
	l-40.967-11.704c-0.148-0.171-0.298-0.339-0.462-0.498c-0.006-0.095,0.005-0.173,0.017-0.208l4.828-14.485L135.885,194.367z
	 M100.33,297.23l-5.261-42.096c16.635-1.028,52.262-5.215,74.813-22.248l24.236,25.848l-4.811,38.496
	c-0.378,3.022-2.229,5.637-4.953,7l0,0l-27.823,13.912c-7.335,3.666-16.09,3.665-23.424,0l-27.823-13.912
	C102.559,302.868,100.708,300.251,100.33,297.23z M75.874,379.491c0-3.918,2.496-7.381,6.212-8.62l27.92-9.307
	c0.056-0.018,0.108-0.043,0.162-0.062c7.402,6.91,16.685,11.446,26.636,13.038l0.011,27.362h-34.736
	c-9.136,0-16.568,7.432-16.568,16.568v51.307c0,0.181,0.021,0.356,0.027,0.534h-9.665v-90.821H75.874z M102.079,470.313
	c-0.295,0-0.534-0.239-0.534-0.534v-51.307c0-0.295,0.239-0.534,0.534-0.534h42.756c0.001,0,0.002,0,0.003,0h42.753
	c0.295,0,0.534,0.239,0.534,0.534v51.307c0,0.295-0.239,0.534-0.534,0.534H102.079z M213.761,379.491v90.822h-9.63
	c0.005-0.178,0.027-0.354,0.027-0.534v-51.307c0-9.136-7.432-16.568-16.568-16.568h-34.742l-0.011-27.364
	c9.961-1.591,19.239-6.114,26.641-13.032c0.051,0.017,0.099,0.04,0.151,0.057l27.918,9.307
	C211.265,372.111,213.761,375.575,213.761,379.491z M495.967,307.307c0,5.01-4.076,9.086-9.086,9.086H195.086
	c5.558-4.047,9.26-10.219,10.129-17.174l0.125-0.997h264.439c4.427,0,8.017-3.589,8.017-8.017c0-4.427-3.589-8.017-8.017-8.017
	h-9.086V67.875c0-4.427-3.589-8.017-8.017-8.017h-42.756c-4.427,0-8.017,3.589-8.017,8.017v214.313h-18.171V136.284
	c0-4.427-3.589-8.017-8.017-8.017H332.96c-4.427,0-8.017,3.589-8.017,8.017v145.904h-18.171v-77.495
	c0-4.427-3.589-8.017-8.017-8.017H256c-4.427,0-8.017,3.589-8.017,8.017v77.495H207.93c8.708-11.832,13.313-25.63,13.313-40.026
	c0-13.62-4.068-26.651-11.808-38.007c1.119-3.376,1.155-7.066,0.021-10.47l-4.596-13.787l17.451-4.94v38.286
	c0,4.427,3.589,8.017,8.017,8.017s8.017-3.589,8.017-8.017v-51.307c0-0.305-0.02-0.605-0.053-0.901
	c-0.359-4.683-3.503-8.589-8.052-9.877l-76.489-21.652c-0.298-0.084-0.6-0.145-0.899-0.221V50.772c0-5.01,4.076-9.086,9.086-9.086
	H486.88c5.01,0,9.086,4.076,9.086,9.086v256.534H495.967z M290.739,282.188h-26.722V212.71h26.722V282.188z M367.699,282.188
	h-26.722V144.301h26.722V282.188z M444.66,282.188h-26.722V75.891h26.722V282.188z"/>
<path d="M144.878,436.109h-0.086c-4.427,0-7.974,3.589-7.974,8.017c0,4.427,3.632,8.017,8.059,8.017s8.017-3.589,8.017-8.017
	C152.895,439.698,149.305,436.109,144.878,436.109z"/>
<g>
</g>
<g>
</g>
<g>
</g>
<g>
</g>
<g>
</g>
<g>
</g>
<g>
</g>
<g>
</g>
<g>
</g>
<g>
</g>
<g>
</g>
<g>
</g>
<g>
</g>
<g>
</g>
<g>
</g>
</svg>
