<?xml version="1.0" encoding="iso-8859-1"?>
<!-- Generator: Adobe Illustrator 19.0.0, SVG Export Plug-In . SVG Version: 6.00 Build 0)  -->
<svg version="1.1" id="Layer_1" xmlns="http://www.w3.org/2000/svg" xmlns:xlink="http://www.w3.org/1999/xlink" x="0px" y="0px"
	 viewBox="0 0 512 512" style="enable-background:new 0 0 512 512;" xml:space="preserve">
<path style="fill:#694B4B;" d="M256,33.67c-85.556,0-105.004,85.922-105.796,193.031c-0.033,4.456,2.586,8.47,6.599,10.346
	c15.118,7.064,33.768,12.525,54.639,15.77h89.116c20.869-3.245,39.52-8.706,54.639-15.77c4.013-1.875,6.632-5.889,6.599-10.346
	C361.004,119.592,341.556,33.67,256,33.67z"/>
<path style="fill:#5A4146;" d="M150.204,226.702c-0.033,4.456,2.586,8.47,6.599,10.346c15.118,7.064,33.768,12.525,54.639,15.77H256
	V127.733c0,0-42.5,2.074-34.205,0c34.205-8.551,102.614-51.307,62.828-90.276c-8.606-2.476-18.11-3.787-28.624-3.787
	C170.444,33.67,150.996,119.592,150.204,226.702z"/>
<path style="fill:#D29B6E;" d="M384.466,452.676V320.962c0-13.808-8.303-26.263-21.049-31.573l-60.333-25.138
	c-5.632-2.346-9.3-7.85-9.3-13.951v-18.262h-75.569V250.3c0,6.101-3.668,11.604-9.3,13.951l-60.333,25.138
	c-12.747,5.311-21.049,17.765-21.049,31.573v131.714H384.466z"/>
<path style="fill:#FFDC64;" d="M363.417,289.389l-42.413-17.672c-15.614,18.844-31.095,33.061-44.573,43.483h-40.863
	c-13.478-10.422-28.958-24.639-44.573-43.483l-42.413,17.672c-12.747,5.31-21.049,17.765-21.049,31.573v131.714h256.932V320.962
	C384.466,307.153,376.163,294.699,363.417,289.389z"/>
<g>
	<path style="fill:#FFC850;" d="M132.442,303.465c-3.103,5.194-4.908,11.183-4.908,17.497v131.714h51.506V350.063L132.442,303.465z"
		/>
	<path style="fill:#FFC850;" d="M379.558,303.465c3.103,5.194,4.908,11.183,4.908,17.497v131.714H332.96V350.063L379.558,303.465z"
		/>
</g>
<path style="fill:#F0C087;" d="M331.568,131.909l-6.109,67.203c-0.905,9.961-6.68,18.83-15.423,23.687l-39.356,21.864
	c-9.129,5.072-20.23,5.072-29.359,0l-39.356-21.864c-8.744-4.857-14.518-13.726-15.423-23.687l-6.11-67.202
	c0,0,83.126-7.557,120.909-30.227C301.341,101.682,308.897,124.352,331.568,131.909z"/>
<path style="fill:#F5DCB4;" d="M495.432,478.33H16.568c-4.722,0-8.551-3.829-8.551-8.551v-17.102c0-4.722,3.829-8.551,8.551-8.551
	h478.864c4.722,0,8.551,3.829,8.551,8.551v17.102C503.983,474.501,500.155,478.33,495.432,478.33z"/>
<path style="fill:#FFC850;" d="M177.826,282.628c14.601,17.621,30.508,33.131,47.279,46.1l4.621,3.573h5.842h40.863h5.841
	l4.621-3.573c16.772-12.969,32.679-28.48,47.279-46.1l3.341-4.032l-16.51-6.879c-15.614,18.844-31.095,33.061-44.573,43.483h-40.863
	c-13.478-10.422-28.958-24.639-44.573-43.483l-16.51,6.879L177.826,282.628z"/>
<path style="fill:#D5DCED;" d="M332.96,444.125H179.04c-9.446,0-17.102-7.656-17.102-17.102V324.409
	c0-9.446,7.656-17.102,17.102-17.102H332.96c9.446,0,17.102,7.656,17.102,17.102v102.614
	C350.063,436.469,342.406,444.125,332.96,444.125z"/>
<circle style="fill:#FFFFFF;" cx="256" cy="375.716" r="17.102"/>
<path style="fill:#E6AF78;" d="M301.341,101.682c-37.784,22.67-120.909,30.227-120.909,30.227l6.109,67.203
	c0.905,9.961,6.68,18.829,15.423,23.687l39.357,21.864c3.324,1.847,6.934,2.786,10.592,3.287l-11.142-29.714
	c-1.243-3.315-2.069-6.771-2.461-10.291l-5.517-49.649c-0.491-4.418,2.463-8.429,6.82-9.312
	c17.078-3.463,35.563-8.156,51.917-14.407c7.217,8.418,17.547,16.875,31.928,21.668l4.551,1.517l1.19,0.226l2.371-26.079
	C308.897,124.352,301.341,101.682,301.341,101.682z"/>
<path d="M256,350.597c-13.851,0-25.119,11.268-25.119,25.119c0,13.851,11.268,25.119,25.119,25.119
	c13.851,0,25.119-11.268,25.119-25.119C281.119,361.865,269.851,350.597,256,350.597z M256,384.802c-5.01,0-9.086-4.076-9.086-9.086
	s4.076-9.086,9.086-9.086c5.01,0,9.086,4.076,9.086,9.086S261.01,384.802,256,384.802z"/>
<path d="M495.432,436.109H392.483V320.962c0-17.099-10.199-32.397-25.983-38.973l-55.061-22.942
	c17.507-3.399,33.657-8.431,47.15-14.737c6.872-3.211,11.277-10.146,11.222-17.668c-0.468-63.345-7.4-107.801-21.814-139.906
	C329.8,46.205,298.848,25.653,256,25.653s-73.8,20.552-91.998,61.083c-14.414,32.105-21.346,76.562-21.814,139.906
	c-0.056,7.521,4.349,14.456,11.222,17.668c13.493,6.305,29.643,11.337,47.15,14.737l-55.06,22.942
	c-15.784,6.577-25.983,21.874-25.983,38.973v115.147H16.568C7.432,436.109,0,443.541,0,452.676v17.102
	c0,9.136,7.432,16.568,16.568,16.568h478.864c9.136,0,16.568-7.432,16.568-16.568v-17.102
	C512,443.541,504.568,436.109,495.432,436.109z M376.449,320.962v115.147h-20.077c1.098-2.82,1.707-5.882,1.707-9.086V324.409
	c0-13.851-11.268-25.119-25.119-25.119h-27.238c5.794-5.669,11.348-11.79,16.613-18.334l37.997,15.832
	C370.124,300.868,376.449,310.356,376.449,320.962z M169.954,427.023V324.409c0-5.01,4.076-9.086,9.086-9.086H332.96
	c5.01,0,9.086,4.076,9.086,9.086v102.614c0,5.01-4.076,9.086-9.086,9.086H179.04C174.03,436.109,169.954,432.033,169.954,427.023z
	 M205.125,274.514l6.873-2.864c8.647-3.603,14.234-11.983,14.234-21.351v-4.847l11.195,6.219c5.815,3.23,12.194,4.845,18.572,4.845
	s12.758-1.615,18.572-4.845l11.195-6.219v4.847c0,9.368,5.588,17.748,14.234,21.351l6.873,2.864
	c-7.863,9.321-16.351,17.621-25.296,24.776h-51.155C221.476,292.135,212.988,283.835,205.125,274.514z M266.786,237.655
	c-6.754,3.752-14.818,3.752-21.573,0l-39.356-21.864c-6.43-3.572-10.666-10.079-11.333-17.405l-5.394-59.333
	c20.442-2.347,74.939-9.863,108.566-26.302c4.211,7.464,12.122,18.053,25.349,24.352l-5.571,61.283
	c-0.666,7.326-4.902,13.833-11.332,17.405L266.786,237.655z M158.221,226.761c0.451-61.045,6.935-103.452,20.407-133.458
	C194.223,58.571,219.531,41.687,256,41.687s61.777,16.884,77.371,51.617c13.472,30.007,19.956,72.413,20.407,133.458
	c0.01,1.271-0.766,2.457-1.976,3.023c-13.975,6.53-31.219,11.595-50.002,14.708v-7.949l12.129-6.738
	c11.072-6.151,18.367-17.355,19.514-29.969l6.11-67.202c0.337-3.705-1.92-7.155-5.449-8.331
	c-18.428-6.143-25.104-25.002-25.158-25.157c-0.77-2.307-2.543-4.14-4.824-4.983c-2.281-0.843-4.821-0.607-6.906,0.645
	c-35.763,21.458-116.698,29.044-117.511,29.118c-4.409,0.402-7.659,4.3-7.258,8.709l6.11,67.202
	c1.147,12.614,8.441,23.817,19.514,29.969l12.128,6.737v7.949c-18.783-3.114-36.027-8.178-50.002-14.708
	C158.987,229.219,158.212,228.032,158.221,226.761z M135.551,320.962c0-10.606,6.326-20.094,16.116-24.173l37.997-15.832
	c5.265,6.544,10.819,12.664,16.613,18.334H179.04c-13.851,0-25.119,11.268-25.119,25.119v102.614c0,3.203,0.609,6.266,1.707,9.086
	h-20.077C135.551,436.109,135.551,320.962,135.551,320.962z M495.967,469.779c0,0.295-0.239,0.534-0.534,0.534H16.568
	c-0.295,0-0.534-0.239-0.534-0.534v-17.102c0-0.295,0.239-0.534,0.534-0.534h478.864c0.295,0,0.534,0.239,0.534,0.534V469.779z"/>
<g>
</g>
<g>
</g>
<g>
</g>
<g>
</g>
<g>
</g>
<g>
</g>
<g>
</g>
<g>
</g>
<g>
</g>
<g>
</g>
<g>
</g>
<g>
</g>
<g>
</g>
<g>
</g>
<g>
</g>
</svg>
