<?xml version="1.0" encoding="iso-8859-1"?>
<!-- Generator: Adobe Illustrator 19.0.0, SVG Export Plug-In . SVG Version: 6.00 Build 0)  -->
<svg version="1.1" id="Layer_1" xmlns="http://www.w3.org/2000/svg" xmlns:xlink="http://www.w3.org/1999/xlink" x="0px" y="0px"
	 viewBox="0 0 512 512" style="enable-background:new 0 0 512 512;" xml:space="preserve">
<polygon style="fill:#FAEBC8;" points="418.472,315.857 418.472,281.652 256,196.142 93.528,281.652 93.528,315.857 
	119.182,315.857 119.182,469.778 93.528,469.778 93.528,503.982 418.472,503.982 418.472,469.778 392.818,469.778 392.818,315.857 
	"/>
<g>
	<rect x="119.182" y="315.858" style="fill:#F5DCB4;" width="273.637" height="25.653"/>
	<rect x="119.182" y="444.125" style="fill:#F5DCB4;" width="273.637" height="25.653"/>
</g>
<path d="M418.472,323.875c4.427,0,8.017-3.589,8.017-8.017v-34.205c0-2.977-1.649-5.708-4.283-7.094l-158.189-83.257V179.04
	c0-4.427-3.589-8.017-8.017-8.017c-4.427,0-8.017,3.589-8.017,8.017v12.262L89.795,274.559c-2.634,1.386-4.283,4.117-4.283,7.094
	v34.205c0,4.427,3.589,8.017,8.017,8.017h17.637v137.887H93.528c-4.427,0-8.017,3.589-8.017,8.017v34.205
	c0,4.427,3.589,8.017,8.017,8.017h324.944c4.427,0,8.017-3.589,8.017-8.017v-34.205c0-4.427-3.589-8.017-8.017-8.017h-17.637
	V323.875H418.472z M101.545,286.492L256,205.201l154.455,81.291v21.349h-308.91V286.492z M332.425,461.762V323.875h18.171v137.887
	H332.425z M179.574,323.875v137.887h-18.171V323.875H179.574z M195.608,323.875h18.171v137.887h-18.171V323.875z M229.812,323.875
	h18.171v137.887h-18.171V323.875z M264.017,323.875h18.171v137.887h-18.171V323.875z M298.221,323.875h18.171v137.887h-18.171
	V323.875z M127.198,323.875h18.171v137.887h-18.171V323.875z M410.455,495.967h-308.91v-18.171h308.91V495.967z M384.802,461.762
	H366.63V323.875h18.171V461.762z"/>
<path d="M170.97,51.253c22.713-22.712,52.91-35.22,85.03-35.22s62.318,12.508,85.029,35.22c1.565,1.565,3.617,2.348,5.668,2.348
	s4.103-0.782,5.668-2.348c3.131-3.131,3.131-8.207,0-11.337C326.626,14.176,292.402,0,256,0s-70.626,14.176-96.367,39.917
	c-3.131,3.131-3.131,8.207,0,11.337C162.764,54.384,167.84,54.384,170.97,51.253z"/>
<path d="M316.465,83.834c2.051,0,4.103-0.782,5.668-2.348c3.131-3.131,3.131-8.207,0-11.337
	C304.469,52.484,280.982,42.756,256,42.756c-24.982,0-48.469,9.729-66.135,27.394c-3.131,3.131-3.131,8.207,0,11.337
	c3.131,3.131,8.207,3.131,11.337,0C215.84,66.85,235.301,58.789,256,58.789s40.16,8.062,54.797,22.698
	C312.362,83.052,314.414,83.834,316.465,83.834z"/>
<path d="M286.233,114.067c2.051,0,4.103-0.782,5.668-2.348c3.131-3.131,3.131-8.207,0-11.337c-19.797-19.797-52.006-19.797-71.803,0
	c-3.131,3.131-3.131,8.207,0,11.337c3.131,3.131,8.207,3.131,11.337,0c13.545-13.545,35.583-13.545,49.129,0
	C282.129,113.285,284.181,114.067,286.233,114.067z"/>
<path d="M243.708,140.56c0,6.778,5.514,12.292,12.292,12.292c6.778,0,12.292-5.514,12.292-12.292
	c0-6.778-5.514-12.292-12.292-12.292C249.222,128.267,243.708,133.781,243.708,140.56z"/>
<path d="M230.347,255.466h51.307c4.427,0,8.017-3.589,8.017-8.017s-3.589-8.017-8.017-8.017h-51.307
	c-4.427,0-8.017,3.589-8.017,8.017S225.919,255.466,230.347,255.466z"/>
<path d="M204.693,289.67h102.614c4.427,0,8.017-3.589,8.017-8.017c0-4.427-3.589-8.017-8.017-8.017H204.693
	c-4.427,0-8.017,3.589-8.017,8.017C196.676,286.081,200.266,289.67,204.693,289.67z"/>
<g>
</g>
<g>
</g>
<g>
</g>
<g>
</g>
<g>
</g>
<g>
</g>
<g>
</g>
<g>
</g>
<g>
</g>
<g>
</g>
<g>
</g>
<g>
</g>
<g>
</g>
<g>
</g>
<g>
</g>
</svg>
