<?xml version="1.0" encoding="iso-8859-1"?>
<!-- Generator: Adobe Illustrator 19.0.0, SVG Export Plug-In . SVG Version: 6.00 Build 0)  -->
<svg version="1.1" id="Layer_1" xmlns="http://www.w3.org/2000/svg" xmlns:xlink="http://www.w3.org/1999/xlink" x="0px" y="0px"
	 viewBox="0 0 512 512" style="enable-background:new 0 0 512 512;" xml:space="preserve">
<path style="fill:#FAEBC8;" d="M136.284,461.228H16.568c-4.722,0-8.551-3.829-8.551-8.551v-76.96c0-4.722,3.829-8.551,8.551-8.551
	h119.716c4.722,0,8.551,3.829,8.551,8.551v76.96C144.835,457.399,141.006,461.228,136.284,461.228z"/>
<rect x="59.324" y="461.228" style="fill:#707487;" width="34.205" height="34.205"/>
<path style="fill:#FAEBC8;" d="M315.858,461.228H196.142c-4.722,0-8.551-3.829-8.551-8.551v-76.96c0-4.722,3.829-8.551,8.551-8.551
	h119.716c4.722,0,8.551,3.829,8.551,8.551v76.96C324.409,457.399,320.58,461.228,315.858,461.228z"/>
<rect x="238.898" y="461.228" style="fill:#707487;" width="34.205" height="34.205"/>
<path style="fill:#FAEBC8;" d="M495.432,461.228H375.716c-4.722,0-8.551-3.829-8.551-8.551v-76.96c0-4.722,3.829-8.551,8.551-8.551
	h119.716c4.722,0,8.551,3.829,8.551,8.551v76.96C503.983,457.399,500.155,461.228,495.432,461.228z"/>
<rect x="418.472" y="461.228" style="fill:#707487;" width="34.205" height="34.205"/>
<polygon style="fill:#FAEBC8;" points="375.716,84.977 375.716,59.324 256,16.568 136.284,59.324 136.284,84.977 153.386,84.977 
	153.386,196.142 136.284,196.142 136.284,230.347 375.716,230.347 375.716,196.142 358.614,196.142 358.614,84.977 "/>
<g>
	<rect x="153.386" y="84.977" style="fill:#EBC9A0;" width="205.228" height="25.653"/>
	<rect x="153.386" y="170.489" style="fill:#EBC9A0;" width="205.228" height="25.653"/>
</g>
<path d="M495.432,359.148h-51.841v-43.29c0-13.851-11.268-25.119-25.119-25.119H263.98l0.032-52.376h111.704
	c4.427,0,8.017-3.589,8.017-8.017v-34.205c0-4.427-3.589-8.017-8.017-8.017h-9.086V92.994h9.086c4.427,0,8.017-3.589,8.017-8.017
	V59.324c0-3.388-2.13-6.41-5.321-7.55L258.696,9.018c-1.743-0.623-3.649-0.623-5.393,0L133.587,51.774
	c-3.19,1.139-5.32,4.161-5.32,7.55v25.653c0,4.427,3.589,8.017,8.017,8.017h9.086v95.132h-9.086c-4.427,0-8.017,3.589-8.017,8.017
	v34.205c0,4.427,3.589,8.017,8.017,8.017h111.694l-0.032,52.376H93.528c-13.851,0-25.119,11.268-25.119,25.119v43.29H16.568
	C7.432,359.148,0,366.58,0,375.716v76.96c0,9.136,7.432,16.568,16.568,16.568h34.739v18.171h-9.086
	c-4.427,0-8.017,3.589-8.017,8.017c0,4.427,3.589,8.017,8.017,8.017h68.409c4.427,0,8.017-3.589,8.017-8.017
	c0-4.427-3.589-8.017-8.017-8.017h-9.086v-18.171h34.739c9.136,0,16.568-7.432,16.568-16.568v-76.96
	c0-9.136-7.432-16.568-16.568-16.568H84.443v-43.29c0-5.01,4.076-9.086,9.086-9.086h154.409l-0.032,52.376h-51.763
	c-9.136,0-16.568,7.432-16.568,16.568v76.96c0,9.136,7.432,16.568,16.568,16.568h34.739v18.171h-9.086
	c-4.427,0-8.017,3.589-8.017,8.017c0,4.427,3.589,8.017,8.017,8.017h68.409c4.427,0,8.017-3.589,8.017-8.017
	c0-4.427-3.589-8.017-8.017-8.017h-9.086v-18.171h34.739c9.136,0,16.568-7.432,16.568-16.568v-76.96
	c0-9.136-7.432-16.568-16.568-16.568h-51.919l0.032-52.376h154.501c5.01,0,9.086,4.076,9.086,9.086v43.29h-51.841
	c-9.136,0-16.568,7.432-16.568,16.568v76.96c0,9.136,7.432,16.568,16.568,16.568h34.739v18.171h-9.086
	c-4.427,0-8.017,3.589-8.017,8.017c0,4.427,3.589,8.017,8.017,8.017h68.409c4.427,0,8.017-3.589,8.017-8.017
	c0-4.427-3.589-8.017-8.017-8.017h-9.086v-18.171h34.739c9.136,0,16.568-7.432,16.568-16.568v-76.96
	C512,366.58,504.568,359.148,495.432,359.148z M350.597,188.125h-18.171V92.994h18.171V188.125z M298.221,188.125V92.994h18.171
	v95.132H298.221z M264.017,188.125V92.994h18.171v95.132H264.017z M229.812,188.125V92.994h18.171v95.132H229.812z M195.608,188.125
	V92.994h18.171v95.132H195.608z M144.301,64.973L256,25.08l111.699,39.893V76.96H144.301V64.973z M161.403,92.994h18.171v95.132
	h-18.171V92.994z M144.301,204.159h223.399v18.171H144.301V204.159z M85.511,487.416H67.34v-18.171h18.171V487.416z
	 M136.818,375.716v76.96c0,0.295-0.239,0.534-0.534,0.534H16.568c-0.295,0-0.534-0.239-0.534-0.534v-76.96
	c0-0.295,0.239-0.534,0.534-0.534h119.716C136.579,375.182,136.818,375.421,136.818,375.716z M265.086,487.416h-18.171v-18.171
	h18.171V487.416z M316.392,375.716v76.96c0,0.295-0.239,0.534-0.534,0.534H196.142c-0.295,0-0.534-0.239-0.534-0.534v-76.96
	c0-0.295,0.239-0.534,0.534-0.534h119.716C316.153,375.182,316.392,375.421,316.392,375.716z M444.66,487.416h-18.171v-18.171
	h18.171V487.416z M495.967,452.677c0,0.295-0.239,0.534-0.534,0.534H375.716c-0.295,0-0.534-0.239-0.534-0.534v-76.96
	c0-0.295,0.239-0.534,0.534-0.534h119.716c0.295,0,0.534,0.239,0.534,0.534V452.677z"/>
<g>
</g>
<g>
</g>
<g>
</g>
<g>
</g>
<g>
</g>
<g>
</g>
<g>
</g>
<g>
</g>
<g>
</g>
<g>
</g>
<g>
</g>
<g>
</g>
<g>
</g>
<g>
</g>
<g>
</g>
</svg>
