<?xml version="1.0" encoding="iso-8859-1"?>
<!-- Generator: Adobe Illustrator 19.0.0, SVG Export Plug-In . SVG Version: 6.00 Build 0)  -->
<svg version="1.1" id="Layer_1" xmlns="http://www.w3.org/2000/svg" xmlns:xlink="http://www.w3.org/1999/xlink" x="0px" y="0px"
	 viewBox="0 0 512 512" style="enable-background:new 0 0 512 512;" xml:space="preserve">
<path style="fill:#FF5050;" d="M418.472,247.449H93.528c-9.446,0-17.102-7.656-17.102-17.102V25.119
	c0-9.446,7.656-17.102,17.102-17.102h324.944c9.446,0,17.102,7.656,17.102,17.102v205.228
	C435.574,239.792,427.917,247.449,418.472,247.449z"/>
<path style="fill:#FFFFFF;" d="M307.307,50.772H204.693c-9.445,0-17.102,7.656-17.102,17.102v68.409
	c0,9.445,7.658,17.102,17.102,17.102h102.614c9.445,0,17.102-7.658,17.102-17.102V67.875
	C324.409,58.429,316.752,50.772,307.307,50.772z M275.543,105.746l-30.17,18.103c-2.85,1.71-6.476-0.343-6.476-3.666V83.978
	c0-3.323,3.627-5.375,6.476-3.666l30.17,18.102C278.311,100.074,278.311,104.086,275.543,105.746z"/>
<rect x="187.591" y="247.449" style="fill:#5B5D6E;" width="136.818" height="34.205"/>
<path style="fill:#F5DCB4;" d="M478.33,315.858H33.67c-4.722,0-8.551-3.829-8.551-8.551v-17.102c0-4.722,3.829-8.551,8.551-8.551
	h444.66c4.722,0,8.551,3.829,8.551,8.551v17.102C486.881,312.029,483.052,315.858,478.33,315.858z"/>
<circle style="fill:#FFFFFF;" cx="179.04" cy="196.142" r="17.102"/>
<path d="M384.267,188.125H202.839c-3.354-9.93-12.752-17.102-23.8-17.102s-20.446,7.172-23.8,17.102h-27.506
	c-4.427,0-8.017,3.589-8.017,8.017s3.589,8.017,8.017,8.017h27.507c3.354,9.93,12.752,17.102,23.8,17.102s20.446-7.172,23.8-17.102
	h181.428c4.427,0,8.017-3.589,8.017-8.017S388.695,188.125,384.267,188.125z M179.04,205.228c-5.01,0-9.086-4.076-9.086-9.086
	s4.076-9.086,9.086-9.086s9.086,4.076,9.086,9.086S184.05,205.228,179.04,205.228z"/>
<path d="M204.693,161.403h102.614c13.851,0,25.119-11.268,25.119-25.119V67.875c0-13.851-11.268-25.119-25.119-25.119H204.693
	c-13.851,0-25.119,11.268-25.119,25.119v68.409C179.574,150.135,190.842,161.403,204.693,161.403z M195.608,67.875
	c0-5.01,4.076-9.086,9.086-9.086h102.614c5.01,0,9.086,4.076,9.086,9.086v68.409c0,5.01-4.076,9.086-9.086,9.086H204.693
	c-5.01,0-9.086-4.076-9.086-9.086V67.875z"/>
<path d="M237.117,130.877c1.877,1.062,3.967,1.593,6.056,1.593c2.192,0,4.385-0.585,6.325-1.749l30.17-18.102
	c3.737-2.243,5.968-6.182,5.968-10.54c0-4.358-2.231-8.299-5.968-10.54l-30.17-18.102c-3.79-2.274-8.534-2.334-12.381-0.156
	c-3.846,2.177-6.236,6.277-6.236,10.696v36.204C230.881,124.601,233.27,128.7,237.117,130.877z M246.914,90.586l19.157,11.494
	l-19.157,11.495V90.586z"/>
<path d="M478.33,273.637H332.427v-18.171h86.045c13.851,0,25.119-11.268,25.119-25.119V25.119C443.591,11.268,432.323,0,418.472,0
	H93.528C79.677,0,68.409,11.268,68.409,25.119v205.228c0,13.851,11.268,25.119,25.119,25.119h86.046v18.171H33.67
	c-9.136,0-16.568,7.432-16.568,16.568v17.102c0,9.136,7.432,16.568,16.568,16.568h0.534v172.092H33.67
	c-4.427,0-8.017,3.589-8.017,8.017c0,4.427,3.589,8.017,8.017,8.017h17.102c4.427,0,8.017-3.589,8.017-8.017
	c0-4.427-3.589-8.017-8.017-8.017h-0.534v-86.58h411.524v86.58h-0.534c-4.427,0-8.017,3.589-8.017,8.017
	c0,4.427,3.589,8.017,8.017,8.017h17.102c4.427,0,8.017-3.589,8.017-8.017c0-4.427-3.589-8.017-8.017-8.017h-0.534V323.875h0.534
	c9.136,0,16.568-7.432,16.568-16.568v-17.102C494.898,281.069,487.466,273.637,478.33,273.637z M84.443,230.347V25.119
	c0-5.01,4.076-9.086,9.086-9.086h324.944c5.01,0,9.086,4.076,9.086,9.086v205.228c0,5.01-4.076,9.086-9.086,9.086H93.528
	C88.518,239.432,84.443,235.356,84.443,230.347z M195.608,255.466h120.785v18.171H195.608V255.466z M461.762,393.353H50.238v-69.478
	h411.524V393.353z M478.864,307.307c0,0.294-0.239,0.534-0.534,0.534H33.67c-0.295,0-0.534-0.241-0.534-0.534v-17.102
	c0-0.294,0.239-0.534,0.534-0.534h444.66c0.295,0,0.534,0.241,0.534,0.534V307.307z"/>
<g>
</g>
<g>
</g>
<g>
</g>
<g>
</g>
<g>
</g>
<g>
</g>
<g>
</g>
<g>
</g>
<g>
</g>
<g>
</g>
<g>
</g>
<g>
</g>
<g>
</g>
<g>
</g>
<g>
</g>
</svg>
