<?xml version="1.0" encoding="iso-8859-1"?>
<!-- Generator: Adobe Illustrator 19.0.0, SVG Export Plug-In . SVG Version: 6.00 Build 0)  -->
<svg version="1.1" id="Layer_1" xmlns="http://www.w3.org/2000/svg" xmlns:xlink="http://www.w3.org/1999/xlink" x="0px" y="0px"
	 viewBox="0 0 512 512" style="enable-background:new 0 0 512 512;" xml:space="preserve">
<path style="fill:#959CB5;" d="M444.125,93.528H67.875c-14.168,0-25.653,11.485-25.653,25.653v265.086h427.557V119.182
	C469.779,105.013,458.293,93.528,444.125,93.528z"/>
<rect x="76.426" y="127.733" style="fill:#FFFFFF;" width="359.148" height="222.33"/>
<rect x="161.937" y="262.413" style="fill:#D29B6E;" width="51.307" height="64.134"/>
<path style="fill:#F0C087;" d="M148.575,206.823l3.653,43.85c0.718,8.617,5.877,16.238,13.611,20.105l10.668,5.334
	c6.976,3.488,15.187,3.488,22.162,0l10.668-5.334c7.734-3.867,12.894-11.487,13.611-20.105l3.653-43.85
	c1.246-14.956-10.556-27.784-25.565-27.784h-26.901C159.133,179.04,147.329,191.867,148.575,206.823z"/>
<path style="fill:#707487;" d="M495.432,418.472H16.568c-4.722,0-8.551-3.829-8.551-8.551v-17.102c0-4.722,3.829-8.551,8.551-8.551
	h478.864c4.722,0,8.551,3.829,8.551,8.551v17.102C503.983,414.643,500.155,418.472,495.432,418.472z"/>
<path style="fill:#E6AF78;" d="M194.392,276.112l-5.912-5.334c-4.287-3.867-7.147-11.487-7.544-20.105l-1.598-34.589
	c-0.855-18.513,6.635-34.395,16.58-36.601c-1.384-0.17-2.737-0.444-4.171-0.444H174.14c-15.008,0-26.811,12.827-25.565,27.784
	l3.653,43.85c0.718,8.617,5.877,16.238,13.611,20.105l10.668,5.334c6.178,3.089,13.281,3.28,19.682,0.897
	C195.472,276.734,194.772,276.454,194.392,276.112z"/>
<path style="fill:#00C3FF;" d="M258.703,313.908l-36.908-12.303l-34.205,22.803l-34.205-22.803l-36.908,12.303
	c-3.493,1.164-5.848,4.432-5.848,8.113v28.041h153.921v-28.041C264.551,318.34,262.196,315.073,258.703,313.908z"/>
<path d="M435.574,119.716H76.426c-4.427,0-8.017,3.589-8.017,8.017v222.33c0,4.427,3.589,8.017,8.017,8.017h359.148
	c4.427,0,8.017-3.589,8.017-8.017v-222.33C443.591,123.305,440.001,119.716,435.574,119.716z M256.534,342.046h-60.927v-21.897
	l18.977-12.651c0.635,0.307,1.289,0.586,1.971,0.813l39.613,13.205c0.219,0.073,0.366,0.277,0.366,0.507L256.534,342.046
	L256.534,342.046z M169.954,292.593v-10.795l2.97,1.485c4.592,2.296,9.629,3.444,14.666,3.444s10.074-1.148,14.666-3.444l2.97-1.485
	v10.795c0,0.608,0.045,1.207,0.109,1.8l-17.746,11.831l-17.746-11.831C169.909,293.799,169.954,293.2,169.954,292.593z
	 M218.617,206.158l-3.653,43.85c-0.483,5.79-4.01,11.002-9.207,13.601l-10.668,5.334c-4.695,2.346-10.299,2.346-14.992,0
	l-10.668-5.334c-5.197-2.598-8.725-7.81-9.207-13.601l-3.653-43.85c-0.415-4.972,1.219-9.734,4.597-13.406s7.986-5.695,12.976-5.695
	h26.901c4.99,0,9.6,2.022,12.979,5.695C217.399,196.424,219.031,201.185,218.617,206.158z M158.625,308.31
	c0.683-0.228,1.336-0.507,1.971-0.813l18.978,12.652v21.897h-60.927v-20.025c0-0.23,0.146-0.434,0.366-0.507L158.625,308.31z
	 M427.557,342.046h-154.99v-20.025c0-7.142-4.552-13.458-11.329-15.718l-39.613-13.205c-0.219-0.073-0.366-0.277-0.366-0.507
	v-19.489c0-0.365-0.033-0.72-0.08-1.072c5.54-5.449,9.102-12.791,9.76-20.692l3.653-43.849c0.779-9.357-2.419-18.685-8.777-25.595
	c-6.358-6.909-15.387-10.872-24.776-10.872H174.14c-9.389,0-18.419,3.962-24.777,10.872s-9.556,16.238-8.777,25.595l3.653,43.85
	c0.658,7.899,4.22,15.242,9.76,20.691c-0.047,0.352-0.08,0.708-0.08,1.072v19.49c0,0.23-0.146,0.434-0.366,0.507l-39.613,13.205
	c-6.775,2.259-11.327,8.575-11.327,15.717v20.025H84.443V135.749h343.115V342.046z"/>
<path d="M495.432,376.251h-17.637V119.182c0-18.566-15.105-33.67-33.67-33.67H67.875c-18.566,0-33.67,15.105-33.67,33.67v257.069
	H16.568C7.432,376.251,0,383.683,0,392.818v17.102c0,9.136,7.432,16.568,16.568,16.568h478.864c9.136,0,16.568-7.432,16.568-16.568
	v-17.102C512,383.683,504.568,376.251,495.432,376.251z M50.238,119.182c0-9.725,7.912-17.637,17.637-17.637h376.251
	c9.725,0,17.637,7.912,17.637,17.637v257.069H50.238V119.182z M495.967,409.921c0,0.295-0.239,0.534-0.534,0.534H16.568
	c-0.295,0-0.534-0.239-0.534-0.534v-17.102c0-0.295,0.239-0.534,0.534-0.534h197.238c-0.012,0.177-0.027,0.354-0.027,0.534
	c0,4.427,3.589,8.017,8.017,8.017h68.409c4.427,0,8.017-3.589,8.017-8.017c0-0.181-0.015-0.357-0.027-0.534h197.238
	c0.295,0,0.534,0.239,0.534,0.534V409.921z"/>
<path d="M264.551,204.159h12.148l14.886,29.773c1.357,2.716,4.133,4.432,7.17,4.432h8.551c3.024,0,5.79-1.702,7.155-4.401
	l32.351-64.009h54.556c4.427,0,8.017-3.589,8.017-8.017s-3.589-8.017-8.017-8.017h-59.486c-3.024,0-5.79,1.702-7.154,4.401
	l-31.682,62.682l-14.224-28.446c-1.357-2.716-4.133-4.432-7.17-4.432h-17.102c-4.427,0-8.017,3.589-8.017,8.017
	S260.124,204.159,264.551,204.159z"/>
<path d="M353.606,236.606c1.478,1.182,3.246,1.757,5.002,1.757c2.352,0,4.682-1.03,6.265-3.009l10.843-13.553l10.843,13.553
	c1.583,1.98,3.913,3.009,6.265,3.009c1.756,0,3.525-0.575,5.002-1.757c3.457-2.765,4.018-7.81,1.252-11.268l-13.096-16.369
	l13.096-16.37c2.766-3.457,2.205-8.502-1.252-11.268c-3.457-2.766-8.503-2.205-11.268,1.252l-10.842,13.554l-10.843-13.553
	c-2.766-3.458-7.813-4.019-11.268-1.252c-3.457,2.765-4.018,7.81-1.252,11.268l13.096,16.37l-13.096,16.37
	C349.588,228.796,350.149,233.841,353.606,236.606z"/>
<path d="M298.756,265.086h-8.551c-4.427,0-8.017,3.589-8.017,8.017c0,4.427,3.589,8.017,8.017,8.017h8.551
	c4.427,0,8.017-3.589,8.017-8.017C306.772,268.675,303.183,265.086,298.756,265.086z"/>
<path d="M401.37,265.086H332.96c-4.427,0-8.017,3.589-8.017,8.017c0,4.427,3.589,8.017,8.017,8.017h68.409
	c4.427,0,8.017-3.589,8.017-8.017C409.386,268.675,405.797,265.086,401.37,265.086z"/>
<path d="M384.267,299.29H332.96c-4.427,0-8.017,3.589-8.017,8.017c0,4.427,3.589,8.017,8.017,8.017h51.307
	c4.427,0,8.017-3.589,8.017-8.017C392.284,302.88,388.695,299.29,384.267,299.29z"/>
<path d="M298.756,299.29h-8.551c-4.427,0-8.017,3.589-8.017,8.017c0,4.427,3.589,8.017,8.017,8.017h8.551
	c4.427,0,8.017-3.589,8.017-8.017C306.772,302.88,303.183,299.29,298.756,299.29z"/>
<g>
</g>
<g>
</g>
<g>
</g>
<g>
</g>
<g>
</g>
<g>
</g>
<g>
</g>
<g>
</g>
<g>
</g>
<g>
</g>
<g>
</g>
<g>
</g>
<g>
</g>
<g>
</g>
<g>
</g>
</svg>
