<?xml version="1.0" encoding="iso-8859-1"?>
<!-- Generator: Adobe Illustrator 19.0.0, SVG Export Plug-In . SVG Version: 6.00 Build 0)  -->
<svg version="1.1" id="Layer_1" xmlns="http://www.w3.org/2000/svg" xmlns:xlink="http://www.w3.org/1999/xlink" x="0px" y="0px"
	 viewBox="0 0 512 512" style="enable-background:new 0 0 512 512;" xml:space="preserve">
<path style="fill:#FF5050;" d="M264.551,213.244H25.119c-9.446,0-17.102-7.656-17.102-17.102V25.119
	c0-9.446,7.656-17.102,17.102-17.102h239.432c9.446,0,17.102,7.656,17.102,17.102v171.023
	C281.653,205.588,273.997,213.244,264.551,213.244z"/>
<g>
	<path style="fill:#959CB5;" d="M273.102,452.676H256c-14.168,0-25.653-11.485-25.653-25.653v-34.205
		c0-14.168,11.485-25.653,25.653-25.653h17.102c4.722,0,8.551,3.829,8.551,8.551v68.409
		C281.653,448.848,277.825,452.676,273.102,452.676z"/>
	<path style="fill:#959CB5;" d="M478.33,452.676h-17.102c-4.722,0-8.551-3.829-8.551-8.551v-68.409c0-4.722,3.829-8.551,8.551-8.551
		h17.102c14.168,0,25.653,11.485,25.653,25.653v34.205C503.983,441.191,492.498,452.676,478.33,452.676z"/>
</g>
<path style="fill:#FFFFFF;" d="M196.142,42.221H93.528c-18.891,0-34.205,15.314-34.205,34.205v68.409
	c0,18.891,15.314,34.205,34.205,34.205h102.614c18.891,0,34.205-15.314,34.205-34.205V76.426
	C230.347,57.535,215.033,42.221,196.142,42.221z M172.294,118.278l-40.737,20.369c-5.685,2.843-12.376-1.291-12.376-7.648V90.262
	c0-6.357,6.689-10.491,12.376-7.649l40.737,20.369C178.596,106.133,178.596,115.127,172.294,118.278z"/>
<path d="M119.022,145.093c2.678,1.655,5.682,2.489,8.7,2.489c2.527,0,5.062-0.586,7.419-1.765l40.737-20.369
	c5.649-2.825,9.158-8.503,9.158-14.818c0-6.315-3.509-11.994-9.158-14.818l-40.737-20.369c-5.173-2.587-11.2-2.316-16.12,0.725
	c-4.919,3.041-7.856,8.31-7.856,14.093v40.737C111.165,136.783,114.102,142.052,119.022,145.093z M127.198,90.262
	c0-0.111,0-0.298,0.253-0.454c0.11-0.067,0.203-0.091,0.282-0.091c0.104,0,0.181,0.04,0.238,0.067l40.737,20.369
	c0.131,0.066,0.295,0.148,0.295,0.478c0,0.33-0.164,0.412-0.295,0.478l-40.737,20.369c-0.1,0.049-0.266,0.134-0.521-0.024
	c-0.253-0.157-0.253-0.343-0.253-0.454V90.262z"/>
<path d="M196.142,187.056c23.281,0,42.221-18.941,42.221-42.221V76.426c0-23.28-18.941-42.221-42.221-42.221H93.528
	c-23.28,0-42.221,18.941-42.221,42.221v68.409c0,23.28,18.941,42.221,42.221,42.221H196.142z M67.34,144.835V76.426
	c0-14.44,11.748-26.188,26.188-26.188h102.614c14.44,0,26.188,11.748,26.188,26.188v68.409c0,14.44-11.748,26.188-26.188,26.188
	H93.528C79.089,171.023,67.34,159.275,67.34,144.835z"/>
<path d="M494.898,363.524v-13.462c0-70.433-57.3-127.733-127.733-127.733s-127.733,57.3-127.733,127.733v13.462
	c-10.2,5.792-17.102,16.748-17.102,29.294v34.205c0,12.546,6.902,23.502,17.102,29.294v22.013c0,9.725-7.912,17.637-17.637,17.637
	c-9.725,0-17.637-7.912-17.637-17.637V290.205c0-18.566-15.105-33.67-33.67-33.67s-33.67,15.105-33.67,33.67v51.307
	c0,9.725-7.912,17.637-17.637,17.637s-17.637-7.912-17.637-17.637V221.261h163.006c13.851,0,25.119-11.268,25.119-25.119V25.119
	C289.67,11.268,278.402,0,264.551,0H25.119C11.268,0,0,11.268,0,25.119v171.023c0,13.851,11.268,25.119,25.119,25.119h60.392
	v120.251c0,18.566,15.105,33.67,33.67,33.67s33.67-15.105,33.67-33.67v-51.307c0-9.725,7.912-17.637,17.637-17.637
	c9.725,0,17.637,7.912,17.637,17.637V478.33c0,18.566,15.105,33.67,33.67,33.67s33.67-15.105,33.67-33.67v-17.651
	c0.179,0.003,0.355,0.014,0.534,0.014h17.102c9.136,0,16.568-7.432,16.568-16.568v-68.409c0-9.136-7.432-16.568-16.568-16.568H256
	c-0.18,0-0.356,0.011-0.534,0.014v-9.099c0-61.592,50.108-111.699,111.699-111.699s111.699,50.108,111.699,111.699v9.099
	c-0.178-0.003-0.355-0.014-0.534-0.014h-17.102c-9.136,0-16.568,7.432-16.568,16.568v68.409c0,9.136,7.432,16.568,16.568,16.568
	h17.102c18.566,0,33.67-15.105,33.67-33.67v-34.205C512,380.273,505.098,369.317,494.898,363.524z M16.033,196.142V25.119
	c0-5.01,4.076-9.086,9.086-9.086h239.432c5.01,0,9.086,4.076,9.086,9.086v171.023c0,5.01-4.076,9.086-9.086,9.086H25.119
	C20.109,205.228,16.033,201.152,16.033,196.142z M273.102,375.182c0.295,0,0.534,0.239,0.534,0.534v68.409
	c0,0.295-0.239,0.534-0.534,0.534H256c-9.725,0-17.637-7.912-17.637-17.637v-34.205c0-9.725,7.912-17.637,17.637-17.637H273.102z
	 M495.967,427.023c0,9.725-7.912,17.637-17.637,17.637h-17.102c-0.295,0-0.534-0.239-0.534-0.534v-68.409
	c0-0.295,0.239-0.534,0.534-0.534h17.102c9.725,0,17.637,7.912,17.637,17.637V427.023z"/>
<g>
</g>
<g>
</g>
<g>
</g>
<g>
</g>
<g>
</g>
<g>
</g>
<g>
</g>
<g>
</g>
<g>
</g>
<g>
</g>
<g>
</g>
<g>
</g>
<g>
</g>
<g>
</g>
<g>
</g>
</svg>
