<?xml version="1.0" encoding="iso-8859-1"?>
<!-- Generator: Adobe Illustrator 19.0.0, SVG Export Plug-In . SVG Version: 6.00 Build 0)  -->
<svg version="1.1" id="Layer_1" xmlns="http://www.w3.org/2000/svg" xmlns:xlink="http://www.w3.org/1999/xlink" x="0px" y="0px"
	 viewBox="0 0 512 512" style="enable-background:new 0 0 512 512;" xml:space="preserve">
<path style="fill:#FF6464;" d="M469.779,435.574H42.221c-18.891,0-34.205-15.314-34.205-34.205V110.63
	c0-18.891,15.314-34.205,34.205-34.205h427.557c18.891,0,34.205,15.314,34.205,34.205V401.37
	C503.983,420.26,488.669,435.574,469.779,435.574z"/>
<path style="fill:#E4EAF8;" d="M317.002,284.202v15.98c0,5.34-3.212,10.157-8.143,12.209l-63.644,26.491
	c-3.826,1.593-6.317,5.328-6.317,9.471l0,0c0,5.666,4.593,10.26,10.26,10.26h201.81c5.666,0,10.26-4.593,10.26-10.26l0,0
	c0-4.143-2.492-7.88-6.317-9.471l-63.648-26.494c-4.928-2.051-8.139-6.864-8.139-12.202v-15.984"/>
<path style="fill:#694B4B;" d="M350.063,110.63c-75.08,0-92.146,75.401-92.841,169.395c-0.029,3.911,2.269,7.433,5.791,9.079
	c13.267,6.2,29.634,10.991,47.947,13.839h78.203c18.314-2.848,34.68-7.639,47.948-13.839c3.522-1.646,5.82-5.168,5.791-9.079
	C442.209,186.031,425.143,110.63,350.063,110.63z"/>
<path style="fill:#5A4146;" d="M257.222,280.026c-0.029,3.911,2.269,7.433,5.791,9.079c13.267,6.2,29.634,10.991,47.947,13.839
	h39.102V193.175c0,0-37.296,1.82-30.017,0c30.017-7.504,90.049-45.024,55.136-79.221c-7.552-2.172-15.892-3.324-25.119-3.324
	C274.982,110.63,257.917,186.031,257.222,280.026z"/>
<g>
	<path style="fill:#FFFFFF;" d="M225.296,256.134l-20.603-34.338v-76.96c0-14.168-11.485-25.653-25.653-25.653H76.426
		c-14.168,0-25.653,11.485-25.653,25.653v128.267c0,14.168,11.485,25.653,25.653,25.653H179.04
		c14.168,0,25.653-11.485,25.653-25.653v-8.551h15.837C224.85,264.551,227.518,259.838,225.296,256.134z"/>
	<circle style="fill:#FFFFFF;" cx="119.182" cy="392.818" r="17.102"/>
</g>
<path style="fill:#FFF082;" d="M170.489,196.142c0-26.624-24.334-47.565-51.975-41.792c-16.722,3.492-29.992,17.381-32.885,34.218
	c-3.009,17.517,4.664,33.476,17.551,42.527c4.486,3.151,7.45,8.023,7.45,13.507v2.846c0,4.722,3.829,8.551,8.551,8.551h17.102
	c4.722,0,8.551-3.829,8.551-8.551v-2.893c0-5.367,2.791-10.235,7.203-13.287C163.179,223.559,170.489,210.716,170.489,196.142z"/>
<path style="fill:#D29B6E;" d="M350.063,332.96L350.063,332.96c-18.891,0-34.205-15.314-34.205-34.205v-17.102h68.409v17.102
	C384.267,317.646,368.953,332.96,350.063,332.96z"/>
<path style="fill:#F0C087;" d="M415.883,202.278l-4.867,53.536c-0.794,8.741-5.862,16.524-13.535,20.787l-34.537,19.187
	c-8.011,4.451-17.753,4.451-25.765,0l-34.537-19.187c-7.673-4.263-12.74-12.045-13.535-20.787l-4.7-51.696
	c-0.365-4.009,2.487-7.577,6.486-8.043c17.712-2.067,64.23-8.55,92.384-22.224c3.56-1.729,7.738-0.335,9.712,3.096
	c3.227,5.61,9.184,13.456,18.955,18.109C414.649,196.342,416.154,199.296,415.883,202.278z"/>
<path style="fill:#E6AF78;" d="M411.91,195.037c-9.749-4.655-15.695-12.489-18.918-18.091c-0.441-0.767-1.024-1.394-1.655-1.945
	c-0.172-0.151-0.355-0.282-0.538-0.416c-0.543-0.394-1.128-0.713-1.744-0.947c-0.156-0.059-0.3-0.145-0.461-0.193
	c-0.745-0.226-1.529-0.313-2.315-0.292c-1.006,0.028-2.026,0.222-2.996,0.695l-0.004,0.001c-1.759,0.854-3.59,1.681-5.482,2.48
	c-7.566,3.196-16.096,5.955-24.852,8.317c-4.379,1.181-8.814,2.264-13.213,3.253c-19.797,4.452-38.875,7.012-48.837,8.174
	c-3.999,0.467-6.851,4.034-6.486,8.043l4.7,51.697c0.794,8.741,5.862,16.523,13.534,20.786l34.538,19.187
	c3.161,1.756,6.611,2.616,10.097,2.985l-12.224-30.558l-3.723-44.665c-0.361-4.331,2.566-8.193,6.824-9.068
	c14.148-2.912,28.911-6.688,42.194-11.591c5.158,5.641,11.901,11.197,20.57,15.325c3.409,1.624,5.549,2.29,13.244,2.994
	l1.721-18.932C416.156,199.282,414.625,196.333,411.91,195.037z"/>
<path d="M457.991,331.481l-56.005-23.311c14.16-2.967,27.223-7.158,38.267-12.321c6.366-2.976,10.447-9.402,10.396-16.373
	c-0.41-55.571-6.503-94.598-19.175-122.821c-16.099-35.858-43.49-54.04-81.412-54.04s-65.314,18.182-81.412,54.039
	c-12.672,28.223-18.764,67.252-19.175,122.821c-0.051,6.971,4.03,13.399,10.397,16.373c11.045,5.163,24.108,9.353,38.267,12.321
	l-56.005,23.313c-6.837,2.845-11.253,9.468-11.253,16.872c0,10.078,8.198,18.277,18.277,18.277h201.81
	c10.078,0,18.277-8.198,18.277-18.277C469.244,340.95,464.828,334.326,457.991,331.481z M359.014,288.241
	c-5.603,3.114-12.295,3.115-17.903,0l-34.435-19.131c-5.337-2.965-8.853-8.364-9.405-14.444l-4.632-50.943
	c18.459-2.16,64.401-8.674,93.509-22.592c3.796,6.477,10.566,15.182,21.519,20.602l-4.812,52.934
	c-0.553,6.08-4.068,11.479-9.405,14.444L359.014,288.241z M325.018,300.181v-2.539l8.306,4.614
	c5.241,2.912,10.988,4.366,16.738,4.366c5.747,0,11.498-1.456,16.738-4.366l8.306-4.614v2.544c0,4.418,1.361,8.591,3.753,12.058
	c-7.394,8.093-17.778,12.699-28.797,12.699c-11.019,0-21.405-4.608-28.798-12.701C323.657,308.774,325.018,304.6,325.018,300.181z
	 M265.509,279.593c0.393-53.269,6.039-90.248,17.769-116.373c13.466-29.993,35.312-44.573,66.786-44.573s53.32,14.58,66.786,44.573
	c11.73,26.125,17.376,63.103,17.769,116.373c0.005,0.721-0.447,1.401-1.151,1.731c-11.857,5.541-26.432,9.873-42.325,12.597v-5.185
	l10.097-5.61c9.978-5.544,16.553-15.64,17.587-27.008l5.346-58.803c0.337-3.705-1.92-7.155-5.449-8.331
	c-15.629-5.21-21.336-21.258-21.378-21.378c-0.77-2.307-2.543-4.14-4.824-4.984c-2.282-0.844-4.821-0.606-6.906,0.645
	c-31.094,18.658-101.688,25.275-102.397,25.339c-4.409,0.402-7.659,4.301-7.258,8.709l5.346,58.802
	c1.034,11.368,7.607,21.464,17.587,27.009l10.096,5.608v5.185c-15.894-2.724-30.468-7.056-42.325-12.597
	C265.955,280.993,265.502,280.314,265.509,279.593z M450.967,350.597H249.158c-1.237,0-2.244-1.006-2.244-2.244
	c0-0.909,0.542-1.721,1.381-2.07l59.711-24.855c10.494,12.425,25.783,19.549,42.057,19.549c16.275,0,31.56-7.123,42.056-19.549
	l59.711,24.854c0.839,0.35,1.381,1.162,1.381,2.072C453.211,349.591,452.205,350.597,450.967,350.597z"/>
<path d="M469.779,68.409H42.221C18.941,68.409,0,87.35,0,110.63V401.37c0,23.28,18.941,42.221,42.221,42.221h427.557
	c23.28,0,42.221-18.941,42.221-42.221V110.63C512,87.35,493.059,68.409,469.779,68.409z M495.967,401.37
	c0,14.44-11.748,26.188-26.188,26.188H42.221c-14.44,0-26.188-11.748-26.188-26.188V110.63c0-14.44,11.748-26.188,26.188-26.188
	h427.557c14.44,0,26.188,11.748,26.188,26.188V401.37z"/>
<path d="M461.228,384.802H142.982c-3.354-9.93-12.752-17.102-23.8-17.102s-20.446,7.172-23.8,17.102H50.772
	c-4.427,0-8.017,3.589-8.017,8.017c0,4.427,3.589,8.017,8.017,8.017h44.609c3.354,9.93,12.752,17.102,23.8,17.102
	s20.446-7.172,23.8-17.102h318.246c4.427,0,8.017-3.589,8.017-8.017C469.244,388.391,465.655,384.802,461.228,384.802z
	 M119.182,401.904c-5.001,0-9.07-4.062-9.085-9.06c0-0.009,0.001-0.017,0.001-0.026s-0.001-0.017-0.001-0.026
	c0.014-4.998,4.083-9.06,9.085-9.06c5.01,0,9.086,4.076,9.086,9.086S124.192,401.904,119.182,401.904z"/>
<path d="M98.572,237.657c2.569,1.804,4.041,4.335,4.041,6.946v2.848c0,9.136,7.432,16.568,16.568,16.568h0.534v0.534
	c0,4.427,3.589,8.017,8.017,8.017c4.427,0,8.017-3.589,8.017-8.017v-0.536h0.534c9.136,0,16.568-7.432,16.568-16.568v-2.893
	c0-2.607,1.366-5.047,3.749-6.696c13.716-9.491,21.905-25.086,21.905-41.718c0-15.357-6.841-29.724-18.77-39.418
	c-11.927-9.694-27.55-13.418-42.862-10.222c-19.948,4.167-35.68,20.526-39.147,40.709C74.343,206.92,82.329,226.248,98.572,237.657z
	 M93.529,189.926c2.326-13.539,13.274-24.941,26.623-27.728c2.576-0.538,5.137-0.804,7.658-0.804c7.968,0,15.521,2.657,21.814,7.772
	c8.165,6.637,12.848,16.468,12.848,26.976c0,11.37-5.605,22.036-14.994,28.533c-6.674,4.618-10.659,12.05-10.659,19.88v2.893
	c0,0.295-0.239,0.534-0.534,0.534h-17.102c-0.295,0-0.534-0.239-0.534-0.534v-2.848c0-7.906-3.958-15.219-10.86-20.066
	C96.668,216.726,91.204,203.464,93.529,189.926z"/>
<path d="M76.426,306.772H179.04c18.566,0,33.67-15.105,33.67-33.67v-0.534h17.637c2.888,0,5.553-1.554,6.976-4.067
	c1.424-2.514,1.384-5.598-0.102-8.074l-24.511-40.851v-74.74c0-18.566-15.105-33.67-33.67-33.67H76.426
	c-18.566,0-33.67,15.105-33.67,33.67v128.267C42.756,291.668,57.86,306.772,76.426,306.772z M58.789,144.835
	c0-9.725,7.912-17.637,17.637-17.637H179.04c9.725,0,17.637,7.912,17.637,17.637v76.96c0,1.453,0.395,2.879,1.143,4.125
	l18.368,30.614h-11.494c-4.427,0-8.017,3.589-8.017,8.017v8.551c0,9.725-7.912,17.637-17.637,17.637H76.426
	c-9.725,0-17.637-7.912-17.637-17.637V144.835z"/>
<path d="M127.733,204.159c4.427,0,8.017-3.589,8.017-8.017V179.04c0-4.427-3.589-8.017-8.017-8.017
	c-4.427,0-8.017,3.589-8.017,8.017v17.102C119.716,200.569,123.305,204.159,127.733,204.159z"/>
<path d="M127.818,213.779h-0.086c-4.427,0-7.974,3.589-7.974,8.017s3.632,8.017,8.059,8.017c4.427,0,8.017-3.589,8.017-8.017
	S132.246,213.779,127.818,213.779z"/>
<g>
</g>
<g>
</g>
<g>
</g>
<g>
</g>
<g>
</g>
<g>
</g>
<g>
</g>
<g>
</g>
<g>
</g>
<g>
</g>
<g>
</g>
<g>
</g>
<g>
</g>
<g>
</g>
<g>
</g>
</svg>
