<?xml version="1.0" encoding="iso-8859-1"?>
<!-- Generator: Adobe Illustrator 19.0.0, SVG Export Plug-In . SVG Version: 6.00 Build 0)  -->
<svg version="1.1" id="Layer_1" xmlns="http://www.w3.org/2000/svg" xmlns:xlink="http://www.w3.org/1999/xlink" x="0px" y="0px"
	 viewBox="0 0 512 512" style="enable-background:new 0 0 512 512;" xml:space="preserve">
<rect x="230.347" y="409.921" style="fill:#464655;" width="51.307" height="42.756"/>
<circle style="fill:#707487;" cx="256" cy="213.244" r="205.228"/>
<circle style="fill:#AFB9D2;" cx="256" cy="213.244" r="85.511"/>
<circle style="fill:#464655;" cx="256" cy="213.244" r="59.858"/>
<circle style="fill:#5B5D6E;" cx="256" cy="213.244" r="25.653"/>
<circle style="fill:#9BF57D;" cx="256" cy="67.875" r="17.102"/>
<path style="fill:#707487;" d="M358.614,503.983H153.386c-4.722,0-8.551-3.829-8.551-8.551v-18.794c0-4.008,2.783-7.478,6.697-8.347
	l70.264-15.614h68.409l70.264,15.614c3.912,0.869,6.697,4.34,6.697,8.347v18.794C367.165,500.155,363.336,503.983,358.614,503.983z"
	/>
<g>
	<path style="fill:#5B5D6E;" d="M341.511,384.267c-113.343,0-205.228-91.883-205.228-205.228
		c0-69.882,34.956-131.569,88.307-168.631C126.157,25.527,50.772,110.581,50.772,213.244c0,113.343,91.883,205.228,205.228,205.228
		c43.462,0,83.74-13.547,116.921-36.597C362.681,383.447,352.192,384.267,341.511,384.267z"/>
	<path style="fill:#5B5D6E;" d="M230.347,495.432v-18.794c0-4.008,2.034-7.478,4.893-8.348l51.346-15.614h-64.791l-70.264,15.614
		c-3.912,0.869-6.697,4.34-6.697,8.348v18.794c0,4.722,3.829,8.551,8.551,8.551h83.209
		C233.144,503.983,230.347,500.155,230.347,495.432z"/>
</g>
<path d="M469.244,213.244C469.244,95.661,373.584,0,256,0S42.756,95.661,42.756,213.244c0,106.128,77.933,194.385,179.574,210.577
	v22.283l-72.192,14.439c-7.717,1.542-13.319,8.375-13.319,16.246v18.643c0,9.136,7.432,16.568,16.568,16.568h205.228
	c9.136,0,16.568-7.432,16.568-16.568v-18.644c0-7.87-5.602-14.703-13.318-16.246l-72.193-14.439v-22.283
	C391.311,407.629,469.244,319.373,469.244,213.244z M58.789,213.244c0-108.743,88.468-197.211,197.211-197.211
	s197.211,88.468,197.211,197.211S364.743,410.455,256,410.455S58.789,321.987,58.789,213.244z M359.148,476.789v18.644
	c0,0.295-0.239,0.534-0.534,0.534H153.386c-0.295,0-0.534-0.239-0.534-0.534v-18.644c0-0.253,0.181-0.474,0.43-0.524l77.859-15.572
	h49.72l77.859,15.572C358.968,476.315,359.148,476.535,359.148,476.789z M273.637,444.66h-35.273v-18.906
	c5.818,0.479,11.698,0.734,17.637,0.734c5.939,0,11.819-0.257,17.637-0.734V444.66z"/>
<path d="M349.528,213.244c0-51.572-41.956-93.528-93.528-93.528s-93.528,41.956-93.528,93.528s41.956,93.528,93.528,93.528
	S349.528,264.816,349.528,213.244z M178.505,213.244c0-42.731,34.764-77.495,77.495-77.495s77.495,34.764,77.495,77.495
	S298.731,290.739,256,290.739S178.505,255.975,178.505,213.244z"/>
<path d="M315.324,213.244c0-32.711-26.612-59.324-59.324-59.324s-59.324,26.612-59.324,59.324s26.612,59.324,59.324,59.324
	S315.324,245.956,315.324,213.244z M212.71,213.244c0-23.871,19.42-43.29,43.29-43.29s43.29,19.42,43.29,43.29
	s-19.42,43.29-43.29,43.29S212.71,237.115,212.71,213.244z"/>
<path d="M256,92.994c13.851,0,25.119-11.268,25.119-25.119S269.851,42.756,256,42.756s-25.119,11.268-25.119,25.119
	S242.149,92.994,256,92.994z M256,58.789c5.01,0,9.086,4.076,9.086,9.086S261.01,76.96,256,76.96c-5.01,0-9.086-4.076-9.086-9.086
	S250.99,58.789,256,58.789z"/>
<path d="M265.086,213.244c0,4.427,3.589,8.017,8.017,8.017c4.427,0,8.017-3.589,8.017-8.017c0-13.851-11.268-25.119-25.119-25.119
	c-4.427,0-8.017,3.589-8.017,8.017s3.589,8.017,8.017,8.017C261.01,204.159,265.086,208.234,265.086,213.244z"/>
<g>
</g>
<g>
</g>
<g>
</g>
<g>
</g>
<g>
</g>
<g>
</g>
<g>
</g>
<g>
</g>
<g>
</g>
<g>
</g>
<g>
</g>
<g>
</g>
<g>
</g>
<g>
</g>
<g>
</g>
</svg>
