<?xml version="1.0" encoding="iso-8859-1"?>
<!-- Generator: Adobe Illustrator 19.0.0, SVG Export Plug-In . SVG Version: 6.00 Build 0)  -->
<svg version="1.1" id="Layer_1" xmlns="http://www.w3.org/2000/svg" xmlns:xlink="http://www.w3.org/1999/xlink" x="0px" y="0px"
	 viewBox="0 0 512.001 512.001" style="enable-background:new 0 0 512.001 512.001;" xml:space="preserve">
<path style="fill:#D5DCED;" d="M475.845,356.127c-10.86,13.789-28.609,21.888-48.089,19.006
	c-22.467-3.323-40.481-21.967-43.125-44.525c-3.647-31.11,20.565-57.511,50.943-57.511c16.429,0,31.024,7.742,40.406,19.759
	c2.928,3.75,7.443,5.895,12.199,5.895h0.069c8.69,0,15.734-7.044,15.734-15.734V153.38c0-14.168-11.485-25.654-25.654-25.654
	H365.794c-8.69,0-15.734-7.044-15.734-15.734v-0.061c0-4.837,2.267-9.352,6.067-12.345c13.789-10.86,21.888-28.609,19.006-48.089
	c-3.323-22.467-21.967-40.481-44.525-43.125c-31.11-3.647-57.511,20.565-57.511,50.943c0,16.429,7.742,31.024,19.759,40.406
	c3.75,2.928,5.895,7.443,5.895,12.2v0.069c0,8.69-7.044,15.734-15.734,15.734H153.379c-14.168,0-25.654,11.485-25.654,25.654
	v129.638c0,8.69-7.044,15.734-15.734,15.734h-0.061c-4.837,0-9.352-2.268-12.345-6.067c-10.86-13.789-28.609-21.888-48.089-19.006
	c-22.467,3.323-40.481,21.967-43.125,44.525c-3.647,31.11,20.565,57.511,50.943,57.511c16.429,0,31.024-7.742,40.406-19.759
	c2.928-3.75,7.443-5.895,12.2-5.895h0.069c8.69,0,15.734,7.044,15.734,15.734v112.535c0,14.168,11.485,25.654,25.654,25.654h129.638
	c8.69,0,15.734-7.044,15.734-15.734v-0.061c0-4.837-2.267-9.352-6.067-12.345c-13.789-10.86-21.888-28.609-19.006-48.089
	c3.323-22.467,21.967-40.481,44.525-43.125c31.11-3.647,57.511,20.565,57.511,50.943c0,16.429-7.742,31.024-19.759,40.406
	c-3.75,2.928-5.895,7.443-5.895,12.201v0.069c0,8.69,7.044,15.734,15.734,15.734h112.535c14.168,0,25.654-11.485,25.654-25.654
	V365.791c0-8.69-7.044-15.734-15.734-15.734h-0.061C483.352,350.06,478.836,352.327,475.845,356.127z"/>
<path d="M435.573,281.115c13.389,0,25.813,6.078,34.088,16.676c4.455,5.705,11.204,8.978,18.588,8.978
	c13.096,0,23.751-10.655,23.751-23.751V153.38c0-18.566-15.105-33.671-33.671-33.671H365.795c-4.255,0-7.718-3.462-7.718-7.778
	c0-2.336,1.097-4.54,3.011-6.046c16.935-13.338,25.15-34.108,21.977-55.561c-3.828-25.871-25.496-46.862-51.523-49.914
	c-16.944-1.986-33.913,3.324-46.554,14.569c-12.651,11.255-19.907,27.414-19.907,44.336c0,18.361,8.326,35.392,22.843,46.725
	c1.787,1.395,2.811,3.539,2.811,5.951c0,4.255-3.462,7.718-7.718,7.718H153.379c-18.566,0-33.671,15.105-33.671,33.671v129.638
	c0,4.255-3.462,7.718-7.778,7.718c-2.336,0-4.54-1.097-6.046-3.011c-13.338-16.934-34.106-25.149-55.561-21.977
	c-25.871,3.828-46.862,25.496-49.914,51.522c-1.986,16.945,3.324,33.913,14.569,46.554c11.255,12.651,27.414,19.907,44.336,19.907
	c18.361,0,35.392-8.326,46.725-22.843c1.395-1.787,3.539-2.811,5.951-2.811c4.255,0,7.718,3.462,7.718,7.718v112.535
	c0,18.566,15.105,33.671,33.671,33.671h129.638c13.096,0,23.751-10.655,23.751-23.812c0-7.281-3.325-14.075-9.124-18.642
	c-12.363-9.737-18.359-24.922-16.036-40.619c2.786-18.832,18.568-34.113,37.527-36.336c12.585-1.479,24.671,2.297,34.03,10.624
	c9.234,8.215,14.531,20.009,14.531,32.357c0,13.389-6.078,25.813-16.676,34.088c-5.706,4.455-8.978,11.204-8.978,18.588
	c0,13.096,10.655,23.751,23.751,23.751h112.535C496.895,512,512,496.895,512,478.329V365.794c0-13.096-10.655-23.751-23.812-23.751
	c-7.281,0-14.075,3.325-18.642,9.124l0,0c-9.737,12.363-24.923,18.363-40.619,16.036c-18.832-2.786-34.113-18.568-36.336-37.527
	c-1.475-12.584,2.297-24.671,10.624-34.03C411.431,286.411,423.225,281.115,435.573,281.115z M391.237,284.988
	c-11.246,12.641-16.556,29.61-14.569,46.554c3.052,26.027,24.044,47.695,49.914,51.523c21.452,3.17,42.223-5.042,55.561-21.977l0,0
	c1.507-1.913,3.71-3.01,6.107-3.01c4.255,0,7.718,3.462,7.718,7.718v112.535c0,9.725-7.912,17.637-17.637,17.637H365.795
	c-4.255,0-7.718-3.462-7.718-7.787c0-2.342,1.024-4.486,2.811-5.881c14.517-11.334,22.843-28.365,22.843-46.725
	c0-16.922-7.256-33.082-19.907-44.336c-10.898-9.697-25.01-14.981-39.554-14.981c-2.326,0-4.664,0.135-7,0.408
	c-26.027,3.052-47.695,24.044-51.522,49.914c-3.174,21.453,5.042,42.223,21.978,55.561c1.913,1.507,3.01,3.71,3.01,6.107
	c0,4.255-3.462,7.718-7.718,7.718H153.38c-9.725,0-17.637-7.912-17.637-17.637V365.793c0-13.096-10.655-23.751-23.821-23.751
	c-7.315,0-14.064,3.272-18.519,8.978c-8.274,10.598-20.698,16.676-34.088,16.676c-12.348,0-24.142-5.296-32.357-14.531
	c-8.327-9.359-12.099-21.446-10.624-34.03c2.222-18.959,17.503-34.742,36.336-37.527c15.697-2.322,30.881,3.674,40.619,16.036
	c4.566,5.799,11.361,9.124,18.703,9.124c13.096,0,23.751-10.655,23.751-23.751V153.379c0-9.725,7.912-17.637,17.637-17.637h129.638
	c13.096,0,23.751-10.655,23.751-23.821c0-7.315-3.273-14.064-8.978-18.519c-10.598-8.274-16.676-20.698-16.676-34.088
	c0-12.348,5.296-24.142,14.531-32.357c9.36-8.327,21.447-12.097,34.03-10.624c18.959,2.222,34.742,17.503,37.527,36.336
	c2.322,15.696-3.673,30.881-16.036,40.619c-5.799,4.566-9.124,11.361-9.124,18.703c0,13.096,10.655,23.751,23.751,23.751H478.33
	c9.725,0,17.637,7.912,17.637,17.637v129.638c0,4.255-3.462,7.718-7.787,7.718c-2.342,0-4.486-1.024-5.881-2.811
	c-11.334-14.517-28.365-22.843-46.725-22.843C418.651,265.081,402.491,272.337,391.237,284.988z"/>
<path d="M350.06,196.671h-25.654c-4.427,0-8.017,3.589-8.017,8.017c0,4.427,3.589,8.017,8.017,8.017h5.727l-31.381,87.866
	l-31.381-87.866h5.727c4.427,0,8.017-3.589,8.017-8.017c0-4.427-3.589-8.017-8.017-8.017h-25.654c-4.427,0-8.017,3.589-8.017,8.017
	c0,4.427,3.589,8.017,8.017,8.017h2.902l9.963,27.899l-21.417,59.967l-31.381-87.866h5.727c4.427,0,8.017-3.589,8.017-8.017
	c0-4.427-3.589-8.017-8.017-8.017h-25.654c-4.427,0-8.017,3.589-8.017,8.017c0,4.427,3.589,8.017,8.017,8.017h2.902l36.794,103.022
	c1.775,4.972,6.333,8.184,11.613,8.184s9.837-3.212,11.613-8.184l18.317-51.288l18.317,51.288c1.775,4.972,6.333,8.184,11.613,8.184
	s9.837-3.212,11.613-8.184l36.794-103.022h2.902c4.427,0,8.017-3.589,8.017-8.017C358.079,200.26,354.488,196.671,350.06,196.671z"
	/>
<g>
</g>
<g>
</g>
<g>
</g>
<g>
</g>
<g>
</g>
<g>
</g>
<g>
</g>
<g>
</g>
<g>
</g>
<g>
</g>
<g>
</g>
<g>
</g>
<g>
</g>
<g>
</g>
<g>
</g>
</svg>
