<?xml version="1.0" encoding="iso-8859-1"?>
<!-- Generator: Adobe Illustrator 19.0.0, SVG Export Plug-In . SVG Version: 6.00 Build 0)  -->
<svg version="1.1" id="Layer_1" xmlns="http://www.w3.org/2000/svg" xmlns:xlink="http://www.w3.org/1999/xlink" x="0px" y="0px"
	 viewBox="0 0 512 512" style="enable-background:new 0 0 512 512;" xml:space="preserve">
<path style="fill:#E4EAF8;" d="M102.079,25.119c0-9.446,7.656-17.102,17.102-17.102h256.534l85.511,85.511v393.353
	c0,9.446-7.656,17.102-17.102,17.102H119.182c-9.446,0-17.102-7.656-17.102-17.102V25.119z"/>
<path style="fill:#AFB9D2;" d="M367.165,264.551H196.142c-9.446,0-17.102-7.656-17.102-17.102v-94.063
	c0-9.446,7.656-17.102,17.102-17.102h171.023c9.446,0,17.102,7.656,17.102,17.102v94.063
	C384.267,256.895,376.611,264.551,367.165,264.551z"/>
<path style="fill:#9BF57D;" d="M247.449,264.551h-51.307c-9.446,0-17.102-7.656-17.102-17.102v-94.063
	c0-9.446,7.656-17.102,17.102-17.102h51.307V264.551z"/>
<path style="fill:#7DC86E;" d="M384.267,179.04H179.04v-25.653c0-9.446,7.656-17.102,17.102-17.102h171.023
	c9.446,0,17.102,7.656,17.102,17.102V179.04z"/>
<g>
	<path style="fill:#D5DCED;" d="M298.756,469.779H102.079V298.756h196.676c23.613,0,42.756,19.143,42.756,42.756v85.512
		C341.511,450.636,322.369,469.779,298.756,469.779z"/>
	<path style="fill:#D5DCED;" d="M375.716,8.017v68.409c0,9.445,7.658,17.102,17.102,17.102h68.409L375.716,8.017z"/>
</g>
<path style="fill:#9BF57D;" d="M298.756,444.125H67.875c-9.446,0-17.102-7.656-17.102-17.102v-85.512
	c0-9.446,7.656-17.102,17.102-17.102h230.881c9.446,0,17.102,7.656,17.102,17.102v85.512
	C315.858,436.469,308.202,444.125,298.756,444.125z"/>
<path d="M466.896,87.859L381.384,2.347C379.882,0.844,377.842,0,375.716,0H119.182c-13.851,0-25.119,11.268-25.119,25.119v291.273
	H67.875c-13.851,0-25.119,11.268-25.119,25.119v85.512c0,13.851,11.268,25.119,25.119,25.119h26.188v34.739
	c0,13.851,11.268,25.119,25.119,25.119h324.944c13.851,0,25.119-11.268,25.119-25.119V93.528
	C469.244,91.401,468.4,89.363,466.896,87.859z M383.733,27.37l58.141,58.141h-49.056c-5.01,0-9.086-4.076-9.086-9.086V27.37z
	 M58.789,427.023v-85.512c0-5.01,4.076-9.086,9.086-9.086h230.881c5.01,0,9.086,4.076,9.086,9.086v85.512
	c0,5.01-4.076,9.086-9.086,9.086H67.875C62.865,436.109,58.789,432.033,58.789,427.023z M444.125,495.967H119.182
	c-5.01,0-9.086-4.076-9.086-9.086v-34.739h188.66c13.851,0,25.119-11.268,25.119-25.119v-85.512
	c0-13.851-11.268-25.119-25.119-25.119h-188.66V25.119c0-5.01,4.076-9.086,9.086-9.086h248.518v60.392
	c0,13.851,11.268,25.119,25.119,25.119h60.392v385.336C453.211,491.891,449.135,495.967,444.125,495.967z"/>
<path d="M110.63,395.604l19.985,19.985c1.565,1.565,3.617,2.348,5.668,2.348c2.051,0,4.104-0.782,5.668-2.348
	c3.131-3.131,3.131-8.207,0-11.337l-19.985-19.985l19.985-19.985c3.131-3.131,3.131-8.207,0-11.337
	c-3.131-3.131-8.207-3.131-11.337,0l-19.985,19.985l-19.985-19.985c-3.131-3.131-8.207-3.131-11.337,0
	c-3.131,3.131-3.131,8.207,0,11.337l19.985,19.985l-19.985,19.985c-3.131,3.131-3.131,8.207,0,11.337
	c1.565,1.566,3.617,2.348,5.668,2.348c2.051,0,4.103-0.782,5.668-2.348L110.63,395.604z"/>
<path d="M170.489,417.937h42.756c4.427,0,8.017-3.589,8.017-8.017c0-4.427-3.589-8.017-8.017-8.017h-34.739v-43.29
	c0-4.427-3.589-8.017-8.017-8.017s-8.017,3.589-8.017,8.017v51.307C162.472,414.348,166.061,417.937,170.489,417.937z"/>
<path d="M258.331,392.044c9.377,2.344,14.487,4.433,15.215,6.216c-1.252,1.285-5.961,3.644-13.27,3.644
	c-8.088,0-13.28-2.791-14.145-3.991c-1.891-3.959-6.622-5.667-10.612-3.813c-4.015,1.866-5.757,6.634-3.891,10.648
	c4.234,9.111,17.439,13.189,28.647,13.189c16.758,0,29.395-8.271,29.395-19.24c0-15.345-16.52-19.474-27.45-22.207
	c-9.377-2.344-14.487-4.433-15.215-6.216c1.252-1.285,5.961-3.644,13.27-3.644c8.088,0,13.28,2.791,14.145,3.991
	c1.891,3.96,6.622,5.668,10.612,3.813c4.015-1.866,5.757-6.634,3.891-10.648c-4.234-9.111-17.439-13.189-28.647-13.189
	c-16.758,0-29.395,8.271-29.395,19.24C230.881,385.182,247.401,389.311,258.331,392.044z"/>
<path d="M367.165,128.267H196.142c-13.851,0-25.119,11.268-25.119,25.119v94.063c0,13.851,11.268,25.119,25.119,25.119h171.023
	c13.851,0,25.119-11.268,25.119-25.119v-94.063C392.284,139.536,381.016,128.267,367.165,128.267z M255.466,213.779v-26.722h52.376
	v26.722H255.466z M307.841,229.812v26.722h-52.376v-26.722H307.841z M187.056,187.056h52.376v26.722h-52.376V187.056z
	 M255.466,171.023v-26.722h52.376v26.722H255.466z M323.875,187.056h52.376v26.722h-52.376V187.056z M376.251,153.386v17.637
	h-52.376v-26.722h43.29C372.175,144.301,376.251,148.376,376.251,153.386z M196.142,144.301h43.29v26.722h-52.376v-17.637
	C187.056,148.376,191.132,144.301,196.142,144.301z M187.056,247.449v-17.637h52.376v26.722h-43.29
	C191.132,256.534,187.056,252.459,187.056,247.449z M367.165,256.534h-43.29v-26.722h52.376v17.637
	C376.251,252.459,372.175,256.534,367.165,256.534z"/>
<g>
</g>
<g>
</g>
<g>
</g>
<g>
</g>
<g>
</g>
<g>
</g>
<g>
</g>
<g>
</g>
<g>
</g>
<g>
</g>
<g>
</g>
<g>
</g>
<g>
</g>
<g>
</g>
<g>
</g>
</svg>
