<?xml version="1.0" encoding="iso-8859-1"?>
<!-- Generator: Adobe Illustrator 19.0.0, SVG Export Plug-In . SVG Version: 6.00 Build 0)  -->
<svg version="1.1" id="Capa_1" xmlns="http://www.w3.org/2000/svg" xmlns:xlink="http://www.w3.org/1999/xlink" x="0px" y="0px"
	 viewBox="0 0 511.999 511.999" style="enable-background:new 0 0 511.999 511.999;" xml:space="preserve">
<path style="fill:#F2EBFF;" d="M168.956,361.999h14.981v-26.783c0-13.074,8.416-24.599,20.813-28.752
	c25.957-8.696,44.661-33.212,44.661-62.097c0-36.16-29.314-65.474-65.474-65.474h9.771h0.888c12.782,0,23.144-10.362,23.144-23.144
	l0,0c0-4.729-1.449-9.345-4.152-13.226l-8.527-12.245c-10.594-15.211-27.959-24.279-46.497-24.279l0,0h-0.127h-12.25
	c-25.543,0-46.25,20.707-46.25,46.25v209.75h54.5H168.956z"/>
<rect x="99.94" y="361.999" style="fill:#FFCC9C;" width="42" height="99.87"/>
<path style="fill:#AB81FF;" d="M180.062,501.999L180.062,501.999H99.937v-40.125h40
	C162.098,461.874,180.062,479.839,180.062,501.999L180.062,501.999z"/>
<g>
	<path style="fill:#FFCC9C;" d="M158.438,9.999L158.438,9.999c-24.301,0-44,19.699-44,44v8c0,24.301,19.699,44,44,44l0,0
		c24.3,0,44-19.699,44-44v-8C202.438,29.698,182.738,9.999,158.438,9.999z"/>
	<rect x="141.941" y="361.999" style="fill:#FFCC9C;" width="42" height="99.87"/>
</g>
<path style="fill:#AB81FF;" d="M222.062,501.999L222.062,501.999h-80.125v-40.125h40
	C204.098,461.874,222.062,479.839,222.062,501.999L222.062,501.999z"/>
<path style="fill:#FE61AD;" d="M377.31,179.451c-9.944,0-18.912,4.285-25.246,11.151c-6.335-6.866-15.302-11.151-25.246-11.151
	c-19.194,0-34.754,15.959-34.754,35.646c0,27.577,60,73.449,60,73.449s60-45.873,60-73.449
	C412.063,195.411,396.504,179.451,377.31,179.451z"/>
<path d="M107.01,269.068c1.86-1.859,2.93-4.439,2.93-7.069s-1.069-5.21-2.93-7.07s-4.44-2.93-7.07-2.93s-5.21,1.069-7.08,2.93
	c-1.859,1.86-2.92,4.44-2.92,7.07s1.061,5.21,2.92,7.069c1.87,1.86,4.44,2.931,7.08,2.931
	C102.569,271.999,105.149,270.929,107.01,269.068z"/>
<path d="M137.438,157.999c-5.522,0-10,4.478-10,10v39.858c0,24.107,13.151,46.246,34.322,57.774l19.205,10.46
	c1.52,0.827,3.158,1.22,4.774,1.22c3.543,0,6.977-1.888,8.791-5.219c2.642-4.851,0.851-10.924-3.999-13.565l-19.206-10.46
	c-14.734-8.023-23.888-23.432-23.888-40.21v-39.858C147.438,162.477,142.96,157.999,137.438,157.999z"/>
<path d="M219.357,177.747c5.208-5.856,8.381-13.562,8.381-21.997c0-6.807-2.056-13.356-5.945-18.94l-8.527-12.245
	c-5.774-8.291-13.268-15.03-21.815-19.878c12.753-9.886,20.986-25.339,20.986-42.687v-8c0-29.775-24.225-54-54-54s-54,24.225-54,54
	v8c0,15.626,6.679,29.717,17.324,39.586c-18.816,9.108-31.824,28.395-31.824,50.664v70.749c0,5.522,4.478,10,10,10s10-4.478,10-10
	v-70.75c0-19.988,16.262-36.25,36.25-36.25h12.25c0.028,0,0.056-0.002,0.084-0.002c0.014,0,0.028,0.002,0.042,0.002
	c15.257,0,29.57,7.475,38.29,19.995l8.527,12.246c1.542,2.214,2.357,4.811,2.357,7.51c0,7.247-5.896,13.144-13.144,13.144h-0.888
	c-0.896,0-1.761,0.129-2.588,0.351c-2.366-0.225-4.759-0.351-7.183-0.351c-5.522,0-10,4.478-10,10s4.478,10,10,10
	c30.588,0,55.474,24.886,55.474,55.474c0,23.889-15.206,45.033-37.837,52.615c-16.53,5.537-27.637,20.902-27.637,38.234v16.782h-64
	v-54.5c0-5.522-4.478-10-10-10s-10,4.478-10,10v64.5v140c0,5.522,4.478,10,10,10H222.06c5.522,0,10-4.478,10-10
	c0-23.503-16.264-43.27-38.125-48.663v-91.337v-26.782c0-8.724,5.622-16.467,13.989-19.27c30.794-10.317,51.484-39.083,51.484-71.58
	C259.41,215.546,243.167,190.457,219.357,177.747z M124.437,53.999c0-18.748,15.252-34,34-34s34,15.252,34,34v8
	c0,18.748-15.252,34-34,34s-34-15.252-34-34V53.999z M173.938,371.999v79.875h-22v-79.875H173.938z M131.938,371.999v79.875h-22
	v-79.875H131.938z M109.937,471.874h22v20.125h-22V471.874z M210.355,491.999h-30.294h-28.125v-20.125h30
	C195.045,471.874,206.224,480.289,210.355,491.999z"/>
<path d="M377.31,169.451c-9.041,0-17.86,2.834-25.246,7.969c-7.386-5.135-16.205-7.969-25.246-7.969
	c-24.678,0-44.754,20.477-44.754,45.646c0,14.396,10.777,32.11,32.949,54.157c15.285,15.198,30.344,26.752,30.978,27.236
	c1.792,1.37,3.933,2.056,6.073,2.056s4.281-0.686,6.073-2.056c0.634-0.484,15.692-12.038,30.978-27.236
	c22.172-22.047,32.949-39.762,32.949-54.157C422.063,189.928,401.987,169.451,377.31,169.451z M352.061,275.806
	c-22.511-18.307-49.997-46.415-49.997-60.708c0-14.142,11.104-25.646,24.754-25.646c6.822,0,13.178,2.817,17.896,7.932
	c1.894,2.053,4.559,3.22,7.351,3.22s5.457-1.167,7.351-3.22c4.718-5.114,11.073-7.932,17.896-7.932
	c13.649,0,24.754,11.505,24.754,25.646C402.063,229.366,374.572,257.484,352.061,275.806z"/>
<g>
</g>
<g>
</g>
<g>
</g>
<g>
</g>
<g>
</g>
<g>
</g>
<g>
</g>
<g>
</g>
<g>
</g>
<g>
</g>
<g>
</g>
<g>
</g>
<g>
</g>
<g>
</g>
<g>
</g>
</svg>
