<?xml version="1.0" encoding="iso-8859-1"?>
<!-- Generator: Adobe Illustrator 19.0.0, SVG Export Plug-In . SVG Version: 6.00 Build 0)  -->
<svg version="1.1" id="Capa_1" xmlns="http://www.w3.org/2000/svg" xmlns:xlink="http://www.w3.org/1999/xlink" x="0px" y="0px"
	 viewBox="0 0 512 512" style="enable-background:new 0 0 512 512;" xml:space="preserve">
<path style="fill:#FFEDDC;" d="M219.747,273.343v97.325V502h-38.831c-59.462,0-107.666-48.203-107.666-107.666v-82.129
	c0-28.555,11.344-55.94,31.535-76.132l0,0L219.747,273.343z"/>
<path style="fill:#DAC7FF;" d="M238.247,502h-56.499c-59.922,0-108.498-48.576-108.498-108.498v-22.834H209.58
	c15.832,0,28.667,12.835,28.667,28.667V502"/>
<g>
	<path style="fill:#FFEDDC;" d="M202.111,273.343h59.228l38.983-89.444c5.844-11.898,20.229-16.805,32.121-10.962
		c11.897,5.843,16.806,20.225,10.962,32.122l-45.574,102.863c-4.034,8.215-12.39,13.42-21.542,13.42H173.279
		c-13.255,0-24-10.745-24-24L202.111,273.343z"/>
	<circle style="fill:#FFEDDC;" cx="159.748" cy="167.988" r="86.499"/>
</g>
<path style="fill:#F2EBFF;" d="M263.724,76.552l55.397,95.951l111.472-64.358c7.793-4.499,10.463-14.464,5.964-22.257
	l-39.103-67.731c-4.499-7.793-14.464-10.463-22.257-5.964L263.724,76.552z"/>
<path style="fill:#FEBD80;" d="M246.203,107.086l4.441,7.692c4.117,7.13,1.674,16.247-5.456,20.364l0,0
	c-6.639,3.833-8.913,12.321-5.08,18.96l0,0c3.833,6.639,12.321,8.913,18.96,5.08l0,0c7.13-4.117,16.247-1.674,20.364,5.456
	l4.488,7.773c4.883,8.457,15.697,11.355,24.155,6.472l11.049-6.379l-55.397-95.951l-11.049,6.379
	C244.218,87.814,241.32,98.628,246.203,107.086z"/>
<path style="fill:#FFEDDC;" d="M350.289,416.002L350.289,416.002c-14.423,0-26.546,9.837-30.033,23.166H212.331
	c-17.351,0-31.417,14.066-31.417,31.417l0,0c0,17.351,14.066,31.417,31.417,31.417h132.905c0.883,0,1.687-0.046,2.446-0.117
	c0.861,0.072,1.728,0.117,2.607,0.117l0,0c17.146,0,31.045-13.899,31.045-31.045v-23.91
	C381.333,429.901,367.435,416.002,350.289,416.002z"/>
<path d="M136.876,170.872c0.809-0.111,1.264,0.125,1.701,0.519c4.11,3.684,10.432,3.342,14.121-0.771
	c3.687-4.112,3.341-10.435-0.771-14.121c-4.936-4.426-11.273-6.356-17.834-5.431c-5.83,0.819-11.377,3.877-15.619,8.61
	c-10.444,11.649-9.465,29.623,2.185,40.067c6.284,5.633,14.149,8.404,21.99,8.404c9.048,0,18.063-3.693,24.563-10.945
	c3.687-4.112,3.341-10.435-0.771-14.121c-4.111-3.685-10.433-3.343-14.121,0.771c-4.771,5.324-12.987,5.771-18.311,0.999
	c-3.438-3.083-3.727-8.388-0.644-11.826C134.432,171.837,135.745,171.031,136.876,170.872z"/>
<path d="M445.217,80.888l-39.103-67.731c-3.512-6.082-9.182-10.433-15.966-12.251c-6.786-1.816-13.87-0.884-19.952,2.627
	L258.724,67.892l-11.049,6.379c-12.141,7.01-16.957,21.89-11.749,34.512c-2.452-3.145-5.085-6.168-7.944-9.027
	c-20.052-20.052-46.804-29.411-73.116-28.091c-0.59-0.108-1.196-0.173-1.817-0.173c-13.008,0-23.591-10.583-23.591-23.592
	c0-9.304,7.569-16.872,16.875-16.872c5.537,0,11.497,2.723,11.498,8.703c0,5.522,4.478,10,10.001,9.999
	c5.522,0,9.999-4.479,9.999-10.001c-0.001-16.364-13.543-28.703-31.499-28.701c-20.332,0-36.873,16.541-36.873,36.871
	c0,12.158,5.009,23.165,13.065,31.079c-11.281,4.7-21.849,11.613-31.012,20.776c-37.543,37.543-37.617,98.576-0.236,136.221
	c-18.136,21.257-28.028,47.981-28.028,76.229v82.129C63.249,459.216,116.033,512,180.915,512H350.29
	c22.632,0,41.044-18.413,41.044-41.044v-23.91c0-22.632-18.413-41.044-41.044-41.044c-15.959,0-30.212,9.216-36.956,23.166h-65.087
	v-29.833c0-13.936-7.413-26.171-18.5-32.976v-35.017h46.543c12.867,0,24.847-7.463,30.518-19.012
	c0.059-0.118,0.114-0.237,0.167-0.357l45.501-102.698c3.919-8.104,4.476-17.25,1.565-25.777
	c-2.933-8.595-9.038-15.533-17.188-19.536c-8.148-4.003-17.372-4.594-25.968-1.661c-8.597,2.934-15.535,9.038-19.539,17.19
	c-0.067,0.136-0.131,0.273-0.191,0.413l-36.365,83.439h-52.678c-5.522,0-10,4.478-10,10s4.478,10,10,10h59.228
	c3.979,0,7.578-2.357,9.167-6.005l38.88-89.208c1.661-3.268,4.479-5.715,7.957-6.901c3.541-1.207,7.338-0.964,10.692,0.684
	c3.356,1.648,5.87,4.506,7.078,8.045c1.208,3.539,0.965,7.336-0.684,10.693c-0.059,0.118-0.114,0.237-0.167,0.357l-45.482,102.659
	c-2.365,4.668-7.249,7.675-12.49,7.675H173.279c-7.72,0-14-6.28-14-14c0-5.522-4.478-10-10-10c-5.522,0-10,4.478-10,10
	c0,18.748,15.252,33.999,33.999,33.999h36.468v29.331c-0.056,0-0.111-0.004-0.167-0.004H83.249v-48.462
	c0-23.567,8.293-45.858,23.495-63.546c15.604,10.298,33.877,15.83,53.004,15.83c25.776,0,50.009-10.038,68.235-28.265
	c12.197-12.198,20.91-27.429,25.196-44.046c1.38-5.349-1.837-10.802-7.185-12.181c-5.344-1.382-10.801,1.837-12.181,7.185
	c-3.395,13.16-10.302,25.229-19.974,34.899c-14.449,14.449-33.659,22.407-54.093,22.407s-39.644-7.958-54.093-22.407
	c-29.827-29.827-29.827-78.358,0-108.185c29.826-29.828,78.36-29.828,108.186,0c6.989,6.989,12.443,15.089,16.27,24.077
	c-0.404,0.975-0.77,1.97-1.048,3.006c-1.651,6.161-0.804,12.597,2.385,18.119c3.189,5.524,8.339,9.477,14.501,11.127
	c6.159,1.653,12.596,0.803,18.12-2.386c2.341-1.354,5.35-0.547,6.703,1.796c1.852,3.208,5.213,5.002,8.67,5.002
	c1.696,0,3.415-0.433,4.99-1.342c4.783-2.761,6.422-8.877,3.66-13.66c-3.326-5.762-8.697-9.883-15.124-11.604
	c-6.424-1.723-13.137-0.839-18.899,2.488c-1.211,0.698-2.365,0.544-2.944,0.388c-0.58-0.155-1.656-0.597-2.355-1.808
	c-0.699-1.211-0.543-2.364-0.388-2.944c0.155-0.58,0.597-1.656,1.809-2.355c11.893-6.868,15.981-22.131,9.115-34.023l-4.44-7.691
	c-2.118-3.669-0.856-8.377,2.812-10.495l2.388-1.379l25.719,44.546c1.853,3.208,5.213,5.002,8.67,5.002
	c1.696,0,3.416-0.433,4.99-1.342c4.783-2.762,6.422-8.877,3.66-13.66l-25.719-44.546l14.873-8.587l5.411,9.373
	c1.852,3.208,5.213,5.002,8.67,5.002c1.696,0,3.415-0.433,4.99-1.342c4.783-2.761,6.422-8.877,3.66-13.66l-5.411-9.373l12.979-7.493
	l5.411,9.373c1.852,3.208,5.213,5.002,8.67,5.002c1.696,0,3.415-0.433,4.99-1.342c4.783-2.761,6.422-8.877,3.66-13.66l-5.411-9.373
	l12.979-7.494l5.412,9.373c1.853,3.208,5.213,5.002,8.67,5.002c1.696,0,3.416-0.433,4.99-1.342c4.783-2.762,6.422-8.877,3.66-13.66
	l-5.411-9.373l10.021-5.786c3.004-1.734,6.863-0.701,8.598,2.304l39.103,67.73c1.734,3.005,0.701,6.861-2.304,8.597l-40.999,23.671
	c-4.783,2.762-6.422,8.877-3.66,13.66c1.853,3.208,5.213,5.002,8.67,5.002c1.696,0,3.415-0.433,4.99-1.342l40.999-23.671
	c6.082-3.512,10.433-9.182,12.251-15.965C449.662,94.056,448.729,86.97,445.217,80.888z M320.256,449.167
	c4.548,0,8.523-3.069,9.675-7.469c2.418-9.242,10.789-15.697,20.358-15.697c11.604,0,21.045,9.44,21.045,21.045v23.91
	c0,11.604-9.44,21.045-21.045,21.045H212.331c-11.81,0-21.417-9.607-21.417-21.417s9.607-21.417,21.417-21.417L320.256,449.167
	L320.256,449.167z M209.58,380.668c10.293,0,18.667,8.374,18.667,18.667v29.833h-15.915c-22.838,0-41.416,18.579-41.416,41.416
	c0,7.795,2.167,15.092,5.927,21.326c-51.971-2.143-93.594-45.086-93.594-97.575v-13.666H209.58z"/>
<path d="M358.354,139.856c-2.64,0-5.22,1.07-7.079,2.931c-1.86,1.859-2.921,4.439-2.921,7.069s1.061,5.21,2.921,7.07
	c1.869,1.86,4.439,2.93,7.079,2.93c2.631,0,5.2-1.069,7.07-2.93c1.86-1.86,2.92-4.44,2.92-7.07s-1.06-5.21-2.92-7.069
	C363.554,140.926,360.985,139.856,358.354,139.856z"/>
<path d="M184.176,133.936c-1.86,1.86-2.93,4.44-2.93,7.07s1.069,5.21,2.93,7.069c1.86,1.86,4.44,2.931,7.07,2.931
	c2.63,0,5.21-1.07,7.069-2.931c1.86-1.859,2.931-4.439,2.931-7.069s-1.07-5.21-2.931-7.07c-1.859-1.86-4.439-2.93-7.069-2.93
	C188.616,131.006,186.037,132.075,184.176,133.936z"/>
<g>
</g>
<g>
</g>
<g>
</g>
<g>
</g>
<g>
</g>
<g>
</g>
<g>
</g>
<g>
</g>
<g>
</g>
<g>
</g>
<g>
</g>
<g>
</g>
<g>
</g>
<g>
</g>
<g>
</g>
</svg>
