<?xml version="1.0" encoding="iso-8859-1"?>
<!-- Generator: Adobe Illustrator 19.0.0, SVG Export Plug-In . SVG Version: 6.00 Build 0)  -->
<svg version="1.1" id="Capa_1" xmlns="http://www.w3.org/2000/svg" xmlns:xlink="http://www.w3.org/1999/xlink" x="0px" y="0px"
	 viewBox="0 0 512 512" style="enable-background:new 0 0 512 512;" xml:space="preserve">
<g>
	<path style="fill:#CBF8F3;" d="M256.978,127.999h-6.69h-11.262h-6.956l0.251,0.248c-46.621,3.431-83.38,42.34-83.38,89.836v83.77
		c0,38.019,24.415,71.738,60.534,83.604l45.571,14.971c13.232,4.347,26.847-5.51,26.847-19.439c0-8.828-5.662-16.66-14.044-19.429
		l79.214-119.69l0,0v-23.787C347.062,168.332,306.731,127.999,256.978,127.999z"/>
	<path style="fill:#CBF8F3;" d="M174.893,366.498L174.893,366.498c-16.778,41.699-18.542,87.932-4.99,130.789l1.49,4.71h144.23
		v-21.291c0-12.013,4.605-23.569,12.867-32.29l0,0c40.228-42.462,45.993-107.006,13.928-155.926l-4.154-6.337L174.893,366.498z"/>
</g>
<path style="fill:#FEAF65;" d="M347.062,241.871c-17.436,0-34.252,6.468-47.194,18.152l-3.578,3.23
	c-8.281,7.476-8.687,20.339-0.893,28.322l0,0c6.927,7.095,18.054,7.92,25.951,1.923l2.588-1.965
	c6.651-5.05,14.773-7.784,23.125-7.784l0,0L347.062,241.871z"/>
<path style="fill:#FFCC9C;" d="M246.531,10L246.531,10c-29.869,0-54.083,24.214-54.083,54.083v9.833
	c0,29.869,24.214,54.083,54.083,54.083l0,0c29.869,0,54.083-24.214,54.083-54.083v-9.833C300.614,34.214,276.4,10,246.531,10z"/>
<path d="M181.863,208.688c-1.859,1.86-2.92,4.44-2.92,7.07s1.061,5.21,2.92,7.07c1.87,1.87,4.45,2.93,7.08,2.93s5.2-1.06,7.07-2.93
	c1.86-1.86,2.93-4.431,2.93-7.07c0-2.63-1.069-5.21-2.93-7.07c-1.86-1.859-4.44-2.93-7.07-2.93S183.733,206.829,181.863,208.688z"/>
<path d="M353.519,291.376c2.165-1.834,3.543-4.569,3.543-7.629c0-5.522-4.478-10-10-10c-10.473,0-20.833,3.487-29.172,9.819
	l-2.589,1.966c-3.871,2.938-9.353,2.532-12.748-0.944c-1.852-1.897-2.826-4.401-2.742-7.051c0.084-2.65,1.213-5.087,3.181-6.863
	l3.577-3.229c11.125-10.043,25.506-15.574,40.493-15.574c5.522,0,10-4.478,10-10v-23.787c0-44.428-29.101-82.181-69.24-95.214
	c13.925-11.764,22.791-29.339,22.791-48.953v-9.834C310.614,28.747,281.867,0,246.531,0s-64.083,28.747-64.083,64.083v9.834
	c0,20.009,9.222,37.899,23.634,49.66c-39.051,13.651-67.141,50.858-67.141,94.507v83.77c0,24.774,9.243,47.825,24.947,65.367
	c-15.975,42.583-17.254,89.648-3.519,133.083l1.49,4.71c1.349,4.262,5.287,6.986,9.531,6.986c1,0,2.017-0.151,3.02-0.469
	c5.266-1.666,8.184-7.285,6.518-12.551l-1.489-4.708c-11.597-36.674-11.326-76.22,0.579-112.631
	c7.909,5.631,16.743,10.164,26.337,13.316l45.571,14.972c3.167,1.04,6.4,1.553,9.603,1.553c6.292-0.001,12.464-1.979,17.77-5.821
	c8.005-5.796,12.596-14.789,12.596-24.672c0-13.169-8.402-24.793-20.907-28.923l-51.454-16.995
	c-12.316-4.068-20.591-15.517-20.591-28.487v-56.919c0-5.522-4.478-10-10-10s-10,4.478-10,10v56.919
	c0,21.617,13.791,40.697,34.317,47.478l51.454,16.995c4.295,1.419,7.181,5.41,7.181,9.933c0,3.395-1.577,6.482-4.326,8.473
	c-2.75,1.991-6.175,2.522-9.4,1.467l-45.57-14.971c-32.093-10.544-53.655-40.324-53.655-74.104v-83.77
	c0-44.159,35.926-80.085,80.085-80.085h11.262h6.69c44.159,0,80.085,35.926,80.085,80.085v14.408
	c-16.276,2.03-31.583,8.993-43.896,20.107l-3.577,3.229c-6.043,5.456-9.512,12.941-9.769,21.078
	c-0.256,8.138,2.734,15.827,8.422,21.653c5.764,5.902,13.479,8.925,21.238,8.924c6.283,0,12.595-1.982,17.915-6.022l2.589-1.966
	c1.128-0.857,2.326-1.615,3.567-2.289l0.502,0.766c29.661,45.251,24.388,104.287-12.824,143.566
	c-10.064,10.625-15.607,24.534-15.607,39.167v21.292c0,5.522,4.478,10,10,10s10-4.478,10-10v-21.291
	c0-9.494,3.597-18.519,10.127-25.412c20.998-22.165,34.058-51.119,36.774-81.53C375.087,345.068,368.351,316.016,353.519,291.376z
	 M202.448,64.083c0-24.308,19.775-44.083,44.083-44.083s44.083,19.775,44.083,44.083v9.834c0,24.308-19.775,44.083-44.083,44.083
	s-44.083-19.775-44.083-44.083V64.083z"/>
<g>
</g>
<g>
</g>
<g>
</g>
<g>
</g>
<g>
</g>
<g>
</g>
<g>
</g>
<g>
</g>
<g>
</g>
<g>
</g>
<g>
</g>
<g>
</g>
<g>
</g>
<g>
</g>
<g>
</g>
</svg>
