<?xml version="1.0" encoding="iso-8859-1"?>
<!-- Generator: Adobe Illustrator 19.0.0, SVG Export Plug-In . SVG Version: 6.00 Build 0)  -->
<svg version="1.1" id="Capa_1" xmlns="http://www.w3.org/2000/svg" xmlns:xlink="http://www.w3.org/1999/xlink" x="0px" y="0px"
	 viewBox="0 0 512 512" style="enable-background:new 0 0 512 512;" xml:space="preserve">
<path style="fill:#FFCC9C;" d="M138.323,9.999L138.323,9.999c-24.301,0-44,19.699-44,44v8c0,24.301,19.699,44,44,44l0,0
	c24.301,0,44-19.699,44-44v-8C182.323,29.698,162.624,9.999,138.323,9.999z"/>
<path style="fill:#FE90C5;" d="M50.859,263.621L50.859,263.621c-13.802,0-23.795-13.17-20.078-26.462l24.416-87.317
	c7.248-25.921,30.869-43.843,57.784-43.843h50.685c26.914,0,50.536,17.922,57.783,43.842l24.416,87.317
	c3.717,13.292-6.276,26.462-20.078,26.462h-1.119H50.859V263.621z"/>
<g>
	<rect x="138.319" y="378.999" style="fill:#FFCC9C;" width="40" height="82.87"/>
	<rect x="98.319" y="378.999" style="fill:#FFCC9C;" width="40" height="82.87"/>
</g>
<g>
	<path style="fill:#AB81FF;" d="M218.448,501.999L218.448,501.999h-80.125v-40.125h40
		C200.484,461.874,218.448,479.839,218.448,501.999L218.448,501.999z"/>
	<path style="fill:#AB81FF;" d="M58.198,501.999h80.125v-40.125h-40C76.163,461.874,58.198,479.839,58.198,501.999L58.198,501.999
		L58.198,501.999z"/>
</g>
<path style="fill:#FE90C5;" d="M88.584,183.999c0,0-25.988,51.989-25.988,73.394c0,13.38,3.484,25.941,9.573,36.849l-12.62,84.757
	h157.549l-12.62-84.757c6.089-10.908,9.573-23.469,9.573-36.849c0-21.405-25.988-73.394-25.988-73.394L88.584,183.999
	L88.584,183.999z"/>
<path style="fill:#FFCC9C;" d="M373.675,9.999L373.675,9.999c-24.301,0-44,19.699-44,44v8c0,24.301,19.699,44,44,44l0,0
	c24.3,0,44-19.699,44-44v-8C417.675,29.698,397.975,9.999,373.675,9.999z"/>
<path style="fill:#81EEE3;" d="M286.211,263.621L286.211,263.621c-13.802,0-23.795-13.17-20.078-26.462l24.416-87.317
	c7.248-25.92,30.869-43.842,57.784-43.842h50.685c26.914,0,50.536,17.922,57.784,43.842l24.416,87.317
	c3.717,13.292-6.276,26.462-20.078,26.462h-1.119H286.211z"/>
<g>
	<rect x="373.679" y="378.999" style="fill:#FFCC9C;" width="40" height="82.87"/>
	<rect x="333.679" y="378.999" style="fill:#FFCC9C;" width="40" height="82.87"/>
</g>
<g>
	<path style="fill:#AB81FF;" d="M453.8,501.999L453.8,501.999h-80.125v-40.125h40C435.835,461.874,453.8,479.839,453.8,501.999
		L453.8,501.999z"/>
	<path style="fill:#AB81FF;" d="M293.55,501.999h80.125v-40.125h-40C311.514,461.874,293.55,479.839,293.55,501.999L293.55,501.999
		L293.55,501.999z"/>
</g>
<path style="fill:#81EEE3;" d="M323.935,183.999c0,0-25.988,51.989-25.988,73.394c0,13.38,3.484,25.941,9.573,36.849l-12.62,84.757
	h157.549l-12.62-84.757c6.089-10.908,9.573-23.469,9.573-36.849c0-21.405-25.988-73.394-25.988-73.394L323.935,183.999
	L323.935,183.999z"/>
<path d="M490.847,234.465l-5.679-20.31c-1.487-5.318-7.004-8.425-12.323-6.938s-8.425,7.005-6.938,12.324l5.679,20.31
	c0.922,3.296,0.264,6.751-1.806,9.479c-2.069,2.727-5.219,4.291-8.642,4.291h-1.119c-0.271,0-0.538,0.02-0.804,0.041
	c-2.237-24.278-24.23-68.879-26.857-74.134c-2.469-4.938-8.475-6.943-13.415-4.473c-4.94,2.469-6.943,8.475-4.475,13.415
	c9.64,19.293,24.933,55.066,24.933,68.924c0,11.185-2.872,22.241-8.305,31.975c-1.077,1.93-1.484,4.161-1.159,6.347l10.913,73.283
	H306.499l10.912-73.284c0.325-2.186-0.083-4.417-1.16-6.347c-5.433-9.732-8.304-20.789-8.304-31.975
	c0-13.857,15.293-49.631,24.933-68.924c2.468-4.94,0.465-10.946-4.475-13.415c-4.94-2.47-10.945-0.466-13.415,4.473
	c-2.632,5.266-24.709,50.035-26.871,74.281c-0.618-0.12-1.255-0.187-1.908-0.187c-3.423,0-6.573-1.564-8.642-4.291
	c-2.069-2.728-2.728-6.183-1.806-9.479l24.416-87.316c6.015-21.512,25.817-36.536,48.153-36.536h50.685
	c22.337,0,42.138,15.024,48.153,36.536c1.487,5.318,7.004,8.424,12.323,6.938c5.319-1.487,8.425-7.005,6.938-12.324
	c-7.029-25.139-27.51-43.937-52.274-49.468c8.403-9.522,13.518-22.013,13.518-35.681v-8c0-29.775-24.224-54-54-54s-54,24.225-54,54
	v8c0,13.668,5.115,26.159,13.518,35.681c-24.764,5.531-45.245,24.33-52.274,49.468l-24.416,87.316
	c-0.195,0.699-0.358,1.4-0.503,2.103c-0.146-0.703-0.308-1.404-0.503-2.103l-24.416-87.316
	c-7.029-25.139-27.51-43.937-52.274-49.468c8.403-9.522,13.518-22.013,13.518-35.681v-8c0-29.775-24.224-54-54-54s-54,24.225-54,54
	v8c0,13.668,5.115,26.159,13.518,35.681c-24.764,5.531-45.245,24.33-52.274,49.468l-24.416,87.316
	c-2.622,9.375-0.75,19.199,5.133,26.954c5.883,7.755,14.841,12.202,24.575,12.202c1.119,0,2.192-0.192,3.197-0.531
	c1.484,7.96,4.081,15.696,7.737,22.933L49.66,377.527c-0.428,2.878,0.417,5.799,2.317,8.002c1.899,2.204,4.665,3.471,7.574,3.471
	h28.774v63.879c-22.866,4.647-40.127,24.905-40.127,49.12c0,5.522,4.477,10,10,10h160.25c5.523,0,10-4.478,10-10
	c0-24.215-17.261-44.473-40.125-49.121v-63.879h28.775c2.909,0,5.674-1.267,7.574-3.471c1.9-2.203,2.746-5.125,2.317-8.002
	l-12.136-81.503c3.61-7.147,6.187-14.78,7.68-22.636c0.688,0.15,1.401,0.234,2.135,0.234h1.119c9.734,0,18.691-4.447,24.575-12.202
	c2.826-3.724,4.715-7.928,5.637-12.328c0.922,4.4,2.811,8.604,5.637,12.328c5.884,7.755,14.841,12.202,24.575,12.202
	c1.119,0,2.192-0.192,3.197-0.531c1.484,7.961,4.081,15.697,7.737,22.934l-12.136,81.503c-0.428,2.877,0.417,5.799,2.317,8.002
	c1.899,2.204,4.665,3.471,7.574,3.471h28.775v63.879c-22.864,4.648-40.125,24.906-40.125,49.121c0,5.522,4.477,10,10,10H453.8
	c5.523,0,10-4.478,10-10c0-24.215-17.261-44.473-40.125-49.121v-63.88h28.774c2.909,0,5.674-1.267,7.574-3.471
	c1.9-2.203,2.746-5.124,2.317-8.002l-12.135-81.504c3.61-7.146,6.187-14.78,7.68-22.635c0.688,0.15,1.401,0.234,2.135,0.234h1.119
	c9.734,0,18.691-4.447,24.575-12.202C491.598,253.664,493.469,243.84,490.847,234.465z M339.675,53.999c0-18.748,15.252-34,34-34
	s34,15.252,34,34v8c0,18.748-15.252,34-34,34s-34-15.252-34-34V53.999z M104.323,53.999c0-18.748,15.252-34,34-34s34,15.252,34,34v8
	c0,18.748-15.252,34-34,34s-34-15.252-34-34C104.323,61.999,104.323,53.999,104.323,53.999z M128.323,451.874h-20v-62.875h20
	V451.874z M98.323,471.874h30v20.125H69.904C74.037,480.289,85.216,471.874,98.323,471.874z M206.742,491.999h-58.419v-20.125h30
	C191.43,471.874,202.609,480.289,206.742,491.999z M168.323,451.874h-20v-62.875h20V451.874z M234.429,249.33
	c-2.069,2.727-5.219,4.291-8.642,4.291h-1.119c-0.271,0-0.538,0.02-0.804,0.041c-2.237-24.278-24.23-68.879-26.857-74.134
	c-2.469-4.938-8.475-6.943-13.415-4.473c-4.94,2.469-6.943,8.475-4.475,13.415c9.64,19.293,24.933,55.066,24.933,68.924
	c0,11.186-2.872,22.242-8.304,31.975c-1.077,1.93-1.485,4.161-1.16,6.347l10.913,73.283H71.148l2.978-20h59.015
	c5.523,0,10-4.478,10-10c0-5.522-4.477-10-10-10H77.104l4.956-33.284c0.325-2.186-0.083-4.417-1.159-6.347
	c-5.433-9.733-8.305-20.79-8.305-31.975c0-13.857,15.293-49.631,24.933-68.924c2.468-4.94,0.465-10.946-4.475-13.415
	c-4.94-2.47-10.945-0.466-13.415,4.473c-2.632,5.266-24.709,50.035-26.871,74.281c-0.618-0.12-1.255-0.187-1.908-0.187
	c-3.423,0-6.573-1.564-8.642-4.291c-2.069-2.728-2.728-6.183-1.806-9.479l24.416-87.316c6.015-21.512,25.816-36.536,48.153-36.536
	h50.685c22.337,0,42.138,15.024,48.153,36.536l24.416,87.316C237.157,243.147,236.499,246.603,234.429,249.33z M363.675,388.999
	v62.875h-20v-62.875H363.675z M333.675,471.874h30v20.125h-58.419C309.389,480.289,320.568,471.874,333.675,471.874z
	 M442.094,491.999h-58.419v-20.125h30C426.782,471.874,437.961,480.289,442.094,491.999z M403.675,451.874h-20v-62.875h20V451.874z"
	/>
<path d="M458.719,174.938c-1.86,1.86-2.92,4.44-2.92,7.07s1.06,5.21,2.92,7.07c1.87,1.859,4.44,2.93,7.08,2.93
	c2.63,0,5.21-1.07,7.07-2.93c1.86-1.86,2.93-4.44,2.93-7.07s-1.07-5.21-2.93-7.07c-1.86-1.859-4.44-2.93-7.07-2.93
	C463.159,172.009,460.589,173.079,458.719,174.938z"/>
<path d="M168.369,328.999c-2.63,0-5.21,1.069-7.07,2.93c-1.86,1.861-2.93,4.44-2.93,7.07s1.07,5.21,2.93,7.069
	c1.86,1.86,4.44,2.931,7.07,2.931s5.21-1.07,7.07-2.931c1.87-1.859,2.93-4.439,2.93-7.069s-1.06-5.21-2.93-7.07
	C173.579,330.068,170.999,328.999,168.369,328.999z"/>
<g>
</g>
<g>
</g>
<g>
</g>
<g>
</g>
<g>
</g>
<g>
</g>
<g>
</g>
<g>
</g>
<g>
</g>
<g>
</g>
<g>
</g>
<g>
</g>
<g>
</g>
<g>
</g>
<g>
</g>
</svg>
