<?xml version="1.0" encoding="iso-8859-1"?>
<!-- Generator: Adobe Illustrator 19.0.0, SVG Export Plug-In . SVG Version: 6.00 Build 0)  -->
<svg version="1.1" id="Capa_1" xmlns="http://www.w3.org/2000/svg" xmlns:xlink="http://www.w3.org/1999/xlink" x="0px" y="0px"
	 viewBox="0 0 512 512" style="enable-background:new 0 0 512 512;" xml:space="preserve">
<path style="fill:#F2EBFF;" d="M318,448H194C92.38,448,10,365.62,10,264V104c0-22.091,17.909-40,40-40h412c22.091,0,40,17.909,40,40
	v160C502,365.62,419.62,448,318,448z"/>
<path style="fill:#C6AAFF;" d="M157.667,126H10v64h147.667c17.673,0,32-14.327,32-32l0,0C189.667,140.327,175.34,126,157.667,126z"
	/>
<path style="fill:#FFFFFF;" d="M128,126h29.667c17.673,0,32,14.327,32,32l0,0c0,17.673-14.327,32-32,32H128V126z"/>
<g>
	<path style="fill:#C6AAFF;" d="M318,436v12c101.62,0,184-82.38,184-184v-12l0,0C400.38,252,318,334.38,318,436z"/>
	<path style="fill:#C6AAFF;" d="M194,436v12C92.38,448,10,365.62,10,264v-12l0,0C111.62,252,194,334.38,194,436z"/>
	<path style="fill:#C6AAFF;" d="M354.333,126H502v64H354.333c-17.673,0-32-14.327-32-32l0,0C322.333,140.327,336.66,126,354.333,126
		z"/>
</g>
<path style="fill:#FFFFFF;" d="M384,126h-29.667c-17.673,0-32,14.327-32,32l0,0c0,17.673,14.327,32,32,32H384V126z"/>
<circle style="fill:#BA98FF;" cx="256" cy="158" r="20"/>
<path style="fill:#FE61AD;" d="M279.393,228.127c-9.164,0-17.428,3.949-23.266,10.277c-5.838-6.328-14.102-10.277-23.266-10.277
	c-17.689,0-32.028,14.708-32.028,32.851c0,25.414,55.294,67.689,55.294,67.689s55.294-42.275,55.294-67.689
	C311.421,242.835,297.082,228.127,279.393,228.127z"/>
<path d="M259,74c2.63,0,5.21-1.07,7.07-2.931C267.93,69.21,269,66.63,269,64s-1.07-5.21-2.93-7.07S261.63,54,259,54
	s-5.21,1.069-7.07,2.93C250.07,58.79,249,61.37,249,64c0,2.63,1.07,5.21,2.93,7.069C253.79,72.93,256.37,74,259,74z"/>
<path d="M462,54H297.667c-5.523,0-10,4.478-10,10s4.477,10,10,10H462c16.542,0,30,13.458,30,30v12H354.333
	c-23.159,0-42,18.841-42,42s18.841,42,42,42H492v42.259c-34.152,1.742-67.062,12.389-95.738,31.063
	c-4.628,3.014-5.937,9.209-2.923,13.837c1.917,2.943,5.12,4.544,8.389,4.544c1.871,0,3.764-0.524,5.448-1.621
	c25.421-16.554,54.56-26.073,84.824-27.794V264c0,92.612-72.731,168.547-164.073,173.71c0.044-0.565,0.073-1.134,0.073-1.71
	c0-33.338,9.453-65.729,27.336-93.668c2.978-4.651,1.62-10.836-3.031-13.813c-4.652-2.976-10.836-1.62-13.813,3.032
	C318.543,362.715,308,398.833,308,436c0,1.103-0.897,2-2,2H206c-1.103,0-2-0.897-2-2c0-103.618-81.657-188.523-184-193.745V200
	h137.667c23.159,0,42-18.841,42-42s-18.841-42-42-42H20v-12c0-16.542,13.458-30,30-30h169c5.523,0,10-4.478,10-10s-4.477-10-10-10
	H50C22.43,54,0,76.43,0,104v22v64v74c0,106.972,87.028,194,194,194h124c106.972,0,194-87.028,194-194v-74v-64v-22
	C512,76.43,489.57,54,462,54z M179.667,158c0,12.131-9.869,22-22,22H138v-44h19.667C169.797,136,179.667,145.869,179.667,158z
	 M118,136v44H20v-44H118z M20,264v-1.706c91.308,5.2,164,81.118,164,173.706c0,0.576,0.029,1.145,0.073,1.71
	C92.731,432.547,20,356.612,20,264z M332.333,158c0-12.131,9.869-22,22-22H374v44h-19.667C342.203,180,332.333,170.131,332.333,158z
	 M394,180v-44h98v44H394z"/>
<path d="M380.381,297.549c-3.868-3.941-10.199-3.999-14.142-0.132c-0.003,0.004-0.122,0.12-0.126,0.124
	c-3.959,3.851-4.048,10.182-0.197,14.141c1.96,2.016,4.563,3.028,7.17,3.028c2.512,0,5.027-0.941,6.971-2.831l0.15-0.147
	l-6.963-7.178l7.005,7.137C384.191,307.822,384.25,301.49,380.381,297.549z"/>
<path d="M256,188c16.542,0,30-13.458,30-30s-13.458-30-30-30s-30,13.458-30,30S239.458,188,256,188z M256,148
	c5.514,0,10,4.486,10,10s-4.486,10-10,10s-10-4.486-10-10S250.486,148,256,148z"/>
<path d="M232.86,218.127c-23.174,0-42.028,19.223-42.028,42.851c0,13.486,10.008,29.994,30.596,50.466
	c14.122,14.043,28.039,24.72,28.625,25.168c1.792,1.37,3.933,2.056,6.074,2.056c2.141,0,4.281-0.686,6.074-2.056
	c0.585-0.448,14.502-11.125,28.625-25.168c20.588-20.472,30.596-36.979,30.596-50.466c0-23.628-18.854-42.851-42.028-42.851
	c-8.312,0-16.422,2.549-23.267,7.178C249.283,220.676,241.172,218.127,232.86,218.127z M279.394,238.127
	c12.146,0,22.028,10.251,22.028,22.851c0,12.797-24.77,38.157-45.294,54.935c-20.525-16.779-45.294-42.139-45.294-54.935
	c0-12.6,9.882-22.851,22.028-22.851c6.066,0,11.718,2.506,15.917,7.057c1.893,2.053,4.558,3.22,7.35,3.22
	c2.792,0,5.457-1.167,7.35-3.22C267.675,240.633,273.328,238.127,279.394,238.127z"/>
<g>
</g>
<g>
</g>
<g>
</g>
<g>
</g>
<g>
</g>
<g>
</g>
<g>
</g>
<g>
</g>
<g>
</g>
<g>
</g>
<g>
</g>
<g>
</g>
<g>
</g>
<g>
</g>
<g>
</g>
</svg>
