<?xml version="1.0" encoding="iso-8859-1"?>
<!-- Generator: Adobe Illustrator 19.0.0, SVG Export Plug-In . SVG Version: 6.00 Build 0)  -->
<svg version="1.1" id="Capa_1" xmlns="http://www.w3.org/2000/svg" xmlns:xlink="http://www.w3.org/1999/xlink" x="0px" y="0px"
	 viewBox="0 0 512 512" style="enable-background:new 0 0 512 512;" xml:space="preserve">
<path style="fill:#F2EBFF;" d="M428,182H30c-11.046,0-20,8.954-20,20v280c0,11.046,8.954,20,20,20h398c11.046,0,20-8.954,20-20V202
	C448,190.954,439.046,182,428,182z"/>
<g>
	<circle style="fill:#E8DDFF;" cx="456.82" cy="32" r="22"/>
	<circle style="fill:#E8DDFF;" cx="347.06" cy="32" r="22"/>
</g>
<circle style="fill:#FFFFFF;" cx="309.5" cy="421.94" r="40"/>
<path style="fill:#FE61AD;" d="M198.574,268.699c-16.468,0-31.318,7.096-41.809,18.467c-10.491-11.371-25.341-18.467-41.809-18.467
	c-31.786,0-57.553,26.429-57.553,59.032c0,45.668,99.362,121.635,99.362,121.635s99.362-75.967,99.362-121.635
	C256.127,295.128,230.36,268.699,198.574,268.699z"/>
<path d="M487.56,23.143C483.708,9.794,471.388,0,456.816,0c-17.645,0-32,14.355-32,32s14.355,32,32,32
	c13.284,0,24.702-8.139,29.534-19.691c3.408,2.355,5.649,6.285,5.649,10.732v26.335c0,57.305-36.031,107.567-90,126.065
	c-53.969-18.498-90-68.761-90-126.065V55.041c0-4.404,2.201-8.298,5.554-10.661C322.404,55.895,333.803,64,347.061,64
	c17.645,0,32-14.355,32-32s-14.355-32-32-32c-14.585,0-26.914,9.813-30.754,23.181C302.314,27.021,292,39.846,292,55.041v26.335
	c0,32.785,10.236,64.097,29.604,90.551c18.014,24.607,42.427,42.942,70.9,53.355V332.68c0,7.308-5.944,13.252-13.252,13.252
	S366,339.987,366,332.68v-53.428C366,260.917,351.083,246,332.748,246s-33.252,14.917-33.252,33.252v93.692
	c-22.795,4.646-40,24.847-40,48.994c0,27.57,22.43,50,50,50s50-22.43,50-50c0-24.146-17.205-44.348-40-48.994v-93.692
	c0-7.308,5.944-13.252,13.252-13.252S346,271.944,346,279.252v53.428c0,18.335,14.917,33.252,33.252,33.252
	s33.252-14.917,33.252-33.252V224.896c28.039-10.475,52.093-28.655,69.893-52.969C501.764,145.473,512,114.161,512,81.376V55.041
	C512,39.797,501.621,26.938,487.56,23.143z M456.816,44c-6.617,0-12-5.383-12-12s5.383-12,12-12s12,5.383,12,12
	S463.434,44,456.816,44z M347.061,20c6.617,0,12,5.383,12,12s-5.383,12-12,12s-12-5.383-12-12S340.443,20,347.061,20z
	 M339.496,421.938c0,16.542-13.458,30-30,30s-30-13.458-30-30s13.458-30,30-30S339.496,405.396,339.496,421.938z"/>
<path d="M402,423.09c2.63,0,5.21-1.06,7.069-2.93c1.86-1.86,2.931-4.431,2.931-7.061c0-2.64-1.07-5.21-2.931-7.08
	c-1.859-1.859-4.439-2.93-7.069-2.93s-5.21,1.07-7.07,2.93c-1.86,1.86-2.93,4.44-2.93,7.08c0,2.63,1.069,5.2,2.93,7.061
	C396.79,422.03,399.37,423.09,402,423.09z"/>
<path d="M448,228.127c-5.522,0-10,4.478-10,10V482c0,5.514-4.486,10-10,10h-16v-45.887c0-5.522-4.478-10-10-10s-10,4.478-10,10V492
	H30c-5.514,0-10-4.486-10-10V202c0-5.514,4.486-10,10-10h207.667c5.522,0,10-4.478,10-10s-4.478-10-10-10H30
	c-16.542,0-30,13.458-30,30v280c0,16.542,13.458,30,30,30h398c16.542,0,30-13.458,30-30V238.127
	C458,232.604,453.522,228.127,448,228.127z"/>
<path d="M282.33,192c2.64,0,5.21-1.07,7.069-2.931c1.87-1.859,2.931-4.439,2.931-7.069s-1.061-5.21-2.931-7.07
	c-1.859-1.86-4.43-2.93-7.069-2.93c-2.63,0-5.21,1.069-7.07,2.93s-2.93,4.44-2.93,7.07s1.069,5.21,2.93,7.069
	C277.12,190.93,279.7,192,282.33,192z"/>
<path d="M31,354.067c0,5.522,4.478,10,10,10h18.839c8.786,14.537,22.197,30.803,40.193,48.697
	c25.015,24.872,49.623,43.753,50.659,44.545c1.792,1.37,3.933,2.056,6.073,2.056s4.281-0.686,6.073-2.056
	c1.036-0.792,25.645-19.673,50.659-44.545c34.923-34.726,52.63-63.335,52.63-85.034c0-38.063-30.304-69.031-67.553-69.031
	c-15.189,0-29.97,5.313-41.81,14.823c-11.839-9.51-26.619-14.823-41.809-14.823c-37.249,0-67.554,30.968-67.554,69.031
	c0,5.07,0.979,10.522,2.907,16.337H41C35.478,344.067,31,348.545,31,354.067z M67.402,327.73c0-27.036,21.332-49.031,47.554-49.031
	c13.15,0,25.388,5.415,34.459,15.247c1.893,2.053,4.558,3.22,7.35,3.22s5.457-1.167,7.35-3.219
	c9.072-9.833,21.31-15.248,34.46-15.248c26.221,0,47.553,21.995,47.553,49.031c0,9.091-6.053,30.366-46.591,70.711
	c-16.89,16.81-33.976,31.075-42.772,38.172c-8.765-7.068-25.76-21.257-42.629-38.031c-13.654-13.576-23.393-24.988-30.326-34.515
	h17.795c4.071,0,7.735-2.468,9.267-6.24l8.537-21.041l24.705,58.093c1.453,3.419,4.683,5.75,8.385,6.054
	c0.274,0.022,0.547,0.033,0.819,0.033c3.402,0,6.596-1.735,8.439-4.639l20.486-32.26h17.369c5.522,0,10-4.478,10-10s-4.478-10-10-10
	h-22.864c-3.422,0-6.607,1.75-8.441,4.639l-13.234,20.839l-26.679-62.734c-1.57-3.693-5.194-6.087-9.201-6.087
	c-0.028,0-0.057,0-0.084,0c-4.041,0.034-7.664,2.496-9.184,6.24L94.87,344.068H71.734C68.312,336.555,67.402,331.234,67.402,327.73z
	"/>
<path d="M299.5,421.939c0,2.63,1.06,5.21,2.92,7.07c1.87,1.86,4.439,2.93,7.08,2.93c2.63,0,5.2-1.069,7.069-2.93
	c1.86-1.86,2.931-4.44,2.931-7.07c0-2.64-1.07-5.21-2.931-7.08c-1.869-1.859-4.439-2.92-7.069-2.92c-2.641,0-5.221,1.061-7.08,2.92
	C300.56,416.729,299.5,419.3,299.5,421.939z"/>
<g>
</g>
<g>
</g>
<g>
</g>
<g>
</g>
<g>
</g>
<g>
</g>
<g>
</g>
<g>
</g>
<g>
</g>
<g>
</g>
<g>
</g>
<g>
</g>
<g>
</g>
<g>
</g>
<g>
</g>
</svg>
