<?xml version="1.0" encoding="iso-8859-1"?>
<!-- Generator: Adobe Illustrator 19.0.0, SVG Export Plug-In . SVG Version: 6.00 Build 0)  -->
<svg version="1.1" id="Capa_1" xmlns="http://www.w3.org/2000/svg" xmlns:xlink="http://www.w3.org/1999/xlink" x="0px" y="0px"
	 viewBox="0 0 512 512" style="enable-background:new 0 0 512 512;" xml:space="preserve">
<path style="fill:#FEAF65;" d="M475,502H370c-8.56,0-15.5-6.94-15.5-15.5v-23c0-8.56,6.94-15.5,15.5-15.5h105
	c14.912,0,27,12.088,27,27l0,0C502,489.912,489.912,502,475,502z"/>
<path style="fill:#F2EBFF;" d="M475,448h-17v54h17c14.912,0,27-12.088,27-27l0,0C502,460.088,489.912,448,475,448z"/>
<path style="fill:#DAC7FF;" d="M415,344H97c-22.091,0-40-17.909-40-40V50c0-22.091,17.909-40,40-40h318c22.091,0,40,17.909,40,40
	v254C455,326.091,437.091,344,415,344z"/>
<g>
	<path style="fill:#F2EBFF;" d="M405,304H107c-5.523,0-10-4.477-10-10V60c0-5.523,4.477-10,10-10h298c5.523,0,10,4.477,10,10v234
		C415,299.523,410.523,304,405,304z"/>
	<rect x="216" y="344" style="fill:#F2EBFF;" width="80" height="48"/>
</g>
<path style="fill:#DAC7FF;" d="M295.125,392h-78.25c-15.372,0-27.833,12.461-27.833,27.833V432h133.917v-12.167
	C322.958,404.461,310.497,392,295.125,392z"/>
<path style="fill:#BA98FF;" d="M297.78,105.702c-25.956,14.192-57.603,14.192-83.559,0l-77.152,98.035l0,0
	c65.684,65.684,172.179,65.684,237.863,0l0,0L297.78,105.702z"/>
<path d="M475,438H370c-14.061,0-25.5,11.439-25.5,25.5v1.5H37.583C27.888,465,20,457.112,20,447.417
	c0-9.696,7.888-17.584,17.583-17.584h76.75c5.522,0,10-4.478,10-10s-4.478-10-10-10h-76.75C16.859,409.833,0,426.693,0,447.417
	S16.859,485,37.583,485H344.5v1.5c0,14.061,11.439,25.5,25.5,25.5h105c20.402,0,37-16.598,37-37S495.402,438,475,438z M364.5,486.5
	v-23c0-3.033,2.467-5.5,5.5-5.5h78v34h-78C366.967,492,364.5,489.533,364.5,486.5z M475,492h-7v-34h7c9.374,0,17,7.626,17,17
	S484.374,492,475,492z"/>
<path d="M150.6,412.76c-1.87,1.86-2.93,4.44-2.93,7.07s1.06,5.21,2.93,7.069c1.86,1.87,4.44,2.931,7.07,2.931s5.2-1.061,7.07-2.931
	c1.859-1.859,2.93-4.439,2.93-7.069s-1.07-5.21-2.93-7.07c-1.86-1.86-4.44-2.93-7.07-2.93
	C155.03,409.83,152.46,410.899,150.6,412.76z"/>
<path d="M455,163c-2.63,0-5.21,1.069-7.07,2.93S445,170.37,445,173s1.069,5.21,2.93,7.069c1.86,1.86,4.44,2.931,7.07,2.931
	s5.21-1.07,7.069-2.931C463.93,178.21,465,175.63,465,173s-1.07-5.21-2.931-7.07C460.21,164.069,457.63,163,455,163z"/>
<path d="M97,354h109v29.6c-15.576,4.684-26.958,19.151-26.958,36.233V432c0,5.522,4.478,10,10,10h133.916c5.522,0,10-4.478,10-10
	v-12.167c0-17.082-11.382-31.549-26.958-36.233V354h109c27.57,0,50-22.43,50-50v-90.333c0-5.522-4.478-10-10-10s-10,4.478-10,10V304
	c0,16.542-13.458,30-30,30H97c-16.542,0-30-13.458-30-30V50c0-16.542,13.458-30,30-30h318c16.542,0,30,13.458,30,30v78
	c0,5.522,4.478,10,10,10s10-4.478,10-10V50c0-27.57-22.43-50-50-50H97C69.43,0,47,22.43,47,50v254C47,331.57,69.43,354,97,354z
	 M312.958,419.833V422H199.042v-2.167c0-9.833,8-17.833,17.833-17.833h78.25C304.958,402,312.958,410,312.958,419.833z M286,354v28
	h-60v-28H286z"/>
<path d="M107,40c-11.028,0-20,8.972-20,20v234c0,11.028,8.972,20,20,20h298c11.028,0,20-8.972,20-20V60c0-11.028-8.972-20-20-20H107
	z M405,294H107V60h298l0.013,233.999C405.013,293.999,405.009,294,405,294z"/>
<path d="M305.638,99.518c-3.02-3.837-8.369-4.933-12.656-2.59c-22.811,12.473-51.152,12.473-73.963,0
	c-4.288-2.345-9.637-1.247-12.656,2.59l-77.152,98.035c-3.133,3.98-2.794,9.674,0.787,13.256
	c34.739,34.738,80.371,52.107,126.003,52.107s91.264-17.369,126.003-52.107c3.581-3.582,3.92-9.275,0.787-13.256L305.638,99.518z
	 M150.57,202.751l66.519-84.523c24.633,10.707,53.189,10.707,77.822,0l66.519,84.523C301.58,256.313,210.42,256.313,150.57,202.751z
	"/>
<path d="M137,100h35.333c5.522,0,10-4.478,10-10s-4.478-10-10-10H137c-5.522,0-10,4.478-10,10S131.478,100,137,100z"/>
<path d="M137,138c2.63,0,5.21-1.07,7.069-2.931C145.93,133.21,147,130.63,147,128s-1.07-5.21-2.931-7.07
	C142.21,119.07,139.63,118,137,118s-5.21,1.069-7.07,2.93S127,125.37,127,128c0,2.63,1.069,5.21,2.93,7.069
	C131.79,136.93,134.37,138,137,138z"/>
<g>
</g>
<g>
</g>
<g>
</g>
<g>
</g>
<g>
</g>
<g>
</g>
<g>
</g>
<g>
</g>
<g>
</g>
<g>
</g>
<g>
</g>
<g>
</g>
<g>
</g>
<g>
</g>
<g>
</g>
</svg>
