<?xml version="1.0" encoding="iso-8859-1"?>
<!-- Generator: Adobe Illustrator 19.0.0, SVG Export Plug-In . SVG Version: 6.00 Build 0)  -->
<svg version="1.1" id="Capa_1" xmlns="http://www.w3.org/2000/svg" xmlns:xlink="http://www.w3.org/1999/xlink" x="0px" y="0px"
	 viewBox="0 0 512.002 512.002" style="enable-background:new 0 0 512.002 512.002;" xml:space="preserve">
<path style="fill:#FFCC9C;" d="M280.877,495.254h70.755c11.869,0,21.491-9.622,21.491-21.491l0,0
	c0-11.869-9.622-21.491-21.491-21.491h-53.668L280.877,495.254z"/>
<g>
	<path style="fill:#FE90C5;" d="M218.372,385.097l-100.225-45.149c-21.143-9.524-45.921,0.94-53.837,22.736l0,0
		c-7.719,21.255,3.77,44.667,25.305,51.566l122.116,34.755l55.718-25.1L218.372,385.097z"/>
	<path style="fill:#FE90C5;" d="M232.799,502l-21.067-52.996l182.126-82.043c21.143-9.524,45.921,0.94,53.837,22.736l0,0
		c7.719,21.255-3.77,44.667-25.305,51.566L232.799,502z"/>
</g>
<path style="fill:#FFCC9C;" d="M232.799,502h-70.755c-11.869,0-21.491-9.622-21.491-21.491l0,0c0-11.869,9.622-21.491,21.491-21.491
	h53.668L232.799,502z"/>
<path style="fill:#FE90C5;" d="M398.738,269.71l-10.328-85.237c-3.779-31.191-30.251-54.649-61.67-54.649h-65.182h-66.904
	c-28.637,0-53.563,19.576-60.351,47.397l-22.752,93.259c-3.252,16.799,2.354,33.711,14.998,45.24
	c9.139,8.335,20.739,12.75,32.674,12.749c0.747,0,1.495-0.024,2.243-0.058v33.843c0,0,55.621,19.026,55.225,30.176
	c-0.416,11.705,8.949,21.324,20.562,21.324h48.35c4.572,0,9.013-1.523,12.623-4.328l60.712-47.172h0.338v-0.263l0.392-0.305
	C387.955,339.709,402.56,305.326,398.738,269.71z M154.275,285.315c-1.169-1.066-3.026-3.395-2.325-7.014l9.516-49.393v58.079
	C157.928,288.016,155.441,286.38,154.275,285.315z"/>
<g>
	<path style="fill:#FFCC9C;" d="M274.493,295.207c-0.396-11.149-9.897-19.825-21.054-19.825H211.73v41.149h42.201
		C265.544,316.531,274.909,306.911,274.493,295.207z"/>
	<path style="fill:#FFCC9C;" d="M216.691,392.429c-0.416,11.705,8.949,21.324,20.562,21.324h41.297v-41.149h-40.804
		C226.589,372.604,217.088,381.279,216.691,392.429z"/>
	<path style="fill:#FFCC9C;" d="M261.276,10L261.276,10c-30.376,0-55,24.624-55,55v10c0,30.376,24.624,55,55,55l0,0
		c30.376,0,55-24.624,55-55V65C316.276,34.624,291.652,10,261.276,10z"/>
</g>
<path d="M386.727,221.84c-1.86,1.86-2.931,4.44-2.931,7.07s1.07,5.21,2.931,7.07c1.859,1.86,4.43,2.93,7.069,2.93
	c2.63,0,5.21-1.07,7.07-2.93c1.86-1.86,2.93-4.44,2.93-7.07c0-2.64-1.069-5.21-2.93-7.07s-4.44-2.93-7.07-2.93
	C391.156,218.91,388.586,219.98,386.727,221.84z"/>
<path d="M457.093,386.284c-4.719-12.995-14.73-23.533-27.468-28.912c-12.735-5.379-27.271-5.207-39.875,0.472l-21.244,9.57
	c29.265-24.176,44.246-60.835,40.176-98.77c-0.005-0.046-0.011-0.091-0.016-0.136l-0.653-5.394
	c-0.665-5.483-5.648-9.395-11.13-8.725c-5.483,0.664-9.39,5.647-8.726,11.129l0.646,5.324c3.424,32.121-9.758,63.125-35.27,82.946
	l-61.444,47.74c-0.588,0.457-1.226,0.84-1.893,1.162l-0.562,0.253c-0.354,0.146-0.716,0.271-1.084,0.378v-25.824l52.009-40.409
	c19.697-15.307,29.869-39.253,27.209-64.056c-0.042-0.385-0.105-0.767-0.19-1.145l-15.248-67.273
	c-1.222-5.385-6.57-8.764-11.964-7.542c-5.386,1.221-8.763,6.577-7.542,11.963l15.114,66.683
	c1.708,17.665-5.611,34.668-19.65,45.577l-53.165,41.308h-37.376c-9.112,0-17.284,3.803-22.96,9.91l-39.144-17.633
	c-1.95-7.895,1.557-15.864,3.775-19.845l29.208-8.504h45.306c8.373,0,16.187-3.318,22.002-9.344
	c5.813-6.024,8.852-13.957,8.554-22.336c-0.587-16.525-14.225-29.47-31.048-29.47h-49.174c-2.891,0-5.764,0.409-8.546,1.218
	l-33.192,9.664l9.64-50.033c1.045-5.423-2.505-10.667-7.928-11.711c-5.423-1.048-10.667,2.504-11.711,7.928l-10.395,53.952
	c-1.19,6.146,0.78,12.09,5.4,16.301c4.625,4.223,10.726,5.639,16.734,3.887l37.037-10.783c0.14-0.041,0.285-0.057,0.426-0.092
	v21.996l-31.548,9.184c-3.595,1.046-7.282,1.576-10.961,1.576c-9.557,0.001-18.767-3.6-25.936-10.139
	c-9.99-9.109-14.452-22.449-11.96-35.726l22.691-93.013c5.713-23.415,26.535-39.768,50.637-39.768h132.085
	c26.332,0,48.576,19.712,51.742,45.853l0.907,7.481c0.616,5.074,4.93,8.797,9.915,8.797c0.401,0,0.808-0.024,1.217-0.074
	c5.482-0.665,9.388-5.648,8.724-11.131l-0.907-7.48c-4.382-36.17-35.162-63.446-71.598-63.446h-18.458
	c11.135-11.672,17.995-27.457,17.995-44.824V65c0-35.841-29.159-65-65-65s-65,29.159-65,65v10c0,17.367,6.86,33.152,17.995,44.824
	h-19.616c-33.35,0-62.161,22.628-70.066,55.027l-22.752,93.259c-0.038,0.155-0.072,0.313-0.103,0.47
	c-3.92,20.249,2.838,40.634,18.076,54.527c10.217,9.32,23.209,14.696,36.83,15.301c-0.606,2.294-1.083,4.742-1.35,7.304
	l-33.036-14.882c-12.605-5.681-27.14-5.85-39.876-0.473c-12.736,5.379-22.748,15.916-27.468,28.912
	c-4.67,12.858-3.923,26.704,2.104,38.985c6.026,12.281,16.521,21.344,29.549,25.518c1.015,0.325,2.042,0.479,3.053,0.479
	c4.231,0,8.161-2.707,9.521-6.952c1.685-5.259-1.213-10.889-6.473-12.574c-7.802-2.499-14.087-7.927-17.695-15.281
	c-3.609-7.355-4.058-15.647-1.261-23.348c2.868-7.897,8.71-14.046,16.449-17.314c7.739-3.27,16.222-3.169,23.881,0.282
	l49.521,22.308c0.002,0.001,0.004,0.002,0.006,0.003l43.204,19.462c-0.031,0.41-0.06,0.82-0.075,1.235
	c-0.298,8.38,2.74,16.312,8.554,22.336c5.815,6.025,13.629,9.344,22.002,9.344h6.188l-32.485,14.634l-49.887-14.198
	c-5.313-1.516-10.843,1.568-12.355,6.881c-1.512,5.312,1.569,10.844,6.881,12.355l19.651,5.593h-13.201
	c-17.365,0-31.492,14.127-31.492,31.491S144.678,512,162.044,512h70.728c0,0,0.017,0.002,0.026,0.002
	c1.012,0,2.04-0.154,3.052-0.479l129.522-41.494c-0.465,1.154-0.728,2.412-0.728,3.733c0,6.336-5.155,11.491-11.491,11.491h-20.237
	c-5.522,0-10,4.478-10,10s4.478,10,10,10h20.237c17.364,0,31.491-14.127,31.491-31.491c0-3.543-1.848-6.648-4.628-8.425
	l45.423-14.552c13.028-4.174,23.522-13.236,29.55-25.518C461.016,412.987,461.763,399.142,457.093,386.284z M216.275,75V65
	c0-24.813,20.187-45,45-45s45,20.187,45,45v10c0,23.516-18.135,42.865-41.153,44.824h-3.565h-4.129
	C234.411,117.865,216.275,98.516,216.275,75z M264.499,295.562c0.104,2.906-0.946,5.654-2.957,7.736
	c-2.012,2.085-4.715,3.233-7.61,3.233h-32.2v-21.149h31.708C259.339,285.382,264.301,289.948,264.499,295.562z M229.642,400.52
	c-2.01-2.082-3.06-4.829-2.956-7.735c0.199-5.613,5.161-10.181,11.061-10.181h30.804v21.149h-31.297
	C234.355,403.753,231.652,402.604,229.642,400.52z M150.551,480.509c0-6.336,5.155-11.491,11.492-11.491h46.882L218.062,492h-56.018
	C155.706,492,150.551,486.845,150.551,480.509z M437.034,416.458c-3.609,7.354-9.894,12.782-17.696,15.281l-180.696,57.889
	l-13.708-34.482c-0.004-0.009-0.007-0.019-0.011-0.028l-0.367-0.922l173.409-78.117c7.659-3.45,16.139-3.552,23.88-0.282
	c7.739,3.269,13.581,9.418,16.449,17.315C441.091,400.812,440.644,409.103,437.034,416.458z"/>
<path d="M134.245,424.1c0-2.63-1.07-5.21-2.93-7.069c-1.86-1.86-4.44-2.931-7.07-2.931s-5.21,1.07-7.07,2.931
	c-1.859,1.859-2.93,4.439-2.93,7.069c0,2.641,1.07,5.21,2.93,7.08c1.86,1.86,4.431,2.92,7.07,2.92c2.63,0,5.21-1.06,7.07-2.92
	C133.176,429.31,134.245,426.74,134.245,424.1z"/>
<path d="M269.642,222.738c-5.522,0-10,4.477-10,10s4.478,10,10,10c20.129,0,37.681,13.618,42.683,33.116l0.74,2.885
	c1.159,4.516,5.223,7.517,9.68,7.517c0.822,0,1.659-0.102,2.492-0.315c5.35-1.373,8.573-6.822,7.201-12.172l-0.74-2.884
	C324.425,242.537,298.907,222.738,269.642,222.738z"/>
<g>
</g>
<g>
</g>
<g>
</g>
<g>
</g>
<g>
</g>
<g>
</g>
<g>
</g>
<g>
</g>
<g>
</g>
<g>
</g>
<g>
</g>
<g>
</g>
<g>
</g>
<g>
</g>
<g>
</g>
</svg>
