<?xml version="1.0" encoding="iso-8859-1"?>
<!-- Generator: Adobe Illustrator 19.0.0, SVG Export Plug-In . SVG Version: 6.00 Build 0)  -->
<svg version="1.1" id="Capa_1" xmlns="http://www.w3.org/2000/svg" xmlns:xlink="http://www.w3.org/1999/xlink" x="0px" y="0px"
	 viewBox="0 0 512 512" style="enable-background:new 0 0 512 512;" xml:space="preserve">
<path style="fill:#C8ADFF;" d="M296.224,218h-38.721l0,0H253l0.131,0.073c-76.124,2.311-137.127,64.74-137.127,141.424V502H307
	h69.881H402v-4.511c27.377-10.194,46.882-36.56,46.882-67.489v-59.341C448.882,286.348,380.535,218,296.224,218z"/>
<path style="fill:#FEAF65;" d="M363.286,120.538v-3.251C363.286,58.034,315.253,10,256,10l0,0
	c-59.253,0-107.287,48.034-107.287,107.287v3.251c0,53.827,43.635,97.462,97.462,97.462h19.65
	C319.652,218,363.286,174.365,363.286,120.538z"/>
<path style="fill:#F2EBFF;" d="M353.888,279.631L353.888,279.631c-30.302-30.302-79.431-30.302-109.733,0l-86.042,86.042
	c-30.302,30.302-30.302,79.431,0,109.733l0,0c30.302,30.302,79.431,30.302,109.733,0l86.042-86.042
	C384.19,359.062,384.19,309.933,353.888,279.631z"/>
<path style="fill:#C8ADFF;" d="M117,363.5V416c0,17.673,14.327,32,32,32h55.999c14.912,0,27,12.088,27,27l0,0
	c0,14.912-12.088,27-27,27h-69.881c-39.764,0-72-32.236-72-72v-59.341C63.118,286.348,131.465,218,215.776,218H256"/>
<g>
	<path style="fill:#FFCC9C;" d="M322,117.168V152c0,36.451-29.549,66-66,66l0,0c-36.451,0-66-29.549-66-66v-34.832
		c0,0,81.005-8.403,97.81-35.411C296.213,109.966,322,117.168,322,117.168z"/>
	<circle style="fill:#FFCC9C;" cx="296.54" cy="336.98" r="46.09"/>
</g>
<path d="M296.54,393.042c14.364,0,28.728-5.468,39.663-16.402c21.87-21.87,21.87-57.455,0-79.325
	c-21.872-21.869-57.455-21.868-79.325,0c-21.868,21.87-21.868,57.455,0,79.325C267.814,387.574,282.178,393.042,296.54,393.042z
	 M271.021,311.457c7.036-7.036,16.278-10.554,25.521-10.554c9.241,0,18.483,3.518,25.52,10.554c14.072,14.071,14.072,36.969,0,51.04
	c-14.069,14.071-36.967,14.073-51.04,0C256.95,348.426,256.95,325.528,271.021,311.457z"/>
<path d="M403.769,276.923c1.977,2.251,4.739,3.4,7.517,3.4c2.343,0,4.697-0.819,6.596-2.487c4.149-3.645,4.559-9.963,0.913-14.112
	l-0.38-0.434c-3.644-4.15-9.964-4.559-14.112-0.913c-4.149,3.645-4.559,9.963-0.913,14.112L403.769,276.923z"/>
<path d="M442.682,299.812c-2.408-4.97-8.392-7.045-13.359-4.639c-4.971,2.408-7.047,8.39-4.639,13.359
	c9.422,19.445,14.199,40.348,14.199,62.126V430c0,34.187-27.813,62-62,62H307c-9.374,0-17-7.626-17-17s7.626-17,17-17H363
	c23.159,0,42-18.841,42-42v-32c0-5.522-4.478-10-10-10s-10,4.478-10,10v32c0,12.131-9.869,22-22,22h-43.605l41.564-41.564
	c34.152-34.152,34.152-89.723,0-123.876c-34.152-34.152-89.724-34.151-123.876,0l-86.042,86.042
	c-6.551,6.551-11.985,14.024-16.152,22.212c-2.505,4.922-0.546,10.943,4.376,13.448c4.921,2.503,10.942,0.546,13.448-4.376
	c3.213-6.313,7.408-12.079,12.471-17.142l37.579-37.579c-3.682,26.336-1.614,53.117,6.236,78.879
	c1.313,4.312,5.276,7.088,9.562,7.088c0.966,0,1.947-0.142,2.919-0.438c5.283-1.609,8.261-7.197,6.65-12.48
	c-9.918-32.548-9.489-66.932,1.239-99.433c0.034-0.102,0.054-0.205,0.084-0.307l21.772-21.772c26.355-26.355,69.239-26.354,95.591,0
	c26.354,26.354,26.354,69.236,0,95.591l-86.042,86.042c-5.662,5.662-12.257,10.23-19.427,13.548c0.422-2.232,0.652-4.53,0.652-6.883
	c0-20.402-16.598-37-37-37H149c-12.131,0-22-9.869-22-22v-38.634c0-5.522-4.478-10-10-10s-10,4.478-10,10V416
	c0,23.159,18.841,42,42,42h55.999c9.374,0,17,7.626,17,17s-7.626,17-17,17h-69.882c-34.187,0-62-27.813-62-62v-59.342
	C73.117,291.996,137.113,228,215.776,228h80.447c27.076,0,53.42,7.615,76.184,22.021c1.659,1.05,3.51,1.552,5.338,1.552
	c3.314,0,6.557-1.646,8.46-4.654c2.953-4.667,1.564-10.844-3.103-13.797c-17.925-11.345-37.792-18.994-58.532-22.646
	c29.313-19.211,48.717-52.349,48.717-89.938v-3.251C373.286,52.615,320.672,0,256,0S138.712,52.615,138.712,117.287v3.251
	c0,37.59,19.404,70.728,48.718,89.939c-76.225,13.451-134.313,80.158-134.313,160.181V430c0,45.215,36.785,82,82,82H205
	c6.322,0,12.277-1.596,17.488-4.403c18.242-1.987,35.45-9.698,49.08-21.96C276.147,500.87,290.295,512,307.001,512h69.882
	c45.215,0,82-36.785,82-82v-59.342C458.883,345.834,453.432,321.997,442.682,299.812z M312,152c0,30.878-25.121,56-56,56
	s-56-25.122-56-56v-26.022c8.214-1.163,21.152-3.286,34.983-6.674c22.304-5.465,38.721-12.104,49.614-20.107
	c8.204,13.731,19.893,21.128,27.402,24.719V152H312z M158.712,120.538v-3.251C158.712,63.643,202.354,20,256,20
	s97.287,43.643,97.287,97.287v3.251c0,25.865-11.29,49.14-29.196,65.167C329.144,175.54,332,164.1,332,152v-34.832
	c0-4.487-2.92-8.405-7.241-9.612c-0.843-0.249-20.722-6.351-27.364-28.654c-1.123-3.771-4.353-6.533-8.252-7.057
	c-3.908-0.521-7.744,1.289-9.822,4.628c-10.34,16.617-60.908,27.679-90.353,30.748c-5.096,0.529-8.968,4.823-8.968,9.947V152
	c0,12.1,2.856,23.54,7.909,33.705C170.001,169.678,158.712,146.403,158.712,120.538z"/>
<path d="M258.236,170.074c-1.161,1.163-3.053,1.161-4.212,0c-3.906-3.905-10.236-3.905-14.143,0c-3.905,3.905-3.905,10.237,0,14.143
	c4.479,4.479,10.364,6.719,16.249,6.719c5.884,0,11.769-2.24,16.248-6.719c3.905-3.905,3.905-10.237,0-14.143
	C268.473,166.168,262.143,166.168,258.236,170.074z"/>
<path d="M297.901,360.759c5.522,0,10-4.478,10-10s-4.478-10-10-10c-1.46,0-2.647-1.188-2.647-2.647c0-5.522-4.478-10-10-10
	s-10,4.478-10,10C275.254,350.6,285.413,360.759,297.901,360.759z"/>
<path d="M109.93,329.35c-1.86,1.86-2.93,4.431-2.93,7.07c0,2.63,1.069,5.2,2.93,7.07c1.86,1.859,4.44,2.93,7.07,2.93
	s5.21-1.07,7.069-2.93c1.86-1.87,2.931-4.44,2.931-7.07c0-2.64-1.07-5.21-2.931-7.07c-1.859-1.87-4.439-2.93-7.069-2.93
	S111.79,327.479,109.93,329.35z"/>
<path d="M240.22,145.22c0-2.64-1.07-5.21-2.93-7.07c-1.86-1.87-4.44-2.93-7.07-2.93s-5.21,1.06-7.07,2.93
	c-1.859,1.86-2.93,4.44-2.93,7.07s1.07,5.21,2.93,7.07s4.44,2.93,7.07,2.93c2.64,0,5.21-1.07,7.07-2.93
	C239.148,150.43,240.22,147.85,240.22,145.22z"/>
<path d="M282.04,135.22c-2.63,0-5.21,1.06-7.07,2.93c-1.86,1.86-2.93,4.44-2.93,7.07s1.069,5.21,2.93,7.07
	c1.86,1.86,4.44,2.93,7.07,2.93s5.21-1.07,7.069-2.93c1.86-1.86,2.931-4.44,2.931-7.07c0-2.64-1.07-5.21-2.931-7.07
	C287.25,136.28,284.67,135.22,282.04,135.22z"/>
<g>
</g>
<g>
</g>
<g>
</g>
<g>
</g>
<g>
</g>
<g>
</g>
<g>
</g>
<g>
</g>
<g>
</g>
<g>
</g>
<g>
</g>
<g>
</g>
<g>
</g>
<g>
</g>
<g>
</g>
</svg>
