<?xml version="1.0" encoding="iso-8859-1"?>
<!-- Generator: Adobe Illustrator 19.0.0, SVG Export Plug-In . SVG Version: 6.00 Build 0)  -->
<svg version="1.1" id="Capa_1" xmlns="http://www.w3.org/2000/svg" xmlns:xlink="http://www.w3.org/1999/xlink" x="0px" y="0px"
	 viewBox="0 0 512.001 512.001" style="enable-background:new 0 0 512.001 512.001;" xml:space="preserve">
<g>
	<path style="fill:#F2EBFF;" d="M290.001,221.673h-280l0,0c0,57.069,46.264,103.333,103.333,103.333h31.815
		c27.956,0,54.688-11.474,73.945-31.74l0,0c19.258-20.266,45.989-31.74,73.945-31.74h3.791L290.001,221.673z"/>
	<path style="fill:#F2EBFF;" d="M218.027,216.531L167.924,50.129c0,0-45.749,31.425-14.128,79.031
		c-18.568-30.1-18.568-30.1-18.568-30.1s-18.042,18.14-16.102,45.5L218.027,216.531z"/>
	<path style="fill:#F2EBFF;" d="M167.071,273.336c-88.574,0.588-104.916-68.084-104.916-68.084s0,0,38.998,9.048
		c-65.918-13.437-58.497-69.045-58.497-69.045s0,0,32.998,12.724C21.67,139.218,39.071,86.514,39.071,86.514l186.034,135.159h25.042
		L167.071,273.336z"/>
	<circle style="fill:#F2EBFF;" cx="328.251" cy="232.671" r="42"/>
</g>
<polygon style="fill:#FEAF65;" points="359.755,204.34 502.001,232.673 359.755,261.006 "/>
<path style="fill:#FE61AD;" d="M424.547,250.431l-74.772,160.47c-3.4,7.297-1.875,15.941,3.818,21.633l0,0
	c39.187,39.187,102.723,39.187,141.91,0l0,0c5.692-5.692,7.218-14.336,3.818-21.633L424.547,250.431z"/>
<path d="M34.994,138.827c-1.205,1.437-1.997,3.202-2.251,5.105c-0.09,0.676-2.124,16.752,5.188,34.598
	c2.925,7.138,7.605,15.178,15.096,22.636c-0.887,1.98-1.119,4.227-0.602,6.401c0.19,0.801,4.858,19.825,21.489,38.582
	c15.082,17.009,43.26,37.191,92.041,37.191c0.391,0,0.788-0.002,1.181-0.004c5.522-0.037,9.97-4.544,9.934-10.066
	c-0.037-5.5-4.507-9.934-9.999-9.934c-0.022,0-0.045,0-0.067,0c-0.357,0.003-0.702,0.004-1.057,0.004
	c-52.364,0-76.513-26.004-86.929-43.91l13.659,3.169c2.086,0.543,4.243,1.044,6.478,1.499c5.359,1.095,10.604-2.324,11.768-7.669
	c1.165-5.345-2.182-10.634-7.511-11.87l-6.012-1.395c-20.329-5.35-33.992-15.923-40.655-31.482
	c-1.745-4.076-2.808-8.057-3.443-11.604l13.251,5.11c1.854,0.787,3.791,1.533,5.817,2.237c5.161,1.792,10.795-0.882,12.673-6.005
	c1.878-5.125-0.7-10.808-5.792-12.771l-5.061-1.951c-15.487-6.649-24.592-17.525-27.089-32.385c-0.595-3.544-0.761-6.977-0.685-10.1
	l165.695,120.383c0.002,0.002,0.004,0.003,0.006,0.005l0.897,0.652c5.784,4.201,12.619,6.422,19.768,6.422h17.364
	c5.522,0,10-4.477,10-10s-4.478-10-10-10h-17.364c-2.192,0-4.312-0.517-6.229-1.506L177.5,47.246
	c-0.92-3.058-3.245-5.491-6.257-6.551c-3.012-1.059-6.348-0.617-8.98,1.191c-0.548,0.376-13.519,9.399-22.051,25.14
	c-3.287,6.063-6.175,13.579-7.192,22.28c-1.829,0.415-3.528,1.34-4.882,2.702c-0.677,0.68-13.189,13.501-17.618,34.054
	L44.948,78.424c-2.583-1.876-5.907-2.407-8.945-1.428c-3.039,0.979-5.428,3.351-6.429,6.383c-0.208,0.631-5.072,15.664-2.339,33.359
	C28.288,123.553,30.538,131.285,34.994,138.827z M134.745,117.324l7.443,12.066c1,1.749,2.091,3.516,3.277,5.303
	c3.021,4.546,9.125,5.832,13.723,2.889c4.596-2.942,5.983-9.027,3.118-13.672l-2.848-4.615c-8.304-14.667-8.971-28.835-1.964-42.176
	c1.671-3.182,3.617-6.015,5.567-8.455l36.834,122.334l-70.897-51.509C129.191,130.606,131.849,123.012,134.745,117.324z"/>
<path d="M10.001,349.283c-2.63,0-5.21,1.06-7.07,2.92c-1.86,1.87-2.93,4.44-2.93,7.08c0,2.63,1.069,5.2,2.93,7.07
	c1.86,1.859,4.44,2.93,7.07,2.93s5.21-1.07,7.069-2.93c1.86-1.87,2.931-4.44,2.931-7.07c0-2.64-1.07-5.21-2.931-7.08
	C15.211,350.342,12.631,349.283,10.001,349.283z"/>
<path d="M454.561,322.953c-1.859,1.86-2.93,4.43-2.93,7.06c0,2.641,1.07,5.21,2.93,7.08c1.86,1.86,4.44,2.931,7.07,2.931
	s5.21-1.07,7.07-2.931c1.869-1.87,2.93-4.449,2.93-7.08c0-2.619-1.061-5.199-2.93-7.06c-1.86-1.87-4.44-2.93-7.07-2.93
	S456.421,321.083,454.561,322.953z"/>
<path d="M486.759,360.265c-2.332-5.006-8.28-7.176-13.288-4.841c-5.006,2.333-7.173,8.282-4.841,13.288l21.626,46.412
	c1.618,3.474,0.886,7.628-1.824,10.338c-35.226,35.227-92.541,35.227-127.769,0.001c-2.71-2.711-3.442-6.865-1.824-10.339
	l65.709-141.018l12.524,26.88c2.333,5.006,8.282,7.175,13.288,4.841c5.006-2.333,7.173-8.282,4.841-13.288l-17.204-36.922
	l65.957-13.138c4.679-0.932,8.047-5.038,8.047-9.807s-3.369-8.875-8.047-9.807l-139.916-27.869
	c-10.471-9.95-25.058-15.608-40.921-14.075c-24.822,2.399-44.636,22.55-46.684,47.404c-0.702,8.523,0.685,16.656,3.676,23.969
	c-25.851,3.038-50.207,15.08-68.266,34.084c-17.287,18.193-41.598,28.628-66.696,28.628h-31.814
	c-48.087,0-87.797-36.553-92.801-83.333h5.864c5.523,0,10-4.477,10-10l0,0c0-5.523-4.477-10-10-10H10c-5.508,0-9.998,4.459-10,9.967
	c-0.018,62.507,50.83,113.366,113.333,113.366h20.011l-14.295,14.272H46.344c-5.326,0-9.977,4.019-10.321,9.334
	c-0.378,5.824,4.235,10.666,9.978,10.666h77.187c2.649,0,5.19-1.051,7.065-2.923l32.878-32.827
	c23.796-3.906,46.031-15.454,62.868-33.012c17.573-18.326,41.651-28.99,67.041-28.99h0.707c9.188,8.17,21.276,13.146,34.509,13.146
	c13.856,0,26.453-5.458,35.783-14.323l44.308-8.826l-67.636,145.153c-5.154,11.063-2.819,24.296,5.811,32.928
	c21.513,21.512,49.77,32.268,78.026,32.268c28.258,0,56.516-10.756,78.027-32.269c8.63-8.631,10.965-21.863,5.811-32.927
	L486.759,360.265z M378.192,247.137c1.333-4.595,2.063-9.445,2.063-14.464s-0.729-9.869-2.063-14.464l72.617,14.464L378.192,247.137
	z M296.255,232.673c0-17.645,14.355-32,32-32s32,14.355,32,32s-14.355,32-32,32S296.255,250.318,296.255,232.673z"/>
<g>
</g>
<g>
</g>
<g>
</g>
<g>
</g>
<g>
</g>
<g>
</g>
<g>
</g>
<g>
</g>
<g>
</g>
<g>
</g>
<g>
</g>
<g>
</g>
<g>
</g>
<g>
</g>
<g>
</g>
</svg>
