<?xml version="1.0" encoding="iso-8859-1"?>
<!-- Generator: Adobe Illustrator 19.0.0, SVG Export Plug-In . SVG Version: 6.00 Build 0)  -->
<svg version="1.1" id="Capa_1" xmlns="http://www.w3.org/2000/svg" xmlns:xlink="http://www.w3.org/1999/xlink" x="0px" y="0px"
	 viewBox="0 0 512 512" style="enable-background:new 0 0 512 512;" xml:space="preserve">
<g>
	<path style="fill:#FE90C5;" d="M30.868,265.621L30.868,265.621c-13.802,0-23.795-13.17-20.078-26.462l24.416-87.316
		c7.248-25.92,30.869-43.841,57.782-43.841h40.775c26.914,0,50.535,17.922,57.782,43.841l24.416,87.316
		c3.717,13.292-6.276,26.462-20.078,26.462h-1.119H30.868z"/>
	<polyline style="fill:#FE90C5;" points="163.37,184.001 192.553,361.998 34.199,361.998 63.382,184.001 	"/>
</g>
<g>
	<path style="fill:#FFCC9C;" d="M113.376,10.003L113.376,10.003c-24.301,0-43.999,19.699-43.999,43.999v8
		c0,24.301,19.699,43.999,43.999,43.999l0,0c24.301,0,43.999-19.699,43.999-43.999v-8C157.376,29.702,137.676,10.003,113.376,10.003
		z"/>
	<rect x="113.378" y="361.994" style="fill:#FFCC9C;" width="39.999" height="99.868"/>
	<rect x="73.379" y="361.994" style="fill:#FFCC9C;" width="39.999" height="99.868"/>
</g>
<g>
	<path style="fill:#AB81FF;" d="M193.5,501.996L193.5,501.996h-80.124v-40.124h39.999C175.535,461.871,193.5,479.835,193.5,501.996
		L193.5,501.996z"/>
	<path style="fill:#AB81FF;" d="M33.253,501.996h80.124v-40.124H73.377C51.216,461.871,33.253,479.835,33.253,501.996
		L33.253,501.996L33.253,501.996z"/>
</g>
<path style="fill:#DAC7FF;" d="M379.002,176.028L379.002,176.028v122.998H502l0,0C502,231.096,446.932,176.028,379.002,176.028z"/>
<path style="fill:#F2EBFF;" d="M466.122,212.204l-4.108,3.81l-83.012,83.013H502l0,0C502,265.136,488.293,234.45,466.122,212.204z"
	/>
<path style="fill:#DAC7FF;" d="M396.573,404.313h-35.142c-58.226,0-105.426-47.201-105.426-105.426l0,0H502l0,0
	C502,357.112,454.799,404.313,396.573,404.313z"/>
<g>
	<circle style="fill:#BA98FF;" cx="331.695" cy="480.222" r="21.778"/>
	<circle style="fill:#BA98FF;" cx="415.524" cy="480.222" r="21.778"/>
</g>
<path d="M511.999,298.956c0-0.023,0.001-0.047,0.001-0.07c0-0.016-0.002-0.031-0.002-0.047
	c-0.101-73.25-59.722-132.812-132.996-132.812c-5.522,0-10,4.477-10,10v112.859h-66.034l-39.899-39.836
	c-1.875-1.872-4.416-2.923-7.065-2.923h-29.292c0.134-3.206-0.225-6.459-1.12-9.66l-24.416-87.316
	c-6.79-24.284-26.133-42.653-49.763-48.86c9.852-9.788,15.962-23.337,15.962-38.287v-8c0-29.776-24.225-53.999-53.999-53.999
	S59.377,24.228,59.377,54.004v8c0,14.951,6.111,28.5,15.962,38.287c-23.631,6.207-42.973,24.577-49.764,48.861L1.159,236.467
	c-2.621,9.374-0.75,19.198,5.134,26.953c5.884,7.755,14.841,12.202,24.575,12.202c3.291,0,6.201-1.597,8.023-4.05L24.33,360.38
	c-0.475,2.896,0.347,5.855,2.246,8.092c1.9,2.237,4.688,3.526,7.622,3.526h29.179v80.878c-22.864,4.648-40.124,24.906-40.124,49.12
	c0,5.522,4.478,10,10,10h80.124h80.124c5.522,0,10-4.478,10-10c0-24.215-17.261-44.472-40.124-49.12v-80.878h29.179
	c2.935,0,5.722-1.289,7.622-3.526c1.899-2.236,2.721-5.195,2.246-8.092l-14.316-87.314c1.769,1.584,4.098,2.555,6.66,2.555h1.119
	c8.537,0,16.475-3.422,22.268-9.495h33.714l22.797,22.761h-18.659c-5.522,0-10,4.478-10,10c0,53.377,36.422,98.401,85.717,111.543
	c0.26,0.337,0.535,0.665,0.844,0.974l26.904,26.904l-13.52,13.52c-4.289-2.161-9.127-3.387-14.249-3.387
	c-17.522,0-31.777,14.256-31.777,31.777s14.256,31.778,31.777,31.778c17.522,0,31.778-14.256,31.778-31.778
	c0-5.122-1.225-9.96-3.387-14.249l13.52-13.52l13.52,13.52c-2.161,4.289-3.387,9.127-3.387,14.249
	c0,17.522,14.256,31.778,31.778,31.778s31.777-14.256,31.777-31.778s-14.256-31.777-31.777-31.777c-5.122,0-9.96,1.225-14.249,3.387
	l-13.52-13.52l25.156-25.155c55.878-7.951,98.997-56.061,99.089-114.079c0-0.016,0.002-0.031,0.002-0.047
	C512,299.003,511.999,298.98,511.999,298.956z M79.377,54.003c0-18.748,15.252-33.999,33.999-33.999s33.999,15.252,33.999,33.999v8
	c0,18.748-15.252,33.999-33.999,33.999S79.377,80.75,79.377,62.003C79.377,62.003,79.377,54.003,79.377,54.003z M103.377,451.872
	h-20v-79.874h20V451.872z M73.377,471.871h30v20.125H44.958C49.091,480.286,60.27,471.871,73.377,471.871z M181.794,491.996h-58.418
	v-20.125h30C166.483,471.871,177.661,480.286,181.794,491.996z M143.376,451.872h-20v-79.874h20V451.872z M194.766,255.622
	c-3.726,0-6.969,2.042-8.69,5.064l-12.839-78.303c-0.894-5.45-6.029-9.146-11.486-8.25c-5.45,0.894-9.144,6.036-8.25,11.486
	l27.279,166.379H45.972l3.279-20h58.088c5.522,0,10-4.478,10-10s-4.478-10-10-10H52.53l20.72-126.38
	c0.894-5.45-2.8-10.593-8.25-11.486c-5.454-0.897-10.593,2.801-11.486,8.25l-13.14,80.145c-1.304-4.007-5.065-6.906-9.506-6.906
	c-3.423,0-6.573-1.564-8.643-4.292c-2.068-2.727-2.727-6.182-1.805-9.478l24.416-87.316c6.015-21.511,25.816-36.534,48.151-36.534
	h40.775c22.337,0,42.137,15.024,48.151,36.534l24.416,87.316c0.922,3.297,0.264,6.751-1.805,9.479
	c-2.069,2.727-5.219,4.291-8.642,4.291L194.766,255.622L194.766,255.622z M331.699,491.996c-6.494,0-11.778-5.284-11.778-11.778
	c0-6.494,5.284-11.778,11.778-11.778c6.494,0,11.778,5.284,11.778,11.778C343.477,486.712,338.193,491.996,331.699,491.996z
	 M427.299,480.218c0,6.494-5.284,11.778-11.778,11.778c-6.494,0-11.778-5.284-11.778-11.778c0-6.494,5.284-11.778,11.778-11.778
	C422.016,468.44,427.299,473.723,427.299,480.218z M491.546,288.887h-88.263l62.338-62.338
	C480.037,243.748,489.438,265.282,491.546,288.887z M451.48,212.406l-62.478,62.478v-88.418
	C412.662,188.55,434.246,197.962,451.48,212.406z M363.759,414.313h19.703l-9.852,9.851L363.759,414.313z M396.573,394.313h-35.142
	c-49.243,0-89.895-37.488-94.906-85.428h28.17l34.91,34.854c1.952,1.949,4.509,2.924,7.065,2.924c2.562,0,5.124-0.979,7.076-2.935
	c3.902-3.908,3.897-10.24-0.011-14.142l-20.736-20.703h54.393c0.061,0.01,0.122,0.018,0.183,0.026
	c0.146,0.021,0.291,0.049,0.439,0.063c0.328,0.032,0.657,0.05,0.987,0.05h68.64c-2.539,12.688-9.748,24.191-20.37,31.953
	c-4.459,3.259-5.432,9.516-2.174,13.975c1.959,2.68,4.999,4.101,8.082,4.101c2.047,0,4.113-0.627,5.893-1.927
	c15.772-11.526,26.129-29.015,28.865-48.101h23.524C486.385,356.897,445.768,394.313,396.573,394.313z"/>
<path d="M397.166,350.977l-0.593,0.003c-5.522,0-10,4.478-10,10c0,5.522,4.478,10,10,10l0.765-0.003
	c5.522-0.048,9.961-4.563,9.914-10.086C407.203,355.369,402.676,350.948,397.166,350.977z"/>
<path d="M140.355,311.999c-2.63,0-5.21,1.069-7.069,2.93c-1.86,1.86-2.931,4.44-2.931,7.07c0,2.63,1.07,5.21,2.931,7.069
	c1.859,1.86,4.439,2.931,7.069,2.931s5.21-1.07,7.07-2.931c1.86-1.859,2.93-4.439,2.93-7.069c0-2.641-1.069-5.21-2.93-7.07
	C145.564,313.069,142.985,311.999,140.355,311.999z"/>
<g>
</g>
<g>
</g>
<g>
</g>
<g>
</g>
<g>
</g>
<g>
</g>
<g>
</g>
<g>
</g>
<g>
</g>
<g>
</g>
<g>
</g>
<g>
</g>
<g>
</g>
<g>
</g>
<g>
</g>
</svg>
