<?xml version="1.0" encoding="iso-8859-1"?>
<!-- Generator: Adobe Illustrator 19.0.0, SVG Export Plug-In . SVG Version: 6.00 Build 0)  -->
<svg version="1.1" id="Capa_1" xmlns="http://www.w3.org/2000/svg" xmlns:xlink="http://www.w3.org/1999/xlink" x="0px" y="0px"
	 viewBox="0 0 512 512" style="enable-background:new 0 0 512 512;" xml:space="preserve">
<path style="fill:#FEBD80;" d="M357.544,155.609c10.476-1.419,17.817-11.062,16.398-21.537l0,0
	c-1.464-10.81-11.415-18.386-22.224-16.921l-46.315,6.274c-20.327,2.754-34.767,20.95-33.097,41.158
	c-0.281-5.48-1.619-10.932-4.065-16.012l-12.625-26.223c-4.376-9.09-15.293-12.912-24.383-8.534
	c-9.091,4.375-12.912,15.295-8.534,24.382l12.625,26.224c0.916,1.902,0.661,4.201-0.653,5.856l-19.49,24.574l-1.105,6.788
	c-2.998-8.302-8.329-15.869-15.874-21.614c-20.865-15.886-50.658-11.851-66.544,9.014s-11.851,50.658,9.014,66.544
	c8.108,6.173,17.565,9.325,27.029,9.663l-0.054,0.037h1.186c0.164,0.002,0.329,0,0.493,0h145.988
	c27.953,0,50.613-22.663,50.61-50.616c-0.003-22.547-14.754-41.641-35.128-48.182l25.541-10.711L357.544,155.609z M252.143,207.031
	l11.145-14.042c2.825-3.559,5.004-7.511,6.519-11.676c1.938-5.328,2.784-11.006,2.505-16.656c0.055,0.648,0.126,1.297,0.214,1.949
	c1.048,7.738,4.343,14.614,9.126,20.082L252.143,207.031z"/>
<g>
	<path style="fill:#FEAF65;" d="M502,481h-48V55c0-13.255,10.745-24,24-24l0,0c13.255,0,24,10.745,24,24V481z"/>
	<path style="fill:#FEAF65;" d="M58,481H10V55c0-13.255,10.745-24,24-24l0,0c13.255,0,24,10.745,24,24V481z"/>
</g>
<path style="fill:#CBF8F3;" d="M434,355.127H78c-11.046,0-20-8.954-20-20v-32.063c0-19.847,16.089-35.937,35.937-35.937h324.127
	c19.847,0,35.937,16.089,35.937,35.937v32.063C454,346.173,445.046,355.127,434,355.127z"/>
<rect x="58" y="355.13" style="fill:#DAC7FF;" width="397" height="47.873"/>
<path d="M478,21c-15.269,0-28.217,10.118-32.497,24h-173.33c-5.522,0-10,4.477-10,10s4.478,10,10,10H444v200.176
	c-7.386-5.072-16.319-8.049-25.937-8.049h-59.509c11.202-11.403,17.371-26.457,17.369-42.463
	c-0.005-33.416-27.194-60.602-60.609-60.602h-0.844c-5.522,0-10,4.477-10,10s4.478,10,10,10h0.844
	c22.389,0,40.606,18.215,40.609,40.605c0.002,10.848-4.222,21.047-11.893,28.718c-7.67,7.671-17.868,11.896-28.717,11.896H213.021
	c0.738-0.859,1.456-1.744,2.151-2.656c11.894-15.621,14.532-35.429,8.832-52.809l18.493-23.317
	c3.685-4.633,4.406-11.077,1.837-16.417l-12.626-26.226c-0.957-1.988-1.083-4.231-0.354-6.315c0.729-2.084,2.227-3.759,4.218-4.717
	c1.987-0.957,4.231-1.085,6.316-0.354c2.083,0.729,3.759,2.227,4.717,4.217l12.626,26.224c3.717,7.72,4.146,16.826,1.178,24.984
	c-1.175,3.229-2.842,6.216-4.955,8.879l-12.783,16.107c-3.434,4.326-2.71,10.616,1.616,14.049c1.839,1.459,4.032,2.167,6.21,2.167
	c2.946,0,5.866-1.297,7.84-3.784l12.783-16.107c1.325-1.669,2.54-3.417,3.645-5.231c1.946,1.99,4.533,3.015,7.14,3.015
	c2.369,0,4.749-0.838,6.656-2.541c4.119-3.678,4.478-10,0.8-14.119c-3.768-4.22-6.162-9.429-6.926-15.066
	c-1.018-7.511,0.951-14.969,5.542-20.999c4.592-6.031,11.258-9.912,18.77-10.93l46.314-6.274c5.316-0.725,10.251,3.026,10.973,8.354
	c0.327,2.419-0.307,4.822-1.786,6.765c-1.479,1.942-3.626,3.193-6.048,3.521l-1.209,0.164c-5.473,0.743-9.307,5.781-8.564,11.254
	c0.742,5.472,5.778,9.311,11.254,8.564l1.206-0.164c15.924-2.157,27.123-16.866,24.966-32.79
	c-2.202-16.257-17.223-27.692-33.477-25.488l-46.314,6.274c-12.805,1.735-24.168,8.352-31.996,18.633
	c-0.131,0.172-0.251,0.351-0.379,0.524l-7.059-14.662c-3.275-6.804-9.004-11.924-16.13-14.418c-7.127-2.494-14.798-2.065-21.6,1.211
	c-6.804,3.274-11.925,9.003-14.42,16.131c-2.494,7.127-2.063,14.799,1.213,21.6l11.415,23.71L213.49,180.89
	c-2.69-3.21-5.76-6.181-9.229-8.823c-25.218-19.2-61.357-14.306-80.559,10.914c-17.235,22.636-15.043,54.061,3.82,74.147H93.937
	c-9.617,0-18.55,2.976-25.937,8.049V65h35.144c5.522,0,10-4.477,10-10s-4.478-10-10-10H66.497C62.217,31.118,49.269,21,34,21
	C15.252,21,0,36.252,0,55v426c0,5.522,4.478,10,10,10h48c5.522,0,10-4.478,10-10V363.407c3.13,1.11,6.494,1.72,10,1.72h356
	c3.506,0,6.87-0.61,10-1.72V393H142c-5.522,0-10,4.478-10,10s4.478,10,10,10h302v68c0,5.522,4.478,10,10,10h48
	c5.522,0,10-4.478,10-10V55C512,36.252,496.748,21,478,21z M139.612,195.096c7.366-9.675,18.555-14.763,29.867-14.763
	c7.917,0,15.894,2.492,22.664,7.646c16.444,12.521,19.637,36.086,7.116,52.53s-36.086,19.637-52.531,7.116
	C130.284,235.105,127.092,211.54,139.612,195.096z M48,471H20V55c0-7.72,6.28-14,14-14s14,6.28,14,14V471z M434,345.127H78
	c-5.514,0-10-4.486-10-10v-32.063c0-14.302,11.635-25.937,25.937-25.937h324.127c14.302,0,25.937,11.635,25.937,25.937v32.063
	C444,340.641,439.514,345.127,434,345.127z M492,471h-28V55c0-7.72,6.28-14,14-14s14,6.28,14,14V471z"/>
<path d="M233,65c2.63,0,5.21-1.07,7.069-2.93C241.93,60.21,243,57.63,243,55s-1.07-5.21-2.931-7.07C238.21,46.07,235.63,45,233,45
	s-5.21,1.07-7.07,2.93S223,52.37,223,55s1.069,5.21,2.93,7.07S230.37,65,233,65z"/>
<path d="M104.83,393c-2.63,0-5.21,1.069-7.07,2.93s-2.93,4.44-2.93,7.07s1.069,5.21,2.93,7.069c1.86,1.86,4.44,2.931,7.07,2.931
	c2.64,0,5.21-1.07,7.069-2.931c1.87-1.859,2.931-4.439,2.931-7.069s-1.061-5.21-2.931-7.07C110.04,394.069,107.47,393,104.83,393z"
	/>
<path d="M94.834,112c0,5.523,4.478,10,10,10h3.941l-11.013,11.013c-2.859,2.86-3.715,7.162-2.168,10.898
	c1.548,3.737,5.194,6.173,9.239,6.173h28.084c5.522,0,10-4.477,10-10s-4.478-10-10-10h-3.941l11.013-11.013
	c2.859-2.86,3.715-7.162,2.168-10.898c-1.548-3.737-5.194-6.173-9.239-6.173h-28.084C99.312,102,94.834,106.477,94.834,112z"/>
<path d="M148.779,41h5.633l-12.704,12.704c-2.859,2.86-3.715,7.161-2.168,10.897c1.548,3.737,5.194,6.173,9.239,6.173h29.774
	c5.522,0,10-4.477,10-10s-4.478-10-10-10h-5.633l12.704-12.704c2.859-2.86,3.715-7.161,2.168-10.897
	c-1.548-3.737-5.194-6.173-9.239-6.173h-29.774c-5.522,0-10,4.477-10,10S143.257,41,148.779,41z"/>
<g>
</g>
<g>
</g>
<g>
</g>
<g>
</g>
<g>
</g>
<g>
</g>
<g>
</g>
<g>
</g>
<g>
</g>
<g>
</g>
<g>
</g>
<g>
</g>
<g>
</g>
<g>
</g>
<g>
</g>
</svg>
