<?xml version="1.0" encoding="iso-8859-1"?>
<!-- Generator: Adobe Illustrator 19.0.0, SVG Export Plug-In . SVG Version: 6.00 Build 0)  -->
<svg version="1.1" id="Capa_1" xmlns="http://www.w3.org/2000/svg" xmlns:xlink="http://www.w3.org/1999/xlink" x="0px" y="0px"
	 viewBox="0 0 512 512" style="enable-background:new 0 0 512 512;" xml:space="preserve">
<circle style="fill:#81EEE3;" cx="329" cy="183" r="173"/>
<path style="fill:#FFFFFF;" d="M479.679,260.66L479.679,260.66c-21.229,0-38.438-17.209-38.438-38.438s-17.209-38.438-38.438-38.438
	l0,0c-21.229,0-38.438-17.209-38.438-38.438s-17.209-38.438-38.438-38.438l0,0c-21.229,0-38.438-17.209-38.438-38.438l0,0
	c0-21.229-17.209-38.438-38.438-38.438h-0.901c-30.261,16.028-55.199,40.764-71.464,70.879l-0.293,2.501
	c21.229,0,38.438,17.209,38.438,38.438l0,0c0,21.229,17.209,38.438,38.438,38.438l0,0c21.229,0,38.438,17.209,38.438,38.438
	s17.209,38.438,38.438,38.438l0,0c21.229,0,38.438,17.209,38.438,38.438c0,21.229,17.209,38.438,38.438,38.438l0,0l3.604,1.523
	c28.284-15.164,51.86-37.962,67.977-65.641L479.679,260.66z"/>
<path style="fill:#DAC7FF;" d="M141.777,307.998l-118.89,118.89c-17.183,17.183-17.183,45.042,0,62.225l0,0
	c17.183,17.183,45.042,17.183,62.225,0l118.89-118.89"/>
<path style="fill:#FE61AD;" d="M165.857,263.393l-20.294,20.294c-8.25,8.25-8.25,21.625,0,29.875l52.875,52.875
	c8.25,8.25,21.625,8.25,29.875,0l20.294-20.294"/>
<path d="M329,366c100.907,0,183-82.094,183-183C512,82.093,429.907,0,329,0S146,82.093,146,183c0,25.487,5.244,49.771,14.699,71.838
	c-0.68,0.41-1.326,0.898-1.913,1.485l-20.295,20.294c-7.818,7.818-10.591,18.794-8.335,28.86l-114.34,114.34
	C5.617,430.016,0,443.576,0,458s5.617,27.984,15.816,38.184S39.576,512,54,512s27.985-5.617,38.184-15.816L206.508,381.86
	c2.229,0.5,4.527,0.765,6.867,0.765c8.313,0,16.13-3.237,22.008-9.116l20.294-20.294c0.587-0.587,1.075-1.233,1.485-1.914
	C279.23,360.756,303.513,366,329,366z M492,183c0,24.084-5.256,46.961-14.672,67.554c-14.584-1.2-26.088-13.444-26.088-28.333
	c0-26.709-21.729-48.438-48.438-48.438c-15.681,0-28.438-12.757-28.438-28.438c0-26.709-21.729-48.438-48.438-48.438
	c-15.681,0-28.438-12.757-28.438-28.438c0-16.487-8.286-31.069-20.906-39.821C293.039,23.043,310.671,20,329,20
	C418.878,20,492,93.122,492,183z M250.691,40.081c14.919,0.854,26.796,13.258,26.796,28.388c0,26.709,21.729,48.438,48.438,48.438
	c15.681,0,28.438,12.757,28.438,28.438c0,26.709,21.729,48.438,48.438,48.438c15.681,0,28.438,12.757,28.438,28.438
	c0,22.454,15.359,41.383,36.122,46.846c-14.273,22.863-34.043,41.955-57.458,55.398c-0.914-0.275-1.881-0.427-2.885-0.427
	c-15.681,0-28.438-12.758-28.438-28.438c0-26.709-21.729-48.438-48.438-48.438c-15.681,0-28.438-12.757-28.438-28.438
	c0-26.709-21.729-48.438-48.438-48.438c-15.681,0-28.438-12.757-28.438-28.438c0-21.488-14.069-39.742-33.475-46.062
	C206.099,72.596,226.539,53.368,250.691,40.081z M181.412,113.863c13.293,2.379,23.417,14.018,23.417,27.985
	c0,26.709,21.729,48.438,48.438,48.438c15.681,0,28.438,12.757,28.438,28.438c0,26.709,21.729,48.438,48.438,48.438
	c15.681,0,28.438,12.757,28.438,28.438c0,17.598,9.436,33.031,23.511,41.514C365.442,342.867,347.581,346,329,346
	c-89.878,0-163-73.121-163-163C166,158.296,171.534,134.865,181.412,113.863z M78.042,482.041C71.62,488.463,63.082,492,54,492
	s-17.62-3.537-24.042-9.959C23.537,475.62,20,467.082,20,458s3.537-17.619,9.958-24.041L140.887,323.03l48.083,48.083
	L78.042,482.041z M221.241,359.366c-2.101,2.102-4.895,3.259-7.866,3.259c-1.293,0-2.547-0.231-3.73-0.652
	c-0.766-0.525-1.59-0.927-2.444-1.215c-0.602-0.403-1.168-0.868-1.692-1.391l-52.875-52.875c-0.532-0.531-0.996-1.105-1.397-1.708
	c-0.285-0.841-0.68-1.652-1.196-2.408c-1.4-3.924-0.544-8.48,2.593-11.616l17.322-17.322c16.298,28.55,40.058,52.31,68.608,68.608
	L221.241,359.366z"/>
<path d="M118.179,379.679l-61.25,61.25c-3.905,3.905-3.905,10.237,0,14.143C58.881,457.023,61.441,458,64,458
	s5.119-0.977,7.071-2.929l61.25-61.25c3.905-3.905,3.905-10.237,0-14.143C128.416,375.774,122.084,375.774,118.179,379.679z"/>
<path d="M154.82,357.18c-1.86-1.86-4.44-2.93-7.07-2.93s-5.21,1.069-7.07,2.93c-1.86,1.86-2.93,4.44-2.93,7.07s1.07,5.21,2.93,7.069
	c1.86,1.86,4.44,2.931,7.07,2.931s5.21-1.07,7.07-2.931c1.86-1.859,2.93-4.439,2.93-7.069S156.68,359.04,154.82,357.18z"/>
<path d="M238.09,96.77c2.63,0,5.21-1.07,7.07-2.93c1.86-1.87,2.93-4.44,2.93-7.07c0-2.64-1.07-5.21-2.93-7.07
	c-1.86-1.87-4.44-2.93-7.07-2.93c-2.64,0-5.21,1.06-7.07,2.93c-1.87,1.86-2.93,4.43-2.93,7.07c0,2.63,1.06,5.21,2.93,7.07
	C232.88,95.7,235.46,96.77,238.09,96.77z"/>
<path d="M313.98,172.66c2.64,0,5.21-1.07,7.07-2.93c1.87-1.86,2.93-4.43,2.93-7.07c0-2.63-1.06-5.21-2.93-7.07
	c-1.86-1.86-4.43-2.93-7.07-2.93c-2.63,0-5.21,1.07-7.07,2.93c-1.86,1.86-2.93,4.44-2.93,7.07c0,2.64,1.07,5.21,2.93,7.07
	C308.77,171.59,311.35,172.66,313.98,172.66z"/>
<path d="M392.12,250.8c2.63,0,5.21-1.07,7.07-2.93c1.86-1.86,2.93-4.44,2.93-7.07s-1.07-5.21-2.93-7.07
	c-1.86-1.87-4.44-2.93-7.07-2.93c-2.64,0-5.21,1.06-7.07,2.93c-1.86,1.86-2.93,4.43-2.93,7.07c0,2.63,1.07,5.21,2.93,7.07
	C386.91,249.73,389.48,250.8,392.12,250.8z"/>
<path d="M340.85,72.49c2.63,0,5.21-1.07,7.07-2.93c1.86-1.86,2.93-4.44,2.93-7.07s-1.07-5.21-2.93-7.07s-4.44-2.93-7.07-2.93
	s-5.21,1.07-7.07,2.93s-2.93,4.44-2.93,7.07c0,2.63,1.07,5.21,2.93,7.07C335.64,71.42,338.22,72.49,340.85,72.49z"/>
<path d="M416.75,148.39c2.63,0,5.21-1.07,7.07-2.93c1.86-1.86,2.93-4.44,2.93-7.07c0-2.64-1.07-5.21-2.93-7.07
	c-1.86-1.87-4.44-2.93-7.07-2.93s-5.21,1.06-7.07,2.93c-1.86,1.86-2.93,4.43-2.93,7.07c0,2.63,1.07,5.21,2.93,7.07
	C411.54,147.32,414.12,148.39,416.75,148.39z"/>
<path d="M235.49,234.89c2.63,0,5.21-1.07,7.08-2.93c1.86-1.86,2.92-4.44,2.92-7.07c0-2.64-1.06-5.21-2.92-7.07
	c-1.87-1.86-4.44-2.93-7.08-2.93c-2.63,0-5.21,1.07-7.07,2.93s-2.92,4.43-2.92,7.07c0,2.63,1.06,5.21,2.92,7.07
	C230.29,233.82,232.86,234.89,235.49,234.89z"/>
<path d="M313.63,313.02c2.63,0,5.21-1.06,7.07-2.93c1.86-1.86,2.93-4.44,2.93-7.07s-1.07-5.21-2.93-7.069
	c-1.86-1.86-4.44-2.931-7.07-2.931s-5.21,1.07-7.07,2.931c-1.86,1.859-2.93,4.439-2.93,7.069s1.07,5.21,2.93,7.07
	C308.42,311.96,311,313.02,313.63,313.02z"/>
<path d="M461.817,348.247l6.187,7.856l-6.225-7.826c-4.322,3.438-5.039,9.729-1.601,14.052c1.975,2.481,4.89,3.774,7.833,3.774
	c2.182,0,4.379-0.71,6.219-2.174l0.236-0.19c4.261-3.486,4.876-9.74,1.409-14.017C472.406,345.447,466.109,344.799,461.817,348.247z
	"/>
<path d="M432.697,367.952c-31.489,17.694-67.346,27.047-103.697,27.047c-5.523,0-10,4.478-10,10s4.477,10,10,10
	c39.775,0,79.021-10.239,113.495-29.611c4.814-2.705,6.524-8.802,3.819-13.616C443.608,366.955,437.512,365.248,432.697,367.952z"/>
<path d="M107.001,193c5.523,0,10-4.477,10-10c0-46.214,14.605-90.131,42.237-127.003c3.312-4.42,2.414-10.688-2.005-14
	c-4.42-3.313-10.688-2.414-14,2.005C112.988,84.362,97.001,132.427,97.001,183C97.001,188.523,101.478,193,107.001,193z"/>
<g>
</g>
<g>
</g>
<g>
</g>
<g>
</g>
<g>
</g>
<g>
</g>
<g>
</g>
<g>
</g>
<g>
</g>
<g>
</g>
<g>
</g>
<g>
</g>
<g>
</g>
<g>
</g>
<g>
</g>
</svg>
