<?xml version="1.0" encoding="iso-8859-1"?>
<!-- Generator: Adobe Illustrator 19.0.0, SVG Export Plug-In . SVG Version: 6.00 Build 0)  -->
<svg version="1.1" id="Capa_1" xmlns="http://www.w3.org/2000/svg" xmlns:xlink="http://www.w3.org/1999/xlink" x="0px" y="0px"
	 viewBox="0 0 512.001 512.001" style="enable-background:new 0 0 512.001 512.001;" xml:space="preserve">
<path style="fill:#F2EBFF;" d="M320.258,208.002l8.328,5.151c36.609,22.645,58.889,62.625,58.889,105.671l0,0
	c0,15.885-3.046,31.622-8.973,46.36L323.481,502h-67.546h0.13h-67.546L133.5,365.184c-5.927-14.738-8.973-30.475-8.973-46.36l0,0
	c0-43.047,22.28-83.027,58.889-105.671l8.328-5.151L320.258,208.002L320.258,208.002z"/>
<path style="fill:#FE61AD;" d="M274.008,256.128c-7.068,0-13.441,3.045-17.944,7.926c-4.502-4.88-10.876-7.926-17.944-7.926
	c-13.642,0-24.701,11.343-24.701,25.336c0,19.6,42.645,52.204,42.645,52.204s42.645-32.604,42.645-52.204
	C298.709,267.471,287.65,256.128,274.008,256.128z"/>
<path style="fill:#DAC7FF;" d="M356.907,64.002L356.907,64.002c-41.177,0-77.751,19.683-100.843,50.149
	c-23.092-30.466-59.667-50.149-100.843-50.149l0,0l-0.026,54.828c-0.027,55.662,45.089,100.799,100.751,100.799l0,0l0.118-0.006
	l0.118,0.006l0,0c55.662,0,100.777-45.137,100.751-100.799L356.907,64.002z"/>
<path d="M274.008,246.128c-6.357,0-12.571,1.803-17.944,5.103c-5.373-3.299-11.586-5.103-17.944-5.103
	c-19.134,0-34.701,15.852-34.701,35.336c0,11.041,7.939,24.303,24.271,40.543c10.996,10.934,21.843,19.256,22.3,19.605
	c1.792,1.37,3.933,2.056,6.074,2.056s4.281-0.686,6.074-2.056c0.457-0.35,11.304-8.672,22.3-19.605
	c16.332-16.24,24.271-29.502,24.271-40.543C308.709,261.98,293.142,246.128,274.008,246.128z M256.061,320.875
	c-16.712-13.881-32.642-31.59-32.642-39.411c0-8.456,6.595-15.336,14.701-15.336c4.032,0,7.794,1.671,10.594,4.706
	c1.893,2.053,4.558,3.22,7.35,3.22c2.792,0,5.457-1.167,7.35-3.22c2.8-3.035,6.562-4.706,10.594-4.706
	c8.106,0,14.701,6.88,14.701,15.336C288.709,289.265,272.775,306.98,256.061,320.875z"/>
<path d="M382.232,355.906c-5.124-2.059-10.948,0.424-13.009,5.547L316.724,492H195.276l-8.067-20.061h61.115c5.523,0,10-4.478,10-10
	s-4.477-10-10-10h-69.158l-36.39-90.486c-5.475-13.613-8.25-27.956-8.25-42.629c0-39.869,20.243-76.194,54.15-97.166l8.328-5.151
	c1.002-0.62,1.847-1.395,2.543-2.265c16.896,10.032,36.234,15.389,56.399,15.389c0.079,0,0.157,0,0.236,0
	c20.13,0,39.436-5.339,56.312-15.338c0.688,0.85,1.52,1.607,2.503,2.214l8.328,5.151c20.477,12.667,36.183,31.119,45.42,53.361
	c1.598,3.847,5.318,6.168,9.239,6.168c1.278,0,2.578-0.247,3.832-0.768c5.1-2.118,7.518-7.97,5.4-13.07
	c-10.853-26.135-29.308-47.816-53.369-62.7l-4.398-2.72c1.728-1.529,3.421-3.11,5.066-4.756
	c20.92-20.93,32.434-48.755,32.419-78.348l-0.025-53.057l19.094-52.338c1.893-5.188-0.779-10.929-5.967-12.822
	c-5.191-1.894-10.929,0.779-12.822,5.967l-17.368,47.607c-36.194,1.823-69.521,17.625-93.78,44.33
	c-24.261-26.705-57.588-42.507-93.78-44.33L144.916,6.576c-1.893-5.188-7.633-7.861-12.822-5.967
	c-5.188,1.893-7.86,7.633-5.967,12.822l19.094,52.338l-0.026,53.057c-0.014,29.593,11.5,57.417,32.42,78.348
	c1.629,1.63,3.304,3.195,5.014,4.71l-4.473,2.767c-19.408,12.005-35.539,28.887-46.648,48.822
	c-11.109,19.935-16.981,42.533-16.981,65.354c0,17.241,3.262,34.095,9.695,50.092l55.021,136.815
	c1.523,3.787,5.195,6.269,9.278,6.269h134.961c4.083,0,7.755-2.481,9.278-6.269l55.021-136.815
	C389.84,363.792,387.357,357.968,382.232,355.906z M165.194,118.835l0.021-44.415c32.865,2.761,62.661,19.098,82.879,45.772
	c1.89,2.494,4.839,3.959,7.969,3.959c3.13,0,6.079-1.465,7.969-3.959c20.218-26.674,50.015-43.011,82.879-45.772l0.021,44.415
	c0.012,24.249-9.422,47.049-26.565,64.199c-17.088,17.097-39.794,26.536-63.957,26.596c-0.116-0.004-0.232-0.006-0.348-0.006
	s-0.232,0.002-0.348,0.006c-24.163-0.06-46.869-9.499-63.957-26.596C174.617,165.884,165.182,143.084,165.194,118.835z"/>
<path d="M387.474,308.824c-5.523,0-10,4.478-10,10v0.255c-0.026,5.522,4.429,10.021,9.952,10.048c0.016,0,0.032,0,0.049,0
	c5.5,0,9.973-4.445,9.999-9.952v-0.351C397.474,313.302,392.997,308.824,387.474,308.824z"/>
<path d="M277.257,454.87c-1.86,1.859-2.93,4.439-2.93,7.069c0,2.63,1.07,5.21,2.93,7.07c1.86,1.86,4.44,2.93,7.07,2.93
	c2.63,0,5.21-1.069,7.07-2.93c1.86-1.861,2.93-4.44,2.93-7.07c0-2.63-1.07-5.21-2.93-7.069c-1.86-1.86-4.44-2.931-7.07-2.931
	C281.697,451.94,279.117,453.01,277.257,454.87z"/>
<g>
</g>
<g>
</g>
<g>
</g>
<g>
</g>
<g>
</g>
<g>
</g>
<g>
</g>
<g>
</g>
<g>
</g>
<g>
</g>
<g>
</g>
<g>
</g>
<g>
</g>
<g>
</g>
<g>
</g>
</svg>
