<?xml version="1.0" encoding="iso-8859-1"?>
<!-- Generator: Adobe Illustrator 19.0.0, SVG Export Plug-In . SVG Version: 6.00 Build 0)  -->
<svg version="1.1" id="Capa_1" xmlns="http://www.w3.org/2000/svg" xmlns:xlink="http://www.w3.org/1999/xlink" x="0px" y="0px"
	 viewBox="0 0 512 512" style="enable-background:new 0 0 512 512;" xml:space="preserve">
<path style="fill:#C8ADFF;" d="M462,502H50c-22.091,0-40-17.909-40-40V50c0-22.091,17.909-40,40-40h412c22.091,0,40,17.909,40,40
	v412C502,484.091,484.091,502,462,502z"/>
<path style="fill:#FFFFFF;" d="M392,160H120c-13.255,0-24-10.745-24-24V88c0-13.255,10.745-24,24-24h272c13.255,0,24,10.745,24,24
	v48C416,149.255,405.255,160,392,160z"/>
<path d="M502,319c-2.63,0-5.21-1.07-7.07-2.93S492,311.63,492,309s1.069-5.21,2.93-7.07c1.86-1.86,4.44-2.93,7.07-2.93
	s5.21,1.07,7.069,2.93c1.86,1.86,2.931,4.44,2.931,7.07s-1.07,5.21-2.931,7.07C507.21,317.93,504.63,319,502,319z"/>
<path d="M502,281.281c5.522,0,10-4.477,10-10V50c0-27.57-22.43-50-50-50H50C22.43,0,0,22.43,0,50v412c0,27.57,22.43,50,50,50h412
	c27.57,0,50-22.43,50-50V347.668c0-5.523-4.478-10-10-10s-10,4.477-10,10V462c0,16.542-13.458,30-30,30H50
	c-16.542,0-30-13.458-30-30V50c0-13.036,8.361-24.152,20-28.28v55.613c0,5.523,4.478,10,10,10s10-4.477,10-10V20h402
	c16.542,0,30,13.458,30,30v221.281C492,276.804,496.478,281.281,502,281.281z"/>
<path d="M50,103.33c-2.63,0-5.21,1.07-7.07,2.93S40,110.7,40,113.33c0,2.64,1.069,5.21,2.93,7.07c1.86,1.87,4.44,2.93,7.07,2.93
	s5.21-1.06,7.069-2.93c1.86-1.86,2.931-4.43,2.931-7.07c0-2.63-1.07-5.21-2.931-7.07C55.21,104.4,52.63,103.33,50,103.33z"/>
<path d="M392,170H120c-18.748,0-34-15.252-34-34V88c0-18.748,15.252-34,34-34h272c18.748,0,34,15.252,34,34v48
	C426,154.748,410.748,170,392,170z M120,74c-7.72,0-14,6.28-14,14v48c0,7.72,6.28,14,14,14h272c7.72,0,14-6.28,14-14V88
	c0-7.72-6.28-14-14-14H120z"/>
<path style="fill:#FFCC9C;" d="M315.011,324.739l-2.01-2.788c-10.433-14.473-16.048-31.863-16.048-49.705l0,0
	c0-23.27,20.322-41.318,43.429-38.57l29.54,3.513c33.893,4.031,56.333,37.179,47.483,70.145l0,0
	c-4.924,18.343-7.418,37.253-7.418,56.245v57.71c0,22.449-18.198,40.647-40.647,40.647l0,0c-23.318,0-41.856-19.576-40.587-42.859
	l2.18-40.009C331.99,359.672,326.371,340.498,315.011,324.739z"/>
<path d="M369.34,471.938c-14.052,0-27.111-5.619-36.773-15.822c-9.663-10.203-14.563-23.549-13.799-37.581l2.181-40.01
	c0.93-17.057-4.06-34.082-14.049-47.938l-2.009-2.787c-11.735-16.278-17.938-35.488-17.938-55.553
	c0-13.947,5.98-27.257,16.409-36.519c10.428-9.261,24.349-13.631,38.201-11.982l29.54,3.513
	c19.039,2.264,36.122,12.669,46.87,28.546s14.061,35.604,9.09,54.122c-4.695,17.491-7.076,35.543-7.076,53.653v57.71
	C419.987,449.217,397.267,471.938,369.34,471.938z M335.802,243.405c-7.021,0-13.854,2.566-19.159,7.277
	c-6.157,5.469-9.689,13.329-9.689,21.565c0,15.84,4.896,31.006,14.161,43.857l2.009,2.787h0.001
	c12.652,17.552,18.972,39.117,17.795,60.722l-2.181,40.01c-0.463,8.49,2.503,16.566,8.35,22.74s13.749,9.574,22.252,9.574
	c16.899,0,30.647-13.749,30.647-30.647v-57.71c0-19.86,2.61-39.656,7.76-58.838c3.465-12.908,1.156-26.658-6.336-37.725
	c-7.491-11.067-19.398-18.319-32.669-19.897l-29.54-3.513C338.067,243.472,336.932,243.405,335.802,243.405z"/>
<path d="M333.29,213.09c-2.641,0-5.21-1.06-7.07-2.93c-1.86-1.86-2.93-4.43-2.93-7.07c0-2.63,1.069-5.21,2.93-7.07
	c1.86-1.86,4.44-2.93,7.07-2.93s5.21,1.07,7.069,2.93c1.86,1.86,2.931,4.44,2.931,7.07s-1.07,5.21-2.931,7.07
	C338.5,212.03,335.92,213.09,333.29,213.09z"/>
<path d="M364.04,213.09c-2.641,0-5.21-1.06-7.08-2.93c-1.86-1.86-2.92-4.43-2.92-7.07c0-2.63,1.06-5.21,2.92-7.07
	c1.87-1.86,4.45-2.93,7.08-2.93c2.62,0,5.2,1.07,7.069,2.93c1.86,1.86,2.931,4.44,2.931,7.07s-1.07,5.21-2.931,7.07
	C369.25,212.03,366.67,213.09,364.04,213.09z"/>
<path d="M394.77,221.77c-2.63,0-5.21-1.06-7.069-2.93c-1.86-1.86-2.931-4.43-2.931-7.07c0-2.63,1.07-5.21,2.931-7.07
	c1.859-1.86,4.439-2.93,7.069-2.93s5.21,1.07,7.07,2.93c1.86,1.87,2.93,4.44,2.93,7.07s-1.069,5.21-2.93,7.07
	C399.979,220.71,397.399,221.77,394.77,221.77z"/>
<path d="M420.46,236.91c-2.641,0-5.21-1.07-7.08-2.93c-1.86-1.86-2.92-4.44-2.92-7.07s1.06-5.21,2.92-7.07
	c1.87-1.86,4.45-2.93,7.08-2.93c2.62,0,5.2,1.07,7.069,2.93c1.86,1.86,2.931,4.44,2.931,7.07s-1.07,5.21-2.931,7.07
	C425.66,235.84,423.09,236.91,420.46,236.91z"/>
<path d="M296.95,219.36c-2.631,0-5.2-1.07-7.07-2.93c-1.86-1.86-2.93-4.44-2.93-7.07s1.069-5.21,2.93-7.07
	c1.86-1.86,4.439-2.93,7.07-2.93c2.64,0,5.21,1.07,7.069,2.93c1.87,1.86,2.931,4.44,2.931,7.07s-1.061,5.21-2.931,7.07
	C302.16,218.29,299.58,219.36,296.95,219.36z"/>
<path style="fill:#FFCC9C;" d="M196.989,324.739l2.01-2.788c10.434-14.473,16.048-31.863,16.048-49.705l0,0
	c0-23.27-20.322-41.318-43.429-38.57l-29.54,3.513c-33.893,4.031-56.333,37.179-47.483,70.145l0,0
	c4.924,18.343,7.418,37.253,7.418,56.245v57.71c0,22.449,18.198,40.647,40.647,40.647l0,0c23.318,0,41.856-19.576,40.587-42.859
	l-2.18-40.009C180.01,359.672,185.629,340.498,196.989,324.739z"/>
<path d="M142.66,471.938c-27.927,0-50.647-22.72-50.647-50.647v-57.71c0-18.11-2.381-36.162-7.076-53.653
	c-4.971-18.518-1.658-38.244,9.09-54.122c10.748-15.877,27.831-26.282,46.87-28.546l29.54-3.513
	c13.85-1.646,27.774,2.721,38.201,11.982c10.429,9.261,16.409,22.572,16.409,36.519c0,20.065-6.202,39.275-17.937,55.552
	l-2.01,2.788c-9.989,13.856-14.979,30.881-14.049,47.938l2.181,40.009c0.765,14.032-4.136,27.378-13.799,37.581
	C169.771,466.318,156.712,471.938,142.66,471.938z M176.198,243.405c-1.13,0-2.266,0.066-3.4,0.202l-29.54,3.513
	c-13.271,1.578-25.178,8.83-32.669,19.897c-7.492,11.067-9.801,24.817-6.336,37.725c5.149,19.182,7.76,38.978,7.76,58.838v57.71
	c0,16.899,13.748,30.647,30.647,30.647c8.503,0,16.405-3.4,22.252-9.574s8.813-14.25,8.35-22.741l-2.181-40.009
	c-1.177-21.605,5.143-43.17,17.795-60.722h0.001l2.01-2.788c9.264-12.851,14.16-28.016,14.16-43.856
	c0-8.236-3.532-16.096-9.689-21.565C190.054,245.972,183.218,243.405,176.198,243.405z"/>
<path d="M178.71,213.09c-2.63,0-5.21-1.06-7.07-2.93c-1.86-1.86-2.93-4.43-2.93-7.07c0-2.63,1.069-5.21,2.93-7.07
	c1.86-1.86,4.44-2.93,7.07-2.93s5.21,1.07,7.069,2.93c1.86,1.86,2.931,4.44,2.931,7.07c0,2.64-1.07,5.21-2.931,7.07
	C183.92,212.03,181.34,213.09,178.71,213.09z"/>
<path d="M147.97,213.09c-2.63,0-5.21-1.06-7.08-2.92c-1.86-1.87-2.93-4.44-2.93-7.08c0-2.63,1.069-5.21,2.93-7.07
	c1.87-1.86,4.45-2.93,7.08-2.93c2.62,0,5.2,1.07,7.06,2.93c1.87,1.86,2.931,4.44,2.931,7.07c0,2.64-1.061,5.21-2.931,7.08
	C153.17,212.03,150.59,213.09,147.97,213.09z"/>
<path d="M117.229,221.77c-2.64,0-5.21-1.06-7.069-2.92c-1.86-1.87-2.931-4.45-2.931-7.08s1.07-5.21,2.931-7.07
	c1.859-1.86,4.43-2.93,7.069-2.93c2.63,0,5.21,1.07,7.07,2.93c1.86,1.86,2.93,4.44,2.93,7.07c0,2.64-1.069,5.21-2.93,7.08
	C122.439,220.71,119.859,221.77,117.229,221.77z"/>
<path d="M91.54,236.91c-2.63,0-5.2-1.07-7.07-2.93c-1.86-1.86-2.93-4.44-2.93-7.07s1.069-5.21,2.93-7.07
	c1.87-1.86,4.44-2.93,7.07-2.93s5.21,1.07,7.08,2.93c1.859,1.86,2.92,4.44,2.92,7.07s-1.061,5.21-2.92,7.07
	C96.75,235.84,94.17,236.91,91.54,236.91z"/>
<path d="M215.05,219.36c-2.64,0-5.21-1.07-7.07-2.93c-1.859-1.86-2.93-4.44-2.93-7.07s1.07-5.21,2.93-7.07
	c1.851-1.86,4.431-2.93,7.07-2.93c2.63,0,5.21,1.07,7.07,2.93c1.859,1.86,2.93,4.44,2.93,7.07s-1.07,5.21-2.93,7.07
	C220.26,218.29,217.68,219.36,215.05,219.36z"/>
<path d="M256,105.33c-2.63,0-5.21-1.06-7.07-2.93c-1.86-1.86-2.93-4.44-2.93-7.07c0-2.62,1.069-5.2,2.93-7.07
	c1.86-1.86,4.44-2.93,7.07-2.93s5.21,1.07,7.069,2.93c1.86,1.86,2.931,4.44,2.931,7.07c0,2.64-1.07,5.21-2.931,7.07
	C261.21,104.27,258.63,105.33,256,105.33z"/>
<path d="M256,134c-2.63,0-5.21-1.07-7.07-2.93S246,126.63,246,124s1.069-5.21,2.93-7.07c1.86-1.86,4.44-2.93,7.07-2.93
	s5.21,1.07,7.069,2.93c1.86,1.86,2.931,4.44,2.931,7.07s-1.07,5.21-2.931,7.07C261.21,132.93,258.63,134,256,134z"/>
<path d="M210.284,122H160c-5.522,0-10-4.477-10-10s4.478-10,10-10h50.284c5.522,0,10,4.477,10,10S215.807,122,210.284,122z"/>
<path d="M352,122h-50.284c-5.522,0-10-4.477-10-10s4.478-10,10-10H352c5.522,0,10,4.477,10,10S357.522,122,352,122z"/>
<g>
</g>
<g>
</g>
<g>
</g>
<g>
</g>
<g>
</g>
<g>
</g>
<g>
</g>
<g>
</g>
<g>
</g>
<g>
</g>
<g>
</g>
<g>
</g>
<g>
</g>
<g>
</g>
<g>
</g>
</svg>
