<?xml version="1.0" encoding="iso-8859-1"?>
<!-- Generator: Adobe Illustrator 19.0.0, SVG Export Plug-In . SVG Version: 6.00 Build 0)  -->
<svg version="1.1" id="Capa_1" xmlns="http://www.w3.org/2000/svg" xmlns:xlink="http://www.w3.org/1999/xlink" x="0px" y="0px"
	 viewBox="0 0 512 512" style="enable-background:new 0 0 512 512;" xml:space="preserve">
<path style="fill:#DAC7FF;" d="M491.572,10H265.798c-5.846,0-10.446,4.994-9.966,10.82l27.56,334.82
	c0.854,10.374,9.523,18.359,19.933,18.359h150.721c10.41,0,19.079-7.985,19.933-18.359l27.56-334.82
	C502.017,14.994,497.418,10,491.572,10z"/>
<path style="fill:#BA98FF;" d="M286.684,395.641l7.072,85.914C294.707,493.108,304.361,502,315.954,502h125.462
	c11.592,0,21.247-8.892,22.198-20.446l7.072-85.914c0.959-11.653-8.24-21.641-19.933-21.641H306.617
	C294.924,374,285.725,383.987,286.684,395.641z"/>
<circle style="fill:#FFFFFF;" cx="378.69" cy="192" r="64.13"/>
<path style="fill:#FE61AD;" d="M264.428,358h-244c-5.523,0-10,4.477-10,10v124c0,5.523,4.477,10,10,10h244c5.523,0,10-4.477,10-10
	V368C274.428,362.477,269.951,358,264.428,358z"/>
<path style="fill:#F2EBFF;" d="M254.428,318h-224c-5.523,0-10,4.477-10,10v30h244v-30C264.428,322.477,259.951,318,254.428,318z"/>
<path style="fill:#FFEDDC;" d="M30.429,318L30.429,318c0-37.049,23.538-70.014,58.591-82.009
	c28.153-9.634,55.732-25.71,55.075-51.657c54,28,105,81.127,105,116.667c0,29,0,12.667,0,12.667"/>
<path d="M506.282,6.45C502.507,2.351,497.144,0,491.571,0H265.798c-5.573,0-10.935,2.351-14.71,6.45
	c-3.776,4.099-5.68,9.636-5.223,15.19l24.193,293.916c-2.734-3.427-6.567-5.927-10.963-6.984V301
	c0-42.188-57.304-98.015-110.396-125.544c-3.141-1.629-6.907-1.478-9.906,0.399c-2.998,1.875-4.783,5.195-4.694,8.731
	c0.526,20.821-25.984,34.301-48.316,41.943c-36.717,12.565-62.114,45.76-65.062,84C14.59,313.95,10.429,320.495,10.429,328v22.706
	c-5.968,3.465-10,9.911-10,17.294v124c0,11.028,8.972,20,20,20h244c11.028,0,20-8.972,20-20v-5.414
	C287.62,501.133,300.723,512,315.954,512h125.462c16.669,0,30.797-13.013,32.163-29.625l7.073-85.914
	c0.61-7.416-1.591-14.806-6.075-20.678c5.239-4.936,8.742-11.722,9.367-19.322l27.561-334.82
	C511.962,16.086,510.058,10.55,506.282,6.45z M30.429,328h216.47c0.708,0.159,1.441,0.25,2.197,0.25s1.489-0.091,2.197-0.25h3.136
	v20h-224L30.429,328L30.429,328z M92.257,245.452c38.065-13.025,53.795-30.153,59.302-45.532
	c47.853,28.404,87.537,73.465,87.537,101.08v7H41.093C44.841,279.407,64.451,254.967,92.257,245.452z M264.428,492h-244v-76h105.318
	c5.522,0,10-4.477,10-10s-4.478-10-10-10H20.429v-28h244v124H264.428z M460.72,394.82l-7.073,85.914
	c-0.52,6.317-5.892,11.266-12.23,11.266H315.954c-6.339,0-11.712-4.949-12.231-11.266l-7.072-85.914
	c-0.231-2.818,0.696-5.516,2.611-7.595c1.916-2.08,4.527-3.225,7.355-3.225h144.136c2.827,0,5.439,1.146,7.355,3.225
	C460.023,389.305,460.951,392.002,460.72,394.82z M464.011,354.821c-0.423,5.147-4.801,9.179-9.965,9.179h-3.293H306.617h-3.293
	c-5.165,0-9.542-4.032-9.966-9.18L269.749,68h104.09c5.522,0,10-4.477,10-10s-4.478-10-10-10H268.102l-2.305-28h225.774
	L464.011,354.821z"/>
<path d="M304.557,192c0,40.874,33.253,74.127,74.127,74.127s74.127-33.253,74.127-74.127s-33.253-74.127-74.127-74.127
	S304.557,151.126,304.557,192z M432.811,192c0,29.846-24.281,54.127-54.127,54.127S324.557,221.846,324.557,192
	s24.281-54.127,54.127-54.127S432.811,162.154,432.811,192z"/>
<path d="M409.839,68c2.63,0,5.21-1.07,7.069-2.93c1.86-1.86,2.931-4.44,2.931-7.07s-1.07-5.21-2.931-7.07
	c-1.859-1.86-4.439-2.93-7.069-2.93s-5.21,1.07-7.07,2.93c-1.86,1.86-2.93,4.44-2.93,7.07c0,2.64,1.069,5.21,2.93,7.07
	S407.209,68,409.839,68z"/>
<path d="M161.748,416c2.631,0,5.211-1.07,7.07-2.93c1.86-1.86,2.93-4.44,2.93-7.07s-1.069-5.21-2.93-7.07
	c-1.859-1.86-4.439-2.93-7.07-2.93c-2.63,0-5.21,1.07-7.069,2.93c-1.86,1.86-2.931,4.44-2.931,7.07s1.07,5.21,2.931,7.07
	C156.538,414.93,159.118,416,161.748,416z"/>
<g>
</g>
<g>
</g>
<g>
</g>
<g>
</g>
<g>
</g>
<g>
</g>
<g>
</g>
<g>
</g>
<g>
</g>
<g>
</g>
<g>
</g>
<g>
</g>
<g>
</g>
<g>
</g>
<g>
</g>
</svg>
