<?xml version="1.0" encoding="iso-8859-1"?>
<!-- Generator: Adobe Illustrator 19.0.0, SVG Export Plug-In . SVG Version: 6.00 Build 0)  -->
<svg version="1.1" id="Capa_1" xmlns="http://www.w3.org/2000/svg" xmlns:xlink="http://www.w3.org/1999/xlink" x="0px" y="0px"
	 viewBox="0 0 511.999 511.999" style="enable-background:new 0 0 511.999 511.999;" xml:space="preserve">
<path style="fill:#F2EBFF;" d="M372.252,438.882c0,34.314,27.824,62.139,62.139,62.139s62.139-27.824,62.139-62.139
	c0-0.604-0.011-1.206-0.028-1.805c-1.182-60.256-60.96-108.82-62.111-108.82c-0.765,0-60.916,48.559-62.111,108.812
	C372.263,437.672,372.252,438.275,372.252,438.882z"/>
<g>
	<rect x="5.489" y="219.021" style="fill:#FFCC9C;" width="170.577" height="284.993"/>
	<path style="fill:#FFCC9C;" d="M5.489,276.553c0,94.205,76.368,163.587,170.573,163.587c119.471,0,162.233-97.593,171.638-141.614
		c1.076-5.036,4.923-8.75,9.655-9.229l3.827-0.388c10.579-1.072,18.205-11.314,17.034-22.874l0,0
		c-1.172-11.56-10.698-20.063-21.277-18.991l0,0c-5.217,0.529-9.479-3.229-11.802-8.443
		C311.94,164.055,139.409,59.366,102.635,12.598l-2.057-2.616H5.489V276.553z"/>
</g>
<path d="M506.479,436.881c-0.667-34.014-18.398-63.868-33.154-82.922c-8.422-10.873-16.631-19.275-22.037-24.409
	c-11.87-11.274-13.762-11.274-16.898-11.274c-3.265,0-4.903,0-16.744,11.284c-5.423,5.167-13.646,13.591-22.031,24.384
	c-14.825,19.084-32.639,48.961-33.311,82.834c-0.021,0.699-0.032,1.399-0.032,2.104c0,39.766,32.353,72.119,72.119,72.119
	s72.119-32.352,72.119-72.119C506.509,438.181,506.498,437.482,506.479,436.881z M434.391,491.04
	c-28.76,0-52.158-23.398-52.158-52.158c0-0.51,0.01-1.017,0.026-1.616c0.546-27.549,15.195-52.626,27.386-68.812
	c9.397-12.475,18.962-21.989,24.812-27.296c5.831,5.252,15.487,14.824,24.996,27.533c12.049,16.108,26.528,41.081,27.069,68.678
	c0.015,0.503,0.024,1.006,0.024,1.513C486.548,467.642,463.151,491.04,434.391,491.04z"/>
<path d="M201.158,108.683c2.789,0,5.563-1.163,7.536-3.432c3.617-4.16,3.176-10.464-0.984-14.08
	c-8.404-7.304-19.182-16.348-30.594-25.923c-26.114-21.91-55.691-46.726-66.837-59.077l-1.853-2.357
	c-3.405-4.334-9.68-5.085-14.015-1.678c-4.334,3.406-5.084,9.681-1.678,14.015l2.057,2.616c0.132,0.167,0.268,0.33,0.409,0.488
	c11.935,13.333,42.297,38.808,69.087,61.285c11.344,9.517,22.059,18.507,30.33,25.698
	C196.505,107.877,198.837,108.683,201.158,108.683z"/>
<path d="M226.413,128.501c1.266,0.534,2.58,0.786,3.873,0.786c3.861,0,7.539-2.256,9.168-6.026
	c2.185-5.06-0.146-10.935-5.207-13.119c-0.105-0.046-0.276-0.117-0.385-0.159c-5.133-2.01-10.923,0.525-12.931,5.657
	C218.946,120.714,221.398,126.43,226.413,128.501z"/>
<path d="M388.148,265.026c-1.726-17.018-16.18-29.532-32.194-27.914c-2.178,0.123-7.377-2.072-8.584-3.613
	c-29.423-42.252-76.496-90.185-78.487-92.205c-3.867-3.927-10.187-3.974-14.113-0.107c-3.927,3.867-3.975,10.187-0.108,14.114
	c0.476,0.483,47.885,48.763,76.328,89.605c5.672,8.146,18.762,12.888,26.957,12.066c5.088-0.528,9.726,4,10.341,10.067
	c0.615,6.067-3.023,11.423-8.11,11.938l-3.83,0.388c-9.831,0.997-17.645,8.644-18.581,18.185
	c-5.998,61.172-51.947,132.608-161.705,132.608c-5.511,0-9.98,4.468-9.98,9.98v61.879c0,5.512,4.469,9.98,9.98,9.98
	s9.98-4.468,9.98-9.98v-52.092c50.196-1.961,92.741-18.814,123.513-49.038c27.194-26.711,44.263-62.685,48.07-101.304
	c0.111-0.125,0.414-0.325,0.736-0.358l3.83-0.388C378.227,297.211,389.871,282.044,388.148,265.026z"/>
<path d="M117.483,372.734c-21.757-13.283-38.533-33.736-47.236-57.593c-1.89-5.178-7.617-7.846-12.796-5.956
	c-5.178,1.889-7.845,7.618-5.956,12.797c10.246,28.087,29.987,52.161,55.588,67.789c1.623,0.991,3.418,1.463,5.19,1.463
	c3.363,0,6.647-1.701,8.528-4.782C123.674,381.748,122.189,375.606,117.483,372.734z"/>
<path d="M53.57,287.603c5.511-0.045,9.944-4.55,9.899-10.062l-0.005-0.989c0-5.512-4.469-9.98-9.98-9.98s-9.98,4.468-9.98,9.98
	l0.005,1.153c0.045,5.484,4.505,9.899,9.978,9.899C53.513,287.604,53.543,287.604,53.57,287.603z"/>
<g>
</g>
<g>
</g>
<g>
</g>
<g>
</g>
<g>
</g>
<g>
</g>
<g>
</g>
<g>
</g>
<g>
</g>
<g>
</g>
<g>
</g>
<g>
</g>
<g>
</g>
<g>
</g>
<g>
</g>
</svg>
