<?xml version="1.0" encoding="iso-8859-1"?>
<!-- Generator: Adobe Illustrator 19.0.0, SVG Export Plug-In . SVG Version: 6.00 Build 0)  -->
<svg version="1.1" id="Capa_1" xmlns="http://www.w3.org/2000/svg" xmlns:xlink="http://www.w3.org/1999/xlink" x="0px" y="0px"
	 viewBox="0 0 512 512" style="enable-background:new 0 0 512 512;" xml:space="preserve">
<path style="fill:#DAC7FF;" d="M458.328,188.618l16.2,16.199c36.689,36.689,36.689,96.175,0,132.864l0,0
	c-36.689,36.689-96.175,36.689-132.864,0L174.318,170.335c-36.689-36.689-36.689-96.175,0-132.864l0,0
	c36.689-36.689,96.175-36.689,132.864,0l13.321,13.321L458.328,188.618z"/>
<path style="fill:#BA98FF;" d="M376.717,359.819c-12.798-4.524-24.814-11.898-35.052-22.137l-8.095-8.095
	c-3.821,28.05-16.485,55.125-38.047,76.687c-52.412,52.412-137.386,52.412-189.798,0s-52.412-137.386,0-189.798
	c21.562-21.562,48.637-34.225,76.687-38.047l-8.095-8.095c-10.239-10.239-17.613-22.254-22.137-35.052
	c-1.05-2.51-2.011-5.047-2.864-7.614c-30.597,8.515-59.49,24.791-83.549,48.851c-74.479,74.479-74.479,195.233,0,269.713
	s195.233,74.479,269.713,0c24.06-24.06,40.335-52.951,48.851-83.549C381.764,361.83,379.226,360.869,376.717,359.819z"/>
<path style="fill:#FFD4AC;" d="M369.001,243.141c-6.784-17.87-9.928-39.918,5.567-55.41c19.557-19.558,40.316-13.971,64.301-27.007
	c4.224-2.297,7.994-5.521,11.557-9.085c24.871-24.871,24.853-65.18-0.013-90.051c-24.87-24.866-65.179-24.883-90.05-0.012
	c-3.564,3.564-6.788,7.333-9.085,11.557c-13.037,23.985-7.449,44.744-27.008,64.301c-15.492,15.493-37.541,12.349-55.411,5.567
	L369.001,243.141z"/>
<path d="M272.409,133.648c-5.164-1.96-10.941,0.638-12.901,5.803c-1.961,5.164,0.637,10.941,5.803,12.901
	c34.862,13.233,55.152,3.037,66.034-7.845c13.498-13.497,16.788-27.424,19.97-40.891c2.064-8.734,4.013-16.985,8.753-25.706
	c1.537-2.828,3.878-5.771,7.369-9.262c20.923-20.922,54.972-20.915,75.902,0.012c20.929,20.933,20.936,54.983,0.013,75.906
	c-3.487,3.489-6.43,5.831-9.26,7.368c-8.721,4.74-16.972,6.69-25.707,8.753c-13.468,3.182-27.395,6.473-40.89,19.97
	c-10.883,10.882-21.079,31.172-7.845,66.034c1.517,3.997,5.318,6.456,9.354,6.456c1.179,0,2.38-0.21,3.548-0.654
	c5.165-1.961,7.762-7.737,5.802-12.902c-7.577-19.962-6.472-35.031,3.288-44.788c9.48-9.48,19.128-11.759,31.345-14.646
	c9.182-2.17,19.588-4.628,30.66-10.646c4.567-2.482,8.969-5.915,13.854-10.8c28.721-28.721,28.715-75.463-0.014-104.197
	c-28.732-28.727-75.474-28.732-104.195-0.012c-4.887,4.887-8.319,9.29-10.8,13.854c-6.018,11.071-8.476,21.479-10.646,30.661
	c-2.886,12.216-5.166,21.866-14.646,31.346C307.441,140.118,292.371,141.225,272.409,133.648z"/>
<path d="M252.936,248.95c-1.871,1.861-2.931,4.441-2.931,7.072c0,2.631,1.06,5.211,2.931,7.072c1.851,1.861,4.431,2.931,7.072,2.931
	c2.631,0,5.211-1.07,7.072-2.931s2.931-4.441,2.931-7.072s-1.07-5.211-2.931-7.072c-1.86-1.861-4.441-2.931-7.072-2.931
	S254.797,247.09,252.936,248.95z"/>
<path d="M481.602,197.745l-16.199-16.201c-3.906-3.905-10.24-3.905-14.147,0c-3.906,3.906-3.906,10.24,0,14.147l16.199,16.199
	c32.731,32.73,32.731,85.987,0,118.718c-16.368,16.368-37.859,24.55-59.358,24.549c-21.494-0.002-42.996-8.185-59.358-24.548
	l-56.416-56.417c-3.906-3.906-10.24-3.905-14.146,0c-3.906,3.906-3.907,10.24,0,14.146l44.726,44.727
	c-4.418,25.166-16.264,47.947-34.452,66.135c-38.448,38.448-98.719,47.35-146.569,21.65c-4.867-2.613-10.931-0.787-13.546,4.079
	c-2.614,4.867-0.788,10.931,4.079,13.546c20.908,11.23,44.638,17.089,68.439,17.089c6.626,0,13.263-0.455,19.839-1.374
	c31.228-4.365,59.549-18.488,81.903-40.842c17.944-17.945,30.569-39.743,37.109-63.818c9.745,8.525,20.712,14.923,32.295,19.192
	c-8.83,26.406-23.77,50.613-43.593,70.437c-70.46,70.459-185.107,70.459-255.567,0c-70.46-70.46-70.46-185.107,0-255.567
	c19.825-19.824,44.031-34.763,70.437-43.593c4.269,11.583,10.668,22.55,19.192,32.295c-24.076,6.54-45.874,19.164-63.818,37.109
	c-22.471,22.472-36.616,50.952-40.905,82.36c-4.149,30.385,1.613,61.87,16.229,88.653c1.817,3.328,5.247,5.213,8.789,5.213
	c1.618,0,3.261-0.394,4.782-1.224c4.849-2.647,6.636-8.722,3.989-13.572C65.34,322.829,74.085,262.263,112.798,223.55
	c18.188-18.188,40.969-30.034,66.135-34.452l47.643,47.642c1.954,1.954,4.513,2.93,7.073,2.93c2.56,0,5.12-0.977,7.073-2.93
	c3.906-3.906,3.906-10.24,0-14.146l-59.331-59.331c-32.731-32.73-32.731-85.987,0-118.718c32.73-32.731,85.987-32.731,118.718,0
	l13.321,13.321c3.905,3.906,10.24,3.906,14.146,0c3.906-3.906,3.906-10.24,0-14.147l-13.32-13.321
	c-40.532-40.531-106.479-40.531-147.011,0c-24.521,24.521-34.2,58.343-29.052,90.214c-29.827,9.754-57.169,26.506-79.497,48.835
	c-78.261,78.26-78.261,205.598,0,283.858C97.825,492.436,149.225,512,200.625,512s102.8-19.565,141.929-58.695
	c22.327-22.328,39.08-49.67,48.835-79.497c5.531,0.893,11.119,1.346,16.709,1.346c26.619,0,53.24-10.133,73.505-30.398
	C522.133,304.225,522.133,238.275,481.602,197.745z"/>
<path d="M98.65,399.253c-3.881,3.911-3.845,10.247,0.051,14.143c0.018,0.018,0.084,0.083,0.102,0.102
	c1.943,1.913,4.462,2.864,6.983,2.864c2.575,0,5.15-0.993,7.111-2.969c3.881-3.911,3.845-10.247-0.051-14.143
	c-0.018-0.018-0.084-0.083-0.102-0.102C108.818,395.281,102.53,395.34,98.65,399.253z"/>
<path d="M434.24,311.54c1.954,1.954,4.513,2.93,7.073,2.93c2.56,0,5.12-0.976,7.073-2.93c22.215-22.215,22.215-58.362,0-80.578
	c-3.906-3.906-10.24-3.906-14.147,0c-3.906,3.906-3.906,10.24,0,14.147c14.416,14.415,14.416,37.87,0,52.285
	C430.334,301.299,430.334,307.633,434.24,311.54z"/>
<g>
</g>
<g>
</g>
<g>
</g>
<g>
</g>
<g>
</g>
<g>
</g>
<g>
</g>
<g>
</g>
<g>
</g>
<g>
</g>
<g>
</g>
<g>
</g>
<g>
</g>
<g>
</g>
<g>
</g>
</svg>
