<?xml version="1.0" encoding="iso-8859-1"?>
<!-- Generator: Adobe Illustrator 19.0.0, SVG Export Plug-In . SVG Version: 6.00 Build 0)  -->
<svg version="1.1" id="Capa_1" xmlns="http://www.w3.org/2000/svg" xmlns:xlink="http://www.w3.org/1999/xlink" x="0px" y="0px"
	 viewBox="0 0 512.003 512.003" style="enable-background:new 0 0 512.003 512.003;" xml:space="preserve">
<path style="fill:#FFD4AC;" d="M396.079,224.396L390.576,216h-18.5c10.217,0,18.5-8.283,18.5-18.5l0,0
	c0-17.949-14.551-32.5-32.5-32.5h-62.465c20.967,0,37.965-16.997,37.965-37.965l0,0c0-11.462-4.871-22.384-13.398-30.043
	l-96.602-86.771H88.961L88.576,10v182.695c0,28.948,17.124,55.155,43.636,66.78l0,0h-1.136v43.908
	c0,9.019-1.451,17.979-4.297,26.538l0,0c-17.578,52.859-19.059,109.749-4.256,163.451l2.378,8.628h235.674v-28.211
	c0-15.918,6.101-31.23,17.049-42.785l0,0C430.927,374.74,438.566,289.217,396.079,224.396z"/>
<g>
	<circle style="fill:#FFEDDC;" cx="264.09" cy="301.76" r="36.15"/>
	<path style="fill:#FFEDDC;" d="M233.314,327.16c0,0-9.449,50.734,34.659,71.013c43.945,20.204,66.056,2.254,73.383-11.912
		s17.983,0.003,19.448,5.376c1.465,5.373,20.583,2.922,21.072-14.174s-19.952-39.558-38.143-32.832"/>
	<path style="fill:#FFEDDC;" d="M275.322,337.906c0,0,27.919,11.799,38.177-2.367s20.927-12.287,26.789-6.426
		s10.018,31.681-38.395,44.939"/>
</g>
<path d="M88.577,20c2.63,0,5.21-1.07,7.07-2.93s2.93-4.44,2.93-7.07s-1.07-5.21-2.93-7.07S91.207,0,88.577,0s-5.21,1.07-7.07,2.93
	s-2.93,4.44-2.93,7.07s1.07,5.21,2.93,7.07C83.367,18.93,85.947,20,88.577,20z"/>
<path d="M420.795,250.419c-0.238-0.999-0.624-1.938-1.137-2.795c-4.168-9.983-9.248-19.605-15.215-28.709l-5.503-8.396
	c-0.284-0.433-0.604-0.827-0.94-1.201c1.649-3.603,2.576-7.603,2.576-11.817c0-23.435-19.065-42.5-42.5-42.5h-23.532
	c5.676-7.879,9.032-17.535,9.032-27.965c0-14.278-6.092-27.94-16.715-37.482L230.258,2.782c-4.109-3.69-10.431-3.353-14.122,0.757
	c-3.69,4.108-3.352,10.431,0.757,14.122l96.602,86.771c6.406,5.754,10.08,13.993,10.08,22.604c0,15.419-12.545,27.964-27.964,27.964
	h-1.036c-0.561,0-1.12,0.047-1.672,0.141l-99.676,16.91c-0.083,0.014-0.255,0.043-0.454-0.124c-0.198-0.167-0.198-0.342-0.198-0.426
	V64c0-5.523-4.477-10-10-10s-10,4.477-10,10v107.5c0,6.066,2.658,11.791,7.292,15.705c4.634,3.915,10.724,5.576,16.704,4.563
	L295.418,175h62.658c12.407,0,22.5,10.093,22.5,22.5c0,4.687-3.813,8.5-8.5,8.5h-75.5c-1.304,0-2.596,0.255-3.802,0.751
	l-107.356,44.136c-15.707,6.458-33.636,6.25-49.19-0.57c-22.873-10.029-37.652-32.647-37.652-57.622V41c0-5.523-4.477-10-10-10
	s-10,4.477-10,10v151.695c0,30.241,16.45,57.849,42.5,72.386v38.302c0,7.961-1.274,15.828-3.786,23.382
	c-18.267,54.93-19.79,113.46-4.407,169.265l2.378,8.628c1.223,4.435,5.247,7.345,9.635,7.345c0.88,0,1.774-0.117,2.664-0.362
	c5.324-1.468,8.45-6.974,6.983-12.298l-2.378-8.628c-14.327-51.971-12.908-106.481,4.104-157.638
	c3.19-9.593,4.808-19.583,4.808-29.693v-30.355c6.688,1.688,13.557,2.548,20.429,2.548c10.734,0,21.471-2.062,31.518-6.192
	L298.551,226h73.524c4.092,0,7.982-0.874,11.503-2.433l4.137,6.312c5.229,7.978,9.648,16.274,13.281,24.784
	c-0.99,13.434-12.229,24.064-25.911,24.064c-21.929,0-40.31,15.431-44.885,36.001c-0.628-0.002-1.256,0.013-1.886,0.063
	c-5.875,0.467-14.62,3.428-22.915,14.883c-1.3,1.796-3.842,2.616-6.916,2.806c7.301-8.165,11.75-18.931,11.75-30.721
	c0-25.445-20.702-46.147-46.147-46.147s-46.146,20.702-46.146,46.147c0,8.134,2.123,15.778,5.833,22.421
	c-0.116,0.373-0.218,0.754-0.291,1.148c-0.111,0.597-2.682,14.812,0.828,31.761c4.793,23.148,18.447,40.497,39.485,50.17
	c15.225,7,28.584,9.899,40.053,9.898c22.978-0.001,38.353-11.645,45.846-25.282c0.665,0.865,1.252,1.82,1.481,2.462
	c1.899,6.815,8.936,10.701,17.549,9.674c10.824-1.293,22.684-10.063,23.147-26.263c0.377-13.208-7.729-28.084-20.172-37.017
	c-5.975-4.289-12.304-6.711-18.569-7.224c-0.77-3.718-2.227-6.943-4.02-9.402c0.327-14.049,11.849-25.379,25.975-25.379
	c13.935,0,26.434-6.239,34.875-16.06c10.876,49.63-2.843,102.667-39.595,141.46c-12.762,13.47-19.79,31.107-19.79,49.662V502
	c0,5.523,4.477,10,10,10s10-4.477,10-10v-28.211c0-13.416,5.082-26.168,14.308-35.908c27.322-28.839,44.315-66.514,47.85-106.083
	C435.209,304.08,431.012,276.11,420.795,250.419z M264.087,275.613c14.417,0,26.147,11.729,26.147,26.147
	c0,14.417-11.729,26.146-26.147,26.146c-14.417,0-26.146-11.729-26.146-26.146C237.941,287.342,249.67,275.613,264.087,275.613z
	 M371.88,377.178c-0.069,2.421-0.774,4.193-2.157,5.418c-0.515,0.457-1.066,0.791-1.588,1.031
	c-3.184-5.686-9.198-12.503-17.548-13.388c-3.478-0.367-12.205,0.007-18.113,11.428c-7.102,13.73-26.678,22.889-60.324,7.42
	c-23.7-10.897-28.951-32.424-29.652-46.56c6.446,3.427,13.793,5.378,21.589,5.378c2.615,0,5.177-0.23,7.675-0.65
	c4.865,2.005,35.692,13.682,49.837-5.851c2.895-3.998,5.998-6.493,8.301-6.676c1.334-0.101,2.435,0.622,3.167,1.311
	c0.397,0.683,1.299,3.341-0.051,7.06c-3.09,8.513-15.397,16.279-33.764,21.309c-5.327,1.459-8.462,6.959-7.004,12.286
	c1.217,4.443,5.245,7.361,9.639,7.361c0.875,0,1.763-0.116,2.647-0.357c28.342-7.761,40.646-19.821,45.783-30.265
	c3.929-0.093,7.621,2.04,9.719,3.546C366.861,361.879,372.064,370.751,371.88,377.178z"/>
<g>
</g>
<g>
</g>
<g>
</g>
<g>
</g>
<g>
</g>
<g>
</g>
<g>
</g>
<g>
</g>
<g>
</g>
<g>
</g>
<g>
</g>
<g>
</g>
<g>
</g>
<g>
</g>
<g>
</g>
</svg>
