<?xml version="1.0" encoding="iso-8859-1"?>
<!-- Generator: Adobe Illustrator 19.0.0, SVG Export Plug-In . SVG Version: 6.00 Build 0)  -->
<svg version="1.1" id="Capa_1" xmlns="http://www.w3.org/2000/svg" xmlns:xlink="http://www.w3.org/1999/xlink" x="0px" y="0px"
	 viewBox="0 0 512 512" style="enable-background:new 0 0 512 512;" xml:space="preserve">
<circle style="fill:#FE90C5;" cx="256" cy="256" r="246"/>
<circle style="fill:#FFEDDC;" cx="256" cy="256" r="198"/>
<g>
	<path style="fill:#FEBD80;" d="M284.913,337.335v-29.963c0-15.526,9.104-29.774,23.195-36.299
		c12.452-5.763,26.785-4.793,38.344,2.593c11.56,7.388,18.461,19.987,18.461,33.706v25.807c0,11.047-8.749,20.377-19.796,20.487
		c-10.625,0.106-19.363-8.073-20.147-18.474l0,0c-0.047,35.186-25.602,65.312-60.377,70.678c-6.428,0.992-13.019,1.488-19.733,1.449
		c-65.829-0.387-121.799-55.845-122.765-121.669c-0.224-15.247,2.324-29.868,7.163-43.4c2.881-8.057,2.121-16.931-1.706-24.584
		c-4.269-8.535-6.591-18.212-6.383-28.452c0.676-33.324,28.545-60.151,61.871-59.618c33.171,0.531,65.439,28.05,59.897,60.882
		c-2.531,14.994-6.907,16.542-9.555,33.188c-2.226,13.988-11.194,14.63-23.444,20.953c-0.084,0.043-0.167,0.086-0.251,0.129
		c-6.986,3.565-6.321,13.724,1.12,16.203l32.579,10.855c2.194,0.733,4.655,0.135,6.27-1.52l22.256-22.806
		c7.712-7.905,20.377-8.062,28.281-0.346c7.906,7.714,8.061,20.376,0.346,28.281l-22.255,22.806
		c-8.775,8.993-20.845,13.866-33.102,13.866c-4.853,0-9.733-0.763-14.453-2.337l-41.035-13.687"/>
	<path style="fill:#FEBD80;" d="M260.757,256.981c0-15.119-12.257-27.376-27.376-27.376"/>
</g>
<path d="M304.656,4.62c-5.425-1.047-10.666,2.507-11.709,7.93c-1.044,5.423,2.506,10.666,7.93,11.709
	C411.621,45.573,492,143.034,492,256c0,130.131-105.869,236-236,236S20,386.131,20,256C20,145.277,95.258,50.685,203.013,25.97
	c5.384-1.235,8.746-6.6,7.512-11.983c-1.235-5.383-6.604-8.746-11.982-7.511C143.002,19.215,92.603,50.797,56.628,95.404
	C20.11,140.683,0,197.717,0,256c0,68.38,26.629,132.667,74.98,181.019C123.333,485.372,187.62,512,256,512
	s132.667-26.628,181.02-74.981C485.371,388.667,512,324.38,512,256C512,133.463,424.8,27.743,304.656,4.62z"/>
<path d="M256,20l0.731,0.001c0.007,0,0.014,0,0.02,0c5.514,0,9.989-4.464,10-9.98c0.011-5.523-4.458-10.009-9.98-10.02L256,0
	c-5.522,0-10,4.477-10,10S250.478,20,256,20z"/>
<path d="M401.357,107.233c-0.464-0.557-0.991-1.057-1.564-1.502c-3.794-3.637-7.726-7.144-11.804-10.496
	C350.929,64.775,304.055,48,256,48C141.309,48,48,141.309,48,256s93.309,208,208,208c49.119,0,96.794-17.443,134.244-49.115
	c37.007-31.298,62.05-74.668,70.516-122.122c0.97-5.437-2.651-10.631-8.089-11.601c-5.436-0.97-10.63,2.651-11.601,8.088
	C425.074,378.918,347.241,444,256,444c-103.664,0-188-84.336-188-188S152.336,68,256,68c43.17,0,83.686,14.934,115.973,40.263
	c-18.561,8.321-31.53,26.96-31.53,48.583c0,18.319-14.904,33.223-33.224,33.223c-23.868,0-44.116,15.793-50.845,37.478
	c-3.643-2.852-7.823-5.044-12.365-6.394c1.049-4.935,2.28-8.005,3.662-11.446c1.746-4.349,3.727-9.277,5.125-17.564
	c2.718-16.102-1.928-32.355-13.082-45.767c-13.454-16.175-35.108-26.437-56.515-26.779c-38.896-0.647-71.24,30.516-72.03,69.414
	c-0.232,11.479,2.34,22.934,7.438,33.126c2.676,5.351,3.126,11.454,1.234,16.745c-5.376,15.037-7.982,30.821-7.745,46.914
	c0.506,34.466,14.718,67.256,40.019,92.329c25.299,25.071,58.215,38.99,92.687,39.193c0.264,0.001,0.527,0.002,0.791,0.002
	c6.878,0,13.779-0.527,20.526-1.568c19.164-2.957,36.671-12.742,49.296-27.552c7.037-8.254,12.311-17.778,15.597-27.964
	c4.174,2.193,8.909,3.431,13.903,3.43c0.101,0,0.202,0,0.302-0.001c16.375-0.164,29.696-13.84,29.696-30.487v-25.807
	c0-17.147-8.627-32.897-23.076-42.133c-10.803-6.902-23.545-9.321-35.792-7.092c-0.751-6.895-3.841-13.261-8.868-18.167
	c-5.734-5.598-13.302-8.668-21.32-8.528c-3.602,0.044-7.097,0.723-10.364,1.971c4.213-13.516,16.843-23.354,31.727-23.354
	c29.348,0,53.224-23.876,53.224-53.224c0-16.921,12.719-30.918,29.096-32.958c24.886,25.058,42.899,57.164,50.482,93.444
	c1.13,5.406,6.427,8.873,11.834,7.743c5.406-1.13,8.872-6.428,7.742-11.834C451.194,173.032,430.74,135.984,401.357,107.233z
	 M250.631,254.969l-6.416,6.574l-27.452-9.147c1.476-0.705,2.923-1.349,4.337-1.979c5.511-2.456,11.462-5.112,15.901-10.426
	C244.208,241.524,249.769,247.539,250.631,254.969z M286.102,251.45c2.689-0.027,5.194,0.977,7.106,2.844
	c1.911,1.865,2.982,4.363,3.015,7.033c0.033,2.671-0.977,5.194-2.843,7.106l-0.786,0.806c-2.374,2.019-4.545,4.249-6.492,6.653
	l-14.977,15.348c-6.729,6.896-16.185,10.85-25.944,10.85c-3.864,0-7.662-0.613-11.289-1.823l-41.035-13.687
	c-5.242-1.749-10.903,1.083-12.65,6.322s1.083,10.903,6.322,12.65l41.035,13.687c5.671,1.892,11.599,2.851,17.617,2.851
	c10.553,0,20.891-3,29.732-8.46v23.706c0,5.523,4.478,10,10,10s10-4.477,10-10v-29.963c0-6.685,2.25-13.054,6.167-18.192l5.122-5.25
	c1.854-1.484,3.897-2.759,6.106-3.782c9.338-4.323,20.09-3.596,28.759,1.944c8.67,5.541,13.846,14.991,13.846,25.28v25.807
	c0,5.729-4.439,10.433-9.896,10.488c-0.034,0-0.067,0-0.101,0c-5.135,0-9.446-3.917-9.946-8.998V315c0-5.523-4.478-10-10-10
	s-10,4.477-10,10v20.179c-0.041,30.6-21.869,56.174-51.901,60.808c-5.96,0.92-12.03,1.377-18.15,1.332
	c-60.272-0.354-111.94-51.56-112.824-111.816c-0.202-13.691,2.012-27.11,6.579-39.886c3.719-10.401,2.925-22.219-2.179-32.424
	c-3.705-7.409-5.498-15.409-5.329-23.775c0.562-27.645,23.311-49.829,50.89-49.829c0.274,0,0.55,0.002,0.824,0.006
	c15.741,0.252,31.627,7.751,41.458,19.571c5.212,6.266,10.958,16.496,8.738,29.648c-1.04,6.162-2.395,9.535-3.963,13.439
	c-1.903,4.736-4.059,10.105-5.608,19.842c-0.892,5.604-2.287,6.374-10.545,10.052c-2.27,1.012-4.843,2.158-7.62,3.592l-0.2,0.103
	c-6.812,3.476-10.843,10.634-10.271,18.234c0.567,7.543,5.582,13.966,12.775,16.363l32.57,10.853
	c5.802,1.939,12.318,0.363,16.597-4.02l22.257-22.807C280.933,252.554,283.431,251.483,286.102,251.45z"/>
<path d="M444,256l-0.003,1.117c-0.027,5.523,4.427,10.022,9.95,10.05c0.017,0,0.034,0,0.051,0c5.499,0,9.972-4.444,9.999-9.95
	L464,256c0-5.523-4.478-10-10-10S444,250.477,444,256z"/>
<g>
</g>
<g>
</g>
<g>
</g>
<g>
</g>
<g>
</g>
<g>
</g>
<g>
</g>
<g>
</g>
<g>
</g>
<g>
</g>
<g>
</g>
<g>
</g>
<g>
</g>
<g>
</g>
<g>
</g>
</svg>
