<?xml version="1.0" encoding="iso-8859-1"?>
<!-- Generator: Adobe Illustrator 19.0.0, SVG Export Plug-In . SVG Version: 6.00 Build 0)  -->
<svg version="1.1" id="Capa_1" xmlns="http://www.w3.org/2000/svg" xmlns:xlink="http://www.w3.org/1999/xlink" x="0px" y="0px"
	 viewBox="0 0 511.998 511.998" style="enable-background:new 0 0 511.998 511.998;" xml:space="preserve">
<path style="fill:#FFD4AC;" d="M181.268,188.805L181.268,188.805c11.565-6.271,25.958-3.408,34.243,6.811l0,0
	c5.819,7.177,14.871,10.927,24.061,9.966l0,0c13.085-1.368,25.286,6.785,29.029,19.397l0,0c2.629,8.858,9.558,15.786,18.416,18.416
	l0,0c12.612,3.743,20.765,15.945,19.397,29.029l0,0c-0.961,9.19,2.789,18.242,9.966,24.061l0,0
	c10.22,8.285,13.082,22.677,6.811,34.242l0,0c-4.404,8.123-4.404,17.921,0,26.044l0,0c6.271,11.565,3.408,25.957-6.811,34.242l0,0
	c-7.177,5.819-10.927,14.871-9.966,24.061l0,0c1.368,13.085-6.785,25.286-19.397,29.029l0,0
	c-8.858,2.629-15.786,9.558-18.416,18.416l0,0c-3.743,12.612-15.945,20.765-29.029,19.397l0,0
	c-9.19-0.961-18.242,2.789-24.061,9.966l0,0c-8.285,10.22-22.677,13.082-34.242,6.811l0,0c-8.123-4.404-17.921-4.404-26.044,0l0,0
	c-11.565,6.271-25.957,3.408-34.242-6.811l0,0c-5.819-7.177-14.871-10.927-24.061-9.966l0,0
	c-13.085,1.368-25.286-6.785-29.029-19.397l0,0c-2.629-8.858-9.558-15.786-18.416-18.416l0,0
	c-12.612-3.743-20.765-15.945-19.397-29.029l0,0c0.961-9.19-2.789-18.242-9.966-24.061l0,0c-10.22-8.285-13.082-22.677-6.811-34.242
	l0,0c4.404-8.123,4.404-17.921,0-26.044l0,0c-6.271-11.565-3.408-25.957,6.811-34.242l0,0c7.177-5.819,10.927-14.871,9.966-24.061
	l0,0c-1.368-13.085,6.785-25.286,19.397-29.029l0,0c8.858-2.629,15.786-9.558,18.416-18.416l0,0
	c3.744-12.612,15.945-20.765,29.029-19.397l0,0c9.19,0.961,18.242-2.789,24.061-9.966l0,0c8.285-10.22,22.677-13.082,34.242-6.811
	l0,0C163.347,193.209,173.146,193.209,181.268,188.805z"/>
<path style="fill:#FE8D24;" d="M168.247,228.942c-63.407,0-114.808,51.401-114.808,114.808s51.401,114.808,114.808,114.808
	s114.808-51.401,114.808-114.808c0-56.48-40.785-103.435-94.51-113.02C181.956,229.555,175.173,228.942,168.247,228.942z"/>
<circle style="fill:#FFFFFF;" cx="116.279" cy="343.75" r="22.402"/>
<g>
	<path style="fill:#F2EBFF;" d="M238.425,273.572L238.425,273.572c-17.398-17.398-17.398-45.605,0-63.003l21.001-21.001
		c17.398-17.398,45.605-17.398,63.003,0l0,0c17.398,17.398,17.398,45.605,0,63.003l-21.001,21.001
		C284.03,290.97,255.822,290.97,238.425,273.572z"/>
	<path style="fill:#F2EBFF;" d="M168.247,152.72L168.247,152.72c-14.805,0-26.806-12.002-26.806-26.806v-17.871
		c0-14.805,12.002-26.806,26.806-26.806l0,0c14.805,0,26.806,12.002,26.806,26.806v17.871
		C195.053,140.718,183.051,152.72,168.247,152.72z"/>
	<path style="fill:#F2EBFF;" d="M354.458,354.461L354.458,354.461c0-15.305,12.407-27.712,27.712-27.712h18.474
		c15.305,0,27.712,12.407,27.712,27.712l0,0c0,15.305-12.407,27.712-27.712,27.712h-18.475
		C366.865,382.173,354.458,369.766,354.458,354.461z"/>
</g>
<path d="M322.677,288.718c-4.29-3.478-10.587-2.82-14.065,1.471c-3.478,4.291-2.819,10.587,1.472,14.065
	c6.476,5.25,8.291,14.379,4.317,21.708c-6.04,11.139-6.04,24.438,0,35.577c3.974,7.329,2.158,16.458-4.318,21.708
	c-9.842,7.979-14.932,20.266-13.614,32.87c0.866,8.291-4.305,16.03-12.297,18.403c-12.146,3.605-21.551,13.009-25.157,25.157
	c-2.371,7.991-10.112,13.167-18.402,12.296c-12.604-1.314-24.889,3.772-32.868,13.615c-5.25,6.476-14.378,8.293-21.709,4.318
	c-11.139-6.04-24.438-6.04-35.576,0c-7.329,3.975-16.46,2.158-21.708-4.318c-7.979-9.842-20.263-14.932-32.868-13.615
	c-8.29,0.869-16.03-4.305-18.404-12.297c-3.605-12.147-13.011-21.551-25.156-25.156c-7.992-2.373-13.163-10.112-12.296-18.404
	c1.316-12.603-3.773-24.89-13.616-32.869c-6.476-5.25-8.291-14.379-4.317-21.708c6.04-11.139,6.04-24.438,0-35.577
	c-3.974-7.329-2.158-16.458,4.318-21.708c9.842-7.979,14.932-20.266,13.614-32.87c-0.866-8.291,4.305-16.03,12.297-18.403
	c12.146-3.605,21.551-13.009,25.157-25.157c2.372-7.991,10.115-13.163,18.402-12.296c12.608,1.316,24.89-3.771,32.868-13.615
	c5.25-6.476,14.379-8.292,21.709-4.318c11.139,6.04,24.438,6.04,35.576,0c7.328-3.974,16.458-2.157,21.709,4.318
	c3.477,4.29,9.774,4.948,14.065,1.471c4.29-3.478,4.948-9.775,1.47-14.065c-11.313-13.956-30.989-17.869-46.777-9.304
	c-5.171,2.803-11.341,2.802-16.51-0.001c-15.792-8.562-35.465-4.65-46.778,9.305c-3.702,4.568-9.406,6.935-15.252,6.318
	c-17.867-1.865-34.545,9.276-39.656,26.497c-1.673,5.638-6.038,10.002-11.675,11.675c-17.222,5.112-28.364,21.789-26.497,39.655
	c0.611,5.849-1.751,11.552-6.317,15.254C-0.137,300.03-4.05,319.702,4.512,335.495c2.803,5.169,2.803,11.341,0,16.511
	c-8.563,15.792-4.649,35.465,9.305,46.777c4.567,3.703,6.93,9.405,6.318,15.253c-1.867,17.867,9.275,34.544,26.497,39.656
	c5.637,1.673,10.002,6.037,11.675,11.674c5.111,17.222,21.796,28.366,39.656,26.498c5.841-0.613,11.549,1.75,15.253,6.318
	c11.313,13.955,30.986,17.867,46.777,9.304c5.171-2.803,11.341-2.802,16.51,0.001c5.614,3.044,11.718,4.512,17.764,4.511
	c10.959,0,21.724-4.823,29.015-13.816c3.702-4.567,9.41-6.929,15.252-6.318c17.866,1.863,34.545-9.276,39.656-26.497
	c1.673-5.638,6.038-10.002,11.675-11.675c17.222-5.112,28.364-21.789,26.497-39.655c-0.611-5.849,1.751-11.552,6.317-15.254
	c13.955-11.312,17.868-30.984,9.306-46.777c-2.803-5.169-2.803-11.341,0-16.511C340.545,319.702,336.632,300.03,322.677,288.718z"/>
<path d="M283.054,354.502c5.486,0,9.955-4.426,9.998-9.922l0.003-0.83c0-5.523-4.478-10-10-10s-10,4.477-10,10l-0.003,0.674
	c-0.043,5.523,4.399,10.035,9.922,10.078C283.001,354.502,283.027,354.502,283.054,354.502z"/>
<path d="M178.247,228.942c0-5.523-4.478-10-10-10c-68.819,0-124.809,55.989-124.809,124.808s55.989,124.808,124.809,124.808
	c23.895,0,47.119-6.776,67.162-19.595c19.503-12.473,35.138-30.057,45.214-50.85c2.408-4.97,0.332-10.951-4.638-13.36
	c-4.969-2.407-10.952-0.332-13.36,4.638c-17.418,35.942-54.463,59.167-94.378,59.167c-57.792,0-104.809-47.017-104.809-104.808
	s47.017-104.808,104.809-104.808C173.769,238.942,178.247,234.465,178.247,228.942z"/>
<path d="M83.875,343.75c0,17.866,14.535,32.402,32.401,32.402c17.867,0,32.402-14.536,32.402-32.402s-14.535-32.402-32.402-32.402
	C98.41,311.348,83.875,325.884,83.875,343.75z M128.678,343.75c0,6.838-5.563,12.402-12.402,12.402
	c-6.838,0-12.401-5.563-12.401-12.402s5.563-12.402,12.401-12.402C123.115,331.348,128.678,336.912,128.678,343.75z"/>
<path d="M231.353,280.643c10.304,10.303,24.003,15.977,38.573,15.977c14.57,0,28.27-5.674,38.572-15.977l21.001-21.001
	c10.303-10.303,15.978-24.001,15.978-38.572c0-13.009-4.534-25.314-12.835-35.136c1.811-15.86,15.307-28.222,31.643-28.222
	c28.593,0,51.855-23.263,51.855-51.856C416.14,88.291,430.431,74,447.996,74c12.178,0,24.015-4.307,33.329-12.128
	c4.229-3.551,4.779-9.859,1.228-14.088c-3.551-4.231-9.86-4.779-14.089-1.228c-5.717,4.8-12.986,7.444-20.468,7.444
	c-28.594,0-51.856,23.263-51.856,51.856c0,17.565-14.29,31.856-31.855,31.856c-22.542,0-41.76,14.462-48.89,34.591
	c-7.501-3.773-15.828-5.783-24.468-5.783c-14.57,0-28.27,5.674-38.573,15.977l-21.001,21.001
	C210.085,224.767,210.085,259.374,231.353,280.643z M245.496,217.641l21.001-21.001c6.525-6.526,15.202-10.12,24.431-10.12
	s17.904,3.594,24.43,10.12c6.526,6.525,10.12,15.202,10.12,24.43s-3.594,17.904-10.12,24.43l-21.001,21.001
	c-6.525,6.525-15.201,10.119-24.43,10.119s-17.905-3.594-24.431-10.12C232.025,253.03,232.025,231.111,245.496,217.641z"/>
<path d="M489.816,32.294c0.012,0,0.024,0,0.037,0c5.491,0,9.959-4.48,9.999-9.976c0-0.025,0.001-0.149,0.001-0.173
	c0-5.508-4.455-9.93-9.964-9.95c-0.012,0-0.024,0-0.037,0c-5.491,0-9.959,4.48-9.999,9.976c0,0.025-0.001,0.149-0.001,0.173
	C479.852,27.852,484.307,32.273,489.816,32.294z"/>
<path d="M168.247,162.72c20.295,0,36.807-16.511,36.807-36.807v-17.871c0-18.595-13.865-34.004-31.797-36.456
	c-1.547-2.416-2.386-5.221-2.386-8.159c0-4.056,1.58-7.87,4.448-10.738c6.646-6.646,10.306-15.481,10.306-24.88
	c0-9.398-3.66-18.234-10.306-24.88c-3.906-3.905-10.238-3.905-14.143,0s-3.905,10.237,0,14.142
	c2.868,2.868,4.448,6.682,4.448,10.737c0,4.057-1.58,7.87-4.448,10.738c-9.756,9.757-12.567,23.862-8.447,36.132
	c-12.56,5.865-21.289,18.611-21.289,33.364v17.871C131.44,146.209,147.952,162.72,168.247,162.72z M151.44,108.042
	c0-9.267,7.539-16.806,16.807-16.806s16.807,7.539,16.807,16.806v17.871c0,9.267-7.539,16.807-16.807,16.807
	s-16.807-7.54-16.807-16.807L151.44,108.042L151.44,108.042z"/>
<path d="M509.068,347.39c-3.906-3.904-10.236-3.904-14.143,0c-3.17,3.17-7.384,4.837-11.871,4.688
	c-4.08-0.134-7.918-1.799-10.807-4.688c-10.069-10.068-24.663-12.919-37.297-8.557c-5.952-13.014-19.086-22.083-34.307-22.083
	h-18.474c-20.794,0-37.712,16.917-37.712,37.711s16.918,37.712,37.712,37.712h18.475c19.107,0,34.93-14.288,37.373-32.738
	c6.213-4.048,14.638-3.352,20.088,2.098c6.492,6.492,15.12,10.234,24.293,10.535c0.391,0.013,0.779,0.019,1.169,0.019
	c9.519,0,18.756-3.809,25.501-10.554C512.973,357.627,512.973,351.295,509.068,347.39z M400.644,372.173h-18.475
	c-9.767,0-17.712-7.945-17.712-17.712c0-9.766,7.945-17.711,17.712-17.711h18.475c9.765,0,17.709,7.944,17.711,17.709
	c0,0.002,0,0.003,0,0.005C418.354,364.229,410.409,372.173,400.644,372.173z"/>
<g>
</g>
<g>
</g>
<g>
</g>
<g>
</g>
<g>
</g>
<g>
</g>
<g>
</g>
<g>
</g>
<g>
</g>
<g>
</g>
<g>
</g>
<g>
</g>
<g>
</g>
<g>
</g>
<g>
</g>
</svg>
