<?xml version="1.0" encoding="iso-8859-1"?>
<!-- Generator: Adobe Illustrator 19.0.0, SVG Export Plug-In . SVG Version: 6.00 Build 0)  -->
<svg version="1.1" id="Capa_1" xmlns="http://www.w3.org/2000/svg" xmlns:xlink="http://www.w3.org/1999/xlink" x="0px" y="0px"
	 viewBox="0 0 512.001 512.001" style="enable-background:new 0 0 512.001 512.001;" xml:space="preserve">
<path style="fill:#FFFFFF;" d="M52.984,280.358V169c0-34.794,28.206-63,63-63h43c34.794,0,63,28.206,63,63v111.358H52.984z"/>
<path style="fill:#F2EBFF;" d="M458.228,261.159l-24.416-87.317c-7.248-25.92-30.87-43.842-57.784-43.842h-40.776
	c-26.914,0-50.536,17.922-57.783,43.842l-24.416,87.317c-3.717,13.292,6.276,26.462,20.078,26.462l0,0h17.567l-14.236,77.732
	h158.357l-14.236-77.732h16.448h1.119C451.952,287.622,461.944,274.452,458.228,261.159z"/>
<g>
	<path style="fill:#FE8D24;" d="M65.484,502h71.5v-40.125h-31.375C83.449,461.875,65.484,479.84,65.484,502L65.484,502z"/>
	<path style="fill:#FE8D24;" d="M208.484,502h-71.5v-40.125h31.375C190.52,461.875,208.484,479.84,208.484,502L208.484,502z"/>
</g>
<path style="fill:#FFCC9C;" d="M136.984,10L136.984,10c-24.301,0-44,19.699-44,44v8c0,24.301,19.699,44,44,44l0,0
	c24.301,0,44-19.699,44-44v-8C180.984,29.699,161.285,10,136.984,10z"/>
<rect x="92.981" y="259" style="fill:#C6AAFF;" width="88" height="202.87"/>
<g>
	<path style="fill:#FFCC9C;" d="M355.64,32L355.64,32c-24.301,0-44,19.699-44,44v8c0,24.301,19.699,44,44,44l0,0
		c24.301,0,44-19.699,44-44v-8C399.64,51.699,379.941,32,355.64,32z"/>
	<rect x="355.641" y="365.35" style="fill:#FFCC9C;" width="40" height="96.52"/>
	<rect x="315.641" y="365.35" style="fill:#FFCC9C;" width="40" height="96.52"/>
</g>
<g>
	<path style="fill:#AB81FF;" d="M435.765,502L435.765,502H355.64v-40.125h40C417.801,461.875,435.765,479.84,435.765,502
		L435.765,502z"/>
	<path style="fill:#AB81FF;" d="M275.515,502h80.125v-40.125h-40C293.48,461.875,275.515,479.84,275.515,502L275.515,502
		L275.515,502z"/>
</g>
<circle style="fill:#FE61AD;" cx="355.641" cy="256.13" r="39.13"/>
<path d="M62.987,280.36c0-2.63-1.07-5.21-2.93-7.07c-1.86-1.86-4.44-2.93-7.07-2.93c-2.64,0-5.21,1.07-7.07,2.93
	s-2.93,4.44-2.93,7.07s1.07,5.21,2.93,7.07c1.86,1.86,4.43,2.93,7.07,2.93c2.63,0,5.21-1.07,7.07-2.93S62.987,282.99,62.987,280.36z
	"/>
<path d="M176.975,98.249c8.7-9.59,14.009-22.311,14.009-36.249v-8c0-29.776-24.224-54-54-54s-54,24.224-54,54v8
	c0,14.044,5.393,26.849,14.211,36.464C66.021,106.776,42.984,135.243,42.984,169v68.532c0,5.523,4.477,10,10,10s10-4.477,10-10V169
	c0-29.224,23.776-53,53-53h43c29.224,0,53,23.776,53,53v111.358c0,5.523,4.477,10,10,10s10-4.477,10-10V169
	C231.984,134.954,208.556,106.283,176.975,98.249z M102.984,54c0-18.748,15.252-34,34-34s34,15.252,34,34v8
	c0,18.748-15.252,34-34,34s-34-15.252-34-34V54z"/>
<path d="M180.987,339c-2.64,0-5.21,1.07-7.07,2.93s-2.93,4.44-2.93,7.07s1.07,5.21,2.93,7.07s4.43,2.93,7.07,2.93
	c2.63,0,5.21-1.07,7.07-2.93s2.93-4.44,2.93-7.07s-1.07-5.21-2.93-7.07C186.197,340.07,183.617,339,180.987,339z"/>
<path d="M190.984,457.294V383c0-5.523-4.477-10-10-10s-10,4.477-10,10v68.875h-2.625h-21.375V313c0-5.523-4.477-10-10-10
	s-10,4.477-10,10v138.875h-21.375h-2.625V269h68v44c0,5.523,4.477,10,10,10s10-4.477,10-10V206c0-5.523-4.477-10-10-10
	s-10,4.477-10,10v43h-68v-43c0-5.523-4.477-10-10-10s-10,4.477-10,10v251.294c-16.299,8.283-27.5,25.206-27.5,44.706
	c0,5.523,4.477,10,10,10h143c5.523,0,10-4.477,10-10C218.484,482.499,207.284,465.576,190.984,457.294z M105.609,471.875h21.375V492
	H77.191C81.323,480.29,92.503,471.875,105.609,471.875z M146.984,492v-20.125h21.375c13.107,0,24.286,8.415,28.419,20.125H146.984z"
	/>
<path d="M467.858,258.467l-24.416-87.317c-6.791-24.284-26.133-42.654-49.764-48.861c9.852-9.788,15.962-23.337,15.962-38.288v-8
	c0-29.776-24.224-54-54-54s-54,24.224-54,54v8c0,14.951,6.111,28.5,15.962,38.288c-23.631,6.207-42.974,24.577-49.764,48.861
	l-24.416,87.317c-2.622,9.375-0.75,19.198,5.133,26.953s14.841,12.202,24.575,12.202c2.222,0,4.268-0.734,5.928-1.96l-12.434,67.891
	c-0.535,2.919,0.255,5.924,2.155,8.204s4.714,3.598,7.682,3.598h29.179v77.525c-22.864,4.648-40.125,24.905-40.125,49.121
	c0,5.523,4.477,10,10,10h160.25c5.523,0,10-4.477,10-10c0-24.216-17.261-44.473-40.125-49.121v-77.525h29.179
	c2.967,0,5.782-1.318,7.682-3.598c1.9-2.279,2.689-5.285,2.155-8.204l-12.286-67.088c1.393,0.736,2.977,1.156,4.662,1.156h1.119
	c9.734,0,18.691-4.447,24.575-12.202C468.608,277.665,470.48,267.841,467.858,258.467z M321.64,76c0-18.748,15.252-34,34-34
	s34,15.252,34,34v8c0,18.748-15.252,34-34,34s-34-15.252-34-34V76z M345.64,451.875h-20v-76.521h20V451.875z M315.64,471.875h30V492
	h-58.419C291.354,480.29,302.533,471.875,315.64,471.875z M424.059,492H365.64v-20.125h30
	C408.747,471.875,419.926,480.29,424.059,492z M385.64,451.875h-20v-76.521h20V451.875z M395.64,355.354h-40h-40h-27.181
	l18.069-98.659c0.307,26.827,22.214,48.559,49.113,48.559s48.806-21.732,49.113-48.559l18.069,98.659H395.64z M326.513,256.127
	c0-16.061,13.066-29.127,29.127-29.127s29.127,13.066,29.127,29.127s-13.066,29.127-29.127,29.127S326.513,272.188,326.513,256.127z
	 M446.792,273.331c-2.069,2.727-5.219,4.291-8.642,4.291h-1.119c-2.986,0-5.659,1.316-7.492,3.392l-14.068-76.815
	c-0.995-5.432-6.209-9.029-11.638-8.035c-5.433,0.995-9.03,6.206-8.035,11.638l5.567,30.4C394.187,219.955,376.404,207,355.64,207
	s-38.547,12.955-45.726,31.201l5.567-30.4c0.995-5.432-2.603-10.643-8.035-11.638c-5.432-0.992-10.643,2.603-11.638,8.035
	l-14.285,77.999c-1.782-2.751-4.872-4.576-8.394-4.576c-3.423,0-6.573-1.564-8.642-4.291s-2.727-6.181-1.805-9.478l24.416-87.317
	C293.114,155.024,312.916,140,335.252,140h40.776c22.336,0,42.138,15.024,48.153,36.535l24.416,87.317
	C449.519,267.149,448.861,270.604,446.792,273.331z"/>
<g>
</g>
<g>
</g>
<g>
</g>
<g>
</g>
<g>
</g>
<g>
</g>
<g>
</g>
<g>
</g>
<g>
</g>
<g>
</g>
<g>
</g>
<g>
</g>
<g>
</g>
<g>
</g>
<g>
</g>
</svg>
