<?xml version="1.0" encoding="iso-8859-1"?>
<!-- Generator: Adobe Illustrator 19.0.0, SVG Export Plug-In . SVG Version: 6.00 Build 0)  -->
<svg version="1.1" id="Capa_1" xmlns="http://www.w3.org/2000/svg" xmlns:xlink="http://www.w3.org/1999/xlink" x="0px" y="0px"
	 viewBox="0 0 512.001 512.001" style="enable-background:new 0 0 512.001 512.001;" xml:space="preserve">
<polygon style="fill:#BA98FF;" points="39.34,119.501 229,229.001 119.5,39.341 229,10.001 229,10.001 229,229.001 10,229.001 
	10,229.001 "/>
<polygon style="fill:#DAC7FF;" points="39.34,119.501 119.5,39.341 229,229.001 "/>
<g>
	<circle style="fill:#A77AFF;" cx="152.02" cy="462.001" r="40"/>
	<circle style="fill:#A77AFF;" cx="305.98" cy="462.001" r="40"/>
</g>
<path style="fill:#DAC7FF;" d="M326.943,373.114H131.057C64.199,373.114,10,318.915,10,252.057v-22.943h438v22.943
	C448,318.915,393.801,373.114,326.943,373.114z"/>
<path d="M229,89.001c-2.63,0-5.21,1.07-7.07,2.93c-1.86,1.86-2.93,4.44-2.93,7.07s1.07,5.21,2.93,7.07
	c1.86,1.86,4.44,2.93,7.07,2.93s5.21-1.07,7.07-2.93s2.93-4.44,2.93-7.07s-1.07-5.21-2.93-7.07
	C234.21,90.071,231.63,89.001,229,89.001z"/>
<path d="M502,154.001h-52c-2.652,0-5.196,1.054-7.071,2.929l-62.184,62.184H239v-79.113c0-5.523-4.477-10-10-10s-10,4.477-10,10
	v51.68L134.676,45.627L219,23.033v34.968c0,5.523,4.477,10,10,10s10-4.477,10-10v-48c0-3.109-1.446-6.041-3.913-7.934
	c-2.466-1.893-5.669-2.53-8.676-1.726l-109.5,29.34c-1.718,0.46-3.246,1.374-4.471,2.599c-0.004-0.004-0.008-0.007-0.012-0.011
	l-80.16,80.16c0.005,0.003,0.009,0.006,0.013,0.009c-1.226,1.226-2.141,2.755-2.601,4.473l-29.34,109.5
	c0.012,0.005,0.022,0.01,0.035,0.015C0.137,227.284,0,228.182,0,229.114v22.944c0,72.265,58.792,131.056,131.057,131.056h18.286
	L209,417.557l-19.582,11.305c-9.166-10.332-22.53-16.861-37.397-16.861c-27.57,0-50,22.43-50,50s22.43,50,50,50s50-22.43,50-50
	c0-5.532-0.917-10.851-2.583-15.829L229,429.104l29.562,17.067c-1.667,4.978-2.583,10.297-2.583,15.829c0,27.57,22.43,50,50,50
	s50-22.43,50-50s-22.43-50-50-50c-14.867,0-28.23,6.529-37.397,16.862L249,417.557l59.658-34.444h18.286
	c72.265,0,131.057-58.792,131.057-131.056v-22.944c0-5.523-4.477-10-10-10h-38.97l45.111-45.112H502c5.523,0,10-4.477,10-10
	S507.523,154.001,502,154.001z M182.021,462.001c0,16.542-13.458,30-30,30s-30-13.458-30-30s13.458-30,30-30
	c7.429,0,14.23,2.72,19.475,7.209l-24.475,14.131c-4.783,2.761-6.422,8.877-3.66,13.66c1.852,3.208,5.213,5.001,8.669,5.001
	c1.696,0,3.416-0.432,4.991-1.341l24.49-14.139C181.841,458.3,182.021,460.129,182.021,462.001z M305.979,432.001
	c16.542,0,30,13.458,30,30s-13.458,30-30,30s-30-13.458-30-30c0-1.872,0.181-3.701,0.51-5.479l24.49,14.139
	c1.575,0.909,3.294,1.341,4.991,1.341c3.456,0,6.817-1.793,8.669-5.001c2.762-4.783,1.123-10.899-3.66-13.66l-24.475-14.131
	C291.748,434.721,298.55,432.001,305.979,432.001z M201.68,201.681L55.627,117.357l61.729-61.729L201.68,201.681z M45.626,134.677
	l146.054,84.324H23.032L45.626,134.677z M229,406.01l-39.658-22.897h79.316L229,406.01z M438,239.114v12.944
	c0,61.236-49.82,111.056-111.057,111.056H131.057c-50.502,0-93.233-33.886-106.665-80.113h156.741c5.523,0,10-4.477,10-10
	s-4.477-10-10-10H20.539C20.185,259.4,20,255.75,20,252.058v-12.944h340.745l-21.398,21.398H280c-5.523,0-10,4.477-10,10
	s4.477,10,10,10h63.489c2.652,0,5.196-1.054,7.071-2.929l38.469-38.469L438,239.114L438,239.114z"/>
<path d="M229,263.001c-2.63,0-5.21,1.07-7.07,2.93s-2.93,4.44-2.93,7.07s1.07,5.21,2.93,7.07c1.86,1.86,4.44,2.93,7.07,2.93
	s5.21-1.07,7.07-2.93s2.93-4.44,2.93-7.07s-1.07-5.21-2.93-7.07C234.21,264.071,231.63,263.001,229,263.001z"/>
<g>
</g>
<g>
</g>
<g>
</g>
<g>
</g>
<g>
</g>
<g>
</g>
<g>
</g>
<g>
</g>
<g>
</g>
<g>
</g>
<g>
</g>
<g>
</g>
<g>
</g>
<g>
</g>
<g>
</g>
</svg>
