<?xml version="1.0" encoding="iso-8859-1"?>
<!-- Generator: Adobe Illustrator 19.0.0, SVG Export Plug-In . SVG Version: 6.00 Build 0)  -->
<svg version="1.1" id="Capa_1" xmlns="http://www.w3.org/2000/svg" xmlns:xlink="http://www.w3.org/1999/xlink" x="0px" y="0px"
	 viewBox="0 0 512.001 512.001" style="enable-background:new 0 0 512.001 512.001;" xml:space="preserve">
<path style="fill:#F2EBFF;" d="M417.627,213.274L298.728,94.375c-22.983-22.983-60.246-22.983-83.229,0L22.29,287.585
	c-16.417,16.417-16.417,43.033,0,59.449l142.678,142.678c16.417,16.417,43.033,16.417,59.449,0l193.21-193.21
	C440.61,273.52,440.61,236.257,417.627,213.274z"/>
<path style="fill:#FFFFFF;" d="M179.773,130.101L22.29,287.585c-16.417,16.417-16.417,43.033,0,59.449l142.678,142.678
	c16.417,16.417,43.033,16.417,59.449,0l157.485-157.485L179.773,130.101z"/>
<path style="fill:#BA98FF;" d="M478.562,196.925L315.077,33.44c-10.671-10.671-27.972-10.671-38.642,0l0,0
	c-10.671,10.671-10.671,27.972,0,38.642L439.92,235.567c10.671,10.671,27.972,10.671,38.642,0l0,0
	C489.233,224.896,489.233,207.596,478.562,196.925z"/>
<path style="fill:#FEBD80;" d="M466.445,184.808l-69.626-69.626l-69.625-69.626c18.612-6.902,49.11,4.703,67.209,16.488
	c18.099,11.784,23.753-22.49,29.863-32.13c1.703-2.682,3.644-5.279,5.998-7.632c16.418-16.418,43.027-16.406,59.446,0.009
	c16.415,16.418,16.427,43.027,0.009,59.446c-2.353,2.353-4.95,4.294-7.633,5.997c-9.638,6.112-43.913,11.766-32.128,29.865
	C461.742,135.697,473.347,166.196,466.445,184.808z"/>
<path d="M93.435,226.447c2.63,0,5.211-1.07,7.071-2.93c1.86-1.87,2.93-4.44,2.93-7.071s-1.07-5.211-2.93-7.081
	c-1.86-1.86-4.44-2.92-7.071-2.92c-2.64,0-5.211,1.06-7.081,2.92c-1.86,1.87-2.92,4.44-2.92,7.081c0,2.63,1.06,5.211,2.92,7.071
	C88.224,225.377,90.795,226.447,93.435,226.447z"/>
<path d="M475.055,101.722c4.911-1.873,9.153-3.491,12.386-5.542c3.636-2.306,6.695-4.716,9.35-7.371
	c20.284-20.284,20.28-53.296-0.01-73.59c-20.293-20.288-53.303-20.293-73.589-0.008c-2.649,2.649-5.059,5.706-7.373,9.349
	c-2.048,3.232-3.666,7.473-5.539,12.383c-1.801,4.724-5.959,15.626-8.956,17.481c-0.254-0.085-0.736-0.287-1.465-0.762
	c-14.175-9.231-45.431-23.94-69.675-19.261l-8.036-8.036c-7.05-7.05-16.423-10.932-26.393-10.932
	c-9.97,0-19.343,3.882-26.393,10.932S258.43,42.788,258.43,52.758c0,5.084,1.015,10.01,2.939,14.555
	c-19.022-1.168-38.439,5.484-52.943,19.987l-98.941,98.941c-3.905,3.905-3.905,10.238,0,14.144c3.905,3.905,10.238,3.905,14.144,0
	l56.14-56.14l35.579,35.578c1.953,1.953,4.512,2.929,7.072,2.929c2.559,0,5.12-0.977,7.072-2.929c3.905-3.905,3.905-10.238,0-14.143
	l-35.578-35.578l28.657-28.657c9.227-9.227,21.494-14.308,34.542-14.308c13.048,0,25.316,5.082,34.543,14.308l118.898,118.898
	c9.227,9.227,14.308,21.495,14.308,34.543c0,13.048-5.082,25.316-14.308,34.542L217.345,482.64
	c-12.49,12.491-32.814,12.492-45.306,0L29.361,339.963c-12.491-12.491-12.491-32.815,0-45.306l46.015-46.015
	c3.905-3.905,3.905-10.238,0-14.144c-3.905-3.906-10.238-3.905-14.144,0l-46.015,46.015c-20.289,20.29-20.289,53.303,0,73.593
	l142.679,142.678c10.145,10.145,23.47,15.217,36.796,15.217c13.326,0,26.652-5.073,36.797-15.217l193.21-193.21
	c14.503-14.503,21.155-33.921,19.987-52.943c4.544,1.924,9.471,2.939,14.555,2.939c9.97,0,19.343-3.882,26.394-10.932
	c14.552-14.552,14.552-38.233,0-52.785l0,0l-8.036-8.036c4.679-24.245-10.03-55.499-19.261-69.675l0,0
	c-0.475-0.729-0.677-1.21-0.762-1.464C459.432,107.68,470.331,103.524,475.055,101.722z M471.49,228.495
	c-3.271,3.271-7.622,5.074-12.249,5.074s-8.977-1.802-12.249-5.075L283.507,65.009c-3.271-3.271-5.073-7.622-5.073-12.249
	s1.802-8.978,5.074-12.249c3.376-3.377,7.813-5.066,12.249-5.066c4.436,0,8.873,1.688,12.249,5.066l12.113,12.113
	c0.001,0.001,0.002,0.003,0.004,0.004l139.251,139.251c0.003,0.003,0.007,0.006,0.01,0.009l12.107,12.107
	C478.245,210.75,478.245,221.74,471.49,228.495z M441.576,123.057L441.576,123.057c7.294,11.201,13.544,25.883,15.927,38.664
	L350.28,54.499c12.781,2.381,27.463,8.632,38.664,15.927c7.713,5.021,14.256,4.471,18.388,3.128
	c11.866-3.862,17.284-18.068,21.636-29.482c1.299-3.407,2.772-7.271,3.739-8.796c1.514-2.384,3.027-4.32,4.626-5.92
	c12.486-12.485,32.809-12.482,45.302,0.008c12.491,12.494,12.496,32.816,0.011,45.303c-1.602,1.601-3.537,3.113-5.918,4.622
	c-1.532,0.971-5.395,2.444-8.803,3.744c-11.413,4.353-25.617,9.771-29.479,21.636C437.104,108.801,436.555,115.345,441.576,123.057z
	"/>
<path d="M366.868,294.386c2.559,0,5.119-0.976,7.072-2.929c3.905-3.905,3.905-10.238,0-14.144l-41.701-41.701
	c-3.905-3.905-10.238-3.905-14.144,0c-3.905,3.905-3.905,10.238,0,14.144l41.701,41.701
	C361.749,293.41,364.308,294.386,366.868,294.386z"/>
<path d="M270.534,283.172c-3.905,3.905-3.905,10.238,0,14.144l41.701,41.701c1.953,1.953,4.512,2.929,7.072,2.929
	c2.559,0,5.12-0.976,7.072-2.929c3.905-3.905,3.905-10.238,0-14.144l-41.701-41.701
	C280.773,279.265,274.441,279.265,270.534,283.172z"/>
<path d="M222.976,330.73c-3.905,3.905-3.905,10.238,0,14.144l41.701,41.701c1.953,1.953,4.512,2.929,7.072,2.929
	s5.12-0.976,7.072-2.929c3.905-3.905,3.905-10.238,0-14.144l-41.701-41.701C233.214,326.825,226.881,326.825,222.976,330.73z"/>
<path d="M175.416,378.29c-3.905,3.905-3.905,10.238,0,14.144l41.701,41.701c1.953,1.953,4.512,2.929,7.072,2.929
	c2.559,0,5.12-0.976,7.072-2.929c3.905-3.905,3.905-10.238,0-14.144l-41.701-41.701C185.654,374.385,179.321,374.385,175.416,378.29
	z"/>
<path d="M263.072,213.406c1.86-1.86,2.93-4.44,2.93-7.071c0-2.64-1.07-5.211-2.93-7.081c-1.86-1.86-4.44-2.92-7.071-2.92
	c-2.63,0-5.211,1.06-7.071,2.92c-1.87,1.86-2.93,4.44-2.93,7.081c0,2.63,1.06,5.211,2.93,7.071c1.86,1.86,4.44,2.93,7.071,2.93
	C258.631,216.336,261.212,215.267,263.072,213.406z"/>
<g>
</g>
<g>
</g>
<g>
</g>
<g>
</g>
<g>
</g>
<g>
</g>
<g>
</g>
<g>
</g>
<g>
</g>
<g>
</g>
<g>
</g>
<g>
</g>
<g>
</g>
<g>
</g>
<g>
</g>
</svg>
