<?xml version="1.0" encoding="iso-8859-1"?>
<!-- Generator: Adobe Illustrator 19.0.0, SVG Export Plug-In . SVG Version: 6.00 Build 0)  -->
<svg version="1.1" id="Capa_1" xmlns="http://www.w3.org/2000/svg" xmlns:xlink="http://www.w3.org/1999/xlink" x="0px" y="0px"
	 viewBox="0 0 512 512" style="enable-background:new 0 0 512 512;" xml:space="preserve">
<path style="fill:#FFB954;" d="M462,462H50c-22.091,0-40-17.909-40-40V90c0-22.091,17.909-40,40-40h412c22.091,0,40,17.909,40,40
	v332C502,444.091,484.091,462,462,462z"/>
<rect x="50" y="90" style="fill:#FFEFD5;" width="412" height="332"/>
<rect x="278" y="374" style="fill:#FFFFFF;" width="184" height="48"/>
<path d="M462,40H50C22.43,40,0,62.43,0,90v332c0,27.57,22.43,50,50,50h73.088c5.523,0,10-4.477,10-10s-4.477-10-10-10H50
	c-16.542,0-30-13.458-30-30V90c0-16.542,13.458-30,30-30h412c16.542,0,30,13.458,30,30v332c0,16.542-13.458,30-30,30H212.333
	c-5.523,0-10,4.477-10,10s4.477,10,10,10H462c27.57,0,50-22.43,50-50V90C512,62.43,489.57,40,462,40z"/>
<path d="M169,452c-2.63,0-5.21,1.07-7.07,2.93S159,459.37,159,462s1.07,5.21,2.93,7.07c1.86,1.86,4.44,2.93,7.07,2.93
	s5.21-1.07,7.07-2.93S179,464.63,179,462s-1.07-5.21-2.93-7.07C174.21,453.07,171.63,452,169,452z"/>
<path d="M462,432c5.523,0,10-4.477,10-10v-48V90c0-5.523-4.477-10-10-10H50c-5.523,0-10,4.477-10,10v332c0,5.523,4.477,10,10,10H462
	z M60,100h392v264h-36.333c-5.523,0-10,4.477-10,10s4.477,10,10,10H452v28H288v-28h37.667c5.523,0,10-4.477,10-10s-4.477-10-10-10
	H278c-5.523,0-10,4.477-10,10v38H60V100z"/>
<path d="M370,364c-2.63,0-5.21,1.07-7.07,2.93c-1.86,1.86-2.93,4.44-2.93,7.07s1.07,5.21,2.93,7.07c1.86,1.86,4.44,2.93,7.07,2.93
	s5.21-1.07,7.07-2.93S380,376.63,380,374s-1.07-5.21-2.93-7.07C375.21,365.07,372.63,364,370,364z"/>
<path d="M295.293,261.328c0-9.359-3.802-17.846-9.941-24c6.139-6.154,9.941-14.641,9.941-24c0-18.748-15.252-34-34-34H233.5
	c-5.523,0-10,4.477-10,10v48v48c0,5.523,4.477,10,10,10h27.793C280.041,295.328,295.293,280.076,295.293,261.328z M243.5,199.328
	h17.793c7.72,0,14,6.28,14,14s-6.28,14-14,14H243.5V199.328z M243.5,247.328h17.793c7.72,0,14,6.28,14,14s-6.28,14-14,14H243.5
	V247.328z"/>
<path d="M187.808,265.221c3.453-1.576,5.858-5.05,5.858-9.094c0-5.523-4.477-10-10-10h-1.882l-18.87-59.808
	c-1.313-4.162-5.173-6.991-9.537-6.991s-8.224,2.83-9.537,6.991l-18.87,59.808h-1.882c-5.523,0-10,4.477-10,10
	c0,4.044,2.405,7.518,5.858,9.094l-5.395,17.098c-1.662,5.267,1.261,10.884,6.528,12.545c5.269,1.662,10.884-1.261,12.545-6.528
	l7.008-22.21h27.49l7.008,22.21c1.346,4.266,5.286,6.994,9.534,6.994c0.997,0,2.011-0.15,3.012-0.466
	c5.267-1.662,8.189-7.279,6.528-12.545L187.808,265.221z M145.942,246.127l7.435-23.564l7.435,23.564H145.942z"/>
<path d="M361.338,295.328c19.172,0,34.77-15.598,34.77-34.77c0-5.523-4.477-10-10-10s-10,4.477-10,10
	c0,8.144-6.625,14.77-14.77,14.77s-14.77-6.626-14.77-14.77v-46.46c0-8.144,6.626-14.77,14.77-14.77s14.77,6.626,14.77,14.77
	c0,5.523,4.477,10,10,10s10-4.477,10-10c0-19.172-15.598-34.77-34.77-34.77s-34.77,15.598-34.77,34.77v46.46
	C326.568,279.73,342.166,295.328,361.338,295.328z"/>
<g>
</g>
<g>
</g>
<g>
</g>
<g>
</g>
<g>
</g>
<g>
</g>
<g>
</g>
<g>
</g>
<g>
</g>
<g>
</g>
<g>
</g>
<g>
</g>
<g>
</g>
<g>
</g>
<g>
</g>
</svg>
