<?xml version="1.0" encoding="iso-8859-1"?>
<!-- Generator: Adobe Illustrator 19.0.0, SVG Export Plug-In . SVG Version: 6.00 Build 0)  -->
<svg version="1.1" id="Capa_1" xmlns="http://www.w3.org/2000/svg" xmlns:xlink="http://www.w3.org/1999/xlink" x="0px" y="0px"
	 viewBox="0 0 512 512" style="enable-background:new 0 0 512 512;" xml:space="preserve">
<path style="fill:#E7EBEC;" d="M405.96,465.281l-32.199,6.149l-9.383-49.136l32.199-6.149c4.402-0.84,8.652,2.046,9.492,6.448
	l6.339,33.196C413.249,460.19,410.362,464.44,405.96,465.281z"/>
<path style="opacity:0.1;enable-background:new    ;" d="M412.532,456.876c-23.198-2.603-29.027-25.114-31.512-37.76l-16.642,3.178
	l9.383,49.136l32.199-6.149C409.998,464.51,412.751,460.87,412.532,456.876z"/>
<g>
	<path style="fill:#7E9EDC;" d="M90.668,366.83c-6.972,0-14.011-2.104-20.111-6.476c-15.514-11.123-19.075-32.717-7.951-48.232
		c12.575-17.54,32.763-34.314,55.386-46.017c30.065-15.556,64.625-22.507,99.942-20.096c19.045,1.3,33.432,17.792,32.133,36.837
		c-1.3,19.045-17.802,33.416-36.837,32.133c-50.986-3.472-84.071,22.958-94.441,37.423
		C112.039,361.817,101.433,366.83,90.668,366.83z"/>
	<path style="fill:#7E9EDC;" d="M167.132,504.5c-0.689,0-1.38-0.021-2.076-0.061c-19.056-1.129-33.589-17.492-32.461-36.549
		c2.472-41.727,19.896-88.207,45.471-121.298c11.674-15.105,33.381-17.884,48.486-6.212c15.105,11.673,17.886,33.382,6.212,48.486
		c-16.995,21.99-29.517,55.39-31.159,83.112C200.518,490.338,185.287,504.5,167.132,504.5z"/>
	<path style="fill:#7E9EDC;" d="M421.33,366.83c-10.765,0-21.37-5.012-28.121-14.427c-10.369-14.466-43.44-40.9-94.441-37.423
		c-19.044,1.289-35.538-13.088-36.837-32.133c-1.299-19.045,13.088-35.537,32.134-36.837c35.315-2.41,69.876,4.54,99.942,20.096
		c22.623,11.704,42.811,28.477,55.386,46.017c11.123,15.515,7.562,37.108-7.951,48.232
		C435.342,364.726,428.302,366.83,421.33,366.83z"/>
	<path style="fill:#7E9EDC;" d="M344.865,504.5c-18.155,0-33.386-14.161-34.473-32.523c-1.642-27.722-14.164-61.122-31.159-83.112
		c-11.674-15.104-8.893-36.813,6.212-48.486c15.105-11.675,36.811-8.893,48.486,6.212c25.575,33.091,42.999,79.571,45.471,121.298
		c1.128,19.056-13.405,35.419-32.461,36.549C346.245,504.479,345.553,504.5,344.865,504.5z"/>
</g>
<ellipse style="fill:#98D2E6;" cx="255.999" cy="326.15" rx="114.65" ry="109.72"/>
<path style="fill:#FFF4D1;" d="M255.999,311.051c-36.357,0-65.831,31.919-65.831,71.294c0,15.063,4.324,29.025,11.687,40.536
	c16.126,8.284,34.561,12.987,54.144,12.987s38.018-4.703,54.144-12.987c7.362-11.511,11.687-25.474,11.687-40.536
	C321.83,342.97,292.356,311.051,255.999,311.051z"/>
<circle style="fill:#7E9EDC;" cx="127.469" cy="73.01" r="65.51"/>
<circle style="fill:#FFF4D1;" cx="127.469" cy="73.01" r="35.608"/>
<circle style="fill:#7E9EDC;" cx="384.519" cy="73.01" r="65.51"/>
<circle style="fill:#FFF4D1;" cx="384.519" cy="73.01" r="35.608"/>
<path style="opacity:0.15;fill:#003A63;enable-background:new    ;" d="M180.968,316.352c0.095-7.093,7.385-11.836,13.927-9.094
	c18.642,7.813,39.325,12.165,61.104,12.165c40.497,0,77.208-15.038,104.039-39.422c-18.213-37.535-57.946-63.567-104.039-63.567
	c-63.321,0-114.654,49.122-114.654,109.717s51.333,109.717,114.654,109.717c26.773,0,51.401-8.783,70.913-23.499
	C220.151,437.678,180.369,360.921,180.968,316.352z"/>
<ellipse style="fill:#98D2E6;" cx="255.999" cy="152.26" rx="148.81" ry="138.27"/>
<path style="fill:#FFF4D1;" d="M310.32,143.879l-34.987-31.518c-10.989-9.9-27.681-9.9-38.67,0l-34.987,31.518
	c-16.652,15.001-15.233,41.538,2.924,54.677l0,0c30.671,22.195,72.124,22.195,102.794,0l0,0
	C325.554,185.416,326.973,158.88,310.32,143.879z"/>
<g>
	<ellipse style="fill:#F895C6;" cx="166.019" cy="138.51" rx="32.07" ry="25.538"/>
	<ellipse style="fill:#F895C6;" cx="345.979" cy="138.51" rx="32.07" ry="25.538"/>
</g>
<path style="fill:#495059;" d="M271.241,136.27L271.241,136.27c-9.993-2.616-20.491-2.616-30.484,0l0,0
	c-4.139,1.083-7.744,3.63-10.15,7.167l0,0c-3.249,4.777-1.381,11.33,3.898,13.678l14.643,6.512c4.361,1.939,9.34,1.939,13.702,0
	l14.643-6.512c5.279-2.347,7.146-8.9,3.898-13.678l0,0C278.985,139.9,275.38,137.353,271.241,136.27z"/>
<path style="opacity:0.05;fill:#003A63;enable-background:new    ;" d="M358.988,252.055
	c-216.46,39.364-225.264-148.354-180.783-217.68c-42.601,24.323-71.015,68.017-71.015,117.883
	c0,76.362,66.624,138.266,148.81,138.266C295.968,290.525,332.253,275.88,358.988,252.055z"/>
<path d="M455.487,307.752c-13.243-18.472-34.397-36.079-58.035-48.308c-7.84-4.056-16.042-7.562-24.489-10.503
	c6.807-7.155,12.878-14.927,18.076-23.22c13.915-22.201,21.27-47.605,21.27-73.463c0-3.884-0.168-7.733-0.489-11.541
	c12.245-4.962,23.138-13.291,31.111-23.905c9.552-12.714,14.601-27.861,14.601-43.804C457.531,32.751,424.78,0,384.524,0
	c-20.927,0-40.339,8.697-54.173,24.066c-22.124-11.205-47.455-17.574-74.352-17.574s-52.228,6.369-74.352,17.573
	C167.813,8.697,148.401,0,127.474,0C87.218,0,54.467,32.751,54.467,73.008c0,15.942,5.049,31.09,14.601,43.804
	c7.974,10.615,18.866,18.943,31.111,23.905c-0.321,3.809-0.489,7.657-0.489,11.541c0,37.052,14.91,70.913,39.417,96.658
	c-8.472,2.947-16.698,6.46-24.56,10.528c-23.639,12.229-44.792,29.836-58.035,48.308c-13.514,18.85-9.173,45.182,9.677,58.697
	c7.191,5.155,15.657,7.881,24.48,7.881c13.543,0,26.334-6.564,34.216-17.558c2.54-3.542,6.275-7.369,10.678-11.026
	c2.225,12.633,6.562,24.586,12.652,35.51c-11.05,23.064-18.553,47.874-21.741,72.011c-0.542,4.106,2.348,7.875,6.454,8.417
	c0.333,0.044,0.663,0.065,0.991,0.065c3.705,0,6.928-2.746,7.426-6.52c2.606-19.735,8.312-39.977,16.629-59.218
	c10.594,13.652,24.205,25.027,39.881,33.203c0.398,0.251,0.816,0.463,1.25,0.634c1.073,0.544,2.154,1.075,3.245,1.589
	c-4.653,13.772-7.484,27.509-8.23,40.096C193.272,485.815,181.419,497,167.133,497c-0.543,0-1.087-0.017-1.633-0.049
	c-8.68-0.514-16.64-5.217-21.294-12.579c-2.214-3.501-6.845-4.545-10.348-2.332c-3.501,2.214-4.545,6.846-2.332,10.348
	c7.229,11.435,19.598,18.738,33.089,19.538c0.84,0.049,1.687,0.074,2.518,0.074c22.214,0,40.645-17.385,41.96-39.579
	c0.654-11.043,3.133-23.162,7.209-35.412c12.452,4.117,25.806,6.359,39.697,6.359c13.891,0,27.245-2.242,39.697-6.359
	c4.076,12.25,6.555,24.369,7.209,35.412c1.315,22.194,19.746,39.579,41.96,39.579c0.831,0,1.678-0.025,2.52-0.074
	c20.013-1.186,35.957-16.258,39.032-35.277l20.949-4.001c4.098-0.782,7.645-3.112,9.988-6.563c2.344-3.45,3.204-7.607,2.422-11.704
	l-6.339-33.195c-0.783-4.097-3.113-7.642-6.564-9.986c-3.451-2.345-7.606-3.204-11.703-2.422l-18.983,3.625
	c-3.414-10.581-7.573-21.04-12.407-31.137c6.092-10.927,10.431-22.882,12.656-35.519c4.403,3.658,8.137,7.484,10.677,11.026
	c7.883,10.994,20.674,17.558,34.217,17.558c8.823,0,17.289-2.726,24.48-7.881C464.66,352.934,469.001,326.603,455.487,307.752z
	 M397.984,423.512c0.063-0.013,0.248-0.048,0.459,0.095c0.211,0.144,0.247,0.332,0.259,0.394l6.339,33.195
	c0.012,0.061,0.048,0.25-0.095,0.46s-0.33,0.246-0.394,0.258l-18.128,3.462c-1.03-11.287-3.08-22.894-6.05-34.5L397.984,423.512z
	 M400.302,96.249c-7.691-17.167-18.807-32.677-32.545-45.79c4.798-3.579,10.637-5.559,16.767-5.559
	c15.499,0,28.108,12.609,28.108,28.108C412.633,82.445,407.871,91.098,400.302,96.249z M384.524,15
	c31.985,0,58.007,26.022,58.007,58.008c0,22.728-12.924,42.801-32.908,52.316c-1.013-5.033-2.304-9.974-3.857-14.812
	c13.32-7.558,21.867-21.834,21.867-37.504c0-23.77-19.338-43.108-43.108-43.108c-10.532,0-20.512,3.796-28.299,10.595
	c-3.979-3.109-8.124-6.038-12.424-8.771C354.595,21.021,369.03,15,384.524,15z M102.375,125.323
	c-19.984-9.515-32.908-29.588-32.908-52.316C69.467,41.022,95.488,15,127.474,15c15.494,0,29.929,6.021,40.724,16.724
	c-4.3,2.733-8.445,5.663-12.424,8.771c-7.788-6.799-17.767-10.595-28.299-10.595c-23.771,0-43.108,19.338-43.108,43.108
	c0,15.669,8.547,29.946,21.867,37.504C104.679,115.349,103.388,120.29,102.375,125.323z M99.365,73.008
	c0-15.499,12.609-28.108,28.108-28.108c6.13,0,11.97,1.98,16.767,5.559c-13.738,13.113-24.854,28.623-32.545,45.79
	C104.127,91.098,99.365,82.445,99.365,73.008z M133.846,326.151c0,0.699,0.015,1.394,0.028,2.09
	c-8.791,6.029-16.379,13.097-21.18,19.791c-5.071,7.074-13.306,11.298-22.025,11.298c-5.669,0-11.112-1.754-15.74-5.072
	c-12.128-8.695-14.921-25.637-6.226-37.766c11.909-16.611,31.131-32.549,52.736-43.726c9.544-4.937,19.671-9.006,30.15-12.13
	c0.66,0.554,1.322,1.105,1.992,1.649C140.66,281.293,133.846,303.215,133.846,326.151z M149.006,331.716
	c-0.001-0.012-0.002-0.024-0.002-0.037c-0.103-1.831-0.158-3.673-0.158-5.528c0-19.712,5.809-38.577,16.833-54.988
	c25.523,16.909,56.699,26.861,90.321,26.861c15.522,0,30.853-2.117,45.568-6.292c3.985-1.13,6.299-5.277,5.168-9.262
	c-1.129-3.984-5.273-6.3-9.262-5.168c-13.384,3.797-27.338,5.722-41.475,5.722c-77.918,0-141.31-58.662-141.31-130.767
	s63.392-130.765,141.31-130.765s141.31,58.661,141.31,130.766c0,23.037-6.563,45.686-18.979,65.497
	c-12.101,19.307-29.454,35.547-50.184,46.963c-3.628,1.998-4.949,6.559-2.951,10.188c1.999,3.629,6.558,4.95,10.188,2.951
	c3.761-2.071,7.412-4.301,10.965-6.653c11.007,16.402,16.805,35.253,16.805,54.948c0,1.855-0.055,3.697-0.158,5.528
	c-0.001,0.012-0.001,0.024-0.002,0.037c-1.596,28.239-15.264,53.463-36.155,71.059c1.648-6.607,2.493-13.463,2.493-20.43
	c0-43.447-32.896-78.794-73.331-78.794s-73.331,35.347-73.331,78.794c0,6.967,0.846,13.823,2.493,20.43
	C164.27,385.179,150.602,359.955,149.006,331.716z M255.999,428.368c-17.606,0-34.233-4.073-48.902-11.281
	c-6.172-10.354-9.429-22.318-9.429-34.742c0-35.176,26.167-63.794,58.331-63.794s58.331,28.618,58.331,63.794
	c0,12.424-3.257,24.388-9.429,34.742C290.232,424.295,273.605,428.368,255.999,428.368z M363.805,423.149
	c0.006,0.019,0.011,0.038,0.017,0.057c4.442,15.207,7.229,30.529,8.094,45.126c0.037,0.618,0.044,1.23,0.039,1.84
	c-0.001,0.039-0.002,0.079-0.002,0.118c-0.177,14.048-11.215,25.817-25.452,26.66c-14.951,0.895-27.743-10.594-28.62-25.417
	c-0.746-12.586-3.577-26.324-8.23-40.096c1.069-0.504,2.129-1.023,3.18-1.556c0.438-0.168,0.855-0.388,1.257-0.637
	c15.697-8.177,29.327-19.56,39.933-33.226C357.854,404.9,361.13,414.002,363.805,423.149z M437.07,354.258
	c-4.628,3.318-10.071,5.072-15.74,5.072c-8.72,0-16.954-4.224-22.026-11.298c-4.8-6.695-12.388-13.762-21.179-19.791
	c0.013-0.696,0.028-1.391,0.028-2.09c0-22.918-6.803-44.823-19.703-63.82c0.682-0.553,1.36-1.11,2.032-1.674
	c10.454,3.121,20.556,7.183,30.079,12.109c21.605,11.177,40.827,27.114,52.736,43.726
	C451.991,328.621,449.198,345.563,437.07,354.258z M273.141,129.015c-11.215-2.937-23.071-2.937-34.282,0
	c-5.895,1.543-11.027,5.167-14.453,10.205c-2.802,4.12-3.625,9.232-2.26,14.023c1.365,4.792,4.759,8.701,9.311,10.726l14.644,6.512
	c3.146,1.399,6.521,2.099,9.898,2.099c3.376,0,6.753-0.7,9.898-2.099l14.644-6.512c4.553-2.024,7.946-5.934,9.311-10.726
	c1.365-4.791,0.542-9.902-2.26-14.021C284.168,134.183,279.035,130.558,273.141,129.015z M275.427,149.132
	c-0.103,0.362-0.357,0.853-0.981,1.131l-14.644,6.512c-2.415,1.074-5.188,1.074-7.605,0l-14.644-6.512
	c-0.624-0.278-0.879-0.769-0.981-1.131c-0.104-0.362-0.146-0.912,0.238-1.478c1.386-2.038,3.462-3.504,5.847-4.128
	c4.364-1.143,8.854-1.714,13.343-1.714c4.489,0,8.978,0.571,13.343,1.714c0,0,0,0,0.001,0c2.384,0.624,4.46,2.09,5.846,4.129
	C275.573,148.22,275.53,148.77,275.427,149.132z M277.475,181.165c-3.124-2.722-7.862-2.395-10.582,0.727
	c-2.75,3.156-6.721,4.967-10.894,4.967s-8.144-1.811-10.894-4.967c-2.723-3.121-7.458-3.448-10.582-0.727
	c-3.122,2.721-3.448,7.459-0.727,10.582c5.6,6.426,13.692,10.111,22.202,10.111c8.51,0,16.603-3.686,22.202-10.111
	C280.923,188.624,280.597,183.886,277.475,181.165z M327.293,120.539c4.143,0,7.5-3.357,7.5-7.5v-11.325c0-4.143-3.357-7.5-7.5-7.5
	s-7.5,3.357-7.5,7.5v11.325C319.793,117.182,323.15,120.539,327.293,120.539z M184.705,94.214c-4.143,0-7.5,3.357-7.5,7.5v11.325
	c0,4.143,3.357,7.5,7.5,7.5s7.5-3.357,7.5-7.5v-11.325C192.205,97.571,188.848,94.214,184.705,94.214z"/>
<g>
</g>
<g>
</g>
<g>
</g>
<g>
</g>
<g>
</g>
<g>
</g>
<g>
</g>
<g>
</g>
<g>
</g>
<g>
</g>
<g>
</g>
<g>
</g>
<g>
</g>
<g>
</g>
<g>
</g>
</svg>
