<?xml version="1.0" encoding="iso-8859-1"?>
<!-- Generator: Adobe Illustrator 19.0.0, SVG Export Plug-In . SVG Version: 6.00 Build 0)  -->
<svg version="1.1" id="Capa_1" xmlns="http://www.w3.org/2000/svg" xmlns:xlink="http://www.w3.org/1999/xlink" x="0px" y="0px"
	 viewBox="0 0 512 512" style="enable-background:new 0 0 512 512;" xml:space="preserve">
<g>
	<path style="fill:#FFC66C;" d="M39.457,381.501h395.598c37.339,0,67.538,30.569,66.936,68.045
		C501.522,478.721,477.434,502,448.254,502H52.846l0,0c22.546,0,40.823-18.277,40.823-40.823v-38.854
		c0-22.546-18.277-40.823-40.823-40.823H39.457z"/>
	<path style="fill:#FFC66C;" d="M450,304.282h40v-73.5c0-11.046-8.954-20-20-20l0,0c-11.046,0-20,8.954-20,20V304.282z"/>
</g>
<path style="fill:#5A54E0;" d="M107.466,183.38v63.68c0,7.404,3.903,14.26,10.269,18.04l127.554,75.736
	c6.603,3.92,14.82,3.92,21.423,0L394.266,265.1c6.366-3.78,10.269-10.636,10.269-18.04v-60.973"/>
<path style="fill:#6A80FF;" d="M465.505,147.179l-200.08,118.797c-5.809,3.449-13.039,3.449-18.849,0L46.496,147.179
	c-5.993-3.558-5.993-12.234,0-15.792L246.576,12.59c5.809-3.449,13.039-3.449,18.849,0l200.08,118.797
	C471.498,134.945,471.498,143.621,465.505,147.179z"/>
<ellipse style="fill:#72D8FF;" cx="255.999" cy="141.899" rx="28.901" ry="24.664"/>
<path style="fill:#FEDA9B;" d="M39.457,425.225v-43.724c36.972,0,66.944,29.972,66.944,66.944c0,29.578-23.978,53.556-53.556,53.556
	c-23.662,0-42.844-19.182-42.844-42.844c0-18.93,15.346-34.276,34.276-34.276c15.144,0,27.42,12.277,27.42,27.42"/>
<path d="M41.391,155.778l56.075,33.294v57.988c0,10.878,5.811,21.086,15.164,26.639l127.554,75.736
	c4.878,2.896,10.348,4.344,15.817,4.344c5.469,0,10.938-1.448,15.817-4.344l127.553-75.736c9.354-5.553,15.164-15.76,15.164-26.639
	v-57.988l45.464-26.994v40.425c-11.639,4.128-20,15.243-20,28.28v73.5c0,5.523,4.477,10,10,10h40c5.523,0,10-4.477,10-10v-73.5
	c0-13.036-8.361-24.152-20-28.28v-63.22l0,0v-0.001c0-6.837-3.51-13.003-9.389-16.494L270.53,3.991
	c-8.962-5.321-20.096-5.322-29.059,0L41.391,122.789c-5.879,3.491-9.389,9.657-9.389,16.494S35.511,152.286,41.391,155.778z
	 M122.84,256.502c-3.315-1.968-5.374-5.586-5.374-9.441v-46.113l124.005,73.628c1.457,0.866,2.976,1.575,4.53,2.159v52.894
	L122.84,256.502z M394.535,247.06c0,3.855-2.059,7.473-5.375,9.441l-123.159,73.128v-52.894c1.554-0.584,3.073-1.294,4.53-2.159
	l124.005-73.628v46.112H394.535z M480,294.282h-20v-63.5c0-5.514,4.486-10,10-10s10,4.486,10,10V294.282z M251.681,21.189
	c2.665-1.581,5.975-1.582,8.638,0l198.897,118.095L260.319,257.379c-2.663,1.581-5.973,1.582-8.638,0L52.785,139.283L251.681,21.189
	z"/>
<path d="M294.902,141.899c0-19.114-17.451-34.664-38.901-34.664s-38.902,15.55-38.902,34.664S234.55,176.563,256,176.563
	S294.902,161.013,294.902,141.899z M237.099,141.899c0-7.949,8.656-14.664,18.901-14.664c10.245,0,18.901,6.715,18.901,14.664
	s-8.656,14.664-18.901,14.664C245.755,156.563,237.099,149.848,237.099,141.899z"/>
<path d="M435.055,371.501H223.001c-5.523,0-10,4.477-10,10s4.477,10,10,10h33c31.399,0,56.944,25.545,56.944,56.944
	c0,24.017-19.539,43.556-43.556,43.556H99.066c10.735-11.385,17.335-26.71,17.335-43.556c0-22.546-9.748-42.859-25.25-56.944h43.183
	c5.523,0,10-4.477,10-10s-4.477-10-10-10H39.457c-0.196,0-0.366,0.01-0.522,0.026c-5.279,0.273-9.478,4.627-9.478,9.974
	c0,5.124,3.856,9.341,8.823,9.925c0.248,0.05,0.628,0.075,1.177,0.075c31.399,0,56.944,25.545,56.944,56.944
	c0,24.017-19.539,43.556-43.556,43.556c-18.11,0-32.844-14.734-32.844-32.844c0-13.386,10.89-24.276,24.275-24.276
	c9.605,0,17.42,7.815,17.42,17.42c0,5.523,4.477,10,10,10s10-4.477,10-10c0-20.634-16.787-37.42-37.42-37.42
	c-24.414,0-44.275,19.862-44.275,44.276C0.002,488.294,23.707,512,52.845,512h395.598c35.045,0,63.556-28.511,63.556-63.556
	C512,406.018,477.482,371.501,435.055,371.501z M448.444,492H315.609c10.735-11.385,17.335-26.71,17.335-43.556
	c0-22.546-9.748-42.859-25.25-56.944h127.36c31.399,0,56.944,25.545,56.944,56.944C492,472.461,472.46,492,448.444,492z"/>
<path d="M171.931,374.431c-1.86,1.86-2.93,4.44-2.93,7.07c0,2.63,1.07,5.21,2.93,7.07c1.86,1.86,4.44,2.93,7.07,2.93
	s5.21-1.07,7.07-2.93c1.86-1.86,2.93-4.44,2.93-7.07c0-2.63-1.07-5.21-2.93-7.07c-1.86-1.86-4.44-2.93-7.07-2.93
	C176.371,371.501,173.792,372.571,171.931,374.431z"/>
<g>
</g>
<g>
</g>
<g>
</g>
<g>
</g>
<g>
</g>
<g>
</g>
<g>
</g>
<g>
</g>
<g>
</g>
<g>
</g>
<g>
</g>
<g>
</g>
<g>
</g>
<g>
</g>
<g>
</g>
</svg>
