<?xml version="1.0" encoding="iso-8859-1"?>
<!-- Generator: Adobe Illustrator 19.0.0, SVG Export Plug-In . SVG Version: 6.00 Build 0)  -->
<svg version="1.1" id="Capa_1" xmlns="http://www.w3.org/2000/svg" xmlns:xlink="http://www.w3.org/1999/xlink" x="0px" y="0px"
	 viewBox="0 0 511.999 511.999" style="enable-background:new 0 0 511.999 511.999;" xml:space="preserve">
<path style="fill:#D39852;" d="M272.621,225.59h-33.242v265.781c0,7.25,5.877,13.127,13.127,13.127h6.988
	c7.25,0,13.127-5.877,13.127-13.127V225.59z"/>
<polygon style="opacity:0.1;enable-background:new    ;" points="239.378,329.348 272.621,362.59 272.621,225.59 239.378,225.59 "/>
<path style="fill:#F3BB62;" d="M382.587,186.591c0,0,21.407-21.407,38.999-38.999s20.3-62.935-5.796-87.375
	c-26.096-24.439-56.334-8.284-43.493,12.427C362.77,78.857,295,102.415,295,147.592L382.587,186.591z"/>
<path style="opacity:0.2;fill:#AC6A22;enable-background:new    ;" d="M320.177,102.891c-13.954,11.512-25.178,26.316-25.178,44.701
	l87.588,38.999c0,0,21.407-21.407,38.999-38.999C365.029,133.913,332.277,117.063,320.177,102.891z"/>
<path style="fill:#FCDF81;" d="M356.277,212.9l65.309-65.309H256v77.999h69.641C337.132,225.59,348.152,221.026,356.277,212.9z"/>
<path style="fill:#7E9EDC;" d="M256,313.178c0,0,21.407,21.407,38.999,38.999c17.593,17.593,62.935,20.3,87.375-5.796
	c24.439-26.096,8.284-56.334-12.427-43.493c-6.213-9.527-29.771-77.297-74.948-77.297L256,313.178z"/>
<path style="opacity:0.15;fill:#003A63;enable-background:new    ;" d="M339.699,250.768
	c-11.512-13.954-26.316-25.178-44.701-25.178L256,313.178c0,0,21.407,21.407,38.999,38.999
	C308.677,295.62,325.528,262.869,339.699,250.768z"/>
<path style="fill:#98D2E6;" d="M229.69,286.869l65.309,65.309V186.591H217v69.641C217,267.723,221.565,278.744,229.69,286.869z"/>
<path style="fill:#F3BB62;" d="M129.412,186.591c0,0-21.407,21.407-38.999,38.999s-20.3,62.936,5.796,87.375
	s56.334,8.284,43.493-12.427C149.23,294.325,217,270.767,217,225.59L129.412,186.591z"/>
<path style="opacity:0.2;fill:#AC6A22;enable-background:new    ;" d="M191.823,270.291C205.776,258.779,217,243.975,217,225.59
	l-87.588-38.999c0,0-21.407,21.407-38.999,38.999C146.97,239.269,179.722,256.119,191.823,270.291z"/>
<path style="fill:#FCDF81;" d="M155.722,160.282L90.413,225.59H256v-77.999h-69.641
	C174.867,147.592,163.847,152.156,155.722,160.282z"/>
<path style="fill:#D76976;" d="M256,60.004c0,0-21.407-21.407-38.999-38.999s-62.936-20.3-87.375,5.796s-8.284,56.334,12.427,43.493
	c6.213,9.527,29.771,77.297,74.948,77.297L256,60.004z"/>
<path style="opacity:0.2;fill:#893529;enable-background:new    ;" d="M172.3,122.414c11.512,13.954,26.316,25.178,44.701,25.178
	L256,60.004c0,0-21.407-21.407-38.999-38.999C203.322,77.562,186.471,110.313,172.3,122.414z"/>
<path style="fill:#F895C6;" d="M282.309,86.313L217,21.005v165.586h77.999V116.95C294.999,105.459,290.434,94.439,282.309,86.313z"
	/>
<circle style="fill:#495059;" cx="256" cy="186.59" r="38.999"/>
<g>
	<rect x="239.38" y="406.72" style="fill:#FFF4D1;" width="33.24" height="15"/>
	<rect x="239.38" y="368.14" style="fill:#FFF4D1;" width="33.24" height="15"/>
</g>
<path d="M256,179.239c-4.061,0-7.352,3.292-7.352,7.352c0,4.061,3.292,7.352,7.352,7.352c4.06,0,7.352-3.292,7.352-7.352
	C263.352,182.53,260.06,179.239,256,179.239z M420.917,54.742c-18.755-17.562-39.979-17.397-51.252-8.158
	c-6.982,5.723-9.433,14.095-7.041,22.627c-0.711,0.341-1.451,0.693-2.2,1.05c-14.405,6.858-41.565,19.792-58.366,40.047
	c-1.435-11.059-6.43-21.283-14.444-29.298l-65.309-65.309c-10.133-10.131-27.33-15.987-46.024-15.69
	c-20.551,0.336-39.551,8.232-52.13,21.663c-17.563,18.755-17.398,39.979-8.158,51.253c5.725,6.983,14.097,9.433,22.627,7.041
	c0.34,0.71,0.692,1.449,1.049,2.198c6.858,14.405,19.792,41.566,40.048,58.367c-11.059,1.435-21.283,6.43-29.299,14.445
	L85.12,220.277c-0.003,0.003-0.007,0.006-0.01,0.009c-10.131,10.132-15.997,27.337-15.69,46.023
	c0.336,20.551,8.232,39.551,21.663,52.13c10.812,10.124,22.442,14.357,32.516,14.357c7.4,0,13.961-2.285,18.736-6.199
	c6.982-5.723,9.433-14.094,7.041-22.627c0.71-0.34,1.449-0.692,2.197-1.048c14.406-6.858,41.567-19.793,58.369-40.049
	c1.435,11.058,6.429,21.282,14.444,29.299l7.492,7.492v142.397c0,4.143,3.357,7.5,7.5,7.5s7.5-3.357,7.5-7.5V314.665l18.242,18.242
	v158.464c0,3.103-2.524,5.628-5.627,5.628h-6.988c-3.103,0-5.627-2.524-5.627-5.628v-13.95c0-4.143-3.357-7.5-7.5-7.5
	s-7.5,3.357-7.5,7.5v13.95c0,11.374,9.253,20.628,20.627,20.628h6.988c11.374,0,20.627-9.254,20.627-20.628V347.907l9.574,9.574
	c9.88,9.879,26.484,15.702,44.63,15.702c0.464,0,0.929-0.004,1.394-0.012c20.551-0.337,39.551-8.233,52.13-21.664
	c17.563-18.754,17.398-39.979,8.158-51.252c-5.723-6.982-14.094-9.43-22.627-7.041c-0.34-0.71-0.691-1.449-1.048-2.197
	c-6.858-14.405-19.793-41.566-40.049-58.368c11.058-1.435,21.282-6.43,29.299-14.446l17.448-17.449
	c2.929-2.929,2.929-7.678-0.001-10.606c-2.928-2.928-7.677-2.929-10.606,0.001l-17.447,17.448
	c-6.769,6.768-15.766,10.494-25.334,10.494h-23.143v-62.999h100.98l-10.44,10.439c-2.93,2.929-2.93,7.678-0.001,10.607
	c1.465,1.465,3.384,2.197,5.304,2.197c1.919,0,3.839-0.732,5.303-2.196l23.244-23.243c10.131-10.132,15.997-27.337,15.69-46.023
	C442.244,86.321,434.347,67.321,420.917,54.742z M153.211,75.718c-2.167-4.553-3.6-7.561-4.877-9.52
	c-2.226-3.413-6.77-4.425-10.234-2.277c-3.054,1.893-7.356,3.343-10.507-0.503c-4.26-5.198-4.748-18.405,7.507-31.49
	c9.816-10.482,24.916-16.649,41.426-16.92c13.145-0.209,25.422,3.335,32.975,9.367V139.31
	C180.602,133.249,161.671,93.487,153.211,75.718z M145.126,289.379c-4.553,2.167-7.561,3.6-9.52,4.877
	c-3.414,2.226-4.425,6.771-2.277,10.234c1.893,3.054,3.343,7.354-0.503,10.507c-5.197,4.258-18.405,4.75-31.489-7.507
	c-10.482-9.816-16.649-24.916-16.92-41.426c-0.215-13.134,3.332-25.419,9.366-32.974h114.936
	C202.657,261.99,162.895,280.919,145.126,289.379z M217.02,218.091c-0.007,0-0.013-0.001-0.019-0.001
	c-0.007,0-0.013,0.001-0.019,0.001H108.52l52.505-52.505c6.767-6.768,15.764-10.494,25.334-10.494h23.142v31.499
	c0,12.143,4.684,23.21,12.333,31.5H217.02z M287.499,334.071l-52.505-52.505c-6.767-6.768-10.493-15.765-10.493-25.334V233.09H256
	c12.143,0,23.208-4.684,31.499-12.333V334.071z M256,218.091c-17.368,0-31.499-14.131-31.499-31.5
	c0-17.368,14.131-31.499,31.499-31.499c17.368,0,31.499,14.131,31.499,31.499C287.499,203.96,273.368,218.091,256,218.091z
	 M287.499,152.425c-8.29-7.649-19.356-12.333-31.499-12.333c-12.143,0-23.209,4.684-31.499,12.333V39.111l52.505,52.506
	c6.767,6.766,10.493,15.763,10.493,25.333L287.499,152.425L287.499,152.425z M358.788,297.465c2.167,4.553,3.6,7.561,4.877,9.52
	c2.226,3.414,6.772,4.427,10.234,2.277c3.055-1.893,7.357-3.34,10.507,0.503c4.26,5.198,4.748,18.404-7.507,31.489
	c-9.816,10.482-24.916,16.649-41.426,16.92c-13.141,0.243-25.422-3.326-32.975-9.365V233.873
	C331.398,239.934,350.328,279.696,358.788,297.465z M418.216,140.092H303.281c6.061-28.898,45.822-47.828,63.591-56.288
	c4.554-2.168,7.563-3.6,9.522-4.878c3.413-2.227,4.424-6.771,2.276-10.234c-1.893-3.054-3.343-7.354,0.503-10.506
	c5.198-4.261,18.403-4.75,31.489,7.506c10.482,9.816,16.649,24.916,16.92,41.426C427.798,120.251,424.25,132.538,418.216,140.092z"
	/>
<g>
</g>
<g>
</g>
<g>
</g>
<g>
</g>
<g>
</g>
<g>
</g>
<g>
</g>
<g>
</g>
<g>
</g>
<g>
</g>
<g>
</g>
<g>
</g>
<g>
</g>
<g>
</g>
<g>
</g>
</svg>
