<?xml version="1.0" encoding="iso-8859-1"?>
<!-- Generator: Adobe Illustrator 19.0.0, SVG Export Plug-In . SVG Version: 6.00 Build 0)  -->
<svg version="1.1" id="Capa_1" xmlns="http://www.w3.org/2000/svg" xmlns:xlink="http://www.w3.org/1999/xlink" x="0px" y="0px"
	 viewBox="0 0 512.001 512.001" style="enable-background:new 0 0 512.001 512.001;" xml:space="preserve">
<path style="fill:#B57959;" d="M311.88,109.834v208.18H200.12v-208.18c0-4.42,3.58-8,8-8h95.76
	C308.3,101.834,311.88,105.414,311.88,109.834z"/>
<rect x="200.12" y="280.88" style="fill:#935C44;" width="111.76" height="37.13"/>
<path style="fill:#B57959;" d="M493.23,174.944v309.15c0,4.56-3.69,8.25-8.24,8.25H371.33c-4.55,0-8.24-3.69-8.24-8.25v-309.15
	H493.23z"/>
<g>
	<rect x="363.09" y="174.94" style="fill:#935C44;" width="130.14" height="20.62"/>
	<path style="fill:#935C44;" d="M419.6,307.744v176.35c0,2.93-0.59,5.72-1.67,8.25h-46.6c-4.55,0-8.24-3.69-8.24-8.25v-203.21h29.65
		C407.55,280.884,419.6,292.934,419.6,307.744z"/>
</g>
<path style="fill:#72402F;" d="M438.856,266.538h-21.391c-3.064,0-5.547-2.484-5.547-5.547v-18.56
	c0-8.971,7.272-16.243,16.243-16.243l0,0c8.971,0,16.243,7.272,16.243,16.243v18.56
	C444.403,264.054,441.919,266.538,438.856,266.538z"/>
<path style="fill:#B57959;" d="M468.775,130.639v12.726h-22.752v-12.726c0-4.452-3.609-8.061-8.061-8.061h-19.603
	c-4.452,0-8.061,3.609-8.061,8.061v12.726h-22.752v-12.726c0-4.452-3.609-8.061-8.061-8.061h-19.603
	c-4.452,0-8.061,3.609-8.061,8.061v43.863c0,4.452,3.609,8.061,8.061,8.061h136.557c4.452,0,8.061-3.609,8.061-8.061v-43.863
	c0-4.452-3.609-8.061-8.061-8.061h-19.603C472.384,122.578,468.775,126.187,468.775,130.639z"/>
<path style="fill:#CE9E89;" d="M406.6,307.744v176.35c0,4.56-3.69,8.25-8.24,8.25H127.07v-198.46h265.67
	C400.4,293.884,406.6,300.085,406.6,307.744z"/>
<path style="fill:#B57959;" d="M161.91,293.884v190.21c0,2.93-0.59,5.72-1.67,8.25h-33.17v-198.46L161.91,293.884L161.91,293.884z"
	/>
<path style="fill:#CE9E89;" d="M148.91,174.944v309.15c0,4.56-3.69,8.25-8.24,8.25H27.01c-4.55,0-8.24-3.69-8.24-8.25v-309.15
	H148.91z"/>
<rect x="18.77" y="174.94" style="fill:#B57959;" width="130.14" height="20.62"/>
<path style="fill:#72402F;" d="M94.535,266.538H73.144c-3.064,0-5.547-2.484-5.547-5.547v-18.56c0-8.971,7.272-16.243,16.243-16.243
	l0,0c8.971,0,16.243,7.272,16.243,16.243v18.56C100.082,264.054,97.599,266.538,94.535,266.538z"/>
<path style="fill:#CE9E89;" d="M124.454,130.639v12.726h-22.752v-12.726c0-4.452-3.609-8.061-8.061-8.061H74.038
	c-4.452,0-8.061,3.609-8.061,8.061v12.726H43.225v-12.726c0-4.452-3.609-8.061-8.061-8.061H15.561c-4.452,0-8.061,3.609-8.061,8.061
	v43.863c0,4.452,3.609,8.061,8.061,8.061h136.557c4.452,0,8.061-3.609,8.061-8.061v-43.863c0-4.452-3.609-8.061-8.061-8.061h-19.603
	C128.063,122.578,124.454,126.187,124.454,130.639z"/>
<g>
	<path style="fill:#72402F;" d="M216.234,492.344v-62.272c0-21.962,17.804-39.766,39.766-39.766l0,0
		c21.962,0,39.766,17.804,39.766,39.766v62.272"/>
	<path style="fill:#72402F;" d="M266.696,199.169h-21.391c-3.064,0-5.547-2.484-5.547-5.547v-18.56
		c0-8.971,7.272-16.243,16.243-16.243l0,0c8.971,0,16.243,7.272,16.243,16.243v18.56
		C272.243,196.685,269.759,199.169,266.696,199.169z"/>
</g>
<path style="fill:#FF0435;" d="M254.299,23.601v45.923l45.254-17.887c4.601-1.819,4.601-8.331,0-10.15L254.299,23.601z"/>
<path style="fill:#72402F;" d="M293.516,356.286h-75.032c-5.587,0-10.117-4.529-10.117-10.117l0,0
	c0-5.587,4.529-10.117,10.117-10.117h75.032c5.587,0,10.117,4.529,10.117,10.117l0,0
	C303.633,351.757,299.103,356.286,293.516,356.286z"/>
<path d="M451.903,260.991v-18.56c0-13.092-10.651-23.743-23.743-23.743s-23.743,10.651-23.743,23.743v18.56
	c0,7.194,5.853,13.047,13.047,13.047h21.391C446.05,274.038,451.903,268.185,451.903,260.991z M436.903,259.038h-17.485v-16.607
	c0-4.821,3.922-8.743,8.743-8.743s8.743,3.922,8.743,8.743v16.607H436.903z"/>
<path d="M496.438,115.077h-19.603c-8.581,0-15.561,6.981-15.561,15.562v5.227h-7.752v-5.227c0-8.581-6.981-15.562-15.562-15.562
	h-19.603c-8.581,0-15.561,6.981-15.561,15.562v5.227h-7.752v-5.227c0-8.581-6.981-15.562-15.562-15.562h-19.603
	c-8.581,0-15.562,6.981-15.562,15.562v43.863c0,7.09,4.772,13.076,11.269,14.946v96.933H319.38v-21.134c0-4.142-3.358-7.5-7.5-7.5
	s-7.5,3.358-7.5,7.5v21.134h-96.766V109.837c0-0.276,0.224-0.5,0.5-0.5h95.766c0.276,0,0.5,0.224,0.5,0.5v121.232
	c0,4.142,3.358,7.5,7.5,7.5s7.5-3.358,7.5-7.5V109.837c0-8.547-6.953-15.5-15.5-15.5h-42.083V74.624l40.511-16.012
	c4.978-1.967,8.193-6.697,8.193-12.05c0-5.352-3.216-10.082-8.194-12.05l-40.615-16.053c-0.574-3.572-3.662-6.303-7.396-6.303
	c-4.142,0-7.5,3.358-7.5,7.5V23.6v45.923v24.813h-38.682c-8.547,0-15.5,6.953-15.5,15.5V286.38h-36.206v-96.933
	c6.497-1.87,11.269-7.855,11.269-14.946v-43.863c0-8.581-6.981-15.562-15.562-15.562h-19.603c-8.581,0-15.562,6.981-15.562,15.562
	v5.227h-7.752v-5.227c0-8.581-6.98-15.562-15.561-15.562H74.039c-8.581,0-15.562,6.981-15.562,15.562v5.227h-7.752v-5.227
	c0-8.581-6.98-15.562-15.561-15.562H15.562C6.981,115.077,0,122.058,0,130.639v43.863c0,7.09,4.772,13.076,11.269,14.946v294.65
	c0,8.682,7.063,15.746,15.746,15.746h26.55c4.142,0,7.5-3.358,7.5-7.5s-3.358-7.5-7.5-7.5h-26.55c-0.411,0-0.746-0.334-0.746-0.746
	V190.064h115.143v294.034c0,0.411-0.334,0.746-0.746,0.746H87.742c-4.142,0-7.5,3.358-7.5,7.5s3.358,7.5,7.5,7.5h397.244
	c8.682,0,15.746-7.063,15.746-15.746V404.74c0-4.142-3.358-7.5-7.5-7.5s-7.5,3.358-7.5,7.5v79.358c0,0.411-0.334,0.746-0.746,0.746
	h-70.919c0.012-0.249,0.038-0.494,0.038-0.746V307.747c0-11.782-9.585-21.367-21.367-21.367h-22.149v-96.317h115.143v180.498
	c0,4.142,3.358,7.5,7.5,7.5s7.5-3.358,7.5-7.5V189.448c6.497-1.87,11.269-7.855,11.269-14.946v-43.863
	C512,122.058,505.019,115.077,496.438,115.077z M261.799,58.495V34.63l30.189,11.933L261.799,58.495z M15,130.639
	c0-0.31,0.252-0.562,0.562-0.562h19.603c0.31,0,0.561,0.252,0.561,0.562v12.727c0,4.142,3.358,7.5,7.5,7.5h22.752
	c4.142,0,7.5-3.358,7.5-7.5v-12.727c0-0.31,0.252-0.562,0.562-0.562h19.603c0.31,0,0.561,0.252,0.561,0.562v12.727
	c0,4.142,3.358,7.5,7.5,7.5h22.752c4.142,0,7.5-3.358,7.5-7.5v-12.727c0-0.31,0.252-0.562,0.562-0.562h19.603
	c0.31,0,0.562,0.252,0.562,0.562v43.863c0,0.31-0.252,0.562-0.562,0.562H15.562c-0.31,0-0.562-0.252-0.562-0.562V130.639z
	 M223.734,484.844v-54.772c0-17.792,14.475-32.266,32.266-32.266s32.266,14.475,32.266,32.266v54.772H223.734z M399.105,307.747
	v176.351c0,0.411-0.334,0.746-0.746,0.746h-27.025h-68.068v-54.772c0-26.063-21.204-47.266-47.266-47.266
	s-47.266,21.204-47.266,47.266v54.772h-52.361c0.012-0.249,0.038-0.494,0.038-0.746V301.382h236.327
	C396.249,301.382,399.105,304.237,399.105,307.747z M359.32,130.639c0-0.31,0.252-0.562,0.562-0.562h19.603
	c0.31,0,0.562,0.252,0.562,0.562v12.727c0,4.142,3.358,7.5,7.5,7.5h22.752c4.142,0,7.5-3.358,7.5-7.5v-12.727
	c0-0.31,0.251-0.562,0.561-0.562h19.603c0.31,0,0.562,0.252,0.562,0.562v12.727c0,4.142,3.358,7.5,7.5,7.5h22.752
	c4.142,0,7.5-3.358,7.5-7.5v-12.727c0-0.31,0.251-0.562,0.561-0.562h19.603c0.31,0,0.562,0.252,0.562,0.562v43.863
	c0,0.31-0.252,0.562-0.562,0.562H359.882c-0.31,0-0.562-0.252-0.562-0.562L359.32,130.639L359.32,130.639z"/>
<path d="M107.583,260.991v-18.56c0-13.092-10.651-23.743-23.743-23.743s-23.743,10.651-23.743,23.743v18.56
	c0,7.194,5.853,13.047,13.047,13.047h21.391C101.729,274.038,107.583,268.185,107.583,260.991z M92.583,259.038H75.097v-16.607
	c0-4.821,3.922-8.743,8.743-8.743s8.743,3.922,8.743,8.743C92.583,242.431,92.583,259.038,92.583,259.038z"/>
<path d="M279.743,193.622v-18.56c0-13.092-10.651-23.743-23.743-23.743s-23.743,10.651-23.743,23.743v18.56
	c0,7.194,5.853,13.047,13.047,13.047h21.391C273.89,206.669,279.743,200.816,279.743,193.622z M264.743,191.669h-17.485v-16.607
	c0-4.821,3.922-8.743,8.743-8.743c4.821,0,8.743,3.922,8.743,8.743v16.607H264.743z"/>
<path d="M102.958,299.961h-0.75c-4.142,0-7.5,3.358-7.5,7.5s3.358,7.5,7.5,7.5h0.75c4.142,0,7.5-3.358,7.5-7.5
	S107.101,299.961,102.958,299.961z"/>
<path d="M83.84,341.145c4.142,0,7.5-3.358,7.5-7.5s-3.358-7.5-7.5-7.5h-0.75c-4.142,0-7.5,3.358-7.5,7.5s3.358,7.5,7.5,7.5H83.84z"
	/>
<path d="M106.884,334.583c-4.142,0-7.5,3.358-7.5,7.5s3.358,7.5,7.5,7.5h0.75c4.142,0,7.5-3.358,7.5-7.5s-3.358-7.5-7.5-7.5H106.884
	z"/>
<path d="M459.25,307.461c0-4.142-3.358-7.5-7.5-7.5H451c-4.142,0-7.5,3.358-7.5,7.5s3.358,7.5,7.5,7.5h0.75
	C455.892,314.961,459.25,311.603,459.25,307.461z"/>
<path d="M334.25,379.402H335c4.142,0,7.5-3.358,7.5-7.5s-3.358-7.5-7.5-7.5h-0.75c-4.142,0-7.5,3.358-7.5,7.5
	S330.108,379.402,334.25,379.402z"/>
<path d="M351.445,400.612h0.75c4.142,0,7.5-3.358,7.5-7.5s-3.358-7.5-7.5-7.5h-0.75c-4.142,0-7.5,3.358-7.5,7.5
	S347.303,400.612,351.445,400.612z"/>
<path d="M242.19,217.368c-4.142,0-7.5,3.358-7.5,7.5s3.358,7.5,7.5,7.5h0.75c4.142,0,7.5-3.358,7.5-7.5s-3.358-7.5-7.5-7.5H242.19z"
	/>
<path d="M444.979,341.145h0.75c4.142,0,7.5-3.358,7.5-7.5s-3.358-7.5-7.5-7.5h-0.75c-4.142,0-7.5,3.358-7.5,7.5
	S440.837,341.145,444.979,341.145z"/>
<path d="M218.484,363.786h75.032c9.713,0,17.616-7.903,17.616-17.617s-7.903-17.617-17.616-17.617h-75.032
	c-9.713,0-17.616,7.903-17.616,17.617S208.771,363.786,218.484,363.786z M218.484,343.552h75.032c1.442,0,2.616,1.174,2.616,2.617
	s-1.174,2.617-2.616,2.617h-75.032c-1.442,0-2.616-1.174-2.616-2.617S217.042,343.552,218.484,343.552z"/>
<path d="M288.326,125.616c0-4.142-3.358-7.5-7.5-7.5h-49.651c-4.142,0-7.5,3.358-7.5,7.5s3.358,7.5,7.5,7.5h49.651
	C284.968,133.116,288.326,129.758,288.326,125.616z"/>
<g>
</g>
<g>
</g>
<g>
</g>
<g>
</g>
<g>
</g>
<g>
</g>
<g>
</g>
<g>
</g>
<g>
</g>
<g>
</g>
<g>
</g>
<g>
</g>
<g>
</g>
<g>
</g>
<g>
</g>
</svg>
