<?xml version="1.0" encoding="iso-8859-1"?>
<!-- Generator: Adobe Illustrator 19.0.0, SVG Export Plug-In . SVG Version: 6.00 Build 0)  -->
<svg version="1.1" id="Capa_1" xmlns="http://www.w3.org/2000/svg" xmlns:xlink="http://www.w3.org/1999/xlink" x="0px" y="0px"
	 viewBox="0 0 512.002 512.002" style="enable-background:new 0 0 512.002 512.002;" xml:space="preserve">
<circle style="fill:#FFFFFF;" cx="275.811" cy="321.481" r="98"/>
<path style="fill:#DAC7FF;" d="M393.384,238.239l60.617-60.617v14.002c0,6.628,2.686,12.627,7.03,16.971
	c4.343,4.343,10.343,7.03,16.971,7.03c13.255-0.001,23.999-10.745,24-24v-72.329c-0.001-13.255-10.745-24-24-24h-72.329
	c-13.255,0.001-23.999,10.745-24,24c0,13.255,10.745,24,24,24h14.774l-61.003,61.003c-56.869-40.526-136.576-34.776-186.95,17.272
	c-55.425,57.267-54.006,147.739,3.105,203.325c56.34,54.836,146.466,54.371,202.232-1.396
	C428.281,373.046,433.46,294.475,393.384,238.239z"/>
<circle style="fill:#FFFFFF;" cx="275.811" cy="321.481" r="98"/>
<path style="fill:#FE61AD;" d="M178.001,216.004V90.002h23.727c11.046,0,20-8.954,20-20l0,0c0-11.046-8.954-20-20-20h-23.727v-16
	c0-13.255-10.745-24-24-24s-24,10.745-24,24v16h-24.273c-11.046,0-20,8.954-20,20l0,0c0,11.046,8.954,20,20,20h24.273v126.002
	C61.133,227.56,8.837,287.988,10.021,360.411c1.302,79.685,66.279,142.655,145.968,141.577
	c78.612-1.063,142.012-65.121,142.012-143.986C298.001,286.651,246.104,227.431,178.001,216.004z"/>
<circle style="fill:#FFFFFF;" cx="153.731" cy="358.001" r="98"/>
<path style="fill:#DAC7FF;" d="M175.597,424.895c7.681,7.476,16,13.902,24.765,19.321c14.518-7.87,26.822-19.3,35.747-33.119
	c-10.735-4.75-20.793-11.518-29.593-20.317c-38.271-38.271-38.271-100.322,0-138.593c6.901-6.901,14.583-12.538,22.752-16.95
	c-7.612-4.676-11.806-14.352-20.267-17.567c-8.619-3.275-21.52-0.061-30.84-1.636c-1.926,1.786-3.819,3.627-5.668,5.537
	C117.067,278.837,118.487,369.309,175.597,424.895z"/>
<path d="M102.374,262.976l-0.189,0.103c-4.854,2.634-6.654,8.705-4.02,13.559c1.812,3.339,5.249,5.232,8.798,5.232
	c1.611,0,3.245-0.39,4.761-1.212l0.189-0.103c4.854-2.634,6.654-8.705,4.02-13.559C113.299,262.142,107.23,260.342,102.374,262.976z
	"/>
<path d="M478.001,85.294h-72.33c-18.747,0-33.999,15.253-34,34c0,15.873,10.934,29.241,25.666,32.967l-39.152,39.152
	c-28.286-17.866-61.877-26.065-95.513-23.158c-36.939,3.189-71.518,19.653-97.365,46.36
	c-28.657,29.609-44.092,68.462-43.462,109.401c0.63,40.927,17.243,79.298,46.777,108.044c3.604,3.508,7.384,6.826,11.3,9.961
	c-8.277,2.586-17.076,3.981-26.194,3.981c-48.523,0-88-39.477-88-88c0-20.34,6.738-39.437,19.485-55.226
	c3.469-4.297,2.798-10.593-1.499-14.063c-4.298-3.47-10.594-2.797-14.063,1.499c-15.427,19.109-23.923,43.184-23.923,67.79
	c0,59.551,48.449,108,108,108s108-48.449,108-108c0-38.519-20.564-73.878-53.276-93.126c1.628-1.931,3.329-3.813,5.135-5.619
	c4.722-4.722,9.9-8.819,15.413-12.297c37.041,25.008,59,66.122,59,111.042c0,39.467-17.377,75.185-44.88,99.801
	c-1.045,0.935-2.009,1.861-2.902,2.775c-24.089,20.276-54.406,31.39-86.072,31.424c-0.054,0-0.097,0-0.151,0
	c-73.927,0-132.769-57.848-133.977-131.754c-1.074-65.75,46.919-123.522,111.637-134.381c4.817-0.809,8.345-4.978,8.345-9.862
	V90.002c0-5.523-4.477-10-10-10h-24.273c-5.514,0-10-4.486-10-10s4.486-10,10-10h24.274c5.523,0,10-4.477,10-10v-16
	c0-7.575,6.157-13.854,13.726-13.998c3.611-0.063,7.118,1.353,9.819,4.003c2.832,2.778,4.456,6.618,4.456,10.535v15.459
	c0,5.523,4.477,10,10,10h23.727c5.514,0,10,4.486,10,10s-4.486,10-10,10h-23.728c-5.523,0-10,4.477-10,10v66.5
	c0,0.349,0.004,0.698,0.01,1.047c0.092,5.522,4.648,9.904,10.165,9.832c5.522-0.092,9.924-4.643,9.832-10.165
	c-0.004-0.238-0.007-0.476-0.007-0.714v-56.5h13.727c16.542,0,30-13.458,30-30s-13.458-30-30-30h-13.727v-5.459
	c0-9.252-3.808-18.295-10.448-24.811c-6.566-6.442-15.171-9.913-24.206-9.724c-18.386,0.35-33.346,15.599-33.346,33.995v6h-14.273
	c-16.542,0-30,13.458-30,30s13.458,30,30,30h14.273v107.781c-32.634,7.369-62.183,25.326-83.913,51.163
	C12.223,287.321-0.585,323.413,0.022,360.574C0.689,401.405,17,439.551,45.95,467.985c28.906,28.39,67.268,44.018,108.049,44.017
	c0.055,0,0.116,0,0.17,0c37.239-0.039,72.851-13.42,100.837-37.765c6.949,0.951,13.908,1.427,20.839,1.427
	c40.542,0,79.977-16.016,109.055-45.093c19.21-19.211,33.024-43.171,39.948-69.292c1.415-5.338-1.765-10.813-7.104-12.228
	c-5.339-1.417-10.813,1.765-12.228,7.104c-6.021,22.712-18.04,43.555-34.758,60.273c-25.959,25.96-61.405,39.945-97.651,39.201
	c6.981-8.49,12.987-17.615,17.943-27.24c23.052-3.284,44.582-13.991,61.131-30.539c20.399-20.398,31.633-47.52,31.633-76.368
	s-11.234-55.969-31.632-76.368c-20.399-20.398-47.52-31.632-76.368-31.632s-55.969,11.234-76.368,31.632
	c-20.398,20.399-31.632,47.52-31.632,76.368s11.234,55.969,31.632,76.367c6.527,6.527,13.779,12.113,21.626,16.732
	c-5.855,6.958-12.764,12.998-20.482,17.873c-6.389-4.363-12.436-9.293-18.017-14.726c-52.815-51.405-54.113-136.282-2.894-189.204
	c45.733-47.253,120.52-54.167,173.961-16.083c3.978,2.835,9.421,2.382,12.875-1.072l61.003-61.003
	c2.86-2.86,3.715-7.161,2.167-10.898s-5.194-6.173-9.239-6.173h-14.774c-7.72,0-14-6.28-14-14s6.281-14,14-14h72.329
	c7.72,0,14,6.281,14,14v72.329c0,7.72-6.281,14-14,14.001c-3.739,0-7.255-1.457-9.9-4.101s-4.101-6.16-4.101-9.899v-14.001
	c0-4.044-2.437-7.691-6.173-9.239c-3.735-1.547-8.037-0.691-10.898,2.167l-60.616,60.617c-3.454,3.454-3.907,8.897-1.073,12.875
	c10.146,14.238,17.301,30.107,21.267,47.167c1.25,5.379,6.625,8.728,12.004,7.476c5.379-1.25,8.727-6.625,7.476-12.004
	c-3.916-16.844-10.536-32.681-19.716-47.187l38.915-38.915c1.533,5.653,4.521,10.833,8.773,15.086
	c6.422,6.422,14.96,9.958,24.042,9.958c18.747-0.001,33.999-15.254,34-34v-72.33C512.001,100.547,496.748,85.294,478.001,85.294z
	 M338.038,259.257c16.621,16.621,25.775,38.72,25.775,62.225c0,23.506-9.154,45.604-25.775,62.225
	c-10.517,10.517-23.506,18.127-37.619,22.245c4.99-15.285,7.583-31.425,7.583-47.95c0-26.687-6.937-52.984-20.062-76.049
	c-9.756-17.145-22.794-32.296-38.205-44.552c8.338-2.575,17.104-3.919,26.078-3.919
	C299.318,233.482,321.417,242.636,338.038,259.257z M213.587,383.708c-16.621-16.621-25.774-38.719-25.774-62.225
	c0-14.107,3.32-27.696,9.549-39.91c27.206,15.556,44.366,44.672,44.366,76.43c0,14.356-3.457,27.92-9.58,39.904
	C225.394,394.042,219.171,389.292,213.587,383.708z"/>
<path d="M420.151,314.022c-5.55-0.122-10.075,4.327-10.169,9.849l-0.001,0.044c-0.094,5.522,4.308,10.031,9.83,10.125
	c0.058,0.001,0.114,0.001,0.171,0.001c5.444,0,9.905-4.409,9.998-9.874C430.073,318.647,425.672,314.116,420.151,314.022z"/>
<g>
</g>
<g>
</g>
<g>
</g>
<g>
</g>
<g>
</g>
<g>
</g>
<g>
</g>
<g>
</g>
<g>
</g>
<g>
</g>
<g>
</g>
<g>
</g>
<g>
</g>
<g>
</g>
<g>
</g>
</svg>
