<?xml version="1.0" encoding="iso-8859-1"?>
<!-- Generator: Adobe Illustrator 19.0.0, SVG Export Plug-In . SVG Version: 6.00 Build 0)  -->
<svg version="1.1" id="Capa_1" xmlns="http://www.w3.org/2000/svg" xmlns:xlink="http://www.w3.org/1999/xlink" x="0px" y="0px"
	 viewBox="0 0 512 512" style="enable-background:new 0 0 512 512;" xml:space="preserve">
<path style="fill:#81EEE3;" d="M315.667,299.882v-45.549c0-48.601-39.399-88-88-88H99.417c-48.739,0-88.249,39.511-88.249,88.249
	V380H280.19L315.667,299.882z"/>
<path style="fill:#F2EBFF;" d="M285.025,241.04L285.025,241.04c-35.405-28.324-87.068-22.583-115.392,12.822L88.547,355.22
	c-28.324,35.405-22.583,87.068,12.822,115.391l0,0c35.405,28.324,87.068,22.583,115.391-12.822l81.086-101.359
	C326.171,321.026,320.43,269.363,285.025,241.04z"/>
<path style="fill:#81EEE3;" d="M307.368,368.473L307.368,368.473c-19.985,0-39.26,7.413-54.094,20.806l-4.101,3.702
	c-9.492,8.57-9.957,23.313-1.023,32.463l0,0c7.94,8.132,20.694,9.078,29.746,2.204l2.967-2.253
	c7.624-5.789,16.933-8.922,26.506-8.922l0,0v-48H307.368z"/>
<circle style="fill:#FFCC9C;" cx="231.42" cy="308.04" r="48.766"/>
<path style="fill:#81EEE3;" d="M153.193,166.333H98c-48.601,0-88,39.399-88,88V374c0,70.692,57.308,128,128,128h30.258
	c32.672,0,64.194-12.065,88.516-33.879l0,0c9.445-8.471,9.931-23.105,1.067-32.184l0,0c-7.967-8.16-20.807-8.995-29.764-1.935l0,0
	C211.643,446.956,191.327,454,170.401,454H142c-44.183,0-80-35.817-80-80V256.127L153.193,166.333z"/>
<path style="fill:#FEBD80;" d="M114.295,16.516C99.673,5.646,79.008,8.688,68.138,23.31s-7.828,35.287,6.794,46.157L114.295,16.516z
	"/>
<path style="fill:#FFCC9C;" d="M153.193,10L153.193,10C113.62,10,81.54,42.08,81.54,81.653v13.028
	c0,39.573,32.08,71.653,71.653,71.653l0,0c39.573,0,71.653-32.08,71.653-71.653V81.653C224.846,42.08,192.766,10,153.193,10z"/>
<path style="fill:#FEBD80;" d="M224.846,91.629v-9.976c0-39.573-32.08-71.653-71.653-71.653l0,0C113.62,10,81.54,42.08,81.54,81.653
	v9.797l2.445-0.15c0,0,58.5,0.031,82.87-32.927C184.211,88.167,221.05,91.3,221.05,91.3S222.466,91.43,224.846,91.629z"/>
<path d="M268.133,262.154c-25.303-20.243-62.356-16.126-82.599,9.178c-20.242,25.304-16.125,62.358,9.178,82.6
	c10.815,8.652,23.774,12.854,36.652,12.854c17.252,0,34.357-7.544,45.947-22.031C297.553,319.451,293.436,282.398,268.133,262.154z
	 M261.694,332.26c-13.353,16.692-37.795,19.407-54.488,6.055c-16.691-13.353-19.408-37.796-6.055-54.488
	c7.646-9.558,18.929-14.533,30.31-14.533c8.495,0,17.045,2.772,24.178,8.479C272.331,291.125,275.046,315.569,261.694,332.26z"/>
<path d="M62,266.13c2.63,0,5.21-1.07,7.07-2.93s2.93-4.44,2.93-7.07c0-2.64-1.07-5.21-2.93-7.07c-1.86-1.87-4.44-2.93-7.07-2.93
	c-2.63,0-5.21,1.06-7.07,2.93c-1.86,1.86-2.93,4.431-2.93,7.07c0,2.63,1.07,5.21,2.93,7.07C56.79,265.06,59.37,266.13,62,266.13z"/>
<path d="M161.98,118.585c-3.896-2.686-9.273-2.294-12.738,1.17c-3.905,3.905-3.905,10.237,0,14.143
	c3.403,3.402,7.926,5.276,12.738,5.276c4.812,0,9.335-1.874,12.738-5.276c3.905-3.905,3.905-10.237,0-14.143
	C171.252,116.291,165.876,115.9,161.98,118.585z"/>
<path d="M222.871,314.498c-0.856-4.653-4.934-8.179-9.834-8.179c-5.523,0-10,4.478-10,10c0,9.933,8.081,18.014,18.014,18.014
	c5.523,0,10-4.478,10-10C231.05,319.432,227.524,315.355,222.871,314.498z"/>
<path d="M325.648,300.254c0.005-0.125,0.019-0.247,0.019-0.372v-45.549c0-54.037-43.962-98-98-98h-21.028
	c17.26-14.982,28.208-37.056,28.208-61.652V81.652C234.846,36.629,198.217,0,153.193,0c-12.229,0-23.829,2.72-34.254,7.559
	c-18.933-13.011-45.008-8.803-58.827,9.785C45.97,36.367,49.942,63.35,68.966,77.492c0.828,0.615,1.721,1.077,2.645,1.403
	c-0.031,0.917-0.07,1.832-0.07,2.757V94.68c0,24.596,10.947,46.67,28.208,61.652H98c-54.038,0-98,43.963-98,98V374
	c0,76.094,61.907,138,138,138h30.258c35.19,0,68.997-12.939,95.193-36.435c6.617-5.935,10.423-14.095,10.717-22.979
	c0.131-3.954-0.446-7.809-1.669-11.433c4.044-1.052,7.942-2.882,11.445-5.542l2.965-2.253c5.849-4.44,13.115-6.887,20.458-6.887
	c5.523,0,10-4.478,10-10s-4.477-10-10-10c-11.686,0-23.247,3.892-32.554,10.959l-2.965,2.252
	c-5.024,3.817-12.136,3.287-16.544-1.226c-2.403-2.462-3.667-5.711-3.558-9.148c0.108-3.438,1.574-6.602,4.127-8.906l4.1-3.702
	c13.021-11.755,29.853-18.229,47.394-18.229c5.523,0,10-4.478,10-10c0-5.055-3.755-9.223-8.626-9.895
	C321.234,341.065,326.734,320.451,325.648,300.254z M214.805,80.035c-10.264-2.444-29.095-9.163-39.308-26.696
	c-1.693-2.907-4.735-4.769-8.095-4.952c-3.354-0.171-6.586,1.335-8.586,4.04c-16.242,21.965-51.694,27.222-67.256,28.479
	C91.963,47.255,119.448,20,153.193,20C186.646,20,213.942,46.787,214.805,80.035z M76.163,29.277
	c5.479-7.37,14.561-10.49,23.02-8.787c-10.7,9.459-18.9,21.67-23.495,35.519C70.281,48.13,70.151,37.364,76.163,29.277z
	 M91.859,100.965c15.676-1.115,51.018-5.945,74.085-26.809c16.031,18.309,38.295,24.38,48.624,26.288
	c-2.917,31.302-29.323,55.888-61.375,55.888C121.319,156.333,95.017,132.02,91.859,100.965z M250.098,460.677
	C227.576,480.876,198.512,492,168.258,492H138c-65.065,0-118-52.935-118-118V254.333c0-43.01,34.991-78,78-78h55.193h74.473
	c40.613,0,74.059,31.204,77.662,70.894c-4.094-5.059-8.771-9.767-14.057-13.996c-39.655-31.724-97.724-25.269-129.447,14.384
	L80.739,348.973c-3.31,4.138-6.219,8.504-8.739,13.05v-71.689c0-5.522-4.477-10-10-10s-10,4.478-10,10V374c0,49.626,40.374,90,90,90
	h28.401c23.069,0,45.75-7.864,63.866-22.145c4.954-3.902,12.013-3.445,16.419,1.068c2.365,2.422,3.605,5.618,3.493,9.001
	C254.068,455.309,252.618,458.416,250.098,460.677z M246.573,381.856l-4.101,3.702c-6.628,5.984-10.434,14.195-10.715,23.121
	c-0.127,4.026,0.478,7.949,1.744,11.632c-4.113,1.108-8.069,3.044-11.614,5.837C207.283,437.66,188.998,444,170.401,444H142
	c-26.805,0-50.128-15.152-61.885-37.335c0.278-0.863,0.45-1.775,0.483-2.726c0.541-15.575,5.99-30.262,15.758-42.473l81.086-101.358
	c24.833-31.043,70.294-36.095,101.336-11.261s36.094,70.293,11.26,101.336l-10.016,12.52
	C267.737,366.585,256.32,373.057,246.573,381.856z"/>
<path d="M462.042,215H458.1l11.013-11.013c2.86-2.86,3.715-7.161,2.167-10.898c-1.548-3.736-5.194-6.173-9.239-6.173h-28.084
	c-5.523,0-10,4.478-10,10s4.477,10,10,10h3.942l-11.013,11.013c-2.86,2.86-3.715,7.161-2.167,10.898
	c1.548,3.736,5.194,6.173,9.239,6.173h28.084c5.523,0,10-4.478,10-10S467.565,215,462.042,215z"/>
<path d="M380.874,274.084h-3.942l11.013-11.013c2.86-2.86,3.715-7.161,2.167-10.898c-1.548-3.736-5.194-6.173-9.239-6.173H352.79
	c-5.523,0-10,4.478-10,10s4.477,10,10,10h3.942l-11.013,11.013c-2.86,2.86-3.715,7.161-2.167,10.898
	c1.548,3.736,5.194,6.173,9.239,6.173h28.084c5.523,0,10-4.478,10-10S386.397,274.084,380.874,274.084z"/>
<path d="M502,111.403h-5.632L509.071,98.7c2.86-2.86,3.716-7.161,2.168-10.898c-1.548-3.736-5.194-6.173-9.239-6.173h-29.775
	c-5.523,0-10,4.478-10,10s4.477,10,10,10h5.632l-12.703,12.703c-2.86,2.86-3.716,7.161-2.168,10.898
	c1.548,3.736,5.194,6.173,9.239,6.173H502c5.523,0,10-4.478,10-10S507.523,111.403,502,111.403z"/>
<g>
</g>
<g>
</g>
<g>
</g>
<g>
</g>
<g>
</g>
<g>
</g>
<g>
</g>
<g>
</g>
<g>
</g>
<g>
</g>
<g>
</g>
<g>
</g>
<g>
</g>
<g>
</g>
<g>
</g>
</svg>
