<?xml version="1.0" encoding="iso-8859-1"?>
<!-- Generator: Adobe Illustrator 19.0.0, SVG Export Plug-In . SVG Version: 6.00 Build 0)  -->
<svg version="1.1" id="Capa_1" xmlns="http://www.w3.org/2000/svg" xmlns:xlink="http://www.w3.org/1999/xlink" x="0px" y="0px"
	 viewBox="0 0 512 512" style="enable-background:new 0 0 512 512;" xml:space="preserve">
<g>
	<path style="fill:#DEE5E8;" d="M418.883,502c0.031,0,0.063-0.004,0.095-0.004h-0.212C418.805,501.996,418.844,502,418.883,502z"/>
	<path style="fill:#DEE5E8;" d="M406.753,424.889L406.753,424.889c2.572,0,5.086,0.337,7.507,0.947l-10.619-27.05l-32.476,11.593
		l10.689,27.228C387.317,430.041,396.186,424.889,406.753,424.889z"/>
	<path style="fill:#DEE5E8;" d="M105.247,424.889c10.566,0,19.436,5.152,24.899,12.718L244.975,145.1h22.05l51.249,130.548
		l30.103-17.638l-44.55-113.484c10.912-2.401,19.079-12.122,19.079-23.755c0-13.437-10.893-24.33-24.329-24.33h-85.153
		c-13.437,0-24.329,10.893-24.329,24.33c0,11.634,8.167,21.354,19.079,23.755L97.74,425.836
		C100.161,425.226,102.675,424.889,105.247,424.889L105.247,424.889z"/>
	<path style="fill:#DEE5E8;" d="M93.117,502c0.039,0,0.078-0.004,0.117-0.004h-0.212C93.053,501.996,93.085,502,93.117,502z"/>
</g>
<g>
	<path style="fill:#6ABBCA;" d="M251.075,356.094c11.243-2.682,22.359-5.776,33.339-9.242l-42.657-27.52
		c-4.78-3.084-10.955-2.951-15.599,0.335l0,0c-7.356,5.206-7.907,15.921-1.124,21.855l20.323,17.778
		c1.129-1.061,2.418-1.999,3.873-2.765L251.075,356.094z"/>
	<path style="fill:#6ABBCA;" d="M464.358,243.279c1.456-0.766,2.958-1.298,4.472-1.628l-3.154-26.817
		c-1.052-8.95-10.198-14.561-18.654-11.443c-5.337,1.968-8.942,6.984-9.105,12.67l-1.455,50.743
		c9.072-7.09,17.914-14.503,26.489-22.254L464.358,243.279z"/>
</g>
<g>
	<path style="fill:#EBB865;" d="M489.781,255.507l-0.096-0.439c-2.123-9.725-11.696-15.412-20.855-13.416
		c-1.514,0.33-3.017,0.862-4.472,1.628l-1.407,1.271c-8.575,7.751-17.417,15.164-26.489,22.254c-2.059,1.609-4.13,3.201-6.212,4.775
		c11.702,19.004,18.993,40.437,21.272,62.717l0.175,1.71c-3.029,2.249-6.251,4.297-9.669,6.096l-13.703,7.214l23.57-12.408
		C481.391,321.38,496.893,288.073,489.781,255.507z"/>
	<path style="fill:#EBB865;" d="M331.531,397.466c-17.079-14.489-30.621-32.631-39.665-53.034c-2.477,0.826-4.961,1.633-7.452,2.419
		c-10.98,3.467-22.096,6.56-33.339,9.242l-1.844,0.44c-1.456,0.766-2.745,1.704-3.873,2.765c-6.829,6.422-7.559,17.532-0.743,24.787
		l0.308,0.328c22.823,24.295,59.056,30.366,88.552,14.838l9.867-5.194c-3.418,1.799-6.93,3.296-10.498,4.521L331.531,397.466z"/>
	<path style="fill:#EBB865;" d="M398.952,293.346c-22.719,14.505-46.611,27.083-71.427,37.603
		c9.606,18.451,22.241,35.197,37.415,49.521l1.507,1.422l52.475-27.626l-0.32-2.047
		C415.382,331.603,408.726,311.708,398.952,293.346z"/>
</g>
<g>
	<path style="fill:#CE466C;" d="M327.525,330.949c-2.911,1.234-5.834,2.439-8.77,3.616c-0.02,0.008-0.04,0.016-0.06,0.024
		c-8.835,3.541-17.782,6.823-26.829,9.842l0,0c9.044,20.403,22.587,38.545,39.665,53.034l1.311,1.112
		c3.568-1.225,7.08-2.721,10.498-4.521l0,0l13.703-7.214l9.403-4.95l0,0l-1.507-1.422
		C349.766,366.147,337.131,349.4,327.525,330.949z"/>
	<path style="fill:#CE466C;" d="M451.697,336.007l-0.175-1.71c-2.279-22.28-9.57-43.713-21.272-62.717
		c-7.61,5.75-15.38,11.269-23.3,16.549c-0.017,0.011-0.033,0.022-0.05,0.033c-2.633,1.755-5.282,3.483-7.948,5.185
		c9.774,18.362,16.429,38.257,19.65,58.873l0.32,2.047l9.403-4.95l13.703-7.214C445.446,340.303,448.668,338.255,451.697,336.007z"
		/>
</g>
<path style="fill:#D0589B;" d="M331.695,46.297l-63.989-35.318c-5.113-2.822-11.379,0.876-11.379,6.717v45.292h71.068
	C336.591,62.987,339.746,50.741,331.695,46.297z"/>
<g>
	<path style="fill:#6ABBCA;" d="M105.247,424.889L105.247,424.889c-2.572,0-5.086,0.337-7.507,0.947
		c-9.34,2.354-17.214,9.001-20.96,18.191l-23.626,57.968h39.867h0.212h23.786l15.918-33.016c5.252-10.893,3.462-22.715-2.791-31.374
		C124.683,430.041,115.814,424.889,105.247,424.889z"/>
	<path style="fill:#6ABBCA;" d="M414.26,425.836c-2.421-0.61-4.935-0.947-7.507-0.947l0,0c-10.566,0-19.436,5.152-24.9,12.718
		c-6.253,8.659-8.043,20.481-2.791,31.374l15.918,33.016h23.786h0.212h39.867l-23.626-57.968
		C431.474,434.837,423.6,428.19,414.26,425.836z"/>
</g>
<path d="M18.635,491.996c-5.522,0-10,4.477-10,10s4.477,10,10,10h34.52h39.773c0.063,0,0.125,0.004,0.188,0.004
	c0.039,0,0.078-0.004,0.117-0.004h23.786h277.962h23.786c0.039,0,0.078,0.004,0.117,0.004c0.063,0,0.125-0.004,0.188-0.004h39.773
	h34.52c5.522,0,10-4.477,10-10s-4.477-10-10-10h-27.797l-21.088-51.743c-4.286-10.516-12.547-18.489-22.648-22.494l-10.797-27.505
	c-2.018-5.14-7.818-7.673-12.963-5.654c-5.14,2.018-7.672,7.822-5.654,12.963l7.059,17.982c-4.831,0.865-9.408,2.589-13.556,5.058
	l-6.463-16.464c-2.018-5.139-7.817-7.672-12.963-5.654c-5.14,2.018-7.672,7.822-5.654,12.963l9.884,25.178
	c-6.046,11.422-6.348,24.921-0.671,36.697l9.003,18.672H132.942l9.003-18.673c5.677-11.775,5.375-25.274-0.671-36.697
	l91.978-234.299L216.79,314.629c-3.87,4.09-6.186,9.418-6.483,15.178c-0.379,7.369,2.589,14.382,8.143,19.241l13.702,11.986
	c-0.886,2.045-1.539,4.213-1.919,6.479c-1.435,8.559,1.15,17.095,7.091,23.418l0.31,0.33c16.273,17.322,38.712,26.476,61.433,26.476
	c13.32,0,26.737-3.146,39.065-9.636l27.329-14.387l5.644-2.971l0,0c2.142-1.128,3.777-2.98,4.645-5.184
	c-0.868,2.204-2.503,4.056-4.645,5.184l85.448-44.984c33.359-17.562,51.041-55.552,42.998-92.38l-0.096-0.439
	c0-0.001,0-0.002-0.001-0.003c-1.852-8.478-7.425-15.441-15.293-19.103c-2.083-0.97-4.241-1.659-6.428-2.085l-2.126-18.08
	c-0.862-7.329-4.964-13.745-11.254-17.603c-4.967-3.047-10.737-4.145-16.354-3.219L328.193,138.1
	c2.989-5.09,4.712-11.009,4.712-17.327c0-18.929-15.4-34.329-34.329-34.329H266V72.987h61.395c8.761,0,16.116-5.7,18.301-14.183
	c2.186-8.484-1.499-17.028-9.169-21.262L272.539,2.224c-5.533-3.053-12.083-2.957-17.523,0.254c-4.136,2.441-7,6.317-8.138,10.809
	c-0.56,1.248-0.878,2.627-0.878,4.083v69.071h-32.577c-18.929,0-34.329,15.4-34.329,34.329c0,12.286,6.491,23.079,16.22,29.146
	l-17.961,45.754l-6.338,16.016c-2.032,5.136,0.484,10.946,5.619,12.978c5.137,2.031,10.945-0.484,12.978-5.618l6.347-16.042
	l18.806-47.905h15.542L126.078,420.604c-4.075-2.425-8.563-4.138-13.3-5.018l48.31-121.793c2.036-5.134-0.475-10.946-5.608-12.982
	c-5.136-2.036-10.946,0.474-12.983,5.608L90.445,417.648c-10.228,3.968-18.6,11.993-22.926,22.606l-21.088,51.742H18.635z
	 M389.188,444.599c1.187-1.891,2.614-3.531,4.229-4.902c3.655-3.103,8.282-4.808,13.336-4.808c0.108,0,0.214,0.01,0.323,0.012
	c8.338,0.128,15.728,5.157,18.884,12.901l18.012,44.194h-24.995h-0.151h-17.564l-13.191-27.358
	C384.905,458.074,385.313,450.77,389.188,444.599z M246.909,346.807c-0.162,0.039-0.318,0.099-0.478,0.146l-14.814-12.959
	c-1.249-1.092-1.374-2.449-1.338-3.16c0.037-0.711,0.301-2.047,1.655-3.006c0.683-0.483,1.475-0.726,2.269-0.726
	c0.738,0,1.478,0.21,2.132,0.631l24.236,15.636c-3.926,1.046-7.864,2.053-11.82,2.997L246.909,346.807z M252.211,377.569
	l-0.309-0.33c-0.198-0.211-0.381-0.431-0.552-0.659c-1.233-1.645-1.739-3.701-1.394-5.763c0.338-2.012,1.439-3.755,3.074-4.91
	l0.363-0.087c11.191-2.67,22.271-5.748,33.228-9.192c0.563,1.095,1.144,2.18,1.733,3.262c7.134,13.105,16.135,25.225,26.617,35.837
	C292.699,401.444,268.434,394.838,252.211,377.569z M323.079,343.604c7.51,12.925,16.435,24.904,26.659,35.783l-11.056,5.821
	c-1.25,0.658-2.535,1.279-3.849,1.86c-11.646-10.518-21.513-23.082-29.006-36.894c1.377-0.496,2.747-1.018,4.121-1.526
	c0.978-0.362,1.959-0.718,2.934-1.086c1.862-0.702,3.715-1.422,5.567-2.146c0.599-0.235,1.199-0.467,1.797-0.704
	C321.19,344.34,322.14,343.982,323.079,343.604z M368.188,369.675c-10.234-10.227-19.136-21.619-26.567-34.01
	c18.295-8.255,36.081-17.619,53.241-28.029c6.01,13.141,10.364,26.928,13.001,41.152L368.188,369.675z M427.083,286.34
	c7.144,13.993,11.919,29.241,13.999,44.794c-1.223,0.754-2.462,1.462-3.712,2.121l-11.056,5.82
	c-3.182-14.584-8.007-28.724-14.412-42.231c0.841-0.559,1.671-1.137,2.509-1.702c0.536-0.361,1.07-0.725,1.605-1.088
	c1.651-1.121,3.298-2.245,4.936-3.387c0.825-0.575,1.643-1.16,2.466-1.74C424.639,288.064,425.87,287.213,427.083,286.34z
	 M479.686,256.374c0.091,0.269,0.169,0.544,0.23,0.826l0.096,0.439c5.056,23.152-3.232,46.895-20.551,62.021
	c-2.816-14.648-7.714-28.929-14.479-42.226c-0.559-1.098-1.124-2.191-1.708-3.275c9.041-7.083,17.849-14.476,26.385-22.191
	l0.276-0.25c1.876-0.694,3.937-0.616,5.788,0.246C477.618,252.846,479.027,254.427,479.686,256.374z M457.651,235.862l-1.405,1.27
	c-3.017,2.727-6.076,5.402-9.16,8.048l0.827-28.832c0.046-1.613,1.055-3.016,2.569-3.575c0.49-0.181,0.95-0.251,1.369-0.251
	c0.911,0,1.63,0.333,2.045,0.588c0.607,0.372,1.655,1.243,1.849,2.891l2.299,19.547
	C457.914,235.655,457.775,235.749,457.651,235.862z M430.024,206.618c-1.268,2.823-2.01,5.917-2.103,9.157l-1.319,46.006
	c-1.121,0.857-2.247,1.709-3.375,2.556c-1.517,1.14-3.048,2.268-4.583,3.392c-0.839,0.614-1.671,1.233-2.514,1.843
	c-2.069,1.495-4.153,2.974-6.249,4.437c-1.484,1.037-2.98,2.051-4.475,3.07c-0.699,0.477-1.397,0.957-2.099,1.429
	c-1.691,1.139-3.387,2.26-5.088,3.375c-0.398,0.26-0.795,0.52-1.194,0.779c-24.432,15.884-50.306,29.505-77.23,40.656
	c-0.429,0.177-0.859,0.355-1.289,0.531c-1.894,0.778-3.792,1.545-5.696,2.298c-0.759,0.3-1.521,0.593-2.283,0.889
	c-1.877,0.732-3.757,1.458-5.644,2.166c-2.217,0.83-4.439,1.649-6.665,2.446c-1.007,0.361-2.019,0.706-3.029,1.06
	c-1.759,0.616-3.519,1.227-5.28,1.82c-1.351,0.456-2.704,0.906-4.059,1.349l-38.674-24.951c-2.835-1.83-5.94-2.988-9.116-3.512
	l22.28-151.979l53.259,135.668c1.547,3.941,5.318,6.348,9.311,6.348c1.215,0,2.451-0.223,3.651-0.694
	c5.141-2.019,7.672-7.822,5.654-12.963l-50.523-128.698h15.542l46.784,119.174c2.018,5.14,7.817,7.672,12.963,5.654
	c5.141-2.018,7.672-7.822,5.654-12.963l-43.601-111.066L430.024,206.618z M266.327,21.639l56.796,31.348h-56.796V21.639z
	 M222.617,135.1h-9.194c-4.142,0-7.869-1.778-10.488-4.597c-2.376-2.559-3.842-5.973-3.842-9.732
	c0-7.543,5.862-13.729,13.267-14.276c0.352-0.026,0.704-0.054,1.063-0.054H256h8.416h34.161c0.359,0,0.71,0.028,1.062,0.054
	c7.405,0.547,13.267,6.733,13.267,14.276c0,3.368-1.176,6.462-3.128,8.911c-2.628,3.296-6.669,5.418-11.202,5.418h-25.059H263.32
	h-3.678h-21.486H222.617z M86.04,447.802c3.181-7.805,10.662-12.858,19.08-12.909c0.042,0,0.084-0.005,0.126-0.005
	c5.054,0,9.681,1.706,13.336,4.808c1.614,1.37,3.041,3.011,4.229,4.902c3.875,6.171,4.283,13.475,1.118,20.039l-13.191,27.359
	H93.175h-0.151H68.028L86.04,447.802z"/>
<path d="M157.743,258.286c0.359,0.55,0.779,1.06,1.239,1.52c0.46,0.46,0.971,0.88,1.52,1.24c0.54,0.36,1.12,0.67,1.729,0.92
	c0.601,0.25,1.23,0.45,1.87,0.57c0.641,0.13,1.3,0.2,1.95,0.2s1.31-0.07,1.95-0.2c0.64-0.12,1.27-0.32,1.88-0.57
	c0.6-0.25,1.18-0.56,1.72-0.92c0.55-0.36,1.061-0.78,1.52-1.24c0.46-0.46,0.88-0.97,1.25-1.52c0.359-0.54,0.67-1.12,0.91-1.73
	c0.25-0.6,0.449-1.23,0.579-1.87c0.12-0.64,0.19-1.3,0.19-1.95c0-2.64-1.07-5.21-2.93-7.07c-0.46-0.46-0.971-0.88-1.52-1.24
	c-0.54-0.36-1.12-0.67-1.72-0.92c-0.61-0.25-1.24-0.45-1.88-0.57c-1.28-0.26-2.61-0.26-3.9,0c-0.64,0.12-1.27,0.32-1.87,0.57
	c-0.609,0.25-1.189,0.56-1.729,0.92c-0.55,0.36-1.061,0.78-1.52,1.24c-1.859,1.86-2.93,4.44-2.93,7.07c0,0.65,0.07,1.31,0.2,1.95
	c0.12,0.64,0.319,1.27,0.569,1.87C157.072,257.166,157.382,257.746,157.743,258.286z"/>
<g>
</g>
<g>
</g>
<g>
</g>
<g>
</g>
<g>
</g>
<g>
</g>
<g>
</g>
<g>
</g>
<g>
</g>
<g>
</g>
<g>
</g>
<g>
</g>
<g>
</g>
<g>
</g>
<g>
</g>
</svg>
