<?xml version="1.0" encoding="iso-8859-1"?>
<!-- Generator: Adobe Illustrator 19.0.0, SVG Export Plug-In . SVG Version: 6.00 Build 0)  -->
<svg version="1.1" id="Capa_1" xmlns="http://www.w3.org/2000/svg" xmlns:xlink="http://www.w3.org/1999/xlink" x="0px" y="0px"
	 viewBox="0 0 512 512" style="enable-background:new 0 0 512 512;" xml:space="preserve">
<path style="fill:#D76976;" d="M387.473,377.204H26.301c-10.384,0-18.801-8.418-18.801-18.801v-120.14
	c0-10.384,8.418-18.801,18.801-18.801h361.171L387.473,377.204L387.473,377.204z"/>
<g>
	<rect x="343.269" y="219.464" style="opacity:0.2;fill:#893529;enable-background:new    ;" width="44.209" height="157.745"/>
	<path style="opacity:0.2;fill:#893529;enable-background:new    ;" d="M26.301,219.46c-10.384,0-18.801,8.418-18.801,18.802
		v120.139c0,10.384,8.418,18.801,18.801,18.801h189.133C129.237,344.964,92.469,271.177,96.997,219.46H26.301z"/>
</g>
<path style="fill:#FCDF81;" d="M412.051,377.204h-49.155V203.353c0-7.811,6.332-14.143,14.142-14.143h20.872
	c7.811,0,14.142,6.332,14.142,14.143L412.051,377.204L412.051,377.204z"/>
<path style="fill:#D76976;" d="M198.649,128.918H23.731c-8.965,0-16.231-7.267-16.231-16.231V97.406
	c0-5.278,3.22-10.021,8.126-11.969l0,0c61.379-24.37,129.751-24.37,191.13,0l0,0c4.905,1.948,8.126,6.691,8.126,11.969v15.281
	C214.88,121.652,207.614,128.918,198.649,128.918z"/>
<path style="opacity:0.2;fill:#893529;enable-background:new    ;" d="M85.585,68.44c-23.802,2.365-47.356,8.022-69.96,16.997l0,0
	C10.72,87.386,7.5,92.129,7.5,97.406v15.281c0,8.965,7.267,16.231,16.231,16.231h92.782C89.028,118.202,75.127,86.014,85.585,68.44z
	"/>
<rect x="34.593" y="128.916" style="fill:#7E9EDC;" width="30.496" height="90.537"/>
<rect x="34.593" y="128.916" style="opacity:0.15;fill:#003A63;enable-background:new    ;" width="30.496" height="30.496"/>
<rect x="157.295" y="128.916" style="fill:#7E9EDC;" width="30.496" height="90.537"/>
<rect x="157.295" y="128.916" style="opacity:0.15;fill:#003A63;enable-background:new    ;" width="30.496" height="30.496"/>
<rect x="268.832" y="161.795" style="fill:#495059;" width="57.664" height="57.664"/>
<rect x="268.832" y="161.795" style="opacity:0.1;enable-background:new    ;" width="57.664" height="27.414"/>
<path style="fill:#F3BB62;" d="M335.898,161.796h-76.467c-6.023,0-10.906-4.883-10.906-10.906v-17.344
	c0-6.023,4.883-10.906,10.906-10.906h76.467c6.023,0,10.906,4.883,10.906,10.906v17.343
	C346.804,156.913,341.921,161.796,335.898,161.796z"/>
<circle style="fill:#495059;" cx="96.997" cy="377.199" r="67.718"/>
<circle style="fill:#E7EBEC;" cx="96.997" cy="377.199" r="32.239"/>
<circle style="fill:#495059;" cx="290.751" cy="377.199" r="67.718"/>
<circle style="fill:#E7EBEC;" cx="290.751" cy="377.199" r="32.239"/>
<path style="fill:#F3BB62;" d="M495.735,413.219h-62.369c-11.772,0-21.314-9.543-21.314-21.314v-98.922h18.579
	c4.925,0,9.492,2.576,12.039,6.791l60.543,100.191C506.73,405.787,502.537,413.219,495.735,413.219z"/>
<path style="fill:#8F959B;" d="M277.539,363.988H110.213c-7.299,0-13.216,5.917-13.216,13.216l0,0
	c0,7.299,5.917,13.216,13.216,13.216h167.327c7.299,0,13.216-5.917,13.216-13.216l0,0
	C290.756,369.905,284.839,363.988,277.539,363.988z"/>
<path style="fill:#FCDF81;" d="M240.023,297.226h-52.278c-7.743,0-14.019-6.277-14.019-14.019c0-7.743,6.277-14.019,14.019-14.019
	h47.194l24.909-20.802c2.521-2.105,5.702-3.259,8.986-3.259h52.278c7.743,0,14.019,6.277,14.019,14.019
	c0,7.743-6.277,14.019-14.019,14.019h-47.195l-24.909,20.802C246.487,296.072,243.306,297.226,240.023,297.226z"/>
<path d="M187.744,304.726h52.278c5.032,0,9.931-1.776,13.793-5.002l22.821-19.059h44.475c11.866,0,21.519-9.653,21.519-21.518
	s-9.654-21.519-21.519-21.519h-52.278c-5.032,0-9.931,1.776-13.794,5.002l-22.821,19.058h-44.474
	c-11.866,0-21.518,9.654-21.518,21.519C166.226,295.072,175.879,304.726,187.744,304.726z M187.744,276.688h47.195
	c1.757,0,3.458-0.617,4.808-1.744l24.908-20.801c1.17-0.978,2.655-1.516,4.179-1.516h52.278c3.595,0,6.52,2.925,6.52,6.52
	c0,3.595-2.925,6.519-6.52,6.519h-47.195c-1.757,0-3.459,0.617-4.808,1.743L244.2,288.21c-1.17,0.977-2.654,1.515-4.178,1.515
	h-52.278c-3.595,0-6.519-2.924-6.519-6.519C181.225,279.612,184.149,276.688,187.744,276.688z M509.63,396.086l-60.542-100.19
	c-3.881-6.423-10.953-10.413-18.457-10.413h-11.08v-7.665c0-4.142-3.358-7.5-7.5-7.5c-4.142,0-7.5,3.358-7.5,7.5v91.886h-34.156
	V203.352c0-3.663,2.98-6.642,6.642-6.642h20.872c3.663,0,6.642,2.98,6.642,6.642v39.343c0,4.142,3.358,7.5,7.5,7.5
	c4.142,0,7.5-3.358,7.5-7.5v-39.343c0-11.934-9.708-21.641-21.641-21.641h-20.872c-11.934,0-21.642,9.709-21.642,21.641v8.608
	h-21.397v-42.664h1.901c10.149,0,18.405-8.257,18.405-18.405v-17.344c0-10.149-8.257-18.405-18.405-18.405h-76.467
	c-10.149,0-18.405,8.257-18.405,18.405v17.343c0,10.149,8.257,18.405,18.405,18.405h1.901v42.664h-66.047v-75.542h3.362
	c13.086,0,23.731-10.646,23.731-23.731v-15.28c0-8.404-5.047-15.838-12.858-18.939c-63.412-25.177-133.255-25.177-196.666,0
	C5.047,81.569,0,89.003,0,97.406v15.281c0,13.086,10.646,23.731,23.731,23.731h3.362v75.542h-0.792
	C11.799,211.96,0,223.759,0,238.262v120.14c0,13.087,9.608,23.967,22.139,25.969c0.802,8.543,3.023,16.799,6.674,24.62
	c1.273,2.727,3.977,4.329,6.801,4.329c1.063,0,2.142-0.227,3.168-0.706c3.753-1.753,5.375-6.216,3.623-9.969
	c-3.73-7.987-5.621-16.546-5.621-25.44c0-33.204,27.011-60.215,60.213-60.215c25.513,0,47.981,16.15,56.534,39.498h-22.65
	c-7.158-11.69-19.964-19.023-33.884-19.023c-21.912,0-39.74,17.827-39.74,39.74c0,21.912,17.827,39.74,39.74,39.74
	c13.92,0,26.726-7.335,33.884-19.023h22.65c-8.553,23.345-31.021,39.496-56.534,39.496c-12.473,0-24.436-3.778-34.597-10.925
	c-3.387-2.383-8.066-1.568-10.449,1.819c-2.383,3.388-1.568,8.066,1.819,10.449c12.702,8.935,27.649,13.657,43.227,13.657
	c33.712,0,63.18-22.576,72.305-54.497h49.15c9.124,31.921,38.592,54.497,72.304,54.497c38.942,0,71.061-29.749,74.838-67.713h38.958
	v7.202c0,15.889,12.926,28.814,28.814,28.814h62.369c5.938,0,11.224-3.087,14.142-8.259
	C512.793,407.289,512.701,401.168,509.63,396.086z M259.432,154.297c-1.878,0-3.406-1.528-3.406-3.406v-17.344
	c0-1.878,1.528-3.406,3.406-3.406h76.467c1.878,0,3.406,1.528,3.406,3.406v17.343c0,1.878-1.528,3.406-3.406,3.406L259.432,154.297
	L259.432,154.297z M318.998,169.296v42.664h-42.665v-42.664H318.998z M23.731,121.419c-4.815,0-8.732-3.917-8.732-8.732V97.406
	c0-2.218,1.332-4.18,3.394-4.999c29.924-11.882,61.355-17.819,92.797-17.819c31.435,0,62.88,5.941,92.797,17.819
	c2.061,0.818,3.393,2.78,3.393,4.999v15.281c0,4.815-3.917,8.732-8.732,8.732H23.731z M180.287,136.418v75.542H164.79v-75.542
	H180.287z M149.79,136.418v75.542H72.59v-75.542H149.79z M57.59,136.418v75.542H42.093v-75.542H57.59z M96.997,401.944
	c-13.642,0-24.74-11.099-24.74-24.74s11.099-24.74,24.74-24.74c4.888,0,9.557,1.453,13.5,4.024h-0.284
	c-11.423,0-20.715,9.293-20.715,20.715s9.294,20.715,20.715,20.715h0.284C106.554,400.49,101.885,401.944,96.997,401.944z
	 M224.387,382.919H163.37c-0.009,0-0.018,0-0.027,0h-53.129c-3.152,0-5.716-2.564-5.716-5.716s2.564-5.716,5.716-5.716h16.334
	c0.014,0,0.028,0,0.042,0h36.741c0.021,0,0.041,0,0.062,0h60.972c0.021,0,0.041,0,0.062,0h53.114c3.152,0,5.716,2.564,5.716,5.716
	s-2.564,5.716-5.716,5.716h-53.135C224.399,382.919,224.393,382.919,224.387,382.919z M277.539,356.487h-0.284
	c3.943-2.571,8.612-4.024,13.5-4.024c13.642,0,24.74,11.099,24.74,24.74s-11.099,24.74-24.74,24.74c-4.888,0-9.557-1.453-13.5-4.024
	h0.284c11.423,0,20.715-9.293,20.715-20.715C298.256,365.781,288.962,356.487,277.539,356.487z M290.756,437.417
	c-25.513,0-47.981-16.151-56.533-39.498h22.65c7.158,11.69,19.964,19.023,33.884,19.023c21.912,0,39.74-17.827,39.74-39.74
	c0-21.912-17.827-39.74-39.74-39.74c-13.92,0-26.726,7.335-33.884,19.023h-22.65c8.551-23.345,31.019-39.496,56.533-39.496
	c33.202,0,60.213,27.011,60.213,60.213C350.968,410.405,323.957,437.417,290.756,437.417z M355.395,338.808
	c-13.133-22.025-37.186-36.817-64.639-36.817c-33.712,0-63.18,22.576-72.304,54.497h-49.15
	c-9.125-31.921-38.593-54.497-72.305-54.497c-38.679,0-70.62,29.351-74.749,66.949C18.015,367.305,15,363.204,15,358.402v-120.14
	c0-6.232,5.07-11.303,11.302-11.303h329.094V338.808z M496.811,405.091c-0.355,0.629-0.898,0.629-1.077,0.629h-62.369
	c-7.618,0-13.815-6.197-13.815-13.815v-91.422h11.08c2.285,0,4.438,1.214,5.62,3.17l60.543,100.191
	C496.884,403.996,497.166,404.462,496.811,405.091z M72.27,261.22h31.751c4.142,0,7.5-3.358,7.5-7.5s-3.358-7.5-7.5-7.5H72.27
	c-4.142,0-7.5,3.358-7.5,7.5S68.128,261.22,72.27,261.22z"/>
<g>
</g>
<g>
</g>
<g>
</g>
<g>
</g>
<g>
</g>
<g>
</g>
<g>
</g>
<g>
</g>
<g>
</g>
<g>
</g>
<g>
</g>
<g>
</g>
<g>
</g>
<g>
</g>
<g>
</g>
</svg>
