<?xml version="1.0" encoding="iso-8859-1"?>
<!-- Generator: Adobe Illustrator 19.0.0, SVG Export Plug-In . SVG Version: 6.00 Build 0)  -->
<svg version="1.1" id="Capa_1" xmlns="http://www.w3.org/2000/svg" xmlns:xlink="http://www.w3.org/1999/xlink" x="0px" y="0px"
	 viewBox="0 0 490.667 490.667" style="enable-background:new 0 0 490.667 490.667;" xml:space="preserve">
<path style="fill:#455A64;" d="M490.667,53.333v53.333H0V53.333C0,23.878,23.878,0,53.333,0h384
	C466.789,0,490.667,23.878,490.667,53.333z"/>
<path style="fill:#CFD8DC;" d="M490.667,106.667v330.667c0,29.455-23.878,53.333-53.333,53.333h-384
	C23.878,490.667,0,466.789,0,437.333V106.667H490.667z"/>
<path style="fill:#546E7A;" d="M117.333,384H224c5.891,0,10.667,4.776,10.667,10.667v42.667c0,5.891-4.776,10.667-10.667,10.667
	H117.333c-5.891,0-10.667-4.776-10.667-10.667v-42.667C106.667,388.776,111.442,384,117.333,384z"/>
<path style="fill:#4CAF50;" d="M266.667,384h106.667c5.891,0,10.667,4.776,10.667,10.667v42.667c0,5.891-4.776,10.667-10.667,10.667
	H266.667c-5.891,0-10.667-4.776-10.667-10.667v-42.667C256,388.776,260.776,384,266.667,384z"/>
<circle style="fill:#F44336;" cx="53.333" cy="53.333" r="10.667"/>
<circle style="fill:#FFC107;" cx="96" cy="53.333" r="10.667"/>
<circle style="fill:#4CAF50;" cx="138.667" cy="53.333" r="10.667"/>
<circle style="fill:#FAFAFA;" cx="245.333" cy="245.333" r="106.667"/>
<g>
	<path style="fill:#2196F3;" d="M245.333,362.667C180.532,362.667,128,310.135,128,245.333S180.532,128,245.333,128
		s117.333,52.532,117.333,117.333C362.584,310.101,310.101,362.584,245.333,362.667z M245.333,149.333c-53.019,0-96,42.981-96,96
		s42.981,96,96,96s96-42.981,96-96S298.353,149.333,245.333,149.333z"/>
	<circle style="fill:#2196F3;" cx="245.333" cy="224" r="42.667"/>
	<path style="fill:#2196F3;" d="M245.333,352c28.264,0.032,55.377-11.191,75.349-31.189c-14-41.62-59.089-64.011-100.71-50.01
		c-23.575,7.93-42.08,26.436-50.01,50.01C189.941,340.814,217.062,352.037,245.333,352z"/>
</g>
<path d="M245.333,362.667C180.532,362.667,128,310.135,128,245.333S180.532,128,245.333,128s117.333,52.532,117.333,117.333
	C362.584,310.101,310.101,362.584,245.333,362.667z M245.333,149.333c-53.019,0-96,42.981-96,96s42.981,96,96,96s96-42.981,96-96
	S298.353,149.333,245.333,149.333z"/>
<path d="M245.333,277.333C215.878,277.333,192,253.455,192,224s23.878-53.333,53.333-53.333s53.333,23.878,53.333,53.333
	S274.789,277.333,245.333,277.333z M245.333,192c-17.673,0-32,14.327-32,32s14.327,32,32,32s32-14.327,32-32
	S263.006,192,245.333,192z"/>
<path d="M245.333,362.667c-31.104,0.086-60.952-12.265-82.901-34.304c-2.842-2.906-3.785-7.175-2.432-11.008
	c15.891-47.187,67.025-72.558,114.213-56.667c26.708,8.994,47.673,29.96,56.667,56.667c1.326,3.853,0.341,8.125-2.539,11.008
	C306.366,350.428,276.475,362.781,245.333,362.667z M182.571,317.973c36.389,30.208,89.136,30.208,125.525,0
	c-15.536-34.663-56.231-50.168-90.894-34.632C201.8,290.245,189.474,302.571,182.571,317.973z"/>
<path d="M437.333,490.667h-384C23.878,490.667,0,466.789,0,437.333v-384C0,23.878,23.878,0,53.333,0h384
	c29.455,0,53.333,23.878,53.333,53.333v384C490.667,466.789,466.789,490.667,437.333,490.667z M53.333,21.333
	c-17.673,0-32,14.327-32,32v384c0,17.673,14.327,32,32,32h384c17.673,0,32-14.327,32-32v-384c0-17.673-14.327-32-32-32H53.333z"/>
<path d="M480,106.667H10.667C4.776,106.667,0,101.891,0,96c0-5.891,4.776-10.667,10.667-10.667H480
	c5.891,0,10.667,4.776,10.667,10.667C490.667,101.891,485.891,106.667,480,106.667z"/>
<path d="M224,448H117.333c-5.891,0-10.667-4.776-10.667-10.667v-42.667c0-5.891,4.776-10.667,10.667-10.667H224
	c5.891,0,10.667,4.776,10.667,10.667v42.667C234.667,443.224,229.891,448,224,448z M128,426.667h85.333v-21.333H128V426.667z"/>
<path d="M373.333,448H266.667c-5.891,0-10.667-4.776-10.667-10.667v-42.667c0-5.891,4.776-10.667,10.667-10.667h106.667
	c5.891,0,10.667,4.776,10.667,10.667v42.667C384,443.224,379.224,448,373.333,448z M277.333,426.667h85.333v-21.333h-85.333V426.667
	z"/>
<circle cx="53.333" cy="53.333" r="10.667"/>
<circle cx="96" cy="53.333" r="10.667"/>
<circle cx="138.667" cy="53.333" r="10.667"/>
<g>
</g>
<g>
</g>
<g>
</g>
<g>
</g>
<g>
</g>
<g>
</g>
<g>
</g>
<g>
</g>
<g>
</g>
<g>
</g>
<g>
</g>
<g>
</g>
<g>
</g>
<g>
</g>
<g>
</g>
</svg>
