<?xml version="1.0" encoding="iso-8859-1"?>
<!-- Generator: Adobe Illustrator 19.0.0, SVG Export Plug-In . SVG Version: 6.00 Build 0)  -->
<svg version="1.1" id="Capa_1" xmlns="http://www.w3.org/2000/svg" xmlns:xlink="http://www.w3.org/1999/xlink" x="0px" y="0px"
	 viewBox="0 0 490.667 490.667" style="enable-background:new 0 0 490.667 490.667;" xml:space="preserve">
<path style="fill:#CFD8DC;" d="M53.333,0h384c29.455,0,53.333,23.878,53.333,53.333v384c0,29.455-23.878,53.333-53.333,53.333h-384
	C23.878,490.667,0,466.789,0,437.333v-384C0,23.878,23.878,0,53.333,0z"/>
<path style="fill:#64B5F6;" d="M96,298.667h298.667C424.122,298.667,448,322.545,448,352v42.667
	C448,424.122,424.122,448,394.667,448H96c-29.455,0-53.333-23.878-53.333-53.333V352C42.667,322.545,66.545,298.667,96,298.667z"/>
<circle style="fill:#FAFAFA;" cx="245.333" cy="160" r="106.667"/>
<g>
	<path style="fill:#2196F3;" d="M245.333,277.333C180.532,277.333,128,224.801,128,160S180.532,42.667,245.333,42.667
		S362.667,95.199,362.667,160C362.584,224.767,310.101,277.251,245.333,277.333z M245.333,64c-53.019,0-96,42.981-96,96
		s42.981,96,96,96s96-42.981,96-96S298.353,64,245.333,64z"/>
	<circle style="fill:#2196F3;" cx="245.333" cy="138.667" r="42.667"/>
	<path style="fill:#2196F3;" d="M245.333,266.667c28.264,0.031,55.377-11.191,75.349-31.189c-14-41.62-59.089-64.011-100.71-50.01
		c-23.575,7.93-42.08,26.436-50.01,50.01C189.941,255.481,217.062,266.704,245.333,266.667z"/>
</g>
<g>
	<path style="fill:#455A64;" d="M146.219,344.448c-4.165-4.164-10.917-4.164-15.083,0l-13.803,13.803l-13.781-13.781
		c-4.237-4.093-10.99-3.975-15.083,0.262c-3.993,4.134-3.993,10.687,0,14.821l13.781,13.781l-13.781,13.781
		c-4.237,4.093-4.355,10.845-0.262,15.083c4.093,4.237,10.845,4.354,15.083,0.262c0.089-0.086,0.176-0.173,0.262-0.262
		l13.781-13.781l13.781,13.781c4.093,4.237,10.845,4.354,15.083,0.262c4.237-4.093,4.354-10.845,0.262-15.083
		c-0.086-0.089-0.173-0.176-0.262-0.262l-13.781-13.781l13.781-13.781c4.177-4.154,4.195-10.908,0.04-15.085
		C146.231,344.461,146.225,344.454,146.219,344.448z"/>
	<path style="fill:#455A64;" d="M231.552,344.448c-4.165-4.164-10.917-4.164-15.083,0l-13.803,13.803l-13.781-13.781
		c-4.237-4.093-10.99-3.975-15.083,0.262c-3.993,4.134-3.993,10.687,0,14.821l13.781,13.781l-13.781,13.781
		c-4.237,4.093-4.355,10.845-0.262,15.083c4.093,4.237,10.845,4.354,15.083,0.262c0.089-0.086,0.176-0.173,0.262-0.262
		l13.781-13.781l13.781,13.781c4.237,4.093,10.99,3.975,15.083-0.262c3.993-4.134,3.993-10.687,0-14.821l-13.781-13.781
		l13.781-13.781c4.177-4.154,4.195-10.908,0.04-15.085C231.565,344.461,231.558,344.454,231.552,344.448z"/>
	<path style="fill:#455A64;" d="M316.885,344.448c-4.165-4.164-10.917-4.164-15.083,0L288,358.251l-13.781-13.781
		c-4.237-4.093-10.99-3.975-15.083,0.262c-3.993,4.134-3.993,10.687,0,14.821l13.781,13.781l-13.781,13.781
		c-4.237,4.093-4.355,10.845-0.262,15.083c4.093,4.237,10.845,4.354,15.083,0.262c0.089-0.086,0.176-0.173,0.262-0.262L288,388.416
		l13.781,13.781c4.237,4.093,10.99,3.975,15.083-0.262c3.993-4.134,3.993-10.687,0-14.821l-13.781-13.781l13.781-13.781
		c4.177-4.154,4.195-10.908,0.04-15.085C316.898,344.461,316.892,344.454,316.885,344.448z"/>
	<path style="fill:#455A64;" d="M388.416,373.333l13.781-13.781c4.093-4.237,3.976-10.99-0.261-15.083
		c-4.134-3.993-10.688-3.993-14.821,0l-13.781,13.781l-13.781-13.781c-4.237-4.093-10.99-3.976-15.083,0.261
		c-3.993,4.134-3.993,10.688,0,14.821l13.781,13.781l-13.781,13.781c-4.237,4.093-4.354,10.846-0.261,15.083
		c4.093,4.237,10.846,4.354,15.083,0.261c0.089-0.086,0.176-0.173,0.261-0.261l13.781-13.781l13.781,13.781
		c4.237,4.093,10.99,3.976,15.083-0.261c3.993-4.134,3.993-10.688,0-14.821L388.416,373.333z"/>
</g>
<path d="M245.333,277.333C180.532,277.333,128,224.801,128,160S180.532,42.667,245.333,42.667S362.667,95.199,362.667,160
	C362.584,224.767,310.101,277.251,245.333,277.333z M245.333,64c-53.019,0-96,42.981-96,96s42.981,96,96,96s96-42.981,96-96
	S298.353,64,245.333,64z"/>
<path d="M245.333,192C215.878,192,192,168.122,192,138.667s23.878-53.333,53.333-53.333s53.333,23.878,53.333,53.333
	S274.789,192,245.333,192z M245.333,106.667c-17.673,0-32,14.327-32,32s14.327,32,32,32s32-14.327,32-32
	S263.006,106.667,245.333,106.667z"/>
<path d="M245.333,277.333c-31.104,0.086-60.952-12.265-82.901-34.304c-2.842-2.906-3.785-7.175-2.432-11.008
	c15.891-47.187,67.025-72.558,114.213-56.667c26.708,8.994,47.673,29.96,56.667,56.667c1.326,3.853,0.341,8.125-2.539,11.008
	C306.366,265.095,276.475,277.448,245.333,277.333z M182.571,232.64c36.389,30.208,89.136,30.208,125.525,0
	c-15.536-34.663-56.231-50.168-90.894-34.632C201.8,204.912,189.474,217.238,182.571,232.64z"/>
<path d="M437.333,490.667h-384C23.878,490.667,0,466.789,0,437.333v-384C0,23.878,23.878,0,53.333,0h384
	c29.455,0,53.333,23.878,53.333,53.333v384C490.667,466.789,466.789,490.667,437.333,490.667z M53.333,21.333
	c-17.673,0-32,14.327-32,32v384c0,17.673,14.327,32,32,32h384c17.673,0,32-14.327,32-32v-384c0-17.673-14.327-32-32-32H53.333z"/>
<path d="M394.667,448H96c-29.455,0-53.333-23.878-53.333-53.333V352c0-29.455,23.878-53.333,53.333-53.333h298.667
	C424.122,298.667,448,322.545,448,352v42.667C448,424.122,424.122,448,394.667,448z M96,320c-17.673,0-32,14.327-32,32v42.667
	c0,17.673,14.327,32,32,32h298.667c17.673,0,32-14.327,32-32V352c0-17.673-14.327-32-32-32H96z"/>
<g>
</g>
<g>
</g>
<g>
</g>
<g>
</g>
<g>
</g>
<g>
</g>
<g>
</g>
<g>
</g>
<g>
</g>
<g>
</g>
<g>
</g>
<g>
</g>
<g>
</g>
<g>
</g>
<g>
</g>
</svg>
