<?xml version="1.0" encoding="iso-8859-1"?>
<!-- Generator: Adobe Illustrator 19.0.0, SVG Export Plug-In . SVG Version: 6.00 Build 0)  -->
<svg version="1.1" id="Capa_1" xmlns="http://www.w3.org/2000/svg" xmlns:xlink="http://www.w3.org/1999/xlink" x="0px" y="0px"
	 viewBox="0 0 512.374 512.374" style="enable-background:new 0 0 512.374 512.374;" xml:space="preserve">
<path style="fill:#546E7A;" d="M415.526,277.26c-41.237,0-74.667,33.429-74.667,74.667v21.333c0,5.891,4.776,10.667,10.667,10.667
	c5.891,0,10.667-4.776,10.667-10.667v-21.333c0-29.455,23.878-53.333,53.333-53.333s53.333,23.878,53.333,53.333v21.333
	c0,5.891,4.776,10.667,10.667,10.667s10.667-4.776,10.667-10.667v-21.333C490.193,310.689,456.763,277.26,415.526,277.26z"/>
<path style="fill:#FFC107;" d="M330.193,362.593h170.667c5.891,0,10.667,4.776,10.667,10.667v128
	c0,5.891-4.776,10.667-10.667,10.667H330.193c-5.891,0-10.667-4.776-10.667-10.667v-128
	C319.526,367.369,324.301,362.593,330.193,362.593z"/>
<path style="fill:#FAFAFA;" d="M436.859,426.593c0-11.782-9.551-21.333-21.333-21.333s-21.333,9.551-21.333,21.333
	c0.095,7.484,4.156,14.355,10.667,18.048v13.952c0,5.891,4.776,10.667,10.667,10.667s10.667-4.776,10.667-10.667v-13.952
	C432.703,440.948,436.764,434.077,436.859,426.593z"/>
<path style="fill:#455A64;" d="M298.193,501.26v-128c0.071-13.857,9.053-26.093,22.251-30.315
	c2.986-30.912,20.722-58.477,47.616-74.005c1.892-4.38,3.524-8.867,4.885-13.44c12.903-3.147,22.521-13.936,24.171-27.115
	l5.333-42.667c1.827-14.644-6.598-28.639-20.395-33.877l1.963-40.192l7.979-7.979c17.557-18.518,18.057-47.381,1.152-66.496
	c-18.541-25.697-49.276-39.69-80.832-36.8c-28.497-1.245-56.7,6.194-80.875,21.333c-90.901,1.963-103.253,44.16-103.253,85.333
	c0,9.579,2.325,31.147,3.861,44.139c-14.745,4.661-24.047,19.198-22.101,34.539l5.333,42.667
	c1.705,13.722,12.031,24.796,25.6,27.456c4.671,29.877,18.377,57.609,39.275,79.467l-7.424,29.739l-81.728,20.416
	C37.624,398.751,0.165,446.699,0.187,501.708c0,5.891,4.776,10.667,10.667,10.667l0,0l289.323-0.299
	C298.889,508.614,298.217,504.953,298.193,501.26z"/>
<path d="M10.854,512.374c-5.891,0-10.667-4.776-10.667-10.667c-0.046-55.035,37.415-103.02,90.816-116.331l81.728-20.416
	l7.424-29.653c-20.866-21.875-34.535-49.614-39.168-79.488c-13.569-2.66-23.895-13.734-25.6-27.456l-5.333-42.667
	c-1.936-15.296,7.31-29.797,21.995-34.496c-1.536-12.992-3.861-34.56-3.861-44.16c0-41.195,12.373-83.392,103.253-85.333
	c24.165-15.143,52.363-22.583,80.853-21.333c31.552-2.877,62.279,11.123,80.811,36.821C410,56.314,409.5,85.17,391.952,103.692
	l-7.979,7.979l-1.92,40.171c13.82,5.189,22.267,19.189,20.416,33.835l-5.333,42.667c-1.646,13.172-11.255,23.96-24.149,27.115
	c-2.92,9.358-6.757,18.405-11.456,27.008c-2.863,5.149-9.358,7.002-14.507,4.139c-5.149-2.863-7.002-9.358-4.139-14.507l0,0
	c4.898-8.859,8.579-18.338,10.944-28.181c0.871-5.111,5.29-8.855,10.475-8.875c5.71,0.387,10.764-3.665,11.627-9.323l5.333-42.667
	c0.389-2.986-0.528-5.995-2.517-8.256c-1.984-2.333-4.874-3.7-7.936-3.755c-5.891-0.064-10.614-4.891-10.55-10.782
	c0.001-0.132,0.005-0.265,0.012-0.397l2.581-53.312c0.131-2.645,1.241-5.147,3.115-7.019l10.667-10.667
	c6.677-7.104,12.8-18.304-1.387-39.957c-14.78-19.457-38.656-29.773-62.955-27.2c-25.211-1.443-50.208,5.34-71.232,19.328
	c-1.809,1.3-3.98,2.002-6.208,2.005c-78.933,0.789-85.333,30.72-85.333,64c0,10.432,3.584,41.088,4.949,52.011
	c0.742,5.844-3.393,11.184-9.237,11.926c-0.474,0.06-0.952,0.089-1.429,0.085h-2.133c-5.891-0.045-10.703,4.693-10.749,10.584
	c-0.004,0.47,0.024,0.939,0.082,1.405l5.333,42.667c0.671,5.369,5.256,9.386,10.667,9.344h3.477
	c5.573-0.018,10.221,4.258,10.667,9.813c2.688,30.162,16.244,58.319,38.144,79.232c2.822,2.647,3.989,6.615,3.051,10.368
	l-10.453,41.835c-0.955,3.824-3.941,6.811-7.765,7.765L96.187,406.07c-40.074,9.981-69.659,43.911-74.091,84.971l266.091-0.427l0,0
	c5.891,0,10.667,4.776,10.667,10.667c0,5.891-4.776,10.667-10.667,10.667L10.854,512.374z"/>
<path d="M501.521,511.948H330.854c-5.891,0-10.667-4.776-10.667-10.667v-128c0-5.891,4.776-10.667,10.667-10.667h170.667
	c5.891,0,10.667,4.776,10.667,10.667v128C512.187,507.172,507.412,511.948,501.521,511.948z M341.521,490.614h149.333V383.948
	H341.521V490.614z"/>
<path d="M416.187,469.281c-5.891,0-10.667-4.776-10.667-10.667v-32c0-5.891,4.776-10.667,10.667-10.667
	c5.891,0,10.667,4.776,10.667,10.667v32C426.854,464.505,422.078,469.281,416.187,469.281z"/>
<path d="M416.187,447.948c-11.782,0-21.333-9.551-21.333-21.333c0-11.782,9.551-21.333,21.333-21.333
	c11.782,0,21.333,9.551,21.333,21.333C437.521,438.396,427.969,447.948,416.187,447.948z"/>
<path d="M480.187,383.948c-5.891,0-10.667-4.776-10.667-10.667v-21.333c0-29.455-23.878-53.333-53.333-53.333
	s-53.333,23.878-53.333,53.333v21.333c0,5.891-4.776,10.667-10.667,10.667c-5.891,0-10.667-4.776-10.667-10.667v-21.333
	c0-41.237,33.429-74.667,74.667-74.667s74.667,33.429,74.667,74.667v21.333C490.854,379.172,486.078,383.948,480.187,383.948z"/>
<g>
</g>
<g>
</g>
<g>
</g>
<g>
</g>
<g>
</g>
<g>
</g>
<g>
</g>
<g>
</g>
<g>
</g>
<g>
</g>
<g>
</g>
<g>
</g>
<g>
</g>
<g>
</g>
<g>
</g>
</svg>
