<?xml version="1.0" encoding="iso-8859-1"?>
<!-- Generator: Adobe Illustrator 19.0.0, SVG Export Plug-In . SVG Version: 6.00 Build 0)  -->
<svg version="1.1" id="Capa_1" xmlns="http://www.w3.org/2000/svg" xmlns:xlink="http://www.w3.org/1999/xlink" x="0px" y="0px"
	 viewBox="0 0 512.12 512.12" style="enable-background:new 0 0 512.12 512.12;" xml:space="preserve">
<path style="fill:#607D8B;" d="M508.957,493.781L242.29,227.115c-4.237-4.092-10.99-3.975-15.083,0.262
	c-3.992,4.134-3.992,10.687,0,14.82L400.989,416l-35.115,35.115c-4.237,4.093-4.354,10.846-0.261,15.083
	c4.093,4.237,10.846,4.354,15.083,0.261c0.089-0.086,0.176-0.173,0.261-0.261l35.115-35.115l27.584,27.584l-35.115,35.115
	c-4.237,4.093-4.354,10.846-0.261,15.083c4.093,4.237,10.846,4.354,15.083,0.261c0.089-0.086,0.176-0.173,0.261-0.261l35.115-35.115
	l35.115,35.115c4.237,4.093,10.99,3.976,15.083-0.261c3.993-4.134,3.993-10.688,0-14.821H508.957z"/>
<circle style="fill:#455A64;" cx="138.738" cy="138.667" r="138.667"/>
<path d="M138.738,277.333c-76.583,0-138.667-62.083-138.667-138.667S62.155,0,138.738,0s138.667,62.083,138.667,138.667
	C277.311,215.211,215.283,277.239,138.738,277.333z M138.738,21.333c-64.801,0-117.333,52.532-117.333,117.333
	S73.937,256,138.738,256s117.333-52.532,117.333-117.333C255.989,73.899,203.506,21.416,138.738,21.333z"/>
<path d="M501.405,512c-2.831,0.005-5.548-1.115-7.552-3.115L227.186,242.219c-4.092-4.237-3.975-10.99,0.262-15.083
	c4.134-3.992,10.687-3.992,14.82,0l266.667,266.667c4.159,4.172,4.149,10.926-0.024,15.085
	C506.919,510.875,504.22,511.994,501.405,512z"/>
<path d="M416.072,512c-5.891,0.011-10.675-4.757-10.686-10.648c-0.005-2.84,1.123-5.565,3.134-7.571l42.667-42.667
	c4.237-4.093,10.99-3.976,15.083,0.261c3.993,4.134,3.993,10.688,0,14.821l-42.667,42.667
	C421.607,510.866,418.898,511.994,416.072,512z"/>
<path d="M373.405,469.333c-5.891,0.011-10.675-4.757-10.686-10.648c-0.005-2.84,1.123-5.565,3.134-7.571l42.667-42.667
	c4.237-4.093,10.99-3.976,15.083,0.261c3.993,4.134,3.993,10.688,0,14.821l-42.667,42.667
	C378.94,468.199,376.232,469.327,373.405,469.333z"/>
<g>
</g>
<g>
</g>
<g>
</g>
<g>
</g>
<g>
</g>
<g>
</g>
<g>
</g>
<g>
</g>
<g>
</g>
<g>
</g>
<g>
</g>
<g>
</g>
<g>
</g>
<g>
</g>
<g>
</g>
</svg>
