<?xml version="1.0" encoding="iso-8859-1"?>
<!-- Generator: Adobe Illustrator 19.0.0, SVG Export Plug-In . SVG Version: 6.00 Build 0)  -->
<svg version="1.1" id="Capa_1" xmlns="http://www.w3.org/2000/svg" xmlns:xlink="http://www.w3.org/1999/xlink" x="0px" y="0px"
	 viewBox="0 0 512 512" style="enable-background:new 0 0 512 512;" xml:space="preserve">
<path style="fill:#90A4AE;" d="M96,117.333h362.667c29.455,0,53.333,23.878,53.333,53.333V384c0,29.455-23.878,53.333-53.333,53.333
	H96c-29.455,0-53.333-23.878-53.333-53.333V170.667C42.667,141.211,66.545,117.333,96,117.333z"/>
<g>
	<path style="fill:#CFD8DC;" d="M53.333,74.667H416c29.455,0,53.333,23.878,53.333,53.333v213.333
		c0,29.455-23.878,53.333-53.333,53.333H53.333C23.878,394.667,0,370.789,0,341.333V128C0,98.545,23.878,74.667,53.333,74.667z"/>
	<circle style="fill:#CFD8DC;" cx="160" cy="234.667" r="106.667"/>
</g>
<g>
	<path style="fill:#2196F3;" d="M160,352c-64.801,0-117.333-52.532-117.333-117.333S95.199,117.333,160,117.333
		s117.333,52.532,117.333,117.333C277.263,299.439,224.772,351.929,160,352z M160,138.667c-53.019,0-96,42.981-96,96
		s42.981,96,96,96s96-42.981,96-96S213.019,138.667,160,138.667z"/>
	<circle style="fill:#2196F3;" cx="160" cy="213.333" r="42.667"/>
	<path style="fill:#2196F3;" d="M160,341.333c28.264,0.032,55.377-11.191,75.349-31.189c-14-41.62-59.089-64.011-100.71-50.01
		c-23.575,7.93-42.08,26.436-50.01,50.01C104.607,330.147,131.729,341.371,160,341.333z"/>
</g>
<g>
	<path style="fill:#90A4AE;" d="M416,181.333H309.333c-5.891,0-10.667-4.776-10.667-10.667S303.442,160,309.333,160H416
		c5.891,0,10.667,4.776,10.667,10.667S421.891,181.333,416,181.333z"/>
	<path style="fill:#90A4AE;" d="M416,245.333H309.333c-5.891,0-10.667-4.776-10.667-10.667S303.442,224,309.333,224H416
		c5.891,0,10.667,4.776,10.667,10.667S421.891,245.333,416,245.333z"/>
	<path style="fill:#90A4AE;" d="M416,309.333H309.333c-5.891,0-10.667-4.776-10.667-10.667c0-5.891,4.776-10.667,10.667-10.667H416
		c5.891,0,10.667,4.776,10.667,10.667C426.667,304.558,421.891,309.333,416,309.333z"/>
</g>
<path d="M416,394.667H53.333C23.878,394.667,0,370.789,0,341.333V128c0-29.455,23.878-53.333,53.333-53.333H416
	c29.455,0,53.333,23.878,53.333,53.333v213.333C469.333,370.789,445.455,394.667,416,394.667z M53.333,96c-17.673,0-32,14.327-32,32
	v213.333c0,17.673,14.327,32,32,32H416c17.673,0,32-14.327,32-32V128c0-17.673-14.327-32-32-32H53.333z"/>
<path d="M458.667,437.333H96c-29.455,0-53.333-23.878-53.333-53.333c0-5.891,4.776-10.667,10.667-10.667S64,378.109,64,384
	c0,17.673,14.327,32,32,32h362.667c17.673,0,32-14.327,32-32V170.667c0-17.673-14.327-32-32-32c-5.891,0-10.667-4.776-10.667-10.667
	c0-5.891,4.776-10.667,10.667-10.667c29.455,0,53.333,23.878,53.333,53.333V384C512,413.455,488.122,437.333,458.667,437.333z"/>
<path d="M160,352c-64.801,0-117.333-52.532-117.333-117.333S95.199,117.333,160,117.333s117.333,52.532,117.333,117.333
	C277.263,299.439,224.772,351.929,160,352z M160,138.667c-53.019,0-96,42.981-96,96s42.981,96,96,96s96-42.981,96-96
	S213.019,138.667,160,138.667z"/>
<path d="M160,266.667c-29.455,0-53.333-23.878-53.333-53.333S130.545,160,160,160s53.333,23.878,53.333,53.333
	S189.455,266.667,160,266.667z M160,181.333c-17.673,0-32,14.327-32,32s14.327,32,32,32s32-14.327,32-32
	S177.673,181.333,160,181.333z"/>
<path d="M160,352c-31.104,0.086-60.952-12.265-82.901-34.304c-2.879-2.883-3.864-7.155-2.539-11.008
	c15.928-47.187,67.092-72.528,114.28-56.6c26.666,9.001,47.6,29.935,56.6,56.6c1.326,3.853,0.341,8.125-2.539,11.008
	C220.952,339.735,191.104,352.086,160,352z M97.237,307.307c36.389,30.208,89.136,30.208,125.525,0
	c-15.536-34.663-56.231-50.168-90.894-34.632C116.467,279.578,104.141,291.904,97.237,307.307L97.237,307.307z"/>
<path d="M416,181.333H309.333c-5.891,0-10.667-4.776-10.667-10.667S303.442,160,309.333,160H416c5.891,0,10.667,4.776,10.667,10.667
	S421.891,181.333,416,181.333z"/>
<path d="M416,245.333H309.333c-5.891,0-10.667-4.776-10.667-10.667S303.442,224,309.333,224H416c5.891,0,10.667,4.776,10.667,10.667
	S421.891,245.333,416,245.333z"/>
<path d="M416,309.333H309.333c-5.891,0-10.667-4.776-10.667-10.667c0-5.891,4.776-10.667,10.667-10.667H416
	c5.891,0,10.667,4.776,10.667,10.667C426.667,304.558,421.891,309.333,416,309.333z"/>
<g>
</g>
<g>
</g>
<g>
</g>
<g>
</g>
<g>
</g>
<g>
</g>
<g>
</g>
<g>
</g>
<g>
</g>
<g>
</g>
<g>
</g>
<g>
</g>
<g>
</g>
<g>
</g>
<g>
</g>
</svg>
