<?xml version="1.0" encoding="iso-8859-1"?>
<!-- Generator: Adobe Illustrator 19.0.0, SVG Export Plug-In . SVG Version: 6.00 Build 0)  -->
<svg version="1.1" id="Capa_1" xmlns="http://www.w3.org/2000/svg" xmlns:xlink="http://www.w3.org/1999/xlink" x="0px" y="0px"
	 viewBox="0 0 512.032 512.032" style="enable-background:new 0 0 512.032 512.032;" xml:space="preserve">
<path style="fill:#455A64;" d="M266.683,256.006c-17.673,0-32-14.327-32-32s14.327-32,32-32h117.333V53.339
	c0-29.455-23.878-53.333-53.333-53.333h-256c-5.891,0-10.667,4.776-10.667,10.667v426.667c0,5.891,4.776,10.667,10.667,10.667h256
	c29.455,0,53.333-23.878,53.333-53.333V256.006H266.683z"/>
<path style="fill:#607D8B;" d="M206.758,55.664L85.584,3.739C62.193-6.288,35.103,4.546,25.077,27.937
	c-2.455,5.728-3.723,11.895-3.727,18.127V414c-0.014,18.435,10.975,35.099,27.925,42.347l121.173,51.947
	c23.391,10.027,50.481-0.807,60.508-24.198c2.458-5.735,3.726-11.909,3.727-18.148V98.011
	C234.697,79.576,223.708,62.912,206.758,55.664z"/>
<g>
	<path id="SVGCleanerId_0" d="M181.35,298.672c-5.891,0-10.667-4.776-10.667-10.667v-42.667c0-5.891,4.776-10.667,10.667-10.667
		s10.667,4.776,10.667,10.667v42.667C192.016,293.897,187.241,298.672,181.35,298.672z"/>
</g>
<path style="fill:#FFC107;" d="M489.872,228.08c1.649-3.989,0.731-8.579-2.325-11.627l-64-64c-4.237-4.093-10.99-3.975-15.083,0.262
	c-3.993,4.134-3.993,10.687,0,14.821l45.803,45.803H266.683c-5.891,0-10.667,4.776-10.667,10.667
	c0,5.891,4.776,10.667,10.667,10.667h187.584l-45.781,45.781c-4.237,4.093-4.354,10.845-0.262,15.083
	c4.093,4.237,10.845,4.354,15.083,0.262c0.089-0.086,0.176-0.173,0.262-0.262l64-64C488.555,230.546,489.338,229.372,489.872,228.08
	z"/>
<g>
	<path id="SVGCleanerId_0_1_" style="fill:#455A64;" d="M181.35,298.672c-5.891,0-10.667-4.776-10.667-10.667v-42.667
		c0-5.891,4.776-10.667,10.667-10.667s10.667,4.776,10.667,10.667v42.667C192.016,293.897,187.241,298.672,181.35,298.672z"/>
</g>
<g>
	<path id="SVGCleanerId_0_2_" d="M181.35,298.672c-5.891,0-10.667-4.776-10.667-10.667v-42.667c0-5.891,4.776-10.667,10.667-10.667
		s10.667,4.776,10.667,10.667v42.667C192.016,293.897,187.241,298.672,181.35,298.672z"/>
</g>
<path d="M480.016,234.672H266.683c-5.891,0-10.667-4.776-10.667-10.667c0-5.891,4.776-10.667,10.667-10.667h213.333
	c5.891,0,10.667,4.776,10.667,10.667C490.683,229.897,485.907,234.672,480.016,234.672z"/>
<path d="M416.016,298.672c-5.891,0.011-10.675-4.757-10.686-10.648c-0.005-2.84,1.123-5.565,3.134-7.571l56.469-56.448
	l-56.469-56.448c-4.093-4.237-3.975-10.99,0.262-15.083c4.134-3.993,10.687-3.993,14.821,0l64,64c4.164,4.165,4.164,10.917,0,15.083
	l-64,64C421.548,297.552,418.84,298.672,416.016,298.672z"/>
<path d="M330.683,448.006H224.016c-5.891,0-10.667-4.776-10.667-10.667c0-5.891,4.776-10.667,10.667-10.667h106.667
	c17.673,0,32-14.327,32-32V288.006c0-5.891,4.776-10.667,10.667-10.667c5.891,0,10.667,4.776,10.667,10.667v106.667
	C384.016,424.127,360.138,448.006,330.683,448.006z"/>
<path d="M373.35,170.672c-5.891,0-10.667-4.776-10.667-10.667V53.339c0-17.673-14.327-32-32-32h-256
	c-5.891,0-10.667-4.776-10.667-10.667S68.792,0.006,74.683,0.006h256c29.455,0,53.333,23.878,53.333,53.333v106.667
	C384.016,165.897,379.241,170.672,373.35,170.672z"/>
<g>
	<path id="SVGCleanerId_0_3_" d="M181.35,298.672c-5.891,0-10.667-4.776-10.667-10.667v-42.667c0-5.891,4.776-10.667,10.667-10.667
		s10.667,4.776,10.667,10.667v42.667C192.016,293.897,187.241,298.672,181.35,298.672z"/>
</g>
<path d="M188.624,512.006c-6.25,0.007-12.435-1.264-18.176-3.733L49.275,456.326C32.331,449.081,21.344,432.427,21.35,414V46.064
	C21.365,20.615,42.008-0.003,67.457,0.012c6.232,0.004,12.399,1.272,18.127,3.727l121.173,51.947
	c16.943,7.244,27.931,23.898,27.925,42.325v367.936C234.648,491.37,214.047,511.97,188.624,512.006z M67.408,21.339
	c-13.646,0.023-24.702,11.08-24.725,24.725V414c-0.021,9.885,5.854,18.832,14.933,22.741l121.195,51.947
	c3.1,1.33,6.44,2.005,9.813,1.984c13.646-0.023,24.702-11.08,24.725-24.725V98.011c0.021-9.886-5.854-18.832-14.933-22.741
	L77.158,23.344C74.079,22.015,70.761,21.333,67.408,21.339z"/>
<g>
</g>
<g>
</g>
<g>
</g>
<g>
</g>
<g>
</g>
<g>
</g>
<g>
</g>
<g>
</g>
<g>
</g>
<g>
</g>
<g>
</g>
<g>
</g>
<g>
</g>
<g>
</g>
<g>
</g>
</svg>
