<?xml version="1.0" encoding="iso-8859-1"?>
<!-- Generator: Adobe Illustrator 19.0.0, SVG Export Plug-In . SVG Version: 6.00 Build 0)  -->
<svg version="1.1" id="Capa_1" xmlns="http://www.w3.org/2000/svg" xmlns:xlink="http://www.w3.org/1999/xlink" x="0px" y="0px"
	 viewBox="0 0 512.007 512.007" style="enable-background:new 0 0 512.007 512.007;" xml:space="preserve">
<path style="fill:#546E7A;" d="M437.337,0.007h-256c-29.455,0-53.333,23.878-53.333,53.333l0.192,138.667h39.893l-9.365-9.365
	c-12.501-12.495-12.506-32.758-0.011-45.259c12.495-12.501,32.758-12.506,45.259-0.011l64,64
	c12.501,12.493,12.507,32.754,0.014,45.255c-0.005,0.005-0.01,0.01-0.014,0.014l-64,64c-12.278,12.712-32.536,13.064-45.248,0.786
	s-13.064-32.536-0.786-45.248c0.257-0.267,0.52-0.529,0.786-0.786l9.365-9.387h-39.808l0.213,156.373
	c-0.003,5.702,2.426,11.134,6.677,14.933c12.011,12.781,28.632,20.231,46.165,20.693h256c5.891,0,10.667-4.776,10.667-10.667V10.674
	C448.004,4.783,443.228,0.007,437.337,0.007z"/>
<path style="fill:#607D8B;" d="M444.612,0.007c-6.243-0.009-12.422,1.262-18.155,3.733L305.262,55.666
	c-16.951,7.247-27.94,23.912-27.925,42.347v367.936c0.002,25.438,20.626,46.057,46.063,46.054c6.24-0.001,12.415-1.269,18.15-3.729
	l121.216-51.947c16.935-7.251,27.913-23.903,27.904-42.325V46.066C490.635,20.643,470.035,0.043,444.612,0.007z"/>
<path style="fill:#455A64;" d="M330.67,298.674c-5.891,0-10.667-4.776-10.667-10.667v-42.667c0-5.891,4.776-10.667,10.667-10.667
	s10.667,4.776,10.667,10.667v42.667C341.337,293.898,336.561,298.674,330.67,298.674z"/>
<path style="fill:#FFC107;" d="M255.193,228.082c1.649-3.989,0.731-8.579-2.325-11.627l-64-64
	c-4.237-4.092-10.99-3.975-15.083,0.262c-3.992,4.134-3.992,10.687,0,14.82l45.803,45.803H32.004
	c-5.891,0-10.667,4.776-10.667,10.667s4.776,10.667,10.667,10.667h187.584l-45.803,45.781c-4.237,4.092-4.355,10.845-0.262,15.083
	c4.092,4.237,10.845,4.355,15.083,0.262c0.089-0.086,0.176-0.173,0.262-0.262l64-64C253.862,230.55,254.653,229.376,255.193,228.082
	z"/>
<path d="M288.004,448.007H181.337c-17.536-0.468-34.158-7.926-46.165-20.715c-4.252-3.799-6.681-9.232-6.677-14.933l-0.491-124.352
	c0-5.891,4.776-10.667,10.667-10.667l0,0c5.891,0,10.667,4.776,10.667,10.667l0.448,123.733
	c8.043,9.069,19.439,14.463,31.552,14.933h106.667c5.891,0,10.667,4.776,10.667,10.667S293.895,448.007,288.004,448.007z
	 M149.785,412.509v0.789C149.816,413.036,149.816,412.771,149.785,412.509z"/>
<path d="M138.67,170.674c-5.891,0-10.667-4.776-10.667-10.667V53.341c0-29.455,23.878-53.333,53.333-53.333h256
	c5.891,0,10.667,4.776,10.667,10.667s-4.776,10.667-10.667,10.667h-256c-17.673,0-32,14.327-32,32v106.667
	C149.337,165.898,144.561,170.674,138.67,170.674z"/>
<path d="M330.67,298.674c-5.891,0-10.667-4.776-10.667-10.667v-42.667c0-5.891,4.776-10.667,10.667-10.667
	s10.667,4.776,10.667,10.667v42.667C341.337,293.898,336.561,298.674,330.67,298.674z"/>
<path d="M245.337,234.674H32.004c-5.891,0-10.667-4.776-10.667-10.667s4.776-10.667,10.667-10.667h213.333
	c5.891,0,10.667,4.776,10.667,10.667S251.228,234.674,245.337,234.674z"/>
<path d="M181.337,298.674c-5.891,0.011-10.675-4.757-10.686-10.648c-0.005-2.84,1.123-5.565,3.134-7.571l56.469-56.448
	l-56.469-56.448c-4.092-4.237-3.975-10.99,0.262-15.083c4.134-3.992,10.687-3.992,14.82,0l64,64c4.164,4.165,4.164,10.917,0,15.083
	l-64,64C186.869,297.553,184.161,298.673,181.337,298.674z"/>
<path d="M323.396,512.007c-25.423-0.035-46.023-20.636-46.059-46.059V98.013c-0.014-18.435,10.975-35.099,27.925-42.347
	L426.457,3.741c23.378-10.027,50.458,0.797,60.484,24.175c2.46,5.735,3.728,11.91,3.729,18.15v367.936
	c0.014,18.435-10.975,35.099-27.925,42.347L341.55,508.274C335.817,510.746,329.639,512.016,323.396,512.007z M444.612,21.341
	c-3.346-0.008-6.658,0.675-9.728,2.005l-121.28,51.925c-9.076,3.914-14.948,12.857-14.933,22.741v367.936
	c0.023,13.646,11.08,24.702,24.725,24.725c3.346,0.008,6.658-0.675,9.728-2.005l121.28-51.925
	c9.076-3.914,14.948-12.858,14.933-22.741V46.066C469.314,32.42,458.257,21.364,444.612,21.341z"/>
<g>
</g>
<g>
</g>
<g>
</g>
<g>
</g>
<g>
</g>
<g>
</g>
<g>
</g>
<g>
</g>
<g>
</g>
<g>
</g>
<g>
</g>
<g>
</g>
<g>
</g>
<g>
</g>
<g>
</g>
</svg>
