<?xml version="1.0" encoding="iso-8859-1"?>
<!-- Generator: Adobe Illustrator 19.0.0, SVG Export Plug-In . SVG Version: 6.00 Build 0)  -->
<svg xmlns="http://www.w3.org/2000/svg" xmlns:xlink="http://www.w3.org/1999/xlink" version="1.1" id="Capa_1" x="0px" y="0px" viewBox="0 0 512.002 512.002" style="enable-background:new 0 0 512.002 512.002;" xml:space="preserve">
<circle style="fill:#2BBA68;" cx="256.003" cy="225.352" r="78.14"/>
<circle style="fill:#F25353;" cx="256.003" cy="437.243" r="62"/>
<path style="fill:#12ADDD;" d="M41.028,172.97C11.379,155.852,1.22,117.94,18.338,88.29s55.03-39.808,84.679-22.69  s39.808,55.03,22.69,84.679S70.677,190.088,41.028,172.97z"/>
<circle style="fill:#F4B831;" cx="440.024" cy="119.532" r="61.99"/>
<path d="M255.921,137.199c-0.008,0-0.016,0-0.024,0c-5.511,0-9.986,4.462-9.999,9.977c-0.013,5.523,4.454,10.01,9.977,10.023h0.208  c0.008,0,0.016,0,0.024,0c5.512,0,9.986-4.462,9.999-9.977c0.013-5.523-4.454-10.01-9.977-10.023H255.921z"/>
<path d="M468.032,215.351c-5.522,0-10,4.477-10,10c0,78.109-45.749,149.95-116.553,183.021c-5.004,2.337-7.165,8.289-4.828,13.292  c1.698,3.635,5.303,5.771,9.067,5.771c1.417,0,2.856-0.303,4.226-0.942c37.722-17.62,69.677-45.433,92.409-80.43  c23.342-35.935,35.679-77.676,35.679-120.712C478.032,219.828,473.554,215.351,468.032,215.351z"/>
<path d="M168.934,407.484C99.271,374.064,54.258,302.573,54.258,225.351c0-5.523-4.478-10-10-10s-10,4.477-10,10  c0,42.634,12.125,84.046,35.063,119.761c22.33,34.766,53.784,62.569,90.962,80.404c1.395,0.669,2.868,0.986,4.318,0.986  c3.727,0,7.304-2.093,9.023-5.677C176.014,415.846,173.913,409.873,168.934,407.484z"/>
<path d="M145.78,53.747c1.777,0,3.579-0.475,5.207-1.47c31.578-19.309,67.941-29.514,105.158-29.514  c36.65,0,72.538,9.917,103.782,28.68c4.736,2.845,10.877,1.31,13.722-3.424c2.843-4.735,1.31-10.878-3.425-13.721  c-34.354-20.63-73.801-31.534-114.079-31.534c-40.899,0-80.869,11.221-115.592,32.451c-4.712,2.881-6.195,9.036-3.314,13.748  C139.123,52.046,142.411,53.747,145.78,53.747z"/>
<path d="M502.371,83.535c-19.847-34.376-63.961-46.197-98.341-26.35c-31.372,18.113-43.944,56.432-30.82,89.122l-46.449,26.555  c-7.606-10.276-17.492-18.951-29.19-25.23c-4.87-2.613-10.93-0.785-13.54,4.082c-2.612,4.866-0.785,10.929,4.081,13.541  c11.067,5.94,20.039,14.65,26.245,25.011c0.14,0.317,0.296,0.631,0.472,0.938c0.156,0.272,0.337,0.52,0.514,0.771  c5.585,9.97,8.665,21.361,8.665,33.229c0,37.498-30.507,68.004-68.005,68.004c-37.497,0-68.004-30.507-68.004-68.004  c0-11.931,3.063-23.308,8.625-33.25c0.177-0.25,0.358-0.495,0.514-0.765c0.181-0.313,0.341-0.633,0.485-0.957  c6.508-10.864,16.067-19.89,27.938-25.845c4.937-2.476,6.932-8.485,4.455-13.422s-8.486-6.933-13.422-4.455  c-12.657,6.348-23.279,15.4-31.341,26.254l-46.356-26.809c5.757-14.349,6.735-30.101,2.663-45.302  c-4.977-18.574-16.889-34.098-33.542-43.712C73.637,37.091,29.523,48.913,9.676,83.29c-9.615,16.653-12.169,36.053-7.191,54.627  c4.977,18.574,16.889,34.098,33.542,43.712c11.093,6.405,23.402,9.676,35.877,9.676c6.253,0,12.549-0.822,18.75-2.484  c15.426-4.133,28.734-13.062,38.314-25.505l46.275,26.762c-4.705,10.859-7.248,22.761-7.248,35.123  c0,45.144,34.17,82.452,78.004,87.434v53.311c-34.983,4.885-62,34.984-62,71.29c0,39.701,32.299,72,72,72s72-32.299,72-72  c0-36.306-27.017-66.405-62-71.29v-53.311c43.834-4.981,78.005-42.288,78.005-87.434c0-12.274-2.546-24.153-7.255-35.015  l46.392-26.523c13.904,17.945,35.203,27.842,57.001,27.841c12.204,0,24.566-3.102,35.874-9.63  C510.399,162.028,522.219,117.913,502.371,83.535z M85.479,169.504c-13.416,3.594-27.424,1.75-39.45-5.194  c-12.027-6.943-20.63-18.155-24.224-31.568c-3.595-13.414-1.75-27.424,5.193-39.451c9.619-16.661,27.13-25.985,45.112-25.985  c8.813,0,17.741,2.241,25.907,6.955c12.026,6.944,20.629,18.155,24.224,31.568c3.594,13.414,1.749,27.424-5.194,39.451  C110.104,157.307,98.893,165.91,85.479,169.504z M308.003,437.238c0,28.673-23.327,52-52,52c-28.673,0-52-23.327-52-52  c0-28.673,23.327-52,52-52C284.675,385.238,308.003,408.565,308.003,437.238z M466.022,164.556  c-24.824,14.333-56.686,5.797-71.02-19.03c-14.333-24.826-5.797-56.686,19.029-71.019c24.828-14.334,56.688-5.795,71.02,19.029  C499.384,118.362,490.848,150.222,466.022,164.556z"/>
<g>
</g>
<g>
</g>
<g>
</g>
<g>
</g>
<g>
</g>
<g>
</g>
<g>
</g>
<g>
</g>
<g>
</g>
<g>
</g>
<g>
</g>
<g>
</g>
<g>
</g>
<g>
</g>
<g>
</g>
</svg>
