<?xml version="1.0" encoding="iso-8859-1"?>
<!-- Generator: Adobe Illustrator 19.0.0, SVG Export Plug-In . SVG Version: 6.00 Build 0)  -->
<svg xmlns="http://www.w3.org/2000/svg" xmlns:xlink="http://www.w3.org/1999/xlink" version="1.1" id="Capa_1" x="0px" y="0px" viewBox="0 0 511.999 511.999" style="enable-background:new 0 0 511.999 511.999;" xml:space="preserve">
<path style="fill:#12ADDD;" d="M428.084,348.886l9.566,9.566c21.835,21.835,21.835,57.362,0,79.197  c-21.835,21.835-57.362,21.835-79.197,0L241.07,320.267l-33.942,33.942l117.382,117.382c40.551,40.551,106.531,40.551,147.081,0  c40.55-40.551,40.551-106.531,0-147.081l-9.566-9.566L428.084,348.886z"/>
<path style="fill:#F4B831;" d="M348.886,83.916l9.566-9.566c21.835-21.835,57.362-21.835,79.197,0s21.835,57.362,0,79.197  L320.268,270.929l33.942,33.942l117.382-117.382c40.551-40.551,40.551-106.531,0-147.081s-106.531-40.551-147.081,0l-9.566,9.566  L348.886,83.916z"/>
<path style="fill:#2BBA68;" d="M270.929,191.731L153.547,74.349c-21.835-21.835-57.362-21.835-79.197,0s-21.835,57.362,0,79.197  l9.566,9.566l-33.942,33.942l-9.566-9.566c-40.551-40.551-40.551-106.531,0-147.081s106.531-40.551,147.081,0L304.87,157.789  L270.929,191.731z"/>
<path style="fill:#F25353;" d="M163.114,428.083l-9.566,9.566c-21.835,21.835-57.362,21.835-79.197,0  c-21.835-21.835-21.835-57.362,0-79.197L191.732,241.07l-33.942-33.942L40.409,324.51c-40.551,40.551-40.551,106.531,0,147.081  c40.551,40.55,106.531,40.551,147.081,0l9.566-9.566L163.114,428.083z"/>
<path d="M398.051,511.999c-29.194,0-58.387-11.112-80.611-33.337L234,395.223c-3.906-3.905-3.906-10.237,0-14.142  c3.905-3.905,10.238-3.906,14.142,0l83.44,83.44c36.65,36.651,96.287,36.651,132.938,0c36.651-36.651,36.651-96.287,0-132.938  l-2.495-2.495l-19.799,19.799l2.495,2.495c12.449,12.449,19.305,29.024,19.305,46.67s-6.856,34.221-19.306,46.67  c-12.449,12.449-29.023,19.305-46.669,19.305s-34.221-6.856-46.67-19.305L233.999,327.339c-3.906-3.905-3.906-10.237,0-14.143  c3.905-3.904,10.238-3.905,14.142,0l117.382,117.381c8.672,8.672,20.224,13.447,32.528,13.447s23.855-4.775,32.527-13.447  c8.672-8.672,13.448-20.223,13.448-32.528s-4.776-23.855-13.448-32.528l-9.566-9.566c-3.905-3.905-3.905-10.237,0-14.143  l33.942-33.942c1.875-1.875,4.419-2.929,7.071-2.929c2.652,0,5.196,1.054,7.071,2.929l9.566,9.566  c44.449,44.449,44.449,116.773,0,161.223C456.438,500.888,427.245,511.999,398.051,511.999z"/>
<path d="M354.209,314.87c-2.559,0-5.119-0.976-7.071-2.929c-3.905-3.905-3.905-10.237,0-14.143L464.52,180.416  c36.651-36.651,36.651-96.287,0-132.938c-36.651-36.65-96.287-36.65-132.938,0l-2.496,2.495l19.799,19.799l2.495-2.495  c12.449-12.449,29.024-19.305,46.67-19.305s34.221,6.856,46.67,19.306c12.449,12.449,19.305,29.023,19.305,46.669  s-6.856,34.221-19.305,46.67L327.339,277.999c-3.905,3.905-10.237,3.905-14.143,0c-3.905-3.905-3.905-10.237,0-14.143  l117.381-117.381c8.672-8.672,13.448-20.224,13.448-32.528s-4.776-23.855-13.447-32.527c-8.672-8.672-20.223-13.448-32.528-13.448  s-23.855,4.776-32.528,13.448l-9.565,9.566c-3.905,3.905-10.238,3.905-14.142,0l-33.943-33.942  c-1.875-1.875-2.929-4.419-2.929-7.071c0-2.652,1.054-5.196,2.929-7.071l9.566-9.566c44.449-44.449,116.774-44.448,161.223,0  c44.45,44.45,44.45,116.774,0,161.223L361.279,311.941C359.328,313.894,356.768,314.87,354.209,314.87z"/>
<path d="M49.974,207.055c-2.652,0-5.196-1.054-7.071-2.929l-9.566-9.566c-44.449-44.449-44.449-116.773,0-161.223  c44.451-44.45,116.774-44.449,161.224,0l88.301,88.301c3.905,3.905,3.905,10.237,0,14.143c-3.905,3.905-10.237,3.905-14.143,0  l-88.301-88.301c-36.65-36.651-96.287-36.651-132.938,0c-36.651,36.651-36.651,96.287,0,132.938l2.495,2.495l19.799-19.799  l-2.495-2.495c-12.449-12.449-19.305-29.024-19.305-46.67s6.856-34.221,19.306-46.67c12.449-12.449,29.023-19.305,46.669-19.305  s34.221,6.856,46.67,19.305l117.381,117.381c3.906,3.905,3.906,10.237,0,14.143c-3.905,3.904-10.238,3.905-14.142,0L146.477,81.421  c-8.672-8.672-20.224-13.447-32.528-13.447s-23.855,4.775-32.528,13.447s-13.448,20.223-13.448,32.528s4.776,23.855,13.448,32.528  l9.566,9.566c3.905,3.905,3.905,10.237,0,14.143l-33.942,33.942C55.17,206.001,52.626,207.055,49.974,207.055z"/>
<path d="M113.949,511.999c-29.198,0.003-58.384-11.109-80.611-33.337c-44.45-44.45-44.45-116.774,0-161.223L150.72,200.057  c3.905-3.905,10.237-3.905,14.143,0c3.905,3.905,3.905,10.237,0,14.143L47.481,331.583c-36.651,36.651-36.651,96.287,0,132.938  c36.651,36.65,96.287,36.65,132.938,0l2.496-2.495l-19.799-19.799l-2.495,2.495c-12.449,12.449-29.024,19.305-46.67,19.305  s-34.221-6.856-46.67-19.306c-12.449-12.449-19.305-29.023-19.305-46.669s6.856-34.221,19.305-46.67L184.662,234  c3.905-3.905,10.237-3.905,14.143,0c3.905,3.905,3.905,10.237,0,14.143L81.421,365.523c-8.672,8.672-13.448,20.224-13.448,32.528  s4.776,23.855,13.447,32.527c8.672,8.672,20.223,13.448,32.528,13.448s23.855-4.776,32.528-13.448l9.565-9.566  c3.905-3.905,10.238-3.905,14.142,0l33.943,33.942c1.875,1.875,2.929,4.419,2.929,7.071c0,2.652-1.054,5.196-2.929,7.071  l-9.566,9.566C172.338,500.885,143.139,511.997,113.949,511.999z"/>
<path d="M304.87,167.788c-2.63,0-5.21-1.07-7.07-2.93s-2.93-4.44-2.93-7.07s1.07-5.21,2.93-7.07c1.86-1.86,4.44-2.93,7.07-2.93  c2.63,0,5.21,1.07,7.07,2.93s2.93,4.44,2.93,7.07s-1.07,5.21-2.93,7.07C310.08,166.718,307.5,167.788,304.87,167.788z"/>
<path d="M208.427,365.507c-2.559,0-5.119-0.976-7.071-2.929l-1.298-1.298c-3.905-3.905-3.905-10.237,0-14.143  c3.905-3.905,10.237-3.905,14.143,0l1.298,1.298c3.905,3.905,3.905,10.237,0,14.143  C213.546,364.531,210.986,365.507,208.427,365.507z"/>
<g>
</g>
<g>
</g>
<g>
</g>
<g>
</g>
<g>
</g>
<g>
</g>
<g>
</g>
<g>
</g>
<g>
</g>
<g>
</g>
<g>
</g>
<g>
</g>
<g>
</g>
<g>
</g>
<g>
</g>
</svg>
