<?xml version="1.0" encoding="iso-8859-1"?>
<!-- Generator: Adobe Illustrator 19.0.0, SVG Export Plug-In . SVG Version: 6.00 Build 0)  -->
<svg xmlns="http://www.w3.org/2000/svg" xmlns:xlink="http://www.w3.org/1999/xlink" version="1.1" id="Capa_1" x="0px" y="0px" viewBox="0 0 512 512" style="enable-background:new 0 0 512 512;" xml:space="preserve">
<circle style="fill:#F4B831;" cx="174.21" cy="198.757" r="23.997"/>
<circle style="fill:#F25353;" cx="109.867" cy="133.635" r="23.997"/>
<circle style="fill:#2BBA68;" cx="58.543" cy="81.131" r="23.997"/>
<path d="M281.679,205.831c13.408,13.408,20.794,31.236,20.794,50.199c0,18.963-7.385,36.79-20.794,50.199  c-13.409,13.409-31.235,20.793-50.198,20.793c-5.521,0-9.999,4.476-9.999,9.999c0,5.522,4.477,9.999,9.999,9.999  c24.304,0,47.153-9.464,64.34-26.65c35.476-35.477,35.476-93.202,0-128.679c-26.498-26.496-66.127-33.925-100.183-19.3  c-5.851-4.763-13.309-7.626-21.426-7.626c-18.746,0-33.996,15.25-33.996,33.996s15.25,33.996,33.996,33.996  s33.996-15.25,33.996-33.996c0-3.242-0.466-6.375-1.317-9.347C232.668,179.867,261.874,186.025,281.679,205.831z M174.211,212.758  c-7.719,0-13.998-6.279-13.998-13.998s6.279-13.998,13.998-13.998s13.998,6.279,13.998,13.998S181.93,212.758,174.211,212.758z"/>
<path d="M231.324,438.008c0.054,0,0.104,0,0.158,0c48.608,0,94.301-18.926,128.675-53.3c34.371-34.371,53.301-80.071,53.301-128.679  s-18.929-94.307-53.3-128.679c-30.813-30.813-71.684-49.562-115.086-52.795c-41.174-3.064-82.157,7.938-116.018,31.03  c-5.464-3.749-12.071-5.948-19.184-5.948c-18.746,0-33.996,15.25-33.996,33.996s15.25,33.996,33.996,33.996  s33.996-15.25,33.996-33.996c0-4.357-0.833-8.52-2.333-12.352c64.215-43.078,149.274-35,204.483,20.209  c30.596,30.595,47.444,71.271,47.444,114.538s-16.849,83.944-47.444,114.538c-30.6,30.6-71.266,47.444-114.536,47.444  c-0.048,0-0.098-0.004-0.148,0c-5.518,0-9.994,4.471-9.999,9.991C221.329,433.524,225.803,438.003,231.324,438.008z   M109.872,147.631c-7.719,0-13.998-6.279-13.998-13.998c0-7.719,6.279-13.998,13.998-13.998s13.998,6.279,13.998,13.998  C123.87,141.352,117.59,147.631,109.872,147.631z"/>
<path d="M412.479,75.03C321.724-15.725,178.05-25.174,76.505,52.285c-5.215-3.26-11.37-5.15-17.96-5.15  c-18.746,0-33.996,15.25-33.996,33.996s15.25,33.996,33.996,33.996s33.996-15.25,33.996-33.996c0-4.881-1.042-9.521-2.903-13.721  c93.539-70.566,225.335-61.604,308.7,21.762c44.57,44.569,69.115,103.827,69.115,166.858s-24.545,122.289-69.115,166.858  c-44.569,44.57-103.827,69.115-166.859,69.115c-5.521,0-9.999,4.477-9.999,9.999c0,5.522,4.477,9.999,9.999,9.999  c68.373,0,132.654-26.625,181.001-74.972s74.972-112.627,74.972-180.999C487.451,187.657,460.825,123.377,412.479,75.03z   M58.545,95.129c-7.719,0-13.998-6.279-13.998-13.998s6.279-13.998,13.998-13.998s13.998,6.279,13.998,13.998  S66.263,95.129,58.545,95.129z"/>
<path d="M180.488,326.741c-2.64,0-5.209,1.07-7.068,2.93c-1.86,1.86-2.931,4.429-2.931,7.069c0,2.63,1.07,5.209,2.931,7.069  c1.859,1.86,4.429,2.93,7.068,2.93c2.63,0,5.209-1.07,7.069-2.93s2.93-4.439,2.93-7.069c0-2.64-1.069-5.209-2.93-7.069  S183.117,326.741,180.488,326.741z"/>
<path d="M180.488,418.011c-2.64,0-5.209,1.07-7.068,2.93c-1.86,1.86-2.931,4.44-2.931,7.069s1.07,5.209,2.931,7.069  c1.859,1.86,4.438,2.93,7.068,2.93c2.63,0,5.209-1.07,7.069-2.93c1.86-1.86,2.93-4.44,2.93-7.069s-1.069-5.209-2.93-7.069  C185.697,419.08,183.117,418.011,180.488,418.011z"/>
<path d="M180.488,492.002c-2.64,0-5.209,1.07-7.068,2.93c-1.86,1.86-2.931,4.44-2.931,7.069s1.07,5.209,2.931,7.069  c1.859,1.86,4.429,2.93,7.068,2.93c2.63,0,5.209-1.07,7.069-2.93s2.93-4.44,2.93-7.069s-1.069-5.209-2.93-7.069  C185.697,493.072,183.117,492.002,180.488,492.002z"/>
<g>
</g>
<g>
</g>
<g>
</g>
<g>
</g>
<g>
</g>
<g>
</g>
<g>
</g>
<g>
</g>
<g>
</g>
<g>
</g>
<g>
</g>
<g>
</g>
<g>
</g>
<g>
</g>
<g>
</g>
</svg>
