<?xml version="1.0" encoding="iso-8859-1"?>
<!-- Generator: Adobe Illustrator 19.0.0, SVG Export Plug-In . SVG Version: 6.00 Build 0)  -->
<svg xmlns="http://www.w3.org/2000/svg" xmlns:xlink="http://www.w3.org/1999/xlink" version="1.1" id="Capa_1" x="0px" y="0px" viewBox="0 0 512.003 512.003" style="enable-background:new 0 0 512.003 512.003;" xml:space="preserve">
<circle style="fill:#12ADDD;" cx="255.969" cy="404.929" r="70.005"/>
<circle style="fill:#F25353;" cx="79.969" cy="404.929" r="70.005"/>
<circle style="fill:#F4B831;" cx="431.992" cy="404.929" r="70.005"/>
<path d="M382.421,365.651c2.571,0,5.143-0.986,7.098-2.955l0.132-0.133c3.891-3.919,3.867-10.252-0.052-14.143  c-3.919-3.89-10.251-3.868-14.143,0.052l-0.132,0.133c-3.891,3.919-3.867,10.252,0.052,14.143  C377.327,364.684,379.874,365.651,382.421,365.651z"/>
<path d="M488.566,348.513c-11.677-11.677-26.241-19.192-41.738-22.106v-97.492c0-5.523-4.477-10.001-10.001-10.001H265.995V61.058  l37.033,37.034c1.953,1.952,4.512,2.929,7.072,2.929c2.559,0,5.119-0.977,7.072-2.929c3.905-3.905,3.905-10.238,0-14.144  L263.052,29.83c-3.905-3.904-10.238-3.904-14.144,0L194.79,83.948c-3.905,3.905-3.905,10.238,0,14.144  c3.905,3.904,10.238,3.904,14.144,0l37.059-37.059v157.882H75.135c-5.523,0-10.001,4.477-10.001,10.001v97.382  c-15.535,2.928-30.132,10.446-41.738,22.052c-31.195,31.196-31.195,81.956,0,113.152c15.598,15.597,36.087,23.397,56.575,23.397  s40.978-7.799,56.576-23.397c21.54-21.54,28.953-52.895,19.347-81.83c-1.74-5.241-7.401-8.081-12.642-6.34  c-5.242,1.74-8.082,7.4-6.34,12.642c7.207,21.709,1.647,45.23-14.508,61.386c-11.7,11.7-27.064,17.549-42.433,17.547  c-15.365-0.001-30.734-5.85-42.432-17.547c-23.398-23.398-23.398-61.468,0-84.864c15.659-15.658,38.576-21.408,59.804-15.009  c5.288,1.595,10.868-1.4,12.462-6.688c1.594-5.288-1.401-10.868-6.689-12.461c-5.931-1.788-11.962-2.855-17.98-3.247v-86.169  h160.857v86.653c-39.41,4.939-70.005,38.632-70.005,79.359c0,44.115,35.891,80.006,80.006,80.006s80.006-35.891,80.006-80.006  c0-40.727-30.595-74.419-70.005-79.359v-86.653h160.831v86.304c-6.726,0.451-13.471,1.747-20.09,3.944  c-5.242,1.74-8.081,7.4-6.34,12.642c1.74,5.241,7.401,8.084,12.642,6.34c21.711-7.206,45.231-1.647,61.386,14.508  C485.758,373.992,492,389.061,492,405.09s-6.242,31.098-17.576,42.433c-11.334,11.334-26.403,17.576-42.432,17.576  s-31.098-6.242-42.432-17.576c-15.658-15.657-21.41-38.573-15.009-59.804c1.594-5.288-1.4-10.868-6.688-12.462  s-10.868,1.4-12.461,6.688c-8.53,28.297-0.86,58.844,20.015,79.721c15.112,15.111,35.205,23.435,56.576,23.435  s41.463-8.323,56.575-23.435c15.111-15.112,23.435-35.205,23.435-56.576C512,383.717,503.677,363.624,488.566,348.513z   M315.998,404.928c0,33.086-26.918,60.004-60.004,60.004s-60.004-26.918-60.004-60.004s26.918-60.004,60.004-60.004  S315.998,371.842,315.998,404.928z"/>
<path d="M122.326,348.296c-3.898,3.913-3.886,10.245,0.026,14.143l0.132,0.132c1.952,1.945,4.505,2.916,7.059,2.916  c2.565,0,5.13-0.981,7.085-2.942c3.898-3.913,3.886-10.245-0.026-14.143l-0.132-0.132  C132.557,344.372,126.224,344.385,122.326,348.296z"/>
<g>
</g>
<g>
</g>
<g>
</g>
<g>
</g>
<g>
</g>
<g>
</g>
<g>
</g>
<g>
</g>
<g>
</g>
<g>
</g>
<g>
</g>
<g>
</g>
<g>
</g>
<g>
</g>
<g>
</g>
</svg>
