<?xml version="1.0" encoding="iso-8859-1"?>
<!-- Generator: Adobe Illustrator 19.0.0, SVG Export Plug-In . SVG Version: 6.00 Build 0)  -->
<svg xmlns="http://www.w3.org/2000/svg" xmlns:xlink="http://www.w3.org/1999/xlink" version="1.1" id="Capa_1" x="0px" y="0px" viewBox="0 0 512 512" style="enable-background:new 0 0 512 512;" xml:space="preserve">
<polygon style="fill:#FBF6A2;" points="502.003,305.828 256.099,63.983 256.001,448.017 "/>
<polygon style="fill:#F4B831;" points="424.293,229.4 256.032,326.656 256.063,205.71 346.849,153.235 "/>
<polygon style="fill:#F67B37;" points="424.56,229.663 502.003,305.828 256.001,448.017 256.032,327.072 "/>
<polygon style="fill:#BEE9F4;" points="10.001,305.828 255.905,63.983 256.003,448.017 "/>
<polygon style="fill:#41C0F0;" points="87.711,229.4 255.972,326.656 255.941,205.71 165.155,153.235 "/>
<polygon style="fill:#0D93D6;" points="87.444,229.288 10.001,305.453 256.003,447.642 255.972,326.697 "/>
<path d="M509.012,298.703L263.853,57.584c-0.068,0.042-0.132,0.075-0.198,0.115c-1.019-1.257-2.329-2.288-3.886-2.94  c-3.716-1.557-8.005-0.732-10.877,2.094L2.988,298.697c-2.226,2.19-3.302,5.295-2.908,8.393s2.212,5.834,4.917,7.397  l246.002,142.189c1.548,0.895,3.276,1.342,5.005,1.342c1.726,0,3.452-0.446,5-1.339c0.169-0.097,0.32-0.216,0.481-0.322  c0.003,0.007,0.005,0.012,0.008,0.019l245.512-141.884c2.703-1.563,4.523-4.299,4.917-7.397  C512.314,303.997,511.238,300.892,509.012,298.703z M265.968,309.772l-0.026-102.554c0.074-0.697,0.071-1.395,0-2.085l-0.03-117.469  l64.814,63.747l-38.452,22.225c-4.782,2.764-6.418,8.881-3.654,13.664c1.853,3.206,5.213,4.998,8.668,4.998  c1.698,0,3.419-0.433,4.996-1.344l43.238-24.991l62.65,61.616L265.968,309.772z M245.935,188.783l-64.661-37.374l64.635-63.568  L245.935,188.783z M26.383,303.745l140.095-137.784l79.462,45.929l0.025,97.843l-82.091-47.442  c-4.782-2.763-10.899-1.127-13.664,3.654c-2.763,4.783-1.127,10.9,3.655,13.664l92.107,53.231l0.025,97.841L26.383,303.745z   M265.999,430.689l-0.025-97.815l156.991-90.741l62.651,61.618L265.999,430.689z"/>
<path d="M125.715,241.779c-2.64,0-5.211,1.07-7.071,2.93c-1.87,1.86-2.93,4.441-2.93,7.071s1.06,5.211,2.93,7.071  c1.86,1.86,4.431,2.93,7.071,2.93c2.63,0,5.211-1.07,7.071-2.93c1.86-1.86,2.93-4.441,2.93-7.071s-1.07-5.211-2.93-7.071  C130.926,242.849,128.346,241.779,125.715,241.779z"/>
<g>
</g>
<g>
</g>
<g>
</g>
<g>
</g>
<g>
</g>
<g>
</g>
<g>
</g>
<g>
</g>
<g>
</g>
<g>
</g>
<g>
</g>
<g>
</g>
<g>
</g>
<g>
</g>
<g>
</g>
</svg>
