<?xml version="1.0" encoding="iso-8859-1"?>
<!-- Generator: Adobe Illustrator 19.0.0, SVG Export Plug-In . SVG Version: 6.00 Build 0)  -->
<svg xmlns="http://www.w3.org/2000/svg" xmlns:xlink="http://www.w3.org/1999/xlink" version="1.1" id="Capa_1" x="0px" y="0px" viewBox="0 0 512 512" style="enable-background:new 0 0 512 512;" xml:space="preserve">
<rect x="10" y="10" style="fill:#BEE9F4;" width="492" height="492"/>
<path style="fill:#0D93D6;" d="M10,358.999c52,0,41-79.249,82-79.249c42.224,0,26.803,104.25,82,104.25s29.872-143.513,82-143.513  c46,0,38.946,113.011,82,113.011c48,0,35-205.512,82-205.512c46,0,31,105.034,82.232,105.034L502,502H10V358.999z"/>
<path d="M512,10c0-5.522-4.478-10-10-10H10C4.478,0,0,4.478,0,10v492c0,5.522,4.478,10,10,10h492c5.522,0,10-4.478,10-10V10z   M184,430h62v62h-62V430z M164,492h-62v-62h62V492z M266,430h62v62h-62V430z M348,430h62v62h-62V430z M348,410v-18  c0-5.522-4.478-10-10-10s-10,4.478-10,10v18h-62v-77.667c0-5.522-4.478-10-10-10s-10,4.478-10,10V410H102v-18  c0-5.522-4.478-10-10-10s-10,4.478-10,10v18H20v-41.878c26.541-4.792,37.146-28.637,45.834-48.214  C74.133,301.21,79.836,289.75,92,289.75c11.534,0,17.118,15.077,24.944,39.909C125.979,358.325,137.223,394,174,394  c36.213,0,44.741-43.224,52.266-81.36c7.181-36.392,13.517-62.152,29.734-62.152c16.159,0,24.76,25.954,33.077,51.054  c4.671,14.096,9.502,28.673,16.101,39.893c8.612,14.641,19.655,22.064,32.822,22.064c25.268,0,35.811-32.901,42.792-65.086  c1.171-5.397-2.255-10.722-7.652-11.893c-5.4-1.174-10.722,2.256-11.893,7.652c-9.31,42.918-18.562,49.326-23.247,49.326  c-13.949,0-22.077-24.528-29.938-48.249c-10.06-30.355-21.461-64.762-52.063-64.762c-15.694,0-27.785,9.356-35.938,27.809  c-6.252,14.15-9.896,32.615-13.419,50.473C199.108,346.964,192.355,374,174,374c-20.572,0-28.395-19.937-37.98-50.353  c-7.962-25.264-16.986-53.897-44.02-53.897c-25.786,0-35.699,22.337-44.446,42.044c-8.32,18.745-14.923,31.524-27.554,35.71V184h62  v56c0,5.522,4.478,10,10,10s10-4.478,10-10v-56h62v72c0,5.522,4.478,10,10,10s10-4.478,10-10v-72h62v13.988c0,5.522,4.478,10,10,10  s10-4.478,10-10V184h66c5.522,0,10-4.478,10-10s-4.478-10-10-10h-66v-62h62v26c0,5.522,4.478,10,10,10s10-4.478,10-10v-26h62v4.739  c0,5.522,4.478,10,10,10s10-4.478,10-10V102h62v62h-18c-5.522,0-10,4.478-10,10s4.478,10,10,10h18v56.502  c-10.684-5.919-16.595-21.984-23.998-45.161c-8.586-26.884-18.317-57.354-48.002-57.354c-27.674,0-37.649,40.602-44.828,78.658  c-1.023,5.427,2.547,10.656,7.974,11.681c5.43,1.024,10.656-2.547,11.681-7.974c9.722-51.546,19.056-62.365,25.174-62.365  c14.063,0,20.318,16.411,28.95,43.438c7.805,24.439,17.326,54.178,43.05,60.4V328h-62v-62.007c0-5.522-4.478-10-10-10  s-10,4.478-10,10V328h-17c-5.522,0-10,4.478-10,10s4.478,10,10,10h17v62H348z M328,82h-62V20h62V82z M348,20h62v62h-62V20z M246,82  h-62V20h62V82z M246,102v62h-62v-62H246z M164,82h-62V20h62V82z M164,102v62h-62v-62H164z M82,164H20v-62h62V164z M430,348h62v62  h-62V348z M492,82h-62V20h62V82z M82,20v62H20V20H82z M20,430h62v62H20V430z M430,492v-62h62v62H430z"/>
<path d="M388.162,258.791l0.188-1.114c0.926-5.444-2.737-10.609-8.182-11.535c-5.444-0.929-10.608,2.737-11.535,8.182l-0.195,1.155  c-0.914,5.446,2.76,10.604,8.206,11.519c0.561,0.094,1.118,0.14,1.668,0.14C383.106,267.137,387.341,263.677,388.162,258.791z"/>
<g>
</g>
<g>
</g>
<g>
</g>
<g>
</g>
<g>
</g>
<g>
</g>
<g>
</g>
<g>
</g>
<g>
</g>
<g>
</g>
<g>
</g>
<g>
</g>
<g>
</g>
<g>
</g>
<g>
</g>
</svg>
