<?xml version="1.0" encoding="iso-8859-1"?>
<!-- Generator: Adobe Illustrator 19.0.0, SVG Export Plug-In . SVG Version: 6.00 Build 0)  -->
<svg xmlns="http://www.w3.org/2000/svg" xmlns:xlink="http://www.w3.org/1999/xlink" version="1.1" id="Capa_1" x="0px" y="0px" viewBox="0 0 512 512" style="enable-background:new 0 0 512 512;" xml:space="preserve">
<polygon style="fill:#2BBA68;" points="212,350 162,350 162,300 114,300 114,350 64,350 64,398 114,398 114,448 162,448 162,398   212,398 "/>
<polygon style="fill:#F25353;" points="448,256 398,256 398,206 350,206 350,256 300,256 300,304 350,304 350,354 398,354 398,304   448,304 "/>
<polygon style="fill:#F4B831;" points="266,154 216,154 216,104 168,104 168,154 118,154 118,202 168,202 168,252 216,252 216,202   266,202 "/>
<polygon style="fill:#12ADDD;" points="502,60 452,60 452,10 404,10 404,60 354,60 354,108 404,108 404,158 452,158 452,108   502,108 "/>
<path d="M502,512H10c-5.522,0-10-4.477-10-10V10C0,4.477,4.478,0,10,0s10,4.477,10,10v482h482c5.522,0,10,4.477,10,10  S507.522,512,502,512z"/>
<path d="M162,458h-48c-5.522,0-10-4.477-10-10v-40H64c-5.522,0-10-4.477-10-10v-48c0-5.523,4.478-10,10-10h40v-40  c0-5.523,4.478-10,10-10h48c5.522,0,10,4.477,10,10v40h40c5.522,0,10,4.477,10,10v48c0,5.523-4.478,10-10,10h-40v40  C172,453.523,167.522,458,162,458z M124,438h28v-40c0-5.523,4.478-10,10-10h40v-28h-40c-5.522,0-10-4.477-10-10v-40h-28v40  c0,5.523-4.478,10-10,10H74v28h40c5.522,0,10,4.477,10,10V438z"/>
<path d="M452,168h-48c-5.522,0-10-4.477-10-10v-40h-40c-5.522,0-10-4.477-10-10V60c0-5.523,4.478-10,10-10h40V10  c0-5.523,4.478-10,10-10h48c5.522,0,10,4.477,10,10v40h40c5.522,0,10,4.477,10,10v48c0,5.523-4.478,10-10,10h-40v40  C462,163.523,457.522,168,452,168z M414,148h28v-40c0-5.523,4.478-10,10-10h40V70h-40c-5.522,0-10-4.477-10-10V20h-28v40  c0,5.523-4.478,10-10,10h-40v28h40c5.522,0,10,4.477,10,10V148z"/>
<path d="M216,262h-48c-5.522,0-10-4.477-10-10v-40h-40c-5.522,0-10-4.477-10-10v-48c0-5.523,4.478-10,10-10h40v-40  c0-5.523,4.478-10,10-10h48c5.522,0,10,4.477,10,10v14.333c0,5.523-4.478,10-10,10s-10-4.477-10-10V114h-28v40  c0,5.523-4.478,10-10,10h-40v28h40c5.522,0,10,4.477,10,10v40h28v-40c0-5.523,4.478-10,10-10h40v-28h-4.667c-5.522,0-10-4.477-10-10  s4.478-10,10-10H266c5.522,0,10,4.477,10,10v48c0,5.523-4.478,10-10,10h-40v40C226,257.523,221.522,262,216,262z"/>
<path d="M216,164c-2.63,0-5.21-1.07-7.07-2.93S206,156.63,206,154s1.069-5.21,2.93-7.07c1.86-1.86,4.44-2.93,7.07-2.93  s5.21,1.07,7.069,2.93c1.86,1.86,2.931,4.44,2.931,7.07s-1.07,5.21-2.931,7.07C221.21,162.93,218.63,164,216,164z"/>
<path d="M398,364h-48c-5.522,0-10-4.477-10-10v-40h-40c-5.522,0-10-4.477-10-10v-48c0-5.523,4.478-10,10-10h40v-40  c0-5.523,4.478-10,10-10h48c5.522,0,10,4.477,10,10v14.333c0,5.523-4.478,10-10,10s-10-4.477-10-10V216h-28v40  c0,5.523-4.478,10-10,10h-40v28h40c5.522,0,10,4.477,10,10v40h28v-40c0-5.523,4.478-10,10-10h40v-28h-4.667c-5.522,0-10-4.477-10-10  s4.478-10,10-10H448c5.522,0,10,4.477,10,10v48c0,5.523-4.478,10-10,10h-40v40C408,359.523,403.522,364,398,364z"/>
<path d="M398,266c-2.63,0-5.21-1.07-7.07-2.93S388,258.63,388,256s1.069-5.21,2.93-7.07c1.86-1.86,4.44-2.93,7.07-2.93  s5.21,1.07,7.069,2.93c1.86,1.86,2.931,4.44,2.931,7.07s-1.07,5.21-2.931,7.07C403.21,264.93,400.63,266,398,266z"/>
<g>
</g>
<g>
</g>
<g>
</g>
<g>
</g>
<g>
</g>
<g>
</g>
<g>
</g>
<g>
</g>
<g>
</g>
<g>
</g>
<g>
</g>
<g>
</g>
<g>
</g>
<g>
</g>
<g>
</g>
</svg>
