<?xml version="1.0" encoding="iso-8859-1"?>
<!-- Generator: Adobe Illustrator 19.0.0, SVG Export Plug-In . SVG Version: 6.00 Build 0)  -->
<svg xmlns="http://www.w3.org/2000/svg" xmlns:xlink="http://www.w3.org/1999/xlink" version="1.1" id="Capa_1" x="0px" y="0px" viewBox="0 0 512 512" style="enable-background:new 0 0 512 512;" xml:space="preserve">
<path style="fill:#41C0F0;" d="M256,10C120.138,10,10,120.138,10,256s110.138,246,246,246s246-110.138,246-246S391.862,10,256,10z   M256,392c-75.111,0-136-60.889-136-136s60.889-136,136-136s136,60.889,136,136S331.111,392,256,392z"/>
<path style="fill:#F4B831;" d="M161.394,353.69L161.394,353.69l-77.782,77.782C128.001,475.086,188.853,502,256,502V392  C219.229,392,185.872,377.401,161.394,353.69z"/>
<path style="fill:#2BBA68;" d="M502,256H392c0,75.111-60.889,136-136,136v110C391.862,502,502,391.862,502,256z"/>
<path style="fill:#FFFFFF;" d="M120,256c0-36.889,14.694-70.341,38.54-94.841l-0.04-2.659L82.052,82.052  C37.535,126.569,10,188.069,10,256c0,68.715,28.186,130.839,73.612,175.472l77.782-77.782l0,0C135.871,328.968,120,294.34,120,256z"/>
<path d="M299.199,137.598l0.938,0.347c1.153,0.431,2.335,0.635,3.498,0.635c4.053,0,7.867-2.483,9.369-6.504  c1.933-5.173-0.695-10.934-5.868-12.867c-0.368-0.137-0.736-0.273-1.106-0.407c-5.191-1.889-10.928,0.793-12.814,5.983  C291.33,129.975,294.009,135.712,299.199,137.598z"/>
<path d="M437.02,74.98C388.667,26.629,324.38,0,256,0C187.623,0,123.338,26.627,74.987,74.975c-0.002,0.002-0.004,0.004-0.007,0.006  s-0.004,0.005-0.006,0.007C26.626,123.339,0,187.623,0,256c0,68.38,26.628,132.667,74.981,181.02  C123.333,485.371,187.62,512,256,512s132.667-26.629,181.02-74.98C485.372,388.667,512,324.38,512,256S485.372,123.333,437.02,74.98  z M491.773,246h-90.126c-2.719-40.046-21.68-77.094-52.985-102.831c-4.267-3.507-10.567-2.893-14.075,1.374  c-3.507,4.267-2.892,10.567,1.374,14.075C365.219,182.673,382,218.167,382,256c0,69.477-56.523,126-126,126s-126-56.523-126-126  s56.523-126,126-126c5.523,0,10-4.478,10-10s-4.477-10-10-10c-36.661,0-70.206,13.586-95.874,35.983L96.429,82.287  C138.472,43.636,194.524,20,256,20C382.78,20,486.513,120.491,491.773,246z M161.788,367.438  c23.062,19.527,52.239,32.039,84.212,34.212v90.123c-56.766-2.379-108.413-24.895-147.959-60.588L161.788,367.438z M20,256  c0-61.476,23.636-117.528,62.287-159.571l63.697,63.697C123.586,185.794,110,219.339,110,256c0,37.445,14.175,71.637,37.434,97.508  l-63.66,63.66C44.245,374.953,20,318.259,20,256z M266,491.773V401.65c72.552-4.932,130.719-63.099,135.651-135.651h90.123  C486.653,388.192,388.192,486.653,266,491.773z"/>
<g>
</g>
<g>
</g>
<g>
</g>
<g>
</g>
<g>
</g>
<g>
</g>
<g>
</g>
<g>
</g>
<g>
</g>
<g>
</g>
<g>
</g>
<g>
</g>
<g>
</g>
<g>
</g>
<g>
</g>
</svg>
