<?xml version="1.0" encoding="iso-8859-1"?>
<!-- Generator: Adobe Illustrator 19.0.0, SVG Export Plug-In . SVG Version: 6.00 Build 0)  -->
<svg xmlns="http://www.w3.org/2000/svg" xmlns:xlink="http://www.w3.org/1999/xlink" version="1.1" id="Capa_1" x="0px" y="0px" viewBox="0 0 512.001 512.001" style="enable-background:new 0 0 512.001 512.001;" xml:space="preserve">
<polygon style="fill:#FBF6A2;" points="110,286.001 210,343.219 110,400.437 10,343.219 "/>
<polygon style="fill:#F67B37;" points="110,502.001 210,444.783 210,343.219 110,400.437 "/>
<polygon style="fill:#F4B831;" points="10,444.783 110,502.001 110,400.437 10,343.219 "/>
<polygon style="fill:#FFFFFF;" points="402,286.001 502,343.219 402,400.437 302,343.219 "/>
<polygon style="fill:#BCBEC0;" points="402,502.001 502,444.783 502,343.219 402,400.437 "/>
<polygon style="fill:#F1F2F2;" points="302,444.783 402,502.001 402,400.437 302,343.219 "/>
<polygon style="fill:#BEE9F4;" points="256,10.001 356,67.219 256,124.437 156,67.219 "/>
<polygon style="fill:#0D93D6;" points="256,226.001 356,168.783 356,67.219 256,124.437 "/>
<polygon style="fill:#41C0F0;" points="156,168.783 256,226.001 256,124.437 156,67.219 "/>
<path d="M292.973,306.757c3.469,0,6.842-1.808,8.688-5.035c2.743-4.793,1.08-10.903-3.714-13.646L266,269.796v-37.995l94.967-54.338  c3.112-1.781,5.033-5.093,5.033-8.68V67.219c0-3.586-1.921-6.898-5.033-8.68l-100-57.218c-3.078-1.761-6.855-1.761-9.934,0  l-100,57.218c-3.112,1.781-5.033,5.093-5.033,8.68v101.564c0,3.586,1.921,6.898,5.033,8.68L246,231.801v38.067l-31.82,18.207  c-4.794,2.743-6.457,8.853-3.714,13.646c1.847,3.228,5.219,5.035,8.688,5.035c1.685,0,3.392-0.426,4.958-1.322l31.951-18.282  l31.951,18.282C289.582,306.331,291.288,306.757,292.973,306.757z M256,21.523l79.865,45.696l-79.864,45.696l-79.865-45.696  L256,21.523z M166,84.462l80,45.774v25.432c0,5.523,4.478,10,10,10c5.522,0,10-4.477,10-10v-25.432l80-45.774v78.522l-90,51.496  l-90-51.496V84.462z"/>
<path d="M263.069,196.071c1.86-1.86,2.931-4.44,2.931-7.07s-1.07-5.21-2.931-7.07c-1.859-1.86-4.439-2.93-7.069-2.93  c-2.63,0-5.21,1.07-7.07,2.93c-1.86,1.86-2.93,4.44-2.93,7.07s1.069,5.21,2.93,7.07s4.44,2.93,7.07,2.93  C258.63,199.001,261.21,197.931,263.069,196.071z"/>
<path d="M214.967,334.539l-100-57.218c-3.078-1.761-6.855-1.761-9.934,0l-100,57.218C1.921,336.321,0,339.633,0,343.219v101.564  c0,3.586,1.921,6.898,5.033,8.68l100,57.218c1.539,0.88,3.253,1.32,4.967,1.32s3.428-0.44,4.967-1.32l100-57.218  c3.112-1.781,5.033-5.093,5.033-8.68V343.219C220,339.633,218.079,336.321,214.967,334.539z M110,297.523l79.865,45.696  l-79.864,45.696l-79.865-45.696L110,297.523z M20,360.462l80,45.774v78.522l-80-45.774V360.462z M120,484.758v-78.522l80-45.774  v78.522L120,484.758z"/>
<path d="M506.967,334.539l-100-57.218c-3.078-1.761-6.855-1.761-9.934,0l-100,57.218c-3.112,1.781-5.033,5.093-5.033,8.68v101.564  c0,3.586,1.921,6.898,5.033,8.68l100,57.218c1.539,0.88,3.253,1.32,4.967,1.32s3.428-0.44,4.967-1.32l100-57.218  c3.112-1.781,5.033-5.093,5.033-8.68V343.219C512,339.633,510.079,336.321,506.967,334.539z M402,297.523l79.865,45.696  l-79.864,45.696l-79.865-45.696L402,297.523z M312,360.462l80,45.774v78.522l-80-45.774V360.462z M412,484.758v-78.522l80-45.774  v78.522L412,484.758z"/>
<g>
</g>
<g>
</g>
<g>
</g>
<g>
</g>
<g>
</g>
<g>
</g>
<g>
</g>
<g>
</g>
<g>
</g>
<g>
</g>
<g>
</g>
<g>
</g>
<g>
</g>
<g>
</g>
<g>
</g>
</svg>
