<?xml version="1.0" encoding="iso-8859-1"?>
<!-- Generator: Adobe Illustrator 19.0.0, SVG Export Plug-In . SVG Version: 6.00 Build 0)  -->
<svg xmlns="http://www.w3.org/2000/svg" xmlns:xlink="http://www.w3.org/1999/xlink" version="1.1" id="Capa_1" x="0px" y="0px" viewBox="0 0 512 512" style="enable-background:new 0 0 512 512;" xml:space="preserve">
<circle style="fill:#F25353;" cx="222.12" cy="211.52" r="36.5"/>
<circle style="fill:#2BBA68;" cx="98.45" cy="330.54" r="36.5"/>
<circle style="fill:#F4B831;" cx="332.22" cy="325.44" r="36.5"/>
<circle style="fill:#12ADDD;" cx="465.5" cy="193.52" r="36.5"/>
<path d="M71.591,315.093c2.559,0,5.119-0.976,7.071-2.929l0.054-0.054c3.96-3.849,4.05-10.18,0.201-14.141  c-3.849-3.959-10.18-4.05-14.141-0.201l-0.257,0.253c-3.905,3.905-3.905,10.237,0,14.143  C66.473,314.117,69.032,315.093,71.591,315.093z"/>
<path d="M98.199,377.039c12.471,0,24.197-4.857,33.016-13.677s13.676-20.545,13.675-33.017c0-9.092-2.687-17.689-7.331-24.974  l56.673-56.672c7.776,5.849,17.436,9.32,27.893,9.32c8.418,0,16.314-2.26,23.132-6.188l48.199,48.2  c-4.845,7.359-7.676,16.156-7.676,25.607c0,22.99,17.128,42.849,39.844,46.194c0.494,0.073,0.985,0.108,1.469,0.108  c4.878,0,9.149-3.575,9.881-8.544c0.805-5.464-2.972-10.546-8.436-11.35c-12.975-1.911-22.758-13.264-22.758-26.408  c0-14.719,11.974-26.693,26.691-26.694c6.474,0,12.45,2.294,17.103,6.165c0.458,0.872,1.053,1.691,1.786,2.424  c0.641,0.641,1.351,1.165,2.101,1.596c2.677,3.409,4.567,7.497,5.331,12.04c0.917,5.447,6.08,9.125,11.52,8.203  c5.446-0.916,9.119-6.073,8.204-11.52c-1.04-6.183-3.257-11.897-6.391-16.94l68.278-68.278c7.246,4.665,15.857,7.385,25.096,7.385  c25.64,0,46.5-20.86,46.5-46.5s-20.86-46.5-46.5-46.5s-46.5,20.86-46.5,46.5c0,9.176,2.682,17.731,7.288,24.946l-68.13,68.13  c-7.398-4.858-16.24-7.65-25.686-7.651c-9.071,0-17.541,2.609-24.714,7.104l-47.694-47.694c5.383-7.588,8.561-16.845,8.561-26.835  c0-25.64-20.86-46.5-46.5-46.5s-46.5,20.86-46.5,46.5c0,7.942,2.005,15.424,5.531,21.971l-57.665,57.665  c-5.457-3.554-11.701-6.011-18.445-7.004c-5.459-0.807-10.546,2.972-11.35,8.436c-0.805,5.464,2.972,10.546,8.436,11.35  c5.424,0.799,10.286,3.252,14.112,6.791c0.26,0.336,0.535,0.664,0.843,0.972c0.282,0.282,0.58,0.538,0.885,0.779  c4.307,4.778,6.918,11.081,6.917,17.866c0,7.129-2.776,13.833-7.818,18.875s-11.744,7.819-18.873,7.819  c-13.087,0-24.156-9.347-26.321-22.224c-0.915-5.447-6.077-9.118-11.52-8.204c-5.446,0.916-9.12,6.073-8.204,11.52  C55.944,360.675,75.309,377.039,98.199,377.039z M465.5,167.02c14.612,0,26.5,11.888,26.5,26.5s-11.888,26.5-26.5,26.5  s-26.5-11.888-26.5-26.5S450.888,167.02,465.5,167.02z M222.125,185.02c14.612,0,26.5,11.888,26.5,26.5s-11.888,26.5-26.5,26.5  s-26.5-11.888-26.5-26.5S207.513,185.02,222.125,185.02z"/>
<path d="M352.008,343.82l-0.088,0.087c-3.942,3.869-4.001,10.199-0.133,14.141c1.958,1.995,4.547,2.996,7.138,2.996  c2.528,0,5.058-0.953,7.004-2.863l0.222-0.219c3.905-3.905,3.905-10.237,0-14.143C362.246,339.915,355.914,339.915,352.008,343.82z"/>
<path d="M502,492H20V10c0-5.523-4.477-10-10-10S0,4.477,0,10v492c0,5.523,4.477,10,10,10h492c5.523,0,10-4.477,10-10  S507.523,492,502,492z"/>
<g>
</g>
<g>
</g>
<g>
</g>
<g>
</g>
<g>
</g>
<g>
</g>
<g>
</g>
<g>
</g>
<g>
</g>
<g>
</g>
<g>
</g>
<g>
</g>
<g>
</g>
<g>
</g>
<g>
</g>
</svg>
