<?xml version="1.0" encoding="iso-8859-1"?>
<!-- Generator: Adobe Illustrator 19.0.0, SVG Export Plug-In . SVG Version: 6.00 Build 0)  -->
<svg xmlns="http://www.w3.org/2000/svg" xmlns:xlink="http://www.w3.org/1999/xlink" version="1.1" id="Capa_1" x="0px" y="0px" viewBox="0 0 512 512" style="enable-background:new 0 0 512 512;" xml:space="preserve">
<path style="fill:#2BBA68;" d="M501.976,258h-110c-0.499,34.136-13.763,68.12-39.81,94.167s-60.031,39.311-94.167,39.81v110  c62.289-0.503,124.422-24.502,171.948-72.028S501.473,320.289,501.976,258z"/>
<path style="fill:#FFFFFF;" d="M124.65,291.335l-0.007-0.011L21.146,319.056l-0.956,7.17c11.27,37.967,31.889,73.75,61.862,103.722  c0.516,0.516,1.042,1.012,1.561,1.522l77.781-77.781l-0.003-0.005c-0.52-0.504-1.043-1.004-1.557-1.518  C142.348,334.681,130.622,313.619,124.65,291.335z"/>
<path style="fill:#F99BB6;" d="M17.776,317.444l3.37,1.612l103.497-27.732l0.002-0.007c-11.898-44.42-0.924-93.689,32.923-129.159  l0.932-3.657L82.052,82.052C18.256,145.848-3.158,235.963,17.776,317.444z"/>
<path style="fill:#F4B831;" d="M83.612,431.472C128.001,475.086,188.853,502,256,502V392c-36.771,0-70.128-14.599-94.606-38.31  L83.612,431.472z"/>
<path style="fill:#F25353;" d="M253.819,10.026c-62.228,0.548-124.288,24.546-171.768,72.026l77.782,77.782  c26.001-26.001,59.911-39.264,93.986-39.807V10.026z"/>
<path style="fill:#FFFFFF;" d="M256,10v110c75.111,0,136,60.889,136,136h110C502,120.138,391.862,10,256,10z"/>
<path d="M345.689,167.502c1.956,1.974,4.529,2.962,7.104,2.962c2.543,0,5.088-0.965,7.038-2.896  c3.923-3.887,3.953-10.219,0.066-14.142l-0.654-0.657c-3.9-3.909-10.231-3.918-14.142-0.017c-3.91,3.9-3.917,10.232-0.016,14.142  L345.689,167.502z"/>
<path d="M437.02,74.98C388.667,26.629,324.38,0,256,0S123.333,26.629,74.98,74.98C26.628,123.333,0,187.62,0,256  s26.628,132.667,74.98,181.02C123.333,485.371,187.62,512,256,512s132.667-26.629,181.02-74.98C485.372,388.667,512,324.38,512,256  S485.372,123.333,437.02,74.98z M491.773,246h-90.124c-1.489-21.703-7.796-42.877-18.479-61.769  c-2.719-4.808-8.818-6.501-13.627-3.783c-4.807,2.719-6.501,8.82-3.782,13.627C376.385,212.863,382,234.276,382,256  c0,69.477-56.523,126-126,126s-126-56.523-126-126s56.523-126,126-126c22.028,0,43.702,5.765,62.678,16.669  c4.787,2.753,10.901,1.102,13.653-3.688c2.751-4.788,1.101-10.901-3.688-13.652c-19.122-10.989-40.598-17.469-62.643-18.98V20.227  C388.192,25.347,486.653,123.808,491.773,246z M161.788,367.438c23.062,19.527,52.239,32.039,84.212,34.212v90.123  c-56.766-2.379-108.413-24.895-147.959-60.588L161.788,367.438z M246,110.349c-32.745,2.226-62.56,15.291-85.874,35.634  L96.429,82.287C136.18,45.743,188.458,22.638,246,20.227V110.349z M82.287,96.429l63.697,63.697  C123.586,185.794,110,219.339,110,256c0,9.632,0.947,19.046,2.736,28.162L25.674,307.49C21.969,290.909,20,273.681,20,256  C20,194.524,43.636,138.472,82.287,96.429z M30.857,326.806l87.073-23.331c6.438,18.672,16.564,35.64,29.503,50.032l-63.66,63.66  C59.901,391.673,41.604,360.902,30.857,326.806z M266,491.773V401.65c72.552-4.932,130.719-63.099,135.651-135.651h90.123  C486.653,388.192,388.192,486.653,266,491.773z"/>
<g>
</g>
<g>
</g>
<g>
</g>
<g>
</g>
<g>
</g>
<g>
</g>
<g>
</g>
<g>
</g>
<g>
</g>
<g>
</g>
<g>
</g>
<g>
</g>
<g>
</g>
<g>
</g>
<g>
</g>
</svg>
