<?xml version="1.0" encoding="iso-8859-1"?>
<!-- Generator: Adobe Illustrator 19.0.0, SVG Export Plug-In . SVG Version: 6.00 Build 0)  -->
<svg xmlns="http://www.w3.org/2000/svg" xmlns:xlink="http://www.w3.org/1999/xlink" version="1.1" id="Capa_1" x="0px" y="0px" viewBox="0 0 512 512" style="enable-background:new 0 0 512 512;" xml:space="preserve">
<polygon style="fill:#41C0F0;" points="502,195.071 331.422,365.649 206.887,241.113 64,384 64,316.615 206.887,173.728   331.422,298.264 502,127.686 "/>
<path d="M502,512H10c-5.522,0-10-4.478-10-10V10C0,4.478,4.478,0,10,0s10,4.478,10,10v482h482c5.522,0,10,4.478,10,10  S507.522,512,502,512z"/>
<path d="M63.998,394c-1.288,0-2.588-0.249-3.825-0.761C56.437,391.691,54,388.045,54,384v-67.385c0-2.652,1.054-5.195,2.929-7.071  l142.887-142.887c3.906-3.904,10.236-3.904,14.143,0l117.464,117.464l43.183-43.183c3.906-3.904,10.236-3.904,14.143,0  c3.905,3.905,3.905,10.237,0,14.143l-50.254,50.254c-3.906,3.904-10.236,3.904-14.143,0L206.887,187.871L74,320.758v39.1  l125.815-125.815c3.906-3.904,10.236-3.904,14.143,0l117.464,117.464L492,190.929v-39.101l-40.252,40.252  c-3.906,3.904-10.236,3.904-14.143,0c-3.905-3.905-3.905-10.237,0-14.143l57.323-57.323c2.86-2.859,7.161-3.713,10.898-2.168  c3.736,1.548,6.173,5.194,6.173,9.239v67.386c0,2.652-1.054,5.195-2.929,7.071L338.493,372.72c-3.906,3.904-10.236,3.904-14.143,0  L206.887,255.256L71.071,391.071C69.158,392.984,66.601,394,63.998,394z"/>
<path d="M414.34,225.34c-2.63,0-5.21-1.07-7.07-2.93c-1.859-1.86-2.93-4.431-2.93-7.07c0-2.63,1.07-5.21,2.93-7.07  c1.86-1.859,4.44-2.93,7.07-2.93c2.64,0,5.21,1.07,7.07,2.93c1.869,1.86,2.93,4.44,2.93,7.07s-1.061,5.21-2.93,7.07  C419.55,224.27,416.97,225.34,414.34,225.34z"/>
<g>
</g>
<g>
</g>
<g>
</g>
<g>
</g>
<g>
</g>
<g>
</g>
<g>
</g>
<g>
</g>
<g>
</g>
<g>
</g>
<g>
</g>
<g>
</g>
<g>
</g>
<g>
</g>
<g>
</g>
</svg>
