<?xml version="1.0" encoding="iso-8859-1"?>
<!-- Generator: Adobe Illustrator 19.0.0, SVG Export Plug-In . SVG Version: 6.00 Build 0)  -->
<svg xmlns="http://www.w3.org/2000/svg" xmlns:xlink="http://www.w3.org/1999/xlink" version="1.1" id="Capa_1" x="0px" y="0px" viewBox="0 0 512 512" style="enable-background:new 0 0 512 512;" xml:space="preserve">
<circle style="fill:#BEE9F4;" cx="269.668" cy="256.003" r="232.327"/>
<circle style="fill:#41C0F0;" cx="269.668" cy="256.003" r="162.26"/>
<circle style="fill:#0D93D6;" cx="269.668" cy="256.003" r="85.872"/>
<path d="M414.317,346.651c3.096-4.928,1.608-11.432-3.32-14.526c-4.929-3.096-11.432-1.609-14.525,3.32  c-27.592,43.94-74.996,70.173-126.809,70.173h-17.455l8.187-8.187c4.114-4.114,4.114-10.786,0-14.902  c-4.116-4.113-10.785-4.113-14.902,0l-26.173,26.173c-4.114,4.114-4.114,10.786,0,14.902l26.173,26.173  c2.058,2.057,4.754,3.086,7.45,3.086s5.393-1.029,7.45-3.086c4.114-4.114,4.114-10.786,0-14.902l-8.187-8.187h17.455  C328.77,426.689,382.847,396.768,414.317,346.651z"/>
<path d="M420.776,310.073c0.98,0.283,1.966,0.418,2.938,0.418c4.57,0,8.779-2.997,10.115-7.606l0.182-0.635  c1.569-5.603-1.702-11.418-7.305-12.987c-5.607-1.572-11.418,1.702-12.988,7.305l-0.129,0.453  C411.968,302.609,415.186,308.453,420.776,310.073z"/>
<path d="M440.303,260.131c0.033-1.373,0.049-2.75,0.049-4.131c0-94.118-76.571-170.689-170.689-170.689  c-5.818,0-10.536,4.717-10.536,10.536c0,5.819,4.718,10.536,10.536,10.536c82.499,0,149.617,67.118,149.617,149.617  c0,1.213-0.015,2.421-0.043,3.627c-0.139,5.817,4.463,10.646,10.281,10.785c0.085,0.002,0.172,0.003,0.257,0.003  C435.476,270.416,440.166,265.863,440.303,260.131z"/>
<path d="M441.021,84.642c-45.772-45.771-106.628-70.979-171.359-70.979c-5.818,0-10.536,4.717-10.536,10.536  s4.718,10.536,10.536,10.536c122.005,0,221.264,99.259,221.264,221.264s-99.259,221.264-221.264,221.264S48.399,378.005,48.399,256  v-11.848l9.338,9.339c2.058,2.058,4.754,3.086,7.45,3.086c2.696,0,5.393-1.028,7.45-3.086c4.114-4.114,4.114-10.786,0-14.902  l-27.326-27.326c-4.116-4.114-10.785-4.114-14.902,0L3.086,238.59c-4.114,4.114-4.114,10.786,0,14.902  c4.116,4.114,10.785,4.114,14.902,0l9.338-9.339V256c0,64.73,25.207,125.586,70.978,171.358s106.627,70.979,171.359,70.979  s125.586-25.207,171.359-70.979C486.792,381.586,512,320.73,512,256S486.792,130.413,441.021,84.642z"/>
<path d="M165.595,253.447l8.187-8.187V256c0,52.869,43.012,95.881,95.881,95.881s95.881-43.012,95.881-95.881  s-43.012-95.881-95.881-95.881c-5.818,0-10.536,4.717-10.536,10.536s4.718,10.536,10.536,10.536  c41.249,0,74.808,33.559,74.808,74.808s-33.559,74.808-74.808,74.808S194.854,297.249,194.854,256v-10.74l8.187,8.187  c2.058,2.058,4.754,3.086,7.45,3.086s5.393-1.029,7.45-3.086c4.114-4.114,4.114-10.786,0-14.901l-26.173-26.172  c-4.116-4.114-10.785-4.114-14.902,0l-26.173,26.172c-4.114,4.114-4.114,10.786,0,14.901  C154.81,257.562,161.479,257.561,165.595,253.447z"/>
<g>
</g>
<g>
</g>
<g>
</g>
<g>
</g>
<g>
</g>
<g>
</g>
<g>
</g>
<g>
</g>
<g>
</g>
<g>
</g>
<g>
</g>
<g>
</g>
<g>
</g>
<g>
</g>
<g>
</g>
</svg>
