<?xml version="1.0" encoding="iso-8859-1"?>
<!-- Generator: Adobe Illustrator 19.0.0, SVG Export Plug-In . SVG Version: 6.00 Build 0)  -->
<svg xmlns="http://www.w3.org/2000/svg" xmlns:xlink="http://www.w3.org/1999/xlink" version="1.1" id="Capa_1" x="0px" y="0px" viewBox="0 0 512 512" style="enable-background:new 0 0 512 512;" xml:space="preserve">
<circle style="fill:#12ADDD;" cx="256.025" cy="125.018" r="95.991"/>
<circle style="fill:#2BBA68;" cx="105.99" cy="386.982" r="95.991"/>
<circle style="fill:#F4B831;" cx="406.011" cy="386.982" r="95.991"/>
<path d="M326.215,267.738c1.848,3.226,5.218,5.033,8.687,5.033c1.685,0,3.392-0.426,4.959-1.323  c4.793-2.744,6.453-8.853,3.71-13.646l-26.46-46.219c27.146-19.212,44.905-50.855,44.905-86.569  c0-58.443-47.547-105.99-105.99-105.99s-105.99,47.546-105.99,105.99s47.547,105.99,105.99,105.99  c15.59,0,30.403-3.385,43.746-9.456L326.215,267.738z M170.033,125.014c0-47.415,38.575-85.992,85.992-85.992  s85.992,38.576,85.992,85.992s-38.575,85.992-85.992,85.992S170.033,172.429,170.033,125.014z"/>
<path d="M238.001,376.986h-26.497c-3.051-32.448-20.786-60.689-46.479-77.985l32.184-54.574c2.806-4.757,1.224-10.887-3.533-13.692  c-4.761-2.806-10.888-1.224-13.692,3.534l-32.537,55.174c-12.741-5.435-26.753-8.448-41.458-8.448  C47.547,280.996,0,328.542,0,386.985s47.547,105.99,105.99,105.99c55.071,0,100.459-42.22,105.515-95.991h26.497  c5.521,0,9.999-4.477,9.999-9.999C248.001,381.463,243.524,376.986,238.001,376.986z M105.99,472.977  c-47.416,0-85.992-38.576-85.992-85.992s38.575-85.992,85.992-85.992s85.992,38.576,85.992,85.992S153.406,472.977,105.99,472.977z"/>
<path d="M273.598,376.987c-2.64,0-5.21,1.07-7.069,2.93c-1.869,1.86-2.93,4.44-2.93,7.069c0,2.63,1.061,5.209,2.93,7.069  c1.86,1.86,4.431,2.93,7.069,2.93c2.63,0,5.209-1.07,7.069-2.93c1.859-1.86,2.93-4.44,2.93-7.069c0-2.63-1.07-5.21-2.93-7.069  C278.807,378.057,276.228,376.987,273.598,376.987z"/>
<path d="M262.828,73.422c-3.997-1.412-8.449-0.148-11.111,3.152l-27.144,33.664c-3.467,4.299-2.792,10.594,1.507,14.061  c4.301,3.466,10.594,2.792,14.061-1.507l9.362-11.611v55.996c0,5.522,4.478,9.999,9.999,9.999c5.521,0,9.999-4.477,9.999-9.999  V82.851C269.498,78.612,266.825,74.833,262.828,73.422z"/>
<path d="M134.734,419.41h-29.517c1.219-1.121,2.451-2.277,3.685-3.464c18.695-17.999,27.783-33.264,27.783-46.666  c0-20.766-13.953-34.719-34.72-34.719c-19.144,0-34.719,15.574-34.719,34.719c0,5.522,4.478,9.999,9.999,9.999  c5.521,0,9.999-4.477,9.999-9.999c0-8.117,6.603-14.721,14.721-14.721c14.722,0,14.722,11.08,14.722,14.721  c0,13.686-26.448,38.632-45.225,51.973c-3.551,2.519-5.064,7.044-3.743,11.192c1.322,4.147,5.175,6.963,9.527,6.963h57.487  c5.521,0,9.999-4.477,9.999-9.999C144.733,423.888,140.257,419.41,134.734,419.41z"/>
<path d="M403.584,334.562h-16.361c-5.521,0-9.999,4.477-9.999,9.999c0,5.522,4.478,9.999,9.999,9.999h16.361  c6.183,0,11.213,5.03,11.213,11.213c0,6.183-5.03,11.213-11.213,11.213h-16.361c-5.521,0-9.999,4.477-9.999,9.999  c0,5.522,4.478,9.999,9.999,9.999h16.361c6.183,0,11.213,5.031,11.213,11.213c0,6.183-5.03,11.213-11.213,11.213h-16.361  c-5.521,0-9.999,4.477-9.999,9.999c0,5.522,4.478,9.999,9.999,9.999h16.361c17.209,0,31.211-14.002,31.211-31.211  c0-8.185-3.172-15.639-8.344-21.212c5.173-5.572,8.344-13.028,8.344-21.212C434.795,348.563,420.794,334.562,403.584,334.562z"/>
<path d="M406.01,280.996c-58.442,0-105.99,47.546-105.99,105.99s47.547,105.99,105.99,105.99S512,445.429,512,386.985  S464.453,280.996,406.01,280.996z M406.01,472.977c-47.416,0-85.992-38.576-85.992-85.992s38.575-85.992,85.992-85.992  s85.992,38.576,85.992,85.992S453.427,472.977,406.01,472.977z"/>
<g>
</g>
<g>
</g>
<g>
</g>
<g>
</g>
<g>
</g>
<g>
</g>
<g>
</g>
<g>
</g>
<g>
</g>
<g>
</g>
<g>
</g>
<g>
</g>
<g>
</g>
<g>
</g>
<g>
</g>
</svg>
