<?xml version="1.0" encoding="iso-8859-1"?>
<!-- Generator: Adobe Illustrator 19.0.0, SVG Export Plug-In . SVG Version: 6.00 Build 0)  -->
<svg xmlns="http://www.w3.org/2000/svg" xmlns:xlink="http://www.w3.org/1999/xlink" version="1.1" id="Capa_1" x="0px" y="0px" viewBox="0 0 512 512" style="enable-background:new 0 0 512 512;" xml:space="preserve">
<path style="fill:#41C0F0;" d="M256,67C151.618,67,67,151.618,67,256s84.618,189,189,189s189-84.618,189-189S360.382,67,256,67z   M256,345.89c-49.645,0-89.89-40.245-89.89-89.89s40.245-89.89,89.89-89.89s89.89,40.245,89.89,89.89S305.645,345.89,256,345.89z"/>
<path style="fill:#FFFFFF;" d="M192.438,192.438c16.267-16.267,38.739-26.328,63.562-26.328l0,0V67  c-52.191,0-99.441,21.155-133.643,55.357L192.438,192.438z"/>
<path style="fill:#F25353;" d="M166.11,256c0-24.823,10.061-47.295,26.328-63.562l-70.081-70.081C88.155,156.559,67,203.809,67,256  c0,52.193,21.157,99.445,55.362,133.648l70.078-70.078v-0.007C176.172,303.296,166.11,280.823,166.11,256z"/>
<path style="fill:#F4B831;" d="M345.89,256c0,0.049-0.004,0.097-0.004,0.146h99.112c0-0.049,0.002-0.097,0.002-0.146  c0-104.382-84.618-189-189-189v99.11C305.645,166.11,345.89,206.355,345.89,256z"/>
<path d="M312.693,312.461l-0.17,0.169c-3.922,3.889-3.949,10.22-0.061,14.142c1.956,1.973,4.528,2.96,7.102,2.96  c2.544,0,5.09-0.966,7.04-2.898l0.17-0.169c3.922-3.889,3.949-10.22,0.061-14.142C322.947,308.601,316.615,308.573,312.693,312.461z  "/>
<path d="M446.809,256c0-105.212-85.596-190.809-190.809-190.809S65.191,150.788,65.191,256S150.788,446.809,256,446.809  c105.156,0,190.714-85.505,190.806-190.639c0-0.014,0.002-0.028,0.002-0.043c0-0.009-0.001-0.017-0.001-0.025  C446.807,256.067,446.809,256.034,446.809,256z M265.98,156.555c-0.003,0-0.005-0.001-0.008-0.001  C265.975,156.442,265.978,156.463,265.98,156.555z M265.578,156.509c-0.072-0.007-0.143-0.018-0.214-0.024  C265.441,156.275,265.513,156.337,265.578,156.509z M246.637,156.486c-0.085,0.008-0.17,0.02-0.255,0.029  C246.457,156.294,246.542,156.231,246.637,156.486z M246,85.492v71.065c-19.057,1.9-37.669,9.232-53.286,22.015l-50.152-50.152  C170.421,103.621,206.422,87.788,246,85.492z M85.191,256c0-43.501,16.355-83.249,43.228-113.438l50.153,50.152  c-30.03,36.685-30.03,89.895-0.001,126.581l-50.148,50.148C101.548,339.252,85.191,299.504,85.191,256z M256,426.809  c-43.499,0-83.245-16.354-113.434-43.224l50.147-50.147c17.999,14.729,40.376,22.582,63.251,22.581  c9.665,0,19.423-1.403,28.972-4.281c5.288-1.594,8.283-7.172,6.689-12.46s-7.175-8.281-12.46-6.688  c-28.306,8.53-58.856,0.863-79.731-20.012c-31.194-31.194-31.194-81.95,0-113.145c31.194-31.192,81.951-31.192,113.145,0  c15.174,15.174,23.325,35.223,23.465,55.865c-0.023,0.274-0.042,0.549-0.042,0.829c0,0.279,0.019,0.553,0.042,0.826  c-0.114,8.119-1.463,16.311-4.121,24.319c-1.74,5.241,1.099,10.901,6.34,12.642c5.244,1.738,10.902-1.099,12.641-6.341  c2.347-7.071,3.87-14.257,4.618-21.445h70.98C421.241,355.615,346.784,426.809,256,426.809z M355.593,246.127  c-2.206-22.573-12.118-44.082-28.874-60.837c-16.956-16.955-38.537-26.523-60.719-28.732V85.492  c86.279,5.006,155.573,74.339,160.516,160.635L355.593,246.127L355.593,246.127z"/>
<path d="M437.02,74.98C388.667,26.629,324.38,0,256,0c-5.523,0-10,4.478-10,10s4.477,10,10,10c130.131,0,236,105.869,236,236  S386.131,492,256,492S20,386.131,20,256c0-53.83,18.152-105.387,51.435-147.075l-0.018,5.262  c-0.019,5.522,4.444,10.015,9.967,10.033c0.011,0,0.022,0,0.034,0c5.507,0,9.981-4.455,10-9.967l0.107-32.236  c0.01-3.028-1.353-5.897-3.706-7.804c-2.353-1.907-5.443-2.642-8.403-2.005l-31.511,6.8c-5.398,1.165-8.831,6.486-7.666,11.885  c1.166,5.398,6.486,8.832,11.884,7.666l2.427-0.524C19.24,142.978,0,198.284,0,256c0,68.38,26.628,132.667,74.981,181.02  C123.333,485.371,187.62,512,256,512s132.667-26.629,181.02-74.98C485.372,388.667,512,324.38,512,256S485.372,123.333,437.02,74.98  z"/>
<g>
</g>
<g>
</g>
<g>
</g>
<g>
</g>
<g>
</g>
<g>
</g>
<g>
</g>
<g>
</g>
<g>
</g>
<g>
</g>
<g>
</g>
<g>
</g>
<g>
</g>
<g>
</g>
<g>
</g>
</svg>
