<?xml version="1.0" encoding="iso-8859-1"?>
<!-- Generator: Adobe Illustrator 19.0.0, SVG Export Plug-In . SVG Version: 6.00 Build 0)  -->
<svg xmlns="http://www.w3.org/2000/svg" xmlns:xlink="http://www.w3.org/1999/xlink" version="1.1" id="Capa_1" x="0px" y="0px" viewBox="0 0 512 512" style="enable-background:new 0 0 512 512;" xml:space="preserve">
<rect x="354" y="10" style="fill:#0D93D6;" width="104" height="492"/>
<rect x="203.75" y="138" style="fill:#41C0F0;" width="104" height="364"/>
<rect x="54" y="256" style="fill:#BEE9F4;" width="104" height="246"/>
<path d="M502,492h-34V282c0-5.523-4.478-10-10-10s-10,4.477-10,10v210h-84V20h84v173.52c0,5.523,4.478,10,10,10s10-4.477,10-10V10  c0-5.523-4.478-10-10-10H354c-5.522,0-10,4.477-10,10v482h-26.251V138c0-5.523-4.478-10-10-10h-104c-5.522,0-10,4.477-10,10v140.156  c0,5.523,4.478,10,10,10s10-4.477,10-10V148h84v344h-84V361c0-5.523-4.478-10-10-10s-10,4.477-10,10v131H168V256  c0-5.523-4.478-10-10-10H54c-5.522,0-10,4.477-10,10v236H10c-5.522,0-10,4.477-10,10s4.478,10,10,10h492c5.522,0,10-4.477,10-10  S507.522,492,502,492z M64,492V266h84v226H64z"/>
<path d="M458,227.66c-2.63,0-5.21,1.07-7.07,2.93s-2.93,4.43-2.93,7.07c0,2.63,1.069,5.21,2.93,7.07c1.86,1.86,4.44,2.93,7.07,2.93  s5.21-1.07,7.069-2.93c1.86-1.86,2.931-4.44,2.931-7.07s-1.07-5.21-2.931-7.07C463.21,228.73,460.63,227.66,458,227.66z"/>
<path d="M203.75,330c2.63,0,5.21-1.07,7.069-2.93c1.86-1.86,2.931-4.44,2.931-7.07s-1.07-5.21-2.931-7.07  c-1.859-1.86-4.439-2.93-7.069-2.93c-2.641,0-5.21,1.07-7.07,2.93s-2.93,4.44-2.93,7.07s1.069,5.21,2.93,7.07S201.12,330,203.75,330  z"/>
<g>
</g>
<g>
</g>
<g>
</g>
<g>
</g>
<g>
</g>
<g>
</g>
<g>
</g>
<g>
</g>
<g>
</g>
<g>
</g>
<g>
</g>
<g>
</g>
<g>
</g>
<g>
</g>
<g>
</g>
</svg>
