<?xml version="1.0" encoding="iso-8859-1"?>
<!-- Generator: Adobe Illustrator 19.0.0, SVG Export Plug-In . SVG Version: 6.00 Build 0)  -->
<svg xmlns="http://www.w3.org/2000/svg" xmlns:xlink="http://www.w3.org/1999/xlink" version="1.1" id="Capa_1" x="0px" y="0px" viewBox="0 0 512 512" style="enable-background:new 0 0 512 512;" xml:space="preserve">
<rect x="10" y="44" style="fill:#12ADDD;" width="213" height="64"/>
<rect x="10" y="278.67" style="fill:#F25353;" width="283.01" height="64"/>
<rect x="10" y="161.33" style="fill:#2BBA68;" width="361.94" height="64"/>
<rect x="10" y="396" style="fill:#F4B831;" width="438" height="64"/>
<path d="M502,492H20v-22h428c5.523,0,10-4.477,10-10v-64c0-5.523-4.477-10-10-10H228.667c-5.523,0-10,4.477-10,10s4.477,10,10,10  H438v44H20v-44h129.667c5.523,0,10-4.477,10-10s-4.477-10-10-10H20v-33.333h273.007c5.523,0,10-4.477,10-10v-64  c0-5.523-4.477-10-10-10H20v-33.333h351.942c5.523,0,10-4.477,10-10v-64c0-5.523-4.477-10-10-10H232.5c-5.523,0-10,4.477-10,10  s4.477,10,10,10h129.442v44H20v-44h129.5c5.523,0,10-4.477,10-10s-4.477-10-10-10H20V118h203c5.523,0,10-4.477,10-10V44  c0-5.523-4.477-10-10-10H20V10c0-5.523-4.477-10-10-10S0,4.477,0,10v492c0,5.523,4.477,10,10,10h492c5.523,0,10-4.477,10-10  S507.523,492,502,492z M283.007,288.667v44H20v-44H283.007z M213,54v44H20V54H213z"/>
<path d="M183.9,154.26c-1.86,1.86-2.93,4.44-2.93,7.07c0,2.64,1.07,5.21,2.93,7.07c1.86,1.87,4.44,2.93,7.07,2.93  s5.21-1.06,7.07-2.93c1.86-1.86,2.93-4.44,2.93-7.07s-1.07-5.21-2.93-7.07c-1.86-1.86-4.44-2.93-7.07-2.93  S185.76,152.4,183.9,154.26z"/>
<path d="M183.9,388.93c-1.86,1.86-2.93,4.44-2.93,7.07s1.07,5.21,2.93,7.07s4.44,2.93,7.07,2.93s5.21-1.07,7.07-2.93  s2.93-4.44,2.93-7.07s-1.07-5.21-2.93-7.07c-1.86-1.86-4.44-2.93-7.07-2.93S185.76,387.07,183.9,388.93z"/>
<g>
</g>
<g>
</g>
<g>
</g>
<g>
</g>
<g>
</g>
<g>
</g>
<g>
</g>
<g>
</g>
<g>
</g>
<g>
</g>
<g>
</g>
<g>
</g>
<g>
</g>
<g>
</g>
<g>
</g>
</svg>
