<?xml version="1.0" encoding="iso-8859-1"?>
<!-- Generator: Adobe Illustrator 19.0.0, SVG Export Plug-In . SVG Version: 6.00 Build 0)  -->
<svg xmlns="http://www.w3.org/2000/svg" xmlns:xlink="http://www.w3.org/1999/xlink" version="1.1" id="Capa_1" x="0px" y="0px" viewBox="0 0 512 512" style="enable-background:new 0 0 512 512;" xml:space="preserve">
<path style="fill:#41C0F0;" d="M256,10C120.138,10,10,120.138,10,256s110.138,246,246,246s246-110.138,246-246S391.862,10,256,10z   M256,392c-75.111,0-136-60.889-136-136s60.889-136,136-136s136,60.889,136,136S331.111,392,256,392z"/>
<path style="fill:#FFFFFF;" d="M352.167,159.833l77.782-77.782C385.431,37.534,323.931,10,256,10v110  C293.555,120,327.555,135.222,352.167,159.833z"/>
<path d="M437.02,74.981C388.667,26.628,324.38,0,256,0S123.333,26.628,74.98,74.981C26.629,123.333,0,187.62,0,256  s26.629,132.667,74.98,181.02C123.333,485.372,187.62,512,256,512s132.667-26.628,181.02-74.98C485.371,388.667,512,324.38,512,256  S485.371,123.333,437.02,74.981z M351.919,145.938c-24.728-21.58-55.049-33.424-85.919-35.525V20.227  c57.542,2.412,109.82,25.517,149.571,62.06L351.919,145.938z M256,492C125.869,492,20,386.131,20,256  C20,129.22,120.491,25.487,246,20.227v90.187c-33.987,2.313-67.314,16.426-93.238,42.349  c-43.946,43.947-55.271,111.029-28.18,166.925c2.41,4.971,8.394,7.045,13.36,4.638c4.97-2.409,7.046-8.391,4.638-13.36  c-23.379-48.238-13.604-106.131,24.324-144.06c49.126-49.128,129.063-49.128,178.191,0c49.127,49.127,49.127,129.064,0,178.191  c-38.973,38.972-98.022,48.168-146.936,22.886c-4.906-2.537-10.938-0.616-13.476,4.292c-2.536,4.906-0.614,10.939,4.292,13.475  c20.841,10.772,43.587,16.28,66.776,16.279c7.196,0,14.438-0.531,21.675-1.599c31.176-4.602,59.466-18.845,81.811-41.19  c54.547-54.548,56.815-141.871,6.824-199.157l63.651-63.651C468.364,138.472,492,194.524,492,256C492,386.131,386.131,492,256,492z"/>
<path d="M166.89,345.081c-3.915-3.897-10.245-3.884-14.143,0.03c-3.897,3.913-3.884,10.245,0.029,14.142l0.352,0.349  c1.951,1.943,4.503,2.914,7.056,2.914c2.566,0,5.132-0.982,7.086-2.944c3.897-3.914,3.884-10.245-0.03-14.142L166.89,345.081z"/>
<g>
</g>
<g>
</g>
<g>
</g>
<g>
</g>
<g>
</g>
<g>
</g>
<g>
</g>
<g>
</g>
<g>
</g>
<g>
</g>
<g>
</g>
<g>
</g>
<g>
</g>
<g>
</g>
<g>
</g>
</svg>
