<?xml version="1.0" encoding="iso-8859-1"?>
<!-- Generator: Adobe Illustrator 19.0.0, SVG Export Plug-In . SVG Version: 6.00 Build 0)  -->
<svg xmlns="http://www.w3.org/2000/svg" xmlns:xlink="http://www.w3.org/1999/xlink" version="1.1" id="Capa_1" x="0px" y="0px" viewBox="0 0 512 512" style="enable-background:new 0 0 512 512;" xml:space="preserve">
<path style="fill:#F4B831;" d="M256,120c75.111,0,136,60.889,136,136c0,75.106-60.883,135.993-135.987,136v110  C391.869,501.993,502,391.858,502,256c0-135.862-110.138-246-246-246S10,120.138,10,256h110C120,180.889,180.889,120,256,120z"/>
<path style="fill:#FFFFFF;" d="M256,502c0.004,0,0.008,0,0.013,0V392c-0.004,0-0.008,0-0.013,0c-75.111,0-136-60.889-136-136H10  C10,391.862,120.138,502,256,502z"/>
<path d="M256,512c-68.38,0-132.667-26.628-181.02-74.98C26.629,388.667,0,324.38,0,256S26.629,123.333,74.98,74.981  C123.333,26.628,187.62,0,256,0s132.667,26.628,181.02,74.98C485.371,123.333,512,187.62,512,256  c0,68.378-26.627,132.664-74.977,181.015C388.695,485.345,324.44,511.973,256.096,512C256.063,512,256.031,512,256,512z   M20.209,265.999c5.122,122.198,103.603,220.683,225.804,225.792v-90.129c-72.561-4.925-130.742-63.104-135.674-135.663  L20.209,265.999L20.209,265.999z M266.013,401.66v90.13C391.515,486.523,492,382.772,492,256c0-130.131-105.869-236-236-236  C129.221,20,25.47,120.49,20.209,245.999h90.13C115.495,170.141,178.856,110,256,110c23.312,0,45.594,5.333,66.227,15.852  c4.92,2.508,6.875,8.531,4.367,13.451c-2.509,4.921-8.53,6.875-13.451,4.368C295.35,134.599,276.124,130,256,130  c-69.477,0-126,56.523-126,126c0,69.451,56.48,125.958,125.922,126c0.03,0,0.061,0,0.091,0C325.481,381.993,382,325.47,382,256  c0-21.116-5.321-42.001-15.39-60.396c-2.651-4.845-0.873-10.922,3.972-13.573c4.842-2.652,10.92-0.875,13.573,3.971  C395.829,207.332,402,231.537,402,256C402,333.137,341.864,396.498,266.013,401.66z M352.167,169.833  c-2.556,0-5.111-0.974-7.063-2.921l-0.638-0.633c-3.938-3.872-3.992-10.203-0.12-14.142c3.87-3.937,10.203-3.993,14.142-0.12  l0.743,0.737c3.909,3.901,3.916,10.233,0.015,14.142C357.292,168.854,354.729,169.833,352.167,169.833z"/>
<g>
</g>
<g>
</g>
<g>
</g>
<g>
</g>
<g>
</g>
<g>
</g>
<g>
</g>
<g>
</g>
<g>
</g>
<g>
</g>
<g>
</g>
<g>
</g>
<g>
</g>
<g>
</g>
<g>
</g>
</svg>
