<?xml version="1.0" encoding="iso-8859-1"?>
<!-- Generator: Adobe Illustrator 19.0.0, SVG Export Plug-In . SVG Version: 6.00 Build 0)  -->
<svg xmlns="http://www.w3.org/2000/svg" xmlns:xlink="http://www.w3.org/1999/xlink" version="1.1" id="Capa_1" x="0px" y="0px" viewBox="0 0 512.002 512.002" style="enable-background:new 0 0 512.002 512.002;" xml:space="preserve">
<g>
	<circle style="fill:#2BBA68;" cx="256" cy="37" r="27"/>
	<circle style="fill:#2BBA68;" cx="256" cy="475" r="27"/>
	<circle style="fill:#2BBA68;" cx="410.86" cy="101.14" r="27"/>
	<circle style="fill:#2BBA68;" cx="101.14" cy="410.86" r="27"/>
</g>
<circle style="fill:#BCBEC0;" cx="256" cy="256" r="60"/>
<g>
	<circle style="fill:#2BBA68;" cx="256" cy="37" r="27"/>
	<circle style="fill:#2BBA68;" cx="256" cy="475" r="27"/>
</g>
<g>
	<circle style="fill:#F4B831;" cx="475" cy="256" r="27"/>
	<circle style="fill:#F4B831;" cx="37" cy="256" r="27"/>
</g>
<g>
	<circle style="fill:#F25353;" cx="410.86" cy="101.14" r="27"/>
	<circle style="fill:#F25353;" cx="101.14" cy="410.86" r="27"/>
</g>
<g>
	<circle style="fill:#41C0F0;" cx="410.86" cy="410.86" r="27"/>
	<circle style="fill:#41C0F0;" cx="101.14" cy="101.14" r="27"/>
</g>
<path d="M291.419,291.304l-0.113,0.113c-3.905,3.905-3.905,10.237,0,14.143c1.953,1.952,4.512,2.929,7.071,2.929  s5.118-0.977,7.071-2.929l0.113-0.113c3.905-3.905,3.905-10.237,0-14.143C301.655,287.399,295.325,287.399,291.419,291.304z"/>
<path d="M305.505,206.503c-27.295-27.293-71.706-27.292-99.001,0c-27.294,27.295-27.294,71.705,0,99  c13.198,13.198,31.151,20.489,49.586,20.488c3.653,0,7.328-0.286,10.986-0.87c5.454-0.87,9.169-5.997,8.299-11.451  s-6.013-9.167-11.451-8.299c-15.81,2.523-31.982-2.716-43.277-14.011c-9.444-9.444-14.646-22.001-14.646-35.357  s5.201-25.913,14.646-35.357c19.495-19.496,51.219-19.498,70.716,0c11.848,11.847,16.955,28.748,13.663,45.21  c-1.083,5.416,2.429,10.684,7.845,11.767c5.413,1.086,10.684-2.429,11.767-7.845C329.243,246.743,322.091,223.09,305.505,206.503z"/>
<path d="M246.001,72.616v75.371c0,5.522,4.478,10,10,10s10-4.478,10-10V72.616c15.558-4.374,27-18.679,27-35.616  c0-20.402-16.598-37-37-37s-37,16.598-37,37C219.001,53.937,230.443,68.241,246.001,72.616z M256.001,20c9.374,0,17,7.626,17,17  c0,9.328-7.554,16.919-16.865,16.993c-0.045,0-0.09-0.007-0.135-0.007s-0.09,0.006-0.135,0.007  c-9.311-0.074-16.865-7.665-16.865-16.993C239.001,27.626,246.627,20,256.001,20z"/>
<path d="M266.001,439.386v-75.384c0-5.522-4.478-10-10-10s-10,4.478-10,10v75.384c-15.558,4.374-27,18.679-27,35.616  c0,20.402,16.598,37,37,37s37-16.598,37-37C293.001,458.065,281.559,443.76,266.001,439.386z M256.001,492.002  c-9.374,0-17-7.626-17-17s7.626-17,17-17s17,7.626,17,17S265.375,492.002,256.001,492.002z"/>
<path d="M148,266.001c5.522,0,10-4.478,10-10s-4.478-10-10-10H72.616c-4.375-15.558-18.679-27-35.616-27c-20.402,0-37,16.598-37,37  s16.598,37,37,37c16.937,0,31.241-11.442,35.616-27H148z M37,273.001c-9.374,0-17-7.626-17-17s7.626-17,17-17s17,7.626,17,17  S46.374,273.001,37,273.001z"/>
<path d="M475.002,219.001c-16.937,0-31.241,11.442-35.616,27h-75.371c-5.522,0-10,4.478-10,10s4.478,10,10,10h75.371  c4.375,15.558,18.679,27,35.616,27c20.402,0,37-16.598,37-37S495.404,219.001,475.002,219.001z M475.002,273.001  c-9.329,0-16.919-7.553-16.993-16.865c0-0.046,0.007-0.09,0.007-0.135s-0.006-0.09-0.007-0.135  c0.074-9.311,7.665-16.865,16.993-16.865c9.374,0,17,7.626,17,17S484.376,273.001,475.002,273.001z"/>
<path d="M172.562,325.298l-53.296,53.296c-5.472-3.085-11.668-4.735-18.122-4.735c-9.883,0-19.174,3.849-26.163,10.837  c-14.426,14.426-14.426,37.898,0.001,52.326c7.213,7.213,16.688,10.819,26.162,10.819c9.476,0,18.95-3.606,26.163-10.819  c6.988-6.989,10.838-16.28,10.838-26.163c0-6.454-1.651-12.65-4.736-18.122l53.296-53.296c3.905-3.905,3.905-10.237,0-14.143  C182.798,321.394,176.468,321.394,172.562,325.298z M113.164,422.879c-6.629,6.629-17.414,6.626-24.041,0.001  c-6.628-6.629-6.628-17.414,0-24.042c3.211-3.212,7.48-4.979,12.021-4.979c4.539,0,8.805,1.766,12.016,4.975  c0.001,0.001,0.003,0.003,0.004,0.005c0.002,0.002,0.004,0.003,0.005,0.005c3.208,3.21,4.975,7.477,4.975,12.016  C118.145,415.398,116.376,419.668,113.164,422.879z"/>
<path d="M332.379,189.623c2.56,0,5.118-0.977,7.071-2.929l53.286-53.286c5.472,3.085,11.668,4.735,18.122,4.735  c9.883,0,19.174-3.849,26.163-10.837c6.988-6.988,10.837-16.28,10.837-26.163c0-9.883-3.849-19.175-10.838-26.163  c-14.426-14.426-37.9-14.425-52.324,0c-6.989,6.988-10.839,16.28-10.839,26.163c0,6.453,1.651,12.65,4.736,18.122l-53.286,53.286  c-3.905,3.905-3.905,10.237,0,14.143C327.261,188.646,329.819,189.623,332.379,189.623z M398.837,89.123L398.837,89.123  c3.314-3.314,7.668-4.971,12.021-4.971s8.706,1.656,12.021,4.971c6.629,6.628,6.629,17.413,0,24.041  c-3.211,3.212-7.48,4.979-12.021,4.979c-4.492,0-8.713-1.735-11.913-4.881c-0.034-0.035-0.063-0.074-0.098-0.108  c-0.035-0.035-0.073-0.064-0.108-0.098c-3.146-3.199-4.882-7.42-4.882-11.913C393.857,96.603,395.626,92.334,398.837,89.123z"/>
<path d="M410.858,373.858c-6.454,0-12.65,1.651-18.122,4.735l-53.286-53.286c-3.906-3.904-10.236-3.904-14.143,0  c-3.905,3.905-3.905,10.237,0,14.143l53.286,53.286c-3.085,5.472-4.736,11.668-4.736,18.122c0,9.883,3.85,19.174,10.838,26.163  c7.213,7.213,16.688,10.819,26.162,10.819c9.476,0,18.95-3.606,26.164-10.82c14.426-14.427,14.426-37.899,0-52.325  C430.032,377.707,420.741,373.858,410.858,373.858z M422.88,422.879c-6.631,6.629-17.415,6.627-24.042,0  c-3.212-3.211-4.98-7.48-4.98-12.021c0-4.492,1.736-8.713,4.882-11.913c0.035-0.034,0.074-0.063,0.108-0.098  c0.035-0.035,0.064-0.073,0.098-0.109c3.199-3.145,7.42-4.88,11.913-4.88c4.54,0,8.81,1.768,12.021,4.979  C429.507,405.466,429.507,416.251,422.88,422.879z"/>
<path d="M101.144,138.144c6.454,0,12.65-1.651,18.122-4.735l53.296,53.296c1.953,1.952,4.512,2.929,7.071,2.929  s5.118-0.977,7.071-2.929c3.905-3.905,3.905-10.237,0-14.143l-53.296-53.296c3.085-5.472,4.736-11.669,4.736-18.122  c0-9.883-3.85-19.175-10.838-26.163c-14.426-14.425-37.898-14.427-52.326,0c-6.988,6.988-10.837,16.28-10.837,26.163  c0,9.883,3.849,19.175,10.837,26.163C81.97,134.295,91.261,138.144,101.144,138.144z M89.122,89.123  c3.315-3.314,7.668-4.971,12.021-4.971c4.353,0,8.707,1.657,12.021,4.971c0,0,0,0,0.001,0c3.211,3.211,4.979,7.479,4.979,12.021  c0,4.539-1.767,8.805-4.976,12.016c-0.001,0.001-0.003,0.003-0.005,0.004c-0.002,0.002-0.003,0.004-0.005,0.005  c-3.21,3.208-7.477,4.974-12.016,4.974c-4.54,0-8.81-1.768-12.021-4.979C82.494,106.536,82.494,95.751,89.122,89.123z"/>
<g>
</g>
<g>
</g>
<g>
</g>
<g>
</g>
<g>
</g>
<g>
</g>
<g>
</g>
<g>
</g>
<g>
</g>
<g>
</g>
<g>
</g>
<g>
</g>
<g>
</g>
<g>
</g>
<g>
</g>
</svg>
