<?xml version="1.0" encoding="iso-8859-1"?>
<!-- Generator: Adobe Illustrator 19.0.0, SVG Export Plug-In . SVG Version: 6.00 Build 0)  -->
<svg xmlns="http://www.w3.org/2000/svg" xmlns:xlink="http://www.w3.org/1999/xlink" version="1.1" id="Capa_1" x="0px" y="0px" viewBox="0 0 512.002 512.002" style="enable-background:new 0 0 512.002 512.002;" xml:space="preserve">
<path style="fill:#2BBA68;" d="M502,381.998V318h-25.862c-3.114-12.312-7.985-23.922-14.328-34.554l18.298-18.298l-45.254-45.254  l-18.298,18.298c-10.632-6.343-22.242-11.214-34.554-14.328v-25.862h-63.999v25.862c-12.312,3.114-23.922,7.985-34.554,14.328  l-18.298-18.298l-45.254,45.254l18.298,18.298c-6.343,10.632-11.214,22.242-14.328,34.554h-25.862v63.999h25.862  c3.114,12.312,7.985,23.922,14.328,34.554l-18.298,18.298l45.254,45.254l18.298-18.298c10.632,6.343,22.242,11.214,34.554,14.328  v25.862h63.999v-25.862c12.312-3.114,23.922-7.985,34.554-14.328l18.298,18.298l45.254-45.254l-18.298-18.298  c6.343-10.632,11.214-22.242,14.328-34.554H502z M350.004,416.996c-37.002,0-66.997-29.996-66.997-66.997  c0-37.002,29.996-66.997,66.997-66.997s66.997,29.996,66.997,66.997S387.005,416.996,350.004,416.996z"/>
<path style="fill:#F25353;" d="M246.006,152.852v-49.686h-20.078c-2.418-9.559-6.199-18.573-11.123-26.826l14.206-14.206  l-35.133-35.133l-14.206,14.206c-8.254-4.924-17.268-8.706-26.826-11.123V10.007h-49.686v20.078  c-9.559,2.418-18.573,6.199-26.826,11.123L62.129,27.002L26.995,62.136l14.206,14.206c-4.924,8.254-8.706,17.268-11.123,26.826H10  v49.686h20.079c2.417,9.559,6.199,18.572,11.123,26.826l-14.206,14.206l35.133,35.133l14.206-14.206  c8.254,4.924,17.268,8.706,26.826,11.123v20.079h49.686v-20.079c9.559-2.417,18.573-6.199,26.826-11.123l14.206,14.206  l35.133-35.133l-14.206-14.206c4.924-8.254,8.706-17.268,11.123-26.826h20.078V152.852z M128.003,180.024  c-28.726,0-52.014-23.287-52.014-52.014s23.287-52.014,52.014-52.014s52.014,23.287,52.014,52.014S156.729,180.024,128.003,180.024z  "/>
<path style="fill:#F4B831;" d="M409.661,77.505c0-2.449-0.18-4.855-0.502-7.215l15.959-9.214l-20-34.64l-15.963,9.216  c-3.789-2.946-7.984-5.389-12.494-7.228V10.007h-39.999v18.417c-4.51,1.839-8.705,4.283-12.494,7.228l-15.963-9.216l-20,34.64  l15.959,9.214c-0.322,2.361-0.502,4.766-0.502,7.215c0,2.449,0.18,4.855,0.502,7.215l-15.959,9.214l20,34.64l15.963-9.216  c3.789,2.946,7.984,5.389,12.494,7.228v18.417h39.999v-18.417c4.509-1.839,8.705-4.282,12.494-7.228l15.963,9.216l20-34.64  l-15.959-9.214C409.481,82.36,409.661,79.954,409.661,77.505z M356.664,95.996c-11.046,0-20-8.954-20-20s8.954-20,20-20  c11.046,0,20,8.954,20,20C376.663,87.041,367.709,95.996,356.664,95.996z"/>
<path d="M382.003,511.995h-63.999c-5.523,0-10-4.477-10-10v-18.305c-7.87-2.471-15.506-5.637-22.829-9.467l-12.952,12.952  c-1.875,1.875-4.419,2.929-7.071,2.929s-5.196-1.054-7.071-2.929l-45.253-45.254c-3.905-3.905-3.905-10.237,0-14.142l12.952-12.951  c-3.831-7.324-6.997-14.96-9.468-22.83h-18.305c-5.523,0-10-4.477-10-10V318c0-5.523,4.477-10,10-10h18.305  c2.47-7.87,5.637-15.506,9.467-22.83l-12.951-12.951c-3.905-3.905-3.905-10.237,0-14.142l45.253-45.254  c3.905-3.905,10.237-3.906,14.142,0l12.952,12.951c7.324-3.83,14.961-6.997,22.83-9.467v-18.305c0-5.523,4.477-10,10-10h63.999  c5.523,0,10,4.477,10,10v18.305c7.87,2.471,15.506,5.637,22.83,9.467l12.952-12.951c3.905-3.904,10.237-3.905,14.142,0  l45.254,45.254c1.875,1.875,2.929,4.419,2.929,7.071s-1.054,5.196-2.929,7.071l-12.951,12.951c3.83,7.324,6.997,14.96,9.467,22.829  h18.305c5.523,0,10,4.477,10,10v63.999c0,5.523-4.477,10-10,10h-18.305c-2.471,7.87-5.637,15.506-9.467,22.829l12.952,12.952  c3.905,3.905,3.905,10.237,0,14.143l-45.254,45.254c-3.905,3.905-10.237,3.905-14.143,0l-12.952-12.952  c-7.324,3.83-14.96,6.997-22.829,9.467v18.305C392.003,507.518,387.526,511.995,382.003,511.995z M328.004,491.995h43.999v-15.862  c0-4.579,3.109-8.572,7.548-9.695c11.199-2.833,21.925-7.281,31.883-13.221c3.933-2.348,8.957-1.72,12.194,1.517l11.227,11.227  l31.112-31.112l-11.227-11.227c-3.238-3.238-3.863-8.262-1.517-12.194c5.94-9.958,10.388-20.686,13.221-31.883  c1.123-4.438,5.116-7.548,9.695-7.548H492v-43.999h-15.862c-4.579,0-8.572-3.109-9.695-7.548  c-2.833-11.199-7.281-21.925-13.221-31.883c-2.346-3.933-1.721-8.957,1.517-12.194l11.227-11.226l-31.112-31.112l-11.227,11.227  c-3.237,3.238-8.261,3.864-12.194,1.517c-9.958-5.94-20.686-10.388-31.883-13.221c-4.438-1.123-7.548-5.116-7.548-9.695v-15.862  h-43.999v15.862c0,4.579-3.109,8.572-7.548,9.695c-11.199,2.833-21.925,7.281-31.883,13.221c-3.933,2.347-8.957,1.721-12.194-1.517  l-11.227-11.227l-31.111,31.112l11.227,11.226c3.238,3.238,3.863,8.262,1.517,12.194c-5.94,9.958-10.388,20.686-13.22,31.883  c-1.123,4.439-5.116,7.548-9.695,7.548h-15.863v43.999h15.863c4.579,0,8.572,3.109,9.695,7.548  c2.832,11.198,7.28,21.925,13.221,31.883c2.346,3.933,1.721,8.956-1.517,12.194l-11.227,11.227l31.111,31.112l11.227-11.227  c3.238-3.237,8.262-3.863,12.194-1.517c9.958,5.94,20.686,10.388,31.883,13.221c4.438,1.123,7.548,5.116,7.548,9.695v15.862H328.004  z"/>
<path d="M387.639,415.441c-3.2,0-6.343-1.532-8.278-4.378c-3.106-4.567-1.921-10.787,2.646-13.892  C397.657,386.529,407,368.895,407,349.999c0-31.428-25.569-56.998-56.998-56.998s-56.998,25.569-56.998,56.998  c0,18.764,9.242,36.328,24.72,46.986c4.549,3.132,5.698,9.359,2.565,13.908c-3.132,4.549-9.358,5.697-13.907,2.565  c-20.901-14.39-33.378-38.113-33.378-63.459c0-42.457,34.541-76.997,76.997-76.997S427,307.543,427,349.999  c0,25.524-12.616,49.341-33.747,63.711C391.532,414.88,389.575,415.441,387.639,415.441z"/>
<path d="M350.004,426.996c-5.523,0-10-4.477-10-10s4.477-10,10-10h0.298c0.026,0,0.053,0,0.079,0c5.487,0,9.956,4.426,9.998,9.922  c0.043,5.522-4.399,10.034-9.922,10.077L350.004,426.996z"/>
<path d="M152.845,256.013H103.16c-5.523,0-10-4.477-10-10v-12.582c-5.164-1.706-10.196-3.793-15.06-6.245l-8.902,8.902  c-3.905,3.905-10.237,3.905-14.143,0l-35.133-35.133c-3.905-3.905-3.905-10.237,0-14.143l8.902-8.902  c-2.452-4.863-4.539-9.896-6.245-15.06H10c-5.523,0-10-4.477-10-10v-49.686c0-5.523,4.477-10,10-10h12.582  c1.706-5.163,3.793-10.196,6.245-15.06l-8.902-8.902c-3.905-3.905-3.905-10.237,0-14.143l35.133-35.133  c3.905-3.905,10.237-3.905,14.143,0l8.902,8.902c4.864-2.452,9.896-4.539,15.06-6.245V10.007c0-5.523,4.477-10,10-10h49.686  c5.523,0,10,4.477,10,10v12.582c5.164,1.706,10.196,3.793,15.06,6.245l8.902-8.902c3.905-3.905,10.237-3.905,14.143,0l35.133,35.133  c3.905,3.905,3.905,10.237,0,14.143l-8.902,8.902c2.452,4.864,4.539,9.896,6.245,15.06h12.583c5.523,0,10,4.477,10,10v49.686  c0,5.523-4.477,10-10,10h-12.586c-1.706,5.164-3.793,10.196-6.245,15.06l8.902,8.902c3.905,3.905,3.905,10.237,0,14.143  l-35.133,35.133c-3.905,3.905-10.237,3.905-14.143,0l-8.902-8.902c-4.863,2.452-9.896,4.539-15.06,6.245v12.582  C162.845,251.536,158.368,256.013,152.845,256.013z M113.16,236.013h29.686v-10.078c0-4.578,3.109-8.572,7.548-9.695  c8.485-2.146,16.613-5.517,24.155-10.017c3.933-2.345,8.957-1.722,12.194,1.517l7.134,7.135l20.992-20.992l-7.135-7.134  c-3.238-3.238-3.863-8.262-1.517-12.194c4.501-7.545,7.871-15.672,10.017-24.155c1.123-4.439,5.116-7.548,9.695-7.548h10.079  v-29.686h-10.079c-4.579,0-8.572-3.109-9.695-7.548c-2.146-8.482-5.515-16.61-10.017-24.155c-2.346-3.933-1.721-8.956,1.517-12.194  l7.135-7.134l-20.992-20.992l-7.134,7.135c-3.238,3.238-8.26,3.863-12.194,1.517c-7.545-4.501-15.672-7.871-24.155-10.017  c-4.439-1.123-7.548-5.116-7.548-9.695V20.006H113.16v10.079c0,4.579-3.109,8.572-7.548,9.695  c-8.483,2.146-16.611,5.516-24.155,10.017c-3.933,2.346-8.957,1.72-12.194-1.517l-7.134-7.135L41.137,62.136l7.135,7.134  c3.238,3.238,3.863,8.262,1.517,12.194c-4.501,7.545-7.871,15.673-10.017,24.155c-1.123,4.439-5.116,7.548-9.695,7.548H20v29.686  h10.078c4.578,0,8.572,3.109,9.695,7.548c2.146,8.485,5.517,16.613,10.017,24.155c2.346,3.933,1.721,8.956-1.517,12.194  l-7.135,7.134l20.992,20.992l7.134-7.135c3.238-3.236,8.263-3.863,12.194-1.517c7.543,4.5,15.671,7.87,24.155,10.017  c4.438,1.123,7.548,5.117,7.548,9.695v10.079H113.16z"/>
<path d="M128.003,190.023c-34.194,0-62.014-27.819-62.014-62.014c0-14.015,4.809-27.751,13.54-38.681  c3.447-4.315,9.74-5.018,14.055-1.571c4.315,3.447,5.019,9.739,1.571,14.055c-5.997,7.506-9.166,16.565-9.166,26.198  c0,23.166,18.848,42.014,42.014,42.014s42.014-18.848,42.014-42.014c0-10.104-3.638-19.868-10.243-27.493  c-3.616-4.174-3.163-10.49,1.011-14.106c4.174-3.616,10.49-3.164,14.106,1.011c9.754,11.26,15.126,25.674,15.126,40.587  C190.017,162.204,162.197,190.023,128.003,190.023z"/>
<path d="M127.119,86.003c-5.445,0-9.904-4.368-9.995-9.833c-0.092-5.522,4.31-10.073,9.832-10.165  c0.348-0.006,0.697-0.009,1.047-0.009c5.523,0,10,4.477,10,10s-4.477,10-10,10c-0.239,0-0.477,0.002-0.714,0.006  C127.232,86.002,127.175,86.003,127.119,86.003z"/>
<path d="M376.663,155.003h-39.999c-5.523,0-10-4.477-10-10v-12.106c-1.005-0.545-1.995-1.119-2.97-1.718l-10.487,6.054  c-4.784,2.761-10.899,1.124-13.66-3.66l-20-34.64c-2.762-4.783-1.123-10.899,3.66-13.66l10.482-6.052  c-0.017-0.576-0.025-1.148-0.025-1.717s0.008-1.142,0.025-1.717l-10.482-6.052c-4.783-2.761-6.422-8.877-3.66-13.66l20-34.64  c2.761-4.784,8.876-6.422,13.66-3.66l10.487,6.054c0.975-0.6,1.965-1.173,2.97-1.718V10.007c0-5.523,4.477-10,10-10h39.999  c5.523,0,10,4.477,10,10v12.105c1.005,0.545,1.995,1.119,2.97,1.718l10.487-6.054c4.782-2.762,10.899-1.123,13.66,3.66l20,34.64  c2.762,4.783,1.123,10.899-3.66,13.66l-10.482,6.052c0.017,0.576,0.025,1.148,0.025,1.717s-0.008,1.142-0.025,1.717l10.482,6.052  c4.783,2.761,6.422,8.877,3.66,13.66l-20,34.64c-2.762,4.783-8.878,6.422-13.66,3.66l-10.487-6.054  c-0.975,0.6-1.965,1.173-2.97,1.718v12.105C386.663,150.526,382.186,155.003,376.663,155.003z M346.664,135.004h20v-8.417  c0-4.064,2.46-7.725,6.224-9.259c3.617-1.475,7.026-3.448,10.133-5.864c3.21-2.496,7.614-2.8,11.138-0.765l7.303,4.216l10-17.32  l-7.299-4.214c-3.517-2.03-5.456-5.985-4.909-10.009c0.272-2.002,0.411-3.976,0.411-5.867s-0.138-3.865-0.411-5.867  c-0.547-4.023,1.392-7.979,4.909-10.009l7.299-4.214l-10-17.32l-7.303,4.216c-3.524,2.034-7.926,1.73-11.138-0.765  c-3.107-2.416-6.516-4.389-10.133-5.864c-3.764-1.535-6.224-5.195-6.224-9.259v-8.417h-20v8.417c0,4.064-2.46,7.724-6.223,9.259  c-3.618,1.476-7.026,3.448-10.132,5.863c-3.211,2.497-7.615,2.8-11.138,0.766l-7.303-4.216l-10,17.32l7.299,4.214  c3.517,2.031,5.457,5.987,4.908,10.011c-0.272,1.998-0.41,3.971-0.41,5.865s0.138,3.867,0.41,5.865  c0.549,4.024-1.391,7.98-4.908,10.011l-7.299,4.214l10,17.32l7.303-4.216c3.524-2.035,7.927-1.731,11.138,0.766  c3.106,2.415,6.515,4.388,10.132,5.863c3.763,1.535,6.223,5.195,6.223,9.259V135.004z"/>
<path d="M356.664,105.995c-16.542,0-29.999-13.458-29.999-29.999s13.458-29.999,29.999-29.999c16.542,0,29.999,13.458,29.999,29.999  S373.205,105.995,356.664,105.995z M356.664,65.996c-5.514,0-10,4.486-10,10s4.486,10,10,10c5.514,0,10-4.486,10-10  S362.177,65.996,356.664,65.996z"/>
<g>
</g>
<g>
</g>
<g>
</g>
<g>
</g>
<g>
</g>
<g>
</g>
<g>
</g>
<g>
</g>
<g>
</g>
<g>
</g>
<g>
</g>
<g>
</g>
<g>
</g>
<g>
</g>
<g>
</g>
</svg>
