<?xml version="1.0" encoding="iso-8859-1"?>
<!-- Generator: Adobe Illustrator 19.0.0, SVG Export Plug-In . SVG Version: 6.00 Build 0)  -->
<svg xmlns="http://www.w3.org/2000/svg" xmlns:xlink="http://www.w3.org/1999/xlink" version="1.1" id="Capa_1" x="0px" y="0px" viewBox="0 0 512 512" style="enable-background:new 0 0 512 512;" xml:space="preserve">
<circle style="fill:#41C0F0;" cx="256" cy="256" r="246"/>
<path style="fill:#F4B831;" d="M429.948,82.052C385.431,37.534,323.931,10,256,10v246L429.948,82.052z"/>
<path style="fill:#2BBA68;" d="M256,10C120.138,10,10,120.138,10,256h246V10z"/>
<path style="fill:#BEE9F4;" d="M256,502c67.931,0,129.431-27.535,173.948-72.052L256,256H10C10,391.862,120.138,502,256,502z"/>
<path d="M437.02,74.981C388.667,26.628,324.38,0,256,0S123.333,26.628,74.98,74.981C26.629,123.333,0,187.62,0,256  s26.629,132.667,74.98,181.019C123.333,485.372,187.62,512,256,512s132.667-26.628,181.02-74.981  C485.371,388.667,512,324.38,512,256S485.371,123.333,437.02,74.981z M246,20.227V246H20.227  C25.348,123.808,123.809,25.347,246,20.227z M20.227,266h231.631l163.714,163.713C373.529,468.364,317.476,492,256,492  C129.221,492,25.486,391.509,20.227,266z M429.713,415.57L270.143,256l110.179-110.179c3.905-3.905,3.905-10.237,0-14.143  c-3.906-3.905-10.236-3.905-14.143,0L266,231.857V20.227C391.509,25.487,492,129.22,492,256  C492,317.475,468.364,373.528,429.713,415.57z"/>
<path d="M214.715,441.504c-38.233-8.469-72.487-28.327-99.058-57.426c-3.726-4.079-10.05-4.365-14.128-0.642  c-4.078,3.724-4.365,10.049-0.642,14.128c29.362,32.155,67.227,54.102,109.501,63.466c0.729,0.162,1.456,0.239,2.173,0.239  c4.586,0,8.721-3.176,9.754-7.839C223.51,448.038,220.106,442.699,214.715,441.504z"/>
<path d="M256.084,446c-0.028,0-0.056,0-0.084,0c-6.352,0-10.158,5.074-10.168,9.979c-0.011,4.906,3.774,9.996,10.125,10.022  c0.018,0,0.033,0,0.051,0c6.32,0,10.129-5.045,10.159-9.937C266.198,451.16,262.436,446.054,256.084,446z"/>
<path d="M404.75,97.25c-2.63,0-5.21,1.07-7.07,2.93c-1.86,1.86-2.93,4.44-2.93,7.07s1.069,5.21,2.93,7.07s4.44,2.93,7.07,2.93  c2.64,0,5.21-1.07,7.069-2.93c1.86-1.86,2.931-4.44,2.931-7.07s-1.07-5.21-2.931-7.07C409.96,98.32,407.38,97.25,404.75,97.25z"/>
<g>
</g>
<g>
</g>
<g>
</g>
<g>
</g>
<g>
</g>
<g>
</g>
<g>
</g>
<g>
</g>
<g>
</g>
<g>
</g>
<g>
</g>
<g>
</g>
<g>
</g>
<g>
</g>
<g>
</g>
</svg>
