<?xml version="1.0" encoding="iso-8859-1"?>
<!-- Generator: Adobe Illustrator 19.0.0, SVG Export Plug-In . SVG Version: 6.00 Build 0)  -->
<svg xmlns="http://www.w3.org/2000/svg" xmlns:xlink="http://www.w3.org/1999/xlink" version="1.1" id="Capa_1" x="0px" y="0px" viewBox="0 0 512 512" style="enable-background:new 0 0 512 512;" xml:space="preserve">
<rect x="196" y="382" style="fill:#F67B37;" width="120" height="120"/>
<rect x="10" y="382" style="fill:#0D93D6;" width="120" height="120"/>
<rect x="382" y="382" style="fill:#BCBEC0;" width="120" height="120"/>
<polygon style="fill:#41C0F0;" points="130,382 145,308 49,308 10,382 "/>
<polygon style="fill:#F1F2F2;" points="384,382 367,308 463,308 502,382 "/>
<polygon style="fill:#F4B831;" points="196,382 208,308 304,308 316,382 "/>
<polygon style="fill:#FBF6A2;" points="330,84 256,10 182,84 208,84 208,308 304,308 304,84 "/>
<polygon style="fill:#BEE9F4;" points="171,157.985 97,83.985 23,157.985 49,157.985 49,308 145,308 145,157.985 "/>
<polygon style="fill:#FFFFFF;" points="341,157.985 415,83.985 489,157.985 463,157.985 463,308 367,308 367,157.985 "/>
<path d="M104.071,76.914c-3.905-3.906-10.237-3.906-14.143,0l-74,74c-2.86,2.86-3.715,7.161-2.167,10.897  c1.548,3.737,5.194,6.173,9.239,6.173h16v137.542L1.153,377.338C0.396,378.775,0,380.376,0,382v120c0,5.523,4.477,10,10,10h120  c5.523,0,10-4.477,10-10V383.004l14.801-73.017c0.132-0.654,0.199-1.32,0.199-1.987V167.985h16c4.044,0,7.691-2.437,9.239-6.173  s0.692-8.038-2.167-10.897L104.071,76.914z M97,98.127l49.858,49.858H145c-5.523,0-10,4.477-10,10V298H59V157.985  c0-5.523-4.477-10-10-10h-1.858L97,98.127z M55.034,318h77.736l-10.946,54h-95.25L55.034,318z M20,492V392h100v100H20z"/>
<path d="M510.847,377.338L473,305.526V167.985h16c4.044,0,7.691-2.437,9.239-6.173s0.692-8.038-2.167-10.897l-74-74  c-3.905-3.906-10.237-3.906-14.143,0l-74,74c-2.86,2.86-3.715,7.161-2.167,10.897c1.548,3.737,5.194,6.173,9.239,6.173h16V308  c0,0.667,0.067,1.333,0.199,1.987l14.8,73.017V502c0,5.523,4.477,10,10,10h120c5.523,0,10-4.477,10-10V382  C512,380.376,511.604,378.775,510.847,377.338z M485.426,372h-95.249l-10.946-54h76.27c0.479,0,0.947-0.045,1.408-0.11L485.426,372z   M415,98.127l49.858,49.858H463c-5.523,0-10,4.477-10,10V298h-76V157.985c0-5.523-4.477-10-10-10h-1.858L415,98.127z M392,492V392  h100v100H392z"/>
<path d="M304,185.99c-2.63,0-5.21,1.07-7.07,2.93c-1.86,1.86-2.93,4.44-2.93,7.07c0,2.64,1.07,5.21,2.93,7.07s4.44,2.93,7.07,2.93  s5.21-1.07,7.07-2.93c1.86-1.86,2.93-4.44,2.93-7.07s-1.07-5.21-2.93-7.07S306.63,185.99,304,185.99z"/>
<path d="M314,94h16c4.044,0,7.691-2.437,9.239-6.173s0.692-8.038-2.167-10.898l-74-74c-3.905-3.905-10.237-3.905-14.143,0l-74,74  c-2.86,2.86-3.715,7.162-2.167,10.898C174.309,91.564,177.956,94,182,94h16v213.194L186.129,380.4  c-0.086,0.529-0.129,1.064-0.129,1.6v120c0,5.523,4.477,10,10,10h120c5.523,0,10-4.477,10-10V382c0-0.536-0.043-1.071-0.129-1.601  L314,307.195V241.5c0-5.523-4.477-10-10-10s-10,4.477-10,10V298h-76V84c0-5.523-4.477-10-10-10h-1.858L256,24.142L305.858,74H304  c-5.523,0-10,4.477-10,10v67c0,5.523,4.477,10,10,10s10-4.477,10-10V94z M295.491,318l8.757,54h-96.495l8.757-54H295.491z M206,492  V392h100v100H206z"/>
<path d="M259.514,403.409h-21.527c-5.523,0-10,4.477-10,10v29v29c0,5.523,4.477,10,10,10h21.527c13.509,0,24.5-10.991,24.5-24.5  c0-5.422-1.774-10.437-4.767-14.5c2.994-4.063,4.767-9.078,4.767-14.5C284.014,414.4,273.023,403.409,259.514,403.409z   M247.986,423.409h11.527c2.481,0,4.5,2.019,4.5,4.5s-2.019,4.5-4.5,4.5h-11.527V423.409z M259.514,461.409h-11.527v-9h11.527  c2.481,0,4.5,2.019,4.5,4.5S261.995,461.409,259.514,461.409z"/>
<path d="M454.153,423.409h7.028c5.523,0,10-4.477,10-10s-4.477-10-10-10h-7.028c-21.505,0-39,17.495-39,39s17.495,39,39,39h7.028  c5.523,0,10-4.477,10-10s-4.477-10-10-10h-7.028c-10.477,0-19-8.523-19-19S443.676,423.409,454.153,423.409z"/>
<path d="M79.054,409.164c-1.646-3.512-5.175-5.755-9.054-5.755s-7.408,2.243-9.054,5.755l-27.192,58  c-2.345,5.001-0.191,10.955,4.809,13.299c5.003,2.347,10.956,0.191,13.299-4.809l4.1-8.745h28.076l4.1,8.745  c1.701,3.628,5.302,5.757,9.061,5.757c1.421,0,2.866-0.305,4.238-0.948c5-2.344,7.154-8.298,4.809-13.299L79.054,409.164z   M65.339,446.909L70,436.967l4.661,9.942H65.339z"/>
<g>
</g>
<g>
</g>
<g>
</g>
<g>
</g>
<g>
</g>
<g>
</g>
<g>
</g>
<g>
</g>
<g>
</g>
<g>
</g>
<g>
</g>
<g>
</g>
<g>
</g>
<g>
</g>
<g>
</g>
</svg>
