<?xml version="1.0" encoding="iso-8859-1"?>
<!-- Generator: Adobe Illustrator 19.0.0, SVG Export Plug-In . SVG Version: 6.00 Build 0)  -->
<svg xmlns="http://www.w3.org/2000/svg" xmlns:xlink="http://www.w3.org/1999/xlink" version="1.1" id="Capa_1" x="0px" y="0px" viewBox="0 0 512 512" style="enable-background:new 0 0 512 512;" xml:space="preserve">
<rect x="178" y="50" style="fill:#41C0F0;" width="156" height="285.82"/>
<ellipse style="fill:#BEE9F4;" cx="255.99" cy="50" rx="77.998" ry="40"/>
<rect x="255.99" y="291.64" style="fill:#F4B831;" width="156" height="210.36"/>
<ellipse style="fill:#FBF6A2;" cx="333.99" cy="295.99" rx="77.998" ry="40"/>
<rect x="100" y="216.18" style="fill:#F25353;" width="156" height="285.82"/>
<ellipse style="fill:#F99BB6;" cx="178" cy="216.18" rx="77.998" ry="40"/>
<path d="M502,492h-80.004V295.994c0-0.057-0.008-0.112-0.009-0.168c-0.077-14.558-10.11-27.698-28.279-37.014  c-13.693-7.023-31.066-11.352-49.713-12.499V50c0-0.057-0.008-0.112-0.009-0.168c-0.077-14.558-10.11-27.698-28.279-37.014  C299.592,4.552,278.385,0,255.993,0c-22.391,0-43.599,4.552-59.716,12.817C178.04,22.17,167.996,35.375,167.996,50  c0,0.076,0.004,0.151,0.005,0.227v116.267c-18.649,1.146-36.024,5.476-49.719,12.499C100.044,188.346,90,201.551,90,216.176  c0,0.076,0.004,0.151,0.005,0.227V492H10c-5.522,0-10,4.478-10,10s4.478,10,10,10h492c5.522,0,10-4.478,10-10S507.522,492,502,492z   M401.991,295.994c0,14.161-29.08,30-67.998,30c-38.848,0-67.888-15.781-67.992-29.923v-0.077c0-0.007-0.001-0.013-0.001-0.019  v-0.042c0.084-14.146,29.131-29.938,67.993-29.938C372.911,265.994,401.991,281.833,401.991,295.994z M323.996,246.312  c-7.478,0.46-14.751,1.427-21.663,2.881V168.07c0-5.522-4.478-10-10-10s-10,4.478-10,10v87.101c-2.799,1.121-5.498,2.328-8.056,3.64  c-2.982,1.53-5.741,3.164-8.277,4.889v-47.524c0-0.057-0.008-0.112-0.009-0.168c-0.077-14.558-10.11-27.698-28.278-37.014  c-13.694-7.022-31.067-11.352-49.713-12.499v-84.2c2.536,1.725,5.294,3.359,8.276,4.888C212.395,95.448,233.603,100,255.993,100  c22.392,0,43.599-4.552,59.716-12.817c2.986-1.531,5.748-3.168,8.287-4.895L323.996,246.312L323.996,246.312z M255.993,20  c38.918,0,67.998,15.839,67.998,30s-29.08,30-67.998,30c-38.848,0-67.888-15.781-67.992-29.923V50c0-0.014-0.002-0.028-0.002-0.043  C188.057,35.807,217.114,20,255.993,20z M177.998,186.176c38.918,0,67.997,15.839,67.997,30s-29.079,30-67.997,30  c-38.848,0-67.889-15.781-67.993-29.923v-0.077c0-0.014-0.002-0.028-0.002-0.043C110.061,201.983,139.119,186.176,177.998,186.176z   M153.083,492V390.736c0-5.522-4.478-10-10-10s-10,4.478-10,10V492h-23.078V248.47c2.536,1.725,5.295,3.359,8.277,4.889  c16.117,8.266,37.325,12.817,59.716,12.817s43.598-4.552,59.716-12.817c2.986-1.531,5.748-3.168,8.286-4.895v47.349  c0,0.061-0.004,0.121-0.004,0.182s0.003,0.121,0.004,0.182V492H153.083z M266.001,492V328.288c2.536,1.725,5.294,3.359,8.276,4.888  c16.118,8.266,37.325,12.817,59.716,12.817s43.599-4.552,59.716-12.817c2.986-1.531,5.748-3.168,8.287-4.896V492H266.001z"/>
<path d="M292.33,117.71c-2.63,0-5.21,1.07-7.07,2.93c-1.86,1.86-2.93,4.44-2.93,7.07s1.069,5.21,2.93,7.07  c1.87,1.869,4.44,2.93,7.07,2.93s5.21-1.061,7.069-2.93c1.87-1.86,2.931-4.44,2.931-7.07s-1.061-5.21-2.931-7.07  C297.54,118.78,294.96,117.71,292.33,117.71z"/>
<path d="M143.08,340.38c-2.63,0-5.21,1.07-7.07,2.93s-2.93,4.44-2.93,7.07s1.069,5.21,2.93,7.07c1.86,1.859,4.44,2.93,7.07,2.93  c2.64,0,5.21-1.07,7.069-2.93c1.87-1.87,2.931-4.44,2.931-7.07s-1.061-5.21-2.931-7.07C148.29,341.45,145.71,340.38,143.08,340.38z"/>
<g>
</g>
<g>
</g>
<g>
</g>
<g>
</g>
<g>
</g>
<g>
</g>
<g>
</g>
<g>
</g>
<g>
</g>
<g>
</g>
<g>
</g>
<g>
</g>
<g>
</g>
<g>
</g>
<g>
</g>
</svg>
