<?xml version="1.0" encoding="iso-8859-1"?>
<!-- Generator: Adobe Illustrator 19.0.0, SVG Export Plug-In . SVG Version: 6.00 Build 0)  -->
<svg xmlns="http://www.w3.org/2000/svg" xmlns:xlink="http://www.w3.org/1999/xlink" version="1.1" id="Capa_1" x="0px" y="0px" viewBox="0 0 512 512" style="enable-background:new 0 0 512 512;" xml:space="preserve">
<path style="fill:#2BBA68;" d="M256,64.16V256L89.839,160.067C73.51,188.288,64.16,221.051,64.16,256  c0,105.95,85.89,191.84,191.84,191.84S447.84,361.95,447.84,256S361.95,64.16,256,64.16z"/>
<path style="fill:#41C0F0;" d="M220,188.95V12.63c-61.867,9.073-116.25,41.166-154.165,87.313L220,188.95z"/>
<path d="M256,457.84c-111.295,0-201.84-90.545-201.84-201.84c0-35.482,9.345-70.388,27.023-100.941  c2.764-4.777,8.875-6.413,13.656-3.652L246,238.68V64.16c0-5.522,4.477-10,10-10c111.295,0,201.84,90.545,201.84,201.84  S367.295,457.84,256,457.84z M93.732,173.861C80.901,199.192,74.16,227.384,74.16,256c0,100.267,81.573,181.84,181.84,181.84  S437.84,356.267,437.84,256c0-96.913-76.203-176.362-171.84-181.568V256c0,3.572-1.906,6.874-5,8.66c-3.094,1.787-6.905,1.787-10,0  L93.732,173.861z"/>
<path d="M220,198.949c-1.727,0-3.453-0.446-5-1.34L60.835,108.603c-2.544-1.469-4.314-3.982-4.839-6.873s0.247-5.865,2.112-8.136  c40.56-49.365,97.539-81.633,160.44-90.858c2.875-0.419,5.791,0.428,7.989,2.328C228.736,6.963,230,9.725,230,12.63v176.319  c0,3.572-1.906,6.874-5,8.66C223.453,198.503,221.727,198.949,220,198.949z M81.305,97.327L210,171.629V24.493  C160.43,34.279,115.433,59.744,81.305,97.327z"/>
<path d="M256,512c-68.38,0-132.667-26.629-181.019-74.98C26.628,388.667,0,324.38,0,256c0-44.973,11.835-89.215,34.226-127.945  c2.764-4.781,8.882-6.416,13.662-3.652c4.781,2.764,6.417,8.881,3.652,13.662C30.907,173.756,20,214.538,20,256  c0,130.131,105.869,236,236,236s236-105.869,236-236S386.131,20,256,20c-5.523,0-10-4.478-10-10s4.477-10,10-10  c68.38,0,132.667,26.629,181.02,74.98C485.372,123.333,512,187.62,512,256s-26.628,132.667-74.98,181.02  C388.667,485.371,324.38,512,256,512z"/>
<path d="M301.71,411.136c-4.25,0-8.191-2.73-9.535-6.999c-1.659-5.268,1.266-10.883,6.534-12.542  c27.721-8.73,51.824-25.569,69.704-48.695c3.377-4.37,9.657-5.175,14.027-1.795c4.37,3.378,5.173,9.658,1.795,14.027  c-20.388,26.371-47.885,45.576-79.519,55.539C303.718,410.985,302.705,411.136,301.71,411.136z"/>
<path d="M256,418.127c-5.523,0-10-4.478-10-10s4.477-10,10-10l1.18-0.005c5.519-0.031,10.031,4.407,10.07,9.93  c0.039,5.522-4.407,10.031-9.93,10.07L256,418.127z"/>
<g>
</g>
<g>
</g>
<g>
</g>
<g>
</g>
<g>
</g>
<g>
</g>
<g>
</g>
<g>
</g>
<g>
</g>
<g>
</g>
<g>
</g>
<g>
</g>
<g>
</g>
<g>
</g>
<g>
</g>
</svg>
