<?xml version="1.0" encoding="iso-8859-1"?>
<!-- Generator: Adobe Illustrator 19.0.0, SVG Export Plug-In . SVG Version: 6.00 Build 0)  -->
<svg xmlns="http://www.w3.org/2000/svg" xmlns:xlink="http://www.w3.org/1999/xlink" version="1.1" id="Capa_1" x="0px" y="0px" viewBox="0 0 512 512" style="enable-background:new 0 0 512 512;" xml:space="preserve">
<path style="fill:#FFFFFF;" d="M447.986,128.484L329.502,10H64.011v492h383.975L447.986,128.484L447.986,128.484z"/>
<path style="fill:#2BBA68;" d="M329.505,128.484h118.481L329.505,10.002V128.484z"/>
<path d="M447.986,262.333c5.523,0,10-4.477,10-10V128.484c0-2.652-1.054-5.196-2.929-7.071L336.573,2.929  C334.698,1.054,332.154,0,329.502,0H64.011c-5.523,0-10,4.477-10,10v492c0,5.523,4.477,10,10,10h383.975c5.523,0,10-4.477,10-10V341  c0-5.523-4.477-10-10-10s-10,4.477-10,10v151H74.011V20h245.493v108.484c0,5.523,4.477,10,10,10h108.481v113.849  C437.986,257.856,442.463,262.333,447.986,262.333z M339.505,34.145l84.339,84.339h-84.339V34.145z"/>
<path d="M447.989,306c-2.63,0-5.21-1.07-7.07-2.93c-1.87-1.86-2.93-4.44-2.93-7.07s1.06-5.21,2.93-7.07  c1.86-1.86,4.44-2.93,7.07-2.93s5.21,1.07,7.07,2.93c1.86,1.86,2.93,4.44,2.93,7.07s-1.07,5.21-2.93,7.07  C453.189,304.93,450.618,306,447.989,306z"/>
<path style="fill:#F25353;" d="M280.532,251.474h98.218c-6.048-51.402-46.817-92.172-98.218-98.223L280.532,251.474L280.532,251.474  z"/>
<path d="M378.749,261.474h-98.217c-5.523,0-10-4.477-10-10v-98.223c0-2.856,1.221-5.575,3.355-7.473  c2.134-1.897,4.98-2.794,7.814-2.458c27.083,3.188,52.659,15.606,72.018,34.966c19.358,19.359,31.775,44.937,34.962,72.02  c0.333,2.836-0.561,5.68-2.459,7.813C384.324,260.253,381.605,261.474,378.749,261.474z M290.532,241.474h76.35  c-8.759-38.027-38.323-67.594-76.35-76.355V241.474z"/>
<path style="fill:#12ADDD;" d="M249.698,282.308V174.602c-59.481,0-107.7,48.219-107.7,107.7s48.219,107.7,107.7,107.7  c59.479,0,107.696-48.215,107.7-107.694H249.698z"/>
<path d="M249.698,400.001c-5.523,0-10-4.477-10-10s4.477-10,10-10l0.498-0.001c0.018,0,0.037,0,0.054,0  c5.499,0,9.97,4.442,9.999,9.947c0.029,5.523-4.424,10.024-9.947,10.053L249.698,400.001z"/>
<path d="M210.407,392.613c-1.214,0-2.448-0.223-3.647-0.692c-21.788-8.541-40.388-23.251-53.788-42.541  c-13.721-19.751-20.974-42.947-20.974-67.079c0-64.9,52.8-117.7,117.7-117.7c5.523,0,10,4.477,10,10v97.706h97.7  c2.652,0,5.196,1.054,7.071,2.929s2.929,4.419,2.929,7.071c-0.002,47.41-28.221,89.976-71.89,108.443  c-5.087,2.15-10.954-0.228-13.105-5.315s0.229-10.954,5.315-13.105c33.152-14.019,55.577-44.767,59.172-80.022h-97.192  c-5.523,0-10-4.477-10-10V185.11c-49.19,5.026-87.7,46.697-87.7,97.192c0,40.501,24.36,76.22,62.061,90.999  c5.142,2.015,7.676,7.817,5.661,12.959C218.174,390.203,214.401,392.613,210.407,392.613z"/>
<path d="M357.398,292.307c-5.523,0-10-4.478-10-10c0-0.167,0.004-0.333,0.013-0.5c0.258-5.292,4.631-9.504,9.988-9.504  c5.523,0,10,4.477,10,10c0,0.003,0,0.007,0,0.011c0,0.001,0,0.003,0,0.004c0,0.002,0,0.005,0,0.007c0,0.001,0,0.003,0,0.004  c0,0.002,0,0.004,0,0.006c0,0.001,0,0.003,0,0.005s0,0.004,0,0.006c0,0.003,0,0.005,0,0.008s0,0.005,0,0.007s0,0.004,0,0.006  c0,0.001,0,0.003,0,0.004c0,0.002,0,0.004,0,0.006c0,0.001,0,0.003,0,0.004c0,0.002,0,0.004,0,0.007c0,0,0,0.001,0,0.002  c-0.001,0.127-0.004,0.254-0.011,0.382C367.144,288.08,362.765,292.307,357.398,292.307z"/>
<g>
</g>
<g>
</g>
<g>
</g>
<g>
</g>
<g>
</g>
<g>
</g>
<g>
</g>
<g>
</g>
<g>
</g>
<g>
</g>
<g>
</g>
<g>
</g>
<g>
</g>
<g>
</g>
<g>
</g>
</svg>
