<?xml version="1.0" encoding="iso-8859-1"?>
<!-- Generator: Adobe Illustrator 19.0.0, SVG Export Plug-In . SVG Version: 6.00 Build 0)  -->
<svg xmlns="http://www.w3.org/2000/svg" xmlns:xlink="http://www.w3.org/1999/xlink" version="1.1" id="Capa_1" x="0px" y="0px" viewBox="0 0 512 512" style="enable-background:new 0 0 512 512;" xml:space="preserve">
<circle style="fill:#F25353;" cx="256" cy="256" r="78"/>
<path style="fill:#F4B831;" d="M256,10v64c100.355,0,182,81.645,182,182s-81.645,182-182,182S74,356.355,74,256H10  c0,135.862,110.138,246,246,246s246-110.138,246-246S391.862,10,256,10z"/>
<path d="M200.764,210.913c-2.564,0-5.129-0.98-7.083-2.941c-3.898-3.912-3.888-10.243,0.023-14.142l0.147-0.147  c3.912-3.898,10.242-3.888,14.143,0.023c3.898,3.912,3.888,10.244-0.023,14.143l-0.147,0.147  C205.871,209.94,203.317,210.913,200.764,210.913z"/>
<path d="M255.995,343.959c-22.536,0-45.071-8.578-62.229-25.734c-23.691-23.692-31.846-58.181-21.281-90.007  c1.741-5.242,7.403-8.079,12.642-6.34c5.241,1.74,8.08,7.399,6.341,12.641c-8.167,24.601-1.866,51.256,16.441,69.564  c13.256,13.255,30.674,19.884,48.086,19.886c17.417,0.001,34.828-6.627,48.087-19.886c26.515-26.515,26.515-69.658,0-96.173  c-17.744-17.745-43.713-24.259-67.772-17.009c-5.284,1.595-10.866-1.4-12.46-6.688c-1.594-5.288,1.4-10.867,6.688-12.46  c31.125-9.384,64.724-0.946,87.687,22.016c34.312,34.313,34.312,90.144,0,124.457C301.068,335.38,278.531,343.959,255.995,343.959z"/>
<path d="M391.375,387.518c-2.387,0-4.78-0.849-6.692-2.573c-4.103-3.698-4.43-10.021-0.732-14.123l0.5-0.558  c3.677-4.12,9.997-4.481,14.119-0.805c4.121,3.677,4.481,9.998,0.805,14.119l-0.568,0.635  C396.831,386.404,394.108,387.518,391.375,387.518z"/>
<path d="M256,512c-68.38,0-132.667-26.628-181.02-74.98C26.629,388.667,0,324.38,0,256c0-5.523,4.478-10,10-10h64  c5.522,0,10,4.477,10,10c0,94.841,77.159,172,172,172c35.249,0,69.15-10.633,98.038-30.749c4.533-3.155,10.766-2.04,13.921,2.492  c3.156,4.532,2.041,10.765-2.491,13.921C333.209,436.127,295.355,448,256,448c-102.516,0-186.523-80.76-191.743-182H20.209  C25.47,391.509,129.221,492,256,492c130.131,0,236-105.869,236-236c0-126.779-100.491-230.53-226-235.791v44.048  C367.24,69.477,448,153.484,448,256c0,33.582-8.839,66.656-25.562,95.648c-2.759,4.783-8.873,6.426-13.658,3.666  c-4.784-2.759-6.426-8.875-3.666-13.658C420.086,315.698,428,286.079,428,256c0-94.841-77.159-172-172-172c-5.522,0-10-4.477-10-10  V10c0-5.523,4.478-10,10-10c68.38,0,132.667,26.628,181.02,74.98C485.371,123.333,512,187.62,512,256s-26.629,132.667-74.98,181.02  C388.667,485.372,324.38,512,256,512z"/>
<g>
</g>
<g>
</g>
<g>
</g>
<g>
</g>
<g>
</g>
<g>
</g>
<g>
</g>
<g>
</g>
<g>
</g>
<g>
</g>
<g>
</g>
<g>
</g>
<g>
</g>
<g>
</g>
<g>
</g>
</svg>
