<?xml version="1.0" encoding="iso-8859-1"?>
<!-- Generator: Adobe Illustrator 19.0.0, SVG Export Plug-In . SVG Version: 6.00 Build 0)  -->
<svg xmlns="http://www.w3.org/2000/svg" xmlns:xlink="http://www.w3.org/1999/xlink" version="1.1" id="Capa_1" x="0px" y="0px" viewBox="0 0 512 512" style="enable-background:new 0 0 512 512;" xml:space="preserve">
<path style="fill:#2BBA68;" d="M219.974,10v64c100.355,0,182,81.645,182,182s-81.645,182-182,182  c-50.178,0-95.678-20.411-128.633-53.367l-45.315,45.315C90.543,474.466,152.043,502,219.974,502c135.862,0,246-110.138,246-246  S355.836,10,219.974,10z"/>
<circle style="fill:#F25353;" cx="219.97" cy="256" r="78"/>
<path d="M164.738,210.913c-2.565,0-5.129-0.98-7.083-2.941c-3.898-3.912-3.888-10.243,0.024-14.142l0.147-0.147  c3.912-3.898,10.243-3.889,14.143,0.023c3.898,3.912,3.888,10.244-0.024,14.143l-0.147,0.147  C169.846,209.94,167.292,210.913,164.738,210.913z"/>
<path d="M219.97,343.959c-22.536,0-45.072-8.578-62.229-25.734c-23.691-23.692-31.846-58.18-21.281-90.007  c1.739-5.242,7.4-8.082,12.641-6.34c5.242,1.74,8.08,7.399,6.34,12.641c-8.166,24.601-1.866,51.256,16.442,69.564  c26.515,26.516,69.657,26.516,96.172,0c12.845-12.844,19.918-29.922,19.918-48.086s-7.074-35.242-19.918-48.086  c-17.744-17.745-43.711-24.261-67.772-17.01c-5.286,1.595-10.867-1.4-12.46-6.688c-1.594-5.288,1.4-10.867,6.688-12.46  c31.123-9.384,64.724-0.946,87.687,22.016c16.622,16.622,25.776,38.721,25.776,62.228s-9.154,45.607-25.776,62.229  C265.042,335.381,242.506,343.959,219.97,343.959z"/>
<path d="M352.708,390.397c-2.452,0-4.908-0.896-6.838-2.705c-4.029-3.777-4.233-10.105-0.455-14.135  c0.064-0.069,0.129-0.137,0.195-0.203l0,0l0.171-0.186c3.739-4.066,10.065-4.331,14.129-0.594  c4.066,3.738,4.332,10.063,0.594,14.129c-0.127,0.139-0.256,0.273-0.387,0.403l0.005,0.005l-0.118,0.125  C358.036,389.336,355.375,390.397,352.708,390.397z"/>
<path d="M219.974,512c-68.38,0-132.667-26.628-181.02-74.981c-3.905-3.905-3.905-10.237,0-14.142l45.315-45.314  c3.905-3.905,10.237-3.905,14.143,0C130.937,410.087,174.109,428,219.974,428c30.018,0,59.584-7.884,85.504-22.798  c4.786-2.753,10.901-1.106,13.655,3.68c2.754,4.787,1.107,10.9-3.68,13.655C286.504,439.195,253.487,448,219.974,448  c-47.87,0-93.104-17.47-128.454-49.404l-31.206,31.206C103.971,469.989,160.28,492,219.974,492c130.131,0,236-105.869,236-236  c0-126.779-100.491-230.53-226-235.791v44.048c101.24,5.219,182,89.227,182,191.743c0,30.387-7.314,60.666-21.152,87.561  c-2.527,4.91-8.557,6.844-13.467,4.317c-4.911-2.526-6.844-8.556-4.317-13.467c12.565-24.422,18.936-50.803,18.936-78.411  c0-94.841-77.159-172-172-172c-5.523,0-10-4.477-10-10V10c0-5.523,4.477-10,10-10c68.38,0,132.667,26.628,181.02,74.981  c48.352,48.352,74.98,112.639,74.98,181.019s-26.628,132.667-74.98,181.02S288.355,512,219.974,512z"/>
<g>
</g>
<g>
</g>
<g>
</g>
<g>
</g>
<g>
</g>
<g>
</g>
<g>
</g>
<g>
</g>
<g>
</g>
<g>
</g>
<g>
</g>
<g>
</g>
<g>
</g>
<g>
</g>
<g>
</g>
</svg>
