<?xml version="1.0" encoding="iso-8859-1"?>
<!-- Generator: Adobe Illustrator 19.0.0, SVG Export Plug-In . SVG Version: 6.00 Build 0)  -->
<svg xmlns="http://www.w3.org/2000/svg" xmlns:xlink="http://www.w3.org/1999/xlink" version="1.1" id="Capa_1" x="0px" y="0px" viewBox="0 0 512 512" style="enable-background:new 0 0 512 512;" xml:space="preserve">
<path style="fill:#FFFFFF;" d="M256,392c-75.111,0-136-60.889-136-136c0-75.106,60.883-135.993,135.987-136V10  C120.131,10.007,10,120.142,10,256c0,135.862,110.138,246,246,246s246-110.138,246-246H392C392,331.111,331.111,392,256,392z"/>
<path style="fill:#2BBA68;" d="M256,10c-0.004,0-0.008,0-0.013,0v110c0.004,0,0.008,0,0.013,0c75.111,0,136,60.889,136,136h110  C502,120.138,391.862,10,256,10z"/>
<path d="M256,512c-68.38,0-132.667-26.629-181.02-74.98C26.629,388.667,0,324.38,0,256c0-68.378,26.627-132.663,74.977-181.015  C123.325,26.634,187.609,0.004,255.987,0l0,0C255.989,0,256,0,256,0c68.38,0,132.667,26.629,181.02,74.98  C485.371,123.333,512,187.62,512,256s-26.629,132.667-74.98,181.02C388.667,485.371,324.38,512,256,512z M245.987,20.21  C120.485,25.477,20,129.228,20,256c0,130.131,105.869,236,236,236c126.779,0,230.53-100.49,235.791-225.999h-90.13  C396.505,341.859,333.144,402,256,402c-23.312,0-45.594-5.333-66.227-15.852c-4.92-2.509-6.875-8.53-4.367-13.451  c2.509-4.921,8.53-6.874,13.451-4.367C216.65,377.4,235.876,382,256,382c69.477,0,126-56.523,126-126s-56.523-126-126-126  c-69.481,0.007-126,56.529-126,126c0,21.117,5.321,42.002,15.39,60.396c2.651,4.845,0.873,10.921-3.972,13.573  c-4.844,2.65-10.921,0.874-13.573-3.972C116.171,304.668,110,280.463,110,256c0-77.137,60.136-140.498,135.987-145.66V20.21z   M401.661,246.001h90.13C486.669,123.803,388.188,25.318,265.987,20.209v90.13C338.553,115.271,396.729,173.447,401.661,246.001z   M160.522,362.852c-2.53,0-5.063-0.954-7.01-2.869l-0.735-0.729c-3.914-3.896-3.928-10.229-0.03-14.142  c3.896-3.914,10.229-3.928,14.142-0.03l0.646,0.64c3.938,3.872,3.992,10.203,0.12,14.142  C165.697,361.854,163.11,362.852,160.522,362.852z"/>
<g>
</g>
<g>
</g>
<g>
</g>
<g>
</g>
<g>
</g>
<g>
</g>
<g>
</g>
<g>
</g>
<g>
</g>
<g>
</g>
<g>
</g>
<g>
</g>
<g>
</g>
<g>
</g>
<g>
</g>
</svg>
