<?xml version="1.0" encoding="iso-8859-1"?>
<!-- Generator: Adobe Illustrator 19.0.0, SVG Export Plug-In . SVG Version: 6.00 Build 0)  -->
<svg xmlns="http://www.w3.org/2000/svg" xmlns:xlink="http://www.w3.org/1999/xlink" version="1.1" id="Capa_1" x="0px" y="0px" viewBox="0 0 512 512" style="enable-background:new 0 0 512 512;" xml:space="preserve">
<circle style="fill:#BEE9F4;" cx="256" cy="256" r="246"/>
<path style="fill:#12ADDD;" d="M305.734,70.518L256,256.127L64,256c0,106.039,85.961,192,192,192s192-85.961,192-192  C448,167.163,387.661,92.431,305.734,70.518z"/>
<path d="M256,512c-68.38,0-132.667-26.628-181.02-74.981C26.629,388.667,0,324.38,0,256S26.629,123.333,74.98,74.981  C123.333,26.628,187.62,0,256,0s132.667,26.628,181.02,74.981C485.371,123.333,512,187.62,512,256s-26.629,132.667-74.98,181.019  C388.667,485.372,324.38,512,256,512z M256,20C125.869,20,20,125.869,20,256s105.869,236,236,236s236-105.869,236-236  S386.131,20,256,20z"/>
<path d="M256,458c-111.383,0-202-90.617-202-202c0-2.653,1.054-5.197,2.931-7.072C58.806,247.053,61.349,246,64,246  c0.002,0,0.003,0,0.004,0l45,0.019c5.523,0.002,9.998,4.481,9.996,10.004c-0.002,5.521-4.479,9.996-10,9.996  c-0.002,0-0.003,0-0.004,0l-34.725-0.014C79.482,361.725,159.001,438,256,438c100.355,0,182-81.645,182-182  c0-78.93-51.028-148.675-125.266-172.974l-47.075,175.689c-1.172,4.372-5.134,7.412-9.659,7.412h-0.005l-55.667-0.027  c-5.522-0.003-9.998-4.482-9.995-10.005c0.003-5.521,4.479-9.995,10-9.995c0.002,0,0.003,0,0.005,0l47.99,0.023L296.074,67.93  c1.43-5.332,6.9-8.5,12.243-7.072C396.448,84.429,458,164.675,458,256C458,367.383,367.383,458,256,458z"/>
<path d="M158,266.06c-2.63,0-5.21-1.06-7.07-2.93c-1.86-1.86-2.93-4.44-2.93-7.07s1.069-5.21,2.93-7.07s4.44-2.93,7.07-2.93  s5.21,1.07,7.069,2.93c1.86,1.86,2.931,4.44,2.931,7.07s-1.07,5.21-2.931,7.07C163.21,265,160.63,266.06,158,266.06z"/>
<g>
</g>
<g>
</g>
<g>
</g>
<g>
</g>
<g>
</g>
<g>
</g>
<g>
</g>
<g>
</g>
<g>
</g>
<g>
</g>
<g>
</g>
<g>
</g>
<g>
</g>
<g>
</g>
<g>
</g>
</svg>
