<?xml version="1.0" encoding="iso-8859-1"?>
<!-- Generator: Adobe Illustrator 19.0.0, SVG Export Plug-In . SVG Version: 6.00 Build 0)  -->
<svg xmlns="http://www.w3.org/2000/svg" xmlns:xlink="http://www.w3.org/1999/xlink" version="1.1" id="Capa_1" x="0px" y="0px" viewBox="0 0 512 512" style="enable-background:new 0 0 512 512;" xml:space="preserve">
<path style="fill:#41C0F0;" d="M305.734,70.501L256,256.11l-192-0.127c0,106.039,85.961,192,192,192s192-85.961,192-192  C448,167.146,387.661,92.414,305.734,70.501z"/>
<path style="fill:#F25353;" d="M15.953,202.016L202,202.11l51.319-192.093C137.189,11.259,40.367,92.956,15.953,202.016z"/>
<path d="M256,511.983c-68.38,0-132.667-26.629-181.02-74.98C26.629,388.65,0,324.363,0,255.983c0-5.522,4.478-10,10-10  s10,4.478,10,10c0,130.131,105.869,236,236,236s236-105.869,236-236c0-107.234-72.346-201.11-175.932-228.289  c-5.342-1.402-8.536-6.869-7.135-12.211c1.402-5.343,6.868-8.532,12.211-7.135C433.518,37.833,512,139.664,512,255.983  c0,68.38-26.629,132.667-74.98,181.02C388.667,485.354,324.38,511.983,256,511.983z"/>
<path d="M256,457.983c-111.383,0-202-90.617-202-202c0-2.653,1.055-5.198,2.932-7.073c1.875-1.874,4.418-2.927,7.068-2.927  c0.002,0,0.004,0,0.007,0l184.321,0.122l47.746-178.191c1.429-5.332,6.899-8.499,12.243-7.072  C396.448,84.413,458,164.658,458,255.983C458,367.366,367.383,457.983,256,457.983z M74.271,265.99  c5.211,95.72,84.73,171.993,181.729,171.993c100.355,0,182-81.645,182-182c0-78.931-51.028-148.675-125.266-172.974l-47.075,175.688  c-1.171,4.372-5.134,7.412-9.659,7.412c-0.002,0-0.004,0-0.007,0L74.271,265.99z"/>
<path d="M202,212.11c-0.002,0-0.003,0-0.005,0l-186.047-0.094c-3.035-0.002-5.905-1.381-7.802-3.751  c-1.896-2.369-2.615-5.472-1.952-8.434C18.593,144.44,49.744,94.016,93.906,57.848c22.035-18.047,46.695-32.186,73.296-42.022  c27.507-10.174,56.445-15.492,86.01-15.808c0.036-0.001,0.072-0.001,0.107-0.001c3.087,0,6.003,1.426,7.898,3.867  c1.918,2.47,2.569,5.693,1.763,8.714l-51.319,192.093C210.492,209.066,206.528,212.11,202,212.11z M28.772,192.023l165.55,0.083  l45.84-171.584C140.061,27.093,55.733,95.475,28.772,192.023z"/>
<path d="M301.71,411.119c-4.25,0-8.19-2.73-9.535-6.999c-1.659-5.268,1.267-10.883,6.534-12.542  c27.722-8.73,51.824-25.569,69.704-48.695c3.377-4.371,9.661-5.173,14.027-1.795c4.369,3.378,5.173,9.658,1.795,14.027  c-20.388,26.371-47.885,45.576-79.519,55.539C303.718,410.968,302.705,411.119,301.71,411.119z"/>
<path d="M256,418.11c-5.522,0-10-4.478-10-10s4.478-10,10-10l1.181-0.005c0.023,0,0.048,0,0.072,0c5.49,0,9.959,4.431,9.998,9.93  c0.038,5.522-4.407,10.031-9.93,10.07L256,418.11z"/>
<g>
</g>
<g>
</g>
<g>
</g>
<g>
</g>
<g>
</g>
<g>
</g>
<g>
</g>
<g>
</g>
<g>
</g>
<g>
</g>
<g>
</g>
<g>
</g>
<g>
</g>
<g>
</g>
<g>
</g>
</svg>
