<?xml version="1.0" encoding="iso-8859-1"?>
<!-- Generator: Adobe Illustrator 19.0.0, SVG Export Plug-In . SVG Version: 6.00 Build 0)  -->
<svg xmlns="http://www.w3.org/2000/svg" xmlns:xlink="http://www.w3.org/1999/xlink" version="1.1" id="Capa_1" x="0px" y="0px" viewBox="0 0 512 512" style="enable-background:new 0 0 512 512;" xml:space="preserve">
<path style="fill:#F25353;" d="M120,256c0-75.111,60.889-136,136-136V10C120.138,10,10,120.138,10,256s110.138,246,246,246V392  C180.889,392,120,331.111,120,256z"/>
<path style="fill:#FFFFFF;" d="M256,10c-0.043,0-0.086,0.002-0.129,0.002v110c0.043,0,0.086-0.002,0.129-0.002  c75.111,0,136,60.889,136,136s-60.889,136-136,136c-0.043,0-0.086-0.002-0.129-0.002v110c0.043,0,0.086,0.002,0.129,0.002  c135.862,0,246-110.138,246-246S391.862,10,256,10z"/>
<path d="M437.02,74.98C388.667,26.629,324.38,0,256,0S123.333,26.629,74.98,74.98C26.629,123.333,0,187.62,0,256  s26.629,132.667,74.98,181.02C123.333,485.371,187.62,512,256,512s132.667-26.629,181.02-74.98C485.371,388.667,512,324.38,512,256  S485.371,123.333,437.02,74.98z M20,256C20,129.264,120.422,25.557,245.871,20.231v90.126C170.074,115.577,110,178.9,110,256  s60.074,140.423,135.871,145.643v90.126C120.422,486.443,20,382.736,20,256z M265.871,491.778v-90.115  c58.779-3.942,109.72-42.846,128.613-99.307c1.752-5.237-1.073-10.903-6.311-12.656c-5.237-1.754-10.903,1.073-12.656,6.311  C358.308,347.443,310.277,382,256,382c-69.477,0-126-56.523-126-126s56.523-126,126-126c53.682,0,101.543,34.06,119.097,84.754  c1.806,5.218,7.499,7.984,12.722,6.177c5.219-1.807,7.984-7.502,6.177-12.722c-19.257-55.614-69.992-93.945-128.124-97.87V20.222  C391.44,25.416,492,129.177,492,256S391.44,486.584,265.871,491.778z"/>
<path d="M392.104,245.833c-0.032-0.001-0.063-0.001-0.096-0.001c-4.87,0-9.923,3.732-10.007,10.034C382,255.91,382,255.955,382,256  c0,6.344,5.067,10.152,9.967,10.169c0.012,0,0.021,0,0.032,0c4.89,0,9.961-3.771,10.004-10.101  C402.045,249.724,397.003,245.882,392.104,245.833z"/>
<g>
</g>
<g>
</g>
<g>
</g>
<g>
</g>
<g>
</g>
<g>
</g>
<g>
</g>
<g>
</g>
<g>
</g>
<g>
</g>
<g>
</g>
<g>
</g>
<g>
</g>
<g>
</g>
<g>
</g>
</svg>
