<?xml version="1.0" encoding="iso-8859-1"?>
<!-- Generator: Adobe Illustrator 19.0.0, SVG Export Plug-In . SVG Version: 6.00 Build 0)  -->
<svg xmlns="http://www.w3.org/2000/svg" xmlns:xlink="http://www.w3.org/1999/xlink" version="1.1" id="Capa_1" x="0px" y="0px" viewBox="0 0 512.001 512.001" style="enable-background:new 0 0 512.001 512.001;" xml:space="preserve">
<path style="fill:#41C0F0;" d="M447.001,502l55-55.489l-55-55.489h-25H160.687c-21.896,0-39.709-18.173-39.709-40.511  c0-21.927,17.813-39.767,39.709-39.767h190.627c83.089,0,150.686-67.456,150.686-150.372S434.404,10,351.314,10H10.001l54,54  l-54,56.977h341.314c21.896,0,39.709,17.672,39.709,39.395s-17.813,39.395-39.709,39.395H160.687  C77.597,199.767,10,267.391,10,350.512C10,434.043,77.597,502,160.687,502H447.001z"/>
<path style="fill:#F4B831;" d="M351.314,10H10.001l54,54l-54,56.977h341.313c21.896,0,39.709,17.672,39.709,39.395  s-17.813,39.395-39.709,39.395h-40.422l0.397,0.583l-55,55.489l54.423,54.906h40.602c83.089,0,150.687-67.456,150.687-150.372  S434.403,10,351.314,10z"/>
<polygon style="fill:#F25353;" points="447.001,502 502.001,446.512 447.001,391.023 422.001,391.023 167.176,391.023   222.176,446.512 167.176,502 "/>
<polygon style="fill:#2BBA68;" points="201,120.84 256,65.351 201,9.863 176,9.863 9.001,8.863 64.001,64.351 10.001,120.84 "/>
<path d="M374.418,458h-96.025c-5.522,0-10,4.478-10,10s4.478,10,10,10h96.025c5.522,0,10-4.478,10-10S379.94,458,374.418,458z"/>
<path d="M414.77,458c-2.63,0-5.21,1.069-7.06,2.93c-1.87,1.86-2.931,4.44-2.931,7.07s1.061,5.21,2.931,7.069  c1.85,1.86,4.43,2.931,7.06,2.931c2.641,0,5.21-1.07,7.08-2.931c1.86-1.859,2.93-4.439,2.93-7.069s-1.069-5.21-2.93-7.07  C419.98,459.07,417.411,458,414.77,458z"/>
<path d="M454.103,383.983c-1.878-1.895-4.435-2.96-7.103-2.96H167.224c-0.003,0-0.007,0-0.01,0h-6.527  c-16.382,0-29.709-13.688-29.709-30.511c0-16.414,13.327-29.768,29.709-29.768h190.627c88.603,0,160.686-71.942,160.686-160.372  S439.917,0,351.314,0H10.001c-4.045,0-7.692,2.437-9.24,6.173C-0.787,9.91,0.07,14.211,2.929,17.072l47.116,47.116L2.743,114.099  c-2.749,2.9-3.508,7.158-1.929,10.829c1.578,3.671,5.19,6.05,9.187,6.05h341.313c16.382,0,29.709,13.187,29.709,29.395  s-13.327,29.395-29.709,29.395H160.687C72.084,189.768,0,261.878,0,350.513C0.001,439.557,72.085,512,160.687,512H447  c2.667,0,5.225-1.065,7.103-2.96l55-55.488c3.863-3.898,3.863-10.182,0-14.08L454.103,383.983z M71.258,70.879  c3.728-3.933,3.645-10.118-0.187-13.95L34.143,20h163.114l44.952,45.352l-45.225,45.626H33.255L71.258,70.879z M401.023,160.372  c0-27.236-22.3-49.395-49.709-49.395H225.146l38.246-38.586c3.863-3.898,3.863-10.182,0-14.08L225.419,20h125.896  c77.575,0,140.687,62.971,140.687,140.372s-63.111,140.372-140.687,140.372H314.88l-44.511-44.906l45.667-46.071h35.278  C378.723,209.767,401.023,187.609,401.023,160.372z M20.001,350.512c0-77.607,63.111-140.745,140.687-140.745h127.188  l-38.688,39.031c-3.863,3.898-3.863,10.182,0,14.08l37.532,37.866H160.687c-27.409,0-49.709,22.325-49.709,49.768  c0,27.852,22.3,50.511,49.709,50.511h2.321l45.089,45.489L163.008,492h-2.321C83.112,492,20.001,428.529,20.001,350.512z   M442.833,492H191.169l38.11-38.448c3.863-3.898,3.863-10.182,0-14.08l-38.11-38.449h251.664l45.088,45.489L442.833,492z"/>
<path d="M141.305,77H93.293c-5.522,0-10,4.478-10,10s4.478,10,10,10h48.013c5.522,0,10-4.478,10-10S146.828,77,141.305,77z"/>
<path d="M188.73,79.93c-1.859-1.86-4.43-2.93-7.069-2.93c-2.63,0-5.21,1.069-7.07,2.93s-2.93,4.44-2.93,7.07s1.069,5.21,2.93,7.069  c1.86,1.86,4.44,2.931,7.07,2.931s5.21-1.07,7.069-2.931c1.87-1.859,2.931-4.439,2.931-7.069S190.6,81.79,188.73,79.93z"/>
<g>
</g>
<g>
</g>
<g>
</g>
<g>
</g>
<g>
</g>
<g>
</g>
<g>
</g>
<g>
</g>
<g>
</g>
<g>
</g>
<g>
</g>
<g>
</g>
<g>
</g>
<g>
</g>
<g>
</g>
</svg>
