<?xml version="1.0" encoding="iso-8859-1"?>
<!-- Generator: Adobe Illustrator 19.0.0, SVG Export Plug-In . SVG Version: 6.00 Build 0)  -->
<svg xmlns="http://www.w3.org/2000/svg" xmlns:xlink="http://www.w3.org/1999/xlink" version="1.1" id="Capa_1" x="0px" y="0px" viewBox="0 0 512.002 512.002" style="enable-background:new 0 0 512.002 512.002;" xml:space="preserve">
<circle style="fill:#F25353;" cx="105.995" cy="255.965" r="95.994"/>
<circle style="fill:#41C0F0;" cx="432.005" cy="432.025" r="69.984"/>
<circle style="fill:#F4B831;" cx="432.005" cy="256.095" r="69.984"/>
<circle style="fill:#5EEA96;" cx="432.005" cy="80.166" r="69.984"/>
<path d="M432.992,177.099c-43.558,0-78.995,35.437-78.995,78.995s35.437,78.995,78.995,78.995s78.995-35.437,78.995-78.995  S476.549,177.099,432.992,177.099z M432.992,315.091c-32.53,0-58.996-26.466-58.996-58.996s26.466-58.996,58.996-58.996  s58.996,26.466,58.996,58.996S465.522,315.091,432.992,315.091z"/>
<path d="M488.522,375.425c-3.89-3.921-10.222-3.943-14.141-0.052c-3.92,3.891-3.943,10.221-0.052,14.141l0.132,0.133  c1.954,1.97,4.525,2.955,7.097,2.955c2.547,0,5.095-0.967,7.045-2.903c3.92-3.891,3.943-10.221,0.052-14.141L488.522,375.425z"/>
<path d="M496.117,402.203c-5.288,1.594-8.281,7.172-6.688,12.459c6.398,21.229,0.647,44.142-15.008,59.797  c-23.394,23.395-61.459,23.395-84.852,0c-23.395-23.395-23.395-61.459,0-84.853c16.153-16.153,39.67-21.712,61.377-14.506  c5.243,1.739,10.9-1.098,12.641-6.341c1.739-5.242-1.1-10.9-6.341-12.641c-28.932-9.602-60.282-2.189-81.819,19.346  c-31.191,31.192-31.191,81.944,0,113.137c15.596,15.596,36.082,23.394,56.568,23.394c20.486,0,40.973-7.798,56.568-23.394  c20.873-20.874,28.542-51.417,20.014-79.71C506.983,403.604,501.404,400.609,496.117,402.203z"/>
<path d="M474.487,37.692c1.953,1.952,4.512,2.929,7.071,2.929s5.118-0.977,7.071-2.929c3.905-3.905,3.905-10.236,0-14.142  l-0.132-0.132c-3.906-3.904-10.235-3.904-14.142,0c-3.905,3.905-3.905,10.236,0,14.142L474.487,37.692z"/>
<path d="M431.996,160.052c21.369,0,41.458-8.322,56.568-23.432c20.873-20.874,28.542-51.416,20.014-79.709  c-1.594-5.289-7.174-8.281-12.459-6.688c-5.288,1.594-8.281,7.173-6.688,12.459c6.398,21.228,0.648,44.141-15.008,59.796  c-11.332,11.333-26.399,17.574-42.426,17.574c-16.027,0-31.094-6.241-42.426-17.574c-11.333-11.332-17.574-26.399-17.574-42.426  s6.241-31.094,17.574-42.426c16.153-16.154,39.673-21.713,61.377-14.506c5.239,1.737,10.899-1.099,12.64-6.341  c1.74-5.241-1.098-10.9-6.34-12.641c-28.931-9.603-60.282-2.192-81.819,19.346c-15.109,15.109-23.432,35.199-23.432,56.568  s8.322,41.458,23.432,56.568S410.626,160.052,431.996,160.052z"/>
<path d="M438.284,122.054c5.522,0,9.999-4.478,9.999-9.999V48.059c0-4.24-2.674-8.019-6.672-9.429  c-3.997-1.41-8.45-0.148-11.111,3.152L409.899,67.33c-3.467,4.3-2.792,10.594,1.507,14.061c4.3,3.467,10.594,2.793,14.061-1.507  l2.818-3.495v35.666C428.285,117.578,432.762,122.054,438.284,122.054z"/>
<path d="M454.877,271.4H438.84c10.194-10.21,19.967-23.174,19.967-35.352c0-17.133-11.511-28.644-28.644-28.644  c-15.794,0-28.644,12.85-28.644,28.644c0,5.522,4.478,9.999,9.999,9.999s9.999-4.478,9.999-9.999c0-4.768,3.878-8.645,8.645-8.645  c7.619,0,8.645,4.37,8.645,8.645c0,8.928-19.212,27.34-33.075,37.196c-3.551,2.519-5.064,7.045-3.743,11.191  c1.322,4.147,5.175,6.964,9.527,6.964h43.359c5.522,0,9.999-4.478,9.999-9.999S460.4,271.4,454.877,271.4z"/>
<path d="M431.369,390.028h-12.34c-5.522,0-9.999,4.478-9.999,9.999s4.478,9.999,9.999,9.999h12.34c3.309,0,6,2.691,6,6  c0,3.309-2.691,6-6,6h-12.34c-5.522,0-9.999,4.478-9.999,9.999s4.478,9.999,9.999,9.999h12.34c3.309,0,6,2.691,6,6  c0,3.309-2.691,6-6,6h-12.34c-5.522,0-9.999,4.478-9.999,9.999s4.478,9.999,9.999,9.999h12.34c14.336,0,25.998-11.662,25.998-25.998  c0-6.031-2.07-11.583-5.528-15.999c3.459-4.416,5.528-9.968,5.528-15.999C457.367,401.69,445.704,390.028,431.369,390.028z"/>
<path d="M307.437,176.12c1.238,0.506,2.519,0.746,3.778,0.746c3.942,0,7.678-2.347,9.26-6.221l12.191-29.84  c1.146-2.804,0.959-5.975-0.507-8.623c-1.467-2.65-4.055-4.492-7.038-5.011l-31.759-5.518c-5.438-0.948-10.618,2.698-11.563,8.141  c-0.945,5.441,2.699,10.618,8.14,11.563l3.707,0.644l-99.888,54.598c-19.08-28.116-51.301-46.626-87.766-46.626  C47.549,149.973,0,197.522,0,255.966S47.549,361.96,105.994,361.96c36.414,0,68.595-18.46,87.685-46.51l99.968,54.643l-3.707,0.644  c-5.441,0.945-9.085,6.123-8.14,11.563c0.845,4.862,5.068,8.29,9.84,8.29c0.568,0,1.145-0.049,1.724-0.149l31.759-5.518  c2.983-0.519,5.571-2.36,7.038-5.011c1.466-2.649,1.652-5.82,0.507-8.623l-12.191-29.84c-2.088-5.112-7.922-7.563-13.038-5.475  c-5.112,2.089-7.563,7.927-5.475,13.038l1.491,3.649l-100.135-54.733c4.3-9.934,7.121-20.65,8.186-31.871h82.008l-3.044,2.449  c-4.304,3.462-4.986,9.756-1.524,14.059c1.976,2.456,4.874,3.732,7.798,3.732c2.2,0,4.415-0.723,6.262-2.208l25.117-20.205  c2.36-1.898,3.732-4.764,3.732-7.792s-1.372-5.894-3.732-7.792l-25.117-20.205c-4.3-3.461-10.597-2.779-14.059,1.524  c-3.462,4.303-2.779,10.597,1.524,14.059l2.957,2.379h-81.904c-1.047-11.239-3.854-21.974-8.146-31.925l100.078-54.702l-1.491,3.649  C299.875,168.194,302.326,174.031,307.437,176.12z M105.995,341.962C58.576,341.962,20,303.385,20,255.967  s38.577-85.995,85.995-85.995s85.995,38.577,85.995,85.995S153.413,341.962,105.995,341.962z"/>
<g>
</g>
<g>
</g>
<g>
</g>
<g>
</g>
<g>
</g>
<g>
</g>
<g>
</g>
<g>
</g>
<g>
</g>
<g>
</g>
<g>
</g>
<g>
</g>
<g>
</g>
<g>
</g>
<g>
</g>
</svg>
