<?xml version="1.0" encoding="iso-8859-1"?>
<!-- Generator: Adobe Illustrator 19.0.0, SVG Export Plug-In . SVG Version: 6.00 Build 0)  -->
<svg xmlns="http://www.w3.org/2000/svg" xmlns:xlink="http://www.w3.org/1999/xlink" version="1.1" id="Capa_1" x="0px" y="0px" viewBox="0 0 512 512" style="enable-background:new 0 0 512 512;" xml:space="preserve">
<polygon style="fill:#F25353;" points="256,10 502,502 10,502 "/>
<polygon style="fill:#12ADDD;" points="71.5,379 440.5,379 379.063,256.127 132.937,256.127 "/>
<polygon style="fill:#F4B831;" points="133.064,255.873 378.936,255.873 317.5,133 194.5,133 "/>
<polygon style="fill:#FFFFFF;" points="317.436,132.873 256,10 194.564,132.873 "/>
<path d="M294.679,369h-0.139c-5.523,0-10,4.478-10,10s4.477,10,10,10h0.139c5.523,0,10-4.478,10-10S300.202,369,294.679,369z"/>
<path d="M175,246c-2.63,0-5.21,1.069-7.07,2.93c-1.86,1.86-2.93,4.44-2.93,7.07s1.07,5.21,2.93,7.069  c1.86,1.86,4.44,2.931,7.07,2.931s5.21-1.07,7.07-2.931C183.93,261.2,185,258.63,185,256s-1.07-5.21-2.93-7.07S177.63,246,175,246z"/>
<path d="M510.944,497.528l-246-492C263.25,2.14,259.788,0,256,0c-3.788,0-7.25,2.14-8.944,5.528l-246,492  c-1.55,3.1-1.384,6.781,0.438,9.729C3.315,510.205,6.534,512,10,512h492c3.466,0,6.685-1.795,8.506-4.743  C512.329,504.31,512.494,500.628,510.944,497.528z M256,32.36L301.32,123h-90.64L256,32.36z M26.18,492l51.5-103h174.979  c5.523,0,10-4.478,10-10s-4.477-10-10-10H87.68l113-226h109.653c0.325,0,0.645-0.018,0.962-0.049L362.82,246H215.667  c-5.523,0-10,4.478-10,10s4.477,10,10,10h156.665c0.161,0,0.317-0.017,0.476-0.024L424.32,369H337c-5.523,0-10,4.478-10,10  s4.477,10,10,10h97.32l51.5,103H26.18z"/>
<g>
</g>
<g>
</g>
<g>
</g>
<g>
</g>
<g>
</g>
<g>
</g>
<g>
</g>
<g>
</g>
<g>
</g>
<g>
</g>
<g>
</g>
<g>
</g>
<g>
</g>
<g>
</g>
<g>
</g>
</svg>
