<?xml version="1.0" encoding="iso-8859-1"?>
<!-- Generator: Adobe Illustrator 19.0.0, SVG Export Plug-In . SVG Version: 6.00 Build 0)  -->
<svg version="1.1" id="Layer_1" xmlns="http://www.w3.org/2000/svg" xmlns:xlink="http://www.w3.org/1999/xlink" x="0px" y="0px"
	 viewBox="0 0 512 512" style="enable-background:new 0 0 512 512;" xml:space="preserve">
<path style="fill:#ECEDEF;" d="M106.324,8.017c-9.446,0-17.102,7.656-17.102,17.102v461.762c0,9.446,7.656,17.102,17.102,17.102
	h376.251c9.446,0,17.102-7.656,17.102-17.102V84.977l-76.96-76.96H106.324z"/>
<path style="fill:#D9DCDF;" d="M439.818,84.977h59.858l-76.96-76.96v59.858C422.715,77.319,430.373,84.977,439.818,84.977z"/>
<path style="fill:#C6CACF;" d="M397.063,196.142H89.222V42.221h307.841c4.722,0,8.551,3.829,8.551,8.551v136.818
	C405.614,192.313,401.785,196.142,397.063,196.142z"/>
<polygon style="fill:#DB6B5E;" points="388.512,179.04 12.261,179.04 80.67,110.63 12.261,42.221 388.512,42.221 "/>
<path style="fill:#C6CACF;" d="M414.165,444.125H174.733c-4.722,0-8.551-3.829-8.551-8.551V256c0-4.722,3.829-8.551,8.551-8.551
	h239.432c4.722,0,8.551,3.829,8.551,8.551v179.574C422.716,440.296,418.888,444.125,414.165,444.125z"/>
<path style="fill:#68727E;" d="M422.716,256c0-4.722-3.829-8.551-8.551-8.551H174.733c-4.722,0-8.551,3.829-8.551,8.551v76.96
	h256.534V256z"/>
<path style="fill:#B3B9BF;" d="M191.835,435.574V256c0-4.722,3.829-8.551,8.551-8.551h-25.653c-4.722,0-8.551,3.829-8.551,8.551
	v179.574c0,4.722,3.829,8.551,8.551,8.551h25.653C195.664,444.125,191.835,440.296,191.835,435.574z"/>
<path style="fill:#424F5E;" d="M200.386,247.449h-25.653c-4.722,0-8.551,3.829-8.551,8.551v76.96h25.653V256
	C191.835,251.278,195.664,247.449,200.386,247.449z"/>
<circle style="fill:#DB6B5E;" cx="311.55" cy="290.205" r="17.102"/>
<circle style="fill:#3C9FE8;" cx="251.692" cy="290.205" r="17.102"/>
<circle style="fill:#FFC44F;" cx="371.408" cy="290.205" r="17.102"/>
<path d="M499.677,426.489c4.428,0,8.017-3.589,8.017-8.017V84.977c0-2.1-0.862-4.183-2.347-5.668l-76.96-76.96
	C426.9,0.863,424.817,0,422.716,0H106.324C92.473,0,81.205,11.268,81.205,25.119v9.086H12.261c-6.987,0-10.615,8.738-5.669,13.685
	l62.741,62.741L6.592,173.371c-4.946,4.947-1.319,13.685,5.669,13.685h68.944v299.825c0,13.851,11.268,25.119,25.119,25.119h376.251
	c13.851,0,25.119-11.268,25.119-25.119v-34.205c0-4.427-3.588-8.017-8.017-8.017s-8.017,3.589-8.017,8.017v34.205
	c0,5.01-4.076,9.086-9.086,9.086H106.324c-5.01,0-9.086-4.076-9.086-9.086V187.056h51.841c4.428,0,8.017-3.589,8.017-8.017
	s-3.588-8.017-8.017-8.017H31.615l54.724-54.724c3.131-3.131,3.131-8.207,0-11.337L31.615,50.238h348.88v120.785H183.284
	c-4.428,0-8.017,3.589-8.017,8.017s3.588,8.017,8.017,8.017h205.228c4.428,0,8.017-3.589,8.017-8.017V42.221
	c0-4.427-3.588-8.017-8.017-8.017H97.238v-9.086c0-5.01,4.076-9.086,9.086-9.086H414.7v51.841c0,13.851,11.268,25.119,25.119,25.119
	h51.841v325.478C491.66,422.9,495.248,426.489,499.677,426.489z M439.819,76.96c-5.01,0-9.086-4.076-9.086-9.086V27.37l49.589,49.59
	H439.819z"/>
<path d="M191.835,92.994c4.428,0,8.017-3.589,8.017-8.017c0-4.427-3.588-8.017-8.017-8.017h-34.205
	c-4.428,0-8.017,3.589-8.017,8.017v51.307c0,4.427,3.588,8.017,8.017,8.017h34.205c4.428,0,8.017-3.589,8.017-8.017
	c0-4.427-3.588-8.017-8.017-8.017h-26.188v-9.62h9.086c4.428,0,8.017-3.589,8.017-8.017c0-4.427-3.588-8.017-8.017-8.017h-9.086
	v-9.62H191.835z"/>
<path d="M311.551,92.994c4.428,0,8.017-3.589,8.017-8.017c0-4.427-3.588-8.017-8.017-8.017h-34.205
	c-4.428,0-8.017,3.589-8.017,8.017v51.307c0,4.427,3.588,8.017,8.017,8.017h34.205c4.428,0,8.017-3.589,8.017-8.017
	c0-4.427-3.588-8.017-8.017-8.017h-26.188v-9.62h9.086c4.428,0,8.017-3.589,8.017-8.017c0-4.427-3.588-8.017-8.017-8.017h-9.086
	v-9.62H311.551z"/>
<path d="M213.042,142.954c3.637,2.426,8.695,1.41,11.116-2.223l10.432-15.649l10.432,15.649c2.615,3.922,8.22,4.721,11.833,1.687
	c3.086-2.591,3.741-7.23,1.507-10.581l-14.138-21.207l14.138-21.207c2.456-3.683,1.46-8.661-2.223-11.116
	c-3.683-2.456-8.661-1.46-11.116,2.223l-10.432,15.649l-10.432-15.649c-2.456-3.683-7.433-4.679-11.116-2.223
	s-4.68,7.433-2.223,11.116l14.138,21.207l-14.138,21.207C208.363,135.521,209.358,140.499,213.042,142.954z"/>
<path d="M174.733,452.142h239.432c9.136,0,16.568-7.432,16.568-16.568V256c0-9.136-7.432-16.568-16.568-16.568H174.733
	c-9.136,0-16.568,7.432-16.568,16.568v179.574C158.165,444.71,165.597,452.142,174.733,452.142z M174.733,255.466h239.432
	c0.294,0,0.534,0.239,0.534,0.534v68.944h-44.359c-4.428,0-8.017,3.589-8.017,8.017c0,4.427,3.588,8.017,8.017,8.017H414.7v94.597
	c0,0.295-0.241,0.534-0.534,0.534H174.733c-0.294,0-0.534-0.239-0.534-0.534v-94.597h171.557c4.428,0,8.017-3.589,8.017-8.017
	c0-4.427-3.588-8.017-8.017-8.017H174.199V256C174.199,255.705,174.438,255.466,174.733,255.466z"/>
<path d="M311.551,315.324c13.851,0,25.119-11.268,25.119-25.119c0-13.851-11.268-25.119-25.119-25.119
	c-13.851,0-25.119,11.268-25.119,25.119C286.432,304.055,297.701,315.324,311.551,315.324z M311.551,281.119
	c5.01,0,9.086,4.076,9.086,9.086s-4.076,9.086-9.086,9.086c-5.01,0-9.086-4.076-9.086-9.086S306.542,281.119,311.551,281.119z"/>
<path d="M251.693,315.324c13.851,0,25.119-11.268,25.119-25.119c0-13.851-11.268-25.119-25.119-25.119
	c-13.851,0-25.119,11.268-25.119,25.119C226.574,304.055,237.843,315.324,251.693,315.324z M251.693,281.119
	c5.01,0,9.086,4.076,9.086,9.086s-4.076,9.086-9.086,9.086c-5.01,0-9.086-4.076-9.086-9.086S246.683,281.119,251.693,281.119z"/>
<path d="M371.409,315.324c13.851,0,25.119-11.268,25.119-25.119c0-13.851-11.268-25.119-25.119-25.119
	c-13.851,0-25.119,11.268-25.119,25.119C346.29,304.055,357.559,315.324,371.409,315.324z M371.409,281.119
	c5.01,0,9.086,4.076,9.086,9.086s-4.076,9.086-9.086,9.086s-9.086-4.076-9.086-9.086S366.4,281.119,371.409,281.119z"/>
<path d="M248.42,382.509l-34.205-29.929c-3.287-2.875-8.436-2.532-11.312,0.755c-2.877,3.288-2.532,8.436,0.755,11.312
	l27.309,23.895l-27.309,23.895c-3.071,2.688-3.611,7.402-1.229,10.714c2.72,3.783,8.278,4.424,11.787,1.353l34.205-29.929
	C252.016,391.43,252.016,385.656,248.42,382.509z"/>
<path d="M285.898,410.455h-17.102c-4.428,0-8.017,3.589-8.017,8.017c0,4.427,3.588,8.017,8.017,8.017h17.102
	c4.428,0,8.017-3.589,8.017-8.017C293.915,414.044,290.325,410.455,285.898,410.455z"/>
<g>
</g>
<g>
</g>
<g>
</g>
<g>
</g>
<g>
</g>
<g>
</g>
<g>
</g>
<g>
</g>
<g>
</g>
<g>
</g>
<g>
</g>
<g>
</g>
<g>
</g>
<g>
</g>
<g>
</g>
</svg>
