<?xml version="1.0" encoding="iso-8859-1"?>
<!-- Generator: Adobe Illustrator 19.0.0, SVG Export Plug-In . SVG Version: 6.00 Build 0)  -->
<svg version="1.1" id="Layer_1" xmlns="http://www.w3.org/2000/svg" xmlns:xlink="http://www.w3.org/1999/xlink" x="0px" y="0px"
	 viewBox="0 0 512 512" style="enable-background:new 0 0 512 512;" xml:space="preserve">
<path style="fill:#ECEDEF;" d="M106.324,8.017c-9.446,0-17.102,7.656-17.102,17.102v461.762c0,9.446,7.656,17.102,17.102,17.102
	h376.251c9.446,0,17.102-7.656,17.102-17.102V84.977l-76.96-76.96H106.324z"/>
<path style="fill:#D9DCDF;" d="M439.818,84.977h59.858l-76.96-76.96v59.858C422.715,77.319,430.373,84.977,439.818,84.977z"/>
<path style="fill:#C6CACF;" d="M397.063,196.142H89.222V42.221h307.841c4.722,0,8.551,3.829,8.551,8.551v136.818
	C405.614,192.313,401.785,196.142,397.063,196.142z"/>
<polygon style="fill:#529E44;" points="388.512,179.04 12.261,179.04 80.67,110.63 12.261,42.221 388.512,42.221 "/>
<path d="M499.677,426.489c4.428,0,8.017-3.589,8.017-8.017V84.977c0-2.1-0.862-4.183-2.347-5.668l-76.96-76.96
	C426.9,0.863,424.817,0,422.716,0H106.324C92.473,0,81.205,11.268,81.205,25.119v9.086H12.261c-6.987,0-10.615,8.738-5.669,13.685
	l62.741,62.741L6.592,173.371c-4.946,4.947-1.319,13.685,5.669,13.685h68.944v299.825c0,13.851,11.268,25.119,25.119,25.119h376.251
	c13.851,0,25.119-11.268,25.119-25.119v-34.205c0-4.427-3.588-8.017-8.017-8.017s-8.017,3.589-8.017,8.017v34.205
	c0,5.01-4.076,9.086-9.086,9.086H106.324c-5.01,0-9.086-4.076-9.086-9.086V187.056h51.841c4.428,0,8.017-3.589,8.017-8.017
	s-3.588-8.017-8.017-8.017H31.615l54.724-54.724c3.131-3.131,3.131-8.207,0-11.337L31.615,50.238h348.88v120.785H183.284
	c-4.428,0-8.017,3.589-8.017,8.017s3.588,8.017,8.017,8.017h205.228c4.428,0,8.017-3.589,8.017-8.017V42.221
	c0-4.427-3.588-8.017-8.017-8.017H97.238v-9.086c0-5.01,4.076-9.086,9.086-9.086H414.7v51.841c0,13.851,11.268,25.119,25.119,25.119
	h51.841v325.478C491.66,422.9,495.248,426.489,499.677,426.489z M439.819,76.96c-5.01,0-9.086-4.076-9.086-9.086V27.37l49.589,49.59
	H439.819z"/>
<path d="M191.835,92.994c4.428,0,8.017-3.589,8.017-8.017c0-4.427-3.588-8.017-8.017-8.017h-25.653
	c-4.428,0-8.017,3.589-8.017,8.017v51.307c0,4.427,3.588,8.017,8.017,8.017h25.653c4.428,0,8.017-3.589,8.017-8.017
	c0-4.427-3.588-8.017-8.017-8.017h-17.637V92.994H191.835z"/>
<path d="M217.489,128.267c-4.428,0-8.017,3.589-8.017,8.017c0,4.427,3.588,8.017,8.017,8.017h25.653
	c4.428,0,8.017-3.589,8.017-8.017V110.63c0-4.427-3.588-8.017-8.017-8.017h-17.637v-9.62h17.637c4.428,0,8.017-3.589,8.017-8.017
	c0-4.427-3.588-8.017-8.017-8.017h-25.653c-4.428,0-8.017,3.589-8.017,8.017v25.653c0,4.427,3.588,8.017,8.017,8.017h17.637v9.62
	H217.489z"/>
<path d="M268.796,128.267c-4.428,0-8.017,3.589-8.017,8.017c0,4.427,3.588,8.017,8.017,8.017h25.653
	c4.428,0,8.017-3.589,8.017-8.017V110.63c0-4.427-3.588-8.017-8.017-8.017h-17.637v-9.62h17.637c4.428,0,8.017-3.589,8.017-8.017
	c0-4.427-3.588-8.017-8.017-8.017h-25.653c-4.428,0-8.017,3.589-8.017,8.017v25.653c0,4.427,3.588,8.017,8.017,8.017h17.637v9.62
	H268.796z"/>
<path d="M200.386,452.142h25.653c4.428,0,8.017-3.589,8.017-8.017c0-4.427-3.588-8.017-8.017-8.017h-25.653
	c-5.01,0-9.086-4.076-9.086-9.086v-59.858c0-2.126-0.844-4.165-2.347-5.668l-11.435-11.434l11.434-11.434
	c1.503-1.503,2.347-3.542,2.347-5.668v-59.858c0-5.01,4.076-9.086,9.086-9.086h25.653c4.428,0,8.017-3.589,8.017-8.017
	c0-4.427-3.588-8.017-8.017-8.017h-25.653c-13.851,0-25.119,11.268-25.119,25.119v56.538l-14.755,14.754
	c-3.131,3.131-3.131,8.207,0,11.337l14.755,14.754v56.538C175.267,440.874,186.536,452.142,200.386,452.142z"/>
<path d="M362.858,452.142h25.653c13.851,0,25.119-11.268,25.119-25.119v-56.538l14.755-14.754c3.131-3.131,3.131-8.207,0-11.337
	l-14.755-14.754v-56.538c0-13.851-11.268-25.119-25.119-25.119h-25.653c-4.428,0-8.017,3.589-8.017,8.017
	c0,4.427,3.588,8.017,8.017,8.017h25.653c5.01,0,9.086,4.076,9.086,9.086v59.858c0,2.126,0.844,4.165,2.347,5.668l11.434,11.434
	l-11.434,11.434c-1.503,1.503-2.347,3.542-2.347,5.668v59.858c0,5.01-4.076,9.086-9.086,9.086h-25.653
	c-4.428,0-8.017,3.589-8.017,8.017C354.842,448.553,358.43,452.142,362.858,452.142z"/>
<path d="M294.449,384.802c-4.428,0-8.017,3.589-8.017,8.017c0,4.427,3.588,8.017,8.017,8.017h1.069c4.428,0,8.017-3.589,8.017-8.017
	c0-4.427-3.588-8.017-8.017-8.017H294.449z"/>
<path d="M363.393,392.818c0-4.427-3.588-8.017-8.017-8.017h-1.069c-4.428,0-8.017,3.589-8.017,8.017
	c0,4.427,3.588,8.017,8.017,8.017h1.069C359.803,400.835,363.393,397.246,363.393,392.818z"/>
<path d="M235.66,400.835c4.428,0,8.017-3.589,8.017-8.017c0-4.427-3.588-8.017-8.017-8.017h-1.069c-4.428,0-8.017,3.589-8.017,8.017
	c0,4.427,3.588,8.017,8.017,8.017H235.66z"/>
<g>
</g>
<g>
</g>
<g>
</g>
<g>
</g>
<g>
</g>
<g>
</g>
<g>
</g>
<g>
</g>
<g>
</g>
<g>
</g>
<g>
</g>
<g>
</g>
<g>
</g>
<g>
</g>
<g>
</g>
</svg>
