<?xml version="1.0" encoding="iso-8859-1"?>
<!-- Generator: Adobe Illustrator 19.0.0, SVG Export Plug-In . SVG Version: 6.00 Build 0)  -->
<svg version="1.1" id="Layer_1" xmlns="http://www.w3.org/2000/svg" xmlns:xlink="http://www.w3.org/1999/xlink" x="0px" y="0px"
	 viewBox="0 0 512 512" style="enable-background:new 0 0 512 512;" xml:space="preserve">
<path style="fill:#ECEDEF;" d="M106.324,8.017c-9.446,0-17.102,7.656-17.102,17.102v461.762c0,9.446,7.656,17.102,17.102,17.102
	h376.251c9.446,0,17.102-7.656,17.102-17.102V84.977l-76.96-76.96H106.324z"/>
<path style="fill:#D9DCDF;" d="M439.818,84.977h59.858l-76.96-76.96v59.858C422.715,77.319,430.373,84.977,439.818,84.977z"/>
<path style="fill:#C6CACF;" d="M397.063,196.142H89.222V42.221h307.841c4.722,0,8.551,3.829,8.551,8.551v136.818
	C405.614,192.313,401.785,196.142,397.063,196.142z"/>
<polygon style="fill:#FF8C78;" points="388.512,179.04 12.261,179.04 80.67,110.63 12.261,42.221 388.512,42.221 "/>
<g>
	<rect x="191.834" y="238.898" style="fill:#C6CACF;" width="34.205" height="34.205"/>
	<rect x="277.346" y="238.898" style="fill:#C6CACF;" width="34.205" height="34.205"/>
	<rect x="362.857" y="238.898" style="fill:#C6CACF;" width="34.205" height="34.205"/>
	<rect x="191.834" y="324.409" style="fill:#C6CACF;" width="34.205" height="34.205"/>
	<rect x="277.346" y="324.409" style="fill:#C6CACF;" width="34.205" height="34.205"/>
	<rect x="362.857" y="324.409" style="fill:#C6CACF;" width="34.205" height="34.205"/>
	<rect x="191.834" y="409.921" style="fill:#C6CACF;" width="34.205" height="34.205"/>
	<rect x="277.346" y="409.921" style="fill:#C6CACF;" width="34.205" height="34.205"/>
	<rect x="362.857" y="409.921" style="fill:#C6CACF;" width="34.205" height="34.205"/>
	<rect x="234.59" y="281.653" style="fill:#C6CACF;" width="34.205" height="34.205"/>
	<rect x="320.102" y="281.653" style="fill:#C6CACF;" width="34.205" height="34.205"/>
	<rect x="234.59" y="367.165" style="fill:#C6CACF;" width="34.205" height="34.205"/>
	<rect x="320.102" y="367.165" style="fill:#C6CACF;" width="34.205" height="34.205"/>
</g>
<path d="M499.677,426.489c4.428,0,8.017-3.589,8.017-8.017V84.977c0-2.1-0.862-4.183-2.347-5.668l-76.96-76.96
	C426.9,0.863,424.817,0,422.716,0H106.324C92.473,0,81.205,11.268,81.205,25.119v9.086H12.261c-6.987,0-10.615,8.738-5.669,13.685
	l62.741,62.741L6.592,173.371c-4.946,4.947-1.319,13.685,5.669,13.685h68.944v299.825c0,13.851,11.268,25.119,25.119,25.119h376.251
	c13.851,0,25.119-11.268,25.119-25.119v-34.205c0-4.427-3.588-8.017-8.017-8.017s-8.017,3.589-8.017,8.017v34.205
	c0,5.01-4.076,9.086-9.086,9.086H106.324c-5.01,0-9.086-4.076-9.086-9.086V187.056h51.841c4.428,0,8.017-3.589,8.017-8.017
	s-3.588-8.017-8.017-8.017H31.615l54.724-54.724c3.131-3.131,3.131-8.207,0-11.337L31.615,50.238h348.88v120.785H183.284
	c-4.428,0-8.017,3.589-8.017,8.017s3.588,8.017,8.017,8.017h205.228c4.428,0,8.017-3.589,8.017-8.017V42.221
	c0-4.427-3.588-8.017-8.017-8.017H97.238v-9.086c0-5.01,4.076-9.086,9.086-9.086H414.7v51.841c0,13.851,11.268,25.119,25.119,25.119
	h51.841v325.478C491.66,422.9,495.248,426.489,499.677,426.489z M439.819,76.96c-5.01,0-9.086-4.076-9.086-9.086V27.37l49.589,49.59
	H439.819z"/>
<path d="M199.852,110.63V84.977c0-4.427-3.588-8.017-8.017-8.017h-34.205c-4.428,0-8.017,3.589-8.017,8.017v51.307
	c0,4.427,3.588,8.017,8.017,8.017c4.428,0,8.017-3.589,8.017-8.017v-17.655c0.176,0.012,0.355,0.018,0.534,0.018h25.653
	C196.263,118.647,199.852,115.058,199.852,110.63z M183.819,102.614h-17.637c-0.18,0-0.358,0.005-0.534,0.018v-9.638h18.171V102.614
	z"/>
<path d="M225.505,136.284v-24.829l19.518,29.276c2.059,3.089,6.098,4.369,9.562,3.03c3.054-1.18,5.124-4.203,5.124-7.477V84.977
	c0-4.427-3.588-8.017-8.017-8.017c-4.428,0-8.017,3.589-8.017,8.017v24.829L224.159,80.53c-1.998-2.997-5.875-4.304-9.281-3.133
	c-3.199,1.101-5.406,4.198-5.406,7.58v51.307c0,4.427,3.588,8.017,8.017,8.017C221.916,144.301,225.505,140.711,225.505,136.284z"/>
<path d="M311.551,92.994c4.428,0,8.017-3.589,8.017-8.017c0-4.427-3.588-8.017-8.017-8.017h-34.205
	c-4.428,0-8.017,3.589-8.017,8.017v51.307c0,4.427,3.588,8.017,8.017,8.017h34.205c4.428,0,8.017-3.589,8.017-8.017V110.63
	c0-4.427-3.588-8.017-8.017-8.017H303c-4.428,0-8.017,3.589-8.017,8.017c0,4.427,3.588,8.017,8.017,8.017h0.534v9.62h-18.171V92.994
	H311.551z"/>
<path d="M397.063,281.119c4.428,0,8.017-3.589,8.017-8.017v-34.205c0-4.427-3.588-8.017-8.017-8.017h-34.205
	c-4.428,0-8.017,3.589-8.017,8.017v34.205c0,0.19,0.015,0.376,0.029,0.563c-0.187-0.013-0.373-0.029-0.563-0.029h-34.205
	c-0.19,0-0.376,0.015-0.563,0.029c0.013-0.187,0.029-0.373,0.029-0.563v-34.205c0-4.427-3.588-8.017-8.017-8.017h-34.205
	c-4.428,0-8.017,3.589-8.017,8.017v34.205c0,0.19,0.015,0.376,0.029,0.563c-0.187-0.013-0.373-0.029-0.563-0.029h-34.205
	c-0.19,0-0.376,0.015-0.563,0.029c0.013-0.187,0.029-0.373,0.029-0.563v-34.205c0-4.427-3.588-8.017-8.017-8.017h-34.205
	c-4.428,0-8.017,3.589-8.017,8.017v34.205c0,4.427,3.588,8.017,8.017,8.017h34.205c0.19,0,0.376-0.015,0.563-0.029
	c-0.013,0.187-0.029,0.373-0.029,0.563v34.205c0,0.19,0.015,0.376,0.029,0.563c-0.187-0.013-0.373-0.029-0.563-0.029h-34.205
	c-4.428,0-8.017,3.589-8.017,8.017v34.205c0,4.427,3.588,8.017,8.017,8.017h34.205c0.19,0,0.376-0.015,0.563-0.029
	c-0.013,0.187-0.029,0.373-0.029,0.563v34.205c0,0.19,0.015,0.376,0.029,0.563c-0.187-0.013-0.373-0.029-0.563-0.029h-34.205
	c-4.428,0-8.017,3.589-8.017,8.017v34.205c0,4.427,3.588,8.017,8.017,8.017h34.205c4.428,0,8.017-3.589,8.017-8.017v-34.205
	c0-0.19-0.015-0.376-0.029-0.563c0.187,0.013,0.373,0.029,0.563,0.029h34.205c0.19,0,0.376-0.015,0.563-0.029
	c-0.013,0.187-0.029,0.373-0.029,0.563v34.205c0,4.427,3.588,8.017,8.017,8.017h34.205c4.428,0,8.017-3.589,8.017-8.017v-34.205
	c0-0.19-0.015-0.376-0.029-0.563c0.187,0.013,0.373,0.029,0.563,0.029h34.205c0.19,0,0.376-0.015,0.563-0.029
	c-0.013,0.187-0.029,0.373-0.029,0.563v34.205c0,4.427,3.588,8.017,8.017,8.017h34.205c4.428,0,8.017-3.589,8.017-8.017v-34.205
	c0-4.427-3.588-8.017-8.017-8.017h-34.205c-0.19,0-0.376,0.015-0.563,0.029c0.013-0.187,0.029-0.373,0.029-0.563v-34.205
	c0-0.19-0.015-0.376-0.029-0.563c0.187,0.013,0.373,0.029,0.563,0.029h34.205c4.428,0,8.017-3.589,8.017-8.017v-34.205
	c0-4.427-3.588-8.017-8.017-8.017h-34.205c-0.19,0-0.376,0.015-0.563,0.029c0.013-0.187,0.029-0.373,0.029-0.563v-34.205
	c0-0.19-0.015-0.376-0.029-0.563c0.187,0.013,0.373,0.029,0.563,0.029H397.063z M370.875,246.914h18.171v18.171h-18.171V246.914z
	 M218.023,265.086h-18.171v-18.171h18.171V265.086z M218.023,350.597h-18.171v-18.171h18.171V350.597z M218.023,436.109h-18.171
	v-18.171h18.171V436.109z M370.875,417.937h18.171v18.171h-18.171V417.937z M370.875,332.426h18.171v18.171h-18.171V332.426z
	 M328.119,289.67h18.171v18.171h-18.171V289.67z M285.364,246.914h18.171v18.171h-18.171V246.914z M311.551,281.119
	c0.19,0,0.376-0.015,0.563-0.029c-0.013,0.187-0.029,0.373-0.029,0.563v34.205c0,0.19,0.015,0.376,0.029,0.563
	c-0.187-0.013-0.373-0.029-0.563-0.029h-34.205c-0.19,0-0.376,0.015-0.563,0.029c0.013-0.187,0.029-0.373,0.029-0.563v-34.205
	c0-0.19-0.015-0.376-0.029-0.563c0.187,0.013,0.373,0.029,0.563,0.029H311.551z M303.535,332.426v18.171h-18.171v-18.171H303.535z
	 M242.608,289.67h18.171v18.171h-18.171V289.67z M260.779,393.353h-18.171v-18.171h18.171V393.353z M234.591,359.148
	c-0.19,0-0.376,0.015-0.563,0.029c0.013-0.187,0.029-0.373,0.029-0.563v-34.205c0-0.19-0.015-0.376-0.029-0.563
	c0.187,0.013,0.373,0.029,0.563,0.029h34.205c0.19,0,0.376-0.015,0.563-0.029c-0.013,0.187-0.029,0.373-0.029,0.563v34.205
	c0,0.19,0.015,0.376,0.029,0.563c-0.187-0.013-0.373-0.029-0.563-0.029H234.591z M303.535,436.109h-18.171v-18.171h18.171V436.109z
	 M277.347,401.904c-0.19,0-0.376,0.015-0.563,0.029c0.013-0.187,0.029-0.373,0.029-0.563v-34.205c0-0.19-0.015-0.376-0.029-0.563
	c0.187,0.013,0.373,0.029,0.563,0.029h34.205c0.19,0,0.376-0.015,0.563-0.029c-0.013,0.187-0.029,0.373-0.029,0.563v34.205
	c0,0.19,0.015,0.376,0.029,0.563c-0.187-0.013-0.373-0.029-0.563-0.029H277.347z M346.29,393.353h-18.171v-18.171h18.171V393.353z
	 M320.103,359.148c-0.19,0-0.376,0.015-0.563,0.029c0.013-0.187,0.029-0.373,0.029-0.563v-34.205c0-0.19-0.015-0.376-0.029-0.563
	c0.187,0.013,0.373,0.029,0.563,0.029h34.205c0.19,0,0.376-0.015,0.563-0.029c-0.013,0.187-0.029,0.373-0.029,0.563v34.205
	c0,0.19,0.015,0.376,0.029,0.563c-0.187-0.013-0.373-0.029-0.563-0.029H320.103z"/>
<g>
</g>
<g>
</g>
<g>
</g>
<g>
</g>
<g>
</g>
<g>
</g>
<g>
</g>
<g>
</g>
<g>
</g>
<g>
</g>
<g>
</g>
<g>
</g>
<g>
</g>
<g>
</g>
<g>
</g>
</svg>
