<?xml version="1.0" encoding="iso-8859-1"?>
<!-- Generator: Adobe Illustrator 19.0.0, SVG Export Plug-In . SVG Version: 6.00 Build 0)  -->
<svg version="1.1" id="Layer_1" xmlns="http://www.w3.org/2000/svg" xmlns:xlink="http://www.w3.org/1999/xlink" x="0px" y="0px"
	 viewBox="0 0 512 512" style="enable-background:new 0 0 512 512;" xml:space="preserve">
<path style="fill:#ECEDEF;" d="M106.324,8.017c-9.446,0-17.102,7.656-17.102,17.102v461.762c0,9.446,7.656,17.102,17.102,17.102
	h376.251c9.446,0,17.102-7.656,17.102-17.102V84.977l-76.96-76.96H106.324z"/>
<path style="fill:#D9DCDF;" d="M439.818,84.977h59.858l-76.96-76.96v59.858C422.716,77.319,430.373,84.977,439.818,84.977z"/>
<path style="fill:#C6CACF;" d="M397.063,196.142H89.222V42.221h307.841c4.722,0,8.551,3.829,8.551,8.551v136.818
	C405.614,192.313,401.786,196.142,397.063,196.142z"/>
<polygon style="fill:#427FC9;" points="388.512,179.04 12.262,179.04 80.671,110.63 12.262,42.221 388.512,42.221 "/>
<path style="fill:#FFC44F;" d="M200.387,427.023L277.347,256h34.205l76.96,171.023h-42.756l-25.653-51.307h-51.307l-25.653,51.307
	H200.387z M311.552,341.511l-17.102-42.756l-17.102,42.756H311.552z"/>
<polygon style="fill:#F79F4D;" points="277.347,256 200.387,427.023 220.226,427.023 295.476,256 "/>
<path d="M499.677,426.489c4.427,0,8.017-3.588,8.017-8.017V84.977c0-2.1-0.863-4.184-2.348-5.669l-76.96-76.96
	C426.898,0.863,424.817,0,422.716,0H106.323C92.472,0,81.204,11.268,81.204,25.119v9.086H12.261c-6.988,0-10.615,8.738-5.668,13.686
	l62.741,62.74l-62.74,62.74c-4.947,4.947-1.321,13.686,5.668,13.686h68.944v299.825c0,13.851,11.268,25.119,25.119,25.119h376.251
	c13.851,0,25.119-11.268,25.119-25.119v-34.205c0-4.428-3.589-8.017-8.017-8.017c-4.427,0-8.017,3.588-8.017,8.017v34.205
	c0,5.01-4.076,9.086-9.086,9.086H106.324c-5.01,0-9.086-4.076-9.086-9.086V187.056h51.841c4.427,0,8.017-3.588,8.017-8.017
	s-3.589-8.017-8.017-8.017H31.615L86.339,116.3c3.131-3.132,3.131-8.207,0-11.338L31.615,50.238h348.88v120.785H183.285
	c-4.427,0-8.017,3.588-8.017,8.017s3.589,8.017,8.017,8.017h205.228c4.427,0,8.017-3.588,8.017-8.017V42.221
	c0-4.428-3.589-8.017-8.017-8.017H97.239v-9.086c0-5.01,4.076-9.086,9.086-9.086H414.7v51.841c0,13.851,11.268,25.119,25.119,25.119
	h51.841v325.478C491.66,422.9,495.25,426.489,499.677,426.489z M430.732,67.875V27.37l49.59,49.59h-40.505
	C434.808,76.96,430.732,72.885,430.732,67.875z"/>
<path d="M199.852,136.284V84.977c0-4.428-3.589-8.017-8.017-8.017h-34.205c-4.427,0-8.017,3.588-8.017,8.017v51.307
	c0,4.428,3.589,8.017,8.017,8.017h34.205C196.263,144.301,199.852,140.712,199.852,136.284z M183.819,128.267h-18.171V92.994h18.171
	V128.267z"/>
<path d="M234.591,144.301c4.427,0,8.017-3.588,8.017-8.017v-43.29h9.086c4.427,0,8.017-3.588,8.017-8.017
	c0-4.428-3.589-8.017-8.017-8.017h-34.205c-4.427,0-8.017,3.588-8.017,8.017c0,4.428,3.589,8.017,8.017,8.017h9.086v43.29
	C226.575,140.712,230.164,144.301,234.591,144.301z"/>
<path d="M303.001,92.994c4.427,0,8.017-3.588,8.017-8.017c0-4.428-3.589-8.017-8.017-8.017h-25.653
	c-4.427,0-8.017,3.588-8.017,8.017v51.307c0,4.428,3.589,8.017,8.017,8.017c4.427,0,8.017-3.588,8.017-8.017v-17.637h9.086
	c4.427,0,8.017-3.588,8.017-8.017c0-4.428-3.589-8.017-8.017-8.017h-9.086v-9.62H303.001z"/>
<path d="M192.548,425.338c-1.081,5,2.924,9.791,8.012,9.701h42.583c3.037,0,5.813-1.716,7.17-4.432l23.438-46.875h41.397
	l23.438,46.875c1.357,2.715,4.133,4.432,7.17,4.432h42.756c5.71,0,9.657-6.089,7.31-11.307l-76.96-171.023
	c-1.294-2.876-4.156-4.727-7.31-4.727h-34.205c-3.154,0-6.016,1.849-7.31,4.727l-15.392,34.205
	c-1.817,4.037-0.017,8.784,4.021,10.601c4.036,1.813,8.783,0.016,10.6-4.021l13.265-29.478h23.837l69.745,154.99h-25.402
	l-23.438-46.875c-1.357-2.715-4.133-4.432-7.17-4.432h-51.307c-3.037,0-5.813,1.716-7.17,4.432l-23.438,46.875h-25.403
	l46.219-102.709c1.817-4.037,0.017-8.784-4.021-10.601c-4.038-1.817-8.783-0.016-10.6,4.021l-51.236,113.859
	C192.882,424.131,192.679,424.722,192.548,425.338z"/>
<path d="M277.347,349.528h34.205c5.569,0,9.515-5.814,7.443-10.994l-17.102-42.756c-2.629-6.576-12.257-6.576-14.886,0
	l-17.102,42.756C267.832,343.714,271.778,349.528,277.347,349.528z M294.449,320.341l5.261,13.154h-10.523L294.449,320.341z"/>
<path d="M337.205,213.779c-4.427,0-8.017,3.588-8.017,8.017V256c0,4.428,3.589,8.017,8.017,8.017h34.205
	c4.427,0,8.017-3.588,8.017-8.017c0-4.428-3.589-8.017-8.017-8.017h-26.188v-26.188
	C345.222,217.367,341.633,213.779,337.205,213.779z"/>
<path d="M251.694,264.017c4.427,0,8.017-3.588,8.017-8.017v-34.205c0-4.428-3.589-8.017-8.017-8.017s-8.017,3.588-8.017,8.017
	v26.188h-26.188c-4.427,0-8.017,3.588-8.017,8.017c0,4.428,3.589,8.017,8.017,8.017H251.694z"/>
<path d="M414.166,419.006c-4.427,0-8.017,3.588-8.017,8.017v34.205c0,4.428,3.589,8.017,8.017,8.017
	c4.427,0,8.017-3.588,8.017-8.017V435.04h26.188c4.427,0,8.017-3.588,8.017-8.017s-3.589-8.017-8.017-8.017H414.166z"/>
<path d="M174.733,469.244c4.427,0,8.017-3.588,8.017-8.017v-34.205c0-4.428-3.589-8.017-8.017-8.017h-34.205
	c-4.427,0-8.017,3.588-8.017,8.017s3.589,8.017,8.017,8.017h26.188v26.188C166.717,465.656,170.306,469.244,174.733,469.244z"/>
<g>
</g>
<g>
</g>
<g>
</g>
<g>
</g>
<g>
</g>
<g>
</g>
<g>
</g>
<g>
</g>
<g>
</g>
<g>
</g>
<g>
</g>
<g>
</g>
<g>
</g>
<g>
</g>
<g>
</g>
</svg>
