<?xml version="1.0" encoding="iso-8859-1"?>
<!-- Generator: Adobe Illustrator 19.0.0, SVG Export Plug-In . SVG Version: 6.00 Build 0)  -->
<svg version="1.1" id="Layer_1" xmlns="http://www.w3.org/2000/svg" xmlns:xlink="http://www.w3.org/1999/xlink" x="0px" y="0px"
	 viewBox="0 0 512 512" style="enable-background:new 0 0 512 512;" xml:space="preserve">
<path style="fill:#ECEDEF;" d="M106.324,8.017c-9.446,0-17.102,7.656-17.102,17.102v461.762c0,9.446,7.656,17.102,17.102,17.102
	h376.251c9.446,0,17.102-7.656,17.102-17.102V84.977l-76.96-76.96H106.324z"/>
<path style="fill:#D9DCDF;" d="M439.818,84.977h59.858l-76.96-76.96v59.858C422.716,77.319,430.373,84.977,439.818,84.977z"/>
<path style="fill:#C6CACF;" d="M397.063,196.142H89.222V42.221h307.841c4.722,0,8.551,3.829,8.551,8.551v136.818
	C405.614,192.313,401.786,196.142,397.063,196.142z"/>
<polygon style="fill:#68727E;" points="388.512,179.04 12.262,179.04 80.671,110.63 12.262,42.221 388.512,42.221 "/>
<path style="fill:#C6CACF;" d="M277.347,221.795c-56.672,0-102.614,45.942-102.614,102.614s45.942,102.614,102.614,102.614
	s102.614-45.942,102.614-102.614S334.019,221.795,277.347,221.795z M277.347,350.063c-14.168,0-25.653-11.485-25.653-25.653
	c0-14.168,11.485-25.653,25.653-25.653c14.168,0,25.653,11.485,25.653,25.653C303.001,338.577,291.515,350.063,277.347,350.063z"/>
<g>
	<path style="fill:#D9DCDF;" d="M295.486,306.269l54.419-54.419c-18.57-18.569-44.223-30.054-72.559-30.054v76.96
		C284.431,298.756,290.844,301.627,295.486,306.269z"/>
	<path style="fill:#D9DCDF;" d="M259.207,342.549l-54.42,54.419c18.57,18.57,44.223,30.055,72.559,30.055v-76.96
		C270.263,350.063,263.849,347.192,259.207,342.549z"/>
</g>
<path style="fill:#FF8C78;" d="M397.518,358.16l-17.557,9.005l-25.653-68.409l-25.653,68.409l-11.756-18.348
	c-12.095,18.745-22.449,38.804-22.449,52.552c0,33.059,26.799,59.858,59.858,59.858s59.858-26.799,59.858-59.858
	C414.166,389.887,406.943,374.004,397.518,358.16z"/>
<path style="fill:#FFC44F;" d="M328.654,418.472c0-14.168,25.653-51.307,25.653-51.307s25.653,37.139,25.653,51.307
	s-11.485,25.653-25.653,25.653C340.139,444.125,328.654,432.64,328.654,418.472z"/>
<path d="M499.677,426.489c4.427,0,8.017-3.588,8.017-8.017V84.977c0-2.1-0.863-4.184-2.348-5.669l-76.96-76.96
	C426.899,0.862,424.816,0,422.716,0H106.323C92.472,0,81.204,11.268,81.204,25.119v9.086H12.261c-6.988,0-10.615,8.738-5.668,13.686
	l62.741,62.74l-62.74,62.74c-4.947,4.947-1.321,13.686,5.668,13.686h68.944v299.825c0,13.851,11.268,25.119,25.119,25.119h376.251
	c13.851,0,25.119-11.268,25.119-25.119v-34.205c0-4.428-3.589-8.017-8.017-8.017c-4.427,0-8.017,3.588-8.017,8.017v34.205
	c0,5.01-4.076,9.086-9.086,9.086H106.324c-5.01,0-9.086-4.076-9.086-9.086V187.056h51.841c4.427,0,8.017-3.588,8.017-8.017
	s-3.589-8.017-8.017-8.017H31.615L86.339,116.3c3.131-3.132,3.131-8.207,0-11.338L31.615,50.238h348.88v120.785H183.285
	c-4.427,0-8.017,3.588-8.017,8.017s3.589,8.017,8.017,8.017h205.228c4.427,0,8.017-3.588,8.017-8.017V42.221
	c0-4.428-3.589-8.017-8.017-8.017H97.239v-9.086c0-5.01,4.076-9.086,9.086-9.086H414.7v51.841c0,13.851,11.268,25.119,25.119,25.119
	h51.841v325.478C491.66,422.9,495.25,426.489,499.677,426.489z M430.732,67.875V27.37l49.59,49.59h-40.505
	C434.808,76.96,430.732,72.885,430.732,67.875z"/>
<path d="M182.75,136.284V84.977c0-4.428-3.589-8.017-8.017-8.017s-8.017,3.588-8.017,8.017v51.307c0,4.428,3.589,8.017,8.017,8.017
	S182.75,140.712,182.75,136.284z"/>
<path d="M200.387,128.267c-4.427,0-8.017,3.588-8.017,8.017c0,4.428,3.589,8.017,8.017,8.017h25.653
	c4.427,0,8.017-3.588,8.017-8.017V110.63c0-4.428-3.589-8.017-8.017-8.017h-17.637v-9.62h17.637c4.427,0,8.017-3.588,8.017-8.017
	c0-4.428-3.589-8.017-8.017-8.017h-25.653c-4.427,0-8.017,3.588-8.017,8.017v25.653c0,4.428,3.589,8.017,8.017,8.017h17.637v9.62
	H200.387z"/>
<path d="M285.898,144.301c4.427,0,8.017-3.588,8.017-8.017V84.977c0-4.428-3.589-8.017-8.017-8.017h-34.205
	c-4.427,0-8.017,3.588-8.017,8.017v51.307c0,4.428,3.589,8.017,8.017,8.017H285.898z M259.71,92.994h18.171v35.273H259.71
	L259.71,92.994L259.71,92.994z"/>
<path d="M277.347,358.079c18.566,0,33.67-15.105,33.67-33.67c0-18.566-15.105-33.67-33.67-33.67c-18.566,0-33.67,15.105-33.67,33.67
	C243.677,342.975,258.782,358.079,277.347,358.079z M277.347,306.772c9.725,0,17.637,7.912,17.637,17.637
	c0,9.725-7.912,17.637-17.637,17.637c-9.725,0-17.637-7.912-17.637-17.637C259.71,314.684,267.622,306.772,277.347,306.772z"/>
<path d="M354.308,359.148c-2.634,0-5.1,1.293-6.596,3.46c-4.52,6.545-27.074,39.999-27.074,55.864
	c0,18.566,15.105,33.67,33.67,33.67c18.566,0,33.67-15.105,33.67-33.67c0-15.865-22.554-49.319-27.074-55.864
	C359.406,360.442,356.941,359.148,354.308,359.148z M354.308,436.109c-9.725,0-17.637-7.912-17.637-17.637
	c0-5.84,8.286-21.877,17.638-36.736c9.351,14.853,17.636,30.887,17.636,36.736C371.944,428.197,364.032,436.109,354.308,436.109z"/>
<path d="M277.347,435.04c5.797,0,11.59-0.454,17.287-1.348c11.508,21.159,33.941,35.552,59.673,35.552
	c37.426,0,67.875-30.448,67.875-67.875c0-11.729-5.814-27.203-17.775-47.309c-2.163-3.636-6.784-4.967-10.549-3.034l-9.551,4.899
	l-0.511-1.362c2.763-9.774,4.18-19.901,4.18-30.155c0-61.002-49.629-110.63-110.63-110.63s-110.63,49.629-110.63,110.63
	S216.344,435.04,277.347,435.04z M394.373,368.783c9.623,17.436,11.776,27.276,11.776,32.586c0,28.585-23.256,51.841-51.841,51.841
	c-28.585,0-51.841-23.256-51.841-51.841c0-6.035,2.709-17.26,14.56-37.491l4.877,7.612c3.495,5.456,11.986,4.546,14.256-1.509
	l18.148-48.392l18.148,48.392c1.656,4.417,6.958,6.472,11.165,4.318L394.373,368.783z M277.347,229.812
	c51.659,0,93.771,41.624,94.578,93.092l-10.112-26.964c-2.544-6.783-12.469-6.783-15.013,0l-20.033,53.422l-3.12-4.87
	c-3.093-4.828-10.375-4.844-13.486-0.022c-15.967,24.746-23.729,43.358-23.729,56.898c0,5.858,0.746,11.543,2.148,16.969
	c-3.719,0.439-7.474,0.668-11.234,0.668c-52.161,0-94.597-42.436-94.597-94.597S225.185,229.812,277.347,229.812z"/>
<g>
</g>
<g>
</g>
<g>
</g>
<g>
</g>
<g>
</g>
<g>
</g>
<g>
</g>
<g>
</g>
<g>
</g>
<g>
</g>
<g>
</g>
<g>
</g>
<g>
</g>
<g>
</g>
<g>
</g>
</svg>
