<?xml version="1.0" encoding="iso-8859-1"?>
<!-- Generator: Adobe Illustrator 19.0.0, SVG Export Plug-In . SVG Version: 6.00 Build 0)  -->
<svg version="1.1" id="Layer_1" xmlns="http://www.w3.org/2000/svg" xmlns:xlink="http://www.w3.org/1999/xlink" x="0px" y="0px"
	 viewBox="0 0 512 512" style="enable-background:new 0 0 512 512;" xml:space="preserve">
<rect x="50.772" y="59.324" style="fill:#D9DCDF;" width="410.455" height="171.023"/>
<rect x="50.772" y="119.182" style="fill:#C6CACF;" width="410.455" height="34.205"/>
<path style="fill:#A1A7AF;" d="M136.284,144.835v-42.756c0-4.722-3.829-8.551-8.551-8.551H16.568c-4.722,0-8.551,3.829-8.551,8.551
	v342.046c0,4.722,3.829,8.551,8.551,8.551h478.864c4.722,0,8.551-3.829,8.551-8.551V153.386c0-4.722-3.829-8.551-8.551-8.551
	H136.284z"/>
<path style="fill:#8E959F;" d="M33.67,427.023V93.528H16.568c-4.722,0-8.551,3.829-8.551,8.551v342.046
	c0,4.722,3.829,8.551,8.551,8.551h478.864c4.722,0,8.551-3.829,8.551-8.551v-17.102H33.67z"/>
<path style="fill:#FFC44F;" d="M358.614,409.921H170.489v-222.33h188.125c9.446,0,17.102,7.656,17.102,17.102v188.125
	C375.716,402.264,368.06,409.921,358.614,409.921z"/>
<rect x="170.489" y="187.591" style="fill:#F79F4D;" width="25.653" height="222.33"/>
<circle style="fill:#ECEDEF;" cx="273.102" cy="247.449" r="34.205"/>
<path style="fill:#D9DCDF;" d="M290.205,264.551c-18.891,0-34.205-15.314-34.205-34.205c0-5.018,1.089-9.778,3.03-14.072
	c-11.869,5.367-20.133,17.301-20.133,31.174c0,18.891,15.314,34.205,34.205,34.205c13.873,0,25.807-8.264,31.174-20.133
	C299.983,263.462,295.223,264.551,290.205,264.551z"/>
<path style="fill:#ECEDEF;" d="M230.347,307.307h85.511c9.446,0,17.102,7.656,17.102,17.102v85.512H213.244v-85.512
	C213.244,314.963,220.901,307.307,230.347,307.307z"/>
<path style="fill:#D9DCDF;" d="M256,307.307h-25.653c-9.446,0-17.102,7.658-17.102,17.102v85.512h25.653v-85.512
	C238.898,314.964,246.554,307.307,256,307.307z"/>
<path d="M495.432,136.818h-26.188V59.324c0-4.428-3.588-8.017-8.017-8.017h-68.409c-4.428,0-8.017,3.588-8.017,8.017
	s3.588,8.017,8.017,8.017h60.392v69.478h-308.91v-34.739c0-9.136-7.432-16.568-16.568-16.568H58.789V67.34h299.825
	c4.428,0,8.017-3.588,8.017-8.017s-3.588-8.017-8.017-8.017H50.772c-4.428,0-8.017,3.588-8.017,8.017v26.188H16.568
	C7.432,85.511,0,92.944,0,102.079v94.063c0,4.428,3.588,8.017,8.017,8.017s8.017-3.588,8.017-8.017v-94.063
	c0-0.294,0.241-0.534,0.534-0.534h111.165c0.294,0,0.534,0.241,0.534,0.534v42.756c0,4.428,3.588,8.017,8.017,8.017h359.148
	c0.294,0,0.534,0.241,0.534,0.534v290.739c0,0.294-0.241,0.534-0.534,0.534H16.568c-0.294,0-0.534-0.241-0.534-0.534V230.347
	c0-4.428-3.588-8.017-8.017-8.017S0,225.918,0,230.347v213.779c0,9.136,7.432,16.568,16.568,16.568h478.864
	c9.136,0,16.568-7.432,16.568-16.568V153.386C512,144.25,504.568,136.818,495.432,136.818z"/>
<path d="M230.881,247.449c0,23.281,18.941,42.221,42.221,42.221c23.281,0,42.221-18.941,42.221-42.221s-18.941-42.221-42.221-42.221
	C249.822,205.228,230.881,224.168,230.881,247.449z M299.29,247.449c0,14.441-11.747,26.188-26.188,26.188
	s-26.188-11.747-26.188-26.188c0-14.441,11.747-26.188,26.188-26.188C287.543,221.261,299.29,233.008,299.29,247.449z"/>
<path d="M136.284,359.148c-4.428,0-8.017,3.588-8.017,8.017c0,4.428,3.588,8.017,8.017,8.017h26.188v34.739
	c0,4.428,3.588,8.017,8.017,8.017h188.125c13.851,0,25.119-11.268,25.119-25.119v-17.102c0-4.428-3.588-8.017-8.017-8.017
	c-4.428,0-8.017,3.588-8.017,8.017v17.102c0,5.01-4.076,9.086-9.086,9.086h-17.637v-77.495c0-13.851-11.268-25.119-25.119-25.119
	h-85.511c-13.851,0-25.119,11.268-25.119,25.119v77.495h-26.722v-26.722h9.086c4.428,0,8.017-3.588,8.017-8.017
	c0-4.428-3.588-8.017-8.017-8.017h-9.086v-26.722h9.086c4.428,0,8.017-3.588,8.017-8.017c0-4.428-3.588-8.017-8.017-8.017h-9.086
	V289.67h9.086c4.428,0,8.017-3.588,8.017-8.017s-3.588-8.017-8.017-8.017h-9.086v-26.722h9.086c4.428,0,8.017-3.588,8.017-8.017
	c0-4.428-3.588-8.017-8.017-8.017h-9.086v-35.273h180.109c5.01,0,9.086,4.076,9.086,9.086v145.37c0,4.428,3.588,8.017,8.017,8.017
	c4.428,0,8.017-3.588,8.017-8.017v-145.37c0-13.851-11.268-25.119-25.119-25.119H170.489c-4.428,0-8.017,3.588-8.017,8.017v43.29
	h-26.188c-4.428,0-8.017,3.588-8.017,8.017c0,4.428,3.588,8.017,8.017,8.017h26.188v26.722h-26.188
	c-4.428,0-8.017,3.588-8.017,8.017s3.588,8.017,8.017,8.017h26.188v26.722h-26.188c-4.428,0-8.017,3.588-8.017,8.017
	c0,4.428,3.588,8.017,8.017,8.017h26.188v26.722H136.284z M221.261,324.409c0-5.01,4.076-9.086,9.086-9.086h85.511
	c5.01,0,9.086,4.076,9.086,9.086v77.495H221.261V324.409z"/>
<g>
</g>
<g>
</g>
<g>
</g>
<g>
</g>
<g>
</g>
<g>
</g>
<g>
</g>
<g>
</g>
<g>
</g>
<g>
</g>
<g>
</g>
<g>
</g>
<g>
</g>
<g>
</g>
<g>
</g>
</svg>
