<?xml version="1.0" encoding="iso-8859-1"?>
<!-- Generator: Adobe Illustrator 19.0.0, SVG Export Plug-In . SVG Version: 6.00 Build 0)  -->
<svg version="1.1" id="Layer_1" xmlns="http://www.w3.org/2000/svg" xmlns:xlink="http://www.w3.org/1999/xlink" x="0px" y="0px"
	 viewBox="0 0 512 512" style="enable-background:new 0 0 512 512;" xml:space="preserve">
<path style="fill:#ECEDEF;" d="M106.324,8.017c-9.446,0-17.102,7.656-17.102,17.102v461.762c0,9.446,7.656,17.102,17.102,17.102
	h376.251c9.446,0,17.102-7.656,17.102-17.102V84.977l-76.96-76.96H106.324z"/>
<path style="fill:#D9DCDF;" d="M439.818,84.977h59.858l-76.96-76.96v59.858C422.715,77.319,430.373,84.977,439.818,84.977z"/>
<path style="fill:#C6CACF;" d="M397.063,196.142H89.222V42.221h307.841c4.722,0,8.551,3.829,8.551,8.551v136.818
	C405.614,192.313,401.785,196.142,397.063,196.142z"/>
<polygon style="fill:#529E44;" points="388.512,179.04 12.261,179.04 80.67,110.63 12.261,42.221 388.512,42.221 "/>
<path style="fill:#FFC44F;" d="M217.489,375.716h-25.653c-9.446,0-17.102-7.656-17.102-17.102v-34.205
	c0-9.446,7.656-17.102,17.102-17.102h25.653V375.716z"/>
<rect x="200.385" y="307.307" style="fill:#F79F4D;" width="17.102" height="68.409"/>
<polygon style="fill:#FFC44F;" points="303,427.023 217.489,375.716 217.489,307.307 303,256 "/>
<path d="M499.677,426.489c4.428,0,8.017-3.589,8.017-8.017V84.977c0-2.1-0.862-4.183-2.347-5.668l-76.96-76.96
	C426.9,0.863,424.817,0,422.716,0H106.324C92.473,0,81.205,11.268,81.205,25.119v9.086H12.261c-6.987,0-10.615,8.738-5.669,13.685
	l62.741,62.741L6.592,173.371c-4.946,4.947-1.319,13.685,5.669,13.685h68.944v299.825c0,13.851,11.268,25.119,25.119,25.119h376.251
	c13.851,0,25.119-11.268,25.119-25.119v-34.205c0-4.427-3.588-8.017-8.017-8.017s-8.017,3.589-8.017,8.017v34.205
	c0,5.01-4.076,9.086-9.086,9.086H106.324c-5.01,0-9.086-4.076-9.086-9.086V187.056h51.841c4.428,0,8.017-3.589,8.017-8.017
	s-3.588-8.017-8.017-8.017H31.615l54.724-54.724c3.131-3.131,3.131-8.207,0-11.337L31.615,50.238h348.88v120.785H183.284
	c-4.428,0-8.017,3.589-8.017,8.017s3.588,8.017,8.017,8.017h205.228c4.428,0,8.017-3.589,8.017-8.017V42.221
	c0-4.427-3.588-8.017-8.017-8.017H97.238v-9.086c0-5.01,4.076-9.086,9.086-9.086H414.7v51.841c0,13.851,11.268,25.119,25.119,25.119
	h51.841v325.478C491.66,422.9,495.248,426.489,499.677,426.489z M439.819,76.96c-5.01,0-9.086-4.076-9.086-9.086V27.37l49.589,49.59
	H439.819z"/>
<path d="M174.731,144.301c3.413,0,6.529-2.244,7.607-5.481l17.102-51.307c1.4-4.201-0.869-8.74-5.07-10.141
	c-4.202-1.4-8.74,0.869-10.141,5.071l-10.982,32.945l-8.446-16.894c-2.897-5.793-11.444-5.793-14.34,0l-8.446,16.894l-10.982-32.945
	c-1.401-4.201-5.939-6.472-10.141-5.071c-4.201,1.4-6.47,5.94-5.07,10.141l17.102,51.307c1.025,3.076,3.803,5.232,7.038,5.461
	c3.242,0.228,6.288-1.511,7.738-4.411l9.932-19.863l9.932,19.863C168.927,142.598,171.712,144.301,174.731,144.301z"/>
<path d="M268.796,144.301c4.428,0,8.017-3.589,8.017-8.017V84.977c0-3.45-2.207-6.514-5.481-7.605
	c-3.277-1.09-6.879,0.034-8.949,2.795l-19.24,25.653l-19.24-25.653c-2.069-2.761-5.672-3.884-8.949-2.795
	c-3.274,1.091-5.481,4.155-5.481,7.605v51.307c0,4.427,3.588,8.017,8.017,8.017c4.428,0,8.017-3.589,8.017-8.017v-27.257
	l11.223,14.965c3.153,4.206,9.672,4.206,12.827,0l11.223-14.965v27.257C260.779,140.711,264.367,144.301,268.796,144.301z"/>
<path d="M302.054,138.819l9.497-28.49l9.497,28.49c1.439,4.315,6.333,6.582,10.563,4.915c3.906-1.539,5.973-6.009,4.648-9.986
	l-17.102-51.307c-1.091-3.274-4.155-5.481-7.605-5.481c-3.45,0-6.515,2.208-7.605,5.481l-17.102,51.307
	c-1.4,4.201,0.869,8.74,5.07,10.141C296.112,145.288,300.654,143.019,302.054,138.819z"/>
<path d="M191.835,383.733h23.433l83.608,50.164c5.255,3.152,12.141-0.772,12.141-6.874V256c0-6.109-6.891-10.024-12.141-6.874
	l-83.608,50.164h-23.433c-13.851,0-25.119,11.268-25.119,25.119v34.205C166.716,372.465,177.985,383.733,191.835,383.733z
	 M294.984,412.863l-69.478-41.687v-59.331l69.478-41.687V412.863z M182.75,324.409c0-5.01,4.076-9.086,9.086-9.086h17.637v52.376
	h-17.637c-5.01,0-9.086-4.076-9.086-9.086V324.409z"/>
<path d="M322.984,369.722c3.089,3.088,8.249,3.088,11.338,0c7.975-7.975,12.366-18.577,12.366-29.855s-4.391-21.88-12.366-29.855
	c-3.132-3.131-8.207-3.131-11.338,0s-3.131,8.207,0,11.337c4.947,4.947,7.671,11.523,7.671,18.518s-2.725,13.571-7.671,18.518
	C319.854,361.515,319.854,366.591,322.984,369.722z"/>
<path d="M352.84,396.256c2.051,0,4.103-0.782,5.668-2.348c14.436-14.434,22.386-33.627,22.386-54.041
	c0-20.414-7.95-39.606-22.385-54.041c-3.132-3.131-8.207-3.131-11.338,0c-3.131,3.131-3.131,8.207,0,11.337
	c11.408,11.407,17.69,26.573,17.69,42.704c0,16.132-6.282,31.297-17.689,42.704C342.232,387.508,345.828,396.256,352.84,396.256z"/>
<path d="M383.073,426.489c2.051,0,4.103-0.782,5.669-2.348c22.511-22.511,34.907-52.44,34.907-84.274s-12.397-61.764-34.907-84.274
	c-3.132-3.131-8.207-3.131-11.338,0c-3.131,3.131-3.131,8.207,0,11.337c19.483,19.483,30.212,45.385,30.212,72.937
	c0,27.552-10.73,53.454-30.212,72.937C372.466,417.742,376.062,426.489,383.073,426.489z"/>
<g>
</g>
<g>
</g>
<g>
</g>
<g>
</g>
<g>
</g>
<g>
</g>
<g>
</g>
<g>
</g>
<g>
</g>
<g>
</g>
<g>
</g>
<g>
</g>
<g>
</g>
<g>
</g>
<g>
</g>
</svg>
