<?xml version="1.0" encoding="iso-8859-1"?>
<!-- Generator: Adobe Illustrator 19.0.0, SVG Export Plug-In . SVG Version: 6.00 Build 0)  -->
<svg version="1.1" id="Layer_1" xmlns="http://www.w3.org/2000/svg" xmlns:xlink="http://www.w3.org/1999/xlink" x="0px" y="0px"
	 viewBox="0 0 512 512" style="enable-background:new 0 0 512 512;" xml:space="preserve">
<path style="fill:#ECEDEF;" d="M106.324,8.017c-9.446,0-17.102,7.656-17.102,17.102v461.762c0,9.446,7.656,17.102,17.102,17.102
	h376.251c9.446,0,17.102-7.656,17.102-17.102V84.977l-76.96-76.96H106.324z"/>
<path style="fill:#D9DCDF;" d="M439.819,84.977h59.858l-76.96-76.96v59.858C422.717,77.319,430.373,84.977,439.819,84.977z"/>
<path style="fill:#C6CACF;" d="M397.063,196.142H89.222V42.221h307.841c4.722,0,8.551,3.829,8.551,8.551v136.818
	C405.615,192.313,401.786,196.142,397.063,196.142z"/>
<polygon style="fill:#529E44;" points="388.512,179.04 12.262,179.04 80.671,110.63 12.262,42.221 388.512,42.221 "/>
<rect x="166.181" y="221.795" style="fill:#FF8C78;" width="256.534" height="42.756"/>
<g>
	<rect x="251.693" y="315.858" style="fill:#97CCE8;" width="171.023" height="51.307"/>
	<rect x="251.693" y="264.551" style="fill:#97CCE8;" width="85.511" height="51.307"/>
</g>
<path d="M499.677,426.489c4.427,0,8.017-3.589,8.017-8.017V84.977c0-2.1-0.863-4.184-2.348-5.668l-76.96-76.96
	C426.899,0.863,424.817,0,422.716,0H106.323C92.473,0,81.204,11.268,81.204,25.119v9.086H12.261c-6.987,0-10.616,8.738-5.668,13.685
	l62.741,62.741l-62.74,62.741c-4.947,4.947-1.32,13.685,5.668,13.685h68.944v299.825c0,13.851,11.268,25.119,25.119,25.119h376.251
	c13.851,0,25.119-11.268,25.119-25.119v-34.205c0-4.427-3.589-8.017-8.017-8.017c-4.427,0-8.017,3.589-8.017,8.017v34.205
	c0,5.01-4.076,9.086-9.086,9.086H106.324c-5.01,0-9.086-4.076-9.086-9.086V187.056h51.841c4.427,0,8.017-3.589,8.017-8.017
	s-3.589-8.017-8.017-8.017H31.615l54.724-54.724c3.131-3.131,3.131-8.207,0-11.337L31.615,50.238h348.88v120.785H183.285
	c-4.427,0-8.017,3.589-8.017,8.017s3.589,8.017,8.017,8.017h205.228c4.427,0,8.017-3.589,8.017-8.017V42.221
	c0-4.427-3.589-8.017-8.017-8.017H97.239v-9.086c0-5.01,4.076-9.086,9.086-9.086H414.7v51.841c0,13.851,11.268,25.119,25.119,25.119
	h51.841v325.478C491.66,422.9,495.25,426.489,499.677,426.489z M430.732,67.875V27.37l24.795,24.795l24.795,24.795h-40.505
	C434.808,76.96,430.732,72.885,430.732,67.875z"/>
<path d="M430.734,367.165v-145.37c0-4.427-3.589-8.017-8.017-8.017H268.796c-4.427,0-8.017,3.589-8.017,8.017
	s3.589,8.017,8.017,8.017H414.7v26.722H174.199v-26.722h51.841c4.427,0,8.017-3.589,8.017-8.017s-3.589-8.017-8.017-8.017h-59.858
	c-4.427,0-8.017,3.589-8.017,8.017v239.432c0,4.427,3.589,8.017,8.017,8.017h171.023c4.427,0,8.017-3.589,8.017-8.017v-86.046
	h77.495C427.144,375.182,430.734,371.592,430.734,367.165z M414.7,307.841h-69.478v-35.273H414.7V307.841z M174.199,375.182h69.478
	v35.273h-69.478V375.182z M174.199,359.148v-35.273h69.478v35.273H174.199z M259.711,323.875h69.478v35.273h-69.478L259.711,323.875
	L259.711,323.875z M259.711,307.841v-35.273h69.478v35.273H259.711z M243.677,272.568v35.273h-69.478v-35.273H243.677z
	 M174.199,426.489h69.478v26.722h-69.478V426.489z M259.711,426.489h69.478v26.722h-69.478L259.711,426.489L259.711,426.489z
	 M329.189,410.455h-69.478v-35.273h69.478V410.455z M345.222,323.875H414.7v35.273h-69.478V323.875z"/>
<path d="M419.383,386.732c-3.363-2.882-8.423-2.493-11.304,0.869l-19.567,22.828l-19.567-22.828
	c-2.882-3.362-7.943-3.752-11.304-0.869c-3.362,2.882-3.751,7.942-0.869,11.304l21.181,24.712l-21.181,24.712
	c-2.616,3.052-2.53,7.725,0.21,10.67c3.216,3.459,8.891,3.348,11.964-0.236l19.567-22.828l19.567,22.828
	c3.072,3.584,8.747,3.695,11.964,0.236c2.74-2.946,2.825-7.619,0.21-10.67l-21.183-24.712l21.181-24.712
	C423.134,394.674,422.745,389.613,419.383,386.732z"/>
<path d="M285.898,128.267c-4.427,0-8.017,3.589-8.017,8.017c0,4.427,3.589,8.017,8.017,8.017h25.653
	c4.427,0,8.017-3.589,8.017-8.017V110.63c0-4.427-3.589-8.017-8.017-8.017h-17.637v-9.62h17.637c4.427,0,8.017-3.589,8.017-8.017
	c0-4.427-3.589-8.017-8.017-8.017h-25.653c-4.427,0-8.017,3.589-8.017,8.017v25.653c0,4.427,3.589,8.017,8.017,8.017h17.637v9.62
	H285.898z"/>
<path d="M234.592,76.96c-4.427,0-8.017,3.589-8.017,8.017v51.307c0,4.427,3.589,8.017,8.017,8.017h25.653
	c4.427,0,8.017-3.589,8.017-8.017c0-4.427-3.589-8.017-8.017-8.017h-17.637v-43.29C242.608,80.55,239.019,76.96,234.592,76.96z"/>
<path d="M161.051,142.443c3.356,2.797,8.495,2.328,11.291-1.026l15.219-18.263l15.219,18.263c3.023,3.628,8.697,3.815,11.96,0.402
	c2.78-2.907,2.931-7.578,0.358-10.666l-17.101-20.522l17.101-20.522c2.835-3.401,2.375-8.456-1.026-11.291
	c-3.401-2.834-8.456-2.375-11.291,1.026l-15.219,18.263l-15.219-18.263c-2.835-3.402-7.891-3.862-11.291-1.026
	c-3.401,2.835-3.861,7.89-1.026,11.291l17.101,20.522l-17.101,20.522C157.189,134.553,157.648,139.608,161.051,142.443z"/>
<g>
</g>
<g>
</g>
<g>
</g>
<g>
</g>
<g>
</g>
<g>
</g>
<g>
</g>
<g>
</g>
<g>
</g>
<g>
</g>
<g>
</g>
<g>
</g>
<g>
</g>
<g>
</g>
<g>
</g>
</svg>
