<?xml version="1.0" encoding="iso-8859-1"?>
<!-- Generator: Adobe Illustrator 19.0.0, SVG Export Plug-In . SVG Version: 6.00 Build 0)  -->
<svg version="1.1" id="Layer_1" xmlns="http://www.w3.org/2000/svg" xmlns:xlink="http://www.w3.org/1999/xlink" x="0px" y="0px"
	 viewBox="0 0 512 512" style="enable-background:new 0 0 512 512;" xml:space="preserve">
<path style="fill:#ECEDEF;" d="M106.324,8.017c-9.446,0-17.102,7.656-17.102,17.102v461.762c0,9.446,7.656,17.102,17.102,17.102
	h376.251c9.446,0,17.102-7.656,17.102-17.102V84.977l-76.96-76.96H106.324z"/>
<path style="fill:#D9DCDF;" d="M439.818,84.977h59.858l-76.96-76.96v59.858C422.715,77.319,430.373,84.977,439.818,84.977z"/>
<path style="fill:#C6CACF;" d="M397.063,196.142H89.222V42.221h307.841c4.722,0,8.551,3.829,8.551,8.551v136.818
	C405.614,192.313,401.785,196.142,397.063,196.142z"/>
<polygon style="fill:#C4DF64;" points="388.512,179.04 12.261,179.04 80.67,110.63 12.261,42.221 388.512,42.221 "/>
<path style="fill:#C6CACF;" d="M277.347,221.795c-61.395,0-111.165,49.77-111.165,111.165s49.77,111.165,111.165,111.165
	s111.165-49.77,111.165-111.165S338.741,221.795,277.347,221.795z M277.347,358.614c-14.168,0-25.653-11.485-25.653-25.653
	c0-14.168,11.485-25.653,25.653-25.653c14.168,0,25.653,11.485,25.653,25.653C303,347.129,291.515,358.614,277.347,358.614z"/>
<g>
	<path style="fill:#D9DCDF;" d="M259.207,351.101l-60.465,60.466c20.117,20.117,47.908,32.56,78.605,32.56v-85.511
		C270.262,358.614,263.849,355.743,259.207,351.101z"/>
	<path style="fill:#D9DCDF;" d="M295.486,314.82l60.465-60.466c-20.117-20.117-47.908-32.56-78.605-32.56v85.511
		C284.43,307.307,290.844,310.178,295.486,314.82z"/>
</g>
<path style="fill:#A1A7AF;" d="M277.347,264.551c-37.781,0-68.409,30.628-68.409,68.409s30.628,68.409,68.409,68.409
	s68.409-30.628,68.409-68.409S315.128,264.551,277.347,264.551z M277.347,358.614c-14.168,0-25.653-11.485-25.653-25.653
	c0-14.168,11.485-25.653,25.653-25.653c14.168,0,25.653,11.485,25.653,25.653C303,347.129,291.515,358.614,277.347,358.614z"/>
<ellipse style="fill:#FF8C78;" cx="294.448" cy="435.574" rx="34.205" ry="25.653"/>
<path style="fill:#DB6B5E;" d="M311.551,444.125c-18.891,0-34.205-11.485-34.205-25.653c0-1.87,0.274-3.691,0.78-5.447
	c-10.653,4.346-17.883,12.815-17.883,22.549c0,14.168,15.314,25.653,34.205,25.653c16.398,0,30.094-8.656,33.424-20.206
	C323.023,443.001,317.462,444.125,311.551,444.125z"/>
<ellipse style="fill:#FF8C78;" cx="388.511" cy="384.267" rx="34.205" ry="25.653"/>
<path style="fill:#DB6B5E;" d="M405.614,392.818c-18.891,0-34.205-11.485-34.205-25.653c0-1.87,0.274-3.691,0.78-5.447
	c-10.653,4.346-17.883,12.815-17.883,22.549c0,14.168,15.314,25.653,34.205,25.653c16.398,0,30.094-8.656,33.424-20.206
	C417.085,391.694,411.525,392.818,405.614,392.818z"/>
<path d="M294.449,128.267c-4.428,0-8.017,3.589-8.017,8.017c0,4.427,3.588,8.017,8.017,8.017h25.653
	c4.428,0,8.017-3.589,8.017-8.017v-17.637h0.534c4.428,0,8.017-3.589,8.017-8.017c0-4.427-3.588-8.017-8.017-8.017h-0.534V84.977
	c0-4.427-3.588-8.017-8.017-8.017h-25.653c-4.428,0-8.017,3.589-8.017,8.017c0,4.427,3.588,8.017,8.017,8.017h17.637v9.62H303
	c-4.428,0-8.017,3.589-8.017,8.017c0,4.427,3.588,8.017,8.017,8.017h9.086v9.62H294.449z"/>
<path d="M242.608,136.284v-17.655c0.176,0.012,0.355,0.018,0.534,0.018h25.653c4.428,0,8.017-3.589,8.017-8.017V84.977
	c0-4.427-3.588-8.017-8.017-8.017h-34.205c-4.428,0-8.017,3.589-8.017,8.017v51.307c0,4.427,3.588,8.017,8.017,8.017
	C239.02,144.301,242.608,140.711,242.608,136.284z M242.608,92.994h18.171v9.62h-17.637c-0.18,0-0.358,0.005-0.534,0.018V92.994z"/>
<path d="M208.938,144.301c4.428,0,8.017-3.589,8.017-8.017V84.977c0-3.45-2.207-6.514-5.481-7.605
	c-3.275-1.091-6.879,0.034-8.949,2.795l-19.24,25.653l-19.24-25.653c-2.07-2.761-5.672-3.885-8.949-2.795
	c-3.274,1.091-5.481,4.155-5.481,7.605v51.307c0,4.427,3.588,8.017,8.017,8.017c4.428,0,8.017-3.589,8.017-8.017v-27.257
	l11.223,14.965c3.153,4.206,9.672,4.206,12.827,0l11.223-14.965v27.257C200.921,140.711,204.509,144.301,208.938,144.301z"/>
<path d="M255.596,450.16c0.292,0.053,0.583,0.087,0.872,0.108c6.855,11.223,21.303,18.976,37.981,18.976
	c22.961,0,41.687-14.695,42.197-32.91c10.957-6.296,20.786-14.239,29.261-23.651c6.541,3.321,14.293,5.254,22.605,5.254
	c23.28,0,42.221-15.105,42.221-33.67V247.448c0-6.199-7.075-10.1-12.32-6.764l-41.704,26.538
	c-21.363-32.181-57.923-53.444-99.362-53.444c-13.384,0-26.525,2.204-39.061,6.55c-4.183,1.45-6.398,6.017-4.948,10.2
	c1.45,4.183,6.016,6.399,10.2,4.948c10.843-3.759,22.217-5.665,33.808-5.665c35.762,0,67.327,18.297,85.839,46.018l-38.835,24.713
	c-2.312,1.472-3.713,4.022-3.713,6.764v101.886c-7.203-4.557-16.301-7.289-26.188-7.289c-22.212,0-40.459,13.751-42.09,31.138
	c-45.645-11.322-78.161-52.435-78.161-100.082c0-31.062,13.803-60.172,37.869-79.867c3.426-2.805,3.931-7.855,1.127-11.281
	c-2.804-3.427-7.855-3.931-11.281-1.127c-27.802,22.752-43.748,56.385-43.748,92.275
	C158.165,390.455,199.141,439.745,255.596,450.16z M388.512,401.904c-14.195,0-26.188-8.077-26.188-17.637
	s11.993-17.637,26.188-17.637c14.195,0,26.188,8.077,26.188,17.637S402.707,401.904,388.512,401.904z M414.7,262.053v95.833
	c-5.555-3.514-12.236-5.942-19.54-6.868c0.904-5.955,1.369-12.002,1.369-18.058c0-18.552-4.263-36.126-11.857-51.799L414.7,262.053z
	 M371.036,289.839c6.067,13.128,9.459,27.736,9.459,43.121c0,6.235-0.563,12.457-1.666,18.541
	c-18.628,3.501-32.538,16.858-32.538,32.766c0,6.828,2.569,13.184,6.966,18.496c-5.016,5.456-10.565,10.326-16.586,14.565V311.708
	L371.036,289.839z M294.449,417.937c14.195,0,26.188,8.077,26.188,17.637s-11.993,17.637-26.188,17.637
	c-14.195,0-26.188-8.077-26.188-17.637S280.254,417.937,294.449,417.937z"/>
<path d="M311.017,332.96c0-18.566-15.105-33.67-33.67-33.67c-18.566,0-33.67,15.105-33.67,33.67c0,18.566,15.105,33.67,33.67,33.67
	C295.912,366.63,311.017,351.526,311.017,332.96z M259.71,332.96c0-9.725,7.912-17.637,17.637-17.637
	c9.725,0,17.637,7.912,17.637,17.637c0,9.725-7.912,17.637-17.637,17.637C267.622,350.597,259.71,342.685,259.71,332.96z"/>
<path d="M499.677,426.489c4.428,0,8.017-3.589,8.017-8.017V84.977c0-2.1-0.862-4.184-2.347-5.668l-76.96-76.96
	C426.9,0.863,424.817,0,422.716,0H106.324C92.473,0,81.205,11.268,81.205,25.119v9.086H12.261c-6.987,0-10.615,8.738-5.669,13.685
	l62.741,62.741L6.592,173.371c-4.946,4.947-1.319,13.685,5.669,13.685h68.944v299.825c0,13.851,11.268,25.119,25.119,25.119h376.251
	c13.851,0,25.119-11.268,25.119-25.119v-34.205c0-4.427-3.588-8.017-8.017-8.017s-8.017,3.589-8.017,8.017v34.205
	c0,5.01-4.076,9.086-9.086,9.086H106.324c-5.01,0-9.086-4.076-9.086-9.086V187.056h51.841c4.428,0,8.017-3.589,8.017-8.017
	s-3.588-8.017-8.017-8.017H31.615l54.724-54.724c3.131-3.131,3.131-8.207,0-11.337L31.615,50.238h348.88v120.785H183.284
	c-4.428,0-8.017,3.589-8.017,8.017s3.588,8.017,8.017,8.017h205.228c4.428,0,8.017-3.589,8.017-8.017V42.221
	c0-4.427-3.588-8.017-8.017-8.017H97.238v-9.086c0-5.01,4.076-9.086,9.086-9.086H414.7v51.841c0,13.851,11.268,25.119,25.119,25.119
	h51.841v325.478C491.66,422.9,495.248,426.489,499.677,426.489z M439.819,76.96c-5.01,0-9.086-4.076-9.086-9.086V27.37l49.589,49.59
	H439.819z"/>
<g>
</g>
<g>
</g>
<g>
</g>
<g>
</g>
<g>
</g>
<g>
</g>
<g>
</g>
<g>
</g>
<g>
</g>
<g>
</g>
<g>
</g>
<g>
</g>
<g>
</g>
<g>
</g>
<g>
</g>
</svg>
