<?xml version="1.0" encoding="iso-8859-1"?>
<!-- Generator: Adobe Illustrator 19.0.0, SVG Export Plug-In . SVG Version: 6.00 Build 0)  -->
<svg version="1.1" id="Layer_1" xmlns="http://www.w3.org/2000/svg" xmlns:xlink="http://www.w3.org/1999/xlink" x="0px" y="0px"
	 viewBox="0 0 512 512" style="enable-background:new 0 0 512 512;" xml:space="preserve">
<rect x="50.772" y="59.324" style="fill:#D9DCDF;" width="410.455" height="171.023"/>
<rect x="50.772" y="119.182" style="fill:#C6CACF;" width="410.455" height="34.205"/>
<path style="fill:#A1A7AF;" d="M136.284,144.835v-42.756c0-4.722-3.829-8.551-8.551-8.551H16.568c-4.722,0-8.551,3.829-8.551,8.551
	v342.046c0,4.722,3.829,8.551,8.551,8.551h478.864c4.722,0,8.551-3.829,8.551-8.551V153.386c0-4.722-3.829-8.551-8.551-8.551
	H136.284z"/>
<path style="fill:#8E959F;" d="M33.67,427.023V93.528H16.568c-4.722,0-8.551,3.829-8.551,8.551v342.046
	c0,4.722,3.829,8.551,8.551,8.551h478.864c4.722,0,8.551-3.829,8.551-8.551v-17.102H33.67z"/>
<path style="fill:#FF8C78;" d="M256,409.921c0,0-119.716-76.96-119.716-136.818c0-42.503,34.205-102.614,119.716-59.858
	c85.511-42.756,119.716,17.355,119.716,59.858C375.716,332.96,256,409.921,256,409.921z"/>
<path style="fill:#DB6B5E;" d="M179.04,247.449c0-15.746,4.701-33.905,14.959-48.359c-40.505,4.885-57.715,43.87-57.715,74.012
	C136.284,332.96,256,409.921,256,409.921s17.343-11.153,38.821-28.259C274.156,367.746,179.04,300.805,179.04,247.449z"/>
<circle style="fill:#FFC5BB;" cx="315.858" cy="247.449" r="25.653"/>
<circle style="fill:#FFC44F;" cx="350.063" cy="341.511" r="51.307"/>
<path style="fill:#F79F4D;" d="M367.165,375.716c-28.336,0-51.307-22.971-51.307-51.307c0-9.785,2.742-18.929,7.495-26.71
	c-14.751,9.012-24.597,25.261-24.597,43.812c0,28.336,22.971,51.307,51.307,51.307c18.551,0,34.8-9.847,43.812-24.597
	C386.094,372.974,376.951,375.716,367.165,375.716z"/>
<path d="M495.432,136.818h-26.188V59.324c0-4.428-3.588-8.017-8.017-8.017h-68.409c-4.428,0-8.017,3.588-8.017,8.017
	s3.588,8.017,8.017,8.017h60.392v69.478h-308.91v-34.739c0-9.136-7.432-16.568-16.568-16.568H58.789V67.34h299.825
	c4.428,0,8.017-3.588,8.017-8.017s-3.588-8.017-8.017-8.017H50.772c-4.428,0-8.017,3.588-8.017,8.017v26.188H16.568
	C7.432,85.511,0,92.944,0,102.079v94.063c0,4.428,3.588,8.017,8.017,8.017s8.017-3.588,8.017-8.017v-94.063
	c0-0.294,0.241-0.534,0.534-0.534h111.165c0.294,0,0.534,0.241,0.534,0.534v42.756c0,4.428,3.588,8.017,8.017,8.017h359.148
	c0.294,0,0.534,0.241,0.534,0.534v290.739c0,0.294-0.241,0.534-0.534,0.534H16.568c-0.294,0-0.534-0.241-0.534-0.534V230.347
	c0-4.428-3.588-8.017-8.017-8.017S0,225.918,0,230.347v213.779c0,9.136,7.432,16.568,16.568,16.568h478.864
	c9.136,0,16.568-7.432,16.568-16.568V153.386C512,144.25,504.568,136.818,495.432,136.818z"/>
<path d="M346.913,200.744c-16.667-10.3-45.841-17.834-90.913,3.583c-45.072-21.416-74.245-13.882-90.913-3.583
	c-27.178,16.797-36.82,49.477-36.82,72.359c0,27.205,21.04,59.786,62.536,96.836c30.055,26.835,59.618,45.926,60.862,46.726
	c2.613,1.68,6.056,1.68,8.67,0c0.937-0.602,21.974-14.183,46.591-34.492c10.825,11.478,26.154,18.663,43.137,18.663
	c32.711,0,59.324-26.612,59.324-59.324c0-21.397-11.389-40.18-28.421-50.616c1.835-6.157,2.767-12.12,2.767-17.793
	C383.733,250.221,374.09,217.54,346.913,200.744z M255.971,400.315c-34.852-23.272-111.671-83.664-111.671-127.212
	c0-18.759,7.651-45.393,29.216-58.721c19.555-12.084,46.838-9.998,78.898,6.033c2.256,1.13,4.915,1.13,7.171,0
	c32.059-16.031,59.343-18.116,78.898-6.033c21.564,13.328,29.215,39.962,29.215,58.721c0,3.558-0.532,7.348-1.569,11.314
	c-5.115-1.441-10.499-2.229-16.068-2.229c-32.711,0-59.324,26.612-59.324,59.324c0,9.958,2.478,19.344,6.831,27.592
	C279.743,383.87,263.448,395.258,255.971,400.315z M393.353,341.511c0,23.871-19.42,43.29-43.29,43.29
	c-23.871,0-43.29-19.42-43.29-43.29c0-23.871,19.42-43.29,43.29-43.29C373.933,298.221,393.353,317.641,393.353,341.511z"/>
<path d="M367.165,333.495h-9.086v-9.086c0-4.428-3.588-8.017-8.017-8.017c-4.428,0-8.017,3.588-8.017,8.017v9.086h-9.086
	c-4.428,0-8.017,3.588-8.017,8.017c0,4.428,3.588,8.017,8.017,8.017h9.086v9.086c0,4.428,3.588,8.017,8.017,8.017
	c4.428,0,8.017-3.588,8.017-8.017v-9.086h9.086c4.428,0,8.017-3.588,8.017-8.017C375.182,337.083,371.593,333.495,367.165,333.495z"
	/>
<g>
</g>
<g>
</g>
<g>
</g>
<g>
</g>
<g>
</g>
<g>
</g>
<g>
</g>
<g>
</g>
<g>
</g>
<g>
</g>
<g>
</g>
<g>
</g>
<g>
</g>
<g>
</g>
<g>
</g>
</svg>
