<?xml version="1.0" encoding="iso-8859-1"?>
<!-- Generator: Adobe Illustrator 19.0.0, SVG Export Plug-In . SVG Version: 6.00 Build 0)  -->
<svg version="1.1" id="Layer_1" xmlns="http://www.w3.org/2000/svg" xmlns:xlink="http://www.w3.org/1999/xlink" x="0px" y="0px"
	 viewBox="0 0 512 512" style="enable-background:new 0 0 512 512;" xml:space="preserve">
<rect x="50.772" y="59.324" style="fill:#D9DCDF;" width="410.455" height="171.023"/>
<rect x="50.772" y="119.182" style="fill:#C6CACF;" width="410.455" height="34.205"/>
<path style="fill:#A1A7AF;" d="M136.284,144.835v-42.756c0-4.722-3.829-8.551-8.551-8.551H16.568c-4.722,0-8.551,3.829-8.551,8.551
	v342.046c0,4.722,3.829,8.551,8.551,8.551h478.864c4.722,0,8.551-3.829,8.551-8.551V153.386c0-4.722-3.829-8.551-8.551-8.551
	H136.284z"/>
<path style="fill:#8E959F;" d="M33.67,427.023V93.528H16.568c-4.722,0-8.551,3.829-8.551,8.551v342.046
	c0,4.722,3.829,8.551,8.551,8.551h478.864c4.722,0,8.551-3.829,8.551-8.551v-17.102H33.67z"/>
<path style="fill:#8AC451;" d="M350.063,298.756c0,0,0-68.409,0-102.614c-5.027,4.213-20.172,15.786-42.756,17.102
	c-27.837,1.622-46.987-13.507-51.307-17.102c-4.319,3.596-23.47,18.724-51.307,17.102c-22.584-1.316-37.729-12.89-42.756-17.102
	c0,34.205,0,102.614,0,102.614c-0.034,7.86,0.718,40.21,25.653,68.409c26.478,29.945,61.114,33.6,68.409,34.205
	c7.295-0.605,41.932-4.26,68.409-34.205C349.344,338.965,350.097,306.615,350.063,298.756z"/>
<path style="fill:#FFC44F;" d="M256,375.588c-9.196-1.097-31.812-5.761-49.192-25.415c-17.463-19.75-19.257-42.458-19.219-51.304
	v-62.206c4.877,1.097,10.087,1.871,15.61,2.192c1.875,0.11,3.776,0.165,5.649,0.165c19.515,0,35.62-5.929,47.15-12.153
	c11.532,6.225,27.637,12.154,47.151,12.153c1.874,0,3.774-0.056,5.648-0.165c5.523-0.322,10.732-1.095,15.61-2.192v62.206
	c0.039,8.846-1.756,31.555-19.218,51.304C287.812,369.826,265.196,374.491,256,375.588z"/>
<path style="fill:#55606E;" d="M290.205,281.653c0-18.891-15.314-34.205-34.205-34.205s-34.205,15.314-34.205,34.205
	c0,12.658,6.882,23.703,17.102,29.617v47.343h34.205V311.27C283.323,305.356,290.205,294.311,290.205,281.653z"/>
<path style="fill:#68727E;" d="M260.283,303.87c-7.916-4.582-12.834-13.095-12.834-22.217c0-14.145,11.508-25.653,25.653-25.653
	c2.205,0,4.347,0.28,6.391,0.806c-6.128-5.797-14.393-9.357-23.493-9.357c-18.891,0-34.205,15.314-34.205,34.205
	c0,12.658,6.882,23.703,17.102,29.617v47.343h25.653v-52.273L260.283,303.87z"/>
<path d="M495.432,136.818h-26.188V59.324c0-4.428-3.588-8.017-8.017-8.017h-68.409c-4.428,0-8.017,3.588-8.017,8.017
	s3.588,8.017,8.017,8.017h60.392v69.478h-308.91v-34.739c0-9.136-7.432-16.568-16.568-16.568H58.789V67.34h299.825
	c4.428,0,8.017-3.588,8.017-8.017s-3.588-8.017-8.017-8.017H50.772c-4.427,0-8.017,3.588-8.017,8.017v26.188H16.568
	C7.432,85.511,0,92.944,0,102.079v94.063c0,4.428,3.589,8.017,8.017,8.017s8.017-3.588,8.017-8.017v-94.063
	c0-0.294,0.239-0.534,0.534-0.534h111.165c0.295,0,0.534,0.241,0.534,0.534v42.756c0,4.428,3.589,8.017,8.017,8.017h359.148
	c0.294,0,0.534,0.241,0.534,0.534v290.739c0,0.294-0.241,0.534-0.534,0.534H16.568c-0.295,0-0.534-0.241-0.534-0.534V230.347
	c0-4.428-3.589-8.017-8.017-8.017S0,225.918,0,230.347v213.779c0,9.136,7.432,16.568,16.568,16.568h478.864
	c9.136,0,16.568-7.432,16.568-16.568V153.386C512,144.25,504.568,136.818,495.432,136.818z"/>
<path d="M161.937,273.637c-4.427,0-8.017,3.588-8.017,8.017v17.067c-0.056,12.706,2.529,45.326,27.664,73.755
	c26.495,29.964,60.403,35.776,73.753,36.884c0.22,0.018,0.441,0.027,0.663,0.027s0.443-0.01,0.663-0.027
	c13.348-1.108,47.258-6.92,73.751-36.884c25.137-28.427,27.721-61.048,27.665-73.719V196.142c0-6.661-8.049-10.438-13.166-6.144
	c-6.239,5.228-19.481,14.161-38.073,15.243c-23.086,1.345-39.66-10.224-45.712-15.261c-2.973-2.473-7.286-2.473-10.257,0
	c-6.051,5.038-22.619,16.619-45.712,15.261c-18.593-1.083-31.835-10.016-38.073-15.243c-5.117-4.292-13.166-0.518-13.166,6.144V256
	c0,4.428,3.589,8.017,8.017,8.017s8.017-3.588,8.017-8.017v-44.731c8.671,4.777,20.242,9.16,34.272,9.978
	c23.75,1.384,41.92-8.146,51.774-15.038c9.854,6.891,28.011,16.429,51.774,15.038c14.029-0.818,25.601-5.201,34.272-9.978v87.522
	c0.048,10.867-2.16,38.769-23.642,63.064c-22.218,25.128-50.56,30.383-62.404,31.467c-11.844-1.085-40.185-6.341-62.403-31.467
	c-21.483-24.295-23.69-52.196-23.643-63.099v-17.102C169.954,277.225,166.365,273.637,161.937,273.637z"/>
<path d="M238.898,366.63h34.205c4.428,0,8.017-3.588,8.017-8.017v-43.035c10.653-7.909,17.102-20.515,17.102-33.926
	c0-23.28-18.941-42.221-42.221-42.221c-23.28,0-42.221,18.941-42.221,42.221c0,13.41,6.45,26.017,17.102,33.926v43.035
	C230.881,363.042,234.47,366.63,238.898,366.63z M229.812,281.653c0-14.441,11.748-26.188,26.188-26.188
	c14.441,0,26.188,11.747,26.188,26.188c0,9.312-5.02,18.003-13.101,22.68c-2.476,1.433-4.001,4.077-4.001,6.938v39.326h-18.171
	v-39.326c0-2.861-1.524-5.505-4.001-6.938C234.833,299.656,229.812,290.966,229.812,281.653z"/>
<g>
</g>
<g>
</g>
<g>
</g>
<g>
</g>
<g>
</g>
<g>
</g>
<g>
</g>
<g>
</g>
<g>
</g>
<g>
</g>
<g>
</g>
<g>
</g>
<g>
</g>
<g>
</g>
<g>
</g>
</svg>
