<?xml version="1.0" encoding="iso-8859-1"?>
<!-- Generator: Adobe Illustrator 19.0.0, SVG Export Plug-In . SVG Version: 6.00 Build 0)  -->
<svg version="1.1" id="Layer_1" xmlns="http://www.w3.org/2000/svg" xmlns:xlink="http://www.w3.org/1999/xlink" x="0px" y="0px"
	 viewBox="0 0 512 512" style="enable-background:new 0 0 512 512;" xml:space="preserve">
<path style="fill:#ECEDEF;" d="M106.324,8.017c-9.446,0-17.102,7.656-17.102,17.102v461.762c0,9.446,7.656,17.102,17.102,17.102
	h376.251c9.446,0,17.102-7.656,17.102-17.102V84.977l-76.96-76.96H106.324z"/>
<path style="fill:#D9DCDF;" d="M439.818,84.977h59.858l-76.96-76.96v59.858C422.715,77.319,430.373,84.977,439.818,84.977z"/>
<path style="fill:#C6CACF;" d="M397.063,196.142H89.222V42.221h307.841c4.722,0,8.551,3.829,8.551,8.551v136.818
	C405.614,192.313,401.785,196.142,397.063,196.142z"/>
<polygon style="fill:#FF8C78;" points="388.512,179.04 12.261,179.04 80.67,110.63 12.261,42.221 388.512,42.221 "/>
<path style="fill:#FFC44F;" d="M414.165,461.228H174.733c-4.722,0-8.551-3.829-8.551-8.551V332.96c0-4.722,3.829-8.551,8.551-8.551
	h239.432c4.722,0,8.551,3.829,8.551,8.551v119.716C422.716,457.399,418.888,461.228,414.165,461.228z"/>
<path style="fill:#F79F4D;" d="M191.835,435.574V324.409h-17.102c-4.722,0-8.551,3.829-8.551,8.551v119.716
	c0,4.722,3.829,8.551,8.551,8.551h239.432c4.722,0,8.551-3.829,8.551-8.551v-17.102H191.835z"/>
<g>
	<rect x="191.834" y="273.102" style="fill:#C6CACF;" width="205.228" height="51.307"/>
	<rect x="226.039" y="221.795" style="fill:#C6CACF;" width="136.818" height="51.307"/>
</g>
<g>
	<rect x="191.834" y="298.756" style="fill:#B3B9BF;" width="205.228" height="25.653"/>
	<rect x="226.039" y="247.449" style="fill:#B3B9BF;" width="136.818" height="25.653"/>
</g>
<rect x="268.795" y="401.37" style="fill:#7B848F;" width="51.307" height="25.653"/>
<rect x="268.795" y="358.614" style="fill:#ECEDEF;" width="51.307" height="42.756"/>
<path d="M499.677,426.489c4.428,0,8.017-3.588,8.017-8.017V84.977c0-2.1-0.863-4.183-2.347-5.669l-76.96-76.96
	C426.899,0.863,424.818,0,422.716,0H106.324C92.473,0,81.205,11.268,81.205,25.119v9.086H12.261c-6.988,0-10.615,8.738-5.668,13.686
	l62.74,62.74l-62.74,62.74c-4.947,4.947-1.321,13.686,5.668,13.686h68.944v299.825c0,13.851,11.268,25.119,25.119,25.119h376.251
	c13.851,0,25.119-11.268,25.119-25.119v-34.205c0-4.428-3.588-8.017-8.017-8.017s-8.017,3.588-8.017,8.017v34.205
	c0,5.01-4.076,9.086-9.086,9.086H106.324c-5.01,0-9.086-4.076-9.086-9.086V187.056h51.841c4.427,0,8.017-3.588,8.017-8.017
	s-3.589-8.017-8.017-8.017H31.615L86.339,116.3c3.131-3.132,3.131-8.207,0-11.338L31.615,50.238h348.88v120.785H183.284
	c-4.427,0-8.017,3.588-8.017,8.017s3.589,8.017,8.017,8.017h205.228c4.428,0,8.017-3.588,8.017-8.017V42.221
	c0-4.428-3.588-8.017-8.017-8.017H97.238v-9.086c0-5.01,4.076-9.086,9.086-9.086H414.7v51.841c0,13.851,11.268,25.119,25.119,25.119
	h51.841v325.478C491.66,422.9,495.248,426.489,499.677,426.489z M439.819,76.96c-5.01,0-9.086-4.076-9.086-9.086V27.37l49.589,49.59
	H439.819z"/>
<path d="M191.835,92.994c4.427,0,8.017-3.588,8.017-8.017c0-4.428-3.589-8.017-8.017-8.017h-25.653
	c-4.427,0-8.017,3.588-8.017,8.017v51.307c0,4.428,3.589,8.017,8.017,8.017h25.653c4.427,0,8.017-3.588,8.017-8.017
	c0-4.428-3.589-8.017-8.017-8.017h-17.637V92.994H191.835z"/>
<path d="M225.094,138.819l9.497-28.491l9.497,28.491c1.439,4.315,6.334,6.581,10.563,4.915c3.906-1.539,5.973-6.009,4.648-9.986
	l-17.102-51.307c-1.091-3.274-4.155-5.481-7.605-5.481c-3.45,0-6.514,2.207-7.605,5.481l-17.102,51.307
	c-1.4,4.201,0.87,8.741,5.071,10.141C219.154,145.287,223.693,143.02,225.094,138.819z"/>
<path d="M311.551,144.301c4.428,0,8.017-3.588,8.017-8.017v-34.205c0-13.851-11.268-25.119-25.119-25.119h-17.102
	c-4.428,0-8.017,3.588-8.017,8.017v51.307c0,4.428,3.588,8.017,8.017,8.017H311.551z M285.363,92.994h9.086
	c5.01,0,9.086,4.076,9.086,9.086v0.534h-17.637c-0.18,0-0.358,0.006-0.534,0.018V92.994z M285.363,118.629
	c0.176,0.012,0.355,0.018,0.534,0.018h17.637v9.62h-18.171V118.629z"/>
<path d="M243.677,461.228c0,4.428,3.589,8.017,8.017,8.017h162.472c9.136,0,16.568-7.432,16.568-16.568V332.96
	c0-9.136-7.432-16.568-16.568-16.568h-9.086v-43.29c0-4.428-3.588-8.017-8.017-8.017h-26.188v-43.29
	c0-4.428-3.588-8.017-8.017-8.017H226.04c-4.427,0-8.017,3.588-8.017,8.017v43.29h-26.188c-4.427,0-8.017,3.588-8.017,8.017v43.29
	h-9.086c-9.136,0-16.568,7.432-16.568,16.568v119.716c0,9.136,7.432,16.568,16.568,16.568h51.307c4.427,0,8.017-3.588,8.017-8.017
	s-3.589-8.017-8.017-8.017h-51.307c-0.295,0-0.534-0.241-0.534-0.534V332.96c0-0.294,0.239-0.534,0.534-0.534h239.432
	c0.294,0,0.534,0.241,0.534,0.534v119.716c0,0.294-0.241,0.534-0.534,0.534H251.693
	C247.266,453.211,243.677,456.799,243.677,461.228z M234.057,229.812h120.785v35.273H234.057L234.057,229.812L234.057,229.812z
	 M199.852,316.392v-35.273h189.194v35.273H199.852z"/>
<path d="M320.103,435.04c4.428,0,8.017-3.588,8.017-8.017v-68.409c0-4.428-3.588-8.017-8.017-8.017h-51.307
	c-4.428,0-8.017,3.588-8.017,8.017v68.409c0,4.428,3.588,8.017,8.017,8.017H320.103z M312.086,419.006h-35.273v-9.62h35.273V419.006
	z M276.812,366.63h35.273v26.722h-35.273V366.63z"/>
<g>
</g>
<g>
</g>
<g>
</g>
<g>
</g>
<g>
</g>
<g>
</g>
<g>
</g>
<g>
</g>
<g>
</g>
<g>
</g>
<g>
</g>
<g>
</g>
<g>
</g>
<g>
</g>
<g>
</g>
</svg>
