<?xml version="1.0" encoding="iso-8859-1"?>
<!-- Generator: Adobe Illustrator 19.0.0, SVG Export Plug-In . SVG Version: 6.00 Build 0)  -->
<svg version="1.1" id="Layer_1" xmlns="http://www.w3.org/2000/svg" xmlns:xlink="http://www.w3.org/1999/xlink" x="0px" y="0px"
	 viewBox="0 0 512 512" style="enable-background:new 0 0 512 512;" xml:space="preserve">
<path style="fill:#D9DCDF;" d="M439.819,84.977h59.858l-76.96-76.96v59.858C422.717,77.319,430.373,84.977,439.819,84.977z"/>
<path style="fill:#ECEDEF;" d="M106.324,8.017c-9.446,0-17.102,7.656-17.102,17.102v461.762c0,9.446,7.656,17.102,17.102,17.102
	h376.251c9.446,0,17.102-7.656,17.102-17.102V84.977l-76.96-76.96H106.324z"/>
<path style="fill:#C6CACF;" d="M397.063,196.142H89.222V42.221h307.841c4.722,0,8.551,3.829,8.551,8.551v136.818
	C405.615,192.313,401.786,196.142,397.063,196.142z"/>
<polygon style="fill:#7B848F;" points="388.512,179.04 12.262,179.04 80.671,110.63 12.262,42.221 388.512,42.221 "/>
<rect x="166.181" y="264.551" style="fill:#FFC44F;" width="256.534" height="162.472"/>
<polygon style="fill:#F79F4D;" points="166.182,404.269 166.182,427.023 422.717,427.023 422.717,404.51 292.725,293.226 "/>
<polygon style="fill:#FFC44F;" points="166.182,427.023 422.717,427.023 292.864,315.858 "/>
<path style="fill:#FFD791;" d="M282.78,373.376c6.57,6.133,16.768,6.133,23.338,0l116.598-108.825H166.182L282.78,373.376z"/>
<path d="M499.677,426.489c4.427,0,8.017-3.589,8.017-8.017V84.977c0-2.1-0.863-4.184-2.348-5.668l-76.96-76.96
	C426.902,0.865,424.815,0,422.716,0H106.323C92.473,0,81.204,11.268,81.204,25.119v9.086H12.261c-6.987,0-10.616,8.738-5.668,13.685
	l62.741,62.741l-62.74,62.741c-4.947,4.947-1.32,13.685,5.668,13.685h68.944v299.825c0,13.851,11.268,25.119,25.119,25.119h376.251
	c13.851,0,25.119-11.268,25.119-25.119v-34.205c0-4.427-3.589-8.017-8.017-8.017c-4.427,0-8.017,3.589-8.017,8.017v34.205
	c0,5.01-4.076,9.086-9.086,9.086H106.324c-5.01,0-9.086-4.076-9.086-9.086V187.056h51.841c4.427,0,8.017-3.589,8.017-8.017
	s-3.589-8.017-8.017-8.017H31.615l54.724-54.724c3.131-3.131,3.131-8.207,0-11.337L31.615,50.238h348.88v120.785H183.285
	c-4.427,0-8.017,3.589-8.017,8.017s3.589,8.017,8.017,8.017h205.228c4.427,0,8.017-3.589,8.017-8.017V42.221
	c0-4.427-3.589-8.017-8.017-8.017H97.239v-9.086c0-5.01,4.076-9.086,9.086-9.086H414.7v51.841c0,13.851,11.268,25.119,25.119,25.119
	h51.841v325.478C491.66,422.9,495.25,426.489,499.677,426.489z M430.732,67.875V27.37l49.59,49.59h-40.505
	C434.808,76.96,430.732,72.885,430.732,67.875z"/>
<path d="M191.836,92.994c4.427,0,8.017-3.589,8.017-8.017c0-4.427-3.589-8.017-8.017-8.017h-34.205
	c-4.427,0-8.017,3.589-8.017,8.017v51.307c0,4.427,3.589,8.017,8.017,8.017h34.205c4.427,0,8.017-3.589,8.017-8.017
	c0-4.427-3.589-8.017-8.017-8.017h-26.188v-9.62h9.086c4.427,0,8.017-3.589,8.017-8.017c0-4.427-3.589-8.017-8.017-8.017h-9.086
	v-9.62H191.836z"/>
<path d="M268.796,144.301c4.427,0,8.017-3.589,8.017-8.017V84.977c0-3.603-2.404-6.764-5.877-7.726
	c-3.47-0.961-7.161,0.511-9.014,3.601l-18.779,31.299l-18.779-31.299c-1.853-3.089-5.542-4.563-9.014-3.601
	c-3.473,0.962-5.877,4.123-5.877,7.726v51.307c0,4.427,3.589,8.017,8.017,8.017c4.427,0,8.017-3.589,8.017-8.017v-22.364
	l10.763,17.938c3.058,5.095,10.69,5.096,13.748,0l10.763-17.938v22.364C260.779,140.711,264.369,144.301,268.796,144.301z"/>
<path d="M294.45,76.96c-4.427,0-8.017,3.589-8.017,8.017v51.307c0,4.427,3.589,8.017,8.017,8.017h25.653
	c4.427,0,8.017-3.589,8.017-8.017c0-4.427-3.589-8.017-8.017-8.017h-17.637v-43.29C302.466,80.55,298.877,76.96,294.45,76.96z"/>
<path d="M430.734,264.551c0-4.365-3.655-8.017-8.017-8.017H243.143c-4.427,0-8.017,3.589-8.017,8.017
	c0,4.427,3.589,8.017,8.017,8.017h159.236l-101.73,94.948c-3.476,3.244-8.921,3.244-12.398,0L186.52,272.568h30.968
	c4.427,0,8.017-3.589,8.017-8.017c0-4.427-3.589-8.017-8.017-8.017h-51.307c-4.36,0-8.017,3.653-8.017,8.017v162.472
	c0,4.356,3.657,8.017,8.017,8.017h256.534c4.358,0,8.017-3.663,8.017-8.017V264.551H430.734z M414.7,409.607l-70.753-60.571
	L414.7,283V409.607z M243.958,348.108l-69.759,61.214V282.999L243.958,348.108z M187.473,419.006l68.266-59.904l21.572,20.134
	c4.806,4.486,10.972,6.729,17.14,6.729c6.166,0,12.335-2.244,17.139-6.728l20.563-19.192l68.872,58.961H187.473z"/>
<g>
</g>
<g>
</g>
<g>
</g>
<g>
</g>
<g>
</g>
<g>
</g>
<g>
</g>
<g>
</g>
<g>
</g>
<g>
</g>
<g>
</g>
<g>
</g>
<g>
</g>
<g>
</g>
<g>
</g>
</svg>
