<?xml version="1.0" encoding="iso-8859-1"?>
<!-- Generator: Adobe Illustrator 19.0.0, SVG Export Plug-In . SVG Version: 6.00 Build 0)  -->
<svg version="1.1" id="Layer_1" xmlns="http://www.w3.org/2000/svg" xmlns:xlink="http://www.w3.org/1999/xlink" x="0px" y="0px"
	 viewBox="0 0 512 512" style="enable-background:new 0 0 512 512;" xml:space="preserve">
<path style="fill:#ECEDEF;" d="M106.324,8.017c-9.446,0-17.102,7.656-17.102,17.102v461.762c0,9.446,7.656,17.102,17.102,17.102
	h376.251c9.446,0,17.102-7.656,17.102-17.102V84.977l-76.96-76.96H106.324z"/>
<path style="fill:#D9DCDF;" d="M439.819,84.977h59.858l-76.96-76.96v59.858C422.716,77.319,430.373,84.977,439.819,84.977z"/>
<path style="fill:#C6CACF;" d="M397.063,196.142H89.222V42.221h307.841c4.722,0,8.551,3.829,8.551,8.551v136.818
	C405.614,192.313,401.785,196.142,397.063,196.142z"/>
<polygon style="fill:#FFC44F;" points="388.512,179.04 12.261,179.04 80.67,110.63 12.261,42.221 388.512,42.221 "/>
<path style="fill:#D9DCDF;" d="M401.338,409.921H238.867c-4.722,0-8.551-3.829-8.551-8.551V298.756c0-4.722,3.829-8.551,8.551-8.551
	h162.472c4.722,0,8.551,3.829,8.551,8.551V401.37C409.89,406.092,406.061,409.921,401.338,409.921z"/>
<path style="fill:#C6CACF;" d="M255.969,384.267v-94.063h-17.102c-4.722,0-8.551,3.829-8.551,8.551V401.37
	c0,4.722,3.829,8.551,8.551,8.551h162.472c4.722,0,8.551-3.829,8.551-8.551v-17.102H255.969z"/>
<polygon style="fill:#7B848F;" points="230.315,324.409 179.009,313.007 179.009,387.118 230.315,375.716 "/>
<polygon style="fill:#68727E;" points="230.315,324.409 213.213,320.608 213.213,379.517 230.315,375.716 "/>
<circle style="fill:#FF8C78;" cx="285.897" cy="256" r="25.653"/>
<circle style="fill:#DB6B5E;" cx="285.897" cy="256" r="8.551"/>
<circle style="fill:#FF8C78;" cx="354.306" cy="256" r="25.653"/>
<circle style="fill:#DB6B5E;" cx="354.306" cy="256" r="8.551"/>
<polygon style="fill:#FFC44F;" points="307.276,315.858 307.276,384.267 350.032,350.063 "/>
<path d="M499.677,426.489c4.428,0,8.017-3.589,8.017-8.017V84.977c0-2.1-0.862-4.184-2.347-5.668l-76.96-76.96
	C426.899,0.863,424.818,0,422.716,0H106.324C92.473,0,81.205,11.268,81.205,25.119v9.086H12.261c-6.987,0-10.616,8.738-5.668,13.685
	l62.74,62.741l-62.74,62.741c-4.947,4.947-1.32,13.685,5.668,13.685h68.944v299.825c0,13.851,11.268,25.119,25.119,25.119h376.251
	c13.851,0,25.119-11.268,25.119-25.119v-34.205c0-4.427-3.588-8.017-8.017-8.017c-4.428,0-8.017,3.589-8.017,8.017v34.205
	c0,5.01-4.076,9.086-9.086,9.086H106.324c-5.01,0-9.086-4.076-9.086-9.086V187.056h51.841c4.427,0,8.017-3.589,8.017-8.017
	s-3.589-8.017-8.017-8.017H31.615l54.724-54.724c3.131-3.131,3.131-8.207,0-11.337L31.615,50.238h348.88v120.785H183.284
	c-4.427,0-8.017,3.589-8.017,8.017s3.589,8.017,8.017,8.017h205.228c4.428,0,8.017-3.589,8.017-8.017V42.221
	c0-4.427-3.588-8.017-8.017-8.017H97.238v-9.086c0-5.01,4.076-9.086,9.086-9.086H414.7v51.841c0,13.851,11.268,25.119,25.119,25.119
	h51.841v325.478C491.66,422.9,495.248,426.489,499.677,426.489z M439.819,76.96c-5.01,0-9.086-4.076-9.086-9.086V27.37l49.589,49.59
	H439.819z"/>
<path d="M182.338,138.819l9.497-28.49l9.497,28.49c1.439,4.315,6.333,6.582,10.563,4.915c3.906-1.539,5.974-6.009,4.649-9.986
	l-17.102-51.307c-1.079-3.237-4.194-5.481-7.605-5.481c-3.412,0-6.527,2.246-7.605,5.481l-17.102,51.307
	c-1.4,4.201,0.87,8.74,5.071,10.141C176.397,145.289,180.938,143.019,182.338,138.819z"/>
<path d="M243.142,144.301c3.45,0,6.514-2.208,7.605-5.481l17.102-51.307c1.381-4.144-0.926-8.759-5.07-10.141
	c-4.145-1.382-8.759,0.926-10.141,5.071l-9.497,28.49l-9.497-28.49c-1.4-4.201-5.942-6.472-10.141-5.071
	c-4.201,1.4-6.47,5.94-5.071,10.141l17.102,51.307C236.628,142.092,239.692,144.301,243.142,144.301z"/>
<path d="M293.915,136.284V84.977c0-4.427-3.588-8.017-8.017-8.017s-8.017,3.589-8.017,8.017v51.307c0,4.427,3.588,8.017,8.017,8.017
	S293.915,140.711,293.915,136.284z"/>
<path d="M409.89,332.426c4.428,0,8.017-3.589,8.017-8.017v-25.653c0-9.136-7.432-16.568-16.568-16.568h-25.901
	c7.642-6.177,12.54-15.62,12.54-26.188c0-18.566-15.105-33.67-33.67-33.67c-18.566,0-33.67,15.105-33.67,33.67
	c0,10.568,4.899,20.011,12.54,26.188h-26.148c7.642-6.177,12.54-15.62,12.54-26.188c0-18.566-15.105-33.67-33.67-33.67
	s-33.67,15.105-33.67,33.67c0,10.568,4.899,20.011,12.54,26.188h-25.901c-9.136,0-16.568,7.432-16.568,16.568v15.66l-41.551-9.233
	c-4.93-1.098-9.756,2.78-9.756,7.825v74.11c0,5.045,4.826,8.924,9.756,7.825l41.551-9.233v15.659
	c0,9.136,7.432,16.568,16.568,16.568h70.113l-13.585,40.755c-1.4,4.201,0.869,8.74,5.07,10.141c4.202,1.399,8.74-0.87,10.141-5.071
	l9.497-28.49l9.497,28.49c1.439,4.315,6.333,6.582,10.563,4.915c3.906-1.539,5.973-6.009,4.648-9.986l-13.586-40.754h70.113
	c9.136,0,16.568-7.432,16.568-16.568v-42.756c0-4.427-3.588-8.017-8.017-8.017s-8.017,3.589-8.017,8.017v42.756
	c0,0.295-0.241,0.534-0.534,0.534H238.867c-0.295,0-0.534-0.239-0.534-0.534V298.756c0-0.295,0.239-0.534,0.534-0.534h162.472
	c0.294,0,0.534,0.239,0.534,0.534v25.653C401.873,328.837,405.461,332.426,409.89,332.426z M354.307,238.363
	c9.725,0,17.637,7.912,17.637,17.637s-7.912,17.637-17.637,17.637S336.67,265.725,336.67,256S344.582,238.363,354.307,238.363z
	 M285.898,238.363c9.725,0,17.637,7.912,17.637,17.637s-7.912,17.637-17.637,17.637s-17.637-7.912-17.637-17.637
	S276.173,238.363,285.898,238.363z M187.025,377.124v-54.122l35.273,7.838v38.446L187.025,377.124z"/>
<path d="M312.284,309.599c-5.153-4.123-13.026-0.317-13.026,6.259v68.409c0,6.569,7.864,10.387,13.026,6.259l42.756-34.205
	c3.949-3.16,3.949-9.36,0-12.52L312.284,309.599z M315.293,367.588v-35.05l21.906,17.526L315.293,367.588z"/>
<g>
</g>
<g>
</g>
<g>
</g>
<g>
</g>
<g>
</g>
<g>
</g>
<g>
</g>
<g>
</g>
<g>
</g>
<g>
</g>
<g>
</g>
<g>
</g>
<g>
</g>
<g>
</g>
<g>
</g>
</svg>
