<?xml version="1.0" encoding="iso-8859-1"?>
<!-- Generator: Adobe Illustrator 19.0.0, SVG Export Plug-In . SVG Version: 6.00 Build 0)  -->
<svg version="1.1" id="Layer_1" xmlns="http://www.w3.org/2000/svg" xmlns:xlink="http://www.w3.org/1999/xlink" x="0px" y="0px"
	 viewBox="0 0 512 512" style="enable-background:new 0 0 512 512;" xml:space="preserve">
<path style="fill:#ECEDEF;" d="M106.324,8.017c-9.446,0-17.102,7.656-17.102,17.102v461.762c0,9.446,7.656,17.102,17.102,17.102
	h376.251c9.446,0,17.102-7.656,17.102-17.102V84.977l-76.96-76.96H106.324z"/>
<path style="fill:#D9DCDF;" d="M439.818,84.977h59.858l-76.96-76.96v59.858C422.715,77.319,430.373,84.977,439.818,84.977z"/>
<path style="fill:#C6CACF;" d="M397.063,196.142H89.222V42.221h307.841c4.722,0,8.551,3.829,8.551,8.551v136.818
	C405.614,192.313,401.785,196.142,397.063,196.142z"/>
<polygon style="fill:#3C9FE8;" points="388.512,179.04 12.261,179.04 80.67,110.63 12.261,42.221 388.512,42.221 "/>
<path style="fill:#C4DF64;" d="M392.41,328.203c36.279-36.279,6.047-90.699,6.047-90.699s-54.419-30.233-90.699,6.047
	c-6.047,6.047-12.923,20.036-12.923,20.036l0.829,40.429l-18.458-18.458l-60.148,84.971c-13.358,13.358,6.047,42.326,6.047,42.326
	s28.968,19.405,42.326,6.047l84.971-60.148l-18.458-18.458l40.429,0.829C372.373,341.126,386.363,334.249,392.41,328.203z"/>
<g>
	<path style="fill:#8AC451;" d="M401.566,244.051c-1.773-4.134-3.111-6.546-3.111-6.546s-54.419-30.233-90.699,6.047
		c-6.047,6.047-12.923,20.036-12.923,20.036l0.811,39.521C324.022,274.137,360.57,253.208,401.566,244.051z"/>
	<path style="fill:#8AC451;" d="M295.207,303.559l-18-18l-60.148,84.971c-13.358,13.358,6.047,42.326,6.047,42.326
		s6.086,4.07,13.96,7.199C243.954,375.067,264.874,334.709,295.207,303.559z"/>
</g>
<path d="M499.677,426.489c4.428,0,8.017-3.589,8.017-8.017V84.977c0-2.1-0.862-4.184-2.347-5.668l-76.96-76.96
	C426.899,0.863,424.817,0,422.716,0H106.324C92.473,0,81.205,11.268,81.205,25.119v9.086H12.261c-6.987,0-10.615,8.738-5.669,13.685
	l62.741,62.741L6.592,173.371c-4.946,4.947-1.319,13.685,5.669,13.685h68.944v299.825c0,13.851,11.268,25.119,25.119,25.119h376.251
	c13.851,0,25.119-11.268,25.119-25.119v-34.205c0-4.427-3.588-8.017-8.017-8.017s-8.017,3.589-8.017,8.017v34.205
	c0,5.01-4.076,9.086-9.086,9.086H106.324c-5.01,0-9.086-4.076-9.086-9.086V187.056h51.841c4.428,0,8.017-3.589,8.017-8.017
	s-3.588-8.017-8.017-8.017H31.615l54.724-54.724c3.131-3.131,3.131-8.207,0-11.337L31.615,50.238h348.88v120.785H183.284
	c-4.428,0-8.017,3.589-8.017,8.017s3.588,8.017,8.017,8.017h205.228c4.428,0,8.017-3.589,8.017-8.017V42.221
	c0-4.427-3.588-8.017-8.017-8.017H97.238v-9.086c0-5.01,4.076-9.086,9.086-9.086H414.7v51.841c0,13.851,11.268,25.119,25.119,25.119
	h51.841v325.478C491.66,422.9,495.248,426.489,499.677,426.489z M439.819,76.96c-5.01,0-9.086-4.076-9.086-9.086V27.37l49.589,49.59
	H439.819z"/>
<path d="M311.551,144.301c4.428,0,8.017-3.589,8.017-8.017v-34.205c0-13.851-11.268-25.119-25.119-25.119h-17.102
	c-4.428,0-8.017,3.589-8.017,8.017v51.307c0,4.427,3.588,8.017,8.017,8.017H311.551z M285.364,92.994h9.086
	c5.01,0,9.086,4.076,9.086,9.086v26.188h-18.171V92.994z"/>
<path d="M226.04,128.267c-4.428,0-8.017,3.589-8.017,8.017c0,4.427,3.588,8.017,8.017,8.017h25.653c4.428,0,8.017-3.589,8.017-8.017
	V110.63c0-4.427-3.588-8.017-8.017-8.017h-17.637v-9.62h17.637c4.428,0,8.017-3.589,8.017-8.017c0-4.427-3.588-8.017-8.017-8.017
	H226.04c-4.428,0-8.017,3.589-8.017,8.017v25.653c0,4.427,3.588,8.017,8.017,8.017h17.637v9.62H226.04z"/>
<path d="M174.199,136.284v-17.655c0.176,0.012,0.355,0.018,0.534,0.018h25.653c4.428,0,8.017-3.589,8.017-8.017V84.977
	c0-4.427-3.588-8.017-8.017-8.017h-34.205c-4.428,0-8.017,3.589-8.017,8.017v51.307c0,4.427,3.588,8.017,8.017,8.017
	S174.199,140.711,174.199,136.284z M174.199,92.994h18.171v9.62h-17.637c-0.18,0-0.358,0.005-0.534,0.018V92.994z"/>
<path d="M375.91,348.32c1.553-0.764,15.379-7.659,22.169-14.449c16.742-16.742,23.267-39.545,18.867-65.941
	c-3.214-19.284-11.146-33.715-11.481-34.319c-0.728-1.309-1.806-2.388-3.115-3.115c-0.605-0.336-15.036-8.267-34.32-11.481
	c-26.396-4.397-49.198,2.125-65.94,18.867c-6.791,6.791-13.686,20.616-14.449,22.169c-0.565,1.15-0.848,2.42-0.821,3.701
	l0.421,20.502l-4.364-4.364c-3.461-3.46-9.387-2.956-12.212,1.037l-59.793,84.468c-12.989,13.794-3.641,35.696,2.142,46.216
	l-5.851,5.851l-7.119-14.238c-1.98-3.96-6.792-5.565-10.756-3.585c-3.959,1.98-5.565,6.795-3.585,10.755l9.509,19.018
	l-26.147,26.147c-2.918,2.918-3.113,7.74-0.425,10.877c2.998,3.502,8.503,3.72,11.764,0.46l26.147-26.147l19.019,9.509
	c4.176,2.088,9.362,0.065,11.057-4.268c1.488-3.805-0.237-8.248-3.888-10.073l-14.238-7.119l5.85-5.85
	c6.625,3.643,17.762,8.7,28.549,8.699c6.341,0,12.561-1.749,17.666-6.558l84.468-59.792c3.991-2.825,4.498-8.751,1.038-12.212
	l-4.366-4.365l20.504,0.421C373.493,349.166,374.758,348.886,375.91,348.32z M332.108,332.281c-3.296-0.087-6.256,1.861-7.54,4.872
	c-1.283,3.01-0.607,6.499,1.706,8.812l11.738,11.738L314.11,374.62c-0.103-0.004-0.203-0.016-0.307-0.016h-24.186
	c-4.428,0-8.017,3.589-8.017,8.017c0,4.427,3.588,8.017,8.017,8.017h1.864l-30.683,21.72c-0.37,0.262-0.717,0.555-1.038,0.874
	c-4.642,4.643-15.079,1.708-23.484-2.214l119.475-119.474c3.131-3.131,3.131-8.207,0-11.337c-3.132-3.131-8.207-3.131-11.338,0
	L224.941,399.682c-3.923-8.407-6.856-18.841-2.214-23.485c0.321-0.321,0.612-0.667,0.873-1.037l7.299-10.313l2.738,8.216
	c1.12,3.36,4.249,5.483,7.604,5.483c0.84,0,1.695-0.134,2.536-0.414c4.201-1.4,6.47-5.941,5.07-10.141l-6.047-18.139
	c-0.133-0.398-0.301-0.771-0.486-1.132l35.942-50.773l11.735,11.737c2.313,2.314,5.801,2.989,8.813,1.706
	c3.01-1.284,4.938-4.267,4.871-7.539l-0.788-38.429c2.67-5.146,7.223-12.891,10.536-16.204
	c13.016-13.016,30.351-17.883,51.531-14.46c12.741,2.059,23.252,6.641,27.536,8.707c2.07,4.293,6.651,14.8,8.707,27.536
	c3.422,21.178-1.444,38.515-14.461,51.532c-3.314,3.314-11.059,7.865-16.202,10.535L332.108,332.281z"/>
<g>
</g>
<g>
</g>
<g>
</g>
<g>
</g>
<g>
</g>
<g>
</g>
<g>
</g>
<g>
</g>
<g>
</g>
<g>
</g>
<g>
</g>
<g>
</g>
<g>
</g>
<g>
</g>
<g>
</g>
</svg>
