<?xml version="1.0" encoding="iso-8859-1"?>
<!-- Generator: Adobe Illustrator 19.0.0, SVG Export Plug-In . SVG Version: 6.00 Build 0)  -->
<svg version="1.1" id="Layer_1" xmlns="http://www.w3.org/2000/svg" xmlns:xlink="http://www.w3.org/1999/xlink" x="0px" y="0px"
	 viewBox="0 0 512 512" style="enable-background:new 0 0 512 512;" xml:space="preserve">
<rect x="50.772" y="59.324" style="fill:#D9DCDF;" width="410.455" height="171.023"/>
<rect x="50.772" y="119.182" style="fill:#C6CACF;" width="410.455" height="34.205"/>
<path style="fill:#A1A7AF;" d="M136.284,144.835v-42.756c0-4.722-3.829-8.551-8.551-8.551H16.568c-4.722,0-8.551,3.829-8.551,8.551
	v342.046c0,4.722,3.829,8.551,8.551,8.551h478.864c4.722,0,8.551-3.829,8.551-8.551V153.386c0-4.722-3.829-8.551-8.551-8.551
	H136.284z"/>
<path style="fill:#8E959F;" d="M33.67,427.023V93.528H16.568c-4.722,0-8.551,3.829-8.551,8.551v342.046
	c0,4.722,3.829,8.551,8.551,8.551h478.864c4.722,0,8.551-3.829,8.551-8.551v-17.102H33.67z"/>
<g>
	<path style="fill:#C4DF64;" d="M350.063,315.858v85.512c23.613,0,42.756-19.143,42.756-42.756
		C392.818,335.001,373.676,315.858,350.063,315.858z"/>
	<path style="fill:#C4DF64;" d="M161.937,401.37v-85.512c-23.613,0-42.756,19.143-42.756,42.756
		C119.182,382.227,138.324,401.37,161.937,401.37z"/>
</g>
<g>
	<circle style="fill:#D8ED8C;" cx="144.835" cy="358.614" r="17.102"/>
	<circle style="fill:#D8ED8C;" cx="367.165" cy="358.614" r="17.102"/>
</g>
<g>
	<rect x="144.835" y="307.307" style="fill:#FF8C78;" width="34.205" height="102.614"/>
	<rect x="332.96" y="307.307" style="fill:#FF8C78;" width="34.205" height="102.614"/>
</g>
<g>
	<rect x="144.835" y="307.307" style="fill:#DB6B5E;" width="17.102" height="102.614"/>
	<rect x="350.063" y="307.307" style="fill:#DB6B5E;" width="17.102" height="102.614"/>
</g>
<path d="M256,179.574c-61.002,0-110.63,49.629-110.63,110.63v9.086h-0.534c-4.428,0-8.017,3.588-8.017,8.017v7.19
	c-15.83,9.03-25.653,25.884-25.653,44.116c0,18.16,9.8,35.053,25.574,44.086c0.026,0.015,0.053,0.025,0.079,0.039v7.182
	c0,4.428,3.588,8.017,8.017,8.017h34.205c4.428,0,8.017-3.588,8.017-8.017V307.307c0-4.428-3.588-8.017-8.017-8.017h-17.637v-9.086
	c0-52.161,42.436-94.597,94.597-94.597s94.597,42.436,94.597,94.597v9.086H332.96c-4.428,0-8.017,3.588-8.017,8.017v102.614
	c0,4.428,3.588,8.017,8.017,8.017h34.205c4.428,0,8.017-3.588,8.017-8.017v-7.198c15.836-9.033,25.653-25.854,25.653-44.109
	c0-18.231-9.823-35.087-25.653-44.118v-7.189c0-4.428-3.588-8.017-8.017-8.017h-0.534v-9.086
	C366.63,229.203,317.002,179.574,256,179.574z M127.198,358.614c0-9.047,3.547-17.59,9.62-23.966v47.926
	C130.748,376.191,127.198,367.636,127.198,358.614z M171.023,401.904h-18.171v-86.58h18.171V401.904z M359.148,401.904h-18.171
	v-86.58h18.171V401.904z M384.802,358.614c0,8.873-3.501,17.55-9.62,23.97c0-5.4,0-10.8,0-16.2c0-8.606,0-17.21,0-25.816
	c0-1.973,0-3.946,0-5.918C381.295,341.068,384.802,349.744,384.802,358.614z"/>
<path d="M495.432,136.818h-26.188V59.324c0-4.428-3.588-8.017-8.017-8.017h-68.409c-4.428,0-8.017,3.588-8.017,8.017
	s3.588,8.017,8.017,8.017h60.392v69.478h-308.91v-34.739c0-9.136-7.432-16.568-16.568-16.568H58.789V67.34h299.825
	c4.428,0,8.017-3.588,8.017-8.017s-3.588-8.017-8.017-8.017H50.772c-4.428,0-8.017,3.588-8.017,8.017v26.188H16.568
	C7.432,85.511,0,92.944,0,102.079v94.063c0,4.428,3.588,8.017,8.017,8.017s8.017-3.588,8.017-8.017v-94.063
	c0-0.294,0.241-0.534,0.534-0.534h111.165c0.294,0,0.534,0.241,0.534,0.534v42.756c0,4.428,3.588,8.017,8.017,8.017h359.148
	c0.294,0,0.534,0.241,0.534,0.534v290.739c0,0.294-0.241,0.534-0.534,0.534H16.568c-0.294,0-0.534-0.241-0.534-0.534V230.347
	c0-4.428-3.588-8.017-8.017-8.017S0,225.918,0,230.347v213.779c0,9.136,7.432,16.568,16.568,16.568h478.864
	c9.136,0,16.568-7.432,16.568-16.568V153.386C512,144.25,504.568,136.818,495.432,136.818z"/>
<g>
</g>
<g>
</g>
<g>
</g>
<g>
</g>
<g>
</g>
<g>
</g>
<g>
</g>
<g>
</g>
<g>
</g>
<g>
</g>
<g>
</g>
<g>
</g>
<g>
</g>
<g>
</g>
<g>
</g>
</svg>
