<?xml version="1.0" encoding="iso-8859-1"?>
<!-- Generator: Adobe Illustrator 19.0.0, SVG Export Plug-In . SVG Version: 6.00 Build 0)  -->
<svg version="1.1" id="Layer_1" xmlns="http://www.w3.org/2000/svg" xmlns:xlink="http://www.w3.org/1999/xlink" x="0px" y="0px"
	 viewBox="0 0 512 512" style="enable-background:new 0 0 512 512;" xml:space="preserve">
<path style="fill:#ECEDEF;" d="M106.324,8.017c-9.446,0-17.102,7.656-17.102,17.102v461.762c0,9.446,7.656,17.102,17.102,17.102
	h376.251c9.446,0,17.102-7.656,17.102-17.102V84.977l-76.96-76.96H106.324z"/>
<path style="fill:#D9DCDF;" d="M439.819,84.977h59.858l-76.96-76.96v59.858C422.717,77.319,430.373,84.977,439.819,84.977z"/>
<path style="fill:#C6CACF;" d="M397.063,196.142H89.222V42.221h307.841c4.722,0,8.551,3.829,8.551,8.551v136.818
	C405.615,192.313,401.786,196.142,397.063,196.142z"/>
<polygon style="fill:#DB6B5E;" points="388.512,179.04 12.262,179.04 80.671,110.63 12.262,42.221 388.512,42.221 "/>
<rect x="166.181" y="256" style="fill:#D9DCDF;" width="256.534" height="153.921"/>
<rect x="166.181" y="256" style="fill:#B3B9BF;" width="256.534" height="17.102"/>
<path style="fill:#FFC44F;" d="M268.796,281.653v51.307h51.307C320.103,304.624,297.133,281.653,268.796,281.653z"/>
<path style="fill:#3C9FE8;" d="M268.796,281.653c-28.336,0-51.307,22.971-51.307,51.307c0,28.336,22.971,51.307,51.307,51.307
	s51.307-22.971,51.307-51.307h-51.307V281.653L268.796,281.653z"/>
<rect x="149.079" y="221.795" style="fill:#68727E;" width="290.739" height="34.205"/>
<rect x="149.079" y="238.898" style="fill:#55606E;" width="290.739" height="17.102"/>
<path d="M499.677,426.489c4.427,0,8.017-3.589,8.017-8.017V84.977c0-2.1-0.863-4.184-2.348-5.668l-76.96-76.96
	C426.902,0.865,424.815,0,422.716,0H106.323C92.473,0,81.204,11.268,81.204,25.119v9.086H12.261c-6.987,0-10.616,8.738-5.668,13.685
	l62.741,62.741l-62.74,62.741c-4.947,4.947-1.32,13.685,5.668,13.685h68.944v299.825c0,13.851,11.268,25.119,25.119,25.119h376.251
	c13.851,0,25.119-11.268,25.119-25.119v-34.205c0-4.427-3.589-8.017-8.017-8.017c-4.427,0-8.017,3.589-8.017,8.017v34.205
	c0,5.01-4.076,9.086-9.086,9.086H106.324c-5.01,0-9.086-4.076-9.086-9.086V187.056h51.841c4.427,0,8.017-3.589,8.017-8.017
	s-3.589-8.017-8.017-8.017H31.615l54.724-54.724c3.131-3.131,3.131-8.207,0-11.337L31.615,50.238h348.88v120.785H183.285
	c-4.427,0-8.017,3.589-8.017,8.017s3.589,8.017,8.017,8.017h205.228c4.427,0,8.017-3.589,8.017-8.017V42.221
	c0-4.427-3.589-8.017-8.017-8.017H97.239v-9.086c0-5.01,4.076-9.086,9.086-9.086H414.7v51.841c0,13.851,11.268,25.119,25.119,25.119
	h51.841v325.478C491.66,422.9,495.25,426.489,499.677,426.489z M430.732,67.875V27.37l49.59,49.59h-40.505
	C434.808,76.96,430.732,72.885,430.732,67.875z"/>
<path d="M174.199,136.284v-17.655c0.177,0.012,0.355,0.018,0.534,0.018h25.653c4.427,0,8.017-3.589,8.017-8.017V84.977
	c0-4.427-3.589-8.017-8.017-8.017h-34.205c-4.427,0-8.017,3.589-8.017,8.017v51.307c0,4.427,3.589,8.017,8.017,8.017
	S174.199,140.711,174.199,136.284z M174.199,92.994h18.171v9.62h-17.637c-0.18,0-0.357,0.005-0.534,0.018V92.994z"/>
<path d="M234.057,136.284v-17.655c0.177,0.012,0.355,0.018,0.534,0.018h25.653c4.427,0,8.017-3.589,8.017-8.017V84.977
	c0-4.427-3.589-8.017-8.017-8.017H226.04c-4.427,0-8.017,3.589-8.017,8.017v51.307c0,4.427,3.589,8.017,8.017,8.017
	C230.468,144.301,234.057,140.711,234.057,136.284z M234.057,92.994h18.171v9.62h-17.637c-0.18,0-0.357,0.005-0.534,0.018V92.994z"
	/>
<path d="M303.001,144.301c4.427,0,8.017-3.589,8.017-8.017v-43.29h9.086c4.427,0,8.017-3.589,8.017-8.017
	c0-4.427-3.589-8.017-8.017-8.017h-34.205c-4.427,0-8.017,3.589-8.017,8.017c0,4.427,3.589,8.017,8.017,8.017h9.086v43.29
	C294.984,140.711,298.573,144.301,303.001,144.301z"/>
<path d="M422.717,417.937c4.427,0,8.017-3.589,8.017-8.017V264.017h9.086c4.427,0,8.017-3.589,8.017-8.017v-34.205
	c0-4.427-3.589-8.017-8.017-8.017H234.592c-4.427,0-8.017,3.589-8.017,8.017s3.589,8.017,8.017,8.017h197.211v18.171H157.097
	v-18.171h43.29c4.427,0,8.017-3.589,8.017-8.017s-3.589-8.017-8.017-8.017H149.08c-4.427,0-8.017,3.589-8.017,8.017V256
	c0,4.427,3.589,8.017,8.017,8.017h9.086v145.904c0,4.427,3.589,8.017,8.017,8.017h120.251v28.961l-20.172,6.724
	c-3.984,1.329-6.3,5.659-5.199,9.71c1.191,4.382,5.959,6.938,10.27,5.502l23.118-7.706l23.118,7.706
	c4.317,1.439,9.07-1.122,10.27-5.502c1.109-4.049-1.222-8.383-5.199-9.71l-20.172-6.724v-28.961H422.717z M174.199,264.017H414.7
	v137.887H174.199L174.199,264.017L174.199,264.017z"/>
<path d="M328.12,332.96c0-32.711-26.612-59.324-59.324-59.324s-59.324,26.612-59.324,59.324s26.612,59.324,59.324,59.324
	S328.12,365.672,328.12,332.96z M311.342,324.944h-34.53v-34.53C294.266,293.697,308.06,307.49,311.342,324.944z M268.796,376.251
	c-23.871,0-43.29-19.42-43.29-43.29c0-21.132,15.221-38.775,35.273-42.546v42.546c0,4.427,3.589,8.017,8.017,8.017h42.546
	C307.571,361.03,289.927,376.251,268.796,376.251z"/>
<path d="M345.757,306.772h25.653c4.427,0,8.017-3.589,8.017-8.017c0-4.427-3.589-8.017-8.017-8.017h-25.653
	c-4.427,0-8.017,3.589-8.017,8.017C337.74,303.183,341.329,306.772,345.757,306.772z"/>
<path d="M345.757,340.977h25.653c4.427,0,8.017-3.589,8.017-8.017c0-4.427-3.589-8.017-8.017-8.017h-25.653
	c-4.427,0-8.017,3.589-8.017,8.017C337.74,337.388,341.329,340.977,345.757,340.977z"/>
<path d="M345.757,375.182h25.653c4.427,0,8.017-3.589,8.017-8.017c0-4.427-3.589-8.017-8.017-8.017h-25.653
	c-4.427,0-8.017,3.589-8.017,8.017C337.74,371.592,341.329,375.182,345.757,375.182z"/>
<g>
</g>
<g>
</g>
<g>
</g>
<g>
</g>
<g>
</g>
<g>
</g>
<g>
</g>
<g>
</g>
<g>
</g>
<g>
</g>
<g>
</g>
<g>
</g>
<g>
</g>
<g>
</g>
<g>
</g>
</svg>
