<?xml version="1.0" encoding="iso-8859-1"?>
<!-- Generator: Adobe Illustrator 19.0.0, SVG Export Plug-In . SVG Version: 6.00 Build 0)  -->
<svg version="1.1" id="Layer_1" xmlns="http://www.w3.org/2000/svg" xmlns:xlink="http://www.w3.org/1999/xlink" x="0px" y="0px"
	 viewBox="0 0 512 512" style="enable-background:new 0 0 512 512;" xml:space="preserve">
<rect x="50.772" y="59.324" style="fill:#D9DCDF;" width="410.455" height="171.023"/>
<rect x="50.772" y="119.182" style="fill:#C6CACF;" width="410.455" height="34.205"/>
<path style="fill:#A1A7AF;" d="M136.284,144.835v-42.756c0-4.722-3.829-8.551-8.551-8.551H16.568c-4.722,0-8.551,3.829-8.551,8.551
	v342.046c0,4.722,3.829,8.551,8.551,8.551h478.864c4.722,0,8.551-3.829,8.551-8.551V153.386c0-4.722-3.829-8.551-8.551-8.551
	H136.284z"/>
<path style="fill:#8E959F;" d="M33.67,427.023V93.528H16.568c-4.722,0-8.551,3.829-8.551,8.551v342.046
	c0,4.722,3.829,8.551,8.551,8.551h478.864c4.722,0,8.551-3.829,8.551-8.551v-17.102H33.67z"/>
<polygon style="fill:#FFC44F;" points="307.307,341.511 307.307,247.449 204.693,247.449 204.693,341.511 179.04,341.511 
	256,401.37 332.96,341.511 "/>
<polygon style="fill:#F79F4D;" points="230.347,350.063 230.347,247.449 204.693,247.449 204.693,341.511 179.04,341.511 
	256,401.37 274.576,386.921 "/>
<path d="M495.432,136.818h-26.188V59.324c0-4.428-3.589-8.017-8.017-8.017h-68.409c-4.427,0-8.017,3.588-8.017,8.017
	s3.589,8.017,8.017,8.017h60.392v69.478h-308.91v-34.739c0-9.136-7.432-16.568-16.568-16.568H58.789V67.34h299.825
	c4.427,0,8.017-3.588,8.017-8.017s-3.589-8.017-8.017-8.017H50.772c-4.427,0-8.017,3.588-8.017,8.017v26.188H16.568
	C7.432,85.511,0,92.944,0,102.079v94.063c0,4.428,3.589,8.017,8.017,8.017s8.017-3.588,8.017-8.017v-94.063
	c0-0.294,0.239-0.534,0.534-0.534h111.165c0.295,0,0.534,0.241,0.534,0.534v42.756c0,4.428,3.589,8.017,8.017,8.017h359.148
	c0.295,0,0.534,0.241,0.534,0.534v290.739c0,0.294-0.239,0.534-0.534,0.534H16.568c-0.295,0-0.534-0.241-0.534-0.534V230.347
	c0-4.428-3.589-8.017-8.017-8.017S0,225.918,0,230.347v213.779c0,9.136,7.432,16.568,16.568,16.568h478.864
	c9.136,0,16.568-7.432,16.568-16.568V153.386C512,144.25,504.568,136.818,495.432,136.818z"/>
<path d="M196.676,333.495H179.04c-3.278,0-6.301,2.074-7.48,5.133c-1.257,3.26-0.201,7.066,2.558,9.212l76.96,59.858
	c2.86,2.227,6.982,2.227,9.843,0l76.96-59.858c2.703-2.103,3.772-5.69,2.662-8.93c-1.112-3.24-4.158-5.415-7.583-5.415h-17.637
	v-86.046c0-4.428-3.589-8.017-8.017-8.017H204.693c-4.427,0-8.017,3.588-8.017,8.017V333.495z M204.693,349.528
	c4.427,0,8.017-3.588,8.017-8.017v-86.046h86.58v86.046c0,4.428,3.589,8.017,8.017,8.017h2.289L256,391.213l-53.595-41.685H204.693z
	"/>
<path d="M204.693,229.812h102.614c4.427,0,8.017-3.588,8.017-8.017s-3.589-8.017-8.017-8.017H204.693
	c-4.427,0-8.017,3.588-8.017,8.017S200.266,229.812,204.693,229.812z"/>
<path d="M204.693,204.159h102.614c4.427,0,8.017-3.588,8.017-8.017s-3.589-8.017-8.017-8.017H204.693
	c-4.427,0-8.017,3.588-8.017,8.017S200.266,204.159,204.693,204.159z"/>
<g>
</g>
<g>
</g>
<g>
</g>
<g>
</g>
<g>
</g>
<g>
</g>
<g>
</g>
<g>
</g>
<g>
</g>
<g>
</g>
<g>
</g>
<g>
</g>
<g>
</g>
<g>
</g>
<g>
</g>
</svg>
