<?xml version="1.0" encoding="iso-8859-1"?>
<!-- Generator: Adobe Illustrator 19.0.0, SVG Export Plug-In . SVG Version: 6.00 Build 0)  -->
<svg version="1.1" id="Layer_1" xmlns="http://www.w3.org/2000/svg" xmlns:xlink="http://www.w3.org/1999/xlink" x="0px" y="0px"
	 viewBox="0 0 512 512" style="enable-background:new 0 0 512 512;" xml:space="preserve">
<path style="fill:#ECF2FA;" d="M106.324,8.017c-9.446,0-17.102,7.656-17.102,17.102v461.762c0,9.446,7.656,17.102,17.102,17.102
	h376.251c9.446,0,17.102-7.656,17.102-17.102V84.977l-76.96-76.96H106.324z"/>
<path style="fill:#D9DCDF;" d="M439.819,84.977h59.858l-76.96-76.96v59.858C422.716,77.319,430.373,84.977,439.819,84.977z"/>
<path style="fill:#C6CACF;" d="M397.063,196.142H89.222V42.221h307.841c4.722,0,8.551,3.829,8.551,8.551v136.818
	C405.614,192.313,401.785,196.142,397.063,196.142z"/>
<polygon style="fill:#FF8C78;" points="388.512,179.04 12.261,179.04 80.67,110.63 12.261,42.221 388.512,42.221 "/>
<path style="fill:#427FC9;" d="M394.558,430.995l-30.525-30.525c15.776-18.043,25.338-41.658,25.338-67.509
	c0-56.672-45.942-102.614-102.614-102.614S184.144,276.289,184.144,332.96s45.942,102.614,102.614,102.614
	c18.421,0,35.706-4.858,50.651-13.357l32.964,32.964c3.339,3.339,8.754,3.339,12.093,0l12.093-12.093
	C397.898,439.748,397.898,434.334,394.558,430.995z M226.899,332.96c0-33.059,26.799-59.858,59.858-59.858
	s59.858,26.799,59.858,59.858s-26.799,59.858-59.858,59.858S226.899,366.019,226.899,332.96z"/>
<path style="fill:#3C9FE8;" d="M285.898,256c-42.505,0-76.96,34.456-76.96,76.96c0,42.504,34.456,76.96,76.96,76.96
	s76.96-34.457,76.96-76.96C362.858,290.456,328.401,256,285.898,256z M285.898,392.818c-33.059,0-59.858-26.799-59.858-59.858
	s26.799-59.858,59.858-59.858s59.858,26.799,59.858,59.858S318.957,392.818,285.898,392.818z"/>
<polygon style="fill:#FFC44F;" points="276.131,358.614 276.131,307.307 312.411,332.96 "/>
<path d="M200.386,144.301c4.427,0,8.017-3.589,8.017-8.017V84.977c0-3.302-2.105-6.343-5.196-7.504
	c-3.295-1.238-7.121-0.122-9.234,2.694l-19.24,25.653l-19.24-25.653c-2.072-2.761-5.677-3.885-8.949-2.795
	c-3.274,1.091-5.481,4.155-5.481,7.605v51.307c0,4.427,3.589,8.017,8.017,8.017c4.427,0,8.017-3.589,8.017-8.017v-27.257
	l11.223,14.965c3.154,4.206,9.672,4.206,12.827,0l11.223-14.965v27.257C192.37,140.711,195.959,144.301,200.386,144.301z"/>
<path d="M260.244,144.301c4.428,0,8.017-3.589,8.017-8.017V84.977c0-4.427-3.588-8.017-8.017-8.017H226.04
	c-4.427,0-8.017,3.589-8.017,8.017v51.307c0,4.427,3.589,8.017,8.017,8.017H260.244z M234.057,92.994h18.171v35.273h-18.171V92.994z
	"/>
<path d="M303,144.301c3.451,0,6.515-2.208,7.605-5.481l17.102-51.307c1.381-4.144-0.926-8.76-5.07-10.141
	c-4.145-1.381-8.759,0.927-10.141,5.071L303,110.933l-9.497-28.49c-1.382-4.145-5.995-6.453-10.141-5.071
	c-4.144,1.382-6.451,5.995-5.07,10.141l17.102,51.307C296.485,142.092,299.549,144.301,303,144.301z"/>
<path d="M196.792,282.918c-4.023-1.847-8.783-0.082-10.63,3.942c-6.658,14.508-10.035,30.019-10.035,46.1
	c0,61.002,49.629,110.63,110.63,110.63c17.092,0,33.967-3.965,49.176-11.512l28.77,28.771c6.377,6.376,17.054,6.378,23.43,0
	l12.095-12.093c6.459-6.459,6.459-16.97,0-23.43l-25.407-25.405c14.601-19.189,22.565-42.688,22.565-66.961
	c0-61.002-49.629-110.63-110.63-110.63c-27.724,0-54.246,10.303-74.681,29.01c-3.265,2.99-3.49,8.062-0.5,11.327
	c2.989,3.265,8.059,3.489,11.327,0.5c17.472-15.995,40.15-24.804,63.856-24.804c52.161,0,94.597,42.436,94.597,94.597
	c0,22.905-8.295,45.006-23.357,62.232c-2.777,3.177-2.617,7.962,0.367,10.945l30.527,30.525c0.208,0.208,0.208,0.547,0.001,0.756
	l-12.096,12.093c-0.205,0.206-0.547,0.208-0.755,0l-32.964-32.964c-2.554-2.554-6.496-3.084-9.633-1.3
	c-14.16,8.052-30.303,12.308-46.687,12.308c-52.161,0-94.597-42.436-94.597-94.597c0-13.757,2.885-27.016,8.574-39.412
	C202.581,289.524,200.816,284.765,196.792,282.918z"/>
<path d="M286.757,400.835c37.426,0,67.875-30.448,67.875-67.875s-30.448-67.875-67.875-67.875s-67.875,30.448-67.875,67.875
	S249.331,400.835,286.757,400.835z M286.757,281.119c28.585,0,51.841,23.256,51.841,51.841c0,28.585-23.256,51.841-51.841,51.841
	c-28.585,0-51.841-23.256-51.841-51.841C234.916,304.375,258.171,281.119,286.757,281.119z"/>
<path d="M272.447,365.734c2.634,1.364,5.893,1.138,8.313-0.574l36.278-25.653c4.442-3.14,4.442-9.95,0-13.091l-36.278-25.653
	c-5.215-3.689-12.645,0.178-12.645,6.546v51.307C268.115,361.61,269.786,364.356,272.447,365.734z M284.148,322.794l14.377,10.166
	l-14.377,10.166V322.794z"/>
<path d="M499.677,426.489c4.428,0,8.017-3.589,8.017-8.017V84.977c0-2.1-0.862-4.184-2.347-5.668l-76.96-76.96
	C426.899,0.863,424.818,0,422.716,0H106.324C92.473,0,81.205,11.268,81.205,25.119v9.086H12.261c-6.987,0-10.616,8.738-5.668,13.685
	l62.74,62.741l-62.74,62.741c-4.947,4.947-1.32,13.685,5.668,13.685h68.944v299.825c0,13.851,11.268,25.119,25.119,25.119h376.251
	c13.851,0,25.119-11.268,25.119-25.119v-34.205c0-4.427-3.588-8.017-8.017-8.017c-4.428,0-8.017,3.589-8.017,8.017v34.205
	c0,5.01-4.076,9.086-9.086,9.086H106.324c-5.01,0-9.086-4.076-9.086-9.086V187.056h51.841c4.427,0,8.017-3.589,8.017-8.017
	s-3.589-8.017-8.017-8.017H31.615l54.724-54.724c3.131-3.131,3.131-8.207,0-11.337L31.615,50.238h348.88v120.785H183.284
	c-4.427,0-8.017,3.589-8.017,8.017s3.589,8.017,8.017,8.017h205.228c4.428,0,8.017-3.589,8.017-8.017V42.221
	c0-4.427-3.588-8.017-8.017-8.017H97.238v-9.086c0-5.01,4.076-9.086,9.086-9.086H414.7v51.841c0,13.851,11.268,25.119,25.119,25.119
	h51.841v325.478C491.66,422.9,495.248,426.489,499.677,426.489z M439.819,76.96c-5.01,0-9.086-4.076-9.086-9.086V27.37l49.589,49.59
	H439.819z"/>
<g>
</g>
<g>
</g>
<g>
</g>
<g>
</g>
<g>
</g>
<g>
</g>
<g>
</g>
<g>
</g>
<g>
</g>
<g>
</g>
<g>
</g>
<g>
</g>
<g>
</g>
<g>
</g>
<g>
</g>
</svg>
