<?xml version="1.0" encoding="iso-8859-1"?>
<!-- Generator: Adobe Illustrator 19.0.0, SVG Export Plug-In . SVG Version: 6.00 Build 0)  -->
<svg version="1.1" id="Layer_1" xmlns="http://www.w3.org/2000/svg" xmlns:xlink="http://www.w3.org/1999/xlink" x="0px" y="0px"
	 viewBox="0 0 512 512" style="enable-background:new 0 0 512 512;" xml:space="preserve">
<rect x="50.772" y="59.324" style="fill:#D9DCDF;" width="410.455" height="171.023"/>
<rect x="50.772" y="119.182" style="fill:#C6CACF;" width="410.455" height="34.205"/>
<path style="fill:#A1A7AF;" d="M136.284,144.835v-42.756c0-4.722-3.829-8.551-8.551-8.551H16.568c-4.722,0-8.551,3.829-8.551,8.551
	v342.046c0,4.722,3.829,8.551,8.551,8.551h478.864c4.722,0,8.551-3.829,8.551-8.551V153.386c0-4.722-3.829-8.551-8.551-8.551
	H136.284z"/>
<path style="fill:#8E959F;" d="M33.67,427.023V93.528H16.568c-4.722,0-8.551,3.829-8.551,8.551v342.046
	c0,4.722,3.829,8.551,8.551,8.551h478.864c4.722,0,8.551-3.829,8.551-8.551v-17.102H33.67z"/>
<path style="fill:#3C9FE8;" d="M350.063,281.653c-13.914,0-26.526,5.548-35.768,14.54c1.015-4.687,1.564-9.548,1.564-14.54
	c0-37.781-30.628-68.409-68.409-68.409c-35.43,0-64.568,26.934-68.059,61.443c-4.225-1.028-8.636-1.585-13.177-1.585
	c-30.698,0-55.582,24.885-55.582,55.582c0,29.257,22.609,53.217,51.307,55.403v0.18h188.125c28.336,0,51.307-22.971,51.307-51.307
	C401.37,304.624,378.399,281.653,350.063,281.653z"/>
<path style="fill:#427FC9;" d="M358.614,367.165H170.489v-0.18c-28.698-2.185-51.307-26.145-51.307-55.403
	c0-5.536,0.821-10.877,2.327-15.922c-6.832,9.234-10.878,20.655-10.878,33.025c0,29.257,22.609,53.217,51.307,55.403v0.18h188.125
	c23.488,0,43.274-15.789,49.363-37.327C390.052,359.229,375.263,367.165,358.614,367.165z"/>
<rect x="204.693" y="298.756" style="fill:#FFC44F;" width="85.511" height="59.858"/>
<polygon style="fill:#F79F4D;" points="221.795,341.511 221.795,298.756 204.693,298.756 204.693,358.614 290.205,358.614 
	290.205,341.511 "/>
<path d="M461.228,152.852c-4.428,0-8.017-3.588-8.017-8.017V67.34h-60.392c-4.428,0-8.017-3.588-8.017-8.017
	s3.588-8.017,8.017-8.017h68.409c4.428,0,8.017,3.588,8.017,8.017v85.511C469.244,149.264,465.656,152.852,461.228,152.852z"/>
<path d="M50.772,101.545c-4.428,0-8.017-3.588-8.017-8.017V59.324c0-4.428,3.588-8.017,8.017-8.017h307.841
	c4.428,0,8.017,3.588,8.017,8.017s-3.588,8.017-8.017,8.017H58.789v26.188C58.789,97.957,55.201,101.545,50.772,101.545z"/>
<path d="M495.432,460.693H16.568C7.432,460.693,0,453.261,0,444.125V230.347c0-4.428,3.588-8.017,8.017-8.017
	s8.017,3.588,8.017,8.017v213.779c0,0.294,0.241,0.534,0.534,0.534h478.864c0.294,0,0.534-0.241,0.534-0.534V153.386
	c0-0.294-0.241-0.534-0.534-0.534H136.284c-4.428,0-8.017-3.588-8.017-8.017v-42.756c0-0.294-0.24-0.534-0.534-0.534H16.568
	c-0.294,0-0.534,0.241-0.534,0.534v94.063c0,4.428-3.588,8.017-8.017,8.017S0,200.57,0,196.142v-94.063
	c0-9.136,7.432-16.568,16.568-16.568h111.165c9.136,0,16.568,7.432,16.568,16.568v34.739h351.132
	c9.136,0,16.568,7.432,16.568,16.568v290.739C512,453.261,504.568,460.693,495.432,460.693z"/>
<path d="M350.063,273.637c-9.222,0-18.149,2.107-26.211,6.087c-1.028-41.252-34.907-74.497-76.402-74.497
	c-36.496,0-67.239,25.339-74.707,60.196c-2.171-0.226-4.351-0.338-6.529-0.338c-35.069,0-63.599,28.53-63.599,63.599
	c0,32.441,24.862,59.874,56.927,63.235c0.757,0.237,1.562,0.365,2.396,0.365h136.818c4.428,0,8.017-3.588,8.017-8.017
	s-3.588-8.017-8.017-8.017H163.628c-0.353-0.075-0.714-0.128-1.083-0.156c-24.616-1.875-43.898-22.7-43.898-47.41
	c0-26.227,21.338-47.566,47.566-47.566c3.782,0,7.578,0.457,11.282,1.359c4.658,1.131,9.39-2.215,9.871-6.982
	c3.128-30.919,28.957-54.235,60.083-54.235c33.3,0,60.392,27.092,60.392,60.392c0,4.285-0.466,8.608-1.382,12.845
	c-0.74,3.417,0.893,7.013,3.948,8.707c3.056,1.695,6.972,1.173,9.477-1.267c8.131-7.912,18.848-12.269,30.178-12.269
	c23.871,0,43.29,19.42,43.29,43.29c0,23.871-19.42,43.29-43.29,43.29h-25.653c-4.428,0-8.017,3.588-8.017,8.017
	s3.588,8.017,8.017,8.017h25.653c32.711,0,59.324-26.612,59.324-59.324S382.774,273.637,350.063,273.637z"/>
<path d="M256,247.983h-17.102c-13.851,0-25.119,11.268-25.119,25.119v17.637h-9.086c-4.428,0-8.017,3.588-8.017,8.017v59.858
	c0,4.428,3.588,8.017,8.017,8.017h85.511c4.428,0,8.017-3.588,8.017-8.017v-59.858c0-4.428-3.588-8.017-8.017-8.017h-9.086v-17.637
	C281.119,259.252,269.851,247.983,256,247.983z M229.812,273.102c0-5.01,4.076-9.086,9.086-9.086H256
	c5.01,0,9.086,4.076,9.086,9.086v17.637h-35.273V273.102z M282.188,350.597H212.71v-43.825h69.478V350.597z"/>
<path d="M247.449,316.392c-4.428,0-8.017,3.588-8.017,8.017v8.551c0,4.428,3.588,8.017,8.017,8.017c4.428,0,8.017-3.588,8.017-8.017
	v-8.551C255.466,319.981,251.877,316.392,247.449,316.392z"/>
<g>
</g>
<g>
</g>
<g>
</g>
<g>
</g>
<g>
</g>
<g>
</g>
<g>
</g>
<g>
</g>
<g>
</g>
<g>
</g>
<g>
</g>
<g>
</g>
<g>
</g>
<g>
</g>
<g>
</g>
</svg>
