<?xml version="1.0" encoding="iso-8859-1"?>
<!-- Generator: Adobe Illustrator 19.0.0, SVG Export Plug-In . SVG Version: 6.00 Build 0)  -->
<svg version="1.1" id="Layer_1" xmlns="http://www.w3.org/2000/svg" xmlns:xlink="http://www.w3.org/1999/xlink" x="0px" y="0px"
	 viewBox="0 0 512 512" style="enable-background:new 0 0 512 512;" xml:space="preserve">
<rect x="50.772" y="59.324" style="fill:#D9DCDF;" width="410.455" height="171.023"/>
<rect x="50.772" y="119.182" style="fill:#C6CACF;" width="410.455" height="34.205"/>
<path style="fill:#A1A7AF;" d="M136.284,144.835v-42.756c0-4.722-3.829-8.551-8.551-8.551H16.568c-4.722,0-8.551,3.829-8.551,8.551
	v342.046c0,4.722,3.829,8.551,8.551,8.551h478.864c4.722,0,8.551-3.829,8.551-8.551V153.386c0-4.722-3.829-8.551-8.551-8.551
	H136.284z"/>
<path style="fill:#8E959F;" d="M33.67,427.023V93.528H16.568c-4.722,0-8.551,3.829-8.551,8.551v342.046
	c0,4.722,3.829,8.551,8.551,8.551h478.864c4.722,0,8.551-3.829,8.551-8.551v-17.102H33.67z"/>
<path style="fill:#D9DCDF;" d="M367.165,409.921h-222.33c-4.722,0-8.551-3.829-8.551-8.551V196.142c0-4.722,3.829-8.551,8.551-8.551
	h222.33c4.722,0,8.551,3.829,8.551,8.551V401.37C375.716,406.092,371.887,409.921,367.165,409.921z"/>
<path style="fill:#8AC451;" d="M375.716,196.142c0-4.722-3.829-8.551-8.551-8.551h-222.33c-4.722,0-8.551,3.829-8.551,8.551v43.023
	h239.432V196.142z"/>
<path style="fill:#C6CACF;" d="M153.386,401.37V196.142c0-4.722,3.829-8.551,8.551-8.551h-17.102c-4.722,0-8.551,3.829-8.551,8.551
	V401.37c0,4.722,3.829,8.551,8.551,8.551h17.102C157.215,409.921,153.386,406.092,153.386,401.37z"/>
<path style="fill:#529E44;" d="M161.937,187.591h-17.102c-4.722,0-8.551,3.829-8.551,8.551v43.023h17.102v-43.023
	C153.386,191.42,157.215,187.591,161.937,187.591z"/>
<rect x="161.937" y="358.614" style="fill:#C4DF64;" width="188.125" height="25.653"/>
<path d="M495.432,136.818h-26.188V59.324c0-4.428-3.589-8.017-8.017-8.017h-68.409c-4.427,0-8.017,3.588-8.017,8.017
	s3.589,8.017,8.017,8.017h60.392v69.478h-308.91v-34.739c0-9.136-7.432-16.568-16.568-16.568H58.789V67.34h299.825
	c4.427,0,8.017-3.588,8.017-8.017s-3.589-8.017-8.017-8.017H50.772c-4.427,0-8.017,3.588-8.017,8.017v26.188H16.568
	C7.432,85.511,0,92.944,0,102.079v94.063c0,4.428,3.589,8.017,8.017,8.017s8.017-3.588,8.017-8.017v-94.063
	c0-0.294,0.239-0.534,0.534-0.534h111.165c0.295,0,0.534,0.241,0.534,0.534v42.756c0,4.428,3.589,8.017,8.017,8.017h359.148
	c0.295,0,0.534,0.241,0.534,0.534v290.739c0,0.294-0.239,0.534-0.534,0.534H16.568c-0.295,0-0.534-0.241-0.534-0.534V230.347
	c0-4.428-3.589-8.017-8.017-8.017S0,225.918,0,230.347v213.779c0,9.136,7.432,16.568,16.568,16.568h478.864
	c9.136,0,16.568-7.432,16.568-16.568V153.386C512,144.25,504.568,136.818,495.432,136.818z"/>
<path d="M136.284,342.046c-4.427,0-8.017,3.588-8.017,8.017v51.307c0,9.136,7.432,16.568,16.568,16.568h222.33
	c9.136,0,16.568-7.432,16.568-16.568V196.142c0-9.136-7.432-16.568-16.568-16.568h-222.33c-9.136,0-16.568,7.432-16.568,16.568
	v128.267c0,4.428,3.589,8.017,8.017,8.017c4.427,0,8.017-3.588,8.017-8.017v-77.495h223.399V401.37c0,0.294-0.239,0.534-0.534,0.534
	h-222.33c-0.295,0-0.534-0.24-0.534-0.534v-51.307C144.301,345.634,140.711,342.046,136.284,342.046z M144.301,230.881v-34.739
	c0-0.294,0.239-0.534,0.534-0.534h222.33c0.295,0,0.534,0.241,0.534,0.534v34.739H144.301z"/>
<path d="M350.063,392.284c4.427,0,8.017-3.588,8.017-8.017v-25.653c0-4.428-3.589-8.017-8.017-8.017H161.937
	c-4.427,0-8.017,3.588-8.017,8.017v25.653c0,4.428,3.589,8.017,8.017,8.017H350.063z M169.954,366.63h172.092v9.62H169.954V366.63z"
	/>
<path d="M351.132,205.228h-1.069c-4.427,0-8.017,3.588-8.017,8.017s3.589,8.017,8.017,8.017h1.069c4.427,0,8.017-3.588,8.017-8.017
	S355.559,205.228,351.132,205.228z"/>
<g>
</g>
<g>
</g>
<g>
</g>
<g>
</g>
<g>
</g>
<g>
</g>
<g>
</g>
<g>
</g>
<g>
</g>
<g>
</g>
<g>
</g>
<g>
</g>
<g>
</g>
<g>
</g>
<g>
</g>
</svg>
