<?xml version="1.0" encoding="iso-8859-1"?>
<!-- Generator: Adobe Illustrator 19.0.0, SVG Export Plug-In . SVG Version: 6.00 Build 0)  -->
<svg version="1.1" id="Layer_1" xmlns="http://www.w3.org/2000/svg" xmlns:xlink="http://www.w3.org/1999/xlink" x="0px" y="0px"
	 viewBox="0 0 512 512" style="enable-background:new 0 0 512 512;" xml:space="preserve">
<path style="fill:#ECEDEF;" d="M106.324,8.017c-9.446,0-17.102,7.656-17.102,17.102v461.762c0,9.446,7.656,17.102,17.102,17.102
	h376.251c9.446,0,17.102-7.656,17.102-17.102V84.977l-76.96-76.96H106.324z"/>
<path style="fill:#D9DCDF;" d="M439.817,84.977h59.858l-76.96-76.96v59.858C422.715,77.319,430.373,84.977,439.817,84.977z"/>
<path style="fill:#C6CACF;" d="M397.063,196.142H89.221V42.221h307.841c4.722,0,8.551,3.829,8.551,8.551v136.818
	C405.614,192.313,401.785,196.142,397.063,196.142z"/>
<polygon style="fill:#8AC451;" points="388.512,179.04 12.261,179.04 80.67,110.63 12.261,42.221 388.512,42.221 "/>
<rect x="200.385" y="307.307" style="fill:#3C9FE8;" width="119.716" height="119.716"/>
<polygon style="fill:#427FC9;" points="217.489,409.921 217.489,307.307 200.386,307.307 200.386,427.023 320.102,427.023 
	320.102,409.921 "/>
<polygon style="fill:#97CCE8;" points="320.102,307.307 200.386,307.307 268.796,256 388.512,256 "/>
<polygon style="fill:#427FC9;" points="388.512,375.716 320.102,427.023 320.102,307.307 388.512,256 "/>
<path d="M499.677,426.489c4.428,0,8.017-3.588,8.017-8.017V84.977c0-2.1-0.863-4.184-2.347-5.669l-76.96-76.96
	C426.899,0.863,424.817,0,422.716,0H106.324C92.473,0,81.205,11.268,81.205,25.119v9.086H12.261c-6.987,0-10.615,8.738-5.669,13.686
	l62.741,62.74L6.592,173.37c-4.945,4.948-1.319,13.686,5.669,13.686h68.944v299.825c0,13.851,11.268,25.119,25.119,25.119h376.251
	c13.851,0,25.119-11.268,25.119-25.119v-34.205c0-4.428-3.588-8.017-8.017-8.017c-4.428,0-8.017,3.588-8.017,8.017v34.205
	c0,5.01-4.076,9.086-9.086,9.086H106.324c-5.01,0-9.086-4.076-9.086-9.086V187.056h51.841c4.428,0,8.017-3.588,8.017-8.017
	s-3.588-8.017-8.017-8.017H31.615L86.339,116.3c3.131-3.132,3.131-8.207,0-11.338L31.615,50.238h348.88v120.785H183.284
	c-4.428,0-8.017,3.588-8.017,8.017s3.588,8.017,8.017,8.017h205.228c4.428,0,8.017-3.588,8.017-8.017V42.221
	c0-4.428-3.588-8.017-8.017-8.017H97.238v-9.086c0-5.01,4.076-9.086,9.086-9.086H414.7v51.841c0,13.851,11.268,25.119,25.119,25.119
	h51.841v325.478C491.66,422.9,495.248,426.489,499.677,426.489z M439.819,76.96c-5.01,0-9.086-4.076-9.086-9.086V27.37l49.589,49.59
	H439.819z"/>
<path d="M166.182,128.267c-4.428,0-8.017,3.588-8.017,8.017c0,4.428,3.588,8.017,8.017,8.017h25.653
	c4.428,0,8.017-3.588,8.017-8.017v-17.637h0.534c4.428,0,8.017-3.588,8.017-8.017c0-4.428-3.588-8.017-8.017-8.017h-0.534V84.977
	c0-4.428-3.588-8.017-8.017-8.017h-25.653c-4.428,0-8.017,3.588-8.017,8.017c0,4.428,3.588,8.017,8.017,8.017h17.637v9.62h-9.086
	c-4.428,0-8.017,3.588-8.017,8.017c0,4.428,3.588,8.017,8.017,8.017h9.086v9.62H166.182z"/>
<path d="M260.244,144.301c4.428,0,8.017-3.588,8.017-8.017v-34.205c0-13.851-11.268-25.119-25.119-25.119H226.04
	c-4.428,0-8.017,3.588-8.017,8.017v51.307c0,4.428,3.588,8.017,8.017,8.017H260.244z M234.057,92.994h9.086
	c5.01,0,9.086,4.076,9.086,9.086v26.188h-18.171V92.994z"/>
<path d="M285.898,128.267c-4.428,0-8.017,3.588-8.017,8.017c0,4.428,3.588,8.017,8.017,8.017h25.653
	c4.428,0,8.017-3.588,8.017-8.017V110.63c0-4.428-3.588-8.017-8.017-8.017h-17.637v-9.62h17.637c4.428,0,8.017-3.588,8.017-8.017
	c0-4.428-3.588-8.017-8.017-8.017h-25.653c-4.428,0-8.017,3.588-8.017,8.017v25.653c0,4.428,3.588,8.017,8.017,8.017h17.637v9.62
	H285.898z"/>
<path d="M174.733,460.693c2.051,0,4.103-0.782,5.669-2.347l23.305-23.306h116.395c1.717,0,3.436-0.575,4.81-1.603l66.271-49.704
	h31.532c4.428,0,8.017-3.588,8.017-8.017c0-4.428-3.588-8.017-8.017-8.017h-26.188V256c0-4.35-3.671-8.017-8.017-8.017H276.812
	v-26.188c0-4.428-3.588-8.017-8.017-8.017c-4.428,0-8.017,3.588-8.017,8.017v30.196l-65.202,48.902
	c-2.013,1.515-3.207,3.95-3.207,6.466v51.255c0,4.428,3.588,8.017,8.017,8.017c4.428,0,8.017-3.588,8.017-8.017v-43.29h103.683
	v103.683H208.403v-34.739c0-4.428-3.588-8.017-8.017-8.017c-4.428,0-8.017,3.588-8.017,8.017v39.435l-23.306,23.306
	C164.126,451.946,167.72,460.693,174.733,460.693z M328.119,311.315l52.376-39.282v99.674l-52.376,39.282V311.315z M224.436,299.29
	l47.031-35.273h92.994L317.43,299.29H224.436z"/>
<g>
</g>
<g>
</g>
<g>
</g>
<g>
</g>
<g>
</g>
<g>
</g>
<g>
</g>
<g>
</g>
<g>
</g>
<g>
</g>
<g>
</g>
<g>
</g>
<g>
</g>
<g>
</g>
<g>
</g>
</svg>
