<?xml version="1.0" encoding="iso-8859-1"?>
<!-- Generator: Adobe Illustrator 19.0.0, SVG Export Plug-In . SVG Version: 6.00 Build 0)  -->
<svg version="1.1" id="Layer_1" xmlns="http://www.w3.org/2000/svg" xmlns:xlink="http://www.w3.org/1999/xlink" x="0px" y="0px"
	 viewBox="0 0 512 512" style="enable-background:new 0 0 512 512;" xml:space="preserve">
<path style="fill:#ECEDEF;" d="M106.324,8.017c-9.446,0-17.102,7.656-17.102,17.102v461.762c0,9.446,7.656,17.102,17.102,17.102
	h376.251c9.446,0,17.102-7.656,17.102-17.102V84.977l-76.96-76.96H106.324z"/>
<path style="fill:#D9DCDF;" d="M439.819,84.977h59.858l-76.96-76.96v59.858C422.717,77.319,430.373,84.977,439.819,84.977z"/>
<path style="fill:#C6CACF;" d="M397.063,196.142H89.222V42.221h307.841c4.722,0,8.551,3.829,8.551,8.551v136.818
	C405.615,192.313,401.786,196.142,397.063,196.142z"/>
<polygon style="fill:#3C9FE8;" points="388.512,179.04 12.262,179.04 80.671,110.63 12.262,42.221 388.512,42.221 "/>
<path style="fill:#D9DCDF;" d="M414.166,461.228H174.734c-4.722,0-8.551-3.829-8.551-8.551v-222.33c0-4.722,3.829-8.551,8.551-8.551
	h239.432c4.722,0,8.551,3.829,8.551,8.551v222.33C422.717,457.399,418.888,461.228,414.166,461.228z"/>
<path style="fill:#FFC44F;" d="M422.717,230.347c0-4.722-3.829-8.551-8.551-8.551H174.734c-4.722,0-8.551,3.829-8.551,8.551v42.756
	h256.534V230.347z"/>
<path style="fill:#C6CACF;" d="M183.285,452.676v-222.33c0-4.722,3.829-8.551,8.551-8.551h-17.102c-4.722,0-8.551,3.829-8.551,8.551
	v222.33c0,4.722,3.829,8.551,8.551,8.551h17.102C187.113,461.228,183.285,457.399,183.285,452.676z"/>
<path style="fill:#F79F4D;" d="M191.836,221.795h-17.102c-4.722,0-8.551,3.829-8.551,8.551v42.756h17.102v-42.756
	C183.285,225.624,187.113,221.795,191.836,221.795z"/>
<path d="M499.677,426.489c4.427,0,8.017-3.589,8.017-8.017V84.977c0-2.1-0.863-4.184-2.348-5.668l-76.96-76.96
	C426.902,0.865,424.815,0,422.716,0H106.323C92.473,0,81.204,11.268,81.204,25.119v9.086H12.261c-6.987,0-10.616,8.738-5.668,13.685
	l62.741,62.741l-62.74,62.741c-4.947,4.947-1.32,13.685,5.668,13.685h68.944v299.825c0,13.851,11.268,25.119,25.119,25.119h376.251
	c13.851,0,25.119-11.268,25.119-25.119v-34.205c0-4.427-3.589-8.017-8.017-8.017c-4.427,0-8.017,3.589-8.017,8.017v34.205
	c0,5.01-4.076,9.086-9.086,9.086H106.324c-5.01,0-9.086-4.076-9.086-9.086V187.056h51.841c4.427,0,8.017-3.589,8.017-8.017
	s-3.589-8.017-8.017-8.017H31.615l54.724-54.724c3.131-3.131,3.131-8.207,0-11.337L31.615,50.238h348.88v120.785H183.285
	c-4.427,0-8.017,3.589-8.017,8.017s3.589,8.017,8.017,8.017h205.228c4.427,0,8.017-3.589,8.017-8.017V42.221
	c0-4.427-3.589-8.017-8.017-8.017H97.239v-9.086c0-5.01,4.076-9.086,9.086-9.086H414.7v51.841c0,13.851,11.268,25.119,25.119,25.119
	h51.841v325.478C491.66,422.9,495.25,426.489,499.677,426.489z M430.732,67.875V27.37l49.59,49.59h-40.505
	C434.808,76.96,430.732,72.885,430.732,67.875z"/>
<path d="M131.978,76.96c-4.427,0-8.017,3.589-8.017,8.017v51.307c0,4.427,3.589,8.017,8.017,8.017s8.017-3.589,8.017-8.017v-17.637
	h18.171v17.637c0,4.427,3.589,8.017,8.017,8.017s8.017-3.589,8.017-8.017V84.977c0-4.427-3.589-8.017-8.017-8.017
	s-8.017,3.589-8.017,8.017v17.637h-18.171V84.977C139.994,80.55,136.405,76.96,131.978,76.96z"/>
<path d="M200.387,144.301c4.427,0,8.017-3.589,8.017-8.017v-43.29h9.086c4.427,0,8.017-3.589,8.017-8.017
	c0-4.427-3.589-8.017-8.017-8.017h-34.205c-4.427,0-8.017,3.589-8.017,8.017c0,4.427,3.589,8.017,8.017,8.017h9.086v43.29
	C192.37,140.711,195.96,144.301,200.387,144.301z"/>
<path d="M285.898,144.301c4.427,0,8.017-3.589,8.017-8.017V84.977c0-3.603-2.404-6.764-5.877-7.726
	c-3.471-0.961-7.159,0.511-9.014,3.601l-18.779,31.299l-18.779-31.299c-1.853-3.09-5.542-4.562-9.014-3.601
	c-3.473,0.962-5.877,4.123-5.877,7.726v51.307c0,4.427,3.589,8.017,8.017,8.017c4.427,0,8.017-3.589,8.017-8.017v-22.364
	l10.763,17.938c3.058,5.095,10.69,5.096,13.748,0l10.763-17.938v22.364C277.882,140.711,281.471,144.301,285.898,144.301z"/>
<path d="M311.552,76.96c-4.427,0-8.017,3.589-8.017,8.017v51.307c0,4.427,3.589,8.017,8.017,8.017h25.653
	c4.427,0,8.017-3.589,8.017-8.017c0-4.427-3.589-8.017-8.017-8.017h-17.637v-43.29C319.569,80.55,315.979,76.96,311.552,76.96z"/>
<path d="M174.734,469.244h239.432c9.136,0,16.568-7.432,16.568-16.568v-222.33c0-9.136-7.432-16.568-16.568-16.568H174.734
	c-9.136,0-16.568,7.432-16.568,16.568v222.33C158.166,461.812,165.598,469.244,174.734,469.244z M174.734,229.812h239.432
	c0.295,0,0.534,0.239,0.534,0.534v34.739H243.143c-4.427,0-8.017,3.589-8.017,8.017c0,4.427,3.589,8.017,8.017,8.017H414.7v171.557
	c0,0.295-0.239,0.534-0.534,0.534H174.734c-0.295,0-0.534-0.239-0.534-0.534V281.119h34.739c4.427,0,8.017-3.589,8.017-8.017
	c0-4.427-3.589-8.017-8.017-8.017h-34.739v-34.739C174.199,230.052,174.439,229.812,174.734,229.812z"/>
<path d="M388.512,255.466h8.551c4.427,0,8.017-3.589,8.017-8.017s-3.589-8.017-8.017-8.017h-8.551c-4.427,0-8.017,3.589-8.017,8.017
	S384.085,255.466,388.512,255.466z"/>
<path d="M354.308,255.466h8.551c4.427,0,8.017-3.589,8.017-8.017s-3.589-8.017-8.017-8.017h-8.551c-4.427,0-8.017,3.589-8.017,8.017
	S349.88,255.466,354.308,255.466z"/>
<path d="M320.103,255.466h8.551c4.427,0,8.017-3.589,8.017-8.017s-3.589-8.017-8.017-8.017h-8.551c-4.427,0-8.017,3.589-8.017,8.017
	S315.676,255.466,320.103,255.466z"/>
<path d="M194.719,372.833l34.205,34.205c3.261,3.261,8.765,3.041,11.763-0.46c2.687-3.137,2.493-7.959-0.426-10.877l-28.536-28.536
	l28.536-28.536c3.089-3.088,3.089-8.249,0-11.337c-3.088-3.088-8.249-3.088-11.337,0l-34.205,34.205
	C191.587,364.626,191.587,369.704,194.719,372.833z"/>
<path d="M348.639,407.038c3.088,3.088,8.249,3.088,11.337,0l34.205-34.205c3.131-3.131,3.131-8.207,0-11.337l-34.205-34.205
	c-3.131-3.131-8.207-3.131-11.337,0c-3.131,3.131-3.131,8.207,0,11.337l28.536,28.536l-28.536,28.536
	C345.507,398.831,345.507,403.908,348.639,407.038z"/>
<path d="M264.671,416.795c3.748,2.249,8.752,0.995,10.999-2.749l51.307-85.511c2.278-3.797,1.046-8.721-2.749-10.999
	c-3.799-2.279-8.721-1.046-10.999,2.749l-51.307,85.511C259.643,409.593,260.875,414.517,264.671,416.795z"/>
<g>
</g>
<g>
</g>
<g>
</g>
<g>
</g>
<g>
</g>
<g>
</g>
<g>
</g>
<g>
</g>
<g>
</g>
<g>
</g>
<g>
</g>
<g>
</g>
<g>
</g>
<g>
</g>
<g>
</g>
</svg>
