<?xml version="1.0" encoding="iso-8859-1"?>
<!-- Generator: Adobe Illustrator 19.0.0, SVG Export Plug-In . SVG Version: 6.00 Build 0)  -->
<svg version="1.1" id="Layer_1" xmlns="http://www.w3.org/2000/svg" xmlns:xlink="http://www.w3.org/1999/xlink" x="0px" y="0px"
	 viewBox="0 0 512 512" style="enable-background:new 0 0 512 512;" xml:space="preserve">
<path style="fill:#ECEDEF;" d="M106.324,8.017c-9.446,0-17.102,7.656-17.102,17.102v461.762c0,9.446,7.656,17.102,17.102,17.102
	h376.251c9.446,0,17.102-7.656,17.102-17.102V84.977l-76.96-76.96H106.324z"/>
<path style="fill:#D9DCDF;" d="M439.819,84.977h59.858l-76.96-76.96v59.858C422.716,77.319,430.373,84.977,439.819,84.977z"/>
<path style="fill:#C6CACF;" d="M397.063,196.142H89.222V42.221h307.841c4.722,0,8.551,3.829,8.551,8.551v136.818
	C405.614,192.313,401.785,196.142,397.063,196.142z"/>
<polygon style="fill:#68727E;" points="388.512,179.04 12.261,179.04 80.67,110.63 12.261,42.221 388.512,42.221 "/>
<path style="fill:#D9DCDF;" d="M414.165,461.228H174.733c-4.722,0-8.551-3.829-8.551-8.551v-222.33c0-4.722,3.829-8.551,8.551-8.551
	h239.432c4.722,0,8.551,3.829,8.551,8.551v222.33C422.716,457.399,418.888,461.228,414.165,461.228z"/>
<path style="fill:#C6CACF;" d="M183.284,444.125v-222.33h-8.551c-4.722,0-8.551,3.829-8.551,8.551v222.33
	c0,4.722,3.829,8.551,8.551,8.551h239.432c4.722,0,8.551-3.829,8.551-8.551v-8.551H183.284z"/>
<rect x="302.999" y="324.409" style="fill:#DB6B5E;" width="85.511" height="102.614"/>
<rect x="320.101" y="341.511" style="fill:#FF8C78;" width="51.307" height="68.409"/>
<path d="M499.677,426.489c4.428,0,8.017-3.589,8.017-8.017V84.977c0-2.1-0.862-4.183-2.347-5.668l-76.96-76.96
	C426.9,0.863,424.817,0,422.716,0H106.324C92.473,0,81.205,11.268,81.205,25.119v9.086H12.261c-6.987,0-10.616,8.738-5.668,13.685
	l62.74,62.741l-62.74,62.741c-4.947,4.947-1.32,13.685,5.668,13.685h68.944v299.825c0,13.851,11.268,25.119,25.119,25.119h376.251
	c13.851,0,25.119-11.268,25.119-25.119v-34.205c0-4.427-3.588-8.017-8.017-8.017c-4.428,0-8.017,3.589-8.017,8.017v34.205
	c0,5.01-4.076,9.086-9.086,9.086H106.324c-5.01,0-9.086-4.076-9.086-9.086V187.056h51.841c4.427,0,8.017-3.589,8.017-8.017
	s-3.589-8.017-8.017-8.017H31.615l54.724-54.724c3.131-3.131,3.131-8.207,0-11.337L31.615,50.238h348.88v120.785H183.284
	c-4.427,0-8.017,3.589-8.017,8.017s3.589,8.017,8.017,8.017h205.228c4.428,0,8.017-3.589,8.017-8.017V42.221
	c0-4.427-3.588-8.017-8.017-8.017H97.238v-9.086c0-5.01,4.076-9.086,9.086-9.086H414.7v51.841c0,13.851,11.268,25.119,25.119,25.119
	h51.841v325.478C491.66,422.9,495.248,426.489,499.677,426.489z M439.819,76.96c-5.01,0-9.086-4.076-9.086-9.086V27.37l49.589,49.59
	H439.819z"/>
<path d="M182.75,136.284v-17.655c0.177,0.012,0.355,0.018,0.534,0.018h25.653c4.427,0,8.017-3.589,8.017-8.017V84.977
	c0-4.427-3.589-8.017-8.017-8.017h-34.205c-4.427,0-8.017,3.589-8.017,8.017v51.307c0,4.427,3.589,8.017,8.017,8.017
	S182.75,140.711,182.75,136.284z M182.75,92.994h18.171v9.62h-17.637c-0.18,0-0.357,0.005-0.534,0.018V92.994z"/>
<path d="M268.796,144.301c4.428,0,8.017-3.589,8.017-8.017v-34.205c0-13.851-11.268-25.119-25.119-25.119h-17.102
	c-4.427,0-8.017,3.589-8.017,8.017v51.307c0,4.427,3.589,8.017,8.017,8.017H268.796z M242.608,92.994h9.086
	c5.01,0,9.086,4.076,9.086,9.086v26.188h-18.171V92.994z"/>
<path d="M328.654,92.994c4.428,0,8.017-3.589,8.017-8.017c0-4.427-3.588-8.017-8.017-8.017h-34.205
	c-4.428,0-8.017,3.589-8.017,8.017v51.307c0,4.427,3.588,8.017,8.017,8.017s8.017-3.589,8.017-8.017v-17.637h17.637
	c4.428,0,8.017-3.589,8.017-8.017c0-4.427-3.588-8.017-8.017-8.017h-17.637v-9.62H328.654z"/>
<path d="M158.165,230.347v222.33c0,9.136,7.432,16.568,16.568,16.568h239.432c9.136,0,16.568-7.432,16.568-16.568v-222.33
	c0-9.136-7.432-16.568-16.568-16.568H174.733C165.597,213.779,158.165,221.211,158.165,230.347z M174.199,230.347
	c0-0.295,0.239-0.534,0.534-0.534h239.432c0.294,0,0.534,0.239,0.534,0.534v222.33c0,0.295-0.241,0.534-0.534,0.534H174.733
	c-0.295,0-0.534-0.239-0.534-0.534L174.199,230.347L174.199,230.347z"/>
<path d="M303,435.04h85.511c4.428,0,8.017-3.589,8.017-8.017V324.409c0-4.427-3.588-8.017-8.017-8.017H303
	c-4.428,0-8.017,3.589-8.017,8.017v102.614C294.984,431.45,298.572,435.04,303,435.04z M311.017,332.426h69.478v86.58h-69.478
	V332.426z"/>
<path d="M303,264.017h94.063c4.428,0,8.017-3.589,8.017-8.017c0-4.427-3.588-8.017-8.017-8.017H303
	c-4.428,0-8.017,3.589-8.017,8.017C294.984,260.427,298.572,264.017,303,264.017z"/>
<path d="M303,298.221h94.063c4.428,0,8.017-3.589,8.017-8.017c0-4.427-3.588-8.017-8.017-8.017H303
	c-4.428,0-8.017,3.589-8.017,8.017C294.984,294.632,298.572,298.221,303,298.221z"/>
<path d="M191.835,264.017h85.512c4.428,0,8.017-3.589,8.017-8.017c0-4.427-3.588-8.017-8.017-8.017h-85.511
	c-4.427,0-8.017,3.589-8.017,8.017C183.819,260.427,187.408,264.017,191.835,264.017z"/>
<path d="M191.835,298.221h85.512c4.428,0,8.017-3.589,8.017-8.017c0-4.427-3.588-8.017-8.017-8.017h-85.511
	c-4.427,0-8.017,3.589-8.017,8.017C183.819,294.632,187.408,298.221,191.835,298.221z"/>
<path d="M191.835,332.426h85.512c4.428,0,8.017-3.589,8.017-8.017c0-4.427-3.588-8.017-8.017-8.017h-85.511
	c-4.427,0-8.017,3.589-8.017,8.017C183.819,328.837,187.408,332.426,191.835,332.426z"/>
<path d="M191.835,366.63h85.512c4.428,0,8.017-3.589,8.017-8.017c0-4.427-3.588-8.017-8.017-8.017h-85.511
	c-4.427,0-8.017,3.589-8.017,8.017C183.819,363.041,187.408,366.63,191.835,366.63z"/>
<path d="M191.835,400.835h85.512c4.428,0,8.017-3.589,8.017-8.017c0-4.427-3.588-8.017-8.017-8.017h-85.511
	c-4.427,0-8.017,3.589-8.017,8.017C183.819,397.246,187.408,400.835,191.835,400.835z"/>
<path d="M191.835,435.04h85.512c4.428,0,8.017-3.589,8.017-8.017c0-4.427-3.588-8.017-8.017-8.017h-85.511
	c-4.427,0-8.017,3.589-8.017,8.017C183.819,431.45,187.408,435.04,191.835,435.04z"/>
<g>
</g>
<g>
</g>
<g>
</g>
<g>
</g>
<g>
</g>
<g>
</g>
<g>
</g>
<g>
</g>
<g>
</g>
<g>
</g>
<g>
</g>
<g>
</g>
<g>
</g>
<g>
</g>
<g>
</g>
</svg>
