<?xml version="1.0" encoding="iso-8859-1"?>
<!-- Generator: Adobe Illustrator 19.0.0, SVG Export Plug-In . SVG Version: 6.00 Build 0)  -->
<svg version="1.1" id="Layer_1" xmlns="http://www.w3.org/2000/svg" xmlns:xlink="http://www.w3.org/1999/xlink" x="0px" y="0px"
	 viewBox="0 0 512 512" style="enable-background:new 0 0 512 512;" xml:space="preserve">
<path style="fill:#ECEDEF;" d="M106.324,8.017c-9.446,0-17.102,7.656-17.102,17.102v461.762c0,9.446,7.656,17.102,17.102,17.102
	h376.251c9.446,0,17.102-7.656,17.102-17.102V84.977l-76.96-76.96H106.324z"/>
<path style="fill:#D9DCDF;" d="M439.817,84.977h59.858l-76.96-76.96v59.858C422.715,77.319,430.373,84.977,439.817,84.977z"/>
<path style="fill:#C6CACF;" d="M397.063,196.142H89.221V42.221h307.841c4.722,0,8.551,3.829,8.551,8.551v136.818
	C405.614,192.313,401.785,196.142,397.063,196.142z"/>
<polygon style="fill:#F79F4D;" points="388.512,179.04 12.261,179.04 80.67,110.63 12.261,42.221 388.512,42.221 "/>
<path d="M499.677,426.489c4.428,0,8.017-3.588,8.017-8.017V84.977c0-2.1-0.863-4.184-2.347-5.669l-76.96-76.96
	C426.899,0.863,424.817,0,422.716,0H106.324C92.473,0,81.205,11.268,81.205,25.119v9.086H12.261c-6.987,0-10.615,8.738-5.669,13.686
	l62.741,62.74L6.592,173.37c-4.945,4.948-1.319,13.686,5.669,13.686h68.944v299.825c0,13.851,11.268,25.119,25.119,25.119h376.251
	c13.851,0,25.119-11.268,25.119-25.119v-34.205c0-4.428-3.588-8.017-8.017-8.017c-4.428,0-8.017,3.588-8.017,8.017v34.205
	c0,5.01-4.076,9.086-9.086,9.086H106.324c-5.01,0-9.086-4.076-9.086-9.086V187.056h51.841c4.428,0,8.017-3.588,8.017-8.017
	s-3.588-8.017-8.017-8.017H31.615L86.339,116.3c3.131-3.132,3.131-8.207,0-11.338L31.615,50.238h348.88v120.785H183.284
	c-4.428,0-8.017,3.588-8.017,8.017s3.588,8.017,8.017,8.017h205.228c4.428,0,8.017-3.588,8.017-8.017V42.221
	c0-4.428-3.588-8.017-8.017-8.017H97.238v-9.086c0-5.01,4.076-9.086,9.086-9.086H414.7v51.841c0,13.851,11.268,25.119,25.119,25.119
	h51.841v325.478C491.66,422.9,495.248,426.489,499.677,426.489z M439.819,76.96c-5.01,0-9.086-4.076-9.086-9.086V27.37l49.589,49.59
	H439.819z"/>
<path d="M370.875,273.102c0-4.428-3.588-8.017-8.017-8.017H226.04c-4.428,0-8.017,3.588-8.017,8.017v136.818
	c0,4.428,3.588,8.017,8.017,8.017h136.818c4.428,0,8.017-3.588,8.017-8.017V273.102z M354.842,333.495h-52.376v-52.376h52.376
	V333.495z M286.432,281.119v52.376h-52.376v-52.376H286.432z M234.057,349.528h52.376v52.376h-52.376L234.057,349.528
	L234.057,349.528z M302.466,401.904v-52.376h52.376v52.376H302.466z"/>
<path d="M414.165,265.086h-25.653c-4.428,0-8.017,3.588-8.017,8.017s3.588,8.017,8.017,8.017h25.653
	c4.428,0,8.017-3.588,8.017-8.017S418.592,265.086,414.165,265.086z"/>
<path d="M370.875,221.795c0-4.428-3.588-8.017-8.017-8.017s-8.017,3.588-8.017,8.017v25.653c0,4.428,3.588,8.017,8.017,8.017
	s8.017-3.588,8.017-8.017V221.795z"/>
<path d="M226.04,255.466c4.428,0,8.017-3.588,8.017-8.017v-25.653c0-4.428-3.588-8.017-8.017-8.017
	c-4.428,0-8.017,3.588-8.017,8.017v25.653C218.023,251.877,221.611,255.466,226.04,255.466z"/>
<path d="M200.386,265.086h-25.653c-4.428,0-8.017,3.588-8.017,8.017s3.588,8.017,8.017,8.017h25.653
	c4.428,0,8.017-3.588,8.017-8.017S204.814,265.086,200.386,265.086z"/>
<path d="M362.858,427.557c-4.428,0-8.017,3.588-8.017,8.017v25.653c0,4.428,3.588,8.017,8.017,8.017s8.017-3.588,8.017-8.017
	v-25.653C370.875,431.146,367.286,427.557,362.858,427.557z"/>
<path d="M414.165,401.904h-25.653c-4.428,0-8.017,3.588-8.017,8.017s3.588,8.017,8.017,8.017h25.653
	c4.428,0,8.017-3.588,8.017-8.017S418.592,401.904,414.165,401.904z"/>
<path d="M200.386,401.904h-25.653c-4.428,0-8.017,3.588-8.017,8.017s3.588,8.017,8.017,8.017h25.653
	c4.428,0,8.017-3.588,8.017-8.017S204.814,401.904,200.386,401.904z"/>
<path d="M218.023,435.574v25.653c0,4.428,3.588,8.017,8.017,8.017c4.428,0,8.017-3.588,8.017-8.017v-25.653
	c0-4.428-3.588-8.017-8.017-8.017C221.611,427.557,218.023,431.146,218.023,435.574z"/>
<path d="M191.301,136.284v-34.205c0-13.851-11.268-25.119-25.119-25.119h-17.102c-4.428,0-8.017,3.588-8.017,8.017v51.307
	c0,4.428,3.588,8.017,8.017,8.017h34.205C187.711,144.301,191.301,140.712,191.301,136.284z M175.267,128.267h-18.171V92.994h9.086
	c5.01,0,9.086,4.076,9.086,9.086V128.267z"/>
<path d="M216.297,144.212c3.429,0.509,6.81-1.237,8.362-4.343l9.932-19.864l9.932,19.864c1.609,3.218,5.278,4.99,8.799,4.263
	c3.206-0.662,5.741-3.303,6.279-6.53l8.551-51.307c0.728-4.367-2.223-8.498-6.59-9.227c-4.379-0.728-8.498,2.223-9.227,6.59
	l-4.498,26.99l-6.078-12.154c-1.359-2.715-4.133-4.432-7.17-4.432s-5.813,1.716-7.17,4.432l-6.078,12.154l-4.498-26.99
	c-0.729-4.366-4.852-7.316-9.227-6.59c-4.366,0.729-7.318,4.859-6.59,9.227l8.551,51.307
	C210.152,141.028,212.863,143.696,216.297,144.212z"/>
<path d="M320.102,92.994c4.428,0,8.017-3.588,8.017-8.017c0-4.428-3.588-8.017-8.017-8.017h-34.205
	c-4.428,0-8.017,3.588-8.017,8.017v51.307c0,4.428,3.588,8.017,8.017,8.017h34.205c4.428,0,8.017-3.588,8.017-8.017V110.63
	c0-4.428-3.588-8.017-8.017-8.017h-8.551c-4.428,0-8.017,3.588-8.017,8.017c0,4.428,3.588,8.017,8.017,8.017h0.534v9.62h-18.171
	V92.994H320.102z"/>
<g>
</g>
<g>
</g>
<g>
</g>
<g>
</g>
<g>
</g>
<g>
</g>
<g>
</g>
<g>
</g>
<g>
</g>
<g>
</g>
<g>
</g>
<g>
</g>
<g>
</g>
<g>
</g>
<g>
</g>
</svg>
