<?xml version="1.0" encoding="iso-8859-1"?>
<!-- Generator: Adobe Illustrator 19.0.0, SVG Export Plug-In . SVG Version: 6.00 Build 0)  -->
<svg version="1.1" id="Layer_1" xmlns="http://www.w3.org/2000/svg" xmlns:xlink="http://www.w3.org/1999/xlink" x="0px" y="0px"
	 viewBox="0 0 512 512" style="enable-background:new 0 0 512 512;" xml:space="preserve">
<rect x="50.772" y="59.324" style="fill:#D9DCDF;" width="410.455" height="171.023"/>
<rect x="50.772" y="119.182" style="fill:#C6CACF;" width="410.455" height="34.205"/>
<path style="fill:#A1A7AF;" d="M136.284,144.835v-42.756c0-4.722-3.829-8.551-8.551-8.551H16.568c-4.722,0-8.551,3.829-8.551,8.551
	v342.046c0,4.722,3.829,8.551,8.551,8.551h478.864c4.722,0,8.551-3.829,8.551-8.551V153.386c0-4.722-3.829-8.551-8.551-8.551
	H136.284z"/>
<path style="fill:#8E959F;" d="M33.67,427.023V93.528H16.568c-4.722,0-8.551,3.829-8.551,8.551v342.046
	c0,4.722,3.829,8.551,8.551,8.551h478.864c4.722,0,8.551-3.829,8.551-8.551v-17.102H33.67z"/>
<path style="fill:#D9DCDF;" d="M384.267,409.921H127.733c-4.722,0-8.551-3.829-8.551-8.551V230.347c0-4.722,3.829-8.551,8.551-8.551
	h256.534c4.722,0,8.551,3.829,8.551,8.551V401.37C392.818,406.092,388.99,409.921,384.267,409.921z"/>
<path style="fill:#B3B9BF;" d="M136.284,392.818V221.795h-8.551c-4.722,0-8.551,3.829-8.551,8.551V401.37
	c0,4.722,3.829,8.551,8.551,8.551h256.534c4.722,0,8.551-3.829,8.551-8.551v-8.551H136.284z"/>
<path style="fill:#7B848F;" d="M384.267,221.795H127.733c-4.722,0-8.551,3.829-8.551,8.551v34.205h273.637v-34.205
	C392.818,225.624,388.99,221.795,384.267,221.795z"/>
<circle style="fill:#FFC44F;" cx="256" cy="315.858" r="59.858"/>
<circle style="fill:#3C9FE8;" cx="256" cy="315.858" r="34.205"/>
<path style="fill:#FFC44F;" d="M298.756,187.591h51.307c4.722,0,8.551,3.829,8.551,8.551v25.653h-68.409v-25.653
	C290.205,191.42,294.033,187.591,298.756,187.591z"/>
<rect x="290.205" y="204.821" style="fill:#F79F4D;" width="68.409" height="16.969"/>
<circle style="fill:#97CCE8;" cx="264.551" cy="307.307" r="8.551"/>
<path d="M495.432,136.818h-26.188V59.324c0-4.428-3.589-8.017-8.017-8.017h-68.409c-4.427,0-8.017,3.588-8.017,8.017
	s3.589,8.017,8.017,8.017h60.392v69.478h-308.91v-34.739c0-9.136-7.432-16.568-16.568-16.568H58.789V67.34h299.825
	c4.427,0,8.017-3.588,8.017-8.017s-3.589-8.017-8.017-8.017H50.772c-4.427,0-8.017,3.588-8.017,8.017v26.188H16.568
	C7.432,85.511,0,92.944,0,102.079v94.063c0,4.428,3.589,8.017,8.017,8.017s8.017-3.588,8.017-8.017v-94.063
	c0-0.294,0.239-0.534,0.534-0.534h111.165c0.295,0,0.534,0.241,0.534,0.534v42.756c0,4.428,3.589,8.017,8.017,8.017h359.148
	c0.295,0,0.534,0.241,0.534,0.534v290.739c0,0.294-0.239,0.534-0.534,0.534H16.568c-0.295,0-0.534-0.241-0.534-0.534V230.347
	c0-4.428-3.589-8.017-8.017-8.017S0,225.918,0,230.347v213.779c0,9.136,7.432,16.568,16.568,16.568h478.864
	c9.136,0,16.568-7.432,16.568-16.568V153.386C512,144.25,504.568,136.818,495.432,136.818z"/>
<path d="M119.182,367.699c-4.427,0-8.017,3.588-8.017,8.017v25.653c0,9.136,7.432,16.568,16.568,16.568h256.534
	c9.136,0,16.568-7.432,16.568-16.568V230.347c0-9.136-7.432-16.568-16.568-16.568H366.63v-17.637
	c0-9.136-7.432-16.568-16.568-16.568h-51.307c-9.136,0-16.568,7.432-16.568,16.568v17.637H127.733
	c-9.136,0-16.568,7.432-16.568,16.568v119.716c0,4.428,3.589,8.017,8.017,8.017c4.427,0,8.017-3.588,8.017-8.017v-77.495h76.567
	c-9.761,11.758-15.64,26.85-15.64,43.29c0,15.83,5.462,30.399,14.581,41.956l-12.232,12.232c-2.919,2.919-3.113,7.74-0.426,10.878
	c2.997,3.501,8.503,3.72,11.763,0.461l12.232-12.232c11.558,9.118,26.127,14.58,41.957,14.58c37.426,0,67.875-30.448,67.875-67.875
	c0-16.441-5.879-31.532-15.64-43.29h76.567V401.37c0,0.294-0.239,0.534-0.534,0.534H127.733c-0.295,0-0.534-0.24-0.534-0.534
	v-25.653C127.198,371.288,123.609,367.699,119.182,367.699z M298.221,196.142c0-0.294,0.239-0.534,0.534-0.534h51.307
	c0.295,0,0.534,0.241,0.534,0.534v17.637h-52.376V196.142z M256,367.699c-28.585,0-51.841-23.256-51.841-51.841
	c0-28.585,23.256-51.841,51.841-51.841s51.841,23.256,51.841,51.841C307.841,344.443,284.585,367.699,256,367.699z M289.136,256.534
	c-0.064,0-0.126,0.009-0.19,0.01c-9.763-5.445-20.995-8.561-32.945-8.561c-11.95,0-23.182,3.116-32.945,8.561
	c-0.064-0.001-0.126-0.01-0.19-0.01h-95.666v-26.188c0-0.294,0.239-0.534,0.534-0.534h162.472h68.409h25.653
	c0.295,0,0.534,0.241,0.534,0.534v26.188H289.136z"/>
<path d="M256,273.637c-23.28,0-42.221,18.941-42.221,42.221c0,23.281,18.941,42.221,42.221,42.221
	c23.281,0,42.221-18.941,42.221-42.221C298.221,292.578,279.281,273.637,256,273.637z M256,342.046
	c-14.44,0-26.188-11.747-26.188-26.188c0-14.441,11.748-26.188,26.188-26.188c14.44,0,26.188,11.747,26.188,26.188
	C282.188,330.299,270.44,342.046,256,342.046z"/>
<path d="M170.489,212.71c4.427,0,8.017-3.588,8.017-8.017s-3.589-8.017-8.017-8.017h-17.102c-4.427,0-8.017,3.588-8.017,8.017
	s3.589,8.017,8.017,8.017H170.489z"/>
<g>
</g>
<g>
</g>
<g>
</g>
<g>
</g>
<g>
</g>
<g>
</g>
<g>
</g>
<g>
</g>
<g>
</g>
<g>
</g>
<g>
</g>
<g>
</g>
<g>
</g>
<g>
</g>
<g>
</g>
</svg>
