<?xml version="1.0" encoding="iso-8859-1"?>
<!-- Generator: Adobe Illustrator 19.0.0, SVG Export Plug-In . SVG Version: 6.00 Build 0)  -->
<svg version="1.1" id="Layer_1" xmlns="http://www.w3.org/2000/svg" xmlns:xlink="http://www.w3.org/1999/xlink" x="0px" y="0px"
	 viewBox="0 0 512 512" style="enable-background:new 0 0 512 512;" xml:space="preserve">
<path style="fill:#ECEDEF;" d="M106.324,8.017c-9.446,0-17.102,7.656-17.102,17.102v461.762c0,9.446,7.656,17.102,17.102,17.102
	h376.251c9.446,0,17.102-7.656,17.102-17.102V84.977l-76.96-76.96H106.324z"/>
<path style="fill:#D9DCDF;" d="M439.818,84.977h59.858l-76.96-76.96v59.858C422.715,77.319,430.373,84.977,439.818,84.977z"/>
<path style="fill:#C6CACF;" d="M397.063,196.142H89.222V42.221h307.841c4.722,0,8.551,3.829,8.551,8.551v136.818
	C405.614,192.313,401.785,196.142,397.063,196.142z"/>
<polygon style="fill:#FFC44F;" points="388.512,179.04 12.261,179.04 80.67,110.63 12.261,42.221 388.512,42.221 "/>
<g>
	<rect x="166.181" y="221.795" style="fill:#A1A7AF;" width="34.205" height="34.205"/>
	<rect x="388.511" y="221.795" style="fill:#A1A7AF;" width="34.205" height="34.205"/>
</g>
<path d="M499.677,426.489c4.428,0,8.017-3.589,8.017-8.017V84.977c0-2.1-0.862-4.184-2.347-5.668l-76.96-76.96
	C426.899,0.863,424.817,0,422.716,0H106.324C92.473,0,81.205,11.268,81.205,25.119v9.086H12.261c-6.987,0-10.615,8.738-5.669,13.685
	l62.741,62.741L6.592,173.371c-4.946,4.947-1.319,13.685,5.669,13.685h68.944v299.825c0,13.851,11.268,25.119,25.119,25.119h376.251
	c13.851,0,25.119-11.268,25.119-25.119v-34.205c0-4.427-3.588-8.017-8.017-8.017s-8.017,3.589-8.017,8.017v34.205
	c0,5.01-4.076,9.086-9.086,9.086H106.324c-5.01,0-9.086-4.076-9.086-9.086V187.056h51.841c4.428,0,8.017-3.589,8.017-8.017
	s-3.588-8.017-8.017-8.017H31.615l54.724-54.724c3.131-3.131,3.131-8.207,0-11.337L31.615,50.238h348.88v120.785H183.284
	c-4.428,0-8.017,3.589-8.017,8.017s3.588,8.017,8.017,8.017h205.228c4.428,0,8.017-3.589,8.017-8.017V42.221
	c0-4.427-3.588-8.017-8.017-8.017H97.238v-9.086c0-5.01,4.076-9.086,9.086-9.086H414.7v51.841c0,13.851,11.268,25.119,25.119,25.119
	h51.841v325.478C491.66,422.9,495.248,426.489,499.677,426.489z M439.819,76.96c-5.01,0-9.086-4.076-9.086-9.086V27.37l49.589,49.59
	H439.819z"/>
<path d="M207.992,138.819l9.497-28.49l9.497,28.49c1.439,4.315,6.333,6.582,10.563,4.915c3.906-1.539,5.973-6.009,4.648-9.986
	l-17.102-51.307c-1.091-3.274-4.155-5.481-7.605-5.481c-3.45,0-6.515,2.208-7.605,5.481l-17.102,51.307
	c-1.4,4.201,0.869,8.74,5.07,10.141C202.051,145.287,206.591,143.018,207.992,138.819z"/>
<path d="M268.261,136.284V84.977c0-4.427-3.588-8.017-8.017-8.017s-8.017,3.589-8.017,8.017v51.307c0,4.427,3.588,8.017,8.017,8.017
	S268.261,140.711,268.261,136.284z"/>
<path d="M413.334,264.017h9.383c4.428,0,8.017-3.589,8.017-8.017v-34.205c0-4.427-3.588-8.017-8.017-8.017h-34.205
	c-4.428,0-8.017,3.589-8.017,8.017V256c0,4.427,3.588,8.017,8.017,8.017h8.756c-3.474,44.902-35.856,82.652-80.033,92.593
	c-3.996-8.591-12.704-14.564-22.786-14.564c-10.087,0-18.8,5.979-22.792,14.579c-44.23-9.936-76.567-47.597-80.028-92.608h8.757
	c4.428,0,8.017-3.589,8.017-8.017v-34.205c0-4.427-3.588-8.017-8.017-8.017h-34.205c-4.428,0-8.017,3.589-8.017,8.017V256
	c0,4.427,3.588,8.017,8.017,8.017h9.381c2.68,40.294,25.374,75.622,59.048,95.132h-34.225c-4.428,0-8.017,3.589-8.017,8.017
	c0,4.427,3.588,8.017,8.017,8.017h70.263c3.354,9.93,12.752,17.102,23.8,17.102c11.048,0,20.446-7.172,23.8-17.102h70.263
	c4.428,0,8.017-3.589,8.017-8.017c0-4.427-3.588-8.017-8.017-8.017h-34.304C387.894,339.614,410.643,304.231,413.334,264.017z
	 M396.528,229.812H414.7v18.171h-18.171V229.812z M174.199,229.812h18.171v18.171h-18.171V229.812z M294.449,376.251
	c-5.01,0-9.086-4.076-9.086-9.086s4.076-9.086,9.086-9.086s9.086,4.076,9.086,9.086S299.458,376.251,294.449,376.251z"/>
<polygon style="fill:#DB6B5E;" points="343.154,467.38 323.659,394.622 396.416,414.117 357.485,428.448 "/>
<path d="M343.155,475.397c-0.121,0-0.244-0.002-0.367-0.009c-3.49-0.158-6.475-2.559-7.379-5.933l-19.494-72.757
	c-0.741-2.766,0.049-5.719,2.074-7.743c2.027-2.026,4.979-2.815,7.744-2.075l72.757,19.496c3.373,0.904,5.774,3.89,5.933,7.38
	c0.159,3.49-1.96,6.681-5.239,7.887l-35.457,13.052l-13.052,35.456C349.513,473.312,346.501,475.397,343.155,475.397z
	 M334.995,405.959l9.362,34.941l5.603-15.222c0.811-2.205,2.549-3.942,4.753-4.753l15.222-5.603L334.995,405.959z"/>
<g>
</g>
<g>
</g>
<g>
</g>
<g>
</g>
<g>
</g>
<g>
</g>
<g>
</g>
<g>
</g>
<g>
</g>
<g>
</g>
<g>
</g>
<g>
</g>
<g>
</g>
<g>
</g>
<g>
</g>
</svg>
