<?xml version="1.0" encoding="iso-8859-1"?>
<!-- Generator: Adobe Illustrator 19.0.0, SVG Export Plug-In . SVG Version: 6.00 Build 0)  -->
<svg version="1.1" id="Layer_1" xmlns="http://www.w3.org/2000/svg" xmlns:xlink="http://www.w3.org/1999/xlink" x="0px" y="0px"
	 viewBox="0 0 512 512" style="enable-background:new 0 0 512 512;" xml:space="preserve">
<path style="fill:#ECEDEF;" d="M106.324,8.017c-9.446,0-17.102,7.656-17.102,17.102v461.762c0,9.446,7.656,17.102,17.102,17.102
	h376.251c9.446,0,17.102-7.656,17.102-17.102V84.977l-76.96-76.96H106.324z"/>
<path style="fill:#D9DCDF;" d="M439.819,84.977h59.858l-76.96-76.96v59.858C422.717,77.319,430.373,84.977,439.819,84.977z"/>
<path style="fill:#C6CACF;" d="M397.063,196.142H89.222V42.221h307.841c4.722,0,8.551,3.829,8.551,8.551v136.818
	C405.615,192.313,401.786,196.142,397.063,196.142z"/>
<polygon style="fill:#DB6B5E;" points="388.512,179.04 12.262,179.04 80.671,110.63 12.262,42.221 388.512,42.221 "/>
<path style="fill:#3C9FE8;" d="M414.166,461.228H174.734c-4.722,0-8.551-3.829-8.551-8.551v-222.33c0-4.722,3.829-8.551,8.551-8.551
	h239.432c4.722,0,8.551,3.829,8.551,8.551v222.33C422.717,457.399,418.888,461.228,414.166,461.228z"/>
<path style="fill:#C4DF64;" d="M166.182,376.429l59.858-85.511l77.495,119.716l59.324-59.858l59.858,59.858v42.043
	c0,4.722-3.829,8.551-8.551,8.551H174.734c-4.722,0-8.551-3.829-8.551-8.551L166.182,376.429L166.182,376.429z"/>
<g>
	<polygon style="fill:#ECEDEF;" points="362.859,350.776 312.716,401.37 413.453,401.37 	"/>
	<polygon style="fill:#ECEDEF;" points="226.04,290.918 172.667,367.165 275.397,367.165 	"/>
</g>
<path style="fill:#8AC451;" d="M166.182,435.574v17.102c0,4.722,3.829,8.551,8.551,8.551h239.432c4.722,0,8.551-3.829,8.551-8.551
	v-17.102H166.182z"/>
<circle style="fill:#FFC44F;" cx="294.449" cy="290.921" r="25.653"/>
<path d="M499.677,426.489c4.427,0,8.017-3.589,8.017-8.017V84.977c0-2.1-0.863-4.184-2.348-5.668l-76.96-76.96
	C426.899,0.863,424.817,0,422.716,0H106.323C92.473,0,81.204,11.268,81.204,25.119v9.086H12.261c-6.987,0-10.616,8.738-5.668,13.685
	l62.741,62.741l-62.74,62.741c-4.947,4.947-1.32,13.685,5.668,13.685h68.944v299.825c0,13.851,11.268,25.119,25.119,25.119h376.251
	c13.851,0,25.119-11.268,25.119-25.119v-34.205c0-4.427-3.589-8.017-8.017-8.017c-4.427,0-8.017,3.589-8.017,8.017v34.205
	c0,5.01-4.076,9.086-9.086,9.086H106.324c-5.01,0-9.086-4.076-9.086-9.086V187.056h51.841c4.427,0,8.017-3.589,8.017-8.017
	s-3.589-8.017-8.017-8.017H31.615l54.724-54.724c3.131-3.131,3.131-8.207,0-11.337L31.615,50.238h348.88v120.785H183.285
	c-4.427,0-8.017,3.589-8.017,8.017s3.589,8.017,8.017,8.017h205.228c4.427,0,8.017-3.589,8.017-8.017V42.221
	c0-4.427-3.589-8.017-8.017-8.017H97.239v-9.086c0-5.01,4.076-9.086,9.086-9.086H414.7v51.841c0,13.851,11.268,25.119,25.119,25.119
	h51.841v325.478C491.66,422.9,495.25,426.489,499.677,426.489z M430.732,67.875V27.37l49.59,49.59h-40.505
	C434.808,76.96,430.732,72.885,430.732,67.875z"/>
<path d="M174.734,469.244h239.432c9.136,0,16.568-7.432,16.568-16.568v-42.043V230.347c0-9.136-7.432-16.568-16.568-16.568H174.734
	c-9.136,0-16.568,7.432-16.568,16.568v146.082v76.247C158.166,461.812,165.598,469.244,174.734,469.244z M414.7,452.676
	c0,0.295-0.239,0.534-0.534,0.534H174.734c-0.295,0-0.534-0.239-0.534-0.534v-73.721l51.558-73.654l70.5,109.667
	c2.719,4.231,8.85,4.898,12.412,1.334l54.19-54.19l51.841,51.841V452.676z M174.734,229.812h239.432
	c0.295,0,0.534,0.239,0.534,0.534v160.933l-46.173-46.173c-3.131-3.131-8.207-3.131-11.337,0l-52.825,52.825l-71.582-111.349
	c-3.031-4.714-10.098-4.853-13.311-0.262l-45.274,64.677v-120.65C174.199,230.052,174.439,229.812,174.734,229.812z"/>
<path d="M294.45,324.588c18.566,0,33.67-15.105,33.67-33.67s-15.105-33.67-33.67-33.67c-18.566,0-33.67,15.105-33.67,33.67
	C260.779,309.483,275.884,324.588,294.45,324.588z M294.45,273.281c9.725,0,17.637,7.912,17.637,17.637s-7.912,17.637-17.637,17.637
	c-9.725,0-17.637-7.912-17.637-17.637S284.725,273.281,294.45,273.281z"/>
<path d="M208.938,264.73h17.102c4.427,0,8.017-3.589,8.017-8.017c0-4.427-3.589-8.017-8.017-8.017h-17.102
	c-4.427,0-8.017,3.589-8.017,8.017C200.921,261.14,204.511,264.73,208.938,264.73z"/>
<path d="M354.308,298.934h17.102c4.427,0,8.017-3.589,8.017-8.017s-3.589-8.017-8.017-8.017h-17.102
	c-4.427,0-8.017,3.589-8.017,8.017S349.88,298.934,354.308,298.934z"/>
<path d="M363.393,316.571c0,4.427,3.589,8.017,8.017,8.017h17.102c4.427,0,8.017-3.589,8.017-8.017c0-4.427-3.589-8.017-8.017-8.017
	H371.41C366.983,308.554,363.393,312.143,363.393,316.571z"/>
<path d="M311.552,92.994c4.427,0,8.017-3.589,8.017-8.017c0-4.427-3.589-8.017-8.017-8.017h-34.205
	c-4.427,0-8.017,3.589-8.017,8.017v51.307c0,4.427,3.589,8.017,8.017,8.017h34.205c4.427,0,8.017-3.589,8.017-8.017V110.63
	c0-4.427-3.589-8.017-8.017-8.017h-8.551c-4.427,0-8.017,3.589-8.017,8.017c0,4.427,3.589,8.017,8.017,8.017h0.534v9.62h-18.171
	V92.994H311.552z"/>
<path d="M225.506,136.284v-17.655c0.177,0.012,0.355,0.018,0.534,0.018h25.653c4.427,0,8.017-3.589,8.017-8.017V84.977
	c0-4.427-3.589-8.017-8.017-8.017h-34.205c-4.427,0-8.017,3.589-8.017,8.017v51.307c0,4.427,3.589,8.017,8.017,8.017
	C221.917,144.301,225.506,140.711,225.506,136.284z M225.506,92.994h18.171v9.62H226.04c-0.18,0-0.357,0.005-0.534,0.018V92.994z"/>
<path d="M166.182,128.267H149.08c-4.427,0-8.017,3.589-8.017,8.017c0,4.427,3.589,8.017,8.017,8.017h17.102
	c13.851,0,25.119-11.268,25.119-25.119V92.994h0.534c4.427,0,8.017-3.589,8.017-8.017c0-4.427-3.589-8.017-8.017-8.017h-25.653
	c-4.427,0-8.017,3.589-8.017,8.017c0,4.427,3.589,8.017,8.017,8.017h9.086v26.188C175.268,124.192,171.192,128.267,166.182,128.267z
	"/>
<g>
</g>
<g>
</g>
<g>
</g>
<g>
</g>
<g>
</g>
<g>
</g>
<g>
</g>
<g>
</g>
<g>
</g>
<g>
</g>
<g>
</g>
<g>
</g>
<g>
</g>
<g>
</g>
<g>
</g>
</svg>
