<?xml version="1.0" encoding="iso-8859-1"?>
<!-- Generator: Adobe Illustrator 19.0.0, SVG Export Plug-In . SVG Version: 6.00 Build 0)  -->
<svg version="1.1" id="Layer_1" xmlns="http://www.w3.org/2000/svg" xmlns:xlink="http://www.w3.org/1999/xlink" x="0px" y="0px"
	 viewBox="0 0 512 512" style="enable-background:new 0 0 512 512;" xml:space="preserve">
<path style="fill:#ECEDEF;" d="M106.324,8.017c-9.446,0-17.102,7.656-17.102,17.102v461.762c0,9.446,7.656,17.102,17.102,17.102
	h376.251c9.446,0,17.102-7.656,17.102-17.102V84.977l-76.96-76.96H106.324z"/>
<path style="fill:#D9DCDF;" d="M439.818,84.977h59.858l-76.96-76.96v59.858C422.715,77.319,430.373,84.977,439.818,84.977z"/>
<path style="fill:#C6CACF;" d="M397.063,196.142H89.222V42.221h307.841c4.722,0,8.551,3.829,8.551,8.551v136.818
	C405.614,192.313,401.785,196.142,397.063,196.142z"/>
<polygon style="fill:#F79F4D;" points="388.512,179.04 12.261,179.04 80.67,110.63 12.261,42.221 388.512,42.221 "/>
<path d="M499.677,426.489c4.428,0,8.017-3.589,8.017-8.017V84.977c0-2.1-0.862-4.184-2.347-5.668l-76.96-76.96
	C426.899,0.863,424.817,0,422.716,0H106.324C92.473,0,81.205,11.268,81.205,25.119v9.086H12.261c-6.987,0-10.615,8.738-5.669,13.685
	l62.741,62.741L6.592,173.371c-4.946,4.947-1.319,13.685,5.669,13.685h68.944v299.825c0,13.851,11.268,25.119,25.119,25.119h376.251
	c13.851,0,25.119-11.268,25.119-25.119v-34.205c0-4.427-3.588-8.017-8.017-8.017s-8.017,3.589-8.017,8.017v34.205
	c0,5.01-4.076,9.086-9.086,9.086H106.324c-5.01,0-9.086-4.076-9.086-9.086V187.056h51.841c4.428,0,8.017-3.589,8.017-8.017
	s-3.588-8.017-8.017-8.017H31.615l54.724-54.724c3.131-3.131,3.131-8.207,0-11.337L31.615,50.238h348.88v120.785H183.284
	c-4.428,0-8.017,3.589-8.017,8.017s3.588,8.017,8.017,8.017h205.228c4.428,0,8.017-3.589,8.017-8.017V42.221
	c0-4.427-3.588-8.017-8.017-8.017H97.238v-9.086c0-5.01,4.076-9.086,9.086-9.086H414.7v51.841c0,13.851,11.268,25.119,25.119,25.119
	h51.841v325.478C491.66,422.9,495.248,426.489,499.677,426.489z M439.819,76.96c-5.01,0-9.086-4.076-9.086-9.086V27.37l49.589,49.59
	H439.819z"/>
<path d="M303,144.301c3.451,0,6.515-2.208,7.605-5.481l17.102-51.307c1.381-4.144-0.926-8.76-5.07-10.141
	c-4.145-1.381-8.759,0.927-10.141,5.071L303,110.933l-9.497-28.49c-1.382-4.145-5.995-6.453-10.141-5.071
	c-4.144,1.382-6.451,5.995-5.07,10.141l17.102,51.307C296.485,142.092,299.549,144.301,303,144.301z"/>
<path d="M242.196,138.819l9.497-28.49l9.497,28.49c1.439,4.315,6.333,6.582,10.563,4.915c3.906-1.539,5.973-6.009,4.648-9.986
	l-17.102-51.307c-1.078-3.237-4.194-5.481-7.605-5.481c-3.412,0-6.527,2.245-7.605,5.481l-17.102,51.307
	c-1.381,4.144,0.926,8.76,5.07,10.141C236.2,145.27,240.814,142.962,242.196,138.819z"/>
<path d="M173.352,139.869l9.932-19.863l9.932,19.863c3.131,6.263,12.565,5.583,14.775-1.05l17.102-51.307
	c1.4-4.201-0.869-8.74-5.07-10.141c-4.204-1.399-8.741,0.87-10.141,5.071l-10.982,32.945l-8.446-16.894
	c-2.897-5.793-11.444-5.793-14.34,0l-8.446,16.894l-10.982-32.945c-1.401-4.201-5.939-6.472-10.141-5.071
	c-4.201,1.4-6.47,5.94-5.07,10.141l17.102,51.307C160.786,145.452,170.221,146.13,173.352,139.869z"/>
<path d="M141.063,375.716c0,4.427,3.588,8.017,8.017,8.017h42.756c2.523,0,4.9-1.188,6.413-3.207l15.195-20.261l13.322,59.946
	c0.817,3.675,4.198,6.334,7.959,6.277c3.76-0.058,7.053-2.844,7.745-6.538l17.097-91.184l18.413,116.61
	c0.616,3.899,4.103,6.824,8.048,6.765c3.943-0.059,7.337-3.112,7.825-7.022l17.868-142.942l17.535,134.435
	c0.498,3.823,3.771,6.814,7.623,6.972c3.85,0.158,7.357-2.563,8.165-6.33l17.17-80.126l9.861,54.228
	c0.601,3.304,3.29,5.941,6.604,6.478c3.423,0.555,6.903-1.224,8.454-4.327l14.887-29.773h37.8c4.428,0,8.017-3.589,8.017-8.017
	c0-4.427-3.588-8.017-8.017-8.017h-42.756c-3.037,0-5.813,1.716-7.17,4.432l-6.347,12.693l-12.801-70.401
	c-0.681-3.746-4.021-6.547-7.825-6.582c-3.757-0.034-7.115,2.666-7.901,6.336l-15.89,74.159L319.5,237.861
	c-0.515-3.947-3.979-6.985-7.96-6.98c-3.988,0.005-7.449,3.066-7.944,7.023l-18.621,148.974l-16.813-106.475
	c-0.608-3.853-3.903-6.709-7.804-6.765c-3.895-0.057-7.276,2.704-7.994,6.538l-18.441,98.346l-8.611-38.748
	c-1.455-6.543-10.207-8.444-14.239-3.071L187.825,367.7h-38.747C144.651,367.699,141.063,371.289,141.063,375.716z"/>
<g>
</g>
<g>
</g>
<g>
</g>
<g>
</g>
<g>
</g>
<g>
</g>
<g>
</g>
<g>
</g>
<g>
</g>
<g>
</g>
<g>
</g>
<g>
</g>
<g>
</g>
<g>
</g>
<g>
</g>
</svg>
