<?xml version="1.0" encoding="iso-8859-1"?>
<!-- Generator: Adobe Illustrator 19.0.0, SVG Export Plug-In . SVG Version: 6.00 Build 0)  -->
<svg version="1.1" id="Layer_1" xmlns="http://www.w3.org/2000/svg" xmlns:xlink="http://www.w3.org/1999/xlink" x="0px" y="0px"
	 viewBox="0 0 512 512" style="enable-background:new 0 0 512 512;" xml:space="preserve">
<path style="fill:#ECEDEF;" d="M106.324,8.017c-9.446,0-17.102,7.656-17.102,17.102v461.762c0,9.446,7.656,17.102,17.102,17.102
	h376.251c9.446,0,17.102-7.656,17.102-17.102V84.977l-76.96-76.96H106.324z"/>
<path style="fill:#D9DCDF;" d="M439.819,84.977h59.858l-76.96-76.96v59.858C422.716,77.319,430.373,84.977,439.819,84.977z"/>
<path style="fill:#C6CACF;" d="M397.063,196.142H89.222V42.221h307.841c4.722,0,8.551,3.829,8.551,8.551v136.818
	C405.614,192.313,401.785,196.142,397.063,196.142z"/>
<polygon style="fill:#C4DF64;" points="388.512,179.04 12.261,179.04 80.67,110.63 12.261,42.221 388.512,42.221 "/>
<path style="fill:#FFC44F;" d="M226.04,452.676h153.921v-85.511H226.04c-18.891,0-34.205,15.314-34.205,34.205v17.102
	C191.835,437.362,207.149,452.676,226.04,452.676z"/>
<path style="fill:#FFD791;" d="M226.04,435.574c-9.43,0-17.102-7.673-17.102-17.102V401.37c0-9.43,7.673-17.102,17.102-17.102
	h153.921v51.307H226.04z"/>
<path style="fill:#FFC44F;" d="M226.04,367.165h153.921v-85.512H226.04c-18.891,0-34.205,15.314-34.205,34.205v17.102
	C191.835,351.851,207.149,367.165,226.04,367.165z"/>
<path style="fill:#FFD791;" d="M226.04,350.063c-9.43,0-17.102-7.673-17.102-17.102v-17.102c0-9.43,7.673-17.102,17.102-17.102
	h153.921v51.307H226.04z"/>
<path d="M499.677,426.489c4.428,0,8.017-3.589,8.017-8.017V84.977c0-2.1-0.862-4.183-2.347-5.668l-76.96-76.96
	C426.9,0.863,424.817,0,422.716,0H106.324C92.473,0,81.205,11.268,81.205,25.119v9.086H12.261c-6.987,0-10.616,8.738-5.668,13.685
	l62.74,62.741l-62.74,62.741c-4.947,4.947-1.32,13.685,5.668,13.685h68.944v299.825c0,13.851,11.268,25.119,25.119,25.119h376.251
	c13.851,0,25.119-11.268,25.119-25.119v-34.205c0-4.427-3.588-8.017-8.017-8.017c-4.428,0-8.017,3.589-8.017,8.017v34.205
	c0,5.01-4.076,9.086-9.086,9.086H106.324c-5.01,0-9.086-4.076-9.086-9.086V187.056h51.841c4.427,0,8.017-3.589,8.017-8.017
	s-3.589-8.017-8.017-8.017H31.615l54.724-54.724c3.131-3.131,3.131-8.207,0-11.337L31.615,50.238h348.88v120.785H183.284
	c-4.427,0-8.017,3.589-8.017,8.017s3.589,8.017,8.017,8.017h205.228c4.428,0,8.017-3.589,8.017-8.017V42.221
	c0-4.427-3.588-8.017-8.017-8.017H97.238v-9.086c0-5.01,4.076-9.086,9.086-9.086H414.7v51.841c0,13.851,11.268,25.119,25.119,25.119
	h51.841v325.478C491.66,422.9,495.248,426.489,499.677,426.489z M439.819,76.96c-5.01,0-9.086-4.076-9.086-9.086V27.37l49.589,49.59
	H439.819z"/>
<path d="M199.852,110.63V84.977c0-4.427-3.589-8.017-8.017-8.017h-34.205c-4.427,0-8.017,3.589-8.017,8.017v51.307
	c0,4.427,3.589,8.017,8.017,8.017s8.017-3.589,8.017-8.017v-17.655c0.177,0.012,0.355,0.018,0.534,0.018h4.261l14.722,22.083
	c2.615,3.922,8.22,4.721,11.833,1.687c3.087-2.591,3.741-7.23,1.507-10.581l-8.792-13.189h2.123
	C196.263,118.647,199.852,115.058,199.852,110.63z M165.647,102.632v-9.638h18.171v9.62h-9.041c-0.002,0-0.004,0-0.005,0h-8.59
	C166.002,102.614,165.824,102.619,165.647,102.632z"/>
<path d="M319.568,110.63V84.977c0-4.427-3.588-8.017-8.017-8.017h-34.205c-4.428,0-8.017,3.589-8.017,8.017v51.307
	c0,4.427,3.588,8.017,8.017,8.017s8.017-3.589,8.017-8.017v-17.655c0.176,0.012,0.355,0.018,0.534,0.018h4.261l14.722,22.083
	c2.615,3.922,8.22,4.721,11.833,1.687c3.086-2.591,3.741-7.23,1.507-10.581l-8.792-13.189h2.123
	C315.979,118.647,319.568,115.058,319.568,110.63z M285.363,102.632v-9.638h18.171v9.62h-9.041c-0.002,0-0.004,0-0.005,0h-8.59
	C285.718,102.614,285.54,102.619,285.363,102.632z"/>
<path d="M225.094,138.819l9.497-28.49l9.497,28.49c1.439,4.315,6.333,6.582,10.563,4.915c3.906-1.539,5.973-6.009,4.648-9.986
	l-17.102-51.307c-1.091-3.274-4.155-5.481-7.605-5.481c-3.45,0-6.514,2.208-7.605,5.481l-17.102,51.307
	c-1.4,4.201,0.87,8.74,5.071,10.141C219.154,145.288,223.694,143.019,225.094,138.819z"/>
<path d="M387.977,289.67h9.086c4.428,0,8.017-3.589,8.017-8.017c0-4.427-3.588-8.017-8.017-8.017h-60.038
	c2.9-0.812,5.329-1.72,7.009-2.731c11.868-7.142,15.711-22.607,8.568-34.475c-7.144-11.867-22.61-15.708-34.476-8.566
	c-6.397,3.851-16.552,17.993-23.676,28.728c-7.124-10.735-17.28-24.876-23.676-28.728c-11.869-7.143-27.334-3.299-34.476,8.567
	c-7.143,11.867-3.3,27.332,8.567,34.475c1.679,1.011,4.11,1.919,7.01,2.731h-25.833c-23.281,0-42.221,18.941-42.221,42.221v17.102
	c0,14.059,6.914,26.527,17.513,34.205c-10.599,7.678-17.513,20.145-17.513,34.205v17.102c0,23.28,18.941,42.221,42.221,42.221
	h171.023c4.428,0,8.017-3.589,8.017-8.017c0-4.427-3.588-8.017-8.017-8.017h-9.086v-69.478h9.086c4.428,0,8.017-3.589,8.017-8.017
	c0-4.427-3.588-8.017-8.017-8.017h-9.086V289.67H387.977z M371.944,419.006h-69.478v-18.171h69.478V419.006z M371.944,384.802
	h-69.478v-9.62h69.478V384.802z M302.466,359.148v-9.62h69.478v9.62H302.466z M302.466,333.495v-18.171h69.478v18.171H302.466z
	 M371.944,299.29h-69.478v-9.62h69.478V299.29z M326.394,241.601c4.243-2.553,9.92-1.137,12.471,3.099
	c2.583,4.293,1.193,9.886-3.098,12.47c-2.694,1.602-13.514,3.432-25.58,4.792C317.035,251.936,323.716,243.232,326.394,241.601z
	 M249,251.576c-0.585-2.356-0.218-4.797,1.034-6.877c2.549-4.235,8.226-5.653,12.469-3.099c2.677,1.629,9.359,10.335,16.208,20.361
	c-12.062-1.359-22.883-3.189-25.579-4.793C251.053,255.918,249.585,253.931,249,251.576z M199.852,332.96v-17.102
	c0-14.44,11.748-26.188,26.188-26.188h60.393v9.62h-51.841c-4.427,0-8.017,3.589-8.017,8.017c0,4.427,3.589,8.017,8.017,8.017
	h51.841v18.171h-51.841c-4.427,0-8.017,3.589-8.017,8.017c0,4.427,3.589,8.017,8.017,8.017h51.841v9.62H226.04
	C211.6,359.148,199.852,347.4,199.852,332.96z M199.852,418.472V401.37c0-14.44,11.748-26.188,26.188-26.188h60.393v9.62h-51.841
	c-4.427,0-8.017,3.589-8.017,8.017c0,4.427,3.589,8.017,8.017,8.017h51.841v18.171h-51.841c-4.427,0-8.017,3.589-8.017,8.017
	c0,4.427,3.589,8.017,8.017,8.017h51.841v9.62H226.04C211.6,444.66,199.852,432.911,199.852,418.472z M302.466,444.66v-9.62h69.478
	v9.62H302.466z"/>
<g>
</g>
<g>
</g>
<g>
</g>
<g>
</g>
<g>
</g>
<g>
</g>
<g>
</g>
<g>
</g>
<g>
</g>
<g>
</g>
<g>
</g>
<g>
</g>
<g>
</g>
<g>
</g>
<g>
</g>
</svg>
