<?xml version="1.0" encoding="iso-8859-1"?>
<!-- Generator: Adobe Illustrator 19.0.0, SVG Export Plug-In . SVG Version: 6.00 Build 0)  -->
<svg version="1.1" id="Capa_1" xmlns="http://www.w3.org/2000/svg" xmlns:xlink="http://www.w3.org/1999/xlink" x="0px" y="0px"
	 viewBox="0 0 512 512" style="enable-background:new 0 0 512 512;" xml:space="preserve">
<polygon style="fill:#45C1FF;" points="304.094,504.485 207.906,504.485 207.906,488.454 223.937,408.297 288.063,408.297 
	304.094,488.454 "/>
<polygon style="fill:#14A5FF;" points="288.063,408.297 223.937,408.297 219.128,432.344 292.872,432.344 "/>
<polygon style="fill:#C3EBFF;" points="74.433,87.671 7.515,87.671 7.515,344.172 504.485,344.172 504.485,87.671 277.254,87.671 
	"/>
<polygon style="fill:#99C4FF;" points="74.433,87.671 7.515,87.671 7.515,111.718 504.485,111.718 504.485,87.671 277.254,87.671 
	"/>
<rect id="SVGCleanerId_0" x="7.515" y="344.172" style="fill:#48A5DA;" width="496.971" height="64.125"/>
<g>
	<rect id="SVGCleanerId_0_1_" x="7.515" y="344.172" style="fill:#48A5DA;" width="496.971" height="64.125"/>
</g>
<rect x="7.515" y="345.174" style="fill:#48A5DA;" width="496.971" height="64.125"/>
<rect x="7.515" y="345.174" style="fill:#45C1FF;" width="496.971" height="64.125"/>
<rect x="7.515" y="345.174" style="fill:#14A5FF;" width="496.971" height="23.045"/>
<path style="fill:#FFF6DA;" d="M280.047,111.718c0-57.55-46.653-104.204-104.204-104.204S71.64,54.168,71.64,111.718
	c0,37.173,19.468,69.794,48.761,88.238l55.442,72.075l55.442-72.075C260.579,181.513,280.047,148.891,280.047,111.718z
	 M280.047,111.718c0-57.55-46.653-104.204-104.204-104.204S71.64,54.168,71.64,111.718c0,37.173,19.468,69.794,48.761,88.238
	l55.442,72.075l55.442-72.075C260.579,181.513,280.047,148.891,280.047,111.718z"/>
<path style="fill:#FFD045;" d="M223.937,207.906v-52.102c0-11.068-8.972-20.039-20.039-20.039h-56.11
	c-11.068,0-20.039,8.972-20.039,20.039v52.102l48.094,64.125L223.937,207.906z"/>
<path style="fill:#FFB831;" d="M135.765,143.781c0-1.359,0.035-2.709,0.096-4.053c-4.914,3.652-8.112,9.484-8.112,16.076v52.102
	l48.094,64.125l31.267-41.689C166.464,222.487,135.765,186.722,135.765,143.781z"/>
<circle style="fill:#FFD045;" cx="175.843" cy="71.64" r="32.063"/>
<path style="fill:#FFB831;" d="M199.89,87.671c-17.708,0-32.063-14.355-32.063-32.063c0-5.744,1.518-11.13,4.163-15.793
	c-15.89,1.905-28.21,15.421-28.21,31.824c0,17.708,14.355,32.063,32.063,32.063c11.964,0,22.39-6.558,27.899-16.27
	C202.479,87.584,201.195,87.671,199.89,87.671z"/>
<path style="fill:#A1DBFF;" d="M399.326,260.533l-6.774,3.424l-6.804-3.363c-35.216-17.405-57.572-53.215-57.748-92.497l0,0
	l63.981-32.334l64.267,31.763l0,0C456.422,206.808,434.384,242.815,399.326,260.533z"/>
<path style="fill:#00C70D;" d="M395.223,246.418l-2.671,1.541l-2.684-1.518c-33.124-18.725-53.671-53.765-53.841-91.813
	l-0.011-2.564l55.965-32.298l56.251,31.799l0.011,2.564C448.413,192.178,428.177,227.399,395.223,246.418z"/>
<path style="fill:#00A90B;" d="M414.056,230.435c-33.124-18.725-53.671-53.765-53.84-91.813l-0.002-0.522l-24.197,13.964
	l0.011,2.564c0.169,38.049,20.717,73.089,53.84,91.813l2.684,1.518l2.671-1.541c7.428-4.286,14.202-9.402,20.25-15.183
	L414.056,230.435z"/>
<polygon style="fill:#45C1FF;" points="207.906,264.016 239.969,264.016 239.969,312.11 111.718,312.11 111.718,264.016 
	143.781,264.016 "/>
<path d="M512,127.75V80.157H283.015C269.362,33.876,226.487,0,175.843,0S82.325,33.876,68.672,80.157H0v335.656h47.593v-15.029
	H15.029v-49.096h481.941v49.096H63.624v15.029h151.147l-14.38,71.897v9.261h-24.548V512h160.313v-15.029h-24.548v-9.261
	l-14.38-71.897H512V143.781h-15.029v192.877H15.029V95.186h50.321c-0.804,5.397-1.225,10.915-1.225,16.532
	c0,38.17,19.085,73.156,51.123,93.864l57.666,74.965h-5.086v15.029h16.031v-15.029h-5.086l57.666-74.965
	c32.038-20.708,51.123-55.695,51.123-93.864c0-5.617-0.422-11.136-1.225-16.532h210.634v32.564H512z M296.579,496.971h-81.159
	v-7.772l14.677-73.386h51.804l14.678,73.386V496.971z M216.423,206.953l-40.579,52.753l-40.579-52.753v-51.149
	c0-6.906,5.618-12.524,12.524-12.524h56.11c6.906,0,12.524,5.618,12.524,12.524V206.953z M231.452,190.808v-35.003
	c0-15.194-12.361-27.554-27.554-27.554h-56.11c-15.193,0-27.554,12.36-27.554,27.554v35.003
	c-25.811-18.138-41.08-47.337-41.08-79.089c0-53.314,43.375-96.689,96.689-96.689s96.689,43.375,96.689,96.689
	C272.532,143.47,257.263,172.669,231.452,190.808z"/>
<g>
	<rect x="135.765" y="280.548" style="fill:#FFFFFF;" width="16.031" height="15.029"/>
	<rect x="199.89" y="280.548" style="fill:#FFFFFF;" width="16.031" height="15.029"/>
</g>
<polygon points="247.483,319.624 104.204,319.624 104.204,256.501 143.781,256.501 143.781,271.53 119.233,271.53 119.233,304.595 
	232.454,304.595 232.454,271.53 207.906,271.53 207.906,256.501 247.483,256.501 "/>
<rect x="38.245" y="255.499" width="16.031" height="15.029"/>
<rect x="239.969" y="368.72" width="32.063" height="15.029"/>
<g>
	<rect x="288.063" y="368.72" style="fill:#FFFFFF;" width="16.031" height="15.029"/>
	<rect x="207.906" y="368.72" style="fill:#FFFFFF;" width="16.031" height="15.029"/>
</g>
<path d="M392.591,256.613l-6.421-3.628c-35.384-20.003-57.477-57.678-57.659-98.323l-0.031-6.926l63.462-36.625l63.785,36.057
	l0.031,6.926c0.181,40.646-21.576,78.516-56.78,98.833l0,0L392.591,256.613z M343.566,156.383
	c0.775,34.176,19.378,65.711,48.948,82.914c29.415-17.464,47.737-49.165,48.208-83.347L392.02,128.42L343.566,156.383z"/>
<g>
	<polygon style="fill:#FFFFFF;" points="393.08,203.315 370.92,181.157 381.549,170.53 391.453,180.434 410.301,155.303 
		422.325,164.321 	"/>
	<rect x="272.031" y="192.376" style="fill:#FFFFFF;" width="16.031" height="15.029"/>
</g>
<rect x="304.094" y="224.438" width="16.031" height="15.029"/>
<rect x="312.11" y="272.532" style="fill:#FFFFFF;" width="40.078" height="15.029"/>
<rect x="368.219" y="272.532" width="88.172" height="15.029"/>
<rect x="312.11" y="304.595" width="80.157" height="15.029"/>
<rect x="408.297" y="304.595" style="fill:#FFFFFF;" width="48.094" height="15.029"/>
<rect x="55.609" y="208.407" width="16.031" height="15.029"/>
<path d="M175.843,111.217c-21.823,0-39.577-17.755-39.577-39.577s17.755-39.577,39.577-39.577s39.577,17.755,39.577,39.577
	S197.666,111.217,175.843,111.217z M175.843,47.092c-13.536,0-24.548,11.013-24.548,24.548s11.012,24.548,24.548,24.548
	s24.548-11.013,24.548-24.548S189.38,47.092,175.843,47.092z"/>
<g>
	<rect x="167.828" y="160.313" style="fill:#FFFFFF;" width="16.031" height="15.029"/>
	<rect x="167.828" y="192.376" style="fill:#FFFFFF;" width="16.031" height="15.029"/>
</g>
<g>
</g>
<g>
</g>
<g>
</g>
<g>
</g>
<g>
</g>
<g>
</g>
<g>
</g>
<g>
</g>
<g>
</g>
<g>
</g>
<g>
</g>
<g>
</g>
<g>
</g>
<g>
</g>
<g>
</g>
</svg>
