<?xml version="1.0" encoding="iso-8859-1"?>
<!-- Generator: Adobe Illustrator 19.0.0, SVG Export Plug-In . SVG Version: 6.00 Build 0)  -->
<svg version="1.1" id="Capa_1" xmlns="http://www.w3.org/2000/svg" xmlns:xlink="http://www.w3.org/1999/xlink" x="0px" y="0px"
	 viewBox="0 0 512 512" style="enable-background:new 0 0 512 512;" xml:space="preserve">
<path style="fill:#00C70D;" d="M346.176,312.11H165.824c-12.174,0-22.043-9.869-22.043-22.043v-20.039
	c0-12.174,9.869-22.043,22.043-22.043h180.352c12.174,0,22.043,9.869,22.043,22.043v20.039
	C368.219,302.24,358.35,312.11,346.176,312.11z"/>
<path style="fill:#00A90B;" d="M346.176,272.031H165.824c-11.498,0-20.935,8.805-21.948,20.039c-0.059-0.66-0.095-1.328-0.095-2.004
	v-20.039c0-12.174,9.869-22.043,22.043-22.043h180.352c12.174,0,22.043,9.869,22.043,22.043v20.039c0,0.676-0.035,1.344-0.095,2.004
	C367.111,280.836,357.675,272.031,346.176,272.031z"/>
<circle style="fill:#FFD045;" cx="256" cy="178.529" r="24.047"/>
<polygon style="fill:#45C1FF;" points="472.423,480.438 39.577,480.438 31.562,472.423 31.562,424.329 39.577,416.313 
	472.423,416.313 480.438,424.329 480.438,472.423 "/>
<polygon style="fill:#14A5FF;" points="39.577,416.313 31.562,424.329 31.562,432.344 39.577,440.36 472.423,440.36 
	480.438,432.344 480.438,424.329 472.423,416.313 "/>
<rect x="231.953" y="416.313" style="fill:#00C70D;" width="32.063" height="64.125"/>
<g>
	<polygon style="fill:#0F7CBF;" points="111.718,504.485 63.624,504.485 55.609,480.438 119.734,480.438 	"/>
	<polygon style="fill:#0F7CBF;" points="448.376,504.485 400.282,504.485 392.266,480.438 456.391,480.438 	"/>
</g>
<path style="fill:#FFD045;" d="M95.687,392.266H71.64V268.023c0-6.64,5.384-12.023,12.023-12.023l0,0
	c6.64,0,12.023,5.383,12.023,12.023V392.266z"/>
<polygon style="fill:#00C70D;" points="103.703,392.266 63.624,392.266 55.609,400.282 55.609,416.313 111.718,416.313 
	111.718,400.282 "/>
<path style="fill:#FFD045;" d="M440.36,392.266h-24.047V268.023c0-6.64,5.383-12.023,12.023-12.023l0,0
	c6.64,0,12.023,5.383,12.023,12.023V392.266z"/>
<polygon style="fill:#00C70D;" points="448.376,392.266 408.297,392.266 400.282,400.282 400.282,416.313 456.391,416.313 
	456.391,400.282 "/>
<rect x="199.89" y="416.313" style="fill:#FFD045;" width="32.063" height="64.125"/>
<path d="M346.176,319.624H165.824c-16.299,0-29.558-13.259-29.558-29.558v-20.039c0-16.299,13.259-29.558,29.558-29.558h180.352
	c16.299,0,29.558,13.259,29.558,29.558v20.039C375.734,306.365,362.475,319.624,346.176,319.624z M165.824,255.499
	c-8.011,0-14.528,6.518-14.528,14.528v20.039c0,8.011,6.518,14.528,14.528,14.528h180.352c8.011,0,14.528-6.518,14.528-14.528
	v-20.039c0-8.011-6.518-14.528-14.528-14.528H165.824z"/>
<path d="M378.789,67.986C346.551,33.836,302.944,15.029,256,15.029c-46.942,0-90.548,18.807-122.786,52.954l-10.928-10.317
	c17.01-18.018,37.085-32.198,59.668-42.145C205.335,5.222,230.248,0,256,0s50.666,5.222,74.049,15.522
	c22.583,9.947,42.658,24.128,59.67,42.146L378.789,67.986z"/>
<path d="M157.898,113.465l-12.204-8.773C171.173,69.252,212.409,48.094,256,48.094c43.592,0,84.828,21.157,110.305,56.597
	l-12.204,8.773C331.44,81.942,294.767,63.123,256,63.123S180.56,81.942,157.898,113.465z"/>
<path d="M193.072,147.543l-13.009-7.526c15.639-27.035,44.736-43.83,75.937-43.83c31.2,0,60.297,16.794,75.936,43.827l-13.009,7.527
	c-12.962-22.406-37.074-36.324-62.927-36.324C230.147,111.217,206.033,125.136,193.072,147.543z"/>
<path d="M256,210.092c-17.403,0-31.562-14.159-31.562-31.562s14.159-31.562,31.562-31.562s31.562,14.159,31.562,31.562
	S273.403,210.092,256,210.092z M256,161.998c-9.116,0-16.532,7.416-16.532,16.532s7.416,16.532,16.532,16.532
	c9.116,0,16.532-7.416,16.532-16.532S265.116,161.998,256,161.998z"/>
<g>
	<rect x="71.64" y="440.861" style="fill:#FFFFFF;" width="16.031" height="15.029"/>
	<rect x="151.796" y="440.861" style="fill:#FFFFFF;" width="16.031" height="15.029"/>
</g>
<rect x="103.703" y="440.861" width="32.063" height="15.029"/>
<rect x="296.078" y="440.861" width="16.031" height="15.029"/>
<rect x="328.141" y="440.861" style="fill:#FFFFFF;" width="16.031" height="15.029"/>
<rect x="360.204" y="440.861" width="16.031" height="15.029"/>
<rect x="392.266" y="440.861" style="fill:#FFFFFF;" width="16.031" height="15.029"/>
<rect x="424.329" y="440.861" width="16.031" height="15.029"/>
<path d="M475.535,408.798h-11.629V397.17l-12.418-12.418h-3.613V268.023c0-10.773-8.765-19.538-19.538-19.538
	c-10.773,0-19.538,8.765-19.538,19.538v116.728h-3.613l-12.418,12.418v11.629H119.233V397.17l-12.418-12.418h-3.613V268.023
	c0-10.773-8.765-19.538-19.538-19.538s-19.538,8.765-19.538,19.538v36.07h15.029v-36.07c0-2.486,2.023-4.509,4.509-4.509
	c2.486,0,4.509,2.023,4.509,4.509v116.728h-9.018v-64.626H64.125v64.626h-3.613L48.094,397.17v11.629h-11.63l-12.417,12.418v54.318
	l12.418,12.418h13.728L58.209,512h58.927l8.016-24.047h219.021v-15.029H271.53v-49.096h192.376h5.405l3.613,3.613v41.869
	l-3.613,3.614h-2.493H360.204v15.029h26.647L394.866,512h58.926l8.016-24.047h13.728l12.417-12.418v-54.319L475.535,408.798z
	 M63.123,403.394l3.613-3.613h33.853l3.613,3.613v5.405H63.123V403.394z M106.302,496.971H69.041l-3.006-9.018h43.273
	L106.302,496.971z M45.182,472.924h-2.493l-3.613-3.613v-41.869l3.614-3.614h149.685v49.096H45.182z M207.405,472.924v-49.096
	h17.033v49.096H207.405z M256.501,472.924h-17.033v-49.096h17.033V472.924z M423.828,268.023c0-2.486,2.023-4.509,4.509-4.509
	c2.486,0,4.509,2.023,4.509,4.509v116.728h-9.018V268.023z M407.796,408.798v-5.405l3.613-3.613h33.853l3.613,3.613v5.405H407.796z
	 M442.96,496.971h-37.262l-3.006-9.018h43.274L442.96,496.971z"/>
<g>
	<rect x="183.859" y="272.532" style="fill:#FFFFFF;" width="16.031" height="15.029"/>
	<rect x="215.922" y="272.532" style="fill:#FFFFFF;" width="16.031" height="15.029"/>
	<rect x="247.984" y="272.532" style="fill:#FFFFFF;" width="16.031" height="15.029"/>
	<rect x="280.047" y="272.532" style="fill:#FFFFFF;" width="16.031" height="15.029"/>
	<rect x="312.11" y="272.532" style="fill:#FFFFFF;" width="16.031" height="15.029"/>
</g>
<g>
</g>
<g>
</g>
<g>
</g>
<g>
</g>
<g>
</g>
<g>
</g>
<g>
</g>
<g>
</g>
<g>
</g>
<g>
</g>
<g>
</g>
<g>
</g>
<g>
</g>
<g>
</g>
<g>
</g>
</svg>
