<?xml version="1.0" encoding="iso-8859-1"?>
<!-- Generator: Adobe Illustrator 19.0.0, SVG Export Plug-In . SVG Version: 6.00 Build 0)  -->
<svg version="1.1" id="Capa_1" xmlns="http://www.w3.org/2000/svg" xmlns:xlink="http://www.w3.org/1999/xlink" x="0px" y="0px"
	 viewBox="0 0 512 512" style="enable-background:new 0 0 512 512;" xml:space="preserve">
<rect x="7.515" y="111.718" style="fill:#FFE5D4;" width="496.971" height="352.689"/>
<rect x="7.515" y="47.593" style="fill:#FD7D28;" width="496.971" height="64.125"/>
<rect x="7.515" y="47.593" style="fill:#FD5900;" width="496.971" height="24.047"/>
<polygon style="fill:#FECBA9;" points="246.381,376.235 265.619,376.235 352.188,320.741 400.282,167.828 400.282,135.765 
	111.718,135.765 111.718,167.828 159.812,320.741 "/>
<polygon style="fill:#FD7D28;" points="247.984,360.204 264.016,360.204 336.157,312.11 376.235,167.828 376.235,151.796 
	135.765,151.796 135.765,167.828 175.843,312.11 "/>
<polygon style="fill:#FD5900;" points="135.765,151.796 135.765,167.828 137.992,175.843 374.008,175.843 376.235,167.828 
	376.235,151.796 "/>
<g>
	<rect x="239.969" y="183.859" style="fill:#FFD045;" width="32.063" height="80.157"/>
	<path style="fill:#FFD045;" d="M256,320.125L256,320.125c-8.854,0-16.031-7.177-16.031-16.031l0,0
		c0-8.854,7.177-16.031,16.031-16.031l0,0c8.854,0,16.031,7.177,16.031,16.031l0,0C272.031,312.948,264.854,320.125,256,320.125z"/>
	<path style="fill:#FFD045;" d="M442.364,416.313h-36.07c-3.32,0-6.012-2.691-6.012-6.012v-44.086c0-3.32,2.691-6.012,6.012-6.012
		h36.07c3.32,0,6.012,2.691,6.012,6.012v44.086C448.376,413.622,445.684,416.313,442.364,416.313z"/>
	<path style="fill:#FFD045;" d="M105.706,416.313h-36.07c-3.32,0-6.012-2.691-6.012-6.012v-44.086c0-3.32,2.691-6.012,6.012-6.012
		h36.07c3.32,0,6.012,2.691,6.012,6.012v44.086C111.718,413.622,109.027,416.313,105.706,416.313z"/>
</g>
<g>
	<rect x="167.828" y="176.344" style="fill:#FFFFFF;" width="16.031" height="15.029"/>
	<rect x="328.141" y="176.344" style="fill:#FFFFFF;" width="16.031" height="15.029"/>
</g>
<polygon points="71.64,40.078 71.64,55.108 496.971,55.108 496.971,104.204 15.029,104.204 15.029,55.108 55.609,55.108 
	55.609,40.078 0,40.078 0,471.922 448.376,471.922 448.376,456.892 15.029,456.892 15.029,119.233 496.971,119.233 496.971,456.892 
	464.407,456.892 464.407,471.922 512,471.922 512,40.078 "/>
<rect x="39.577" y="72.141" width="16.031" height="15.029"/>
<g>
	<rect x="448.376" y="72.141" style="fill:#FFFFFF;" width="16.031" height="15.029"/>
	<rect x="71.64" y="72.141" style="fill:#FFFFFF;" width="16.031" height="15.029"/>
</g>
<rect x="103.703" y="72.141" width="16.031" height="15.029"/>
<path d="M479.937,383.75v-23.546h-15.029v8.517h-9.018v-2.505c0-6.174-4.162-11.383-9.824-12.998
	c1.163-2.786,1.809-5.841,1.809-9.045v-8.016h-15.029v8.016c0,4.696-3.82,8.517-8.517,8.517c-4.696,0-8.517-3.82-8.517-8.517v-8.016
	h-15.029v8.016c0,3.203,0.645,6.258,1.809,9.045c-5.662,1.615-9.824,6.825-9.824,12.998v2.505h-9.018v-8.517H368.72v23.546h24.047
	v9.018H368.72v23.546h15.029v-8.517h9.018v2.505c0,7.459,6.068,13.526,13.526,13.526h36.07c7.459,0,13.526-6.068,13.526-13.526
	v-2.505h9.018v8.517h15.029v-23.546H455.89v-9.018H479.937z M440.861,408.798h-9.018v-16.532h-15.029v16.532h-9.018v-41.08h33.065
	V408.798z"/>
<path d="M128.25,368.72h-9.018v-2.505c0-6.174-4.162-11.383-9.824-12.998c1.163-2.786,1.809-5.841,1.809-9.045v-8.016H96.188v8.016
	c0,4.696-3.82,8.517-8.517,8.517s-8.517-3.82-8.517-8.517v-8.016H64.125v8.016c0,3.203,0.645,6.258,1.809,9.045
	c-5.662,1.615-9.824,6.824-9.824,12.998v2.505h-9.018v-8.517H32.063v23.546H56.11v9.018H32.063v23.546h15.029v-8.517h9.018v2.505
	c0,7.459,6.068,13.526,13.526,13.526h36.07c7.459,0,13.526-6.068,13.526-13.526v-2.505h9.018v8.517h15.029v-23.546h-24.047v-9.018
	h24.047v-23.546H128.25V368.72z M104.204,408.798h-9.018v-16.532H80.157v16.532h-9.018v-41.08h33.065V408.798z"/>
<rect x="191.875" y="384.751" width="128.25" height="15.029"/>
<g>
	<rect x="191.875" y="416.814" style="fill:#FFFFFF;" width="40.078" height="15.029"/>
	<rect x="247.984" y="416.814" style="fill:#FFFFFF;" width="72.141" height="15.029"/>
	<rect x="416.313" y="192.376" style="fill:#FFFFFF;" width="16.031" height="15.029"/>
</g>
<rect x="448.376" y="240.47" width="16.031" height="15.029"/>
<rect x="384.25" y="280.548" width="16.031" height="15.029"/>
<path d="M279.546,271.53h-47.092v-95.186h47.092V271.53z M247.483,256.501h17.033v-65.127h-17.033V256.501z"/>
<path d="M256,327.64c-12.983,0-23.546-10.563-23.546-23.546s10.563-23.546,23.546-23.546s23.546,10.563,23.546,23.546
	S268.983,327.64,256,327.64z M256,295.577c-4.696,0-8.517,3.82-8.517,8.517c0,4.696,3.82,8.517,8.517,8.517s8.517-3.82,8.517-8.517
	C264.517,299.398,260.696,295.577,256,295.577z"/>
<path d="M266.291,367.718h-20.582l-76.358-50.905l-41.1-147.961v-24.57H383.75v24.57l-41.1,147.96L266.291,367.718z M250.26,352.689
	h11.48l67.924-45.282l39.056-140.603v-7.493H143.28v7.493l39.056,140.604L250.26,352.689z"/>
<rect x="79.656" y="192.376" width="16.031" height="15.029"/>
<rect x="47.593" y="240.47" style="fill:#FFFFFF;" width="16.031" height="15.029"/>
<rect x="111.718" y="280.548" width="16.031" height="15.029"/>
<g>
</g>
<g>
</g>
<g>
</g>
<g>
</g>
<g>
</g>
<g>
</g>
<g>
</g>
<g>
</g>
<g>
</g>
<g>
</g>
<g>
</g>
<g>
</g>
<g>
</g>
<g>
</g>
<g>
</g>
</svg>
