<?xml version="1.0" encoding="iso-8859-1"?>
<!-- Generator: Adobe Illustrator 19.0.0, SVG Export Plug-In . SVG Version: 6.00 Build 0)  -->
<svg version="1.1" id="Capa_1" xmlns="http://www.w3.org/2000/svg" xmlns:xlink="http://www.w3.org/1999/xlink" x="0px" y="0px"
	 viewBox="0 0 512 512" style="enable-background:new 0 0 512 512;" xml:space="preserve">
<circle style="fill:#45C1FF;" cx="256" cy="256" r="192.376"/>
<g>
	<path style="fill:#14A5FF;" d="M256,408.297c99.478,0,181.318-75.507,191.341-172.337c0.681,6.587,1.035,13.272,1.035,20.039
		c0,106.247-86.129,192.376-192.376,192.376S63.624,362.247,63.624,256c0-6.767,0.354-13.452,1.035-20.039
		C74.682,332.79,156.522,408.297,256,408.297z"/>
	<path style="fill:#14A5FF;" d="M256,103.703c99.478,0,181.318,75.507,191.341,172.337c0.681-6.587,1.035-13.272,1.035-20.039
		c0-106.247-86.129-192.376-192.376-192.376S63.624,149.753,63.624,256c0,6.767,0.354,13.452,1.035,20.039
		C74.682,179.21,156.522,103.703,256,103.703z"/>
</g>
<g>
	<circle style="fill:#FFD045;" cx="47.593" cy="23.546" r="16.031"/>
	<circle style="fill:#FFD045;" cx="464.407" cy="488.454" r="16.031"/>
</g>
<path style="fill:#DAF3FF;" d="M256,63.624C174.965,100.089,119.734,172.549,119.734,256S174.965,411.911,256,448.376
	C337.035,411.91,392.266,339.451,392.266,256S337.035,100.089,256,63.624z"/>
<g>
	<path style="fill:#A1DBFF;" d="M256,111.718c73.143,32.913,125.256,95.153,134.714,168.329c1.021-7.896,1.552-15.919,1.552-24.047
		c0-83.451-55.231-155.911-136.266-192.376C174.965,100.089,119.734,172.549,119.734,256c0,8.128,0.531,16.151,1.552,24.047
		C130.744,206.871,182.857,144.631,256,111.718z"/>
	<path style="fill:#A1DBFF;" d="M256,400.282c73.143-32.913,125.256-95.153,134.714-168.329c1.021,7.896,1.552,15.919,1.552,24.047
		c0,83.451-55.231,155.911-136.266,192.376C174.965,411.91,119.734,339.451,119.734,256c0-8.128,0.531-16.151,1.552-24.047
		C130.744,305.129,182.857,367.368,256,400.282z"/>
</g>
<path style="fill:#45C1FF;" d="M256.585,352.188c-24.919,0-47.624-9.477-64.71-25.021c11.276,52.351,34.625,95.638,64.71,121.209
	c30.085-25.571,53.434-68.857,64.71-121.209C304.209,342.711,281.504,352.188,256.585,352.188z"/>
<path style="fill:#14A5FF;" d="M256,409.271c19.663-16.714,36.448-40.998,48.866-70.433c5.678-3.357,10.993-7.26,15.844-11.672
	c-11.276,52.351-34.626,95.638-64.71,121.209c-30.085-25.571-53.434-68.857-64.71-121.209c4.85,4.413,10.166,8.315,15.844,11.672
	C219.552,368.273,236.337,392.558,256,409.271z"/>
<path style="fill:#45C1FF;" d="M256,159.812c24.919,0,47.624,9.477,64.71,25.021C309.434,132.482,286.085,89.195,256,63.624
	c-30.085,25.571-53.434,68.857-64.71,121.209C208.376,169.289,231.081,159.812,256,159.812z"/>
<path style="fill:#14A5FF;" d="M256,102.729c19.663,16.714,36.448,40.998,48.866,70.433c5.678,3.357,10.993,7.26,15.844,11.672
	C309.434,132.482,286.085,89.195,256,63.624c-30.085,25.571-53.434,68.857-64.71,121.209c4.85-4.413,10.166-8.315,15.844-11.672
	C219.552,143.727,236.337,119.442,256,102.729z"/>
<ellipse style="fill:#FFD045;" cx="256.501" cy="256" rx="96.689" ry="96.188"/>
<path style="fill:#FFB831;" d="M256.496,191.875c47.906,0,87.666,34.666,95.339,80.157c0.88-5.214,1.345-10.569,1.345-16.031
	c0-53.124-43.287-96.188-96.684-96.188S159.812,202.876,159.812,256c0,5.463,0.465,10.817,1.345,16.031
	C168.829,226.54,208.589,191.875,256.496,191.875z"/>
<polygon style="fill:#FFE3AD;" points="312.11,239.969 272.031,239.969 272.031,199.89 239.969,199.89 239.969,239.969 
	199.89,239.969 199.89,272.031 239.969,272.031 239.969,312.11 272.031,312.11 272.031,272.031 312.11,272.031 "/>
<path d="M479.12,322.108l-14.497-3.967c0.705-2.578,1.373-5.19,1.983-7.765c0.61-2.576,1.183-5.189,1.701-7.765l14.734,2.965
	c-0.552,2.742-1.161,5.525-1.812,8.267C480.581,316.584,479.87,319.365,479.12,322.108z"/>
<path d="M485.791,289.045l-14.9-1.965c0.341-2.581,0.641-5.196,0.895-7.769c0.251-2.561,0.465-5.174,0.634-7.766l14.998,0.979
	c-0.18,2.756-0.407,5.535-0.675,8.258C486.472,283.52,486.153,286.299,485.791,289.045z"/>
<path d="M487.953,256h-15.029c0-57.956-22.356-112.44-62.948-153.413c-40.573-40.956-94.514-63.511-151.885-63.511V24.047
	c61.412,0,119.144,24.136,162.561,67.963C464.052,135.817,487.953,194.057,487.953,256z"/>
<path d="M44.694,209.388l-14.734-2.965c0.552-2.744,1.161-5.527,1.812-8.267c0.651-2.745,1.361-5.528,2.11-8.265l14.497,3.967
	c-0.704,2.573-1.372,5.186-1.983,7.766C45.785,204.199,45.213,206.81,44.694,209.388z"/>
<path d="M40.583,240.455l-14.998-0.979c0.18-2.753,0.407-5.532,0.675-8.259c0.27-2.736,0.589-5.517,0.951-8.262l14.9,1.963
	c-0.341,2.583-0.641,5.198-0.895,7.77C40.966,235.251,40.752,237.865,40.583,240.455z"/>
<path d="M254.911,495.969c-61.462,0-119.227-25.005-162.654-70.409c-43.341-45.313-67.208-105.535-67.208-169.573h15.029
	c0,60.15,22.388,116.682,63.04,159.185c40.564,42.41,94.472,65.767,151.792,65.767V495.969z"/>
<path d="M279.546,319.624h-47.092v-40.078h-40.078v-47.092h40.078v-40.078h47.092v40.078h40.078v47.092h-40.078V319.624z
	 M247.483,304.595h17.033v-40.078h40.078v-17.033h-40.078v-40.078h-17.033v40.078h-40.078v17.033h40.078V304.595z"/>
<path d="M464.407,464.908c-10.356,0-19.165,6.723-22.31,16.031h-74.379v-59.188c5.128-3.454,10.111-7.145,14.917-11.085
	c35.088-28.759,59.559-68.903,68.911-113.032l-14.703-3.115c-2.487,11.735-6.149,23.157-10.851,34.122h-40.213
	c8.228-20.706,12.986-42.609,13.854-65.127h41.058c-0.209,5.232-0.619,10.456-1.261,15.602l14.914,1.859
	c1.025-8.226,1.546-16.629,1.546-24.977c0-109.012-87.719-197.909-196.278-199.844c-0.801-0.017-1.601-0.024-2.403-0.031
	c-0.4-0.002-0.797-0.015-1.197-0.015c-0.008,0-0.016,0-0.024,0c-0.064,0-0.128,0.002-0.193,0.002c-0.077,0-0.154-0.002-0.231-0.002
	c-5.447,0-10.867,0.237-16.252,0.693c-0.182,0.015-0.366,0.03-0.548,0.046c-0.915,0.08-1.829,0.167-2.742,0.261
	c-0.641,0.063-1.283,0.128-1.922,0.198c-0.103,0.012-0.205,0.024-0.308,0.036c-48.545,5.389-92.522,28.241-124.603,62.891H55.108
	V45.856c9.308-3.144,16.031-11.953,16.031-22.31C71.139,10.563,60.576,0,47.593,0S24.047,10.563,24.047,23.546
	c0,10.355,6.723,19.164,16.031,22.31v89.409h56.505c-15.63,20.621-27.419,44.518-34.176,70.769l14.555,3.745
	c2.351-9.132,5.369-17.951,8.98-26.421h40.279c-8.228,20.706-12.986,42.609-13.854,65.127H71.292
	c0.315-7.831,1.117-15.642,2.403-23.306l-14.822-2.485C57.039,233.628,56.11,244.833,56.11,256
	c0,108.945,87.611,197.801,196.077,199.842c0.968,0.021,1.938,0.031,2.908,0.037c0.303,0.001,0.603,0.012,0.906,0.012
	c0.05,0,0.1-0.001,0.151-0.001c0.059,0,0.117,0.001,0.176,0.001c6.948,0,13.852-0.38,20.693-1.119
	c0.208-0.022,0.418-0.042,0.626-0.064c0.566-0.063,1.131-0.134,1.697-0.203c25.759-3.043,50.708-11.078,73.344-23.57v65.034h89.409
	c3.144,9.308,11.953,16.031,22.31,16.031c12.983,0,23.546-10.563,23.546-23.546S477.39,464.908,464.407,464.908z M47.593,32.063
	c-4.696,0-8.517-3.82-8.517-8.517s3.82-8.517,8.517-8.517s8.517,3.82,8.517,8.517S52.289,32.063,47.593,32.063z M385.779,183.358
	h40.181c8.639,20.133,13.805,42.091,14.733,65.127h-41.06C398.766,225.967,394.008,204.065,385.779,183.358z M418.713,168.329
	h-39.621c-9.499-19.249-22.086-37.266-37.414-53.529c6.53-3.293,12.897-6.973,19.076-11.029
	C384.8,120.37,404.742,142.505,418.713,168.329z M290.697,337.599c-0.506,0.214-1.014,0.424-1.523,0.629
	c-0.695,0.282-1.395,0.555-2.099,0.819c-0.762,0.285-1.524,0.563-2.293,0.827c-0.434,0.149-0.871,0.293-1.309,0.436
	c-0.922,0.3-1.847,0.589-2.778,0.859c-0.236,0.069-0.473,0.138-0.71,0.205c-1.097,0.308-2.2,0.593-3.31,0.859
	c-0.158,0.038-0.315,0.079-0.473,0.116c-1.18,0.276-2.369,0.524-3.562,0.751c-0.156,0.03-0.313,0.061-0.469,0.09
	c-1.194,0.22-2.395,0.416-3.6,0.587c-0.162,0.023-0.325,0.046-0.487,0.068c-1.207,0.165-2.42,0.307-3.636,0.422
	c-0.16,0.015-0.322,0.029-0.483,0.043c-1.23,0.11-2.465,0.198-3.704,0.257c-0.128,0.006-0.258,0.009-0.386,0.015
	c-1.288,0.056-2.579,0.089-3.875,0.089s-2.586-0.034-3.875-0.089c-0.128-0.005-0.258-0.009-0.386-0.015
	c-1.238-0.059-2.474-0.147-3.704-0.257c-0.161-0.014-0.323-0.028-0.483-0.043c-1.216-0.116-2.429-0.257-3.636-0.422
	c-0.162-0.022-0.325-0.045-0.487-0.068c-1.205-0.171-2.406-0.367-3.6-0.587c-0.156-0.029-0.313-0.06-0.469-0.09
	c-1.193-0.227-2.382-0.476-3.562-0.751c-0.158-0.037-0.316-0.078-0.473-0.116c-1.109-0.266-2.213-0.551-3.31-0.859
	c-0.237-0.067-0.474-0.136-0.71-0.205c-0.932-0.27-1.858-0.559-2.778-0.859c-0.438-0.143-0.875-0.287-1.309-0.436
	c-0.769-0.264-1.532-0.542-2.293-0.827c-0.705-0.265-1.405-0.538-2.101-0.82c-0.509-0.205-1.016-0.414-1.52-0.628
	c-31.7-13.529-53.975-45.011-53.975-81.599c0-36.587,22.275-68.068,53.974-81.599c0.507-0.215,1.017-0.425,1.528-0.631
	c0.694-0.282,1.393-0.554,2.096-0.818c0.761-0.285,1.524-0.563,2.293-0.827c0.434-0.149,0.871-0.293,1.309-0.436
	c0.922-0.3,1.847-0.589,2.778-0.859c0.236-0.069,0.473-0.138,0.71-0.205c1.097-0.308,2.2-0.593,3.31-0.859
	c0.158-0.038,0.315-0.079,0.473-0.116c1.18-0.276,2.369-0.524,3.562-0.751c0.156-0.03,0.313-0.061,0.469-0.09
	c1.194-0.22,2.395-0.416,3.6-0.587c0.162-0.023,0.325-0.046,0.487-0.068c1.207-0.165,2.42-0.307,3.636-0.422
	c0.16-0.015,0.322-0.029,0.483-0.043c1.23-0.11,2.465-0.198,3.704-0.258c0.128-0.006,0.258-0.009,0.386-0.015
	c1.288-0.056,2.579-0.089,3.875-0.089s2.586,0.034,3.875,0.089c0.128,0.005,0.257,0.009,0.386,0.015
	c1.238,0.059,2.474,0.147,3.704,0.258c0.161,0.014,0.323,0.028,0.483,0.043c1.216,0.116,2.429,0.256,3.636,0.422
	c0.162,0.022,0.325,0.045,0.487,0.068c1.205,0.171,2.406,0.367,3.6,0.587c0.156,0.029,0.313,0.06,0.469,0.09
	c1.193,0.227,2.382,0.476,3.562,0.751c0.158,0.037,0.316,0.078,0.473,0.116c1.109,0.266,2.213,0.551,3.31,0.859
	c0.237,0.067,0.474,0.136,0.71,0.205c0.932,0.27,1.858,0.559,2.778,0.859c0.438,0.143,0.875,0.287,1.309,0.436
	c0.768,0.264,1.532,0.542,2.293,0.827c0.702,0.264,1.4,0.536,2.094,0.817c0.512,0.206,1.023,0.417,1.531,0.632
	c31.697,13.531,53.971,45.012,53.971,81.599S322.398,324.069,290.697,337.599z M308.359,345.529
	c-3.593,12.472-7.907,24.26-12.862,35.239c-12.798-2.671-25.91-4.032-39.171-4.032c-13.466,0-26.778,1.408-39.765,4.161
	c-4.98-11.015-9.313-22.846-12.921-35.368c5.303,3.106,10.867,5.713,16.616,7.823c0.117,0.043,0.235,0.085,0.354,0.128
	c1.973,0.715,3.968,1.374,5.984,1.968c0.514,0.152,1.028,0.303,1.545,0.447c0.426,0.119,0.853,0.234,1.281,0.348
	c0.656,0.174,1.316,0.341,1.976,0.502c0.31,0.075,0.618,0.154,0.929,0.227c0.994,0.232,1.993,0.452,2.998,0.656
	c0.15,0.03,0.303,0.057,0.453,0.087c0.885,0.175,1.773,0.339,2.666,0.492c0.257,0.044,0.514,0.086,0.772,0.128
	c0.853,0.139,1.709,0.269,2.569,0.387c0.197,0.027,0.394,0.057,0.591,0.083c1.065,0.14,2.135,0.268,3.21,0.375
	c0.065,0.006,0.13,0.011,0.195,0.018c0.97,0.095,1.944,0.174,2.921,0.243c0.293,0.021,0.586,0.038,0.88,0.056
	c0.786,0.048,1.573,0.087,2.363,0.118c0.3,0.011,0.598,0.025,0.898,0.034c1.05,0.031,2.102,0.052,3.16,0.052s2.11-0.021,3.16-0.052
	c0.3-0.009,0.598-0.023,0.898-0.034c0.79-0.031,1.577-0.07,2.363-0.118c0.294-0.018,0.586-0.035,0.88-0.056
	c0.977-0.068,1.951-0.147,2.921-0.243c0.065-0.006,0.13-0.011,0.195-0.018c1.075-0.107,2.144-0.234,3.21-0.375
	c0.197-0.026,0.395-0.056,0.591-0.083c0.86-0.118,1.715-0.247,2.569-0.387c0.258-0.042,0.515-0.084,0.772-0.128
	c0.893-0.152,1.781-0.317,2.666-0.492c0.15-0.03,0.303-0.057,0.453-0.087c1.005-0.204,2.004-0.424,2.998-0.656
	c0.311-0.073,0.619-0.152,0.929-0.227c0.661-0.161,1.321-0.328,1.976-0.502c0.428-0.113,0.855-0.228,1.281-0.348
	c0.517-0.144,1.032-0.295,1.545-0.447c2.015-0.595,4.01-1.252,5.984-1.968c0.118-0.043,0.236-0.085,0.354-0.128
	C297.492,351.243,303.056,348.635,308.359,345.529z M182.069,183.358c-16.756,17.05-27.677,39.847-29.497,65.127h-25.163
	c0.946-22.591,6.141-44.531,15.1-65.127H182.069z M149.849,168.329c9.102-16.778,20.794-32.477,34.781-46.687
	c5.604,2.239,11.303,4.21,17.082,5.906c-5.574,12.7-10.333,26.349-14.179,40.782H149.849z M152.572,263.515
	c1.82,25.28,12.741,48.077,29.497,65.127h-39.559c-8.958-20.596-14.155-42.536-15.1-65.127H152.572z M187.533,343.671
	c3.866,14.507,8.654,28.226,14.266,40.983c-5.736,1.706-11.392,3.682-16.953,5.926c-14.083-14.268-25.847-30.044-34.996-46.909
	H187.533z M203.641,166.471c3.591-12.465,7.901-24.246,12.853-35.219c12.766,2.657,25.843,4.012,39.069,4.012
	c13.501,0,26.845-1.416,39.864-4.183c4.984,11.022,9.321,22.86,12.931,35.39c-5.303-3.106-10.867-5.713-16.616-7.823
	c-0.117-0.043-0.235-0.085-0.354-0.128c-1.973-0.715-3.968-1.374-5.984-1.968c-0.514-0.152-1.028-0.303-1.545-0.447
	c-0.426-0.119-0.853-0.234-1.281-0.348c-0.656-0.174-1.316-0.341-1.976-0.502c-0.31-0.075-0.618-0.154-0.929-0.227
	c-0.994-0.232-1.993-0.452-2.998-0.656c-0.15-0.03-0.303-0.057-0.453-0.087c-0.885-0.175-1.773-0.339-2.666-0.492
	c-0.257-0.044-0.514-0.086-0.772-0.128c-0.853-0.139-1.709-0.269-2.569-0.387c-0.197-0.027-0.394-0.057-0.591-0.083
	c-1.065-0.14-2.135-0.268-3.21-0.375c-0.065-0.006-0.13-0.011-0.195-0.018c-0.97-0.095-1.944-0.174-2.921-0.243
	c-0.293-0.021-0.586-0.038-0.88-0.056c-0.786-0.048-1.573-0.087-2.363-0.118c-0.3-0.011-0.598-0.025-0.898-0.034
	c-1.05-0.031-2.102-0.052-3.16-0.052s-2.11,0.021-3.16,0.052c-0.3,0.009-0.598,0.023-0.898,0.034
	c-0.79,0.031-1.577,0.07-2.363,0.118c-0.294,0.018-0.586,0.035-0.88,0.056c-0.977,0.068-1.951,0.147-2.921,0.243
	c-0.065,0.006-0.13,0.011-0.195,0.018c-1.075,0.107-2.144,0.234-3.21,0.375c-0.197,0.026-0.395,0.056-0.591,0.083
	c-0.86,0.118-1.715,0.247-2.569,0.387c-0.258,0.042-0.515,0.084-0.772,0.128c-0.893,0.152-1.781,0.317-2.666,0.492
	c-0.15,0.03-0.303,0.057-0.453,0.087c-1.005,0.204-2.004,0.424-2.998,0.656c-0.311,0.073-0.619,0.152-0.929,0.227
	c-0.661,0.161-1.321,0.328-1.976,0.502c-0.428,0.113-0.855,0.228-1.281,0.348c-0.517,0.144-1.032,0.295-1.545,0.447
	c-2.015,0.595-4.01,1.252-5.984,1.968c-0.118,0.043-0.236,0.085-0.354,0.128C214.508,160.757,208.944,163.365,203.641,166.471z
	 M310.189,127.316c5.73-1.707,11.379-3.685,16.935-5.928c14.098,14.276,25.873,30.063,35.028,46.941h-37.685
	C320.598,153.81,315.806,140.082,310.189,127.316z M324.467,343.671h37.685c-9.109,16.79-20.811,32.501-34.812,46.719
	c-5.598-2.24-11.29-4.212-17.064-5.909C315.855,371.773,320.618,358.114,324.467,343.671z M329.931,328.642
	c16.756-17.05,27.677-39.847,29.497-65.127h25.163c-0.946,22.591-6.141,44.531-15.101,65.127H329.931z M359.428,248.485
	c-1.82-25.28-12.741-48.077-29.497-65.127h39.559c8.959,20.596,14.155,42.536,15.101,65.127H359.428z M345.322,95.687
	c-4.876,2.881-9.869,5.506-14.958,7.892c-11.123-10.325-23.434-19.809-36.824-28.295C311.689,79.282,329.138,86.124,345.322,95.687z
	 M314.94,109.933c-3.734,1.337-7.51,2.548-11.323,3.628c-4.113-7.959-8.571-15.467-13.349-22.47
	C299.026,96.93,307.263,103.228,314.94,109.933z M256,73.703c12.343,11.601,23.297,26.284,32.531,43.416
	c-10.801,2.051-21.824,3.116-32.967,3.116c-10.87,0-21.626-1.017-32.173-2.969C232.641,100.071,243.622,85.336,256,73.703z
	 M208.267,113.782c-3.862-1.075-7.685-2.286-11.467-3.625c7.751-6.789,16.075-13.162,24.933-19.066
	C216.91,98.16,212.412,105.741,208.267,113.782z M218.938,74.986c-13.694,8.639-26.266,18.318-37.598,28.872
	c-5.289-2.458-10.474-5.181-15.535-8.172C182.39,85.887,200.303,78.936,218.938,74.986z M93.164,168.329
	c13.948-25.935,33.789-47.889,57.549-64.333c6.26,4.091,12.716,7.79,19.334,11.1c-15.203,16.186-27.697,34.101-37.139,53.233H93.164
	z M112.366,263.515c0.868,22.518,5.626,44.421,13.854,65.127H86.036c-8.638-20.133-13.806-42.091-14.732-65.127H112.366z
	 M93.287,343.671h39.621c9.492,19.234,22.066,37.239,37.378,53.491c-6.536,3.293-12.91,6.972-19.095,11.028
	C127.17,391.597,107.246,369.476,93.287,343.671z M166.566,416.313c4.899-2.895,9.917-5.532,15.031-7.927
	c11.15,10.353,23.494,19.862,36.922,28.368C200.31,432.762,182.802,425.906,166.566,416.313z M197.027,402.039
	c3.74-1.338,7.522-2.548,11.341-3.628c4.117,7.969,8.58,15.486,13.364,22.498C212.961,415.062,204.714,408.755,197.027,402.039z
	 M256,438.297c-12.348-11.605-23.305-26.295-32.541-43.435c10.769-2.038,21.758-3.098,32.867-3.098
	c10.904,0,21.694,1.023,32.272,2.987C279.351,411.939,268.374,426.668,256,438.297z M303.718,398.246
	c3.856,1.076,7.673,2.286,11.449,3.625c-7.741,6.779-16.055,13.142-24.9,19.038C295.085,413.849,299.577,406.277,303.718,398.246z
	 M293.122,436.976c13.656-8.62,26.195-18.274,37.501-28.8c5.264,2.449,10.425,5.16,15.463,8.137
	C329.551,426.083,311.696,433.02,293.122,436.976z M341.919,396.941c15.218-16.196,27.724-34.124,37.173-53.27h39.646
	c-11.393,21.091-26.866,39.992-45.631,55.373c-3.856,3.16-7.834,6.147-11.915,8.97C354.951,403.935,348.516,400.244,341.919,396.941
	z M464.407,496.971c-4.696,0-8.517-3.82-8.517-8.517c0-4.696,3.82-8.517,8.517-8.517c4.696,0,8.517,3.82,8.517,8.517
	C472.924,493.15,469.103,496.971,464.407,496.971z"/>
<g>
</g>
<g>
</g>
<g>
</g>
<g>
</g>
<g>
</g>
<g>
</g>
<g>
</g>
<g>
</g>
<g>
</g>
<g>
</g>
<g>
</g>
<g>
</g>
<g>
</g>
<g>
</g>
<g>
</g>
</svg>
