<?xml version="1.0" encoding="iso-8859-1"?>
<!-- Generator: Adobe Illustrator 19.0.0, SVG Export Plug-In . SVG Version: 6.00 Build 0)  -->
<svg version="1.1" id="Capa_1" xmlns="http://www.w3.org/2000/svg" xmlns:xlink="http://www.w3.org/1999/xlink" x="0px" y="0px"
	 viewBox="0 0 512 512" style="enable-background:new 0 0 512 512;" xml:space="preserve">
<rect x="7.515" y="111.718" style="fill:#C3EBFF;" width="496.971" height="352.689"/>
<g>
	<polygon style="fill:#99C4FF;" points="464.407,256 368.219,256 368.219,241.572 247.984,177.981 127.75,241.572 127.75,256 
		31.562,256 31.562,264.016 63.624,304.094 31.562,344.172 31.562,352.188 127.75,352.188 127.75,368.753 247.984,440.36 
		368.219,368.753 368.219,352.188 464.407,352.188 464.407,344.172 432.344,304.094 464.407,264.016 	"/>
	<rect x="7.515" y="111.718" style="fill:#99C4FF;" width="496.971" height="24.047"/>
</g>
<rect x="7.515" y="47.593" style="fill:#45C1FF;" width="496.971" height="64.125"/>
<rect x="7.515" y="87.671" style="fill:#14A5FF;" width="496.971" height="24.047"/>
<polygon style="fill:#FFD045;" points="135.765,224.471 135.765,351.654 247.984,415.244 360.204,351.654 360.204,224.471 
	247.984,160.881 "/>
<polygon style="fill:#FFF6DA;" points="160.716,237.869 160.716,339.159 248.436,389.805 336.157,339.159 336.157,237.869 
	248.436,187.224 "/>
<g>
	<polygon style="fill:#FFD045;" points="464.407,336.157 360.204,336.157 360.204,239.969 464.407,239.969 464.407,247.984 
		432.344,288.063 464.407,328.141 	"/>
	<polygon style="fill:#FFD045;" points="223.937,264.016 247.984,288.063 288.063,247.984 304.094,264.016 247.984,320.125 
		207.906,280.047 	"/>
	<polygon style="fill:#FFD045;" points="31.562,336.157 135.765,336.157 135.765,239.969 31.562,239.969 31.562,247.984 
		63.624,288.063 31.562,328.141 	"/>
</g>
<g>
	<rect x="360.204" y="272.031" style="fill:#FFF6DA;" width="80.157" height="32.063"/>
	<rect x="55.609" y="272.031" style="fill:#FFF6DA;" width="80.157" height="32.063"/>
</g>
<polygon points="496.971,456.892 63.624,456.892 63.624,471.922 512,471.922 512,151.796 496.971,151.796 "/>
<path d="M0,40.078v431.843h47.593v-15.029H15.029V119.233h481.941v16.532H512V40.078H0z M15.029,104.204V55.108h481.941v49.096
	H15.029z"/>
<path d="M248.436,398.482L153.2,343.499V233.53l95.236-54.984l95.235,54.984v109.968L248.436,398.482z M168.23,334.821
	l80.207,46.306l80.206-46.306v-92.614L248.436,195.9l-80.207,46.307L168.23,334.821L168.23,334.821z"/>
<path d="M247.984,330.752l-50.705-50.705l26.658-26.658l24.047,24.047l40.078-40.078l26.658,26.658L247.984,330.752z
	 M218.533,280.047l29.452,29.452l45.483-45.483l-5.405-5.405l-40.078,40.078l-24.047-24.047L218.533,280.047z"/>
<path d="M471.922,232.454H367.718v-12.361l-119.734-67.85l-119.734,67.85v12.361H24.047v18.166l29.955,37.442l-29.955,37.442v18.167
	H128.25v12.361l119.734,67.85l119.734-67.85v-12.361h104.204v-18.167l-29.954-37.442l29.954-37.442V232.454z M40.785,328.642
	l32.462-40.579l-32.462-40.579h87.466v17.033H79.656v15.029h48.595v17.033H95.687v15.029h32.564v17.033H40.785z M352.689,347.274
	l-104.704,59.333L143.28,347.274V228.851l104.704-59.333l104.704,59.333V347.274z M422.722,288.063l32.462,40.579h-87.466v-17.033
	h32.564v-15.029h-32.564v-17.033h48.595v-15.029h-48.595v-17.033h87.466L422.722,288.063z"/>
<rect x="39.577" y="72.141" width="16.031" height="15.029"/>
<rect x="71.64" y="72.141" style="fill:#FFFFFF;" width="16.031" height="15.029"/>
<rect x="103.703" y="72.141" width="16.031" height="15.029"/>
<rect x="448.376" y="72.141" style="fill:#FFFFFF;" width="16.031" height="15.029"/>
<rect x="142.949" y="151.125" width="15.029" height="16.031"/>
<rect x="55.108" y="175.843" width="15.029" height="16.031"/>
<rect x="464.407" y="392.266" width="15.029" height="16.031"/>
<rect x="399.109" y="367.217" width="15.029" height="16.031"/>
<rect x="400.783" y="424.329" width="15.029" height="16.031"/>
<rect x="336.157" y="144.282" style="fill:#FFFFFF;" width="16.031" height="15.029"/>
<rect x="392.266" y="176.344" width="16.031" height="15.029"/>
<rect x="95.687" y="384.751" width="16.031" height="15.029"/>
<rect x="151.796" y="416.814" style="fill:#FFFFFF;" width="16.031" height="15.029"/>
<g>
</g>
<g>
</g>
<g>
</g>
<g>
</g>
<g>
</g>
<g>
</g>
<g>
</g>
<g>
</g>
<g>
</g>
<g>
</g>
<g>
</g>
<g>
</g>
<g>
</g>
<g>
</g>
<g>
</g>
</svg>
