<?xml version="1.0" encoding="iso-8859-1"?>
<!-- Generator: Adobe Illustrator 19.0.0, SVG Export Plug-In . SVG Version: 6.00 Build 0)  -->
<svg version="1.1" id="Capa_1" xmlns="http://www.w3.org/2000/svg" xmlns:xlink="http://www.w3.org/1999/xlink" x="0px" y="0px"
	 viewBox="0 0 512 512" style="enable-background:new 0 0 512 512;" xml:space="preserve">
<polygon style="fill:#FFD045;" points="420.383,398.108 295.375,470.281 134.99,192.486 137.926,181.532 249.043,117.378 
	259.998,120.313 "/>
<g>
	<polygon style="fill:#FFB831;" points="401.486,375.68 280.939,445.278 295.375,470.281 420.383,398.108 	"/>
	<polygon style="fill:#FFB831;" points="155.825,215.239 266.943,151.085 277.898,154.02 259.998,120.313 249.043,117.378 
		137.926,181.532 134.99,192.486 153.385,224.347 	"/>
</g>
<polygon style="fill:#FD7D28;" points="92.745,87.238 80.716,66.404 177.945,10.27 242.099,121.387 144.87,177.522 100.764,101.129 
	"/>
<polygon style="fill:#FD5900;" points="96.755,86.931 190.843,32.609 177.945,10.27 80.716,66.404 92.745,87.238 "/>
<polygon style="fill:#FD7D28;" points="413.438,402.117 302.32,466.271 322.368,500.997 333.323,503.932 430.551,447.797 
	433.486,436.843 "/>
<rect x="247.609" y="208.69" transform="matrix(-0.866 0.5 -0.5 -0.866 649.3724 395.7387)" style="fill:#45C1FF;" width="48.114" height="152.362"/>
<rect x="301.739" y="348.699" transform="matrix(-0.866 0.5 -0.5 -0.866 775.3514 521.7137)" style="fill:#DAF3FF;" width="32.076" height="32.076"/>
<g>
	
		<rect x="167.285" y="189.261" transform="matrix(-0.5 -0.866 0.866 -0.5 91.3579 447.304)" style="fill:#FFFFFF;" width="15.036" height="16.038"/>
	
		<rect x="122.527" y="87.985" transform="matrix(-0.5 -0.866 0.866 -0.5 119.1285 259.7827)" style="fill:#FFFFFF;" width="24.057" height="15.036"/>
	
		<rect x="164.198" y="63.925" transform="matrix(-0.5 -0.866 0.866 -0.5 202.4708 259.7814)" style="fill:#FFFFFF;" width="24.057" height="15.036"/>
	
		<rect x="242.108" y="238.659" transform="matrix(-0.5 -0.866 0.866 -0.5 160.8131 586.201)" style="fill:#FFFFFF;" width="15.036" height="16.038"/>
</g>
<rect x="258.15" y="266.437" transform="matrix(-0.5 -0.866 0.866 -0.5 160.8198 641.7602)" width="15.036" height="16.038"/>
<rect x="274.182" y="294.22" transform="matrix(-0.5 -0.866 0.866 -0.5 160.8091 697.3193)" style="fill:#FFFFFF;" width="15.036" height="16.038"/>
<rect x="290.224" y="321.997" transform="matrix(-0.5 -0.866 0.866 -0.5 160.8157 752.8785)" width="15.036" height="16.038"/>
<rect x="369.055" y="378.34" transform="matrix(-0.5 -0.866 0.866 -0.5 230.2699 905.6624)" style="fill:#FFFFFF;" width="15.036" height="16.038"/>
<rect x="299.609" y="418.438" transform="matrix(-0.5 -0.866 0.866 -0.5 91.3737 905.6673)" width="15.036" height="16.038"/>
<rect x="236.731" y="149.163" transform="matrix(-0.5 -0.866 0.866 -0.5 230.2542 447.2991)" width="15.036" height="16.038"/>
<path d="M423.708,404.869l6.946-4.01L264.952,113.857l-16.972-4.548l-3.132,1.808l-30.026-52.007l-13.021,7.518l30.026,52.007
	l-35.592,20.549l-24.308-42.103l-13.021,7.518l24.308,42.103l-35.592,20.549L90.986,69.157l35.592-20.549l12.279,21.269
	l13.021-7.518L139.6,41.09l35.592-20.549l17.354,30.055l13.021-7.518L180.696,0L70.447,63.653l64.154,111.118l-3.132,1.808
	l-4.547,16.971l139.746,242.048l13.021-7.518L143.058,191.424l1.323-4.939l105.724-61.04l4.939,1.323l155.069,268.587
	l-111.987,64.655l-9.224-15.976l-13.021,7.518l16.742,28.999l6.945-4.01l17.847,30.911l16.97,4.547l102.622-59.249l4.547-16.97
	L423.708,404.869z M424.095,442.843l-91.834,53.02l-4.939-1.322l-14.731-25.517l49.048-28.318l49.048-28.318l14.731,25.517
	L424.095,442.843z"/>
<path d="M286.177,373.155l6.945-4.01l8.52,14.758l-14.323,8.27l7.518,13.021l69.449-40.096l-7.518-13.021l-14.324,8.27l-8.52-14.758
	l6.946-4.01l-83.701-144.974l-20.835,12.029l-24.308-42.103l-13.021,7.518l24.308,42.103l-20.835,12.029L286.177,373.155z
	 M329.421,367.864l-14.758,8.52l-8.52-14.758l14.758-8.52L329.421,367.864z M320.328,336.075l-28.648,16.54l-68.665-118.931
	l28.648-16.54L320.328,336.075z"/>
<g>
</g>
<g>
</g>
<g>
</g>
<g>
</g>
<g>
</g>
<g>
</g>
<g>
</g>
<g>
</g>
<g>
</g>
<g>
</g>
<g>
</g>
<g>
</g>
<g>
</g>
<g>
</g>
<g>
</g>
</svg>
