<?xml version="1.0" encoding="iso-8859-1"?>
<!-- Generator: Adobe Illustrator 19.0.0, SVG Export Plug-In . SVG Version: 6.00 Build 0)  -->
<svg version="1.1" id="Capa_1" xmlns="http://www.w3.org/2000/svg" xmlns:xlink="http://www.w3.org/1999/xlink" x="0px" y="0px"
	 viewBox="0 0 512 512" style="enable-background:new 0 0 512 512;" xml:space="preserve">
<polygon style="fill:#FFE5D4;" points="440.36,448.376 7.515,448.376 7.515,143.781 504.485,143.781 504.485,384.249 
	504.485,392.265 448.376,448.376 "/>
<rect x="7.515" y="143.781" style="fill:#FEAF85;" width="496.971" height="32.063"/>
<rect x="400.282" y="247.984" style="fill:#FFB831;" width="72.141" height="32.063"/>
<rect x="280.047" y="247.984" style="fill:#FFE38F;" width="72.141" height="32.063"/>
<rect x="7.515" y="63.624" style="fill:#FD7D28;" width="496.971" height="80.157"/>
<rect x="7.515" y="63.624" style="fill:#FD5900;" width="496.971" height="32.063"/>
<path id="SVGCleanerId_0" style="fill:#00C70D;" d="M379.323,390.725l-2.671,1.541l-2.684-1.518
	c-33.124-18.725-53.671-53.765-53.841-91.813l-0.011-2.564l55.965-32.298l56.251,31.799l0.011,2.564
	C432.513,336.484,412.278,371.706,379.323,390.725z"/>
<g>
	<path id="SVGCleanerId_0_1_" style="fill:#00C70D;" d="M379.323,390.725l-2.671,1.541l-2.684-1.518
		c-33.124-18.725-53.671-53.765-53.841-91.813l-0.011-2.564l55.965-32.298l56.251,31.799l0.011,2.564
		C432.513,336.484,412.278,371.706,379.323,390.725z"/>
</g>
<path style="fill:#66DD6E;" d="M378.039,363.57l-1.512,0.873l-1.519-0.859c-18.745-10.597-30.373-30.425-30.469-51.958l-0.006-1.451
	l31.672-18.278l31.833,17.995l0.006,1.451C408.14,332.875,396.689,352.807,378.039,363.57z"/>
<polygon style="fill:#FD9753;" points="440.36,448.376 440.36,384.25 504.485,384.25 504.485,392.266 448.376,448.376 "/>
<rect x="39.577" y="183.859" style="fill:#FFB831;" width="80.157" height="32.063"/>
<g>
	<rect x="159.812" y="183.859" style="fill:#FFE38F;" width="80.157" height="32.063"/>
	<rect x="39.577" y="247.984" style="fill:#FFE38F;" width="80.157" height="32.063"/>
</g>
<rect x="159.812" y="247.984" style="fill:#FFB831;" width="80.157" height="32.063"/>
<g>
	<rect x="39.577" y="312.11" style="fill:#FFE38F;" width="80.157" height="32.063"/>
	<rect x="159.812" y="312.11" style="fill:#FFE38F;" width="80.157" height="32.063"/>
</g>
<rect x="39.577" y="376.235" style="fill:#FFB831;" width="80.157" height="32.063"/>
<rect x="159.812" y="376.235" style="fill:#FFE38F;" width="80.157" height="32.063"/>
<rect x="280.047" y="183.859" style="fill:#FFB831;" width="80.157" height="32.063"/>
<g>
	<rect x="392.266" y="183.859" style="fill:#FFE38F;" width="80.157" height="32.063"/>
	<rect x="280.047" y="312.11" style="fill:#FFE38F;" width="24.047" height="32.063"/>
</g>
<rect x="280.047" y="376.235" style="fill:#FFB831;" width="40.078" height="32.063"/>
<rect x="448.376" y="312.11" style="fill:#FFE38F;" width="24.047" height="32.063"/>
<polygon points="127.249,223.436 87.671,223.436 87.671,208.407 112.219,208.407 112.219,191.374 47.092,191.374 47.092,208.407 
	71.64,208.407 71.64,223.436 32.063,223.436 32.063,176.344 127.249,176.344 "/>
<polygon points="127.249,287.562 87.671,287.562 87.671,272.532 112.219,272.532 112.219,255.499 47.092,255.499 47.092,272.532 
	71.64,272.532 71.64,287.562 32.063,287.562 32.063,240.47 127.249,240.47 "/>
<polygon points="127.249,351.687 87.671,351.687 87.671,336.658 112.219,336.658 112.219,319.624 47.092,319.624 47.092,336.658 
	71.64,336.658 71.64,351.687 32.063,351.687 32.063,304.595 127.249,304.595 "/>
<polygon points="127.249,415.812 87.671,415.812 87.671,400.783 112.219,400.783 112.219,383.75 47.092,383.75 47.092,400.783 
	71.64,400.783 71.64,415.812 32.063,415.812 32.063,368.72 127.249,368.72 "/>
<polygon points="247.483,223.436 207.906,223.436 207.906,208.407 232.454,208.407 232.454,191.374 167.327,191.374 
	167.327,208.407 191.875,208.407 191.875,223.436 152.297,223.436 152.297,176.344 247.483,176.344 "/>
<polygon points="247.483,287.562 207.906,287.562 207.906,272.532 232.454,272.532 232.454,255.499 167.327,255.499 
	167.327,272.532 191.875,272.532 191.875,287.562 152.297,287.562 152.297,240.47 247.483,240.47 "/>
<polygon points="247.483,351.687 207.906,351.687 207.906,336.658 232.454,336.658 232.454,319.624 167.327,319.624 
	167.327,336.658 191.875,336.658 191.875,351.687 152.297,351.687 152.297,304.595 247.483,304.595 "/>
<polygon points="247.483,415.812 207.906,415.812 207.906,400.783 232.454,400.783 232.454,383.75 167.327,383.75 167.327,400.783 
	191.875,400.783 191.875,415.812 152.297,415.812 152.297,368.72 247.483,368.72 "/>
<polygon points="367.718,223.436 328.141,223.436 328.141,208.407 352.689,208.407 352.689,191.374 287.562,191.374 
	287.562,208.407 312.11,208.407 312.11,223.436 272.532,223.436 272.532,176.344 367.718,176.344 "/>
<polygon points="304.094,287.562 272.532,287.562 272.532,240.47 352.188,240.47 352.188,255.499 287.562,255.499 287.562,272.532 
	304.094,272.532 "/>
<polygon points="304.094,351.687 272.532,351.687 272.532,304.595 304.094,304.595 304.094,319.624 287.562,319.624 
	287.562,336.658 304.094,336.658 "/>
<polygon points="479.937,287.562 448.376,287.562 448.376,272.532 464.908,272.532 464.908,255.499 400.282,255.499 400.282,240.47 
	479.937,240.47 "/>
<polygon points="479.937,351.687 448.376,351.687 448.376,336.658 464.908,336.658 464.908,319.624 448.376,319.624 
	448.376,304.595 479.937,304.595 "/>
<polygon points="312.11,415.812 272.532,415.812 272.532,368.72 320.125,368.72 320.125,383.75 287.562,383.75 287.562,400.783 
	312.11,400.783 "/>
<polygon points="479.937,223.436 440.36,223.436 440.36,208.407 464.908,208.407 464.908,191.374 399.781,191.374 399.781,208.407 
	424.329,208.407 424.329,223.436 384.751,223.436 384.751,176.344 479.937,176.344 "/>
<rect x="231.953" y="96.188" width="48.094" height="15.029"/>
<g>
	<rect x="296.078" y="96.188" style="fill:#FFFFFF;" width="16.031" height="15.029"/>
	<rect x="199.89" y="96.188" style="fill:#FFFFFF;" width="16.031" height="15.029"/>
</g>
<polygon points="479.937,119.233 440.36,119.233 440.36,104.204 464.908,104.204 464.908,87.671 479.937,87.671 "/>
<rect x="408.297" y="104.204" style="fill:#FFFFFF;" width="16.031" height="15.029"/>
<rect x="336.157" y="104.204" width="56.11" height="15.029"/>
<polygon points="47.092,119.734 32.063,119.734 32.063,88.172 71.64,88.172 71.64,103.202 47.092,103.202 "/>
<rect x="87.671" y="88.172" style="fill:#FFFFFF;" width="16.031" height="15.029"/>
<rect x="119.734" y="88.172" width="56.11" height="15.029"/>
<path d="M87.671,56.11v15.029h409.299v65.127H15.029V71.139H71.64V56.11H0V455.89h451.488L512,395.378v-0.001v-91.281h-15.029v72.64
	h-64.125v64.125H15.029V151.296h481.941v136.77H512V56.11H87.671z M494.359,391.765l-46.484,46.485v-46.485H494.359z"/>
<path d="M376.69,400.92l-6.421-3.629c-35.383-20.002-57.476-57.676-57.658-98.322l-0.03-6.927l63.461-36.624l63.786,36.056
	l0.03,6.927c0.18,40.645-21.576,78.515-56.78,98.832L376.69,400.92z M327.665,300.69c0.776,34.175,19.379,65.712,48.949,82.914
	c29.414-17.465,47.736-49.165,48.207-83.348l-48.701-27.531L327.665,300.69z"/>
<polygon style="fill:#FFFFFF;" points="377.179,347.621 355.021,325.464 365.648,314.836 375.552,324.74 394.401,299.609 
	406.425,308.627 "/>
<g>
</g>
<g>
</g>
<g>
</g>
<g>
</g>
<g>
</g>
<g>
</g>
<g>
</g>
<g>
</g>
<g>
</g>
<g>
</g>
<g>
</g>
<g>
</g>
<g>
</g>
<g>
</g>
<g>
</g>
</svg>
