<?xml version="1.0" encoding="iso-8859-1"?>
<!-- Generator: Adobe Illustrator 19.0.0, SVG Export Plug-In . SVG Version: 6.00 Build 0)  -->
<svg version="1.1" id="Capa_1" xmlns="http://www.w3.org/2000/svg" xmlns:xlink="http://www.w3.org/1999/xlink" x="0px" y="0px"
	 viewBox="0 0 512 512" style="enable-background:new 0 0 512 512;" xml:space="preserve">
<polygon style="fill:#00C70D;" points="480.438,107.71 376.235,107.71 368.219,115.73 368.219,163.82 360.204,171.836 
	151.796,171.836 143.781,163.82 143.781,115.73 135.765,107.71 31.562,107.71 7.515,131.757 7.515,380.243 31.562,404.29 
	480.438,404.29 504.485,380.243 504.485,131.76 "/>
<g>
	<polygon style="fill:#00A90B;" points="135.765,131.757 143.781,139.776 143.781,115.729 135.765,107.71 31.562,107.71 
		7.515,131.757 7.515,155.804 31.562,131.757 	"/>
	<polygon style="fill:#00A90B;" points="135.765,187.867 144.353,195.883 367.647,195.883 376.235,187.867 376.235,163.82 
		367.647,171.836 144.353,171.836 135.765,163.82 	"/>
	<polygon style="fill:#00A90B;" points="480.438,107.71 376.235,107.71 368.219,115.729 368.219,139.776 376.235,131.757 
		480.438,131.757 504.485,155.807 504.485,131.76 	"/>
	<path style="fill:#00A90B;" d="M243.977,328.141h24.047v-32.063h32.063v-24.047h-32.063v-32.063h-24.047v32.063h-32.063v24.047
		h32.063V328.141z"/>
</g>
<polygon style="fill:#FD7D28;" points="360.204,171.836 151.796,171.836 143.781,163.82 143.781,123.742 368.219,123.742 
	368.219,163.82 "/>
<rect x="143.781" y="123.742" style="fill:#FD5900;" width="224.438" height="24.047"/>
<rect x="223.937" y="123.742" style="fill:#FFD045;" width="64.125" height="48.094"/>
<rect x="223.937" y="123.742" style="fill:#FFB831;" width="64.125" height="24.047"/>
<polygon style="fill:#FFD045;" points="312.11,260.008 280.047,260.008 280.047,227.945 231.953,227.945 231.953,260.008 
	199.89,260.008 199.89,308.102 231.953,308.102 231.953,340.164 280.047,340.164 280.047,308.102 312.11,308.102 "/>
<path style="fill:#00A90B;" d="M296.078,355.695h-80.157v-31.562H184.36v-80.157h31.562v-31.562h80.157v31.562h31.562v80.157
	h-31.562V355.695z M236.032,340.665h39.935v-36.643h36.644v-39.935h-36.643v-36.644h-39.935v36.643h-36.644v39.935h36.643V340.665z"
	/>
<rect x="55.609" y="107.71" style="fill:#FFD045;" width="48.094" height="64.125"/>
<rect x="55.609" y="107.71" style="fill:#FFB831;" width="48.094" height="24.047"/>
<polygon style="fill:#FD7D28;" points="95.687,195.883 63.624,195.883 55.609,187.867 55.609,171.836 103.703,171.836 
	103.703,187.867 "/>
<rect x="55.609" y="372.227" style="fill:#FFD045;" width="48.094" height="32.063"/>
<polygon style="fill:#FD7D28;" points="95.687,348.18 63.624,348.18 55.609,356.196 55.609,372.227 103.703,372.227 
	103.703,356.196 "/>
<rect x="408.297" y="372.227" style="fill:#FFD045;" width="48.094" height="32.063"/>
<polygon style="fill:#FD7D28;" points="448.376,348.18 416.313,348.18 408.297,356.196 408.297,372.227 456.391,372.227 
	456.391,356.196 "/>
<rect x="408.297" y="107.71" style="fill:#FFD045;" width="48.094" height="64.125"/>
<rect x="408.297" y="107.71" style="fill:#FFB831;" width="48.094" height="24.047"/>
<polygon style="fill:#FD7D28;" points="448.376,195.883 416.313,195.883 408.297,187.867 408.297,171.836 456.391,171.836 
	456.391,187.867 "/>
<g>
	<rect x="352.188" y="236.462" style="fill:#FFFFFF;" width="80.157" height="15.029"/>
	<rect x="352.188" y="300.587" style="fill:#FFFFFF;" width="48.094" height="15.029"/>
	<rect x="384.25" y="268.524" style="fill:#FFFFFF;" width="48.094" height="15.029"/>
	<rect x="416.313" y="300.587" style="fill:#FFFFFF;" width="16.031" height="15.029"/>
	<rect x="352.188" y="268.524" style="fill:#FFFFFF;" width="16.031" height="15.029"/>
	<rect x="71.64" y="236.462" style="fill:#FFFFFF;" width="80.157" height="15.029"/>
	<rect x="71.64" y="300.587" style="fill:#FFFFFF;" width="48.094" height="15.029"/>
	<rect x="103.703" y="268.524" style="fill:#FFFFFF;" width="48.094" height="15.029"/>
	<rect x="135.765" y="300.587" style="fill:#FFFFFF;" width="16.031" height="15.029"/>
	<rect x="71.64" y="268.524" style="fill:#FFFFFF;" width="16.031" height="15.029"/>
</g>
<path d="M287.562,347.679h-63.123v-32.063h-32.063v-63.123h32.063v-32.063h63.123v32.063h32.063v63.123h-32.063V347.679z
	 M239.468,332.65h33.065v-32.063h32.063v-33.065h-32.063V235.46h-33.065v32.063h-32.063v33.065h32.063V332.65z"/>
<path d="M483.551,100.196h-110.43l-12.417,12.422v3.609h-168.83v15.029h24.548v33.065h-61.514l-3.613-3.613v-29.452h24.548v-15.029
	h-24.548v-3.609l-12.417-12.422H28.45L0,128.645v254.71l28.45,28.449h331.754v-15.029H111.217v-43.691l-12.418-12.418H60.512
	l-12.418,12.418v43.691h-13.42l-19.644-19.644V134.869l19.644-19.644h13.42v75.754l12.418,12.418H98.8l12.417-12.418v-75.754h21.435
	l3.614,3.616v48.091l12.418,12.418h214.632l12.417-12.418v-48.091l3.614-3.616h21.435v75.754l12.418,12.418h38.288l12.417-12.418
	v-75.754h13.419l19.645,19.648V377.13l-19.644,19.645h-13.42v-43.691l-12.418-12.418H413.2l-12.417,12.418v43.691h-24.548v15.029
	H483.55l28.45-28.45V128.648L483.551,100.196z M63.123,359.308l3.613-3.613h25.837l3.614,3.613v5.405H63.123V359.308z
	 M63.123,379.742h33.065v17.033H63.123V379.742z M96.188,184.755l-3.613,3.613H66.736l-3.613-3.613v-5.405h33.065V184.755z
	 M96.188,164.321H63.123v-49.096h33.065V164.321z M231.452,164.321v-33.065h49.096v33.065H231.452z M360.704,160.708l-3.613,3.613
	h-61.514v-33.065h65.127V160.708z M448.877,184.755l-3.613,3.613h-25.837l-3.614-3.613v-5.405h33.065V184.755z M448.877,164.321
	h-33.065v-49.096h33.065V164.321z M415.812,359.308l3.613-3.613h25.837l3.613,3.613v5.405h-33.065v-5.405H415.812z M415.812,396.775
	v-17.033h33.065v17.033H415.812z"/>
<g>
</g>
<g>
</g>
<g>
</g>
<g>
</g>
<g>
</g>
<g>
</g>
<g>
</g>
<g>
</g>
<g>
</g>
<g>
</g>
<g>
</g>
<g>
</g>
<g>
</g>
<g>
</g>
<g>
</g>
</svg>
