<?xml version="1.0" encoding="iso-8859-1"?>
<!-- Generator: Adobe Illustrator 19.0.0, SVG Export Plug-In . SVG Version: 6.00 Build 0)  -->
<svg version="1.1" id="Capa_1" xmlns="http://www.w3.org/2000/svg" xmlns:xlink="http://www.w3.org/1999/xlink" x="0px" y="0px"
	 viewBox="0 0 512 512" style="enable-background:new 0 0 512 512;" xml:space="preserve">
<path id="SVGCleanerId_0" style="fill:#00C70D;" d="M250.838,349.857l4.039,2.331l4.059-2.294
	c50.088-28.314,81.159-81.3,81.415-138.836l0.017-3.878L255.74,158.34l-85.06,48.084l-0.017,3.878
	C170.407,267.838,201.005,321.098,250.838,349.857z"/>
<g>
	<path id="SVGCleanerId_0_1_" style="fill:#00C70D;" d="M250.838,349.857l4.039,2.331l4.059-2.294
		c50.088-28.314,81.159-81.3,81.415-138.836l0.017-3.878L255.74,158.34l-85.06,48.084l-0.017,3.878
		C170.407,267.838,201.005,321.098,250.838,349.857z"/>
</g>
<path style="fill:#00C70D;" d="M250.838,351.329l4.039,2.331l4.059-2.294c50.088-28.314,81.159-81.3,81.415-138.836l0.017-3.878
	l-84.627-48.839l-85.06,48.084l-0.017,3.878C170.407,269.31,201.005,322.57,250.838,351.329z"/>
<path style="fill:#00A90B;" d="M255.74,190.403l82.451,47.583c1.38-8.339,2.122-16.845,2.16-25.456l0.017-3.878l-84.628-48.84
	l-85.06,48.084l-0.017,3.878c-0.039,8.66,0.634,17.221,1.955,25.617L255.74,190.403z"/>
<circle style="fill:#CCF4CF;" cx="256" cy="256" r="48.094"/>
<polygon style="fill:#FFD045;" points="328.141,504.485 384.25,504.485 392.266,504.485 400.282,504.485 440.36,504.485 
	440.36,424.329 328.141,424.329 "/>
<polygon style="fill:#FFB831;" points="328.142,448.376 384.251,448.376 392.267,448.376 400.283,448.376 440.361,448.376 
	440.361,424.329 328.142,424.329 "/>
<rect x="440.36" y="432.344" style="fill:#FFE3AD;" width="64.125" height="64.125"/>
<rect x="304.094" y="440.36" style="fill:#FD7D28;" width="24.047" height="48.094"/>
<rect x="71.64" y="7.515" style="fill:#FFD045;" width="112.219" height="80.157"/>
<rect x="71.64" y="7.515" style="fill:#FFB831;" width="112.219" height="24.047"/>
<rect x="7.515" y="15.53" style="fill:#FFE3AD;" width="64.125" height="64.125"/>
<rect x="183.859" y="23.546" style="fill:#FD7D28;" width="24.047" height="48.094"/>
<rect x="95.687" y="24.047" style="fill:#FFFFFF;" width="16.031" height="15.029"/>
<rect x="127.75" y="24.047" width="32.063" height="15.029"/>
<rect x="95.687" y="56.11" style="fill:#FFFFFF;" width="16.031" height="15.029"/>
<rect x="127.75" y="56.11" width="32.063" height="15.029"/>
<rect x="32.063" y="31.562" width="15.029" height="32.063"/>
<path d="M63.123,444.368v-128.25c0-6.906,5.618-12.524,12.524-12.524h115.415c14.126,21.365,33.151,39.575,56.018,52.773
	l7.757,4.476l7.796-4.406c48.701-27.532,80.355-77.715,84.703-133h89.014c15.194,0,27.554-12.361,27.554-27.554V67.632
	c0-15.193-12.36-27.554-27.554-27.554H223.937v15.029h212.415c6.906,0,12.524,5.618,12.524,12.524v128.25
	c0,6.906-5.618,12.524-12.524,12.524h-88.475l0.024-5.556l-92.123-53.166l-92.595,52.342l-0.036,8.24
	c-0.123,27.684,6.653,54.49,19.072,78.296H75.648c-15.194,0-27.554,12.361-27.554,27.554v128.25
	c0,15.193,12.36,27.554,27.554,27.554h212.415v-15.029H75.648C68.741,456.892,63.123,451.274,63.123,444.368z M255.701,166.993
	l77.132,44.515c-0.416,54.518-30.114,105.003-77.595,131.843l-0.324,0.183l-0.321-0.186c-47.24-27.263-76.488-78.008-76.418-132.53
	L255.701,166.993z"/>
<path d="M512,424.83h-64.125v-8.016H320.626v16.031h-24.047v63.123h24.047V512h63.624v-15.029h-48.595v-1.002v-63.123v-1.002h97.19
	v65.127h-32.564V512h47.593v-8.016H512V424.83z M311.609,480.939v-33.065h9.018v33.065H311.609z M496.971,488.955h-49.096v-49.096
	h49.096V488.955z"/>
<path d="M64.125,95.186h127.249V79.155h24.047V16.031h-24.047V0H127.75v15.029h48.595v1.002v63.123v1.002h-97.19V15.029h32.564V0
	H64.125v8.016H0V87.17h64.125V95.186z M200.391,31.061v33.065h-9.018V31.061H200.391z M15.029,72.141V23.045h49.096v49.096H15.029z"
	/>
<path d="M256,311.609c-30.663,0-55.609-24.946-55.609-55.609s24.946-55.609,55.609-55.609s55.609,24.946,55.609,55.609
	S286.663,311.609,256,311.609z M256,215.421c-22.376,0-40.579,18.204-40.579,40.579s18.204,40.579,40.579,40.579
	s40.579-18.204,40.579-40.579S278.376,215.421,256,215.421z"/>
<polygon points="256,274.642 234.655,253.299 245.282,242.67 256,253.389 274.734,234.654 285.36,245.283 "/>
<rect x="400.282" y="472.924" style="fill:#FFFFFF;" width="16.031" height="15.029"/>
<rect x="352.188" y="472.924" width="32.063" height="15.029"/>
<rect x="400.282" y="440.861" style="fill:#FFFFFF;" width="16.031" height="15.029"/>
<rect x="352.188" y="440.861" width="32.063" height="15.029"/>
<rect x="464.908" y="448.376" width="15.029" height="32.063"/>
<g>
</g>
<g>
</g>
<g>
</g>
<g>
</g>
<g>
</g>
<g>
</g>
<g>
</g>
<g>
</g>
<g>
</g>
<g>
</g>
<g>
</g>
<g>
</g>
<g>
</g>
<g>
</g>
<g>
</g>
</svg>
