<?xml version="1.0" encoding="iso-8859-1"?>
<!-- Generator: Adobe Illustrator 19.0.0, SVG Export Plug-In . SVG Version: 6.00 Build 0)  -->
<svg version="1.1" id="Capa_1" xmlns="http://www.w3.org/2000/svg" xmlns:xlink="http://www.w3.org/1999/xlink" x="0px" y="0px"
	 viewBox="0 0 512 512" style="enable-background:new 0 0 512 512;" xml:space="preserve">
<rect x="55.609" y="103.703" style="fill:#45C1FF;" width="448.877" height="48.094"/>
<rect x="55.609" y="103.703" style="fill:#14A5FF;" width="448.877" height="24.047"/>
<rect x="55.609" y="151.796" style="fill:#DAF3FF;" width="448.877" height="352.689"/>
<rect x="55.609" y="151.796" style="fill:#99C4FF;" width="448.877" height="24.047"/>
<rect x="7.515" y="7.515" style="fill:#00C70D;" width="448.877" height="48.094"/>
<rect x="7.515" y="7.515" style="fill:#00A90B;" width="448.877" height="24.047"/>
<polygon style="fill:#CCF4CF;" points="55.609,103.703 55.609,408.297 7.515,408.297 7.515,55.609 456.391,55.609 456.391,103.703 
	"/>
<polygon style="fill:#99DD9D;" points="57.613,408.297 37.573,408.297 37.573,87.671 456.391,87.671 456.391,107.71 57.613,107.71 
	"/>
<polygon style="fill:#FFD045;" points="180.434,456.327 151.08,426.598 151.141,416.752 240.329,328.691 250.179,328.752 
	279.532,358.481 279.468,368.33 190.28,456.391 "/>
<polygon style="fill:#BF9C34;" points="284.06,305.085 329.394,260.322 348.964,280.142 305.824,322.736 "/>
<polygon style="fill:#FFD045;" points="373.613,275.375 348.964,280.142 329.394,260.322 334.474,235.735 369.159,201.49 
	408.297,241.129 "/>
<rect x="237.511" y="356.233" transform="matrix(-0.7026 -0.7116 0.7116 -0.7026 158.7317 792.7341)" style="fill:#FFFFFF;" width="15.03" height="13.926"/>
<rect x="257.77" y="257.775" transform="matrix(-0.7071 0.7071 -0.7071 -0.7071 704.7002 359.9182)" style="fill:#BE5E1E;" width="40.078" height="136.265"/>
<g>
	<path style="fill:#FD7D28;" d="M168.79,285.965c-13.661-13.835-17.347-33.775-11.127-50.911l21.161,21.432l19.757-9.722
		l9.972-19.631L187.392,205.7c17.214-6.002,37.105-2.062,50.766,11.773c18.914,19.155,18.718,50.017-0.438,68.931
		C218.564,305.316,187.703,305.121,168.79,285.965z"/>
	<path style="fill:#FD7D28;" d="M390.646,371.911c-18.914-19.155-49.775-19.352-68.931-0.439
		c-19.155,18.914-19.352,49.775-0.438,68.931c18.914,19.156,49.775,19.352,68.931,0.439
		C409.363,421.928,409.559,391.067,390.646,371.911z M372.622,423.032l-22.944,5.992l-16.661-16.874l6.283-22.866l22.944-5.992
		l16.661,16.874L372.622,423.032z"/>
</g>
<path d="M463.906,96.188V0H71.64v15.029h377.237v33.065H15.029V15.029h40.579V0H0v415.812h48.094V512H512v-79.657h-15.029v64.627
	H63.123V159.311h433.847v257H512V96.188H463.906z M15.029,400.783V63.123h433.847v33.065H48.094v48.094v15.029v241.472H15.029z
	 M63.123,144.282v-33.065h433.847v33.065H63.123z"/>
<rect x="39.577" y="24.047" width="16.031" height="15.029"/>
<rect x="71.64" y="24.047" style="fill:#FFFFFF;" width="16.031" height="15.029"/>
<rect x="103.703" y="24.047" width="16.031" height="15.029"/>
<rect x="408.297" y="24.047" style="fill:#FFFFFF;" width="16.031" height="15.029"/>
<polygon points="479.937,223.937 464.908,223.937 464.908,191.374 432.344,191.374 432.344,176.344 479.937,176.344 "/>
<polygon points="127.75,479.937 80.157,479.937 80.157,432.344 95.186,432.344 95.186,464.908 127.75,464.908 "/>
<rect x="464.908" y="296.078" width="15.029" height="16.031"/>
<rect x="464.908" y="239.969" style="fill:#FFFFFF;" width="15.029" height="40.078"/>
<rect x="80.157" y="344.172" width="15.029" height="16.031"/>
<rect x="80.157" y="376.235" style="fill:#FFFFFF;" width="15.029" height="40.078"/>
<rect x="87.671" y="120.235" width="16.031" height="15.029"/>
<rect x="119.734" y="120.235" style="fill:#FFFFFF;" width="16.031" height="15.029"/>
<rect x="151.796" y="120.235" width="16.031" height="15.029"/>
<rect x="456.391" y="120.235" style="fill:#FFFFFF;" width="16.031" height="15.029"/>
<path d="M347.379,437.39l-22.757-23.048l8.583-31.233l31.339-8.185l22.757,23.049l-8.582,31.234L347.379,437.39z M341.413,409.957
	l10.564,10.7l14.549-3.799l3.984-14.498l-10.564-10.701l-14.548,3.799L341.413,409.957z"/>
<path d="M356.319,349.902c-0.123-0.001-0.245-0.001-0.368-0.001c-4.753,0-9.416,0.592-13.91,1.731l-27.046-27.392l37.628-37.153
	l24.65-4.767l41.65-41.125l-49.698-50.333l-41.65,41.125l-5.08,24.586l-37.629,37.154l-27.085-27.432
	c4.974-18.656,0.24-39.399-14.277-54.103c-15.177-15.372-38.175-20.708-58.587-13.59l-11.227,3.915l25.71,26.039l-6.385,12.57
	l-12.65,6.224l-25.71-26.038l-4.057,11.176c-7.376,20.32-2.336,43.383,12.842,58.756c10.558,10.693,24.648,16.634,39.674,16.73
	c0.123,0.001,0.245,0.001,0.368,0.001c4.753,0,9.416-0.592,13.909-1.731l17.265,17.486l-91.012,89.863l-0.1,16.07l33.727,34.159
	l16.071,0.104l91.012-89.862l17.264,17.485c-1.226,4.593-1.885,9.371-1.915,14.252c-0.096,15.026,5.666,29.191,16.224,39.884
	c10.988,11.129,25.508,16.705,40.035,16.705c14.285,0,28.578-5.394,39.522-16.199c22.073-21.795,22.301-57.484,0.506-79.557
	C385.436,355.939,371.345,349.998,356.319,349.902z M341.374,239.485l27.718-27.367l28.579,28.945l-27.718,27.367L351.486,272
	l-13.917-14.096L341.374,239.485z M329.327,270.949l9.01,9.125l-33.9,33.471l-9.01-9.125L329.327,270.949z M203.481,292.946
	c-0.089,0-0.18,0-0.271-0.001c-11.012-0.069-21.338-4.424-29.075-12.26c-8.01-8.113-12.167-19.147-11.848-30.251l14.994,15.186
	l26.864-13.218l13.559-26.695l-14.994-15.186c11.119-0.209,22.09,4.121,30.099,12.232c15.971,16.177,15.805,42.331-0.371,58.303
	C224.668,288.73,214.394,292.946,203.481,292.946z M271.974,365.17l-84.759,83.686l-3.62-0.023l-7.21-7.303l59.066-58.32
	l-10.56-10.695l-59.066,58.32l-7.211-7.303l0.022-3.62l84.759-83.687l3.622,0.022l24.981,25.3L271.974,365.17z M287.067,355.418
	L287.067,355.418l-33.729-34.162h-0.002l-20.976-21.244c3.817-2.293,7.389-5.053,10.639-8.261c3.279-3.238,6.065-6.788,8.379-10.55
	l75.695,76.665c-3.817,2.293-7.389,5.053-10.639,8.261s-6.053,6.746-8.394,10.535L287.067,355.418z M384.928,435.496
	c-16.177,15.972-42.331,15.806-58.303-0.371c-7.737-7.836-11.96-18.217-11.89-29.229c0.07-11.012,4.425-21.338,12.261-29.075
	c8.021-7.919,18.494-11.871,28.964-11.871c10.646,0,21.288,4.086,29.34,12.242C401.27,393.368,401.103,419.522,384.928,435.496z"/>
<g>
</g>
<g>
</g>
<g>
</g>
<g>
</g>
<g>
</g>
<g>
</g>
<g>
</g>
<g>
</g>
<g>
</g>
<g>
</g>
<g>
</g>
<g>
</g>
<g>
</g>
<g>
</g>
<g>
</g>
</svg>
