<?xml version="1.0" encoding="iso-8859-1"?>
<!-- Generator: Adobe Illustrator 19.0.0, SVG Export Plug-In . SVG Version: 6.00 Build 0)  -->
<svg version="1.1" id="Capa_1" xmlns="http://www.w3.org/2000/svg" xmlns:xlink="http://www.w3.org/1999/xlink" x="0px" y="0px"
	 viewBox="0 0 512 512" style="enable-background:new 0 0 512 512;" xml:space="preserve">
<rect x="183.61" y="320.125" style="fill:#BCE9FF;" width="144.282" height="184.36"/>
<rect x="183.61" y="320.125" style="fill:#8ED4FF;" width="144.282" height="24.047"/>
<g>
	<circle style="fill:#FFD045;" cx="255.751" cy="368.219" r="16.031"/>
	<path style="fill:#FFD045;" d="M269.778,408.297h-28.055c-5.534,0-10.02,4.486-10.02,10.02v22.043h48.094v-22.043
		C279.798,412.783,275.312,408.297,269.778,408.297z"/>
</g>
<polygon style="fill:#8FDAFF;" points="199.641,320.125 199.641,296.078 71.391,296.078 71.391,504.485 183.61,504.485 
	183.61,320.125 "/>
<g>
	<polygon style="fill:#72C9FF;" points="71.391,296.078 71.391,320.125 183.61,320.125 199.641,320.125 199.641,296.078 	"/>
	<polygon style="fill:#72C9FF;" points="311.861,296.078 311.861,320.125 327.892,320.125 440.111,320.125 440.111,296.078 	"/>
</g>
<polygon style="fill:#8FDAFF;" points="311.861,320.125 311.861,296.078 440.111,296.078 440.111,504.485 327.892,504.485 
	327.892,320.125 "/>
<path style="fill:#45C1FF;" d="M320.127,231.953h61.296c9.7,0,16.426,0,16.57,0c34.597,0,62.643-27.913,62.643-62.344
	c0-21.568-11.014-40.561-27.742-51.75c3.708-7.018,5.816-14.995,5.816-23.465c0-27.99-22.905-50.68-51.159-50.68
	c-11.877,0-22.8,4.02-31.482,10.747c-20.456-28.421-53.908-46.947-91.716-46.947c-41.112,0-77.081,21.901-96.782,54.616
	c-8.94-3.057-18.522-4.74-28.505-4.74c-2.863,0-5.694,0.136-8.487,0.404l-13.203,2.286c-37.945,9.608-66.011,43.838-66.011,84.592
	c0,48.204,39.265,87.281,87.7,87.281c0.091,0,34.424,0,52.808,0h128.252V231.953z"/>
<path style="fill:#FFD045;" d="M328.142,151.442v-18.89l-72.407-40.441l-71.874,42.18v17.15h-16.031
	c4.278,53.535,35.785,107.626,84.565,134.301l4.242,2.32l4.22-2.356c48.303-26.966,79.292-80.997,83.317-134.265L328.142,151.442
	L328.142,151.442z"/>
<path style="fill:#FFB831;" d="M183.861,179.064v-17.149l71.874-42.18l72.407,40.441v18.89h11.54
	c2.267-9.135,3.794-18.389,4.492-27.623h-16.031v-18.89l-72.407-40.441l-71.874,42.18v17.149h-16.031
	c0.738,9.24,2.307,18.493,4.616,27.623H183.861z"/>
<path style="fill:#14A5FF;" d="M347.118,137.563v-18.455l-91.522-51.117l-90.711,53.234v16.338h-19.134l0.689,8.641
	c2.417,30.239,11.868,59.688,26.662,85.749h24.143c-14.821-22.632-24.805-48.886-28.297-76.159h16.522V134.03l70.331-41.276
	l70.725,39.501v23.539h16.559c-3.362,27.223-13.201,53.485-27.874,76.159h24.093c14.662-26.114,23.976-55.585,26.256-85.784
	l0.65-8.606L347.118,137.563L347.118,137.563z"/>
<path style="fill:#FFF6DA;" d="M280.048,175.843c0-13.281-10.766-24.047-24.047-24.047c-13.281,0-24.047,10.766-24.047,24.047
	c0,8.938,4.881,16.732,12.118,20.876l-12.118,21.206v6.012h48.094v-6.01l-12.118-21.208
	C275.168,192.575,280.048,184.782,280.048,175.843z"/>
<rect x="367.97" y="328.642" width="48.094" height="15.029"/>
<rect x="392.017" y="360.704" style="fill:#FFFFFF;" width="24.047" height="15.029"/>
<rect x="367.97" y="392.767" width="48.094" height="15.029"/>
<rect x="367.97" y="456.892" width="48.094" height="15.029"/>
<path d="M304.346,288.564v24.047h-97.19v-24.047H63.876V512h31.562v-15.029H78.906V303.593h113.221v9.018h-16.031v16.031h-16.532
	v15.029h16.532v17.033h-40.579v15.029h40.579v17.033h-16.532v15.029h16.532v17.033h-40.579v15.029h40.579v17.033h-16.532v15.029
	h16.532v25.049h-64.626V512h336.157V288.564H304.346z M320.377,496.971H191.125V327.64h129.252V496.971z M432.596,496.971h-97.19
	v-25.049h16.532v-15.029h-16.532v-17.033h40.579V424.83h-40.579v-17.033h16.532v-15.029h-16.532v-17.033h40.579v-15.029h-40.579
	v-17.033h16.532v-15.029h-16.532v-16.031h-16.031v-9.018h113.221V496.971z"/>
<g>
	<rect x="392.017" y="424.83" style="fill:#FFFFFF;" width="24.047" height="15.029"/>
	<rect x="95.438" y="328.642" style="fill:#FFFFFF;" width="48.094" height="15.029"/>
</g>
<rect x="95.438" y="360.704" width="24.047" height="15.029"/>
<g>
	<rect x="95.438" y="392.767" style="fill:#FFFFFF;" width="48.094" height="15.029"/>
	<rect x="95.438" y="456.892" style="fill:#FFFFFF;" width="48.094" height="15.029"/>
</g>
<rect x="95.438" y="424.83" width="24.047" height="15.029"/>
<g>
	<path style="fill:#FFFFFF;" d="M431.845,170.557h-15.029c0-13.817-6.901-26.682-18.461-34.414l-5.632-3.767l3.166-5.991
		c2.455-4.646,3.699-9.667,3.699-14.925c0-9.748-4.389-18.877-12.041-25.048l9.434-11.699c11.208,9.039,17.635,22.432,17.635,36.747
		c0,5.457-0.965,10.897-2.818,16.019C424.453,138.158,431.845,153.842,431.845,170.557z"/>
	<path style="fill:#FFFFFF;" d="M135.767,207.405c-35.083,0-63.624-28.542-63.624-63.624c0-17.24,6.782-33.378,19.097-45.446
		l10.519,10.736c-9.406,9.216-14.586,21.542-14.586,34.71c0,26.795,21.8,48.595,48.595,48.595V207.405z"/>
</g>
<path d="M287.563,231.452H224.44V215.93l9.833-17.209c-6.188-5.893-9.833-14.15-9.833-22.878c0-17.403,14.159-31.562,31.562-31.562
	c17.403,0,31.562,14.159,31.562,31.562c0,8.728-3.645,16.985-9.833,22.878l9.833,17.212V231.452z M241.468,216.423h29.066
	l-12.851-22.492l6.514-3.731c5.143-2.946,8.337-8.446,8.337-14.356c0-9.116-7.417-16.532-16.532-16.532
	c-9.116,0-16.532,7.416-16.532,16.532c0,5.91,3.194,11.41,8.337,14.356l6.515,3.731L241.468,216.423z"/>
<path d="M255.751,391.765c-12.983,0-23.546-10.563-23.546-23.546s10.563-23.546,23.546-23.546c12.983,0,23.546,10.563,23.546,23.546
	S268.734,391.765,255.751,391.765z M255.751,359.703c-4.696,0-8.517,3.82-8.517,8.517c0,4.696,3.82,8.517,8.517,8.517
	c4.696,0,8.517-3.82,8.517-8.517C264.268,363.523,260.447,359.703,255.751,359.703z"/>
<path d="M287.313,447.875h-63.123v-29.558c0-9.668,7.866-17.534,17.534-17.534h28.055c9.668,0,17.534,7.866,17.534,17.534V447.875z
	 M239.219,432.845h33.065v-14.528c0-1.382-1.123-2.505-2.505-2.505h-28.055c-1.382,0-2.505,1.123-2.505,2.505V432.845z"/>
<rect x="223.688" y="464.908" width="64.125" height="15.029"/>
<path d="M442.256,115.43c2.609-6.684,3.97-13.847,3.97-21.036c0-32.089-26.321-58.195-58.674-58.195
	c-10.651,0-20.829,2.773-29.828,8.077c-11.521-14.108-26.158-25.493-42.705-33.159l-6.317,13.638
	c16.417,7.604,30.687,19.394,41.27,34.097l4.548,6.318l6.154-4.768c7.744-6.001,17.039-9.173,26.879-9.173
	c24.066,0,43.644,19.364,43.644,43.165c0,7.031-1.663,13.744-4.946,19.954l-3.165,5.991l5.631,3.767
	c15.282,10.221,24.405,27.232,24.405,45.503c0,30.233-24.731,54.83-55.129,54.83h-67.918c12.042-22.169,19.67-47.009,21.591-72.43
	l0.61-8.081h-16.618v-15.785l-72.141-40.292v-0.18h-0.322l-7.553-4.218l-79.296,46.535v13.938H159.69l0.647,8.114
	c2.035,25.453,9.782,50.272,21.935,72.398h-43.205c-44.214,0-80.186-35.784-80.186-79.767c0-36.428,24.686-68.149,60.068-77.238
	l12.626-2.186c2.477-0.228,4.996-0.344,7.493-0.344c8.885,0,17.657,1.459,26.073,4.336l5.74,1.962l3.129-5.196
	c9.188-15.256,22.216-28.031,37.678-36.941c15.929-9.182,34.142-14.035,52.666-14.035c10.001,0,19.891,1.393,29.393,4.138
	l4.172-14.438C287.059,1.591,275.766,0,264.354,0c-21.155,0-41.963,5.548-60.173,16.044c-15.952,9.195-29.638,21.989-39.873,37.223
	c-8.223-2.253-16.688-3.393-25.241-3.393c-3.066,0-6.161,0.147-9.202,0.439l-13.77,2.362l-0.563,0.119
	c-42.204,10.686-71.681,48.467-71.681,91.876c0,52.271,42.713,94.796,95.215,94.796h52.431
	c14.999,22.015,34.607,40.464,57.29,52.868l7.884,4.313l7.846-4.381c22.357-12.48,41.659-30.897,56.422-52.8h77.05
	c38.686,0,70.158-31.338,70.158-69.859C468.151,148.459,458.579,128.644,442.256,115.43z M263.266,275.522v-27.538h-15.029v26.578
	c-38.419-24.428-65.809-68.321-72.056-115.606h15.195v-20.361l57.112-33.517v22.671h15.029v-22.684l57.112,31.897v21.994h15.232
	C329.771,206.677,302.106,251.107,263.266,275.522z"/>
<g>
</g>
<g>
</g>
<g>
</g>
<g>
</g>
<g>
</g>
<g>
</g>
<g>
</g>
<g>
</g>
<g>
</g>
<g>
</g>
<g>
</g>
<g>
</g>
<g>
</g>
<g>
</g>
<g>
</g>
</svg>
