<?xml version="1.0" encoding="iso-8859-1"?>
<!-- Generator: Adobe Illustrator 19.0.0, SVG Export Plug-In . SVG Version: 6.00 Build 0)  -->
<svg version="1.1" id="Capa_1" xmlns="http://www.w3.org/2000/svg" xmlns:xlink="http://www.w3.org/1999/xlink" x="0px" y="0px"
	 viewBox="0 0 512 512" style="enable-background:new 0 0 512 512;" xml:space="preserve">
<rect x="71.64" y="7.515" style="fill:#00C70D;" width="368.72" height="496.971"/>
<rect x="71.64" y="7.515" style="fill:#00A90B;" width="368.72" height="24.047"/>
<rect x="103.703" y="55.609" style="fill:#CCF4CF;" width="304.595" height="368.72"/>
<rect x="103.703" y="55.609" style="fill:#99DD9D;" width="304.595" height="24.047"/>
<path style="fill:#FFD045;" d="M164.127,312.11h183.746c23.215,0,37.668-25.198,25.946-45.236l-91.872-157.049
	c-11.607-19.841-40.284-19.841-51.89,0l-91.873,157.048C126.459,286.911,140.911,312.11,164.127,312.11z"/>
<path style="fill:#FFB831;" d="M288.063,142.797h-64.125v96.671h11.374c-6.654,5.79-10.873,14.312-10.873,23.805
	c0,17.403,14.159,31.562,31.562,31.562s31.562-14.159,31.562-31.562c0-9.494-4.219-18.014-10.873-23.805h11.374V142.797z
	 M256,279.805c-9.116,0-16.532-7.416-16.532-16.532c0-9.116,7.416-16.532,16.532-16.532c9.116,0,16.532,7.416,16.532,16.532
	C272.532,272.389,265.116,279.805,256,279.805z M241.193,157.826h29.613v66.612h-29.613L241.193,157.826L241.193,157.826z"/>
<g>
	<circle style="fill:#FD7D28;" cx="256" cy="263.274" r="16.031"/>
	<rect x="239.969" y="159.071" style="fill:#FD7D28;" width="32.063" height="64.125"/>
</g>
<circle style="fill:#CCF4CF;" cx="256" cy="464.407" r="16.031"/>
<path d="M347.872,319.624H164.127c-13.629,0-25.812-7.058-32.593-18.88c-6.78-11.822-6.72-25.904,0.161-37.667l91.873-157.048
	c6.813-11.647,18.938-18.6,32.431-18.6c0.001,0,0,0,0,0c13.494,0,25.619,6.954,32.432,18.6l91.872,157.048
	c6.881,11.763,6.943,25.844,0.162,37.667C373.686,312.566,361.502,319.624,347.872,319.624z M256,102.459
	c-8.097,0-15.371,4.172-19.459,11.161l-91.873,157.048c-4.129,7.058-4.165,15.507-0.097,22.6
	c4.069,7.093,11.378,11.328,19.556,11.328h183.746c8.177,0,15.488-4.235,19.557-11.328c4.068-7.093,4.031-15.542-0.098-22.6
	L275.459,113.62C271.371,106.631,264.097,102.459,256,102.459z"/>
<path d="M256,286.819c-12.983,0-23.546-10.563-23.546-23.546c0-12.983,10.563-23.546,23.546-23.546s23.546,10.563,23.546,23.546
	C279.546,276.257,268.983,286.819,256,286.819z M256,254.757c-4.696,0-8.517,3.82-8.517,8.517c0,4.696,3.82,8.517,8.517,8.517
	s8.517-3.82,8.517-8.517C264.517,258.577,260.696,254.757,256,254.757z"/>
<path d="M279.546,230.71h-47.092v-79.155h47.092V230.71z M247.483,215.68h17.033v-49.096h-17.033V215.68z"/>
<polygon points="400.282,512 64.125,512 64.125,63.624 79.155,63.624 79.155,496.971 400.282,496.971 "/>
<polygon points="447.875,512 416.313,512 416.313,496.971 432.845,496.971 432.845,15.029 79.155,15.029 79.155,47.593 
	64.125,47.593 64.125,0 447.875,0 "/>
<path d="M415.812,431.843H96.188V48.094h319.624V431.843z M111.217,416.814h289.566V63.123H111.217V416.814z"/>
<rect x="231.953" y="24.047" width="48.094" height="15.029"/>
<path d="M256,487.953c-12.983,0-23.546-10.563-23.546-23.546s10.563-23.546,23.546-23.546s23.546,10.563,23.546,23.546
	S268.983,487.953,256,487.953z M256,455.89c-4.696,0-8.517,3.82-8.517,8.517c0,4.696,3.82,8.517,8.517,8.517s8.517-3.82,8.517-8.517
	C264.517,459.711,260.696,455.89,256,455.89z"/>
<rect x="215.922" y="376.736" width="80.157" height="15.029"/>
<rect x="231.953" y="344.673" width="48.094" height="15.029"/>
<polygon points="383.75,111.718 368.72,111.718 368.72,95.186 352.188,95.186 352.188,80.157 383.75,80.157 "/>
<polygon points="143.28,111.718 128.25,111.718 128.25,80.157 159.812,80.157 159.812,95.186 143.28,95.186 "/>
<polygon points="383.75,399.781 352.188,399.781 352.188,384.751 368.72,384.751 368.72,368.219 383.75,368.219 "/>
<polygon points="159.812,399.781 128.25,399.781 128.25,368.219 143.28,368.219 143.28,384.751 159.812,384.751 "/>
<g>
	<rect x="159.812" y="272.532" style="fill:#FFFFFF;" width="16.031" height="15.029"/>
	<rect x="336.157" y="272.532" style="fill:#FFFFFF;" width="16.031" height="15.029"/>
	<rect x="247.984" y="120.235" style="fill:#FFFFFF;" width="16.031" height="15.029"/>
</g>
<g>
</g>
<g>
</g>
<g>
</g>
<g>
</g>
<g>
</g>
<g>
</g>
<g>
</g>
<g>
</g>
<g>
</g>
<g>
</g>
<g>
</g>
<g>
</g>
<g>
</g>
<g>
</g>
<g>
</g>
</svg>
