<?xml version="1.0" encoding="iso-8859-1"?>
<!-- Generator: Adobe Illustrator 19.0.0, SVG Export Plug-In . SVG Version: 6.00 Build 0)  -->
<svg version="1.1" id="Capa_1" xmlns="http://www.w3.org/2000/svg" xmlns:xlink="http://www.w3.org/1999/xlink" x="0px" y="0px"
	 viewBox="0 0 512 512" style="enable-background:new 0 0 512 512;" xml:space="preserve">
<rect x="472.423" y="211.914" style="fill:#FD7D28;" width="32.063" height="192.376"/>
<g>
	<rect x="472.423" y="179.851" style="fill:#FFD045;" width="32.063" height="32.063"/>
	<rect x="472.423" y="404.29" style="fill:#FFD045;" width="32.063" height="32.063"/>
</g>
<polygon style="fill:#FD7D28;" points="344.172,211.914 63.624,211.914 63.624,147.789 127.75,147.789 175.843,115.726 
	344.172,115.726 "/>
<polygon style="fill:#FD5900;" points="71.64,171.836 135.765,171.836 183.859,139.773 344.172,139.773 344.172,115.726 
	175.843,115.726 127.75,147.789 63.624,147.789 63.624,211.914 71.64,211.914 "/>
<polygon style="fill:#FFD045;" points="344.172,115.726 175.843,115.726 127.75,147.789 7.515,147.789 7.515,91.679 31.562,75.648 
	344.172,75.648 "/>
<polygon style="fill:#FFB831;" points="31.562,75.648 7.515,91.679 7.515,115.726 31.562,99.695 344.172,99.695 344.172,75.648 "/>
<rect x="167.828" y="211.914" style="fill:#FFD045;" width="72.141" height="32.063"/>
<g>
	<polygon style="fill:#33D23D;" points="280.047,171.836 175.843,171.836 175.843,155.804 183.859,147.789 272.031,147.789 
		280.047,155.804 	"/>
	<rect x="39.577" y="147.789" style="fill:#33D23D;" width="24.047" height="48.094"/>
</g>
<g>
	<polygon style="fill:#FFD045;" points="472.423,404.29 448.376,404.29 440.36,394.27 440.36,334.153 448.376,324.133 
		472.423,324.133 	"/>
	<circle style="fill:#FFD045;" cx="215.922" cy="356.196" r="40.078"/>
</g>
<path style="fill:#FFB831;" d="M215.922,340.164c17.945,0,33.134,11.795,38.241,28.055c1.192-3.796,1.838-7.834,1.838-12.023
	c0-22.134-17.944-40.078-40.078-40.078s-40.078,17.944-40.078,40.078c0,4.189,0.645,8.227,1.838,12.023
	C182.788,351.959,197.977,340.164,215.922,340.164z"/>
<g>
	<path style="fill:#FD7D28;" d="M255.196,348.18c0.526,2.59,0.804,5.27,0.804,8.016c0,9.023-2.983,17.348-8.016,24.047H440.36
		V348.18H255.196z"/>
	<path style="fill:#FD7D28;" d="M215.922,316.117v-72.141h-32.063v88.172C191.171,322.415,202.81,316.117,215.922,316.117z"/>
</g>
<g>
	<rect x="31.562" y="100.196" style="fill:#FFFFFF;" width="48.094" height="15.029"/>
	<rect x="95.687" y="100.196" style="fill:#FFFFFF;" width="16.031" height="15.029"/>
	<rect x="127.75" y="100.196" style="fill:#FFFFFF;" width="16.031" height="15.029"/>
	<rect x="304.094" y="140.274" style="fill:#FFFFFF;" width="16.031" height="15.029"/>
	<rect x="304.094" y="172.337" style="fill:#FFFFFF;" width="16.031" height="15.029"/>
	<rect x="135.765" y="164.321" style="fill:#FFFFFF;" width="16.031" height="15.029"/>
	<rect x="87.671" y="164.321" style="fill:#FFFFFF;" width="32.063" height="15.029"/>
	<rect x="207.906" y="348.681" style="fill:#FFFFFF;" width="16.031" height="15.029"/>
</g>
<path d="M464.908,172.337v144.282h-20.143l-11.919,14.898v9.149H260.899c-5.661-16.347-19.986-28.679-37.462-31.463v-57.711h24.047
	v-32.063h40.579v-15.029H71.139v-1.002v-48.094h58.886l48.094-32.063h158.539v81.159h-32.564v15.029h47.593V68.133h-256v15.029
	h240.971v25.049h-163.09l-48.094,32.063H15.029V95.701l18.808-12.538h45.818V68.133H29.286L0,87.657v67.646h32.063v48.094H56.11
	v16.031h104.204v32.063h16.031v78.306c-5.059,7.56-8.016,16.639-8.016,26.399c0,26.242,21.351,47.593,47.593,47.593
	c14.142,0,26.855-6.207,35.58-16.031h181.343v9.149l11.919,14.898h20.143v32.063H512v-271.53H464.908z M47.092,188.368v-33.065
	h9.018v33.065H47.092z M175.342,236.462v-17.033h57.112v17.033h-9.018h-47.092H175.342z M208.407,251.491v57.694
	c-6.082,0.953-11.845,3.06-17.033,6.19v-63.884H208.407z M183.358,356.196c0-15.668,11.124-28.784,25.888-31.873
	c0.082-0.017,0.164-0.034,0.246-0.05c0.42-0.084,0.844-0.159,1.269-0.227c0.201-0.031,0.403-0.06,0.605-0.087
	c0.345-0.048,0.689-0.095,1.038-0.132c0.318-0.034,0.638-0.059,0.958-0.083c0.257-0.02,0.511-0.044,0.77-0.059
	c0.594-0.032,1.19-0.051,1.79-0.051c16.675,0,30.454,12.601,32.336,28.779c0.018,0.159,0.044,0.318,0.06,0.478
	c0.032,0.315,0.05,0.634,0.072,0.952c0.017,0.232,0.041,0.465,0.052,0.698c0.028,0.549,0.042,1.101,0.042,1.656
	c0,0.781-0.038,1.555-0.092,2.326c-0.014,0.197-0.028,0.396-0.045,0.592c-0.063,0.716-0.147,1.43-0.256,2.136
	c-0.037,0.234-0.083,0.465-0.125,0.698c-0.087,0.494-0.188,0.984-0.299,1.472c-0.067,0.294-0.129,0.588-0.203,0.879
	c-0.148,0.581-0.318,1.154-0.498,1.725c-0.115,0.365-0.239,0.725-0.368,1.085c-0.113,0.319-0.236,0.633-0.36,0.949
	c-0.226,0.577-0.469,1.146-0.726,1.707c-0.13,0.284-0.264,0.567-0.402,0.848c-0.178,0.359-0.357,0.716-0.548,1.068
	c-0.269,0.495-0.552,0.983-0.848,1.466c-0.194,0.318-0.398,0.629-0.603,0.94c-0.226,0.343-0.462,0.68-0.701,1.016
	c-5.913,8.258-15.579,13.657-26.489,13.657C197.967,388.759,183.358,374.152,183.358,356.196z M260.574,372.728
	c0.833-2.246,1.481-4.558,1.963-6.914c0.006-0.03,0.012-0.06,0.018-0.09c0.14-0.693,0.266-1.391,0.375-2.092
	c0.019-0.121,0.038-0.242,0.056-0.364c0.091-0.615,0.169-1.233,0.236-1.855c0.02-0.179,0.042-0.358,0.059-0.538
	c0.057-0.588,0.1-1.179,0.135-1.771c0.012-0.194,0.029-0.387,0.038-0.581c0.037-0.772,0.059-1.547,0.059-2.327
	c0-0.167-0.001-0.334-0.002-0.501h169.334v17.033H260.574z M451.987,396.775l-4.112-5.141v-3.877v-47.092v-3.877l4.112-5.141h12.921
	v65.127H451.987z M496.971,428.838h-17.033v-17.033h17.033V428.838z M496.971,396.775h-17.033v-80.157v-97.19h17.033V396.775z
	 M479.937,204.399v-17.033h17.033v17.033H479.937z"/>
<path d="M168.329,152.692v26.658h119.233v-26.658l-12.418-12.418h-94.397L168.329,152.692z M183.358,158.916l3.613-3.613h81.947
	l3.613,3.613v5.405h-89.174v-5.405H183.358z"/>
<g>
</g>
<g>
</g>
<g>
</g>
<g>
</g>
<g>
</g>
<g>
</g>
<g>
</g>
<g>
</g>
<g>
</g>
<g>
</g>
<g>
</g>
<g>
</g>
<g>
</g>
<g>
</g>
<g>
</g>
</svg>
