<?xml version="1.0" encoding="iso-8859-1"?>
<!-- Generator: Adobe Illustrator 19.0.0, SVG Export Plug-In . SVG Version: 6.00 Build 0)  -->
<svg version="1.1" id="Capa_1" xmlns="http://www.w3.org/2000/svg" xmlns:xlink="http://www.w3.org/1999/xlink" x="0px" y="0px"
	 viewBox="0 0 512 512" style="enable-background:new 0 0 512 512;" xml:space="preserve">
<path style="fill:#45C1FF;" d="M320.125,324.133c0,0,107.651,0,108.294,0c42.01,0,76.067-33.894,76.067-75.704
	c0-26.189-13.374-49.252-33.687-62.84c4.503-8.522,7.063-18.209,7.063-28.493c0-33.987-27.812-61.539-62.121-61.539
	c-14.422,0-27.685,4.882-38.228,13.05c-24.841-34.511-65.46-57.007-111.371-57.007c-49.923,0-93.598,26.594-117.522,66.32
	c-10.856-3.712-22.491-5.756-34.613-5.756c-58.815,0-106.494,47.451-106.494,105.985c0.001,58.533,47.68,105.984,106.495,105.984
	c0.151,0,77.866,0,77.866,0H320.125z"/>
<g>
	<rect x="175.843" y="243.977" style="fill:#14A5FF;" width="160.313" height="80.157"/>
	<path style="fill:#14A5FF;" d="M114.009,144.226c12.122,0,23.757,2.044,34.613,5.756c23.923-39.726,67.599-66.32,117.522-66.32
		c45.91,0,86.53,22.496,111.371,57.007c10.543-8.169,23.805-13.05,38.228-13.05c28.707,0,52.854,19.295,59.978,45.505
		c1.393-5.11,2.143-10.48,2.143-16.028c0-33.987-27.812-61.539-62.121-61.539c-14.422,0-27.685,4.882-38.228,13.05
		c-24.842-34.51-65.461-57.006-111.372-57.006c-49.923,0-93.598,26.594-117.522,66.32c-10.855-3.712-22.491-5.756-34.613-5.756
		c-58.815,0-106.494,47.451-106.494,105.985c0,5.45,0.415,10.803,1.211,16.031C16.491,183.253,60.669,144.226,114.009,144.226z"/>
</g>
<rect x="191.875" y="260.008" style="fill:#FFD045;" width="128.25" height="120.235"/>
<rect x="191.875" y="260.008" style="fill:#FFB831;" width="128.25" height="16.031"/>
<rect x="191.875" y="300.086" style="fill:#FD7D28;" width="128.25" height="40.078"/>
<rect x="159.812" y="412.305" style="fill:#FFD045;" width="192.376" height="48.094"/>
<rect x="159.812" y="412.305" style="fill:#FFB831;" width="192.376" height="24.047"/>
<g>
	<circle style="fill:#FFD045;" cx="95.687" cy="195.883" r="16.031"/>
	<circle style="fill:#FFD045;" cx="416.313" cy="195.883" r="16.031"/>
</g>
<path d="M359.703,467.914H152.297v-63.123h207.405V467.914z M167.327,452.885h177.346V419.82H167.327V452.885z"/>
<rect x="183.859" y="428.838" style="fill:#FFFFFF;" width="16.031" height="15.029"/>
<rect x="215.922" y="428.838" width="16.031" height="15.029"/>
<rect x="247.984" y="428.838" style="fill:#FFFFFF;" width="16.031" height="15.029"/>
<rect x="280.047" y="428.838" width="16.031" height="15.029"/>
<rect x="312.11" y="428.838" style="fill:#FFFFFF;" width="16.031" height="15.029"/>
<path d="M303.593,267.522h-95.186v-65.628c0-16.299,13.259-29.558,29.558-29.558h36.07c16.299,0,29.558,13.259,29.558,29.558
	V267.522z M223.436,252.493h65.127v-50.599c0-8.011-6.518-14.528-14.528-14.528h-36.07c-8.011,0-14.528,6.518-14.528,14.528V252.493
	z"/>
<path d="M428.419,331.648h-20.121v-15.029h20.121c37.8,0,68.552-30.589,68.552-68.189c0-22.725-11.346-43.882-30.35-56.593
	l-5.631-3.767l3.165-5.991c4.109-7.776,6.193-16.181,6.193-24.983c0-29.789-24.497-54.025-54.607-54.025
	c-12.308,0-23.936,3.968-33.625,11.475l-6.154,4.768l-4.548-6.318c-24.285-33.738-63.64-53.881-105.272-53.881
	c-22.776,0-45.169,5.968-64.757,17.259c-19.01,10.958-35.029,26.664-46.326,45.423l-3.129,5.197l-5.74-1.963
	c-10.385-3.552-21.212-5.352-32.182-5.352c-3.194,0-6.422,0.153-9.591,0.456l-1.429-14.961c3.642-0.349,7.35-0.524,11.02-0.524
	c10.633,0,21.148,1.47,31.342,4.375c12.359-18.722,29.035-34.434,48.529-45.67c21.869-12.606,46.857-19.268,72.264-19.268
	c43.984,0,85.692,20.153,113.008,54.257c10.968-6.76,23.479-10.3,36.59-10.3c38.397,0,69.636,30.978,69.636,69.054
	c0,8.922-1.768,17.815-5.151,26.058C500.233,198.888,512,222.84,512,248.429C512,294.316,474.506,331.648,428.419,331.648z"/>
<path d="M392.266,316.618H327.64v-64.125H184.36v64.125h-70.351c-54.578,0-98.979-44.173-98.979-98.469
	c0-45.086,30.63-84.33,74.486-95.434l-3.689-14.569C35.293,120.939,0,166.176,0,218.149c0,62.583,51.144,113.499,114.009,113.499
	h70.351v1.002v55.108h143.28V332.65v-1.002h64.626V316.618z M199.389,267.522h113.221v25.049H199.389V267.522z M312.611,372.728
	H199.389v-25.049h113.221V372.728z M199.389,332.65v-25.049h113.221v25.049H199.389z"/>
<path style="fill:#FFFFFF;" d="M367.926,158.66l-4.548-6.318c-18.476-25.669-41.704-37.117-75.315-37.117v-15.029
	c35.829,0,62.432,11.988,83.129,37.613c7.668-4.326,16.277-6.585,25.268-6.585v15.029c-8.193,0-15.932,2.641-22.381,7.638
	L367.926,158.66z"/>
<path d="M103.202,244.477v-26.285c9.308-3.144,16.031-11.953,16.031-22.31c0-12.983-10.563-23.546-23.546-23.546
	s-23.546,10.563-23.546,23.546c0,10.356,6.723,19.165,16.031,22.31v41.315h31.562v-15.029H103.202z M95.687,187.366
	c4.696,0,8.517,3.82,8.517,8.517c0,3.695-2.37,6.839-5.667,8.016h-5.7c-3.296-1.176-5.667-4.32-5.667-8.016
	C87.17,191.186,90.991,187.366,95.687,187.366z"/>
<rect x="135.765" y="244.477" width="16.031" height="15.029"/>
<path d="M439.859,195.883c0-12.983-10.563-23.546-23.546-23.546s-23.546,10.563-23.546,23.546c0,10.356,6.723,19.165,16.031,22.31
	v26.285h-16.532v15.029h31.562v-41.315C433.136,215.048,439.859,206.239,439.859,195.883z M419.163,203.898h-5.7
	c-3.296-1.176-5.667-4.32-5.667-8.016c0-4.696,3.82-8.517,8.517-8.517c4.696,0,8.517,3.82,8.517,8.517
	C424.83,199.578,422.46,202.722,419.163,203.898z"/>
<rect x="360.204" y="244.477" width="16.031" height="15.029"/>
<g>
	<rect x="256" y="100.196" style="fill:#FFFFFF;" width="16.031" height="15.029"/>
	<rect x="223.937" y="100.196" style="fill:#FFFFFF;" width="16.031" height="15.029"/>
</g>
<g>
</g>
<g>
</g>
<g>
</g>
<g>
</g>
<g>
</g>
<g>
</g>
<g>
</g>
<g>
</g>
<g>
</g>
<g>
</g>
<g>
</g>
<g>
</g>
<g>
</g>
<g>
</g>
<g>
</g>
</svg>
