<?xml version="1.0" encoding="iso-8859-1"?>
<!-- Generator: Adobe Illustrator 19.0.0, SVG Export Plug-In . SVG Version: 6.00 Build 0)  -->
<svg version="1.1" id="Capa_1" xmlns="http://www.w3.org/2000/svg" xmlns:xlink="http://www.w3.org/1999/xlink" x="0px" y="0px"
	 viewBox="0 0 512 512" style="enable-background:new 0 0 512 512;" xml:space="preserve">
<rect x="71.824" y="197.184" transform="matrix(-0.866 0.5 -0.5 -0.866 632.3489 449.1404)" style="fill:#FD7D28;" width="368.352" height="224.214"/>
<path style="fill:#FD5900;" d="M243.337,360.352c-72.786,0-141.167-18.858-200.527-51.953l109.74,190.078l319.009-184.18
	l-9.588-16.608C398.588,337.395,323.644,360.352,243.337,360.352z"/>
<g>
	<path style="fill:#FFD045;" d="M420.332,297.64l-52.013,30.029l-14.014-24.273c-1.106-1.915-0.449-4.364,1.465-5.469l52.013-30.029
		l14.014,24.273C422.903,294.085,422.247,296.534,420.332,297.64z"/>
	<path style="fill:#FFD045;" d="M181.573,324.527l-65.882,38.037c-1.915,1.106-4.364,0.449-5.469-1.465l-10.01-17.337L88.2,322.956
		l65.882-38.037c1.915-1.106,4.364-0.449,5.469,1.465L181.573,324.527z"/>
	<polygon style="fill:#FFD045;" points="271.364,271.039 209.313,308.511 197.302,287.707 259.352,250.234 	"/>
	<path style="fill:#FFD045;" d="M359.45,88.086h-48.047l0,0c0-13.268,10.755-24.023,24.023-24.023l0,0
		C348.694,64.063,359.45,74.818,359.45,88.086L359.45,88.086z"/>
	<path style="fill:#FFD045;" d="M121.217,136.133H85.182c-3.317,0-6.006,2.689-6.006,6.006v44.043c0,3.317,2.689,6.006,6.006,6.006
		h36.035c3.317,0,6.006-2.689,6.006-6.006v-44.043C127.223,138.822,124.534,136.133,121.217,136.133z"/>
</g>
<path d="M219.063,468.745l-7.507-13.003l-56.257,32.479L50.697,307.045l306.006-176.673l10.119,17.528l13.003-7.507l-17.626-30.531
	l-19.264,11.122V95.593h24.023v-7.507c0-14.799-10.251-27.243-24.023-30.621V0h-15.015v57.465
	c-13.772,3.377-24.023,15.821-24.023,30.621v7.507h24.023v34.059L30.185,301.549l112.835,195.436h-39.822V512h200.196v-15.015
	H170.147L219.063,468.745z M335.427,71.57c6.405,0,11.971,3.665,14.709,9.009h-29.42C323.456,75.234,329.02,71.57,335.427,71.57z"/>
<polygon points="461.305,311.548 227.572,446.495 235.08,459.498 481.815,317.044 389.067,156.4 376.063,163.907 "/>
<rect x="71.17" y="496.985" width="16.016" height="15.015"/>
<rect x="319.412" y="496.985" width="16.016" height="15.015"/>
<rect x="351.443" y="496.985" width="16.016" height="15.015"/>
<rect x="383.474" y="496.985" width="64.063" height="15.015"/>
<path d="M158.754,160.156v-23.523h-25.208c-2.113-4.713-6.839-8.008-12.329-8.008h-10.51V0H95.692v128.626h-10.51
	c-5.49,0-10.216,3.295-12.329,8.008H47.646v23.523H62.66v-8.508h9.009v17.017H47.646v23.523H62.66v-8.508h9.009v2.502
	c0,7.451,6.062,13.513,13.513,13.513h10.51v8.508h15.015v-8.508h10.51c7.451,0,13.513-6.062,13.513-13.513v-2.502h9.009v8.508
	h15.015v-23.523h-24.023v-17.017h9.009v8.508H158.754z M119.716,184.68h-9.009v-8.508H95.692v8.508h-9.009v-41.04h33.032V184.68z"/>
<polygon points="330.528,247.742 300.285,247.742 287.905,235.363 287.435,178.814 314.953,195.439 307.187,208.289 
	302.673,205.562 302.869,229.091 306.504,232.727 324.309,232.727 327.919,229.118 327.919,160.156 342.934,160.156 
	342.934,235.336 "/>
<path d="M166.054,282.631c-3.173-5.496-10.23-7.389-15.725-4.214l-72.384,41.791l19.519,33.808l0,0l6.256,10.836
	c1.537,2.663,4.02,4.567,6.99,5.363c0.991,0.265,1.997,0.396,2.997,0.396c1.994,0,3.964-0.523,5.737-1.548l72.384-41.791
	L166.054,282.631z M149.646,334.291l-4.504-7.802l21.672-12.512l4.504,7.802L149.646,334.291z M154.801,293.172l4.505,7.803
	L130.7,317.491l-4.504-7.803L154.801,293.172z M113.193,317.196l4.504,7.803l-14.736,8.508l-4.504-7.803L113.193,317.196z
	 M114.971,354.311l-4.504-7.802l21.671-12.512l4.504,7.802L114.971,354.311z"/>
<path d="M206.64,318.895l-19.52-33.809l74.905-45.236l19.52,33.81L206.64,318.895z M207.484,290.328l4.503,7.8l49.194-29.709
	l-4.503-7.801L207.484,290.328z"/>
<path d="M365.572,337.924l-17.767-30.774c-1.538-2.663-1.946-5.765-1.15-8.735c0.796-2.971,2.701-5.452,5.363-6.99l58.514-33.783
	l17.767,30.774c1.538,2.663,1.946,5.765,1.15,8.735c-0.796,2.971-2.701,5.452-5.363,6.99L365.572,337.924z M362.559,302.677
	l8.508,14.737l42.478-24.524l-8.508-14.737L362.559,302.677z M416.579,291.138c-0.002,0.001-0.005,0.003-0.007,0.004
	L416.579,291.138z"/>
<rect x="156.24" y="433.769" transform="matrix(-0.5 -0.866 0.866 -0.5 -140.4325 810.4837)" width="15.014" height="24.023"/>
<g>
	
		<rect x="187.443" y="419.749" transform="matrix(-0.5 -0.866 0.866 -0.5 -78.0175 810.4697)" style="fill:#FFFFFF;" width="15.014" height="16.015"/>
	
		<rect x="277.598" y="367.699" transform="matrix(-0.5 -0.866 0.866 -0.5 102.2917 810.4713)" style="fill:#FFFFFF;" width="15.014" height="16.015"/>
</g>
<rect x="232.523" y="373.709" transform="matrix(-0.5 -0.866 0.866 -0.5 12.1375 810.4784)" width="15.014" height="56.054"/>
<rect x="312.272" y="339.669" transform="matrix(-0.5 -0.866 0.866 -0.5 171.6426 810.4658)" width="15.014" height="32.031"/>
<rect x="206.103" y="371.998" transform="matrix(-0.5 -0.866 0.866 -0.5 -8.6741 755.0031)" style="fill:#FFFFFF;" width="15.014" height="16.015"/>
<rect x="171.424" y="384.003" transform="matrix(-0.5 -0.866 0.866 -0.5 -78.0241 754.9897)" width="15.014" height="32.031"/>
<rect x="282.387" y="327.954" transform="matrix(-0.5 -0.866 0.866 -0.5 143.895 754.9993)" style="fill:#FFFFFF;" width="15.014" height="16.015"/>
<rect x="247.713" y="339.968" transform="matrix(-0.5 -0.866 0.866 -0.5 74.5459 755.0033)" width="15.014" height="32.03"/>
<g>
</g>
<g>
</g>
<g>
</g>
<g>
</g>
<g>
</g>
<g>
</g>
<g>
</g>
<g>
</g>
<g>
</g>
<g>
</g>
<g>
</g>
<g>
</g>
<g>
</g>
<g>
</g>
<g>
</g>
</svg>
