<?xml version="1.0" encoding="iso-8859-1"?>
<!-- Generator: Adobe Illustrator 19.0.0, SVG Export Plug-In . SVG Version: 6.00 Build 0)  -->
<svg version="1.1" id="Capa_1" xmlns="http://www.w3.org/2000/svg" xmlns:xlink="http://www.w3.org/1999/xlink" x="0px" y="0px"
	 viewBox="0 0 511.998 511.998" style="enable-background:new 0 0 511.998 511.998;" xml:space="preserve">
<path style="fill:#45C1FF;" d="M432.169,255.185c0.327,101.719-78.281,184.433-175.577,184.746S80.154,358.04,79.826,256.32
	C79.499,154.601,158.108,71.887,255.404,71.574c60.537-0.195,114.045,31.555,145.915,80.074
	C420.671,181.11,432.044,216.756,432.169,255.185z"/>
<path style="fill:#14A5FF;" d="M255.404,103.602c60.537-0.195,114.045,31.555,145.915,80.074
	c16.735,25.478,27.496,55.58,30.182,88.108c0.449-5.47,0.685-11.004,0.667-16.599c-0.124-38.431-11.497-74.075-30.849-103.537
	c-31.87-48.519-85.378-80.269-145.915-80.074C158.108,71.887,79.499,154.601,79.826,256.32c0.017,5.19,0.249,10.325,0.668,15.405
	C88.23,177.771,163.468,103.898,255.404,103.602z"/>
<path style="fill:#88D7FF;" d="M259.1,71.572C194.741,106.69,151.022,176.204,151.28,256.1
	c0.258,79.896,44.422,149.127,109.006,183.83c64.359-35.118,108.078-104.632,107.819-184.528
	C367.848,175.505,323.684,106.275,259.1,71.572z"/>
<path style="fill:#43B7FF;" d="M259.1,95.593c61.501,33.046,104.484,97.403,108.67,172.462c0.231-4.187,0.349-8.405,0.336-12.654
	c-0.257-79.896-44.422-149.127-109.006-183.83C194.741,106.69,151.022,176.204,151.279,256.1c0.012,3.815,0.126,7.603,0.336,11.367
	C155.739,192.93,198.163,128.844,259.1,95.593z"/>
<path style="fill:#14A5FF;" d="M255.404,407.899c60.537,0.195,114.045-31.555,145.915-80.074
	c16.735-25.478,27.496-55.58,30.182-88.108c0.449,5.47,0.685,11.004,0.667,16.599c-0.124,38.431-11.497,74.075-30.849,103.537
	c-31.87,48.519-85.378,80.269-145.915,80.074c-97.297-0.313-175.906-83.027-175.577-184.746c0.017-5.19,0.249-10.325,0.668-15.405
	C88.23,333.731,163.468,407.603,255.404,407.899z"/>
<path style="fill:#43B7FF;" d="M259.1,415.908c61.501-33.046,104.484-97.403,108.67-172.462c0.231,4.187,0.349,8.405,0.336,12.654
	c-0.257,79.896-44.422,149.127-109.006,183.83c-64.359-35.118-108.078-104.632-107.82-184.528c0.012-3.815,0.126-7.603,0.336-11.367
	C155.739,318.571,198.163,382.658,259.1,415.908z"/>
<path style="fill:#FFD045;" d="M262.338,348.587l-5.557,3.556l-5.611-3.47c-44.342-27.423-71.492-75.699-71.892-127.835
	l-0.096-12.47l76.122-48.708l76.861,47.533l0.096,12.47C332.66,271.8,306.255,320.487,262.338,348.587z"/>
<path style="fill:#FFB831;" d="M180.549,239.226l74.755-47.833l75.938,46.963c0.716-6.161,1.067-12.4,1.019-18.691l-0.096-12.47
	l-76.861-47.533l-76.122,48.708l0.096,12.47C179.325,227.033,179.762,233.169,180.549,239.226z"/>
<g>
	<circle style="fill:#FFD045;" cx="256.248" cy="23.524" r="16.016"/>
	<circle style="fill:#FFD045;" cx="257.749" cy="487.977" r="16.016"/>
	<circle style="fill:#FFD045;" cx="420.708" cy="91.039" r="16.016"/>
	<circle style="fill:#FFD045;" cx="93.289" cy="420.461" r="16.016"/>
	<circle style="fill:#FFD045;" cx="92.238" cy="92.1" r="16.016"/>
	<circle style="fill:#FFD045;" cx="421.759" cy="419.4" r="16.016"/>
	<circle style="fill:#FFD045;" cx="489.225" cy="254.999" r="16.016"/>
	<circle style="fill:#FFD045;" cx="24.773" cy="256.5" r="16.016"/>
</g>
<g>
	<polygon style="fill:#FFFFFF;" points="214.282,234.339 206.231,221.666 254.751,190.84 303.543,221.233 295.605,233.977 
		254.829,208.579 	"/>
	<path style="fill:#FFFFFF;" d="M255.331,320.957l-7.278-4.532c-13.117-8.17-24.188-19.529-32.019-32.848l12.945-7.609
		c6.458,10.987,15.531,20.391,26.274,27.247c10.284-6.694,19.034-15.769,25.337-26.296l12.882,7.713
		c-7.648,12.773-18.333,23.745-30.901,31.728L255.331,320.957z"/>
	<rect x="247.489" y="239.734" style="fill:#FFFFFF;" width="15.015" height="16.016"/>
</g>
<path d="M488.224,232.477c-10.713,0-19.77,7.257-22.6,17.267H438.56c-1.484-47.046-18.69-88.515-46.204-120.857l16.488-16.847
	c3.445,1.913,7.336,2.573,11.386,2.573c0.002,0,0.002,0,0.004,0c6.28,0,11.937-2.208,16.942-6.647c0,0,0,0.119,0,0.118
	c4.004-4.442,6.736-10.288,6.737-16.572c0.001-6.284-2.522-12.4-6.965-16.842c-4.442-4.444-10.427-7.103-16.71-7.103
	c-0.002,0-0.002,0-0.004,0c-6.281,0-12.188,2.685-16.629,7.126c-4.444,4.442-6.893,10.468-6.894,16.752
	c0,3.325,0.691,6.602,1.994,9.555l-16.525,16.55c-1.117-1.12-2.247-2.211-3.39-3.301l-6.3-5.847
	c-11.575-10.063-24.248-18.523-37.675-25.278c-0.316-0.16-0.635-0.312-0.952-0.47c-0.816-0.404-1.634-0.805-2.455-1.197
	c-0.77-0.368-1.542-0.729-2.317-1.087c-0.326-0.15-0.652-0.299-0.979-0.447c-17.652-8.025-36.737-13.234-56.733-15.088
	c-0.222-0.021-0.444-0.042-0.668-0.062c-1.025-0.091-2.053-0.174-3.083-0.247c-0.511-0.037-1.024-0.069-1.536-0.102
	c-0.836-0.052-1.923-0.103-2.763-0.144c-0.357-0.018-0.323-0.029-1.324-0.043V46.123c10.011-2.83,17.268-11.887,17.268-22.6
	C279.27,10.552,268.843,0,255.872,0s-23.711,10.552-23.711,23.523c0,9.971,6.82,18.506,14.827,21.924v18.788
	c0,0.014-0.465,0.025-0.824,0.043c-0.84,0.041-1.551,0.092-2.387,0.144c-0.512,0.032-0.962,0.065-1.473,0.102
	c-1.03,0.073-2.027,0.156-3.052,0.247c-0.222,0.02-0.429,0.041-0.652,0.062c-19.998,1.854-39.074,7.063-56.726,15.088
	c-0.326,0.148-0.649,0.297-0.975,0.447c-0.775,0.358-1.547,0.719-2.315,1.087c-0.822,0.392-1.638,0.794-2.454,1.198
	c-0.317,0.158-0.636,0.312-0.951,0.472c-13.427,6.755-26.099,15.219-37.674,25.282l-6.299,5.855
	c-0.803,0.765-1.59,1.548-2.379,2.326l-15.535-15.53c1.303-2.953,1.994-6.17,1.994-9.495c-0.001-6.283-2.448-12.429-6.893-16.87
	c-4.442-4.442-10.349-7.127-16.63-7.127c-0.001,0-0.003,0-0.004,0c-6.283,0-12.191,2.688-16.631,7.132
	c-4.442,4.443-7.044,10.47-7.043,16.754s2.733,12.249,6.737,16.691c0,0,0-0.209,0-0.208c5.005,4.441,10.659,6.678,16.942,6.678
	c0.001,0,0.003,0,0.004,0c4.05,0,7.941-0.784,11.387-2.698l15.41,15.775c-28.052,32.48-45.629,75.006-47.129,122.052H46.371
	c-2.83-10.01-11.887-17.267-22.6-17.267c-12.971,0-23.523,10.427-23.523,23.398s10.552,23.711,23.523,23.711
	c9.971,0,18.506-6.82,21.924-14.827h25.817c1.901,45.044,18.854,86.09,45.749,117.902l-16.001,16.109
	c-2.953-1.303-6.169-1.883-9.494-1.883c-0.002,0-0.002,0-0.004,0c-6.281,0-12.188,2.207-16.629,6.647
	c-4.444,4.442-6.893,10.229-6.894,16.513c-0.001,6.284,2.444,12.37,6.887,16.812c4.442,4.444,10.349,7.073,16.632,7.073
	c0.002,0,0.002,0,0.004,0c6.28,0,12.087-2.686,17.092-7.126c0,0,0-0.119,0-0.12c4.004-4.442,6.661-10.408,6.662-16.691
	c0.001-4.05-1.136-7.971-3.048-11.417l14.996-15.063c1.251,1.262,2.485,2.503,3.771,3.729l6.285,5.851
	c11.575,10.063,24.24,18.524,37.667,25.279c0.317,0.16,0.634,0.315,0.953,0.473c0.814,0.403,1.628,0.804,2.447,1.194
	c0.771,0.369,1.545,0.73,2.32,1.089c0.325,0.149,0.651,0.299,0.977,0.446c17.654,8.026,36.74,13.235,56.739,15.088
	c0.219,0.021,0.438,0.041,0.657,0.061c1.027,0.091,2.057,0.174,3.088,0.247c0.512,0.037,1.024,0.069,1.536,0.102
	c0.836,0.052,1.422,0.103,2.262,0.144c0.357,0.018,0.824,0.029,0.824,0.043v19.289c-8.008,3.418-14.764,11.954-14.764,21.924
	c0,12.971,10.677,23.523,23.648,23.523s23.336-10.552,23.336-23.523c0-10.713-7.195-19.77-17.205-22.6v-18.612
	c1.001-0.014,0.966-0.025,1.324-0.043c0.84-0.041,1.801-0.092,2.638-0.144c0.512-0.032,1.087-0.065,1.599-0.102
	c1.032-0.073,2.092-0.156,3.12-0.247c0.219-0.02,0.453-0.041,0.673-0.061c20-1.853,39.093-7.062,56.747-15.088
	c0.326-0.148,0.657-0.297,0.982-0.447c0.776-0.358,1.552-0.72,2.323-1.089c0.82-0.391,1.636-0.792,2.45-1.195
	c0.318-0.159,0.64-0.314,0.957-0.474c13.427-6.755,26.099-15.219,37.674-25.281l6.517-5.666l-0.217-0.189
	c1.626-1.551,3.215-3.141,4.787-4.752l16.069,16.063c-1.912,3.446-3.164,7.337-3.163,11.387c0.001,6.283,2.658,12.19,6.662,16.631
	c0,0,0,0.239,0,0.24c5.005,4.441,10.811,7.126,17.092,7.126c0.001,0,0.003,0,0.004,0c6.283,0,12.191-2.688,16.631-7.132
	c4.442-4.443,6.889-10.47,6.888-16.754c-0.001-6.284-2.448-12.012-6.893-16.452c-4.442-4.442-10.349-6.709-16.63-6.709
	c-0.001,0-0.003,0-0.004,0c-3.325,0-6.541,0.453-9.494,1.758l-17.092-16.955c26.365-31.661,42.959-72.888,44.838-116.931h27.819
	c3.418,8.008,11.954,14.764,21.924,14.764c12.971,0,23.523-10.552,23.523-23.523S501.195,232.477,488.224,232.477z M97.843,425.949
	v0.24c-2.002,1.606-3.81,2.73-6.081,2.73c-0.001,0-0.001,0-0.002,0c-2.272,0-4.408-1.125-6.016-2.733
	c-1.606-1.607-2.49-3.864-2.49-6.136s0.886-4.229,2.493-5.837c1.607-1.606,3.743-2.311,6.015-2.311c0.001,0,0.001,0,0.002,0
	c2.272,0,4.408,0.647,6.016,2.254c1.607,1.607,2.524,3.625,2.523,5.896C100.303,422.325,99.845,424.343,97.843,425.949z
	 M420.231,411.902c0.001,0,0.001,0,0.002,0c2.272,0,4.408,0.646,6.016,2.252c1.607,1.606,2.492,3.624,2.492,5.895
	c0,2.273-0.885,4.588-2.491,6.197c-1.606,1.607-3.743,2.672-6.015,2.672c-0.001,0-0.001,0-0.002,0c-2.272,0-4.079-1.124-6.081-2.73
	v-0.12c-2.002-1.606-2.46-3.803-2.46-6.075c-0.001-2.272,0.9-4.199,2.508-5.808C415.807,412.579,417.96,411.902,420.231,411.902z
	 M414.218,85.31c1.607-1.606,3.743-2.73,6.015-2.73c0.001,0,0.001,0,0.002,0c2.272,0,4.408,1.125,6.016,2.733
	c1.606,1.607,2.448,3.864,2.448,6.136c0,2.272-0.534,4.468-2.535,6.074v-0.208c-2.002,1.606-3.659,2.281-5.931,2.281
	c-0.001,0-0.001,0-0.002,0c-2.272,0-4.408-0.647-6.016-2.254c-1.607-1.607-2.491-3.744-2.49-6.016
	C411.725,89.054,412.61,86.918,414.218,85.31z M325.67,95.357c0.64,0.31,1.279,0.62,1.914,0.938
	c0.317,0.158,0.633,0.319,0.949,0.479c9.599,4.892,18.694,10.706,27.175,17.34c-7.685,5.993-15.825,11.258-24.312,15.77
	c-12.79-18.215-28.406-34.442-46.433-47.983C299.033,84.569,312.717,89.101,325.67,95.357z M255.43,343.273l-1.592-0.991
	c-42.32-26.362-67.719-71.867-67.942-121.726l-0.036-8.323l68.792-43.707l69.179,43.092l0.037,8.323
	c0.222,49.861-24.771,95.589-66.855,122.326L255.43,343.273z M170.881,220.621c0.042,9.449,0.952,18.862,2.662,28.121h-19.307
	c1.29-36.035,11.778-70.05,29.7-99.36c16.308,7.135,33.583,11.737,51.264,13.711l-64.393,40.91L170.881,220.621z M177.067,263.758
	c3.355,11.714,8.035,23.054,13.997,33.736c11.211,20.087,26.746,37.554,45.296,51.077c-18.087,1.988-35.761,6.818-52.425,14.109
	c-17.924-29.31-28.41-63.887-29.7-98.922H177.067z M319.383,296.923c5.752-10.524,10.27-21.666,13.509-33.165h22.865
	c-1.29,35.034-11.777,69.55-29.7,98.86c-16.479-7.21-33.946-11.974-51.823-13.984C292.801,334.913,308.29,317.221,319.383,296.923z
	 M336.347,248.743c1.713-9.507,2.578-19.174,2.534-28.869l-0.074-16.617l-64.389-40.108c17.811-1.933,35.215-6.518,51.637-13.703
	c17.923,29.31,28.41,63.262,29.7,99.297h-19.409V248.743z M317.109,136.427c-17.483,7.317-36.087,11.568-55.106,12.459V84.676
	C284.025,98.367,302.374,116.003,317.109,136.427z M255.997,15.015c4.692,0,8.508,3.817,8.508,8.508s-3.817,8.508-8.508,8.508
	s-8.508-3.817-8.508-8.508S251.306,15.015,255.997,15.015z M246.989,84.676v64.211c-18.018-0.891-37.623-5.141-55.106-12.459
	C206.618,116.003,225.968,98.367,246.989,84.676z M181.461,96.775c0.316-0.16,0.632-0.321,0.949-0.479
	c0.635-0.318,1.275-0.628,1.914-0.938c12.953-6.256,26.638-10.789,40.708-13.456c-18.028,13.541-33.644,29.768-46.433,47.983
	c-8.487-4.512-16.628-9.778-24.312-15.77C162.766,107.481,171.861,101.666,181.461,96.775z M91.764,99.597c-0.001,0-0.001,0-0.002,0
	c-2.272,0-3.929-0.646-5.931-2.252v0.118c-2.002-1.606-2.535-3.684-2.535-5.955c0-2.273,0.864-4.619,2.47-6.227
	c1.606-1.607,3.722-2.702,5.994-2.702c0.001,0,0.001,0,0.002,0c2.272,0,4.408,1.124,6.016,2.731
	c1.607,1.606,2.492,3.863,2.492,6.135c0.001,2.272-0.884,4.229-2.491,5.838C96.172,98.891,94.035,99.597,91.764,99.597z
	 M142.686,124.315c8.715,7.03,17.986,13.326,27.69,18.578c-18.885,31.349-29.893,66.812-31.173,105.85H86.495
	C88.471,198.694,109.789,155.132,142.686,124.315z M23.771,264.258c-4.692,0-8.508-3.817-8.508-8.508s3.817-8.508,8.508-8.508
	s8.508,3.817,8.508,8.508C32.279,260.441,28.462,264.258,23.771,264.258z M86.495,263.758h52.707
	c1.281,38.037,12.288,74.126,31.173,105.475c-9.704,5.251-18.976,11.547-27.69,18.578
	C109.789,356.993,88.471,312.805,86.495,263.758z M184.324,416.142c-0.64-0.31-1.279-0.62-1.914-0.938
	c-0.317-0.158-0.633-0.319-0.949-0.479c-9.599-4.892-18.694-10.706-27.175-17.34c7.685-5.993,15.825-11.258,24.312-15.77
	c12.79,18.216,28.406,34.442,46.433,47.983C210.961,426.931,197.276,422.398,184.324,416.142z M192.555,375.072
	c17.584-7.36,36.417-11.619,55.435-12.476v64.439C225.968,413.313,207.364,395.599,192.555,375.072z M255.997,496.985
	c-4.692,0-8.508-3.817-8.508-8.508s3.817-8.508,8.508-8.508c4.692,0,8.508,3.817,8.508,8.508S260.689,496.985,255.997,496.985z
	 M263.004,426.614V362.63c19.019,0.924,37.395,5.166,54.776,12.441C303.121,395.393,284.025,412.951,263.004,426.614z
	 M328.532,414.725c-0.316,0.16-0.632,0.321-0.949,0.479c-0.635,0.318-1.275,0.628-1.914,0.938
	c-12.953,6.256-26.638,10.789-40.708,13.456c18.028-13.541,33.644-29.768,46.433-47.983c8.487,4.512,16.628,9.778,24.312,15.77
	C347.227,404.019,338.132,409.833,328.532,414.725z M367.307,387.685c-8.715-7.03-17.986-13.076-27.69-18.328
	c18.885-31.349,29.893-67.563,31.173-105.6h52.707C421.522,312.805,400.204,356.868,367.307,387.685z M370.792,248.743
	c-1.281-39.038-12.288-74.627-31.173-105.976c9.704-5.251,18.976-11.297,27.69-18.328c32.897,30.817,54.215,74.254,56.191,124.302
	h-52.707V248.743z M488.224,264.258c-4.692,0-8.508-3.817-8.508-8.508s3.817-8.508,8.508-8.508s8.508,3.817,8.508,8.508
	C496.733,260.441,492.916,264.258,488.224,264.258z"/>
<g>
</g>
<g>
</g>
<g>
</g>
<g>
</g>
<g>
</g>
<g>
</g>
<g>
</g>
<g>
</g>
<g>
</g>
<g>
</g>
<g>
</g>
<g>
</g>
<g>
</g>
<g>
</g>
<g>
</g>
</svg>
