<?xml version="1.0" encoding="iso-8859-1"?>
<!-- Generator: Adobe Illustrator 19.0.0, SVG Export Plug-In . SVG Version: 6.00 Build 0)  -->
<svg version="1.1" id="Capa_1" xmlns="http://www.w3.org/2000/svg" xmlns:xlink="http://www.w3.org/1999/xlink" x="0px" y="0px"
	 viewBox="0 0 512 512" style="enable-background:new 0 0 512 512;" xml:space="preserve">
<polyline style="fill:#DAF3FF;" points="456.391,39.577 7.515,39.577 7.515,312.11 504.485,312.11 504.485,39.577 472.423,39.577 
	"/>
<path style="fill:#99C4FF;" d="M256,288.063c-39.685,0-77.871-10.52-110.431-30.42c-31.962-19.536-56.423-46.72-70.739-78.616
	l-1.429-3.182l1.429-3.182c14.316-31.895,38.777-59.08,70.739-78.616C178.129,74.144,216.315,63.624,256,63.624
	s77.871,10.52,110.431,30.42c31.962,19.536,56.423,46.72,70.739,78.616l1.429,3.182l-1.429,3.182
	c-14.316,31.895-38.777,59.08-70.739,78.616C333.871,277.543,295.685,288.063,256,288.063z M90.484,175.843
	c13.207,27.655,34.989,51.299,63.19,68.536c30.119,18.41,65.503,28.14,102.325,28.14s72.206-9.73,102.325-28.14
	c28.201-17.237,49.985-40.881,63.19-68.536c-13.207-27.655-34.989-51.299-63.19-68.536c-30.119-18.41-65.503-28.14-102.325-28.14
	s-72.206,9.73-102.325,28.14C125.473,124.544,103.691,148.188,90.484,175.843z"/>
<path style="fill:#CCF4CF;" d="M256,79.656c-72.78,0-135.024,39.845-160.313,96.188c25.289,56.343,87.533,96.188,160.313,96.188
	s135.024-39.845,160.313-96.188C391.024,119.5,328.78,79.656,256,79.656z"/>
<circle style="fill:#00C70D;" cx="256" cy="175.843" r="96.188"/>
<path style="fill:#00A90B;" d="M256,103.703c49.051,0,89.524,36.717,95.441,84.164c0.491-3.939,0.746-7.952,0.746-12.023
	c0-53.123-43.065-96.188-96.188-96.188s-96.188,43.065-96.188,96.188c0,4.072,0.256,8.085,0.746,12.023
	C166.476,140.419,206.949,103.703,256,103.703z"/>
<polygon style="fill:#45C1FF;" points="31.562,376.235 7.515,376.235 7.515,312.11 504.485,312.11 504.485,376.235 47.593,376.235 
	"/>
<polygon style="fill:#14A5FF;" points="31.563,336.157 7.516,336.157 7.516,312.11 504.486,312.11 504.486,336.157 47.594,336.157 
	"/>
<polygon style="fill:#45C1FF;" points="304.094,472.423 207.906,472.423 207.906,456.391 223.937,376.235 288.063,376.235 
	304.094,456.391 "/>
<polygon style="fill:#14A5FF;" points="288.063,376.235 223.937,376.235 219.128,400.282 292.872,400.282 "/>
<polygon style="fill:#CCF4CF;" points="304.094,159.812 272.031,159.812 272.031,127.75 239.969,127.75 239.969,159.812 
	207.906,159.812 207.906,191.875 239.969,191.875 239.969,223.937 272.031,223.937 272.031,191.875 304.094,191.875 "/>
<g>
	<circle style="fill:#00C70D;" cx="456.391" cy="127.75" r="16.031"/>
	<circle style="fill:#00C70D;" cx="55.609" cy="223.937" r="16.031"/>
</g>
<rect x="55.609" y="88.172" width="32.063" height="15.029"/>
<rect x="64.125" y="79.656" width="15.029" height="32.063"/>
<g>
	<rect x="111.718" y="72.141" style="fill:#FFFFFF;" width="16.031" height="15.029"/>
	<rect x="39.577" y="128.25" style="fill:#FFFFFF;" width="16.031" height="15.029"/>
</g>
<path d="M423.169,172.766c-13.214-29.438-35.788-54.528-65.284-72.558c-29.178-17.834-63.254-27.474-98.732-28.015
	c-1.048-0.032-2.098-0.053-3.153-0.053c-1.055,0-2.105,0.021-3.153,0.052c-35.478,0.542-69.555,10.182-98.732,28.015
	c-29.496,18.029-52.071,43.119-65.284,72.558l-1.381,3.077l1.381,3.077c13.214,29.438,35.788,54.528,65.284,72.558
	c29.178,17.834,63.254,27.474,98.732,28.015c1.048,0.031,2.098,0.052,3.153,0.052c1.055,0,2.105-0.021,3.153-0.052
	c35.478-0.542,69.555-10.182,98.732-28.015c29.496-18.029,52.071-43.119,65.284-72.558l1.381-3.077L423.169,172.766z
	 M258.688,87.214c47.656,1.427,85.985,40.634,85.985,88.629s-38.329,87.202-85.985,88.629c-0.897,0.013-1.79,0.044-2.688,0.044
	c-0.898,0-1.793-0.032-2.688-0.044c-47.656-1.427-85.985-40.634-85.985-88.629s38.329-87.202,85.985-88.629
	c0.896-0.012,1.789-0.044,2.688-0.044C256.899,87.17,257.793,87.202,258.688,87.214z M161.953,238.654
	c-25.859-15.805-45.845-37.472-57.983-62.811c12.139-25.338,32.125-47.006,57.983-62.811c6.833-4.177,13.964-7.863,21.336-11.054
	c-19.117,18.822-30.992,44.981-30.992,73.864s11.874,55.042,30.992,73.864C175.919,246.517,168.788,242.831,161.953,238.654z
	 M350.047,238.654c-6.833,4.177-13.964,7.863-21.336,11.054c19.117-18.822,30.992-44.981,30.992-73.864
	s-11.874-55.043-30.992-73.864c7.371,3.19,14.502,6.876,21.336,11.054c25.859,15.805,45.845,37.472,57.983,62.811
	C395.891,201.182,375.905,222.849,350.047,238.654z"/>
<rect x="239.969" y="336.658" width="32.063" height="15.029"/>
<g>
	<rect x="288.063" y="336.658" style="fill:#FFFFFF;" width="16.031" height="15.029"/>
	<rect x="207.906" y="336.658" style="fill:#FFFFFF;" width="16.031" height="15.029"/>
</g>
<path d="M472.423,32.063v15.029h24.548v257.503H15.029V47.092h441.362V32.063H0V383.75h31.562V368.72H15.029v-49.096h481.941v49.096
	H294.223h-76.446H47.593v15.029h167.179l-14.38,71.898v9.26h-24.548v15.029h24.548h111.217h24.548v-15.029h-24.548v-9.26
	l-14.38-71.898H512V32.063H472.423z M296.579,457.135v7.773h-81.159v-7.773l14.677-73.385h51.804L296.579,457.135z"/>
<path d="M279.546,231.452h-47.092v-32.063h-32.063v-47.092h32.063v-32.063h47.092v32.063h32.063v47.092h-32.063V231.452z
	 M247.483,216.423h17.033V184.36h32.063v-17.033h-32.063v-32.063h-17.033v32.063h-32.063v17.033h32.063V216.423z"/>
<rect x="424.329" y="248.485" width="32.063" height="15.029"/>
<rect x="432.845" y="239.969" width="15.029" height="32.063"/>
<g>
	<rect x="384.25" y="264.517" style="fill:#FFFFFF;" width="16.031" height="15.029"/>
	<rect x="456.391" y="208.407" style="fill:#FFFFFF;" width="16.031" height="15.029"/>
</g>
<path d="M463.906,105.44V64.125h-31.562v15.029h16.532v26.285c-9.308,3.144-16.031,11.953-16.031,22.31
	c0,12.983,10.563,23.546,23.546,23.546s23.546-10.563,23.546-23.546C479.937,117.393,473.214,108.584,463.906,105.44z
	 M456.391,136.266c-4.696,0-8.517-3.82-8.517-8.517c0-3.695,2.37-6.839,5.667-8.016h5.7c3.296,1.176,5.667,4.32,5.667,8.016
	C464.908,132.446,461.088,136.266,456.391,136.266z"/>
<rect x="400.282" y="64.125" style="fill:#FFFFFF;" width="16.031" height="15.029"/>
<rect x="352.188" y="64.125" width="32.063" height="15.029"/>
<path d="M63.123,272.532v-26.285c9.308-3.144,16.031-11.953,16.031-22.31c0-12.983-10.563-23.546-23.546-23.546
	s-23.546,10.563-23.546,23.546c0,10.356,6.723,19.165,16.031,22.31v41.315h31.562v-15.029H63.123z M55.609,215.421
	c4.696,0,8.517,3.82,8.517,8.517c0,3.695-2.37,6.839-5.667,8.016h-5.7c-3.296-1.176-5.667-4.32-5.667-8.016
	C47.092,219.241,50.912,215.421,55.609,215.421z"/>
<rect x="95.687" y="272.532" style="fill:#FFFFFF;" width="16.031" height="15.029"/>
<rect x="127.75" y="272.532" width="32.063" height="15.029"/>
<g>
</g>
<g>
</g>
<g>
</g>
<g>
</g>
<g>
</g>
<g>
</g>
<g>
</g>
<g>
</g>
<g>
</g>
<g>
</g>
<g>
</g>
<g>
</g>
<g>
</g>
<g>
</g>
<g>
</g>
</svg>
