<?xml version="1.0" encoding="iso-8859-1"?>
<!-- Generator: Adobe Illustrator 19.0.0, SVG Export Plug-In . SVG Version: 6.00 Build 0)  -->
<svg version="1.1" id="Capa_1" xmlns="http://www.w3.org/2000/svg" xmlns:xlink="http://www.w3.org/1999/xlink" x="0px" y="0px"
	 viewBox="0 0 512 512" style="enable-background:new 0 0 512 512;" xml:space="preserve">
<rect id="SVGCleanerId_0" x="7.515" y="39.577" style="fill:#DAF3FF;" width="496.971" height="272.532"/>
<g>
	<rect id="SVGCleanerId_0_1_" x="7.515" y="39.577" style="fill:#DAF3FF;" width="496.971" height="272.532"/>
</g>
<circle style="fill:#FFB831;" cx="256" cy="180.853" r="104.204"/>
<path style="fill:#FFD045;" d="M256,76.65c-38.134,19.752-64.125,59.001-64.125,104.204S217.866,265.305,256,285.057
	c38.134-19.752,64.125-59.001,64.125-104.204S294.134,96.401,256,76.65z"/>
<rect x="7.515" y="312.11" style="fill:#45C1FF;" width="496.971" height="64.125"/>
<rect x="7.515" y="312.11" style="fill:#14A5FF;" width="496.971" height="24.047"/>
<polygon style="fill:#45C1FF;" points="304.094,472.423 207.906,472.423 207.906,456.391 223.937,376.235 288.063,376.235 
	304.094,456.391 "/>
<polygon style="fill:#14A5FF;" points="288.063,376.235 223.937,376.235 219.128,400.282 292.872,400.282 "/>
<path style="fill:#99C4FF;" d="M256,300.587c-66.022,0-119.734-53.712-119.734-119.734S189.978,61.119,256,61.119
	s119.734,53.712,119.734,119.734S322.022,300.587,256,300.587z M256,76.149c-57.734,0-104.704,46.971-104.704,104.704
	S198.266,285.558,256,285.558s104.704-46.971,104.704-104.705S313.734,76.149,256,76.149z"/>
<g>
	<path style="fill:#00C70D;" d="M434.898,259.94l-2.331,1.481l-2.344-1.46c-18.523-11.538-29.821-31.781-29.918-53.604l-0.023-5.219
		l31.927-20.285l32.107,19.999l0.023,5.219C464.436,227.894,453.318,248.237,434.898,259.94z"/>
	<path style="fill:#00C70D;" d="M77.033,179.783l2.331,1.481l2.344-1.46c18.523-11.538,29.821-31.781,29.918-53.604l0.023-5.219
		l-31.925-20.285l-32.107,19.999l-0.023,5.219C47.497,147.738,58.614,168.08,77.033,179.783z"/>
</g>
<g>
	<rect x="288.063" y="336.658" style="fill:#FFFFFF;" width="16.031" height="15.029"/>
	<rect x="207.906" y="336.658" style="fill:#FFFFFF;" width="16.031" height="15.029"/>
</g>
<rect x="239.969" y="336.658" width="32.063" height="15.029"/>
<path d="M55.609,32.063v15.029h441.362v257.503H15.029V47.092h24.548V32.063H0V383.75h214.771l-14.38,71.898v9.26h-24.548v15.029
	h160.313v-15.029h-24.548v-9.26l-14.38-71.898h167.178V368.72H294.223h-76.446H15.029v-49.096h481.941v49.096h-16.532v15.029H512
	V32.063H55.609z M281.903,383.75l14.677,73.385v7.773h-81.159v-7.773l14.677-73.385H281.903z"/>
<path d="M367.718,180.853c0-31.277-12.925-59.587-33.708-79.887l0.325-0.27l-6.95-5.778c-4.248-3.533-8.75-6.706-13.437-9.548
	c-0.08-0.049-0.16-0.096-0.24-0.144c-1.19-0.718-2.392-1.416-3.607-2.088c-0.634-0.353-1.272-0.698-1.914-1.039
	c-0.443-0.233-0.883-0.474-1.329-0.702c-1.201-0.616-2.419-1.205-3.644-1.779c-0.185-0.086-0.37-0.174-0.555-0.26
	c-11.382-5.253-23.792-8.645-36.838-9.786c-0.061-0.005-0.122-0.011-0.183-0.016c-1.511-0.129-3.03-0.23-4.558-0.3
	c-0.186-0.008-0.373-0.014-0.559-0.021c-1.5-0.06-3.006-0.099-4.521-0.099s-3.021,0.039-4.521,0.099
	c-0.186,0.007-0.373,0.013-0.559,0.021c-1.528,0.069-3.047,0.17-4.558,0.3c-0.061,0.005-0.122,0.011-0.183,0.016
	c-13.046,1.141-25.456,4.533-36.838,9.786c-0.185,0.085-0.37,0.173-0.555,0.26c-1.225,0.574-2.443,1.163-3.644,1.779
	c-0.446,0.227-0.886,0.468-1.329,0.701c-0.642,0.341-1.282,0.687-1.916,1.04c-1.214,0.671-2.415,1.369-3.604,2.086
	c-0.081,0.049-0.162,0.096-0.242,0.146c-4.687,2.842-9.189,6.015-13.436,9.548l-6.95,5.778l0.325,0.27
	c-20.783,20.3-33.708,48.61-33.708,79.887s12.925,59.587,33.708,79.887l-0.325,0.27l6.95,5.778c4.248,3.533,8.75,6.706,13.436,9.548
	c0.08,0.049,0.162,0.097,0.242,0.146c1.19,0.717,2.39,1.415,3.604,2.086c0.635,0.353,1.273,0.699,1.916,1.04
	c0.443,0.233,0.883,0.474,1.329,0.701c1.201,0.616,2.419,1.205,3.644,1.779c0.185,0.086,0.37,0.174,0.555,0.259
	c11.382,5.253,23.792,8.645,36.838,9.786c0.061,0.005,0.122,0.011,0.183,0.016c1.511,0.129,3.03,0.23,4.558,0.3
	c0.186,0.008,0.373,0.014,0.559,0.021c1.5,0.06,3.006,0.099,4.521,0.099c1.515,0,3.021-0.039,4.521-0.099
	c0.186-0.007,0.373-0.013,0.559-0.021c1.528-0.069,3.047-0.17,4.558-0.3c0.061-0.005,0.122-0.011,0.183-0.016
	c13.046-1.141,25.456-4.533,36.838-9.786c0.185-0.085,0.37-0.173,0.555-0.259c1.225-0.574,2.443-1.163,3.644-1.779
	c0.446-0.227,0.886-0.468,1.329-0.702c0.641-0.341,1.28-0.686,1.914-1.039c1.215-0.672,2.417-1.37,3.607-2.088
	c0.08-0.048,0.16-0.095,0.24-0.144c4.687-2.842,9.189-6.015,13.437-9.548l6.95-5.778l-0.325-0.27
	C354.793,240.441,367.718,212.13,367.718,180.853z M322.231,251.227c-3.768-2.775-7.694-5.305-11.759-7.574
	c9.815-16.632,15.727-35.493,16.926-55.285h25.001C350.491,213.067,339.26,235.191,322.231,251.227z M302.386,265.667
	c-0.191,0.104-0.383,0.21-0.575,0.315c-0.53,0.286-1.062,0.567-1.597,0.844c-0.803,0.412-1.607,0.82-2.42,1.209
	c-0.178,0.086-0.359,0.167-0.538,0.251c-0.915,0.431-1.836,0.853-2.763,1.254c-0.06,0.026-0.12,0.053-0.18,0.079
	c-2.332,1.005-4.703,1.912-7.107,2.731c5.438-4.986,10.403-10.399,14.839-16.185c2.735,1.48,5.411,3.081,7.999,4.825
	C307.571,262.665,305.014,264.224,302.386,265.667z M217.508,269.54c-0.928-0.403-1.848-0.824-2.763-1.254
	c-0.179-0.085-0.36-0.166-0.538-0.251c-0.814-0.39-1.618-0.797-2.42-1.209c-0.535-0.277-1.067-0.558-1.597-0.844
	c-0.192-0.103-0.383-0.209-0.575-0.315c-2.628-1.443-5.184-3.002-7.658-4.675c2.588-1.744,5.263-3.346,7.999-4.825
	c4.436,5.784,9.4,11.198,14.839,16.185c-2.403-0.82-4.775-1.725-7.107-2.731C217.627,269.594,217.568,269.566,217.508,269.54z
	 M209.614,96.04c0.191-0.104,0.383-0.21,0.575-0.315c0.53-0.286,1.062-0.567,1.597-0.844c0.803-0.412,1.607-0.82,2.42-1.209
	c0.178-0.086,0.359-0.167,0.538-0.251c0.915-0.431,1.836-0.853,2.763-1.254c0.06-0.026,0.12-0.053,0.18-0.079
	c2.332-1.005,4.703-1.912,7.107-2.731c-5.438,4.986-10.403,10.399-14.839,16.185c-2.735-1.48-5.411-3.081-7.999-4.825
	C204.429,99.041,206.986,97.482,209.614,96.04z M294.492,92.166c0.928,0.403,1.848,0.824,2.763,1.254
	c0.179,0.085,0.36,0.166,0.538,0.251c0.814,0.39,1.618,0.797,2.42,1.209c0.535,0.277,1.067,0.558,1.597,0.844
	c0.192,0.103,0.383,0.209,0.575,0.315c2.628,1.443,5.184,3.002,7.658,4.675c-2.588,1.744-5.263,3.346-7.999,4.825
	c-4.436-5.784-9.4-11.198-14.839-16.185c2.403,0.82,4.775,1.725,7.107,2.731C294.373,92.113,294.432,92.14,294.492,92.166z
	 M263.515,271.888v-27.112c8.318,0.651,16.492,2.375,24.313,5.1C280.952,258.254,272.788,265.688,263.515,271.888z M263.515,229.729
	v-41.361h48.835c-1.21,17.517-6.64,34.186-15.539,48.836C286.204,233.043,274.974,230.505,263.515,229.729z M263.515,173.339
	v-41.361c11.459-0.777,22.689-3.314,33.296-7.476c8.899,14.651,14.328,31.32,15.539,48.836H263.515z M263.515,116.93V89.818
	c9.273,6.2,17.437,13.634,24.313,22.012C280.007,114.556,271.833,116.279,263.515,116.93z M248.485,89.818v27.112
	c-8.318-0.651-16.492-2.375-24.312-5.1C231.048,103.452,239.212,96.019,248.485,89.818z M248.485,131.978v41.361H199.65
	c1.21-17.517,6.64-34.186,15.539-48.836C225.796,128.663,237.026,131.201,248.485,131.978z M248.485,188.368v41.361
	c-11.459,0.777-22.689,3.314-33.296,7.476c-8.899-14.651-14.328-31.32-15.539-48.836H248.485z M248.485,244.776v27.112
	c-9.273-6.2-17.437-13.634-24.312-22.012C231.993,247.151,240.167,245.427,248.485,244.776z M352.398,173.339h-25.001
	c-1.199-19.792-7.11-38.653-16.926-55.285c4.065-2.268,7.991-4.798,11.759-7.574C339.26,126.515,350.491,148.639,352.398,173.339z
	 M189.769,110.48c3.768,2.775,7.694,5.305,11.759,7.574c-9.815,16.632-15.727,35.493-16.926,55.285h-25
	C161.509,148.639,172.74,126.515,189.769,110.48z M159.602,188.368h25.001c1.199,19.792,7.11,38.654,16.926,55.285
	c-4.065,2.268-7.991,4.798-11.759,7.574C172.74,235.191,161.509,213.067,159.602,188.368z"/>
<path d="M432.607,270.299l-6.356-3.959c-20.843-12.983-33.351-35.393-33.46-59.949l-0.042-9.369l39.422-25.046l39.641,24.693
	l0.042,9.37c0.108,24.555-12.2,47.075-32.924,60.244h-0.001L432.607,270.299z M407.816,205.255l0.005,1.068
	c0.083,18.693,9.282,35.809,24.708,46.179c15.335-10.507,24.38-27.703,24.296-46.397l-0.005-1.069l-24.571-15.305L407.816,205.255z"
	/>
<rect x="424.329" y="216.423" style="fill:#FFFFFF;" width="16.031" height="15.029"/>
<polygon points="439.859,156.806 424.83,156.806 424.83,116.227 376.235,116.227 376.235,101.198 439.859,101.198 "/>
<path d="M79.325,190.142l-6.32-4.018c-20.727-13.169-33.036-35.689-32.925-60.243l0.04-9.371l39.642-24.691l39.422,25.046
	l-0.042,9.37c-0.108,24.555-12.618,46.965-33.46,59.948L79.325,190.142z M55.114,124.88l-0.005,1.068
	c-0.084,18.694,8.961,35.89,24.296,46.398c15.426-10.37,24.624-27.487,24.707-46.178l0.005-1.069l-24.434-15.524L55.114,124.88z"/>
<rect x="71.57" y="136.266" style="fill:#FFFFFF;" width="16.031" height="15.029"/>
<polygon points="135.698,260.509 72.074,260.509 72.074,204.9 87.103,204.9 87.103,245.479 135.698,245.479 "/>
<g>
</g>
<g>
</g>
<g>
</g>
<g>
</g>
<g>
</g>
<g>
</g>
<g>
</g>
<g>
</g>
<g>
</g>
<g>
</g>
<g>
</g>
<g>
</g>
<g>
</g>
<g>
</g>
<g>
</g>
</svg>
