<?xml version="1.0" encoding="iso-8859-1"?>
<!-- Generator: Adobe Illustrator 19.0.0, SVG Export Plug-In . SVG Version: 6.00 Build 0)  -->
<svg version="1.1" id="Capa_1" xmlns="http://www.w3.org/2000/svg" xmlns:xlink="http://www.w3.org/1999/xlink" x="0px" y="0px"
	 viewBox="0 0 512 512" style="enable-background:new 0 0 512 512;" xml:space="preserve">
<rect x="7.515" y="111.718" style="fill:#CCF4CF;" width="496.971" height="352.689"/>
<circle style="fill:#F5FDF5;" cx="256" cy="288.063" r="128.25"/>
<rect x="7.515" y="47.593" style="fill:#00C70D;" width="496.971" height="64.125"/>
<rect x="7.515" y="47.593" style="fill:#00A90B;" width="496.971" height="24.047"/>
<circle style="fill:#FFD045;" cx="424.329" cy="392.266" r="16.031"/>
<path style="fill:#99DD9D;" d="M256,431.843c-79.281,0-143.781-64.5-143.781-143.781S176.719,144.282,256,144.282
	s143.781,64.5,143.781,143.781S335.281,431.843,256,431.843z M256,159.311c-70.994,0-128.751,57.758-128.751,128.751
	S185.006,416.814,256,416.814s128.751-57.758,128.751-128.751S326.994,159.311,256,159.311z"/>
<g>
	<circle style="fill:#FFD045;" cx="288.063" cy="280.047" r="16.031"/>
	<polygon style="fill:#FFD045;" points="296.078,296.078 280.047,296.078 272.031,328.141 272.031,352.188 304.094,352.188 
		304.094,328.141 	"/>
	<polygon style="fill:#FFD045;" points="239.969,320.125 199.89,320.125 199.89,272.031 207.906,239.969 231.953,239.969 
		239.969,272.031 	"/>
	<circle style="fill:#FFD045;" cx="219.93" cy="219.93" r="20.039"/>
	<circle style="fill:#FFD045;" cx="87.671" cy="175.843" r="16.031"/>
</g>
<polygon points="63.624,40.078 63.624,55.108 496.971,55.108 496.971,104.204 15.029,104.204 15.029,55.108 47.593,55.108 
	47.593,40.078 0,40.078 0,104.204 0,119.233 0,471.922 512,471.922 512,440.36 496.971,440.36 496.971,456.892 15.029,456.892 
	15.029,119.233 496.971,119.233 496.971,424.329 512,424.329 512,119.233 512,104.204 512,40.078 "/>
<path d="M247.483,219.93c0-15.193-12.36-27.554-27.554-27.554s-27.554,12.361-27.554,27.554c0,7.533,3.041,14.367,7.958,19.347
	l-7.958,31.83v56.533h8.016v56.611h15.029V327.64h9.018v56.611h15.029V327.64h8.016v-56.533l-7.958-31.831
	C244.442,234.297,247.483,227.462,247.483,219.93z M226.086,247.483l6.368,25.473v39.654h-25.049v-39.654l6.368-25.473H226.086z
	 M219.93,207.405c6.906,0,12.524,5.618,12.524,12.524s-5.618,12.524-12.524,12.524s-12.524-5.618-12.524-12.524
	S213.023,207.405,219.93,207.405z"/>
<path d="M311.609,280.047c0-12.983-10.563-23.546-23.546-23.546s-23.546,10.563-23.546,23.546c0,6.783,2.887,12.901,7.492,17.202
	l-7.492,29.968v24.972v7.515v24.548h15.029v-24.548h17.033v24.548h15.029v-24.548v-7.515v-24.972l-7.492-29.968
	C308.722,292.948,311.609,286.83,311.609,280.047z M288.063,271.53c4.696,0,8.517,3.82,8.517,8.517c0,4.696-3.82,8.517-8.517,8.517
	c-4.696,0-8.517-3.82-8.517-8.517C279.546,275.351,283.366,271.53,288.063,271.53z M290.211,303.593l6.368,25.473v15.607h-17.033
	v-15.607l6.368-25.473H290.211z"/>
<polygon points="288.063,242.58 266.718,221.236 277.345,210.607 288.063,221.326 306.796,202.592 317.423,213.22 "/>
<rect x="47.593" y="376.736" style="fill:#FFFFFF;" width="40.078" height="15.029"/>
<rect x="47.593" y="408.798" width="56.11" height="15.029"/>
<rect x="31.562" y="72.141" width="16.031" height="15.029"/>
<rect x="63.624" y="72.141" style="fill:#FFFFFF;" width="16.031" height="15.029"/>
<rect x="95.687" y="72.141" width="16.031" height="15.029"/>
<rect x="456.391" y="72.141" style="fill:#FFFFFF;" width="16.031" height="15.029"/>
<path d="M431.843,369.957v-33.299h-49.078c5.806-15.095,9-31.478,9-48.595c0-74.861-60.904-135.765-135.765-135.765
	c-48.583,0-91.279,25.656-115.273,64.125H95.186v-18.27c9.308-3.144,16.031-11.953,16.031-22.31
	c0-12.983-10.563-23.546-23.546-23.546s-23.546,10.563-23.546,23.546c0,10.356,6.723,19.165,16.031,22.31v33.299h52.459
	c-7.943,17.242-12.381,36.416-12.381,56.611c0,74.861,60.904,135.765,135.765,135.765c51.884,0,97.057-29.26,119.902-72.141h40.912
	v18.27c-9.308,3.144-16.031,11.953-16.031,22.31c0,12.983,10.563,23.546,23.546,23.546s23.546-10.563,23.546-23.546
	C447.875,381.91,441.152,373.101,431.843,369.957z M87.671,184.36c-4.696,0-8.517-3.82-8.517-8.517s3.82-8.517,8.517-8.517
	s8.517,3.82,8.517,8.517S92.367,184.36,87.671,184.36z M366.513,336.658h-30.356v15.029h22.41
	C337.238,385.945,299.24,408.798,256,408.798c-66.574,0-120.736-54.162-120.736-120.736c0-20.445,5.115-39.716,14.123-56.611h26.457
	v-15.029h-16.965c22.01-29.76,57.349-49.096,97.122-49.096c66.574,0,120.736,54.162,120.736,120.736
	C376.736,305.341,373.08,321.78,366.513,336.658z M424.329,400.783c-4.696,0-8.517-3.82-8.517-8.517c0-4.696,3.82-8.517,8.517-8.517
	c4.696,0,8.517,3.82,8.517,8.517C432.845,396.962,429.025,400.783,424.329,400.783z"/>
<rect x="454.888" y="199.389" width="15.029" height="16.031"/>
<rect x="387.757" y="137.268" width="15.029" height="16.031"/>
<rect x="433.847" y="157.307" width="15.029" height="16.031"/>
<rect x="408.297" y="224.438" width="16.031" height="15.029"/>
<rect x="79.656" y="312.611" width="16.031" height="15.029"/>
<g>
</g>
<g>
</g>
<g>
</g>
<g>
</g>
<g>
</g>
<g>
</g>
<g>
</g>
<g>
</g>
<g>
</g>
<g>
</g>
<g>
</g>
<g>
</g>
<g>
</g>
<g>
</g>
<g>
</g>
</svg>
