<?xml version="1.0" encoding="iso-8859-1"?>
<!-- Generator: Adobe Illustrator 19.0.0, SVG Export Plug-In . SVG Version: 6.00 Build 0)  -->
<svg version="1.1" id="Capa_1" xmlns="http://www.w3.org/2000/svg" xmlns:xlink="http://www.w3.org/1999/xlink" x="0px" y="0px"
	 viewBox="0 0 512 512" style="enable-background:new 0 0 512 512;" xml:space="preserve">
<polygon style="fill:#45C1FF;" points="207.906,368.219 207.906,336.157 127.75,336.157 127.75,504.485 368.219,504.485 
	368.219,368.219 "/>
<g>
	<rect x="127.75" y="472.423" style="fill:#14A5FF;" width="240.47" height="32.063"/>
	<rect x="127.75" y="336.157" style="fill:#14A5FF;" width="80.157" height="24.047"/>
</g>
<path style="fill:#00C70D;" d="M251.082,270.433l-2.671,1.541l-2.684-1.518c-33.124-18.725-53.671-53.765-53.841-91.813
	l-0.011-2.564l55.965-32.298l56.251,31.799l0.011,2.564C304.272,216.193,284.038,251.414,251.082,270.433z"/>
<path style="fill:#00A90B;" d="M193.955,198.983l53.886-31.098l54.355,30.727c1.281-6.675,1.938-13.523,1.907-20.468l-0.011-2.564
	l-56.252-31.799l-55.965,32.298l0.011,2.564C191.917,185.549,192.627,192.355,193.955,198.983z"/>
<rect x="215.922" y="392.767" style="fill:#FFFFFF;" width="64.125" height="15.029"/>
<polygon style="fill:#FFD045;" points="127.75,183.859 7.515,183.859 7.515,15.53 7.515,7.515 135.765,7.515 135.765,175.843 "/>
<polygon style="fill:#FFB831;" points="127.75,31.562 7.515,31.562 7.515,8.608 7.515,7.515 135.765,7.515 135.765,30.469 "/>
<polygon style="fill:#FFD045;" points="496.47,183.859 376.235,183.859 376.235,15.53 376.235,7.515 504.485,7.515 504.485,175.843 
	"/>
<polygon style="fill:#FFB831;" points="496.47,31.562 376.235,31.562 376.235,8.608 376.235,7.515 504.485,7.515 504.485,30.469 "/>
<path d="M130.862,191.374H0V0h143.28v178.956L130.862,191.374z M15.029,176.344h109.608l3.613-3.613V15.029H15.029V176.344z"/>
<rect x="32.063" y="39.577" width="15.029" height="40.078"/>
<rect x="96.188" y="39.577" width="15.029" height="40.078"/>
<g>
	<rect x="64.125" y="55.609" style="fill:#FFFFFF;" width="15.029" height="24.047"/>
	<rect x="31.562" y="104.204" style="fill:#FFFFFF;" width="16.031" height="15.029"/>
</g>
<rect x="63.624" y="104.204" width="48.094" height="15.029"/>
<rect x="31.562" y="136.266" width="48.094" height="15.029"/>
<rect x="95.687" y="136.266" style="fill:#FFFFFF;" width="16.031" height="15.029"/>
<path d="M499.582,191.374H368.72V0H512v178.956L499.582,191.374z M383.75,176.344h109.608l3.613-3.613V15.029H383.75V176.344z"/>
<rect x="400.783" y="39.577" style="fill:#FFFFFF;" width="15.029" height="40.078"/>
<rect x="464.908" y="39.577" width="15.029" height="40.078"/>
<rect x="432.845" y="55.609" width="15.029" height="24.047"/>
<rect x="400.282" y="104.204" width="16.031" height="15.029"/>
<g>
	<rect x="432.344" y="104.204" style="fill:#FFFFFF;" width="48.094" height="15.029"/>
	<rect x="400.282" y="136.266" style="fill:#FFFFFF;" width="48.094" height="15.029"/>
</g>
<rect x="464.407" y="136.266" width="16.031" height="15.029"/>
<polygon points="215.421,360.704 215.421,328.642 175.843,328.642 175.843,343.671 200.391,343.671 200.391,375.734 
	360.704,375.734 360.704,392.767 336.157,392.767 336.157,407.796 360.704,407.796 360.704,472.423 375.734,472.423 
	375.734,360.704 "/>
<polygon points="360.704,496.971 135.264,496.971 135.264,407.796 159.812,407.796 159.812,392.767 135.264,392.767 
	135.264,343.671 159.812,343.671 159.812,328.642 120.235,328.642 120.235,512 375.734,512 375.734,488.454 360.704,488.454 "/>
<g>
	<rect x="175.843" y="392.767" style="fill:#FFFFFF;" width="16.031" height="15.029"/>
	<rect x="304.094" y="392.767" style="fill:#FFFFFF;" width="16.031" height="15.029"/>
</g>
<rect x="48.094" y="207.906" width="15.029" height="16.031"/>
<polygon points="135.765,263.515 48.094,263.515 48.094,239.969 63.123,239.969 63.123,248.485 135.765,248.485 "/>
<rect x="151.796" y="248.485" width="16.031" height="15.029"/>
<rect x="183.859" y="248.485" width="16.031" height="15.029"/>
<rect x="432.845" y="207.906" width="15.029" height="16.031"/>
<polygon points="447.875,263.515 360.204,263.515 360.204,248.485 432.845,248.485 432.845,239.969 447.875,239.969 "/>
<rect x="328.141" y="248.485" width="16.031" height="15.029"/>
<rect x="296.078" y="248.485" width="16.031" height="15.029"/>
<polygon style="fill:#FFFFFF;" points="248.939,227.33 226.781,205.172 237.408,194.544 247.313,204.449 266.161,179.318 
	278.184,188.336 "/>
<rect x="240.47" y="312.11" width="15.029" height="16.031"/>
<rect x="240.47" y="344.172" width="15.029" height="24.047"/>
<path d="M311.618,178.11l-0.032-6.926l-63.785-36.056l-63.461,36.624l0.03,6.927c0.179,40.177,21.778,77.439,56.448,97.612
	l-0.349,19.656l15.027,0.267l0.353-19.876C290.453,255.88,311.797,218.362,311.618,178.11z M248.373,263.312
	c-29.57-17.202-48.173-48.739-48.949-82.914l48.455-27.964l48.701,27.532C296.109,214.147,277.789,245.847,248.373,263.312z"/>
<g>
</g>
<g>
</g>
<g>
</g>
<g>
</g>
<g>
</g>
<g>
</g>
<g>
</g>
<g>
</g>
<g>
</g>
<g>
</g>
<g>
</g>
<g>
</g>
<g>
</g>
<g>
</g>
<g>
</g>
</svg>
