<?xml version="1.0" encoding="iso-8859-1"?>
<!-- Generator: Adobe Illustrator 19.0.0, SVG Export Plug-In . SVG Version: 6.00 Build 0)  -->
<svg version="1.1" id="Capa_1" xmlns="http://www.w3.org/2000/svg" xmlns:xlink="http://www.w3.org/1999/xlink" x="0px" y="0px"
	 viewBox="0 0 512 512" style="enable-background:new 0 0 512 512;" xml:space="preserve">
<rect x="215.922" y="135.765" style="fill:#00C70D;" width="80.157" height="80.157"/>
<polygon style="fill:#FFD045;" points="135.765,504.485 7.515,504.485 7.515,296.078 167.828,296.078 167.828,472.423 "/>
<rect x="7.515" y="296.078" style="fill:#FFB831;" width="160.313" height="24.047"/>
<polygon style="fill:#FFD045;" points="472.423,504.485 344.172,504.485 344.172,296.078 504.485,296.078 504.485,472.423 "/>
<rect x="344.172" y="296.078" style="fill:#FFB831;" width="160.313" height="24.047"/>
<g>
	<circle style="fill:#00C70D;" cx="55.609" cy="231.953" r="16.031"/>
	<circle style="fill:#00C70D;" cx="456.391" cy="231.953" r="16.031"/>
</g>
<polygon style="fill:#FD7D28;" points="215.922,39.577 215.922,7.515 135.765,7.515 135.765,175.843 215.922,175.843 
	215.922,135.765 296.078,135.765 296.078,175.843 376.235,175.843 376.235,39.577 "/>
<g>
	<rect x="135.765" y="7.515" style="fill:#FD5900;" width="80.157" height="24.047"/>
	<polygon style="fill:#FD5900;" points="311.609,175.843 296.579,175.843 296.579,135.264 215.421,135.264 215.421,175.843 
		200.391,175.843 200.391,120.235 311.609,120.235 	"/>
</g>
<polygon points="31.562,512 0,512 0,288.564 175.342,288.564 175.342,336.157 160.313,336.157 160.313,303.593 15.029,303.593 
	15.029,496.971 31.562,496.971 "/>
<polygon points="138.877,512 47.593,512 47.593,496.971 132.653,496.971 160.313,469.311 160.313,352.188 175.342,352.188 
	175.342,475.535 "/>
<rect x="31.562" y="320.626" style="fill:#FFFFFF;" width="40.078" height="15.029"/>
<rect x="87.671" y="320.626" width="56.11" height="15.029"/>
<rect x="31.562" y="352.689" width="16.031" height="15.029"/>
<rect x="63.624" y="352.689" style="fill:#FFFFFF;" width="80.157" height="15.029"/>
<rect x="127.75" y="384.751" width="16.031" height="15.029"/>
<rect x="31.562" y="384.751" style="fill:#FFFFFF;" width="80.157" height="15.029"/>
<polygon points="50.294,469.72 28.951,448.376 50.294,427.031 60.923,437.658 50.204,448.376 60.923,459.094 "/>
<polygon points="125.048,469.72 114.419,459.094 125.138,448.376 114.419,437.658 125.048,427.031 146.392,448.376 "/>
<rect x="80.154" y="419.499" transform="matrix(-0.8321 -0.5547 0.5547 -0.8321 -88.1023 870.1292)" style="fill:#FFFFFF;" width="15.03" height="57.804"/>
<polygon points="368.219,512 336.658,512 336.658,288.564 512,288.564 512,336.157 496.971,336.157 496.971,303.593 
	351.687,303.593 351.687,496.971 368.219,496.971 "/>
<polygon points="475.535,512 384.25,512 384.25,496.971 469.311,496.971 496.971,469.311 496.971,352.188 512,352.188 512,475.535 
	"/>
<rect x="368.219" y="320.626" width="40.078" height="15.029"/>
<g>
	<rect x="424.329" y="320.626" style="fill:#FFFFFF;" width="56.11" height="15.029"/>
	<rect x="368.219" y="352.689" style="fill:#FFFFFF;" width="16.031" height="15.029"/>
</g>
<rect x="400.282" y="352.689" width="80.157" height="15.029"/>
<rect x="464.407" y="384.751" style="fill:#FFFFFF;" width="16.031" height="15.029"/>
<rect x="368.219" y="384.751" width="80.157" height="15.029"/>
<polygon points="386.952,469.72 365.608,448.376 386.952,427.031 397.581,437.658 386.862,448.376 397.581,459.094 "/>
<polygon points="461.706,469.72 451.077,459.094 461.796,448.376 451.077,437.658 461.706,427.031 483.049,448.376 "/>
<rect x="416.837" y="419.498" transform="matrix(-0.8321 -0.5547 0.5547 -0.8321 528.7244 1056.8763)" style="fill:#FFFFFF;" width="15.03" height="57.804"/>
<rect x="400.282" y="88.172" width="16.031" height="15.029"/>
<path d="M463.906,209.643V88.172h-31.562v15.029h16.532v106.442c-9.308,3.144-16.031,11.953-16.031,22.31
	c0,12.983,10.563,23.546,23.546,23.546s23.546-10.563,23.546-23.546C479.937,221.597,473.214,212.788,463.906,209.643z
	 M456.391,240.47c-4.696,0-8.517-3.82-8.517-8.517s3.82-8.517,8.517-8.517c4.696,0,8.517,3.82,8.517,8.517
	S461.088,240.47,456.391,240.47z"/>
<rect x="95.687" y="88.172" width="16.031" height="15.029"/>
<path d="M79.656,103.202V88.172H48.094v121.471c-9.308,3.144-16.031,11.953-16.031,22.31c0,12.983,10.563,23.546,23.546,23.546
	s23.546-10.563,23.546-23.546c0-10.356-6.723-19.165-16.031-22.31V103.202H79.656z M55.609,240.47c-4.696,0-8.517-3.82-8.517-8.517
	s3.82-8.517,8.517-8.517s8.517,3.82,8.517,8.517S60.305,240.47,55.609,240.47z"/>
<polygon points="263.515,368.72 263.515,272.031 248.485,272.031 248.485,368.72 191.875,368.72 191.875,383.75 320.125,383.75 
	320.125,368.72 "/>
<rect x="248.485" y="239.969" width="15.029" height="16.031"/>
<g>
	<rect x="183.859" y="64.125" style="fill:#FFFFFF;" width="16.031" height="15.029"/>
	<rect x="312.11" y="64.125" style="fill:#FFFFFF;" width="16.031" height="15.029"/>
	<rect x="247.984" y="168.329" style="fill:#FFFFFF;" width="16.031" height="15.029"/>
</g>
<path d="M383.75,32.063H223.436V0H128.25v183.358h80.157v40.078h95.186v-40.078h80.157V32.063z M288.564,208.407h-65.127v-25.049
	V143.28h1.002h63.123h1.002v40.078V208.407z M272.532,128.25h-33.065V87.671c0-0.277,0.225-0.501,0.501-0.501h32.063
	c0.276,0,0.501,0.224,0.501,0.501V128.25z M303.593,168.329V128.25h-16.031V87.671c0-8.564-6.967-15.53-15.53-15.53h-32.063
	c-8.564,0-15.53,6.967-15.53,15.53v40.579h-16.031v40.078H143.28V79.155h24.548V64.125H143.28V15.029h65.127v32.063H368.72v17.033
	h-24.548v15.029h24.548v89.174H303.593z"/>
<g>
</g>
<g>
</g>
<g>
</g>
<g>
</g>
<g>
</g>
<g>
</g>
<g>
</g>
<g>
</g>
<g>
</g>
<g>
</g>
<g>
</g>
<g>
</g>
<g>
</g>
<g>
</g>
<g>
</g>
</svg>
