<?xml version="1.0" encoding="iso-8859-1"?>
<!-- Generator: Adobe Illustrator 19.0.0, SVG Export Plug-In . SVG Version: 6.00 Build 0)  -->
<svg version="1.1" id="Capa_1" xmlns="http://www.w3.org/2000/svg" xmlns:xlink="http://www.w3.org/1999/xlink" x="0px" y="0px"
	 viewBox="0 0 512 512" style="enable-background:new 0 0 512 512;" xml:space="preserve">
<path style="fill:#45C1FF;" d="M259.646,169.933l-3.401,1.963l-3.419-1.932c-42.184-23.847-68.353-68.472-68.569-116.929
	l-0.015-3.266l71.275-41.133l71.639,40.497l0.015,3.266C327.386,100.855,301.616,145.711,259.646,169.933z"/>
<path style="fill:#14A5FF;" d="M187.122,80.098l68.396-39.471l68.998,39.005c1.785-8.869,2.696-17.984,2.655-27.233l-0.015-3.266
	L255.517,8.635l-71.275,41.133l0.015,3.266C184.298,62.232,185.279,71.292,187.122,80.098z"/>
<rect x="336.229" y="312.556" style="fill:#FFD045;" width="167.955" height="191.949"/>
<rect x="336.229" y="376.539" style="fill:#45C1FF;" width="167.955" height="63.983"/>
<rect x="7.816" y="312.556" style="fill:#FFD045;" width="167.955" height="191.949"/>
<g>
	<rect x="336.229" y="312.556" style="fill:#FFB831;" width="167.955" height="23.994"/>
	<rect x="336.229" y="440.522" style="fill:#FFB831;" width="167.955" height="23.994"/>
</g>
<rect x="336.229" y="376.539" style="fill:#14A5FF;" width="167.955" height="23.994"/>
<g>
	<rect x="7.816" y="312.556" style="fill:#FFB831;" width="167.955" height="23.994"/>
	<rect x="7.816" y="440.522" style="fill:#FFB831;" width="167.955" height="23.994"/>
</g>
<rect x="7.816" y="376.539" style="fill:#45C1FF;" width="167.955" height="63.983"/>
<rect x="7.816" y="376.539" style="fill:#14A5FF;" width="167.955" height="23.994"/>
<rect x="215.762" y="208.584" style="fill:#FD7D28;" width="79.979" height="39.989"/>
<g>
	<rect x="215.762" y="208.584" style="fill:#FD5900;" width="79.979" height="15.996"/>
	<rect x="295.74" y="216.582" style="fill:#FD5900;" width="47.987" height="23.994"/>
	<rect x="167.775" y="216.582" style="fill:#FD5900;" width="47.987" height="23.994"/>
</g>
<rect x="31.81" y="337.05" width="15.996" height="14.996"/>
<rect x="31.81" y="401.033" style="fill:#FFFFFF;" width="15.996" height="14.996"/>
<rect id="SVGCleanerId_0" x="63.801" y="401.033" width="15.996" height="14.996"/>
<rect x="31.81" y="465.016" width="15.996" height="14.996"/>
<rect x="63.801" y="337.05" style="fill:#FFFFFF;" width="15.996" height="14.996"/>
<g>
	<rect id="SVGCleanerId_0_1_" x="63.801" y="401.033" width="15.996" height="14.996"/>
</g>
<rect x="63.801" y="465.016" style="fill:#FFFFFF;" width="15.996" height="14.996"/>
<rect x="95.794" y="337.05" width="55.985" height="14.996"/>
<rect x="95.794" y="401.033" width="55.985" height="14.996"/>
<rect x="95.794" y="465.016" width="55.985" height="14.996"/>
<path d="M159.776,305.055v14.996h8.498v48.987H15.314v-48.987H143.78v-14.996H0.318V512H31.81v-14.996H15.314v-48.987h152.959
	v48.987H47.806V512h135.464V305.055L159.776,305.055L159.776,305.055z M168.273,433.021H15.314v-48.987h152.959V433.021z"/>
<rect x="360.223" y="337.05" style="fill:#FFFFFF;" width="15.996" height="14.996"/>
<rect id="SVGCleanerId_1" x="392.215" y="337.05" width="15.996" height="14.996"/>
<rect x="360.223" y="401.033" width="15.996" height="14.996"/>
<rect x="360.223" y="465.016" style="fill:#FFFFFF;" width="15.996" height="14.996"/>
<rect id="SVGCleanerId_2" x="392.215" y="465.016" width="15.996" height="14.996"/>
<g>
	<rect id="SVGCleanerId_1_1_" x="392.215" y="337.05" width="15.996" height="14.996"/>
</g>
<rect x="392.215" y="401.033" style="fill:#FFFFFF;" width="15.996" height="14.996"/>
<g>
	<rect id="SVGCleanerId_2_1_" x="392.215" y="465.016" width="15.996" height="14.996"/>
</g>
<rect x="424.206" y="337.05" width="55.985" height="14.996"/>
<rect x="424.206" y="401.033" width="55.985" height="14.996"/>
<rect x="424.206" y="465.016" width="55.985" height="14.996"/>
<path d="M488.188,305.055v14.996h8.498v48.987H343.727v-48.987h128.466v-14.996H328.73V512h31.492v-14.996h-16.496v-48.987h152.959
	v48.987H376.218V512h135.464V305.055L488.188,305.055L488.188,305.055z M496.686,433.021H343.727v-48.987h152.959V433.021z"/>
<path d="M351.224,217.079v-7.998h-47.987v-7.998h-39.989v-24.572l0.146-0.084h0.001c44.19-25.503,71.502-73.041,71.274-124.063
	l-0.034-7.618L255.479,0l-78.754,45.45l0.034,7.618c0.226,50.678,27.598,97.669,71.493,122.903v25.112h-39.989v7.998h-47.987v7.998
	H72.299v71.481h14.996v-56.485h72.98v15.996h47.987v7.998h94.975v-7.998h47.987v-15.996h72.98v56.485h14.996v-71.481
	L351.224,217.079L351.224,217.079z M191.764,54.085l63.792-36.814l64.116,36.245c-0.185,45.12-24.422,87.065-63.466,109.746
	C216.961,140.928,192.352,99.201,191.764,54.085z M175.272,233.075v-8.998h32.991v8.998H175.272z M223.259,216.079h64.983v24.993
	h-64.983V216.079z M336.228,233.075h-32.991v-8.998h32.991V233.075z"/>
<polygon style="fill:#FFFFFF;" points="287.741,81.115 263.248,81.115 263.248,56.622 248.252,56.622 248.252,81.115 
	223.759,81.115 223.759,96.111 248.252,96.111 248.252,120.605 263.248,120.605 263.248,96.111 287.741,96.111 "/>
<g>
</g>
<g>
</g>
<g>
</g>
<g>
</g>
<g>
</g>
<g>
</g>
<g>
</g>
<g>
</g>
<g>
</g>
<g>
</g>
<g>
</g>
<g>
</g>
<g>
</g>
<g>
</g>
<g>
</g>
</svg>
