<?xml version="1.0" encoding="iso-8859-1"?>
<!-- Generator: Adobe Illustrator 19.0.0, SVG Export Plug-In . SVG Version: 6.00 Build 0)  -->
<svg version="1.1" id="Capa_1" xmlns="http://www.w3.org/2000/svg" xmlns:xlink="http://www.w3.org/1999/xlink" x="0px" y="0px"
	 viewBox="0 0 512 512" style="enable-background:new 0 0 512 512;" xml:space="preserve">
<rect x="7.515" y="103.703" style="fill:#B5E6FF;" width="496.971" height="368.72"/>
<rect x="7.515" y="103.703" style="fill:#99C4FF;" width="496.971" height="32.063"/>
<rect x="7.515" y="39.577" style="fill:#45C1FF;" width="496.971" height="64.125"/>
<rect x="7.515" y="39.577" style="fill:#14A5FF;" width="496.971" height="24.047"/>
<polygon style="fill:#FD7D28;" points="191.875,313.708 143.781,401.88 143.781,417.911 256,417.911 368.219,417.911 
	368.219,400.542 320.125,313.708 "/>
<g>
	<polygon style="fill:#99C4FF;" points="388.364,432.344 123.636,432.344 123.636,405.078 183.859,296.078 191.255,312.497 
		138.666,408.911 138.666,417.315 373.334,417.315 373.334,407.45 320.768,312.539 328.141,296.078 388.364,403.565 	"/>
	<path style="fill:#99C4FF;" d="M186.352,260.396c-2.038,4.459-3.097,9.101-3.097,13.776c0,14.429,9.081,37.062,22.082,55.038
		c20.891,28.883,40.709,33.196,50.663,33.196s29.773-4.312,50.663-33.196c13.001-17.976,22.082-40.608,22.082-55.038
		c0-4.675-1.06-9.317-3.097-13.776c-3.243,35.574-33.242,63.533-69.648,63.533S189.596,295.97,186.352,260.396z"/>
	<path style="fill:#99C4FF;" d="M327.636,256.176l-15.489-12.541c-13.972-11.314-34.437-17.803-56.147-17.803
		s-42.173,6.489-56.147,17.803l-15.489,12.541l3.353-19.645c6.681-39.146,33.002-97.069,68.282-97.069s61.601,57.923,68.282,97.069
		L327.636,256.176z M256,210.804c17.803,0,35.01,3.881,49.436,10.936c-4.041-13.923-9.961-28.033-16.688-39.383
		c-10.649-17.97-22.28-27.866-32.749-27.866s-22.1,9.896-32.749,27.866c-6.725,11.35-12.647,25.46-16.688,39.383
		C220.99,214.683,238.197,210.804,256,210.804z"/>
</g>
<path style="fill:#FFD045;" d="M256,313.707c30.989,0,56.11-25.121,56.11-56.11c0-4.285-0.483-9.226-1.393-14.556
	c-13.23-10.712-32.828-17.506-54.717-17.506s-41.487,6.794-54.717,17.506c-0.91,5.33-1.393,10.271-1.393,14.556
	C199.89,288.586,225.011,313.707,256,313.707z"/>
<path style="fill:#BE5E1E;" d="M310.717,241.444c0.91,5.33,1.393,10.271,1.393,14.556c0,30.989-25.121,56.11-56.11,56.11
	s-56.11-25.121-56.11-56.11c0-4.285,0.483-9.226,1.393-14.556c-10.851,8.786-17.424,20.204-17.424,32.697
	c0,27.726,32.298,86.063,72.141,86.063s72.141-58.336,72.141-86.063C328.141,261.647,321.568,250.229,310.717,241.444z"/>
<g>
	<path style="fill:#FD7D28;" d="M310.717,243.041c-5.669-33.219-28.014-81.631-54.717-81.631s-49.048,48.413-54.717,81.631
		c13.23-10.712,32.828-17.506,54.717-17.506S297.487,232.329,310.717,243.041z"/>
	<circle style="fill:#FD7D28;" cx="55.609" cy="169.421" r="16.031"/>
	<circle style="fill:#FD7D28;" cx="456.391" cy="321.728" r="16.031"/>
</g>
<path d="M456.391,298.177c-10.356,0-19.165,6.723-22.31,16.031h-33.299v40.078h-24.548v15.029h39.577v-40.078h18.27
	c3.144,9.308,11.953,16.031,22.31,16.031c12.983,0,23.546-10.563,23.546-23.546S469.375,298.177,456.391,298.177z M456.391,330.24
	c-4.696,0-8.517-3.82-8.517-8.517c0-4.696,3.82-8.517,8.517-8.517c4.696,0,8.517,3.82,8.517,8.517
	C464.908,326.42,461.088,330.24,456.391,330.24z"/>
<rect x="39.577" y="64.125" style="fill:#FFFFFF;" width="16.031" height="15.029"/>
<rect x="71.64" y="64.125" width="16.031" height="15.029"/>
<rect x="424.329" y="64.125" style="fill:#FFFFFF;" width="16.031" height="15.029"/>
<rect x="456.391" y="64.125" width="16.031" height="15.029"/>
<polygon points="71.64,32.063 71.64,47.092 496.971,47.092 496.971,96.188 15.029,96.188 15.029,47.092 55.609,47.092 
	55.609,32.063 0,32.063 0,479.937 512,479.937 512,424.329 496.971,424.329 496.971,464.908 15.029,464.908 15.029,111.217 
	496.971,111.217 496.971,408.297 512,408.297 512,32.063 "/>
<path d="M135.264,218.021v-56.11H77.918c-3.144-9.308-11.953-16.031-22.31-16.031c-12.983,0-23.546,10.563-23.546,23.546
	c0,12.983,10.563,23.546,23.546,23.546c10.356,0,19.165-6.723,22.31-16.031h42.317v56.11h55.609v-15.029H135.264z M55.609,177.943
	c-4.696,0-8.517-3.82-8.517-8.517c0-4.696,3.82-8.517,8.517-8.517s8.517,3.82,8.517,8.517
	C64.125,174.122,60.305,177.943,55.609,177.943z"/>
<path d="M326.704,310.075c5.614-12.363,8.951-24.687,8.951-34.336c0-13.478-6.381-26.409-18.027-36.687
	c-6.771-35.34-30.293-85.156-61.628-85.156s-54.857,49.817-61.628,85.156c-11.646,10.278-18.027,23.208-18.027,36.687
	c0,9.664,3.348,22.013,8.979,34.395l-0.045-0.024l-49.012,89.853v25.463h239.468V398.6L326.704,310.075z M303.757,247.172
	c0.553,3.849,0.838,7.349,0.838,10.425c0,26.795-21.8,48.595-48.595,48.595s-48.595-21.8-48.595-48.595
	c0-3.076,0.285-6.577,0.838-10.425c12.323-9.001,29.54-14.123,47.757-14.123S291.434,238.172,303.757,247.172z M192.985,266.417
	c4.305,30.924,30.924,54.804,63.015,54.804s58.71-23.88,63.015-54.804c1.063,3.052,1.611,6.179,1.611,9.32
	c0,25.196-30.577,78.548-64.626,78.548c-8.802,0-26.343-3.835-44.922-29.524c-11.602-16.039-19.704-36.199-19.704-49.024
	C191.374,272.596,191.922,269.469,192.985,266.417z M256,168.925c16.274,0,34.351,28.517,43.266,58.286
	c-12.754-5.937-27.764-9.19-43.266-9.19s-30.512,3.253-43.266,9.19C221.649,197.442,239.726,168.925,256,168.925z M360.704,410.397
	H151.296v-6.6l42.479-77.878c1.625,2.612,3.334,5.175,5.126,7.654c16.672,23.05,36.95,35.745,57.101,35.745
	s40.429-12.694,57.1-35.745c1.807-2.498,3.527-5.082,5.163-7.715l42.44,76.627V410.397z"/>
<rect x="239.969" y="274.135" width="32.063" height="15.029"/>
<rect x="320.125" y="386.355" style="fill:#FFFFFF;" width="16.031" height="15.029"/>
<rect x="288.063" y="370.323" width="16.031" height="15.029"/>
<rect x="175.843" y="386.355" width="16.031" height="15.029"/>
<g>
	<rect x="207.906" y="370.323" style="fill:#FFFFFF;" width="16.031" height="15.029"/>
	<path style="fill:#FFFFFF;" d="M71.139,402.976H32.063v-47.092h39.076V402.976z M47.092,387.947h9.018v-17.033h-9.018V387.947z"/>
</g>
<path d="M111.217,338.851H72.141v-47.092h39.076V338.851z M87.17,323.821h9.018v-17.033H87.17V323.821z"/>
<polygon points="111.217,403.477 96.188,403.477 96.188,370.913 87.671,370.913 87.671,355.884 111.217,355.884 "/>
<polygon points="55.108,339.352 40.078,339.352 40.078,306.788 31.562,306.788 31.562,291.759 55.108,291.759 "/>
<g>
	<polygon style="fill:#FFFFFF;" points="151.296,339.352 136.266,339.352 136.266,306.788 127.75,306.788 127.75,291.759 
		151.296,291.759 	"/>
	<path style="fill:#FFFFFF;" d="M383.75,202.585h-39.076v-47.092h39.076V202.585z M359.703,187.555h9.018v-17.033h-9.018V187.555z"
		/>
</g>
<path d="M479.937,202.585h-39.076v-47.092h39.076V202.585z M455.89,187.555h9.018v-17.033h-9.018V187.555z"/>
<path d="M439.859,266.71h-39.076v-47.092h39.076V266.71z M415.812,251.681h9.018v-17.033h-9.018V251.681z"/>
<polygon points="423.828,203.086 408.798,203.086 408.798,170.522 400.282,170.522 400.282,155.493 423.828,155.493 "/>
<polygon points="383.75,267.211 368.72,267.211 368.72,234.647 360.204,234.647 360.204,219.618 383.75,219.618 "/>
<polygon style="fill:#FFFFFF;" points="479.937,267.211 464.908,267.211 464.908,234.647 456.391,234.647 456.391,219.618 
	479.937,219.618 "/>
<g>
</g>
<g>
</g>
<g>
</g>
<g>
</g>
<g>
</g>
<g>
</g>
<g>
</g>
<g>
</g>
<g>
</g>
<g>
</g>
<g>
</g>
<g>
</g>
<g>
</g>
<g>
</g>
<g>
</g>
</svg>
