<?xml version="1.0" encoding="iso-8859-1"?>
<!-- Generator: Adobe Illustrator 19.0.0, SVG Export Plug-In . SVG Version: 6.00 Build 0)  -->
<svg version="1.1" id="Capa_1" xmlns="http://www.w3.org/2000/svg" xmlns:xlink="http://www.w3.org/1999/xlink" x="0px" y="0px"
	 viewBox="0 0 512 512" style="enable-background:new 0 0 512 512;" xml:space="preserve">
<circle style="fill:#CCF4CF;" cx="256.361" cy="392.266" r="72.141"/>
<path id="SVGCleanerId_0" style="fill:#00C70D;" d="M283.082,378.907c0-14.757-11.962-26.719-26.719-26.719
	c-14.757,0-26.719,11.962-26.719,26.719c0,9.931,5.423,18.59,13.464,23.195l-13.464,23.562v6.68h53.437v-6.677l-13.464-23.565
	C277.66,397.497,283.082,388.837,283.082,378.907z"/>
<g>
	<rect x="255.61" y="127.75" style="fill:#FFD96A;" width="177.096" height="152.297"/>
	<polygon style="fill:#FFD96A;" points="87.283,223.937 87.283,7.515 311.721,7.515 311.721,127.75 255.612,127.75 255.612,280.047 
		166.688,280.047 166.688,239.969 150.782,223.937 	"/>
</g>
<g>
	<rect x="87.281" y="7.515" style="fill:#FFB831;" width="224.438" height="24.047"/>
	<polygon style="fill:#FFB831;" points="239.58,111.718 239.58,280.047 255.612,280.047 255.612,127.75 311.721,127.75 
		311.721,111.718 	"/>
</g>
<polygon style="fill:#00C70D;" points="392.629,231.953 352.551,256 304.457,215.922 256.363,249.655 256.363,280.047 
	432.708,280.047 432.708,264.016 "/>
<polygon style="fill:#FFF6DA;" points="392.629,231.953 352.551,256 304.457,215.922 256.363,249.655 256.363,280.047 
	432.708,280.047 432.708,264.016 "/>
<polygon style="fill:#00C70D;" points="166.688,280.047 166.688,239.969 150.782,223.937 78.516,223.937 62.485,239.969 
	62.485,504.485 447.987,504.485 447.236,280.255 "/>
<polygon style="fill:#00A90B;" points="127.486,256 143.393,272.031 143.393,312.11 423.941,312.318 424.585,504.485 
	447.987,504.485 447.236,280.255 166.688,280.047 166.688,239.969 150.782,223.937 78.516,223.937 62.485,239.969 62.485,256 "/>
<circle style="fill:#CCF4CF;" cx="256.361" cy="392.266" r="72.141"/>
<path style="fill:#99DD9D;" d="M256.363,344.172c35.744,0,65.398,26.001,71.125,60.117c0.656-3.912,1.016-7.924,1.016-12.023
	c0-39.843-32.298-72.141-72.141-72.141s-72.141,32.298-72.141,72.141c0,4.099,0.36,8.112,1.016,12.023
	C190.965,370.173,220.619,344.172,256.363,344.172z"/>
<g>
	<path id="SVGCleanerId_0_1_" style="fill:#00C70D;" d="M283.082,378.907c0-14.757-11.962-26.719-26.719-26.719
		c-14.757,0-26.719,11.962-26.719,26.719c0,9.931,5.423,18.59,13.464,23.195l-13.464,23.562v6.68h53.437v-6.677l-13.464-23.565
		C277.66,397.497,283.082,388.837,283.082,378.907z"/>
</g>
<g>
	<rect x="120.095" y="39.577" style="fill:#FFF6DA;" width="64.125" height="80.157"/>
	<circle style="fill:#FFF6DA;" cx="376.596" cy="175.843" r="16.031"/>
</g>
<path d="M290.597,439.859H222.13v-16.19l11.144-19.502c-7.004-6.417-11.144-15.571-11.144-25.26
	c0-18.876,15.357-34.234,34.234-34.234s34.234,15.357,34.234,34.234c0,9.689-4.141,18.844-11.145,25.26l11.145,19.505
	L290.597,439.859L290.597,439.859z M238.777,424.83h35.173l-14.581-25.518l6.516-3.73c5.974-3.421,9.684-9.81,9.684-16.675
	c0-10.589-8.616-19.204-19.204-19.204c-10.589,0-19.205,8.615-19.205,19.204c0,6.864,3.71,13.254,9.684,16.675l6.515,3.731
	L238.777,424.83z"/>
<path d="M376.598,199.389c-12.983,0-23.546-10.563-23.546-23.546s10.563-23.546,23.546-23.546s23.546,10.563,23.546,23.546
	S389.581,199.389,376.598,199.389z M376.598,167.327c-4.696,0-8.517,3.82-8.517,8.517s3.82,8.517,8.517,8.517
	c4.696,0,8.517-3.82,8.517-8.517S381.294,167.327,376.598,167.327z"/>
<path id="SVGCleanerId_1" d="M191.737,127.249h-79.155V32.063h79.155V127.249z M127.612,112.219h49.096V47.092h-49.096V112.219z"/>
<rect id="SVGCleanerId_2" x="152.158" y="144.282" width="80.157" height="15.029"/>
<rect id="SVGCleanerId_3" x="112.079" y="176.344" width="80.157" height="15.029"/>
<rect id="SVGCleanerId_4" x="184.22" y="208.407" width="48.094" height="15.029"/>
<rect x="280.408" y="176.344" width="16.031" height="15.029"/>
<path id="SVGCleanerId_5" d="M256.363,471.922c-43.922,0-79.656-35.734-79.656-79.656s35.734-79.656,79.656-79.656
	c43.923,0,79.656,35.734,79.656,79.656S300.286,471.922,256.363,471.922z M256.363,327.64c-35.635,0-64.626,28.992-64.626,64.626
	s28.992,64.626,64.626,64.626s64.626-28.992,64.626-64.626S291.999,327.64,256.363,327.64z"/>
<path d="M290.597,439.859H222.13v-16.19l11.144-19.502c-7.004-6.417-11.144-15.571-11.144-25.26
	c0-18.876,15.357-34.234,34.234-34.234s34.234,15.357,34.234,34.234c0,9.689-4.141,18.844-11.145,25.26l11.145,19.505
	L290.597,439.859L290.597,439.859z M238.777,424.83h35.173l-14.581-25.518l6.516-3.73c5.974-3.421,9.684-9.81,9.684-16.675
	c0-10.589-8.616-19.204-19.204-19.204c-10.589,0-19.205,8.615-19.205,19.204c0,6.864,3.71,13.254,9.684,16.675l6.515,3.731
	L238.777,424.83z"/>
<path d="M376.598,199.389c-12.983,0-23.546-10.563-23.546-23.546s10.563-23.546,23.546-23.546s23.546,10.563,23.546,23.546
	S389.581,199.389,376.598,199.389z M376.598,167.327c-4.696,0-8.517,3.82-8.517,8.517s3.82,8.517,8.517,8.517
	c4.696,0,8.517-3.82,8.517-8.517S381.294,167.327,376.598,167.327z"/>
<g>
	<path id="SVGCleanerId_1_1_" d="M191.737,127.249h-79.155V32.063h79.155V127.249z M127.612,112.219h49.096V47.092h-49.096V112.219z
		"/>
</g>
<rect x="112.079" y="144.282" style="fill:#FFFFFF;" width="24.047" height="15.029"/>
<g>
	<rect id="SVGCleanerId_2_1_" x="152.158" y="144.282" width="80.157" height="15.029"/>
</g>
<g>
	<rect id="SVGCleanerId_3_1_" x="112.079" y="176.344" width="80.157" height="15.029"/>
</g>
<rect x="208.267" y="176.344" style="fill:#FFFFFF;" width="24.047" height="15.029"/>
<g>
	<rect id="SVGCleanerId_4_1_" x="184.22" y="208.407" width="48.094" height="15.029"/>
</g>
<g>
	<rect x="192.236" y="240.47" style="fill:#FFFFFF;" width="40.078" height="15.029"/>
	<polygon style="fill:#FFFFFF;" points="136.128,479.937 88.535,479.937 88.535,432.344 103.565,432.344 103.565,464.908 
		136.128,464.908 	"/>
	<rect x="152.158" y="464.908" style="fill:#FFFFFF;" width="16.031" height="15.029"/>
	<polygon style="fill:#FFFFFF;" points="424.191,352.188 409.162,352.188 409.162,319.624 376.598,319.624 376.598,304.595 
		424.191,304.595 	"/>
	<rect x="344.533" y="304.595" style="fill:#FFFFFF;" width="16.031" height="15.029"/>
	<rect x="280.408" y="152.297" style="fill:#FFFFFF;" width="32.063" height="15.029"/>
</g>
<path d="M456.173,480.412l-15.029,0.05l0.055,16.508H70.751v-253.89l11.63-11.629h65.272l11.521,11.612v44.498l281.324,0.203
	l0.592,176.667l15.029-0.051l-0.643-191.634l-15.255-0.011V120.235H319.236V0H79.768v31.562h15.029V15.029h209.409v105.205h-56.11
	v152.297h-73.143v-35.659l-20.291-20.451h-0.751H94.798V47.593H79.768v168.83h-3.613l-20.434,20.434V512h400.557L456.173,480.412z
	 M263.878,272.532v-18.97l40.185-28.186l47.777,39.814l40.174-24.105l33.178,26.542v4.906H263.878z M425.193,135.264V248.38
	l-31.949-25.56l-39.982,23.989l-48.411-40.343l-41.724,29.265V135.264H425.193z"/>
<g>
	<path id="SVGCleanerId_5_1_" d="M256.363,471.922c-43.922,0-79.656-35.734-79.656-79.656s35.734-79.656,79.656-79.656
		c43.923,0,79.656,35.734,79.656,79.656S300.286,471.922,256.363,471.922z M256.363,327.64c-35.635,0-64.626,28.992-64.626,64.626
		s28.992,64.626,64.626,64.626s64.626-28.992,64.626-64.626S291.999,327.64,256.363,327.64z"/>
</g>
<g>
</g>
<g>
</g>
<g>
</g>
<g>
</g>
<g>
</g>
<g>
</g>
<g>
</g>
<g>
</g>
<g>
</g>
<g>
</g>
<g>
</g>
<g>
</g>
<g>
</g>
<g>
</g>
<g>
</g>
</svg>
