<?xml version="1.0" encoding="iso-8859-1"?>
<!-- Generator: Adobe Illustrator 19.0.0, SVG Export Plug-In . SVG Version: 6.00 Build 0)  -->
<svg version="1.1" id="Capa_1" xmlns="http://www.w3.org/2000/svg" xmlns:xlink="http://www.w3.org/1999/xlink" x="0px" y="0px"
	 viewBox="0 0 512 512" style="enable-background:new 0 0 512 512;" xml:space="preserve">
<polygon style="fill:#45C1FF;" points="328.141,464.407 183.859,464.407 183.859,143.781 191.875,135.765 320.125,135.765 
	328.141,143.781 "/>
<rect x="199.89" y="7.515" style="fill:#FFD045;" width="112.219" height="128.25"/>
<rect x="199.89" y="111.718" style="fill:#FFB831;" width="112.219" height="24.047"/>
<polygon style="fill:#FFD045;" points="320.125,464.407 191.875,464.407 191.875,496.47 199.89,504.485 312.11,504.485 
	320.125,496.47 "/>
<rect x="191.875" y="464.407" style="fill:#FFB831;" width="128.25" height="16.031"/>
<polygon style="fill:#FD7D28;" points="288.063,400.282 223.937,400.282 223.937,199.89 239.969,183.859 272.031,183.859 
	288.063,199.89 "/>
<polygon style="fill:#FD5900;" points="272.031,183.859 239.969,183.859 223.937,199.89 223.937,223.937 239.969,207.906 
	272.031,207.906 288.063,223.937 288.063,199.89 "/>
<path style="fill:#14A5FF;" d="M303.593,416.313h-95.186V189.635l24.696-21.307h45.792l24.697,21.307V416.313z M223.436,401.726
	h65.127V196.186l-15.382-13.271h-34.364l-15.381,13.271V401.726z"/>
<polygon style="fill:#FFD045;" points="288.063,400.282 223.937,400.282 223.937,256 247.984,231.953 264.016,231.953 288.063,256 
	"/>
<polygon style="fill:#FFB831;" points="264.016,231.953 247.984,231.953 223.937,256 223.937,288.063 247.984,264.016 
	264.016,264.016 288.063,288.063 288.063,256 "/>
<polygon style="fill:#FFE38F;" points="328.141,296.078 472.423,296.078 480.438,288.063 480.438,223.937 472.423,215.922 
	328.141,215.922 "/>
<polygon style="fill:#FFC65A;" points="472.423,215.922 328.141,215.922 328.141,239.969 472.423,239.969 480.438,247.984 
	480.438,223.937 "/>
<polygon style="fill:#FFE38F;" points="183.859,296.078 39.577,296.078 31.562,288.063 31.562,223.937 39.577,215.922 
	183.859,215.922 "/>
<polygon style="fill:#FFC65A;" points="39.577,215.922 31.562,223.937 31.562,247.984 39.577,239.969 183.859,239.969 
	183.859,215.922 "/>
<g>
	<rect x="247.984" y="264.517" style="fill:#FFFFFF;" width="16.031" height="15.029"/>
	<rect x="224.438" y="47.593" style="fill:#FFFFFF;" width="15.029" height="24.047"/>
	<rect x="272.532" y="47.593" style="fill:#FFFFFF;" width="15.029" height="24.047"/>
</g>
<rect x="247.984" y="296.579" width="16.031" height="15.029"/>
<rect x="247.984" y="328.642" style="fill:#FFFFFF;" width="16.031" height="15.029"/>
<rect x="247.984" y="360.704" width="16.031" height="15.029"/>
<g>
	<polygon style="fill:#FFFFFF;" points="405.595,249.978 394.968,239.35 388.946,245.373 382.924,239.35 372.296,249.978 
		378.319,256 372.296,262.022 382.924,272.65 388.946,266.627 394.968,272.65 405.595,262.022 399.573,256 	"/>
	<polygon style="fill:#FFFFFF;" points="129.076,239.35 123.054,245.373 117.032,239.35 106.405,249.978 112.427,256 
		106.405,262.022 117.032,272.65 123.054,266.627 129.076,272.65 139.704,262.022 133.681,256 139.704,249.978 	"/>
</g>
<path d="M216.423,196.778v56.11v154.909h79.155V252.888v-56.11l-20.434-20.434h-38.288L216.423,196.778z M280.548,392.767h-49.096
	V259.112l19.644-19.644h9.807l19.644,19.644V392.767z M268.919,191.374l11.629,11.629v34.855l-13.419-13.419h-22.256l-13.42,13.42
	v-34.855l11.629-11.63H268.919z"/>
<path d="M475.535,208.407H335.656v-67.738l-12.418-12.418h-3.613V0H192.376v31.562h15.029V15.029h41.08v24.548h15.029V15.029h41.08
	V128.25h-41.08V79.656h-15.029v48.595h-41.08V47.593h-15.029v80.658h-3.613l-12.418,12.418v67.738H36.465l-12.418,12.418v70.35
	l12.418,12.417h139.879v168.329h8.016v27.66L196.778,512h118.444l12.417-12.418v-27.66h8.016v-47.593h-15.029v32.564H191.374
	V146.893l3.613-3.613h122.025l3.613,3.613v261.405h15.029V303.593h139.879l12.419-12.418v-70.35L475.535,208.407z M312.611,471.922
	v21.436l-3.613,3.613H203.002l-3.613-3.613v-21.436H312.611z M42.689,288.564l-3.613-3.613v-57.9l3.613-3.614h133.655v16.741
	l-5.196,5.196l-6.022-6.022L154.5,249.978l6.022,6.022l-6.022,6.022l10.627,10.627l6.022-6.022l5.196,5.196v16.741H42.689z
	 M472.924,284.951l-3.613,3.613H335.656v-16.741l5.196-5.196l6.022,6.022l10.627-10.627L351.478,256l6.022-6.022l-10.627-10.627
	l-6.022,6.022l-5.196-5.196v-16.741h133.655l3.613,3.613L472.924,284.951L472.924,284.951z"/>
<polygon points="446.382,239.35 440.36,245.373 434.338,239.35 423.711,249.978 429.733,256 423.711,262.022 434.338,272.65 
	440.36,266.627 446.382,272.65 457.01,262.022 450.987,256 457.01,249.978 "/>
<polygon points="77.662,239.35 71.64,245.373 65.618,239.35 54.99,249.978 61.013,256 54.99,262.022 65.618,272.65 71.64,266.627 
	77.662,272.65 88.289,262.022 82.267,256 88.289,249.978 "/>
<g>
	<rect x="288.063" y="424.83" style="fill:#FFFFFF;" width="16.031" height="15.029"/>
	<rect x="207.906" y="424.83" style="fill:#FFFFFF;" width="16.031" height="15.029"/>
</g>
<g>
</g>
<g>
</g>
<g>
</g>
<g>
</g>
<g>
</g>
<g>
</g>
<g>
</g>
<g>
</g>
<g>
</g>
<g>
</g>
<g>
</g>
<g>
</g>
<g>
</g>
<g>
</g>
<g>
</g>
</svg>
