<?xml version="1.0" encoding="iso-8859-1"?>
<!-- Generator: Adobe Illustrator 19.0.0, SVG Export Plug-In . SVG Version: 6.00 Build 0)  -->
<svg version="1.1" id="Capa_1" xmlns="http://www.w3.org/2000/svg" xmlns:xlink="http://www.w3.org/1999/xlink" x="0px" y="0px"
	 viewBox="0 0 512 512" style="enable-background:new 0 0 512 512;" xml:space="preserve">
<rect x="127.75" y="7.515" style="fill:#45C1FF;" width="256.501" height="496.971"/>
<g>
	<rect x="131.697" y="400.282" style="fill:#14A5FF;" width="256.501" height="32.063"/>
	<rect x="127.75" y="7.515" style="fill:#14A5FF;" width="256.501" height="24.047"/>
</g>
<rect x="151.796" y="55.609" style="fill:#C3EBFF;" width="208.407" height="352.689"/>
<rect x="151.796" y="55.609" style="fill:#99C4FF;" width="208.407" height="24.047"/>
<circle style="fill:#DAF3FF;" cx="256" cy="456.391" r="24.047"/>
<path style="fill:#FFFFFF;" d="M256,135.765c-72.78,0-135.024,39.845-160.313,96.188c25.289,56.343,87.533,96.188,160.313,96.188
	s135.024-39.845,160.313-96.188C391.024,175.61,328.78,135.765,256,135.765z"/>
<circle style="fill:#FFD045;" cx="256" cy="231.953" r="96.188"/>
<polygon style="fill:#FFB831;" points="179.91,188.473 192.592,275.433 256,318.913 319.409,275.433 332.09,188.473 256,144.993 "/>
<polygon style="fill:#00C70D;" points="199.89,199.89 209.242,264.016 256,296.078 302.758,264.016 312.11,199.89 256,167.828 "/>
<polygon style="fill:#00A90B;" points="256,191.875 308.872,222.088 312.11,199.89 256,167.828 199.89,199.89 203.128,222.088 "/>
<g>
	<circle style="fill:#FD7D28;" cx="312.11" cy="360.204" r="16.031"/>
	<circle style="fill:#FD7D28;" cx="199.89" cy="95.687" r="16.031"/>
</g>
<path d="M256,487.953c-17.403,0-31.562-14.159-31.562-31.562S238.597,424.83,256,424.83c17.403,0,31.562,14.159,31.562,31.562
	S273.403,487.953,256,487.953z M256,439.859c-9.116,0-16.532,7.417-16.532,16.532s7.416,16.532,16.532,16.532
	c9.116,0,16.532-7.417,16.532-16.532S265.116,439.859,256,439.859z"/>
<rect x="239.969" y="24.047" width="32.063" height="15.029"/>
<rect x="280.047" y="24.047" width="16.031" height="15.029"/>
<rect x="215.922" y="24.047" width="16.031" height="15.029"/>
<path d="M423.169,228.876c-7.556-16.833-18.184-32.235-31.404-45.717V47.593h-15.029V169.58c-2.918-2.343-5.924-4.608-9.018-6.791
	V48.094H144.282v114.695c-3.099,2.179-6.1,4.449-9.018,6.791V15.029h241.472v16.532h15.029V0h-271.53v183.159
	c-13.221,13.482-23.849,28.884-31.404,45.717l-1.381,3.077l1.381,3.077c7.556,16.833,18.184,32.235,31.404,45.717v151.597h15.029
	V294.326c2.918,2.343,5.919,4.612,9.018,6.791v114.695h223.436V301.117c3.094-2.183,6.1-4.449,9.018-6.791v202.645H135.264v-48.595
	h-15.029V512h271.53V280.747c13.221-13.482,23.849-28.884,31.404-45.717l1.381-3.077L423.169,228.876z M352.689,63.123v90.138
	c-26.771-15.181-57.348-23.662-89.174-24.821V88.172H222.2c-3.144-9.308-11.953-16.031-22.31-16.031
	c-12.983,0-23.546,10.563-23.546,23.546s10.563,23.546,23.546,23.546c10.356,0,19.165-6.723,22.31-16.031h26.285v25.238
	c-31.826,1.159-62.403,9.641-89.174,24.821V63.123H352.689z M344.673,231.953c0,48.009-38.351,87.224-86.024,88.63
	c-0.884,0.012-1.762,0.043-2.649,0.043c-0.887,0-1.765-0.031-2.649-0.043c-47.673-1.406-86.024-40.621-86.024-88.63
	s38.351-87.224,86.024-88.63c0.884-0.012,1.762-0.043,2.649-0.043c0.887,0,1.765,0.031,2.649,0.043
	C306.322,144.729,344.673,183.944,344.673,231.953z M208.407,95.687c0,4.696-3.82,8.517-8.517,8.517s-8.517-3.82-8.517-8.517
	s3.82-8.517,8.517-8.517S208.407,90.991,208.407,95.687z M103.969,231.953c15.872-33.173,44.385-59.044,79.534-74.074
	c-19.243,18.837-31.206,45.082-31.206,74.074s11.963,55.237,31.206,74.074C148.353,290.997,119.841,265.126,103.969,231.953z
	 M159.311,400.783v-90.147c10.489,5.944,21.563,10.856,33.065,14.714v42.369H289.8c3.144,9.308,11.953,16.031,22.31,16.031
	c12.983,0,23.546-10.563,23.546-23.546s-10.563-23.546-23.546-23.546c-10.356,0-19.165,6.723-22.31,16.031h-82.395v-22.94
	c14.685,3.64,29.929,5.617,45.442,5.853c1.048,0.031,2.098,0.052,3.153,0.052c1.055,0,2.105-0.021,3.153-0.052
	c33.394-0.51,65.543-9.086,93.536-24.963v90.143H159.311z M303.593,360.204c0-4.696,3.82-8.517,8.517-8.517
	c4.696,0,8.517,3.82,8.517,8.517c0,4.696-3.82,8.517-8.517,8.517C307.413,368.72,303.593,364.9,303.593,360.204z M328.497,306.027
	c19.243-18.837,31.206-45.082,31.206-74.074s-11.963-55.237-31.206-74.074c35.15,15.029,63.662,40.901,79.534,74.074
	C392.159,265.126,363.647,290.997,328.497,306.027z"/>
<path d="M256,159.173l-64.285,36.735l10.565,72.447L256,305.19l53.72-36.836l10.565-72.447L256,159.173z M302.104,216.423h-38.589
	v-35.646l40.42,23.097L302.104,216.423z M248.485,180.777v35.646h-38.589l-1.83-12.549L248.485,180.777z M212.087,231.452h36.398
	v50.361l-32.282-22.136L212.087,231.452z M263.515,281.813v-50.361h36.398l-4.116,28.225L263.515,281.813z"/>
<rect x="288.063" y="80.157" width="16.031" height="15.029"/>
<rect x="320.125" y="104.204" style="fill:#FFFFFF;" width="16.031" height="15.029"/>
<g>
</g>
<g>
</g>
<g>
</g>
<g>
</g>
<g>
</g>
<g>
</g>
<g>
</g>
<g>
</g>
<g>
</g>
<g>
</g>
<g>
</g>
<g>
</g>
<g>
</g>
<g>
</g>
<g>
</g>
</svg>
