<?xml version="1.0" encoding="iso-8859-1"?>
<!-- Generator: Adobe Illustrator 19.0.0, SVG Export Plug-In . SVG Version: 6.00 Build 0)  -->
<svg version="1.1" id="Capa_1" xmlns="http://www.w3.org/2000/svg" xmlns:xlink="http://www.w3.org/1999/xlink" x="0px" y="0px"
	 viewBox="0 0 512 512" style="enable-background:new 0 0 512 512;" xml:space="preserve">
<polygon style="fill:#6ACDFF;" points="456.195,456.446 456.195,216.211 440.179,200.195 352.093,200.195 352.093,392.383 
	151.898,392.383 151.898,200.195 71.82,200.195 55.804,216.211 55.804,456.446 207.953,456.446 223.968,472.461 288.031,472.461 
	304.046,456.446 "/>
<g>
	<rect x="352.093" y="200.195" style="fill:#14A5FF;" width="16.016" height="24.023"/>
	<rect x="135.882" y="200.195" style="fill:#14A5FF;" width="16.016" height="24.023"/>
</g>
<polygon style="fill:#DAF3FF;" points="432.172,432.422 432.172,232.227 424.164,224.219 352.093,224.219 352.093,392.383 
	151.898,392.383 151.898,224.219 87.835,224.219 79.827,232.227 79.827,432.422 "/>
<polygon style="fill:#C3EBFF;" points="432.172,432.422 432.172,232.227 424.164,224.219 352.093,224.219 352.093,392.383 
	151.898,392.383 151.898,224.219 87.835,224.219 79.827,232.227 79.827,432.422 "/>
<polygon style="fill:#99C4FF;" points="368.109,408.399 368.109,232.227 362.831,224.219 352.093,224.219 352.093,392.383 
	148.435,392.383 148.435,224.219 141.16,224.219 135.882,232.227 135.882,408.399 "/>
<rect x="151.898" y="104.102" style="fill:#FD7D28;" width="200.195" height="288.282"/>
<g>
	<path style="fill:#FD5900;" d="M234.646,192.188h-5.517c6.654-5.87,10.856-14.453,10.856-24.023
		c0-17.69-14.341-32.031-32.031-32.031s-32.031,14.341-32.031,32.031c0,9.57,4.202,18.154,10.856,24.023h-5.517
		c-7.371,0-13.346,5.975-13.346,13.346v66.732h80.078v-66.732C247.992,198.163,242.017,192.188,234.646,192.188z"/>
	<rect x="151.898" y="104.102" style="fill:#FD5900;" width="200.195" height="24.023"/>
</g>
<g>
	<circle style="fill:#FFD045;" cx="207.953" cy="168.164" r="16.016"/>
	<path style="fill:#FFD045;" d="M231.976,256.25h-48.047v-40.039c0-4.422,3.586-8.008,8.008-8.008h32.031
		c4.422,0,8.008,3.585,8.008,8.008V256.25z"/>
</g>
<polygon style="fill:#45C1FF;" points="448.187,504.493 63.812,504.493 47.796,488.477 47.796,456.446 207.953,456.446 
	223.968,472.461 288.031,472.461 304.046,456.446 464.203,456.446 464.203,488.477 "/>
<polygon style="fill:#14A5FF;" points="304.046,456.446 288.031,472.461 223.968,472.461 207.953,456.446 47.796,456.446 
	47.796,480.469 199.945,480.469 207.953,488.477 304.046,488.477 312.054,480.469 464.203,480.469 464.203,456.446 "/>
<path d="M312.555,128.125v56.555H287.53v-14.407l3.199,3.199l10.617-10.616l-21.325-21.324l-21.325,21.324l10.617,10.616
	l3.199-3.199v17.911c0,6.347,5.164,11.511,11.511,11.511h32.031c6.347,0,11.511-5.164,11.511-11.511v-60.059H312.555z"/>
<path d="M207.953,191.687c-12.971,0-23.523-10.552-23.523-23.523c0-12.971,10.552-23.523,23.523-23.523s23.523,10.552,23.523,23.523
	C231.476,181.135,220.923,191.687,207.953,191.687z M207.953,159.656c-4.692,0-8.508,3.817-8.508,8.508
	c0,4.692,3.817,8.508,8.508,8.508s8.508-3.817,8.508-8.508C216.461,163.473,212.644,159.656,207.953,159.656z"/>
<rect x="255.999" y="216.712" width="72.07" height="15.015"/>
<rect x="255.999" y="248.743" style="fill:#FFFFFF;" width="16.016" height="15.015"/>
<rect x="288.031" y="248.743" width="40.039" height="15.015"/>
<path d="M239.483,263.758h-63.062v-47.546c0-8.555,6.96-15.515,15.515-15.515h32.031c8.555,0,15.515,6.96,15.515,15.515V263.758z
	 M191.436,248.743h33.032v-32.532c0-0.276-0.224-0.501-0.5-0.501h-32.031c-0.276,0-0.5,0.224-0.5,0.501V248.743z"/>
<rect x="175.921" y="280.774" style="fill:#FFFFFF;" width="48.047" height="15.015"/>
<rect x="239.984" y="280.774" width="88.086" height="15.015"/>
<rect x="280.023" y="312.805" style="fill:#FFFFFF;" width="48.047" height="15.015"/>
<rect x="175.921" y="312.805" width="88.086" height="15.015"/>
<rect x="175.921" y="344.837" width="16.016" height="15.015"/>
<rect x="207.953" y="344.837" style="fill:#FFFFFF;" width="16.016" height="15.015"/>
<rect x="239.984" y="344.837" width="24.023" height="15.015"/>
<rect x="280.023" y="344.837" width="16.016" height="15.015"/>
<rect x="312.054" y="344.837" width="16.016" height="15.015"/>
<rect x="416.156" y="472.962" width="16.016" height="15.015"/>
<rect x="368.109" y="472.962" style="fill:#FFFFFF;" width="32.031" height="15.015"/>
<path d="M463.702,448.938v-184.68h-15.015v184.68h-147.75l-16.016,16.016h-57.843l-16.016-16.016H63.311V219.32l11.617-11.617
	h69.462v9.009H84.726L72.32,229.118V439.93h367.359V229.118l-12.406-12.406h-67.672v-9.009h77.47l11.617,11.617v28.922h15.015
	v-35.14l-20.414-20.414h-83.688V96.594h-32.031V0h-15.015v96.594H191.937v15.015h152.649v273.267H159.405V111.609h16.516V96.594
	h-31.531v96.094h-75.68l-20.414,20.414v235.836h-8.008v42.648L60.703,512h27.132v-15.015H66.921l-11.617-11.617v-21.415h149.54
	l16.016,16.016h70.282l16.016-16.016h149.539v21.415l-11.617,11.617H103.851V512h347.446l20.414-20.414v-42.648H463.702z
	 M359.601,399.891V231.726h61.454l3.61,3.61v189.579H87.335V235.336l3.61-3.61h53.446v168.164H359.601z"/>
<rect x="111.859" y="264.759" width="16.016" height="15.015"/>
<rect x="95.843" y="304.798" style="fill:#FFFFFF;" width="16.016" height="15.015"/>
<rect x="111.859" y="344.837" width="16.016" height="15.015"/>
<rect x="376.117" y="264.759" style="fill:#FFFFFF;" width="16.016" height="15.015"/>
<rect id="SVGCleanerId_0" x="392.132" y="304.798" width="16.016" height="15.015"/>
<rect x="376.117" y="344.837" style="fill:#FFFFFF;" width="16.016" height="15.015"/>
<g>
	<rect id="SVGCleanerId_0_1_" x="392.132" y="304.798" width="16.016" height="15.015"/>
</g>
<g>
</g>
<g>
</g>
<g>
</g>
<g>
</g>
<g>
</g>
<g>
</g>
<g>
</g>
<g>
</g>
<g>
</g>
<g>
</g>
<g>
</g>
<g>
</g>
<g>
</g>
<g>
</g>
<g>
</g>
</svg>
