<?xml version="1.0" encoding="iso-8859-1"?>
<!-- Generator: Adobe Illustrator 19.0.0, SVG Export Plug-In . SVG Version: 6.00 Build 0)  -->
<svg version="1.1" id="Capa_1" xmlns="http://www.w3.org/2000/svg" xmlns:xlink="http://www.w3.org/1999/xlink" x="0px" y="0px"
	 viewBox="0 0 512 512" style="enable-background:new 0 0 512 512;" xml:space="preserve">
<path style="fill:#45C1FF;" d="M261.614,222.748l-4.516,2.606l-4.539-2.565c-55.997-31.655-90.735-90.893-91.021-155.216
	l-0.019-4.335l94.614-54.602l95.097,53.758l0.019,4.335C351.535,131.052,317.328,190.596,261.614,222.748z"/>
<path style="fill:#14A5FF;" d="M163.529,93.292l92.605-53.444l93.334,52.762c1.201-8.504,1.821-17.146,1.782-25.883l-0.019-4.335
	L256.134,8.635L161.52,63.237l0.019,4.335C161.578,76.259,162.266,84.846,163.529,93.292z"/>
<path style="fill:#C3EBFF;" d="M275.995,152.596h-39.989c-6.625,0-11.997-5.372-11.997-11.997V84.614
	c0-6.625,5.372-11.997,11.997-11.997h39.989c6.625,0,11.997,5.372,11.997,11.997v55.985
	C287.991,147.226,282.62,152.596,275.995,152.596z"/>
<path style="fill:#99C4FF;" d="M275.995,72.618h-39.989c-6.625,0-11.997,5.372-11.997,11.997v23.994
	c0-6.625,5.372-11.997,11.997-11.997h39.989c6.625,0,11.997,5.372,11.997,11.997V84.614
	C287.991,77.989,282.62,72.618,275.995,72.618z"/>
<g>
	<circle style="fill:#FFD045;" cx="439.952" cy="256.571" r="15.996"/>
	<circle style="fill:#FFD045;" cx="72.05" cy="256.571" r="15.996"/>
</g>
<rect x="8.067" y="312.556" style="fill:#00C70D;" width="199.946" height="191.949"/>
<g>
	<rect x="8.067" y="312.556" style="fill:#00A90B;" width="199.946" height="23.994"/>
	<rect x="8.067" y="440.522" style="fill:#00A90B;" width="199.946" height="23.994"/>
</g>
<rect x="8.067" y="376.539" style="fill:#FFD045;" width="199.946" height="63.983"/>
<rect x="8.067" y="376.539" style="fill:#FFB831;" width="199.946" height="23.994"/>
<rect x="367.971" y="456.518" style="fill:#00A90B;" width="47.987" height="47.987"/>
<rect x="279.995" y="424.526" style="fill:#00C70D;" width="223.94" height="31.991"/>
<rect x="279.995" y="312.556" style="fill:#CCF4CF;" width="223.94" height="111.97"/>
<rect x="279.995" y="312.556" style="fill:#99DD9D;" width="223.94" height="23.994"/>
<rect x="32.061" y="337.05" width="15.996" height="14.996"/>
<rect x="32.061" y="401.033" style="fill:#FFFFFF;" width="15.996" height="14.996"/>
<rect id="SVGCleanerId_0" x="64.052" y="401.033" width="15.996" height="14.996"/>
<rect x="32.061" y="465.016" width="15.996" height="14.996"/>
<rect x="64.052" y="337.05" style="fill:#FFFFFF;" width="15.996" height="14.996"/>
<g>
	<rect id="SVGCleanerId_0_1_" x="64.052" y="401.033" width="15.996" height="14.996"/>
</g>
<g>
	<rect x="64.052" y="465.016" style="fill:#FFFFFF;" width="15.996" height="14.996"/>
	<rect x="168.025" y="337.05" style="fill:#FFFFFF;" width="15.996" height="14.996"/>
</g>
<rect x="168.025" y="401.033" width="15.996" height="14.996"/>
<rect x="168.025" y="465.016" style="fill:#FFFFFF;" width="15.996" height="14.996"/>
<rect x="96.044" y="337.05" width="55.985" height="14.996"/>
<rect x="96.044" y="401.033" style="fill:#FFFFFF;" width="55.985" height="14.996"/>
<path d="M64.051,305.055v14.996h136.463v48.987H15.564v-48.987h32.491v-14.996H0.568v63.983v14.996v48.987v14.996V512h151.459
	v-14.996H15.564v-48.987h184.951v48.987h-32.491V512h47.487v-63.983v-14.996v-48.987v-14.996v-63.983L64.051,305.055L64.051,305.055
	z M200.515,433.021H15.564v-48.987h184.951V433.021z"/>
<rect x="96.044" y="465.016" width="55.985" height="14.996"/>
<path d="M511.432,336.547v-31.492H272.496v111.97v14.996v31.991h31.492v-14.996h-16.496v-16.995h208.944v16.995h-72.98h-62.983
	h-40.489v14.996h40.489v32.991h-16.496V512h16.496h62.983h16.496v-14.996h-16.496v-32.991h87.976v-31.991v-14.996v-64.483h-14.996
	v64.483H287.492v-96.974h208.944v16.496L511.432,336.547L511.432,336.547z M408.459,497.004h-32.991v-32.991h32.991V497.004z"/>
<g>
	<polygon style="fill:#FFFFFF;" points="479.44,368.538 464.444,368.538 464.444,352.043 431.953,352.043 431.953,337.047 
		479.44,337.047 	"/>
	<rect x="464.445" y="384.537" style="fill:#FFFFFF;" width="14.996" height="15.996"/>
</g>
<path d="M447.449,234.309v-73.214h-95.474v14.996h80.478v58.218c-9.288,3.137-15.996,11.927-15.996,22.26
	c0,12.955,10.539,23.494,23.494,23.494c12.955,0,23.494-10.539,23.494-23.494C463.444,246.236,456.736,237.446,447.449,234.309z
	 M439.951,265.066c-4.686,0-8.498-3.812-8.498-8.498s3.812-8.498,8.498-8.498s8.498,3.812,8.498,8.498
	C448.448,261.254,444.637,265.066,439.951,265.066z"/>
<path d="M160.026,176.09v-14.996H64.551v73.214c-9.288,3.137-15.996,11.927-15.996,22.26c0,12.955,10.539,23.494,23.494,23.494
	s23.494-10.539,23.494-23.494c0-10.333-6.708-19.123-15.996-22.26V176.09H160.026z M72.049,265.066
	c-4.686,0-8.498-3.812-8.498-8.498s3.812-8.498,8.498-8.498c4.686,0,8.498,3.812,8.498,8.498
	C80.547,261.254,76.735,265.066,72.049,265.066z"/>
<path d="M298.685,90.384l-3.196,3.196v-7.892c0-11.852-9.642-21.494-21.494-21.494h-35.99c-11.852,0-21.494,9.642-21.494,21.494
	v9.997h14.996v-9.997c0-3.583,2.915-6.498,6.498-6.498h35.99c3.583,0,6.498,2.915,6.498,6.498v7.892l-3.196-3.196l-10.603,10.603
	l21.297,21.297l21.297-21.297L298.685,90.384z"/>
<path d="M280.493,127.677v9.997c0,3.583-2.915,6.498-6.498,6.498h-35.99c-3.583,0-6.498-2.915-6.498-6.498v-7.892l3.196,3.196
	l10.603-10.603l-21.297-21.297l-21.297,21.297l10.603,10.603l3.196-3.196v7.892c0,11.852,9.642,21.494,21.494,21.494h35.99
	c11.852,0,21.494-9.642,21.494-21.494v-9.997H280.493z"/>
<path d="M257.137,233.989l-8.267-4.674c-58.194-32.897-94.532-94.862-94.829-161.711l-0.038-8.687L256.095,0l102.614,58.006
	l0.039,8.687c0.298,66.849-35.486,129.134-93.385,162.549l0,0L257.137,233.989z M169.037,67.556
	c0.278,61.476,33.695,118.452,87.213,148.706l0.811,0.458l0.806-0.465c53.243-30.727,86.151-88.004,85.885-149.477l-87.58-49.508
	L169.037,67.556z"/>
<polygon points="359.972,243.179 338.674,221.881 349.278,211.277 359.972,221.972 370.665,211.277 381.269,221.881 "/>
<polygon points="359.972,283.168 338.674,261.87 349.278,251.267 359.972,261.961 370.665,251.267 381.269,261.87 "/>
<polygon points="162.721,237.876 152.028,227.183 141.334,237.876 130.729,227.273 152.028,205.976 173.325,227.273 "/>
<polygon points="162.721,277.866 152.028,267.172 141.334,277.866 130.729,267.262 152.028,245.965 173.325,267.262 "/>
<g>
</g>
<g>
</g>
<g>
</g>
<g>
</g>
<g>
</g>
<g>
</g>
<g>
</g>
<g>
</g>
<g>
</g>
<g>
</g>
<g>
</g>
<g>
</g>
<g>
</g>
<g>
</g>
<g>
</g>
</svg>
