<?xml version="1.0" encoding="iso-8859-1"?>
<!-- Generator: Adobe Illustrator 19.0.0, SVG Export Plug-In . SVG Version: 6.00 Build 0)  -->
<svg version="1.1" id="Capa_1" xmlns="http://www.w3.org/2000/svg" xmlns:xlink="http://www.w3.org/1999/xlink" x="0px" y="0px"
	 viewBox="0 0 512 512" style="enable-background:new 0 0 512 512;" xml:space="preserve">
<path style="fill:#FD7D28;" d="M367.384,151.365c-6.052,68.172-44.89,129.712-104.872,164.328l-5.324,3.073l-5.351-3.026
	c-60.578-34.245-100.053-95.864-106.426-164.375H11.523c-2.213,0-4.008,1.794-4.008,4.008v288.564c0,2.213,1.795,4.008,4.008,4.008
	h488.955c2.213,0,4.008-1.794,4.008-4.008V155.372c0-2.213-1.794-4.008-4.008-4.008L367.384,151.365L367.384,151.365z"/>
<path style="fill:#FD5900;" d="M500.477,151.365H367.384c-6.052,68.172-44.89,129.712-104.872,164.328l-5.324,3.073l-5.351-3.026
	c-60.578-34.245-100.053-95.864-106.426-164.375H11.523c-2.213,0-4.008,1.794-4.008,4.008v33.065c0-2.213,1.795-4.008,4.008-4.008
	h124.243c6.372,68.512,55.491,130.13,116.071,164.375l5.351,3.026l5.324-3.073c59.981-34.616,107.671-96.156,113.723-164.328
	h124.243c2.213,0,4.008,1.795,4.008,4.008v-33.065C504.485,153.158,502.691,151.365,500.477,151.365z"/>
<rect x="7.515" y="231.522" style="fill:#BE4300;" width="496.971" height="64.125"/>
<rect x="7.515" y="231.522" style="fill:#A63A00;" width="496.971" height="25.049"/>
<path style="fill:#47A2D6;" d="M262.512,316.695l-5.324,3.073l-5.351-3.026c-66.036-37.33-107.002-107.187-107.34-183.044
	l-0.023-5.112l111.576-64.392l112.145,63.395l0.023,5.112C368.555,208.558,328.213,278.777,262.512,316.695z"/>
<path style="fill:#45C1FF;" d="M262.512,316.695l-5.324,3.073l-5.351-3.026c-66.036-37.33-107.002-107.187-107.34-183.044
	l-0.023-5.112l111.576-64.392l112.145,63.395l0.023,5.112C368.555,208.558,328.213,278.777,262.512,316.695z"/>
<path style="fill:#14A5FF;" d="M146.327,160.506l109.722-63.322l110.557,62.497c1.101-8.882,1.651-17.89,1.611-26.98l-0.023-5.112
	L256.049,64.194l-111.576,64.392l0.023,5.112C144.536,142.735,145.16,151.684,146.327,160.506z"/>
<path style="fill:#C3EBFF;" d="M260.925,283.107l-3.891,2.245l-3.911-2.21c-48.252-27.276-78.185-78.321-78.431-133.748
	l-0.017-3.735l81.527-47.05l81.943,46.322l0.017,3.735C338.409,204.094,308.931,255.402,260.925,283.107z"/>
<path style="fill:#99C4FF;" d="M176.807,174.139l79.395-45.819l80.044,45.248c1.295-8.161,1.953-16.482,1.916-24.902l-0.017-3.735
	l-81.943-46.322l-81.527,47.05l0.017,3.735C174.729,157.765,175.455,166.034,176.807,174.139z"/>
<circle style="fill:#14A5FF;" cx="388.258" cy="372.798" r="36.07"/>
<g>
	<circle style="fill:#45C1FF;" cx="428.337" cy="372.798" r="36.07"/>
	<rect x="47.593" y="360.775" style="fill:#45C1FF;" width="104.204" height="32.063"/>
</g>
<path d="M428.337,329.212c-7.223,0-14.034,1.776-20.039,4.9c-6.005-3.123-12.816-4.9-20.039-4.9
	c-24.033,0-43.585,19.552-43.585,43.585s19.552,43.585,43.585,43.585c7.223,0,14.034-1.776,20.039-4.9
	c6.005,3.123,12.816,4.9,20.039,4.9c24.033,0,43.585-19.552,43.585-43.585S452.37,329.212,428.337,329.212z M416.814,372.797
	c0,7.944-3.263,15.138-8.517,20.32c-5.253-5.181-8.517-12.375-8.517-20.32c0-7.945,3.263-15.138,8.517-20.32
	C413.551,357.659,416.814,364.853,416.814,372.797z M359.703,372.797c0-15.746,12.81-28.556,28.556-28.556
	c2.247,0,4.433,0.27,6.532,0.762c-6.265,7.55-10.039,17.239-10.039,27.793c0,10.555,3.773,20.244,10.039,27.793
	c-2.099,0.493-4.284,0.762-6.532,0.762C372.513,401.353,359.703,388.542,359.703,372.797z M428.337,401.353
	c-2.247,0-4.433-0.27-6.532-0.762c6.265-7.55,10.039-17.239,10.039-27.793c0-10.555-3.773-20.244-10.039-27.793
	c2.099-0.493,4.284-0.762,6.532-0.762c15.746,0,28.556,12.81,28.556,28.556S444.082,401.353,428.337,401.353z"/>
<path d="M257.073,294.006l-7.647-4.321c-50.475-28.534-81.99-82.277-82.248-140.257l-0.036-8.097l89.023-51.376l89.477,50.581
	l0.036,8.098c0.259,57.98-30.777,112.002-80.995,140.983l0,0L257.073,294.006z M182.211,149.986
	c0.457,52.36,29.003,100.832,74.611,126.614l0.174,0.098l0.173-0.1c45.377-26.187,73.49-74.911,73.479-127.274l-74.407-42.062
	L182.211,149.986z"/>
<polygon points="257.432,211.433 235.274,189.275 245.9,178.648 255.806,188.552 274.653,163.421 286.677,172.439 "/>
<path d="M512,176.414v-31.562H375.443c0.208-4.044,0.307-8.107,0.289-12.184l-0.042-9.475L256.011,55.539l-119.072,68.717
	l0.042,9.475c0.017,3.721,0.138,7.427,0.344,11.121H0v80.157v79.155v152.297h159.812v-15.029H15.029V304.163h204.754
	c1.041,0.827,2.09,1.643,3.148,2.452c0.291,0.222,0.584,0.441,0.876,0.662c1.541,1.166,3.099,2.314,4.674,3.442
	c0.697,0.5,1.395,0.999,2.099,1.492c0.722,0.504,1.448,1.005,2.178,1.501c1.12,0.762,2.249,1.515,3.386,2.259
	c0.51,0.333,1.018,0.666,1.531,0.995c1.378,0.885,2.769,1.752,4.171,2.609c0.456,0.278,0.913,0.554,1.371,0.83
	c1.627,0.978,3.264,1.943,4.923,2.88l9.089,5.138l9.042-5.218l0,0c1.651-0.953,3.281-1.934,4.903-2.927
	c0.419-0.257,0.838-0.515,1.254-0.774c1.545-0.961,3.081-1.934,4.597-2.931c0.309-0.202,0.611-0.412,0.918-0.615
	c1.219-0.812,2.43-1.634,3.63-2.468c0.61-0.424,1.219-0.849,1.825-1.279c1.018-0.722,2.028-1.456,3.032-2.194
	c1.008-0.74,2.006-1.492,2.999-2.248c0.649-0.495,1.297-0.99,1.94-1.492c0.843-0.656,1.68-1.317,2.512-1.985
	c0.054-0.043,0.109-0.085,0.163-0.129h202.928v137.268H175.843v15.029H512V304.163v-79.155v-32.564h-15.029v32.564H355.71
	c7.366-16.017,12.824-32.977,16.162-50.548c0.001-0.004,0.002-0.009,0.003-0.013c0.324-1.703,0.623-3.414,0.907-5.128
	c0.067-0.404,0.136-0.808,0.2-1.211c0.227-1.424,0.438-2.852,0.636-4.283c0.1-0.715,0.198-1.431,0.292-2.147
	c0.077-0.6,0.171-1.195,0.243-1.797h122.818v16.532H512z M15.029,159.881h123.639c0.093,0.748,0.211,1.492,0.313,2.238
	c0.1,0.733,0.2,1.467,0.308,2.199c0.208,1.432,0.433,2.86,0.669,4.284c0.072,0.434,0.146,0.868,0.221,1.301
	c0.292,1.692,0.6,3.379,0.931,5.059c0.015,0.075,0.03,0.15,0.045,0.225c3.423,17.328,8.905,34.039,16.245,49.82H15.029V159.881z
	 M15.029,289.134v-49.096h150.078c10.134,18.012,22.786,34.559,37.628,49.096H15.029z M257.149,311.114l-1.615-0.913
	c-1.68-0.95-3.34-1.927-4.987-2.921c-0.197-0.119-0.396-0.235-0.592-0.355c-1.522-0.925-3.025-1.873-4.518-2.835
	c-0.324-0.208-0.647-0.416-0.969-0.626c-1.388-0.906-2.76-1.829-4.123-2.765c-0.43-0.297-0.859-0.594-1.287-0.893
	c-1.26-0.881-2.509-1.774-3.746-2.681c-0.536-0.394-1.068-0.794-1.6-1.192c-0.923-0.69-1.838-1.391-2.747-2.096
	c-0.873-0.677-1.738-1.362-2.598-2.052c-0.555-0.445-1.106-0.895-1.657-1.345c-1.3-1.065-2.585-2.145-3.855-3.24
	c-0.221-0.19-0.443-0.381-0.663-0.572c-33.615-29.252-56.836-68.881-65.921-112.508c-0.05-0.241-0.097-0.484-0.147-0.726
	c-0.345-1.685-0.666-3.378-0.969-5.075c-0.155-0.879-0.307-1.758-0.451-2.641c-0.159-0.968-0.312-1.938-0.457-2.91
	c-0.195-1.311-0.381-2.624-0.55-3.942c-0.057-0.441-0.118-0.881-0.173-1.323c-0.214-1.758-0.405-3.524-0.574-5.293
	c-0.591-6.133-0.912-12.319-0.94-18.546l-0.003-0.75l104.08-60.065l104.611,59.136l0.003,0.75
	c0.031,6.929-0.311,13.808-0.977,20.624c-0.101,1.047-0.209,2.093-0.327,3.137c-0.118,1.042-0.244,2.081-0.379,3.12
	c-0.103,0.806-0.213,1.61-0.326,2.414c-0.174,1.233-0.356,2.466-0.552,3.694c-0.086,0.54-0.178,1.078-0.269,1.617
	c-0.246,1.461-0.5,2.92-0.778,4.373c-0.035,0.185-0.074,0.37-0.109,0.555c-8.824,45.488-32.984,86.844-68.349,116.865l-0.574,0.482
	c-1.951,1.644-3.943,3.246-5.961,4.821c-0.495,0.386-0.988,0.772-1.486,1.153c-0.805,0.616-1.615,1.225-2.43,1.831
	c-0.736,0.546-1.479,1.084-2.223,1.62c-0.662,0.478-1.321,0.961-1.99,1.432c-1.371,0.962-2.755,1.908-4.153,2.839
	c-0.526,0.351-1.058,0.692-1.588,1.038c-1.076,0.702-2.159,1.397-3.251,2.08c-0.499,0.313-0.997,0.625-1.499,0.934
	c-1.544,0.948-3.098,1.884-4.672,2.792c-0.018,0.01-0.035,0.021-0.053,0.031l0,0L257.149,311.114z M496.971,240.038v49.096H310.859
	c14.695-14.563,27.212-31.11,37.224-49.096H496.971z"/>
<path d="M159.311,400.351H40.078v-47.092h119.233V400.351z M55.108,385.322h89.174v-17.033H55.108V385.322z"/>
<rect x="39.577" y="192.947" style="fill:#FFFFFF;" width="16.031" height="15.029"/>
<rect x="71.64" y="192.947" width="48.094" height="15.029"/>
<rect x="424.329" y="192.947" style="fill:#FFFFFF;" width="16.031" height="15.029"/>
<rect x="392.266" y="192.947" width="16.031" height="15.029"/>
<rect x="456.391" y="192.947" width="16.031" height="15.029"/>
<rect x="183.859" y="353.26" style="fill:#FFFFFF;" width="72.141" height="15.029"/>
<rect x="272.031" y="353.26" width="48.094" height="15.029"/>
<rect x="247.984" y="385.323" style="fill:#FFFFFF;" width="72.141" height="15.029"/>
<rect x="183.859" y="385.323" width="48.094" height="15.029"/>
<g>
</g>
<g>
</g>
<g>
</g>
<g>
</g>
<g>
</g>
<g>
</g>
<g>
</g>
<g>
</g>
<g>
</g>
<g>
</g>
<g>
</g>
<g>
</g>
<g>
</g>
<g>
</g>
<g>
</g>
</svg>
