<?xml version="1.0" encoding="iso-8859-1"?>
<!-- Generator: Adobe Illustrator 19.0.0, SVG Export Plug-In . SVG Version: 6.00 Build 0)  -->
<svg version="1.1" id="Layer_1" xmlns="http://www.w3.org/2000/svg" xmlns:xlink="http://www.w3.org/1999/xlink" x="0px" y="0px"
	 viewBox="0 0 512 512" style="enable-background:new 0 0 512 512;" xml:space="preserve">
<path style="fill:#CFDCE5;" d="M333.884,241.244V130.416c0-42.603-34.66-77.275-77.263-77.275
	c-42.615,0-77.275,34.672-77.275,77.275v110.828h-44.263V130.416c0-67.008,54.517-121.537,121.537-121.537
	c67.008,0,121.524,54.529,121.524,121.537v110.828H333.884z"/>
<rect x="98.474" y="241.249" style="fill:#FF6F52;" width="316.271" height="261.872"/>
<path style="fill:#314A5F;" d="M295.487,446.816l-22.98-67.521c15.55-6.29,26.526-21.523,26.526-39.327
	c0-23.426-18.99-42.417-42.416-42.417s-42.416,18.99-42.416,42.417c0,17.804,10.976,33.037,26.526,39.327l-22.979,67.521H295.487z"
	/>
<path d="M414.138,232.369h-27.73V130.415c0-38.174-16.708-74.333-45.841-99.205c-3.73-3.183-9.335-2.742-12.518,0.987
	c-3.183,3.729-2.742,9.334,0.987,12.518c25.175,21.493,39.613,52.73,39.613,85.699v101.954h-26.504V130.415
	c0-47.505-38.644-86.154-86.142-86.154c-47.505,0-86.153,38.649-86.153,86.154v82.712c0,4.904,3.975,8.879,8.879,8.879
	c4.904,0,8.879-3.975,8.879-8.879v-82.712c0-37.713,30.682-68.396,68.395-68.396c37.707,0,68.384,30.682,68.384,68.396v101.954
	H143.347V130.415c0-62.12,50.538-112.658,112.658-112.658c17.15,0,33.623,3.772,48.962,11.21c4.417,2.143,9.724,0.297,11.864-4.115
	c2.14-4.412,0.297-9.723-4.115-11.864C294.941,4.37,275.861,0,256.005,0c-71.912,0-130.416,58.504-130.416,130.416V232.37H97.862
	c-4.904,0-8.879,3.975-8.879,8.879v167.2c0,4.904,3.975,8.879,8.879,8.879s8.879-3.975,8.879-8.879V250.127h298.517v244.115H106.741
	v-55.056c0-4.904-3.975-8.879-8.879-8.879s-8.879,3.975-8.879,8.879v63.935c0,4.904,3.975,8.879,8.879,8.879h316.276
	c4.905,0,8.879-3.975,8.879-8.879V241.248C423.017,236.344,419.043,232.369,414.138,232.369z"/>
<path d="M307.295,339.968c0-28.284-23.012-51.295-51.296-51.295s-51.295,23.011-51.295,51.295c0,18.15,9.396,34.552,24.517,43.762
	l-20.496,60.226c-0.922,2.711-0.481,5.702,1.186,8.03c1.667,2.329,4.355,3.71,7.219,3.71h77.74c2.864,0,5.551-1.382,7.219-3.71
	s2.11-5.319,1.186-8.03l-20.496-60.226C297.9,374.52,307.295,358.118,307.295,339.968z M268.56,371.065
	c-4.366,1.766-6.593,6.633-5.075,11.092l18.985,55.782h-52.938l18.985-55.782c1.518-4.458-0.71-9.325-5.076-11.092
	c-12.743-5.155-20.977-17.36-20.977-31.097c0-18.492,15.045-33.537,33.537-33.537c18.493,0,33.538,15.045,33.538,33.537
	C289.537,353.705,281.303,365.91,268.56,371.065z"/>
<g>
</g>
<g>
</g>
<g>
</g>
<g>
</g>
<g>
</g>
<g>
</g>
<g>
</g>
<g>
</g>
<g>
</g>
<g>
</g>
<g>
</g>
<g>
</g>
<g>
</g>
<g>
</g>
<g>
</g>
</svg>
