<svg height="512pt" viewBox="0 0 512 512.00108" width="512pt" xmlns="http://www.w3.org/2000/svg"><path d="m426.660156 409.601562v8.53125c.007813 6.792969-2.6875 13.308594-7.488281 18.113282-4.804687 4.804687-11.320313 7.496094-18.113281 7.488281h-290.132813c-6.792969.007813-13.308593-2.683594-18.113281-7.488281-4.800781-4.804688-7.496094-11.320313-7.488281-18.113282v-8.53125c-.023438-2.945312.496093-5.867187 1.535156-8.621093 2.535156-7.226563 8.21875-12.910157 15.449219-15.445313 2.75-1.039062 5.671875-1.558594 8.617187-1.535156 9.398438-.066406 16.996094-7.667969 17.066407-17.066406v-175.53125c-.027344-38.957032 16.960937-75.984375 46.507812-101.375 20.992188-18.210938 47.503906-28.820313 75.261719-30.121094 34.980469-1.695312 69.128906 11.015625 94.492187 35.167969 25.359375 24.152343 39.722656 57.636719 39.738282 92.660156v179.199219c.027343 9.414062 7.652343 17.039062 17.066406 17.066406 14.128906.023438 25.578125 11.472656 25.601562 25.601562zm0 0" fill="#f57c00"/><path d="m401.058594 426.667969v8.53125c.019531 2.917969-.503906 5.808593-1.535156 8.535156h-288.597657c-6.792969.007813-13.308593-2.683594-18.113281-7.488281-4.800781-4.804688-7.496094-11.320313-7.488281-18.113282v-8.53125c-.023438-2.945312.496093-5.867187 1.535156-8.621093 8.183594-.785157 14.660156-7.261719 15.449219-15.445313 2.75-1.039062 5.671875-1.558594 8.617187-1.535156 9.398438-.066406 16.996094-7.667969 17.066407-17.066406v-175.53125c-.027344-38.957032 16.960937-75.984375 46.507812-101.375 15.449219-7.800782 32.375-12.25 49.664062-13.054688 34.980469-1.691406 69.125 11.015625 94.488282 35.167969 25.359375 24.152344 39.722656 57.640625 39.738281 92.660156v179.199219c.027344 9.414062 7.652344 17.039062 17.066406 17.066406 14.132813.023438 25.582031 11.472656 25.601563 25.601563zm0 0" fill="#fec108"/><path d="m162.125 199.914062c-2.261719 0-4.433594-.898437-6.035156-2.5-1.597656-1.601562-2.5-3.769531-2.496094-6.035156-.414062-55.398437 42.109375-101.671875 97.347656-105.921875 1.683594-.082031 3.375-.121093 5.042969-.121093 4.710937 0 8.53125 3.820312 8.53125 8.53125 0 4.714843-3.820313 8.535156-8.53125 8.535156-1.402344 0-2.808594.035156-4.226563.101562-46.179687 3.726563-81.605468 42.546875-81.097656 88.875 0 2.265625-.898437 4.433594-2.5 6.035156-1.601562 1.601563-3.769531 2.5-6.035156 2.5zm0 0" fill="#fff"/><path d="m281.59375 34.132812v28.160157h-51.203125v-28.160157c0-14.136718 11.464844-25.597656 25.601563-25.597656 14.136718 0 25.601562 11.460938 25.601562 25.597656zm0 0" fill="#f57c00"/><path d="m255.992188 34.132812v28.160157h-25.601563v-28.160157c-.011719-9.152343 4.871094-17.613281 12.800781-22.183593 1.921875 1.148437 3.695313 2.523437 5.292969 4.09375 4.804687 4.792969 7.507813 11.304687 7.507813 18.089843zm0 0" fill="#fec108"/><path d="m315.726562 443.734375c.011719 15.847656-6.277343 31.046875-17.484374 42.25-11.203126 11.207031-26.402344 17.496094-42.25 17.484375-4.300782-.015625-8.589844-.472656-12.800782-1.367188-27.410156-6.019531-46.933594-30.304687-46.933594-58.367187zm0 0" fill="#d84315"/><path d="m290.125 443.734375c.003906 28.0625-19.523438 52.347656-46.933594 58.367187-27.410156-6.019531-46.933594-30.304687-46.933594-58.367187zm0 0" fill="#f57c00"/><path d="m162.125 264.535156c-2.261719 0-4.433594-.898437-6.035156-2.5-1.597656-1.601562-2.5-3.769531-2.496094-6.035156v-25.597656c0-4.714844 3.820312-8.535156 8.53125-8.535156 4.714844 0 8.535156 3.820312 8.535156 8.535156v25.597656c0 2.265625-.898437 4.433594-2.5 6.035156-1.601562 1.601563-3.769531 2.5-6.035156 2.5zm0 0" fill="#fff"/><path d="m187.726562 392.535156h-25.601562c-4.710938 0-8.53125-3.820312-8.53125-8.535156 0-4.710938 3.820312-8.53125 8.53125-8.53125h25.601562c4.710938 0 8.53125 3.820312 8.53125 8.53125 0 4.714844-3.820312 8.535156-8.53125 8.535156zm0 0" fill="#fff"/><path d="m349.859375 392.535156h-128c-4.714844 0-8.535156-3.820312-8.535156-8.535156 0-4.710938 3.820312-8.53125 8.535156-8.53125h128c4.710937 0 8.53125 3.820312 8.53125 8.53125 0 4.714844-3.820313 8.535156-8.53125 8.535156zm0 0" fill="#fff"/><g fill="#c03a2b"><path d="m45.957031 343.15625c-2.261719 0-4.433593-.898438-6.03125-2.5-53.234375-53.355469-53.234375-139.734375 0-193.089844 2.152344-2.167968 5.300781-3.023437 8.253907-2.234375 2.957031.785157 5.261718 3.09375 6.050781 6.046875.785156 2.953125-.066407 6.101563-2.238281 8.253906-46.582032 46.6875-46.582032 122.269532 0 168.957032 2.441406 2.4375 3.167968 6.109375 1.847656 9.296875-1.320313 3.1875-4.429688 5.265625-7.878906 5.269531zm0 0"/><path d="m76.125 312.984375c-2.261719.003906-4.433594-.898437-6.03125-2.5-36.601562-36.679687-36.601562-96.066406 0-132.746094 3.332031-3.324219 8.726562-3.316406 12.054688.011719 3.328124 3.328125 3.332031 8.722656.011718 12.054688-29.941406 30.015624-29.941406 78.597656 0 108.613281 2.4375 2.441406 3.167969 6.109375 1.847656 9.296875-1.320312 3.1875-4.429687 5.269531-7.882812 5.269531zm0 0"/><path d="m466.027344 343.15625c-3.453125 0-6.5625-2.082031-7.882813-5.269531-1.320312-3.1875-.59375-6.855469 1.847657-9.296875 46.578124-46.6875 46.578124-122.269532 0-168.957032-3.308594-3.335937-3.296876-8.71875.027343-12.039062 3.320313-3.320312 8.703125-3.332031 12.039063-.027344 53.246094 53.351563 53.246094 139.738282 0 193.089844-1.597656 1.601562-3.769532 2.5-6.03125 2.5zm0 0"/><path d="m435.859375 312.984375c-3.453125 0-6.5625-2.078125-7.882813-5.269531-1.320312-3.1875-.589843-6.855469 1.847657-9.296875 29.992187-29.992188 29.992187-78.617188 0-108.613281-3.320313-3.332032-3.316407-8.726563.011719-12.054688 3.328124-3.328125 8.722656-3.332031 12.054687-.011719 36.65625 36.65625 36.65625 96.089844 0 132.746094-1.597656 1.601563-3.769531 2.503906-6.03125 2.5zm0 0"/></g><path d="m250.941406 85.457031c-55.238281 4.25-97.761718 50.523438-97.347656 105.921875 0 4.714844 3.820312 8.535156 8.53125 8.535156 4.714844 0 8.535156-3.820312 8.535156-8.535156-.507812-46.328125 34.917969-85.148437 81.097656-88.875 1.417969-.070312 2.824219-.105468 4.226563-.101562 4.710937 0 8.53125-3.820313 8.53125-8.535156 0-4.710938-3.820313-8.53125-8.53125-8.53125-1.667969 0-3.359375.039062-5.042969.121093zm0 0"/><path d="m280.117188 10.007812c-9.757813-9.765624-24.4375-12.691406-37.195313-7.410156-12.753906 5.28125-21.070313 17.730469-21.0625 31.535156v21.460938c-61.019531 16.742188-103.078125 72.515625-102.402344 135.785156v175.554688c-.003906 4.710937-3.820312 8.53125-8.53125 8.535156-18.84375.019531-34.113281 15.289062-34.132812 34.132812v8.53125c.019531 18.84375 15.289062 34.113282 34.132812 34.136719h77.390625c4.273438 34.125 33.285156 59.730469 67.675782 59.730469 34.390624 0 63.402343-25.605469 67.675781-59.730469h77.390625c18.84375-.023437 34.113281-15.292969 34.132812-34.136719v-8.53125c-.019531-18.84375-15.289062-34.113281-34.132812-34.132812-4.710938-.003906-8.527344-3.824219-8.53125-8.535156v-179.199219c-.0625-62.25-42.148438-116.609375-102.402344-132.257813v-21.34375c.023438-9.054687-3.582031-17.742187-10.007812-24.125zm-41.191407 24.125c0-9.425781 7.640625-17.066406 17.066407-17.066406 9.425781 0 17.066406 7.640625 17.066406 17.066406v18.246094c-7.871094-1.019531-15.820313-1.359375-23.75-1.019531-3.511719.167969-6.949219.585937-10.382813 1.019531zm17.066407 460.800782c-24.957032-.042969-46.253907-18.058594-50.429688-42.664063h100.859375c-4.175781 24.605469-25.472656 42.621094-50.429687 42.664063zm82.410156-393.671875c23.761718 22.472656 37.175781 53.769531 37.054687 86.472656v179.199219c.015625 14.132812 11.46875 25.585937 25.601563 25.601562 9.421875.011719 17.054687 7.644532 17.066406 17.066406v8.53125c-.011719 9.421876-7.644531 17.058594-17.066406 17.066407h-290.132813c-9.421875-.007813-17.054687-7.644531-17.066406-17.066407v-8.53125c.011719-9.421874 7.644531-17.054687 17.066406-17.066406 14.132813-.015625 25.585938-11.46875 25.601563-25.601562v-175.554688c-1.074219-64.757812 48.957031-118.914062 113.597656-122.96875 1.984375-.097656 3.949219-.140625 5.917969-.140625 30.691406-.089843 60.214843 11.742188 82.359375 32.992188zm0 0"/><path d="m162.125 264.535156c2.265625 0 4.433594-.898437 6.035156-2.5 1.601563-1.601562 2.5-3.769531 2.5-6.035156v-25.597656c0-4.714844-3.820312-8.535156-8.535156-8.535156-4.710938 0-8.53125 3.820312-8.53125 8.535156v25.597656c-.003906 2.265625.898438 4.433594 2.496094 6.035156 1.601562 1.601563 3.773437 2.5 6.035156 2.5zm0 0"/><path d="m187.726562 375.46875h-25.601562c-4.710938 0-8.53125 3.820312-8.53125 8.53125 0 4.714844 3.820312 8.535156 8.53125 8.535156h25.601562c4.710938 0 8.53125-3.820312 8.53125-8.535156 0-4.710938-3.820312-8.53125-8.53125-8.53125zm0 0"/><path d="m213.324219 384c0 2.265625.898437 4.433594 2.5 6.035156 1.601562 1.601563 3.769531 2.5 6.035156 2.5h128c4.710937 0 8.53125-3.820312 8.53125-8.535156 0-4.710938-3.820313-8.53125-8.53125-8.53125h-128c-2.265625 0-4.433594.898438-6.035156 2.496094-1.601563 1.601562-2.5 3.773437-2.5 6.035156zm0 0"/><path d="m39.925781 147.566406c-53.234375 53.355469-53.234375 139.734375 0 193.089844 2.15625 2.15625 5.296875 2.996094 8.242188 2.207031 2.945312-.789062 5.242187-3.089843 6.03125-6.03125.789062-2.945312-.050781-6.085937-2.207031-8.242187-46.582032-46.6875-46.582032-122.269532 0-168.957032 3.332031-3.332031 3.332031-8.734374 0-12.066406-3.332032-3.332031-8.734376-3.332031-12.066407 0zm0 0"/><path d="m82.160156 177.738281c-1.601562-1.601562-3.773437-2.5-6.035156-2.5s-4.433594.898438-6.03125 2.5c-36.601562 36.679688-36.601562 96.066407 0 132.746094 3.332031 3.324219 8.726562 3.316406 12.054688-.011719 3.328124-3.328125 3.332031-8.722656.011718-12.054687-29.941406-30.015625-29.941406-78.597657 0-108.613281 1.597656-1.597657 2.5-3.769532 2.5-6.03125 0-2.265626-.902344-4.433594-2.5-6.035157zm0 0"/><path d="m459.992188 147.566406c-1.601563 1.601563-2.5 3.773438-2.5 6.035156 0 2.261719.898437 4.433594 2.5 6.03125 46.578124 46.6875 46.578124 122.269532 0 168.957032-3.332032 3.332031-3.332032 8.734375 0 12.066406 3.332031 3.332031 8.734374 3.332031 12.066406 0 53.246094-53.351562 53.246094-139.738281 0-193.089844-1.601563-1.597656-3.769532-2.5-6.03125-2.5-2.265625 0-4.433594.902344-6.035156 2.5zm0 0"/><path d="m429.824219 310.484375c1.601562 1.601563 3.773437 2.5 6.035156 2.5s4.433594-.898437 6.03125-2.5c36.65625-36.65625 36.65625-96.089844 0-132.746094-3.332031-3.320312-8.726563-3.316406-12.054687.011719-3.328126 3.328125-3.332032 8.722656-.011719 12.054688 29.988281 29.996093 29.988281 78.617187 0 108.613281-1.597657 1.597656-2.5 3.769531-2.5 6.03125 0 2.265625.902343 4.433593 2.5 6.035156zm0 0"/></svg>