<?xml version="1.0" encoding="iso-8859-1"?>
<!-- Generator: Adobe Illustrator 19.0.0, SVG Export Plug-In . SVG Version: 6.00 Build 0)  -->
<svg version="1.1" id="Capa_1" xmlns="http://www.w3.org/2000/svg" xmlns:xlink="http://www.w3.org/1999/xlink" x="0px" y="0px"
	 viewBox="0 0 496 496" style="enable-background:new 0 0 496 496;" xml:space="preserve">
<circle style="fill:#92E0C0;" cx="384" cy="384" r="104"/>
<path style="fill:#48C397;" d="M384,464c-53.376,0-97.296-40.224-103.256-92c-0.456,3.944-0.744,7.936-0.744,12
	c0,57.44,46.56,104,104,104s104-46.56,104-104c0-4.064-0.288-8.056-0.744-12C481.296,423.776,437.376,464,384,464z"/>
<path style="fill:#FCD770;" d="M384,432L384,432c-17.672,0-32-14.328-32-32v-32c0-17.672,14.328-32,32-32l0,0
	c17.672,0,32,14.328,32,32v32C416,417.672,401.672,432,384,432z"/>
<path style="fill:#F9E0A6;" d="M256,72c-13.256,0-24,10.744-24,24V56c0-13.256-10.744-24-24-24s-24,10.744-24,24V32
	c0-13.256-10.744-24-24-24s-24,10.744-24,24v24c0-13.256-10.744-24-24-24S88,42.744,88,56v168l-25.64-76.928
	C58.56,135.68,47.904,128,35.896,128C20.488,128,8,140.488,8,155.896v0.672c0,2.28,0.28,4.552,0.832,6.768l38.096,152.368
	c0.704,2.816,2.16,5.384,4.208,7.432l24.176,24.176c3,3,4.688,7.072,4.688,11.312V488h168V335.264c0-4.736,1.4-9.368,4.032-13.312
	l23.936-35.904c2.632-3.944,4.032-8.576,4.032-13.312V96C280,82.744,269.256,72,256,72z"/>
<rect x="80" y="464" style="fill:#EABD8C;" width="168" height="24"/>
<path d="M288,272.736V96c0-17.648-14.352-32-32-32c-5.856,0-11.272,1.696-16,4.448V56c0-17.648-14.352-32-32-32
	c-5.992,0-11.544,1.76-16.344,4.64C189.952,12.592,176.496,0,160,0s-29.952,12.592-31.656,28.64C123.544,25.76,117.992,24,112,24
	c-17.648,0-32,14.352-32,32v118.696l-10.048-30.16C65.056,129.864,51.368,120,35.896,120C16.104,120,0,136.104,0,156.568
	c0,2.92,0.36,5.84,1.072,8.704l38.096,152.36c1.056,4.224,3.232,8.08,6.312,11.152l24.176,24.176
	c1.512,1.52,2.344,3.536,2.344,5.672V488c0,4.416,3.584,8,8,8h168c4.416,0,8-3.584,8-8V335.264c0-3.168,0.928-6.24,2.688-8.872
	l23.936-35.904C286.144,285.216,288,279.072,288,272.736z M272,272.736c0,3.168-0.928,6.24-2.688,8.872l-23.936,35.904
	c-3.52,5.272-5.376,11.416-5.376,17.752V480H88V358.632c0-6.408-2.496-12.44-7.032-16.976L56.792,317.48
	c-1.024-1.024-1.752-2.312-2.104-3.72L16.592,161.4C16.2,159.816,16,158.184,16,155.896C16,144.928,24.928,136,35.896,136
	c8.576,0,16.168,5.472,18.872,13.608l25.64,76.928c1.24,3.712,4.976,5.976,8.872,5.368C93.16,231.272,96,227.92,96,224V56
	c0-8.824,7.176-16,16-16s16,7.176,16,16v160h16V56V32c0-8.824,7.176-16,16-16s16,7.176,16,16v24v160h16V56c0-8.824,7.176-16,16-16
	s16,7.176,16,16v40v120h16V96c0-8.824,7.176-16,16-16s16,7.176,16,16V272.736z"/>
<path d="M384,272c-61.76,0-112,50.24-112,112s50.24,112,112,112s112-50.24,112-112S445.76,272,384,272z M384,480
	c-52.936,0-96-43.064-96-96s43.064-96,96-96s96,43.064,96,96S436.936,480,384,480z"/>
<path d="M424,368c0-3.832-0.712-7.456-1.72-10.968l18.288-18.288l-11.312-11.312l-14.864,14.864
	c-5.696-6.728-13.44-11.664-22.392-13.488V312h-16v16.808c-8.952,1.824-16.696,6.76-22.392,13.488l-14.864-14.864l-11.312,11.312
	l18.288,18.288c-1.008,3.512-1.72,7.136-1.72,10.968v8h-24v16h24v8c0,3.832,0.712,7.456,1.72,10.968l-18.288,18.288l11.312,11.312
	l14.864-14.864c5.696,6.728,13.44,11.664,22.392,13.488V456h16v-16.808c8.952-1.824,16.696-6.76,22.392-13.488l14.864,14.864
	l11.312-11.312l-18.288-18.288c1.008-3.512,1.72-7.136,1.72-10.968v-8h24v-16h-24V368z M408,400c0,13.232-10.768,24-24,24
	s-24-10.768-24-24v-32c0-13.232,10.768-24,24-24s24,10.768,24,24V400z"/>
<rect x="376" y="376" width="16" height="16"/>
<rect x="208" y="440" width="16" height="16"/>
<rect x="104" y="400" width="16" height="16"/>
<rect x="160" y="336" width="16" height="16"/>
<rect x="208" y="272" width="16" height="16"/>
<rect x="152" y="240" width="16" height="16"/>
<rect x="64" y="256" width="16" height="16"/>
<g>
</g>
<g>
</g>
<g>
</g>
<g>
</g>
<g>
</g>
<g>
</g>
<g>
</g>
<g>
</g>
<g>
</g>
<g>
</g>
<g>
</g>
<g>
</g>
<g>
</g>
<g>
</g>
<g>
</g>
</svg>
