<?xml version="1.0" encoding="iso-8859-1"?>
<!-- Generator: Adobe Illustrator 19.0.0, SVG Export Plug-In . SVG Version: 6.00 Build 0)  -->
<svg version="1.1" id="Layer_1" xmlns="http://www.w3.org/2000/svg" xmlns:xlink="http://www.w3.org/1999/xlink" x="0px" y="0px"
	 viewBox="0 0 512 512" style="enable-background:new 0 0 512 512;" xml:space="preserve">
<path style="fill:#F0F0F1;" d="M360.204,416.312H151.796c-66.404,0-120.235-53.831-120.235-120.235V95.686h448.877v200.391
	C480.438,362.481,426.607,416.312,360.204,416.312z"/>
<path style="fill:#E1E0E4;" d="M392.266,384.249H183.859c-66.404,0-120.235-53.831-120.235-120.235V95.686H31.562v200.391
	c0,66.404,53.831,120.235,120.235,120.235h208.407c41.396,0,77.903-20.922,99.531-52.766
	C440.497,376.612,417.274,384.249,392.266,384.249z"/>
<g>
	<path style="fill:#FCDE76;" d="M480.438,296.077v-63.9c-2.654-0.145-5.325-0.225-8.016-0.225
		c-79.685,0-144.282,64.597-144.282,144.282c0,13.907,1.974,27.353,5.646,40.078h26.417
		C426.607,416.312,480.438,362.481,480.438,296.077z"/>
	<path style="fill:#FCDE76;" d="M39.577,231.952c-2.69,0-5.361,0.08-8.016,0.225v63.9c0,66.404,53.831,120.235,120.235,120.235
		h26.417c3.672-12.725,5.646-26.171,5.646-40.078C183.859,296.549,119.262,231.952,39.577,231.952z"/>
</g>
<g>
	<path style="fill:#FCCF6F;" d="M328.383,384.249c0.608,11.064,2.442,21.801,5.404,32.063h26.417
		c41.396,0,77.903-20.922,99.531-52.766c-19.238,13.067-42.461,20.703-67.469,20.703H328.383z"/>
	<path style="fill:#FCCF6F;" d="M63.624,264.015v-30.057c-7.821-1.313-15.853-2.006-24.047-2.006c-2.69,0-5.361,0.08-8.016,0.225
		v63.9c0,66.404,53.831,120.235,120.235,120.235h26.417c2.962-10.263,4.796-21.001,5.404-32.066
		C117.325,384.115,63.624,330.337,63.624,264.015z"/>
</g>
<path style="fill:#38C7C2;" d="M456.391,191.874h48.094V95.686h-48.094c-17.708,0-32.063,14.355-32.063,32.063v32.063
	C424.329,177.519,438.684,191.874,456.391,191.874z"/>
<path style="fill:#00B5B8;" d="M448.376,159.811v-32.063c0-17.708,14.355-32.063,32.063-32.063h-24.047
	c-17.708,0-32.063,14.355-32.063,32.063v32.063c0,17.708,14.355,32.063,32.063,32.063h24.047
	C462.731,191.874,448.376,177.519,448.376,159.811z"/>
<path style="fill:#38C7C2;" d="M55.609,191.874H7.515V95.686h48.094c17.708,0,32.063,14.355,32.063,32.063v32.063
	C87.671,177.519,73.316,191.874,55.609,191.874z"/>
<rect x="7.515" y="95.687" style="fill:#00B5B8;" width="24.047" height="96.188"/>
<path style="fill:#F59F3F;" d="M278.671,130.131l-19.838,19.838l8.199,8.196c1.954,1.954,4.777,2.762,7.47,2.141l32.509-7.503
	l-7.503,32.512c-0.621,2.693,0.188,5.516,2.142,7.471l8.194,8.194l19.838-19.838c14.086-14.087,14.086-36.925,0-51.012l0,0
	C315.596,116.045,292.758,116.045,278.671,130.131z"/>
<path d="M504.485,88.171H157.475c-4.15,0-7.515,3.364-7.515,7.515c0,4.151,3.365,7.515,7.515,7.515h267.907
	c-5.356,6.752-8.568,15.28-8.568,24.548v32.063c0,21.823,17.755,39.577,39.577,39.577h16.532v25.056
	c-0.164,0-0.337-0.007-0.501-0.007c-83.701,0-151.796,68.096-151.796,151.796c0,10.992,1.189,21.905,3.521,32.564H187.853
	c2.332-10.659,3.521-21.571,3.521-32.564c0-83.701-68.095-151.796-151.796-151.796c-0.164,0-0.337,0.007-0.501,0.007v-25.056h16.532
	c21.823,0,39.577-17.755,39.577-39.577v-32.063c0-9.268-3.211-17.796-8.568-24.548h40.128c4.15,0,7.515-3.364,7.515-7.515
	c0-4.151-3.365-7.515-7.515-7.515H7.515C3.365,88.171,0,91.535,0,95.686v96.188c0,4.151,3.365,7.515,7.515,7.515h16.532v96.689
	c0,70.442,57.308,127.75,127.75,127.75h26.393c0.009,0,0.019,0.002,0.028,0.002c0.008,0,0.016-0.002,0.024-0.002H333.76
	c0.008,0,0.016,0.002,0.024,0.002c0.009,0,0.019-0.002,0.028-0.002h26.392c70.442,0,127.75-57.308,127.75-127.75v-9.019
	c0-4.151-3.365-7.515-7.515-7.515s-7.515,3.364-7.515,7.515v9.019c0,62.153-50.566,112.72-112.72,112.72h-20.63
	c-2.593-10.618-3.918-21.544-3.918-32.564c0-75.414,61.353-136.767,136.767-136.767c0.163,0,0.337,0.006,0.501,0.007v16.53
	c0,4.151,3.365,7.515,7.515,7.515s7.515-3.364,7.515-7.515v-56.616h16.532c4.15,0,7.515-3.364,7.515-7.515V95.686
	C512,91.535,508.635,88.171,504.485,88.171z M15.029,103.201h16.532h24.047c13.535,0,24.548,11.012,24.548,24.548v32.063
	c0,13.536-11.013,24.548-24.548,24.548H15.029V103.201z M39.076,296.077v-56.604c0.164-0.001,0.338-0.007,0.501-0.007
	c75.414,0,136.767,61.353,136.767,136.767c0,11.02-1.324,21.946-3.918,32.564h-20.63C89.642,408.797,39.076,358.231,39.076,296.077z
	 M496.971,184.359h-40.579c-13.535,0-24.548-11.012-24.548-24.548v-32.063c0-13.536,11.013-24.548,24.548-24.548h24.047h16.532
	V184.359z"/>
<path d="M238.642,282.811l96.355-96.355c12.846-12.846,16.395-32.937,8.637-49.391c-2.142-4.544-5.085-8.696-8.637-12.247
	c-12.861-12.862-32.982-16.402-49.445-8.612c-4.523,2.14-8.656,5.074-12.194,8.611l-96.355,96.354
	c-8.232,8.232-12.766,19.177-12.766,30.82c0,11.642,4.534,22.587,12.766,30.82c12.785,12.784,32.754,16.311,49.161,8.72
	C230.797,289.388,235.033,286.419,238.642,282.811z M289.522,131.114c8.902-5.342,20.408-5.342,29.31,0
	c1.992,1.195,3.852,2.644,5.537,4.33c8.395,8.395,10.733,21.518,5.692,32.286c-1.407,3.005-3.347,5.751-5.692,8.096l-14.524,14.525
	l-2.881-2.881c-0.121-0.121-0.172-0.301-0.133-0.467l7.503-32.512c1.225-5.307-3.696-10.246-9.013-9.012l-32.509,7.503
	c-0.165,0.035-0.346-0.012-0.467-0.134l-2.883-2.882l14.523-14.522C285.642,133.782,287.51,132.322,289.522,131.114z
	 M207.823,220.116c5.487,0,10.645,2.136,14.524,6.017c7.917,7.916,7.917,21.13,0,29.047c-8.008,8.01-21.039,8.011-29.049,0
	c-8.009-8.008-8.009-21.039,0-29.048C197.178,222.251,202.336,220.116,207.823,220.116z M183.004,266.124
	c6.892,6.717,15.853,10.084,24.817,10.084c9.109,0,18.218-3.468,25.152-10.401c13.868-13.869,13.868-36.434,0-50.302
	c-5.279-5.28-11.928-8.685-19.143-9.906l45.004-45.004l2.886,2.885c3.81,3.808,9.222,5.363,14.471,4.148l20.794-4.798l-4.799,20.797
	c-1.211,5.252,0.341,10.664,4.152,14.474l2.88,2.88l-71.203,71.203c-11.134,11.132-29.25,11.133-40.384,0.001
	C185.8,270.353,184.256,268.313,183.004,266.124z"/>
<path d="M31.562,112.218H30.56c-4.15,0-7.515,3.364-7.515,7.515c0,4.151,3.365,7.515,7.515,7.515h1.002
	c4.15,0,7.515-3.364,7.515-7.515C39.076,115.582,35.712,112.218,31.562,112.218z"/>
<path d="M31.562,160.312H30.56c-4.15,0-7.515,3.364-7.515,7.515c0,4.151,3.365,7.515,7.515,7.515h1.002
	c4.15,0,7.515-3.364,7.515-7.515C39.076,163.676,35.712,160.312,31.562,160.312z"/>
<path d="M31.562,136.265H30.56c-4.15,0-7.515,3.364-7.515,7.515c0,4.151,3.365,7.515,7.515,7.515h1.002
	c4.15,0,7.515-3.364,7.515-7.515C39.076,139.629,35.712,136.265,31.562,136.265z"/>
<path d="M62.622,127.248h1.002c4.15,0,7.515-3.364,7.515-7.515c0-4.151-3.365-7.515-7.515-7.515h-1.002
	c-4.15,0-7.515,3.364-7.515,7.515C55.108,123.884,58.472,127.248,62.622,127.248z"/>
<path d="M62.622,151.294h1.002c4.15,0,7.515-3.364,7.515-7.515c0-4.151-3.365-7.515-7.515-7.515h-1.002
	c-4.15,0-7.515,3.364-7.515,7.515C55.108,147.931,58.472,151.294,62.622,151.294z"/>
<path d="M62.622,175.341h1.002c4.15,0,7.515-3.364,7.515-7.515c0-4.151-3.365-7.515-7.515-7.515h-1.002
	c-4.15,0-7.515,3.364-7.515,7.515C55.108,171.978,58.472,175.341,62.622,175.341z"/>
<path d="M448.376,112.218h-1.002c-4.15,0-7.515,3.364-7.515,7.515c0,4.151,3.365,7.515,7.515,7.515h1.002
	c4.15,0,7.515-3.364,7.515-7.515C455.89,115.582,452.526,112.218,448.376,112.218z"/>
<path d="M448.376,160.312h-1.002c-4.15,0-7.515,3.364-7.515,7.515c0,4.151,3.365,7.515,7.515,7.515h1.002
	c4.15,0,7.515-3.364,7.515-7.515C455.89,163.676,452.526,160.312,448.376,160.312z"/>
<path d="M448.376,136.265h-1.002c-4.15,0-7.515,3.364-7.515,7.515c0,4.151,3.365,7.515,7.515,7.515h1.002
	c4.15,0,7.515-3.364,7.515-7.515C455.89,139.629,452.526,136.265,448.376,136.265z"/>
<path d="M479.436,112.218c-4.15,0-7.515,3.364-7.515,7.515c0,4.151,3.365,7.515,7.515,7.515h1.002c4.15,0,7.515-3.364,7.515-7.515
	c0-4.151-3.365-7.515-7.515-7.515H479.436z"/>
<path d="M480.438,136.265h-1.002c-4.15,0-7.515,3.364-7.515,7.515c0,4.151,3.365,7.515,7.515,7.515h1.002
	c4.15,0,7.515-3.364,7.515-7.515C487.953,139.629,484.588,136.265,480.438,136.265z"/>
<path d="M480.438,160.312h-1.002c-4.15,0-7.515,3.364-7.515,7.515c0,4.151,3.365,7.515,7.515,7.515h1.002
	c4.15,0,7.515-3.364,7.515-7.515C487.953,163.676,484.588,160.312,480.438,160.312z"/>
<g>
</g>
<g>
</g>
<g>
</g>
<g>
</g>
<g>
</g>
<g>
</g>
<g>
</g>
<g>
</g>
<g>
</g>
<g>
</g>
<g>
</g>
<g>
</g>
<g>
</g>
<g>
</g>
<g>
</g>
</svg>
