<?xml version="1.0" encoding="iso-8859-1"?>
<!-- Generator: Adobe Illustrator 22.1.0, SVG Export Plug-In . SVG Version: 6.00 Build 0)  -->
<svg xmlns="http://www.w3.org/2000/svg" xmlns:xlink="http://www.w3.org/1999/xlink" version="1.1" id="Layer_3" x="0px" y="0px" viewBox="0 0 64 64" style="enable-background:new 0 0 64 64;" xml:space="preserve" width="512" height="512">
<g>
	<g>
		<path style="fill:#CCCCCC;" d="M24,62H6c-2.209,0-4-1.791-4-4V24c0-2.209,1.791-4,4-4h18c2.209,0,4,1.791,4,4v34    C28,60.209,26.209,62,24,62z"/>
	</g>
	<g>
		<path style="fill:#F2F2F2;" d="M25,58V24c0-2.209-1.791-4-4-4H6c-2.209,0-4,1.791-4,4v34c0,2.209,1.791,4,4,4h15    C23.209,62,25,60.209,25,58z"/>
	</g>
	<g>
		<path style="fill:#EBBA77;" d="M36,26c2.209,0,4,1.791,4,4v2H26v-2c0-2.209,1.791-4,4-4v-5c0-1.657,1.343-3,3-3h0    c1.657,0,3,1.343,3,3V26z"/>
	</g>
	<g>
		<path style="fill:#F6CA8D;" d="M33,26v-5c0-1.108-0.607-2.064-1.5-2.584C30.607,18.936,30,19.892,30,21v5c-2.209,0-4,1.791-4,4v2    h11v-2C37,27.791,35.209,26,33,26z"/>
	</g>
	<g>
		<rect x="24" y="32" style="fill:#F2937E;" width="18" height="4"/>
	</g>
	<g>
		<rect x="24" y="32" style="fill:#F2C0A2;" width="15" height="4"/>
	</g>
	<g>
		<path style="fill:#5A7F7D;" d="M41,62H25c-1.657,0-3-1.343-3-3V39c0-1.657,1.343-3,3-3h16c1.657,0,3,1.343,3,3v20    C44,60.657,42.657,62,41,62z"/>
	</g>
	<g>
		<path style="fill:#88BFBC;" d="M41,59V39c0-1.657-1.343-3-3-3H25c-1.657,0-3,1.343-3,3v20c0,1.657,1.343,3,3,3h13    C39.657,62,41,60.657,41,59z"/>
	</g>
	<g>
		<path style="fill:#EBBA77;" d="M12,10V5c0-1.657,1.343-3,3-3h0c1.657,0,3,1.343,3,3v5"/>
	</g>
	<g>
		<path style="fill:#F6CA8D;" d="M14,2.184C12.837,2.597,12,3.696,12,5v5h4V5C16,3.696,15.163,2.597,14,2.184z"/>
	</g>
	<g>
		<path style="fill:#C68541;" d="M8,14L8,14c0-2.209,1.791-4,4-4h6c2.209,0,4,1.791,4,4v0"/>
	</g>
	<g>
		<path style="fill:#D09750;" d="M16,10h-4c-2.209,0-4,1.791-4,4h12C20,11.791,18.209,10,16,10z"/>
	</g>
	<g>
		<path style="fill:#DF9C9D;" d="M24,20H6v-5c0-0.552,0.448-1,1-1h16c0.552,0,1,0.448,1,1V20z"/>
	</g>
	<g>
		<path style="fill:#EEC9C8;" d="M20,14H7c-0.552,0-1,0.448-1,1v5h15v-5C21,14.448,20.552,14,20,14z"/>
	</g>
	<g>
		<path style="fill:#4D8EAD;" d="M55,62L55,62c1.249,0,2.416-0.624,3.109-1.664l0,0C58.69,59.465,59,58.441,59,57.394v-0.143    c0-0.823-0.192-1.635-0.56-2.371L55,48l-3.44,6.88C51.192,55.617,51,56.429,51,57.252v0.143c0,1.047,0.31,2.07,0.891,2.941v0    C52.584,61.376,53.751,62,55,62z"/>
	</g>
	<g>
		<path style="fill:#66BCE5;" d="M53.5,51l-1.94,3.88C51.192,55.617,51,56.429,51,57.252v0.143c0,1.047,0.31,2.07,0.891,2.941    c0.402,0.603,0.965,1.06,1.609,1.343c0.644-0.283,1.208-0.74,1.609-1.343C55.69,59.465,56,58.441,56,57.394v-0.143    c0-0.823-0.192-1.635-0.56-2.371L53.5,51z"/>
	</g>
	<g>
		<path style="fill:#4D8EAD;" d="M55,42L55,42c1.281,0,2.509-0.509,3.414-1.414l0,0C59.43,39.57,60,38.193,60,36.757v-0.354    c0-0.92-0.234-1.825-0.681-2.629L55,26l-4.252,7.654C50.257,34.537,50,35.53,50,36.539v0.218c0,1.436,0.57,2.813,1.586,3.828l0,0    C52.491,41.491,53.719,42,55,42z"/>
	</g>
	<g>
		<path style="fill:#66BCE5;" d="M53.5,28.7l-2.752,4.954C50.257,34.537,50,35.53,50,36.539v0.218c0,1.436,0.57,2.813,1.586,3.828h0    c0.54,0.54,1.202,0.918,1.914,1.152c0.712-0.234,1.374-0.612,1.914-1.152h0C56.43,39.57,57,38.193,57,36.757v-0.354    c0-0.92-0.234-1.825-0.681-2.629L53.5,28.7z"/>
	</g>
	<g>
		<path style="fill:#4D8EAD;" d="M55,20L55,20c1.889,0,3.667-0.889,4.8-2.4l0,0c0.779-1.039,1.2-2.302,1.2-3.6v-0.185    c0-1.188-0.323-2.353-0.934-3.372L55,2l-5.066,8.443C49.323,11.462,49,12.627,49,13.815V14c0,1.298,0.421,2.561,1.2,3.6l0,0    C51.333,19.111,53.111,20,55,20z"/>
	</g>
	<g>
		<path style="fill:#66BCE5;" d="M53.5,4.5l-3.566,5.943C49.323,11.462,49,12.627,49,13.815V14c0,1.298,0.421,2.561,1.2,3.6    c0.826,1.101,1.996,1.867,3.3,2.204c1.304-0.337,2.474-1.103,3.3-2.204c0.779-1.039,1.2-2.302,1.2-3.6v-0.185    c0-1.188-0.323-2.353-0.934-3.372L53.5,4.5z"/>
	</g>
	<g>
		<path d="M25,63H6c-2.757,0-5-2.243-5-5V24c0-2.757,2.243-5,5-5h18c2.757,0,5,2.243,5,5v3h-2v-3c0-1.654-1.346-3-3-3H6    c-1.654,0-3,1.346-3,3v34c0,1.654,1.346,3,3,3h19V63z"/>
	</g>
	<g>
		<path d="M24,21H6c-0.553,0-1-0.448-1-1v-5c0-1.103,0.897-2,2-2h16c1.103,0,2,0.897,2,2v5C25,20.552,24.553,21,24,21z M7,19h16v-4    H7V19z"/>
	</g>
	<g>
		<path d="M23,14h-2c0-1.654-1.346-3-3-3h-6c-1.654,0-3,1.346-3,3H7c0-2.757,2.243-5,5-5h6C20.757,9,23,11.243,23,14z"/>
	</g>
	<g>
		<path d="M19,10h-2V5c0-1.103-0.897-2-2-2s-2,0.897-2,2v5h-2V5c0-2.206,1.794-4,4-4s4,1.794,4,4V10z"/>
	</g>
	<g>
		<rect x="2" y="25" width="10" height="2"/>
	</g>
	<g>
		<rect x="2" y="31" width="8" height="2"/>
	</g>
	<g>
		<rect x="2" y="37" width="10" height="2"/>
	</g>
	<g>
		<rect x="2" y="43" width="8" height="2"/>
	</g>
	<g>
		<rect x="2" y="49" width="10" height="2"/>
	</g>
	<g>
		<rect x="2" y="55" width="8" height="2"/>
	</g>
	<g>
		<path d="M41,63H25c-2.206,0-4-1.794-4-4V39c0-2.206,1.794-4,4-4h16c2.206,0,4,1.794,4,4v20C45,61.206,43.206,63,41,63z M25,37    c-1.103,0-2,0.897-2,2v20c0,1.103,0.897,2,2,2h16c1.103,0,2-0.897,2-2V39c0-1.103-0.897-2-2-2H25z"/>
	</g>
	<g>
		<path d="M42,37H24c-0.553,0-1-0.448-1-1v-4c0-0.552,0.447-1,1-1h18c0.553,0,1,0.448,1,1v4C43,36.552,42.553,37,42,37z M25,35h16    v-2H25V35z"/>
	</g>
	<g>
		<path d="M40,33H26c-0.553,0-1-0.448-1-1v-2c0-2.415,1.721-4.435,4-4.899V21c0-2.206,1.794-4,4-4s4,1.794,4,4v4.101    c2.279,0.464,4,2.485,4,4.899v2C41,32.552,40.553,33,40,33z M27,31h12v-1c0-1.654-1.346-3-3-3c-0.553,0-1-0.448-1-1v-5    c0-1.103-0.897-2-2-2s-2,0.897-2,2v5c0,0.552-0.447,1-1,1c-1.654,0-3,1.346-3,3V31z"/>
	</g>
	<g>
		<path d="M37,50c-0.911,0-1.769-0.355-2.414-1L34,48.414c-0.535-0.534-1.465-0.535-2,0L31.414,49c-1.291,1.29-3.537,1.29-4.828,0    L26,48.414c-0.535-0.534-1.465-0.535-2,0l-1.293,1.292l-1.414-1.414L22.586,47c1.291-1.29,3.537-1.29,4.828,0L28,47.586    c0.535,0.534,1.465,0.535,2,0L30.586,47c1.291-1.29,3.537-1.29,4.828,0L36,47.586c0.535,0.534,1.465,0.535,2,0L38.586,47    c1.291-1.29,3.537-1.29,4.828,0l1.293,1.293l-1.414,1.414L42,48.414c-0.535-0.534-1.465-0.535-2,0L39.414,49    C38.769,49.645,37.911,50,37,50z"/>
	</g>
	<g>
		<path d="M55,43c-1.534,0-3.036-0.622-4.121-1.707C49.667,40.082,49,38.471,49,36.757V36.54c0-1.178,0.303-2.344,0.874-3.372    l4.252-7.654c0.352-0.635,1.396-0.635,1.748,0l4.318,7.773C60.721,34.238,61,35.315,61,36.403v0.354    c0,1.713-0.667,3.324-1.879,4.536C58.036,42.378,56.534,43,55,43z M55,28.059l-3.378,6.081C51.215,34.872,51,35.701,51,36.54    v0.218c0,1.179,0.459,2.288,1.293,3.122C53.006,40.591,53.992,41,55,41s1.994-0.409,2.707-1.121    C58.541,39.045,59,37.937,59,36.757v-0.354c0-0.748-0.192-1.49-0.556-2.144L55,28.059z"/>
	</g>
	<g>
		<path d="M55,40v-2c0.552,0,1-0.449,1-1h2C58,38.654,56.654,40,55,40z"/>
	</g>
	<g>
		<path d="M55,63c-1.587,0-3.061-0.789-3.941-2.109C50.366,59.853,50,58.644,50,57.395v-0.143c0-0.974,0.23-1.949,0.665-2.819    l3.44-6.88c0.34-0.678,1.449-0.678,1.789,0l3.44,6.88C59.77,55.303,60,56.278,60,57.252v0.143c0,1.249-0.366,2.458-1.059,3.496    C58.061,62.211,56.587,63,55,63z M55,50.236l-2.546,5.092C52.157,55.921,52,56.587,52,57.252v0.143    c0,0.853,0.25,1.678,0.723,2.387C53.231,60.544,54.083,61,55,61s1.769-0.456,2.277-1.219C57.75,59.072,58,58.247,58,57.395v-0.143    c0-0.665-0.157-1.331-0.454-1.924L55,50.236z"/>
	</g>
	<g>
		<path d="M55,21c-2.191,0-4.285-1.047-5.6-2.8C48.497,16.997,48,15.505,48,14v-0.185c0-1.368,0.372-2.711,1.076-3.886l5.066-8.444    c0.361-0.603,1.354-0.603,1.715,0l5.066,8.443C61.628,11.104,62,12.448,62,13.815V14c0,1.505-0.497,2.997-1.4,4.2    C59.285,19.953,57.191,21,55,21z M55,3.943l-4.209,7.015C50.273,11.821,50,12.81,50,13.815V14c0,1.075,0.355,2.141,1,3    c0.939,1.252,2.435,2,4,2s3.061-0.748,4-2c0.645-0.859,1-1.925,1-3v-0.185c0-1.006-0.273-1.994-0.791-2.858L55,3.943z"/>
	</g>
	<g>
		<path d="M55,18v-2c1.103,0,2-0.897,2-2h2C59,16.206,57.206,18,55,18z"/>
	</g>
</g>
</svg>
