<svg id="Layer_5" enable-background="new 0 0 64 64" height="512" viewBox="0 0 64 64" width="512" xmlns="http://www.w3.org/2000/svg"><g><g><g><path d="m58 10v8h-4v-3c0-.55-.45-1-1-1h-42c-.55 0-1 .45-1 1v6c-.83-.63-1.87-1-3-1-.34 0-.68.03-1 .1v-10.1c0-2.21 1.79-4 4-4h7v2c0 1.1.9 2 2 2h2c1.1 0 2-.9 2-2v-2h6v2c0 1.1.9 2 2 2h2c1.1 0 2-.9 2-2v-2h6v2c0 1.1.9 2 2 2h2c1.1 0 2-.9 2-2v-2h7c2.21 0 4 1.79 4 4z" fill="#ccd1d9"/></g><g><path d="m58 30v18c0 2.21-1.79 4-4 4h-41.96-.04v-4h41c.55 0 1-.45 1-1v-17z" fill="#ccd1d9"/></g><g><path d="m47 6v2c0 1.1-.9 2-2 2h-2c-1.1 0-2-.9-2-2v-2-2c0-1.1.9-2 2-2h2c1.1 0 2 .9 2 2z" fill="#ff826e"/></g><g><path d="m35 6v2c0 1.1-.9 2-2 2h-2c-1.1 0-2-.9-2-2v-2-2c0-1.1.9-2 2-2h2c1.1 0 2 .9 2 2z" fill="#ff826e"/></g><g><path d="m23 6v2c0 1.1-.9 2-2 2h-2c-1.1 0-2-.9-2-2v-2-2c0-1.1.9-2 2-2h2c1.1 0 2 .9 2 2z" fill="#ff826e"/></g><g><path d="m53 14h-42c-.55 0-1 .45-1 1v6c1.21.91 2 2.37 2 4v5 4 14h41c.55 0 1-.45 1-1v-32c0-.55-.45-1-1-1z" fill="#e6e9ed"/></g><g><path d="m12 25v5h-10v-5c0-1.38.56-2.63 1.46-3.54.68-.68 1.56-1.16 2.54-1.36.32-.07.66-.1 1-.1 1.13 0 2.17.37 3 1 1.21.91 2 2.37 2 4z" fill="#aab2bd"/></g><g><path d="m12 54-3.55 7.11c-.28.54-.84.89-1.45.89s-1.17-.35-1.45-.89l-3.55-7.11z" fill="#aab2bd"/></g><g><path d="m12 52v2h-10v-20h10v14z" fill="#ff826e"/></g><g><path d="m2 30h10v4h-10z" fill="#ffeaa7"/></g><g><circle cx="32" cy="24" fill="#b4dd7f" r="4"/></g><g><circle cx="20" cy="24" fill="#b4dd7f" r="4"/></g><g><circle cx="20" cy="38" fill="#b4dd7f" r="4"/></g><g><circle cx="32" cy="38" fill="#b4dd7f" r="4"/></g><g><path d="m45.79 34.42c1.31.66 2.21 2.01 2.21 3.58 0 2.21-1.79 4-4 4s-4-1.79-4-4c0-1.48.8-2.77 2-3.46v2.22c0 .69.55 1.24 1.24 1.24.46 0 .89-.26 1.1-.68z" fill="#b4dd7f"/></g><g><path d="m54 18h4 2c1.1 0 2 .9 2 2v8c0 1.1-.9 2-2 2h-2-4-6l-2.21 4.42-1.45 2.9c-.21.42-.64.68-1.1.68-.69 0-1.24-.55-1.24-1.24v-2.22-14.54c0-1.1.9-2 2-2z" fill="#ffeaa7"/></g></g><g><path d="m6 39h2v2h-2z"/><path d="m6 43h2v2h-2z"/><path d="m6 47h2v2h-2z"/><path d="m50 25.586-1.293-1.293-1.414 1.414 2.707 2.707 6.707-6.707-1.414-1.414z"/><path d="m20 19c-2.757 0-5 2.243-5 5s2.243 5 5 5 5-2.243 5-5-2.243-5-5-5zm0 8c-1.654 0-3-1.346-3-3s1.346-3 3-3 3 1.346 3 3-1.346 3-3 3z"/><path d="m32 19c-2.757 0-5 2.243-5 5s2.243 5 5 5 5-2.243 5-5-2.243-5-5-5zm0 8c-1.654 0-3-1.346-3-3s1.346-3 3-3 3 1.346 3 3-1.346 3-3 3z"/><path d="m20 33c-2.757 0-5 2.243-5 5s2.243 5 5 5 5-2.243 5-5-2.243-5-5-5zm0 8c-1.654 0-3-1.346-3-3s1.346-3 3-3 3 1.346 3 3-1.346 3-3 3z"/><path d="m32 33c-2.757 0-5 2.243-5 5s2.243 5 5 5 5-2.243 5-5-2.243-5-5-5zm0 8c-1.654 0-3-1.346-3-3s1.346-3 3-3 3 1.346 3 3-1.346 3-3 3z"/><path d="m60 17h-1v-7c0-2.757-2.243-5-5-5h-6v-1c0-1.654-1.346-3-3-3h-2c-1.654 0-3 1.346-3 3v1h-4v-1c0-1.654-1.346-3-3-3h-2c-1.654 0-3 1.346-3 3v1h-4v-1c0-1.654-1.346-3-3-3h-2c-1.654 0-3 1.346-3 3v1h-6c-2.757 0-5 2.243-5 5v9.35c-2.327.826-4 3.043-4 5.65v29.236l3.658 7.317c.447.892 1.344 1.447 2.342 1.447s1.895-.555 2.342-1.447l3.658-7.317v-1.236h41c2.757 0 5-2.243 5-5v-17h1c1.654 0 3-1.346 3-3v-8c0-1.654-1.346-3-3-3zm-18-13c0-.551.448-1 1-1h2c.552 0 1 .449 1 1v4c0 .551-.448 1-1 1h-2c-.552 0-1-.449-1-1zm-12 0c0-.551.448-1 1-1h2c.552 0 1 .449 1 1v4c0 .551-.448 1-1 1h-2c-.552 0-1-.449-1-1zm-12 0c0-.551.448-1 1-1h2c.552 0 1 .449 1 1v4c0 .551-.448 1-1 1h-2c-.552 0-1-.449-1-1zm-11 6c0-1.654 1.346-3 3-3h6v1c0 1.654 1.346 3 3 3h2c1.654 0 3-1.346 3-3v-1h4v1c0 1.654 1.346 3 3 3h2c1.654 0 3-1.346 3-3v-1h4v1c0 1.654 1.346 3 3 3h2c1.654 0 3-1.346 3-3v-1h6c1.654 0 3 1.346 3 3v7h-2v-2c0-1.103-.897-2-2-2h-42c-1.103 0-2 .897-2 2v4.35c-.627-.222-1.298-.35-2-.35zm39.157 25.922c.531.549.843 1.283.843 2.078 0 1.654-1.346 3-3 3s-3-1.346-3-3c0-.223.039-.439.087-.652.259.949 1.119 1.652 2.149 1.652.852 0 1.617-.473 2-1.236zm-5.157-15.922v14.005c-1.245.937-2 2.418-2 3.995 0 2.757 2.243 5 5 5s5-2.243 5-5c0-1.563-.721-2.989-1.919-3.925l1.537-3.075h4.382v16h-40v-22c0-1.771-.776-3.36-2-4.46v-5.54h42v2h-9c-1.654 0-3 1.346-3 3zm-38 33v-18h8v18zm8-20h-8v-2h8zm-4-12c2.206 0 4 1.794 4 4v4h-8v-4c0-2.206 1.794-4 4-4zm.553 39.658c-.211.423-.895.422-1.105 0l-2.83-5.658h6.764zm49.447-12.658c0 1.654-1.346 3-3 3h-41v-2h40c1.103 0 2-.897 2-2v-16h2zm4-20c0 .551-.448 1-1 1h-12.618l-3.934 7.869c-.1.198-.448.115-.448-.105v-16.764c0-.551.448-1 1-1h16c.552 0 1 .449 1 1z"/></g></g></svg>