<?xml version="1.0" encoding="iso-8859-1"?>
<!-- Generator: Adobe Illustrator 19.0.0, SVG Export Plug-In . SVG Version: 6.00 Build 0)  -->
<svg version="1.1" id="Capa_1" xmlns="http://www.w3.org/2000/svg" xmlns:xlink="http://www.w3.org/1999/xlink" x="0px" y="0px"
	 viewBox="0 0 512 512" style="enable-background:new 0 0 512 512;" xml:space="preserve">
<path style="fill:#FEB756;" d="M496.148,117.566c7.807,7.807,7.807,20.462,0,28.269l-28.268,28.279l-42.413-42.413l28.269-28.269
	c7.807-7.817,20.472-7.817,28.279,0L496.148,117.566z"/>
<g>
	<polygon style="fill:#4DBBEB;" points="467.88,174.113 439.152,201.932 397.199,159.969 396.749,159.509 425.467,131.701 	"/>
	<path style="fill:#4DBBEB;" d="M341.861,481.908c0,11.046-11.945,19.992-22.991,19.992H29.988
		c-11.046,0-19.992-8.946-19.992-19.992V110.059c0-11.046,8.946-19.992,19.992-19.992H318.87c11.046,0,22.991,8.946,22.991,19.992
		V481.908z"/>
</g>
<path style="fill:#FFFFFF;" d="M302.877,438.227c0,8.451-9.138,15.295-17.589,15.295H64.275c-8.451,0-15.295-6.844-15.295-15.295
	V153.741c0-8.451,6.844-15.295,15.295-15.295h221.012c8.451,0,17.589,6.844,17.589,15.295L302.877,438.227L302.877,438.227z"/>
<polygon style="fill:#FD3C65;" points="397.199,159.969 439.152,201.932 339.872,298.073 278.107,357.879 256.906,336.677 
	235.694,315.476 299.518,253.661 342.181,212.348 396.749,159.509 "/>
<g>
	<polygon style="fill:#FEB756;" points="278.107,357.879 214.493,379.09 235.694,315.476 256.906,336.677 	"/>
	<path style="fill:#FEB756;" d="M255.896,90.067v42.983H95.961V90.067c0-11.046,8.946-19.992,19.992-19.992h25.55
		c-3.439-5.908-5.558-12.675-5.558-19.992c0-22.051,17.933-39.984,39.984-39.984s39.984,17.933,39.984,39.984
		c0,7.317-2.119,14.084-5.558,19.992h25.55C246.95,70.076,255.896,79.022,255.896,90.067z"/>
</g>
<path d="M175.929,60.08c5.518,0,9.996-4.478,9.996-9.996s-4.478-9.996-9.996-9.996s-9.996,4.478-9.996,9.996
	S170.411,60.08,175.929,60.08z"/>
<path d="M52.978,246.004c5.518,0,9.996-4.478,9.996-9.996s-4.478-9.996-9.996-9.996s-9.996,4.478-9.996,9.996
	S47.461,246.004,52.978,246.004z"/>
<path d="M108.885,223.084c1.952,1.952,4.51,2.928,7.068,2.928s5.117-0.976,7.068-2.928l39.984-39.984
	c3.903-3.903,3.903-10.233,0-14.137c-3.903-3.903-10.233-3.903-14.137,0l-32.915,32.917l-12.924-12.924
	c-3.903-3.903-10.233-3.903-14.137,0c-3.903,3.903-3.903,10.233,0,14.137L108.885,223.084z"/>
<path d="M108.885,323.044c1.952,1.952,4.51,2.928,7.068,2.928s5.117-0.976,7.068-2.928l39.984-39.984
	c3.903-3.903,3.903-10.233,0-14.137c-3.903-3.903-10.233-3.903-14.137,0l-32.915,32.917l-12.924-12.924
	c-3.903-3.903-10.233-3.903-14.137,0c-3.903,3.903-3.903,10.233,0,14.137L108.885,323.044z"/>
<path d="M108.885,423.003c1.952,1.952,4.51,2.928,7.068,2.928s5.117-0.976,7.068-2.928l39.984-39.984
	c3.903-3.903,3.903-10.233,0-14.137c-3.903-3.903-10.233-3.903-14.137,0l-32.915,32.917l-12.924-12.924
	c-3.903-3.903-10.233-3.903-14.137,0c-3.903,3.903-3.903,10.233,0,14.137L108.885,423.003z"/>
<path d="M195.92,206.02h59.976c5.521,0,9.996-4.475,9.996-9.996s-4.475-9.996-9.996-9.996H195.92c-5.521,0-9.996,4.475-9.996,9.996
	S190.4,206.02,195.92,206.02z"/>
<path d="M512,131.701c0-8.009-3.119-15.539-8.783-21.202l-14.129-14.129c-5.665-5.672-13.198-8.795-21.212-8.795
	c-8.015,0-15.548,3.124-21.207,8.79l-28.216,28.216l-66.595,64.49v-79.01c0-17.673-17.385-29.988-32.987-29.988h-54.698
	c-4.126-11.634-15.237-19.992-28.269-19.992h-11.042c0.696-3.278,1.046-6.614,1.046-9.996c0-27.559-22.421-49.98-49.98-49.98
	s-49.98,22.421-49.98,49.98c0,3.382,0.35,6.718,1.046,9.996h-11.042c-13.031,0-24.142,8.358-28.269,19.992H29.988
	C13.453,80.071,0,93.524,0,110.059v371.849c0,16.535,13.453,29.988,29.988,29.988H318.87c15.602,0,32.987-12.315,32.987-29.988
	V300.377l91.749-88.845c1.111-0.486,2.154-1.174,3.064-2.082c0.828-0.828,1.468-1.768,1.945-2.768l19.152-18.545l7.179,7.179
	c1.887,1.887,2.927,4.396,2.927,7.065s-1.04,5.179-2.928,7.066l-56.547,56.547c-3.903,3.903-3.903,10.233,0,14.137
	c1.952,1.951,4.51,2.928,7.068,2.928s5.117-0.977,7.068-2.928l56.547-56.547c5.664-5.664,8.782-13.194,8.782-21.202
	s-3.12-15.539-8.782-21.202l-7.067-7.067l21.201-21.208C508.88,147.239,512,139.709,512,131.701z M439.266,187.908l-28.271-28.277
	l14.36-13.906l28.275,28.275L439.266,187.908z M278.219,343.855l-28.274-28.267L396.632,173.54l28.27,28.277L278.219,343.855z
	 M240.064,333.977l19.539,19.534l-29.306,9.771L240.064,333.977z M331.865,110.059v98.37l-22.991,22.264V133.05
	c0-5.521-4.475-9.996-9.996-9.996h-32.987v-22.991h52.978C325.064,100.063,331.865,105.294,331.865,110.059z M115.953,80.071h25.55
	c3.578,0,6.882-1.912,8.665-5.013c1.783-3.101,1.773-6.919-0.026-10.011c-2.788-4.79-4.201-9.824-4.201-14.964
	c0-16.535,13.453-29.988,29.988-29.988s29.988,13.453,29.988,29.988c0,5.14-1.413,10.174-4.201,14.964
	c-1.799,3.092-1.81,6.91-0.026,10.011c1.784,3.101,5.088,5.013,8.665,5.013h25.55c5.512,0,9.996,4.484,9.996,9.996v32.987H105.957
	V90.067C105.957,84.556,110.441,80.071,115.953,80.071z M331.865,481.908c0,4.765-6.801,9.996-12.995,9.996H29.988
	c-5.512,0-9.996-4.484-9.996-9.996V110.059c0-5.512,4.484-9.996,9.996-9.996h55.977v22.991H52.978c-5.521,0-9.996,4.475-9.996,9.996
	v62.974c0,5.521,4.475,9.996,9.996,9.996s9.996-4.475,9.996-9.996v-52.978h225.908v107.008l-37.107,35.934H195.92
	c-5.521,0-9.996,4.475-9.996,9.996c0,5.521,4.475,9.996,9.996,9.996h35.212l-2.392,2.316c-0.206,0.199-0.394,0.409-0.579,0.621
	c-0.03,0.035-0.065,0.066-0.095,0.102c-0.257,0.303-0.489,0.619-0.705,0.944c-0.044,0.066-0.082,0.136-0.125,0.203
	c-0.17,0.271-0.327,0.547-0.469,0.83c-0.044,0.087-0.086,0.175-0.127,0.263c-0.142,0.305-0.269,0.615-0.378,0.931
	c-0.015,0.044-0.037,0.084-0.052,0.128l-0.047,0.142c-0.003,0.009-0.006,0.019-0.009,0.028l-20.398,61.204l-12.466,12.465
	c-3.903,3.903-3.904,10.233,0,14.136c1.952,1.952,4.51,2.928,7.068,2.928s5.117-0.977,7.068-2.928l12.467-12.466l61.376-20.466
	c0.048-0.016,0.091-0.04,0.139-0.056c0.312-0.109,0.619-0.234,0.921-0.375c0.063-0.029,0.127-0.055,0.189-0.086
	c0.355-0.174,0.702-0.368,1.039-0.587c0.027-0.017,0.051-0.038,0.078-0.056c0.287-0.191,0.565-0.4,0.835-0.624
	c0.095-0.079,0.186-0.162,0.279-0.244c0.104-0.093,0.212-0.177,0.313-0.275l3.822-3.701v87.563H62.974V275.99
	c0-5.521-4.475-9.996-9.996-9.996s-9.996,4.475-9.996,9.996v182.926c0,5.521,4.475,9.996,9.996,9.996h245.9
	c5.521,0,9.996-4.475,9.996-9.996V341.999l22.991-22.263V481.908z M489.079,138.768l-21.2,21.207L439.603,131.7l21.204-21.204
	c1.887-1.89,4.396-2.931,7.066-2.931c2.67,0,5.179,1.041,7.071,2.936l14.134,14.134c1.888,1.887,2.928,4.397,2.928,7.066
	S490.968,136.878,489.079,138.768z"/>
<g>
</g>
<g>
</g>
<g>
</g>
<g>
</g>
<g>
</g>
<g>
</g>
<g>
</g>
<g>
</g>
<g>
</g>
<g>
</g>
<g>
</g>
<g>
</g>
<g>
</g>
<g>
</g>
<g>
</g>
</svg>
