<?xml version="1.0" encoding="iso-8859-1"?>
<!-- Generator: Adobe Illustrator 19.0.0, SVG Export Plug-In . SVG Version: 6.00 Build 0)  -->
<svg version="1.1" id="Layer_1" xmlns="http://www.w3.org/2000/svg" xmlns:xlink="http://www.w3.org/1999/xlink" x="0px" y="0px"
	 viewBox="0 0 480 480" style="enable-background:new 0 0 480 480;" xml:space="preserve">
<path style="fill:#F5BA46;" d="M384,264H40c-17.672,0-32-14.328-32-32V40C8,22.328,22.328,8,40,8h344c17.672,0,32,14.328,32,32v192
	C416,249.672,401.672,264,384,264z"/>
<path d="M384,0H40C17.944,0,0,17.944,0,40v192c0,22.056,17.944,40,40,40h344c22.056,0,40-17.944,40-40V40
	C424,17.944,406.056,0,384,0z M40,16h344c13.232,0,24,10.768,24,24v32H16V40C16,26.768,26.768,16,40,16z M384,256H40
	c-13.232,0-24-10.768-24-24V128h392v104C408,245.232,397.232,256,384,256z"/>
<path d="M368,152h-64c-4.424,0-8,3.584-8,8s3.576,8,8,8h64c4.424,0,8-3.584,8-8S372.424,152,368,152z"/>
<path d="M256,152h-40c-4.416,0-8,3.584-8,8s3.584,8,8,8h40c4.424,0,8-3.584,8-8S260.424,152,256,152z"/>
<path style="fill:#D84452;" d="M440,472H96c-17.672,0-32-14.328-32-32V248c0-17.672,14.328-32,32-32h344c17.672,0,32,14.328,32,32
	v192C472,457.672,457.672,472,440,472z"/>
<path d="M440,480H96c-22.056,0-40-17.944-40-40V248c0-22.056,17.944-40,40-40h344c22.056,0,40,17.944,40,40v192
	C480,462.056,462.056,480,440,480z M96,224c-13.232,0-24,10.768-24,24v192c0,13.232,10.768,24,24,24h344c13.232,0,24-10.768,24-24
	V248c0-13.232-10.768-24-24-24H96z"/>
<circle style="fill:#E06975;" cx="275.6" cy="345.2" r="61.736"/>
<path d="M275.6,414.936c-38.456,0-69.736-31.28-69.736-69.736s31.288-69.736,69.736-69.736s69.736,31.28,69.736,69.736
	S314.056,414.936,275.6,414.936z M275.6,291.464c-29.632,0-53.736,24.104-53.736,53.736s24.104,53.736,53.736,53.736
	s53.736-24.104,53.736-53.736S305.232,291.464,275.6,291.464z"/>
<circle style="fill:#F7C86B;" cx="371.6" cy="345.2" r="61.736"/>
<path d="M371.6,414.936c-38.456,0-69.736-31.28-69.736-69.736s31.28-69.736,69.736-69.736s69.736,31.28,69.736,69.736
	S410.056,414.936,371.6,414.936z M371.6,291.464c-29.632,0-53.736,24.104-53.736,53.736s24.104,53.736,53.736,53.736
	s53.736-24.104,53.736-53.736S401.232,291.464,371.6,291.464z"/>
<path d="M283.504,366.208c-2.816,0-5.536-1.48-7-4.112l-7.896-14.208c-1.376-2.48-1.344-5.504,0.096-7.944S272.768,336,275.6,336
	h58.96l-0.96-1.112c-2.88-3.344-2.504-8.4,0.84-11.28c3.328-2.872,8.4-2.52,11.28,0.84l12.336,14.336
	c2.04,2.368,2.512,5.712,1.208,8.552S355.128,352,352,352h-62.8l1.288,2.32c2.152,3.856,0.76,8.728-3.104,10.88
	C286.16,365.88,284.824,366.208,283.504,366.208z"/>
<path style="fill:#F8F8FA;" d="M176,368c0,8.84-7.16,16-16,16h-40c-8.84,0-16-7.16-16-16v-40c0-8.84,7.16-16,16-16h40
	c8.84,0,16,7.16,16,16V368z"/>
<path d="M160,304h-40c-13.232,0-24,10.768-24,24v40c0,13.232,10.768,24,24,24h40c13.232,0,24-10.768,24-24v-40
	C184,314.768,173.232,304,160,304z M168,328v8h-24v-16h16C164.408,320,168,323.592,168,328z M120,320h8v24h-16v-16
	C112,323.592,115.592,320,120,320z M112,368v-8h16v16h-8C115.592,376,112,372.408,112,368z M160,376h-16v-24h24v16
	C168,372.408,164.408,376,160,376z"/>
<path d="M168,256h-64c-4.416,0-8-3.584-8-8s3.584-8,8-8h64c4.416,0,8,3.584,8,8S172.416,256,168,256z"/>
<path d="M216,256h-16c-4.416,0-8-3.584-8-8s3.584-8,8-8h16c4.416,0,8,3.584,8,8S220.416,256,216,256z"/>
<path d="M376,448h-64c-4.424,0-8-3.584-8-8s3.576-8,8-8h64c4.424,0,8,3.584,8,8S380.424,448,376,448z"/>
<path d="M424,448h-16c-4.424,0-8-3.584-8-8s3.576-8,8-8h16c4.424,0,8,3.584,8,8S428.424,448,424,448z"/>
<g>
</g>
<g>
</g>
<g>
</g>
<g>
</g>
<g>
</g>
<g>
</g>
<g>
</g>
<g>
</g>
<g>
</g>
<g>
</g>
<g>
</g>
<g>
</g>
<g>
</g>
<g>
</g>
<g>
</g>
</svg>
