<svg id="Icon_Set" enable-background="new 0 0 64 64" height="512" viewBox="0 0 64 64" width="512" xmlns="http://www.w3.org/2000/svg"><path d="m51.765 42h-13.53c-1.192 0-2.119-1.036-1.988-2.221l1.556-14c.112-1.013.968-1.779 1.987-1.779h10.42c1.019 0 1.875.766 1.988 1.779l1.556 14c.131 1.185-.797 2.221-1.989 2.221z" fill="#4e4b51"/><path d="m51.766 42.5h-13.532c-.71 0-1.389-.303-1.862-.833-.474-.529-.701-1.237-.623-1.943l1.556-14c.141-1.268 1.209-2.224 2.485-2.224h10.42c1.275 0 2.344.956 2.485 2.224l1.556 14c.078.706-.148 1.414-.623 1.943-.474.53-1.152.833-1.862.833zm-11.976-18c-.765 0-1.406.574-1.491 1.334l-1.556 14c-.047.423.089.849.373 1.166.289.322.686.5 1.118.5h13.531c.432 0 .829-.177 1.118-.5.284-.317.42-.743.373-1.166l-1.556-14c-.084-.761-.726-1.334-1.491-1.334z" fill="#212a41"/><path d="m28 46-8 14h6l8-14z" fill="#005b8a"/><path d="m26 60.5h-6c-.178 0-.343-.095-.433-.249-.089-.154-.09-.344-.001-.499l8-14c.089-.156.255-.252.434-.252h6c.178 0 .343.095.433.249.089.154.09.344.001.499l-8 14c-.089.156-.255.252-.434.252zm-5.138-1h4.848l7.428-13h-4.848z" fill="#212a41"/><path d="m55 46h-50c-.552 0-1-.448-1-1v-2c0-.552.448-1 1-1h50c.552 0 1 .448 1 1v2c0 .552-.448 1-1 1z" fill="#99a2b9"/><path d="m55 46.5h-50c-.827 0-1.5-.673-1.5-1.5v-2c0-.827.673-1.5 1.5-1.5h50c.827 0 1.5.673 1.5 1.5v2c0 .827-.673 1.5-1.5 1.5zm-50-4c-.276 0-.5.224-.5.5v2c0 .276.224.5.5.5h50c.276 0 .5-.224.5-.5v-2c0-.276-.224-.5-.5-.5z" fill="#212a41"/><path d="m59 46h-50c-.552 0-1-.448-1-1v-2c0-.552.448-1 1-1h50c.552 0 1 .448 1 1v2c0 .552-.448 1-1 1z" fill="#b7c0d7"/><path d="m59 46.5h-50c-.827 0-1.5-.673-1.5-1.5v-2c0-.827.673-1.5 1.5-1.5h50c.827 0 1.5.673 1.5 1.5v2c0 .827-.673 1.5-1.5 1.5zm-50-4c-.276 0-.5.224-.5.5v2c0 .276.224.5.5.5h50c.276 0 .5-.224.5-.5v-2c0-.276-.224-.5-.5-.5z" fill="#212a41"/><path d="m34 46-8 14h16z" fill="#0079a8"/><path d="m42 60.5h-16c-.178 0-.343-.095-.433-.249-.089-.154-.09-.344-.001-.499l8-14c.178-.312.69-.312.868 0l8 14c.088.155.088.345-.001.499-.09.154-.255.249-.433.249zm-15.138-1h14.276l-7.138-12.492z" fill="#212a41"/><path d="m29.446 58.5c-.084 0-.169-.021-.248-.066-.24-.137-.323-.442-.186-.682l4.554-7.969c.137-.24.442-.325.682-.186.24.137.323.442.186.682l-4.554 7.969c-.092.162-.26.252-.434.252z" fill="#1e97c6"/><circle cx="16" cy="26" fill="#f9ac2f" r="8"/><path d="m16 34.5c-4.687 0-8.5-3.813-8.5-8.5s3.813-8.5 8.5-8.5 8.5 3.813 8.5 8.5-3.813 8.5-8.5 8.5zm0-16c-4.136 0-7.5 3.364-7.5 7.5s3.364 7.5 7.5 7.5 7.5-3.364 7.5-7.5-3.364-7.5-7.5-7.5z" fill="#212a41"/><path d="m16 32.5c-.276 0-.5-.224-.5-.5s.224-.5.5-.5c3.033 0 5.5-2.467 5.5-5.5 0-.276.224-.5.5-.5s.5.224.5.5c0 3.584-2.916 6.5-6.5 6.5z" fill="#db8e11"/><path d="m10 26.5c-.276 0-.5-.224-.5-.5 0-3.584 2.916-6.5 6.5-6.5.276 0 .5.224.5.5s-.224.5-.5.5c-3.033 0-5.5 2.467-5.5 5.5 0 .276-.224.5-.5.5z" fill="#ffca4d"/><path d="m16.5 29.5h-2.5c-.276 0-.5-.224-.5-.5s.224-.5.5-.5h2.5c.551 0 1-.449 1-1s-.449-1-1-1h-1c-1.103 0-2-.897-2-2s.897-2 2-2h2.5c.276 0 .5.224.5.5s-.224.5-.5.5h-2.5c-.551 0-1 .449-1 1s.449 1 1 1h1c1.103 0 2 .897 2 2s-.897 2-2 2z" fill="#212a41"/><path d="m16 23.5c-.276 0-.5-.224-.5-.5v-2c0-.276.224-.5.5-.5s.5.224.5.5v2c0 .276-.224.5-.5.5z" fill="#212a41"/><path d="m16 31.5c-.276 0-.5-.224-.5-.5v-2c0-.276.224-.5.5-.5s.5.224.5.5v2c0 .276-.224.5-.5.5z" fill="#212a41"/><path d="m55.765 42h-13.53c-1.192 0-2.119-1.036-1.988-2.221l1.556-14c.112-1.013.968-1.779 1.987-1.779h10.42c1.019 0 1.875.766 1.988 1.779l1.556 14c.131 1.185-.797 2.221-1.989 2.221z" fill="#6c696f"/><path d="m55.766 42.5h-13.532c-.71 0-1.389-.303-1.862-.833-.474-.529-.701-1.237-.623-1.943l1.556-14c.141-1.268 1.209-2.224 2.485-2.224h10.42c1.275 0 2.344.956 2.485 2.224l1.556 14c.078.706-.148 1.414-.623 1.943-.474.53-1.152.833-1.862.833zm-11.976-18c-.765 0-1.406.574-1.491 1.334l-1.556 14c-.047.423.089.849.373 1.166.289.322.686.5 1.118.5h13.531c.432 0 .829-.177 1.118-.5.284-.317.42-.743.373-1.166l-1.556-14c-.084-.761-.726-1.334-1.491-1.334z" fill="#212a41"/><path d="m42.235 40.5c-.019 0-.037-.001-.056-.003-.274-.031-.472-.278-.442-.552l1.556-14c.03-.274.286-.469.552-.442.274.031.472.278.442.552l-1.556 14c-.028.256-.245.445-.496.445z" fill="#8a878d"/><path d="m55.765 40.5c-.251 0-.468-.189-.497-.445l-1.556-14c-.03-.274.167-.521.442-.552.279-.026.522.168.552.442l1.556 14c.03.274-.167.521-.442.552-.018.002-.037.003-.055.003z" fill="#4e4b51"/><circle cx="47" cy="21" fill="#6c696f" r="3"/><path d="m47 24.5c-1.93 0-3.5-1.57-3.5-3.5s1.57-3.5 3.5-3.5 3.5 1.57 3.5 3.5-1.57 3.5-3.5 3.5zm0-6c-1.378 0-2.5 1.122-2.5 2.5s1.122 2.5 2.5 2.5 2.5-1.122 2.5-2.5-1.122-2.5-2.5-2.5z" fill="#212a41"/><path d="m39.5 16h-18c-1.105 0-2-.895-2-2v-8c0-1.105.895-2 2-2h18c1.105 0 2 .895 2 2v8c0 1.105-.895 2-2 2z" fill="#a0b570"/><path d="m39.5 16.5h-18c-1.378 0-2.5-1.122-2.5-2.5v-8c0-1.378 1.122-2.5 2.5-2.5h18c1.378 0 2.5 1.122 2.5 2.5v8c0 1.378-1.122 2.5-2.5 2.5zm-18-12c-.827 0-1.5.673-1.5 1.5v8c0 .827.673 1.5 1.5 1.5h18c.827 0 1.5-.673 1.5-1.5v-8c0-.827-.673-1.5-1.5-1.5z" fill="#212a41"/><path d="m42.5 16h-18c-1.105 0-2-.895-2-2v-8c0-1.105.895-2 2-2h18c1.105 0 2 .895 2 2v8c0 1.105-.895 2-2 2z" fill="#bed38e"/><path d="m42.5 16.5h-18c-1.378 0-2.5-1.122-2.5-2.5v-8c0-1.378 1.122-2.5 2.5-2.5h18c1.378 0 2.5 1.122 2.5 2.5v8c0 1.378-1.122 2.5-2.5 2.5zm-18-12c-.827 0-1.5.673-1.5 1.5v8c0 .827.673 1.5 1.5 1.5h18c.827 0 1.5-.673 1.5-1.5v-8c0-.827-.673-1.5-1.5-1.5z" fill="#212a41"/><path d="m24.5 14.5c-.276 0-.5-.224-.5-.5v-8c0-.276.224-.5.5-.5s.5.224.5.5v8c0 .276-.224.5-.5.5z" fill="#dcf1ac"/><path d="m42.5 14.5c-.276 0-.5-.224-.5-.5v-8c0-.276.224-.5.5-.5s.5.224.5.5v8c0 .276-.224.5-.5.5z" fill="#a0b570"/><g fill="#212a41"><path d="m27.75 13c-.276 0-.5-.224-.5-.5v-4.5h-.5c-.276 0-.5-.224-.5-.5s.224-.5.5-.5h1c.276 0 .5.224.5.5v5c0 .276-.224.5-.5.5z"/><path d="m33.25 13h-1c-.827 0-1.5-.673-1.5-1.5v-3c0-.827.673-1.5 1.5-1.5h1c.827 0 1.5.673 1.5 1.5v3c0 .827-.673 1.5-1.5 1.5zm-1-5c-.276 0-.5.224-.5.5v3c0 .276.224.5.5.5h1c.276 0 .5-.224.5-.5v-3c0-.276-.224-.5-.5-.5z"/><path d="m38.25 13h-1c-.827 0-1.5-.673-1.5-1.5v-3c0-.827.673-1.5 1.5-1.5h1c.827 0 1.5.673 1.5 1.5v3c0 .827-.673 1.5-1.5 1.5zm-1-5c-.276 0-.5.224-.5.5v3c0 .276.224.5.5.5h1c.276 0 .5-.224.5-.5v-3c0-.276-.224-.5-.5-.5z"/><path d="m29.75 13c-.07 0-.13-.01-.19-.04-.06-.02-.12-.06-.16-.11-.1-.09-.15-.22-.15-.35s.05-.26.15-.35c.04-.05.1-.09.16-.11.12-.05.26-.05.38 0 .06.02.12.06.16.11.1.09.15.22.15.35 0 .07-.01.13-.04.19-.02.06-.06.12-.11.16-.04.05-.1.09-.16.11-.06.03-.12.04-.19.04z"/></g><path d="m23 42h-14c-.552 0-1-.448-1-1v-2c0-.552.448-1 1-1h14c.552 0 1 .448 1 1v2c0 .552-.448 1-1 1z" fill="#f9ac2f"/><path d="m23 38h-14c-.552 0-1-.448-1-1v-2c0-.552.448-1 1-1h14c.552 0 1 .448 1 1v2c0 .552-.448 1-1 1z" fill="#f9ac2f"/><path d="m10 40.5c-.276 0-.5-.224-.5-.5v-4c0-.276.224-.5.5-.5s.5.224.5.5v4c0 .276-.224.5-.5.5z" fill="#ffca4d"/><path d="m22 40.5c-.276 0-.5-.224-.5-.5v-4c0-.276.224-.5.5-.5s.5.224.5.5v4c0 .276-.224.5-.5.5z" fill="#db8e11"/><path d="m23 42.5h-14c-.827 0-1.5-.673-1.5-1.5v-2c0-.827.673-1.5 1.5-1.5h14c.827 0 1.5.673 1.5 1.5v2c0 .827-.673 1.5-1.5 1.5zm-14-4c-.276 0-.5.224-.5.5v2c0 .276.224.5.5.5h14c.276 0 .5-.224.5-.5v-2c0-.276-.224-.5-.5-.5z" fill="#212a41"/><path d="m23 38.5h-14c-.827 0-1.5-.673-1.5-1.5v-2c0-.827.673-1.5 1.5-1.5h14c.827 0 1.5.673 1.5 1.5v2c0 .827-.673 1.5-1.5 1.5zm-14-4c-.276 0-.5.224-.5.5v2c0 .276.224.5.5.5h14c.276 0 .5-.224.5-.5v-2c0-.276-.224-.5-.5-.5z" fill="#212a41"/></svg>