<?xml version="1.0" encoding="iso-8859-1"?>
<!-- Generator: Adobe Illustrator 19.0.0, SVG Export Plug-In . SVG Version: 6.00 Build 0)  -->
<svg version="1.1" id="Capa_1" xmlns="http://www.w3.org/2000/svg" xmlns:xlink="http://www.w3.org/1999/xlink" x="0px" y="0px"
	 viewBox="0 0 504 504" style="enable-background:new 0 0 504 504;" xml:space="preserve">
<path style="fill:#FFEAA7;" d="M424,172v248c0,8.84-7.16,16-16,16H104c-8.84,0-16-7.16-16-16V172H424z"/>
<rect x="88" y="164" style="fill:#FCD770;" width="336" height="24"/>
<polygon style="fill:#FB5968;" points="232,276 88,276 88,324 232,324 280,324 424,324 424,276 280,276 "/>
<polygon style="fill:#CD2C5A;" points="250.288,276 216,276 216,324 250.288,324 261.712,324 296,324 296,276 261.712,276 "/>
<polygon style="fill:#FFEAA7;" points="160,124 72,124 72,172 184,172 248,172 264,172 336,172 440,172 440,124 352,124 "/>
<polygon style="fill:#FB5968;" points="232,236 160,244 216,148 248,124 264,124 296,148 352,244 280,236 "/>
<polygon style="fill:#CD2C5A;" points="296,234.776 280.912,136.68 264,124 248,124 231.088,136.68 216,234.776 216,237.776 
	232,236 280,236 296,237.776 "/>
<g>
	<path style="fill:#FB5968;" d="M248,108l-49.912-35.648C194.128,69.52,189.384,68,184.512,68h-1.152
		C170.456,68,160,78.456,160,91.36v57.28c0,12.904,10.456,23.36,23.36,23.36l0,0c5.576,0,10.968-1.992,15.2-5.624L248,124V108z"/>
	<polygon style="fill:#FB5968;" points="264,124 280,236 280,436 232,436 232,236 248,124 	"/>
	<path style="fill:#FB5968;" d="M264,108l49.912-35.648c3.96-2.832,8.704-4.352,13.576-4.352h1.152C341.544,68,352,78.456,352,91.36
		v57.28c0,12.904-10.456,23.36-23.36,23.36l0,0c-5.576,0-10.968-1.992-15.2-5.624L264,124V108z"/>
</g>
<circle style="fill:#CD2C5A;" cx="256" cy="116" r="16"/>
<path d="M360,92.232C360,74.464,345.536,60,327.768,60h-1.328c-5.6,0-11.136,1.472-15.992,4.248l-49.488,28.28
	C259.352,92.192,257.696,92,256,92s-3.352,0.192-4.952,0.528l-49.488-28.28c-4.864-2.776-10.392-4.248-16-4.248h-1.328
	C166.464,60,152,74.464,152,92.232V116H64v64h16v240c0,13.232,10.768,24,24,24h120h64h120c13.232,0,24-10.768,24-24V180h16v-64h-88
	V92.232z M318.384,78.136c2.448-1.4,5.232-2.136,8.056-2.136h1.328C336.72,76,344,83.28,344,92.232v55.528
	c0,8.96-7.28,16.24-16.232,16.24c-3.408,0-6.664-1.048-9.44-3.024l-43.08-30.776c2.944-3.992,4.752-8.872,4.752-14.2
	c0-5.016-1.56-9.672-4.2-13.528L318.384,78.136z M288,284h128v32H288V284z M96,284h128v32H96V284z M225.024,228.728l-49.304,5.48
	l46.936-73.768l0.632-0.952l13.92-9.944L225.024,228.728z M254.88,139.888c0.376,0.016,0.736,0.112,1.12,0.112
	s0.744-0.096,1.12-0.112L260.832,164h-9.656L254.88,139.888z M286.976,228.728l-12.184-79.184l13.848,9.896l47.64,74.768
	L286.976,228.728z M264,116c0,4.408-3.584,8-8,8s-8-3.592-8-8s3.584-8,8-8C260.416,108,264,111.592,264,116z M168,92.232
	C168,83.28,175.28,76,184.232,76h1.328c2.824,0,5.608,0.736,8.056,2.136l42.584,24.336c-2.64,3.856-4.2,8.512-4.2,13.528
	c0,5.328,1.808,10.208,4.76,14.2l-43.088,30.776c-2.776,1.976-6.032,3.024-9.44,3.024C175.28,164,168,156.72,168,147.768V92.232z
	 M80,132h72v15.768c0,5.944,1.728,11.448,4.544,16.232H80V132z M184,180v-0.024c0.08,0,0.152,0.024,0.232,0.024
	c2.632,0,5.2-0.408,7.712-1.024L144.28,253.8l79.72-8.864V268H96v-88H184z M104,428c-4.416,0-8-3.584-8-8v-88h128v96H104z M240,428
	V236.624L248.712,180h14.584L272,236.624V428H240z M408,428H288v-96h128v88C416,424.416,412.416,428,408,428z M416,268H288v-23.064
	l79.72,8.856l-47.608-74.808c2.488,0.616,5.04,1.016,7.656,1.016c0.08,0,0.152-0.024,0.232-0.024V180h88V268z M432,132v32h-76.544
	c2.816-4.784,4.544-10.288,4.544-16.232V132H432z"/>
<rect x="24" y="180" width="16" height="16"/>
<rect x="8" y="196" width="16" height="16"/>
<rect x="24" y="212" width="16" height="16"/>
<rect x="40" y="196" width="16" height="16"/>
<rect x="472" y="452" width="16" height="16"/>
<rect x="456" y="468" width="16" height="16"/>
<rect x="472" y="484" width="16" height="16"/>
<rect x="488" y="468" width="16" height="16"/>
<rect x="16" y="412" width="16" height="16"/>
<rect y="428" width="16" height="16"/>
<rect x="16" y="444" width="16" height="16"/>
<rect x="32" y="428" width="16" height="16"/>
<rect x="472" y="260" width="16" height="16"/>
<rect x="456" y="276" width="16" height="16"/>
<rect x="472" y="292" width="16" height="16"/>
<rect x="488" y="276" width="16" height="16"/>
<rect x="48" y="4" width="16" height="24"/>
<rect x="22.547" y="14.55" transform="matrix(-0.7072 0.707 -0.707 -0.7072 70.9217 23.7294)" width="16" height="24"/>
<rect x="8" y="44" width="24" height="16"/>
<rect x="18.547" y="69.456" transform="matrix(-0.7071 0.7071 -0.7071 -0.7071 106.9169 110.6253)" width="24" height="16"/>
<rect x="48" y="76" width="16" height="24"/>
<rect x="73.451" y="65.456" transform="matrix(-0.7072 0.707 -0.707 -0.7072 193.8159 74.6474)" width="16" height="24"/>
<rect x="80" y="44" width="24" height="16"/>
<rect x="69.451" y="18.544" transform="matrix(-0.7071 0.7071 -0.7071 -0.7071 157.8154 -12.281)" width="24" height="16"/>
<rect x="448" y="4" width="16" height="24"/>
<rect x="422.555" y="14.566" transform="matrix(-0.7072 0.707 -0.707 -0.7072 753.8293 -259.0518)" width="16" height="24"/>
<rect x="408" y="44" width="24" height="16"/>
<rect x="418.551" y="69.469" transform="matrix(-0.7071 0.7071 -0.7071 -0.7071 789.7742 -172.198)" width="24" height="16"/>
<rect x="448" y="76" width="16" height="24"/>
<rect x="473.448" y="65.476" transform="matrix(-0.7072 0.707 -0.707 -0.7072 876.7067 -208.12)" width="16" height="24"/>
<rect x="480" y="44" width="24" height="16"/>
<rect x="469.451" y="18.544" transform="matrix(-0.7071 0.7071 -0.7071 -0.7071 840.6581 -295.1237)" width="24" height="16"/>
<g>
</g>
<g>
</g>
<g>
</g>
<g>
</g>
<g>
</g>
<g>
</g>
<g>
</g>
<g>
</g>
<g>
</g>
<g>
</g>
<g>
</g>
<g>
</g>
<g>
</g>
<g>
</g>
<g>
</g>
</svg>
