<svg height="512pt" viewBox="0 -18 512.00115 512" width="512pt" xmlns="http://www.w3.org/2000/svg"><path d="m409.589844 289.039062v-224.164062h-290.785156v358.242188h290.785156zm0 0" fill="#fff"/><path d="m118.253906 9.390625h290.785156v55.484375h-290.785156zm0 0" fill="#5e6e82"/><path d="m222.253906 99.78125h-212.140625v130.546875h40.796875l30.039063 31.21875 27.074219-31.21875h114.230468zm0 0" fill="#999fed"/><path d="m264.199219 99.78125h106.035156v91h-106.035156zm0 0" fill="#a6ffb5"/><path d="m281.925781 345.675781-52.636719 30.335938v-66.820313zm0 0" fill="#5e6e82"/><path d="m229.289062 309.191406v66.820313h-178.253906v-66.820313zm0 0" fill="#9ee2f8"/><path d="m10.460938 309.191406h40.574218v66.820313h-40.574218zm0 0" fill="#ff415b"/><path d="m501.65625 327.3125v-130.890625l-268.835938 268.835937h268.835938v-59.753906" fill="#ff415b"/><path d="m364.511719 405.503906h80.652343v-80.648437zm0 0" fill="#fff"/><path d="m264.199219 201.617188h106.035156c5.585937 0 10.113281-4.527344 10.113281-10.113282v-91c0-5.585937-4.527344-10.113281-10.113281-10.113281h-106.035156c-5.585938 0-10.117188 4.527344-10.117188 10.113281v91c0 5.585938 4.53125 10.113282 10.117188 10.113282zm10.113281-90.996094h85.808594v70.769531h-85.808594zm0 0"/><path d="m264.199219 242.664062h106.035156c5.585937 0 10.113281-4.527343 10.113281-10.113281 0-5.585937-4.527344-10.113281-10.113281-10.113281h-106.035156c-5.585938 0-10.117188 4.527344-10.117188 10.113281 0 5.585938 4.53125 10.113281 10.117188 10.113281zm0 0"/><path d="m311.359375 271.234375c0-5.585937-4.53125-10.117187-10.113281-10.117187h-37.046875c-5.585938 0-10.117188 4.53125-10.117188 10.117187s4.53125 10.113281 10.117188 10.113281h37.046875c5.582031 0 10.113281-4.527344 10.113281-10.113281zm0 0"/><path d="m290.707031 27.742188h-53.015625c-5.585937 0-10.117187 4.527343-10.117187 10.117187 0 5.585937 4.53125 10.113281 10.117187 10.113281h53.015625c5.585938 0 10.113281-4.527344 10.113281-10.113281 0-5.589844-4.527343-10.117187-10.113281-10.117187zm0 0"/><path d="m501.65625 396.113281c-5.585938 0-10.113281 4.53125-10.113281 10.117188v49.632812h-22.890625v-10.828125c0-5.585937-4.527344-10.113281-10.113282-10.113281-5.585937 0-10.113281 4.527344-10.113281 10.113281v10.828125h-19.097656v-10.828125c0-5.585937-4.527344-10.113281-10.113281-10.113281-5.585938 0-10.113282 4.527344-10.113282 10.113281v10.828125h-19.097656v-10.828125c0-5.585937-4.527344-10.113281-10.113281-10.113281s-10.113281 4.527344-10.113281 10.113281v10.828125h-19.097656v-10.828125c0-5.585937-4.527344-10.113281-10.113282-10.113281-5.585937 0-10.113281 4.527344-10.113281 10.113281v10.828125h-19.09375v-10.828125c0-5.585937-4.53125-10.113281-10.117187-10.113281-5.582032 0-10.113282 4.527344-10.113282 10.113281v10.828125h-33.886718l234.300781-234.300781v106.472656c0 5.585938 4.527343 10.113282 10.113281 10.113282s10.113281-4.527344 10.113281-10.113282v-130.890625c0-4.089843-2.464843-7.777343-6.242187-9.34375-3.78125-1.566406-8.128906-.699219-11.023438 2.191407l-75.351562 75.351562v-255.230469c0-5.585937-4.527344-10.113281-10.113282-10.113281h-290.785156c-5.585937 0-10.113281 4.527344-10.113281 10.113281v80.277344h-98.027344c-5.585937 0-10.113281 4.527344-10.113281 10.113281v130.550782c0 5.585937 4.527344 10.113281 10.113281 10.113281h36.496094l27.054687 28.113281c1.90625 1.984375 4.539063 3.101562 7.285157 3.101562.089843 0 .175781 0 .261719-.003906 2.839843-.070312 5.519531-1.335937 7.382812-3.484375l19.546875-22.539062v53.445312h-97.679687c-5.585938 0-10.113282 4.527344-10.113282 10.113281v66.824219c0 5.585938 4.527344 10.113281 10.113282 10.113281h97.679687v36.988282c0 5.585937 4.527344 10.113281 10.113281 10.113281h132.292969l-24.875 24.875c-2.894531 2.890625-3.757813 7.242187-2.195313 11.019531 1.566407 3.78125 5.253907 6.246094 9.34375 6.246094h268.835938c5.585938 0 10.113281-4.527344 10.113281-10.113281v-59.75c0-5.585938-4.527343-10.117188-10.113281-10.117188zm-373.289062-375.882812h270.558593v35.253906h-270.558593zm-20.34375 200.707031c-2.929688 0-5.71875 1.273438-7.640626 3.488281l-19.820312 22.855469-22.363281-23.242188c-1.90625-1.980468-4.539063-3.101562-7.289063-3.101562h-30.683594v-110.316406h191.914063v110.316406zm111.152343 112.273438h-158.027343v-13.183594h158.027343zm-198.601562-13.183594h20.34375v46.59375h-20.34375zm40.574219 33.414062h158.027343v13.179688h-158.027343zm67.21875 60.285156v-26.875h100.921874c.410157 0 .808594-.03125 1.203126-.078124.105468-.011719.207031-.03125.308593-.046876.308594-.046874.613281-.105468.914063-.179687.097656-.023437.199218-.050781.300781-.078125.359375-.101562.714844-.214844 1.058594-.355469.023437-.011719.054687-.019531.078125-.03125.386718-.15625.753906-.339843 1.113281-.542969.023437-.015624.050781-.023437.074219-.039062l52.636718-30.335938c3.003907-1.730468 4.910157-4.878906 5.054688-8.34375.144531-3.460937-1.492188-6.757812-4.339844-8.730468l-52.636718-36.488282c-.015626-.007812-.027344-.011718-.042969-.023437-.34375-.234375-.703125-.449219-1.078125-.640625-.078125-.042969-.15625-.078125-.234375-.113281-.3125-.152344-.632813-.289063-.964844-.40625-.078125-.03125-.15625-.0625-.238281-.089844-.398438-.132813-.800782-.246094-1.21875-.328125-.023438-.003906-.046875-.007812-.074219-.011719-.367187-.070312-.746094-.117187-1.132813-.144531-.125-.011719-.25-.015625-.375-.019531-.136718-.007813-.269531-.019531-.40625-.019531h-100.921874v-58.636719h93.886718c5.585938 0 10.113282-4.527344 10.113282-10.113281v-130.550782c0-5.585937-4.527344-10.113281-10.113282-10.113281h-93.886718v-14.675781h270.558593v209.859375l-128.152343 128.152343zm134.667968-68.113281-23.628906 13.621094v-30.003906zm0 0"/><path d="m438.011719 318.425781-80.652344 80.652344c-2.890625 2.890625-3.757813 7.242187-2.191406 11.019531 1.566406 3.78125 5.253906 6.246094 9.34375 6.246094h80.652343c5.582032 0 10.113282-4.527344 10.113282-10.113281v-80.652344c0-4.089844-2.464844-7.777344-6.246094-9.34375-3.777344-1.566406-8.128906-.699219-11.019531 2.191406zm-2.960938 77.6875h-46.121093l46.121093-46.117187zm0 0"/><path d="m73.007812 153.371094-.457031.105468c-5.441406 1.269532-8.820312 6.710938-7.546875 12.152344 1.089844 4.664063 5.246094 7.8125 9.839844 7.8125.761719 0 1.539062-.085937 2.3125-.269531l.453125-.105469c5.441406-1.269531 8.820313-6.710937 7.546875-12.152344-1.269531-5.4375-6.714844-8.820312-12.148438-7.542968zm0 0"/><path d="m116.46875 153.371094-.457031.105468c-5.4375 1.269532-8.816407 6.710938-7.546875 12.152344 1.089844 4.664063 5.25 7.8125 9.839844 7.8125.765624 0 1.539062-.085937 2.3125-.269531l.457031-.105469c5.4375-1.269531 8.816406-6.710937 7.546875-12.152344-1.273438-5.4375-6.714844-8.820312-12.152344-7.542968zm0 0"/><path d="m159.929688 153.371094-.453126.105468c-5.441406 1.269532-8.820312 6.710938-7.546874 12.152344 1.089843 4.664063 5.246093 7.8125 9.839843 7.8125.761719 0 1.535157-.085937 2.308594-.269531l.457031-.105469c5.441406-1.269531 8.820313-6.710937 7.546875-12.152344-1.273437-5.4375-6.714843-8.820312-12.152343-7.542968zm0 0"/><path d="m338.601562 260.582031-.453124.105469c-5.4375 1.277344-8.816407 6.71875-7.539063 12.15625 1.089844 4.660156 5.246094 7.808594 9.835937 7.808594.765626 0 1.539063-.085938 2.316407-.269532l.457031-.105468c5.4375-1.273438 8.8125-6.714844 7.539062-12.152344-1.273437-5.441406-6.710937-8.816406-12.15625-7.542969zm0 0"/><path d="m499.566406 357.53125-.453125.105469c-5.4375 1.28125-8.808593 6.726562-7.53125 12.164062 1.097657 4.65625 5.25 7.796875 9.839844 7.796875.765625 0 1.546875-.085937 2.324219-.273437l.457031-.105469c5.4375-1.28125 8.804687-6.726562 7.527344-12.160156-1.28125-5.4375-6.726563-8.808594-12.164063-7.527344zm0 0"/></svg>