<?xml version="1.0" encoding="iso-8859-1"?>
<!-- Generator: Adobe Illustrator 19.0.0, SVG Export Plug-In . SVG Version: 6.00 Build 0)  -->
<svg version="1.1" id="Capa_1" xmlns="http://www.w3.org/2000/svg" xmlns:xlink="http://www.w3.org/1999/xlink" x="0px" y="0px"
	 viewBox="0 0 512 512" style="enable-background:new 0 0 512 512;" xml:space="preserve">
<rect x="207" y="385.08" style="fill:#EDF2FA;" width="96" height="62.854"/>
<path style="fill:#72D8FF;" d="M154.653,10H42c-17.673,0-32,14.327-32,32v310.083c0,17.673,14.327,32,32,32h428
	c17.673,0,32-14.327,32-32V42c0-17.673-14.327-32-32-32H236.653"/>
<path style="fill:#EDF2FA;" d="M470,10H236.653h-82H42c-17.673,0-32,14.327-32,32v268h492V42C502,24.327,487.673,10,470,10z"/>
<polygon style="fill:#FF5D5D;" points="256,77.879 159.009,245.873 352.991,245.873 "/>
<rect x="154.67" y="447.94" style="fill:#72D8FF;" width="202.67" height="54.06"/>
<path d="M193.65,20c2.64,0,5.21-1.07,7.07-2.93c1.87-1.86,2.93-4.44,2.93-7.07s-1.06-5.21-2.93-7.07C198.86,1.07,196.29,0,193.65,0
	c-2.63,0-5.21,1.07-7.07,2.93s-2.93,4.44-2.93,7.07s1.07,5.21,2.93,7.07C188.44,18.93,191.02,20,193.65,20z"/>
<path d="M470,0H236.653c-5.523,0-10,4.477-10,10s4.477,10,10,10H470c12.131,0,22,9.869,22,22v258H20V42c0-12.131,9.869-22,22-22
	h112.653c5.523,0,10-4.477,10-10s-4.477-10-10-10H42C18.841,0,0,18.841,0,42v310.083c0,23.159,18.841,42,42,42h155v43.854h-42.333
	c-5.523,0-10,4.478-10,10V502c0,5.522,4.477,10,10,10h202.667c5.523,0,10-4.478,10-10v-54.063c0-5.522-4.477-10-10-10H313v-43.854
	h157c23.159,0,42-18.841,42-42V42C512,18.841,493.159,0,470,0z M347.333,492H164.667v-34.063h182.667V492H347.333z M293,437.938h-76
	v-43.854h76V437.938z M470,374.083H42c-12.131,0-22-9.869-22-22V320h472v32.083C492,364.214,482.131,374.083,470,374.083z"/>
<path d="M255,342.08c-2.63,0-5.21,1.069-7.07,2.93c-1.86,1.86-2.93,4.44-2.93,7.07c0,2.64,1.07,5.21,2.93,7.069
	c1.86,1.86,4.44,2.931,7.07,2.931s5.21-1.07,7.07-2.931c1.86-1.859,2.93-4.43,2.93-7.069c0-2.63-1.07-5.21-2.93-7.07
	S257.63,342.08,255,342.08z"/>
<path d="M325.667,134c0,5.523,4.477,10,10,10h118.929c5.523,0,10-4.477,10-10s-4.477-10-10-10H335.667
	C330.144,124,325.667,128.477,325.667,134z"/>
<path d="M160.922,190c0-5.523-4.477-10-10-10H58.905c-5.523,0-10,4.477-10,10s4.477,10,10,10h92.018
	C156.445,200,160.922,195.522,160.922,190z"/>
<path d="M58.905,236c-5.523,0-10,4.477-10,10s4.477,10,10,10h11.48c5.523,0,10-4.477,10-10s-4.477-10-10-10H58.905z"/>
<path d="M103.5,236c-5.523,0-10,4.477-10,10s4.477,10,10,10h17.293c5.523,0,10-4.477,10-10s-4.477-10-10-10H103.5z"/>
<path d="M384,180h-20.424c-5.523,0-10,4.477-10,10s4.477,10,10,10H384c5.523,0,10-4.477,10-10S389.523,180,384,180z"/>
<path d="M464.5,190c0-5.523-4.477-10-10-10h-33c-5.523,0-10,4.477-10,10s4.477,10,10,10h33C460.023,200,464.5,195.522,464.5,190z"/>
<path d="M454.385,256h0.21c5.523,0,10-4.477,10-10s-4.477-10-10-10h-0.21c-5.523,0-10,4.477-10,10S448.862,256,454.385,256z"/>
<path d="M399.259,256H417.5c5.523,0,10-4.477,10-10s-4.477-10-10-10h-18.241c-5.523,0-10,4.477-10,10S393.736,256,399.259,256z"/>
<path d="M454.5,88c5.523,0,10-4.477,10-10s-4.477-10-10-10h-80.712c-5.523,0-10,4.477-10,10s4.477,10,10,10H454.5z"/>
<path d="M333,68h-18c-5.523,0-10,4.477-10,10s4.477,10,10,10h18c5.523,0,10-4.477,10-10S338.523,68,333,68z"/>
<path d="M49,78c0,5.523,4.477,10,10,10h105.721c5.523,0,10-4.477,10-10s-4.477-10-10-10H59C53.477,68,49,72.477,49,78z"/>
<path d="M58.905,144H120c5.523,0,10-4.477,10-10s-4.477-10-10-10H58.905c-5.523,0-10,4.477-10,10S53.382,144,58.905,144z"/>
<path d="M143.667,134c0,5.523,4.477,10,10,10H175c5.523,0,10-4.477,10-10s-4.477-10-10-10h-21.333
	C148.144,124,143.667,128.477,143.667,134z"/>
<path d="M256,67.879c-3.573,0-6.874,1.906-8.66,5l-96.991,167.994c-1.787,3.094-1.787,6.906,0,10c1.786,3.094,5.087,5,8.66,5
	h193.982c3.573,0,6.874-1.906,8.66-5c1.787-3.094,1.787-6.906,0-10L264.66,72.879C262.874,69.785,259.573,67.879,256,67.879z
	 M176.329,235.873L256,97.879l79.671,137.994H176.329z"/>
<path d="M246,142.492v30.91c0,5.523,4.477,10,10,10c5.523,0,10-4.477,10-10v-30.91c0-5.523-4.477-10-10-10S246,136.969,246,142.492z
	"/>
<path d="M256,198.03c-2.63,0-5.21,1.07-7.07,2.93c-1.86,1.86-2.93,4.44-2.93,7.07s1.07,5.21,2.93,7.07
	c1.86,1.86,4.44,2.93,7.07,2.93s5.21-1.07,7.07-2.93c1.86-1.86,2.93-4.44,2.93-7.07s-1.07-5.21-2.93-7.07
	C261.21,199.1,258.63,198.03,256,198.03z"/>
<g>
</g>
<g>
</g>
<g>
</g>
<g>
</g>
<g>
</g>
<g>
</g>
<g>
</g>
<g>
</g>
<g>
</g>
<g>
</g>
<g>
</g>
<g>
</g>
<g>
</g>
<g>
</g>
<g>
</g>
</svg>
