<svg height="512pt" viewBox="0 0 512 512.00025" width="512pt" xmlns="http://www.w3.org/2000/svg"><path d="m88 8h336v432h-336zm0 0" fill="#cfd8dc"/><path d="m120 40h272v400h-272zm0 0" fill="#a6e7ff"/><path d="m0 440h512v32h-512zm0 0" fill="#90a4ae"/><path d="m184 200h144v112h-144zm0 0" fill="#ff8a65"/><path d="m136 184c8.835938 0 16 7.164062 16 16v32c0 8.835938-7.164062 16-16 16s-16-7.164062-16-16v-32c0-8.835938 7.164062-16 16-16zm0 0" fill="#ffe082"/><path d="m248 504c-14.707031-.003906-28.152344-8.308594-34.734375-21.464844l-34.402344-68.886718c-2.785156-5.570313-3.109375-12.054688-.898437-17.875 2.214844-5.824219 6.765625-10.453126 12.546875-12.765626 10.113281-4.039062 21.664062-.175781 27.3125 9.136719l19.265625 31.855469h2.910156v-140c0-11.046875 8.953125-20 20-20s20 8.953125 20 20v68h24c8.835938 0 16 7.164062 16 16h24c8.835938 0 16 7.164062 16 16h16c8.835938 0 16 7.164062 16 16v72l-24 32zm0 0" fill="#ffe082"/><path d="m220.648438 253.863281-10.871094-11.734375c26.074218-24.160156 66.355468-24.160156 92.429687 0l-10.871093 11.734375c-19.941407-18.476562-50.746094-18.476562-70.6875 0zm0 0" fill="#fff"/><path d="m400 448h80v-16h-48v-432h-352v432h-48v16h155.054688l8 16h-195.054688v16h203.054688l3.058593 6.113281c7.886719 15.90625 24.132813 25.945313 41.886719 25.886719h124l24-32h116v-16h-112zm-16 16v5.335938l-20 26.664062h-116c-11.6875.042969-22.382812-6.566406-27.574219-17.039062l-34.449219-68.890626c-1.78125-3.566406-1.988281-7.722656-.570312-11.449218 1.417969-3.730469 4.332031-6.695313 8.035156-8.179688 1.691406-.679687 3.5-1.03125 5.328125-1.035156 4.980469.003906 9.597657 2.613281 12.167969 6.882812l21.636719 35.710938h15.425781v-148c0-6.628906 5.371094-12 12-12s12 5.371094 12 12v100h16v-24h16c4.417969 0 8 3.582031 8 8v32h16v-24h16c4.417969 0 8 3.582031 8 8v32h16v-24h8c4.417969 0 8 3.582031 8 8zm-64-256v96h-32v-20c0-15.464844-12.535156-28-28-28s-28 12.535156-28 28v20h-40v-96zm-112-16v-32c0-26.507812 21.492188-48 48-48 26.511719 0 48 21.492188 48 48v32zm168 184h-9.367188c-3.402343-9.582031-12.464843-15.988281-22.632812-16h-17.367188c-3.402343-9.582031-12.464843-15.988281-22.632812-16h-16v-24h48v-128h-16v-32c0-35.347656-28.652344-64-64-64s-64 28.652344-64 64v32h-16v128h56v80.167969l-7.375-12.167969c-8.4375-13.84375-26.28125-18.585938-40.476562-10.753906-14.195313 7.832031-19.699219 25.460937-12.484376 39.976562l7.390626 14.777344h-51.054688v-160h-16v160h-16v-416h320v416h-16v-32c0-13.253906-10.746094-24-24-24zm0 0"/><path d="m136 176c-13.253906 0-24 10.746094-24 24v32c0 13.253906 10.746094 24 24 24s24-10.746094 24-24v-32c0-13.253906-10.746094-24-24-24zm8 56c0 4.417969-3.582031 8-8 8s-8-3.582031-8-8v-32c0-4.417969 3.582031-8 8-8s8 3.582031 8 8zm0 0"/><path d="m400 32h-288v128h16v-112h256v312h16zm0 0"/><path d="m0 432h16v16h-16zm0 0"/><path d="m496 432h16v16h-16zm0 0"/></svg>