<svg id="Capa_1" enable-background="new 0 0 512 512" height="512" viewBox="0 0 512 512" width="512" xmlns="http://www.w3.org/2000/svg"><g><g><g><path d="m372.968 256.99v215.277c0 17.806-14.427 32.233-32.225 32.233h-264.781c-15.211 0-27.957-10.54-31.344-24.716l-.129-18.428-.752-109.744v-216.578c0-17.806 14.427-32.233 32.225-32.233h142.817c12.835 0 54.403 35.442 91.146 72.767 33.526 34.067 63.043 69.703 63.043 81.422z" fill="#bed8fb"/></g><g><path d="m420.62 209.34v215.277c0 17.806-14.427 32.233-32.225 32.233h-264.782c-15.211 0-27.957-10.54-31.344-24.716l-.129-18.428-.752-109.744v-216.579c0-17.806 14.427-32.233 32.225-32.233h142.817c12.835 0 54.403 35.442 91.146 72.767 33.527 34.068 63.044 69.703 63.044 81.423z" fill="#cbe2ff"/></g><path d="m468.269 161.689v215.277c0 17.806-14.427 32.233-32.225 32.233h-264.781c-15.211 0-27.957-10.54-31.344-24.716l-.129-18.428-.752-109.744v-216.578c0-17.806 14.427-32.233 32.225-32.233h142.817c12.835 0 54.403 35.442 91.146 72.767 33.526 34.067 63.043 69.703 63.043 81.422z" fill="#ddeafb"/><path d="m468.269 161.689v78.861c0-.089-.008-.178-.008-.275-2.425-96.763-81.245-101.241-107.02-127.016l43.985-32.993c33.526 34.068 63.043 69.704 63.043 81.423z" fill="#cbe2ff"/><path d="m314.076 7.5h-78.861c.089 0 .178.008.275.008 96.763 2.425 101.241 81.245 127.016 107.02l32.993-43.985c-34.068-33.526-69.704-63.043-81.423-63.043z" fill="#cbe2ff"/><path d="m468.269 161.694v13.634c0-28.704-23.276-51.98-51.98-51.98h-31.637c-17.797 0-32.231-14.434-32.231-32.231v-31.637c0-28.704-23.276-51.98-51.98-51.98h13.634c24.549 0 48.101 9.754 65.459 27.113l61.622 61.623c17.359 17.357 27.113 40.909 27.113 65.458z" fill="#bed8fb"/></g><g><path d="m475.769 161.694c0-26.731-10.409-51.862-29.309-70.762l-61.622-61.623c-18.901-18.9-44.031-29.309-70.763-29.309h-142.82c-21.901 0-39.72 17.818-39.72 39.72v7.93h-7.935c-21.901 0-39.72 17.823-39.72 39.73v7.92h-7.92c-21.907 0-39.729 17.823-39.729 39.73v216.631l.836 121.871c.081 11.827 5.222 22.683 14.103 29.783 7.004 5.6 15.809 8.685 24.791 8.685h264.771c21.907 0 39.729-17.823 39.729-39.73v-7.92h7.93c21.902 0 39.721-17.818 39.721-39.72v-7.93h7.934c21.901 0 39.72-17.823 39.72-39.73zm-101.539-121.778 61.622 61.623c8.242 8.242 14.585 17.878 18.808 28.375-10.364-8.771-23.762-14.066-38.371-14.066h-31.638c-13.637 0-24.73-11.094-24.73-24.73v-31.638c0-14.609-5.296-28.007-14.066-38.372 10.499 4.223 20.133 10.565 28.375 18.808zm61.815 361.784h-58.03c-4.143 0-7.5 3.358-7.5 7.5s3.357 7.5 7.5 7.5h35.097v7.93c0 13.631-11.09 24.72-24.721 24.72h-264.79c-5.671 0-11.002-1.867-15.418-5.4-5.329-4.264-8.415-10.885-8.465-18.167l-.837-121.823v-126.77c0-4.142-3.357-7.5-7.5-7.5s-7.5 3.358-7.5 7.5v126.822l.837 121.875c.081 11.823 5.219 22.677 14.095 29.777 7.002 5.602 15.806 8.687 24.788 8.687h241.86v7.92c0 13.636-11.094 24.73-24.729 24.73h-264.771c-5.672 0-11.005-1.867-15.424-5.4-5.333-4.264-8.42-10.886-8.47-18.17l-.836-121.82v-216.581c0-13.636 11.094-24.73 24.729-24.73h7.92v33.33c0 4.142 3.357 7.5 7.5 7.5s7.5-3.358 7.5-7.5v-56.25c0-13.636 11.089-24.73 24.72-24.73h7.935v193.711l.837 121.875c.081 11.823 5.219 22.677 14.095 29.777 7.003 5.602 15.806 8.687 24.788 8.687h173.21c4.143 0 7.5-3.358 7.5-7.5s-3.357-7.5-7.5-7.5h-173.21c-5.671 0-11.002-1.867-15.418-5.399-5.329-4.264-8.415-10.886-8.465-18.167l-.837-121.824v-216.59c0-13.631 11.089-24.72 24.72-24.72h129.187c24.526 0 44.479 19.954 44.479 44.48v31.637c0 21.907 17.823 39.73 39.73 39.73h31.638c24.475 0 44.392 19.871 44.476 44.326v201.797c0 13.636-11.089 24.73-24.72 24.73z"/><path d="m425.58 210.073h-243.853c-4.143 0-7.5 3.358-7.5 7.5s3.357 7.5 7.5 7.5h243.853c4.143 0 7.5-3.358 7.5-7.5s-3.357-7.5-7.5-7.5z"/><path d="m425.58 245.749h-243.853c-4.143 0-7.5 3.358-7.5 7.5s3.357 7.5 7.5 7.5h243.853c4.143 0 7.5-3.358 7.5-7.5s-3.357-7.5-7.5-7.5z"/><path d="m425.58 281.425h-243.853c-4.143 0-7.5 3.358-7.5 7.5s3.357 7.5 7.5 7.5h243.853c4.143 0 7.5-3.358 7.5-7.5s-3.357-7.5-7.5-7.5z"/><path d="m271.306 317.102h-89.579c-4.143 0-7.5 3.358-7.5 7.5s3.357 7.5 7.5 7.5h89.579c4.143 0 7.5-3.358 7.5-7.5s-3.358-7.5-7.5-7.5z"/><path d="m181.727 126.12h89.579c4.143 0 7.5-3.358 7.5-7.5s-3.357-7.5-7.5-7.5h-89.579c-4.143 0-7.5 3.358-7.5 7.5s3.357 7.5 7.5 7.5z"/></g></g></svg>