<svg viewBox="-52 0 512 512.00008" xmlns="http://www.w3.org/2000/svg"><path d="m132.398438 322.257812h-13.609376c-30.28125 0-54.832031 24.550782-54.832031 54.832032v124.910156h281.367188v-124.910156c0-30.28125-24.550781-54.832032-54.835938-54.832032h-13.609375" fill="#ffae55"/><g fill="#b06d5d"><path d="m315.015625 216.996094h84.265625l-27.566406-97.90625c-1.792969-6.375-5.183594-11.972656-9.660156-16.402344-7.28125 11.042969-19.796876 18.332031-34.019532 18.332031"/><path d="m81.464844 121.015625c-.074219 0-.148438.003906-.21875.003906-14.222656 0-26.738282-7.289062-34.019532-18.332031-4.476562 4.429688-7.867187 10.027344-9.660156 16.402344l-27.566406 97.90625h84.265625"/><path d="m315.015625 216.996094h84.265625l-27.566406-97.90625c-1.792969-6.375-5.183594-11.972656-9.660156-16.402344"/><path d="m47.226562 102.6875c-4.476562 4.433594-7.867187 10.027344-9.660156 16.402344l-27.566406 97.90625h84.265625"/></g><path d="m327.816406 121.015625c.074219 0 .144532.003906.21875.003906 22.484375 0 40.714844-18.222656 40.714844-40.699219 0-22.476562-18.230469-40.699218-40.714844-40.699218-9.101562 0-17.507812 2.988281-24.289062 8.03125" fill="#ff4f4f"/><path d="m105.929688 47.953125c-6.847657-5.226563-15.402344-8.332031-24.683594-8.332031-22.484375 0-40.714844 18.222656-40.714844 40.699218 0 22.476563 18.230469 40.699219 40.714844 40.699219.074218 0 .144531-.003906.21875-.003906" fill="#ff4f4f"/><path d="m327.796875 150.640625c-81.367187-.007813-123.316406-60.023437-123.316406-60.023437s-41.632813 60.015624-122.996094 60.023437c-.300781 3.515625-.457031 7.074219-.457031 10.667969 0 68.242187 55.34375 123.5625 123.613281 123.5625s123.613281-55.320313 123.613281-123.5625c0-3.59375-.15625-7.152344-.457031-10.667969zm0 0" fill="#ffd4b8"/><path d="m303.171875 477.148438c-.652344 0-1.3125-.070313-1.953125-.199219-.640625-.128907-1.269531-.320313-1.867188-.570313-.613281-.25-1.191406-.558594-1.730468-.917968-.550782-.371094-1.0625-.78125-1.519532-1.242188-.460937-.46875-.882812-.980469-1.242187-1.519531-.359375-.550781-.667969-1.128907-.917969-1.730469-.25-.597656-.441406-1.230469-.570312-1.867188-.132813-.652343-.199219-1.300781-.199219-1.960937 0-.652344.066406-1.300781.199219-1.949219.128906-.640625.320312-1.269531.570312-1.871094.25-.601562.558594-1.179687.917969-1.730468.359375-.539063.78125-1.058594 1.242187-1.519532.457032-.460937.96875-.878906 1.519532-1.242187.539062-.359375 1.117187-.667969 1.730468-.917969.597657-.25 1.226563-.441406 1.867188-.570312 1.292969-.261719 2.621094-.261719 3.910156 0 .632813.128906 1.261719.320312 1.871094.570312.601562.25 1.179688.558594 1.71875.917969.550781.363281 1.0625.78125 1.519531 1.242187.460938.460938.882813.980469 1.25 1.519532.363281.550781.671875 1.128906.921875 1.730468.25.601563.441406 1.230469.570313 1.871094.128906.648438.191406 1.296875.191406 1.949219 0 .660156-.0625 1.308594-.191406 1.960937-.128907.636719-.320313 1.269532-.570313 1.867188-.25.601562-.558594 1.179688-.921875 1.730469-.367187.539062-.789062 1.050781-1.25 1.519531-.457031.460938-.96875.871094-1.519531 1.242188-.539062.359374-1.117188.667968-1.71875.917968-.609375.25-1.238281.441406-1.871094.570313-.648437.128906-1.308594.199219-1.957031.199219zm0 0"/><path d="m265.871094 477.144531h-159.765625c-5.519531 0-10-4.476562-10-10 0-5.523437 4.480469-10 10-10h159.765625c5.523437 0 10 4.476563 10 10 0 5.523438-4.476563 10-10 10zm0 0"/><path d="m196.667969 371.542969c2.496093-.871094 5.179687-1.34375 7.972656-1.34375 2.796875 0 5.480469.476562 7.980469 1.347656 9.660156-7.792969 20.449218-13.476563 31.863281-16.90625l32.394531-32.382813h-49.140625v-39.542968c-7.484375 1.414062-15.203125 2.15625-23.097656 2.15625s-15.617187-.742188-23.097656-2.15625v39.542968h-49.144531l32.367187 32.351563c11.570313 3.449219 22.414063 9.171875 31.902344 16.933594zm0 0" fill="#ffd4b8"/><path d="m196.667969 371.542969c-16.421875-13.429688-36.890625-20.757813-58.167969-20.757813h-4.660156l-3.402344 6.796875c-11.554688 23.101563-11.554688 50.671875 0 73.773438l3.402344 6.796875h4.660156c24.703125 0 41.507812-8.191406 57.902344-20.851563" fill="#70dbe0"/><path d="m212.871094 417.304688c16.179687 12.484374 33.183594 20.847656 57.910156 20.847656h4.660156l3.398438-6.796875c11.558594-23.101563 11.558594-50.671875 0-73.773438l-3.398438-6.796875h-4.660156c-21.054688 0-41.320312 7.175782-58.160156 20.761719" fill="#70dbe0"/><path d="m228.917969 394.46875c0-13.402344-10.871094-24.269531-24.277344-24.269531-13.410156 0-24.277344 10.867187-24.277344 24.269531s10.867188 24.269531 24.277344 24.269531c13.40625 0 24.277344-10.867187 24.277344-24.269531zm0 0" fill="#ff4f4f"/><path d="m81.464844 150.640625c81.378906 0 123.015625-60.023437 123.015625-60.023437s41.957031 60.023437 123.335937 60.023437v-36.636719c0-68.148437-55.382812-104.238281-123.613281-104.003906-68.074219.234375-122.738281 37.289062-122.738281 105.339844zm0 0" fill="#b06d5d"/><path d="m408.90625 214.285156-27.566406-97.90625c-1.511719-5.367187-3.984375-10.410156-7.234375-14.902344 2.972656-6.445312 4.644531-13.609374 4.644531-21.15625 0-27.957031-22.75-50.699218-50.714844-50.699218-8 0-15.714844 1.84375-22.714844 5.363281-24.089843-22.722656-59.847656-35.117187-101.152343-34.984375-36.554688.128906-69.628907 10.582031-93.125 29.441406-2.308594 1.851563-4.515625 3.777344-6.628907 5.769532-7.113281-3.667969-14.984374-5.589844-23.171874-5.589844-27.960938 0-50.710938 22.742187-50.710938 50.699218 0 7.546876 1.667969 14.710938 4.644531 21.15625-3.25 4.492188-5.726562 9.535157-7.238281 14.902344l-27.5625 97.90625c-.847656 3.015625-.238281 6.253906 1.652344 8.75s4.839844 3.960938 7.972656 3.960938h78.339844c17.710937 31.207031 47.617187 54.625 83.203125 63.722656v21.539062h-52.753907c-35.746093 0-64.832031 29.085938-64.832031 64.832032v124.910156c0 5.523438 4.476563 10 10 10h281.363281c5.523438 0 10-4.476562 10-10v-124.910156c0-35.75-29.082031-64.832032-64.832031-64.832032h-52.75v-21.539062c35.582031-9.097656 65.492188-32.515625 83.199219-63.722656h78.339844c3.132812 0 6.082031-1.464844 7.972656-3.960938s2.503906-5.734375 1.65625-8.75zm-50.15625-133.964844c0 13.53125-8.808594 25.035157-21.019531 29.113282-.769531-22.039063-7.125-41.910156-18.628907-58.480469 2.867188-.867187 5.863282-1.332031 8.933594-1.332031 16.9375 0 30.714844 13.773437 30.714844 30.699218zm-154.511719-60.320312h.636719c36.851562 0 68.234375 11.054688 88.410156 31.164062 16.277344 16.222657 24.53125 37.363282 24.53125 62.839844v26.316406c-27.476562-1.78125-52.894531-10.957031-75.6875-27.335937-19.289062-13.859375-29.367187-27.976563-29.453125-28.097656-1.871093-2.675781-4.933593-4.257813-8.195312-4.261719-.003907 0-.003907 0-.007813 0-3.261718 0-6.324218 1.601562-8.195312 4.269531-.097656.140625-10.097656 14.25-29.300782 28.105469-22.695312 16.371094-48.054687 25.539062-75.511718 27.320312v-24.980468c0-25.613282 8.121094-45.210938 20.957031-59.78125.527344-.453125 1.019531-.960938 1.457031-1.539063.070313-.089843.128906-.1875.195313-.28125 22.410156-23.964843 57.957031-33.625 90.164062-33.738281zm-122.992187 29.621094c3.238281 0 6.394531.507812 9.394531 1.472656-11.597656 16.519531-18.074219 36.25-19.042969 58.367188-12.222656-4.054688-21.066406-15.582032-21.066406-29.140626 0-16.925781 13.777344-30.699218 30.714844-30.699218zm-58.042969 157.375 23.988281-85.195313c.292969-1.03125.648438-2.042969 1.058594-3.027343 6.515625 5.597656 14.460938 9.570312 23.214844 11.289062v20.476562c-.285156 3.566407-.4375 7.183594-.4375 10.765626 0 16.042968 2.847656 31.429687 8.054687 45.691406zm246.066406 153.804687.628907 1.253907c10.152343 20.296874 10.152343 44.53125 0 64.828124l-.628907 1.257813c-14.476562-.210937-26.511719-3.542969-38.96875-10.988281 5.355469-6.046875 8.617188-13.988282 8.617188-22.683594 0-8.769531-3.316407-16.777344-8.757813-22.847656 11.976563-6.867188 25.269532-10.570313 39.109375-10.820313zm-64.628906 19.398438c7.871094 0 14.277344 6.402343 14.277344 14.269531s-6.40625 14.269531-14.277344 14.269531c-7.875 0-14.277344-6.402343-14.277344-14.269531s6.402344-14.269531 14.277344-14.269531zm-25.664063 36.953125c-12.449218 7.445312-24.488281 10.773437-38.964843 10.988281l-.628907-1.257813c-10.152343-20.296874-10.152343-44.53125 0-64.828124l.625-1.253907c13.769532.257813 27.257813 4.011719 39.136719 10.792969-5.457031 6.074219-8.78125 14.089844-8.78125 22.875 0 8.691406 3.257813 16.632812 8.613281 22.683594zm156.347657-40.0625v114.910156h-261.367188v-114.910156c0-24.71875 20.113281-44.832032 44.832031-44.832032h9.46875l8.535157 8.527344h-2.957031c-3.785157 0-7.25 2.140625-8.941407 5.527344l-3.398437 6.792969c-12.957032 25.898437-12.957032 56.824219 0 82.722656l3.398437 6.796875c1.691407 3.386719 5.15625 5.527344 8.941407 5.527344h4.660156c27.59375 0 45.90625-9.660156 60.058594-19.96875 1.976562.359375 4.007812.554687 6.085937.554687 2.074219 0 4.101563-.195312 6.078125-.550781 14.15625 10.308594 32.46875 19.964844 60.0625 19.964844h4.660156c3.789063 0 7.25-2.140625 8.945313-5.527344l3.398437-6.792969c12.953125-25.898437 12.953125-56.824219 0-82.722656l-3.398437-6.796875c-1.695313-3.386719-5.15625-5.527344-8.945313-5.527344h-2.953125l8.53125-8.527344h9.46875c24.722657 0 44.835938 20.113282 44.835938 44.832032zm-107.585938-44.832032h24.992188l-13.578125 13.574219c-10.191406 3.34375-19.871094 8.316407-28.792969 14.855469-1.863281-.3125-3.769531-.488281-5.71875-.488281-1.9375 0-3.832031.171875-5.679687.480469-8.773438-6.460938-18.511719-11.441407-28.789063-14.804688l-13.621094-13.617188h24.992188c5.523437 0 10-4.476562 10-10v-28.03125c4.308593.421876 8.679687.640626 13.097656.640626s8.789063-.21875 13.097656-.640626v28.03125c0 5.523438 4.476563 10 10 10zm-23.097656-57.386718c-62.648437 0-113.613281-50.945313-113.613281-113.5625 0-.316406.019531-.632813.019531-.945313 39.90625-2.25 69.808594-18.148437 88.332031-31.652343 11.179688-8.152344 19.5625-16.328126 25.125-22.429688 5.589844 6.101562 14.019532 14.28125 25.25 22.4375 18.589844 13.503906 48.566406 29.398438 88.476563 31.644531.003906.3125.023437.628907.023437.945313 0 62.617187-50.96875 113.5625-113.613281 113.5625zm125.554687-67.875c5.210938-14.261719 8.058594-29.648438 8.058594-45.6875 0-3.585938-.152344-7.203125-.4375-10.769532v-20.476562c8.75-1.714844 16.695313-5.691406 23.214844-11.289062.40625.988281.765625 1.996093 1.058594 3.027343l23.984375 85.199219h-55.878907zm0 0"/></svg>