<svg xmlns="http://www.w3.org/2000/svg" height="511pt" version="1.1" viewBox="1 -16 511.999 511" width="511pt">
<g id="surface1">
<path d="M 480.453125 472.933594 L 31.546875 472.933594 C 18.265625 472.933594 7.5 462.167969 7.5 448.886719 L 7.5 168.320312 C 7.5 141.757812 29.035156 120.222656 55.597656 120.222656 L 456.402344 120.222656 C 482.964844 120.222656 504.5 141.757812 504.5 168.320312 L 504.5 448.886719 C 504.5 462.167969 493.734375 472.933594 480.453125 472.933594 Z M 480.453125 472.933594 " style=" stroke:none;fill-rule:nonzero;fill:rgb(90.196078%,39.215686%,43.137255%);fill-opacity:1;" />
<path d="M 344.175781 416.820312 L 167.824219 416.820312 C 158.96875 416.820312 151.789062 409.644531 151.789062 400.789062 L 151.789062 224.433594 C 151.789062 215.582031 158.96875 208.402344 167.824219 208.402344 L 344.179688 208.402344 C 353.03125 208.402344 360.210938 215.582031 360.210938 224.433594 L 360.210938 400.789062 C 360.210938 409.644531 353.03125 416.820312 344.175781 416.820312 Z M 344.175781 416.820312 " style=" stroke:none;fill-rule:nonzero;fill:rgb(92.941176%,92.156863%,92.941176%);fill-opacity:1;" />
<path d="M 312.113281 292.570312 L 276.039062 292.570312 L 276.039062 256.5 C 276.039062 252.070312 272.449219 248.484375 268.023438 248.484375 L 243.976562 248.484375 C 239.550781 248.484375 235.960938 252.070312 235.960938 256.5 L 235.960938 292.570312 L 199.886719 292.570312 C 195.460938 292.570312 191.871094 296.160156 191.871094 300.585938 L 191.871094 324.636719 C 191.871094 329.0625 195.460938 332.652344 199.886719 332.652344 L 235.960938 332.652344 L 235.960938 368.722656 C 235.960938 373.152344 239.550781 376.742188 243.976562 376.742188 L 268.023438 376.742188 C 272.449219 376.742188 276.039062 373.152344 276.039062 368.722656 L 276.039062 332.652344 L 312.113281 332.652344 C 316.539062 332.652344 320.128906 329.0625 320.128906 324.636719 L 320.128906 300.585938 C 320.128906 296.160156 316.539062 292.570312 312.113281 292.570312 Z M 312.113281 292.570312 " style=" stroke:none;fill-rule:nonzero;fill:rgb(90.196078%,39.215686%,43.137255%);fill-opacity:1;" />
<path d="M 191.871094 312.613281 L 191.871094 324.636719 C 191.871094 329.0625 195.460938 332.652344 199.886719 332.652344 L 235.960938 332.652344 L 235.960938 368.722656 C 235.960938 373.152344 239.550781 376.742188 243.976562 376.742188 L 256 376.742188 L 256 328.644531 C 256 319.789062 248.820312 312.613281 239.96875 312.613281 Z M 191.871094 312.613281 " style=" stroke:none;fill-rule:nonzero;fill:rgb(86.27451%,27.45098%,33.333333%);fill-opacity:1;" />
<path d="M 32.5 376.742188 L 32.5 126.710938 C 18.136719 135.03125 7.5 150.527344 7.5 168.320312 L 7.5 448.886719 C 7.5 462.167969 18.265625 472.933594 31.546875 472.933594 L 480.449219 472.933594 C 493.734375 472.933594 504.5 462.167969 504.5 448.886719 L 104.644531 448.886719 C 64.800781 448.886719 32.5 416.585938 32.5 376.742188 Z M 32.5 376.742188 " style=" stroke:none;fill-rule:nonzero;fill:rgb(86.27451%,27.45098%,33.333333%);fill-opacity:1;" />
<path d="M 161.925781 49.292969 L 151.789062 120.222656 L 183.855469 120.222656 L 193.988281 49.292969 C 197.371094 25.597656 217.667969 8 241.601562 8 L 209.535156 8 C 185.601562 8 165.308594 25.597656 161.925781 49.292969 Z M 161.925781 49.292969 " style=" stroke:none;fill-rule:nonzero;fill:rgb(36.470588%,32.54902%,37.647059%);fill-opacity:1;" />
<path d="M 155.226562 96.175781 L 151.789062 120.222656 L 183.855469 120.222656 L 187.289062 96.175781 Z M 155.226562 96.175781 " style=" stroke:none;fill-rule:nonzero;fill:rgb(29.411765%,24.705882%,30.588235%);fill-opacity:1;" />
<path d="M 350.074219 49.292969 L 360.210938 120.222656 L 328.144531 120.222656 L 318.011719 49.292969 C 314.628906 25.597656 294.332031 8 270.398438 8 L 302.464844 8 C 326.398438 8 346.691406 25.597656 350.074219 49.292969 Z M 350.074219 49.292969 " style=" stroke:none;fill-rule:nonzero;fill:rgb(36.470588%,32.54902%,37.647059%);fill-opacity:1;" />
<path d="M 356.773438 96.175781 L 360.210938 120.222656 L 328.144531 120.222656 L 324.710938 96.175781 Z M 356.773438 96.175781 " style=" stroke:none;fill-rule:nonzero;fill:rgb(29.411765%,24.705882%,30.588235%);fill-opacity:1;" />
<path d="M 456.402344 112.722656 L 366.714844 112.722656 L 357.5 48.234375 C 353.613281 21.019531 329.953125 0.5 302.464844 0.5 L 209.535156 0.5 C 182.046875 0.5 158.386719 21.019531 154.496094 48.234375 L 145.285156 112.722656 L 55.597656 112.722656 C 24.941406 112.722656 0 137.664062 0 168.320312 L 0 448.886719 C 0 466.28125 14.152344 480.433594 31.546875 480.433594 L 480.449219 480.433594 C 497.847656 480.433594 512 466.28125 512 448.886719 L 512 168.320312 C 512 137.664062 487.058594 112.722656 456.402344 112.722656 Z M 342.652344 50.355469 L 351.5625 112.722656 L 334.648438 112.722656 L 325.4375 48.234375 C 323.628906 35.582031 317.542969 24.378906 308.789062 16.011719 C 326.0625 18.769531 340.117188 32.609375 342.652344 50.355469 Z M 270.398438 15.5 C 290.472656 15.5 307.75 30.484375 310.585938 50.351562 L 319.496094 112.722656 L 192.503906 112.722656 L 201.414062 50.351562 C 204.253906 30.484375 221.527344 15.5 241.601562 15.5 Z M 169.347656 50.355469 C 171.882812 32.609375 185.9375 18.769531 203.210938 16.011719 C 194.457031 24.378906 188.371094 35.582031 186.5625 48.234375 L 177.351562 112.722656 L 160.4375 112.722656 Z M 480.453125 465.433594 L 31.546875 465.433594 C 22.421875 465.433594 15 458.011719 15 448.886719 L 15 432.339844 L 23.53125 432.339844 C 36.507812 432.339844 47.0625 421.78125 47.0625 408.804688 L 47.0625 168.320312 C 47.0625 163.617188 50.890625 159.789062 55.597656 159.789062 L 408.304688 159.789062 C 412.449219 159.789062 415.804688 156.429688 415.804688 152.289062 C 415.804688 148.148438 412.449219 144.789062 408.304688 144.789062 L 55.597656 144.789062 C 42.621094 144.789062 32.066406 155.34375 32.066406 168.320312 L 32.066406 408.804688 C 32.066406 413.507812 28.238281 417.335938 23.53125 417.335938 L 15 417.335938 L 15 168.320312 C 15 145.933594 33.210938 127.722656 55.597656 127.722656 L 456.402344 127.722656 C 478.789062 127.722656 497 145.933594 497 168.320312 L 497 417.335938 L 488.46875 417.335938 C 483.765625 417.335938 479.9375 413.507812 479.9375 408.804688 L 479.9375 168.320312 C 479.9375 155.34375 469.378906 144.789062 456.40625 144.789062 L 440.375 144.789062 C 436.234375 144.789062 432.875 148.148438 432.875 152.289062 C 432.875 156.429688 436.234375 159.789062 440.375 159.789062 L 456.40625 159.789062 C 461.109375 159.789062 464.9375 163.617188 464.9375 168.320312 L 464.9375 408.804688 C 464.9375 421.78125 475.492188 432.335938 488.46875 432.335938 L 497 432.335938 L 497 448.882812 C 497 458.011719 489.578125 465.433594 480.453125 465.433594 Z M 480.453125 465.433594 " style=" stroke:none;fill-rule:nonzero;fill:rgb(0%,0%,0%);fill-opacity:1;" />
<path d="M 342.839844 200.902344 L 169.160156 200.902344 C 155.445312 200.902344 144.289062 212.058594 144.289062 225.769531 L 144.289062 399.453125 C 144.289062 413.167969 155.445312 424.320312 169.160156 424.320312 L 175.839844 424.320312 C 179.984375 424.320312 183.339844 420.964844 183.339844 416.820312 C 183.339844 412.679688 179.984375 409.320312 175.839844 409.320312 L 169.160156 409.320312 C 163.71875 409.320312 159.289062 404.894531 159.289062 399.453125 L 159.289062 225.769531 C 159.289062 220.328125 163.71875 215.902344 169.160156 215.902344 L 342.84375 215.902344 C 348.28125 215.902344 352.710938 220.328125 352.710938 225.769531 L 352.710938 399.453125 C 352.710938 404.894531 348.28125 409.320312 342.84375 409.320312 L 207.902344 409.320312 C 203.761719 409.320312 200.402344 412.679688 200.402344 416.820312 C 200.402344 420.964844 203.761719 424.320312 207.902344 424.320312 L 342.839844 424.320312 C 356.554688 424.320312 367.710938 413.167969 367.710938 399.453125 L 367.710938 225.769531 C 367.710938 212.058594 356.554688 200.902344 342.839844 200.902344 Z M 342.839844 200.902344 " style=" stroke:none;fill-rule:nonzero;fill:rgb(0%,0%,0%);fill-opacity:1;" />
<path d="M 228.460938 368.722656 C 228.460938 377.28125 235.417969 384.242188 243.976562 384.242188 L 268.023438 384.242188 C 276.578125 384.242188 283.539062 377.28125 283.539062 368.722656 L 283.539062 340.152344 L 312.113281 340.152344 C 320.667969 340.152344 327.628906 333.191406 327.628906 324.636719 L 327.628906 300.589844 C 327.628906 292.03125 320.667969 285.070312 312.113281 285.070312 L 283.539062 285.070312 L 283.539062 256.5 C 283.539062 247.945312 276.578125 240.984375 268.023438 240.984375 L 243.976562 240.984375 C 235.417969 240.984375 228.460938 247.945312 228.460938 256.5 L 228.460938 285.070312 L 199.886719 285.070312 C 191.332031 285.070312 184.371094 292.03125 184.371094 300.589844 L 184.371094 324.636719 C 184.371094 333.191406 191.332031 340.152344 199.886719 340.152344 L 228.460938 340.152344 Z M 199.886719 325.152344 C 199.601562 325.152344 199.371094 324.921875 199.371094 324.636719 L 199.371094 300.589844 C 199.371094 300.304688 199.601562 300.070312 199.886719 300.070312 L 235.960938 300.070312 C 240.101562 300.070312 243.460938 296.714844 243.460938 292.570312 L 243.460938 256.5 C 243.460938 256.214844 243.691406 255.984375 243.976562 255.984375 L 268.023438 255.984375 C 268.308594 255.984375 268.539062 256.214844 268.539062 256.5 L 268.539062 292.570312 C 268.539062 296.714844 271.898438 300.070312 276.039062 300.070312 L 312.113281 300.070312 C 312.398438 300.070312 312.628906 300.300781 312.628906 300.589844 L 312.628906 324.636719 C 312.628906 324.921875 312.398438 325.152344 312.113281 325.152344 L 276.039062 325.152344 C 271.898438 325.152344 268.539062 328.511719 268.539062 332.652344 L 268.539062 368.722656 C 268.539062 369.007812 268.308594 369.242188 268.023438 369.242188 L 243.976562 369.242188 C 243.691406 369.242188 243.460938 369.011719 243.460938 368.722656 L 243.460938 332.652344 C 243.460938 328.511719 240.101562 325.152344 235.960938 325.152344 Z M 199.886719 325.152344 " style=" stroke:none;fill-rule:nonzero;fill:rgb(0%,0%,0%);fill-opacity:1;" />
</g>
</svg>