<svg id="Capa_1" enable-background="new 0 0 509.703 509.703" height="512" viewBox="0 0 509.703 509.703" width="512" xmlns="http://www.w3.org/2000/svg"><g><g><g id="Colors_31_"><g id="colors_4_"><g><path d="m374.888 128.707-138.456-49.476-138.456 49.476v184.827l138.456 96.658 138.456-96.658z" fill="#87bcc4"/></g><g><path d="m328.289 282.397c1.222-5.893 4.785-10.7 9.515-13.663v-111.089l-101.372-34.568-101.372 34.568v136.302l101.372 70.769 94.954-66.289c-3.02-4.554-4.293-10.261-3.097-16.03z" fill="#9ce3bf"/></g><g><path d="m312.804 149.12v129.943l-99.614 69.427 23.242 16.225 101.372-70.652v-136.418z" fill="#87bcc4"/></g><g><path d="m276.959 229.202h-25.018v-25.291h-31.018v25.291h-25.373v31.018h25.373v26.504h31.018v-26.504h25.018z" fill="#ffc277"/></g></g><g><g><ellipse cx="302.401" cy="413.928" fill="#fff" rx="17.873" ry="17.426"/></g><g><ellipse cx="433.409" cy="462.496" fill="#fff" rx="17.426" ry="17.873" transform="matrix(.643 -.766 .766 .643 -199.474 497.22)"/></g><g><ellipse cx="421.505" cy="296.5" fill="#fff" rx="17.873" ry="17.426"/></g><g><circle cx="388.876" cy="380.95" fill="#f88fa4" r="50.491"/></g><g><path d="m400.915 331.929c14.023 11.534 21.343 30.258 17.401 49.271-5.661 27.305-32.385 44.85-59.69 39.189-.603-.125-1.195-.273-1.789-.418 6.115 5.029 13.498 8.699 21.789 10.418 27.305 5.661 54.029-11.885 59.69-39.189 5.536-26.701-11.127-52.835-37.401-59.271z" fill="#f05475"/></g><g><ellipse cx="478.977" cy="338.699" fill="#f05475" rx="21.222" ry="21.25" transform="matrix(.204 -.979 .979 .204 49.845 738.676)"/></g><g><ellipse cx="346.828" cy="471.86" fill="#f05475" rx="19.552" ry="19.578" transform="matrix(.204 -.979 .979 .204 -185.768 715.342)"/></g><g><ellipse cx="346.986" cy="286.712" fill="#f05475" rx="21.223" ry="21.251" transform="matrix(.204 -.979 .979 .204 -4.372 568.048)"/></g></g></g><g><g><path d="m257.087 197.99h-41.4v26.342h-27.058v40.7h27.058v26.342h41.4v-26.342h27.058v-40.7h-27.058zm12.059 41.342v10.7h-27.058v26.342h-11.4v-26.342h-27.058v-10.7h27.058v-26.342h11.4v26.342z"/></g><g><path d="m107.302 60.825h15v-17.474h17.474v-15h-17.474v-17.473h-15v17.473h-17.473v15h17.473z"/></g><g><path d="m32.474 123.689h-15v17.473h-17.474v15h17.474v17.474h15v-17.474h17.473v-15h-17.473z"/></g><g><path d="m32.166 53.325h15v15h-15z"/></g><g><path d="m505.071 322.906c-7.138-10.857-21.167-15.67-33.464-11.384-12.551 4.374-20.617 17.141-19.135 30.363l-15.248 7.133c-5.536-8.397-13.239-15.363-22.5-19.986l4.105-8.321c11.738 1.22 23.22-6.179 26.518-17.591 3.213-11.114-2.247-23.077-12.491-28.298-10.348-5.274-23.405-2.588-30.761 6.41-8.19 10.018-6.828 25.025 2.953 33.508l-4.621 9.366c-4.339-.886-8.665-1.246-12.918-1.15l2.334-1.629v-203.217l-153.455-54.837-153.457 54.837v203.217l153.456 107.13 98.488-68.755c-4.254 10.833-5.168 22.826-2.55 34.171l-10.977 4.35c-8.344-9.732-23.27-11.464-33.644-3.991-9.511 6.851-12.915 19.843-7.646 30.381 5.277 10.554 17.742 15.904 29.07 12.745 11.071-3.087 18.851-13.749 17.977-25.281l10.442-4.138c4.851 9.189 12.137 17.034 21.181 22.54l-6.288 14.543c-11.724-1.559-23.462 4.984-28.28 15.79-5.833 13.081-.118 28.936 12.725 35.266 11.42 5.628 25.558 2.383 33.383-7.643 8.867-11.361 7.008-28.208-4.075-37.424l6.259-14.476c12.318 3.619 25.632 3.096 37.585-1.627l5.54 10.254c-7.731 7.929-8.942 20.377-3.207 29.795 6.521 10.71 20.583 15.145 31.964 9.716 10.577-5.045 15.888-17.3 12.724-28.501-3.413-12.083-15.762-19.974-28.171-17.933l-5.719-10.585c20.096-14.728 28.591-41.503 20.625-65.146l14.225-6.655c9.257 12.415 27.3 15.149 39.856 6.113 12.306-8.857 15.535-26.377 7.197-39.06zm-83.611-36.908c14.103 0 13.91 20.945 0 20.945-13.896 0-14.126-20.945 0-20.945zm-119.104 138.374c-14.103 0-13.91-20.945 0-20.945 13.897 0 14.127 20.945 0 20.945zm58.365 49.911c-2.083 10.038-15.528 12.91-21.568 4.64-6.397-8.759 1.63-21.08 12.188-18.892 6.435 1.333 10.719 7.795 9.38 14.252zm-31.772-208.129c-7.818 7.597-10.658 19.436-7.134 29.747l-85.428 59.638-93.872-65.533v-127.023l93.872-32.011 93.872 32.011v101.952c-.436.406-.873.813-1.31 1.219zm8.641 28.094c-2.007-3.027-2.739-6.8-2.002-10.357 2.559-12.347 20.091-14.732 25.781-3.288 7.417 14.915-14.567 27.541-23.779 13.645zm28.07 15.881c3.96-2.794 7.091-6.468 9.184-10.725v14.101l-6.146 4.29zm-129.272 100.034-138.457-96.658v-184.827l138.456-49.477 138.456 49.477v145.365c-5.398-10.957-17.446-17.451-29.585-15.83v-105.963l-108.872-37.125-108.87 37.125v145.58l108.872 76.004 93.796-65.481c5.838 5.09 13.68 7.612 21.39 6.947l4.485 11.319zm196.554 41.645c13.924 0 14.701 21.849.432 21.311-13.262-.499-14.335-21.311-.432-21.311zm-2.014-62.159c-3.999 19.285-21.237 33.787-40.978 34.264-17.743.429-34.254-10.416-40.944-26.838-6.533-16.037-2.55-34.954 9.896-46.997 12.838-12.422 32.553-15.659 48.664-7.858 17.509 8.479 27.31 28.386 23.362 47.429zm63.58-48.187c-2.375 11.458-17.766 14.692-24.601 5.225-7.191-9.959 1.894-23.945 13.923-21.453 7.31 1.515 12.197 8.902 10.678 16.228z"/></g><g><path d="m365.66 363.107h15v15h-15z" fill="#fff"/></g></g></g><g><path d="m172.781 173.895v15h-15v-15zm0 30v15h-15v-15z" fill="#fff"/></g></g></svg>