<?xml version="1.0" encoding="iso-8859-1"?>
<!-- Generator: Adobe Illustrator 19.0.0, SVG Export Plug-In . SVG Version: 6.00 Build 0)  -->
<svg version="1.1" id="Layer_1" xmlns="http://www.w3.org/2000/svg" xmlns:xlink="http://www.w3.org/1999/xlink" x="0px" y="0px"
	 viewBox="0 0 512 512" style="enable-background:new 0 0 512 512;" xml:space="preserve">
<path style="fill:#CFDCE5;" d="M252.083,241.245V130.417c0-67.01,54.516-121.538,121.525-121.538
	c67.02,0,121.538,54.529,121.538,121.538v110.828h-44.263V130.417c0-42.603-34.66-77.275-77.275-77.275
	c-42.603,0-77.263,34.672-77.263,77.275v110.828H252.083z"/>
<rect x="16.598" y="241.25" style="fill:#FF6F52;" width="316.272" height="261.873"/>
<path style="fill:#314A5F;" d="M213.604,446.817l-22.98-67.521c15.55-6.29,26.526-21.523,26.526-39.327
	c0-23.426-18.991-42.417-42.416-42.417s-42.416,18.991-42.416,42.417c0,17.804,10.976,33.037,26.526,39.327l-22.979,67.521H213.604z
	"/>
<path d="M373.738,0c-19.856,0-38.936,4.37-56.711,12.989c-4.412,2.14-6.254,7.451-4.115,11.864
	c2.139,4.412,7.453,6.256,11.864,4.115c15.339-7.438,31.813-11.21,48.963-11.21c62.12,0,112.657,50.538,112.657,112.658v101.949
	h-26.505V130.417c0-47.505-38.649-86.154-86.153-86.154c-47.498,0-86.142,38.649-86.142,86.154V232.37h-26.505V130.417
	c0-32.971,14.439-64.207,39.615-85.699c3.728-3.183,4.171-8.788,0.987-12.518c-3.182-3.729-8.787-4.172-12.518-0.987
	c-29.133,24.872-45.842,61.031-45.842,99.205V232.37H16.726c-4.905,0-8.879,3.975-8.879,8.879V408.45
	c0,4.904,3.974,8.879,8.879,8.879s8.879-3.975,8.879-8.879V250.127h298.518v244.114H25.605v-55.055c0-4.904-3.974-8.879-8.879-8.879
	s-8.879,3.975-8.879,8.879v63.934c0,4.904,3.974,8.879,8.879,8.879h316.276c4.905,0,8.879-3.975,8.879-8.879V241.248
	c0-4.904-3.974-8.879-8.879-8.879h-27.648V130.415c0-37.713,30.676-68.396,68.384-68.396c37.712,0,68.395,30.682,68.395,68.396
	v110.828c0,4.904,3.974,8.879,8.879,8.879h44.263c4.905,0,8.879-3.975,8.879-8.879V130.415C504.154,58.505,445.65,0,373.738,0z"/>
<path d="M226.159,339.969c0-28.285-23.011-51.296-51.295-51.296s-51.295,23.011-51.295,51.296c0,18.15,9.396,34.553,24.517,43.762
	l-20.496,60.226c-0.923,2.711-0.482,5.702,1.186,8.03c1.667,2.329,4.355,3.71,7.219,3.71h77.74c2.864,0,5.551-1.382,7.219-3.71
	c1.668-2.329,2.11-5.318,1.186-8.03l-20.496-60.226C216.764,374.522,226.159,358.119,226.159,339.969z M187.425,371.066
	c-4.366,1.766-6.593,6.633-5.075,11.092l18.983,55.782h-52.939l18.985-55.782c1.518-4.458-0.71-9.325-5.075-11.092
	c-12.743-5.155-20.977-17.36-20.977-31.097c0-18.493,15.045-33.538,33.537-33.538s33.537,15.045,33.537,33.538
	C208.401,353.706,200.167,365.911,187.425,371.066z"/>
<g>
</g>
<g>
</g>
<g>
</g>
<g>
</g>
<g>
</g>
<g>
</g>
<g>
</g>
<g>
</g>
<g>
</g>
<g>
</g>
<g>
</g>
<g>
</g>
<g>
</g>
<g>
</g>
<g>
</g>
</svg>
