<svg height="512pt" viewBox="0 -2 512.00055 512" width="512pt" xmlns="http://www.w3.org/2000/svg"><path d="m356.511719 432.585938v64.1875c0 4.714843-6.414063 6.128906-8.402344 1.851562l-30.539063-66.039062zm0 0" fill="#aedb81"/><path d="m479.464844 359.5-112.921875-85.519531h77.300781l47.953125 74.066406c5.203125 8.023437-4.703125 17.226563-12.332031 11.453125zm0 0" fill="#81b8fd"/><path d="m374.308594 441.414062h-230.101563c-7.058593 0-12.78125-5.722656-12.78125-12.78125v-152.753906c0-7.058594 5.722657-12.777344 12.78125-12.777344h230.105469c7.058594 0 12.777344 5.71875 12.777344 12.777344v152.753906c0 7.058594-5.722656 12.78125-12.78125 12.78125zm0 0" fill="#bee299"/><path d="m179.851562 441.414062h-35.640624c-7.066407 0-12.78125-5.722656-12.78125-12.777343v-152.761719c0-7.054688 5.714843-12.777344 12.78125-12.777344h35.640624c-7.066406 0-12.78125 5.722656-12.78125 12.777344v152.761719c0 7.054687 5.714844 12.777343 12.78125 12.777343zm0 0" fill="#aedb81"/><path d="m504.363281 51v194.621094c0 23.941406-19.417969 43.359375-43.359375 43.359375h-224.5625c-23.953125 0-43.363281-19.417969-43.363281-43.359375v-194.621094c0-6.253906 1.324219-12.203125 3.707031-17.566406 6.742188-15.195313 21.957032-25.796875 39.65625-25.796875h224.5625c23.941406 0 43.359375 19.421875 43.359375 43.363281zm0 0" fill="#a0cafe"/><path d="m365.054688 60.269531c0 12.199219-9.886719 22.085938-22.085938 22.085938-12.195312 0-22.085938-9.886719-22.085938-22.085938s9.890626-22.085937 22.085938-22.085937c12.199219 0 22.085938 9.886718 22.085938 22.085937zm0 0" fill="#fff5f4"/><path d="m380.667969 225.699219h-6.152344c-1.695313 0-3.070313-1.375-3.070313-3.070313 0 9.675782 0-97.339844 0-113.441406 0-2.035156-1.652343-3.683594-3.683593-3.683594h-47.578125c-3.550782 0-6.425782 2.875-6.425782 6.421875v17.824219c0 3.546875 2.875 6.421875 6.425782 6.421875 3.210937 0 5.8125 2.605469 5.8125 5.8125v77.902344c0 3.210937-2.605469 5.8125-5.8125 5.8125h-3.414063c-3.546875 0-6.421875 2.878906-6.421875 6.425781v19.890625c0 3.546875 2.875 6.421875 6.421875 6.421875h63.898438c3.546875 0 6.421875-2.875 6.421875-6.421875v-19.890625c0-3.550781-2.875-6.425781-6.421875-6.425781zm0 0" fill="#fff5f4"/><path d="m255.484375 57.535156v231.445313h-19.042969c-23.953125 0-43.363281-19.417969-43.363281-43.359375v-194.621094c0-6.253906 1.324219-12.203125 3.707031-17.566406h34.59375c13.308594 0 24.105469 10.792968 24.105469 24.101562zm0 0" fill="#81b8fd"/><path d="m255.484375 57.535156v231.445313h-19.042969c-23.953125 0-43.363281-19.417969-43.363281-43.359375v-194.621094c0-6.253906 1.324219-12.203125 3.707031-17.566406h34.59375c13.308594 0 24.105469 10.792968 24.105469 24.101562zm0 0" fill="#81b8fd"/><path d="m55.992188 342.972656-46.851563 72.375c-5.207031 8.023438 4.703125 17.230469 12.332031 11.453125l110.679688-83.828125zm0 0" fill="#ff7c48"/><path d="m194.152344 356.554688h-142.722656c-13.3125 0-24.101563-10.789063-24.101563-24.101563v-274.921875c0-13.308594 10.789063-24.101562 24.101563-24.101562h142.722656c13.3125 0 24.101562 10.792968 24.101562 24.101562v274.921875c0 13.3125-10.789062 24.101563-24.101562 24.101563zm0 0" fill="#ffad8c"/><path d="m87.070312 356.558594h-35.640624c-13.308594 0-24.101563-10.792969-24.101563-24.105469v-274.917969c0-13.308594 10.792969-24.101562 24.101563-24.101562h35.640624c-13.308593 0-24.101562 10.792968-24.101562 24.101562v274.917969c0 13.3125 10.792969 24.105469 24.101562 24.105469zm0 0" fill="#ff7c48"/><path d="m342.96875 89.992188c16.390625 0 29.726562-13.332032 29.726562-29.722657 0-16.386719-13.335937-29.722656-29.726562-29.722656s-29.722656 13.335937-29.722656 29.722656c0 16.390625 13.335937 29.722657 29.722656 29.722657zm0-44.171876c7.96875 0 14.449219 6.480469 14.449219 14.449219 0 7.964844-6.480469 14.449219-14.449219 14.449219-7.964844 0-14.445312-6.484375-14.445312-14.449219 0-7.96875 6.480468-14.449219 14.445312-14.449219zm0 0"/><path d="m316.769531 218.0625c-7.753906 0-14.058593 6.308594-14.058593 14.0625v19.890625c0 7.75 6.304687 14.058594 14.058593 14.058594h63.898438c7.753906 0 14.0625-6.304688 14.0625-14.058594v-19.890625c0-7.753906-6.308594-14.0625-14.0625-14.0625h-1.585938v-108.875c0-6.246094-5.078125-11.324219-11.320312-11.324219h-47.578125c-7.753906 0-14.0625 6.308594-14.0625 14.0625v17.824219c0 7.136719 5.339844 13.046875 12.234375 13.941406v74.371094zm3.414063 15.277344c7.414062 0 13.449218-6.035156 13.449218-13.453125v-77.902344c0-7.003906-5.386718-12.777344-12.238281-13.394531v-15.449219h42.410157v110.105469c0 1.15625.257812 2.253906.714843 3.234375 1.550781 4.007812 5.445313 6.859375 9.996094 6.859375h4.9375v17.460937h-61.46875v-17.460937zm0 0"/><path d="m83.746094 126.042969c-34.441406 0-40.828125 31.601562-22.667969 31.601562 8.933594 0 5.292969-12.742187 22.171875-12.742187 8.273438 0 14.890625 3.640625 14.890625 11.25 0 16.539062-25.8125 14.613281-25.8125 43.847656 0 8.601562 2.316406 11.085938 9.101563 11.085938 8.105468 0 9.761718-3.640626 9.761718-6.785157 0-8.601562.164063-13.566406 9.265625-20.679687 33.707031-26.214844 17.515625-57.578125-16.710937-57.578125zm0 0"/><path d="m81.59375 222.5c-6.949219 0-12.574219 5.792969-12.574219 12.742188 0 6.78125 5.460938 12.738281 12.574219 12.738281s12.738281-5.957031 12.738281-12.738281c0-6.949219-5.789062-12.742188-12.738281-12.742188zm0 0"/><path d="m158.695312 126.042969c-34.390624 0-40.886718 31.601562-22.667968 31.601562 8.933594 0 5.296875-12.742187 22.171875-12.742187 8.273437 0 14.890625 3.640625 14.890625 11.25 0 8.933594-9.265625 14.066406-14.726563 18.699218-4.796875 4.136719-11.085937 10.917969-11.085937 25.148438 0 8.601562 2.316406 11.085938 9.101562 11.085938 8.105469 0 9.761719-3.640626 9.761719-6.785157 0-8.601562.164063-13.566406 9.265625-20.683593 4.46875-3.472657 18.53125-14.722657 18.53125-30.277344 0-15.550782-14.0625-27.296875-35.242188-27.296875zm0 0"/><path d="m156.542969 222.5c-6.949219 0-12.574219 5.792969-12.574219 12.742188 0 6.78125 5.460938 12.738281 12.574219 12.738281s12.742187-5.957031 12.742187-12.738281c0-6.949219-5.792968-12.742188-12.742187-12.742188zm0 0"/><path d="m286.929688 371.507812h-116.089844c-4.214844 0-7.636719 3.410157-7.636719 7.636719 0 4.214844 3.421875 7.636719 7.636719 7.636719h116.089844c4.214843 0 7.636718-3.421875 7.636718-7.636719 0-4.226562-3.421875-7.636719-7.636718-7.636719zm0 0"/><path d="m347.671875 371.507812h-30.191406c-4.21875 0-7.640625 3.410157-7.640625 7.636719 0 4.214844 3.421875 7.636719 7.640625 7.636719h30.191406c4.214844 0 7.636719-3.421875 7.636719-7.636719 0-4.226562-3.421875-7.636719-7.636719-7.636719zm0 0"/><path d="m461.003906 0h-208.300781c-4.214844 0-7.636719 3.421875-7.636719 7.636719 0 4.226562 3.421875 7.636719 7.636719 7.636719h208.300781c19.691406 0 35.722656 16.03125 35.722656 35.726562v90.171875c0 4.214844 3.410157 7.636719 7.636719 7.636719 4.214844 0 7.636719-3.421875 7.636719-7.636719v-90.171875c0-28.117188-22.882812-51-50.996094-51zm0 0"/><path d="m504.363281 164.082031c-4.226562 0-7.636719 3.421875-7.636719 7.640625v73.898438c0 19.695312-16.03125 35.722656-35.722656 35.722656-21.746094 0-189.011718 0-224.5625 0-3.675781 0-7.222656-.558594-10.550781-1.585938v-222.222656c0-12.441406-7.199219-23.238281-17.648437-28.441406-.007813 0-.007813-.011719-.019532-.011719 4.175782-5.386719 9.910156-9.589843 16.660156-11.890625 3.992188-1.367187 6.121094-5.714844 4.753907-9.707031-1.363281-3.992187-5.703125-6.121094-9.691407-4.753906-12.070312 4.125-21.824218 12.472656-27.84375 23.0625h-140.671874c-17.503907 0-31.742188 14.238281-31.742188 31.742187v274.917969c0 11.835937 6.507812 22.179687 16.132812 27.628906l-33.097656 51.109375c-9.808594 15.136719 8.949219 32.625 23.351563 21.699219l90.710937-68.695313h7.007813v64.441407c0 11.25 9.15625 20.417969 20.417969 20.417969h172.554687l24.421875 52.777343c5.359375 11.625 22.960938 7.859375 22.960938-5.058593v-47.71875h10.164062c11.253906 0 20.417969-9.167969 20.417969-20.417969v-123.726563l80.121093 60.679688c14.445313 10.921875 33.171876-6.535156 23.359376-21.699219l-30.863282-47.660156-.015625-.019531c25.140625-3.128907 44.667969-24.621094 44.667969-50.589844v-73.902344c0-4.214844-3.421875-7.636719-7.636719-7.636719zm-488.675781 256.570313c-.863281-.816406-3.292969 3.703125 35.660156-56.457032h40.132813c-80.136719 60.695313-74.917969 57.269532-75.792969 56.457032zm28.460938-73.441406c-5.4375-2.679688-9.183594-8.289063-9.183594-14.757813v-274.917969c0-9.082031 7.382812-16.464844 16.464844-16.464844 155.285156 0 145.257812-.746093 150.214843 1.8125 5.324219 2.71875 8.972657 8.269532 8.972657 14.652344v274.917969c0 .183594 0 .378906-.011719.5625-.296875 8.816406-7.554688 15.90625-16.457031 15.90625-155.082032 0-145.039063.769531-150-1.710937zm304.726562 134.855468-15.277344-33.011718h15.277344zm30.578125-53.429687c0 2.828125-2.308594 5.140625-5.140625 5.140625-11 0-218.980469 0-230.101562 0-2.839844 0-5.144532-2.3125-5.144532-5.140625v-64.441407h55.082032c17.324218 0 31.4375-13.929687 31.730468-31.179687h121.792969c4.214844 0 7.636719-3.421875 7.636719-7.636719 0-4.226562-3.421875-7.640625-7.636719-7.640625h-121.78125v-22.21875c3.402344.722657 6.933594 1.101563 10.550781 1.101563h143.011719zm105.785156-75.285157c-.867187.804688 4.472657 4.328126-76.148437-56.730468h40.3125c39.152344 60.46875 36.707031 55.921875 35.835937 56.730468zm0 0"/></svg>