<?xml version="1.0" encoding="iso-8859-1"?>
<!-- Generator: Adobe Illustrator 19.0.0, SVG Export Plug-In . SVG Version: 6.00 Build 0)  -->
<svg version="1.1" id="Capa_1" xmlns="http://www.w3.org/2000/svg" xmlns:xlink="http://www.w3.org/1999/xlink" x="0px" y="0px"
	 viewBox="0 0 512 512" style="enable-background:new 0 0 512 512;" xml:space="preserve">
<path style="fill:#E1EFFB;" d="M357.318,118.034V40.038H154.682v77.995l-39.135,35.23c-11.513,10.364-18.087,25.127-18.087,40.618
	V473.58c0,17.075,13.842,30.917,30.917,30.917h255.246c17.075,0,30.917-13.842,30.917-30.917V193.882
	c0-15.491-6.574-30.254-18.087-40.618L357.318,118.034z"/>
<g>
	<path style="fill:#CADDEA;" d="M396.453,153.264l-39.135-35.23V40.038h-50.014v77.995l53.389,48.062
		c2.439,2.196,3.832,5.324,3.832,8.607v329.795h19.098c17.075,0,30.917-13.842,30.917-30.917v-279.7
		C414.54,178.391,407.966,163.628,396.453,153.264z"/>
	<path style="fill:#CADDEA;" d="M357.318,118.034H154.682l-39.135,35.23c-11.513,10.364-18.087,25.127-18.087,40.618v279.699
		c0,17.075,13.842,30.917,30.917,30.917h255.246c17.075,0,30.917-13.842,30.917-30.917V193.882c0-15.491-6.574-30.254-18.087-40.618
		L357.318,118.034z"/>
</g>
<path style="fill:#BACED8;" d="M414.235,188.114c-0.202-1.906-0.504-3.794-0.902-5.657c-0.199-0.931-0.422-1.856-0.669-2.773
	c-0.494-1.835-1.082-3.64-1.762-5.409c-1.7-4.422-3.972-8.617-6.766-12.471c-1.118-1.542-2.319-3.029-3.6-4.455
	c-0.641-0.713-1.302-1.41-1.982-2.092c-0.681-0.681-1.381-1.346-2.1-1.994l-39.135-35.23h-50.014l53.389,48.062
	c2.439,2.196,3.832,5.324,3.832,8.607v329.795h19.098c8.537,0,16.267-3.46,21.861-9.055c5.595-5.595,9.055-13.324,9.055-21.861
	v-279.7C414.54,191.946,414.437,190.021,414.235,188.114z"/>
<path style="fill:#F9644B;" d="M371.292,84.097H140.708c-8.118,0-14.699-6.581-14.699-14.699V22.201
	c0-8.118,6.581-14.699,14.699-14.699h230.584c8.118,0,14.699,6.581,14.699,14.699v47.197
	C385.991,77.516,379.41,84.097,371.292,84.097z"/>
<path style="fill:#DB3F2E;" d="M371.292,7.502h-34.815v76.594h34.815c8.118,0,14.699-6.581,14.699-14.699V22.201
	C385.991,14.083,379.41,7.502,371.292,7.502z"/>
<rect x="97.46" y="204.33" style="fill:#F9644B;" width="317.08" height="236.6"/>
<rect x="364.52" y="204.33" style="fill:#DB3F2E;" width="50.01" height="236.6"/>
<path style="fill:#FFFFFF;" d="M330.602,305.519h-55.074v-55.074c0-1.755-1.423-3.178-3.178-3.178h-32.702
	c-1.755,0-3.178,1.423-3.178,3.178v55.074h-55.074c-1.755,0-3.178,1.423-3.178,3.178v32.702c0,1.755,1.423,3.178,3.178,3.178h55.074
	v55.074c0,1.755,1.423,3.178,3.178,3.178h32.702c1.755,0,3.178-1.423,3.178-3.178v-55.074h55.074c1.755,0,3.178-1.423,3.178-3.178
	v-32.702C333.78,306.942,332.357,305.519,330.602,305.519z"/>
<path d="M169.365,61.858c4.143,0,7.502-3.359,7.502-7.502V37.244c0-4.143-3.359-7.502-7.502-7.502s-7.502,3.359-7.502,7.502v17.112
	C161.863,58.499,165.222,61.858,169.365,61.858z"/>
<path d="M212.682,61.858c4.143,0,7.502-3.359,7.502-7.502V37.244c0-4.143-3.359-7.502-7.502-7.502s-7.502,3.359-7.502,7.502v17.112
	C205.18,58.499,208.539,61.858,212.682,61.858z"/>
<path d="M256,61.858c4.143,0,7.502-3.359,7.502-7.502V37.244c0-4.143-3.359-7.502-7.502-7.502s-7.502,3.359-7.502,7.502v17.112
	C248.498,58.499,251.857,61.858,256,61.858z"/>
<path d="M299.318,61.858c4.143,0,7.502-3.359,7.502-7.502V37.244c0-4.143-3.359-7.502-7.502-7.502s-7.502,3.359-7.502,7.502v17.112
	C291.815,58.499,295.174,61.858,299.318,61.858z"/>
<path d="M342.635,61.858c4.143,0,7.502-3.359,7.502-7.502V37.244c0-4.143-3.359-7.502-7.502-7.502s-7.502,3.359-7.502,7.502v17.112
	C335.132,58.499,338.491,61.858,342.635,61.858z"/>
<path d="M170.718,308.697v32.702c0,5.889,4.791,10.68,10.679,10.68h47.572v47.571c0,5.889,4.791,10.68,10.68,10.68h32.702
	c5.889,0,10.68-4.791,10.68-10.68v-47.571h47.572c5.888,0,10.679-4.791,10.679-10.68v-32.702c0-5.889-4.791-10.68-10.679-10.68
	h-47.572v-47.571c0-5.889-4.791-10.68-10.68-10.68h-32.702c-5.889,0-10.68,4.791-10.68,10.68v47.571h-47.572
	C175.509,298.017,170.718,302.808,170.718,308.697z M185.723,313.021h50.749c4.143,0,7.502-3.359,7.502-7.502V254.77h24.053v50.749
	c0,4.143,3.359,7.502,7.502,7.502h50.749v24.053h-50.749c-4.143,0-7.502,3.359-7.502,7.502v50.749h-24.053v-50.749
	c0-4.143-3.359-7.502-7.502-7.502h-50.749V313.021L185.723,313.021z"/>
<path d="M401.473,147.688l-36.653-32.995V91.599h6.472c12.241,0,22.201-9.959,22.201-22.201V22.201
	C393.493,9.959,383.533,0,371.292,0H140.708c-12.241,0-22.201,9.959-22.201,22.201v47.197c0,12.241,9.959,22.201,22.201,22.201
	h6.472v23.094l-36.653,32.995c-13.072,11.768-20.569,28.605-20.569,46.194v279.699c0,21.184,17.235,38.419,38.419,38.419h255.246
	c21.184,0,38.419-17.234,38.419-38.419V193.882C422.042,176.293,414.545,159.456,401.473,147.688z M140.708,76.595
	c-3.968,0-7.196-3.228-7.196-7.196V22.201c0-3.968,3.228-7.197,7.196-7.197h230.584c3.968,0,7.196,3.228,7.196,7.197v47.197
	c0,3.968-3.228,7.196-7.196,7.196l0,0H140.708V76.595z M349.816,91.599v18.933H162.184V91.599H349.816z M407.038,196.827H185.48
	c-4.143,0-7.502,3.359-7.502,7.502s3.359,7.502,7.502,7.502h221.558v221.601H361.78c-4.143,0-7.502,3.359-7.502,7.502
	s3.359,7.502,7.502,7.502h45.258v25.145c0,12.911-10.504,23.414-23.415,23.414H128.377c-12.911,0-23.415-10.503-23.415-23.414
	v-25.145h221.391c4.143,0,7.502-3.359,7.502-7.502s-3.359-7.502-7.502-7.502H104.962V211.831h45.258
	c4.143,0,7.502-3.359,7.502-7.502s-3.359-7.502-7.502-7.502h-45.258v-2.945c0-13.343,5.687-26.115,15.604-35.042l36.995-33.304
	h196.877l36.995,33.304c9.917,8.927,15.604,21.7,15.604,35.042v2.945H407.038z"/>
<g>
</g>
<g>
</g>
<g>
</g>
<g>
</g>
<g>
</g>
<g>
</g>
<g>
</g>
<g>
</g>
<g>
</g>
<g>
</g>
<g>
</g>
<g>
</g>
<g>
</g>
<g>
</g>
<g>
</g>
</svg>
