<?xml version="1.0" encoding="iso-8859-1"?>
<!-- Generator: Adobe Illustrator 19.0.0, SVG Export Plug-In . SVG Version: 6.00 Build 0)  -->
<svg version="1.1" id="Capa_1" xmlns="http://www.w3.org/2000/svg" xmlns:xlink="http://www.w3.org/1999/xlink" x="0px" y="0px"
	 viewBox="0 0 512.001 512.001" style="enable-background:new 0 0 512.001 512.001;" xml:space="preserve">
<path style="fill:#F4F8FF;" d="M9.999,30.014v451.974c0,11.045,8.953,19.999,19.999,19.999h343.978
	c11.045,0,19.999-8.953,19.999-19.999V99.009l-88.994-88.994H29.998C18.953,10.015,9.999,18.968,9.999,30.014z"/>
<path style="fill:#FFFFFF;" d="M266.029,486.913L266.029,486.913c20.306,20.306,53.229,20.306,73.534,0l79.191-79.191
	c20.306-20.306,20.306-53.229,0-73.534l0,0c-20.306-20.306-53.229-20.306-73.534,0l-79.191,79.191
	C245.724,433.684,245.724,466.607,266.029,486.913z"/>
<path style="fill:#C7DAFF;" d="M379.159,447.318l-73.534-73.534l-39.596,39.596c-20.306,20.306-20.306,53.229,0,73.534
	c20.306,20.306,53.229,20.306,73.534,0L379.159,447.318z"/>
<path style="fill:#FEF0B6;" d="M393.975,99.009l-88.994-88.994v68.996c0,11.045,8.953,19.999,19.999,19.999H393.975z"/>
<circle style="fill:#FE7C7A;" cx="201.987" cy="162.04" r="77.995"/>
<g>
	<path style="fill:#FFFFFF;" d="M450.004,501.984c-28.715,0-51.998-23.286-51.998-51.998c0-28.719,23.283-51.998,51.998-51.998
		s51.998,23.279,51.998,51.998C502.002,478.699,478.719,501.984,450.004,501.984z"/>
	<path style="fill:#FFFFFF;" d="M502.002,449.986c0-28.719-23.283-51.998-51.998-51.998s-51.998,23.279-51.998,51.998
		c0,28.712,23.283,51.998,51.998,51.998S502.002,478.699,502.002,449.986z"/>
</g>
<path style="fill:#F4F8FF;" d="M450.004,501.984c28.715,0,51.998-23.286,51.998-51.998c0-28.719-23.283-51.998-51.998-51.998
	V501.984z"/>
<path d="M165.416,172.036h26.572v26.572c0,5.523,4.478,9.999,9.999,9.999s9.999-4.477,9.999-9.999v-26.572h26.572
	c5.522,0,9.999-4.477,9.999-9.999c0-5.523-4.478-9.999-9.999-9.999h-26.572v-26.572c0-5.523-4.478-9.999-9.999-9.999
	s-9.999,4.477-9.999,9.999v26.572h-26.572c-5.522,0-9.999,4.477-9.999,9.999C155.416,167.559,159.893,172.036,165.416,172.036z"/>
<path d="M201.987,250.031c48.52,0,87.994-39.475,87.994-87.994s-39.475-87.995-87.994-87.995s-87.994,39.475-87.994,87.995
	S153.467,250.031,201.987,250.031z M201.987,94.041c37.493,0,67.996,30.503,67.996,67.996s-30.503,67.996-67.996,67.996
	s-67.996-30.503-67.996-67.996S164.495,94.041,201.987,94.041z"/>
<path d="M221.007,491.987H29.998c-5.514,0-9.999-4.486-9.999-9.999V30.014c0-5.514,4.486-9.999,9.999-9.999h264.983v58.996
	c0,16.541,13.457,29.998,29.998,29.998h58.996v177.989c0,5.522,4.478,9.999,9.999,9.999c5.522,0,9.999-4.478,9.999-9.999V99.009
	c0-2.652-1.054-5.196-2.929-7.071L312.052,2.944c-1.876-1.875-4.419-2.929-7.071-2.929H29.998C13.457,0.015,0,13.473,0,30.014
	v451.974c0,16.541,13.457,29.998,29.998,29.998h191.009c5.522,0,9.999-4.478,9.999-9.999
	C231.007,496.464,226.529,491.987,221.007,491.987z M314.98,79.011V34.156l54.855,54.854H324.98
	C319.466,89.01,314.98,84.524,314.98,79.011z"/>
<path d="M339.979,289.997c0-5.522-4.478-9.999-9.999-9.999H156.323c-5.522,0-9.999,4.478-9.999,9.999
	c0,5.522,4.478,9.999,9.999,9.999h173.656C335.501,299.997,339.979,295.52,339.979,289.997z"/>
<path d="M106.577,279.998H73.995c-5.522,0-9.999,4.478-9.999,9.999c0,5.522,4.478,9.999,9.999,9.999h32.582
	c5.522,0,9.999-4.478,9.999-9.999C116.577,284.476,112.099,279.998,106.577,279.998z"/>
<path d="M265.983,345.994c0-5.522-4.478-9.999-9.999-9.999h-99.661c-5.522,0-9.999,4.478-9.999,9.999
	c0,5.522,4.478,9.999,9.999,9.999h99.661C261.506,355.993,265.983,351.516,265.983,345.994z"/>
<path d="M106.577,335.994H73.995c-5.522,0-9.999,4.478-9.999,9.999c0,5.522,4.478,9.999,9.999,9.999h32.582
	c5.522,0,9.999-4.478,9.999-9.999C116.577,340.472,112.099,335.994,106.577,335.994z"/>
<path d="M149.251,394.921c-1.86,1.86-2.93,4.44-2.93,7.07s1.069,5.21,2.93,7.069c1.86,1.86,4.44,2.931,7.07,2.931
	c2.64,0,5.21-1.07,7.069-2.931c1.87-1.859,2.931-4.439,2.931-7.069s-1.061-5.21-2.931-7.07c-1.859-1.86-4.43-2.93-7.069-2.93
	C153.69,391.991,151.121,393.06,149.251,394.921z"/>
<path d="M106.577,391.991H73.995c-5.522,0-9.999,4.478-9.999,9.999s4.478,9.999,9.999,9.999h32.582c5.522,0,9.999-4.478,9.999-9.999
	S112.099,391.991,106.577,391.991z"/>
<path d="M450.003,387.989c-2.935,0-5.819,0.219-8.645,0.616c6.301-21.134,1.125-44.988-15.531-61.646
	c-11.71-11.709-27.278-18.158-43.838-18.158c-16.561,0-32.129,6.449-43.838,18.158l-79.191,79.19
	c-11.709,11.71-18.158,27.278-18.158,43.838c0,16.561,6.449,32.129,18.158,43.838c12.088,12.087,27.96,18.129,43.838,18.129
	c15.874,0,31.753-6.045,43.838-18.129l41.432-41.432c1.271,33.073,28.558,59.59,61.936,59.59c34.186,0,61.997-27.811,61.997-61.997
	S484.189,387.989,450.003,387.989z M352.291,341.101c7.933-7.934,18.478-12.301,29.696-12.301s21.765,4.368,29.696,12.301
	c16.375,16.374,16.375,43.018,0,59.392l-32.525,32.525l-59.392-59.393L352.291,341.101z M332.493,479.684
	c-16.374,16.376-43.018,16.376-59.392,0c-7.934-7.933-12.301-18.478-12.301-29.696s4.368-21.765,12.301-29.696l32.525-32.525
	l59.392,59.393L332.493,479.684z M408.005,449.986c0-19.712,13.654-36.287,31.999-40.785v81.572
	C421.66,486.273,408.005,469.698,408.005,449.986z M460.002,490.773v-81.572c18.345,4.499,31.999,21.074,31.999,40.785
	S478.347,486.273,460.002,490.773z"/>
<g>
</g>
<g>
</g>
<g>
</g>
<g>
</g>
<g>
</g>
<g>
</g>
<g>
</g>
<g>
</g>
<g>
</g>
<g>
</g>
<g>
</g>
<g>
</g>
<g>
</g>
<g>
</g>
<g>
</g>
</svg>
