<?xml version="1.0" encoding="iso-8859-1"?>
<!-- Generator: Adobe Illustrator 19.0.0, SVG Export Plug-In . SVG Version: 6.00 Build 0)  -->
<svg version="1.1" id="Capa_1" xmlns="http://www.w3.org/2000/svg" xmlns:xlink="http://www.w3.org/1999/xlink" x="0px" y="0px"
	 viewBox="0 0 512 512" style="enable-background:new 0 0 512 512;" xml:space="preserve">
<g>
	<polygon style="fill:#CCC3BB;" points="107.068,70.586 10,104.73 107.068,380.28 	"/>
	<polygon style="fill:#CCC3BB;" points="134.145,457.141 149.945,501.997 256,464.692 234.38,457.087 	"/>
	<polygon style="fill:#CCC3BB;" points="403.409,384.601 502,104.73 403.409,70.05 	"/>
	<polygon style="fill:#CCC3BB;" points="277.686,457.064 256,464.692 362.054,501.997 377.902,457.009 	"/>
</g>
<polygon style="fill:#EFEFEF;" points="403.41,10 403.41,457.047 107.07,457.157 107.07,10 "/>
<circle style="fill:#FAC51C;" cx="256" cy="234.28" r="94.3"/>
<path style="fill:#EF584F;" d="M458.99,363.357c-22.459,0-35.339,17.281-41.08,27.748c-5.745-10.465-18.62-27.748-41.081-27.748
	c-23.876,0-38.693,14.986-38.693,37.992c0.001,23.008,31.688,48.453,47.026,60.724c10.545,8.435,32.202,33.474,32.748,34.017
	c0.548-0.549,22.201-25.582,32.752-34.017c15.332-12.271,47.02-37.717,47.02-60.724C497.682,378.344,482.867,363.357,458.99,363.357
	z"/>
<path d="M511.018,100.408c-1.146-2.393-3.197-4.23-5.699-5.111L413.41,62.968V10c0-5.522-4.477-10-10-10H107.07
	c-5.523,0-10,4.478-10,10v53.502L6.682,95.296c-2.502,0.881-4.553,2.719-5.699,5.111c-1.147,2.393-1.296,5.143-0.414,7.644
	L97.07,381.993v75.164c0,2.653,1.054,5.197,2.93,7.072c1.875,1.875,4.418,2.928,7.07,2.928h0.004l19.994-0.007l13.445,38.169
	c1.448,4.11,5.308,6.681,9.432,6.681c1.101,0,2.221-0.184,3.318-0.569L256,475.293l102.736,36.138
	c1.098,0.386,2.217,0.569,3.318,0.569c4.124,0,7.984-2.57,9.432-6.681l11.292-32.055c4.854,4.52,12.963,12.838,26.461,28.124
	c1.17,1.324,1.32,1.494,1.619,1.792c1.951,1.94,4.501,2.91,7.052,2.91c2.559,0,5.119-0.977,7.071-2.929
	c0.289-0.289,0.435-0.454,1.572-1.742c18.025-20.418,26.456-28.42,30.357-31.539c17.744-14.202,50.771-40.636,50.771-68.532
	c0-28.706-19.567-47.992-48.691-47.992c-19.136,0-32.426,9.883-41.034,20.047l93.476-265.352
	C512.314,105.55,512.164,102.8,511.018,100.408z M97.07,321.801L22.756,110.843l74.314-26.14
	C97.07,84.703,97.07,321.801,97.07,321.801z M156.056,489.247l-7.786-22.105l70.704-0.026L156.056,489.247z M117.07,447.154V20
	h276.34v336.074c-4.957-1.704-10.47-2.716-16.581-2.716c-1.249,0-2.474,0.048-3.688,0.119V339.54c0-5.522-4.477-10-10-10
	s-10,4.478-10,10v18.926c-15.545,7.538-25.006,22.931-25.006,42.884c0,1.568,0.119,3.131,0.319,4.687h-31.81
	c-5.523,0-10,4.478-10,10s4.477,10,10,10h39.275c4.488,7.487,10.486,14.583,16.865,21.029L117.07,447.154z M355.943,489.247
	l-62.994-22.159l70.81-0.026L355.943,489.247z M426.678,395.915c5.645-10.291,15.833-22.557,32.313-22.557
	c18.234,0,28.691,10.203,28.691,27.992c0,18.286-31.435,43.446-43.264,52.914c-5.619,4.492-14.519,13.491-26.508,26.798
	c-11.995-13.311-20.893-22.31-26.5-26.796c-11.834-9.468-43.271-34.619-43.273-52.916c0-17.789,10.458-27.992,28.693-27.992
	c16.473,0,26.665,12.268,32.314,22.56c1.756,3.199,5.117,5.188,8.768,5.187S424.922,399.115,426.678,395.915z M413.41,326.114
	V84.169l75.834,26.674L413.41,326.114z"/>
<path d="M360.303,234.277c0-57.512-46.79-104.302-104.303-104.302s-104.303,46.79-104.303,104.302S198.487,338.579,256,338.579
	S360.303,291.789,360.303,234.277z M256,318.579c-46.485,0-84.303-37.818-84.303-84.302s37.818-84.302,84.303-84.302
	s84.303,37.818,84.303,84.302S302.485,318.579,256,318.579z"/>
<path d="M147.652,140.056c5.523,0,10-4.478,10-10V60.558h56.497c5.523,0,10-4.478,10-10s-4.477-10-10-10h-66.497
	c-5.523,0-10,4.478-10,10v79.498C137.652,135.578,142.129,140.056,147.652,140.056z"/>
<path d="M296.644,60.558h56.498v69.498c0,5.522,4.477,10,10,10s10-4.478,10-10V50.558c0-5.522-4.477-10-10-10h-66.498
	c-5.523,0-10,4.478-10,10S291.121,60.558,296.644,60.558z"/>
<path d="M214.15,406.038h-56.498V339.54c0-5.522-4.477-10-10-10s-10,4.478-10,10v76.498c0,5.522,4.477,10,10,10h66.498
	c5.523,0,10-4.478,10-10S219.673,406.038,214.15,406.038z"/>
<path d="M223.554,212.091c1.502,0,3.029-0.34,4.464-1.058l0.25-0.125c4.94-2.47,6.942-8.477,4.472-13.416
	c-2.47-4.94-8.475-6.941-13.417-4.473l-0.25,0.125c-4.94,2.47-6.942,8.477-4.472,13.416
	C216.355,210.065,219.886,212.091,223.554,212.091z"/>
<path d="M288.211,212.091c1.502,0,3.029-0.34,4.464-1.058l0.25-0.125c4.94-2.47,6.942-8.477,4.472-13.416
	c-2.47-4.94-8.475-6.941-13.417-4.473l-0.25,0.125c-4.94,2.47-6.942,8.477-4.472,13.416
	C281.012,210.065,284.543,212.091,288.211,212.091z"/>
<path d="M289.442,255.79c-33.29,23.924-66.909,0.957-68.347-0.049c-4.496-3.174-10.72-2.12-13.916,2.371
	c-3.202,4.499-2.15,10.743,2.349,13.945c0.475,0.338,11.823,8.322,28.542,12.302c6.328,1.506,12.595,2.254,18.752,2.254
	c15.788,0,30.845-4.919,44.292-14.583c4.485-3.223,5.508-9.472,2.284-13.956C300.175,253.588,293.927,252.566,289.442,255.79z"/>
<g>
</g>
<g>
</g>
<g>
</g>
<g>
</g>
<g>
</g>
<g>
</g>
<g>
</g>
<g>
</g>
<g>
</g>
<g>
</g>
<g>
</g>
<g>
</g>
<g>
</g>
<g>
</g>
<g>
</g>
</svg>
