<?xml version="1.0" encoding="iso-8859-1"?>
<!-- Generator: Adobe Illustrator 19.0.0, SVG Export Plug-In . SVG Version: 6.00 Build 0)  -->
<svg version="1.1" id="Capa_1" xmlns="http://www.w3.org/2000/svg" xmlns:xlink="http://www.w3.org/1999/xlink" x="0px" y="0px"
	 viewBox="0 0 512 512" style="enable-background:new 0 0 512 512;" xml:space="preserve">
<path style="fill:#CCDFED;" d="M195.723,109.775h-55.228c-2.256,0-4.085,1.829-4.085,4.085v43.294c0,2.256,1.829,4.085,4.085,4.085
	h55.228c2.256,0,4.085-1.829,4.085-4.085V113.86C199.808,111.604,197.979,109.775,195.723,109.775z"/>
<path style="fill:#E1EFFB;" d="M314.434,434.739H118.585c-2.503,0-4.532-2.029-4.532-4.532V143.759c0-2.503,2.029-4.532,4.532-4.532
	h195.848c2.503,0,4.532,2.029,4.532,4.532v286.448C318.965,432.71,316.936,434.739,314.434,434.739z"/>
<path id="SVGCleanerId_0" style="fill:#21D8DE;" d="M285.157,320.967h-145.62c-0.697,0-1.262-0.565-1.262-1.262v-22.084
	c0-0.697,0.565-1.262,1.262-1.262h145.62c0.697,0,1.262,0.565,1.262,1.262v22.084C286.418,320.402,285.854,320.967,285.157,320.967z
	"/>
<path id="SVGCleanerId_1" style="fill:#21D8DE;" d="M285.157,261.153h-145.62c-0.697,0-1.262-0.565-1.262-1.262v-22.084
	c0-0.697,0.565-1.262,1.262-1.262h145.62c0.697,0,1.262,0.565,1.262,1.262v22.084C286.418,260.588,285.854,261.153,285.157,261.153z
	"/>
<path id="SVGCleanerId_2" style="fill:#21D8DE;" d="M285.157,201.339h-145.62c-0.697,0-1.262-0.565-1.262-1.262v-22.084
	c0-0.697,0.565-1.262,1.262-1.262h145.62c0.697,0,1.262,0.565,1.262,1.262v22.084C286.418,200.774,285.854,201.339,285.157,201.339z
	"/>
<path style="fill:#CCDFED;" d="M195.723,109.775h-55.228c-2.256,0-4.085,1.829-4.085,4.085v43.294c0,2.256,1.829,4.085,4.085,4.085
	h55.228c2.256,0,4.085-1.829,4.085-4.085V113.86C199.808,111.604,197.979,109.775,195.723,109.775z"/>
<path style="fill:#E1EFFB;" d="M314.434,434.739H118.585c-2.503,0-4.532-2.029-4.532-4.532V143.759c0-2.503,2.029-4.532,4.532-4.532
	h195.848c2.503,0,4.532,2.029,4.532,4.532v286.448C318.965,432.71,316.936,434.739,314.434,434.739z"/>
<g>
	<path id="SVGCleanerId_0_1_" style="fill:#21D8DE;" d="M285.157,320.967h-145.62c-0.697,0-1.262-0.565-1.262-1.262v-22.084
		c0-0.697,0.565-1.262,1.262-1.262h145.62c0.697,0,1.262,0.565,1.262,1.262v22.084C286.418,320.402,285.854,320.967,285.157,320.967
		z"/>
</g>
<g>
	<path id="SVGCleanerId_1_1_" style="fill:#21D8DE;" d="M285.157,261.153h-145.62c-0.697,0-1.262-0.565-1.262-1.262v-22.084
		c0-0.697,0.565-1.262,1.262-1.262h145.62c0.697,0,1.262,0.565,1.262,1.262v22.084C286.418,260.588,285.854,261.153,285.157,261.153
		z"/>
</g>
<g>
	<path id="SVGCleanerId_2_1_" style="fill:#21D8DE;" d="M285.157,201.339h-145.62c-0.697,0-1.262-0.565-1.262-1.262v-22.084
		c0-0.697,0.565-1.262,1.262-1.262h145.62c0.697,0,1.262,0.565,1.262,1.262v22.084C286.418,200.774,285.854,201.339,285.157,201.339
		z"/>
</g>
<path style="fill:#61AFF6;" d="M285.157,380.781h-145.62c-0.697,0-1.262-0.565-1.262-1.262v-22.084c0-0.697,0.565-1.262,1.262-1.262
	h145.62c0.697,0,1.262,0.565,1.262,1.262v22.084C286.418,380.217,285.854,380.781,285.157,380.781z"/>
<rect x="229.46" y="13.914" style="fill:#CCDFED;" width="195.62" height="420.82"/>
<rect x="380.23" y="13.914" style="fill:#B0C8D6;" width="44.85" height="420.82"/>
<path style="fill:#E1EFFB;" d="M433.848,7.315h-215.42c-1.264,0-2.29,1.025-2.29,2.29V28.36c0,1.264,1.025,2.29,2.29,2.29h215.421
	c1.264,0,2.29-1.025,2.29-2.29V9.604C436.138,8.34,435.113,7.315,433.848,7.315z"/>
<g>
	<path style="fill:#61AFF6;" d="M284.471,103.349h-28.755c-1.076,0-1.948-0.872-1.948-1.948V66.896c0-1.076,0.872-1.948,1.948-1.948
		h28.755c1.076,0,1.948,0.872,1.948,1.948v34.505C286.418,102.477,285.546,103.349,284.471,103.349z"/>
	<path style="fill:#61AFF6;" d="M341.644,103.349h-28.755c-1.076,0-1.948-0.872-1.948-1.948V66.896c0-1.076,0.872-1.948,1.948-1.948
		h28.755c1.076,0,1.948,0.872,1.948,1.948v34.505C343.591,102.477,342.719,103.349,341.644,103.349z"/>
	<path style="fill:#61AFF6;" d="M398.816,103.349h-28.755c-1.076,0-1.948-0.872-1.948-1.948V66.896c0-1.076,0.872-1.948,1.948-1.948
		h28.755c1.076,0,1.948,0.872,1.948,1.948v34.505C400.764,102.477,399.892,103.349,398.816,103.349z"/>
	<path style="fill:#61AFF6;" d="M284.471,189.035h-28.755c-1.076,0-1.948-0.872-1.948-1.948v-34.505
		c0-1.076,0.872-1.948,1.948-1.948h28.755c1.076,0,1.948,0.872,1.948,1.948v34.505C286.418,188.163,285.546,189.035,284.471,189.035
		z"/>
	<path style="fill:#61AFF6;" d="M341.644,189.035h-28.755c-1.076,0-1.948-0.872-1.948-1.948v-34.505
		c0-1.076,0.872-1.948,1.948-1.948h28.755c1.076,0,1.948,0.872,1.948,1.948v34.505C343.591,188.163,342.719,189.035,341.644,189.035
		z"/>
	<path style="fill:#61AFF6;" d="M398.816,189.035h-28.755c-1.076,0-1.948-0.872-1.948-1.948v-34.505
		c0-1.076,0.872-1.948,1.948-1.948h28.755c1.076,0,1.948,0.872,1.948,1.948v34.505C400.764,188.163,399.892,189.035,398.816,189.035
		z"/>
	<path style="fill:#61AFF6;" d="M284.471,274.721h-28.755c-1.076,0-1.948-0.872-1.948-1.948v-34.505
		c0-1.076,0.872-1.948,1.948-1.948h28.755c1.076,0,1.948,0.872,1.948,1.948v34.505C286.418,273.849,285.546,274.721,284.471,274.721
		z"/>
	<path style="fill:#61AFF6;" d="M341.644,274.721h-28.755c-1.076,0-1.948-0.872-1.948-1.948v-34.505
		c0-1.076,0.872-1.948,1.948-1.948h28.755c1.076,0,1.948,0.872,1.948,1.948v34.505C343.591,273.849,342.719,274.721,341.644,274.721
		z"/>
	<path style="fill:#61AFF6;" d="M398.816,274.721h-28.755c-1.076,0-1.948-0.872-1.948-1.948v-34.505
		c0-1.076,0.872-1.948,1.948-1.948h28.755c1.076,0,1.948,0.872,1.948,1.948v34.505C400.764,273.849,399.892,274.721,398.816,274.721
		z"/>
	<path style="fill:#61AFF6;" d="M341.644,360.407h-28.755c-1.076,0-1.948-0.872-1.948-1.948v-34.505
		c0-1.076,0.872-1.948,1.948-1.948h28.755c1.076,0,1.948,0.872,1.948,1.948v34.505C343.591,359.535,342.719,360.407,341.644,360.407
		z"/>
	<path style="fill:#61AFF6;" d="M284.471,360.407h-28.755c-1.076,0-1.948-0.872-1.948-1.948v-34.505
		c0-1.076,0.872-1.948,1.948-1.948h28.755c1.076,0,1.948,0.872,1.948,1.948v34.505C286.418,359.535,285.546,360.407,284.471,360.407
		z"/>
	<path style="fill:#61AFF6;" d="M398.816,360.407h-28.755c-1.076,0-1.948-0.872-1.948-1.948v-34.505
		c0-1.076,0.872-1.948,1.948-1.948h28.755c1.076,0,1.948,0.872,1.948,1.948v34.505C400.764,359.535,399.892,360.407,398.816,360.407
		z"/>
</g>
<path style="fill:#FED9A8;" d="M456.569,345.231l-97.632,65.34l-29.097-1.633l-1.139-11.453
	c-1.695-17.048-14.822-30.73-31.785-33.131l-77.96-8.976c-17.984-2.545-35.299-8.571-50.977-17.742l0,0
	c-21.404-12.521-45.755-19.12-70.552-19.12H41.218v128.302l148.555,56.255c5.614,1.585,11.511,2.06,17.273,1.149
	c0.035-0.005,0.069-0.011,0.104-0.016l149.559-21.558c11.522-1.84,22.353-6.692,31.395-14.067l96.662-86.937
	c8.675-7.703,10.283-20.649,3.757-30.241l0,0C481.381,340.908,467.105,338.151,456.569,345.231z"/>
<path style="fill:#F4C892;" d="M489.797,353.535l-95.543,80.425c-9.042,7.374-24.073,12.227-35.595,14.067l-151.51,10.83
	c-0.035,0.005-0.069,0.011-0.104,0.016c-5.762,0.91-11.659,0.436-17.273-1.149L41.218,401.469v45.35l148.555,56.255
	c2.807,0.792,5.685,1.307,8.581,1.51c0.724,0.051,1.449,0.082,2.175,0.093c2.177,0.034,4.356-0.113,6.517-0.455
	c0.035-0.005,0.069-0.011,0.104-0.016l149.559-21.558c3.601-0.575,7.134-1.444,10.566-2.592c0.686-0.23,1.369-0.47,2.047-0.722
	c3.39-1.259,6.673-2.795,9.815-4.592c0.628-0.359,1.251-0.729,1.868-1.109c2.467-1.521,4.839-3.207,7.1-5.05l96.662-86.937
	C492.814,374.497,494.767,362.842,489.797,353.535z"/>
<path style="fill:#2D5871;" d="M60.162,490.398H37.923c-10.174,0-18.422-8.248-18.422-18.422V307.4
	c0-10.174,8.248-18.422,18.422-18.422h22.239c10.174,0,18.422,8.248,18.422,18.422v164.577
	C78.585,482.15,70.337,490.398,60.162,490.398z"/>
<path style="fill:#CCDFED;" d="M433.848,7.315h-42.56v23.334h42.56c1.264,0,2.29-1.025,2.29-2.29V9.604
	C436.138,8.34,435.113,7.315,433.848,7.315z"/>
<path style="fill:#1D4859;" d="M60.162,288.977h-11.12v201.421h11.12c10.174,0,18.422-8.248,18.422-18.422V307.4
	C78.585,297.225,70.337,288.977,60.162,288.977z"/>
<path d="M255.716,110.663h28.755c5.107,0,9.263-4.155,9.263-9.263V66.896c0-5.107-4.155-9.263-9.263-9.263h-28.755
	c-5.107,0-9.262,4.155-9.262,9.263v34.505C246.453,106.508,250.608,110.663,255.716,110.663z M261.082,72.262h18.022v23.772h-18.022
	V72.262z"/>
<path d="M312.889,110.663h28.755c5.107,0,9.262-4.155,9.262-9.263V66.896c0-5.107-4.155-9.263-9.262-9.263h-28.755
	c-5.107,0-9.262,4.155-9.262,9.263v34.505C303.627,106.508,307.781,110.663,312.889,110.663z M318.255,72.262h18.021v23.772h-18.021
	V72.262z"/>
<path d="M370.061,110.663h28.755c5.107,0,9.263-4.155,9.263-9.263V66.896c0-5.107-4.155-9.263-9.263-9.263h-28.755
	c-5.107,0-9.262,4.155-9.262,9.263v34.505C360.799,106.508,364.954,110.663,370.061,110.663z M375.428,72.262h18.022v23.772h-18.022
	V72.262z"/>
<path d="M255.716,196.349h28.755c5.107,0,9.263-4.155,9.263-9.263v-34.505c0-5.107-4.155-9.263-9.263-9.263h-28.755
	c-5.107,0-9.262,4.155-9.262,9.263v34.505C246.453,192.194,250.608,196.349,255.716,196.349z M261.082,157.949h18.022v23.772
	h-18.022V157.949z"/>
<path d="M312.889,196.349h28.755c5.107,0,9.262-4.155,9.262-9.263v-34.505c0-5.107-4.155-9.263-9.262-9.263h-28.755
	c-5.107,0-9.262,4.155-9.262,9.263v34.505C303.627,192.194,307.781,196.349,312.889,196.349z M318.255,157.949h18.021v23.772
	h-18.021V157.949z"/>
<path d="M370.061,196.349h28.755c5.107,0,9.263-4.155,9.263-9.263v-34.505c0-5.107-4.155-9.263-9.263-9.263h-28.755
	c-5.107,0-9.262,4.155-9.262,9.263v34.505C360.799,192.194,364.954,196.349,370.061,196.349z M375.428,157.949h18.022v23.772
	h-18.022V157.949z"/>
<path d="M255.716,282.036h28.755c5.107,0,9.263-4.155,9.263-9.263v-34.505c0-5.107-4.155-9.263-9.263-9.263h-28.755
	c-5.107,0-9.262,4.155-9.262,9.263v34.505C246.453,277.88,250.608,282.036,255.716,282.036z M261.082,243.635h18.022v23.772h-18.022
	V243.635z"/>
<path d="M312.889,282.036h28.755c5.107,0,9.262-4.155,9.262-9.263v-34.505c0-5.107-4.155-9.263-9.262-9.263h-28.755
	c-5.107,0-9.262,4.155-9.262,9.263v34.505C303.627,277.88,307.781,282.036,312.889,282.036z M318.255,243.635h18.021v23.772h-18.021
	V243.635z"/>
<path d="M370.061,282.036h28.755c5.107,0,9.263-4.155,9.263-9.263v-34.505c0-5.107-4.155-9.263-9.263-9.263h-28.755
	c-5.107,0-9.262,4.155-9.262,9.263v34.505C360.799,277.88,364.954,282.036,370.061,282.036z M375.428,243.635h18.022v23.772h-18.022
	V243.635z"/>
<path d="M370.061,367.722h28.755c5.107,0,9.263-4.155,9.263-9.263v-34.505c0-5.107-4.155-9.262-9.263-9.262h-28.755
	c-5.107,0-9.262,4.155-9.262,9.262v34.505C360.799,363.566,364.954,367.722,370.061,367.722z M375.428,329.321h18.022v23.771
	h-18.022V329.321z"/>
<path d="M494.57,347.288c-9.373-13.776-28.25-17.423-42.069-8.136l-20.111,13.459V37.963h1.458c5.296,0,9.604-4.308,9.604-9.604
	V9.604c0-5.296-4.308-9.604-9.604-9.604H387.14c-4.04,0-7.314,3.275-7.314,7.314s3.275,7.314,7.314,7.314h41.683v8.705h-3.748
	H229.456h-6.004v-8.705h117.884c4.04,0,7.314-3.275,7.314-7.314S345.376,0,341.336,0H218.428c-5.296,0-9.604,4.308-9.604,9.604
	v18.755c0,5.296,4.308,9.604,9.604,9.604h3.714v93.951h-15.019V113.86c0-6.286-5.114-11.4-11.399-11.4h-55.228
	c-6.286,0-11.4,5.114-11.4,11.4v18.053h-10.51c-6.532,0-11.846,5.314-11.846,11.846v167.745c-3.096-0.197-6.201-0.303-9.313-0.303
	H85.899v-3.802c0-14.191-11.545-25.736-25.737-25.736H37.923c-14.191,0-25.737,11.545-25.737,25.736v104.45
	c0,4.04,3.275,7.314,7.314,7.314s7.314-3.275,7.314-7.314v-104.45c0-6.124,4.983-11.107,11.108-11.107h22.239
	c6.125,0,11.108,4.983,11.108,11.107v11.117v142.452v11.008c0,6.124-4.983,11.107-11.108,11.107H37.923
	c-6.125,0-11.108-4.983-11.108-11.107v-14.351c0-4.04-3.275-7.314-7.314-7.314s-7.314,3.275-7.314,7.314v14.351
	c0,14.191,11.545,25.736,25.737,25.736h22.239c14.191,0,25.737-11.546,25.737-25.736v-0.417l101.283,38.354
	c0.198,0.075,0.399,0.141,0.603,0.199c4.45,1.257,8.898,1.888,13.306,1.888c2.396,0,4.78-0.187,7.146-0.56
	c0.002,0,0.007-0.001,0.014-0.002l149.501-21.55c0.037-0.005,0.073-0.011,0.11-0.017c12.78-2.041,24.835-7.442,34.864-15.621
	c0.091-0.074,0.181-0.151,0.268-0.23l96.628-86.907C501.01,377,503.137,359.88,494.57,347.288z M236.771,320.967V296.36v-35.207
	v-24.608v-35.206v-24.608v-37.503V37.963h180.991v324.439l-60.858,40.729l-20.404-1.145l-0.52-5.224
	c-0.381-3.837-1.241-7.528-2.521-11.011c-0.427-1.161-0.9-2.299-1.417-3.412c-0.777-1.669-1.653-3.281-2.622-4.829
	c-2.291-3.657-5.101-6.952-8.331-9.788h20.556c5.107,0,9.262-4.155,9.262-9.263v-34.505c0-5.107-4.155-9.262-9.262-9.262H312.89
	c-5.107,0-9.262,4.155-9.262,9.262v34.341c-1.848-0.51-3.745-0.909-5.686-1.184c-0.062-0.009-0.125-0.017-0.188-0.024l-4.02-0.463
	v-32.671c0-5.107-4.155-9.263-9.263-9.263h-28.755c-5.107,0-9.262,4.155-9.262,9.263v27.228l-9.683-1.115L236.771,320.967
	L236.771,320.967z M318.255,353.093v-23.771h18.021v23.771H318.255z M279.104,329.321v23.772h-16.057l-1.965-0.226v-23.546H279.104z
	 M143.725,117.089h48.769v14.824h-48.769V117.089z M121.368,146.542h15.042h63.398h22.334v22.874h-82.606
	c-4.729,0-8.576,3.847-8.576,8.576v22.085c0,4.729,3.847,8.576,8.576,8.576h82.606v20.578h-82.606c-4.729,0-8.576,3.847-8.576,8.576
	v22.084c0,4.729,3.847,8.576,8.576,8.576h82.606v20.578h-82.606c-4.729,0-8.576,3.847-8.576,8.576v17.463
	c-1.242-0.289-2.489-0.559-3.741-0.817c-0.59-0.122-1.18-0.238-1.772-0.353c-0.692-0.134-1.387-0.26-2.082-0.384
	c-0.666-0.12-1.33-0.248-1.998-0.358v-166.63H121.368z M222.142,184.045v9.979h-76.553v-9.979H222.142z M222.142,243.859v9.979
	h-76.553v-9.979H222.142z M145.589,313.653v-9.979h76.553v9.979H145.589z M222.142,328.282v20.101l-2.253-0.26
	c-4.726-0.672-9.382-1.599-13.965-2.76c-8.885-2.251-17.487-5.407-25.732-9.46c-1.096-0.539-2.183-1.097-3.266-1.668
	c-1.768-0.931-3.52-1.898-5.253-2.912c-1.276-0.747-2.564-1.465-3.857-2.171c-0.28-0.153-0.56-0.304-0.841-0.454
	c-0.257-0.138-0.513-0.28-0.77-0.416L222.142,328.282L222.142,328.282z M479.875,376.205l-96.527,86.815
	c-7.993,6.48-17.579,10.764-27.74,12.396l-149.502,21.55c-0.033,0.005-0.169,0.026-0.201,0.031
	c-4.473,0.707-9.132,0.41-13.852-0.882L85.899,455.916V325.831h11.527c5.304,0,10.587,0.337,15.826,0.969
	c1.064,0.128,2.124,0.269,3.182,0.422c0.154,0.022,0.307,0.046,0.46,0.069c2.673,0.396,5.322,0.877,7.949,1.429
	c0.817,0.173,1.635,0.347,2.449,0.535c0.407,0.094,0.812,0.193,1.218,0.29c1.061,0.256,2.12,0.522,3.175,0.805
	c0.19,0.051,0.381,0.1,0.571,0.152c8.264,2.253,16.31,5.308,24.014,9.129c0.23,0.114,0.459,0.23,0.688,0.346
	c0.98,0.493,1.953,1.001,2.921,1.518c0.295,0.158,0.591,0.313,0.885,0.473c1.165,0.635,2.324,1.283,3.471,1.954
	c0.017,0.01,0.034,0.019,0.051,0.029l0,0c3.109,1.818,6.269,3.517,9.478,5.094c13.904,6.834,28.716,11.391,44.167,13.577
	c0.063,0.009,0.125,0.017,0.188,0.024l10.501,1.209l8.552,0.985l19.723,2.271l4.894,0.564c0,0,0.002,0,0.003,0l34.186,3.936
	c13.624,1.968,24.081,12.894,25.444,26.6l0.254,2.549l-137.101-13.362c-4.033-0.393-7.598,2.55-7.99,6.571
	c-0.391,4.021,2.55,7.598,6.571,7.99l145.342,14.166c0.305,0.057,0.615,0.102,0.932,0.119l29.097,1.633
	c0.137,0.008,0.274,0.011,0.41,0.011c0.145,0,0.287-0.023,0.432-0.032c0.166-0.01,0.331-0.016,0.495-0.037
	c0.21-0.027,0.416-0.073,0.623-0.118c0.162-0.035,0.325-0.063,0.483-0.109c0.22-0.064,0.433-0.15,0.646-0.235
	c0.135-0.053,0.273-0.095,0.404-0.156c0.34-0.158,0.67-0.34,0.985-0.55l66.139-44.263l0.001-0.001l31.504-21.084
	c7.173-4.82,16.965-2.929,21.826,4.216C486.919,362.049,485.816,370.929,479.875,376.205z"/>
<g>
</g>
<g>
</g>
<g>
</g>
<g>
</g>
<g>
</g>
<g>
</g>
<g>
</g>
<g>
</g>
<g>
</g>
<g>
</g>
<g>
</g>
<g>
</g>
<g>
</g>
<g>
</g>
<g>
</g>
</svg>
