<?xml version="1.0" encoding="iso-8859-1"?>
<!-- Generator: Adobe Illustrator 19.0.0, SVG Export Plug-In . SVG Version: 6.00 Build 0)  -->
<svg version="1.1" id="Capa_1" xmlns="http://www.w3.org/2000/svg" xmlns:xlink="http://www.w3.org/1999/xlink" x="0px" y="0px"
	 viewBox="0 0 512 512" style="enable-background:new 0 0 512 512;" xml:space="preserve">
<rect x="9.119" y="474.217" style="fill:#B0BEC5;" width="493.755" height="30.23"/>
<polygon style="fill:#F8BBD0;" points="427.303,39.91 84.697,39.91 14.161,180.982 497.839,180.982 "/>
<g>
	<rect x="39.349" y="180.986" style="fill:#80D8FF;" width="433.295" height="293.23"/>
	<polygon style="fill:#80D8FF;" points="225.77,61.07 175.387,10.687 125.004,61.07 125.004,141.684 225.77,141.684 	"/>
	<polygon style="fill:#80D8FF;" points="386.996,61.07 336.613,10.687 286.23,61.07 286.23,141.684 386.996,141.684 	"/>
</g>
<rect x="205.614" y="382.519" style="fill:#CE93D8;" width="100.766" height="91.697"/>
<g>
	<path style="fill:#FDD844;" d="M155.234,111.454V73.593l0,0c11.131-11.131,29.176-11.131,40.307,0l0,0v37.862L155.234,111.454
		L155.234,111.454z"/>
	<path style="fill:#FDD844;" d="M316.46,111.454V73.593l0,0c11.131-11.131,29.176-11.131,40.307,0l0,0v37.862L316.46,111.454
		L316.46,111.454z"/>
	<rect x="84.694" y="218.27" style="fill:#FDD844;" width="50.383" height="50.383"/>
	<rect x="165.307" y="218.27" style="fill:#FDD844;" width="50.383" height="50.383"/>
	<rect x="165.307" y="298.883" style="fill:#FDD844;" width="50.383" height="50.383"/>
	<rect x="84.694" y="298.883" style="fill:#FDD844;" width="50.383" height="50.383"/>
	<rect x="296.303" y="218.27" style="fill:#FDD844;" width="50.383" height="50.383"/>
	<rect x="376.917" y="218.27" style="fill:#FDD844;" width="50.383" height="50.383"/>
	<rect x="376.917" y="298.883" style="fill:#FDD844;" width="50.383" height="50.383"/>
	<rect x="296.303" y="298.883" style="fill:#FDD844;" width="50.383" height="50.383"/>
</g>
<path d="M480.205,466.655V188.54h29.862L431.973,32.352h-30.507v15.115h21.166l62.979,125.958H26.389L89.368,47.467h21.166V32.352
	H80.027L1.933,188.54h29.862v278.115H1.565V512h508.87v-45.345H480.205z M46.91,188.54h418.18v278.115h-151.15v-91.697H198.059
	v91.697H46.91C46.91,466.655,46.91,188.54,46.91,188.54z M213.174,466.655v-76.582h35.268v76.582H213.174z M263.557,390.073h35.268
	v76.582h-35.268V390.073z M495.32,496.885H16.68V481.77h478.64V496.885z"/>
<rect x="240.237" y="32.356" width="31.52" height="15.115"/>
<path d="M233.328,57.941L175.387,0l-57.941,57.941v91.3h115.881V57.941z M218.213,134.126h-85.651V64.201l42.826-42.826
	l42.826,42.826V134.126z"/>
<path d="M149.89,68.248l-2.214,2.214v48.549h55.421V70.462l-2.214-2.214c-6.811-6.811-15.866-10.561-25.497-10.561
	C165.756,57.687,156.701,61.438,149.89,68.248z M187.983,103.896h-25.192V77.011c7.427-5.599,17.764-5.599,25.192,0V103.896z"/>
<path d="M394.554,57.941L336.613,0l-57.941,57.941v91.3h115.881V57.941z M379.439,134.126h-85.651V64.201l42.826-42.826
	l42.826,42.826V134.126z"/>
<path d="M311.116,68.248l-2.214,2.214v48.549h55.422V70.462l-2.214-2.214c-6.811-6.811-15.866-10.561-25.497-10.561
	C326.982,57.687,317.927,61.438,311.116,68.248z M349.209,103.896h-25.192V77.011c7.427-5.599,17.764-5.599,25.192,0V103.896z"/>
<path d="M77.14,276.207h65.498v-65.498H77.14C77.14,210.709,77.14,276.207,77.14,276.207z M92.255,225.823h35.268v35.268H92.255
	V225.823z"/>
<path d="M223.251,210.709h-65.498v65.498h65.498V210.709z M208.136,261.092h-35.268v-35.268h35.268V261.092z"/>
<path d="M223.251,291.322h-65.498v65.498h65.498V291.322z M208.136,341.705h-35.268v-35.268h35.268V341.705z"/>
<path d="M77.14,356.82h65.498v-65.498H77.14C77.14,291.322,77.14,356.82,77.14,356.82z M92.255,306.437h35.268v35.268H92.255
	V306.437z"/>
<path d="M354.247,210.709h-65.498v65.498h65.498V210.709z M339.132,261.092h-35.268v-35.268h35.268V261.092z"/>
<path d="M434.86,210.709h-65.498v65.498h65.498V210.709z M419.745,261.092h-35.268v-35.268h35.268V261.092z"/>
<path d="M434.86,291.322h-65.498v65.498h65.498V291.322z M419.745,341.705h-35.268v-35.268h35.268V341.705z"/>
<path d="M354.247,291.322h-65.498v65.498h65.498V291.322z M339.132,341.705h-35.268v-35.268h35.268V341.705z"/>
<g>
	<path style="fill:#FFFFFF;" d="M182.944,450.532h-15.115v-15.115h15.115V450.532z M152.714,450.532h-60.46v-15.115h60.46V450.532z
		 M77.14,450.532H62.025v-15.115H77.14V450.532z"/>
	<path style="fill:#FFFFFF;" d="M449.975,450.532H434.86v-15.115h15.115V450.532z M419.745,450.532h-60.46v-15.115h60.46V450.532z
		 M344.171,450.532h-15.115v-15.115h15.115V450.532z"/>
	<path style="fill:#FFFFFF;" d="M442.167,154.132l-6.759-13.52l13.52-6.759l6.759,13.52L442.167,154.132z M428.648,127.094
		l-20.742-41.482l13.519-6.759l20.741,41.482L428.648,127.094z"/>
	<path style="fill:#FFFFFF;" d="M66.81,160.178l-13.519-6.759l6.759-13.52l13.52,6.759L66.81,160.178z M80.33,133.14l-13.519-6.759
		L81.506,96.99l13.519,6.759L80.33,133.14z"/>
	<path style="fill:#FFFFFF;" d="M273.634,288.802h-15.115v-15.115h15.115V288.802z M273.634,258.573h-15.115v-40.307h15.115V258.573
		z"/>
	<path style="fill:#FFFFFF;" d="M445.441,387.05h-40.307v-15.115h40.307V387.05z M390.019,387.05h-15.115v-15.115h15.115V387.05z"/>
	<path style="fill:#FFFFFF;" d="M173.372,387.05h-40.307v-15.115h40.307V387.05z M117.95,387.05h-15.115v-15.115h15.115V387.05z"/>
</g>
<g>
</g>
<g>
</g>
<g>
</g>
<g>
</g>
<g>
</g>
<g>
</g>
<g>
</g>
<g>
</g>
<g>
</g>
<g>
</g>
<g>
</g>
<g>
</g>
<g>
</g>
<g>
</g>
<g>
</g>
</svg>
