<svg id="_x31__x2C_5" enable-background="new 0 0 24 24" height="512" viewBox="0 0 24 24" width="512" xmlns="http://www.w3.org/2000/svg"><path d="m9.25 5.25h-6.5v-1.5c0-.552.448-1 1-1h4.5c.552 0 1 .448 1 1z" fill="#90a4ae"/><path d="m10.25 5.25h-8.5c-.55 0-1 .45-1 1v17h10.5v-17c0-.55-.45-1-1-1z" fill="#607d8b"/><path d="m8 23.25h-4v-4c0-.414.336-.75.75-.75h2.5c.414 0 .75.336.75.75z" fill="#f5f5f5"/><path d="m15 19.25c-.689 0-1.25-.561-1.25-1.25s.561-1.25 1.25-1.25 1.25.561 1.25 1.25-.561 1.25-1.25 1.25z" fill="#8bc34a"/><circle cx="17.5" cy="7.5" fill="#2196f3" r="5.75"/><path d="m9.25 6h-6.5c-.414 0-.75-.336-.75-.75v-1.5c0-.965.785-1.75 1.75-1.75h4.5c.965 0 1.75.785 1.75 1.75v1.5c0 .414-.336.75-.75.75zm-5.75-1.5h5v-.75c0-.138-.112-.25-.25-.25h-4.5c-.138 0-.25.112-.25.25z"/><path d="m6 3.5c-.414 0-.75-.336-.75-.75v-2c0-.414.336-.75.75-.75s.75.336.75.75v2c0 .414-.336.75-.75.75z"/><path d="m15 24c-.414 0-.75-.336-.75-.75v-3.745c0-.414.336-.75.75-.75s.75.336.75.75v3.745c0 .414-.336.75-.75.75z"/><path d="m15 20c-1.103 0-2-.897-2-2s.897-2 2-2 2 .897 2 2-.897 2-2 2zm0-2.5c-.276 0-.5.224-.5.5s.224.5.5.5.5-.224.5-.5-.224-.5-.5-.5z"/><path d="m7.75 24h-3.5c-.414 0-.75-.336-.75-.75v-4.5c0-.414.336-.75.75-.75h3.5c.414 0 .75.336.75.75v4.5c0 .414-.336.75-.75.75zm-2.75-1.5h2v-3h-2z"/><path d="m7.25 15h-2.5c-.414 0-.75-.336-.75-.75s.336-.75.75-.75h2.5c.414 0 .75.336.75.75s-.336.75-.75.75z"/><path d="m7.25 9h-2.5c-.414 0-.75-.336-.75-.75s.336-.75.75-.75h2.5c.414 0 .75.336.75.75s-.336.75-.75.75z"/><path d="m7.25 12h-2.5c-.414 0-.75-.336-.75-.75s.336-.75.75-.75h2.5c.414 0 .75.336.75.75s-.336.75-.75.75z"/><path d="m18.25 24h-8.5c-.414 0-.75-.336-.75-.75s.336-.75.75-.75h8.5c.414 0 .75.336.75.75s-.336.75-.75.75z"/><path d="m11.25 24h-10.5c-.414 0-.75-.336-.75-.75v-17c0-.965.785-1.75 1.75-1.75h7.5c.414 0 .75.336.75.75s-.336.75-.75.75h-7.5c-.136 0-.25.114-.25.25v16.25h9v-8.53c0-.414.336-.75.75-.75s.75.336.75.75v9.28c0 .414-.336.75-.75.75z"/><path d="m17.5 14c-3.584 0-6.5-2.916-6.5-6.5s2.916-6.5 6.5-6.5 6.5 2.916 6.5 6.5-2.916 6.5-6.5 6.5zm0-11.5c-2.757 0-5 2.243-5 5s2.243 5 5 5 5-2.243 5-5-2.243-5-5-5z"/><path d="m19.25 10c-.151 0-.303-.045-.436-.14l-1.75-1.25c-.197-.14-.314-.368-.314-.61v-3.25c0-.414.336-.75.75-.75s.75.336.75.75v2.864l1.436 1.025c.337.241.415.709.174 1.046-.146.206-.377.315-.61.315z"/></svg>