<svg height="512" viewBox="0 0 64 64" width="512" xmlns="http://www.w3.org/2000/svg"><g id="cloud"><path d="m58 14a3 3 0 0 1 0 6h-23l3-6-2.76-.46a5.171 5.171 0 0 1 -.24-1.54 4.991 4.991 0 0 1 9.06-2.9 7 7 0 1 1 12.68 4.9z" fill="#00d7df"/><path d="m61 17a3 3 0 0 1 -3 3h-2a3 3 0 0 0 0-6h-1.26a6.986 6.986 0 0 0 -4.75-10.92 5.657 5.657 0 0 1 1.01-.08 7 7 0 0 1 5.74 11h1.26a3 3 0 0 1 3 3z" fill="#00b6bd"/><path d="m58 35a3 3 0 0 1 0 6h-17v-6a2.006 2.006 0 0 0 -2-2h-4a4.991 4.991 0 0 1 9.06-2.9 7 7 0 1 1 12.68 4.9z" fill="#00d7df"/><path d="m42.88 58-.46 1.56a2 2 0 0 1 -1.92 1.44h-35a2 2 0 0 1 -1.92-1.44l-.46-1.56h16.88v1h6v-1z" fill="#ff7956"/><path d="m42.88 58-.46 1.56a2 2 0 0 1 -1.92 1.44h-2a2 2 0 0 0 1.92-1.44l.46-1.56z" fill="#ff6243"/><rect fill="#57a4ff" height="22" rx="2" width="36" x="5" y="33"/><path d="m41 35v18a2.006 2.006 0 0 1 -2 2h-2a2.006 2.006 0 0 0 2-2v-18a2.006 2.006 0 0 0 -2-2h2a2.006 2.006 0 0 1 2 2z" fill="#2488ff"/><rect fill="#ffdaaa" height="22" rx="2" width="18" x="14" y="29"/><path d="m32 31v18a2.006 2.006 0 0 1 -2 2h-2a2.006 2.006 0 0 0 2-2v-18a2.006 2.006 0 0 0 -2-2h2a2.006 2.006 0 0 1 2 2z" fill="#ffc477"/><path d="m38 14-3 6-3 6-2-3a6.839 6.839 0 0 0 -3 4 6.4 6.4 0 0 0 -.22 2c.08 3.19 2.01 6.43 2.22 7h-10a14.742 14.742 0 0 1 -1.14-7 14.139 14.139 0 0 1 2.14-6c.21-.34.43-.67.66-1a17.656 17.656 0 0 1 7.1-5.89l-1.76-4.11 2.76.46 6.48 1.08z" fill="#ffeb99"/><path d="m28.76 12.46-2.76-.46 1.76 4.11a17.656 17.656 0 0 0 -7.1 5.89h-14.66a3 3 0 0 1 0-6h1.26a7 7 0 1 1 12.68-4.9 4.992 4.992 0 0 1 8.82 1.36z" fill="#00d7df"/><path d="m61 38a3 3 0 0 1 -3 3h-2a3 3 0 0 0 0-6h-1.26a6.986 6.986 0 0 0 -4.75-10.92 5.657 5.657 0 0 1 1.01-.08 7 7 0 0 1 5.74 11h1.26a3 3 0 0 1 3 3z" fill="#00b6bd"/><path d="m42.875 57h-16.875a1 1 0 0 0 -1 1h-4a1 1 0 0 0 -1-1h-16.875a1 1 0 0 0 -.96 1.28l.455 1.56a3.016 3.016 0 0 0 2.88 2.16h35a3.016 3.016 0 0 0 2.88-2.16l.455-1.56a1 1 0 0 0 -.96-1.28zm-37.375 3a1.006 1.006 0 0 1 -.96-.721l-.082-.279h14.542a1 1 0 0 0 1 1zm35.96-.721a1.006 1.006 0 0 1 -.96.721h-14.5a1 1 0 0 0 1-1h14.542z"/><path d="m17 42h2v2h-2z"/><path d="m21 42h8v2h-8z"/><path d="m17 46h4v2h-4z"/><path d="m23 46h6v2h-6z"/><path d="m17 38h4v2h-4z"/><path d="m23 38h6v2h-6z"/><path d="m58.408 34.021a8 8 0 1 0 -14.884-5.87 5.987 5.987 0 0 0 -9.434 3.849h-1.09v-1a3 3 0 0 0 -3-3h-2.178a5.059 5.059 0 0 1 .14-.728 6.1 6.1 0 0 1 1.782-2.853l1.424 2.136a1.02 1.02 0 0 0 .894.443 1 1 0 0 0 .833-.551l2.723-5.447h22.382a4 4 0 0 0 .408-7.979 8 8 0 1 0 -14.884-5.87 5.993 5.993 0 0 0 -9.524 4.849c0 .108.019.216.025.324l-4.557-.76a5.974 5.974 0 0 0 -8.992-2.413 8 8 0 1 0 -14.884 5.87 4 4 0 0 0 .408 7.979h12.852a15.471 15.471 0 0 0 -1.864 5h-.988a3 3 0 0 0 -3 3v1h-6a3 3 0 0 0 -3 3v18a3 3 0 0 0 3 3h32a3 3 0 0 0 3-3v-11h16a4 4 0 0 0 .408-7.979zm-22.408-22.021a3.991 3.991 0 0 1 7.244-2.322 1 1 0 0 0 1.808-.451 6 6 0 1 1 10.868 4.2 1 1 0 0 0 .82 1.573h1.26a2 2 0 0 1 0 4h-21.382l2.282-4.553a1 1 0 0 0 -.73-1.433l-2.106-.351a4.033 4.033 0 0 1 -.064-.663zm-32 7a2 2 0 0 1 2-2h1.26a1 1 0 0 0 .82-1.573 6 6 0 1 1 10.868-4.2 1 1 0 0 0 1.808.451 3.985 3.985 0 0 1 6.013-.564l-.6-.1a1 1 0 0 0 -1.084 1.38l1.381 3.224a18.971 18.971 0 0 0 -6.295 5.382h-14.171a2 2 0 0 1 -2-2zm16.852 4.523a16.762 16.762 0 0 1 7.3-6.493 1 1 0 0 0 .526-1.312l-1.038-2.431 8.86 1.477-4.624 9.248-1.044-1.567a1 1 0 0 0 -1.32-.318 7.79 7.79 0 0 0 -3.474 4.6c-.838 2.973.486 6.373 1.375 8.273h-7.713a12.45 12.45 0 0 1 1.152-11.477zm-5.852 7.477a1 1 0 0 1 1-1h.791a15.685 15.685 0 0 0 1.154 6.027l.114.31a1 1 0 0 0 .941.663h10a1 1 0 0 0 .941-1.338c-.044-.124-.155-.357-.314-.678a17.864 17.864 0 0 1 -1.762-4.984h2.135a1 1 0 0 1 1 1v18a1 1 0 0 1 -1 1h-14a1 1 0 0 1 -1-1zm25 22a1 1 0 0 1 -1 1h-32a1 1 0 0 1 -1-1v-18a1 1 0 0 1 1-1h6v15a3 3 0 0 0 3 3h14a3 3 0 0 0 3-3v-15h6a1 1 0 0 1 1 1zm18-13h-16v-5a3 3 0 0 0 -3-3h-2.858a3.978 3.978 0 0 1 7.1-1.322 1 1 0 0 0 1.808-.451 6 6 0 1 1 10.868 4.2 1 1 0 0 0 .822 1.573h1.26a2 2 0 0 1 0 4z"/></g></svg>