<?xml version="1.0" encoding="iso-8859-1"?>
<!-- Generator: Adobe Illustrator 19.0.0, SVG Export Plug-In . SVG Version: 6.00 Build 0)  -->
<svg version="1.1" id="Capa_1" xmlns="http://www.w3.org/2000/svg" xmlns:xlink="http://www.w3.org/1999/xlink" x="0px" y="0px"
	 viewBox="0 0 476.685 476.685" style="enable-background:new 0 0 476.685 476.685;" xml:space="preserve">
<path style="fill:#CC4C4C;" d="M148,152.685l-20,20h72v-72l-20,20c-43.129-43.12-103.055-65.067-163.832-60H16v72l20.264-9.208
	C75.727,105.533,122.366,117.724,148,152.685z"/>
<g>
	<path style="fill:#DBDCE0;" d="M360,204.685H104c-4.418,0-8,3.582-8,8v24c0,4.418,3.582,8,8,8h8c4.418,0,8,3.582,8,8v208
		c0,4.418,3.582,8,8,8h208c4.418,0,8-3.582,8-8v-208c0-4.418,3.582-8,8-8h8c4.418,0,8-3.582,8-8v-24
		C368,208.266,364.418,204.685,360,204.685z"/>
	<path style="fill:#DBDCE0;" d="M458.344,167.029L432,140.685l18.344-18.344c3.123-3.124,3.123-8.188,0-11.312l-92.688-92.688
		c-3.124-3.123-8.188-3.123-11.312,0L328,36.685l-26.344-26.344c-3.124-3.123-8.188-3.123-11.312,0l-20.688,20.688
		c-3.123,3.124-3.123,8.188,0,11.312l156.688,156.688c3.124,3.123,8.188,3.123,11.312,0l20.688-20.688
		C461.467,175.217,461.467,170.153,458.344,167.029z"/>
</g>
<g>
	<path style="fill:#989AA0;" d="M232,444.685c8.837,0,16-7.163,16-16v-144c0-8.837-7.163-16-16-16c-8.837,0-16,7.163-16,16v144
		C216,437.521,223.163,444.685,232,444.685z"/>
	<path style="fill:#989AA0;" d="M168,444.685c8.837,0,16-7.163,16-16v-144c0-8.837-7.163-16-16-16s-16,7.163-16,16v144
		C152,437.521,159.163,444.685,168,444.685z"/>
	<path style="fill:#989AA0;" d="M296,444.685c8.837,0,16-7.163,16-16v-144c0-8.837-7.163-16-16-16s-16,7.163-16,16v144
		C280,437.521,287.163,444.685,296,444.685z"/>
</g>
<polygon style="fill:#FFFFFF;" points="296,156.685 232,132.685 232,204.685 352,204.685 352,156.685 "/>
<path d="M104,196.685c-8.837,0-16,7.163-16,16v24c0,8.837,7.163,16,16,16h8v208c0,8.837,7.163,16,16,16h208c8.837,0,16-7.163,16-16
	v-208h8c8.837,0,16-7.163,16-16v-24c0-8.837-7.163-16-16-16v-40c0-4.418-3.582-8-8-8h-54.544l-62.64-23.496
	c-4.136-1.555-8.749,0.537-10.304,4.672c-0.34,0.903-0.513,1.859-0.512,2.824v64H104z M360,236.685h-8c-8.837,0-16,7.163-16,16v208
	H128v-208c0-8.837-7.163-16-16-16h-8v-24h256V236.685z M344,196.685h-72v-32h72V196.685z M240,144.229l18.296,6.864
	c-1.472,1.489-2.297,3.498-2.296,5.592v40h-16V144.229z"/>
<path d="M11.672,139.413c2.287,1.47,5.165,1.678,7.64,0.552l20.264-9.208c33.713-15.19,73.395-6.528,97.712,21.328l-14.944,14.944
	c-3.124,3.125-3.123,8.19,0.002,11.314c1.5,1.499,3.534,2.342,5.654,2.342h72c4.418,0,8-3.582,8-8v-72
	c-0.001-4.418-3.583-7.999-8.002-7.998c-2.121,0-4.154,0.843-5.654,2.342l-14.448,14.456C135.475,68.181,75.679,47.554,15.24,52.685
	c-4.119,0.393-7.259,3.862-7.24,8v72C8,135.406,9.383,137.94,11.672,139.413z M24,68.173c56.072-2.66,110.664,18.461,150.344,58.168
	c3.124,3.123,8.188,3.123,11.312,0l6.344-6.344v44.688h-44.688l6.344-6.344c2.801-2.792,3.141-7.212,0.8-10.4
	c-27.977-37.867-78.578-51.09-121.504-31.752L24,120.261V68.173z"/>
<path d="M420.688,204.685c6.248,6.246,16.376,6.246,22.624,0L464,183.997c6.246-6.248,6.246-16.376,0-22.624l-20.688-20.688
	L456,127.997c6.246-6.248,6.246-16.376,0-22.624l-92.688-92.688c-6.248-6.246-16.376-6.246-22.624,0L328,25.373L307.312,4.685
	c-6.248-6.246-16.376-6.246-22.624,0L264,25.373c-6.246,6.248-6.246,16.376,0,22.624L420.688,204.685z M296,15.997l26.344,26.344
	l80,80l11.312-11.312l-74.344-74.344L352,23.997l92.688,92.688l-18.344,18.344c-3.123,3.124-3.123,8.188,0,11.312l26.344,26.344
	L432,193.373L275.312,36.685L296,15.997z"/>
<path d="M232,452.685c13.255,0,24-10.745,24-24v-144c0-13.255-10.745-24-24-24c-13.255,0-24,10.745-24,24v144
	C208,441.939,218.745,452.685,232,452.685z M224,284.685c0-4.418,3.582-8,8-8s8,3.582,8,8v144c0,4.418-3.582,8-8,8s-8-3.582-8-8
	V284.685z"/>
<path d="M168,452.685c13.255,0,24-10.745,24-24v-144c0-13.255-10.745-24-24-24s-24,10.745-24,24v144
	C144,441.939,154.745,452.685,168,452.685z M160,284.685c0-4.418,3.582-8,8-8s8,3.582,8,8v144c0,4.418-3.582,8-8,8s-8-3.582-8-8
	V284.685z"/>
<path d="M296,452.685c13.255,0,24-10.745,24-24v-144c0-13.255-10.745-24-24-24s-24,10.745-24,24v144
	C272,441.939,282.745,452.685,296,452.685z M288,284.685c0-4.418,3.582-8,8-8s8,3.582,8,8v144c0,4.418-3.582,8-8,8s-8-3.582-8-8
	V284.685z"/>
<g>
</g>
<g>
</g>
<g>
</g>
<g>
</g>
<g>
</g>
<g>
</g>
<g>
</g>
<g>
</g>
<g>
</g>
<g>
</g>
<g>
</g>
<g>
</g>
<g>
</g>
<g>
</g>
<g>
</g>
</svg>
