<?xml version="1.0" encoding="iso-8859-1"?>
<!-- Generator: Adobe Illustrator 19.0.0, SVG Export Plug-In . SVG Version: 6.00 Build 0)  -->
<svg version="1.1" id="Capa_1" xmlns="http://www.w3.org/2000/svg" xmlns:xlink="http://www.w3.org/1999/xlink" x="0px" y="0px"
	 viewBox="0 0 512 512" style="enable-background:new 0 0 512 512;" xml:space="preserve">
<path style="fill:#455A64;" d="M256,0c-76.544,0.094-138.573,62.122-138.667,138.667V224c0,5.891,4.776,10.667,10.667,10.667h42.667
	c5.891,0,10.667-4.776,10.667-10.667v-85.333C181.333,97.429,214.763,64,256,64s74.667,33.429,74.667,74.667v42.667
	c0,5.891,4.776,10.667,10.667,10.667H384c5.891,0,10.667-4.776,10.667-10.667v-42.667C394.573,62.122,332.544,0.094,256,0z"/>
<path style="fill:#FFC107;" d="M128,213.333h256c29.455,0,53.333,23.878,53.333,53.333v192C437.333,488.122,413.455,512,384,512H128
	c-29.455,0-53.333-23.878-53.333-53.333v-192C74.667,237.211,98.545,213.333,128,213.333z"/>
<path style="fill:#455A64;" d="M309.333,330.667c0.124-29.455-23.653-53.434-53.108-53.558
	c-29.455-0.124-53.434,23.653-53.558,53.108c-0.086,20.36,11.427,38.992,29.674,48.023l-8.235,57.6
	c-0.825,5.833,3.235,11.23,9.068,12.055c0.494,0.07,0.993,0.105,1.492,0.105h42.667c5.891,0.058,10.713-4.67,10.771-10.561
	c0.005-0.535-0.03-1.069-0.105-1.599l-8.235-57.6C297.791,369.213,309.219,350.826,309.333,330.667z"/>
<path d="M170.667,234.667H128c-5.891,0-10.667-4.776-10.667-10.667v-85.333C117.333,62.083,179.417,0,256,0
	s138.667,62.083,138.667,138.667v42.667c0,5.891-4.776,10.667-10.667,10.667h-42.667c-5.891,0-10.667-4.776-10.667-10.667v-42.667
	C330.667,97.429,297.237,64,256,64s-74.667,33.429-74.667,74.667V224C181.333,229.891,176.558,234.667,170.667,234.667z
	 M138.667,213.333H160v-74.667c0-53.019,42.981-96,96-96s96,42.981,96,96v32h21.333v-32c0-64.801-52.532-117.333-117.333-117.333
	S138.667,73.865,138.667,138.667V213.333z"/>
<path d="M384,512H128c-29.455,0-53.333-23.878-53.333-53.333v-192c0-29.455,23.878-53.333,53.333-53.333h256
	c29.455,0,53.333,23.878,53.333,53.333v192C437.333,488.122,413.455,512,384,512z M128,234.667c-17.673,0-32,14.327-32,32v192
	c0,17.673,14.327,32,32,32h256c17.673,0,32-14.327,32-32v-192c0-17.673-14.327-32-32-32H128z"/>
<path d="M277.333,448h-42.667c-5.891,0.058-10.713-4.67-10.771-10.561c-0.005-0.535,0.03-1.069,0.105-1.599l8.235-57.6
	c-26.396-13.072-37.196-45.067-24.124-71.463c13.072-26.396,45.067-37.196,71.463-24.124c26.396,13.072,37.196,45.067,24.124,71.463
	c-5.183,10.466-13.658,18.941-24.124,24.124l8.235,57.6c0.825,5.833-3.235,11.23-9.068,12.055
	C278.274,447.961,277.804,447.996,277.333,448z M246.976,426.667h18.069l-7.68-53.739c-0.745-5.244,2.471-10.239,7.552-11.733
	c13.666-3.853,23.099-16.329,23.083-30.528c0-17.673-14.327-32-32-32s-32,14.327-32,32c-0.026,14.207,9.409,26.694,23.083,30.549
	c5.081,1.494,8.297,6.49,7.552,11.733L246.976,426.667z"/>
<g>
</g>
<g>
</g>
<g>
</g>
<g>
</g>
<g>
</g>
<g>
</g>
<g>
</g>
<g>
</g>
<g>
</g>
<g>
</g>
<g>
</g>
<g>
</g>
<g>
</g>
<g>
</g>
<g>
</g>
</svg>
