<?xml version="1.0" encoding="iso-8859-1"?>
<!-- Generator: Adobe Illustrator 19.0.0, SVG Export Plug-In . SVG Version: 6.00 Build 0)  -->
<svg version="1.1" id="Capa_1" xmlns="http://www.w3.org/2000/svg" xmlns:xlink="http://www.w3.org/1999/xlink" x="0px" y="0px"
	 viewBox="0 0 512 512" style="enable-background:new 0 0 512 512;" xml:space="preserve">
<path style="fill:#696969;" d="M428.082,237.517h-29.971c-8.276,0-14.985,6.709-14.985,14.985v29.971l44.956,29.971V237.517z"/>
<path style="fill:#4F4F4F;" d="M459.551,237.517h29.971c8.276,0,14.985,6.709,14.985,14.985v29.971l-44.956,29.971V237.517z"/>
<rect x="413.097" y="222.533" style="fill:#FFCB63;" width="61.44" height="89.912"/>
<polygon style="fill:#CCCCCC;" points="504.507,352.405 444.566,402.356 474.537,282.473 504.507,282.473 "/>
<polygon style="fill:#EBEBEB;" points="474.537,402.356 383.126,352.405 383.126,282.473 474.537,282.473 "/>
<polygon style="fill:#B3B3B3;" points="504.507,464.296 474.537,464.296 414.595,408.35 474.537,352.405 504.507,352.405 "/>
<rect x="383.126" y="352.406" style="fill:#CCCCCC;" width="91.411" height="111.891"/>
<polygon style="fill:#999999;" points="278.228,389.369 323.184,352.405 323.184,314.442 293.214,314.442 "/>
<polygon style="fill:#B3B3B3;" points="293.214,389.369 248.258,352.405 248.258,314.442 293.214,314.442 "/>
<polygon style="fill:#4F4F4F;" points="323.184,464.296 293.214,464.296 278.228,408.35 293.214,352.405 323.184,352.405 "/>
<rect x="248.258" y="352.406" style="fill:#696969;" width="44.956" height="111.891"/>
<polygon style="fill:#4F4F4F;" points="267.239,192.555 267.239,267.488 308.199,267.488 308.199,192.562 "/>
<polygon style="fill:#2DADE3;" points="323.182,207.547 278.223,162.591 323.182,117.635 353.155,117.635 353.155,207.547 "/>
<rect x="222.283" y="117.635" style="fill:#49C9FF;" width="100.901" height="89.912"/>
<polygon style="fill:#FF8646;" points="323.184,237.517 293.214,259.995 323.184,282.473 353.155,282.473 353.155,237.517 "/>
<rect x="7.493" y="237.518" style="fill:#FFA754;" width="315.692" height="44.956"/>
<path style="fill:#FFCB63;" d="M152.351,167.585H122.38l-19.98,74.927h69.932v-54.946
	C172.332,176.532,163.386,167.585,152.351,167.585z"/>
<path style="fill:#FFE2A8;" d="M122.38,167.585H102.4c-11.035,0-19.98,8.945-19.98,19.98v54.946h59.941v-54.946
	C142.361,176.532,133.416,167.585,122.38,167.585z"/>
<path style="fill:#4F4F4F;" d="M172.332,217.537h-29.971l19.98,134.868h29.971V237.517
	C192.312,226.528,183.321,217.537,172.332,217.537z"/>
<path style="fill:#696969;" d="M142.361,217.537H82.42c-10.989,0-19.98,8.991-19.98,19.98v114.888h99.902V237.517
	C162.341,226.528,153.35,217.537,142.361,217.537z"/>
<path style="fill:#60312C;" d="M127.376,47.702v89.912c24.829,0,44.956-20.127,44.956-44.956S152.204,47.702,127.376,47.702z"/>
<path style="fill:#85453D;" d="M142.361,92.659c0-24.829-6.709-44.956-14.985-44.956c-24.829,0-44.956,20.127-44.956,44.956
	s20.127,44.956,44.956,44.956C135.652,137.615,142.361,117.487,142.361,92.659z"/>
<path d="M323.184,306.949h-74.927c-4.138,0-7.493,3.355-7.493,7.493v149.854c0,4.138,3.355,7.493,7.493,7.493h74.927
	c4.138,0,7.493-3.355,7.493-7.493V314.442C330.677,310.304,327.322,306.949,323.184,306.949z M315.692,321.935v22.978H255.75
	v-22.978H315.692z M255.75,456.803v-96.905h59.941v96.905H255.75z"/>
<path d="M353.155,110.142H222.283c-4.138,0-7.493,3.355-7.493,7.493v89.912c0,4.138,3.355,7.493,7.493,7.493h37.463v14.985h-60.988
	c-2.593-9.133-9.8-16.34-18.934-18.934v-23.525c0-15.149-12.324-27.473-27.473-27.473H102.4c-15.149,0-27.473,12.324-27.473,27.473
	v23.525c-9.133,2.593-16.34,9.8-18.934,18.934H7.493c-4.138,0-7.493,3.355-7.493,7.493v226.779c0,4.138,3.355,7.493,7.493,7.493
	s7.493-3.355,7.493-7.493v-174.33h39.961v174.33c0,4.138,3.355,7.493,7.493,7.493s7.493-3.355,7.493-7.493V359.899h28.972v74.656
	l-13.195,26.391c-1.851,3.701-0.351,8.202,3.351,10.052c1.076,0.538,2.219,0.792,3.345,0.792c2.748,0,5.395-1.519,6.707-4.143
	l13.986-27.973c0.52-1.041,0.791-2.187,0.791-3.351v-76.425h26.974v76.425c0,1.164,0.271,2.31,0.791,3.351l13.986,27.973
	c1.313,2.625,3.958,4.143,6.707,4.143c1.126,0,2.269-0.255,3.345-0.792c3.701-1.85,5.202-6.351,3.351-10.052l-13.195-26.391v-74.656
	h28.972v104.398c0,4.138,3.355,7.493,7.493,7.493s7.493-3.355,7.493-7.493v-174.33h145.858v174.33c0,4.138,3.355,7.493,7.493,7.493
	s7.493-3.355,7.493-7.493V237.518c0-4.138-3.355-7.493-7.493-7.493h-37.463V215.04h37.463c4.138,0,7.493-3.355,7.493-7.493v-89.912
	C360.648,113.497,357.293,110.142,353.155,110.142z M102.4,175.078h49.951c6.886,0,12.488,5.602,12.488,12.488v22.478H89.912
	v-22.478C89.912,180.681,95.514,175.078,102.4,175.078z M14.985,274.98V245.01h39.961v29.971H14.985z M69.932,344.912V237.517
	c0-6.886,5.602-12.488,12.488-12.488h89.912c6.886,0,12.488,5.602,12.488,12.488v107.395H69.932z M345.662,274.98H199.805V245.01
	h145.858V274.98z M300.706,230.024h-25.975v-14.985h25.975V230.024z M345.662,200.054H229.776v-74.927h115.887V200.054z"/>
<path d="M127.376,145.107c28.921,0,52.449-23.528,52.449-52.449S156.296,40.21,127.376,40.21S74.927,63.739,74.927,92.659
	S98.455,145.107,127.376,145.107z M127.376,55.195c20.658,0,37.463,16.806,37.463,37.463s-16.806,37.463-37.463,37.463
	s-37.463-16.806-37.463-37.463S106.718,55.195,127.376,55.195z"/>
<path d="M474.537,304.951h-61.44c-4.138,0-7.493,3.355-7.493,7.493c0,4.138,3.355,7.493,7.493,7.493h61.44
	c4.138,0,7.493-3.355,7.493-7.493C482.029,308.306,478.675,304.951,474.537,304.951z"/>
<path d="M489.522,230.024h-7.493v-7.493c0-4.138-3.355-7.493-7.493-7.493h-61.44c-4.138,0-7.493,3.355-7.493,7.493v7.493h-7.493
	c-12.395,0-22.478,10.083-22.478,22.478v211.793c0,4.138,3.355,7.493,7.493,7.493h121.381c4.138,0,7.493-3.355,7.493-7.493V252.502
	C512,240.109,501.917,230.024,489.522,230.024z M390.619,289.966h106.396v54.946H390.619V289.966z M489.522,245.01
	c4.132,0,7.493,3.361,7.493,7.493v22.478h-14.985V245.01H489.522z M420.589,230.024h46.455v7.483c0,0.019,0,37.473,0,37.473h-46.455
	V230.024z M398.111,245.01h7.493v29.971h-14.985v-22.478C390.619,248.371,393.979,245.01,398.111,245.01z M390.619,456.803v-96.905
	h106.396v96.905H390.619z"/>
<circle cx="285.721" cy="434.326" r="7.493"/>
<g>
</g>
<g>
</g>
<g>
</g>
<g>
</g>
<g>
</g>
<g>
</g>
<g>
</g>
<g>
</g>
<g>
</g>
<g>
</g>
<g>
</g>
<g>
</g>
<g>
</g>
<g>
</g>
<g>
</g>
</svg>
