<?xml version="1.0" encoding="iso-8859-1"?>
<!-- Generator: Adobe Illustrator 19.0.0, SVG Export Plug-In . SVG Version: 6.00 Build 0)  -->
<svg version="1.1" id="Capa_1" xmlns="http://www.w3.org/2000/svg" xmlns:xlink="http://www.w3.org/1999/xlink" x="0px" y="0px"
	 viewBox="0 0 480.014 480.014" style="enable-background:new 0 0 480.014 480.014;" xml:space="preserve">
<circle style="fill:#FFDA44;" cx="240.007" cy="456" r="16"/>
<path style="fill:#EBE5DD;" d="M8.007,256v128h56v-80h352v80h56V256h-40h-32h-320h-32H8.007z"/>
<g>
	<path style="fill:#FFDA44;" d="M64.007,304v80h352v-80H64.007z"/>
	<path style="fill:#FFDA44;" d="M48.007,24v232h32V24c0-8.837-7.163-16-16-16S48.007,15.163,48.007,24z"/>
	<path style="fill:#FFDA44;" d="M432.007,24c0-8.837-7.163-16-16-16s-16,7.163-16,16v232h32V24z"/>
</g>
<g>
	<path style="fill:#231F20;" d="M337.695,161.28c-2.895,0.004-5.566-1.557-6.984-4.08c-28.01-50.094-91.326-67.998-141.42-39.988
		c-16.769,9.376-30.611,23.218-39.988,39.988c-2.165,3.853-7.043,5.221-10.896,3.056s-5.221-7.043-3.056-10.896l0,0
		c32.344-57.8,105.421-78.436,163.221-46.091c19.324,10.814,35.277,26.767,46.091,46.091c2.165,3.852,0.798,8.729-3.054,10.894
		C340.414,160.926,339.066,161.279,337.695,161.28z"/>
	<path style="fill:#231F20;" d="M310.015,177.28c-2.907,0.003-5.587-1.571-7-4.112c-19.243-34.798-63.052-47.409-97.85-28.166
		c-11.85,6.553-21.613,16.315-28.166,28.166c-2.147,3.862-7.018,5.251-10.88,3.104c-3.862-2.147-5.251-7.018-3.104-10.88l0,0
		c23.537-42.521,77.088-57.912,119.609-34.375c14.459,8.003,26.371,19.916,34.375,34.375c2.147,3.861,0.758,8.732-3.103,10.88
		c0,0,0,0-0.001,0C312.71,176.936,311.373,177.283,310.015,177.28z"/>
	<path style="fill:#231F20;" d="M282.335,193.28c-2.937,0.003-5.639-1.603-7.04-4.184c-10.477-19.489-34.77-26.795-54.259-16.317
		c-6.922,3.721-12.596,9.396-16.317,16.317c-2.108,3.884-6.964,5.324-10.848,3.216c-3.884-2.108-5.324-6.964-3.216-10.848l0,0
		c14.691-27.256,48.695-37.443,75.952-22.752c9.644,5.198,17.554,13.108,22.752,22.752c2.108,3.883,0.668,8.74-3.215,10.847
		C284.975,192.946,283.665,193.279,282.335,193.28L282.335,193.28z"/>
	<path style="fill:#231F20;" d="M248.007,433.472V408h-16v25.472c-6.775,2.42-12.108,7.753-14.528,14.528H0.007v16h217.472
		c4.335,12.442,17.935,19.014,30.376,14.68c6.877-2.396,12.284-7.802,14.68-14.68h217.472v-16H262.535
		C260.115,441.225,254.783,435.892,248.007,433.472z M240.007,464c-4.418,0-8-3.582-8-8s3.582-8,8-8s8,3.582,8,8
		S244.425,464,240.007,464z"/>
	<path style="fill:#231F20;" d="M240.007,232c13.255,0,24-10.745,24-24s-10.745-24-24-24c-13.255,0-24,10.745-24,24
		S226.752,232,240.007,232z M240.007,200c4.418,0,8,3.582,8,8s-3.582,8-8,8s-8-3.582-8-8S235.589,200,240.007,200z"/>
	<path style="fill:#231F20;" d="M472.007,248h-32V24c0-13.255-10.745-24-24-24s-24,10.745-24,24v224h-304V24
		c0-13.255-10.745-24-24-24s-24,10.745-24,24v224h-32c-4.418,0-8,3.582-8,8v128c0,4.418,3.582,8,8,8h464c4.418,0,8-3.582,8-8V256
		C480.007,251.582,476.425,248,472.007,248z M408.007,24c0-4.418,3.582-8,8-8s8,3.582,8,8v224h-16V24z M56.007,24
		c0-4.418,3.582-8,8-8s8,3.582,8,8v224h-16V24z M72.007,376v-64h336v64H72.007z M464.007,376h-40v-72c0-4.418-3.582-8-8-8h-352
		c-4.418,0-8,3.582-8,8v72h-40V264h448V376z"/>
	<path style="fill:#231F20;" d="M184.007,336h16v16h-16V336z"/>
	<path style="fill:#231F20;" d="M216.007,336h16v16h-16V336z"/>
	<path style="fill:#231F20;" d="M248.007,336h16v16h-16V336z"/>
	<path style="fill:#231F20;" d="M280.007,336h16v16h-16V336z"/>
	<path style="fill:#231F20;" d="M312.007,336h16v16h-16V336z"/>
	<path style="fill:#231F20;" d="M344.007,336h16v16h-16V336z"/>
	<path style="fill:#231F20;" d="M376.007,336h16v16h-16V336z"/>
	<path style="fill:#231F20;" d="M152.007,336h16v16h-16V336z"/>
	<path style="fill:#231F20;" d="M120.007,336h16v16h-16V336z"/>
	<path style="fill:#231F20;" d="M88.007,336h16v16h-16V336z"/>
</g>
<g>
</g>
<g>
</g>
<g>
</g>
<g>
</g>
<g>
</g>
<g>
</g>
<g>
</g>
<g>
</g>
<g>
</g>
<g>
</g>
<g>
</g>
<g>
</g>
<g>
</g>
<g>
</g>
<g>
</g>
</svg>
