<?xml version="1.0" encoding="iso-8859-1"?>
<!-- Generator: Adobe Illustrator 19.0.0, SVG Export Plug-In . SVG Version: 6.00 Build 0)  -->
<svg version="1.1" id="Capa_1" xmlns="http://www.w3.org/2000/svg" xmlns:xlink="http://www.w3.org/1999/xlink" x="0px" y="0px"
	 viewBox="0 0 480.188 480.188" style="enable-background:new 0 0 480.188 480.188;" xml:space="preserve">
<path style="fill:#57A4FF;" d="M472.104,187.656c-0.023-29.306-19.917-54.864-48.32-62.08c-3.133-32.83-30.701-57.904-63.68-57.92
	c-12.334-0.031-24.406,3.557-34.72,10.32c-11.99-47.099-59.891-75.56-106.99-63.57c-31.232,7.951-55.619,32.338-63.57,63.57
	c-10.314-6.763-22.386-10.351-34.72-10.32c-32.979,0.016-60.547,25.09-63.68,57.92c-34.286,8.593-55.114,43.352-46.522,77.638
	c7.147,28.517,32.803,48.498,62.202,48.442h336C443.45,251.656,472.104,223.002,472.104,187.656z"/>
<path style="fill:#EBE5DD;" d="M339.24,152.52c-30.916-53.576-99.41-71.945-152.986-41.029s-71.945,99.41-41.029,152.986
	c23.475,40.681,69.839,62.393,116.118,54.379c2.272-0.384,4.608-0.8,6.872-1.376c21.179-5.087,40.43-16.202,55.424-32
	c2.286-2.391,4.443-4.901,6.464-7.52C358.555,241.965,362.176,192.257,339.24,152.52L339.24,152.52z M286.248,284.728
	c-42.089,24.302-95.909,9.883-120.211-32.206c-24.302-42.089-9.883-95.909,32.206-120.211s95.909-9.883,120.211,32.206
	c0.001,0.001,0.001,0.002,0.002,0.003C342.703,206.615,328.294,260.395,286.248,284.728z"/>
<path style="fill:#FFDA44;" d="M198.248,132.304c-42.091,24.298-56.515,78.117-32.217,120.208s78.117,56.515,120.208,32.217
	c42.091-24.298,56.515-78.117,32.217-120.208c0,0,0-0.001,0-0.001C294.12,122.479,240.347,108.067,198.248,132.304L198.248,132.304z
	"/>
<g>
	<path style="fill:#C0AB91;" d="M359.304,456.576c6.617,11.485,21.292,15.431,32.777,8.813c0.008-0.004,0.015-0.009,0.023-0.013
		c11.485-6.617,15.431-21.292,8.813-32.777c-0.004-0.008-0.009-0.015-0.013-0.023l-68-117.784l-41.6,24L359.304,456.576z"/>
	<path style="fill:#C0AB91;" d="M298.248,305.512c-9.374,5.44-19.491,9.482-30.032,12c-2.264,0.56-4.6,0.992-6.872,1.376
		l16.12,27.92l13.856-8l41.6-24l13.856-8l-16.64-28.8c-2.021,2.619-4.178,5.129-6.464,7.52
		C316.213,293.389,307.648,300.121,298.248,305.512L298.248,305.512z"/>
</g>
<g>
	<path style="fill:#231F20;" d="M184.104,203.656h16v16h-16V203.656z"/>
	<path style="fill:#231F20;" d="M216.104,203.656h16v16h-16V203.656z"/>
	<path style="fill:#231F20;" d="M248.104,203.656h16v16h-16V203.656z"/>
	<path style="fill:#231F20;" d="M280.104,203.656h16v16h-16V203.656z"/>
	<path style="fill:#231F20;" d="M431.032,119.376c-6.747-39.152-43.956-65.422-83.108-58.674c-6.152,1.06-12.14,2.917-17.812,5.522
		C311.662,16.518,256.411-8.82,206.705,9.63c-26.204,9.726-46.867,30.39-56.593,56.593c-36.098-16.593-78.813-0.78-95.406,35.318
		c-2.61,5.679-4.47,11.674-5.53,17.834C11.466,131.992-8.877,172.79,3.739,210.5c9.833,29.392,37.372,49.193,68.364,49.156h32
		c4.418,0,8-3.582,8-8c0-4.418-3.582-8-8-8h-32c-30.928,0.072-56.058-24.941-56.131-55.869
		c-0.06-25.746,17.442-48.215,42.419-54.459c3.281-0.831,5.684-3.638,6-7.008c2.596-28.793,26.803-50.806,55.712-50.664
		c10.773-0.027,21.317,3.105,30.328,9.008c3.692,2.426,8.653,1.4,11.079-2.293c0.492-0.749,0.855-1.575,1.073-2.443
		c10.916-42.813,54.472-68.671,97.285-57.755c28.37,7.233,50.522,29.386,57.755,57.755c1.077,4.285,5.423,6.886,9.709,5.809
		c0.869-0.218,1.695-0.581,2.443-1.073c9.011-5.903,19.555-9.035,30.328-9.008c28.909-0.142,53.116,21.871,55.712,50.664
		c0.316,3.37,2.719,6.177,6,7.008c30.005,7.501,48.248,37.905,40.747,67.909c-6.244,24.977-28.713,42.479-54.459,42.419h-32
		c-4.418,0-8,3.582-8,8c0,4.418,3.582,8,8,8h32c39.764,0.047,72.038-32.151,72.084-71.916
		C480.224,156.747,460.423,129.209,431.032,119.376L431.032,119.376z"/>
	<path style="fill:#231F20;" d="M334.936,233.352c13.744-51.207-16.627-103.86-67.834-117.604s-103.86,16.627-117.604,67.834
		c-13.744,51.207,16.627,103.86,67.834,117.604c0.028,0.007,0.056,0.015,0.084,0.022c8.171,2.199,16.595,3.315,25.056,3.32
		c43.372-0.106,81.279-29.295,92.464-71.2V233.352z M221.552,285.752c-42.659-11.504-67.915-55.411-56.411-98.07
		c9.383-34.794,40.871-59.019,76.907-59.17c7.054,0.006,14.077,0.94,20.888,2.776c42.654,11.428,67.968,55.27,56.54,97.924
		C308.048,271.866,264.206,297.18,221.552,285.752z"/>
	<path style="fill:#231F20;" d="M343.816,317.72l6.928-4c3.826-2.209,5.137-7.102,2.928-10.928l-14.032-24.304
		c38.635-53.815,26.33-128.761-27.485-167.396s-128.761-26.33-167.396,27.485c-27.487,38.286-30.006,89.12-6.439,129.935
		c21.518,37.083,61.126,59.934,104,60c4.929-0.039,9.85-0.383,14.736-1.032l13.448,23.312c2.209,3.826,7.102,5.137,10.928,2.928
		l6.928-4l64,110.856c4.228,7.365,11.224,12.734,19.432,14.912c2.719,0.727,5.521,1.096,8.336,1.096
		c5.6-0.003,11.1-1.485,15.944-4.296c15.305-8.837,20.548-28.407,11.712-43.712L343.816,317.72z M152.184,260.512
		c-28.719-49.742-11.677-113.348,38.066-142.067s113.348-11.677,142.067,38.066c21.338,36.958,17.933,83.2-8.589,116.633
		c-1.843,2.392-3.817,4.681-5.912,6.856c-13.941,14.692-31.846,25.022-51.544,29.736c-2.064,0.512-4.208,0.904-6.304,1.256
		C217.019,318.36,174.021,298.222,152.184,260.512L152.184,260.512z M280.392,335.864l-6.688-11.528
		c0.872-0.232,1.736-0.536,2.6-0.8c1.104-0.328,2.208-0.656,3.304-1.016c1.6-0.512,3.12-1.088,4.664-1.664
		c1.024-0.392,2.056-0.752,3.072-1.168c1.672-0.688,3.32-1.432,4.968-2.192c0.856-0.4,1.728-0.76,2.576-1.176
		c2.48-1.216,4.92-2.504,7.328-3.888s4.944-2.976,7.328-4.584c0.8-0.52,1.488-1.096,2.24-1.6c1.6-1.128,3.2-2.232,4.688-3.424
		c0.912-0.72,1.768-1.496,2.656-2.24c1.296-1.08,2.608-2.144,3.856-3.272c0.912-0.8,1.76-1.712,2.64-2.568
		c1.048-1.008,2.12-1.984,3.128-3.032l7.032,12.176l-6.928,4l-20.8,12L280.392,335.864z M395.592,448.712
		c-2.29,8.535-11.065,13.597-19.6,11.307c-4.093-1.098-7.583-3.775-9.704-7.443l-64-110.856l27.704-16l64,110.848
		c2.127,3.675,2.692,8.049,1.568,12.144H395.592z"/>
</g>
<g>
</g>
<g>
</g>
<g>
</g>
<g>
</g>
<g>
</g>
<g>
</g>
<g>
</g>
<g>
</g>
<g>
</g>
<g>
</g>
<g>
</g>
<g>
</g>
<g>
</g>
<g>
</g>
<g>
</g>
</svg>
