<?xml version="1.0" encoding="iso-8859-1"?>
<!-- Generator: Adobe Illustrator 19.0.0, SVG Export Plug-In . SVG Version: 6.00 Build 0)  -->
<svg version="1.1" id="Capa_1" xmlns="http://www.w3.org/2000/svg" xmlns:xlink="http://www.w3.org/1999/xlink" x="0px" y="0px"
	 viewBox="0 0 480.172 480.172" style="enable-background:new 0 0 480.172 480.172;" xml:space="preserve">
<path style="fill:#57A4FF;" d="M472.084,208.116c-0.023-29.306-19.917-54.864-48.32-62.08c-3.133-32.83-30.701-57.904-63.68-57.92
	c-12.334-0.031-24.406,3.557-34.72,10.32c-11.99-47.099-59.891-75.56-106.99-63.57c-31.232,7.951-55.619,32.338-63.57,63.57
	c-10.314-6.763-22.386-10.351-34.72-10.32c-32.979,0.016-60.547,25.09-63.68,57.92c-34.286,8.593-55.114,43.352-46.522,77.638
	c7.147,28.517,32.803,48.498,62.202,48.442h336C443.431,272.116,472.084,243.462,472.084,208.116z"/>
<path style="fill:#2488FF;" d="M320.084,352.116v96h32v-208.4l-40-31.6h-8v72h-112v-72h-64v240h32v-96H320.084z"/>
<path style="fill:#EBE5DD;" d="M304.084,280.116v-72h-112v72H304.084z"/>
<path style="fill:#FFDA44;" d="M320.084,352.116h-160v96h160V352.116z"/>
<g>
	<path style="fill:#231F20;" d="M408.084,280.116h-32c-4.418,0-8-3.582-8-8s3.582-8,8-8h32
		c30.928,0.054,56.044-24.974,56.098-55.901c0.045-25.721-17.437-48.166-42.386-54.419c-3.284-0.832-5.687-3.643-6-7.016
		c-2.872-30.719-30.103-53.293-60.822-50.421c-8.991,0.841-17.644,3.848-25.218,8.765c-3.692,2.426-8.653,1.4-11.079-2.293
		c-0.492-0.749-0.855-1.575-1.073-2.443c-10.916-42.813-54.472-68.671-97.285-57.755c-28.37,7.233-50.522,29.386-57.755,57.755
		c-1.077,4.285-5.423,6.886-9.709,5.809c-0.869-0.218-1.695-0.581-2.443-1.073c-25.878-16.8-60.475-9.44-77.275,16.438
		c-4.917,7.574-7.925,16.227-8.765,25.218c-0.313,3.373-2.716,6.184-6,7.016c-30,7.519-48.225,37.933-40.707,67.934
		c6.253,24.95,28.697,42.432,54.419,42.386h32c4.418,0,8,3.582,8,8s-3.582,8-8,8h-32C32.32,280.162,0.047,247.965,0,208.2
		c-0.036-30.993,19.765-58.531,49.156-68.364c6.756-39.16,43.977-65.428,83.137-58.672c6.141,1.06,12.119,2.912,17.783,5.512
		c18.45-49.706,73.701-75.043,123.407-56.593c26.204,9.726,46.867,30.39,56.593,56.593c36.115-16.577,78.831-0.738,95.408,35.377
		c2.6,5.664,4.453,11.642,5.512,17.783c37.71,12.616,58.053,53.414,45.436,91.124C466.601,260.345,439.071,280.145,408.084,280.116z
		"/>
	<path style="fill:#231F20;" d="M357.044,233.444l-40-31.608c-1.413-1.115-3.16-1.721-4.96-1.72h-184c-4.418,0-8,3.582-8,8v240
		c0,4.418,3.582,8,8,8h224c4.418,0,8-3.582,8-8v-208.4C360.083,237.27,358.963,234.96,357.044,233.444z M200.084,216.116h96v56h-96
		L200.084,216.116z M168.084,440.116v-80h144v80H168.084z M344.084,440.116h-16v-88c0-4.418-3.582-8-8-8h-160c-4.418,0-8,3.582-8,8
		v88h-16v-224h48v64c0,4.418,3.582,8,8,8h112c4.418,0,8-3.582,8-8v-61.808l32,25.288V440.116z"/>
	<path style="fill:#231F20;" d="M272.084,224.116c-4.418,0-8,3.582-8,8v16c0,4.418,3.582,8,8,8s8-3.582,8-8v-16
		C280.084,227.697,276.503,224.116,272.084,224.116z"/>
	<path style="fill:#231F20;" d="M280.084,376.116h-80c-4.418,0-8,3.582-8,8s3.582,8,8,8h80c4.418,0,8-3.582,8-8
		S284.503,376.116,280.084,376.116z"/>
	<path style="fill:#231F20;" d="M280.084,408.116h-80c-4.418,0-8,3.582-8,8s3.582,8,8,8h80c4.418,0,8-3.582,8-8
		S284.503,408.116,280.084,408.116z"/>
</g>
<g>
</g>
<g>
</g>
<g>
</g>
<g>
</g>
<g>
</g>
<g>
</g>
<g>
</g>
<g>
</g>
<g>
</g>
<g>
</g>
<g>
</g>
<g>
</g>
<g>
</g>
<g>
</g>
<g>
</g>
</svg>
