<?xml version="1.0" encoding="iso-8859-1"?>
<!-- Generator: Adobe Illustrator 19.0.0, SVG Export Plug-In . SVG Version: 6.00 Build 0)  -->
<svg version="1.1" id="Capa_1" xmlns="http://www.w3.org/2000/svg" xmlns:xlink="http://www.w3.org/1999/xlink" x="0px" y="0px"
	 viewBox="0 0 480 480" style="enable-background:new 0 0 480 480;" xml:space="preserve">
<path style="fill:#FFDA44;" d="M8,184c0,17.673,14.327,32,32,32h208c17.673,0,32-14.327,32-32H8z"/>
<path style="fill:#EBE5DD;" d="M24,8v176h240V8H24z M240,160V32H48v128V32h192V160z"/>
<path style="fill:#FFDA44;" d="M216,440h-16c0,17.673,14.327,32,32,32h208c17.673,0,32-14.327,32-32H216z"/>
<path style="fill:#EBE5DD;" d="M456,264H216v176h240V264z M432,416V288H240v128V288h192V416z"/>
<g>
	<circle style="fill:#FFDA44;" cx="416" cy="112" r="24"/>
	<circle style="fill:#FFDA44;" cx="64" cy="368" r="24"/>
</g>
<g>
	<path style="fill:#231F20;" d="M248,224c22.08-0.026,39.974-17.92,40-40c0-4.418-3.582-8-8-8h-8V8c0-4.418-3.582-8-8-8H24
		c-4.418,0-8,3.582-8,8v168H8c-4.418,0-8,3.582-8,8c0.026,22.08,17.92,39.974,40,40H248z M32,16h224v160H32V16z M17.368,192h253.264
		c-3.403,9.582-12.464,15.988-22.632,16H40C29.832,207.988,20.771,201.582,17.368,192L17.368,192z"/>
	<path style="fill:#231F20;" d="M40,168h56v-16H56V40h176v112h-40v16h56V24H40V168z"/>
	<path style="fill:#231F20;" d="M112,152h16v16h-16V152z"/>
	<path style="fill:#231F20;" d="M136,152h16v16h-16V152z"/>
	<path style="fill:#231F20;" d="M160,152h16v16h-16V152z"/>
	<path style="fill:#231F20;" d="M472,432h-8V264c0-4.418-3.582-8-8-8H216c-4.418,0-8,3.582-8,8v168h-8c-4.418,0-8,3.582-8,8
		c0.026,22.08,17.92,39.974,40,40h208c22.08-0.026,39.974-17.92,40-40C480,435.582,476.418,432,472,432z M224,272h224v160H224V272z
		 M440,464H232c-10.168-0.012-19.229-6.418-22.632-16h253.264C459.229,457.582,450.168,463.988,440,464L440,464z"/>
	<path style="fill:#231F20;" d="M232,424h56v-16h-40V296h176v112h-40v16h56V280H232V424z"/>
	<path style="fill:#231F20;" d="M304,408h16v16h-16V408z"/>
	<path style="fill:#231F20;" d="M328,408h16v16h-16V408z"/>
	<path style="fill:#231F20;" d="M352,408h16v16h-16V408z"/>
	<path style="fill:#231F20;" d="M408,142.864V240h16v-97.136c17.086-4.378,27.387-21.778,23.009-38.864
		s-21.778-27.387-38.864-23.009C396.85,83.886,388.03,92.705,385.136,104H288v16h97.136
		C388.063,131.195,396.805,139.937,408,142.864z M416,96c8.837,0,16,7.163,16,16s-7.163,16-16,16s-16-7.163-16-16S407.163,96,416,96
		z"/>
	<path style="fill:#231F20;" d="M192,376v-16H94.864C91.937,348.805,83.195,340.063,72,337.136V240H56v97.136
		C38.914,341.514,28.613,358.914,32.991,376c4.378,17.086,21.778,27.387,38.864,23.009C83.15,396.114,91.97,387.295,94.864,376H192z
		 M64,384c-8.837,0-16-7.163-16-16s7.163-16,16-16s16,7.163,16,16S72.837,384,64,384z"/>
</g>
<g>
</g>
<g>
</g>
<g>
</g>
<g>
</g>
<g>
</g>
<g>
</g>
<g>
</g>
<g>
</g>
<g>
</g>
<g>
</g>
<g>
</g>
<g>
</g>
<g>
</g>
<g>
</g>
<g>
</g>
</svg>
