<?xml version="1.0" encoding="iso-8859-1"?>
<!-- Generator: Adobe Illustrator 19.0.0, SVG Export Plug-In . SVG Version: 6.00 Build 0)  -->
<svg version="1.1" id="Capa_1" xmlns="http://www.w3.org/2000/svg" xmlns:xlink="http://www.w3.org/1999/xlink" x="0px" y="0px"
	 viewBox="0 0 480.032 480.032" style="enable-background:new 0 0 480.032 480.032;" xml:space="preserve">
<path style="fill:#FFDA44;" d="M8.016,472.016h304v-192h-304V472.016z"/>
<path style="fill:#FFF200;" d="M8.016,280.016h160l-40-32h-96h-24V280.016z"/>
<path style="fill:#FFDA44;" d="M472.016,40.016h-304v192h304V40.016z"/>
<path style="fill:#FFF200;" d="M288.016,8.016h-120v32h160L288.016,8.016z"/>
<g>
	<circle style="fill:#FFDA44;" cx="448.016" cy="376.016" r="24"/>
	<circle style="fill:#FFDA44;" cx="32.016" cy="104.016" r="24"/>
</g>
<g>
	<path style="fill:#231F20;" d="M152.016,440.016h16v16h-16V440.016z"/>
	<path style="fill:#231F20;" d="M184.016,440.016h16v16h-16V440.016z"/>
	<path style="fill:#231F20;" d="M216.016,440.016h16v16h-16V440.016z"/>
	<path style="fill:#231F20;" d="M248.016,440.016h16v16h-16V440.016z"/>
	<path style="fill:#231F20;" d="M280.016,440.016h16v16h-16V440.016z"/>
	<path style="fill:#231F20;" d="M120.016,440.016h16v16h-16V440.016z"/>
	<path style="fill:#231F20;" d="M88.016,440.016h16v16h-16V440.016z"/>
	<path style="fill:#231F20;" d="M56.016,440.016h16v16h-16V440.016z"/>
	<path style="fill:#231F20;" d="M24.016,440.016h16v16h-16V440.016z"/>
	<path style="fill:#231F20;" d="M480.016,240.016v-208H330.824l-40-32H160.016v96H62.88C58.502,78.93,41.102,68.629,24.016,73.007
		C6.93,77.386-3.371,94.786,1.007,111.871c2.894,11.295,11.714,20.114,23.009,23.009v105.136h-24v240h320v-96h97.136
		c4.378,17.086,21.778,27.387,38.864,23.009s27.387-21.778,23.009-38.864c-2.894-11.295-11.714-20.114-23.009-23.009V240.016
		L480.016,240.016z M176.016,16.016h109.192l20,16H176.016L176.016,16.016z M464.016,48.016v176h-288v-176H464.016z M16.016,104.016
		c0-8.837,7.163-16,16-16s16,7.163,16,16s-7.163,16-16,16S16.016,112.853,16.016,104.016z M16.016,256.016h109.192l20,16H16.016
		V256.016z M304.016,464.016h-288v-176h288V464.016z M464.016,376.016c0,8.837-7.163,16-16,16s-16-7.163-16-16s7.163-16,16-16
		S464.016,367.18,464.016,376.016z M440.016,345.152c-11.202,2.913-19.951,11.662-22.864,22.864h-97.136v-96H170.824l-40-32H40.016
		V134.88c11.202-2.913,19.951-11.662,22.864-22.864h97.136v128h280V345.152z"/>
	<path style="fill:#231F20;" d="M312.016,200.016h16v16h-16V200.016z"/>
	<path style="fill:#231F20;" d="M344.016,200.016h16v16h-16V200.016z"/>
	<path style="fill:#231F20;" d="M376.016,200.016h16v16h-16V200.016z"/>
	<path style="fill:#231F20;" d="M408.016,200.016h16v16h-16V200.016z"/>
	<path style="fill:#231F20;" d="M440.016,200.016h16v16h-16V200.016z"/>
	<path style="fill:#231F20;" d="M280.016,200.016h16v16h-16V200.016z"/>
	<path style="fill:#231F20;" d="M248.016,200.016h16v16h-16V200.016z"/>
	<path style="fill:#231F20;" d="M216.016,200.016h16v16h-16V200.016z"/>
	<path style="fill:#231F20;" d="M184.016,200.016h16v16h-16V200.016z"/>
</g>
<g>
</g>
<g>
</g>
<g>
</g>
<g>
</g>
<g>
</g>
<g>
</g>
<g>
</g>
<g>
</g>
<g>
</g>
<g>
</g>
<g>
</g>
<g>
</g>
<g>
</g>
<g>
</g>
<g>
</g>
</svg>
