<?xml version="1.0" encoding="iso-8859-1"?>
<!-- Generator: Adobe Illustrator 19.0.0, SVG Export Plug-In . SVG Version: 6.00 Build 0)  -->
<svg version="1.1" id="Capa_1" xmlns="http://www.w3.org/2000/svg" xmlns:xlink="http://www.w3.org/1999/xlink" x="0px" y="0px"
	 viewBox="0 0 480.17 480.17" style="enable-background:new 0 0 480.17 480.17;" xml:space="preserve">
<path style="fill:#BDDBFF;" d="M344.064,472.085h-336v-368l96-96h240V472.085z"/>
<g>
	<path style="fill:#FFDA44;" d="M432.064,200.085c-22.091,0-40,17.909-40,40c0,22.091,17.909,40,40,40s40-17.909,40-40
		c0.053-22.038-17.769-39.947-39.808-40C432.192,200.085,432.128,200.085,432.064,200.085z M432.064,248.085c-4.418,0-8-3.582-8-8
		s3.582-8,8-8s8,3.582,8,8S436.482,248.085,432.064,248.085z"/>
	<path style="fill:#FFDA44;" d="M272.064,360.085c-22.091,0-40,17.909-40,40s17.909,40,40,40s40-17.909,40-40
		c0.053-22.038-17.769-39.947-39.808-40C272.192,360.085,272.128,360.085,272.064,360.085z M272.064,408.085c-4.418,0-8-3.582-8-8
		s3.582-8,8-8s8,3.582,8,8S276.482,408.085,272.064,408.085z"/>
	<path style="fill:#FFDA44;" d="M268.016,36.037c-22.091,0-40,17.909-40,40s17.909,40,40,40s40-17.909,40-40l0,0
		C308.016,53.946,290.107,36.037,268.016,36.037z M273.664,81.685c-3.124,3.125-8.189,3.125-11.314,0.002
		c-3.125-3.124-3.125-8.189-0.002-11.314c3.124-3.125,8.189-3.125,11.314-0.002c0.001,0.001,0.001,0.001,0.002,0.002
		C276.787,73.497,276.787,78.561,273.664,81.685z"/>
	<circle style="fill:#FFDA44;" cx="432.064" cy="240.085" r="8"/>
	<path style="fill:#FFDA44;" d="M262.36,70.381c-3.125,3.124-3.125,8.189-0.002,11.314c3.124,3.125,8.189,3.125,11.314,0.002
		s3.125-8.189,0.002-11.314c-0.001-0.001-0.001-0.001-0.002-0.002C270.548,67.258,265.484,67.258,262.36,70.381z"/>
	<path style="fill:#FFDA44;" d="M228.016,404.133c0,22.091,17.909,40,40,40s40-17.909,40-40s-17.909-40-40-40
		S228.016,382.042,228.016,404.133z M273.672,409.789c-3.124,3.125-8.189,3.125-11.314,0.002c-3.125-3.124-3.125-8.189-0.002-11.314
		s8.189-3.125,11.314-0.002c0.001,0.001,0.001,0.001,0.002,0.002c3.121,3.126,3.117,8.19-0.008,11.312H273.672z"/>
	<path style="fill:#FFDA44;" d="M262.36,398.485c-3.125,3.124-3.125,8.189-0.002,11.314c3.124,3.125,8.189,3.125,11.314,0.002
		s3.125-8.189,0.002-11.314c-0.001-0.001-0.001-0.001-0.002-0.002C270.548,395.362,265.484,395.362,262.36,398.485z"/>
</g>
<path style="fill:#57A4FF;" d="M104.064,8.085l-96,96h96V8.085z"/>
<path style="fill:#FFDA44;" d="M264.064,32.085c-22.091,0-40,17.909-40,40s17.909,40,40,40s40-17.909,40-40
	c0.053-22.038-17.769-39.947-39.808-40C264.192,32.085,264.128,32.085,264.064,32.085z M264.064,80.085c-4.418,0-8-3.582-8-8
	s3.582-8,8-8s8,3.582,8,8S268.482,80.085,264.064,80.085z"/>
<g>
	<path style="fill:#231F20;" d="M344.064,359.853c-4.418,0-8,3.582-8,8v96.232h-320v-352h88c4.418,0,8-3.582,8-8v-88h224v95.816
		c0,4.418,3.582,8,8,8s8-3.582,8-8V8.085c0-4.418-3.582-8-8-8h-240c-0.152,0-0.288,0.08-0.44,0.088
		c-0.742,0.039-1.475,0.185-2.176,0.432c-0.232,0.08-0.448,0.144-0.672,0.24c-0.89,0.384-1.704,0.926-2.4,1.6l-96,96
		c-0.671,0.678-1.213,1.472-1.6,2.344c-0.112,0.248-0.176,0.496-0.264,0.752c-0.231,0.663-0.368,1.355-0.408,2.056
		c0,0.176-0.104,0.328-0.104,0.504v367.984c0,4.418,3.582,8,8,8h336.064c4.418,0,8-3.582,8-8V367.853
		C352.064,363.435,348.482,359.853,344.064,359.853z M96.064,27.397v68.688H27.376L96.064,27.397z"/>
	<path style="fill:#231F20;" d="M432.064,192.085c-9.96,0-19.671,3.12-27.768,8.92l-97.2-97.2
		c15.42-21.667,10.355-51.732-11.312-67.151c-21.667-15.42-51.732-10.355-67.151,11.312c-15.42,21.667-10.355,51.732,11.312,67.151
		c16.713,11.894,39.126,11.894,55.839,0l97.2,97.2c-11.894,16.602-11.894,38.934,0,55.536l-97.2,97.2
		c-21.667-15.42-51.732-10.355-67.151,11.312s-10.355,51.732,11.312,67.151c21.667,15.42,51.732,10.355,67.151-11.312
		c11.894-16.713,11.894-39.126,0-55.839l97.2-97.2c21.583,15.392,51.558,10.373,66.95-11.21s10.373-51.558-11.21-66.95
		C451.873,195.183,442.091,192.064,432.064,192.085L432.064,192.085z M268.016,108.037c-17.673,0-32-14.327-32-32s14.327-32,32-32
		s32,14.327,32,32S285.689,108.037,268.016,108.037z M268.016,436.133c-17.673,0-32-14.327-32-32s14.327-32,32-32s32,14.327,32,32
		S285.689,436.133,268.016,436.133z M432.064,272.085c-17.673,0-32-14.327-32-32c0-17.673,14.327-32,32-32s32,14.327,32,32
		C464.064,257.758,449.737,272.085,432.064,272.085z"/>
	<circle style="fill:#231F20;" cx="432.064" cy="240.085" r="16"/>
	<path style="fill:#231F20;" d="M279.328,64.725c-6.247-6.249-16.378-6.251-22.627-0.003s-6.251,16.378-0.003,22.627
		s16.378,6.251,22.627,0.003c0.001-0.001,0.002-0.002,0.003-0.003C285.574,81.101,285.574,70.973,279.328,64.725z"/>
	<path style="fill:#231F20;" d="M256.696,392.821c-6.247,6.25-6.246,16.381,0.004,22.628s16.381,6.246,22.628-0.004
		c6.247-6.252,6.244-16.385-0.008-22.632c-6.252-6.247-16.385-6.244-22.632,0.008H256.696z"/>
	<path style="fill:#231F20;" d="M240.064,232.085h16v16h-16V232.085z"/>
	<path style="fill:#231F20;" d="M216.064,232.085h16v16h-16V232.085z"/>
	<path style="fill:#231F20;" d="M264.064,232.085h16v16h-16V232.085z"/>
	<path style="fill:#231F20;" d="M288.064,232.085h16v16h-16V232.085z"/>
	<path style="fill:#231F20;" d="M312.064,232.085h16v16h-16V232.085z"/>
	<path style="fill:#231F20;" d="M336.064,232.085h16v16h-16V232.085z"/>
	<path style="fill:#231F20;" d="M360.064,232.085h16v16h-16V232.085z"/>
	<path style="fill:#231F20;" d="M80.064,240.085c0.069-37.619,20.4-72.283,53.2-90.704c3.853-2.165,5.221-7.043,3.056-10.896
		c-2.165-3.853-7.043-5.221-10.896-3.056c-57.8,32.344-78.436,105.421-46.091,163.221c10.814,19.324,26.767,35.277,46.091,46.091
		c3.853,2.165,8.731,0.797,10.896-3.056c2.165-3.853,0.797-8.731-3.056-10.896C100.464,312.368,80.133,277.704,80.064,240.085z"/>
	<path style="fill:#231F20;" d="M145.336,318.085c4.418,0.005,8.004-3.573,8.009-7.991c0.003-2.908-1.571-5.588-4.113-7.001
		c-34.798-19.243-47.409-63.052-28.166-97.85c6.553-11.85,16.315-21.613,28.166-28.166c3.862-2.147,5.251-7.018,3.104-10.88
		c-2.147-3.862-7.018-5.251-10.88-3.104l0,0c-42.521,23.537-57.912,77.088-34.375,119.609c8.003,14.459,19.916,26.371,34.375,34.375
		C142.643,317.737,143.978,318.084,145.336,318.085z"/>
	<path style="fill:#231F20;" d="M161.336,290.405c4.418,0.005,8.004-3.572,8.009-7.991c0.003-2.938-1.603-5.641-4.185-7.041
		c-19.489-10.477-26.795-34.77-16.317-54.259c3.721-6.922,9.396-12.596,16.317-16.317c3.884-2.108,5.324-6.964,3.216-10.848
		c-2.108-3.884-6.964-5.324-10.848-3.216l0,0c-27.256,14.691-37.443,48.695-22.752,75.952c5.198,9.644,13.108,17.554,22.752,22.752
		C158.697,290.071,160.006,290.404,161.336,290.405z"/>
	<path style="fill:#231F20;" d="M208.064,240.085c0-13.255-10.745-24-24-24c-13.255,0-24,10.745-24,24c0,13.255,10.745,24,24,24
		C197.319,264.085,208.064,253.34,208.064,240.085z M176.064,240.085c0-4.418,3.582-8,8-8s8,3.582,8,8s-3.582,8-8,8
		S176.064,244.503,176.064,240.085z"/>
</g>
<g>
</g>
<g>
</g>
<g>
</g>
<g>
</g>
<g>
</g>
<g>
</g>
<g>
</g>
<g>
</g>
<g>
</g>
<g>
</g>
<g>
</g>
<g>
</g>
<g>
</g>
<g>
</g>
<g>
</g>
</svg>
