<?xml version="1.0" encoding="iso-8859-1"?>
<!-- Generator: Adobe Illustrator 19.0.0, SVG Export Plug-In . SVG Version: 6.00 Build 0)  -->
<svg version="1.1" id="Capa_1" xmlns="http://www.w3.org/2000/svg" xmlns:xlink="http://www.w3.org/1999/xlink" x="0px" y="0px"
	 viewBox="0 0 480 480" style="enable-background:new 0 0 480 480;" xml:space="preserve">
<path style="fill:#FFDA44;" d="M168,288v184h304V288H168z"/>
<path style="fill:#FFF200;" d="M288,256H168v32h160L288,256z"/>
<path style="fill:#FFDA44;" d="M8,224h304V40H8V224z"/>
<path style="fill:#FFF200;" d="M8,40h160L128,8H8V40z"/>
<g>
	<path style="fill:#231F20;" d="M330.808,280l-40-32H160v232h320V280H330.808z M176,264h109.192l20,16H176V264z M464,464H176V296
		h288V464z"/>
	<path style="fill:#231F20;" d="M312,440h16v16h-16V440z"/>
	<path style="fill:#231F20;" d="M344,440h16v16h-16V440z"/>
	<path style="fill:#231F20;" d="M376,440h16v16h-16V440z"/>
	<path style="fill:#231F20;" d="M408,440h16v16h-16V440z"/>
	<path style="fill:#231F20;" d="M440,440h16v16h-16V440z"/>
	<path style="fill:#231F20;" d="M280,440h16v16h-16V440z"/>
	<path style="fill:#231F20;" d="M248,440h16v16h-16V440z"/>
	<path style="fill:#231F20;" d="M216,440h16v16h-16V440z"/>
	<path style="fill:#231F20;" d="M184,440h16v16h-16V440z"/>
	<path style="fill:#231F20;" d="M170.808,32l-40-32H0v232h320V32H170.808z M16,16h109.192l20,16H16V16z M304,216H16V48h288V216z"/>
	<path style="fill:#231F20;" d="M152,192h16v16h-16V192z"/>
	<path style="fill:#231F20;" d="M184,192h16v16h-16V192z"/>
	<path style="fill:#231F20;" d="M216,192h16v16h-16V192z"/>
	<path style="fill:#231F20;" d="M248,192h16v16h-16V192z"/>
	<path style="fill:#231F20;" d="M280,192h16v16h-16V192z"/>
	<path style="fill:#231F20;" d="M120,192h16v16h-16V192z"/>
	<path style="fill:#231F20;" d="M88,192h16v16H88V192z"/>
	<path style="fill:#231F20;" d="M56,192h16v16H56V192z"/>
	<path style="fill:#231F20;" d="M24,192h16v16H24V192z"/>
	<path style="fill:#231F20;" d="M480,104h-16V16h-88V0h104V104z"/>
	<path style="fill:#231F20;" d="M440,24h16v16h-16V24z"/>
	<path style="fill:#231F20;" d="M416,24h16v16h-16V24z"/>
	<path style="fill:#231F20;" d="M440,48h16v16h-16V48z"/>
	<path style="fill:#231F20;" d="M104,480H0V376h16v88h88V480z"/>
	<path style="fill:#231F20;" d="M24,440h16v16H24V440z"/>
	<path style="fill:#231F20;" d="M48,440h16v16H48V440z"/>
	<path style="fill:#231F20;" d="M24,416h16v16H24V416z"/>
</g>
<g>
</g>
<g>
</g>
<g>
</g>
<g>
</g>
<g>
</g>
<g>
</g>
<g>
</g>
<g>
</g>
<g>
</g>
<g>
</g>
<g>
</g>
<g>
</g>
<g>
</g>
<g>
</g>
<g>
</g>
</svg>
