<?xml version="1.0" encoding="iso-8859-1"?>
<!-- Generator: Adobe Illustrator 19.0.0, SVG Export Plug-In . SVG Version: 6.00 Build 0)  -->
<svg version="1.1" id="Capa_1" xmlns="http://www.w3.org/2000/svg" xmlns:xlink="http://www.w3.org/1999/xlink" x="0px" y="0px"
	 viewBox="0 0 480.033 480.033" style="enable-background:new 0 0 480.033 480.033;" xml:space="preserve">
<path style="fill:#FFDA44;" d="M40.017,472.033h400c17.673,0,32-14.327,32-32v-16h-168l-16,16h-96l-16-16h-168v16
	C8.017,457.706,22.343,472.033,40.017,472.033z"/>
<path style="fill:#EBE5DD;" d="M192.017,440.033h96l16-16h152v-256h-432v256h152L192.017,440.033z M48.017,192.033h384H48.017z
	 M48.017,320.033v80h384h-384V320.033z"/>
<g>
	<path style="fill:#231F20;" d="M56.017,272.033h-16v-88h400v87.528h-16v-71.528h-368V272.033z"/>
	<path style="fill:#231F20;" d="M424.017,288.033h16v16h-16V288.033z"/>
	<path style="fill:#231F20;" d="M40.017,288.033h16v16h-16V288.033z"/>
	<path style="fill:#231F20;" d="M72.017,328.033h16v32h-16V328.033z"/>
	<path style="fill:#231F20;" d="M104.017,312.033h16v48h-16V312.033z"/>
	<path style="fill:#231F20;" d="M136.017,296.033h16v64h-16V296.033z"/>
	<path style="fill:#231F20;" d="M168.017,328.033h16v32h-16V328.033z"/>
	<path style="fill:#231F20;" d="M200.017,296.033h16v64h-16V296.033z"/>
	<path style="fill:#231F20;" d="M392.017,264.033h16v96h-16V264.033z"/>
	<path style="fill:#231F20;" d="M360.017,280.033h16v80h-16V280.033z"/>
	<path style="fill:#231F20;" d="M328.017,312.033h16v48h-16V312.033z"/>
	<path style="fill:#231F20;" d="M296.017,296.033h16v64h-16V296.033z"/>
	<path style="fill:#231F20;" d="M264.017,280.033h16v80h-16V280.033z"/>
	<path style="fill:#231F20;" d="M232.017,312.033h16v48h-16V312.033z"/>
	<path style="fill:#231F20;" d="M80.017,216.033h96v16h-96V216.033z"/>
	<path style="fill:#231F20;" d="M80.017,240.033h48v16h-48V240.033z"/>
	<path style="fill:#231F20;" d="M240.017,24.033c-4.418,0-8,3.582-8,8s3.582,8,8,8c21.941-0.065,41.111,14.81,46.496,36.08
		c0.893,3.55,4.083,6.041,7.744,6.048c0.661-0.001,1.319-0.082,1.96-0.24c4.285-1.077,6.886-5.424,5.809-9.709
		c0-0.001-0.001-0.002-0.001-0.003C294.858,43.825,269.292,23.961,240.017,24.033z"/>
	<path style="fill:#231F20;" d="M360.017,56.033c-10.376-0.012-20.63,2.238-30.048,6.592
		c-18.407-49.679-73.602-75.03-123.281-56.623c-26.226,9.717-46.906,30.397-56.623,56.623
		c-36.136-16.595-78.883-0.754-95.478,35.382c-4.326,9.419-6.567,19.661-6.57,30.026c-0.002,2.997,0.177,5.992,0.536,8.968
		c0.535,4.387,4.525,7.511,8.912,6.976s7.511-4.525,6.976-8.912c-0.283-2.333-0.424-4.682-0.424-7.032
		c0.035-30.913,25.087-55.965,56-56c17.152,0.095,33.336,7.966,44,21.4c2.783,3.432,7.821,3.957,11.253,1.174
		c3.37-2.734,3.947-7.656,1.299-11.094c-3.691-4.553-7.931-8.632-12.624-12.144c13.653-42.021,58.785-65.017,100.805-51.365
		c26.086,8.475,46.012,29.724,52.795,56.301c0.213,0.791,0.548,1.544,0.992,2.232c0.04,0.064,0.04,0.136,0.08,0.2
		c0.548,0.814,1.242,1.52,2.048,2.08c0.274,0.165,0.557,0.315,0.848,0.448c0.543,0.314,1.124,0.559,1.728,0.728
		c0.362,0.093,0.731,0.155,1.104,0.184c0.308,0.073,0.621,0.126,0.936,0.16c0.354-0.019,0.707-0.062,1.056-0.128
		c0.2,0,0.384,0,0.584-0.072s0.216,0,0.32-0.04c0.407-0.152,0.801-0.34,1.176-0.56c0.433-0.132,0.854-0.303,1.256-0.512
		c9.02-5.895,19.568-9.021,30.344-8.992c30.913,0.035,55.965,25.087,56,56c0,2.35-0.141,4.699-0.424,7.032
		c-0.535,4.387,2.589,8.377,6.976,8.912c4.387,0.535,8.377-2.589,8.912-6.976c0.359-2.976,0.538-5.971,0.536-8.968
		C431.968,88.289,399.761,56.082,360.017,56.033L360.017,56.033z"/>
	<path style="fill:#231F20;" d="M472.017,416.033h-8v-248c0-4.418-3.582-8-8-8h-432c-4.418,0-8,3.582-8,8v248h-8
		c-4.418,0-8,3.582-8,8v16c0.026,22.08,17.92,39.974,40,40h400c22.08-0.026,39.974-17.92,40-40v-16
		C480.017,419.615,476.435,416.033,472.017,416.033z M32.017,176.033h416v240h-144c-1.049,0.005-2.087,0.214-3.056,0.616
		c-0.972,0.4-1.855,0.987-2.6,1.728l-13.656,13.656h-89.376l-13.656-13.656c-0.745-0.741-1.628-1.328-2.6-1.728
		c-0.969-0.402-2.007-0.611-3.056-0.616h-144L32.017,176.033z M464.017,440.033c0,13.255-10.745,24-24,24h-400
		c-13.255,0-24-10.745-24-24v-8h156.688l13.656,13.656c1.5,1.5,3.534,2.344,5.656,2.344h96c2.122,0,4.156-0.844,5.656-2.344
		l13.656-13.656h156.688V440.033z"/>
	<path style="fill:#231F20;" d="M440.017,320.033h-16v72h-368v-72h-16v88h400V320.033z"/>
	<path style="fill:#231F20;" d="M168.017,368.033h16v16h-16V368.033z"/>
	<path style="fill:#231F20;" d="M200.017,368.033h16v16h-16V368.033z"/>
	<path style="fill:#231F20;" d="M232.017,368.033h16v16h-16V368.033z"/>
	<path style="fill:#231F20;" d="M264.017,368.033h16v16h-16V368.033z"/>
	<path style="fill:#231F20;" d="M296.017,368.033h16v16h-16V368.033z"/>
	<path style="fill:#231F20;" d="M328.017,368.033h16v16h-16V368.033z"/>
	<path style="fill:#231F20;" d="M360.017,368.033h16v16h-16V368.033z"/>
	<path style="fill:#231F20;" d="M392.017,368.033h16v16h-16V368.033z"/>
	<path style="fill:#231F20;" d="M136.017,368.033h16v16h-16V368.033z"/>
	<path style="fill:#231F20;" d="M104.017,368.033h16v16h-16V368.033z"/>
	<path style="fill:#231F20;" d="M72.017,368.033h16v16h-16V368.033z"/>
</g>
<g>
</g>
<g>
</g>
<g>
</g>
<g>
</g>
<g>
</g>
<g>
</g>
<g>
</g>
<g>
</g>
<g>
</g>
<g>
</g>
<g>
</g>
<g>
</g>
<g>
</g>
<g>
</g>
<g>
</g>
</svg>
