<?xml version="1.0" encoding="iso-8859-1"?>
<!-- Generator: Adobe Illustrator 19.0.0, SVG Export Plug-In . SVG Version: 6.00 Build 0)  -->
<svg version="1.1" id="Capa_1" xmlns="http://www.w3.org/2000/svg" xmlns:xlink="http://www.w3.org/1999/xlink" x="0px" y="0px"
	 viewBox="0 0 480 480" style="enable-background:new 0 0 480 480;" xml:space="preserve">
<path style="fill:#EBE5DD;" d="M216,192h-40l-18.744-18.744c-24.993,24.994-65.515,24.995-90.51,0.002s-24.995-65.515-0.002-90.51
	s65.515-24.995,90.51-0.002C169.256,94.748,175.999,111.026,176,128c0.023,16.978-6.723,33.266-18.744,45.256L176,192H216V8H8v240
	h208V192z"/>
<g>
	<path style="fill:#FFDA44;" d="M216,248H8v48h208V248z"/>
	<path style="fill:#FFDA44;" d="M112,64c-35.346,0.001-63.999,28.656-63.998,64.002c0.001,35.346,28.656,63.999,64.002,63.998
		c16.972-0.001,33.25-6.743,45.251-18.744L112,128l45.256,45.256c24.994-24.993,24.995-65.515,0.002-90.51
		C145.255,70.743,128.975,63.999,112,64z M80,128c0-17.673,14.327-32,32-32C94.327,96,80,110.327,80,128z"/>
</g>
<path style="fill:#EBE5DD;" d="M264,424h208v-56h-40l-18.744-18.744c-24.993,24.994-65.515,24.995-90.51,0.002
	c-24.994-24.993-24.995-65.515-0.002-90.51c24.993-24.994,65.515-24.995,90.51-0.002C425.256,270.748,431.999,287.026,432,304
	c0.023,16.978-6.723,33.266-18.744,45.256L432,368h40V184H264V424z"/>
<g>
	<path style="fill:#FFDA44;" d="M264,472h208v-48H264V472z"/>
	<path style="fill:#FFDA44;" d="M368,240c-35.346,0.001-63.999,28.656-63.998,64.002s28.656,63.999,64.002,63.998
		c16.973-0.001,33.25-6.743,45.251-18.744L368,304l45.256,45.256c24.994-24.993,24.995-65.515,0.002-90.51
		C401.255,246.743,384.975,239.999,368,240L368,240z M336,304c0-17.673,14.327-32,32-32C350.327,272,336,286.327,336,304z"/>
</g>
<g>
	<path style="fill:#231F20;" d="M224,296V8c0-4.418-3.582-8-8-8H8C3.582,0,0,3.582,0,8v288c0,4.418,3.582,8,8,8h208
		C220.418,304,224,300.418,224,296z M16,16h192v168h-28.688L168.2,172.888c24.892-31.14,19.828-76.563-11.312-101.455
		S80.325,51.605,55.433,82.745S35.605,159.308,66.745,184.2c26.355,21.067,63.788,21.067,90.143,0l13.456,13.456
		c1.5,1.5,3.534,2.344,5.656,2.344h32v40H16V16z M117.656,122.344c-3.178-3.069-8.243-2.981-11.312,0.197
		c-2.994,3.1-2.994,8.015,0,11.115l39.128,39.144c-24.861,18.605-60.097,13.533-78.702-11.328S53.237,101.375,78.098,82.77
		s60.097-13.533,78.702,11.328c14.946,19.971,14.946,47.402,0,67.374L117.656,122.344z M208,288H16v-32h192V288z"/>
	<path style="fill:#231F20;" d="M184,216h16v16h-16V216z"/>
	<path style="fill:#231F20;" d="M24,216h16v16H24V216z"/>
	<path style="fill:#231F20;" d="M24,24h16v16H24V24z"/>
	<path style="fill:#231F20;" d="M184,24h16v16h-16V24z"/>
	<path style="fill:#231F20;" d="M64,264h16v16H64V264z"/>
	<path style="fill:#231F20;" d="M32,264h16v16H32V264z"/>
	<path style="fill:#231F20;" d="M112,88c-22.08,0.026-39.974,17.92-40,40c0,4.418,3.582,8,8,8s8-3.582,8-8c0-13.255,10.745-24,24-24
		c4.418,0,8-3.582,8-8S116.418,88,112,88z"/>
	<path style="fill:#231F20;" d="M96,264h96v16H96V264z"/>
	<path style="fill:#231F20;" d="M472,176H264c-4.418,0-8,3.582-8,8v288c0,4.418,3.582,8,8,8h208c4.418,0,8-3.582,8-8V184
		C480,179.582,476.418,176,472,176z M272,192h192v168h-28.688L424.2,348.888c24.892-31.14,19.828-76.563-11.312-101.455
		s-76.563-19.828-101.455,11.312s-19.828,76.563,11.312,101.455c26.355,21.067,63.788,21.067,90.143,0l13.456,13.456
		c1.5,1.5,3.534,2.344,5.656,2.344h32v40H272V192z M373.656,298.344c-3.178-3.07-8.242-2.982-11.312,0.196
		c-2.995,3.1-2.995,8.016,0,11.116l39.128,39.144c-24.861,18.605-60.097,13.533-78.702-11.328
		c-18.605-24.861-13.533-60.097,11.328-78.702c24.861-18.605,60.097-13.533,78.702,11.328c14.946,19.971,14.946,47.402,0,67.374
		L373.656,298.344z M464,464H272v-32h192V464z"/>
	<path style="fill:#231F20;" d="M440,392h16v16h-16V392z"/>
	<path style="fill:#231F20;" d="M280,392h16v16h-16V392z"/>
	<path style="fill:#231F20;" d="M280,200h16v16h-16V200z"/>
	<path style="fill:#231F20;" d="M440,200h16v16h-16V200z"/>
	<path style="fill:#231F20;" d="M320,440h16v16h-16V440z"/>
	<path style="fill:#231F20;" d="M288,440h16v16h-16V440z"/>
	<path style="fill:#231F20;" d="M368,264c-22.08,0.026-39.974,17.92-40,40c0,4.418,3.582,8,8,8s8-3.582,8-8
		c0-13.255,10.745-24,24-24c4.418,0,8-3.582,8-8S372.418,264,368,264z"/>
	<path style="fill:#231F20;" d="M352,440h96v16h-96V440z"/>
	<path style="fill:#231F20;" d="M287.592,76.28L267.312,56H336c13.255,0,24,10.745,24,24v80h16V80c-0.026-22.08-17.92-39.974-40-40
		h-68.688l20.28-20.28L276.28,8.408L236.688,48l39.592,39.592L287.592,76.28z"/>
	<path style="fill:#231F20;" d="M192.408,403.72l20.28,20.28H144c-13.255,0-24-10.745-24-24v-80h-16v80
		c0.026,22.08,17.92,39.974,40,40h68.688l-20.28,20.28l11.312,11.312L243.312,432l-39.592-39.592L192.408,403.72z"/>
</g>
<g>
</g>
<g>
</g>
<g>
</g>
<g>
</g>
<g>
</g>
<g>
</g>
<g>
</g>
<g>
</g>
<g>
</g>
<g>
</g>
<g>
</g>
<g>
</g>
<g>
</g>
<g>
</g>
<g>
</g>
</svg>
