<?xml version="1.0" encoding="iso-8859-1"?>
<!-- Generator: Adobe Illustrator 19.0.0, SVG Export Plug-In . SVG Version: 6.00 Build 0)  -->
<svg version="1.1" id="Capa_1" xmlns="http://www.w3.org/2000/svg" xmlns:xlink="http://www.w3.org/1999/xlink" x="0px" y="0px"
	 viewBox="0 0 511.999 511.999" style="enable-background:new 0 0 511.999 511.999;" xml:space="preserve">
<path style="fill:#EDEBED;" d="M480.452,55.596H31.548C18.267,55.596,7.5,66.363,7.5,79.644v56.113h497V79.644
	C504.5,66.363,493.733,55.596,480.452,55.596z"/>
<path style="fill:#FFFFFF;" d="M480.452,456.402H31.548c-13.282,0-24.048-10.767-24.048-24.048V135.757h497v296.597
	C504.5,445.635,493.733,456.402,480.452,456.402z"/>
<path style="fill:#A5CDFF;" d="M464.419,360.209H47.581c-4.427,0-8.016-3.589-8.016-8.016V175.838c0-4.427,3.589-8.016,8.016-8.016
	H464.42c4.427,0,8.016,3.589,8.016,8.016v176.355C472.435,356.62,468.847,360.209,464.419,360.209z"/>
<path style="fill:#FFFFFF;" d="M303.785,277.935l-63.88,36.503c-10.688,6.107-23.986-1.61-23.986-13.92v-73.005
	c0-12.31,13.298-20.027,23.986-13.92l63.88,36.503C314.556,256.25,314.556,271.78,303.785,277.935z"/>
<circle style="fill:#A5CDFF;" cx="103.69" cy="408.309" r="16.03"/>
<path style="fill:#8CB4EB;" d="M175.839,336.16c-61.981,0-112.226-50.245-112.226-112.226v-56.113H47.581
	c-4.427,0-8.016,3.589-8.016,8.016v176.355c0,4.427,3.589,8.016,8.016,8.016H464.42c4.427,0,8.016-3.589,8.016-8.016V336.16H175.839
	z"/>
<path d="M480.452,48.096H31.548C14.152,48.096,0,62.248,0,79.645v352.709c0,17.396,14.152,31.549,31.548,31.549h448.903
	c17.396,0,31.548-14.153,31.548-31.549V79.645C512,62.248,497.848,48.096,480.452,48.096z M497,432.353
	c0,9.125-7.423,16.549-16.548,16.549H31.548c-9.125,0-16.548-7.424-16.548-16.549V79.645c0-9.125,7.423-16.549,16.548-16.549
	h448.903c9.125,0,16.548,7.424,16.548,16.549L497,432.353L497,432.353z"/>
<path d="M472.436,128.257H39.564c-4.142,0-7.5,3.358-7.5,7.5c0,4.143,3.358,7.5,7.5,7.5h432.871c4.142,0,7.5-3.357,7.5-7.5
	C479.936,131.615,476.578,128.257,472.436,128.257z"/>
<path d="M127.742,103.177H360.21c4.142,0,7.5-3.358,7.5-7.5c0-4.143-3.358-7.5-7.5-7.5H127.742c-4.142,0-7.5,3.357-7.5,7.5
	C120.242,99.818,123.6,103.177,127.742,103.177z"/>
<path d="M39.645,103.177c4.142,0,7.5-3.358,7.5-7.5c0-4.143-3.358-7.5-7.5-7.5h-0.08c-4.142,0-7.46,3.357-7.46,7.5
	C32.104,99.818,35.502,103.177,39.645,103.177z"/>
<path d="M87.741,103.177c4.142,0,7.5-3.358,7.5-7.5c0-4.143-3.358-7.5-7.5-7.5h-0.08c-4.142,0-7.46,3.357-7.46,7.5
	C80.201,99.818,83.599,103.177,87.741,103.177z"/>
<path d="M63.693,103.177c4.142,0,7.5-3.358,7.5-7.5c0-4.143-3.358-7.5-7.5-7.5h-0.08c-4.142,0-7.46,3.357-7.46,7.5
	C56.153,99.818,59.551,103.177,63.693,103.177z"/>
<path d="M472.436,88.177h-72.145c-4.142,0-7.5,3.357-7.5,7.5c0,4.142,3.358,7.5,7.5,7.5h72.145c4.142,0,7.5-3.358,7.5-7.5
	C479.936,91.534,476.578,88.177,472.436,88.177z"/>
<path d="M47.581,367.709h8.012c4.142,0,7.5-3.358,7.5-7.5c0-4.143-3.358-7.5-7.5-7.5h-8.012c-0.285,0-0.516-0.231-0.516-0.517
	V175.838c0-0.285,0.231-0.517,0.516-0.517h376.757c4.142,0,7.5-3.357,7.5-7.5c0-4.142-3.358-7.5-7.5-7.5H47.581
	c-8.556,0-15.516,6.961-15.516,15.517v176.354C32.064,360.748,39.025,367.709,47.581,367.709z"/>
<path d="M464.419,160.321h-8.012c-4.142,0-7.5,3.358-7.5,7.5c0,4.143,3.358,7.5,7.5,7.5h8.012c0.285,0,0.516,0.231,0.516,0.517
	v176.354c0,0.285-0.231,0.517-0.516,0.517H87.662c-4.142,0-7.5,3.357-7.5,7.5c0,4.142,3.358,7.5,7.5,7.5h376.757
	c8.556,0,15.516-6.961,15.516-15.517V175.838C479.936,167.282,472.975,160.321,464.419,160.321z"/>
<path d="M472.436,400.806H151.788c-4.142,0-7.5,3.357-7.5,7.5c0,4.142,3.358,7.5,7.5,7.5h320.648c4.142,0,7.5-3.358,7.5-7.5
	C479.936,404.163,476.578,400.806,472.436,400.806z"/>
<path d="M103.693,384.773c-10.353,0-19.16,6.724-22.3,16.032H39.564c-4.142,0-7.5,3.357-7.5,7.5c0,4.142,3.358,7.5,7.5,7.5h41.829
	c3.139,9.308,11.946,16.032,22.3,16.032c12.976,0,23.532-10.557,23.532-23.532S116.669,384.773,103.693,384.773z M103.693,416.838
	c-4.705,0-8.532-3.828-8.532-8.532c0-4.705,3.828-8.532,8.532-8.532s8.532,3.827,8.532,8.532
	C112.226,413.01,108.398,416.838,103.693,416.838z"/>
<path d="M243.627,207.081c-7.368-4.21-16.148-4.181-23.487,0.078s-11.721,11.868-11.721,20.354v73.005
	c0,8.486,4.382,16.095,11.721,20.354c3.693,2.143,7.75,3.215,11.81,3.215c4.008,0,8.017-1.045,11.677-3.137l63.879-36.502
	c7.424-4.243,11.857-11.881,11.857-20.432c0-8.551-4.433-16.189-11.857-20.432L243.627,207.081z M300.064,271.423L300.064,271.423
	l-63.879,36.503c-3.848,2.2-7.236,0.713-8.516-0.028c-1.277-0.741-4.25-2.945-4.25-7.38v-73.005c0-4.435,2.972-6.638,4.25-7.38
	c0.78-0.452,2.346-1.183,4.324-1.183c1.262,0,2.692,0.297,4.192,1.154l63.879,36.503c3.88,2.217,4.299,5.919,4.299,7.408
	S303.944,269.206,300.064,271.423z"/>
<g>
</g>
<g>
</g>
<g>
</g>
<g>
</g>
<g>
</g>
<g>
</g>
<g>
</g>
<g>
</g>
<g>
</g>
<g>
</g>
<g>
</g>
<g>
</g>
<g>
</g>
<g>
</g>
<g>
</g>
</svg>
