<?xml version="1.0" encoding="iso-8859-1"?>
<!-- Generator: Adobe Illustrator 19.0.0, SVG Export Plug-In . SVG Version: 6.00 Build 0)  -->
<svg version="1.1" id="Capa_1" xmlns="http://www.w3.org/2000/svg" xmlns:xlink="http://www.w3.org/1999/xlink" x="0px" y="0px"
	 viewBox="0 0 512 512" style="enable-background:new 0 0 512 512;" xml:space="preserve">
<path style="fill:#6F6571;" d="M488.468,424.339H23.532c-8.854,0-16.032-7.178-16.032-16.032V103.693
	c0-8.854,7.178-16.032,16.032-16.032h464.935c8.854,0,16.032,7.178,16.032,16.032v304.613
	C504.5,417.161,497.322,424.339,488.468,424.339z"/>
<path style="fill:#FFE17D;" d="M464.419,328.145H47.581c-4.427,0-8.016-3.589-8.016-8.016V127.742c0-4.427,3.589-8.016,8.016-8.016
	H464.42c4.427,0,8.016,3.589,8.016,8.016v192.387C472.435,324.556,468.847,328.145,464.419,328.145z"/>
<path style="fill:#FFD164;" d="M360.21,288.064H151.79c-35.417,0-64.129-28.712-64.129-64.129l0,0
	c0-35.417,28.712-64.129,64.129-64.129h208.42c35.417,0,64.129,28.712,64.129,64.129l0,0
	C424.339,259.353,395.627,288.064,360.21,288.064z"/>
<path style="fill:#FFFFFF;" d="M360.21,264.016H151.79c-22.136,0-40.081-17.945-40.081-40.081l0,0
	c0-22.136,17.945-40.081,40.081-40.081h208.42c22.136,0,40.081,17.945,40.081,40.081l0,0
	C400.29,246.071,382.346,264.016,360.21,264.016z"/>
<path style="fill:#5D5360;" d="M360.21,183.855h-96.197c-5.148,12.341-8.013,25.873-8.013,40.081
	c0,14.207,2.865,27.739,8.013,40.081h96.197c22.136,0,40.081-17.945,40.081-40.081S382.346,183.855,360.21,183.855z"/>
<g>
	<path style="fill:#4B3F4E;" d="M360.21,183.855h-50.017c-8.813,10.983-14.112,24.905-14.112,40.081s5.3,29.098,14.112,40.081
		h50.017c22.136,0,40.081-17.945,40.081-40.081S382.346,183.855,360.21,183.855z"/>
	<path style="fill:#4B3F4E;" d="M111.71,223.935c0,22.136,17.945,40.081,40.081,40.081h59.98
		c7.677-11.465,12.166-25.246,12.166-40.081s-4.489-28.615-12.166-40.081h-59.98C129.654,183.855,111.71,201.8,111.71,223.935z"/>
</g>
<path style="fill:#5D5360;" d="M388.266,392.274l-8.123-21.662c-2.347-6.257-8.328-10.403-15.011-10.403H146.868
	c-6.683,0-12.665,4.146-15.011,10.403l-8.123,21.662h-20.04c-35.417,0-64.129-28.712-64.129-64.129V87.661H23.532
	c-8.854,0-16.032,7.178-16.032,16.032v304.613c0,8.854,7.178,16.032,16.032,16.032h464.935c8.854,0,16.032-7.178,16.032-16.032
	v-16.032H388.266z"/>
<g>
	<circle style="fill:#EDEBED;" cx="151.79" cy="223.941" r="40.08"/>
	<circle style="fill:#EDEBED;" cx="360.21" cy="223.941" r="40.08"/>
</g>
<g>
	<circle style="fill:#FFFFFF;" cx="151.79" cy="223.94" r="16.03"/>
	<circle style="fill:#FFFFFF;" cx="360.21" cy="223.94" r="16.03"/>
</g>
<path d="M488.468,80.161H23.532C10.557,80.161,0,90.718,0,103.693v304.613c0,12.976,10.557,23.532,23.532,23.532h464.936
	c12.976,0,23.532-10.557,23.532-23.532V103.693C512,90.718,501.443,80.161,488.468,80.161z M122.532,416.839l16.347-43.593
	c1.242-3.312,4.453-5.536,7.989-5.536h218.263c3.537,0,6.748,2.225,7.989,5.536l16.347,43.593H122.532z M497,408.306
	c0,4.705-3.828,8.532-8.532,8.532h-82.98l-18.323-48.86c-3.425-9.133-12.28-15.269-22.034-15.269H146.869
	c-9.754,0-18.609,6.136-22.034,15.27l-18.323,48.86h-82.98c-4.705,0-8.532-3.828-8.532-8.532V103.693
	c0-4.705,3.828-8.532,8.532-8.532h464.936c4.705,0,8.532,3.828,8.532,8.532L497,408.306L497,408.306z"/>
<path d="M55.593,320.645h-8.012c-0.285,0-0.516-0.231-0.516-0.516V127.742c0-0.285,0.231-0.516,0.516-0.516h376.757
	c4.142,0,7.5-3.358,7.5-7.5s-3.358-7.5-7.5-7.5H47.581c-8.556,0-15.516,6.96-15.516,15.516v192.387
	c0,8.556,6.96,15.516,15.516,15.516h8.012c4.142,0,7.5-3.358,7.5-7.5S59.735,320.645,55.593,320.645z"/>
<path d="M464.419,112.226h-8.012c-4.142,0-7.5,3.358-7.5,7.5s3.358,7.5,7.5,7.5h8.012c0.285,0,0.516,0.231,0.516,0.516v192.387
	c0,0.285-0.231,0.516-0.516,0.516H87.662c-4.142,0-7.5,3.358-7.5,7.5s3.358,7.5,7.5,7.5h376.757c8.556,0,15.516-6.96,15.516-15.516
	V127.742C479.936,119.186,472.975,112.226,464.419,112.226z"/>
<path d="M151.791,176.355c-26.236,0-47.581,21.345-47.581,47.581s21.345,47.581,47.581,47.581H360.21
	c26.236,0,47.581-21.344,47.581-47.581s-21.345-47.581-47.581-47.581L151.791,176.355L151.791,176.355z M269.124,256.516
	c-3.733-10.422-5.624-21.358-5.624-32.581s1.892-22.159,5.625-32.581h56.457c-8.021,8.521-12.952,19.983-12.952,32.581
	s4.931,24.06,12.952,32.581H269.124z M186.419,256.516c8.022-8.521,12.952-19.982,12.952-32.581s-4.931-24.06-12.952-32.581h21.208
	c5.768,9.86,8.809,21.041,8.809,32.581c0,11.539-3.041,22.72-8.809,32.581H186.419z M224.474,191.355h28.851
	c-3.205,10.507-4.825,21.424-4.825,32.581c0,11.156,1.619,22.073,4.824,32.581h-28.85c4.572-10.183,6.962-21.242,6.962-32.581
	C231.436,212.596,229.045,201.537,224.474,191.355z M119.209,223.935c0-17.965,14.616-32.581,32.581-32.581
	s32.581,14.616,32.581,32.581s-14.616,32.581-32.581,32.581S119.209,241.901,119.209,223.935z M392.791,223.935
	c0,17.965-14.616,32.581-32.581,32.581s-32.581-14.615-32.581-32.581s14.616-32.581,32.581-32.581
	C378.175,191.355,392.791,205.97,392.791,223.935z"/>
<g>
</g>
<g>
</g>
<g>
</g>
<g>
</g>
<g>
</g>
<g>
</g>
<g>
</g>
<g>
</g>
<g>
</g>
<g>
</g>
<g>
</g>
<g>
</g>
<g>
</g>
<g>
</g>
<g>
</g>
</svg>
