<?xml version="1.0" encoding="iso-8859-1"?>
<!-- Generator: Adobe Illustrator 19.0.0, SVG Export Plug-In . SVG Version: 6.00 Build 0)  -->
<svg version="1.1" id="Capa_1" xmlns="http://www.w3.org/2000/svg" xmlns:xlink="http://www.w3.org/1999/xlink" x="0px" y="0px"
	 viewBox="0 0 511.999 511.999" style="enable-background:new 0 0 511.999 511.999;" xml:space="preserve">
<path style="fill:#6F6571;" d="M360.209,504.5h-208.42c-13.282,0-24.048-10.767-24.048-24.048V31.548
	c0-13.282,10.767-24.048,24.048-24.048h208.42c13.282,0,24.048,10.767,24.048,24.048v448.903
	C384.257,493.733,373.49,504.5,360.209,504.5z"/>
<path style="fill:#5D5360;" d="M127.741,479.91v0.541c0,13.281,10.767,24.048,24.048,24.048h208.42
	c13.281,0,24.048-11.308,24.048-24.59H127.741V479.91z"/>
<rect x="127.739" y="39.565" style="fill:#FFFFFF;" width="256.52" height="400.81"/>
<path style="fill:#B7B2B8;" d="M255.999,272.032L255.999,272.032c-22.044,0-40.081-18.036-40.081-40.081v-48.097
	c0-22.044,18.036-40.081,40.081-40.081l0,0c22.044,0,40.081,18.036,40.081,40.081v48.097
	C296.08,253.996,278.043,272.032,255.999,272.032z"/>
<path style="fill:#9C969E;" d="M239.967,231.952v-48.097c0-17.831,11.879-32.86,28.056-38.022c-3.822-1.22-7.811-2.058-12.024-2.058
	c-22.044,0-40.081,18.036-40.081,40.081v48.097c0,22.044,18.036,40.081,40.081,40.081c4.213,0,8.202-0.839,12.024-2.058
	C251.846,264.812,239.967,249.783,239.967,231.952z"/>
<path style="fill:#6F6571;" d="M215.918,231.952c0,22.044,18.036,40.081,40.081,40.081s40.081-18.036,40.081-40.081v-8.016h-80.161
	L215.918,231.952L215.918,231.952z"/>
<path style="fill:#5D5360;" d="M215.918,223.935v8.016c0,22.044,18.036,40.081,40.081,40.081c4.213,0,8.202-0.838,12.024-2.058l0,0
	c-16.178-5.162-28.056-20.191-28.056-38.022v-8.016L215.918,223.935L215.918,223.935z"/>
<path d="M360.208,0H151.79c-17.396,0-31.549,14.153-31.549,31.548v448.903c0,17.396,14.153,31.548,31.549,31.548h208.419
	c17.396,0,31.549-14.152,31.549-31.548V31.548C391.757,14.153,377.604,0,360.208,0z M360.208,497H151.79
	c-9.125,0-16.549-7.423-16.549-16.548v-32.581h24.566c4.142,0,7.5-3.358,7.5-7.5s-3.358-7.5-7.5-7.5h-24.566V47.064h192.906
	c4.142,0,7.5-3.358,7.5-7.5s-3.358-7.5-7.5-7.5H135.241v-0.516c0-9.125,7.424-16.548,16.549-16.548h208.419
	c9.125,0,16.549,7.424,16.549,16.548v0.516h-16.546c-4.142,0-7.5,3.358-7.5,7.5s3.358,7.5,7.5,7.5h16.546v385.807H191.869
	c-4.142,0-7.5,3.358-7.5,7.5s3.358,7.5,7.5,7.5h184.889v32.581C376.757,489.577,369.333,497,360.208,497z"/>
<path d="M272.031,464.936h-32.064c-4.142,0-7.5,3.358-7.5,7.5s3.358,7.5,7.5,7.5h32.064c4.142,0,7.5-3.358,7.5-7.5
	S276.173,464.936,272.031,464.936z"/>
<path d="M255.999,279.532c26.236,0,47.581-21.344,47.581-47.581v-48.097c0-26.236-21.345-47.581-47.581-47.581
	s-47.581,21.344-47.581,47.581v48.097C208.418,258.188,229.763,279.532,255.999,279.532z M255.999,264.532
	c-17.965,0-32.581-14.615-32.581-32.581v-0.516h65.161v0.516C288.58,249.917,273.964,264.532,255.999,264.532z M255.999,151.274
	c17.965,0,32.581,14.615,32.581,32.581v32.581h-65.161v-32.581C223.418,165.89,238.034,151.274,255.999,151.274z"/>
<path d="M248.499,311.233v33.461h-24.564c-4.142,0-7.5,3.358-7.5,7.5s3.358,7.5,7.5,7.5h64.129c4.142,0,7.5-3.358,7.5-7.5
	s-3.358-7.5-7.5-7.5h-24.565v-33.461c40.411-3.793,72.145-37.895,72.145-79.281v-8.016c0-4.142-3.358-7.5-7.5-7.5
	s-7.5,3.358-7.5,7.5v8.016c0,35.645-29,64.645-64.645,64.645s-64.645-29-64.645-64.645v-8.016c0-4.142-3.358-7.5-7.5-7.5
	s-7.5,3.358-7.5,7.5v8.016C176.354,273.338,208.088,307.439,248.499,311.233z"/>
<g>
</g>
<g>
</g>
<g>
</g>
<g>
</g>
<g>
</g>
<g>
</g>
<g>
</g>
<g>
</g>
<g>
</g>
<g>
</g>
<g>
</g>
<g>
</g>
<g>
</g>
<g>
</g>
<g>
</g>
</svg>
