<?xml version="1.0" encoding="iso-8859-1"?>
<!-- Generator: Adobe Illustrator 19.0.0, SVG Export Plug-In . SVG Version: 6.00 Build 0)  -->
<svg version="1.1" id="Capa_1" xmlns="http://www.w3.org/2000/svg" xmlns:xlink="http://www.w3.org/1999/xlink" x="0px" y="0px"
	 viewBox="0 0 512 512" style="enable-background:new 0 0 512 512;" xml:space="preserve">
<path style="fill:#DBD9DC;" d="M360.215,95.675V63.61c0-17.709-14.356-32.065-32.065-32.065H39.565v64.13L360.215,95.675
	L360.215,95.675z"/>
<path style="fill:#C9C6CA;" d="M39.566,31.545L39.566,31.545C21.856,31.545,7.5,45.902,7.5,63.61v320.649h64.13V63.61
	C71.63,45.902,57.274,31.545,39.566,31.545z"/>
<path style="fill:#DBD9DC;" d="M71.63,480.454H39.566V87.659c0-4.427,3.589-8.016,8.016-8.016H71.63V480.454z"/>
<rect x="71.631" y="79.641" style="fill:#EDEBED;" width="288.584" height="400.816"/>
<path style="fill:#FFE17D;" d="M304.528,376.621l-46.108,25.615l25.615-46.108c1.809-3.255,4.062-6.243,6.695-8.876l188.754-188.754
	c3.13-3.13,8.206-3.13,11.337,0l11.337,11.337c3.13,3.13,3.13,8.206,0,11.337L313.405,369.926
	C310.771,372.559,307.784,374.813,304.528,376.621z"/>
<path style="fill:#FFEDB1;" d="M290.732,347.253c-2.633,2.633-4.887,5.621-6.696,8.877l-25.615,46.108l46.108-25.615
	c3.256-1.809,6.243-4.062,8.876-6.696l1.699-1.699l-22.673-22.673L290.732,347.253z"/>
<path style="fill:#FF8087;" d="M485.154,198.177l17.004-17.004c3.131-3.13,3.131-8.206,0-11.337l-11.336-11.336
	c-3.131-3.13-8.206-3.13-11.337,0l-17.004,17.004L485.154,198.177z"/>
<path d="M258.423,409.737c1.244,0,2.497-0.309,3.64-0.944l46.109-25.615c3.864-2.147,7.41-4.821,10.537-7.948l188.755-188.755
	c6.049-6.05,6.049-15.893,0-21.943l-11.336-11.336c-2.931-2.931-6.827-4.545-10.972-4.545s-8.041,1.614-10.971,4.545
	L367.714,259.663V63.61c0-21.816-17.749-39.565-39.565-39.565H39.565C17.749,24.045,0,41.793,0,63.61v320.649
	c0,4.142,3.358,7.5,7.5,7.5h24.564v88.695c0,4.142,3.358,7.5,7.5,7.5h320.649c4.142,0,7.5-3.358,7.5-7.5V371.066
	c0-4.142-3.358-7.5-7.5-7.5s-7.5,3.358-7.5,7.5v101.888H79.13v-8.53c0-4.142-3.358-7.5-7.5-7.5c-4.142,0-7.5,3.358-7.5,7.5v8.53
	H47.065V87.659c0-0.285,0.231-0.516,0.516-0.516h16.548v345.212c0,4.142,3.358,7.5,7.5,7.5c4.142,0,7.5-3.358,7.5-7.5V87.143
	h232.987c4.142,0,7.5-3.358,7.5-7.5c0-4.142-3.358-7.5-7.5-7.5H79.13v-8.532c0-9.276-3.218-17.811-8.584-24.564H328.15
	c13.545,0,24.564,11.02,24.564,24.564v8.532h-8.534c-4.142,0-7.5,3.358-7.5,7.5c0,4.142,3.358,7.5,7.5,7.5h8.534v187.521
	l-67.286,67.286c-3.126,3.126-5.801,6.672-7.948,10.537l-25.615,46.108c-1.626,2.927-1.115,6.578,1.253,8.946
	C254.561,408.983,256.48,409.737,258.423,409.737z M64.13,63.61v8.532H47.582c-8.556,0-15.516,6.96-15.516,15.516v289.101H15V63.61
	c0-13.545,11.02-24.564,24.564-24.564S64.13,50.065,64.13,63.61z M462.48,186.11l12.067,12.067L315.104,357.621l-12.067-12.067
	L462.48,186.11z M484.79,163.802c0.037-0.037,0.151-0.151,0.364-0.151c0.214,0,0.328,0.114,0.365,0.151l11.336,11.336
	c0.202,0.201,0.202,0.529,0,0.73l-11.702,11.702l-12.067-12.067L484.79,163.802z M290.592,359.772
	c0.64-1.152,1.361-2.253,2.133-3.317l11.477,11.478c-1.063,0.772-2.165,1.493-3.317,2.133l0,0l-23.161,12.867L290.592,359.772z"/>
<path d="M127.744,167.305h176.357c4.142,0,7.5-3.358,7.5-7.5c0-4.142-3.358-7.5-7.5-7.5H127.744c-4.142,0-7.5,3.358-7.5,7.5
	C120.244,163.947,123.602,167.305,127.744,167.305z"/>
<path d="M127.744,207.387h176.357c4.142,0,7.5-3.358,7.5-7.5c0-4.142-3.358-7.5-7.5-7.5H127.744c-4.142,0-7.5,3.358-7.5,7.5
	C120.244,204.029,123.602,207.387,127.744,207.387z"/>
<path d="M127.744,247.467h176.357c4.142,0,7.5-3.358,7.5-7.5c0-4.142-3.358-7.5-7.5-7.5H127.744c-4.142,0-7.5,3.358-7.5,7.5
	C120.244,244.109,123.602,247.467,127.744,247.467z"/>
<path d="M127.744,287.549h176.357c4.142,0,7.5-3.358,7.5-7.5s-3.358-7.5-7.5-7.5H127.744c-4.142,0-7.5,3.358-7.5,7.5
	S123.602,287.549,127.744,287.549z"/>
<path d="M127.744,327.629h128.26c4.142,0,7.5-3.358,7.5-7.5s-3.358-7.5-7.5-7.5h-128.26c-4.142,0-7.5,3.358-7.5,7.5
	S123.602,327.629,127.744,327.629z"/>
<g>
</g>
<g>
</g>
<g>
</g>
<g>
</g>
<g>
</g>
<g>
</g>
<g>
</g>
<g>
</g>
<g>
</g>
<g>
</g>
<g>
</g>
<g>
</g>
<g>
</g>
<g>
</g>
<g>
</g>
</svg>
