<?xml version="1.0" encoding="iso-8859-1"?>
<!-- Generator: Adobe Illustrator 19.0.0, SVG Export Plug-In . SVG Version: 6.00 Build 0)  -->
<svg version="1.1" id="Capa_1" xmlns="http://www.w3.org/2000/svg" xmlns:xlink="http://www.w3.org/1999/xlink" x="0px" y="0px"
	 viewBox="0 0 512.001 512.001" style="enable-background:new 0 0 512.001 512.001;" xml:space="preserve">
<path style="fill:#EDEBED;" d="M376.243,103.696H135.759c-13.282,0-24.048,10.767-24.048,24.048v352.71
	c0,13.282,10.767,24.048,24.048,24.048h240.484c13.282,0,24.048-10.767,24.048-24.048v-352.71
	C400.291,114.463,389.524,103.696,376.243,103.696z M280.049,167.825h-48.097c-8.854,0-16.032-7.178-16.032-16.032
	c0-8.855,7.178-16.032,16.032-16.032h48.097c8.854,0,16.032,7.178,16.032,16.032C296.081,160.647,288.903,167.825,280.049,167.825z"
	/>
<circle style="fill:#8CB4EB;" cx="256" cy="288.071" r="80.16"/>
<g>
	<circle style="fill:#A5CDFF;" cx="256" cy="288.071" r="56.11"/>
	<polygon style="fill:#A5CDFF;" points="352.194,7.502 304.097,7.502 247.985,107.259 247.985,135.76 280.049,135.76 	"/>
</g>
<g>
	<path style="fill:#FFFFFF;" d="M272.033,304.099h-32.064c-13.282,0-24.048,10.767-24.048,24.048v29.269
		c11.8,6.836,25.462,10.812,40.081,10.812c14.618,0,28.281-3.976,40.081-10.812v-29.269
		C296.081,314.866,285.315,304.099,272.033,304.099z"/>
	<path style="fill:#FFFFFF;" d="M256.001,280.051L256.001,280.051c-8.854,0-16.032-7.178-16.032-16.032v-8.016
		c0-8.854,7.178-16.032,16.032-16.032l0,0c8.854,0,16.032,7.178,16.032,16.032v8.016
		C272.033,272.873,264.855,280.051,256.001,280.051z"/>
</g>
<polygon style="fill:#8CB4EB;" points="294.819,109.503 270.581,67.087 247.985,107.259 247.985,135.76 280.049,135.76 
	280.052,135.756 "/>
<polygon style="fill:#A5CDFF;" points="207.904,7.502 159.807,7.502 231.952,135.76 231.952,135.76 280.049,135.76 207.904,7.503 
	"/>
<path d="M376.242,96.196h-65.333l47.822-85.017c2.031-3.61,0.75-8.183-2.86-10.214s-8.183-0.75-10.213,2.86L280.05,120.462
	l-15.443-27.455l46.028-81.828c2.031-3.61,0.75-8.183-2.86-10.214c-3.611-2.031-8.184-0.75-10.213,2.86l-41.56,73.885l-41.56-73.885
	c-2.031-3.61-6.605-4.891-10.213-2.86c-3.61,2.031-4.891,6.604-2.86,10.214l65.858,117.081H236.34L166.344,3.825
	c-2.031-3.61-6.605-4.891-10.213-2.86c-3.61,2.031-4.891,6.604-2.86,10.214l67.462,119.932
	c-7.328,3.992-12.312,11.765-12.312,20.681c0,12.976,10.557,23.532,23.532,23.532h48.097c12.976,0,23.532-10.556,23.532-23.532
	c0-8.916-4.984-16.689-12.312-20.681l11.203-19.916h73.771c9.125,0,16.549,7.424,16.549,16.548v352.71
	c0,9.125-7.424,16.548-16.549,16.548H135.759c-9.125,0-16.549-7.424-16.549-16.548v-352.71c0-9.125,7.424-16.548,16.549-16.548
	h35.738c4.142,0,7.5-3.358,7.5-7.5s-3.358-7.5-7.5-7.5h-35.738c-17.396,0-31.549,14.153-31.549,31.548v352.71
	c0,17.396,14.153,31.548,31.549,31.548h240.483c17.396,0,31.549-14.152,31.549-31.548v-352.71
	C407.791,110.349,393.638,96.196,376.242,96.196z M280.049,160.325h-48.097c-4.705,0-8.532-3.828-8.532-8.532
	s3.828-8.532,8.532-8.532h48.07c0.006,0,0.013,0.001,0.019,0.001c0.005,0,0.009-0.001,0.013-0.001
	c4.701,0.004,8.526,3.83,8.526,8.532C288.581,156.497,284.754,160.325,280.049,160.325z"/>
<path d="M343.662,408.309c0-4.142-3.358-7.5-7.5-7.5H175.84c-4.142,0-7.5,3.358-7.5,7.5s3.358,7.5,7.5,7.5h160.322
	C340.304,415.809,343.662,412.451,343.662,408.309z"/>
<path d="M199.888,432.874c-4.142,0-7.5,3.358-7.5,7.5s3.358,7.5,7.5,7.5h112.226c4.142,0,7.5-3.358,7.5-7.5s-3.358-7.5-7.5-7.5
	H199.888z"/>
<path d="M232.468,256.002v8.016c0,12.976,10.557,23.532,23.532,23.532c12.976,0,23.532-10.557,23.532-23.532v-8.016
	c0-12.976-10.557-23.532-23.532-23.532C243.025,232.47,232.468,243.027,232.468,256.002z M264.533,256.002v8.016
	c0,4.705-3.828,8.532-8.532,8.532c-4.705,0-8.532-3.828-8.532-8.532v-8.016c0-4.705,3.828-8.532,8.532-8.532
	C260.705,247.47,264.533,251.298,264.533,256.002z"/>
<path d="M306.461,225.325c2.288-3.453,1.343-8.107-2.11-10.395c-34.572-22.904-80.974-18.215-110.335,11.147
	c-34.179,34.179-34.179,89.793,0,123.972c16.557,16.557,38.57,25.676,61.986,25.676s45.429-9.118,61.986-25.676
	c29.362-29.362,34.05-75.765,11.147-110.335c-2.288-3.453-6.941-4.398-10.395-2.11c-3.453,2.288-4.398,6.941-2.11,10.395
	c18.979,28.648,15.089,67.106-9.249,91.445c-1.227,1.227-2.502,2.386-3.799,3.514v-14.809c0-17.396-14.152-31.549-31.548-31.549
	H239.97c-17.396,0-31.548,14.153-31.548,31.549v14.809c-1.297-1.127-2.572-2.287-3.799-3.514
	c-28.331-28.331-28.331-74.428,0-102.759c24.338-24.338,62.796-28.229,91.445-9.249
	C299.519,229.723,304.173,228.778,306.461,225.325z M223.42,328.148c0-9.125,7.423-16.549,16.548-16.549h32.064
	c9.125,0,16.548,7.424,16.548,16.549v24.88c-9.988,5.021-21.076,7.697-32.581,7.697c-11.505,0-22.592-2.676-32.581-7.697v-24.88
	H223.42z"/>
<g>
</g>
<g>
</g>
<g>
</g>
<g>
</g>
<g>
</g>
<g>
</g>
<g>
</g>
<g>
</g>
<g>
</g>
<g>
</g>
<g>
</g>
<g>
</g>
<g>
</g>
<g>
</g>
<g>
</g>
</svg>
