<?xml version="1.0" encoding="iso-8859-1"?>
<!-- Generator: Adobe Illustrator 19.0.0, SVG Export Plug-In . SVG Version: 6.00 Build 0)  -->
<svg version="1.1" id="Capa_1" xmlns="http://www.w3.org/2000/svg" xmlns:xlink="http://www.w3.org/1999/xlink" x="0px" y="0px"
	 viewBox="0 0 512 512" style="enable-background:new 0 0 512 512;" xml:space="preserve">
<path style="fill:#EDEBED;" d="M497.252,363.37l-127.42-155.736c-6.09-7.443-15.2-11.76-24.817-11.76H15.516
	c-4.427,0-8.016,3.589-8.016,8.016v240.484c0,4.427,3.589,8.016,8.016,8.016h480.968c4.427,0,8.016-3.589,8.016-8.016v-60.699
	C504.5,376.272,501.939,369.099,497.252,363.37z"/>
<path style="fill:#FFFFFF;" d="M386.444,227.937H47.581c-8.854,0-16.032,7.178-16.032,16.032v80.161
	c0,8.854,7.178,16.032,16.032,16.032h430.684L386.444,227.937z"/>
<path style="fill:#C4DEFF;" d="M399.562,243.971h-63.401c-8.854,0-16.032,7.178-16.032,16.032v64.129
	c0,8.854,7.178,16.032,16.032,16.032h142.104L399.562,243.971z"/>
<path style="fill:#DBD9DC;" d="M7.5,404.292v40.082c0,4.427,3.589,8.016,8.016,8.016h480.968c4.427,0,8.016-3.589,8.016-8.016
	v-40.082H7.5z"/>
<g>
	<path style="fill:#6F6571;" d="M424.339,404.292v48.097h72.15c4.424-0.003,8.011-3.59,8.011-8.015v-40.082L424.339,404.292
		L424.339,404.292z"/>
	<path style="fill:#6F6571;" d="M103.694,404.292v48.097H15.511c-4.424-0.003-8.011-3.59-8.011-8.015v-40.082L103.694,404.292
		L103.694,404.292z"/>
</g>
<circle style="fill:#5D5360;" cx="103.69" cy="452.39" r="48.1"/>
<g>
	<path style="fill:#EDEBED;" d="M60.127,21.866c-6.654,26.829,3.3,59.983,28.341,85.024c25.04,25.04,58.194,34.994,85.024,28.341
		L60.127,21.866z"/>
	<circle style="fill:#EDEBED;" cx="167.82" cy="27.534" r="16.03"/>
</g>
<g>
	<path style="fill:#DBD9DC;" d="M77.665,141.835c-4.501-13.504-23.602-13.504-28.103,0l-18.013,54.038h64.129L77.665,141.835z"/>
	<circle style="fill:#DBD9DC;" cx="103.69" cy="452.39" r="16.03"/>
</g>
<circle style="fill:#5D5360;" cx="424.34" cy="452.39" r="48.1"/>
<circle style="fill:#DBD9DC;" cx="424.34" cy="452.39" r="16.03"/>
<path style="fill:#A5CDFF;" d="M419.237,268.018l-19.675-24.047h-63.401c-8.854,0-16.032,7.178-16.032,16.032v8.015L419.237,268.018
	L419.237,268.018z"/>
<path d="M103.693,428.858c-12.976,0-23.532,10.557-23.532,23.532s10.557,23.532,23.532,23.532s23.532-10.557,23.532-23.532
	S116.669,428.858,103.693,428.858z M103.693,460.922c-4.705,0-8.532-3.828-8.532-8.532s3.828-8.532,8.532-8.532
	s8.532,3.828,8.532,8.532S108.398,460.922,103.693,460.922z"/>
<path d="M424.339,428.858c-12.976,0-23.532,10.557-23.532,23.532s10.557,23.532,23.532,23.532s23.532-10.557,23.532-23.532
	S437.314,428.858,424.339,428.858z M424.339,460.922c-4.705,0-8.532-3.828-8.532-8.532s3.828-8.532,8.532-8.532
	s8.532,3.828,8.532,8.532S429.043,460.922,424.339,460.922z"/>
<path d="M503.057,358.621l-127.42-155.736c-7.545-9.222-18.706-14.511-30.621-14.511H101.083L84.78,139.463
	c-1.472-4.415-4.137-8.072-7.571-10.706l11.426-11.427c20.03,17.715,44.366,27.459,67.661,27.459c6.451,0,12.825-0.748,19.001-2.279
	c2.625-0.651,4.696-2.665,5.421-5.271c0.724-2.605-0.01-5.399-1.923-7.312l-51.379-51.379l29.953-29.953
	c3.285,1.627,6.866,2.46,10.454,2.46c6.026,0,12.053-2.294,16.641-6.881c9.174-9.175,9.174-24.104,0-33.28l0,0
	c-9.176-9.175-24.104-9.174-33.279,0c-7.32,7.32-8.781,18.294-4.422,27.095L116.81,67.942L65.43,16.563
	c-1.913-1.912-4.707-2.646-7.312-1.923c-2.606,0.725-4.62,2.796-5.271,5.421c-7.063,28.48,2.559,61.085,25.182,86.663
	l-17.727,17.727c-8.301,1.189-15.123,6.813-17.856,15.013l-16.303,48.91H15.516C6.96,188.374,0,195.334,0,203.89v240.484
	c0,8.556,6.96,15.516,15.516,15.516h33.101c3.675,27.12,26.965,48.097,55.077,48.097s51.402-20.977,55.077-48.097h210.491
	c3.675,27.12,26.966,48.097,55.077,48.097s51.401-20.977,55.077-48.097h17.068c8.556,0,15.516-6.96,15.516-15.516v-60.699
	C512,374.567,508.824,365.67,503.057,358.621z M336.161,332.664c-4.705,0-8.532-3.828-8.532-8.532v-64.129
	c0-4.705,3.828-8.532,8.532-8.532h8.532v81.193H336.161z M359.693,251.471h36.314l66.431,81.193H359.693V251.471z M161.791,21.501
	c1.664-1.663,3.848-2.495,6.033-2.495s4.37,0.832,6.033,2.495c3.327,3.327,3.327,8.74,0,12.066
	c-3.325,3.325-8.735,3.326-12.061,0.005c-0.002-0.002-0.003-0.003-0.005-0.005s-0.003-0.003-0.005-0.005
	C158.464,30.236,158.466,24.826,161.791,21.501z M157.386,129.732c-21.729,0.245-45.463-9.994-63.615-28.146
	C75.618,83.433,65.387,59.719,65.625,37.971L157.386,129.732z M56.676,144.207c1.394-4.181,4.898-4.885,6.483-4.983
	c0.151,0.009,0.302,0.022,0.454,0.022c0.151,0,0.302-0.012,0.453-0.021c1.585,0.099,5.089,0.803,6.482,4.982l14.722,44.167H41.954
	L56.676,144.207z M15.516,203.374h329.499c7.397,0,14.327,3.284,19.012,9.01l19.708,24.087h-47.573
	c-12.976,0-23.532,10.557-23.532,23.532v64.129c0,12.976,10.557,23.532,23.532,23.532h138.55l13.962,17.064h-11.227
	c-4.142,0-7.5,3.358-7.5,7.5s3.358,7.5,7.5,7.5h19.223c0.213,1.3,0.331,2.618,0.331,3.946v13.119H424.34
	c-28.112,0-51.402,20.977-55.077,48.097H158.771c-3.675-27.12-26.966-48.097-55.077-48.097H15V203.89
	C15,203.605,15.231,203.374,15.516,203.374z M15,444.374v-32.581h50.765c-9.134,8.539-15.388,20.111-17.148,33.097H15.516
	C15.231,444.89,15,444.658,15,444.374z M103.693,492.987c-22.385,0-40.597-18.212-40.597-40.597s18.211-40.597,40.597-40.597
	c22.37,0,40.571,18.187,40.596,40.552c0,0.015-0.002,0.03-0.002,0.045s0.002,0.03,0.002,0.045
	C144.265,474.799,126.063,492.987,103.693,492.987z M424.339,492.987c-22.383,0-40.594-18.208-40.597-40.591
	c0-0.002,0-0.004,0-0.006s0-0.004,0-0.006c0.003-22.382,18.214-40.59,40.597-40.59c22.385,0,40.597,18.211,40.597,40.597
	S446.724,492.987,424.339,492.987z M496.484,444.89h-17.068c-1.76-12.986-8.014-24.557-17.148-33.097H497v32.581
	C497,444.658,496.769,444.89,496.484,444.89z"/>
<path d="M167.823,411.793H360.21c4.142,0,7.5-3.358,7.5-7.5s-3.358-7.5-7.5-7.5H167.823c-4.142,0-7.5,3.358-7.5,7.5
	S163.681,411.793,167.823,411.793z"/>
<path d="M112.739,331.631h36.397c4.142,0,7.5-3.358,7.5-7.5s-3.358-7.5-7.5-7.5h-28.897v-17.064h24.348c4.142,0,7.5-3.358,7.5-7.5
	s-3.358-7.5-7.5-7.5h-24.348v-17.065h28.897c4.142,0,7.5-3.358,7.5-7.5c0-4.142-3.358-7.5-7.5-7.5h-36.397
	c-4.142,0-7.5,3.358-7.5,7.5v64.129C105.239,328.273,108.597,331.631,112.739,331.631z"/>
<path d="M47.581,331.631c4.142,0,7.5-3.358,7.5-7.5V288.41l22.375,39.423c1.355,2.389,3.872,3.799,6.522,3.798
	c0.635,0,1.278-0.081,1.915-0.249c3.292-0.869,5.585-3.847,5.585-7.251v-64.129c0-4.142-3.358-7.5-7.5-7.5s-7.5,3.358-7.5,7.5
	v35.721L54.103,256.3c-1.68-2.96-5.143-4.417-8.437-3.549c-3.292,0.869-5.585,3.847-5.585,7.251v64.129
	C40.081,328.273,43.438,331.631,47.581,331.631z"/>
<path d="M179.986,325.693c0.737,3.462,3.795,5.938,7.335,5.938s6.599-2.476,7.336-5.938l6.313-29.664l6.314,29.664
	c0.737,3.463,3.795,5.938,7.335,5.938s6.599-2.476,7.335-5.938l13.649-64.129c0.862-4.052-1.723-8.035-5.774-8.897
	c-4.058-0.865-8.035,1.723-8.897,5.774l-6.313,29.664l-6.314-29.664c-0.737-3.463-3.795-5.938-7.335-5.938s-6.599,2.476-7.336,5.938
	l-6.313,29.663l-6.313-29.663c-0.862-4.051-4.842-6.638-8.897-5.774c-4.051,0.862-6.636,4.845-5.774,8.897L179.986,325.693z"/>
<path d="M269.866,316.631c-6.124,0-10.699-3.447-10.699-6.528c0-4.142-3.358-7.5-7.5-7.5s-7.5,3.358-7.5,7.5
	c0,11.871,11.528,21.528,25.699,21.528c14.171,0,25.699-9.658,25.699-21.528c0-16.593-14.469-21.904-23.114-25.077
	c-11.438-4.199-13.283-6.68-13.283-10.996c0-3.082,4.575-6.528,10.699-6.528s10.699,3.447,10.699,6.528c0,4.142,3.358,7.5,7.5,7.5
	s7.5-3.358,7.5-7.5c0-11.871-11.528-21.528-25.699-21.528s-25.699,9.658-25.699,21.528c0,16.592,14.469,21.904,23.115,25.077
	c11.437,4.198,13.283,6.68,13.283,10.996C280.564,313.184,275.989,316.631,269.866,316.631z"/>
<g>
</g>
<g>
</g>
<g>
</g>
<g>
</g>
<g>
</g>
<g>
</g>
<g>
</g>
<g>
</g>
<g>
</g>
<g>
</g>
<g>
</g>
<g>
</g>
<g>
</g>
<g>
</g>
<g>
</g>
</svg>
