<?xml version="1.0" encoding="iso-8859-1"?>
<!-- Generator: Adobe Illustrator 19.0.0, SVG Export Plug-In . SVG Version: 6.00 Build 0)  -->
<svg version="1.1" id="Capa_1" xmlns="http://www.w3.org/2000/svg" xmlns:xlink="http://www.w3.org/1999/xlink" x="0px" y="0px"
	 viewBox="0 0 511.998 511.998" style="enable-background:new 0 0 511.998 511.998;" xml:space="preserve">
<circle style="fill:#DCEBFF;" cx="256" cy="155.799" r="96.19"/>
<circle style="fill:#C4DEFF;" cx="256" cy="155.799" r="56.11"/>
<path style="fill:#DBD9DC;" d="M231.952,396.281v40.081c0,8.854,7.178,16.032,16.032,16.032h16.032
	c8.854,0,16.032-7.178,16.032-16.032v-40.081H231.952z"/>
<path style="fill:#C9C6CA;" d="M264.016,420.33h16.032v-24.048h-48.097v40.081c0,8.854,7.178,16.032,16.032,16.032v-16.032
	C247.984,427.508,255.162,420.33,264.016,420.33z"/>
<g>
	<path style="fill:#739BD7;" d="M15.516,388.265h160.323c4.427,0,8.016-3.589,8.016-8.016v-80.161c0-4.427-3.589-8.016-8.016-8.016
		H15.516c-4.427,0-8.016,3.589-8.016,8.016v80.161C7.5,384.676,11.089,388.265,15.516,388.265z"/>
	<path style="fill:#739BD7;" d="M496.484,292.072H336.161c-4.427,0-8.016,3.589-8.016,8.016v80.161c0,4.427,3.589,8.016,8.016,8.016
		h160.323c4.427,0,8.016-3.589,8.016-8.016v-80.161C504.5,295.661,500.911,292.072,496.484,292.072z"/>
</g>
<g>
	<path style="fill:#DBD9DC;" d="M288.065,404.297h-64.129c-4.427,0-8.016-3.589-8.016-8.016v-96.194
		c0-4.427,3.589-8.016,8.016-8.016h64.129c4.427,0,8.016,3.589,8.016,8.016v96.194C296.081,400.708,292.492,404.297,288.065,404.297
		z"/>
	<path style="fill:#DBD9DC;" d="M191.279,211.91c4.548,27.183,31.75,48.097,64.721,48.097s60.172-20.914,64.721-48.097H191.279z"/>
</g>
<circle style="fill:#FFFFFF;" cx="256" cy="155.799" r="16.03"/>
<path style="fill:#C9C6CA;" d="M223.935,292.072c-4.427,0-8.016,3.589-8.016,8.016v96.194c0,4.427,3.589,8.016,8.016,8.016h16.032
	V292.072H223.935z"/>
<path style="fill:#9C969E;" d="M288.065,404.297h-64.129c-4.427,0-8.016-3.589-8.016-8.016v-24.048h80.161v24.048
	C296.081,400.708,292.492,404.297,288.065,404.297z"/>
<path style="fill:#C9C6CA;" d="M285.996,251.991c-28.214,0-52.202-15.314-61.388-36.764c-0.471-1.1-0.626-2.22-0.616-3.316h-32.714
	c4.549,27.183,31.75,48.097,64.721,48.097c12.439,0,23.953-3.108,33.844-8.276C288.554,251.796,287.306,251.991,285.996,251.991z"/>
<path d="M496.484,284.572H336.161c-8.556,0-15.516,6.96-15.516,15.516v32.581h-17.064v-32.581c0-8.556-6.96-15.516-15.516-15.516
	H263.5v-17.415c14.74-1.328,28.732-6.531,40.022-15.007c13.327-10.005,22.062-23.856,24.596-39.002
	c0.364-2.175-0.248-4.4-1.673-6.083c-1.425-1.684-3.519-2.654-5.724-2.654H263.5v-26.313c9.308-3.139,16.032-11.946,16.032-22.3
	c0-12.976-10.557-23.532-23.532-23.532s-23.532,10.557-23.532,23.532c0,10.354,6.724,19.16,16.032,22.3v26.313h-57.221
	c-2.206,0-4.299,0.971-5.724,2.654c-1.425,1.683-2.037,3.908-1.673,6.083c2.534,15.146,11.27,28.997,24.596,39.002
	c11.289,8.476,25.281,13.679,40.022,15.007v17.415h-24.564c-8.556,0-15.516,6.96-15.516,15.516v32.581h-17.064v-32.581
	c0-8.556-6.96-15.516-15.516-15.516H15.516C6.96,284.572,0,291.532,0,300.088v80.161c0,8.556,6.96,15.516,15.516,15.516h160.323
	c8.556,0,15.516-6.96,15.516-15.516v-32.581h17.064v48.613c0,8.556,6.96,15.516,15.516,15.516h0.516v24.564
	c0,12.976,10.557,23.532,23.532,23.532h16.032c12.976,0,23.532-10.557,23.532-23.532v-24.564h0.516
	c8.556,0,15.516-6.96,15.516-15.516v-48.613h17.064v32.581c0,8.556,6.96,15.516,15.516,15.516h160.323
	c8.556,0,15.516-6.96,15.516-15.516v-80.161C512,291.532,505.04,284.572,496.484,284.572z M256,147.265
	c4.705,0,8.532,3.828,8.532,8.532s-3.828,8.532-8.532,8.532s-8.532-3.828-8.532-8.532S251.295,147.265,256,147.265z M201.146,219.41
	h109.709c-7.816,19.371-29.792,33.097-54.854,33.097S208.961,238.781,201.146,219.41z M176.355,380.249
	c0,0.285-0.231,0.516-0.516,0.516H15.516c-0.285,0-0.516-0.231-0.516-0.516v-80.161c0-0.285,0.231-0.516,0.516-0.516h160.323
	c0.285,0,0.516,0.231,0.516,0.516v32.581H39.564c-4.142,0-7.5,3.358-7.5,7.5s3.358,7.5,7.5,7.5h136.791V380.249z M223.419,300.088
	c0-0.285,0.231-0.516,0.516-0.516h64.129c0.285,0,0.516,0.231,0.516,0.516v64.645h-65.161V300.088z M272.548,436.362
	c0,4.705-3.828,8.532-8.532,8.532h-16.032c-4.705,0-8.532-3.828-8.532-8.532v-24.564h33.097v24.564H272.548z M288.064,396.797
	h-64.129c-0.285,0-0.516-0.231-0.516-0.516v-16.548h65.161v16.548C288.581,396.566,288.349,396.797,288.064,396.797z M497,380.249
	c0,0.285-0.231,0.516-0.516,0.516H336.161c-0.285,0-0.516-0.231-0.516-0.516v-32.581h8.531c4.142,0,7.5-3.358,7.5-7.5
	s-3.358-7.5-7.5-7.5h-8.531v-32.581c0-0.285,0.231-0.516,0.516-0.516h160.323c0.285,0,0.516,0.231,0.516,0.516V380.249z"/>
<path d="M472.436,332.668h-96.194c-4.142,0-7.5,3.358-7.5,7.5s3.358,7.5,7.5,7.5h96.194c4.142,0,7.5-3.358,7.5-7.5
	S476.578,332.668,472.436,332.668z"/>
<path d="M303.495,186.621c1.039,0.494,2.134,0.728,3.213,0.728c2.805,0,5.496-1.582,6.78-4.284
	c4.064-8.556,6.125-17.73,6.125-27.267c0-35.076-28.537-63.613-63.613-63.613s-63.613,28.537-63.613,63.613
	c0,9.525,2.056,18.688,6.11,27.234c1.776,3.743,6.249,5.337,9.991,3.562c3.743-1.775,5.337-6.249,3.562-9.991
	c-3.094-6.522-4.663-13.522-4.663-20.806c0-26.805,21.808-48.613,48.613-48.613s48.613,21.808,48.613,48.613
	c0,7.293-1.573,14.301-4.674,20.831C298.161,180.37,299.753,184.843,303.495,186.621z"/>
<path d="M165.282,195.37c0.83,0,1.673-0.139,2.5-0.431c3.905-1.381,5.952-5.666,4.571-9.571c-3.349-9.472-5.047-19.421-5.047-29.571
	c0-48.906,39.788-88.693,88.693-88.693s88.693,39.788,88.693,88.693c0,10.148-1.697,20.096-5.045,29.567
	c-1.38,3.905,0.667,8.19,4.572,9.571c3.906,1.38,8.19-0.667,9.571-4.572c3.917-11.081,5.903-22.71,5.903-34.566
	c0-57.177-46.517-103.693-103.693-103.693S152.307,98.621,152.307,155.797c0,11.858,1.986,23.489,5.904,34.571
	C159.3,193.447,162.193,195.37,165.282,195.37z"/>
<g>
</g>
<g>
</g>
<g>
</g>
<g>
</g>
<g>
</g>
<g>
</g>
<g>
</g>
<g>
</g>
<g>
</g>
<g>
</g>
<g>
</g>
<g>
</g>
<g>
</g>
<g>
</g>
<g>
</g>
</svg>
