<?xml version="1.0" encoding="iso-8859-1"?>
<!-- Generator: Adobe Illustrator 19.0.0, SVG Export Plug-In . SVG Version: 6.00 Build 0)  -->
<svg version="1.1" id="Capa_1" xmlns="http://www.w3.org/2000/svg" xmlns:xlink="http://www.w3.org/1999/xlink" x="0px" y="0px"
	 viewBox="0 0 512.001 512.001" style="enable-background:new 0 0 512.001 512.001;" xml:space="preserve">
<path style="fill:#4B3F4E;" d="M143.774,83.654H111.71c-8.854,0-16.032,7.178-16.032,16.032v24.048h64.129V99.686
	C159.806,90.832,152.628,83.654,143.774,83.654z"/>
<path style="fill:#5D5360;" d="M456.403,436.364H55.597c-26.563,0-48.097-21.534-48.097-48.097V163.816
	c0-26.563,21.534-48.097,48.097-48.097h400.806c26.563,0,48.097,21.534,48.097,48.097v224.452
	C504.5,414.83,482.966,436.364,456.403,436.364z"/>
<g>
	<circle style="fill:#6F6571;" cx="416.32" cy="300.091" r="24.05"/>
	<path style="fill:#6F6571;" d="M366.146,211.911l-25.83-117.394c-2.426-11.027-12.196-18.881-23.487-18.881h-89.593
		c-11.291,0-21.061,7.855-23.487,18.882L178.01,211.525L366.146,211.911z"/>
</g>
<circle style="fill:#4B3F4E;" cx="272.03" cy="300.09" r="136.27"/>
<circle style="fill:#867E88;" cx="272.03" cy="300.091" r="96.19"/>
<circle style="fill:#6F6571;" cx="272.03" cy="300.09" r="72.14"/>
<path style="fill:#4B3F4E;" d="M71.629,412.315c-17.709,0-32.065-14.356-32.065-32.065V118.514
	C20.896,125.124,7.5,142.883,7.5,163.816v224.452c0,26.563,21.534,48.097,48.097,48.097h400.806c17.792,0,33.29-9.686,41.61-24.048
	H71.629V412.315z"/>
<path d="M456.403,108.219h-104.71l-3.815-15.895c-3.418-14.24-16.033-24.186-30.677-24.186h-90.339
	c-14.645,0-27.259,9.945-30.677,24.186l-3.815,15.895h-25.064v-8.532c0-12.976-10.557-23.532-23.532-23.532h-32.065
	c-12.976,0-23.532,10.557-23.532,23.532v8.532h-32.58C24.94,108.219,0,133.159,0,163.814v224.452
	c0,30.656,24.94,55.597,55.597,55.597h400.807c30.656,0,55.597-24.94,55.597-55.597V163.814
	C512,133.159,487.06,108.219,456.403,108.219z M226.863,83.138h90.339c7.682,0,14.298,5.217,16.091,12.687l20.688,86.202
	c-23.265-16.198-51.515-25.711-81.949-25.711s-58.684,9.513-81.949,25.711l20.688-86.202
	C212.564,88.354,219.181,83.138,226.863,83.138z M272.032,171.314c71.006,0,128.774,57.768,128.774,128.774
	s-57.768,128.774-128.774,128.774s-128.774-57.768-128.774-128.774S201.026,171.314,272.032,171.314z M103.177,99.687
	c0-4.705,3.828-8.532,8.532-8.532h32.065c4.705,0,8.532,3.828,8.532,8.532v8.532h-49.129V99.687z M55.597,428.864
	C33.211,428.864,15,410.651,15,388.266V163.814c0-22.385,18.211-40.597,40.597-40.597h133.174L170.8,198.099
	c-26.257,26.063-42.541,62.159-42.541,101.99c0,56.342,32.582,105.209,79.888,128.774H55.597V428.864z M497,388.266
	c0,22.385-18.211,40.597-40.597,40.597H335.918c38.291-19.073,66.927-54.724,76.453-97.5c1.307,0.164,2.623,0.274,3.952,0.274
	c17.396,0,31.548-14.152,31.548-31.548s-14.152-31.548-31.548-31.548c-1.33,0-2.645,0.11-3.952,0.274
	c-6.077-27.289-19.928-51.679-39.106-70.716l-17.971-74.88h101.11c22.385,0,40.597,18.211,40.597,40.597L497,388.266L497,388.266z
	 M414.856,283.607c0.486-0.042,0.975-0.066,1.467-0.066c9.125,0,16.548,7.423,16.548,16.548s-7.423,16.548-16.548,16.548
	c-0.492,0-0.981-0.023-1.467-0.066c0.62-5.411,0.95-10.908,0.95-16.482C415.806,294.514,415.477,289.018,414.856,283.607z"/>
<path d="M95.677,140.283c-4.142,0-7.5,3.358-7.5,7.5v256.516c0,4.142,3.358,7.5,7.5,7.5s7.5-3.358,7.5-7.5V147.783
	C103.177,143.641,99.819,140.283,95.677,140.283z"/>
<path d="M231.952,123.219h80.161c4.142,0,7.5-3.358,7.5-7.5s-3.358-7.5-7.5-7.5h-80.161c-4.142,0-7.5,3.358-7.5,7.5
	S227.81,123.219,231.952,123.219z"/>
<path d="M63.613,140.283H47.581c-4.142,0-7.5,3.358-7.5,7.5s3.358,7.5,7.5,7.5h16.032c4.142,0,7.5-3.358,7.5-7.5
	S67.755,140.283,63.613,140.283z"/>
<path d="M311.597,300.089c0-21.816-17.749-39.564-39.564-39.564s-39.564,17.749-39.564,39.564s17.749,39.564,39.564,39.564
	S311.597,321.906,311.597,300.089z M247.468,300.089c0-13.545,11.02-24.564,24.564-24.564s24.564,11.02,24.564,24.564
	s-11.02,24.564-24.564,24.564S247.468,313.635,247.468,300.089z"/>
<path d="M187.587,360.102c1.463,2.055,3.771,3.15,6.116,3.15c1.505,0,3.025-0.452,4.344-1.391c3.374-2.403,4.162-7.086,1.759-10.46
	c-25.189-35.373-21.189-83.328,9.511-114.028c30.701-30.7,78.656-34.701,114.028-9.511c3.373,2.402,8.056,1.615,10.46-1.759
	c2.403-3.374,1.615-8.057-1.759-10.46c-19.742-14.058-43.971-20.76-68.224-18.876c-24.551,1.908-47.675,12.562-65.112,30
	c-17.437,17.437-28.091,40.561-30,65.111C166.825,316.132,173.529,340.36,187.587,360.102z"/>
<path d="M334.748,362.805c-30.7,30.699-78.655,34.7-114.028,9.51c-3.374-2.402-8.057-1.615-10.46,1.759
	c-2.403,3.374-1.615,8.057,1.759,10.46c17.558,12.503,38.664,19.188,60.182,19.188c2.676,0,5.36-0.104,8.042-0.312
	c24.551-1.908,47.674-12.562,65.111-29.999c17.437-17.437,28.091-40.561,30-65.112c1.885-24.253-4.818-48.482-18.876-68.224
	c-2.403-3.374-7.085-4.162-10.46-1.759c-3.374,2.403-4.162,7.086-1.759,10.46C369.448,284.148,365.448,332.104,334.748,362.805z"/>
<g>
</g>
<g>
</g>
<g>
</g>
<g>
</g>
<g>
</g>
<g>
</g>
<g>
</g>
<g>
</g>
<g>
</g>
<g>
</g>
<g>
</g>
<g>
</g>
<g>
</g>
<g>
</g>
<g>
</g>
</svg>
