<?xml version="1.0" encoding="iso-8859-1"?>
<!-- Generator: Adobe Illustrator 19.0.0, SVG Export Plug-In . SVG Version: 6.00 Build 0)  -->
<svg version="1.1" id="Capa_1" xmlns="http://www.w3.org/2000/svg" xmlns:xlink="http://www.w3.org/1999/xlink" x="0px" y="0px"
	 viewBox="0 0 511.999 511.999" style="enable-background:new 0 0 511.999 511.999;" xml:space="preserve">
<path style="fill:#C9C6CA;" d="M336.16,504.5H127.741c-13.282,0-24.048-10.767-24.048-24.048V31.548
	c0-13.282,10.767-24.048,24.048-24.048H336.16c13.282,0,24.048,10.767,24.048,24.048v448.903
	C360.209,493.733,349.442,504.5,336.16,504.5z"/>
<path style="fill:#B7B2B8;" d="M103.693,479.91v0.542c0,13.281,10.767,24.048,24.048,24.048H336.16
	c13.282,0,24.048-11.309,24.048-24.59H103.693z"/>
<rect x="103.689" y="71.63" style="fill:#FFFFFF;" width="256.52" height="368.74"/>
<circle style="fill:#CDF5A0;" cx="191.869" cy="256" r="40.08"/>
<path style="fill:#B4E6A0;" d="M207.902,280.048c-22.136,0-40.081-17.945-40.081-40.081c0-6.929,1.918-13.349,5.014-19.035
	c-12.478,6.792-21.046,19.861-21.046,35.067c0,22.136,17.945,40.081,40.081,40.081c15.206,0,28.275-8.568,35.067-21.046
	C221.251,278.13,214.832,280.048,207.902,280.048z"/>
<circle style="fill:#FFE17D;" cx="368.229" cy="151.79" r="40.08"/>
<path style="fill:#FFD164;" d="M384.257,175.839c-22.136,0-40.081-17.945-40.081-40.081c0-6.929,1.918-13.349,5.013-19.035
	c-12.478,6.792-21.046,19.861-21.046,35.067c0,22.136,17.945,40.081,40.081,40.081c15.206,0,28.275-8.568,35.067-21.046
	C397.606,173.92,391.187,175.839,384.257,175.839z"/>
<circle style="fill:#A5CDFF;" cx="368.229" cy="360.21" r="40.08"/>
<path style="fill:#8CB4EB;" d="M384.257,384.258c-22.136,0-40.081-17.945-40.081-40.081c0-6.929,1.918-13.349,5.013-19.035
	c-12.478,6.792-21.046,19.861-21.046,35.067c0,22.136,17.945,40.081,40.081,40.081c15.206,0,28.275-8.568,35.067-21.046
	C397.606,382.34,391.187,384.258,384.257,384.258z"/>
<path d="M247.983,464.936h-32.064c-4.142,0-7.5,3.358-7.5,7.5s3.358,7.5,7.5,7.5h32.064c4.142,0,7.5-3.358,7.5-7.5
	S252.125,464.936,247.983,464.936z"/>
<path d="M223.935,47.064h16.032c4.142,0,7.5-3.358,7.5-7.5s-3.358-7.5-7.5-7.5h-16.032c-4.142,0-7.5,3.358-7.5,7.5
	S219.792,47.064,223.935,47.064z"/>
<path d="M328.144,47.064c4.142,0,7.5-3.358,7.5-7.5s-3.358-7.5-7.5-7.5h-0.08c-4.142,0-7.46,3.358-7.46,7.5
	S324.002,47.064,328.144,47.064z"/>
<path d="M296.08,47.064c4.142,0,7.5-3.358,7.5-7.5s-3.358-7.5-7.5-7.5h-0.081c-4.142,0-7.46,3.358-7.46,7.5
	S291.937,47.064,296.08,47.064z"/>
<path d="M368.225,312.629c-14.71,0-27.881,6.712-36.615,17.233l-95.484-56.422c2.137-5.404,3.325-11.284,3.325-17.439
	c0-6.156-1.188-12.035-3.325-17.44l95.484-56.422c5.509,6.635,12.787,11.745,21.099,14.621v91.305c0,4.142,3.358,7.5,7.5,7.5
	c4.142,0,7.5-3.358,7.5-7.5v-88.707c0.173,0.002,0.343,0.013,0.516,0.013c26.236,0,47.581-21.345,47.581-47.581
	s-21.345-47.581-47.581-47.581c-26.236,0-47.581,21.345-47.581,47.581c0,6.155,1.188,12.035,3.325,17.439l-95.484,56.422
	c-8.735-10.52-21.905-17.232-36.615-17.232c-26.236,0-47.581,21.345-47.581,47.581s21.345,47.581,47.581,47.581
	c14.71,0,27.881-6.712,36.615-17.232l95.484,56.422c-2.137,5.404-3.325,11.284-3.325,17.439c0,20.804,13.426,38.52,32.064,44.969
	v27.692H111.192V79.129h241.516v0.516c0,4.142,3.358,7.5,7.5,7.5c4.142,0,7.5-3.358,7.5-7.5V31.548
	C367.708,14.152,353.556,0,336.16,0H127.741c-17.396,0-31.548,14.152-31.548,31.548v448.903c0,17.396,14.152,31.548,31.548,31.548
	H336.16c17.396,0,31.548-14.152,31.548-31.548v-72.674c0.173,0.002,0.343,0.013,0.516,0.013c26.236,0,47.581-21.345,47.581-47.581
	C415.806,333.974,394.461,312.629,368.225,312.629z M368.225,119.209c17.965,0,32.581,14.616,32.581,32.581
	s-14.616,32.581-32.581,32.581c-17.965,0-32.581-14.616-32.581-32.581C335.644,133.825,350.26,119.209,368.225,119.209z
	 M191.87,288.581c-17.965,0-32.581-14.616-32.581-32.581s14.616-32.581,32.581-32.581s32.581,14.616,32.581,32.581
	S209.835,288.581,191.87,288.581z M127.741,15H336.16c9.125,0,16.548,7.423,16.548,16.548v32.581H111.192V31.548
	C111.192,22.423,118.616,15,127.741,15z M336.16,497H127.741c-9.125,0-16.548-7.423-16.548-16.548v-32.581h241.516v32.581
	C352.708,489.577,345.285,497,336.16,497z M368.225,392.791c-17.965,0-32.581-14.616-32.581-32.581s14.616-32.581,32.581-32.581
	c17.965,0,32.581,14.616,32.581,32.581S386.19,392.791,368.225,392.791z"/>
<g>
</g>
<g>
</g>
<g>
</g>
<g>
</g>
<g>
</g>
<g>
</g>
<g>
</g>
<g>
</g>
<g>
</g>
<g>
</g>
<g>
</g>
<g>
</g>
<g>
</g>
<g>
</g>
<g>
</g>
</svg>
