<?xml version="1.0" encoding="iso-8859-1"?>
<!-- Generator: Adobe Illustrator 19.0.0, SVG Export Plug-In . SVG Version: 6.00 Build 0)  -->
<svg version="1.1" id="Capa_1" xmlns="http://www.w3.org/2000/svg" xmlns:xlink="http://www.w3.org/1999/xlink" x="0px" y="0px"
	 viewBox="0 0 512 512" style="enable-background:new 0 0 512 512;" xml:space="preserve">
<path style="fill:#EDEBED;" d="M480.452,440.371H31.548c-13.282,0-24.048-10.767-24.048-24.048V95.677
	c0-13.282,10.767-24.048,24.048-24.048h448.903c13.282,0,24.048,10.767,24.048,24.048v320.645
	C504.5,429.604,493.733,440.371,480.452,440.371z"/>
<circle style="fill:#FF8087;" cx="103.69" cy="256" r="24.05"/>
<path style="fill:#E6646E;" d="M119.726,272.032c-17.709,0-32.065-14.356-32.065-32.065c0-0.663,0.156-1.283,0.195-1.936
	c-4.996,4.407-8.211,10.783-8.211,17.968c0,13.282,10.767,24.048,24.048,24.048c7.185,0,13.561-3.215,17.968-8.211
	C121.009,271.877,120.389,272.032,119.726,272.032z"/>
<path style="fill:#DBD9DC;" d="M503.695,422.5H8.305c2.727,10.288,12.098,17.871,23.244,17.871h448.903
	C491.597,440.371,500.968,432.788,503.695,422.5z"/>
<path d="M326.141,215.403c4.142,0,7.5-3.358,7.5-7.5s-3.358-7.5-7.5-7.5h-54.109c-4.142,0-7.5,3.358-7.5,7.5v96.193
	c0,4.142,3.358,7.5,7.5,7.5h54.109c4.142,0,7.5-3.358,7.5-7.5s-3.358-7.5-7.5-7.5h-46.609V263.5h32.581c4.142,0,7.5-3.358,7.5-7.5
	s-3.358-7.5-7.5-7.5h-32.581v-33.097H326.141z"/>
<path d="M247.439,235.959c0-19.606-15.951-35.556-35.557-35.556h-36.043c-4.142,0-7.5,3.358-7.5,7.5v96.193
	c0,4.142,3.358,7.5,7.5,7.5s7.5-3.358,7.5-7.5v-32.581h27.499l14.119,35.362c1.172,2.935,3.989,4.721,6.968,4.721
	c0.925,0,1.867-0.172,2.779-0.537c3.847-1.536,5.72-5.899,4.184-9.747l-13.041-32.661
	C238.531,263.217,247.439,250.61,247.439,235.959z M211.882,256.516h-28.543v-41.113h28.543c11.335,0,20.557,9.222,20.557,20.556
	C232.439,247.294,223.217,256.516,211.882,256.516z"/>
<path d="M392.274,311.597c10.393,0,20.267-3.292,28.556-9.52c3.312-2.488,3.979-7.189,1.491-10.501s-7.19-3.979-10.501-1.491
	c-5.67,4.26-12.43,6.512-19.547,6.512c-17.965,0-32.581-14.616-32.581-32.581v-16.032c0-17.965,14.616-32.581,32.581-32.581
	c7.126,0,13.893,2.257,19.567,6.527c3.31,2.491,8.013,1.826,10.502-1.483c2.491-3.31,1.827-8.012-1.483-10.502
	c-8.296-6.243-18.181-9.542-28.587-9.542c-26.236,0-47.581,21.345-47.581,47.581v16.032
	C344.693,290.252,366.038,311.597,392.274,311.597z"/>
<path d="M103.693,104.209H47.581c-4.142,0-7.5,3.358-7.5,7.5v56.113c0,4.142,3.358,7.5,7.5,7.5s7.5-3.358,7.5-7.5v-48.613h48.613
	c4.142,0,7.5-3.358,7.5-7.5S107.835,104.209,103.693,104.209z"/>
<path d="M408.307,407.791h56.113c4.142,0,7.5-3.358,7.5-7.5v-56.113c0-4.142-3.358-7.5-7.5-7.5s-7.5,3.358-7.5,7.5v48.613h-48.613
	c-4.142,0-7.5,3.358-7.5,7.5S404.165,407.791,408.307,407.791z"/>
<path d="M471.919,111.709c0-4.142-3.358-7.5-7.5-7.5h-56.113c-4.142,0-7.5,3.358-7.5,7.5s3.358,7.5,7.5,7.5h48.613v48.613
	c0,4.142,3.358,7.5,7.5,7.5s7.5-3.358,7.5-7.5V111.709z"/>
<path d="M40.081,400.291c0,4.142,3.358,7.5,7.5,7.5h56.113c4.142,0,7.5-3.358,7.5-7.5s-3.358-7.5-7.5-7.5H55.081v-48.613
	c0-4.142-3.358-7.5-7.5-7.5s-7.5,3.358-7.5,7.5V400.291z"/>
<path d="M72.145,256c0,17.396,14.152,31.548,31.548,31.548s31.548-14.152,31.548-31.548s-14.152-31.548-31.548-31.548
	S72.145,238.604,72.145,256z M120.242,256c0,9.125-7.423,16.548-16.548,16.548S87.145,265.125,87.145,256
	s7.423-16.548,16.548-16.548S120.242,246.875,120.242,256z"/>
<path d="M55.591,432.871H31.548c-9.125,0-16.548-7.423-16.548-16.548V95.677c0-9.125,7.423-16.548,16.548-16.548h392.794
	c4.142,0,7.5-3.358,7.5-7.5s-3.358-7.5-7.5-7.5H31.548C14.152,64.129,0,78.281,0,95.677v320.646
	c0,17.396,14.152,31.548,31.548,31.548h24.043c4.142,0,7.5-3.358,7.5-7.5S59.733,432.871,55.591,432.871z"/>
<path d="M480.452,64.129h-24.048c-4.142,0-7.5,3.358-7.5,7.5s3.358,7.5,7.5,7.5h24.048c9.125,0,16.548,7.423,16.548,16.548v320.646
	c0,9.125-7.423,16.548-16.548,16.548H87.661c-4.142,0-7.5,3.358-7.5,7.5s3.358,7.5,7.5,7.5h392.791
	c17.396,0,31.548-14.152,31.548-31.548V95.677C512,78.281,497.848,64.129,480.452,64.129z"/>
<path d="M383.742,111.709c0-4.142-3.358-7.5-7.5-7.5h-32.064c-4.142,0-7.5,3.358-7.5,7.5s3.358,7.5,7.5,7.5h32.064
	C380.384,119.209,383.742,115.852,383.742,111.709z"/>
<path d="M312.113,119.209c4.142,0,7.5-3.358,7.5-7.5s-3.358-7.5-7.5-7.5h-8.016c-4.142,0-7.5,3.358-7.5,7.5s3.358,7.5,7.5,7.5
	H312.113z"/>
<path d="M135.758,407.791h80.161c4.142,0,7.5-3.358,7.5-7.5s-3.358-7.5-7.5-7.5h-80.161c-4.142,0-7.5,3.358-7.5,7.5
	S131.616,407.791,135.758,407.791z"/>
<path d="M143.258,368.226c0-4.142-3.358-7.5-7.5-7.5H79.645c-4.142,0-7.5,3.358-7.5,7.5s3.358,7.5,7.5,7.5h56.113
	C139.9,375.726,143.258,372.368,143.258,368.226z"/>
<g>
</g>
<g>
</g>
<g>
</g>
<g>
</g>
<g>
</g>
<g>
</g>
<g>
</g>
<g>
</g>
<g>
</g>
<g>
</g>
<g>
</g>
<g>
</g>
<g>
</g>
<g>
</g>
<g>
</g>
</svg>
