<?xml version="1.0" encoding="iso-8859-1"?>
<!-- Generator: Adobe Illustrator 19.0.0, SVG Export Plug-In . SVG Version: 6.00 Build 0)  -->
<svg version="1.1" id="Capa_1" xmlns="http://www.w3.org/2000/svg" xmlns:xlink="http://www.w3.org/1999/xlink" x="0px" y="0px"
	 viewBox="0 0 512.001 512.001" style="enable-background:new 0 0 512.001 512.001;" xml:space="preserve">
<polygon style="fill:#EDEBED;" points="7.501,260.009 151.791,260.009 151.791,380.251 234.499,310.683 352.194,428.348 
	504.501,83.654 "/>
<polygon style="fill:#DBD9DC;" points="151.791,260.009 151.791,380.251 504.501,83.654 "/>
<polygon style="fill:#C9C6CA;" points="151.791,328.044 151.791,380.251 504.501,83.654 "/>
<path d="M509.999,78.553c-2.037-2.195-5.184-2.97-8.007-1.968l-497,176.355c-3.441,1.221-5.502,4.743-4.883,8.341
	s3.74,6.228,7.391,6.228h136.791v112.742h0.003c-0.001,1.705,0.573,3.42,1.757,4.827c1.483,1.764,3.606,2.673,5.744,2.673
	c1.704,0,3.417-0.578,4.823-1.76l77.469-65.144l112.804,112.804c1.419,1.419,3.333,2.197,5.303,2.197
	c0.458,0,0.918-0.042,1.377-0.127c2.432-0.454,4.483-2.079,5.483-4.341L511.361,86.685
	C512.571,83.946,512.036,80.749,509.999,78.553z M51.065,252.509l340.848-120.946L150.021,252.509H51.065z M349.757,415.304
	L245.61,311.157l6.335-5.327c3.17-2.666,3.579-7.397,0.913-10.567s-7.396-3.579-10.567-0.913l-83,69.795v-99.5L451.159,118.71
	L267.838,272.866c-3.17,2.666-3.579,7.397-0.913,10.567c1.483,1.764,3.606,2.673,5.744,2.673c1.704,0,3.417-0.578,4.823-1.76
	l207.071-174.128L349.757,415.304z"/>
<g>
</g>
<g>
</g>
<g>
</g>
<g>
</g>
<g>
</g>
<g>
</g>
<g>
</g>
<g>
</g>
<g>
</g>
<g>
</g>
<g>
</g>
<g>
</g>
<g>
</g>
<g>
</g>
<g>
</g>
</svg>
