<?xml version="1.0" encoding="iso-8859-1"?>
<!-- Generator: Adobe Illustrator 19.0.0, SVG Export Plug-In . SVG Version: 6.00 Build 0)  -->
<svg version="1.1" id="Capa_1" xmlns="http://www.w3.org/2000/svg" xmlns:xlink="http://www.w3.org/1999/xlink" x="0px" y="0px"
	 viewBox="0 0 511.999 511.999" style="enable-background:new 0 0 511.999 511.999;" xml:space="preserve">
<path style="fill:#EDEBED;" d="M480.452,55.596H31.548C18.267,55.596,7.5,66.363,7.5,79.644v56.113h497V79.644
	C504.5,66.363,493.733,55.596,480.452,55.596z"/>
<path style="fill:#FFFFFF;" d="M480.452,456.402H31.548c-13.282,0-24.048-10.767-24.048-24.048V135.757h497v296.597
	C504.5,445.635,493.733,456.402,480.452,456.402z"/>
<circle style="fill:#A5CDFF;" cx="256" cy="296.079" r="80.16"/>
<path style="fill:#8CB4EB;" d="M280.048,352.193c-44.272,0-80.161-35.89-80.161-80.161c0-15.978,4.728-30.827,12.785-43.328
	c-22.137,14.266-36.833,39.083-36.833,67.377c0,44.272,35.89,80.161,80.161,80.161c28.294,0,53.111-14.696,67.377-36.833
	C310.876,347.464,296.026,352.193,280.048,352.193z"/>
<circle style="fill:#CDF5A0;" cx="79.64" cy="296.079" r="24.05"/>
<circle style="fill:#FFE17D;" cx="432.36" cy="296.079" r="24.05"/>
<path style="fill:#B4E6A0;" d="M91.669,308.104c-13.282,0-24.048-10.767-24.048-24.048c0-3.524,0.8-6.846,2.162-9.862
	c-8.35,3.771-14.186,12.129-14.186,21.886c0,13.282,10.767,24.048,24.048,24.048c9.757,0,18.116-5.836,21.886-14.186
	C98.516,307.304,95.194,308.104,91.669,308.104z"/>
<path style="fill:#FFD164;" d="M444.379,308.104c-13.282,0-24.048-10.767-24.048-24.048c0-3.524,0.8-6.846,2.162-9.862
	c-8.35,3.771-14.186,12.129-14.186,21.886c0,13.282,10.767,24.048,24.048,24.048c9.757,0,18.116-5.836,21.886-14.186
	C451.225,307.304,447.903,308.104,444.379,308.104z"/>
<path d="M480.452,48.096H31.548C14.152,48.096,0,62.248,0,79.645v352.709c0,17.396,14.152,31.549,31.548,31.549h448.903
	c17.396,0,31.548-14.152,31.548-31.549V79.645C512,62.248,497.848,48.096,480.452,48.096z M497,432.353
	c0,9.125-7.423,16.549-16.548,16.549H31.548c-9.125,0-16.548-7.424-16.548-16.549V79.645c0-9.125,7.423-16.549,16.548-16.549
	h448.903c9.125,0,16.548,7.424,16.548,16.549L497,432.353L497,432.353z"/>
<path d="M472.436,128.257H39.564c-4.142,0-7.5,3.358-7.5,7.5c0,4.143,3.358,7.5,7.5,7.5h432.871c4.142,0,7.5-3.357,7.5-7.5
	C479.936,131.615,476.578,128.257,472.436,128.257z"/>
<path d="M127.742,103.177H360.21c4.142,0,7.5-3.358,7.5-7.5c0-4.143-3.358-7.5-7.5-7.5H127.742c-4.142,0-7.5,3.357-7.5,7.5
	C120.242,99.818,123.6,103.177,127.742,103.177z"/>
<path d="M39.645,103.177c4.142,0,7.5-3.358,7.5-7.5c0-4.143-3.358-7.5-7.5-7.5h-0.08c-4.142,0-7.46,3.357-7.46,7.5
	C32.104,99.818,35.502,103.177,39.645,103.177z"/>
<path d="M87.741,103.177c4.142,0,7.5-3.358,7.5-7.5c0-4.143-3.358-7.5-7.5-7.5h-0.08c-4.142,0-7.46,3.357-7.46,7.5
	C80.201,99.818,83.599,103.177,87.741,103.177z"/>
<path d="M63.693,103.177c4.142,0,7.5-3.358,7.5-7.5c0-4.143-3.358-7.5-7.5-7.5h-0.08c-4.142,0-7.46,3.357-7.46,7.5
	C56.153,99.818,59.551,103.177,63.693,103.177z"/>
<path d="M472.436,88.177h-72.145c-4.142,0-7.5,3.357-7.5,7.5c0,4.142,3.358,7.5,7.5,7.5h72.145c4.142,0,7.5-3.358,7.5-7.5
	C479.936,91.534,476.578,88.177,472.436,88.177z"/>
<path d="M343.66,296.015c-0.035-48.307-39.346-87.597-87.66-87.597c-48.332,0-87.654,39.318-87.661,87.648
	c0,0.004-0.001,0.009-0.001,0.013s0.001,0.009,0.001,0.013c0.007,48.331,39.329,87.648,87.661,87.648
	c48.315,0,87.625-39.29,87.66-87.597c0-0.021,0.003-0.042,0.003-0.064S343.661,296.037,343.66,296.015z M315.026,338.375
	c-6.148-2.493-12.412-4.587-18.779-6.269c1.934-8.933,3.129-18.562,3.531-28.526h28.496
	C326.947,316.473,322.219,328.366,315.026,338.375z M183.725,303.58h28.496c0.402,9.964,1.597,19.594,3.531,28.526
	c-6.367,1.682-12.631,3.776-18.779,6.269C189.781,328.366,185.053,316.473,183.725,303.58z M196.979,253.776
	c6.147,2.493,12.409,4.588,18.774,6.271c-1.935,8.934-3.13,18.566-3.532,28.533h-28.496
	C185.054,275.683,189.784,263.787,196.979,253.776z M288.593,236.294c-1.09-2.398-2.242-4.648-3.449-6.754
	c7.033,3.093,13.486,7.264,19.147,12.31c-3.961,1.43-7.972,2.68-12.03,3.746C291.15,242.341,289.927,239.23,288.593,236.294z
	 M274.937,242.501c0.889,1.956,1.718,4.013,2.495,6.144c-7.032,1.057-14.174,1.597-21.406,1.597c-7.249,0-14.408-0.542-21.455-1.604
	c0.777-2.128,1.604-4.183,2.493-6.137c5.431-11.949,12.51-19.083,18.937-19.083C262.428,223.418,269.506,230.552,274.937,242.501z
	 M227.226,288.58c0.389-8.929,1.474-17.5,3.191-25.409c8.401,1.372,16.948,2.071,25.609,2.071c8.644,0,17.174-0.696,25.559-2.062
	c1.716,7.907,2.8,16.475,3.189,25.4H227.226z M284.774,303.58c-0.389,8.927-1.474,17.497-3.19,25.405
	c-8.393-1.369-16.932-2.066-25.584-2.066s-17.191,0.697-25.584,2.066c-1.716-7.908-2.801-16.478-3.19-25.405H284.774z
	 M223.407,236.294c-1.333,2.932-2.554,6.04-3.664,9.29c-4.054-1.066-8.061-2.317-12.019-3.747
	c5.657-5.041,12.104-9.207,19.131-12.297C225.65,231.646,224.497,233.895,223.407,236.294z M219.741,346.57
	c1.111,3.252,2.332,6.361,3.666,9.296c1.09,2.398,2.242,4.647,3.449,6.754c-7.03-3.091-13.48-7.26-19.139-12.303
	C211.676,348.886,215.686,347.636,219.741,346.57z M237.063,349.659c-0.889-1.955-1.717-4.011-2.494-6.141
	c7.04-1.059,14.19-1.6,21.431-1.6s14.391,0.541,21.431,1.6c-0.777,2.13-1.605,4.186-2.494,6.141
	c-5.431,11.949-12.51,19.083-18.937,19.083S242.494,361.607,237.063,349.659z M288.593,355.866c1.334-2.935,2.555-6.043,3.666-9.296
	c4.056,1.066,8.065,2.316,12.024,3.747c-5.659,5.043-12.109,9.212-19.139,12.303C286.35,360.513,287.503,358.264,288.593,355.866z
	 M299.779,288.58c-0.402-9.962-1.597-19.589-3.53-28.52c6.368-1.681,12.634-3.775,18.783-6.267
	c7.189,10.007,11.915,21.897,13.243,34.787H299.779z"/>
<path d="M143.772,288.58h-33.487c-3.375-13.786-15.829-24.048-30.64-24.048c-17.396,0-31.548,14.152-31.548,31.548
	s14.152,31.548,31.548,31.548c14.812,0,27.265-10.262,30.64-24.048h33.487c4.142,0,7.5-3.358,7.5-7.5S147.915,288.58,143.772,288.58
	z M79.645,312.628c-9.125,0-16.548-7.423-16.548-16.548s7.423-16.548,16.548-16.548s16.548,7.424,16.548,16.548
	C96.193,305.205,88.77,312.628,79.645,312.628z"/>
<path d="M432.355,264.531c-14.812,0-27.265,10.263-30.64,24.048h-33.486c-4.142,0-7.5,3.358-7.5,7.5s3.358,7.5,7.5,7.5h33.486
	c3.375,13.786,15.829,24.048,30.64,24.048c17.396,0,31.548-14.152,31.548-31.548S449.751,264.531,432.355,264.531z M432.355,312.628
	c-9.125,0-16.548-7.423-16.548-16.548s7.423-16.548,16.548-16.548s16.548,7.424,16.548,16.548
	C448.903,305.205,441.48,312.628,432.355,312.628z"/>
<g>
</g>
<g>
</g>
<g>
</g>
<g>
</g>
<g>
</g>
<g>
</g>
<g>
</g>
<g>
</g>
<g>
</g>
<g>
</g>
<g>
</g>
<g>
</g>
<g>
</g>
<g>
</g>
<g>
</g>
</svg>
