<?xml version="1.0" encoding="iso-8859-1"?>
<!-- Generator: Adobe Illustrator 19.0.0, SVG Export Plug-In . SVG Version: 6.00 Build 0)  -->
<svg version="1.1" id="Capa_1" xmlns="http://www.w3.org/2000/svg" xmlns:xlink="http://www.w3.org/1999/xlink" x="0px" y="0px"
	 viewBox="0 0 511.999 511.999" style="enable-background:new 0 0 511.999 511.999;" xml:space="preserve">
<path style="fill:#DBD9DC;" d="M320.129,504.5H191.871c-13.282,0-24.048-10.767-24.048-24.048V31.548
	c0-13.282,10.767-24.048,24.048-24.048h128.258c13.282,0,24.048,10.767,24.048,24.048v448.903
	C344.177,493.733,333.411,504.5,320.129,504.5z"/>
<path style="fill:#C9C6CA;" d="M167.823,480.452c0,13.281,10.767,24.048,24.048,24.048h128.258
	c13.282,0,24.048-10.767,24.048-24.048H167.823z"/>
<path style="fill:#6F6571;" d="M320.129,296.081H191.871c-13.282,0-24.048-10.767-24.048-24.048V31.548
	c0-13.282,10.767-24.048,24.048-24.048h128.258c13.282,0,24.048,10.767,24.048,24.048v240.484
	C344.177,285.314,333.411,296.081,320.129,296.081z"/>
<g>
	<circle style="fill:#867E88;" cx="219.93" cy="243.98" r="20.04"/>
	<circle style="fill:#867E88;" cx="292.07" cy="243.98" r="20.04"/>
</g>
<path style="fill:#E6646E;" d="M304.096,183.855h-96.194c-4.427,0-8.016-3.589-8.016-8.016V79.645c0-4.427,3.589-8.016,8.016-8.016
	h96.194c4.427,0,8.016,3.589,8.016,8.016v96.194C312.113,180.266,308.523,183.855,304.096,183.855z"/>
<rect x="223.94" y="95.68" style="fill:#FF8087;" width="64.13" height="64.13"/>
<path style="fill:#5D5360;" d="M167.948,274.5c1.236,12.122,11.475,21.581,23.923,21.581h128.258
	c12.448,0,22.687-9.458,23.923-21.581H167.948z"/>
<path d="M320.129,0H191.871c-17.396,0-31.548,14.152-31.548,31.548v448.903c0,17.396,14.152,31.548,31.548,31.548h128.258
	c17.396,0,31.548-14.152,31.548-31.548V31.548C351.677,14.152,337.525,0,320.129,0z M175.323,31.548
	c0-9.125,7.423-16.548,16.548-16.548h128.258c9.125,0,16.548,7.423,16.548,16.548v240.484c0,9.125-7.423,16.548-16.548,16.548
	H191.871c-9.125,0-16.548-7.423-16.548-16.548V31.548z M320.129,497H191.871c-9.125,0-16.548-7.423-16.548-16.548V298.877
	c4.814,2.979,10.483,4.703,16.548,4.703h128.258c6.065,0,11.734-1.725,16.548-4.703v181.574
	C336.677,489.577,329.254,497,320.129,497z"/>
<path d="M239.968,47.064h32.064c4.142,0,7.5-3.358,7.5-7.5s-3.358-7.5-7.5-7.5h-32.064c-4.142,0-7.5,3.358-7.5,7.5
	S235.826,47.064,239.968,47.064z"/>
<path d="M207.903,191.355h8.015c4.142,0,7.5-3.358,7.5-7.5s-3.358-7.5-7.5-7.5h-8.015c-0.285,0-0.516-0.231-0.516-0.516V79.645
	c0-0.285,0.231-0.516,0.516-0.516h56.113c4.142,0,7.5-3.358,7.5-7.5s-3.358-7.5-7.5-7.5h-56.113c-8.556,0-15.516,6.96-15.516,15.516
	v96.194C192.387,184.395,199.348,191.355,207.903,191.355z"/>
<path d="M296.082,79.129h8.015c0.285,0,0.516,0.231,0.516,0.516v96.194c0,0.285-0.231,0.516-0.516,0.516h-56.11
	c-4.142,0-7.5,3.358-7.5,7.5s3.358,7.5,7.5,7.5h56.11c8.556,0,15.516-6.96,15.516-15.516V79.645c0-8.556-6.96-15.516-15.516-15.516
	h-8.015c-4.142,0-7.5,3.358-7.5,7.5S291.94,79.129,296.082,79.129z"/>
<path d="M219.927,271.516c15.186,0,27.541-12.354,27.541-27.541c0-15.186-12.354-27.54-27.541-27.54
	c-15.186,0-27.54,12.354-27.54,27.54C192.387,259.162,204.742,271.516,219.927,271.516z M219.927,231.436
	c6.915,0,12.541,5.625,12.541,12.54s-5.625,12.541-12.541,12.541c-6.915,0-12.54-5.625-12.54-12.541
	C207.387,237.061,213.013,231.436,219.927,231.436z"/>
<path d="M292.073,216.436c-15.186,0-27.541,12.354-27.541,27.54s12.354,27.541,27.541,27.541c15.186,0,27.54-12.354,27.54-27.541
	C319.613,228.79,307.258,216.436,292.073,216.436z M292.073,256.516c-6.915,0-12.541-5.625-12.541-12.541
	c0-6.915,5.625-12.54,12.541-12.54c6.915,0,12.54,5.625,12.54,12.54C304.613,250.891,298.987,256.516,292.073,256.516z"/>
<path d="M223.936,351.677h64.129c4.142,0,7.5-3.358,7.5-7.5s-3.358-7.5-7.5-7.5h-64.129c-4.142,0-7.5,3.358-7.5,7.5
	S219.793,351.677,223.936,351.677z"/>
<path d="M304.096,368.742h-96.193c-4.142,0-7.5,3.358-7.5,7.5s3.358,7.5,7.5,7.5h96.193c4.142,0,7.5-3.358,7.5-7.5
	S308.239,368.742,304.096,368.742z"/>
<path d="M304.096,400.807h-96.193c-4.142,0-7.5,3.358-7.5,7.5s3.358,7.5,7.5,7.5h96.193c4.142,0,7.5-3.358,7.5-7.5
	S308.239,400.807,304.096,400.807z"/>
<path d="M288.064,432.871h-64.129c-4.142,0-7.5,3.358-7.5,7.5s3.358,7.5,7.5,7.5h64.129c4.142,0,7.5-3.358,7.5-7.5
	S292.207,432.871,288.064,432.871z"/>
<g>
</g>
<g>
</g>
<g>
</g>
<g>
</g>
<g>
</g>
<g>
</g>
<g>
</g>
<g>
</g>
<g>
</g>
<g>
</g>
<g>
</g>
<g>
</g>
<g>
</g>
<g>
</g>
<g>
</g>
</svg>
