<?xml version="1.0" encoding="iso-8859-1"?>
<!-- Generator: Adobe Illustrator 19.0.0, SVG Export Plug-In . SVG Version: 6.00 Build 0)  -->
<svg version="1.1" id="Capa_1" xmlns="http://www.w3.org/2000/svg" xmlns:xlink="http://www.w3.org/1999/xlink" x="0px" y="0px"
	 viewBox="0 0 511.998 511.998" style="enable-background:new 0 0 511.998 511.998;" xml:space="preserve">
<path style="fill:#6F6571;" d="M480.452,336.16H31.548c-13.282,0-24.048-10.767-24.048-24.048V199.886
	c0-13.282,10.767-24.048,24.048-24.048h448.903c13.282,0,24.048,10.767,24.048,24.048v112.226
	C504.5,325.393,493.733,336.16,480.452,336.16z"/>
<circle style="fill:#5D5360;" cx="344.18" cy="223.939" r="80.16"/>
<g>
	<path style="fill:#4B3F4E;" d="M31.548,336.16v24.048c0,4.427,3.589,8.016,8.016,8.016h11.078c3.036,0,5.812-1.715,7.17-4.431
		l13.817-27.633H31.548z"/>
	<path style="fill:#4B3F4E;" d="M480.452,336.16v24.048c0,4.427-3.589,8.016-8.016,8.016h-11.078c-3.036,0-5.812-1.715-7.17-4.431
		l-13.817-27.633H480.452z"/>
</g>
<circle style="fill:#A5CDFF;" cx="344.18" cy="223.939" r="48.1"/>
<circle style="fill:#DCEBFF;" cx="344.18" cy="223.939" r="24.05"/>
<path style="fill:#5D5360;" d="M7.5,312.112c0,13.282,10.767,24.048,24.048,24.048h448.903c13.281,0,24.048-10.767,24.048-24.048
	H7.5z"/>
<path d="M480.452,168.338h-68.549c-16.09-19.565-40.475-32.064-67.725-32.064s-51.634,12.499-67.725,32.064H31.548
	C14.152,168.338,0,182.49,0,199.886v112.226c0,14.812,10.262,27.265,24.048,30.64v17.456c0,8.556,6.96,15.516,15.516,15.516h11.078
	c5.915,0,11.233-3.287,13.878-8.577l11.743-23.487h359.472l11.743,23.487c2.645,5.291,7.963,8.577,13.878,8.577h11.078
	c8.556,0,15.516-6.96,15.516-15.516v-17.456c13.786-3.375,24.048-15.829,24.048-30.64V199.886
	C512,182.49,497.848,168.338,480.452,168.338z M344.177,151.273c40.066,0,72.662,32.596,72.662,72.661s-32.596,72.661-72.662,72.661
	c-40.065,0-72.661-32.596-72.661-72.661S304.112,151.273,344.177,151.273z M51.104,360.439c-0.088,0.176-0.265,0.285-0.462,0.285
	H39.564c-0.285,0-0.516-0.231-0.516-0.516V343.66h20.446L51.104,360.439z M472.436,360.725h-11.078
	c-0.197,0-0.374-0.109-0.462-0.285l-8.39-16.779h20.446v16.548C472.952,360.493,472.72,360.725,472.436,360.725z M497,312.112
	c0,9.125-7.423,16.548-16.548,16.548H31.548c-9.125,0-16.548-7.423-16.548-16.548V199.886c0-9.125,7.423-16.548,16.548-16.548
	h234.954c-6.373,12.145-9.986,25.956-9.986,40.597c0,48.336,39.325,87.661,87.661,87.661c48.337,0,87.662-39.325,87.662-87.661
	c0-14.641-3.613-28.452-9.986-40.597h58.599c9.125,0,16.548,7.423,16.548,16.548V312.112z"/>
<path d="M294.039,247.86c1.286,2.697,3.973,4.273,6.774,4.273c1.082,0,2.182-0.236,3.224-0.733c3.739-1.783,5.324-6.26,3.54-9.998
	c-7.395-15.501-4.222-34.057,7.894-46.174c12.116-12.116,30.672-15.288,46.173-7.894c3.74,1.784,8.215,0.198,9.999-3.54
	c1.784-3.739,0.199-8.215-3.54-9.999c-21.224-10.125-46.638-5.775-63.238,10.825C288.265,201.222,283.914,226.635,294.039,247.86z"
	/>
<path d="M326.711,260.535c-3.74-1.787-8.215-0.199-9.999,3.54s-0.199,8.215,3.54,9.999c7.634,3.642,15.81,5.411,23.923,5.411
	c14.443,0,28.686-5.607,39.315-16.237c16.601-16.6,20.951-42.013,10.826-63.238c-1.783-3.738-6.259-5.322-9.999-3.54
	c-3.738,1.783-5.323,6.26-3.54,9.999c7.395,15.501,4.223,34.057-7.894,46.173C360.768,264.756,342.212,267.93,326.711,260.535z"/>
<path d="M183.855,216.435H55.597c-4.142,0-7.5,3.358-7.5,7.5s3.358,7.5,7.5,7.5h128.258c4.142,0,7.5-3.358,7.5-7.5
	S187.997,216.435,183.855,216.435z"/>
<path d="M183.855,248.499H55.597c-4.142,0-7.5,3.358-7.5,7.5c0,4.142,3.358,7.5,7.5,7.5h128.258c4.142,0,7.5-3.358,7.5-7.5
	C191.355,251.857,187.997,248.499,183.855,248.499z"/>
<path d="M183.855,280.563H55.597c-4.142,0-7.5,3.358-7.5,7.5s3.358,7.5,7.5,7.5h128.258c4.142,0,7.5-3.358,7.5-7.5
	S187.997,280.563,183.855,280.563z"/>
<g>
</g>
<g>
</g>
<g>
</g>
<g>
</g>
<g>
</g>
<g>
</g>
<g>
</g>
<g>
</g>
<g>
</g>
<g>
</g>
<g>
</g>
<g>
</g>
<g>
</g>
<g>
</g>
<g>
</g>
</svg>
