<?xml version="1.0" encoding="iso-8859-1"?>
<!-- Generator: Adobe Illustrator 19.0.0, SVG Export Plug-In . SVG Version: 6.00 Build 0)  -->
<svg version="1.1" id="Capa_1" xmlns="http://www.w3.org/2000/svg" xmlns:xlink="http://www.w3.org/1999/xlink" x="0px" y="0px"
	 viewBox="0 0 512 512" style="enable-background:new 0 0 512 512;" xml:space="preserve">
<circle style="fill:#A5CDFF;" cx="312.11" cy="199.89" r="192.39"/>
<path style="fill:#8CB4EB;" d="M353.936,350.451c-106.253,0-192.387-86.135-192.387-192.387c0-42.454,13.78-81.673,37.071-113.493
	c-47.818,35.001-78.894,91.517-78.894,155.316c0,106.252,86.134,192.387,192.387,192.387c63.798,0,120.314-31.077,155.315-78.894
	C435.608,336.671,396.389,350.451,353.936,350.451z"/>
<path style="fill:#6F6571;" d="M12.196,499.804L12.196,499.804c-6.261-6.261-6.261-16.412,0-22.673l92.873-92.873
	c6.261-6.261,16.412-6.261,22.673,0l0,0c6.261,6.261,6.261,16.412,0,22.673l-92.873,92.873
	C28.608,506.065,18.457,506.065,12.196,499.804z"/>
<path style="fill:#C9C6CA;" d="M127.742,384.258c-6.261-6.261-16.412-6.261-22.673,0L92.357,396.97l22.673,22.673l12.712-12.712
	C134.003,400.67,134.003,390.519,127.742,384.258z"/>
<circle style="fill:#EDEBED;" cx="231.95" cy="280.05" r="112.23"/>
<circle style="fill:#FFFFFF;" cx="231.95" cy="280.05" r="80.16"/>
<path style="fill:#FF8087;" d="M235.755,232.171c-19.41-2.233-35.868,12.884-35.868,31.845c0,25.397,20.116,50.794,28.482,60.258
	c1.901,2.15,5.252,2.165,7.153,0.015c7.92-8.957,26.415-32.242,28.333-56.278C265.267,250.314,253.391,234.2,235.755,232.171z"/>
<path style="fill:#E6646E;" d="M223.935,261.472c0-11.847,4.715-22.374,12.038-29.253c-0.076-0.009-0.143-0.039-0.219-0.048
	c-19.409-2.233-35.867,12.884-35.867,31.845c0,25.397,20.116,50.794,28.481,60.258c1.901,2.15,5.253,2.165,7.153,0.015
	c1.72-1.945,3.986-4.671,6.425-7.828C233.327,302.095,223.935,281.788,223.935,261.472z"/>
<path d="M312.113,0c-51.942,0-101.155,19.828-138.574,55.831c-37.313,35.901-59.027,84.106-61.143,135.734
	c-0.169,4.139,3.048,7.631,7.187,7.801c4.139,0.185,7.632-3.048,7.801-7.187c1.607-39.216,15.452-76.291,39.466-106.689
	c16.532,7.136,33.443,13.006,50.674,17.597c-2.935,9.956-5.44,20.41-7.451,31.316c-0.751,4.073,1.942,7.984,6.016,8.735
	c0.459,0.085,0.917,0.126,1.368,0.126c3.548,0,6.701-2.528,7.367-6.142c1.964-10.651,4.409-20.828,7.279-30.477
	c23.661,5.264,47.882,8.155,72.511,8.647v44.514c0,4.142,3.358,7.5,7.5,7.5s7.5-3.358,7.5-7.5v-44.511
	c24.631-0.483,48.854-3.367,72.519-8.624c7.802,26.078,12.166,55.234,12.78,85.715h-52.718c-4.142,0-7.5,3.358-7.5,7.5
	s3.358,7.5,7.5,7.5h52.713c-0.624,30.459-5.04,59.786-12.796,85.763c-4.826-1.073-9.673-2.057-14.54-2.933
	c-4.083-0.735-7.977,1.977-8.71,6.053c-0.734,4.077,1.976,7.977,6.053,8.71c4.169,0.75,8.322,1.586,12.461,2.487
	c-2.553,6.99-5.365,13.68-8.432,20.011c-16.077,33.194-37.363,53.357-59.936,56.775c-3.841,0.582-6.558,3.982-6.368,7.781
	c-0.001,0.128-0.009,0.254-0.004,0.383c0.165,4.034,3.487,7.193,7.488,7.193c0.104,0,0.208-0.002,0.312-0.006
	c51.628-2.116,99.833-23.83,135.734-61.143C492.172,301.042,512,251.829,512,199.887C512,89.669,422.331,0,312.113,0z
	 M177.125,73.554c2.207-2.354,4.474-4.662,6.815-6.914c22.44-21.591,49.471-36.884,78.798-44.975
	c-5.309,5.013-10.408,10.864-15.251,17.542c-10.016,13.811-18.539,30.573-25.325,49.586
	C206.873,84.758,191.845,79.677,177.125,73.554z M236.82,92.322c6.203-17.026,13.876-31.991,22.809-44.309
	c9.733-13.42,25.068-29.126,44.983-32.39v84.667C281.596,99.812,258.954,97.146,236.82,92.322z M319.613,100.293V15.637
	c18.317,3.079,36.089,17.339,50.719,40.937c2.183,3.521,6.806,4.605,10.326,2.423c3.521-2.183,4.605-6.806,2.423-10.326
	c-6.611-10.664-13.888-19.696-21.644-26.979c33.209,9.203,62.687,27.461,85.606,51.939c-14.703,6.107-29.714,11.172-44.984,15.196
	c-0.842-2.354-1.707-4.685-2.606-6.982c-1.509-3.857-5.857-5.761-9.717-4.252c-3.857,1.509-5.761,5.859-4.252,9.717
	c0.65,1.662,1.274,3.351,1.893,5.045C365.252,97.167,342.619,99.822,319.613,100.293z M406.712,103.117
	c17.208-4.579,34.097-10.432,50.61-17.549c23.39,29.647,37.9,66.601,39.514,106.819h-76.924
	C419.297,160.745,414.788,130.392,406.712,103.117z M419.909,207.387h76.93c-1.562,39.159-15.328,76.326-39.451,106.88
	c-16.413-7.077-33.345-12.938-50.618-17.536C414.617,270.117,419.282,239.759,419.909,207.387z M361.527,378.1
	c16.544-15.56,30.49-38.741,40.605-67.083c15.313,4.038,30.348,9.115,44.973,15.187c-0.58,0.619-1.154,1.243-1.744,1.856
	C422.069,352.268,393.177,369.365,361.527,378.1z"/>
<path d="M231.952,399.774c66.017,0,119.726-53.709,119.726-119.726S297.97,160.322,231.952,160.322S112.226,214.03,112.226,280.048
	c0,30.315,11.332,58.03,29.974,79.146l-15.339,15.339c-8.801-4.359-19.775-2.898-27.095,4.422L6.893,471.828
	C2.448,476.272,0,482.182,0,488.468c0,6.286,2.448,12.195,6.892,16.64l0,0c4.445,4.444,10.354,6.892,16.64,6.892
	s12.195-2.448,16.64-6.893l92.874-92.873c7.319-7.32,8.78-18.294,4.421-27.095l15.339-15.339
	C173.922,388.443,201.636,399.774,231.952,399.774z M231.952,175.323c57.746,0,104.726,46.979,104.726,104.726
	s-46.979,104.726-104.726,104.726s-104.726-46.98-104.726-104.726S174.206,175.323,231.952,175.323z M29.565,494.501
	c-1.611,1.612-3.754,2.499-6.033,2.499s-4.421-0.887-6.033-2.499l0,0C15.887,492.89,15,490.747,15,488.468s0.887-4.421,2.499-6.033
	l74.858-74.858l12.067,12.067L29.565,494.501z M122.439,401.628l-7.409,7.409l-12.067-12.067l7.409-7.409
	c1.612-1.611,3.754-2.499,6.033-2.499s4.422,0.888,6.034,2.499C125.766,392.888,125.765,398.301,122.439,401.628z"/>
<path d="M165.078,331.757c1.422,0,2.861-0.404,4.135-1.249c3.453-2.288,4.398-6.941,2.11-10.395
	c-18.979-28.648-15.09-67.106,9.249-91.445c24.338-24.338,62.795-28.229,91.445-9.249c3.453,2.287,8.106,1.343,10.395-2.11
	c2.288-3.453,1.343-8.107-2.11-10.395c-34.571-22.903-80.974-18.215-110.335,11.147c-29.362,29.362-34.05,75.765-11.147,110.335
	C160.262,330.577,162.647,331.757,165.078,331.757z"/>
<path d="M283.331,331.428c-24.339,24.338-62.797,28.228-91.445,9.249c-3.453-2.288-8.106-1.343-10.395,2.11
	c-2.288,3.453-1.343,8.107,2.11,10.395c14.679,9.725,31.486,14.474,48.222,14.474c22.677,0,45.219-8.727,62.113-25.621
	c29.362-29.362,34.05-75.765,11.147-110.335c-2.288-3.453-6.942-4.398-10.395-2.11s-4.398,6.941-2.11,10.395
	C311.559,268.631,307.669,307.089,283.331,331.428z"/>
<path d="M237.255,333.448c1.399-1.399,34.261-34.661,34.261-69.432c0-21.816-17.749-39.564-39.564-39.564
	s-39.564,17.749-39.564,39.564c0,34.771,32.862,68.033,34.261,69.432c1.464,1.464,3.384,2.197,5.303,2.197
	S235.791,334.913,237.255,333.448z M207.387,264.016c0-13.545,11.02-24.564,24.564-24.564s24.564,11.02,24.564,24.564
	c0,20.972-15.99,42.749-24.572,52.925C223.359,306.783,207.387,285.056,207.387,264.016z"/>
<path d="M232.032,256.516h-0.08c-4.142,0-7.46,3.358-7.46,7.5c0,4.142,3.398,7.5,7.54,7.5s7.5-3.358,7.5-7.5
	C239.532,259.874,236.174,256.516,232.032,256.516z"/>
<g>
</g>
<g>
</g>
<g>
</g>
<g>
</g>
<g>
</g>
<g>
</g>
<g>
</g>
<g>
</g>
<g>
</g>
<g>
</g>
<g>
</g>
<g>
</g>
<g>
</g>
<g>
</g>
<g>
</g>
</svg>
