<?xml version="1.0" encoding="iso-8859-1"?>
<!-- Generator: Adobe Illustrator 19.0.0, SVG Export Plug-In . SVG Version: 6.00 Build 0)  -->
<svg version="1.1" id="Capa_1" xmlns="http://www.w3.org/2000/svg" xmlns:xlink="http://www.w3.org/1999/xlink" x="0px" y="0px"
	 viewBox="0 0 512 512" style="enable-background:new 0 0 512 512;" xml:space="preserve">
<circle style="fill:#FFF2C5;" cx="255.999" cy="111.71" r="104.21"/>
<circle style="fill:#FFE17D;" cx="255.999" cy="111.71" r="64.13"/>
<circle style="fill:#FFFFFF;" cx="255.999" cy="111.71" r="24.05"/>
<path d="M392.273,497h-10.492l-69.849-227.188c-1.218-3.96-5.413-6.183-9.373-4.965c-3.959,1.217-6.182,5.414-4.965,9.373
	l1.951,6.344h-87.091l42.226-137.34c0.438,0.018,0.877,0.033,1.32,0.033s0.882-0.015,1.32-0.033l30.427,98.963
	c0.992,3.225,3.96,5.298,7.167,5.298c0.73,0,1.472-0.107,2.207-0.333c3.959-1.217,6.182-5.414,4.965-9.373l-30.357-98.739
	c9.446-5.457,15.821-15.66,15.821-27.331c0-17.396-14.152-31.549-31.548-31.549s-31.548,14.153-31.548,31.549
	c0,11.671,6.375,21.875,15.822,27.331l-82.108,267.058c-1.217,3.959,1.005,8.156,4.965,9.373c0.734,0.226,1.477,0.333,2.207,0.333
	c3.207,0,6.175-2.073,7.167-5.298l3.301-10.735c0.012,0,0.023,0.002,0.035,0.002h144.609l-172.249,89.783l14.446-46.984
	c1.217-3.959-1.006-8.156-4.965-9.373c-3.96-1.218-8.155,1.005-9.373,4.965L130.217,497h-10.492c-4.142,0-7.5,3.358-7.5,7.5
	s3.358,7.5,7.5,7.5h272.549c4.142,0,7.5-3.358,7.5-7.5S396.416,497,392.273,497z M255.999,95.161
	c9.125,0,16.548,7.424,16.548,16.549s-7.423,16.548-16.548,16.548s-16.548-7.423-16.548-16.548S246.874,95.161,255.999,95.161z
	 M366.088,497H166.372l172.131-89.722L366.088,497z M331.584,384.774H193.9l112.533-81.805L331.584,384.774z M291.11,295.564
	l-107.235,77.953l23.967-77.953H291.11z"/>
<path d="M299.136,159.748c1.426,1.258,3.197,1.876,4.96,1.876c2.077,0,4.144-0.857,5.626-2.537
	c11.546-13.084,17.905-29.909,17.905-47.377c0-39.497-32.133-71.629-71.629-71.629s-71.629,32.132-71.629,71.629
	c0,17.46,6.354,34.281,17.893,47.363c2.74,3.106,7.479,3.403,10.586,0.664s3.404-7.479,0.664-10.585
	c-9.12-10.34-14.143-23.637-14.143-37.441c0-31.226,25.404-56.629,56.629-56.629s56.629,25.404,56.629,56.629
	c0,13.81-5.026,27.11-14.152,37.452C295.735,152.268,296.031,157.007,299.136,159.748z"/>
<path d="M187.291,199.797c1.371,1.071,2.997,1.589,4.611,1.589c2.23,0,4.438-0.99,5.916-2.884c2.55-3.264,1.97-7.978-1.294-10.527
	c-23.664-18.482-37.235-46.28-37.235-76.266C159.29,58.384,202.673,15,255.999,15s96.709,43.384,96.709,96.71
	c0,29.968-13.559,57.755-37.199,76.237c-3.263,2.551-3.841,7.265-1.29,10.528s7.265,3.841,10.528,1.29
	c27.302-21.345,42.96-53.439,42.96-88.055C367.708,50.113,317.596,0,255.999,0S144.29,50.113,144.29,111.71
	C144.29,146.346,159.963,178.452,187.291,199.797z"/>
<g>
</g>
<g>
</g>
<g>
</g>
<g>
</g>
<g>
</g>
<g>
</g>
<g>
</g>
<g>
</g>
<g>
</g>
<g>
</g>
<g>
</g>
<g>
</g>
<g>
</g>
<g>
</g>
<g>
</g>
</svg>
