<?xml version="1.0" encoding="iso-8859-1"?>
<!-- Generator: Adobe Illustrator 19.0.0, SVG Export Plug-In . SVG Version: 6.00 Build 0)  -->
<svg version="1.1" id="Capa_1" xmlns="http://www.w3.org/2000/svg" xmlns:xlink="http://www.w3.org/1999/xlink" x="0px" y="0px"
	 viewBox="0 0 511.999 511.999" style="enable-background:new 0 0 511.999 511.999;" xml:space="preserve">
<path style="fill:#6F6571;" d="M488.468,175.839h-352.71c-8.854,0-16.032,7.178-16.032,16.032v224.452
	c0,8.854,7.178,16.032,16.032,16.032h352.71c8.854,0,16.032-7.178,16.032-16.032V191.871
	C504.5,183.017,497.322,175.839,488.468,175.839z"/>
<path style="fill:#FFFFFF;" d="M488.468,175.839h-352.71c-8.854,0-16.032,7.178-16.032,16.032V400.29H504.5V191.871
	C504.5,183.017,497.322,175.839,488.468,175.839z"/>
<path style="fill:#EDEBED;" d="M119.726,191.871v136.274H400.29c26.563,0,48.097-21.534,48.097-48.097v-104.21H135.758
	C126.904,175.839,119.726,183.017,119.726,191.871z"/>
<polygon style="fill:#5D5360;" points="151.79,432.355 135.758,464.419 159.806,464.419 191.871,432.355 "/>
<path style="fill:#FF8087;" d="M400.29,304.096H31.548c-13.282,0-24.048-10.767-24.048-24.048v-144.29
	c0-13.282,10.767-24.048,24.048-24.048H400.29c13.282,0,24.048,10.767,24.048,24.048v144.29
	C424.339,293.329,413.572,304.096,400.29,304.096z"/>
<path style="fill:#E6646E;" d="M31.548,215.919V111.71c-13.282,0-24.048,10.767-24.048,24.048v144.29
	c0,13.282,10.767,24.048,24.048,24.048H400.29c13.282,0,24.048-10.767,24.048-24.048H95.677
	C60.26,280.048,31.548,251.337,31.548,215.919z"/>
<polygon style="fill:#5D5360;" points="472.435,432.355 488.468,464.419 464.419,464.419 432.355,432.355 "/>
<path d="M488.468,168.339h-32.064c-4.142,0-7.5,3.358-7.5,7.5s3.358,7.5,7.5,7.5h32.064c4.705,0,8.532,3.828,8.532,8.532v224.452
	c0,4.705-3.828,8.532-8.532,8.532h-352.71c-4.705,0-8.533-3.828-8.533-8.532v-80.161c0-4.142-3.358-7.5-7.5-7.5s-7.5,3.358-7.5,7.5
	v80.161c0,12.976,10.557,23.532,23.533,23.532h3.897l-10.605,21.21c-1.163,2.325-1.039,5.086,0.328,7.297s3.781,3.557,6.38,3.557
	h24.048c1.989,0,3.897-0.79,5.303-2.197l29.868-29.868h234.271l29.868,29.868c1.406,1.407,3.314,2.197,5.303,2.197h24.048
	c2.599,0,5.013-1.346,6.38-3.557s1.491-4.972,0.328-7.297l-10.605-21.21h3.897c12.976,0,23.532-10.557,23.532-23.532V191.871
	C512,178.896,501.443,168.339,488.468,168.339z M156.7,456.919h-8.807l8.532-17.064h17.339L156.7,456.919z M476.333,456.919h-8.807
	l-17.064-17.064H467.8L476.333,456.919z"/>
<path d="M144.291,400.29c0,4.142,3.358,7.5,7.5,7.5h320.645c4.142,0,7.5-3.358,7.5-7.5s-3.358-7.5-7.5-7.5H151.791
	C147.648,392.79,144.291,396.148,144.291,400.29z"/>
<path d="M431.839,280.048v-144.29c0-17.396-14.152-31.549-31.548-31.549H31.548C14.152,104.209,0,118.362,0,135.758v144.29
	c0,17.396,14.152,31.548,31.548,31.548H400.29C417.687,311.596,431.839,297.444,431.839,280.048z M15,280.048v-144.29
	c0-9.125,7.423-16.549,16.548-16.549H400.29c9.125,0,16.548,7.424,16.548,16.549v144.29c0,9.125-7.423,16.548-16.548,16.548H31.548
	C22.423,296.596,15,289.173,15,280.048z"/>
<path d="M135.758,240.484H95.161v-72.661c0-4.142-3.358-7.5-7.5-7.5s-7.5,3.358-7.5,7.5v80.161c0,4.142,3.358,7.5,7.5,7.5h48.097
	c4.142,0,7.5-3.358,7.5-7.5S139.9,240.484,135.758,240.484z"/>
<path d="M166.486,160.323c-4.142,0-7.5,3.358-7.5,7.5v80.161c0,4.142,3.358,7.5,7.5,7.5s7.5-3.358,7.5-7.5v-80.161
	C173.986,163.681,170.628,160.323,166.486,160.323z"/>
<path d="M270.434,160.983c-3.778-1.701-8.218-0.016-9.917,3.762l-29.233,64.962l-29.233-64.962
	c-1.699-3.777-6.139-5.461-9.917-3.762c-3.777,1.7-5.461,6.14-3.762,9.917l36.073,80.161c1.211,2.691,3.888,4.422,6.839,4.422
	s5.628-1.731,6.839-4.422l36.072-80.161C275.895,167.123,274.211,162.683,270.434,160.983z"/>
<path d="M352.193,175.323c4.142,0,7.5-3.358,7.5-7.5s-3.358-7.5-7.5-7.5H296.08c-4.142,0-7.5,3.358-7.5,7.5v80.161
	c0,4.142,3.358,7.5,7.5,7.5h56.113c4.142,0,7.5-3.358,7.5-7.5s-3.358-7.5-7.5-7.5H303.58v-25.081h40.597c4.142,0,7.5-3.358,7.5-7.5
	s-3.358-7.5-7.5-7.5H303.58v-25.081L352.193,175.323L352.193,175.323z"/>
<path d="M400.291,87.145c26.805,0,48.613,21.808,48.613,48.613c0,4.142,3.358,7.5,7.5,7.5s7.5-3.358,7.5-7.5
	c0-35.077-28.537-63.613-63.613-63.613c-4.142,0-7.5,3.358-7.5,7.5S396.148,87.145,400.291,87.145z"/>
<path d="M400.291,55.081c44.485,0,80.677,36.192,80.677,80.678c0,4.142,3.358,7.5,7.5,7.5s7.5-3.358,7.5-7.5
	c0-52.757-42.92-95.678-95.677-95.678c-4.142,0-7.5,3.358-7.5,7.5S396.148,55.081,400.291,55.081z"/>
<g>
</g>
<g>
</g>
<g>
</g>
<g>
</g>
<g>
</g>
<g>
</g>
<g>
</g>
<g>
</g>
<g>
</g>
<g>
</g>
<g>
</g>
<g>
</g>
<g>
</g>
<g>
</g>
<g>
</g>
</svg>
