<?xml version="1.0" encoding="iso-8859-1"?>
<!-- Generator: Adobe Illustrator 19.0.0, SVG Export Plug-In . SVG Version: 6.00 Build 0)  -->
<svg version="1.1" id="Capa_1" xmlns="http://www.w3.org/2000/svg" xmlns:xlink="http://www.w3.org/1999/xlink" x="0px" y="0px"
	 viewBox="0 0 511.999 511.999" style="enable-background:new 0 0 511.999 511.999;" xml:space="preserve">
<path style="fill:#EDEBED;" d="M480.452,55.597H31.548C18.267,55.597,7.5,66.364,7.5,79.645v56.113h497V79.645
	C504.5,66.364,493.733,55.597,480.452,55.597z"/>
<path style="fill:#FFFFFF;" d="M480.452,456.403H31.548c-13.282,0-24.048-10.767-24.048-24.048V135.758h497v296.597
	C504.5,445.635,493.733,456.403,480.452,456.403z"/>
<rect x="143.77" y="191.87" style="fill:#FFE17D;" width="48.1" height="176.35"/>
<rect x="143.77" y="191.87" style="fill:#FFD164;" width="24.05" height="176.35"/>
<rect x="223.94" y="296.079" style="fill:#CDF5A0;" width="48.1" height="72.14"/>
<rect x="223.94" y="296.079" style="fill:#B4E6A0;" width="24.05" height="72.14"/>
<rect x="63.61" y="256" style="fill:#FF9BA0;" width="48.1" height="112.23"/>
<rect x="63.61" y="256" style="fill:#FF8087;" width="24.05" height="112.23"/>
<path d="M480.452,48.097H31.548C14.152,48.097,0,62.249,0,79.645v352.71c0,17.396,14.152,31.548,31.548,31.548h448.903
	c17.396,0,31.548-14.152,31.548-31.548V79.645C512,62.249,497.848,48.097,480.452,48.097z M497,432.355
	c0,9.125-7.423,16.548-16.548,16.548H31.548c-9.125,0-16.548-7.423-16.548-16.548V79.645c0-9.125,7.423-16.548,16.548-16.548
	h448.903c9.125,0,16.548,7.423,16.548,16.548L497,432.355L497,432.355z"/>
<path d="M472.436,128.258H39.564c-4.142,0-7.5,3.358-7.5,7.5s3.358,7.5,7.5,7.5h432.871c4.142,0,7.5-3.358,7.5-7.5
	S476.578,128.258,472.436,128.258z"/>
<path d="M127.742,103.177H360.21c4.142,0,7.5-3.358,7.5-7.5s-3.358-7.5-7.5-7.5H127.742c-4.142,0-7.5,3.358-7.5,7.5
	S123.6,103.177,127.742,103.177z"/>
<path d="M39.645,103.177c4.142,0,7.5-3.358,7.5-7.5s-3.358-7.5-7.5-7.5h-0.08c-4.142,0-7.46,3.358-7.46,7.5
	S35.502,103.177,39.645,103.177z"/>
<path d="M87.741,103.177c4.142,0,7.5-3.358,7.5-7.5s-3.358-7.5-7.5-7.5h-0.08c-4.142,0-7.46,3.358-7.46,7.5
	S83.599,103.177,87.741,103.177z"/>
<path d="M63.693,103.177c4.142,0,7.5-3.358,7.5-7.5s-3.358-7.5-7.5-7.5h-0.08c-4.142,0-7.46,3.358-7.46,7.5
	S59.551,103.177,63.693,103.177z"/>
<path d="M472.436,88.177h-72.145c-4.142,0-7.5,3.358-7.5,7.5s3.358,7.5,7.5,7.5h72.145c4.142,0,7.5-3.358,7.5-7.5
	S476.578,88.177,472.436,88.177z"/>
<path d="M296.081,360.726h-16.548v-64.645c0-4.142-3.358-7.5-7.5-7.5h-48.097c-4.142,0-7.5,3.358-7.5,7.5v40.081
	c0,4.142,3.358,7.5,7.5,7.5s7.5-3.358,7.5-7.5v-32.581h33.097v57.145h-65.161V191.871c0-4.142-3.358-7.5-7.5-7.5h-48.097
	c-4.142,0-7.5,3.358-7.5,7.5v144.29c0,4.142,3.358,7.5,7.5,7.5s7.5-3.358,7.5-7.5v-136.79h33.097v161.354H119.21V256
	c0-4.142-3.358-7.5-7.5-7.5H63.613c-4.142,0-7.5,3.358-7.5,7.5v80.161c0,4.142,3.358,7.5,7.5,7.5s7.5-3.358,7.5-7.5V263.5h33.097
	v97.226H39.564c-4.142,0-7.5,3.358-7.5,7.5s3.358,7.5,7.5,7.5H296.08c4.142,0,7.5-3.358,7.5-7.5S300.223,360.726,296.081,360.726z"
	/>
<path d="M175.839,392.79h-16.032c-4.142,0-7.5,3.358-7.5,7.5s3.358,7.5,7.5,7.5h16.032c4.142,0,7.5-3.358,7.5-7.5
	S179.981,392.79,175.839,392.79z"/>
<path d="M256,392.79h-16.032c-4.142,0-7.5,3.358-7.5,7.5s3.358,7.5,7.5,7.5H256c4.142,0,7.5-3.358,7.5-7.5
	S260.142,392.79,256,392.79z"/>
<path d="M95.677,392.79H79.645c-4.142,0-7.5,3.358-7.5,7.5s3.358,7.5,7.5,7.5h16.032c4.142,0,7.5-3.358,7.5-7.5
	S99.819,392.79,95.677,392.79z"/>
<path d="M344.177,200.403h-16.032c-4.142,0-7.5,3.358-7.5,7.5s3.358,7.5,7.5,7.5h16.032c4.142,0,7.5-3.358,7.5-7.5
	S348.319,200.403,344.177,200.403z"/>
<path d="M472.436,200.403h-96.194c-4.142,0-7.5,3.358-7.5,7.5s3.358,7.5,7.5,7.5h96.194c4.142,0,7.5-3.358,7.5-7.5
	S476.578,200.403,472.436,200.403z"/>
<path d="M344.177,240.484h-16.032c-4.142,0-7.5,3.358-7.5,7.5s3.358,7.5,7.5,7.5h16.032c4.142,0,7.5-3.358,7.5-7.5
	S348.319,240.484,344.177,240.484z"/>
<path d="M472.436,240.484h-96.194c-4.142,0-7.5,3.358-7.5,7.5s3.358,7.5,7.5,7.5h96.194c4.142,0,7.5-3.358,7.5-7.5
	S476.578,240.484,472.436,240.484z"/>
<path d="M344.177,280.564h-16.032c-4.142,0-7.5,3.358-7.5,7.5s3.358,7.5,7.5,7.5h16.032c4.142,0,7.5-3.358,7.5-7.5
	S348.319,280.564,344.177,280.564z"/>
<path d="M440.371,280.564h-64.129c-4.142,0-7.5,3.358-7.5,7.5s3.358,7.5,7.5,7.5h64.129c4.142,0,7.5-3.358,7.5-7.5
	S444.513,280.564,440.371,280.564z"/>
<path d="M344.177,320.645h-16.032c-4.142,0-7.5,3.358-7.5,7.5s3.358,7.5,7.5,7.5h16.032c4.142,0,7.5-3.358,7.5-7.5
	S348.319,320.645,344.177,320.645z"/>
<path d="M440.371,320.645h-64.129c-4.142,0-7.5,3.358-7.5,7.5s3.358,7.5,7.5,7.5h64.129c4.142,0,7.5-3.358,7.5-7.5
	S444.513,320.645,440.371,320.645z"/>
<path d="M344.177,360.726h-16.032c-4.142,0-7.5,3.358-7.5,7.5s3.358,7.5,7.5,7.5h16.032c4.142,0,7.5-3.358,7.5-7.5
	S348.319,360.726,344.177,360.726z"/>
<path d="M408.307,360.726h-32.065c-4.142,0-7.5,3.358-7.5,7.5s3.358,7.5,7.5,7.5h32.065c4.142,0,7.5-3.358,7.5-7.5
	S412.449,360.726,408.307,360.726z"/>
<g>
</g>
<g>
</g>
<g>
</g>
<g>
</g>
<g>
</g>
<g>
</g>
<g>
</g>
<g>
</g>
<g>
</g>
<g>
</g>
<g>
</g>
<g>
</g>
<g>
</g>
<g>
</g>
<g>
</g>
</svg>
