<?xml version="1.0" encoding="iso-8859-1"?>
<!-- Generator: Adobe Illustrator 19.0.0, SVG Export Plug-In . SVG Version: 6.00 Build 0)  -->
<svg version="1.1" id="Capa_1" xmlns="http://www.w3.org/2000/svg" xmlns:xlink="http://www.w3.org/1999/xlink" x="0px" y="0px"
	 viewBox="0 0 511.999 511.999" style="enable-background:new 0 0 511.999 511.999;" xml:space="preserve">
<path style="fill:#FF8087;" d="M165.353,173.121l27.791-27.791c10.268-10.268,10.268-26.916,0-37.184l-92.961-92.961
	c-10.268-10.268-26.916-10.268-37.184,0l-45.17,45.171C7.548,70.636,4.508,86.259,10.603,99.458
	c32.699,70.809,91.851,153.497,170.145,231.793s160.984,137.447,231.793,170.145c13.199,6.095,28.822,3.054,39.102-7.226
	l45.17-45.17c10.268-10.268,10.268-26.916,0-37.184l-92.961-92.961c-10.268-10.268-26.916-10.268-37.184,0l-27.791,27.791
	c-9.631,9.631-24.974,10.3-35.467,1.616c-24.462-20.243-48.98-42.485-73.084-66.591s-46.347-48.623-66.591-73.084
	C155.053,198.094,155.722,182.752,165.353,173.121z"/>
<path style="fill:#E6646E;" d="M432.584,481.355c-70.81-32.699-153.498-91.851-231.793-170.145S63.344,150.226,30.645,79.416
	c-6.095-13.199-3.054-28.821,7.226-39.102L17.829,60.355C7.548,70.636,4.508,86.259,10.603,99.458
	c32.699,70.81,91.85,153.498,170.145,231.793s160.984,137.447,231.793,170.145c13.199,6.095,28.822,3.054,39.101-7.226
	l20.041-20.041C461.405,484.409,445.783,487.45,432.584,481.355z"/>
<path d="M502.117,406.512l-92.961-92.961c-13.175-13.175-34.615-13.175-47.791,0l-27.791,27.791
	c-6.908,6.908-17.819,7.399-25.381,1.141c-24.807-20.528-49.221-42.773-72.563-66.116s-45.587-47.756-66.116-72.563
	c-6.257-7.562-5.766-18.472,1.142-25.381l27.791-27.791c13.176-13.176,13.176-34.615,0-47.791l-92.96-92.959
	c-13.176-13.177-34.615-13.177-47.791,0l-45.17,45.17C-0.032,67.61-3.542,86.719,3.794,102.602
	c34.468,74.643,95.429,157.729,171.651,233.952c76.223,76.222,159.309,137.182,233.952,171.651
	c5.531,2.554,11.454,3.793,17.355,3.793c11.043,0,22.011-4.341,30.195-12.525l45.17-45.17
	C515.293,441.128,515.293,419.689,502.117,406.512z M491.51,443.697l-13.288,13.288l-87.656-87.656
	c-2.929-2.929-7.679-2.929-10.607,0c-2.929,2.929-2.929,7.679,0,10.607l87.656,87.656l-21.275,21.275
	c-8.133,8.132-20.451,10.431-30.653,5.719c-73.079-33.746-154.631-93.637-229.635-168.639S51.159,169.392,17.413,96.313
	C12.702,86.111,15,73.792,23.132,65.66l21.275-21.275l7.095,7.095c1.464,1.464,3.384,2.197,5.303,2.197s3.839-0.732,5.303-2.197
	c2.929-2.929,2.929-7.679,0-10.607l-7.095-7.095L68.302,20.49c3.664-3.663,8.477-5.495,13.289-5.495
	c4.812,0,9.625,1.832,13.289,5.495l92.961,92.961c3.549,3.549,5.503,8.269,5.503,13.289c0,5.019-1.955,9.739-5.503,13.288
	l-13.289,13.289L86.895,65.661c-2.929-2.929-7.679-2.929-10.607,0c-2.929,2.929-2.929,7.679,0,10.607l87.656,87.656l-3.895,3.895
	c-12.412,12.412-13.311,31.995-2.091,45.552c20.827,25.168,43.391,49.933,67.066,73.606s48.44,46.238,73.606,67.066
	c13.557,11.22,33.14,10.321,45.552-2.091l3.895-3.895l7.095,7.095c1.464,1.464,3.384,2.197,5.303,2.197
	c1.919,0,3.839-0.732,5.303-2.197c2.929-2.929,2.929-7.679,0-10.607l-7.095-7.095l13.289-13.289
	c3.549-3.549,8.269-5.503,13.288-5.503c5.02,0,9.739,1.955,13.289,5.503l92.961,92.961
	C498.837,424.448,498.837,436.37,491.51,443.697z"/>
<path d="M265.31,110.973c32.802,7.986,62.827,24.892,86.826,48.891s40.905,54.024,48.891,86.826
	c0.834,3.429,3.902,5.728,7.282,5.728c0.587,0,1.184-0.07,1.78-0.215c4.024-0.979,6.493-5.037,5.513-9.062
	c-8.636-35.476-26.914-67.941-52.859-93.885c-25.944-25.945-58.409-44.223-93.885-52.859c-4.026-0.979-8.083,1.488-9.062,5.513
	C258.816,105.936,261.286,109.993,265.31,110.973z"/>
<path d="M253.848,157.865c24.44,5.948,46.666,18.4,64.277,36.011c17.61,17.61,30.062,39.837,36.011,64.277
	c0.834,3.429,3.902,5.729,7.282,5.729c0.587,0,1.184-0.07,1.779-0.215c4.025-0.979,6.493-5.036,5.514-9.062
	c-6.598-27.113-20.422-51.781-39.979-71.337c-19.556-19.556-44.223-33.379-71.337-39.979c-4.026-0.98-8.083,1.489-9.062,5.514
	C247.355,152.828,249.823,156.885,253.848,157.865z"/>
<path d="M177.473,470.243c-32.802-7.986-62.827-24.892-86.826-48.891s-40.905-54.024-48.891-86.826
	c-0.979-4.025-5.038-6.495-9.062-5.513c-4.024,0.979-6.493,5.037-5.513,9.062c8.636,35.476,26.914,67.941,52.859,93.885
	c25.944,25.945,58.409,44.223,93.885,52.859c0.596,0.145,1.192,0.215,1.78,0.215c3.378,0,6.447-2.3,7.282-5.728
	C183.967,475.28,181.498,471.222,177.473,470.243z"/>
<path d="M188.936,423.351c-24.44-5.948-46.666-18.4-64.277-36.011c-17.61-17.61-30.062-39.837-36.011-64.277
	c-0.979-4.025-5.033-6.492-9.062-5.514c-4.025,0.979-6.493,5.036-5.514,9.062c6.598,27.113,20.422,51.781,39.979,71.337
	c19.556,19.556,44.223,33.379,71.337,39.979c0.596,0.145,1.192,0.215,1.779,0.215c3.379,0,6.447-2.3,7.282-5.729
	C195.43,428.387,192.961,424.331,188.936,423.351z"/>
<g>
</g>
<g>
</g>
<g>
</g>
<g>
</g>
<g>
</g>
<g>
</g>
<g>
</g>
<g>
</g>
<g>
</g>
<g>
</g>
<g>
</g>
<g>
</g>
<g>
</g>
<g>
</g>
<g>
</g>
</svg>
