<?xml version="1.0" encoding="iso-8859-1"?>
<!-- Generator: Adobe Illustrator 19.0.0, SVG Export Plug-In . SVG Version: 6.00 Build 0)  -->
<svg version="1.1" id="Capa_1" xmlns="http://www.w3.org/2000/svg" xmlns:xlink="http://www.w3.org/1999/xlink" x="0px" y="0px"
	 viewBox="0 0 512 512" style="enable-background:new 0 0 512 512;" xml:space="preserve">
<rect x="55.6" y="63.61" style="fill:#5D5360;" width="400.81" height="384.77"/>
<circle style="fill:#FF8087;" cx="256" cy="256" r="120.24"/>
<path style="fill:#5D5360;" d="M299.827,267.771l-55.521,32.387c-9.085,5.299-20.494-1.254-20.494-11.771v-64.774
	c0-10.518,11.409-17.071,20.494-11.771l55.521,32.387C308.841,249.487,308.841,262.513,299.827,267.771z"/>
<path style="fill:#E6646E;" d="M280.048,352.194c-66.408,0-120.242-53.834-120.242-120.242c0-27.066,9.05-51.957,24.142-72.052
	c-29.21,21.937-48.19,56.758-48.19,96.1c0,66.408,53.834,120.242,120.242,120.242c39.343,0,74.164-18.981,96.101-48.191
	C332.005,343.143,307.114,352.194,280.048,352.194z"/>
<g>
	<path style="fill:#4B3F4E;" d="M87.661,247.984V63.613H55.597v384.774h400.806v-40.081H247.984
		C159.44,408.306,87.661,336.528,87.661,247.984z"/>
	<path style="fill:#4B3F4E;" d="M299.826,244.229l-2.744-1.6l-29.912,17.449c-9.085,5.299-20.494-1.254-20.494-11.771v-35.082
		l-2.37-1.383c-9.085-5.3-20.494,1.253-20.494,11.771v64.774c0,10.518,11.41,17.07,20.494,11.771l55.52-32.387
		C308.842,262.513,308.842,249.487,299.826,244.229z"/>
</g>
<path d="M488.468,56.113H23.532C10.557,56.113,0,66.669,0,79.645v352.71c0,12.976,10.557,23.532,23.532,23.532h464.936
	c12.976,0,23.532-10.557,23.532-23.532V79.645C512,66.669,501.443,56.113,488.468,56.113z M48.097,248.5H15v-49.129h33.097V248.5z
	 M48.097,263.5v49.129H15V263.5H48.097z M48.097,184.371H15v-49.129h33.097V184.371z M15,327.629h33.097v49.129H15V327.629z
	 M63.097,71.113h385.807v369.774H63.097V71.113z M463.903,263.5H497v49.129h-33.097V263.5z M463.903,248.5v-49.129H497V248.5
	H463.903z M463.903,184.371v-49.129H497v49.129H463.903z M463.903,327.629H497v49.129h-33.097V327.629z M497,79.645v40.597h-33.097
	V71.113h24.564C493.172,71.113,497,74.94,497,79.645z M23.532,71.113h24.564v49.129H15V79.645C15,74.94,18.828,71.113,23.532,71.113
	z M15,432.355v-40.597h33.097v49.129H23.532C18.828,440.887,15,437.06,15,432.355z M488.468,440.887h-24.564v-49.129H497v40.597
	C497,437.06,493.172,440.887,488.468,440.887z"/>
<path d="M176.279,176.279c39.733-39.734,103.363-43.965,148.011-9.838c3.29,2.515,7.997,1.888,10.513-1.404
	c2.515-3.291,1.886-7.998-1.405-10.514c-24.379-18.633-54.731-27.845-85.463-25.955c-31.036,1.915-60.25,15.092-82.263,37.104
	c-22.012,22.012-35.189,51.227-37.104,82.262c-1.896,30.733,7.321,61.085,25.955,85.464c1.477,1.932,3.708,2.946,5.964,2.946
	c1.588,0,3.189-0.502,4.549-1.542c3.291-2.516,3.919-7.223,1.404-10.513C132.316,279.644,136.546,216.013,176.279,176.279z"/>
<path d="M357.477,178.601c-2.516-3.292-7.222-3.92-10.514-1.405c-3.291,2.516-3.919,7.223-1.404,10.513
	c34.125,44.647,29.895,108.278-9.838,148.011c-39.733,39.732-103.364,43.963-148.011,9.838c-3.29-2.514-7.997-1.887-10.513,1.404
	c-2.515,3.291-1.886,7.998,1.405,10.514c22.285,17.033,49.562,26.198,77.558,26.198c2.63,0,5.267-0.081,7.906-0.244
	c31.036-1.915,60.25-15.092,82.262-37.104s35.189-51.227,37.104-82.263C385.328,233.332,376.11,202.98,357.477,178.601z"/>
<path d="M248.085,205.363c-6.614-3.858-14.528-3.885-21.168-0.071s-10.604,10.663-10.604,18.32v64.774
	c0,7.658,3.964,14.506,10.604,18.32c3.299,1.895,6.912,2.842,10.524,2.842c3.658,0,7.315-0.971,10.644-2.913l55.52-32.387
	c6.563-3.829,10.482-10.651,10.482-18.25s-3.919-14.421-10.482-18.25L248.085,205.363z M296.048,261.292l-55.521,32.387
	c-2.765,1.614-5.214,0.552-6.14,0.021c-0.924-0.531-3.075-2.112-3.075-5.313v-64.774c0-3.201,2.151-4.782,3.075-5.313
	c0.56-0.322,1.677-0.837,3.084-0.837c0.919,0,1.962,0.22,3.055,0.857l55.521,32.387c2.744,1.6,3.04,4.234,3.04,5.292
	C299.087,257.057,298.792,259.692,296.048,261.292z"/>
<g>
</g>
<g>
</g>
<g>
</g>
<g>
</g>
<g>
</g>
<g>
</g>
<g>
</g>
<g>
</g>
<g>
</g>
<g>
</g>
<g>
</g>
<g>
</g>
<g>
</g>
<g>
</g>
<g>
</g>
</svg>
