<?xml version="1.0" encoding="iso-8859-1"?>
<!-- Generator: Adobe Illustrator 19.0.0, SVG Export Plug-In . SVG Version: 6.00 Build 0)  -->
<svg version="1.1" id="Capa_1" xmlns="http://www.w3.org/2000/svg" xmlns:xlink="http://www.w3.org/1999/xlink" x="0px" y="0px"
	 viewBox="0 0 512.001 512.001" style="enable-background:new 0 0 512.001 512.001;" xml:space="preserve">
<path style="fill:#C9C6CA;" d="M119.726,360.21H55.597c-26.563,0-48.097-21.534-48.097-48.097V199.887
	c0-17.709,14.356-32.065,32.065-32.065h80.161V360.21z"/>
<path style="fill:#DBD9DC;" d="M111.71,328.145H55.597c-8.854,0-16.032-7.178-16.032-16.032v-144.29h72.145V328.145z"/>
<path style="fill:#EDEBED;" d="M496.484,151.79H111.71c-4.427,0-8.016,3.589-8.016,8.016v152.306
	c0,26.563-21.534,48.097-48.097,48.097h400.806c26.563,0,48.097-21.534,48.097-48.097V159.806
	C504.5,155.379,500.911,151.79,496.484,151.79z"/>
<path style="fill:#DBD9DC;" d="M498.012,335.583H97.206c-8.319,14.362-23.817,24.626-41.609,24.626h400.806
	C474.195,360.21,489.693,349.945,498.012,335.583z"/>
<path style="fill:#FF8087;" d="M119.726,360.21L119.726,360.21c26.563,0,48.097-21.534,48.097-48.097v-96.194h120.242v96.194
	c0,26.563-21.534,48.097-48.097,48.097l0,0"/>
<rect x="336.16" y="215.92" style="fill:#FFD164;" width="104.21" height="40.08"/>
<path style="fill:#B7B2B8;" d="M39.565,167.823L39.565,167.823c-17.709,0-32.065,14.356-32.065,32.064l0,0h8.016
	c13.282,0,24.048,10.767,24.048,24.048v87.319c0,7.986,5.457,15.389,13.34,16.671c10.044,1.634,18.725-6.076,18.725-15.813V199.887
	C71.629,182.178,57.273,167.823,39.565,167.823z"/>
<path style="fill:#FFC350;" d="M376.242,239.968c-8.854,0-16.032-7.178-16.032-16.032v-8.016h-24.048V256h104.21v-16.032H376.242z"
	/>
<path style="fill:#E6646E;" d="M191.769,312.087l0.102-96.168h-24.048v96.194c0,8.771-2.386,16.968-6.488,24.048
	c-8.319,14.362-23.817,24.048-41.609,24.048h120.242c17.792,0,33.29-9.686,41.609-24.048h-65.759
	C202.526,336.161,191.755,325.379,191.769,312.087z"/>
<path d="M496.484,144.291H111.709c-8.556,0-15.516,6.96-15.516,15.516v152.306c0,22.385-18.211,40.597-40.597,40.597
	S15,334.498,15,312.113V199.887c0-13.545,11.02-24.564,24.564-24.564s24.564,11.02,24.564,24.564v112.226
	c0,4.705-3.828,8.532-8.532,8.532s-8.532-3.828-8.532-8.532c0-4.142-3.358-7.5-7.5-7.5s-7.5,3.358-7.5,7.5
	c0,12.976,10.557,23.532,23.532,23.532s23.532-10.557,23.532-23.532V199.887c0-21.816-17.749-39.564-39.564-39.564
	S0,178.071,0,199.887v112.226c0,30.656,24.94,55.597,55.597,55.597h400.807c30.656,0,55.597-24.94,55.597-55.597V159.807
	C512,151.251,505.04,144.291,496.484,144.291z M497,312.113c0,22.385-18.211,40.597-40.597,40.597H277.896
	c10.861-10.154,17.668-24.591,17.668-40.597v-48.097c0-4.142-3.358-7.5-7.5-7.5s-7.5,3.358-7.5,7.5v48.097
	c0,22.385-18.211,40.597-40.597,40.597h-82.313c10.861-10.154,17.668-24.591,17.668-40.597V223.42h105.242v8.533
	c0,4.142,3.358,7.5,7.5,7.5s7.5-3.358,7.5-7.5V215.92c0-4.142-3.358-7.5-7.5-7.5H167.823c-4.142,0-7.5,3.358-7.5,7.5v96.193
	c0,22.385-18.212,40.597-40.597,40.597H93.544c10.854-10.153,17.649-24.597,17.649-40.597V159.807c0-0.285,0.231-0.516,0.516-0.516
	h384.774c0.285,0,0.516,0.231,0.516,0.516v152.306H497z"/>
<path d="M39.564,287.547c4.142,0,7.5-3.358,7.5-7.5v-80.16c0-4.142-3.358-7.5-7.5-7.5s-7.5,3.358-7.5,7.5v80.16
	C32.064,284.189,35.422,287.547,39.564,287.547z"/>
<path d="M440.371,208.419h-104.21c-4.142,0-7.5,3.358-7.5,7.5V256c0,4.142,3.358,7.5,7.5,7.5h104.21c4.142,0,7.5-3.358,7.5-7.5
	v-40.081C447.871,211.777,444.513,208.419,440.371,208.419z M432.871,248.5h-89.21v-25.081h89.21V248.5z"/>
<path d="M440.371,288.581h-104.21c-4.142,0-7.5,3.358-7.5,7.5s3.358,7.5,7.5,7.5h104.21c4.142,0,7.5-3.358,7.5-7.5
	S444.513,288.581,440.371,288.581z"/>
<path d="M432.355,320.645h-104.21c-4.142,0-7.5,3.358-7.5,7.5s3.358,7.5,7.5,7.5h104.21c4.142,0,7.5-3.358,7.5-7.5
	S436.497,320.645,432.355,320.645z"/>
<g>
</g>
<g>
</g>
<g>
</g>
<g>
</g>
<g>
</g>
<g>
</g>
<g>
</g>
<g>
</g>
<g>
</g>
<g>
</g>
<g>
</g>
<g>
</g>
<g>
</g>
<g>
</g>
<g>
</g>
</svg>
