<?xml version="1.0" encoding="iso-8859-1"?>
<!-- Generator: Adobe Illustrator 19.0.0, SVG Export Plug-In . SVG Version: 6.00 Build 0)  -->
<svg version="1.1" id="Capa_1" xmlns="http://www.w3.org/2000/svg" xmlns:xlink="http://www.w3.org/1999/xlink" x="0px" y="0px"
	 viewBox="0 0 512.001 512.001" style="enable-background:new 0 0 512.001 512.001;" xml:space="preserve">
<circle style="fill:#EDEBED;" cx="344.171" cy="167.825" r="160.325"/>
<circle style="fill:#A5CDFF;" cx="344.171" cy="167.825" r="120.244"/>
<path style="fill:#8CB4EB;" d="M372.23,260.016c-66.41,0-120.246-53.836-120.246-120.246c0-26.038,8.363-50.075,22.428-69.761
	c-30.522,21.808-50.486,57.446-50.486,97.818c0,66.41,53.836,120.246,120.246,120.246c40.371,0,76.01-19.964,97.818-50.485
	C422.305,251.653,398.268,260.016,372.23,260.016z"/>
<path style="fill:#6F6571;" d="M14.53,497.471L14.53,497.471c-9.392-9.391-9.392-24.619,0-34.011l155.16-155.16
	c3.13-3.13,8.206-3.13,11.337,0l22.674,22.674c3.13,3.13,3.13,8.206,0,11.336L48.54,497.471
	C39.149,506.863,23.921,506.863,14.53,497.471z"/>
<path style="fill:#5D5360;" d="M30.562,479.493l155.16-155.16c3.13-3.13,8.205-3.129,11.336,0l-16.031-16.033
	c-3.131-3.13-8.206-3.13-11.337,0L14.53,463.461c-9.391,9.391-9.391,24.619,0,34.01c2.916,2.916,6.42,4.817,10.111,5.922
	C22.186,495.194,24.086,485.969,30.562,479.493z"/>
<path style="fill:#C9C6CA;" d="M173.256,372.755l30.444-30.444c3.131-3.131,3.131-8.206,0-11.337L181.026,308.3
	c-3.131-3.13-8.206-3.13-11.337,0l-30.445,30.445L173.256,372.755z"/>
<path style="fill:#B7B2B8;" d="M185.722,324.333c3.13-3.13,8.205-3.129,11.336,0L181.027,308.3c-3.131-3.13-8.206-3.13-11.337,0
	l-30.445,30.445l16.032,16.032L185.722,324.333z"/>
<path d="M344.173,0c-92.54,0-167.827,75.287-167.827,167.827c0,43.578,16.699,83.325,44.029,113.191l-28.012,28.012l-6.034-6.034
	c-6.05-6.049-15.893-6.049-21.944,0L9.226,458.157c-12.3,12.301-12.3,32.316,0,44.617c6.15,6.15,14.229,9.226,22.309,9.226
	s16.158-3.075,22.309-9.226l155.16-155.16c6.05-6.05,6.05-15.894,0-21.944l-6.033-6.033l28.012-28.012
	c29.866,27.33,69.614,44.029,113.191,44.029c92.541,0,167.828-75.287,167.828-167.828S436.713,0,344.173,0z M43.237,492.167
	c-6.452,6.452-16.951,6.452-23.404,0s-6.452-16.951,0-23.404l119.413-119.412l23.404,23.404L43.237,492.167z M198.396,337.008
	l-25.141,25.141l-23.404-23.404l25.141-25.141c0.202-0.202,0.53-0.201,0.731,0l22.674,22.674c0.037,0.038,0.151,0.151,0.151,0.365
	C198.548,336.857,198.434,336.97,198.396,337.008z M344.173,320.655c-84.269,0-152.826-68.558-152.826-152.827
	C191.346,83.558,259.904,15,344.173,15S497,83.558,497,167.827C497,252.096,428.442,320.655,344.173,320.655z"/>
<path d="M344.173,40.082c-70.439,0-127.746,57.307-127.746,127.746c0,70.44,57.307,127.746,127.746,127.746
	c70.44,0,127.746-57.307,127.746-127.746C471.919,97.388,414.613,40.082,344.173,40.082z M434.016,235.861
	c-8.891-3.735-17.954-6.887-27.162-9.466c4.268-15.381,6.878-32.647,7.438-51.066h42.371
	C455.168,197.97,446.963,218.805,434.016,235.861z M231.683,175.327h42.377c0.562,17.856,3.126,35.27,7.514,51.044
	c-9.236,2.583-18.327,5.743-27.244,9.489C241.385,218.806,233.178,197.97,231.683,175.327z M254.34,99.782
	c8.888,3.736,17.949,6.888,27.155,9.468c-4.27,15.384-6.88,32.652-7.44,51.076h-42.37
	C233.178,137.679,241.389,116.838,254.34,99.782z M296.147,222.791c-4.106-14.602-6.524-30.795-7.082-47.463h47.608v42.639
	C322.937,218.397,309.406,220.004,296.147,222.791z M336.672,117.686v42.64h-47.604c0.579-17.035,3.11-33.171,7.13-47.46
	C309.441,115.649,322.955,117.254,336.672,117.686z M300.967,98.519c8.714-22.402,21.437-38.183,35.706-42.34v46.498
	C324.581,102.269,312.663,100.878,300.967,98.519z M351.673,232.978c12.092,0.405,24.012,1.793,35.708,4.151
	c-8.714,22.406-21.438,38.19-35.708,42.348V232.978z M351.673,217.966v-42.639h47.604c-0.579,17.032-3.109,33.166-7.128,47.453
	C378.908,220,365.392,218.397,351.673,217.966z M351.673,160.327v-42.637c13.737-0.429,27.27-2.034,40.53-4.818
	c4.107,14.605,6.519,30.774,7.076,47.455H351.673z M351.673,102.679V56.171c10.927,3.186,19.404,12.816,24.941,21.141
	c2.294,3.449,6.951,4.385,10.398,2.091c3.449-2.294,4.385-6.95,2.091-10.399c-1.53-2.3-3.115-4.472-4.747-6.514
	c14.82,5.672,28.149,14.382,39.215,25.372C400.627,96.88,376.515,101.851,351.673,102.679z M286.136,94.974
	c-7.213-1.999-14.33-4.377-21.339-7.134c11.044-10.961,24.341-19.654,39.122-25.323C296.943,71.255,290.918,82.251,286.136,94.974z
	 M336.672,232.978v46.505c-10.89-3.176-19.344-12.753-24.869-21.032c-2.3-3.446-6.956-4.374-10.402-2.075
	c-3.445,2.3-4.374,6.957-2.075,10.402c1.504,2.254,3.061,4.382,4.665,6.387c-14.815-5.67-28.141-14.376-39.205-25.361
	C287.727,238.783,311.836,233.81,336.672,232.978z M402.214,240.672c7.216,1.998,14.335,4.376,21.346,7.133
	c-11.047,10.966-24.347,19.663-39.134,25.334C391.405,264.397,397.431,253.398,402.214,240.672z M414.285,160.327
	c-0.561-17.868-3.114-35.256-7.502-51.035c9.236-2.582,18.327-5.74,27.244-9.485c12.94,17.052,21.144,37.883,22.638,60.521H414.285z
	"/>
<g>
</g>
<g>
</g>
<g>
</g>
<g>
</g>
<g>
</g>
<g>
</g>
<g>
</g>
<g>
</g>
<g>
</g>
<g>
</g>
<g>
</g>
<g>
</g>
<g>
</g>
<g>
</g>
<g>
</g>
</svg>
