<?xml version="1.0" encoding="iso-8859-1"?>
<!-- Generator: Adobe Illustrator 19.0.0, SVG Export Plug-In . SVG Version: 6.00 Build 0)  -->
<svg version="1.1" id="Capa_1" xmlns="http://www.w3.org/2000/svg" xmlns:xlink="http://www.w3.org/1999/xlink" x="0px" y="0px"
	 viewBox="0 0 512 512" style="enable-background:new 0 0 512 512;" xml:space="preserve">
<path style="fill:#EDEBED;" d="M424.339,504.5H87.661c-13.282,0-24.048-10.767-24.048-24.048V31.548
	C63.613,18.267,74.38,7.5,87.661,7.5h336.677c13.282,0,24.048,10.767,24.048,24.048v448.903
	C448.387,493.733,437.62,504.5,424.339,504.5z"/>
<path style="fill:#DBD9DC;" d="M63.613,480.452c0,13.282,10.767,24.048,24.048,24.048h336.677c13.282,0,24.048-10.767,24.048-24.048
	H63.613z"/>
<rect x="63.61" y="39.564" style="fill:#FFFFFF;" width="384.77" height="400.81"/>
<path style="fill:#C9C6CA;" d="M448.387,440.371h-96.194v-72.145c0-13.282,10.767-24.048,24.048-24.048h72.145v96.193H448.387z"/>
<path style="fill:#EDEBED;" d="M352.194,362.177v78.194l96.194-96.194h-78.194C360.252,344.177,352.194,352.236,352.194,362.177z"/>
<rect x="119.73" y="247.98" style="fill:#A5CDFF;" width="120.24" height="64.13"/>
<path style="fill:#8CB4EB;" d="M167.823,288.065c-13.282,0-24.048-10.767-24.048-24.048v-16.032h-24.048v64.129h120.242v-24.048
	h-72.146V288.065z"/>
<path d="M200.916,159.291h36.398c4.142,0,7.5-3.358,7.5-7.5s-3.358-7.5-7.5-7.5h-28.898v-17.065h24.348c4.142,0,7.5-3.358,7.5-7.5
	s-3.358-7.5-7.5-7.5h-24.348V95.161h28.898c4.142,0,7.5-3.358,7.5-7.5s-3.358-7.5-7.5-7.5h-36.398c-4.142,0-7.5,3.358-7.5,7.5
	v64.129C193.416,155.933,196.774,159.291,200.916,159.291z"/>
<path d="M135.758,159.291c4.142,0,7.5-3.358,7.5-7.5V116.07l22.375,39.423c1.355,2.388,3.872,3.799,6.522,3.798
	c0.635,0,1.278-0.081,1.915-0.249c3.292-0.869,5.585-3.847,5.585-7.251v-64.13c0-4.142-3.358-7.5-7.5-7.5s-7.5,3.358-7.5,7.5v35.721
	L142.28,83.959c-1.68-2.961-5.145-4.418-8.437-3.549c-3.292,0.869-5.585,3.847-5.585,7.251v64.129
	C128.258,155.933,131.616,159.291,135.758,159.291z"/>
<path d="M268.163,153.352c0.737,3.462,3.795,5.938,7.335,5.938s6.599-2.476,7.335-5.938l6.314-29.664l6.313,29.664
	c0.737,3.462,3.795,5.938,7.336,5.938s6.599-2.476,7.335-5.938l13.649-64.129c0.862-4.052-1.723-8.035-5.774-8.897
	c-4.053-0.861-8.035,1.723-8.897,5.774l-6.313,29.663L296.484,86.1c-0.737-3.462-3.795-5.938-7.336-5.938
	c-3.54,0-6.599,2.476-7.335,5.938l-6.314,29.664L269.186,86.1c-0.862-4.051-4.844-6.635-8.897-5.774
	c-4.051,0.862-6.636,4.846-5.774,8.897L268.163,153.352z"/>
<path d="M358.043,144.291c-6.124,0-10.699-3.447-10.699-6.528c0-4.142-3.358-7.5-7.5-7.5s-7.5,3.358-7.5,7.5
	c0,11.871,11.528,21.528,25.699,21.528s25.699-9.658,25.699-21.528c0-16.592-14.469-21.904-23.114-25.077
	c-11.438-4.198-13.283-6.68-13.283-10.996c0-3.082,4.575-6.528,10.699-6.528s10.699,3.447,10.699,6.528c0,4.142,3.358,7.5,7.5,7.5
	s7.5-3.358,7.5-7.5c0-11.871-11.528-21.528-25.699-21.528s-25.699,9.658-25.699,21.528c0,16.593,14.469,21.904,23.114,25.077
	c11.438,4.199,13.283,6.68,13.283,10.996C368.742,140.844,364.167,144.291,358.043,144.291z"/>
<path d="M119.726,207.387h272.549c4.142,0,7.5-3.358,7.5-7.5s-3.358-7.5-7.5-7.5H119.726c-4.142,0-7.5,3.358-7.5,7.5
	S115.583,207.387,119.726,207.387z"/>
<path d="M119.726,351.677h120.242c4.142,0,7.5-3.358,7.5-7.5s-3.358-7.5-7.5-7.5H119.726c-4.142,0-7.5,3.358-7.5,7.5
	S115.583,351.677,119.726,351.677z"/>
<path d="M392.274,240.484H272.032c-4.142,0-7.5,3.358-7.5,7.5s3.358,7.5,7.5,7.5h120.242c4.142,0,7.5-3.358,7.5-7.5
	S396.417,240.484,392.274,240.484z"/>
<path d="M119.726,383.742h120.242c4.142,0,7.5-3.358,7.5-7.5s-3.358-7.5-7.5-7.5H119.726c-4.142,0-7.5,3.358-7.5,7.5
	S115.583,383.742,119.726,383.742z"/>
<path d="M392.274,272.548H272.032c-4.142,0-7.5,3.358-7.5,7.5s3.358,7.5,7.5,7.5h120.242c4.142,0,7.5-3.358,7.5-7.5
	S396.417,272.548,392.274,272.548z"/>
<path d="M392.274,304.613H272.032c-4.142,0-7.5,3.358-7.5,7.5s3.358,7.5,7.5,7.5h120.242c4.142,0,7.5-3.358,7.5-7.5
	S396.417,304.613,392.274,304.613z"/>
<path d="M320.129,336.677h-48.097c-4.142,0-7.5,3.358-7.5,7.5s3.358,7.5,7.5,7.5h48.097c4.142,0,7.5-3.358,7.5-7.5
	S324.271,336.677,320.129,336.677z"/>
<path d="M320.129,368.742h-48.097c-4.142,0-7.5,3.358-7.5,7.5s3.358,7.5,7.5,7.5h48.097c4.142,0,7.5-3.358,7.5-7.5
	S324.271,368.742,320.129,368.742z"/>
<path d="M424.339,0H87.661C70.265,0,56.113,14.152,56.113,31.548v448.903c0,17.396,14.152,31.549,31.548,31.549h336.678
	c17.396,0,31.548-14.152,31.548-31.549V31.548C455.887,14.152,441.735,0,424.339,0z M440.887,362.284v70.587H370.3L440.887,362.284z
	 M359.693,422.265v-60.598c0-5.508,4.481-9.99,9.99-9.99h60.598L359.693,422.265z M424.339,497H87.661
	c-9.125,0-16.548-7.424-16.548-16.549v-32.58h16.555c4.142,0,7.5-3.358,7.5-7.5s-3.358-7.5-7.5-7.5H71.113V47.064h321.168
	c4.142,0,7.5-3.358,7.5-7.5s-3.358-7.5-7.5-7.5H71.113v-0.516C71.113,22.423,78.536,15,87.661,15h336.678
	c9.125,0,16.548,7.423,16.548,16.548v0.516h-16.548c-4.142,0-7.5,3.358-7.5,7.5s3.358,7.5,7.5,7.5h16.548v289.613h-71.204
	c-13.779,0-24.99,11.21-24.99,24.99v71.204H119.726c-4.142,0-7.5,3.358-7.5,7.5s3.358,7.5,7.5,7.5h321.162v32.58
	C440.887,489.576,433.464,497,424.339,497z"/>
<path d="M272.032,464.936h-32.064c-4.142,0-7.5,3.358-7.5,7.5s3.358,7.5,7.5,7.5h32.064c4.142,0,7.5-3.358,7.5-7.5
	S276.174,464.936,272.032,464.936z"/>
<path d="M119.726,319.613h120.242c4.142,0,7.5-3.358,7.5-7.5v-64.129c0-4.142-3.358-7.5-7.5-7.5H119.726c-4.142,0-7.5,3.358-7.5,7.5
	v64.129C112.226,316.255,115.583,319.613,119.726,319.613z M127.226,255.484h105.242v49.129H127.226V255.484z"/>
<g>
</g>
<g>
</g>
<g>
</g>
<g>
</g>
<g>
</g>
<g>
</g>
<g>
</g>
<g>
</g>
<g>
</g>
<g>
</g>
<g>
</g>
<g>
</g>
<g>
</g>
<g>
</g>
<g>
</g>
</svg>
