<?xml version="1.0" encoding="iso-8859-1"?>
<!-- Generator: Adobe Illustrator 19.0.0, SVG Export Plug-In . SVG Version: 6.00 Build 0)  -->
<svg version="1.1" id="Capa_1" xmlns="http://www.w3.org/2000/svg" xmlns:xlink="http://www.w3.org/1999/xlink" x="0px" y="0px"
	 viewBox="0 0 511.999 511.999" style="enable-background:new 0 0 511.999 511.999;" xml:space="preserve">
<path style="fill:#DBD9DC;" d="M55.596,151.79h48.097v320.645c0,17.709-14.356,32.064-32.064,32.064l0,0
	c-17.709,0-32.064-14.356-32.064-32.064V167.823C39.564,158.968,46.741,151.79,55.596,151.79z"/>
<path style="fill:#EDEBED;" d="M464.418,7.5H111.709c-4.427,0-8.016,3.589-8.016,8.016v456.919
	c0,17.708-14.356,32.065-32.065,32.065H440.37c17.709,0,32.065-14.356,32.065-32.065V15.516C472.435,11.089,468.846,7.5,464.418,7.5
	z"/>
<rect x="159.809" y="247.98" style="fill:#FFD164;" width="88.18" height="32.06"/>
<rect x="288.059" y="376.24" style="fill:#A5CDFF;" width="128.26" height="72.14"/>
<path style="fill:#C9C6CA;" d="M71.628,464.419V168.68c0-7.986-5.457-15.388-13.339-16.67c-10.044-1.634-18.725,6.075-18.725,15.813
	v303.235c0,16.747,12.244,31.703,28.915,33.292c19.124,1.824,35.214-13.167,35.214-31.914v-8.016L71.628,464.419L71.628,464.419z"/>
<rect x="159.809" y="63.61" style="fill:#FF8087;" width="256.52" height="136.27"/>
<path style="fill:#E6646E;" d="M191.87,103.694V63.613h-32.065v136.274h256.516v-32.065H255.999
	C220.582,167.823,191.87,139.111,191.87,103.694z"/>
<path style="fill:#8CB4EB;" d="M344.176,424.339c-17.709,0-32.065-14.356-32.065-32.065v-16.032h-24.048v72.145h128.258v-24.048
	L344.176,424.339L344.176,424.339z"/>
<path style="fill:#DBD9DC;" d="M102.559,480.452C98.983,494.257,86.552,504.5,71.628,504.5H440.37
	c14.924,0,27.355-10.243,30.931-24.048H102.559z"/>
<path d="M464.418,0h-352.71c-8.556,0-15.516,6.96-15.516,15.516v456.919c0,13.545-11.02,24.564-24.564,24.564
	s-24.564-11.02-24.564-24.564V167.822c0-4.704,3.828-8.532,8.532-8.532s8.532,3.828,8.532,8.532v296.597c0,4.142,3.358,7.5,7.5,7.5
	s7.5-3.358,7.5-7.5V167.822c0-12.976-10.557-23.532-23.532-23.532s-23.532,10.557-23.532,23.532v304.613
	c0,21.816,17.749,39.564,39.564,39.564h368.742c21.816,0,39.564-17.749,39.564-39.564V15.516C479.935,6.96,472.974,0,464.418,0z
	 M464.935,472.436c0,13.545-11.02,24.564-24.564,24.564H102.623c5.362-6.752,8.57-15.292,8.57-24.564V15.516
	c0-0.285,0.231-0.516,0.516-0.516h352.71c0.285,0,0.516,0.231,0.516,0.516L464.935,472.436L464.935,472.436z"/>
<path d="M159.806,207.387h16.034c4.142,0,7.5-3.358,7.5-7.5s-3.358-7.5-7.5-7.5h-8.534V71.113h200.916c4.142,0,7.5-3.358,7.5-7.5
	s-3.358-7.5-7.5-7.5H159.806c-4.142,0-7.5,3.358-7.5,7.5v136.274C152.306,204.029,155.664,207.387,159.806,207.387z"/>
<path d="M416.322,56.113h-16.034c-4.142,0-7.5,3.358-7.5,7.5s3.358,7.5,7.5,7.5h8.534v121.274H207.906c-4.142,0-7.5,3.358-7.5,7.5
	s3.358,7.5,7.5,7.5h208.416c4.142,0,7.5-3.358,7.5-7.5V63.613C423.822,59.471,420.464,56.113,416.322,56.113z"/>
<path d="M247.983,240.484h-88.177c-4.142,0-7.5,3.358-7.5,7.5v32.064c0,4.142,3.358,7.5,7.5,7.5h88.177c4.142,0,7.5-3.358,7.5-7.5
	v-32.064C255.483,243.842,252.125,240.484,247.983,240.484z M240.483,272.548h-73.177v-17.064h73.177V272.548z"/>
<path d="M247.983,304.613h-88.177c-4.142,0-7.5,3.358-7.5,7.5s3.358,7.5,7.5,7.5h88.177c4.142,0,7.5-3.358,7.5-7.5
	S252.125,304.613,247.983,304.613z"/>
<path d="M247.983,336.678h-88.177c-4.142,0-7.5,3.357-7.5,7.5c0,4.142,3.358,7.5,7.5,7.5h88.177c4.142,0,7.5-3.358,7.5-7.5
	C255.483,340.035,252.125,336.678,247.983,336.678z"/>
<path d="M247.983,368.742h-88.177c-4.142,0-7.5,3.357-7.5,7.5c0,4.142,3.358,7.5,7.5,7.5h88.177c4.142,0,7.5-3.358,7.5-7.5
	S252.125,368.742,247.983,368.742z"/>
<path d="M247.983,400.807h-88.177c-4.142,0-7.5,3.357-7.5,7.5c0,4.142,3.358,7.5,7.5,7.5h88.177c4.142,0,7.5-3.358,7.5-7.5
	C255.483,404.164,252.125,400.807,247.983,400.807z"/>
<path d="M416.322,304.613H288.063c-4.142,0-7.5,3.358-7.5,7.5s3.358,7.5,7.5,7.5h128.258c4.142,0,7.5-3.358,7.5-7.5
	S420.464,304.613,416.322,304.613z"/>
<path d="M416.322,336.678H288.063c-4.142,0-7.5,3.357-7.5,7.5c0,4.142,3.358,7.5,7.5,7.5h128.258c4.142,0,7.5-3.358,7.5-7.5
	C423.822,340.035,420.464,336.678,416.322,336.678z"/>
<path d="M416.322,240.484H288.063c-4.142,0-7.5,3.358-7.5,7.5s3.358,7.5,7.5,7.5h128.258c4.142,0,7.5-3.358,7.5-7.5
	S420.464,240.484,416.322,240.484z"/>
<path d="M416.322,272.548H288.063c-4.142,0-7.5,3.358-7.5,7.5s3.358,7.5,7.5,7.5h128.258c4.142,0,7.5-3.358,7.5-7.5
	S420.464,272.548,416.322,272.548z"/>
<path d="M416.322,368.742H288.063c-4.142,0-7.5,3.357-7.5,7.5v72.145c0,4.142,3.358,7.5,7.5,7.5h128.258c4.142,0,7.5-3.358,7.5-7.5
	v-72.145C423.822,372.1,420.464,368.742,416.322,368.742z M408.822,440.887H295.563v-57.145h113.258v57.145H408.822z"/>
<g>
</g>
<g>
</g>
<g>
</g>
<g>
</g>
<g>
</g>
<g>
</g>
<g>
</g>
<g>
</g>
<g>
</g>
<g>
</g>
<g>
</g>
<g>
</g>
<g>
</g>
<g>
</g>
<g>
</g>
</svg>
