<?xml version="1.0" encoding="iso-8859-1"?>
<!-- Generator: Adobe Illustrator 19.0.0, SVG Export Plug-In . SVG Version: 6.00 Build 0)  -->
<svg version="1.1" id="Capa_1" xmlns="http://www.w3.org/2000/svg" xmlns:xlink="http://www.w3.org/1999/xlink" x="0px" y="0px"
	 viewBox="0 0 511.999 511.999" style="enable-background:new 0 0 511.999 511.999;" xml:space="preserve">
<path style="fill:#FFFFFF;" d="M488.468,67.621H23.532c-8.854,0-16.032,7.178-16.032,16.032v288.581h497V83.653
	C504.5,74.799,497.322,67.621,488.468,67.621z"/>
<path style="fill:#6F6571;" d="M488.468,404.298H23.532c-8.854,0-16.032-7.178-16.032-16.032v-16.032h497v16.032
	C504.5,397.12,497.322,404.298,488.468,404.298z"/>
<g>
	<polygon style="fill:#5D5360;" points="23.532,444.379 47.581,444.379 87.661,404.298 47.581,404.298 	"/>
	<polygon style="fill:#5D5360;" points="464.419,404.298 424.339,404.298 464.419,444.379 488.468,444.379 	"/>
</g>
<circle style="fill:#CDF5A0;" cx="87.66" cy="219.93" r="24.05"/>
<circle style="fill:#FFE17D;" cx="424.34" cy="219.93" r="24.05"/>
<path style="fill:#B4E6A0;" d="M99.685,231.951c-13.282,0-24.048-10.767-24.048-24.048c0-3.524,0.8-6.846,2.162-9.862
	c-8.35,3.771-14.186,12.129-14.186,21.886c0,13.282,10.767,24.048,24.048,24.048c9.757,0,18.116-5.836,21.886-14.186
	C106.532,231.152,103.21,231.951,99.685,231.951z"/>
<path style="fill:#FFD164;" d="M436.363,231.951c-13.282,0-24.048-10.767-24.048-24.048c0-3.524,0.8-6.846,2.162-9.862
	c-8.35,3.771-14.186,12.129-14.186,21.886c0,13.282,10.767,24.048,24.048,24.048c9.757,0,18.116-5.836,21.886-14.186
	C443.209,231.152,439.887,231.951,436.363,231.951z"/>
<circle style="fill:#A5CDFF;" cx="256" cy="219.93" r="80.16"/>
<path style="fill:#8CB4EB;" d="M280.048,276.04c-44.272,0-80.161-35.89-80.161-80.161c0-15.978,4.728-30.827,12.785-43.328
	c-22.137,14.266-36.833,39.083-36.833,67.377c0,44.272,35.89,80.161,80.161,80.161c28.294,0,53.111-14.696,67.377-36.833
	C310.876,271.312,296.026,276.04,280.048,276.04z"/>
<path d="M488.468,60.121H23.532C10.557,60.121,0,70.678,0,83.653v304.613c0,12.976,10.557,23.532,23.532,23.532h10.802
	L17.101,440.52c-1.39,2.317-1.427,5.203-0.095,7.554c1.331,2.351,3.824,3.805,6.526,3.805H47.58c1.989,0,3.897-0.79,5.303-2.197
	l37.884-37.884h330.465l37.884,37.884c1.406,1.406,3.314,2.197,5.303,2.197h24.048c2.702,0,5.195-1.453,6.526-3.805
	c1.332-2.351,1.295-5.237-0.095-7.554l-17.233-28.722h10.802c12.976,0,23.532-10.557,23.532-23.532V83.653
	C512,70.678,501.443,60.121,488.468,60.121z M44.474,436.879h-7.695l15.048-25.081h17.728L44.474,436.879z M475.221,436.879h-7.695
	l-25.081-25.081h17.728L475.221,436.879z M497,388.266c0,4.705-3.828,8.532-8.532,8.532H23.532c-4.705,0-8.532-3.828-8.532-8.532
	V83.653c0-4.705,3.828-8.532,8.532-8.532h464.936c4.705,0,8.532,3.827,8.532,8.532L497,388.266L497,388.266z"/>
<path d="M472.436,364.734H39.564c-4.142,0-7.5,3.358-7.5,7.5s3.358,7.5,7.5,7.5h432.871c4.142,0,7.5-3.358,7.5-7.5
	S476.578,364.734,472.436,364.734z"/>
<path d="M368.229,227.428h25.47c3.375,13.786,15.829,24.048,30.64,24.048c17.396,0,31.548-14.152,31.548-31.548
	s-14.152-31.549-31.548-31.549c-14.812,0-27.265,10.263-30.64,24.049h-25.47c-4.142,0-7.5,3.357-7.5,7.5
	C360.729,224.069,364.087,227.428,368.229,227.428z M424.339,203.379c9.125,0,16.548,7.424,16.548,16.549
	s-7.423,16.548-16.548,16.548s-16.548-7.423-16.548-16.548S415.214,203.379,424.339,203.379z"/>
<path d="M168.339,219.94c0.007,48.331,39.329,87.648,87.661,87.648c48.315,0,87.625-39.29,87.66-87.597
	c0-0.022,0.003-0.043,0.003-0.064c0-0.022-0.003-0.043-0.003-0.065c-0.035-48.307-39.346-87.597-87.66-87.597
	c-48.332,0-87.654,39.318-87.661,87.648c0,0.004-0.001,0.008-0.001,0.013C168.338,219.932,168.339,219.936,168.339,219.94z
	 M196.979,177.623c6.147,2.493,12.409,4.588,18.774,6.271c-1.935,8.934-3.13,18.566-3.532,28.533h-28.496
	C185.054,199.53,189.784,187.635,196.979,177.623z M328.275,212.428h-28.496c-0.402-9.962-1.597-19.59-3.53-28.52
	c6.368-1.682,12.634-3.775,18.783-6.268C322.221,187.647,326.947,199.537,328.275,212.428z M315.026,262.223
	c-6.148-2.493-12.412-4.587-18.779-6.27c1.934-8.932,3.129-18.562,3.531-28.526h28.496
	C326.947,240.321,322.219,252.214,315.026,262.223z M223.407,279.713c1.09,2.398,2.242,4.647,3.449,6.754
	c-7.03-3.091-13.48-7.259-19.139-12.303c3.959-1.43,7.969-2.681,12.024-3.747C220.852,273.67,222.073,276.779,223.407,279.713z
	 M237.063,273.506c-0.889-1.955-1.717-4.011-2.494-6.141c7.04-1.059,14.19-1.6,21.431-1.6s14.391,0.541,21.431,1.6
	c-0.777,2.13-1.605,4.186-2.494,6.141c-5.431,11.949-12.51,19.083-18.937,19.083S242.494,285.455,237.063,273.506z M284.774,227.428
	c-0.389,8.927-1.474,17.497-3.19,25.404c-8.393-1.369-16.932-2.066-25.584-2.066s-17.191,0.697-25.584,2.066
	c-1.716-7.908-2.801-16.477-3.19-25.404L284.774,227.428L284.774,227.428z M227.226,212.428c0.389-8.929,1.474-17.5,3.191-25.409
	c8.401,1.372,16.948,2.071,25.609,2.071c8.644,0,17.174-0.696,25.559-2.062c1.716,7.907,2.8,16.475,3.189,25.401h-57.548V212.428z
	 M288.593,279.713c1.334-2.935,2.555-6.043,3.666-9.296c4.056,1.066,8.065,2.316,12.024,3.747
	c-5.659,5.043-12.109,9.212-19.139,12.303C286.35,284.361,287.503,282.111,288.593,279.713z M292.261,169.443
	c-1.111-3.254-2.333-6.366-3.668-9.302c-1.09-2.398-2.242-4.648-3.449-6.754c7.033,3.093,13.486,7.264,19.147,12.31
	C300.33,167.127,296.318,168.377,292.261,169.443z M274.937,166.349c0.889,1.956,1.718,4.013,2.495,6.144
	c-7.032,1.057-14.174,1.597-21.406,1.597c-7.249,0-14.408-0.542-21.456-1.604c0.777-2.128,1.604-4.183,2.493-6.137
	c5.431-11.949,12.51-19.083,18.937-19.083S269.506,154.399,274.937,166.349z M223.407,160.141c-1.333,2.932-2.554,6.04-3.664,9.29
	c-4.054-1.066-8.061-2.317-12.019-3.747c5.657-5.041,12.104-9.207,19.131-12.297C225.65,155.494,224.497,157.743,223.407,160.141z
	 M212.221,227.428c0.403,9.964,1.597,19.593,3.531,28.526c-6.367,1.682-12.63,3.777-18.779,6.27
	c-7.193-10.009-11.92-21.902-13.249-34.795h28.497V227.428z"/>
<path d="M87.661,251.475c14.812,0,27.265-10.262,30.64-24.048h25.471c4.142,0,7.5-3.358,7.5-7.5c0-4.143-3.358-7.5-7.5-7.5h-25.471
	c-3.375-13.786-15.829-24.049-30.64-24.049c-17.396,0-31.548,14.153-31.548,31.549C56.113,237.323,70.265,251.475,87.661,251.475z
	 M87.661,203.379c9.125,0,16.548,7.424,16.548,16.549s-7.423,16.548-16.548,16.548s-16.548-7.423-16.548-16.548
	C71.113,210.803,78.536,203.379,87.661,203.379z"/>
<g>
</g>
<g>
</g>
<g>
</g>
<g>
</g>
<g>
</g>
<g>
</g>
<g>
</g>
<g>
</g>
<g>
</g>
<g>
</g>
<g>
</g>
<g>
</g>
<g>
</g>
<g>
</g>
<g>
</g>
</svg>
