<?xml version="1.0" encoding="iso-8859-1"?>
<!-- Generator: Adobe Illustrator 19.0.0, SVG Export Plug-In . SVG Version: 6.00 Build 0)  -->
<svg version="1.1" id="Capa_1" xmlns="http://www.w3.org/2000/svg" xmlns:xlink="http://www.w3.org/1999/xlink" x="0px" y="0px"
	 viewBox="0 0 512 512" style="enable-background:new 0 0 512 512;" xml:space="preserve">
<path style="fill:#6F6571;" d="M111.71,344.177h32.876c10.31,0,17.94-9.591,15.622-19.637l-8.417-36.476H111.71V344.177z"/>
<polygon style="fill:#5D5360;" points="157.341,312.113 151.79,288.065 111.71,288.065 111.71,312.113 "/>
<path style="fill:#E6646E;" d="M119.726,288.065H39.565L83.36,477.843c2.518,10.912,12.234,18.641,23.432,18.641h61.031
	L119.726,288.065z"/>
<path style="fill:#FF8087;" d="M39.565,143.774c-17.709,0-32.065,14.356-32.065,32.065V256c0,17.708,14.356,32.065,32.065,32.065
	h128.258v-144.29H39.565V143.774z"/>
<path style="fill:#DBD9DC;" d="M494.881,176.64l-22.445-16.834v112.226l22.445-16.834c6.056-4.541,9.619-11.669,9.619-19.238
	v-40.081C504.5,188.31,500.936,181.182,494.881,176.64z"/>
<path style="fill:#E6646E;" d="M7.5,223.935V256c0,17.708,14.356,32.065,32.065,32.065h128.258V256H39.565
	C21.856,256,7.5,241.644,7.5,223.935z"/>
<path style="fill:#EDEBED;" d="M456.403,15.516h-7.305c-5.751,0-11.434,1.237-16.664,3.628l-272.628,124.63v144.29l272.628,124.63
	c5.23,2.391,10.913,3.628,16.664,3.628h7.305c8.854,0,16.032-7.178,16.032-16.032V31.548
	C472.435,22.694,465.257,15.516,456.403,15.516z"/>
<path style="fill:#DBD9DC;" d="M456.403,336.161h-7.305c-5.751,0-11.434-0.743-16.664-2.177L159.806,256v32.065l272.628,124.63
	c5.23,2.391,10.913,3.628,16.664,3.628h7.305c8.854,0,16.032-7.178,16.032-16.032v-73.748
	C472.435,331.854,465.257,336.161,456.403,336.161z"/>
<path style="fill:#DC4655;" d="M101.859,312.113h23.417l-5.55-24.048H39.565L83.36,477.844c2.518,10.911,12.234,18.64,23.432,18.64
	h7.385l-35.75-154.915C74.949,326.5,86.394,312.113,101.859,312.113z"/>
<path d="M499.381,170.641l-19.445-14.584V31.548c0-12.976-10.557-23.532-23.532-23.532h-7.305c-6.875,0-13.53,1.449-19.782,4.307
	L158.174,136.274H39.564C17.749,136.274,0,154.022,0,175.839V256c0,19.75,14.548,36.166,33.49,39.098L76.051,479.53
	c3.323,14.398,15.964,24.454,30.741,24.454h77.063c4.142,0,7.5-3.358,7.5-7.5s-3.358-7.5-7.5-7.5h-10.066l-31.686-137.306h2.483
	c7.213,0,13.925-3.238,18.416-8.883c4.49-5.645,6.135-12.913,4.514-19.941l-5.938-25.733l267.738,122.395
	c6.252,2.857,12.908,4.307,19.782,4.307h7.305c12.976,0,23.532-10.557,23.532-23.532V275.782l19.446-14.584
	C507.283,255.271,512,245.837,512,235.96v-40.081C512,186.002,507.283,176.567,499.381,170.641z M106.792,488.984
	c-7.751,0-14.382-5.275-16.125-12.827L48.992,295.564h64.767l44.636,193.419h-51.603V488.984z M151.263,333.457
	c-1.628,2.047-4.062,3.221-6.677,3.221h-5.945l-9.488-41.113h16.67l7.075,30.662C153.488,328.775,152.891,331.41,151.263,333.457z
	 M464.936,400.29c0,4.705-3.828,8.532-8.532,8.532h-7.305c-4.708,0-9.265-0.992-13.546-2.949L167.307,283.247v-91.375
	c0-4.142-3.358-7.5-7.5-7.5s-7.5,3.358-7.5,7.5v88.693H39.564C26.02,280.564,15,269.545,15,256v-80.161
	c0-13.545,11.02-24.564,24.564-24.564h112.742v8.532c0,4.142,3.358,7.5,7.5,7.5s7.5-3.358,7.5-7.5v-11.214L435.552,25.966
	c4.281-1.957,8.839-2.95,13.546-2.95h7.305c4.705,0,8.532,3.828,8.532,8.532V400.29H464.936z M497,235.96
	c0,5.181-2.475,10.13-6.619,13.238l-10.445,7.834v-82.226l10.445,7.834c4.145,3.108,6.619,8.058,6.619,13.238V235.96z"/>
<path d="M127.742,184.371H71.629c-4.142,0-7.5,3.357-7.5,7.5c0,4.142,3.358,7.5,7.5,7.5h56.113c4.142,0,7.5-3.358,7.5-7.5
	S131.884,184.371,127.742,184.371z"/>
<path d="M127.742,216.436H71.629c-4.142,0-7.5,3.358-7.5,7.5s3.358,7.5,7.5,7.5h56.113c4.142,0,7.5-3.358,7.5-7.5
	S131.884,216.436,127.742,216.436z"/>
<g>
</g>
<g>
</g>
<g>
</g>
<g>
</g>
<g>
</g>
<g>
</g>
<g>
</g>
<g>
</g>
<g>
</g>
<g>
</g>
<g>
</g>
<g>
</g>
<g>
</g>
<g>
</g>
<g>
</g>
</svg>
