<?xml version="1.0" encoding="iso-8859-1"?>
<!-- Generator: Adobe Illustrator 19.0.0, SVG Export Plug-In . SVG Version: 6.00 Build 0)  -->
<svg version="1.1" id="Capa_1" xmlns="http://www.w3.org/2000/svg" xmlns:xlink="http://www.w3.org/1999/xlink" x="0px" y="0px"
	 viewBox="0 0 512 512" style="enable-background:new 0 0 512 512;" xml:space="preserve">
<circle style="fill:#5AD0E4;" cx="432" cy="432" r="70"/>
<path style="fill:#ECECEC;" d="M432,362c6.225,0,12.255,0.823,18,2.347V191H10v253.228C10,463.902,26.098,480,45.772,480h335.303
	C369.257,467.467,362,450.586,362,432C362,393.34,393.34,362,432,362z"/>
<rect x="56" y="237" style="fill:#AAAAA0;" width="80" height="80"/>
<rect x="190" y="237" style="fill:#6E6E6E;" width="80" height="80"/>
<rect x="324" y="237" style="fill:#AAAAA0;" width="80" height="80"/>
<path style="fill:#EE3C32;" d="M450,73.496c0-19.675-16.098-35.772-35.772-35.772H45.772C26.098,37.724,10,53.821,10,73.496v77.496
	h440V73.496z"/>
<rect x="10" y="151" style="fill:#E48A80;" width="440" height="40"/>
<g>
	<path style="fill:#231F20;" d="M56,327h80c5.522,0,10-4.478,10-10v-80c0-5.522-4.478-10-10-10H56c-5.522,0-10,4.478-10,10v80
		C46,322.522,50.478,327,56,327z M66,247h60v60H66V247z"/>
	<path style="fill:#231F20;" d="M414,317v-80c0-5.522-4.478-10-10-10h-80c-5.522,0-10,4.478-10,10v80c0,5.522,4.478,10,10,10h80
		C409.522,327,414,322.522,414,317z M394,307h-60v-60h60V307z"/>
	<path style="fill:#231F20;" d="M270,227h-80c-5.522,0-10,4.478-10,10v80c0,5.522,4.478,10,10,10h80c5.522,0,10-4.478,10-10v-80
		C280,231.478,275.522,227,270,227z M260,307h-60v-60h60V307z"/>
	<path style="fill:#231F20;" d="M460,357.076V73.496c0-25.239-20.533-45.772-45.772-45.772H375.04V10c0-5.51-4.49-10-10-10
		c-5.521,0-10,4.49-10,10v17.724h-70.181V10c0-5.51-4.479-10-9.989-10c-5.521,0-10.011,4.49-10.011,10v17.724h-69.72V10
		c0-5.51-4.49-10-10-10c-5.52,0-10,4.49-10,10v17.724h-70.1V10c0-5.51-4.49-10-10-10c-5.521,0-10,4.49-10,10v17.724H45.772
		C20.533,27.724,0,48.257,0,73.496v370.731C0,469.467,20.533,490,45.772,490h331.239c14.345,13.615,33.696,22,54.989,22
		c44.112,0,80-35.888,80-80C512,397.736,490.34,368.451,460,357.076z M20,73.496c0-14.211,11.562-25.772,25.772-25.772H85.04V70
		c0,5.51,4.479,10,10,10c5.51,0,10-4.49,10-10V47.724h70.1V70c0,5.51,4.48,10,10,10c5.51,0,10-4.49,10-10V47.724h69.72V70
		c0,5.51,4.49,10,10.011,10c5.51,0,9.989-4.49,9.989-10V47.724h70.181V70c0,5.51,4.479,10,10,10c5.51,0,10-4.49,10-10V47.724h39.188
		c14.211,0,25.772,11.562,25.772,25.772v67.496H20V73.496z M20,161h420v20H20V161z M45.772,470C31.562,470,20,458.438,20,444.228
		V201h420v151.4c-2.656-0.267-5.326-0.4-8-0.4c-44.112,0-80,35.888-80,80c0,13.43,3.332,26.434,9.594,38H45.772z M432,492
		c-19.991,0-37.721-9.832-48.631-24.897C376,456.927,372,444.72,372,432c0-33.084,26.916-60,60-60
		c21.185,0,41.581,11.876,52.134,30.334C489.282,411.338,492,421.63,492,432C492,465.084,465.084,492,432,492z"/>
	<path style="fill:#231F20;" d="M365.04,100c-5.521,0-10,4.479-10,10c0,5.51,4.479,10,10,10c5.51,0,10-4.49,10-10
		C375.04,104.479,370.55,100,365.04,100z"/>
	<path style="fill:#231F20;" d="M274.87,100c-5.521,0-10.011,4.479-10.011,10c0,5.51,4.49,10,10.011,10c5.51,0,9.989-4.49,9.989-10
		C284.859,104.479,280.38,100,274.87,100z"/>
	<path style="fill:#231F20;" d="M185.14,100c-5.52,0-10,4.479-10,10c0,5.51,4.48,10,10,10c5.51,0,10-4.49,10-10
		C195.14,104.479,190.649,100,185.14,100z"/>
	<path style="fill:#231F20;" d="M95.04,100c-5.521,0-10,4.479-10,10c0,5.51,4.479,10,10,10c5.51,0,10-4.49,10-10
		C105.04,104.479,100.55,100,95.04,100z"/>
	<path style="fill:#231F20;" d="M270,376H56c-5.522,0-10,4.478-10,10s4.478,10,10,10h214c5.522,0,10-4.478,10-10
		S275.522,376,270,376z"/>
	<path style="fill:#231F20;" d="M270,416H56c-5.522,0-10,4.478-10,10s4.478,10,10,10h214c5.522,0,10-4.478,10-10
		S275.522,416,270,416z"/>
	<path style="fill:#231F20;" d="M460,422h-18v-18c0-5.522-4.478-10-10-10s-10,4.478-10,10v18h-18c-5.522,0-10,4.478-10,10
		s4.478,10,10,10h18v18c0,5.522,4.478,10,10,10s10-4.478,10-10v-18h18c5.522,0,10-4.478,10-10S465.522,422,460,422z"/>
</g>
<g>
</g>
<g>
</g>
<g>
</g>
<g>
</g>
<g>
</g>
<g>
</g>
<g>
</g>
<g>
</g>
<g>
</g>
<g>
</g>
<g>
</g>
<g>
</g>
<g>
</g>
<g>
</g>
<g>
</g>
</svg>
