<?xml version="1.0" encoding="iso-8859-1"?>
<!-- Generator: Adobe Illustrator 19.0.0, SVG Export Plug-In . SVG Version: 6.00 Build 0)  -->
<svg version="1.1" id="Capa_1" xmlns="http://www.w3.org/2000/svg" xmlns:xlink="http://www.w3.org/1999/xlink" x="0px" y="0px"
	 viewBox="0 0 512 512" style="enable-background:new 0 0 512 512;" xml:space="preserve">
<path style="fill:#ECECEC;" d="M10,192v270c0,22,18,40,40,40h412c22,0,40-18,40-40V192H10z"/>
<path style="fill:#EE3C32;" d="M502,81c0-22-18-40-40-40H50c-22,0-40,18-40,40v71h492V81z"/>
<rect x="10" y="152" style="fill:#E48A80;" width="492" height="40"/>
<g>
	<path style="fill:#231F20;" d="M462,31h-44V10.25c0-5.51-4.49-10-10-10c-5.521,0-10,4.49-10,10V31h-81.5V10c0-5.51-4.49-10-10-10
		s-10,4.49-10,10v21h-81V10c0-5.51-4.49-10-10-10s-10,4.49-10,10v21h-81.41V10.25c0-5.51-4.49-10-10-10c-5.521,0-10,4.49-10,10V31
		H50C22.43,31,0,53.43,0,81v381c0,27.57,22.43,50,50,50h412c27.57,0,50-22.43,50-50V81C512,53.43,489.57,31,462,31z M20,162h472v20
		H20V162z M20,81c0-16.542,13.458-30,30-30h44.09v19.25c0,5.51,4.479,10,10,10c5.51,0,10-4.49,10-10V51h81.41v19
		c0,5.51,4.49,10,10,10s10-4.49,10-10V51h81v19c0,5.51,4.49,10,10,10s10-4.49,10-10V51H398v19.25c0,5.51,4.479,10,10,10
		c5.51,0,10-4.49,10-10V51h44c16.542,0,30,13.458,30,30v61H20V81z M492,462c0,16.542-13.458,30-30,30H50c-16.542,0-30-13.458-30-30
		V202h472V462z"/>
	<path style="fill:#231F20;" d="M408,100.25c-5.521,0-10,4.49-10,10c0,5.52,4.479,10,10,10c5.51,0,10-4.48,10-10
		C418,104.74,413.51,100.25,408,100.25z"/>
	<path style="fill:#231F20;" d="M306.5,100c-5.51,0-10,4.49-10,10c0,5.52,4.49,10,10,10s10-4.48,10-10
		C316.5,104.49,312.01,100,306.5,100z"/>
	<path style="fill:#231F20;" d="M205.5,100c-5.51,0-10,4.49-10,10s4.49,10,10,10s10-4.49,10-10S211.01,100,205.5,100z"/>
	<path style="fill:#231F20;" d="M104.09,100.25c-5.521,0-10,4.49-10,10s4.479,10,10,10c5.51,0,10-4.49,10-10
		S109.6,100.25,104.09,100.25z"/>
	<path style="fill:#231F20;" d="M376.5,273h18c5.522,0,10-4.477,10-10s-4.478-10-10-10h-18c-5.522,0-10,4.477-10,10
		S370.978,273,376.5,273z"/>
	<path style="fill:#231F20;" d="M441.5,273h18c5.522,0,10-4.477,10-10s-4.478-10-10-10h-18c-5.522,0-10,4.477-10,10
		S435.978,273,441.5,273z"/>
	<path style="fill:#231F20;" d="M52.5,315h18c5.522,0,10-4.477,10-10s-4.478-10-10-10h-18c-5.522,0-10,4.477-10,10
		S46.978,315,52.5,315z"/>
	<path style="fill:#231F20;" d="M116.5,315h18c5.522,0,10-4.477,10-10s-4.478-10-10-10h-18c-5.522,0-10,4.477-10,10
		S110.978,315,116.5,315z"/>
	<path style="fill:#231F20;" d="M181.5,315h18c5.522,0,10-4.477,10-10s-4.478-10-10-10h-18c-5.522,0-10,4.477-10,10
		S175.978,315,181.5,315z"/>
	<path style="fill:#231F20;" d="M246.5,315h18c5.522,0,10-4.477,10-10s-4.478-10-10-10h-18c-5.522,0-10,4.477-10,10
		S240.978,315,246.5,315z"/>
	<path style="fill:#231F20;" d="M311.5,315h18c5.522,0,10-4.477,10-10s-4.478-10-10-10h-18c-5.522,0-10,4.477-10,10
		S305.978,315,311.5,315z"/>
	<path style="fill:#231F20;" d="M376.5,315h18c5.522,0,10-4.477,10-10s-4.478-10-10-10h-18c-5.522,0-10,4.477-10,10
		S370.978,315,376.5,315z"/>
	<path style="fill:#231F20;" d="M441.5,315h18c5.522,0,10-4.477,10-10s-4.478-10-10-10h-18c-5.522,0-10,4.477-10,10
		S435.978,315,441.5,315z"/>
	<path style="fill:#231F20;" d="M52.5,357h18c5.522,0,10-4.477,10-10s-4.478-10-10-10h-18c-5.522,0-10,4.477-10,10
		S46.978,357,52.5,357z"/>
	<path style="fill:#231F20;" d="M116.5,357h18c5.522,0,10-4.477,10-10s-4.478-10-10-10h-18c-5.522,0-10,4.477-10,10
		S110.978,357,116.5,357z"/>
	<path style="fill:#231F20;" d="M181.5,357h18c5.522,0,10-4.477,10-10s-4.478-10-10-10h-18c-5.522,0-10,4.477-10,10
		S175.978,357,181.5,357z"/>
	<path style="fill:#231F20;" d="M246.5,357h18c5.522,0,10-4.477,10-10s-4.478-10-10-10h-18c-5.522,0-10,4.477-10,10
		S240.978,357,246.5,357z"/>
	<path style="fill:#231F20;" d="M311.5,357h18c5.522,0,10-4.477,10-10s-4.478-10-10-10h-18c-5.522,0-10,4.477-10,10
		S305.978,357,311.5,357z"/>
	<path style="fill:#231F20;" d="M376.5,357h18c5.522,0,10-4.477,10-10s-4.478-10-10-10h-18c-5.522,0-10,4.477-10,10
		S370.978,357,376.5,357z"/>
	<path style="fill:#231F20;" d="M441.5,357h18c5.522,0,10-4.477,10-10s-4.478-10-10-10h-18c-5.522,0-10,4.477-10,10
		S435.978,357,441.5,357z"/>
	<path style="fill:#231F20;" d="M52.5,399h18c5.522,0,10-4.477,10-10s-4.478-10-10-10h-18c-5.522,0-10,4.477-10,10
		S46.978,399,52.5,399z"/>
	<path style="fill:#231F20;" d="M116.5,399h18c5.522,0,10-4.477,10-10s-4.478-10-10-10h-18c-5.522,0-10,4.477-10,10
		S110.978,399,116.5,399z"/>
	<path style="fill:#231F20;" d="M181.5,399h18c5.522,0,10-4.477,10-10s-4.478-10-10-10h-18c-5.522,0-10,4.477-10,10
		S175.978,399,181.5,399z"/>
	<path style="fill:#231F20;" d="M246.5,399h18c5.522,0,10-4.477,10-10s-4.478-10-10-10h-18c-5.522,0-10,4.477-10,10
		S240.978,399,246.5,399z"/>
	<path style="fill:#231F20;" d="M311.5,399h18c5.522,0,10-4.477,10-10s-4.478-10-10-10h-18c-5.522,0-10,4.477-10,10
		S305.978,399,311.5,399z"/>
	<path style="fill:#231F20;" d="M376.5,399h18c5.522,0,10-4.477,10-10s-4.478-10-10-10h-18c-5.522,0-10,4.477-10,10
		S370.978,399,376.5,399z"/>
	<path style="fill:#231F20;" d="M441.5,399h18c5.522,0,10-4.477,10-10s-4.478-10-10-10h-18c-5.522,0-10,4.477-10,10
		S435.978,399,441.5,399z"/>
	<path style="fill:#231F20;" d="M52.5,441h18c5.522,0,10-4.477,10-10s-4.478-10-10-10h-18c-5.522,0-10,4.477-10,10
		S46.978,441,52.5,441z"/>
	<path style="fill:#231F20;" d="M116.5,441h18c5.522,0,10-4.477,10-10s-4.478-10-10-10h-18c-5.522,0-10,4.477-10,10
		S110.978,441,116.5,441z"/>
	<path style="fill:#231F20;" d="M181.5,441h18c5.522,0,10-4.477,10-10s-4.478-10-10-10h-18c-5.522,0-10,4.477-10,10
		S175.978,441,181.5,441z"/>
	<path style="fill:#231F20;" d="M246.5,441h18c5.522,0,10-4.477,10-10s-4.478-10-10-10h-18c-5.522,0-10,4.477-10,10
		S240.978,441,246.5,441z"/>
	<path style="fill:#231F20;" d="M311.5,441h18c5.522,0,10-4.477,10-10s-4.478-10-10-10h-18c-5.522,0-10,4.477-10,10
		S305.978,441,311.5,441z"/>
	<path style="fill:#231F20;" d="M376.5,441h18c5.522,0,10-4.477,10-10s-4.478-10-10-10h-18c-5.522,0-10,4.477-10,10
		S370.978,441,376.5,441z"/>
</g>
<g>
</g>
<g>
</g>
<g>
</g>
<g>
</g>
<g>
</g>
<g>
</g>
<g>
</g>
<g>
</g>
<g>
</g>
<g>
</g>
<g>
</g>
<g>
</g>
<g>
</g>
<g>
</g>
<g>
</g>
</svg>
