<?xml version="1.0" encoding="iso-8859-1"?>
<!-- Generator: Adobe Illustrator 19.0.0, SVG Export Plug-In . SVG Version: 6.00 Build 0)  -->
<svg version="1.1" id="Capa_1" xmlns="http://www.w3.org/2000/svg" xmlns:xlink="http://www.w3.org/1999/xlink" x="0px" y="0px"
	 viewBox="0 0 512 512" style="enable-background:new 0 0 512 512;" xml:space="preserve">
<path style="fill:#F0F0FA;" d="M424,110h23.997c22.091,0,40,17.909,40,40v288h-464V150c0-22.091,17.909-40,40-40h72.253H424z"/>
<rect x="63.997" y="150" style="fill:#C8F5FF;" width="384" height="288"/>
<path style="fill:#7D9BFF;" d="M502,438v17.5c0,25.681-20.819,46.5-46.5,46.5h-399C30.819,502,10,481.181,10,455.5V438l0,0H502z"/>
<path style="fill:#FFFFFF;" d="M145.671,230.334h131.25c24.024,0,43.5,19.476,43.5,43.5v81c0,24.024-19.476,43.5-43.5,43.5h-60.57
	v38.751l-38.998-38.751h-31.681c-24.024,0-43.5-19.476-43.5-43.5v-81C102.171,249.81,121.647,230.334,145.671,230.334z"/>
<path style="fill:#FF8C8C;" d="M370.333,10H229.167c-24.024,0-43.5,19.476-43.5,43.5v71c0,24.024,19.476,43.5,43.5,43.5h70.487
	v38.751L338.652,168h31.681c24.024,0,43.5-19.476,43.5-43.5v-71C413.833,29.476,394.358,10,370.333,10z"/>
<path d="M281.168,75.374c5.522,0,10-4.478,10-10c0-4.732,3.85-8.582,8.582-8.582s8.582,3.85,8.582,8.582s-3.85,8.583-8.582,8.583
	c-5.522,0-10,4.478-10,10v12.359c0,5.522,4.478,10,10,10s10-4.478,10-10v-4.164c10.844-4.063,18.582-14.533,18.582-26.778
	c0-15.76-12.822-28.582-28.582-28.582s-28.582,12.822-28.582,28.582C271.168,70.896,275.646,75.374,281.168,75.374z"/>
<path d="M299.75,118c-2.63,0-5.21,1.069-7.07,2.93s-2.93,4.44-2.93,7.07c0,2.63,1.069,5.21,2.93,7.069
	c1.86,1.86,4.44,2.931,7.07,2.931s5.21-1.07,7.069-2.931c1.86-1.859,2.931-4.439,2.931-7.069s-1.07-5.21-2.931-7.07
	C304.96,119.069,302.38,118,299.75,118z"/>
<path d="M502,428h-4.003V150c0-27.57-22.43-50-50-50H424c-0.056,0-0.111,0.008-0.167,0.008V53.5c0-29.5-24-53.5-53.5-53.5H229.167
	c-29.5,0-53.5,24-53.5,53.5v71c0,5.389,0.809,10.591,2.298,15.5H63.997c-5.522,0-10,4.478-10,10v278h-20V150
	c0-16.542,13.458-30,30-30H106c5.522,0,10-4.478,10-10s-4.478-10-10-10H63.997c-27.57,0-50,22.43-50,50v278H10
	c-5.522,0-10,4.478-10,10v17.5C0,486.654,25.346,512,56.5,512h399c31.154,0,56.5-25.346,56.5-56.5V438
	C512,432.478,507.522,428,502,428z M423.833,124.5v-4.508c0.056,0.001,0.111,0.008,0.167,0.008h23.997c16.542,0,30,13.458,30,30v278
	h-20V150c0-5.522-4.478-10-10-10h-26.462C423.024,135.091,423.833,129.889,423.833,124.5z M195.667,53.5
	c0-18.472,15.028-33.5,33.5-33.5h141.166c18.472,0,33.5,15.028,33.5,33.5v71c0,18.472-15.028,33.5-33.5,33.5h-31.681
	c-2.642,0-5.175,1.045-7.049,2.906l-21.95,21.812V168c0-5.522-4.478-10-10-10h-70.486c-18.472,0-33.5-15.028-33.5-33.5L195.667,53.5
	L195.667,53.5z M73.997,160h113.982c0.389,0,0.771-0.028,1.148-0.071c9.809,11.073,24.119,18.071,40.04,18.071h60.486v28.752
	c0,4.039,2.43,7.682,6.158,9.232c1.242,0.517,2.546,0.768,3.84,0.768c2.592,0,5.14-1.008,7.051-2.906L342.776,178h27.557
	c15.882,0,30.148-6.975,39.955-18h27.709v268H410v-71.267c0-5.522-4.478-10-10-10s-10,4.478-10,10V428H226.351v-19.666h50.57
	c29.5,0,53.5-24,53.5-53.5v-81c0-29.5-24-53.5-53.5-53.5h-131.25c-29.5,0-53.5,24-53.5,53.5v81c0,29.5,24,53.5,53.5,53.5h27.558
	L193.019,428H73.997V160z M216.351,388.334c-5.522,0-10,4.478-10,10v14.718l-21.949-21.812c-1.874-1.861-4.407-2.906-7.049-2.906
	h-31.682c-18.472,0-33.5-15.028-33.5-33.5v-81c0-18.472,15.028-33.5,33.5-33.5h131.25c18.472,0,33.5,15.028,33.5,33.5v81
	c0,18.472-15.028,33.5-33.5,33.5L216.351,388.334L216.351,388.334z M492,455.5c0,20.126-16.374,36.5-36.5,36.5h-399
	C36.374,492,20,475.626,20,455.5V448h472V455.5z"/>
<path d="M289.528,460h-67.057c-5.522,0-10,4.478-10,10s4.478,10,10,10h67.057c5.522,0,10-4.478,10-10S295.051,460,289.528,460z"/>
<path d="M146.5,120c2.63,0,5.21-1.07,7.069-2.931c1.86-1.859,2.931-4.439,2.931-7.069s-1.07-5.21-2.931-7.07
	c-1.859-1.86-4.439-2.93-7.069-2.93s-5.21,1.069-7.07,2.93s-2.93,4.44-2.93,7.07s1.069,5.21,2.93,7.069
	C141.29,118.93,143.87,120,146.5,120z"/>
<path d="M400,329.229c2.63,0,5.21-1.069,7.069-2.93c1.86-1.86,2.931-4.44,2.931-7.07s-1.07-5.21-2.931-7.069
	c-1.859-1.86-4.439-2.931-7.069-2.931s-5.21,1.07-7.07,2.931c-1.86,1.859-2.93,4.439-2.93,7.069s1.069,5.21,2.93,7.07
	S397.37,329.229,400,329.229z"/>
<path d="M153.593,296.334H269c5.522,0,10-4.478,10-10s-4.478-10-10-10H153.593c-5.522,0-10,4.478-10,10
	S148.07,296.334,153.593,296.334z"/>
<path d="M279,342.334c0-5.522-4.478-10-10-10H153.593c-5.522,0-10,4.478-10,10s4.478,10,10,10H269
	C274.522,352.334,279,347.856,279,342.334z"/>
<g>
</g>
<g>
</g>
<g>
</g>
<g>
</g>
<g>
</g>
<g>
</g>
<g>
</g>
<g>
</g>
<g>
</g>
<g>
</g>
<g>
</g>
<g>
</g>
<g>
</g>
<g>
</g>
<g>
</g>
</svg>
