<?xml version="1.0" encoding="iso-8859-1"?>
<!-- Generator: Adobe Illustrator 19.0.0, SVG Export Plug-In . SVG Version: 6.00 Build 0)  -->
<svg version="1.1" id="Capa_1" xmlns="http://www.w3.org/2000/svg" xmlns:xlink="http://www.w3.org/1999/xlink" x="0px" y="0px"
	 viewBox="0 0 496 496" style="enable-background:new 0 0 496 496;" xml:space="preserve">
<polygon style="fill:#ECECEC;" points="216,328 8,328 8,8 488,8 488,328 280,328 "/>
<polygon style="fill:#B6C1CE;" points="216,328 8,328 8,304 488,304 488,328 280,328 "/>
<path style="fill:#FB5968;" d="M248,8C159.632,8,88,79.632,88,168c0,77.408,54.968,141.976,128,156.8l64.248-0.048
	C353.152,309.832,408,245.32,408,168C408,79.632,336.368,8,248,8z"/>
<path style="fill:#CD2C5A;" d="M280.248,308.752L216,308.8c-70.32-14.272-123.744-74.704-127.624-148.272
	C88.264,163.024,88,165.48,88,168c0,77.408,54.968,141.976,128,156.8l64.248-0.048C353.152,309.832,408,245.32,408,168
	c0-2.52-0.264-4.976-0.376-7.464C403.744,234.008,350.44,294.384,280.248,308.752z"/>
<path style="fill:#FFEAA7;" d="M248,40c-70.696,0-128,57.304-128,128c0,65.328,48.944,119.232,112.16,127.032h31.68
	C327.056,287.232,376,233.328,376,168C376,97.304,318.696,40,248,40z"/>
<polygon style="fill:#D3A06C;" points="376,328 328,328 408,488 456,488 "/>
<path style="fill:#FEA82F;" d="M224,424l-21.952,35.904c-1.344,2.696-2.048,5.664-2.048,8.68l0,0
	c0,10.72,8.696,19.416,19.416,19.416H220c7.352,0,14.08-4.152,17.368-10.736L248,456l10.632,21.264
	C261.92,483.848,268.648,488,276,488h0.584c10.72,0,19.416-8.696,19.416-19.416l0,0c0-3.016-0.704-5.984-2.048-8.68L272,424H224z"/>
<polygon style="fill:#D3A06C;" points="120,328 40,488 88,488 168,328 "/>
<path style="fill:#FEA82F;" d="M248,264c-52.936,0-96-43.064-96-96s43.064-96,96-96s96,43.064,96,96S300.936,264,248,264z"/>
<path style="fill:#FF8031;" d="M248,240c-48.864,0-89.232-36.72-95.168-84c-0.496,3.944-0.832,7.928-0.832,12
	c0,52.936,43.064,96,96,96s96-43.064,96-96c0-4.072-0.336-8.056-0.832-12C337.232,203.28,296.864,240,248,240z"/>
<path style="fill:#FB5968;" d="M257.312,255.888C256.56,251.336,252.616,248,248,248s-8.56,3.336-9.312,7.888L232,296h32
	L257.312,255.888z"/>
<path style="fill:#ECECEC;" d="M216,312v104c0,8.84,7.16,16,16,16h32c8.84,0,16-7.16,16-16V312c0-8.84-7.16-16-16-16h-32
	C223.16,296,216,303.16,216,312z"/>
<g>
	<rect x="216" y="392" style="fill:#FB5968;" width="64" height="16"/>
	<rect x="216" y="360" style="fill:#FB5968;" width="64" height="16"/>
</g>
<g>
	<polygon style="fill:#B27946;" points="376,328 328,328 340,352 388,352 	"/>
	<polygon style="fill:#B27946;" points="108,352 156,352 168,328 120,328 	"/>
</g>
<path d="M496,0H0v336h107.056l-80,160h65.888l80-160H208v72c0,6.296,2.488,11.984,6.464,16.272l-19.568,32.048
	C193,460.112,192,464.352,192,468.584c0,15.12,12.304,27.416,28,27.416c10.456,0,19.848-5.808,24.52-15.16l3.48-6.952l3.48,6.952
	c4.672,9.352,14.064,15.16,25.104,15.16C291.696,496,304,483.704,304,468.584c0-4.232-1-8.48-3.224-12.856l-19.232-31.464
	c3.968-4.28,6.456-9.968,6.456-16.264v-72h35.056l80,160h65.888l-80-160H496V0z M264,416h-32c-4.408,0-8-3.584-8-8v-56h48v56
	C272,412.416,268.408,416,264,416z M224,336v-24c0-4.416,3.592-8,8-8h6.776l7.8-46.792c0.232-1.408,2.616-1.4,2.848-0.008l7.8,46.8
	H264c4.408,0,8,3.584,8,8v24H224z M270.416,285.8l-2.656-15.96c14.528-2.824,28.4-8.544,40.456-17.136l-9.28-13.032
	c-10.096,7.192-21.696,12.016-33.84,14.424C263.48,245.904,256.392,240,248,240c-8.448,0-15.584,5.984-17.128,14.272
	C189.984,246.248,160,210.416,160,168c0-48.52,39.48-88,88-88s88,39.48,88,88c0,18.32-5.648,35.92-16.328,50.92l13.032,9.28
	C345.328,210.488,352,189.664,352,168c0-57.344-46.656-104-104-104s-104,46.656-104,104c0,50.288,35.664,92.72,84.216,102.032
	l-2.632,15.768C169.464,275.2,128,225.912,128,168c0-66.168,53.832-120,120-120s120,53.832,120,120
	C368,225.912,326.536,275.2,270.416,285.8z M284.088,299.016C342.192,283.064,384,229.888,384,168c0-74.992-61.008-136-136-136
	S112,93.008,112,168c0,61.888,41.808,115.064,99.912,131.016C209.472,302.768,208,307.2,208,312v2.56
	C142.568,296.744,96,236.688,96,168c0-83.816,68.184-152,152-152s152,68.184,152,152c0,68.64-46.584,128.736-112,146.56V312
	C288,307.2,286.528,302.768,284.088,299.016z M16,16h160.912C119.76,42.84,80,100.792,80,168c0,66.024,38.96,124.816,96.672,152H16
	V16z M83.056,480H52.944l72-144h30.112L83.056,480z M288,468.584c0,6.296-5.12,11.416-12,11.416c-4.352,0-8.264-2.424-10.208-6.312
	L248,438.112l-17.792,35.576c-1.944,3.888-5.856,6.312-10.792,6.312C213.12,480,208,474.88,208,468.584
	c0-1.768,0.416-3.528,0.872-4.512l19.816-32.408c1.096,0.152,2.176,0.336,3.312,0.336h32c1.136,0,2.224-0.184,3.312-0.336
	l19.48,31.808C287.584,465.056,288,466.824,288,468.584z M443.056,480h-30.112l-72-144h30.112L443.056,480z M480,320H319.304
	C377.024,292.808,416,233.992,416,168c0-67.208-39.76-125.16-96.912-152H480V320z"/>
<path d="M256,222.864c13.76-3.576,24-15.992,24-30.864c0-17.648-14.352-32-32-32c-8.824,0-16-7.176-16-16s7.176-16,16-16
	s16,7.176,16,16h16c0-14.872-10.24-27.288-24-30.864V96h-16v17.136c-13.76,3.576-24,15.992-24,30.864c0,17.648,14.352,32,32,32
	c8.824,0,16,7.176,16,16s-7.176,16-16,16s-16-7.176-16-16h-16c0,14.872,10.24,27.288,24,30.864V240h8h8V222.864z"/>
<rect x="304" y="160" width="16" height="16"/>
<rect x="176" y="160" width="16" height="16"/>
<g>
</g>
<g>
</g>
<g>
</g>
<g>
</g>
<g>
</g>
<g>
</g>
<g>
</g>
<g>
</g>
<g>
</g>
<g>
</g>
<g>
</g>
<g>
</g>
<g>
</g>
<g>
</g>
<g>
</g>
</svg>
