<?xml version="1.0" encoding="iso-8859-1"?>
<!-- Generator: Adobe Illustrator 19.0.0, SVG Export Plug-In . SVG Version: 6.00 Build 0)  -->
<svg version="1.1" id="Capa_1" xmlns="http://www.w3.org/2000/svg" xmlns:xlink="http://www.w3.org/1999/xlink" x="0px" y="0px"
	 viewBox="0 0 501.208 501.208" style="enable-background:new 0 0 501.208 501.208;" xml:space="preserve">
<path style="fill:#8C95A4;" d="M479.968,453.364c-3.288-11.52-12.744-20.24-24.496-22.584l-60.864-12.176h-48l-60.864,12.176
	c-11.752,2.352-21.2,11.064-24.496,22.584l-10.64,37.24h240L479.968,453.364z"/>
<path style="fill:#F9E0A6;" d="M370.608,442.604L370.608,442.604c-13.256,0-24-10.744-24-24v-16h48v16
	C394.608,431.86,383.864,442.604,370.608,442.604z"/>
<path style="fill:#798699;" d="M455.472,430.78l-60.864-12.176l14.056,9.376c21.736,14.488,36.824,37.016,41.944,62.624l0,0h40
	l-10.64-37.24C476.68,441.844,467.224,433.124,455.472,430.78z"/>
<path style="fill:#FB5968;" d="M239.968,453.364c-3.288-11.52-12.744-20.24-24.496-22.584l-60.864-12.176h-48L45.744,430.78
	c-11.752,2.352-21.2,11.064-24.496,22.584l-10.64,37.24h240L239.968,453.364z"/>
<path style="fill:#CD2C5A;" d="M215.472,430.78l-60.864-12.176l14.056,9.376c21.736,14.488,36.824,37.016,41.944,62.624l0,0h40
	l-10.64-37.24C236.68,441.844,227.224,433.124,215.472,430.78z"/>
<circle style="fill:#D3A06C;" cx="370.608" cy="314.604" r="96"/>
<circle style="fill:#ECECEC;" cx="370.608" cy="314.604" r="64"/>
<path style="fill:#FEA82F;" d="M346.608,130.604v-48h-19.672c-1.416-4.512-3.264-8.832-5.416-12.968l13.944-13.944L301.52,21.748
	l-13.944,13.944c-4.128-2.16-8.448-4-12.968-5.416V10.604h-48v19.672c-4.512,1.416-8.832,3.264-12.968,5.416l-13.944-13.944
	l-33.944,33.944l13.944,13.944c-2.16,4.128-4,8.448-5.416,12.968h-19.672v48h19.672c1.416,4.512,3.264,8.832,5.416,12.968
	l-13.944,13.944l33.944,33.944l13.944-13.944c4.128,2.16,8.448,4,12.968,5.416v19.672h48v-19.672
	c4.512-1.416,8.832-3.264,12.968-5.416l13.944,13.944l33.944-33.944l-13.944-13.944c2.16-4.128,4-8.448,5.416-12.968H346.608z"/>
<circle style="fill:#FCD770;" cx="250.608" cy="106.604" r="48"/>
<path style="fill:#FFC729;" d="M250.608,138.604c-23.776,0-43.464-17.304-47.28-40c-0.44,2.608-0.72,5.272-0.72,8
	c0,26.512,21.488,48,48,48s48-21.488,48-48c0-2.728-0.28-5.392-0.72-8C294.072,121.3,274.384,138.604,250.608,138.604z"/>
<path style="fill:#F9E0A6;" d="M106.608,410.604v12.8c0,10.6,10.744,19.2,24,19.2s24-8.6,24-19.2v-12.8H106.608z"/>
<path style="fill:#B27946;" d="M370.608,394.604c-50.32,0-91.52-38.736-95.6-88c-0.216,2.648-0.4,5.296-0.4,8
	c0,53.016,42.984,96,96,96s96-42.984,96-96c0-2.704-0.184-5.352-0.4-8C462.128,355.868,420.928,394.604,370.608,394.604z"/>
<path style="fill:#D3A06C;" d="M178.608,242.604c-10-14.992-26.824-24-44.848-24c-45.92,0-83.152,37.232-83.152,83.152v36.848h160
	v-55.016C210.608,264.204,197.416,247.308,178.608,242.604z"/>
<path style="fill:#B27946;" d="M178.608,242.604L178.608,242.604c5.296,15.896,8,32.544,8,49.296v46.704h24v-55.016
	C210.608,264.204,197.416,247.308,178.608,242.604z"/>
<g>
	<path style="fill:#F9E0A6;" d="M74.608,362.604L74.608,362.604c-13.256,0-24-10.744-24-24l0,0c0-13.256,10.744-24,24-24l0,0h112
		l0,0c13.256,0,24,10.744,24,24l0,0c0,13.256-10.744,24-24,24l0,0H74.608z"/>
	<path style="fill:#F9E0A6;" d="M74.608,314.604v40c0,30.928,25.072,56,56,56l0,0c30.928,0,56-25.072,56-56v-40l0,0
		c-20.768,0-40.984-6.736-57.6-19.2l-6.4-4.8l-7.032,7.032C104.712,308.5,89.976,314.604,74.608,314.604L74.608,314.604z"/>
</g>
<path style="fill:#EABD8C;" d="M162.608,311.516v3.088v40c0,26.808-18.848,49.184-44,54.68c3.872,0.848,7.88,1.32,12,1.32
	c30.928,0,56-25.072,56-56v-40C178.456,314.604,170.4,313.532,162.608,311.516z"/>
<path d="M490.336,460.548c-5.784-20.256-22.208-35.408-42.856-39.528l-42.28-8.456c40.368-14.304,69.408-52.76,69.408-97.96
	c0-57.344-46.656-104-104-104s-104,46.656-104,104c0,45.2,29.04,83.656,69.408,97.96l-42.272,8.456
	c-20.656,4.128-37.08,19.272-42.864,39.528l-0.272,0.944l-0.272-0.944c-5.784-20.256-22.208-35.408-42.856-39.528l-44.872-8.976
	v-2.104c14.8-8.592,25.824-22.928,30.048-39.952c14.76-2.84,25.952-15.808,25.952-31.384v-36.84c0-50.272-40.888-91.16-91.16-91.16
	c-19.728,0-38.104,9.32-49.752,25.08c-20.808,6.568-35.088,25.84-35.088,47.904v55.016c0,15.576,11.192,28.544,25.952,31.392
	c4.224,17.024,15.248,31.36,30.048,39.952v2.104l-44.864,8.976c-20.656,4.128-37.08,19.272-42.864,39.528L0,498.604h240h21.208h240
	L490.336,460.548z M114.608,416.5c5.128,1.328,10.464,2.104,16,2.104s10.872-0.776,16-2.104v2.104c0,8.824-7.176,16-16,16
	s-16-7.176-16-16V416.5z M194.608,352.38v-27.552c4.76,2.776,8,7.88,8,13.776S199.368,349.604,194.608,352.38z M84.552,250.364
	l3-0.752l1.712-2.568c8.528-12.8,22.808-20.44,38.184-20.44c41.448,0,75.16,33.72,75.16,75.16v9.296
	c-4.728-2.76-10.144-4.456-16-4.456c-18.92,0-37.672-6.248-52.808-17.6l-11.944-8.96L109.92,291.98
	c-9.432,9.432-21.968,14.624-35.312,14.624c-5.856,0-11.272,1.696-16,4.448v-27.464C58.608,267.844,69.272,254.18,84.552,250.364z
	 M58.608,338.604c0-5.896,3.24-11,8-13.776v27.552C61.848,349.604,58.608,344.5,58.608,338.604z M82.608,354.604v-32.536
	c14.584-1.752,28.08-8.232,38.624-18.776l2.128-2.128l0.848,0.632c15.744,11.808,34.808,18.936,54.4,20.48v32.328
	c0,26.472-21.528,48-48,48S82.608,381.076,82.608,354.604z M200.856,482.604l-6.488-25.936l-15.52,3.872l5.512,22.064H76.856
	l5.512-22.064l-15.52-3.872l-6.488,25.936H21.216l5.048-17.664c4.136-14.472,15.864-25.28,30.616-28.232l43.16-8.632
	c4.048,13.032,16.224,22.528,30.568,22.528s26.52-9.496,30.568-22.528l43.168,8.632c14.752,2.952,26.48,13.768,30.616,28.232
	l5.04,17.664H200.856z M354.608,417.244c5.232,0.816,10.544,1.36,16,1.36s10.768-0.552,16-1.36v1.36c0,8.824-7.176,16-16,16
	s-16-7.176-16-16V417.244z M282.608,314.604c0-48.52,39.48-88,88-88s88,39.48,88,88s-39.48,88-88,88
	S282.608,363.124,282.608,314.604z M440.856,482.604l-6.488-25.936l-15.52,3.872l5.512,22.064H316.856l5.512-22.064l-15.52-3.872
	l-6.488,25.936h-39.152l5.048-17.664c4.136-14.472,15.864-25.28,30.616-28.232l43.16-8.632
	c4.056,13.032,16.232,22.528,30.576,22.528s26.52-9.496,30.568-22.528l43.168,8.632c14.752,2.952,26.48,13.768,30.616,28.232
	l5.04,17.664H440.856z"/>
<path d="M442.608,314.604c0-39.704-32.304-72-72-72s-72,32.296-72,72s32.304,72,72,72S442.608,354.308,442.608,314.604z
	 M315.248,322.604h15.36v-16h-15.36c3.528-24.472,22.888-43.832,47.36-47.36v15.36h16v-15.36
	c24.472,3.528,43.832,22.888,47.36,47.36h-15.36v16h15.36c-3.528,24.472-22.888,43.832-47.36,47.36v-15.36h-16v15.36
	C338.136,366.436,318.776,347.076,315.248,322.604z"/>
<polygon points="393.264,334.164 378.608,312.18 378.608,298.604 362.608,298.604 362.608,317.028 379.952,343.044 "/>
<path d="M170.032,141.932l-15.584,15.584l45.256,45.248l15.592-15.584c1.104,0.496,2.208,0.952,3.32,1.392v22.032h64v-22.032
	c1.112-0.44,2.216-0.896,3.32-1.392l15.592,15.584l45.256-45.248L331.2,141.932c0.488-1.112,0.952-2.216,1.392-3.328h22.016v-64
	h-22.024c-0.44-1.112-0.904-2.216-1.392-3.328l15.584-15.584L301.52,10.444l-15.592,15.584c-1.104-0.496-2.208-0.952-3.32-1.392
	V2.604h-64v22.032c-1.112,0.44-2.216,0.896-3.32,1.392l-15.592-15.584L154.44,55.692l15.584,15.584
	c-0.48,1.112-0.944,2.216-1.392,3.328h-22.024v64h22.024C169.08,139.716,169.544,140.82,170.032,141.932z M162.608,90.604h17.536
	l1.76-5.592c1.224-3.888,2.864-7.816,4.88-11.672l2.72-5.2l-12.448-12.448l22.632-22.624l12.44,12.448l5.208-2.72
	c3.872-2.024,7.8-3.664,11.664-4.88l5.608-1.776V18.604h32V36.14l5.6,1.768c3.864,1.216,7.792,2.856,11.664,4.88l5.208,2.72
	l12.44-12.448l22.632,22.624l-12.448,12.448l2.72,5.2c2.016,3.856,3.656,7.784,4.88,11.672l1.768,5.6h17.536v32h-17.536l-1.76,5.592
	c-1.224,3.888-2.864,7.816-4.88,11.672l-2.72,5.2l12.448,12.448l-22.632,22.624l-12.44-12.448l-5.208,2.72
	c-3.872,2.024-7.8,3.664-11.664,4.88l-5.608,1.776v17.536h-32v-17.536l-5.6-1.768c-3.864-1.216-7.792-2.856-11.664-4.88l-5.208-2.72
	l-12.44,12.448l-22.632-22.624l12.448-12.448l-2.72-5.2c-2.016-3.856-3.656-7.784-4.88-11.672l-1.768-5.6h-17.536V90.604z"/>
<path d="M250.608,162.604c30.88,0,56-25.128,56-56s-25.12-56-56-56s-56,25.128-56,56S219.728,162.604,250.608,162.604z
	 M250.608,66.604c22.056,0,40,17.944,40,40s-17.944,40-40,40s-40-17.944-40-40S228.552,66.604,250.608,66.604z"/>
<rect x="370.608" y="98.604" width="16" height="16"/>
<rect x="402.608" y="98.604" width="16" height="16"/>
<rect x="434.608" y="98.604" width="16" height="16"/>
<rect x="50.608" y="98.604" width="16" height="16"/>
<rect x="82.608" y="98.604" width="16" height="16"/>
<rect x="114.608" y="98.604" width="16" height="16"/>
<g>
</g>
<g>
</g>
<g>
</g>
<g>
</g>
<g>
</g>
<g>
</g>
<g>
</g>
<g>
</g>
<g>
</g>
<g>
</g>
<g>
</g>
<g>
</g>
<g>
</g>
<g>
</g>
<g>
</g>
</svg>
