<?xml version="1.0" encoding="iso-8859-1"?>
<!-- Generator: Adobe Illustrator 19.0.0, SVG Export Plug-In . SVG Version: 6.00 Build 0)  -->
<svg version="1.1" id="Capa_1" xmlns="http://www.w3.org/2000/svg" xmlns:xlink="http://www.w3.org/1999/xlink" x="0px" y="0px"
	 viewBox="0 0 496 496" style="enable-background:new 0 0 496 496;" xml:space="preserve">
<rect x="112" y="32" style="fill:#ECECEC;" width="272" height="192"/>
<rect x="112" y="200" style="fill:#B6C1CE;" width="272" height="24"/>
<path style="fill:#FEA82F;" d="M472,184H328c-8.84,0-16,7.16-16,16v16v112h160c8.84,0,16-7.16,16-16V200
	C488,191.16,480.84,184,472,184z"/>
<g>
	<path style="fill:#FF8031;" d="M312,328h160c8.84,0,16-7.16,16-16H312V328z"/>
	<path style="fill:#FF8031;" d="M320,208h-8v112h40v-80C352,222.328,337.672,208,320,208z"/>
</g>
<rect x="112" y="8" style="fill:#FB5968;" width="272" height="64"/>
<path style="fill:#B6C1CE;" d="M184,128H40c-8.84,0-16,7.16-16,16v112c0,8.84,7.16,16,16,16h160v-64v-64
	C200,135.16,192.84,128,184,128z"/>
<path style="fill:#FEA82F;" d="M168,136H24c-8.84,0-16,7.16-16,16v112c0,8.84,7.16,16,16,16h160v-64v-64
	C184,143.16,176.84,136,168,136z"/>
<path style="fill:#FF8031;" d="M24,280h160v-16H8C8,272.84,15.16,280,24,280z"/>
<path style="fill:#8C95A4;" d="M304,216H192c-17.672,0-32,14.328-32,32v208c0,17.672,14.328,32,32,32h112c17.672,0,32-14.328,32-32
	V248C336,230.328,321.672,216,304,216z"/>
<rect x="160" y="264" style="fill:#39C3FC;" width="176" height="160"/>
<rect x="160" y="400" style="fill:#148CE0;" width="176" height="24"/>
<polygon style="fill:#ECECEC;" points="368,296 368,216 448,256 "/>
<rect x="224" y="448" width="48" height="16"/>
<polygon points="294.152,301.128 281.848,290.872 248,331.496 214.152,290.872 201.848,301.128 237.584,344 201.848,386.872 
	214.152,397.128 248,356.504 281.848,397.128 294.152,386.872 258.416,344 "/>
<path d="M472,176h-80V0H104v128H24c-13.232,0-24,10.768-24,24v112c0,13.232,10.768,24,24,24h128v168c0,22.056,17.944,40,40,40h112
	c22.056,0,40-17.944,40-40V336h128c13.232,0,24-10.768,24-24V200C496,186.768,485.232,176,472,176z M376,16v48H120V16H376z M120,80
	h256v96h-48c-13.232,0-24,10.768-24,24v8H192v-56c0-13.232-10.768-24-24-24h-48V80z M168,272h160v144H168V272z M328,256H168v-8
	c0-13.232,10.768-24,24-24h112c13.232,0,24,10.768,24,24V256z M24,272c-4.416,0-8-3.584-8-8V152c0-4.408,3.584-8,8-8h144
	c4.416,0,8,3.592,8,8v59.392c-14.104,6.192-24,20.248-24,36.608v24H24z M304,480H192c-13.232,0-24-10.768-24-24v-24h160v24
	C328,469.232,317.232,480,304,480z M480,312c0,4.416-3.584,8-8,8H344v-72c0-16.36-9.896-30.416-24-36.608V200c0-4.408,3.584-8,8-8
	h144c4.416,0,8,3.592,8,8V312z"/>
<path d="M360,308.944L465.888,256L360,203.056V308.944z M376,228.944L430.112,256L376,283.056V228.944z"/>
<path d="M88,209.472c-2.512-0.896-5.184-1.472-8-1.472c-13.232,0-24,10.768-24,24s10.768,24,24,24s24-10.768,24-24v-56h32v-16H88
	V209.472z M80,240c-4.416,0-8-3.592-8-8s3.584-8,8-8s8,3.592,8,8S84.416,240,80,240z"/>
<rect x="136" y="96" width="224" height="16"/>
<rect x="208" y="128" width="152" height="16"/>
<rect x="208" y="160" width="88" height="16"/>
<path d="M448,352c-13.232,0-24,10.768-24,24c0,10.416,6.712,19.216,16,22.528V432h16v-33.472c9.288-3.312,16-12.112,16-22.528
	C472,362.768,461.232,352,448,352z M448,384c-4.416,0-8-3.584-8-8s3.584-8,8-8s8,3.584,8,8S452.416,384,448,384z"/>
<path d="M384,384c-13.232,0-24,10.768-24,24c0,10.416,6.712,19.216,16,22.528V464h16v-33.472c9.288-3.312,16-12.112,16-22.528
	C408,394.768,397.232,384,384,384z M384,416c-4.416,0-8-3.584-8-8s3.584-8,8-8s8,3.584,8,8S388.416,416,384,416z"/>
<path d="M48,304c-13.232,0-24,10.768-24,24c0,10.416,6.712,19.216,16,22.528V384h16v-33.472c9.288-3.312,16-12.112,16-22.528
	C72,314.768,61.232,304,48,304z M48,336c-4.416,0-8-3.584-8-8s3.584-8,8-8s8,3.584,8,8S52.416,336,48,336z"/>
<path d="M112,336c-13.232,0-24,10.768-24,24c0,10.416,6.712,19.216,16,22.528V416h16v-33.472c9.288-3.312,16-12.112,16-22.528
	C136,346.768,125.232,336,112,336z M112,368c-4.416,0-8-3.584-8-8s3.584-8,8-8s8,3.584,8,8S116.416,368,112,368z"/>
<rect x="40" y="400" width="16" height="16"/>
<rect x="104" y="432" width="16" height="16"/>
<rect x="376" y="480" width="16" height="16"/>
<rect x="440" y="448" width="16" height="16"/>
<rect x="136" y="32" width="16" height="16"/>
<rect x="168" y="32" width="16" height="16"/>
<rect x="200" y="32" width="16" height="16"/>
<g>
</g>
<g>
</g>
<g>
</g>
<g>
</g>
<g>
</g>
<g>
</g>
<g>
</g>
<g>
</g>
<g>
</g>
<g>
</g>
<g>
</g>
<g>
</g>
<g>
</g>
<g>
</g>
<g>
</g>
</svg>
