<?xml version="1.0" encoding="iso-8859-1"?>
<!-- Generator: Adobe Illustrator 19.0.0, SVG Export Plug-In . SVG Version: 6.00 Build 0)  -->
<svg version="1.1" id="Capa_1" xmlns="http://www.w3.org/2000/svg" xmlns:xlink="http://www.w3.org/1999/xlink" x="0px" y="0px"
	 viewBox="0 0 496 496" style="enable-background:new 0 0 496 496;" xml:space="preserve">
<path style="fill:#798699;" d="M216,240c0-41.528,18.664-78.64,48-103.592V136V40c0-17.672-14.328-32-32-32H40
	C22.328,8,8,22.328,8,40v416c0,17.672,14.328,32,32,32h192c17.672,0,32-14.328,32-32V344v-0.408C234.664,318.64,216,281.528,216,240
	z"/>
<path style="fill:#39C3FC;" d="M216,240c0-41.528,18.664-78.64,48-103.592V56H8v368h256v-80.408C234.664,318.64,216,281.528,216,240
	z"/>
<path style="fill:#FB5968;" d="M352,104c-75.112,0-136,60.888-136,136s60.888,136,136,136s136-60.888,136-136S427.112,104,352,104z
	 M278.896,166.896c37.024-37.024,94.448-40.776,134.96-11.248L267.648,301.856C238.12,261.344,241.872,203.92,278.896,166.896z
	 M425.104,313.104c-37.024,37.024-94.448,40.776-134.96,11.248l146.208-146.208C465.88,218.656,462.128,276.08,425.104,313.104z"/>
<path style="fill:#CD2C5A;" d="M352,360c-72.408,0-131.432-56.632-135.6-128c-0.152,2.664-0.4,5.296-0.4,8
	c0,75.112,60.888,136,136,136s136-60.888,136-136c0-2.704-0.248-5.336-0.4-8C483.432,303.368,424.408,360,352,360z"/>
<path d="M352,96c-29.584,0-57.104,8.992-80,24.352V40c0-22.056-17.944-40-40-40H40C17.944,0,0,17.944,0,40v416
	c0,22.056,17.944,40,40,40h192c22.056,0,40-17.944,40-40v-96.352C294.896,375.008,322.416,384,352,384c79.4,0,144-64.6,144-144
	S431.4,96,352,96z M40,16h192c13.232,0,24,10.768,24,24v8H16v-8C16,26.768,26.768,16,40,16z M256,456c0,13.232-10.768,24-24,24H40
	c-13.232,0-24-10.768-24-24v-24h240V456z M256,416H16V64h240v68.976c-5.752,5.16-11.144,10.704-16,16.712V80H32v320h208v-69.688
	c4.856,6.016,10.248,11.552,16,16.72V416z M224,305.664V384H48V96h176v78.328c-10.16,19.72-16,42.008-16,65.672
	S213.84,285.952,224,305.664z M352,368c-70.576,0-128-57.424-128-128s57.424-128,128-128s128,57.424,128,128S422.576,368,352,368z"
	/>
<path d="M168,216c-13.232,0-24,10.768-24,24s10.768,24,24,24s24-10.768,24-24S181.232,216,168,216z M168,248c-4.408,0-8-3.592-8-8
	s3.592-8,8-8s8,3.592,8,8S172.408,248,168,248z"/>
<rect x="104" y="448" width="64" height="16"/>
<path d="M442.816,173.432l-5.504-7.56l-159.44,159.432l7.56,5.512C305.12,345.16,328,352.2,350.832,352.2
	c28.96,0,57.824-11.336,79.936-33.448C470.304,279.216,475.376,218.104,442.816,173.432z M419.448,307.448
	c-31.664,31.664-79.376,37.6-116.712,15.616l132.328-132.32C457.048,228.064,451.104,275.792,419.448,307.448z"/>
<path d="M418.568,149.184c-44.664-32.552-105.784-27.488-145.336,12.056c-39.536,39.544-44.608,100.664-12.056,145.336l5.504,7.56
	l159.44-159.44L418.568,149.184z M268.936,289.256c-21.984-37.328-16.032-85.048,15.616-116.704
	c31.656-31.648,79.384-37.592,116.712-15.616L268.936,289.256z"/>
<path d="M128,240c0-22.056,17.944-40,40-40v-16c-30.88,0-56,25.12-56,56c0,30.872,25.12,56,56,56v-16
	C145.944,280,128,262.056,128,240z"/>
<path d="M96,240c0-39.696,32.304-72,72-72v-16c-48.52,0-88,39.48-88,88s39.48,88,88,88v-16C128.304,312,96,279.704,96,240z"/>
<g>
</g>
<g>
</g>
<g>
</g>
<g>
</g>
<g>
</g>
<g>
</g>
<g>
</g>
<g>
</g>
<g>
</g>
<g>
</g>
<g>
</g>
<g>
</g>
<g>
</g>
<g>
</g>
<g>
</g>
</svg>
