<?xml version="1.0" encoding="iso-8859-1"?>
<!-- Generator: Adobe Illustrator 19.0.0, SVG Export Plug-In . SVG Version: 6.00 Build 0)  -->
<svg version="1.1" id="Capa_1" xmlns="http://www.w3.org/2000/svg" xmlns:xlink="http://www.w3.org/1999/xlink" x="0px" y="0px"
	 viewBox="0 0 496 496" style="enable-background:new 0 0 496 496;" xml:space="preserve">
<path style="fill:#8C95A4;" d="M456,120h-32H72H40c-17.672,0-32,14.328-32,32v256c0,17.672,14.328,32,32,32h416
	c17.672,0,32-14.328,32-32V152C488,134.328,473.672,120,456,120z"/>
<path style="fill:#39C3FC;" d="M456,120h-32H72H40c-17.672,0-32,14.328-32,32v240h480V152C488,134.328,473.672,120,456,120z"/>
<rect x="8" y="360" style="fill:#148CE0;" width="480" height="32"/>
<rect x="72" y="8" style="fill:#B6C1CE;" width="352" height="256"/>
<path style="fill:#AFB8C9;" d="M72,8v16l148.104,133.296C227.76,164.184,237.696,168,248,168c10.304,0,20.24-3.816,27.896-10.704
	L424,24V8H72z"/>
<polygon style="fill:#ECECEC;" points="216,136 280,136 424,264 72,264 "/>
<path style="fill:#B6C1CE;" d="M280,136h-64l-9.84,8.744l13.944,12.552C227.76,164.184,237.696,168,248,168
	c10.304,0,20.24-3.816,27.896-10.704l13.944-12.552L280,136z"/>
<path style="fill:#ECECEC;" d="M248,152L248,152c10.304,0,20.24-3.816,27.896-10.704L424,8H72l148.104,133.296
	C227.76,148.184,237.696,152,248,152z"/>
<path style="fill:#FB5968;" d="M248,192c-57.44,0-104,46.56-104,104s46.56,104,104,104s104-46.56,104-104S305.44,192,248,192z
	 M248,368c-39.768,0-72-32.232-72-72c0-13.344,3.696-25.8,10.024-36.52l98.496,98.496C273.8,364.304,261.344,368,248,368z
	 M309.976,332.52l-98.496-98.496C222.2,227.696,234.656,224,248,224c39.768,0,72,32.232,72,72
	C320,309.344,316.304,321.8,309.976,332.52z"/>
<path style="fill:#CD2C5A;" d="M248,368c-2.488,0-4.944-0.128-7.368-0.376c-48.624-3.416-87.928-40.184-95.28-87.624
	c-0.808,5.232-1.352,10.544-1.352,16c0,57.44,46.56,104,104,104s104-46.56,104-104c0-5.456-0.544-10.768-1.352-16
	C342.928,329.824,299.984,368,248,368z"/>
<rect x="160" y="440" style="fill:#8C95A4;" width="176" height="48"/>
<rect x="160" y="440" style="fill:#798699;" width="176" height="24"/>
<path d="M456,112h-24V0H64v112H40c-22.056,0-40,17.944-40,40v256c0,22.056,17.944,40,40,40h112v32h-32v16h256v-16h-32v-32h112
	c22.056,0,40-17.944,40-40V152C496,129.944,478.056,112,456,112z M344,256.064C328.312,218.488,291.2,192,248,192
	s-80.312,26.488-96,64.064V256H94.096L218.8,152.08c8.824,5.096,18.904,7.92,29.2,7.92c10.344,0,20.472-2.856,29.216-7.904
	L401.904,256H344V256.064z M336,296c0,48.52-39.48,88-88,88s-88-39.48-88-88s39.48-88,88-88S336,247.48,336,296z M290.136,142.032
	L416,26.232V246.92L290.136,142.032z M278.416,131.104C270.488,139.296,259.408,144,248,144s-22.488-4.704-30.752-13.224L92.504,16
	h310.992L278.416,131.104z M205.872,142.024L80,246.92V26.224L205.872,142.024z M40,128h24v144h82.904
	c-1.832,7.72-2.904,15.728-2.904,24c0,37.072,19.552,69.584,48.832,88H16V152C16,138.768,26.768,128,40,128z M328,480H168v-32h160
	V480z M456,432H40c-13.232,0-24-10.768-24-24v-8h432v-16H303.168C332.448,365.584,352,333.072,352,296c0-8.272-1.072-16.28-2.904-24
	H432V128h24c13.232,0,24,10.768,24,24v232h-16v16h16v8C480,421.232,469.232,432,456,432z"/>
<path d="M186.024,259.472C179.472,270.584,176,283.208,176,296c0,39.696,32.296,72,72,72c12.8,0,25.432-3.464,36.528-10.024
	l8.88-5.248L191.272,250.584L186.024,259.472z M195.28,277.224l71.496,71.496C260.76,350.88,254.408,352,248,352
	c-30.872,0-56-25.12-56-56C192,289.6,193.12,283.248,195.28,277.224z"/>
<path d="M248,224c-12.8,0-25.432,3.464-36.528,10.024l-8.88,5.248l102.144,102.152l5.248-8.888C316.528,321.416,320,308.792,320,296
	C320,256.304,287.704,224,248,224z M300.72,314.776l-71.496-71.496C235.24,241.12,241.592,240,248,240c30.872,0,56,25.12,56,56
	C304,302.4,302.88,308.752,300.72,314.776z"/>
<g>
</g>
<g>
</g>
<g>
</g>
<g>
</g>
<g>
</g>
<g>
</g>
<g>
</g>
<g>
</g>
<g>
</g>
<g>
</g>
<g>
</g>
<g>
</g>
<g>
</g>
<g>
</g>
<g>
</g>
</svg>
