<?xml version="1.0" encoding="iso-8859-1"?>
<!-- Generator: Adobe Illustrator 19.0.0, SVG Export Plug-In . SVG Version: 6.00 Build 0)  -->
<svg version="1.1" id="Capa_1" xmlns="http://www.w3.org/2000/svg" xmlns:xlink="http://www.w3.org/1999/xlink" x="0px" y="0px"
	 viewBox="0 0 496 496" style="enable-background:new 0 0 496 496;" xml:space="preserve">
<circle style="fill:#FB5968;" cx="264" cy="264" r="224"/>
<path style="fill:#CD2C5A;" d="M264,472c-121.032,0-219.576-96-223.8-216c-0.088,2.664-0.2,5.32-0.2,8
	c0,123.712,100.288,224,224,224s224-100.288,224-224c0-2.68-0.112-5.336-0.2-8C483.576,376,385.032,472,264,472z"/>
<circle style="fill:#ECECEC;" cx="264" cy="264" r="192"/>
<g>
	<path style="fill:#B6C1CE;" d="M264,440c-103.352,0-187.6-81.672-191.8-184c-0.104,2.656-0.2,5.32-0.2,8
		c0,106.04,85.96,192,192,192s192-85.96,192-192c0-2.68-0.096-5.344-0.2-8C451.6,358.328,367.352,440,264,440z"/>
	<path style="fill:#B6C1CE;" d="M72.712,248H232c4.416,0,8-3.584,8-8V96h-68.96C116.392,126.304,78.128,182.48,72.712,248z"/>
</g>
<rect x="8" y="80" style="fill:#EABD8C;" width="224" height="152"/>
<g>
	<rect x="8" y="208" style="fill:#D3A06C;" width="224" height="24"/>
	<path style="fill:#D3A06C;" d="M96,136H40c-17.672,0-32-14.328-32-32V72c0-8.84,7.16-16,16-16h192c8.84,0,16,7.16,16,16v32
		c0,17.672-14.328,32-32,32h-56H96z"/>
</g>
<path style="fill:#EABD8C;" d="M96,120H40c-17.672,0-32-14.328-32-32V40h224v48c0,17.672-14.328,32-32,32h-56H96z"/>
<path style="fill:#FCD770;" d="M128,152h-16c-8.84,0-16-7.16-16-16V88h48v48C144,144.84,136.84,152,128,152z"/>
<rect x="112" y="104" style="fill:#FFC729;" width="16" height="16"/>
<path d="M264,32h-8v16h8c119.104,0,216,96.896,216,216s-96.896,216-216,216S48,383.104,48,264v-8H32v8c0,127.92,104.072,232,232,232
	s232-104.08,232-232S391.928,32,264,32z"/>
<polygon points="349.656,338.344 272,260.688 272,136 256,136 256,267.312 338.344,349.656 "/>
<path d="M240,88v-8V32h-48v-8c0-13.232-10.768-24-24-24H72C58.768,0,48,10.768,48,24v8H0v48v8v152h240V88z M64,24
	c0-4.416,3.592-8,8-8h96c4.408,0,8,3.584,8,8v8H64V24z M16,48h208v32v8c0,13.232-10.768,24-24,24h-48V80H88v32H40
	c-13.232,0-24-10.768-24-24v-8V48z M136,96v40c0,4.416-3.592,8-8,8h-16c-4.408,0-8-3.584-8-8V96H136z M16,224V119.792
	c6.704,5.08,14.96,8.208,24,8.208h48v8c0,13.232,10.768,24,24,24h16c13.232,0,24-10.768,24-24v-8h48c9.04,0,17.296-3.128,24-8.208
	V224H16z"/>
<path d="M179.048,427.136l11.88-20.576l-13.856-8l-11.864,20.544c-22.616-14.456-41.864-33.704-56.32-56.32l20.544-11.864l-8-13.856
	l-20.576,11.88c-12.136-23.208-19.472-49.288-20.664-76.952H104v-16H64v16h0.2C68.424,378.584,156.4,464,264,464
	c110.28,0,200-89.72,200-200c0-107.6-85.416-195.576-192-199.8V64h-16v40h16V80.2c27.664,1.192,53.744,8.528,76.952,20.664
	l-11.88,20.576l13.856,8l11.864-20.544c22.616,14.456,41.864,33.704,56.32,56.32l-20.544,11.864l8,13.856l20.576-11.88
	c12.136,23.208,19.472,49.288,20.664,76.952H424v16h23.8c-1.192,27.664-8.528,53.744-20.664,76.952l-20.576-11.88l-8,13.856
	l20.544,11.864c-14.456,22.616-33.704,41.864-56.32,56.32l-11.864-20.544l-13.856,8l11.88,20.576
	c-23.208,12.136-49.288,19.472-76.952,20.664V424h-16v23.8C228.336,446.608,202.256,439.272,179.048,427.136z"/>
<g>
</g>
<g>
</g>
<g>
</g>
<g>
</g>
<g>
</g>
<g>
</g>
<g>
</g>
<g>
</g>
<g>
</g>
<g>
</g>
<g>
</g>
<g>
</g>
<g>
</g>
<g>
</g>
<g>
</g>
</svg>
