<?xml version="1.0" encoding="iso-8859-1"?>
<!-- Generator: Adobe Illustrator 19.0.0, SVG Export Plug-In . SVG Version: 6.00 Build 0)  -->
<svg version="1.1" id="Capa_1" xmlns="http://www.w3.org/2000/svg" xmlns:xlink="http://www.w3.org/1999/xlink" x="0px" y="0px"
	 viewBox="0 0 501.208 501.208" style="enable-background:new 0 0 501.208 501.208;" xml:space="preserve">
<path style="fill:#ECECEC;" d="M123.056,220.28l26.088-36.12c23.528-32.576,61.272-51.88,101.464-51.88l0,0
	c40.192,0,77.936,19.304,101.472,51.88l26.08,36.12l24.448,40h-304L123.056,220.28z"/>
<path style="fill:#FEA82F;" d="M239.968,455.04c-3.288-11.52-12.744-20.24-24.496-22.584l-60.864-12.176h-48l-60.864,12.176
	c-11.752,2.352-21.2,11.064-24.496,22.584l-10.64,37.24h240L239.968,455.04z"/>
<path style="fill:#FF8031;" d="M215.472,432.456l-60.864-12.176l14.056,9.376c21.736,14.488,36.824,37.016,41.944,62.624l0,0h40
	l-10.64-37.24C236.68,443.52,227.224,434.8,215.472,432.456z"/>
<path style="fill:#F9E0A6;" d="M106.608,412.28v12.8c0,10.6,10.744,19.2,24,19.2s24-8.6,24-19.2v-12.8H106.608z"/>
<path style="fill:#D3A06C;" d="M479.968,455.04c-3.288-11.52-12.744-20.24-24.496-22.584l-60.864-12.176h-48l-60.864,12.176
	c-11.752,2.352-21.2,11.064-24.496,22.584l-10.64,37.24h240L479.968,455.04z"/>
<path style="fill:#F9E0A6;" d="M346.608,412.28v12.8c0,10.6,10.744,19.2,24,19.2s24-8.6,24-19.2v-12.8H346.608z"/>
<path style="fill:#B27946;" d="M455.472,432.456l-60.864-12.176l14.056,9.376c21.736,14.488,36.824,37.016,41.944,62.624l0,0h40
	l-10.64-37.24C476.68,443.52,467.224,434.8,455.472,432.456z"/>
<path style="fill:#D3A06C;" d="M402.608,260.28l-24.448-40l-23.112-32h-0.44c-17.352,0-17.352,16-34.696,16
	c-17.352,0-17.352-16-34.696-16c-17.336,0-17.336,16-34.672,16c-17.32,0-17.32-16-34.64-16s-17.32,16-34.64,16
	c-17.328,0-17.328-16-34.648-16h-0.448l-23.112,32l-24.448,40H402.608z"/>
<polygon style="fill:#ECECEC;" points="250.608,12.28 362.608,52.28 250.608,84.28 "/>
<path style="fill:#B27946;" d="M250.608,140.28c-4.424,0-8-3.576-8-8v-112c0-4.424,3.576-8,8-8c4.424,0,8,3.576,8,8v112
	C258.608,136.704,255.032,140.28,250.608,140.28z"/>
<path style="fill:#8C95A4;" d="M210.608,340.28v-36.848c0-45.92-37.232-83.152-83.152-83.152l0,0c-18.024,0-34.848,9.008-44.848,24
	l0,0l0,0c-18.808,4.704-32,21.6-32,40.984v55.016H210.608z"/>
<path style="fill:#798699;" d="M127.456,220.28c-3.632,0-7.184,0.456-10.672,1.168c39.568,6.392,69.824,40.608,69.824,81.984v36.848
	h24v-36.848C210.608,257.512,173.376,220.28,127.456,220.28z"/>
<g>
	<path style="fill:#F9E0A6;" d="M178.608,316.28h8c13.256,0,24,10.744,24,24l0,0c0,13.256-10.744,24-24,24h-8V316.28z"/>
	<path style="fill:#F9E0A6;" d="M82.608,316.28h-8c-13.256,0-24,10.744-24,24l0,0c0,13.256,10.744,24,24,24h8V316.28z"/>
	<path style="fill:#F9E0A6;" d="M74.608,316.28v40c0,30.928,25.072,56,56,56l0,0c30.928,0,56-25.072,56-56v-40h-14.056
		c-21.736,0-42.576-8.632-57.944-24l0,0l-12.688,12.688C94.68,312.208,84.856,316.28,74.608,316.28L74.608,316.28z"/>
</g>
<path style="fill:#EABD8C;" d="M172.552,316.28c-0.648,0-1.288-0.08-1.944-0.096v40.096c0,28.208-20.872,51.472-48,55.36
	c2.616,0.376,5.28,0.64,8,0.64c30.928,0,56-25.072,56-56v-40H172.552z"/>
<path style="fill:#8C95A4;" d="M290.608,340.28v-36.848c0-45.92,37.232-83.152,83.152-83.152l0,0c18.024,0,34.848,9.008,44.848,24
	l0,0l0,0c18.808,4.704,32,21.6,32,40.984v55.016H290.608z"/>
<path style="fill:#798699;" d="M418.608,244.28c-10-14.992-26.824-24-44.848-24c-4.672,0-9.224,0.48-13.688,1.224
	c37.76,6.416,66.536,39.192,66.536,78.776v40h24v-55.016C450.608,265.88,437.416,248.984,418.608,244.28z"/>
<g>
	<path style="fill:#F9E0A6;" d="M418.608,316.28h8c13.256,0,24,10.744,24,24l0,0c0,13.256-10.744,24-24,24h-8V316.28z"/>
	<path style="fill:#F9E0A6;" d="M322.608,316.28h-8c-13.256,0-24,10.744-24,24l0,0c0,13.256,10.744,24,24,24h8V316.28z"/>
	<path style="fill:#F9E0A6;" d="M314.608,324.28v32c0,30.928,25.072,56,56,56l0,0c30.928,0,56-25.072,56-56v-54
		c0-9.944-8.056-18-18-18l0,0c-3.896,0-7.688,1.264-10.8,3.6l0,0c-17.656,13.24-39.128,20.4-61.2,20.4h-6
		C321.768,308.28,314.608,315.44,314.608,324.28z"/>
</g>
<path style="fill:#EABD8C;" d="M408.608,284.28c-2.816,0-5.56,0.68-8.048,1.928c5.928,2.944,10.048,9,10.048,16.072v54
	c0,28.208-20.872,51.472-48,55.36c2.616,0.376,5.28,0.64,8,0.64c30.928,0,56-25.072,56-56v-54
	C426.608,292.336,418.552,284.28,408.608,284.28z"/>
<path d="M490.336,462.224c-5.784-20.256-22.208-35.408-42.856-39.528l-44.872-8.976v-2.104c14.8-8.592,25.824-22.928,30.048-39.952
	c14.76-2.84,25.952-15.808,25.952-31.384v-55.016c0-22.064-14.28-41.336-35.088-47.904c-9.848-13.32-24.52-21.968-40.736-24.344
	l-24.216-33.536c-23.4-32.4-60.32-52.552-99.96-54.96V90.304l130.16-37.184L242.608,0.928V124.52
	c-39.64,2.4-76.56,22.56-99.96,54.952l-24.216,33.536c-16.216,2.376-30.888,11.024-40.736,24.344
	c-20.808,6.576-35.088,25.848-35.088,47.912v55.016c0,15.576,11.192,28.544,25.952,31.392c4.224,17.024,15.248,31.36,30.048,39.952
	v2.104l-44.864,8.976c-20.656,4.128-37.08,19.272-42.864,39.528L0,500.28h240h21.208h240L490.336,462.224z M258.608,23.632
	l77.84,27.808l-77.84,22.232V23.632z M354.608,418.176c5.128,1.328,10.464,2.104,16,2.104s10.872-0.776,16-2.104v2.104
	c0,8.824-7.176,16-16,16s-16-7.176-16-16V418.176z M418.608,356.28c0,26.472-21.528,48-48,48s-48-21.528-48-48v-32
	c0-4.416,3.592-8,8-8h6c23.648,0,47.088-7.816,66-22c1.728-1.288,3.856-2,6-2c5.512,0,10,4.488,10,10V356.28z M434.608,354.056
	v-27.552c4.76,2.776,8,7.88,8,13.776S439.368,351.28,434.608,354.056z M411.952,248.72l1.712,2.568l3,0.752
	c15.28,3.816,25.944,17.48,25.944,33.224v27.464c-2.48-1.448-5.152-2.576-8-3.312v-7.136c0-14.336-11.664-26-26-26
	c-5.584,0-11.128,1.84-15.6,5.2c-16.168,12.12-36.192,18.8-56.4,18.8h-6c-7.152,0-13.52,3.208-17.92,8.192
	c-5.12,0.312-9.888,1.808-14.08,4.256v-9.296c0-41.432,33.712-75.152,75.16-75.152C389.144,228.28,403.424,235.92,411.952,248.72z
	 M306.608,354.056c-4.76-2.776-8-7.88-8-13.776s3.24-11,8-13.776V354.056z M250.608,140.28c35.168,0,68.424,16.104,90.568,43.152
	c-3.944,2.04-6.896,4.712-9.336,6.96c-3.984,3.68-6.384,5.888-11.928,5.888s-7.952-2.208-11.92-5.88
	c-4.64-4.272-10.976-10.12-22.776-10.12c-11.792,0-18.136,5.848-22.76,10.12c-3.976,3.672-6.376,5.88-11.92,5.88
	c-5.528,0-7.928-2.208-11.888-5.872c-4.624-4.28-10.96-10.128-22.752-10.128s-18.128,5.848-22.752,10.128
	c-3.96,3.664-6.36,5.872-11.888,5.872s-7.928-2.208-11.896-5.872c-2.44-2.256-5.384-4.92-9.32-6.968
	C182.184,156.384,215.44,140.28,250.608,140.28z M84.552,252.04l3-0.752l1.712-2.568c8.528-12.8,22.808-20.44,38.184-20.44
	c41.448,0,75.16,33.72,75.16,75.16v9.296c-4.728-2.76-10.144-4.456-16-4.456h-14.056c-19.752,0-38.32-7.688-52.288-21.656
	l-5.656-5.656l-18.344,18.344c-5.784,5.784-13.48,8.968-21.656,8.968c-5.856,0-11.272,1.696-16,4.448v-27.464
	C58.608,269.52,69.272,255.856,84.552,252.04z M194.608,326.504c4.76,2.776,8,7.88,8,13.776s-3.24,11-8,13.776V326.504z
	 M58.608,340.28c0-5.896,3.24-11,8-13.776v27.552C61.848,351.28,58.608,346.176,58.608,340.28z M82.608,356.28v-32.72
	c9.408-1.624,18.08-6.048,24.968-12.936l7.28-7.272c16.152,13.544,36.352,20.928,57.696,20.928h6.056v32c0,26.472-21.528,48-48,48
	S82.608,382.752,82.608,356.28z M114.608,418.176c5.128,1.328,10.464,2.104,16,2.104s10.872-0.776,16-2.104v2.104
	c0,8.824-7.176,16-16,16s-16-7.176-16-16V418.176z M200.856,484.28l-6.488-25.936l-15.52,3.872l5.512,22.064H76.856l5.512-22.064
	l-15.52-3.872L60.36,484.28H21.216l5.048-17.664c4.136-14.472,15.864-25.28,30.616-28.232l43.16-8.632
	c4.048,13.032,16.224,22.528,30.568,22.528s26.52-9.496,30.568-22.528l43.168,8.632c14.752,2.952,26.48,13.768,30.616,28.232
	L240,484.28H200.856z M250.88,462.224l-0.272,0.944l-0.272-0.944c-5.784-20.256-22.208-35.408-42.856-39.528l-44.872-8.976v-2.104
	c14.8-8.592,25.824-22.928,30.048-39.952c14.76-2.84,25.952-15.808,25.952-31.384v-36.84c0-46.624-35.2-85.12-80.408-90.464
	l11.784-16.32c3.328,0.76,5.472,2.688,8.52,5.504c4.624,4.272,10.96,10.12,22.752,10.12c11.792,0,18.128-5.848,22.752-10.128
	c3.96-3.664,6.36-5.872,11.888-5.872s7.928,2.208,11.888,5.872c4.632,4.28,10.968,10.128,22.752,10.128
	c11.8,0,18.136-5.848,22.768-10.128c3.968-3.664,6.368-5.872,11.912-5.872s7.952,2.208,11.92,5.88
	c4.632,4.272,10.976,10.12,22.776,10.12s18.144-5.848,22.776-10.12c3.056-2.824,5.216-4.752,8.552-5.512l11.784,16.32
	c-45.216,5.344-80.416,43.848-80.416,90.472v36.84c0,15.576,11.192,28.544,25.952,31.392c4.224,17.024,15.248,31.36,30.048,39.952
	v2.104l-44.864,8.976C273.088,426.816,256.664,441.968,250.88,462.224z M440.856,484.28l-6.488-25.936l-15.52,3.872l5.512,22.064
	H316.856l5.512-22.064l-15.52-3.872l-6.488,25.936h-39.152l5.048-17.664c4.136-14.472,15.864-25.28,30.616-28.232l43.16-8.632
	c4.056,13.032,16.232,22.528,30.576,22.528s26.52-9.496,30.568-22.528l43.168,8.632c14.752,2.952,26.48,13.768,30.616,28.232
	L480,484.28H440.856z"/>
<g>
</g>
<g>
</g>
<g>
</g>
<g>
</g>
<g>
</g>
<g>
</g>
<g>
</g>
<g>
</g>
<g>
</g>
<g>
</g>
<g>
</g>
<g>
</g>
<g>
</g>
<g>
</g>
<g>
</g>
</svg>
