<?xml version="1.0" encoding="iso-8859-1"?>
<!-- Generator: Adobe Illustrator 19.0.0, SVG Export Plug-In . SVG Version: 6.00 Build 0)  -->
<svg version="1.1" id="Capa_1" xmlns="http://www.w3.org/2000/svg" xmlns:xlink="http://www.w3.org/1999/xlink" x="0px" y="0px"
	 viewBox="0 0 496 496" style="enable-background:new 0 0 496 496;" xml:space="preserve">
<path style="fill:#F9E0A6;" d="M136,232v-16h40c13.256,0,24-10.744,24-24l0,0c0-13.256-10.744-24-24-24h-48
	c-17.672,0-32,14.328-32,32v146.336c0,32.888,18.584,62.96,48,77.664l0,0v64h144v-64l0,0c14.992-9.992,24-26.824,24-44.848V376V232
	H136z"/>
<path style="fill:#FFEAA7;" d="M200,192c0-2.824-0.576-5.488-1.472-8c-3.304,9.304-12.096,16-22.528,16h-40v16h40
	C189.256,216,200,205.256,200,192z"/>
<path style="fill:#EABD8C;" d="M136,240v120c0,17.672,14.328,32,32,32h142.424c1.024-4.16,1.576-8.464,1.576-12.848V376V232H136V240
	z"/>
<path style="fill:#8C95A4;" d="M352,88V40c0-17.672-14.328-32-32-32H176c-17.672,0-32,14.328-32,32v128v56v120
	c0,17.672,14.328,32,32,32h144c17.672,0,32-14.328,32-32v-64V88z"/>
<rect x="144" y="56" style="fill:#39C3FC;" width="208" height="256"/>
<rect x="144" y="288" style="fill:#148CE0;" width="208" height="24"/>
<g>
	<path style="fill:#F9E0A6;" d="M360,136h-48c-13.256,0-24-10.744-24-24l0,0c0-13.256,10.744-24,24-24h48c13.256,0,24,10.744,24,24
		l0,0C384,125.256,373.256,136,360,136z"/>
	<path style="fill:#F9E0A6;" d="M360,184h-48c-13.256,0-24-10.744-24-24l0,0c0-13.256,10.744-24,24-24h48c13.256,0,24,10.744,24,24
		l0,0C384,173.256,373.256,184,360,184z"/>
	<path style="fill:#F9E0A6;" d="M360,232h-48c-13.256,0-24-10.744-24-24l0,0c0-13.256,10.744-24,24-24h48c13.256,0,24,10.744,24,24
		l0,0C384,221.256,373.256,232,360,232z"/>
	<path style="fill:#F9E0A6;" d="M360,280h-48c-13.256,0-24-10.744-24-24l0,0c0-13.256,10.744-24,24-24h48c13.256,0,24,10.744,24,24
		l0,0C384,269.256,373.256,280,360,280z"/>
	<path style="fill:#F9E0A6;" d="M176,216h-48v-48h48c13.256,0,24,10.744,24,24l0,0C200,205.256,189.256,216,176,216z"/>
</g>
<g>
	<path style="fill:#EABD8C;" d="M360,232h-48c-13.256,0-24,10.744-24,24h96C384,242.744,373.256,232,360,232z"/>
	<path style="fill:#EABD8C;" d="M360,184h-48c-13.256,0-24,10.744-24,24h96C384,194.744,373.256,184,360,184z"/>
	<path style="fill:#EABD8C;" d="M288,160h96c0-13.256-10.744-24-24-24h-48C298.744,136,288,146.744,288,160z"/>
</g>
<rect x="219.632" y="336" width="56.736" height="16"/>
<path d="M392,112c0-17.648-14.352-32-32-32V40c0-22.056-17.944-40-40-40H176c-22.056,0-40,17.944-40,40v120h-8
	c-22.056,0-40,17.944-40,40v146.336c0,34.472,18.264,65.624,48,82.464V496h160v-67.904c13.824-10.688,22.36-26.68,23.72-44.096H320
	c22.056,0,40-17.944,40-40v-56c17.648,0,32-14.352,32-32c0-9.608-4.336-18.128-11.056-24c6.72-5.872,11.056-14.392,11.056-24
	s-4.336-18.128-11.056-24c6.72-5.872,11.056-14.392,11.056-24s-4.336-18.128-11.056-24C387.664,130.128,392,121.608,392,112z
	 M176,16h144c13.232,0,24,10.768,24,24v8H152v-8C152,26.768,162.768,16,176,16z M283.56,417.344L280,419.72V480H152v-60.944
	l-4.424-2.208C120.696,403.4,104,376.384,104,346.336V200c0-13.232,10.768-24,24-24h48c8.824,0,16,7.176,16,16s-7.176,16-16,16h-40
	v16v8v112c0,22.056,17.944,40,40,40h127.704C302.272,397.496,295,409.72,283.56,417.344z M320,368H176c-13.232,0-24-10.768-24-24
	v-24h192v24C344,357.232,333.232,368,320,368z M344,304H152v-72v-8h16v64h16v-65.136c13.768-3.576,24-15.992,24-30.864
	s-10.232-27.288-24-30.864V112h-16v48h-16V64h192v16h-32c-17.648,0-32,14.352-32,32c0,9.608,4.336,18.128,11.056,24
	c-6.72,5.872-11.056,14.392-11.056,24s4.336,18.128,11.056,24c-6.72,5.872-11.056,14.392-11.056,24s4.336,18.128,11.056,24
	c-6.72,5.872-11.056,14.392-11.056,24c0,17.648,14.352,32,32,32h32V304z M376,256c0,8.824-7.176,16-16,16h-48
	c-8.824,0-16-7.176-16-16s7.176-16,16-16h48C368.824,240,376,247.176,376,256z M376,208c0,8.824-7.176,16-16,16h-48
	c-8.824,0-16-7.176-16-16s7.176-16,16-16h48C368.824,192,376,199.176,376,208z M376,160c0,8.824-7.176,16-16,16h-48
	c-8.824,0-16-7.176-16-16s7.176-16,16-16h48C368.824,144,376,151.176,376,160z M312,128c-8.824,0-16-7.176-16-16s7.176-16,16-16h48
	c8.824,0,16,7.176,16,16s-7.176,16-16,16H312z"/>
<path d="M32,72c0,22.056,17.944,40,40,40V96c-13.232,0-24-10.768-24-24s10.768-24,24-24V32C49.944,32,32,49.944,32,72z"/>
<path d="M0,72c0,39.704,32.296,72,72,72v-16c-30.872,0-56-25.128-56-56s25.128-56,56-56V0C32.296,0,0,32.296,0,72z"/>
<path d="M464,72c0-22.056-17.944-40-40-40v16c13.232,0,24,10.768,24,24s-10.768,24-24,24v16C446.056,112,464,94.056,464,72z"/>
<path d="M424,0v16c30.872,0,56,25.128,56,56s-25.128,56-56,56v16c39.704,0,72-32.296,72-72S463.704,0,424,0z"/>
<rect x="168" y="80" width="16" height="16"/>
<g>
</g>
<g>
</g>
<g>
</g>
<g>
</g>
<g>
</g>
<g>
</g>
<g>
</g>
<g>
</g>
<g>
</g>
<g>
</g>
<g>
</g>
<g>
</g>
<g>
</g>
<g>
</g>
<g>
</g>
</svg>
