<?xml version="1.0" encoding="iso-8859-1"?>
<!-- Generator: Adobe Illustrator 19.0.0, SVG Export Plug-In . SVG Version: 6.00 Build 0)  -->
<svg version="1.1" id="Capa_1" xmlns="http://www.w3.org/2000/svg" xmlns:xlink="http://www.w3.org/1999/xlink" x="0px" y="0px"
	 viewBox="0 0 496 496" style="enable-background:new 0 0 496 496;" xml:space="preserve">
<path style="fill:#FFC729;" d="M392,176v-48h-18.328c-3.32-17.496-10.144-33.736-19.808-47.928l12.928-12.928L332.848,33.2
	L319.92,46.128c-14.184-9.656-30.424-16.48-47.92-19.8V8h-48v18.328c-17.496,3.32-33.736,10.144-47.928,19.808l-12.928-12.928
	L129.2,67.152l12.928,12.928c-9.656,14.192-16.48,30.432-19.808,47.928H104v48h18.328c3.32,17.496,10.144,33.736,19.808,47.928
	l-12.928,12.928l33.944,33.944l12.928-12.928c14.192,9.656,30.432,16.48,47.928,19.808V296h48v-18.328
	c17.496-3.32,33.736-10.144,47.928-19.808l12.928,12.928l33.944-33.944L353.88,223.92c9.656-14.192,16.48-30.432,19.808-47.928H392
	V176z"/>
<g>
	<circle style="fill:#FB5968;" cx="472" cy="256" r="16"/>
	<circle style="fill:#FB5968;" cx="408" cy="312" r="16"/>
	<circle style="fill:#FB5968;" cx="24" cy="448" r="16"/>
	<circle style="fill:#FB5968;" cx="88" cy="392" r="16"/>
</g>
<polygon style="fill:#FCD770;" points="288,496 288,424 328,424 248,328 168,424 208,424 208,496 "/>
<path style="fill:#FEA82F;" d="M248,248c-52.936,0-96-43.064-96-96s43.064-96,96-96s96,43.064,96,96S300.936,248,248,248z"/>
<path style="fill:#FF8031;" d="M248,224c-48.864,0-89.232-36.72-95.168-84c-0.496,3.944-0.832,7.928-0.832,12
	c0,52.936,43.064,96,96,96s96-43.064,96-96c0-4.072-0.336-8.056-0.832-12C337.232,187.28,296.864,224,248,224z"/>
<polygon style="fill:#FFC729;" points="288,496 288,424 328,424 248,328 248,496 "/>
<path d="M400,184v-64h-19.864c-3.312-13.792-8.68-26.808-16.04-38.84l14.016-14.008l-45.256-45.256l-14.008,14.016
	c-12.04-7.36-25.056-12.736-38.848-16.048V0h-64v19.864c-13.792,3.312-26.808,8.68-38.84,16.04l-14.008-14.016l-45.256,45.256
	l14.016,14.008c-7.36,12.032-12.736,25.048-16.04,38.84H96v64h19.864c3.312,13.792,8.68,26.808,16.04,38.84l-14.016,14.008
	l45.256,45.256l14.008-14.016c12.032,7.36,25.048,12.736,38.84,16.04V304h64v-19.864c13.792-3.312,26.808-8.68,38.84-16.04
	l14.008,14.016l45.256-45.256l-14.016-14.008c7.36-12.032,12.736-25.048,16.04-38.84H400V184z M365.816,174.504
	c-3.088,16.248-9.328,31.36-18.56,44.92l-3.728,5.472l11.952,11.952l-22.624,22.624l-11.952-11.952l-5.472,3.728
	c-13.56,9.232-28.672,15.472-44.92,18.56l-6.512,1.24V288h-32v-16.952l-6.504-1.232c-16.248-3.088-31.36-9.328-44.92-18.56
	l-5.472-3.728l-11.952,11.952l-22.624-22.624l11.952-11.952l-3.728-5.472c-9.232-13.56-15.472-28.672-18.56-44.92l-1.24-6.512H112
	v-32h16.952l1.232-6.504c3.088-16.248,9.328-31.36,18.56-44.92l3.728-5.472L140.52,67.152l22.624-22.624l11.952,11.952l5.472-3.728
	c13.56-9.232,28.672-15.472,44.92-18.56l6.512-1.24V16h32v16.952l6.504,1.232c16.248,3.088,31.36,9.328,44.92,18.56l5.472,3.728
	l11.952-11.952l22.624,22.624L343.52,79.096l3.728,5.472c9.232,13.56,15.472,28.672,18.56,44.92l1.24,6.512H384v32h-16.952
	L365.816,174.504z"/>
<path d="M496,256c0-13.232-10.768-24-24-24s-24,10.768-24,24c0,10.416,6.712,19.216,16,22.528V352h16v-73.472
	C489.288,275.216,496,266.416,496,256z M472,264c-4.408,0-8-3.592-8-8s3.592-8,8-8s8,3.592,8,8S476.408,264,472,264z"/>
<path d="M408,288c-13.232,0-24,10.768-24,24c0,10.416,6.712,19.216,16,22.528V400h16v-65.472c9.288-3.312,16-12.112,16-22.528
	C432,298.768,421.232,288,408,288z M408,320c-4.408,0-8-3.592-8-8s3.592-8,8-8s8,3.592,8,8S412.408,320,408,320z"/>
<rect x="464" y="368" width="16" height="64"/>
<path d="M32,425.472V368H16v57.472C6.712,428.784,0,437.584,0,448c0,13.232,10.768,24,24,24s24-10.768,24-24
	C48,437.584,41.288,428.784,32,425.472z M24,456c-4.408,0-8-3.592-8-8s3.592-8,8-8s8,3.592,8,8S28.408,456,24,456z"/>
<path d="M96,369.472V304H80v65.472c-9.288,3.312-16,12.112-16,22.528c0,13.232,10.768,24,24,24s24-10.768,24-24
	C112,381.584,105.288,372.784,96,369.472z M88,400c-4.408,0-8-3.592-8-8s3.592-8,8-8s8,3.592,8,8S92.408,400,88,400z"/>
<rect x="16" y="272" width="16" height="80"/>
<polygon points="150.92,432 200,432 200,464 216,464 216,416 185.08,416 248,340.496 310.92,416 280,416 280,496 296,496 296,432 
	345.08,432 248,315.504 "/>
<path d="M248,112c8.824,0,16,7.176,16,16h16c0-14.864-10.24-27.288-24-30.864V80h-16v17.136c-13.76,3.576-24,16-24,30.864
	c0,17.648,14.352,32,32,32c8.824,0,16,7.176,16,16s-7.176,16-16,16s-16-7.176-16-16h-16c0,14.864,10.24,27.288,24,30.864V224h16
	v-17.136c13.76-3.576,24-16,24-30.864c0-17.648-14.352-32-32-32c-8.824,0-16-7.176-16-16S239.176,112,248,112z"/>
<path d="M248,48c-57.344,0-104,46.656-104,104s46.656,104,104,104c21.664,0,42.48-6.672,60.208-19.296l-9.28-13.032
	C283.928,234.352,266.32,240,248,240c-48.52,0-88-39.48-88-88s39.48-88,88-88s88,39.48,88,88c0,18.32-5.648,35.928-16.328,50.928
	l13.032,9.28C345.328,194.48,352,173.664,352,152C352,94.656,305.344,48,248,48z"/>
<rect x="304" y="144" width="16" height="16"/>
<rect x="176" y="144" width="16" height="16"/>
<rect x="400" y="416" width="16" height="16"/>
<rect x="400" y="448" width="16" height="16"/>
<rect x="200" y="480" width="16" height="16"/>
<rect x="80" y="272" width="16" height="16"/>
<rect x="80" y="240" width="16" height="16"/>
<g>
</g>
<g>
</g>
<g>
</g>
<g>
</g>
<g>
</g>
<g>
</g>
<g>
</g>
<g>
</g>
<g>
</g>
<g>
</g>
<g>
</g>
<g>
</g>
<g>
</g>
<g>
</g>
<g>
</g>
</svg>
