<?xml version="1.0" encoding="iso-8859-1"?>
<!-- Generator: Adobe Illustrator 19.0.0, SVG Export Plug-In . SVG Version: 6.00 Build 0)  -->
<svg version="1.1" id="Capa_1" xmlns="http://www.w3.org/2000/svg" xmlns:xlink="http://www.w3.org/1999/xlink" x="0px" y="0px"
	 viewBox="0 0 496 496" style="enable-background:new 0 0 496 496;" xml:space="preserve">
<path style="fill:#EABD8C;" d="M376,400H56c-17.672,0-32-14.328-32-32V224h352V400z"/>
<g>
	<rect x="24" y="232" style="fill:#D3A06C;" width="304" height="24"/>
	<path style="fill:#D3A06C;" d="M24,352v16c0,17.672,14.328,32,32,32h320v-16H56C38.328,384,24,369.672,24,352z"/>
</g>
<rect x="8" y="72" style="fill:#EABD8C;" width="368" height="160"/>
<rect x="352" y="320" style="fill:#B6C1CE;" width="48" height="32"/>
<path style="fill:#FCD770;" d="M376,488L376,488c-17.672,0-32-14.328-32-32V352h64v104C408,473.672,393.672,488,376,488z"/>
<path style="fill:#FFC729;" d="M384,352v104c0,13.424-8.28,24.872-20,29.624c3.712,1.504,7.752,2.376,12,2.376
	c17.672,0,32-14.328,32-32V352H384z"/>
<circle style="fill:#ECECEC;" cx="376" cy="216" r="112"/>
<circle style="fill:#39C3FC;" cx="376" cy="216" r="88"/>
<path style="fill:#148CE0;" d="M376,272c-43.128,0-78.944-31.048-86.48-72c-0.952,5.192-1.52,10.528-1.52,16c0,48.6,39.4,88,88,88
	s88-39.4,88-88c0-5.472-0.568-10.808-1.52-16C454.944,240.952,419.128,272,376,272z"/>
<path style="fill:#FCD770;" d="M200,264h-16c-8.84,0-16-7.16-16-16v-48h48v48C216,256.84,208.84,264,200,264z"/>
<path style="fill:#798699;" d="M272,8H112C94.328,8,80,22.328,80,40v32h32V40h160v32h32V40C304,22.328,289.672,8,272,8z"/>
<rect x="176" y="216" style="fill:#FFC729;" width="32" height="24"/>
<path d="M288,216c0,48.52,39.48,88,88,88c19.216,0,37.48-6.088,52.808-17.6l-9.608-12.8c-12.536,9.424-27.48,14.4-43.2,14.4
	c-39.696,0-72-32.304-72-72s32.304-72,72-72s72,32.304,72,72c0,18.968-7.312,36.864-20.584,50.4l11.424,11.2
	C455.064,261.056,464,239.176,464,216c0-48.52-39.48-88-88-88S288,167.48,288,216z"/>
<path d="M496,216c0-63.464-49.56-115.448-112-119.592V64h-72V40c0-22.056-17.944-40-40-40H112C89.944,0,72,17.944,72,40v24H0v176h16
	v120c0,22.056,17.944,40,40,40h280v56c0,22.056,17.944,40,40,40s40-17.944,40-40v-88h16v-16h-16v-23
	C462.528,312.472,496,268.128,496,216z M480,216c0,57.344-46.656,104-104,104s-104-46.656-104-104s46.656-104,104-104
	S480,158.656,480,216z M296,40v24h-16V32h-16V16h8C285.232,16,296,26.768,296,40z M136,32V16h112v16H136z M264,48v16H120V48H264z
	 M88,40c0-13.232,10.768-24,24-24h8v16h-16v32H88V40z M16,80h352v16.408C305.56,100.552,256,152.536,256,216
	c0,2.704,0.232,5.344,0.408,8H224v-32h-64v32H16V80z M208,208v40c0,4.408-3.592,8-8,8h-16c-4.408,0-8-3.592-8-8v-40H208z M56,384
	c-13.232,0-24-10.768-24-24V240h128v8c0,13.232,10.768,24,24,24h16c13.232,0,24-10.768,24-24v-8h34.416
	c8.448,41.448,38.384,75.08,77.584,89v23h-16v16h16v16H56z M400,456c0,13.232-10.768,24-24,24s-24-10.768-24-24v-88h48V456z
	 M400,352h-48v-18.416c7.76,1.576,15.784,2.416,24,2.416s16.24-0.84,24-2.416V352z"/>
<g>
</g>
<g>
</g>
<g>
</g>
<g>
</g>
<g>
</g>
<g>
</g>
<g>
</g>
<g>
</g>
<g>
</g>
<g>
</g>
<g>
</g>
<g>
</g>
<g>
</g>
<g>
</g>
<g>
</g>
</svg>
