<?xml version="1.0" encoding="iso-8859-1"?>
<!-- Generator: Adobe Illustrator 19.0.0, SVG Export Plug-In . SVG Version: 6.00 Build 0)  -->
<svg version="1.1" id="Capa_1" xmlns="http://www.w3.org/2000/svg" xmlns:xlink="http://www.w3.org/1999/xlink" x="0px" y="0px"
	 viewBox="0 0 488 488" style="enable-background:new 0 0 488 488;" xml:space="preserve">
<rect x="156" y="384" style="fill:#D3A06C;" width="176" height="96"/>
<rect x="156" y="384" style="fill:#B27946;" width="176" height="40"/>
<polygon style="fill:#FCD770;" points="332,384 372,240 244,128 116,240 156,384 "/>
<polygon style="fill:#FFC729;" points="147.112,352 156,384 332,384 340.888,352 "/>
<circle style="fill:#FF8031;" cx="244" cy="288" r="32"/>
<rect x="236" width="16" height="40"/>
<rect x="156.404" y="15.865" transform="matrix(-0.9239 0.3827 -0.3827 -0.9239 334.6118 29.1725)" width="16" height="64.002"/>
<rect x="43.836" y="128.405" transform="matrix(-0.3827 0.9239 -0.9239 -0.3827 219.869 173.9012)" width="16" height="64.002"/>
<rect x="4" y="232" width="64" height="16"/>
<rect x="19.829" y="311.593" transform="matrix(-0.9238 0.3828 -0.3828 -0.9238 222.051 595.0001)" width="63.998" height="16"/>
<rect x="428.18" y="287.575" transform="matrix(-0.3827 0.9239 -0.9239 -0.3827 898.3511 38.8979)" width="16" height="64.002"/>
<rect x="444" y="232" width="40" height="16"/>
<rect x="404.171" y="152.425" transform="matrix(-0.9239 0.3827 -0.3827 -0.9239 900.533 141.7196)" width="64.002" height="16"/>
<rect x="359.047" y="84.948" transform="matrix(-0.7071 0.7071 -0.7071 -0.7071 733.2828 -117.8402)" width="63.999" height="16"/>
<rect x="291.589" y="39.84" transform="matrix(-0.3828 0.9238 -0.9238 -0.3828 491.6561 -232.7858)" width="63.998" height="16"/>
<path d="M244,117.368l-137.056,119.92L145.472,376H124v16h24v16h-24v16h24v16h-24v16h24v32h192v-32h24v-16h-24v-16h24v-16h-24v-16
	h24v-16h-21.472l38.528-138.704L244,117.368z M244,272c8.824,0,16,7.176,16,16s-7.176,16-16,16s-16-7.176-16-16S235.176,272,244,272
	z M324,408H196v16h128v16h-16v16h16v16H164v-16h128v-16H164v-16h16v-16h-16v-16h160V408z M308,376v-16h-16v16h-96v-16h-16v16h-17.92
	l-37.032-133.296L236,145.632v111.504c-13.768,3.576-24,16-24,30.864c0,17.648,14.352,32,32,32s32-14.352,32-32
	c0-14.864-10.232-27.288-24-30.864V145.632l110.944,97.08L325.92,376H308z"/>
<rect x="412" y="232" width="16" height="16"/>
<rect x="236" y="56" width="16" height="16"/>
<rect x="86.546" y="60.934" transform="matrix(-0.7072 0.707 -0.707 -0.7072 227.1149 91.812)" width="16" height="63.999"/>
<g>
</g>
<g>
</g>
<g>
</g>
<g>
</g>
<g>
</g>
<g>
</g>
<g>
</g>
<g>
</g>
<g>
</g>
<g>
</g>
<g>
</g>
<g>
</g>
<g>
</g>
<g>
</g>
<g>
</g>
</svg>
