<?xml version="1.0" encoding="iso-8859-1"?>
<!-- Generator: Adobe Illustrator 19.0.0, SVG Export Plug-In . SVG Version: 6.00 Build 0)  -->
<svg version="1.1" id="Capa_1" xmlns="http://www.w3.org/2000/svg" xmlns:xlink="http://www.w3.org/1999/xlink" x="0px" y="0px"
	 viewBox="0 0 496.008 496.008" style="enable-background:new 0 0 496.008 496.008;" xml:space="preserve">
<path style="fill:#D3A06C;" d="M461.224,120.3c1.792-5.16,2.776-10.624,2.776-16.296c0-30.928-28.656-56-64-56
	c-6.176,0-12.128,0.8-17.776,2.224C376.08,25.98,354.168,8.004,328,8.004c-15.68,0-29.832,6.464-40,16.848
	c-10.168-10.384-24.32-16.848-40-16.848c-26.28,0-48.264,18.12-54.304,42.536c-5.624-1.616-11.552-2.536-17.696-2.536
	c-35.344,0-64,28.656-64,64c0,3.248,0.32,6.416,0.784,9.536c-12.016,8.088-20.864,20.656-23.696,35.224
	c-6.96,35.856,20.312,67.24,54.912,67.24h88c26.512,0,48,21.488,48,48v8v8v8h48v-8c0-35.344,28.656-64,64-64h37.832
	c28.984,0,54.784-21.072,57.848-49.888C490.088,151.396,478.864,131.132,461.224,120.3z"/>
<rect x="8" y="280.004" style="fill:#798699;" width="96" height="64"/>
<path style="fill:#ECECEC;" d="M56,392.004c26.512,0,48-21.488,48-48H8C8,370.516,29.488,392.004,56,392.004z"/>
<path style="fill:#B6C1CE;" d="M97.528,368.004c4.088-7.064,6.472-15.248,6.472-24H8c0,8.752,2.384,16.936,6.472,24H97.528z"/>
<path d="M470.512,116.956c0.992-4.264,1.488-8.592,1.488-12.952c0-35.288-32.304-64-72-64c-4.232,0-8.4,0.368-12.496,1
	c-9.432-24.312-33.104-41-59.504-41c-14.816,0-28.808,5.016-40.144,14.2c-11.12-8.88-25.04-14.2-39.856-14.2
	c-26.712,0-50.264,16.504-59.664,40.968c-4.104-0.64-8.232-0.968-12.336-0.968c-39.696,0-72,28.712-72,64
	c0,4.296,0.648,8.52,1.6,12.688c-12.368,9.272-21.32,22.944-24.352,38.552c-3.72,19.16,1.144,38.64,13.352,53.448
	c12.216,14.816,30.216,23.312,49.4,23.312h88c22.056,0,40,17.944,40,40v8h16v-8c0-30.88-25.12-56-56-56h-88
	c-14.384,0-27.896-6.376-37.056-17.488s-12.808-25.768-10-40.216c3.64-18.72,18.664-33.728,37.384-37.352
	c16.024-3.096,31.8,1.544,43.256,12.776l11.192-11.432c-15.256-14.952-36.208-21.16-57.496-17.056
	c-3.784,0.728-7.4,1.912-10.92,3.304c-0.152-1.512-0.36-3.016-0.36-4.536c0-26.472,25.12-48,56-48
	c5.264,0,10.584,0.664,15.816,1.992l7.752,1.96l1.96-7.752c5.4-21.312,24.504-36.2,46.472-36.2c21.088,0,40.008,14.096,46.008,34.28
	l15.336-4.56c-2.192-7.368-5.768-14.048-10.248-19.984c8.288-6.288,18.304-9.736,28.904-9.736c19.192,0,36.472,11.744,43.976,29.056
	c-8.056,3.024-15.512,7.328-21.968,12.864l10.416,12.152C371,61.004,385.056,56.004,400,56.004c30.88,0,56,21.528,56,48
	c0,4.624-0.784,9.224-2.328,13.664l-2.112,6.08l5.48,3.368c15.968,9.808,24.664,27.496,22.68,46.152
	c-2.544,23.96-24.464,42.736-49.888,42.736H392c-39.696,0-72,32.304-72,72v168c0,13.232-10.768,24-24,24H88
	c-13.232,0-24-10.768-24-24v-56.64c27.096-3.904,48-27.208,48-55.36v-72H88v-32H72v32H40v-32H24v32H0v72
	c0,28.152,20.904,51.456,48,55.36v56.64c0,22.056,17.944,40,40,40h208c22.056,0,40-17.944,40-40v-168c0-30.88,25.12-56,56-56h37.832
	c33.504,0,62.4-25.056,65.808-57.048C498.048,152.172,488.512,130.476,470.512,116.956z M96,288.004v16H80v16h16v16H16v-16h48v-16
	H16v-16H96z M16.808,352.004h78.384c-3.72,18.232-19.872,32-39.192,32S20.528,370.236,16.808,352.004z"/>
<path d="M464,168.004h-16c0,8.824-7.176,16-16,16v16C449.648,200.004,464,185.652,464,168.004z"/>
<path d="M400,68.004v16c13.232,0,24,8.976,24,20h16C440,84.156,422.056,68.004,400,68.004z"/>
<path d="M112,168.004h16c0-8.824,7.176-16,16-16v-16C126.352,136.004,112,150.356,112,168.004z"/>
<path d="M248,48.004c8.824,0,16,7.176,16,16h16c0-17.648-14.352-32-32-32V48.004z"/>
<path d="M336,104.004v-16c-17.648,0-32,14.352-32,32h16C320,111.18,327.176,104.004,336,104.004z"/>
<path d="M208,104.004c8.824,0,16,7.176,16,16h16c0-17.648-14.352-32-32-32V104.004z"/>
<path d="M376,184.004c0-17.648-14.352-32-32-32v16c8.824,0,16,7.176,16,16H376z"/>
<rect x="272" y="296.004" width="16" height="16"/>
<rect x="272" y="328.004" width="16" height="16"/>
<g>
</g>
<g>
</g>
<g>
</g>
<g>
</g>
<g>
</g>
<g>
</g>
<g>
</g>
<g>
</g>
<g>
</g>
<g>
</g>
<g>
</g>
<g>
</g>
<g>
</g>
<g>
</g>
<g>
</g>
</svg>
