<?xml version="1.0" encoding="iso-8859-1"?>
<!-- Generator: Adobe Illustrator 19.0.0, SVG Export Plug-In . SVG Version: 6.00 Build 0)  -->
<svg version="1.1" id="Capa_1" xmlns="http://www.w3.org/2000/svg" xmlns:xlink="http://www.w3.org/1999/xlink" x="0px" y="0px"
	 viewBox="0 0 497.088 497.088" style="enable-background:new 0 0 497.088 497.088;" xml:space="preserve">
<g>
	<polygon style="fill:#FFEAA7;" points="352.544,361.088 488.544,361.088 488.544,489.088 328.544,489.088 328.544,393.088 
		352.544,377.088 	"/>
	<polygon style="fill:#FFEAA7;" points="144.544,361.088 8.544,361.088 8.544,489.088 168.544,489.088 168.544,393.088 
		144.544,377.088 	"/>
</g>
<g>
	<circle style="fill:#FB5968;" cx="248.544" cy="65.088" r="24"/>
	<circle style="fill:#FB5968;" cx="248.544" cy="193.088" r="24"/>
	<circle style="fill:#FB5968;" cx="144.544" cy="249.088" r="24"/>
	<circle style="fill:#FB5968;" cx="352.544" cy="249.088" r="24"/>
</g>
<polygon points="80.544,97.088 64.544,97.088 64.544,178.76 100.744,198.256 108.344,184.168 80.544,169.2 "/>
<rect x="164.549" y="37.765" transform="matrix(-0.4741 0.8805 -0.8805 -0.4741 307.6057 -62.7703)" width="16" height="45.433"/>
<polygon points="416.544,129.088 432.544,129.088 432.544,79.424 364.344,42.688 356.744,56.784 416.544,88.984 "/>
<rect x="382.236" y="178.301" transform="matrix(-0.8808 0.4736 -0.4736 -0.8808 843.6753 160.1644)" width="38.874" height="16.001"/>
<rect x="269.347" y="365.097" transform="matrix(-0.8693 0.4942 -0.4942 -0.8693 733.2772 552.3268)" width="48.558" height="15.999"/>
<rect x="195.479" y="348.842" transform="matrix(-0.4943 0.8693 -0.8693 -0.4943 628.4099 380.672)" width="16" height="48.56"/>
<rect x="32.544" y="385.088" width="80" height="16"/>
<rect x="32.544" y="417.088" width="112" height="16"/>
<path d="M360.544,353.088v-73.136c13.768-3.576,24-15.992,24-30.864c0-2.632-0.408-5.144-1.008-7.592l81.008-43.624V60.304
	L352.544,0l-80.608,43.408c-5.848-6.304-14.128-10.32-23.392-10.32S231,37.104,225.152,43.408L144.544,0l-112,60.304v137.56
	l81.008,43.624c-0.6,2.456-1.008,4.968-1.008,7.6c0,14.872,10.232,27.288,24,30.864v73.136h-136v144h176v-93.68l72,38.768l72-38.768
	v93.68h176v-144H360.544z M352.544,265.088c-8.824,0-16-7.176-16-16c0-8.824,7.176-16,16-16s16,7.176,16,16
	C368.544,257.912,361.368,265.088,352.544,265.088z M248.544,49.088c8.824,0,16,7.176,16,16s-7.176,16-16,16s-16-7.176-16-16
	S239.72,49.088,248.544,49.088z M48.544,188.304V69.872l96-51.696l73.008,39.312c-0.6,2.448-1.008,4.968-1.008,7.6
	c0,14.872,10.232,27.288,24,30.864v49.136h16V95.952c13.768-3.576,24-15.992,24-30.864c0-2.632-0.408-5.152-1.008-7.6l73.008-39.312
	l96,51.696v118.44l-72.608,39.096c-5.848-6.304-14.136-10.32-23.392-10.32S335,221.096,329.152,227.4l-49.624-26.712
	c0.608-2.448,1.016-4.968,1.016-7.6c0-17.648-14.352-32-32-32s-32,14.352-32,32c0,2.632,0.408,5.152,1.016,7.6l-49.616,26.72
	c-5.856-6.304-14.136-10.32-23.4-10.32c-9.256,0-17.544,4.016-23.392,10.32L48.544,188.304z M264.544,193.088
	c0,8.824-7.176,16-16,16s-16-7.176-16-16s7.176-16,16-16S264.544,184.264,264.544,193.088z M128.544,249.088c0-8.824,7.176-16,16-16
	s16,7.176,16,16c0,8.824-7.176,16-16,16S128.544,257.912,128.544,249.088z M160.544,481.088h-144v-112h120v12.784l24,12.92V481.088z
	 M152.544,372.304v-92.352c13.768-3.576,24-15.992,24-30.864c0-2.632-0.408-5.152-1.008-7.6l49.624-26.72
	c5.84,6.312,14.128,10.32,23.384,10.32c9.256,0,17.544-4.008,23.392-10.312l49.624,26.712c-0.608,2.448-1.016,4.968-1.016,7.6
	c0,14.872,10.232,27.288,24,30.864v92.352l-96,51.696L152.544,372.304z M480.544,481.088h-144v-86.296l24-12.92v-12.784h120V481.088
	z"/>
<rect x="384.544" y="385.088" width="80" height="16"/>
<rect x="352.544" y="417.088" width="112" height="16"/>
<rect x="432.544" y="449.088" width="16" height="16"/>
<rect x="400.544" y="449.088" width="16" height="16"/>
<rect x="368.544" y="449.088" width="16" height="16"/>
<rect x="48.544" y="449.088" width="16" height="16"/>
<rect x="80.544" y="449.088" width="16" height="16"/>
<rect x="112.544" y="449.088" width="16" height="16"/>
<g>
</g>
<g>
</g>
<g>
</g>
<g>
</g>
<g>
</g>
<g>
</g>
<g>
</g>
<g>
</g>
<g>
</g>
<g>
</g>
<g>
</g>
<g>
</g>
<g>
</g>
<g>
</g>
<g>
</g>
</svg>
