<?xml version="1.0" encoding="iso-8859-1"?>
<!-- Generator: Adobe Illustrator 19.0.0, SVG Export Plug-In . SVG Version: 6.00 Build 0)  -->
<svg version="1.1" id="Capa_1" xmlns="http://www.w3.org/2000/svg" xmlns:xlink="http://www.w3.org/1999/xlink" x="0px" y="0px"
	 viewBox="0 0 496 496" style="enable-background:new 0 0 496 496;" xml:space="preserve">
<path style="fill:#8C95A4;" d="M456,120h-32H72H40c-17.672,0-32,14.328-32,32v256c0,17.672,14.328,32,32,32h416
	c17.672,0,32-14.328,32-32V152C488,134.328,473.672,120,456,120z"/>
<path style="fill:#39C3FC;" d="M456,120h-32H72H40c-17.672,0-32,14.328-32,32v240h480V152C488,134.328,473.672,120,456,120z"/>
<rect x="160" y="440" style="fill:#8C95A4;" width="176" height="48"/>
<rect x="160" y="440" style="fill:#798699;" width="176" height="24"/>
<polygon style="fill:#148CE0;" points="432,291.432 432,360 64,360 64,120 432,120 432,245.712 "/>
<polygon style="fill:#ECECEC;" points="424,248 424,344 72,344 72,8 424,8 424,184 "/>
<circle style="fill:#FEA82F;" cx="184" cy="136" r="80"/>
<path style="fill:#FF8031;" d="M184,200c-41.48,0-75.584-31.576-79.6-72c-0.256,2.632-0.4,5.296-0.4,8c0,44.184,35.816,80,80,80
	s80-35.816,80-80c0-2.704-0.144-5.368-0.4-8C259.584,168.424,225.48,200,184,200z"/>
<g>
	<circle style="fill:#FFC729;" cx="128" cy="296" r="16"/>
	<circle style="fill:#FFC729;" cx="208" cy="296" r="16"/>
	<circle style="fill:#FFC729;" cx="288" cy="296" r="16"/>
	<circle style="fill:#FFC729;" cx="368" cy="296" r="16"/>
</g>
<path style="fill:#8C95A4;" d="M392,248H216l-40.848-20.424C170.768,225.384,168,220.904,168,216l0,0
	c0-4.904,2.768-9.384,7.152-11.576L216,184h176V248z"/>
<path style="fill:#ECECEC;" d="M424,248h-32v-64h32c17.672,0,32,14.328,32,32l0,0C456,233.672,441.672,248,424,248z"/>
<rect x="216" y="184" style="fill:#FCD770;" width="176" height="64"/>
<rect x="216" y="216" style="fill:#FFC729;" width="176" height="32"/>
<rect x="8" y="368" style="fill:#148CE0;" width="480" height="24"/>
<path d="M456,112h-24V0H64v112H40c-22.056,0-40,17.944-40,40v256c0,22.056,17.944,40,40,40h112v32h-32v16h256v-16h-32v-32h112
	c22.056,0,40-17.944,40-40V152C496,129.944,478.056,112,456,112z M424,240h-24v-48h24c13.232,0,24,10.768,24,24S437.232,240,424,240
	z M163.16,204.92C133.152,195.864,112,167.872,112,136c0-39.704,32.296-72,72-72c16.92,0,32.472,5.904,44.776,15.712l-54.832,84.744
	L148.8,145.6l-9.6,12.8l38.856,29.152l62.28-96.248C250.112,103.592,256,119.112,256,136c0,14.424-4.232,28.152-12.184,40h-29.704
	l-42.536,21.264C168.032,199.04,165.16,201.712,163.16,204.92z M384,208H224v-16h160V208z M178.736,211.576L208,196.944v38.112
	l-29.256-14.632C177.048,219.576,176,217.88,176,216S177.048,212.424,178.736,211.576z M224,224h160v16H224V224z M80,16h336v160
	H262.384c6.304-12.296,9.616-25.888,9.616-40c0-22.56-8.608-43.096-22.616-58.688l21.336-32.968l-13.44-8.688l-19.808,30.616
	C222.632,54.864,204.12,48,184,48c-48.52,0-88,39.48-88,88c0,39.696,26.872,74.424,64.672,84.808
	c1.4,5.96,5.248,11.088,10.912,13.928L214.112,256H416v80H80V16z M328,480H168v-32h160V480z M456,432H40c-13.232,0-24-10.768-24-24
	v-8h432v-16H16V152c0-13.232,10.768-24,24-24h24v224h368v-96.808c18.232-3.72,32-19.872,32-39.192s-13.768-35.472-32-39.192V128h24
	c13.232,0,24,10.768,24,24v232h-16v16h16v8C480,421.232,469.232,432,456,432z"/>
<path d="M128,272c-13.232,0-24,10.768-24,24s10.768,24,24,24s24-10.768,24-24S141.232,272,128,272z M128,304c-4.416,0-8-3.584-8-8
	s3.584-8,8-8s8,3.584,8,8S132.416,304,128,304z"/>
<path d="M208,272c-13.232,0-24,10.768-24,24s10.768,24,24,24s24-10.768,24-24S221.232,272,208,272z M208,304c-4.416,0-8-3.584-8-8
	s3.584-8,8-8s8,3.584,8,8S212.416,304,208,304z"/>
<path d="M288,272c-13.232,0-24,10.768-24,24s10.768,24,24,24s24-10.768,24-24S301.232,272,288,272z M288,304c-4.416,0-8-3.584-8-8
	s3.584-8,8-8s8,3.584,8,8S292.416,304,288,304z"/>
<path d="M368,272c-13.232,0-24,10.768-24,24s10.768,24,24,24s24-10.768,24-24S381.232,272,368,272z M368,304c-4.416,0-8-3.584-8-8
	s3.584-8,8-8s8,3.584,8,8S372.416,304,368,304z"/>
<g>
</g>
<g>
</g>
<g>
</g>
<g>
</g>
<g>
</g>
<g>
</g>
<g>
</g>
<g>
</g>
<g>
</g>
<g>
</g>
<g>
</g>
<g>
</g>
<g>
</g>
<g>
</g>
<g>
</g>
</svg>
