<?xml version="1.0" encoding="iso-8859-1"?>
<!-- Generator: Adobe Illustrator 19.0.0, SVG Export Plug-In . SVG Version: 6.00 Build 0)  -->
<svg version="1.1" id="Capa_1" xmlns="http://www.w3.org/2000/svg" xmlns:xlink="http://www.w3.org/1999/xlink" x="0px" y="0px"
	 viewBox="0 0 496 496" style="enable-background:new 0 0 496 496;" xml:space="preserve">
<path style="fill:#EABD8C;" d="M40,344h416c17.672,0,32-14.328,32-32V88c0-17.672-14.328-32-32-32H40C22.328,56,8,70.328,8,88v224
	C8,329.672,22.328,344,40,344z"/>
<path style="fill:#FFFFFF;" d="M303.936,312H48c-4.416,0-8-3.584-8-8V96c0-4.416,3.584-8,8-8h400c4.416,0,8,3.584,8,8v200.408
	c0,4.256-3.328,7.768-7.576,7.992L303.936,312z"/>
<path style="fill:#B6C1CE;" d="M64,56V40c0-8.84,7.16-16,16-16h208c8.84,0,16,7.16,16,16v16H64z"/>
<path style="fill:#FEA82F;" d="M416,56V24c0-8.84-7.16-16-16-16h-32c-8.84,0-16,7.16-16,16v32H416z"/>
<polygon style="fill:#8C95A4;" points="144,344 136,376 56,376 48,344 "/>
<circle style="fill:#FCD770;" cx="384" cy="384" r="104"/>
<path style="fill:#FFC729;" d="M384,456c-51.984,0-94.928-38.176-102.648-88c-0.808,5.232-1.352,10.544-1.352,16
	c0,57.44,46.56,104,104,104s104-46.56,104-104c0-5.456-0.544-10.768-1.352-16C478.928,417.824,435.984,456,384,456z"/>
<path style="fill:#ECECEC;" d="M448,88H48c-4.416,0-8,3.584-8,8v16h416V96C456,91.584,452.416,88,448,88z"/>
<rect x="64" y="40" style="fill:#AFB8C9;" width="240" height="16"/>
<rect x="352" y="40" style="fill:#FF8031;" width="64" height="16"/>
<polygon style="fill:#798699;" points="52,360 140,360 144,344 48,344 "/>
<path d="M496,88c0-22.056-17.944-40-40-40h-32V24c0-13.232-10.768-24-24-24h-32c-13.232,0-24,10.768-24,24v24h-32v-8
	c0-13.232-10.768-24-24-24H80c-13.232,0-24,10.768-24,24v8H40C17.944,48,0,65.944,0,88v224c0,22.056,17.944,40,40,40h1.76l7.992,32
	h92.496l7.992-32h126.48c-3.04,10.152-4.72,20.88-4.72,32c0,61.76,50.24,112,112,112s112-50.24,112-112
	c0-16.304-3.584-31.76-9.872-45.744C492.432,331.008,496,321.712,496,312V88z M360,24c0-4.416,3.584-8,8-8h32c4.416,0,8,3.584,8,8
	v24h-48V24z M129.752,368H62.248l-4.008-16h75.512L129.752,368z M384,480c-52.936,0-96-43.064-96-96s43.064-96,96-96
	s96,43.064,96,96S436.936,480,384,480z M448,240H48V96h400V240z M48,256h400v36.216C429.84,279.512,407.792,272,384,272
	c-30.432,0-58.032,12.24-78.232,32H48V256z M464,305.768V96c0-8.824-7.176-16-16-16H48c-8.824,0-16,7.176-16,16v208
	c0,8.824,7.176,16,16,16h244.216c-3.528,5.04-6.584,10.4-9.256,16H40c-13.232,0-24-10.768-24-24V88c0-13.232,10.768-24,24-24h48V48
	H72v-8c0-4.416,3.584-8,8-8h208c4.416,0,8,3.584,8,8v8H104v16h352c13.232,0,24,10.768,24,24v224c0,3.688-0.912,7.256-2.496,10.504
	C473.536,316.496,469.016,310.896,464,305.768z"/>
<path d="M104,224h16c13.232,0,24-10.768,24-24v-64c0-13.232-10.768-24-24-24h-16c-13.232,0-24,10.768-24,24v64
	C80,213.232,90.768,224,104,224z M96,136c0-4.416,3.584-8,8-8h16c4.416,0,8,3.584,8,8v64c0,4.416-3.584,8-8,8h-16
	c-4.416,0-8-3.584-8-8V136z"/>
<path d="M296,224h16c13.232,0,24-10.768,24-24v-64c0-13.232-10.768-24-24-24h-16c-13.232,0-24,10.768-24,24v64
	C272,213.232,282.768,224,296,224z M288,136c0-4.416,3.584-8,8-8h16c4.416,0,8,3.584,8,8v64c0,4.416-3.584,8-8,8h-16
	c-4.416,0-8-3.584-8-8V136z"/>
<path d="M376,224h16c13.232,0,24-10.768,24-24v-64c0-13.232-10.768-24-24-24h-16c-13.232,0-24,10.768-24,24v64
	C352,213.232,362.768,224,376,224z M368,136c0-4.416,3.584-8,8-8h16c4.416,0,8,3.584,8,8v64c0,4.416-3.584,8-8,8h-16
	c-4.416,0-8-3.584-8-8V136z"/>
<polygon points="176,128 208,128 208,134.464 176.568,213.032 191.432,218.968 224,137.536 224,112 160,112 160,144 176,144 "/>
<polygon points="418.344,338.344 384,372.688 349.656,338.344 338.344,349.656 372.688,384 338.344,418.344 349.656,429.656 
	384,395.312 418.344,429.656 429.656,418.344 395.312,384 429.656,349.656 "/>
<rect x="240" y="128" width="16" height="16"/>
<rect x="240" y="192" width="16" height="16"/>
<rect x="64" y="272" width="16" height="16"/>
<rect x="96" y="272" width="16" height="16"/>
<rect x="128" y="272" width="16" height="16"/>
<g>
</g>
<g>
</g>
<g>
</g>
<g>
</g>
<g>
</g>
<g>
</g>
<g>
</g>
<g>
</g>
<g>
</g>
<g>
</g>
<g>
</g>
<g>
</g>
<g>
</g>
<g>
</g>
<g>
</g>
</svg>
