<?xml version="1.0" encoding="iso-8859-1"?>
<!-- Generator: Adobe Illustrator 19.0.0, SVG Export Plug-In . SVG Version: 6.00 Build 0)  -->
<svg version="1.1" id="Capa_1" xmlns="http://www.w3.org/2000/svg" xmlns:xlink="http://www.w3.org/1999/xlink" x="0px" y="0px"
	 viewBox="0 0 499.352 499.352" style="enable-background:new 0 0 499.352 499.352;" xml:space="preserve">
<path style="fill:#ECECEC;" d="M299.352,393.676c0-8.352,1.176-16.4,3.176-24.128l-51.176-7.872h-96l-56.864,8.752
	c-29.04,4.464-53.296,24.496-63.176,52.16l-23.96,67.088h192h192C342.336,489.676,299.352,446.692,299.352,393.676z"/>
<polygon style="fill:#FB5968;" points="243.352,401.676 163.352,401.676 186.688,441.676 179.352,489.676 227.352,489.676 
	220.016,441.676 "/>
<polygon style="fill:#CD2C5A;" points="203.352,417.676 227.096,429.548 243.352,401.676 163.352,401.676 179.608,429.548 "/>
<polygon style="fill:#F9E0A6;" points="155.352,353.676 155.352,371.676 203.352,401.676 251.352,371.676 251.352,353.676 "/>
<path style="fill:#D3A06C;" d="M67.352,249.676v-72.912c0-74.608,60.48-135.088,135.088-135.088l0,0
	c31.6,0,62.208,11.08,86.48,31.312l10.432,8.688l0,0c5.792,1.16,11.176,3.296,16,6.216l24,49.784v112H67.352z"/>
<path style="fill:#B27946;" d="M315.352,87.892c-4.824-2.92-10.208-5.056-16-6.216l-10.424-8.688
	c-24.28-20.232-54.88-31.312-86.488-31.312c-5.256,0-10.416,0.376-15.512,0.96c67.76,7.736,120.424,65.208,120.424,135.04v72h32
	v-112L315.352,87.892z"/>
<path style="fill:#ECECEC;" d="M315.352,25.676v96c0,8.84,7.16,16,16,16h56v48l56-48h32c8.84,0,16-7.16,16-16v-96
	c0-8.84-7.16-16-16-16h-144C322.512,9.676,315.352,16.836,315.352,25.676z"/>
<g>
	<path style="fill:#F9E0A6;" d="M299.352,281.676h8c17.672,0,32-14.328,32-32l0,0c0-17.672-14.328-32-32-32h-8V281.676z"/>
	<path style="fill:#F9E0A6;" d="M307.352,177.676v72c0,57.44-46.56,104-104,104l0,0c-57.44,0-104-46.56-104-104v-72l0,0
		c36.512,0,72.216-10.808,102.592-31.064l1.408-0.936l1.408,0.936C235.136,166.868,270.84,177.676,307.352,177.676L307.352,177.676z
		"/>
</g>
<path style="fill:#EABD8C;" d="M283.352,176.02v1.656v72c0,53.376-40.224,97.296-92,103.256c3.944,0.456,7.936,0.744,12,0.744
	c57.44,0,104-46.56,104-104v-72C299.288,177.676,291.288,177.06,283.352,176.02z"/>
<polygon style="fill:#B6C1CE;" points="267.352,433.676 267.352,364.14 251.352,361.676 203.352,401.676 "/>
<path style="fill:#FB5968;" d="M395.352,297.676c-53.016,0-96,42.984-96,96s42.984,96,96,96s96-42.984,96-96
	S448.368,297.676,395.352,297.676z M395.352,457.676c-35.344,0-64-28.656-64-64c0-11.864,3.288-22.936,8.912-32.464l87.552,87.552
	C418.288,454.388,407.216,457.676,395.352,457.676z M450.44,426.14l-87.552-87.552c9.528-5.624,20.6-8.912,32.464-8.912
	c35.344,0,64,28.656,64,64C459.352,405.54,456.064,416.612,450.44,426.14z"/>
<path style="fill:#CD2C5A;" d="M395.352,473.676c-50.32,0-91.52-38.736-95.6-88c-0.216,2.648-0.4,5.296-0.4,8
	c0,53.016,42.984,96,96,96s96-42.984,96-96c0-2.704-0.184-5.352-0.4-8C486.872,434.94,445.672,473.676,395.352,473.676z"/>
<path style="fill:#F9E0A6;" d="M107.352,281.676h-8c-17.672,0-32-14.328-32-32l0,0c0-17.672,14.328-32,32-32h8V281.676z"/>
<polygon style="fill:#B6C1CE;" points="139.352,433.676 139.352,364.14 155.352,361.676 203.352,401.676 "/>
<rect x="339.352" y="33.676" width="128" height="16"/>
<rect x="339.352" y="65.676" width="128" height="16"/>
<path d="M446.312,145.676h29.04c13.232,0,24-10.768,24-24v-96c0-13.232-10.768-24-24-24h-144c-13.232,0-24,10.768-24,24v50.008
	c-1.464-0.472-2.88-1.048-4.384-1.408l-8.92-7.432c-25.664-21.392-58.192-33.168-91.6-33.168
	c-78.904,0-143.096,64.192-143.096,143.088v72.912c0,21.88,17.68,39.672,39.496,39.952c9.224,24.048,26.472,44.104,48.504,56.896
	v8.288l-50.088,7.704c-31.976,4.92-58.6,26.904-69.488,57.384L0,497.676h395.352c57.344,0,104-46.656,104-104s-46.656-104-104-104
	c-45.768,0-84.64,29.752-98.504,70.904l-37.496-5.768v-8.288c22.032-12.792,39.28-32.848,48.504-56.896
	c21.816-0.28,39.496-18.072,39.496-39.952v-104h32v57.392L446.312,145.676z M75.352,249.676c0-10.416,6.712-19.216,16-22.528v22.528
	c0,7.992,0.872,15.776,2.472,23.296C83.256,270.46,75.352,261.004,75.352,249.676z M253.704,370.132l5.648,0.872v49.728
	l-41.48-20.736L253.704,370.132z M194.128,449.676h18.44l5.336,32h-29.112L194.128,449.676z M215.072,433.676H191.64l-8.6-12.896
	l20.312-10.16l20.312,10.16L215.072,433.676z M147.352,420.732v-49.728l5.648-0.872l35.832,29.864L147.352,420.732z M42.848,425.276
	c8.904-24.928,30.696-42.92,56.856-46.944l31.648-4.872v73.16l37.264-18.632l10.328,15.488l-6.368,38.2H92.792l6.448-38.688
	l-15.784-2.624l-6.88,41.312H22.704L42.848,425.276z M395.352,305.676c48.52,0,88,39.48,88,88s-39.48,88-88,88s-88-39.48-88-88
	S346.832,305.676,395.352,305.676z M340.184,481.676H234.128l-6.36-38.192l10.328-15.488l37.256,18.624v-73.16l17.592,2.704
	c-0.976,5.712-1.592,11.536-1.592,17.512C291.352,430.74,310.912,463.252,340.184,481.676z M243.352,357.924l-40,33.328l-40-33.328
	v-3.76c12.44,4.784,25.896,7.512,40,7.512s27.56-2.728,40-7.512V357.924z M299.352,249.676c0,52.936-43.064,96-96,96
	s-96-43.064-96-96v-64.168c34.168-1.4,67.136-11.784,96-30.264c28.864,18.48,61.832,28.856,96,30.264V249.676z M312.88,272.972
	c1.6-7.52,2.472-15.304,2.472-23.296v-22.528c9.288,3.312,16,12.112,16,22.528C331.352,261.004,323.448,270.46,312.88,272.972z
	 M331.352,217.884c-4.672-3.536-10.056-6.184-16-7.392v-40.816h-8c-35.048,0-68.992-10.28-98.16-29.72l-5.84-3.896l-5.84,3.896
	c-29.168,19.44-63.112,29.72-98.16,29.72h-8v40.808c-5.944,1.216-11.328,3.856-16,7.392v-41.112
	c0-70.08,57.016-127.088,127.096-127.088c29.672,0,58.56,10.464,81.36,29.464l11.984,9.984l1.992,0.4
	c3.352,0.672,6.512,1.872,9.568,3.312v28.84c0,13.232,10.768,24,24,24V217.884z M331.352,129.676c-4.416,0-8-3.592-8-8v-96
	c0-4.408,3.584-8,8-8h144c4.416,0,8,3.592,8,8v96c0,4.408-3.584,8-8,8h-34.96l-45.04,38.608v-38.608H331.352z"/>
<path d="M395.352,465.676c12.8,0,25.424-3.472,36.528-10.024l8.88-5.248L338.624,348.26l-5.248,8.88
	c-6.552,11.112-10.024,23.736-10.024,36.536C323.352,433.38,355.648,465.676,395.352,465.676z M342.632,374.892l71.504,71.504
	c-6.024,2.16-12.384,3.28-18.784,3.28c-30.872,0-56-25.128-56-56C339.352,387.276,340.472,380.916,342.632,374.892z"/>
<path d="M457.328,430.204c6.552-11.104,10.024-23.728,10.024-36.528c0-39.704-32.296-72-72-72c-12.8,0-25.424,3.472-36.528,10.024
	l-8.88,5.248l102.144,102.144L457.328,430.204z M448.072,412.46l-71.504-71.504c6.024-2.16,12.384-3.28,18.784-3.28
	c30.872,0,56,25.128,56,56C451.352,400.076,450.232,406.436,448.072,412.46z"/>
<circle cx="259.352" cy="217.676" r="8"/>
<circle cx="147.352" cy="217.676" r="8"/>
<path d="M162.208,274.292l-13.72,8.232c11.704,19.504,32.216,31.152,54.864,31.152s43.16-11.648,54.856-31.152l-13.72-8.232
	c-8.784,14.64-24.16,23.384-41.136,23.384S171,288.932,162.208,274.292z"/>
<rect x="339.352" y="97.676" width="96" height="16"/>
<rect x="451.352" y="97.676" width="16" height="16"/>
<g>
</g>
<g>
</g>
<g>
</g>
<g>
</g>
<g>
</g>
<g>
</g>
<g>
</g>
<g>
</g>
<g>
</g>
<g>
</g>
<g>
</g>
<g>
</g>
<g>
</g>
<g>
</g>
<g>
</g>
</svg>
