<?xml version="1.0" encoding="iso-8859-1"?>
<!-- Generator: Adobe Illustrator 19.0.0, SVG Export Plug-In . SVG Version: 6.00 Build 0)  -->
<svg version="1.1" id="Capa_1" xmlns="http://www.w3.org/2000/svg" xmlns:xlink="http://www.w3.org/1999/xlink" x="0px" y="0px"
	 viewBox="0 0 496 496" style="enable-background:new 0 0 496 496;" xml:space="preserve">
<g>
	<circle style="fill:#FB5968;" cx="24" cy="280" r="16"/>
	<circle style="fill:#FB5968;" cx="472" cy="280" r="16"/>
</g>
<path style="fill:#FEA82F;" d="M352,408v-48h-19.4c-1.88-6.64-4.48-12.968-7.784-18.872l13.696-13.696l-33.944-33.944
	l-13.696,13.696c-5.904-3.304-12.232-5.904-18.872-7.784V280h-48v19.4c-6.64,1.88-12.968,4.48-18.872,7.784l-13.696-13.696
	l-33.944,33.944l13.696,13.696c-3.304,5.904-5.904,12.232-7.784,18.872H144v48h19.4c1.88,6.64,4.48,12.968,7.784,18.872
	l-13.696,13.696l33.944,33.944l13.696-13.696c5.904,3.304,12.232,5.904,18.872,7.784V488h48v-19.4
	c6.64-1.88,12.968-4.48,18.872-7.784l13.696,13.696l33.944-33.944l-13.696-13.696c3.304-5.904,5.904-12.232,7.784-18.872H352z
	 M248,440c-30.928,0-56-25.072-56-56s25.072-56,56-56s56,25.072,56,56S278.928,440,248,440z"/>
<path style="fill:#FCD770;" d="M446.904,156.768c-2.976-15.328-12.616-28.44-25.592-36.44l0.04-0.328
	c1.72-5.072,2.648-10.44,2.648-16c0-30.928-28.656-56-64-56c-6.176,0-12.128,0.808-17.776,2.232C336.08,25.976,314.168,8,288,8
	c-15.672,0-29.808,6.464-39.976,16.832L248,24.808C237.84,14.44,223.672,8,208,8c-25.368,0-46.792,16.864-53.68,40l-1.352,2.048
	C147.552,48.744,141.88,48,136,48c-35.344,0-64,25.072-64,56c0,5.672,0.984,11.136,2.776,16.296
	c-16.432,10.088-27.288,28.36-26.752,49.176C48.808,200.192,75.448,224,106.168,224H168c30.928,0,56,25.072,56,56h48
	c0-30.928,25.072-56,56-56h64C426.6,224,453.872,192.616,446.904,156.768z"/>
<path style="fill:#FFC729;" d="M248,320c-35.344,0-64,28.656-64,64s28.656,64,64,64s64-28.656,64-64S283.344,320,248,320z M248,432
	c-26.512,0-48-21.488-48-48s21.488-48,48-48s48,21.488,48,48S274.512,432,248,432z"/>
<path d="M441.408,208.68c12.208-14.808,17.08-34.288,13.352-53.44c-3.032-15.608-11.984-29.28-24.352-38.552
	c0.944-4.176,1.592-8.4,1.592-12.688c0-35.288-32.296-64-72-64c-4.104,0-8.232,0.328-12.336,0.968C338.256,16.504,314.712,0,288,0
	c-14.816,0-28.744,5.328-39.856,14.2C236.808,5.024,222.824,0,208,0c-26.4,0-50.064,16.688-59.504,41.008
	C144.4,40.368,140.232,40,136,40c-39.704,0-72,28.712-72,64c0,4.352,0.496,8.696,1.496,12.96c-16.368,12.376-26,32.056-25.48,52.728
	C40.904,204.048,70.584,232,106.168,232H168c26.472,0,48,21.528,48,48v13.544c-3.2,1.128-6.32,2.416-9.352,3.848l-15.216-15.216
	l-45.248,45.248l15.216,15.224c-1.44,3.024-2.728,6.144-3.848,9.344H136v64h21.544c1.128,3.2,2.416,6.328,3.848,9.344
	l-15.216,15.224l45.248,45.248l15.216-15.216c3.032,1.44,6.152,2.728,9.352,3.848V496h64v-21.544c3.2-1.128,6.32-2.416,9.352-3.848
	l15.216,15.216l45.248-45.248l-15.216-15.224c1.44-3.024,2.728-6.144,3.848-9.344H360v-64h-21.544
	c-1.128-3.2-2.416-6.328-3.848-9.344l15.216-15.224l-45.248-45.248l-15.216,15.216c-3.04-1.448-6.16-2.736-9.36-3.864V280
	c0-26.472,21.528-48,48-48h64C411.184,232,429.192,223.504,441.408,208.68z M286.968,314.168l5.28,2.952l12.32-12.312l22.624,22.624
	l-12.32,12.32l2.952,5.28c2.976,5.32,5.36,11.088,7.08,17.152l1.648,5.816H344v32h-17.448l-1.648,5.816
	c-1.72,6.064-4.104,11.832-7.08,17.152l-2.952,5.28l12.32,12.32l-22.624,22.624l-12.32-12.312l-5.28,2.952
	c-5.32,2.976-11.088,5.352-17.152,7.072L264,462.552V480h-32v-17.448l-5.824-1.648c-6.064-1.72-11.832-4.096-17.152-7.072
	l-5.28-2.952l-12.32,12.312L168.8,440.568l12.32-12.32l-2.952-5.28c-2.976-5.32-5.36-11.088-7.08-17.152l-1.64-5.816H152v-32h17.448
	l1.648-5.816c1.72-6.064,4.104-11.832,7.08-17.152l2.952-5.28l-12.32-12.32l22.624-22.624l12.32,12.312l5.28-2.952
	c5.32-2.976,11.088-5.352,17.152-7.072l5.816-1.648V288h32v17.448l5.824,1.648C275.88,308.816,281.648,311.192,286.968,314.168z
	 M392,216h-64c-32.576,0-59.488,24.48-63.448,56H231.44c-3.96-31.52-30.872-56-63.448-56H106.16
	c-26.992,0-49.496-20.968-50.16-46.728c-0.44-17.048,8.352-33.2,22.944-42.16l5.48-3.36l-2.112-6.072
	C80.784,113.216,80,108.616,80,104c0-26.472,25.128-48,56-48c14.936,0,28.992,5,39.584,14.072l10.408-12.152
	c-6.456-5.536-13.912-9.84-21.968-12.864C171.528,27.744,188.808,16,208,16c10.6,0,20.616,3.448,28.904,9.736
	c-4.48,5.936-8.056,12.608-10.248,19.976l15.328,4.56C247.992,30.096,266.912,16,288,16c21.96,0,41.072,14.888,46.472,36.2
	l1.968,7.744l7.752-1.952C349.424,56.664,354.744,56,360,56c30.872,0,56,21.528,56,48c0,1.52-0.208,3.024-0.376,4.536
	c-3.52-1.392-7.144-2.576-10.92-3.304c-21.24-4.112-42.224,2.096-57.496,17.056l11.2,11.432
	c11.448-11.216,27.208-15.888,43.248-12.776c18.736,3.624,33.76,18.64,37.392,37.352c2.808,14.448-0.832,29.104-9.992,40.216
	C419.896,209.624,406.392,216,392,216z"/>
<path d="M88,168H72c0,17.648,14.352,32,32,32v-16C95.176,184,88,176.824,88,168z"/>
<path d="M96,104h16c0-11.024,10.768-20,24-20V68C113.944,68,96,84.152,96,104z"/>
<path d="M392,136v16c8.824,0,16,7.176,16,16h16C424,150.352,409.648,136,392,136z"/>
<path d="M288,32v16c8.824,0,16,7.176,16,16h16C320,46.352,305.648,32,288,32z"/>
<path d="M200,88v16c8.824,0,16,7.176,16,16h16C232,102.352,217.648,88,200,88z"/>
<path d="M264,136h16c0-8.824,7.176-16,16-16v-16C278.352,104,264,118.352,264,136z"/>
<path d="M160,184h16c0-8.824,7.176-16,16-16v-16C174.352,152,160,166.352,160,184z"/>
<path d="M200,384c0,26.472,21.528,48,48,48s48-21.528,48-48s-21.528-48-48-48S200,357.528,200,384z M280,384
	c0,17.648-14.352,32-32,32s-32-14.352-32-32s14.352-32,32-32S280,366.352,280,384z"/>
<path d="M48,280c0-13.232-10.768-24-24-24S0,266.768,0,280c0,10.416,6.712,19.216,16,22.528V384h16v-81.472
	C41.288,299.216,48,290.416,48,280z M24,288c-4.416,0-8-3.592-8-8s3.584-8,8-8s8,3.592,8,8S28.416,288,24,288z"/>
<rect x="48" y="360" width="16" height="80"/>
<path d="M496,280c0-13.232-10.768-24-24-24s-24,10.768-24,24c0,10.416,6.712,19.216,16,22.528V384h16v-81.472
	C489.288,299.216,496,290.416,496,280z M472,288c-4.416,0-8-3.592-8-8s3.584-8,8-8s8,3.592,8,8S476.416,288,472,288z"/>
<rect x="432" y="360" width="16" height="80"/>
<path d="M256,216h16c0-13.232,10.768-24,24-24v-16C273.944,176,256,193.944,256,216z"/>
<rect x="176" y="248" width="16" height="16"/>
<rect x="144" y="248" width="16" height="16"/>
<rect x="112" y="248" width="16" height="16"/>
<rect x="368" y="248" width="16" height="16"/>
<rect x="336" y="248" width="16" height="16"/>
<rect x="304" y="248" width="16" height="16"/>
<rect x="464" y="400" width="16" height="16"/>
<rect x="432" y="456" width="16" height="16"/>
<rect x="16" y="400" width="16" height="16"/>
<rect x="48" y="456" width="16" height="16"/>
<g>
</g>
<g>
</g>
<g>
</g>
<g>
</g>
<g>
</g>
<g>
</g>
<g>
</g>
<g>
</g>
<g>
</g>
<g>
</g>
<g>
</g>
<g>
</g>
<g>
</g>
<g>
</g>
<g>
</g>
</svg>
