<?xml version="1.0" encoding="iso-8859-1"?>
<!-- Generator: Adobe Illustrator 19.0.0, SVG Export Plug-In . SVG Version: 6.00 Build 0)  -->
<svg version="1.1" id="Capa_1" xmlns="http://www.w3.org/2000/svg" xmlns:xlink="http://www.w3.org/1999/xlink" x="0px" y="0px"
	 viewBox="0 0 496 496" style="enable-background:new 0 0 496 496;" xml:space="preserve">
<polygon style="fill:#D3A06C;" points="208,344 168,488 208,488 232,400 264,400 288,488 328,488 288,344 "/>
<g>
	<polygon style="fill:#B27946;" points="288,488 328,488 319.112,456 279.272,456 	"/>
	<polygon style="fill:#B27946;" points="216.728,456 176.888,456 168,488 208,488 	"/>
</g>
<path style="fill:#D3A06C;" d="M289.568,296H472c8.84,0,16,7.16,16,16v16c0,8.84-7.16,16-16,16H289.568h-83.136H24
	c-8.84,0-16-7.16-16-16v-16c0-8.84,7.16-16,16-16h182.432H289.568z"/>
<path style="fill:#B27946;" d="M8,320v8c0,8.84,7.16,16,16,16h182.432h83.144H472c8.84,0,16-7.16,16-16v-8H8z"/>
<path style="fill:#FEA82F;" d="M488,128V80h-19.672c-1.416-4.512-3.264-8.832-5.416-12.968l13.944-13.944l-33.944-33.944
	l-13.944,13.944c-4.128-2.16-8.448-4-12.968-5.416V8h-48v19.672c-4.512,1.416-8.832,3.264-12.968,5.416l-13.944-13.944
	l-33.944,33.944l13.944,13.944c-2.16,4.128-4,8.448-5.416,12.968H296v48h19.672c1.416,4.512,3.264,8.832,5.416,12.968
	l-13.944,13.944l33.944,33.944l13.944-13.944c4.128,2.16,8.448,4,12.968,5.416V200h48v-19.672c4.512-1.416,8.832-3.264,12.968-5.416
	l13.944,13.944l33.944-33.944l-13.944-13.944c2.16-4.128,4-8.448,5.416-12.968H488z M392,152c-26.512,0-48-21.488-48-48
	s21.488-48,48-48s48,21.488,48,48S418.512,152,392,152z"/>
<circle style="fill:#FCD770;" cx="248" cy="320" r="48"/>
<path style="fill:#FFC729;" d="M248,352c-23.776,0-43.464-17.304-47.28-40c-0.44,2.608-0.72,5.272-0.72,8c0,26.512,21.488,48,48,48
	s48-21.488,48-48c0-2.728-0.28-5.392-0.72-8C291.464,334.696,271.776,352,248,352z"/>
<circle style="fill:#FFEAA7;" cx="248" cy="320" r="16"/>
<path style="fill:#8C95A4;" d="M416,296h-48c-26.512,0-48-21.488-48-48v-16h144v16C464,274.512,442.512,296,416,296z"/>
<path style="fill:#798699;" d="M416,280h-48c-26.512,0-48-21.488-48-48v16c0,26.512,21.488,48,48,48h48c26.512,0,48-21.488,48-48
	v-16C464,258.512,442.512,280,416,280z"/>
<path style="fill:#8C95A4;" d="M80,296h48c26.512,0,48-21.488,48-48v-16H32v16C32,274.512,53.488,296,80,296z"/>
<path style="fill:#798699;" d="M128,280H80c-26.512,0-48-21.488-48-48v16c0,26.512,21.488,48,48,48h48c26.512,0,48-21.488,48-48v-16
	C176,258.512,154.512,280,128,280z"/>
<circle style="fill:#8C95A4;" cx="104" cy="104" r="96"/>
<circle style="fill:#ECECEC;" cx="104" cy="104" r="72"/>
<path style="fill:#798699;" d="M104,184c-50.32,0-91.52-38.736-95.6-88c-0.216,2.648-0.4,5.296-0.4,8c0,53.016,42.984,96,96,96
	s96-42.984,96-96c0-2.704-0.184-5.352-0.4-8C195.52,145.264,154.32,184,104,184z"/>
<path style="fill:#FFC729;" d="M392,40c-35.344,0-64,28.656-64,64s28.656,64,64,64s64-28.656,64-64S427.344,40,392,40z M392,152
	c-26.512,0-48-21.488-48-48s21.488-48,48-48s48,21.488,48,48S418.512,152,392,152z"/>
<path d="M473.976,72c-0.44-1.112-0.904-2.216-1.392-3.328l15.584-15.584L442.912,7.84L427.32,23.424
	c-1.104-0.496-2.208-0.952-3.32-1.392V0h-64v22.032c-1.112,0.44-2.216,0.896-3.32,1.392L341.088,7.84l-45.256,45.248l15.584,15.584
	c-0.48,1.112-0.944,2.216-1.392,3.328H288v64h22.024c0.44,1.112,0.904,2.216,1.392,3.328l-15.584,15.584l45.256,45.248
	l15.592-15.584c1.104,0.496,2.208,0.952,3.32,1.392V208h64v-22.032c1.112-0.44,2.216-0.896,3.32-1.392l15.592,15.584l45.256-45.248
	l-15.584-15.584c0.488-1.112,0.952-2.216,1.392-3.328H496V72H473.976z M480,120h-17.536l-1.76,5.592
	c-1.224,3.888-2.864,7.816-4.88,11.672l-2.72,5.2l12.448,12.448l-22.632,22.624l-12.44-12.448l-5.208,2.72
	c-3.872,2.024-7.8,3.664-11.664,4.88L408,174.464V192h-32v-17.536l-5.6-1.768c-3.864-1.216-7.792-2.856-11.664-4.88l-5.208-2.72
	l-12.44,12.448l-22.632-22.624l12.448-12.448l-2.72-5.2c-2.016-3.856-3.656-7.784-4.88-11.672l-1.768-5.6H304V88h17.536l1.76-5.592
	c1.224-3.888,2.864-7.816,4.88-11.672l2.72-5.2l-12.448-12.448l22.632-22.624l12.44,12.448l5.208-2.72
	c3.872-2.024,7.8-3.664,11.664-4.88L376,33.536V16h32v17.536l5.6,1.768c3.864,1.216,7.792,2.856,11.664,4.88l5.208,2.72
	l12.44-12.448l22.632,22.624l-12.448,12.448l2.72,5.2c2.016,3.856,3.656,7.784,4.88,11.672l1.768,5.6H480V120z"/>
<path d="M392,48c-30.88,0-56,25.128-56,56s25.12,56,56,56s56-25.128,56-56S422.88,48,392,48z M392,144c-22.056,0-40-17.944-40-40
	s17.944-40,40-40s40,17.944,40,40S414.056,144,392,144z"/>
<path d="M248,344c13.232,0,24-10.768,24-24s-10.768-24-24-24s-24,10.768-24,24S234.768,344,248,344z M248,312c4.408,0,8,3.584,8,8
	s-3.592,8-8,8s-8-3.584-8-8S243.592,312,248,312z"/>
<path d="M472,288h-16.888C465.52,277.824,472,263.664,472,248v-24H312v24c0,15.664,6.48,29.824,16.888,40h-34.992
	c-10.136-14.488-26.912-24-45.888-24s-35.76,9.512-45.888,24h-34.992C177.52,277.824,184,263.664,184,248v-24H24v24
	c0,15.664,6.48,29.824,16.888,40H24c-13.232,0-24,10.768-24,24v16c0,13.232,10.768,24,24,24h175.688l-42.376,144h56.808l24-88
	h19.784l24,88h56.808l-42.384-144H472c13.232,0,24-10.768,24-24v-16C496,298.768,485.232,288,472,288z M336.208,272H432v-16H328.808
	c-0.528-2.584-0.808-5.264-0.808-8v-8h128v8c0,22.056-17.944,40-40,40h-48C354.984,288,343.512,281.656,336.208,272z M248,280
	c22.056,0,40,17.944,40,40s-17.944,40-40,40s-40-17.944-40-40S225.944,280,248,280z M48.208,272H144v-16H40.808
	C40.28,253.416,40,250.736,40,248v-8h128v8c0,22.056-17.944,40-40,40H80C66.984,288,55.512,281.656,48.208,272z M16,328v-16
	c0-4.416,3.592-8,8-8h56h48h66.36c-1.52,5.072-2.36,10.44-2.36,16s0.84,10.928,2.36,16H24C19.592,336,16,332.416,16,328z
	 M178.696,480l4.712-16h22.848l-4.36,16H178.696z M225.888,392l-15.272,56h-22.504l24.832-84.392
	C222.552,371.344,234.736,376,248,376s25.448-4.656,35.048-12.392L307.888,448h-22.504l-15.272-56H225.888z M294.112,480l-4.36-16
	H312.6l4.712,16H294.112z M480,328c0,4.416-3.592,8-8,8H301.64c1.52-5.072,2.36-10.44,2.36-16s-0.84-10.928-2.36-16H368h48h56
	c4.408,0,8,3.584,8,8V328z"/>
<path d="M104,208c57.344,0,104-46.656,104-104S161.344,0,104,0S0,46.656,0,104S46.656,208,104,208z M96,16.408V32h16V16.408
	c42.144,3.824,75.776,37.448,79.592,79.592H176v16h15.592c-3.824,42.144-37.448,75.776-79.592,79.592V176H96v15.592
	C53.856,187.776,20.224,154.144,16.408,112H32V96H16.408C20.224,53.856,53.856,20.224,96,16.408z"/>
<polygon points="141.656,130.344 112,100.688 112,48 96,48 96,107.312 130.344,141.656 "/>
<g>
</g>
<g>
</g>
<g>
</g>
<g>
</g>
<g>
</g>
<g>
</g>
<g>
</g>
<g>
</g>
<g>
</g>
<g>
</g>
<g>
</g>
<g>
</g>
<g>
</g>
<g>
</g>
<g>
</g>
</svg>
