<svg height="496pt" viewBox="0 0 496 496" width="496pt" xmlns="http://www.w3.org/2000/svg"><path d="m122.335938 333.652344 11.316406-11.3125 39.996094 40-11.3125 11.3125zm0 0" fill="#f0bc5e"/><path d="m408 240h-160v-39.855469c0-17.769531 11.929688-33.578125 29.007812-38.472656l26.992188-7.703125v-2.136719c-9.96875-7.511719-16-19.328125-16-31.832031v-16c0-11.175781 4.726562-21.929688 12.976562-29.496094 8.230469-7.542968 19.335938-11.320312 30.582032-10.351562 20.433594 1.777344 36.441406 20.015625 36.441406 41.511718v14.335938c0 12.503906-6.03125 24.320312-16 31.832031v2.136719l26.984375 7.703125c17.085937 4.886719 29.015625 20.703125 29.015625 38.472656zm0 0" fill="#f0bc5e"/><path d="m48 456c0 4.417969-3.582031 8-8 8s-8-3.582031-8-8 3.582031-8 8-8 8 3.582031 8 8zm0 0"/><path d="m328 0c-92.632812 0-168 75.359375-168 168 0 37.671875 12.617188 72.367188 33.640625 100.425781l-28.953125 28.949219-12.6875-12.6875-139.726562 139.71875c-7.914063 7.929688-12.273438 18.457031-12.273438 29.648438 0 23.128906 18.816406 41.945312 41.9375 41.945312 11.207031 0 21.742188-4.359375 29.65625-12.289062l139.71875-139.710938-12.6875-12.6875 28.949219-28.953125c28.058593 21.023437 62.753906 33.640625 100.425781 33.640625 92.632812 0 168-75.359375 168-168s-75.367188-168-168-168zm-267.726562 472.40625c-4.890626 4.898438-11.402344 7.59375-18.335938 7.59375-14.304688 0-25.9375-11.640625-25.9375-25.945312 0-6.925782 2.695312-13.4375 7.59375-18.34375l128.40625-128.398438 36.6875 36.6875zm127.039062-152.40625-11.3125-11.3125 27.871094-27.878906c3.59375 3.953125 7.367187 7.71875 11.320312 11.320312zm140.6875 0c-83.816406 0-152-68.183594-152-152s68.183594-152 152-152 152 68.183594 152 152-68.183594 152-152 152zm0 0"/><path d="m429.824219 78.070312-11.984375 10.601563c41.894531 47.375 39.710937 119.496094-4.984375 164.175781-44.6875 44.695313-116.792969 46.878906-164.175781 4.984375l-10.589844 11.984375c25.734375 22.757813 57.902344 34.039063 90.015625 34.039063 34.878906 0 69.695312-13.320313 96.070312-39.695313 50.65625-50.648437 53.136719-132.390625 5.648438-186.089844zm0 0"/><path d="m243.152344 83.152344c44.695312-44.6875 116.800781-46.878906 164.175781-4.984375l10.59375-11.984375c-53.691406-47.480469-135.425781-45-186.089844 5.65625-50.664062 50.65625-53.152343 132.390625-5.65625 186.097656l11.984375-10.601562c-41.894531-47.382813-39.703125-119.503907 4.992188-164.183594zm0 0"/><path d="m112 0h16v16h-16zm0 0"/><path d="m112 32h16v16h-16zm0 0"/><path d="m128 16h16v16h-16zm0 0"/><path d="m96 16h16v16h-16zm0 0"/><path d="m16 112h16v16h-16zm0 0"/><path d="m16 144h16v16h-16zm0 0"/><path d="m32 128h16v16h-16zm0 0"/><path d="m0 128h16v16h-16zm0 0"/><path d="m104 224h16v16h-16zm0 0"/><path d="m104 256h16v16h-16zm0 0"/><path d="m120 240h16v16h-16zm0 0"/><path d="m88 240h16v16h-16zm0 0"/><path d="m464 368h16v16h-16zm0 0"/><path d="m464 400h16v16h-16zm0 0"/><path d="m480 384h16v16h-16zm0 0"/><path d="m448 384h16v16h-16zm0 0"/><path d="m320 448h16v16h-16zm0 0"/><path d="m320 480h16v16h-16zm0 0"/><path d="m336 464h16v16h-16zm0 0"/><path d="m304 464h16v16h-16zm0 0"/><path d="m240 344h16v16h-16zm0 0"/><path d="m240 376h16v16h-16zm0 0"/><path d="m256 360h16v16h-16zm0 0"/><path d="m224 360h16v16h-16zm0 0"/></svg>