<?xml version="1.0" encoding="iso-8859-1"?>
<!-- Generator: Adobe Illustrator 19.0.0, SVG Export Plug-In . SVG Version: 6.00 Build 0)  -->
<svg version="1.1" id="Capa_1" xmlns="http://www.w3.org/2000/svg" xmlns:xlink="http://www.w3.org/1999/xlink" x="0px" y="0px"
	 viewBox="0 0 480.003 480.003" style="enable-background:new 0 0 480.003 480.003;" xml:space="preserve">
<circle style="fill:#FED966;" cx="168" cy="169.042" r="160"/>
<path style="fill:#F73445;" d="M440,329.042l-48-48l80-32L440,329.042z"/>
<path d="M168,337.042c92.784,0,168-75.216,168-168s-75.216-168-168-168S0,76.259,0,169.042C0.105,261.783,75.26,336.937,168,337.042
	z M168,17.042c83.947,0,152,68.053,152,152s-68.053,152-152,152s-152-68.053-152-152C16.095,85.135,84.092,17.138,168,17.042z"/>
<path d="M456,1.042h-16v24h-24v16h24v24h16v-24h24v-16h-24V1.042z"/>
<path d="M384,113.042v24h-24v16h24v24h16v-24h24v-16h-24v-24H384z"/>
<path d="M56,393.042v-24h24v-16H56v-24H40v24H16v16h24v24H56z"/>
<path d="M317.656,307.386c-3.02-3.019-7.879-3.134-11.039-0.262l-176,160l10.766,11.836l170.352-154.867l42.609,42.605
	c3.122,3.124,8.186,3.125,11.309,0.003c0.001-0.001,0.002-0.002,0.003-0.003L416,316.355l18.344,18.344
	c1.5,1.501,3.534,2.344,5.656,2.344c0.541-0.001,1.08-0.056,1.609-0.164c2.634-0.54,4.821-2.367,5.82-4.863l32-80
	c1.64-4.105-0.358-8.761-4.463-10.401c-1.905-0.761-4.03-0.762-5.936-0.001l-80,32c-4.103,1.641-6.099,6.296-4.458,10.399
	c0.402,1.006,1.005,1.92,1.771,2.686l18.344,18.344L360,349.73L317.656,307.386z M457.64,263.402l-20.562,51.406l-30.844-30.844
	L457.64,263.402z"/>
<path d="M176,257.042h-16c-17.665-0.019-31.981-14.335-32-32h-16c0.029,26.498,21.502,47.971,48,48v32h16v-32
	c26.498-0.029,47.971-21.502,48-48v-16c-0.029-26.498-21.502-47.971-48-48h-16c-17.665-0.019-31.981-14.335-32-32v-16
	c0.019-17.665,14.335-31.981,32-32h16c17.665,0.019,31.981,14.335,32,32h16c-0.029-26.498-21.502-47.971-48-48v-32h-16v32
	c-26.498,0.029-47.971,21.502-48,48v16c0.029,26.498,21.502,47.971,48,48h16c17.665,0.019,31.981,14.335,32,32v16
	C207.981,242.708,193.665,257.024,176,257.042z"/>
<g>
</g>
<g>
</g>
<g>
</g>
<g>
</g>
<g>
</g>
<g>
</g>
<g>
</g>
<g>
</g>
<g>
</g>
<g>
</g>
<g>
</g>
<g>
</g>
<g>
</g>
<g>
</g>
<g>
</g>
</svg>
