<?xml version="1.0" encoding="iso-8859-1"?>
<!-- Generator: Adobe Illustrator 19.0.0, SVG Export Plug-In . SVG Version: 6.00 Build 0)  -->
<svg version="1.1" id="Capa_1" xmlns="http://www.w3.org/2000/svg" xmlns:xlink="http://www.w3.org/1999/xlink" x="0px" y="0px"
	 viewBox="0 0 480 480" style="enable-background:new 0 0 480 480;" xml:space="preserve">
<path style="fill:#DFDEED;" d="M86,8h308c12.15,0,22,9.85,22,22v420c0,12.15-9.85,22-22,22H86c-12.15,0-22-9.85-22-22V30
	C64,17.85,73.85,8,86,8z"/>
<path style="fill:#92B1F9;" d="M64,360v90c0,12.15,9.85,22,22,22h308c12.15,0,22-9.85,22-22v-90H64z"/>
<circle style="fill:#F73445;" cx="240" cy="416" r="24"/>
<circle style="fill:#FED966;" cx="240" cy="184" r="92"/>
<path d="M232,32h16v30.398h-16V32z"/>
<path d="M232,305.602h16V336h-16V305.602z"/>
<path d="M361.602,176H392v16h-30.398V176z"/>
<path d="M88,176h30.398v16H88L88,176z"/>
<path d="M320.328,92.357l21.494-21.494l11.313,11.313l-21.494,21.494L320.328,92.357z"/>
<path d="M126.869,285.82l21.494-21.494l11.313,11.313l-21.494,21.494L126.869,285.82z"/>
<path d="M320.327,275.669l11.311-11.314l21.496,21.492l-11.311,11.314L320.327,275.669z"/>
<path d="M126.866,82.177l11.311-11.314l21.496,21.492l-11.311,11.314L126.866,82.177z"/>
<path d="M56,30v420c0.019,16.56,13.44,29.981,30,30h308c16.56-0.019,29.981-13.44,30-30V30c-0.019-16.56-13.44-29.981-30-30H86
	C69.44,0.019,56.019,13.44,56,30z M394,464H86c-7.728-0.009-13.991-6.272-14-14v-82h336v82C407.991,457.728,401.728,463.991,394,464
	z M408,30v322H72V30c0.009-7.728,6.272-13.991,14-14h308C401.728,16.009,407.991,22.272,408,30z"/>
<path d="M240,384c-17.673,0-32,14.327-32,32s14.327,32,32,32s32-14.327,32-32C271.981,398.335,257.665,384.019,240,384z M240,432
	c-8.837,0-16-7.163-16-16s7.163-16,16-16c8.837,0,16,7.163,16,16C255.99,424.832,248.832,431.99,240,432z"/>
<path d="M240,284c55.228,0,100-44.772,100-100S295.228,84,240,84s-100,44.772-100,100l0,0C140.062,239.203,184.797,283.938,240,284z
	 M240,100c46.392,0,84,37.608,84,84s-37.608,84-84,84s-84-37.608-84-84l0,0C156.052,137.63,193.63,100.052,240,100z"/>
<path d="M208,232h8v16h16v-16h8v16h16v-16.404c15.239-2.133,25.864-16.216,23.731-31.455c-0.86-6.143-3.745-11.823-8.197-16.14
	c11.047-10.712,11.319-28.351,0.607-39.398c-4.318-4.453-9.998-7.338-16.14-8.197V120h-16v16h-8v-16h-16v16h-8
	c-4.417-0.001-7.999,3.579-8,7.996c0,0.001,0,0.003,0,0.004v80c-0.001,4.417,3.579,7.999,7.996,8C207.997,232,207.999,232,208,232z
	 M264,204c-0.007,6.624-5.376,11.993-12,12h-36v-24h36C258.624,192.007,263.993,197.376,264,204z M216,152h36
	c6.627,0,12,5.373,12,12s-5.373,12-12,12h-36V152z"/>
<g>
</g>
<g>
</g>
<g>
</g>
<g>
</g>
<g>
</g>
<g>
</g>
<g>
</g>
<g>
</g>
<g>
</g>
<g>
</g>
<g>
</g>
<g>
</g>
<g>
</g>
<g>
</g>
<g>
</g>
</svg>
