<?xml version="1.0" encoding="iso-8859-1"?>
<!-- Generator: Adobe Illustrator 19.0.0, SVG Export Plug-In . SVG Version: 6.00 Build 0)  -->
<svg version="1.1" id="Capa_1" xmlns="http://www.w3.org/2000/svg" xmlns:xlink="http://www.w3.org/1999/xlink" x="0px" y="0px"
	 viewBox="0 0 480 480" style="enable-background:new 0 0 480 480;" xml:space="preserve">
<circle style="fill:#FED966;" cx="192" cy="271.997" r="64"/>
<path style="fill:#92B1F9;" d="M8,343.997h48v96H8V343.997z"/>
<path style="fill:#DFDEED;" d="M314.482,351.997l-154.482,24l-2.105,1.263L120,351.997H56v80h24l88,40l152.682-97.065
	c5.871-3.424,7.854-10.959,4.43-16.829C322.906,354.322,318.859,351.997,314.482,351.997L314.482,351.997z"/>
<circle style="fill:#F59536;" cx="192" cy="271.997" r="32"/>
<circle style="fill:#FED966;" cx="340" cy="59.997" r="52"/>
<path style="fill:#92B1F9;" d="M440,127.997h32v72h-32V127.997z"/>
<path style="fill:#DFDEED;" d="M394.625,135.997l-26.867,17.369l-1.493-0.869l-109.526-16.5c-4.649-0.156-8.545,3.487-8.7,8.136
	c-0.106,3.149,1.555,6.094,4.304,7.632l108.25,66.732l62.391-27.5H440v-55H394.625z"/>
<path style="fill:#F73445;" d="M320,39.997h40v40h-40V39.997z"/>
<path d="M8,447.997h48c4.418,0,8-3.582,8-8h14.266l86.426,39.281c2.46,1.121,5.321,0.921,7.602-0.531l152.422-96.906
	c9.686-5.653,12.955-18.087,7.302-27.773c-3.639-6.236-10.316-10.07-17.536-10.07c-0.411,0-0.821,0.031-1.227,0.094l-154.48,24
	l0.024,0.155l-34.36-22.905c-1.314-0.876-2.858-1.343-4.437-1.344H64c0-4.418-3.582-8-8-8H8c-4.418,0-8,3.582-8,8v96
	C0,444.415,3.582,447.997,8,447.997L8,447.997z M117.578,359.997L170,394.942c5.5,3.668,6.986,11.099,3.318,16.6
	s-11.099,6.986-16.6,3.318l-32.281-21.519l-8.875,13.312l32.281,21.52c12.864,8.551,30.225,5.055,38.776-7.81
	c8.534-12.839,5.07-30.163-7.745-38.733l-0.57-0.38l136.66-21.233c1.786,0.133,3.276,1.417,3.672,3.164
	c0.583,1.992-0.37,4.113-2.246,5l-149.024,94.738l-84.059-38.203c-1.039-0.473-2.167-0.718-3.309-0.719H64v-64H117.578z M16,351.997
	h32v80H16V351.997z"/>
<path d="M152,271.997c0,22.091,17.909,40,40,40s40-17.909,40-40s-17.909-40-40-40C169.919,232.023,152.026,249.916,152,271.997z
	 M216,271.997c0,13.255-10.745,24-24,24s-24-10.745-24-24s10.745-24,24-24C205.249,248.011,215.986,258.748,216,271.997z"/>
<path d="M258.547,299.528c3.616-8.727,5.469-18.084,5.453-27.531v-0.492l-16,0.492c0.015,7.345-1.424,14.62-4.234,21.406
	L258.547,299.528z"/>
<path d="M140.152,250.786l-14.805-6.062c-3.548,8.654-5.364,17.92-5.347,27.273v0.25l16-0.25
	C135.987,264.723,137.397,257.518,140.152,250.786L140.152,250.786z"/>
<path d="M231.332,232.137c5.241,5.152,9.411,11.289,12.27,18.059l14.734-6.234c-3.674-8.701-9.03-16.59-15.762-23.215
	L231.332,232.137z"/>
<path d="M213.504,323.723l6.148,14.773c8.722-3.627,16.643-8.939,23.309-15.633l-11.328-11.305
	C226.451,316.77,220.29,320.904,213.504,323.723L213.504,323.723z"/>
<path d="M141.234,323.055l11.281-11.344c-5.219-5.174-9.365-11.329-12.199-18.109l-14.758,6.18
	C129.198,308.497,134.526,316.407,141.234,323.055L141.234,323.055z"/>
<path d="M213.113,220.11l6.031-14.82c-8.619-3.509-17.839-5.307-27.145-5.293h-0.371l0.371,16
	C199.238,215.983,206.41,217.381,213.113,220.11L213.113,220.11z"/>
<path d="M170.293,220.36l-6.203-14.75c-8.708,3.659-16.608,9.002-23.246,15.723l11.367,11.258
	C157.374,227.363,163.519,223.206,170.293,220.36z"/>
<path d="M170.691,323.802l-6.086,14.797c8.689,3.579,17.997,5.413,27.395,5.398h0.121l-0.121-16
	C184.691,328.01,177.45,326.585,170.691,323.802z"/>
<path d="M349.902,102.88l3.586,15.594c8.77-2.031,16.971-6.005,24-11.629l-10-12.484C362.336,98.478,356.327,101.389,349.902,102.88
	L349.902,102.88z"/>
<path d="M349.41,17.001l3.398-15.633c-8.788-1.896-17.887-1.816-26.641,0.234l3.68,15.57
	C336.276,15.673,342.957,15.614,349.41,17.001z"/>
<path d="M379.668,79.059l14.422,6.938c3.894-8.059,5.914-16.894,5.91-25.844v-0.914l-16,0.758
	C384.018,66.597,382.536,73.115,379.668,79.059z"/>
<path d="M302.789,107.063c7.061,5.577,15.282,9.501,24.059,11.484l3.5-15.609c-6.433-1.457-12.459-4.334-17.637-8.422
	L302.789,107.063z"/>
<path d="M300.438,79.282c-2.9-5.925-4.416-12.431-4.434-19.027l-16,0.086c0.026,9.002,2.098,17.881,6.059,25.965L300.438,79.282z"/>
<path d="M312.32,25.794l-10.078-12.43c-6.981,5.672-12.611,12.829-16.48,20.949l14.461,6.852
	C303.061,35.205,307.194,29.953,312.32,25.794z"/>
<path d="M379.441,40.477l14.336-7.102c-4.005-8.051-9.755-15.108-16.832-20.656l-9.859,12.602
	C372.279,29.393,376.5,34.57,379.441,40.477L379.441,40.477z"/>
<path d="M472,119.997h-32c-4.418,0-8,3.582-8,8h-37.375c-1.541,0-3.049,0.445-4.344,1.281l-23.517,15.204L257.93,128.087
	c-0.394-0.059-0.793-0.089-1.191-0.09c-7.595-0.111-14.282,4.984-16.191,12.336c-1.938,7.103,1.19,14.615,7.598,18.242l108.25,66.73
	c2.24,1.382,5.017,1.574,7.426,0.512l60.848-26.82H432v1c0,4.418,3.582,8,8,8h32c4.418,0,8-3.582,8-8v-72
	C480,123.579,476.418,119.997,472,119.997L472,119.997z M422.984,182.997c-1.111,0-2.21,0.231-3.227,0.68l-58.543,25.805
	L256.004,144.61l0.644-0.535l90.93,13.697c-7.271,7.627-7.844,19.433-1.348,27.729c7.178,9.103,20.094,11.272,29.852,5.012
	l22.887-14.797l-8.687-13.437l-22.883,14.797c-2.773,1.767-6.43,1.182-8.512-1.363c-0.945-1.195-1.34-2.736-1.086-4.238
	c0.281-1.577,1.216-2.961,2.574-3.809l36.61-23.668H432v39L422.984,182.997z M464,191.997h-16v-56h16V191.997z"/>
<path d="M312,79.997c0,4.418,3.582,8,8,8h40c4.418,0,8-3.582,8-8v-40c0-4.418-3.582-8-8-8h-40c-4.418,0-8,3.582-8,8V79.997z
	 M328,47.997h24v24h-24V47.997z"/>
<g>
</g>
<g>
</g>
<g>
</g>
<g>
</g>
<g>
</g>
<g>
</g>
<g>
</g>
<g>
</g>
<g>
</g>
<g>
</g>
<g>
</g>
<g>
</g>
<g>
</g>
<g>
</g>
<g>
</g>
</svg>
