<?xml version="1.0" encoding="iso-8859-1"?>
<!-- Generator: Adobe Illustrator 19.0.0, SVG Export Plug-In . SVG Version: 6.00 Build 0)  -->
<svg version="1.1" id="Capa_1" xmlns="http://www.w3.org/2000/svg" xmlns:xlink="http://www.w3.org/1999/xlink" x="0px" y="0px"
	 viewBox="0 0 480 480" style="enable-background:new 0 0 480 480;" xml:space="preserve">
<path style="fill:#F73445;" d="M260,144.421C260,219.764,206.274,296,140,296S20,219.764,20,144.421S73.726,8,140,8
	S260,69.078,260,144.421z"/>
<path style="fill:#FED966;" d="M140,40L60,200h160L140,40z"/>
<path style="fill:#92B1F9;" d="M460,242.947C460,293.176,424.604,344,380.941,344s-79.059-50.824-79.059-101.053
	S337.278,152,380.941,152S460,192.719,460,242.947L460,242.947z"/>
<path style="fill:#FED966;" d="M380,192l-48,80h96L380,192z"/>
<path d="M132,96h16v48h-16V96z"/>
<path d="M132,160h16v16h-16V160z"/>
<path d="M226.805,204.207c1.457-2.359,1.59-5.304,0.352-7.785l-80-160c-2.355-3.952-7.468-5.247-11.42-2.892
	c-1.19,0.709-2.184,1.703-2.892,2.892l-80,160c-1.976,3.952-0.373,8.758,3.579,10.734C57.533,207.711,58.758,208,60,208h160
	C222.772,207.999,225.346,206.565,226.805,204.207z M72.945,192L140,57.887L207.055,192H72.945z"/>
<path d="M380.941,144c-48.004,0-87.059,44.387-87.059,98.949c0,48.226,31.265,101.582,77.266,108.316
	c-1.184,3.925-3.113,7.584-5.684,10.777c-12.62,15.995-12.62,38.559,0,54.555c8.713,10.462,8.713,25.655,0,36.117
	c-6.241,7.713-9.589,17.365-9.465,27.285h16c-0.133-6.621,2.195-13.056,6.535-18.059c12.62-16.001,12.62-38.569,0-54.57
	c-8.714-10.457-8.714-25.645,0-36.102c4.529-5.742,7.564-12.517,8.836-19.718C435.187,346.974,468,292.33,468,242.949
	C468,188.387,428.945,144,380.941,144L380.941,144z M380.941,336c-37.191,0-71.059-44.352-71.059-93.051
	c0-45.738,31.875-82.949,71.059-82.949S452,197.211,452,242.949C452,291.648,418.133,336,380.941,336L380.941,336z"/>
<path d="M147.618,303.669C217.018,298.087,268,217.113,268,144.422C268,64.789,210.578,0,140,0S12,64.789,12,144.422
	c0,72.4,50.581,152.999,119.555,159.158c-0.877,6.841-3.14,13.432-6.649,19.369c-11.875,21.371-11.875,47.359,0,68.73
	c9.458,16.739,9.458,37.21,0,53.949C118.822,456.044,115.739,467.94,116,480h16c-0.256-9.483,2.205-18.842,7.094-26.973
	c11.875-21.377,11.875-47.369,0-68.746c-9.458-16.731-9.458-37.195,0-53.926C143.824,322.178,146.731,313.075,147.618,303.669
	L147.618,303.669z M28,144.422C28,73.609,78.242,16,140,16s112,57.609,112,128.422C252,212.199,204.102,288,140,288
	S28,212.199,28,144.422L28,144.422z"/>
<path d="M373.141,187.883l-48,80c-2.273,3.789-1.045,8.703,2.744,10.977c1.243,0.746,2.666,1.14,4.115,1.14h96
	c4.419-0.001,8-3.583,8-8.002c0-1.45-0.394-2.872-1.14-4.115l-48-80c-2.596-3.788-7.771-4.755-11.559-2.16
	C374.453,186.303,373.721,187.036,373.141,187.883L373.141,187.883z M346.129,264L380,207.551L413.871,264H346.129z"/>
<path d="M372,232h16v16h-16V232z"/>
<g>
</g>
<g>
</g>
<g>
</g>
<g>
</g>
<g>
</g>
<g>
</g>
<g>
</g>
<g>
</g>
<g>
</g>
<g>
</g>
<g>
</g>
<g>
</g>
<g>
</g>
<g>
</g>
<g>
</g>
</svg>
