<?xml version="1.0" encoding="iso-8859-1"?>
<!-- Generator: Adobe Illustrator 19.0.0, SVG Export Plug-In . SVG Version: 6.00 Build 0)  -->
<svg version="1.1" id="Capa_1" xmlns="http://www.w3.org/2000/svg" xmlns:xlink="http://www.w3.org/1999/xlink" x="0px" y="0px"
	 viewBox="0 0 480 480" style="enable-background:new 0 0 480 480;" xml:space="preserve">
<path style="fill:#92B1F9;" d="M8,216h320v232H8V216z"/>
<path style="fill:#DFDEED;" d="M264,32v184h64v88h144V32H264z"/>
<circle style="fill:#3A83F9;" cx="368" cy="128" r="64"/>
<path style="fill:#F73445;" d="M152,280h32v48h-32V280z"/>
<path style="fill:#DFDEED;" d="M168,184c17.673,0,32,14.327,32,32h32c0-35.346-28.654-64-64-64s-64,28.654-64,64h32
	C136,198.327,150.327,184,168,184z"/>
<path style="fill:#3A83F9;" d="M8,216c0,48.601,39.399,88,88,88h56v-24h32v24h56c48.601,0,88-39.399,88-88H8z"/>
<g>
	<circle style="fill:#F73445;" cx="368" cy="112" r="16"/>
	<path style="fill:#F73445;" d="M368,128c-13.255,0-24,10.745-24,24v35.304c15.387,6.261,32.613,6.261,48,0V152
		C392,138.745,381.255,128,368,128z"/>
</g>
<path d="M368,200c39.764,0,72-32.236,72-72s-32.236-72-72-72s-72,32.235-72,72C296.043,167.747,328.253,199.957,368,200z M360,112
	c0-4.418,3.582-8,8-8s8,3.582,8,8c0,4.418-3.582,8-8,8C363.583,119.997,360.003,116.417,360,112z M352,181.641V152
	c0-8.837,7.163-16,16-16s16,7.163,16,16v29.641C373.565,184.786,362.435,184.786,352,181.641z M368,72
	c30.903-0.025,55.975,25.008,56,55.911c0.015,18.332-8.951,35.509-24,45.978V152c-0.027-10.091-4.831-19.573-12.951-25.564
	c3.193-4.137,4.933-9.211,4.951-14.436c0-13.255-10.745-24-24-24s-24,10.745-24,24c0.019,5.225,1.759,10.299,4.951,14.436
	C340.831,132.427,336.027,141.909,336,152v21.888c-25.368-17.648-31.626-52.52-13.978-77.888C332.492,80.951,349.668,71.985,368,72z
	"/>
<path d="M472,24H264c-4.416-0.003-7.997,3.575-8,7.991c0,0.003,0,0.006,0,0.009v176h-16.472
	c-4.404-39.504-39.998-67.958-79.502-63.554c-33.435,3.727-59.826,30.119-63.554,63.554H8c-4.416-0.003-7.997,3.575-8,7.991
	c0,0.003,0,0.006,0,0.009v232c-0.003,4.416,3.575,7.997,7.991,8c0.003,0,0.006,0,0.009,0h320c4.416,0.003,7.997-3.575,8-7.991
	c0-0.003,0-0.006,0-0.009V312h136c4.416,0.003,7.997-3.575,8-7.991c0-0.003,0-0.006,0-0.009V32c0.003-4.416-3.575-7.997-7.991-8
	C472.006,24,472.003,24,472,24z M168,160c27.826,0.034,51.419,20.465,55.43,48h-16.234c-4.421-21.647-25.553-35.612-47.2-31.191
	c-15.708,3.208-27.983,15.483-31.191,31.191H112.57C116.581,180.465,140.174,160.034,168,160z M190.526,208h-45.052
	c4.339-12.441,17.942-19.008,30.382-14.669C182.728,195.727,188.129,201.129,190.526,208z M319.602,224
	c-4.158,40.855-38.536,71.95-79.602,72h-48v-16c0.003-4.416-3.575-7.997-7.991-8c-0.003,0-0.006,0-0.009,0h-32
	c-4.416-0.003-7.997,3.575-8,7.991c0,0.003,0,0.006,0,0.009v16H96c-41.066-0.05-75.444-31.145-79.602-72H319.602z M176,288v32h-16
	v-32H176z M320,440H16V268.953c17.755,26.863,47.8,43.03,80,43.047h48v16c-0.003,4.416,3.575,7.997,7.991,8c0.003,0,0.006,0,0.009,0
	h32c4.416,0.003,7.997-3.575,8-7.991c0-0.003,0-0.006,0-0.009v-16h48c32.2-0.017,62.245-16.184,80-43.047V440z M464,296H336v-24h24
	v-16h-24v-16h56v-16h-56v-8c0.003-4.416-3.575-7.997-7.991-8c-0.003,0-0.006,0-0.009,0h-56V40h192V296z"/>
<path d="M408,224h40v16h-40V224z"/>
<path d="M376,256h72v16h-72V256z"/>
<g>
</g>
<g>
</g>
<g>
</g>
<g>
</g>
<g>
</g>
<g>
</g>
<g>
</g>
<g>
</g>
<g>
</g>
<g>
</g>
<g>
</g>
<g>
</g>
<g>
</g>
<g>
</g>
<g>
</g>
</svg>
