<?xml version="1.0" encoding="iso-8859-1"?>
<!-- Generator: Adobe Illustrator 19.0.0, SVG Export Plug-In . SVG Version: 6.00 Build 0)  -->
<svg version="1.1" id="Capa_1" xmlns="http://www.w3.org/2000/svg" xmlns:xlink="http://www.w3.org/1999/xlink" x="0px" y="0px"
	 viewBox="0 0 476.8 476.8" style="enable-background:new 0 0 476.8 476.8;" xml:space="preserve">
<path style="fill:#92B1F9;" d="M468.8,262.4v-48l-33.6-9.6c-2.4-12.8-5.6-24.8-9.6-36.8l24-24.8c-6.4-14.4-14.4-28-24-40.8
	l-33.6,8.8c-8-9.6-16.8-18.4-27.2-27.2l9.6-33.6c-12.8-9.6-26.4-17.6-40.8-24l-24.8,24c-12-4.8-24-8-36.8-9.6L262.4,8h-48l-9.6,33.6
	C192,44,180,47.2,168,51.2l-24.8-24c-14.4,6.4-28,14.4-40.8,24l8.8,33.6c-9.6,8-18.4,16.8-27.2,27.2l-33.6-9.6
	c-9.6,12.8-17.6,26.4-24,40.8l24,24.8c-4.8,12-8,24-9.6,36.8L8,214.4v48l33.6,9.6c2.4,12.8,5.6,24.8,9.6,36.8l-24,24.8
	c6.4,14.4,14.4,28,24,40.8l33.6-8.8c8,9.6,16.8,18.4,27.2,27.2l-9.6,33.6c12.8,9.6,26.4,17.6,40.8,24l24.8-24c12,4.8,24,8,36.8,9.6
	l9.6,33.6h48L272,436c12.8-2.4,24.8-5.6,36.8-9.6l24.8,24c14.4-6.4,28-14.4,40.8-24l-8.8-33.6c9.6-8,18.4-16.8,27.2-27.2l33.6,8.8
	c9.6-12.8,17.6-26.4,24-40.8l-24-24.8c4.8-12,8-24,9.6-36.8L468.8,262.4z"/>
<circle style="fill:#DFDEED;" cx="238.4" cy="238.4" r="152"/>
<path style="fill:#F73445;" d="M302.4,174.4l-60.8,40c-13.6-2.4-26.4,6.4-28.8,20c-2.4,13.6,6.4,26.4,20,28.8
	c13.6,2.4,26.4-6.4,28.8-20c0.8-2.4,0.8-5.6,0-8.8L302.4,174.4z"/>
<path d="M5.6,207.2c-3.2,0.8-5.6,4-5.6,8v48c0,3.2,2.4,6.4,5.6,8l28.8,8c1.6,9.6,4,19.2,7.2,28l-20.8,21.6c-2.4,2.4-3.2,5.6-1.6,8.8
	c6.4,15.2,15.2,29.6,24.8,42.4c1.6,2.4,5.6,4,8.8,3.2l28.8-7.2c6.4,7.2,13.6,14.4,20.8,20.8l-8,27.2c-0.8,3.2,0,6.4,3.2,8.8
	c13.6,9.6,27.2,17.6,42.4,24.8c3.2,1.6,6.4,0.8,8.8-1.6l21.6-20.8c9.6,3.2,18.4,5.6,28,7.2l8,28.8c0.8,3.2,4,5.6,8,5.6h48
	c3.2,0,6.4-2.4,8-5.6l8-28.8c9.6-1.6,19.2-4,28-7.2L328,456c2.4,2.4,5.6,3.2,8.8,1.6c15.2-6.4,29.6-15.2,42.4-24.8
	c2.4-1.6,4-5.6,3.2-8.8l-8-28.8c7.2-6.4,14.4-13.6,20.8-20.8l28.8,7.2c3.2,0.8,6.4,0,8.8-3.2c9.6-13.6,17.6-27.2,24.8-42.4
	c1.6-3.2,0.8-6.4-1.6-8.8l-20.8-21.6c3.2-9.6,5.6-18.4,7.2-28l28.8-8c3.2-0.8,5.6-4,5.6-8v-48c0-3.2-2.4-6.4-5.6-8l-28.8-8
	c-1.6-9.6-4-19.2-7.2-28L456,148c2.4-2.4,3.2-5.6,1.6-8.8c-6.4-15.2-15.2-29.6-24.8-42.4c-1.6-2.4-5.6-4-8.8-3.2l-28.8,8.8
	c-6.4-8-12.8-14.4-20.8-20.8l8-28.8c0.8-3.2,0-6.4-3.2-8.8c-13.6-9.6-27.2-17.6-42.4-24.8c-3.2-1.6-6.4-0.8-8.8,1.6l-21.6,20.8
	c-9.6-3.2-18.4-5.6-28-7.2l-8-28.8c-0.8-3.2-4-5.6-8-5.6h-48c-3.2,0-6.4,2.4-8,5.6l-8,28.8c-9.6,1.6-19.2,4-28,7.2l-21.6-20.8
	c-2.4-2.4-5.6-3.2-8.8-1.6c-15.2,6.4-29.6,15.2-42.4,24.8c-2.4,1.6-4,5.6-3.2,8.8l7.2,28.8c-7.2,6.4-13.6,12.8-20,20.8l-28.8-8
	c-3.2-0.8-6.4,0-8.8,3.2c-9.6,13.6-17.6,27.2-24.8,42.4c-1.6,3.2-0.8,6.4,1.6,8.8l20.8,21.6c-3.2,9.6-5.6,18.4-7.2,28L5.6,207.2z
	 M56.8,163.2L36,142.4c4.8-10.4,11.2-20.8,17.6-30.4l28,7.2c3.2,0.8,6.4,0,8-2.4c8-9.6,16-18.4,25.6-25.6c2.4-1.6,3.2-4.8,2.4-8
	l-7.2-28c9.6-6.4,20-12.8,30.4-17.6l20.8,20.8c2.4,2.4,5.6,3.2,8,1.6c12.8-5.6,24.8-8.8,36.8-11.2c3.2-0.8,5.6-2.4,6.4-5.6l8-28H256
	l8,28c0.8,3.2,3.2,5.6,6.4,5.6c12,2.4,24,4.8,35.2,9.6c3.2,0.8,6.4,0.8,8-1.6L334.4,36c10.4,4.8,20.8,11.2,30.4,17.6l-6.4,28.8
	c-0.8,3.2,0,6.4,2.4,8c9.6,8,18.4,16,25.6,25.6c1.6,2.4,4.8,3.2,8,2.4l28-7.2c6.4,9.6,12.8,20,17.6,30.4l-20.8,20.8
	c-2.4,2.4-3.2,5.6-1.6,8c4,11.2,7.2,23.2,9.6,35.2c0.8,3.2,2.4,5.6,5.6,6.4l28,8v35.2l-28,8c-3.2,0.8-5.6,3.2-5.6,6.4
	c-2.4,12-4.8,24-9.6,35.2c-0.8,3.2,0,6.4,1.6,8l20.8,20.8c-4.8,10.4-11.2,20.8-17.6,30.4l-28-5.6c-3.2-0.8-6.4,0-8,2.4
	c-8,9.6-16,18.4-25.6,25.6c-2.4,1.6-3.2,4.8-2.4,8l7.2,28c-9.6,6.4-20,12.8-30.4,17.6l-20.8-20.8c-2.4-2.4-5.6-3.2-8-1.6
	c-12,4.8-24,8-36,10.4c-3.2,0.8-5.6,2.4-6.4,5.6l-8,28h-35.2l-8-28c-0.8-3.2-3.2-5.6-6.4-5.6c-12-2.4-24-4.8-35.2-9.6
	c-3.2-0.8-6.4-0.8-8,1.6l-20.8,20.8c-10.4-4.8-20.8-11.2-30.4-17.6l7.2-28c0.8-3.2,0-6.4-2.4-8c-9.6-8-18.4-16-25.6-25.6
	c-1.6-2.4-4.8-3.2-8-2.4l-28,7.2c-6.4-9.6-12.8-20-17.6-30.4l20.8-20.8c2.4-2.4,3.2-5.6,1.6-8c-5.6-12.8-8.8-24.8-11.2-36.8
	c-0.8-3.2-2.4-5.6-5.6-6.4l-28-8v-35.2l28-8c3.2-0.8,5.6-3.2,5.6-6.4c2.4-12,4.8-24,9.6-35.2C59.2,168,59.2,164.8,56.8,163.2z"/>
<path d="M238.4,398.4c88,0,160-72,160-160s-72-160-160-160s-160,72-160,160S150.4,398.4,238.4,398.4z M95.2,230.4
	c1.6-32.8,14.4-63.2,36.8-88l16.8,16.8L160,148l-17.6-16.8c24-21.6,55.2-34.4,88-36.8v24h16V95.2c32.8,1.6,63.2,14.4,88,36.8
	l-16.8,16.8l11.2,11.2l16.8-16.8c21.6,24,34.4,55.2,36.8,88h-24v16h23.2c-1.6,32.8-14.4,63.2-36.8,88L328,318.4l-11.2,11.2
	l16.8,16.8c-24,21.6-55.2,34.4-88,36.8v-24.8h-16v23.2c-32.8-1.6-63.2-14.4-88-36.8l16.8-16.8l-11.2-11.2l-16,17.6
	c-21.6-24-34.4-55.2-36.8-88h24v-16H95.2z"/>
<path d="M238.4,270.4c17.6,0,32-14.4,32-32c0-0.8,0-0.8,0-1.6l38.4-58.4c2.4-4,1.6-8.8-2.4-11.2c-2.4-1.6-6.4-1.6-8.8,0L240,206.4
	c-0.8,0-0.8,0-1.6,0c-17.6,0-32,14.4-32,32S220.8,270.4,238.4,270.4z M238.4,222.4c0.8,0,1.6,0,2.4,0c1.6,0,4,0,5.6-1.6l27.2-18.4
	l-18.4,28c-0.8,1.6-1.6,4-1.6,5.6c0,0.8,0,1.6,0,2.4c0,8.8-7.2,16-16,16c-8.8,0-16-7.2-16-16C222.4,229.6,229.6,222.4,238.4,222.4z"
	/>
<g>
</g>
<g>
</g>
<g>
</g>
<g>
</g>
<g>
</g>
<g>
</g>
<g>
</g>
<g>
</g>
<g>
</g>
<g>
</g>
<g>
</g>
<g>
</g>
<g>
</g>
<g>
</g>
<g>
</g>
</svg>
