<?xml version="1.0" encoding="iso-8859-1"?>
<!-- Generator: Adobe Illustrator 19.0.0, SVG Export Plug-In . SVG Version: 6.00 Build 0)  -->
<svg version="1.1" id="Capa_1" xmlns="http://www.w3.org/2000/svg" xmlns:xlink="http://www.w3.org/1999/xlink" x="0px" y="0px"
	 viewBox="0 0 480 480" style="enable-background:new 0 0 480 480;" xml:space="preserve">
<g>
	<circle style="fill:#FED966;" cx="416" cy="64" r="56"/>
	<circle style="fill:#FED966;" cx="408" cy="416" r="56"/>
	<path style="fill:#FED966;" d="M392,432c0,8.837,7.164,16,16,16c8.837,0,16-7.164,16-16c-0.001-22.04-32-9.992-32-31.999
		c0-8.837,7.163-16,16-16s16,7.163,16,16"/>
	<path style="fill:#FED966;" d="M400,80c0,8.837,7.164,16,16,16c8.837,0,16-7.164,16-16c-0.001-22.04-32-9.992-32-31.999
		c0-8.837,7.163-16,16-16s16,7.163,16,16"/>
</g>
<circle style="fill:#F59536;" cx="392" cy="240" r="56"/>
<path style="fill:#92B1F9;" d="M40,176h105.222c20.293,0,40.36-4.258,58.903-12.5L240,144v192l-35.875-19.5
	c-18.544-8.242-38.611-12.5-58.903-12.5H40L40,176z"/>
<path style="fill:#CAC2A8;" d="M8,208h32v64H8V208z"/>
<path style="fill:#7F7943;" d="M56,304h32v80H56V304z"/>
<g>
	<path style="fill:#FED966;" d="M264,176l72-48"/>
	<path style="fill:#FED966;" d="M264,304l72,56"/>
</g>
<path style="fill:#F59536;" d="M376,256c0,8.837,7.164,16,16,16c8.837,0,16-7.164,16-16c-0.001-22.04-32-9.992-32-31.999
	c0-8.837,7.163-16,16-16s16,7.163,16,16"/>
<path style="fill:#F73445;" d="M40,176h32v128H40V176z"/>
<path d="M8,280h24v24c-0.001,4.417,3.579,7.999,7.996,8c0.001,0,0.003,0,0.004,0h8v72c-0.001,4.417,3.579,7.999,7.996,8
	c0.001,0,0.003,0,0.004,0h32c4.417,0.001,7.999-3.579,8-7.996c0-0.001,0-0.003,0-0.004v-72h49.219
	c18.965-0.043,37.729,3.884,55.086,11.527l35.875,19.5c3.883,2.109,8.741,0.671,10.85-3.212c0.636-1.171,0.97-2.483,0.97-3.816V144
	c-0.002-4.419-3.586-8-8.005-7.998c-1.333,0.001-2.644,0.334-3.815,0.97l-35.305,19.215c-17.513,7.813-36.479,11.839-55.656,11.812
	H40c-4.417-0.001-7.999,3.579-8,7.996c0,0.001,0,0.003,0,0.004v24H8c-4.417-0.001-7.999,3.579-8,7.996c0,0.001,0,0.003,0,0.004v64
	c-0.001,4.417,3.579,7.999,7.996,8C7.997,280,7.999,280,8,280z M80,376H64v-64h16V376z M207.945,170.527L232,157.453v165.102
	l-24.625-13.367c-19.56-8.721-40.74-13.215-62.156-13.188H80V184h65.219C166.847,184.01,188.229,179.418,207.945,170.527z M48,184
	h16v112H48V184z M16,216h16v48H16V216z"/>
<path d="M259.6,169.347l72-48l8.875,13.312l-72,48L259.6,169.347z"/>
<path d="M264,232h48v16h-48V232z"/>
<path d="M259.066,310.318l9.827-12.634l72,56l-9.827,12.634L259.066,310.318z"/>
<path d="M416,0c-35.346,0-64,28.654-64,64s28.654,64,64,64s64-28.654,64-64C479.96,28.671,451.329,0.04,416,0z M368,64
	c0.04-23.398,16.932-43.363,40-47.277v8.752c-9.561,3.368-15.969,12.389-16,22.526c0,16.887,13.531,21.102,21.609,23.621
	C422.641,74.438,424,75.535,424,80c0,4.418-3.582,8-8,8s-8-3.582-8-8h-16c0.031,10.137,6.439,19.158,16,22.525v8.752
	C384.932,107.363,368.04,87.398,368,64z M424,111.277v-8.752c9.561-3.368,15.969-12.389,16-22.526
	c0-16.91-13.539-21.129-21.625-23.652C409.359,53.539,408,52.445,408,48c0-4.418,3.582-8,8-8s8,3.582,8,8h16
	c-0.031-10.137-6.439-19.158-16-22.526v-8.752c26.111,4.385,43.723,29.106,39.338,55.217
	C459.953,92.098,444.158,107.892,424,111.277z"/>
<path d="M392,176c-35.346,0-64,28.654-64,64s28.654,64,64,64s64-28.654,64-64C455.96,204.671,427.329,176.04,392,176z M344,240
	c0.04-23.398,16.932-43.363,40-47.277v8.752c-9.561,3.368-15.969,12.389-16,22.526c0,16.887,13.531,21.102,21.609,23.621
	C398.641,250.438,400,251.535,400,256c0,4.418-3.582,8-8,8s-8-3.582-8-8h-16c0.031,10.137,6.439,19.158,16,22.525v8.752
	C360.932,283.363,344.04,263.398,344,240z M400,287.277v-8.752c9.561-3.368,15.969-12.389,16-22.526
	c0-16.91-13.539-21.129-21.625-23.652C385.359,229.539,384,228.445,384,224c0-4.418,3.582-8,8-8s8,3.582,8,8h16
	c-0.031-10.137-6.439-19.158-16-22.526v-8.752c26.111,4.385,43.723,29.106,39.338,55.217
	C435.953,268.098,420.158,283.892,400,287.277L400,287.277z"/>
<path d="M472,416c0-35.346-28.654-64-64-64s-64,28.654-64,64s28.654,64,64,64C443.329,479.96,471.96,451.329,472,416z M360,416
	c0.04-23.398,16.932-43.363,40-47.277v8.752c-9.561,3.368-15.969,12.389-16,22.526c0,16.887,13.531,21.102,21.609,23.621
	C414.641,426.438,416,427.535,416,432c0,4.418-3.582,8-8,8s-8-3.582-8-8h-16c0.031,10.137,6.439,19.158,16,22.525v8.752
	C376.932,459.363,360.04,439.398,360,416L360,416z M416,463.277v-8.752c9.561-3.368,15.969-12.389,16-22.526
	c0-16.91-13.539-21.129-21.625-23.652C401.359,405.539,400,404.445,400,400c0-4.418,3.582-8,8-8s8,3.582,8,8h16
	c-0.031-10.137-6.439-19.158-16-22.526v-8.752c26.111,4.385,43.723,29.106,39.338,55.217
	C451.953,444.098,436.158,459.892,416,463.277L416,463.277z"/>
<g>
</g>
<g>
</g>
<g>
</g>
<g>
</g>
<g>
</g>
<g>
</g>
<g>
</g>
<g>
</g>
<g>
</g>
<g>
</g>
<g>
</g>
<g>
</g>
<g>
</g>
<g>
</g>
<g>
</g>
</svg>
