<?xml version="1.0" encoding="iso-8859-1"?>
<!-- Generator: Adobe Illustrator 19.0.0, SVG Export Plug-In . SVG Version: 6.00 Build 0)  -->
<svg version="1.1" id="Capa_1" xmlns="http://www.w3.org/2000/svg" xmlns:xlink="http://www.w3.org/1999/xlink" x="0px" y="0px"
	 viewBox="0 0 480 480" style="enable-background:new 0 0 480 480;" xml:space="preserve">
<path style="fill:#92B1F9;" d="M4,8h468v468H4V8z"/>
<g>
	<path style="fill:#F73445;" d="M368,184l-48-48l80-32L368,184z"/>
	<path style="fill:#F73445;" d="M128,328h32v72h-32V328z"/>
</g>
<path style="fill:#FED966;" d="M224,352h32v56h-32V352z"/>
<path style="fill:#F73445;" d="M312,288h32v48h-32V288z"/>
<path d="M472,0H0v16h48v24h16V16h48v24h16V16h48v24h16V16h48v24h16V16h48v24h16V16h56v24h16V16h72v72h-24v16h24v48h-24v16h24v48h-24
	v16h24v48h-24v16h24v48h-24v16h24v56h-24v16h24v48h16V8C480,3.582,476.418,0,472,0z"/>
<path d="M190.02,194.73c-2.909-3.324-7.961-3.661-11.285-0.752c-0.085,0.074-0.168,0.151-0.25,0.229l-168,160l11.031,11.586
	l161.957-154.246l50.508,57.723c1.458,1.666,3.541,2.653,5.754,2.727c2.216,0.095,4.369-0.756,5.922-2.34L344,171.312l18.344,18.344
	c3.126,3.125,8.192,3.124,11.317-0.002c0.765-0.765,1.367-1.677,1.769-2.682l32-80c1.64-4.105-0.359-8.763-4.464-10.402
	c-1.906-0.761-4.032-0.761-5.938,0l-80,32c-4.103,1.644-6.096,6.302-4.452,10.404c0.402,1.004,1.004,1.916,1.769,2.681L332.688,160
	l-92.297,92.297L190.02,194.73z M385.641,118.359l-20.562,51.406l-30.844-30.844L385.641,118.359z"/>
<path d="M152,432v-24h8c4.418,0,8-3.582,8-8v-72c0-4.418-3.582-8-8-8h-8v-24h-16v24h-8c-4.418,0-8,3.582-8,8v72c0,4.418,3.582,8,8,8
	h8v24H152z M136,336h16v56h-16V336z"/>
<path d="M248,448v-32h8c4.418,0,8-3.582,8-8v-56c0-4.418-3.582-8-8-8h-8v-24h-16v24h-8c-4.418,0-8,3.582-8,8v56c0,4.418,3.582,8,8,8
	h8v32H248z M232,360h16v40h-16V360z"/>
<path d="M336,376v-32h8c4.418,0,8-3.582,8-8v-48c0-4.418-3.582-8-8-8h-8v-16h-16v16h-8c-4.418,0-8,3.582-8,8v48c0,4.418,3.582,8,8,8
	h8v32H336z M320,296h16v32h-16V296z"/>
<g>
</g>
<g>
</g>
<g>
</g>
<g>
</g>
<g>
</g>
<g>
</g>
<g>
</g>
<g>
</g>
<g>
</g>
<g>
</g>
<g>
</g>
<g>
</g>
<g>
</g>
<g>
</g>
<g>
</g>
</svg>
