<?xml version="1.0" encoding="iso-8859-1"?>
<!-- Generator: Adobe Illustrator 19.0.0, SVG Export Plug-In . SVG Version: 6.00 Build 0)  -->
<svg version="1.1" id="Capa_1" xmlns="http://www.w3.org/2000/svg" xmlns:xlink="http://www.w3.org/1999/xlink" x="0px" y="0px"
	 viewBox="0 0 480 480" style="enable-background:new 0 0 480 480;" xml:space="preserve">
<path style="fill:#92B1F9;" d="M8,8h464v464H8V8z"/>
<circle style="fill:#FED966;" cx="240" cy="240" r="80"/>
<g>
	<path style="fill:#F73445;" d="M240,40l-32,48h64L240,40z"/>
	<path style="fill:#F73445;" d="M240,440l32-48h-64L240,440z"/>
	<path style="fill:#F73445;" d="M440,240l-48-32v64L440,240z"/>
	<path style="fill:#F73445;" d="M40,240l48,32v-64L40,240z"/>
</g>
<path d="M240,152c-48.601,0-88,39.399-88,88s39.399,88,88,88s88-39.399,88-88C327.945,191.422,288.578,152.055,240,152z M240,312
	c-39.764,0-72-32.236-72-72s32.236-72,72-72s72,32.236,72,72C311.957,279.747,279.747,311.957,240,312z"/>
<path d="M248,136V96h24c4.418,0,8-3.581,8-7.999c0-1.58-0.468-3.124-1.344-4.439l-32-48c-2.741-3.676-7.943-4.434-11.619-1.693
	c-0.643,0.48-1.214,1.05-1.693,1.693l-32,48c-2.451,3.676-1.458,8.642,2.217,11.093C204.875,95.533,206.42,96,208,96h24v40H248z
	 M240,54.422L257.055,80h-34.109L240,54.422z"/>
<path d="M192,0h96v16h-96V0z"/>
<path d="M232,344v40h-24c-4.418,0-8,3.581-8,7.999c0,1.58,0.468,3.124,1.344,4.439l32,48c2.451,3.676,7.417,4.67,11.093,2.219
	c0.879-0.586,1.633-1.34,2.219-2.219l32-48c2.451-3.676,1.459-8.642-2.217-11.093C275.125,384.467,273.58,384,272,384h-24v-40H232z
	 M240,425.578L222.945,400h34.109L240,425.578z"/>
<path d="M192,464h96v16h-96V464z"/>
<path d="M396.438,278.656l48-32c3.676-2.451,4.67-7.417,2.219-11.093c-0.586-0.879-1.34-1.633-2.219-2.219l-48-32
	c-3.676-2.451-8.642-1.459-11.093,2.217C384.467,204.875,384,206.42,384,208v24h-40v16h40v24c0,4.418,3.582,8,8,8
	C393.58,279.999,395.124,279.532,396.438,278.656z M400,222.945L425.578,240L400,257.055V222.945z"/>
<path d="M464,192h16v96h-16V192z"/>
<path d="M96,208c0-4.418-3.581-8-7.999-8c-1.58,0-3.124,0.468-4.439,1.344l-48,32c-3.676,2.451-4.67,7.417-2.219,11.093
	c0.586,0.879,1.34,1.633,2.219,2.219l48,32c3.676,2.451,8.642,1.458,11.093-2.217C95.533,275.125,96,273.58,96,272v-24h40v-16H96
	V208z M80,257.055L54.422,240L80,222.945V257.055z"/>
<path d="M0,192h16v96H0V192z"/>
<path d="M16,16h72V0H8C3.584-0.003,0.003,3.575,0,7.991C0,7.994,0,7.997,0,8v80h16V16z"/>
<path d="M472,0h-80v16h72v72h16V8c0.003-4.416-3.575-7.997-7.991-8C472.006,0,472.003,0,472,0z"/>
<path d="M464,464h-72v16h80c4.416,0.003,7.997-3.575,8-7.991c0-0.003,0-0.006,0-0.009v-80h-16V464z"/>
<path d="M16,392H0v80c-0.003,4.416,3.575,7.997,7.991,8c0.003,0,0.006,0,0.009,0h80v-16H16V392z"/>
<path d="M240,232c-4.418,0-8-3.582-8-8s3.582-8,8-8s8,3.582,8,8h16c-0.031-10.137-6.439-19.158-16-22.526V184h-16v17.474
	c-12.474,4.385-19.03,18.052-14.645,30.526c3.377,9.606,12.462,16.025,22.645,16c4.418,0,8,3.582,8,8s-3.582,8-8,8s-8-3.582-8-8h-16
	c0.031,10.137,6.439,19.158,16,22.525V296h16v-17.474c12.474-4.385,19.03-18.052,14.645-30.526
	C259.267,238.394,250.183,231.975,240,232z"/>
<g>
</g>
<g>
</g>
<g>
</g>
<g>
</g>
<g>
</g>
<g>
</g>
<g>
</g>
<g>
</g>
<g>
</g>
<g>
</g>
<g>
</g>
<g>
</g>
<g>
</g>
<g>
</g>
<g>
</g>
</svg>
