<?xml version="1.0" encoding="iso-8859-1"?>
<!-- Generator: Adobe Illustrator 19.0.0, SVG Export Plug-In . SVG Version: 6.00 Build 0)  -->
<svg version="1.1" id="Capa_1" xmlns="http://www.w3.org/2000/svg" xmlns:xlink="http://www.w3.org/1999/xlink" x="0px" y="0px"
	 viewBox="0 0 480.004 480.004" style="enable-background:new 0 0 480.004 480.004;" xml:space="preserve">
<g>
	<path style="fill:#DFDEED;" d="M240,40.004l-232-32l56,208l-48,216l224,40V40.004z"/>
	<path style="fill:#DFDEED;" d="M240,40.004l232-32L423.616,179.42L472,432.004l-232,40V40.004z"/>
</g>
<path style="fill:#F73445;" d="M64,56.004l136,24v40l-136-24V56.004z"/>
<path style="fill:#FED966;" d="M392,224.004l-120,24v40l120-24V224.004z"/>
<path style="fill:#92B1F9;" d="M152,238.124v40l56,9.88v-40L152,238.124z"/>
<path style="fill:#F59536;" d="M408,62.124v40l-56,9.88v-40L408,62.124z"/>
<path d="M478.032,2.754c-1.76-2.052-4.449-3.061-7.125-2.672L240,31.931L9.094,0.082C4.717-0.522,0.679,2.536,0.075,6.913
	c-0.146,1.059-0.079,2.137,0.199,3.169l55.492,206.102L8.188,430.27c-0.956,4.316,1.769,8.59,6.085,9.545
	c0.107,0.024,0.214,0.045,0.322,0.064l224,40c0.464,0.084,0.935,0.126,1.406,0.125c0.456,0,0.91-0.039,1.359-0.117l232-40
	c4.354-0.75,7.277-4.887,6.527-9.242c-0.009-0.05-0.018-0.099-0.027-0.149L431.829,179.77l47.867-169.594
	C480.431,7.58,479.805,4.788,478.032,2.754L478.032,2.754z M71.813,217.738c0.276-1.259,0.247-2.567-0.086-3.813L18.86,17.574
	L232,46.973v415.477L25.618,425.598L71.813,217.738z M415.922,177.246c-0.343,1.197-0.399,2.457-0.164,3.68l46.852,244.578
	l-214.609,37V46.973l212.977-29.375L415.922,177.246z"/>
<path d="M200,128.004c4.416-0.005,7.995-3.584,8-8v-40c0-3.881-2.787-7.202-6.609-7.875l-136-24
	c-2.329-0.425-4.727,0.217-6.531,1.75c-1.813,1.517-2.861,3.761-2.859,6.125v40c0,3.881,2.787,7.202,6.609,7.875l136,24
	C199.068,127.963,199.534,128.005,200,128.004L200,128.004z M192,110.465L72,89.293v-23.75l120,21.172V110.465z"/>
<path d="M273.571,295.848l120-24c3.737-0.75,6.427-4.032,6.43-7.844v-40c0-4.418-3.582-8-8.001-7.999
	c-0.527,0-1.053,0.052-1.57,0.156l-120,24c-3.737,0.75-6.427,4.032-6.43,7.844v40c0.001,4.418,3.582,7.999,8,8
	C272.528,296.002,273.053,295.95,273.571,295.848z M280,254.559l104-20.797v23.687l-104,20.797V254.559z"/>
<path d="M209.391,240.129l-56-9.883c-2.33-0.43-4.729,0.213-6.531,1.75c-1.813,1.517-2.861,3.761-2.859,6.125v40
	c0,3.881,2.787,7.202,6.609,7.875l56,9.883c0.459,0.084,0.924,0.126,1.391,0.125c4.416-0.005,7.995-3.584,8-8v-40
	C216.001,244.123,213.213,240.802,209.391,240.129z M200,278.465l-40-7.055v-23.75l40,7.055V278.465z"/>
<path d="M352,120.004c0.466,0.001,0.932-0.041,1.391-0.125l56-9.883c3.822-0.673,6.61-3.994,6.609-7.875v-40
	c-0.003-4.419-3.588-8-8.008-7.996c-0.464,0-0.926,0.041-1.383,0.121l-56,9.883c-3.822,0.673-6.61,3.994-6.609,7.875v40
	C344.005,116.42,347.584,119.999,352,120.004z M360,78.715l40-7.055v23.75l-40,7.055V78.715z"/>
<path d="M70.61,143.875l2.78-15.75l136,24.001l-2.78,15.75L70.61,143.875z"/>
<path d="M150.612,204.591l2.78-15.75l64,11.297l-2.78,15.75L150.612,204.591z"/>
<path d="M86.612,191.877l2.779-15.75l45.336,8l-2.779,15.75L86.612,191.877z"/>
<path d="M142.614,420.576l2.78-15.75l64,11.297l-2.78,15.75L142.614,420.576z"/>
<path d="M78.617,407.884l2.779-15.75l45.336,8l-2.779,15.75L78.617,407.884z"/>
<path d="M70.61,359.893l2.78-15.75l136,24.001l-2.78,15.75L70.61,359.893z"/>
<path d="M86.429,255.825l3.141-15.687l39.998,8.007l-3.141,15.687L86.429,255.825z"/>
<path d="M78.526,311.869l2.947-15.72l128,24l-2.947,15.72L78.526,311.869z"/>
<path d="M270.609,152.129l135.997-24.016l2.781,15.75l-135.997,24.016L270.609,152.129z"/>
<path d="M262.611,200.131l63.999-11.302l2.781,15.75l-63.999,11.302L262.611,200.131z"/>
<path d="M345.281,184.127l45.336-8l2.779,15.75l-45.336,8L345.281,184.127z"/>
<path d="M270.611,416.128l63.999-11.302l2.781,15.75l-63.999,11.302L270.611,416.128z"/>
<path d="M353.278,400.131l45.335-8.006l2.781,15.75l-45.335,8.006L353.278,400.131z"/>
<path d="M270.612,368.133l135.997-24.016l2.781,15.75l-135.997,24.016L270.612,368.133z"/>
<path d="M286.433,96.162l39.998-8.007l3.141,15.687l-39.998,8.008L286.433,96.162z"/>
<path d="M270.53,320.171l127.992-24.046l2.953,15.719L273.483,335.89L270.53,320.171z"/>
<g>
</g>
<g>
</g>
<g>
</g>
<g>
</g>
<g>
</g>
<g>
</g>
<g>
</g>
<g>
</g>
<g>
</g>
<g>
</g>
<g>
</g>
<g>
</g>
<g>
</g>
<g>
</g>
<g>
</g>
</svg>
