<?xml version="1.0" encoding="iso-8859-1"?>
<!-- Generator: Adobe Illustrator 19.0.0, SVG Export Plug-In . SVG Version: 6.00 Build 0)  -->
<svg version="1.1" id="Capa_1" xmlns="http://www.w3.org/2000/svg" xmlns:xlink="http://www.w3.org/1999/xlink" x="0px" y="0px"
	 viewBox="0 0 480 480" style="enable-background:new 0 0 480 480;" xml:space="preserve">
<path style="fill:#92B1F9;" d="M424.8,8H55.2C29.6,8,8,29.6,8,55.2l0,0V176c0,26.4,21.6,48,47.2,48h338.4
	c-4.8,12.8,1.6,26.4,14.4,30.4c12.8,4.8,26.4-1.6,30.4-14.4c2.4-5.6,1.6-12.8-0.8-18.4c20-5.6,34.4-24.8,34.4-45.6V55.2
	C472,29.6,450.4,8,424.8,8L424.8,8z"/>
<g>
	<path style="fill:#DFDEED;" d="M240,312c-115.2,0-208,72-208,160h416C448,384,355.2,312,240,312z"/>
	<path style="fill:#DFDEED;" d="M96,103.2V152H48v40h80c13.6,0,24-11.2,24-24V53.6c0-7.2-5.6-12.8-12.8-12.8c-2.4,0-4,0.8-6.4,1.6
		l-2.4,1.6C108.8,56.8,96,79.2,96,103.2z"/>
	<path style="fill:#DFDEED;" d="M384,103.2V152h48v40h-80c-13.6,0-24-11.2-24-24V53.6c0-7.2,5.6-12.8,12.8-12.8c2.4,0,4,0.8,6.4,1.6
		l2.4,1.6C371.2,56.8,384,79.2,384,103.2z"/>
</g>
<circle style="fill:#FED966;" cx="240" cy="120" r="56"/>
<path style="fill:#F73445;" d="M465.6,296.8c-6.4-6.4-16-6.4-22.4,0l0,0L432,308l-11.2-11.2c-6.4-6.4-16-6.4-22.4,0s-6.4,16,0,22.4
	l33.6,33.6l33.6-33.6C472,312.8,472,303.2,465.6,296.8L465.6,296.8z"/>
<path d="M208,368h-16c0,13.6-14.4,24-32,24s-32-10.4-32-24h-16c0,22.4,21.6,40,48,40S208,390.4,208,368z"/>
<path d="M448,480c4.8,0,8-3.2,8-8l0,0c0-92.8-96.8-168-216-168S24,379.2,24,472c0,4.8,3.2,8,8,8l0,0H448z M240,320
	c106.4,0,194.4,64,200,144H40C45.6,384,133.6,320,240,320z"/>
<path d="M320,392c-17.6,0-32-10.4-32-24h-16c0,22.4,21.6,40,48,40s48-17.6,48-40h-16C352,381.6,337.6,392,320,392z"/>
<path d="M240,432c-20,0-31.2-6.4-32-8h-16c0,16.8,24.8,24,48,24s48-7.2,48-24l-16-0.8C271.2,425.6,260,432,240,432z"/>
<path d="M149.6,36c-6.4-4-14.4-4-20.8,0l-2.4,1.6C102.4,51.2,88,76,88,104v40H48c-4.8,0-8,3.2-8,8l0,0v40c0,4.8,3.2,8,8,8l0,0h80
	c17.6,0,32-14.4,32-32V53.6C160,46.4,156,40,149.6,36z M144,168c0,8.8-7.2,16-16,16H56v-24h40c4.8,0,8-3.2,8-8l0,0v-48.8
	c0-21.6,11.2-41.6,30.4-52l2.4-1.6c1.6-0.8,3.2-0.8,4.8,0s2.4,2.4,2.4,4V168z"/>
<path d="M432,144h-40v-40.8c0-27.2-14.4-52.8-38.4-66.4l-2.4-1.6c-9.6-5.6-22.4-2.4-28,8c-2.4,3.2-3.2,7.2-3.2,10.4V168
	c0,17.6,14.4,32,32,32h80c4.8,0,8-3.2,8-8l0,0v-40C440,147.2,436.8,144,432,144L432,144z M424,184h-72c-8.8,0-16-7.2-16-16V53.6
	c0-1.6,0.8-3.2,2.4-4c0.8-0.8,1.6-0.8,2.4-0.8s1.6,0,2.4,0.8l2.4,1.6c18.4,10.4,30.4,30.4,30.4,52V152c0,4.8,3.2,8,8,8l0,0h40
	L424,184L424,184z"/>
<path d="M424.8,0H55.2C24.8,0,0,24.8,0,55.2V176c0,31.2,24.8,56,55.2,56H384c0,17.6,14.4,32,32,32s32-14.4,32-32
	c0-1.6,0-3.2-0.8-4.8c20-8.8,32-28.8,32.8-50.4V55.2C480,24.8,455.2,0,424.8,0z M464,176.8c0,17.6-12,32.8-28.8,37.6
	c-4,1.6-6.4,5.6-5.6,9.6v0.8c4,8,0.8,17.6-7.2,21.6s-17.6,0.8-21.6-7.2c-1.6-4-2.4-8.8-0.8-12.8s-0.8-8.8-4.8-10.4
	c-0.8,0-1.6-0.8-2.4-0.8H55.2C33.6,216,16,198.4,16,176.8V55.2C16,33.6,33.6,16,55.2,16H424c22.4,0,40,17.6,40,39.2V176.8z"/>
<path d="M471.2,291.2c-9.6-9.6-24.8-9.6-33.6,0l-5.6,5.6l-5.6-5.6c-9.6-9.6-24.8-9.6-33.6,0c-9.6,9.6-9.6,24.8,0,33.6l33.6,33.6
	c3.2,3.2,8,3.2,11.2,0l0,0l33.6-33.6C480.8,315.2,480.8,300.8,471.2,291.2L471.2,291.2z M460,313.6l-28,28l-28-28
	c-3.2-3.2-3.2-8,0-11.2s8-3.2,11.2,0l11.2,11.2c3.2,3.2,8,3.2,11.2,0l0,0l11.2-11.2c3.2-3.2,8-3.2,11.2,0
	C463.2,305.6,463.2,310.4,460,313.6L460,313.6z"/>
<path d="M240,56c-35.2,0-64,28.8-64,64s28.8,64,64,64s64-28.8,64-64S275.2,56,240,56z M192,120c0-23.2,16.8-43.2,40-47.2v8.8
	c-9.6,3.2-16,12-16,22.4c0,16.8,13.6,20.8,21.6,24c8.8,3.2,10.4,4,10.4,8c0,4.8-3.2,8-8,8s-8-3.2-8-8h-16c0,10.4,6.4,19.2,16,22.4
	v8.8C208.8,163.2,192,143.2,192,120z M248,167.2v-8.8c9.6-3.2,16-12,16-22.4c0-16.8-13.6-20.8-21.6-24c-8.8-3.2-10.4-4-10.4-8
	c0-4.8,3.2-8,8-8c4.8,0,8,3.2,8,8h16c0-10.4-6.4-19.2-16-22.4v-8.8c26.4,4,44,28.8,39.2,55.2C284,148,268,164,248,167.2z"/>
<g>
</g>
<g>
</g>
<g>
</g>
<g>
</g>
<g>
</g>
<g>
</g>
<g>
</g>
<g>
</g>
<g>
</g>
<g>
</g>
<g>
</g>
<g>
</g>
<g>
</g>
<g>
</g>
<g>
</g>
</svg>
