<?xml version="1.0" encoding="iso-8859-1"?>
<!-- Generator: Adobe Illustrator 19.0.0, SVG Export Plug-In . SVG Version: 6.00 Build 0)  -->
<svg version="1.1" id="Capa_1" xmlns="http://www.w3.org/2000/svg" xmlns:xlink="http://www.w3.org/1999/xlink" x="0px" y="0px"
	 viewBox="0 0 479.091 479.091" style="enable-background:new 0 0 479.091 479.091;" xml:space="preserve">
<path style="fill:#DFDEED;" d="M198.869,114.871c0.829-7.22,0.829-14.511,0-21.732l-17.544-7.742
	c-0.999-4.487-2.373-8.882-4.105-13.14l9.667-16.677c-3.534-6.308-7.755-12.205-12.585-17.585l-18.564,4.251
	c-3.395-2.985-7.035-5.679-10.884-8.051l-1.775-19.401c-6.452-3.024-13.229-5.303-20.197-6.791L110.23,22.684
	c-2.227-0.19-4.464-0.347-6.74-0.347s-4.512,0.158-6.739,0.347L84.1,8.005c-6.968,1.488-13.745,3.767-20.197,6.791l-1.775,19.401
	c-3.848,2.372-7.489,5.065-10.884,8.05l-18.564-4.251c-4.83,5.38-9.051,11.277-12.585,17.585l9.667,16.677
	c-1.733,4.258-3.106,8.653-4.105,13.14L8.113,93.139c-0.829,7.22-0.829,14.511,0,21.732l17.544,7.742
	c1,4.487,2.373,8.882,4.105,13.14l-9.668,16.677c3.534,6.308,7.755,12.205,12.585,17.585l18.564-4.251
	c3.394,2.986,7.035,5.679,10.884,8.051l1.775,19.401c6.452,3.024,13.229,5.303,20.197,6.791l12.651-14.679
	c2.227,0.19,4.464,0.347,6.74,0.347s4.512-0.158,6.739-0.347l12.651,14.679c6.968-1.489,13.744-3.767,20.197-6.791l1.775-19.4
	c3.848-2.372,7.489-5.065,10.884-8.05l18.564,4.251c4.83-5.38,9.051-11.277,12.585-17.585l-9.667-16.677
	c1.733-4.258,3.106-8.653,4.105-13.14L198.869,114.871z"/>
<circle style="fill:#FED966;" cx="103.491" cy="104.005" r="48"/>
<path style="fill:#DFDEED;" d="M470.972,97.06c0.691-6.017,0.691-12.093,0-18.11l-14.62-6.452c-0.833-3.739-1.977-7.402-3.421-10.95
	l8.056-13.897c-2.945-5.256-6.462-10.171-10.487-14.654l-15.47,3.543c-2.829-2.488-5.863-4.732-9.07-6.709l-1.48-16.167
	c-5.377-2.52-11.024-4.419-16.831-5.659l-10.543,12.232c-1.856-0.158-3.72-0.29-5.616-0.29s-3.76,0.131-5.616,0.29L375.332,8.005
	c-5.807,1.24-11.454,3.139-16.831,5.659l-1.479,16.167c-3.207,1.977-6.241,4.221-9.07,6.708l-15.47-3.543
	c-4.025,4.483-7.543,9.398-10.488,14.654l8.056,13.897c-1.444,3.548-2.588,7.211-3.421,10.95l-14.621,6.452
	c-0.691,6.017-0.691,12.093,0,18.11l14.62,6.452c0.833,3.739,1.978,7.402,3.421,10.95l-8.056,13.897
	c2.945,5.256,6.462,10.171,10.487,14.654l15.47-3.543c2.829,2.488,5.863,4.732,9.07,6.709l1.48,16.167
	c5.377,2.52,11.023,4.419,16.83,5.66l10.543-12.232c1.856,0.158,3.72,0.29,5.616,0.29s3.76-0.131,5.616-0.29l10.542,12.232
	c5.807-1.241,11.454-3.139,16.831-5.659l1.479-16.167c3.207-1.976,6.241-4.22,9.07-6.708l15.47,3.543
	c4.025-4.483,7.543-9.398,10.488-14.654l-8.056-13.897c1.444-3.548,2.588-7.211,3.421-10.95L470.972,97.06z"/>
<circle style="fill:#F73445;" cx="391.491" cy="88.005" r="32"/>
<path style="fill:#DFDEED;" d="M470.578,373.648c1.217-9.055,1.217-18.231,0-27.286l-16.703-3.51
	c-0.943-5.18-2.316-10.272-4.103-15.225l12.798-11.465c-3.603-8.36-8.214-16.248-13.731-23.489l-16.146,5.303
	c-3.412-4.022-7.148-7.757-11.17-11.169l5.304-16.147c-7.241-5.518-15.13-10.13-23.491-13.733l-11.466,12.797
	c-4.953-1.787-10.046-3.159-15.226-4.103l-3.511-16.703c-9.055-1.217-18.231-1.217-27.286,0l-3.51,16.703
	c-5.18,0.944-10.272,2.316-15.225,4.103l-11.465-12.798c-8.36,3.603-16.248,8.214-23.489,13.731l5.303,16.146
	c-4.022,3.412-7.757,7.148-11.169,11.17l-16.147-5.304c-5.518,7.241-10.129,15.13-13.732,23.49l12.797,11.466
	c-1.787,4.953-3.159,10.046-4.103,15.226l-16.703,3.511c-1.217,9.055-1.217,18.231,0,27.286l16.703,3.51
	c0.943,5.18,2.316,10.273,4.103,15.225l-12.798,11.465c3.603,8.36,8.214,16.248,13.731,23.489l16.146-5.303
	c3.412,4.022,7.148,7.757,11.17,11.169l-5.304,16.147c7.241,5.518,15.13,10.13,23.491,13.733l11.466-12.797
	c4.953,1.787,10.046,3.16,15.226,4.104l3.511,16.703c9.055,1.217,18.231,1.217,27.286,0l3.51-16.703
	c5.18-0.944,10.272-2.316,15.225-4.103l11.465,12.798c8.36-3.603,16.248-8.214,23.489-13.731l-5.303-16.146
	c4.022-3.412,7.757-7.148,11.169-11.17l16.147,5.304c5.518-7.241,10.13-15.13,13.733-23.491l-12.797-11.466
	c1.787-4.953,3.159-10.046,4.103-15.226L470.578,373.648z"/>
<circle style="fill:#4BA678;" cx="359.491" cy="360.005" r="64"/>
<path style="fill:#92B1F9;" d="M159.491,328.005v48l56-24L159.491,328.005z"/>
<path d="M4.881,85.817c-2.898,1.281-4.767,4.151-4.766,7.32v21.734c-0.002,3.169,1.867,6.039,4.766,7.32l13.961,6.157
	c0.633,2.344,1.32,4.562,2.086,6.703l-7.758,13.359c-1.414,2.443-1.438,5.449-0.062,7.914c3.822,6.823,8.386,13.203,13.609,19.024
	c1.939,2.176,4.911,3.12,7.75,2.461l14.687-3.36c1.711,1.367,3.497,2.685,5.359,3.953l1.422,15.547
	c0.264,2.841,2.02,5.326,4.609,6.523c7.001,3.279,14.353,5.748,21.914,7.359c2.852,0.603,5.805-0.397,7.703-2.609l10.25-11.898
	h6.156l10.25,11.898c1.519,1.767,3.733,2.783,6.063,2.781c0.551,0.001,1.101-0.057,1.641-0.172
	c7.561-1.612,14.913-4.081,21.914-7.359c2.592-1.199,4.348-3.688,4.609-6.531l1.422-15.539c1.852-1.266,3.648-2.586,5.359-3.953
	l14.688,3.359c2.839,0.662,5.813-0.283,7.75-2.461c5.224-5.82,9.788-12.2,13.609-19.024c1.375-2.465,1.351-5.471-0.062-7.914
	l-7.758-13.359c0.766-2.141,1.453-4.359,2.086-6.703l13.961-6.156c2.898-1.281,4.767-4.151,4.766-7.32V93.138
	c0.002-3.169-1.867-6.039-4.766-7.32l-13.961-6.157c-0.633-2.344-1.32-4.562-2.086-6.703l7.758-13.359
	c1.414-2.443,1.438-5.449,0.063-7.914c-3.822-6.823-8.386-13.204-13.609-19.024c-1.936-2.181-4.911-3.125-7.75-2.461l-14.687,3.36
	c-1.711-1.367-3.497-2.685-5.359-3.953l-1.422-15.547c-0.264-2.841-2.02-5.326-4.609-6.523c-7.001-3.279-14.353-5.748-21.914-7.359
	c-2.852-0.607-5.807,0.394-7.703,2.609l-10.25,11.899h-6.156L90.163,2.786c-1.894-2.217-4.851-3.219-7.703-2.609
	c-7.561,1.612-14.913,4.081-21.914,7.359c-2.592,1.199-4.348,3.688-4.609,6.531l-1.422,15.539c-1.852,1.266-3.648,2.586-5.359,3.953
	L34.467,30.2c-2.839-0.666-5.815,0.279-7.75,2.461c-5.224,5.82-9.788,12.2-13.609,19.024c-1.375,2.465-1.351,5.471,0.063,7.914
	l7.758,13.359c-0.766,2.141-1.453,4.359-2.086,6.703L4.881,85.817z M28.889,92.716c2.307-1.022,3.998-3.072,4.563-5.531
	c0.897-4.053,2.136-8.023,3.703-11.867c0.954-2.304,0.781-4.92-0.469-7.078l-7.32-12.617c1.911-3.035,4.001-5.954,6.257-8.742
	l13.828,3.164c2.514,0.585,5.155-0.084,7.086-1.797c3.063-2.689,6.345-5.117,9.812-7.258c2.134-1.322,3.523-3.57,3.75-6.07
	l1.344-14.68c3.193-1.296,6.459-2.405,9.781-3.32l9.461,10.984c1.52,1.765,3.733,2.78,6.063,2.781h13.484
	c2.329-0.001,4.542-1.016,6.063-2.781l9.461-10.984c3.325,0.915,6.593,2.024,9.789,3.32l1.344,14.695
	c0.232,2.496,1.62,4.74,3.75,6.062c3.467,2.135,6.747,4.561,9.805,7.25c1.93,1.713,4.572,2.383,7.086,1.797l13.828-3.164
	c2.257,2.788,4.347,5.707,6.258,8.742l-7.32,12.617c-1.249,2.158-1.423,4.774-0.469,7.078c1.567,3.844,2.806,7.814,3.703,11.867
	c0.565,2.459,2.255,4.509,4.563,5.531l12.773,5.633v11.313l-12.773,5.633c-2.307,1.022-3.998,3.072-4.563,5.531
	c-0.897,4.053-2.136,8.023-3.703,11.867c-0.954,2.304-0.781,4.92,0.469,7.078l7.32,12.617c-1.911,3.035-4.001,5.954-6.258,8.742
	l-13.828-3.164c-2.514-0.59-5.157,0.08-7.086,1.797c-3.063,2.689-6.345,5.117-9.812,7.258c-2.134,1.322-3.523,3.57-3.75,6.07
	l-1.344,14.68c-3.193,1.296-6.459,2.405-9.781,3.32l-9.461-10.984c-1.52-1.765-3.733-2.78-6.063-2.781H96.748
	c-2.329,0.001-4.542,1.016-6.063,2.781l-9.461,10.984c-3.325-0.915-6.593-2.024-9.789-3.32l-1.344-14.695
	c-0.232-2.496-1.62-4.74-3.75-6.062c-3.467-2.135-6.747-4.561-9.805-7.25c-1.929-1.716-4.572-2.386-7.086-1.797l-13.828,3.164
	c-2.257-2.788-4.346-5.707-6.258-8.742l7.32-12.617c1.249-2.158,1.423-4.774,0.469-7.078c-1.567-3.844-2.806-7.814-3.703-11.867
	c-0.565-2.459-2.255-4.509-4.563-5.531l-12.773-5.633V98.349L28.889,92.716z"/>
<path d="M103.491,160.005c30.928,0,56-25.072,56-56s-25.072-56-56-56s-56,25.072-56,56
	C47.528,134.917,72.578,159.968,103.491,160.005z M103.491,64.005c22.091,0,40,17.909,40,40s-17.909,40-40,40s-40-17.909-40-40
	C63.517,81.924,81.41,64.031,103.491,64.005z"/>
<path d="M308.78,71.63c-2.902,1.277-4.775,4.149-4.773,7.32v18.109c-0.002,3.171,1.871,6.043,4.773,7.32l11.047,4.875
	c0.43,1.547,0.898,3.031,1.398,4.477l-6.156,10.61c-1.414,2.446-1.438,5.454-0.063,7.922c3.238,5.767,7.1,11.161,11.516,16.086
	c1.937,2.178,4.911,3.123,7.75,2.461l11.609-2.664c1.141,0.898,2.32,1.766,3.523,2.602l1.125,12.328
	c0.258,2.845,2.016,5.335,4.609,6.531c5.93,2.77,12.154,4.859,18.555,6.227c2.852,0.604,5.806-0.396,7.703-2.609l8.141-9.453h3.906
	l8.141,9.453c1.519,1.767,3.733,2.783,6.062,2.781c0.551,0.001,1.101-0.057,1.641-0.172c6.4-1.368,12.625-3.456,18.555-6.227
	c2.594-1.196,4.351-3.687,4.609-6.531l1.125-12.328c1.203-0.836,2.375-1.701,3.516-2.594l11.625,2.656
	c2.837,0.658,5.806-0.286,7.742-2.461c4.415-4.925,8.277-10.319,11.516-16.086c1.375-2.468,1.351-5.476-0.063-7.922l-6.156-10.609
	c0.5-1.445,0.969-2.93,1.398-4.477l11.047-4.875c2.902-1.277,4.775-4.149,4.773-7.32V78.95c0.002-3.171-1.871-6.043-4.773-7.32
	l-11.047-4.875c-0.43-1.547-0.898-3.031-1.398-4.477l6.156-10.609c1.414-2.446,1.438-5.454,0.063-7.922
	c-3.238-5.767-7.1-11.161-11.516-16.086c-1.935-2.177-4.905-3.122-7.742-2.461l-11.625,2.656c-1.141-0.891-2.313-1.755-3.516-2.594
	l-1.125-12.328c-0.258-2.844-2.015-5.335-4.609-6.531c-5.93-2.77-12.154-4.859-18.555-6.227c-2.852-0.609-5.809,0.392-7.703,2.609
	l-8.141,9.453h-3.906l-8.141-9.453c-1.893-2.219-4.851-3.221-7.703-2.609c-6.4,1.368-12.625,3.456-18.555,6.227
	c-2.594,1.196-4.351,3.687-4.609,6.531l-1.125,12.328c-1.203,0.836-2.375,1.701-3.516,2.594L334.264,25.2
	c-2.837-0.657-5.805,0.287-7.742,2.461c-4.417,4.924-8.276,10.322-11.508,16.094c-1.375,2.465-1.351,5.471,0.062,7.914l6.148,10.601
	c-0.5,1.445-0.966,2.94-1.398,4.484L308.78,71.63z M320.006,84.161l9.852-4.344c2.318-1.019,4.014-3.077,4.57-5.547
	c0.732-3.3,1.741-6.533,3.016-9.664c0.954-2.304,0.781-4.92-0.469-7.078l-5.688-9.812c1.281-1.992,2.672-3.945,4.164-5.836
	l10.719,2.453c2.509,0.58,5.143-0.089,7.07-1.797c2.492-2.186,5.162-4.159,7.984-5.898c2.14-1.322,3.535-3.573,3.766-6.078
	l1.039-11.422c2.148-0.844,4.305-1.578,6.453-2.188l7.328,8.508c1.52,1.765,3.733,2.78,6.062,2.781h11.234
	c2.329-0.001,4.543-1.016,6.063-2.781l7.328-8.508c2.148,0.609,4.305,1.344,6.453,2.188l1.039,11.422
	c0.231,2.505,1.626,4.756,3.766,6.078c2.822,1.739,5.492,3.712,7.984,5.898c1.926,1.71,4.562,2.38,7.07,1.797l10.719-2.453
	c1.492,1.891,2.883,3.838,4.172,5.844l-5.695,9.813c-1.249,2.161-1.423,4.78-0.469,7.086c1.276,3.125,2.285,6.353,3.016,9.648
	c0.557,2.47,2.253,4.528,4.57,5.547l9.852,4.344v7.688l-9.852,4.344c-2.318,1.019-4.014,3.077-4.57,5.547
	c-0.731,3.296-1.74,6.523-3.016,9.648c-0.954,2.306-0.781,4.925,0.469,7.086l5.695,9.813c-1.289,2-2.68,3.948-4.172,5.844
	l-10.719-2.453c-2.509-0.587-5.146,0.083-7.07,1.797c-2.492,2.186-5.162,4.159-7.984,5.898c-2.14,1.322-3.535,3.573-3.766,6.078
	l-1.039,11.422c-2.148,0.844-4.305,1.578-6.453,2.188l-7.328-8.508c-1.52-1.765-3.733-2.78-6.062-2.781h-11.234
	c-2.329,0.001-4.542,1.017-6.062,2.781l-7.328,8.508c-2.148-0.609-4.305-1.344-6.453-2.188l-1.039-11.422
	c-0.231-2.505-1.625-4.756-3.766-6.078c-2.821-1.737-5.489-3.711-7.977-5.898c-1.937-1.702-4.571-2.373-7.086-1.805l-10.711,2.453
	c-1.492-1.883-2.883-3.836-4.172-5.836l5.695-9.813c1.249-2.161,1.423-4.78,0.469-7.086c-1.276-3.125-2.285-6.353-3.016-9.648
	c-0.557-2.47-2.253-4.528-4.57-5.547l-9.852-4.344L320.006,84.161z"/>
<path d="M391.491,128.005c22.091,0,40-17.909,40-40s-17.909-40-40-40s-40,17.909-40,40
	C351.517,110.086,369.41,127.979,391.491,128.005z M391.491,64.005c13.255,0,24,10.745,24,24s-10.745,24-24,24s-24-10.745-24-24
	C367.505,74.756,378.242,64.019,391.491,64.005z"/>
<path d="M373.131,479.091c3.783-0.001,7.048-2.65,7.828-6.352l2.438-11.594c2.008-0.477,4.016-1.016,6.008-1.617l7.969,8.891
	c2.281,2.559,5.943,3.373,9.094,2.023c8.956-3.859,17.408-8.794,25.172-14.695c2.737-2.061,3.858-5.636,2.789-8.891l-3.672-11.18
	c1.508-1.422,2.984-2.898,4.406-4.406l11.172,3.672c3.251,1.061,6.817-0.056,8.883-2.781c5.911-7.763,10.852-16.218,14.711-25.18
	c1.344-3.152,0.53-6.809-2.023-9.094l-8.898-7.969c0.609-1.992,1.148-4,1.625-6.008l11.594-2.438
	c3.701-0.78,6.351-4.045,6.352-7.828v-27.281c-0.001-3.783-2.65-7.048-6.352-7.828l-11.594-2.438
	c-0.477-2.008-1.016-4.016-1.617-6.008l8.891-7.969c2.553-2.285,3.367-5.942,2.023-9.094c-3.859-8.956-8.794-17.408-14.695-25.172
	c-2.066-2.73-5.635-3.85-8.891-2.789l-11.18,3.672c-1.422-1.508-2.898-2.984-4.406-4.406l3.672-11.172
	c1.069-3.251-0.049-6.822-2.781-8.883c-7.763-5.911-16.218-10.852-25.18-14.711c-3.153-1.33-6.802-0.518-9.094,2.023l-7.969,8.898
	c-1.992-0.609-4-1.148-6.008-1.625l-2.438-11.594c-0.78-3.701-4.045-6.351-7.828-6.352H345.85c-3.783,0.001-7.048,2.65-7.828,6.352
	l-2.438,11.594c-2.008,0.477-4.016,1.016-6.008,1.617l-7.969-8.891c-2.291-2.542-5.941-3.354-9.094-2.023
	c-8.956,3.859-17.408,8.794-25.172,14.695c-2.737,2.061-3.858,5.636-2.789,8.891l3.672,11.18c-1.508,1.422-2.984,2.898-4.406,4.406
	l-11.172-3.672c-3.251-1.053-6.813,0.062-8.883,2.781c-5.911,7.763-10.852,16.218-14.711,25.18c-1.344,3.152-0.53,6.809,2.023,9.094
	l8.898,7.969c-0.609,1.992-1.148,4-1.625,6.008l-11.594,2.438c-3.701,0.78-6.351,4.045-6.352,7.828v27.281
	c0.001,3.783,2.65,7.048,6.352,7.828l11.594,2.438c0.477,2.008,1.016,4.016,1.617,6.008l-8.891,7.969
	c-2.553,2.285-3.367,5.942-2.023,9.094c3.859,8.956,8.794,17.408,14.695,25.172c2.066,2.73,5.635,3.85,8.891,2.789l11.18-3.672
	c1.422,1.508,2.898,2.984,4.406,4.406l-3.672,11.172c-1.069,3.251,0.049,6.822,2.781,8.883c7.763,5.911,16.218,10.852,25.18,14.711
	c3.151,1.351,6.813,0.536,9.094-2.023l7.969-8.898c1.992,0.609,4,1.148,6.008,1.625l2.438,11.594
	c0.78,3.701,4.045,6.351,7.828,6.352L373.131,479.091z M329.811,442.755c-3.066-1.084-6.484-0.218-8.664,2.195l-7.516,8.391
	c-4.168-2.087-8.193-4.449-12.047-7.07l3.477-10.57c1.016-3.097,0.055-6.501-2.43-8.609c-3.691-3.122-7.117-6.545-10.242-10.234
	c-2.113-2.474-5.508-3.43-8.602-2.422l-10.562,3.477c-2.623-3.854-4.985-7.878-7.07-12.047l8.391-7.523
	c2.429-2.174,3.297-5.604,2.195-8.672c-1.64-4.53-2.897-9.19-3.758-13.93c-0.579-3.203-3.041-5.737-6.227-6.406l-10.352-2.18
	v-14.297l10.352-2.18c3.186-0.67,5.648-3.203,6.227-6.406c0.864-4.745,2.121-9.409,3.758-13.946
	c1.102-3.066,0.233-6.493-2.195-8.664l-8.391-7.515c2.087-4.168,4.449-8.193,7.07-12.047l10.57,3.477
	c3.097,1.011,6.498,0.051,8.609-2.43c3.122-3.691,6.545-7.117,10.234-10.242c2.479-2.11,3.436-5.509,2.422-8.602l-3.477-10.562
	c3.854-2.623,7.878-4.985,12.047-7.07l7.523,8.391c2.177,2.424,5.604,3.291,8.672,2.195c4.53-1.64,9.19-2.897,13.93-3.758
	c3.203-0.579,5.737-3.041,6.406-6.227l2.18-10.352h14.297l2.18,10.352c0.67,3.186,3.203,5.648,6.406,6.227
	c4.745,0.864,9.409,2.121,13.945,3.758c3.066,1.098,6.491,0.23,8.664-2.195l7.516-8.391c4.168,2.087,8.193,4.449,12.047,7.07
	l-3.477,10.57c-1.016,3.097-0.055,6.501,2.43,8.609c3.691,3.122,7.117,6.545,10.242,10.234c2.117,2.466,5.508,3.421,8.602,2.422
	l10.562-3.477c2.623,3.854,4.985,7.878,7.07,12.047l-8.391,7.523c-2.429,2.174-3.297,5.604-2.195,8.672
	c1.64,4.53,2.897,9.19,3.758,13.93c0.579,3.203,3.041,5.737,6.227,6.406l10.352,2.18v14.297l-10.351,2.179
	c-3.186,0.67-5.648,3.203-6.227,6.406c-0.864,4.745-2.121,9.409-3.758,13.946c-1.102,3.066-0.233,6.493,2.195,8.664l8.391,7.516
	c-2.087,4.168-4.449,8.193-7.07,12.047l-10.57-3.477c-3.097-1.011-6.498-0.051-8.609,2.43c-3.122,3.691-6.545,7.117-10.234,10.242
	c-2.479,2.11-3.436,5.509-2.422,8.602l3.477,10.562c-3.854,2.623-7.878,4.985-12.047,7.07l-7.523-8.391
	c-2.179-2.421-5.604-3.288-8.672-2.195c-4.53,1.64-9.19,2.897-13.93,3.758c-3.203,0.579-5.737,3.041-6.406,6.227l-2.18,10.352
	h-14.297l-2.18-10.352c-0.67-3.186-3.203-5.648-6.406-6.227C339.012,445.649,334.347,444.392,329.811,442.755L329.811,442.755z"/>
<path d="M431.491,360.005c0-39.764-32.236-72-72-72s-72,32.236-72,72s32.236,72,72,72l0,0
	C399.237,431.962,431.447,399.752,431.491,360.005z M303.491,360.005c0-30.928,25.072-56,56-56s56,25.072,56,56s-25.072,56-56,56
	l0,0C328.578,415.968,303.528,390.917,303.491,360.005z"/>
<path d="M223.491,88.005h64v16h-64V88.005z"/>
<path d="M218.639,344.653l-56-24c-4.057-1.742-8.758,0.135-10.5,4.192c-0.429,0.998-0.649,2.073-0.648,3.159v16h-96v-128h-16v136
	c-0.003,4.416,3.575,7.997,7.991,8c0.003,0,0.006,0,0.009,0h104v16c-0.003,4.415,3.574,7.997,7.989,8c0.004,0,0.007,0,0.011,0
	c1.083,0.002,2.155-0.218,3.148-0.648l56-24c4.06-1.736,5.944-6.435,4.208-10.496C222.038,346.97,220.531,345.463,218.639,344.653
	L218.639,344.653z M167.491,363.872v-23.734l27.688,11.867L167.491,363.872z"/>
<path d="M385.342,330.88l-34.391,41.273l-17.805-17.804l-11.312,11.312l24,24c1.498,1.503,3.534,2.346,5.656,2.344
	c0.117,0,0.242,0,0.359-0.008c2.247-0.101,4.347-1.141,5.789-2.867l40-48L385.342,330.88z"/>
<g>
</g>
<g>
</g>
<g>
</g>
<g>
</g>
<g>
</g>
<g>
</g>
<g>
</g>
<g>
</g>
<g>
</g>
<g>
</g>
<g>
</g>
<g>
</g>
<g>
</g>
<g>
</g>
<g>
</g>
</svg>
