<?xml version="1.0" encoding="iso-8859-1"?>
<!-- Generator: Adobe Illustrator 19.0.0, SVG Export Plug-In . SVG Version: 6.00 Build 0)  -->
<svg version="1.1" id="Capa_1" xmlns="http://www.w3.org/2000/svg" xmlns:xlink="http://www.w3.org/1999/xlink" x="0px" y="0px"
	 viewBox="0 0 480 480" style="enable-background:new 0 0 480 480;" xml:space="preserve">
<circle style="fill:#92B1F9;" cx="240" cy="255.858" r="192"/>
<path style="fill:#FED966;" d="M240,7.858l-69.28,120h138.56L240,7.858z"/>
<path style="fill:#4BA678;" d="M344,343.858h128v128H344V343.858z"/>
<circle style="fill:#F73445;" cx="72" cy="407.858" r="64"/>
<path d="M246.93,3.858c-2.544-3.827-7.708-4.868-11.536-2.324c-0.921,0.612-1.711,1.402-2.324,2.324l-69.281,120
	c-2.209,3.826-0.898,8.719,2.928,10.928c1.217,0.702,2.597,1.072,4.001,1.072h138.563c4.418,0.001,8.001-3.58,8.001-7.999
	c0-1.405-0.369-2.785-1.072-4.001L246.93,3.858z M184.574,119.858l55.426-96l55.426,96H184.574z"/>
<path d="M472,335.858H344c-4.417-0.001-7.999,3.579-8,7.996c0,0.001,0,0.003,0,0.004v128c-0.001,4.417,3.579,7.999,7.996,8
	c0.001,0,0.003,0,0.004,0h128c4.417,0.001,7.999-3.579,8-7.996c0-0.001,0-0.003,0-0.004v-128c0.001-4.417-3.579-7.999-7.996-8
	C472.003,335.858,472.001,335.858,472,335.858z M464,463.858H352v-112h112V463.858z"/>
<path d="M72,335.858c-39.765,0-72,32.236-72,72s32.235,72,72,72s72-32.236,72-72C143.955,368.112,111.746,335.903,72,335.858z
	 M72,463.858c-30.928,0-56-25.072-56-56s25.072-56,56-56s56,25.072,56,56C127.964,438.771,102.913,463.822,72,463.858z"/>
<path d="M163.336,88.538l-6.672-14.547C62.627,117.189,16.991,224.92,51.383,322.522l15.086-5.328
	C34.834,227.396,76.822,128.284,163.336,88.538z"/>
<path d="M240,439.858c-25.347,0.054-50.428-5.166-73.648-15.328l-6.406,14.656c49.31,21.464,105.173,22.233,155.055,2.133l-6-14.828
	C287.079,435.36,263.647,439.899,240,439.858L240,439.858z"/>
<path d="M424,255.858c0.015,18.185-2.664,36.272-7.949,53.672l15.305,4.656c27.431-90.311-11.918-187.518-94.447-233.317
	l0.002-0.003c-1.734-0.961-3.488-1.906-5.254-2.813l-7.312,14.234c1.609,0.828,3.204,1.682,4.785,2.562l3.891-6.992l-3.883,6.992
	C387.648,127.313,423.96,188.945,424,255.858z"/>
<g>
</g>
<g>
</g>
<g>
</g>
<g>
</g>
<g>
</g>
<g>
</g>
<g>
</g>
<g>
</g>
<g>
</g>
<g>
</g>
<g>
</g>
<g>
</g>
<g>
</g>
<g>
</g>
<g>
</g>
</svg>
