<?xml version="1.0" encoding="iso-8859-1"?>
<!-- Generator: Adobe Illustrator 19.0.0, SVG Export Plug-In . SVG Version: 6.00 Build 0)  -->
<svg version="1.1" id="Capa_1" xmlns="http://www.w3.org/2000/svg" xmlns:xlink="http://www.w3.org/1999/xlink" x="0px" y="0px"
	 viewBox="0 0 480.12 480.12" style="enable-background:new 0 0 480.12 480.12;" xml:space="preserve">
<circle style="fill:#FED966;" cx="96.063" cy="240.12" r="80"/>
<g>
	<circle style="fill:#92B1F9;" cx="424.063" cy="32.12" r="24"/>
	<path style="fill:#92B1F9;" d="M424.063,56.12c22.091,0,40,17.909,40,40v40l0,0h-80l0,0v-40
		C384.063,74.028,401.971,56.12,424.063,56.12z"/>
</g>
<g>
	<circle style="fill:#F59536;" cx="424.063" cy="200.12" r="24"/>
	<path style="fill:#F59536;" d="M424.063,224.12c22.091,0,40,17.909,40,40v40l0,0h-80l0,0v-40
		C384.063,242.028,401.971,224.12,424.063,224.12z"/>
</g>
<g>
	<circle style="fill:#4BA678;" cx="424.063" cy="368.12" r="24"/>
	<path style="fill:#4BA678;" d="M424.063,392.12c22.091,0,40,17.909,40,40v40l0,0h-80l0,0v-40
		C384.063,410.028,401.971,392.12,424.063,392.12z"/>
</g>
<g>
	<path style="fill:#F73445;" d="M296.063,32.12v48l48-24L296.063,32.12z"/>
	<path style="fill:#F73445;" d="M296.063,216.12v48l48-24L296.063,216.12z"/>
	<path style="fill:#F73445;" d="M296.063,400.12v48l48-24L296.063,400.12z"/>
</g>
<path d="M96.063,328.12c45.469-0.064,83.419-34.723,87.595-80h56.405v176c-0.001,4.417,3.579,7.999,7.996,8c0.001,0,0.003,0,0.004,0
	h40v16c0.001,4.419,3.584,8.001,8.003,8c1.241,0,2.465-0.289,3.575-0.844l48-24c3.952-1.977,5.553-6.784,3.576-10.736
	c-0.774-1.547-2.029-2.802-3.576-3.576l-48-24c-3.952-1.976-8.758-0.373-10.734,3.579c-0.555,1.111-0.844,2.336-0.844,3.577v16h-32
	v-168h32v16c0.001,4.419,3.584,8.001,8.003,8c1.241,0,2.465-0.289,3.575-0.844l48-24c3.952-1.977,5.553-6.784,3.576-10.736
	c-0.774-1.547-2.029-2.802-3.576-3.576l-48-24c-3.952-1.976-8.758-0.373-10.734,3.579c-0.555,1.111-0.844,2.336-0.844,3.577v16h-32
	v-168h32v16c0.001,4.419,3.584,8.001,8.003,8c1.241,0,2.465-0.289,3.575-0.844l48-24c3.952-1.977,5.553-6.784,3.576-10.736
	c-0.774-1.547-2.029-2.802-3.576-3.576l-48-24c-3.952-1.976-8.758-0.373-10.734,3.579c-0.555,1.111-0.844,2.336-0.844,3.577v16h-40
	c-4.417-0.001-7.999,3.579-8,7.996c0,0.001,0,0.003,0,0.004v176h-56.405c-4.429-48.388-47.246-84.024-95.634-79.595
	S4,199.771,8.429,248.159C12.575,293.46,50.572,328.13,96.063,328.12L96.063,328.12z M304.063,413.065l22.113,11.055l-22.113,11.055
	V413.065z M304.063,229.065l22.113,11.055l-22.113,11.055V229.065z M304.063,45.065l22.113,11.055l-22.113,11.055V45.065z
	 M96.063,168.12c39.764,0,72,32.236,72,72s-32.236,72-72,72s-72-32.236-72-72C24.107,200.374,56.317,168.165,96.063,168.12z"/>
<path d="M472.063,96.12c-0.015-17.488-9.535-33.586-24.853-42.024c12.203-12.784,11.732-33.04-1.051-45.243
	c-12.784-12.203-33.04-11.732-45.243,1.051c-11.804,12.366-11.804,31.826,0,44.191c-15.318,8.438-24.838,24.536-24.853,42.024v40
	c-0.001,4.417,3.579,7.999,7.996,8c0.001,0,0.003,0,0.004,0h80c4.417,0.001,7.999-3.579,8-7.996c0-0.001,0-0.003,0-0.004
	L472.063,96.12z M408.063,32.12c0-8.837,7.163-16,16-16s16,7.163,16,16s-7.163,16-16,16C415.23,48.11,408.073,40.952,408.063,32.12z
	 M456.063,128.12h-64v-32c0-17.673,14.327-32,32-32s32,14.327,32,32V128.12z"/>
<path d="M472.063,264.12c-0.015-17.488-9.535-33.586-24.853-42.024c12.203-12.784,11.732-33.04-1.051-45.243
	c-12.784-12.203-33.04-11.732-45.243,1.051c-11.804,12.366-11.804,31.826,0,44.191c-15.318,8.438-24.838,24.536-24.853,42.024v40
	c-0.001,4.417,3.579,7.999,7.996,8c0.001,0,0.003,0,0.004,0h80c4.417,0.001,7.999-3.579,8-7.996c0-0.001,0-0.003,0-0.004
	L472.063,264.12z M408.063,200.12c0-8.837,7.163-16,16-16s16,7.163,16,16s-7.163,16-16,16
	C415.23,216.11,408.073,208.952,408.063,200.12z M456.063,296.12h-64v-32c0-17.673,14.327-32,32-32s32,14.327,32,32V296.12z"/>
<path d="M384.063,480.12h80c4.417,0.001,7.999-3.579,8-7.996c0-0.001,0-0.003,0-0.004v-40c-0.015-17.488-9.535-33.586-24.853-42.024
	c12.203-12.784,11.732-33.04-1.051-45.243c-12.784-12.203-33.04-11.732-45.243,1.051c-11.804,12.366-11.804,31.826,0,44.191
	c-15.318,8.438-24.838,24.536-24.853,42.024v40c-0.001,4.417,3.579,7.999,7.996,8C384.06,480.12,384.061,480.12,384.063,480.12
	L384.063,480.12z M408.063,368.12c0-8.837,7.163-16,16-16s16,7.163,16,16s-7.163,16-16,16
	C415.23,384.11,408.073,376.952,408.063,368.12z M392.063,432.12c0-17.673,14.327-32,32-32s32,14.327,32,32v32h-64V432.12z"/>
<path d="M96.063,264.12c-4.416-0.004-7.996-3.584-8-8h-16c0.031,10.137,6.439,19.158,16,22.525v17.475h16v-17.474
	c9.561-3.368,15.969-12.389,16-22.526c0-16.906-13.539-21.133-21.629-23.648c-9.016-2.813-10.371-3.906-10.371-8.352
	c0-4.418,3.582-8,8-8s8,3.582,8,8h16c-0.031-10.137-6.439-19.158-16-22.526V184.12h-16v17.474c-9.561,3.368-15.969,12.389-16,22.526
	c0,16.883,13.527,21.102,21.609,23.625c9.031,2.812,10.391,3.906,10.391,8.375C104.058,260.536,100.479,264.115,96.063,264.12z"/>
<g>
</g>
<g>
</g>
<g>
</g>
<g>
</g>
<g>
</g>
<g>
</g>
<g>
</g>
<g>
</g>
<g>
</g>
<g>
</g>
<g>
</g>
<g>
</g>
<g>
</g>
<g>
</g>
<g>
</g>
</svg>
