<?xml version="1.0" encoding="iso-8859-1"?>
<!-- Generator: Adobe Illustrator 19.0.0, SVG Export Plug-In . SVG Version: 6.00 Build 0)  -->
<svg version="1.1" id="Capa_1" xmlns="http://www.w3.org/2000/svg" xmlns:xlink="http://www.w3.org/1999/xlink" x="0px" y="0px"
	 viewBox="0 0 480 480" style="enable-background:new 0 0 480 480;" xml:space="preserve">
<g>
	<circle style="fill:#4BA678;" cx="48" cy="360" r="32"/>
	<path style="fill:#4BA678;" d="M39.2,392H56c17.6,0,31.2,14.4,31.2,31.2V472l0,0H8l0,0v-48.8C8,406.4,22.4,392,39.2,392z"/>
</g>
<g>
	<circle style="fill:#F59536;" cx="176" cy="360" r="32"/>
	<path style="fill:#F59536;" d="M167.2,392H184c17.6,0,31.2,14.4,31.2,31.2l0,0V472l0,0H136l0,0v-48.8
		C136,406.4,150.4,392,167.2,392z"/>
</g>
<g>
	<circle style="fill:#4BA678;" cx="304" cy="360" r="32"/>
	<path style="fill:#4BA678;" d="M295.2,392H312c17.6,0,31.2,14.4,31.2,31.2l0,0V472l0,0H264l0,0v-48.8
		C264,406.4,278.4,392,295.2,392z"/>
	<circle style="fill:#4BA678;" cx="432" cy="360" r="32"/>
	<path style="fill:#4BA678;" d="M423.2,392H440c17.6,0,31.2,14.4,31.2,31.2l0,0V472l0,0H392l0,0v-48.8
		C392,406.4,406.4,392,423.2,392z"/>
</g>
<path style="fill:#92B1F9;" d="M387.2,264H200l-24,32l-24-32H92.8C45.6,264,8,226.4,8,179.2V92.8C8,45.6,45.6,8,92.8,8h294.4
	C434.4,8,472,45.6,472,92.8v86.4C472,226.4,434.4,264,387.2,264z"/>
<rect x="152.16" y="90.003" transform="matrix(-0.7071 0.7071 -0.7071 -0.7071 395.9169 84.0107)" style="fill:#F59536;" width="56.799" height="67.999"/>
<g>
	<polygon style="fill:#F73445;" points="96,104 160,40 176,80 136,120 	"/>
	<polygon style="fill:#F73445;" points="264,144 200,208 184,168 224,128 	"/>
	<polygon style="fill:#F73445;" points="152,136 72,192 104,232 168,152 	"/>
</g>
<path style="fill:#FED966;" d="M320,200h16c17.6,0,32,14.4,32,32l0,0l0,0h-80l0,0l0,0C288,214.4,302.4,200,320,200z"/>
<path d="M8,480h80c4.8,0,8-3.2,8-8v-48.8c0-14.4-8-27.2-20.8-34.4c16-15.2,16.8-40.8,1.6-56.8S36,315.2,20,330.4
	c-16,15.2-16.8,40.8-1.6,56.8c0.8,0.8,0.8,0.8,1.6,1.6c-12,7.2-20,20-20,34.4V472C0,476.8,3.2,480,8,480z M48,336
	c13.6,0,24,10.4,24,24s-10.4,24-24,24s-24-10.4-24-24S34.4,336,48,336z M16,423.2c0-12.8,10.4-23.2,23.2-23.2H56
	c12.8,0,23.2,10.4,23.2,23.2V464H16V423.2z"/>
<path d="M256,423.2V472c0,4.8,3.2,8,8,8h80c4.8,0,8-3.2,8-8v-48.8c0-14.4-8-27.2-20.8-34.4c16-15.2,16.8-40.8,1.6-56.8
	c-15.2-16-40.8-16.8-56.8-1.6c-16,15.2-16.8,40.8-1.6,56.8c0.8,0.8,0.8,0.8,1.6,1.6C264,396,256,408.8,256,423.2z M304,336
	c13.6,0,24,10.4,24,24s-10.4,24-24,24s-24-10.4-24-24S290.4,336,304,336z M272,423.2c0-12.8,10.4-23.2,23.2-23.2H312
	c12.8,0,23.2,10.4,23.2,23.2V464h-64v-40.8H272z"/>
<path d="M459.2,388.8c16-15.2,16.8-40.8,1.6-56.8c-15.2-16-40.8-16.8-56.8-1.6c-16,15.2-16.8,40.8-1.6,56.8c0.8,0.8,0.8,0.8,1.6,1.6
	c-12,7.2-20,20-20,34.4V472c0,4.8,3.2,8,8,8h80c4.8,0,8-3.2,8-8v-48.8C480,408.8,472,396,459.2,388.8z M432,336
	c13.6,0,24,10.4,24,24s-10.4,24-24,24s-24-10.4-24-24S418.4,336,432,336z M464,464h-64v-40.8c0-12.8,10.4-23.2,23.2-23.2H440
	c12.8,0,23.2,10.4,23.2,23.2V464H464z"/>
<path d="M387.2,0H92.8C41.6,0,0,41.6,0,92.8v86.4C0,230.4,41.6,272,92.8,272H148l21.6,28.8c2.4,3.2,8,4,11.2,1.6
	c0.8-0.8,0.8-0.8,1.6-1.6L204,272h183.2c51.2,0,92.8-41.6,92.8-92.8V92.8C480,41.6,438.4,0,387.2,0z M464,179.2
	c0,42.4-34.4,76.8-76.8,76.8H200c-2.4,0-4.8,0.8-6.4,3.2L176,282.4l-17.6-23.2c-1.6-2.4-4-3.2-6.4-3.2H92.8
	C50.4,256,16,221.6,16,179.2V92.8C16,50.4,50.4,16,92.8,16h294.4c42.4,0,76.8,34.4,76.8,76.8V179.2z"/>
<path d="M272,142.4c-0.8-2.4-2.4-4.8-4.8-5.6l-38.4-15.2L183.2,76L168,37.6c-1.6-4-6.4-6.4-10.4-4.8c-0.8,0.8-1.6,0.8-2.4,1.6
	l-64,64c-3.2,3.2-3.2,8,0,11.2c0.8,0.8,1.6,1.6,2.4,1.6l38.4,15.2l8,8l-72,50.4c-4,2.4-4.8,7.2-1.6,11.2c0,0,0,0,0,0.8l32,40
	c2.4,3.2,8,4,11.2,1.6c0.8,0,0.8-0.8,1.6-1.6l58.4-72.8l8.8,8.8l15.2,38.4c1.6,4,6.4,6.4,10.4,4.8c0.8-0.8,1.6-0.8,2.4-1.6l64-64
	C271.2,148,272,144.8,272,142.4z M173.6,146.4l-16-16L147.2,120L176,91.2l36.8,36.8L184,156.8L173.6,146.4z M156.8,54.4l9.6,24
	l-32.8,32.8l-24-9.6L156.8,54.4z M104,219.2l-20.8-25.6l67.2-47.2l6.4,6.4L104,219.2z M203.2,193.6l-9.6-24l32.8-32.8l24,9.6
	L203.2,193.6z"/>
<path d="M336,192h-16c-22.4,0-40,17.6-40,40c0,4.8,3.2,8,8,8h80c4.8,0,8-3.2,8-8C376,209.6,358.4,192,336,192z M297.6,224
	c3.2-9.6,12.8-16,22.4-16h16c10.4,0,19.2,6.4,22.4,16H297.6z"/>
<rect x="320" y="152" width="16" height="24"/>
<rect x="271.997" y="168.01" transform="matrix(-0.7071 0.7071 -0.7071 -0.7071 605.2714 109.3084)" width="16" height="24"/>
<rect x="363.999" y="172" transform="matrix(-0.7071 0.7071 -0.7071 -0.7071 769.1496 41.4086)" width="24" height="16"/>
<path d="M104,304v64c0,17.6,11.2,32.8,28,38.4c-2.4,5.6-4,11.2-4,17.6v48c0,4.8,3.2,8,8,8h80c4.8,0,8-3.2,8-8v-48.8
	c0-14.4-8-27.2-20.8-34.4c16-15.2,16.8-40.8,1.6-56.8s-40.8-16.8-56.8-1.6c-16,15.2-16.8,40.8-1.6,56.8c0.8,0.8,0.8,0.8,1.6,1.6
	c-1.6,0.8-3.2,1.6-4.8,3.2c-13.6,0-24-10.4-24-24v-64L104,304L104,304z M176,336c13.6,0,24,10.4,24,24s-10.4,24-24,24
	s-24-10.4-24-24S162.4,336,176,336z M184.8,400c12.8,0,23.2,10.4,23.2,23.2V464h-64v-40.8c0-12.8,10.4-23.2,23.2-23.2H184.8z"/>
<g>
</g>
<g>
</g>
<g>
</g>
<g>
</g>
<g>
</g>
<g>
</g>
<g>
</g>
<g>
</g>
<g>
</g>
<g>
</g>
<g>
</g>
<g>
</g>
<g>
</g>
<g>
</g>
<g>
</g>
</svg>
