<?xml version="1.0" encoding="iso-8859-1"?>
<!-- Generator: Adobe Illustrator 19.0.0, SVG Export Plug-In . SVG Version: 6.00 Build 0)  -->
<svg version="1.1" id="Capa_1" xmlns="http://www.w3.org/2000/svg" xmlns:xlink="http://www.w3.org/1999/xlink" x="0px" y="0px"
	 viewBox="0 0 480 480" style="enable-background:new 0 0 480 480;" xml:space="preserve">
<circle style="fill:#FED966;" cx="240" cy="132" r="104"/>
<path style="fill:#DFDEED;" d="M216,380c0-8.837-7.163-16-16-16c8.837,0,16-7.163,16-16s-7.163-16-16-16h-48v-32
	c0-8.837-7.163-16-16-16s-16,7.163-16,16v32H40v128h160c8.837,0,16-7.163,16-16s-7.163-16-16-16c8.837,0,16-7.163,16-16
	s-7.163-16-16-16C208.837,396,216,388.837,216,380z"/>
<path style="fill:#92B1F9;" d="M8,332h32v128H8V332z"/>
<path style="fill:#DFDEED;" d="M264,380c0-8.837,7.163-16,16-16c-8.837,0-16-7.163-16-16s7.163-16,16-16h48v-32
	c0-8.837,7.163-16,16-16s16,7.163,16,16v32h80v128H280c-8.837,0-16-7.163-16-16s7.163-16,16-16c-8.837,0-16-7.163-16-16
	s7.163-16,16-16C271.163,396,264,388.837,264,380z"/>
<path style="fill:#92B1F9;" d="M440,332h32v128h-32V332z"/>
<path style="fill:#F73445;" d="M240,80.224L251.624,116h37.616l-30.432,22.112l11.624,35.776L240,151.776l-30.432,22.112
	l11.624-35.776L190.76,116h37.616L240,80.224z"/>
<path d="M217.875,364c8.843-9.866,8.013-25.033-1.853-33.875c-4.403-3.946-10.109-6.128-16.022-6.125h-40v-24
	c0-13.255-10.745-24-24-24s-24,10.745-24,24v24H8c-4.416-0.003-7.997,3.575-8,7.991c0,0.003,0,0.006,0,0.009v128
	c-0.003,4.416,3.575,7.997,7.991,8c0.003,0,0.006,0,0.009,0h192c13.249,0.006,23.994-10.729,24-23.978
	c0.003-5.913-2.179-11.618-6.125-16.022c8.167-9.104,8.167-22.896,0-32C226.042,386.896,226.042,373.104,217.875,364z M32,452H16
	V340h16V452z M200,372c4.418,0,8,3.582,8,8s-3.582,8-8,8h-24v16h24c4.418,0,8,3.582,8,8s-3.582,8-8,8h-24v16h24c4.418,0,8,3.582,8,8
	s-3.582,8-8,8H48V340h72c4.416,0.003,7.997-3.575,8-7.991c0-0.003,0-0.006,0-0.009v-32c0-4.418,3.582-8,8-8s8,3.582,8,8v32
	c-0.003,4.416,3.575,7.997,7.991,8c0.003,0,0.006,0,0.009,0h48c4.418,0,8,3.582,8,8s-3.582,8-8,8h-24v16H200z"/>
<path d="M472,324H368v-24c0-13.255-10.745-24-24-24s-24,10.745-24,24v24h-40c-13.249-0.006-23.994,10.729-24,23.978
	c-0.003,5.913,2.179,11.619,6.125,16.022c-8.167,9.103-8.167,22.897,0,32c-8.167,9.103-8.167,22.897,0,32
	c-8.843,9.866-8.013,25.032,1.853,33.875c4.403,3.947,10.109,6.128,16.022,6.125h192c4.416,0.003,7.997-3.575,8-7.991
	c0-0.003,0-0.006,0-0.009V332c0.003-4.416-3.575-7.997-7.991-8C472.006,324,472.003,324,472,324z M432,452H280c-4.418,0-8-3.582-8-8
	s3.582-8,8-8h24v-16h-24c-4.418,0-8-3.582-8-8s3.582-8,8-8h24v-16h-24c-4.418,0-8-3.582-8-8s3.582-8,8-8h24v-16h-24
	c-4.418,0-8-3.582-8-8s3.582-8,8-8h48c4.416,0.003,7.997-3.575,8-7.991c0-0.003,0-0.006,0-0.009v-32c0-4.418,3.582-8,8-8
	s8,3.582,8,8v32c-0.003,4.416,3.575,7.997,7.991,8c0.003,0,0.006,0,0.009,0h72V452z M464,452h-16V340h16V452z"/>
<path d="M232,12h16v32h-16V12z"/>
<path d="M232,212h16v32h-16V212z"/>
<path d="M128,124h32v16h-32V124z"/>
<path d="M322.18,124h32v16h-32V124z"/>
<path d="M294.061,65.664l22.625-22.625l11.313,11.313l-22.625,22.625L294.061,65.664z"/>
<path d="M152.669,203.594l22.625-22.625l11.313,11.313l-22.625,22.625L152.669,203.594z"/>
<path d="M152.644,54.344l11.313-11.313l22.625,22.625L175.27,76.97L152.644,54.344z"/>
<path d="M289.949,193.83l11.313-11.313l22.625,22.625l-11.313,11.313L289.949,193.83z"/>
<g>
</g>
<g>
</g>
<g>
</g>
<g>
</g>
<g>
</g>
<g>
</g>
<g>
</g>
<g>
</g>
<g>
</g>
<g>
</g>
<g>
</g>
<g>
</g>
<g>
</g>
<g>
</g>
<g>
</g>
</svg>
