<?xml version="1.0" encoding="iso-8859-1"?>
<!-- Generator: Adobe Illustrator 19.0.0, SVG Export Plug-In . SVG Version: 6.00 Build 0)  -->
<svg version="1.1" id="Capa_1" xmlns="http://www.w3.org/2000/svg" xmlns:xlink="http://www.w3.org/1999/xlink" x="0px" y="0px"
	 viewBox="0 0 512.001 512.001" style="enable-background:new 0 0 512.001 512.001;" xml:space="preserve">
<g>
	<path style="fill:#F7C9A4;" d="M497.6,94.077c0,8.099-5.626,14.886-13.178,16.654c-1.264,0.304-2.576,0.462-3.931,0.462
		c-9.454,0-17.115-7.661-17.115-17.115c0-9.448,7.661-17.109,17.115-17.109c1.41,0,2.777,0.17,4.083,0.492
		C492.053,79.289,497.6,86.039,497.6,94.077z"/>
	<path style="fill:#F7C9A4;" d="M390.084,94.077c0,9.454-7.661,17.115-17.115,17.115c-1.355,0-2.673-0.158-3.937-0.462
		c-7.558-1.774-13.178-8.555-13.178-16.654c0-8.038,5.547-14.782,13.026-16.611c1.306-0.328,2.679-0.498,4.089-0.498
		C382.422,76.968,390.084,84.629,390.084,94.077z"/>
</g>
<path style="fill:#FFD9B6;" d="M474.117,45.168v60.01c0,26.174-21.216,47.391-47.391,47.391s-47.391-21.216-47.391-47.391v-60.01
	C379.335,45.168,474.117,45.168,474.117,45.168z"/>
<path style="fill:#694B4B;" d="M379.364,76.966c0,0-14.455-48.808,10.679-57.72c0,0,3.166-11.746,16.03-11.746s79.558,0,79.558,0
	s3.166,35.644-11.479,69.466l-10.885-1.823V62.182c0,0-27.707-5.266-72.235-5.266v18.227L379.364,76.966z"/>
<g>
	<path style="fill:#F7C9A4;" d="M156.149,94.466c0,8.099-5.626,14.886-13.178,16.654c-1.264,0.304-2.576,0.462-3.931,0.462
		c-9.454,0-17.115-7.661-17.115-17.115c0-9.448,7.661-17.109,17.115-17.109c1.41,0,2.777,0.17,4.083,0.492
		C150.602,79.678,156.149,86.428,156.149,94.466z"/>
	<path style="fill:#F7C9A4;" d="M48.633,94.466c0,9.454-7.661,17.115-17.115,17.115c-1.355,0-2.673-0.158-3.937-0.462
		c-7.558-1.774-13.178-8.555-13.178-16.654c0-8.038,5.547-14.782,13.026-16.611c1.306-0.328,2.679-0.498,4.089-0.498
		C40.971,77.357,48.633,85.018,48.633,94.466z"/>
</g>
<path style="fill:#FFD9B6;" d="M98.473,150.715c-4.497,1.285-9.25,1.934-14.159,1.84c-26.943-0.517-48.615-22.505-48.615-49.563
	V75.734c0.014-27.388,22.204-49.563,49.577-49.563c13.687,0,26.081,5.544,35.058,14.52c8.962,8.976,14.52,21.356,14.52,35.057
	v26.268C134.853,124.908,119.432,144.725,98.473,150.715"/>
<path style="fill:#694B4B;" d="M147.745,69.969c-68.459,31.687-124.92,0-124.92,0h-0.018v-0.018
	C22.825,35.441,50.784,7.5,85.276,7.5c17.246,0,32.863,6.985,44.174,18.296C140.742,37.106,147.745,52.705,147.745,69.969z"/>
<g>
	<path style="fill:#F7C9A4;" d="M497.6,446.398c0,8.099-5.626,14.886-13.178,16.654c-1.264,0.304-2.576,0.462-3.931,0.462
		c-9.454,0-17.115-7.661-17.115-17.115c0-9.448,7.661-17.109,17.115-17.109c1.41,0,2.777,0.17,4.083,0.492
		C492.053,431.609,497.6,438.359,497.6,446.398z"/>
	<path style="fill:#F7C9A4;" d="M390.084,446.398c0,9.454-7.661,17.115-17.115,17.115c-1.355,0-2.673-0.158-3.937-0.462
		c-7.558-1.774-13.178-8.555-13.178-16.654c0-8.038,5.547-14.782,13.026-16.611c1.306-0.328,2.679-0.498,4.089-0.498
		C382.422,429.288,390.084,436.95,390.084,446.398z"/>
</g>
<path style="fill:#FFD9B6;" d="M476.304,427.679v26.268c0,27.805-22.749,51.071-50.54,50.54
	c-26.943-0.517-48.615-22.505-48.615-49.563v-27.259c0.014-27.388,22.204-49.563,49.577-49.563c13.687,0,26.081,5.544,35.058,14.52
	C470.746,401.598,476.304,413.978,476.304,427.679z"/>
<path style="fill:#694B4B;" d="M489.195,421.901c-68.459,31.687-124.92,0-124.92,0h-0.018v-0.018
	c0.018-34.51,27.977-62.451,62.469-62.451c17.246,0,32.863,6.985,44.174,18.296C482.192,389.038,489.195,404.637,489.195,421.901z"
	/>
<path style="fill:#5B4040;" d="M52.435,431.583c0,0-50.634,50.96-23.487,62.111s140.616,24.267,121.399-20.571
	s-21.962-41.483-21.962-41.483L52.435,431.583z"/>
<g>
	<path style="fill:#FFD9B6;" d="M146.94,440.935c0,7.199-5.001,13.231-11.714,14.803c-1.123,0.27-2.29,0.41-3.494,0.41
		c-8.403,0-15.213-6.81-15.213-15.213c0-8.398,6.81-15.208,15.213-15.208c1.253,0,2.468,0.151,3.629,0.437
		C142.01,427.791,146.94,433.791,146.94,440.935z"/>
	<path style="fill:#FFD9B6;" d="M51.373,440.935c0,8.403-6.81,15.213-15.213,15.213c-1.204,0-2.376-0.14-3.5-0.41
		c-6.718-1.577-11.714-7.604-11.714-14.803c0-7.145,4.931-13.139,11.579-14.765c1.161-0.292,2.382-0.443,3.635-0.443
		C44.563,425.728,51.373,432.538,51.373,440.935z"/>
	<path style="fill:#FFD9B6;" d="M126.069,397.461V450.8c0,23.266-18.86,42.125-42.125,42.125s-42.125-18.86-42.125-42.125v-53.339
		H126.069z"/>
</g>
<path style="fill:#694B4B;" d="M29.448,429.122c0,0,56.949-8.935,70.051-30.297c0,0-1.629,26.273,46.412,27.844
	c0,0,13.102-64.147-54.228-67.131C24.353,356.553,29.448,417.498,29.448,429.122z"/>
<path style="fill:#FFF082;" d="M354.309,195.557c0-50.305-40.78-91.086-91.086-91.087c-50.058-0.001-90.656,40.233-91.084,90.289
	c-0.197,22.998,8.131,44.047,22.014,60.178c18.825,21.874,29.277,49.716,29.277,78.575v13.597h79.584v-13.594
	c0-29.017,10.756-56.837,29.574-78.924C346.133,238.693,354.309,218.08,354.309,195.557z"/>
<path style="fill:#FFDC64;" d="M215.772,250.942c18.827,21.87,29.281,49.71,29.281,78.571v17.597h-21.622v-13.6
	c0-28.861-10.453-56.701-29.281-78.571c-13.877-16.128-22.204-37.178-22.013-60.183c0.41-48.108,37.931-87.146,85.295-90.102
	c-36.682,11.531-63.33,45.6-63.674,86.106C193.559,213.755,201.885,234.805,215.772,250.942z"/>
<path style="fill:#E5E5DA;" d="M293.055,395.875h-59.666c-8.089,0-14.646-6.557-14.646-14.646v-34.597
	c0-2.897,2.348-5.245,5.245-5.245h78.468c2.897,0,5.245,2.348,5.245,5.245v34.597C307.701,389.318,301.144,395.875,293.055,395.875z
	"/>
<path style="fill:#F2F2F0;" d="M290.387,395.875c0,15.003-12.162,27.165-27.165,27.165c-15.003,0-27.165-12.162-27.165-27.165
	H290.387z"/>
<path d="M367.295,118.026c1.851,0.44,3.76,0.664,5.676,0.664c0.185,0,0.369-0.01,0.554-0.013
	c6.031,23.761,27.596,41.394,53.207,41.394c25.61,0,47.176-17.632,53.206-41.394c0.185,0.004,0.369,0.013,0.554,0.013
	c1.909,0,3.815-0.223,5.642-0.658c11.167-2.618,18.967-12.468,18.967-23.952c0-11.375-7.709-21.205-18.738-23.903
	c-0.478-0.118-0.961-0.22-1.447-0.309c10.795-31.729,8.309-61.646,8.186-63.032C492.757,2.966,489.516,0,485.631,0h-79.56
	c-12.029,0-18.863,7.559-21.839,13.586c-20.215,10.171-17.375,40.313-14.3,56.071c-0.97,0.12-1.917,0.295-2.825,0.526
	c-11.043,2.687-18.756,12.514-18.756,23.897C348.351,105.568,356.151,115.417,367.295,118.026z M426.731,145.07
	c-21.996,0-39.891-17.895-39.891-39.891v-21.79l5.353-0.839c3.648-0.572,6.338-3.716,6.338-7.41V64.471
	c27.516,0.377,47.715,2.745,57.239,4.11v6.559c0,3.664,2.646,6.791,6.26,7.396l4.591,0.77v21.873
	C466.621,127.175,448.727,145.07,426.731,145.07z M490.101,94.08c0,4.483-3.039,8.328-7.416,9.354
	c-0.35,0.083-0.706,0.139-1.063,0.181V84.542c0.394,0.046,0.785,0.109,1.168,0.203C487.094,85.798,490.101,89.637,490.101,94.08z
	 M392.547,26.319c2.323-0.823,4.093-2.736,4.735-5.115c0.069-0.254,1.754-6.204,8.789-6.204h72.33
	c0.071,10.029-0.835,29.72-7.631,49.859V62.18c0-3.603-2.562-6.697-6.102-7.369c-1.159-0.22-28.916-5.391-73.638-5.391
	c-4.143,0-7.5,3.358-7.5,7.5v3.054C381.734,46.39,382.212,29.982,392.547,26.319z M370.727,84.739
	c0.359-0.091,0.732-0.158,1.114-0.203v19.079c-0.367-0.044-0.734-0.102-1.1-0.188c-4.352-1.019-7.391-4.862-7.391-9.347
	C363.351,89.637,366.354,85.804,370.727,84.739z"/>
<path d="M150.186,454.193c2.69-3.752,4.254-8.334,4.254-13.253c0-3.587-0.846-6.998-2.344-10.045
	c0.552-0.803,0.958-1.72,1.164-2.725c0.261-1.28,6.202-31.603-11.218-53.933c-10.71-13.729-27.542-21.195-50.027-22.192
	c-22.196-0.988-39.551,4.472-51.59,16.216c-17.427,17-18.646,42.273-18.562,55.031c-5.278,4.251-8.412,10.656-8.412,17.648
	c0,6.95,3.15,13.285,8.237,17.493c-7.265,12.175-9.7,21.959-7.4,29.747c1.164,3.941,4.157,9.3,11.811,12.447
	c12.752,5.244,39.225,9.9,62.946,11.073c3.765,0.186,7.725,0.301,11.773,0.301c19.957,0,41.995-2.789,52.613-13.563
	c4.145-4.207,10.152-13.473,3.813-28.271C154.715,464.264,152.351,458.914,150.186,454.193z M118.571,450.8
	c0,1.154-0.058,2.304-0.174,3.448c-1.744,17.777-16.558,31.183-34.456,31.183c-17.883,0-32.641-13.633-34.436-31.054
	c-0.004-0.05-0.009-0.099-0.013-0.148c-0.111-1.128-0.171-2.271-0.171-3.428v-18.128c14.516-3.597,34.03-9.857,46.83-19.616
	c1.005,1.667,2.25,3.375,3.793,5.072c4.592,5.048,10.825,8.918,18.627,11.603C118.571,429.732,118.571,450.8,118.571,450.8z
	 M30.61,436.531c0.682-0.107,1.968-0.317,3.711-0.633v12.525c-0.029-0.008-0.057-0.016-0.086-0.023
	c-3.405-0.864-5.784-3.932-5.784-7.46c0-1.595,0.493-3.092,1.352-4.346C30.073,436.581,30.342,436.573,30.61,436.531z
	 M133.571,433.453c0.005,0.001,0.01,0.002,0.015,0.003c3.447,0.84,5.854,3.917,5.854,7.483c0,3.515-2.451,6.647-5.869,7.486V433.453
	z M50.9,378.998c8.217-8.016,20.353-12.066,36.12-12.066c1.413,0,2.859,0.033,4.331,0.098c17.857,0.792,30.914,6.295,38.807,16.359
	c9.057,11.547,9.657,26.84,9.132,35.355c-31.249-2.951-32.272-18.055-32.296-19.534c0.342-3.457-1.756-6.53-5.052-7.658
	c-3.318-1.134-7,0.359-8.836,3.351c-7.16,11.674-35.387,20.896-56.224,25.227C37.083,408.834,38.987,390.62,50.9,378.998z
	 M28.674,483.932c-0.434-1.469-1.04-7.033,7.365-20.208c3.375,12.502,11.515,23.065,22.351,29.603
	c-11.733-1.96-21.316-4.406-26.586-6.573C29.189,485.679,28.841,484.499,28.674,483.932z M142.747,487.908
	c-5.621,5.705-20.39,8.941-40.533,9.084c14.466-5.678,25.614-17.943,29.677-33.347c1.713-0.012,3.42-0.214,5.049-0.602
	c0.239-0.056,0.468-0.133,0.704-0.197c1.809,3.998,3.753,8.421,5.813,13.227C146.775,483.82,143.953,486.685,142.747,487.908z"/>
<path d="M343.374,239.481c-3.459-2.282-8.108-1.331-10.392,2.126c-1.854,2.807-3.907,5.54-6.101,8.118
	c-20.229,23.745-31.371,53.503-31.371,83.794v0.367h-11.118v-28.16c0-4.142-3.357-7.5-7.5-7.5H249.55c-4.143,0-7.5,3.358-7.5,7.5
	v28.16h-11.12v-0.377c0-30.532-11.043-60.174-31.095-83.462c-13.199-15.338-20.371-34.95-20.195-55.224
	c0.393-45.686,37.887-82.854,83.58-82.854c46.092,0,83.59,37.498,83.59,83.59c0,7.014-0.87,13.98-2.587,20.706
	c-1.023,4.014,1.399,8.098,5.413,9.122c4.017,1.025,8.097-1.4,9.122-5.413c2.024-7.937,3.052-16.151,3.052-24.415
	c0-54.363-44.228-98.59-98.59-98.59c-26.203,0-50.86,10.138-69.431,28.546c-18.571,18.409-28.924,42.978-29.149,69.179
	c-0.207,23.91,8.255,47.043,23.827,65.139c17.71,20.569,27.463,46.734,27.463,73.676v3.258c-2.858,2.339-4.688,5.891-4.688,9.864
	v34.597c0,10.812,7.79,19.833,18.051,21.76c3.291,15.713,17.252,27.551,33.928,27.551c16.677,0,30.638-11.838,33.929-27.551
	c10.261-1.927,18.051-10.948,18.051-21.76v-34.597c0-3.974-1.83-7.527-4.69-9.866v-3.245c0-26.729,9.869-53.033,27.793-74.07
	c2.589-3.043,5.01-6.265,7.196-9.577C347.782,246.416,346.83,241.764,343.374,239.481z M226.243,370.713v-3.782h73.958v3.782
	H226.243z M300.201,348.887v3.044h-73.958v-3.044H300.201z M257.052,313.227h12.341v20.66h-12.341V313.227z M263.222,415.54
	c-8.188,0-15.225-5.032-18.179-12.165h36.358C278.447,410.508,271.411,415.54,263.222,415.54z M293.056,388.375h-2.668h-54.331
	h-2.668c-2.243,0-4.245-1.04-5.556-2.662h70.778C297.3,387.335,295.298,388.375,293.056,388.375z"/>
<path d="M182.105,51.938h69.668v20.55c0,4.142,3.357,7.5,7.5,7.5s7.5-3.358,7.5-7.5v-20.55h69.668c4.143,0,7.5-3.358,7.5-7.5
	s-3.357-7.5-7.5-7.5H182.105c-4.143,0-7.5,3.358-7.5,7.5S177.963,51.938,182.105,51.938z"/>
<path d="M336.441,471.706h-69.668v-20.55c0-4.142-3.357-7.5-7.5-7.5s-7.5,3.358-7.5,7.5v20.55h-69.668c-4.143,0-7.5,3.358-7.5,7.5
	s3.357,7.5,7.5,7.5h154.336c4.143,0,7.5-3.358,7.5-7.5S340.584,471.706,336.441,471.706z"/>
<path d="M476.657,346.49c4.143,0,7.5-3.358,7.5-7.5V184.654c0-4.142-3.357-7.5-7.5-7.5s-7.5,3.358-7.5,7.5v69.668h-20.551
	c-4.143,0-7.5,3.358-7.5,7.5s3.357,7.5,7.5,7.5h20.551v69.668C469.157,343.132,472.515,346.49,476.657,346.49z"/>
<path d="M41.89,177.154c-4.143,0-7.5,3.358-7.5,7.5V338.99c0,4.142,3.357,7.5,7.5,7.5s7.5-3.358,7.5-7.5v-69.668h20.55
	c4.143,0,7.5-3.358,7.5-7.5s-3.357-7.5-7.5-7.5H49.39v-69.668C49.39,180.512,46.032,177.154,41.89,177.154z"/>
<path d="M153.603,74.629c1.035-1.302,1.642-2.93,1.642-4.66c0-18.669-7.276-36.239-20.493-49.477C121.537,7.277,103.966,0,85.275,0
	C46.714,0,15.326,31.378,15.307,69.969c0,1.764,0.619,3.381,1.642,4.662C10.776,79.154,6.901,86.418,6.901,94.47
	c0,11.488,7.801,21.337,18.943,23.946c1.614,0.384,3.273,0.593,4.941,0.642c2.852,9.256,7.981,17.804,14.987,24.678
	c10.761,10.558,24.76,16.333,39.523,16.333c0.359,0,0.722-0.003,1.081-0.011c4.93-0.09,9.841-0.822,14.596-2.175
	c3.984-1.134,6.295-5.283,5.161-9.267c-1.135-3.984-5.286-6.293-9.267-5.16c-3.509,0.999-7.13,1.539-10.77,1.605
	c-11.141,0.2-21.696-4.062-29.82-12.032c-8.311-8.154-13.077-19.457-13.077-31.01V85.884c5.124,1.449,10.965,2.799,17.407,3.83
	c-3.084,0.931-5.332,3.791-5.332,7.179v1.382c0,4.142,3.358,7.5,7.5,7.5s7.5-3.358,7.5-7.5v-1.382c0-2.653-1.382-4.979-3.461-6.313
	c5.616,0.665,11.621,1.065,17.966,1.065c6.116,0,12.547-0.378,19.234-1.234c-2.233,1.299-3.739,3.712-3.739,6.482v1.382
	c0,4.142,3.358,7.5,7.5,7.5s7.5-3.358,7.5-7.5v-1.382c0-3.541-2.457-6.501-5.757-7.288c5.78-0.954,11.732-2.27,17.831-4.028V103
	c0,9.18-2.907,17.907-8.408,25.239c-2.486,3.313-1.815,8.014,1.498,10.5c1.35,1.013,2.929,1.501,4.495,1.501
	c2.279,0,4.531-1.036,6.005-3c4.163-5.549,7.229-11.688,9.129-18.191c1.563-0.065,3.115-0.271,4.613-0.628
	c11.169-2.619,18.969-12.468,18.969-23.952C163.651,86.417,159.774,79.151,153.603,74.629z M21.901,94.47
	c0-4.082,2.541-7.647,6.3-9.02v16.57c0,0.494,0.025,0.986,0.038,1.48C24.46,102.149,21.901,98.583,21.901,94.47z M115.181,73.22
	V61.357c0-4.142-3.357-7.5-7.5-7.5s-7.5,3.358-7.5,7.5v14.38c-12.758,1.419-25.674,1.043-38.676-1.17
	c-14.545-2.476-25.485-6.728-31.006-9.201C32.851,37.202,56.525,15,85.275,15c14.685,0,28.488,5.717,38.866,16.094
	c9.247,9.262,14.795,21.224,15.899,34.089C131.853,68.66,123.558,71.332,115.181,73.22z M142.341,103.482
	c0.001-0.161,0.01-0.321,0.01-0.482V85.449c3.756,1.368,6.301,4.936,6.301,9.021C148.651,98.493,146.062,102.109,142.341,103.482z"
	/>
<path d="M449.226,105.774c-4.142,0-7.5-3.358-7.5-7.5v-1.382c0-4.142,3.358-7.5,7.5-7.5s7.5,3.358,7.5,7.5v1.382
	C456.726,102.417,453.368,105.774,449.226,105.774z"/>
<path d="M404.226,105.774c-4.142,0-7.5-3.358-7.5-7.5v-1.382c0-4.142,3.358-7.5,7.5-7.5s7.5,3.358,7.5,7.5v1.382
	C411.726,102.417,408.368,105.774,404.226,105.774z"/>
<path d="M106.776,450.434c-4.142,0-7.5-3.358-7.5-7.5v-1.382c0-4.142,3.358-7.5,7.5-7.5s7.5,3.358,7.5,7.5v1.382
	C114.276,447.076,110.918,450.434,106.776,450.434z"/>
<path d="M61.776,450.434c-4.142,0-7.5-3.358-7.5-7.5v-1.382c0-4.142,3.358-7.5,7.5-7.5s7.5,3.358,7.5,7.5v1.382
	C69.276,447.076,65.918,450.434,61.776,450.434z"/>
<path d="M495.051,426.558c1.035-1.302,1.641-2.929,1.641-4.658c0-18.669-7.274-36.237-20.487-49.473
	c-13.218-13.217-30.787-20.497-49.473-20.497c-4.143,0-7.5,3.358-7.5,7.5s3.357,7.5,7.5,7.5c14.679,0,28.482,5.719,38.862,16.099
	c9.242,9.259,14.788,21.217,15.893,34.081c-2.564,1.086-5.152,2.102-7.734,3.033c-4.199,1.511-8.333,2.771-12.397,3.829
	c-1.587,0.413-3.16,0.791-4.723,1.141v-11.824c0-4.142-3.357-7.5-7.5-7.5s-7.5,3.358-7.5,7.5v14.334
	c-25.395,2.819-46.482-1.964-59.453-6.339c-0.856-0.289-1.689-0.576-2.473-0.859c-0.001,0-0.002,0-0.003-0.001
	c-3.195-1.152-5.809-2.244-7.753-3.118c1.561-18.918,12.688-35.658,29.821-44.406c3.689-1.884,5.153-6.401,3.27-10.09
	c-1.884-3.689-6.402-5.152-10.09-3.269c-23.546,12.022-38.18,35.908-38.19,62.359c0,1.766,0.619,3.385,1.643,4.667
	c-6.176,4.521-10.053,11.783-10.053,19.833c0,11.488,7.801,21.337,18.889,23.933c1.601,0.394,3.283,0.607,5.006,0.656
	c2.851,9.258,7.98,17.806,14.986,24.68c10.76,10.557,24.759,16.33,39.53,16.33c0.359,0,0.722-0.003,1.081-0.01
	c15.011-0.284,29.077-6.347,39.608-17.071c6.685-6.808,11.458-15.011,14.061-23.937c1.612-0.065,3.179-0.273,4.62-0.628
	c11.168-2.62,18.968-12.469,18.968-23.953C505.101,438.346,501.223,431.08,495.051,426.558z M363.351,446.4
	c0-4.065,2.528-7.617,6.311-9.008v16.558c0,0.495,0.025,0.989,0.038,1.483C365.914,454.085,363.351,450.516,363.351,446.4z
	 M468.801,454.93c0,22.762-18.501,41.631-41.242,42.062c-11.098,0.208-21.698-4.061-29.821-12.03
	c-8.311-8.153-13.076-19.457-13.076-31.012v-16.208c0.727,0.204,1.474,0.405,2.232,0.605c4.403,1.161,8.855,2.103,13.335,2.867
	c-2.102,1.329-3.502,3.667-3.502,6.338v1.382c0,4.142,3.358,7.5,7.5,7.5s7.5-3.358,7.5-7.5v-1.382c0-1.931-0.736-3.685-1.934-5.015
	c11.281,1.206,22.677,1.186,33.948-0.088c-1.246,1.339-2.014,3.129-2.014,5.102v1.382c0,4.142,3.358,7.5,7.5,7.5s7.5-3.358,7.5-7.5
	v-1.382c0-2.741-1.476-5.133-3.671-6.441c5.207-0.912,10.373-2.088,15.469-3.539c0.093-0.026,0.184-0.05,0.277-0.076v17.435H468.801
	z M483.789,455.411c0.001-0.161,0.012-0.32,0.012-0.481v-17.551c3.755,1.368,6.3,4.936,6.3,9.021
	C490.101,450.479,487.581,454.021,483.789,455.411z"/>
<g>
</g>
<g>
</g>
<g>
</g>
<g>
</g>
<g>
</g>
<g>
</g>
<g>
</g>
<g>
</g>
<g>
</g>
<g>
</g>
<g>
</g>
<g>
</g>
<g>
</g>
<g>
</g>
<g>
</g>
</svg>
