<?xml version="1.0" encoding="iso-8859-1"?>
<!-- Generator: Adobe Illustrator 19.0.0, SVG Export Plug-In . SVG Version: 6.00 Build 0)  -->
<svg version="1.1" id="Capa_1" xmlns="http://www.w3.org/2000/svg" xmlns:xlink="http://www.w3.org/1999/xlink" x="0px" y="0px"
	 viewBox="0 0 512 512" style="enable-background:new 0 0 512 512;" xml:space="preserve">
<polygon style="fill:#00C3FF;" points="188.492,257.468 98.008,155.192 7.523,257.468 60.308,257.468 60.308,489.778 
	135.706,489.778 135.706,257.468 "/>
<rect x="116.279" y="257.465" style="fill:#00AAF0;" width="19.411" height="232.308"/>
<polygon style="fill:#B4E66E;" points="347.374,124.497 256.89,22.222 166.405,124.497 219.191,124.497 219.191,356.807 
	294.589,356.807 294.589,124.497 "/>
<rect x="275.17" y="124.494" style="fill:#A0D755;" width="19.411" height="232.308"/>
<polygon style="fill:#00C3FF;" points="504.477,244.175 413.992,141.9 323.509,244.175 376.294,244.175 376.294,401.807 
	451.692,401.807 451.692,244.175 "/>
<rect x="432.276" y="244.084" style="fill:#00AAF0;" width="19.411" height="157.717"/>
<path d="M163.297,482.254H143.23V264.991h45.263c2.959,0,5.643-1.734,6.859-4.433c1.215-2.698,0.736-5.858-1.225-8.075
	l-90.485-102.275c-1.427-1.614-3.48-2.538-5.634-2.538c-2.155,0-4.207,0.924-5.634,2.538L1.889,252.483
	c-1.961,2.217-2.441,5.377-1.225,8.075s3.9,4.433,6.859,4.433h45.262v29.691c0,4.155,3.368,7.523,7.523,7.523
	s7.523-3.368,7.523-7.523v-37.214c0-4.155-3.368-7.523-7.523-7.523H24.225l73.783-83.399l73.784,83.399h-36.085
	c-4.155,0-7.523,3.368-7.523,7.523v224.787H67.832v-158.6c0-4.155-3.368-7.523-7.523-7.523s-7.523,3.368-7.523,7.523v158.601H32.719
	c-4.155,0-7.523,3.368-7.523,7.523c0,4.155,3.368,7.523,7.523,7.523h130.577c4.155,0,7.523-3.368,7.523-7.523
	C170.82,485.623,167.451,482.254,163.297,482.254z"/>
<path d="M322.179,349.284h-20.066V132.021h45.262c2.959,0,5.643-1.734,6.859-4.433c1.216-2.698,0.736-5.858-1.225-8.075
	L262.525,17.237c-1.428-1.614-3.481-2.538-5.635-2.538c-2.155,0-4.207,0.924-5.634,2.538l-38.722,43.38
	c-2.754,3.113-2.463,7.866,0.649,10.62c3.113,2.754,7.867,2.463,10.62-0.649l33.087-37.011l73.783,83.399h-36.084
	c-4.156,0-7.523,3.368-7.523,7.523v224.787h-60.351V124.497c0-4.155-3.368-7.523-7.523-7.523h-36.084l21.743-24.577
	c2.753-3.113,2.463-7.866-0.649-10.62c-3.113-2.754-7.867-2.463-10.62,0.649l-32.809,37.086c-1.961,2.217-2.441,5.377-1.225,8.075
	c1.216,2.698,3.9,4.433,6.859,4.433h45.263v217.263h-20.067c-4.155,0-7.523,3.368-7.523,7.523s3.368,7.523,7.523,7.523h130.577
	c4.156,0,7.523-3.368,7.523-7.523S326.333,349.284,322.179,349.284z"/>
<path d="M510.111,239.191l-90.485-102.276c-1.428-1.614-3.48-2.538-5.634-2.538c-2.155,0-4.206,0.924-5.634,2.538L317.874,239.19
	c-1.961,2.217-2.441,5.377-1.225,8.075c1.216,2.698,3.9,4.433,6.859,4.433h45.262v142.586h-20.067c-4.156,0-7.523,3.368-7.523,7.523
	c0,4.155,3.367,7.523,7.523,7.523h130.578c4.156,0,7.523-3.368,7.523-7.523c0-4.155-3.367-7.523-7.523-7.523h-20.067v-68.79
	c0-4.155-3.367-7.523-7.523-7.523c-4.156,0-7.523,3.368-7.523,7.523v68.79h-60.352V244.175c0-4.155-3.367-7.523-7.523-7.523h-36.084
	l73.783-83.399l73.784,83.399h-36.085c-4.156,0-7.523,3.368-7.523,7.523v51.001c0,4.155,3.367,7.523,7.523,7.523
	c4.156,0,7.523-3.368,7.523-7.523v-43.477h45.262c2.959,0,5.644-1.734,6.859-4.433C512.552,244.567,512.072,241.406,510.111,239.191
	z"/>
<path d="M89.622,279.377c4.155,0,7.523-3.368,7.523-7.523V258.94c0-4.155-3.368-7.523-7.523-7.523c-4.155,0-7.523,3.368-7.523,7.523
	v12.914C82.099,276.008,85.467,279.377,89.622,279.377z"/>
<path d="M82.099,437.878c0,4.155,3.368,7.523,7.523,7.523c4.155,0,7.523-3.368,7.523-7.523V300.192c0-4.155-3.368-7.523-7.523-7.523
	c-4.155,0-7.523,3.368-7.523,7.523V437.878z"/>
<path d="M249.11,270.684c4.155,0,7.523-3.368,7.523-7.523V135.167c0-4.155-3.368-7.523-7.523-7.523
	c-4.155,0-7.523,3.368-7.523,7.523V263.16C241.587,267.316,244.955,270.684,249.11,270.684z"/>
<path d="M241.587,314.106c0,4.155,3.368,7.523,7.523,7.523c4.155,0,7.523-3.368,7.523-7.523v-19.424
	c0-4.155-3.368-7.523-7.523-7.523c-4.155,0-7.523,3.368-7.523,7.523V314.106z"/>
<path d="M407.184,236.564c-4.156,0-7.523,3.368-7.523,7.523v92.651c0,4.155,3.367,7.523,7.523,7.523s7.523-3.368,7.523-7.523
	v-92.651C414.707,239.932,411.34,236.564,407.184,236.564z"/>
<g>
</g>
<g>
</g>
<g>
</g>
<g>
</g>
<g>
</g>
<g>
</g>
<g>
</g>
<g>
</g>
<g>
</g>
<g>
</g>
<g>
</g>
<g>
</g>
<g>
</g>
<g>
</g>
<g>
</g>
</svg>
