<?xml version="1.0" encoding="iso-8859-1"?>
<!-- Generator: Adobe Illustrator 19.0.0, SVG Export Plug-In . SVG Version: 6.00 Build 0)  -->
<svg version="1.1" id="Capa_1" xmlns="http://www.w3.org/2000/svg" xmlns:xlink="http://www.w3.org/1999/xlink" x="0px" y="0px"
	 viewBox="0 0 512 512" style="enable-background:new 0 0 512 512;" xml:space="preserve">
<path style="fill:#694B4B;" d="M321.94,44.401c0,0,29.806-24.896,55.467-4.243s34.157,96.336,9.271,136.248
	c-24.886,39.912,8.332,48.805,18.515,39.201c10.183-9.604,15.764,48.249-37.812,34.49s-57.103-110.585-41.311-133.215
	C341.861,94.252,330.788,50.757,321.94,44.401z"/>
<g>
	<path style="fill:#00C3FF;" d="M320.772,25.017l17.417-8.78C338.189,16.236,357.5,27,363,57l-19.5,8.728L320.772,25.017z"/>
	<path style="fill:#00C3FF;" d="M350.849,298.641v43.583H158.878v-43.583c0-32.35,18.543-60.374,45.586-74.006
		c11.198-5.662,23.857-8.84,37.261-8.84h26.278c14.593,0,28.302,3.77,40.21,10.405C333.641,240.333,350.849,267.481,350.849,298.641
		z"/>
</g>
<g>
	<path style="fill:#00AAF0;" d="M350.849,298.641v43.583h-12.054v-43.583c0-24.949-11.031-53.564-28.483-71.231
		C334.587,241.85,350.849,268.35,350.849,298.641z"/>
	<path style="fill:#00AAF0;" d="M158.878,298.641v43.583h12.054v-43.583c0-24.949,11.031-53.564,28.483-71.231
		C175.14,241.85,158.878,268.35,158.878,298.641z"/>
</g>
<path style="fill:#FFF3A9;" d="M308.212,226.2c-6.489,57.515-32.517,98.538-46.184,116.025H248.29
	c-29.31-34.2-41.865-94.936-43.827-117.59c11.198-5.662,23.857-8.84,37.261-8.84h26.278
	C282.595,215.794,296.304,219.564,308.212,226.2z"/>
<path style="fill:#F7C9A4;" d="M254.862,252.528L254.862,252.528c-14.361,0-26.004-11.642-26.004-26.004v-40.201h52.007v40.201
	C280.865,240.886,269.223,252.528,254.862,252.528z"/>
<path style="fill:#FFD9B6;" d="M350.63,131.403c0,10.944-7.602,20.114-17.807,22.503c-1.708,0.41-3.481,0.624-5.312,0.624
	c-12.775,0-23.127-10.353-23.127-23.127c0-12.766,10.353-23.119,23.127-23.119c1.905,0,3.752,0.23,5.517,0.665
	C343.135,111.42,350.63,120.541,350.63,131.403z"/>
<path style="fill:#F7C9A4;" d="M333.028,108.949v39.334c0,1.888-0.066,3.768-0.205,5.624c-1.708,0.41-3.481,0.624-5.312,0.624
	c-12.775,0-23.127-10.353-23.127-23.127c0-12.766,10.353-23.119,23.127-23.119C329.416,108.284,331.263,108.514,333.028,108.949z"/>
<path style="fill:#FFD9B6;" d="M205.348,131.403c0,12.775-10.353,23.127-23.127,23.127c-1.831,0-3.612-0.213-5.32-0.624
	c-10.213-2.397-17.807-11.56-17.807-22.503c0-10.862,7.496-19.975,17.602-22.446c1.765-0.443,3.621-0.673,5.525-0.673
	C194.995,108.284,205.348,118.637,205.348,131.403z"/>
<path style="fill:#F7C9A4;" d="M205.348,131.403c0,12.775-10.353,23.127-23.127,23.127c-1.831,0-3.612-0.213-5.32-0.624
	c-0.14-1.855-0.205-3.735-0.205-5.624v-39.325c1.765-0.443,3.621-0.673,5.525-0.673
	C194.995,108.284,205.348,118.637,205.348,131.403z"/>
<path style="fill:#FFD9B6;" d="M318.901,65.312v81.087c0,35.369-28.671,64.039-64.039,64.039s-64.039-28.671-64.039-64.039V65.312
	H318.901z"/>
<path style="fill:#F7C9A4;" d="M318.901,65.312v53.363c-17.02-3.846-30.082-10.705-38.999-20.512
	c-2.581-2.838-4.605-5.697-6.19-8.465c-12.04,9.453-29.714,17.806-52.834,24.949c-11.157,3.443-21.743,6.044-30.055,7.86V65.312
	H318.901z"/>
<path style="fill:#694B4B;" d="M172.018,113.444c0,0,86.575-13.582,106.493-46.057c0,0-2.476,39.94,70.557,42.328
	c0,0,19.918-97.516-82.439-102.053S172.018,95.773,172.018,113.444z"/>
<path style="fill:#5B4040;" d="M349.067,109.716c-5.773-0.188-11.08-0.612-15.949-1.231c1.064-5.968,10.858-67.642-33.894-95.248
	C364.369,34.799,349.067,109.716,349.067,109.716z"/>
<rect x="15.942" y="446.06" style="fill:#00C3FF;" width="119.91" height="58.45"/>
<rect x="118.81" y="446.06" style="fill:#00AAF0;" width="17.05" height="58.45"/>
<rect x="199.04" y="446.06" style="fill:#00C3FF;" width="119.91" height="58.45"/>
<rect x="301.91" y="446.06" style="fill:#00AAF0;" width="17.05" height="58.45"/>
<rect x="382.14" y="446.06" style="fill:#00C3FF;" width="119.91" height="58.45"/>
<rect x="485.01" y="446.06" style="fill:#00AAF0;" width="17.05" height="58.45"/>
<path d="M155.88,349.72h191.97c4.142,0,7.5-3.358,7.5-7.5v-43.58c0-21.675-7.793-42.637-21.945-59.024
	c-12.584-14.572-29.46-24.703-48.035-28.998v-1.037c9.918-5.282,18.444-12.832,24.9-21.952
	c6.012,31.222,21.841,61.929,52.244,69.736c6.476,1.663,12.168,2.371,17.172,2.37c21.36-0.001,30.13-12.896,33.191-19.413
	c5.505-11.72,4.285-26.383-2.612-31.379c-4.039-2.926-9.352-2.438-13.221,1.211c-1.988,1.875-7.936,2.405-11.768-0.733
	c-5.531-4.529-3.749-15.386,4.768-29.042c11.412-18.306,17.184-45.18,15.837-73.731c-0.195-4.137-3.719-7.345-7.845-7.138
	c-4.137,0.195-7.333,3.708-7.138,7.845c1.207,25.582-3.744,49.306-13.582,65.088c-18.573,29.781-7.267,43.897-1.543,48.584
	c7.178,5.878,17.595,7.166,25.589,3.856c-0.028,3.512-0.962,8.338-4.131,12.492c-7.077,9.274-20.756,8.089-30.986,5.462
	c-30.66-7.873-42.707-48.132-43.805-80.884c0.687,0.046,1.375,0.077,2.069,0.077c2.409,0,4.787-0.279,7.02-0.817
	c13.896-3.253,23.601-15.513,23.601-29.813c0-5.752-1.606-11.173-4.408-15.823c1.345-1.064,2.332-2.583,2.696-4.367
	c0.25-1.222,4.035-20.542-0.412-42.861l10.06-4.505c3.154-1.413,4.935-4.798,4.312-8.197c-0.905-4.937-2.16-9.402-3.634-13.445
	c2.051,0.994,4.036,2.249,5.962,3.798c7.896,6.362,14.557,20.218,18.273,38.013c0.739,3.538,3.858,5.968,7.334,5.968
	c0.508,0,1.024-0.052,1.541-0.16c4.055-0.847,6.655-4.82,5.809-8.875c-4.478-21.442-12.84-38.001-23.55-46.63
	c-7.372-5.931-15.668-9.201-24.692-9.76c-7.435-10.203-15.044-14.57-15.58-14.868c-2.173-1.21-4.806-1.265-7.027-0.145
	l-12.659,6.382c-14.432-9.474-32.89-14.769-55.192-15.758c-32.63-1.446-58.032,6.475-75.531,23.545
	c-26.262,25.619-27.26,64.641-27.021,82.796c-8.005,5.681-12.821,14.83-12.821,24.891c0,14.287,9.702,26.545,23.563,29.804
	c2.288,0.548,4.666,0.826,7.068,0.826c0.948,0,1.888-0.047,2.82-0.132c4.583,20.665,18.117,37.993,36.32,47.686v1.043
	c-7.11,1.637-13.95,4.113-20.39,7.37c-0.004,0.002-0.009,0.004-0.013,0.006c-11.333,5.734-21.435,13.847-29.586,23.96
	c-2.6,3.225-2.092,7.947,1.133,10.546c1.387,1.118,3.05,1.661,4.702,1.661c2.191,0,4.362-0.956,5.844-2.794
	c4.494-5.575,9.697-10.421,15.435-14.451c3.744,23.63,14.045,66.337,34.831,97.795h-34.794v-12.18c0-4.142-3.358-7.5-7.5-7.5
	s-7.5,3.358-7.5,7.5v12.18H163.38v-36.08c0-8.82,1.508-17.451,4.481-25.654c1.412-3.895-0.601-8.195-4.495-9.607
	c-3.896-1.413-8.195,0.601-9.607,4.495c-3.569,9.847-5.379,20.198-5.379,30.766v43.58C148.38,346.362,151.738,349.72,155.88,349.72z
	 M233.36,215.5c5.905,1.583,12.103,2.44,18.5,2.44c6.401,0,12.602-0.858,18.51-2.442v11.022c0,10.201-8.295,18.5-18.495,18.509
	c-0.005,0-0.009-0.001-0.013-0.001c-0.005,0-0.01,0.001-0.015,0.001c-10.195-0.007-18.487-8.307-18.487-18.509V215.5z
	 M340.35,298.641v36.08h-20.439v-12.18c0-4.142-3.358-7.5-7.5-7.5s-7.5,3.358-7.5,7.5v12.18h-31.266
	c12.633-19.001,30.264-51.977,37.393-95.886C329.054,252.654,340.35,274.362,340.35,298.641z M297.13,230.402
	c-6.289,46.527-25.357,80.666-37.768,98.677v-69.907c14.876-3.417,26.008-16.755,26.008-32.653v-0.446
	C289.453,227.205,293.382,228.655,297.13,230.402z M324.51,147.03c-0.378,0-0.751-0.028-1.124-0.055
	c0.002-0.192,0.015-31.143,0.015-31.143c1.628-0.114,3.263,0.012,4.849,0.403c6.996,1.711,11.881,7.947,11.881,15.165
	c0,7.297-4.943,13.551-12.067,15.219C326.932,146.892,325.736,147.03,324.51,147.03z M334.54,24.967
	c4.454,3.664,12.621,12.166,16.801,27.693l-2.44,1.093c-2.713-7.302-6.514-14.58-11.793-21.346
	c-1.661-2.129-3.448-4.133-5.315-6.054L334.54,24.967z M198.906,34.45c14.413-14.061,36.073-20.558,64.392-19.297
	c28.359,1.258,49.193,10.141,61.923,26.403c16.049,20.501,15.559,48.052,14.355,60.314c-8.045-0.567-15.372-1.667-21.851-3.284
	c-0.001,0-0.002-0.001-0.003-0.001c-34.458-8.631-34.75-29.256-34.723-30.777c0.293-3.452-1.826-6.551-5.118-7.644
	c-3.308-1.099-6.943,0.334-8.764,3.304c-9.179,14.96-39.406,29.155-82.933,38.945c-0.001,0-0.003,0.001-0.004,0.001
	c-3.712,0.834-7.029,1.521-9.787,2.064C176.299,87.574,177.909,54.932,198.906,34.45z M175.616,146.609
	c-7.081-1.665-12.026-7.919-12.026-15.209c0-4.019,1.511-7.752,4.127-10.575c0.429,0.076,0.865,0.115,1.303,0.115
	c0.386,0,0.773-0.03,1.16-0.09c0.224-0.035,4.028-0.636,10.15-1.86v27.41c0,0.197,0.013,0.39,0.015,0.586
	C178.765,147.098,177.162,146.979,175.616,146.609z M195.33,146.4v-30.713c26.865-6.447,58.108-16.821,76.298-32.6
	c4.501,9.734,14.53,21.537,36.772,28.458V146.4c0,31.176-25.364,56.54-56.54,56.54C220.689,202.94,195.33,177.576,195.33,146.4z
	 M218.36,226.098v0.422c0,15.899,11.129,29.237,26.002,32.653v69.514c-20.924-30.275-31.891-75.967-34.863-99.505
	C212.377,227.971,215.335,226.944,218.36,226.098z"/>
<path d="M153.093,398.606H72.898c-4.142,0-7.5,3.358-7.5,7.5v32.45H12.942c-4.142,0-7.5,3.358-7.5,7.5V504.5
	c0,4.142,3.358,7.5,7.5,7.5h119.912c4.142,0,7.5-3.358,7.5-7.5v-58.444c0-4.142-3.358-7.5-7.5-7.5H80.398v-24.95h72.694
	c4.142,0,7.5-3.358,7.5-7.5S157.235,398.606,153.093,398.606z M125.355,497H20.442v-43.444h104.912L125.355,497L125.355,497z"/>
<path d="M499.058,438.556h-52.456v-32.45c0-4.142-3.358-7.5-7.5-7.5H263.5v-34.669c0-4.142-3.358-7.5-7.5-7.5
	c-4.142,0-7.5,3.358-7.5,7.5v34.669h-65.28c-4.142,0-7.5,3.358-7.5,7.5s3.358,7.5,7.5,7.5h65.28v24.95h-52.456
	c-4.142,0-7.5,3.358-7.5,7.5V504.5c0,4.142,3.358,7.5,7.5,7.5h119.912c4.142,0,7.5-3.358,7.5-7.5v-58.444c0-4.142-3.358-7.5-7.5-7.5
	H263.5v-24.95h168.102v24.95h-52.456c-4.142,0-7.5,3.358-7.5,7.5V504.5c0,4.142,3.358,7.5,7.5,7.5h119.912
	c4.142,0,7.5-3.358,7.5-7.5v-58.444C506.558,441.914,503.2,438.556,499.058,438.556z M308.456,497H203.544v-43.444h104.912V497z
	 M491.558,497H386.646v-43.444h104.912L491.558,497L491.558,497z"/>
<path d="M224.104,141.441c-4.142,0-7.5-3.358-7.5-7.5v-5.223c0-4.142,3.358-7.5,7.5-7.5s7.5,3.358,7.5,7.5v5.223
	C231.604,138.083,228.246,141.441,224.104,141.441z"/>
<path d="M279.896,141.441c-4.142,0-7.5-3.358-7.5-7.5v-5.223c0-4.142,3.358-7.5,7.5-7.5s7.5,3.358,7.5,7.5v5.223
	C287.396,138.083,284.038,141.441,279.896,141.441z"/>
<g>
</g>
<g>
</g>
<g>
</g>
<g>
</g>
<g>
</g>
<g>
</g>
<g>
</g>
<g>
</g>
<g>
</g>
<g>
</g>
<g>
</g>
<g>
</g>
<g>
</g>
<g>
</g>
<g>
</g>
</svg>
