<?xml version="1.0" encoding="iso-8859-1"?>
<!-- Generator: Adobe Illustrator 19.0.0, SVG Export Plug-In . SVG Version: 6.00 Build 0)  -->
<svg version="1.1" id="Capa_1" xmlns="http://www.w3.org/2000/svg" xmlns:xlink="http://www.w3.org/1999/xlink" x="0px" y="0px"
	 viewBox="0 0 512 512" style="enable-background:new 0 0 512 512;" xml:space="preserve">
<path style="fill:#F2F2F0;" d="M284.115,218.994h-56.229l-73.418,18.223c-23.721,5.888-40.377,27.183-40.377,51.624v52.109H397.91
	v-52.109c0-24.441-16.656-45.736-40.377-51.624L284.115,218.994z"/>
<g>
	<path style="fill:#E5E5DA;" d="M150.765,238.286c-13.606,12.412-22.181,33.016-22.181,50.554v52.111h-14.492V288.84
		C114.092,265.693,129.027,245.364,150.765,238.286z"/>
	<path style="fill:#E5E5DA;" d="M361.237,238.286c13.606,12.412,22.181,33.016,22.181,50.554v52.111h14.492V288.84
		C397.91,265.693,382.975,245.364,361.237,238.286z"/>
</g>
<g>
	<polygon style="fill:#FFF082;" points="274.68,340.951 237.325,340.951 246.828,277.64 265.176,277.64 	"/>
	<polygon style="fill:#FFF082;" points="244.28,277.64 232.56,257.34 244.28,237.041 267.72,237.041 279.44,257.34 267.72,277.64 	
		"/>
</g>
<rect x="226.44" y="173.33" style="fill:#F7C9A4;" width="59.13" height="54.775"/>
<path style="fill:#FFD9B6;" d="M348.378,120.35c0,10.556-7.333,19.402-17.177,21.707c-1.647,0.396-3.358,0.602-5.124,0.602
	c-12.322,0-22.309-9.986-22.309-22.309c0-12.314,9.986-22.301,22.309-22.301c1.837,0,3.619,0.222,5.322,0.641
	C341.148,101.074,348.378,109.873,348.378,120.35z"/>
<path style="fill:#F7C9A4;" d="M331.4,98.691v37.941c0,1.821-0.063,3.635-0.198,5.425c-1.647,0.396-3.358,0.602-5.124,0.602
	c-12.322,0-22.309-9.986-22.309-22.309c0-12.314,9.986-22.301,22.309-22.301C327.915,98.049,329.697,98.271,331.4,98.691z"/>
<path style="fill:#FFD9B6;" d="M208.239,120.35c0,12.322-9.986,22.309-22.309,22.309c-1.766,0-3.484-0.206-5.132-0.602
	c-9.852-2.312-17.177-11.15-17.177-21.707c0-10.477,7.23-19.268,16.979-21.651c1.703-0.428,3.492-0.649,5.33-0.649
	C198.253,98.049,208.239,108.035,208.239,120.35z"/>
<path style="fill:#F7C9A4;" d="M208.239,120.35c0,12.322-9.986,22.309-22.309,22.309c-1.766,0-3.484-0.206-5.132-0.602
	c-0.135-1.79-0.198-3.603-0.198-5.425V98.699c1.703-0.428,3.492-0.649,5.33-0.649C198.253,98.049,208.239,108.035,208.239,120.35z"
	/>
<path style="fill:#FFD9B6;" d="M317.77,56.6v78.219c0,34.116-27.654,61.77-61.77,61.77s-61.77-27.654-61.77-61.77V56.6H317.77z"/>
<path style="fill:#F7C9A4;" d="M317.77,56.6v54.287l-20.734-3.472c-3.509-0.588-6.081-3.625-6.081-7.183v-8.155
	c0-1.399-1.035-2.579-2.422-2.76c-12.834-1.673-34.845-3.934-63.549-4.562c-1.558-0.034-2.839,1.224-2.839,2.783v12.745
	c0,3.588-2.613,6.642-6.159,7.196l-21.757,3.401V56.6H317.77z"/>
<path style="fill:#694B4B;" d="M194.267,98.046c0,0-18.84-63.618,13.92-75.233c0,0,4.127-15.311,20.894-15.311s103.698,0,103.698,0
	s4.127,46.46-14.961,90.544L303.63,95.67V78.776c0,0-36.114-6.863-94.154-6.863v23.758L194.267,98.046z"/>
<path style="fill:#5B4040;" d="M317.818,98.049l-12.568-2.107C323.314,52.497,319.315,7.5,319.315,7.5c8.196,0,13.463,0,13.463,0
	S336.903,53.962,317.818,98.049z"/>
<g>
	<polygon style="fill:#E5E5DA;" points="213.5,202.406 256,228.011 238.842,263.12 203.733,226.955 	"/>
	<polygon style="fill:#E5E5DA;" points="298.5,202.406 256,228.011 273.158,263.12 308.267,226.955 	"/>
</g>
<rect x="12.1" y="445.85" style="fill:#FFF082;" width="120.33" height="58.647"/>
<rect x="115.32" y="445.85" style="fill:#FFDC64;" width="17.11" height="58.647"/>
<rect x="195.84" y="445.85" style="fill:#FFF082;" width="120.33" height="58.647"/>
<rect x="299.06" y="445.85" style="fill:#FFDC64;" width="17.11" height="58.647"/>
<rect x="379.57" y="445.85" style="fill:#FFF082;" width="120.33" height="58.647"/>
<rect x="482.79" y="445.85" style="fill:#FFDC64;" width="17.11" height="58.647"/>
<path d="M114.09,348.45h283.82c4.142,0,7.5-3.358,7.5-7.5v-52.11c0-19.458-9.423-37.863-25.206-49.235
	c-3.361-2.422-8.048-1.66-10.469,1.701c-2.421,3.361-1.66,8.048,1.701,10.469c11.881,8.561,18.975,22.417,18.975,37.065v44.61
	h-30.295v-20.349c0-4.142-3.358-7.5-7.5-7.5s-7.5,3.358-7.5,7.5v20.349h-63.977l-7.659-51.025c0.269-0.324,0.522-0.663,0.737-1.035
	l11.72-20.3c0.138-0.239,0.253-0.487,0.362-0.737l25.888-26.667l34.386,8.542c0.607,0.151,1.215,0.223,1.814,0.223
	c3.365,0,6.425-2.281,7.273-5.694c0.999-4.02-1.451-8.088-5.471-9.087l-37.245-9.252l-7.474-18.786
	c-0.814-2.046-2.487-3.632-4.574-4.335c-2.089-0.703-4.378-0.453-6.265,0.683l-1.56,0.94v-3.575
	c15.577-9.879,26.519-25.471,30.518-43.296c0.825,0.068,1.655,0.11,2.492,0.11c2.293,0,4.596-0.27,6.833-0.798
	c13.523-3.171,22.967-15.102,22.967-29.012c0-13.781-9.335-25.684-22.681-28.941c-1.443-0.356-2.922-0.59-4.418-0.724
	c14.97-41.844,11.632-82.024,11.47-83.849C339.907,2.966,336.665,0,332.78,0h-103.7c-15.061,0-23.377,9.755-26.761,17.13
	c-26.99,12.835-21.753,54.146-17.618,73.456c-2.026,0.082-4.012,0.354-5.88,0.827c-13.367,3.263-22.702,15.162-22.702,28.936
	c0,13.897,9.441,25.826,22.954,29.009c2.25,0.532,4.556,0.801,6.856,0.801c0.834,0,1.661-0.042,2.483-0.109
	c4.001,17.826,14.941,33.414,30.517,43.294v3.576l-1.56-0.94c-1.886-1.136-4.176-1.386-6.265-0.683
	c-2.087,0.703-3.76,2.289-4.574,4.335l-7.474,18.786l-46.394,11.523c-27.127,6.735-46.073,30.956-46.073,58.898v52.11
	C106.59,345.092,109.948,348.45,114.09,348.45z M256,245.092l10.017,20.498l-2.627,4.551h-14.78l-2.627-4.551L256,245.092z
	 M246.035,333.45l7.251-48.31h5.432l7.252,48.31H246.035z M294.799,213.392l4.704,11.824l-24.292,25.023l-9.456-19.349
	L294.799,213.392z M340.88,120.35c0,6.91-4.685,12.835-11.405,14.411c-1.397,0.33-2.816,0.442-4.212,0.367
	c0-0.103,0.008-0.205,0.008-0.308v-29.24c1.463-0.081,2.935,0.046,4.352,0.396C336.25,107.594,340.88,113.505,340.88,120.35z
	 M210.698,29.878c2.324-0.824,4.094-2.738,4.734-5.119C215.54,24.36,218.184,15,229.08,15h96.531
	c0.27,13.338-0.637,44.192-12.457,74.662l-2.025-0.339V78.78c0-3.602-2.56-6.695-6.098-7.368
	c-1.503-0.286-37.472-7.002-95.552-7.002c-4.142,0-7.5,3.358-7.5,7.5v17.342l-2.14,0.334
	C195.588,70.907,191.961,36.526,210.698,29.878z M182.519,134.76c-6.711-1.581-11.399-7.506-11.399-14.41
	c0-6.839,4.63-12.746,11.32-14.379c1.104-0.28,2.278-0.421,3.49-0.421c0.268,0,0.534,0.007,0.8,0.021v29.249l0,0
	c0,0.106,0,0.213,0,0.319C185.339,135.215,183.91,135.089,182.519,134.76z M201.73,134.82v-30.346l8.909-1.394
	c3.65-0.571,6.341-3.715,6.341-7.41V79.449c39.166,0.411,67.373,3.942,79.15,5.706V95.67c0,3.664,2.647,6.791,6.26,7.397l7.88,1.321
	v30.432c0,1.797-0.088,3.593-0.262,5.351c-0.002,0.017-0.003,0.034-0.005,0.051c-1.756,17.829-12.233,33.629-28.025,42.264
	c-7.919,4.32-16.902,6.604-25.978,6.604s-18.059-2.284-25.971-6.601c-15.805-8.643-26.285-24.452-28.036-42.3
	C201.993,140.188,201.73,136.592,201.73,134.82z M233.93,200.488c0.106,0.035,0.213,0.065,0.319,0.099
	c0.745,0.246,1.494,0.48,2.247,0.701c0.043,0.013,0.086,0.027,0.129,0.039c6.271,1.821,12.805,2.762,19.374,2.762
	c6.567,0,13.097-0.94,19.368-2.76c0.057-0.017,0.114-0.035,0.171-0.052c0.737-0.216,1.471-0.446,2.201-0.686
	c0.11-0.036,0.221-0.066,0.33-0.103v5.47L256,219.255l-22.07-13.297V200.488z M217.201,213.392l29.044,17.499l-9.456,19.349
	l-24.292-25.023L217.201,213.392z M121.59,288.84c0-21.036,14.264-39.27,34.688-44.341l43.536-10.813l25.889,26.668
	c0.109,0.249,0.224,0.497,0.362,0.736l11.72,20.3c0.215,0.373,0.47,0.714,0.74,1.039l-7.658,51.021h-63.982v-20.349
	c0-4.142-3.358-7.5-7.5-7.5s-7.5,3.358-7.5,7.5v20.349H121.59V288.84z"/>
<path d="M132.429,438.353H79.765v-25.087h41.11c4.142,0,7.5-3.358,7.5-7.5s-3.358-7.5-7.5-7.5h-48.61c-4.142,0-7.5,3.358-7.5,7.5
	v32.587H12.101c-4.142,0-7.5,3.358-7.5,7.5V504.5c0,4.142,3.358,7.5,7.5,7.5h120.328c4.142,0,7.5-3.358,7.5-7.5v-58.647
	C139.929,441.711,136.571,438.353,132.429,438.353z M124.929,497H19.601v-43.647h105.328V497z"/>
<path d="M499.899,438.353h-52.664v-32.587c0-4.142-3.358-7.5-7.5-7.5H263.5v-34.815c0-4.142-3.358-7.5-7.5-7.5s-7.5,3.358-7.5,7.5
	v34.815h-95.833c-4.142,0-7.5,3.358-7.5,7.5s3.358,7.5,7.5,7.5H248.5v25.087h-52.664c-4.142,0-7.5,3.358-7.5,7.5V504.5
	c0,4.142,3.358,7.5,7.5,7.5h68.497c4.142,0,7.5-3.358,7.5-7.5s-3.358-7.5-7.5-7.5h-60.997v-43.647h105.327V497h-10.736
	c-4.142,0-7.5,3.358-7.5,7.5s3.358,7.5,7.5,7.5h18.236c4.142,0,7.5-3.358,7.5-7.5v-58.647c0-4.142-3.358-7.5-7.5-7.5H263.5v-25.087
	h168.735v25.087h-52.664c-4.142,0-7.5,3.358-7.5,7.5V504.5c0,4.142,3.358,7.5,7.5,7.5h120.328c4.142,0,7.5-3.358,7.5-7.5v-58.647
	C507.399,441.711,504.041,438.353,499.899,438.353z M492.399,497H387.071v-43.647h105.328L492.399,497L492.399,497z"/>
<path d="M228.104,129.441c-4.142,0-7.5-3.358-7.5-7.5v-5.223c0-4.142,3.358-7.5,7.5-7.5s7.5,3.358,7.5,7.5v5.223
	C235.604,126.083,232.246,129.441,228.104,129.441z"/>
<path d="M283.896,129.441c-4.142,0-7.5-3.358-7.5-7.5v-5.223c0-4.142,3.358-7.5,7.5-7.5s7.5,3.358,7.5,7.5v5.223
	C291.396,126.083,288.038,129.441,283.896,129.441z"/>
<g>
</g>
<g>
</g>
<g>
</g>
<g>
</g>
<g>
</g>
<g>
</g>
<g>
</g>
<g>
</g>
<g>
</g>
<g>
</g>
<g>
</g>
<g>
</g>
<g>
</g>
<g>
</g>
<g>
</g>
</svg>
