<?xml version="1.0" encoding="iso-8859-1"?>
<!-- Generator: Adobe Illustrator 19.0.0, SVG Export Plug-In . SVG Version: 6.00 Build 0)  -->
<svg version="1.1" id="Capa_1" xmlns="http://www.w3.org/2000/svg" xmlns:xlink="http://www.w3.org/1999/xlink" x="0px" y="0px"
	 viewBox="0 0 511.998 511.998" style="enable-background:new 0 0 511.998 511.998;" xml:space="preserve">
<path style="fill:#5B4040;" d="M117.664,170.359c0,0-114.292,115.028-53.015,140.198c61.277,25.171,317.4,54.776,274.024-46.434
	s-49.572-93.636-49.572-93.636L117.664,170.359z"/>
<path style="fill:#FF5F5F;" d="M331.307,439.786v64.712H46.267v-64.712c0-48.033,27.533-89.643,67.687-109.885
	c16.627-8.407,35.423-13.126,55.325-13.126h39.018c21.667,0,42.023,5.597,59.704,15.45
	C305.757,353.21,331.307,393.518,331.307,439.786z"/>
<g>
	<path style="fill:#F44D4D;" d="M331.307,439.786v64.712h-17.898v-64.712c0-37.045-16.379-79.532-42.291-105.764
		C307.162,355.461,331.307,394.809,331.307,439.786z"/>
	<path style="fill:#F44D4D;" d="M46.267,439.786v64.712h17.898v-64.712c0-37.045,16.379-79.532,42.291-105.764
		C70.413,355.461,46.267,394.809,46.267,439.786z"/>
</g>
<path style="fill:#F2F2F0;" d="M267.999,332.224c-9.636,85.398-48.281,146.31-68.575,172.274h-20.397
	c-43.52-50.781-62.161-140.961-65.074-174.598c16.627-8.407,35.423-13.126,55.325-13.126h39.018
	C229.963,316.774,250.319,322.372,267.999,332.224z"/>
<path style="fill:#F7C9A4;" d="M188.785,371.317L188.785,371.317c-21.324,0-38.61-17.286-38.61-38.61v-59.69h77.22v59.69
	C227.395,354.031,210.109,371.317,188.785,371.317z"/>
<path style="fill:#FFD9B6;" d="M330.982,191.47c0,16.249-11.288,29.866-26.44,33.413c-2.536,0.61-5.169,0.926-7.887,0.926
	c-18.968,0-34.339-15.372-34.339-34.34c0-18.956,15.372-34.327,34.339-34.327c2.828,0,5.571,0.341,8.192,0.987
	C319.853,161.799,330.982,175.342,330.982,191.47z"/>
<path style="fill:#F7C9A4;" d="M304.847,158.13v58.403c0,2.804-0.098,5.595-0.305,8.35c-2.536,0.61-5.169,0.926-7.887,0.926
	c-18.968,0-34.339-15.372-34.339-34.34c0-18.956,15.372-34.327,34.339-34.327C299.483,157.142,302.226,157.484,304.847,158.13z"/>
<path style="fill:#FFD9B6;" d="M115.266,191.47c0,18.968-15.372,34.34-34.339,34.34c-2.718,0-5.364-0.317-7.899-0.926
	c-15.164-3.559-26.44-17.164-26.44-33.413c0-16.127,11.13-29.658,26.136-33.328c2.621-0.658,5.376-1,8.204-1
	C99.895,157.142,115.266,172.514,115.266,191.47z"/>
<path style="fill:#F7C9A4;" d="M115.266,191.47c0,18.968-15.372,34.34-34.339,34.34c-2.718,0-5.364-0.317-7.899-0.926
	c-0.207-2.755-0.305-5.546-0.305-8.35v-58.391c2.621-0.658,5.376-1,8.204-1C99.895,157.142,115.266,172.514,115.266,191.47z"/>
<path style="fill:#FFD9B6;" d="M283.87,93.338v120.399c0,52.516-42.57,95.086-95.086,95.086s-95.085-42.571-95.085-95.087V93.338
	H283.87z"/>
<path style="fill:#F7C9A4;" d="M283.87,93.338v79.233c-25.272-5.711-44.667-15.894-57.907-30.456
	c-3.832-4.213-6.837-8.458-9.192-12.569c-17.877,14.035-44.119,26.439-78.448,37.045c-16.565,5.112-32.284,8.975-44.625,11.67
	V93.338H283.87z"/>
<path style="fill:#694B4B;" d="M328.658,159.268c-36.87-1.21-60.78-8.86-76.28-18.44c-30.08-18.58-28.48-44.41-28.48-44.41
	c-29.57,48.22-158.12,68.39-158.12,68.39c0-26.24-11.5-163.81,140.48-157.07c33.49,1.48,58.16,9.67,76.28,21.53
	C346.638,71.258,328.658,159.268,328.658,159.268z"/>
<g>
	<path style="fill:#5B4040;" d="M328.658,159.268c-36.87-1.21-60.78-8.86-76.28-18.44c-2.33-9.27-3.57-18.97-3.57-28.96
		c0-32.16,12.87-61.31,33.73-82.6C346.638,71.258,328.658,159.268,328.658,159.268z"/>
	<path style="fill:#5B4040;" d="M328.661,159.269c-8.572-0.279-16.452-0.909-23.681-1.828c1.58-8.861,16.121-100.435-50.326-141.425
		C351.382,48.031,328.661,159.269,328.661,159.269z"/>
</g>
<path style="fill:#B4E66E;" d="M465.729,114.88c0-54.601-44.263-98.865-98.865-98.865s-98.865,44.264-98.865,98.865
	c0,44.604,29.54,82.302,70.121,94.615l13.705,35.247l28.814-31.957C428.719,206.081,465.729,164.806,465.729,114.88z"/>
<path d="M366.868,8.518c-25.604,0-49.123,9.094-67.5,24.219c-22.29-19.821-53.454-30.749-92.779-32.491
	c-47.382-2.104-84.21,9.314-109.444,33.93C58.281,72.087,57.72,130.84,58.146,156.416c-11.857,7.653-19.057,20.673-19.057,35.053
	c0,15.761,8.637,29.702,21.923,36.827c-18.337,28.362-25.212,50.931-20.421,67.157c2.973,10.067,10.108,17.484,21.207,22.043
	c9.412,3.868,22.847,7.736,38.901,11.252c-11.237,6.948-21.454,15.614-30.227,25.771c-20.444,23.67-31.703,53.952-31.703,85.269
	v64.71c0,4.142,3.357,7.5,7.5,7.5h285.04c4.143,0,7.5-3.358,7.5-7.5v-64.71c0-31.317-11.259-61.599-31.703-85.269
	c-5.507-6.375-11.585-12.16-18.125-17.305c28.933-5.788,47.979-16.303,56.715-31.371c7.254-12.515,7.213-27.543-0.124-44.67
	c-6.61-15.417-12.763-29.251-18.332-41.214c1.424-1.524,2.748-3.146,3.934-4.873c0.417,0.149,0.828,0.311,1.248,0.454l12.418,31.917
	c0.943,2.425,3.077,4.188,5.637,4.658c0.45,0.083,0.903,0.123,1.353,0.123c2.103,0,4.134-0.885,5.57-2.478l27.019-29.965
	c22.756-3.794,43.907-15.069,59.818-31.942c2.842-3.014,2.702-7.76-0.312-10.602c-3.015-2.842-7.761-2.702-10.603,0.311
	c-14.215,15.075-33.293,24.947-53.72,27.797c-1.747,0.244-3.353,1.096-4.534,2.406l-20.661,22.914l-9.299-23.901
	c-0.835-2.147-2.61-3.791-4.815-4.459c-3.23-0.978-6.403-2.14-9.454-3.463c-16.694-7.171-30.761-19.039-40.688-34.336
	c-1.327-2.035-2.615-4.21-3.826-6.464c-0.001-0.002-0.002-0.004-0.003-0.005c-7.08-13.169-10.823-28.099-10.823-43.174
	c0-50.376,40.988-91.36,91.37-91.36c50.376,0,91.36,40.984,91.36,91.36c0,14.441-3.263,28.241-9.698,41.016
	c-1.863,3.699-0.375,8.208,3.324,10.072c3.698,1.864,8.208,0.375,10.072-3.324c7.499-14.888,11.302-30.958,11.302-47.764
	C473.228,56.231,425.516,8.518,366.868,8.518z M62.789,171.68c0.941,0.409,1.956,0.628,2.989,0.628c0.387,0,0.776-0.03,1.165-0.091
	c0.608-0.096,7.943-1.264,19.265-3.622v45.143c0,1.352,0.035,2.696,0.087,4.035c-1.75,0.355-3.543,0.535-5.367,0.535
	c-2.084,0-4.151-0.243-6.189-0.732c-12.158-2.847-20.65-13.583-20.65-26.107C54.088,183.769,57.302,176.67,62.789,171.68z
	 M54.976,291.204c-3.58-12.124,3.834-32.696,20.898-58.209c1.672,0.205,3.36,0.313,5.054,0.313c2.384,0,4.735-0.209,7.046-0.601
	c5.97,31.802,26.661,58.473,54.704,72.645v6.653c-6.801,1.411-13.454,3.365-19.9,5.826c-23.335-4.179-43.408-9.331-55.28-14.21
	C60.717,300.835,56.62,296.773,54.976,291.204z M126.914,332.243c5.077-1.975,10.332-3.63,15.764-4.895v5.36
	c0,4.767,0.727,9.368,2.076,13.697c5.124,16.438,19.221,28.948,36.531,31.794V495.45c-39.217-49.161-55.657-129.525-59.338-161.138
	C123.124,333.789,126.467,332.473,126.914,332.243z M219.898,318.258v14.45c0,17.15-13.95,31.104-31.099,31.11
	c-0.005,0-0.009-0.001-0.014-0.001c-0.004,0-0.008,0.001-0.012,0.001c-17.147-0.008-31.095-13.961-31.095-31.109v-14.45v-6.768
	c9.817,3.131,20.269,4.828,31.11,4.828c10.671,0,21.144-1.67,31.11-4.839V318.258z M53.768,439.788
	c0-41.162,21.167-77.499,54.031-97.984c4.822,34.42,20.896,106.023,55.893,155.194h-62.198v-21.727c0-4.142-3.357-7.5-7.5-7.5
	s-7.5,3.358-7.5,7.5v21.727H53.768V439.788z M323.809,439.788v57.21h-37.62v-21.727c0-4.142-3.357-7.5-7.5-7.5s-7.5,3.358-7.5,7.5
	v21.727h-56.932c11.617-16.68,27.296-42.769,40.197-76.983c1.462-3.875-0.496-8.202-4.371-9.664
	c-3.876-1.461-8.202,0.495-9.664,4.372c-14.656,38.869-32.978,66.691-44.133,81.539V378.199
	c17.313-2.844,31.413-15.355,36.537-31.795c1.349-4.329,2.076-8.929,2.076-13.697v-5.36c8.82,2.055,17.192,5.104,25.036,8.981
	c-2.295,17.97-6.021,35.885-11.13,53.328c-1.165,3.975,1.113,8.142,5.089,9.306c0.704,0.206,1.414,0.304,2.111,0.304
	c3.245,0,6.236-2.122,7.194-5.394c4.734-16.16,8.324-32.711,10.75-49.345C304.421,365.419,323.809,400.395,323.809,439.788z
	 M332.718,298.32c-7.739,13.35-29.26,22.559-62.295,26.691c-11.101-6.017-23.064-10.422-35.524-13.006v-6.627
	c8.268-4.164,16.006-9.458,22.978-15.813c16.584-15.118,27.646-35.053,31.729-56.859c2.314,0.393,4.668,0.603,7.054,0.603
	c3.262,0,6.505-0.383,9.585-1.126c3.022-0.705,5.933-1.758,8.69-3.104c5.16,11.17,10.81,23.913,16.851,38.003
	C337.228,279.792,337.534,290.011,332.718,298.32z M317.062,208.869c-3.679,4.299-8.681,7.41-14.283,8.718
	c-3.725,0.898-7.74,0.947-11.491,0.188c0.005-0.137,0.003-0.271,0.008-0.408c0.043-1.216,0.072-2.428,0.072-3.628V189.8
	C298.908,197.406,307.55,203.833,317.062,208.869z M231.384,96.883c0.214-3.438-1.941-6.579-5.226-7.617
	c-3.285-1.037-6.853,0.295-8.653,3.23c-9.195,14.994-31.644,29.48-64.918,41.894c-3.881,1.448-5.854,5.768-4.406,9.648
	c1.449,3.882,5.771,5.854,9.648,4.405c27.741-10.349,48.395-22.048,61.675-34.905c4.934,13.669,17.565,32.123,49.661,43.424
	c1.198,2.786,2.509,5.523,3.946,8.195c0.578,1.075,1.18,2.139,1.793,3.194c0.454,0.78,0.913,1.55,1.379,2.305
	c0.029,0.046,0.056,0.095,0.085,0.142v42.939c0,2.851-0.143,5.774-0.424,8.687c-4.426,44.976-41.894,78.892-87.156,78.892
	c-48.292,0-87.58-39.288-87.58-87.58v-48.477c9.467-2.234,20.259-5.03,31.563-8.432c3.966-1.194,6.214-5.377,5.02-9.343
	s-5.379-6.214-9.344-5.02c-22.866,6.883-44.021,11.29-55.308,13.419c-0.381-23.89,0.302-77.631,34.48-110.972
	c22.149-21.607,55.226-31.588,98.307-29.682c35.19,1.559,62.901,10.932,82.515,27.873c-17.344,18.932-27.943,44.137-27.943,71.774
	c0,7.859,0.882,15.684,2.589,23.31C230.727,122.224,231.338,97.973,231.384,96.883z"/>
<path d="M423.864,104.814h-114c-4.143,0-7.5,3.358-7.5,7.5s3.357,7.5,7.5,7.5h114c4.143,0,7.5-3.358,7.5-7.5
	S428.007,104.814,423.864,104.814z"/>
<path d="M423.864,128.814h-114c-4.143,0-7.5,3.358-7.5,7.5s3.357,7.5,7.5,7.5h114c4.143,0,7.5-3.358,7.5-7.5
	S428.007,128.814,423.864,128.814z"/>
<path d="M146.624,199.283c-4.142,0-7.5-3.358-7.5-7.5v-8.201c0-4.142,3.358-7.5,7.5-7.5s7.5,3.358,7.5,7.5v8.201
	C154.124,195.925,150.766,199.283,146.624,199.283z"/>
<path d="M234.238,199.283c-4.142,0-7.5-3.358-7.5-7.5v-8.201c0-4.142,3.358-7.5,7.5-7.5s7.5,3.358,7.5,7.5v8.201
	C241.738,195.925,238.38,199.283,234.238,199.283z"/>
<g>
</g>
<g>
</g>
<g>
</g>
<g>
</g>
<g>
</g>
<g>
</g>
<g>
</g>
<g>
</g>
<g>
</g>
<g>
</g>
<g>
</g>
<g>
</g>
<g>
</g>
<g>
</g>
<g>
</g>
</svg>
