<?xml version="1.0" encoding="iso-8859-1"?>
<!-- Generator: Adobe Illustrator 19.0.0, SVG Export Plug-In . SVG Version: 6.00 Build 0)  -->
<svg version="1.1" id="Capa_1" xmlns="http://www.w3.org/2000/svg" xmlns:xlink="http://www.w3.org/1999/xlink" x="0px" y="0px"
	 viewBox="0 0 512.001 512.001" style="enable-background:new 0 0 512.001 512.001;" xml:space="preserve">
<path style="fill:#F7C9A4;" d="M333.384,300.283l31.003-24.62c5.89-4.677,8.643-12.272,7.12-19.637l-4.323-20.895H258.165v65.152
	H333.384z"/>
<path style="fill:#FFD9B6;" d="M141.858,196.261h343.105c10.79,0,19.537,8.747,19.537,19.537l0,0
	c0,10.268-7.949,18.784-18.193,19.491l-181.612,9.939c-8.97,0.619-16,7.954-16.236,16.942l0,0
	c-0.265,10.086,6.819,18.877,16.731,20.761l31.503,5.988c8.989,1.709,14.917,10.347,13.278,19.349l0,0
	c-1.357,7.457-7.577,13.057-15.135,13.628l-121.693,9.187c-13.929,1.052-27.346-5.479-35.111-17.09l-8.891-13.295h-27.283V196.261z"
	/>
<rect x="141.86" y="196.261" style="fill:#F7C9A4;" width="31.23" height="104.44"/>
<rect x="7.505" y="191.081" style="fill:#E5E5DA;" width="89.53" height="129.85"/>
<rect x="51.39" y="191.071" style="fill:#D1D0BF;" width="45.636" height="129.85"/>
<rect x="76.75" y="179.221" style="fill:#E5E5DA;" width="69.06" height="153.57"/>
<rect x="119.48" y="179.221" style="fill:#F2F2F0;" width="26.322" height="153.57"/>
<path d="M228.933,322.365l-16.356,1.24c-11.21,0.837-22.059-4.437-28.312-13.779l-8.89-13.3c-1.392-2.082-3.731-3.332-6.235-3.332
	h-15.834v-89.431H381.92c4.142,0,7.5-3.357,7.5-7.5s-3.358-7.5-7.5-7.5H153.306v-9.547c0-4.143-3.358-7.5-7.5-7.5h-69.06
	c-4.142,0-7.5,3.357-7.5,7.5v4.357H7.5c-4.142,0-7.5,3.357-7.5,7.5v30.548c0,4.143,3.358,7.5,7.5,7.5s7.5-3.357,7.5-7.5v-23.048
	h54.246v114.853H15v-57.658c0-4.143-3.358-7.5-7.5-7.5s-7.5,3.357-7.5,7.5v65.158c0,4.143,3.358,7.5,7.5,7.5h61.746v4.358
	c0,4.143,3.358,7.5,7.5,7.5h69.06c4.142,0,7.5-3.357,7.5-7.5v-24.591h11.826l6.665,9.971c8.611,12.867,23.105,20.528,38.445,20.528
	c1.15,0,2.307-0.044,3.465-0.131l16.36-1.24c4.13-0.313,7.225-3.915,6.912-8.046C236.666,325.147,233.079,322.05,228.933,322.365z
	 M138.306,325.285h-54.06V186.717h54.06V325.285z"/>
<path d="M484.96,188.764H415c-4.142,0-7.5,3.357-7.5,7.5s3.358,7.5,7.5,7.5h69.96c6.639,0,12.04,5.396,12.04,12.03
	c0,3.058-1.151,5.974-3.255,8.226c-2.062,2.22-4.866,3.561-7.902,3.779l-181.553,9.936c-0.036,0.003-0.071,0.005-0.107,0.007
	c-12.893,0.892-22.875,11.309-23.221,24.232c-0.005,0.254-0.009,0.507-0.012,0.761c0,13.444,9.602,25.037,22.844,27.569l31.505,5.98
	c1.42,0.268,2.711,0.846,3.862,1.737c2.735,2.102,4.05,5.509,3.431,8.896c-0.367,2.015-1.366,3.806-2.876,5.169
	c-1.527,1.373-3.405,2.178-5.441,2.329l-72.63,5.79c-4.13,0.312-7.226,3.913-6.914,8.044c0.297,3.938,3.585,6.935,7.471,6.935
	c0.189,0,0.381-0.007,0.573-0.021l72.62-5.789c5.291-0.393,10.387-2.57,14.361-6.143c4.001-3.612,6.627-8.322,7.592-13.618
	c1.06-5.794-0.034-11.605-2.884-16.487l14.591-11.589c0,0,0-0.001,0.001-0.001c8.148-6.474,11.903-16.83,9.798-27.033l-1.193-5.761
	l109.06-5.969c0.034-0.001,0.067-0.004,0.101-0.006c6.874-0.469,13.236-3.502,17.9-8.522c4.694-5.025,7.279-11.577,7.279-18.45
	C512,200.89,499.87,188.764,484.96,188.764z M295.953,262.652c0.003-0.114,0.005-0.229,0.007-0.344
	c0.169-5.11,4.114-9.224,9.211-9.6l20.153-1.103l1.232,5.951c0.957,4.606-0.746,9.292-4.44,12.227l-8.874,7.046l-6.643-1.261
	C300.428,274.389,295.95,268.991,295.953,262.652z M362.515,249.575l1.65,7.965c0.954,4.623-0.748,9.318-4.44,12.252l-16.689,13.256
	c-1.582-0.674-3.257-1.183-4.945-1.502l-5.451-1.035c7.32-6.515,10.611-16.33,8.605-26l-0.773-3.734L362.515,249.575z"/>
<path d="M111.759,308.198c4.142,0,7.5-3.357,7.5-7.5v-8.692c0-4.143-3.358-7.5-7.5-7.5s-7.5,3.357-7.5,7.5v8.692
	C104.259,304.841,107.617,308.198,111.759,308.198z"/>
<g>
</g>
<g>
</g>
<g>
</g>
<g>
</g>
<g>
</g>
<g>
</g>
<g>
</g>
<g>
</g>
<g>
</g>
<g>
</g>
<g>
</g>
<g>
</g>
<g>
</g>
<g>
</g>
<g>
</g>
</svg>
