<?xml version="1.0" encoding="iso-8859-1"?>
<!-- Generator: Adobe Illustrator 19.0.0, SVG Export Plug-In . SVG Version: 6.00 Build 0)  -->
<svg version="1.1" id="Capa_1" xmlns="http://www.w3.org/2000/svg" xmlns:xlink="http://www.w3.org/1999/xlink" x="0px" y="0px"
	 viewBox="0 0 512 512" style="enable-background:new 0 0 512 512;" xml:space="preserve">
<path style="fill:#FFF082;" d="M504.499,129.743h-44.423l31.408-31.418l-74.161-74.161l-31.408,31.418V11.148h-104.88v44.433
	l-31.418-31.418l-74.161,74.161l31.418,31.418h-44.433v104.88h44.433l-31.418,31.418l24.231,24.231l8.157,8.157l41.774,41.774
	l31.418-31.418v44.423h104.88v-44.423l31.408,31.418l74.161-74.161l-31.408-31.418H504.5L504.499,129.743L504.499,129.743z
	 M332.995,128.203c29.809,0,53.979,24.161,53.979,53.979c0,29.799-24.171,53.979-53.979,53.979s-53.979-24.181-53.979-53.979
	C279.016,152.365,303.187,128.203,332.995,128.203z"/>
<g>
	<path style="fill:#FFDC64;" d="M256.035,123.265l-0.41-1l-52.06-52.05l-28.109,28.109l31.418,31.418h-44.433v104.88h44.433
		l-31.418,31.418l24.231,24.231l55.938-55.949l0.41-1V123.265z"/>
	<path style="fill:#FFDC64;" d="M365.603,252.715l-1-0.41H254.545l-1,0.41l-45.703,45.712l41.774,41.774l31.418-31.418v44.423
		h104.88v-44.423l31.408,31.418l17.883-17.883L365.603,252.715z"/>
	<path style="fill:#FFDC64;" d="M246.181,182.182c0,48.204,39.085,87.289,87.289,87.289s87.289-39.085,87.289-87.289
		s-39.085-87.289-87.289-87.289S246.181,133.977,246.181,182.182z M386.97,182.182c0,29.805-24.165,53.982-53.97,53.982
		c-29.816,0-53.982-24.177-53.982-53.982c0-29.816,24.165-53.982,53.982-53.982C362.804,128.199,386.97,152.365,386.97,182.182z"/>
</g>
<path style="fill:#E5E5DA;" d="M236.046,143.262h-29.683l20.988-20.996L177.8,72.715l-20.988,20.996v-29.69H86.734v29.691
	L65.745,72.715l-49.551,49.551l20.988,20.996H7.5v70.071h29.683l-20.988,20.988l49.551,49.551l20.988-20.988v29.683h70.079v-29.683
	l20.988,20.988l49.551-49.551l-20.988-20.988h29.683L236.046,143.262L236.046,143.262z M121.773,214.039
	c-19.914,0-36.068-16.146-36.068-36.06c0-19.922,16.154-36.068,36.068-36.068c19.922,0,36.068,16.146,36.068,36.068
	C157.841,197.893,141.695,214.039,121.773,214.039z"/>
<path style="fill:#D1D0BF;" d="M121.773,119.972c-32.208,0-58.322,26.115-58.322,58.322s26.115,58.322,58.322,58.322
	s58.322-26.115,58.322-58.322S153.981,119.972,121.773,119.972z M121.773,214.039c-19.914,0-36.068-16.146-36.068-36.06
	c0-19.922,16.154-36.068,36.068-36.068c19.922,0,36.068,16.146,36.068,36.068C157.841,197.893,141.695,214.039,121.773,214.039z"/>
<path style="fill:#E5E5DA;" d="M423.848,351.539h-29.683l20.988-20.996l-49.551-49.551l-20.988,20.996v-29.691h-70.079v29.691
	l-20.988-20.996l-49.551,49.551l20.988,20.996h-29.683v70.071h29.683l-20.988,20.988l49.551,49.551l20.988-20.988v29.683h70.079
	V471.16l20.988,20.988l49.551-49.551l-20.988-20.988h29.683V351.539z M309.575,422.316c-19.914,0-36.068-16.146-36.068-36.06
	c0-19.922,16.154-36.068,36.068-36.068c19.922,0,36.068,16.146,36.068,36.068C345.643,406.17,329.497,422.316,309.575,422.316z"/>
<path style="fill:#D1D0BF;" d="M309.575,328.247c-32.208,0-58.322,26.115-58.322,58.322s26.115,58.322,58.322,58.322
	s58.322-26.115,58.322-58.322S341.783,328.247,309.575,328.247z M309.575,422.316c-19.914,0-36.068-16.146-36.068-36.06
	c0-19.922,16.154-36.068,36.068-36.068c19.922,0,36.068,16.146,36.068,36.068C345.643,406.17,329.497,422.316,309.575,422.316z"/>
<path d="M504.5,156.785c4.143,0,7.5-3.357,7.5-7.5v-19.55c0-4.143-3.357-7.5-7.5-7.5h-26.319l18.612-18.606
	c1.406-1.406,2.197-3.313,2.197-5.303s-0.79-3.897-2.196-5.305l-74.16-74.16c-2.929-2.928-7.676-2.928-10.606,0L393.41,37.473
	V11.155c0-4.143-3.357-7.5-7.5-7.5H281.03c-4.143,0-7.5,3.357-7.5,7.5V37.47l-18.606-18.607c-2.929-2.928-7.678-2.928-10.606,0
	l-54.886,54.876l-6.327-6.327c-1.407-1.406-3.314-2.196-5.304-2.196s-3.896,0.79-5.304,2.197l-8.185,8.185V64.021
	c0-4.143-3.357-7.5-7.5-7.5H86.733c-4.143,0-7.5,3.357-7.5,7.5v11.576l-8.185-8.185c-1.407-1.407-3.314-2.197-5.304-2.197
	s-3.896,0.79-5.304,2.196l-49.551,49.552c-1.406,1.407-2.196,3.314-2.196,5.304s0.79,3.896,2.197,5.304l8.184,8.184H7.5
	c-4.143,0-7.5,3.357-7.5,7.5v70.079c0,4.143,3.357,7.5,7.5,7.5h11.576l-8.186,8.185c-2.929,2.93-2.929,7.678,0,10.607l49.551,49.551
	c2.93,2.928,7.678,2.928,10.607,0l8.185-8.186v11.576c0,4.143,3.357,7.5,7.5,7.5h24.6c4.143,0,7.5-3.357,7.5-7.5s-3.357-7.5-7.5-7.5
	h-17.1v-22.183c0-3.033-1.827-5.769-4.63-6.929c-2.804-1.162-6.028-0.519-8.174,1.625l-15.685,15.686L26.8,234.321l15.686-15.685
	c2.145-2.146,2.786-5.371,1.625-8.174c-1.16-2.803-3.896-4.63-6.929-4.63H15v-55.079h22.183c3.033,0,5.769-1.827,6.929-4.63
	c1.161-2.803,0.52-6.028-1.626-8.174l-15.685-15.684L65.745,83.32L81.43,99.007c2.146,2.145,5.37,2.788,8.174,1.626
	c2.803-1.16,4.63-3.896,4.63-6.929V71.521h55.079v22.184c0,3.033,1.827,5.769,4.63,6.929c2.804,1.163,6.03,0.521,8.174-1.626
	l15.685-15.686l38.944,38.945l-15.685,15.684c-2.146,2.146-2.787,5.371-1.626,8.174c1.16,2.803,3.896,4.63,6.929,4.63h22.183v55.079
	h-22.183c-3.033,0-5.769,1.827-6.929,4.63c-1.161,2.803-0.52,6.028,1.625,8.174l15.686,15.685l-38.944,38.944l-15.685-15.686
	c-2.146-2.145-5.371-2.788-8.174-1.625c-2.803,1.16-4.63,3.896-4.63,6.929v22.183h-2.646c-4.143,0-7.5,3.357-7.5,7.5
	s3.357,7.5,7.5,7.5h10.146c4.143,0,7.5-3.357,7.5-7.5v-11.576l8.185,8.186c2.93,2.928,7.678,2.928,10.607,0l2.444-2.444
	l25.822,25.829l-12.678,12.678c-2.929,2.93-2.929,7.678,0,10.607l8.186,8.185h-11.576c-4.143,0-7.5,3.357-7.5,7.5v70.078
	c0,4.143,3.357,7.5,7.5,7.5h11.576l-8.186,8.185c-2.929,2.93-2.929,7.678,0,10.607l49.551,49.551c2.929,2.927,7.678,2.929,10.606,0
	l8.187-8.186v11.577c0,4.143,3.357,7.5,7.5,7.5h70.078c4.143,0,7.5-3.357,7.5-7.5v-11.577l8.185,8.186
	c2.93,2.928,7.678,2.928,10.607,0l49.551-49.551c2.929-2.93,2.929-7.678,0-10.607l-8.186-8.185h11.576c4.143,0,7.5-3.357,7.5-7.5
	v-70.078c0-4.061-3.228-7.359-7.257-7.488l72.704-72.704c1.406-1.407,2.196-3.315,2.196-5.305s-0.791-3.896-2.197-5.303
	l-18.612-18.606H504.5c4.143,0,7.5-3.357,7.5-7.5v-52.3c0-4.143-3.357-7.5-7.5-7.5s-7.5,3.357-7.5,7.5v44.8h-36.93
	c-3.033,0-5.769,1.827-6.93,4.631c-1.16,2.803-0.519,6.028,1.627,8.173l26.115,26.107l-59.852,59.852
	c-0.178-0.224-50.125-50.201-50.125-50.201c-2.93-2.928-7.678-2.928-10.607,0l-8.185,8.186v-11.577c0-4.143-3.357-7.5-7.5-7.5
	h-15.091c-4.143,0-7.5,3.357-7.5,7.5s3.357,7.5,7.5,7.5h7.591v22.184c0,3.033,1.827,5.769,4.63,6.929
	c2.804,1.162,6.027,0.52,8.174-1.625l15.685-15.686l38.944,38.944l-15.686,15.685c-2.145,2.146-2.786,5.371-1.625,8.174
	c1.16,2.803,3.896,4.63,6.929,4.63h22.183v55.078h-22.183c-3.033,0-5.769,1.827-6.929,4.63c-1.161,2.803-0.52,6.028,1.625,8.174
	l15.686,15.685l-38.944,38.944l-15.685-15.686c-2.146-2.145-5.371-2.789-8.174-1.625c-2.803,1.16-4.63,3.896-4.63,6.929v22.184
	h-55.078V471.16c0-3.033-1.827-5.769-4.63-6.929c-2.803-1.163-6.028-0.52-8.173,1.625l-15.687,15.686l-38.944-38.944l15.686-15.685
	c2.145-2.146,2.786-5.371,1.625-8.174c-1.16-2.803-3.896-4.63-6.929-4.63H202.8v-55.078h22.183c3.033,0,5.769-1.827,6.929-4.63
	c1.161-2.803,0.52-6.028-1.625-8.174l-15.686-15.685l38.944-38.944l15.687,15.686c2.145,2.144,5.369,2.786,8.173,1.625
	c2.803-1.16,4.63-3.896,4.63-6.929v-22.184h13.631c4.143,0,7.5-3.357,7.5-7.5s-3.357-7.5-7.5-7.5h-21.131
	c-4.143,0-7.5,3.357-7.5,7.5v11.577l-8.187-8.186c-2.928-2.928-7.677-2.928-10.606,0l-26.266,26.266l-25.822-25.829l36.5-36.5
	c2.929-2.93,2.929-7.678,0-10.607l-8.186-8.185h11.576c4.143,0,7.5-3.357,7.5-7.5v-70.079c0-4.143-3.357-7.5-7.5-7.5h-11.575
	l8.184-8.184c1.407-1.407,2.197-3.314,2.197-5.304s-0.79-3.896-2.196-5.304l-32.618-32.619l49.582-49.573l26.107,26.107
	c2.146,2.144,5.37,2.786,8.174,1.625c2.803-1.16,4.63-3.896,4.63-6.929v-36.92h89.88v36.92c0,3.033,1.827,5.768,4.629,6.929
	c2.804,1.161,6.029,0.519,8.174-1.625l26.116-26.108l63.554,63.554l-26.115,26.107c-2.146,2.145-2.787,5.37-1.627,8.173
	c1.161,2.804,3.896,4.631,6.93,4.631H497v12.05C497,153.428,500.357,156.785,504.5,156.785z"/>
<path d="M424.887,180.652c0,4.143,3.357,7.5,7.5,7.5s7.5-3.357,7.5-7.5c0-58.678-47.738-106.416-106.417-106.416
	c-4.143,0-7.5,3.357-7.5,7.5s3.357,7.5,7.5,7.5C383.877,89.236,424.887,130.245,424.887,180.652z"/>
<path d="M394.47,182.182c0-33.901-27.575-61.481-61.471-61.481c-33.901,0-61.481,27.58-61.481,61.481s27.58,61.482,61.481,61.482
	C366.895,243.663,394.47,216.082,394.47,182.182z M286.518,182.182c0-25.63,20.852-46.481,46.481-46.481
	c25.624,0,46.471,20.852,46.471,46.481c0,25.631-20.847,46.482-46.471,46.482C307.369,228.663,286.518,207.813,286.518,182.182z"/>
<path d="M122.794,251.885c40.578,0,73.591-33.013,73.591-73.591c0-4.143-3.357-7.5-7.5-7.5s-7.5,3.357-7.5,7.5
	c0,32.307-26.284,58.591-58.591,58.591c-4.143,0-7.5,3.357-7.5,7.5S118.651,251.885,122.794,251.885z"/>
<path d="M127.787,111.682c0-4.143-3.357-7.5-7.5-7.5c-40.578,0-73.591,33.013-73.591,73.591c0,4.143,3.357,7.5,7.5,7.5
	s7.5-3.357,7.5-7.5c0-32.307,26.284-58.591,58.591-58.591C124.43,119.182,127.787,115.824,127.787,111.682z"/>
<path d="M121.773,221.539c24.023,0,43.567-19.541,43.567-43.56c0-24.023-19.544-43.568-43.567-43.568s-43.568,19.545-43.568,43.568
	C78.205,201.998,97.75,221.539,121.773,221.539z M121.773,149.411c15.752,0,28.567,12.815,28.567,28.568
	c0,15.748-12.815,28.56-28.567,28.56c-15.753,0-28.568-12.812-28.568-28.56C93.205,162.227,106.021,149.411,121.773,149.411z"/>
<path d="M303.097,452.661c0,4.143,3.357,7.5,7.5,7.5c40.577,0,73.59-33.013,73.59-73.591c0-4.143-3.357-7.5-7.5-7.5
	s-7.5,3.357-7.5,7.5c0,32.307-26.283,58.591-58.59,58.591C306.454,445.161,303.097,448.519,303.097,452.661z"/>
<path d="M308.089,312.458c-40.578,0-73.591,33.013-73.591,73.591c0,4.143,3.357,7.5,7.5,7.5s7.5-3.357,7.5-7.5
	c0-32.307,26.284-58.591,58.591-58.591c4.143,0,7.5-3.357,7.5-7.5S312.231,312.458,308.089,312.458z"/>
<path d="M309.575,342.688c-24.023,0-43.568,19.545-43.568,43.568c0,24.019,19.545,43.56,43.568,43.56s43.567-19.541,43.567-43.56
	C353.143,362.232,333.599,342.688,309.575,342.688z M309.575,414.815c-15.753,0-28.568-12.812-28.568-28.56
	c0-15.753,12.815-28.568,28.568-28.568c15.752,0,28.567,12.815,28.567,28.568C338.143,402.004,325.327,414.815,309.575,414.815z"/>
<g>
</g>
<g>
</g>
<g>
</g>
<g>
</g>
<g>
</g>
<g>
</g>
<g>
</g>
<g>
</g>
<g>
</g>
<g>
</g>
<g>
</g>
<g>
</g>
<g>
</g>
<g>
</g>
<g>
</g>
</svg>
