<?xml version="1.0" encoding="iso-8859-1"?>
<!-- Generator: Adobe Illustrator 19.0.0, SVG Export Plug-In . SVG Version: 6.00 Build 0)  -->
<svg version="1.1" id="Capa_1" xmlns="http://www.w3.org/2000/svg" xmlns:xlink="http://www.w3.org/1999/xlink" x="0px" y="0px"
	 viewBox="0 0 512 512" style="enable-background:new 0 0 512 512;" xml:space="preserve">
<rect x="7.5" y="7.5" style="fill:#E5E5DA;" width="497" height="497"/>
<rect x="477.39" y="7.5" style="fill:#D1D0BF;" width="27.11" height="497"/>
<g>
	<polygon style="fill:#F2F2F0;" points="300.5,124.121 300.5,217.91 211.5,217.91 211.5,88.905 265.284,88.905 	"/>
	<polygon style="fill:#F2F2F0;" points="173.583,288.787 173.583,382.577 84.583,382.577 84.583,253.572 138.368,253.572 	"/>
	<polygon style="fill:#F2F2F0;" points="427.417,288.787 427.417,382.577 338.417,382.577 338.417,253.572 392.201,253.572 	"/>
</g>
<path d="M504.5,0H7.5C3.358,0,0,3.357,0,7.5v95.187c0,4.143,3.358,7.5,7.5,7.5s7.5-3.357,7.5-7.5V15h482v321.666
	c0,4.143,3.357,7.5,7.5,7.5s7.5-3.357,7.5-7.5V7.5C512,3.357,508.643,0,504.5,0z"/>
<path d="M504.5,362.498c-4.143,0-7.5,3.357-7.5,7.5V497H15V138.198c0-4.143-3.358-7.5-7.5-7.5s-7.5,3.357-7.5,7.5V504.5
	c0,4.143,3.358,7.5,7.5,7.5h497c4.143,0,7.5-3.357,7.5-7.5V369.998C512,365.855,508.643,362.498,504.5,362.498z"/>
<path d="M211.5,139.167c-4.142,0-7.5,3.357-7.5,7.5v71.243c0,4.143,3.358,7.5,7.5,7.5h89c4.143,0,7.5-3.357,7.5-7.5v-93.789
	c0-1.989-0.79-3.896-2.196-5.304l-35.216-35.216c-1.407-1.406-3.314-2.196-5.304-2.196H211.5c-4.142,0-7.5,3.357-7.5,7.5v25.781
	c0,4.143,3.358,7.5,7.5,7.5s7.5-3.357,7.5-7.5V96.405h43.178L293,127.228v83.183h-74v-63.743
	C219,142.524,215.642,139.167,211.5,139.167z"/>
<path d="M181.083,382.577v-93.79c0-1.989-0.79-3.896-2.197-5.304l-35.216-35.216c-1.406-1.406-3.314-2.196-5.303-2.196H84.583
	c-4.142,0-7.5,3.357-7.5,7.5v129.006c0,4.143,3.358,7.5,7.5,7.5h89C177.726,390.077,181.083,386.72,181.083,382.577z
	 M166.083,375.077h-74V261.071h43.178l30.822,30.822V375.077z"/>
<path d="M392.201,246.071h-53.784c-4.143,0-7.5,3.357-7.5,7.5v129.006c0,4.143,3.357,7.5,7.5,7.5h89c4.143,0,7.5-3.357,7.5-7.5
	v-93.79c0-1.989-0.79-3.896-2.196-5.304l-35.216-35.216C396.098,246.861,394.19,246.071,392.201,246.071z M419.917,375.077h-74
	V261.071h43.178l30.822,30.822V375.077z"/>
<path d="M196.5,311.061c0,4.143,3.358,7.5,7.5,7.5h104c4.143,0,7.5-3.357,7.5-7.5s-3.357-7.5-7.5-7.5h-44.5v-58.632
	c0-4.143-3.357-7.5-7.5-7.5c-4.142,0-7.5,3.357-7.5,7.5v58.632H204C199.858,303.561,196.5,306.918,196.5,311.061z"/>
<path d="M108.167,297.561h1.333c4.142,0,7.5-3.357,7.5-7.5s-3.358-7.5-7.5-7.5h-1.333c-4.142,0-7.5,3.357-7.5,7.5
	S104.024,297.561,108.167,297.561z"/>
<path d="M101.848,330.074c0,4.143,3.358,7.5,7.5,7.5H149c4.142,0,7.5-3.357,7.5-7.5s-3.358-7.5-7.5-7.5h-39.652
	C105.206,322.574,101.848,325.932,101.848,330.074z"/>
<path d="M149,344.833h-39.652c-4.142,0-7.5,3.357-7.5,7.5s3.358,7.5,7.5,7.5H149c4.142,0,7.5-3.357,7.5-7.5
	S153.142,344.833,149,344.833z"/>
<path d="M355.591,330.074c0,4.143,3.357,7.5,7.5,7.5h39.651c4.143,0,7.5-3.357,7.5-7.5s-3.357-7.5-7.5-7.5h-39.651
	C358.948,322.574,355.591,325.932,355.591,330.074z"/>
<path d="M402.742,344.833h-39.651c-4.143,0-7.5,3.357-7.5,7.5s3.357,7.5,7.5,7.5h39.651c4.143,0,7.5-3.357,7.5-7.5
	S406.885,344.833,402.742,344.833z"/>
<path d="M236.174,175h39.652c4.143,0,7.5-3.357,7.5-7.5s-3.357-7.5-7.5-7.5h-39.652c-4.142,0-7.5,3.357-7.5,7.5
	S232.032,175,236.174,175z"/>
<path d="M236.326,141.489c4.142,0,7.5-3.357,7.5-7.5c0-4.458,2.127-5.983,3.475-4.453c0.762,0.864,1.2,2.487,1.2,4.453
	c0,4.143,3.358,7.5,7.5,7.5c4.143,0,7.5-3.357,7.5-7.5c0-13.164-8.722-20.052-17.337-20.052s-17.337,6.888-17.337,20.052
	C228.826,138.132,232.184,141.489,236.326,141.489z"/>
<path d="M236.174,197.259h39.652c4.143,0,7.5-3.357,7.5-7.5s-3.357-7.5-7.5-7.5h-39.652c-4.142,0-7.5,3.357-7.5,7.5
	S232.032,197.259,236.174,197.259z"/>
<path d="M129.75,282.561h-1.333c-4.142,0-7.5,3.357-7.5,7.5s3.358,7.5,7.5,7.5h1.333c4.142,0,7.5-3.357,7.5-7.5
	S133.892,282.561,129.75,282.561z"/>
<path d="M363.091,297c4.143,0,7.5-3.357,7.5-7.5V281c0-4.143-3.357-7.5-7.5-7.5s-7.5,3.357-7.5,7.5v8.5
	C355.591,293.643,358.948,297,363.091,297z"/>
<path d="M382.917,273.5c-4.143,0-7.5,3.357-7.5,7.5v8.5c0,4.143,3.357,7.5,7.5,7.5s7.5-3.357,7.5-7.5V281
	C390.417,276.857,387.06,273.5,382.917,273.5z"/>
<g>
</g>
<g>
</g>
<g>
</g>
<g>
</g>
<g>
</g>
<g>
</g>
<g>
</g>
<g>
</g>
<g>
</g>
<g>
</g>
<g>
</g>
<g>
</g>
<g>
</g>
<g>
</g>
<g>
</g>
</svg>
