<?xml version="1.0" encoding="iso-8859-1"?>
<!-- Generator: Adobe Illustrator 19.0.0, SVG Export Plug-In . SVG Version: 6.00 Build 0)  -->
<svg version="1.1" id="Capa_1" xmlns="http://www.w3.org/2000/svg" xmlns:xlink="http://www.w3.org/1999/xlink" x="0px" y="0px"
	 viewBox="0 0 512 512" style="enable-background:new 0 0 512 512;" xml:space="preserve">
<rect x="7.5" y="136.961" style="fill:#00C3FF;" width="497" height="306.9"/>
<rect x="477.46" y="136.961" style="fill:#00AAF0;" width="27.04" height="306.9"/>
<rect x="7.5" y="403.15" style="fill:#B4E66E;" width="497" height="40.705"/>
<rect x="477.46" y="403.15" style="fill:#A0D755;" width="27.04" height="40.705"/>
<path style="fill:#F2F2F0;" d="M265.091,181.95h-25.682c-8.059,0-14.971-5.752-16.433-13.678l-14.833-80.381
	c-1.895-10.27,5.989-19.743,16.433-19.743h55.347c10.444,0,18.328,9.473,16.433,19.743l-14.833,80.381
	C280.062,176.198,273.15,181.95,265.091,181.95z"/>
<rect x="72.5" y="188.65" style="fill:#B4E66E;" width="90.5" height="90.5"/>
<rect x="246.75" y="321.43" style="fill:#F2F2F0;" width="180.17" height="24.713"/>
<path d="M504.5,129.461H296.312l7.419-40.208c1.31-7.093-0.586-14.339-5.199-19.882c-4.614-5.544-11.396-8.723-18.608-8.723h-55.348
	c-7.212,0-13.994,3.179-18.608,8.722s-6.509,12.79-5.201,19.883l7.42,40.208H165c-4.142,0-7.5,3.357-7.5,7.5s3.358,7.5,7.5,7.5
	h45.955l4.645,25.173c2.119,11.482,12.132,19.816,23.809,19.816h25.682c11.677,0,21.689-8.334,23.809-19.816l4.645-25.173H497v21.87
	c0,4.143,3.357,7.5,7.5,7.5s7.5-3.357,7.5-7.5v-29.37C512,132.818,508.643,129.461,504.5,129.461z M265.091,174.45h-25.682
	c-4.442,0-8.251-3.171-9.058-7.539L215.518,86.53c-0.498-2.698,0.223-5.455,1.979-7.563c1.755-2.109,4.335-3.318,7.079-3.318h55.348
	c2.743,0,5.324,1.209,7.079,3.318c1.755,2.108,2.476,4.865,1.979,7.563l-14.832,80.381
	C273.343,171.279,269.533,174.45,265.091,174.45z"/>
<path d="M504.5,187.148c-4.143,0-7.5,3.357-7.5,7.5v200.999H126.667c-4.142,0-7.5,3.357-7.5,7.5s3.358,7.5,7.5,7.5H497v25.705H15
	v-25.705h81.667c4.142,0,7.5-3.357,7.5-7.5s-3.358-7.5-7.5-7.5H15V144.456h121.333c4.142,0,7.5-3.357,7.5-7.5s-3.358-7.5-7.5-7.5
	H7.5c-4.142,0-7.5,3.357-7.5,7.5v306.896c0,4.143,3.358,7.5,7.5,7.5h497c4.143,0,7.5-3.357,7.5-7.5V194.648
	C512,190.507,508.643,187.148,504.5,187.148z"/>
<path d="M163,181.148H72.5c-4.084,0-7.501,3.418-7.5,7.503v90.497c0,4.143,3.358,7.5,7.5,7.5H163c4.082,0,7.501-3.42,7.5-7.503
	v-90.497C170.5,184.506,167.142,181.148,163,181.148z M155.5,261.041l-64.893-64.893H155.5V261.041z M80,206.755l64.893,64.893H80
	V206.755z"/>
<path d="M246.75,228.648H392.5c4.143,0,7.5-3.357,7.5-7.5s-3.357-7.5-7.5-7.5H246.75c-4.142,0-7.5,3.357-7.5,7.5
	S242.608,228.648,246.75,228.648z"/>
<path d="M246.75,257.98h174.292c4.143,0,7.5-3.357,7.5-7.5s-3.357-7.5-7.5-7.5H246.75c-4.142,0-7.5,3.357-7.5,7.5
	S242.608,257.98,246.75,257.98z"/>
<path d="M246.75,286.647h174.292c4.143,0,7.5-3.357,7.5-7.5s-3.357-7.5-7.5-7.5H246.75c-4.142,0-7.5,3.357-7.5,7.5
	S242.608,286.647,246.75,286.647z"/>
<path d="M72.5,357.647H163c4.142,0,7.5-3.357,7.5-7.5s-3.358-7.5-7.5-7.5H72.5c-4.142,0-7.5,3.357-7.5,7.5
	S68.358,357.647,72.5,357.647z"/>
<path d="M239.25,346.147c0,4.143,3.358,7.5,7.5,7.5h180.167c4.143,0,7.5-3.357,7.5-7.5v-24.713c0-4.143-3.357-7.5-7.5-7.5H246.75
	c-4.142,0-7.5,3.357-7.5,7.5V346.147z M254.25,328.935h165.167v9.713H254.25V328.935z"/>
<path d="M252.25,123.729c-4.142,0-7.5,3.357-7.5,7.5v14.918c0,4.143,3.358,7.5,7.5,7.5s7.5-3.357,7.5-7.5V131.23
	C259.75,127.087,256.392,123.729,252.25,123.729z"/>
<g>
</g>
<g>
</g>
<g>
</g>
<g>
</g>
<g>
</g>
<g>
</g>
<g>
</g>
<g>
</g>
<g>
</g>
<g>
</g>
<g>
</g>
<g>
</g>
<g>
</g>
<g>
</g>
<g>
</g>
</svg>
