<?xml version="1.0" encoding="iso-8859-1"?>
<!-- Generator: Adobe Illustrator 19.0.0, SVG Export Plug-In . SVG Version: 6.00 Build 0)  -->
<svg version="1.1" id="Capa_1" xmlns="http://www.w3.org/2000/svg" xmlns:xlink="http://www.w3.org/1999/xlink" x="0px" y="0px"
	 viewBox="0 0 512 512" style="enable-background:new 0 0 512 512;" xml:space="preserve">
<path style="fill:#E5E5DA;" d="M504.522,181.387v42.367c0,7.739-6.28,14.019-14.019,14.019H361.835l-19.531,29.961l-19.531-29.961
	h-33.155c-7.739,0-14.019-6.28-14.019-14.019v-42.367c0-7.739,6.28-14.019,14.019-14.019h200.884
	C498.242,167.368,504.522,173.647,504.522,181.387z"/>
<path style="fill:#D1D0BF;" d="M471.559,237.773h18.944c7.737,0,14.019-6.282,14.019-14.019v-42.366
	c0-7.737-6.282-14.019-14.019-14.019h-18.944c7.737,0,14.019,6.282,14.019,14.019v42.366
	C485.577,231.492,479.296,237.773,471.559,237.773z"/>
<path style="fill:#E5E5DA;" d="M504.522,326.062v78.437c0,7.739-6.28,14.019-14.019,14.019h-82.459l-19.531,29.961l-19.531-29.961
	h-33.155c-7.739,0-14.019-6.28-14.019-14.019v-78.437c0-7.739,6.28-14.019,14.019-14.019h154.676
	C498.242,312.043,504.522,318.322,504.522,326.062z"/>
<path style="fill:#D1D0BF;" d="M473.054,418.514h17.449c7.737,0,14.019-6.272,14.019-14.019v-78.43
	c0-7.737-6.282-14.019-14.019-14.019h-17.449c7.737,0,14.019,6.282,14.019,14.019v78.43
	C487.073,412.242,480.791,418.514,473.054,418.514z"/>
<path style="fill:#B4E66E;" d="M260.916,77.543v42.366c0,7.737-6.282,14.019-14.019,14.019h-33.153l-19.533,29.962l-19.533-29.962
	H21.497c-7.737,0-14.019-6.282-14.019-14.019V77.543c0-7.737,6.282-14.019,14.019-14.019h225.4
	C254.634,63.524,260.916,69.806,260.916,77.543z"/>
<path style="fill:#A0D755;" d="M230.824,133.928h15.953c7.737,0,14.019-6.282,14.019-14.019V77.543
	c0-7.737-6.282-14.019-14.019-14.019h-15.953c7.737,0,14.019,6.282,14.019,14.019v42.366
	C244.843,127.646,238.561,133.928,230.824,133.928z"/>
<path style="fill:#B4E66E;" d="M7.478,263.76v66.603c0,7.739,6.28,14.019,14.019,14.019h153.181l19.531,29.961l19.531-29.961h33.155
	c7.739,0,14.019-6.28,14.019-14.019V263.76c0-7.739-6.28-14.019-14.019-14.019H21.497C13.758,249.741,7.478,256.021,7.478,263.76z"
	/>
<path style="fill:#A0D755;" d="M228.449,344.381h18.446c7.737,0,14.019-6.282,14.019-14.019v-66.605
	c0-7.737-6.282-14.019-14.019-14.019h-18.446c7.737,0,14.019,6.282,14.019,14.019v66.605
	C242.468,338.099,236.186,344.381,228.449,344.381z"/>
<path d="M490.502,159.889H289.62c-11.854,0-21.498,9.644-21.498,21.498v42.367c0,11.854,9.644,21.498,21.498,21.498h29.103
	l17.317,26.566c1.381,2.118,3.737,3.394,6.265,3.394s4.884-1.276,6.265-3.394l17.316-26.566h124.616
	c11.854,0,21.498-9.644,21.498-21.498v-42.367C512,169.532,502.356,159.889,490.502,159.889z M497.044,223.753
	c0,3.606-2.934,6.542-6.542,6.542H361.835c-2.528,0-4.884,1.276-6.265,3.394l-13.265,20.349l-13.266-20.349
	c-1.381-2.118-3.737-3.394-6.265-3.394H289.62c-3.606,0-6.542-2.934-6.542-6.542v-42.367c0-3.606,2.934-6.542,6.542-6.542h200.883
	c3.606,0,6.542,2.934,6.542,6.542v42.367H497.044z"/>
<path d="M490.502,304.565h-79.705c-4.131,0-7.478,3.347-7.478,7.478c0,4.131,3.347,7.478,7.478,7.478h79.705
	c3.606,0,6.542,2.933,6.542,6.541v78.437c0,3.606-2.934,6.542-6.542,6.542h-82.458c-2.528,0-4.884,1.276-6.265,3.394l-13.266,20.35
	l-13.266-20.35c-1.381-2.118-3.737-3.394-6.265-3.394h-33.155c-3.606,0-6.542-2.934-6.542-6.542v-78.437
	c0-3.606,2.934-6.541,6.542-6.541h40.736c4.131,0,7.478-3.347,7.478-7.478c0-4.131-3.347-7.478-7.478-7.478h-40.736
	c-11.854,0-21.498,9.644-21.498,21.497v78.437c0,11.854,9.644,21.498,21.498,21.498h29.104l17.317,26.567
	c1.381,2.118,3.737,3.394,6.265,3.394s4.884-1.276,6.265-3.394l17.317-26.567h78.407c11.854,0,21.498-9.644,21.498-21.498v-78.437
	C512,314.208,502.356,304.565,490.502,304.565z"/>
<path d="M21.498,141.404h49.295c4.131,0,7.478-3.347,7.478-7.478s-3.347-7.478-7.478-7.478H21.498c-3.606,0-6.542-2.934-6.542-6.542
	V77.54c0-3.606,2.934-6.542,6.542-6.542h225.398c3.606,0,6.542,2.934,6.542,6.542v42.366c0,3.606-2.934,6.542-6.542,6.542H213.74
	c-2.528,0-4.884,1.276-6.265,3.394l-13.265,20.35l-13.266-20.35c-1.381-2.118-3.737-3.394-6.265-3.394h-69.32
	c-4.131,0-7.478,3.347-7.478,7.478s3.347,7.478,7.478,7.478h65.269l17.317,26.567c1.381,2.118,3.737,3.394,6.265,3.394
	s4.884-1.276,6.265-3.394l17.316-26.567h29.104c11.854,0,21.498-9.644,21.498-21.498V77.54c0-11.854-9.644-21.498-21.498-21.498
	H21.498C9.644,56.043,0,65.687,0,77.541v42.366C0,131.76,9.644,141.404,21.498,141.404z"/>
<path d="M246.895,242.263h-72.157c-4.131,0-7.478,3.347-7.478,7.478c0,4.131,3.347,7.478,7.478,7.478h72.157
	c3.606,0,6.542,2.934,6.542,6.542v66.603c0,3.606-2.934,6.542-6.542,6.542h-33.156c-2.528,0-4.884,1.276-6.265,3.394l-13.265,20.35
	l-13.266-20.35c-1.381-2.118-3.737-3.394-6.265-3.394H21.498c-3.606,0-6.542-2.934-6.542-6.542v-66.603
	c0-3.606,2.934-6.542,6.542-6.542H140.18c4.131,0,7.478-3.347,7.478-7.478c0-4.131-3.347-7.478-7.478-7.478H21.498
	C9.644,242.263,0,251.907,0,263.76v66.603c0,11.854,9.644,21.498,21.498,21.498h149.129l17.317,26.567
	c1.381,2.118,3.737,3.394,6.265,3.394s4.884-1.276,6.265-3.394l17.316-26.567h29.104c11.854,0,21.498-9.644,21.498-21.498V263.76
	C268.393,251.907,258.749,242.263,246.895,242.263z"/>
<path d="M36.643,92.728c-4.131,0-7.478,3.347-7.478,7.478s3.347,7.478,7.478,7.478h6.98c4.131,0,7.478-3.347,7.478-7.478
	s-3.347-7.478-7.478-7.478H36.643z"/>
<path d="M67.303,92.728c-4.131,0-7.478,3.347-7.478,7.478s3.347,7.478,7.478,7.478h6.98c4.131,0,7.478-3.347,7.478-7.478
	s-3.347-7.478-7.478-7.478H67.303z"/>
<path d="M100.705,107.685h130.119c4.131,0,7.478-3.347,7.478-7.478s-3.347-7.478-7.478-7.478H100.705
	c-4.131,0-7.478,3.347-7.478,7.478S96.574,107.685,100.705,107.685z"/>
<path d="M475.56,194.181H348.432c-4.131,0-7.478,3.347-7.478,7.478s3.347,7.478,7.478,7.478H475.56c4.131,0,7.478-3.347,7.478-7.478
	S479.691,194.181,475.56,194.181z"/>
<path d="M479.993,335.268H349.874c-4.131,0-7.478,3.347-7.478,7.478c0,4.131,3.347,7.478,7.478,7.478h130.119
	c4.131,0,7.478-3.347,7.478-7.478C487.471,338.615,484.124,335.268,479.993,335.268z"/>
<path d="M479.993,357.702H349.874c-4.131,0-7.478,3.347-7.478,7.478c0,4.131,3.347,7.478,7.478,7.478h130.119
	c4.131,0,7.478-3.347,7.478-7.478C487.471,361.049,484.124,357.702,479.993,357.702z"/>
<path d="M479.993,380.136H349.874c-4.131,0-7.478,3.347-7.478,7.478s3.347,7.478,7.478,7.478h130.119
	c4.131,0,7.478-3.347,7.478-7.478S484.124,380.136,479.993,380.136z"/>
<path d="M323.007,194.181h-18.446c-4.131,0-7.478,3.347-7.478,7.478s3.347,7.478,7.478,7.478h18.446
	c4.131,0,7.478-3.347,7.478-7.478S327.138,194.181,323.007,194.181z"/>
<path d="M226.586,278.906H36.643c-4.131,0-7.478,3.347-7.478,7.478s3.347,7.478,7.478,7.478h189.944
	c4.131,0,7.478-3.347,7.478-7.478S230.717,278.906,226.586,278.906z"/>
<path d="M226.586,301.866H36.643c-4.131,0-7.478,3.347-7.478,7.478s3.347,7.478,7.478,7.478h189.944
	c4.131,0,7.478-3.347,7.478-7.478S230.717,301.866,226.586,301.866z"/>
<g>
</g>
<g>
</g>
<g>
</g>
<g>
</g>
<g>
</g>
<g>
</g>
<g>
</g>
<g>
</g>
<g>
</g>
<g>
</g>
<g>
</g>
<g>
</g>
<g>
</g>
<g>
</g>
<g>
</g>
</svg>
