<?xml version="1.0" encoding="iso-8859-1"?>
<!-- Generator: Adobe Illustrator 19.0.0, SVG Export Plug-In . SVG Version: 6.00 Build 0)  -->
<svg version="1.1" id="Capa_1" xmlns="http://www.w3.org/2000/svg" xmlns:xlink="http://www.w3.org/1999/xlink" x="0px" y="0px"
	 viewBox="0 0 512 512" style="enable-background:new 0 0 512 512;" xml:space="preserve">
<rect x="12.871" y="291.8" style="fill:#694B4B;" width="486.26" height="200.47"/>
<rect x="12.871" y="291.8" style="fill:#5B4040;" width="486.26" height="35.782"/>
<rect x="7.5" y="102.92" style="fill:#694B4B;" width="497" height="200.47"/>
<rect x="68.06" y="102.92" style="fill:#5B4040;" width="91.67" height="200.47"/>
<rect x="88.74" y="102.92" style="fill:#FFF082;" width="50.32" height="200.47"/>
<rect x="352.26" y="102.92" style="fill:#5B4040;" width="91.67" height="200.47"/>
<rect x="372.94" y="102.92" style="fill:#FFF082;" width="50.32" height="200.47"/>
<rect x="480.36" y="102.92" style="fill:#5B4040;" width="24.14" height="200.47"/>
<rect x="213.84" y="261.23" style="fill:#FFF082;" width="84.31" height="84.31"/>
<rect x="276.93" y="261.23" style="fill:#FFDC64;" width="21.23" height="84.31"/>
<path style="fill:#694B4B;" d="M374.218,63.011H137.782c-11.954,0-21.644-9.691-21.644-21.644l0,0
	c0-11.954,9.691-21.644,21.644-21.644h236.436c11.954,0,21.644,9.691,21.644,21.644l0,0
	C395.862,53.32,386.172,63.011,374.218,63.011z"/>
<path d="M272.083,396.66h-32.166c-4.142,0-7.5,3.357-7.5,7.5s3.358,7.5,7.5,7.5h32.166c4.143,0,7.5-3.357,7.5-7.5
	S276.226,396.66,272.083,396.66z"/>
<path d="M272.083,421.348h-32.166c-4.142,0-7.5,3.357-7.5,7.5s3.358,7.5,7.5,7.5h32.166c4.143,0,7.5-3.357,7.5-7.5
	S276.226,421.348,272.083,421.348z"/>
<path d="M272.083,446.037h-32.166c-4.142,0-7.5,3.357-7.5,7.5s3.358,7.5,7.5,7.5h32.166c4.143,0,7.5-3.357,7.5-7.5
	S276.226,446.037,272.083,446.037z"/>
<path d="M504.5,95.416H380.441V69.834c13.089-2.859,22.921-14.535,22.921-28.469c0-16.069-13.074-29.144-29.145-29.144H137.782
	c-16.07,0-29.145,13.074-29.145,29.144c0,13.934,9.832,25.609,22.921,28.469v25.581H7.5c-4.142,0-7.5,3.357-7.5,7.5v200.474
	c0,3.402,2.266,6.27,5.37,7.189v181.7c0,4.143,3.358,7.5,7.5,7.5H348c4.143,0,7.5-3.357,7.5-7.5s-3.357-7.5-7.5-7.5H20.37v-9.85
	h94.581c4.142,0,7.5-3.357,7.5-7.5s-3.358-7.5-7.5-7.5H20.37v-12.766h21.059c4.142,0,7.5-3.357,7.5-7.5s-3.358-7.5-7.5-7.5H20.37
	V310.889h185.975v34.654c0,4.143,3.358,7.5,7.5,7.5h84.309c4.143,0,7.5-3.357,7.5-7.5v-34.654H491.63v121.273h-21.059
	c-4.143,0-7.5,3.357-7.5,7.5s3.357,7.5,7.5,7.5h21.059v12.766h-94.58c-4.143,0-7.5,3.357-7.5,7.5s3.357,7.5,7.5,7.5h94.58v9.85H383
	c-4.143,0-7.5,3.357-7.5,7.5s3.357,7.5,7.5,7.5h116.13c4.143,0,7.5-3.357,7.5-7.5v-181.7c3.104-0.918,5.37-3.787,5.37-7.189V102.916
	C512,98.773,508.643,95.416,504.5,95.416z M430.763,161.292H497v134.597h-66.237V161.292z M497,146.292h-66.237v-35.877H497V146.292
	z M123.638,41.366c0-7.799,6.345-14.144,14.145-14.144h236.436c7.8,0,14.145,6.345,14.145,14.144c0,7.8-6.345,14.145-14.145,14.145
	h-68.063c-4.143,0-7.5,3.357-7.5,7.5c0,4.143,3.357,7.5,7.5,7.5h59.287v24.905H146.559V70.51h125.524c4.143,0,7.5-3.357,7.5-7.5
	s-3.357-7.5-7.5-7.5H137.782C129.983,55.51,123.638,49.166,123.638,41.366z M15,295.889V161.292h66.237v134.597H15z M81.237,110.416
	v35.877H15v-35.877H81.237z M290.654,338.043H263.5v-14.871c0-4.143-3.357-7.5-7.5-7.5c-4.142,0-7.5,3.357-7.5,7.5v14.871h-27.155
	v-69.309h69.309V338.043z M298.154,253.735h-84.309c-4.142,0-7.5,3.357-7.5,7.5v34.654h-59.787v-65.122c0-4.143-3.358-7.5-7.5-7.5
	s-7.5,3.357-7.5,7.5v65.122H96.237V110.416h35.322v86.737c0,4.143,3.358,7.5,7.5,7.5s7.5-3.357,7.5-7.5v-86.737h218.883v185.474
	h-59.787v-34.654C305.654,257.092,302.297,253.735,298.154,253.735z M380.441,295.889V110.416h35.321v185.474h-35.321V295.889z"/>
<g>
</g>
<g>
</g>
<g>
</g>
<g>
</g>
<g>
</g>
<g>
</g>
<g>
</g>
<g>
</g>
<g>
</g>
<g>
</g>
<g>
</g>
<g>
</g>
<g>
</g>
<g>
</g>
<g>
</g>
</svg>
