<?xml version="1.0" encoding="iso-8859-1"?>
<!-- Generator: Adobe Illustrator 19.0.0, SVG Export Plug-In . SVG Version: 6.00 Build 0)  -->
<svg version="1.1" id="Capa_1" xmlns="http://www.w3.org/2000/svg" xmlns:xlink="http://www.w3.org/1999/xlink" x="0px" y="0px"
	 viewBox="0 0 512 512" style="enable-background:new 0 0 512 512;" xml:space="preserve">
<rect x="7.5" y="76.3" style="fill:#E5E5DA;" width="497" height="279.25"/>
<path style="fill:#D1D0BF;" d="M76.502,325.806c4.473-3.023,9.636-5.092,15.204-5.913c-0.852-0.771-1.704-1.552-2.515-2.383
	c-8.074-8.226-13.105-18.673-14.535-29.942c-6.076-7.962-9.534-16.888-9.534-25.398v-8.033c0-33.025,26.382-57.916,61.354-57.916
	c16.391,0,31.798,6.38,43.391,17.963c11.593,11.614,17.973,27.021,17.973,43.391c0,11.127-3.307,21.33-9.534,29.942
	c-1.42,11.279-6.451,21.756-14.545,30.003c-0.771,0.781-1.562,1.521-2.373,2.252c15.072,2.292,27.163,13.733,30.449,28.461
	c2.11-9.281,7.719-17.253,15.377-22.426c4.463-3.023,9.636-5.092,15.194-5.913c-0.852-0.771-1.694-1.552-2.505-2.383
	c-8.084-8.226-13.115-18.673-14.545-29.942c-6.076-7.962-9.534-16.888-9.534-25.398v-8.033c0.01-33.025,26.382-57.916,61.354-57.916
	c16.391,0,31.808,6.38,43.391,17.963c11.593,11.614,17.973,27.021,17.973,43.391c0,11.127-3.307,21.33-9.534,29.942
	c-1.42,11.279-6.451,21.756-14.545,30.003c-0.771,0.781-1.562,1.521-2.373,2.252c15.072,2.292,27.163,13.733,30.449,28.461
	c2.11-9.281,7.719-17.253,15.377-22.426c4.463-3.023,9.636-5.092,15.194-5.913c-0.852-0.771-1.694-1.552-2.505-2.383
	c-8.084-8.226-13.115-18.673-14.545-29.942c-6.076-7.962-9.534-16.888-9.534-25.398v-8.033c0.01-33.025,26.382-57.916,61.354-57.916
	c16.391,0,31.808,6.38,43.391,17.963c11.593,11.614,17.973,27.021,17.973,43.391c0,11.127-3.307,21.32-9.534,29.932
	c-1.42,11.289-6.451,21.767-14.545,30.013c-0.771,0.781-1.562,1.521-2.373,2.252c16.533,2.515,29.495,16.036,31.159,32.832
	c0.101,0.974,0.172,1.958,0.193,2.952H60.223C60.507,343.181,66.907,332.298,76.502,325.806z"/>
<rect x="147.47" y="76.3" style="fill:#FF5F5F;" width="357.03" height="279.25"/>
<g>
	<rect x="484" y="76.3" style="fill:#F44D4D;" width="20.5" height="279.25"/>
	<path style="fill:#F44D4D;" d="M454.141,355.555h-306.67V199.883c8.317,3.023,15.945,7.861,22.395,14.301
		c11.593,11.614,17.973,27.021,17.973,43.391c0,11.127-3.307,21.33-9.534,29.942c-1.42,11.279-6.451,21.756-14.545,30.003
		c-0.771,0.781-1.562,1.521-2.373,2.252c15.072,2.292,27.163,13.733,30.449,28.461c2.11-9.281,7.719-17.253,15.377-22.426
		c4.463-3.023,9.636-5.092,15.194-5.913c-0.852-0.771-1.694-1.552-2.505-2.383c-8.084-8.226-13.115-18.673-14.545-29.942
		c-6.076-7.962-9.534-16.888-9.534-25.398v-8.033c0.01-33.025,26.382-57.916,61.354-57.916c16.391,0,31.808,6.38,43.391,17.963
		c11.593,11.614,17.973,27.021,17.973,43.391c0,11.127-3.307,21.33-9.534,29.942c-1.42,11.279-6.451,21.756-14.545,30.003
		c-0.771,0.781-1.562,1.521-2.373,2.252c15.072,2.292,27.163,13.733,30.449,28.461c2.11-9.281,7.719-17.253,15.377-22.426
		c4.463-3.023,9.636-5.092,15.194-5.913c-0.852-0.771-1.694-1.552-2.505-2.383c-8.084-8.226-13.115-18.673-14.545-29.942
		c-6.076-7.962-9.534-16.888-9.534-25.398v-8.033c0.01-33.025,26.382-57.916,61.354-57.916c16.391,0,31.808,6.38,43.391,17.963
		c11.593,11.614,17.973,27.021,17.973,43.391c0,11.127-3.307,21.32-9.534,29.932c-1.42,11.289-6.451,21.767-14.545,30.013
		c-0.771,0.781-1.562,1.521-2.373,2.252c16.533,2.515,29.495,16.036,31.159,32.832C454.049,353.577,454.12,354.561,454.141,355.555z
		"/>
</g>
<path style="fill:#FF8080;" d="M373.83,221.66l-46.464,22.497l-9.453,4.574l-29.769,14.413c-6.045,2.931-13.074-1.481-13.074-8.195
	V171.98c0-6.725,7.029-11.127,13.074-8.206l75.798,36.697l9.889,4.788C380.686,208.575,380.686,218.343,373.83,221.66z"/>
<g>
	<path style="fill:#FF5F5F;" d="M300.568,214.184c9.473,9.494,15.468,21.523,17.344,34.547l-29.769,14.413
		c-6.045,2.931-13.074-1.481-13.074-8.195v-56.1C284.593,201.739,293.336,206.952,300.568,214.184z"/>
	<path style="fill:#FF5F5F;" d="M373.83,221.66l-46.464,22.497c3.428-20.286,17.253-36.382,36.575-43.685l9.889,4.788
		C380.686,208.575,380.686,218.343,373.83,221.66z"/>
</g>
<rect x="111.04" y="310.82" style="fill:#F7C9A4;" width="31.26" height="28.959"/>
<path style="fill:#FFD9B6;" d="M161.49,261.659v18.551c0,19.637-16.066,36.068-35.693,35.693
	c-19.028-0.365-34.334-15.894-34.334-35.003v-19.251c0.01-19.342,15.681-35.003,35.013-35.003c9.666,0,18.419,3.915,24.759,10.254
	C157.565,243.239,161.49,251.983,161.49,261.659z"/>
<path style="fill:#694B4B;" d="M170.595,257.578c0,28.344-30.467,38.293-43.925,38.064c-25.176-0.428-44.31-19.469-44.31-33.471
	c0-3.346,0-8.027,0-8.03c0.006-24.372,19.759-40.68,44.118-40.68c12.18,0,23.209,4.933,31.197,12.921
	C165.649,234.369,170.595,245.385,170.595,257.578z"/>
<path style="fill:#E5E5DA;" d="M175.501,435.697H77.453v-79.28c0-10.871,8.813-19.684,19.684-19.684h58.679
	c10.871,0,19.684,8.813,19.684,19.684L175.501,435.697L175.501,435.697z"/>
<path style="fill:#D1D0BF;" d="M139.978,336.591c10.873,0,19.687,8.814,19.687,19.687v79.277h15.823v-79.277
	c0-10.873-8.814-19.687-19.687-19.687H139.978z"/>
<rect x="241.74" y="310.82" style="fill:#F7C9A4;" width="31.26" height="28.959"/>
<path style="fill:#FFD9B6;" d="M292.193,261.659v18.551c0,19.637-16.066,36.068-35.693,35.693
	c-19.028-0.365-34.334-15.894-34.334-35.003v-19.251c0.01-19.342,15.681-35.003,35.013-35.003c9.666,0,18.419,3.915,24.759,10.254
	C288.268,243.239,292.193,251.983,292.193,261.659z"/>
<path style="fill:#694B4B;" d="M301.297,257.578c0,28.344-30.467,38.293-43.925,38.064c-25.176-0.428-44.31-19.469-44.31-33.471
	c0-3.346,0-8.027,0-8.03c0.006-24.372,19.759-40.68,44.118-40.68c12.18,0,23.209,4.933,31.197,12.921
	C296.351,234.369,301.297,245.385,301.297,257.578z"/>
<path style="fill:#E5E5DA;" d="M306.203,435.697h-98.048v-79.28c0-10.871,8.813-19.684,19.684-19.684h58.679
	c10.871,0,19.684,8.813,19.684,19.684v79.28H306.203z"/>
<path style="fill:#D1D0BF;" d="M270.681,336.591c10.873,0,19.687,8.814,19.687,19.687v79.277h15.823v-79.277
	c0-10.873-8.814-19.687-19.687-19.687H270.681z"/>
<rect x="372.44" y="310.82" style="fill:#F7C9A4;" width="31.26" height="28.959"/>
<path style="fill:#FFD9B6;" d="M422.895,261.659v18.551c0,19.637-16.066,36.068-35.693,35.693
	c-19.028-0.365-34.334-15.894-34.334-35.003v-19.251c0.01-19.342,15.681-35.003,35.013-35.003c9.666,0,18.419,3.915,24.759,10.254
	C418.97,243.239,422.895,251.983,422.895,261.659z"/>
<path style="fill:#694B4B;" d="M432,257.578c0,28.344-30.467,38.293-43.925,38.064c-25.176-0.428-44.31-19.469-44.31-33.471
	c0-3.346,0-8.027,0-8.03c0.006-24.372,19.759-40.68,44.118-40.68c12.18,0,23.209,4.933,31.197,12.921
	C427.054,234.369,432,245.385,432,257.578z"/>
<path style="fill:#E5E5DA;" d="M436.906,435.697h-98.048v-79.28c0-10.871,8.813-19.684,19.684-19.684h58.679
	c10.871,0,19.684,8.813,19.684,19.684v79.28H436.906z"/>
<path style="fill:#D1D0BF;" d="M401.383,336.591c10.873,0,19.687,8.814,19.687,19.687v79.277h15.823v-79.277
	c0-10.873-8.814-19.687-19.687-19.687H401.383z"/>
<g>
	<circle style="fill:#FF5F5F;" cx="46.46" cy="131.49" r="13.969"/>
	<circle style="fill:#FF5F5F;" cx="46.46" cy="192.44" r="13.969"/>
</g>
<path d="M504.5,68.802h-97.8c-4.142,0-7.5,3.357-7.5,7.5s3.358,7.5,7.5,7.5H497v264.26h-53.914
	c-3.534-10.913-13.79-18.829-25.865-18.829h-6.011v-12.884c10.762-7.14,18.138-19.028,19.068-32.549
	c6.043-7.398,9.221-16.371,9.221-26.222c0-13.773-5.368-26.734-15.117-36.499c-9.749-9.75-22.711-15.119-36.5-15.119
	c-1.061,0-2.109,0.035-3.151,0.088c-1.597-3.21-4.227-5.884-7.633-7.536l-85.689-41.479c-5.183-2.511-11.188-2.183-16.065,0.875
	c-4.874,3.055-7.784,8.313-7.784,14.065v35.03c-3.38-0.686-6.852-1.043-10.38-1.043c-29.42,0-51.61,20.712-51.618,48.181v8.03
	c0,7.198,3.414,14.903,9.281,21.67c0.888,10.383,5.562,20.311,13.107,27.616c1.962,1.9,4.069,3.585,6.291,5.05v12.726h-6.4
	c-14.99,0-27.185,12.195-27.185,27.185v79.28c0,4.143,3.358,7.5,7.5,7.5h98.048c4.142,0,7.5-3.357,7.5-7.5v-79.28
	c0-14.989-12.195-27.185-27.185-27.185H280.5V316.35c10.758-7.136,18.134-19.02,19.076-32.549c5.219-6.389,8.298-13.952,9.04-22.242
	l28.046-13.577c-0.252,2.011-0.397,4.062-0.398,6.158v8.03c0,7.197,3.414,14.902,9.28,21.67
	c0.886,10.376,5.554,20.299,13.095,27.604c1.965,1.903,4.075,3.592,6.301,5.06v12.729h-6.397c-14.99,0-27.185,12.195-27.185,27.185
	v79.28c0,4.143,3.358,7.5,7.5,7.5h98.048c4.142,0,7.5-3.357,7.5-7.5V418.83c0-4.143-3.358-7.5-7.5-7.5s-7.5,3.357-7.5,7.5v9.368
	h-83.048v-71.78c0-6.719,5.466-12.185,12.185-12.185h58.679c6.719,0,12.185,5.466,12.185,12.185v29.798c0,4.143,3.358,7.5,7.5,7.5
	s7.5-3.357,7.5-7.5v-23.153H504.5c4.142,0,7.5-3.357,7.5-7.5V76.302C512,72.16,508.642,68.802,504.5,68.802z M369.075,300.669
	c-0.503-0.487-0.979-0.997-1.442-1.517c6.199,2.406,13.052,3.865,20.313,3.988c0.2,0.003,0.402,0.005,0.606,0.005
	c5.662,0,12.821-1.33,19.952-4.121c-4.941,5.613-12.111,9.229-20.081,9.379C381.248,308.583,374.369,305.798,369.075,300.669z
	 M413.771,231.68c6.918,6.93,10.728,16.126,10.728,25.897c0,7.46-2.67,13.867-7.936,19.044c-8.744,8.597-22,11.652-28.362,11.521
	c-13.062-0.222-23.375-5.981-29.75-12.479c-0.152-0.169-0.311-0.331-0.478-0.486c-4.334-4.583-6.71-9.471-6.71-13.007v-8.028
	c0.004-16.718,11.65-29.444,28.632-32.483c0.188-0.024,0.373-0.059,0.557-0.097c2.38-0.393,4.86-0.602,7.428-0.602
	C397.664,220.959,406.86,224.768,413.771,231.68z M220.562,254.142c0.005-19.228,15.405-33.183,36.618-33.183
	c9.782,0,18.978,3.809,25.89,10.721c6.918,6.93,10.728,16.126,10.728,25.897c0,7.46-2.67,13.867-7.936,19.044
	c-8.743,8.597-21.99,11.652-28.362,11.521c-13.043-0.221-23.345-5.964-29.722-12.45c-0.056-0.063-0.107-0.13-0.166-0.192
	c-0.05-0.052-0.104-0.097-0.156-0.147c-0.008-0.008-0.016-0.015-0.024-0.023c-0.055-0.054-0.11-0.105-0.166-0.157
	c-4.331-4.581-6.704-9.467-6.704-13.002V254.142z M257.713,308.403c-4.341,0.104-8.559-0.874-12.387-2.79
	c-0.052-0.029-0.108-0.052-0.161-0.079c-2.447-1.245-4.732-2.872-6.781-4.855c-0.506-0.49-0.985-1.002-1.451-1.526
	c6.198,2.406,13.051,3.864,20.311,3.987c0.201,0.003,0.402,0.005,0.606,0.005c5.662,0,12.82-1.33,19.952-4.121
	C272.859,304.637,265.687,308.253,257.713,308.403z M298.704,356.417v71.78h-83.048v-71.78c0-6.719,5.466-12.185,12.185-12.185
	h58.679C293.238,344.233,298.704,349.699,298.704,356.417z M265.5,329.233h-16.26v-6.588c2.595,0.504,5.25,0.763,7.938,0.763
	c0.274,0,0.548-0.003,0.823-0.008c2.561-0.048,5.064-0.34,7.499-0.831V329.233z M307.371,245.495
	c-2.19-9.161-6.86-17.575-13.692-24.417c-3.356-3.356-7.099-6.18-11.12-8.457v-40.649c0-0.732,0.408-1.142,0.75-1.356
	c0.345-0.216,0.895-0.407,1.562-0.083l81.57,39.486c-9.207,3.72-16.844,9.828-22.132,17.596L307.371,245.495z M379.94,322.644
	c2.598,0.505,5.256,0.765,7.948,0.765c0.273,0,0.549-0.003,0.823-0.008c2.561-0.048,5.064-0.34,7.499-0.831v6.663h-16.27V322.644z"
	/>
<path d="M155.817,329.233H149.8v-12.881c10.769-7.14,18.15-19.033,19.079-32.559c6.04-7.397,9.216-16.367,9.216-26.216
	c0-13.772-5.367-26.733-15.118-36.499c-2.474-2.475-5.157-4.664-8.006-6.558v-50.554c0-4.143-3.358-7.5-7.5-7.5s-7.5,3.357-7.5,7.5
	v43.78c-4.347-1.169-8.872-1.786-13.494-1.786c-29.419,0-51.61,20.712-51.618,48.181v8.03c0,7.2,3.416,14.907,9.286,21.676
	c0.89,10.378,5.562,20.304,13.107,27.609c1.961,1.899,4.067,3.584,6.288,5.049v12.728h-6.402c-12.075,0-22.331,7.916-25.865,18.829
	H15V83.802h124.971v47.427c0,4.143,3.358,7.5,7.5,7.5s7.5-3.357,7.5-7.5V83.802H372.44c4.142,0,7.5-3.357,7.5-7.5
	s-3.358-7.5-7.5-7.5H7.5c-4.142,0-7.5,3.357-7.5,7.5v279.26c0,4.143,3.358,7.5,7.5,7.5h62.454v72.636c0,4.143,3.358,7.5,7.5,7.5
	h98.047c4.142,0,7.5-3.357,7.5-7.5v-79.28C183.001,341.428,170.806,329.233,155.817,329.233z M107.686,300.678
	c-0.504-0.488-0.982-1-1.447-1.522c6.196,2.404,13.046,3.861,20.303,3.984c0.201,0.003,0.402,0.005,0.606,0.005
	c5.662,0,12.822-1.33,19.955-4.122c-4.943,5.613-12.116,9.23-20.089,9.38C119.854,308.553,112.976,305.8,107.686,300.678z
	 M89.859,254.142c0.005-19.228,15.406-33.183,36.618-33.183c9.782,0,18.978,3.809,25.889,10.721
	c6.918,6.93,10.729,16.127,10.729,25.897c0,7.46-2.67,13.867-7.936,19.044c-8.744,8.597-22.009,11.652-28.362,11.521
	c-13.111-0.223-23.453-6.024-29.822-12.552c-0.116-0.125-0.234-0.247-0.358-0.364c-4.363-4.597-6.758-9.507-6.758-13.056
	C89.859,262.17,89.859,254.142,89.859,254.142z M118.54,322.645c2.595,0.504,5.25,0.764,7.939,0.764
	c0.273,0,0.549-0.003,0.823-0.008c2.561-0.048,5.064-0.34,7.498-0.831v6.663h-16.26V322.645z M168.001,428.198H84.954v-71.78
	c0-6.719,5.466-12.185,12.184-12.185h58.679c6.718,0,12.184,5.466,12.184,12.185V428.198z"/>
<path d="M46.46,110.019c-11.838,0-21.469,9.631-21.469,21.47s9.631,21.47,21.469,21.47s21.469-9.631,21.469-21.47
	S58.298,110.019,46.46,110.019z M46.46,137.958c-3.567,0-6.469-2.902-6.469-6.47s2.902-6.47,6.469-6.47s6.469,2.902,6.469,6.47
	C52.929,135.056,50.027,137.958,46.46,137.958z"/>
<path d="M86.291,127.371h13.274c4.142,0,7.5-3.357,7.5-7.5s-3.358-7.5-7.5-7.5H86.291c-4.142,0-7.5,3.357-7.5,7.5
	S82.148,127.371,86.291,127.371z"/>
<path d="M122.42,137.712H86.291c-4.142,0-7.5,3.357-7.5,7.5s3.358,7.5,7.5,7.5h36.129c4.142,0,7.5-3.357,7.5-7.5
	S126.562,137.712,122.42,137.712z"/>
<path d="M46.46,170.968c-11.838,0-21.469,9.631-21.469,21.47s9.631,21.47,21.469,21.47s21.469-9.631,21.469-21.47
	S58.298,170.968,46.46,170.968z M46.46,198.908c-3.567,0-6.469-2.902-6.469-6.47s2.902-6.47,6.469-6.47s6.469,2.902,6.469,6.47
	S50.027,198.908,46.46,198.908z"/>
<path d="M86.291,185.968h13.274c4.142,0,7.5-3.357,7.5-7.5s-3.358-7.5-7.5-7.5H86.291c-4.142,0-7.5,3.357-7.5,7.5
	S82.148,185.968,86.291,185.968z"/>
<path d="M465.943,105.993h-46.805c-4.142,0-7.5,3.357-7.5,7.5s3.358,7.5,7.5,7.5h46.805c4.142,0,7.5-3.357,7.5-7.5
	S470.085,105.993,465.943,105.993z"/>
<path d="M465.943,126.955H454.14c-4.142,0-7.5,3.357-7.5,7.5s3.358,7.5,7.5,7.5h11.803c4.142,0,7.5-3.357,7.5-7.5
	S470.085,126.955,465.943,126.955z"/>
<g>
</g>
<g>
</g>
<g>
</g>
<g>
</g>
<g>
</g>
<g>
</g>
<g>
</g>
<g>
</g>
<g>
</g>
<g>
</g>
<g>
</g>
<g>
</g>
<g>
</g>
<g>
</g>
<g>
</g>
</svg>
