<?xml version="1.0" encoding="iso-8859-1"?>
<!-- Generator: Adobe Illustrator 19.0.0, SVG Export Plug-In . SVG Version: 6.00 Build 0)  -->
<svg version="1.1" id="Capa_1" xmlns="http://www.w3.org/2000/svg" xmlns:xlink="http://www.w3.org/1999/xlink" x="0px" y="0px"
	 viewBox="0 0 511.999 511.999" style="enable-background:new 0 0 511.999 511.999;" xml:space="preserve">
<path style="fill:#00C3FF;" d="M404.274,433.081v71.414H15.291v-71.414c0-33.493,22.824-62.686,55.337-70.746l100.619-24.979h77.073
	l54.076,13.428l46.543,11.553C381.45,370.396,404.274,399.588,404.274,433.081z"/>
<g>
	<path style="fill:#00AAF0;" d="M65.556,363.794c-18.648,17.011-30.399,45.25-30.399,69.286V504.5H15.294v-71.419
		C15.294,401.357,35.762,373.496,65.556,363.794z"/>
	<path style="fill:#00AAF0;" d="M404.208,429.992c-1.326-31.932-24.276-59.973-55.271-67.656l-46.543-11.553
		c5.547,45.071,38.698,81.581,82.019,92.133v61.585h19.862v-71.42C404.275,432.047,404.251,431.017,404.208,429.992
		C404.202,429.836,404.251,431.017,404.208,429.992z"/>
</g>
<g>
	<polygon style="fill:#FF5F5F;" points="235.385,504.501 184.188,504.501 197.213,417.731 222.36,417.731 	"/>
	<polygon style="fill:#FF5F5F;" points="193.721,417.731 177.658,389.91 193.721,362.088 225.846,362.088 241.909,389.91 
		225.846,417.731 	"/>
</g>
<rect x="169.268" y="274.764" style="fill:#F7C9A4;" width="81.044" height="75.074"/>
<path style="fill:#FFD9B6;" d="M336.392,202.16c0,14.468-10.05,26.591-23.541,29.749c-2.257,0.543-4.602,0.825-7.022,0.825
	c-16.888,0-30.574-13.687-30.574-30.574c0-16.878,13.687-30.563,30.574-30.563c2.518,0,4.96,0.304,7.293,0.879
	C326.482,175.742,336.392,187.8,336.392,202.16z"/>
<path style="fill:#F7C9A4;" d="M307.072,171.625v61.083c-0.41,0.02-0.82,0.03-1.24,0.03c-16.891,0-30.581-13.691-30.581-30.581
	c0-16.871,13.691-30.561,30.581-30.561C306.242,171.595,306.662,171.605,307.072,171.625z"/>
<path style="fill:#FFD9B6;" d="M144.326,202.16c0,16.889-13.687,30.574-30.574,30.574c-2.42,0-4.775-0.282-7.033-0.825
	c-13.502-3.169-23.541-15.282-23.541-29.749c0-14.36,9.909-26.407,23.27-29.673c2.333-0.586,4.786-0.89,7.304-0.89
	C130.639,171.595,144.326,185.282,144.326,202.16z"/>
<path style="fill:#F7C9A4;" d="M144.324,202.157c0,16.891-13.681,30.581-30.571,30.581c-1.56,0-3.1-0.12-4.6-0.35v-60.443
	c1.5-0.23,3.04-0.35,4.6-0.35C130.644,171.595,144.324,185.286,144.324,202.157z"/>
<path style="fill:#FFD9B6;" d="M294.442,114.788v107.201c0,46.757-37.901,84.658-84.658,84.658s-84.658-37.901-84.658-84.658
	V114.788H294.442z"/>
<path style="fill:#F7C9A4;" d="M294.442,117.793v53.253l-1.56-0.19c-33.872-4.09-57.683-19.091-70.873-29.901
	c-30.961,36.272-92.804,42.262-95.714,42.522l-1.17,0.1v-65.783L294.442,117.793L294.442,117.793z"/>
<g>
	<polygon style="fill:#00AAF0;" points="151.536,314.619 209.784,349.713 186.267,397.831 138.149,348.266 	"/>
	<polygon style="fill:#00AAF0;" points="268.031,314.619 209.784,349.713 233.3,397.831 281.418,348.266 	"/>
</g>
<path style="fill:#694B4B;" d="M125.128,167.524c0,0,72.557-6.517,94.744-49.48c0,0,25.635,30.991,74.57,36.908
	c0,0,53.233-48.728,47.756-123.464c0,0-159.307-64.381-204.049,17.709c0,0-43.858,5.177-36.904,47.331
	C108.2,138.682,125.128,167.524,125.128,167.524z"/>
<path style="fill:#5B4040;" d="M294.442,154.956c-5.787-0.7-11.24-1.746-16.369-3.06c10.097-12.889,47.502-64.949,46.015-126.827
	c11.262,3.653,18.115,6.423,18.115,6.423C347.676,106.224,294.442,154.956,294.442,154.956z"/>
<circle style="fill:#B4E66E;" cx="410.229" cy="337.357" r="86.484"/>
<path d="M504.211,337.353c0-51.823-42.161-93.984-93.984-93.984c-6.35,0-12.72,0.643-18.932,1.912
	c-4.059,0.829-6.676,4.791-5.848,8.849c0.829,4.058,4.781,6.677,8.85,5.847c5.226-1.067,10.586-1.608,15.93-1.608
	c43.552,0,78.984,35.432,78.984,78.984s-35.433,78.984-78.984,78.984c-2.015,0-4.039-0.074-6.006-0.219h-0.001
	c-0.01-0.001-0.02-0.002-0.031-0.003c-34.187-2.591-63.374-27.739-70.983-61.166c-1.302-5.719-1.962-11.64-1.962-17.596
	c0-27.76,14.169-52.983,37.9-67.471c3.535-2.158,4.651-6.774,2.493-10.31c-2.157-3.536-6.776-4.65-10.31-2.493
	c-28.23,17.235-45.084,47.244-45.084,80.275c0,3.096,0.16,6.184,0.459,9.25l-30.929-7.682L275,311.847
	c-0.814-2.047-2.487-3.632-4.574-4.335c-2.086-0.702-4.379-0.453-6.265,0.683l-6.361,3.833v-11.411
	c21.598-13.237,37.347-35.117,42.403-60.791c1.851,0.274,3.73,0.412,5.629,0.412c2.939,0,5.888-0.349,8.73-1.028
	c17.27-4.045,29.33-19.283,29.33-37.054c0-17.589-11.921-32.79-28.959-36.96c-2.938-0.731-6.001-1.103-9.102-1.103
	c-1.306,0-2.603,0.071-3.89,0.201v-6.193c5.058-5.15,16.069-16.424,26.863-36.31c1.976-3.64,0.627-8.193-3.014-10.169
	c-3.643-1.977-8.193-0.627-10.17,3.013c-9.51,17.52-19.173,27.537-23.84,32.386c-42.853-6.47-65.909-33.495-66.13-33.759
	c-1.606-1.941-4.08-2.943-6.582-2.677c-2.504,0.27-4.706,1.778-5.862,4.016c-16.875,32.677-67.9,42.518-83.901,44.838
	c-4.721-9.293-15.522-32.989-20.661-64.134c-1.659-10.053-0.091-18.376,4.658-24.737c8.716-11.674,25.58-13.907,25.724-13.925
	c2.415-0.285,4.542-1.724,5.706-3.859c37.072-68.019,164.839-25.326,190.249-16.011c0.715,18.211-2.146,36.354-8.521,54.003
	c-1.407,3.896,0.609,8.195,4.506,9.602c3.891,1.408,8.193-0.609,9.602-4.505c7.648-21.174,10.712-43.021,9.106-64.934
	c-0.208-2.851-2.02-5.335-4.669-6.406c-1.663-0.672-41.251-16.525-87.102-22.415c-60.908-7.823-103.856,6.11-124.524,40.319
	c-7.13,1.552-22.377,6.232-32.011,19.041c-7.351,9.773-9.883,21.977-7.525,36.27c5.129,31.089,15.42,55.011,21.01,66.361
	c-0.205-0.003-0.407-0.014-0.613-0.014c-3.304,0-6.815,0.407-9.583,1.105c-17.068,4.177-28.988,19.375-28.988,36.957
	c0,17.762,12.06,32.999,29.298,37.046c2.875,0.687,5.83,1.036,8.783,1.036c1.891,0,3.763-0.138,5.61-0.41
	c5.057,25.671,20.805,47.549,42.403,60.786v11.413l-6.358-3.831c-1.886-1.136-4.176-1.386-6.265-0.683
	c-2.087,0.703-3.76,2.288-4.574,4.335l-10.773,27.075l-22.968,5.691c-4.021,0.998-6.471,5.065-5.473,9.085
	c0.847,3.414,3.908,5.696,7.273,5.696c0.598,0-2.794,0.928-2.188,0.777l23.222-5.762l36.968,38.079
	c0.146,0.398,0.315,0.79,0.531,1.165l16.061,27.821c0.417,0.722,0.954,1.346,1.563,1.879L177.725,497H84.87v-30.668
	c0-4.142-3.358-7.5-7.5-7.5c-4.142,0-7.5,3.358-7.5,7.5V497h-47.08v-63.913c0-30.115,20.417-56.217,49.653-63.475l12.541-3.12
	c4.02-1,6.468-5.069,5.468-9.089c-1-4.02-5.074-6.466-9.089-5.468l-12.538,3.119c-35.938,8.921-61.036,41.009-61.036,78.033v71.413
	c0,4.142,3.358,7.5,7.5,7.5h388.988c4.143,0,7.5-3.358,7.5-7.5v-71.413c0-0.589-0.016-1.179-0.029-1.769
	C462.871,430.502,504.211,388.668,504.211,337.353z M264.33,325.607l8.323,20.92l-37.302,38.423l-15.814-32.357L264.33,325.607z
	 M198.048,410.227l-5.147-8.916c0.033-0.063,0.074-0.122,0.105-0.186l16.778-34.33l16.778,34.33
	c0.031,0.064,0.072,0.122,0.104,0.185l-5.148,8.917L198.048,410.227L198.048,410.227z M305.832,179.096
	c1.881,0,3.724,0.222,5.507,0.666c10.335,2.529,17.554,11.739,17.554,22.396c0,10.77-7.3,20.001-17.784,22.457
	c-3.053,0.73-6.192,0.805-9.217,0.286c0.03-0.967,0.051-1.937,0.051-2.911v-42.548C303.221,179.223,304.517,179.096,305.832,179.096
	z M108.427,224.606c-10.454-2.455-17.755-11.687-17.755-22.45c0-10.65,7.218-19.856,17.605-22.398
	c1.621-0.409,3.907-0.663,5.966-0.663c1.174,0,2.281,0.092,3.38,0.276v42.616c0,0.976,0.02,1.946,0.051,2.915
	C114.644,225.422,111.508,225.342,108.427,224.606z M133.019,229.811c-0.004-0.058-0.007-0.115-0.013-0.173
	c-0.249-2.518-0.382-5.069-0.382-7.651v-47.843c17.853-2.638,65.664-12.467,88.612-44.075c10.537,9.551,32.601,25.745,65.705,31.369
	v12.203c0,0.004,0,0.008,0,0.012v48.335c0,2.568-0.132,5.106-0.379,7.61c-0.008,0.078-0.012,0.155-0.018,0.233
	c-3.943,38.873-36.862,69.31-76.758,69.31C169.881,299.141,136.953,268.693,133.019,229.811z M176.766,308.021
	c10.256,3.949,21.39,6.121,33.022,6.121c11.629,0,22.757-2.17,33.012-6.118v13.042l-33.016,19.891l-33.018-19.892V308.021z
	 M155.237,325.607l44.791,26.985l-15.814,32.357l-37.301-38.423L155.237,325.607z M192.899,497.001l10.773-71.773h12.229
	l10.773,71.773H192.899z M396.775,497.001h-47.077v-30.668c0-4.142-3.357-7.5-7.5-7.5c-4.143,0-7.5,3.358-7.5,7.5v30.668h-92.854
	l-11.056-73.65c0.606-0.532,1.141-1.154,1.556-1.874l16.061-27.821c0.216-0.374,0.384-0.765,0.53-1.162l36.971-38.083l33.839,8.404
	c4.951,17.684,14.869,33.354,28.896,45.532c13.738,11.928,30.246,19.458,48.071,22.016c0.038,0.908,0.063,1.817,0.063,2.724v63.914
	H396.775z"/>
<path d="M410.226,310.764c-4.143,0-7.5,3.358-7.5,7.5v11.591h-11.591c-4.143,0-7.5,3.358-7.5,7.5c0,4.142,3.357,7.5,7.5,7.5h11.591
	v11.591c0,4.142,3.357,7.5,7.5,7.5s7.5-3.358,7.5-7.5v-11.591h11.591c4.143,0,7.5-3.358,7.5-7.5c0-4.142-3.357-7.5-7.5-7.5h-11.591
	v-11.591C417.726,314.122,414.368,310.764,410.226,310.764z"/>
<path d="M167.189,213.293c-4.142,0-7.5-3.358-7.5-7.5v-8.201c0-4.142,3.358-7.5,7.5-7.5c4.142,0,7.5,3.358,7.5,7.5v8.201
	C174.689,209.935,171.331,213.293,167.189,213.293z"/>
<path d="M254.807,213.293c-4.142,0-7.5-3.358-7.5-7.5v-8.201c0-4.142,3.358-7.5,7.5-7.5c4.142,0,7.5,3.358,7.5,7.5v8.201
	C262.307,209.935,258.949,213.293,254.807,213.293z"/>
<g>
</g>
<g>
</g>
<g>
</g>
<g>
</g>
<g>
</g>
<g>
</g>
<g>
</g>
<g>
</g>
<g>
</g>
<g>
</g>
<g>
</g>
<g>
</g>
<g>
</g>
<g>
</g>
<g>
</g>
</svg>
