<?xml version="1.0" encoding="iso-8859-1"?>
<!-- Generator: Adobe Illustrator 19.0.0, SVG Export Plug-In . SVG Version: 6.00 Build 0)  -->
<svg version="1.1" id="Capa_1" xmlns="http://www.w3.org/2000/svg" xmlns:xlink="http://www.w3.org/1999/xlink" x="0px" y="0px"
	 viewBox="0 0 512.001 512.001" style="enable-background:new 0 0 512.001 512.001;" xml:space="preserve">
<path style="fill:#FF5F5F;" d="M468.587,235.083c0,94.31-76.447,170.757-170.747,170.757h-0.159
	c-94.231-0.089-170.588-76.496-170.588-170.757c0-38.233,12.563-73.534,33.795-101.988c31.13-41.731,80.885-68.758,136.952-68.758
	c19.27,0,37.787,3.19,55.066,9.085l-77.932,187.817l189.185-64.964C467.051,208.739,468.587,221.737,468.587,235.083z"/>
<path style="fill:#F44D4D;" d="M297.682,405.839c-94.231-0.089-170.588-76.496-170.588-170.757
	c0-38.233,12.563-73.534,33.795-101.988h68.293c3.854,0,7.064,2.933,7.401,6.767l1.209,13.554
	c0.149,1.684,2.903,34.766-7.312,72.602c13.623,7.569,22.451,22.034,22.451,38.273c0,20.459-13.89,37.995-33.785,42.662
	c-0.337,0.079-0.693,0.139-1.04,0.208c-3.636,9.61-9.016,18.359-15.773,25.859l5.241,13.177l37.272,9.254
	C270.684,361.86,290.4,381.348,297.682,405.839z"/>
<path style="fill:#E5E5DA;" d="M504.5,157.661l-189.185,64.964l77.933-187.817C448.562,53.632,491.105,100.049,504.5,157.661z"/>
<path style="fill:#F2F2F0;" d="M171.59,359.496h-54.267l-70.856,17.587C23.575,382.766,7.5,403.318,7.5,426.906v50.291h273.914
	v-50.291c0-23.588-16.075-44.14-38.968-49.823L171.59,359.496z"/>
<g>
	<path style="fill:#E5E5DA;" d="M42.895,378.114c-13.132,11.979-21.407,31.864-21.407,48.79v50.292H7.502v-50.292
		C7.502,404.565,21.915,384.945,42.895,378.114z"/>
	<path style="fill:#E5E5DA;" d="M246.021,378.114c13.132,11.979,21.407,31.864,21.407,48.79v50.292h13.986v-50.292
		C281.414,404.565,267.001,384.945,246.021,378.114z"/>
</g>
<g>
	<polygon style="fill:#00C3FF;" points="162.485,477.196 126.433,477.196 135.605,416.095 153.313,416.095 	"/>
	<polygon style="fill:#00C3FF;" points="133.146,416.095 121.835,396.504 133.146,376.912 155.768,376.912 167.079,396.504 
		155.768,416.095 	"/>
</g>
<g>
	<rect x="115.92" y="315.419" style="fill:#F7C9A4;" width="57.07" height="52.863"/>
	<path style="fill:#F7C9A4;" d="M233.612,264.294c0,10.188-7.077,18.725-16.577,20.949c-1.59,0.382-3.241,0.581-4.945,0.581
		c-11.892,0-21.53-9.638-21.53-21.53c0-11.885,9.638-21.522,21.53-21.522c1.773,0,3.493,0.214,5.136,0.619
		C226.634,245.691,233.612,254.182,233.612,264.294z"/>
	<path style="fill:#F7C9A4;" d="M98.363,264.294c0,11.892-9.638,21.53-21.53,21.53c-1.704,0-3.363-0.199-4.953-0.581
		c-9.508-2.232-16.577-10.761-16.577-20.949c0-10.112,6.978-18.595,16.386-20.896c1.643-0.413,3.371-0.627,5.144-0.627
		C88.725,242.771,98.363,252.409,98.363,264.294z"/>
</g>
<path style="fill:#FFD9B6;" d="M204.072,202.768v75.489c0,32.926-26.689,59.615-59.615,59.615s-59.615-26.689-59.615-59.615v-75.489
	H204.072z"/>
<path style="fill:#694B4B;" d="M84.879,242.769c0,0-18.183-61.398,13.434-72.608c0,0,3.983-14.776,20.165-14.776
	s100.079,0,100.079,0s3.983,44.838-14.439,87.384l-13.692-2.293v-16.305c0,0-34.853-6.624-90.868-6.624v22.929L84.879,242.769z"/>
<g>
	<polygon style="fill:#E5E5DA;" points="103.44,343.486 144.457,368.198 127.898,402.082 94.014,367.179 	"/>
	<polygon style="fill:#E5E5DA;" points="185.474,343.486 144.457,368.198 161.017,402.082 194.9,367.179 	"/>
</g>
<path d="M467.796,189.712c-1.857-1.028-4.063-1.222-6.071-0.534l-173.448,59.556l71.552-172.438
	c0.794-1.914,0.761-4.071-0.092-5.961c-0.854-1.889-2.45-3.34-4.411-4.011c-18.437-6.299-37.777-9.492-57.485-9.492
	c-36.358,0-71.333,10.878-101.141,31.458c-3.409,2.354-4.264,7.024-1.911,10.433c2.353,3.408,7.023,4.264,10.433,1.911
	c27.292-18.842,59.319-28.802,92.619-28.802c15.347,0,30.446,2.112,44.992,6.286l-74.79,180.24c-1.13,2.725-0.559,5.858,1.461,8.009
	c2.021,2.15,5.115,2.915,7.902,1.959l181.124-62.191c1.701,9.528,2.561,19.231,2.561,28.947c0,90.017-73.233,163.25-163.25,163.25
	c-5.604,0-11.237-0.302-16.806-0.869c-7.781-13.479-20.812-23.699-36.777-27.661l-44.649-11.081l-7.165-18.008
	c-0.814-2.047-2.487-3.632-4.574-4.335s-4.378-0.453-6.265,0.684l-1.113,0.671v-2.899c14.62-9.346,25.389-24.191,29.374-41.604
	c0.738,0.055,1.479,0.092,2.226,0.092c2.253,0,4.502-0.265,6.647-0.777c13.173-3.079,22.373-14.697,22.373-28.253
	c0-13.41-9.086-25.001-22.075-28.18c-1.3-0.322-2.632-0.542-3.979-0.679c14.336-40.321,11.127-78.954,10.971-80.713
	c-0.344-3.869-3.586-6.836-7.471-6.836H159.81c6.671-10.542,14.54-20.306,23.495-29.131c2.95-2.907,2.985-7.656,0.077-10.606
	s-7.657-2.984-10.606-0.077c-12.004,11.831-22.219,25.209-30.422,39.814h-23.875c-14.605,0-22.702,9.426-26.027,16.601
	c-25.871,12.433-20.985,52.281-17.108,70.831c-1.883,0.095-3.72,0.361-5.434,0.801c-13.018,3.181-22.11,14.768-22.11,28.175
	c0,13.546,9.198,25.163,22.337,28.245c2.182,0.521,4.434,0.785,6.693,0.785c0.744,0,1.481-0.036,2.216-0.092
	c3.986,17.411,14.754,32.255,29.374,41.6v2.898l-1.109-0.668c-1.886-1.136-4.177-1.386-6.265-0.684
	c-2.087,0.703-3.76,2.288-4.574,4.335l-7.164,18.007L44.665,369.8C18.367,376.325,0,399.806,0,426.903v50.29
	c0,4.143,3.358,7.5,7.5,7.5h183.06c4.142,0,7.5-3.357,7.5-7.5s-3.358-7.5-7.5-7.5h-21.617l-7.34-48.9
	c0.241-0.299,0.467-0.612,0.662-0.951l11.31-19.59c0.129-0.224,0.235-0.456,0.339-0.689l24.849-25.596l41.881,10.394
	c12.801,3.177,23.077,11.751,28.661,22.945c0.105,0.259,0.227,0.509,0.36,0.753c2.73,5.743,4.244,12.143,4.244,18.843v42.79H245.2
	v-19.373c0-4.143-3.358-7.5-7.5-7.5s-7.5,3.357-7.5,7.5v19.374h-4.281c-4.142,0-7.5,3.357-7.5,7.5s3.358,7.5,7.5,7.5h55.49
	c4.143,0,7.5-3.357,7.5-7.5v-50.29c0-4.768-0.58-9.419-1.66-13.891c3.528,0.207,7.065,0.32,10.59,0.32
	c98.287,0,178.25-79.963,178.25-178.25c0-13.647-1.556-27.274-4.624-40.505C470.986,192.509,469.653,190.741,467.796,189.712z
	 M226.11,264.292c0,6.551-4.436,12.162-10.823,13.655c-1.217,0.291-2.471,0.4-3.718,0.355c0-0.017,0.001-0.034,0.001-0.051v-27.96
	c1.305-0.049,2.615,0.071,3.877,0.384C221.725,252.213,226.11,257.813,226.11,264.292z M100.819,177.23
	c2.323-0.823,4.094-2.736,4.735-5.116c0.102-0.377,2.606-9.229,12.923-9.229h92.895c0.23,12.979-0.721,42.47-11.926,71.497
	l-1.522-0.255v-9.956c0-3.603-2.561-6.695-6.1-7.368c-1.452-0.275-36.192-6.756-92.268-6.756c-4.142,0-7.5,3.357-7.5,7.5v16.51
	l-1.539,0.24C87.289,219.608,81.65,184.027,100.819,177.23z M73.592,277.941c-6.354-1.49-10.792-7.103-10.792-13.648
	c0-6.475,4.388-12.068,10.75-13.624c1.027-0.263,2.131-0.396,3.28-0.396c0.171,0,0.339,0.018,0.51,0.024v27.957
	c0,0.018,0.001,0.036,0.001,0.054C76.095,278.35,74.835,278.237,73.592,277.941z M92.34,278.252v-29.058l8.375-1.308
	c3.651-0.57,6.342-3.715,6.342-7.41v-15.388c37.407,0.406,64.406,3.757,75.868,5.462v9.926c0,3.664,2.647,6.792,6.261,7.397
	l7.383,1.236v29.142c0,28.739-23.376,52.12-52.11,52.12C115.721,330.372,92.34,306.991,92.34,278.252z M123.42,341.976
	c6.623,2.192,13.692,3.397,21.04,3.397c7.345,0,14.41-1.203,21.03-3.394v4.792l-21.033,12.672l-21.037-12.675L123.42,341.976
	L123.42,341.976z M151.44,408.592h-13.96l-2.392-4.143l9.369-19.17l9.372,19.176L151.44,408.592z M107.142,354.472l27.561,16.605
	l-8.857,18.123l-23.067-23.762L107.142,354.472z M15,426.903c0-20.188,13.684-37.682,33.277-42.541l41.873-10.395l24.862,25.61
	c0.103,0.228,0.205,0.456,0.332,0.675l11.31,19.59c0.195,0.338,0.421,0.651,0.661,0.949l-7.34,48.901H58.714v-19.373
	c0-4.143-3.358-7.5-7.5-7.5s-7.5,3.357-7.5,7.5v19.374H15V426.903z M135.144,469.693l6.92-46.101h4.791l6.92,46.101H135.144z
	 M163.069,389.2l-8.857-18.123l27.561-16.605l4.363,10.967L163.069,389.2z"/>
<path d="M511.805,155.963c-6.841-29.422-21.246-56.85-41.66-79.317c-20.299-22.342-46.054-39.264-74.48-48.938
	c-3.739-1.271-7.829,0.574-9.344,4.227l-77.933,187.817c-1.13,2.725-0.559,5.858,1.461,8.009c1.442,1.536,3.432,2.365,5.468,2.365
	c0.815,0,1.638-0.133,2.435-0.406l94.592-32.482c3.918-1.346,6.003-5.612,4.658-9.529c-1.347-3.92-5.618-6-9.529-4.658
	l-78.85,27.077l68.802-165.812c47.628,18.585,84.429,59.278,98.102,108.499l-58.005,19.635c-3.918,1.346-6.003,5.612-4.658,9.529
	c1.346,3.919,5.615,5.997,9.529,4.658l64.544-21.881C510.573,163.506,512.676,159.708,511.805,155.963z"/>
<path d="M116.753,275.972c-4.142,0-7.5-3.358-7.5-7.5v-5.223c0-4.142,3.358-7.5,7.5-7.5s7.5,3.358,7.5,7.5v5.223
	C124.253,272.615,120.896,275.972,116.753,275.972z"/>
<path d="M172.545,275.972c-4.142,0-7.5-3.358-7.5-7.5v-5.223c0-4.142,3.358-7.5,7.5-7.5s7.5,3.358,7.5,7.5v5.223
	C180.045,272.615,176.687,275.972,172.545,275.972z"/>
<g>
</g>
<g>
</g>
<g>
</g>
<g>
</g>
<g>
</g>
<g>
</g>
<g>
</g>
<g>
</g>
<g>
</g>
<g>
</g>
<g>
</g>
<g>
</g>
<g>
</g>
<g>
</g>
<g>
</g>
</svg>
