<?xml version="1.0" encoding="iso-8859-1"?>
<!-- Generator: Adobe Illustrator 19.0.0, SVG Export Plug-In . SVG Version: 6.00 Build 0)  -->
<svg version="1.1" id="Capa_1" xmlns="http://www.w3.org/2000/svg" xmlns:xlink="http://www.w3.org/1999/xlink" x="0px" y="0px"
	 viewBox="0 0 512 512" style="enable-background:new 0 0 512 512;" xml:space="preserve">
<path style="fill:#694B4B;" d="M438.3,67.849v413.706c0,12.671-10.274,22.944-22.944,22.944H96.644
	c-12.671,0-22.944-10.274-22.944-22.944V67.849c0-12.671,10.274-22.944,22.944-22.944h318.711
	C428.027,44.905,438.3,55.179,438.3,67.849z"/>
<rect x="118.98" y="44.905" style="fill:#5B4040;" width="274.05" height="50.725"/>
<rect x="108.99" y="73.49" style="fill:#E5E5DA;" width="294.03" height="394.34"/>
<g>
	<rect x="381.57" y="73.49" style="fill:#D1D0BF;" width="21.447" height="394.34"/>
	<rect x="140.29" y="23.407" style="fill:#D1D0BF;" width="231.42" height="65.13"/>
</g>
<rect x="208.77" y="7.5" style="fill:#E5E5DA;" width="94.45" height="58.903"/>
<rect x="196.9" y="202.12" style="fill:#F7C9A4;" width="26.841" height="24.864"/>
<path style="fill:#FFD9B6;" d="M240.22,159.919v15.928c0,16.86-13.794,30.967-30.645,30.645
	c-16.337-0.313-29.478-13.646-29.478-30.053V159.91c0.009-16.607,13.463-30.053,30.062-30.053c8.299,0,15.815,3.361,21.257,8.804
	C236.85,144.104,240.22,151.611,240.22,159.919z"/>
<path style="fill:#694B4B;" d="M248.037,156.415c-41.511,19.214-75.746,0-75.746,0h-0.011v-0.011
	c0.011-20.925,16.964-37.868,37.879-37.868c10.457,0,19.927,4.236,26.785,11.094C243.79,136.488,248.037,145.947,248.037,156.415z"
	/>
<path style="fill:#FF5F5F;" d="M223.085,222.855h-25.524l-33.327,8.272c-10.768,2.673-18.328,12.339-18.328,23.434v23.654H274.74
	v-23.654c0-11.095-7.561-20.761-18.328-23.434L223.085,222.855z"/>
<path d="M438.3,121.83c4.142,0,7.5-3.357,7.5-7.5V67.85c0-16.79-13.655-30.449-30.44-30.449h-36.15V23.41c0-4.143-3.358-7.5-7.5-7.5
	h-60.982V7.5c0-4.143-3.358-7.5-7.5-7.5h-94.455c-4.142,0-7.5,3.357-7.5,7.5v8.41H140.29c-4.142,0-7.5,3.357-7.5,7.5V37.4H96.64
	c-16.785,0-30.44,13.66-30.44,30.45v413.71c0,16.785,13.655,30.44,30.44,30.44h318.72c16.785,0,30.44-13.655,30.44-30.44V148.33
	c0-4.143-3.358-7.5-7.5-7.5s-7.5,3.357-7.5,7.5v333.23c0,8.514-6.926,15.44-15.44,15.44H96.64c-8.514,0-15.44-6.927-15.44-15.44
	V67.85c0-8.519,6.926-15.449,15.44-15.449h36.15v13.59h-23.8c-4.142,0-7.5,3.357-7.5,7.5V176.1c0,4.143,3.358,7.5,7.5,7.5
	s7.5-3.357,7.5-7.5V80.99h16.3v7.55c0,4.143,3.358,7.5,7.5,7.5h231.42c4.142,0,7.5-3.357,7.5-7.5v-7.55h16.3v379.34h-95.18
	c-4.142,0-7.5,3.357-7.5,7.5s3.358,7.5,7.5,7.5h102.68c4.142,0,7.5-3.357,7.5-7.5V73.49c0-4.143-3.358-7.5-7.5-7.5h-23.8V52.4h36.15
	c8.514,0,15.44,6.931,15.44,15.449v46.48C430.8,118.473,434.158,121.83,438.3,121.83z M216.272,15h79.455v43.902h-79.455V15
	L216.272,15z M364.21,81.04H147.79V54.629h14.813c4.142,0,7.5-3.357,7.5-7.5s-3.358-7.5-7.5-7.5H147.79V30.91h53.482v35.492
	c0,4.143,3.358,7.5,7.5,7.5h94.455c4.142,0,7.5-3.357,7.5-7.5V30.91h53.482v8.719h-14.813c-4.142,0-7.5,3.357-7.5,7.5
	s3.358,7.5,7.5,7.5h14.813V81.04H364.21z"/>
<path d="M108.987,199c-4.142,0-7.5,3.357-7.5,7.5v261.333c0,4.143,3.358,7.5,7.5,7.5h157.346c4.142,0,7.5-3.357,7.5-7.5
	s-3.358-7.5-7.5-7.5H116.487V206.5C116.487,202.357,113.129,199,108.987,199z"/>
<path d="M279.609,32.688h-47.217c-4.142,0-7.5,3.357-7.5,7.5s3.358,7.5,7.5,7.5h47.217c4.142,0,7.5-3.357,7.5-7.5
	S283.751,32.688,279.609,32.688z"/>
<path d="M303.228,169.093h55.335c4.142,0,7.5-3.357,7.5-7.5s-3.358-7.5-7.5-7.5h-55.335c-4.142,0-7.5,3.357-7.5,7.5
	S299.085,169.093,303.228,169.093z"/>
<path d="M303.228,188.595h55.335c4.142,0,7.5-3.357,7.5-7.5s-3.358-7.5-7.5-7.5h-55.335c-4.142,0-7.5,3.357-7.5,7.5
	S299.085,188.595,303.228,188.595z"/>
<path d="M361.585,351.973H153.437c-4.142,0-7.5,3.357-7.5,7.5s3.358,7.5,7.5,7.5h208.148c4.142,0,7.5-3.357,7.5-7.5
	S365.728,351.973,361.585,351.973z"/>
<path d="M361.585,377.136H153.437c-4.142,0-7.5,3.357-7.5,7.5s3.358,7.5,7.5,7.5h208.148c4.142,0,7.5-3.357,7.5-7.5
	S365.728,377.136,361.585,377.136z"/>
<path d="M369.085,409.798c0-4.143-3.358-7.5-7.5-7.5H153.437c-4.142,0-7.5,3.357-7.5,7.5s3.358,7.5,7.5,7.5h208.148
	C365.728,417.298,369.085,413.94,369.085,409.798z"/>
<path d="M303.228,252.375h55.335c4.142,0,7.5-3.357,7.5-7.5s-3.358-7.5-7.5-7.5h-55.335c-4.142,0-7.5,3.357-7.5,7.5
	S299.085,252.375,303.228,252.375z"/>
<path d="M303.228,271.877h55.335c4.142,0,7.5-3.357,7.5-7.5s-3.358-7.5-7.5-7.5h-55.335c-4.142,0-7.5,3.357-7.5,7.5
	S299.085,271.877,303.228,271.877z"/>
<path d="M152.429,314.505h22.979c4.142,0,7.5-3.357,7.5-7.5s-3.358-7.5-7.5-7.5h-22.979c-4.142,0-7.5,3.357-7.5,7.5
	S148.287,314.505,152.429,314.505z"/>
<path d="M152.429,334.006h22.979c4.142,0,7.5-3.357,7.5-7.5s-3.358-7.5-7.5-7.5h-22.979c-4.142,0-7.5,3.357-7.5,7.5
	S148.287,334.006,152.429,334.006z"/>
<path d="M212.255,314.505h22.978c4.142,0,7.5-3.357,7.5-7.5s-3.358-7.5-7.5-7.5h-22.978c-4.142,0-7.5,3.357-7.5,7.5
	S208.113,314.505,212.255,314.505z"/>
<path d="M212.255,334.006h22.978c4.142,0,7.5-3.357,7.5-7.5s-3.358-7.5-7.5-7.5h-22.978c-4.142,0-7.5,3.357-7.5,7.5
	S208.113,334.006,212.255,334.006z"/>
<path d="M255.907,307.005c0,4.143,3.358,7.5,7.5,7.5h101c4.142,0,7.5-3.357,7.5-7.5s-3.358-7.5-7.5-7.5h-101
	C259.265,299.505,255.907,302.862,255.907,307.005z"/>
<path d="M371.907,326.506c0-4.143-3.358-7.5-7.5-7.5h-101c-4.142,0-7.5,3.357-7.5,7.5s3.358,7.5,7.5,7.5h101
	C368.549,334.006,371.907,330.648,371.907,326.506z"/>
<path d="M162.428,223.848c-14.144,3.511-24.022,16.141-24.022,30.714v23.653c0,4.143,3.358,7.5,7.5,7.5H274.74
	c4.142,0,7.5-3.357,7.5-7.5v-23.653c0-14.573-9.878-27.203-24.021-30.714l-26.979-6.697v-9.704
	c9.924-6.797,16.48-18.211,16.48-31.007v-11.697c1.151-0.483,2.305-0.984,3.467-1.522c2.652-1.228,4.35-3.884,4.35-6.807
	c0-12.108-4.718-23.503-13.29-32.089c-8.57-8.57-19.966-13.29-32.088-13.29c-25.009,0-45.366,20.351-45.378,45.379
	c0,2.907,1.66,5.429,4.082,6.673c0.538,0.291,1.818,0.956,3.739,1.801v10.961c0,10.225,4.208,20.215,11.545,27.41
	c1.642,1.61,3.403,3.043,5.254,4.306v9.586L162.428,223.848z M267.24,254.562v16.153h-5.561v-5.142c0-4.143-3.358-7.5-7.5-7.5
	s-7.5,3.357-7.5,7.5v5.142h-72.713v-5.142c0-4.143-3.358-7.5-7.5-7.5s-7.5,3.357-7.5,7.5v5.142h-5.561v-16.153
	c0-7.665,5.196-14.309,12.635-16.155l32.437-8.052h23.69l32.437,8.052C262.044,240.253,267.24,246.896,267.24,254.562z
	 M210.158,126.036c8.115,0,15.745,3.16,21.478,8.893c4.595,4.603,7.538,10.412,8.528,16.705c-3.033,1.199-6.008,2.171-8.92,2.968
	v-3.408c0-4.143-3.358-7.5-7.5-7.5s-7.5,3.357-7.5,7.5v6.053c-14.223,1.144-25.844-1.717-32.895-4.209
	c-0.442-0.213-0.907-0.383-1.392-0.507c-0.659-0.248-1.269-0.49-1.827-0.719C182.357,137.237,194.978,126.036,210.158,126.036z
	 M187.6,169.867c6.249,1.491,13.803,2.629,22.309,2.629c7.021,0,14.694-0.784,22.812-2.776v6.721
	c0,12.203-9.92,22.319-22.117,22.551c-5.912,0.113-11.6-2.171-15.955-6.441c-4.479-4.392-7.048-10.479-7.048-16.7v-5.984H187.6z
	 M210.16,213.996c0.243,0,0.488-0.003,0.732-0.007c1.816-0.035,3.601-0.206,5.348-0.495v1.86H204.4v-1.816
	C206.291,213.837,208.215,213.996,210.16,213.996z"/>
<g>
</g>
<g>
</g>
<g>
</g>
<g>
</g>
<g>
</g>
<g>
</g>
<g>
</g>
<g>
</g>
<g>
</g>
<g>
</g>
<g>
</g>
<g>
</g>
<g>
</g>
<g>
</g>
<g>
</g>
</svg>
