<?xml version="1.0" encoding="iso-8859-1"?>
<!-- Generator: Adobe Illustrator 19.0.0, SVG Export Plug-In . SVG Version: 6.00 Build 0)  -->
<svg version="1.1" id="Capa_1" xmlns="http://www.w3.org/2000/svg" xmlns:xlink="http://www.w3.org/1999/xlink" x="0px" y="0px"
	 viewBox="0 0 512 512" style="enable-background:new 0 0 512 512;" xml:space="preserve">
<rect x="119.89" y="48.36" style="fill:#E5E5DA;" width="369.17" height="284.24"/>
<g>
	<path style="fill:#D1D0BF;" d="M251.062,271.739c0,19.312-13.115,35.855-31.892,40.251c-0.659,0.165-1.338,0.299-2.018,0.422
		c-2.646,7.288-6.341,14.072-10.902,20.187h-86.36V144.026h107.515c4.004,0,7.34,3.057,7.69,7.041l1.009,11.252
		c0.144,1.678,2.903,34.939-7.577,72.586C242.137,241.823,251.062,255.885,251.062,271.739z"/>
	<rect x="119.89" y="48.36" style="fill:#D1D0BF;" width="369.17" height="31.913"/>
	<rect x="119.89" y="301.89" style="fill:#D1D0BF;" width="369.17" height="30.708"/>
</g>
<g>
	<rect x="104.45" y="29.83" style="fill:#F2F2F0;" width="400.05" height="30.883"/>
	<rect x="104.45" y="320.25" style="fill:#F2F2F0;" width="400.05" height="30.883"/>
	<path style="fill:#F2F2F0;" d="M169.683,365.837h-53.636L46.015,383.22C23.388,388.836,7.5,409.15,7.5,432.463v49.706h270.73
		v-49.706c0-23.314-15.888-43.627-38.515-49.243L169.683,365.837z"/>
</g>
<g>
	<path style="fill:#E5E5DA;" d="M42.483,384.239c-12.979,11.84-21.158,31.494-21.158,48.223v49.708H7.502v-49.708
		C7.502,410.382,21.748,390.991,42.483,384.239z"/>
	<path style="fill:#E5E5DA;" d="M243.248,384.239c12.979,11.84,21.158,31.494,21.158,48.223v49.708h13.824v-49.708
		C278.23,410.382,263.984,390.991,243.248,384.239z"/>
</g>
<g>
	<polygon style="fill:#00C3FF;" points="160.683,482.169 125.051,482.169 134.116,421.778 151.618,421.778 	"/>
	<polygon style="fill:#00C3FF;" points="131.685,421.778 120.506,402.414 131.685,383.051 154.044,383.051 165.224,402.414 
		154.044,421.778 	"/>
</g>
<g>
	<rect x="114.66" y="322.28" style="fill:#F7C9A4;" width="56.4" height="52.25"/>
	<path style="fill:#F7C9A4;" d="M230.983,271.742c0,10.07-6.995,18.507-16.385,20.706c-1.571,0.378-3.203,0.574-4.887,0.574
		c-11.754,0-21.28-9.526-21.28-21.28c0-11.747,9.526-21.272,21.28-21.272c1.753,0,3.452,0.212,5.076,0.612
		C224.086,253.355,230.983,261.748,230.983,271.742z"/>
	<path style="fill:#F7C9A4;" d="M97.306,271.742c0,11.754-9.526,21.28-21.28,21.28c-1.685,0-3.324-0.196-4.895-0.574
		c-9.397-2.206-16.385-10.636-16.385-20.706c0-9.994,6.897-18.379,16.196-20.653c1.624-0.408,3.331-0.619,5.084-0.619
		C87.781,250.47,97.306,259.995,97.306,271.742z"/>
</g>
<path style="fill:#FFD9B6;" d="M201.786,210.932v74.611c0,32.543-26.379,58.922-58.922,58.922s-58.922-26.379-58.922-58.922v-74.611
	H201.786z"/>
<path style="fill:#694B4B;" d="M83.979,250.467c0,0-17.972-60.684,13.278-71.763c0,0,3.937-14.604,19.931-14.604s98.915,0,98.915,0
	s3.937,44.317-14.271,86.368l-13.533-2.266v-16.115c0,0-34.448-6.547-89.811-6.547v22.662L83.979,250.467z"/>
<g>
	<polygon style="fill:#E5E5DA;" points="102.325,350.013 142.865,374.438 126.498,407.928 93.008,373.431 	"/>
	<polygon style="fill:#E5E5DA;" points="183.405,350.013 142.865,374.438 159.232,407.928 192.722,373.431 	"/>
</g>
<rect x="399.5" y="102.28" style="fill:#00C3FF;" width="35.754" height="148.19"/>
<g>
	<rect x="333.96" y="129" style="fill:#FF5F5F;" width="35.754" height="121.47"/>
	<rect x="268.72" y="144.03" style="fill:#FF5F5F;" width="35.754" height="106.44"/>
</g>
<path d="M489.06,165.6c4.143,0,7.5-3.358,7.5-7.5V68.214h7.94c4.143,0,7.5-3.358,7.5-7.5V29.83c0-4.142-3.357-7.5-7.5-7.5H388
	c-4.143,0-7.5,3.358-7.5,7.5s3.357,7.5,7.5,7.5h109v15.883H111.949V37.33h239.884c4.143,0,7.5-3.358,7.5-7.5s-3.357-7.5-7.5-7.5
	H104.449c-4.143,0-7.5,3.358-7.5,7.5v30.883c0,4.142,3.357,7.5,7.5,7.5h7.94v88.76c-11.463,1.784-18.073,9.776-20.992,16.056
	c-25.544,12.306-20.779,51.597-16.949,69.989c-1.813,0.098-3.593,0.36-5.286,0.786C56.261,246.952,47.25,258.44,47.25,271.74
	c0,13.424,9.114,24.943,22.116,28c2.14,0.518,4.382,0.78,6.664,0.78c0.713,0,1.42-0.034,2.125-0.086
	c3.953,17.18,14.581,31.828,29.005,41.065v2.671l-0.965-0.581c-1.888-1.137-4.178-1.386-6.265-0.683
	c-2.087,0.703-3.76,2.288-4.574,4.334L88.291,365l-21.757,5.401c-4.021,0.998-6.471,5.066-5.473,9.086
	c0.848,3.414,3.908,5.695,7.273,5.695c0.598,0,1.206-0.072,1.813-0.223l19.018-4.721l24.528,25.265c0.1,0.221,0.2,0.443,0.323,0.656
	l11.181,19.37c0.188,0.326,0.404,0.63,0.635,0.92l-7.238,48.221H58.205v-19.065c0-4.142-3.357-7.5-7.5-7.5s-7.5,3.358-7.5,7.5
	v19.065H15v-42.21c0-17.174,10.154-32.718,25.869-39.6c3.794-1.662,5.522-6.084,3.861-9.878c-1.661-3.795-6.085-5.524-9.879-3.862
	C13.681,388.391,0,409.328,0,432.46v49.71c0,4.142,3.357,7.5,7.5,7.5h270.73c4.143,0,7.5-3.358,7.5-7.5v-49.71
	c0-26.813-18.181-50.054-44.214-56.519L197.439,365l-2.534-6.37h102.07v123.54c0,4.142,3.357,7.5,7.5,7.5s7.5-3.358,7.5-7.5V358.63
	H504.5c4.143,0,7.5-3.358,7.5-7.5v-30.88c0-4.142-3.357-7.5-7.5-7.5h-7.94V191.19c0-4.142-3.357-7.5-7.5-7.5s-7.5,3.358-7.5,7.5
	v121.56H203.437c1.768-3.92,3.164-8.038,4.149-12.316c0.704,0.051,1.412,0.086,2.125,0.086c2.276,0,4.515-0.263,6.601-0.768
	c13.054-3.058,22.17-14.578,22.17-28.012c0-4.954-1.254-9.657-3.492-13.773h222.501c4.143,0,7.5-3.358,7.5-7.5s-3.357-7.5-7.5-7.5
	h-14.738V102.284c0-4.142-3.357-7.5-7.5-7.5h-35.754c-4.143,0-7.5,3.358-7.5,7.5v140.683H377.21V129c0-4.142-3.357-7.5-7.5-7.5
	h-35.754c-4.143,0-7.5,3.358-7.5,7.5v113.967h-14.481v-98.941c0-4.142-3.357-7.5-7.5-7.5h-35.754c-4.143,0-7.5,3.358-7.5,7.5v98.941
	h-48.397c14.061-39.769,10.905-77.797,10.751-79.531c-0.344-3.87-3.586-6.836-7.471-6.836H127.39V68.214h354.17V158.1
	C481.56,162.242,484.917,165.6,489.06,165.6z M72.847,285.149c-6.239-1.467-10.597-6.981-10.597-13.409
	c0-6.364,4.305-11.86,10.519-13.376c1.039-0.261,2.136-0.394,3.262-0.394c0.141,0,0.28,0.016,0.42,0.02v27.515
	C75.233,285.543,74.015,285.432,72.847,285.149z M91.45,285.54v-28.649l8.194-1.28c3.651-0.57,6.343-3.715,6.343-7.41V233.08
	c36.839,0.405,63.455,3.699,74.812,5.386v9.735c0,3.664,2.647,6.792,6.262,7.397l7.229,1.211v28.731
	c0,28.353-23.066,51.42-51.42,51.42S91.45,313.893,91.45,285.54z M122.16,348.636c6.522,2.146,13.479,3.324,20.71,3.324
	c7.227,0,14.181-1.176,20.7-3.32v4.568l-20.705,12.475l-20.705-12.475L122.16,348.636L122.16,348.636z M151.973,474.669h-18.212
	l6.813-45.39h4.587L151.973,474.669z M142.865,391.519l9.161,18.746l-2.318,4.015H136.02l-2.318-4.015L142.865,391.519z
	 M161.285,395.046l-8.665-17.729l27.084-16.318l4.254,10.692L161.285,395.046z M106.026,360.999l27.084,16.318l-8.665,17.729
	l-22.674-23.355L106.026,360.999z M270.73,432.46v42.21h-28.206v-19.065c0-4.142-3.357-7.5-7.5-7.5s-7.5,3.358-7.5,7.5v19.065
	h-60.383l-7.238-48.223c0.23-0.289,0.445-0.592,0.633-0.918l11.18-19.37c0.123-0.213,0.222-0.434,0.322-0.655l24.528-25.266
	l41.337,10.261C257.231,395.299,270.73,412.553,270.73,432.46z M497,327.75v15.88H187.335c-0.479-0.295-0.992-0.541-1.536-0.724
	c-2.086-0.703-4.379-0.454-6.265,0.683l-0.965,0.581v-2.665c5.87-3.758,11.124-8.398,15.545-13.756H497V327.75z M212.835,285.16
	c-0.984,0.238-2.036,0.359-3.125,0.359c-0.141,0-0.28-0.016-0.42-0.02v-27.51c1.251-0.039,2.507,0.078,3.714,0.374
	c6.169,1.512,10.477,7.013,10.477,13.376C223.48,278.173,219.125,283.687,212.835,285.16z M406.997,109.784h20.754v133.183h-20.754
	V109.784z M341.456,136.5h20.754v106.467h-20.754V136.5z M276.221,151.526h20.754v91.441h-20.754V151.526z M197.16,242.08
	l-1.361-0.228v-9.767c0-3.602-2.561-6.696-6.1-7.368c-1.435-0.272-35.779-6.679-91.212-6.679c-4.143,0-7.5,3.358-7.5,7.5v16.243
	l-1.374,0.215c-3.208-14.539-8.757-49.521,10.149-56.224c2.323-0.824,4.094-2.736,4.735-5.117c0.1-0.37,2.559-9.057,12.689-9.057
	h91.738C209.16,184.43,208.222,213.407,197.16,242.08z"/>
<path d="M156.69,132.618h62.654c4.143,0,7.5-3.358,7.5-7.5c0-4.142-3.357-7.5-7.5-7.5H156.69c-4.143,0-7.5,3.358-7.5,7.5
	C149.19,129.26,152.548,132.618,156.69,132.618z"/>
<path d="M283.939,270.145c-4.143,0-7.5,3.358-7.5,7.5s3.357,7.5,7.5,7.5h3.18c4.143,0,7.5-3.358,7.5-7.5s-3.357-7.5-7.5-7.5H283.939
	z"/>
<path d="M350.242,270.145c-4.143,0-7.5,3.358-7.5,7.5s3.357,7.5,7.5,7.5h3.181c4.143,0,7.5-3.358,7.5-7.5s-3.357-7.5-7.5-7.5
	H350.242z"/>
<path d="M416.546,270.145c-4.143,0-7.5,3.358-7.5,7.5s3.357,7.5,7.5,7.5h3.181c4.143,0,7.5-3.358,7.5-7.5s-3.357-7.5-7.5-7.5
	H416.546z"/>
<path d="M115.753,281.97c-4.142,0-7.5-3.358-7.5-7.5v-5.223c0-4.142,3.358-7.5,7.5-7.5s7.5,3.358,7.5,7.5v5.223
	C123.253,278.612,119.896,281.97,115.753,281.97z"/>
<path d="M170.545,281.97c-4.142,0-7.5-3.358-7.5-7.5v-5.223c0-4.142,3.358-7.5,7.5-7.5s7.5,3.358,7.5,7.5v5.223
	C178.045,278.612,174.688,281.97,170.545,281.97z"/>
<g>
</g>
<g>
</g>
<g>
</g>
<g>
</g>
<g>
</g>
<g>
</g>
<g>
</g>
<g>
</g>
<g>
</g>
<g>
</g>
<g>
</g>
<g>
</g>
<g>
</g>
<g>
</g>
<g>
</g>
</svg>
