<?xml version="1.0" encoding="iso-8859-1"?>
<!-- Generator: Adobe Illustrator 19.0.0, SVG Export Plug-In . SVG Version: 6.00 Build 0)  -->
<svg version="1.1" id="Capa_1" xmlns="http://www.w3.org/2000/svg" xmlns:xlink="http://www.w3.org/1999/xlink" x="0px" y="0px"
	 viewBox="0 0 512 512" style="enable-background:new 0 0 512 512;" xml:space="preserve">
<rect x="175.57" y="184.35" style="fill:#FFF082;" width="160.86" height="269.84"/>
<g>
	<rect x="175.57" y="425.38" style="fill:#FFDC64;" width="160.86" height="28.817"/>
	<path style="fill:#FFDC64;" d="M336.43,184.352h-11.188H186.759h-11.188V220.6h12.301c8.702,29.405,35.9,50.864,68.128,50.864
		s59.427-21.459,68.128-50.864h12.301v-36.248H336.43z"/>
</g>
<polygon style="fill:#FFF082;" points="409.126,202.387 102.875,202.387 71.94,112.97 440.06,112.97 "/>
<polygon style="fill:#FFDC64;" points="384.523,202.387 409.126,202.387 440.06,112.966 415.457,112.966 "/>
<circle style="fill:#00C3FF;" cx="256" cy="200.41" r="52.42"/>
<g>
	<rect x="139.63" y="444.71" style="fill:#FFF082;" width="232.73" height="32.585"/>
	<rect x="110.13" y="471.92" style="fill:#FFF082;" width="291.74" height="32.585"/>
</g>
<path style="fill:#E5E5DA;" d="M316.643,57.337l-25.54-25.54c-5.558-5.558-5.558-14.57,0-20.128l0,0
	c5.558-5.558,14.57-5.558,20.128,0l25.54,25.54c5.558,5.558,5.558,14.57,0,20.128l0,0C331.213,62.895,322.201,62.895,316.643,57.337
	z"/>
<path d="M446.169,108.619c-1.407-1.976-3.684-3.149-6.109-3.149h-81.351V73.82c0-1.989-0.79-3.896-2.196-5.303L345.737,57.74
	c4.535-8.254,3.325-18.848-3.661-25.835l-25.542-25.54C312.43,2.26,306.972,0,301.167,0S289.904,2.261,285.8,6.365
	c-8.474,8.474-8.474,22.261,0,30.735l25.54,25.54c4.104,4.105,9.563,6.365,15.367,6.365c2.665,0,5.249-0.498,7.67-1.41l9.332,9.332
	v28.543H71.94c-2.426,0-4.702,1.173-6.109,3.149c-1.407,1.976-1.772,4.51-0.979,6.803l30.93,89.42
	c1.045,3.021,3.891,5.048,7.088,5.048h65.2V320.6c0,4.142,3.358,7.5,7.5,7.5s7.5-3.358,7.5-7.5v-67.405h4.267V437.21h-4.267v-83.57
	c0-4.142-3.358-7.5-7.5-7.5s-7.5,3.358-7.5,7.5v83.57h-28.44c-4.142,0-7.5,3.358-7.5,7.5v19.705h-22.001c-4.142,0-7.5,3.358-7.5,7.5
	V504.5c0,4.142,3.358,7.5,7.5,7.5h202.538c4.143,0,7.5-3.358,7.5-7.5s-3.357-7.5-7.5-7.5H117.629v-17.585h276.742V497H346.94
	c-4.143,0-7.5,3.358-7.5,7.5s3.357,7.5,7.5,7.5h54.932c4.143,0,7.5-3.358,7.5-7.5v-32.585c0-4.142-3.357-7.5-7.5-7.5H379.87V444.71
	c0-4.142-3.357-7.5-7.5-7.5h-28.44V209.89h65.2c3.197,0,6.043-2.027,7.088-5.048l30.93-89.42
	C447.941,113.129,447.576,110.595,446.169,108.619z M321.947,52.034l-25.54-25.54c-1.272-1.272-1.973-2.963-1.973-4.761
	s0.7-3.489,1.973-4.761c1.271-1.271,2.962-1.972,4.76-1.972c1.799,0,3.489,0.7,4.761,1.972l25.54,25.54
	c2.625,2.625,2.625,6.897,0.001,9.522c-1.272,1.272-2.963,1.972-4.762,1.972C324.909,54.005,323.219,53.305,321.947,52.034z
	 M364.87,464.415H147.13V452.21h217.74V464.415z M324.663,437.21V253.195h4.267V437.21H324.663z M328.93,238.195h-11.767
	c-4.143,0-7.5,3.358-7.5,7.5V437.21H202.337V245.695c0-4.142-3.358-7.5-7.5-7.5H183.07V209.89h13.763
	c4.56,28.551,29.352,50.441,59.167,50.441c29.816,0,54.607-21.89,59.167-50.441h13.763V238.195z M256,245.332
	c-24.771,0-44.925-20.153-44.925-44.925s20.153-44.924,44.925-44.924s44.925,20.153,44.925,44.924S280.772,245.332,256,245.332z
	 M403.788,194.89h-88.127c-2.795-30.465-28.479-54.408-59.661-54.408s-56.866,23.943-59.661,54.408h-88.127l-19.78-57.184h209.235
	c4.143,0,7.5-3.358,7.5-7.5s-3.357-7.5-7.5-7.5H83.244l-0.774-2.236h347.059l-0.773,2.236h-97.96c-4.143,0-7.5,3.358-7.5,7.5
	s3.357,7.5,7.5,7.5h92.771L403.788,194.89z"/>
<path d="M225.066,290.836c-4.142,0-7.5,3.358-7.5,7.5v101.67c0,4.142,3.358,7.5,7.5,7.5s7.5-3.358,7.5-7.5v-101.67
	C232.566,294.194,229.208,290.836,225.066,290.836z"/>
<path d="M286.935,290.836c-4.143,0-7.5,3.358-7.5,7.5v101.67c0,4.142,3.357,7.5,7.5,7.5s7.5-3.358,7.5-7.5v-101.67
	C294.435,294.194,291.077,290.836,286.935,290.836z"/>
<path d="M256.172,278.414c-4.142,0-7.5,3.358-7.5,7.5v135.459c0,4.142,3.358,7.5,7.5,7.5c4.143,0,7.5-3.358,7.5-7.5V285.914
	C263.672,281.771,260.315,278.414,256.172,278.414z"/>
<path d="M263.672,188.743v-14.025c0-4.142-3.357-7.5-7.5-7.5h-9.796c-4.142,0-7.5,3.358-7.5,7.5s3.358,7.5,7.5,7.5h2.296v6.525
	h-18.064c-4.142,0-7.5,3.358-7.5,7.5s3.358,7.5,7.5,7.5h18.064v26.313c0,4.142,3.358,7.5,7.5,7.5c4.143,0,7.5-3.358,7.5-7.5v-26.313
	h18.837c4.143,0,7.5-3.358,7.5-7.5s-3.357-7.5-7.5-7.5H263.672z"/>
<path d="M275.248,208.636h-0.688c-4.143,0-7.5,3.358-7.5,7.5s3.357,7.5,7.5,7.5h0.688c4.143,0,7.5-3.358,7.5-7.5
	S279.391,208.636,275.248,208.636z"/>
<path d="M236.924,208.636h-0.688c-4.142,0-7.5,3.358-7.5,7.5s3.358,7.5,7.5,7.5h0.688c4.142,0,7.5-3.358,7.5-7.5
	S241.066,208.636,236.924,208.636z"/>
<g>
</g>
<g>
</g>
<g>
</g>
<g>
</g>
<g>
</g>
<g>
</g>
<g>
</g>
<g>
</g>
<g>
</g>
<g>
</g>
<g>
</g>
<g>
</g>
<g>
</g>
<g>
</g>
<g>
</g>
</svg>
