<?xml version="1.0" encoding="iso-8859-1"?>
<!-- Generator: Adobe Illustrator 19.0.0, SVG Export Plug-In . SVG Version: 6.00 Build 0)  -->
<svg version="1.1" id="Capa_1" xmlns="http://www.w3.org/2000/svg" xmlns:xlink="http://www.w3.org/1999/xlink" x="0px" y="0px"
	 viewBox="0 0 512.001 512.001" style="enable-background:new 0 0 512.001 512.001;" xml:space="preserve">
<path style="fill:#E5E5DA;" d="M173.167,36.249v439.502c0,12.647-10.25,22.897-22.897,22.897H30.397
	c-12.647,0-22.897-10.25-22.897-22.897V36.249c0-12.647,10.25-22.897,22.897-22.897H150.27
	C162.917,13.352,173.167,23.602,173.167,36.249z"/>
<path style="fill:#D1D0BF;" d="M126.026,498.648h24.244c12.647,0,22.897-10.25,22.897-22.897V36.249
	c0-12.647-10.25-22.897-22.897-22.897h-24.244c12.647,0,22.897,10.25,22.897,22.897v439.502
	C148.923,488.398,138.673,498.648,126.026,498.648z"/>
<g>
	<path style="fill:#C6EF84;" d="M173.167,462.282v13.469c0,12.647-10.25,22.897-22.897,22.897H30.397
		c-12.647,0-22.897-10.25-22.897-22.897v-13.469H173.167z"/>
	<rect x="51.947" y="13.354" style="fill:#C6EF84;" width="76.77" height="252.28"/>
</g>
<rect x="51.947" y="245.001" style="fill:#A0D755;" width="76.77" height="20.637"/>
<path style="fill:#E5E5DA;" d="M338.833,36.249v439.502c0,12.647-10.25,22.897-22.897,22.897H196.064
	c-12.647,0-22.897-10.25-22.897-22.897V36.249c0-12.647,10.25-22.897,22.897-22.897h119.873
	C328.584,13.352,338.833,23.602,338.833,36.249z"/>
<path style="fill:#D1D0BF;" d="M291.692,498.648h24.244c12.647,0,22.897-10.25,22.897-22.897V36.249
	c0-12.647-10.25-22.897-22.897-22.897h-24.244c12.647,0,22.897,10.25,22.897,22.897v439.502
	C314.589,488.398,304.34,498.648,291.692,498.648z"/>
<g>
	<path style="fill:#00C3FF;" d="M338.833,462.282v13.469c0,12.647-10.25,22.897-22.897,22.897H196.064
		c-12.647,0-22.897-10.25-22.897-22.897v-13.469H338.833z"/>
	<rect x="217.61" y="13.354" style="fill:#00C3FF;" width="76.77" height="196.61"/>
</g>
<rect x="217.61" y="190.671" style="fill:#00AAF0;" width="76.77" height="19.299"/>
<path style="fill:#E5E5DA;" d="M504.5,36.249v439.502c0,12.647-10.25,22.897-22.897,22.897H361.73
	c-12.647,0-22.897-10.25-22.897-22.897V36.249c0-12.647,10.25-22.897,22.897-22.897h119.873
	C494.25,13.352,504.5,23.602,504.5,36.249z"/>
<path style="fill:#D1D0BF;" d="M457.359,498.648h24.244c12.647,0,22.897-10.25,22.897-22.897V36.249
	c0-12.647-10.25-22.897-22.897-22.897h-24.244c12.647,0,22.897,10.25,22.897,22.897v439.502
	C480.256,488.398,470.006,498.648,457.359,498.648z"/>
<path style="fill:#C6EF84;" d="M504.5,462.282v13.469c0,12.647-10.25,22.897-22.897,22.897H361.73
	c-12.647,0-22.897-10.25-22.897-22.897v-13.469H504.5z"/>
<path style="fill:#A0D755;" d="M148.691,475.384c0,13.029-10.559,23.588-23.588,23.588h24.976c13.029,0,23.588-10.559,23.588-23.588
	v-13.875h-24.976V475.384z"/>
<path style="fill:#00AAF0;" d="M314.358,475.384c0,13.029-10.559,23.588-23.588,23.588h24.976c13.029,0,23.588-10.559,23.588-23.588
	v-13.875h-24.976V475.384z"/>
<path style="fill:#A0D755;" d="M480.024,475.384c0,13.029-10.559,23.588-23.588,23.588h24.976c13.029,0,23.588-10.559,23.588-23.588
	v-13.875h-24.976V475.384z"/>
<rect x="383.28" y="13.354" style="fill:#C6EF84;" width="76.77" height="252.28"/>
<rect x="383.28" y="245.001" style="fill:#A0D755;" width="76.77" height="20.637"/>
<path d="M51.105,325.445h14.714c4.142,0,7.5-3.358,7.5-7.5s-3.358-7.5-7.5-7.5H51.105c-4.142,0-7.5,3.358-7.5,7.5
	S46.963,325.445,51.105,325.445z"/>
<path d="M129.562,325.445c4.142,0,7.5-3.358,7.5-7.5s-3.358-7.5-7.5-7.5H95.114c-4.142,0-7.5,3.358-7.5,7.5s3.358,7.5,7.5,7.5
	H129.562z"/>
<path d="M51.105,357.317h78.456c4.142,0,7.5-3.358,7.5-7.5s-3.358-7.5-7.5-7.5H51.105c-4.142,0-7.5,3.358-7.5,7.5
	S46.963,357.317,51.105,357.317z"/>
<path d="M51.105,392.336h78.456c4.142,0,7.5-3.358,7.5-7.5s-3.358-7.5-7.5-7.5H51.105c-4.142,0-7.5,3.358-7.5,7.5
	S46.963,392.336,51.105,392.336z"/>
<path d="M216.772,263.501h14.714c4.142,0,7.5-3.358,7.5-7.5c0-4.142-3.358-7.5-7.5-7.5h-14.714c-4.142,0-7.5,3.358-7.5,7.5
	C209.272,260.143,212.63,263.501,216.772,263.501z"/>
<path d="M260.781,263.501h34.447c4.142,0,7.5-3.358,7.5-7.5c0-4.142-3.358-7.5-7.5-7.5h-34.447c-4.142,0-7.5,3.358-7.5,7.5
	C253.281,260.143,256.639,263.501,260.781,263.501z"/>
<path d="M216.772,392.633h78.456c4.142,0,7.5-3.358,7.5-7.5s-3.358-7.5-7.5-7.5h-78.456c-4.142,0-7.5,3.358-7.5,7.5
	S212.63,392.633,216.772,392.633z"/>
<path d="M481.603,5.854H361.73c-9.127,0-17.32,4.049-22.897,10.438c-5.577-6.389-13.77-10.438-22.897-10.438H196.063
	c-9.127,0-17.32,4.049-22.897,10.438c-5.577-6.389-13.77-10.438-22.897-10.438H30.397C13.636,5.854,0,19.491,0,36.251v352.614
	c0,4.142,3.358,7.5,7.5,7.5s7.5-3.358,7.5-7.5V36.251c0-8.49,6.907-15.397,15.397-15.397h14.05v244.782c0,4.142,3.358,7.5,7.5,7.5
	h76.772c4.142,0,7.5-3.358,7.5-7.5V20.854h14.05c8.49,0,15.397,6.907,15.397,15.397v418.53H15v-32.449c0-4.142-3.358-7.5-7.5-7.5
	s-7.5,3.358-7.5,7.5v53.418c0,16.761,13.636,30.397,30.397,30.397H150.27c9.127,0,17.32-4.049,22.897-10.438
	c5.577,6.389,13.77,10.438,22.897,10.438h119.873c9.127,0,17.32-4.049,22.897-10.438c5.577,6.389,13.77,10.438,22.897,10.438
	h119.873c16.761,0,30.397-13.636,30.397-30.397V36.251C512,19.491,498.364,5.854,481.603,5.854z M59.447,20.854h23.386v237.282
	H59.447V20.854z M121.22,258.136H97.833V20.854h23.386L121.22,258.136L121.22,258.136z M452.553,20.854v237.282h-23.386V20.854
	H452.553z M225.114,202.466V20.854H248.5v181.611h-23.386V202.466z M263.5,20.854h23.386v181.611H263.5V20.854z M196.063,20.854
	h14.05v189.111c0,4.142,3.358,7.5,7.5,7.5h76.772c4.142,0,7.5-3.358,7.5-7.5V20.854h14.05c8.49,0,15.397,6.907,15.397,15.397v418.53
	H180.667V36.251C180.667,27.761,187.574,20.854,196.063,20.854z M150.27,491.148H30.397c-8.49,0-15.397-6.907-15.397-15.397v-5.969
	h150.667v5.969C165.667,484.241,158.759,491.148,150.27,491.148z M315.937,491.148H196.063c-8.49,0-15.397-6.907-15.397-15.397
	v-5.969h150.667v5.969C331.333,484.241,324.426,491.148,315.937,491.148z M481.603,491.148H361.73
	c-8.49,0-15.397-6.907-15.397-15.397v-5.969h82c4.142,0,7.5-3.358,7.5-7.5s-3.358-7.5-7.5-7.5h-82V36.251
	c0-8.49,6.907-15.397,15.397-15.397h14.05v98.433c0,4.142,3.358,7.5,7.5,7.5s7.5-3.358,7.5-7.5V20.854h23.386v237.282H390.78V152
	c0-4.142-3.358-7.5-7.5-7.5s-7.5,3.358-7.5,7.5v113.637c0,4.142,3.358,7.5,7.5,7.5h76.772c4.142,0,7.5-3.358,7.5-7.5V20.854h14.05
	c8.49,0,15.397,6.907,15.397,15.397v418.53h-33.105c-4.142,0-7.5,3.358-7.5,7.5s3.358,7.5,7.5,7.5H497v5.969
	C497,484.241,490.093,491.148,481.603,491.148z"/>
<path d="M382.438,325.445h14.714c4.142,0,7.5-3.358,7.5-7.5s-3.358-7.5-7.5-7.5h-14.714c-4.142,0-7.5,3.358-7.5,7.5
	S378.296,325.445,382.438,325.445z"/>
<path d="M426.447,325.445h34.447c4.142,0,7.5-3.358,7.5-7.5s-3.358-7.5-7.5-7.5h-34.447c-4.142,0-7.5,3.358-7.5,7.5
	S422.305,325.445,426.447,325.445z"/>
<path d="M382.438,357.317h78.456c4.142,0,7.5-3.358,7.5-7.5s-3.358-7.5-7.5-7.5h-78.456c-4.142,0-7.5,3.358-7.5,7.5
	S378.296,357.317,382.438,357.317z"/>
<path d="M468.395,384.836c0-4.142-3.358-7.5-7.5-7.5h-78.456c-4.142,0-7.5,3.358-7.5,7.5s3.358,7.5,7.5,7.5h78.456
	C465.037,392.336,468.395,388.978,468.395,384.836z"/>
<path d="M257.012,279.687c-21.986,0-39.873,17.887-39.873,39.873c0,10.007,3.714,19.158,9.826,26.167
	c0.198,0.257,0.407,0.508,0.642,0.743c0.026,0.026,0.055,0.048,0.082,0.074c7.292,7.917,17.736,12.889,29.323,12.889
	c21.986,0,39.873-17.887,39.873-39.873S278.998,279.687,257.012,279.687z M257.012,294.687c3.467,0,6.769,0.715,9.77,2.002
	l-32.641,32.641c-1.287-3.001-2.002-6.303-2.002-9.77C232.139,305.845,243.297,294.687,257.012,294.687z M257.012,344.432
	c-4.784,0-9.254-1.361-13.051-3.711l34.213-34.213c2.35,3.797,3.711,8.267,3.711,13.051
	C281.885,333.275,270.727,344.432,257.012,344.432z"/>
<g>
</g>
<g>
</g>
<g>
</g>
<g>
</g>
<g>
</g>
<g>
</g>
<g>
</g>
<g>
</g>
<g>
</g>
<g>
</g>
<g>
</g>
<g>
</g>
<g>
</g>
<g>
</g>
<g>
</g>
</svg>
