<?xml version="1.0" encoding="iso-8859-1"?>
<!-- Generator: Adobe Illustrator 19.0.0, SVG Export Plug-In . SVG Version: 6.00 Build 0)  -->
<svg version="1.1" id="Capa_1" xmlns="http://www.w3.org/2000/svg" xmlns:xlink="http://www.w3.org/1999/xlink" x="0px" y="0px"
	 viewBox="0 0 512.001 512.001" style="enable-background:new 0 0 512.001 512.001;" xml:space="preserve">
<path style="fill:#5B4040;" d="M178.729,170.357c0,0-114.293,115.029-53.015,140.199c61.277,25.171,317.402,54.776,274.026-46.434
	s-49.572-93.637-49.572-93.637L178.729,170.357z"/>
<path style="fill:#FF5F5F;" d="M392.375,439.786v64.713H107.332v-64.713c0-48.033,27.533-89.644,67.688-109.886
	c16.627-8.407,35.423-13.126,55.325-13.126h39.018c21.667,0,42.023,5.597,59.704,15.45
	C366.824,353.209,392.375,393.518,392.375,439.786z"/>
<g>
	<path style="fill:#F44D4D;" d="M392.375,439.786v64.713h-17.898v-64.713c0-37.045-16.379-79.533-42.291-105.765
		C368.228,355.461,392.375,394.809,392.375,439.786z"/>
	<path style="fill:#F44D4D;" d="M107.332,439.786v64.713h17.898v-64.713c0-37.045,16.379-79.533,42.291-105.765
		C131.479,355.461,107.332,394.809,107.332,439.786z"/>
</g>
<path style="fill:#F2F2F0;" d="M329.066,332.224c-9.636,85.399-48.281,146.311-68.576,172.275h-20.397
	c-43.52-50.781-62.161-140.962-65.075-174.599c16.627-8.407,35.423-13.126,55.325-13.126h39.018
	C291.03,316.774,311.385,322.371,329.066,332.224z"/>
<path style="fill:#F7C9A4;" d="M249.852,371.317L249.852,371.317c-21.324,0-38.61-17.286-38.61-38.61v-59.69h77.221v59.69
	C288.462,354.03,271.175,371.317,249.852,371.317z"/>
<path style="fill:#FFD9B6;" d="M392.05,191.468c0,16.249-11.288,29.866-26.44,33.413c-2.536,0.61-5.169,0.926-7.887,0.926
	c-18.968,0-34.339-15.372-34.339-34.34c0-18.956,15.372-34.327,34.339-34.327c2.828,0,5.571,0.341,8.192,0.987
	C380.92,161.798,392.05,175.341,392.05,191.468z"/>
<path style="fill:#F7C9A4;" d="M365.913,158.128v58.403c0,2.804-0.098,5.595-0.305,8.35c-2.536,0.61-5.169,0.926-7.887,0.926
	c-18.968,0-34.339-15.372-34.339-34.34c0-18.956,15.372-34.327,34.339-34.327C360.55,157.141,363.293,157.482,365.913,158.128z"/>
<path style="fill:#FFD9B6;" d="M176.332,191.468c0,18.968-15.372,34.34-34.339,34.34c-2.718,0-5.364-0.317-7.899-0.926
	c-15.164-3.559-26.44-17.164-26.44-33.413c0-16.127,11.13-29.658,26.136-33.328c2.621-0.658,5.376-1,8.204-1
	C160.96,157.141,176.332,172.513,176.332,191.468z"/>
<path style="fill:#F7C9A4;" d="M176.332,191.468c0,18.968-15.372,34.34-34.339,34.34c-2.718,0-5.364-0.317-7.899-0.926
	c-0.207-2.755-0.305-5.546-0.305-8.35v-58.391c2.621-0.658,5.376-1,8.204-1C160.96,157.141,176.332,172.513,176.332,191.468z"/>
<path style="fill:#FFD9B6;" d="M344.937,93.335v120.4c0,52.516-42.57,95.087-95.087,95.087s-95.087-42.57-95.087-95.087v-120.4
	H344.937z"/>
<path style="fill:#F7C9A4;" d="M344.937,93.335v79.234c-25.272-5.711-44.667-15.894-57.907-30.456
	c-3.832-4.213-6.837-8.458-9.192-12.569c-17.877,14.035-44.119,26.439-78.449,37.045c-16.565,5.112-32.284,8.975-44.625,11.67
	V93.335H344.937z"/>
<path style="fill:#694B4B;" d="M126.843,164.802c0,0,128.548-20.167,158.122-68.387c0,0-3.677,59.304,104.764,62.849
	c0,0,29.574-144.794-122.406-151.53S126.843,138.564,126.843,164.802z"/>
<path style="fill:#5B4040;" d="M389.729,159.267c-8.572-0.279-16.452-0.909-23.681-1.828c1.58-8.861,16.121-100.436-50.326-141.426
	C412.449,48.028,389.729,159.267,389.729,159.267z"/>
<path d="M406.761,305.842c7.253-12.515,7.209-27.544-0.13-44.669c-6.632-15.478-12.768-29.285-18.281-41.133
	c7.02-7.522,11.197-17.607,11.197-28.572c0-9.246-3.001-17.886-8.179-24.892c2.821-0.64,5.105-2.86,5.707-5.806
	c0.555-2.715,13.163-67.037-23.512-114.051c-22.4-28.715-58.031-44.351-105.906-46.474c-45.496-2.01-81.301,8.444-106.414,31.082
	c-3.077,2.773-3.323,7.516-0.549,10.592c2.773,3.077,7.517,3.322,10.592,0.549c22.084-19.907,54.292-29.069,95.707-27.238
	c43.242,1.917,75.098,15.589,94.68,40.635c26.235,33.554,23.654,79.107,21.646,95.61c-13.534-0.771-25.806-2.52-36.56-5.212
	c-1.821-0.456-3.632-0.951-5.432-1.481c-49.696-14.636-48.931-46.568-48.875-47.9c0.213-3.437-1.942-6.577-5.226-7.615
	c-3.283-1.037-6.852,0.294-8.653,3.229c-13.957,22.746-58.656,44.145-122.813,58.87l0,0c-0.879,0.202-16.79,3.629-21.556,4.525
	c-0.324-20.137,0.076-60.653,19.998-92.835c2.18-3.522,1.093-8.145-2.429-10.325c-3.523-2.181-8.146-1.093-10.325,2.429
	c-22.288,36.003-22.596,79.856-22.236,101.256c-11.856,7.654-19.057,20.673-19.057,35.053c0,15.762,8.636,29.703,21.916,36.826
	c-18.334,28.367-25.206,50.937-20.414,67.162c2.973,10.066,10.109,17.482,21.207,22.041c9.412,3.869,22.847,7.736,38.901,11.252
	c-11.237,6.948-21.454,15.615-30.227,25.772c-20.444,23.669-31.703,53.952-31.703,85.27v64.711c0,4.142,3.358,7.5,7.5,7.5h285.042
	c4.142,0,7.5-3.358,7.5-7.5v-16.5c0-4.142-3.358-7.5-7.5-7.5s-7.5,3.358-7.5,7.5v9h-37.621v-21.727c0-4.142-3.358-7.5-7.5-7.5
	s-7.5,3.358-7.5,7.5v21.727h-56.928c19.156-27.488,49.212-80.31,59.707-152.473c30.466,20.892,49.841,55.876,49.841,95.263v17.53
	c0,4.142,3.358,7.5,7.5,7.5s7.5-3.358,7.5-7.5v-17.53c0-31.316-11.26-61.598-31.707-85.27c-5.507-6.375-11.586-12.159-18.124-17.304
	C378.981,331.426,398.028,320.912,406.761,305.842C414.015,293.327,398.028,320.912,406.761,305.842z M352.436,213.737v-48.579
	c1.726-0.344,3.493-0.521,5.29-0.521c2.146,0,4.303,0.261,6.408,0.775c12.018,2.94,20.412,13.655,20.412,26.055
	c0,8.269-3.712,15.739-9.735,20.695c-0.268,0.194-0.521,0.404-0.757,0.628c-2.943,2.244-6.393,3.904-10.207,4.796
	c-1.983,0.479-4.042,0.721-6.121,0.721c-1.826,0-3.622-0.181-5.377-0.537C352.401,216.431,352.436,215.088,352.436,213.737z
	 M162.275,165.259c42.059-9.874,92.187-26.273,118.336-51.727c1.072,2.923,2.501,6.074,4.405,9.343
	c6.865,11.79,21.491,27.349,52.419,36.398v0.182c0,0.015,0,0.03,0,0.045v54.237c0,48.292-39.288,87.581-87.581,87.581
	s-87.581-39.288-87.581-87.581v-48.478H162.275z M257.352,378.199c21.872-3.592,38.615-22.619,38.615-45.491v-5.354
	c8.814,2.055,17.193,5.081,25.033,8.955c-10.217,80.189-45.863,136.291-63.648,159.95L257.352,378.199L257.352,378.199z
	 M280.966,332.708c0,17.15-13.951,31.104-31.1,31.11c-0.005,0-0.01-0.001-0.014-0.001c-0.004,0-0.008,0-0.011,0
	c-17.147-0.009-31.094-13.961-31.094-31.109v-21.217c9.817,3.131,20.268,4.828,31.11,4.828c10.842,0,21.293-1.696,31.11-4.828
	v21.217H280.966z M123.856,171.678c0.94,0.409,1.956,0.628,2.989,0.628c0.386,0,0.775-0.03,1.163-0.091
	c0.378-0.059,7.725-1.221,19.268-3.629v45.15c0,1.351,0.034,2.695,0.087,4.033c-1.752,0.356-3.545,0.537-5.367,0.537
	c-2.092,0-4.158-0.243-6.191-0.733c-12.158-2.845-20.649-13.581-20.649-26.107C115.154,183.767,118.368,176.669,123.856,171.678z
	 M116.041,291.205c-3.58-12.121,3.831-32.693,20.89-58.21c1.672,0.205,3.363,0.313,5.062,0.313c2.382,0,4.733-0.21,7.045-0.602
	c5.97,31.802,26.661,58.475,54.705,72.648v6.652c-6.802,1.411-13.454,3.365-19.9,5.826c-23.334-4.179-43.407-9.33-55.28-14.21
	C121.783,300.835,117.686,296.774,116.041,291.205z M114.834,439.789c0-41.151,21.149-77.495,53.998-97.983
	c1.307,9.576,3.708,23.745,8.067,41.598c0.836,3.427,3.903,5.723,7.28,5.723c0.588,0,1.188-0.07,1.785-0.216
	c4.024-0.982,6.49-5.041,5.507-9.065c-3.929-16.096-7-32.674-8.47-45.55c1.137-0.505,4.58-1.836,5.103-2.118
	c5.035-1.951,10.256-3.569,15.639-4.823v5.354c0,22.869,16.738,41.894,38.605,45.49v117.242
	c-22.065-27.724-35.324-61.123-43.514-88.245c-1.197-3.966-5.383-6.209-9.348-5.012c-3.965,1.197-6.209,5.382-5.012,9.348
	c7.841,25.968,20.073,57.022,40.287,85.469h-62.204v-21.727c0-4.142-3.358-7.5-7.5-7.5s-7.5,3.358-7.5,7.5v21.727h-32.726v-57.212
	H114.834z M393.783,298.321c-7.737,13.35-29.257,22.558-62.295,26.69c-11.101-6.017-23.062-10.422-35.521-13.007v-6.652
	c28.044-14.172,48.735-40.845,54.705-72.649c2.315,0.393,4.669,0.603,7.055,0.603c3.262,0,6.505-0.383,9.586-1.127
	c3.063-0.716,5.973-1.756,8.706-3.073c5.116,11.083,10.757,23.814,16.824,37.974C398.292,279.792,398.599,290.012,393.783,298.321z"
	/>
<path d="M207.19,207.303c-4.142,0-7.5-3.358-7.5-7.5v-8.201c0-4.142,3.358-7.5,7.5-7.5s7.5,3.358,7.5,7.5v8.201
	C214.69,203.945,211.332,207.303,207.19,207.303z"/>
<path d="M294.804,207.303c-4.142,0-7.5-3.358-7.5-7.5v-8.201c0-4.142,3.358-7.5,7.5-7.5c4.142,0,7.5,3.358,7.5,7.5v8.201
	C302.304,203.945,298.947,207.303,294.804,207.303z"/>
<g>
</g>
<g>
</g>
<g>
</g>
<g>
</g>
<g>
</g>
<g>
</g>
<g>
</g>
<g>
</g>
<g>
</g>
<g>
</g>
<g>
</g>
<g>
</g>
<g>
</g>
<g>
</g>
<g>
</g>
</svg>
