<?xml version="1.0" encoding="iso-8859-1"?>
<!-- Generator: Adobe Illustrator 19.0.0, SVG Export Plug-In . SVG Version: 6.00 Build 0)  -->
<svg version="1.1" id="Capa_1" xmlns="http://www.w3.org/2000/svg" xmlns:xlink="http://www.w3.org/1999/xlink" x="0px" y="0px"
	 viewBox="0 0 512 512" style="enable-background:new 0 0 512 512;" xml:space="preserve">
<path style="fill:#694B4B;" d="M438.3,67.849v413.706c0,12.671-10.274,22.944-22.944,22.944H96.644
	c-12.671,0-22.944-10.274-22.944-22.944V67.849c0-12.671,10.274-22.944,22.944-22.944h318.711
	C428.027,44.905,438.3,55.179,438.3,67.849z"/>
<rect x="118.98" y="44.905" style="fill:#5B4040;" width="274.05" height="50.725"/>
<rect x="108.99" y="73.49" style="fill:#E5E5DA;" width="294.03" height="394.34"/>
<g>
	<rect x="381.57" y="73.49" style="fill:#D1D0BF;" width="21.447" height="394.34"/>
	<rect x="140.29" y="23.407" style="fill:#D1D0BF;" width="231.42" height="65.13"/>
</g>
<rect x="208.77" y="7.5" style="fill:#E5E5DA;" width="94.45" height="58.903"/>
<circle style="fill:#B4E66E;" cx="168.61" cy="247.29" r="16.682"/>
<circle style="fill:#FF5F5F;" cx="167.1" cy="164.71" r="16.682"/>
<path d="M438.3,172.09c4.143,0,7.5-3.358,7.5-7.5V67.85c0-16.79-13.655-30.45-30.439-30.45h-36.15V23.41c0-4.142-3.357-7.5-7.5-7.5
	h-60.982V7.5c0-4.142-3.357-7.5-7.5-7.5h-94.455c-4.142,0-7.5,3.358-7.5,7.5v8.41H140.29c-4.142,0-7.5,3.358-7.5,7.5V37.4H96.64
	c-16.785,0-30.44,13.66-30.44,30.45v413.71c0,16.785,13.655,30.44,30.44,30.44h318.72c16.784,0,30.439-13.655,30.439-30.44V197.11
	c0-4.142-3.357-7.5-7.5-7.5s-7.5,3.358-7.5,7.5v284.45c0,8.514-6.926,15.44-15.439,15.44H96.64c-8.514,0-15.44-6.926-15.44-15.44
	V67.85c0-8.519,6.926-15.45,15.44-15.45h36.15v13.59h-23.8c-4.142,0-7.5,3.358-7.5,7.5v394.34c0,4.142,3.358,7.5,7.5,7.5h41.43
	c4.142,0,7.5-3.358,7.5-7.5s-3.358-7.5-7.5-7.5h-33.93V80.99h16.3v7.55c0,4.142,3.358,7.5,7.5,7.5h36c4.142,0,7.5-3.358,7.5-7.5
	s-3.358-7.5-7.5-7.5h-28.5V54.629h14.813c4.142,0,7.5-3.358,7.5-7.5s-3.358-7.5-7.5-7.5H147.79V30.91h53.482v35.493
	c0,4.142,3.358,7.5,7.5,7.5h94.455c4.143,0,7.5-3.358,7.5-7.5V30.91h53.482v8.719h-14.813c-4.143,0-7.5,3.358-7.5,7.5
	s3.357,7.5,7.5,7.5h14.813V81.04H208c-4.142,0-7.5,3.358-7.5,7.5s3.358,7.5,7.5,7.5h163.71c4.143,0,7.5-3.358,7.5-7.5v-7.55h16.3
	v379.34h-211.9c-4.142,0-7.5,3.358-7.5,7.5s3.358,7.5,7.5,7.5h219.4c4.143,0,7.5-3.358,7.5-7.5V73.49c0-4.142-3.357-7.5-7.5-7.5
	h-23.8V52.4h36.15c8.514,0,15.439,6.931,15.439,15.45v96.74C430.8,168.732,434.157,172.09,438.3,172.09z M295.728,58.903h-79.455V15
	h79.455V58.903z"/>
<path d="M232.392,47.688h47.217c4.143,0,7.5-3.358,7.5-7.5s-3.357-7.5-7.5-7.5h-47.217c-4.142,0-7.5,3.358-7.5,7.5
	C224.892,44.33,228.25,47.688,232.392,47.688z"/>
<path d="M168.608,271.471c13.334,0,24.182-10.848,24.182-24.183c0-13.334-10.848-24.182-24.182-24.182
	c-13.334,0-24.183,10.848-24.183,24.182C144.426,260.623,155.274,271.471,168.608,271.471z M168.608,238.106
	c5.063,0,9.182,4.119,9.182,9.182s-4.119,9.183-9.182,9.183c-5.063,0-9.183-4.119-9.183-9.183
	C159.426,242.226,163.545,238.106,168.608,238.106z"/>
<path d="M216.174,230.167h15.852c4.142,0,7.5-3.358,7.5-7.5s-3.358-7.5-7.5-7.5h-15.852c-4.142,0-7.5,3.358-7.5,7.5
	S212.032,230.167,216.174,230.167z"/>
<path d="M360.074,236.675h-143.9c-4.142,0-7.5,3.358-7.5,7.5s3.358,7.5,7.5,7.5h143.9c4.143,0,7.5-3.358,7.5-7.5
	S364.217,236.675,360.074,236.675z"/>
<path d="M367.574,263.677c0-4.142-3.357-7.5-7.5-7.5h-143.9c-4.142,0-7.5,3.358-7.5,7.5s3.358,7.5,7.5,7.5h143.9
	C364.217,271.177,367.574,267.819,367.574,263.677z"/>
<path d="M191.279,164.707c0-13.334-10.848-24.183-24.182-24.183s-24.183,10.848-24.183,24.183c0,13.334,10.848,24.182,24.183,24.182
	C180.431,188.889,191.279,178.041,191.279,164.707z M157.915,164.707c0-5.063,4.119-9.183,9.183-9.183
	c5.063,0,9.182,4.119,9.182,9.183c0,5.063-4.119,9.182-9.182,9.182C162.034,173.889,157.915,169.77,157.915,164.707z"/>
<path d="M214.663,147.584h15.852c4.142,0,7.5-3.358,7.5-7.5s-3.358-7.5-7.5-7.5h-15.852c-4.142,0-7.5,3.358-7.5,7.5
	S210.521,147.584,214.663,147.584z"/>
<path d="M214.663,169.093h143.9c4.143,0,7.5-3.358,7.5-7.5s-3.357-7.5-7.5-7.5h-143.9c-4.142,0-7.5,3.358-7.5,7.5
	S210.521,169.093,214.663,169.093z"/>
<path d="M214.663,188.595h143.9c4.143,0,7.5-3.358,7.5-7.5s-3.357-7.5-7.5-7.5h-143.9c-4.142,0-7.5,3.358-7.5,7.5
	S210.521,188.595,214.663,188.595z"/>
<path d="M311.564,316.648h50.021c4.143,0,7.5-3.358,7.5-7.5s-3.357-7.5-7.5-7.5h-50.021c-4.143,0-7.5,3.358-7.5,7.5
	S307.422,316.648,311.564,316.648z"/>
<path d="M214.663,341.811h146.922c4.143,0,7.5-3.358,7.5-7.5s-3.357-7.5-7.5-7.5H214.663c-4.142,0-7.5,3.358-7.5,7.5
	S210.521,341.811,214.663,341.811z"/>
<path d="M145.937,359.473c0,4.142,3.358,7.5,7.5,7.5h208.147c4.143,0,7.5-3.358,7.5-7.5s-3.357-7.5-7.5-7.5H153.437
	C149.295,351.973,145.937,355.331,145.937,359.473z"/>
<path d="M361.585,377.136H153.437c-4.142,0-7.5,3.358-7.5,7.5s3.358,7.5,7.5,7.5h208.147c4.143,0,7.5-3.358,7.5-7.5
	S365.728,377.136,361.585,377.136z"/>
<path d="M153.437,417.298h208.147c4.143,0,7.5-3.358,7.5-7.5s-3.357-7.5-7.5-7.5H153.437c-4.142,0-7.5,3.358-7.5,7.5
	S149.295,417.298,153.437,417.298z"/>
<g>
</g>
<g>
</g>
<g>
</g>
<g>
</g>
<g>
</g>
<g>
</g>
<g>
</g>
<g>
</g>
<g>
</g>
<g>
</g>
<g>
</g>
<g>
</g>
<g>
</g>
<g>
</g>
<g>
</g>
</svg>
