<?xml version="1.0" encoding="iso-8859-1"?>
<!-- Generator: Adobe Illustrator 19.0.0, SVG Export Plug-In . SVG Version: 6.00 Build 0)  -->
<svg version="1.1" id="Capa_1" xmlns="http://www.w3.org/2000/svg" xmlns:xlink="http://www.w3.org/1999/xlink" x="0px" y="0px"
	 viewBox="0 0 512 512" style="enable-background:new 0 0 512 512;" xml:space="preserve">
<rect x="7.5" y="123.05" style="fill:#E5E5DA;" width="497" height="265.9"/>
<rect x="483.33" y="123.05" style="fill:#D1D0BF;" width="21.17" height="265.9"/>
<path style="fill:#FFF082;" d="M465.802,202.875v121.588c-20.421,0-36.969,16.548-36.969,36.969H83.167
	c0-20.421-16.548-36.969-36.969-36.969V202.875c20.421,0,36.969-16.548,36.969-36.969h345.666
	C428.833,186.327,445.381,202.875,465.802,202.875z"/>
<path style="fill:#FFDC64;" d="M381.452,213.714H146.946c-6.965,0-12.612-5.646-12.612-12.612v-33.883h259.729v33.883
	C394.064,208.068,388.418,213.714,381.452,213.714z"/>
<rect x="151.38" y="147.59" style="fill:#FFF3A9;" width="225.64" height="47.04"/>
<path d="M504.5,188.967c-4.142,0-7.5,3.358-7.5,7.5v184.986H97c-4.142,0-7.5,3.358-7.5,7.5s3.358,7.5,7.5,7.5h407.5
	c4.142,0,7.5-3.358,7.5-7.5V196.467C512,192.325,508.642,188.967,504.5,188.967z"/>
<path d="M504.5,115.547H7.5c-4.142,0-7.5,3.358-7.5,7.5v265.905c0,4.142,3.358,7.5,7.5,7.5H63c4.142,0,7.5-3.358,7.5-7.5
	s-3.358-7.5-7.5-7.5H15V130.547h482V164c0,4.142,3.358,7.5,7.5,7.5s7.5-3.358,7.5-7.5v-40.953
	C512,118.905,508.642,115.547,504.5,115.547z"/>
<path d="M436.33,361.43c0-16.25,13.22-29.47,29.47-29.47c4.142,0,7.5-3.358,7.5-7.5V202.88c0-4.142-3.358-7.5-7.5-7.5
	c-16.25,0-29.47-13.22-29.47-29.47c0-4.142-3.358-7.5-7.5-7.5h-44.31v-10.82c0-4.142-3.358-7.5-7.5-7.5H337.3
	c-4.142,0-7.5,3.358-7.5,7.5s3.358,7.5,7.5,7.5h32.22v32.04H158.88v-32.04h144.16c4.142,0,7.5-3.358,7.5-7.5s-3.358-7.5-7.5-7.5
	H151.38c-4.142,0-7.5,3.358-7.5,7.5v10.82H83.17c-4.142,0-7.5,3.358-7.5,7.5c0,16.25-13.22,29.47-29.47,29.47
	c-4.142,0-7.5,3.358-7.5,7.5v121.58c0,4.142,3.358,7.5,7.5,7.5c16.25,0,29.47,13.22,29.47,29.47c0,4.142,3.358,7.5,7.5,7.5h345.66
	C432.972,368.93,436.33,365.572,436.33,361.43z M90.037,353.93c-3.158-18.525-17.812-33.179-36.337-36.337V209.747
	c18.525-3.158,33.179-17.812,36.337-36.337h53.843v21.22c0,4.142,3.358,7.5,7.5,7.5h225.64c4.142,0,7.5-3.358,7.5-7.5v-21.22h37.443
	c3.158,18.525,17.812,33.179,36.337,36.337v107.846c-18.525,3.158-33.179,17.812-36.337,36.337H90.037z"/>
<path d="M180.691,163.607c-4.142,0-7.5,3.358-7.5,7.5s3.358,7.5,7.5,7.5h24.418c4.142,0,7.5-3.358,7.5-7.5s-3.358-7.5-7.5-7.5
	H180.691z"/>
<path d="M227.658,163.607c-4.142,0-7.5,3.358-7.5,7.5s3.358,7.5,7.5,7.5h7.569c4.142,0,7.5-3.358,7.5-7.5s-3.358-7.5-7.5-7.5
	H227.658z"/>
<path d="M252.915,171.107c0,4.142,3.358,7.5,7.5,7.5h85.589c4.142,0,7.5-3.358,7.5-7.5s-3.358-7.5-7.5-7.5h-85.589
	C256.273,163.607,252.915,166.965,252.915,171.107z"/>
<path d="M411.447,268.885H93.773c-4.142,0-7.5,3.358-7.5,7.5s3.358,7.5,7.5,7.5h317.674c4.142,0,7.5-3.358,7.5-7.5
	S415.589,268.885,411.447,268.885z"/>
<path d="M411.447,292.786H93.773c-4.142,0-7.5,3.358-7.5,7.5s3.358,7.5,7.5,7.5h317.674c4.142,0,7.5-3.358,7.5-7.5
	S415.589,292.786,411.447,292.786z"/>
<path d="M93.773,228.713h11.589c4.142,0,7.5-3.358,7.5-7.5s-3.358-7.5-7.5-7.5H93.773c-4.142,0-7.5,3.358-7.5,7.5
	S89.631,228.713,93.773,228.713z"/>
<path d="M131.618,228.713h11.589c4.142,0,7.5-3.358,7.5-7.5s-3.358-7.5-7.5-7.5h-11.589c-4.142,0-7.5,3.358-7.5,7.5
	S127.476,228.713,131.618,228.713z"/>
<path d="M93.773,249.505h49.434c4.142,0,7.5-3.358,7.5-7.5s-3.358-7.5-7.5-7.5H93.773c-4.142,0-7.5,3.358-7.5,7.5
	S89.631,249.505,93.773,249.505z"/>
<path d="M338.164,319.377H320.44c-4.142,0-7.5,3.358-7.5,7.5s3.358,7.5,7.5,7.5h17.724c4.142,0,7.5-3.358,7.5-7.5
	S342.306,319.377,338.164,319.377z"/>
<path d="M381.112,319.377h-17.725c-4.142,0-7.5,3.358-7.5,7.5s3.358,7.5,7.5,7.5h17.725c4.142,0,7.5-3.358,7.5-7.5
	S385.254,319.377,381.112,319.377z"/>
<g>
</g>
<g>
</g>
<g>
</g>
<g>
</g>
<g>
</g>
<g>
</g>
<g>
</g>
<g>
</g>
<g>
</g>
<g>
</g>
<g>
</g>
<g>
</g>
<g>
</g>
<g>
</g>
<g>
</g>
</svg>
