<?xml version="1.0" encoding="iso-8859-1"?>
<!-- Generator: Adobe Illustrator 19.0.0, SVG Export Plug-In . SVG Version: 6.00 Build 0)  -->
<svg version="1.1" id="Capa_1" xmlns="http://www.w3.org/2000/svg" xmlns:xlink="http://www.w3.org/1999/xlink" x="0px" y="0px"
	 viewBox="0 0 512 512" style="enable-background:new 0 0 512 512;" xml:space="preserve">
<rect x="7.5" y="7.539" style="fill:#E5E5DA;" width="427.61" height="105.62"/>
<rect x="414.03" y="7.539" style="fill:#D1D0BF;" width="21.08" height="105.62"/>
<circle style="fill:#FF5F5F;" cx="70.68" cy="59.01" r="23.08"/>
<rect x="7.5" y="142.2" style="fill:#E5E5DA;" width="427.61" height="105.62"/>
<rect x="414.03" y="142.2" style="fill:#D1D0BF;" width="21.08" height="105.62"/>
<circle style="fill:#00C3FF;" cx="70.68" cy="193.67" r="23.08"/>
<rect x="7.5" y="276.86" style="fill:#E5E5DA;" width="427.61" height="105.62"/>
<rect x="414.03" y="276.86" style="fill:#D1D0BF;" width="21.08" height="105.62"/>
<circle style="fill:#B4E66E;" cx="70.68" cy="328.33" r="23.08"/>
<path style="fill:#F2F2F0;" d="M396.957,389.206h-53.14l-69.385,17.222c-22.418,5.564-38.159,25.69-38.159,48.788v49.246H504.5
	v-49.246c0-23.098-15.741-43.224-38.159-48.788L396.957,389.206z"/>
<g>
	<path style="fill:#E5E5DA;" d="M270.933,407.438c-12.859,11.73-20.962,31.202-20.962,47.777v49.248h-13.696v-49.248
		C236.275,433.339,250.389,414.128,270.933,407.438z"/>
	<path style="fill:#E5E5DA;" d="M469.842,407.438c12.859,11.73,20.962,31.202,20.962,47.777v49.248H504.5v-49.248
		C504.5,433.339,490.386,414.128,469.842,407.438z"/>
</g>
<g>
	<polygon style="fill:#00C3FF;" points="388.04,504.464 352.737,504.464 361.718,444.63 379.059,444.63 	"/>
	<polygon style="fill:#00C3FF;" points="359.311,444.63 348.235,425.445 359.311,406.261 381.463,406.261 392.539,425.445 
		381.463,444.63 	"/>
</g>
<g>
	<rect x="342.45" y="346.05" style="fill:#F7C9A4;" width="55.882" height="51.765"/>
	<path style="fill:#F7C9A4;" d="M457.69,295.981c0,9.976-6.93,18.336-16.233,20.514c-1.557,0.374-3.173,0.569-4.842,0.569
		c-11.645,0-21.083-9.438-21.083-21.083c0-11.638,9.438-21.076,21.083-21.076c1.736,0,3.42,0.21,5.029,0.606
		C450.857,277.764,457.69,286.079,457.69,295.981z"/>
	<path style="fill:#F7C9A4;" d="M325.249,295.981c0,11.645-9.438,21.083-21.083,21.083c-1.669,0-3.293-0.195-4.85-0.569
		c-9.31-2.185-16.233-10.538-16.233-20.514c0-9.902,6.833-18.209,16.046-20.462c1.609-0.404,3.301-0.614,5.037-0.614
		C315.812,274.905,325.249,284.343,325.249,295.981z"/>
</g>
<path style="fill:#FFD9B6;" d="M428.763,235.733v73.922c0,32.242-26.135,58.377-58.377,58.377s-58.377-26.135-58.377-58.377v-73.922
	L428.763,235.733L428.763,235.733z"/>
<path style="fill:#694B4B;" d="M312.045,274.904c0,0-17.805-60.123,13.155-71.1c0,0,3.901-14.469,19.746-14.469s98.001,0,98.001,0
	s3.901,43.907-14.139,85.569l-13.408-2.245v-15.966c0,0-34.13-6.486-88.981-6.486v22.453L312.045,274.904z"/>
<g>
	<polygon style="fill:#E5E5DA;" points="330.221,373.529 370.387,397.728 354.171,430.908 320.991,396.73 	"/>
	<polygon style="fill:#E5E5DA;" points="410.552,373.529 370.387,397.728 386.602,430.908 419.782,396.73 	"/>
</g>
<path d="M7.5,120.662h317.749c4.143,0,7.5-3.358,7.5-7.5s-3.357-7.5-7.5-7.5H15V15.039h412.605v90.623h-67.868
	c-4.143,0-7.5,3.358-7.5,7.5s3.357,7.5,7.5,7.5h75.368c4.143,0,7.5-3.358,7.5-7.5V7.539c0-4.142-3.357-7.5-7.5-7.5H7.5
	c-4.142,0-7.5,3.358-7.5,7.5v105.623C0,117.304,3.358,120.662,7.5,120.662z"/>
<path d="M132.61,45.454h12.919c4.142,0,7.5-3.358,7.5-7.5s-3.358-7.5-7.5-7.5H132.61c-4.142,0-7.5,3.358-7.5,7.5
	S128.468,45.454,132.61,45.454z"/>
<path d="M132.61,71.208H361.5c4.143,0,7.5-3.358,7.5-7.5s-3.357-7.5-7.5-7.5H132.61c-4.142,0-7.5,3.358-7.5,7.5
	S128.468,71.208,132.61,71.208z"/>
<path d="M132.61,90.247H361.5c4.143,0,7.5-3.358,7.5-7.5s-3.357-7.5-7.5-7.5H132.61c-4.142,0-7.5,3.358-7.5,7.5
	S128.468,90.247,132.61,90.247z"/>
<path d="M241.402,45.454c4.142,0,7.5-3.358,7.5-7.5s-3.358-7.5-7.5-7.5h-70.715c-4.142,0-7.5,3.358-7.5,7.5s3.358,7.5,7.5,7.5
	H241.402z"/>
<path d="M40.105,59.011c0,16.861,13.718,30.579,30.579,30.579s30.579-13.717,30.579-30.579S87.546,28.432,70.685,28.432
	S40.105,42.15,40.105,59.011z M86.263,59.011c0,8.59-6.989,15.579-15.579,15.579s-15.579-6.989-15.579-15.579
	s6.989-15.579,15.579-15.579S86.263,50.421,86.263,59.011z"/>
<path d="M132.61,180.113h12.919c4.142,0,7.5-3.358,7.5-7.5s-3.358-7.5-7.5-7.5H132.61c-4.142,0-7.5,3.358-7.5,7.5
	S128.468,180.113,132.61,180.113z"/>
<path d="M170.687,180.113h70.715c4.142,0,7.5-3.358,7.5-7.5s-3.358-7.5-7.5-7.5h-70.715c-4.142,0-7.5,3.358-7.5,7.5
	S166.545,180.113,170.687,180.113z"/>
<path d="M70.685,163.091c-16.861,0-30.579,13.717-30.579,30.579s13.718,30.579,30.579,30.579s30.579-13.717,30.579-30.579
	S87.546,163.091,70.685,163.091z M70.685,209.249c-8.59,0-15.579-6.989-15.579-15.579s6.989-15.579,15.579-15.579
	s15.579,6.989,15.579,15.579S79.274,209.249,70.685,209.249z"/>
<path d="M132.61,314.772h12.919c4.142,0,7.5-3.358,7.5-7.5s-3.358-7.5-7.5-7.5H132.61c-4.142,0-7.5,3.358-7.5,7.5
	S128.468,314.772,132.61,314.772z"/>
<path d="M241.402,314.772c4.142,0,7.5-3.358,7.5-7.5s-3.358-7.5-7.5-7.5h-70.715c-4.142,0-7.5,3.358-7.5,7.5s3.358,7.5,7.5,7.5
	H241.402z"/>
<path d="M40.105,328.329c0,16.861,13.718,30.579,30.579,30.579s30.579-13.718,30.579-30.579S87.546,297.75,70.685,297.75
	S40.105,311.467,40.105,328.329z M86.263,328.329c0,8.59-6.989,15.579-15.579,15.579s-15.579-6.989-15.579-15.579
	s6.989-15.579,15.579-15.579S86.263,319.74,86.263,328.329z"/>
<path d="M468.146,399.152l-36.952-9.172h3.911c4.143,0,7.5-3.358,7.5-7.5v-58.567c0.185-0.041,0.376-0.073,0.559-0.118
	c12.969-3.026,22.026-14.464,22.026-27.814c0-13.214-8.953-24.628-21.742-27.749c-1.217-0.302-2.459-0.515-3.714-0.652
	c13.971-39.446,10.837-77.189,10.685-78.91c-0.344-3.87-3.586-6.836-7.471-6.836h-0.338v-39.632c0-4.142-3.357-7.5-7.5-7.5H7.5
	c-4.142,0-7.5,3.358-7.5,7.5v105.62c0,4.142,3.358,7.5,7.5,7.5h292.996c0.569,4.561,1.31,8.705,2.021,12.13
	c-1.781,0.102-3.524,0.365-5.168,0.784c-1.207,0.295-2.366,0.685-3.5,1.122h-151.78c-4.142,0-7.5,3.358-7.5,7.5s3.358,7.5,7.5,7.5
	h135.966c-1.584,3.57-2.455,7.509-2.455,11.624c0,13.338,9.06,24.775,21.955,27.794c2.126,0.521,4.358,0.786,6.635,0.786
	c0.685,0,1.366-0.033,2.044-0.081c0.081,0.349,0.156,0.699,0.242,1.046H132.61c-4.142,0-7.5,3.358-7.5,7.5s3.358,7.5,7.5,7.5
	h179.606c0.734,1.377,1.518,2.722,2.345,4.039H132.61c-4.142,0-7.5,3.358-7.5,7.5s3.358,7.5,7.5,7.5h194.667
	c0.06,0,0.118-0.008,0.178-0.009c2.36,2.033,4.863,3.9,7.495,5.587v2.479l-0.858-0.517c-1.888-1.137-4.179-1.385-6.265-0.683
	c-2.087,0.703-3.76,2.288-4.574,4.335l-1.68,4.224H15v-90.623h93.667c4.142,0,7.5-3.358,7.5-7.5s-3.358-7.5-7.5-7.5H7.5
	c-4.142,0-7.5,3.358-7.5,7.5V382.48c0,4.142,3.358,7.5,7.5,7.5h302.075l-36.953,9.172c-22.271,5.53-39.159,23.706-43.024,46.305
	c-0.698,4.083,2.045,7.958,6.128,8.657c0.428,0.073,0.853,0.108,1.273,0.108c3.587,0,6.759-2.582,7.384-6.237
	c2.861-16.727,15.364-30.18,31.854-34.275l40.926-10.158l24.25,24.979c0.101,0.222,0.2,0.445,0.323,0.659l11.079,19.19
	c0.185,0.32,0.396,0.619,0.621,0.904l-7.156,47.676h-59.7v-18.817c0-4.142-3.357-7.5-7.5-7.5s-7.5,3.358-7.5,7.5v18.817h-27.81
	v-18.35c0-4.142-3.358-7.5-7.5-7.5s-7.5,3.358-7.5,7.5v25.85c0,4.142,3.358,7.5,7.5,7.5H504.5c4.143,0,7.5-3.358,7.5-7.5v-49.24
	C512,428.612,493.966,405.555,468.146,399.152z M363.64,437.132l-2.254-3.905l9.001-18.418l9,18.415l-2.256,3.908H363.64z
	 M388.655,418.026l-8.514-17.42l26.709-16.092l4.168,10.475L388.655,418.026z M319.51,309.651v-28.323l8.067-1.26
	c3.651-0.57,6.343-3.715,6.343-7.41v-14.911c36.396,0.404,62.705,3.653,73.98,5.326v9.585c0,3.664,2.647,6.792,6.262,7.397
	l7.107,1.19v28.406c0,28.055-22.824,50.88-50.88,50.88S319.51,337.706,319.51,309.651z M435.77,196.833
	c0.227,12.73-0.718,41.354-11.634,69.683l-1.235-0.207v-9.618c0-3.602-2.561-6.696-6.1-7.368c-1.422-0.27-35.455-6.618-90.381-6.618
	c-4.143,0-7.5,3.358-7.5,7.5v16.033l-1.27,0.198c-1.246-5.583-2.822-14.213-3.142-23.233c-0.643-18.121,3.798-28.999,13.197-32.332
	c2.387-0.846,4.113-2.569,4.711-5.029c0.447-1.504,3.155-9.01,12.53-9.01h90.824V196.833z M427.605,342.245v32.735H419.2
	l-1.68-4.224c-0.814-2.047-2.487-3.632-4.574-4.335c-2.086-0.702-4.379-0.453-6.265,0.683l-0.852,0.513v-2.476
	C414.808,359.388,422.299,351.523,427.605,342.245z M450.19,295.981c0,6.342-4.291,11.772-10.506,13.223
	c-0.972,0.237-2.006,0.357-3.074,0.357c-0.115,0-0.227-0.014-0.341-0.017v-27.131c1.2-0.029,2.41,0.09,3.592,0.384
	C445.943,284.281,450.19,289.702,450.19,295.981z M15,149.701h412.61v32.132h-82.663c-9.626,0-16.37,4.164-20.767,9.034H132.61
	c-4.142,0-7.5,3.358-7.5,7.5s3.358,7.5,7.5,7.5h176.751c-1.07,1.27-2.033,2.621-2.9,4.039H132.61c-4.142,0-7.5,3.358-7.5,7.5
	s3.358,7.5,7.5,7.5h168.282c-0.993,5.018-1.384,10.263-1.382,15.415H15V149.701z M301.03,309.189
	c-6.153-1.441-10.45-6.872-10.45-13.208c0-6.271,4.248-11.688,10.401-13.192c1.011-0.258,2.084-0.388,3.188-0.388
	c0.114,0,0.226,0.013,0.34,0.016v27.136C303.344,309.582,302.173,309.468,301.03,309.189z M349.95,372.27
	c6.439,2.107,13.305,3.262,20.439,3.262c7.135,0,14.001-1.155,20.44-3.262v4.386l-20.443,12.317l-20.437-12.313v-4.39H349.95z
	 M333.923,384.516l26.709,16.092l-8.514,17.42l-22.363-23.037L333.923,384.516z M368.177,452.132h4.424l6.729,44.83h-17.882
	L368.177,452.132z M497,496.961h-27.806v-18.817c0-4.142-3.357-7.5-7.5-7.5s-7.5,3.358-7.5,7.5v18.817h-59.696l-7.158-47.683
	c0.223-0.283,0.432-0.579,0.615-0.897l11.08-19.19c0.123-0.212,0.221-0.433,0.321-0.653l24.255-24.985l40.924,10.158
	c19.114,4.74,32.465,21.81,32.465,41.51V496.961z"/>
<path d="M343.189,307.294c-4.142,0-7.5-3.358-7.5-7.5v-5.223c0-4.142,3.358-7.5,7.5-7.5s7.5,3.358,7.5,7.5v5.223
	C350.689,303.936,347.331,307.294,343.189,307.294z"/>
<path d="M398.981,307.294c-4.142,0-7.5-3.358-7.5-7.5v-5.223c0-4.142,3.358-7.5,7.5-7.5s7.5,3.358,7.5,7.5v5.223
	C406.481,303.936,403.123,307.294,398.981,307.294z"/>
<g>
</g>
<g>
</g>
<g>
</g>
<g>
</g>
<g>
</g>
<g>
</g>
<g>
</g>
<g>
</g>
<g>
</g>
<g>
</g>
<g>
</g>
<g>
</g>
<g>
</g>
<g>
</g>
<g>
</g>
</svg>
