<?xml version="1.0" encoding="iso-8859-1"?>
<!-- Generator: Adobe Illustrator 19.0.0, SVG Export Plug-In . SVG Version: 6.00 Build 0)  -->
<svg version="1.1" id="Capa_1" xmlns="http://www.w3.org/2000/svg" xmlns:xlink="http://www.w3.org/1999/xlink" x="0px" y="0px"
	 viewBox="0 0 512.001 512.001" style="enable-background:new 0 0 512.001 512.001;" xml:space="preserve">
<path style="fill:#B4E66E;" d="M447.095,426.829V504.5H24.061v-77.671c0-36.43,24.83-68.171,60.18-76.941l109.431-27.16h83.811
	l44.63,11.08l64.801,16.08C422.264,358.659,447.095,390.399,447.095,426.829z"/>
<g>
	<path style="fill:#A0D755;" d="M78.727,351.479c-20.28,18.5-33.06,49.21-33.06,75.351V504.5h-21.6v-77.671
		C24.066,392.329,46.326,362.029,78.727,351.479z"/>
	<path style="fill:#A0D755;" d="M447.095,426.829c0-36.43-24.83-68.171-60.18-76.941l-64.801-16.08
		c-1.14,5.91-1.74,12.01-1.74,18.25c0,53.06,43.01,96.071,96.071,96.071c3.053,0,6.067-0.158,9.047-0.436V504.5h21.6V443.13
		c0.001,0,0.002-0.001,0.003-0.001L447.095,426.829L447.095,426.829z"/>
</g>
<g>
	<polygon style="fill:#F2F2F0;" points="263.419,504.5 207.743,504.5 221.907,410.135 249.255,410.135 	"/>
	<polygon style="fill:#F2F2F0;" points="218.11,410.135 200.641,379.879 218.11,349.623 253.046,349.623 270.514,379.879 
		253.046,410.135 	"/>
</g>
<rect x="191.512" y="254.662" style="fill:#F7C9A4;" width="88.131" height="81.641"/>
<path style="fill:#FFD9B6;" d="M373.266,175.697c0,15.734-10.93,28.919-25.602,32.353c-2.455,0.59-5.005,0.897-7.637,0.897
	c-18.366,0-33.25-14.884-33.25-33.25c0-18.354,14.884-33.239,33.25-33.239c2.738,0,5.394,0.331,7.932,0.956
	C362.49,146.967,373.266,160.081,373.266,175.697z"/>
<path style="fill:#F7C9A4;" d="M347.96,143.414v56.551c0,2.715-0.094,5.418-0.295,8.085c-2.455,0.59-5.005,0.897-7.637,0.897
	c-18.366,0-33.25-14.884-33.25-33.25c0-18.354,14.884-33.239,33.25-33.239C342.766,142.458,345.422,142.789,347.96,143.414z"/>
<path style="fill:#FFD9B6;" d="M164.39,175.697c0,18.366-14.884,33.25-33.25,33.25c-2.632,0-5.194-0.307-7.649-0.897
	c-14.684-3.447-25.602-16.619-25.602-32.353c0-15.616,10.777-28.718,25.307-32.271c2.538-0.637,5.205-0.968,7.944-0.968
	C149.506,142.458,164.39,157.342,164.39,175.697z"/>
<path style="fill:#F7C9A4;" d="M164.39,175.697c0,18.366-14.884,33.25-33.25,33.25c-2.632,0-5.194-0.307-7.649-0.897
	c-0.201-2.668-0.295-5.371-0.295-8.085v-56.539c2.538-0.637,5.205-0.968,7.944-0.968C149.506,142.458,164.39,157.342,164.39,175.697
	z"/>
<path style="fill:#FFD9B6;" d="M327.646,80.679v116.584c0,50.849-41.218,92.068-92.068,92.068s-92.068-41.218-92.068-92.068V80.679
	H327.646z"/>
<path style="fill:#F7C9A4;" d="M327.646,80.679v80.914l-30.904-5.175c-5.231-0.876-9.063-5.403-9.063-10.707v-12.156
	c0-2.085-1.543-3.844-3.61-4.113c-19.129-2.494-51.936-5.863-94.719-6.8c-2.323-0.051-4.232,1.824-4.232,4.147v18.997
	c0,5.348-3.895,9.9-9.179,10.726l-32.428,5.069V80.679H327.646z"/>
<path style="fill:#694B4B;" d="M143.566,142.454c0,0-28.081-94.822,20.747-112.134c0,0,6.152-22.82,31.142-22.82s154.56,0,154.56,0
	s6.152,69.248-22.3,134.954l-21.146-3.541v-25.181c0,0-53.827-10.23-140.334-10.23v35.41L143.566,142.454z"/>
<path style="fill:#5B4040;" d="M327.717,142.458l-18.732-3.14C335.908,74.564,329.948,7.496,329.948,7.496
	c12.217,0,20.066,0,20.066,0S356.163,76.748,327.717,142.458z"/>
<g>
	<polygon style="fill:#A0D755;" points="172.231,298 235.578,336.165 210.004,388.494 157.674,334.591 	"/>
	<polygon style="fill:#A0D755;" points="298.923,298 235.578,336.165 261.152,388.494 313.481,334.591 	"/>
</g>
<circle style="fill:#00C3FF;" cx="416.443" cy="352.063" r="71.501"/>
<path d="M416.444,273.066c-36.129,0-66.65,24.389-76.017,57.562l-22.691-5.631l-11.844-29.77c-0.814-2.047-2.487-3.632-4.574-4.335
	c-2.087-0.703-4.378-0.453-6.265,0.683l-7.912,4.767V282.44c24.258-14.696,41.023-38.898,46.259-66.537
	c2.178,0.356,4.39,0.545,6.631,0.545c3.174,0,6.333-0.373,9.338-1.097c18.483-4.321,31.392-20.627,31.392-39.653
	c0-18.833-12.756-35.104-30.995-39.56c-3.159-0.784-6.434-1.181-9.735-1.181c-0.4,0-0.797,0.017-1.194,0.028
	C362.887,71.726,357.732,9.59,357.487,6.836C357.144,2.967,353.901,0,350.017,0h-154.56c-21.477,0-32.898,14.48-37.094,24.622
	c-41.447,18.372-30.3,85.279-24.447,110.439c-0.92-0.062-1.844-0.104-2.775-0.104c-3.344,0-6.635,0.403-9.72,1.185
	c-18.27,4.463-31.03,20.729-31.03,39.556c0,19.016,12.908,35.321,31.35,39.643c3.062,0.735,6.225,1.107,9.4,1.107
	c2.239,0,4.448-0.188,6.622-0.543c5.239,27.649,22.001,51.846,46.248,66.527v13.909l-7.908-4.764
	c-1.887-1.137-4.177-1.386-6.265-0.683c-2.087,0.703-3.76,2.288-4.574,4.335l-11.843,29.768l-70.976,17.613
	c-38.792,9.621-65.885,44.253-65.885,84.22v77.671c0,4.142,3.358,7.5,7.5,7.5h423.033c4.142,0,7.5-3.358,7.5-7.5V426.83
	c0-1.852-0.065-3.703-0.181-5.539c7.425-4.067,14.23-9.314,20.068-15.634c2.811-3.042,2.623-7.787-0.419-10.598
	c-3.042-2.811-7.788-2.623-10.598,0.419c-12.084,13.079-29.222,20.581-47.018,20.581c-35.287,0-63.997-28.708-63.997-63.996
	s28.708-63.997,63.997-63.997s63.996,28.708,63.996,63.997c0,7.066-1.143,14.006-3.396,20.628c-1.334,3.921,0.763,8.182,4.684,9.516
	c3.92,1.333,8.182-0.763,9.516-4.684c2.784-8.181,4.195-16.747,4.195-25.46C495.441,308.503,460.004,273.066,416.444,273.066z
	 M295.222,308.985l9.495,23.865l-41.513,42.761l-17.872-36.568L295.222,308.985z M222.441,402.639l-5.979-10.358
	c0.096-0.163,0.196-0.323,0.28-0.495l18.836-38.541l18.836,38.541c0.084,0.172,0.185,0.333,0.281,0.497l-5.975,10.356
	L222.441,402.639L222.441,402.639z M346.182,150.703c11.528,2.817,19.58,13.095,19.58,24.995c0,12.021-8.145,22.32-19.856,25.058
	c-1.905,0.459-3.881,0.692-5.874,0.692c-1.681,0-3.336-0.161-4.956-0.475c0.045-1.236,0.076-2.475,0.076-3.715v-46.841
	c1.594-0.305,3.225-0.458,4.88-0.458C342.117,149.957,344.178,150.206,346.182,150.703z M105.39,175.697
	c0-11.893,8.056-22.167,19.65-24.999c1.943-0.492,3.996-0.741,6.1-0.741c1.653,0,3.28,0.153,4.87,0.456v46.844
	c0,1.239,0.023,2.483,0.069,3.721c-3.535,0.684-7.279,0.629-10.877-0.233C113.537,198.012,105.39,187.711,105.39,175.697z
	 M151.423,205.643c-0.274-2.743-0.413-5.563-0.413-8.385v-48.375l16.383-2.559c3.651-0.57,6.342-3.715,6.342-7.41v-27.884
	c10.199,0.071,20.389,0.286,30.387,0.643c4.126,0.153,7.615-3.088,7.763-7.228c0.148-4.14-3.088-7.615-7.228-7.763
	c-12.626-0.451-25.554-0.679-38.422-0.679c-4.142,0-7.5,3.358-7.5,7.5v28.991l-9.632,1.504c-2.06-8.509-5.382-24.529-5.979-41.384
	c-1.087-30.684,6.885-49.264,23.695-55.224c2.323-0.824,4.079-2.683,4.721-5.063C172.047,30.552,177.027,15,195.457,15h147.444
	c0.608,18.117,0.205,69.349-19.812,119.075l-9.019-1.51v-18.832c0-3.602-2.561-6.695-6.1-7.368
	c-1.113-0.211-24.783-5.214-70.884-8.208c-4.134-0.267-7.702,2.865-7.971,6.998c-0.269,4.134,2.865,7.702,6.999,7.971
	c32.628,2.119,52.635,5.323,62.955,6.95v18.838c0,3.664,2.647,6.792,6.261,7.397l14.82,2.482v48.465c0,2.821-0.139,5.64-0.413,8.388
	c-0.002,0.021-0.005,0.041-0.007,0.062c-2.751,27.787-19.078,52.392-43.685,65.829c-12.327,6.733-26.32,10.292-40.465,10.292
	c-14.157,0-28.152-3.562-40.478-10.304C170.489,258.094,154.161,233.47,151.423,205.643z M199.011,289.884
	c0.024,0.009,0.048,0.018,0.071,0.027c0.229,0.09,0.46,0.172,0.69,0.261c0.415,0.158,0.83,0.316,1.248,0.467
	c11.006,4.065,22.736,6.189,34.561,6.189c10.798,0,21.521-1.775,31.689-5.179c0.092-0.366,4.585-1.648,4.871-1.761v15.491
	l-36.563,22.029l-36.567-22.031V289.884z M175.933,308.985l49.889,30.058l-17.872,36.568l-41.512-42.761L175.933,308.985z
	 M31.559,426.829c0-33.057,22.409-61.703,54.497-69.662l66.953-16.615l40.561,41.781c0.154,0.443,0.335,0.88,0.575,1.295
	l17.47,30.26c0.477,0.827,1.103,1.534,1.827,2.11L201.285,497H99.074v-34.009c0-4.142-3.358-7.5-7.5-7.5s-7.5,3.358-7.5,7.5V497
	H31.559V426.829z M416.444,431.059c7.908,0,15.704-1.218,23.148-3.507V497h-52.511v-34.009c0-4.142-3.358-7.5-7.5-7.5
	s-7.5,3.358-7.5,7.5V497H269.877l-3.056-24.024c-0.615-4.096-4.43-6.917-8.53-6.304c-4.096,0.615-6.918,4.434-6.304,8.53
	l2.722,21.797h-38.257l11.912-79.361h14.433l3.796,25.289c0.559,3.719,3.758,6.388,7.408,6.388c0.37,0,0.745-0.027,1.123-0.084
	c4.096-0.615,6.918-4.434,6.304-8.53l-3.708-24.702c0.724-0.577,1.35-1.284,1.828-2.112l17.46-30.26
	c0.238-0.413,0.419-0.846,0.572-1.287l40.566-41.786l19.602,4.865c-0.184,2.193-0.3,4.405-0.3,6.644
	C337.448,395.621,372.886,431.059,416.444,431.059z"/>
<path d="M446.922,322.595l-43.026,43.027l-11.682-11.681c-2.929-2.929-7.678-2.929-10.606,0c-2.929,2.929-2.929,7.678,0,10.606
	l16.985,16.984c1.464,1.464,3.384,2.197,5.303,2.197c1.919,0,3.839-0.732,5.303-2.197l48.33-48.33c2.929-2.929,2.929-7.678,0-10.606
	C454.6,319.665,449.851,319.665,446.922,322.595z"/>
<path d="M193.194,181.199c-4.142,0-7.5-3.358-7.5-7.5v-8.201c0-4.142,3.358-7.5,7.5-7.5c4.142,0,7.5,3.358,7.5,7.5v8.201
	C200.694,177.841,197.336,181.199,193.194,181.199z"/>
<path d="M280.808,181.199c-4.142,0-7.5-3.358-7.5-7.5v-8.201c0-4.142,3.358-7.5,7.5-7.5s7.5,3.358,7.5,7.5v8.201
	C288.308,177.841,284.95,181.199,280.808,181.199z"/>
<g>
</g>
<g>
</g>
<g>
</g>
<g>
</g>
<g>
</g>
<g>
</g>
<g>
</g>
<g>
</g>
<g>
</g>
<g>
</g>
<g>
</g>
<g>
</g>
<g>
</g>
<g>
</g>
<g>
</g>
</svg>
