<?xml version="1.0" encoding="iso-8859-1"?>
<!-- Generator: Adobe Illustrator 19.0.0, SVG Export Plug-In . SVG Version: 6.00 Build 0)  -->
<svg version="1.1" id="Capa_1" xmlns="http://www.w3.org/2000/svg" xmlns:xlink="http://www.w3.org/1999/xlink" x="0px" y="0px"
	 viewBox="0 0 512.001 512.001" style="enable-background:new 0 0 512.001 512.001;" xml:space="preserve">
<path style="fill:#D1D0BF;" d="M202.622,76.473L191.17,14.598c0,0,50.956,7.511,56.779,57.623L202.622,76.473z"/>
<path style="fill:#694B4B;" d="M440.13,284.667l-24.885-6.224l-65.383-16.346l-68.037-140.496l-9.958-78.825l-1.714-13.616
	c0,0,66.606-16.018,120.47,39.309C444.497,123.785,480.159,204.587,440.13,284.667z"/>
<path style="fill:#5B4040;" d="M415.245,278.443l-65.383-16.346l-68.037-140.496l-9.958-78.825l1.692-1.245
	c0,0,68.299-3.636,116.343,66.246C432.006,169.023,423.795,238.643,415.245,278.443z"/>
<path style="fill:#E5E5DA;" d="M203.571,273c3.003-7.698-0.091-13.398-2.209-16.575c-0.731-1.092-1.594-1.976-2.599-2.653
	c-16.881-11.563-70.614,3.107-114.596,1.043c-13.245-0.622-21.609-7.884-26.042-17.995c-11.159-25.43,2.599-68.834,26.042-69.358
	c32.757-0.721,66.779-21.107,74.783-60.415s69.349-41.493,69.349-41.493c2.107-0.295,4.193-0.546,6.268-0.775
	c1.168-14.544,1.835-35.247-1.856-49.453c-5.7-21.969,47.007,4.466,56.779,52.575c95.357,23.716,120.176,142.123,97.497,202.2
	c-26.937,71.345,9.467,180.536,9.467,180.536H111.825C111.825,376.781,187.99,312.964,203.571,273z"/>
<path style="fill:#D1D0BF;" d="M148.219,399.678c-6.551,20.43-8.288,37.616-7.982,50.959h-28.412
	c0-88.084,107.735-161.903,89.537-194.213c-11.593-20.581-70.614,0.573-117.195-1.61c-13.245-0.622-21.609-7.884-26.042-17.995
	c10.1,6.42,24.666,10.057,43.829,1.256c41.176-18.923,99.46-17.582,125.426,2.695C261.59,267.489,167.152,340.715,148.219,399.678z"
	/>
<polygon style="fill:#FFF082;" points="480.891,504.501 31.111,504.501 44.946,477.75 63.869,441.171 448.134,441.171 
	467.056,477.75 "/>
<polygon style="fill:#FFDC64;" points="42.969,481.571 31.111,504.501 480.891,504.501 469.033,481.571 "/>
<path d="M75.936,194.318v2.265c0,4.142,3.357,7.5,7.5,7.5s7.5-3.358,7.5-7.5v-2.265c0-4.142-3.357-7.5-7.5-7.5
	S75.936,190.176,75.936,194.318z"/>
<path d="M487.549,501.056l-32.756-63.331c-1.289-2.49-3.858-4.054-6.662-4.054h-48.836c-8.157-30.169-23.773-100.957-7.821-153.44
	l46.833,11.708c0.607,0.152,1.218,0.225,1.821,0.225c2.788,0,5.414-1.562,6.706-4.147c19.475-38.948,23.164-80.265,10.966-122.802
	c-10.241-35.713-31.611-70.978-61.8-101.982c-3.942-4.049-8.1-7.879-12.356-11.386c-3.194-2.633-7.923-2.177-10.558,1.02
	c-2.634,3.197-2.177,7.923,1.021,10.557c3.835,3.16,7.585,6.616,11.146,10.273c25.685,26.379,43.879,54.934,54.19,83.944
	l-14.978,5.288c-3.905,1.379-5.954,5.663-4.575,9.569c1.088,3.081,3.981,5.005,7.072,5.005c0.828,0,1.671-0.138,2.497-0.43
	l14.425-5.092c9.374,35.414,6.989,71.084-7.888,103.918l-39.698-9.924c2.724-8.975,4.542-18.916,5.413-29.408h8.251
	c4.143,0,7.5-3.358,7.5-7.5s-3.357-7.5-7.5-7.5h-7.66c-0.012-5.008-0.216-10.087-0.642-15.205
	c-2.153-25.863-9.367-51.12-20.863-73.038c-2.175-4.146-4.488-8.132-6.922-11.969l16.857-12.779
	c3.302-2.502,3.949-7.207,1.446-10.508c-2.501-3.3-7.207-3.949-10.507-1.446l-16.43,12.455
	c-18.122-23.262-41.704-39.373-69.46-47.262c-2.608-10.01-6.871-19.047-11.985-26.934c7.369-0.538,17.677-0.605,29.549,1.246v9.408
	c0,4.142,3.357,7.5,7.5,7.5s7.5-3.358,7.5-7.5v-6.146c7.704,2.167,15.766,5.224,23.895,9.485c1.111,0.583,2.302,0.858,3.476,0.858
	c2.699,0,5.309-1.462,6.648-4.02c1.923-3.668,0.508-8.202-3.161-10.125c-37.93-19.88-73.839-16.597-86.265-14.593
	c-9.71-10.369-20.348-17.252-28.38-19.782c-8.635-2.72-13.543-0.353-16.141,2.115c-1.967,1.87-4.968,6.159-2.961,13.884
	c0.364,1.402,0.682,2.88,0.958,4.417c-1.661-1.19-3.365-2.345-5.157-3.429c-14.592-8.822-28.411-10.935-28.992-11.021
	c-2.398-0.352-4.813,0.472-6.493,2.215c-1.681,1.743-2.416,4.189-1.976,6.57l9.055,48.929c-17.827,6.226-36.652,18.087-41.25,40.657
	c-7.48,36.72-39.345,53.79-67.605,54.418c-22.628,0.503-36.982,29.046-37.305,55.203c-0.339,27.563,14.231,46.067,37.12,47.14
	c18.345,0.858,38.398-1.643,56.09-3.851c21.122-2.636,42.865-5.348,51.943-0.64c0.054,0.028,0.11,0.056,0.163,0.084
	c1.26,0.677,2.269,1.501,2.983,2.497c0.508,2.191-0.814,9.543-14.456,34.117c-2.01,3.622-0.704,8.187,2.917,10.197
	c3.623,2.012,8.188,0.705,10.198-2.917c9.7-17.474,15.7-30.2,16.288-39.461c9.305,2.091,21.309,4.197,34.013,4.197
	c13.891,0,28.604-2.52,41.495-10.333c15.557-9.43,26.005-25.093,31.055-46.555c0.948-4.032-1.551-8.07-5.583-9.019
	c-4.03-0.947-8.07,1.551-9.019,5.583c-4.093,17.395-12.245,29.899-24.229,37.164c-24.247,14.698-59.237,5.771-74.18,1.959
	c-2.722-0.695-4.692-1.195-6.247-1.486c-13.638-5.951-35.168-3.273-59.199-0.273c-17.927,2.238-36.466,4.549-53.528,3.752
	c-21.531-1.009-22.913-24.727-22.824-31.972c0.257-20.882,11.048-40.133,22.64-40.391c34.22-0.76,72.837-21.593,81.969-66.42
	c3.068-15.063,16.18-23.763,29.586-28.775c15.981-5.975,32.38-6.708,32.678-6.719c0.259-0.009,0.517-0.032,0.772-0.067
	c1.946-0.272,3.976-0.523,6.032-0.745c3.582-0.387,6.383-3.266,6.671-6.856c0.645-8.032,1.123-17.744,0.87-27.351
	c-0.207-7.887-0.905-15.704-2.42-22.459c10.177,3.521,35.345,22.776,41.657,53.826c0.576,2.835,2.732,5.086,5.54,5.784
	c43.415,10.796,67.373,41.367,79.826,65.111c13.883,26.471,20.747,58.704,19.739,87.746c-0.047,0.338-0.079,0.68-0.079,1.03
	c0,0.165,0.014,0.326,0.025,0.488c-0.608,13.702-2.981,26.655-7.227,37.9c-20.927,55.427-5.548,131.037,3.731,166.215h-25.498
	c-4.143,0-7.5,3.358-7.5,7.5c0,0.68,0.099,1.336,0.269,1.963c0.864,3.188,3.769,5.537,7.231,5.537h45.472h39.891l24.998,48.331
	H43.437l24.999-48.331h35.92h222.273c3.462,0,6.368-2.349,7.231-5.537c0.17-0.627,0.269-1.282,0.269-1.963
	c0-4.142-3.357-7.5-7.5-7.5H120.754c4.496-26.37,19.088-47.542,35.551-71.409c7.741-11.222,15.745-22.826,23.193-35.712
	c2.073-3.586,0.847-8.174-2.74-10.247c-3.585-2.074-8.173-0.845-10.246,2.74c-7.149,12.368-14.98,23.722-22.555,34.702
	c-17.332,25.127-33.839,49.073-38.392,79.926H63.871c-2.804,0-5.373,1.564-6.662,4.054l-32.757,63.331
	c-1.203,2.325-1.106,5.109,0.254,7.345c1.361,2.236,3.79,3.601,6.407,3.601h449.774c2.617,0,5.046-1.365,6.406-3.601
	C488.655,506.164,488.752,503.381,487.549,501.056z M200.702,24.887c7.954,2.85,18.84,8.298,27.291,18.316
	c-0.001,5.089-0.191,10.162-0.477,14.878c-2.193,0.106-10.145,0.62-20.158,2.771L200.702,24.887z"/>
<path d="M147.331,468.001c0,4.142,3.357,7.5,7.5,7.5h210.987c4.143,0,7.5-3.358,7.5-7.5s-3.357-7.5-7.5-7.5H154.831
	C150.689,460.501,147.331,463.859,147.331,468.001z"/>
<path d="M217.111,134.914c-9.58,8.871-23.868,4.514-24.127,4.433c-3.925-1.276-8.143,0.858-9.438,4.778
	c-1.3,3.933,0.834,8.175,4.767,9.475c0.451,0.149,5.906,1.897,13.257,1.897c7.691,0,17.458-1.915,25.733-9.577
	c3.039-2.814,3.222-7.56,0.407-10.599C224.896,132.283,220.151,132.099,217.111,134.914z"/>
<g>
</g>
<g>
</g>
<g>
</g>
<g>
</g>
<g>
</g>
<g>
</g>
<g>
</g>
<g>
</g>
<g>
</g>
<g>
</g>
<g>
</g>
<g>
</g>
<g>
</g>
<g>
</g>
<g>
</g>
</svg>
