<?xml version="1.0" encoding="iso-8859-1"?>
<!-- Generator: Adobe Illustrator 19.0.0, SVG Export Plug-In . SVG Version: 6.00 Build 0)  -->
<svg version="1.1" id="Capa_1" xmlns="http://www.w3.org/2000/svg" xmlns:xlink="http://www.w3.org/1999/xlink" x="0px" y="0px"
	 viewBox="0 0 512 512" style="enable-background:new 0 0 512 512;" xml:space="preserve">
<path style="fill:#A5E6FF;" d="M469.925,365.982H41.993c-17.67,0-31.995,14.325-31.995,31.995v71.988
	c0,17.67,14.325,31.995,31.995,31.995h427.931c17.67,0,31.995-14.325,31.995-31.995v-71.988
	C501.92,380.307,487.595,365.982,469.925,365.982z"/>
<g>
	<circle style="fill:#FFFFFF;" cx="257.959" cy="433.971" r="21.996"/>
	<circle style="fill:#FFFFFF;" cx="85.986" cy="433.971" r="31.995"/>
	<circle style="fill:#FFFFFF;" cx="341.945" cy="433.971" r="21.996"/>
	<circle style="fill:#FFFFFF;" cx="425.932" cy="433.971" r="21.996"/>
</g>
<g>
	<path style="fill:#C4EFFF;" d="M148.976,365.982h-47.992V125.021c0-13.253,10.743-23.996,23.996-23.996l0,0
		c13.253,0,23.996,10.743,23.996,23.996V365.982z"/>
	<path style="fill:#C4EFFF;" d="M411.016,365.982h-47.992V125.021c0-13.253,10.743-23.996,23.996-23.996l0,0
		c13.253,0,23.996,10.743,23.996,23.996V365.982z"/>
</g>
<path d="M245.961,365.982c0,2.63,1.069,5.209,2.93,7.068c1.86,1.86,4.439,2.931,7.069,2.931s5.209-1.07,7.068-2.931
	c1.86-1.859,2.931-4.438,2.931-7.068s-1.07-5.209-2.931-7.069c-1.859-1.86-4.438-2.93-7.068-2.93s-5.209,1.069-7.069,2.93
	C247.03,360.774,245.961,363.353,245.961,365.982z"/>
<path d="M469.925,355.984h-48.91v-79.987c0-5.521-4.477-9.998-9.998-9.998s-9.998,4.477-9.998,9.998v79.987h-27.996V125.021
	c0-7.719,6.279-13.998,13.998-13.998c7.719,0,13.998,6.279,13.998,13.998v69.489c0,5.521,4.477,9.998,9.998,9.998
	s9.998-4.477,9.998-9.998v-69.489c0-18.745-15.25-33.995-33.995-33.995c-18.745,0-33.995,15.25-33.995,33.995v230.963h-58.073
	c-5.521,0-9.998,4.477-9.998,9.998s4.477,9.998,9.998,9.998h174.972c12.129,0,21.996,9.867,21.996,21.996v71.988
	c0,12.129-9.867,21.996-21.996,21.996H41.993c-12.129,0-21.996-9.867-21.996-21.996v-71.988c0-12.129,9.867-21.996,21.996-21.996
	h165.973c5.521,0,9.998-4.477,9.998-9.998s-4.477-9.998-9.998-9.998h-48.992V125.021c0-18.745-15.25-33.995-33.995-33.995
	s-33.995,15.25-33.995,33.995v230.963H41.993C18.838,355.984,0,374.822,0,397.977v71.988c0,23.155,18.838,41.993,41.993,41.993
	h427.931c23.155,0,41.993-18.838,41.993-41.993v-71.988C511.918,374.822,493.08,355.984,469.925,355.984z M110.982,125.021
	c0-7.719,6.279-13.998,13.998-13.998s13.998,6.279,13.998,13.998v230.963h-27.996V125.021z"/>
<path d="M225.964,433.971c0,17.642,14.353,31.995,31.995,31.995s31.995-14.353,31.995-31.995c0-17.642-14.353-31.995-31.995-31.995
	C240.317,401.977,225.964,416.329,225.964,433.971z M269.957,433.971c0,6.616-5.382,11.998-11.998,11.998
	c-6.616,0-11.998-5.382-11.998-11.998c0-6.616,5.382-11.998,11.998-11.998C264.575,421.973,269.957,427.356,269.957,433.971z"/>
<path d="M43.993,433.971c0,23.155,18.838,41.993,41.993,41.993s41.993-18.838,41.993-41.993c0-23.155-18.838-41.993-41.993-41.993
	S43.993,410.816,43.993,433.971z M107.983,433.971c0,12.129-9.867,21.996-21.996,21.996s-21.996-9.867-21.996-21.996
	c0-12.129,9.867-21.996,21.996-21.996S107.983,421.842,107.983,433.971z"/>
<path d="M373.94,433.971c0-17.642-14.353-31.995-31.995-31.995c-17.642,0-31.995,14.353-31.995,31.995
	c0,17.642,14.353,31.995,31.995,31.995C359.587,465.966,373.94,451.614,373.94,433.971z M329.947,433.971
	c0-6.616,5.382-11.998,11.998-11.998s11.998,5.382,11.998,11.998c0,6.616-5.382,11.998-11.998,11.998
	S329.947,440.587,329.947,433.971z"/>
<path d="M457.927,433.971c0-17.642-14.353-31.995-31.995-31.995c-17.642,0-31.995,14.353-31.995,31.995
	c0,17.642,14.353,31.995,31.995,31.995C443.574,465.966,457.927,451.614,457.927,433.971z M413.934,433.971
	c0-6.616,5.382-11.998,11.998-11.998s11.998,5.382,11.998,11.998c0,6.616-5.382,11.998-11.998,11.998
	S413.934,440.587,413.934,433.971z"/>
<path d="M78.917,426.903c-1.86,1.86-2.93,4.439-2.93,7.069s1.069,5.209,2.93,7.068c1.86,1.86,4.439,2.931,7.069,2.931
	c2.63,0,5.209-1.07,7.068-2.931c1.86-1.859,2.931-4.438,2.931-7.068s-1.07-5.209-2.931-7.069c-1.859-1.86-4.438-2.93-7.068-2.93
	C83.357,423.973,80.777,425.042,78.917,426.903z"/>
<path d="M387.02,43.784c-44.795,0-81.237,36.442-81.237,81.237c0,5.521,4.477,9.998,9.998,9.998s9.998-4.477,9.998-9.998
	c0-33.768,27.473-61.24,61.24-61.24s61.24,27.473,61.24,61.24c0,5.521,4.477,9.998,9.998,9.998s9.998-4.477,9.998-9.998
	C468.257,80.226,431.815,43.784,387.02,43.784z"/>
<path d="M272.038,135.019c5.521,0,9.998-4.477,9.998-9.998c0-57.888,47.095-104.983,104.983-104.983s104.983,47.095,104.983,104.983
	c0,5.521,4.477,9.998,9.998,9.998s9.998-4.477,9.998-9.998c0-68.914-56.066-124.98-124.98-124.98s-124.98,56.066-124.98,124.98
	C262.04,130.542,266.517,135.019,272.038,135.019z"/>
<path d="M124.98,43.784c-44.795,0-81.237,36.442-81.237,81.237c0,5.521,4.477,9.998,9.998,9.998s9.998-4.477,9.998-9.998
	c0-33.768,27.473-61.24,61.24-61.24s61.24,27.473,61.24,61.24c0,5.521,4.477,9.998,9.998,9.998s9.998-4.477,9.998-9.998
	C206.217,80.226,169.775,43.784,124.98,43.784z"/>
<path d="M9.998,135.019c5.521,0,9.998-4.477,9.998-9.998c0-57.888,47.095-104.983,104.983-104.983s104.983,47.095,104.983,104.983
	c0,5.521,4.477,9.998,9.998,9.998s9.998-4.477,9.998-9.998c0-68.914-56.066-124.98-124.98-124.98S0,56.107,0,125.021
	C0,130.542,4.477,135.019,9.998,135.019z"/>
<path d="M411.014,225.005c-2.63,0-5.209,1.069-7.069,2.93c-1.86,1.861-2.93,4.439-2.93,7.069c0,2.63,1.069,5.209,2.93,7.068
	c1.86,1.86,4.439,2.931,7.069,2.931c2.63,0,5.209-1.07,7.068-2.931c1.87-1.859,2.931-4.438,2.931-7.068
	c0-2.63-1.061-5.209-2.931-7.069C416.223,226.074,413.654,225.005,411.014,225.005z"/>
<g>
</g>
<g>
</g>
<g>
</g>
<g>
</g>
<g>
</g>
<g>
</g>
<g>
</g>
<g>
</g>
<g>
</g>
<g>
</g>
<g>
</g>
<g>
</g>
<g>
</g>
<g>
</g>
<g>
</g>
</svg>
