<?xml version="1.0" encoding="iso-8859-1"?>
<!-- Generator: Adobe Illustrator 19.0.0, SVG Export Plug-In . SVG Version: 6.00 Build 0)  -->
<svg version="1.1" id="Capa_1" xmlns="http://www.w3.org/2000/svg" xmlns:xlink="http://www.w3.org/1999/xlink" x="0px" y="0px"
	 viewBox="0 0 512 512" style="enable-background:new 0 0 512 512;" xml:space="preserve">
<path style="fill:#A5E6FF;" d="M338.514,427.452H173.485c-28.782,28.782-44.918,44.918-73.7,73.7l0,0h312.43l0,0
	C383.432,472.37,367.295,456.233,338.514,427.452z"/>
<circle style="fill:#F2FBFF;" cx="255.997" cy="219.167" r="208.287"/>
<circle style="fill:#C4EFFF;" cx="255.997" cy="219.167" r="112.822"/>
<circle style="fill:#72D8FF;" cx="255.997" cy="219.167" r="34.714"/>
<path d="M108.718,82.732c2.752,0,5.507-1.041,7.62-3.126l0.241-0.24c4.264-4.209,4.31-11.077,0.102-15.343
	c-4.21-4.266-11.079-4.308-15.343-0.102l-0.241,0.24c-4.264,4.209-4.31,11.077-0.102,15.343
	C103.12,81.655,105.919,82.732,108.718,82.732z"/>
<path d="M132.33,219.165c0,68.191,55.479,123.67,123.67,123.67s123.67-55.479,123.67-123.67S324.191,95.495,256,95.495
	S132.33,150.973,132.33,219.165z M256,117.191c56.229,0,101.974,45.745,101.974,101.974S312.229,321.139,256,321.139
	s-101.974-45.745-101.974-101.974S199.771,117.191,256,117.191z"/>
<path d="M210.437,219.165c0,25.123,20.439,45.563,45.563,45.563s45.563-20.439,45.563-45.563S281.123,173.602,256,173.602
	S210.437,194.041,210.437,219.165z M279.866,219.165c0,13.16-10.706,23.866-23.866,23.866c-13.16,0-23.866-10.706-23.866-23.866
	S242.84,195.299,256,195.299C269.16,195.299,279.866,206.005,279.866,219.165z"/>
<path d="M494.216,490.303h-77.508l-70.523-70.523c-0.214-0.214-0.439-0.412-0.669-0.605c23.745-10.596,45.981-25.604,65.436-45.058
	c85.441-85.441,85.441-224.464,0-309.904c-74.459-74.458-191.522-85.467-278.349-26.181c-4.949,3.378-6.22,10.129-2.842,15.076
	c3.379,4.95,10.13,6.221,15.076,2.842c78.22-53.409,183.686-43.482,250.774,23.606c76.981,76.981,76.981,202.239,0,279.22
	c-76.98,76.983-202.24,76.983-279.22,0c-66.036-66.036-76.679-170.434-25.308-248.239c3.301-4.999,1.924-11.729-3.075-15.029
	c-4.996-3.302-11.73-1.924-15.029,3.075c-27.407,41.509-39.876,91.789-35.109,141.582c4.832,50.469,27.269,98.042,63.18,133.953
	c19.454,19.454,41.691,34.463,65.436,45.058c-0.229,0.193-0.455,0.392-0.669,0.605l-70.523,70.522H17.783
	c-5.99,0-10.848,4.858-10.848,10.848S11.793,512,17.783,512h476.434c5.99,0,10.848-4.858,10.848-10.848
	S500.207,490.303,494.216,490.303z M125.975,490.303l52.003-52.004H334.02l52.004,52.004H125.975z"/>
<path d="M211.391,456.729c-2.853,0-5.652,1.151-7.67,3.18c-2.017,2.017-3.179,4.816-3.179,7.669c0,2.853,1.161,5.652,3.179,7.67
	c2.018,2.018,4.817,3.179,7.67,3.179s5.652-1.16,7.67-3.179c2.017-2.018,3.179-4.817,3.179-7.67c0-2.864-1.161-5.652-3.179-7.669
	C217.043,457.879,214.244,456.729,211.391,456.729z"/>
<path d="M256,456.729c-2.853,0-5.652,1.151-7.67,3.18c-2.018,2.017-3.179,4.806-3.179,7.669c0,2.853,1.16,5.652,3.179,7.67
	c2.019,2.018,4.817,3.179,7.67,3.179s5.641-1.16,7.669-3.179c2.018-2.018,3.18-4.817,3.18-7.67c0-2.853-1.161-5.652-3.18-7.669
	C261.652,457.879,258.852,456.729,256,456.729z"/>
<path d="M300.608,456.729c-2.865,0-5.652,1.151-7.67,3.18c-2.018,2.017-3.179,4.816-3.179,7.669c0,2.853,1.16,5.652,3.179,7.67
	s4.806,3.179,7.67,3.179c2.853,0,5.64-1.16,7.669-3.179c2.018-2.018,3.18-4.817,3.18-7.67c0-2.853-1.161-5.652-3.18-7.669
	C306.26,457.879,303.461,456.729,300.608,456.729z"/>
<path d="M263.811,61.939c2.017-2.017,3.179-4.816,3.179-7.669c0-2.854-1.161-5.653-3.179-7.67c-2.029-2.018-4.817-3.179-7.67-3.179
	c-2.853,0-5.652,1.16-7.67,3.179c-2.029,2.017-3.179,4.816-3.179,7.67c0,2.853,1.15,5.652,3.179,7.669
	c2.018,2.018,4.807,3.18,7.67,3.18C258.993,65.119,261.792,63.957,263.811,61.939z"/>
<path d="M182.955,230.013c5.99,0,10.848-4.858,10.848-10.848c0-21.951,11.227-41.856,30.03-53.244
	c5.125-3.104,6.763-9.774,3.659-14.899c-3.104-5.124-9.773-6.762-14.899-3.659c-25.351,15.354-40.486,42.195-40.486,71.802
	C172.107,225.156,176.964,230.013,182.955,230.013z"/>
<path d="M255.66,156.969H256c5.99,0,10.848-4.858,10.848-10.848c0-5.99-4.858-10.848-10.848-10.848h-0.34
	c-5.99,0-10.848,4.858-10.848,10.848C244.812,152.111,249.67,156.969,255.66,156.969z"/>
<g>
</g>
<g>
</g>
<g>
</g>
<g>
</g>
<g>
</g>
<g>
</g>
<g>
</g>
<g>
</g>
<g>
</g>
<g>
</g>
<g>
</g>
<g>
</g>
<g>
</g>
<g>
</g>
<g>
</g>
</svg>
