<?xml version="1.0" encoding="iso-8859-1"?>
<!-- Generator: Adobe Illustrator 19.0.0, SVG Export Plug-In . SVG Version: 6.00 Build 0)  -->
<svg version="1.1" id="Capa_1" xmlns="http://www.w3.org/2000/svg" xmlns:xlink="http://www.w3.org/1999/xlink" x="0px" y="0px"
	 viewBox="0 0 512.001 512.001" style="enable-background:new 0 0 512.001 512.001;" xml:space="preserve">
<path style="fill:#C4EFFF;" d="M291.935,50.001H30.004c-11.046,0-20,8.954-20,20v412c0,11.046,8.954,20,20,20h261.931
	c11.046,0,20-8.954,20-20v-412C311.935,58.955,302.981,50.001,291.935,50.001z"/>
<rect x="10" y="104" style="fill:#FFFFFF;" width="301.93" height="344"/>
<path style="fill:#FBDEC1;" d="M116.969,502.001V328.385c0-24.301,19.699-44,44-44l0,0c24.301,0,44,19.699,44,44V502h-88V502.001z"
	/>
<path style="fill:#EAF9FF;" d="M378.998,10L378.998,10c-67.931,0-123,55.069-123,123l0,0c0,67.931,55.069,123,123,123l0,0
	c67.931,0,123-55.069,123-123l0,0C501.998,65.069,446.929,10,378.998,10z"/>
<path style="fill:#FE8F8D;" d="M359.108,124.937c-1.135-1.135-1.135-2.976,0-4.111l3.947-3.947c7.998-7.998,7.998-20.965,0-28.962
	l-18.371-18.371c-4.928-4.928-12.918-4.928-17.846,0l0,0c-19.988,19.988-19.988,52.394,0,72.381l43.231,43.231
	c19.988,19.988,52.394,19.988,72.381,0l0,0c4.928-4.928,4.928-12.918,0-17.846l-18.371-18.371c-7.998-7.998-20.965-7.998-28.962,0
	l-3.947,3.947c-1.135,1.135-2.976,1.135-4.111,0L359.108,124.937z"/>
<path d="M304.868,281.931c-1.87,1.86-2.931,4.44-2.931,7.07s1.061,5.21,2.931,7.069c1.859,1.86,4.439,2.931,7.069,2.931
	s5.21-1.07,7.07-2.931c1.86-1.859,2.93-4.439,2.93-7.069s-1.069-5.21-2.93-7.07s-4.44-2.93-7.07-2.93
	C309.297,279.001,306.727,280.07,304.868,281.931z"/>
<path d="M180.469,312.617c-5.522,0-10,4.478-10,10v28.837h-19v-28.837c0-5.522-4.478-10-10-10s-10,4.478-10,10v34.125
	c0,8.112,6.601,14.712,14.713,14.712h29.575c8.112,0,14.712-6.6,14.712-14.712v-34.125
	C190.469,317.095,185.992,312.617,180.469,312.617z"/>
<path d="M95.26,260.472c-3.905,3.905-3.905,10.237,0,14.143c3.906,3.904,10.236,3.904,14.143,0
	c28.434-28.434,74.699-28.434,103.133,0c1.953,1.952,4.512,2.929,7.071,2.929s5.118-0.977,7.071-2.929
	c3.905-3.905,3.905-10.237,0-14.143C190.446,224.239,131.493,224.239,95.26,260.472z"/>
<path d="M66.169,230.86l-0.261,0.26c-3.905,3.905-3.905,10.237,0,14.143c1.953,1.952,4.512,2.929,7.071,2.929
	s5.118-0.977,7.071-2.929l0.261-0.26c3.905-3.905,3.905-10.237,0-14.143C76.406,226.956,70.076,226.956,66.169,230.86z"/>
<path d="M248.958,248.191c2.56,0,5.118-0.977,7.071-2.929c3.905-3.905,3.905-10.237,0-14.143
	c-21.007-21.007-47.634-34.203-77.004-38.163c-28.42-3.833-57.833,1.632-82.827,15.384c-4.839,2.663-6.604,8.743-3.941,13.582
	c2.663,4.84,8.746,6.603,13.582,3.941c44.306-24.378,100.249-16.399,136.048,19.398C243.84,247.215,246.399,248.191,248.958,248.191
	z"/>
<path d="M431.152,141.871c-5.757-5.757-13.411-8.928-21.553-8.928c-7.636,0-14.843,2.789-20.458,7.886l-17.973-17.974
	c10.829-11.948,10.482-30.484-1.042-42.01l-18.371-18.371c-8.818-8.816-23.166-8.816-31.988,0c-23.854,23.855-23.854,62.67,0,86.524
	l43.231,43.23c11.556,11.556,26.92,17.92,43.262,17.92s31.706-6.364,43.261-17.92c4.273-4.271,6.626-9.952,6.626-15.994
	c0-6.041-2.353-11.722-6.625-15.994L431.152,141.871z M435.379,178.087c-7.778,7.778-18.119,12.063-29.119,12.063
	s-21.341-4.284-29.119-12.063l-43.231-43.23c-16.057-16.056-16.057-42.183-0.001-58.239c0.511-0.511,1.182-0.766,1.853-0.766
	s1.342,0.255,1.852,0.766l18.371,18.371c4.086,4.085,4.086,10.733,0,14.819l-3.944,3.944c-2.439,2.438-3.783,5.681-3.783,9.13
	c0,3.447,1.343,6.688,3.78,9.127l27.955,27.955c5.031,5.025,13.216,5.026,18.251-0.003l3.947-3.948
	c1.979-1.979,4.61-3.069,7.409-3.069s5.431,1.091,7.41,3.07l18.37,18.37c0.635,0.634,0.768,1.357,0.768,1.852
	C436.147,176.73,436.014,177.453,435.379,178.087z"/>
<path d="M378.998,0c-37.171,0-70.823,15.334-94.98,40.001H30.003c-16.542,0-30,13.458-30,30v412c0,16.542,13.458,30,30,30h41.981
	c5.522,0,10-4.478,10-10s-4.478-10-10-10H30.003c-5.514,0-10-4.486-10-10v-24h86.231c0.248,0,0.491-0.019,0.734-0.037v44.037
	c0,5.522,4.478,10,10,10s10-4.478,10-10V328.386c0-18.748,15.252-34,34-34s34,15.252,34,34v173.615c0,5.522,4.478,10,10,10
	s10-4.478,10-10v-44h86.966v24c0,5.514-4.486,10-10,10h-45.938c-5.522,0-10,4.478-10,10s4.478,10,10,10h45.938
	c16.542,0,30-13.458,30-30V329.119c0-5.522-4.478-10-10-10s-10,4.478-10,10v108.882h-86.966V328.386c0-29.775-24.225-54-54-54
	s-54,24.225-54,54v109.652c-0.243-0.018-0.486-0.037-0.734-0.037H20.003v-324h203.981c5.522,0,10-4.478,10-10s-4.478-10-10-10
	H20.003v-24c0-5.514,4.486-10,10-10h237.875c-13.823,20.97-21.881,46.059-21.881,72.999c0,73.337,59.663,133,133,133
	s133-59.663,133-133S452.335,0,378.998,0z M378.998,246c-62.309,0-113-50.691-113-113s50.691-113,113-113s113,50.691,113,113
	S441.306,246,378.998,246z"/>
<g>
</g>
<g>
</g>
<g>
</g>
<g>
</g>
<g>
</g>
<g>
</g>
<g>
</g>
<g>
</g>
<g>
</g>
<g>
</g>
<g>
</g>
<g>
</g>
<g>
</g>
<g>
</g>
<g>
</g>
</svg>
