<?xml version="1.0" encoding="iso-8859-1"?>
<!-- Generator: Adobe Illustrator 19.0.0, SVG Export Plug-In . SVG Version: 6.00 Build 0)  -->
<svg version="1.1" id="Capa_1" xmlns="http://www.w3.org/2000/svg" xmlns:xlink="http://www.w3.org/1999/xlink" x="0px" y="0px"
	 viewBox="0 0 512 512" style="enable-background:new 0 0 512 512;" xml:space="preserve">
<rect x="132" y="132" style="fill:#C4EFFF;" width="248" height="248"/>
<rect x="172" y="172" style="fill:#FFFFFF;" width="168" height="168"/>
<circle style="fill:#C1EE92;" cx="429.95" cy="82.05" r="24"/>
<g>
	<circle style="fill:#C4EFFF;" cx="338.09" cy="34" r="24"/>
	<circle style="fill:#C4EFFF;" cx="390.01" cy="461.94" r="24"/>
</g>
<circle style="fill:#C1EE92;" cx="470.05" cy="376.4" r="24"/>
<path d="M365.965,437.896c-8.537,8.537-11.567,20.521-9.108,31.513C325.254,484.391,291.354,492,256,492
	C125.869,492,20,386.131,20,256c0-61.345,23.421-119.461,65.95-163.645c3.83-3.979,3.709-10.31-0.27-14.14
	s-10.311-3.709-14.14,0.271C25.407,126.415,0,189.457,0,256c0,68.38,26.629,132.667,74.981,181.02
	C123.333,485.371,187.62,512,256,512c38.872,0,76.132-8.492,110.829-25.199c6.511,6.075,14.842,9.12,23.177,9.12
	c8.707,0,17.413-3.313,24.041-9.941l0,0c13.256-13.257,13.256-34.827,0-48.084C400.792,424.64,379.222,424.64,365.965,437.896z
	 M399.906,471.837c-5.458,5.458-14.341,5.458-19.799,0c-5.459-5.458-5.459-14.341,0-19.799c2.729-2.729,6.314-4.094,9.9-4.094
	c3.584,0,7.17,1.364,9.899,4.094C405.364,457.496,405.364,466.379,399.906,471.837z"/>
<path d="M493.469,351.767C505.76,321.354,512,289.18,512,256c0-56.44-18.814-111.544-53.116-156.107
	c8.078-13.102,6.453-30.536-4.894-41.884c-13.256-13.255-34.826-13.257-48.083,0c-13.256,13.257-13.256,34.827,0,48.084
	c6.628,6.628,15.335,9.941,24.042,9.941c4.731,0,9.459-0.987,13.857-2.944C474.939,153.992,492,204.388,492,256
	c0,30.081-5.564,59.253-16.515,86.861c-10.415-1.672-21.462,1.489-29.474,9.5c-13.256,13.257-13.256,34.827,0,48.084
	c6.628,6.628,15.334,9.941,24.041,9.941c8.707,0,17.414-3.313,24.042-9.941l0,0c13.256-13.257,13.256-34.827,0-48.084
	C493.89,352.157,493.678,351.965,493.469,351.767z M420.049,91.951c-5.458-5.458-5.458-14.341,0-19.799
	c2.73-2.729,6.314-4.094,9.9-4.094c3.585,0,7.17,1.364,9.899,4.094c5.458,5.458,5.458,14.341,0,19.799
	c-0.044,0.044-0.092,0.08-0.136,0.124c-0.004,0.003-0.008,0.005-0.011,0.008c-0.087,0.072-0.163,0.151-0.247,0.225
	C433.97,97.392,425.381,97.284,420.049,91.951z M479.953,386.303c-5.458,5.458-14.34,5.46-19.799,0
	c-5.458-5.458-5.458-14.341,0-19.799c2.729-2.729,6.314-4.094,9.9-4.094c2.065,0,4.125,0.469,6.027,1.375
	c0.301,0.178,0.613,0.343,0.938,0.491c1.048,0.601,2.04,1.334,2.934,2.228C485.412,371.962,485.412,380.845,479.953,386.303z"/>
<path d="M144.239,46.801c1.531,0,3.085-0.353,4.542-1.097C182.163,28.648,218.236,20,256,20c16.624,0,33.156,1.737,49.278,5.158
	c-3.039,11.357-0.122,23.99,8.772,32.884c6.628,6.628,15.334,9.941,24.042,9.941c8.707,0,17.413-3.313,24.041-9.941l0,0
	c13.256-13.257,13.256-34.827,0-48.084c-12.308-12.308-31.781-13.18-45.114-2.632C297.148,2.468,276.636,0,256,0
	c-40.958,0-80.093,9.385-116.319,27.894c-4.918,2.513-6.868,8.537-4.355,13.455C137.094,44.81,140.601,46.801,144.239,46.801z
	 M338.091,20.007c3.584,0,7.17,1.364,9.899,4.094c5.458,5.458,5.458,14.341,0,19.799s-14.341,5.458-19.799,0
	c-5.459-5.458-5.459-14.341,0-19.799C330.921,21.371,334.506,20.007,338.091,20.007z"/>
<path d="M109.331,68.493c2.033,0,4.084-0.618,5.857-1.901c0.03-0.022,0.055-0.04,0.085-0.063c4.473-3.239,5.473-9.491,2.234-13.965
	c-3.24-4.473-9.491-5.473-13.965-2.234c-0.023,0.018-0.083,0.061-0.118,0.087c-4.445,3.246-5.432,9.479-2.201,13.94
	C103.179,67.059,106.232,68.493,109.331,68.493z"/>
<path d="M172,350h168c5.523,0,10-4.478,10-10V172c0-5.522-4.477-10-10-10H172c-5.523,0-10,4.478-10,10v168
	C162,345.522,166.477,350,172,350z M182,182h148v148H182V182z"/>
<path d="M419,194c5.523,0,10-4.478,10-10s-4.477-10-10-10h-29v-42c0-5.522-4.477-10-10-10h-42V93c0-5.522-4.477-10-10-10
	s-10,4.478-10,10v29h-28V93c0-5.522-4.477-10-10-10s-10,4.478-10,10v29h-28V93c0-5.522-4.477-10-10-10s-10,4.478-10,10v29h-28V93
	c0-5.522-4.477-10-10-10s-10,4.478-10,10v29h-42c-5.523,0-10,4.478-10,10v42H93c-5.523,0-10,4.478-10,10s4.477,10,10,10h29v28H93
	c-5.523,0-10,4.478-10,10s4.477,10,10,10h29v28H93c-5.523,0-10,4.478-10,10s4.477,10,10,10h29v28H93c-5.523,0-10,4.478-10,10
	s4.477,10,10,10h29v42c0,5.522,4.477,10,10,10h42v29c0,5.522,4.477,10,10,10s10-4.478,10-10v-29h28v29c0,5.522,4.477,10,10,10
	s10-4.478,10-10v-29h28v29c0,5.522,4.477,10,10,10s10-4.478,10-10v-29h28v29c0,5.522,4.477,10,10,10s10-4.478,10-10v-29h42
	c5.523,0,10-4.478,10-10v-42h29c5.523,0,10-4.478,10-10s-4.477-10-10-10h-29v-28h29c5.523,0,10-4.478,10-10s-4.477-10-10-10h-29v-28
	h29c5.523,0,10-4.478,10-10s-4.477-10-10-10h-29v-28H419z M370,370H142V142h228V370z"/>
<path d="M296,206h-41.195c-5.523,0-10,4.478-10,10s4.477,10,10,10H296c5.523,0,10-4.478,10-10S301.523,206,296,206z"/>
<path d="M210.67,226c2.63,0,5.21-1.07,7.07-2.931c1.86-1.859,2.93-4.439,2.93-7.069s-1.07-5.21-2.93-7.07s-4.44-2.93-7.07-2.93
	c-2.64,0-5.21,1.069-7.07,2.93c-1.87,1.86-2.93,4.44-2.93,7.07s1.06,5.21,2.93,7.069C205.46,224.93,208.04,226,210.67,226z"/>
<path d="M296,246h-85.333c-5.523,0-10,4.478-10,10s4.477,10,10,10H296c5.523,0,10-4.478,10-10S301.523,246,296,246z"/>
<path d="M210.67,286c-2.63,0-5.21,1.069-7.08,2.93c-1.86,1.86-2.92,4.44-2.92,7.07s1.06,5.21,2.92,7.069
	c1.87,1.86,4.45,2.931,7.08,2.931s5.21-1.07,7.07-2.931c1.86-1.859,2.93-4.439,2.93-7.069s-1.07-5.21-2.93-7.07
	S213.3,286,210.67,286z"/>
<path d="M251.86,286c-2.63,0-5.21,1.069-7.07,2.93c-1.86,1.86-2.93,4.44-2.93,7.07s1.07,5.21,2.93,7.069
	c1.86,1.86,4.44,2.931,7.07,2.931c2.64,0,5.21-1.07,7.07-2.931c1.86-1.859,2.93-4.439,2.93-7.069c0-2.641-1.07-5.21-2.93-7.07
	C257.07,287.069,254.49,286,251.86,286z"/>
<path d="M296,286c-2.63,0-5.21,1.069-7.07,2.93c-1.86,1.86-2.93,4.43-2.93,7.07c0,2.63,1.07,5.21,2.93,7.069
	c1.86,1.86,4.44,2.931,7.07,2.931s5.21-1.07,7.07-2.931c1.86-1.859,2.93-4.439,2.93-7.069c0-2.641-1.07-5.21-2.93-7.07
	S298.63,286,296,286z"/>
<g>
</g>
<g>
</g>
<g>
</g>
<g>
</g>
<g>
</g>
<g>
</g>
<g>
</g>
<g>
</g>
<g>
</g>
<g>
</g>
<g>
</g>
<g>
</g>
<g>
</g>
<g>
</g>
<g>
</g>
</svg>
