<?xml version="1.0" encoding="iso-8859-1"?>
<!-- Generator: Adobe Illustrator 19.0.0, SVG Export Plug-In . SVG Version: 6.00 Build 0)  -->
<svg version="1.1" id="Capa_1" xmlns="http://www.w3.org/2000/svg" xmlns:xlink="http://www.w3.org/1999/xlink" x="0px" y="0px"
	 viewBox="0 0 512 512" style="enable-background:new 0 0 512 512;" xml:space="preserve">
<path style="fill:#FE8F8D;" d="M256,10l200,92c0,0,0,96.444,0,150.48c-2.009,87.648-9.176,161.448-200,249.52
	C65.177,413.929,58.009,340.129,56,252.481C56,198.445,56,102,56,102L256,10z"/>
<path style="fill:#FFFFFF;" d="M100,251.971c0.94,40.526,3.145,71.567,22.242,101.372c21.655,33.798,65.507,66.59,133.758,99.953
	c68.251-33.363,112.103-66.155,133.758-99.953c19.098-29.805,21.302-60.846,22.242-101.372V130.193L256,58.432l-156,71.761V251.971z
	"/>
<g>
	<path style="fill:#C4EFFF;" d="M266.022,234.979L266.022,234.979c-14.057-14.057-14.057-36.847,0-50.904l26.865-26.865
		c14.057-14.057,36.847-14.057,50.904,0l0,0c14.057,14.057,14.057,36.847,0,50.904l-26.865,26.865
		C302.869,249.036,280.078,249.036,266.022,234.979z"/>
	<path style="fill:#C4EFFF;" d="M168.21,332.791L168.21,332.791c-14.057-14.057-14.057-36.847,0-50.904l26.721-26.721
		c14.057-14.057,36.847-14.057,50.904,0l0,0c14.057,14.057,14.057,36.847,0,50.904l-26.721,26.721
		C205.057,346.848,182.266,346.848,168.21,332.791z"/>
</g>
<path d="M460.179,92.916l-200-92c-2.652-1.221-5.706-1.221-8.358,0l-200,92C48.273,94.547,46,98.095,46,102v150.48
	c0,0.076,0.001,0.152,0.002,0.229c1.063,46.381,4.113,88.16,30.772,129.767c29.681,46.323,85.3,87.188,175.035,128.604
	c1.329,0.613,2.76,0.92,4.19,0.92s2.861-0.307,4.19-0.92c89.735-41.416,145.354-82.28,175.035-128.604
	c26.66-41.606,29.709-83.386,30.772-129.767c0.001-0.077,0.002-0.153,0.002-0.229v-34.415c0-5.522-4.477-10-10-10s-10,4.478-10,10
	v34.301c-1.03,44.804-3.732,82.048-27.614,119.32C391.304,413.953,339.65,451.917,256,490.975
	c-83.649-39.059-135.304-77.022-162.386-119.288C69.733,334.415,67.031,297.17,66,252.367V108.408l190-87.4l190,87.4V134.5
	c0,5.522,4.477,10,10,10s10-4.478,10-10V102C466,98.095,463.727,94.547,460.179,92.916z"/>
<path d="M456,166.291c-2.63,0-5.21,1.069-7.07,2.93c-1.86,1.86-2.93,4.43-2.93,7.07c0,2.63,1.07,5.21,2.93,7.069
	c1.86,1.86,4.44,2.931,7.07,2.931s5.21-1.07,7.07-2.931c1.86-1.859,2.93-4.439,2.93-7.069c0-2.641-1.07-5.21-2.93-7.07
	S458.63,166.291,456,166.291z"/>
<path d="M260.179,49.347c-2.652-1.221-5.706-1.221-8.358,0l-156,71.761c-3.548,1.632-5.821,5.18-5.821,9.085v121.778
	c0,0.077,0.001,0.154,0.003,0.232c0.946,40.775,3.301,74.513,23.819,106.534c22.718,35.456,67.788,69.325,137.786,103.543
	c1.385,0.677,2.889,1.016,4.392,1.016s3.006-0.339,4.392-1.016c69.998-34.218,115.068-68.087,137.786-103.542
	c20.519-32.022,22.874-65.76,23.819-106.535c0.002-0.078,0.003-0.155,0.003-0.232V130.193c0-3.905-2.273-7.453-5.821-9.085
	L260.179,49.347z M402,251.855c-0.903,38.801-2.926,68.414-20.662,96.094C361.113,379.514,320.089,410.354,256,442.15
	c-64.089-31.796-105.112-62.636-125.338-94.202c-17.736-27.679-19.759-57.292-20.662-96.093V136.6l146-67.161L402,136.6V251.855z"/>
<path d="M252.656,234.203l-7.604,7.604c-17.782-11.305-41.687-9.217-57.192,6.288l-26.72,26.721
	c-8.688,8.688-13.472,20.237-13.472,32.523s4.785,23.836,13.472,32.523c8.967,8.967,20.745,13.45,32.523,13.45
	s23.556-4.483,32.523-13.45l26.72-26.721c8.688-8.688,13.472-20.237,13.472-32.523c0-8.879-2.511-17.368-7.177-24.676l7.605-7.605
	c7.498,4.767,16.081,7.162,24.668,7.162c11.778,0,23.557-4.483,32.523-13.45l26.865-26.865c8.688-8.688,13.472-20.237,13.472-32.523
	s-4.785-23.836-13.472-32.523c-17.934-17.934-47.113-17.934-65.046,0l-26.865,26.865c-8.688,8.688-13.472,20.237-13.472,32.523
	C245.479,218.407,247.99,226.895,252.656,234.203z M246.377,280.619c0,6.943-2.704,13.472-7.614,18.381l-26.721,26.721
	c-10.134,10.135-26.626,10.135-36.761,0l0,0c-4.91-4.909-7.614-11.438-7.614-18.381s2.704-13.472,7.614-18.381l26.721-26.721
	c4.91-4.91,11.437-7.613,18.38-7.613c3.454,0,6.805,0.67,9.905,1.947l-12.291,12.291c-3.905,3.905-3.905,10.237,0,14.143
	c1.953,1.952,4.512,2.929,7.071,2.929s5.119-0.977,7.071-2.929l12.291-12.291C245.707,273.814,246.377,277.165,246.377,280.619z
	 M273.093,191.146l26.865-26.865c5.067-5.067,11.724-7.602,18.38-7.602c6.657,0,13.313,2.534,18.381,7.602
	c4.91,4.909,7.614,11.438,7.614,18.381s-2.704,13.472-7.614,18.381l-26.865,26.865c-4.91,4.91-11.437,7.613-18.38,7.613
	c-3.454,0-6.804-0.67-9.905-1.947l11.83-11.83c3.905-3.905,3.905-10.237,0-14.143c-3.905-3.904-10.237-3.904-14.143,0l-11.83,11.831
	c-1.277-3.101-1.947-6.452-1.947-9.906C265.479,202.583,268.183,196.055,273.093,191.146z"/>
<g>
</g>
<g>
</g>
<g>
</g>
<g>
</g>
<g>
</g>
<g>
</g>
<g>
</g>
<g>
</g>
<g>
</g>
<g>
</g>
<g>
</g>
<g>
</g>
<g>
</g>
<g>
</g>
<g>
</g>
</svg>
