<?xml version="1.0" encoding="iso-8859-1"?>
<!-- Generator: Adobe Illustrator 19.0.0, SVG Export Plug-In . SVG Version: 6.00 Build 0)  -->
<svg version="1.1" id="Capa_1" xmlns="http://www.w3.org/2000/svg" xmlns:xlink="http://www.w3.org/1999/xlink" x="0px" y="0px"
	 viewBox="0 0 512 512" style="enable-background:new 0 0 512 512;" xml:space="preserve">
<path style="fill:#DDF6FF;" d="M502,454H10l0,0c0,26.51,21.49,48,48,48h396C480.51,502,502,480.51,502,454L502,454z"/>
<path style="fill:#E5F8D2;" d="M296.004,162.232V134.34c0-17.145-12.22-31.854-29.074-34.997l-22.246-4.149l-65.44,0.015
	l-22.166,4.134c-16.854,3.143-29.074,17.853-29.074,34.997v27.892H296.004z"/>
<path style="fill:#FBDEC1;" d="M213.083,9.994h-2.158c-22.6,0-40.921,18.321-40.921,40.921v18.958
	c0,22.6,18.321,40.921,40.921,40.921h2.158c22.6,0,40.921-18.321,40.921-40.921V50.915C254.004,28.315,235.683,9.994,213.083,9.994z
	"/>
<path style="fill:#DAF5FF;" d="M380.636,256h98.727C491.865,256,502,245.865,502,233.364v-75.273
	c0-12.502-10.135-22.636-22.636-22.636h-98.727c-12.502,0-22.636,10.135-22.636,22.636v75.273C358,245.865,368.135,256,380.636,256z
	"/>
<g>
	<polyline style="fill:#A5E6FF;" points="360.182,218.909 397.682,181.409 466.682,250.409 	"/>
	<polyline style="fill:#A5E6FF;" points="430,211 468.66,172.34 497.16,200.84 	"/>
</g>
<path style="fill:#A0E557;" d="M472.273,256l-74.591-74.591L358,221.091v11.728C358,245.621,368.379,256,381.181,256H472.273z"/>
<path style="fill:#E5F8D2;" d="M428.636,212.364l40.023-40.023l33.34,33.34v27.683C502,245.866,491.866,256,479.364,256h-7.091
	L428.636,212.364"/>
<path style="fill:#FE8F8D;" d="M10,241.935v91.091c0,5.487,4.448,9.935,9.935,9.935h17.316L57.12,362.83l19.869-19.869h75.076
	c5.487,0,9.935-4.448,9.935-9.935v-91.091c0-5.487-4.448-9.935-9.935-9.935H19.935C14.448,232,10,236.448,10,241.935z"/>
<path style="fill:#DAF5FF;" d="M332.091,324.507c0-18.58-45.091-31-45.091-31v-37.519c0,0,45.091,12.42,45.091,31V324.507z"/>
<ellipse transform="matrix(-0.7071 -0.7071 0.7071 -0.7071 208.3079 779.3517)" style="fill:#A8E7FF;" cx="265.563" cy="346.534" rx="20.317" ry="22.574"/>
<path d="M128.014,172.232h167.979c5.523,0,10-4.478,10-10v-27.005c0-22.468-16.031-41.765-38.118-45.884l-7.544-1.407
	c2.357-5.929,3.668-12.384,3.668-19.144V51.995C263.999,23.325,240.674,0,212.004,0l0,0c-28.67,0-51.995,23.325-51.995,51.995
	v16.798c0,6.759,1.31,13.214,3.667,19.144l-7.544,1.407c-22.087,4.119-38.118,23.416-38.118,45.884v27.005
	C118.014,167.755,122.491,172.232,128.014,172.232z M180.009,51.995c0-17.643,14.353-31.995,31.995-31.995
	s31.995,14.353,31.995,31.995v16.798c0,17.643-14.353,31.995-31.995,31.995s-31.995-14.353-31.995-31.995V51.995z M138.014,135.228
	c0-12.841,9.162-23.869,21.785-26.224l15.964-2.978c9.373,9.125,22.158,14.762,36.241,14.762s26.868-5.637,36.24-14.762
	l15.964,2.978c12.623,2.354,21.785,13.383,21.785,26.224v17.005H138.014V135.228z"/>
<path d="M502,444H297v-38c0-5.522-4.477-10-10-10s-10,4.478-10,10v38h-38c-5.523,0-10,4.478-10,10s4.477,10,10,10h251.665
	c-4.4,16.118-19.171,28-36.665,28H58c-17.494,0-32.265-11.882-36.665-28H162c5.523,0,10-4.478,10-10s-4.477-10-10-10H96v-56.361
	c0-5.522-4.477-10-10-10s-10,4.478-10,10V444H10c-5.523,0-10,4.478-10,10c0,31.981,26.019,58,58,58h396c31.981,0,58-26.019,58-58
	C512,448.478,507.523,444,502,444z"/>
<path d="M191.52,446.93c-1.86,1.86-2.93,4.44-2.93,7.07s1.07,5.21,2.93,7.069c1.86,1.86,4.44,2.931,7.07,2.931s5.21-1.07,7.07-2.931
	c1.86-1.859,2.93-4.439,2.93-7.069s-1.07-5.21-2.93-7.07c-1.86-1.86-4.44-2.93-7.07-2.93S193.38,445.069,191.52,446.93z"/>
<path d="M479.364,125.454h-98.728c-17.996,0-32.636,14.641-32.636,32.637v75.272C348,251.359,362.641,266,380.636,266h98.728
	C497.359,266,512,251.359,512,233.363v-75.272C512,140.095,497.359,125.454,479.364,125.454z M380.636,145.454h98.728
	c6.968,0,12.636,5.669,12.636,12.637v23.448l-16.27-16.269c-3.904-3.905-10.236-3.904-14.142,0l-32.953,32.952l-23.883-23.883
	c-3.905-3.904-10.237-3.904-14.143,0L368,196.948v-38.857C368,151.123,373.668,145.454,380.636,145.454z M368,233.363v-8.13
	l29.682-29.682L448.13,246h-67.494C373.668,246,368,240.331,368,233.363z M479.364,246h-3.714c-0.472-0.96-1.098-1.864-1.897-2.662
	l-30.975-30.975l25.881-25.881l23.34,23.34v23.541C492,240.331,486.332,246,479.364,246z"/>
<path d="M19.935,352.96h13.174L50.05,369.9c1.953,1.952,4.512,2.929,7.071,2.929s5.119-0.977,7.071-2.929l16.94-16.94h70.934
	c10.992,0,19.935-8.942,19.935-19.935v-91.091c0-10.992-8.942-19.935-19.935-19.935H19.935C8.942,222,0,230.942,0,241.935v91.091
	C0,344.018,8.942,352.96,19.935,352.96z M20,242h132v90.96H76.989c-2.652,0-5.196,1.054-7.071,2.929L57.12,348.688l-12.799-12.799
	c-1.875-1.875-4.418-2.929-7.071-2.929H20V242z"/>
<path d="M280.94,248.032c-2.482,1.892-3.94,4.834-3.94,7.955v21.68v15.84v22.978c-10.899-3.439-23.752-0.499-32.87,8.618
	c-12.701,12.7-13.417,32.649-1.596,44.471c5.632,5.632,13.108,8.417,20.768,8.417c8.417,0,17.053-3.364,23.703-10.014
	c6.86-6.86,10.216-15.833,9.996-24.5v-35.994c2.678,1.055,5.561,2.284,8.422,3.67c13.675,6.623,16.669,11.885,16.669,13.354
	c0,5.522,4.477,10,10,10s10-4.478,10-10v-37.519c0-11.876-9.49-22.467-28.208-31.479c-11.948-5.753-23.732-9.027-24.229-9.163
	C286.647,245.518,283.423,246.143,280.94,248.032z M256.676,355.432c-4.022-4.022-3.307-11.283,1.596-16.186
	c2.768-2.769,6.286-4.201,9.551-4.201c2.517,0,4.884,0.854,6.635,2.604c1.488,1.488,2.323,3.419,2.542,5.51v0.766
	c0,0.274,0.019,0.543,0.041,0.812c-0.125,3.135-1.539,6.458-4.18,9.098C267.959,358.738,260.699,359.455,256.676,355.432z
	 M297,269.961c2.604,1.026,5.409,2.222,8.208,3.569c13.851,6.668,16.884,11.976,16.884,13.458v10.446
	c-2.503-1.507-5.24-2.977-8.208-4.405c-6.187-2.979-12.33-5.293-16.884-6.851v-8.512V269.961z"/>
<path d="M438.636,364v-63.699c0-5.522-4.477-10-10-10s-10,4.478-10,10V364c0,5.522,4.477,10,10,10S438.636,369.522,438.636,364z"/>
<path d="M222.004,200.843c0-5.522-4.477-10-10-10s-10,4.478-10,10v22c0,5.522,4.477,10,10,10s10-4.478,10-10V200.843z"/>
<path d="M219.07,263.41c1.87-1.86,2.93-4.431,2.93-7.07c0-2.63-1.06-5.21-2.93-7.07c-1.86-1.859-4.44-2.93-7.07-2.93
	s-5.2,1.07-7.07,2.93c-1.86,1.86-2.93,4.44-2.93,7.07s1.07,5.21,2.93,7.07c1.86,1.859,4.44,2.93,7.07,2.93
	C214.64,266.34,217.21,265.27,219.07,263.41z"/>
<g>
</g>
<g>
</g>
<g>
</g>
<g>
</g>
<g>
</g>
<g>
</g>
<g>
</g>
<g>
</g>
<g>
</g>
<g>
</g>
<g>
</g>
<g>
</g>
<g>
</g>
<g>
</g>
<g>
</g>
</svg>
