<?xml version="1.0" encoding="iso-8859-1"?>
<!-- Generator: Adobe Illustrator 19.0.0, SVG Export Plug-In . SVG Version: 6.00 Build 0)  -->
<svg version="1.1" id="Capa_1" xmlns="http://www.w3.org/2000/svg" xmlns:xlink="http://www.w3.org/1999/xlink" x="0px" y="0px"
	 viewBox="0 0 512 512" style="enable-background:new 0 0 512 512;" xml:space="preserve">
<polygon style="fill:#72D8FF;" points="502,425.92 467.462,444.961 467.462,482.955 502,501.997 "/>
<path style="fill:#EAF9FF;" d="M458.102,501.997h-90.739c-5.17,0-9.36-4.191-9.36-9.36v-57.357c0-5.17,4.191-9.36,9.36-9.36h90.739
	c5.17,0,9.36,4.191,9.36,9.36v57.357C467.462,497.806,463.271,501.997,458.102,501.997z"/>
<g>
	<path style="fill:#BEEDFF;" d="M380.248,425.92c-12.284,0-22.243-9.958-22.243-22.243c0-12.285,9.958-22.243,22.243-22.243
		c12.284,0,22.243,9.958,22.243,22.243C402.49,415.962,392.531,425.92,380.248,425.92z"/>
	<path style="fill:#BEEDFF;" d="M439.366,369.727c15.517,0,28.096,12.579,28.096,28.096c0,15.517-12.579,28.096-28.096,28.096
		s-28.096-12.579-28.096-28.096C411.27,382.306,423.848,369.727,439.366,369.727z"/>
</g>
<polygon style="fill:#FEB1AF;" points="502,121.353 358.002,121.353 358.002,10.002 501.994,10.002 "/>
<path style="fill:#EAF9FF;" d="M201.218,315.161h18.554c16.693,0,30.226-13.524,30.226-30.207c0-12.669-7.807-23.509-18.873-27.995
	c0.48-2.139,0.742-4.36,0.742-6.643c0-16.683-13.533-30.207-30.226-30.207c-1.086,0-2.158,0.064-3.215,0.175
	c-10.532-28.659-38.068-49.104-70.379-49.104c-36.189,0-66.386,25.645-73.414,59.752c-0.813-0.047-1.63-0.078-2.454-0.078
	c-23.295,0-42.18,18.873-42.18,42.152c0,23.281,18.885,42.153,42.18,42.153h6.6h142.439V315.161z"/>
<polygon style="fill:#F9CC9F;" points="501.994,211.152 445.473,211.152 439.102,196.127 383.807,196.127 377.436,211.152 
	361.996,211.152 361.996,316.126 501.994,316.126 "/>
<path d="M259.997,284.954c0-13.784-6.923-26.289-18.144-33.619c0.009-0.34,0.013-0.68,0.013-1.02
	c0-21.015-16.214-38.315-36.794-40.063c-13.832-29.621-43.941-49.072-77.026-49.072c-37.421,0-70.377,24.774-81.211,59.945
	C20.564,223.81,0,246.054,0,273.008c0,28.758,23.408,52.152,52.179,52.152h167.592C241.952,325.161,259.997,307.124,259.997,284.954
	z M20,273.008c0-17.729,14.436-32.153,32.18-32.153c0.546,0,1.16,0.021,1.877,0.062c4.971,0.305,9.369-3.104,10.371-7.965
	c6.181-29.999,32.938-51.77,63.62-51.77c27.129,0,51.64,17.101,60.993,42.553c1.581,4.303,5.885,6.971,10.443,6.495
	c0.748-0.08,1.474-0.12,2.157-0.12c11.153,0,20.226,9.064,20.226,20.207c0,1.48-0.168,2.978-0.499,4.451
	c-1.072,4.773,1.466,9.622,6,11.46c7.672,3.11,12.63,10.462,12.63,18.728c0,11.143-9.073,20.207-20.226,20.207H52.179
	C34.436,305.161,20,290.737,20,273.008z"/>
<path d="M318.996,246H274.33c-5.523,0-10,4.478-10,10c0,5.522,4.477,10,10,10h44.666c5.523,0,10-4.478,10-10
	S324.519,246,318.996,246z"/>
<path d="M507.086,417.31c-3.047-1.8-6.815-1.856-9.914-0.146l-20.894,11.519c-1.226-3.367-3.348-6.302-6.094-8.503
	c4.571-6.284,7.276-14.008,7.276-22.355c0-21.007-17.09-38.097-38.096-38.097c-15.548,0-28.942,9.367-34.857,22.75
	c-5.915-6.76-14.595-11.042-24.262-11.042c-17.779,0-32.243,14.464-32.243,32.242c0,6.687,2.047,12.905,5.547,18.061
	c-3.427,3.494-5.549,8.273-5.549,13.543v57.356c0,10.676,8.685,19.36,19.36,19.36h90.739c8.356,0,15.471-5.331,18.178-12.762
	l20.894,11.519c1.504,0.83,3.167,1.243,4.828,1.243c1.76,0,3.519-0.464,5.085-1.39c3.046-1.799,4.915-5.073,4.915-8.61v-76.077
	C512,422.383,510.132,419.109,507.086,417.31z M439.366,379.727c9.979,0,18.096,8.118,18.096,18.097
	c0,9.979-8.118,18.097-18.096,18.097s-18.096-8.118-18.096-18.097C421.27,387.845,429.387,379.727,439.366,379.727z
	 M380.247,391.435c6.751,0,12.243,5.492,12.243,12.242c0,6.751-5.492,12.243-12.243,12.243c-6.75,0-12.243-5.492-12.243-12.243
	C368.005,396.927,373.497,391.435,380.247,391.435z M457.462,491.997h-89.459v-56.077h89.459v9.042v37.994V491.997z M492,485.066
	l-14.54-8.017v-26.182L492,442.85V485.066z"/>
<path d="M358.002,131.353H502c2.652,0,5.196-1.054,7.071-2.929c1.875-1.876,2.929-4.42,2.929-7.072l-0.006-111.351
	c0-5.522-4.478-9.999-10-9.999H358.002c-5.523,0-10,4.478-10,10v111.351C348.002,126.875,352.479,131.353,358.002,131.353z
	 M416.385,80.087c4.208,4.208,9.802,6.525,15.752,6.525c5.643,0,10.949-2.105,15.073-5.908l30.649,30.649h-95.714l32.754-32.754
	L416.385,80.087z M491.999,97.209l-30.616-30.616l30.612-30.612L491.999,97.209z M433.747,65.947
	c-0.551,0.551-1.18,0.666-1.61,0.666c-0.43,0-1.059-0.115-1.61-0.667l-45.942-45.942h95.106L433.747,65.947z M400.755,64.457
	l-32.754,32.753V31.704L400.755,64.457z"/>
<path d="M501.994,201.153h-49.899l-3.786-8.929c-1.567-3.696-5.192-6.097-9.207-6.097h-55.295c-4.014,0-7.64,2.4-9.207,6.097
	l-3.786,8.929h-8.818c-5.523,0-10,4.478-10,10v104.973c0,5.522,4.477,10,10,10h139.998c5.523,0,10-4.478,10-10V211.153
	C511.994,205.63,507.517,201.153,501.994,201.153z M491.994,306.126H371.996v-84.974h5.44c4.014,0,7.64-2.4,9.207-6.097l3.786-8.929
	h42.052l3.786,8.929c1.567,3.696,5.192,6.097,9.207,6.097h46.52V306.126z"/>
<path d="M173.018,246c-2.63,0-5.21,1.069-7.07,2.93c-1.86,1.86-2.93,4.44-2.93,7.07c0,2.63,1.07,5.21,2.93,7.069
	c1.86,1.86,4.44,2.931,7.07,2.931s5.21-1.07,7.07-2.931c1.86-1.859,2.93-4.439,2.93-7.069s-1.07-5.21-2.93-7.07
	C178.228,247.07,175.648,246,173.018,246z"/>
<path d="M129.988,246c-2.64,0-5.21,1.069-7.07,2.93c-1.87,1.86-2.93,4.44-2.93,7.07c0,2.63,1.06,5.21,2.93,7.069
	c1.86,1.86,4.44,2.931,7.07,2.931c2.63,0,5.21-1.07,7.07-2.931c1.86-1.859,2.93-4.439,2.93-7.069s-1.07-5.21-2.93-7.07
	C135.198,247.07,132.618,246,129.988,246z"/>
<path d="M86.949,246c-2.63,0-5.21,1.069-7.07,2.93c-1.86,1.861-2.93,4.44-2.93,7.07c0,2.63,1.07,5.21,2.93,7.069
	c1.86,1.86,4.44,2.931,7.07,2.931s5.21-1.07,7.07-2.931c1.86-1.859,2.93-4.439,2.93-7.069s-1.07-5.21-2.93-7.07
	C92.159,247.07,89.579,246,86.949,246z"/>
<path d="M317.996,437.997c-2.63,0-5.21,1.069-7.07,2.93c-1.86,1.86-2.93,4.44-2.93,7.07s1.07,5.21,2.93,7.069
	c1.86,1.86,4.44,2.931,7.07,2.931s5.21-1.07,7.07-2.931c1.86-1.859,2.93-4.439,2.93-7.069s-1.07-5.21-2.93-7.07
	C323.206,439.067,320.626,437.997,317.996,437.997z"/>
<path d="M283.317,437.997H139.998v-88.925c0-5.522-4.477-10-10-10c-5.523,0-10,4.478-10,10v98.925c0,5.522,4.477,10,10,10h153.318
	c5.523,0,10-4.478,10-10S288.84,437.997,283.317,437.997z"/>
<path d="M318.996,54.002c-2.63,0-5.21,1.069-7.07,2.93c-1.86,1.86-2.93,4.44-2.93,7.07s1.07,5.21,2.93,7.069
	c1.86,1.86,4.44,2.931,7.07,2.931s5.21-1.07,7.07-2.931c1.86-1.859,2.93-4.439,2.93-7.069c0-2.63-1.07-5.21-2.93-7.07
	C324.206,55.072,321.626,54.002,318.996,54.002z"/>
<path d="M129.998,147.585c5.523,0,10-4.478,10-10V74.002h143.318c5.523,0,10-4.478,10-10c0-5.522-4.477-10-10-10H129.998
	c-5.523,0-10,4.478-10,10v73.583C119.999,143.108,124.476,147.585,129.998,147.585z"/>
<g>
</g>
<g>
</g>
<g>
</g>
<g>
</g>
<g>
</g>
<g>
</g>
<g>
</g>
<g>
</g>
<g>
</g>
<g>
</g>
<g>
</g>
<g>
</g>
<g>
</g>
<g>
</g>
<g>
</g>
</svg>
