<?xml version="1.0" encoding="iso-8859-1"?>
<!-- Generator: Adobe Illustrator 19.0.0, SVG Export Plug-In . SVG Version: 6.00 Build 0)  -->
<svg version="1.1" id="Capa_1" xmlns="http://www.w3.org/2000/svg" xmlns:xlink="http://www.w3.org/1999/xlink" x="0px" y="0px"
	 viewBox="0 0 512 512" style="enable-background:new 0 0 512 512;" xml:space="preserve">
<circle style="fill:#EAF9FF;" cx="301.7" cy="186.06" r="16.416"/>
<polygon style="fill:#A5E6FF;" points="80.792,453.5 110.124,354.532 156.546,394.98 156.546,453.5 "/>
<path style="fill:#EAF9FF;" d="M121.214,80.541c-78.978,78.978-78.978,207.026,0,286.004s207.026,78.978,286.004,0L121.214,80.541z"
	/>
<path style="fill:#C4EFFF;" d="M36.994,502h163.351c-13.404-31.878-44.925-54.263-81.675-54.263S50.398,470.122,36.994,502z"/>
<path d="M278.358,223.543l13.121-13.121c3.144,1.324,6.596,2.057,10.216,2.057c14.565,0,26.416-11.851,26.416-26.416
	s-11.851-26.416-26.416-26.416s-26.416,11.851-26.416,26.416c0,3.62,0.733,7.072,2.057,10.217l-13.12,13.12L128.285,73.47
	c-3.906-3.904-10.236-3.904-14.143,0C74.057,113.556,51.98,166.853,51.98,223.543c0,49.094,16.568,95.636,47.039,133.264
	l-27.542,92.929c-19.223,10.469-34.822,27.271-43.702,48.388c-1.299,3.087-0.965,6.619,0.889,9.409
	c1.853,2.79,4.979,4.467,8.329,4.467h163.352c3.35,0,6.477-1.677,8.329-4.467c1.854-2.79,2.188-6.322,0.889-9.409
	c-8.774-20.866-24.106-37.523-43.016-48.017v-38.126c30.517,15.792,64.087,23.698,97.669,23.698
	c54.342,0,108.702-20.692,150.073-62.063c1.875-1.876,2.929-4.419,2.929-7.071s-1.054-5.195-2.929-7.071L278.358,223.543z
	 M301.695,179.646c3.538,0,6.416,2.878,6.416,6.416s-2.878,6.416-6.416,6.416s-6.416-2.878-6.416-6.416
	S298.157,179.646,301.695,179.646z M183.586,492H53.752c14.446-21.205,38.549-34.263,64.917-34.263S169.14,470.795,183.586,492z
	 M146.547,441.746c-8.903-2.614-18.268-4.009-27.878-4.009c-8.092,0-16.009,0.996-23.625,2.867l19.684-66.416
	c9.927,9.852,20.592,18.518,31.818,26.001v41.557H146.547z M264.216,415.688c-49.222-0.004-98.459-18.742-135.931-56.214
	C91.977,323.166,71.98,274.891,71.98,223.543c0-48.001,17.474-93.315,49.413-128.681l271.5,271.501
	C356.435,399.254,310.336,415.692,264.216,415.688z"/>
<path d="M340.184,69.425c-5.224-1.787-10.91,1.001-12.697,6.227s1.001,10.911,6.227,12.697
	c40.885,13.979,68.354,52.422,68.354,95.661c0,5.522,4.478,10,10,10s10-4.478,10-10C422.067,132.218,389.161,86.17,340.184,69.425z"
	/>
<path d="M300.997,82.939h0.315c5.522,0,10-4.478,10-10s-4.478-10-10-10h-0.315c-5.522,0-10,4.478-10,10
	S295.475,82.939,300.997,82.939z"/>
<path d="M485.006,183.841c-0.04-5.488-4.502-9.925-10-9.925c-5.522,0-10,4.478-10,10c0,0.04,0.001,0.112,0.001,0.166
	c0.039,5.489,4.501,9.928,10,9.928c5.522,0,10-4.478,10-10C485.007,183.97,485.006,183.896,485.006,183.841z"/>
<path d="M472.418,152.302c5.365-1.311,8.652-6.722,7.343-12.087c-9.604-39.328-32.438-74.944-64.298-100.286
	C382.625,13.807,343.044,0,300.997,0c-5.522,0-10,4.478-10,10s4.478,10,10,10c75.848,0,141.368,51.385,159.334,124.959
	c1.116,4.568,5.204,7.63,9.707,7.63C470.823,152.589,471.621,152.496,472.418,152.302z"/>
<path d="M300.997,137.699c25.535,0,46.31,20.774,46.31,46.311c0,5.522,4.478,10,10,10s10-4.478,10-10
	c0-36.563-29.746-66.311-66.31-66.311c-5.522,0-10,4.478-10,10C290.997,133.221,295.475,137.699,300.997,137.699z"/>
<path d="M264.063,389.391c16.647,0,33.46-2.513,49.9-7.669c5.271-1.653,8.202-7.265,6.55-12.534
	c-1.653-5.271-7.268-8.203-12.534-6.55c-52.048,16.323-108.314,2.525-146.85-36.01c-3.906-3.904-10.236-3.904-14.143,0
	c-3.905,3.905-3.905,10.237,0,14.143C178.633,372.415,220.792,389.391,264.063,389.391z"/>
<g>
</g>
<g>
</g>
<g>
</g>
<g>
</g>
<g>
</g>
<g>
</g>
<g>
</g>
<g>
</g>
<g>
</g>
<g>
</g>
<g>
</g>
<g>
</g>
<g>
</g>
<g>
</g>
<g>
</g>
</svg>
