<?xml version="1.0" encoding="iso-8859-1"?>
<!-- Generator: Adobe Illustrator 19.0.0, SVG Export Plug-In . SVG Version: 6.00 Build 0)  -->
<svg version="1.1" id="Capa_1" xmlns="http://www.w3.org/2000/svg" xmlns:xlink="http://www.w3.org/1999/xlink" x="0px" y="0px"
	 viewBox="0 0 512 512" style="enable-background:new 0 0 512 512;" xml:space="preserve">
<path style="fill:#C4EFFF;" d="M396,501.979v-87.97c0-21.227-13.603-40.065-33.753-46.743l-68.492-22.697h-75.51l-68.492,22.697
	C129.603,373.943,116,392.781,116,414.009v87.97H396z"/>
<path style="fill:#FBDEC1;" d="M255.144,338.4L255.144,338.4c-38.776,0-70.21-31.434-70.21-70.209V223.51
	c0-24.214,19.63-43.844,43.844-43.844h96.575v88.525C325.354,306.966,293.92,338.4,255.144,338.4z"/>
<path style="fill:#F9CC9F;" d="M184.935,223.509v29.269l0.525,1.544c22.081,0,41.709-10.459,54.236-26.682
	c12.527,16.222,32.154,26.682,54.236,26.682c11.329,0,22.01-2.76,31.423-7.629v-67.028h-96.576
	C204.564,179.666,184.935,199.295,184.935,223.509z"/>
<path style="fill:#FBDEC1;" d="M292.8,343.814h-73.599v14.72c0,20.324,16.476,36.799,36.799,36.799l0,0
	c20.324,0,36.799-16.476,36.799-36.799L292.8,343.814L292.8,343.814z"/>
<path d="M364.735,356.898l-61.212-20.284v-3.412c19.999-14.669,33.016-38.323,33.016-64.969v-88.94c0-5.522-4.478-10-10-10h-93.121
	c-31.958,0-57.958,25.999-57.958,57.957v40.983c0,26.646,13.016,50.3,33.015,64.968v3.413l-61.211,20.284
	c-24.17,8.009-40.409,30.497-40.409,55.96V502c0,5.522,4.478,10,10,10h95.146c5.522,0,10-4.478,10-10s-4.478-10-10-10h-38v-62
	c0-5.522-4.478-10-10-10s-10,4.478-10,10v62h-27.146v-79.142c0-16.824,10.729-31.684,26.7-36.976l55.646-18.44v1.092
	c0,25.805,20.994,46.799,46.8,46.799s46.8-20.994,46.8-46.799v-1.09l55.644,18.439c15.971,5.292,26.7,20.151,26.7,36.976V492
	h-27.144v-62c0-5.522-4.478-10-10-10s-10,4.478-10,10v62h-45.2c-5.522,0-10,4.478-10,10s4.478,10,10,10h102.344
	c5.522,0,10-4.478,10-10v-89.142C405.144,387.396,388.905,364.907,364.735,356.898z M233.417,189.293h83.121v50.467
	c-7.123,2.98-14.831,4.563-22.607,4.563c-18.252,0-35.135-8.309-46.32-22.794c-1.894-2.452-4.816-3.889-7.915-3.889
	c-3.098,0-6.021,1.437-7.915,3.888c-9.109,11.796-21.995,19.493-36.321,21.946V227.25
	C195.459,206.32,212.488,189.293,233.417,189.293z M195.459,268.233v-4.558c16.698-2.109,32.109-9.455,44.236-21.101
	c14.516,13.94,33.729,21.749,54.235,21.749c7.672,0,15.301-1.141,22.607-3.332v7.242c0,33.382-27.158,60.539-60.54,60.539
	S195.459,301.615,195.459,268.233z M256,385.333c-14.777,0-26.8-12.021-26.8-26.799v-14.363c8.389,2.969,17.405,4.602,26.798,4.602
	c9.395,0,18.412-1.633,26.802-4.603v14.365C282.8,373.312,270.778,385.333,256,385.333z"/>
<path d="M249.5,492c-2.63,0-5.21,1.069-7.07,2.93c-1.86,1.861-2.93,4.44-2.93,7.07s1.069,5.21,2.93,7.069
	c1.86,1.86,4.44,2.931,7.07,2.931s5.21-1.07,7.069-2.931c1.86-1.859,2.931-4.439,2.931-7.069s-1.07-5.21-2.931-7.07
	C254.71,493.069,252.13,492,249.5,492z"/>
<path d="M316.933,94.069c2.56,0,5.118-0.977,7.071-2.929c3.905-3.905,3.905-10.237,0-14.143C305.839,58.834,281.689,48.83,256,48.83
	s-49.839,10.004-68.004,28.168c-3.905,3.905-3.905,10.237,0,14.143c3.906,3.904,10.236,3.904,14.143,0
	C216.526,76.753,235.655,68.83,256,68.83s39.475,7.923,53.861,22.311C311.815,93.093,314.374,94.069,316.933,94.069z"/>
<path d="M167.612,56.612c23.609-23.61,55-36.612,88.389-36.612s64.779,13.002,88.389,36.612c1.953,1.952,4.512,2.929,7.071,2.929
	c2.559,0,5.118-0.977,7.071-2.929c3.905-3.905,3.905-10.237,0-14.143C331.145,15.083,294.732,0,256,0s-75.144,15.083-102.531,42.47
	c-3.905,3.905-3.905,10.237,0,14.143C157.375,60.517,163.706,60.517,167.612,56.612z"/>
<path d="M286.892,124.11c2.56,0,5.118-0.977,7.071-2.929c3.905-3.905,3.905-10.237,0-14.143c-20.934-20.932-54.992-20.932-75.926,0
	c-3.905,3.905-3.905,10.237,0,14.143c3.906,3.904,10.236,3.904,14.143,0c13.135-13.135,34.506-13.135,47.641,0
	C281.774,123.134,284.332,124.11,286.892,124.11z"/>
<path d="M249.56,137.93c-1.859,1.86-2.93,4.44-2.93,7.07s1.07,5.21,2.93,7.069c1.86,1.86,4.44,2.931,7.07,2.931
	s5.21-1.07,7.07-2.931c1.859-1.859,2.93-4.439,2.93-7.069s-1.07-5.21-2.93-7.07s-4.44-2.93-7.07-2.93S251.42,136.069,249.56,137.93z
	"/>
<g>
</g>
<g>
</g>
<g>
</g>
<g>
</g>
<g>
</g>
<g>
</g>
<g>
</g>
<g>
</g>
<g>
</g>
<g>
</g>
<g>
</g>
<g>
</g>
<g>
</g>
<g>
</g>
<g>
</g>
</svg>
