<?xml version="1.0" encoding="iso-8859-1"?>
<!-- Generator: Adobe Illustrator 19.0.0, SVG Export Plug-In . SVG Version: 6.00 Build 0)  -->
<svg version="1.1" id="Capa_1" xmlns="http://www.w3.org/2000/svg" xmlns:xlink="http://www.w3.org/1999/xlink" x="0px" y="0px"
	 viewBox="0 0 512 512" style="enable-background:new 0 0 512 512;" xml:space="preserve">
<polygon style="fill:#FAD5B0;" points="470.333,421 502,421 502,37 10,37 10,421 333.653,421 "/>
<polygon style="fill:#EAF9FF;" points="435.482,381 462,381 462,77 50,77 50,381 321.026,381 "/>
<polyline style="fill:#E5F8D2;" points="285.728,195.173 263.595,173.039 155.665,280.969 116.499,241.804 50,308.303 50,381 
	305.726,381 285.728,195.173 "/>
<path style="fill:#FE8F8D;" d="M502,275.18c0-67.896-55.041-122.937-122.937-122.937S256.127,207.284,256.127,275.18
	c0,29.432,10.348,56.445,27.598,77.609h-0.008L379.063,475l94.893-121.571h-0.071C491.447,332.171,502,304.908,502,275.18z"/>
<circle style="fill:#FBDEC1;" cx="160" cy="156.18" r="32"/>
<path d="M502,27H10C4.477,27,0,31.478,0,37v384c0,5.522,4.477,10,10,10h322.052l39.127,50.151c1.895,2.429,4.803,3.849,7.883,3.849
	h0.001c3.08,0,5.988-1.419,7.883-3.847l94.893-121.57c0.169-0.218,0.329-0.439,0.478-0.667c3.525-4.342,6.755-8.892,9.684-13.614
	V411h-21.667c-5.523,0-10,4.478-10,10s4.477,10,10,10H502c5.523,0,10-4.478,10-10V37C512,31.478,507.523,27,502,27z M466.175,347.06
	c-0.286,0.347-0.545,0.708-0.778,1.083l-86.332,110.603L291.827,346.93c-0.112-0.155-0.229-0.308-0.352-0.457
	c-16.347-20.058-25.349-45.376-25.349-71.292c0-62.273,50.663-112.937,112.937-112.937S492,212.906,492,275.18
	C492,301.375,482.829,326.902,466.175,347.06z M379.063,142.243c-36.444,0-69.506,14.745-93.544,38.578l-14.853-14.853
	c-1.875-1.875-4.419-2.929-7.071-2.929s-5.196,1.054-7.071,2.929L155.665,266.827l-32.094-32.095
	c-1.875-1.875-4.419-2.929-7.071-2.929s-5.196,1.054-7.071,2.929L60,284.161V87h238c5.523,0,10-4.478,10-10s-4.477-10-10-10H50
	c-5.523,0-10,4.478-10,10v231.299c0,0.003,0,0.007,0,0.01V381c0,5.522,4.477,10,10,10h206c5.523,0,10-4.478,10-10s-4.477-10-10-10
	H60v-58.554l56.5-56.5l32.094,32.095c1.875,1.875,4.419,2.929,7.071,2.929s5.196-1.054,7.071-2.929l100.859-100.859l8.779,8.78
	c-16.481,22.139-26.248,49.559-26.248,79.218c0,30.379,10.512,60.064,29.607,83.633c0.032,0.043,0.065,0.086,0.098,0.128
	L316.448,411H20V47h472v158.136C468.517,167.41,426.677,142.243,379.063,142.243z"/>
<path d="M462,67h-82.937c-5.523,0-10,4.478-10,10s4.477,10,10,10H452v50c0,5.522,4.477,10,10,10s10-4.478,10-10V77
	C472,71.478,467.523,67,462,67z"/>
<path d="M160,114.183c-23.159,0-42,18.841-42,42s18.841,42,42,42s42-18.841,42-42S183.159,114.183,160,114.183z M160,178.183
	c-12.131,0-22-9.869-22-22s9.869-22,22-22s22,9.869,22,22S172.131,178.183,160,178.183z"/>
<path d="M379.063,208.82c-27.994,0-54.312,10.901-74.106,30.695c-3.905,3.905-3.905,10.237,0,14.143
	c3.905,3.904,10.237,3.904,14.142,0c16.017-16.018,37.312-24.838,59.963-24.838s43.947,8.82,59.963,24.838
	c1.953,1.952,4.512,2.929,7.071,2.929c2.559,0,5.119-0.977,7.071-2.929c3.905-3.905,3.906-10.237,0-14.143
	C433.375,219.722,407.057,208.82,379.063,208.82z"/>
<path d="M379.063,255.56c-15.509,0-30.09,6.04-41.056,17.006c-3.905,3.905-3.905,10.237,0,14.143c3.905,3.904,10.237,3.904,14.142,0
	c7.188-7.189,16.747-11.148,26.914-11.148s19.725,3.959,26.914,11.148c1.953,1.952,4.512,2.929,7.071,2.929
	c2.559,0,5.119-0.977,7.071-2.929c3.905-3.905,3.906-10.237,0-14.143C409.153,261.6,394.573,255.56,379.063,255.56z"/>
<path d="M379.76,303.62c-2.63,0-5.21,1.069-7.07,2.93c-1.86,1.86-2.93,4.44-2.93,7.07s1.07,5.21,2.93,7.069
	c1.86,1.86,4.44,2.931,7.07,2.931s5.21-1.07,7.07-2.931c1.86-1.859,2.93-4.439,2.93-7.069s-1.07-5.21-2.93-7.07
	C384.97,304.689,382.39,303.62,379.76,303.62z"/>
<path d="M334.5,67c-2.63,0-5.21,1.069-7.07,2.93c-1.86,1.86-2.93,4.44-2.93,7.07s1.07,5.21,2.93,7.069
	c1.86,1.86,4.44,2.931,7.07,2.931s5.21-1.07,7.07-2.931c1.86-1.859,2.93-4.439,2.93-7.069s-1.07-5.21-2.93-7.07S337.13,67,334.5,67z
	"/>
<g>
</g>
<g>
</g>
<g>
</g>
<g>
</g>
<g>
</g>
<g>
</g>
<g>
</g>
<g>
</g>
<g>
</g>
<g>
</g>
<g>
</g>
<g>
</g>
<g>
</g>
<g>
</g>
<g>
</g>
</svg>
