<?xml version="1.0" encoding="iso-8859-1"?>
<!-- Generator: Adobe Illustrator 19.0.0, SVG Export Plug-In . SVG Version: 6.00 Build 0)  -->
<svg version="1.1" id="Capa_1" xmlns="http://www.w3.org/2000/svg" xmlns:xlink="http://www.w3.org/1999/xlink" x="0px" y="0px"
	 viewBox="0 0 512 512" style="enable-background:new 0 0 512 512;" xml:space="preserve">
<path style="fill:#C4EFFF;" d="M453.966,72H58.034C41.446,72,28,85.446,28,102.034v275.933C28,394.554,41.446,408,58.034,408
	h395.933C470.553,408,484,394.554,484,377.966V102.034C484,85.446,470.553,72,453.966,72z"/>
<path style="fill:#FFFFFF;" d="M484,102.034C484,85.446,470.553,72,453.966,72H58.033C41.446,72,28,85.446,28,102.034v243.084h456
	V102.034z"/>
<rect x="163.96" y="462" style="fill:#DDF6FF;" width="184" height="40"/>
<rect x="223.96" y="408" style="fill:#94E1FF;" width="64" height="54"/>
<path style="fill:#FFFFFF;" d="M415.845,345h-301.89c-19.882,0-36-16.118-36-36V10h292v151.438"/>
<path style="fill:#FCE3CA;" d="M369.955,54.75V313c0,17.673,14.327,32,32,32l0,0c17.673,0,32-14.327,32-32V53.25h-58.5"/>
<rect x="117.95" y="71.55" style="fill:#C1EE92;" width="88" height="131.94"/>
<path d="M452,62h-8.045v-8c0-5.522-4.477-10-10-10h-54V10c0-5.522-4.477-10-10-10h-114c-5.523,0-10,4.478-10,10s4.477,10,10,10h104
	v135.667v5.771V313c0,8.062,2.288,15.597,6.242,22H113.955c-14.336,0-26-11.663-26-26V20h75.667c5.523,0,10-4.478,10-10
	s-4.477-10-10-10H77.955c-5.523,0-10,4.478-10,10v52.328c-0.8-0.206-1.635-0.328-2.5-0.328H60c-23.159,0-42,18.841-42,42v272
	c0,23.159,18.841,42,42,42h153.955v34h-50c-5.523,0-10,4.478-10,10v40c0,5.522,4.477,10,10,10h184c5.523,0,10-4.478,10-10v-40
	c0-5.522-4.477-10-10-10h-50v-34H452c23.159,0,42-18.841,42-42V104C494,80.841,475.159,62,452,62z M452,82c12.131,0,22,9.869,22,22
	v231h-36.287c3.954-6.403,6.242-13.938,6.242-22V82H452z M379.955,313V161.438v-5.771V64h44v249c0,12.131-9.869,22-22,22
	S379.955,325.131,379.955,313z M60,82h5.455c0.865,0,1.699-0.121,2.5-0.328V309c0,9.643,2.988,18.598,8.08,26H38V104
	C38,91.869,47.869,82,60,82z M337.955,492h-164v-20h50h64h50V492z M277.955,452h-44v-34h44V452z M452,398H287.955h-64H60
	c-12.131,0-22-9.869-22-22v-21h436v21C474,388.131,464.131,398,452,398z"/>
<path d="M255.955,364.99c-2.63,0-5.21,1.069-7.07,2.93c-1.86,1.86-2.93,4.439-2.93,7.07c0,2.63,1.07,5.21,2.93,7.069
	c1.86,1.86,4.44,2.931,7.07,2.931c2.63,0,5.21-1.07,7.07-2.931c1.86-1.87,2.93-4.439,2.93-7.069c0-2.631-1.07-5.21-2.93-7.07
	S258.584,364.99,255.955,364.99z"/>
<path d="M209.625,20c2.63,0,5.21-1.07,7.07-2.931c1.86-1.859,2.93-4.439,2.93-7.069s-1.07-5.21-2.93-7.07S212.254,0,209.625,0
	c-2.64,0-5.21,1.069-7.07,2.93c-1.87,1.86-2.93,4.44-2.93,7.07s1.06,5.21,2.93,7.069C204.415,18.93,206.984,20,209.625,20z"/>
<path d="M245.902,81.513h84.031c5.523,0,10-4.478,10-10s-4.477-10-10-10h-84.031c-5.523,0-10,4.478-10,10
	S240.379,81.513,245.902,81.513z"/>
<path d="M245.902,125.516h84.031c5.523,0,10-4.478,10-10s-4.477-10-10-10h-84.031c-5.523,0-10,4.478-10,10
	S240.379,125.516,245.902,125.516z"/>
<path d="M245.902,169.52h84.031c5.523,0,10-4.478,10-10s-4.477-10-10-10h-84.031c-5.523,0-10,4.478-10,10
	S240.379,169.52,245.902,169.52z"/>
<path d="M329.98,193.522h-84.03c-5.523,0-10,4.478-10,10s4.477,10,10,10h84.03c5.523,0,10-4.478,10-10
	S335.503,193.522,329.98,193.522z"/>
<path d="M117.955,213.486h88c5.523,0,10-4.478,10-10V71.549c0-5.522-4.477-10-10-10h-88c-5.523,0-10,4.478-10,10v131.938
	C107.955,209.009,112.432,213.486,117.955,213.486z M127.955,81.549h68v111.938h-68V81.549z"/>
<path d="M302.455,251.021c0-5.522-4.477-10-10-10h-174.5c-5.523,0-10,4.478-10,10s4.477,10,10,10h174.5
	C297.978,261.021,302.455,256.544,302.455,251.021z"/>
<path d="M337.054,243.95c-1.86-1.86-4.44-2.931-7.07-2.931c-2.64,0-5.21,1.07-7.07,2.931c-1.87,1.859-2.93,4.439-2.93,7.069
	s1.06,5.21,2.93,7.07c1.86,1.86,4.43,2.93,7.07,2.93c2.63,0,5.2-1.069,7.07-2.93c1.86-1.86,2.93-4.44,2.93-7.07
	S338.915,245.81,337.054,243.95z"/>
<path d="M243.648,305.024h86.332c5.523,0,10-4.478,10-10s-4.477-10-10-10h-86.332c-5.523,0-10,4.478-10,10
	S238.125,305.024,243.648,305.024z"/>
<path d="M117.955,285.024c-5.523,0-10,4.478-10,10s4.477,10,10,10h79.569c5.523,0,10-4.478,10-10s-4.477-10-10-10H117.955z"/>
<g>
</g>
<g>
</g>
<g>
</g>
<g>
</g>
<g>
</g>
<g>
</g>
<g>
</g>
<g>
</g>
<g>
</g>
<g>
</g>
<g>
</g>
<g>
</g>
<g>
</g>
<g>
</g>
<g>
</g>
</svg>
