<?xml version="1.0" encoding="iso-8859-1"?>
<!-- Generator: Adobe Illustrator 19.0.0, SVG Export Plug-In . SVG Version: 6.00 Build 0)  -->
<svg version="1.1" id="Capa_1" xmlns="http://www.w3.org/2000/svg" xmlns:xlink="http://www.w3.org/1999/xlink" x="0px" y="0px"
	 viewBox="0 0 512 512" style="enable-background:new 0 0 512 512;" xml:space="preserve">
<circle style="fill:#C1EE92;" cx="256.06" cy="256" r="156"/>
<path style="fill:#E5F8D2;" d="M256.063,100.07L256.063,100.07c-44.99,0-81.461,36.471-81.461,81.461v149.008
	c0,44.99,36.471,81.461,81.461,81.461l0,0c44.99,0,81.461-36.471,81.461-81.461V181.531
	C337.524,136.542,301.053,100.07,256.063,100.07z"/>
<path style="fill:#EAF9FF;" d="M243,462V354.157C243,338.606,230.394,326,214.843,326H59.157C43.606,326,31,338.606,31,354.157V462"
	/>
<path style="fill:#C4EFFF;" d="M178.583,462h85.397l0,0l0,0c0,22.091-17.909,40-40,40H50.019c-22.091,0-40-17.909-40-40l0,0h95.43
	H178.583z"/>
<path style="fill:#EAF9FF;" d="M481,146V38.157C481,22.606,468.394,10,452.843,10H297.157C281.606,10,269,22.606,269,38.157V146"/>
<path style="fill:#C4EFFF;" d="M416.583,146h85.397l0,0l0,0c0,22.091-17.909,40-40,40H288.019c-22.091,0-40-17.909-40-40l0,0h95.43
	H416.583z"/>
<path d="M501.98,136H491V38.157C491,17.117,473.883,0,452.843,0H297.157C276.117,0,259,17.117,259,38.157v52.279
	c-0.929-0.285-1.915-0.44-2.937-0.44C164.528,89.996,90.06,164.465,90.06,256c0,11.401,1.164,22.796,3.459,33.868
	c0.979,4.723,5.141,7.972,9.782,7.972c0.672,0,1.355-0.068,2.04-0.21c5.407-1.121,8.883-6.414,7.762-11.822
	c-1.348-6.5-2.242-13.131-2.694-19.808h54.194v50H59.157C38.117,316,21,333.117,21,354.157V452H10.02c-5.522,0-10,4.478-10,10
	c0,27.57,22.43,50,50,50h173.96c27.57,0,50-22.43,50-50c0-5.522-4.478-10-10-10H253v-30.479c0.966,0.311,1.994,0.482,3.063,0.482
	c91.535,0,166.004-74.469,166.004-166.004c0-11.297-1.143-22.59-3.396-33.566c-1.111-5.41-6.398-8.896-11.808-7.784
	c-5.41,1.111-8.895,6.397-7.784,11.807c1.318,6.415,2.194,12.957,2.64,19.542h-54.194v-50H461.98c27.57,0,50-22.43,50-50
	C511.98,140.477,507.503,136,501.98,136z M297.157,20h155.686C462.854,20,471,28.145,471,38.157V136H279V38.157
	C279,28.145,287.146,20,297.157,20z M184.603,185.12h61.461V246h-61.461V185.12z M248.02,136c-5.522,0-10,4.477-10,10
	c0,6.77,1.359,13.226,3.807,19.12h-55.301c7.438-31.516,35.782-55.049,69.537-55.049c1.022,0,2.008-0.155,2.937-0.44V136H248.02z
	 M179.305,131.855c-6.161,9.487-10.612,20.181-12.914,31.644c-6.145-1.325-12.073-3.457-17.666-6.361
	C157.707,147.395,167.993,138.875,179.305,131.855z M110.409,246c1.835-27,11.042-52.005,25.622-73.02
	c8.898,5.126,18.525,8.685,28.572,10.564V246H110.409z M184.603,266h61.461v60.881H243c-0.476,0-0.939,0.045-1.397,0.109
	c-6.892-6.79-16.344-10.99-26.76-10.99h-30.24V266z M325.617,346.881C318.204,378.432,289.843,402,256.063,402
	c-1.069,0-2.097,0.172-3.063,0.482v-48.325c0-2.489-0.247-4.919-0.704-7.276L325.617,346.881L325.617,346.881z M327.524,326.881
	h-61.461V266h61.461V326.881z M223.98,492H50.02c-13.037,0-24.159-8.359-28.286-20h230.533C248.14,483.641,237.018,492,223.98,492z
	 M41,452v-97.843C41,344.146,49.146,336,59.157,336h155.686c10.012,0,18.157,8.146,18.157,18.157V452H41z M332.901,380.095
	c6.133-9.476,10.56-20.151,12.848-31.591c6.141,1.325,12.065,3.456,17.654,6.357C354.442,364.582,344.182,373.084,332.901,380.095z
	 M401.718,266c-1.835,26.999-11.042,52.003-25.621,73.018c-8.899-5.126-18.526-8.683-28.573-10.562V266H401.718z M327.524,246
	h-61.461v-55.091c6.632,3.256,14.083,5.091,21.956,5.091h39.505V246z M461.98,176H288.02c-13.037,0-24.159-8.359-28.286-20h230.533
	C486.14,167.641,475.018,176,461.98,176z"/>
<path d="M467.98,360.37c-2.63,0-5.21,1.069-7.07,2.93s-2.93,4.44-2.93,7.08c0,2.63,1.069,5.2,2.93,7.07
	c1.86,1.859,4.44,2.92,7.07,2.92s5.21-1.061,7.069-2.92c1.86-1.87,2.931-4.44,2.931-7.07c0-2.64-1.07-5.21-2.931-7.08
	C473.19,361.439,470.61,360.37,467.98,360.37z"/>
<path d="M467.98,234c-5.522,0-10,4.477-10,10v82c0,5.522,4.478,10,10,10s10-4.478,10-10v-82C477.98,238.477,473.503,234,467.98,234z
	"/>
<path d="M43.992,110.07c5.522,0,10-4.477,10-10V74.031h66.667c5.522,0,10-4.477,10-10s-4.478-10-10-10H43.992
	c-5.522,0-10,4.477-10,10v36.039C33.992,105.593,38.47,110.07,43.992,110.07z"/>
<path d="M43.98,148.31c2.63,0,5.21-1.06,7.069-2.92c1.86-1.87,2.931-4.45,2.931-7.08s-1.07-5.21-2.931-7.07
	c-1.859-1.86-4.439-2.93-7.069-2.93c-2.63,0-5.21,1.07-7.07,2.93s-2.93,4.44-2.93,7.07c0,2.64,1.069,5.21,2.93,7.08
	C38.771,147.25,41.351,148.31,43.98,148.31z"/>
<path d="M43.98,291.969c5.522,0,10-4.478,10-10V181.551c0-5.523-4.478-10-10-10c-5.522,0-10,4.477-10,10v100.418
	C33.98,287.491,38.458,291.969,43.98,291.969z"/>
<path d="M467.98,402c-5.522,0-10,4.478-10,10v40h-66.679c-5.522,0-10,4.478-10,10s4.478,10,10,10h76.679c5.522,0,10-4.478,10-10v-50
	C477.98,406.478,473.503,402,467.98,402z"/>
<g>
</g>
<g>
</g>
<g>
</g>
<g>
</g>
<g>
</g>
<g>
</g>
<g>
</g>
<g>
</g>
<g>
</g>
<g>
</g>
<g>
</g>
<g>
</g>
<g>
</g>
<g>
</g>
<g>
</g>
</svg>
