<?xml version="1.0" encoding="iso-8859-1"?>
<!-- Generator: Adobe Illustrator 19.0.0, SVG Export Plug-In . SVG Version: 6.00 Build 0)  -->
<svg version="1.1" id="Capa_1" xmlns="http://www.w3.org/2000/svg" xmlns:xlink="http://www.w3.org/1999/xlink" x="0px" y="0px"
	 viewBox="0 0 512 512" style="enable-background:new 0 0 512 512;" xml:space="preserve">
<polygon style="fill:#FFFFFF;" points="82,475 10,475 10,37 502,37 502,475 421,475 "/>
<path style="fill:#FE8F8D;" d="M308.247,273.019l-69.425,44.499c-10.3,6.602-23.827-0.795-23.827-13.029v-88.998
	c0-12.235,13.527-19.631,23.827-13.029l69.425,44.499C317.746,253.049,317.746,266.93,308.247,273.019z"/>
<g>
	<rect x="10" y="37" style="fill:#C4EFFF;" width="492" height="72"/>
	<path style="fill:#C4EFFF;" d="M182.065,402v18c0,11.046,8.954,20,20,20l0,0c11.046,0,20-8.954,20-20v-18c0-11.046-8.954-20-20-20
		l0,0C191.019,382,182.065,390.954,182.065,402z"/>
</g>
<path d="M325.372,259.989c0-8.723-4.384-16.741-11.728-21.448l-69.425-44.499c-7.844-5.027-17.795-5.375-25.97-0.904
	c-8.175,4.47-13.253,13.035-13.253,22.352v88.998c0,9.317,5.079,17.883,13.253,22.353c3.818,2.088,8.024,3.125,12.222,3.125
	c4.79,0,9.568-1.35,13.749-4.029l69.425-44.499C320.987,276.73,325.372,268.712,325.372,259.989z M302.851,264.6l-69.425,44.499
	c-2.467,1.579-4.726,0.663-5.582,0.194c-0.856-0.468-2.849-1.874-2.849-4.805V215.49c0-2.93,1.992-4.336,2.849-4.805
	c0.497-0.271,1.463-0.693,2.668-0.693c0.875,0,1.876,0.223,2.914,0.888l69.425,44.499c2.275,1.458,2.521,3.709,2.521,4.61
	S305.126,263.142,302.851,264.6z"/>
<path d="M502,27H10C4.477,27,0,31.477,0,37v438c0,5.522,4.477,10,10,10h396.071c5.523,0,10-4.478,10-10s-4.477-10-10-10H20V118.949
	c0.33,0.033,0.665,0.051,1.004,0.051H492v346h-11c-5.523,0-10,4.478-10,10s4.477,10,10,10h21c5.523,0,10-4.478,10-10V37
	C512,31.477,507.523,27,502,27z M20,99.051V47h472v52H21.004C20.665,99,20.33,99.018,20,99.051z"/>
<path d="M443.75,465c-2.63,0-5.21,1.069-7.07,2.93c-1.86,1.86-2.93,4.44-2.93,7.07s1.07,5.21,2.93,7.069
	c1.86,1.86,4.44,2.931,7.07,2.931s5.21-1.07,7.07-2.931c1.86-1.859,2.93-4.439,2.93-7.069s-1.07-5.21-2.93-7.07
	S446.38,465,443.75,465z"/>
<path d="M448,63H222.065c-5.523,0-10,4.477-10,10s4.477,10,10,10H448c5.523,0,10-4.477,10-10S453.523,63,448,63z"/>
<path d="M104,63c-2.63,0-5.21,1.07-7.07,2.93S94,70.37,94,73s1.07,5.21,2.93,7.07S101.37,83,104,83s5.21-1.07,7.07-2.93
	S114,75.63,114,73s-1.07-5.21-2.93-7.07S106.63,63,104,63z"/>
<path d="M64,63c-2.63,0-5.21,1.07-7.07,2.93S54,70.37,54,73s1.07,5.21,2.93,7.07S61.37,83,64,83c2.63,0,5.21-1.07,7.07-2.93
	S74,75.63,74,73s-1.07-5.21-2.93-7.07S66.63,63,64,63z"/>
<path d="M144,63c-2.63,0-5.21,1.07-7.07,2.93C135.07,67.79,134,70.37,134,73s1.07,5.21,2.93,7.07c1.86,1.86,4.44,2.93,7.07,2.93
	s5.21-1.07,7.07-2.93S154,75.63,154,73s-1.07-5.21-2.93-7.07C149.21,64.07,146.63,63,144,63z"/>
<path d="M448,401H307.5c-5.523,0-10,4.478-10,10s4.477,10,10,10H448c5.523,0,10-4.478,10-10S453.523,401,448,401z"/>
<path d="M258.11,403.93c-1.86,1.86-2.93,4.44-2.93,7.07s1.07,5.21,2.93,7.069c1.86,1.86,4.44,2.931,7.07,2.931s5.21-1.07,7.08-2.931
	c1.86-1.859,2.92-4.439,2.92-7.069s-1.06-5.21-2.92-7.07c-1.87-1.86-4.44-2.93-7.08-2.93C262.55,401,259.97,402.069,258.11,403.93z"
	/>
<path d="M94.333,391v40c0,5.522,4.477,10,10,10s10-4.478,10-10v-40c0-5.522-4.477-10-10-10S94.333,385.478,94.333,391z"/>
<path d="M54.333,391v40c0,5.522,4.477,10,10,10s10-4.478,10-10v-40c0-5.522-4.477-10-10-10S54.333,385.478,54.333,391z"/>
<path d="M202.065,372c-16.207,0-29.444,12.92-29.975,29H136.5c-5.523,0-10,4.478-10,10s4.477,10,10,10h35.59
	c0.53,16.08,13.768,29,29.975,29c16.542,0,30-13.458,30-30v-18C232.065,385.458,218.607,372,202.065,372z M212.065,420
	c0,5.514-4.486,10-10,10s-10-4.486-10-10v-18c0-5.514,4.486-10,10-10s10,4.486,10,10V420z"/>
<g>
</g>
<g>
</g>
<g>
</g>
<g>
</g>
<g>
</g>
<g>
</g>
<g>
</g>
<g>
</g>
<g>
</g>
<g>
</g>
<g>
</g>
<g>
</g>
<g>
</g>
<g>
</g>
<g>
</g>
</svg>
