<?xml version="1.0" encoding="iso-8859-1"?>
<!-- Generator: Adobe Illustrator 19.0.0, SVG Export Plug-In . SVG Version: 6.00 Build 0)  -->
<svg version="1.1" id="Capa_1" xmlns="http://www.w3.org/2000/svg" xmlns:xlink="http://www.w3.org/1999/xlink" x="0px" y="0px"
	 viewBox="0 0 512.001 512.001" style="enable-background:new 0 0 512.001 512.001;" xml:space="preserve">
<path style="fill:#F9CC9F;" d="M447.567,98.08h-73.857H225.962l-44.95-87.957H9.995v340.828c0,14.905,12.082,26.987,26.987,26.987
	h410.799L447.567,98.08z"/>
<circle style="fill:#FE8F8D;" cx="312.068" cy="289.699" r="35.702"/>
<circle style="fill:#C4EFFF;" cx="162.411" cy="377.935" r="35.702"/>
<circle style="fill:#C1EE92;" cx="312.068" cy="466.172" r="35.702"/>
<path d="M509.075,47.037c-1.875-1.876-4.418-2.931-7.071-2.931H238.964c-5.52,0-9.995,4.475-9.995,9.995s4.475,9.995,9.995,9.995
	h253.037l-0.242,286.747c0,9.428-7.67,17.099-17.099,17.099s-17.099-7.671-17.099-17.099V98.08c0-5.52-4.475-9.995-9.995-9.995
	h-215.49L189.911,5.574c-1.708-3.343-5.146-5.446-8.901-5.446H9.995C4.475,0.128,0,4.603,0,10.123v340.828
	c0,20.391,16.59,36.982,36.982,36.982h50.642c5.52,0,9.995-4.476,9.995-9.995s-4.475-9.995-9.995-9.995H36.982
	c-9.369,0-16.992-7.622-16.992-16.992V20.118h35.982v69.305c0,5.52,4.475,9.995,9.995,9.995s9.995-4.475,9.995-9.995V20.118h98.932
	l42.166,82.511c1.708,3.342,5.146,5.446,8.901,5.446h211.611v242.768c0,6.165,1.52,11.978,4.193,17.099H333.504
	c-5.52,0-9.995,4.476-9.995,9.995s4.475,9.995,9.995,9.995h141.158c20.451,0,37.089-16.638,37.089-37.081l0.25-296.742
	C512.002,51.458,510.951,48.913,509.075,47.037z"/>
<path d="M65.968,112.913c-2.629,0-5.207,1.069-7.067,2.929s-2.929,4.438-2.929,7.067c0,2.629,1.069,5.207,2.929,7.067
	c1.859,1.859,4.438,2.929,7.067,2.929s5.207-1.069,7.067-2.929c1.859-1.859,2.929-4.438,2.929-7.067
	c0-2.629-1.069-5.207-2.929-7.067C71.175,113.982,68.597,112.913,65.968,112.913z"/>
<path d="M312.068,420.479c-13.274,0-25.239,5.693-33.595,14.76l-72.969-42.129c1.677-4.751,2.6-9.854,2.6-15.172
	s-0.923-10.421-2.6-15.172l72.969-42.128c8.356,9.067,20.321,14.76,33.595,14.76c25.197,0,45.697-20.5,45.697-45.697
	c0-25.198-20.5-45.698-45.697-45.698s-45.697,20.5-45.697,45.698c0,4.749,0.73,9.33,2.081,13.64l-73.577,42.479
	c-8.288-8.378-19.78-13.578-32.468-13.578c-25.197,0-45.697,20.5-45.697,45.697c0,25.198,20.5,45.698,45.697,45.698
	c12.688,0,24.181-5.201,32.469-13.579l73.576,42.479c-1.35,4.31-2.08,8.892-2.08,13.64c0,25.197,20.5,45.697,45.697,45.697
	s45.697-20.5,45.697-45.697C357.764,440.978,337.265,420.479,312.068,420.479z M312.068,263.993
	c14.175,0,25.706,11.532,25.706,25.707c0,14.175-11.532,25.706-25.706,25.706s-25.706-11.531-25.706-25.706
	C286.361,275.525,297.894,263.993,312.068,263.993z M162.407,403.645c-14.175,0-25.706-11.532-25.706-25.707
	s11.532-25.706,25.706-25.706s25.706,11.531,25.706,25.706S176.581,403.645,162.407,403.645z M312.068,491.882
	c-14.175,0-25.706-11.531-25.706-25.706s11.532-25.707,25.706-25.707s25.706,11.532,25.706,25.707S326.243,491.882,312.068,491.882z
	"/>
<path d="M287.36,370.867c-1.869,1.859-2.929,4.437-2.929,7.067c0,2.639,1.059,5.207,2.929,7.066c1.859,1.869,4.428,2.93,7.057,2.93
	c2.639,0,5.207-1.06,7.077-2.93c1.859-1.858,2.919-4.428,2.919-7.066c0-2.63-1.059-5.207-2.919-7.067
	c-1.859-1.859-4.438-2.929-7.077-2.929C291.788,367.938,289.219,369.008,287.36,370.867z"/>
<g>
</g>
<g>
</g>
<g>
</g>
<g>
</g>
<g>
</g>
<g>
</g>
<g>
</g>
<g>
</g>
<g>
</g>
<g>
</g>
<g>
</g>
<g>
</g>
<g>
</g>
<g>
</g>
<g>
</g>
</svg>
