<?xml version="1.0" encoding="iso-8859-1"?>
<!-- Generator: Adobe Illustrator 19.0.0, SVG Export Plug-In . SVG Version: 6.00 Build 0)  -->
<svg version="1.1" id="Capa_1" xmlns="http://www.w3.org/2000/svg" xmlns:xlink="http://www.w3.org/1999/xlink" x="0px" y="0px"
	 viewBox="0 0 512.001 512.001" style="enable-background:new 0 0 512.001 512.001;" xml:space="preserve">
<path style="fill:#EAF9FF;" d="M439.001,10h-190c-34.794,0-63,28.206-63,63v120c0,34.794,28.206,63,63,63h86.718v35l46.563-35H439
	c34.794,0,63-28.206,63-63V73C502.001,38.206,473.795,10,439.001,10z"/>
<polygon style="fill:#FE8F8D;" points="103.202,362.512 103.202,322.054 9.999,322.054 9.999,502 103.202,502 103.202,409.06 "/>
<path style="fill:#FBDEC1;" d="M304.438,367.043l-18.054-0.002c12.423,0,22.493-10.071,22.493-22.493l0,0
	c0-12.423-10.071-22.493-22.493-22.493h-79.236l13.183-39.139c7.178-21.312-4.676-44.341-26.192-50.883l-12.173-3.701
	l-19.128,52.866c-6,16.584-17.865,30.397-33.354,38.831l-25.453,13.86l0.464,154.88l16.186,6.348
	c11.601,4.55,23.951,6.885,36.412,6.885h73.117h23.742h16.746c12.423,0,22.493-10.071,22.493-22.493l0,0
	c0-12.423-10.071-22.493-22.493-22.493h17.485c12.423,0,22.493-10.071,22.493-22.493l0,0c0-12.423-10.071-22.493-22.493-22.493
	h16.255c12.423,0,22.493-10.071,22.493-22.493l0,0C326.932,377.113,316.861,367.043,304.438,367.043z"/>
<path style="fill:#F9CC9F;" d="M281.984,161.02h-31.658c-17.175,0-31.099-13.923-31.099-31.099l0,0
	c0-17.175,13.923-31.099,31.099-31.099h31.658V161.02z"/>
<path style="fill:#91E1FF;" d="M281.981,161.036v44.074h-36.92v-44.09L281.981,161.036z"/>
<polygon style="fill:#FFFFFF;" points="281.981,161.036 281.984,98.822 396.133,52.85 396.133,206.948 "/>
<path d="M193.07,190.15c1.86-1.87,2.931-4.45,2.931-7.08c0-2.62-1.07-5.2-2.931-7.07c-1.859-1.86-4.439-2.93-7.069-2.93
	s-5.21,1.07-7.07,2.93c-1.86,1.87-2.93,4.44-2.93,7.07s1.069,5.21,2.93,7.08c1.86,1.86,4.44,2.92,7.07,2.92
	S191.211,192.01,193.07,190.15z"/>
<path d="M439.001,0h-190c-40.252,0-73,32.748-73,73v71.5c0,5.523,4.478,10,10,10s10-4.477,10-10V73c0-29.224,23.775-53,53-53h190
	c29.225,0,53,23.776,53,53v120c0,29.224-23.775,53-53,53h-56.719c-2.167,0-4.276,0.704-6.009,2.006l-30.554,22.967V256
	c0-5.523-4.478-10-10-10H249c-5.522,0-10,4.477-10,10c0,5.523,4.478,10,10,10h76.719v25c0,3.79,2.143,7.254,5.532,8.947
	c1.414,0.706,2.943,1.053,4.467,1.053c2.128,0,4.243-0.679,6.01-2.006L385.621,266h53.38c40.252,0,73-32.748,73-73V73
	C512,32.748,479.253,0,439.001,0z"/>
<path d="M315.488,358.979c2.167-4.351,3.392-9.25,3.392-14.432c0-17.917-14.576-32.493-32.493-32.493h-65.315l8.739-25.947
	c4.343-12.893,3.305-26.654-2.922-38.75s-16.823-20.936-29.838-24.893l-12.174-3.701c-5.09-1.547-10.502,1.162-12.313,6.165
	l-19.128,52.866c-5.173,14.299-15.377,26.179-28.732,33.451l-12.318,6.708c-1.566-3.476-5.054-5.9-9.114-5.9H10.001
	c-5.522,0-10,4.477-10,10V502c0,5.523,4.478,10,10,10h93.271c5.208,0,9.482-3.982,9.953-9.068l3.808,1.493
	c12.817,5.027,26.296,7.576,40.063,7.576h96.858H270.7c17.917,0,32.493-14.576,32.493-32.493c0-5.254-1.261-10.215-3.484-14.611
	c12.244-4.661,20.97-16.516,20.97-30.375c0-5.415-1.339-10.521-3.691-15.016c11.705-4.918,19.946-16.499,19.946-29.971
	C336.934,375.496,327.982,363.51,315.488,358.979z M93.271,492h-73.27V332.054h30.75v102.083c0,5.523,4.478,10,10,10
	c5.522,0,10-4.477,10-10V332.054h22.521L93.271,492L93.271,492z M288.186,447.016h-47.477c-5.522,0-10,4.477-10,10s4.478,10,10,10
	H270.7c6.889,0,12.493,5.604,12.493,12.493s-5.604,12.493-12.493,12.493H157.096c-11.258,0-22.28-2.084-32.761-6.195l-11.063-4.339
	V340.245l20.997-11.434c17.651-9.612,31.138-25.313,37.975-44.211l15.898-43.939l3.091,0.939
	c7.797,2.371,14.145,7.666,17.874,14.912c3.729,7.246,4.352,15.489,1.751,23.212l-13.183,39.139
	c-1.028,3.051-0.523,6.411,1.355,9.026c1.878,2.615,4.901,4.166,8.121,4.166h79.235c6.889,0,12.493,5.604,12.493,12.493
	s-5.604,12.493-12.493,12.493h-45.678c-5.522,0-10,4.477-10,10s4.478,10,10,10l63.731,0.002c6.889,0,12.493,5.604,12.493,12.493
	s-5.604,12.493-12.493,12.493h-63.731c-5.522,0-10,4.477-10,10s4.478,10,10,10h47.477c6.889,0,12.493,5.604,12.493,12.494
	C300.679,441.411,295.074,447.016,288.186,447.016z"/>
<path d="M60.751,454.415c-5.522,0-10,4.477-10,10v0.131c0,5.523,4.478,10,10,10c5.522,0,10-4.477,10-10v-0.131
	C70.751,458.892,66.273,454.415,60.751,454.415z"/>
<path d="M245.062,215.11h36.92c5.522,0,10-4.477,10-10v-29.273l100.421,40.389c1.203,0.484,2.47,0.722,3.73,0.722
	c1.968,0,3.922-0.581,5.6-1.714c2.752-1.86,4.401-4.964,4.401-8.286V52.85c0-3.322-1.65-6.428-4.403-8.287
	c-2.753-1.858-6.25-2.23-9.332-0.989L280.047,88.822h-29.72c-22.662,0-41.1,18.437-41.1,41.099
	c0,17.269,10.711,32.073,25.834,38.147v37.042C235.062,210.633,239.539,215.11,245.062,215.11z M255.062,195.11v-24.09h16.92v24.09
	H255.062z M386.134,192.147l-94.149-37.867v-48.705l94.149-37.917L386.134,192.147L386.134,192.147z M250.327,108.822h21.657
	l-0.002,42.198h-21.655c-11.635,0-21.1-9.465-21.1-21.099C229.228,118.287,238.692,108.822,250.327,108.822z"/>
<path d="M472.501,130.188c0-5.523-4.478-10-10-10h-20.606c-5.522,0-10,4.477-10,10c0,5.523,4.478,10,10,10h20.606
	C468.023,140.188,472.501,135.71,472.501,130.188z"/>
<path d="M437.488,57.898l-16.714,16.714c-3.905,3.905-3.905,10.237,0,14.143c1.953,1.953,4.512,2.929,7.071,2.929
	s5.118-0.976,7.071-2.929l16.714-16.714c3.905-3.905,3.905-10.237,0-14.143C447.725,53.993,441.395,53.993,437.488,57.898z"/>
<path d="M420.844,170.26c-3.905,3.905-3.905,10.237,0,14.142l17.272,17.273c1.953,1.953,4.512,2.929,7.071,2.929
	c2.559,0,5.118-0.977,7.071-2.929c3.905-3.905,3.905-10.237,0-14.142l-17.272-17.273
	C431.081,166.355,424.751,166.356,420.844,170.26z"/>
<g>
</g>
<g>
</g>
<g>
</g>
<g>
</g>
<g>
</g>
<g>
</g>
<g>
</g>
<g>
</g>
<g>
</g>
<g>
</g>
<g>
</g>
<g>
</g>
<g>
</g>
<g>
</g>
<g>
</g>
</svg>
