<?xml version="1.0" encoding="iso-8859-1"?>
<!-- Generator: Adobe Illustrator 19.0.0, SVG Export Plug-In . SVG Version: 6.00 Build 0)  -->
<svg version="1.1" id="Capa_1" xmlns="http://www.w3.org/2000/svg" xmlns:xlink="http://www.w3.org/1999/xlink" x="0px" y="0px"
	 viewBox="0 0 512 512" style="enable-background:new 0 0 512 512;" xml:space="preserve">
<path style="fill:#C4EFFF;" d="M456.85,72H55.151c-16.587,0-30.034,13.446-30.034,30.034v275.933
	c0,16.587,13.446,30.034,30.034,30.034H456.85c16.587,0,30.034-13.446,30.034-30.034V102.034C486.883,85.446,473.437,72,456.85,72z"
	/>
<path style="fill:#FFFFFF;" d="M486.883,102.034C486.883,85.446,473.437,72,456.85,72H55.151c-16.587,0-30.034,13.446-30.034,30.034
	v243.084h461.765L486.883,102.034L486.883,102.034z"/>
<rect x="163.96" y="462" style="fill:#DDF6FF;" width="184" height="40"/>
<polygon style="fill:#F2FBFF;" points="111.955,345 111.955,10 332.073,10 399.955,77.882 399.955,345 "/>
<polygon style="fill:#FCE3CA;" points="332.073,10 399.955,77.882 332.073,77.882 "/>
<rect x="223.96" y="408" style="fill:#94E1FF;" width="64" height="54"/>
<path style="fill:#FE8F8D;" d="M192.532,256h127.1c11.294,0,20.45-9.156,20.45-20.45v-93.059c0-11.294-9.156-20.45-20.45-20.45
	h-127.1c-11.294,0-20.45,9.156-20.45,20.45v93.059C172.082,246.844,181.238,256,192.532,256z"/>
<path style="fill:#FFFFFF;" d="M252.765,162.376l26.836,15.494c8.584,4.956,8.584,17.347,0,22.303l-26.836,15.494
	c-8.584,4.956-19.315-1.239-19.315-11.151v-30.987C233.451,163.615,244.181,157.42,252.765,162.376z"/>
<polygon style="fill:#A8E7FF;" points="408.132,364.61 363.027,319.505 337.614,344.918 315.475,232.147 428.247,254.286 
	402.85,279.682 447.955,324.787 "/>
<path d="M452,62h-8.378c-5.522,0-10,4.477-10,10s4.478,10,10,10H452c12.131,0,22,9.869,22,22v231h-22.115l3.142-3.142
	c1.875-1.875,2.929-4.419,2.929-7.071s-1.054-5.196-2.929-7.071l-38.034-38.034l18.325-18.325c2.612-2.612,3.571-6.452,2.494-9.986
	c-1.076-3.534-4.014-6.187-7.639-6.898l-20.218-3.969V77.882c0-2.652-1.054-5.196-2.929-7.071L339.145,2.929
	C337.269,1.054,334.726,0,332.073,0H111.955c-5.522,0-10,4.477-10,10v52H60c-23.159,0-42,18.841-42,42v272c0,23.159,18.841,42,42,42
	h153.955v34h-50c-5.522,0-10,4.477-10,10v40c0,5.523,4.478,10,10,10h184c5.522,0,10-4.477,10-10v-40c0-5.523-4.478-10-10-10h-50v-34
	H452c23.159,0,42-18.841,42-42V104C494,80.841,475.159,62,452,62z M433.813,324.787l-25.681,25.681l-38.033-38.034
	c-1.876-1.875-4.419-2.929-7.071-2.929s-5.195,1.054-7.071,2.929l-12.145,12.145l-15.656-79.752l79.751,15.657l-12.128,12.127
	c-1.875,1.875-2.929,4.419-2.929,7.071s1.054,5.196,2.929,7.071L433.813,324.787z M342.073,34.143l33.74,33.74h-33.74V34.143z
	 M60,82h41.955v253H38V104C38,91.869,47.869,82,60,82z M337.955,492h-164v-20h164V492z M277.955,452h-44v-34h44V452z M452,398H60
	c-12.131,0-22-9.869-22-22v-21h264.955c5.522,0,10-4.477,10-10s-4.478-10-10-10h-181V20h200.118v57.882c0,5.523,4.478,10,10,10
	h57.882v148.695l-72.554-14.244c-3.272-0.643-6.644,0.386-8.998,2.741c-2.355,2.355-3.383,5.729-2.741,8.998l22.14,112.772
	c0.712,3.625,3.364,6.563,6.897,7.64c3.533,1.076,7.373,0.118,9.986-2.495l18.342-18.342l38.033,38.034
	c1.876,1.875,4.419,2.929,7.071,2.929s5.196-1.054,7.071-2.929L431.885,355H474v21C474,388.131,464.131,398,452,398z"/>
<path d="M330.082,142.492V196c0,5.523,4.478,10,10,10s10-4.477,10-10v-53.508c0-16.79-13.66-30.45-30.45-30.45h-127.1
	c-16.79,0-30.45,13.66-30.45,30.45v93.059c0,16.79,13.66,30.45,30.45,30.45h86.409c5.522,0,10-4.477,10-10s-4.478-10-10-10h-86.409
	c-5.763,0-10.45-4.688-10.45-10.45v-93.059c0-5.762,4.688-10.45,10.45-10.45h127.1C325.395,132.042,330.082,136.729,330.082,142.492
	z"/>
<path d="M284.602,169.209l-26.836-15.494l0,0c-7.164-4.135-15.715-4.134-22.877,0c-7.162,4.135-11.438,11.542-11.438,19.812v30.987
	c0,8.27,4.275,15.676,11.438,19.812c3.582,2.068,7.51,3.102,11.438,3.102c3.928,0,7.857-1.034,11.438-3.102l26.836-15.494
	c7.162-4.135,11.438-11.541,11.438-19.812S291.764,173.345,284.602,169.209z M274.602,191.512l-26.836,15.493
	c-1.189,0.687-2.222,0.379-2.876,0c-0.656-0.379-1.438-1.119-1.438-2.491v-30.987c0-1.373,0.782-2.112,1.438-2.491
	c0.373-0.215,0.867-0.407,1.442-0.407c0.437,0,0.921,0.111,1.435,0.408l0,0l26.836,15.494c1.188,0.686,1.438,1.733,1.438,2.491
	S275.79,190.826,274.602,191.512z"/>
<path d="M255.955,364.99c-2.63,0-5.21,1.07-7.07,2.93s-2.93,4.44-2.93,7.07s1.069,5.21,2.93,7.07c1.86,1.86,4.44,2.93,7.07,2.93
	c2.63,0,5.21-1.07,7.069-2.93c1.86-1.86,2.931-4.44,2.931-7.07s-1.07-5.21-2.931-7.07C261.165,366.06,258.585,364.99,255.955,364.99
	z"/>
<g>
</g>
<g>
</g>
<g>
</g>
<g>
</g>
<g>
</g>
<g>
</g>
<g>
</g>
<g>
</g>
<g>
</g>
<g>
</g>
<g>
</g>
<g>
</g>
<g>
</g>
<g>
</g>
<g>
</g>
</svg>
