<?xml version="1.0" encoding="iso-8859-1"?>
<!-- Generator: Adobe Illustrator 19.0.0, SVG Export Plug-In . SVG Version: 6.00 Build 0)  -->
<svg version="1.1" id="Capa_1" xmlns="http://www.w3.org/2000/svg" xmlns:xlink="http://www.w3.org/1999/xlink" x="0px" y="0px"
	 viewBox="0 0 512 512" style="enable-background:new 0 0 512 512;" xml:space="preserve">
<path style="fill:#C4EFFF;" d="M291.934,50H30.003c-11.046,0-20,8.954-20,20v412c0,11.046,8.954,20,20,20h261.931
	c11.046,0,20-8.954,20-20V70C311.934,58.954,302.98,50,291.934,50z"/>
<rect x="10" y="104" style="fill:#FFFFFF;" width="301.93" height="344"/>
<path style="fill:#F9CC9F;" d="M56.422,211.241L56.422,211.241c0,19.882,16.118,36,36,36l0,0c19.882,0,36-16.118,36-36l0,0
	c0-19.882-16.118-36-36-36l0,0C72.54,175.241,56.422,191.359,56.422,211.241z"/>
<path style="fill:#C1EE92;" d="M56.422,337.241L56.422,337.241c0,19.882,16.118,36,36,36l0,0c19.882,0,36-16.118,36-36l0,0
	c0-19.882-16.118-36-36-36l0,0C72.54,301.241,56.422,317.359,56.422,337.241z"/>
<path style="fill:#A5E6FF;" d="M196.351,30v184c0,11.046,8.954,20,20,20h39.773v40l39.567-40h186.306c11.046,0,20-8.954,20-20V30
	c0-11.046-8.954-20-20-20H216.351C205.305,10,196.351,18.954,196.351,30z"/>
<path d="M92.422,165.241c-25.364,0-46,20.636-46,46s20.636,46,46,46s46-20.636,46-46S117.786,165.241,92.422,165.241z
	 M92.422,237.241c-14.336,0-26-11.664-26-26s11.664-26,26-26s26,11.664,26,26S106.759,237.241,92.422,237.241z"/>
<path d="M92.422,291.241c-25.364,0-46,20.636-46,46s20.636,46,46,46s46-20.636,46-46S117.786,291.241,92.422,291.241z
	 M92.422,363.241c-14.336,0-26-11.664-26-26s11.664-26,26-26s26,11.664,26,26S106.759,363.241,92.422,363.241z"/>
<path d="M165.727,486.27c2.63,0,5.21-1.07,7.07-2.93s2.93-4.44,2.93-7.07c0-2.64-1.07-5.21-2.93-7.07
	c-1.86-1.87-4.44-2.93-7.07-2.93s-5.21,1.06-7.07,2.93c-1.86,1.86-2.93,4.43-2.93,7.07c0,2.63,1.07,5.21,2.93,7.07
	C160.517,485.2,163.096,486.27,165.727,486.27z"/>
<path d="M304.866,268.93c-1.87,1.86-2.93,4.44-2.93,7.07s1.06,5.21,2.93,7.07c1.86,1.86,4.43,2.93,7.07,2.93
	c2.63,0,5.21-1.07,7.07-2.93s2.93-4.44,2.93-7.07s-1.07-5.21-2.93-7.07c-1.86-1.86-4.44-2.93-7.07-2.93
	S306.727,267.07,304.866,268.93z"/>
<path d="M481.997,0h-89c-5.523,0-10,4.477-10,10s4.477,10,10,10h89c5.514,0,10,4.486,10,10v184c0,5.514-4.486,10-10,10H295.691
	c-2.671,0-5.231,1.068-7.109,2.967l-22.458,22.704V234c0-5.523-4.477-10-10-10h-39.773c-5.514,0-10-4.486-10-10V30
	c0-5.514,4.486-10,10-10h81.979c5.523,0,10-4.477,10-10s-4.477-10-10-10h-81.979c-16.542,0-30,13.458-30,30v10H30.003
	c-16.542,0-30,13.458-30,30v412c0,16.542,13.458,30,30,30h261.931c16.542,0,30-13.458,30-30V311c0-5.523-4.477-10-10-10
	s-10,4.477-10,10v127H20.003V114h129.942c5.523,0,10-4.477,10-10s-4.477-10-10-10H20.003V70c0-5.514,4.486-10,10-10h156.348v154
	c0,16.542,13.458,30,30,30h29.773v30c0,4.055,2.448,7.708,6.198,9.249c1.23,0.506,2.521,0.751,3.799,0.751
	c2.621,0,5.196-1.031,7.112-2.968L299.865,244h182.132c16.542,0,30-13.458,30-30V30C511.997,13.458,498.539,0,481.997,0z
	 M301.934,458v24c0,5.514-4.486,10-10,10H30.003c-5.514,0-10-4.486-10-10v-24H301.934z"/>
<path d="M347.747,20c2.63,0,5.21-1.07,7.07-2.93s2.93-4.44,2.93-7.07s-1.07-5.21-2.93-7.07S350.377,0,347.747,0
	c-2.64,0-5.21,1.07-7.07,2.93c-1.87,1.86-2.93,4.44-2.93,7.07s1.06,5.21,2.93,7.07C342.537,18.93,345.107,20,347.747,20z"/>
<path d="M258.172,301.509h-86.167c-5.523,0-10,4.477-10,10s4.477,10,10,10h86.167c5.523,0,10-4.477,10-10
	S263.695,301.509,258.172,301.509z"/>
<path d="M258.172,349.509h-86.167c-5.523,0-10,4.477-10,10s4.477,10,10,10h86.167c5.523,0,10-4.477,10-10
	S263.695,349.509,258.172,349.509z"/>
<path d="M330.954,130h0.002v39.821c0,5.523,4.477,10,10,10s10-4.477,10-10V130h13.576c5.523,0,10-4.477,10-10s-4.477-10-10-10
	h-13.576v-2.691c0-7.338,5.97-13.309,13.309-13.309h3.483c5.523,0,10-4.477,10-10s-4.477-10-10-10h-3.483
	c-18.366,0-33.309,14.942-33.309,33.309V110h-0.002c-5.523,0-10,4.477-10,10S325.431,130,330.954,130z"/>
<g>
</g>
<g>
</g>
<g>
</g>
<g>
</g>
<g>
</g>
<g>
</g>
<g>
</g>
<g>
</g>
<g>
</g>
<g>
</g>
<g>
</g>
<g>
</g>
<g>
</g>
<g>
</g>
<g>
</g>
</svg>
