<?xml version="1.0" encoding="iso-8859-1"?>
<!-- Generator: Adobe Illustrator 19.0.0, SVG Export Plug-In . SVG Version: 6.00 Build 0)  -->
<svg version="1.1" id="Capa_1" xmlns="http://www.w3.org/2000/svg" xmlns:xlink="http://www.w3.org/1999/xlink" x="0px" y="0px"
	 viewBox="0 0 512 512" style="enable-background:new 0 0 512 512;" xml:space="preserve">
<path style="fill:#C4EFFF;" d="M470,30H42c-17.673,0-32,14.327-32,32v294c0,17.673,14.327,32,32,32h428c17.673,0,32-14.327,32-32V62
	C502,44.327,487.673,30,470,30z"/>
<path style="fill:#FFFFFF;" d="M502,62c0-17.673-14.327-32-32-32H42c-17.673,0-32,14.327-32,32v259h492V62z"/>
<circle style="fill:#C1EE92;" cx="145.96" cy="247.5" r="28"/>
<circle style="fill:#FE8F8D;" cx="255.96" cy="175.5" r="28"/>
<circle style="fill:#FAD5B0;" cx="383.95" cy="103.5" r="28"/>
<rect x="163.96" y="442" style="fill:#DDF6FF;" width="184" height="40"/>
<rect x="223.96" y="388" style="fill:#BDEDFF;" width="64" height="54"/>
<path d="M470,20H42C18.841,20,0,38.841,0,62v294c0,23.159,18.841,42,42,42h171.955v34h-50c-5.523,0-10,4.477-10,10v40
	c0,5.523,4.477,10,10,10h184c5.523,0,10-4.477,10-10v-40c0-5.523-4.477-10-10-10h-50v-34H470c23.159,0,42-18.841,42-42V62
	C512,38.841,493.159,20,470,20z M42,40h428c12.131,0,22,9.869,22,22v249H20V62C20,49.869,29.869,40,42,40z M337.955,472h-164v-20
	h164V472z M277.955,432h-44v-34h44V432z M470,378H42c-12.131,0-22-9.869-22-22v-25h472v25C492,368.131,482.131,378,470,378z"/>
<path d="M253.475,343.99c-2.63,0-5.21,1.07-7.07,2.93s-2.93,4.44-2.93,7.07c0,2.64,1.07,5.22,2.93,7.08
	c1.86,1.86,4.44,2.92,7.07,2.92s5.21-1.06,7.07-2.92c1.87-1.87,2.93-4.44,2.93-7.08c0-2.63-1.06-5.21-2.93-7.07
	C258.685,345.06,256.104,343.99,253.475,343.99z"/>
<path d="M63.955,257.5H109.3c4.402,16.116,19.163,28,36.655,28s32.253-11.884,36.655-28h265.345c5.523,0,10-4.477,10-10
	s-4.477-10-10-10H182.61c-4.402-16.116-19.163-28-36.655-28s-32.253,11.884-36.655,28H63.955c-5.523,0-10,4.477-10,10
	S58.432,257.5,63.955,257.5z M145.955,229.5c9.925,0,18,8.075,18,18c0,9.925-8.075,18-18,18s-18-8.075-18-18
	S136.029,229.5,145.955,229.5z"/>
<path d="M447.955,165.5c-2.63,0-5.21,1.07-7.07,2.93c-1.86,1.86-2.93,4.44-2.93,7.07s1.07,5.21,2.93,7.07s4.44,2.93,7.07,2.93
	s5.21-1.07,7.07-2.93s2.93-4.44,2.93-7.07s-1.07-5.21-2.93-7.07C453.165,166.57,450.584,165.5,447.955,165.5z"/>
<path d="M63.955,185.5H219.3c4.402,16.116,19.163,28,36.655,28s32.253-11.884,36.655-28h113.345c5.523,0,10-4.477,10-10
	s-4.477-10-10-10H292.61c-4.402-16.116-19.163-28-36.655-28s-32.253,11.884-36.655,28H63.955c-5.523,0-10,4.477-10,10
	S58.432,185.5,63.955,185.5z M255.955,157.5c9.925,0,18,8.075,18,18s-8.075,18-18,18s-18-8.075-18-18S246.029,157.5,255.955,157.5z"
	/>
<path d="M101.955,113.5H347.3c4.402,16.116,19.163,28,36.655,28s32.253-11.884,36.655-28h27.345c5.523,0,10-4.477,10-10
	s-4.477-10-10-10H420.61c-4.402-16.116-19.163-28-36.655-28s-32.253,11.884-36.655,28H101.955c-5.523,0-10,4.477-10,10
	S96.432,113.5,101.955,113.5z M383.955,85.5c9.925,0,18,8.075,18,18s-8.075,18-18,18s-18-8.075-18-18S374.029,85.5,383.955,85.5z"/>
<path d="M63.955,113.5c2.63,0,5.21-1.07,7.07-2.93s2.93-4.44,2.93-7.07s-1.07-5.21-2.93-7.07s-4.44-2.93-7.07-2.93
	c-2.63,0-5.21,1.07-7.07,2.93s-2.93,4.44-2.93,7.07s1.07,5.21,2.93,7.07C58.745,112.43,61.324,113.5,63.955,113.5z"/>
<g>
</g>
<g>
</g>
<g>
</g>
<g>
</g>
<g>
</g>
<g>
</g>
<g>
</g>
<g>
</g>
<g>
</g>
<g>
</g>
<g>
</g>
<g>
</g>
<g>
</g>
<g>
</g>
<g>
</g>
</svg>
