<?xml version="1.0" encoding="iso-8859-1"?>
<!-- Generator: Adobe Illustrator 19.0.0, SVG Export Plug-In . SVG Version: 6.00 Build 0)  -->
<svg version="1.1" id="Capa_1" xmlns="http://www.w3.org/2000/svg" xmlns:xlink="http://www.w3.org/1999/xlink" x="0px" y="0px"
	 viewBox="0 0 512.002 512.002" style="enable-background:new 0 0 512.002 512.002;" xml:space="preserve">
<path style="fill:#F2FBFF;" d="M43.998,97.041v224h424v-224c0-22.091-17.909-40-40-40h-344
	C61.906,57.041,43.998,74.949,43.998,97.041z"/>
<polygon style="fill:#FE8F8D;" points="467.998,321.041 467.998,107.32 465.668,105.374 374.334,196.706 334.096,156.469 
	306.43,184.135 107.255,239.295 80.757,212.796 43.998,249.555 43.998,321.041 "/>
<path style="fill:#C4EFFF;" d="M324.143,321.041h177.858l0,0v17c0,21.539-17.461,39-39,39h-414c-21.539,0-39-17.461-39-39v-17
	h177.847H324.143z"/>
<circle style="fill:#FFFFFF;" cx="215.41" cy="249.551" r="107.9"/>
<path style="fill:#91E1FF;" d="M18.108,446.855L18.108,446.855c-10.81-10.81-10.81-28.337,0-39.147l101.073-101.073l39.147,39.147
	L57.255,446.855C46.445,457.665,28.919,457.665,18.108,446.855z"/>
<rect x="90.031" y="317.498" transform="matrix(0.7071 0.7071 -0.7071 0.7071 280.0247 18.4753)" style="fill:#FFFFFF;" width="55.359" height="59.519"/>
<path d="M241.671,67.042c2.63,0,5.2-1.07,7.07-2.93c1.859-1.86,2.93-4.44,2.93-7.07s-1.07-5.21-2.93-7.07
	c-1.86-1.86-4.44-2.93-7.07-2.93c-2.641,0-5.22,1.07-7.07,2.93c-1.859,1.86-2.93,4.44-2.93,7.07s1.07,5.21,2.93,7.07
	C236.461,65.971,239.041,67.042,241.671,67.042z"/>
<path d="M502.001,311.041h-24.003v-214c0-27.57-22.43-50-50-50H285.002c-5.522,0-10,4.477-10,10s4.478,10,10,10h142.996
	c16.542,0,30,13.458,30,30v1.86l-83.664,83.664l-33.166-33.167c-3.904-3.905-10.234-3.905-14.143,0l-22.754,22.754
	c-21.63-24.8-53.445-40.498-88.86-40.498c-54.569,0-100.591,37.267-113.97,87.685l-13.613-13.614
	c-1.875-1.875-4.419-2.929-7.071-2.929s-5.196,1.054-7.071,2.929l-19.688,19.688V97.041c0-16.542,13.458-30,30-30h105.675
	c5.522,0,10-4.477,10-10s-4.478-10-10-10H83.998c-27.57,0-50,22.43-50,50V249.55c0,0.003,0,0.007,0,0.01v61.481H10.001
	c-5.522,0-10,4.477-10,10v17c0,19.874,11.9,37.009,28.942,44.689l-17.906,17.906C3.92,407.753,0,417.216,0,427.281
	s3.92,19.528,11.037,26.645s16.58,11.036,26.645,11.036s19.527-3.919,26.645-11.036l66.885-66.885h331.79c27.019,0,49-21.981,49-49
	v-17C512.001,315.518,507.523,311.041,502.001,311.041z M215.411,151.654c53.982,0,97.9,43.918,97.9,97.901
	s-43.918,97.901-97.9,97.901c-53.983,0-97.901-43.918-97.901-97.901S161.428,151.654,215.411,151.654z M116.242,373.725
	l-25.004-25.004l27.944-27.944l25.004,25.005L116.242,373.725z M53.998,253.698l26.759-26.759l16.894,16.895
	c-0.091,1.896-0.141,3.803-0.141,5.722c0,18.787,4.424,36.557,12.274,52.335l-9.151,9.151H53.998V253.698z M20.001,338.041v-7
	h60.632l-35.708,35.708C30.858,364.761,20.001,352.648,20.001,338.041z M50.184,439.784c-3.339,3.339-7.779,5.178-12.502,5.178
	s-9.163-1.839-12.502-5.179c-3.34-3.339-5.18-7.779-5.18-12.502c0-4.723,1.84-9.163,5.18-12.502l29.544-29.545
	c0.961-0.673,1.797-1.509,2.47-2.47l19.901-19.901l25.004,25.004L50.184,439.784z M163.072,355.18
	c12.993,6.465,27.337,10.601,42.488,11.861h-54.349L163.072,355.18z M492.001,338.041c0,15.991-13.01,29-29,29H225.262
	c60.418-5.022,108.05-55.793,108.05-117.486c0-22.341-6.246-43.251-17.084-61.074l17.869-17.869l33.166,33.167
	c1.876,1.875,4.419,2.929,7.071,2.929s5.195-1.054,7.071-2.929l76.593-76.592v183.854h-71.949c-5.522,0-10,4.477-10,10
	s4.478,10,10,10h105.952L492.001,338.041L492.001,338.041z"/>
<path d="M347.501,311.042c-2.63,0-5.21,1.07-7.07,2.93c-1.86,1.86-2.93,4.44-2.93,7.07s1.069,5.21,2.93,7.07s4.44,2.93,7.07,2.93
	s5.21-1.07,7.069-2.93c1.86-1.86,2.931-4.44,2.931-7.07s-1.07-5.21-2.931-7.07C352.711,312.111,350.131,311.042,347.501,311.042z"/>
<path d="M174.561,259.551c2.63,0,5.21-1.06,7.07-2.93c1.86-1.86,2.93-4.44,2.93-7.06c0-2.64-1.069-5.21-2.93-7.08
	c-1.86-1.86-4.44-2.93-7.07-2.93s-5.21,1.07-7.069,2.93c-1.86,1.86-2.931,4.44-2.931,7.08c0,2.63,1.07,5.2,2.931,7.06
	C169.351,258.491,171.921,259.551,174.561,259.551z"/>
<path d="M217.601,259.551c2.63,0,5.2-1.06,7.07-2.93c1.859-1.86,2.93-4.43,2.93-7.07c0-2.63-1.07-5.21-2.93-7.07
	c-1.86-1.86-4.44-2.93-7.07-2.93c-2.64,0-5.22,1.07-7.07,2.93c-1.869,1.86-2.93,4.44-2.93,7.07c0,2.64,1.061,5.21,2.93,7.07
	C212.391,258.491,214.961,259.551,217.601,259.551z"/>
<path d="M256.261,259.551c2.64,0,5.21-1.06,7.07-2.93c1.87-1.86,2.93-4.43,2.93-7.07c0-2.63-1.06-5.21-2.93-7.07
	c-1.86-1.86-4.44-2.93-7.07-2.93s-5.2,1.07-7.07,2.93c-1.859,1.86-2.93,4.44-2.93,7.07c0,2.64,1.07,5.21,2.93,7.07
	C251.051,258.491,253.631,259.551,256.261,259.551z"/>
<g>
</g>
<g>
</g>
<g>
</g>
<g>
</g>
<g>
</g>
<g>
</g>
<g>
</g>
<g>
</g>
<g>
</g>
<g>
</g>
<g>
</g>
<g>
</g>
<g>
</g>
<g>
</g>
<g>
</g>
</svg>
