<?xml version="1.0" encoding="iso-8859-1"?>
<!-- Generator: Adobe Illustrator 19.0.0, SVG Export Plug-In . SVG Version: 6.00 Build 0)  -->
<svg version="1.1" id="Capa_1" xmlns="http://www.w3.org/2000/svg" xmlns:xlink="http://www.w3.org/1999/xlink" x="0px" y="0px"
	 viewBox="0 0 512 512" style="enable-background:new 0 0 512 512;" xml:space="preserve">
<path style="fill:#C4EFFF;" d="M301.988,10H30c-11.046,0-20,8.954-20,20v452c0,11.046,8.954,20,20,20h271.988
	c11.046,0,20-8.954,20-20V30C321.988,18.954,313.033,10,301.988,10z"/>
<rect x="10" y="64" style="fill:#FFFFFF;" width="311.99" height="384"/>
<path style="fill:#A5E6FF;" d="M254,112H130c-13.255,0-24,10.745-24,24v240c0,13.255,10.745,24,24,24h124c13.255,0,24-10.745,24-24
	V136C278,122.745,267.255,112,254,112z"/>
<path style="fill:#FFFFFF;" d="M192,152.127c-28.719,0-52,23.281-52,52s23.281,52,52,52s52-23.281,52-52
	S220.719,152.127,192,152.127z"/>
<path style="fill:#72D8FF;" d="M192,184.127c-11.046,0-20,8.954-20,20s8.954,20,20,20s20-8.954,20-20S203.046,184.127,192,184.127z"
	/>
<path style="fill:#EAF9FF;" d="M482,244H338c-11.046,0-20-8.954-20-20v-80c0-11.046,8.954-20,20-20h144c11.046,0,20,8.954,20,20v80
	C502,235.046,493.046,244,482,244z"/>
<rect x="278" y="146" style="fill:#DAF5FF;" width="40" height="76"/>
<path d="M269.25,56.93c-1.86,1.86-2.931,4.44-2.931,7.07c0,2.63,1.07,5.21,2.931,7.07c1.859,1.86,4.439,2.93,7.069,2.93
	c2.631,0,5.21-1.07,7.07-2.93s2.93-4.44,2.93-7.07c0-2.63-1.069-5.21-2.93-7.07c-1.86-1.86-4.439-2.93-7.07-2.93
	C273.689,54,271.109,55.07,269.25,56.93z"/>
<path d="M165.72,466.27c-2.63,0-5.21,1.06-7.07,2.92c-1.859,1.87-2.93,4.44-2.93,7.08c0,2.63,1.07,5.2,2.93,7.07
	c1.86,1.86,4.44,2.92,7.07,2.92c2.64,0,5.21-1.06,7.07-2.92c1.859-1.86,2.93-4.44,2.93-7.07c0-2.64-1.07-5.22-2.93-7.08
	C170.93,467.33,168.35,466.27,165.72,466.27z"/>
<path d="M321.987,281.993c-5.522,0-10,4.477-10,10V438H20V74h209.994c5.522,0,10-4.477,10-10s-4.478-10-10-10H20V30
	c0-5.514,4.486-10,10-10h271.987c5.514,0,10,4.486,10,10v57c0,5.523,4.478,10,10,10s10-4.477,10-10V30c0-16.542-13.458-30-30-30H30
	C13.458,0,0,13.458,0,30v452c0,16.542,13.458,30,30,30h271.987c16.542,0,30-13.458,30-30V291.993
	C331.987,286.47,327.51,281.993,321.987,281.993z M301.987,492H30c-5.514,0-10-4.486-10-10v-24h291.987v24
	C311.987,487.514,307.501,492,301.987,492z"/>
<path d="M192.927,142.127c-34.187,0-62,27.813-62,62s27.813,62,62,62s62-27.813,62-62S227.113,142.127,192.927,142.127z
	 M192.927,246.127c-23.159,0-42-18.841-42-42s18.841-42,42-42s42,18.841,42,42S216.086,246.127,192.927,246.127z"/>
<path d="M192.927,174.127c-16.542,0-30,13.458-30,30s13.458,30,30,30s30-13.458,30-30S209.469,174.127,192.927,174.127z
	 M192.927,214.127c-5.514,0-10-4.486-10-10s4.486-10,10-10s10,4.486,10,10S198.44,214.127,192.927,214.127z"/>
<path d="M482,114H338c-13.771,0-25.397,9.331-28.908,22H288c0-18.748-15.252-34-34-34H130c-18.748,0-34,15.252-34,34v240
	c0,18.748,15.252,34,34,34h124c18.748,0,34-15.252,34-34V232h21.092c3.511,12.669,15.137,22,28.908,22h144c16.542,0,30-13.458,30-30
	v-80C512,127.458,498.542,114,482,114z M268,376c0,7.72-6.28,14-14,14H130c-7.72,0-14-6.28-14-14V136c0-7.72,6.28-14,14-14h124
	c7.72,0,14,6.28,14,14V376z M288,156h20v56h-20V156z M492,224c0,5.514-4.486,10-10,10H338c-5.514,0-10-4.486-10-10v-2v-76v-2
	c0-5.514,4.486-10,10-10h144c5.514,0,10,4.486,10,10V224z"/>
<path d="M192.927,314.5c-5.522,0-10,4.477-10,10v30.963c0,5.523,4.478,10,10,10s10-4.477,10-10V324.5
	C202.927,318.977,198.449,314.5,192.927,314.5z"/>
<path d="M192.927,281.993c-5.522,0-10,4.477-10,10v0.102c0,5.523,4.478,10,10,10s10-4.477,10-10v-0.102
	C202.927,286.47,198.449,281.993,192.927,281.993z"/>
<g>
</g>
<g>
</g>
<g>
</g>
<g>
</g>
<g>
</g>
<g>
</g>
<g>
</g>
<g>
</g>
<g>
</g>
<g>
</g>
<g>
</g>
<g>
</g>
<g>
</g>
<g>
</g>
<g>
</g>
</svg>
