<?xml version="1.0" encoding="iso-8859-1"?>
<!-- Generator: Adobe Illustrator 19.0.0, SVG Export Plug-In . SVG Version: 6.00 Build 0)  -->
<svg version="1.1" id="Capa_1" xmlns="http://www.w3.org/2000/svg" xmlns:xlink="http://www.w3.org/1999/xlink" x="0px" y="0px"
	 viewBox="0 0 511.999 511.999" style="enable-background:new 0 0 511.999 511.999;" xml:space="preserve">
<path style="fill:#E5F8D2;" d="M501.999,79.491v206.593c0,12.418-10.066,22.485-22.485,22.485h-14.406l-44.969,44.969v-44.969
	H180.467c-12.418,0-22.485-10.066-22.485-22.485V79.491c0-12.418,10.066-22.485,22.485-22.485h299.047
	C491.932,57.006,501.999,67.072,501.999,79.491z"/>
<path d="M420.137,363.538c-1.288,0-2.588-0.249-3.825-0.762c-3.736-1.548-6.173-5.194-6.173-9.239v-34.969h-15.12
	c-5.522,0-10-4.477-10-10c0-5.523,4.478-10,10-10h25.12c5.522,0,10,4.477,10,10v20.826l27.897-27.897
	c1.876-1.875,4.419-2.929,7.071-2.929h14.405c6.884,0,12.485-5.6,12.485-12.484V79.491c0-6.884-5.601-12.485-12.485-12.485H361.017
	c-5.522,0-10-4.477-10-10s4.478-10,10-10h118.497c17.913,0,32.486,14.573,32.486,32.486v206.593
	c0,17.913-14.573,32.484-32.486,32.484h-10.262l-42.041,42.041C425.297,362.521,422.74,363.538,420.137,363.538z"/>
<path d="M317.505,67.006c-2.631,0-5.2-1.07-7.07-2.93c-1.86-1.86-2.93-4.44-2.93-7.07s1.069-5.21,2.93-7.07
	c1.87-1.86,4.439-2.93,7.07-2.93c2.64,0,5.22,1.07,7.079,2.93c1.86,1.86,2.931,4.44,2.931,7.07s-1.07,5.21-2.931,7.07
	C322.715,65.936,320.145,67.006,317.505,67.006z"/>
<path d="M157.983,120.009c-5.522,0-10-4.477-10-10V79.491c0-17.913,14.573-32.486,32.485-32.486h86.545c5.522,0,10,4.477,10,10
	s-4.478,10-10,10h-86.545c-6.884,0-12.484,5.6-12.484,12.485v30.517C167.984,115.531,163.506,120.009,157.983,120.009z"/>
<path style="fill:#EAF9FF;" d="M10,180.764v206.593c0,12.418,10.066,22.485,22.485,22.485h20.149l44.969,45.152v-45.152h233.928
	c12.418,0,22.485-10.066,22.485-22.485V180.764c0-12.418-10.066-22.485-22.485-22.485H32.486C20.067,158.279,10,168.346,10,180.764z
	"/>
<path d="M331.533,419.842h-65.52c-5.522,0-10-4.477-10-10c0-5.523,4.478-10,10-10h65.52c6.884,0,12.484-5.6,12.484-12.485v-40.35
	c0-5.523,4.478-10,10-10c5.522,0,10,4.477,10,10v40.35C364.017,405.269,349.444,419.842,331.533,419.842z"/>
<path d="M222.01,419.843c-2.63,0-5.21-1.07-7.07-2.93c-1.86-1.86-2.93-4.44-2.93-7.07c0-2.64,1.069-5.21,2.93-7.07
	c1.86-1.86,4.44-2.93,7.07-2.93s5.21,1.07,7.069,2.93c1.86,1.86,2.931,4.44,2.931,7.07c0,2.63-1.07,5.21-2.931,7.07
	C227.221,418.773,224.641,419.843,222.01,419.843z"/>
<path d="M97.606,464.994c-2.609,0-5.173-1.021-7.087-2.944L48.48,419.841H32.485C14.573,419.842,0,405.269,0,387.356V180.764
	c0-17.913,14.573-32.486,32.485-32.486h75.521c5.522,0,10,4.477,10,10s-4.478,10-10,10H32.485c-6.884,0-12.484,5.6-12.484,12.485
	v206.593c0,6.884,5.6,12.485,12.484,12.485h20.149c2.659,0,5.209,1.059,7.085,2.943l27.883,27.996v-20.939c0-5.523,4.478-10,10-10
	h84.406c5.522,0,10,4.477,10,10c0,5.523-4.478,10-10,10h-74.404v35.152c0,4.048-2.44,7.697-6.183,9.243
	C100.187,464.746,98.891,464.994,97.606,464.994z"/>
<path style="fill:#A8E7FF;" d="M334.016,158.279H177.983c-11.047,0-20.001,8.954-20.001,20.001v110.286
	c0,11.047,8.954,20.001,20.001,20.001h156.032c11.047,0,20.001-8.954,20.001-20.001V178.28
	C354.017,167.234,345.062,158.279,334.016,158.279z"/>
<path d="M334.016,318.568H177.984c-16.543,0-30.001-13.459-30.001-30.001V178.28c0-16.543,13.459-30.001,30.001-30.001h156.031
	c16.543,0,30.001,13.459,30.001,30.001v110.286C364.017,305.109,350.558,318.568,334.016,318.568z M177.984,168.28
	c-5.514,0-10,4.486-10,10v110.286c0,5.514,4.486,10,10,10h156.031c5.514,0,10-4.486,10-10V178.28c0-5.514-4.486-10-10-10H177.984z"
	/>
<path d="M212.67,249.145c-2.63,0-5.21-1.07-7.07-2.93c-1.86-1.86-2.93-4.44-2.93-7.07c0-2.64,1.069-5.21,2.93-7.07
	c1.86-1.87,4.44-2.93,7.07-2.93s5.21,1.06,7.069,2.93c1.86,1.86,2.931,4.44,2.931,7.07s-1.07,5.21-2.931,7.07
	C217.88,248.075,215.3,249.145,212.67,249.145z"/>
<path d="M256.012,249.145c-2.63,0-5.21-1.07-7.07-2.93c-1.86-1.86-2.93-4.44-2.93-7.07s1.069-5.21,2.93-7.07
	c1.86-1.86,4.44-2.93,7.07-2.93s5.21,1.07,7.069,2.93c1.86,1.86,2.931,4.44,2.931,7.07s-1.07,5.2-2.931,7.07
	C261.222,248.075,258.642,249.145,256.012,249.145z"/>
<path d="M299.354,249.145c-2.63,0-5.21-1.07-7.07-2.93c-1.859-1.86-2.93-4.44-2.93-7.07c0-2.64,1.07-5.21,2.93-7.07
	c1.86-1.87,4.44-2.93,7.07-2.93c2.63,0,5.21,1.06,7.07,2.93c1.859,1.86,2.93,4.43,2.93,7.07c0,2.63-1.07,5.21-2.93,7.07
	C304.564,248.075,301.984,249.145,299.354,249.145z"/>
<g>
</g>
<g>
</g>
<g>
</g>
<g>
</g>
<g>
</g>
<g>
</g>
<g>
</g>
<g>
</g>
<g>
</g>
<g>
</g>
<g>
</g>
<g>
</g>
<g>
</g>
<g>
</g>
<g>
</g>
</svg>
