<?xml version="1.0" encoding="iso-8859-1"?>
<!-- Generator: Adobe Illustrator 19.0.0, SVG Export Plug-In . SVG Version: 6.00 Build 0)  -->
<svg version="1.1" id="Capa_1" xmlns="http://www.w3.org/2000/svg" xmlns:xlink="http://www.w3.org/1999/xlink" x="0px" y="0px"
	 viewBox="0 0 512 512" style="enable-background:new 0 0 512 512;" xml:space="preserve">
<path style="fill:#F2FBFF;" d="M43.741,202.315V425.01h421.53V202.315c0-21.962-17.805-39.767-39.767-39.767H83.508
	C61.545,162.548,43.741,180.352,43.741,202.315z"/>
<path style="fill:#A8E7FF;" d="M322.254,425.01h176.822l0,0v16.901c0,21.414-17.359,38.773-38.773,38.773H48.715
	c-21.414,0-38.773-17.359-38.773-38.773V425.01h176.811H322.254z"/>
<rect x="202.812" y="92.955" style="fill:#C1EE92;" width="262.462" height="163.045"/>
<path style="fill:#E5F8D2;" d="M203.362,92.955L303,192.593c17.143,17.143,44.937,17.143,62.079,0l99.638-99.637"/>
<circle style="fill:#FE8F8D;" cx="440.419" cy="92.955" r="61.639"/>
<path d="M499.076,415.068h-23.863V296.761c0-5.491-4.452-9.942-9.942-9.942s-9.942,4.451-9.942,9.942v118.307H53.682V202.315
	c0-16.446,13.38-29.825,29.825-29.825h76.76c5.49,0,9.942-4.451,9.942-9.942c0-5.491-4.452-9.942-9.942-9.942h-76.76
	c-27.409,0-49.709,22.299-49.709,49.709v212.753H9.942c-5.49,0-9.942,4.451-9.942,9.942v16.901
	c0,26.862,21.853,48.715,48.715,48.715h411.588c26.862,0,48.715-21.853,48.715-48.715V425.01
	C509.017,419.519,504.566,415.068,499.076,415.068z M489.134,441.911c0,15.898-12.934,28.831-28.831,28.831H48.715
	c-15.897,0-28.831-12.933-28.831-28.831v-6.959h469.251V441.911z"/>
<path d="M202.809,265.942h262.462c5.49,0,9.942-4.451,9.942-9.942V155.48C497.136,143.232,512,119.802,512,92.955
	c0-39.47-32.111-71.581-71.581-71.581c-36.096,0-66.019,26.861-70.875,61.639H202.809c-5.49,0-9.942,4.451-9.942,9.942V256
	C192.867,261.491,197.319,265.942,202.809,265.942z M395.209,148.402l-37.16,37.16c-13.238,13.239-34.78,13.239-48.02,0
	l-82.666-82.666h142.181C372.096,121.167,381.557,137.251,395.209,148.402z M295.97,199.622
	c10.497,10.496,24.283,15.744,38.07,15.744c13.787,0,27.573-5.248,38.07-15.744l11.361-11.361l57.797,57.797H226.811l57.796-57.797
	L295.97,199.622z M270.548,174.2l-57.797,57.798V116.403L270.548,174.2z M455.329,231.998l-57.797-57.796l15.229-15.229
	c8.514,3.58,17.858,5.564,27.659,5.564c5.113,0,10.098-0.549,14.91-1.573V231.998z M440.419,41.258
	c28.506,0,51.697,23.191,51.697,51.697s-23.191,51.697-51.697,51.697s-51.697-23.191-51.697-51.697S411.913,41.258,440.419,41.258z"
	/>
<path d="M427.897,91.701l2.581-2.581v28.133c0,5.491,4.452,9.942,9.942,9.942s9.942-4.451,9.942-9.942V65.118
	c0-4.02-2.423-7.646-6.137-9.185c-3.716-1.54-7.991-0.688-10.835,2.154L413.837,77.64c-3.882,3.882-3.882,10.177,0,14.06
	C417.72,95.583,424.014,95.584,427.897,91.701z"/>
<path d="M230.929,330.563H85.002c-5.49,0-9.942,4.451-9.942,9.942c0,5.491,4.452,9.942,9.942,9.942h145.927
	c5.49,0,9.942-4.451,9.942-9.942C240.871,335.014,236.42,330.563,230.929,330.563z"/>
<path d="M275.159,350.447h44.228c5.49,0,9.942-4.451,9.942-9.942c0-5.491-4.452-9.942-9.942-9.942h-44.228
	c-5.49,0-9.942,4.451-9.942,9.942C265.217,345.996,269.668,350.447,275.159,350.447z"/>
<path d="M293.051,296.761c0-5.491-4.452-9.942-9.942-9.942H85.002c-5.49,0-9.942,4.451-9.942,9.942s4.452,9.942,9.942,9.942h198.107
	C288.599,306.703,293.051,302.252,293.051,296.761z"/>
<path d="M326.994,289.732c-1.849-1.849-4.414-2.913-7.029-2.913s-5.18,1.064-7.029,2.913c-1.848,1.849-2.913,4.414-2.913,7.029
	s1.064,5.18,2.913,7.029c1.849,1.849,4.414,2.913,7.029,2.913s5.18-1.064,7.029-2.913c1.848-1.849,2.913-4.414,2.913-7.029
	S328.843,291.582,326.994,289.732z"/>
<path d="M85.002,374.307c-5.49,0-9.942,4.451-9.942,9.942c0,5.491,4.452,9.942,9.942,9.942h104.331c5.49,0,9.942-4.451,9.942-9.942
	c0-5.491-4.452-9.942-9.942-9.942H85.002z"/>
<path d="M230.927,374.307c-2.616,0-5.181,1.064-7.029,2.913c-1.849,1.849-2.913,4.414-2.913,7.029s1.063,5.18,2.913,7.029
	c1.848,1.849,4.413,2.913,7.029,2.913c2.625,0,5.18-1.064,7.028-2.913c1.859-1.849,2.914-4.414,2.914-7.029s-1.055-5.18-2.914-7.029
	C236.107,375.371,233.542,374.307,230.927,374.307z"/>
<g>
</g>
<g>
</g>
<g>
</g>
<g>
</g>
<g>
</g>
<g>
</g>
<g>
</g>
<g>
</g>
<g>
</g>
<g>
</g>
<g>
</g>
<g>
</g>
<g>
</g>
<g>
</g>
<g>
</g>
</svg>
