<?xml version="1.0" encoding="iso-8859-1"?>
<!-- Generator: Adobe Illustrator 19.0.0, SVG Export Plug-In . SVG Version: 6.00 Build 0)  -->
<svg version="1.1" id="Capa_1" xmlns="http://www.w3.org/2000/svg" xmlns:xlink="http://www.w3.org/1999/xlink" x="0px" y="0px"
	 viewBox="0 0 512 512" style="enable-background:new 0 0 512 512;" xml:space="preserve">
<path style="fill:#C4EFFF;" d="M391.994,10H120.006c-11.046,0-20,8.954-20,20v452c0,11.046,8.954,20,20,20h271.987
	c11.046,0,20-8.954,20-20V30C411.994,18.954,403.039,10,391.994,10z"/>
<rect x="100.01" y="64" style="fill:#EAF9FF;" width="311.99" height="384"/>
<rect x="284.37" y="112" style="fill:#A8E7FF;" width="64" height="64"/>
<rect x="284.37" y="224" style="fill:#E5F8D2;" width="64" height="64"/>
<rect x="284.37" y="336" style="fill:#FFCFCE;" width="64" height="64"/>
<rect x="172.33" y="112" style="fill:#E5F8D2;" width="64" height="64"/>
<rect x="172.33" y="224" style="fill:#F9CC9F;" width="64" height="64"/>
<rect x="172.33" y="336" style="fill:#C1EE92;" width="64" height="64"/>
<path style="fill:#E5F8D2;" d="M10,63.987v92c0,11.046,8.954,20,20,20h92c11.046,0,20-8.954,20-20v-92c0-11.046-8.954-20-20-20H30
	C18.954,43.987,10,52.941,10,63.987z"/>
<path style="fill:#C1EE92;" d="M142,75l-59.5,59.5l-29.25-29.25L10,148.5v7.487c0,11.046,8.954,20,20,20h92c11.046,0,20-8.954,20-20
	V75z"/>
<path style="fill:#FE8F8D;" d="M354,320v108c0,11.046,8.954,20,20,20h108c11.046,0,20-8.954,20-20V320c0-11.046-8.954-20-20-20H374
	C362.954,300,354,308.954,354,320z"/>
<path style="fill:#FFFFFF;" d="M419.077,404.414l35.105-20.236c7.836-4.517,7.837-15.824,0.003-20.343l-35.105-20.247
	c-7.827-4.515-17.607,1.135-17.607,10.171v40.483C401.472,403.276,411.25,408.925,419.077,404.414z"/>
<path d="M366.33,74c2.63,0,5.21-1.07,7.069-2.93c1.86-1.86,2.931-4.44,2.931-7.07c0-2.63-1.07-5.21-2.931-7.07
	C371.54,55.07,368.96,54,366.33,54c-2.641,0-5.21,1.07-7.07,2.93c-1.87,1.86-2.93,4.44-2.93,7.07c0,2.63,1.06,5.21,2.93,7.07
	C361.12,72.93,363.689,74,366.33,74z"/>
<path d="M358.369,112c0-5.523-4.478-10-10-10h-64c-5.522,0-10,4.477-10,10v64c0,5.523,4.478,10,10,10h64c5.522,0,10-4.477,10-10V112
	z M338.369,166h-44v-44h44V166z"/>
<path d="M358.369,288v-64c0-5.523-4.478-10-10-10h-64c-5.522,0-10,4.477-10,10v64c0,5.523,4.478,10,10,10h64
	C353.892,298,358.369,293.523,358.369,288z M338.369,278h-44v-44h44V278z"/>
<path d="M284.369,326c-5.522,0-10,4.477-10,10v64c0,5.523,4.478,10,10,10s10-4.477,10-10v-54h22c5.522,0,10-4.477,10-10
	s-4.478-10-10-10H284.369z"/>
<path d="M246.333,112c0-5.523-4.478-10-10-10s-10,4.477-10,10v54h-54c-5.522,0-10,4.477-10,10s4.478,10,10,10h64
	c5.522,0,10-4.477,10-10V112z"/>
<path d="M246.333,224c0-5.523-4.478-10-10-10h-64c-5.522,0-10,4.477-10,10v64c0,5.523,4.478,10,10,10h64c5.522,0,10-4.477,10-10V224
	z M226.333,278h-44v-44h44V278z"/>
<path d="M236.333,326h-64c-5.522,0-10,4.477-10,10v64c0,5.523,4.478,10,10,10h64c5.522,0,10-4.477,10-10v-64
	C246.333,330.477,241.855,326,236.333,326z M226.333,390h-44v-44h44V390z"/>
<path d="M248.66,469.2c-1.86,1.86-2.931,4.43-2.931,7.07c0,2.63,1.07,5.2,2.931,7.07c1.859,1.86,4.439,2.93,7.069,2.93
	s5.21-1.07,7.07-2.93c1.86-1.87,2.93-4.44,2.93-7.07c0-2.64-1.069-5.21-2.93-7.07c-1.86-1.87-4.44-2.93-7.07-2.93
	S250.52,467.33,248.66,469.2z"/>
<path d="M152,155.987V74h168c5.522,0,10-4.477,10-10s-4.478-10-10-10H150.284C146.16,42.354,135.041,33.987,122,33.987h-11.994V30
	c0-5.514,4.486-10,10-10h271.988c5.514,0,10,4.486,10,10v226c0,5.523,4.478,10,10,10s10-4.477,10-10V30c0-16.542-13.458-30-30-30
	H120.006c-16.542,0-30,13.458-30,30v3.987H30c-16.542,0-30,13.458-30,30v92c0,16.542,13.458,30,30,30h92
	C138.542,185.987,152,172.529,152,155.987z M30,53.987h92c5.514,0,10,4.486,10,10v6.871l-49.5,49.5L60.321,98.179
	c-3.906-3.905-10.236-3.905-14.143,0L20,124.357v-60.37C20,58.473,24.486,53.987,30,53.987z M20,155.987v-3.633
	c0.555-0.366,1.082-0.794,1.571-1.283l31.679-31.679l22.179,22.179c3.906,3.905,10.236,3.905,14.143,0L132,99.143v56.844
	c0,5.514-4.486,10-10,10H30C24.486,165.987,20,161.501,20,155.987z"/>
<path d="M482,290H374c-16.542,0-30,13.458-30,30v108c0,16.542,13.458,30,30,30h27.994v24c0,5.514-4.486,10-10,10H120.006
	c-5.514,0-10-4.486-10-10v-24h211.343c5.522,0,10-4.477,10-10s-4.478-10-10-10H110.006V224c0-5.523-4.478-10-10-10s-10,4.477-10,10
	v258c0,16.542,13.458,30,30,30h271.988c16.542,0,30-13.458,30-30v-24H482c16.542,0,30-13.458,30-30V320
	C512,303.458,498.542,290,482,290z M492,428c0,5.514-4.486,10-10,10H374c-5.514,0-10-4.486-10-10V320c0-5.514,4.486-10,10-10h108
	c5.514,0,10,4.486,10,10V428z"/>
<path d="M458.063,201.647c5.522,0,10-4.477,10-10V112c0-5.523-4.478-10-10-10s-10,4.477-10,10v79.647
	C448.063,197.17,452.54,201.647,458.063,201.647z"/>
<path d="M458.06,239.71c2.63,0,5.21-1.07,7.07-2.93c1.87-1.86,2.93-4.44,2.93-7.07s-1.06-5.21-2.93-7.07
	c-1.86-1.86-4.44-2.93-7.07-2.93s-5.21,1.07-7.069,2.93c-1.86,1.86-2.931,4.44-2.931,7.07s1.07,5.21,2.931,7.07
	C452.85,238.64,455.43,239.71,458.06,239.71z"/>
<path d="M54,230.982c-5.522,0-10,4.477-10,10v68.866c0,5.523,4.478,10,10,10s10-4.477,10-10v-68.866
	C64,235.459,59.522,230.982,54,230.982z"/>
<path d="M459.181,355.173l-35.104-20.248c-6.808-3.926-14.934-3.923-21.737,0.007c-6.804,3.931-10.866,10.968-10.866,18.826v40.482
	c0,7.856,4.062,14.894,10.864,18.825c3.405,1.967,7.141,2.951,10.877,2.951c3.729,0,7.458-0.98,10.857-2.94l35.104-20.235
	c6.814-3.928,10.883-10.969,10.884-18.834C470.061,366.143,465.993,359.102,459.181,355.173z M449.188,375.515l-35.104,20.235
	c-0.577,0.332-1.163,0.331-1.74-0.001c-0.577-0.334-0.87-0.841-0.87-1.508v-40.482c0-0.667,0.293-1.174,0.87-1.508
	c0.289-0.167,0.58-0.25,0.871-0.25s0.581,0.083,0.87,0.25l35.104,20.248c0.578,0.333,0.871,0.841,0.871,1.508
	C450.06,374.673,449.767,375.181,449.188,375.515z"/>
<g>
</g>
<g>
</g>
<g>
</g>
<g>
</g>
<g>
</g>
<g>
</g>
<g>
</g>
<g>
</g>
<g>
</g>
<g>
</g>
<g>
</g>
<g>
</g>
<g>
</g>
<g>
</g>
<g>
</g>
</svg>
