<?xml version="1.0" encoding="iso-8859-1"?>
<!-- Generator: Adobe Illustrator 19.0.0, SVG Export Plug-In . SVG Version: 6.00 Build 0)  -->
<svg version="1.1" id="Capa_1" xmlns="http://www.w3.org/2000/svg" xmlns:xlink="http://www.w3.org/1999/xlink" x="0px" y="0px"
	 viewBox="0 0 512 512" style="enable-background:new 0 0 512 512;" xml:space="preserve">
<path style="fill:#FBDEC1;" d="M150.903,302.476L150.903,302.476c42.111-30.701,77.696-69.471,104.684-114.053l28.133-46.474l0,0
	c30.108,22.455,40.371,62.931,24.598,97.018l-18.046,39h42.67h-14.499h128.852c15.318,0,27.736,12.418,27.736,27.736v0.536
	c0,15.318-12.418,27.736-27.736,27.736H318.442h74.435c15.318,0,27.736,12.418,27.736,27.736v0.536
	c0,15.318-12.418,27.736-27.736,27.736h-74.435h74.435c15.318,0,27.736,12.418,27.736,27.736v0.536
	c0,15.318-12.418,27.736-27.736,27.736h-74.435h40.506c15.318,0,27.736,12.418,27.736,27.736v0.536
	c0,15.318-12.418,27.736-27.736,27.736H300.94h14.499H214.21c-14.678,0-29.225-2.75-42.89-8.11l-20.419-8.008L150.903,302.476
	L150.903,302.476z"/>
<rect x="36.969" y="281.969" style="fill:#C4EFFF;" width="114.016" height="220.031"/>
<path d="M383.017,267.966c-2.63,0-5.211,1.07-7.071,2.93c-1.86,1.86-2.93,4.441-2.93,7.071s1.07,5.211,2.93,7.071
	s4.441,2.93,7.071,2.93s5.211-1.07,7.071-2.93c1.86-1.86,2.93-4.441,2.93-7.071s-1.07-5.211-2.93-7.071
	S385.646,267.966,383.017,267.966z"/>
<path d="M447.293,267.966h-27.605c-5.524,0-10.001,4.478-10.001,10.001s4.478,10.001,10.001,10.001h27.605
	c9.779,0,17.734,7.956,17.734,17.734v0.535c0,9.779-7.956,17.734-17.734,17.734H318.442c-5.524,0-10.001,4.478-10.001,10.001
	c0,5.524,4.478,10.001,10.001,10.001h74.435c9.778,0,17.734,7.956,17.734,17.734v0.535c0,9.779-7.956,17.734-17.734,17.734h-74.435
	c-5.524,0-10.001,4.478-10.001,10.001s4.478,10.001,10.001,10.001h74.435c9.778,0,17.734,7.956,17.734,17.734v0.535
	c0,9.779-7.956,17.734-17.734,17.734h-74.435c-5.524,0-10.001,4.478-10.001,10.001s4.478,10.001,10.001,10.001h40.506
	c9.778,0,17.734,7.956,17.734,17.734v0.535c0,9.779-7.956,17.734-17.734,17.734H214.21c-13.483,0-26.685-2.496-39.238-7.419
	l-13.987-5.486V307.46c41.546-31.104,76.237-69.387,103.156-113.857l21.959-36.275c19.586,20.298,25.265,51.234,13.14,77.44
	l-18.046,39c-1.433,3.096-1.188,6.711,0.65,9.586c1.837,2.875,5.015,4.615,8.427,4.615h52.072c5.524,0,10.001-4.478,10.001-10.001
	s-4.478-10.001-10.001-10.001h-36.425l11.476-24.799c8.588-18.563,10.55-39.704,5.524-59.529s-16.824-37.478-33.22-49.706
	c-2.26-1.686-5.127-2.34-7.896-1.798c-2.767,0.54-5.179,2.224-6.639,4.637l-28.133,46.474
	c-22.947,37.907-51.842,71.076-86.044,98.842v-0.118c0-5.524-4.478-10.001-10.001-10.001H36.97c-5.524,0-10.001,4.478-10.001,10.001
	v220.031c0,5.524,4.478,10.001,10.001,10.001h114.016c5.524,0,10.001-4.478,10.001-10.001v-1.42l6.684,2.621
	c14.89,5.84,30.548,8.8,46.541,8.8h144.737c20.809,0,37.737-16.929,37.737-37.737v-0.535c0-6.406-1.604-12.445-4.433-17.734h0.625
	c20.809,0,37.737-16.929,37.737-37.737v-0.535c0-10.956-4.693-20.836-12.174-27.736c7.48-6.9,12.174-16.78,12.174-27.736v-0.535
	c0-6.406-1.604-12.445-4.433-17.734h21.111c20.809,0,37.737-16.929,37.737-37.737v-0.535
	C485.031,284.896,468.102,267.966,447.293,267.966z M46.97,491.997V291.97h94.013v200.028H46.97z"/>
<path d="M90.976,452.931c-5.524,0-10.001,4.478-10.001,10.001v0.14c0,5.524,4.478,10.001,10.001,10.001
	c5.524,0,10.001-4.478,10.001-10.001v-0.14C100.978,457.409,96.5,452.931,90.976,452.931z"/>
<path d="M90.976,322.141c-5.524,0-10.001,4.478-10.001,10.001v93.013c0,5.524,4.478,10.001,10.001,10.001
	c5.524,0,10.001-4.478,10.001-10.001v-93.013C100.978,326.619,96.5,322.141,90.976,322.141z"/>
<path d="M237.578,105.947c-3.906,3.906-3.906,10.238,0,14.145c3.906,3.906,10.238,3.906,14.145,0
	c17.247-17.248,45.314-17.248,62.562,0c1.953,1.953,4.513,2.929,7.072,2.929c2.559,0,5.12-0.976,7.072-2.929
	c3.906-3.906,3.906-10.238,0-14.145C303.381,80.899,262.625,80.899,237.578,105.947z"/>
<path d="M351.025,93.35c2.559,0,5.12-0.976,7.072-2.929c3.906-3.906,3.906-10.238,0-14.145
	c-20.059-20.058-46.728-31.105-75.094-31.105s-55.037,11.047-75.094,31.105c-3.906,3.906-3.906,10.238,0,14.145
	c3.906,3.906,10.238,3.906,14.145,0c16.28-16.28,37.926-25.247,60.95-25.247c23.024,0,44.67,8.966,60.95,25.246
	C345.906,92.374,348.466,93.35,351.025,93.35z"/>
<path d="M190.061,58.43c51.247-51.248,134.636-51.248,185.883,0c1.953,1.953,4.513,2.929,7.072,2.929
	c2.559,0,5.12-0.976,7.072-2.929c3.906-3.906,3.906-10.238,0-14.145c-59.048-59.047-155.125-59.047-214.173,0
	c-3.906,3.906-3.906,10.238,0,14.145C179.823,62.336,186.155,62.336,190.061,58.43z"/>
<g>
</g>
<g>
</g>
<g>
</g>
<g>
</g>
<g>
</g>
<g>
</g>
<g>
</g>
<g>
</g>
<g>
</g>
<g>
</g>
<g>
</g>
<g>
</g>
<g>
</g>
<g>
</g>
<g>
</g>
</svg>
