<?xml version="1.0" encoding="iso-8859-1"?>
<!-- Generator: Adobe Illustrator 19.0.0, SVG Export Plug-In . SVG Version: 6.00 Build 0)  -->
<svg version="1.1" id="Capa_1" xmlns="http://www.w3.org/2000/svg" xmlns:xlink="http://www.w3.org/1999/xlink" x="0px" y="0px"
	 viewBox="0 0 512 512" style="enable-background:new 0 0 512 512;" xml:space="preserve">
<path style="fill:#C4EFFF;" d="M10,56.998v271.988c0,11.046,8.954,20,20,20h452c11.046,0,20-8.954,20-20V56.998
	c0-11.046-8.954-20-20-20H30C18.954,36.998,10,45.952,10,56.998z"/>
<rect x="64" y="36.998" style="fill:#EAF9FF;" width="384" height="311.99"/>
<rect x="112" y="100.619" style="fill:#72D8FF;" width="64" height="64"/>
<rect x="224" y="100.619" style="fill:#C1EE92;" width="64" height="64"/>
<rect x="336" y="100.619" style="fill:#72D8FF;" width="64" height="64"/>
<rect x="112" y="212.659" style="fill:#C1EE92;" width="64" height="64"/>
<rect x="224" y="212.659" style="fill:#FE8F8D;" width="64" height="64"/>
<rect x="336" y="212.659" style="fill:#F9CC9F;" width="64" height="64"/>
<path style="fill:#FBDEC1;" d="M376.818,338.998L376.818,338.998c-11.117,0-20.129,9.012-20.129,20.129v-16.01
	c0-11.117-9.012-20.129-20.129-20.129l0,0c-11.117,0-20.129,9.012-20.129,20.129c0-11.117-9.012-20.129-20.129-20.129
	s-20.129,9.012-20.129,20.129v-76.026c0-11.117-9.012-20.129-20.129-20.129s-20.129,9.012-20.129,20.129V428.68l-24.287-39.85
	c-5.971-9.798-18.67-13.039-28.607-7.302l0,0c-9.583,5.532-13.274,17.521-8.463,27.485l31.858,65.986h190.532V359.127
	C396.947,348.01,387.935,338.998,376.818,338.998z"/>
<path d="M203,348.985c0-5.523-4.477-10-10-10H74V117.998c0-5.523-4.477-10-10-10s-10,4.477-10,10v220.987H30
	c-5.514,0-10-4.486-10-10V56.998c0-5.514,4.486-10,10-10h242c5.523,0,10-4.477,10-10s-4.477-10-10-10H30c-16.542,0-30,13.458-30,30
	v271.987c0,16.542,13.458,30,30,30h163C198.523,358.985,203,354.508,203,348.985z"/>
<path d="M316.43,46.998c2.63,0,5.21-1.07,7.07-2.93c1.86-1.86,2.93-4.44,2.93-7.07s-1.07-5.21-2.93-7.07s-4.44-2.93-7.07-2.93
	s-5.21,1.07-7.07,2.93c-1.86,1.86-2.93,4.44-2.93,7.07s1.07,5.21,2.93,7.07S313.8,46.998,316.43,46.998z"/>
<path d="M482,26.998H356.689c-5.523,0-10,4.477-10,10s4.477,10,10,10H438v291.987h-8.333c-5.523,0-10,4.477-10,10s4.477,10,10,10
	H482c16.542,0,30-13.458,30-30V56.998C512,40.456,498.542,26.998,482,26.998z M492,328.985c0,5.514-4.486,10-10,10h-24V46.998h24
	c5.514,0,10,4.486,10,10V328.985z"/>
<path d="M56.93,75.597c-1.86,1.86-2.93,4.43-2.93,7.07c0,2.63,1.07,5.21,2.93,7.07s4.44,2.93,7.07,2.93c2.63,0,5.21-1.07,7.07-2.93
	s2.93-4.44,2.93-7.07c0-2.64-1.07-5.21-2.93-7.07c-1.86-1.87-4.44-2.93-7.07-2.93S58.79,73.728,56.93,75.597z"/>
<path d="M186,100.623c0-5.523-4.477-10-10-10h-64c-5.523,0-10,4.477-10,10v64c0,5.523,4.477,10,10,10h64c5.523,0,10-4.477,10-10
	V100.623z M166,154.623h-44v-44h44V154.623z"/>
<path d="M214,100.623v64c0,5.523,4.477,10,10,10h64c5.523,0,10-4.477,10-10v-64c0-5.523-4.477-10-10-10h-64
	C218.477,90.623,214,95.1,214,100.623z M234,110.623h44v44h-44V110.623z"/>
<path d="M400,90.623h-64c-5.523,0-10,4.477-10,10v64c0,5.523,4.477,10,10,10h64c5.523,0,10-4.477,10-10v-64
	C410,95.1,405.523,90.623,400,90.623z M390,154.623h-44v-44h44V154.623z"/>
<path d="M176,202.658h-64c-5.523,0-10,4.477-10,10v64c0,5.523,4.477,10,10,10h64c5.523,0,10-4.477,10-10v-64
	C186,207.135,181.523,202.658,176,202.658z M166,266.658h-44v-44h44V266.658z"/>
<path d="M288,202.658h-64c-5.523,0-10,4.477-10,10s4.477,10,10,10h64c5.523,0,10-4.477,10-10S293.523,202.658,288,202.658z"/>
<path d="M400,202.658h-64c-5.523,0-10,4.477-10,10v64c0,5.523,4.477,10,10,10h64c5.523,0,10-4.477,10-10v-64
	C410,207.135,405.523,202.658,400,202.658z M390,266.658h-44v-44h44V266.658z"/>
<path d="M376.818,328.998c-4.416,0-8.609,0.963-12.392,2.677c-4.515-10.954-15.302-18.687-27.867-18.687
	c-7.731,0-14.789,2.929-20.129,7.733c-5.34-4.804-12.398-7.733-20.129-7.733c-3.553,0-6.961,0.622-10.129,1.757v-47.654
	c0-16.613-13.516-30.129-30.129-30.129s-30.129,13.516-30.129,30.129v125.966l-5.748-9.431
	c-8.872-14.556-27.384-19.283-42.146-10.758c-14.041,8.106-19.518,25.893-12.468,40.493l31.857,65.986
	c1.725,3.572,5.295,5.655,9.013,5.655c1.458,0,2.939-0.32,4.34-0.997c4.974-2.401,7.059-8.379,4.658-13.353l-31.857-65.986
	c-2.521-5.22-0.563-11.578,4.458-14.477c5.278-3.048,11.896-1.357,15.067,3.846l24.287,39.85c2.333,3.827,6.928,5.635,11.242,4.424
	c4.315-1.211,7.297-5.146,7.297-9.628v-161.59c0-5.585,4.544-10.129,10.129-10.129s10.129,4.544,10.129,10.129v124.806
	c0,5.523,4.477,10,10,10s10-4.477,10-10v-48.78c0-5.585,4.544-10.129,10.129-10.129s10.129,4.544,10.129,10.129v48.78
	c0,5.523,4.477,10,10,10s10-4.477,10-10v-48.78c0-5.585,4.544-10.129,10.129-10.129s10.129,4.544,10.129,10.129v48.78
	c0,5.523,4.477,10,10,10s10-4.477,10-10v-32.77c0-5.585,4.544-10.129,10.129-10.129s10.129,4.544,10.129,10.129v115.871
	c0,5.523,4.477,10,10,10s10-4.477,10-10V359.127C406.947,342.513,393.431,328.998,376.818,328.998z"/>
<path d="M476.27,183.268c-2.64,0-5.21,1.06-7.08,2.92c-1.86,1.87-2.92,4.44-2.92,7.08c0,2.63,1.06,5.2,2.92,7.07
	c1.87,1.86,4.44,2.93,7.08,2.93c2.63,0,5.2-1.07,7.07-2.93c1.86-1.86,2.93-4.44,2.93-7.07c0-2.64-1.07-5.21-2.93-7.08
	C481.48,184.328,478.9,183.268,476.27,183.268z"/>
<g>
</g>
<g>
</g>
<g>
</g>
<g>
</g>
<g>
</g>
<g>
</g>
<g>
</g>
<g>
</g>
<g>
</g>
<g>
</g>
<g>
</g>
<g>
</g>
<g>
</g>
<g>
</g>
<g>
</g>
</svg>
