<?xml version="1.0" encoding="iso-8859-1"?>
<!-- Generator: Adobe Illustrator 19.0.0, SVG Export Plug-In . SVG Version: 6.00 Build 0)  -->
<svg xmlns="http://www.w3.org/2000/svg" xmlns:xlink="http://www.w3.org/1999/xlink" version="1.1" id="Layer_1" x="0px" y="0px" viewBox="0 0 482.503 482.503" style="enable-background:new 0 0 482.503 482.503;" xml:space="preserve" width="512" height="512">
<g>
	<g>
		<path style="fill:#D1D1D1;" d="M462.659,187.217v265.469c0,12.325-9.991,22.317-22.316,22.317H244.046H47.751    c-12.325,0-22.317-9.991-22.317-22.317V187.217"/>
		<path style="fill:#E5E9EA;" d="M244.05,182.333v292.67h-3.31c-6.95-17.52-24.04-29.9-44.02-29.9H47.75    c-12.32,0-22.32-9.99-22.32-22.31v-265.47c0-12.33,10-22.32,22.32-22.32h148.97C222.86,135.003,244.05,156.193,244.05,182.333z"/>
		<path style="fill:#E5E9EA;" d="M462.66,157.323v265.47c0,12.32-9.99,22.31-22.32,22.31H291.38c-2.84,0-5.63,0.25-8.33,0.74    c-16.31,2.89-29.73,14.13-35.69,29.16h-3.31v-292.67c0-23.3,16.83-42.66,39-46.6c2.71-0.48,5.49-0.73,8.33-0.73h148.96    C452.67,135.003,462.66,144.993,462.66,157.323z"/>
		<path style="fill:#D1D1D1;" d="M283.05,135.733v310.11c-16.31,2.89-29.73,14.13-35.69,29.16h-3.31v-292.67    C244.05,159.033,260.88,139.673,283.05,135.733z"/>
		<path style="fill:#F4F4F4;" d="M205.05,135.733v310.11c16.31,2.89,29.73,14.13,35.69,29.16h3.31v-292.67    C244.05,159.033,227.22,139.673,205.05,135.733z"/>
		<g>
			<path style="fill:#FA3F68;" d="M165.319,202.716c-26.206,21.393-26.741,39.578-26.741,70.599c0,9.627-4.814,19.254-26.741,19.254     c-17.651,0-24.604-6.953-24.604-29.951c0-49.74,17.116-71.133,32.09-84.504c18.72-17.65,52.414-36.369,52.414-72.738     c0-29.951-22.463-45.996-55.089-45.996c-52.414,0-45.461,36.904-70.063,36.904c-12.3,0-26.741-8.023-26.741-25.672     c0-25.672,33.694-63.111,98.41-63.111c67.924,0,110.177,39.043,110.177,90.388C228.431,152.976,181.364,187.74,165.319,202.716z      M148.738,352.445c0,19.254-16.045,36.369-36.369,36.369s-35.834-17.115-35.834-36.369c0-19.789,16.045-36.369,35.834-36.369     C132.159,316.076,148.738,332.656,148.738,352.445z"/>
		</g>
	</g>
	<g>
		<path d="M422.211,185.287H300.867c-4.143,0-7.5,3.358-7.5,7.5s3.357,7.5,7.5,7.5h121.345c4.143,0,7.5-3.358,7.5-7.5    S426.354,185.287,422.211,185.287z"/>
		<path d="M422.211,217.795H300.867c-4.143,0-7.5,3.358-7.5,7.5s3.357,7.5,7.5,7.5h121.345c4.143,0,7.5-3.358,7.5-7.5    S426.354,217.795,422.211,217.795z"/>
		<path d="M422.211,282.811H300.867c-4.143,0-7.5,3.358-7.5,7.5s3.357,7.5,7.5,7.5h121.345c4.143,0,7.5-3.358,7.5-7.5    S426.354,282.811,422.211,282.811z"/>
		<path d="M422.211,347.827H300.867c-4.143,0-7.5,3.358-7.5,7.5s3.357,7.5,7.5,7.5h121.345c4.143,0,7.5-3.358,7.5-7.5    S426.354,347.827,422.211,347.827z"/>
		<path d="M422.211,250.303H300.867c-4.143,0-7.5,3.358-7.5,7.5s3.357,7.5,7.5,7.5h121.345c4.143,0,7.5-3.358,7.5-7.5    S426.354,250.303,422.211,250.303z"/>
		<path d="M422.211,315.319H300.867c-4.143,0-7.5,3.358-7.5,7.5s3.357,7.5,7.5,7.5h121.345c4.143,0,7.5-3.358,7.5-7.5    S426.354,315.319,422.211,315.319z"/>
		<path d="M440.339,127.503h-148.96c-3.229,0-6.473,0.284-9.643,0.846c-16.303,2.897-29.82,12.795-37.702,26.278    c-0.587-1-1.2-1.988-1.854-2.955c-2.319-3.432-6.981-4.335-10.413-2.016c-3.433,2.319-4.335,6.981-2.017,10.413    c4.447,6.582,6.798,14.281,6.798,22.264v272.348c-10.133-10.729-24.37-17.078-39.83-17.078H47.75    c-8.172,0-14.82-6.644-14.82-14.81v-235.58v-29.89c0-8.172,6.648-14.82,14.82-14.82h90.639c4.143,0,7.5-3.358,7.5-7.5    s-3.357-7.5-7.5-7.5H47.75c-16.443,0-29.82,13.377-29.82,29.82v29.89v235.58v29.89c0,16.443,13.377,29.82,29.82,29.82h392.59    c16.443,0,29.82-13.377,29.82-29.82v-29.89v-235.58v-29.89C470.16,140.88,456.783,127.503,440.339,127.503z M32.929,452.683    v-4.039c4.369,2.513,9.428,3.959,14.82,3.959h148.97c12.382,0,23.685,5.604,31.103,14.9H47.75    C39.578,467.503,32.929,460.855,32.929,452.683z M455.16,422.793c0,8.166-6.648,14.81-14.82,14.81h-82.951    c-4.143,0-7.5,3.358-7.5,7.5s3.357,7.5,7.5,7.5h82.951c5.393,0,10.451-1.446,14.82-3.959v4.039c0,8.172-6.648,14.82-14.82,14.82    H260.355c5.975-7.394,14.501-12.592,24.033-14.281c2.266-0.411,4.617-0.619,6.991-0.619h41.007c4.143,0,7.5-3.358,7.5-7.5    s-3.357-7.5-7.5-7.5h-41.007c-3.27,0-6.522,0.29-9.639,0.855c-11.637,2.062-22.209,7.926-30.191,16.343V182.333    c0-1.185,0.053-2.358,0.155-3.519c0.005-0.042,0.007-0.084,0.011-0.126c1.608-17.739,14.84-32.406,32.642-35.57    c2.305-0.408,4.667-0.615,7.022-0.615h148.96c8.172,0,14.82,6.648,14.82,14.82v29.89V422.793z"/>
		<path d="M112.37,308.576c-23.895,0-43.334,19.679-43.334,43.869s19.439,43.869,43.334,43.869c23.779,0,43.868-20.09,43.868-43.869    C156.238,328.666,136.149,308.576,112.37,308.576z M112.37,381.314c-15.623,0-28.334-12.95-28.334-28.869    s12.711-28.869,28.334-28.869c15.648,0,28.868,13.22,28.868,28.869C141.238,368.094,128.018,381.314,112.37,381.314z"/>
		<path d="M46.584,103.783c13.651,0,20.408-8.612,26.37-16.21c7.983-10.173,16.237-20.693,43.693-20.693    c42.951,0,47.588,26.921,47.588,38.496c0,25.601-19.725,41.84-37.127,56.167c-4.613,3.798-8.973,7.387-12.857,11.043    c-16.089,14.387-34.52,37.636-34.52,90.031c0,26.251,9.601,37.451,32.104,37.451c29.793,0,34.241-16.762,34.241-26.754    c0-31.349,0.97-46,23.985-64.789c0.128-0.105,0.253-0.214,0.374-0.327c1.673-1.561,3.724-3.37,6.099-5.465    c19.279-17.002,59.396-52.381,59.396-104.847c0-20.645-6.396-39.913-18.495-55.721c-2.518-3.288-7.224-3.916-10.515-1.397    c-3.289,2.517-3.915,7.225-1.397,10.514c10.08,13.168,15.407,29.284,15.407,46.604c0,45.695-35.334,76.856-54.316,93.597    c-2.379,2.098-4.444,3.919-6.23,5.579c-29.306,24.02-29.307,45.939-29.307,76.251c0,4.108,0,11.754-19.241,11.754    c-12.153,0-17.104-2.031-17.104-22.451c0-46.256,14.955-65.847,29.585-78.91c0.051-0.045,0.101-0.091,0.15-0.137    c3.537-3.335,7.733-6.79,12.176-10.448c18.976-15.623,42.593-35.067,42.593-67.748c0-32.998-23.982-53.496-62.588-53.496    c-34.752,0-46.74,15.278-55.494,26.434c-5.696,7.26-8.472,10.47-14.569,10.47c-6.655,0-19.241-3.798-19.241-18.172    C27.343,47.882,59.717,15,118.253,15c28.964,0,53.977,7.414,72.335,21.442c3.293,2.516,7.998,1.885,10.514-1.406    c2.515-3.291,1.885-7.998-1.406-10.513C178.699,8.48,150.537,0,118.253,0C49.149,0,12.343,41.008,12.343,70.611    C12.343,92.157,29.985,103.783,46.584,103.783z"/>
	</g>
</g>















</svg>
