<?xml version="1.0" encoding="iso-8859-1"?>
<!-- Generator: Adobe Illustrator 19.0.0, SVG Export Plug-In . SVG Version: 6.00 Build 0)  -->
<svg xmlns="http://www.w3.org/2000/svg" xmlns:xlink="http://www.w3.org/1999/xlink" version="1.1" id="Layer_1" x="0px" y="0px" viewBox="0 0 505 505" style="enable-background:new 0 0 505 505;" xml:space="preserve" width="512" height="512">
<g>
	<g>
		<path style="fill:#53BCE9;" d="M252.5,7.5c-135.31,0-245,109.69-245,245s109.69,245,245,245s245-109.69,245-245    S387.81,7.5,252.5,7.5z M252.5,340.62c-48.67,0-88.13-39.45-88.13-88.12s39.46-88.12,88.13-88.12s88.12,39.45,88.12,88.12    S301.17,340.62,252.5,340.62z"/>
		<g id="XMLID_50_">
			<g>
				<path style="fill:#47C97F;" d="M252.5,340.62V497.5c-67.66,0-128.9-27.42-173.24-71.76l110.93-110.93      C206.14,330.76,228.16,340.62,252.5,340.62z"/>
				<path style="fill:#36A6CE;" d="M79.26,79.26l110.93,110.93c-15.95,15.94-25.81,37.98-25.81,62.31H7.5      C7.5,184.85,34.92,123.59,79.26,79.26z"/>
				<path style="fill:#FA3F68;" d="M425.74,79.26L314.81,190.19c-15.95-15.95-37.97-25.81-62.31-25.81V7.5      C320.16,7.5,381.4,34.92,425.74,79.26z"/>
				<path style="fill:#E29A4B;" d="M340.62,252.5H497.5c0,67.65-27.42,128.91-71.76,173.24L314.81,314.81      C330.76,298.87,340.62,276.83,340.62,252.5z"/>
				<path style="fill:#FCB65F;" d="M314.81,314.81l110.93,110.93C381.4,470.08,320.16,497.5,252.5,497.5V340.62      C276.84,340.62,298.86,330.76,314.81,314.81z"/>
				<path style="fill:#E02F5E;" d="M497.5,252.5H340.62c0-24.33-9.86-46.37-25.81-62.31L425.74,79.26      C470.08,123.59,497.5,184.85,497.5,252.5z"/>
				<path style="fill:#35B568;" d="M164.38,252.5c0,24.33,9.86,46.37,25.81,62.31L79.26,425.74C34.92,381.41,7.5,320.15,7.5,252.5      H164.38z"/>
			</g>
		</g>
	</g>
	<path d="M483.999,151.525l-13.746,6.004c12.109,27.723,18.688,57.114,19.619,87.471H347.827   c-1.617-20.737-9.88-39.635-22.652-54.568L425.631,89.976c11.343,12.075,21.46,25.315,30.085,39.535l12.824-7.779   c-22.112-36.457-53.326-66.964-90.267-88.225C340.187,11.586,296.695,0,252.5,0C185.055,0,121.646,26.265,73.955,73.956   C26.265,121.646,0,185.055,0,252.5s26.265,130.854,73.955,178.544C121.646,478.735,185.055,505,252.5,505   s130.854-26.265,178.544-73.956C478.735,383.354,505,319.945,505,252.5C505,217.404,497.935,183.431,483.999,151.525z    M121.142,383.858c-2.929-2.928-7.677-2.93-10.607,0L79.35,415.043C39.511,372.67,16.921,318.133,15.129,260h142.034   c1.617,20.739,9.882,39.638,22.658,54.572l-51.288,51.287l10.607,10.606l51.288-51.288c14.935,12.771,33.833,21.033,54.571,22.649   v142.043c-58.132-1.792-112.67-24.382-155.043-64.221l31.185-31.185C124.07,391.536,124.07,386.787,121.142,383.858z M245,157.173   c-20.738,1.616-39.637,9.878-54.571,22.649L89.957,79.35C132.33,39.511,186.868,16.921,245,15.129V157.173z M179.821,190.428   c-12.775,14.934-21.041,33.833-22.657,54.572H15.129c1.792-58.133,24.382-112.67,64.22-155.043L179.821,190.428z M260,347.827   c20.736-1.617,39.635-9.879,54.568-22.652L415.043,425.65c-42.372,39.839-96.91,62.429-155.043,64.221V347.827z M325.175,314.569   c12.773-14.934,21.036-33.832,22.653-54.569h142.043c-1.792,58.132-24.382,112.67-64.221,155.043L325.175,314.569z M252.5,333.12   c-44.46,0-80.63-36.166-80.63-80.62s36.17-80.62,80.63-80.62c44.454,0,80.62,36.166,80.62,80.62S296.954,333.12,252.5,333.12z    M415.024,79.369L314.568,179.825c-14.933-12.772-33.831-21.035-54.568-22.652V15.121c38.98,1.229,77.134,12.015,110.792,31.387   C386.787,55.713,401.621,66.78,415.024,79.369z"/>
</g>















</svg>
