<?xml version="1.0" encoding="iso-8859-1"?>
<!-- Generator: Adobe Illustrator 19.0.0, SVG Export Plug-In . SVG Version: 6.00 Build 0)  -->
<svg xmlns="http://www.w3.org/2000/svg" xmlns:xlink="http://www.w3.org/1999/xlink" version="1.1" id="Layer_1" x="0px" y="0px" viewBox="0 0 505 505" style="enable-background:new 0 0 505 505;" xml:space="preserve" width="512" height="512">
<g>
	<g>
		<path style="fill:#D1D1D1;" d="M497.499,120.498v297.509c0,13.813-11.197,25.01-25.01,25.01H252.502H32.515    c-13.813,0-25.01-11.197-25.01-25.01V120.498"/>
		<path style="fill:#E5E9EA;" d="M252.505,115.025v327.993h-3.709c-7.789-19.635-26.941-33.509-49.333-33.509H32.514    c-13.807,0-25.014-11.196-25.014-25.003V86.996c0-13.818,11.207-25.014,25.014-25.014h166.949    C228.758,61.982,252.505,85.73,252.505,115.025z"/>
		<path style="fill:#E5E9EA;" d="M497.5,86.996v297.51c0,13.807-11.196,25.003-25.014,25.003H305.548    c-3.183,0-6.31,0.28-9.335,0.829c-18.278,3.239-33.318,15.835-39.997,32.679h-3.709V115.025c0-26.112,18.861-47.809,43.707-52.224    c3.037-0.538,6.153-0.818,9.335-0.818h166.938C486.304,61.982,497.5,73.178,497.5,86.996z"/>
		<path style="fill:#D1D1D1;" d="M296.212,62.801v347.538c-18.278,3.239-33.318,15.835-39.997,32.679h-3.709V115.025    C252.505,88.913,271.367,67.216,296.212,62.801z"/>
		<path style="fill:#F4F4F4;" d="M208.798,62.801v347.538c18.278,3.239,33.318,15.835,39.997,32.679h3.709V115.025    C252.505,88.913,233.644,67.216,208.798,62.801z"/>
		<rect x="316.18" y="126.74" style="fill:#53BCE9;" width="135.99" height="182.157"/>
		<path style="fill:#FCB65F;" d="M378.03,144.57c0,24.02-19.47,43.5-43.5,43.5c-6.56,0-12.78-1.45-18.35-4.05v-57.28h58.04    C376.67,132.18,378.03,138.221,378.03,144.57z"/>
		<polygon style="fill:#566368;" points="452.556,191.096 451.639,309.423 315.653,308.369 315.931,272.53 365.243,214.42     383.103,232.549 434.627,172.887   "/>
	</g>
	<g>
		<path d="M59.311,134.24H195.3c4.143,0,7.5-3.358,7.5-7.5s-3.357-7.5-7.5-7.5H59.311c-4.143,0-7.5,3.358-7.5,7.5    S55.168,134.24,59.311,134.24z"/>
		<path d="M195.3,155.672h-16.753c-4.143,0-7.5,3.358-7.5,7.5s3.357,7.5,7.5,7.5H195.3c4.143,0,7.5-3.358,7.5-7.5    S199.442,155.672,195.3,155.672z"/>
		<path d="M59.311,170.672h94.234c4.143,0,7.5-3.358,7.5-7.5s-3.357-7.5-7.5-7.5H59.311c-4.143,0-7.5,3.358-7.5,7.5    S55.168,170.672,59.311,170.672z"/>
		<path d="M59.311,243.535H195.3c4.143,0,7.5-3.358,7.5-7.5s-3.357-7.5-7.5-7.5H59.311c-4.143,0-7.5,3.358-7.5,7.5    S55.168,243.535,59.311,243.535z"/>
		<path d="M59.311,316.398H195.3c4.143,0,7.5-3.358,7.5-7.5s-3.357-7.5-7.5-7.5H59.311c-4.143,0-7.5,3.358-7.5,7.5    S55.168,316.398,59.311,316.398z"/>
		<path d="M59.311,207.103H195.3c4.143,0,7.5-3.358,7.5-7.5s-3.357-7.5-7.5-7.5H59.311c-4.143,0-7.5,3.358-7.5,7.5    S55.168,207.103,59.311,207.103z"/>
		<path d="M195.3,264.966h-78.25c-4.143,0-7.5,3.358-7.5,7.5s3.357,7.5,7.5,7.5h78.25c4.143,0,7.5-3.358,7.5-7.5    S199.442,264.966,195.3,264.966z"/>
		<path d="M59.311,279.966h32.737c4.143,0,7.5-3.358,7.5-7.5s-3.357-7.5-7.5-7.5H59.311c-4.143,0-7.5,3.358-7.5,7.5    S55.168,279.966,59.311,279.966z"/>
		<path d="M59.311,352.829H195.3c4.143,0,7.5-3.358,7.5-7.5s-3.357-7.5-7.5-7.5H59.311c-4.143,0-7.5,3.358-7.5,7.5    S55.168,352.829,59.311,352.829z"/>
		<path d="M472.486,54.482H305.548c-3.566,0-7.147,0.314-10.648,0.934c-18.562,3.299-33.844,14.82-42.415,30.422    c-10.322-18.676-30.216-31.356-53.021-31.356H32.514C14.586,54.482,0,69.068,0,86.996v33.498v264.012v33.498    c0,17.928,14.586,32.514,32.514,32.514H386.53c4.143,0,7.5-3.358,7.5-7.5s-3.357-7.5-7.5-7.5H268.915    c6.862-9.241,17.114-15.758,28.635-17.8c2.592-0.47,5.282-0.709,7.997-0.709h166.938c6.446,0,12.454-1.893,17.514-5.14v6.135    c0,9.657-7.856,17.514-17.514,17.514h-60.954c-4.143,0-7.5,3.358-7.5,7.5s3.357,7.5,7.5,7.5h60.954    c17.928,0,32.514-14.586,32.514-32.514v-33.498V120.494V86.996C505,69.068,490.414,54.482,472.486,54.482z M15,86.996    c0-9.657,7.856-17.514,17.514-17.514h166.949c25.112,0,45.542,20.43,45.542,45.542v307.553    c-11.261-12.883-27.663-20.569-45.542-20.569H32.514c-9.657,0-17.514-7.852-17.514-17.503V120.494V86.996z M15,418.004v-6.135    c5.059,3.247,11.068,5.14,17.514,5.14h166.949c14.8,0,28.249,7.003,36.687,18.509H32.514C22.856,435.518,15,427.661,15,418.004z     M472.486,402.009H305.548c-3.61,0-7.202,0.32-10.645,0.944c-13.625,2.414-25.925,9.553-34.898,19.765V115.025    c0-1.357,0.061-2.701,0.177-4.03c0.005-0.049,0.009-0.099,0.013-0.148c1.843-20.278,16.971-37.043,37.324-40.661    c2.635-0.467,5.336-0.703,8.028-0.703h166.938c9.657,0,17.514,7.857,17.514,17.514v33.498v264.012    C490,394.157,482.144,402.009,472.486,402.009z"/>
		<path d="M459.669,126.74c0-4.142-3.357-7.5-7.5-7.5H316.18c-4.143,0-7.5,3.358-7.5,7.5v182.157c0,4.142,3.357,7.5,7.5,7.5h135.989    c4.143,0,7.5-3.358,7.5-7.5V126.74z M444.669,172.46l-5.265-5.265c-1.481-1.481-3.508-2.274-5.606-2.191    c-2.093,0.085-4.055,1.04-5.411,2.636l-45.8,53.871l-12.249-12.249c-1.489-1.489-3.523-2.283-5.64-2.189    c-2.104,0.094-4.07,1.069-5.421,2.685l-35.598,42.624v-57.968c3.534,0.766,7.159,1.157,10.854,1.157c28.121,0,51-22.878,51-51    c0-3.51-0.358-6.959-1.051-10.33h60.187V172.46z M369.021,134.24c0.997,3.326,1.512,6.782,1.512,10.33c0,19.85-16.149,36-36,36    c-3.738,0-7.37-0.569-10.854-1.672V134.24H369.021z M323.68,301.398v-25.615l41.853-50.113l48.196,48.197    c2.93,2.929,7.678,2.929,10.607,0c2.929-2.929,2.929-7.678,0-10.606l-31.108-31.108l41.319-48.6l10.122,10.122v107.724H323.68z"/>
		<path d="M452.169,337.829H316.18c-4.143,0-7.5,3.358-7.5,7.5s3.357,7.5,7.5,7.5h135.989c4.143,0,7.5-3.358,7.5-7.5    S456.312,337.829,452.169,337.829z"/>
	</g>
</g>















</svg>
