<?xml version="1.0" encoding="iso-8859-1"?>
<!-- Generator: Adobe Illustrator 19.0.0, SVG Export Plug-In . SVG Version: 6.00 Build 0)  -->
<svg xmlns="http://www.w3.org/2000/svg" xmlns:xlink="http://www.w3.org/1999/xlink" version="1.1" id="Layer_1" x="0px" y="0px" viewBox="0 0 505 505" style="enable-background:new 0 0 505 505;" xml:space="preserve" width="512" height="512">
<g>
	<g>
		<path style="fill:#E5E9EA;" d="M402.501,123.58v344.799c0,16.083-13.038,29.121-29.121,29.121H57.622    c-16.083,0-29.121-13.038-29.121-29.121V36.621C28.501,20.538,41.539,7.5,57.622,7.5h228.799L402.501,123.58z"/>
		<path style="fill:#F4F4F4;" d="M402.501,123.58h-86.959c-16.083,0-29.121-13.038-29.121-29.121V7.5"/>
		<g>
			<path style="fill:#925C44;" d="M284.07,382.009l60.507-72.178l128.391-153.158c2.594-3.092,3.738-6.929,3.499-10.678     c-0.233-3.743-1.866-7.403-4.826-10.139c-5.921-5.473-15.098-5.336-20.851,0.314L308.168,276.173l-67.212,65.979L284.07,382.009z     "/>
			<path style="fill:#7C4935;" d="M471.64,135.856c-5.921-5.473-15.098-5.336-20.851,0.314L240.95,342.146l15.336,14.178     l202.385-212.867C464.222,137.619,469.928,134.273,471.64,135.856z"/>
			<polygon style="fill:#FCB65F;" points="284.07,382.009 344.577,309.831 308.168,276.173 240.956,342.153    "/>
			<path style="fill:#FA3F68;" d="M240.957,342.149c-27.888-9.488-57.495,18.132-56.167,51.945s-0.604,51.324-11.53,63.144     c0,0,123.821-5.82,110.813-75.231"/>
			<path style="fill:#E02F5E;" d="M258.806,358.654l-17.851-16.502c-27.887-9.486-57.496,18.131-56.163,51.94     c1.327,33.815-0.609,51.329-11.533,63.146C212.296,428.117,196.373,374.469,258.806,358.654z"/>
			<polygon style="fill:#E29A4B;" points="321.115,288.142 308.168,276.173 240.956,342.153 256.287,356.325    "/>
		</g>
	</g>
	<g>
		<path d="M28.501,95.268c4.142,0,7.5-3.358,7.5-7.5V36.621C36.001,24.699,45.7,15,57.622,15h221.299v79.459    c0,20.193,16.428,36.621,36.621,36.621h79.459v22.689c0,4.142,3.358,7.5,7.5,7.5s7.5-3.358,7.5-7.5V123.58    c0-1.989-0.79-3.897-2.197-5.303L291.724,2.197C290.318,0.79,288.41,0,286.421,0H57.622C37.429,0,21.001,16.428,21.001,36.621    v51.146C21.001,91.91,24.359,95.268,28.501,95.268z M293.921,94.459V25.606l90.474,90.474h-68.853    C303.62,116.08,293.921,106.381,293.921,94.459z"/>
		<path d="M402.501,267.269c-4.142,0-7.5,3.358-7.5,7.5v193.61c0,11.921-9.699,21.621-21.621,21.621H57.622    c-11.922,0-21.621-9.699-21.621-21.621v-355.61c0-4.142-3.358-7.5-7.5-7.5s-7.5,3.358-7.5,7.5v355.61    c0,20.193,16.428,36.621,36.621,36.621H373.38c20.193,0,36.621-16.428,36.621-36.621v-193.61    C410.001,270.627,406.643,267.269,402.501,267.269z"/>
		<path d="M483.952,145.53c-0.362-5.82-2.926-11.211-7.22-15.18c-8.874-8.205-22.578-7.997-31.196,0.469L238.777,333.783    c-12.634-2.778-26.016,0.304-37.376,8.781c-15.665,11.689-24.902,31.547-24.105,51.825c1.353,34.446-0.966,48.48-9.543,57.758    c-2.066,2.235-2.577,5.498-1.292,8.257c1.235,2.652,3.893,4.334,6.797,4.334c0.118,0,0.236-0.003,0.354-0.008    c0.525-0.024,13.055-0.639,29.856-3.678c4.076-0.737,6.783-4.639,6.045-8.715c-0.738-4.076-4.639-6.783-8.715-6.045    c-4.87,0.881-9.38,1.547-13.293,2.046c5.143-12.994,5.737-30.158,4.779-54.537c-0.605-15.411,6.326-30.438,18.088-39.214    c8.405-6.272,17.843-8.29,26.742-5.771l6.405,5.921l-25.675,19.177c-3.318,2.479-4,7.178-1.521,10.497    c1.473,1.972,3.729,3.012,6.015,3.012c1.561,0,3.136-0.486,4.482-1.492l27.9-20.839l3.206,2.963l-18.588,29.448    c-2.211,3.503-1.164,8.135,2.339,10.346c1.243,0.785,2.627,1.159,3.996,1.159c2.489,0,4.923-1.238,6.35-3.498l17.105-27.099    l7.957,7.356c3.464,25.245-14.645,43.843-53.877,55.304c-3.976,1.162-6.258,5.326-5.096,9.302    c0.957,3.274,3.949,5.399,7.196,5.399c0.696,0,1.404-0.098,2.106-0.303c20.298-5.93,36.13-14.038,47.058-24.098    c14.078-12.961,19.967-28.813,17.542-47.162l186.7-222.715C482.463,157.023,484.323,151.351,483.952,145.53z M308.322,286.533    l25.915,23.958l-50.857,60.667l-10.548-9.751c-0.035-0.034-0.072-0.066-0.107-0.099l-12.442-11.502    c-0.034-0.031-0.067-0.063-0.101-0.094l-8.352-7.722L308.322,286.533z M467.22,151.855L343.885,298.981l-24.846-22.969    l137.006-134.491c2.901-2.851,7.516-2.921,10.504-0.158c1.447,1.337,2.311,3.148,2.433,5.108    C469.108,148.439,468.482,150.351,467.22,151.855z"/>
	</g>
</g>















</svg>
