<?xml version="1.0" encoding="iso-8859-1"?>
<!-- Generator: Adobe Illustrator 19.0.0, SVG Export Plug-In . SVG Version: 6.00 Build 0)  -->
<svg xmlns="http://www.w3.org/2000/svg" xmlns:xlink="http://www.w3.org/1999/xlink" version="1.1" id="Layer_1" x="0px" y="0px" viewBox="0 0 504.997 504.997" style="enable-background:new 0 0 504.997 504.997;" xml:space="preserve" width="512" height="512">
<g>
	<g>
		<path style="fill:#D1D1D1;" d="M405.125,446.658H34.865c-15.115,0-27.368-12.253-27.368-27.368V134.031    c0-15.115,12.253-27.368,27.368-27.368h397.628V419.29C432.493,434.405,420.24,446.658,405.125,446.658z"/>
		<rect x="37.497" y="139.173" style="fill:#F4F4F4;" width="364.996" height="277.485"/>
		<g>
			<path style="fill:#53BCE9;" d="M266.842,228.698l-1.693-4.063c-2.515-6.037-8.414-9.969-14.953-9.969h-60.401     c-6.54,0-12.438,3.932-14.953,9.969l-1.693,4.063c-2.515,6.037-8.414,9.969-14.953,9.969h0c-8.947,0-16.2,7.253-16.2,16.2v73.6     c0,8.947,7.253,16.2,16.2,16.2h123.6c8.947,0,16.2-7.253,16.2-16.2v-73.6c0-8.947-7.253-16.2-16.2-16.2h0     C275.255,238.666,269.357,234.734,266.842,228.698z"/>
			<circle style="fill:#EAE3D0;" cx="219.995" cy="284.666" r="31.168"/>
		</g>
		<circle style="fill:#FA3F68;" cx="412.001" cy="143.833" r="85.496"/>
	</g>
	<g>
		<path d="M432.49,245.43c-4.143,0-7.5,3.358-7.5,7.5v166.362c0,10.955-8.913,19.868-19.868,19.868H34.868    C23.913,439.16,15,430.248,15,419.292V134.028c0-10.956,8.913-19.868,19.868-19.868H307.39c4.143,0,7.5-3.358,7.5-7.5    s-3.357-7.5-7.5-7.5H34.868C15.642,99.16,0,114.802,0,134.028v285.264c0,19.226,15.642,34.868,34.868,34.868h370.254    c19.227,0,34.868-15.642,34.868-34.868V252.93C439.99,248.788,436.633,245.43,432.49,245.43z"/>
		<path d="M301.11,146.67c4.143,0,7.5-3.358,7.5-7.5s-3.357-7.5-7.5-7.5H37.5c-4.142,0-7.5,3.358-7.5,7.5v277.49    c0,4.142,3.358,7.5,7.5,7.5h51.096c4.142,0,7.5-3.358,7.5-7.5s-3.358-7.5-7.5-7.5H45V146.67H301.11z"/>
		<path d="M113.597,424.16H402.49c4.143,0,7.5-3.358,7.5-7.5V254.41c0-4.142-3.357-7.5-7.5-7.5s-7.5,3.358-7.5,7.5v154.75H113.597    c-4.142,0-7.5,3.358-7.5,7.5S109.455,424.16,113.597,424.16z"/>
		<path d="M271.61,221.943c-3.613-8.673-12.019-14.277-21.415-14.277h-60.401c-9.395,0-17.801,5.604-21.416,14.277l-1.692,4.062    c-1.433,3.439-4.767,5.662-8.492,5.662c-12.792,0-23.2,10.407-23.2,23.2v73.601c0,12.792,10.407,23.2,23.2,23.2h123.6    c12.793,0,23.2-10.407,23.2-23.2v-73.601c0-12.792-10.407-23.2-23.2-23.2c-3.726,0-7.059-2.222-8.492-5.662c0,0,0,0,0,0    L271.61,221.943z M281.795,245.667c5.073,0,9.2,4.127,9.2,9.2v73.601c0,5.073-4.127,9.2-9.2,9.2h-123.6    c-5.073,0-9.2-4.127-9.2-9.2v-73.601c0-5.073,4.127-9.2,9.2-9.2c9.395,0,17.801-5.604,21.416-14.277l1.692-4.062    c1.433-3.439,4.767-5.662,8.492-5.662h60.401c3.726,0,7.059,2.222,8.492,5.662l1.693,4.063v0    C263.994,240.063,272.4,245.667,281.795,245.667z"/>
		<path d="M219.995,246.498c-21.046,0-38.168,17.122-38.168,38.168c0,21.046,17.122,38.168,38.168,38.168    c21.046,0,38.168-17.122,38.168-38.168C258.163,263.62,241.041,246.498,219.995,246.498z M219.995,308.834    c-13.327,0-24.168-10.842-24.168-24.168c0-13.326,10.842-24.168,24.168-24.168c13.326,0,24.168,10.842,24.168,24.168    C244.163,297.993,233.321,308.834,219.995,308.834z"/>
		<path d="M412.001,50.837c-51.277,0-92.995,41.718-92.995,92.996s41.718,92.996,92.995,92.996c21.311,0,42.136-7.392,58.64-20.814    c3.213-2.614,3.7-7.337,1.086-10.551c-2.613-3.213-7.338-3.7-10.551-1.087c-13.837,11.254-31.302,17.452-49.175,17.452    c-43.007,0-77.995-34.989-77.995-77.996s34.988-77.996,77.995-77.996s77.996,34.989,77.996,77.996    c0,15.631-4.604,30.708-13.316,43.603c-2.318,3.433-1.416,8.095,2.017,10.414c3.433,2.319,8.094,1.416,10.413-2.016    c10.394-15.384,15.887-33.366,15.887-52C504.997,92.555,463.279,50.837,412.001,50.837z"/>
		<path d="M449.123,106.711c-2.93-2.929-7.678-2.929-10.607,0l-26.515,26.515l-26.515-26.515c-2.93-2.929-7.678-2.929-10.607,0    c-2.929,2.929-2.929,7.678,0,10.606l26.515,26.515l-26.515,26.515c-2.929,2.929-2.929,7.678,0,10.606    c1.465,1.464,3.385,2.197,5.304,2.197s3.839-0.732,5.304-2.197l26.515-26.515l26.515,26.515c1.465,1.464,3.385,2.197,5.304,2.197    s3.839-0.732,5.304-2.197c2.929-2.929,2.929-7.678,0-10.606l-26.515-26.515l26.515-26.515    C452.052,114.389,452.052,109.64,449.123,106.711z"/>
	</g>
</g>















</svg>
