<?xml version="1.0" encoding="iso-8859-1"?>
<!-- Generator: Adobe Illustrator 19.0.0, SVG Export Plug-In . SVG Version: 6.00 Build 0)  -->
<svg xmlns="http://www.w3.org/2000/svg" xmlns:xlink="http://www.w3.org/1999/xlink" version="1.1" id="Layer_1" x="0px" y="0px" viewBox="0 0 505 505" style="enable-background:new 0 0 505 505;" xml:space="preserve" width="512" height="512">
<g>
	<g>
		<path style="fill:#FCB65F;" d="M7.503,140.19v278.705c0,12.208,9.897,22.105,22.105,22.105h222.895h222.895    c12.208,0,22.105-9.897,22.105-22.105V140.19c0-12.809-10.383-23.192-23.192-23.192H30.696    C17.887,116.998,7.503,127.382,7.503,140.19z"/>
		<path style="fill:#D1D1D1;" d="M33.891,126.214v265.469c0,12.325,9.991,22.316,22.317,22.316h196.296h196.296    c12.325,0,22.317-9.991,22.317-22.316V126.214"/>
		<path style="fill:#E5E9EA;" d="M252.5,121.33V414h3.31c6.95-17.52,24.04-29.9,44.02-29.9H448.8c12.32,0,22.32-9.99,22.32-22.31    V96.32c0-12.33-10-22.32-22.32-22.32H299.83C273.69,74,252.5,95.19,252.5,121.33z"/>
		<path style="fill:#E5E9EA;" d="M33.89,96.32v265.47c0,12.32,9.99,22.31,22.32,22.31h148.96c2.84,0,5.63,0.25,8.33,0.74    c16.31,2.89,29.73,14.13,35.69,29.16h3.31V121.33c0-23.3-16.83-42.66-39-46.6c-2.71-0.48-5.49-0.73-8.33-0.73H56.21    C43.88,74,33.89,83.99,33.89,96.32z"/>
		<path style="fill:#F4F4F4;" d="M213.5,74.73v310.11c16.31,2.89,29.73,14.13,35.69,29.16h3.31V121.33    C252.5,98.03,235.67,78.67,213.5,74.73z"/>
		<path style="fill:#D1D1D1;" d="M291.5,74.73v310.11c-16.31,2.89-29.73,14.13-35.69,29.16h-3.31V121.33    C252.5,98.03,269.33,78.67,291.5,74.73z"/>
		<polygon style="fill:#FA3F68;" points="120.683,206.801 158.183,179.293 195.683,206.801 195.683,64 120.683,64   "/>
	</g>
	<g>
		<path d="M497.5,132.69c-4.143,0-7.5,3.358-7.5,7.5V418.9c0,8.051-6.55,14.6-14.6,14.6H29.61c-8.057,0-14.61-6.55-14.61-14.6    v-98.734c0-4.142-3.357-7.5-7.5-7.5s-7.5,3.358-7.5,7.5V418.9c0,16.322,13.283,29.6,29.61,29.6H475.4    c16.321,0,29.6-13.279,29.6-29.6V140.19C505,136.048,501.643,132.69,497.5,132.69z"/>
		<path d="M7.5,302.665c4.143,0,7.5-3.358,7.5-7.5V140.19c0-4.142-3.357-7.5-7.5-7.5s-7.5,3.358-7.5,7.5v154.975    C0,299.307,3.357,302.665,7.5,302.665z"/>
		<path d="M56.21,421.5H448.8c16.443,0,29.82-13.377,29.82-29.82v-29.89V126.21V96.32c0-16.443-13.377-29.82-29.82-29.82H299.83    c-20.173,0-37.824,10.958-47.345,27.227c-7.659-13.086-20.601-22.879-36.182-26.095c-4.047-0.836-8.023,1.772-8.86,5.829    c-0.838,4.057,1.772,8.024,5.829,8.861C231.656,86.118,245,102.522,245,121.33v272.348c-10.133-10.729-24.37-17.078-39.83-17.078    H56.21c-8.172,0-14.819-6.644-14.819-14.81V126.21V96.32c0-8.172,6.647-14.82,14.819-14.82h22.293c4.143,0,7.5-3.358,7.5-7.5    s-3.357-7.5-7.5-7.5H56.21c-16.442,0-29.819,13.377-29.819,29.82v29.89v235.58v29.89C26.391,408.123,39.768,421.5,56.21,421.5z     M299.83,81.5H448.8c8.172,0,14.82,6.648,14.82,14.82v29.89v235.58c0,8.166-6.648,14.81-14.82,14.81h-22.369    c-4.143,0-7.5,3.358-7.5,7.5s3.357,7.5,7.5,7.5H448.8c5.393,0,10.451-1.446,14.82-3.959v4.039c0,8.172-6.648,14.82-14.82,14.82    H268.727c7.417-9.296,18.721-14.9,31.103-14.9h101.599c4.143,0,7.5-3.358,7.5-7.5s-3.357-7.5-7.5-7.5H299.83    c-15.461,0-29.698,6.349-39.83,17.078V121.33C260,99.368,277.868,81.5,299.83,81.5z M56.21,391.6h148.96    c12.382,0,23.685,5.604,31.103,14.9H56.21c-8.172,0-14.819-6.648-14.819-14.82v-4.039C45.76,390.155,50.818,391.6,56.21,391.6z"/>
		<path d="M303.545,139.284h121.344c4.143,0,7.5-3.358,7.5-7.5s-3.357-7.5-7.5-7.5H303.545c-4.143,0-7.5,3.358-7.5,7.5    S299.402,139.284,303.545,139.284z"/>
		<path d="M303.545,171.792h121.344c4.143,0,7.5-3.358,7.5-7.5s-3.357-7.5-7.5-7.5H303.545c-4.143,0-7.5,3.358-7.5,7.5    S299.402,171.792,303.545,171.792z"/>
		<path d="M303.545,236.808h121.344c4.143,0,7.5-3.358,7.5-7.5s-3.357-7.5-7.5-7.5H303.545c-4.143,0-7.5,3.358-7.5,7.5    S299.402,236.808,303.545,236.808z"/>
		<path d="M303.545,301.824h121.344c4.143,0,7.5-3.358,7.5-7.5s-3.357-7.5-7.5-7.5H303.545c-4.143,0-7.5,3.358-7.5,7.5    S299.402,301.824,303.545,301.824z"/>
		<path d="M303.545,204.3h121.344c4.143,0,7.5-3.358,7.5-7.5s-3.357-7.5-7.5-7.5H303.545c-4.143,0-7.5,3.358-7.5,7.5    S299.402,204.3,303.545,204.3z"/>
		<path d="M303.545,269.316h121.344c4.143,0,7.5-3.358,7.5-7.5s-3.357-7.5-7.5-7.5H303.545c-4.143,0-7.5,3.358-7.5,7.5    S299.402,269.316,303.545,269.316z"/>
		<path d="M74.339,139.284H99.5c4.143,0,7.5-3.358,7.5-7.5s-3.357-7.5-7.5-7.5H74.339c-4.143,0-7.5,3.358-7.5,7.5    S70.196,139.284,74.339,139.284z"/>
		<path d="M74.339,171.792H99.5c4.143,0,7.5-3.358,7.5-7.5s-3.357-7.5-7.5-7.5H74.339c-4.143,0-7.5,3.358-7.5,7.5    S70.196,171.792,74.339,171.792z"/>
		<path d="M195.684,221.808H74.339c-4.143,0-7.5,3.358-7.5,7.5s3.357,7.5,7.5,7.5h121.345c4.143,0,7.5-3.358,7.5-7.5    S199.826,221.808,195.684,221.808z"/>
		<path d="M195.684,286.824H74.339c-4.143,0-7.5,3.358-7.5,7.5s3.357,7.5,7.5,7.5h121.345c4.143,0,7.5-3.358,7.5-7.5    S199.826,286.824,195.684,286.824z"/>
		<path d="M74.339,204.3H99.5c4.143,0,7.5-3.358,7.5-7.5s-3.357-7.5-7.5-7.5H74.339c-4.143,0-7.5,3.358-7.5,7.5    S70.196,204.3,74.339,204.3z"/>
		<path d="M195.684,254.316H74.339c-4.143,0-7.5,3.358-7.5,7.5s3.357,7.5,7.5,7.5h121.345c4.143,0,7.5-3.358,7.5-7.5    S199.826,254.316,195.684,254.316z"/>
		<path d="M99.837,71.5c7.359,0,13.347,5.987,13.347,13.346v121.955c0,2.826,1.589,5.413,4.11,6.69    c2.521,1.279,5.547,1.029,7.826-0.643l33.063-24.254l33.064,24.254c1.311,0.962,2.869,1.453,4.437,1.453    c1.156,0,2.318-0.267,3.389-0.81c2.521-1.277,4.11-3.864,4.11-6.69V84.846c0-15.63-12.716-28.346-28.347-28.346h-75    c-4.143,0-7.5,3.358-7.5,7.5S95.694,71.5,99.837,71.5z M174.837,71.5c7.359,0,13.347,5.987,13.347,13.346v107.152l-25.563-18.752    c-1.32-0.969-2.879-1.453-4.437-1.453s-3.116,0.484-4.436,1.453l-25.564,18.752V84.846c0-4.823-1.21-9.367-3.343-13.346H174.837z"/>
	</g>
</g>















</svg>
