<?xml version="1.0" encoding="iso-8859-1"?>
<!-- Generator: Adobe Illustrator 19.0.0, SVG Export Plug-In . SVG Version: 6.00 Build 0)  -->
<svg xmlns="http://www.w3.org/2000/svg" xmlns:xlink="http://www.w3.org/1999/xlink" version="1.1" id="Layer_1" x="0px" y="0px" viewBox="0 0 505.003 505.003" style="enable-background:new 0 0 505.003 505.003;" xml:space="preserve" width="512" height="512">
<g>
	<g>
		<path style="fill:#E5E9EA;" d="M497.503,78.656v347.69c0,16.74-13.57,30.31-30.31,30.31H37.803c-16.73,0-30.3-13.57-30.3-30.31    V78.656c0-16.74,13.57-30.31,30.3-30.31h429.39C483.933,48.346,497.503,61.916,497.503,78.656z"/>
		<g>
			<rect x="7.503" y="85.343" style="fill:#F4F4F4;" width="490" height="169.799"/>
			<circle style="fill:#FA3F68;" cx="116.084" cy="195.643" r="34"/>
			<circle style="fill:#D1D1D1;" cx="252.503" cy="195.643" r="34"/>
			<circle style="fill:#D1D1D1;" cx="388.923" cy="195.643" r="34"/>
		</g>
		<path style="fill:#D1D1D1;" d="M497.503,78.656v51.69h-490v-51.69c0-16.74,13.57-30.31,30.3-30.31h429.39    C483.933,48.346,497.503,61.916,497.503,78.656z"/>
		<g>
			<circle style="fill:#FA3F68;" cx="59.503" cy="89.347" r="19"/>
			<circle style="fill:#47C97F;" cx="178.506" cy="89.347" r="19"/>
			<circle style="fill:#FCB65F;" cx="119.004" cy="89.347" r="19"/>
		</g>
	</g>
	<g>
		<path d="M450.642,370.111H54.365c-4.142,0-7.5,3.358-7.5,7.5s3.358,7.5,7.5,7.5h396.276c4.143,0,7.5-3.358,7.5-7.5    S454.784,370.111,450.642,370.111z"/>
		<path d="M450.642,337.375h-87.135c-4.143,0-7.5,3.358-7.5,7.5s3.357,7.5,7.5,7.5h87.135c4.143,0,7.5-3.358,7.5-7.5    S454.784,337.375,450.642,337.375z"/>
		<path d="M46.865,344.875c0,4.142,3.358,7.5,7.5,7.5h284.14c4.143,0,7.5-3.358,7.5-7.5s-3.357-7.5-7.5-7.5H54.365    C50.223,337.375,46.865,340.733,46.865,344.875z"/>
		<path d="M450.642,402.846H189.506c-4.142,0-7.5,3.358-7.5,7.5s3.358,7.5,7.5,7.5h261.135c4.143,0,7.5-3.358,7.5-7.5    S454.784,402.846,450.642,402.846z"/>
		<path d="M164.505,402.846H54.365c-4.142,0-7.5,3.358-7.5,7.5s3.358,7.5,7.5,7.5h110.14c4.142,0,7.5-3.358,7.5-7.5    S168.647,402.846,164.505,402.846z"/>
		<path d="M75.364,319.64h83.616c4.142,0,7.5-3.358,7.5-7.5s-3.358-7.5-7.5-7.5H75.364c-4.142,0-7.5,3.358-7.5,7.5    S71.222,319.64,75.364,319.64z"/>
		<path d="M47.435,315.01c1.216,2.881,4.156,4.78,7.298,4.621c3.129-0.159,5.9-2.313,6.806-5.313    c1.943-6.43-5.273-12.062-11.027-8.613C47.343,307.605,46.072,311.599,47.435,315.01z"/>
		<path d="M116.084,154.143c-22.883,0-41.5,18.617-41.5,41.5s18.617,41.5,41.5,41.5s41.5-18.617,41.5-41.5    S138.967,154.143,116.084,154.143z M116.084,222.143c-14.612,0-26.5-11.888-26.5-26.5s11.888-26.5,26.5-26.5    s26.5,11.888,26.5,26.5S130.696,222.143,116.084,222.143z"/>
		<path d="M252.503,154.143c-22.883,0-41.5,18.617-41.5,41.5s18.617,41.5,41.5,41.5s41.5-18.617,41.5-41.5    S275.387,154.143,252.503,154.143z M252.503,222.143c-14.612,0-26.5-11.888-26.5-26.5s11.888-26.5,26.5-26.5    c14.612,0,26.5,11.888,26.5,26.5S267.115,222.143,252.503,222.143z"/>
		<path d="M347.423,195.643c0,22.883,18.617,41.5,41.5,41.5s41.5-18.617,41.5-41.5c0-4.835-0.826-9.576-2.455-14.09    c-1.406-3.897-5.707-5.914-9.601-4.509c-3.896,1.406-5.915,5.705-4.509,9.601c1.038,2.876,1.564,5.904,1.564,8.998    c0,14.612-11.888,26.5-26.5,26.5s-26.5-11.888-26.5-26.5s11.888-26.5,26.5-26.5c5.026,0,9.915,1.411,14.138,4.081    c3.501,2.211,8.134,1.169,10.347-2.332c2.214-3.501,1.17-8.134-2.331-10.347c-6.625-4.188-14.285-6.402-22.153-6.402    C366.04,154.143,347.423,172.76,347.423,195.643z"/>
		<path d="M197.98,188.143h-27.373c-4.142,0-7.5,3.358-7.5,7.5s3.358,7.5,7.5,7.5h27.373c4.142,0,7.5-3.358,7.5-7.5    S202.122,188.143,197.98,188.143z"/>
		<path d="M334.399,188.143h-27.373c-4.143,0-7.5,3.358-7.5,7.5s3.357,7.5,7.5,7.5h27.373c4.143,0,7.5-3.358,7.5-7.5    S338.542,188.143,334.399,188.143z"/>
		<path d="M467.203,40.846H37.813c-20.849,0-37.81,16.961-37.81,37.81v51.622c0,0.023-0.003,0.045-0.003,0.068    s0.003,0.045,0.003,0.068v295.932c0,20.849,16.961,37.81,37.81,37.81h429.39c20.843,0,37.8-16.961,37.8-37.81V78.656    C505.003,57.808,488.046,40.846,467.203,40.846z M37.813,55.846h429.39c12.572,0,22.8,10.232,22.8,22.81v44.19H387.507    c-4.143,0-7.5,3.358-7.5,7.5s3.357,7.5,7.5,7.5h102.496v109.796h-475V137.846h347.501c4.143,0,7.5-3.358,7.5-7.5    s-3.357-7.5-7.5-7.5H15.003v-44.19C15.003,66.079,25.236,55.846,37.813,55.846z M467.203,449.156H37.813    c-12.578,0-22.81-10.232-22.81-22.81V262.643h475v163.704C490.003,438.924,479.775,449.156,467.203,449.156z"/>
		<path d="M59.503,115.847c14.612,0,26.5-11.888,26.5-26.5s-11.888-26.5-26.5-26.5s-26.5,11.888-26.5,26.5    S44.891,115.847,59.503,115.847z M59.503,77.847c6.341,0,11.5,5.159,11.5,11.5s-5.159,11.5-11.5,11.5s-11.5-5.159-11.5-11.5    S53.162,77.847,59.503,77.847z"/>
		<path d="M178.506,115.847c14.612,0,26.5-11.888,26.5-26.5s-11.888-26.5-26.5-26.5s-26.5,11.888-26.5,26.5    S163.894,115.847,178.506,115.847z M178.506,77.847c6.341,0,11.5,5.159,11.5,11.5s-5.159,11.5-11.5,11.5s-11.5-5.159-11.5-11.5    S172.165,77.847,178.506,77.847z"/>
		<path d="M119.004,115.847c14.612,0,26.5-11.888,26.5-26.5s-11.888-26.5-26.5-26.5s-26.5,11.888-26.5,26.5    S104.392,115.847,119.004,115.847z M119.004,77.847c6.341,0,11.5,5.159,11.5,11.5s-5.159,11.5-11.5,11.5s-11.5-5.159-11.5-11.5    S112.663,77.847,119.004,77.847z"/>
	</g>
</g>















</svg>
