<?xml version="1.0" encoding="iso-8859-1"?>
<!-- Generator: Adobe Illustrator 19.0.0, SVG Export Plug-In . SVG Version: 6.00 Build 0)  -->
<svg xmlns="http://www.w3.org/2000/svg" xmlns:xlink="http://www.w3.org/1999/xlink" version="1.1" id="Layer_1" x="0px" y="0px" viewBox="0 0 505 505" style="enable-background:new 0 0 505 505;" xml:space="preserve" width="512" height="512">
<g>
	<g>
		<path style="fill:#E5E9EA;" d="M460.334,279.354h-24.272V163.617h24.272c9.871,0,17.873,8.002,17.873,17.873v79.992    C478.207,271.353,470.205,279.354,460.334,279.354z"/>
		<path style="fill:#D1D1D1;" d="M478.211,240.811v20.666c0,9.877-8.003,17.88-17.88,17.88h-24.269v-20.676h24.269    C470.208,258.682,478.211,250.678,478.211,240.811z"/>
		<path style="fill:#566368;" d="M436.061,241.498v-77.881c0-16.468-13.345-29.813-29.813-29.813h-21.424H80.485H56.611    c-16.468,0-29.813,13.345-29.813,29.813v77.881"/>
		<path style="fill:#FA3F68;" d="M385.63,191.427v141.244H77.229V191.427c0-12.721,10.309-23.03,23.03-23.03h262.331    C375.311,168.397,385.63,178.706,385.63,191.427z"/>
		<path style="fill:#E02F5E;" d="M385.63,191.427v141.244H77.229V191.427c0-12.721,10.309-23.03,23.03-23.03h0.538    c6.005,2.911,10.914,7.907,13.585,14.306c19.139,45.762,64.343,77.919,117.052,77.919c52.699,0,97.903-32.158,117.042-77.919    c2.671-6.399,7.581-11.395,13.585-14.306h0.528C375.311,168.397,385.63,178.706,385.63,191.427z"/>
		<path style="fill:#D1D1D1;" d="M144.37,263.471c22.713-21.464,53.352-34.617,87.056-34.617c33.714,0,64.353,13.153,87.066,34.617    v44.705H144.964L144.37,263.471z"/>
		<path style="fill:#E5E9EA;" d="M397.545,202.976h-22.942c-11.361,0-21.743,6.713-26.127,17.194    c-19.141,45.763-64.338,77.918-117.046,77.918s-97.905-32.155-117.046-77.918c-4.384-10.481-14.766-17.194-26.127-17.194H65.315    c-21.275,0-38.521,17.247-38.521,38.521v217.482c0,21.275,17.247,38.521,38.521,38.521h332.229    c21.275,0,38.521-17.247,38.521-38.521V241.497C436.066,220.223,418.819,202.976,397.545,202.976z"/>
		<polyline style="fill:#E5E9EA;" points="360.805,168.392 360.805,7.5 104.507,7.5 104.507,168.392   "/>
		<polyline style="fill:#D1D1D1;" points="360.805,168.392 360.805,145.85 104.507,145.85 104.507,168.392   "/>
		<g>
			<g>
				<circle style="fill:#566368;" cx="72.796" cy="453.624" r="22.098"/>
				<circle style="fill:#566368;" cx="199.703" cy="453.624" r="22.098"/>
				<circle style="fill:#566368;" cx="326.61" cy="453.624" r="22.098"/>
				<circle style="fill:#566368;" cx="390.064" cy="453.624" r="22.098"/>
				<circle style="fill:#566368;" cx="136.25" cy="453.624" r="22.098"/>
				<circle style="fill:#566368;" cx="263.157" cy="453.624" r="22.098"/>
			</g>
			<g>
				<circle style="fill:#566368;" cx="72.796" cy="337.369" r="22.098"/>
				<circle style="fill:#566368;" cx="199.703" cy="337.369" r="22.098"/>
				<circle style="fill:#566368;" cx="326.61" cy="337.369" r="22.098"/>
				<circle style="fill:#566368;" cx="390.064" cy="337.369" r="22.098"/>
				<circle style="fill:#566368;" cx="136.25" cy="337.369" r="22.098"/>
				<circle style="fill:#566368;" cx="263.157" cy="337.369" r="22.098"/>
			</g>
			<g>
				<circle style="fill:#566368;" cx="167.976" cy="395.497" r="22.098"/>
				<circle style="fill:#566368;" cx="294.883" cy="395.497" r="22.098"/>
				<circle style="fill:#566368;" cx="358.337" cy="395.497" r="22.098"/>
				<circle style="fill:#566368;" cx="104.523" cy="395.497" r="22.098"/>
				<circle style="fill:#566368;" cx="231.43" cy="395.497" r="22.098"/>
			</g>
		</g>
	</g>
	<g>
		<path d="M460.334,156.117c-4.142,0-7.5,3.358-7.5,7.5s3.358,7.5,7.5,7.5c5.719,0,10.373,4.653,10.373,10.373v79.992    c0,5.719-4.653,10.373-10.373,10.373c-4.142,0-7.5,3.358-7.5,7.5s3.358,7.5,7.5,7.5c13.991,0,25.373-11.382,25.373-25.373V181.49    C485.706,167.5,474.324,156.117,460.334,156.117z"/>
		<path d="M270.256,270.729c1.01,0.46,2.08,0.68,3.12,0.68c2.84,0,5.56-1.63,6.83-4.38c1.72-3.77,0.07-8.22-3.7-9.94    c-3.77-1.73-8.22-0.07-9.94,3.69C264.835,264.549,266.495,268.999,270.256,270.729z"/>
		<path d="M182.645,267.039c1.26,2.75,3.98,4.37,6.83,4.37c1.04,0,2.1-0.22,3.11-0.68c3.77-1.73,5.42-6.18,3.7-9.94    c-1.73-3.77-6.18-5.42-9.94-3.7C182.575,258.819,180.926,263.269,182.645,267.039z"/>
		<path d="M244.736,263.239c0.36,0.05,0.72,0.07,1.07,0.07c3.67,0,6.88-2.69,7.42-6.44c0.58-4.1-2.27-7.9-6.37-8.48    c-4.1-0.59-7.9,2.26-8.48,6.36C237.785,258.849,240.635,262.649,244.736,263.239z"/>
		<path d="M217.035,263.319c0.36,0,0.71-0.03,1.07-0.08c4.1-0.59,6.95-4.38,6.37-8.49c-0.59-4.1-4.39-6.94-8.49-6.36    c-4.1,0.59-6.95,4.38-6.36,8.49C210.156,260.619,213.365,263.319,217.035,263.319z"/>
		<path d="M71.305,181.756c-1.309,3.93,0.816,8.177,4.747,9.485c0.786,0.262,1.584,0.386,2.37,0.386    c3.141,0,6.068-1.989,7.115-5.133c2.111-6.338,8.027-10.597,14.723-10.597h262.332c6.701,0,12.622,4.259,14.732,10.598    c1.309,3.93,5.553,6.055,9.485,4.746c3.93-1.309,6.055-5.556,4.746-9.485c-4.155-12.476-15.794-20.858-28.964-20.858H100.259    C87.094,160.897,75.459,169.279,71.305,181.756z"/>
		<path d="M104.507,151.871c4.142,0,7.5-3.358,7.5-7.5V15h241.297v129.371c0,4.142,3.358,7.5,7.5,7.5s7.5-3.358,7.5-7.5V7.5    c0-4.142-3.358-7.5-7.5-7.5H104.507c-4.142,0-7.5,3.358-7.5,7.5v136.871C97.007,148.513,100.365,151.871,104.507,151.871z"/>
		<path d="M443.561,163.617c0-20.575-16.739-37.313-37.313-37.313h-21.424c-4.142,0-7.5,3.358-7.5,7.5s3.358,7.5,7.5,7.5h21.424    c12.303,0,22.313,10.01,22.313,22.313v43.914c-8.187-7.483-19.078-12.055-31.017-12.055h-22.942    c-14.535,0-27.506,8.557-33.046,21.8c-5.671,13.559-13.633,25.646-23.312,35.916c-24.243-20.58-54.795-31.839-86.818-31.839    c-32.018,0-62.567,11.26-86.81,31.839c-9.68-10.27-17.642-22.358-23.313-35.917c-5.54-13.243-18.511-21.8-33.046-21.8H65.315    c-11.94,0-22.83,4.572-31.018,12.055v-43.914c0-12.303,10.01-22.313,22.313-22.313h23.874c4.142,0,7.5-3.358,7.5-7.5    s-3.358-7.5-7.5-7.5H56.611c-20.574,0-37.313,16.738-37.313,37.313l-0.004,295.362c0,25.376,20.645,46.021,46.021,46.021h332.229    c25.376,0,46.021-20.645,46.021-46.021L443.561,163.617z M307.203,263.509c-20.896,17.17-47.462,27.08-75.773,27.08    c-28.31,0-54.877-9.909-75.773-27.079c21.314-17.566,47.916-27.156,75.769-27.156    C259.284,236.354,285.889,245.944,307.203,263.509z M397.545,490H65.315c-17.105,0-31.021-13.916-31.021-31.021V241.575    c0-0.026,0.004-0.051,0.004-0.077v-0.154c0.084-17.035,13.964-30.868,31.018-30.868h22.942c8.47,0,16.009,4.941,19.208,12.588    c20.968,50.132,69.627,82.524,123.965,82.524s102.997-32.393,123.964-82.524c3.199-7.647,10.738-12.588,19.208-12.588h22.942    c17.047,0,30.923,13.823,31.017,30.848v0.174c0,0.029,0.004,0.058,0.004,0.087v217.394C428.566,476.084,414.65,490,397.545,490z"/>
		<path d="M316.24,47.043H149.072c-4.142,0-7.5,3.358-7.5,7.5s3.358,7.5,7.5,7.5H316.24c4.142,0,7.5-3.358,7.5-7.5    S320.382,47.043,316.24,47.043z"/>
		<path d="M316.24,121.472H205.012c-4.142,0-7.5,3.358-7.5,7.5s3.358,7.5,7.5,7.5H316.24c4.142,0,7.5-3.358,7.5-7.5    S320.382,121.472,316.24,121.472z"/>
		<path d="M149.072,136.472h31.919c4.142,0,7.5-3.358,7.5-7.5s-3.358-7.5-7.5-7.5h-31.919c-4.142,0-7.5,3.358-7.5,7.5    S144.93,136.472,149.072,136.472z"/>
		<path d="M316.24,84.257h-40.613c-4.142,0-7.5,3.358-7.5,7.5s3.358,7.5,7.5,7.5h40.613c4.142,0,7.5-3.358,7.5-7.5    S320.382,84.257,316.24,84.257z"/>
		<path d="M149.072,99.257h102.533c4.142,0,7.5-3.358,7.5-7.5s-3.358-7.5-7.5-7.5H149.072c-4.142,0-7.5,3.358-7.5,7.5    S144.93,99.257,149.072,99.257z"/>
		<path d="M72.796,424.026c-16.32,0-29.598,13.277-29.598,29.598s13.278,29.598,29.598,29.598s29.598-13.278,29.598-29.598    S89.116,424.026,72.796,424.026z M72.796,468.222c-8.049,0-14.598-6.549-14.598-14.598s6.549-14.598,14.598-14.598    s14.598,6.548,14.598,14.598S80.845,468.222,72.796,468.222z"/>
		<path d="M199.703,424.026c-16.32,0-29.598,13.277-29.598,29.598s13.277,29.598,29.598,29.598s29.598-13.278,29.598-29.598    S216.023,424.026,199.703,424.026z M199.703,468.222c-8.049,0-14.598-6.549-14.598-14.598s6.548-14.598,14.598-14.598    s14.598,6.548,14.598,14.598S207.752,468.222,199.703,468.222z"/>
		<path d="M326.61,424.026c-16.32,0-29.598,13.277-29.598,29.598s13.278,29.598,29.598,29.598s29.598-13.278,29.598-29.598    S342.93,424.026,326.61,424.026z M326.61,468.222c-8.049,0-14.598-6.549-14.598-14.598s6.549-14.598,14.598-14.598    s14.598,6.548,14.598,14.598S334.659,468.222,326.61,468.222z"/>
		<path d="M390.064,424.026c-16.32,0-29.598,13.277-29.598,29.598s13.278,29.598,29.598,29.598s29.598-13.278,29.598-29.598    S406.384,424.026,390.064,424.026z M390.064,468.222c-8.049,0-14.598-6.549-14.598-14.598s6.549-14.598,14.598-14.598    s14.598,6.548,14.598,14.598S398.113,468.222,390.064,468.222z"/>
		<path d="M136.249,424.026c-16.32,0-29.598,13.277-29.598,29.598s13.277,29.598,29.598,29.598s29.598-13.278,29.598-29.598    S152.57,424.026,136.249,424.026z M136.249,468.222c-8.049,0-14.598-6.549-14.598-14.598s6.548-14.598,14.598-14.598    s14.598,6.548,14.598,14.598S144.299,468.222,136.249,468.222z"/>
		<path d="M263.156,424.026c-16.32,0-29.598,13.277-29.598,29.598s13.278,29.598,29.598,29.598s29.598-13.278,29.598-29.598    S279.477,424.026,263.156,424.026z M263.156,468.222c-8.049,0-14.598-6.549-14.598-14.598s6.549-14.598,14.598-14.598    s14.598,6.548,14.598,14.598S271.206,468.222,263.156,468.222z"/>
		<path d="M72.796,366.967c16.32,0,29.598-13.278,29.598-29.598s-13.277-29.598-29.598-29.598s-29.598,13.277-29.598,29.598    S56.476,366.967,72.796,366.967z M72.796,322.771c8.049,0,14.598,6.548,14.598,14.598s-6.548,14.598-14.598,14.598    s-14.598-6.549-14.598-14.598S64.747,322.771,72.796,322.771z"/>
		<path d="M199.703,366.967c16.32,0,29.598-13.278,29.598-29.598s-13.278-29.598-29.598-29.598s-29.598,13.277-29.598,29.598    S183.383,366.967,199.703,366.967z M199.703,322.771c8.049,0,14.598,6.548,14.598,14.598s-6.549,14.598-14.598,14.598    s-14.598-6.549-14.598-14.598S191.654,322.771,199.703,322.771z"/>
		<path d="M326.61,366.967c16.32,0,29.598-13.278,29.598-29.598s-13.277-29.598-29.598-29.598s-29.598,13.277-29.598,29.598    S310.29,366.967,326.61,366.967z M326.61,322.771c8.049,0,14.598,6.548,14.598,14.598s-6.548,14.598-14.598,14.598    s-14.598-6.549-14.598-14.598S318.561,322.771,326.61,322.771z"/>
		<path d="M390.064,307.771c-16.32,0-29.598,13.277-29.598,29.598s13.278,29.598,29.598,29.598s29.598-13.278,29.598-29.598    S406.384,307.771,390.064,307.771z M390.064,351.967c-8.049,0-14.598-6.549-14.598-14.598s6.549-14.598,14.598-14.598    s14.598,6.548,14.598,14.598S398.113,351.967,390.064,351.967z"/>
		<path d="M136.249,366.967c16.32,0,29.598-13.278,29.598-29.598s-13.278-29.598-29.598-29.598s-29.598,13.277-29.598,29.598    S119.929,366.967,136.249,366.967z M136.249,322.771c8.049,0,14.598,6.548,14.598,14.598s-6.549,14.598-14.598,14.598    s-14.598-6.549-14.598-14.598S128.2,322.771,136.249,322.771z"/>
		<path d="M263.156,366.967c16.32,0,29.598-13.278,29.598-29.598s-13.278-29.598-29.598-29.598s-29.598,13.277-29.598,29.598    S246.836,366.967,263.156,366.967z M263.156,322.771c8.049,0,14.598,6.548,14.598,14.598s-6.549,14.598-14.598,14.598    s-14.598-6.549-14.598-14.598S255.107,322.771,263.156,322.771z"/>
		<path d="M197.574,395.497c0-16.32-13.277-29.598-29.598-29.598s-29.598,13.278-29.598,29.598s13.278,29.598,29.598,29.598    S197.574,411.817,197.574,395.497z M167.976,410.095c-8.049,0-14.598-6.549-14.598-14.598s6.549-14.598,14.598-14.598    s14.598,6.549,14.598,14.598S176.026,410.095,167.976,410.095z"/>
		<path d="M324.481,395.497c0-16.32-13.278-29.598-29.598-29.598s-29.598,13.278-29.598,29.598s13.277,29.598,29.598,29.598    S324.481,411.817,324.481,395.497z M294.883,410.095c-8.049,0-14.598-6.549-14.598-14.598s6.548-14.598,14.598-14.598    s14.598,6.549,14.598,14.598S302.932,410.095,294.883,410.095z"/>
		<path d="M387.935,395.497c0-16.32-13.278-29.598-29.598-29.598s-29.598,13.278-29.598,29.598s13.277,29.598,29.598,29.598    S387.935,411.817,387.935,395.497z M358.337,410.095c-8.049,0-14.598-6.549-14.598-14.598s6.548-14.598,14.598-14.598    s14.598,6.549,14.598,14.598S366.386,410.095,358.337,410.095z"/>
		<path d="M134.121,395.497c0-16.32-13.278-29.598-29.598-29.598s-29.598,13.278-29.598,29.598s13.278,29.598,29.598,29.598    S134.121,411.817,134.121,395.497z M104.523,410.095c-8.049,0-14.598-6.549-14.598-14.598s6.549-14.598,14.598-14.598    s14.598,6.549,14.598,14.598S112.572,410.095,104.523,410.095z"/>
		<path d="M261.028,395.497c0-16.32-13.277-29.598-29.598-29.598s-29.598,13.278-29.598,29.598s13.278,29.598,29.598,29.598    S261.028,411.817,261.028,395.497z M231.43,410.095c-8.049,0-14.598-6.549-14.598-14.598s6.549-14.598,14.598-14.598    s14.598,6.549,14.598,14.598S239.479,410.095,231.43,410.095z"/>
	</g>
</g>















</svg>
