<?xml version="1.0" encoding="iso-8859-1"?>
<!-- Generator: Adobe Illustrator 19.0.0, SVG Export Plug-In . SVG Version: 6.00 Build 0)  -->
<svg xmlns="http://www.w3.org/2000/svg" xmlns:xlink="http://www.w3.org/1999/xlink" version="1.1" id="Layer_1" x="0px" y="0px" viewBox="0 0 505 505" style="enable-background:new 0 0 505 505;" xml:space="preserve" width="512" height="512">
<g>
	<g>
		<rect x="159.023" y="51.196" style="fill:#E5E9EA;" width="274.366" height="402.248"/>
		<path style="fill:#E5E9EA;" d="M71.608,453.809c0-0.38,0-0.75,0.01-1.13v1.12L71.608,453.809z"/>
		<path style="fill:#F4F4F4;" d="M159.018,51.199v402.61c0-24.15-19.56-43.71-43.7-43.71c-23.75,0-43.1,18.95-43.7,42.58V51.199    h-0.01c0-24.13,19.58-43.7,43.71-43.7C139.458,7.499,159.018,27.069,159.018,51.199z"/>
		<path style="fill:#D1D1D1;" d="M115.318,7.499v402.6c-23.75,0-43.1,18.95-43.7,42.58V51.199h-0.01    C71.608,27.069,91.188,7.499,115.318,7.499z"/>
		<path style="fill:#D1D1D1;" d="M414.761,497.5H115.317c-24.131,0-43.705-19.565-43.705-43.696    c0-24.141,19.574-43.705,43.705-43.705c24.141,0,43.705,19.565,43.705,43.705l274.366-0.361"/>
		<path style="fill:#566368;" d="M136.836,453.8v21.52h-21.52c-11.89,0-21.52-9.63-21.52-21.52c0-11.88,9.63-21.52,21.52-21.52    C127.196,432.28,136.836,441.92,136.836,453.8z"/>
		<path style="fill:#E5E9EA;" d="M71.608,453.809c0-0.38,0-0.75,0.01-1.13v1.12L71.608,453.809z"/>
		<g>
			<rect x="194.266" y="89.959" style="fill:#53BCE9;" width="200.38" height="324.721"/>
			<path style="fill:#FCB65F;" d="M394.646,379.221v35.46h-117.28c-0.43-8.23,0.66-16.43,2.58-24.17     c6.4-25.82,22.13-46.56,22.13-46.56c1.37-17.99,6.82-36.09,11.65-46.36c-14.67-19.45-10.34-49.26-21.03-59.95     c-9.26-9.27-36.17,1.72-55.56,3.64c-7.58,0.75-14,0.12-17.76-3.64c-13.41-13.41,8.92-33.69,23.78-48.56     c16.35-16.34,56.48-48.55,83.23-10.9c26.75,37.66,45.58,10.9,50.53,46.57c4.96,35.67-25.76,67.38-13.87,111.97     C369.136,359.57,382.786,372.27,394.646,379.221z"/>
			<path style="fill:#E5E9EA;" d="M269.72,316.576c-22.601-5.251-39.445-25.514-39.445-49.711c0-9.324,2.497-18.063,6.867-25.584     c19.381-1.922,46.292-12.911,55.557-3.646c10.691,10.691,6.361,40.506,21.026,59.956c-4.825,10.265-10.275,28.368-11.642,46.362     c0,0-15.735,20.738-22.135,46.56c-42.468-8.64-38.504-29.299-38.504-29.299C255.699,342.021,269.72,324.959,269.72,316.576z"/>
			<path style="fill:#FA3F68;" d="M277.366,414.68h-65.24c2.75-16.19,16.13-35.73,29.31-53.45c-0.13,0.79-3.12,20.81,38.51,29.28     C278.026,398.25,276.936,406.451,277.366,414.68z"/>
		</g>
	</g>
	<g>
		<path d="M433.388,171.598c4.143,0,7.5-3.358,7.5-7.5V51.196c0-4.142-3.357-7.5-7.5-7.5h-267.42C162.327,19.01,141.004,0,115.318,0    C87.083,0,64.112,22.966,64.112,51.196c0,0.081,0.001,0.162,0.004,0.242V453.65c0,0.052-0.004,0.102-0.004,0.154    c0,28.229,22.971,51.196,51.206,51.196h299.443c4.143,0,7.5-3.358,7.5-7.5s-3.357-7.5-7.5-7.5H115.318    c-19.948,0-36.178-16.211-36.205-36.147c0-0.018,0.003-0.035,0.003-0.053v-0.15c0.084-19.892,16.29-36.051,36.202-36.051    c19.964,0,36.205,16.242,36.205,36.205c0,4.142,3.357,7.5,7.5,7.5c0.801,0,1.57-0.128,2.294-0.36h272.072    c4.143,0,7.5-3.358,7.5-7.5V189.099c0-4.142-3.357-7.5-7.5-7.5s-7.5,3.358-7.5,7.5v256.845H166.523v-72.173    c0-4.142-3.357-7.5-7.5-7.5s-7.5,3.358-7.5,7.5v43.858c-9.273-9.28-22.081-15.029-36.205-15.029    c-14.123,0-26.929,5.748-36.202,15.026V51.199c0-0.074-0.001-0.147-0.003-0.221C79.231,31.12,95.427,15,115.318,15    c19.964,0,36.205,16.237,36.205,36.196v297.573c0,4.142,3.357,7.5,7.5,7.5s7.5-3.358,7.5-7.5V58.696h259.365v105.402    C425.888,168.24,429.246,171.598,433.388,171.598z"/>
		<path d="M419.761,467.819H250.39c-4.143,0-7.5,3.358-7.5,7.5s3.357,7.5,7.5,7.5h169.371c4.143,0,7.5-3.358,7.5-7.5    S423.904,467.819,419.761,467.819z"/>
		<path d="M115.316,439.78c7.73,0,14.02,6.29,14.02,14.02c0,4.142,3.357,7.5,7.5,7.5s7.5-3.358,7.5-7.5    c0-16.001-13.019-29.02-29.02-29.02s-29.02,13.019-29.02,29.02s13.019,29.02,29.02,29.02h110.072c4.143,0,7.5-3.358,7.5-7.5    s-3.357-7.5-7.5-7.5H115.316c-7.73,0-14.02-6.289-14.02-14.02S107.585,439.78,115.316,439.78z"/>
		<path d="M279.856,258.937c-7.546,1.368-11.176-0.01-12.063-0.436c-0.357-0.378-0.367-0.272-0.988-0.626l-1.087-0.62    c-3.599-2.055-8.179-0.8-10.231,2.797c-2.053,3.598-0.8,8.179,2.798,10.231l0.716,0.409c1.901,1.327,6.586,3.836,14.828,3.836    c2.553,0,5.448-0.241,8.705-0.832c4.075-0.739,6.78-4.643,6.041-8.718S283.928,258.195,279.856,258.937z"/>
		<path d="M194.266,82.459c-4.143,0-7.5,3.358-7.5,7.5v324.721c0,4.142,3.357,7.5,7.5,7.5h200.38c4.143,0,7.5-3.358,7.5-7.5V89.959    c0-4.142-3.357-7.5-7.5-7.5H194.266z M281.302,325.394c4.143,0,7.5-3.358,7.5-7.5s-3.357-7.5-7.5-7.5    c-21.555,0-39.491-15.752-42.925-36.347c0.922-0.118,1.866-0.255,2.855-0.435c4.075-0.739,6.78-4.643,6.041-8.718    s-4.646-6.782-8.719-6.041c-0.009,0.002-0.017,0.003-0.026,0.004c0.686-3.68,1.844-7.253,3.445-10.63    c5.308-0.766,10.838-1.971,16.31-3.167c10.207-2.229,25.635-5.6,29.111-2.122c3.379,3.378,4.936,11.82,6.583,20.758    c2.038,11.049,4.402,23.824,11.201,34.74c-4.133,10.126-8.788,26.139-10.352,42.749c-3.627,5.128-13.941,20.729-20.154,40.381    c-19.125-5.167-25.126-13.085-25.785-17.8c1.715-2.295,3.412-4.546,5.062-6.732c10.656-14.127,17.973-24.074,21.275-31.956    C277.223,325.285,279.25,325.394,281.302,325.394z M238.998,377.391c4.876,6.755,14.256,13.974,32.105,18.744    c-0.623,3.621-1.053,7.311-1.232,11.045H222.01C225.549,397.885,231.935,387.528,238.998,377.391z M284.895,407.181    c0.816-13.916,5.802-27.486,10.95-38.07c0.877,4.343,2.143,8.503,3.906,12.349c1.263,2.753,3.98,4.377,6.823,4.377    c1.045,0,2.107-0.22,3.12-0.684c3.766-1.726,5.419-6.177,3.693-9.943c-7.98-17.41-2.961-45.955,3.12-64.189    c1.576,1.213,3.267,2.363,5.095,3.435c1.192,0.699,2.497,1.031,3.786,1.031c2.574,0,5.081-1.327,6.477-3.708    c2.096-3.573,0.896-8.168-2.677-10.263c-14.558-8.534-17.558-24.804-20.459-40.539c-2.083-11.297-4.051-21.967-10.729-28.645    c-9.273-9.274-25.617-5.705-42.919-1.925c-10.564,2.308-26.533,5.798-30.403,1.926c-1.7-1.7-1.927-3.089-1.925-4.223    c0.019-8.247,13.676-21.788,22.714-30.748c1.021-1.012,2.021-2.004,2.991-2.974c8.414-8.414,30.136-27.796,49.741-26.154    c8.527,0.717,15.747,5.393,22.072,14.295c14.468,20.361,27.815,24.148,36.648,26.655c4.159,1.18,6.588,1.925,8.148,3.508    c2.011,2.04,3.498,6.446,4.422,13.095c1.953,14.065-2.532,28.157-7.28,43.076c-0.665,2.089-1.334,4.191-1.991,6.308    c-1.228,3.956,0.984,8.158,4.94,9.386s8.158-0.985,9.386-4.94c0.646-2.082,1.304-4.149,1.958-6.204    c5.047-15.857,10.266-32.254,7.845-49.689c-3-21.597-11.563-25.63-23.333-28.97c-8.018-2.274-17.104-4.853-28.515-20.913    c-8.914-12.545-20.032-19.461-33.044-20.554c-24.977-2.089-49.315,18.205-61.605,30.495c-0.954,0.955-1.939,1.932-2.944,2.928    c-12.713,12.604-27.121,26.889-27.152,41.368c-0.013,5.578,2.172,10.717,6.317,14.862c3.142,3.142,7.122,4.852,11.641,5.609    c-0.885,2.692-1.575,5.448-2.062,8.245c-3.459-1.487-7.556-0.172-9.465,3.175c-2.053,3.598-0.8,8.179,2.798,10.231l0.716,0.409    c0.998,0.697,2.772,1.717,5.416,2.531c2.374,22.171,17.179,40.667,37.288,48.383c-3.698,6.949-12.265,18.307-18.428,26.479    c-14.241,18.88-30.189,40.028-35.784,59.18h-4.424V97.459h185.38v266.778c-8.024-7.693-13.68-17.543-16.854-29.448    c-2.942-11.042-3.286-21.969-1.082-34.389c0.724-4.079-1.996-7.971-6.074-8.695c-4.075-0.724-7.971,1.995-8.695,6.074    c-2.564,14.452-2.121,27.821,1.357,40.873c6.234,23.389,19.815,37.028,31.348,44.717v23.812H284.895z"/>
		<path d="M359.7,117.894h-12.999c-4.143,0-7.5,3.358-7.5,7.5s3.357,7.5,7.5,7.5H359.7c4.143,0,7.5-3.358,7.5-7.5    S363.842,117.894,359.7,117.894z"/>
		<path d="M321.699,117.894H223.7c-4.143,0-7.5,3.358-7.5,7.5s3.357,7.5,7.5,7.5h97.999c4.143,0,7.5-3.358,7.5-7.5    S325.841,117.894,321.699,117.894z"/>
	</g>
</g>















</svg>
