<?xml version="1.0" encoding="iso-8859-1"?>
<!-- Generator: Adobe Illustrator 19.0.0, SVG Export Plug-In . SVG Version: 6.00 Build 0)  -->
<svg xmlns="http://www.w3.org/2000/svg" xmlns:xlink="http://www.w3.org/1999/xlink" version="1.1" id="Layer_1" x="0px" y="0px" viewBox="0 0 505 505" style="enable-background:new 0 0 505 505;" xml:space="preserve" width="512" height="512">
<g>
	<g>
		<rect x="159.023" y="51.196" style="fill:#E5E9EA;" width="274.366" height="402.248"/>
		<path style="fill:#E5E9EA;" d="M71.608,453.809c0-0.38,0-0.75,0.01-1.13v1.12L71.608,453.809z"/>
		<path style="fill:#F4F4F4;" d="M159.018,51.199v402.61c0-24.15-19.56-43.71-43.7-43.71c-23.75,0-43.1,18.95-43.7,42.58V51.199    h-0.01c0-24.13,19.58-43.7,43.71-43.7C139.458,7.499,159.018,27.069,159.018,51.199z"/>
		<path style="fill:#D1D1D1;" d="M115.318,7.499v402.6c-23.75,0-43.1,18.95-43.7,42.58V51.199h-0.01    C71.608,27.069,91.188,7.499,115.318,7.499z"/>
		<path style="fill:#D1D1D1;" d="M414.761,497.5H115.318c-24.131,0-43.705-19.565-43.705-43.696    c0-24.141,19.574-43.705,43.705-43.705c24.141,0,43.705,19.565,43.705,43.705l274.366-0.361"/>
		<path style="fill:#566368;" d="M136.836,453.8v21.52h-21.52c-11.89,0-21.52-9.63-21.52-21.52c0-11.88,9.63-21.52,21.52-21.52    C127.197,432.28,136.836,441.92,136.836,453.8z"/>
		<rect x="183.389" y="102.769" style="fill:#FA3F68;" width="92.565" height="157"/>
		<path style="fill:#FFFFFF;" d="M239.719,216.94h-20l-2.41,42.829h-33.92v-97.67c0,0,35.85,0,52.77-9.65L239.719,216.94z"/>
		<rect x="307.266" y="194.05" style="fill:#53BCE9;" width="92.565" height="157"/>
		<path style="fill:#FCB65F;" d="M244.389,143.439c-1.05,3.68-4.07,6.64-8.23,9.01c-16.92,9.65-52.77,9.65-52.77,9.65v-59.33h49    C232.389,102.769,249.719,124.769,244.389,143.439z"/>
		<polygon style="fill:#566368;" points="399.832,266.99 399.832,351.05 307.272,351.05 307.272,320.99 340.392,282.99     363.432,303.39   "/>
		<circle style="fill:#FCB65F;" cx="346.388" cy="239.769" r="21"/>
		<path style="fill:#E5E9EA;" d="M71.608,453.809c0-0.38,0-0.75,0.01-1.13v1.12L71.608,453.809z"/>
	</g>
	<g>
		<path d="M433.388,404.269c4.143,0,7.5-3.358,7.5-7.5V51.196c0-4.142-3.357-7.5-7.5-7.5h-267.42C162.327,19.01,141.004,0,115.318,0    C87.083,0,64.112,22.966,64.112,51.196c0,0.081,0.001,0.162,0.004,0.242V453.65c0,0.052-0.004,0.102-0.004,0.154    c0,28.229,22.971,51.196,51.206,51.196h299.443c4.143,0,7.5-3.358,7.5-7.5s-3.357-7.5-7.5-7.5H115.318    c-19.948,0-36.178-16.211-36.205-36.147c0-0.018,0.003-0.035,0.003-0.053v-0.15c0.084-19.892,16.29-36.051,36.202-36.051    c19.964,0,36.205,16.242,36.205,36.205c0,4.142,3.357,7.5,7.5,7.5c0.801,0,1.57-0.128,2.294-0.36h272.072    c4.143,0,7.5-3.358,7.5-7.5v-31.673c0-4.142-3.357-7.5-7.5-7.5s-7.5,3.358-7.5,7.5v24.173H166.523V205.771    c0-4.142-3.357-7.5-7.5-7.5s-7.5,3.358-7.5,7.5v211.858c-9.273-9.28-22.081-15.029-36.205-15.029    c-14.123,0-26.929,5.748-36.202,15.026V51.199c0-0.074-0.001-0.147-0.003-0.221C79.231,31.12,95.427,15,115.318,15    c19.964,0,36.205,16.237,36.205,36.196v129.573c0,4.142,3.357,7.5,7.5,7.5s7.5-3.358,7.5-7.5V58.696h259.365v338.073    C425.888,400.911,429.246,404.269,433.388,404.269z"/>
		<path d="M275.955,283.669h-92.565c-4.143,0-7.5,3.358-7.5,7.5s3.357,7.5,7.5,7.5h92.565c4.143,0,7.5-3.358,7.5-7.5    S280.097,283.669,275.955,283.669z"/>
		<path d="M275.955,315.069h-92.565c-4.143,0-7.5,3.358-7.5,7.5s3.357,7.5,7.5,7.5h92.565c4.143,0,7.5-3.358,7.5-7.5    S280.097,315.069,275.955,315.069z"/>
		<path d="M275.955,346.469h-92.565c-4.143,0-7.5,3.358-7.5,7.5s3.357,7.5,7.5,7.5h92.565c4.143,0,7.5-3.358,7.5-7.5    S280.097,346.469,275.955,346.469z"/>
		<path d="M275.955,377.869h-92.565c-4.143,0-7.5,3.358-7.5,7.5s3.357,7.5,7.5,7.5h92.565c4.143,0,7.5-3.358,7.5-7.5    S280.097,377.869,275.955,377.869z"/>
		<path d="M275.955,409.269h-92.565c-4.143,0-7.5,3.358-7.5,7.5s3.357,7.5,7.5,7.5h92.565c4.143,0,7.5-3.358,7.5-7.5    S280.097,409.269,275.955,409.269z"/>
		<path d="M307.266,110.269h92.565c4.143,0,7.5-3.358,7.5-7.5s-3.357-7.5-7.5-7.5h-92.565c-4.143,0-7.5,3.358-7.5,7.5    S303.124,110.269,307.266,110.269z"/>
		<path d="M307.266,141.669h92.565c4.143,0,7.5-3.358,7.5-7.5s-3.357-7.5-7.5-7.5h-92.565c-4.143,0-7.5,3.358-7.5,7.5    S303.124,141.669,307.266,141.669z"/>
		<path d="M307.266,173.069h92.565c4.143,0,7.5-3.358,7.5-7.5s-3.357-7.5-7.5-7.5h-92.565c-4.143,0-7.5,3.358-7.5,7.5    S303.124,173.069,307.266,173.069z"/>
		<path d="M399.832,377.869h-92.565c-4.143,0-7.5,3.358-7.5,7.5s3.357,7.5,7.5,7.5h92.565c4.143,0,7.5-3.358,7.5-7.5    S403.974,377.869,399.832,377.869z"/>
		<path d="M399.832,409.269h-92.565c-4.143,0-7.5,3.358-7.5,7.5s3.357,7.5,7.5,7.5h92.565c4.143,0,7.5-3.358,7.5-7.5    S403.974,409.269,399.832,409.269z"/>
		<path d="M419.761,467.819H250.39c-4.143,0-7.5,3.358-7.5,7.5s3.357,7.5,7.5,7.5h169.371c4.143,0,7.5-3.358,7.5-7.5    S423.904,467.819,419.761,467.819z"/>
		<path d="M115.317,439.78c7.73,0,14.02,6.29,14.02,14.02c0,4.142,3.357,7.5,7.5,7.5s7.5-3.358,7.5-7.5    c0-16.001-13.019-29.02-29.02-29.02c-16.002,0-29.021,13.019-29.021,29.02s13.019,29.02,29.021,29.02h110.071    c4.143,0,7.5-3.358,7.5-7.5s-3.357-7.5-7.5-7.5H115.317c-7.73,0-14.021-6.289-14.021-14.02S107.586,439.78,115.317,439.78z"/>
		<path d="M283.455,102.769c0-4.142-3.357-7.5-7.5-7.5h-92.565c-4.143,0-7.5,3.358-7.5,7.5v157c0,4.142,3.357,7.5,7.5,7.5h92.565    c4.143,0,7.5-3.358,7.5-7.5V102.769z M228.54,110.269c4.659,7,11.633,20.623,8.637,31.106c-0.928,3.25-8.377,8.071-26.314,10.962    c-7.427,1.197-14.755,1.761-19.974,2.027v-44.096H228.54z M190.889,169.389c5.621-0.267,13.76-0.866,22.186-2.214    c6.128-0.98,11.513-2.212,16.181-3.698l2.536,45.964h-12.074c-3.979,0-7.265,3.106-7.488,7.079l-2.012,35.75h-19.329V169.389z     M268.455,252.269h-43.212l1.566-27.829h12.91c2.061,0,4.031-0.848,5.447-2.345c1.417-1.497,2.155-3.511,2.041-5.569    l-3.323-60.202c3.967-3.069,6.528-6.67,7.716-10.829c2.725-9.532,1.237-20.491-4.418-32.573c-0.429-0.917-0.867-1.799-1.307-2.654    h22.58V252.269z"/>
		<path d="M407.332,194.05c0-4.142-3.357-7.5-7.5-7.5h-92.565c-4.143,0-7.5,3.358-7.5,7.5v157c0,4.142,3.357,7.5,7.5,7.5h92.565    c4.143,0,7.5-3.358,7.5-7.5V194.05z M392.332,201.55v62.331l-29.213,29.213l-17.759-15.722c-1.497-1.325-3.458-1.997-5.456-1.869    c-1.995,0.129-3.855,1.049-5.169,2.556l-19.969,22.91V201.55H392.332z M314.766,343.55v-19.753l26.31-30.184l32.531,28.8    c3.102,2.745,7.842,2.457,10.587-0.644c2.746-3.102,2.458-7.842-0.644-10.587l-9.179-8.127l17.961-17.961v58.456H314.766z"/>
		<path d="M346.388,268.269c15.715,0,28.5-12.785,28.5-28.5s-12.785-28.5-28.5-28.5s-28.5,12.785-28.5,28.5    S330.673,268.269,346.388,268.269z M346.388,226.269c7.444,0,13.5,6.056,13.5,13.5s-6.056,13.5-13.5,13.5s-13.5-6.056-13.5-13.5    S338.944,226.269,346.388,226.269z"/>
		<path d="M220.689,184.958c3.878-1.454,5.843-5.777,4.389-9.656c-1.454-3.879-5.775-5.843-9.656-4.389l-10.667,4    c-3.878,1.454-5.843,5.777-4.389,9.656c1.129,3.011,3.986,4.869,7.023,4.869c0.875,0,1.765-0.154,2.633-0.479L220.689,184.958z"/>
	</g>
</g>















</svg>
