<?xml version="1.0" encoding="iso-8859-1"?>
<!-- Generator: Adobe Illustrator 19.0.0, SVG Export Plug-In . SVG Version: 6.00 Build 0)  -->
<svg xmlns="http://www.w3.org/2000/svg" xmlns:xlink="http://www.w3.org/1999/xlink" version="1.1" id="Layer_1" x="0px" y="0px" viewBox="0 0 505.003 505.003" style="enable-background:new 0 0 505.003 505.003;" xml:space="preserve" width="512" height="512">
<g>
	<g>
		<path style="fill:#E5E9EA;" d="M497.503,78.656v347.69c0,16.74-13.57,30.31-30.31,30.31H37.803c-16.73,0-30.3-13.57-30.3-30.31    V78.656c0-16.74,13.57-30.31,30.3-30.31h429.39C483.933,48.346,497.503,61.916,497.503,78.656z"/>
		<path style="fill:#D1D1D1;" d="M497.503,78.656v51.69h-490v-51.69c0-16.74,13.57-30.31,30.3-30.31h429.39    C483.933,48.346,497.503,61.916,497.503,78.656z"/>
		<rect x="47.503" y="165.485" style="fill:#FA3F68;" width="410" height="251.172"/>
		<g>
			<circle style="fill:#FA3F68;" cx="59.503" cy="89.347" r="19"/>
			<circle style="fill:#47C97F;" cx="178.506" cy="89.347" r="19"/>
			<circle style="fill:#FCB65F;" cx="119.004" cy="89.347" r="19"/>
		</g>
		<rect x="167.503" y="382.77" style="fill:#D1D1D1;" width="290" height="33.886"/>
		<rect x="47.503" y="382.77" style="fill:#566368;" width="139" height="33.886"/>
		<path style="fill:#FFFFFF;" d="M302.268,265.822l-74.116-42.791c-11.738-6.777-26.411,1.694-26.411,15.248v85.582    c0,13.554,14.673,22.025,26.411,15.248l74.116-42.791C314.006,289.541,314.006,272.599,302.268,265.822z"/>
	</g>
	<g>
		<path d="M467.193,40.846H37.803c-20.843,0-37.8,16.961-37.8,37.81v51.622c0,0.023-0.003,0.045-0.003,0.068    s0.003,0.045,0.003,0.068V342.36c0,4.142,3.358,7.5,7.5,7.5s7.5-3.358,7.5-7.5V137.846h475v288.5    c0,12.578-10.232,22.81-22.81,22.81H37.803c-12.572,0-22.8-10.232-22.8-22.81v-58.985c0-4.142-3.358-7.5-7.5-7.5    s-7.5,3.358-7.5,7.5v58.985c0,20.849,16.957,37.81,37.8,37.81h429.39c20.849,0,37.81-16.961,37.81-37.81V78.656    C505.003,57.808,488.042,40.846,467.193,40.846z M15.003,122.846v-44.19c0-12.578,10.228-22.81,22.8-22.81h429.39    c12.577,0,22.81,10.232,22.81,22.81v44.19H15.003z"/>
		<path d="M59.503,62.847c-14.612,0-26.5,11.888-26.5,26.5s11.888,26.5,26.5,26.5s26.5-11.888,26.5-26.5    S74.115,62.847,59.503,62.847z M59.503,100.847c-6.341,0-11.5-5.159-11.5-11.5s5.159-11.5,11.5-11.5s11.5,5.159,11.5,11.5    S65.844,100.847,59.503,100.847z"/>
		<path d="M178.506,62.847c-14.612,0-26.5,11.888-26.5,26.5s11.888,26.5,26.5,26.5s26.5-11.888,26.5-26.5    S193.118,62.847,178.506,62.847z M178.506,100.847c-6.341,0-11.5-5.159-11.5-11.5s5.159-11.5,11.5-11.5s11.5,5.159,11.5,11.5    S184.847,100.847,178.506,100.847z"/>
		<path d="M119.004,62.847c-14.612,0-26.5,11.888-26.5,26.5s11.888,26.5,26.5,26.5s26.5-11.888,26.5-26.5    S133.617,62.847,119.004,62.847z M119.004,100.847c-6.341,0-11.5-5.159-11.5-11.5s5.159-11.5,11.5-11.5s11.5,5.159,11.5,11.5    S125.346,100.847,119.004,100.847z"/>
		<path d="M231.902,216.536c-7.86-4.538-17.247-4.538-25.107,0c-7.861,4.539-12.554,12.667-12.554,21.743v85.582    c0,9.077,4.693,17.205,12.554,21.744c3.931,2.27,8.242,3.404,12.554,3.404c4.311,0,8.624-1.135,12.553-3.404l74.116-42.791    c7.86-4.538,12.554-12.667,12.554-21.743c0-9.077-4.692-17.206-12.554-21.744L231.902,216.536z M298.518,289.823l-74.116,42.791    c-3.165,1.828-6.943,1.826-10.107,0c-3.165-1.827-5.054-5.1-5.054-8.753v-85.582c0-3.654,1.889-6.926,5.054-8.753    c1.582-0.914,3.318-1.37,5.054-1.37c1.735,0,3.471,0.457,5.053,1.37l74.116,42.791c3.164,1.827,5.054,5.1,5.054,8.753    S301.682,287.996,298.518,289.823z"/>
		<path d="M457.503,222.482c4.143,0,7.5-3.358,7.5-7.5v-49.498c0-4.142-3.357-7.5-7.5-7.5h-410c-4.142,0-7.5,3.358-7.5,7.5v251.172    c0,4.142,3.358,7.5,7.5,7.5h410c4.143,0,7.5-3.358,7.5-7.5V239.984c0-4.142-3.357-7.5-7.5-7.5s-7.5,3.358-7.5,7.5V375.27h-395    V172.985h395v41.998C450.003,219.124,453.36,222.482,457.503,222.482z M450.003,409.156h-256V390.27h256V409.156z M179.003,390.27    v18.886h-124V390.27H179.003z"/>
	</g>
</g>















</svg>
