<?xml version="1.0" encoding="iso-8859-1"?>
<!-- Generator: Adobe Illustrator 19.0.0, SVG Export Plug-In . SVG Version: 6.00 Build 0)  -->
<svg xmlns="http://www.w3.org/2000/svg" xmlns:xlink="http://www.w3.org/1999/xlink" version="1.1" id="Layer_1" x="0px" y="0px" viewBox="0 0 502.317 502.317" style="enable-background:new 0 0 502.317 502.317;" xml:space="preserve" width="512" height="512">
<g>
	<g>
		<polygon style="fill:#E5E9EA;" points="432.548,377.985 413.048,442.475 287.758,246.885 274.158,225.655 228.158,225.655     214.558,246.875 89.268,442.475 69.768,377.985 181.048,206.475 198.988,178.815 303.328,178.815 321.278,206.485   "/>
		<rect x="221.912" y="7.5" style="fill:#FA3F68;" width="58.497" height="122.789"/>
		<rect x="221.912" y="7.5" style="fill:#E02F5E;" width="22.292" height="122.789"/>
		<path style="fill:#D1D1D1;" d="M321.278,206.485c-5.9,17.2-17.94,31.54-33.52,40.4l-13.6-21.23h-46l-13.6,21.22    c-15.57-8.86-27.62-23.2-33.51-40.4l17.94-27.66h104.34L321.278,206.485z"/>
		<path style="fill:#E5E9EA;" d="M251.161,230.989L251.161,230.989c-28.814,0-52.172-23.358-52.172-52.171v-69.322h104.343v69.322    C303.332,207.631,279.974,230.989,251.161,230.989z"/>
		<circle style="fill:#566368;" cx="251.161" cy="177.991" r="18.749"/>
	</g>
	<g>
		<path d="M280.409,59.146c-4.143,0-7.5,3.358-7.5,7.5v20.849c0,4.142,3.357,7.5,7.5,7.5s7.5-3.358,7.5-7.5V66.646    C287.909,62.504,284.551,59.146,280.409,59.146z"/>
		<path d="M221.912,94.996c4.142,0,7.5-3.358,7.5-7.5V15h43.497v27.645c0,4.142,3.357,7.5,7.5,7.5s7.5-3.358,7.5-7.5V7.5    c0-4.142-3.357-7.5-7.5-7.5h-58.497c-4.142,0-7.5,3.358-7.5,7.5v79.996C214.412,91.638,217.77,94.996,221.912,94.996z"/>
		<path d="M251.161,238.489c32.903,0,59.672-26.769,59.672-59.671v-69.323c0-4.142-3.357-7.5-7.5-7.5H198.989    c-4.142,0-7.5,3.358-7.5,7.5v69.323C191.489,211.72,218.258,238.489,251.161,238.489z M206.489,116.995h89.343v61.823    c0,24.632-20.04,44.671-44.672,44.671s-44.671-20.04-44.671-44.671V116.995z"/>
		<path d="M210.873,238.739l-47.083,73.499c-2.234,3.488-1.218,8.127,2.27,10.361c1.252,0.802,2.653,1.186,4.038,1.186    c2.471,0,4.891-1.22,6.323-3.455l47.083-73.499c2.234-3.488,1.218-8.127-2.27-10.361    C217.747,234.235,213.106,235.251,210.873,238.739z"/>
		<path d="M164.008,339.706c2.234-3.488,1.218-8.127-2.27-10.361c-3.488-2.235-8.127-1.218-10.361,2.27l-40.18,62.724    c-0.002,0.003-0.004,0.006-0.006,0.009l-19.456,30.372l-13.78-45.573L190.47,205.717c2.254-3.475,1.265-8.12-2.21-10.374    c-3.474-2.254-8.119-1.265-10.374,2.21l-114.41,176.35c-1.202,1.852-1.526,4.14-0.887,6.253l18.5,61.183l-11.604,18.115    c-2.234,3.488-1.218,8.126,2.27,10.361c1.253,0.802,2.653,1.186,4.039,1.186c2.471,0,4.891-1.22,6.322-3.456l13.465-21.02    c0.001-0.001,0.002-0.003,0.003-0.004L164.008,339.706z"/>
		<path d="M109.001,367.817c-1.79-2.717-5.309-3.96-8.411-3.009c-2.876,0.882-4.985,3.446-5.291,6.44    c-0.311,3.044,1.371,6.06,4.098,7.426c2.916,1.461,6.546,0.847,8.8-1.522C110.598,374.629,110.91,370.716,109.001,367.817z"/>
		<path d="M251.161,204.24c14.474,0,26.249-11.775,26.249-26.249s-11.775-26.249-26.249-26.249    c-14.474,0-26.249,11.775-26.249,26.249S236.687,204.24,251.161,204.24z M251.161,166.742c6.203,0,11.249,5.046,11.249,11.249    c0,6.203-5.046,11.249-11.249,11.249c-6.203,0-11.249-5.046-11.249-11.249C239.912,171.788,244.958,166.742,251.161,166.742z"/>
		<path d="M438.84,373.902L324.587,197.816c-1.308-2.196-3.706-3.666-6.449-3.666c-4.143,0-7.5,3.363-7.5,7.505    c0,1.449,0.42,2.867,1.208,4.082l112.516,173.409l-13.779,45.569l-19.453-30.368c-0.013-0.02-0.028-0.038-0.042-0.058    l-99.644-155.55c-2.234-3.488-6.873-4.503-10.361-2.27c-3.487,2.234-4.504,6.873-2.27,10.361l127.92,199.69    c0.01,0.015,0.021,0.028,0.031,0.042l13.441,20.982c1.432,2.235,3.852,3.455,6.322,3.455c1.385,0,2.786-0.383,4.039-1.186    c3.487-2.234,4.504-6.873,2.27-10.361l-11.607-18.119l18.499-61.178C440.367,378.042,440.041,375.754,438.84,373.902z"/>
		<path d="M393.322,376.147c1.715,2.609,5.038,3.868,8.057,3.107c3.031-0.763,5.338-3.421,5.636-6.537    c0.299-3.125-1.421-6.168-4.258-7.51c-2.969-1.405-6.626-0.668-8.808,1.794C391.703,369.534,391.463,373.329,393.322,376.147z"/>
		<path d="M398.411,467.802l-30.228-20.839c-3.41-2.351-8.08-1.492-10.432,1.918c-2.351,3.41-1.492,8.081,1.918,10.432l10.392,7.165    H132.259l10.392-7.165c3.41-2.351,4.269-7.021,1.918-10.432c-2.351-3.41-7.022-4.269-10.432-1.918l-30.228,20.839    c-2.031,1.4-3.243,3.708-3.243,6.175s1.212,4.775,3.243,6.175l30.228,20.839c1.3,0.896,2.782,1.326,4.25,1.326    c2.383,0,4.727-1.133,6.182-3.244c2.351-3.41,1.492-8.081-1.918-10.432l-10.392-7.164h237.802l-10.392,7.164    c-3.41,2.351-4.269,7.021-1.918,10.432c1.455,2.111,3.798,3.244,6.182,3.244c1.468,0,2.95-0.43,4.25-1.326l30.228-20.839    c2.03-1.4,3.243-3.708,3.243-6.175S400.441,469.202,398.411,467.802z"/>
	</g>
</g>















</svg>
