<?xml version="1.0" encoding="iso-8859-1"?>
<!-- Generator: Adobe Illustrator 19.0.0, SVG Export Plug-In . SVG Version: 6.00 Build 0)  -->
<svg xmlns="http://www.w3.org/2000/svg" xmlns:xlink="http://www.w3.org/1999/xlink" version="1.1" id="Layer_1" x="0px" y="0px" viewBox="0 0 505 505" style="enable-background:new 0 0 505 505;" xml:space="preserve" width="512" height="512">
<g>
	<g>
		<rect x="15.256" y="7.5" style="fill:#D1D1D1;" width="318.616" height="490"/>
		<rect x="244.744" y="58.357" style="fill:#E5E9EA;" width="245" height="318.616"/>
		<rect x="208.061" y="192.815" style="fill:#F4F4F4;" width="159.308" height="245"/>
	</g>
	<g>
		<path d="M50.884,505H15.256c-4.142,0-7.5-3.358-7.5-7.5V7.5c0-4.142,3.358-7.5,7.5-7.5h318.617c4.142,0,7.5,3.358,7.5,7.5v27.49    c0,4.142-3.358,7.5-7.5,7.5s-7.5-3.358-7.5-7.5V15H22.756v475h28.128c4.142,0,7.5,3.358,7.5,7.5S55.026,505,50.884,505z"/>
		<path d="M333.872,505H75.885c-4.142,0-7.5-3.358-7.5-7.5s3.358-7.5,7.5-7.5h250.487v-27.533c0-4.142,3.358-7.5,7.5-7.5    s7.5,3.358,7.5,7.5V497.5C341.372,501.642,338.014,505,333.872,505z"/>
		<path d="M489.744,384.473h-97.375c-4.142,0-7.5-3.358-7.5-7.5s3.358-7.5,7.5-7.5h89.875v-49.995c0-4.142,3.358-7.5,7.5-7.5    s7.5,3.358,7.5,7.5v57.495C497.244,381.115,493.886,384.473,489.744,384.473z"/>
		<path d="M489.744,301.977c-4.142,0-7.5-3.358-7.5-7.5V65.856h-230v104.627c0,4.142-3.358,7.5-7.5,7.5s-7.5-3.358-7.5-7.5V58.356    c0-4.142,3.358-7.5,7.5-7.5h245c4.142,0,7.5,3.358,7.5,7.5v236.121C497.244,298.619,493.886,301.977,489.744,301.977z"/>
		<path d="M367.369,445.314H208.061c-4.142,0-7.5-3.358-7.5-7.5v-245c0-4.142,3.358-7.5,7.5-7.5h159.308c4.142,0,7.5,3.358,7.5,7.5    v245C374.869,441.957,371.511,445.314,367.369,445.314z M215.561,430.314h144.308v-230H215.561V430.314z"/>
		<g>
			<path d="M99.697,110.669L78.729,42.225c-0.813-2.438-3.316-4.014-6.379-4.014c-3.1,0-5.512,1.555-6.297,4.069L45.15,110.19     c-0.247,0.637-0.247,1.244-0.247,1.555c0,3.173,3.261,5.305,6.307,5.305c2.484,0,4.444-1.384,5.014-3.532l4.063-13.601h24.027     l4.1,13.72c0.702,2.104,2.57,3.412,4.876,3.412c3.078,0,6.507-2.22,6.507-5.405c0-0.327-0.052-0.6-0.1-0.806V110.669z      M63.495,89.208l8.845-29.215l8.771,29.215H63.495z"/>
			<path d="M143.447,75.588c3.819-3.615,5.94-9.443,5.94-16.643c0-13.171-7.205-20.133-20.835-20.133     c-17.475,0-22.137,11.711-22.137,18.63c0,2.708,0.612,6.307,5.907,6.307c3.52,0,5.706-2.187,5.706-5.706     c0-3.07,1.341-8.22,10.324-8.22c6.925,0,9.623,2.923,9.623,10.424c0,6.696-1.598,10.324-10.024,10.324     c-2.9,0-5.005,2.273-5.005,5.406c0,3.124,2.099,5.305,5.105,5.305c7.891,0,11.727,3.541,11.727,10.825v1.904     c0,8.665-3.679,12.528-11.927,12.528c-11.301,0-11.627-7.739-11.627-8.621c0-3.322-2.208-5.305-5.906-5.305     c-3.772,0-5.606,1.965-5.606,6.006c0,9.226,8.145,19.031,23.239,19.031c14.896,0,23.439-8.616,23.439-23.64v-1.904     C151.391,84.742,148.663,79.109,143.447,75.588z"/>
			<path d="M416.18,158.667l-20.968-68.444c-0.813-2.438-3.316-4.014-6.379-4.014c-3.1,0-5.512,1.555-6.297,4.069l-20.903,67.91     c-0.247,0.637-0.247,1.244-0.247,1.555c0,3.173,3.261,5.305,6.307,5.305c2.484,0,4.444-1.384,5.014-3.532l4.063-13.601h24.027     l4.1,13.72c0.702,2.104,2.57,3.412,4.876,3.412c3.078,0,6.507-2.22,6.507-5.405c0-0.327-0.052-0.6-0.1-0.806V158.667z      M379.979,137.205l8.845-29.215l8.771,29.215H379.979z"/>
			<path d="M461.868,136.504h-3.011v-16.836c0-2.9-2.442-5.005-5.806-5.005s-5.806,2.105-5.806,5.005v16.836h-13.068l21.305-42.057     l0.091-0.201c0.331-0.829,0.479-1.517,0.479-2.231c0-3.067-3.007-5.205-5.706-5.205c-2.285,0-4.282,1.266-5.335,3.373     l-25.115,49.529c-0.467,0.818-0.704,1.793-0.704,2.898c0,3.016,2.147,5.205,5.104,5.205h22.948v12.127     c0,2.91,2.496,5.105,5.806,5.105s5.806-2.195,5.806-5.105v-12.127h3.011c2.759,0,5.004-2.56,5.004-5.706     C466.873,138.914,464.721,136.504,461.868,136.504z"/>
			<path d="M285.687,295.16l-20.968-68.444c-0.813-2.438-3.316-4.014-6.379-4.014c-3.1,0-5.512,1.555-6.297,4.069l-20.903,67.91     c-0.247,0.637-0.247,1.244-0.247,1.555c0,3.173,3.261,5.305,6.307,5.305c2.484,0,4.444-1.384,5.014-3.532l4.063-13.601h24.027     l4.1,13.72c0.702,2.104,2.57,3.412,4.876,3.412c3.078,0,6.507-2.22,6.507-5.405c0-0.327-0.052-0.6-0.1-0.806V295.16z      M249.486,273.698l8.845-29.215l8.771,29.215H249.486z"/>
			<path d="M314.042,253.46h-8.248l1.27-19.045h21.907c2.77,0,4.704-2.305,4.704-5.605c0-3.19-1.979-5.506-4.704-5.506h-28.053     c-0.929,0-4.004,0.337-4.582,4.675l-2.02,29.011l-0.006,0.173c0,0.17-0.024,0.508-0.045,0.846     c-0.029,0.463-0.055,0.926-0.055,1.158c0,1.505,0.576,5.005,5.906,5.005h13.926c7.824,0,11.627,4.033,11.627,12.328v1.903     c0,8.498-3.836,12.629-11.727,12.629c-5.363,0-11.626-2.336-11.626-8.922c0-2.564-1.552-5.305-5.907-5.305     c-3.52,0-5.706,2.225-5.706,5.806c0,9.407,7.304,19.532,23.339,19.532c14.769,0,23.239-8.653,23.239-23.74v-1.903     C337.281,261.642,329.028,253.46,314.042,253.46z"/>
		</g>
	</g>
</g>















</svg>
