<?xml version="1.0" encoding="iso-8859-1"?>
<!-- Generator: Adobe Illustrator 19.0.0, SVG Export Plug-In . SVG Version: 6.00 Build 0)  -->
<svg xmlns="http://www.w3.org/2000/svg" xmlns:xlink="http://www.w3.org/1999/xlink" version="1.1" id="Layer_1" x="0px" y="0px" viewBox="0 0 505 505" style="enable-background:new 0 0 505 505;" xml:space="preserve" width="512" height="512">
<g>
	<g>
		<path style="fill:#E5E9EA;" d="M41.667,12.426L252.5,42.818v419.365L41.667,492.575C23.642,495.174,7.5,481.192,7.5,462.98V42.021    C7.5,23.809,23.642,9.827,41.667,12.426z"/>
		<path style="fill:#D1D1D1;" d="M463.333,12.426L252.5,42.818v419.365l210.833,30.392c18.025,2.598,34.167-11.383,34.167-29.595    V42.021C497.5,23.809,481.358,9.827,463.333,12.426z"/>
		<polygon style="fill:#53BCE9;" points="47.5,53.68 212.5,77.465 212.5,427.536 47.5,451.321   "/>
		<path style="fill:#FCB65F;" d="M136.113,271.409c3.84,2.3,7.93,3.55,12.19,3.55c21.54,0,39-31.9,39-71.25s-17.46-71.24-39-71.24    c-11.77,0-22.32,9.52-29.47,24.57"/>
		<ellipse style="fill:#FA3F68;" cx="106.654" cy="224.731" rx="38.998" ry="71.246"/>
	</g>
	<g>
		<path d="M213.57,70.042l-165-23.785c-2.154-0.31-4.335,0.33-5.98,1.754C40.945,49.435,40,51.504,40,53.68v310.291    c0,4.142,3.358,7.5,7.5,7.5s7.5-3.358,7.5-7.5V62.339l150,21.623v337.077L55,442.662v-53.689c0-4.142-3.358-7.5-7.5-7.5    s-7.5,3.358-7.5,7.5v62.348c0,2.176,0.945,4.245,2.59,5.669c1.372,1.188,3.118,1.831,4.91,1.831c0.355,0,0.713-0.025,1.07-0.077    l165-23.785c3.691-0.532,6.43-3.694,6.43-7.423V77.465C220,73.736,217.261,70.574,213.57,70.042z"/>
		<path d="M492.086,13.751c-8.207-7.109-19.077-10.297-29.824-8.749L356.105,20.305c-4.1,0.591-6.944,4.394-6.353,8.494    c0.591,4.1,4.397,6.945,8.493,6.353l106.157-15.303c6.437-0.927,12.947,0.982,17.863,5.24C487.181,29.346,490,35.518,490,42.02    v420.96c0,6.503-2.819,12.674-7.734,16.932c-4.916,4.258-11.426,6.166-17.862,5.239L260,455.686V49.314l69.48-10.016    c4.1-0.591,6.944-4.394,6.353-8.493s-4.395-6.941-8.493-6.354L252.5,35.24L42.737,5.002c0,0,0,0,0,0    C31.989,3.452,21.12,6.642,12.914,13.75C4.707,20.859,0,31.163,0,42.02v420.96c0,10.857,4.707,21.162,12.914,28.271    c6.846,5.93,15.543,9.131,24.478,9.131c1.776,0,3.563-0.126,5.345-0.383L252.5,469.761l209.763,30.238    c1.783,0.257,3.568,0.384,5.345,0.383c8.934,0,17.633-3.202,24.478-9.131C500.293,484.142,505,473.838,505,462.98V42.02    C505,31.163,500.293,20.859,492.086,13.751z M40.596,485.152c-6.436,0.927-12.947-0.982-17.862-5.239S15,469.483,15,462.98V42.02    c0-6.503,2.819-12.674,7.734-16.932c4.1-3.552,9.31-5.47,14.661-5.47c1.064,0,2.134,0.076,3.201,0.23L245,49.314v406.372    L40.596,485.152z"/>
		<path d="M292.5,260h165c4.142,0,7.5-3.358,7.5-7.5s-3.358-7.5-7.5-7.5h-165c-4.142,0-7.5,3.358-7.5,7.5S288.358,260,292.5,260z"/>
		<path d="M358.871,213.854l98.899-3.564c4.14-0.149,7.375-3.626,7.225-7.765c-0.149-4.14-3.625-7.377-7.765-7.225l-98.899,3.564    c-4.14,0.149-7.375,3.626-7.225,7.765c0.146,4.047,3.473,7.23,7.49,7.23C358.687,213.859,358.779,213.858,358.871,213.854z"/>
		<path d="M292.495,216.242c0.091,0,0.183-0.001,0.275-0.005l40.689-1.466c4.14-0.149,7.375-3.626,7.225-7.765    c-0.149-4.14-3.635-7.375-7.765-7.225l-40.689,1.466c-4.14,0.149-7.375,3.626-7.225,7.765    C285.151,213.059,288.478,216.242,292.495,216.242z"/>
		<path d="M285.02,165.522c0.285,3.948,3.576,6.961,7.473,6.961c0.181,0,0.364-0.007,0.547-0.02l165-11.893    c4.131-0.298,7.239-3.888,6.941-8.02c-0.298-4.132-3.897-7.237-8.02-6.941l-165,11.893    C287.83,157.8,284.722,161.391,285.02,165.522z"/>
		<path d="M421.658,114.76c0.269,0,0.542-0.014,0.815-0.044l35.833-3.874c4.118-0.445,7.096-4.145,6.65-8.263    c-0.445-4.118-4.141-7.1-8.263-6.65l-35.833,3.874c-4.118,0.445-7.096,4.145-6.65,8.263    C414.626,111.91,417.877,114.76,421.658,114.76z"/>
		<path d="M396.819,102.402l-105.125,11.366c-4.118,0.445-7.096,4.145-6.65,8.263c0.416,3.844,3.667,6.694,7.447,6.694    c0.269,0,0.542-0.014,0.815-0.044l105.125-11.366c4.118-0.445,7.096-4.145,6.65-8.263S400.943,101.954,396.819,102.402z"/>
		<path d="M123.473,377.641c0.96,3.181,3.889,5.333,7.177,5.333c0.149,0,0.3-0.004,0.451-0.013c3.467-0.208,6.339-2.769,6.94-6.189    l16.69-95.047c22.925-5.154,40.073-37.559,40.073-78.014c0-44.153-20.425-78.74-46.5-78.74c-12.547,0-24.241,8.071-32.803,22.399    c-2.858-0.897-5.811-1.384-8.845-1.384c-26.074,0-46.498,34.589-46.498,78.746c0,40.851,17.486,73.491,40.748,78.153    L123.473,377.641z M128.72,343.119l-12.456-41.261c8.989-3.081,16.953-10.428,23.163-20.784c0.059,0.019,0.119,0.04,0.178,0.058    L128.72,343.119z M148.303,139.97c7.442,0,15.096,6.184,20.999,16.965c6.771,12.369,10.501,28.98,10.501,46.774    c0,17.794-3.729,34.408-10.501,46.78c-5.903,10.785-13.557,16.97-20.999,16.97c-0.771,0-1.543-0.071-2.316-0.199    c4.545-12.197,7.166-26.745,7.166-42.53c0-30.716-9.888-56.787-24.681-69.822C134.191,145.351,141.235,139.97,148.303,139.97z     M85.657,271.509c-6.771-12.372-10.501-28.984-10.501-46.778c0-17.793,3.729-34.406,10.501-46.777    c5.903-10.784,13.556-16.969,20.997-16.969s15.094,6.185,20.997,16.969c6.771,12.371,10.501,28.984,10.501,46.777    c0,17.794-3.729,34.406-10.501,46.778c-5.903,10.784-13.556,16.969-20.997,16.969S91.56,282.292,85.657,271.509z"/>
	</g>
</g>















</svg>
