<?xml version="1.0" encoding="iso-8859-1"?>
<!-- Generator: Adobe Illustrator 19.0.0, SVG Export Plug-In . SVG Version: 6.00 Build 0)  -->
<svg xmlns="http://www.w3.org/2000/svg" xmlns:xlink="http://www.w3.org/1999/xlink" version="1.1" id="Layer_1" x="0px" y="0px" viewBox="0 0 504.448 504.448" style="enable-background:new 0 0 504.448 504.448;" xml:space="preserve" width="512" height="512">
<g>
	<g>
		<polygon style="fill:#36A6CE;" points="492.231,374.588 252.225,252.225 12.219,374.588 252.225,496.951   "/>
		<polygon style="fill:#FCB65F;" points="492.231,252.225 252.225,129.862 12.219,252.225 252.225,374.588   "/>
		<polygon style="fill:#FA3F68;" points="492.228,129.858 372.228,191.039 252.228,252.228 132.218,191.039 12.218,129.858     252.228,7.498   "/>
		<polygon style="fill:#E02F5E;" points="372.228,191.039 252.228,252.228 132.218,191.039 252.228,129.858   "/>
		<polygon style="fill:#E29A4B;" points="372.228,313.405 252.228,374.595 132.218,313.405 252.228,252.225   "/>
	</g>
	<g>
		<path d="M8.812,136.544l240.006,122.363c1.07,0.545,2.238,0.818,3.407,0.818c1.168,0,2.337-0.273,3.406-0.818l240.006-122.363    c2.513-1.281,4.094-3.862,4.094-6.682s-1.581-5.401-4.094-6.682L408.32,78.664c-3.688-1.882-8.206-0.415-10.088,3.275    c-1.882,3.69-0.415,8.207,3.275,10.088l74.211,37.835L252.225,243.807L28.731,129.862L252.225,15.918l121.395,61.891    c3.688,1.882,8.206,0.415,10.088-3.275c1.882-3.69,0.415-8.207-3.275-10.088L255.631,0.818c-2.139-1.091-4.671-1.09-6.813,0    L8.812,123.181c-2.512,1.281-4.093,3.862-4.093,6.682S6.3,135.263,8.812,136.544z"/>
		<path d="M255.635,123.177c-2.141-1.091-4.673-1.09-6.814,0l-86.59,44.15c-3.69,1.881-5.156,6.398-3.275,10.088    c1.325,2.599,3.958,4.095,6.688,4.095c1.146,0,2.31-0.264,3.401-0.82l83.183-42.413l83.185,42.413    c3.688,1.88,8.206,0.416,10.088-3.275c1.882-3.69,0.415-8.207-3.274-10.088L255.635,123.177z"/>
		<path d="M495.635,245.547l-94.569-48.22c-3.691-1.88-8.207-0.416-10.089,3.275c-1.882,3.69-0.415,8.207,3.274,10.088    l81.465,41.538L252.228,366.17L28.73,252.229l81.474-41.539c3.69-1.881,5.156-6.398,3.275-10.088    c-1.882-3.69-6.398-5.156-10.088-3.275l-94.58,48.22c-2.512,1.281-4.093,3.862-4.093,6.682c0,2.82,1.582,5.401,4.094,6.682    l240.01,122.36c1.07,0.545,2.238,0.818,3.406,0.818c1.168,0,2.337-0.273,3.406-0.818l240-122.36    c2.513-1.281,4.094-3.862,4.094-6.682C499.728,249.409,498.147,246.828,495.635,245.547z"/>
		<path d="M281.925,258.947c-3.691-1.88-8.207-0.416-10.089,3.274s-0.415,8.207,3.274,10.089l62.95,32.1    c1.092,0.556,2.255,0.82,3.401,0.82c2.729,0,5.362-1.496,6.688-4.094c1.882-3.69,0.415-8.207-3.274-10.089L281.925,258.947z"/>
		<path d="M222.531,258.947l-62.96,32.1c-3.69,1.881-5.156,6.398-3.275,10.088c1.325,2.599,3.958,4.095,6.688,4.095    c1.146,0,2.31-0.264,3.401-0.82l62.96-32.1c3.69-1.881,5.156-6.398,3.275-10.088C230.737,258.532,226.221,257.065,222.531,258.947    z"/>
		<path d="M73.911,397.622l-45.18-23.034l78.813-40.178c3.69-1.881,5.157-6.397,3.275-10.088c-1.882-3.691-6.399-5.157-10.088-3.275    l-91.92,46.86c-2.512,1.28-4.094,3.862-4.094,6.682s1.582,5.401,4.094,6.682l58.287,29.715c1.091,0.557,2.254,0.82,3.4,0.82    c2.73,0,5.363-1.496,6.688-4.095C79.067,404.02,77.601,399.503,73.911,397.622z"/>
		<path d="M495.634,367.907l-91.909-46.86c-3.688-1.882-8.206-0.415-10.088,3.275c-1.882,3.69-0.415,8.207,3.275,10.088    l78.804,40.178L252.228,488.53L97.815,409.809c-3.688-1.882-8.207-0.416-10.088,3.275c-1.881,3.69-0.415,8.207,3.275,10.088    l157.818,80.458c1.07,0.545,2.238,0.818,3.406,0.818s2.337-0.273,3.406-0.818l240-122.36c2.513-1.281,4.094-3.862,4.094-6.682    C499.728,371.769,498.147,369.188,495.634,367.907z"/>
	</g>
</g>















</svg>
