<?xml version="1.0" encoding="iso-8859-1"?>
<!-- Generator: Adobe Illustrator 19.0.0, SVG Export Plug-In . SVG Version: 6.00 Build 0)  -->
<svg xmlns="http://www.w3.org/2000/svg" xmlns:xlink="http://www.w3.org/1999/xlink" version="1.1" id="Layer_1" x="0px" y="0px" viewBox="0 0 501.854 501.854" style="enable-background:new 0 0 501.854 501.854;" xml:space="preserve" width="512" height="512">
<g>
	<g>
		<g>
			<path style="fill:#E5E9EA;" d="M487.288,229.204L293.935,452.932c-10.499,12.148-28.859,13.485-41.007,2.986L91.641,316.53     c-12.148-10.499-13.485-28.859-2.986-41.007L282.008,51.795c10.505-12.155,28.865-13.492,41.013-2.993L484.307,188.19     C496.455,198.689,497.793,217.049,487.288,229.204z"/>
			<path style="fill:#FCB65F;" d="M487.288,229.204L370.945,363.823l-205.28-177.409L282.008,51.795     c10.505-12.155,28.865-13.492,41.013-2.993L484.307,188.19C496.455,198.689,497.793,217.049,487.288,229.204z"/>
		</g>
		<g>
			<path style="fill:#36A6CE;" d="M389.48,161.503l-94.033,280.352c-5.106,15.223-21.586,23.425-36.809,18.319L56.531,392.386     c-15.223-5.106-23.425-21.586-18.319-36.809l94.033-280.352c5.109-15.232,21.589-23.434,36.812-18.328l202.107,67.788     C386.387,129.791,394.589,146.272,389.48,161.503z"/>
			<path style="fill:#E5E9EA;" d="M389.48,161.503L332.9,330.194L75.665,243.915l56.58-168.691     c5.109-15.232,21.589-23.434,36.812-18.328l202.107,67.788C386.387,129.791,394.589,146.272,389.48,161.503z"/>
		</g>
		<g>
			<path style="fill:#E5E9EA;" d="M278.821,135.354v295.702c0,16.056-13.017,29.073-29.073,29.073H36.575     c-16.056,0-29.073-13.017-29.073-29.073V135.354c0-16.066,13.017-29.082,29.073-29.082h213.172     C265.804,106.271,278.821,119.288,278.821,135.354z"/>
			<path style="fill:#FA3F68;" d="M278.821,135.354V313.28H7.502V135.354c0-16.066,13.017-29.082,29.073-29.082h213.172     C265.804,106.271,278.821,119.288,278.821,135.354z"/>
			<polygon style="fill:#FCB65F;" points="143.161,133.403 166.431,180.553 218.463,188.114 180.812,224.814 189.701,276.636      143.161,252.169 96.622,276.636 105.51,224.814 67.859,188.114 119.892,180.553    "/>
		</g>
	</g>
	<g>
		<path d="M489.21,182.515l-25.254-21.825c-3.133-2.709-7.87-2.363-10.578,0.771s-2.364,7.87,0.771,10.578l25.253,21.825    c9.002,7.78,9.996,21.433,2.217,30.435L317.587,414.098c-2.708,3.134-2.364,7.87,0.77,10.579c1.418,1.226,3.164,1.826,4.901,1.826    c2.104,0,4.195-0.88,5.678-2.596l164.031-189.8C506.155,218.848,504.469,195.703,489.21,182.515z"/>
		<path d="M265.973,70.345c3.136,2.71,7.871,2.363,10.579-0.77l11.131-12.88c3.769-4.36,9.01-6.993,14.759-7.411    c5.749-0.422,11.315,1.426,15.676,5.195L434.94,155.439c1.418,1.226,3.164,1.826,4.901,1.826c2.104,0,4.195-0.88,5.678-2.596    c2.708-3.134,2.364-7.871-0.77-10.579L327.927,43.13c-7.393-6.389-16.832-9.513-26.575-8.807    c-9.745,0.709-18.629,5.171-25.018,12.563l-11.131,12.88C262.495,62.901,262.839,67.637,265.973,70.345z"/>
		<path d="M373.547,117.575L171.445,49.788c-19.124-6.414-39.897,3.926-46.311,23.047l-2.666,7.948    c-1.317,3.927,0.799,8.179,4.726,9.496c3.928,1.317,8.178-0.798,9.496-4.726l2.666-7.948    c3.784-11.281,16.037-17.381,27.319-13.596l202.103,67.787c11.281,3.784,17.38,16.039,13.596,27.319l-94.032,280.352    c-1.317,3.927,0.799,8.178,4.726,9.496c0.791,0.265,1.595,0.391,2.386,0.391c3.135,0,6.058-1.981,7.11-5.117l94.032-280.351    C403.009,144.764,392.67,123.989,373.547,117.575z"/>
		<path d="M249.746,98.772H36.578C16.409,98.772,0,115.181,0,135.35v295.701c0,20.169,16.409,36.578,36.578,36.578h213.168    c20.169,0,36.578-16.409,36.578-36.578V135.35C286.324,115.181,269.916,98.772,249.746,98.772z M271.324,431.051    c0,11.898-9.68,21.578-21.578,21.578H36.578c-11.898,0-21.578-9.68-21.578-21.578V135.35c0-11.898,9.68-21.578,21.578-21.578    h213.168c11.898,0,21.578,9.68,21.578,21.578V431.051z"/>
		<path d="M253.65,305.778H32.675c-4.142,0-7.5,3.358-7.5,7.5s3.358,7.5,7.5,7.5H253.65c4.142,0,7.5-3.358,7.5-7.5    S257.792,305.778,253.65,305.778z"/>
		<path d="M218.685,348.669h-92.876c-4.142,0-7.5,3.358-7.5,7.5s3.358,7.5,7.5,7.5h92.876c4.142,0,7.5-3.358,7.5-7.5    S222.827,348.669,218.685,348.669z"/>
		<path d="M67.639,363.669h33.168c4.142,0,7.5-3.358,7.5-7.5s-3.358-7.5-7.5-7.5H67.639c-4.142,0-7.5,3.358-7.5,7.5    S63.497,363.669,67.639,363.669z"/>
		<path d="M218.685,377.34H67.639c-4.142,0-7.5,3.358-7.5,7.5s3.358,7.5,7.5,7.5h151.046c4.142,0,7.5-3.358,7.5-7.5    S222.827,377.34,218.685,377.34z"/>
		<path d="M218.685,406.011H67.639c-4.142,0-7.5,3.358-7.5,7.5s3.358,7.5,7.5,7.5h151.046c4.142,0,7.5-3.358,7.5-7.5    S222.827,406.011,218.685,406.011z"/>
		<path d="M97.452,227.432l-8.222,47.937c-0.482,2.813,0.674,5.657,2.984,7.335c1.307,0.949,2.854,1.432,4.409,1.432    c1.193,0,2.392-0.285,3.489-0.861l43.049-22.633l43.049,22.633c2.527,1.328,5.589,1.107,7.898-0.571    c2.31-1.678,3.466-4.522,2.984-7.335l-8.222-47.937l34.827-33.948c2.044-1.993,2.78-4.973,1.898-7.688    c-0.882-2.715-3.229-4.694-6.054-5.104l-48.13-6.994l-21.524-43.613c-1.264-2.56-3.871-4.181-6.726-4.181    c-2.854,0-5.462,1.621-6.726,4.181l-21.525,43.613l-48.13,6.994c-2.825,0.41-5.172,2.389-6.054,5.104    c-0.882,2.715-0.146,5.695,1.898,7.688L97.452,227.432z M120.97,187.974c2.443-0.355,4.554-1.889,5.647-4.103l16.544-33.522    l16.544,33.522c1.092,2.213,3.204,3.748,5.647,4.103l36.994,5.376l-26.769,26.093c-1.768,1.723-2.575,4.206-2.157,6.639    l6.319,36.844l-33.088-17.396c-2.186-1.148-4.796-1.148-6.98,0l-33.088,17.396l6.319-36.844c0.417-2.433-0.389-4.916-2.157-6.639    L83.977,193.35L120.97,187.974z"/>
	</g>
</g>















</svg>
