<?xml version="1.0" encoding="iso-8859-1"?>
<!-- Generator: Adobe Illustrator 19.0.0, SVG Export Plug-In . SVG Version: 6.00 Build 0)  -->
<svg xmlns="http://www.w3.org/2000/svg" xmlns:xlink="http://www.w3.org/1999/xlink" version="1.1" id="Layer_1" x="0px" y="0px" viewBox="0 0 505 505" style="enable-background:new 0 0 505 505;" xml:space="preserve" width="512" height="512">
<g>
	<g>
		<g>
			<path style="fill:#36A6CE;" d="M385.48,369.14v89.9c0,21.24-17.22,38.46-38.46,38.46H52.45c-17.82,0-33.22-10.37-40.49-25.4     c-2.86-5.91-4.46-12.54-4.46-19.55c0-12.41,5.03-56.973,13.16-65.113c8.14-8.13,19.38-13.16,31.79-13.16h294.57     c5,0,9.78-0.95,14.16-2.69C375.41,365.947,385.48,385.39,385.48,369.14z"/>
			<path style="fill:#D1D1D1;" d="M361.18,369.77v85.45c0,9.32-7.56,16.88-16.89,16.88H11.96c-2.86-5.91-4.46-12.54-4.46-19.55     v-86.36L361.18,369.77z"/>
			<path style="fill:#53BCE9;" d="M385.48,45.96v323.18c0,16.25-10.07,30.14-24.3,35.78c-4.38,1.74-9.16,2.69-14.16,2.69H52.45     c-12.41,0-23.65,5.03-31.79,13.16c-8.13,8.14-13.16,19.37-13.16,31.78V52.45C7.5,27.62,27.62,7.5,52.45,7.5h294.57     C368.26,7.5,385.48,24.72,385.48,45.96z"/>
			<path style="fill:#36A6CE;" d="M40.199,9.203C21.328,14.537,7.5,31.869,7.5,52.45v400.1c0-12.41,5.03-23.64,13.16-31.78     c5.353-5.347,12.053-9.34,19.539-11.456V9.203z"/>
		</g>
		<polyline style="fill:#D1D1D1;" points="129.17,183.479 108.503,183.479 108.503,233.479 310.503,233.479 310.503,183.479   "/>
		<rect x="152.503" y="38.769" style="fill:#E5E9EA;" width="344.997" height="158"/>
	</g>
	<g>
		<path d="M385.479,213.603c-4.143,0-7.5,3.358-7.5,7.5V369.14c0,12.79-7.679,24.098-19.569,28.81    c-3.607,1.434-7.439,2.16-11.391,2.16H52.45c-14.005,0-27.178,5.453-37.097,15.36c-0.121,0.121-0.234,0.249-0.354,0.372V52.45    C15,31.8,31.8,15,52.45,15H347.02c8.27,0,16.044,3.221,21.892,9.068c2.93,2.929,7.678,2.929,10.607,0    c2.929-2.929,2.929-7.678,0-10.606C370.837,4.781,359.296,0,347.02,0H52.45C23.529,0,0,23.529,0,52.45v400.1    c0,7.999,1.753,15.675,5.208,22.815C13.915,493.368,32.459,505,52.45,505H347.02c25.343,0,45.96-20.618,45.96-45.96V421.1    c0-4.142-3.357-7.5-7.5-7.5s-7.5,3.358-7.5,7.5v37.94c0,17.071-13.889,30.96-30.96,30.96H52.45    c-14.276,0-27.52-8.308-33.739-21.167C16.248,463.745,15,458.267,15,452.55c0-9.996,3.895-19.4,10.96-26.474    c7.081-7.072,16.488-10.967,26.49-10.967H347.02c5.856,0,11.552-1.083,16.924-3.217c17.639-6.991,29.036-23.772,29.036-42.752    V221.103C392.979,216.96,389.622,213.603,385.479,213.603z"/>
		<path d="M43.497,479.603h300.797c13.444,0,24.382-10.938,24.382-24.383v-22.115c0-4.142-3.357-7.5-7.5-7.5s-7.5,3.358-7.5,7.5    v22.115c0,5.174-4.209,9.383-9.382,9.383H43.497c-4.143,0-7.5,3.358-7.5,7.5S39.354,479.603,43.497,479.603z"/>
		<path d="M43.497,448.27h52.004c4.143,0,7.5-3.358,7.5-7.5s-3.357-7.5-7.5-7.5H43.497c-4.143,0-7.5,3.358-7.5,7.5    S39.354,448.27,43.497,448.27z"/>
		<path d="M334.899,448.27c4.143,0,7.5-3.358,7.5-7.5s-3.357-7.5-7.5-7.5H120.503c-4.143,0-7.5,3.358-7.5,7.5s3.357,7.5,7.5,7.5    H334.899z"/>
		<path d="M129.17,190.979c4.143,0,7.5-3.358,7.5-7.5s-3.357-7.5-7.5-7.5h-20.667c-4.143,0-7.5,3.358-7.5,7.5v50    c0,4.142,3.357,7.5,7.5,7.5h202c4.143,0,7.5-3.358,7.5-7.5v-14.71c0-4.142-3.357-7.5-7.5-7.5s-7.5,3.358-7.5,7.5v7.21h-187v-35    H129.17z"/>
		<path d="M497.5,31.269H152.503c-4.143,0-7.5,3.358-7.5,7.5v158c0,4.142,3.357,7.5,7.5,7.5h288c4.143,0,7.5-3.358,7.5-7.5    s-3.357-7.5-7.5-7.5h-280.5v-143H490v143h-24.495c-4.143,0-7.5,3.358-7.5,7.5s3.357,7.5,7.5,7.5H497.5c4.143,0,7.5-3.358,7.5-7.5    v-158C505,34.627,501.643,31.269,497.5,31.269z"/>
		<path d="M219.265,156.064c4.589,0,8.184-3.298,8.184-7.508V91.519h11.112c4.226,0,7.412-3.477,7.412-8.087    c0-4.5-3.187-7.895-7.412-7.895h-38.688c-4.226,0-7.412,3.435-7.412,7.991c0,4.481,3.256,7.991,7.412,7.991h11.209v57.038    C211.081,152.836,214.6,156.064,219.265,156.064z"/>
		<path d="M310.145,91.422c4.226,0,7.412-3.477,7.412-8.087c0-4.445-3.187-7.798-7.412-7.798h-34.348    c-4.5,0-7.894,3.187-7.894,7.412v65.607c0,4.21,3.467,7.508,7.894,7.508h34.348c4.226,0,7.412-3.394,7.412-7.895    c0-4.481-3.256-7.991-7.412-7.991h-25.874v-16.726h10.147c4.226,0,7.412-3.27,7.412-7.605c0-4.5-3.187-7.895-7.412-7.895h-10.147    V91.422H310.145z"/>
		<path d="M335.962,144.297c-0.613,1.229-0.912,2.465-0.912,3.777c0,4.823,4.618,8.184,8.763,8.184c4.495,0,6.549-4.024,7.438-5.801    l9.832-18.602l9.832,18.601c0.889,1.779,2.941,5.802,7.438,5.802c4.146,0,8.764-3.361,8.764-8.184c0-1.315-0.3-2.552-0.916-3.783    l-15.48-28.551l15.101-28.16c0.796-1.417,1.199-2.91,1.199-4.438c0-4.373-3.849-7.798-8.763-7.798    c-4.533,0-6.655,3.981-7.71,5.961l-9.464,18.073l-9.499-18.14c-1.02-1.913-3.142-5.895-7.675-5.895    c-4.914,0-8.763,3.425-8.763,7.798c0,1.526,0.402,3.017,1.195,4.432l15.016,28.166l-15.323,28.417L335.962,144.297z"/>
		<path d="M450.13,75.537h-38.688c-4.226,0-7.412,3.435-7.412,7.991c0,4.481,3.256,7.991,7.412,7.991h11.209v57.038    c0,4.28,3.519,7.508,8.184,7.508c4.589,0,8.184-3.298,8.184-7.508V91.519h11.112c4.226,0,7.412-3.477,7.412-8.087    C457.542,78.931,454.355,75.537,450.13,75.537z"/>
	</g>
</g>















</svg>
