<?xml version="1.0" encoding="iso-8859-1"?>
<!-- Generator: Adobe Illustrator 19.0.0, SVG Export Plug-In . SVG Version: 6.00 Build 0)  -->
<svg xmlns="http://www.w3.org/2000/svg" xmlns:xlink="http://www.w3.org/1999/xlink" version="1.1" id="Layer_1" x="0px" y="0px" viewBox="0 0 504.489 504.489" style="enable-background:new 0 0 504.489 504.489;" xml:space="preserve" width="512" height="512">
<g>
	<g>
		<rect x="7.5" y="67.366" style="fill:#36A6CE;" width="369.757" height="369.757"/>
		<polygon style="fill:#E5E9EA;" points="333.165,111.458 333.165,111.458 221.364,111.458 163.393,111.458 51.592,111.458     51.592,169.429 51.592,169.429 51.592,202.555 109.563,202.555 109.563,169.429 163.393,169.429 163.393,335.06 127.592,335.06     127.592,393.031 163.393,393.031 221.364,393.031 257.164,393.031 257.164,335.06 221.364,335.06 221.364,169.429     275.194,169.429 275.194,202.555 333.165,202.555 333.165,111.458   "/>
		<polygon style="fill:#E5E9EA;" points="315.859,288.778 285.587,319.05 359.374,332.293 416.134,389.053 497.489,307.698     397.214,207.423   "/>
		<polygon style="fill:#53BCE9;" points="497.5,307.699 416.134,389.053 359.383,332.302 285.588,319.057 315.863,288.782     478.583,288.782   "/>
	</g>
	<g>
		<path d="M277.589,429.623H15V74.866h354.757v124.913c0,4.142,3.357,7.5,7.5,7.5s7.5-3.358,7.5-7.5V67.366    c0-4.142-3.357-7.5-7.5-7.5H7.5c-4.142,0-7.5,3.358-7.5,7.5v369.757c0,4.142,3.358,7.5,7.5,7.5h270.089c4.143,0,7.5-3.358,7.5-7.5    S281.732,429.623,277.589,429.623z"/>
		<path d="M377.257,374.27c-4.143,0-7.5,3.358-7.5,7.5v47.853h-67.166c-4.143,0-7.5,3.358-7.5,7.5s3.357,7.5,7.5,7.5h74.666    c4.143,0,7.5-3.358,7.5-7.5V381.77C384.757,377.628,381.4,374.27,377.257,374.27z"/>
		<path d="M275.195,210.055h57.971c4.143,0,7.5-3.358,7.5-7.5v-91.097c0-4.142-3.357-7.5-7.5-7.5l-216.565,0    c-4.142,0-7.5,3.358-7.5,7.5s3.358,7.5,7.5,7.5l209.065,0v76.097h-42.971v-25.626c0-4.142-3.357-7.5-7.5-7.5h-53.831    c-4.142,0-7.5,3.358-7.5,7.5V335.06c0,4.142,3.358,7.5,7.5,7.5h28.301v42.971H135.092V342.56h28.301c4.142,0,7.5-3.358,7.5-7.5    V169.429c0-4.142-3.358-7.5-7.5-7.5h-53.83c-4.142,0-7.5,3.358-7.5,7.5v25.626H59.092l0-76.098h32.507c4.142,0,7.5-3.358,7.5-7.5    s-3.358-7.5-7.5-7.5H51.592c-1.989,0-3.897,0.79-5.303,2.197c-1.407,1.406-2.197,3.314-2.197,5.303l0,91.098    c0,4.142,3.358,7.5,7.5,7.5h57.971c4.142,0,7.5-3.358,7.5-7.5v-25.626h38.83V327.56h-28.301c-4.142,0-7.5,3.358-7.5,7.5v57.971    c0,4.142,3.358,7.5,7.5,7.5h129.572c4.143,0,7.5-3.358,7.5-7.5V335.06c0-4.142-3.357-7.5-7.5-7.5h-28.301V176.929h38.831v25.626    C267.695,206.698,271.052,210.055,275.195,210.055z"/>
		<path d="M502.439,302.748l-17.15-17.15l-6.429-61.654c-1.228-11.767-8.916-21.533-20.066-25.486    c-11.148-3.954-23.273-1.214-31.641,7.152l-10.926,10.926l-14.063-14.063c-2.734-2.733-7.166-2.733-9.9,0l-81.355,81.355    L280.637,314.1c-1.843,1.843-2.509,4.558-1.729,7.044c0.78,2.487,2.878,4.334,5.443,4.795l71.626,12.856l55.206,55.207    c1.313,1.313,3.094,2.05,4.95,2.05s3.637-0.737,4.95-2.05l81.355-81.355c1.313-1.313,2.05-3.093,2.05-4.95    S503.751,304.06,502.439,302.748z M437.052,215.509c4.579-4.579,10.955-6.022,17.063-3.857    c6.104,2.165,10.149,7.302,10.821,13.744l4.639,44.488l-43.448-43.448L437.052,215.509z M416.133,379.153l-51.809-51.81    c-1.011-1.011-2.307-1.688-3.714-1.94l-60.601-10.877l97.204-97.204l90.375,90.375L416.133,379.153z"/>
		<path d="M339.787,288.775c0,3.866,3.134,7,7,7h101.865c3.866,0,7-3.134,7-7s-3.134-7-7-7H346.787    C342.92,281.775,339.787,284.909,339.787,288.775z"/>
	</g>
</g>















</svg>
