<?xml version="1.0" encoding="iso-8859-1"?>
<!-- Generator: Adobe Illustrator 19.0.0, SVG Export Plug-In . SVG Version: 6.00 Build 0)  -->
<svg xmlns="http://www.w3.org/2000/svg" xmlns:xlink="http://www.w3.org/1999/xlink" version="1.1" id="Layer_1" x="0px" y="0px" viewBox="0 0 505 505" style="enable-background:new 0 0 505 505;" xml:space="preserve" width="512" height="512">
<g>
	<g>
		<rect x="455.4" y="7.5" style="fill:#53BCE9;" width="42.1" height="42.1"/>
		<rect x="455.4" y="455.4" style="fill:#53BCE9;" width="42.1" height="42.1"/>
		<rect x="7.5" y="7.5" style="fill:#53BCE9;" width="42.1" height="42.1"/>
		<rect x="7.5" y="455.4" style="fill:#53BCE9;" width="42.1" height="42.1"/>
		<rect x="67.622" y="67.622" style="fill:#E5E9EA;" width="369.757" height="369.757"/>
		<polygon style="fill:#566368;" points="393.287,111.714 393.287,111.713 281.486,111.713 223.515,111.713 111.713,111.713     111.713,169.684 111.714,169.684 111.714,202.811 169.685,202.811 169.685,169.684 223.515,169.684 223.515,335.316     187.714,335.316 187.714,393.287 223.515,393.287 281.486,393.287 317.286,393.287 317.286,335.316 281.486,335.316     281.486,169.684 335.316,169.684 335.316,202.811 393.287,202.811 393.287,111.714   "/>
	</g>
	<g>
		<path d="M316.115,111.713c0-4.142-3.358-7.5-7.5-7.5H111.713c-1.989,0-3.897,0.79-5.303,2.197    c-1.407,1.406-2.197,3.314-2.197,5.303l0,91.098c0,4.142,3.358,7.5,7.5,7.5h57.971c4.142,0,7.5-3.358,7.5-7.5v-25.626h38.83    v150.631h-28.301c-4.142,0-7.5,3.358-7.5,7.5v57.971c0,4.142,3.358,7.5,7.5,7.5h129.572c4.142,0,7.5-3.358,7.5-7.5v-57.971    c0-4.142-3.358-7.5-7.5-7.5h-28.301V177.185h38.831v25.626c0,4.142,3.358,7.5,7.5,7.5h57.971c1.989,0,3.897-0.79,5.303-2.197    c1.407-1.406,2.197-3.314,2.197-5.303l0-91.098c0-4.142-3.358-7.5-7.5-7.5h-59.67c-4.142,0-7.5,3.358-7.5,7.5s3.358,7.5,7.5,7.5    l52.171,0v76.097h-42.971v-25.626c0-4.142-3.358-7.5-7.5-7.5h-53.831c-4.142,0-7.5,3.358-7.5,7.5v165.631    c0,4.142,3.358,7.5,7.5,7.5h28.301v42.971H195.214v-42.971h28.301c4.142,0,7.5-3.358,7.5-7.5V169.685c0-4.142-3.358-7.5-7.5-7.5    h-53.83c-4.142,0-7.5,3.358-7.5,7.5v25.626h-42.971l0-76.098h189.401C312.757,119.213,316.115,115.855,316.115,111.713z"/>
		<path d="M437.378,60.122H67.622c-4.142,0-7.5,3.358-7.5,7.5v283.403c0,4.142,3.358,7.5,7.5,7.5s7.5-3.358,7.5-7.5V75.122h354.756    v354.757H75.122v-53.852c0-4.142-3.358-7.5-7.5-7.5s-7.5,3.358-7.5,7.5v61.352c0,4.142,3.358,7.5,7.5,7.5h369.756    c4.142,0,7.5-3.358,7.5-7.5V67.622C444.878,63.479,441.521,60.122,437.378,60.122z"/>
		<path d="M468.954,425.524c0,4.142,3.358,7.5,7.5,7.5s7.5-3.358,7.5-7.5v-25c0-4.142-3.358-7.5-7.5-7.5s-7.5,3.358-7.5,7.5V425.524    z"/>
		<path d="M468.954,358.231c0,4.142,3.358,7.5,7.5,7.5s7.5-3.358,7.5-7.5v-42.293c0-4.142-3.358-7.5-7.5-7.5s-7.5,3.358-7.5,7.5    V358.231z"/>
		<path d="M468.954,273.646c0,4.142,3.358,7.5,7.5,7.5s7.5-3.358,7.5-7.5v-42.293c0-4.142-3.358-7.5-7.5-7.5s-7.5,3.358-7.5,7.5    V273.646z"/>
		<path d="M468.954,189.06c0,4.142,3.358,7.5,7.5,7.5s7.5-3.358,7.5-7.5v-42.292c0-4.142-3.358-7.5-7.5-7.5s-7.5,3.358-7.5,7.5    V189.06z"/>
		<path d="M476.454,111.974c4.142,0,7.5-3.358,7.5-7.5v-25c0-4.142-3.358-7.5-7.5-7.5s-7.5,3.358-7.5,7.5v25    C468.954,108.616,472.312,111.974,476.454,111.974z"/>
		<path d="M21.05,425.524c0,4.142,3.358,7.5,7.5,7.5s7.5-3.358,7.5-7.5v-25c0-4.142-3.358-7.5-7.5-7.5s-7.5,3.358-7.5,7.5V425.524z"/>
		<path d="M21.05,358.231c0,4.142,3.358,7.5,7.5,7.5s7.5-3.358,7.5-7.5v-42.293c0-4.142-3.358-7.5-7.5-7.5s-7.5,3.358-7.5,7.5    V358.231z"/>
		<path d="M21.05,189.06c0,4.142,3.358,7.5,7.5,7.5s7.5-3.358,7.5-7.5v-42.292c0-4.142-3.358-7.5-7.5-7.5s-7.5,3.358-7.5,7.5V189.06    z"/>
		<path d="M21.05,273.646c0,4.142,3.358,7.5,7.5,7.5s7.5-3.358,7.5-7.5v-42.293c0-4.142-3.358-7.5-7.5-7.5s-7.5,3.358-7.5,7.5    V273.646z"/>
		<path d="M28.55,111.974c4.142,0,7.5-3.358,7.5-7.5v-25c0-4.142-3.358-7.5-7.5-7.5s-7.5,3.358-7.5,7.5v25    C21.05,108.616,24.408,111.974,28.55,111.974z"/>
		<path d="M104.477,468.951h-25c-4.142,0-7.5,3.358-7.5,7.5s3.358,7.5,7.5,7.5h25c4.142,0,7.5-3.358,7.5-7.5    S108.619,468.951,104.477,468.951z"/>
		<path d="M189.063,468.951H146.77c-4.142,0-7.5,3.358-7.5,7.5s3.358,7.5,7.5,7.5h42.293c4.142,0,7.5-3.358,7.5-7.5    S193.205,468.951,189.063,468.951z"/>
		<path d="M358.234,468.951h-42.292c-4.142,0-7.5,3.358-7.5,7.5s3.358,7.5,7.5,7.5h42.292c4.142,0,7.5-3.358,7.5-7.5    S362.376,468.951,358.234,468.951z"/>
		<path d="M273.648,468.951h-42.293c-4.142,0-7.5,3.358-7.5,7.5s3.358,7.5,7.5,7.5h42.293c4.142,0,7.5-3.358,7.5-7.5    S277.791,468.951,273.648,468.951z"/>
		<path d="M425.527,468.951h-25c-4.142,0-7.5,3.358-7.5,7.5s3.358,7.5,7.5,7.5h25c4.142,0,7.5-3.358,7.5-7.5    S429.669,468.951,425.527,468.951z"/>
		<path d="M79.477,36.047h25c4.142,0,7.5-3.358,7.5-7.5s-3.358-7.5-7.5-7.5h-25c-4.142,0-7.5,3.358-7.5,7.5    S75.335,36.047,79.477,36.047z"/>
		<path d="M146.77,36.047h42.293c4.142,0,7.5-3.358,7.5-7.5s-3.358-7.5-7.5-7.5H146.77c-4.142,0-7.5,3.358-7.5,7.5    S142.628,36.047,146.77,36.047z"/>
		<path d="M231.355,36.047h42.293c4.142,0,7.5-3.358,7.5-7.5s-3.358-7.5-7.5-7.5h-42.293c-4.142,0-7.5,3.358-7.5,7.5    S227.213,36.047,231.355,36.047z"/>
		<path d="M315.941,36.047h42.292c4.142,0,7.5-3.358,7.5-7.5s-3.358-7.5-7.5-7.5h-42.292c-4.142,0-7.5,3.358-7.5,7.5    S311.799,36.047,315.941,36.047z"/>
		<path d="M400.527,36.047h25c4.142,0,7.5-3.358,7.5-7.5s-3.358-7.5-7.5-7.5h-25c-4.142,0-7.5,3.358-7.5,7.5    S396.385,36.047,400.527,36.047z"/>
		<path d="M497.5,0h-42.1c-4.142,0-7.5,3.358-7.5,7.5v42.101c0,4.142,3.358,7.5,7.5,7.5h42.1c4.142,0,7.5-3.358,7.5-7.5V7.5    C505,3.358,501.642,0,497.5,0z M490,42.101h-27.1V15H490V42.101z"/>
		<path d="M497.5,447.9h-42.1c-4.142,0-7.5,3.358-7.5,7.5v42.1c0,4.142,3.358,7.5,7.5,7.5h42.1c4.142,0,7.5-3.358,7.5-7.5v-42.1    C505,451.258,501.642,447.9,497.5,447.9z M490,490h-27.1v-27.1H490V490z"/>
		<path d="M49.601,0H7.5C3.358,0,0,3.358,0,7.5v42.101c0,4.142,3.358,7.5,7.5,7.5h42.101c4.142,0,7.5-3.358,7.5-7.5V7.5    C57.101,3.358,53.743,0,49.601,0z M42.101,42.101H15V15h27.101V42.101z"/>
		<path d="M49.601,447.9H7.5c-4.142,0-7.5,3.358-7.5,7.5v42.1c0,4.142,3.358,7.5,7.5,7.5h42.101c4.142,0,7.5-3.358,7.5-7.5v-42.1    C57.101,451.258,53.743,447.9,49.601,447.9z M42.101,490H15v-27.1h27.101V490z"/>
	</g>
</g>















</svg>
