<?xml version="1.0" encoding="iso-8859-1"?>
<!-- Generator: Adobe Illustrator 19.0.0, SVG Export Plug-In . SVG Version: 6.00 Build 0)  -->
<svg xmlns="http://www.w3.org/2000/svg" xmlns:xlink="http://www.w3.org/1999/xlink" version="1.1" id="Layer_1" x="0px" y="0px" viewBox="0 0 494.998 494.998" style="enable-background:new 0 0 494.998 494.998;" xml:space="preserve" width="512" height="512">
<g>
	<g>
		<g>
			<polygon style="fill:#FCB65F;" points="204.688,364.768 197.848,392.768 174.688,487.498 132.688,487.498 155.848,392.768      162.688,364.768    "/>
			<polygon style="fill:#FCB65F;" points="362.308,487.498 320.308,487.498 297.148,392.768 290.308,364.768 332.308,364.768      339.148,392.768    "/>
		</g>
		<polygon style="fill:#E29A4B;" points="162.688,364.768 204.688,364.768 197.848,392.768 155.848,392.768   "/>
		<polygon style="fill:#E29A4B;" points="339.148,392.768 297.148,392.768 290.308,364.768 332.308,364.768   "/>
		<rect x="117.499" y="7.5" style="fill:#FCB65F;" width="260" height="321.268"/>
		<rect x="157.499" y="47.5" style="fill:#E5E9EA;" width="180" height="241.269"/>
		<rect x="117.499" y="288.768" style="fill:#E29A4B;" width="260" height="40"/>
		<path style="fill:#E29A4B;" d="M405.448,314.768v13.61c0,20.1-16.29,36.39-36.39,36.39h-243.12c-20.09,0-36.38-16.29-36.38-36.39    v-13.61H405.448z"/>
		<path style="fill:#FCB65F;" d="M405.448,314.768v13.61c0,20.1-16.29,36.39-36.39,36.39h-196.62c-20.1,0-36.39-16.29-36.39-36.39    v-13.61H405.448z"/>
		<path style="fill:#FA3F68;" d="M240.637,156.903c13.695,13.695-28.715,56.987-7.51,73.774s94.537-123.694,65.381-134.296    s-54.337,35.783-69.799,20.321s16.787-33.574,6.185-44.176c-10.602-10.602-53.894,26.506-53.894,63.614    C181.001,192.686,226.943,143.208,240.637,156.903z"/>
		
			<ellipse transform="matrix(0.866 0.5 -0.5 0.866 154.193 -117.4537)" style="fill:#36A6CE;" cx="296.268" cy="229.001" rx="15.449" ry="24.298"/>
	</g>
	<g>
		<path d="M201.088,379.482c-4.024-0.981-8.083,1.482-9.066,5.505L168.8,479.998h-26.559l22.352-91.449    c0.983-4.024-1.481-8.083-5.505-9.066c-4.027-0.981-8.083,1.482-9.066,5.505l-24.62,100.73c-0.546,2.237-0.036,4.601,1.386,6.412    c1.422,1.811,3.597,2.869,5.899,2.869h42c3.456,0,6.465-2.362,7.286-5.719l24.62-100.73    C207.577,384.525,205.112,380.466,201.088,379.482z"/>
		<path d="M344.974,384.987c-0.984-4.023-5.042-6.486-9.066-5.505c-4.023,0.983-6.488,5.042-5.505,9.066l22.352,91.449h-26.559    l-23.222-95.011c-0.983-4.023-5.039-6.486-9.066-5.505c-4.023,0.983-6.488,5.042-5.505,9.066l24.62,100.73    c0.821,3.357,3.83,5.719,7.286,5.719h42c2.303,0,4.478-1.058,5.899-2.869c1.422-1.812,1.933-4.175,1.386-6.412L344.974,384.987z"/>
		<path d="M157.499,40c-4.142,0-7.5,3.358-7.5,7.5v241.269c0,4.142,3.358,7.5,7.5,7.5h180c4.142,0,7.5-3.358,7.5-7.5V47.5    c0-4.142-3.358-7.5-7.5-7.5H157.499z M329.999,281.268h-165V55h165V281.268z"/>
		<path d="M405.444,307.269H161.049c-4.142,0-7.5,3.358-7.5,7.5s3.358,7.5,7.5,7.5h236.895v6.113    c0,15.928-12.958,28.887-28.887,28.887H125.94c-15.928,0-28.887-12.958-28.887-28.887v-6.113h38.994c4.142,0,7.5-3.358,7.5-7.5    s-3.358-7.5-7.5-7.5H89.554c-4.142,0-7.5,3.358-7.5,7.5v13.613c0,24.199,19.688,43.887,43.887,43.887h243.117    c24.199,0,43.887-19.688,43.887-43.887v-13.613C412.944,310.627,409.586,307.269,405.444,307.269z"/>
		<path d="M117.499,297.267c4.142,0,7.5-3.358,7.5-7.5V15h245v69.767c0,4.142,3.358,7.5,7.5,7.5s7.5-3.358,7.5-7.5V7.5    c0-4.142-3.358-7.5-7.5-7.5h-260c-4.142,0-7.5,3.358-7.5,7.5v282.267C109.999,293.909,113.357,297.267,117.499,297.267z"/>
		<path d="M377.499,102.268c-4.142,0-7.5,3.358-7.5,7.5v179.999c0,4.142,3.358,7.5,7.5,7.5s7.5-3.358,7.5-7.5V109.768    C384.999,105.626,381.641,102.268,377.499,102.268z"/>
		<path d="M184.611,167.84c10.18,7.099,23.104,2.337,34.508-1.864c4.37-1.61,14.603-5.379,16.215-3.77    c2.605,2.605-3.032,15.613-6.4,23.384c-7.38,17.027-16.565,38.219-0.462,50.967c1.714,1.357,4.64,3.017,8.694,3.017    c2.548,0,5.543-0.656,8.962-2.456c26.513-13.956,68.803-96.225,66.543-129.453c-0.856-12.592-7.635-16.891-11.601-18.333    c-18.865-6.86-35.238,4.672-48.394,13.938c-5.165,3.639-10.044,7.075-13.873,8.498c-3.224,1.199-3.985,0.437-4.792-0.37    c-3.476-3.476-2.823-6.458,3.678-16.793c4.596-7.307,11.541-18.349,2.507-27.383c-2.676-2.677-8.821-6.48-19.896-1.891    C200.759,73.426,173.5,104.28,173.5,136.14C173.5,152.481,177.031,162.555,184.611,167.84z M216.42,85.192    c6.896-5.508,11.364-6.826,13.095-6.992c-0.44,1.93-2.954,5.927-4.521,8.419c-5.34,8.489-14.276,22.697-1.587,35.386    c3.894,3.894,8.061,5.417,12.316,5.416c8.718-0.001,17.797-6.396,25.593-11.887c11.367-8.008,23.121-16.289,34.629-12.105    c1.151,0.419,2.892,4.879,0.927,15.994c-3.115,17.617-14.149,44.281-28.111,67.929c-17.503,29.647-28.623,36.662-31.292,37.183    c-6.1-5.324-1.673-17.059,5.228-32.98c6.422-14.817,13.063-30.138,3.244-39.956c-3.444-3.444-7.584-4.698-12.036-4.698    c-6.401,0-13.443,2.594-19.971,4.999c-7.566,2.788-16.983,6.258-20.743,3.635c-1.41-0.983-4.69-4.842-4.69-19.396    C188.5,116.456,202.973,95.932,216.42,85.192z"/>
		<path d="M276.394,217.527c-8.915,15.442-7.169,32.579,3.975,39.013c2.741,1.583,5.837,2.371,9.089,2.371    c3.616,0,7.425-0.976,11.149-2.918c6.069-3.167,11.586-8.677,15.535-15.517c8.916-15.442,7.17-32.578-3.975-39.013    C301.023,195.031,285.309,202.085,276.394,217.527z M303.152,232.976c-2.505,4.338-5.961,7.88-9.483,9.718    c-2.395,1.25-4.562,1.57-5.799,0.856c-2.74-1.582-3.534-9.777,1.515-18.522c4.254-7.368,10.242-10.948,13.662-10.948    c0.64,0,1.19,0.125,1.622,0.375C307.408,216.036,308.201,224.23,303.152,232.976z"/>
	</g>
</g>















</svg>
