<?xml version="1.0" encoding="iso-8859-1"?>
<!-- Generator: Adobe Illustrator 19.0.0, SVG Export Plug-In . SVG Version: 6.00 Build 0)  -->
<svg xmlns="http://www.w3.org/2000/svg" xmlns:xlink="http://www.w3.org/1999/xlink" version="1.1" id="Layer_1" x="0px" y="0px" viewBox="0 0 504.999 504.999" style="enable-background:new 0 0 504.999 504.999;" xml:space="preserve" width="512" height="512">
<g>
	<g>
		<polygon style="fill:#E5E9EA;" points="418.24,35.069 418.24,455.049 326.24,497.499 86.76,497.499 86.76,35.069   "/>
		<polygon style="fill:#53BCE9;" points="126.76,457.499 126.76,75.069 378.24,75.069 378.24,429.453 378.24,457.499   "/>
		<path style="fill:#FCB65F;" d="M263.68,296.069c1.38-18.16,6.88-36.43,11.75-46.79c-14.8-19.63-10.43-49.72-21.22-60.51    c-9.35-9.35-36.51,1.74-56.07,3.68c-7.65,0.76-14.13,0.12-17.93-3.68c-13.53-13.53,9-34,24-49c16.5-16.5,57-49,84-11s46,11,51,47    s-26,68-14,113s53.03,51,53.03,51v89.68v28.05h-59.03c-18.36-34.77-19.5-7.23-63-50.73c-19.22-19.22-20-43.07-14.87-63.71    C247.8,316.999,263.68,296.069,263.68,296.069z"/>
		<path style="fill:#E5E9EA;" d="M231.02,268.439c-22.81-5.3-39.81-25.75-39.81-50.17c0-9.41,2.52-18.23,6.93-25.82    c19.56-1.94,46.72-13.03,56.07-3.68c10.79,10.79,6.42,40.88,21.22,60.51c-4.87,10.36-10.37,28.63-11.75,46.79    c0,0-15.88,20.93-22.34,46.99c-42.86-8.72-38.86-29.57-38.86-29.57C216.87,294.119,231.02,276.899,231.02,268.439z"/>
		<path style="fill:#FA3F68;" d="M175.21,384.769c-10.12-17.99,8.77-46.4,27.27-71.28c0,0-4,20.85,38.86,29.57    c-5.13,20.64-4.35,44.49,14.87,63.71c43.5,43.5,44.64,15.96,63,50.73h-122l-4.59-55.53v-0.01    C186.21,398.749,180.06,393.389,175.21,384.769z"/>
		<polygon style="fill:#D1D1D1;" points="418.24,455.049 326.24,497.499 382.998,428.046   "/>
		<rect x="119.375" y="7.5" style="fill:#566368;" width="33" height="43.269"/>
		<rect x="352.625" y="7.5" style="fill:#566368;" width="33" height="43.269"/>
	</g>
	<g>
		<path d="M171.109,42.569h162.78c4.143,0,7.5-3.358,7.5-7.5s-3.357-7.5-7.5-7.5h-162.78c-4.143,0-7.5,3.358-7.5,7.5    S166.967,42.569,171.109,42.569z"/>
		<path d="M418.239,150.271c-4.143,0-7.5,3.358-7.5,7.5v282.083l-23.18-17.761c-3.217-2.464-7.807-1.928-10.369,1.207l-54.507,66.7    H94.26V42.569h6.38c4.143,0,7.5-3.358,7.5-7.5s-3.357-7.5-7.5-7.5H86.76c-4.143,0-7.5,3.358-7.5,7.5v462.43    c0,4.142,3.357,7.5,7.5,7.5h239.479c1.085,0,2.157-0.235,3.143-0.69l92-42.45c2.656-1.226,4.357-3.884,4.357-6.81V157.771    C425.739,153.628,422.382,150.271,418.239,150.271z M384.206,438.419l19.609,15.025l-51.189,23.62L384.206,438.419z"/>
		<path d="M418.239,27.569h-13.88c-4.143,0-7.5,3.358-7.5,7.5s3.357,7.5,7.5,7.5h6.38v90.2c0,4.142,3.357,7.5,7.5,7.5    s7.5-3.358,7.5-7.5v-97.7C425.739,30.927,422.382,27.569,418.239,27.569z"/>
		<path d="M378.24,416.27c4.143,0,7.5-3.358,7.5-7.5v-333.7c0-4.142-3.357-7.5-7.5-7.5H126.76c-4.143,0-7.5,3.358-7.5,7.5v382.43    c0,4.142,3.357,7.5,7.5,7.5h34.948c4.143,0,7.5-3.358,7.5-7.5s-3.357-7.5-7.5-7.5H134.26V82.569h236.48v247.367    c-11.406-4.228-30.879-15.333-38.283-43.1c-2.974-11.15-3.321-22.187-1.093-34.734c0.724-4.079-1.995-7.972-6.073-8.696    c-4.077-0.729-7.972,1.994-8.696,6.073c-2.589,14.579-2.142,28.063,1.368,41.223c10.284,38.566,39.652,51.208,52.777,55.006    v63.062C370.74,412.912,374.098,416.27,378.24,416.27z"/>
		<path d="M178.71,457.499c0,4.142,3.357,7.5,7.5,7.5h147c4.143,0,7.5-3.358,7.5-7.5s-3.357-7.5-7.5-7.5h-9.558    c-8.82-15.517-14.782-18.326-24.042-21.673c-7.427-2.685-17.598-6.362-38.096-26.86c-15.806-15.805-19.461-37.229-10.866-63.677    c1.95-6,4.342-11.608,6.762-16.563c0.886,4.458,2.175,8.726,3.982,12.668c1.262,2.753,3.98,4.377,6.823,4.377    c1.045,0,2.107-0.22,3.12-0.684c3.766-1.726,5.419-6.177,3.693-9.943c-8.075-17.617-2.977-46.512,3.177-64.924    c1.61,1.244,3.341,2.422,5.212,3.519c1.192,0.699,2.497,1.031,3.786,1.031c2.574,0,5.081-1.327,6.478-3.708    c2.095-3.573,0.896-8.168-2.678-10.263c-14.72-8.629-17.751-25.065-20.682-40.961c-2.101-11.39-4.084-22.148-10.808-28.872    c-9.335-9.334-25.81-5.736-43.252-1.925c-10.678,2.333-26.814,5.858-30.749,1.925c-1.733-1.734-1.965-3.153-1.962-4.312    c0.018-8.352,13.814-22.03,22.944-31.081c1.03-1.021,2.04-2.022,3.019-3.001c8.497-8.498,30.39-28.088,50.256-26.415    c8.627,0.725,15.93,5.453,22.326,14.456c14.587,20.53,28.045,24.348,36.95,26.875c4.208,1.194,6.667,1.948,8.254,3.558    c2.039,2.069,3.547,6.529,4.481,13.255c1.974,14.211-2.556,28.441-7.351,43.507c-0.671,2.108-1.346,4.228-2.009,6.363    c-1.228,3.956,0.984,8.158,4.94,9.386c3.958,1.226,8.158-0.985,9.386-4.94c0.651-2.101,1.315-4.187,1.976-6.26    c5.092-15.997,10.356-32.538,7.915-50.12c-3.021-21.755-11.646-25.817-23.499-29.18c-8.103-2.299-17.286-4.905-28.815-21.132    c-8.984-12.644-20.188-19.614-33.299-20.716c-25.188-2.115-49.725,18.362-62.119,30.756c-0.963,0.963-1.958,1.949-2.972,2.955    c-12.821,12.711-27.353,27.117-27.384,41.701c-0.012,5.611,2.186,10.781,6.355,14.951c3.178,3.178,7.21,4.899,11.791,5.654    c-0.986,2.986-1.735,6.05-2.235,9.163c-2.391-0.254-4.828,0.654-6.463,2.561c-3.173,3.702-2.043,9.475,2.363,11.561    c1.169,0.553,2.385,1.039,3.675,1.453c2.352,22.438,17.336,41.162,37.689,48.935c-3.631,6.88-12.068,18.068-18.653,26.8    c-21.447,28.435-48.139,63.823-34.4,88.247c4.655,8.275,10.489,14.076,16.796,18.035l3.596,43.518h-2.854    C182.067,449.999,178.71,453.357,178.71,457.499z M236.531,276.944c2.032,0.212,4.092,0.325,6.179,0.325    c4.143,0,7.5-3.358,7.5-7.5s-3.357-7.5-7.5-7.5c-21.814,0-39.961-15.959-43.403-36.813c0.952-0.12,1.927-0.261,2.949-0.447    c4.179-0.758,6.916-4.841,5.979-9.026c-0.875-3.91-4.833-6.356-8.78-5.706c0.693-3.769,1.874-7.427,3.515-10.882    c5.367-0.772,10.96-1.991,16.494-3.2c10.316-2.253,25.907-5.66,29.443-2.123c3.426,3.425,4.998,11.955,6.664,20.986    c2.056,11.154,4.443,24.052,11.313,35.066c-4.174,10.218-8.883,26.401-10.459,43.184c-3.552,5.033-13.6,20.235-19.916,39.459    c-0.149,0.452-0.283,0.901-0.425,1.351c-19.434-5.233-25.508-13.284-26.161-18.067c1.744-2.335,3.464-4.615,5.126-6.818    C225.824,294.945,233.213,284.897,236.531,276.944z M201.037,412.733c4.001,0.855,7.972,1.216,11.755,1.216    c7.438,0,14.155-1.389,18.965-3.126c3.896-1.407,5.914-5.706,4.507-9.602s-5.708-5.914-9.601-4.507    c-0.076,0.027-7.793,2.697-17.204,2.071c-12.243-0.816-21.567-6.769-27.712-17.693c-6.526-11.603,4.765-32.016,18.271-51.389    c4.904,6.835,14.374,14.156,32.48,18.982c-4.35,25.164,1.881,46.86,18.408,63.386c22.862,22.862,34.851,27.196,43.604,30.36    c4.63,1.674,7.599,2.75,11.342,7.567H204.116L201.037,412.733z"/>
		<path d="M119.375,58.269h33c4.143,0,7.5-3.358,7.5-7.5V7.5c0-4.142-3.357-7.5-7.5-7.5h-33c-4.143,0-7.5,3.358-7.5,7.5v43.269    C111.875,54.911,115.232,58.269,119.375,58.269z M126.875,15h18v28.269h-18V15z"/>
		<path d="M352.625,58.269h33c4.143,0,7.5-3.358,7.5-7.5V7.5c0-4.142-3.357-7.5-7.5-7.5h-33c-4.143,0-7.5,3.358-7.5,7.5v43.269    C345.125,54.911,348.482,58.269,352.625,58.269z M360.125,15h18v28.269h-18V15z"/>
		<path d="M251.801,216.067c-0.882-3.939-4.892-6.396-8.867-5.694c-8.728,1.539-12.199-0.582-12.234-0.604    c0.033,0.021-0.017-0.002-0.131-0.06c-3.058-1.537-6.775-0.773-9.003,1.825c-3.173,3.702-2.043,9.475,2.363,11.561    c3.589,1.698,7.546,2.837,13.12,2.837c2.572,0,5.49-0.243,8.774-0.839C250.001,224.336,252.738,220.253,251.801,216.067z"/>
		<path d="M330.377,118.269h20.332c4.143,0,7.5-3.358,7.5-7.5s-3.357-7.5-7.5-7.5h-20.332c-4.143,0-7.5,3.358-7.5,7.5    S326.234,118.269,330.377,118.269z"/>
		<path d="M307.843,117.698c0.45,0.18,0.92,0.33,1.4,0.42c0.479,0.1,0.979,0.15,1.47,0.15c0.479,0,0.979-0.05,1.46-0.15    c0.479-0.09,0.95-0.24,1.399-0.42c0.461-0.19,0.891-0.42,1.301-0.69c0.41-0.28,0.79-0.59,1.14-0.94c0.35-0.34,0.66-0.72,0.93-1.14    c0.271-0.4,0.5-0.84,0.69-1.29c0.189-0.45,0.33-0.93,0.43-1.4c0.101-0.49,0.141-0.98,0.141-1.47s-0.04-0.98-0.141-1.46    c-0.1-0.48-0.24-0.96-0.43-1.41c-0.19-0.45-0.42-0.89-0.69-1.29c-0.27-0.41-0.58-0.8-0.93-1.14c-0.35-0.35-0.729-0.66-1.14-0.94    c-0.41-0.27-0.84-0.5-1.301-0.69c-0.449-0.18-0.92-0.33-1.399-0.42c-0.97-0.2-1.96-0.2-2.93,0c-0.48,0.09-0.95,0.24-1.4,0.42    c-0.46,0.19-0.89,0.42-1.3,0.69c-0.41,0.28-0.79,0.59-1.141,0.94c-1.39,1.39-2.199,3.33-2.199,5.3s0.81,3.91,2.199,5.3    c0.351,0.35,0.73,0.66,1.141,0.94C306.953,117.279,307.383,117.509,307.843,117.698z"/>
	</g>
</g>















</svg>
