<?xml version="1.0" encoding="iso-8859-1"?>
<!-- Generator: Adobe Illustrator 19.0.0, SVG Export Plug-In . SVG Version: 6.00 Build 0)  -->
<svg xmlns="http://www.w3.org/2000/svg" xmlns:xlink="http://www.w3.org/1999/xlink" version="1.1" id="Layer_1" x="0px" y="0px" viewBox="0 0 505 505" style="enable-background:new 0 0 505 505;" xml:space="preserve" width="512" height="512">
<g>
	<g>
		<rect x="204.443" y="204.443" style="fill:#FA3F68;" width="293.057" height="293.057"/>
		<rect x="106.995" y="106.995" style="fill:#FCB65F;" width="293.057" height="293.057"/>
		<rect x="7.5" y="7.5" style="fill:#E5E9EA;" width="293.057" height="293.057"/>
	</g>
	<g>
		<path d="M300.557,308.057c4.143,0,7.5-3.358,7.5-7.5V7.5c0-4.142-3.357-7.5-7.5-7.5H7.5C3.357,0,0,3.358,0,7.5v293.057    c0,4.142,3.357,7.5,7.5,7.5H300.557z M115.574,114.839h177.479v78.38H115.574V114.839z M115.574,293.057v-84.838h177.482v84.838    H115.574z M15,15h85.574v33.067c0,4.142,3.357,7.5,7.5,7.5s7.5-3.358,7.5-7.5V15h177.482v84.839H115.574v-26.77    c0-4.142-3.357-7.5-7.5-7.5s-7.5,3.358-7.5,7.5v34.251c0,0.006-0.001,0.013-0.001,0.019s0.001,0.013,0.001,0.019v93.341    c0,0.006-0.001,0.013-0.001,0.019s0.001,0.013,0.001,0.019v92.319H15V15z"/>
		<path d="M400.052,407.551c4.143,0,7.5-3.358,7.5-7.5V106.995c0-4.142-3.357-7.5-7.5-7.5h-77.549c-4.143,0-7.5,3.358-7.5,7.5    s3.357,7.5,7.5,7.5h70.049v177.482h-70.049c-4.143,0-7.5,3.358-7.5,7.5s3.357,7.5,7.5,7.5h70.049v85.574H261.023v-72.783    c0-4.142-3.357-7.5-7.5-7.5s-7.5,3.358-7.5,7.5v72.783H114.495v-71.782c0-4.142-3.357-7.5-7.5-7.5s-7.5,3.358-7.5,7.5v79.282    c0,4.142,3.357,7.5,7.5,7.5H400.052z"/>
		<path d="M497.5,196.943h-77.548c-4.143,0-7.5,3.358-7.5,7.5s3.357,7.5,7.5,7.5H490v59.264h-70.048c-4.143,0-7.5,3.358-7.5,7.5    s3.357,7.5,7.5,7.5H490v59.264h-70.048c-4.143,0-7.5,3.358-7.5,7.5s3.357,7.5,7.5,7.5H490v61.265h-41.443    c-4.143,0-7.5,3.358-7.5,7.5s3.357,7.5,7.5,7.5H490V490H211.943v-53.264h211.612c4.143,0,7.5-3.358,7.5-7.5s-3.357-7.5-7.5-7.5    H211.943v-2.019c0-4.142-3.357-7.5-7.5-7.5s-7.5,3.358-7.5,7.5V497.5c0,4.142,3.357,7.5,7.5,7.5H497.5c4.143,0,7.5-3.358,7.5-7.5    V204.443C505,200.301,501.643,196.943,497.5,196.943z"/>
	</g>
</g>















</svg>
