<?xml version="1.0" encoding="iso-8859-1"?>
<!-- Generator: Adobe Illustrator 19.0.0, SVG Export Plug-In . SVG Version: 6.00 Build 0)  -->
<svg xmlns="http://www.w3.org/2000/svg" xmlns:xlink="http://www.w3.org/1999/xlink" version="1.1" id="Layer_1" x="0px" y="0px" viewBox="0 0 504.488 504.488" style="enable-background:new 0 0 504.488 504.488;" xml:space="preserve" width="512" height="512">
<g>
	<g>
		<rect x="7.5" y="87.596" style="fill:#E5E9EA;" width="369.757" height="369.757"/>
		<polygon style="fill:#36A6CE;" points="333.165,131.688 333.165,131.687 221.364,131.687 163.393,131.687 51.592,131.687     51.592,189.658 51.592,189.658 51.592,222.785 109.563,222.785 109.563,189.658 163.393,189.658 163.393,355.29 127.592,355.29     127.592,413.261 163.393,413.261 221.364,413.261 257.164,413.261 257.164,355.29 221.364,355.29 221.364,189.658     275.194,189.658 275.194,222.785 333.165,222.785 333.165,131.688   "/>
		<polygon style="fill:#E5E9EA;" points="315.859,131.736 285.587,162.008 359.374,175.252 416.134,232.011 497.489,150.656     397.214,50.381   "/>
		<polygon style="fill:#53BCE9;" points="497.5,150.658 416.134,232.011 359.383,175.26 285.588,162.016 315.863,131.741     478.583,131.741   "/>
	</g>
	<g>
		<path d="M308.613,449.853H15V95.096h313.09c4.142,0,7.5-3.358,7.5-7.5s-3.358-7.5-7.5-7.5H7.5c-4.142,0-7.5,3.358-7.5,7.5v369.757    c0,4.142,3.358,7.5,7.5,7.5h301.113c4.142,0,7.5-3.358,7.5-7.5S312.755,449.853,308.613,449.853z"/>
		<path d="M377.257,219.009c-4.142,0-7.5,3.358-7.5,7.5v223.344h-36.142c-4.142,0-7.5,3.358-7.5,7.5s3.358,7.5,7.5,7.5h43.642    c4.142,0,7.5-3.358,7.5-7.5V226.509C384.757,222.367,381.399,219.009,377.257,219.009z"/>
		<path d="M275.194,182.158h-53.831c-4.142,0-7.5,3.358-7.5,7.5V355.29c0,4.142,3.358,7.5,7.5,7.5h28.301v42.971H135.092V362.79    h28.301c4.142,0,7.5-3.358,7.5-7.5v-73.781c0-4.142-3.358-7.5-7.5-7.5s-7.5,3.358-7.5,7.5v66.281h-28.301    c-4.142,0-7.5,3.358-7.5,7.5v57.971c0,4.142,3.358,7.5,7.5,7.5h129.572c4.142,0,7.5-3.358,7.5-7.5V355.29    c0-4.142-3.358-7.5-7.5-7.5h-28.301V197.158h38.831v25.626c0,4.142,3.358,7.5,7.5,7.5h57.971c4.142,0,7.5-3.358,7.5-7.5V192.01    c0-4.142-3.358-7.5-7.5-7.5s-7.5,3.358-7.5,7.5v23.274h-42.971v-25.626C282.694,185.516,279.336,182.158,275.194,182.158z"/>
		<path d="M290.995,131.687c0-4.142-3.358-7.5-7.5-7.5H51.592c-1.989,0-3.897,0.79-5.303,2.197    c-1.407,1.406-2.197,3.314-2.197,5.303l0,91.097c0,4.142,3.358,7.5,7.5,7.5h57.971c4.142,0,7.5-3.358,7.5-7.5v-25.626h38.83    v59.349c0,4.142,3.358,7.5,7.5,7.5s7.5-3.358,7.5-7.5v-66.849c0-4.142-3.358-7.5-7.5-7.5h-53.83c-4.142,0-7.5,3.358-7.5,7.5    v25.626H59.092l0-76.097h224.403C287.637,139.187,290.995,135.829,290.995,131.687z"/>
		<path d="M502.438,145.707l-17.148-17.148l-6.429-61.656c-1.228-11.767-8.917-21.533-20.067-25.486    c-11.149-3.954-23.273-1.213-31.639,7.153l-10.927,10.927l-14.063-14.063c-1.313-1.313-3.093-2.05-4.95-2.05    s-3.637,0.738-4.95,2.05L280.638,157.058c-1.843,1.843-2.509,4.558-1.729,7.044s2.877,4.335,5.442,4.795l71.626,12.855    l55.207,55.207c1.367,1.367,3.158,2.05,4.95,2.05s3.583-0.684,4.95-2.05l81.354-81.354    C505.172,152.873,505.172,148.44,502.438,145.707z M437.053,58.468c4.579-4.58,10.958-6.021,17.062-3.857    c6.104,2.164,10.149,7.302,10.821,13.743l4.639,44.489l-43.448-43.449L437.053,58.468z M416.134,222.111l-51.81-51.81    c-1.011-1.011-2.306-1.688-3.713-1.94l-60.601-10.877l97.204-97.204l90.375,90.375L416.134,222.111z"/>
		<path d="M339.787,131.733c0,3.866,3.134,7,7,7h101.865c3.866,0,7-3.134,7-7s-3.134-7-7-7H346.787    C342.92,124.733,339.787,127.868,339.787,131.733z"/>
	</g>
</g>















</svg>
