<?xml version="1.0" encoding="iso-8859-1"?>
<!-- Generator: Adobe Illustrator 19.0.0, SVG Export Plug-In . SVG Version: 6.00 Build 0)  -->
<svg xmlns="http://www.w3.org/2000/svg" xmlns:xlink="http://www.w3.org/1999/xlink" version="1.1" id="Layer_1" x="0px" y="0px" viewBox="0 0 505 505" style="enable-background:new 0 0 505 505;" xml:space="preserve" width="512" height="512">
<g>
	<g>
		<rect x="7.497" y="7.501" style="fill:#53BCE9;" width="205.269" height="205.269"/>
		<rect x="7.497" y="292.232" style="fill:#47C97F;" width="205.269" height="205.269"/>
		<rect x="292.228" y="7.501" style="fill:#FCB65F;" width="205.269" height="205.269"/>
		<rect x="292.228" y="292.232" style="fill:#FA3F68;" width="205.269" height="205.269"/>
	</g>
	<g>
		<path d="M7.5,220.27h74.07c4.142,0,7.5-3.358,7.5-7.5s-3.358-7.5-7.5-7.5H15v-89.095c0-4.142-3.358-7.5-7.5-7.5    s-7.5,3.358-7.5,7.5v96.595C0,216.912,3.358,220.27,7.5,220.27z"/>
		<path d="M7.5,98.674c4.142,0,7.5-3.358,7.5-7.5V15h190.27v190.27H130.5c-4.142,0-7.5,3.358-7.5,7.5s3.358,7.5,7.5,7.5h82.27    c4.142,0,7.5-3.358,7.5-7.5V7.5c0-4.142-3.358-7.5-7.5-7.5H7.5C3.358,0,0,3.358,0,7.5v83.674C0,95.316,3.358,98.674,7.5,98.674z"/>
		<path d="M212.77,416.74c-4.142,0-7.5,3.358-7.5,7.5V490H15V299.73h67.04c4.142,0,7.5-3.358,7.5-7.5s-3.358-7.5-7.5-7.5H7.5    c-4.142,0-7.5,3.358-7.5,7.5V497.5c0,4.142,3.358,7.5,7.5,7.5h205.27c4.142,0,7.5-3.358,7.5-7.5v-73.26    C220.27,420.098,216.912,416.74,212.77,416.74z"/>
		<path d="M212.77,382.8c4.142,0,7.5-3.358,7.5-7.5v-83.07c0-4.142-3.358-7.5-7.5-7.5h-81.81c-4.142,0-7.5,3.358-7.5,7.5    s3.358,7.5,7.5,7.5h74.31v75.57C205.27,379.442,208.628,382.8,212.77,382.8z"/>
		<path d="M497.5,0H292.23c-4.142,0-7.5,3.358-7.5,7.5v205.27c0,4.142,3.358,7.5,7.5,7.5h82.8c4.142,0,7.5-3.358,7.5-7.5    s-3.358-7.5-7.5-7.5h-75.3V15H490v190.27h-66.03c-4.142,0-7.5,3.358-7.5,7.5s3.358,7.5,7.5,7.5h73.53c4.142,0,7.5-3.358,7.5-7.5    V7.5C505,3.358,501.642,0,497.5,0z"/>
		<path d="M292.23,382.83c4.142,0,7.5-3.358,7.5-7.5v-75.6h74.31c4.142,0,7.5-3.358,7.5-7.5s-3.358-7.5-7.5-7.5h-81.81    c-4.142,0-7.5,3.358-7.5,7.5v83.1C284.73,379.472,288.088,382.83,292.23,382.83z"/>
		<path d="M405.229,490H299.73v-65.79c0-4.142-3.358-7.5-7.5-7.5s-7.5,3.358-7.5,7.5v73.29c0,4.142,3.358,7.5,7.5,7.5h112.999    c4.142,0,7.5-3.358,7.5-7.5S409.371,490,405.229,490z"/>
		<path d="M497.5,284.73h-74.54c-4.142,0-7.5,3.358-7.5,7.5s3.358,7.5,7.5,7.5H490V490h-59.77c-4.142,0-7.5,3.358-7.5,7.5    s3.358,7.5,7.5,7.5h67.27c4.142,0,7.5-3.358,7.5-7.5V292.23C505,288.088,501.642,284.73,497.5,284.73z"/>
		<path d="M411.728,252.501c0-35.429-11.502-69.086-32.724-96.725l18.796,3.708c4.065,0.801,8.008-1.843,8.81-5.907    c0.801-4.064-1.843-8.008-5.907-8.81l-39.964-7.883c-2.25-0.444-4.581,0.166-6.325,1.657s-2.709,3.697-2.622,5.989l1.616,42.098    c0.155,4.042,3.48,7.212,7.49,7.212c0.097,0,0.195-0.002,0.292-0.005c4.139-0.159,7.366-3.643,7.207-7.782l-0.786-20.476    c18.887,24.905,29.116,55.126,29.116,86.924c0,38.526-15.002,74.745-42.244,101.987s-63.461,42.245-101.987,42.245    c-38.525,0-74.745-15.003-101.987-42.245c-56.235-56.235-56.235-147.738,0-203.974c2.929-2.929,2.929-7.678,0-10.606    c-2.929-2.929-7.678-2.929-10.606,0c-62.084,62.084-62.084,163.103,0,225.187c30.075,30.075,70.061,46.638,112.593,46.638    s82.519-16.563,112.593-46.638C395.165,335.02,411.728,295.033,411.728,252.501z"/>
	</g>
</g>















</svg>
