<?xml version="1.0" encoding="iso-8859-1"?>
<!-- Generator: Adobe Illustrator 19.0.0, SVG Export Plug-In . SVG Version: 6.00 Build 0)  -->
<svg version="1.1" id="Layer_1" xmlns="http://www.w3.org/2000/svg" xmlns:xlink="http://www.w3.org/1999/xlink" x="0px" y="0px"
	 viewBox="0 0 512 512" style="enable-background:new 0 0 512 512;" xml:space="preserve">
<path style="fill:#FFD248;" d="M364.153,264.89c5.67-16.727,8.748-34.638,8.748-53.284c0-68.413-41.469-127.118-100.624-152.416
	c19.995-8.559,41.99-13.318,65.11-13.318c91.533,0,165.734,74.202,165.734,165.734c0,37.515-12.454,72.118-33.478,99.89
	c-17.852-28.033-49.211-46.619-84.903-46.619c-7.422,0-14.62,0.852-21.581,2.379c-0.189-0.663-0.379-1.326-0.58-1.977
	L364.153,264.89z"/>
<path style="fill:#546A79;" d="M469.643,311.497c9.956,15.603,15.721,34.129,15.721,54.006c0,55.568-45.056,100.624-100.624,100.624
	c-46.133,0-201.343,0-248.601,0c-55.568,0-100.624-45.056-100.624-100.624S80.57,264.879,136.139,264.879
	c11.436,0,22.374,2.001,32.614,5.505c10.808-43.92,50.348-76.534,97.606-76.534c45.411,0,83.696,30.116,96.22,71.431
	c0.201,0.651,0.391,1.314,0.58,1.977c6.961-1.527,14.158-2.379,21.581-2.379C420.432,264.879,451.791,283.465,469.643,311.497z"/>
<path d="M512,211.607c0-96.281-78.332-174.613-174.613-174.613c-23.767,0-46.848,4.722-68.603,14.034l-19.077,8.166l19.08,8.16
	c57.854,24.742,95.237,81.365,95.237,144.253c0,9.682-0.909,19.265-2.648,28.679c-7.373-12.892-17.335-24.323-29.225-33.3
	c-19.076-14.402-41.827-22.015-65.792-22.015c-47.355,0-88.73,30.143-103.631,74.366C153.96,257.12,145.052,256,136.139,256
	c-60.38,0-109.503,49.122-109.503,109.503s49.122,109.503,109.503,109.503H384.74c60.38,0,109.503-49.122,109.503-109.503
	c0-18.848-4.825-37.216-13.976-53.51C501.044,282.532,512,247.957,512,211.607z M294.86,60.599
	c13.768-3.886,28.004-5.848,42.527-5.848c86.49,0,156.855,70.366,156.855,156.855c0,30.391-8.528,59.394-24.736,84.579
	C448.823,270.819,417.991,256,384.74,256c-2.905,0-5.829,0.135-8.763,0.378c3.849-14.551,5.803-29.561,5.803-44.771
	C381.78,148.787,348.271,91.582,294.86,60.599z M384.74,457.249H136.139c-50.589,0-91.746-41.156-91.746-91.746
	s41.157-91.746,91.746-91.746c9.987,0,19.992,1.692,29.74,5.026l9.178,3.141l2.318-9.418c10.111-41.084,46.703-69.776,88.985-69.776
	c20.073,0,39.123,6.372,55.094,18.43c15.449,11.664,27.037,28.248,32.646,46.749c0.175,0.562,0.337,1.134,0.526,1.793l2.294,8.016
	l8.143-1.786c6.575-1.442,13.195-2.172,19.679-2.172c31.523,0,60.463,15.892,77.414,42.51l0.004,0.006
	c9.372,14.69,14.328,31.713,14.328,49.23C476.486,416.092,435.329,457.249,384.74,457.249z"/>
<polygon points="221.965,170.173 239.723,170.173 239.723,149.457 260.439,149.457 260.439,131.699 239.723,131.699 
	239.723,110.983 221.965,110.983 221.965,131.699 201.249,131.699 201.249,149.457 221.965,149.457 "/>
<polygon points="115.422,217.526 133.179,217.526 133.179,196.809 153.896,196.809 153.896,179.052 133.179,179.052 
	133.179,158.335 115.422,158.335 115.422,179.052 94.705,179.052 94.705,196.809 115.422,196.809 "/>
<polygon points="139.098,110.983 156.855,110.983 156.855,90.266 177.572,90.266 177.572,72.509 156.855,72.509 156.855,51.792 
	139.098,51.792 139.098,72.509 118.382,72.509 118.382,90.266 139.098,90.266 "/>
<polygon points="44.393,146.497 62.15,146.497 62.15,125.78 82.867,125.78 82.867,108.023 62.15,108.023 62.15,87.306 
	44.393,87.306 44.393,108.023 23.676,108.023 23.676,125.78 44.393,125.78 "/>
<polygon points="38.474,253.04 38.474,232.324 59.191,232.324 59.191,214.566 38.474,214.566 38.474,193.85 20.717,193.85 
	20.717,214.566 0,214.566 0,232.324 20.717,232.324 20.717,253.04 "/>
<g>
</g>
<g>
</g>
<g>
</g>
<g>
</g>
<g>
</g>
<g>
</g>
<g>
</g>
<g>
</g>
<g>
</g>
<g>
</g>
<g>
</g>
<g>
</g>
<g>
</g>
<g>
</g>
<g>
</g>
</svg>
