<?xml version="1.0" encoding="iso-8859-1"?>
<!-- Generator: Adobe Illustrator 19.0.0, SVG Export Plug-In . SVG Version: 6.00 Build 0)  -->
<svg version="1.1" id="Layer_1" xmlns="http://www.w3.org/2000/svg" xmlns:xlink="http://www.w3.org/1999/xlink" x="0px" y="0px"
	 viewBox="0 0 512 512" style="enable-background:new 0 0 512 512;" xml:space="preserve">
<g>
	<path style="fill:#E0B394;" d="M133.8,212.698c-13.876-0.615-24.921-12.063-24.921-26.085c0-14.413,11.683-26.108,26.108-26.108
		c1.298,0,2.574,0.09,3.827,0.28"/>
	<path style="fill:#E0B394;" d="M369.719,212.698c13.876-0.615,24.933-12.063,24.933-26.085c0-14.413-11.694-26.108-26.119-26.108
		c-1.298,0-2.585,0.101-3.827,0.28"/>
</g>
<path style="fill:#9CA4AB;" d="M317.717,310.608c35.116,6.837,61.626,37.779,61.626,74.898v118.125H124.199V385.507
	c0-37.119,26.51-68.061,61.626-74.898L317.717,310.608L317.717,310.608z"/>
<path style="fill:#8A9196;" d="M218.278,310.608h-32.453c-35.116,6.837-61.626,37.779-61.626,74.898v118.125h32.453V385.507
	C156.651,348.387,183.162,317.446,218.278,310.608z"/>
<path style="fill:#E0B394;" d="M322.914,311.815c0.011,0.157,0.011,0.302,0.011,0.459c0,39.29-31.859,71.15-71.15,71.15
	c-39.301,0-71.15-31.859-71.15-71.15c0-0.157,0-0.302,0.011-0.459"/>
<path style="fill:#F7CBA4;" d="M213.997,331.078l-45.936-33.375c-24.275-17.636-37.407-46.801-34.521-76.668l7.968-82.45
	C146.996,81.8,194.716,38.469,251.767,38.469l0,0c57.051,0,104.77,43.331,110.258,100.117l7.968,82.45
	c2.886,29.866-10.245,59.03-34.521,76.668l-45.936,33.375C267.014,347.441,236.518,347.441,213.997,331.078z"/>
<path style="fill:#E0B394;" d="M162.127,237.284c-0.772,13.059,3.48,25.906,11.896,35.922l48.011,58.997
	c2.507,2.988,5.349,5.495,8.426,7.498c-5.774-2.014-11.325-4.901-16.461-8.628l-45.937-33.37
	c-24.272-17.636-37.399-46.799-34.512-76.666l7.956-82.452c5.439-56.233,52.282-99.271,108.604-100.088
	c-34.691,0.839-73.973,33.538-76.021,68.363L162.127,237.284z"/>
<path style="fill:#666666;" d="M403.313,139.347c0,0-49.406-58.941-113.025-33.202c-31.736,12.836-53.715,11.84-70.131,4.655
	c-0.369-0.179-0.75-0.347-1.13-0.526c-0.358-0.157-0.705-0.325-1.052-0.492c-3.335-1.611-6.435-3.491-9.333-5.551
	c-0.034,0.101-0.078,0.201-0.123,0.302c-12.533,32.173-67.188,35.855-67.188,35.855s-24.496-39.089-11.067-69.303
	c10.642-23.959,38.876-49.317,86.928-58.795c12.556-2.484,26.466-3.872,41.763-3.872C332.813,8.418,403.313,57.656,403.313,139.347z
	"/>
<path style="fill:#4D4D4D;" d="M217.192,12.289c0,0-57.307,60.071-8.673,92.244c-12.533,32.173-67.188,35.855-67.188,35.855
	s-24.496-39.089-11.067-69.303C140.906,47.126,169.14,21.768,217.192,12.289z"/>
<g>
	<rect x="329.899" y="448.797" style="fill:#F7CBA4;" width="49.44" height="54.831"/>
	<rect x="124.194" y="448.797" style="fill:#F7CBA4;" width="49.429" height="54.831"/>
</g>
<rect x="124.194" y="448.797" style="fill:#E0B394;" width="32.453" height="54.831"/>
<path d="M350.453,26.632c-3.873-2.544-9.077-1.467-11.622,2.407c-2.545,3.874-1.467,9.078,2.407,11.622
	c28.463,18.695,46.393,45.76,51.831,77.593c-5.103-4.083-11.275-8.463-18.365-12.486c-28.876-16.38-59.188-18.949-87.658-7.429
	c-31.412,12.707-54.81,12.396-73.645-0.979c-3.287-2.33-6.487-5.066-9.785-8.365c-3.279-3.278-8.593-3.279-11.869,0
	c-3.279,3.278-3.279,8.591-0.001,11.869c2.072,2.072,4.127,3.963,6.195,5.713c-10.554,16.118-37.26,22.899-52.077,24.869
	c-5.407-10.353-17.049-36.674-8.026-56.977c6.649-14.962,20.184-28.723,38.112-38.747c22.153-12.388,50.823-18.936,82.911-18.936
	c20.871,0,41.783,4.21,60.474,12.174c4.269,1.818,9.195-0.168,11.011-4.43c1.817-4.265-0.166-9.194-4.43-11.011
	C305.161,4.674,281.974,0,258.86,0c-78.37,0-121.825,34.947-136.361,67.651c-13.128,29.539,4.608,64.851,10.121,74.614l-0.964,9.977
	c-17.511,1.638-31.264,16.412-31.264,34.345c0,15.666,10.367,28.915,24.751,33.115l-0.048,0.504
	c-3.159,32.675,11.38,64.963,37.943,84.265l4.21,3.058c-30.669,13.055-51.536,43.507-51.536,77.952v118.125
	c0,4.635,3.757,8.393,8.393,8.393h255.144c4.636,0,8.393-3.758,8.393-8.393V385.481c0-16.669-4.841-32.805-14.002-46.661
	c-2.557-3.867-7.765-4.929-11.63-2.372c-3.867,2.556-4.929,7.763-2.374,11.629c7.34,11.102,11.219,24.036,11.219,37.404v54.899
	h-32.648v-38.607c0-4.635-3.757-8.393-8.393-8.393c-4.636,0-8.393,3.758-8.393,8.393v93.441H181.93v-93.441
	c0-4.635-3.757-8.393-8.393-8.393s-8.393,3.758-8.393,8.393v38.607h-32.647v-54.899c0-27.292,16.327-51.462,40.43-62.131
	c1.325,9.408,4.313,18.544,8.847,26.876c1.522,2.798,4.405,4.382,7.38,4.382c1.355,0,2.729-0.329,4.004-1.023
	c4.072-2.216,5.575-7.313,3.361-11.384c-3.072-5.645-5.244-11.76-6.458-18.102l18.911,13.738
	c12.77,9.285,27.732,13.928,42.701,13.927c14.964-0.001,29.932-4.642,42.704-13.924l18.923-13.746
	c-5.556,28.958-31.066,50.911-61.62,50.911c-14.375,0-27.897-4.727-39.104-13.669c-3.625-2.891-8.905-2.296-11.795,1.326
	c-2.892,3.624-2.297,8.904,1.326,11.795c14.011,11.178,31.616,17.334,49.574,17.334c40.083,0,73.32-29.809,78.749-68.42
	c3.641,1.615,7.154,3.54,10.502,5.805c1.441,0.975,3.076,1.441,4.694,1.441c2.692,0,5.338-1.294,6.961-3.692
	c2.596-3.839,1.589-9.058-2.25-11.654c-4.523-3.058-9.281-5.634-14.231-7.744l4.209-3.057
	c26.562-19.301,41.102-51.588,37.942-84.263l-0.049-0.509c14.381-4.205,24.742-17.451,24.742-33.111
	c0-17.925-13.748-32.697-31.256-34.343l-1.226-12.7c-0.445-4.614-4.537-7.992-9.161-7.547c-4.614,0.445-7.993,4.547-7.547,9.161
	l7.789,80.663c2.588,26.782-9.33,53.248-31.102,69.068l-45.938,33.371c-19.645,14.277-46.033,14.277-65.669-0.001l-45.937-33.37
	c-21.773-15.821-33.691-42.287-31.103-69.07l7.135-73.89c5.827-0.83,14.589-2.448,23.94-5.496
	c18.067-5.888,31.316-14.911,38.93-26.377c22.13,11.764,48.915,11.039,81.534-2.156c23.734-9.603,48.172-7.512,72.632,6.216
	c18.882,10.597,30.705,24.469,30.812,24.597c1.626,1.94,3.998,3.001,6.435,3.001c0.959,0,1.929-0.165,2.867-0.506
	c3.317-1.206,5.525-4.359,5.525-7.887C411.611,92.557,389.892,52.536,350.453,26.632z M338.207,457.166h32.648v38.048h-32.648
	V457.166z M165.144,457.166v38.048h-32.647v-38.048H165.144z M386.165,186.588c0,6.873-3.895,12.825-9.632,15.763l-3.164-32.766
	C380.75,171.726,386.165,178.531,386.165,186.588z M117.178,186.588c0-8.063,5.421-14.872,12.805-17.007l-3.166,32.778
	C121.077,199.423,117.178,193.467,117.178,186.588z"/>
<path d="M193.463,205.738v13.424c0,4.635,3.757,8.393,8.393,8.393c4.636,0,8.393-3.758,8.393-8.393v-13.424
	c0-4.635-3.757-8.393-8.393-8.393C197.219,197.345,193.463,201.103,193.463,205.738z"/>
<path d="M320.678,181.679c2.147,0,4.296-0.819,5.935-2.459c3.278-3.278,3.278-8.592-0.001-11.87
	c-6.71-6.711-15.633-10.406-25.123-10.406c-9.491,0-18.413,3.695-25.124,10.406c-3.278,3.278-3.278,8.592,0.001,11.87
	c3.277,3.278,8.591,3.277,11.869,0c3.54-3.541,8.246-5.49,13.254-5.49c5.007,0,9.715,1.949,13.255,5.49
	C316.382,180.859,318.53,181.679,320.678,181.679z"/>
<path d="M221.044,181.679c2.147,0,4.296-0.819,5.935-2.459c3.278-3.278,3.278-8.592-0.001-11.87
	c-13.853-13.852-36.393-13.852-50.246,0c-3.279,3.278-3.279,8.592-0.001,11.87c3.278,3.277,8.592,3.278,11.869,0
	c7.309-7.309,19.201-7.309,26.509,0C216.748,180.859,218.897,181.679,221.044,181.679z"/>
<path d="M293.097,205.738v13.424c0,4.635,3.757,8.393,8.393,8.393c4.636,0,8.393-3.758,8.393-8.393v-13.424
	c0-4.635-3.757-8.393-8.393-8.393C296.853,197.345,293.097,201.103,293.097,205.738z"/>
<path d="M251.671,296.723c10.462,0,20.297-4.074,27.696-11.471c3.278-3.278,3.278-8.592,0-11.87c-3.279-3.278-8.592-3.278-11.87,0
	c-4.227,4.228-9.848,6.555-15.826,6.555c-5.978,0-11.598-2.328-15.826-6.555c-3.278-3.277-8.591-3.278-11.87,0
	c-3.278,3.278-3.278,8.592,0,11.87C231.374,292.648,241.211,296.723,251.671,296.723z"/>
<path d="M243.279,248.822h16.786c4.636,0,8.393-3.758,8.393-8.393v-33.572c0-4.635-3.757-8.393-8.393-8.393
	c-4.636,0-8.393,3.758-8.393,8.393v25.179h-8.393c-4.636,0-8.393,3.758-8.393,8.393
	C234.886,245.064,238.643,248.822,243.279,248.822z"/>
<path d="M233.029,488.126h37.293c4.636,0,8.393-3.758,8.393-8.393v-7.429c8.319-3.338,14.206-11.486,14.206-20.983v-26.433
	c0-14.288-11.625-25.912-25.912-25.912h-30.668c-14.288,0-25.912,11.624-25.912,25.912v26.433c0,9.497,5.888,17.645,14.206,20.983
	v7.429C224.636,484.368,228.393,488.126,233.029,488.126z M227.216,424.887c0-5.032,4.094-9.126,9.126-9.126h30.668
	c5.032,0,9.126,4.094,9.126,9.126v26.433c0,3.206-2.608,5.814-5.813,5.814c-4.636,0-8.393,3.758-8.393,8.393v5.814h-20.507v-5.814
	c0-4.635-3.757-8.393-8.393-8.393c-3.205,0-5.813-2.609-5.813-5.814L227.216,424.887L227.216,424.887z"/>
<circle cx="262.868" cy="443.179" r="8.393"/>
<circle cx="240.486" cy="443.179" r="8.393"/>
<g>
</g>
<g>
</g>
<g>
</g>
<g>
</g>
<g>
</g>
<g>
</g>
<g>
</g>
<g>
</g>
<g>
</g>
<g>
</g>
<g>
</g>
<g>
</g>
<g>
</g>
<g>
</g>
<g>
</g>
</svg>
