<?xml version="1.0" encoding="iso-8859-1"?>
<!-- Generator: Adobe Illustrator 19.0.0, SVG Export Plug-In . SVG Version: 6.00 Build 0)  -->
<svg version="1.1" id="Capa_1" xmlns="http://www.w3.org/2000/svg" xmlns:xlink="http://www.w3.org/1999/xlink" x="0px" y="0px"
	 viewBox="0 0 512 512" style="enable-background:new 0 0 512 512;" xml:space="preserve">
<path style="fill:#FFFFFF;" d="M475.75,462c0,22.09-17.91,40-40,40h-360c-22.09,0-40-17.91-40-40c0-9.071,0-285.459,0-312h440
	C475.75,197.134,475.75,430.558,475.75,462z"/>
<g>
	<path style="fill:#FF5249;" d="M455.75,50c11.05,0,20,8.95,20,20v80h-440V70c0-11.05,8.95-20,20-20C552.568,50-47.859,50,455.75,50
		z"/>
	<rect x="355.75" y="336" style="fill:#FF5249;" width="60" height="60"/>
	<rect x="355.75" y="216" style="fill:#FF5249;" width="60" height="60"/>
	<rect x="225.75" y="336" style="fill:#FF5249;" width="60" height="60"/>
	<rect x="225.75" y="216" style="fill:#FF5249;" width="60" height="60"/>
	<rect x="95.75" y="336" style="fill:#FF5249;" width="60" height="60"/>
	<rect x="95.75" y="216" style="fill:#FF5249;" width="60" height="60"/>
</g>
<path d="M256,452c-5.52,0-10,4.48-10,10s4.48,10,10,10c5.52,0,10-4.48,10-10S261.52,452,256,452z"/>
<path d="M106,0C89.458,0,76,13.458,76,30v10H56c-16.542,0-30,13.458-30,30c0,50.805,0,328.015,0,392c0,27.57,22.43,50,50,50h360
	c27.57,0,50-22.43,50-50c0-5.824,0-369.024,0-392c0-16.542-13.458-30-30-30h-20V30c0-16.575-13.424-30-30-30
	c-16.542,0-30,13.458-30,30v10h-40V30c0-16.575-13.424-30-30-30c-16.542,0-30,13.458-30,30v10h-40V30c0-16.576-13.425-30-30-30
	c-16.542,0-30,13.458-30,30v10h-40V30C136,13.424,122.575,0,106,0z M96,30c0-5.514,4.486-10,10-10c5.521,0,10,4.478,10,10v10H96V30z
	 M436,492H76c-16.542,0-30-13.458-30-30v-0.027C54.363,468.265,64.753,472,76,472h140c5.523,0,10-4.477,10-10s-4.477-10-10-10H76
	c-16.542,0-30-13.458-30-30c0-15.365,0-247.235,0-262h420c0,32.151,0,239.357,0,262c0,16.542-13.458,30-30,30H296
	c-5.522,0-10,4.477-10,10s4.478,10,10,10h140c11.247,0,21.637-3.735,30-10.027V462C466,478.542,452.542,492,436,492z M396,30
	c0-5.514,4.486-10,10-10c5.52,0,10,4.478,10,10v10h-20V30z M296,30c0-5.514,4.486-10,10-10c5.52,0,10,4.478,10,10v10h-20V30z
	 M196,30c0-5.514,4.486-10,10-10c5.521,0,10,4.478,10,10v10h-20V30z M206,100c5.523,0,10-4.477,10-10s-4.477-10-10-10
	c-5.514,0-10-4.486-10-10V60h80v10c0,16.542,13.458,30,30,30c5.522,0,10-4.477,10-10s-4.478-10-10-10c-5.514,0-10-4.486-10-10V60h80
	v10c0,16.542,13.458,30,30,30c5.522,0,10-4.477,10-10s-4.478-10-10-10c-5.514,0-10-4.486-10-10V60h40h20c5.514,0,10,4.486,10,10v70
	H46V70c0-5.514,4.486-10,10-10h20v10c0,16.542,13.458,30,30,30c5.523,0,10-4.477,10-10s-4.477-10-10-10c-5.514,0-10-4.486-10-10V60
	h80v10C176,86.542,189.458,100,206,100z"/>
<path d="M156,206H96c-5.523,0-10,4.477-10,10v60c0,5.523,4.477,10,10,10h60c5.523,0,10-4.477,10-10v-60
	C166,210.477,161.523,206,156,206z M146,266h-40v-40h40V266z"/>
<path d="M226,286h60c5.522,0,10-4.477,10-10v-60c0-5.523-4.478-10-10-10h-60c-5.523,0-10,4.477-10,10v60
	C216,281.523,220.477,286,226,286z M236,226h40v40h-40V226z"/>
<path d="M356,286h60c5.522,0,10-4.477,10-10v-60c0-5.523-4.478-10-10-10h-60c-5.522,0-10,4.477-10,10v60
	C346,281.523,350.478,286,356,286z M366,226h40v40h-40V226z"/>
<path d="M156,326H96c-5.523,0-10,4.477-10,10v60c0,5.523,4.477,10,10,10h60c5.523,0,10-4.477,10-10v-60
	C166,330.477,161.523,326,156,326z M146,386h-40v-40h40V386z"/>
<path d="M296,396v-60c0-5.523-4.478-10-10-10h-60c-5.523,0-10,4.477-10,10v60c0,5.523,4.477,10,10,10h60
	C291.522,406,296,401.523,296,396z M276,386h-40v-40h40V386z"/>
<path d="M356,406h60c5.522,0,10-4.477,10-10v-60c0-5.523-4.478-10-10-10h-60c-5.522,0-10,4.477-10,10v60
	C346,401.523,350.478,406,356,406z M366,346h40v40h-40V346z"/>
<g>
</g>
<g>
</g>
<g>
</g>
<g>
</g>
<g>
</g>
<g>
</g>
<g>
</g>
<g>
</g>
<g>
</g>
<g>
</g>
<g>
</g>
<g>
</g>
<g>
</g>
<g>
</g>
<g>
</g>
</svg>
