<?xml version="1.0" encoding="iso-8859-1"?>
<!-- Generator: Adobe Illustrator 19.0.0, SVG Export Plug-In . SVG Version: 6.00 Build 0)  -->
<svg version="1.1" id="Layer_1" xmlns="http://www.w3.org/2000/svg" xmlns:xlink="http://www.w3.org/1999/xlink" x="0px" y="0px"
	 viewBox="0 0 512.001 512.001" style="enable-background:new 0 0 512.001 512.001;" xml:space="preserve">
<g>
	<path style="fill:#FFD248;" d="M418.667,409.894v2.741c-29.099,28.896-65.717,50.208-106.667,60.747
		c-1.707,0.437-3.445,0.864-5.173,1.269c9.909-12.117,15.84-27.605,15.84-44.469c0-6.752-0.949-13.28-2.72-19.467l2.72-0.821
		C356.565,409.894,394.656,409.894,418.667,409.894z"/>
	<path style="fill:#FFD248;" d="M253.333,11.441C382.933,11.441,488,116.507,488,246.107c0,14.571-1.323,28.832-3.872,42.667
		l-0.853,0.864c-12.725-12.683-30.272-20.512-49.664-20.512c-5.184,0-10.229,0.597-15.093,1.664
		c-8.309-29.611-35.445-51.349-67.712-51.349c-33.056,0-60.704,22.816-68.267,53.536c-7.168-2.453-14.827-3.851-22.816-3.851
		c-30.059,0-55.712,18.837-65.803,45.355c-7.616-2.827-15.851-4.373-24.448-4.373c-33.056,0-60.704,22.816-68.267,53.536
		c-7.168-2.453-14.827-3.851-22.816-3.851c-9.717,0-18.976,1.963-27.403,5.525l-0.299-0.8
		c-20.352-34.752-32.021-75.221-32.021-118.411C18.667,116.507,123.733,11.441,253.333,11.441z"/>
</g>
<path style="fill:#485B69;" d="M483.275,289.638c12.8,12.747,20.725,30.379,20.725,49.877c0,38.869-31.509,70.379-70.389,70.379
	c-3.936,0-9.013,0-14.944,0c-24.011,0-62.101,0-96,0l-2.72,0.821c-8.448-29.408-35.541-50.923-67.669-50.923
	c-5.184,0-10.229,0.597-15.093,1.664c-6.091-21.717-22.315-39.2-43.264-46.976c10.091-26.517,35.744-45.355,65.803-45.355
	c7.989,0,15.648,1.397,22.816,3.851c7.563-30.72,35.211-53.536,68.267-53.536c32.267,0,59.403,21.739,67.712,51.349
	c4.864-1.067,9.909-1.664,15.093-1.664C453.003,269.126,470.549,276.955,483.275,289.638z"/>
<path style="fill:#546A79;" d="M306.827,474.651c-12.896,15.819-32.544,25.909-54.549,25.909c-32.267,0-140.832,0-173.888,0
	C39.509,500.561,8,469.051,8,430.182c0-29.163,17.728-54.176,42.987-64.864c8.427-3.563,17.685-5.525,27.403-5.525
	c7.989,0,15.648,1.397,22.816,3.851c7.563-30.72,35.211-53.536,68.267-53.536c8.597,0,16.832,1.547,24.448,4.373
	c20.949,7.776,37.173,25.259,43.264,46.976c4.864-1.067,9.909-1.664,15.093-1.664c32.128,0,59.221,21.515,67.669,50.923
	c1.771,6.187,2.72,12.715,2.72,19.467C322.667,447.046,316.736,462.534,306.827,474.651z"/>
<path d="M492.427,287.722c2.362-13.635,3.573-27.619,3.573-41.615c0-64.817-25.242-125.756-71.076-171.59
	S318.151,3.441,253.333,3.441S127.578,28.683,81.743,74.517S10.667,181.29,10.667,246.107c0,40.516,10.116,80.351,29.315,115.709
	C15.438,375.59,0,401.562,0,430.182c0,43.218,35.166,78.379,78.389,78.379h173.888c22.742,0,44.081-9.724,58.974-26.758
	c0.916-0.224,1.836-0.441,2.743-0.673c41.549-10.692,79.694-32.415,110.31-62.817l-0.415-0.418h9.722
	c43.223,0,78.389-35.161,78.389-78.379C512,320.237,505.074,302.042,492.427,287.722z M31.225,200.774h126.109v-16H35.104
	C61.919,89.493,149.596,19.441,253.333,19.441c49.303,0,94.973,15.833,132.212,42.667H274.667v16h130.669
	c45.829,41.504,74.665,101.446,74.665,168c0,9.687-0.627,19.365-1.841,28.909c-12.993-9.017-28.394-13.889-44.549-13.889
	c-3.202,0-6.436,0.207-9.673,0.617c-11.507-29.947-40.614-50.302-73.132-50.302c-33.337,0-62.535,20.879-73.636,51.689
	c-5.76-1.331-11.601-2.003-17.445-2.003c-29.794,0-57.124,17.238-70.231,43.581c-6.506-1.719-13.21-2.599-20.02-2.599
	c-33.337,0-62.535,20.879-73.636,51.689c-5.76-1.331-11.601-2.003-17.446-2.003c-8.117,0-16.043,1.229-23.657,3.637
	c-18.373-33.328-28.066-70.995-28.066-109.324C26.667,230.586,28.238,215.426,31.225,200.774z M252.277,492.561H78.389
	C43.987,492.561,16,464.578,16,430.182c0-25.133,14.956-47.701,38.101-57.495c7.681-3.247,15.853-4.894,24.288-4.894
	c6.79,0,13.596,1.151,20.225,3.42l8.27,2.83l2.089-8.486c6.878-27.937,31.756-47.449,60.499-47.449
	c7.45,0,14.739,1.303,21.665,3.873c18.639,6.918,32.974,22.483,38.345,41.636l2.039,7.271l7.377-1.618
	c4.473-0.98,8.974-1.478,13.379-1.478c27.679,0,52.341,18.556,59.978,45.124c1.6,5.589,2.412,11.398,2.412,17.265
	c0,14.346-4.983,28.339-14.039,39.414C288.729,484.19,271.105,492.561,252.277,492.561z M324.112,461.5
	c4.276-9.815,6.555-20.485,6.555-31.318c0-4.129-0.333-8.236-0.97-12.288h71.49C378.565,437.379,352.349,452.221,324.112,461.5z
	 M433.611,401.894H325.4c-11.563-29.817-40.69-50.101-73.122-50.101c-3.201,0-6.435,0.207-9.673,0.617
	c-7.001-18.225-20.642-33.262-38.06-42.012c10.693-20.166,32.001-33.271,55.178-33.271c6.79,0,13.596,1.151,20.225,3.42l8.27,2.83
	l2.089-8.486c6.878-27.937,31.755-47.449,60.499-47.449c27.813,0,52.491,18.715,60.011,45.511l2.039,7.27l7.376-1.618
	c4.473-0.98,8.974-1.478,13.379-1.478c16.623,0,32.255,6.455,44.019,18.18c11.846,11.797,18.37,27.496,18.37,44.209
	C496,373.911,468.013,401.894,433.611,401.894z"/>
<rect x="178.667" y="184.769" width="21.333" height="16"/>
<rect x="232" y="62.113" width="21.333" height="16"/>
<rect x="168" y="120.769" width="240" height="16"/>
<rect x="56" y="254.102" width="128" height="16"/>
<rect x="397.333" y="179.435" width="37.333" height="16"/>
<g>
</g>
<g>
</g>
<g>
</g>
<g>
</g>
<g>
</g>
<g>
</g>
<g>
</g>
<g>
</g>
<g>
</g>
<g>
</g>
<g>
</g>
<g>
</g>
<g>
</g>
<g>
</g>
<g>
</g>
</svg>
