<?xml version="1.0" encoding="iso-8859-1"?>
<!-- Generator: Adobe Illustrator 19.0.0, SVG Export Plug-In . SVG Version: 6.00 Build 0)  -->
<svg version="1.1" id="Capa_1" xmlns="http://www.w3.org/2000/svg" xmlns:xlink="http://www.w3.org/1999/xlink" x="0px" y="0px"
	 viewBox="0 0 512 512" style="enable-background:new 0 0 512 512;" xml:space="preserve">
<polygon style="fill:#E5E4D3;" points="373.306,72.677 373.306,504.5 149.04,504.5 123.783,479.252 53.626,409.086 53.626,72.677 
	"/>
<g>
	<path style="fill:#C1BFA4;" d="M166.932,400.707V504.5H149.04l-25.258-25.248l-70.157-70.166v-17.892H157.42
		C162.668,391.194,166.932,395.448,166.932,400.707z"/>
	<path style="fill:#C1BFA4;" d="M373.311,72.677v143.082c-2.45,0.158-4.918,0.236-7.407,0.236c-63.809,0-115.53-51.73-115.53-115.54
		c0-9.571,1.16-18.876,3.374-27.778C253.748,72.677,373.311,72.677,373.311,72.677z"/>
	<polygon style="fill:#C1BFA4;" points="345.768,72.677 345.768,480.124 124.662,480.124 149.038,504.5 373.311,504.5 
		373.311,72.677 	"/>
</g>
<rect x="101.33" y="167.58" style="fill:#2195F2;" width="224.27" height="32.579"/>
<path style="fill:#006FAD;" d="M325.604,167.58v32.579h-18.099c-14.056-8.243-26.205-19.378-35.648-32.579H325.604z"/>
<polygon style="fill:#E5E4D3;" points="53.623,409.083 149.038,504.497 149.038,409.083 "/>
<circle style="fill:#FEC007;" cx="365.91" cy="100.45" r="92.95"/>
<circle style="fill:#E5E4D3;" cx="382.22" cy="82.974" r="33.69"/>
<path d="M373.31,421.607c-4.143,0-7.5,3.358-7.5,7.5V497H156.538v-87.917c0-4.142-3.357-7.5-7.5-7.5H61.124V80.177h71.346
	c4.143,0,7.5-3.358,7.5-7.5s-3.357-7.5-7.5-7.5H53.624c-4.143,0-7.5,3.358-7.5,7.5v336.409c0,1.96,0.81,3.917,2.196,5.303
	l95.414,95.414c1.407,1.407,3.314,2.197,5.304,2.197H373.31c4.143,0,7.5-3.358,7.5-7.5v-75.393
	C380.81,424.965,377.453,421.607,373.31,421.607z M141.538,416.583v69.808l-69.809-69.808H141.538z"/>
<path d="M458.307,113.114c-4.054-0.889-8.045,1.675-8.932,5.721c-8.517,38.866-43.62,67.075-83.469,67.075
	c-47.119,0-85.454-38.335-85.454-85.455S318.788,15,365.907,15c43.996,0,80.542,32.955,85.008,76.655
	c0.421,4.12,4.086,7.123,8.224,6.698c4.12-0.421,7.119-4.103,6.698-8.224c-2.515-24.606-14.023-47.354-32.406-64.052
	C414.917,9.261,390.936,0,365.907,0c-42.983,0-79.741,27.139-94.055,65.18H162.013c-4.143,0-7.5,3.358-7.5,7.5s3.357,7.5,7.5,7.5
	H267.51c-1.348,6.551-2.057,13.331-2.057,20.275c0,22.307,7.313,42.937,19.661,59.625H101.333c-4.143,0-7.5,3.358-7.5,7.5v32.58
	c0,4.142,3.357,7.5,7.5,7.5h224.27c4.143,0,7.5-3.358,7.5-7.5v-4.755c10.257,3.554,21.261,5.494,32.71,5.504V399.56
	c0,4.142,3.357,7.5,7.5,7.5s7.5-3.358,7.5-7.5V199.769c17.696-2.667,34.52-10.014,48.477-21.378
	c17.575-14.313,29.913-34.323,34.738-56.344C464.915,118,462.353,114.001,458.307,113.114z M318.103,192.66h-209.27v-17.58h189.901
	c5.874,5.292,12.37,9.906,19.369,13.709V192.66z"/>
<path d="M314.538,150.654c1.465,1.464,3.385,2.197,5.304,2.197s3.839-0.732,5.304-2.197l33.743-33.743
	c6.999,4.815,15.161,7.234,23.329,7.234c10.549,0,21.097-4.015,29.126-12.045c0.001,0,0.001,0,0.001,0
	c16.059-16.06,16.059-42.191-0.001-58.251c-16.059-16.06-42.191-16.059-58.252,0c-14.247,14.248-15.843,36.418-4.81,52.455
	l-33.744,33.744C311.609,142.976,311.609,147.725,314.538,150.654z M363.698,64.455c5.107-5.106,11.813-7.658,18.521-7.658
	c6.706,0,13.414,2.553,18.519,7.658c10.212,10.211,10.212,26.827,0.001,37.039c-10.214,10.21-26.829,10.211-37.039,0
	C353.487,91.282,353.487,74.667,363.698,64.455z"/>
<path d="M325.603,225.778H101.331c-4.143,0-7.5,3.358-7.5,7.5s3.357,7.5,7.5,7.5h224.272c4.143,0,7.5-3.358,7.5-7.5
	S329.746,225.778,325.603,225.778z"/>
<path d="M325.603,258.824H101.331c-4.143,0-7.5,3.358-7.5,7.5s3.357,7.5,7.5,7.5h224.272c4.143,0,7.5-3.358,7.5-7.5
	S329.746,258.824,325.603,258.824z"/>
<path d="M325.603,291.871H101.331c-4.143,0-7.5,3.358-7.5,7.5s3.357,7.5,7.5,7.5h224.272c4.143,0,7.5-3.358,7.5-7.5
	S329.746,291.871,325.603,291.871z"/>
<path d="M325.603,324.917H101.331c-4.143,0-7.5,3.358-7.5,7.5s3.357,7.5,7.5,7.5h224.272c4.143,0,7.5-3.358,7.5-7.5
	S329.746,324.917,325.603,324.917z"/>
<g>
</g>
<g>
</g>
<g>
</g>
<g>
</g>
<g>
</g>
<g>
</g>
<g>
</g>
<g>
</g>
<g>
</g>
<g>
</g>
<g>
</g>
<g>
</g>
<g>
</g>
<g>
</g>
<g>
</g>
</svg>
