<?xml version="1.0" encoding="iso-8859-1"?>
<!-- Generator: Adobe Illustrator 19.0.0, SVG Export Plug-In . SVG Version: 6.00 Build 0)  -->
<svg version="1.1" id="Capa_1" xmlns="http://www.w3.org/2000/svg" xmlns:xlink="http://www.w3.org/1999/xlink" x="0px" y="0px"
	 viewBox="0 0 512 512" style="enable-background:new 0 0 512 512;" xml:space="preserve">
<polygon style="fill:#C1BFA4;" points="239.101,432.902 7.5,432.902 7.5,460.79 239.101,460.79 470.702,460.79 470.702,432.902 "/>
<polygon style="fill:#E5E4D3;" points="442.682,395.419 239.101,395.419 35.52,395.419 7.5,432.902 239.101,432.902 
	470.702,432.902 "/>
<rect x="35.522" y="133.27" style="fill:#FB4239;" width="407.16" height="262.14"/>
<g>
	<path style="fill:#C4000A;" d="M442.684,133.272V241.04c-8.329,2.119-17.049,3.235-26.029,3.235
		c-58.499,0-105.917-47.419-105.917-105.918c0-1.701,0.037-3.402,0.13-5.085L442.684,133.272L442.684,133.272z"/>
	<rect x="35.52" y="375.35" style="fill:#C4000A;" width="407.16" height="20.07"/>
</g>
<rect x="61.55" y="160.54" style="fill:#E5E4D3;" width="355.11" height="194.36"/>
<path style="fill:#C1BFA4;" d="M416.655,160.537v83.738c-50.886,0-93.396-35.882-103.584-83.738L416.655,160.537L416.655,160.537z"
	/>
<rect x="279.14" y="219.44" style="fill:#50B8FF;" width="100.37" height="100.37"/>
<path style="fill:#006FAD;" d="M379.508,219.436v18.136c-11.388-4.258-21.855-10.43-30.993-18.136H379.508z"/>
<polygon style="fill:#C1BFA4;" points="85.283,332.714 85.283,160.541 61.549,160.541 61.549,354.897 416.653,354.897 
	416.653,332.714 "/>
<rect x="61.55" y="160.54" style="fill:#50B8FF;" width="355.11" height="28.25"/>
<path style="fill:#006FAD;" d="M416.655,160.537v28.25h-93.164c-4.75-8.747-8.292-18.239-10.421-28.25H416.655z"/>
<circle style="fill:#E5E4D3;" cx="416.65" cy="138.36" r="87.85"/>
<path style="fill:#50B8FF;" d="M467.084,138.358c0,19.614-11.201,36.617-27.553,44.955c-6.87,3.505-14.641,5.475-22.878,5.475
	c-11.424,0-21.966-3.802-30.426-10.216c-3.449-2.612-6.553-5.661-9.231-9.064c-6.563-8.338-10.551-18.796-10.765-30.184
	c-0.01-0.325-0.01-0.642-0.01-0.967c0-13.805,5.55-26.317,14.539-35.427c9.147-9.268,21.845-15.004,35.892-15.004
	c19.54,0,36.487,11.118,44.862,27.367C465.076,122.211,467.084,130.048,467.084,138.358z"/>
<g>
	<path style="fill:#B9F268;" d="M467.084,138.358c0,19.614-11.201,36.617-27.553,44.955c-6.87,3.505-14.641,5.475-22.878,5.475
		c-3.29,0-6.516-0.316-9.63-0.92c-0.13-23.891,43.217-29.784,42.641-48.776c-0.614-20.432-21.994-8.999-33.01-24.188
		c-5.763-7.948,3.049-17.783,12.754-25.341c13.99,3.635,25.62,13.144,32.108,25.731
		C465.076,122.211,467.084,130.048,467.084,138.358z"/>
	<path style="fill:#B9F268;" d="M376.514,168.895c-6.275-8.236-10.077-18.462-10.281-29.57c-0.01-0.325-0.01-0.642-0.01-0.967
		c0-5.187,0.781-10.188,2.24-14.901c3.031,3.3,6.991,6.172,12.168,8.236C402.524,140.394,408.008,154.701,376.514,168.895z"/>
</g>
<rect x="99.89" y="219.44" style="fill:#FEC007;" width="37.649" height="37.649"/>
<rect x="99.89" y="282.15" style="fill:#B9F268;" width="37.649" height="37.649"/>
<path d="M257.693,382.848c4.143,0,7.5-3.358,7.5-7.5s-3.357-7.5-7.5-7.5h-37.184c-4.142,0-7.5,3.358-7.5,7.5s3.358,7.5,7.5,7.5
	H257.693z"/>
<path d="M512,138.358c0-47.927-35.806-88.592-83.287-94.589c-4.098-0.514-7.861,2.392-8.38,6.501
	c-0.52,4.109,2.391,7.862,6.501,8.381C466.835,63.704,497,97.971,497,138.358c0,44.284-36.013,80.315-80.291,80.345
	c-0.02,0-0.039-0.003-0.059-0.003c-0.019,0-0.038,0.003-0.057,0.003c-44.276-0.033-80.287-36.062-80.287-80.345
	c0-37.673,26.699-70.716,63.485-78.57c4.051-0.865,6.634-4.85,5.77-8.9c-0.865-4.052-4.858-6.629-8.9-5.769
	c-21.021,4.487-40.135,16.167-53.823,32.889c-11.213,13.697-18.351,30.312-20.686,47.763H246.44c-4.142,0-7.5,3.358-7.5,7.5
	s3.358,7.5,7.5,7.5h74.897c0.104,4.161,0.477,8.256,1.1,12.27H61.55c-4.142,0-7.5,3.358-7.5,7.5v28.25v166.11
	c0,4.142,3.358,7.5,7.5,7.5h263.09c4.143,0,7.5-3.358,7.5-7.5s-3.357-7.5-7.5-7.5H69.05v-151.11h271.93
	c4.427,5.768,9.492,11.022,15.097,15.645H279.14c-4.143,0-7.5,3.358-7.5,7.5v100.368c0,4.142,3.357,7.5,7.5,7.5h100.368
	c4.143,0,7.5-3.358,7.5-7.5v-90.823c7.057,2.314,14.472,3.83,22.142,4.43v113.99h-47.66c-4.143,0-7.5,3.358-7.5,7.5
	s3.357,7.5,7.5,7.5h55.16c4.143,0,7.5-3.358,7.5-7.5v-121.49c3.741-0.292,7.421-0.805,11.029-1.519v156.027H43.02V140.771h173.87
	c4.142,0,7.5-3.358,7.5-7.5s-3.358-7.5-7.5-7.5H35.52c-4.142,0-7.5,3.358-7.5,7.5v259.654L1.493,428.412
	C0.541,429.687,0,431.31,0,432.902v27.888c0,4.142,3.358,7.5,7.5,7.5H355c4.143,0,7.5-3.358,7.5-7.5s-3.357-7.5-7.5-7.5H15v-12.888
	h151.704h144.793h151.705v12.888h-78.824c-4.143,0-7.5,3.358-7.5,7.5s3.357,7.5,7.5,7.5h86.324c4.143,0,7.5-3.358,7.5-7.5v-27.888
	c0-1.592-0.539-3.216-1.493-4.49l-26.529-35.489V227.614C486.262,214.016,512,179.139,512,138.358z M69.05,181.291v-13.25h256.993
	c1.503,4.578,3.343,9.005,5.492,13.25H69.05z M372.009,312.304h-85.368v-85.368h85.368L372.009,312.304L372.009,312.304z
	 M188.615,425.402l4.826-3.742h91.32l4.826,3.742H188.615z M455.731,425.402H314.063l-22.14-17.168
	c-1.314-1.02-2.932-1.573-4.596-1.573h-96.455c-1.664,0-3.281,0.553-4.596,1.573l-22.14,17.168H22.471l16.805-22.481h399.649
	L455.731,425.402z"/>
<path d="M145.043,219.436c0-4.142-3.358-7.5-7.5-7.5H99.894c-4.142,0-7.5,3.358-7.5,7.5v37.648c0,4.142,3.358,7.5,7.5,7.5h37.649
	c4.142,0,7.5-3.358,7.5-7.5V219.436z M130.043,249.584h-22.649v-22.648h22.649V249.584z"/>
<path d="M250.023,211.936h-88.776c-4.142,0-7.5,3.358-7.5,7.5s3.358,7.5,7.5,7.5h88.776c4.142,0,7.5-3.358,7.5-7.5
	S254.166,211.936,250.023,211.936z"/>
<path d="M250.023,230.76h-88.776c-4.142,0-7.5,3.358-7.5,7.5s3.358,7.5,7.5,7.5h88.776c4.142,0,7.5-3.358,7.5-7.5
	S254.166,230.76,250.023,230.76z"/>
<path d="M250.023,249.584h-88.776c-4.142,0-7.5,3.358-7.5,7.5s3.358,7.5,7.5,7.5h88.776c4.142,0,7.5-3.358,7.5-7.5
	C257.523,252.942,254.166,249.584,250.023,249.584z"/>
<path d="M137.543,274.655H99.894c-4.142,0-7.5,3.358-7.5,7.5v37.649c0,4.142,3.358,7.5,7.5,7.5h37.649c4.142,0,7.5-3.358,7.5-7.5
	v-37.649C145.043,278.013,141.685,274.655,137.543,274.655z M130.043,312.304h-22.649v-22.649h22.649V312.304z"/>
<path d="M250.023,274.655h-88.776c-4.142,0-7.5,3.358-7.5,7.5s3.358,7.5,7.5,7.5h88.776c4.142,0,7.5-3.358,7.5-7.5
	S254.166,274.655,250.023,274.655z"/>
<path d="M250.023,293.48h-88.776c-4.142,0-7.5,3.358-7.5,7.5s3.358,7.5,7.5,7.5h88.776c4.142,0,7.5-3.358,7.5-7.5
	S254.166,293.48,250.023,293.48z"/>
<path d="M250.023,312.304h-88.776c-4.142,0-7.5,3.358-7.5,7.5s3.358,7.5,7.5,7.5h88.776c4.142,0,7.5-3.358,7.5-7.5
	S254.166,312.304,250.023,312.304z"/>
<path d="M361.386,120.977c-0.012,0.035-0.023,0.071-0.035,0.106c-0.016,0.052-0.035,0.103-0.051,0.155
	c-1.71,5.52-2.577,11.28-2.577,17.121c0,0.401,0.001,0.791,0.011,1.104c0.228,12.381,4.313,24.131,11.819,33.984
	c0.092,0.12,0.194,0.231,0.286,0.35c0.016,0.018,0.03,0.038,0.046,0.056c3.132,4.028,6.762,7.632,10.813,10.698
	c6.977,5.286,15.173,8.959,23.709,10.639c0.053,0.012,0.105,0.025,0.159,0.036c0.01,0.002,0.019,0.005,0.029,0.006
	c3.618,0.702,7.339,1.058,11.059,1.058c9.254,0,18.098-2.118,26.285-6.294c19.52-9.954,31.646-29.74,31.646-51.637
	c0-9.332-2.153-18.247-6.402-26.5c-7.554-14.653-20.999-25.425-36.87-29.549c-4.757-1.249-9.688-1.882-14.658-1.882
	C391.177,80.428,369.003,96.715,361.386,120.977z M379.144,159.253c-3.422-6.118-5.282-12.966-5.414-20.153
	c-0.008-0.25-0.007-0.492-0.007-0.742c0-0.529,0.01-1.057,0.029-1.584c1.319,0.69,2.688,1.322,4.109,1.888
	c10.387,4.128,13.198,8.201,13.234,9.777C391.135,150.203,388.503,154.216,379.144,159.253z M431.041,97.917
	c10.218,3.627,18.775,11.051,23.806,20.81c3.143,6.105,4.736,12.71,4.736,19.631c0,16.229-8.989,30.895-23.461,38.274
	c-6.058,3.09-12.608,4.657-19.47,4.657c-0.046,0-0.093-0.003-0.139-0.003c3.035-4.797,9.365-9.103,17.728-14.395
	c10.931-6.918,23.32-14.76,22.918-28.023c-0.518-17.244-12.779-19.924-20.894-21.698c-5.552-1.213-10.346-2.261-13.541-6.667
	C421.489,108.798,423.691,104.24,431.041,97.917z M412.583,95.624c-0.636,0.855-1.232,1.705-1.747,2.544
	c-6.211,10.131-2.825,17.593-0.254,21.14c6.552,9.034,15.759,11.046,22.481,12.516c8.053,1.76,8.942,2.133,9.104,7.497
	c0.143,4.711-8.037,9.889-15.947,14.895c-9.467,5.992-20.762,13.15-24.987,24.207c-3.733-1.442-7.279-3.405-10.48-5.831
	c-0.662-0.501-1.301-1.03-1.932-1.568c11.792-6.895,17.463-14.443,17.271-22.922c-0.149-6.61-4.207-16.032-22.683-23.375
	c-2.282-0.91-4.342-2.055-6.166-3.417C383.439,106.893,396.911,97.082,412.583,95.624z"/>
<g>
</g>
<g>
</g>
<g>
</g>
<g>
</g>
<g>
</g>
<g>
</g>
<g>
</g>
<g>
</g>
<g>
</g>
<g>
</g>
<g>
</g>
<g>
</g>
<g>
</g>
<g>
</g>
<g>
</g>
</svg>
