<?xml version="1.0" encoding="iso-8859-1"?>
<!-- Generator: Adobe Illustrator 19.0.0, SVG Export Plug-In . SVG Version: 6.00 Build 0)  -->
<svg version="1.1" id="Capa_1" xmlns="http://www.w3.org/2000/svg" xmlns:xlink="http://www.w3.org/1999/xlink" x="0px" y="0px"
	 viewBox="0 0 512.001 512.001" style="enable-background:new 0 0 512.001 512.001;" xml:space="preserve">
<path style="fill:#2195F2;" d="M272.113,496.62C223.402,472.37,53.84,302.808,29.599,254.106
	c-18.24-36.664-3.683-81.185,32.548-100.247l8.215-4.321l29.954-15.738l48.406,86.42l-18.701,7.754
	c-3.721,1.542-7.025,3.628-9.85,6.138c-13.135,11.567-16.264,31.883-5.261,46.986c6.231,8.557,121.644,123.971,130.202,130.202
	c15.102,11.003,35.419,7.873,46.985-5.261c2.511-2.825,4.597-6.129,6.138-9.849l7.753-18.702l86.42,48.406l-15.738,29.954
	l-4.32,8.216C353.298,500.302,308.768,514.851,272.113,496.62z"/>
<g>
	<path style="fill:#006FAD;" d="M148.724,220.219l-18.701,7.754c-3.721,1.542-7.025,3.628-9.85,6.138l-49.81-84.574l29.954-15.738
		L148.724,220.219z"/>
	<path style="fill:#006FAD;" d="M376.671,455.847l-84.574-49.81c2.511-2.825,4.597-6.129,6.138-9.849l7.753-18.702l86.42,48.406
		L376.671,455.847z"/>
</g>
<path style="fill:#FEC007;" d="M467.836,216.395c41.213-61.621,24.67-144.984-36.951-186.197s-144.984-24.67-186.197,36.95
	c-33.245,49.706-28.899,113.555,6.363,158.021l-3.604,79.299l71.913-33.612C373.922,286.468,434.592,266.102,467.836,216.395z"/>
<g>
	
		<rect x="69.116" y="143.637" transform="matrix(-0.5074 -0.8617 0.8617 -0.5074 58.0018 373.036)" style="fill:#80CEF9;" width="133.016" height="52.605"/>
	
		<rect x="289.757" y="364.283" transform="matrix(0.8617 0.5074 -0.5074 0.8617 247.4534 -126.7555)" style="fill:#80CEF9;" width="133.016" height="52.605"/>
</g>
<path d="M490.705,141.939c-4.128-0.226-7.676,2.932-7.908,7.067c-1.265,22.519-8.593,44.38-21.194,63.22
	c-30.734,45.952-87.067,66.617-140.179,51.421c-1.739-0.499-3.6-0.351-5.239,0.416l-60.683,28.363l3.041-66.917
	c0.082-1.807-0.492-3.583-1.616-5c-34.326-43.285-36.739-103.24-6.005-149.192c18.818-28.137,47.468-47.262,80.671-53.852
	c33.205-6.59,66.986,0.146,95.123,18.965c29.427,19.681,48.811,49.773,54.581,84.733c0.675,4.087,4.54,6.856,8.62,6.178
	c4.087-0.674,6.852-4.534,6.178-8.62c-6.358-38.528-28.607-73.066-61.041-94.758C403.586,2.919,365.808-4.614,328.673,2.754
	c-37.133,7.369-69.173,28.758-90.22,60.225c-17.019,25.447-25.238,55.015-23.766,85.506c1.397,28.934,11.323,56.222,28.746,79.102
	l-3.478,76.54c-0.119,2.622,1.141,5.115,3.323,6.574c1.254,0.839,2.708,1.266,4.17,1.266c1.081,0,2.165-0.233,3.175-0.706
	l69.41-32.442c27.8,7.364,56.811,6.118,84.085-3.64c28.743-10.284,52.932-29.169,69.951-54.617
	c14.091-21.069,22.287-45.523,23.702-70.717C498.003,145.711,494.84,142.172,490.705,141.939z"/>
<path d="M430.726,395.196l-114.62-67.495c-3.57-2.102-8.166-0.912-10.268,2.657l-26.693,45.33c-1.009,1.714-1.296,3.759-0.798,5.684
	c0.498,1.926,1.741,3.575,3.455,4.584l10.095,5.944l-0.591,1.422c-1.188,2.871-2.811,5.474-4.837,7.759
	c-9.503,10.784-25.385,12.571-36.943,4.157c-8.292-6.121-122.427-120.266-128.553-128.565c-8.424-11.554-6.638-27.434,4.177-36.956
	c2.254-1.999,4.858-3.618,7.749-4.814l1.413-0.587l5.943,10.092c1.398,2.375,3.9,3.696,6.469,3.695c1.293,0,2.604-0.334,3.799-1.038
	l45.331-26.693c1.714-1.009,2.957-2.658,3.455-4.584c0.499-1.926,0.211-3.971-0.798-5.684l-32.393-55.011
	c-2.102-3.569-6.697-4.759-10.268-2.657c-3.569,2.102-4.759,6.698-2.657,10.268l28.588,48.548l-32.406,19.082L89.49,128.639
	l32.406-19.082l16.31,27.698c2.103,3.569,6.699,4.76,10.268,2.657c3.569-2.102,4.759-6.698,2.657-10.268l-20.116-34.161
	c-2.102-3.569-6.698-4.758-10.268-2.657l-45.33,26.693c-3.569,2.102-4.759,6.698-2.657,10.268l4.506,7.651l-18.61,9.778
	c-19.277,10.145-33.604,27.135-40.34,47.842c-6.746,20.739-5.124,42.894,4.572,62.385c13.012,26.161,63.304,81.663,106.03,124.881
	c1.467,1.484,3.4,2.227,5.333,2.227c1.905,0,3.811-0.721,5.271-2.167c2.945-2.912,2.973-7.66,0.061-10.605
	C86.922,318.513,46.386,271.011,36.315,250.765c-16.269-32.707-3.114-73.204,29.32-90.272l19.249-10.113l41.748,70.897
	c-4.223,1.812-8.069,4.234-11.416,7.202c-16.647,14.658-19.383,39.176-6.367,57.027c6.749,9.273,122.579,125.112,131.847,131.857
	c7.566,5.508,16.326,8.191,25.026,8.191c11.832,0,23.549-4.965,31.983-14.538c2.999-3.38,5.426-7.23,7.231-11.437l70.889,41.743
	l-10.115,19.253c-17.054,32.444-57.54,45.604-90.251,29.332c-19.567-9.74-63.585-46.991-114.873-97.215
	c-2.959-2.898-7.707-2.848-10.605,0.111c-2.898,2.959-2.849,7.707,0.111,10.605c53.125,52.023,97.493,89.378,118.686,99.927
	c11.57,5.754,24.081,8.664,36.679,8.664c8.615,0,17.272-1.361,25.696-4.102c20.713-6.739,37.7-21.067,47.834-40.345l9.778-18.611
	l7.657,4.509c1.195,0.704,2.505,1.038,3.799,1.038c2.569,0,5.072-1.321,6.469-3.695l26.693-45.33
	c1.009-1.714,1.296-3.759,0.798-5.684C433.682,397.855,432.439,396.206,430.726,395.196z M397.571,436.721l-101.696-59.884
	l19.082-32.406l101.696,59.884L397.571,436.721z"/>
<path d="M261.731,146.643c0,52.125,42.407,94.533,94.533,94.533s94.533-42.407,94.533-94.533c0-7.301-0.837-14.578-2.487-21.626
	c-0.944-4.033-4.979-6.534-9.011-5.592c-4.033,0.944-6.536,4.979-5.592,9.011c1.388,5.929,2.092,12.056,2.092,18.207
	c0,43.855-35.679,79.534-79.534,79.534s-79.534-35.679-79.534-79.534s35.679-79.534,79.534-79.534
	c8.546,0,16.947,1.356,24.931,3.987l-15.998,3.661c-4.038,0.924-6.561,4.946-5.637,8.983c0.923,4.038,4.945,6.561,8.983,5.637
	l36.807-8.421c4.853-1.111,7.318-6.826,4.788-11.119l-18.954-32.153c-2.104-3.569-6.702-4.757-10.269-2.652
	c-3.568,2.104-4.756,6.7-2.652,10.269l6.627,11.242c-9.19-2.916-18.826-4.432-28.624-4.432
	C304.138,52.11,261.731,94.517,261.731,146.643z"/>
<path d="M311.912,171.328c-1.549,2.299-1.703,5.266-0.4,7.712c1.303,2.447,3.849,3.977,6.62,3.977h39.607
	c4.142,0,7.499-3.358,7.499-7.499s-3.358-7.499-7.499-7.499h-25.515l21.015-31.203c3.671-5.45,4.026-12.156,0.95-17.936
	c-3.174-5.963-9.443-9.668-16.363-9.668h-2.812c-13.444,0-24.381,10.546-24.381,23.51c0,4.142,3.358,7.499,7.499,7.499
	s7.499-3.358,7.499-7.499c0-4.694,4.209-8.511,9.382-8.511h2.812c2.051,0,2.909,1.313,3.124,1.716
	c0.452,0.849,0.401,1.694-0.149,2.512L311.912,171.328z"/>
<path d="M397.995,183.017c4.142,0,7.499-3.358,7.499-7.499v-27.642v-31.166c0-4.142-3.358-7.499-7.499-7.499
	s-7.499,3.358-7.499,7.499v23.667h-11.623v-23.667c0-4.142-3.358-7.499-7.499-7.499s-7.499,3.358-7.499,7.499v31.166
	c0,4.142,3.358,7.499,7.499,7.499h19.122v20.143C390.496,179.659,393.853,183.017,397.995,183.017z"/>
<g>
</g>
<g>
</g>
<g>
</g>
<g>
</g>
<g>
</g>
<g>
</g>
<g>
</g>
<g>
</g>
<g>
</g>
<g>
</g>
<g>
</g>
<g>
</g>
<g>
</g>
<g>
</g>
<g>
</g>
</svg>
