<?xml version="1.0" encoding="iso-8859-1"?>
<!-- Generator: Adobe Illustrator 19.0.0, SVG Export Plug-In . SVG Version: 6.00 Build 0)  -->
<svg version="1.1" id="Capa_1" xmlns="http://www.w3.org/2000/svg" xmlns:xlink="http://www.w3.org/1999/xlink" x="0px" y="0px"
	 viewBox="0 0 512 512" style="enable-background:new 0 0 512 512;" xml:space="preserve">
<circle style="fill:#FEC007;" cx="215.53" cy="326.76" r="177.736"/>
<path style="fill:#FE9700;" d="M121.789,326.764c0-83.691,57.849-153.859,135.738-172.731c-13.466-3.263-27.527-5.004-41.997-5.004
	c-98.161,0-177.735,79.575-177.735,177.735s79.574,177.735,177.735,177.735c14.469,0,28.531-1.742,41.997-5.004
	C179.638,480.622,121.789,410.455,121.789,326.764z"/>
<path style="fill:#50B8FF;" d="M455.889,176.001c33.257-49.725,19.907-116.997-29.819-150.254S309.075,5.84,275.817,55.565
	c-26.827,40.111-23.32,91.634,5.135,127.516l-2.907,63.991l58.031-27.123C380.104,232.547,429.062,216.113,455.889,176.001z"/>
<g>
	<circle style="fill:#E5E4D3;" cx="381.215" cy="104.1" r="36.083"/>
	<path style="fill:#E5E4D3;" d="M355.6,326.771c-18.054,35.924-73.931,62.11-140.07,62.11s-122.016-26.185-140.07-62.11
		c13.963-27.793,50.558-49.766,97.036-58.275c13.598-2.507,28.061-3.846,43.034-3.846c14.974,0,29.436,1.339,43.034,3.846
		C305.043,277.004,341.637,298.978,355.6,326.771z"/>
</g>
<path style="fill:#2195F2;" d="M274.195,308.352c0,32.406-26.27,58.664-58.664,58.664s-58.664-26.258-58.664-58.664
	c0-15.399,5.929-29.4,15.63-39.857c13.598-2.507,28.061-3.846,43.034-3.846c14.974,0,29.436,1.339,43.034,3.846
	C268.266,278.952,274.195,292.951,274.195,308.352z"/>
<path d="M312.974,466.355c-28.663,20.048-62.359,30.644-97.445,30.644c-93.867,0-170.234-76.366-170.234-170.234
	c0-16.057,2.238-31.96,6.653-47.267c1.148-3.979-1.147-8.138-5.128-9.285c-3.979-1.147-8.138,1.146-9.285,5.128
	c-4.805,16.659-7.241,33.96-7.241,51.424C30.294,428.904,113.39,512,215.529,512c38.177,0,74.847-11.532,106.043-33.351
	c3.394-2.374,4.221-7.052,1.847-10.446C321.046,464.808,316.37,463.981,312.974,466.355z"/>
<path d="M479.456,93.239c-6.022-30.345-23.501-56.527-49.215-73.727c-53.086-35.503-125.155-21.2-160.658,31.884
	c-6.529,9.763-11.522,20.419-14.837,31.672c-1.171,3.974,1.102,8.145,5.074,9.315c3.977,1.168,8.146-1.101,9.315-5.074
	c2.886-9.797,7.232-19.073,12.917-27.571c30.905-46.207,93.64-58.659,139.849-27.754c22.385,14.97,37.599,37.762,42.842,64.177
	c5.241,26.413-0.116,53.288-15.087,75.672c-19.964,29.851-53.509,46.278-88.145,44.723c-0.385-0.051-0.773-0.079-1.163-0.069
	c-7.4-0.418-14.841-1.639-22.206-3.746c-1.74-0.498-3.601-0.35-5.24,0.416l-46.8,21.874l2.345-51.607
	c0.082-1.808-0.491-3.584-1.616-5.001c-14.241-17.959-21.976-40.553-21.776-63.619c0.035-4.142-3.294-7.529-7.437-7.565
	c-0.021,0-0.044,0-0.065,0c-4.112,0-7.464,3.315-7.5,7.437c-0.09,10.47,1.267,20.849,3.925,30.857
	c-12.59-2.656-25.467-4.003-38.441-4.003c-35.16,0-69.375,9.897-98.946,28.622c-28.767,18.214-51.958,43.936-67.068,74.384
	c-1.842,3.71-0.326,8.212,3.384,10.053c1.071,0.532,2.208,0.784,3.328,0.784c2.759,0,5.414-1.529,6.725-4.168
	c28.981-58.396,87.444-94.673,152.577-94.673c15.039,0,29.93,1.986,44.327,5.856c3.578,8.171,8.078,15.942,13.472,23.107
	l-2.782,61.243c-0.119,2.622,1.141,5.116,3.322,6.576c1.255,0.839,2.709,1.266,4.171,1.266c1.08,0,2.164-0.233,3.175-0.705
	l55.537-25.958c6.547,1.704,13.132,2.803,19.7,3.349c19.182,28.228,29.303,61.167,29.303,95.504
	c0,46.024-18.085,89.146-50.923,121.422c-2.954,2.903-2.994,7.653-0.091,10.607c1.468,1.493,3.408,2.242,5.349,2.242
	c1.898,0,3.797-0.716,5.258-2.151c35.73-35.119,55.407-82.04,55.407-132.12c0-33.954-9.1-66.658-26.43-95.403
	c34.862-2.514,67.462-20.791,87.793-51.191C479.322,154.456,485.477,123.583,479.456,93.239z"/>
<path d="M309.11,176.208c1.465,1.464,3.385,2.196,5.304,2.196c1.919,0,3.839-0.732,5.304-2.196l36.451-36.451
	c7.485,5.262,16.262,7.906,25.046,7.906c11.159,0,22.319-4.247,30.816-12.743c16.992-16.993,16.992-44.641,0-61.633
	c-8.231-8.232-19.176-12.766-30.816-12.766c-11.642,0-22.586,4.533-30.817,12.765c-15.182,15.183-16.788,38.868-4.837,55.863
	L309.111,165.6C306.18,168.529,306.18,173.278,309.11,176.208z M361.007,83.893c5.397-5.397,12.574-8.371,20.209-8.371
	c7.634,0,14.81,2.973,20.208,8.372c11.144,11.143,11.144,29.274,0,40.417c-11.141,11.144-29.274,11.144-40.417,0
	C349.863,113.168,349.863,95.037,361.007,83.893z"/>
<path d="M362.301,330.139c1.064-2.119,1.065-4.616,0.001-6.736c-15.085-30.025-53.361-53.311-102.378-62.285
	c-14.289-2.634-29.227-3.97-44.395-3.97c-15.167,0-30.105,1.336-44.384,3.969c-49.026,8.976-87.303,32.261-102.388,62.286
	c-1.064,2.119-1.063,4.616,0.001,6.736c19.911,39.622,78.894,66.242,146.771,66.242S342.391,369.76,362.301,330.139z
	 M254.725,275.444c0.071,0.094,0.136,0.192,0.212,0.283c7.582,9.135,11.758,20.721,11.758,32.624
	c0,28.212-22.952,51.164-51.165,51.164c-28.212,0-51.164-22.952-51.164-51.164c0-12.06,4.267-23.721,12.012-32.914
	c12.63-2.173,25.783-3.288,39.152-3.288C228.91,272.149,242.076,273.266,254.725,275.444z M215.53,381.379
	c-59.328,0-112.557-22.282-131.532-54.607c11.993-20.351,38.36-37.374,71.724-46.717c-4.153,8.777-6.359,18.435-6.359,28.296
	c0,36.483,29.682,66.165,66.165,66.165s66.166-29.682,66.166-66.165c0-9.842-2.218-19.513-6.376-28.302
	c33.37,9.341,59.746,26.367,71.741,46.723C328.087,359.097,274.859,381.379,215.53,381.379z"/>
<path d="M90.346,368.705c-2.656-3.179-7.387-3.603-10.564-0.946c-3.179,2.655-3.603,7.387-0.946,10.564
	c21.246,25.427,63.369,42.216,109.933,43.813c0.087,0.004,0.175,0.005,0.262,0.005c4.022,0,7.353-3.19,7.491-7.244
	c0.143-4.14-3.099-7.611-7.239-7.753C146.851,405.689,108.942,390.959,90.346,368.705z"/>
<g>
</g>
<g>
</g>
<g>
</g>
<g>
</g>
<g>
</g>
<g>
</g>
<g>
</g>
<g>
</g>
<g>
</g>
<g>
</g>
<g>
</g>
<g>
</g>
<g>
</g>
<g>
</g>
<g>
</g>
</svg>
