<?xml version="1.0" encoding="iso-8859-1"?>
<!-- Generator: Adobe Illustrator 19.0.0, SVG Export Plug-In . SVG Version: 6.00 Build 0)  -->
<svg version="1.1" id="Capa_1" xmlns="http://www.w3.org/2000/svg" xmlns:xlink="http://www.w3.org/1999/xlink" x="0px" y="0px"
	 viewBox="0 0 512 512" style="enable-background:new 0 0 512 512;" xml:space="preserve">
<rect x="325.17" y="363.951" style="fill:#FEC007;" width="63.05" height="33.21"/>
<polygon style="fill:#F26200;" points="379.012,292.331 421.048,348.38 504.5,348.38 504.5,292.331 "/>
<polygon style="fill:#8B381E;" points="74.792,261.193 7.5,285.065 7.5,306.862 504.5,306.862 504.5,261.193 "/>
<path style="fill:#FEC007;" d="M504.498,261.193H74.791c0-118.657,96.197-214.854,214.854-214.854S504.498,142.535,504.498,261.193z
	"/>
<path style="fill:#FE9700;" d="M494.669,261.193H150.872c4.889-41.549,24.682-79.87,55.862-108.05
	c31.854-28.803,73.071-44.652,116.042-44.652s84.177,15.849,116.031,44.652C469.987,181.323,489.791,219.644,494.669,261.193z"/>
<path style="fill:#F26200;" d="M470.851,261.193c-8.023-74.692-71.253-132.856-148.076-132.856S182.721,186.5,174.699,261.193
	H470.851z"/>
<path style="fill:#E21717;" d="M405.998,239.396h-53.973c-8.312,0-15.05-6.738-15.05-15.05l0,0c0-8.312,6.738-15.05,15.05-15.05
	h53.973c8.312,0,15.05,6.738,15.05,15.05l0,0C421.048,232.658,414.31,239.396,405.998,239.396z"/>
<path d="M511.997,261.141c-0.013-59.373-23.14-115.189-65.126-157.176c-41.998-41.998-97.835-65.127-157.227-65.127
	c-87.421,0-167.069,51.545-202.913,131.316c-1.698,3.778-0.012,8.218,3.767,9.915c3.776,1.699,8.217,0.013,9.915-3.767
	c33.428-74.395,107.706-122.465,189.231-122.465c111.823,0,203.256,88.98,207.22,199.854h-19.426
	c-5.011-32.954-20.634-63.78-44.432-87.414c-25.417-25.242-58.973-41.101-94.486-44.652c-4.131-0.415-7.798,2.595-8.209,6.717
	c-0.412,4.121,2.595,7.797,6.717,8.209c63.331,6.334,114.756,54.993,125.223,117.141H183.3
	c10.49-62.342,62.094-111.023,125.65-117.187c4.123-0.399,7.141-4.065,6.741-8.188c-0.4-4.123-4.067-7.15-8.188-6.741
	c-71.147,6.898-128.754,61.966-139.392,132.116H82.425c0.593-16.595,3.15-33.003,7.627-48.881c1.124-3.987-1.197-8.13-5.184-9.254
	c-3.986-1.121-8.129,1.198-9.254,5.184c-5.045,17.896-7.811,36.416-8.253,55.129L4.992,277.997C2,279.059,0,281.89,0,285.065v21.797
	c0,4.143,3.357,7.5,7.5,7.5h106.06c4.143,0,7.5-3.357,7.5-7.5s-3.357-7.5-7.5-7.5H15v-9l61.084-21.67h98.615H470.85H497v23.641
	v7.029H143.107c-4.143,0-7.5,3.357-7.5,7.5s3.357,7.5,7.5,7.5h145.541l38.032,42.087h-1.513c-4.143,0-7.5,3.357-7.5,7.5v33.214
	c0,4.143,3.357,7.5,7.5,7.5H349.2v61c0,4.143,3.357,7.5,7.5,7.5s7.5-3.357,7.5-7.5v-61h24.023c4.143,0,7.5-3.357,7.5-7.5v-33.214
	c0-2.983-1.745-5.551-4.266-6.759l15.991-14.443l7.602,10.135c1.416,1.89,3.639,3.001,6,3.001h83.45c4.143,0,7.5-3.357,7.5-7.5
	v-41.521v-14.529v-31.141C512,261.175,511.998,261.159,511.997,261.141z M380.724,389.663h-48.056v-18.214h10.828
	c0.026,0,0.051,0.004,0.077,0.004c0.029,0,0.058-0.003,0.088-0.004h29.046c0.026,0,0.051,0.004,0.077,0.004
	c0.029,0,0.058-0.003,0.088-0.004h7.854v18.214H380.724z M369.899,356.449h-23.001l-38.032-42.087h77.294l12.251,16.335
	L369.899,356.449z M424.8,340.883l-10.215-13.62c-0.013-0.018-0.027-0.036-0.04-0.054l-9.635-12.847H497v26.521L424.8,340.883
	L424.8,340.883z"/>
<path d="M405.998,246.896c12.434,0,22.55-10.116,22.55-22.55c0-12.434-10.116-22.55-22.55-22.55h-53.973
	c-12.435,0-22.551,10.116-22.551,22.55c0,12.434,10.116,22.55,22.551,22.55H405.998z M344.475,224.346
	c0-4.163,3.388-7.55,7.551-7.55h53.973c4.163,0,7.55,3.387,7.55,7.55c0,4.163-3.387,7.55-7.55,7.55h-53.973
	C347.862,231.896,344.475,228.509,344.475,224.346z"/>
<g>
</g>
<g>
</g>
<g>
</g>
<g>
</g>
<g>
</g>
<g>
</g>
<g>
</g>
<g>
</g>
<g>
</g>
<g>
</g>
<g>
</g>
<g>
</g>
<g>
</g>
<g>
</g>
<g>
</g>
</svg>
