<?xml version="1.0" encoding="iso-8859-1"?>
<!-- Generator: Adobe Illustrator 19.0.0, SVG Export Plug-In . SVG Version: 6.00 Build 0)  -->
<svg version="1.1" id="Capa_1" xmlns="http://www.w3.org/2000/svg" xmlns:xlink="http://www.w3.org/1999/xlink" x="0px" y="0px"
	 viewBox="0 0 512 512" style="enable-background:new 0 0 512 512;" xml:space="preserve">
<rect x="218.237" y="81.463" transform="matrix(-0.7071 0.7071 -0.7071 -0.7071 716.4101 18.4881)" style="fill:#E5E4D3;" width="272.277" height="152.309"/>
<g>
	
		<rect x="230.921" y="112.068" transform="matrix(-0.7071 0.7071 -0.7071 -0.7071 685.8129 92.3722)" style="fill:#C1BFA4;" width="185.708" height="152.309"/>
	
		<rect x="382.423" y="66.955" transform="matrix(-0.7071 -0.7071 0.7071 -0.7071 615.5327 408.9509)" style="fill:#C1BFA4;" width="20.08" height="20.08"/>
	
		<rect x="424.952" y="109.495" transform="matrix(-0.7071 -0.7071 0.7071 -0.7071 658.0538 511.6453)" style="fill:#C1BFA4;" width="20.08" height="20.08"/>
</g>
<path style="fill:#FEC007;" d="M41.062,470.938L41.062,470.938c-44.749-44.749-44.749-117.301,0-162.049L282.948,67.004
	l162.049,162.049L203.111,470.938C158.363,515.687,85.811,515.687,41.062,470.938z"/>
<path style="fill:#FE9700;" d="M423.727,207.784L201.075,430.437c-44.749,44.749-117.3,44.749-162.049,0l0,0
	c-15.725-15.725-25.9-34.888-30.573-55.066c-4.322,33.962,6.528,69.486,32.61,95.568l0,0c44.749,44.748,117.3,44.749,162.049,0
	l241.885-241.885L423.727,207.784z"/>
<g>
	<circle style="fill:#2195F2;" cx="139" cy="366.63" r="19.477"/>
	<circle style="fill:#2195F2;" cx="265.94" cy="239.7" r="15.501"/>
	<circle style="fill:#2195F2;" cx="284.54" cy="298.55" r="15.501"/>
	<circle style="fill:#2195F2;" cx="199.14" cy="245.72" r="15.501"/>
</g>
<path d="M509.803,109.896l-45.57-45.57c-2.929-2.928-7.678-2.928-10.606,0c-2.929,2.93-2.929,7.678,0,10.607l40.267,40.267
	l-76.066,76.076l-97.094-97.094L396.8,18.106l35.937,35.938c2.929,2.928,7.678,2.928,10.606,0c2.929-2.93,2.929-7.678,0-10.607
	l-41.24-41.24C400.696,0.79,398.788,0,396.799,0c-1.989,0-3.897,0.79-5.304,2.197l-81.369,81.378L288.251,61.7
	c-2.929-2.928-7.678-2.928-10.606,0L163.619,175.726c-2.929,2.93-2.929,7.678,0,10.607c2.929,2.928,7.678,2.928,10.606,0
	L282.948,77.61L434.39,229.053l-34.722,34.722c-2.929,2.93-2.929,7.678,0,10.607c1.464,1.464,3.384,2.196,5.303,2.196
	s3.839-0.732,5.303-2.196l40.025-40.025c2.929-2.93,2.929-7.678,0-10.607l-21.867-21.867l81.37-81.379
	C512.732,117.574,512.731,112.826,509.803,109.896z"/>
<path d="M397.767,57.497c-2.929-2.928-7.678-2.928-10.606,0l-14.197,14.197c-2.929,2.93-2.929,7.678,0,10.606l14.197,14.198
	c1.407,1.407,3.314,2.197,5.304,2.197s3.897-0.79,5.303-2.197L411.966,82.3c1.407-1.406,2.197-3.313,2.197-5.303
	s-0.79-3.896-2.197-5.304L397.767,57.497z M392.463,80.59l-3.591-3.592l3.591-3.591l3.591,3.591L392.463,80.59z"/>
<path d="M429.699,139.038c1.464,1.464,3.384,2.196,5.303,2.196s3.839-0.732,5.303-2.196l14.197-14.197
	c2.929-2.93,2.929-7.678,0-10.606l-14.197-14.198c-1.407-1.407-3.314-2.197-5.304-2.197s-3.897,0.79-5.303,2.197L415.5,114.235
	c-1.407,1.406-2.197,3.313-2.197,5.303s0.79,3.896,2.197,5.304L429.699,139.038z M435.002,115.945l3.591,3.592l-3.591,3.591
	l-3.591-3.591L435.002,115.945z"/>
<path d="M378.775,284.668L197.808,465.635C177.582,485.861,150.69,497,122.087,497c-28.604,0-55.496-11.139-75.722-31.365
	C26.14,445.409,15,418.518,15,389.914s11.139-55.495,31.365-75.721l106.967-106.967c2.929-2.93,2.929-7.678,0-10.607
	c-2.929-2.928-7.678-2.928-10.606,0L35.759,303.586C12.7,326.646,0,357.304,0,389.914s12.7,63.269,35.759,86.328
	S89.477,512,122.087,512s63.269-12.699,86.328-35.758l180.967-180.967c2.929-2.93,2.929-7.678,0-10.607
	C386.453,281.74,381.704,281.74,378.775,284.668z"/>
<path d="M159.286,314.153l10.796,10.797l-18.062,18.062c-10.249-5.641-23.414-4.13-32.093,4.548
	c-5.095,5.095-7.901,11.869-7.901,19.075s2.806,13.98,7.901,19.074c5.095,5.096,11.87,7.902,19.076,7.902
	c7.206,0,13.98-2.807,19.075-7.901c0,0,0,0,0.001-0.001c5.095-5.095,7.901-11.869,7.901-19.074c0-4.631-1.164-9.08-3.345-13.024
	l47.954-47.954l12.489,12.489c7.238,7.231,16.741,10.846,26.243,10.846c9.026,0,18.047-3.27,25.122-9.793
	c3.177,1.549,6.631,2.346,10.093,2.346c5.891,0,11.781-2.242,16.265-6.726c8.968-8.969,8.968-23.561,0-32.529
	c-8.967-8.967-23.561-8.967-32.529,0c-7.089,7.09-8.551,17.685-4.432,26.247c-8.671,7.579-21.891,7.26-30.158-1l-12.486-12.486
	l34.686-34.686c3.166,1.537,6.606,2.328,10.055,2.328c5.891,0,11.781-2.242,16.265-6.726c8.968-8.969,8.968-23.562,0-32.53
	c-8.967-8.967-23.561-8.967-32.529,0c-7.11,7.11-8.56,17.746-4.398,26.321l-39.984,39.984c-0.002,0.002-0.003,0.003-0.005,0.005
	s-0.003,0.003-0.005,0.005l-24.592,24.592l-10.797-10.798c-4.952-4.952-4.952-13.01,0-17.962l19.197-19.198
	c3.166,1.537,6.606,2.328,10.054,2.328c5.891,0,11.781-2.242,16.265-6.726c8.968-8.969,8.968-23.561,0-32.529
	c-8.968-8.967-23.561-8.967-32.529,0c-7.11,7.11-8.56,17.746-4.397,26.321l-19.196,19.197
	C148.485,285.777,148.485,303.353,159.286,314.153z M278.879,292.896c1.56-1.561,3.609-2.34,5.658-2.34
	c2.049,0,4.098,0.779,5.658,2.34c3.12,3.119,3.12,8.195,0,11.314c-3.109,3.111-8.159,3.119-11.282,0.03
	c-0.021-0.021-0.042-0.042-0.063-0.063C275.761,301.057,275.77,296.005,278.879,292.896z M147.473,375.103L147.473,375.103
	c-2.263,2.263-5.27,3.509-8.469,3.509s-6.207-1.246-8.469-3.509c-2.262-2.262-3.508-5.269-3.508-8.468s1.246-6.207,3.508-8.469
	c2.335-2.335,5.401-3.502,8.469-3.502c3.067,0,6.134,1.167,8.469,3.502c2.262,2.262,3.508,5.27,3.508,8.469
	S149.735,372.841,147.473,375.103z M260.279,234.044c1.56-1.561,3.609-2.34,5.658-2.34c2.049,0,4.098,0.779,5.658,2.34
	c3.12,3.119,3.12,8.196,0,11.315c-3.109,3.111-8.16,3.119-11.283,0.03c-0.01-0.01-0.019-0.022-0.03-0.033s-0.022-0.019-0.033-0.03
	C257.162,242.205,257.17,237.153,260.279,234.044z M193.486,240.066c1.56-1.561,3.609-2.34,5.658-2.34
	c2.049,0,4.098,0.779,5.658,2.34c3.12,3.119,3.12,8.195,0,11.314c-3.101,3.103-8.132,3.119-11.257,0.053
	c-0.018-0.019-0.034-0.04-0.052-0.058c-0.019-0.019-0.04-0.034-0.059-0.053C190.37,248.199,190.385,243.167,193.486,240.066z"/>
<g>
</g>
<g>
</g>
<g>
</g>
<g>
</g>
<g>
</g>
<g>
</g>
<g>
</g>
<g>
</g>
<g>
</g>
<g>
</g>
<g>
</g>
<g>
</g>
<g>
</g>
<g>
</g>
<g>
</g>
</svg>
