<?xml version="1.0" encoding="iso-8859-1"?>
<!-- Generator: Adobe Illustrator 19.0.0, SVG Export Plug-In . SVG Version: 6.00 Build 0)  -->
<svg version="1.1" id="Capa_1" xmlns="http://www.w3.org/2000/svg" xmlns:xlink="http://www.w3.org/1999/xlink" x="0px" y="0px"
	 viewBox="0 0 512.002 512.002" style="enable-background:new 0 0 512.002 512.002;" xml:space="preserve">
<path style="fill:#FE9700;" d="M432.504,238.504v169.693c0,28.676-79.022,51.914-176.508,51.914c-9.477,0-18.774-0.217-27.845-0.642
	c-25.438-1.189-49.064-3.964-69.658-7.995c-15.404-3.002-29.1-6.702-40.588-10.94c-24.05-8.863-38.417-20.105-38.417-32.338V238.504
	H432.504z"/>
<path style="fill:#F26200;" d="M411,238.505v194.545c13.708-7.381,21.504-15.849,21.504-24.853V238.505H411z"/>
<path style="fill:#B9F268;" d="M432.504,225.291v32.631c0,28.666-79.022,51.914-176.508,51.914c-9.477,0-18.774-0.217-27.845-0.642
	c-84.251-3.927-148.663-25.391-148.663-51.272v-32.631H432.504z"/>
<path style="fill:#8BCC3F;" d="M411,225.291v57.479c13.708-7.381,21.504-15.847,21.504-24.849V225.29H411V225.291z"/>
<ellipse style="fill:#F9E8D4;" cx="255.999" cy="225.29" rx="176.509" ry="51.914"/>
<path style="fill:#D8AD8F;" d="M256.001,173.375c-9.475,0-18.774,0.222-27.845,0.645c84.251,3.927,148.663,25.385,148.663,51.269
	s-64.411,47.342-148.663,51.269c9.071,0.423,18.37,0.645,27.845,0.645c97.482,0,176.508-23.243,176.508-51.914
	S353.484,173.375,256.001,173.375z"/>
<g>
	<circle style="fill:#F26200;" cx="287.719" cy="212.07" r="13.215"/>
	<circle style="fill:#F26200;" cx="224.29" cy="212.07" r="13.215"/>
</g>
<path d="M390.526,183.763c-14.862-4.934-32.507-8.965-51.945-11.944L453.204,57.196c2.929-2.93,2.929-7.678,0-10.607
	c-2.93-2.928-7.678-2.928-10.607,0L319.848,169.338c-13.076-1.472-26.756-2.498-40.793-3.03c-4.147-0.181-7.621,3.072-7.778,7.21
	c-0.157,4.139,3.07,7.622,7.21,7.779c9.694,0.368,18.921,0.951,27.69,1.713l-10.124,10.124c-7.591-3.329-16.779-1.91-22.984,4.293
	c-3.912,3.913-6.067,9.115-6.067,14.647c0,5.533,2.155,10.735,6.067,14.648c4.039,4.038,9.343,6.057,14.647,6.057
	c5.304,0,10.609-2.02,14.647-6.057l0.001-0.001c6.203-6.204,7.622-15.39,4.294-22.98l18.694-18.694
	c65.28,8.275,99.657,27.005,99.657,40.244c0,18.544-64.296,44.41-169.009,44.41s-169.009-25.866-169.009-44.41
	c0-13.527,34.942-32.139,99.6-40.302l18.751,18.751c-3.327,7.59-1.909,16.776,4.295,22.98l0.001,0.001
	c4.038,4.038,9.343,6.057,14.647,6.057c5.304,0,10.609-2.02,14.647-6.057c3.912-3.913,6.067-9.115,6.067-14.648
	c0-5.532-2.155-10.734-6.067-14.647c-6.205-6.203-15.392-7.622-22.983-4.293l-10.168-10.168c13.454-1.157,27.971-1.88,43.533-2.053
	c4.143-0.047,7.463-3.441,7.417-7.583c-0.046-4.143-3.46-7.433-7.583-7.417c-19.254,0.214-38.56,1.373-56.974,3.446L69.406,46.589
	c-2.93-2.928-7.678-2.928-10.607,0c-2.929,2.93-2.929,7.678,0,10.607l114.64,114.64c-57.063,8.719-101.446,26.859-101.446,53.455
	v13.21v19.42v150.279c0,10.676,7.515,26.173,43.319,39.378c11.925,4.39,25.969,8.18,41.741,11.263
	c21.454,4.196,45.258,6.929,70.752,8.121c9.296,0.431,18.782,0.648,28.196,0.648c18.591,0,36.959-0.843,54.593-2.504
	c4.124-0.389,7.152-4.046,6.764-8.17s-4.04-7.154-8.17-6.764c-14.796,1.394-30.131,2.192-45.687,2.387V317.279
	c36.552-0.452,71.728-4.204,100.859-10.719v134.934c-7.886,1.842-16.569,3.542-26.09,5.046c-4.092,0.646-6.885,4.487-6.238,8.578
	c0.584,3.695,3.772,6.331,7.399,6.331c0.389,0,0.782-0.03,1.179-0.093c8.455-1.335,20.083-3.465,32.409-6.597
	c0.487-0.076,0.957-0.197,1.407-0.362c30.898-8.009,65.572-22.319,65.572-46.2V258.588c0-0.01-0.001-0.019-0.001-0.029
	c0.005-0.215,0.011-0.431,0.011-0.641v-32.63C440.01,208.871,422.899,194.51,390.526,183.763z M291.757,216.115
	c-2.229,2.228-5.854,2.229-8.081,0c-1.08-1.079-1.675-2.515-1.675-4.041c0-1.525,0.595-2.961,1.675-4.04
	c1.113-1.114,2.577-1.671,4.041-1.671c1.459,0,2.917,0.555,4.03,1.662c0.004,0.004,0.006,0.008,0.01,0.011
	c0.003,0.003,0.006,0.005,0.009,0.008C293.983,210.274,293.982,213.89,291.757,216.115z M228.327,208.034
	c1.08,1.079,1.675,2.515,1.675,4.04c0,1.526-0.595,2.962-1.675,4.041c-2.227,2.229-5.853,2.229-8.081,0
	c-2.225-2.225-2.226-5.842-0.01-8.07c0.003-0.003,0.007-0.006,0.01-0.009c0.003-0.003,0.006-0.007,0.01-0.01
	C222.484,205.808,226.103,205.808,228.327,208.034z M129.076,269.192c34.006,10.001,79.082,15.509,126.925,15.509
	s92.919-5.508,126.925-15.509c18.382-5.406,32.488-11.83,42.084-19.075v7.803c0,0.11,0.002,0.227-0.003,0.343
	c-0.355,8.15-14.975,21.302-55.01,31.543c-31.497,8.076-71.98,12.524-113.996,12.524c-42.04,0-82.557-4.452-114.086-12.535
	c-40.539-10.399-54.923-23.67-54.923-31.875v-7.803C96.59,257.362,110.695,263.786,129.076,269.192z M159.932,444.12
	c-4.256-0.832-8.356-1.721-12.325-2.655c-0.103-19.38-0.093-38.266,0.033-57.537c0.026-4.142-3.309-7.521-7.451-7.549
	c-0.017,0-0.033,0-0.05,0c-4.119,0-7.472,3.326-7.499,7.451c-0.117,17.985-0.134,35.635-0.053,53.659
	c-4.255-1.266-8.302-2.593-12.089-3.987c-20.979-7.737-33.505-17.196-33.505-25.303V282.82c10.181,7.672,25.465,14.398,45.55,19.988
	c-0.02,15.463,0.013,31.858,0.099,49.928c0.02,4.13,3.374,7.464,7.499,7.464c0.013,0,0.024,0,0.037,0
	c4.142-0.02,7.483-3.394,7.464-7.536c-0.08-16.6-0.113-31.773-0.103-46.117c29.166,6.524,64.38,10.281,100.962,10.733v135.279
	c-6.7-0.084-13.4-0.277-19.999-0.583C203.741,450.82,180.67,448.177,159.932,444.12z M379.36,437.544V302.832
	c16.365-4.55,33.706-11.055,45.64-20.027V408.2C425,416.88,410.464,428.333,379.36,437.544z"/>
<path d="M90.324,177.448c1.436,2.219,3.846,3.428,6.305,3.428c1.396,0,2.808-0.39,4.066-1.203c3.479-2.25,4.474-6.894,2.225-10.371
	l-41.063-63.483c-2.25-3.478-6.895-4.471-10.371-2.225c-3.479,2.25-4.474,6.894-2.225,10.371L90.324,177.448z"/>
<path d="M80.282,197.396c1.59-3.825-0.223-8.215-4.048-9.804l-65.853-27.36c-3.828-1.592-8.215,0.223-9.804,4.048
	c-1.59,3.825,0.223,8.215,4.048,9.804l65.853,27.36c0.941,0.392,1.916,0.576,2.875,0.576
	C76.294,202.02,79.084,200.28,80.282,197.396z"/>
<path d="M450.147,105.818l-41.063,63.482c-2.249,3.478-1.254,8.121,2.225,10.371c1.259,0.814,2.67,1.203,4.066,1.203
	c2.459,0,4.869-1.209,6.305-3.428l41.063-63.482c2.249-3.478,1.254-8.121-2.225-10.371
	C457.043,101.347,452.398,102.34,450.147,105.818z"/>
<path d="M511.425,164.28c-1.589-3.825-5.976-5.636-9.804-4.048l-65.853,27.36c-3.825,1.589-5.638,5.979-4.048,9.804
	c1.198,2.884,3.988,4.624,6.929,4.624c0.959,0,1.934-0.186,2.875-0.576l65.853-27.36
	C511.202,172.495,513.015,168.105,511.425,164.28z"/>
<g>
</g>
<g>
</g>
<g>
</g>
<g>
</g>
<g>
</g>
<g>
</g>
<g>
</g>
<g>
</g>
<g>
</g>
<g>
</g>
<g>
</g>
<g>
</g>
<g>
</g>
<g>
</g>
<g>
</g>
</svg>
