<?xml version="1.0" encoding="iso-8859-1"?>
<!-- Generator: Adobe Illustrator 19.0.0, SVG Export Plug-In . SVG Version: 6.00 Build 0)  -->
<svg version="1.1" id="Capa_1" xmlns="http://www.w3.org/2000/svg" xmlns:xlink="http://www.w3.org/1999/xlink" x="0px" y="0px"
	 viewBox="0 0 512 512" style="enable-background:new 0 0 512 512;" xml:space="preserve">
<path style="fill:#FB4239;" d="M349.461,100.961C349.461,49.344,307.617,7.5,256,7.5s-93.461,41.844-93.461,93.461
	c0,41.637,27.23,76.908,64.851,88.994l28.61,47.29l28.61-47.29C322.231,177.869,349.461,142.598,349.461,100.961z"/>
<circle style="fill:#E5E4D3;" cx="270.42" cy="84.05" r="33.873"/>
<polygon style="fill:#006FAD;" points="135.836,464.445 15.672,504.5 15.672,263.261 135.836,223.207 "/>
<polygon style="fill:#80CEF9;" points="135.836,464.445 256,504.5 256,263.261 135.836,223.207 "/>
<polygon style="fill:#006FAD;" points="376.164,464.445 256,504.5 256,263.261 376.164,223.207 "/>
<polygon style="fill:#80CEF9;" points="376.164,464.445 496.328,504.5 496.328,263.261 376.164,223.207 "/>
<path style="fill:#E5E4D3;" d="M476.544,277.513v199.542l-84.036-28.009l-10.088-3.363c-2.027-0.682-4.144-1.018-6.26-1.018
	c-2.106,0-4.223,0.336-6.25,1.018l-113.914,37.968L152.18,449.047l-10.088-3.363c-2.027-0.682-4.144-1.018-6.26-1.018
	c-2.106,0-4.223,0.336-6.25,1.018l-94.134,31.371V277.513l100.384-33.458l16.349,5.449l97.565,32.518
	c2.027,0.682,4.144,1.019,6.25,1.019c2.117,0,4.233-0.336,6.26-1.019l113.904-37.968l16.349,5.449L476.544,277.513z"/>
<g>
	<path style="fill:#C1BFA4;" d="M135.831,244.056v200.61c-2.106,0-4.223,0.336-6.25,1.018l-94.134,31.371V277.513L135.831,244.056z"
		/>
	<path style="fill:#C1BFA4;" d="M376.16,244.056v200.61c-2.106,0-4.223,0.336-6.25,1.018l-113.914,37.968v-200.61
		c2.117,0,4.233-0.336,6.26-1.019L376.16,244.056z"/>
</g>
<path d="M162.473,94.309c4.091,0.622,7.917-2.199,8.536-6.297C177.293,46.389,213.831,15,256,15
	c47.399,0,85.961,38.562,85.961,85.961c0,37.498-23.97,70.393-59.645,81.854c-1.723,0.554-3.187,1.711-4.123,3.259L256,222.756
	l-22.193-36.683c-0.937-1.548-2.4-2.705-4.123-3.259c-30.759-9.881-53.161-35.786-58.467-67.607
	c-0.681-4.085-4.535-6.857-8.631-6.164c-4.086,0.681-6.846,4.545-6.164,8.631c3.054,18.317,11.136,35.437,23.373,49.507
	c11.501,13.225,26.183,23.211,42.598,29.004l27.19,44.942c1.358,2.246,3.792,3.618,6.417,3.618c2.625,0,5.059-1.372,6.417-3.618
	l27.189-44.94c40.405-14.229,67.354-52.141,67.354-95.226C356.961,45.291,311.67,0,256,0c-24.31,0-47.798,8.765-66.138,24.679
	c-18.152,15.751-30.115,37.448-33.686,61.094C155.559,89.869,158.378,93.69,162.473,94.309z"/>
<path d="M202.401,152.073c1.465,1.464,3.385,2.196,5.304,2.196s3.839-0.732,5.304-2.196l33.951-33.951
	c7.036,4.849,15.246,7.286,23.461,7.286c10.595,0,21.189-4.033,29.256-12.099c16.131-16.132,16.131-42.38,0-58.512
	c-16.133-16.131-42.379-16.131-58.512,0c-14.319,14.32-15.916,36.606-4.813,52.717l-33.951,33.951
	C199.473,144.396,199.473,149.144,202.401,152.073z M251.772,65.405c5.141-5.142,11.895-7.713,18.648-7.713
	s13.508,2.571,18.648,7.713c10.283,10.282,10.283,27.015,0,37.297c-10.281,10.283-27.016,10.283-37.297,0
	C241.489,92.42,241.489,75.688,251.772,65.405z"/>
<path d="M496.328,350.727c4.143,0,7.5-3.357,7.5-7.5v-79.965c0-3.229-2.065-6.095-5.128-7.115l-120.164-40.055
	c-1.512-0.504-3.232-0.504-4.744,0L256,255.356l-117.792-39.264c-1.512-0.504-3.232-0.504-4.744,0L13.3,256.146
	c-3.063,1.021-5.128,3.887-5.128,7.115V504.5c0,2.411,1.159,4.675,3.114,6.084c1.294,0.933,2.832,1.416,4.387,1.416
	c0.796,0,1.597-0.127,2.371-0.385l117.792-39.264l117.792,39.264c1.54,0.504,3.205,0.504,4.744,0l117.792-39.264l117.792,39.264
	c0.775,0.258,1.575,0.385,2.371,0.385c1.555,0,3.093-0.483,4.387-1.416c1.955-1.409,3.114-3.673,3.114-6.084V372.773
	c0-4.143-3.357-7.5-7.5-7.5s-7.5,3.357-7.5,7.5v121.321L383.664,459.04v-5.039l90.512,30.171c2.29,0.761,4.801,0.379,6.758-1.031
	c1.955-1.409,3.114-3.673,3.114-6.084V372.773c0-4.143-3.357-7.5-7.5-7.5s-7.5,3.357-7.5,7.5v93.877l-84.261-28.087
	c-0.37-0.123-0.748-0.217-1.123-0.324V254.462l85.384,28.461v60.304c0,4.143,3.357,7.5,7.5,7.5s7.5-3.357,7.5-7.5v-65.709
	c0-3.229-2.065-6.095-5.128-7.115l-95.256-31.752v-5.038l105.164,35.055v74.56C488.828,347.369,492.186,350.727,496.328,350.727z
	 M128.336,438.24c-0.376,0.107-0.756,0.201-1.128,0.325l-84.257,28.087V282.923l85.385-28.461V438.24z M143.336,254.462
	l104.037,34.68c0.372,0.124,0.751,0.218,1.127,0.325v183.778l-104.041-34.682c-0.37-0.123-0.748-0.217-1.123-0.323V254.462z
	 M263.5,289.467c0.376-0.107,0.755-0.201,1.127-0.325l104.037-34.68V438.24c-0.376,0.107-0.755,0.201-1.127,0.325L263.5,473.245
	V289.467z M368.664,238.651L263.5,273.705v-5.038l105.164-35.055V238.651z M248.5,273.705L143.336,238.65v-5.038L248.5,268.667
	V273.705z M23.172,268.667l105.164-35.055v5.038l-95.257,31.752c-3.063,1.021-5.128,3.887-5.128,7.115v199.539
	c0,2.411,1.159,4.675,3.114,6.084c1.956,1.409,4.469,1.793,6.758,1.031L128.336,454v5.04L23.172,494.095V268.667z M143.336,454.001
	L248.5,489.056v5.039L143.336,459.04V454.001z M263.5,489.056L368.664,454v5.04L263.5,494.095V489.056z"/>
<g>
</g>
<g>
</g>
<g>
</g>
<g>
</g>
<g>
</g>
<g>
</g>
<g>
</g>
<g>
</g>
<g>
</g>
<g>
</g>
<g>
</g>
<g>
</g>
<g>
</g>
<g>
</g>
<g>
</g>
</svg>
