<?xml version="1.0" encoding="iso-8859-1"?>
<!-- Generator: Adobe Illustrator 19.0.0, SVG Export Plug-In . SVG Version: 6.00 Build 0)  -->
<svg version="1.1" id="Capa_1" xmlns="http://www.w3.org/2000/svg" xmlns:xlink="http://www.w3.org/1999/xlink" x="0px" y="0px"
	 viewBox="0 0 512.002 512.002" style="enable-background:new 0 0 512.002 512.002;" xml:space="preserve">
<rect x="205.891" y="418.7" style="fill:#EFCDB1;" width="100.22" height="85.8"/>
<rect x="205.891" y="418.7" style="fill:#C19476;" width="100.22" height="42.9"/>
<path style="fill:#FB4239;" d="M365.506,126.407v314.078h-219.01V34.871c0-7.559,3.069-14.396,8.022-19.36
	c4.953-4.943,11.79-8.012,19.359-8.012c15.117,0,27.371,12.254,27.371,27.371v91.536L365.506,126.407L365.506,126.407z"/>
<g>
	<rect x="146.501" y="415.59" style="fill:#C4000A;" width="219.01" height="24.9"/>
	<path style="fill:#C4000A;" d="M292.362,215.872V149.08h-119.84c-9.676,0-18.658,3.054-26.023,8.264v95.536
		c7.365,5.21,16.348,8.264,26.023,8.264h74.555C272.048,261.144,292.362,240.83,292.362,215.872z"/>
	<path style="fill:#C4000A;" d="M340.29,197.393h-4.323c-6.301,0-12.293-1.322-17.722-3.683
		c-8.417,9.355-20.608,15.257-34.147,15.257h-1.436c-8.29,0-16.067-2.207-22.79-6.07c-8.277,7.481-19.236,12.049-31.247,12.049
		c-10.221,0-19.678-3.316-27.371-8.917v-79.626h164.252v63.134C358.345,194.493,349.658,197.393,340.29,197.393z"/>
</g>
<g>
	<path style="fill:#E21717;" d="M228.625,195.703L228.625,195.703c15.119,0,27.375-12.256,27.375-27.375v-60.739
		c0-15.119-12.256-27.375-27.375-27.375l0,0c-15.119,0-27.375,12.256-27.375,27.375v60.739
		C201.25,183.447,213.506,195.703,228.625,195.703z"/>
	<path style="fill:#E21717;" d="M282.656,189.715h1.438c14.722,0,26.656-11.934,26.656-26.656V106.87
		c0-14.722-11.934-26.656-26.656-26.656h-1.438C267.934,80.214,256,92.148,256,106.87v56.189
		C256,177.78,267.935,189.715,282.656,189.715z"/>
	<path style="fill:#E21717;" d="M335.959,178.144h4.334c13.922,0,25.208-11.286,25.208-25.208v-47.513
		c0-13.922-11.286-25.208-25.208-25.208h-4.334c-13.922,0-25.208,11.286-25.208,25.208v47.513
		C310.751,166.857,322.037,178.144,335.959,178.144z"/>
</g>
<path style="fill:#FF6C56;" d="M273.11,168.328v47.543c0,14.375-11.653,26.028-26.028,26.028h-74.556
	c-14.375,0-26.028-11.653-26.028-26.028v-21.516c0-14.375,11.653-26.028,26.028-26.028H273.11V168.328z"/>
<path d="M373.002,105.422c0-18.036-14.673-32.709-32.709-32.709h-4.334c-10.35,0-19.586,4.838-25.584,12.365
	c-6.271-7.551-15.725-12.368-26.284-12.368h-1.43c-10.883,0-20.586,5.122-26.846,13.074c-6.398-7.963-16.208-13.074-27.195-13.074
	c-7.2,0-14.069,2.182-19.87,6.219V34.87C208.751,15.643,193.109,0,173.881,0c-9.308,0-18.065,3.623-24.663,10.206
	c-6.595,6.595-10.227,15.354-10.227,24.664v279.36c0,4.143,3.358,7.5,7.5,7.5s7.5-3.357,7.5-7.5v-70.438
	c5.313,3.539,11.686,5.607,18.535,5.607h74.556c18.487,0,33.527-15.041,33.527-33.528v-18.729c0.681,0.04,1.364,0.068,2.052,0.068
	h1.43c13.521,0,25.231-7.894,30.764-19.314c5.701,4.828,13.066,7.748,21.104,7.748h4.334c6.527,0,12.608-1.929,17.718-5.236V388.25
	c-26.012,0.243-52.599,0.222-79.16-0.074c-0.028,0-0.057,0-0.085,0c-4.103,0-7.452,3.304-7.498,7.417
	c-0.046,4.142,3.274,7.536,7.417,7.583c14.598,0.162,29.206,0.243,43.725,0.243c11.95,0,23.831-0.058,35.602-0.168v29.741H153.991
	v-29.75c13.814,0.116,27.906,0.177,42.033,0.177c16.713,0,33.449-0.081,49.744-0.243c4.142-0.042,7.466-3.433,7.425-7.574
	c-0.041-4.143-3.396-7.463-7.574-7.426c-30.021,0.3-61.525,0.319-91.628,0.065v-44.47c0-4.143-3.358-7.5-7.5-7.5s-7.5,3.357-7.5,7.5
	v96.721c0,4.143,3.358,7.5,7.5,7.5h51.9v56.51c0,4.143,3.358,7.5,7.5,7.5h35c4.142,0,7.5-3.357,7.5-7.5s-3.358-7.5-7.5-7.5h-27.5
	v-49.01h85.22V497h-28.17c-4.143,0-7.5,3.357-7.5,7.5s3.357,7.5,7.5,7.5h35.67c4.143,0,7.5-3.357,7.5-7.5v-56.51h51.899
	c4.143,0,7.5-3.357,7.5-7.5V126.41c0-0.059-0.007-0.115-0.009-0.174v-20.814H373.002z M214.559,93.539
	c3.767-3.759,8.761-5.829,14.063-5.829c10.962,0,19.88,8.918,19.88,19.88v53.238h-39.75V126.41v-18.82
	C208.751,102.273,210.816,97.282,214.559,93.539z M153.991,34.87c0-5.304,2.072-10.296,5.827-14.052
	c3.761-3.752,8.756-5.818,14.063-5.818c10.957,0,19.87,8.914,19.87,19.87v72.72v18.82v34.418h-21.225
	c-6.849,0-13.222,2.068-18.535,5.607L153.991,34.87L153.991,34.87z M265.61,215.871c0,10.217-8.312,18.528-18.527,18.528h-74.556
	c-10.216,0-18.528-8.312-18.528-18.528v-21.516c0-10.216,8.312-18.527,18.528-18.527h28.686c0.013,0,0.026,0.002,0.039,0.002
	s0.026-0.002,0.039-0.002h54.673c0.013,0,0.026,0.002,0.039,0.002s0.026-0.002,0.039-0.002h0.374c0.047,0,0.093,0,0.14,0h9.056
	v40.043H265.61z M303.251,163.06c0,10.56-8.595,19.15-19.16,19.15h-1.43c-0.691,0-1.374-0.047-2.052-0.119v-13.763
	c0-4.143-3.357-7.5-7.5-7.5h-9.608V107.59v-0.72c0-10.565,8.595-19.16,19.16-19.16h1.43c10.565,0,19.16,8.595,19.16,19.16v46.064
	V163.06z M358.002,152.935c0,9.765-7.944,17.709-17.709,17.709h-4.334c-9.765,0-17.708-7.944-17.708-17.709V106.87v-1.448
	c0-9.765,7.943-17.709,17.708-17.709h4.334c9.765,0,17.709,7.944,17.709,17.709L358.002,152.935L358.002,152.935z"/>
<path d="M201.507,323.983c-4.142,0-7.5,3.357-7.5,7.5s3.358,7.5,7.5,7.5h1.132l-0.266,1.416c-0.763,4.071,1.918,7.99,5.989,8.753
	c0.467,0.088,0.932,0.13,1.391,0.13c3.538,0,6.688-2.515,7.363-6.119l0.784-4.18h19.064l-0.266,1.416
	c-0.763,4.071,1.918,7.99,5.989,8.753c0.467,0.088,0.932,0.13,1.391,0.13c3.538,0,6.688-2.515,7.363-6.119l0.784-4.18h4.202
	c4.143,0,7.5-3.357,7.5-7.5s-3.357-7.5-7.5-7.5h-1.389l3.623-19.325h4.974c4.143,0,7.5-3.357,7.5-7.5s-3.357-7.5-7.5-7.5h-2.162
	l0.266-1.416c0.764-4.071-1.918-7.99-5.989-8.753c-4.073-0.763-7.99,1.918-8.754,5.989l-0.784,4.18h-19.064l0.266-1.416
	c0.763-4.071-1.918-7.99-5.989-8.753c-4.074-0.763-7.99,1.918-8.754,5.989l-0.784,4.18h-3.172c-4.142,0-7.5,3.357-7.5,7.5
	s3.358,7.5,7.5,7.5h0.36l-3.624,19.325L201.507,323.983L201.507,323.983z M224.337,304.658h19.064l-3.623,19.325h-19.064
	L224.337,304.658z"/>
<path d="M300.942,257.076c-2.271-1.353-5.085-1.41-7.41-0.151l-12.357,6.693c-3.642,1.973-4.995,6.524-3.022,10.167
	c1.972,3.641,6.521,4.996,10.167,3.022l1.285-0.696v58.17h-4.857c-4.143,0-7.5,3.357-7.5,7.5s3.357,7.5,7.5,7.5h25.744
	c4.143,0,7.5-3.357,7.5-7.5s-3.357-7.5-7.5-7.5h-5.887V263.52C304.604,260.876,303.212,258.429,300.942,257.076z"/>
<path d="M486.763,285.889h-76.965c-4.143,0-7.5,3.357-7.5,7.5s3.357,7.5,7.5,7.5h76.965c4.143,0,7.5-3.357,7.5-7.5
	S490.906,285.889,486.763,285.889z"/>
<path d="M415.102,363.159c-2.93-2.928-7.678-2.928-10.607,0c-2.929,2.93-2.929,7.678,0,10.607l54.423,54.423
	c1.465,1.464,3.385,2.196,5.304,2.196s3.839-0.732,5.304-2.196c2.929-2.93,2.929-7.678,0-10.607L415.102,363.159z"/>
<path d="M409.798,220.307c1.919,0,3.839-0.732,5.304-2.196l54.423-54.422c2.929-2.93,2.929-7.678,0-10.607
	c-2.93-2.928-7.678-2.928-10.607,0l-54.423,54.422c-2.929,2.93-2.929,7.678,0,10.607
	C405.959,219.574,407.878,220.307,409.798,220.307z"/>
<path d="M109.704,287.882c0-4.143-3.358-7.5-7.5-7.5H25.239c-4.142,0-7.5,3.357-7.5,7.5s3.358,7.5,7.5,7.5h76.965
	C106.346,295.382,109.704,292.024,109.704,287.882z"/>
<path d="M53.085,153.081c-2.929-2.928-7.678-2.928-10.606,0c-2.929,2.93-2.929,7.678,0,10.607l54.422,54.422
	c1.464,1.464,3.384,2.196,5.303,2.196s3.839-0.732,5.303-2.196c2.929-2.93,2.929-7.678,0-10.607L53.085,153.081z"/>
<path d="M96.901,363.159l-54.422,54.423c-2.929,2.93-2.929,7.678,0,10.607c1.464,1.464,3.384,2.196,5.303,2.196
	s3.839-0.732,5.303-2.196l54.422-54.423c2.929-2.93,2.929-7.678,0-10.607C104.578,360.231,99.829,360.231,96.901,363.159z"/>
<g>
</g>
<g>
</g>
<g>
</g>
<g>
</g>
<g>
</g>
<g>
</g>
<g>
</g>
<g>
</g>
<g>
</g>
<g>
</g>
<g>
</g>
<g>
</g>
<g>
</g>
<g>
</g>
<g>
</g>
</svg>
