<?xml version="1.0" encoding="iso-8859-1"?>
<!-- Generator: Adobe Illustrator 19.0.0, SVG Export Plug-In . SVG Version: 6.00 Build 0)  -->
<svg version="1.1" id="Capa_1" xmlns="http://www.w3.org/2000/svg" xmlns:xlink="http://www.w3.org/1999/xlink" x="0px" y="0px"
	 viewBox="0 0 512 512" style="enable-background:new 0 0 512 512;" xml:space="preserve">
<polygon style="fill:#E25218;" points="244.772,478.978 185.764,478.978 197.934,425.02 232.601,425.02 "/>
<rect x="145.382" y="474.148" style="fill:#B72F00;" width="139.771" height="28.89"/>
<rect x="7.503" y="158.273" style="fill:#FEC007;" width="415.533" height="271.572"/>
<rect x="7.501" y="409.053" style="fill:#F26200;" width="415.533" height="20.793"/>
<rect x="34.063" y="186.525" style="fill:#E5E4D3;" width="362.409" height="201.346"/>
<polygon style="fill:#C1BFA4;" points="58.287,364.889 58.287,186.525 34.065,186.525 34.065,387.87 396.471,387.87 
	396.471,364.889 "/>
<path style="fill:#FB4239;" d="M488.39,157.685c29.362-43.902,17.575-103.293-26.326-132.656S358.771,7.453,329.408,51.354
	c-23.685,35.413-20.589,80.901,4.533,112.581l-2.567,56.497l51.234-23.947C421.482,207.607,464.705,193.098,488.39,157.685z"/>
<g>
	<circle style="fill:#D8AD8F;" cx="154.912" cy="123.12" r="18.729"/>
	<circle style="fill:#D8AD8F;" cx="275.622" cy="123.12" r="18.729"/>
	<polygon style="fill:#D8AD8F;" points="243.754,159.474 186.78,159.474 186.78,237.593 215.22,262.039 215.22,262.119 
		215.267,262.079 215.313,262.119 215.313,262.039 243.754,237.593 	"/>
</g>
<path style="fill:#E5E4D3;" d="M308.468,243.962l-64.714-20.752l-28.486,19.978l-28.486-19.978l-64.714,20.752
	c-30.985,9.931-52.011,38.753-52.011,71.296v32.091h145.167h0.093h145.167v-32.091C360.48,282.715,339.454,253.893,308.468,243.962z
	"/>
<path style="fill:#EFCDB1;" d="M275.625,72.764v48.032c0,25.116-13.288,48.358-34.929,61.098l-8.923,5.239
	c-10.22,5.995-22.878,5.988-33.091-0.022l-8.849-5.217c-21.642-12.74-34.922-35.982-34.922-61.098V72.764
	c0-24.138,18.179-44.038,41.591-46.743c1.793-0.215,3.616-0.319,5.469-0.319h26.591C254.555,25.703,275.625,46.773,275.625,72.764z"
	/>
<g>
	<path style="fill:#8B381E;" d="M196.504,26.021C185.35,71.178,154.912,80.42,154.912,80.42v-7.656
		C154.912,48.625,173.092,28.726,196.504,26.021z"/>
	<path style="fill:#8B381E;" d="M275.625,72.764v31.624c-70.866,0-79.121-78.365-79.121-78.365c1.793-0.215,3.616-0.319,5.469-0.319
		h26.591C254.555,25.703,275.625,46.773,275.625,72.764z"/>
</g>
<polygon style="fill:#B72F00;" points="235.594,243.221 215.732,243.221 214.894,243.221 195.032,243.221 195.032,267.795 
	204.558,285.279 195.032,347.348 214.894,347.348 215.732,347.348 235.594,347.348 226.067,285.279 235.594,267.795 "/>
<g>
	<polygon style="fill:#E5E4D3;" points="215.313,243.221 186.78,276.941 186.78,223.21 	"/>
	<polygon style="fill:#E5E4D3;" points="215.22,243.221 243.754,276.941 243.754,223.21 	"/>
</g>
<path style="fill:#2195F2;" d="M186.777,223.208v124.14H70.058v-32.093c0-32.545,21.019-61.36,52.006-71.298L186.777,223.208z"/>
<path style="fill:#006FAD;" d="M150.702,234.777l-22.002,9.181c-23.792,9.931-39.933,38.753-39.933,71.296v32.093H70.056v-32.093
	c0-32.543,21.022-61.355,52.004-71.296L150.702,234.777z"/>
<path style="fill:#2195F2;" d="M360.483,315.256v32.093H243.756V223.208l64.713,20.75
	C339.456,253.896,360.483,282.711,360.483,315.256z"/>
<path style="fill:#006FAD;" d="M360.479,315.253v32.093h-15.711v-32.093c0-32.543-16.141-61.365-39.933-71.296l-12.041-5.02
	l15.671,5.02C339.457,253.899,360.479,282.711,360.479,315.253z"/>
<path d="M234.242,416.558c4.143,0,7.501-3.357,7.501-7.501s-3.357-7.501-7.501-7.501h-37.948c-4.143,0-7.501,3.357-7.501,7.501
	s3.357,7.501,7.501,7.501H234.242z"/>
<path d="M466.233,18.794c-38.261-25.588-89.39-22.588-124.337,7.297c-3.148,2.692-3.519,7.428-0.826,10.575
	c2.69,3.147,7.426,3.517,10.575,0.826c29.859-25.535,73.552-28.097,106.249-6.229c40.394,27.016,51.277,81.859,24.262,122.251
	c-13.992,20.922-35.618,34.302-59.245,38.085c-0.633,0.01-1.244,0.102-1.829,0.26c-7.799,1.081-15.794,1.119-23.794,0.041
	c-0.018-0.002-0.036-0.006-0.055-0.008c-4.195-0.568-8.392-1.426-12.559-2.618c-1.741-0.498-3.601-0.349-5.239,0.416l-40.003,18.697
	l2.005-44.111c0.082-1.808-0.491-3.584-1.616-5.001c-22.971-28.966-25.353-69.561-5.927-101.013
	c2.177-3.524,1.084-8.147-2.439-10.323c-3.525-2.178-8.147-1.085-10.323,2.439c-18.976,30.724-20.156,68.897-4.4,100.392h-39.605
	c0.208-0.501,0.404-1.007,0.602-1.512c13.484-1.076,24.129-12.385,24.129-26.141c0-11.857-7.91-21.896-18.728-25.132V72.763
	c0-30.085-24.477-54.561-54.562-54.561h-26.591c-2.163,0-4.303,0.125-6.331,0.368c-27.496,3.177-48.232,26.475-48.232,54.192v25.221
	c-10.82,3.235-18.73,13.275-18.73,25.133c0,13.756,10.646,25.065,24.13,26.141c0.198,0.505,0.394,1.011,0.602,1.512H7.501
	c-4.143,0-7.501,3.357-7.501,7.501v271.582c0,4.143,3.357,7.501,7.501,7.501h60.735c4.143,0,7.501-3.357,7.501-7.501
	s-3.357-7.501-7.501-7.501H15.001V165.77h146.648c3.372,4.82,7.288,9.273,11.688,13.251H34.063c-4.143,0-7.501,3.357-7.501,7.501
	v201.346c0,4.143,3.357,7.501,7.501,7.501h362.409c4.143,0,7.501-3.357,7.501-7.501V207.574c1.701,0.084,3.401,0.139,5.097,0.139
	c2.162,0,4.317-0.071,6.464-0.206v214.844H97.778c-4.143,0-7.501,3.357-7.501,7.501s3.357,7.501,7.501,7.501h89.687l-6.608,29.294
	h-35.477c-4.143,0-7.501,3.357-7.501,7.501v28.891c0,4.143,3.357,7.501,7.501,7.501h139.776c4.143,0,7.501-3.357,7.501-7.501v-28.89
	c0-4.143-3.357-7.501-7.501-7.501h-35.478l-6.608-29.294h179.962c4.143,0,7.501-3.357,7.501-7.501V205.439
	c25.591-5.474,48.758-20.66,64.091-43.583C526.239,114.585,513.503,50.408,466.233,18.794z M325.918,165.771
	c0.138,0.187,0.267,0.379,0.407,0.565l-0.576,12.686h-68.555c4.4-3.979,8.318-8.431,11.69-13.251H325.918z M77.559,315.256
	c0-27.559,16.528-51.942,41.656-62.28c1.675-0.689,3.388-1.316,5.138-1.877l54.923-17.609v106.358H77.559V315.256z M162.412,120.796
	v-16.389c0-0.006,0.001-0.013,0.001-0.019s-0.001-0.013-0.001-0.019V85.368c7.677-3.807,22.033-13.249,32.618-33.828
	c10.693,30.075,33.861,57.01,73.095,60.059v9.197c0,22.357-11.968,43.292-31.228,54.629l-8.92,5.238
	c-7.864,4.612-17.632,4.607-25.486-0.015l-8.854-5.219C174.377,164.09,162.412,143.156,162.412,120.796z M218.655,286.42
	l8.205,53.425h-23.085l8.196-53.426c0.249-1.623-0.041-3.282-0.826-4.724l-7.266-13.348l11.389-13.459l11.448,13.529l-7.234,13.276
	C218.696,283.135,218.406,284.796,218.655,286.42z M236.251,237.635c0,0.013,0.002,0.026,0.002,0.039v18.791l-10-11.817
	L236.251,237.635z M194.282,256.465v-18.791c0-0.014,0.002-0.027,0.002-0.04l9.998,7.012L194.282,256.465z M194.279,282.088
	l2.48,4.557l-2.48,16.17V282.088z M233.867,286.646l2.389-4.384v19.941L233.867,286.646z M236.249,219.312l-20.983,14.715
	l-20.982-14.715v-25.287h1.419c6.07,3.383,12.801,5.094,19.542,5.094c6.739,0,13.473-1.711,19.546-5.094h1.458V219.312z
	 M286.853,123.118c0,3.698-1.805,6.975-4.571,9.023c0.551-3.731,0.844-7.521,0.844-11.345v-6.009
	C285.408,116.844,286.853,119.812,286.853,123.118z M268.125,72.763v23.785c-44.432-4.097-58.549-44.404-62.738-63.345h23.177
	C250.378,33.204,268.125,50.95,268.125,72.763z M185.211,36.913c-6.42,16.341-15.523,25.667-22.467,30.77
	C164.486,54.107,173.113,42.563,185.211,36.913z M143.682,123.118c0-3.308,1.446-6.278,3.729-8.334v6.011
	c0,3.826,0.293,7.616,0.844,11.347C145.488,130.096,143.682,126.818,143.682,123.118z M388.971,380.37H41.563V194.025h137.721v23.71
	l-59.511,19.082c-11.764,3.773-22.201,9.974-30.833,17.947c-16.48,15.223-26.383,36.907-26.383,60.493v32.092
	c0,4.143,3.357,7.501,7.501,7.501h0.001h290.423c4.143,0,7.501-3.357,7.501-7.501v-27.61c0-4.143-3.357-7.501-7.501-7.501
	s-7.501,3.357-7.501,7.501v20.11H251.256V233.49l54.922,17.609c19.867,6.371,35.906,21.924,42.904,41.601
	c1.389,3.903,5.68,5.94,9.58,4.554c3.903-1.388,5.941-5.677,4.554-9.58c-8.556-24.057-28.166-43.068-52.458-50.859l-59.509-19.081
	v-23.711h73.816l-1.184,26.067c-0.119,2.622,1.141,5.116,3.322,6.576c1.255,0.839,2.709,1.266,4.171,1.266
	c1.08,0,2.164-0.233,3.175-0.705l48.746-22.785c1.888,0.485,3.78,0.906,5.674,1.282L388.971,380.37L388.971,380.37z
	 M277.655,495.539H152.88v-13.89h124.775V495.539z M234.299,466.648h-38.063l6.608-29.294h24.848L234.299,466.648z"/>
<path d="M396.493,138.162c-4.143,0-7.501,3.357-7.501,7.501s3.357,7.501,7.501,7.501h24.815c4.143,0,7.501-3.357,7.501-7.501
	s-3.357-7.501-7.501-7.501h-5.022V84.436c0-4.143-3.357-7.501-7.501-7.501h-11.596c-4.143,0-7.501,3.357-7.501,7.501
	c0,4.143,3.357,7.501,7.501,7.501h4.095v46.226H396.493z"/>
<path d="M405.305,75.796c6.054,0,10.98-4.925,10.98-10.98c0-6.054-4.925-10.98-10.98-10.98s-10.98,4.925-10.98,10.98
	C394.326,70.871,399.252,75.796,405.305,75.796z"/>
<path d="M208.304,145.112h12.846c4.143,0,7.501-3.357,7.501-7.501c0-4.143-3.357-7.501-7.501-7.501h-5.345v-21.447
	c0-4.143-3.357-7.501-7.501-7.501c-4.143,0-7.501,3.357-7.501,7.501v28.947C200.803,141.755,204.161,145.112,208.304,145.112z"/>
<g>
</g>
<g>
</g>
<g>
</g>
<g>
</g>
<g>
</g>
<g>
</g>
<g>
</g>
<g>
</g>
<g>
</g>
<g>
</g>
<g>
</g>
<g>
</g>
<g>
</g>
<g>
</g>
<g>
</g>
</svg>
