<?xml version="1.0" encoding="iso-8859-1"?>
<!-- Generator: Adobe Illustrator 19.0.0, SVG Export Plug-In . SVG Version: 6.00 Build 0)  -->
<svg version="1.1" id="Capa_1" xmlns="http://www.w3.org/2000/svg" xmlns:xlink="http://www.w3.org/1999/xlink" x="0px" y="0px"
	 viewBox="0 0 512 512" style="enable-background:new 0 0 512 512;" xml:space="preserve">
<path style="fill:#E5E4D3;" d="M458.949,154.845c29.07-43.464,17.4-102.265-26.064-131.334S330.621,6.11,301.551,49.574
	c-23.449,35.061-20.384,80.096,4.489,111.459l-2.542,55.934l50.724-23.708C392.706,204.27,435.5,189.904,458.949,154.845z"/>
<path style="fill:#FEC007;" d="M383.014,102.785h49.723c0,27.277-22.446,49.723-49.723,49.723
	c-27.277,0-49.723-22.446-49.723-49.723s22.446-49.723,49.723-49.723V102.785z"/>
<path style="fill:#CAEDFF;" d="M457.028,347.213L326.809,477.431L261.7,412.322c-11.584-11.583-19.438-25.487-23.545-40.22
	c-6.759-24.134-3.49-50.487,9.816-72.485l-15.193-15.183c-35.414,21.408-82.135,16.832-112.704-13.738l-65.109-65.109
	L185.182,75.367l65.109,65.109c30.57,30.571,35.147,77.292,13.738,112.705l15.193,15.184
	c35.405-21.408,82.126-16.832,112.696,13.738L457.028,347.213z"/>
<path style="fill:#76C2E0;" d="M250.293,140.476l-65.11-65.11L165.65,94.899l65.11,65.11
	c28.099,28.099,34.236,69.836,18.421,103.899c-2.567,5.529-1.42,12.069,2.89,16.379l0.038,0.038c4.31,4.31,10.851,5.457,16.379,2.89
	c34.063-15.814,75.8-9.678,103.899,18.421l65.11,65.11l19.533-19.533l-65.11-65.11c-30.572-30.572-77.29-35.146-112.701-13.734
	l-15.191-15.191C285.439,217.766,280.865,171.048,250.293,140.476z"/>
<rect x="101.148" y="29.014" transform="matrix(0.7071 0.7071 -0.7071 0.7071 134.452 -43.7397)" style="fill:#2796AF;" width="37.752" height="222.829"/>
<rect x="117.543" y="35.808" transform="matrix(0.7071 0.7071 -0.7071 0.7071 141.247 -46.5549)" style="fill:#0E7889;" width="18.554" height="222.829"/>
<rect x="373.094" y="300.964" transform="matrix(0.7071 0.7071 -0.7071 0.7071 406.4008 -156.3821)" style="fill:#2796AF;" width="37.752" height="222.829"/>
<rect x="389.211" y="307.64" transform="matrix(0.7071 0.7071 -0.7071 0.7071 413.0776 -159.1493)" style="fill:#0E7889;" width="18.876" height="222.829"/>
<g>
	<path style="fill:#F9E8D4;" d="M246.246,232.556l-13.351,16.816c-27.746,34.947-73.364,36.716-102.096,3.001
		c-0.451-0.529-16.109-19.817-16.109-19.817L246.246,232.556L246.246,232.556z"/>
	<path style="fill:#F9E8D4;" d="M256.682,355.578c0,14.25,9.568,24.577,11.129,26.168l48.039,48.04l74.207-74.208H256.682z"/>
</g>
<path d="M296.006,216.627c-0.119,2.622,1.141,5.116,3.323,6.575c1.254,0.839,2.708,1.266,4.17,1.266c1.08,0,2.164-0.233,3.175-0.706
	l48.236-22.546c42.004,10.79,86.022-5.943,110.272-42.201c8.848-13.228,14.365-27.895,16.4-43.593
	c0.533-4.107-2.365-7.869-6.474-8.401c-4.096-0.537-7.869,2.365-8.401,6.474c-1.735,13.383-6.443,25.893-13.994,37.181
	c-21.144,31.612-59.897,45.827-96.43,35.374c-1.741-0.498-3.601-0.349-5.239,0.416l-39.493,18.46l1.979-43.55
	c0.082-1.808-0.492-3.584-1.616-5.001c-23.612-29.775-25.272-71.018-4.13-102.63c12.945-19.356,32.654-32.513,55.495-37.045
	c22.844-4.531,46.079,0.1,65.435,13.046c19.684,13.164,32.909,33.243,37.238,56.537c0.757,4.073,4.678,6.755,8.745,6.003
	c4.072-0.758,6.76-4.673,6.003-8.745c-5.076-27.3-20.576-50.833-43.646-66.263C414.366,2.103,387.128-3.327,360.36,1.986
	c-26.77,5.313-49.87,20.732-65.043,43.418c-24.249,36.258-22.904,83.326,3.105,118.031L296.006,216.627z"/>
<path d="M383.014,45.562c-31.553,0-57.223,25.67-57.223,57.223c0,31.554,25.67,57.224,57.223,57.224s57.223-25.67,57.223-57.224
	c0-4.143-3.357-7.5-7.5-7.5h-42.223V53.062C390.513,48.92,387.156,45.562,383.014,45.562z M424.569,110.285
	c-3.55,19.717-20.833,34.725-41.556,34.725c-23.282,0-42.223-18.941-42.223-42.224c0-20.723,15.007-38.006,34.724-41.556v41.556
	c0,4.143,3.357,7.5,7.5,7.5H424.569z"/>
<path d="M489.405,341.631l-26.695-26.695c-2.93-2.928-7.678-2.928-10.607,0l-8.374,8.374l-46.504-46.513
	c-31.088-31.078-78.312-38.013-116.734-17.766l-7.13-7.126c20.253-38.421,13.316-85.645-17.769-116.732L209.09,88.669l8.372-8.372
	c2.929-2.93,2.929-7.678,0-10.607l-26.695-26.695c-1.406-1.406-3.314-2.196-5.303-2.196c-1.989,0-3.897,0.79-5.303,2.196
	l-58.476,58.476c-2.929,2.93-2.929,7.678,0,10.607c2.929,2.928,7.678,2.928,10.606,0l53.172-53.173l16.088,16.089l-8.348,8.348
	c-0.008,0.008-0.017,0.015-0.025,0.023s-0.015,0.017-0.023,0.025L62.994,213.551c-0.01,0.01-0.021,0.018-0.03,0.027
	s-0.018,0.021-0.027,0.03l-8.345,8.345l-16.088-16.089l72.895-72.894c2.929-2.93,2.929-7.678,0-10.607
	c-2.928-2.928-7.677-2.928-10.606,0l-78.199,78.198c-2.929,2.93-2.929,7.678,0,10.607l26.695,26.695
	c1.406,1.406,3.314,2.196,5.303,2.196c1.989,0,3.897-0.79,5.303-2.196l8.373-8.373l46.503,46.502
	c31.08,31.09,78.303,38.024,116.734,17.769l7.138,7.137c-11.736,22.362-14.568,48.721-7.708,73.219
	c4.55,16.348,13.353,31.394,25.461,43.512l46.507,46.508l-8.366,8.366c-2.929,2.93-2.929,7.678,0,10.607l26.695,26.695
	c1.465,1.464,3.385,2.196,5.304,2.196c1.919,0,3.839-0.732,5.304-2.196l157.566-157.566
	C492.334,349.309,492.334,344.561,489.405,341.631z M267.005,407.024c-10.285-10.294-17.76-23.063-21.623-36.94
	c-6.287-22.449-3.004-46.718,9.006-66.584c1.785-2.953,1.325-6.743-1.115-9.184l-15.189-15.189c-2.44-2.439-6.229-2.898-9.183-1.115
	c-33.362,20.167-75.932,14.976-103.523-12.624l-46.503-46.503L198.482,99.276l46.504,46.503
	c27.599,27.6,32.791,70.169,12.625,103.521c-1.786,2.954-1.325,6.746,1.116,9.186l15.188,15.179c2.44,2.439,6.231,2.898,9.181,1.114
	c33.356-20.157,75.925-14.964,103.523,12.623l46.504,46.513L313.511,453.529L267.005,407.024z M326.536,493.895l-16.089-16.089
	l138.556-138.556c0.01-0.01,0.021-0.018,0.031-0.028c0.01-0.01,0.018-0.021,0.028-0.031l8.345-8.345l16.089,16.089L326.536,493.895z
	"/>
<path d="M246.246,225.057H114.689c-2.893,0-5.528,1.664-6.771,4.275c-1.243,2.611-0.875,5.706,0.949,7.952
	c4.726,5.82,15.765,19.415,16.224,19.953c14.818,17.389,34.374,26.914,55.182,26.914c0.395,0,0.79-0.003,1.186-0.01
	c21.844-0.38,42.197-11.071,57.311-30.105l13.351-16.815c1.79-2.254,2.132-5.334,0.88-7.926
	C251.749,226.703,249.124,225.057,246.246,225.057z M227.021,244.71c-12.272,15.456-28.547,24.135-45.824,24.435
	c-16.661,0.321-32.554-7.395-44.66-21.599c-0.287-0.345-2.845-3.489-6.095-7.489h100.273L227.021,244.71z"/>
<path d="M396.985,352.709c-1.16-2.803-3.896-4.63-6.929-4.63h-66.287c-4.143,0-7.5,3.357-7.5,7.5c0,4.143,3.357,7.5,7.5,7.5h48.182
	L315.85,419.18l-42.686-42.685c-0.703-0.718-5.596-5.897-7.85-13.416h28.91c4.143,0,7.5-3.357,7.5-7.5c0-4.143-3.357-7.5-7.5-7.5
	h-37.542c-4.142,0-7.5,3.357-7.5,7.5c0,17.025,11.059,29.16,13.324,31.472l48.04,48.039c1.465,1.464,3.385,2.196,5.304,2.196
	c1.919,0,3.839-0.732,5.304-2.196l74.207-74.207C397.505,358.736,398.146,355.51,396.985,352.709z"/>
<g>
</g>
<g>
</g>
<g>
</g>
<g>
</g>
<g>
</g>
<g>
</g>
<g>
</g>
<g>
</g>
<g>
</g>
<g>
</g>
<g>
</g>
<g>
</g>
<g>
</g>
<g>
</g>
<g>
</g>
</svg>
