<?xml version="1.0" encoding="iso-8859-1"?>
<!-- Generator: Adobe Illustrator 19.0.0, SVG Export Plug-In . SVG Version: 6.00 Build 0)  -->
<svg version="1.1" id="Capa_1" xmlns="http://www.w3.org/2000/svg" xmlns:xlink="http://www.w3.org/1999/xlink" x="0px" y="0px"
	 viewBox="0 0 511.998 511.998" style="enable-background:new 0 0 511.998 511.998;" xml:space="preserve">
<path style="fill:#FEC007;" d="M475.483,325.102l3.608,79.241l-71.875-33.577c-48.139,13.767-101.039-0.487-135.63-38.199
	c-1.511-1.64-2.972-3.32-4.393-5.05c-0.964-1.143-1.889-2.306-2.803-3.489c-1.928-2.485-3.787-5.049-5.566-7.703
	c-32.961-49.292-28.955-112.5,5.547-156.891c0.914-1.173,1.849-2.336,2.813-3.479c1.769-2.137,3.628-4.234,5.556-6.272
	c6.779-7.177,14.463-13.707,23.021-19.433c61.587-41.191,144.904-24.661,186.085,36.917
	C515.064,216.857,510.73,280.661,475.483,325.102z"/>
<path style="fill:#FE9700;" d="M268.037,326.275c-0.278,0.417-0.557,0.835-0.845,1.242c-0.964-1.143-1.889-2.306-2.803-3.489
	c-1.928-2.485-3.787-5.049-5.566-7.703c-32.961-49.292-28.955-112.5,5.547-156.891c0.914-1.173,1.849-2.336,2.813-3.479
	C301.108,205.724,303.523,273.216,268.037,326.275z"/>
<path style="fill:#FB4239;" d="M253.168,316.33c41.189-61.583,24.655-144.897-36.93-186.085S71.342,105.59,30.154,167.174
	C-3.071,216.851,1.272,280.661,36.514,325.1l-3.601,79.251l71.87-33.592C159.311,386.36,219.944,366.006,253.168,316.33z"/>
<path d="M488.082,163.001c-22.822-34.116-59.282-56.634-100.034-61.779c-4.112-0.527-7.861,2.392-8.38,6.501s2.392,7.861,6.501,8.38
	c36.439,4.603,69.04,24.736,89.445,55.237c30.71,45.927,28.298,105.845-6.002,149.1c-1.124,1.418-1.698,3.193-1.616,5l3.037,66.866
	l-60.638-28.342c-1.64-0.767-3.501-0.915-5.24-0.415c-45.696,13.08-95.953-1.07-128.054-36.066c-2.335-2.53-4.613-5.233-6.785-8.05
	c-1.822-2.351-3.592-4.802-5.26-7.283c-0.088-0.132-0.176-0.271-0.264-0.404c10.483-18.437,16.743-39.032,18.196-60.154
	c0.284-4.133-2.835-7.713-6.968-7.997c-4.131-0.273-7.713,2.835-7.997,6.968c-1.507,21.923-8.8,43.223-21.09,61.597
	c-10.362,15.494-23.649,28.224-39.493,37.835c-3.542,2.148-4.67,6.761-2.522,10.302c1.411,2.326,3.884,3.611,6.419,3.611
	c1.325,0,2.667-0.352,3.883-1.089c16.045-9.734,29.736-22.331,40.784-37.479c0.807,1.103,1.618,2.202,2.445,3.268
	c2.428,3.149,4.994,6.193,7.613,9.03c17.829,19.437,40.738,33.462,66.249,40.561c24.354,6.776,49.958,6.947,74.232,0.524
	l69.366,32.421c1.011,0.472,2.095,0.705,3.175,0.705c1.461,0,2.916-0.427,4.17-1.266c2.182-1.459,3.442-3.953,3.323-6.574
	l-3.474-76.489c17.412-22.869,27.331-50.139,28.726-79.058C513.302,217.988,505.09,188.437,488.082,163.001z"/>
<path d="M180.336,362.339c-24.004,7.681-49.417,8.099-73.491,1.209c-1.738-0.498-3.6-0.351-5.239,0.416l-60.639,28.343l3.038-66.866
	c0.082-1.808-0.492-3.584-1.616-5.001c-34.302-43.257-36.714-103.174-6-149.096c38.824-58.047,117.633-73.687,175.681-34.865
	c29.462,19.704,49.432,51.117,54.789,86.184c0.625,4.095,4.447,6.904,8.547,6.281c4.095-0.626,6.907-4.452,6.281-8.547
	c-2.637-17.262-8.445-33.732-16.927-48.643c1.727-2.612,3.571-5.197,5.525-7.713c2.507-3.215,5.167-6.313,7.905-9.208
	c6.513-6.889,13.827-13.062,21.739-18.349c17.438-11.661,37.611-18.863,58.337-20.828c4.124-0.391,7.15-4.051,6.759-8.175
	c-0.391-4.123-4.058-7.147-8.174-6.759c-23.196,2.199-45.763,10.253-65.259,23.291c-8.842,5.909-17.019,12.811-24.301,20.513
	c-3.064,3.238-6.037,6.701-8.844,10.302c-0.851,1.096-1.683,2.204-2.498,3.32c-9.683-13.25-21.666-24.859-35.541-34.139
	C155.486,80.59,67.343,98.082,23.92,163.004C6.911,188.437-1.303,217.988,0.168,248.463c1.396,28.918,11.316,56.187,28.729,79.057
	l-3.476,76.49c-0.119,2.622,1.141,5.116,3.323,6.575c1.254,0.839,2.708,1.266,4.17,1.266c1.081,0,2.165-0.233,3.175-0.705
	l69.367-32.423c26.115,6.911,53.522,6.198,79.451-2.097c3.945-1.262,6.12-5.483,4.858-9.429
	C188.503,363.252,184.281,361.077,180.336,362.339z"/>
<path d="M207.077,300.149l-19.436-19.436c8.555-10.837,13.68-24.502,13.68-39.348c0-35.088-28.546-63.634-63.634-63.634
	s-63.634,28.547-63.634,63.634S102.599,305,137.687,305c14.847,0,28.511-5.125,39.348-13.679l19.436,19.436
	c1.464,1.464,3.384,2.196,5.303,2.196c1.919,0,3.839-0.732,5.303-2.196C210.006,307.827,210.006,303.079,207.077,300.149z
	 M137.687,290c-26.817,0-48.635-21.817-48.635-48.635s21.818-48.635,48.635-48.635s48.635,21.817,48.635,48.635
	c0,10.708-3.486,20.613-9.372,28.656l-33.959-33.959c-2.928-2.928-7.677-2.928-10.606,0c-2.929,2.93-2.929,7.678,0,10.607
	l33.959,33.959C158.298,286.514,148.395,290,137.687,290z"/>
<path d="M362.844,180.32l-28.109,67.534c-0.012,0.029-0.024,0.058-0.036,0.087l-18.583,44.647c-1.591,3.824,0.218,8.214,4.042,9.806
	c3.824,1.592,8.214-0.218,9.806-4.042l16.666-40.041h46.277l16.666,40.041c1.2,2.882,3.989,4.62,6.927,4.62
	c0.96,0,1.937-0.186,2.879-0.578c3.824-1.592,5.634-5.981,4.042-9.806l-18.587-44.657c-0.01-0.023-0.019-0.047-0.029-0.07
	l-28.112-67.541c-1.164-2.797-3.896-4.618-6.924-4.618S364.008,177.523,362.844,180.32z M386.663,243.312h-33.791l16.895-40.593
	L386.663,243.312z"/>
<g>
</g>
<g>
</g>
<g>
</g>
<g>
</g>
<g>
</g>
<g>
</g>
<g>
</g>
<g>
</g>
<g>
</g>
<g>
</g>
<g>
</g>
<g>
</g>
<g>
</g>
<g>
</g>
<g>
</g>
</svg>
