<?xml version="1.0" encoding="iso-8859-1"?>
<!-- Generator: Adobe Illustrator 19.0.0, SVG Export Plug-In . SVG Version: 6.00 Build 0)  -->
<svg version="1.1" id="Capa_1" xmlns="http://www.w3.org/2000/svg" xmlns:xlink="http://www.w3.org/1999/xlink" x="0px" y="0px"
	 viewBox="0 0 512 512" style="enable-background:new 0 0 512 512;" xml:space="preserve">
<polygon style="fill:#FE9700;" points="389.473,228.956 389.473,479.174 7.5,479.174 7.5,178.978 112.051,178.978 162.028,228.956 
	"/>
<g>
	<path style="fill:#F26200;" d="M317.437,228.956l-12.759,12.766c-3.13,3.132-3.129,8.208,0.002,11.338l24.894,24.894
		c3.131,3.131,8.207,3.131,11.339,0.001l16.193-16.185c5.849,3.209,12.039,5.776,18.446,7.639v30.91h13.923v-71.364L317.437,228.956
		L317.437,228.956z"/>
	<rect x="7.5" y="324.859" style="fill:#F26200;" width="381.97" height="154.32"/>
	<polygon style="fill:#F26200;" points="162.028,228.96 112.051,178.982 7.5,178.982 7.5,236.724 162.028,236.724 	"/>
</g>
<polygon style="fill:#FEC007;" points="422.598,305.272 395.342,448.372 389.473,479.178 7.5,479.178 13.369,448.372 
	40.625,305.272 "/>
<polygon style="fill:#FE9700;" points="395.342,448.372 389.473,479.178 7.5,479.178 13.369,448.372 "/>
<path style="fill:#50B8FF;" d="M504.5,191.554v-20.186h-27.918v0.114c-1.776-13.549-7.109-25.973-15.043-36.305l0.095,0.095
	l19.741-19.74L467.1,101.257l-19.74,19.74l0.097,0.097c-10.336-7.937-22.765-13.27-36.32-15.045h0.127V78.132h-20.186v27.918h0.126
	c-13.554,1.775-25.982,7.107-36.317,15.043l0.095-0.095l-19.741-19.74l-14.275,14.275l19.741,19.74l0.092-0.092
	c-7.931,10.331-13.263,22.751-15.04,36.297v-0.109h-27.918v20.186h27.918v-0.105c1.776,13.537,7.102,25.95,15.024,36.277
	l-0.076-0.076l-19.741,19.741l14.275,14.275l19.741-19.741l-0.075-0.075c10.323,7.92,22.731,13.244,36.263,15.022h-0.092v27.918
	h20.186v-27.918h-0.093c13.533-1.778,25.942-7.103,36.266-15.025l-0.077,0.077l19.74,19.741l14.275-14.275l-19.741-19.741
	l-0.079,0.079c7.925-10.328,13.252-22.745,15.027-36.285v0.11L504.5,191.554L504.5,191.554z M401.171,225.486
	c-24.315,0-44.026-19.711-44.026-44.025s19.711-44.025,44.026-44.025c24.314,0,44.025,19.711,44.025,44.025
	C445.196,205.776,425.485,225.486,401.171,225.486z"/>
<path d="M206.825,96.972h9.776c1.201,7.584,4.198,14.574,8.533,20.533l-6.928,6.934c-2.928,2.93-2.926,7.679,0.005,10.606
	c1.464,1.463,3.382,2.194,5.301,2.194c1.92,0,3.841-0.733,5.306-2.199l6.924-6.929c5.958,4.334,12.947,7.329,20.528,8.531v9.774
	c0,4.143,3.357,7.5,7.5,7.5s7.5-3.357,7.5-7.5v-9.773c7.583-1.201,14.573-4.197,20.532-8.531l6.932,6.932
	c1.465,1.464,3.385,2.196,5.304,2.196s3.839-0.732,5.304-2.196c2.929-2.93,2.929-7.678,0-10.607l-6.932-6.932
	c4.335-5.959,7.331-12.949,8.532-20.532h9.772c4.143,0,7.5-3.357,7.5-7.5s-3.357-7.5-7.5-7.5h-9.772
	c-1.201-7.583-4.198-14.574-8.532-20.532l6.932-6.932c2.929-2.93,2.929-7.678,0-10.607c-2.93-2.928-7.678-2.928-10.607,0
	l-6.932,6.932c-5.959-4.335-12.949-7.33-20.532-8.531v-9.774c0-4.143-3.357-7.5-7.5-7.5s-7.5,3.357-7.5,7.5v9.775
	c-7.582,1.201-14.571,4.197-20.528,8.531l-6.924-6.929c-2.927-2.93-7.676-2.933-10.606-0.005s-2.933,7.677-0.005,10.606l6.928,6.934
	c-4.335,5.959-7.332,12.949-8.533,20.533h-9.776c-4.143,0-7.5,3.357-7.5,7.5S202.683,96.972,206.825,96.972z M263.771,56.708
	c18.066,0,32.764,14.697,32.764,32.764s-14.697,32.764-32.764,32.764c-18.049,0-32.734-14.669-32.762-32.712
	c0-0.017,0.003-0.034,0.003-0.052s-0.002-0.034-0.003-0.052C231.037,71.378,245.722,56.708,263.771,56.708z"/>
<path d="M263.77,113.679c13.348,0,24.207-10.859,24.207-24.207s-10.859-24.207-24.207-24.207s-24.207,10.859-24.207,24.207
	S250.422,113.679,263.77,113.679z M263.77,80.265c5.077,0,9.207,4.13,9.207,9.207s-4.13,9.207-9.207,9.207s-9.207-4.13-9.207-9.207
	S258.692,80.265,263.77,80.265z"/>
<path d="M504.5,163.869h-21.628c-2.118-9.853-6.017-19.265-11.49-27.737l15.296-15.296c1.407-1.407,2.197-3.314,2.197-5.304
	s-0.79-3.896-2.197-5.304l-14.275-14.274c-2.928-2.928-7.677-2.928-10.606,0L446.5,111.25c-8.474-5.474-17.883-9.371-27.736-11.488
	V78.131c0-4.143-3.357-7.5-7.5-7.5h-20.186c-4.143,0-7.5,3.357-7.5,7.5v21.631c-9.854,2.117-19.264,6.015-27.736,11.488
	l-15.296-15.297c-2.93-2.928-7.679-2.928-10.606,0l-14.275,14.274c-1.407,1.407-2.197,3.314-2.197,5.304s0.79,3.896,2.196,5.304
	l15.296,15.295c-5.474,8.474-9.372,17.885-11.489,27.738h-21.628c-4.143,0-7.5,3.357-7.5,7.5v20.186c0,4.143,3.357,7.5,7.5,7.5
	h21.627c1.683,7.832,4.507,15.375,8.336,22.398H266.44c-4.143,0-7.5,3.357-7.5,7.5s3.357,7.5,7.5,7.5h54.857l-5.634,5.634
	c-2.929,2.93-2.929,7.678,0,10.607l14.275,14.275c1.407,1.406,3.314,2.196,5.304,2.196s3.896-0.79,5.304-2.197l15.293-15.293
	c8.024,5.183,16.895,8.933,26.179,11.117c-0.03,0.273-0.048,0.549-0.048,0.83v34.149H225.773c-4.143,0-7.5,3.357-7.5,7.5
	s3.357,7.5,7.5,7.5H389.45c0.006,0,0.013,0.001,0.019,0.001s0.013-0.001,0.019-0.001h24.045l-13.187,69.237
	c-0.775,4.069,1.895,7.996,5.964,8.771c0.475,0.091,0.946,0.134,1.412,0.134c3.529,0,6.674-2.503,7.358-6.098l14.883-78.141
	c0.419-2.195-0.164-4.463-1.589-6.185s-3.543-2.719-5.778-2.719H396.97v-5.481h14.294c4.143,0,7.5-3.357,7.5-7.5v-21.626
	c9.854-2.117,19.265-6.016,27.739-11.49l15.293,15.294c1.407,1.407,3.314,2.197,5.304,2.197s3.896-0.79,5.304-2.196l14.275-14.275
	c1.406-1.407,2.196-3.314,2.196-5.304s-0.79-3.896-2.197-5.304l-15.294-15.294c5.474-8.474,9.371-17.885,11.488-27.738H504.5
	c4.143,0,7.5-3.357,7.5-7.5v-20.186C512,167.226,508.643,163.869,504.5,163.869z M497,184.054h-19.133
	c-0.261-0.045-0.526-0.077-0.797-0.095c-3.955-0.264-7.411,2.59-7.925,6.51c-1.557,11.873-6.239,23.179-13.541,32.693
	c-2.405,3.136-1.966,7.6,1.005,10.205c0.205,0.18,0.418,0.347,0.636,0.5l13.523,13.522l-3.669,3.669l-13.536-13.537
	c-0.146-0.206-0.303-0.406-0.473-0.601c-2.602-2.986-7.078-3.437-10.22-1.023c-9.512,7.298-20.812,11.979-32.678,13.538
	c-3.918,0.516-6.718,3.982-6.46,7.926c0.008,0.115,0.018,0.229,0.03,0.344v19.585h-5.186v-19.246
	c0.035-0.224,0.061-0.451,0.076-0.683c0.258-3.943-2.589-7.41-6.507-7.926c-11.865-1.559-23.164-6.24-32.675-13.536
	c-3.144-2.412-7.618-1.962-10.221,1.023c-0.165,0.19-0.319,0.386-0.463,0.587l-13.547,13.549l-3.669-3.669l13.071-13.071
	c0.045-0.044,0.089-0.088,0.133-0.133l0.335-0.335c0.212-0.15,0.417-0.312,0.616-0.486c2.971-2.605,3.41-7.069,1.005-10.204
	c-7.298-9.513-11.979-20.815-13.537-32.688c-0.515-3.919-3.978-6.766-7.926-6.509c-0.26,0.018-0.516,0.048-0.768,0.09h-19.161
	v-5.186h19.145c0.257,0.044,0.519,0.075,0.784,0.093c3.948,0.254,7.411-2.59,7.926-6.509c1.559-11.879,6.244-23.188,13.552-32.705
	c2.406-3.135,1.968-7.6-1.003-10.205c-0.231-0.203-0.472-0.39-0.72-0.559l-13.452-13.452l3.669-3.668l13.437,13.437
	c0.173,0.255,0.363,0.501,0.571,0.738c2.605,2.971,7.072,3.41,10.205,1.002c9.522-7.311,20.837-11.998,32.723-13.554
	c3.919-0.513,6.768-3.979,6.511-7.925c-0.02-0.3-0.057-0.595-0.11-0.884V85.631h5.186v19.036c-0.055,0.293-0.092,0.591-0.112,0.896
	c-0.257,3.944,2.592,7.411,6.511,7.924c11.887,1.556,23.203,6.244,32.728,13.557c3.135,2.409,7.601,1.968,10.205-1.002
	c0.213-0.243,0.407-0.495,0.584-0.756l13.421-13.422l3.669,3.668l-13.438,13.437c-0.255,0.173-0.501,0.363-0.738,0.571
	c-2.971,2.606-3.409,7.071-1.002,10.205c7.31,9.521,11.997,20.832,13.555,32.713c0.514,3.919,3.974,6.773,7.925,6.51
	c0.277-0.019,0.551-0.052,0.819-0.099H497V184.054z"/>
<path d="M401.171,129.936c-28.411,0-51.525,23.114-51.525,51.525s23.114,51.525,51.525,51.525s51.525-23.114,51.525-51.525
	S429.582,129.936,401.171,129.936z M401.171,217.987c-20.141,0-36.525-16.385-36.525-36.525s16.385-36.525,36.525-36.525
	s36.525,16.385,36.525,36.525S421.312,217.987,401.171,217.987z"/>
<path d="M401.171,154.77c-14.718,0-26.691,11.974-26.691,26.691s11.974,26.691,26.691,26.691s26.691-11.974,26.691-26.691
	S415.889,154.77,401.171,154.77z M401.171,193.153c-6.446,0-11.691-5.245-11.691-11.691s5.245-11.691,11.691-11.691
	s11.691,5.245,11.691,11.691S407.617,193.153,401.171,193.153z"/>
<path d="M403.49,405.592c-4.06-0.779-7.995,1.895-8.771,5.964l-11.452,60.116H16.564l30.267-158.901h149.396
	c4.143,0,7.5-3.357,7.5-7.5s-3.357-7.5-7.5-7.5H40.625c-3.601,0-6.693,2.56-7.367,6.097L15,399.721V186.483h93.943l47.784,47.773
	c1.406,1.406,3.313,2.196,5.303,2.196h74.859c4.143,0,7.5-3.357,7.5-7.5s-3.357-7.5-7.5-7.5h-71.753l-47.784-47.773
	c-1.406-1.406-3.313-2.196-5.303-2.196H7.5c-4.143,0-7.5,3.357-7.5,7.5v300.19c0,7.057,6.635,7.505,11.851,7.505
	c8.085,0,376.2,0.86,379.904-0.362c2.578-0.851,4.574-3.064,5.084-5.734l12.614-66.218
	C410.229,410.294,407.56,406.368,403.49,405.592C399.431,404.814,407.56,406.368,403.49,405.592z"/>
<g>
</g>
<g>
</g>
<g>
</g>
<g>
</g>
<g>
</g>
<g>
</g>
<g>
</g>
<g>
</g>
<g>
</g>
<g>
</g>
<g>
</g>
<g>
</g>
<g>
</g>
<g>
</g>
<g>
</g>
</svg>
