<?xml version="1.0" encoding="iso-8859-1"?>
<!-- Generator: Adobe Illustrator 19.0.0, SVG Export Plug-In . SVG Version: 6.00 Build 0)  -->
<svg version="1.1" id="Capa_1" xmlns="http://www.w3.org/2000/svg" xmlns:xlink="http://www.w3.org/1999/xlink" x="0px" y="0px"
	 viewBox="0 0 511.999 511.999" style="enable-background:new 0 0 511.999 511.999;" xml:space="preserve">
<path style="fill:#D8AD8F;" d="M214.057,122.1l36.316,36.316l-52.787,52.787l-14.939-14.939c-11.806-11.806-11.806-30.947,0-42.753
	L214.057,122.1z"/>
<path style="fill:#C1BFA4;" d="M413.751,343.076c-2.597-2.504-4.405-5.627-5.48-8.722c-3.242-8.716-1.555-18.88,5.48-25.835
	c4.81-4.77,11.021-7.155,17.226-7.155c3.003,0,5.853,0.578,8.483,1.654c3.242,1.223,6.331,2.877,8.842,5.507l48.787,48.787
	c4.65-9.579,7.407-20.202,7.4-31.435c0.007-38.988-30.359-70.417-68.49-73.047l-5.022-0.492c-7.434-0.007-14.535,1.329-21.245,3.401
	c-1.382,0.425-2.744,0.884-4.092,1.369L254.887,106.382c0.485-1.349,0.95-2.717,1.382-4.092c2.086-6.709,3.388-13.804,3.388-21.245
	l-0.458-5.015C256.568,37.859,225.106,7.5,186.151,7.5c-11.24,0-21.889,2.757-31.435,7.414l48.754,48.78
	c2.631,2.511,4.311,5.627,5.634,8.716c3.116,8.722,1.435,18.919-5.634,25.828c-4.776,4.776-10.988,7.161-17.318,7.168
	c-2.883,0-5.76-0.578-8.483-1.654c-3.122-1.196-6.238-2.876-8.749-5.507l-48.88-48.787c-4.557,9.579-7.281,20.195-7.281,31.581
	c0,38.836,30.239,70.271,68.49,72.901l4.903,0.492c7.453,0,14.555-1.242,21.344-3.368c1.389-0.432,2.757-0.897,4.112-1.402
	l150.759,150.759c-0.505,1.355-0.977,2.717-1.408,4.092c-2.146,6.783-3.368,13.917-3.361,21.364l0.458,4.896
	c2.624,38.258,34.059,68.497,72.928,68.49c11.353,0.007,22.002-2.75,31.555-7.281L413.751,343.076z"/>
<path style="fill:#A09D80;" d="M409.731,255.739l-48.774,48.774c0.432-1.375,0.904-2.737,1.408-4.092L211.608,149.662
	c-1.355,0.505-2.724,0.97-4.112,1.402l48.774-48.774c-0.432,1.375-0.897,2.744-1.382,4.092l150.751,150.726
	C406.988,256.623,408.35,256.165,409.731,255.739z"/>
<path style="fill:#EFCDB1;" d="M390.148,247.143L289.159,348.132c-10.503,10.503-27.529,10.509-38.038,0L144.565,454.687
	l-83.391-83.391l106.555-106.555l-3.853-3.853c-10.503-10.503-10.503-27.536,0-38.038l100.988-100.988
	c8.384-8.384,21.975-8.384,30.359,0l0.963,0.963c8.384,8.384,8.384,21.975,0,30.359c8.384-8.384,21.975-8.384,30.359,0l0.957,0.957
	c8.39,8.39,8.39,21.982,0.007,30.365c8.384-8.384,21.975-8.384,30.359,0l0.957,0.957c8.384,8.384,8.39,21.982,0.007,30.365
	c8.384-8.383,21.976-8.383,30.359,0l0.957,0.957C398.531,225.168,398.531,238.76,390.148,247.143z"/>
<rect x="115.359" y="296.895" transform="matrix(-0.7071 0.7071 -0.7071 -0.7071 524.7405 494.3647)" style="fill:#C19476;" width="89.249" height="117.929"/>
<rect x="63.203" y="333.739" transform="matrix(-0.7071 -0.7071 0.7071 -0.7071 -0.4539 724.284)" style="fill:#CAEDFF;" width="173.148" height="56.994"/>
<rect x="54.892" y="323.317" transform="matrix(-0.7071 0.7071 -0.7071 -0.7071 464.1524 627.5242)" style="fill:#3F51B4;" width="94.439" height="173.148"/>
<rect x="62.898" y="342.644" transform="matrix(-0.7071 0.7071 -0.7071 -0.7071 444.8198 674.185)" style="fill:#21399B;" width="39.768" height="173.148"/>
<path d="M489.992,270.565c-14.027-14.826-32.976-23.776-53.366-25.21l-4.917-0.48c-0.242-0.023-0.485-0.035-0.729-0.035
	c-7.609,0-15.278,1.209-23.317,3.687l-5.815-5.815c4.227-10.561,1.94-22.891-6.367-31.197l-0.987-0.996
	c-5.963-5.965-13.977-8.842-21.907-8.463c0.383-7.933-2.499-15.936-8.453-21.898l-0.963-0.963
	c-5.966-5.958-13.983-8.838-21.904-8.455c0.384-7.935-2.498-15.938-8.453-21.902l-0.963-0.963c-5.962-5.954-13.971-8.83-21.9-8.451
	c0.384-7.942-2.506-15.955-8.483-21.932l-0.939-0.93c-8.352-8.363-20.713-10.649-31.254-6.401l-5.799-5.794
	c2.476-7.979,3.686-15.652,3.686-23.325c0-0.229-0.01-0.457-0.031-0.685l-0.453-4.938c-0.809-11.531-3.976-22.533-9.412-32.703
	c-1.953-3.654-6.498-5.031-10.15-3.079c-3.653,1.952-5.031,6.497-3.079,10.149c4.445,8.316,7.03,17.316,7.683,26.752
	c0.004,0.056,0.008,0.111,0.013,0.167l0.428,4.668c-0.042,7.239-1.458,14.582-4.325,22.437c-1,2.741-0.32,5.813,1.744,7.877
	l7.428,7.422l-32.669,32.672l-7.424-7.424c-2.072-2.071-5.159-2.749-7.908-1.729c-7.693,2.849-15.056,4.257-22.492,4.302
	l-4.527-0.452c-0.074-0.007-0.148-0.014-0.222-0.019c-34.489-2.371-61.505-31.106-61.505-65.418c0-6.125,0.882-12.194,2.631-18.139
	l40.667,40.584c2.958,3.085,6.701,5.464,11.366,7.244c3.662,1.44,7.438,2.171,11.226,2.171c8.554,0,16.588-3.323,22.563-9.297
	c8.783-8.584,11.707-21.82,7.449-33.72c-0.051-0.143-0.105-0.282-0.165-0.421c-1.289-3.016-3.443-7.442-7.279-11.132l-40.622-40.646
	C174.009,15.9,180.048,15,186.15,15c15.017,0,29.138,4.944,40.836,14.298c3.236,2.587,7.955,2.062,10.542-1.174
	c2.586-3.235,2.061-7.954-1.174-10.541C221.968,6.08,204.608,0,186.15,0c-11.917,0-23.597,2.748-34.716,8.169
	c-2.178,1.062-3.709,3.111-4.11,5.502c-0.4,2.39,0.379,4.826,2.092,6.541l48.75,48.78c0.042,0.042,0.084,0.083,0.127,0.124
	c1.417,1.353,2.599,3.216,3.818,6.024c2.186,6.343,0.672,13.284-3.943,17.796c-3.202,3.201-7.47,4.964-12.018,4.964
	c-1.9,0-3.829-0.38-5.807-1.157c-2.638-1.007-4.597-2.208-5.988-3.671c-0.045-0.048-0.091-0.095-0.137-0.141l-48.88-48.78
	c-1.724-1.721-4.176-2.495-6.575-2.082c-2.399,0.415-4.449,1.969-5.495,4.167C107.954,57.4,105.26,69.11,105.26,81.04
	c0,20.627,7.795,40.225,21.95,55.184c11.426,12.075,26.139,20.247,42.251,23.633c-5.689,13.23-3.486,29.152,6.528,40.275
	l-17.411,17.412c-6.501,6.495-10.082,15.133-10.082,24.322c0,8.505,3.067,16.54,8.673,22.837l-27.01,27.01l-16.147-16.147
	c-2.928-2.928-7.677-2.928-10.606,0l-40.311,40.3c-0.018,0.018-0.033,0.038-0.05,0.056l-60.84,60.842
	c-2.929,2.93-2.929,7.678,0,10.607l46.766,46.766c2.929,2.928,7.678,2.928,10.606,0c2.929-2.93,2.929-7.678,0-10.607l-41.462-41.462
	l56.17-56.17l111.826,111.826l-56.17,56.17l-49.47-49.471c-2.928-2.928-7.677-2.928-10.606,0c-2.929,2.93-2.929,7.678,0,10.607
	l54.773,54.773c1.406,1.406,3.314,2.196,5.303,2.196c1.989,0,3.897-0.79,5.303-2.196l60.802-60.801
	c0.034-0.032,0.07-0.06,0.103-0.093l40.295-40.306c1.407-1.407,2.197-3.314,2.197-5.304s-0.79-3.896-2.197-5.304l-12.287-12.287
	l27.536-27.543c11.731,7.514,27.014,7.282,38.7-1.248c3.346-2.442,4.078-7.134,1.636-10.479s-7.134-4.079-10.479-1.636
	c-7.754,5.659-18.32,4.829-25.125-1.977c-1.407-1.406-3.314-2.196-5.304-2.196s-3.897,0.791-5.304,2.197l-32.267,32.275
	l-72.782-72.782l32.266-32.267c2.926-2.927,2.929-7.67,0.007-10.6l-3.857-3.868c-3.667-3.666-5.686-8.539-5.686-13.72
	s2.019-10.05,5.686-13.713l22.652-22.655c0.009-0.009,0.019-0.016,0.028-0.025c0.009-0.009,0.016-0.019,0.025-0.028l37.704-37.708
	c0.016-0.016,0.034-0.03,0.051-0.046s0.03-0.034,0.046-0.051l40.476-40.479c0.607-0.607,1.253-1.145,1.971-1.633
	c5.535-3.826,13.012-3.141,17.808,1.661l0.943,0.934c4.77,4.77,5.456,12.254,1.625,17.804c-0.468,0.68-1.008,1.327-1.601,1.923
	c-0.009,0.009-0.019,0.017-0.028,0.026l-44.653,44.653c-2.929,2.93-2.929,7.678,0,10.607c1.464,1.464,3.384,2.196,5.303,2.196
	s3.839-0.732,5.303-2.196l44.615-44.616c0.013-0.013,0.027-0.024,0.04-0.036c0.604-0.604,1.262-1.152,1.958-1.632
	c5.539-3.822,13.024-3.134,17.796,1.631l0.957,0.956c4.767,4.773,5.454,12.256,1.603,17.837c-0.451,0.665-0.989,1.31-1.598,1.918
	c-0.001,0.001-0.003,0.002-0.004,0.003l-44.652,44.652c-2.929,2.93-2.929,7.678,0,10.607c1.464,1.464,3.384,2.196,5.303,2.196
	s3.839-0.732,5.303-2.196l44.65-44.65c0.002-0.002,0.003-0.003,0.005-0.005c0.609-0.609,1.255-1.147,1.967-1.631
	c5.535-3.819,13.017-3.132,17.787,1.631l0.956,0.956c4.767,4.773,5.455,12.255,1.603,17.836c-0.452,0.666-0.99,1.313-1.6,1.923
	c-0.01,0.01-0.018,0.021-0.027,0.03l-44.625,44.624c-2.929,2.93-2.929,7.678,0,10.607c1.464,1.464,3.384,2.196,5.303,2.196
	s3.839-0.732,5.303-2.196l44.653-44.652c0.007-0.007,0.014-0.016,0.021-0.023c0.603-0.601,1.242-1.133,1.946-1.612
	c5.538-3.822,13.019-3.139,17.76,1.604l0.987,0.997c4.762,4.762,5.45,12.241,1.635,17.784c-0.496,0.721-1.031,1.365-1.635,1.969
	l-83.049,83.05c-2.929,2.929-2.93,7.677-0.001,10.606c1.464,1.465,3.384,2.197,5.304,2.197c1.919,0,3.838-0.732,5.303-2.196
	l37.222-37.222l4.131,4.13c-2.435,7.786-3.666,15.659-3.666,23.468c0,0.234,0.011,0.469,0.033,0.702l0.452,4.8
	c1.429,20.438,10.375,39.41,25.196,53.434c14.963,14.157,34.57,21.954,55.209,21.954c11.87,0,23.566-2.696,34.767-8.014
	c2.201-1.045,3.757-3.094,4.173-5.494c0.417-2.4-0.359-4.854-2.08-6.578l-48.78-48.9c-0.034-0.033-0.067-0.066-0.101-0.1
	c-1.988-1.918-3.056-4.2-3.602-5.777c-0.018-0.052-0.037-0.104-0.056-0.155c-2.383-6.422-0.96-13.272,3.735-17.901
	c3.238-3.217,7.479-4.989,11.943-4.989c1.946,0,3.849,0.372,5.655,1.106c0.06,0.024,0.121,0.049,0.181,0.071
	c2.731,1.029,4.653,2.191,6.047,3.659c0.044,0.046,0.089,0.092,0.134,0.137l48.79,48.779c1.715,1.716,4.157,2.498,6.548,2.092
	c2.393-0.402,4.442-1.938,5.502-4.12c5.41-11.145,8.153-22.82,8.153-34.705C511.99,305.203,504.178,285.559,489.992,270.565z
	 M196.72,427.12L84.89,315.29l23.819-23.814l16.143,16.143c0.002,0.002,0.003,0.004,0.005,0.006s0.004,0.003,0.006,0.005
	l83.38,83.38c0.001,0.001,0.003,0.003,0.004,0.005s0.003,0.003,0.005,0.004l12.282,12.282L196.72,427.12z M185.422,161.894
	c0.242,0.023,0.485,0.036,0.728,0.036c7.727,0,15.597-1.232,23.455-3.668l4.126,4.126l-27.102,27.105
	C180.045,181.644,179.626,170.207,185.422,161.894z M494.307,343.922l-40.643-40.634c-2.94-3.068-6.695-5.442-11.472-7.254
	c-3.582-1.442-7.354-2.174-11.212-2.174c-8.453,0-16.45,3.32-22.495,9.328c-8.78,8.655-11.631,21.877-7.274,33.705
	c1.545,4.424,4.059,8.407,7.277,11.53l40.603,40.704c-5.955,1.756-12.013,2.642-18.11,2.642c-34.328,0-63.077-27.021-65.448-61.515
	c-0.004-0.063-0.009-0.125-0.016-0.188l-0.426-4.529c0.043-7.441,1.489-15.002,4.3-22.479c1.036-2.755,0.364-5.86-1.717-7.942
	l-7.441-7.441l32.684-32.683l7.421,7.422c2.056,2.056,5.114,2.739,7.849,1.752c7.935-2.863,15.28-4.279,22.44-4.324l4.645,0.454
	c0.071,0.007,0.142,0.013,0.213,0.018c34.49,2.379,61.506,31.18,61.506,65.567C496.99,331.966,496.09,338.003,494.307,343.922z"/>
<g>
</g>
<g>
</g>
<g>
</g>
<g>
</g>
<g>
</g>
<g>
</g>
<g>
</g>
<g>
</g>
<g>
</g>
<g>
</g>
<g>
</g>
<g>
</g>
<g>
</g>
<g>
</g>
<g>
</g>
</svg>
