<?xml version="1.0" encoding="iso-8859-1"?>
<!-- Generator: Adobe Illustrator 19.0.0, SVG Export Plug-In . SVG Version: 6.00 Build 0)  -->
<svg version="1.1" id="Capa_1" xmlns="http://www.w3.org/2000/svg" xmlns:xlink="http://www.w3.org/1999/xlink" x="0px" y="0px"
	 viewBox="0 0 512 512" style="enable-background:new 0 0 512 512;" xml:space="preserve">
<rect x="49.338" y="125.095" style="fill:#B96340;" width="262.07" height="379.405"/>
<g>
	<rect x="49.338" y="490.521" style="fill:#A24223;" width="262.07" height="13.982"/>
	<path style="fill:#A24223;" d="M261.738,125.095v40.748c0,6.35-5.15,11.49-11.5,11.49H110.504c-6.35,0-11.5-5.14-11.5-11.49
		v-40.748H261.738z"/>
</g>
<rect x="74.177" y="150.784" style="fill:#E5E4D3;" width="212.382" height="317.738"/>
<g>
	<polygon style="fill:#C1BFA4;" points="87.883,451.702 87.883,150.787 74.18,150.787 74.18,468.53 286.562,468.53 286.562,451.702 
			"/>
	<path style="fill:#C1BFA4;" d="M261.738,150.784v15.059c0,6.35-5.15,11.49-11.5,11.49H110.504c-6.35,0-11.5-5.14-11.5-11.49
		v-15.059H261.738z"/>
	<path style="fill:#C1BFA4;" d="M248.887,105.396v59.095H111.856v-59.095h33.042c1.105-18.627,16.563-33.402,35.474-33.402
		s34.361,14.773,35.474,33.402H248.887z"/>
</g>
<rect x="111.856" y="145.515" style="fill:#A09D80;" width="137.035" height="18.979"/>
<path style="fill:#FEC007;" d="M447.831,144.549c27.038-40.427,16.184-95.118-24.242-122.156S328.469,6.208,301.431,46.635
	c-21.81,32.611-18.959,74.499,4.175,103.671l-2.364,52.025l47.179-22.051C386.217,190.52,426.02,177.159,447.831,144.549z"/>
<path d="M242.762,297.802H117.978c-4.143,0-7.5,3.358-7.5,7.5s3.357,7.5,7.5,7.5h124.782c4.143,0,7.5-3.358,7.5-7.5
	S246.903,297.802,242.762,297.802z"/>
<path d="M242.762,326.575H117.978c-4.143,0-7.5,3.358-7.5,7.5c0,4.142,3.357,7.5,7.5,7.5h124.782c4.143,0,7.5-3.358,7.5-7.5
	C250.26,329.932,246.903,326.575,242.762,326.575z"/>
<path d="M242.762,355.347H117.978c-4.143,0-7.5,3.358-7.5,7.5c0,4.142,3.357,7.5,7.5,7.5h124.782c4.143,0,7.5-3.358,7.5-7.5
	C250.26,358.705,246.903,355.347,242.762,355.347z"/>
<path d="M242.762,384.12H117.978c-4.143,0-7.5,3.358-7.5,7.5c0,4.142,3.357,7.5,7.5,7.5h124.782c4.143,0,7.5-3.358,7.5-7.5
	C250.26,387.478,246.903,384.12,242.762,384.12z"/>
<path d="M427.757,16.158c-21.218-14.19-46.691-19.269-71.728-14.3c-25.037,4.969-46.641,19.39-60.832,40.607
	c-15.17,22.682-19.612,49.886-13.621,75.131h-25.189v-12.2c0-4.142-3.357-7.5-7.5-7.5h-26.566
	c-4.402-19.208-21.633-33.402-41.95-33.402c-20.325,0-37.559,14.191-41.953,33.402h-26.562c-4.143,0-7.5,3.358-7.5,7.5v12.2h-55.02
	c-4.143,0-7.5,3.358-7.5,7.5v379.405c0,4.142,3.357,7.5,7.5,7.5H198.91c4.143,0,7.5-3.358,7.5-7.5s-3.357-7.5-7.5-7.5H56.836
	V132.595h47.519v10.69H74.176c-4.143,0-7.5,3.358-7.5,7.5v317.748c0,4.142,3.357,7.5,7.5,7.5h212.382c4.143,0,7.5-3.358,7.5-7.5
	V150.784c0-4.142-3.357-7.5-7.5-7.5h-30.171v-10.69h30.09c2.965,7.032,6.797,13.789,11.513,20.108l-2.239,49.286
	c-0.119,2.622,1.141,5.115,3.322,6.575c1.255,0.839,2.709,1.266,4.171,1.266c0.221,0,0.442-0.016,0.663-0.036v287.207H228.46
	c-4.143,0-7.5,3.358-7.5,7.5s3.357,7.5,7.5,7.5h82.946c4.143,0,7.5-3.358,7.5-7.5V203.287l32.209-15.054
	c10.35,2.628,21.027,3.485,31.778,2.546c4.126-0.36,7.18-3.998,6.819-8.124c-0.361-4.126-3.995-7.172-8.124-6.819
	c-9.877,0.862-19.669-0.069-29.104-2.768c-1.738-0.498-3.6-0.35-5.238,0.417l-35.949,16.802l1.802-39.641
	c0.082-1.807-0.491-3.583-1.615-5c-5.448-6.87-9.631-14.399-12.536-22.286c-0.117-0.493-0.282-0.965-0.491-1.415
	c-8.116-23.358-5.159-49.655,9.211-71.141c11.964-17.887,30.176-30.045,51.283-34.234c21.106-4.188,42.582,0.093,60.47,12.057
	c36.926,24.696,46.874,74.828,22.178,111.753c-8.213,12.28-19.612,22.046-32.968,28.245c-3.758,1.744-5.39,6.204-3.646,9.96
	s6.203,5.391,9.96,3.646c15.851-7.357,29.379-18.945,39.121-33.512C483.358,104.918,471.557,45.453,427.757,16.158z
	 M279.057,158.284v302.748H81.676V158.284h22.68v6.207c0,4.142,3.357,7.5,7.5,7.5h86.393c4.143,0,7.5-3.358,7.5-7.5
	s-3.357-7.5-7.5-7.5h-78.893v-44.095h25.542c3.97,0,7.252-3.093,7.487-7.056c0.876-14.773,13.169-26.346,27.987-26.346
	c14.811,0,27.104,11.574,27.988,26.349c0.236,3.961,3.518,7.053,7.486,7.053h25.542v44.095h-13.594c-4.143,0-7.5,3.358-7.5,7.5
	s3.357,7.5,7.5,7.5h21.094c4.143,0,7.5-3.358,7.5-7.5v-6.207L279.057,158.284L279.057,158.284z"/>
<path d="M322.81,98.893v1.413c0,4.142,3.357,7.5,7.5,7.5c4.143,0,7.5-3.358,7.5-7.5v-1.413c0-4.142-3.357-7.5-7.5-7.5
	C326.167,91.393,322.81,94.751,322.81,98.893z"/>
<path d="M352.358,98.893v1.413c0,4.142,3.357,7.5,7.5,7.5c4.143,0,7.5-3.358,7.5-7.5v-1.413c0-4.142-3.357-7.5-7.5-7.5
	C355.715,91.393,352.358,94.751,352.358,98.893z"/>
<path d="M389.406,91.393c-4.143,0-7.5,3.358-7.5,7.5v1.413c0,4.142,3.357,7.5,7.5,7.5s7.5-3.358,7.5-7.5v-1.413
	C396.905,94.751,393.549,91.393,389.406,91.393z"/>
<path d="M426.452,100.305v-1.413c0-4.142-3.357-7.5-7.5-7.5s-7.5,3.358-7.5,7.5v1.413c0,4.142,3.357,7.5,7.5,7.5
	S426.452,104.447,426.452,100.305z"/>
<path d="M168.945,264.761c-4.143,0-7.5,3.358-7.5,7.5c0,4.142,3.357,7.5,7.5,7.5h22.851c4.143,0,7.5-3.358,7.5-7.5
	c0-4.142-3.357-7.5-7.5-7.5h-4.032V215.88c0-4.142-3.357-7.5-7.5-7.5h-10.679c-4.143,0-7.5,3.358-7.5,7.5c0,4.142,3.357,7.5,7.5,7.5
	h3.179v41.381H168.945z"/>
<path d="M177.06,204.516c5.902,0,10.704-4.801,10.704-10.703s-4.802-10.704-10.704-10.704c-5.901,0-10.703,4.802-10.703,10.704
	S171.159,204.516,177.06,204.516z"/>
<g>
</g>
<g>
</g>
<g>
</g>
<g>
</g>
<g>
</g>
<g>
</g>
<g>
</g>
<g>
</g>
<g>
</g>
<g>
</g>
<g>
</g>
<g>
</g>
<g>
</g>
<g>
</g>
<g>
</g>
</svg>
