<?xml version="1.0" encoding="iso-8859-1"?>
<!-- Generator: Adobe Illustrator 19.0.0, SVG Export Plug-In . SVG Version: 6.00 Build 0)  -->
<svg version="1.1" id="Capa_1" xmlns="http://www.w3.org/2000/svg" xmlns:xlink="http://www.w3.org/1999/xlink" x="0px" y="0px"
	 viewBox="0 0 512.001 512.001" style="enable-background:new 0 0 512.001 512.001;" xml:space="preserve">
<path style="fill:#FEC007;" d="M41.706,179.335C7.805,128.646,21.413,60.072,72.102,26.171S191.365,5.877,225.267,56.566
	c27.347,40.888,23.772,93.41-5.235,129.987l2.964,65.231l-59.155-27.649C118.959,236.976,69.053,220.223,41.706,179.335z"/>
<path style="fill:#C1BFA4;" d="M488.625,222.84c0.933-12.791-0.214-25.182-3.13-36.872c-2.075-8.277-12.385-11.156-18.419-5.124
	L418.119,229.8c-10.872,10.873-28.498,10.867-39.364,0l-22.464-22.464c-10.879-10.867-10.872-28.492,0-39.364l48.36-48.36
	c6.074-6.074,3.124-16.488-5.24-18.442c-11.446-2.672-23.536-3.669-36.014-2.666c-53.622,4.278-102.966,54.55-106.305,108.24
	c-1.269,20.36,2.846,39.613,10.868,56.664L96.813,410.481c-7.703,6.613-12.31,16.123-12.738,26.267
	c-0.423,10.137,3.362,19.995,10.473,27.234l29.002,29.535c7.181,7.32,17.097,11.29,27.344,10.966
	c10.242-0.33,19.885-4.932,26.58-12.692L325.72,320.033c16.541,7.384,35.069,11.157,54.637,9.94
	C434.406,326.6,484.69,276.85,488.625,222.84z"/>
<g>
	<path style="fill:#A09D80;" d="M192.863,473.957c-4.738,2.404-9.986,3.786-15.407,3.961c-10.247,0.325-20.163-3.646-27.344-10.966
		l-29.002-29.535c-7.112-7.239-10.896-17.097-10.473-27.234c0.222-5.247,1.571-10.321,3.879-14.915l-17.704,15.212
		c-7.703,6.613-12.31,16.123-12.738,26.267c-0.423,10.137,3.362,19.995,10.473,27.234l29.002,29.535
		c7.181,7.32,17.097,11.29,27.344,10.966c10.242-0.33,19.885-4.932,26.58-12.692L192.863,473.957z"/>
	<path style="fill:#A09D80;" d="M418.121,229.8l-20.905,20.905c-15.237,15.237-39.944,15.242-55.181,0.006l-6.665-6.665
		c-15.237-15.237-15.237-39.949,0-55.187l28.846-28.846l0.017,0.017l-7.94,7.94c-10.872,10.873-10.879,28.498,0,39.364
		l22.464,22.464C389.624,240.668,407.248,240.673,418.121,229.8z"/>
</g>
<path d="M163.161,232.095l56.66,26.483c1.011,0.473,2.095,0.706,3.175,0.706c1.462,0,2.916-0.427,4.171-1.266
	c2.182-1.459,3.441-3.953,3.322-6.575l-2.839-62.479c30.27-40.084,31.918-94.603,3.852-136.567
	c-17.51-26.182-44.169-43.976-75.062-50.107c-30.894-6.129-62.326,0.137-88.508,17.645c-17.149,11.47-31.021,27.255-40.116,45.648
	c-8.818,17.834-13.017,37.771-12.143,57.655c0.183,4.139,3.724,7.348,7.822,7.163c4.139-0.182,7.346-3.684,7.164-7.822
	c-1.597-36.295,15.454-70.007,45.613-90.177c47.17-31.549,111.214-18.839,142.762,28.332c24.959,37.317,22.999,86.007-4.876,121.158
	c-1.125,1.417-1.698,3.193-1.616,5l2.401,52.848l-47.926-22.4c-1.64-0.766-3.498-0.915-5.239-0.416
	c-43.129,12.34-88.879-4.441-113.838-41.759c-5.21-7.789-9.327-16.218-12.239-25.056c-1.295-3.934-5.532-6.072-9.471-4.776
	c-3.934,1.296-6.072,5.536-4.775,9.47c3.337,10.128,8.054,19.784,14.017,28.701C63.538,225.468,114.552,244.766,163.161,232.095z"/>
<path d="M54.392,121.957c0,43.612,35.48,79.092,79.093,79.092c43.611,0,79.092-35.48,79.092-79.092c0-6.108-0.7-12.194-2.08-18.092
	c-0.944-4.034-4.989-6.535-9.012-5.594c-4.033,0.944-6.537,4.979-5.594,9.012c1.118,4.779,1.686,9.716,1.686,14.674
	c0,35.341-28.752,64.093-64.093,64.093s-64.094-28.752-64.094-64.093s28.753-64.093,64.094-64.093c5.15,0,10.236,0.611,15.163,1.806
	l-8.113,1.856c-4.038,0.924-6.563,4.946-5.639,8.984c0.925,4.037,4.949,6.564,8.984,5.638l30.277-6.928
	c4.853-1.115,7.319-6.824,4.788-11.119l-15.591-26.449c-2.104-3.569-6.704-4.756-10.27-2.652c-3.568,2.104-4.756,6.701-2.652,10.27
	l3.74,6.345c-6.696-1.81-13.641-2.749-20.688-2.749C89.873,42.865,54.392,78.345,54.392,121.957z"/>
<path d="M95.898,141.52c-1.549,2.299-1.702,5.266-0.4,7.713c1.303,2.447,3.849,3.977,6.621,3.977h32.58c4.143,0,7.5-3.358,7.5-7.5
	c0-4.142-3.357-7.5-7.5-7.5h-18.486l15.89-23.594c3.299-4.899,3.617-10.926,0.852-16.123c-2.843-5.341-8.45-8.659-14.635-8.659
	h-2.313c-11.792,0-21.386,9.273-21.386,20.67c0,4.142,3.357,7.5,7.5,7.5s7.5-3.358,7.5-7.5c0-3.127,2.865-5.671,6.387-5.671h2.313
	c0.919,0,1.281,0.494,1.395,0.706c0.171,0.321,0.082,0.499-0.052,0.698L95.898,141.52z"/>
<path d="M167.812,153.209c4.143,0,7.5-3.358,7.5-7.5v-22.738V97.334c0-4.142-3.357-7.5-7.5-7.5s-7.5,3.358-7.5,7.5v18.137h-6.899
	V97.334c0-4.142-3.357-7.5-7.5-7.5c-4.143,0-7.5,3.358-7.5,7.5v25.637c0,4.142,3.357,7.5,7.5,7.5h14.398v15.238
	C160.313,149.851,163.67,153.209,167.812,153.209z"/>
<path d="M492.771,184.143c-1.643-6.551-6.51-11.537-13.02-13.337c-6.497-1.797-13.215-0.026-17.977,4.735l-48.957,48.956
	c-7.928,7.93-20.83,7.929-28.758,0l-22.467-22.467c-3.843-3.838-5.958-8.943-5.958-14.373c0.001-5.432,2.117-10.54,5.961-14.382
	l48.359-48.359c4.739-4.739,6.539-11.69,4.698-18.143c-1.865-6.537-6.925-11.361-13.535-12.905
	c-12.516-2.921-25.407-3.875-38.316-2.838c-27.329,2.18-55.309,15.961-76.764,37.811c-21.45,21.845-34.728,50.071-36.43,77.439
	c-1.187,19.031,1.92,37.53,9.238,55.076l-66.11,56.81c-3.142,2.7-3.5,7.435-0.801,10.577c1.483,1.726,3.581,2.612,5.691,2.612
	c1.73,0,3.47-0.596,4.885-1.812l70.338-60.442c2.558-2.197,3.334-5.831,1.898-8.881c-7.895-16.779-11.315-34.612-10.169-53.007
	c3.106-49.95,49.562-97.254,99.421-101.23c11.363-0.915,22.707-0.076,33.708,2.493c1.71,0.399,2.314,1.685,2.523,2.416
	c0.169,0.594,0.423,2.117-0.882,3.421l-48.359,48.359c-6.675,6.676-10.353,15.549-10.354,24.987
	c-0.001,9.441,3.678,18.314,10.354,24.984l22.465,22.464c13.776,13.776,36.193,13.776,49.971,0l48.957-48.956
	c1.238-1.238,2.643-1.085,3.371-0.885c0.594,0.164,2.021,0.739,2.468,2.52c2.795,11.208,3.779,22.82,2.926,34.513
	c-2.522,34.62-25.87,68.987-59.48,87.553c-3.626,2.003-4.941,6.565-2.939,10.191c2.003,3.625,6.566,4.941,10.191,2.938
	c37.935-20.954,64.308-60.046,67.189-99.592C497.074,210.106,495.953,196.907,492.771,184.143z"/>
<path d="M393.426,320.592c-4.525,0.98-9.08,1.618-13.536,1.896c-17.63,1.098-34.828-2.033-51.113-9.303
	c-3.023-1.348-6.572-0.557-8.735,1.948l-148.25,171.757c-5.309,6.154-13.014,9.833-21.139,10.096
	c-8.13,0.256-16.062-2.921-21.755-8.725l-29.002-29.536c-5.63-5.731-8.666-13.627-8.33-21.662
	c0.34-8.042,4.033-15.657,10.134-20.895l78.287-67.275c3.142-2.7,3.5-7.435,0.801-10.577c-2.7-3.141-7.435-3.498-10.576-0.8
	l-78.286,67.274c-9.238,7.932-14.831,19.463-15.346,31.644c-0.509,12.167,4.089,24.124,12.613,32.803l29,29.533
	c8.294,8.455,19.722,13.231,31.548,13.23c0.463,0,0.928-0.007,1.392-0.022c12.308-0.397,23.978-5.97,32.016-15.288l144.688-167.631
	c16.975,6.708,34.768,9.534,52.986,8.4c5.21-0.325,10.519-1.067,15.779-2.207c4.048-0.877,6.619-4.869,5.742-8.917
	C401.468,322.286,397.48,319.717,393.426,320.592z"/>
<path d="M285.621,189.109c2.776,0,5.444-1.548,6.745-4.21c9.618-19.692,25.311-37.055,44.189-48.892
	c3.509-2.201,4.57-6.829,2.37-10.338c-2.2-3.51-6.829-4.569-10.339-2.371c-21.219,13.304-38.869,32.844-49.699,55.018
	c-1.817,3.722-0.274,8.213,3.448,10.031C283.396,188.864,284.517,189.109,285.621,189.109z"/>
<g>
</g>
<g>
</g>
<g>
</g>
<g>
</g>
<g>
</g>
<g>
</g>
<g>
</g>
<g>
</g>
<g>
</g>
<g>
</g>
<g>
</g>
<g>
</g>
<g>
</g>
<g>
</g>
<g>
</g>
</svg>
