<?xml version="1.0" encoding="iso-8859-1"?>
<!-- Generator: Adobe Illustrator 19.0.0, SVG Export Plug-In . SVG Version: 6.00 Build 0)  -->
<svg version="1.1" id="Capa_1" xmlns="http://www.w3.org/2000/svg" xmlns:xlink="http://www.w3.org/1999/xlink" x="0px" y="0px"
	 viewBox="0 0 512.001 512.001" style="enable-background:new 0 0 512.001 512.001;" xml:space="preserve">
<polygon style="fill:#C19476;" points="134.178,195.528 105.851,258.256 149.708,258.256 149.708,195.528 "/>
<polygon style="fill:#D8AD8F;" points="370.783,435.761 138.552,504.5 205.418,406.402 205.418,247.384 334.747,247.384 
	334.747,395.061 335.038,395.391 "/>
<g>
	<path style="fill:#C19476;" d="M334.75,247.38v45.83c-2.36,1.46-4.76,2.85-7.2,4.2l-118.27,65.27h-3.86v-115.3L334.75,247.38
		L334.75,247.38z"/>
	<path style="fill:#C19476;" d="M370.783,435.761L138.552,504.5l196.055-109.359c-0.36,0.22-0.19,0.29,0.431,0.25L370.783,435.761z"
		/>
</g>
<path style="fill:#EFCDB1;" d="M406.15,138.843C406.15,66.304,345.246,7.5,270.118,7.5c-75.129,0-136.032,58.804-136.032,131.343
	c0,2.487,0.217,130.414,0.309,184.791c0.023,13.288,10.801,24.044,24.088,24.044h46.937l114.879-63.398
	C373.263,255.051,406.15,199.338,406.15,138.843L406.15,138.843z"/>
<circle style="fill:#8BCC3F;" cx="282.66" cy="126.81" r="85.22"/>
<circle style="fill:#E5E4D3;" cx="297.76" cy="108.58" r="33.13"/>
<path d="M342.25,392.22V279.157c44.497-32.409,71.399-84.41,71.399-140.313C413.65,62.285,349.261,0,270.118,0
	c-79.144,0-143.532,62.285-143.532,138.843c0,1.032,0.037,23.244,0.09,55.08l-27.66,61.249c-1.048,2.321-0.847,5.016,0.535,7.155
	c1.381,2.14,3.754,3.432,6.301,3.432h20.946c0.033,19.254,0.066,38.995,0.098,57.888c0.029,17.386,14.2,31.531,31.588,31.531h39.438
	v48.909l-65.567,96.189c-1.786,2.621-1.731,6.081,0.138,8.644c1.437,1.97,3.706,3.081,6.06,3.081c0.708,0,1.425-0.101,2.128-0.309
	l68.34-20.23c3.972-1.176,6.238-5.349,5.063-9.32s-5.344-6.237-9.32-5.063l-48.161,14.256l55.017-80.711
	c0.849-1.245,1.303-2.717,1.303-4.224v-54.295l45.597-25.163c3.626-2.001,4.943-6.563,2.942-10.19
	c-2.001-3.625-6.563-4.942-10.19-2.942l-47.781,26.369h-45.005c-9.131,0-16.573-7.427-16.588-16.556
	c-0.012-6.817-0.023-13.745-0.035-20.719h38.732c4.142,0,7.5-3.358,7.5-7.5s-3.358-7.5-7.5-7.5h-38.758
	c-0.124-73.428-0.248-147.168-0.248-149.06C141.585,70.556,199.245,15,270.118,15S398.65,70.556,398.65,138.843
	c0,57.754-31.411,110.966-81.976,138.871l-35.857,19.789c-3.626,2.001-4.943,6.563-2.942,10.19c2.001,3.626,6.563,4.944,10.19,2.942
	l35.857-19.789c1.123-0.62,2.223-1.269,3.328-1.911V395.06c0,1.822,0.663,3.582,1.866,4.951l28.24,31.901l-123.045,36.426
	c-3.972,1.176-6.238,5.349-5.063,9.32c0.965,3.262,3.952,5.373,7.188,5.373c0.705,0,1.421-0.1,2.132-0.311l134.34-39.77
	c2.458-0.728,4.374-2.661,5.081-5.125c0.706-2.464,0.104-5.119-1.595-7.038L342.25,392.22z M117.467,250.76l9.27-20.526
	c0.011,6.683,0.023,13.547,0.035,20.526H117.467z"/>
<path d="M207.986,148.364c-1.147-3.98-5.301-6.276-9.283-5.131c-3.98,1.147-6.277,5.303-5.131,9.283
	c11.368,39.46,48.002,67.019,89.086,67.019c51.128,0,92.723-41.595,92.723-92.723s-41.595-92.724-92.723-92.724
	c-48.533,0-89.155,37.903-92.479,86.29c-0.284,4.132,2.836,7.712,6.968,7.997c4.142,0.285,7.713-2.836,7.997-6.968
	c2.786-40.552,36.834-72.318,77.514-72.318c42.856,0,77.723,34.867,77.723,77.724c0,42.856-34.866,77.723-77.723,77.723
	C248.221,204.536,217.514,181.437,207.986,148.364z"/>
<path d="M231.122,175.224c1.464,1.464,3.384,2.197,5.303,2.197s3.839-0.732,5.303-2.197l33.101-33.101
	c6.703,4.604,14.626,7.089,22.934,7.089c10.853,0,21.056-4.227,28.729-11.9h-0.001c7.675-7.674,11.901-17.877,11.901-28.729
	s-4.227-21.056-11.9-28.729s-17.877-11.9-28.729-11.9s-21.056,4.227-28.73,11.9c-14.029,14.029-15.623,35.845-4.804,51.656
	l-33.108,33.108C228.193,167.546,228.193,172.295,231.122,175.224z M279.64,90.459c4.842-4.841,11.278-7.507,18.124-7.507
	s13.282,2.666,18.123,7.507s7.507,11.277,7.507,18.123s-2.666,13.282-7.507,18.123c-0.001,0-0.001,0-0.001,0
	c-4.84,4.841-11.276,7.507-18.122,7.507s-13.282-2.666-18.123-7.507C269.648,116.712,269.648,100.453,279.64,90.459z"/>
<g>
</g>
<g>
</g>
<g>
</g>
<g>
</g>
<g>
</g>
<g>
</g>
<g>
</g>
<g>
</g>
<g>
</g>
<g>
</g>
<g>
</g>
<g>
</g>
<g>
</g>
<g>
</g>
<g>
</g>
</svg>
