<?xml version="1.0" encoding="iso-8859-1"?>
<!-- Generator: Adobe Illustrator 19.0.0, SVG Export Plug-In . SVG Version: 6.00 Build 0)  -->
<svg version="1.1" id="Capa_1" xmlns="http://www.w3.org/2000/svg" xmlns:xlink="http://www.w3.org/1999/xlink" x="0px" y="0px"
	 viewBox="0 0 512 512" style="enable-background:new 0 0 512 512;" xml:space="preserve">
<polygon style="fill:#F26200;" points="102.441,448.546 118.959,432.028 140.014,453.082 156.532,436.563 135.478,415.509 
	151.997,398.991 173.051,420.045 189.569,403.526 133.61,347.567 51.017,430.159 106.977,486.119 123.495,469.6 "/>
<path style="fill:#E5E4D3;" d="M240.535,423.635c10.79,54.373,63.615,89.703,117.988,78.912s89.703-63.615,78.912-117.988
	c-8.704-43.859-44.761-75.322-86.917-80.187l-40.024-43.833l-20.252,55.796C253.14,336.929,231.83,379.775,240.535,423.635z"/>
<rect x="298.622" y="384.678" style="fill:#FEC007;" width="79.325" height="57.057"/>
<rect x="-1.67" y="285.034" transform="matrix(-0.7071 0.7071 -0.7071 -0.7071 518.436 391.2253)" style="fill:#FE9700;" width="359.725" height="35.901"/>
<path style="fill:#F26200;" d="M288.069,167.723l-20.007,20.007c3.747,4.609,7.764,9.056,12.042,13.335
	c4.279,4.279,8.734,8.304,13.343,12.05l20.007-20.007L288.069,167.723z"/>
<path style="fill:#FEC007;" d="M431.062,50.115C383.056,2.108,313.965-6.633,276.743,30.589
	c-37.222,37.222-28.48,106.313,19.526,154.319s117.097,56.748,154.319,19.526C487.81,167.212,479.068,98.121,431.062,50.115z
	 M314.615,166.562c-34.938-34.938-41.301-85.221-14.21-112.311c27.089-27.089,77.372-20.728,112.31,14.211
	s41.301,85.222,14.211,112.311C399.836,207.862,349.553,201.5,314.615,166.562z"/>
<path d="M444.791,383.099c-8.973-45.218-45.193-79.377-90.589-85.814l-38.17-41.804c-1.77-1.938-4.426-2.81-6.999-2.299
	c-2.575,0.511-4.694,2.331-5.59,4.798l-19.313,53.211c-39.498,23.284-59.927,68.685-50.954,113.904
	c5.609,28.262,21.888,52.648,45.837,68.666c17.959,12.011,38.616,18.24,59.745,18.239c7.048,0,14.152-0.694,21.221-2.097
	c40.729-8.083,73.572-39.347,83.67-79.649c1.007-4.018-1.434-8.091-5.452-9.097c-4.014-1.009-8.091,1.433-9.097,5.452
	c-8.696,34.703-36.974,61.622-72.041,68.582c-24.333,4.828-49.089-0.107-69.708-13.897c-20.62-13.791-34.635-34.787-39.464-59.119
	c-7.886-39.738,10.597-79.637,45.993-99.284c1.582-0.878,2.792-2.298,3.41-3.999l16.022-44.143l31.665,34.681
	c1.22,1.336,2.881,2.186,4.679,2.394c40.216,4.642,72.535,34.459,80.42,74.197c0.862,4.345,1.42,8.807,1.658,13.266
	c0.22,4.136,3.724,7.307,7.889,7.09c4.136-0.22,7.311-3.752,7.09-7.889C446.439,393.318,445.792,388.142,444.791,383.099z"/>
<path d="M338.282,352.242c5.601,0,10.156,4.556,10.156,10.156c0,4.142,3.358,7.5,7.5,7.5s7.5-3.358,7.5-7.5
	c0-13.871-11.284-25.156-25.156-25.156c-13.871,0-25.156,11.284-25.156,25.156v14.777h-14.505c-4.142,0-7.5,3.358-7.5,7.5v57.056
	c0,4.142,3.358,7.5,7.5,7.5h79.321c4.142,0,7.5-3.358,7.5-7.5v-57.056c0-4.142-3.358-7.5-7.5-7.5h-49.817v-14.777
	C328.125,356.798,332.681,352.242,338.282,352.242z M370.442,434.231H306.12v-42.057h64.322V434.231z"/>
<path d="M480.226,130.377c-3.896-30.789-19.473-61.176-43.86-85.565S381.589,4.846,350.8,0.95
	c-31.5-3.988-59.682,4.658-79.36,24.335c-19.678,19.678-28.32,47.862-24.335,79.359c2.92,23.078,12.403,45.929,27.239,66.199
	l-78.643,78.633c-2.929,2.929-2.929,7.678,0,10.606c1.465,1.464,3.384,2.197,5.304,2.197c1.919,0,3.838-0.732,5.303-2.196
	l77.503-77.493c2.294,2.597,4.677,5.141,7.156,7.62c2.482,2.482,5.03,4.862,7.629,7.152l-157.591,157.6l-77.3,77.29l-14.775-14.781
	l136.49-136.488c2.929-2.929,2.929-7.678,0-10.605c-2.928-2.929-7.677-2.929-10.605,0L33.022,412.169
	c-1.407,1.406-2.197,3.314-2.197,5.303s0.79,3.897,2.197,5.303l25.377,25.387c0.068,0.068,0.142,0.127,0.212,0.192l43.066,43.066
	c1.464,1.464,3.384,2.197,5.303,2.197c1.919,0,3.839-0.732,5.303-2.197l16.519-16.519c1.407-1.407,2.197-3.314,2.197-5.304
	c0-1.989-0.791-3.897-2.198-5.304l-15.753-15.746l5.914-5.913l15.755,15.748c2.931,2.928,7.678,2.927,10.604-0.001l16.519-16.519
	c1.407-1.407,2.197-3.314,2.197-5.304c0-1.989-0.791-3.897-2.198-5.304l-15.753-15.746l5.912-5.912l15.746,15.746
	c2.929,2.929,7.678,2.929,10.605,0l16.519-16.519c2.929-2.929,2.929-7.678,0-10.605l-37.955-37.955l153.448-153.456
	c25.073,18.282,53.821,28.194,80.844,28.193c12.381,0,24.404-2.081,35.539-6.388c3.863-1.494,5.784-5.837,4.29-9.7
	s-5.837-5.785-9.7-4.29c-36.548,14.138-84.677,0.063-119.761-35.02c-45.005-45.005-53.765-109.475-19.526-143.714
	c34.239-34.238,98.708-25.479,143.714,19.526c45.005,45.005,53.765,109.475,19.526,143.714c-0.192,0.192-0.389,0.379-0.584,0.566
	l-0.312,0.299c-2.981,2.875-3.066,7.624-0.191,10.604c2.875,2.981,7.623,3.066,10.604,0.191l0.271-0.26
	c0.274-0.262,0.548-0.525,0.817-0.795C475.569,190.058,484.211,161.875,480.226,130.377z M173.046,409.436L157.3,393.689
	c-2.929-2.929-7.678-2.929-10.605,0l-16.519,16.519c-1.407,1.407-2.197,3.315-2.197,5.304c0,1.989,0.791,3.897,2.198,5.304
	l15.753,15.746l-5.914,5.913l-15.755-15.748c-2.93-2.927-7.677-2.926-10.604,0.001l-16.519,16.519
	c-1.407,1.407-2.197,3.314-2.197,5.304c0,1.989,0.791,3.897,2.198,5.304l15.753,15.746l-5.912,5.912L74.318,442.85l71.989-71.98
	l32.652,32.651L173.046,409.436z"/>
<path d="M450.521,126.618c-2.892-22.855-14.435-45.392-32.503-63.46s-40.606-29.611-63.46-32.503
	c-23.564-2.984-44.679,3.515-59.457,18.292s-21.274,35.893-18.292,59.457c2.892,22.855,14.435,45.392,32.503,63.46
	c21.76,21.76,49.256,33.107,74.397,33.106c18.54-0.001,35.8-6.175,48.52-18.895C447.007,171.297,453.503,150.183,450.521,126.618z
	 M421.623,175.469c-9.866,9.865-23.325,14.63-37.978,14.629c-21.175-0.001-44.839-9.953-63.727-28.84
	c-15.727-15.727-25.753-35.166-28.228-54.737c-2.386-18.862,2.592-35.542,14.018-46.968c9.866-9.866,23.325-14.629,37.978-14.629
	c21.175,0,44.839,9.953,63.727,28.84C439.371,105.722,445.746,151.347,421.623,175.469z"/>
<path d="M330.782,415.199v5.134c0,4.142,3.358,7.5,7.5,7.5s7.5-3.358,7.5-7.5v-5.134c2.216-1.303,3.707-3.706,3.707-6.462
	c0-4.142-3.358-7.5-7.5-7.5h-7.414c-4.142,0-7.5,3.358-7.5,7.5C327.076,411.493,328.567,413.895,330.782,415.199z"/>
<g>
</g>
<g>
</g>
<g>
</g>
<g>
</g>
<g>
</g>
<g>
</g>
<g>
</g>
<g>
</g>
<g>
</g>
<g>
</g>
<g>
</g>
<g>
</g>
<g>
</g>
<g>
</g>
<g>
</g>
</svg>
