<?xml version="1.0" encoding="iso-8859-1"?>
<!-- Generator: Adobe Illustrator 19.0.0, SVG Export Plug-In . SVG Version: 6.00 Build 0)  -->
<svg version="1.1" id="Capa_1" xmlns="http://www.w3.org/2000/svg" xmlns:xlink="http://www.w3.org/1999/xlink" x="0px" y="0px"
	 viewBox="0 0 512.001 512.001" style="enable-background:new 0 0 512.001 512.001;" xml:space="preserve">
<path style="fill:#D8AD8F;" d="M147.194,439.821l1.122,1.122c5.848,5.848,15.327,5.848,21.175,0l3.825-3.825
	c-5.716,5.716-5.72,14.987-0.005,20.703l1.595,1.595c5.716,5.716,14.987,5.711,20.703-0.005l3.021-3.021
	c-5.614,5.614-5.614,14.713,0,20.327l1.97,1.97c5.614,5.614,14.713,5.614,20.327,0l6.148-6.148c-5.393,5.393-5.393,14.139,0,19.532
	l2.761,2.761c5.393,5.393,14.139,5.393,19.532,0l131.738-131.738c5.415-5.415,8.693-12.606,9.223-20.248
	c0.132-1.846,0.587-3.635,1.347-5.296c0.751-1.661,1.802-3.18,3.11-4.488l36.573-36.573l-72.828-72.828l-29.629,29.63
	c-1.506,1.506-3.114,2.884-4.815,4.126c-7.734,5.685-17.253,8.569-26.961,8.048c-23.587-1.281-62.983-4.103-79.224-9.267
	c-3.565-1.135-9.501,8.388-9.501,8.388c-2.8,9.797,1.449,20.239,10.292,25.301l40.756,16.506L147.194,418.646
	C141.346,424.494,141.346,433.973,147.194,439.821z"/>
<g>
	<path style="fill:#C19476;" d="M236.151,481.613l131.738-131.738c5.415-5.415,8.693-12.606,9.223-20.248
		c0.132-1.846,0.587-3.635,1.347-5.296c0.751-1.661,1.802-3.18,3.11-4.488l36.573-36.573l13.218,13.218l-36.573,36.573
		c-1.307,1.307-2.359,2.827-3.11,4.488c-0.76,1.661-1.215,3.45-1.347,5.296c-0.53,7.641-3.807,14.832-9.223,20.248L249.369,494.831
		c-5.393,5.393-14.139,5.393-19.532,0l-2.761-2.761c-1.924-1.924-3.158-4.275-3.709-6.748
		C227.826,486.316,232.682,485.083,236.151,481.613z"/>
	<path style="fill:#C19476;" d="M324.087,257.415l73.173,73.173l34.1-34.1l-72.828-72.828l-29.629,29.63
		C327.396,254.796,325.788,256.174,324.087,257.415z"/>
</g>
<rect x="334.217" y="238.614" transform="matrix(0.7071 0.7071 -0.7071 0.7071 300.1648 -201.6841)" style="fill:#3F51B4;" width="118.639" height="45.75"/>
<rect x="414.314" y="271.774" transform="matrix(0.7071 0.7071 -0.7071 0.7071 333.3315 -215.4358)" style="fill:#21399B;" width="24.811" height="45.75"/>
<rect x="367.392" y="186.253" transform="matrix(0.7071 0.7071 -0.7071 0.7071 283.9025 -240.9565)" style="fill:#FE6C2B;" width="130.839" height="71.939"/>
<rect x="452.682" y="221.585" transform="matrix(0.7071 0.7071 -0.7071 0.7071 319.2331 -255.5873)" style="fill:#E25218;" width="30.911" height="71.939"/>
<path style="fill:#F9E8D4;" d="M364.806,426.944l-1.122,1.122c-5.848,5.848-15.327,5.848-21.175,0l-3.825-3.825
	c5.716,5.716,5.72,14.987,0.005,20.703l-1.595,1.595c-5.716,5.716-14.987,5.711-20.703-0.005l-3.021-3.021
	c5.614,5.614,5.614,14.713,0,20.327l-1.97,1.97c-5.614,5.614-14.713,5.614-20.327,0l-6.148-6.148c5.393,5.393,5.393,14.139,0,19.532
	l-2.761,2.761c-5.393,5.393-14.139,5.393-19.532,0L130.894,350.216c-5.415-5.415-8.693-12.606-9.223-20.248
	c-0.132-1.846-0.587-3.635-1.347-5.296c-0.751-1.661-1.802-3.18-3.11-4.488l-36.573-36.573l72.828-72.828l29.629,29.63
	c1.506,1.506,3.114,2.884,4.815,4.126c7.734,5.685,17.253,8.569,26.961,8.048c23.587-1.281,62.983-4.103,79.224-9.267
	c3.565-1.135,9.501,8.388,9.501,8.388c2.801,9.797-1.449,20.239-10.292,25.301l-40.756,16.506L364.806,405.77
	C370.655,411.617,370.654,421.096,364.806,426.944z"/>
<g>
	<path style="fill:#EFCDB1;" d="M275.849,468.737L144.111,336.999c-5.415-5.415-8.693-12.606-9.223-20.248
		c-0.132-1.846-0.587-3.635-1.347-5.296c-0.751-1.661-1.802-3.18-3.11-4.488l-36.573-36.573L80.64,283.612l36.573,36.573
		c1.307,1.307,2.359,2.827,3.11,4.488c0.76,1.661,1.215,3.45,1.347,5.296c0.53,7.641,3.808,14.832,9.223,20.248l131.738,131.738
		c5.393,5.393,14.139,5.393,19.532,0l2.761-2.761c1.924-1.924,3.158-4.275,3.709-6.748
		C284.174,473.44,279.319,472.206,275.849,468.737z"/>
	<path style="fill:#EFCDB1;" d="M187.913,244.539l-73.173,73.173l-34.1-34.1l72.828-72.828l29.629,29.63
		C184.605,241.919,186.213,243.297,187.913,244.539z"/>
</g>
<rect x="59.142" y="225.731" transform="matrix(-0.7071 0.7071 -0.7071 -0.7071 378.0169 340.6312)" style="fill:#CAEDFF;" width="118.639" height="45.75"/>
<rect x="72.874" y="258.902" transform="matrix(-0.7071 0.7071 -0.7071 -0.7071 344.8266 420.722)" style="fill:#76C2E0;" width="24.811" height="45.75"/>
<rect x="13.773" y="173.367" transform="matrix(-0.7071 0.7071 -0.7071 -0.7071 283.2125 301.3619)" style="fill:#8BCC3F;" width="130.839" height="71.939"/>
<rect x="28.406" y="208.701" transform="matrix(-0.7071 0.7071 -0.7071 -0.7071 247.8847 386.6632)" style="fill:#75AC35;" width="30.911" height="71.939"/>
<path style="fill:#FEC007;" d="M353.871,110.127l1.606,35.336l-32.047-14.975c-21.466,6.142-45.056-0.214-60.48-17.031
	c-1.117-1.214-2.189-2.484-3.209-3.808c-0.862-1.109-1.687-2.254-2.481-3.435c-14.7-21.98-12.912-50.166,2.472-69.961
	c1.165-1.497,2.412-2.95,3.731-4.346c3.023-3.201,6.45-6.114,10.266-8.667c27.462-18.366,64.612-10.994,82.978,16.464
	C371.521,61.858,369.586,90.312,353.871,110.127z"/>
<path style="fill:#FB4239;" d="M254.737,106.216c18.366-27.461,10.994-64.611-16.467-82.977
	c-27.46-18.366-64.61-10.993-82.976,16.467c-14.815,22.151-12.879,50.604,2.836,70.42l-1.606,35.339l32.047-14.979
	C212.886,137.443,239.922,128.367,254.737,106.216z"/>
<path d="M509.804,237.734l-40.651-40.651c-2.93-2.929-7.678-2.929-10.607,0s-2.929,7.678,0,10.606l35.349,35.348L453.631,283.3
	l-81.913-81.913l40.263-40.263l25.671,25.671c2.93,2.929,7.678,2.929,10.607,0s2.929-7.678,0-10.606l-30.975-30.975
	c-1.407-1.407-3.314-2.197-5.304-2.197s-3.896,0.79-5.304,2.197l-50.869,50.87c-2.592,2.592-2.885,6.607-0.89,9.527l-24.801,24.793
	c-1.406,1.406-2.197,3.314-2.197,5.304s0.79,3.897,2.196,5.304l0.227,0.227l-6.75,6.75c-3.356,3.362-7.365,5.957-11.732,7.667
	c-0.148-2.018-0.484-4.031-1.052-6.012c-0.192-0.671-0.478-1.313-0.847-1.905c-4.115-6.596-10.6-13.96-18.139-11.567
	c-11.548,3.676-39.021,6.847-77.359,8.927c-9.672,0.524-19.192-3.117-26.062-9.994l-6.747-6.747l0.227-0.227
	c2.929-2.929,2.929-7.678,0-10.606l-24.797-24.797c1.991-2.919,1.695-6.93-0.895-9.52l-50.869-50.87
	c-1.407-1.407-3.314-2.197-5.304-2.197s-3.896,0.79-5.304,2.197l-33.413,33.413c-2.929,2.929-2.929,7.678,0,10.606
	c2.93,2.929,7.678,2.929,10.607,0l28.109-28.11l40.263,40.263l-81.913,81.913L18.107,230.16l32.91-32.91
	c2.929-2.929,2.929-7.678,0-10.606c-2.93-2.929-7.678-2.929-10.607,0L2.197,224.857c-2.929,2.929-2.929,7.678,0,10.606l50.869,50.87
	c1.407,1.407,3.314,2.197,5.304,2.197c1.517,0,2.985-0.462,4.222-1.305l24.796,24.796c1.407,1.407,3.314,2.197,5.304,2.197
	s3.896-0.79,5.304-2.197l0.226-0.226l13.696,13.696c0.65,0.65,1.204,1.45,1.579,2.265c0.388,0.857,0.627,1.805,0.692,2.731
	c0.656,9.449,4.704,18.339,11.398,25.034l37.066,37.066l-20.769,20.762c-8.744,8.759-8.744,23.01,0.027,31.795l1.103,1.093
	c4.241,4.249,9.884,6.588,15.889,6.588c1.092,0,2.173-0.078,3.235-0.23c0.914,3.866,2.876,7.533,5.888,10.544l1.578,1.567
	c4.179,4.187,9.737,6.492,15.653,6.492c0.718,0,1.431-0.034,2.136-0.101c0.863,4.111,2.896,7.887,5.935,10.924l1.971,1.971
	c5.805,5.805,14.095,7.652,21.488,5.552c1.049,2.913,2.737,5.583,4.991,7.837l2.75,2.75c4.029,4.028,9.384,6.247,15.078,6.247
	c5.697,0,11.051-2.22,15.066-6.245l8.679-8.673c2.857,1.336,5.943,2.028,9.04,2.028c5.46,0,10.926-2.079,15.093-6.237l2.739-2.75
	c2.255-2.255,3.943-4.925,4.992-7.836c7.393,2.104,15.685,0.252,21.489-5.554l1.969-1.969c3.041-3.041,5.076-6.819,5.938-10.932
	c6.369,0.608,12.922-1.509,17.765-6.351l1.623-1.612c3.004-3.009,4.96-6.675,5.87-10.541c6.778,0.976,13.917-1.137,19.115-6.335
	l1.129-1.129c8.755-8.754,8.757-23.007-0.001-31.779l-7.88-7.879l24.183-24.183c6.694-6.695,10.742-15.589,11.397-25.038
	c0.066-0.938,0.299-1.855,0.678-2.694c0.396-0.864,0.939-1.647,1.593-2.307l13.696-13.689l0.228,0.227
	c1.465,1.464,3.384,2.197,5.304,2.197c1.919,0,3.838-0.732,5.303-2.196l24.804-24.796c1.268,0.864,2.74,1.3,4.214,1.3
	c1.919,0,3.839-0.732,5.304-2.197l50.869-50.869C512.733,245.412,512.733,240.663,509.804,237.734z M73.293,276.713l73.283-73.283
	l19.398,19.397l-0.222,0.222c-0.002,0.002-0.003,0.003-0.005,0.005s-0.003,0.003-0.005,0.005l-72.815,72.816
	c-0.003,0.003-0.007,0.006-0.01,0.009s-0.006,0.007-0.009,0.01l-0.216,0.216L73.293,276.713z M158.902,437.825
	c-1.993,0-3.866-0.776-5.301-2.213l-1.103-1.093c-2.91-2.915-2.91-7.657-0.005-10.566l20.766-20.758l11.684,11.684l-16.937,16.937
	c-0.002,0.002-0.003,0.003-0.004,0.005l0,0l-3.813,3.815C162.775,437.047,160.897,437.825,158.902,437.825z M185.256,456.198
	c-1.904,0-3.693-0.742-5.061-2.111l-1.582-1.572c-2.777-2.777-2.778-7.301-0.005-10.089c0.001-0.002,0.003-0.003,0.005-0.005
	l16.937-16.936l11.692,11.692l-13.911,13.904c-0.002,0.002-0.003,0.003-0.005,0.005l0,0l-3.019,3.019
	C188.957,455.454,187.163,456.198,185.256,456.198z M215.631,473.38c-2.687,2.681-7.051,2.683-9.728,0.005l-1.971-1.971
	c-1.296-1.296-2.011-3.023-2.011-4.861s0.715-3.565,2.012-4.862l0,0l13.915-13.908l11.687,11.687l-7.761,7.767L215.631,473.38z
	 M239.605,491.378c-1.688,0-3.275-0.658-4.471-1.854l-2.751-2.75c-1.194-1.195-1.853-2.782-1.853-4.47
	c0-1.682,0.653-3.261,1.84-4.45l0.014-0.013l0.001-0.001l0.001-0.001l7.756-7.763l11.69,11.69l-7.77,7.764
	C242.872,490.722,241.289,491.378,239.605,491.378z M359.506,421.635l-1.13,1.13c-2.909,2.91-7.65,2.907-10.556,0.007l-3.819-3.83
	c-0.001-0.001-0.001-0.001-0.003-0.002c-0.021-0.022-0.045-0.04-0.067-0.061l-84.576-84.577c-2.929-2.929-7.677-2.93-10.607,0
	c-2.929,2.929-2.929,7.678,0,10.606l84.635,84.635c0.014,0.014,0.029,0.025,0.043,0.039c2.74,2.791,2.727,7.293-0.019,10.044
	l-1.619,1.608c-2.78,2.781-7.311,2.778-10.093,0l-2.989-2.99c-0.011-0.011-0.021-0.024-0.032-0.036l-89.441-89.441
	c-2.93-2.929-7.678-2.929-10.607,0s-2.929,7.678,0,10.606l89.42,89.42c0.008,0.008,0.015,0.017,0.023,0.025l0,0
	c1.297,1.297,2.012,3.022,2.012,4.857s-0.715,3.56-2.012,4.857l-1.97,1.97c-2.678,2.678-7.042,2.677-9.724,0l-6.117-6.117
	c-0.01-0.01-0.018-0.021-0.028-0.03l-75.465-75.464c-2.93-2.929-7.678-2.929-10.607,0s-2.929,7.678,0,10.606l75.443,75.442
	c0.006,0.007,0.012,0.014,0.018,0.02c1.195,1.195,1.854,2.781,1.854,4.466s-0.658,3.271-1.864,4.477l-2.734,2.745
	c-2.47,2.464-6.479,2.465-8.925,0.019l-0.192-0.192c-0.003-0.003-0.006-0.007-0.009-0.01c-0.003-0.003-0.007-0.006-0.01-0.009
	l-131.545-131.54c-4.136-4.135-6.637-9.628-7.042-15.475c-0.192-2.724-0.86-5.368-2.009-7.908c-1.147-2.493-2.701-4.729-4.619-6.647
	l-13.697-13.697l62.223-62.223l6.743,6.743c9.875,9.886,23.542,15.125,37.483,14.369c26.616-1.444,61.186-4.137,78.536-8.859
	c0.847,0.89,1.922,2.236,2.825,3.551c0.567,2.669,0.376,5.422-0.568,8.023c-1.127,3.107-3.282,5.746-6.095,7.476l-40.24,16.299
	c-2.332,0.944-4.034,2.994-4.535,5.459c-0.5,2.465,0.269,5.017,2.047,6.795l99.072,99.072l13.184,13.173
	C362.415,413.984,362.417,418.725,359.506,421.635z M389.456,327.775c-1.924,1.939-3.474,4.177-4.621,6.685
	c-1.128,2.496-1.796,5.138-1.987,7.859c-0.404,5.844-2.905,11.34-7.041,15.475l-24.183,24.183l-85.767-85.758l30.268-12.26
	c0.313-0.126,0.618-0.274,0.911-0.443c4.697-2.689,8.535-6.617,11.144-11.293c9.816-1.78,18.93-6.528,26.024-13.632l6.746-6.746
	l62.222,62.222L389.456,327.775z M419.311,308.992l-0.221-0.221c-0.002-0.002-0.003-0.003-0.005-0.005s-0.003-0.003-0.005-0.005
	l-72.817-72.817c-0.003-0.003-0.006-0.007-0.009-0.01s-0.007-0.006-0.01-0.009l-0.216-0.216l19.403-19.396l73.283,73.283
	L419.311,308.992z"/>
<path d="M149.031,145.125c-0.119,2.622,1.141,5.115,3.322,6.575c1.255,0.839,2.709,1.266,4.171,1.266
	c1.08,0,2.164-0.233,3.175-0.706l29.589-13.83c24.715,5.961,50.341-2.455,66.711-21.506c0.476,0.554,0.952,1.094,1.422,1.602
	c12.835,14,31.146,21.726,49.783,21.724c5.179,0,10.385-0.597,15.503-1.821l29.597,13.833c1.011,0.473,2.095,0.706,3.175,0.706
	c1.462,0,2.916-0.427,4.171-1.266c2.182-1.459,3.441-3.953,3.322-6.575l-1.487-32.632c13.308-18.36,16.519-42.521,8.311-63.76
	c-1.494-3.864-5.837-5.788-9.7-4.292c-3.863,1.493-5.785,5.836-4.292,9.699c6.647,17.199,3.654,36.866-7.811,51.327
	c-1.124,1.418-1.697,3.194-1.615,5.001l1.046,22.954l-20.818-9.73c-1.639-0.766-3.5-0.914-5.238-0.417
	c-18.886,5.401-39.646-0.442-52.913-14.914c-0.919-0.992-1.854-2.102-2.785-3.309c-0.308-0.397-0.59-0.78-0.872-1.163
	c10.254-19.785,9.759-42.89-0.009-61.851c0.286-0.39,0.558-0.784,0.857-1.169c1.04-1.334,2.141-2.618,3.261-3.806
	c2.692-2.843,5.721-5.399,8.994-7.593c19.193-12.834,44.959-11.454,62.657,3.357c3.177,2.658,7.907,2.238,10.565-0.938
	c2.658-3.177,2.238-7.907-0.938-10.565c-22.776-19.06-55.93-20.835-80.628-4.318c-4.202,2.816-8.085,6.094-11.552,9.754
	c-0.683,0.725-1.355,1.476-2.017,2.244c-3.87-4.491-8.385-8.548-13.546-12.001c-14.949-9.997-32.893-13.574-50.529-10.074
	S159.056,20.59,149.06,35.537c-15.79,23.607-15.107,54.175,1.454,76.959L149.031,145.125z M161.529,43.876
	c7.769-11.616,19.596-19.511,33.303-22.232c3.43-0.68,6.874-1.017,10.293-1.017c10.247,0,20.267,3.021,28.977,8.846
	c23.979,16.038,30.44,48.595,14.402,72.574c-12.688,18.971-35.95,27.498-57.868,21.229c-1.741-0.499-3.601-0.35-5.239,0.416
	l-20.817,9.729l1.043-22.955c0.082-1.807-0.491-3.583-1.615-5C149.835,87.598,148.84,62.847,161.529,43.876z"/>
<path d="M183.734,83.77c4.143,0,7.5-3.358,7.5-7.5v-1.03c0-4.142-3.357-7.5-7.5-7.5s-7.5,3.358-7.5,7.5v1.03
	C176.234,80.412,179.591,83.77,183.734,83.77z"/>
<path d="M204.972,83.77c4.143,0,7.5-3.358,7.5-7.5v-1.03c0-4.142-3.357-7.5-7.5-7.5s-7.5,3.358-7.5,7.5v1.03
	C197.472,80.412,200.829,83.77,204.972,83.77z"/>
<path d="M226.211,83.77c4.143,0,7.5-3.358,7.5-7.5v-1.03c0-4.142-3.357-7.5-7.5-7.5s-7.5,3.358-7.5,7.5v1.03
	C218.711,80.412,222.069,83.77,226.211,83.77z"/>
<path d="M280.119,75.239v1.03c0,4.142,3.357,7.5,7.5,7.5s7.5-3.358,7.5-7.5v-1.03c0-4.142-3.357-7.5-7.5-7.5
	S280.119,71.097,280.119,75.239z"/>
<path d="M301.358,75.239v1.03c0,4.142,3.357,7.5,7.5,7.5s7.5-3.358,7.5-7.5v-1.03c0-4.142-3.357-7.5-7.5-7.5
	S301.358,71.097,301.358,75.239z"/>
<path d="M322.596,75.239v1.03c0,4.142,3.357,7.5,7.5,7.5s7.5-3.358,7.5-7.5v-1.03c0-4.142-3.357-7.5-7.5-7.5
	S322.596,71.097,322.596,75.239z"/>
<g>
</g>
<g>
</g>
<g>
</g>
<g>
</g>
<g>
</g>
<g>
</g>
<g>
</g>
<g>
</g>
<g>
</g>
<g>
</g>
<g>
</g>
<g>
</g>
<g>
</g>
<g>
</g>
<g>
</g>
</svg>
