<?xml version="1.0" encoding="iso-8859-1"?>
<!-- Generator: Adobe Illustrator 19.0.0, SVG Export Plug-In . SVG Version: 6.00 Build 0)  -->
<svg version="1.1" id="Capa_1" xmlns="http://www.w3.org/2000/svg" xmlns:xlink="http://www.w3.org/1999/xlink" x="0px" y="0px"
	 viewBox="0 0 512 512" style="enable-background:new 0 0 512 512;" xml:space="preserve">
<g>
	<circle style="fill:#D8AD8F;" cx="115.088" cy="211.573" r="23.745"/>
	<circle style="fill:#D8AD8F;" cx="268.13" cy="211.573" r="23.745"/>
</g>
<path style="fill:#E5E4D3;" d="M488.783,166.431c29.663-44.352,17.756-104.353-26.596-134.016S357.835,14.659,328.171,59.011
	c-23.928,35.776-20.8,81.732,4.58,113.736l-2.593,57.075l51.76-24.192C421.188,216.866,464.856,202.207,488.783,166.431z"/>
<polygon style="fill:#D8AD8F;" points="227.722,257.671 155.491,257.671 155.491,356.71 191.548,387.703 191.548,387.804 
	191.606,387.754 191.665,387.804 191.665,387.703 227.722,356.71 "/>
<path style="fill:#F26200;" d="M309.767,364.785l-82.045-26.308l-36.116,25.328l-36.116-25.328l-82.045,26.308
	c-39.284,12.59-65.941,49.131-65.941,90.389v40.685h184.043h0.117h184.043v-40.685C375.708,413.916,349.051,377.375,309.767,364.785
	z"/>
<path style="fill:#EFCDB1;" d="M268.129,147.738v60.895c0,31.843-16.847,61.308-44.283,77.461l-11.313,6.643
	c-12.957,7.601-29.006,7.592-41.953-0.028l-11.218-6.615c-27.437-16.151-44.274-45.618-44.274-77.461v-60.895
	c0-30.603,23.049-55.831,52.73-59.26c2.274-0.272,4.585-0.403,6.934-0.403h33.712C241.417,88.074,268.129,114.786,268.129,147.738z"
	/>
<g>
	<path style="fill:#8B381E;" d="M167.819,88.478c-14.141,57.249-52.73,68.966-52.73,68.966v-9.706
		C115.088,117.136,138.136,91.908,167.819,88.478z"/>
	<path style="fill:#8B381E;" d="M268.129,147.738v40.093c-89.844,0-100.311-99.353-100.311-99.353
		c2.274-0.272,4.585-0.403,6.934-0.403h33.712C241.417,88.074,268.129,114.786,268.129,147.738z"/>
</g>
<polygon style="fill:#B72F00;" points="217.378,363.845 192.197,363.845 191.133,363.845 165.952,363.845 165.952,395 
	174.226,417.166 165.952,495.858 191.133,495.858 192.197,495.858 217.378,495.858 209.103,417.166 217.378,395 "/>
<g>
	<polygon style="fill:#FEC007;" points="191.665,363.845 155.491,406.597 155.491,338.475 	"/>
	<polygon style="fill:#FEC007;" points="191.548,363.845 227.722,406.597 227.722,338.475 	"/>
</g>
<path style="fill:#FE9700;" d="M155.491,338.477v157.378H7.504v-40.689c0-41.259,26.652-77.783,65.939-90.388l27.663-8.871
	L155.491,338.477z"/>
<path style="fill:#F26200;" d="M101.106,355.908l-21.255,8.881c-30.166,12.585-50.631,49.129-50.631,90.388v40.679H7.504v-40.689
	c0-41.259,26.652-77.783,65.939-90.388L101.106,355.908z"/>
<path style="fill:#FE9700;" d="M375.714,455.167v40.689H227.727V338.477l54.375,17.431l27.663,8.871
	C349.052,377.384,375.714,413.908,375.714,455.167z"/>
<path style="fill:#F26200;" d="M375.714,455.167v40.689h-21.726v-40.679c0-41.259-20.464-77.803-50.631-90.388l-21.255-8.881
	l27.663,8.871C349.052,377.384,375.714,413.908,375.714,455.167z"/>
<path d="M505.33,116.133c-4.138-0.459-7.837,2.503-8.301,6.624c-1.599,14.228-6.474,27.518-14.488,39.5
	c-21.609,32.309-61.218,46.836-98.557,36.154c-1.743-0.5-3.604-0.35-5.245,0.417l-40.516,18.937l2.03-44.676
	c0.082-1.809-0.492-3.587-1.618-5.006c-24.133-30.432-25.83-72.587-4.221-104.895c27.314-40.839,82.761-51.842,123.599-24.529
	c19.811,13.251,33.264,33.426,37.879,56.81c0.804,4.068,4.754,6.714,8.822,5.912c4.069-0.803,6.716-4.753,5.913-8.822
	c-5.394-27.325-21.114-50.9-44.264-66.384C418.64-5.743,353.848,7.114,321.93,54.837c-24.719,36.96-23.338,84.948,3.195,120.317
	l-2.469,54.328c-0.119,2.625,1.142,5.121,3.326,6.583c1.257,0.84,2.712,1.268,4.176,1.268c1.081,0,2.167-0.233,3.179-0.707
	l49.268-23.028c8.66,2.229,17.4,3.308,26.045,3.308c34.101-0.001,66.655-16.813,86.374-46.299
	c9.231-13.801,15.084-29.768,16.928-46.172C512.417,120.312,509.451,116.596,505.33,116.133z"/>
<path d="M182.778,237.462h16.286c4.147,0,7.509-3.362,7.509-7.509s-3.362-7.509-7.509-7.509h-8.777v-29.192
	c0-4.147-3.362-7.509-7.509-7.509s-7.509,3.362-7.509,7.509v36.701C175.27,234.1,178.632,237.462,182.778,237.462z"/>
<path d="M346.191,385.986c-3.079,2.778-3.321,7.527-0.543,10.606c14.544,16.111,22.554,36.915,22.554,58.58v33.178H235.233V348.767
	l72.242,23.164c5.825,1.868,11.497,4.377,16.856,7.455c3.595,2.064,8.185,0.826,10.251-2.771c2.065-3.596,0.824-8.186-2.772-10.251
	c-6.274-3.604-12.918-6.542-19.75-8.733l-76.836-24.636v-45.388c15.643-11.312,27.473-27.007,34.173-44.804
	c16.647-0.672,29.984-14.417,29.984-31.225c0-14.646-10.127-26.965-23.745-30.338v-33.5c0-37.039-30.134-67.173-67.173-67.173
	h-33.712c-2.661,0-5.294,0.154-7.796,0.454c-33.851,3.912-59.378,32.595-59.378,66.72v9.622c0,0.023,0,0.047,0,0.07v23.807
	c-13.617,3.374-23.743,15.693-23.743,30.338c0,16.807,13.335,30.553,29.98,31.225c6.698,17.799,18.527,33.495,34.167,44.805v45.388
	L71.147,357.63C28.593,371.278,0,410.477,0,455.172v40.687c0,4.147,3.362,7.509,7.509,7.509h73.476c4.147,0,7.509-3.362,7.509-7.509
	c0-4.147-3.362-7.509-7.509-7.509H15.018v-33.178c0-8.344,1.167-16.463,3.372-24.179c0.63-2.205,1.345-4.376,2.141-6.511
	c0.796-2.135,1.674-4.232,2.63-6.288c10.041-21.588,28.741-38.622,52.575-46.265l43.643-13.994l28.599-9.17v139.583h-37.41
	c-4.147,0-7.509,3.362-7.509,7.509c0,4.147,3.362,7.509,7.509,7.509h265.144c4.148,0,7.509-3.362,7.509-7.509v-40.687
	c0-25.389-9.384-49.767-26.425-68.644C354.015,383.449,349.266,383.209,346.191,385.986z M166.771,299.179
	c7.65,4.501,16.227,6.752,24.808,6.752c8.558,0,17.119-2.24,24.757-6.72l3.873-2.274v37.636l-1.292,0.906l-27.311,19.153
	L163,334.571v-37.615L166.771,299.179z M201.637,417.957l7.399,70.39h-34.743l7.399-70.39c0.121-1.154-0.027-2.321-0.433-3.409
	l-6.932-18.587l17.279-20.42l17.36,20.516l-6.896,18.493C201.664,415.636,201.516,416.802,201.637,417.957z M163,386.097v-29.378
	c0-0.003,0-0.006,0-0.01v-3.796l17.621,12.358L163,386.097z M220.213,356.796v29.301l-17.619-20.823l17.615-12.357v3.792
	C220.208,356.739,220.212,356.767,220.213,356.796z M220.091,409.203l0.124,0.147v41.693l-3.458-32.901L220.091,409.203z
	 M162.996,409.352l0.206-0.244l3.369,9.034l-3.575,34.018V409.352z M284.365,211.576c0,6.914-4.351,12.816-10.451,15.155
	c1.129-5.916,1.725-11.971,1.725-18.098v-11.441C280.819,199.91,284.365,205.332,284.365,211.576z M260.621,147.738v32.316
	c-61.825-4.348-79.485-62.107-84.014-84.471h31.859C237.224,95.583,260.621,118.979,260.621,147.738z M156.967,98.69
	c-9.393,26.895-24.452,40.369-34.314,46.661C123.617,123.993,137.452,105.738,156.967,98.69z M98.853,211.576
	c0-6.242,3.546-11.666,8.725-14.382v11.44c0,6.126,0.595,12.181,1.724,18.097C103.203,224.391,98.853,218.489,98.853,211.576z
	 M122.597,208.633v-20.709c0-0.033,0.005-0.064,0.005-0.097c0-0.033-0.004-0.064-0.005-0.097v-25.251
	c9.593-4.514,29.941-17.113,43.779-47.023c3.24,10.023,8.124,21.797,15.405,33.134c18.293,28.477,45.442,44.446,78.838,46.513
	v13.531c0,29.051-15.551,56.253-40.577,70.985l-11.31,6.641c-10.598,6.216-23.757,6.207-34.339-0.02l-11.223-6.618
	C138.144,264.889,122.597,237.688,122.597,208.633z"/>
<path d="M435.623,99.784c3.699-5.732,5.385-12.385,4.874-19.238c-1.131-15.204-13.449-27.535-28.651-28.682
	c-13.104-0.989-25.499,6.391-30.846,18.362c-1.69,3.787,0.009,8.227,3.796,9.918c3.783,1.691,8.226-0.007,9.918-3.795
	c2.769-6.202,9.189-10.026,16.001-9.51c7.856,0.593,14.22,6.965,14.805,14.824c0.266,3.566-0.604,7.016-2.515,9.977
	c-1.945,3.014-5.072,5.319-8.807,6.494c-10.742,3.379-17.4,6.824-17.4,13.549v22.957c0,4.147,3.361,7.509,7.509,7.509
	c4.148,0,7.509-3.362,7.509-7.509v-19.622c1.371-0.632,3.587-1.52,6.888-2.558C425.773,110.236,431.78,105.734,435.623,99.784z"/>
<path d="M394.75,159.514c0,5.518,4.488,10.006,10.007,10.006c5.518,0,10.006-4.488,10.006-10.006
	c0-5.518-4.488-10.007-10.006-10.007C399.239,149.508,394.75,153.997,394.75,159.514z"/>
<g>
</g>
<g>
</g>
<g>
</g>
<g>
</g>
<g>
</g>
<g>
</g>
<g>
</g>
<g>
</g>
<g>
</g>
<g>
</g>
<g>
</g>
<g>
</g>
<g>
</g>
<g>
</g>
<g>
</g>
</svg>
