<?xml version="1.0" encoding="iso-8859-1"?>
<!-- Generator: Adobe Illustrator 19.0.0, SVG Export Plug-In . SVG Version: 6.00 Build 0)  -->
<svg version="1.1" id="Capa_1" xmlns="http://www.w3.org/2000/svg" xmlns:xlink="http://www.w3.org/1999/xlink" x="0px" y="0px"
	 viewBox="0 0 512 512" style="enable-background:new 0 0 512 512;" xml:space="preserve">
<path style="fill:#CAEDFF;" d="M458.286,209.525c0-111.72-90.567-202.285-202.285-202.285S53.715,97.807,53.715,209.525
	c0,90.118,58.936,166.459,140.362,192.616l61.924,102.354l61.924-102.354C399.351,375.985,458.286,299.644,458.286,209.525z"/>
<path style="fill:#FB4239;" d="M296.912,118.267c-3.382-0.32-6.523-0.48-9.475-0.48c-23.652,0-34.988,10.225-47.995,25.693
	c-12.987-15.468-24.333-25.693-47.985-25.693c-2.962,0-6.103,0.16-9.465,0.48c-20.461,2.001-44.133,20.751-47.014,56.669v11.946
	c2.671,34.378,28.625,76.78,104.464,129.977c4.202-2.941,8.244-5.853,12.146-8.734c53.668-39.64,79.191-73.098,88.386-101.602
	c2.201-6.824,3.472-13.367,3.962-19.64v-11.946C341.045,139.018,317.372,120.268,296.912,118.267z"/>
<g>
	<path style="fill:#E21717;" d="M339.974,206.523c-9.195,28.505-34.718,61.962-88.386,101.602v-56.679
		c0-5.713,4.632-10.345,10.335-10.345h24.242v-24.232c0-5.713,4.632-10.345,10.335-10.345L339.974,206.523L339.974,206.523z"/>
	<path style="fill:#E21717;" d="M343.936,174.937v11.946c-2.691,34.378-28.635,76.78-104.494,129.977
		c-2.271-1.591-4.492-3.172-6.663-4.742c70.706-50.986,95.209-91.887,97.82-125.235v-11.946
		c-2.892-35.919-26.564-54.668-47.034-56.669c-0.86-0.08-1.701-0.15-2.541-0.21c2.041-0.18,4.172-0.27,6.413-0.27
		c2.952,0,6.093,0.16,9.475,0.48C317.372,120.268,341.045,139.018,343.936,174.937z"/>
</g>
<polygon style="fill:#E5E4D3;" points="377.026,256.112 342.448,256.112 342.448,221.535 301.177,221.535 301.177,256.112 
	266.599,256.112 266.599,297.384 301.177,297.384 301.177,331.962 342.448,331.962 342.448,297.384 377.026,297.384 "/>
<path d="M56.315,242.861c4.111-0.525,7.018-4.283,6.492-8.394c-1.055-8.253-1.589-16.645-1.589-24.941
	c0-101.119,75.82-184.483,176.365-193.91c4.126-0.387,7.158-4.045,6.77-8.171c-0.387-4.127-4.049-7.16-8.171-6.77
	c-51.77,4.855-99.696,28.73-134.95,67.23c-35.481,38.749-55.022,89.045-55.022,141.622c0,8.93,0.575,17.961,1.71,26.842
	c0.483,3.789,3.713,6.554,7.434,6.554C55.671,242.923,55.993,242.903,56.315,242.861z"/>
<path d="M266.827,0.011c-4.154-0.227-7.665,2.974-7.875,7.113c-0.21,4.139,2.975,7.665,7.113,7.875
	c103.58,5.27,184.718,90.716,184.718,194.527c0,84.968-54.314,159.503-135.154,185.472c-1.723,0.553-3.189,1.711-4.125,3.26
	L256.001,490l-55.504-91.742c-0.937-1.549-2.402-2.706-4.125-3.26c-62.134-19.96-109.885-69.332-127.734-132.071
	c-1.134-3.986-5.287-6.295-9.271-5.165c-3.986,1.135-6.298,5.285-5.165,9.271c9.396,33.024,27.054,63.589,51.066,88.391
	c23.307,24.074,52.241,42.351,83.825,52.979l60.486,99.978c1.359,2.247,3.794,3.62,6.42,3.62c2.625,0,5.062-1.373,6.42-3.62
	l60.485-99.977c40.817-13.713,75.959-39.294,101.762-74.117c26.902-36.305,41.121-79.446,41.121-124.76
	C465.791,97.717,378.396,5.687,266.827,0.011z"/>
<path d="M162.525,133.75c10.257-7.89,23.351-10.921,36.867-8.529c13.908,2.459,25.988,10.275,33.194,21.463
	c3.339,5.996,10.049,5.009,13.759,0.168c12.756-15.694,26.335-22.965,40.365-21.596c0.277,0.027,0.552,0.036,0.824,0.033
	c10.16,0.019,18.019,1.955,24.72,6.096c7.27,4.493,13.335,11.224,17.54,19.467c2.689,5.271,4.624,11.169,5.751,17.53
	c0.645,3.638,3.81,6.196,7.38,6.196c0.434,0,0.875-0.038,1.318-0.116c4.081-0.723,6.803-4.617,6.08-8.697
	c-1.387-7.826-3.796-15.139-7.161-21.734c-5.453-10.689-13.413-19.475-23.018-25.412c-9.16-5.661-19.509-8.311-32.554-8.338
	c-17.094-1.469-33.121,5.639-47.731,21.189c-9.526-10.879-22.9-18.383-37.855-21.028c-17.72-3.133-34.99,0.919-48.662,11.437
	c-31.457,24.467-31.511,67.453-18.248,97.038c0.019,0.042,0.038,0.084,0.058,0.125c7.746,16.46,18.641,32.141,33.372,48.004
	c21.075,22.129,44.165,39.743,66.007,55.888c1.323,0.979,2.89,1.47,4.46,1.47c1.449,0,2.899-0.418,4.162-1.261
	c9.409-6.272,17.801-12.264,25.578-18.256h24.94v27.075c0,4.144,3.36,7.504,7.504,7.504h41.271c4.144,0,7.504-3.36,7.504-7.504
	v-27.073h27.075c4.144,0,7.504-3.36,7.504-7.504v-41.271c0-4.144-3.36-7.504-7.504-7.504h-27.076v-27.074
	c0-3.177-1.977-5.886-4.766-6.982c1.713-4.35,3.038-8.655,3.974-12.99c0.875-4.05-1.7-8.044-5.751-8.919
	c-4.05-0.874-8.044,1.7-8.919,5.751c-1.129,5.224-2.883,10.28-5.418,15.634h-27.895c-4.144,0-7.504,3.36-7.504,7.504v27.075h-27.074
	c-4.144,0-7.504,3.36-7.504,7.504v37.257c-6.146,4.718-12.709,9.45-19.896,14.343c-20.032-14.894-40.899-31.163-59.742-50.948
	c-13.579-14.623-23.62-29.032-30.696-44.049C137.848,188.311,137.511,153.205,162.525,133.75
	C172.783,125.86,137.511,153.205,162.525,133.75z M274.103,263.616h27.074c4.144,0,7.504-3.36,7.504-7.504v-27.074h26.264v27.075
	c0,4.144,3.36,7.504,7.504,7.504h27.075v26.264h-27.076c-4.144,0-7.504,3.36-7.504,7.504v27.075H308.68v-27.076
	c0-4.144-3.36-7.504-7.504-7.504h-27.074v-26.264H274.103z"/>
<g>
</g>
<g>
</g>
<g>
</g>
<g>
</g>
<g>
</g>
<g>
</g>
<g>
</g>
<g>
</g>
<g>
</g>
<g>
</g>
<g>
</g>
<g>
</g>
<g>
</g>
<g>
</g>
<g>
</g>
</svg>
