<?xml version="1.0" encoding="iso-8859-1"?>
<!-- Generator: Adobe Illustrator 19.0.0, SVG Export Plug-In . SVG Version: 6.00 Build 0)  -->
<svg version="1.1" id="Capa_1" xmlns="http://www.w3.org/2000/svg" xmlns:xlink="http://www.w3.org/1999/xlink" x="0px" y="0px"
	 viewBox="0 0 512.001 512.001" style="enable-background:new 0 0 512.001 512.001;" xml:space="preserve">
<path style="fill:#E5E4D3;" d="M223.694,124.471v89.772h-39.272v-89.772c0-10.849,8.793-19.641,19.631-19.641
	c5.43,0,10.335,2.201,13.892,5.748C221.494,114.137,223.694,119.053,223.694,124.471z"/>
<rect x="184.423" y="184.072" style="fill:#C1BFA4;" width="39.268" height="30.169"/>
<path style="fill:#E5E4D3;" d="M106.003,124.471v89.772H66.732v-89.772c0-10.849,8.792-19.641,19.63-19.641
	c5.419,0,10.335,2.201,13.892,5.748C103.803,114.137,106.003,119.053,106.003,124.471z"/>
<rect x="66.732" y="184.072" style="fill:#C1BFA4;" width="39.268" height="30.169"/>
<rect x="125.576" y="410.691" style="fill:#E5E4D3;" width="39.278" height="93.806"/>
<rect x="125.576" y="410.691" style="fill:#C1BFA4;" width="39.278" height="31.149"/>
<rect x="116.656" y="374.353" style="fill:#50B8FF;" width="57.097" height="45.822"/>
<g>
	<rect x="154.595" y="374.353" style="fill:#2195F2;" width="19.169" height="45.822"/>
	<rect x="109.607" y="337.335" style="fill:#2195F2;" width="71.217" height="46.508"/>
</g>
<rect x="154.595" y="337.335" style="fill:#006FAD;" width="26.219" height="46.508"/>
<polygon style="fill:#50B8FF;" points="145.211,240.565 50.949,240.565 50.949,275.529 109.302,347.51 145.211,347.51 
	181.12,347.51 239.474,275.529 239.474,240.565 "/>
<polygon style="fill:#2195F2;" points="214.109,240.566 214.109,269.359 151.044,347.51 181.121,347.51 239.474,275.529 
	239.474,240.566 "/>
<rect x="41.35" y="202.171" style="fill:#80CEF9;" width="207.721" height="38.388"/>
<rect x="220.522" y="202.171" style="fill:#2195F2;" width="28.551" height="38.388"/>
<path style="fill:#E5E4D3;" d="M452.889,172.049c32.465-48.54,19.432-114.206-29.108-146.67S309.576,5.947,277.111,54.486
	c-26.187,39.154-22.764,89.449,5.013,124.475l-2.839,62.465l56.647-26.477C378.911,227.246,426.701,211.203,452.889,172.049z"/>
<polygon style="fill:#FEC007;" points="358.436,41.261 398.511,41.261 362.808,88.622 407.254,88.622 321.277,192.085 
	356.979,113.395 317.633,113.395 "/>
<path d="M470.964,110.298c-0.106-0.004-0.213-0.006-0.319-0.006c-3.997,0-7.318,3.155-7.487,7.186
	c-0.752,17.955-6.459,35.384-16.503,50.403c-23.822,35.619-67.486,51.638-108.66,39.859c-1.739-0.499-3.599-0.351-5.238,0.416
	l-45.417,21.228l2.275-50.082c0.082-1.807-0.491-3.583-1.615-5c-26.607-33.552-28.478-80.026-4.655-115.646
	c14.587-21.811,36.795-36.635,62.533-41.743c25.736-5.108,51.922,0.113,73.734,14.701c20.5,13.71,34.999,34.452,40.827,58.404
	c0.979,4.024,5.034,6.492,9.061,5.515c4.024-0.979,6.493-5.036,5.514-9.061c-6.719-27.613-23.432-51.523-47.062-67.327
	C402.81,2.331,372.628-3.686,342.958,2.2c-29.668,5.888-55.267,22.976-72.082,48.117c-26.93,40.264-25.371,92.569,3.63,131.053
	l-2.713,59.716c-0.119,2.622,1.141,5.115,3.322,6.575c1.255,0.839,2.709,1.266,4.171,1.266c1.08,0,2.164-0.233,3.175-0.706
	l54.154-25.311c9.498,2.465,19.089,3.661,28.571,3.661c37.085-0.002,72.491-18.286,93.937-50.352
	c11.576-17.31,18.153-37.404,19.02-58.113C478.318,113.967,475.103,110.471,470.964,110.298z"/>
<path d="M249.071,194.675H231.2v-70.208c0-7.238-2.819-14.05-7.954-19.2c-5.135-5.12-11.947-7.939-19.186-7.939
	c-14.964,0-27.139,12.174-27.139,27.139v70.208h-63.417v-70.208c0-7.238-2.819-14.05-7.954-19.2
	c-5.135-5.12-11.947-7.939-19.186-7.939c-14.964,0-27.139,12.174-27.139,27.139v70.208H41.352c-4.143,0-7.5,3.358-7.5,7.5v38.39
	c0,4.142,3.357,7.5,7.5,7.5h2.098v27.463c0,1.72,0.591,3.387,1.674,4.723l23.115,28.516c2.608,3.218,7.333,3.711,10.549,1.104
	c3.218-2.608,3.712-7.332,1.104-10.549l-21.442-26.451v-24.805h173.525v24.805l-54.429,67.141h-64.669l-12.81-15.8
	c-0.483-1.139-1.257-2.174-2.305-2.986c-3.272-2.538-7.983-1.943-10.522,1.331l-0.22,0.289c-2.095,2.752-2.036,6.58,0.142,9.266
	l14.942,18.432v33.303c0,3.994,3.124,7.249,7.061,7.478v28.851c0,4.142,3.357,7.5,7.5,7.5h1.409v76.827c0,4.142,3.357,7.5,7.5,7.5
	h39.278c4.143,0,7.5-3.358,7.5-7.5v-29.229c0-4.142-3.357-7.5-7.5-7.5s-7.5,3.358-7.5,7.5v21.729h-24.279v-69.327h24.279v18.059
	c0,4.142,3.357,7.5,7.5,7.5s7.5-3.358,7.5-7.5v-18.059h1.41c4.143,0,7.5-3.358,7.5-7.5v-28.853c3.936-0.229,7.06-3.484,7.06-7.478
	v-33.306l56.978-70.287c1.083-1.336,1.674-3.003,1.674-4.723v-27.463h2.098c4.143,0,7.5-3.358,7.5-7.5v-38.39
	C256.571,198.033,253.213,194.675,249.071,194.675z M166.262,412.674h-42.098v-21.329h42.098V412.674z M173.322,376.346h-56.217
	v-21.335h56.217V376.346z M191.921,124.467c0-6.694,5.446-12.139,12.139-12.139c3.239,0,6.292,1.265,8.58,3.545
	c2.296,2.303,3.561,5.355,3.561,8.595v70.208h-24.279v-70.208H191.921z M74.226,124.467c0-6.694,5.446-12.139,12.139-12.139
	c3.239,0,6.292,1.265,8.58,3.545c2.296,2.303,3.561,5.355,3.561,8.595v70.208H74.227L74.226,124.467L74.226,124.467z
	 M48.851,233.065v-23.391h192.72v23.391H48.851z"/>
<path d="M104.192,271.374h82.038c4.143,0,7.5-3.358,7.5-7.5s-3.357-7.5-7.5-7.5h-82.038c-4.143,0-7.5,3.358-7.5,7.5
	S100.049,271.374,104.192,271.374z"/>
<path d="M317.295,198.442c1.231,0.771,2.61,1.145,3.978,1.145c2.165,0,4.301-0.937,5.772-2.707l85.978-103.465
	c1.858-2.237,2.257-5.347,1.021-7.979c-1.236-2.632-3.882-4.314-6.79-4.314h-29.401l26.646-35.346
	c1.712-2.271,1.992-5.315,0.723-7.86c-1.269-2.545-3.868-4.154-6.712-4.154h-40.074c-2.703,0-5.197,1.455-6.528,3.808
	l-40.803,72.134c-1.313,2.322-1.294,5.167,0.05,7.471c1.344,2.304,3.811,3.721,6.479,3.721h27.708l-30.895,68.093
	C312.895,192.407,314.113,196.447,317.295,198.442z M330.493,105.895l32.318-57.134h20.655L356.82,84.107
	c-1.712,2.271-1.992,5.315-0.723,7.86s3.868,4.154,6.712,4.154h28.463l-40.129,48.291l12.667-27.919
	c1.053-2.321,0.855-5.019-0.525-7.161c-1.38-2.142-3.756-3.438-6.305-3.438h-26.487V105.895z"/>
<g>
</g>
<g>
</g>
<g>
</g>
<g>
</g>
<g>
</g>
<g>
</g>
<g>
</g>
<g>
</g>
<g>
</g>
<g>
</g>
<g>
</g>
<g>
</g>
<g>
</g>
<g>
</g>
<g>
</g>
</svg>
