<?xml version="1.0" encoding="iso-8859-1"?>
<!-- Generator: Adobe Illustrator 19.0.0, SVG Export Plug-In . SVG Version: 6.00 Build 0)  -->
<svg version="1.1" id="Capa_1" xmlns="http://www.w3.org/2000/svg" xmlns:xlink="http://www.w3.org/1999/xlink" x="0px" y="0px"
	 viewBox="0 0 512 512" style="enable-background:new 0 0 512 512;" xml:space="preserve">
<g>
	<rect x="154.26" y="398.78" style="fill:#FB4239;" width="86.54" height="58.648"/>
	<rect x="271.21" y="398.78" style="fill:#FB4239;" width="86.54" height="58.648"/>
</g>
<rect x="154.26" y="441.86" style="fill:#E5E4D3;" width="86.54" height="62.64"/>
<path style="fill:#EFCDB1;" d="M240.798,302.426v96.35h-75.32v-32.5c0-4.139-2.021-8.017-5.431-10.374l-98.012-67.956
	c-3.248-2.248-5.181-5.942-5.181-9.885v-72.637h23.539c4.595,0,8.331,3.726,8.331,8.321v42.516c0,3.986,1.966,7.712,5.268,9.95
	l66.641,45.242c4.573,3.107,9.983,4.769,15.511,4.769h5.366c3.639,0,7.126-1.477,9.657-4.095l2.259-2.336
	c2.737-2.824,2.585-7.343-0.326-9.983l-30.828-27.938c-3.378-3.052-3.509-8.321-0.282-11.547l14.349-14.349l59.928,47.132
	C239.125,295.354,240.798,298.786,240.798,302.426z"/>
<rect x="165.48" y="370.41" style="fill:#D8AD8F;" width="75.32" height="28.362"/>
<rect x="271.21" y="441.86" style="fill:#E5E4D3;" width="86.54" height="62.64"/>
<path style="fill:#EFCDB1;" d="M271.206,302.426v96.35h75.32v-32.5c0-4.139,2.021-8.017,5.431-10.374l98.012-67.956
	c3.248-2.248,5.181-5.942,5.181-9.885v-72.637h-23.539c-4.595,0-8.331,3.726-8.331,8.321v42.516c0,3.986-1.966,7.712-5.268,9.95
	l-66.641,45.242c-4.573,3.107-9.983,4.769-15.511,4.769h-5.366c-3.639,0-7.126-1.477-9.657-4.095l-2.259-2.336
	c-2.737-2.824-2.585-7.343,0.326-9.983l30.828-27.938c3.378-3.052,3.509-8.321,0.282-11.547l-14.349-14.349l-59.928,47.132
	C272.878,295.354,271.206,298.786,271.206,302.426z"/>
<rect x="271.21" y="370.41" style="fill:#D8AD8F;" width="75.32" height="28.362"/>
<path style="fill:#50B8FF;" d="M358.652,110.15c0-56.692-45.958-102.65-102.65-102.65s-102.65,45.958-102.65,102.65
	c0,45.731,29.907,84.47,71.227,97.744l31.423,51.94l31.423-51.94C328.745,194.62,358.652,155.881,358.652,110.15z"/>
<circle style="fill:#E5E4D3;" cx="256" cy="110.15" r="42.25"/>
<path d="M240.905,287.21l-59.928-47.132c-2.984-2.348-7.254-2.094-9.939,0.592l-14.349,14.349c-2.986,2.985-4.637,7.118-4.53,11.338
	c0.106,4.215,1.961,8.252,5.079,11.069l30.406,27.556l-1.867,1.93c-1.111,1.149-2.665,1.808-4.265,1.808h-5.366
	c-4.046,0-7.953-1.201-11.299-3.474l-66.646-45.245c-1.237-0.838-1.976-2.237-1.976-3.742v-42.516
	c0-8.724-7.102-15.821-15.832-15.821h-23.54c-4.142,0-7.5,3.358-7.5,7.5v72.637c0,6.404,3.145,12.405,8.408,16.048l46.124,31.979
	c3.404,2.359,8.077,1.513,10.437-1.89c2.36-3.404,1.514-8.077-1.89-10.437l-46.128-31.982c-1.222-0.846-1.951-2.235-1.951-3.718
	v-65.137h16.039c0.458,0,0.832,0.368,0.832,0.821v42.516c0,6.486,3.2,12.526,8.556,16.155l66.64,45.241
	c5.84,3.967,12.661,6.064,19.726,6.064h5.366c5.643,0,11.128-2.326,15.047-6.38l2.254-2.331c2.749-2.837,4.193-6.572,4.066-10.518
	c-0.127-3.948-1.811-7.585-4.741-10.242l-30.836-27.946c-0.039-0.036-0.143-0.129-0.148-0.327c-0.005-0.206,0.101-0.312,0.141-0.352
	l9.642-9.642l54.693,43.015c1.061,0.834,1.668,2.084,1.668,3.427v88.844h-60.32v-24.995c0-6.607-3.24-12.792-8.658-16.538
	l-27.532-19.089c-3.405-2.36-8.077-1.514-10.437,1.89c-2.36,3.404-1.514,8.077,1.89,10.437l27.541,19.095
	c1.375,0.951,2.196,2.522,2.196,4.205v24.995h-3.726c-4.142,0-7.5,3.358-7.5,7.5v58.66c0,0.033,0.004,0.064,0.005,0.097V504.5
	c0,4.142,3.358,7.5,7.5,7.5h25.971c4.142,0,7.5-3.358,7.5-7.5s-3.358-7.5-7.5-7.5h-18.471v-47.64h71.535v8.07
	c0,0.016,0.002,0.032,0.002,0.048V497h-23.519c-4.142,0-7.5,3.358-7.5,7.5s3.358,7.5,7.5,7.5h31.019c4.142,0,7.5-3.358,7.5-7.5
	v-62.64c0-0.016-0.002-0.032-0.002-0.048v-42.92c0.001-0.039,0.006-0.077,0.006-0.116v-96.35
	C248.298,296.455,245.604,290.909,240.905,287.21z M161.752,434.36v-28.09h3.62c0.036,0,0.07,0.005,0.106,0.005h67.814v28.084
	L161.752,434.36L161.752,434.36z"/>
<path d="M455.147,197.92h-23.535c-8.728,0-15.828,7.101-15.828,15.828v42.51c0,1.501-0.742,2.9-1.984,3.744l-66.637,45.24
	c-3.349,2.273-7.258,3.475-11.304,3.475h-5.362c-1.604,0-3.162-0.66-4.279-1.813l-1.862-1.922l30.408-27.549
	c3.125-2.831,4.977-6.871,5.08-11.085c0.104-4.215-1.546-8.342-4.526-11.324l-14.354-14.354c-2.687-2.686-6.956-2.939-9.94-0.592
	l-47.179,37.107l0,0l-12.747,10.025c-4.695,3.693-7.389,9.238-7.389,15.211v96.35c0,0.02,0.003,0.038,0.003,0.058v42.972
	c0,0.02-0.003,0.038-0.003,0.058v62.64c0,4.142,3.357,7.5,7.5,7.5h86.538c4.143,0,7.5-3.358,7.5-7.5v-46.973
	c0-0.033,0.005-0.064,0.005-0.097v-58.66c0-4.142-3.357-7.5-7.5-7.5h-3.729v-24.994c0-1.68,0.824-3.254,2.204-4.211l98.021-67.96
	c5.26-3.647,8.4-9.646,8.4-16.046V205.42C462.647,201.278,459.29,197.92,455.147,197.92z M350.252,406.27v28.09h-71.54v-28.088
	h67.811c0.013,0,0.026-0.002,0.039-0.002L350.252,406.27L350.252,406.27z M350.247,497h-71.538v-39.512
	c0-0.02,0.003-0.038,0.003-0.058v-8.07h71.535V497z M447.647,278.059c0,1.483-0.728,2.874-1.947,3.719l-98.021,67.961
	c-5.42,3.759-8.656,9.941-8.656,16.538v24.994H278.71v-88.848c0-1.343,0.605-2.591,1.662-3.421l12.747-10.025l0,0l41.946-32.992
	l9.646,9.646c0.039,0.04,0.144,0.144,0.139,0.347c-0.005,0.203-0.114,0.302-0.155,0.339l-30.83,27.931
	c-2.928,2.653-4.611,6.289-4.74,10.238c-0.128,3.95,1.314,7.688,4.065,10.527l2.256,2.328c3.924,4.053,9.41,6.377,15.053,6.377
	h5.362c7.062,0,13.884-2.097,19.729-6.064l66.638-45.241c5.359-3.639,8.559-9.677,8.559-16.154v-42.51
	c0-0.457,0.371-0.828,0.828-0.828h16.035v65.138H447.647z"/>
<path d="M366.152,110.15C366.152,49.413,316.739,0,256.002,0c-55.95,0-102.985,41.857-109.407,97.364
	c-0.476,4.115,2.474,7.836,6.588,8.313c4.12,0.482,7.836-2.474,8.313-6.588C167.042,51.15,207.671,15,256.002,15
	c52.466,0,95.15,42.684,95.15,95.15c0,41.507-26.532,77.917-66.021,90.603c-1.723,0.553-3.187,1.71-4.123,3.258l-25.006,41.333
	l-25.006-41.333c-0.937-1.548-2.401-2.705-4.123-3.258c-33.804-10.859-58.561-39.313-64.609-74.259
	c-0.707-4.082-4.587-6.812-8.669-6.111c-4.082,0.707-6.817,4.588-6.111,8.669c6.842,39.527,34.351,71.881,72.103,85.076l30,49.587
	c1.358,2.246,3.792,3.618,6.417,3.618c2.625,0,5.059-1.372,6.417-3.618l29.999-49.587
	C336.639,198.675,366.152,157.245,366.152,110.15z"/>
<path d="M196.252,102.65c-4.142,0-7.5,3.358-7.5,7.5s3.358,7.5,7.5,7.5h10.565c1.234,8.128,4.447,15.613,9.123,21.956l-7.491,7.491
	c-2.929,2.929-2.929,7.678,0,10.606c1.464,1.464,3.384,2.197,5.303,2.197s3.839-0.732,5.303-2.197l7.491-7.491
	c6.343,4.676,13.828,7.889,21.956,9.123V169.9c0,4.142,3.358,7.5,7.5,7.5c4.143,0,7.5-3.358,7.5-7.5v-10.565
	c8.128-1.234,15.612-4.447,21.956-9.123l7.491,7.491c1.465,1.464,3.385,2.197,5.304,2.197s3.839-0.732,5.304-2.197
	c2.929-2.929,2.929-7.678,0-10.606l-7.491-7.491c4.676-6.343,7.889-13.828,9.123-21.956h10.565c4.143,0,7.5-3.358,7.5-7.5
	s-3.357-7.5-7.5-7.5h-10.565c-1.234-8.128-4.447-15.612-9.123-21.955l7.492-7.492c2.929-2.929,2.929-7.678,0-10.606
	c-2.93-2.929-7.678-2.929-10.607,0l-7.491,7.491c-6.343-4.676-13.827-7.888-21.955-9.123V50.4c0-4.142-3.357-7.5-7.5-7.5
	c-4.142,0-7.5,3.358-7.5,7.5v10.565c-8.128,1.234-15.612,4.447-21.955,9.123l-7.491-7.491c-2.929-2.929-7.678-2.929-10.606,0
	c-2.929,2.929-2.929,7.678,0,10.606l7.491,7.491c-4.676,6.343-7.889,13.828-9.123,21.956
	C206.82,102.65,196.252,102.65,196.252,102.65z M255.995,75.4c0.002,0,0.004,0,0.006,0c0.002,0,0.004,0,0.006,0
	c19.155,0.004,34.737,15.584,34.744,34.738c0,0.004-0.001,0.008-0.001,0.013c0,0.004,0.001,0.009,0.001,0.013
	c-0.007,19.151-15.586,34.731-34.738,34.738c-0.004,0-0.009-0.001-0.013-0.001c-0.004,0-0.009,0.001-0.013,0.001
	c-19.151-0.007-34.731-15.586-34.738-34.738c0-0.004,0.001-0.009,0.001-0.013s-0.001-0.008-0.001-0.013
	C221.258,90.984,236.841,75.403,255.995,75.4z"/>
<path d="M256.002,135.182c13.803,0,25.031-11.229,25.031-25.031c0-13.803-11.229-25.032-25.031-25.032
	c-13.802,0-25.032,11.229-25.032,25.031C230.97,123.953,242.199,135.182,256.002,135.182z M256.002,100.119
	c5.531,0,10.031,4.5,10.031,10.032c0,5.531-4.5,10.031-10.031,10.031c-5.532,0-10.032-4.5-10.032-10.031
	C245.97,104.619,250.47,100.119,256.002,100.119z"/>
<g>
</g>
<g>
</g>
<g>
</g>
<g>
</g>
<g>
</g>
<g>
</g>
<g>
</g>
<g>
</g>
<g>
</g>
<g>
</g>
<g>
</g>
<g>
</g>
<g>
</g>
<g>
</g>
<g>
</g>
</svg>
