<?xml version="1.0" encoding="iso-8859-1"?>
<!-- Generator: Adobe Illustrator 19.0.0, SVG Export Plug-In . SVG Version: 6.00 Build 0)  -->
<svg version="1.1" id="Capa_1" xmlns="http://www.w3.org/2000/svg" xmlns:xlink="http://www.w3.org/1999/xlink" x="0px" y="0px"
	 viewBox="0 0 512 512" style="enable-background:new 0 0 512 512;" xml:space="preserve">
<polygon style="fill:#FE9700;" points="427.357,204.114 427.357,479.14 7.513,479.14 7.513,149.181 122.43,149.181 177.362,204.114 
	"/>
<g>
	<rect x="7.513" y="309.522" style="fill:#F26200;" width="419.847" height="169.622"/>
	<path style="fill:#F26200;" d="M427.357,204.114v65.127c-9.478,2.162-19.342,3.3-29.48,3.3c-49.938,0-93.423-27.625-116.008-68.427
		L427.357,204.114L427.357,204.114z"/>
	<polygon style="fill:#F26200;" points="177.362,204.116 122.43,149.183 7.513,149.183 7.513,212.649 177.362,212.649 	"/>
</g>
<polygon style="fill:#FEC007;" points="463.766,287.993 433.808,445.281 427.357,479.141 7.513,479.141 13.965,445.281 
	43.922,287.993 "/>
<polygon style="fill:#FE9700;" points="433.808,445.281 427.357,479.141 7.513,479.141 13.965,445.281 "/>
<circle style="fill:#50B8FF;" cx="397.878" cy="140.031" r="107.521"/>
<path d="M505.458,146.636c-4.112-0.535-7.886,2.363-8.423,6.478c-6.47,49.557-49.097,86.928-99.156,86.928
	c-55.144,0-100.008-44.863-100.008-100.008S342.734,40.026,397.879,40.026c49.354,0,91.898,36.772,98.962,85.536
	c0.595,4.107,4.411,6.951,8.513,6.358c4.107-0.595,6.953-4.406,6.358-8.513c-3.925-27.096-17.503-51.982-38.232-70.075
	c-20.934-18.272-47.784-28.334-75.602-28.334c-63.43,0-115.035,51.604-115.035,115.035c0,20.549,5.422,39.853,14.9,56.568h-46.858
	c-4.149,0-7.513,3.364-7.513,7.513s3.364,7.513,7.513,7.513h57.021c21.095,26.454,53.584,43.44,89.971,43.44
	c7.492,0,14.838-0.734,21.969-2.127v27.537H43.922c-3.607,0-6.706,2.564-7.381,6.108L15.027,399.54V156.691h104.29l52.737,52.737
	c1.409,1.41,3.32,2.201,5.312,2.201h43.918c4.149,0,7.513-3.364,7.513-7.513s-3.364-7.513-7.513-7.513h-40.807l-52.737-52.737
	c-1.409-1.41-3.32-2.201-5.312-2.201H7.513c-4.149,0-7.513,3.364-7.513,7.513v329.957c0,7.612,7.453,7.519,12.877,7.519
	c9.077,0,413.575,1.104,417.463-0.623c2.254-1.001,3.938-3.054,4.399-5.485l14.467-75.945c0.776-4.076-1.899-8.01-5.975-8.787
	c-4.077-0.775-8.01,1.899-8.787,5.975l-13.302,69.83H16.595L50.14,295.504h377.191c0.01,0,0.019,0.001,0.029,0.001
	c0.01,0,0.019-0.001,0.029-0.001h27.297l-14.606,76.684c-0.776,4.076,1.899,8.01,5.975,8.787c4.079,0.775,8.01-1.899,8.787-5.975
	l16.304-85.603c0.419-2.199-0.165-4.471-1.592-6.196c-1.428-1.725-3.549-2.724-5.788-2.724h-28.891v-31.55
	c40.444-13.81,71.285-49.613,77.062-93.87C512.473,150.945,509.573,147.174,505.458,146.636
	C501.345,146.101,509.573,147.174,505.458,146.636z"/>
<path d="M383.837,181.826c-4.149,0-7.513,3.364-7.513,7.513s3.364,7.513,7.513,7.513h30.358c4.149,0,7.513-3.364,7.513-7.513
	s-3.364-7.513-7.513-7.513h-7.807v-67.389c0-4.149-3.364-7.513-7.513-7.513h-14.186c-4.149,0-7.513,3.364-7.513,7.513
	c0,4.149,3.364,7.513,7.513,7.513h6.673v59.876H383.837z"/>
<path d="M394.619,102.204c6.49,0,11.769-5.28,11.769-11.77c0-6.49-5.279-11.769-11.769-11.769c-6.49,0-11.77,5.279-11.77,11.769
	C382.849,96.924,388.129,102.204,394.619,102.204z"/>
<g>
</g>
<g>
</g>
<g>
</g>
<g>
</g>
<g>
</g>
<g>
</g>
<g>
</g>
<g>
</g>
<g>
</g>
<g>
</g>
<g>
</g>
<g>
</g>
<g>
</g>
<g>
</g>
<g>
</g>
</svg>
