<?xml version="1.0" encoding="iso-8859-1"?>
<!-- Generator: Adobe Illustrator 19.0.0, SVG Export Plug-In . SVG Version: 6.00 Build 0)  -->
<svg version="1.1" id="Layer_1" xmlns="http://www.w3.org/2000/svg" xmlns:xlink="http://www.w3.org/1999/xlink" x="0px" y="0px"
	 viewBox="0 0 512 512" style="enable-background:new 0 0 512 512;" xml:space="preserve">
<path style="fill:#FF6464;" d="M435.591,410.774l-112.469-64.755c-10.913-6.282-24.683-4.462-33.587,4.443l-22.152,22.152
	c-8.539,8.539-22.134,9.314-31.542,1.744c-17.369-13.976-34.728-29.527-51.7-46.499c-16.972-16.972-32.523-34.331-46.499-51.7
	c-7.57-9.407-6.794-23.003,1.744-31.542l22.153-22.152c8.903-8.903,10.725-22.674,4.443-33.586l-64.757-112.47
	c-9.143-15.881-30.868-18.754-43.825-5.796l-33.382,33.38c-43.501,43.501,7.192,164.724,113.227,270.76
	S364.505,531.482,408.007,487.98l33.38-33.38C454.345,441.642,451.471,419.917,435.591,410.774z"/>
<g>
	<path style="fill:#D2555A;" d="M48.008,80.004l93.535,162.456l19.995-19.995c8.903-8.903,10.725-22.674,4.441-33.586
		l-64.753-112.47c-9.144-15.88-30.868-18.754-43.826-5.796L48.008,80.004z"/>
	<path style="fill:#D2555A;" d="M431.995,463.991l9.392-9.392c12.958-12.958,10.084-34.682-5.796-43.825l-112.469-64.755
		c-10.913-6.282-24.683-4.462-33.587,4.443l-20.516,20.515L431.995,463.991z"/>
</g>
<path d="M343.029,126.168c-4.584-0.833-8.98,2.208-9.814,6.793l-18.005,99.025c-0.448,2.462,0.221,4.996,1.824,6.917
	c1.604,1.922,3.977,3.032,6.479,3.032h54.576v18.567c0,4.661,3.779,8.44,8.44,8.44s8.44-3.779,8.44-8.44v-18.566h9.565
	c4.661,0,8.44-3.779,8.44-8.44s-3.779-8.44-8.44-8.44h-9.565v-90.585c0-4.661-3.779-8.44-8.44-8.44s-8.44,3.779-8.44,8.44v90.585
	h-44.463l16.195-89.075C350.657,131.395,347.616,127.002,343.029,126.168z"/>
<path d="M255.122,210.32c-18.314,10.763-39.071,22.963-39.071,50.183c0,4.661,3.779,8.44,8.44,8.44h72.018
	c4.661,0,8.44-3.779,8.44-8.44s-3.779-8.44-8.44-8.44h-62.404c3.405-11.252,14.038-18.063,29.569-27.191
	c19.346-11.37,41.274-24.257,41.274-54.392c0-24.509-19.94-44.449-44.449-44.449c-24.509,0-44.449,19.94-44.449,44.449
	c0,4.661,3.779,8.44,8.44,8.44s8.44-3.779,8.44-8.44c0-15.201,12.368-27.569,27.569-27.569c15.201,0,27.569,12.368,27.569,27.569
	C288.069,190.957,272.8,199.93,255.122,210.32z"/>
<path d="M465.896,351.252l-16.436,3.287c39.941-38.791,62.54-91.846,62.54-148.05C512,92.631,419.369,0,305.511,0
	c-67.103,0-130.259,32.797-168.944,87.734c-2.684,3.811-1.77,9.077,2.041,11.76c3.811,2.683,9.075,1.77,11.76-2.041
	C185.896,47,243.893,16.879,305.511,16.879c104.551,0,189.61,85.059,189.61,189.61c0,52.365-21.377,101.744-59.065,137.496
	l3.763-18.811c0.914-4.571-2.05-9.017-6.621-9.931c-4.573-0.911-9.017,2.05-9.931,6.621l-9.002,45.011
	c-0.554,2.767,0.313,5.628,2.308,7.623c1.598,1.598,3.752,2.472,5.967,2.472c0.55,0,1.104-0.054,1.655-0.164l45.011-9.002
	c4.571-0.915,7.535-5.361,6.621-9.931C474.913,353.303,470.468,350.34,465.896,351.252z"/>
<path d="M439.802,403.46l-112.47-64.754c-14.189-8.171-32.186-5.791-43.766,5.788l-22.152,22.152
	c-5.515,5.514-14.235,6.002-20.283,1.137c-17.434-14.029-34.601-29.469-51.023-45.891s-31.861-33.589-45.891-51.023
	c-4.867-6.048-4.378-14.769,1.137-20.283l22.153-22.152c11.578-11.578,13.958-29.575,5.788-43.766L108.54,72.198
	c-5.678-9.863-15.407-16.376-26.691-17.868c-11.278-1.492-22.369,2.267-30.417,10.315l-33.38,33.38
	c-23.62,23.62-24.075,66.647-1.282,121.154c21.8,52.13,62.467,109.5,114.509,161.542S240.691,473.43,292.821,495.23
	c26.745,11.184,50.723,16.77,71.004,16.77c21.052,0,38.119-6.021,50.149-18.052l33.38-33.38
	c8.048-8.048,11.808-19.134,10.315-30.418C456.178,418.867,449.665,409.138,439.802,403.46z M77.042,70.892
	c0.86,0,1.727,0.056,2.596,0.171c6.035,0.798,11.238,4.282,14.275,9.557l64.754,112.469c4.369,7.591,3.097,17.217-3.096,23.409
	l-12.209,12.208L58.55,81.399l4.817-4.817C67.052,72.896,71.927,70.892,77.042,70.892z M402.039,482.012
	c-18.191,18.19-55.626,17.332-102.706-2.356c-50.149-20.972-105.593-60.347-156.118-110.871
	c-50.524-50.525-89.9-105.969-110.871-156.118c-19.688-47.081-20.547-84.515-2.356-102.706L46.19,93.759l84.912,147.479
	c-9.386,11.633-9.583,28.346-0.035,40.212c14.408,17.905,30.257,35.527,47.107,52.376s34.471,32.698,52.376,47.107
	c11.671,9.39,28.029,9.354,39.631,0.424l148.03,84.484L402.039,482.012z M435.419,448.632l-4.835,4.835l-147.78-84.341
	l12.698-12.698c6.192-6.192,15.817-7.465,23.408-3.096l112.47,64.754c5.275,3.037,8.758,8.24,9.557,14.275
	C441.735,438.398,439.724,444.328,435.419,448.632z"/>
<path d="M313.951,62.453V44.449c0-4.661-3.779-8.44-8.44-8.44s-8.44,3.779-8.44,8.44v18.005c0,4.661,3.779,8.44,8.44,8.44
	S313.951,67.114,313.951,62.453z"/>
<path d="M441.107,206.489c0,4.661,3.779,8.44,8.44,8.44h18.005c4.661,0,8.44-3.779,8.44-8.44s-3.779-8.44-8.44-8.44h-18.005
	C444.886,198.05,441.107,201.828,441.107,206.489z"/>
<path d="M382.022,82.396c2.917,0,5.754-1.515,7.317-4.221l4.501-7.796c2.33-4.036,0.947-9.198-3.089-11.529
	c-4.038-2.332-9.198-0.947-11.529,3.089l-4.501,7.796c-2.33,4.036-0.947,9.198,3.089,11.529
	C379.139,82.031,380.59,82.396,382.022,82.396z"/>
<path d="M228.998,82.396c1.431,0,2.883-0.365,4.212-1.132c4.036-2.33,5.419-7.492,3.089-11.529l-4.501-7.796
	c-2.33-4.038-7.493-5.42-11.529-3.089c-4.036,2.33-5.419,7.492-3.089,11.529l4.501,7.796
	C223.246,80.882,226.083,82.396,228.998,82.396z"/>
<path d="M168.755,137.279c1.329,0.767,2.781,1.132,4.212,1.132c2.917,0,5.754-1.515,7.317-4.221
	c2.33-4.036,0.947-9.198-3.089-11.529l-7.796-4.501c-4.036-2.332-9.198-0.947-11.529,3.089c-2.33,4.036-0.947,9.198,3.089,11.529
	L168.755,137.279z"/>
<path d="M433.826,290.317l7.796,4.501c1.329,0.767,2.781,1.132,4.212,1.132c2.917,0,5.754-1.515,7.317-4.221
	c2.33-4.036,0.948-9.198-3.089-11.529l-7.796-4.501c-4.036-2.332-9.198-0.947-11.529,3.089
	C428.406,282.825,429.789,287.987,433.826,290.317z"/>
<path d="M441.622,118.16l-7.796,4.501c-4.036,2.33-5.419,7.492-3.089,11.529c1.563,2.707,4.4,4.221,7.317,4.221
	c1.431,0,2.883-0.365,4.212-1.132l7.796-4.501c4.036-2.33,5.419-7.492,3.089-11.529C450.82,117.212,445.658,115.83,441.622,118.16z"
	/>
<g>
</g>
<g>
</g>
<g>
</g>
<g>
</g>
<g>
</g>
<g>
</g>
<g>
</g>
<g>
</g>
<g>
</g>
<g>
</g>
<g>
</g>
<g>
</g>
<g>
</g>
<g>
</g>
<g>
</g>
</svg>
