<?xml version="1.0" encoding="iso-8859-1"?>
<!-- Generator: Adobe Illustrator 19.0.0, SVG Export Plug-In . SVG Version: 6.00 Build 0)  -->
<svg version="1.1" id="Layer_1" xmlns="http://www.w3.org/2000/svg" xmlns:xlink="http://www.w3.org/1999/xlink" x="0px" y="0px"
	 viewBox="0 0 512 512" style="enable-background:new 0 0 512 512;" xml:space="preserve">
<path style="fill:#FFD782;" d="M486.881,452.676H25.119c-9.446,0-17.102-7.656-17.102-17.102V76.426
	c0-9.446,7.656-17.102,17.102-17.102h461.762c9.446,0,17.102,7.656,17.102,17.102v359.148
	C503.983,445.02,496.327,452.676,486.881,452.676z"/>
<g>
	<path style="fill:#5B5D6E;" d="M242.624,213.753l-46.482-77.469l-46.482,77.469c-2.124,3.539,0.425,8.042,4.553,8.042h16.275
		v136.818h51.307V221.795h16.275C242.197,221.795,244.748,217.293,242.624,213.753z"/>
	<path style="fill:#5B5D6E;" d="M362.34,213.753l-46.482-77.469l-46.482,77.469c-2.124,3.539,0.425,8.042,4.553,8.042h16.275
		v136.818h51.307V221.795h16.275C361.913,221.795,364.464,217.293,362.34,213.753z"/>
</g>
<path d="M486.881,51.307H25.119C11.268,51.307,0,62.575,0,76.426v359.148c0,13.851,11.268,25.119,25.119,25.119h461.762
	c13.851,0,25.119-11.268,25.119-25.119V76.426C512,62.575,500.732,51.307,486.881,51.307z M495.967,435.574
	c0,5.01-4.076,9.086-9.086,9.086H25.119c-5.01,0-9.086-4.076-9.086-9.086V76.426c0-5.01,4.076-9.086,9.086-9.086h461.762
	c5.01,0,9.086,4.076,9.086,9.086V435.574z"/>
<path d="M162.472,229.812v128.802c0,4.427,3.589,8.017,8.017,8.017h51.307c4.427,0,8.017-3.589,8.017-8.017V229.812h8.258
	c4.792,0,9.236-2.591,11.597-6.761c2.361-4.17,2.296-9.313-0.17-13.422l-46.482-77.47c-1.448-2.415-4.059-3.892-6.874-3.892
	c-2.815,0-5.426,1.477-6.874,3.892l-46.482,77.47c-2.466,4.109-2.531,9.252-0.17,13.422c2.361,4.17,6.805,6.761,11.598,6.761
	H162.472z M196.142,151.865l37.147,61.914h-11.494c-4.427,0-8.017,3.589-8.017,8.017v128.802h-35.273V221.795
	c0-4.427-3.589-8.017-8.017-8.017h-11.494L196.142,151.865z"/>
<path d="M322.732,132.159c-1.448-2.415-4.059-3.892-6.874-3.892c-2.815,0-5.426,1.477-6.874,3.892l-46.482,77.47
	c-2.466,4.109-2.531,9.252-0.17,13.422c2.361,4.17,6.805,6.761,11.598,6.761h8.258v128.802c0,4.427,3.589,8.017,8.017,8.017h51.307
	c4.427,0,8.017-3.589,8.017-8.017V229.812h8.258c4.792,0,9.236-2.591,11.598-6.761s2.296-9.313-0.17-13.422L322.732,132.159z
	 M341.511,213.779c-4.427,0-8.017,3.589-8.017,8.017v128.802h-35.273V221.795c0-4.427-3.589-8.017-8.017-8.017h-11.494
	l37.147-61.914l37.147,61.914H341.511z"/>
<path d="M358.614,384.802H153.386c-4.427,0-8.017,3.589-8.017,8.017c0,4.427,3.589,8.017,8.017,8.017h205.228
	c4.427,0,8.017-3.589,8.017-8.017C366.63,388.391,363.041,384.802,358.614,384.802z"/>
<g>
</g>
<g>
</g>
<g>
</g>
<g>
</g>
<g>
</g>
<g>
</g>
<g>
</g>
<g>
</g>
<g>
</g>
<g>
</g>
<g>
</g>
<g>
</g>
<g>
</g>
<g>
</g>
<g>
</g>
</svg>
