<?xml version="1.0" encoding="iso-8859-1"?>
<!-- Generator: Adobe Illustrator 19.0.0, SVG Export Plug-In . SVG Version: 6.00 Build 0)  -->
<svg version="1.1" id="Layer_1" xmlns="http://www.w3.org/2000/svg" xmlns:xlink="http://www.w3.org/1999/xlink" x="0px" y="0px"
	 viewBox="0 0 512 512" style="enable-background:new 0 0 512 512;" xml:space="preserve">
<path style="fill:#E4EAF6;" d="M256,503.706c65.333,0,124.719-25.335,168.979-66.664c-4.369-5.395-10.268-9.577-17.263-11.675
	l-64.785-19.527H169.485l-65.2,19.527c-6.995,2.099-12.894,6.28-17.263,11.675C131.281,478.372,190.667,503.706,256,503.706z"/>
<polygon style="fill:#E6AF78;" points="317.927,344.468 317.927,393.862 256,440.674 194.073,393.862 194.073,344.468 "/>
<path style="fill:#D29B6E;" d="M194.073,344.468v49.394l19.093,12.047c76.789,8.279,104.391-55.545,104.391-55.545l0.067-5.896
	H194.073z"/>
<g>
	<polygon style="fill:#D7DEED;" points="256,440.674 185.227,387.594 167.533,414.134 211.767,476.06 	"/>
	<polygon style="fill:#D7DEED;" points="256,440.674 326.773,387.594 344.467,414.134 300.233,476.06 	"/>
</g>
<path style="fill:#F0C087;" d="M289.921,373.701l35.506-29.589c6.572-5.476,10.937-13.147,12.288-21.594l20.178-126.111
	c6.88-43-26.336-81.954-69.884-81.954h-64.019c-43.548,0-76.765,38.954-69.884,81.954l20.178,126.111
	c1.351,8.446,5.717,16.117,12.288,21.594l35.506,29.589c4.769,3.974,10.782,6.152,16.99,6.152h33.863
	C279.14,379.853,285.152,377.677,289.921,373.701z"/>
<path style="fill:#E6AF78;" d="M237.146,240.795c40.778-5.735,76.051-17.004,100.425-26.354c0.027,0.003-4.992-22.855-4.914-22.844
	l-5.883,2.477c0,0-61.927,25.066-132.7,26.54h-36.094l16.305,101.906c1.351,8.446,5.717,16.117,12.288,21.594l35.507,29.589
	c4.769,3.974,10.781,6.151,16.989,6.151h8.085l-13.154-39.46c-3.007-9.02-4.539-18.467-4.539-27.975v-62.904
	C229.46,245.093,232.769,241.411,237.146,240.795z"/>
<g>
	<path style="fill:#707487;" d="M163.641,256h-11.388c-4.886,0-8.847,3.961-8.847,8.847v35.387c0,4.886,3.961,8.847,8.847,8.847
		h19.882L163.641,256z"/>
	<path style="fill:#707487;" d="M362.16,256h-13.801l-8.493,53.08h22.294c4.886,0,8.847-3.961,8.847-8.847v-35.387
		C371.006,259.961,367.045,256,362.16,256z"/>
</g>
<path style="fill:#5A4146;" d="M194.073,220.613c70.773-1.474,132.7-26.54,132.7-26.54l7.762,54.331
	c0.623,4.358,4.355,7.596,8.758,7.596h5.067l9.534-59.592c6.881-43-26.336-81.954-69.884-81.954h-64.019
	c-43.548,0-76.765,38.954-69.884,81.954L163.642,256h7.272c3.351,0,6.414-1.893,7.912-4.89L194.073,220.613z"/>
<path d="M459.473,398.099h-53.08c-4.58,0-8.294,3.713-8.294,8.294s3.713,8.294,8.294,8.294h28.889
	c-4.915,5.56-10.064,10.848-15.408,15.881c-3.054-1.818-6.321-3.261-9.776-4.298l-60.388-18.116L333.674,384.1
	c-1.264-1.897-3.253-3.189-5.5-3.574c-0.65-0.112-1.305-0.135-1.953-0.092v-26.185l4.516-3.763
	c8.113-6.761,13.5-16.228,15.169-26.655l1.033-6.456h6.375c14.329,0,25.987-11.658,25.987-25.987v-17.693
	c0-12.723-9.193-23.333-21.285-25.552l8.067-50.423c3.664-22.897-2.864-46.149-17.91-63.793s-36.974-27.766-60.163-27.766h-64.019
	c-23.189,0-45.118,10.119-60.164,27.764s-21.574,40.896-17.91,63.793l8.067,50.423c-12.091,2.221-21.284,12.831-21.284,25.554
	v17.693c0,14.329,11.658,25.987,25.987,25.987h6.375l1.033,6.456c1.669,10.428,7.055,19.894,15.169,26.655l4.516,3.764v26.185
	c-0.648-0.044-1.303-0.02-1.953,0.092c-2.247,0.386-4.236,1.678-5.5,3.574l-16.037,24.054l-60.388,18.116
	c-3.441,1.033-6.702,2.465-9.751,4.276c-1.833-1.724-3.653-3.469-5.441-5.256C41.491,380.071,16.587,319.949,16.587,256
	c0-38.695,9.443-77.13,27.307-111.148c2.13-4.055,0.568-9.07-3.487-11.199c-4.056-2.13-9.069-0.568-11.199,3.487
	C10.101,173.527,0,214.629,0,256c0,68.38,26.628,132.668,74.981,181.019S187.62,512,256,512c75.775,0,146.373-32.824,195.179-90.364
	v37.837c0,4.58,3.713,8.294,8.294,8.294s8.294-3.713,8.294-8.294v-53.08C467.767,401.813,464.053,398.099,459.473,398.099z
	 M406.268,442.465c-40.021,32.379-89.489,51.011-141.974,52.791v-36.22l30.759,24.607c1.479,1.183,3.309,1.818,5.181,1.818
	c0.379,0,0.761-0.025,1.14-0.079c2.257-0.313,4.285-1.54,5.609-3.394l40.784-57.099l57.565,17.269
	C405.648,442.253,405.957,442.359,406.268,442.465z M334.39,415.077l-35.816,50.142l-29.034-23.227l55.194-41.397L334.39,415.077z
	 M362.713,273.693v17.693c0,5.183-4.217,9.4-9.4,9.4h-3.721l5.8-36.252C359.578,265.484,362.713,269.226,362.713,273.693z
	 M176.449,144.687c11.89-13.942,29.218-21.94,47.542-21.94h64.019c18.324,0,35.652,7.996,47.542,21.94
	c11.889,13.942,17.049,32.318,14.152,50.412l-7.611,47.568l-7.109-49.766c-0.347-2.435-1.758-4.589-3.85-5.882
	c-2.091-1.293-4.65-1.59-6.982-0.813c-0.783,0.26-78.934,26.113-130.077,26.113c-3.142,0-6.014,1.775-7.418,4.585l-15.401,30.802
	h-0.541l-8.418-52.608C159.401,177.004,164.56,158.629,176.449,144.687z M158.687,300.786c-5.183,0-9.4-4.217-9.4-9.4v-17.693
	c0-4.468,3.135-8.21,7.32-9.16l5.801,36.252H158.687z M173.367,264.294h3.013c3.142,0,6.014-1.775,7.418-4.585l15.439-30.877
	c42.921-1.229,98.679-17.104,120.711-23.887l7.461,52.227c0.584,4.086,4.083,7.12,8.211,7.12h3.013l-6.374,39.841
	c-1.936,2.177-22.082,23.193-76.259,23.193c-4.58,0-8.294,3.713-8.294,8.294s3.713,8.294,8.294,8.294
	c34.771,0,57.522-7.973,71.388-15.672c-1.673,3.64-4.145,6.895-7.27,9.5l-35.506,29.589c-3.272,2.727-7.421,4.229-11.681,4.229
	h-33.863c-4.26,0-8.409-1.502-11.681-4.229l-35.506-29.589c-5.032-4.193-8.373-10.065-9.408-16.533L173.367,264.294z
	 M216.768,380.073c6.247,5.206,14.167,8.074,22.3,8.074h33.863c8.132,0,16.052-2.867,22.3-8.074l14.401-12.002v23.116L256,431.413
	l-53.633-40.225v-23.116L216.768,380.073z M187.265,400.595l55.194,41.397l-29.034,23.227l-35.816-50.142L187.265,400.595z
	 M106.669,442.158l57.565-17.269l40.784,57.099c1.324,1.853,3.353,3.081,5.609,3.394c0.379,0.053,0.761,0.079,1.14,0.079
	c1.872,0,3.702-0.634,5.181-1.818l30.759-24.607v36.219c-52.257-1.768-101.599-20.211-141.896-52.793
	C106.099,442.365,106.377,442.245,106.669,442.158z"/>
<path d="M437.019,74.981C388.668,26.628,324.38,0,256,0c-40.549,0-79.333,9.206-115.277,27.364
	c-30.381,15.347-57.772,36.991-79.902,63.007V52.527c0-4.58-3.713-8.294-8.294-8.294s-8.294,3.713-8.294,8.294v53.08
	c0,4.58,3.713,8.294,8.294,8.294h53.08c4.58,0,8.294-3.713,8.294-8.294s-3.713-8.294-8.294-8.294H76.771
	c20.1-22.646,44.508-41.544,71.431-55.143C181.805,25.194,218.074,16.587,256,16.587c63.949,0,124.071,24.903,169.291,70.122
	c45.219,45.22,70.122,105.342,70.122,169.291c0,38.695-9.443,77.13-27.307,111.148c-2.13,4.055-0.568,9.07,3.487,11.199
	c1.231,0.646,2.549,0.952,3.848,0.952c2.984,0,5.866-1.615,7.349-4.44C501.899,338.473,512,297.371,512,256
	C512,187.62,485.372,123.332,437.019,74.981z"/>
<g>
</g>
<g>
</g>
<g>
</g>
<g>
</g>
<g>
</g>
<g>
</g>
<g>
</g>
<g>
</g>
<g>
</g>
<g>
</g>
<g>
</g>
<g>
</g>
<g>
</g>
<g>
</g>
<g>
</g>
</svg>
