<?xml version="1.0" encoding="iso-8859-1"?>
<!-- Generator: Adobe Illustrator 19.0.0, SVG Export Plug-In . SVG Version: 6.00 Build 0)  -->
<svg version="1.1" id="Layer_1" xmlns="http://www.w3.org/2000/svg" xmlns:xlink="http://www.w3.org/1999/xlink" x="0px" y="0px"
	 viewBox="0 0 512 512" style="enable-background:new 0 0 512 512;" xml:space="preserve">
<path style="fill:#5A4146;" d="M155.992,112.51c-62.438,0-113.053,50.616-113.053,113.053V425.58h226.106V225.563
	C269.045,163.126,218.429,112.51,155.992,112.51z"/>
<path style="fill:#E6AF78;" d="M287.776,427.586l-77.599-32.333c-6.481-2.7-10.703-9.033-10.703-16.056v-21.015H112.51v21.016
	c0,7.021-4.222,13.354-10.703,16.056l-77.599,32.333c-9.721,4.05-16.055,13.549-16.055,24.081v34.786
	c0,9.605,7.788,17.393,17.393,17.393h260.892c9.605,0,17.393-7.788,17.393-17.393v-34.786
	C303.83,441.136,297.497,431.638,287.776,427.586z"/>
<path style="fill:#D29B6E;" d="M199.473,358.183H112.51v21.016c0,7.021-4.222,13.354-10.703,16.056l-12.12,5.05
	C182.432,423.952,199.473,358.183,199.473,358.183z"/>
<path style="fill:#FF6464;" d="M287.776,427.586l-57.347-23.894c-37.486,47.092-74.437,56.673-74.437,56.673
	s-36.951-9.581-74.437-56.673l-57.347,23.894c-9.721,4.051-16.055,13.55-16.055,24.083v34.786c0,9.605,7.788,17.393,17.393,17.393
	h260.892c9.605,0,17.393-7.788,17.393-17.393v-34.786C303.83,441.136,297.497,431.638,287.776,427.586z"/>
<g>
	<path style="fill:#707487;" d="M256,260.348h-14.626l-4.744,52.178H256c4.803,0,8.696-3.894,8.696-8.696v-34.786
		C264.696,264.242,260.804,260.348,256,260.348z"/>
	<path style="fill:#707487;" d="M70.609,260.348H55.983c-4.803,0-8.696,3.894-8.696,8.696v34.786c0,4.803,3.894,8.696,8.696,8.696
		h19.369L70.609,260.348z"/>
</g>
<g>
	<path style="fill:#D2555A;" d="M50.54,461.228l-34.906-27.765c-4.676,4.783-7.48,11.25-7.48,18.206v34.786
		c0,9.605,7.788,17.393,17.393,17.393h34.786v-22.246C60.331,473.675,56.729,466.18,50.54,461.228z"/>
	<path style="fill:#D2555A;" d="M303.83,486.454v-34.786c0-6.902-2.757-13.325-7.368-18.097l-35.019,27.657
		c-6.189,4.952-9.791,12.447-9.791,20.372v22.246h34.786C296.044,503.847,303.83,496.061,303.83,486.454z"/>
</g>
<path style="fill:#F0C087;" d="M149.861,205.812c-19.379,20.277-44.502,34.944-72.726,41.632c-4.283,1.015-7.255,4.884-6.856,9.268
	l5.78,63.58c1.042,11.463,7.688,21.668,17.749,27.258l45.291,25.161c10.506,5.836,23.28,5.836,33.787,0l45.291-25.161
	c10.062-5.59,16.707-15.795,17.749-27.258l5.78-63.58c0.399-4.384-2.573-8.253-6.856-9.268
	c-28.224-6.689-53.347-21.355-72.726-41.632C158.807,202.343,153.176,202.343,149.861,205.812z"/>
<path style="fill:#E6AF78;" d="M234.849,247.445c-28.225-6.689-53.348-21.356-72.726-41.632c-3.317-3.469-8.946-3.469-12.263,0
	c-19.378,20.277-44.502,34.944-72.726,41.632c-4.282,1.015-7.255,4.884-6.856,9.268l5.78,63.58
	c1.042,11.463,7.687,21.668,17.748,27.258l45.291,25.161c3.767,2.091,7.827,3.402,11.966,3.995l-14.223-25.603
	c-4.578-8.241-7.433-17.325-8.393-26.702l-6.146-60.045c-0.35-3.422,1.386-6.666,4.359-8.397
	c10.527-6.131,20.405-13.347,29.331-21.7c23.008,21.533,51.977,36.213,83.282,41.939l0.652,0.082l1.779-19.567
	C242.104,252.329,239.132,248.459,234.849,247.445z"/>
<path style="fill:#E4EAF6;" d="M105.307,503.847h101.369c15.717-46.127,23.931-85.153,26.589-98.973l-2.836-1.182
	c-37.487,47.091-74.438,56.672-74.438,56.672s-36.951-9.581-74.438-56.673l-2.836,1.182
	C81.375,418.694,89.59,457.721,105.307,503.847z"/>
<path style="fill:#D7DEED;" d="M86.703,440.582c35.037,34.141,63.802,42.848,65.363,43.296l3.925,1.127l3.925-1.127
	c1.561-0.448,30.325-9.154,65.363-43.296c4.101-16.418,6.701-29.026,7.985-35.707l-2.836-1.182
	c-37.487,47.091-74.438,56.672-74.438,56.672s-36.951-9.581-74.438-56.673l-2.836,1.182C80.002,411.556,82.6,424.164,86.703,440.582
	z"/>
<path d="M512,173.384C512,77.781,434.221,0,338.616,0c-30.047,0-59.654,7.809-85.621,22.583
	c-25.175,14.322-46.554,34.912-61.828,59.541c-2.374,3.826-1.196,8.853,2.632,11.225c3.825,2.373,8.853,1.195,11.225-2.632
	c28.897-46.594,78.838-74.412,133.593-74.412c86.614,0,157.079,70.466,157.079,157.079c0,86.614-70.465,157.079-157.079,157.079
	c-2.086,0-4.179-0.054-6.27-0.137l12.035-12.034c3.184-3.184,3.184-8.346,0-11.529c-3.184-3.185-8.346-3.185-11.529,0
	l-26.089,26.089c-3.184,3.184-3.184,8.345,0,11.529l26.089,26.089c1.591,1.591,3.679,2.387,5.765,2.387s4.173-0.796,5.765-2.387
	c3.184-3.184,3.184-8.346,0-11.529l-12.309-12.309c2.183,0.082,4.366,0.136,6.543,0.136C434.221,346.769,512,268.989,512,173.384z"
	/>
<path d="M375,113.212c-4.418-0.885-8.711,1.981-9.593,6.395l-17.393,86.964c-0.478,2.395,0.141,4.879,1.689,6.768
	c1.549,1.889,3.862,2.984,6.305,2.984h44.026v17.936c0,4.504,3.65,8.153,8.153,8.153s8.153-3.649,8.153-8.153v-17.936h9.24
	c4.503,0,8.153-3.649,8.153-8.153c0-4.503-3.65-8.153-8.153-8.153h-9.24v-78.811c0-4.503-3.65-8.153-8.153-8.153
	s-8.153,3.65-8.153,8.153v78.811h-34.081l15.443-77.212C382.279,118.389,379.416,114.094,375,113.212z"/>
<path d="M290.912,420.061l-13.714-5.714V242.412h52.722c4.503,0,8.153-3.649,8.153-8.153c0-4.503-3.65-8.153-8.153-8.153H278.19
	c2.847-10.623,11.674-16.464,24.558-24.198c15.738-9.446,35.325-21.204,35.325-50.265c0-21.278-17.311-38.59-38.59-38.59
	s-38.59,17.312-38.59,38.59c0,4.504,3.65,8.153,8.153,8.153c4.503,0,8.153-3.649,8.153-8.153c0-12.288,9.996-22.285,22.284-22.285
	s22.285,9.997,22.285,22.285c0,19.831-12.097,27.093-27.411,36.285c-6.64,3.985-13.649,8.201-19.532,13.722
	c-11.134-55.419-60.182-97.293-118.832-97.293c-66.833,0-121.206,54.373-121.206,121.206v188.785l-13.714,5.714
	C8.271,425.395,0,437.801,0,451.669v34.786C0,500.54,11.46,512,25.546,512h260.892c14.086,0,25.546-11.46,25.546-25.546v-34.786
	C311.983,437.801,303.712,425.395,290.912,420.061z M243.499,481.601v14.094h-27.713c14.115-35.769,21.864-65.783,24.918-78.888
	l41.567,17.32l-25.921,20.737C248.183,461.396,243.499,471.141,243.499,481.601z M113.763,495.694
	c-11.665-28.612-19.294-54.31-23.607-70.673c32.48,35.067,62.473,42.908,63.86,43.255c0.649,0.162,1.313,0.243,1.977,0.243
	c0.664,0,1.328-0.082,1.977-0.243c1.387-0.347,31.379-8.187,63.86-43.255c-4.314,16.363-11.942,42.061-23.607,70.673
	L113.763,495.694L113.763,495.694z M55.633,454.863l-25.921-20.737l41.567-17.32c3.056,13.105,10.804,43.119,24.918,78.888H68.484
	v-14.094C68.484,471.141,63.8,461.396,55.633,454.863z M251.652,268.501c5.095,0,9.24,4.145,9.24,9.24v17.393
	c0,5.096-4.145,9.24-9.24,9.24h-6.093l3.261-35.873H251.652z M228.686,309.876c-6.657,5.887-27.775,20.587-72.694,20.587
	c-4.503,0-8.153,3.65-8.153,8.153c0,4.504,3.65,8.153,8.153,8.153c31.214,0,52.574-6.536,66.428-13.435
	c-2.189,2.858-4.96,5.288-8.203,7.091l-45.291,25.161c-8.1,4.499-17.769,4.499-25.868,0l-45.291-25.161
	c-7.709-4.283-12.79-12.085-13.588-20.869l-5.78-63.58c-0.029-0.324,0.352-0.534,0.616-0.597
	c29.393-6.965,55.929-22.157,76.739-43.933c0.13-0.136,0.346-0.136,0.476,0c20.812,21.776,47.348,36.967,76.74,43.933
	c0.264,0.063,0.646,0.273,0.616,0.597L228.686,309.876z M120.662,379.199v-7.403l14.476,8.043c6.529,3.626,13.69,5.441,20.853,5.441
	s14.324-1.813,20.853-5.441l14.476-8.042v7.403c0,10.345,6.17,19.602,15.72,23.58l9.251,3.855
	c-26.837,32.016-53.083,42.724-60.324,45.205c-7.272-2.448-33.281-12.971-60.278-45.204l9.252-3.855
	C114.492,398.8,120.662,389.545,120.662,379.199z M213.313,387.729c-3.455-1.439-5.686-4.787-5.686-8.529v-16.461l14.509-8.06
	c12.432-6.906,20.621-19.484,21.909-33.646l0.032-0.352h7.576c3.258,0,6.372-0.62,9.24-1.736v88.61L213.313,387.729z
	 M155.992,120.662c57.842,0,104.9,47.058,104.9,104.9v28.37c-2.868-1.116-5.982-1.737-9.24-1.737h-2.186
	c-1.393-6.142-6.18-11.13-12.737-12.684c-26.321-6.238-50.081-19.839-68.711-39.333c-3.111-3.255-7.494-5.122-12.026-5.122
	c-4.532,0-8.915,1.868-12.026,5.122l0,0c-18.631,19.494-42.391,33.094-68.711,39.333c-6.557,1.553-11.346,6.542-12.738,12.684
	h-2.185c-3.258,0-6.372,0.62-9.24,1.737v-28.37C51.091,167.721,98.15,120.662,155.992,120.662z M51.091,277.741
	c0-5.095,4.145-9.24,9.24-9.24h2.832l3.261,35.873h-6.093c-5.095,0-9.24-4.145-9.24-9.24V277.741z M51.091,318.943
	c2.868,1.116,5.982,1.736,9.24,1.736h7.576l0.033,0.352c1.288,14.162,9.478,26.74,21.909,33.646l14.508,8.06V379.2
	c0,3.742-2.232,7.09-5.686,8.529l-47.579,19.824V318.943z M16.306,486.454v-34.786c0-2.248,0.417-4.421,1.189-6.435l27.952,22.363
	c4.279,3.422,6.731,8.527,6.731,14.006v14.093H25.546C20.451,495.694,16.306,491.549,16.306,486.454z M295.677,486.454
	c0,5.095-4.145,9.24-9.24,9.24h-26.633v-14.094c0-5.479,2.453-10.583,6.731-14.006l27.952-22.362
	c0.772,2.014,1.189,4.188,1.189,6.435V486.454z"/>
<g>
</g>
<g>
</g>
<g>
</g>
<g>
</g>
<g>
</g>
<g>
</g>
<g>
</g>
<g>
</g>
<g>
</g>
<g>
</g>
<g>
</g>
<g>
</g>
<g>
</g>
<g>
</g>
<g>
</g>
</svg>
