<?xml version="1.0" encoding="iso-8859-1"?>
<!-- Generator: Adobe Illustrator 19.0.0, SVG Export Plug-In . SVG Version: 6.00 Build 0)  -->
<svg version="1.1" id="Layer_1" xmlns="http://www.w3.org/2000/svg" xmlns:xlink="http://www.w3.org/1999/xlink" x="0px" y="0px"
	 viewBox="0 0 512 512" style="enable-background:new 0 0 512 512;" xml:space="preserve">
<path style="fill:#D7DEED;" d="M318.805,463.016c1.376-10.463,3.413-27.786,6.434-30.807c10.3-10.3,32.509-7.132,53.656-6.635
	c21.147,0.498,33.587-15.176,35.08-26.87c1.493-11.694-3.935-20.672-3.484-27.616c0.664-10.2,7.63-10.2,10.284-16.171
	c1.748-3.931-0.586-7.84-2.631-10.259c-1.036-1.225-0.82-3.121,0.58-3.905c9.524-5.327,8.626-12.183,6.063-16.242
	c-4.328-6.853-3.016-12.387-2.021-16.036c0.995-3.649,11.48-3.413,20.07-7.795c12.191-6.22,8.459-21.645,1.825-27.367
	c-6.575-5.67-26.206-34.001-30.519-42.461c-4.641-9.104-7.132-14.264-1.161-27.201c5.971-12.937,3.649-23.055-1.493-34.334
	c-6.776-14.864-15.591-58.217-30.353-78.121c-14.262-19.229-45.071-49.601-120.6-55.305l-51.306,1.087
	c-38.072,3.884-71.134,16.699-108.235,54.219c-29.524,29.855-39.807,66.345-39.807,95.537c0,42.67,14.362,84.454,31.846,119.421
	c12.324,24.65,18.29,64.211,21.177,88.453L318.805,463.016z"/>
<circle style="fill:#959CB3;" cx="234.879" cy="266.336" r="59.858"/>
<path style="fill:#5B5D6E;" d="M217.776,138.072v128.267c0,9.445,7.658,17.102,17.102,17.102s17.102-7.658,17.102-17.102V138.072
	H217.776z"/>
<path style="fill:#AFB9D2;" d="M109.228,389.645l222.33,71.463c3.536,1.136,5.934,4.426,5.934,8.141v24.388
	c0,5.913-5.859,10.042-11.428,8.053l-222.33-79.404c-3.403-1.215-5.675-4.439-5.675-8.053v-16.448
	C98.06,391.988,103.708,387.87,109.228,389.645z"/>
<path style="fill:#707487;" d="M251.98,9.805h-34.205c-4.722,0-8.551,3.829-8.551,8.551v111.165c0,4.722,3.829,8.551,8.551,8.551
	h34.205c4.722,0,8.551-3.829,8.551-8.551V18.356C260.532,13.633,256.703,9.805,251.98,9.805z"/>
<path style="fill:#5B5D6E;" d="M380.248,367.165h-17.102c-9.446,0-17.102-7.656-17.102-17.102l0,0
	c0-9.446,7.656-17.102,17.102-17.102h17.102V367.165z"/>
<path d="M449.895,265.454c-5.302-4.573-24.284-31.541-28.613-40.031c-4.172-8.183-5.431-10.654-1.024-20.201
	c7.615-16.498,3.79-29.464-1.477-41.019c-2.063-4.525-4.498-12.505-7.317-21.743c-5.915-19.388-13.277-43.516-23.892-57.828
	c-24.438-32.949-64.465-52.389-119.025-57.861V16.568C268.547,7.432,261.115,0,251.979,0h-34.205
	c-9.136,0-16.568,7.432-16.568,16.568v11.51C160.133,33.672,128.099,50.594,95.29,83.77c-26.77,27.071-42.124,63.948-42.124,101.174
	c0,38.235,10.999,79.62,32.692,123.006c11.114,22.229,16.779,50.201,19.654,71.54c-3.088,0.207-6.106,1.256-8.661,3.118
	c-4.264,3.108-6.809,8.113-6.809,13.389v22.475c0,3.387,2.13,6.41,5.321,7.55l239.432,85.511c0.876,0.313,1.788,0.467,2.696,0.467
	c1.632,0,3.249-0.498,4.619-1.463c2.131-1.502,3.399-3.946,3.399-6.553v-36.522c0-7.224-4.621-13.562-11.498-15.773l-6.654-2.139
	c1.665-10.447,3.376-13.183,3.624-13.533c6.119-5.988,21.734-5.292,36.837-4.622c3.559,0.158,7.239,0.322,10.887,0.407
	c26.747,0.603,41.377-19.427,43.221-33.87c1.069-8.373-0.697-15.32-2.115-20.904c-0.732-2.881-1.424-5.602-1.319-7.206
	c0.19-2.929,0.878-3.518,3.154-5.467c1.985-1.701,4.704-4.03,6.455-7.969c1.926-4.333,1.681-9.161-0.591-13.792
	c4.058-3.491,5.777-7.198,6.487-9.995c1.204-4.739,0.34-9.766-2.432-14.156c-1.741-2.757-1.983-4.882-1.645-7.086
	c0.955-0.267,2.126-0.553,3.093-0.788c3.904-0.951,8.761-2.136,13.465-4.535c6.946-3.543,11.274-9.666,12.186-17.24
	C459.678,280.379,456.072,270.783,449.895,265.454z M243.964,144.301v120.251c0,5.01-4.076,9.086-9.086,9.086
	s-9.086-4.076-9.086-9.086V144.301H243.964z M234.878,289.67c2.795,0,5.481-0.466,7.994-1.313l17.36,21.385
	c-7.503,4.225-16.149,6.649-25.355,6.649c-28.585,0-51.841-23.256-51.841-51.841c0-18.978,10.58-36.326,26.722-45.337v45.338
	C209.759,278.402,221.027,289.67,234.878,289.67z M255.65,278.658c2.742-4.024,4.347-8.881,4.347-14.107v-45.337
	c16.142,9.012,26.722,26.359,26.722,45.337c0,13.612-5.281,26.008-13.892,35.268L255.65,278.658z M217.776,16.033h34.205
	c0.295,0,0.534,0.239,0.534,0.534v111.165c0,0.295-0.239,0.534-0.534,0.534h-34.205c-0.295,0-0.534-0.239-0.534-0.534V16.568
	C217.241,16.273,217.481,16.033,217.776,16.033z M329.475,467.461v25.147l-223.399-79.785v-16.824c0-0.089,0-0.272,0.22-0.432
	c0.22-0.16,0.394-0.104,0.478-0.077l0,0l222.33,71.463C329.327,467.023,329.475,467.228,329.475,467.461z M442.746,286.875
	c-0.272,2.256-1.368,3.761-3.555,4.877c-3.035,1.548-6.722,2.447-9.976,3.24c-5.811,1.416-12.395,3.022-14.185,9.587
	c-1.009,3.702-3.373,12.369,2.978,22.425c0.145,0.23,0.606,1.027,0.449,1.647c-0.183,0.72-1.237,1.97-3.647,3.318
	c-2.721,1.522-4.603,4.162-5.161,7.243c-0.572,3.155,0.293,6.375,2.372,8.833c0.826,0.977,1.182,1.709,1.303,2.061
	c-0.335,0.537-1.021,1.138-2.11,2.072c-3.028,2.593-8.095,6.934-8.723,16.603c-0.268,4.137,0.727,8.052,1.78,12.197
	c1.197,4.708,2.434,9.576,1.752,14.924c-1.053,8.244-10.336,20.261-26.939,19.871c-3.48-0.082-7.076-0.242-10.552-0.397
	c-19.489-0.866-37.901-1.685-48.963,9.376c-2.533,2.534-5.356,6.958-7.637,19.838l-189.745-60.989
	c-0.007-0.094-0.009-0.188-0.019-0.282c-2.752-23.117-8.798-56.202-21.967-82.538c-20.57-41.14-30.999-80.113-30.999-115.836
	c0-33.04,13.665-65.806,37.491-89.9c29.932-30.268,57.852-45.386,94.516-50.777v83.465c0,6.228,3.458,11.659,8.551,14.489v59.269
	c-25.448,10.176-42.756,35.288-42.756,63.06c0,37.426,30.449,67.875,67.875,67.875c13.036,0,25.219-3.702,35.57-10.098
	l18.915,23.302c6.422,7.912,15.95,12.449,26.141,12.449h23.842c3.354,9.93,12.752,17.102,23.8,17.102h17.102
	c4.427,0,8.017-3.589,8.017-8.017V332.96c0-4.427-3.589-8.017-8.017-8.017h-17.102c-11.048,0-20.446,7.172-23.8,17.102h-23.842
	c-5.338,0-10.329-2.377-13.694-6.521l-18.804-23.165c12.196-12.277,19.746-29.177,19.746-47.808
	c0-27.773-17.307-52.885-42.756-63.06v-59.269c5.093-2.829,8.551-8.26,8.551-14.489v-84.84c28.249,2.998,52.217,9.962,71.311,20.768
	c14.141,8.002,25.536,17.986,34.834,30.523c8.965,12.088,15.878,34.748,21.435,52.955c2.984,9.781,5.561,18.229,8.063,23.716
	c4.49,9.851,6.177,17.533,1.508,27.649c-7.152,15.496-4.281,23.258,1.298,34.202c4.349,8.531,24.672,38.203,32.425,44.89
	C441.366,279.271,443.165,283.4,442.746,286.875z M354.06,350.063c0-5.01,4.076-9.086,9.086-9.086h9.086v18.171h-9.086
	C358.136,359.148,354.06,355.073,354.06,350.063z"/>
<g>
</g>
<g>
</g>
<g>
</g>
<g>
</g>
<g>
</g>
<g>
</g>
<g>
</g>
<g>
</g>
<g>
</g>
<g>
</g>
<g>
</g>
<g>
</g>
<g>
</g>
<g>
</g>
<g>
</g>
</svg>
