<?xml version="1.0" encoding="iso-8859-1"?>
<!-- Generator: Adobe Illustrator 19.0.0, SVG Export Plug-In . SVG Version: 6.00 Build 0)  -->
<svg version="1.1" id="Layer_1" xmlns="http://www.w3.org/2000/svg" xmlns:xlink="http://www.w3.org/1999/xlink" x="0px" y="0px"
	 viewBox="0 0 512 512" style="enable-background:new 0 0 512 512;" xml:space="preserve">
<polygon style="fill:#464655;" points="324.409,452.676 187.591,452.676 196.142,367.165 315.858,367.165 "/>
<path style="fill:#5B5D6E;" d="M478.33,384.267H33.67c-14.168,0-25.653-11.485-25.653-25.653V84.977
	c0-14.168,11.485-25.653,25.653-25.653h444.66c14.168,0,25.653,11.485,25.653,25.653v273.637
	C503.983,372.782,492.498,384.267,478.33,384.267z"/>
<rect x="42.221" y="93.528" style="fill:#FFFFFF;" width="427.557" height="256.534"/>
<rect x="42.221" y="93.528" style="fill:#EFF2FA;" width="427.557" height="23.516"/>
<path style="fill:#28AFF0;" d="M247.449,315.858H93.528c-9.446,0-17.102-7.656-17.102-17.102V144.835
	c0-9.446,7.656-17.102,17.102-17.102h153.921c9.446,0,17.102,7.656,17.102,17.102v153.921
	C264.551,308.202,256.895,315.858,247.449,315.858z"/>
<path style="fill:#5A4146;" d="M102.079,315.858h136.818c0-59.858,1.993-162.472-68.409-162.472
	C99.659,153.386,102.079,256,102.079,315.858z"/>
<rect x="144.835" y="280.585" style="fill:#D29B6E;" width="51.307" height="35.273"/>
<path style="fill:#F0C087;" d="M213.244,221.795v36.782c0,9.011-4.728,17.361-12.455,21.998l-21.502,12.902
	c-5.416,3.249-12.182,3.249-17.598,0l-21.502-12.902c-7.727-4.636-12.455-12.987-12.455-21.998v-36.782c0,0,51.307,0,68.409-17.102
	L213.244,221.795z"/>
<g>
	<path style="fill:#C7CFE2;" d="M427.023,221.795h-68.409c-4.722,0-8.551-3.829-8.551-8.551l0,0c0-4.722,3.829-8.551,8.551-8.551
		h68.409c4.722,0,8.551,3.829,8.551,8.551l0,0C435.574,217.967,431.745,221.795,427.023,221.795z"/>
	<path style="fill:#C7CFE2;" d="M427.023,187.591h-68.409c-4.722,0-8.551-3.829-8.551-8.551l0,0c0-4.722,3.829-8.551,8.551-8.551
		h68.409c4.722,0,8.551,3.829,8.551,8.551l0,0C435.574,183.762,431.745,187.591,427.023,187.591z"/>
	<path style="fill:#C7CFE2;" d="M427.023,153.386h-68.409c-4.722,0-8.551-3.829-8.551-8.551l0,0c0-4.722,3.829-8.551,8.551-8.551
		h68.409c4.722,0,8.551,3.829,8.551,8.551l0,0C435.574,149.557,431.745,153.386,427.023,153.386z"/>
</g>
<g>
	<path style="fill:#D7DEED;" d="M324.409,221.795h-17.102c-4.722,0-8.551-3.829-8.551-8.551l0,0c0-4.722,3.829-8.551,8.551-8.551
		h17.102c4.722,0,8.551,3.829,8.551,8.551l0,0C332.96,217.967,329.132,221.795,324.409,221.795z"/>
	<path style="fill:#D7DEED;" d="M324.409,187.591h-17.102c-4.722,0-8.551-3.829-8.551-8.551l0,0c0-4.722,3.829-8.551,8.551-8.551
		h17.102c4.722,0,8.551,3.829,8.551,8.551l0,0C332.96,183.762,329.132,187.591,324.409,187.591z"/>
	<path style="fill:#D7DEED;" d="M324.409,153.386h-17.102c-4.722,0-8.551-3.829-8.551-8.551l0,0c0-4.722,3.829-8.551,8.551-8.551
		h17.102c4.722,0,8.551,3.829,8.551,8.551l0,0C332.96,149.557,329.132,153.386,324.409,153.386z"/>
</g>
<path style="fill:#EFF2FA;" d="M418.472,247.449H315.858c-4.722,0-8.551,3.829-8.551,8.551v51.307c0,4.722,3.829,8.551,8.551,8.551
	h102.614c4.722,0,8.551-3.829,8.551-8.551V256C427.023,251.278,423.194,247.449,418.472,247.449z"/>
<path d="M478.33,51.307H33.67C15.105,51.307,0,66.411,0,84.977v273.637c0,18.566,15.105,33.67,33.67,33.67h153.39l-6.547,52.376
	h-10.025c-4.427,0-8.017,3.589-8.017,8.017c0,4.427,3.589,8.017,8.017,8.017h171.023c4.427,0,8.017-3.589,8.017-8.017
	c0-4.427-3.589-8.017-8.017-8.017h-10.025l-6.547-52.376H478.33c18.566,0,33.67-15.105,33.67-33.67V84.977
	C512,66.411,496.895,51.307,478.33,51.307z M315.328,444.66H196.672l6.547-52.376h105.563L315.328,444.66z M495.967,358.614
	c0,9.725-7.912,17.637-17.637,17.637H33.67c-9.725,0-17.637-7.912-17.637-17.637V84.977c0-9.725,7.912-17.637,17.637-17.637h444.66
	c9.725,0,17.637,7.912,17.637,17.637V358.614z"/>
<path d="M469.779,85.511H42.221c-4.427,0-8.017,3.589-8.017,8.017v256.534c0,4.427,3.589,8.017,8.017,8.017h427.557
	c4.427,0,8.017-3.589,8.017-8.017V93.528C477.795,89.101,474.206,85.511,469.779,85.511z M461.762,342.046H50.238V101.545h411.524
	V342.046z"/>
<path d="M93.528,323.875h153.921c13.851,0,25.119-11.268,25.119-25.119V144.835c0-13.851-11.268-25.119-25.119-25.119H93.528
	c-13.851,0-25.119,11.268-25.119,25.119v153.921C68.409,312.606,79.677,323.875,93.528,323.875z M205.228,238.898
	c0,9.725-7.912,17.637-17.637,17.637h-17.102c-4.427,0-8.017,3.589-8.017,8.017c0,4.427,3.589,8.017,8.017,8.017h17.102
	c4.883,0,9.522-1.053,13.714-2.931c-1.284,1.598-2.842,2.985-4.64,4.064l-21.502,12.902c-2.883,1.73-6.466,1.73-9.349,0
	l-21.502-12.902c-5.281-3.169-8.563-8.964-8.563-15.124v-28.501c0-0.289,0.231-0.518,0.537-0.534
	c31.805-1.654,49.435-7.884,59.202-14.165l9.583,9.583c0.1,0.1,0.156,0.235,0.156,0.377v13.561H205.228z M157.565,300.351
	c3.986,2.392,8.455,3.587,12.924,3.587c4.469,0,8.938-1.196,12.924-3.587l4.713-2.828v10.319h-35.273v-10.319L157.565,300.351z
	 M204.159,287.903l0.756-0.453c10.083-6.05,16.347-17.113,16.347-28.872v-33.24c0-4.426-1.723-8.586-4.853-11.715l-14.598-14.598
	c-1.503-1.503-3.542-2.348-5.668-2.348s-4.165,0.844-5.668,2.348c-7.692,7.692-28.259,13.114-55.019,14.506
	c-8.825,0.459-15.738,7.727-15.738,16.546v28.501c0,11.759,6.264,22.822,16.347,28.872l0.756,0.453v19.938h-26.691
	c0.37-51.842,4.402-85.653,12.938-108.941c9.506-25.932,24.132-37.498,47.424-37.498s37.918,11.565,47.424,37.498
	c8.536,23.287,12.568,57.098,12.938,108.941h-26.691V287.903z M84.443,144.835c0-5.01,4.076-9.086,9.086-9.086h153.921
	c5.01,0,9.086,4.076,9.086,9.086v153.921c0,5.01-4.076,9.086-9.086,9.086h-0.565c-0.385-53.851-4.72-89.368-13.917-114.458
	c-11.843-32.308-32.279-48.014-62.478-48.014s-50.635,15.705-62.478,48.014c-9.197,25.09-13.532,60.607-13.917,114.458h-0.565
	c-5.01,0-9.086-4.076-9.086-9.086V144.835z"/>
<path d="M307.307,152.852h17.102c4.427,0,8.017-3.589,8.017-8.017c0-4.427-3.589-8.017-8.017-8.017h-17.102
	c-4.427,0-8.017,3.589-8.017,8.017C299.29,149.262,302.88,152.852,307.307,152.852z"/>
<path d="M307.307,187.056h17.102c4.427,0,8.017-3.589,8.017-8.017s-3.589-8.017-8.017-8.017h-17.102
	c-4.427,0-8.017,3.589-8.017,8.017S302.88,187.056,307.307,187.056z"/>
<path d="M307.307,221.261h17.102c4.427,0,8.017-3.589,8.017-8.017s-3.589-8.017-8.017-8.017h-17.102
	c-4.427,0-8.017,3.589-8.017,8.017S302.88,221.261,307.307,221.261z"/>
<path d="M358.614,152.852h68.409c4.427,0,8.017-3.589,8.017-8.017c0-4.427-3.589-8.017-8.017-8.017h-68.409
	c-4.427,0-8.017,3.589-8.017,8.017C350.597,149.262,354.186,152.852,358.614,152.852z"/>
<path d="M358.614,187.056h68.409c4.427,0,8.017-3.589,8.017-8.017s-3.589-8.017-8.017-8.017h-68.409
	c-4.427,0-8.017,3.589-8.017,8.017S354.186,187.056,358.614,187.056z"/>
<path d="M358.614,221.261h68.409c4.427,0,8.017-3.589,8.017-8.017s-3.589-8.017-8.017-8.017h-68.409
	c-4.427,0-8.017,3.589-8.017,8.017S354.186,221.261,358.614,221.261z"/>
<path d="M315.858,323.875h102.614c9.136,0,16.568-7.432,16.568-16.568V256c0-9.136-7.432-16.568-16.568-16.568H315.858
	c-9.136,0-16.568,7.432-16.568,16.568v51.307C299.29,316.443,306.722,323.875,315.858,323.875z M315.324,256
	c0-0.295,0.239-0.534,0.534-0.534h102.614c0.295,0,0.534,0.239,0.534,0.534v51.307c0,0.295-0.239,0.534-0.534,0.534H315.858
	c-0.295,0-0.534-0.239-0.534-0.534V256z"/>
<g>
</g>
<g>
</g>
<g>
</g>
<g>
</g>
<g>
</g>
<g>
</g>
<g>
</g>
<g>
</g>
<g>
</g>
<g>
</g>
<g>
</g>
<g>
</g>
<g>
</g>
<g>
</g>
<g>
</g>
</svg>
