<?xml version="1.0" encoding="iso-8859-1"?>
<!-- Generator: Adobe Illustrator 19.0.0, SVG Export Plug-In . SVG Version: 6.00 Build 0)  -->
<svg version="1.1" id="Layer_1" xmlns="http://www.w3.org/2000/svg" xmlns:xlink="http://www.w3.org/1999/xlink" x="0px" y="0px"
	 viewBox="0 0 512 512" style="enable-background:new 0 0 512 512;" xml:space="preserve">
<path style="fill:#C7CFE2;" d="M394.552,9.235c-39.988,6.328-71.899,38.995-77.696,79.064c-3.292,22.76,1.747,44.109,12.288,61.799
	l-16.743,41.859c-1.92,4.798,2.842,9.561,7.642,7.642l41.859-16.743c17.69,10.54,39.039,15.58,61.799,12.288
	c40.069-5.797,72.735-37.707,79.064-77.696C512.884,53.502,458.498-0.884,394.552,9.235z"/>
<path style="fill:#AFB9D2;" d="M350.063,102.079c0-46.066,33.138-84.328,76.861-92.419c-10.313-1.887-21.178-2.197-32.371-0.424
	c-39.988,6.328-71.899,38.994-77.696,79.064c-3.293,22.76,1.747,44.109,12.288,61.799L312.4,191.958
	c-1.919,4.798,2.843,9.56,7.642,7.64l41.859-16.743c17.69,10.54,39.039,15.58,61.799,12.288c1.129-0.164,2.229-0.422,3.345-0.625
	C383.264,186.474,350.063,148.188,350.063,102.079z"/>
<path style="fill:#E6AF78;" d="M238.898,380.187v-38.676H119.182v38.676c0,7.508-4.897,14.138-12.073,16.345l-74.947,23.06
	C17.81,424.01,8.017,437.269,8.017,452.285v34.596c0,9.446,7.656,17.102,17.102,17.102H332.96c9.446,0,17.102-7.656,17.102-17.102
	v-34.596c0-15.016-9.793-28.277-24.145-32.692l-74.947-23.06C243.794,394.326,238.898,387.695,238.898,380.187z"/>
<path style="fill:#C7CFE2;" d="M325.917,419.593l-50.677-12.879c-19.91,29.984-57.511,48.1-96.2,48.1s-72.73-21.925-92.641-51.909
	l-54.237,16.688C17.81,424.01,8.017,437.269,8.017,452.285v34.596c0,9.445,7.658,17.102,17.102,17.102H332.96
	c9.445,0,17.102-7.658,17.102-17.102v-34.596C350.063,437.269,340.269,424.01,325.917,419.593z"/>
<path style="fill:#D29B6E;" d="M109.598,395.446c81.143,27.061,129.235-48.235,129.235-48.235l0.012-5.699H119.182v38.676
	c0,6.573-3.875,12.288-9.625,15.137C109.549,395.359,109.612,395.41,109.598,395.446z"/>
<path style="fill:#F0C087;" d="M211.828,369.77l34.32-28.6c6.352-5.293,10.571-12.708,11.878-20.872l19.504-121.899
	c6.651-41.564-25.457-79.217-67.55-79.217h-61.88c-42.093,0-74.2,37.653-67.55,79.217l19.504,121.899
	c1.306,8.164,5.526,15.579,11.878,20.872l34.32,28.6c4.61,3.842,10.422,5.946,16.422,5.946h32.732
	C201.406,375.716,207.218,373.613,211.828,369.77z"/>
<g>
	<path style="fill:#707487;" d="M281.653,256h-13.34l-8.209,51.307h21.549c4.722,0,8.551-3.829,8.551-8.551v-34.205
		C290.205,259.829,286.376,256,281.653,256z"/>
	<path style="fill:#707487;" d="M76.426,256h13.34l8.209,51.307H76.426c-4.722,0-8.551-3.829-8.551-8.551v-34.205
		C67.875,259.829,71.704,256,76.426,256z"/>
</g>
<path style="fill:#5A4146;" d="M307.307,179.04c0-11.844-8.07-21.714-18.98-24.666c1.186-2.953,1.878-6.161,1.878-9.539
	c0-14.168-11.485-25.653-25.653-25.653c-0.522,0-1.009,0.123-1.523,0.154c-3.491-10.02-12.921-17.256-24.13-17.256
	c-2.755,0-5.365,0.513-7.834,1.346c-5.476-6.036-13.303-9.897-22.095-9.897c-2.267,0-4.455,0.3-6.578,0.778
	c-6.119-5.745-14.295-9.329-23.351-9.329s-17.232,3.584-23.351,9.329c-2.123-0.478-4.311-0.778-6.578-0.778
	c-8.16,0-15.541,3.286-20.94,8.582c-0.149-0.002-0.29-0.031-0.438-0.031c-11.209,0-20.639,7.236-24.13,17.256
	c-0.514-0.031-1.002-0.154-1.523-0.154c-14.168,0-25.653,11.485-25.653,25.653c0,3.378,0.692,6.585,1.878,9.539
	c-10.91,2.952-18.98,12.821-18.98,24.666c0,6.6,2.562,12.556,6.658,17.102c-4.095,4.546-6.658,10.502-6.658,17.102
	c0,11.209,7.236,20.639,17.256,24.13c-0.046,0.51-0.154,1.002-0.154,1.523c0,7.923,5.414,14.522,12.724,16.465L89.253,256h13.621
	c4.18,0,7.747-3.023,8.435-7.146l5.968-35.803c0.641,0.048,1.254,0.192,1.907,0.192c8.934,0,16.784-4.578,21.378-11.505
	c4.594,6.926,12.444,11.505,21.378,11.505c8.934,0,16.784-4.578,21.378-11.505c4.594,6.926,12.444,11.505,21.378,11.505
	c8.934,0,16.784-4.578,21.378-11.505c4.594,6.926,12.444,11.505,21.378,11.505c0.653,0,1.266-0.144,1.907-0.192l5.968,35.803
	c0.687,4.123,4.254,7.146,8.435,7.146h13.619l0.102-0.637c7.31-1.943,12.724-8.544,12.724-16.465c0-0.522-0.108-1.013-0.154-1.523
	c10.02-3.491,17.256-12.92,17.256-24.13c0-6.6-2.562-12.556-6.658-17.102C304.745,191.596,307.307,185.64,307.307,179.04z"/>
<g>
	<path style="fill:#AFB9D2;" d="M18.633,427.567c-6.608,6.31-10.616,15.143-10.616,24.718v34.596
		c0,9.446,7.656,17.102,17.102,17.102h42.756v-22.429c0-7.491-3.274-14.609-8.964-19.482L18.633,427.567z"/>
	<path style="fill:#AFB9D2;" d="M339.446,427.567c6.608,6.309,10.616,15.143,10.616,24.718v34.596
		c0,9.446-7.656,17.102-17.102,17.102h-42.756v-22.429c0-7.491,3.274-14.609,8.964-19.482L339.446,427.567z"/>
</g>
<path style="fill:#E6AF78;" d="M268.314,256L268.314,256h-4.556c-1.045,0-2.052-0.188-2.985-0.537
	c-1.865-0.696-3.436-2.027-4.431-3.753c-0.496-0.864-0.848-1.826-1.02-2.856l-5.968-35.803l0,0l0,0
	c-0.641,0.048-1.253,0.192-1.906,0.192c-8.934,0-16.784-4.578-21.378-11.505c-4.594,6.926-12.444,11.505-21.378,11.505
	c-8.934,0-16.784-4.578-21.378-11.505c-4.594,6.926-12.444,11.505-21.378,11.505c-8.934,0-16.784-4.578-21.378-11.505
	c-4.594,6.926-12.444,11.505-21.378,11.505c-0.653,0-1.266-0.144-1.906-0.192l0,0l0,0l-5.968,35.803
	c-0.687,4.124-4.255,7.146-8.436,7.146H89.766l0,0l10.287,64.297c1.306,8.164,5.526,15.579,11.878,20.872l34.321,28.6
	c4.61,3.842,10.422,5.946,16.422,5.946h7.813l-12.714-38.142c-2.906-8.719-4.388-17.851-4.388-27.041c0,0,0.037-43.813,0.058-63.318
	c0.005-4.813,3.976-8.475,8.79-8.487c7.054-0.017,14.094-1.403,20.451-4.206c13.935,5.891,29.622,6.17,43.284-0.33
	c0.329,0.151,0.645,0.295,0.972,0.439l3.087,18.463c2.756,16.482,17.02,28.56,33.731,28.56h0.451l1.367-8.551h0.001L268.314,256z"/>
<path d="M409.921,0c-56.287,0-102.079,45.792-102.079,102.079c0,16.939,4.285,33.666,12.426,48.628l-6.87,17.175
	c-2.746-7.716-8.269-14.249-15.529-18.243c0.235-1.592,0.354-3.195,0.354-4.805c0-17.331-13.162-31.645-30.016-33.472
	c-5.868-10.54-17.03-17.3-29.309-17.3c-1.813,0-3.648,0.167-5.49,0.498c-6.829-5.799-15.5-9.049-24.439-9.049
	c-1.4,0-2.808,0.086-4.246,0.26c-7.382-5.708-16.359-8.811-25.683-8.811c-9.324,0-18.302,3.103-25.683,8.811
	c-1.438-0.174-2.845-0.26-4.246-0.26c-8.868,0-17.308,3.054-24.095,8.662c-11.192,0.915-21.16,7.433-26.59,17.189
	c-16.854,1.828-30.017,16.141-30.017,33.472c0,1.61,0.118,3.213,0.354,4.805c-10.568,5.814-17.456,17.005-17.456,29.4
	c0,6.036,1.659,11.93,4.752,17.102c-3.093,5.172-4.752,11.066-4.752,17.102c0,12.31,6.793,23.496,17.378,29.352
	c0.486,3.242,1.604,6.309,3.238,9.054c-7.229,4.416-12.065,12.38-12.065,21.453v17.102c0,13.851,11.268,25.119,25.119,25.119h6.162
	l0.998,6.24c1.613,10.08,6.82,19.229,14.662,25.765l4.365,3.638v29.219c0,4.014-2.577,7.505-6.413,8.684l-74.947,23.06
	C11.978,417.417,0,433.634,0,452.285v34.596C0,500.732,11.268,512,25.119,512H332.96c13.851,0,25.119-11.268,25.119-25.119v-34.596
	c0-18.652-11.978-34.869-29.805-40.354l-74.947-23.06c-3.836-1.18-6.413-4.67-6.413-8.684v-29.22l4.365-3.637
	c7.842-6.535,13.049-15.686,14.662-25.765l0.998-6.24h6.162c13.851,0,25.119-11.268,25.119-25.119v-17.102
	c0-6.616-2.576-12.641-6.773-17.131c3.419-3.656,5.735-8.297,6.497-13.375c10.585-5.856,17.378-17.042,17.378-29.353
	c0-1.025-0.065-2.045-0.16-3.059l46.129-18.451c14.962,8.14,31.689,12.425,48.628,12.425c56.287,0,102.079-45.792,102.079-102.079
	S466.208,0,409.921,0z M84.977,299.29c-5.01,0-9.086-4.076-9.086-9.086v-17.102c0-4.318,3.031-7.935,7.076-8.854l5.606,35.042
	H84.977z M99.168,264.017h3.706c8.132,0,15.005-5.822,16.342-13.844l4.878-29.27c6.083-0.895,11.765-3.435,16.465-7.311
	c5.946,4.903,13.463,7.67,21.378,7.67c7.915,0,15.432-2.766,21.378-7.67c5.946,4.903,13.463,7.67,21.378,7.67
	s15.432-2.766,21.378-7.67c4.7,3.876,10.382,6.417,16.465,7.311l4.878,29.271c1.067,6.402,5.664,11.391,11.608,13.151l-6.272,39.204
	c-1.872,2.103-21.345,22.416-73.711,22.416c-4.427,0-8.017,3.589-8.017,8.017c0,4.427,3.589,8.017,8.017,8.017
	c33.609,0,55.601-7.707,69.003-15.148c-1.617,3.519-4.006,6.665-7.027,9.183l-34.32,28.6c-3.163,2.636-7.173,4.087-11.291,4.087
	h-32.732c-4.117,0-8.128-1.452-11.291-4.087l-34.32-28.6c-4.863-4.053-8.094-9.729-9.094-15.981L99.168,264.017z M16.033,486.881
	v-34.596c0-4.537,1.157-8.833,3.212-12.596l34.267,28.555c4.033,3.361,6.346,8.3,6.346,13.549v14.172H25.119
	C20.109,495.967,16.033,491.891,16.033,486.881z M342.046,486.881c0,5.01-4.076,9.086-9.086,9.086h-34.739v-14.172
	c0-5.25,2.313-10.189,6.346-13.549l34.267-28.555c2.057,3.763,3.212,8.058,3.212,12.596V486.881z M327.064,428.626l-32.76,27.302
	c-7.7,6.416-12.116,15.843-12.116,25.866v14.172H75.891v-14.172c0-10.023-4.416-19.451-12.115-25.866l-32.762-27.302
	c1.123-0.529,2.288-0.997,3.505-1.371l43.482-13.379c0.123,0.217,0.254,0.432,0.401,0.641
	c23.908,34.269,63.095,54.727,104.825,54.727c41.121,0,79.76-19.875,103.756-53.243l36.575,11.253
	C324.776,427.63,325.941,428.098,327.064,428.626z M248.613,404.196l22.079,6.794c-21.132,26.56-53.324,42.221-87.464,42.221
	c-35.021,0-67.987-16.487-89.072-44.305l15.311-4.711c10.606-3.263,17.732-12.911,17.732-24.008v-15.858l13.92,11.601
	c6.039,5.032,13.695,7.804,21.555,7.804h32.732c7.861,0,15.516-2.772,21.555-7.804l13.92-11.602v15.858
	C230.881,391.283,238.007,400.932,248.613,404.196z M282.188,290.205c0,5.01-4.076,9.086-9.086,9.086h-3.597l5.606-35.042
	c4.045,0.918,7.076,4.535,7.076,8.854V290.205z M294.693,201.508c2.964,3.291,4.597,7.46,4.597,11.736
	c0,7.43-4.773,14.085-11.876,16.559c-3.473,1.21-5.677,4.627-5.347,8.289c0.028,0.307,0.066,0.61,0.107,0.913l0.012,0.089
	c-0.089,3.992-2.845,7.479-6.765,8.521c-0.369,0.098-0.727,0.221-1.072,0.368h-10.592c-0.263,0-0.484-0.188-0.527-0.447
	l-5.968-35.803c-0.648-3.89-4.016-6.699-7.901-6.699c-0.201,0-0.402,0.007-0.605,0.022c-0.422,0.032-0.838,0.083-1.253,0.14
	c-0.068,0.01-0.137,0.02-0.205,0.029c-5.856-0.049-11.286-3.001-14.547-7.918c-1.486-2.24-3.993-3.586-6.681-3.586
	c-2.687,0-5.196,1.346-6.681,3.586c-3.288,4.959-8.782,7.918-14.697,7.918s-11.408-2.961-14.697-7.918
	c-1.486-2.24-3.993-3.586-6.681-3.586s-5.196,1.346-6.681,3.586c-3.288,4.959-8.782,7.918-14.697,7.918s-11.408-2.961-14.697-7.918
	c-1.486-2.24-3.993-3.586-6.681-3.586c-2.687,0-5.196,1.346-6.681,3.586c-3.26,4.917-8.689,7.868-14.547,7.918
	c-0.068-0.009-0.137-0.019-0.205-0.029c-0.415-0.057-0.831-0.109-1.253-0.14c-4.144-0.315-7.825,2.586-8.506,6.676l-5.968,35.802
	c-0.044,0.26-0.265,0.447-0.527,0.447H92.282c-0.345-0.146-0.703-0.269-1.072-0.368c-3.92-1.042-6.677-4.529-6.765-8.521
	l0.012-0.089c0.041-0.303,0.079-0.606,0.107-0.913c0.33-3.662-1.874-7.08-5.347-8.289c-7.104-2.473-11.876-9.128-11.876-16.558
	c0-4.278,1.632-8.445,4.597-11.736c2.747-3.05,2.747-7.682,0-10.731c-2.965-3.292-4.597-7.46-4.597-11.738
	c0-7.886,5.369-14.847,13.058-16.927c2.21-0.599,4.06-2.113,5.082-4.163c1.022-2.05,1.117-4.438,0.264-6.564
	c-0.864-2.147-1.301-4.35-1.301-6.55c0-9.642,7.778-17.502,17.39-17.635l0.012,0.001c0.423,0.059,0.847,0.11,1.279,0.136
	c3.568,0.215,6.869-1.976,8.05-5.365c2.445-7.017,8.969-11.76,16.289-11.874c0.188,0.015,0.377,0.024,0.569,0.027
	c2.145,0.029,4.221-0.788,5.755-2.293c4.133-4.054,9.576-6.287,15.325-6.287c1.501,0,3.077,0.19,4.819,0.583
	c2.591,0.583,5.308-0.157,7.247-1.977c4.915-4.614,11.259-7.156,17.863-7.156s12.949,2.542,17.863,7.156
	c1.938,1.82,4.655,2.56,7.247,1.977c1.741-0.392,3.318-0.583,4.819-0.583c6.17,0,11.907,2.58,16.157,7.266
	c2.141,2.361,5.479,3.229,8.498,2.21c1.848-0.623,3.573-0.926,5.274-0.926c7.43,0,14.085,4.773,16.559,11.876
	c1.18,3.387,4.466,5.577,8.05,5.365c0.433-0.026,0.857-0.077,1.279-0.136l0.012-0.001c9.611,0.133,17.39,7.992,17.39,17.635
	c0,2.2-0.437,4.403-1.3,6.551c-0.854,2.125-0.758,4.514,0.264,6.564c1.022,2.049,2.871,3.565,5.082,4.163
	c7.687,2.079,13.057,9.04,13.057,16.926c0,4.278-1.632,8.445-4.597,11.736C291.946,193.826,291.946,198.458,294.693,201.508z
	 M409.921,188.125c-15.382,0-30.568-4.204-43.915-12.157c-2.144-1.277-4.763-1.485-7.081-0.557l-37.226,14.891l14.891-37.226
	c0.928-2.318,0.721-4.936-0.557-7.081c-7.953-13.347-12.157-28.533-12.157-43.915c0-47.446,38.6-86.046,86.046-86.046
	s86.046,38.6,86.046,86.046S457.367,188.125,409.921,188.125z"/>
<path d="M471.172,66.482c-3.131-3.131-8.207-3.131-11.337,0l-9.793,9.793l-11.93-2.386l-2.386-11.93l9.793-9.793
	c3.131-3.131,3.131-8.206,0-11.337c-3.131-3.131-8.207-3.131-11.337,0l-12.827,12.827c-1.895,1.895-2.718,4.612-2.192,7.241
	l3.434,17.171l-32.412,32.412l-17.171-3.434c-2.629-0.526-5.346,0.297-7.241,2.192l-12.827,12.827
	c-3.131,3.131-3.131,8.206,0,11.337c3.131,3.131,8.207,3.131,11.337,0l9.793-9.793l11.93,2.386l2.386,11.93l-9.793,9.793
	c-3.131,3.131-3.131,8.206,0,11.337c1.565,1.565,3.617,2.348,5.668,2.348s4.103-0.782,5.668-2.348l12.827-12.827
	c1.895-1.895,2.718-4.612,2.192-7.241l-3.434-17.171l32.412-32.412l17.171,3.434c0.524,0.105,1.05,0.156,1.572,0.156
	c2.105,0,4.151-0.829,5.668-2.348l12.827-12.827C474.302,74.688,474.302,69.613,471.172,66.482z"/>
<g>
</g>
<g>
</g>
<g>
</g>
<g>
</g>
<g>
</g>
<g>
</g>
<g>
</g>
<g>
</g>
<g>
</g>
<g>
</g>
<g>
</g>
<g>
</g>
<g>
</g>
<g>
</g>
<g>
</g>
</svg>
