<?xml version="1.0" encoding="iso-8859-1"?>
<!-- Generator: Adobe Illustrator 19.0.0, SVG Export Plug-In . SVG Version: 6.00 Build 0)  -->
<svg version="1.1" id="Layer_1" xmlns="http://www.w3.org/2000/svg" xmlns:xlink="http://www.w3.org/1999/xlink" x="0px" y="0px"
	 viewBox="0 0 512 512" style="enable-background:new 0 0 512 512;" xml:space="preserve">
<path style="fill:#7D5A50;" d="M93.528,8.017c-62.237,0-76.384,67.797-76.96,142.49c-0.024,3.108,1.881,5.907,4.8,7.215
	c9.997,4.479,22.118,8.033,35.643,10.342l72.822,0.036c13.61-2.309,25.805-5.877,35.854-10.378c2.919-1.308,4.824-4.107,4.8-7.215
	C169.912,75.813,155.766,8.017,93.528,8.017z"/>
<path style="fill:#D29B6E;" d="M179.04,221.795V211.03c0-9.206-4.933-17.706-12.926-22.274l-38.316-21.894
	c-5.328-3.045-8.617-8.711-8.617-14.849v-15.729H67.874v15.729c0,6.138-3.289,11.804-8.617,14.849l-38.313,21.894
	c-7.993,4.567-12.926,13.067-12.926,22.274v10.766c0,9.446,7.656,17.102,17.102,17.102h136.818
	C171.383,238.898,179.04,231.241,179.04,221.795z"/>
<path style="fill:#F0C087;" d="M136.284,76.426v45.333c0,9.011-4.728,17.361-12.455,21.998l-21.502,12.902
	c-5.416,3.249-12.182,3.249-17.598,0l-21.502-12.902c-7.727-4.636-12.455-12.987-12.455-21.998V76.426c0,0,51.307,0,68.409-17.102
	L136.284,76.426z"/>
<path style="fill:#FF6464;" d="M166.115,188.756l-24.963-14.264c-4.716,6.692-22.584,30.087-47.623,38.753
	c-25.039-8.666-42.908-32.061-47.623-38.753l-24.962,14.264c-7.993,4.567-12.926,13.067-12.926,22.274v10.766
	c0,9.446,7.656,17.102,17.102,17.102h136.818c9.446,0,17.102-7.656,17.102-17.102V211.03
	C179.04,201.823,174.107,193.323,166.115,188.756z"/>
<path style="fill:#D29B6E;" d="M487.337,437.883l-40.666-15.25c-6.675-2.503-11.097-10.394-11.097-17.522h-68.409
	c0,7.128-4.422,15.019-11.097,17.522l-40.666,15.25c-10.012,3.755-16.646,13.327-16.646,24.02v24.978
	c0,9.446,7.656,17.102,17.102,17.102h171.023c9.446,0,17.102-7.656,17.102-17.102v-24.978
	C503.983,451.21,497.35,441.638,487.337,437.883z"/>
<path style="fill:#E4EAF6;" d="M487.337,437.883l-32.892-12.334l-53.076,44.23l-53.076-44.23l-32.892,12.334
	c-10.012,3.755-16.646,13.327-16.646,24.02v24.978c0,9.446,7.656,17.102,17.102,17.102h171.023c9.446,0,17.102-7.656,17.102-17.102
	v-24.978C503.983,451.21,497.35,441.638,487.337,437.883z"/>
<path style="fill:#F0C087;" d="M458.796,301.031l-5.336,80.037c-0.497,7.46-4.224,14.331-10.205,18.817l-17.942,13.456
	c-4.44,3.331-9.841,5.131-15.392,5.131h-17.102c-5.551,0-10.952-1.8-15.392-5.131l-17.942-13.457
	c-5.98-4.485-9.708-11.357-10.205-18.817l-5.336-80.037c-1.316-19.742,14.342-36.48,34.129-36.48h46.594
	C444.452,264.551,460.112,281.289,458.796,301.031z"/>
<path style="fill:#5A4146;" d="M424.666,264.551h-46.594c-19.786,0-35.446,16.738-34.129,36.479l2.127,31.91
	c2.941-0.202,76.287-5.475,112.206-24.129l0.518-7.78C460.112,281.289,444.453,264.551,424.666,264.551z"/>
<path d="M187.056,221.795V211.03c0-12.052-6.501-23.254-16.965-29.234l-18.34-10.48c6.156-1.804,11.909-3.901,17.213-6.279
	c5.842-2.617,9.587-8.345,9.54-14.591c-0.075-9.698-0.379-18.864-0.916-27.521c23.689-13.984,50.718-21.379,78.412-21.379
	c36.991,0,72.775,13.279,100.761,37.389c24.585,21.18,41.826,49.492,49.374,80.691l-17.058-12.794
	c-3.541-2.656-8.567-1.938-11.223,1.603c-2.656,3.541-1.938,8.567,1.603,11.223l34.205,25.653c1.403,1.052,3.094,1.603,4.81,1.603
	c0.724,0,1.452-0.098,2.163-0.297c2.402-0.673,4.353-2.426,5.278-4.743l17.102-42.756c1.645-4.111-0.355-8.776-4.466-10.421
	c-4.112-1.645-8.777,0.355-10.421,4.467l-7.449,18.622c-8.814-32.834-27.399-62.552-53.455-84.999
	C336.332,100.17,296.831,85.511,256,85.511c-27.996,0-55.388,6.839-79.894,19.854c-2.523-23.165-7.035-42.108-13.618-57.3
	C148.669,16.171,125.468,0,93.528,0s-55.141,16.171-68.96,48.065c-10.432,24.08-15.671,57.568-16.017,102.38
	c-0.048,6.247,3.696,11.975,9.539,14.591c5.305,2.377,11.061,4.471,17.219,6.277l-18.344,10.483C6.501,187.775,0,198.977,0,211.03
	v10.766c0,13.851,11.268,25.119,25.119,25.119h136.818C175.788,246.914,187.056,235.646,187.056,221.795z M119.704,136.883
	l-21.502,12.902c-2.883,1.729-6.466,1.729-9.349,0l-21.502-12.902c-5.281-3.169-8.563-8.964-8.563-15.124V84.202
	c5.317-0.264,12.787-0.818,20.909-1.977c16.975-2.425,29.989-6.522,38.836-12.211l9.733,9.732v42.013
	C128.267,127.919,124.987,133.713,119.704,136.883z M63.236,173.821c5.425-3.1,9.417-8.101,11.351-13.9l6.019,3.611
	c3.986,2.391,8.455,3.587,12.924,3.587c4.469,0,8.938-1.196,12.924-3.587l6.019-3.611c1.934,5.799,5.926,10.8,11.351,13.9
	l4.498,2.571c-4.001,5.367-17.024,21.366-34.79,28.327c-17.668-6.933-30.765-22.961-34.787-28.33L63.236,173.821z M24.586,150.374
	c0.341-42.518,5.149-73.901,14.695-95.935c11.197-25.843,28.941-38.405,54.247-38.405s43.051,12.563,54.247,38.405
	c9.546,22.034,14.353,53.418,14.695,95.935c-0.017,0.01-0.036,0.02-0.061,0.031c-8.748,3.919-19.435,7.096-30.997,9.254
	c-2.604-1.663-4.216-4.581-4.216-7.743v-0.832l0.756-0.453c10.083-6.05,16.347-17.113,16.347-28.872V76.426
	c0-2.126-0.844-4.164-2.348-5.668l-17.102-17.102c-3.131-3.131-8.207-3.131-11.337,0c-5.652,5.652-18.4,10.152-35.895,12.67
	c-14.252,2.051-26.723,2.084-26.845,2.084c-4.427,0-8.017,3.589-8.017,8.017v45.333c0,11.759,6.264,22.823,16.347,28.872
	l0.756,0.453v0.833c0,3.163-1.613,6.082-4.217,7.744c-11.557-2.157-22.25-5.339-30.995-9.257
	C24.622,150.394,24.603,150.383,24.586,150.374z M16.033,221.795V211.03c0-6.313,3.405-12.181,8.887-15.313l19.811-11.32
	c3.49,4.939,20.836,27.978,46.263,36.454c0.823,0.275,1.679,0.412,2.535,0.412s1.712-0.137,2.535-0.412
	c25.427-8.476,42.773-31.515,46.263-36.454l19.811,11.321c5.481,3.133,8.887,9,8.887,15.313v10.765c0,5.01-4.076,9.086-9.086,9.086
	H25.121C20.109,230.881,16.033,226.805,16.033,221.795z"/>
<path d="M490.152,430.377l-40.666-15.25c-2.65-0.994-4.644-3.171-5.474-5.79l4.053-3.04c7.858-5.894,12.74-14.895,13.393-24.696
	l1.914-28.724c0-0.002,0-0.004,0.001-0.006c0-0.001,0-0.002,0-0.003l3.42-51.303c0.775-11.616-3.342-23.153-11.295-31.653
	c-7.954-8.501-19.191-13.377-30.833-13.377h-46.594c-11.641,0-22.879,4.876-30.831,13.376c-7.953,8.501-12.07,20.039-11.296,31.653
	l5.336,80.037c0.066,0.993,0.187,1.974,0.339,2.948c-25.383,16.953-54.878,25.907-85.619,25.907
	c-36.99,0-72.775-13.278-100.76-37.389c-24.585-21.18-41.827-49.493-49.375-80.692l17.058,12.795
	c3.542,2.657,8.568,1.938,11.223-1.603c2.656-3.541,1.938-8.567-1.603-11.223l-34.205-25.653c-1.995-1.495-4.572-1.98-6.975-1.306
	c-2.402,0.673-4.353,2.426-5.278,4.743l-17.102,42.756c-1.645,4.111,0.355,8.776,4.466,10.421c0.977,0.39,1.984,0.575,2.975,0.575
	c3.182,0,6.192-1.907,7.446-5.042l7.449-18.621c8.814,32.834,27.4,62.552,53.456,85.001c30.894,26.615,70.394,41.274,111.225,41.274
	c32.902,0,64.521-9.283,91.959-26.91c1.892,2.517,4.14,4.788,6.715,6.719l4.053,3.04c-0.828,2.619-2.824,4.796-5.474,5.79
	l-40.666,15.25c-13.068,4.9-21.848,17.57-21.848,31.526v24.978c0,13.851,11.268,25.119,25.119,25.119h171.023
	C500.732,512,512,500.732,512,486.881v-24.978C512,447.947,503.22,435.277,490.152,430.377z M364.294,393.47
	c-4.116-3.087-6.673-7.802-7.015-12.937l-2.66-39.906c14.292-1.275,63.014-6.484,94.867-20.461l-2.11,31.644
	c-0.887,13.249-12.851,24.44-26.129,24.44H401.37c-4.427,0-8.017,3.589-8.017,8.017c0,4.427,3.589,8.017,8.017,8.017h19.877
	c8.495,0,16.544-2.698,23.299-7.268c-1.13,3.335-3.223,6.298-6.099,8.455l-17.944,13.457c-3.032,2.275-6.792,3.527-10.582,3.527
	h-17.102c-3.79,0-7.55-1.253-10.582-3.527L364.294,393.47z M358.948,280.865c5.006-5.35,11.796-8.297,19.124-8.297h46.594
	c7.326,0,14.118,2.947,19.124,8.297c5.006,5.351,7.494,12.323,7.007,19.633l0,0l-0.079,1.182
	c-27.248,15.519-81.868,21.52-97.167,22.935l-1.608-24.117C351.455,293.188,353.943,286.215,358.948,280.865z M372.616,419.755
	c5.79,4.343,12.965,6.734,20.202,6.734h17.102c7.237,0,14.412-2.391,20.202-6.734l0.814-0.611c1.797,3.112,4.254,5.823,7.206,7.933
	l-36.774,24.516l-36.775-24.517c2.953-2.11,5.41-4.822,7.206-7.933L372.616,419.755z M306.772,486.881v-24.978
	c0-7.31,4.599-13.947,11.445-16.513l28.764-10.786l46.372,30.915v30.448h-77.495C310.848,495.967,306.772,491.891,306.772,486.881z
	 M495.967,486.881c0,5.01-4.076,9.086-9.086,9.086h-77.495v-30.448l46.373-30.916l28.764,10.786
	c6.845,2.566,11.445,9.203,11.445,16.513v24.979H495.967z"/>
<g>
</g>
<g>
</g>
<g>
</g>
<g>
</g>
<g>
</g>
<g>
</g>
<g>
</g>
<g>
</g>
<g>
</g>
<g>
</g>
<g>
</g>
<g>
</g>
<g>
</g>
<g>
</g>
<g>
</g>
</svg>
