<?xml version="1.0" encoding="iso-8859-1"?>
<!-- Generator: Adobe Illustrator 19.0.0, SVG Export Plug-In . SVG Version: 6.00 Build 0)  -->
<svg version="1.1" id="Layer_1" xmlns="http://www.w3.org/2000/svg" xmlns:xlink="http://www.w3.org/1999/xlink" x="0px" y="0px"
	 viewBox="0 0 512 512" style="enable-background:new 0 0 512 512;" xml:space="preserve">
<path style="fill:#464655;" d="M277.378,234.622c0-63.756-49.771-115.44-111.165-115.44S55.048,170.866,55.048,234.622
	c0,43.355,23.083,81.009,57.12,100.741l-22.915,91.66h153.921l-22.915-91.66C254.295,315.631,277.378,277.978,277.378,234.622z"/>
<path style="fill:#FF6464;" d="M381.725,9.235c-39.988,6.329-71.899,38.995-77.695,79.065c-3.292,22.76,1.748,44.108,12.288,61.798
	l-21.839,54.595l54.595-21.837c17.69,10.54,39.038,15.58,61.798,12.288c40.069-5.796,72.736-37.706,79.065-77.695
	C500.058,53.502,445.671-0.885,381.725,9.235z"/>
<path style="fill:#D2555A;" d="M337.236,102.079c0-46.066,33.138-84.328,76.861-92.419c-11.112-2.033-22.867-2.235-34.981,0.025
	c-39.42,7.353-70.201,40.413-75.3,80.186c-2.843,22.171,2.204,42.945,12.502,60.227l-21.837,54.595l54.595-21.837
	c18.554,11.056,41.132,16.059,65.142,11.746c0.002-0.129-0.001,0.045,0.002-0.084C370.436,186.473,337.236,148.187,337.236,102.079z
	"/>
<path style="fill:#E6AF78;" d="M295.796,428.996l-76.303-31.793c-6.373-2.655-10.524-8.883-10.524-15.788v-20.664h-85.511v20.665
	c0,6.904-4.152,13.131-10.524,15.788L36.63,428.997c-9.559,3.982-15.786,13.323-15.786,23.679v34.205
	c0,9.445,7.658,17.102,17.102,17.102H294.48c9.445,0,17.102-7.658,17.102-17.102v-34.205
	C311.582,442.32,305.355,432.979,295.796,428.996z"/>
<path style="fill:#D29B6E;" d="M208.969,360.752h-85.511v20.665c0,6.904-4.152,13.131-10.524,15.788l-11.917,4.966
	C192.212,425.423,208.969,360.752,208.969,360.752z"/>
<path style="fill:#E4EAF6;" d="M295.796,428.996l-60.105-24.42c-12.944,24.279-40.043,41.687-69.478,41.687
	s-56.534-17.408-69.478-41.687l-60.105,24.42c-9.559,3.983-15.786,13.324-15.786,23.68v34.205c0,9.445,7.658,17.102,17.102,17.102
	H294.48c9.445,0,17.102-7.658,17.102-17.102v-34.205C311.582,442.32,305.355,432.979,295.796,428.996z"/>
<g>
	<path style="fill:#D7DEED;" d="M62.523,462.076L28.2,434.775c-4.598,4.703-7.355,11.062-7.355,17.902v34.205
		c0,9.445,7.658,17.102,17.102,17.102h34.205v-21.875C72.15,474.315,68.608,466.945,62.523,462.076z"/>
	<path style="fill:#D7DEED;" d="M311.582,486.881v-34.205c0-6.786-2.711-13.103-7.245-17.795l-34.434,27.195
		c-6.085,4.869-9.628,12.239-9.628,20.032v21.875h34.205C303.925,503.983,311.582,496.326,311.582,486.881z"/>
</g>
<path style="fill:#F0C087;" d="M160.184,210.926c-19.055,19.938-43.758,34.361-71.511,40.936c-4.211,0.998-7.134,4.803-6.742,9.113
	l5.683,62.518c1.025,11.271,7.559,21.306,17.453,26.803l44.534,24.741c10.331,5.739,22.891,5.739,33.222,0l44.534-24.741
	c9.894-5.496,16.428-15.531,17.453-26.803l5.683-62.519c0.392-4.311-2.53-8.115-6.742-9.113
	c-27.753-6.577-52.456-20.998-71.511-40.936C168.981,207.515,163.445,207.515,160.184,210.926z"/>
<path style="fill:#E6AF78;" d="M243.754,251.862c-27.754-6.577-52.457-20.999-71.511-40.936c-3.261-3.411-8.797-3.411-12.058,0
	c-19.054,19.938-43.758,34.361-71.511,40.936c-4.21,0.998-7.134,4.803-6.742,9.113l5.683,62.518
	c1.025,11.271,7.558,21.306,17.452,26.803l44.534,24.741c3.704,2.057,7.696,3.346,11.766,3.928l-13.985-25.176
	c-4.501-8.103-7.309-17.036-8.253-26.256l-6.044-59.042c-0.344-3.365,1.363-6.554,4.286-8.257
	c10.351-6.029,20.064-13.124,28.841-21.337c22.624,21.174,51.109,35.608,81.891,41.239l0.641,0.08l1.75-19.24
	C250.887,256.666,247.964,252.861,243.754,251.862z"/>
<path style="fill:#D7DEED;" d="M235.691,404.576c-12.944,24.279-40.044,41.687-69.478,41.687s-56.534-17.408-69.478-41.687
	l-30.043,11.895c18.183,36.625,55.858,61.859,99.521,61.859s81.339-25.234,99.521-61.859L235.691,404.576z"/>
<path d="M397.094,0c-56.287,0-102.079,45.792-102.079,102.079c0,16.939,4.285,33.666,12.426,48.628l-20.403,51.009
	c-1.191,2.977-0.493,6.378,1.774,8.645c1.533,1.533,3.583,2.348,5.67,2.348c1.002,0,2.011-0.187,2.976-0.573l51.009-20.403
	c14.961,8.14,31.688,12.425,48.627,12.425c56.287,0,102.079-45.792,102.079-102.079S453.381,0,397.094,0z M397.094,188.125
	c-15.382,0-30.568-4.204-43.915-12.157c-2.144-1.277-4.763-1.485-7.081-0.557l-37.226,14.891l14.891-37.226
	c0.928-2.318,0.721-4.936-0.557-7.081c-7.953-13.347-12.157-28.533-12.157-43.915c0-47.446,38.6-86.046,86.046-86.046
	s86.046,38.6,86.046,86.046S444.54,188.125,397.094,188.125z"/>
<path d="M298.88,421.596l-54.474-22.697l-10.758-43.036c10.873-7.015,17.966-18.649,19.148-31.642l0.497-5.473
	c20.708-22.914,32.102-52.727,32.102-84.126c0-68.075-53.465-123.457-119.182-123.457S47.031,166.548,47.031,234.622
	c0,31.408,11.392,61.211,32.102,84.126l0.497,5.473c1.182,12.993,8.275,24.626,19.148,31.642L88.02,398.899l-54.474,22.697
	c-12.586,5.245-20.719,17.444-20.719,31.08v34.205c0,13.851,11.268,25.119,25.119,25.119H294.48
	c13.851,0,25.119-11.268,25.119-25.119v-34.205C319.599,439.041,311.466,426.841,298.88,421.596z M252.259,482.108v13.858H80.167
	v-13.858c0-10.285-4.606-19.868-12.636-26.293l-25.488-20.39l44.851-18.687c17.035,27.194,47.128,43.955,79.319,43.955
	s62.284-16.761,79.319-43.955l44.851,18.687l-25.488,20.39C256.865,462.241,252.259,471.824,252.259,482.108z M116.017,404.603
	c9.39-3.912,15.457-13.014,15.457-23.186v-7.278l14.234,7.908c6.42,3.566,13.462,5.35,20.505,5.35c7.043,0,14.085-1.783,20.505-5.35
	l14.234-7.908v7.278c0,10.174,6.067,19.274,15.457,23.186l14.075,5.865c-14.336,21.215-38.492,34.192-64.271,34.192
	s-49.936-12.976-64.273-34.191L116.017,404.603z M222.577,389.804c-3.397-1.415-5.591-4.707-5.591-8.388V365.23l2.175-1.208
	l6.797,27.189L222.577,389.804z M63.065,234.622c0-59.234,46.272-107.424,103.148-107.424s103.148,48.19,103.148,107.424
	c0,18.621-4.599,36.584-13.189,52.454l2.307-25.373c0.753-8.275-4.664-15.695-12.877-17.64
	c-25.881-6.133-49.245-19.507-67.564-38.676c-3.059-3.2-7.369-5.036-11.825-5.036s-8.766,1.835-11.825,5.036l0,0
	c-18.32,19.168-41.683,32.541-67.564,38.675c-8.213,1.946-13.628,9.366-12.877,17.64l2.307,25.373
	C67.664,271.207,63.065,253.249,63.065,234.622z M89.915,260.251c-0.029-0.319,0.347-0.526,0.606-0.587
	c28.902-6.848,54.995-21.786,75.457-43.199c0.128-0.133,0.34-0.133,0.468,0c20.464,21.412,46.557,36.35,75.457,43.199
	c0.26,0.062,0.636,0.268,0.606,0.587l-5.683,62.518c-0.786,8.638-5.781,16.308-13.361,20.521l-44.534,24.741
	c-7.964,4.424-17.472,4.424-25.436,0l-44.534-24.741c-7.581-4.211-12.577-11.883-13.361-20.521L89.915,260.251z M113.265,364.022
	l2.175,1.208v16.186c0,3.679-2.194,6.971-5.591,8.388l-3.381,1.408L113.265,364.022z M28.86,486.881v-34.205
	c0-2.21,0.41-4.348,1.169-6.329l27.486,21.989c4.207,3.365,6.619,8.384,6.619,13.772v13.858H37.946
	C32.936,495.967,28.86,491.891,28.86,486.881z M303.566,486.881c0,5.01-4.076,9.086-9.086,9.086h-26.188v-13.858
	c0-5.387,2.413-10.407,6.619-13.773l27.486-21.988c0.759,1.981,1.169,4.118,1.169,6.329L303.566,486.881L303.566,486.881z"/>
<path d="M436.306,53.064c-3.457-2.766-8.503-2.205-11.268,1.252l-68.409,85.511c-2.765,3.458-2.205,8.503,1.252,11.268
	c1.478,1.182,3.246,1.757,5.002,1.757c2.352,0,4.682-1.029,6.265-3.008l68.409-85.511C440.324,60.875,439.763,55.829,436.306,53.064
	z"/>
<path d="M388.008,76.426c0-13.851-11.268-25.119-25.119-25.119c-13.851,0-25.119,11.268-25.119,25.119s11.268,25.119,25.119,25.119
	C376.74,101.545,388.008,90.277,388.008,76.426z M353.804,76.426c0-5.01,4.076-9.086,9.086-9.086s9.086,4.076,9.086,9.086
	s-4.076,9.086-9.086,9.086S353.804,81.436,353.804,76.426z"/>
<path d="M431.299,102.614c-13.851,0-25.119,11.268-25.119,25.119s11.268,25.119,25.119,25.119s25.119-11.268,25.119-25.119
	S445.149,102.614,431.299,102.614z M431.299,136.818c-5.01,0-9.086-4.076-9.086-9.086c0-5.01,4.076-9.086,9.086-9.086
	s9.086,4.076,9.086,9.086C440.384,132.743,436.308,136.818,431.299,136.818z"/>
<g>
</g>
<g>
</g>
<g>
</g>
<g>
</g>
<g>
</g>
<g>
</g>
<g>
</g>
<g>
</g>
<g>
</g>
<g>
</g>
<g>
</g>
<g>
</g>
<g>
</g>
<g>
</g>
<g>
</g>
</svg>
