<?xml version="1.0" encoding="iso-8859-1"?>
<!-- Generator: Adobe Illustrator 19.0.0, SVG Export Plug-In . SVG Version: 6.00 Build 0)  -->
<svg version="1.1" id="Layer_1" xmlns="http://www.w3.org/2000/svg" xmlns:xlink="http://www.w3.org/1999/xlink" x="0px" y="0px"
	 viewBox="0 0 512 512" style="enable-background:new 0 0 512 512;" xml:space="preserve">
<path style="fill:#FFC36E;" d="M379.853,371.006H132.147c-14.658,0-26.54-11.882-26.54-26.54V176.38
	c0-14.658,11.882-26.54,26.54-26.54h247.706c14.658,0,26.54,11.882,26.54,26.54v168.086
	C406.393,359.124,394.511,371.006,379.853,371.006z"/>
<path style="fill:#FFB464;" d="M406.393,176.38c0-7.248-2.92-13.802-7.629-18.592L289.307,260.807l-0.407-0.384h-64.983
	L114.454,157.4c0.395-0.385,0.806-0.99,1.222-1.681c-6.091,4.862-10.069,12.261-10.069,20.661v9.139l98.54,92.745l-90.508,85.184
	c4.782,4.663,11.3,7.559,18.507,7.559h247.706c7.208,0,13.726-2.896,18.507-7.559l-89.693-84.418l97.726-91.976V176.38H406.393z"/>
<path style="fill:#FFD782;" d="M231.747,268.56c13.626,12.824,34.88,12.824,48.506,0L398.361,157.4
	c-4.783-4.663-11.3-7.559-18.508-7.559H132.147c-7.208,0-13.726,2.896-18.508,7.559L231.747,268.56z"/>
<path d="M459.473,398.099h-53.08c-4.58,0-8.294,3.713-8.294,8.294s3.713,8.294,8.294,8.294h28.889
	C389.781,466.16,325.192,495.413,256,495.413c-63.949,0-124.071-24.903-169.291-70.122C41.491,380.071,16.587,319.949,16.587,256
	c0-38.695,9.443-77.13,27.307-111.149c2.13-4.055,0.568-9.069-3.487-11.199c-4.055-2.131-9.07-0.57-11.199,3.487
	C10.101,173.527,0,214.629,0,256c0,68.38,26.628,132.668,74.981,181.019S187.62,512,256,512c75.775,0,146.374-32.824,195.179-90.365
	v37.838c0,4.58,3.713,8.294,8.294,8.294s8.294-3.713,8.294-8.294v-53.08C467.767,401.813,464.053,398.099,459.473,398.099z"/>
<path d="M437.019,74.981C388.668,26.628,324.38,0,256,0c-40.549,0-79.333,9.206-115.277,27.364
	c-30.381,15.347-57.772,36.991-79.902,63.007V52.527c0-4.58-3.713-8.294-8.294-8.294s-8.294,3.713-8.294,8.294v53.08
	c0,4.58,3.713,8.294,8.294,8.294h53.08c4.58,0,8.294-3.713,8.294-8.294s-3.713-8.294-8.294-8.294H76.771
	c20.1-22.646,44.508-41.543,71.431-55.145C181.805,25.194,218.074,16.587,256,16.587c63.949,0,124.071,24.903,169.291,70.122
	c45.219,45.22,70.122,105.342,70.122,169.291c0,38.695-9.443,77.13-27.307,111.149c-2.13,4.055-0.568,9.069,3.487,11.199
	c1.231,0.646,2.549,0.952,3.848,0.952c2.984,0,5.866-1.615,7.349-4.44C501.899,338.473,512,297.371,512,256
	C512,187.62,485.372,123.332,437.019,74.981z"/>
<path d="M379.853,379.3c19.207,0,34.834-15.627,34.834-34.834V176.38c0-19.207-15.627-34.834-34.834-34.834H132.147
	c-19.207,0-34.834,15.626-34.834,34.834v168.086c0,19.207,15.627,34.834,34.834,34.834H379.853z M132.147,362.713
	c-1.699,0-3.336-0.251-4.897-0.687l95.851-90.214l2.961,2.788c8.393,7.9,19.165,11.849,29.937,11.849
	c10.772,0,21.544-3.95,29.937-11.849l2.961-2.788l95.851,90.214c-1.561,0.436-3.199,0.687-4.897,0.687L132.147,362.713
	L132.147,362.713z M113.901,344.467V176.38c0-2.208,0.414-4.316,1.136-6.276L211,260.424l-95.964,90.319
	C114.314,348.783,113.901,346.675,113.901,344.467z M396.964,170.105c0.722,1.961,1.136,4.068,1.136,6.276v168.086
	c0,2.208-0.414,4.316-1.136,6.276L301,260.422L396.964,170.105z M379.853,158.134c1.699,0,3.336,0.251,4.897,0.687l-110.182,103.7
	c-10.413,9.799-26.725,9.8-37.137,0l-110.181-103.7c1.561-0.436,3.199-0.687,4.897-0.687H379.853z"/>
<g>
</g>
<g>
</g>
<g>
</g>
<g>
</g>
<g>
</g>
<g>
</g>
<g>
</g>
<g>
</g>
<g>
</g>
<g>
</g>
<g>
</g>
<g>
</g>
<g>
</g>
<g>
</g>
<g>
</g>
</svg>
