<?xml version="1.0" encoding="iso-8859-1"?>
<!-- Generator: Adobe Illustrator 19.0.0, SVG Export Plug-In . SVG Version: 6.00 Build 0)  -->
<svg version="1.1" id="Layer_1" xmlns="http://www.w3.org/2000/svg" xmlns:xlink="http://www.w3.org/1999/xlink" x="0px" y="0px"
	 viewBox="0 0 512 512" style="enable-background:new 0 0 512 512;" xml:space="preserve">
<path style="fill:#E4EAF6;" d="M342.758,172.413c10.245-12.293,15.856-27.791,15.856-43.795V33.67H153.386v94.949
	c0,16.003,5.611,31.5,15.856,43.795l60.531,72.639c5.285,6.343,5.285,15.555,0,21.897l-60.531,72.639
	c-10.245,12.294-15.856,27.791-15.856,43.795v94.947h205.228v-94.949c0-16.003-5.611-31.5-15.856-43.795l-60.531-72.639
	c-5.285-6.343-5.285-15.555,0-21.897L342.758,172.413z"/>
<path style="fill:#D7DEED;" d="M234.31,339.586l15.133-72.639c1.321-6.343,1.321-15.555,0-21.897l-15.133-72.638
	c-2.561-12.293-3.963-27.791-3.963-43.795V33.67h-76.96v94.949c0,16.003,5.611,31.5,15.856,43.795l60.531,72.639
	c5.285,6.343,5.285,15.555,0,21.897l-60.531,72.639c-10.245,12.294-15.856,27.791-15.856,43.795v94.947h76.96v-94.949
	C230.347,367.378,231.75,351.881,234.31,339.586z"/>
<g>
	<path style="fill:#959CB3;" d="M367.165,503.983h-222.33c-4.722,0-8.551-3.829-8.551-8.551V478.33c0-4.722,3.829-8.551,8.551-8.551
		h222.33c4.722,0,8.551,3.829,8.551,8.551v17.102C375.716,500.155,371.887,503.983,367.165,503.983z"/>
	<path style="fill:#959CB3;" d="M144.835,8.017h222.33c4.722,0,8.551,3.829,8.551,8.551V33.67c0,4.722-3.829,8.551-8.551,8.551
		h-222.33c-4.722,0-8.551-3.829-8.551-8.551V16.568C136.284,11.845,140.113,8.017,144.835,8.017z"/>
</g>
<g>
	<path style="fill:#707487;" d="M221.795,33.67V16.568c0-4.722,3.829-8.551,8.551-8.551h-85.511c-4.722,0-8.551,3.829-8.551,8.551
		V33.67c0,4.722,3.829,8.551,8.551,8.551h85.511C225.624,42.221,221.795,38.393,221.795,33.67z"/>
	<path style="fill:#707487;" d="M221.795,495.432V478.33c0-4.722,3.829-8.551,8.551-8.551h-85.511c-4.722,0-8.551,3.829-8.551,8.551
		v17.102c0,4.722,3.829,8.551,8.551,8.551h85.511C225.624,503.983,221.795,500.155,221.795,495.432z"/>
</g>
<g>
	<path style="fill:#FFD782;" d="M261.157,256c0-0.909-0.53-1.117-1.391-0.878L260.49,256H261.157z"/>
	<path style="fill:#FFD782;" d="M250.843,256h0.667l0.724-0.878C251.373,254.883,250.843,255.091,250.843,256z"/>
	<path style="fill:#FFD782;" d="M162.083,161.937c2.053,3.681,4.429,7.198,7.159,10.475l60.533,72.639
		c2.642,3.171,3.965,7.06,3.963,10.949h44.525c-0.001-3.889,1.32-7.777,3.962-10.949l60.533-72.639
		c2.731-3.277,5.106-6.794,7.159-10.475H162.083z"/>
</g>
<path style="fill:#FFC36E;" d="M165.324,167.189c0.033,0.05,0.063,0.105,0.098,0.155c1.188,1.742,2.46,3.435,3.82,5.069
	l60.533,72.639c2.59,3.109,3.894,6.907,3.943,10.72c0.002,0.076,0.021,0.152,0.02,0.228l0,0h16.696c0-3.889-0.33-7.777-0.991-10.949
	l-15.132-72.638c-0.683-3.273-1.269-6.799-1.781-10.475h-70.448C163.083,163.731,164.166,165.482,165.324,167.189z"/>
<rect x="153.386" y="384.267" style="fill:#FFD782;" width="205.228" height="85.511"/>
<rect x="153.386" y="384.267" style="fill:#FFC36E;" width="76.96" height="85.511"/>
<path d="M348.917,177.545c2.766-3.32,5.225-6.858,7.372-10.563c0.585-0.72,1.041-1.547,1.349-2.442
	c5.85-10.996,8.992-23.339,8.992-35.922v-78.38h0.534c9.136,0,16.568-7.432,16.568-16.568V16.568C383.733,7.432,376.301,0,367.165,0
	h-222.33c-9.136,0-16.568,7.432-16.568,16.568V33.67c0,9.136,7.432,16.568,16.568,16.568h0.534v78.381
	c0,12.583,3.141,24.927,8.992,35.922c0.308,0.896,0.765,1.721,1.349,2.442c2.148,3.705,4.607,7.243,7.372,10.563l60.531,72.638
	c2.808,3.37,2.808,8.263,0,11.634l-60.531,72.638c-11.421,13.706-17.713,31.082-17.713,48.925v78.381h-0.534
	c-9.136,0-16.568,7.432-16.568,16.568v17.102c0,9.136,7.432,16.568,16.568,16.568h222.33c9.136,0,16.568-7.432,16.568-16.568V478.33
	c0-9.136-7.432-16.568-16.568-16.568h-0.534v-78.381c0-17.843-6.292-35.219-17.714-48.926l-60.531-72.638
	c-2.808-3.37-2.808-8.263,0-11.634L348.917,177.545z M274.636,241.637c-3.361,4.033-8.299,6.346-13.549,6.346h-10.174
	c-5.25,0-10.189-2.313-13.549-6.346c-0.201-0.242-1.15-1.38-1.431-1.718l-58.305-69.966h156.744l-58.305,69.965
	C275.785,240.257,274.837,241.396,274.636,241.637z M144.301,33.67V16.568c0-0.295,0.239-0.534,0.534-0.534h222.33
	c0.295,0,0.534,0.239,0.534,0.534V33.67c0,0.295-0.239,0.534-0.534,0.534h-222.33C144.54,34.205,144.301,33.965,144.301,33.67z
	 M350.597,50.238v78.381c0,8.781-1.929,17.419-5.565,25.302H166.968c-3.635-7.884-5.565-16.521-5.565-25.302V50.238H350.597z
	 M175.401,344.718l60.531-72.638c2.399-2.879,4.051-6.159,4.968-9.592c2.287,0.711,4.659,1.179,7.083,1.39v112.373h-86.144
	C163.218,364.708,167.906,353.713,175.401,344.718z M367.699,478.33v17.102c0,0.295-0.239,0.534-0.534,0.534h-222.33
	c-0.295,0-0.534-0.239-0.534-0.534V478.33c0-0.295,0.239-0.534,0.534-0.534h222.33C367.46,477.795,367.699,478.035,367.699,478.33z
	 M161.403,461.762v-69.478h189.194v69.478H161.403z M336.599,344.718c7.495,8.994,12.182,19.988,13.562,31.532h-86.144V263.878
	c2.423-0.21,4.795-0.679,7.083-1.39c0.917,3.433,2.57,6.714,4.968,9.592L336.599,344.718z"/>
<g>
</g>
<g>
</g>
<g>
</g>
<g>
</g>
<g>
</g>
<g>
</g>
<g>
</g>
<g>
</g>
<g>
</g>
<g>
</g>
<g>
</g>
<g>
</g>
<g>
</g>
<g>
</g>
<g>
</g>
</svg>
