<?xml version="1.0" encoding="iso-8859-1"?>
<!-- Generator: Adobe Illustrator 19.0.0, SVG Export Plug-In . SVG Version: 6.00 Build 0)  -->
<svg version="1.1" id="Layer_1" xmlns="http://www.w3.org/2000/svg" xmlns:xlink="http://www.w3.org/1999/xlink" x="0px" y="0px"
	 viewBox="0 0 512 512" style="enable-background:new 0 0 512 512;" xml:space="preserve">
<path style="fill:#FFFFFF;" d="M444.125,358.614H67.875c-4.722,0-8.551-3.829-8.551-8.551v-222.33c0-4.722,3.829-8.551,8.551-8.551
	h376.251c4.722,0,8.551,3.829,8.551,8.551v222.33C452.676,354.785,448.848,358.614,444.125,358.614z"/>
<path style="fill:#5B5D6E;" d="M469.779,84.977H42.221c-9.445,0-17.102,7.656-17.102,17.102v290.739h461.762V102.079
	C486.881,92.634,479.223,84.977,469.779,84.977z M444.125,358.614H67.875c-4.722,0-8.551-3.829-8.551-8.551v-222.33
	c0-4.722,3.829-8.551,8.551-8.551h376.251c4.722,0,8.551,3.829,8.551,8.551v222.33C452.676,354.785,448.848,358.614,444.125,358.614
	z"/>
<path style="fill:#959CB3;" d="M486.881,427.023H25.119c-9.446,0-17.102-7.656-17.102-17.102v-17.102h495.967v17.102
	C503.983,419.366,496.327,427.023,486.881,427.023z"/>
<path style="fill:#EFF2FA;" d="M444.125,119.182H67.875c-4.722,0-8.551,3.829-8.551,8.551v25.653c0-4.722,3.829-8.551,8.551-8.551
	h376.251c4.722,0,8.551,3.829,8.551,8.551v-25.653C452.676,123.01,448.848,119.182,444.125,119.182z"/>
<path style="fill:#FFD782;" d="M256,324.409H102.079c-4.722,0-8.551-3.829-8.551-8.551V213.244c0-4.722,3.829-8.551,8.551-8.551H256
	c4.722,0,8.551,3.829,8.551,8.551v102.614C264.551,320.58,260.722,324.409,256,324.409z"/>
<path style="fill:#EFF2FA;" d="M247.449,161.937c0-4.722-3.829-8.551-8.551-8.551H119.182c-4.722,0-8.551,3.829-8.551,8.551v58.697
	l48.913,44.466c11.054,10.05,27.94,10.05,38.993,0l48.913-44.466L247.449,161.937L247.449,161.937z"/>
<path style="fill:#FFC36E;" d="M102.079,324.409H256c2.406,0,4.562-1.008,6.116-2.607l-63.579-57.799
	c-11.054-10.05-27.94-10.05-38.993,0l-63.579,57.799C97.517,323.401,99.673,324.409,102.079,324.409z"/>
<path d="M503.983,384.802h-9.086V102.079c0-13.851-11.268-25.119-25.119-25.119H42.221c-13.851,0-25.119,11.268-25.119,25.119
	v282.722H8.017c-4.427,0-8.017,3.589-8.017,8.017v17.102c0,13.851,11.268,25.119,25.119,25.119h461.762
	c13.851,0,25.119-11.268,25.119-25.119v-17.102C512,388.391,508.411,384.802,503.983,384.802z M33.136,102.079
	c0-5.01,4.076-9.086,9.086-9.086h427.557c5.01,0,9.086,4.076,9.086,9.086v282.722H33.136V102.079z M495.967,409.921
	c0,5.01-4.076,9.086-9.086,9.086H25.119c-5.01,0-9.086-4.076-9.086-9.086v-9.086h206.323c-0.012,0.177-0.027,0.354-0.027,0.534
	c0,4.427,3.589,8.017,8.017,8.017h51.307c4.427,0,8.017-3.589,8.017-8.017c0-0.181-0.015-0.357-0.027-0.534h206.323V409.921z"/>
<path d="M452.676,111.165H59.324c-4.427,0-8.017,3.589-8.017,8.017v239.432c0,4.427,3.589,8.017,8.017,8.017h393.353
	c4.427,0,8.017-3.589,8.017-8.017V119.182C460.693,114.754,457.104,111.165,452.676,111.165z M444.66,350.597H67.34V127.198H444.66
	V350.597z"/>
<path d="M298.756,169.954h111.165c4.427,0,8.017-3.589,8.017-8.017s-3.589-8.017-8.017-8.017H298.756
	c-4.427,0-8.017,3.589-8.017,8.017S294.328,169.954,298.756,169.954z"/>
<path d="M298.756,204.159h111.165c4.427,0,8.017-3.589,8.017-8.017s-3.589-8.017-8.017-8.017H298.756
	c-4.427,0-8.017,3.589-8.017,8.017S294.328,204.159,298.756,204.159z"/>
<path d="M144.835,195.608h68.409c4.427,0,8.017-3.589,8.017-8.017s-3.589-8.017-8.017-8.017h-68.409
	c-4.427,0-8.017,3.589-8.017,8.017S140.408,195.608,144.835,195.608z"/>
<path d="M204.693,213.779h-51.307c-4.427,0-8.017,3.589-8.017,8.017s3.589,8.017,8.017,8.017h51.307
	c4.427,0,8.017-3.589,8.017-8.017S209.12,213.779,204.693,213.779z"/>
<path d="M298.756,246.915h17.102c4.427,0,8.017-3.589,8.017-8.017s-3.589-8.017-8.017-8.017h-17.102
	c-4.427,0-8.017,3.589-8.017,8.017S294.328,246.915,298.756,246.915z"/>
<path d="M298.756,281.12h17.102c4.427,0,8.017-3.589,8.017-8.017c0-4.427-3.589-8.017-8.017-8.017h-17.102
	c-4.427,0-8.017,3.589-8.017,8.017C290.739,277.531,294.328,281.12,298.756,281.12z"/>
<path d="M298.756,315.324h17.102c4.427,0,8.017-3.589,8.017-8.017c0-4.427-3.589-8.017-8.017-8.017h-17.102
	c-4.427,0-8.017,3.589-8.017,8.017C290.739,311.734,294.328,315.324,298.756,315.324z"/>
<path d="M409.921,230.88h-59.858c-4.427,0-8.017,3.589-8.017,8.017s3.589,8.017,8.017,8.017h59.858c4.427,0,8.017-3.589,8.017-8.017
	S414.348,230.88,409.921,230.88z"/>
<path d="M409.921,265.085h-59.858c-4.427,0-8.017,3.589-8.017,8.017s3.589,8.017,8.017,8.017h59.858
	c4.427,0,8.017-3.589,8.017-8.017S414.348,265.085,409.921,265.085z"/>
<path d="M409.921,299.288h-59.858c-4.427,0-8.017,3.589-8.017,8.017c0,4.427,3.589,8.017,8.017,8.017h59.858
	c4.427,0,8.017-3.589,8.017-8.017C417.937,302.877,414.348,299.288,409.921,299.288z"/>
<path d="M102.079,332.426H256c9.136,0,16.568-7.432,16.568-16.568V213.244c0-9.136-7.432-16.568-16.568-16.568h-0.534v-34.739
	c0-9.136-7.432-16.568-16.568-16.568H119.182c-9.136,0-16.568,7.432-16.568,16.568v34.739h-0.534
	c-9.136,0-16.568,7.432-16.568,16.568v102.614C85.511,324.994,92.944,332.426,102.079,332.426z M148.309,264.551l-46.764,42.513
	v-85.027L148.309,264.551z M256.534,222.038v85.027l-46.765-42.514L256.534,222.038z M242.961,316.392H115.119l52.057-47.324
	c6.764-6.148,16.963-6.148,23.727,0L242.961,316.392z M118.647,161.937c0-0.295,0.239-0.534,0.534-0.534h119.716
	c0.295,0,0.534,0.239,0.534,0.534v53.98l-41.88,38.073c-11.238-7.445-25.786-7.444-37.024,0l-41.88-38.073V161.937z"/>
<g>
</g>
<g>
</g>
<g>
</g>
<g>
</g>
<g>
</g>
<g>
</g>
<g>
</g>
<g>
</g>
<g>
</g>
<g>
</g>
<g>
</g>
<g>
</g>
<g>
</g>
<g>
</g>
<g>
</g>
</svg>
