<?xml version="1.0" encoding="iso-8859-1"?>
<!-- Generator: Adobe Illustrator 19.0.0, SVG Export Plug-In . SVG Version: 6.00 Build 0)  -->
<svg version="1.1" id="Layer_1" xmlns="http://www.w3.org/2000/svg" xmlns:xlink="http://www.w3.org/1999/xlink" x="0px" y="0px"
	 viewBox="0 0 512 512" style="enable-background:new 0 0 512 512;" xml:space="preserve">
<polygon style="fill:#FFC36E;" points="84.977,294.48 127.733,499.708 221.795,499.708 179.04,294.48 "/>
<g>
	<path style="fill:#C7CFE2;" d="M469.779,166.213l21.251,5.312c7.614,1.904,12.954,8.744,12.954,16.591v24.601
		c0,7.848-5.341,14.689-12.954,16.591l-21.251,5.313"/>
	<path style="fill:#C7CFE2;" d="M25.119,132.008c-9.445,0-17.102,8.75-17.102,19.546v97.728c0,10.795,7.658,19.546,17.102,19.546
		h25.653V132.009H25.119V132.008z"/>
</g>
<path style="fill:#AFB9D2;" d="M8.017,200.418v51.307c0,9.445,7.658,17.102,17.102,17.102h25.653V217.52H25.119
	C15.674,217.52,8.017,209.862,8.017,200.418z"/>
<path style="fill:#C7CFE2;" d="M204.693,106.355V294.48c59.858,0,162.472,25.653,230.881,85.511V20.843
	C367.165,80.701,264.551,106.355,204.693,106.355z"/>
<path style="fill:#FFC36E;" d="M213.244,294.48H76.426c-18.891,0-34.205-15.314-34.205-34.205V140.56
	c0-18.891,15.314-34.205,34.205-34.205h136.818V294.48z"/>
<path style="fill:#AFB9D2;" d="M204.693,294.48c59.858,0,162.472,25.653,230.881,85.511V268.827
	c-68.409-22.803-171.023-42.756-230.881-42.756V294.48z"/>
<path style="fill:#FFB464;" d="M59.324,226.071c-9.446,0-17.102-7.656-17.102-17.102l0,0v51.307
	c0,18.891,15.314,34.205,34.205,34.205h136.818v-68.409H59.324z"/>
<path style="fill:#959CB3;" d="M461.228,388.543h-17.102c-4.722,0-8.551-3.829-8.551-8.551V20.843c0-4.722,3.829-8.551,8.551-8.551
	h17.102c4.722,0,8.551,3.829,8.551,8.551v359.148C469.779,384.714,465.95,388.543,461.228,388.543z"/>
<path style="fill:#707487;" d="M461.228,285.929h-17.102c-4.722,0-8.551-3.829-8.551-8.551v102.614c0,4.722,3.829,8.551,8.551,8.551
	h17.102c4.722,0,8.551-3.829,8.551-8.551V277.378C469.779,282.1,465.95,285.929,461.228,285.929z"/>
<path d="M492.973,163.748l-15.177-3.795V20.843c0-9.136-7.432-16.568-16.568-16.568h-17.102c-7.77,0-14.289,5.383-16.07,12.611
	c-64.64,59.711-158.481,81.452-206.26,81.452H76.426c-17.403,0-32.377,10.585-38.831,25.653H25.119
	C11.268,123.992,0,135.26,0,149.111v102.614c0,13.851,11.268,25.119,25.119,25.119h12.476c6.454,15.068,21.428,25.653,38.831,25.653
	h2.032l39.439,189.306c-3.815,0.616-6.732,3.915-6.732,7.904c0,4.427,3.589,8.017,8.017,8.017h111.165
	c4.427,0,8.017-3.589,8.017-8.017c0-4.427-3.589-8.017-8.017-8.017h-2.032l-39.415-189.194h32.896
	c47.78,0,141.62,21.741,206.26,81.452c1.781,7.228,8.3,12.611,16.07,12.611h17.102c9.136,0,16.568-7.432,16.568-16.568v-139.11
	l15.177-3.795c11.203-2.8,19.027-12.821,19.027-24.369v-24.601C512,176.569,504.176,166.549,492.973,163.748z M25.119,260.81
	c-5.01,0-9.086-4.076-9.086-9.086V149.111c0-5.01,4.076-9.086,9.086-9.086h9.099c-0.002,0.179-0.014,0.355-0.014,0.534v119.716
	c0,0.18,0.012,0.356,0.014,0.534H25.119z M50.238,260.276V140.56c0-14.44,11.748-26.188,26.188-26.188h128.802v172.092H76.426
	C61.986,286.464,50.238,274.715,50.238,260.276z M211.936,491.691h-77.685L94.837,302.497h77.685L211.936,491.691z M221.795,286.464
	h-0.534V114.372h0.534c31.08,0,69.947-7.575,106.636-20.783c37.749-13.59,71.665-32.446,99.126-55.012v323.68
	c-27.461-22.565-61.377-41.422-99.126-55.012C291.743,294.039,252.876,286.464,221.795,286.464z M461.762,379.992
	c0,0.295-0.239,0.534-0.534,0.534h-17.102c-0.295,0-0.534-0.239-0.534-0.534V20.843c0-0.295,0.239-0.534,0.534-0.534h17.102
	c0.295,0,0.534,0.239,0.534,0.534V379.992z M495.967,212.718c0,4.176-2.829,7.801-6.882,8.814l-11.29,2.822V176.48l11.29,2.822
	c4.052,1.013,6.882,4.638,6.882,8.815V212.718z"/>
<g>
</g>
<g>
</g>
<g>
</g>
<g>
</g>
<g>
</g>
<g>
</g>
<g>
</g>
<g>
</g>
<g>
</g>
<g>
</g>
<g>
</g>
<g>
</g>
<g>
</g>
<g>
</g>
<g>
</g>
</svg>
