<?xml version="1.0" encoding="iso-8859-1"?>
<!-- Generator: Adobe Illustrator 19.0.0, SVG Export Plug-In . SVG Version: 6.00 Build 0)  -->
<svg version="1.1" id="Layer_1" xmlns="http://www.w3.org/2000/svg" xmlns:xlink="http://www.w3.org/1999/xlink" x="0px" y="0px"
	 viewBox="0 0 512 512" style="enable-background:new 0 0 512 512;" xml:space="preserve">
<path style="fill:#C7CFE2;" d="M256,8.017c-51.949,0-94.063,42.113-94.063,94.063v76.96h188.125v-76.96
	C350.063,50.13,307.949,8.017,256,8.017z"/>
<path style="fill:#5B5D6E;" d="M161.937,196.142v76.96c0,51.949,42.113,94.063,94.063,94.063s94.063-42.113,94.063-94.063v-76.96
	H161.937z"/>
<path style="fill:#464655;" d="M230.347,273.102v-76.96h-68.409v76.96c0,51.949,42.113,94.063,94.063,94.063
	c12.083,0,23.593-2.36,34.205-6.511C255.189,346.961,230.347,312.969,230.347,273.102z"/>
<path style="fill:#AFB9D2;" d="M230.347,102.079v76.96h-68.409v-76.96c0-51.949,42.113-94.063,94.063-94.063
	c12.083,0,23.593,2.36,34.205,6.511C255.189,28.221,230.347,62.213,230.347,102.079z"/>
<path style="fill:#707487;" d="M350.063,204.693H161.937c-4.722,0-8.551-3.829-8.551-8.551V179.04c0-4.722,3.829-8.551,8.551-8.551
	h188.125c4.722,0,8.551,3.829,8.551,8.551v17.102C358.614,200.864,354.785,204.693,350.063,204.693z"/>
<path style="fill:#5B5D6E;" d="M264.551,384.267h-17.102c-4.722,0-8.551,3.829-8.551,8.551v85.511h34.205v-85.511
	C273.102,388.096,269.274,384.267,264.551,384.267z"/>
<path style="fill:#707487;" d="M324.409,503.983H187.591c-9.446,0-17.102-7.656-17.102-17.102l0,0
	c0-9.446,7.656-17.102,17.102-17.102h136.818c9.446,0,17.102,7.656,17.102,17.102l0,0
	C341.511,496.327,333.855,503.983,324.409,503.983z"/>
<g>
	<path style="fill:#5B5D6E;" d="M221.795,196.142V179.04c0-4.722,3.829-8.551,8.551-8.551h-68.409c-4.722,0-8.551,3.829-8.551,8.551
		v17.102c0,4.722,3.829,8.551,8.551,8.551h68.409C225.624,204.693,221.795,200.864,221.795,196.142z"/>
	<path style="fill:#5B5D6E;" d="M230.347,486.881c0-9.446,7.658-17.102,17.102-17.102h-59.858c-9.445,0-17.102,7.656-17.102,17.102
		c0,9.445,7.658,17.102,17.102,17.102h59.858C238.004,503.983,230.347,496.326,230.347,486.881z"/>
</g>
<path d="M392.818,179.574H366.63v-0.534c0-6.228-3.458-11.66-8.551-14.489v-62.471C358.079,45.792,312.287,0,256,0
	S153.921,45.792,153.921,102.079v62.471c-5.093,2.829-8.551,8.26-8.551,14.489v0.534h-26.188c-4.427,0-8.017,3.589-8.017,8.017
	s3.589,8.017,8.017,8.017h0.534v77.495c0,65.673,47.316,122.056,111.165,133.965v54.694h-43.29
	c-13.851,0-25.119,11.268-25.119,25.119S173.74,512,187.591,512h136.818c13.851,0,25.119-11.268,25.119-25.119
	s-11.268-25.119-25.119-25.119h-43.29v-54.694c63.849-11.91,111.165-68.292,111.165-133.965v-77.495h0.534
	c4.427,0,8.017-3.589,8.017-8.017S397.246,179.574,392.818,179.574z M350.063,178.505c0.295,0,0.534,0.239,0.534,0.534v17.102
	c0,0.293-0.236,0.53-0.528,0.533c-0.002,0-0.004,0-0.006,0c-0.011,0-0.02,0.001-0.031,0.001H161.968
	c-0.011,0-0.02-0.001-0.031-0.001c-0.002,0-0.004,0-0.006,0c-0.292-0.003-0.528-0.241-0.528-0.533V179.04
	c0-0.295,0.239-0.534,0.534-0.534H350.063z M169.954,212.71h172.092v60.392c0,47.446-38.6,86.046-86.046,86.046
	s-86.046-38.6-86.046-86.046V212.71z M265.13,16.523c0,0.015-0.002,0.03-0.002,0.045c0,4.427,3.632,8.017,8.059,8.017
	c3.341,0,6.203-2.045,7.406-4.951c13.724,4.101,26.021,11.531,35.943,21.365c-0.061,0.4-0.102,0.806-0.102,1.223
	c0,4.427,3.632,8.017,8.059,8.017c0.042,0,0.081-0.005,0.122-0.006c3.57,4.713,6.662,9.803,9.214,15.2
	c-0.244,0.771-0.378,1.592-0.378,2.443c0,3.017,1.689,5.643,4.164,7.011c2.858,8.554,4.429,17.691,4.429,27.194v9.112
	c-0.177-0.012-0.354-0.027-0.534-0.027h-0.085c-4.427,0-7.974,3.589-7.974,8.017c0,4.427,3.632,8.017,8.059,8.017
	c0.181,0,0.357-0.015,0.534-0.027v35.3H169.954v-35.304c0.205,0.016,0.41,0.031,0.62,0.031c4.427,0,8.017-3.589,8.017-8.017
	c0-4.427-3.589-8.017-8.017-8.017h-0.086c-0.181,0-0.357,0.015-0.534,0.027v-9.112c0-9.483,1.565-18.602,4.411-27.141
	c2.515-1.353,4.225-4.008,4.225-7.063c0-0.87-0.143-1.706-0.4-2.491c2.548-5.382,5.636-10.459,9.199-15.161
	c0.096,0.004,0.19,0.015,0.286,0.015c4.427,0,8.017-3.589,8.017-8.017c0-0.453-0.047-0.895-0.119-1.329
	c9.932-9.809,22.232-17.215,35.953-21.293c1.208,2.923,4.101,4.985,7.456,4.985c4.427,0,8.017-3.589,8.017-8.017
	c0-0.021-0.003-0.041-0.003-0.062c2.96-0.309,5.963-0.472,9.003-0.472C259.085,16.033,262.129,16.204,265.13,16.523z
	 M333.495,486.881c0,5.01-4.076,9.086-9.086,9.086H187.591c-5.01,0-9.086-4.076-9.086-9.086s4.076-9.086,9.086-9.086h136.818
	C329.419,477.795,333.495,481.871,333.495,486.881z M246.914,461.762V401.37c0-0.295,0.239-0.534,0.534-0.534h17.102
	c0.295,0,0.534,0.239,0.534,0.534v60.392H246.914z M376.251,273.102c0,58.098-41.956,107.958-98.505,118.288
	c-3.028-3.993-7.807-6.589-13.194-6.589h-17.102c-5.387,0-10.166,2.595-13.194,6.589c-56.549-10.33-98.505-60.19-98.505-118.288
	v-77.495h9.62v0.534c0,6.228,3.458,11.66,8.551,14.489v62.471c0,56.287,45.792,102.079,102.079,102.079
	s102.079-45.792,102.079-102.079v-62.471c5.093-2.829,8.551-8.26,8.551-14.489v-0.534h9.62V273.102z"/>
<path d="M256.086,152.852c4.427,0,8.017-3.589,8.017-8.017c0-4.427-3.589-8.017-8.017-8.017H256c-4.427,0-7.974,3.589-7.974,8.017
	C248.026,149.262,251.658,152.852,256.086,152.852z"/>
<path d="M187.676,136.818h-0.086c-4.427,0-7.974,3.589-7.974,8.017c0,4.427,3.632,8.017,8.059,8.017s8.017-3.589,8.017-8.017
	C195.693,140.408,192.104,136.818,187.676,136.818z"/>
<path d="M290.29,152.852c4.427,0,8.017-3.589,8.017-8.017c0-4.427-3.589-8.017-8.017-8.017h-0.086c-4.427,0-7.974,3.589-7.974,8.017
	C282.231,149.262,285.863,152.852,290.29,152.852z"/>
<path d="M324.409,152.852c4.427,0,8.017-3.589,8.017-8.017c0-4.427-3.589-8.017-8.017-8.017h-0.085
	c-4.427,0-7.974,3.589-7.974,8.017C316.35,149.262,319.982,152.852,324.409,152.852z"/>
<path d="M221.881,136.818h-0.086c-4.427,0-7.974,3.589-7.974,8.017c0,4.427,3.632,8.017,8.059,8.017s8.017-3.589,8.017-8.017
	C229.898,140.408,226.308,136.818,221.881,136.818z"/>
<path d="M256.086,101.545c4.427,0,8.017-3.589,8.017-8.017c0-4.427-3.589-8.017-8.017-8.017H256c-4.427,0-7.974,3.589-7.974,8.017
	C248.026,97.956,251.658,101.545,256.086,101.545z"/>
<path d="M187.676,85.511h-0.086c-4.427,0-7.974,3.589-7.974,8.017c0,4.427,3.632,8.017,8.059,8.017s8.017-3.589,8.017-8.017
	C195.693,89.101,192.104,85.511,187.676,85.511z"/>
<path d="M290.29,101.545c4.427,0,8.017-3.589,8.017-8.017c0-4.427-3.589-8.017-8.017-8.017h-0.086c-4.427,0-7.974,3.589-7.974,8.017
	C282.231,97.956,285.863,101.545,290.29,101.545z"/>
<path d="M324.409,101.545c4.427,0,8.017-3.589,8.017-8.017c0-4.427-3.589-8.017-8.017-8.017h-0.085
	c-4.427,0-7.974,3.589-7.974,8.017C316.35,97.956,319.982,101.545,324.409,101.545z"/>
<path d="M221.881,85.511h-0.086c-4.427,0-7.974,3.589-7.974,8.017c0,4.427,3.632,8.017,8.059,8.017s8.017-3.589,8.017-8.017
	C229.898,89.101,226.308,85.511,221.881,85.511z"/>
<path d="M256.086,50.238c4.427,0,8.017-3.589,8.017-8.017s-3.589-8.017-8.017-8.017H256c-4.427,0-7.974,3.589-7.974,8.017
	S251.658,50.238,256.086,50.238z"/>
<path d="M290.29,50.238c4.427,0,8.017-3.589,8.017-8.017s-3.589-8.017-8.017-8.017h-0.086c-4.427,0-7.974,3.589-7.974,8.017
	S285.863,50.238,290.29,50.238z"/>
<path d="M221.881,34.205h-0.086c-4.427,0-7.974,3.589-7.974,8.017s3.632,8.017,8.059,8.017s8.017-3.589,8.017-8.017
	S226.308,34.205,221.881,34.205z"/>
<path d="M273.188,127.198c4.427,0,8.017-3.589,8.017-8.017c0-4.427-3.589-8.017-8.017-8.017h-0.086
	c-4.427,0-7.974,3.589-7.974,8.017C265.128,123.609,268.76,127.198,273.188,127.198z"/>
<path d="M204.779,111.165h-0.086c-4.427,0-7.974,3.589-7.974,8.017c0,4.427,3.632,8.017,8.059,8.017s8.017-3.589,8.017-8.017
	C212.795,114.754,209.206,111.165,204.779,111.165z"/>
<path d="M307.392,127.198c4.427,0,8.017-3.589,8.017-8.017c0-4.427-3.589-8.017-8.017-8.017h-0.086
	c-4.427,0-7.974,3.589-7.974,8.017C299.333,123.609,302.965,127.198,307.392,127.198z"/>
<path d="M238.983,111.165h-0.086c-4.427,0-7.974,3.589-7.974,8.017c0,4.427,3.632,8.017,8.059,8.017
	c4.427,0,8.017-3.589,8.017-8.017C247,114.754,243.411,111.165,238.983,111.165z"/>
<path d="M273.188,75.891c4.427,0,8.017-3.589,8.017-8.017s-3.589-8.017-8.017-8.017h-0.086c-4.427,0-7.974,3.589-7.974,8.017
	S268.76,75.891,273.188,75.891z"/>
<path d="M204.779,59.858h-0.086c-4.427,0-7.974,3.589-7.974,8.017s3.632,8.017,8.059,8.017s8.017-3.589,8.017-8.017
	S209.206,59.858,204.779,59.858z"/>
<path d="M307.392,75.891c4.427,0,8.017-3.589,8.017-8.017s-3.589-8.017-8.017-8.017h-0.086c-4.427,0-7.974,3.589-7.974,8.017
	S302.965,75.891,307.392,75.891z"/>
<path d="M238.983,59.858h-0.086c-4.427,0-7.974,3.589-7.974,8.017s3.632,8.017,8.059,8.017c4.427,0,8.017-3.589,8.017-8.017
	S243.411,59.858,238.983,59.858z"/>
<g>
</g>
<g>
</g>
<g>
</g>
<g>
</g>
<g>
</g>
<g>
</g>
<g>
</g>
<g>
</g>
<g>
</g>
<g>
</g>
<g>
</g>
<g>
</g>
<g>
</g>
<g>
</g>
<g>
</g>
</svg>
