<?xml version="1.0" encoding="iso-8859-1"?>
<!-- Generator: Adobe Illustrator 19.0.0, SVG Export Plug-In . SVG Version: 6.00 Build 0)  -->
<svg version="1.1" id="Layer_1" xmlns="http://www.w3.org/2000/svg" xmlns:xlink="http://www.w3.org/1999/xlink" x="0px" y="0px"
	 viewBox="0 0 512 512" style="enable-background:new 0 0 512 512;" xml:space="preserve">
<path style="fill:#FFD782;" d="M486.881,444.125H25.119c-9.446,0-17.102-7.656-17.102-17.102V110.63
	c0-9.446,7.656-17.102,17.102-17.102h461.762c9.446,0,17.102,7.656,17.102,17.102v316.392
	C503.983,436.469,496.327,444.125,486.881,444.125z"/>
<path style="fill:#FFC36E;" d="M281.653,452.676h-51.307c-4.722,0-8.551-3.829-8.551-8.551v-34.205h68.409v34.205
	C290.205,448.848,286.376,452.676,281.653,452.676z"/>
<path style="fill:#E4EAF6;" d="M281.653,59.324C267.485,59.324,256,70.809,256,84.977c0-14.168-11.485-25.653-25.653-25.653H42.221
	v350.597H256h213.779V59.324H281.653z"/>
<path d="M84.977,118.647h128.267c4.427,0,8.017-3.589,8.017-8.017c0-4.427-3.589-8.017-8.017-8.017H84.977
	c-4.427,0-8.017,3.589-8.017,8.017C76.96,115.058,80.55,118.647,84.977,118.647z"/>
<path d="M84.977,187.056h128.267c4.427,0,8.017-3.589,8.017-8.017s-3.589-8.017-8.017-8.017H84.977
	c-4.427,0-8.017,3.589-8.017,8.017S80.55,187.056,84.977,187.056z"/>
<path d="M84.977,255.466h128.267c4.427,0,8.017-3.589,8.017-8.017s-3.589-8.017-8.017-8.017H84.977
	c-4.427,0-8.017,3.589-8.017,8.017S80.55,255.466,84.977,255.466z"/>
<path d="M84.977,323.875h128.267c4.427,0,8.017-3.589,8.017-8.017c0-4.427-3.589-8.017-8.017-8.017H84.977
	c-4.427,0-8.017,3.589-8.017,8.017C76.96,320.285,80.55,323.875,84.977,323.875z"/>
<path d="M84.977,152.852h34.205c4.427,0,8.017-3.589,8.017-8.017c0-4.427-3.589-8.017-8.017-8.017H84.977
	c-4.427,0-8.017,3.589-8.017,8.017C76.96,149.262,80.55,152.852,84.977,152.852z"/>
<path d="M84.977,358.079h34.205c4.427,0,8.017-3.589,8.017-8.017c0-4.427-3.589-8.017-8.017-8.017H84.977
	c-4.427,0-8.017,3.589-8.017,8.017C76.96,354.49,80.55,358.079,84.977,358.079z"/>
<path d="M213.244,342.046h-59.858c-4.427,0-8.017,3.589-8.017,8.017c0,4.427,3.589,8.017,8.017,8.017h59.858
	c4.427,0,8.017-3.589,8.017-8.017C221.261,345.635,217.672,342.046,213.244,342.046z"/>
<path d="M427.023,342.046h-59.858c-4.427,0-8.017,3.589-8.017,8.017c0,4.427,3.589,8.017,8.017,8.017h59.858
	c4.427,0,8.017-3.589,8.017-8.017C435.04,345.635,431.45,342.046,427.023,342.046z"/>
<path d="M213.244,273.637H179.04c-4.427,0-8.017,3.589-8.017,8.017c0,4.427,3.589,8.017,8.017,8.017h34.205
	c4.427,0,8.017-3.589,8.017-8.017C221.261,277.226,217.672,273.637,213.244,273.637z"/>
<path d="M84.977,289.67h59.858c4.427,0,8.017-3.589,8.017-8.017c0-4.427-3.589-8.017-8.017-8.017H84.977
	c-4.427,0-8.017,3.589-8.017,8.017C76.96,286.081,80.55,289.67,84.977,289.67z"/>
<path d="M84.977,221.261h51.307c4.427,0,8.017-3.589,8.017-8.017s-3.589-8.017-8.017-8.017H84.977c-4.427,0-8.017,3.589-8.017,8.017
	S80.55,221.261,84.977,221.261z"/>
<path d="M213.244,205.228h-42.756c-4.427,0-8.017,3.589-8.017,8.017s3.589,8.017,8.017,8.017h42.756
	c4.427,0,8.017-3.589,8.017-8.017S217.672,205.228,213.244,205.228z"/>
<path d="M213.244,136.818h-59.858c-4.427,0-8.017,3.589-8.017,8.017c0,4.427,3.589,8.017,8.017,8.017h59.858
	c4.427,0,8.017-3.589,8.017-8.017C221.261,140.408,217.672,136.818,213.244,136.818z"/>
<path d="M298.756,118.647h128.267c4.427,0,8.017-3.589,8.017-8.017c0-4.427-3.589-8.017-8.017-8.017H298.756
	c-4.427,0-8.017,3.589-8.017,8.017C290.739,115.058,294.328,118.647,298.756,118.647z"/>
<path d="M298.756,187.056h128.267c4.427,0,8.017-3.589,8.017-8.017s-3.589-8.017-8.017-8.017H298.756
	c-4.427,0-8.017,3.589-8.017,8.017S294.328,187.056,298.756,187.056z"/>
<path d="M298.756,255.466h128.267c4.427,0,8.017-3.589,8.017-8.017s-3.589-8.017-8.017-8.017H298.756
	c-4.427,0-8.017,3.589-8.017,8.017S294.328,255.466,298.756,255.466z"/>
<path d="M298.756,323.875h128.267c4.427,0,8.017-3.589,8.017-8.017c0-4.427-3.589-8.017-8.017-8.017H298.756
	c-4.427,0-8.017,3.589-8.017,8.017C290.739,320.285,294.328,323.875,298.756,323.875z"/>
<path d="M298.756,152.852h34.205c4.427,0,8.017-3.589,8.017-8.017c0-4.427-3.589-8.017-8.017-8.017h-34.205
	c-4.427,0-8.017,3.589-8.017,8.017C290.739,149.262,294.328,152.852,298.756,152.852z"/>
<path d="M298.756,358.079h34.205c4.427,0,8.017-3.589,8.017-8.017c0-4.427-3.589-8.017-8.017-8.017h-34.205
	c-4.427,0-8.017,3.589-8.017,8.017C290.739,354.49,294.328,358.079,298.756,358.079z"/>
<path d="M427.023,273.637h-34.205c-4.427,0-8.017,3.589-8.017,8.017c0,4.427,3.589,8.017,8.017,8.017h34.205
	c4.427,0,8.017-3.589,8.017-8.017C435.04,277.226,431.45,273.637,427.023,273.637z"/>
<path d="M298.756,289.67h59.858c4.427,0,8.017-3.589,8.017-8.017c0-4.427-3.589-8.017-8.017-8.017h-59.858
	c-4.427,0-8.017,3.589-8.017,8.017C290.739,286.081,294.328,289.67,298.756,289.67z"/>
<path d="M298.756,221.261h51.307c4.427,0,8.017-3.589,8.017-8.017s-3.589-8.017-8.017-8.017h-51.307
	c-4.427,0-8.017,3.589-8.017,8.017S294.328,221.261,298.756,221.261z"/>
<path d="M427.023,205.228h-42.756c-4.427,0-8.017,3.589-8.017,8.017s3.589,8.017,8.017,8.017h42.756
	c4.427,0,8.017-3.589,8.017-8.017S431.45,205.228,427.023,205.228z"/>
<path d="M427.023,136.818h-59.858c-4.427,0-8.017,3.589-8.017,8.017c0,4.427,3.589,8.017,8.017,8.017h59.858
	c4.427,0,8.017-3.589,8.017-8.017C435.04,140.408,431.45,136.818,427.023,136.818z"/>
<path d="M486.881,85.511h-9.086V59.324c0-4.427-3.589-8.017-8.017-8.017H281.653c-10.269,0-19.472,4.626-25.653,11.898
	c-6.181-7.272-15.385-11.898-25.653-11.898H42.221c-4.427,0-8.017,3.589-8.017,8.017v26.188h-9.086C11.268,85.511,0,96.78,0,110.63
	v316.392c0,13.851,11.268,25.119,25.119,25.119h190.739c2.829,5.093,8.26,8.551,14.489,8.551h51.307
	c6.228,0,11.659-3.458,14.489-8.551h190.739c13.851,0,25.119-11.268,25.119-25.119V110.63C512,96.78,500.732,85.511,486.881,85.511z
	 M281.653,67.34h180.109v334.564H264.017V84.977C264.017,75.252,271.929,67.34,281.653,67.34z M230.347,67.34
	c9.725,0,17.637,7.912,17.637,17.637v316.927H50.238c0,0,0-308.373,0-308.376s0-0.006,0-0.011V67.34H230.347z M16.033,427.023
	V110.63c0-5.01,4.076-9.086,9.086-9.086h9.086v308.376c0,4.427,3.589,8.017,8.017,8.017h171.557v18.171H25.119
	C20.109,436.109,16.033,432.033,16.033,427.023z M281.653,444.66h-51.307c-0.295,0-0.534-0.239-0.534-0.534v-26.188H256h26.188
	v26.188C282.188,444.42,281.948,444.66,281.653,444.66z M495.967,427.023c0,5.01-4.076,9.086-9.086,9.086h-188.66v-18.171h171.557
	c4.427,0,8.017-3.589,8.017-8.017V101.545h9.086c5.01,0,9.086,4.076,9.086,9.086V427.023z"/>
<g>
</g>
<g>
</g>
<g>
</g>
<g>
</g>
<g>
</g>
<g>
</g>
<g>
</g>
<g>
</g>
<g>
</g>
<g>
</g>
<g>
</g>
<g>
</g>
<g>
</g>
<g>
</g>
<g>
</g>
</svg>
