<?xml version="1.0" encoding="iso-8859-1"?>
<!-- Generator: Adobe Illustrator 19.0.0, SVG Export Plug-In . SVG Version: 6.00 Build 0)  -->
<svg version="1.1" id="Layer_1" xmlns="http://www.w3.org/2000/svg" xmlns:xlink="http://www.w3.org/1999/xlink" x="0px" y="0px"
	 viewBox="0 0 511.999 511.999" style="enable-background:new 0 0 511.999 511.999;" xml:space="preserve">
<polygon style="fill:#C7CFE2;" points="238.892,465.506 503.983,46.492 264.546,354.339 "/>
<polygon style="fill:#D7DEED;" points="144.828,354.339 238.892,465.506 264.546,354.339 503.983,46.492 "/>
<g>
	<path style="fill:#E4EAF6;" d="M264.546,354.339l190.496,71.437c7.41,2.778,15.428-2.267,16.129-10.149l32.811-369.133
		L264.546,354.339z"/>
	<path style="fill:#E4EAF6;" d="M144.828,354.339L12.802,391.013c-4.104,1.139-6.65-4.337-3.133-6.739L503.983,46.492
		L144.828,354.339z"/>
</g>
<path d="M238.889,473.524c-1.034,0-2.081-0.201-3.085-0.62c-1.24-0.517-2.29-1.316-3.097-2.297l-90.682-107.169l-127.078,35.3
	c-5.58,1.548-11.4-1.137-13.839-6.387c-2.44-5.249-0.743-11.43,4.037-14.696L499.459,39.873c2.56-1.749,5.899-1.865,8.576-0.298
	c2.675,1.568,4.207,4.539,3.933,7.627l-32.811,369.133c-0.558,6.272-3.935,11.793-9.264,15.148
	c-5.331,3.353-11.769,4.01-17.665,1.799l-148.282-55.606l-58.278,92.117c-0.002,0.004-0.005,0.009-0.009,0.013
	c-0.001,0.002-0.002,0.004-0.003,0.005c-0.001,0.002-0.003,0.005-0.004,0.007c-0.001,0.002-0.003,0.005-0.004,0.007
	c-0.001,0.001-0.002,0.003-0.003,0.005c-0.002,0.003-0.004,0.006-0.006,0.01c0,0.001-0.001,0.002-0.001,0.003
	c-0.002,0.003-0.005,0.007-0.007,0.012l0,0c-0.939,1.454-2.282,2.515-3.802,3.112c-0.004,0.001-0.009,0.002-0.012,0.004
	c-0.341,0.134-0.692,0.244-1.051,0.33C240.151,473.448,239.523,473.524,238.889,473.524z M156.094,355.243l78.583,92.871
	l22.026-95.449c0.078-0.365,0.183-0.728,0.315-1.088c0.013-0.036,0.027-0.073,0.041-0.11c0-0.001,0.001-0.002,0.001-0.003
	c0.001-0.003,0.002-0.007,0.004-0.012c0.312-0.81,0.743-1.54,1.263-2.181l189.467-243.905L156.094,355.243z M270.3,365.059
	l-13.009,56.369l31.319-49.504L270.3,365.059z M277.558,350.656l180.299,67.612c1.599,0.6,2.875,0.035,3.495-0.356
	c0.62-0.39,1.682-1.298,1.833-2.997l30.435-342.401L277.558,350.656z M388.131,135.368L35.361,376.426l105.603-29.334
	L388.131,135.368z"/>
<g>
</g>
<g>
</g>
<g>
</g>
<g>
</g>
<g>
</g>
<g>
</g>
<g>
</g>
<g>
</g>
<g>
</g>
<g>
</g>
<g>
</g>
<g>
</g>
<g>
</g>
<g>
</g>
<g>
</g>
</svg>
