<?xml version="1.0" encoding="iso-8859-1"?>
<!-- Generator: Adobe Illustrator 19.0.0, SVG Export Plug-In . SVG Version: 6.00 Build 0)  -->
<svg version="1.1" id="Layer_1" xmlns="http://www.w3.org/2000/svg" xmlns:xlink="http://www.w3.org/1999/xlink" x="0px" y="0px"
	 viewBox="0 0 512 512" style="enable-background:new 0 0 512 512;" xml:space="preserve">
<path style="fill:#FF6464;" d="M243.155,8.487C153.248,15.051,83.201,93.132,85.02,183.26
	c2.739,135.678,136.482,257.157,165.474,281.923c3.2,2.733,7.851,2.701,11.05-0.033c29.374-25.098,165.479-148.799,165.479-286.11
	C427.023,80.339,343.413,1.166,243.155,8.487z M256,307.307c-70.84,0-128.267-57.427-128.267-128.267S185.16,50.772,256,50.772
	S384.267,108.2,384.267,179.04S326.84,307.307,256,307.307z"/>
<path style="fill:#D2555A;" d="M252.698,465.182c-14.431-20.547-72.085-107.685-92.26-214.249
	c-15.097-20.034-24.154-44.876-24.154-71.894c0-29.648,10.836-56.725,28.687-77.635c15.948-51.364,46.888-88.484,83.325-92.918
	c1.332-0.162,2.893-0.304,4.59-0.432c-3.225,0.058-6.467,0.195-9.73,0.432C153.248,15.051,83.201,93.132,85.02,183.26
	c2.739,135.678,136.482,257.157,165.474,281.923c1.596,1.363,3.553,2.035,5.51,2.031
	C254.83,467.218,253.656,466.545,252.698,465.182z"/>
<path d="M256,0C157.277,0,76.96,80.317,76.96,179.04c0,36.285,9.242,74.554,27.471,113.744
	c14.455,31.078,34.574,62.823,59.798,94.353c42.82,53.525,84.989,87.483,86.763,88.901c1.464,1.172,3.236,1.757,5.008,1.757
	c1.772,0,3.543-0.586,5.008-1.757c1.774-1.419,43.943-35.376,86.763-88.901c25.224-31.53,45.342-63.275,59.798-94.353
	c18.229-39.19,27.471-77.46,27.471-113.744C435.04,80.317,354.723,0,256,0z M393.11,285.852
	c-13.88,29.884-33.275,60.503-57.646,91.003c-33.314,41.693-67.022,71.848-79.464,82.477
	c-12.443-10.628-46.149-40.784-79.464-82.477c-24.372-30.501-43.767-61.119-57.647-91.003
	c-17.184-36.995-25.896-72.933-25.896-106.812c0-89.882,73.124-163.006,163.006-163.006S419.006,89.157,419.006,179.04
	C419.006,212.919,410.294,248.857,393.11,285.852z"/>
<path d="M256,42.756c-75.147,0-136.284,61.136-136.284,136.284S180.853,315.324,256,315.324s136.284-61.136,136.284-136.284
	S331.147,42.756,256,42.756z M256,299.29c-66.307,0-120.251-53.944-120.251-120.251S189.693,58.789,256,58.789
	s120.251,53.944,120.251,120.251S322.307,299.29,256,299.29z"/>
<path d="M256,239.347c-4.427,0-8.059,3.632-8.059,8.059s3.632,8.059,8.059,8.059c4.427,0,8.059-3.632,8.059-8.059
	S260.427,239.347,256,239.347z"/>
<path d="M255.996,102.614c-27.993,0.002-50.768,22.779-50.768,50.772c0,4.427,3.589,8.017,8.017,8.017s8.017-3.589,8.017-8.017
	c0-19.154,15.582-34.738,34.736-34.739c9.039,0,17.697,3.679,24.38,10.363c6.683,6.683,10.363,15.341,10.362,24.379
	c-0.001,15.226-10.176,28.91-24.742,33.278c-10.776,3.231-18.014,12.885-18.014,24.023v2.554c0,4.427,3.589,8.017,8.017,8.017
	c4.427,0,8.017-3.589,8.017-8.017v-2.554c0-4.002,2.647-7.484,6.587-8.666c21.294-6.386,36.168-26.385,36.169-48.635
	c0.001-13.322-5.347-26.006-15.059-35.718C282.003,107.96,269.317,102.613,255.996,102.614z"/>
<path d="M315.858,495.967H196.142c-4.427,0-8.017,3.588-8.017,8.017s3.589,8.017,8.017,8.017h119.716
	c4.427,0,8.017-3.588,8.017-8.017S320.285,495.967,315.858,495.967z"/>
<g>
</g>
<g>
</g>
<g>
</g>
<g>
</g>
<g>
</g>
<g>
</g>
<g>
</g>
<g>
</g>
<g>
</g>
<g>
</g>
<g>
</g>
<g>
</g>
<g>
</g>
<g>
</g>
<g>
</g>
</svg>
