<?xml version="1.0" encoding="iso-8859-1"?>
<!-- Generator: Adobe Illustrator 19.0.0, SVG Export Plug-In . SVG Version: 6.00 Build 0)  -->
<svg version="1.1" id="Layer_1" xmlns="http://www.w3.org/2000/svg" xmlns:xlink="http://www.w3.org/1999/xlink" x="0px" y="0px"
	 viewBox="0 0 512 512" style="enable-background:new 0 0 512 512;" xml:space="preserve">
<path style="fill:#5A4146;" d="M256,93.528c-62.237,0-76.384,67.797-76.96,142.49c-0.024,3.108,1.881,5.907,4.8,7.215
	c9.997,4.479,22.118,8.033,35.643,10.342l72.822,0.036c13.61-2.309,25.805-5.877,35.854-10.378c2.919-1.308,4.824-4.107,4.8-7.215
	C332.385,161.325,318.237,93.528,256,93.528z"/>
<path style="fill:#D29B6E;" d="M341.511,298.756v-17.102l-51.241-29.28c-5.328-3.045-8.617-8.711-8.617-14.849v-15.729h-51.307
	v15.729c0,6.138-3.289,11.804-8.617,14.849l-51.241,29.28v17.102H341.511z"/>
<path style="fill:#F0C087;" d="M298.756,161.937v45.333c0,9.011-4.728,17.361-12.455,21.998l-21.502,12.902
	c-5.416,3.249-12.182,3.249-17.598,0l-21.502-12.902c-7.727-4.636-12.455-12.987-12.455-21.998v-45.333c0,0,51.307,0,68.409-17.102
	L298.756,161.937z"/>
<path style="fill:#FF6464;" d="M243.147,8.486C153.24,15.051,83.192,93.132,85.011,183.26
	c2.739,135.678,136.482,257.157,165.474,281.923c3.199,2.733,7.851,2.701,11.051-0.033
	c29.373-25.098,165.479-148.799,165.479-286.11C427.014,80.339,343.405,1.166,243.147,8.486z M336.534,278.809l-32.91-18.806
	c-4.715,6.692-22.584,30.087-47.623,38.753c-25.04-8.665-42.909-32.061-47.623-38.753l-32.916,18.809
	c-29.095-23.515-47.737-59.449-47.737-99.772c0-70.842,57.43-128.271,128.271-128.271s128.272,57.428,128.272,128.27
	C384.267,219.362,365.627,255.293,336.534,278.809z"/>
<path style="fill:#D2555A;" d="M250.486,465.182c1.596,1.363,3.552,2.036,5.51,2.031c-1.176,0.004-2.348-0.668-3.307-2.031
	c-13.628-19.404-65.764-98.222-88.519-196.679c-22.519-23.113-36.445-54.644-36.445-89.463c0-38.593,17.125-73.118,44.096-96.633
	c17.119-41.334,44.699-70.055,76.465-73.92c1.332-0.162,2.893-0.304,4.591-0.432h-0.001c-3.225,0.058-6.467,0.195-9.73,0.432
	C153.24,15.051,83.192,93.132,85.011,183.26C87.75,318.938,221.493,440.416,250.486,465.182z"/>
<path d="M256,0C157.277,0,76.96,80.317,76.96,179.04c0,36.285,9.242,74.554,27.471,113.744
	c14.455,31.078,34.574,62.823,59.798,94.353c42.82,53.525,84.989,87.481,86.763,88.901c1.464,1.172,3.236,1.757,5.008,1.757
	c1.772,0,3.543-0.586,5.008-1.757c1.774-1.419,43.943-35.376,86.763-88.901c25.224-31.53,45.342-63.275,59.798-94.353
	c18.229-39.19,27.471-77.46,27.471-113.744C435.04,80.317,354.723,0,256,0z M393.11,285.852
	c-13.88,29.884-33.275,60.503-57.646,91.003c-33.314,41.693-67.022,71.848-79.464,82.477
	c-12.443-10.628-46.149-40.784-79.464-82.477c-24.372-30.501-43.767-61.119-57.647-91.003
	c-17.184-36.995-25.896-72.933-25.896-106.812c0-89.882,73.124-163.006,163.006-163.006S419.006,89.157,419.006,179.04
	C419.006,212.919,410.294,248.857,393.11,285.852z"/>
<path d="M315.858,495.967H196.142c-4.427,0-8.017,3.589-8.017,8.017c0,4.427,3.589,8.017,8.017,8.017h119.716
	c4.427,0,8.017-3.589,8.017-8.017C323.875,499.556,320.285,495.967,315.858,495.967z"/>
<path d="M271.471,43.611c-39.351-4.343-77.126,7.692-106.369,33.884c-28.843,25.836-45.386,62.848-45.386,101.545
	c0,38.86,16.7,75.984,45.82,101.856c3.046,2.705,6.913,4.097,10.834,4.096c2.842,0,5.713-0.731,8.319-2.22l22.573-12.899
	c0.104,0.117,0.202,0.236,0.313,0.347c1.085,1.085,26.781,26.677,44.839,35.706c1.129,0.564,2.357,0.847,3.585,0.847
	c1.228,0,2.456-0.282,3.585-0.847c18.059-9.029,43.754-34.621,44.839-35.706c0.111-0.111,0.21-0.231,0.313-0.347l22.57,12.897
	c6.205,3.546,13.904,2.791,19.159-1.877c15.95-14.172,28.507-32.088,36.314-51.81c8.273-20.902,11.173-43.03,8.618-65.77
	C384.381,100.847,333.944,50.505,271.471,43.611z M229.824,222.394c-5.281-3.169-8.563-8.964-8.563-15.124v-37.557
	c5.317-0.264,12.787-0.818,20.909-1.977c16.975-2.425,29.989-6.522,38.836-12.211l9.733,9.733v22.332
	c0,9.725-7.912,17.637-17.637,17.637H256c-4.427,0-8.017,3.589-8.017,8.017s3.589,8.017,8.017,8.017h17.102
	c4.883,0,9.522-1.053,13.714-2.931c-1.284,1.598-2.842,2.985-4.64,4.064l-21.502,12.902c-2.883,1.729-6.466,1.729-9.349,0
	L229.824,222.394z M293.885,245.171c-2.603-1.66-4.215-4.542-4.215-7.647c0-0.304-0.02-0.602-0.053-0.897l0.808-0.485
	c10.083-6.05,16.347-17.113,16.347-28.872v-45.333c0-2.126-0.844-4.164-2.348-5.668l-17.102-17.102
	c-3.131-3.131-8.207-3.131-11.337,0c-5.652,5.652-18.4,10.152-35.895,12.67c-14.252,2.051-26.724,2.084-26.846,2.084
	c-4.427,0-8.017,3.589-8.017,8.017v45.333c0,11.759,6.264,22.823,16.347,28.872l0.808,0.485c-0.033,0.295-0.053,0.593-0.053,0.897
	c0,3.105-1.611,5.987-4.215,7.647c-11.57-2.16-22.245-5.334-30.998-9.254c-0.024-0.011-0.044-0.022-0.061-0.031
	c0.342-42.52,5.149-73.901,14.695-95.935c11.2-25.843,28.945-38.405,54.251-38.405s43.051,12.563,54.247,38.405
	c9.546,22.034,14.353,53.418,14.695,95.935c-0.017,0.01-0.036,0.02-0.061,0.031C316.128,239.838,305.456,243.01,293.885,245.171z
	 M256,289.605c-12.267-7.342-27.977-21.938-34.283-27.992l3.989-2.28c5.439-3.107,9.435-8.107,11.364-13.893l6.006,3.604
	c3.986,2.391,8.455,3.587,12.924,3.587c4.469,0,8.938-1.196,12.924-3.587l6.006-3.604c1.928,5.786,5.926,10.785,11.363,13.893
	l1.228,0.701c0.518,0.386,1.082,0.708,1.679,0.96l1.083,0.619C283.977,267.668,268.267,282.264,256,289.605z M335.818,268.907
	c-0.046,0.041-0.308,0.083-0.556-0.058l-21.045-12.026c6.154-1.804,11.912-3.897,17.22-6.275c5.842-2.617,9.587-8.345,9.54-14.591
	c-0.345-44.811-5.585-78.3-16.017-102.38C311.141,101.683,287.94,85.511,256,85.511s-55.141,16.171-68.96,48.065
	c-10.432,24.08-15.672,57.568-16.017,102.381c-0.047,6.247,3.697,11.974,9.54,14.59c5.308,2.378,11.065,4.472,17.219,6.277
	l-21.047,12.026c-0.247,0.141-0.506,0.098-0.55,0.059c-25.697-22.83-40.435-55.587-40.435-89.869
	c0-34.145,14.598-66.804,40.05-89.602c25.801-23.111,59.154-33.727,93.912-29.889c55.09,6.079,99.564,50.471,105.754,105.554
	C379.917,204.728,365.466,242.564,335.818,268.907z"/>
<g>
</g>
<g>
</g>
<g>
</g>
<g>
</g>
<g>
</g>
<g>
</g>
<g>
</g>
<g>
</g>
<g>
</g>
<g>
</g>
<g>
</g>
<g>
</g>
<g>
</g>
<g>
</g>
<g>
</g>
</svg>
