<?xml version="1.0" encoding="iso-8859-1"?>
<!-- Generator: Adobe Illustrator 19.0.0, SVG Export Plug-In . SVG Version: 6.00 Build 0)  -->
<svg version="1.1" id="Layer_1" xmlns="http://www.w3.org/2000/svg" xmlns:xlink="http://www.w3.org/1999/xlink" x="0px" y="0px"
	 viewBox="0 0 512 512" style="enable-background:new 0 0 512 512;" xml:space="preserve">
<path style="fill:#EFF2FA;" d="M461.228,418.472H50.772c-4.722,0-8.551-3.829-8.551-8.551V273.102c0-4.722,3.829-8.551,8.551-8.551
	h410.455c4.722,0,8.551,3.829,8.551,8.551v136.818C469.779,414.643,465.95,418.472,461.228,418.472z"/>
<g>
	<path style="fill:#FFD782;" d="M128.175,368.603l-23.321,12.26c-2.285,1.201-4.956-0.739-4.519-3.284l4.454-25.968l-18.867-18.39
		c-1.849-1.802-0.828-4.943,1.726-5.313l26.074-3.789l11.661-23.627c1.143-2.315,4.444-2.315,5.587,0l11.661,23.627l26.074,3.789
		c2.555,0.371,3.575,3.511,1.726,5.313l-18.867,18.39l4.454,25.968c0.436,2.545-2.234,4.485-4.519,3.284L128.175,368.603z"/>
	<path style="fill:#FFD782;" d="M256,368.603l-23.321,12.26c-2.285,1.201-4.956-0.739-4.519-3.284l4.454-25.968l-18.867-18.39
		c-1.849-1.802-0.828-4.943,1.726-5.313l26.074-3.789l11.661-23.627c1.143-2.315,4.444-2.315,5.587,0l11.661,23.627l26.074,3.789
		c2.555,0.371,3.575,3.511,1.726,5.313l-18.867,18.39l4.454,25.968c0.436,2.545-2.234,4.485-4.519,3.284L256,368.603z"/>
	<path style="fill:#FFD782;" d="M383.825,368.603l-23.321,12.26c-2.285,1.201-4.956-0.739-4.519-3.284l4.454-25.968l-18.867-18.39
		c-1.849-1.802-0.828-4.943,1.726-5.313l26.074-3.789l11.661-23.627c1.143-2.315,4.444-2.315,5.587,0l11.661,23.627l26.074,3.789
		c2.555,0.371,3.575,3.511,1.726,5.313l-18.867,18.39l4.454,25.968c0.436,2.545-2.234,4.485-4.519,3.284L383.825,368.603z"/>
</g>
<path style="fill:#D7DEED;" d="M461.228,161.937H324.409c-4.722,0-8.551,3.829-8.551,8.551v51.307c0,4.722,3.829,8.551,8.551,8.551
	h136.818c4.722,0,8.551-3.829,8.551-8.551v-51.307C469.779,165.766,465.95,161.937,461.228,161.937z"/>
<path style="fill:#EFF2FA;" d="M478.33,59.324H33.67c-14.168,0-25.653,11.485-25.653,25.653v42.756h495.967V84.977
	C503.983,70.809,492.498,59.324,478.33,59.324z"/>
<path d="M478.33,51.307H33.67C15.105,51.307,0,66.411,0,84.977v342.046c0,18.566,15.105,33.67,33.67,33.67h444.66
	c18.566,0,33.67-15.105,33.67-33.67V84.977C512,66.411,496.895,51.307,478.33,51.307z M33.67,67.34h444.66
	c9.725,0,17.637,7.912,17.637,17.637v34.739H16.033V84.977C16.033,75.252,23.945,67.34,33.67,67.34z M478.33,444.66H33.67
	c-9.725,0-17.637-7.912-17.637-17.637V135.749h479.933v291.273C495.967,436.748,488.055,444.66,478.33,444.66z"/>
<path d="M127.733,101.545h342.046c4.427,0,8.017-3.589,8.017-8.017c0-4.427-3.589-8.017-8.017-8.017H127.733
	c-4.427,0-8.017,3.589-8.017,8.017C119.716,97.956,123.305,101.545,127.733,101.545z"/>
<path d="M169.856,319.974l-21.903-3.183l-9.795-19.847c-1.889-3.828-5.714-6.206-9.982-6.206c-4.268,0-8.094,2.378-9.982,6.205
	l-9.795,19.847l-21.902,3.182c-4.224,0.614-7.667,3.517-8.987,7.575c-1.319,4.059-0.241,8.433,2.817,11.412l15.85,15.449
	l-3.741,21.815c-0.722,4.207,0.976,8.379,4.429,10.888c1.952,1.417,4.234,2.138,6.532,2.138c1.769,0,3.548-0.426,5.191-1.291
	l19.591-10.3l19.591,10.3c3.777,1.986,8.269,1.661,11.723-0.847c3.453-2.509,5.15-6.681,4.428-10.889l-3.741-21.814l15.848-15.449
	c3.057-2.979,4.137-7.352,2.818-11.412C177.523,323.491,174.079,320.588,169.856,319.974z M145.966,345.872
	c-1.89,1.842-2.751,4.496-2.306,7.096l2.775,16.179l-14.529-7.638c-1.168-0.614-2.45-0.92-3.73-0.92s-2.562,0.307-3.73,0.92
	l-14.529,7.638l2.775-16.179c0.446-2.601-0.416-5.255-2.306-7.096l-11.756-11.459l16.245-2.36c2.611-0.379,4.869-2.019,6.036-4.386
	l7.264-14.721l7.265,14.721c1.168,2.365,3.425,4.006,6.036,4.386l16.245,2.36L145.966,345.872z"/>
<path d="M297.68,319.974l-21.903-3.183l-9.795-19.847c-1.889-3.828-5.714-6.206-9.982-6.206c-4.268,0-8.094,2.378-9.982,6.205
	l-9.795,19.847l-21.902,3.182c-4.224,0.614-7.668,3.517-8.987,7.576c-1.319,4.06-0.239,8.432,2.817,11.411l15.85,15.449
	l-3.741,21.815c-0.721,4.207,0.976,8.379,4.43,10.888c1.952,1.417,4.234,2.138,6.532,2.138c1.769,0,3.548-0.426,5.191-1.291
	l19.591-10.3l19.591,10.299c3.777,1.987,8.269,1.663,11.723-0.847c3.453-2.509,5.15-6.681,4.43-10.889l-3.741-21.814l15.848-15.449
	c3.057-2.979,4.137-7.352,2.818-11.411C305.348,323.491,301.904,320.588,297.68,319.974z M273.791,345.872
	c-1.89,1.842-2.751,4.496-2.306,7.096l2.775,16.179l-14.529-7.638c-2.337-1.227-5.125-1.227-7.461,0l-14.529,7.638l2.775-16.179
	c0.446-2.601-0.416-5.255-2.306-7.096l-11.756-11.459l16.245-2.36c2.611-0.379,4.868-2.019,6.036-4.386L256,312.946l7.265,14.721
	c1.168,2.365,3.425,4.006,6.036,4.386l16.245,2.36L273.791,345.872z"/>
<path d="M425.505,319.974l-21.903-3.183l-9.795-19.847c-1.889-3.828-5.714-6.206-9.982-6.206s-8.094,2.378-9.982,6.205
	l-9.795,19.847l-21.903,3.183c-4.224,0.614-7.667,3.517-8.986,7.575c-1.319,4.06-0.239,8.432,2.817,11.411l15.85,15.449
	l-3.741,21.815c-0.721,4.207,0.976,8.379,4.428,10.888c3.454,2.509,7.945,2.833,11.724,0.847l19.591-10.3l19.591,10.299
	c1.643,0.865,3.422,1.291,5.191,1.291c2.298,0,4.581-0.719,6.532-2.138c3.453-2.509,5.15-6.681,4.43-10.889l-3.741-21.814
	l15.85-15.45c3.056-2.979,4.136-7.352,2.817-11.411C433.171,323.49,429.728,320.588,425.505,319.974z M401.615,345.872
	c-1.89,1.842-2.751,4.496-2.306,7.096l2.775,16.179l-14.529-7.638c-2.337-1.227-5.125-1.227-7.461,0l-14.529,7.638l2.775-16.179
	c0.446-2.601-0.416-5.255-2.306-7.096l-11.756-11.459l16.245-2.36c2.611-0.379,4.868-2.019,6.036-4.386l7.265-14.721l7.264,14.721
	c1.167,2.365,3.425,4.006,6.036,4.386l16.245,2.36L401.615,345.872z"/>
<path d="M452.676,256.534H59.324c-13.851,0-25.119,11.268-25.119,25.119V401.37c0,13.851,11.268,25.119,25.119,25.119h393.353
	c13.851,0,25.119-11.268,25.119-25.119V281.653C477.795,267.803,466.527,256.534,452.676,256.534z M461.762,401.37
	c0,5.01-4.076,9.086-9.086,9.086H59.324c-5.01,0-9.086-4.076-9.086-9.086V281.653c0-5.01,4.076-9.086,9.086-9.086h393.353
	c5.01,0,9.086,4.076,9.086,9.086V401.37z"/>
<path d="M119.716,230.347c0,4.427,3.589,8.017,8.017,8.017h102.614c4.427,0,8.017-3.589,8.017-8.017s-3.589-8.017-8.017-8.017
	H127.733C123.305,222.33,119.716,225.919,119.716,230.347z"/>
<path d="M42.221,169.954h34.205c4.427,0,8.017-3.589,8.017-8.017s-3.589-8.017-8.017-8.017H42.221c-4.427,0-8.017,3.589-8.017,8.017
	S37.794,169.954,42.221,169.954z"/>
<path d="M110.63,169.954h68.409c4.427,0,8.017-3.589,8.017-8.017s-3.589-8.017-8.017-8.017H110.63c-4.427,0-8.017,3.589-8.017,8.017
	S106.203,169.954,110.63,169.954z"/>
<path d="M213.244,169.954h68.409c4.427,0,8.017-3.589,8.017-8.017s-3.589-8.017-8.017-8.017h-68.409
	c-4.427,0-8.017,3.589-8.017,8.017S208.817,169.954,213.244,169.954z"/>
<path d="M281.653,222.33h-17.102c-4.427,0-8.017,3.589-8.017,8.017s3.589,8.017,8.017,8.017h17.102c4.427,0,8.017-3.589,8.017-8.017
	S286.081,222.33,281.653,222.33z"/>
<path d="M42.221,238.363h51.307c4.427,0,8.017-3.589,8.017-8.017s-3.589-8.017-8.017-8.017H42.221c-4.427,0-8.017,3.589-8.017,8.017
	S37.794,238.363,42.221,238.363z"/>
<path d="M42.221,204.159h85.511c4.427,0,8.017-3.589,8.017-8.017s-3.589-8.017-8.017-8.017H42.221c-4.427,0-8.017,3.589-8.017,8.017
	S37.794,204.159,42.221,204.159z"/>
<path d="M281.653,188.125h-34.205c-4.427,0-8.017,3.589-8.017,8.017s3.589,8.017,8.017,8.017h34.205
	c4.427,0,8.017-3.589,8.017-8.017S286.081,188.125,281.653,188.125z"/>
<path d="M213.244,204.159c4.427,0,8.017-3.589,8.017-8.017s-3.589-8.017-8.017-8.017h-51.307c-4.427,0-8.017,3.589-8.017,8.017
	s3.589,8.017,8.017,8.017H213.244z"/>
<path d="M461.228,153.921H324.409c-9.136,0-16.568,7.432-16.568,16.568v51.307c0,9.136,7.432,16.568,16.568,16.568h136.818
	c9.136,0,16.568-7.432,16.568-16.568v-51.307C477.795,161.353,470.363,153.921,461.228,153.921z M461.762,221.795
	c0,0.295-0.239,0.534-0.534,0.534H324.409c-0.295,0-0.534-0.239-0.534-0.534v-51.307c0-0.295,0.239-0.534,0.534-0.534h136.818
	c0.295,0,0.534,0.239,0.534,0.534V221.795z"/>
<circle cx="42.221" cy="93.528" r="8.017"/>
<circle cx="67.875" cy="93.528" r="8.017"/>
<circle cx="93.528" cy="93.528" r="8.017"/>
<g>
</g>
<g>
</g>
<g>
</g>
<g>
</g>
<g>
</g>
<g>
</g>
<g>
</g>
<g>
</g>
<g>
</g>
<g>
</g>
<g>
</g>
<g>
</g>
<g>
</g>
<g>
</g>
<g>
</g>
</svg>
