<?xml version="1.0" encoding="iso-8859-1"?>
<!-- Generator: Adobe Illustrator 19.0.0, SVG Export Plug-In . SVG Version: 6.00 Build 0)  -->
<svg version="1.1" id="Layer_1" xmlns="http://www.w3.org/2000/svg" xmlns:xlink="http://www.w3.org/1999/xlink" x="0px" y="0px"
	 viewBox="0 0 512 512" style="enable-background:new 0 0 512 512;" xml:space="preserve">
<path style="fill:#FFD782;" d="M264.551,435.544h-17.102c-9.446,0-17.102-7.656-17.102-17.102V332.93
	c0-9.446,7.656-17.102,17.102-17.102h17.102c9.446,0,17.102,7.656,17.102,17.102v85.511
	C281.653,427.887,273.997,435.544,264.551,435.544z"/>
<path style="fill:#959CB3;" d="M230.347,401.339v17.102c0,9.445,7.658,17.102,17.102,17.102h17.102
	c9.445,0,17.102-7.658,17.102-17.102v-17.102H230.347z"/>
<path style="fill:#5B5D6E;" d="M187.591,418.442H16.568c-4.722,0-8.551-3.829-8.551-8.551v-68.409c0-4.722,3.829-8.551,8.551-8.551
	h171.023c4.722,0,8.551,3.829,8.551,8.551v68.409C196.142,414.613,192.313,418.442,187.591,418.442z"/>
<g>
	<path style="fill:#FFD782;" d="M289.075,247.419c5.587,0,9.725,5.29,8.331,10.701c-4.75,18.435-21.488,32.055-41.406,32.055
		c-19.918,0-36.656-13.62-41.406-32.055c-1.394-5.41,2.744-10.701,8.331-10.701L289.075,247.419L289.075,247.419z"/>
	<circle style="fill:#FFD782;" cx="256" cy="196.11" r="17.102"/>
</g>
<path style="fill:#5B5D6E;" d="M495.432,418.442H324.409c-4.722,0-8.551-3.829-8.551-8.551v-68.409c0-4.722,3.829-8.551,8.551-8.551
	h171.023c4.722,0,8.551,3.829,8.551,8.551v68.409C503.983,414.613,500.155,418.442,495.432,418.442z"/>
<path d="M495.432,324.914H324.409c-9.136,0-16.568,7.432-16.568,16.568v26.188H289.67V332.93c0-13.851-11.268-25.119-25.119-25.119
	h-0.534v-10.259c24.2-3.855,42.756-24.866,42.756-50.133c0-4.427-3.589-8.017-8.017-8.017h-34.739v-19.49
	c9.93-3.354,17.102-12.752,17.102-23.8c0-13.851-11.268-25.119-25.119-25.119c-13.851,0-25.119,11.268-25.119,25.119
	c0,11.048,7.172,20.446,17.102,23.8v19.49h-34.739c-4.427,0-8.017,3.589-8.017,8.017c0,25.268,18.556,46.278,42.756,50.133v10.259
	h-0.534c-13.851,0-25.119,11.268-25.119,25.119v34.739h-18.171v-26.188c0-9.136-7.432-16.568-16.568-16.568H16.568
	C7.432,324.914,0,332.346,0,341.481v68.409c0,9.136,7.432,16.568,16.568,16.568h171.023c9.136,0,16.568-7.432,16.568-16.568v-26.188
	h18.171v34.739c0,13.851,11.268,25.119,25.119,25.119h17.102c13.851,0,25.119-11.268,25.119-25.119v-34.739h18.171v26.188
	c0,9.136,7.432,16.568,16.568,16.568h171.023c9.136,0,16.568-7.432,16.568-16.568v-68.409
	C512,332.346,504.568,324.914,495.432,324.914z M256,187.026c5.01,0,9.086,4.076,9.086,9.086s-4.076,9.086-9.086,9.086
	c-5.01,0-9.086-4.076-9.086-9.086S250.99,187.026,256,187.026z M222.195,255.436h67.611c-3.628,15.303-17.408,26.722-33.805,26.722
	C239.604,282.158,225.823,270.739,222.195,255.436z M128.268,340.947v69.478H75.891v-69.478H128.268z M16.033,409.891v-68.409
	c0-0.295,0.239-0.534,0.534-0.534h43.29v69.478h-43.29C16.273,410.425,16.033,410.186,16.033,409.891z M188.125,409.891
	c0,0.295-0.239,0.534-0.534,0.534h-43.289v-69.478h43.289c0.295,0,0.534,0.239,0.534,0.534V409.891z M238.363,332.93
	c0-5.01,4.076-9.086,9.086-9.086h17.102c5.01,0,9.086,4.076,9.086,9.086v60.392h-35.273V332.93z M264.551,427.527h-17.102
	c-5.01,0-9.086-4.076-9.086-9.086v-9.086h35.273v9.086C273.637,423.452,269.561,427.527,264.551,427.527z M436.11,340.947v69.478
	h-52.376v-69.478H436.11z M323.875,409.891v-68.409c0-0.295,0.239-0.534,0.534-0.534h43.29v69.478h-43.29
	C324.114,410.425,323.875,410.186,323.875,409.891z M495.967,409.891c0,0.295-0.239,0.534-0.534,0.534h-43.289v-69.478h43.289
	c0.295,0,0.534,0.239,0.534,0.534V409.891z"/>
<path d="M214.052,154.164c-3.131,3.131-3.131,8.207,0,11.337c3.131,3.131,8.207,3.131,11.337,0
	c16.879-16.879,44.342-16.879,61.221,0c1.565,1.565,3.617,2.348,5.668,2.348s4.103-0.782,5.668-2.348
	c3.131-3.131,3.131-8.207,0-11.337C274.817,131.033,237.183,131.033,214.052,154.164z"/>
<path d="M316.465,143.662c2.051,0,4.103-0.782,5.668-2.348c3.131-3.131,3.131-8.207,0-11.337
	c-17.665-17.666-41.152-27.394-66.135-27.394s-48.469,9.729-66.135,27.394c-3.131,3.131-3.131,8.207,0,11.337
	c3.131,3.131,8.207,3.131,11.337,0c14.636-14.636,34.098-22.698,54.797-22.698s40.16,8.062,54.797,22.698
	C312.362,142.881,314.414,143.662,316.465,143.662z"/>
<path d="M177.016,117.128c43.551-43.551,114.415-43.551,157.966,0c1.565,1.565,3.617,2.348,5.668,2.348s4.103-0.782,5.668-2.348
	c3.131-3.131,3.131-8.207,0-11.337c-49.803-49.803-130.838-49.803-180.641,0c-3.131,3.131-3.131,8.207,0,11.337
	C168.81,120.259,173.887,120.259,177.016,117.128z"/>
<g>
</g>
<g>
</g>
<g>
</g>
<g>
</g>
<g>
</g>
<g>
</g>
<g>
</g>
<g>
</g>
<g>
</g>
<g>
</g>
<g>
</g>
<g>
</g>
<g>
</g>
<g>
</g>
<g>
</g>
</svg>
