<?xml version="1.0" encoding="iso-8859-1"?>
<!-- Generator: Adobe Illustrator 19.0.0, SVG Export Plug-In . SVG Version: 6.00 Build 0)  -->
<svg version="1.1" id="Layer_1" xmlns="http://www.w3.org/2000/svg" xmlns:xlink="http://www.w3.org/1999/xlink" x="0px" y="0px"
	 viewBox="0 0 512 512" style="enable-background:new 0 0 512 512;" xml:space="preserve">
<circle style="fill:#5B5D6E;" cx="256" cy="161.937" r="119.716"/>
<circle style="fill:#18BDF6;" cx="256" cy="161.937" r="85.511"/>
<circle style="fill:#00D2FF;" cx="256" cy="161.937" r="59.858"/>
<path style="fill:#5B5D6E;" d="M264.551,503.983h-17.102c-4.722,0-8.551-3.829-8.551-8.551V341.511c0-4.722,3.829-8.551,8.551-8.551
	h17.102c4.722,0,8.551,3.829,8.551,8.551v153.921C273.102,500.155,269.274,503.983,264.551,503.983z"/>
<path style="fill:#959CB3;" d="M264.551,332.96h-17.102c-4.722,0-8.551,3.829-8.551,8.551v25.653h34.205v-25.653
	C273.102,336.789,269.274,332.96,264.551,332.96z"/>
<path d="M417.937,161.937C417.937,72.644,345.293,0,256,0S94.063,72.644,94.063,161.937c0,86.605,68.338,157.545,153.921,161.737
	v1.269h-0.534c-9.136,0-16.568,7.432-16.568,16.568v153.921c0,9.136,7.432,16.568,16.568,16.568h17.102
	c9.136,0,16.568-7.432,16.568-16.568V341.511c0-9.136-7.432-16.568-16.568-16.568h-0.534v-1.269
	C349.6,319.483,417.937,248.542,417.937,161.937z M264.551,495.967h-17.102c-0.295,0-0.534-0.239-0.534-0.534V375.182h18.171
	v120.251C265.086,495.727,264.846,495.967,264.551,495.967z M265.086,341.511v17.637h-18.171v-17.637
	c0-0.295,0.239-0.534,0.534-0.534h17.102C264.846,340.977,265.086,341.216,265.086,341.511z M110.096,161.937
	c0-80.451,65.453-145.904,145.904-145.904s145.904,65.453,145.904,145.904c0,77.761-61.15,141.504-137.887,145.681v-18.206
	c66.711-4.153,119.716-59.735,119.716-127.474c0-70.433-57.3-127.733-127.733-127.733s-127.733,57.3-127.733,127.733
	c0,67.739,53.005,123.321,119.716,127.474v18.206C171.246,303.442,110.096,239.698,110.096,161.937z M256,273.637
	c-61.592,0-111.699-50.108-111.699-111.699S194.408,50.238,256,50.238s111.699,50.108,111.699,111.699S317.592,273.637,256,273.637z
	"/>
<path d="M256,68.409c-51.572,0-93.528,41.956-93.528,93.528s41.956,93.528,93.528,93.528s93.528-41.956,93.528-93.528
	S307.572,68.409,256,68.409z M256,239.432c-42.731,0-77.495-34.764-77.495-77.495S213.269,84.443,256,84.443
	s77.495,34.764,77.495,77.495S298.731,239.432,256,239.432z"/>
<path d="M256.086,127.198c4.427,0,8.017-3.589,8.017-8.017c0-4.427-3.589-8.017-8.017-8.017H256c-4.427,0-7.974,3.589-7.974,8.017
	C248.026,123.609,251.658,127.198,256.086,127.198z"/>
<path d="M264.551,152.852c4.427,0,8.017-3.589,8.017-8.017c0-4.427-3.589-8.017-8.017-8.017h-17.102
	c-4.427,0-8.017,3.589-8.017,8.017c0,4.427,3.589,8.017,8.017,8.017h0.534v43.825h-0.534c-4.427,0-8.017,3.589-8.017,8.017
	s3.589,8.017,8.017,8.017h17.102c4.427,0,8.017-3.589,8.017-8.017s-3.589-8.017-8.017-8.017h-0.534v-43.825H264.551z"/>
<g>
</g>
<g>
</g>
<g>
</g>
<g>
</g>
<g>
</g>
<g>
</g>
<g>
</g>
<g>
</g>
<g>
</g>
<g>
</g>
<g>
</g>
<g>
</g>
<g>
</g>
<g>
</g>
<g>
</g>
</svg>
