<?xml version="1.0" encoding="iso-8859-1"?>
<!-- Generator: Adobe Illustrator 19.0.0, SVG Export Plug-In . SVG Version: 6.00 Build 0)  -->
<svg version="1.1" id="Layer_1" xmlns="http://www.w3.org/2000/svg" xmlns:xlink="http://www.w3.org/1999/xlink" x="0px" y="0px"
	 viewBox="0 0 512 512" style="enable-background:new 0 0 512 512;" xml:space="preserve">
<path style="fill:#FFC36E;" d="M478.33,76.426H194.955c-7.398,0-14.435-3.194-19.306-8.761l-12.043-13.763
	c-6.495-7.422-15.878-11.681-25.741-11.681H25.119c-9.446,0-17.102,7.656-17.102,17.102v111.165h495.967v-68.409
	C503.983,87.911,492.498,76.426,478.33,76.426z"/>
<path style="fill:#FFD782;" d="M478.33,110.63H33.67c-14.168,0-25.653,11.485-25.653,25.653v307.841
	c0,14.168,11.485,25.653,25.653,25.653h444.66c14.168,0,25.653-11.485,25.653-25.653V136.284
	C503.983,122.116,492.498,110.63,478.33,110.63z"/>
<path style="fill:#959CB3;" d="M225.033,284.891l-37.141,37.14l-17.184-5.727c-6.146-2.037-12.919-0.447-17.499,4.133
	l-24.188,24.188c-6.681,6.676-6.681,17.507,0,24.184c6.672,6.681,17.512,6.681,24.184,0l16.714-16.714l18.142,6.046l6.046,18.142
	l-16.714,16.714c-6.681,6.676-6.681,17.507,0,24.184c3.336,3.34,7.716,5.011,12.092,5.011c4.376,0,8.755-1.671,12.092-5.011
	l24.188-24.188c4.58-4.58,6.179-11.353,4.133-17.499l-5.727-17.184l99.934-99.934l17.184,5.727c1.77,0.589,3.595,0.876,5.403,0.876
	c4.468,0,8.84-1.75,12.096-5.011l24.188-24.188c6.681-6.676,6.681-17.507,0-24.184c-6.672-6.681-17.512-6.681-24.184,0
	l-16.714,16.714l-18.142-6.046l-6.046-18.142l16.714-16.714c6.681-6.676,6.681-17.507,0-24.184c-6.672-6.681-17.512-6.681-24.184,0
	l-24.188,24.188c-4.58,4.58-6.179,11.353-4.133,17.499l5.727,17.184l-37.941,37.941L225.033,284.891z"/>
<rect x="219.422" y="255.518" transform="matrix(-0.7071 0.7071 -0.7071 -0.7071 600.3892 298.6249)" style="fill:#D2555A;" width="37.85" height="36.279"/>
<g>
	<path style="fill:#FF6464;" d="M284.461,295.592l-24.186,24.186c-6.678,6.678-17.507,6.678-24.186,0l0,0
		c-6.678-6.678-6.678-17.507,0-24.186l24.186-24.186c6.678-6.678,17.507-6.678,24.186,0l0,0
		C291.141,278.084,291.141,288.912,284.461,295.592z"/>
	<path style="fill:#FF6464;" d="M242.135,253.266l-24.186,24.186c-6.678,6.678-17.507,6.678-24.186,0l-60.466-60.466
		c-6.678-6.678-6.678-17.507,0-24.186l24.186-24.186c6.678-6.678,17.507-6.678,24.186,0l60.466,60.466
		C248.815,235.758,248.815,246.586,242.135,253.266z"/>
</g>
<path style="fill:#AFB9D2;" d="M344.928,380.243L344.928,380.243c-6.678,6.678-6.678,17.507,0,24.186l12.093,12.093
	c3.339,3.339,8.754,3.339,12.093,0l12.093-12.093c3.339-3.339,3.339-8.754,0-12.093l-12.093-12.093
	C362.435,373.564,351.606,373.564,344.928,380.243z"/>
<path d="M478.33,68.409H194.957c-5.087,0-9.925-2.196-13.272-6.023l-12.043-13.763c-8.019-9.163-19.6-14.418-31.776-14.418H25.119
	C11.268,34.205,0,45.473,0,59.324v384.802c0,18.566,15.105,33.67,33.67,33.67h444.66c18.566,0,33.67-15.105,33.67-33.67V102.079
	C512,83.514,496.895,68.409,478.33,68.409z M25.119,50.238h112.746c7.552,0,14.736,3.259,19.708,8.943l12.043,13.763
	c6.394,7.307,15.629,11.498,25.34,11.498H478.33c9.725,0,17.637,7.912,17.637,17.637v5.538c-5.133-3.169-11.174-5.003-17.637-5.003
	H33.67c-6.463,0-12.504,1.834-17.637,5.003V59.324C16.033,54.314,20.109,50.238,25.119,50.238z M495.967,444.125
	c0,9.725-7.912,17.637-17.637,17.637H33.67c-9.725,0-17.637-7.912-17.637-17.637V136.284c0-9.725,7.912-17.637,17.637-17.637h444.66
	c9.725,0,17.637,7.912,17.637,17.637V444.125z"/>
<path d="M338.76,271.712c2.566,0.854,5.235,1.287,7.932,1.287c6.717,0,13.027-2.615,17.765-7.358l24.186-24.186
	c4.746-4.744,7.36-11.051,7.36-17.763c0-6.712-2.613-13.019-7.355-17.756c-4.742-4.748-11.05-7.363-17.764-7.363
	c-6.714,0-13.022,2.615-17.761,7.358l-13.21,13.21l-9.638-3.212l-3.212-9.638l13.209-13.208c4.746-4.744,7.36-11.051,7.36-17.763
	c0-6.712-2.613-13.019-7.355-17.756c-4.742-4.748-11.05-7.363-17.764-7.363c-6.714,0-13.022,2.615-17.761,7.358l-24.188,24.188
	c-6.769,6.769-9.095,16.616-6.07,25.703l4.161,12.484l-23.605,23.605c0.073-0.781,0.112-1.57,0.112-2.365
	c0-6.709-2.612-13.018-7.357-17.762l-60.465-60.465c-9.792-9.794-25.729-9.794-35.524,0l-24.186,24.186
	c-9.794,9.794-9.794,25.729,0,35.524l60.465,60.465c4.744,4.745,11.052,7.357,17.762,7.357c0.795,0,1.584-0.04,2.365-0.112
	l-22.495,22.495l-12.494-4.164c-9.086-3.012-18.931-0.685-25.691,6.075l-24.186,24.186c-4.746,4.744-7.36,11.051-7.36,17.763
	s2.613,13.019,7.355,17.756c4.742,4.748,11.05,7.363,17.764,7.363s13.022-2.615,17.761-7.358l13.21-13.21l9.638,3.212l3.212,9.638
	l-13.209,13.208c-4.746,4.744-7.36,11.051-7.36,17.763s2.613,13.019,7.355,17.756c4.742,4.748,11.05,7.363,17.764,7.363
	c6.714,0,13.022-2.615,17.761-7.358l24.188-24.188c6.769-6.769,9.095-16.616,6.07-25.703l-4.161-12.484l40.24-40.24l60.95,60.95
	c-4.645,9.392-3.085,21.101,4.725,28.911l12.093,12.093c3.229,3.23,7.473,4.845,11.715,4.845c4.242,0,8.485-1.615,11.715-4.845
	l12.093-12.093c6.459-6.459,6.459-16.97,0-23.43l-12.093-12.093c-7.81-7.81-19.519-9.372-28.911-4.725l-60.949-60.949l41.351-41.351
	L338.76,271.712z M363.445,385.912l12.093,12.093c0.208,0.208,0.208,0.547,0,0.756l-12.093,12.093c-0.208,0.207-0.547,0.207-0.756,0
	l-12.092-12.093c-3.542-3.542-3.543-9.307,0-12.849C354.138,382.37,359.903,382.369,363.445,385.912z M272.368,274.417
	c2.327,0,4.654,0.885,6.425,2.656c3.542,3.542,3.542,9.307,0,12.849l-12.088,12.088c-0.002,0.002-0.003,0.003-0.005,0.005
	c-0.002,0.002-0.003,0.003-0.005,0.005l-12.088,12.088c-3.543,3.543-9.307,3.542-12.849,0s-3.542-9.307,0-12.849l24.186-24.186
	C267.715,275.302,270.042,274.417,272.368,274.417z M242.135,264.602l6.802,6.802l-12.849,12.849l-6.802-6.802L242.135,264.602z
	 M199.432,271.783l-60.465-60.465c-3.542-3.542-3.542-9.307,0-12.849l24.186-24.186c1.771-1.771,4.098-2.656,6.424-2.656
	c2.327,0,4.654,0.885,6.425,2.656l60.465,60.465c1.716,1.716,2.662,3.998,2.662,6.425c0,2.427-0.945,4.708-2.662,6.424l0,0
	l-24.187,24.186c-1.716,1.716-3.997,2.662-6.424,2.662C203.429,274.445,201.148,273.499,199.432,271.783z M218.504,352.643
	c-2.147,2.147-2.897,5.322-1.937,8.204l5.726,17.18c1.095,3.287,0.252,6.849-2.196,9.298l-24.191,24.191
	c-1.712,1.715-3.992,2.658-6.42,2.658c-2.427,0-4.707-0.944-6.425-2.665c-1.716-1.715-2.66-3.994-2.66-6.421
	c0-2.426,0.945-4.706,2.663-6.423l16.714-16.714c2.147-2.146,2.897-5.322,1.937-8.203l-6.046-18.142
	c-0.798-2.394-2.676-4.273-5.071-5.071l-18.142-6.046c-2.881-0.96-6.056-0.211-8.203,1.937l-16.717,16.717
	c-1.712,1.715-3.992,2.658-6.42,2.658c-2.427,0-4.707-0.944-6.425-2.665c-1.716-1.715-2.66-3.994-2.66-6.421
	c0-2.426,0.945-4.706,2.663-6.423l24.188-24.188c2.446-2.446,6.011-3.286,9.295-2.197l17.184,5.727
	c2.88,0.958,6.056,0.211,8.204-1.937l31.65-31.65l0.484,0.484c-4.646,9.392-3.086,21.101,4.725,28.911
	c2.737,2.737,5.962,4.682,9.391,5.889L218.504,352.643z M318.438,252.709l-22.419,22.419c-1.207-3.429-3.151-6.654-5.889-9.391
	c-7.809-7.81-19.519-9.371-28.911-4.724l-0.484-0.484l32.76-32.761c2.147-2.146,2.897-5.322,1.937-8.204l-5.726-17.18
	c-1.095-3.287-0.252-6.849,2.195-9.298l24.191-24.191c1.712-1.715,3.992-2.658,6.42-2.658c2.427,0,4.707,0.944,6.425,2.665
	c1.716,1.715,2.66,3.994,2.66,6.421s-0.945,4.706-2.663,6.423l-16.714,16.714c-2.147,2.146-2.897,5.322-1.937,8.203l6.046,18.142
	c0.798,2.394,2.677,4.273,5.071,5.071l18.142,6.046c2.879,0.959,6.056,0.211,8.203-1.937l16.718-16.717
	c1.712-1.715,3.992-2.658,6.42-2.658c2.427,0,4.707,0.944,6.425,2.665c1.716,1.715,2.66,3.994,2.66,6.421s-0.945,4.706-2.663,6.423
	l-24.191,24.191c-1.712,1.714-3.993,2.658-6.424,2.658c-0.975,0-1.941-0.157-2.868-0.466l-17.184-5.727
	C323.759,249.812,320.585,250.561,318.438,252.709z"/>
<path d="M211.525,235.504l-36.279-36.279c-3.131-3.131-8.207-3.131-11.337,0c-3.131,3.131-3.131,8.207,0,11.337l36.279,36.279
	c1.565,1.565,3.617,2.348,5.668,2.348c2.051,0,4.103-0.782,5.668-2.348C214.656,243.71,214.656,238.634,211.525,235.504z"/>
<g>
</g>
<g>
</g>
<g>
</g>
<g>
</g>
<g>
</g>
<g>
</g>
<g>
</g>
<g>
</g>
<g>
</g>
<g>
</g>
<g>
</g>
<g>
</g>
<g>
</g>
<g>
</g>
<g>
</g>
</svg>
