<?xml version="1.0" encoding="iso-8859-1"?>
<!-- Generator: Adobe Illustrator 19.0.0, SVG Export Plug-In . SVG Version: 6.00 Build 0)  -->
<svg version="1.1" id="Layer_1" xmlns="http://www.w3.org/2000/svg" xmlns:xlink="http://www.w3.org/1999/xlink" x="0px" y="0px"
	 viewBox="0 0 512.001 512.001" style="enable-background:new 0 0 512.001 512.001;" xml:space="preserve">
<path style="fill:#AFB9D2;" d="M501.391,220.487c-0.606-4.179-4.275-7.243-8.498-7.243H474.18
	c-5.772-29.62-17.391-57.148-33.658-81.3l13.205-13.205c2.989-2.989,3.411-7.763,0.879-11.147
	c-14.247-19.037-31.16-35.95-50.198-50.198c-3.383-2.532-8.158-2.109-11.146,0.88l-13.206,13.206
	c-24.151-16.269-51.679-27.886-81.299-33.658V19.108c0-4.223-3.063-7.892-7.243-8.498c-11.599-1.682-23.446-2.593-35.512-2.593
	s-23.913,0.911-35.513,2.593c-4.179,0.606-7.243,4.275-7.243,8.498v18.713c-29.62,5.772-57.148,17.39-81.299,33.658l-13.205-13.206
	c-2.989-2.989-7.763-3.412-11.147-0.88c-19.037,14.248-35.95,31.161-50.198,50.198c-2.532,3.384-2.109,8.159,0.88,11.147
	l13.206,13.206c-16.269,24.151-27.886,51.679-33.658,81.299H19.108c-4.223,0-7.892,3.063-8.498,7.243
	c-1.681,11.6-2.593,23.447-2.593,35.513c0,12.066,0.912,23.913,2.593,35.512c0.606,4.179,4.275,7.244,8.498,7.244h18.713
	c5.772,29.62,17.39,57.148,33.658,81.299l-13.206,13.206c-2.989,2.989-3.412,7.763-0.88,11.147
	c14.248,19.037,31.16,35.95,50.198,50.197c3.384,2.532,8.158,2.109,11.147-0.88l13.205-13.205
	c24.151,16.269,51.679,27.886,81.299,33.658v18.713c0,4.223,3.063,7.892,7.243,8.498c11.6,1.682,23.447,2.593,35.513,2.593
	s23.913-0.912,35.513-2.593c4.179-0.606,7.243-4.274,7.243-8.498v-18.713c29.62-5.772,57.148-17.39,81.299-33.658l13.206,13.205
	c2.989,2.989,7.763,3.412,11.146,0.88c19.038-14.248,35.951-31.16,50.198-50.197c2.533-3.384,2.111-8.159-0.879-11.147
	l-13.205-13.205c16.269-24.151,27.886-51.679,33.658-81.299h18.713c4.223,0,7.892-3.065,8.498-7.244
	c1.681-11.6,2.593-23.446,2.593-35.512C503.984,243.935,503.072,232.087,501.391,220.487z M256.001,392.818
	c-75.563,0-136.818-61.256-136.818-136.818c0-75.563,61.255-136.818,136.818-136.818S392.819,180.437,392.819,256
	C392.819,331.562,331.564,392.818,256.001,392.818z"/>
<path style="fill:#C7CFE2;" d="M256.001,84.977c-94.454,0-171.023,76.569-171.023,171.023c0,94.453,76.569,171.023,171.023,171.023
	S427.023,350.453,427.023,256C427.023,161.546,350.454,84.977,256.001,84.977z M256.001,392.818
	c-75.563,0-136.818-61.256-136.818-136.818c0-75.563,61.255-136.818,136.818-136.818S392.819,180.437,392.819,256
	C392.819,331.562,331.564,392.818,256.001,392.818z"/>
<path d="M256.001,111.165c-79.862,0-144.835,64.973-144.835,144.835s64.973,144.835,144.835,144.835S400.836,335.862,400.836,256
	S335.863,111.165,256.001,111.165z M256.001,384.802c-71.022,0-128.802-57.78-128.802-128.802s57.78-128.802,128.802-128.802
	S384.802,184.978,384.802,256S327.022,384.802,256.001,384.802z"/>
<path d="M509.325,219.337L509.325,219.337c-1.167-8.044-8.232-14.109-16.432-14.109h-12.204
	c-5.774-25.722-15.81-49.962-29.898-72.217l8.604-8.604c5.806-5.806,6.506-15.1,1.628-21.619
	c-14.717-19.663-32.149-37.097-51.812-51.814c-6.518-4.879-15.811-4.178-21.618,1.629l-8.605,8.604
	c-22.252-14.087-46.493-24.123-72.215-29.897V19.108c0-8.201-6.066-15.265-14.109-16.431C280.422,0.9,268.085,0,256.001,0
	c-12.085,0-24.421,0.9-36.663,2.677c-8.043,1.166-14.109,8.23-14.109,16.431v12.204c-25.722,5.774-49.962,15.81-72.217,29.898
	l-8.604-8.605c-5.807-5.807-15.101-6.506-21.619-1.628c-19.662,14.715-37.096,32.148-51.812,51.812
	c-4.877,6.518-4.177,15.812,1.629,21.619l8.604,8.604c-14.088,22.254-24.124,46.495-29.898,72.217H19.108
	c-8.201,0-15.265,6.066-16.431,14.109C0.901,231.583,0.001,243.918,0.001,256s0.9,24.417,2.677,36.662
	c1.166,8.044,8.23,14.11,16.431,14.11h12.204c5.774,25.722,15.81,49.961,29.898,72.216l-8.604,8.604
	c-5.808,5.807-6.508,15.101-1.629,21.62c14.718,19.663,32.149,37.096,51.812,51.812c6.518,4.878,15.812,4.177,21.619-1.629
	l8.604-8.604c22.254,14.088,46.494,24.123,72.217,29.898v12.204c0,8.201,6.066,15.265,14.109,16.431
	c12.246,1.776,24.581,2.677,36.663,2.677c12.082,0,24.417-0.9,36.663-2.677c8.043-1.166,14.109-8.23,14.109-16.431V480.69
	c25.722-5.774,49.962-15.81,72.216-29.898l8.605,8.604c5.806,5.807,15.1,6.507,21.618,1.629
	c19.664-14.718,37.098-32.149,51.812-51.811c4.881-6.519,4.18-15.814-1.628-21.62l-8.604-8.604
	c14.088-22.254,24.123-46.494,29.897-72.217h12.204c8.201,0,15.264-6.066,16.432-14.11c1.774-12.247,2.674-24.581,2.674-36.662
	S511.101,231.584,509.325,219.337z M493.457,290.361c-0.026,0.178-0.273,0.378-0.564,0.378H474.18c-3.836,0-7.135,2.717-7.868,6.483
	c-5.495,28.194-16.41,54.557-32.439,78.354c-2.143,3.181-1.733,7.435,0.98,10.147l13.206,13.206
	c0.203,0.204,0.237,0.529,0.128,0.674c-13.798,18.437-30.145,34.783-48.584,48.583c-0.143,0.108-0.468,0.074-0.673-0.13
	l-13.206-13.205c-2.713-2.712-6.966-3.122-10.148-0.98c-23.797,16.031-50.159,26.945-78.353,32.439
	c-3.766,0.733-6.483,4.032-6.483,7.868v18.713c0,0.291-0.199,0.538-0.377,0.563c-11.486,1.667-23.047,2.512-34.362,2.512
	c-11.314,0-22.875-0.844-34.362-2.511c-0.179-0.026-0.377-0.273-0.377-0.563v-18.713c0-3.836-2.717-7.135-6.483-7.868
	c-28.194-5.494-54.557-16.409-78.353-32.439c-1.364-0.918-2.924-1.368-4.477-1.368c-2.068,0-4.122,0.798-5.672,2.348l-13.205,13.205
	c-0.205,0.205-0.532,0.238-0.676,0.13c-18.438-13.799-34.784-30.145-48.584-48.584c-0.108-0.143-0.074-0.469,0.13-0.674
	l13.206-13.206c2.713-2.713,3.123-6.966,0.98-10.148c-16.031-23.797-26.945-50.159-32.439-78.353
	c-0.733-3.766-4.032-6.483-7.868-6.483H19.108c-0.291,0-0.538-0.2-0.563-0.378c-1.666-11.485-2.511-23.046-2.511-34.361
	s0.844-22.875,2.511-34.362c0.026-0.179,0.273-0.377,0.563-0.377h18.713c3.836,0,7.135-2.717,7.868-6.483
	c5.494-28.194,16.409-54.556,32.439-78.353c2.143-3.182,1.733-7.435-0.98-10.148l-13.206-13.206
	c-0.204-0.204-0.237-0.531-0.13-0.674c13.799-18.438,30.146-34.784,48.584-48.584c0.143-0.108,0.47-0.074,0.674,0.13l13.205,13.206
	c2.712,2.713,6.965,3.122,10.148,0.98c23.797-16.031,50.159-26.945,78.353-32.439c3.766-0.734,6.483-4.032,6.483-7.868V19.108
	c0-0.291,0.199-0.538,0.377-0.563c11.485-1.666,23.046-2.511,34.364-2.511s22.879,0.844,34.362,2.511
	c0.178,0.026,0.377,0.273,0.377,0.563v18.713c0,3.836,2.717,7.135,6.483,7.868c28.194,5.494,54.556,16.409,78.353,32.439
	c3.181,2.142,7.435,1.733,10.148-0.98l13.206-13.206c0.204-0.203,0.529-0.238,0.674-0.13c18.438,13.799,34.784,30.146,48.583,48.583
	c0.108,0.144,0.075,0.47-0.129,0.676l-13.205,13.205c-2.713,2.713-3.123,6.966-0.98,10.147c16.03,23.798,26.945,50.16,32.439,78.354
	c0.734,3.766,4.032,6.483,7.868,6.483h18.713c0.292,0,0.539,0.2,0.564,0.378v-0.001c1.665,11.49,2.51,23.051,2.51,34.364
	C495.967,267.313,495.123,278.874,493.457,290.361z"/>
<path d="M256.001,316.307c-4.427,0-8.059,3.632-8.059,8.059c0,4.427,3.632,8.059,8.059,8.059c4.427,0,8.059-3.632,8.059-8.059
	C264.06,319.939,260.428,316.307,256.001,316.307z"/>
<path d="M255.997,179.574c-27.994,0.002-50.769,22.779-50.769,50.772c0,4.427,3.589,8.017,8.017,8.017s8.017-3.589,8.017-8.017
	c0-19.154,15.583-34.738,34.737-34.739c9.039,0,17.697,3.679,24.379,10.362c6.683,6.683,10.363,15.342,10.362,24.38
	c-0.001,15.226-10.176,28.91-24.742,33.278c-10.775,3.231-18.014,12.886-18.014,24.023v2.554c0,4.427,3.589,8.017,8.017,8.017
	c4.427,0,8.017-3.589,8.017-8.017v-2.554c0-4.002,2.647-7.484,6.587-8.665c21.295-6.386,36.168-26.385,36.169-48.635
	c0.001-13.322-5.347-26.007-15.059-35.718C282.002,184.922,269.318,179.573,255.997,179.574z"/>
<path d="M444.126,247.983h-9.274c-4.092-92.358-78.477-166.744-170.835-170.835v-9.274c0-4.427-3.589-8.017-8.017-8.017
	c-4.427,0-8.017,3.589-8.017,8.017v9.274c-92.358,4.091-166.743,78.477-170.835,170.835h-9.274c-4.427,0-8.017,3.589-8.017,8.017
	c0,4.427,3.589,8.017,8.017,8.017h9.274c4.092,92.358,78.477,166.744,170.835,170.835v9.274c0,4.427,3.589,8.017,8.017,8.017
	c4.427,0,8.017-3.589,8.017-8.017v-9.274c92.358-4.091,166.743-78.477,170.835-170.835h9.274c4.427,0,8.017-3.589,8.017-8.017
	C452.143,251.573,448.553,247.983,444.126,247.983z M256.001,419.006c-89.882,0-163.006-73.124-163.006-163.006
	S166.118,92.994,256.001,92.994S419.007,166.118,419.007,256S345.883,419.006,256.001,419.006z"/>
<g>
</g>
<g>
</g>
<g>
</g>
<g>
</g>
<g>
</g>
<g>
</g>
<g>
</g>
<g>
</g>
<g>
</g>
<g>
</g>
<g>
</g>
<g>
</g>
<g>
</g>
<g>
</g>
<g>
</g>
</svg>
