<?xml version="1.0" encoding="iso-8859-1"?>
<!-- Generator: Adobe Illustrator 19.0.0, SVG Export Plug-In . SVG Version: 6.00 Build 0)  -->
<svg version="1.1" id="Layer_1" xmlns="http://www.w3.org/2000/svg" xmlns:xlink="http://www.w3.org/1999/xlink" x="0px" y="0px"
	 viewBox="0 0 512 512" style="enable-background:new 0 0 512 512;" xml:space="preserve">
<path style="fill:#D7DEED;" d="M212.59,279.239c17.672-54.664,63.409-96.842,119.518-109.179c26.62-5.853,52.194-4.739,75.754,1.406
	c5.384,1.405,10.61-2.688,10.61-8.252v-14.102c0-4.722-3.829-8.551-8.551-8.551H42.221c-4.722,0-8.551,3.829-8.551,8.551v205.228
	c0,4.722,3.829,8.551,8.551,8.551h155.924c5.195,0,9.223-4.593,8.435-9.728C203,329.881,204.256,305.019,212.59,279.239z"/>
<path style="fill:#EFF2FA;" d="M418.472,46.498H33.67c-14.168,0-25.653,11.485-25.653,25.653v42.756h436.109V72.151
	C444.125,57.983,432.64,46.498,418.472,46.498z"/>
<path style="fill:#AFB9D2;" d="M367.165,234.623c-51.95,0-94.063,42.113-94.063,94.063s42.112,94.063,94.063,94.063
	s94.063-42.113,94.063-94.063S419.115,234.623,367.165,234.623z M367.165,388.544c-33.058,0-59.858-26.799-59.858-59.858
	s26.8-59.858,59.858-59.858s59.858,26.799,59.858,59.858S400.223,388.544,367.165,388.544z"/>
<path style="fill:#959CB3;" d="M367.165,200.419c-70.84,0-128.267,57.427-128.267,128.267s57.427,128.267,128.267,128.267
	s128.267-57.427,128.267-128.267S438.005,200.419,367.165,200.419z M367.165,422.748c-51.95,0-94.063-42.113-94.063-94.063
	s42.112-94.063,94.063-94.063s94.063,42.113,94.063,94.063S419.115,422.748,367.165,422.748z"/>
<path d="M213.244,380.527H33.67c-9.725,0-17.637-7.912-17.637-17.637V122.924h420.075v60.395c0,4.427,3.589,8.017,8.017,8.017
	c4.427,0,8.017-3.589,8.017-8.017V72.151c0-18.566-15.105-33.67-33.67-33.67H33.67C15.105,38.481,0,53.586,0,72.151V362.89
	c0,18.566,15.105,33.67,33.67,33.67h179.574c4.427,0,8.017-3.589,8.017-8.017S217.672,380.527,213.244,380.527z M33.67,54.515
	h384.802c9.725,0,17.637,7.912,17.637,17.637v34.739H16.033V72.151C16.033,62.427,23.945,54.515,33.67,54.515z"/>
<path d="M127.733,88.719h282.188c4.427,0,8.017-3.589,8.017-8.017c0-4.427-3.589-8.017-8.017-8.017H127.733
	c-4.427,0-8.017,3.589-8.017,8.017C119.716,85.13,123.305,88.719,127.733,88.719z"/>
<path d="M67.875,182.782h51.307c4.427,0,8.017-3.589,8.017-8.017s-3.589-8.017-8.017-8.017H67.875c-4.427,0-8.017,3.589-8.017,8.017
	S63.447,182.782,67.875,182.782z"/>
<path d="M213.244,200.953h-42.756c-4.427,0-8.017,3.589-8.017,8.017c0,4.427,3.589,8.017,8.017,8.017h42.756
	c4.427,0,8.017-3.589,8.017-8.017C221.261,204.542,217.672,200.953,213.244,200.953z"/>
<path d="M84.977,252.26H67.875c-4.427,0-8.017,3.589-8.017,8.017c0,4.427,3.589,8.017,8.017,8.017h17.102
	c4.427,0,8.017-3.589,8.017-8.017C92.994,255.849,89.404,252.26,84.977,252.26z"/>
<path d="M84.977,286.465H67.875c-4.427,0-8.017,3.589-8.017,8.017c0,4.427,3.589,8.017,8.017,8.017h17.102
	c4.427,0,8.017-3.589,8.017-8.017C92.994,290.054,89.404,286.465,84.977,286.465z"/>
<path d="M170.489,286.465h-51.307c-4.427,0-8.017,3.589-8.017,8.017c0,4.427,3.589,8.017,8.017,8.017h51.307
	c4.427,0,8.017-3.589,8.017-8.017C178.505,290.054,174.916,286.465,170.489,286.465z"/>
<path d="M170.489,320.669h-51.307c-4.427,0-8.017,3.589-8.017,8.017c0,4.427,3.589,8.017,8.017,8.017h51.307
	c4.427,0,8.017-3.589,8.017-8.017C178.505,324.258,174.916,320.669,170.489,320.669z"/>
<path d="M204.159,260.277c0-4.427-3.589-8.017-8.017-8.017h-76.96c-4.427,0-8.017,3.589-8.017,8.017
	c0,4.427,3.589,8.017,8.017,8.017h76.96C200.569,268.293,204.159,264.704,204.159,260.277z"/>
<path d="M84.977,320.669H67.875c-4.427,0-8.017,3.589-8.017,8.017c0,4.427,3.589,8.017,8.017,8.017h17.102
	c4.427,0,8.017-3.589,8.017-8.017C92.994,324.258,89.404,320.669,84.977,320.669z"/>
<path d="M272.568,174.765c0-4.427-3.589-8.017-8.017-8.017H153.386c-4.427,0-8.017,3.589-8.017,8.017s3.589,8.017,8.017,8.017
	h111.165C268.979,182.782,272.568,179.193,272.568,174.765z"/>
<path d="M144.301,208.97c0-4.427-3.589-8.017-8.017-8.017H67.875c-4.427,0-8.017,3.589-8.017,8.017c0,4.427,3.589,8.017,8.017,8.017
	h68.409C140.711,216.986,144.301,213.397,144.301,208.97z"/>
<path d="M503.983,336.703c4.427,0,8.017-3.589,8.017-8.017c0-4.427-3.589-8.017-8.017-8.017h-0.777
	c-0.386-6.621-1.239-13.119-2.541-19.455l0.73-0.196c4.277-1.146,6.814-5.542,5.669-9.819c-1.146-4.277-5.544-6.813-9.819-5.669
	l-0.741,0.199c-2.081-6.251-4.605-12.3-7.531-18.113l0.686-0.397c3.834-2.214,5.148-7.117,2.934-10.951
	c-2.214-3.835-7.117-5.149-10.951-2.934l-0.71,0.41c-3.614-5.467-7.609-10.659-11.951-15.54l0.595-0.595
	c3.131-3.131,3.131-8.207,0-11.338c-3.131-3.13-8.207-3.131-11.338,0l-0.595,0.595c-4.88-4.342-10.072-8.337-15.54-11.95l0.41-0.71
	c2.214-3.834,0.9-8.737-2.934-10.951c-3.834-2.215-8.737-0.9-10.951,2.934l-0.397,0.686c-5.814-2.927-11.864-5.45-18.113-7.531
	l0.199-0.741c1.146-4.277-1.393-8.672-5.669-9.819c-4.273-1.147-8.672,1.392-9.819,5.669l-0.196,0.73
	c-6.336-1.302-12.834-2.155-19.455-2.541v-0.777c0-4.427-3.589-8.017-8.017-8.017c-4.427,0-8.017,3.589-8.017,8.017v0.777
	c-6.621,0.386-13.119,1.239-19.455,2.541l-0.196-0.73c-1.146-4.277-5.54-6.811-9.819-5.669c-4.277,1.146-6.814,5.542-5.668,9.819
	l0.199,0.741c-6.251,2.081-12.3,4.605-18.113,7.531l-0.397-0.686c-2.214-3.834-7.117-5.148-10.951-2.934
	c-3.834,2.214-5.148,7.117-2.934,10.951l0.41,0.71c-5.467,3.614-10.659,7.609-15.54,11.951l-0.595-0.595
	c-3.131-3.131-8.207-3.131-11.337,0c-3.131,3.131-3.131,8.207,0,11.337l0.595,0.595c-4.342,4.88-8.337,10.072-11.951,15.54
	l-0.71-0.41c-3.834-2.215-8.737-0.9-10.951,2.934c-2.214,3.834-0.9,8.737,2.934,10.951l0.686,0.397
	c-2.927,5.814-5.45,11.864-7.531,18.113l-0.741-0.199c-4.27-1.14-8.672,1.392-9.819,5.669c-1.146,4.277,1.392,8.672,5.668,9.819
	l0.73,0.196c-1.302,6.336-2.155,12.834-2.541,19.455h-0.776c-4.427,0-8.017,3.589-8.017,8.017c0,4.427,3.589,8.017,8.017,8.017
	h0.777c0.386,6.621,1.239,13.119,2.541,19.455l-0.73,0.196c-4.277,1.146-6.814,5.542-5.669,9.819
	c0.96,3.582,4.199,5.944,7.739,5.944c0.687,0,1.385-0.089,2.08-0.275l0.741-0.199c2.081,6.251,4.605,12.3,7.531,18.113l-0.686,0.397
	c-3.834,2.214-5.148,7.117-2.934,10.951c1.485,2.572,4.179,4.009,6.95,4.009c1.36,0,2.739-0.346,4.001-1.075l0.71-0.41
	c3.614,5.467,7.609,10.659,11.95,15.54l-0.595,0.595c-3.131,3.131-3.13,8.207,0,11.338c1.566,1.565,3.617,2.347,5.668,2.347
	c2.051,0,4.103-0.782,5.669-2.348l0.595-0.595c4.88,4.342,10.072,8.337,15.54,11.95l-0.41,0.71c-2.214,3.834-0.9,8.737,2.934,10.951
	c1.262,0.729,2.641,1.075,4.001,1.075c2.771,0,5.465-1.439,6.95-4.009l0.397-0.686c5.814,2.927,11.864,5.45,18.113,7.531
	l-0.199,0.74c-1.146,4.277,1.392,8.673,5.668,9.819c0.695,0.186,1.393,0.275,2.08,0.275c3.539,0,6.779-2.362,7.739-5.944l0.196-0.73
	c6.336,1.302,12.834,2.155,19.455,2.541v0.777c0,4.427,3.589,8.017,8.017,8.017c4.427,0,8.017-3.589,8.017-8.017v-0.777
	c6.621-0.386,13.119-1.238,19.455-2.541l0.196,0.73c0.96,3.582,4.199,5.944,7.739,5.944c0.687,0,1.385-0.089,2.08-0.275
	c4.277-1.146,6.814-5.542,5.668-9.819l-0.199-0.74c6.251-2.081,12.3-4.605,18.113-7.531l0.397,0.686
	c1.485,2.572,4.179,4.009,6.95,4.009c1.36,0,2.739-0.346,4.001-1.075c3.834-2.214,5.148-7.117,2.934-10.951l-0.41-0.71
	c5.467-3.614,10.66-7.609,15.54-11.951l0.595,0.595c1.565,1.565,3.617,2.348,5.668,2.348c2.051,0,4.103-0.782,5.668-2.348
	c3.131-3.131,3.131-8.207,0-11.337l-0.595-0.595c4.342-4.88,8.337-10.072,11.951-15.54l0.71,0.41
	c1.262,0.729,2.641,1.075,4.001,1.075c2.771,0,5.465-1.439,6.95-4.009c2.214-3.834,0.9-8.737-2.934-10.951l-0.686-0.397
	c2.927-5.814,5.45-11.864,7.531-18.113l0.74,0.199c0.695,0.186,1.393,0.275,2.08,0.275c3.539,0,6.779-2.362,7.739-5.944
	c1.146-4.277-1.392-8.673-5.668-9.819l-0.73-0.196c1.302-6.336,2.155-12.834,2.541-19.455h0.779V336.703z M367.165,448.936
	c-66.307,0-120.251-53.944-120.251-120.251s53.944-120.251,120.251-120.251s120.251,53.944,120.251,120.251
	S433.472,448.936,367.165,448.936z"/>
<path d="M367.165,226.607c-56.287,0-102.079,45.792-102.079,102.079s45.792,102.079,102.079,102.079s102.079-45.792,102.079-102.079
	S423.452,226.607,367.165,226.607z M367.165,414.732c-47.446,0-86.046-38.6-86.046-86.046s38.6-86.046,86.046-86.046
	s86.046,38.6,86.046,86.046S414.611,414.732,367.165,414.732z"/>
<path d="M367.165,260.811c-37.426,0-67.875,30.448-67.875,67.875s30.448,67.875,67.875,67.875s67.875-30.448,67.875-67.875
	S404.591,260.811,367.165,260.811z M367.165,380.527c-28.585,0-51.841-23.256-51.841-51.841c0-28.585,23.256-51.841,51.841-51.841
	c28.585,0,51.841,23.256,51.841,51.841C419.006,357.271,395.75,380.527,367.165,380.527z"/>
<circle cx="42.221" cy="80.703" r="8.017"/>
<circle cx="67.875" cy="80.703" r="8.017"/>
<circle cx="93.528" cy="80.703" r="8.017"/>
<g>
</g>
<g>
</g>
<g>
</g>
<g>
</g>
<g>
</g>
<g>
</g>
<g>
</g>
<g>
</g>
<g>
</g>
<g>
</g>
<g>
</g>
<g>
</g>
<g>
</g>
<g>
</g>
<g>
</g>
</svg>
