<?xml version="1.0" encoding="iso-8859-1"?>
<!-- Generator: Adobe Illustrator 19.0.0, SVG Export Plug-In . SVG Version: 6.00 Build 0)  -->
<svg version="1.1" id="Layer_1" xmlns="http://www.w3.org/2000/svg" xmlns:xlink="http://www.w3.org/1999/xlink" x="0px" y="0px"
	 viewBox="0 0 512 512" style="enable-background:new 0 0 512 512;" xml:space="preserve">
<path style="fill:#00D2FF;" d="M248.911,128.019c-44.186,3.559-78.903,42.041-78.416,86.367
	c0.712,64.876,61.855,117.394,80.297,131.771c3.073,2.395,7.341,2.396,10.413,0.002c18.547-14.458,80.306-67.51,80.306-132.914
	C341.511,163.675,299.335,123.957,248.911,128.019z"/>
<circle style="fill:#18BDF6;" cx="256" cy="213.244" r="59.858"/>
<g>
	<path style="fill:#5B5D6E;" d="M358.614,8.017H153.386c-14.168,0-25.653,11.485-25.653,25.653v42.756h256.534V33.67
		C384.267,19.502,372.782,8.017,358.614,8.017z"/>
	<path style="fill:#5B5D6E;" d="M153.386,503.983h205.228c14.168,0,25.653-11.485,25.653-25.653v-42.756H127.733v42.756
		C127.733,492.498,139.218,503.983,153.386,503.983z"/>
</g>
<path d="M358.614,0H153.386c-18.566,0-33.67,15.105-33.67,33.67v444.66c0,18.566,15.105,33.67,33.67,33.67h205.228
	c18.566,0,33.67-15.105,33.67-33.67V33.67C392.284,15.105,377.179,0,358.614,0z M135.749,84.443h240.501v343.115H135.749V84.443z
	 M153.386,16.033h205.228c9.725,0,17.637,7.912,17.637,17.637v34.739H135.749V33.67C135.749,23.945,143.661,16.033,153.386,16.033z
	 M358.614,495.967H153.386c-9.725,0-17.637-7.912-17.637-17.637v-34.739h240.501v34.739
	C376.251,488.055,368.339,495.967,358.614,495.967z"/>
<path d="M238.898,50.238h34.205c4.427,0,8.017-3.589,8.017-8.017s-3.589-8.017-8.017-8.017h-34.205
	c-4.427,0-8.017,3.589-8.017,8.017S234.47,50.238,238.898,50.238z"/>
<path d="M204.693,50.238c4.427,0,8.017-3.589,8.017-8.017s-3.589-8.017-8.017-8.017h-0.086c-4.427,0-7.974,3.589-7.974,8.017
	S200.266,50.238,204.693,50.238z"/>
<path d="M256,444.66c-13.851,0-25.119,11.268-25.119,25.119s11.268,25.119,25.119,25.119c13.851,0,25.119-11.268,25.119-25.119
	S269.851,444.66,256,444.66z M256,478.864c-5.01,0-9.086-4.076-9.086-9.086s4.076-9.086,9.086-9.086c5.01,0,9.086,4.076,9.086,9.086
	S261.01,478.864,256,478.864z"/>
<path d="M256,195.608c6.778,0,12.292-5.514,12.292-12.292s-5.514-12.292-12.292-12.292c-6.778,0-12.292,5.514-12.292,12.292
	S249.222,195.608,256,195.608z"/>
<path d="M264.551,229.812c4.427,0,8.017-3.589,8.017-8.017s-3.589-8.017-8.017-8.017h-17.102c-4.427,0-8.017,3.589-8.017,8.017
	s3.589,8.017,8.017,8.017h0.534v43.825h-0.534c-4.427,0-8.017,3.589-8.017,8.017c0,4.427,3.589,8.017,8.017,8.017h17.102
	c4.427,0,8.017-3.589,8.017-8.017c0-4.427-3.589-8.017-8.017-8.017h-0.534v-43.825H264.551z"/>
<path d="M319.409,144.492c-19.408-17.907-44.672-26.596-71.141-24.464c-23.384,1.883-45.138,12.717-61.257,30.503
	c-16.077,17.743-24.789,40.45-24.532,63.941c0.749,68.324,64.013,122.905,83.385,138.006c2.984,2.327,6.561,3.49,10.136,3.49
	c3.575,0,7.151-1.162,10.133-3.488c19.564-15.249,83.395-70.359,83.395-139.236C349.528,187.212,338.55,162.153,319.409,144.492z
	 M256.277,339.835c-0.174,0.136-0.382,0.135-0.557-0.001c-9.707-7.568-28.508-23.541-45.367-45.507
	c-20.844-27.159-31.558-54.086-31.843-80.03c-0.213-19.439,7.025-38.261,20.381-53c13.368-14.752,31.36-23.733,50.662-25.288
	c21.959-1.764,42.902,5.429,58.982,20.265c15.863,14.636,24.961,35.401,24.961,56.97c0,26.14-10.615,53.289-31.552,80.695
	C285.02,316.092,266.068,332.204,256.277,339.835z"/>
<path d="M281.653,367.699h-51.307c-4.427,0-8.017,3.589-8.017,8.017c0,4.427,3.589,8.017,8.017,8.017h51.307
	c4.427,0,8.017-3.589,8.017-8.017C289.67,371.289,286.081,367.699,281.653,367.699z"/>
<g>
</g>
<g>
</g>
<g>
</g>
<g>
</g>
<g>
</g>
<g>
</g>
<g>
</g>
<g>
</g>
<g>
</g>
<g>
</g>
<g>
</g>
<g>
</g>
<g>
</g>
<g>
</g>
<g>
</g>
</svg>
