<?xml version="1.0" encoding="iso-8859-1"?>
<!-- Generator: Adobe Illustrator 19.0.0, SVG Export Plug-In . SVG Version: 6.00 Build 0)  -->
<svg version="1.1" id="Layer_1" xmlns="http://www.w3.org/2000/svg" xmlns:xlink="http://www.w3.org/1999/xlink" x="0px" y="0px"
	 viewBox="0 0 512 512" style="enable-background:new 0 0 512 512;" xml:space="preserve">
<path style="fill:#C3E678;" d="M332.96,179.04H179.04c-4.722,0-8.551-3.829-8.551-8.551v-51.307c0-4.722,3.829-8.551,8.551-8.551
	H332.96c4.722,0,8.551,3.829,8.551,8.551v51.307C341.511,175.211,337.683,179.04,332.96,179.04z"/>
<path style="fill:#EFF2FA;" d="M332.96,213.244H179.04c-4.722,0-8.551,3.829-8.551,8.551v51.307c0,4.722,3.829,8.551,8.551,8.551
	h8.551v34.205l34.205-34.205H332.96c4.722,0,8.551-3.829,8.551-8.551v-51.307C341.511,217.073,337.683,213.244,332.96,213.244z"/>
<path style="fill:#FFC36E;" d="M281.653,401.37H179.04c-4.722,0-8.551-3.829-8.551-8.551v-68.409c0-4.722,3.829-8.551,8.551-8.551
	h102.614c4.722,0,8.551,3.829,8.551,8.551v68.409C290.205,397.541,286.376,401.37,281.653,401.37z"/>
<path style="fill:#FFB464;" d="M179.04,401.37h102.614c2.26,0,4.284-0.915,5.813-2.347l-45.989-39.42
	c-6.404-5.49-15.855-5.49-22.259,0l-45.989,39.42C174.756,400.455,176.78,401.37,179.04,401.37z"/>
<path style="fill:#FFD782;" d="M281.653,315.858H179.04c-2.26,0-4.284,0.915-5.813,2.347l45.989,39.42
	c6.404,5.49,15.855,5.49,22.259,0l45.989-39.42C285.938,316.773,283.913,315.858,281.653,315.858z"/>
<g>
	<path style="fill:#D7DEED;" d="M367.165,8.017h-222.33c-14.168,0-25.653,11.485-25.653,25.653v42.756h273.637V33.67
		C392.818,19.502,381.333,8.017,367.165,8.017z"/>
	<path style="fill:#D7DEED;" d="M144.835,503.983h222.33c14.168,0,25.653-11.485,25.653-25.653v-42.756H119.182v42.756
		C119.182,492.498,130.667,503.983,144.835,503.983z"/>
</g>
<path d="M367.165,0h-222.33c-18.566,0-33.67,15.105-33.67,33.67v444.66c0,18.566,15.105,33.67,33.67,33.67h222.33
	c18.566,0,33.67-15.105,33.67-33.67V33.67C400.835,15.105,385.731,0,367.165,0z M127.198,84.443h257.603v343.115H127.198V84.443z
	 M144.835,16.033h222.33c9.725,0,17.637,7.912,17.637,17.637v34.739H127.198V33.67C127.198,23.945,135.11,16.033,144.835,16.033z
	 M367.165,495.967h-222.33c-9.725,0-17.637-7.912-17.637-17.637v-34.739h257.603v34.739
	C384.802,488.055,376.89,495.967,367.165,495.967z"/>
<path d="M230.347,50.238h51.307c4.427,0,8.017-3.589,8.017-8.017s-3.589-8.017-8.017-8.017h-51.307
	c-4.427,0-8.017,3.589-8.017,8.017S225.919,50.238,230.347,50.238z"/>
<path d="M196.227,50.238c4.427,0,8.017-3.589,8.017-8.017s-3.589-8.017-8.017-8.017h-0.086c-4.427,0-7.974,3.589-7.974,8.017
	S191.8,50.238,196.227,50.238z"/>
<path d="M170.489,50.238c4.427,0,8.017-3.589,8.017-8.017s-3.589-8.017-8.017-8.017h-0.086c-4.427,0-7.974,3.589-7.974,8.017
	S166.061,50.238,170.489,50.238z"/>
<path d="M307.307,239.432H204.693c-4.427,0-8.017,3.589-8.017,8.017s3.589,8.017,8.017,8.017h102.614
	c4.427,0,8.017-3.589,8.017-8.017S311.734,239.432,307.307,239.432z"/>
<path d="M332.96,102.614H179.04c-9.136,0-16.568,7.432-16.568,16.568v51.307c0,9.136,7.432,16.568,16.568,16.568H332.96
	c9.136,0,16.568-7.432,16.568-16.568v-51.307C349.528,110.046,342.096,102.614,332.96,102.614z M333.495,170.489
	c0,0.295-0.239,0.534-0.534,0.534H179.04c-0.295,0-0.534-0.239-0.534-0.534v-51.307c0-0.295,0.239-0.534,0.534-0.534H332.96
	c0.295,0,0.534,0.239,0.534,0.534V170.489z"/>
<path d="M307.307,136.818H204.693c-4.427,0-8.017,3.589-8.017,8.017c0,4.427,3.589,8.017,8.017,8.017h102.614
	c4.427,0,8.017-3.589,8.017-8.017C315.324,140.408,311.734,136.818,307.307,136.818z"/>
<path d="M332.96,205.228H179.04c-9.136,0-16.568,7.432-16.568,16.568v51.307c0,9.136,7.432,16.568,16.568,16.568h0.534v18.526
	c-9.711,1.77-17.102,10.274-17.102,20.489v59.858c0,11.493,9.351,20.843,20.843,20.843h94.063c11.493,0,20.843-9.351,20.843-20.843
	v-59.858c0-11.493-9.351-20.843-20.843-20.843h-70.434l18.171-18.171H332.96c9.136,0,16.568-7.432,16.568-16.568v-51.307
	C349.528,212.66,342.096,205.228,332.96,205.228z M208.052,358.614l-29.546,25.326v-50.653L208.052,358.614z M221.53,368.178
	c2.842,1.075,5.828,1.624,8.816,1.624c2.988,0,5.973-0.547,8.816-1.624l29.371,25.175H192.16L221.53,368.178z M252.64,358.614
	l29.547-25.326v50.652L252.64,358.614z M236.259,351.538c-3.426,2.937-8.399,2.936-11.825,0l-32.273-27.663h76.374L236.259,351.538z
	 M333.495,273.102c0,0.295-0.239,0.534-0.534,0.534H221.795c-2.126,0-4.165,0.844-5.668,2.348l-20.52,20.52v-14.851
	c0-4.427-3.589-8.017-8.017-8.017h-8.551c-0.295,0-0.534-0.239-0.534-0.534v-51.307c0-0.295,0.239-0.534,0.534-0.534H332.96
	c0.295,0,0.534,0.239,0.534,0.534V273.102z"/>
<path d="M264.551,453.211h-17.102c-9.136,0-16.568,7.432-16.568,16.568s7.432,16.568,16.568,16.568h17.102
	c9.136,0,16.568-7.432,16.568-16.568S273.687,453.211,264.551,453.211z"/>
<g>
</g>
<g>
</g>
<g>
</g>
<g>
</g>
<g>
</g>
<g>
</g>
<g>
</g>
<g>
</g>
<g>
</g>
<g>
</g>
<g>
</g>
<g>
</g>
<g>
</g>
<g>
</g>
<g>
</g>
</svg>
