<?xml version="1.0" encoding="iso-8859-1"?>
<!-- Generator: Adobe Illustrator 19.0.0, SVG Export Plug-In . SVG Version: 6.00 Build 0)  -->
<svg version="1.1" id="Layer_1" xmlns="http://www.w3.org/2000/svg" xmlns:xlink="http://www.w3.org/1999/xlink" x="0px" y="0px"
	 viewBox="0 0 512 512" style="enable-background:new 0 0 512 512;" xml:space="preserve">
<path style="fill:#5B5D6E;" d="M367.165,503.983h-222.33c-14.168,0-25.653-11.485-25.653-25.653V33.67
	c0-14.168,11.485-25.653,25.653-25.653h222.33c14.168,0,25.653,11.485,25.653,25.653v444.66
	C392.818,492.498,381.333,503.983,367.165,503.983z"/>
<rect x="119.182" y="76.426" style="fill:#FFD782;" width="273.637" height="359.148"/>
<path d="M367.165,0h-222.33c-18.566,0-33.67,15.105-33.67,33.67v444.66c0,18.566,15.105,33.67,33.67,33.67h222.33
	c18.566,0,33.67-15.105,33.67-33.67V33.67C400.835,15.105,385.731,0,367.165,0z M127.198,84.443h257.603v343.115H127.198V84.443z
	 M144.835,16.033h222.33c9.725,0,17.637,7.912,17.637,17.637v34.739H127.198V33.67C127.198,23.945,135.11,16.033,144.835,16.033z
	 M367.165,495.967h-222.33c-9.725,0-17.637-7.912-17.637-17.637v-34.739h257.603v34.739
	C384.802,488.055,376.89,495.967,367.165,495.967z"/>
<path d="M230.347,50.238h51.307c4.427,0,8.017-3.589,8.017-8.017s-3.589-8.017-8.017-8.017h-51.307
	c-4.427,0-8.017,3.589-8.017,8.017S225.919,50.238,230.347,50.238z"/>
<path d="M358.699,50.238c4.427,0,8.017-3.589,8.017-8.017s-3.589-8.017-8.017-8.017h-0.085c-4.427,0-7.974,3.589-7.974,8.017
	S354.272,50.238,358.699,50.238z"/>
<path d="M332.96,50.238c4.427,0,8.017-3.589,8.017-8.017s-3.589-8.017-8.017-8.017h-0.085c-4.427,0-7.974,3.589-7.974,8.017
	S328.533,50.238,332.96,50.238z"/>
<path d="M228.087,281.888c6.88,2.029,13.935,3.027,20.993,3.027c16.204,0,32.415-5.262,46.498-15.396
	c3.594-2.586,4.411-7.596,1.826-11.189c-2.586-3.595-7.597-4.41-11.189-1.826c-16.168,11.634-35.703,15.28-53.591,10.005
	c-16.298-4.807-29.591-16.365-37.428-32.547c-7.963-16.441-9.356-35.642-3.922-54.067c5.433-18.425,17.022-33.797,32.632-43.287
	c15.363-9.339,32.801-11.837,49.1-7.029c27.524,8.117,43.971,37.515,43.971,61.247c0,17.112-5.56,29.788-15.256,34.778
	c-6.589,3.391-13.132,2.34-16.696-0.205c-2.615-1.867-3.702-4.494-3.231-7.804l2.39-14.937c0.004-0.028,0.009-0.056,0.014-0.083
	l4.685-29.283c0.709-4.425-0.429-9.029-3.12-12.632c-2.701-3.617-6.635-5.926-11.076-6.502c-23.893-3.096-43.387,6.919-56.37,28.966
	c-7.603,12.913-9.682,26.286-5.854,37.656c2.931,8.706,9.296,15.619,17.464,18.968c8.334,3.416,18.873,2.218,28.918-3.291
	c3.367-1.847,6.509-4.065,9.358-6.569c1.701,3.307,4.226,6.219,7.504,8.56c9.183,6.561,22.275,7.117,33.352,1.415
	c15.223-7.834,23.954-25.706,23.954-49.034c0-34.359-23.847-67.3-55.469-76.626c-20.687-6.099-42.692-3.008-61.964,8.707
	c-19.025,11.565-33.118,30.193-39.683,52.452s-4.834,45.552,4.871,65.591C190.595,261.249,207.402,275.787,228.087,281.888z
	 M268.367,200.006c-1.605,8.744-8.364,17.526-17.237,22.391c-5.695,3.123-11.351,4.063-15.125,2.514
	c-3.919-1.607-6.884-4.891-8.351-9.248c-2.321-6.894-0.732-15.561,4.475-24.405c8.624-14.647,19.533-21.639,33.989-21.639
	c2.092,0,4.26,0.146,6.503,0.437c0.041,0.005,0.161,0.021,0.292,0.197c0.066,0.089,0.171,0.271,0.134,0.503L268.367,200.006z"/>
<path d="M264.551,453.211h-17.102c-9.136,0-16.568,7.432-16.568,16.568s7.432,16.568,16.568,16.568h17.102
	c9.136,0,16.568-7.432,16.568-16.568S273.687,453.211,264.551,453.211z"/>
<path d="M179.04,332.426h68.409c4.427,0,8.017-3.589,8.017-8.017c0-4.427-3.589-8.017-8.017-8.017H179.04
	c-4.427,0-8.017,3.589-8.017,8.017C171.023,328.837,174.612,332.426,179.04,332.426z"/>
<path d="M281.653,316.392c-4.427,0-8.017,3.589-8.017,8.017c0,4.427,3.589,8.017,8.017,8.017h51.307
	c4.427,0,8.017-3.589,8.017-8.017c0-4.427-3.589-8.017-8.017-8.017H281.653z"/>
<path d="M230.347,350.597H179.04c-4.427,0-8.017,3.589-8.017,8.017c0,4.427,3.589,8.017,8.017,8.017h51.307
	c4.427,0,8.017-3.589,8.017-8.017C238.363,354.186,234.774,350.597,230.347,350.597z"/>
<path d="M332.96,350.597h-68.409c-4.427,0-8.017,3.589-8.017,8.017c0,4.427,3.589,8.017,8.017,8.017h68.409
	c4.427,0,8.017-3.589,8.017-8.017C340.977,354.186,337.388,350.597,332.96,350.597z"/>
<path d="M213.244,384.802H179.04c-4.427,0-8.017,3.589-8.017,8.017c0,4.427,3.589,8.017,8.017,8.017h34.205
	c4.427,0,8.017-3.589,8.017-8.017C221.261,388.391,217.672,384.802,213.244,384.802z"/>
<path d="M281.653,384.802h-34.205c-4.427,0-8.017,3.589-8.017,8.017c0,4.427,3.589,8.017,8.017,8.017h34.205
	c4.427,0,8.017-3.589,8.017-8.017C289.67,388.391,286.081,384.802,281.653,384.802z"/>
<path d="M332.96,384.802h-17.102c-4.427,0-8.017,3.589-8.017,8.017c0,4.427,3.589,8.017,8.017,8.017h17.102
	c4.427,0,8.017-3.589,8.017-8.017C340.977,388.391,337.388,384.802,332.96,384.802z"/>
<g>
</g>
<g>
</g>
<g>
</g>
<g>
</g>
<g>
</g>
<g>
</g>
<g>
</g>
<g>
</g>
<g>
</g>
<g>
</g>
<g>
</g>
<g>
</g>
<g>
</g>
<g>
</g>
<g>
</g>
</svg>
