<?xml version="1.0" encoding="iso-8859-1"?>
<!-- Generator: Adobe Illustrator 19.0.0, SVG Export Plug-In . SVG Version: 6.00 Build 0)  -->
<svg version="1.1" id="Layer_1" xmlns="http://www.w3.org/2000/svg" xmlns:xlink="http://www.w3.org/1999/xlink" x="0px" y="0px"
	 viewBox="0 0 512 512" style="enable-background:new 0 0 512 512;" xml:space="preserve">
<circle style="fill:#C3E678;" cx="256" cy="256" r="247.983"/>
<path style="fill:#A5D76E;" d="M374.595,126.841l-151.998,30.32c-6.097,1.216-8.376,8.737-3.981,13.133l23.453,23.453
	l-88.293,88.287l76.18,76.191l88.297-88.293l23.447,23.447c4.396,4.396,11.918,2.116,13.135-3.981l30.319-151.997
	C386.409,131.123,380.875,125.589,374.595,126.841z"/>
<path style="fill:#FFFFFF;" d="M350.227,362.71l-67.588-38.914c-6.558-3.775-14.833-2.681-20.184,2.669l-13.313,13.313
	c-5.131,5.131-13.301,5.598-18.955,1.049c-10.438-8.398-20.87-17.745-31.07-27.943c-10.199-10.198-19.545-20.632-27.943-31.07
	c-4.549-5.653-4.083-13.824,1.049-18.955l13.313-13.313c5.351-5.351,6.445-13.626,2.669-20.184l-38.915-67.588
	c-5.495-9.543-18.551-11.27-26.338-3.484l-20.06,20.06c-26.142,26.142,4.322,98.991,68.044,162.713s136.571,94.186,162.713,68.044
	l20.06-20.06C361.498,381.259,359.77,368.204,350.227,362.71z"/>
<path d="M437.019,74.981C388.667,26.629,324.38,0,256,0S123.333,26.629,74.981,74.981C26.629,123.333,0,187.62,0,256
	s26.629,132.667,74.981,181.019C123.333,485.371,187.62,512,256,512s132.667-26.629,181.019-74.981
	C485.371,388.667,512,324.38,512,256S485.371,123.333,437.019,74.981z M425.683,425.683
	C380.358,471.006,320.097,495.967,256,495.967s-124.358-24.961-169.683-70.284C40.994,380.358,16.033,320.097,16.033,256
	S40.994,131.642,86.317,86.317C131.642,40.994,191.903,16.033,256,16.033s124.358,24.961,169.683,70.284
	c45.323,45.324,70.284,105.585,70.284,169.683S471.006,380.358,425.683,425.683z"/>
<path d="M373.027,118.98l-151.998,30.319c-5.726,1.142-10.335,5.323-12.028,10.911c-1.693,5.588-0.181,11.624,3.949,15.752
	l17.783,17.784l-34.277,34.275c-0.384-0.902-0.805-1.795-1.303-2.66l-38.915-67.588c-3.874-6.728-10.509-11.17-18.205-12.188
	c-7.693-1.018-15.257,1.547-20.747,7.037l-20.06,20.06c-15.095,15.095-15.594,42.094-1.405,76.025
	c13.245,31.673,37.908,66.486,69.448,98.025c31.539,31.54,66.352,56.203,98.025,69.448c16.414,6.864,31.205,10.29,43.813,10.29
	c13.453,0,24.42-3.903,32.212-11.696l20.06-20.06c5.489-5.489,8.054-13.05,7.037-20.747c-1.018-7.697-5.46-14.332-12.188-18.205
	l-67.588-38.915c-0.866-0.498-1.758-0.919-2.66-1.303l34.276-34.274l17.779,17.779c4.129,4.129,10.166,5.639,15.753,3.948
	c5.588-1.693,9.77-6.303,10.911-12.029l30.319-151.997c1.114-5.582-0.624-11.317-4.65-15.343
	C384.343,119.604,378.608,117.866,373.027,118.98z M346.227,369.658c2.37,1.365,3.935,3.702,4.294,6.413
	c0.358,2.711-0.545,5.374-2.479,7.308l-20.06,20.06c-10.044,10.044-31.368,9.297-58.503-2.05
	c-29.793-12.458-62.775-35.896-92.874-65.993s-53.534-63.081-65.993-92.874c-11.347-27.135-12.095-48.458-2.05-58.503l20.061-20.06
	c1.655-1.656,3.845-2.556,6.142-2.556c0.386,0,0.776,0.026,1.166,0.077c2.711,0.358,5.048,1.924,6.413,4.294l38.915,67.588
	c1.962,3.409,1.391,7.733-1.391,10.515l-13.313,13.313c-8.05,8.051-8.749,20.797-1.625,29.649
	c8.722,10.841,18.318,21.509,28.52,31.712c10.203,10.203,20.871,19.798,31.711,28.52c8.853,7.123,21.599,6.426,29.65-1.625
	l13.313-13.313c2.782-2.781,7.106-3.354,10.516-1.391L346.227,369.658z M377.295,135.835L347.06,287.401l-23.136-23.136
	c-3.131-3.131-8.207-3.131-11.337,0l-71.22,71.216c-2.018,0.806-4.371,0.533-6.154-0.902c-10.393-8.362-20.63-17.569-30.426-27.366
	s-19.004-20.033-27.367-30.426c-1.436-1.784-1.708-4.138-0.901-6.157l71.219-71.215c1.504-1.503,2.348-3.542,2.348-5.668
	s-0.844-4.165-2.348-5.668l-23.14-23.142l151.566-30.234c0.125-0.025,0.503-0.1,0.868,0.263
	C377.395,135.329,377.319,135.71,377.295,135.835z"/>
<g>
</g>
<g>
</g>
<g>
</g>
<g>
</g>
<g>
</g>
<g>
</g>
<g>
</g>
<g>
</g>
<g>
</g>
<g>
</g>
<g>
</g>
<g>
</g>
<g>
</g>
<g>
</g>
<g>
</g>
</svg>
