<?xml version="1.0" encoding="iso-8859-1"?>
<!-- Generator: Adobe Illustrator 19.0.0, SVG Export Plug-In . SVG Version: 6.00 Build 0)  -->
<svg version="1.1" id="Layer_1" xmlns="http://www.w3.org/2000/svg" xmlns:xlink="http://www.w3.org/1999/xlink" x="0px" y="0px"
	 viewBox="0 0 511.998 511.998" style="enable-background:new 0 0 511.998 511.998;" xml:space="preserve">
<path style="fill:#FF6464;" d="M256,93.527c-136.958,0-247.983,41.168-247.983,91.952v38.969c0,15.127,15.885,26.13,32.045,22.198
	l85.183-20.729c11.497-2.797,19.589-13.094,19.589-24.926v14.696c0,9.36-3.837,18.313-10.616,24.768l-13.554,12.909
	c-7.645,7.28-12.857,16.741-14.927,27.091l-20.76,103.811v17.102c0,9.445,7.658,17.102,17.102,17.102h307.841
	c9.445,0,17.102-7.658,17.102-17.102v-17.102l-20.757-103.799c-2.07-10.349-7.281-19.808-14.922-27.088l-13.567-12.925
	c-6.777-6.456-10.612-15.406-10.612-24.765V200.99c0,11.832,8.092,22.128,19.589,24.926l85.182,20.729
	c16.162,3.932,32.046-7.071,32.046-22.198v-38.969C503.983,134.696,392.957,93.527,256,93.527z"/>
<g>
	<path style="fill:#D2555A;" d="M144.835,179.686L8.017,213.483v10.965c0,15.126,15.886,26.13,32.047,22.198l85.184-20.728
		c11.496-2.797,19.589-13.094,19.589-24.927v-21.304H144.835z"/>
	<path style="fill:#D2555A;" d="M367.165,180.19v20.801c0,11.832,8.092,22.128,19.589,24.927l85.184,20.728
		c16.161,3.932,32.045-7.071,32.046-22.198v-10.964L367.165,180.19z"/>
	<path style="fill:#D2555A;" d="M409.921,418.471H102.079c-9.446,0-17.102-7.656-17.102-17.102v-17.102h342.046v17.102
		C427.023,410.814,419.366,418.471,409.921,418.471z"/>
</g>
<circle style="fill:#D7DEED;" cx="256" cy="264.55" r="85.511"/>
<circle style="fill:#FFFFFF;" cx="256" cy="264.55" r="51.307"/>
<path d="M434.138,112.943C386.43,95.252,323.166,85.51,256,85.51s-130.431,9.742-178.138,27.432C27.652,131.561,0,157.321,0,185.479
	v38.969c0,9.133,4.299,17.75,11.795,23.641c8.327,6.544,19.602,8.916,30.164,6.347l85.183-20.728
	c1.166-0.284,2.302-0.633,3.412-1.028c-0.585,0.687-1.206,1.347-1.863,1.973l-13.555,12.909
	c-8.885,8.461-14.852,19.292-17.259,31.325L77.116,382.697c-0.104,0.515-0.156,1.041-0.156,1.569v17.102
	c0,13.851,11.268,25.119,25.119,25.119h307.841c13.851,0,25.119-11.268,25.119-25.119v-17.102c0-0.528-0.052-1.054-0.156-1.572
	l-20.757-103.799c-2.405-12.028-8.372-22.858-17.254-31.321l-13.567-12.924c-0.657-0.626-1.279-1.287-1.864-1.974
	c1.111,0.397,2.248,0.746,3.415,1.03l85.183,20.729c2.804,0.682,5.657,1.015,8.492,1.015c7.847,0,15.556-2.557,21.672-7.363
	c7.495-5.891,11.794-14.507,11.794-23.641v-38.969C512,157.321,484.348,131.561,434.138,112.943z M83.437,127.975
	c45.968-17.045,107.252-26.432,172.563-26.432s126.595,9.387,172.563,26.432c42.836,15.884,67.403,36.843,67.403,57.503v17.803
	l-120.785-29.391v-5.917c0-12.341-9.121-23.029-21.216-24.86c-65.005-9.839-130.924-9.839-195.93,0
	c-12.096,1.831-21.216,12.518-21.216,24.859v5.436L16.033,203.245v-17.766C16.033,164.818,40.601,143.859,83.437,127.975z
	 M123.351,218.127l-85.183,20.728c-5.82,1.417-11.976,0.155-16.466-3.374c-3.656-2.872-5.668-6.791-5.668-11.034v-4.687
	l120.785-29.835v10.491v0.574C136.818,209.15,131.28,216.198,123.351,218.127z M409.921,410.454H102.079
	c-5.01,0-9.086-4.076-9.086-9.086v-9.086h326.013v9.086C419.006,406.378,414.931,410.454,409.921,410.454z M385.815,259.183
	c6.482,6.175,10.835,14.077,12.59,22.855l18.839,94.211H94.755l18.844-94.222c1.756-8.78,6.111-16.684,12.595-22.858l13.555-12.909
	c8.328-7.93,13.104-19.074,13.104-30.574V200.99v-0.574v-32.444c0-4.481,3.26-8.352,7.583-9.008
	c63.412-9.598,127.718-9.598,191.131,0c4.323,0.654,7.583,4.527,7.583,9.008v32.444v0.574v14.698c0,11.497,4.775,22.64,13.099,30.57
	L385.815,259.183z M490.298,235.48c-4.491,3.529-10.647,4.792-16.466,3.374l-85.183-20.728c-7.929-1.929-13.467-8.977-13.467-17.138
	v-0.573v-10.025l120.785,29.391v4.664C495.967,228.69,493.954,232.608,490.298,235.48z"/>
<path d="M353.901,308.819l-12.264-6.69c5.07-11.507,7.892-24.219,7.892-37.579c0-51.572-41.956-93.528-93.528-93.528
	s-93.528,41.956-93.528,93.528s41.956,93.528,93.528,93.528c32.494,0,61.167-16.661,77.937-41.886l12.287,6.702
	c1.22,0.666,2.534,0.98,3.831,0.98c2.839,0,5.589-1.511,7.045-4.179C359.221,315.809,357.789,310.939,353.901,308.819z M256,342.045
	c-42.731,0-77.495-34.764-77.495-77.495c0-42.731,34.764-77.495,77.495-77.495s77.495,34.764,77.495,77.495
	c0,10.581-2.138,20.671-5.994,29.869l-16.07-8.765c2.507-6.562,3.893-13.672,3.893-21.103c0-32.711-26.612-59.324-59.324-59.324
	s-59.324,26.611-59.324,59.323s26.612,59.324,59.324,59.324c19.555,0,36.924-9.515,47.738-24.154l16.056,8.757
	C305.801,328.736,282.429,342.045,256,342.045z M256,307.84c-23.871,0-43.29-19.42-43.29-43.29c0-23.871,19.42-43.29,43.29-43.29
	s43.29,19.42,43.29,43.29C299.29,288.421,279.871,307.84,256,307.84z"/>
<g>
</g>
<g>
</g>
<g>
</g>
<g>
</g>
<g>
</g>
<g>
</g>
<g>
</g>
<g>
</g>
<g>
</g>
<g>
</g>
<g>
</g>
<g>
</g>
<g>
</g>
<g>
</g>
<g>
</g>
</svg>
