<?xml version="1.0" encoding="iso-8859-1"?>
<!-- Generator: Adobe Illustrator 19.0.0, SVG Export Plug-In . SVG Version: 6.00 Build 0)  -->
<svg version="1.1" id="Layer_1" xmlns="http://www.w3.org/2000/svg" xmlns:xlink="http://www.w3.org/1999/xlink" x="0px" y="0px"
	 viewBox="0 0 512 512" style="enable-background:new 0 0 512 512;" xml:space="preserve">
<path style="fill:#FFC36E;" d="M477.166,247.153c-5.404-5.413-13.298-8.847-22.117-8.847c-8.819,0-16.712,3.434-22.117,8.847
	c-6.485-5.413-15.956-8.847-26.54-8.847c-10.584,0-20.055,3.434-26.54,8.847c-8.646-5.413-21.275-8.847-35.387-8.847
	c-14.112,0-26.74,3.434-35.387,8.847c-12.969-5.413-31.913-8.847-53.08-8.847s-40.111,3.434-53.08,8.847
	c-8.646-5.413-21.275-8.847-35.387-8.847c-14.112,0-26.74,3.434-35.387,8.847c-6.485-5.413-15.956-8.847-26.54-8.847
	s-20.055,3.434-26.54,8.847c-5.404-5.413-13.298-8.847-22.117-8.847s-16.712,3.434-22.117,8.847
	c0-122.147,99.019-221.166,221.166-221.166S477.166,125.007,477.166,247.153z"/>
<path style="fill:#FFB464;" d="M256,25.987c-68.401,0-123.853,99.019-123.853,221.166c8.645-5.413,21.275-8.847,35.387-8.847
	c14.112,0,26.741,3.434,35.387,8.847C202.92,125.007,226.684,25.987,256,25.987z"/>
<path style="fill:#FFD782;" d="M256,25.987c68.401,0,123.853,99.019,123.853,221.166c-8.645-5.413-21.275-8.847-35.387-8.847
	c-14.112,0-26.741,3.434-35.387,8.847C309.08,125.007,285.316,25.987,256,25.987z"/>
<path style="fill:#FFB464;" d="M256,25.987c-122.147,0-221.166,99.019-221.166,221.166c5.404-5.413,13.297-8.847,22.117-8.847
	s16.712,3.434,22.117,8.847C79.067,125.007,158.283,25.987,256,25.987z"/>
<path style="fill:#FFD782;" d="M477.166,247.153c0-122.147-99.019-221.166-221.166-221.166c97.717,0,176.933,99.019,176.933,221.166
	c5.404-5.413,13.297-8.847,22.117-8.847C463.87,238.307,471.762,241.74,477.166,247.153z"/>
<path d="M264.294,17.859V8.294C264.294,3.713,260.58,0,256,0s-8.294,3.713-8.294,8.294v9.565
	C125.01,22.243,26.54,123.406,26.54,247.153c0,3.356,2.023,6.381,5.123,7.663c3.101,1.283,6.668,0.572,9.04-1.804
	c4.068-4.075,9.99-6.413,16.247-6.413s12.179,2.338,16.247,6.413c3.034,3.04,7.887,3.259,11.184,0.508
	c5.268-4.398,13.005-6.92,21.225-6.92s15.957,2.522,21.225,6.919c2.755,2.3,6.676,2.567,9.716,0.663
	c7.697-4.819,18.99-7.583,30.985-7.583s23.289,2.763,30.985,7.583c2.281,1.429,5.113,1.661,7.596,0.624
	c10.679-4.458,25.516-7.283,41.591-8.012v230.371c0,19.207,15.627,34.834,34.834,34.834c19.207,0,34.834-15.627,34.834-34.834
	v-17.693c0-4.58-3.713-8.294-8.294-8.294s-8.294,3.713-8.294,8.294v17.693c0,10.061-8.185,18.246-18.246,18.246
	s-18.246-8.185-18.246-18.246V246.795c16.075,0.73,30.912,3.555,41.591,8.012c2.483,1.036,5.315,0.805,7.596-0.624
	c7.697-4.819,18.99-7.583,30.985-7.583s23.289,2.763,30.985,7.583c3.041,1.903,6.961,1.637,9.716-0.663
	c5.268-4.398,13.005-6.919,21.225-6.919c8.221,0,15.957,2.522,21.225,6.92c3.298,2.752,8.15,2.533,11.184-0.508
	c4.068-4.075,9.99-6.413,16.247-6.413c6.257,0,12.179,2.338,16.247,6.413c1.587,1.59,3.71,2.434,5.871,2.434
	c1.067,0,2.144-0.206,3.169-0.63c3.101-1.283,5.123-4.308,5.123-7.663C485.46,123.406,386.99,22.243,264.294,17.859z M256,230.013
	c-16.394,0-31.835,1.941-44.735,5.541c0.556-54.312,5.924-104.961,15.263-143.483c11.04-45.535,23.682-57.744,29.441-57.789
	c0.011,0,0.022,0.001,0.033,0.001c0.011,0,0.022-0.001,0.033-0.001c5.758,0.044,18.401,12.253,29.441,57.789
	c9.339,38.522,14.706,89.171,15.263,143.483C287.835,231.954,272.394,230.013,256,230.013z M43.645,232.223
	C48.322,165.1,84.259,106.45,136.956,70.768c-4.316,4.455-8.497,9.162-12.518,14.137c-32.224,39.876-50.958,91.902-53.386,147.621
	c-4.444-1.63-9.225-2.512-14.102-2.512C52.366,230.013,47.86,230.778,43.645,232.223z M87.634,233.065
	c3.504-78.384,41.464-145.464,95.229-177.924c-7.76,8.842-15.022,19.157-21.66,30.893c-22.508,39.791-35.564,91.682-37.177,147.187
	c-5.719-2.077-12.003-3.208-18.419-3.208C99.357,230.013,93.236,231.091,87.634,233.065z M140.591,234.164
	c1.472-53.014,13.785-102.37,35.05-139.963c14.646-25.891,32.292-43.973,51.356-53.097c-6.231,11.495-11.774,27.187-16.591,47.059
	c-9.56,39.434-15.084,90.961-15.718,146.077c-8.148-2.757-17.421-4.228-27.155-4.228
	C157.886,230.013,148.687,231.455,140.591,234.164z M317.312,234.241c-0.634-55.116-6.158-106.643-15.718-146.077
	c-4.817-19.872-10.361-35.564-16.591-47.059c19.063,9.123,36.711,27.206,51.356,53.097c21.265,37.593,33.579,86.95,35.05,139.963
	c-8.096-2.709-17.295-4.151-26.942-4.151C334.733,230.013,325.46,231.484,317.312,234.241z M387.973,233.222
	c-1.615-55.505-14.669-107.396-37.177-147.187c-6.637-11.734-13.9-22.05-21.66-30.893c53.764,32.459,91.724,99.54,95.229,177.924
	c-5.601-1.975-11.723-3.052-17.973-3.052C399.977,230.013,393.694,231.144,387.973,233.222z M455.05,230.013
	c-4.877,0-9.657,0.882-14.102,2.512c-2.428-55.718-21.163-107.744-53.386-147.621c-4.021-4.975-8.202-9.682-12.518-14.137
	c52.697,35.682,88.635,94.332,93.311,161.456C464.14,230.778,459.634,230.013,455.05,230.013z"/>
<g>
</g>
<g>
</g>
<g>
</g>
<g>
</g>
<g>
</g>
<g>
</g>
<g>
</g>
<g>
</g>
<g>
</g>
<g>
</g>
<g>
</g>
<g>
</g>
<g>
</g>
<g>
</g>
<g>
</g>
</svg>
