<?xml version="1.0" encoding="iso-8859-1"?>
<!-- Generator: Adobe Illustrator 19.0.0, SVG Export Plug-In . SVG Version: 6.00 Build 0)  -->
<svg version="1.1" id="Layer_1" xmlns="http://www.w3.org/2000/svg" xmlns:xlink="http://www.w3.org/1999/xlink" x="0px" y="0px"
	 viewBox="0 0 512.001 512.001" style="enable-background:new 0 0 512.001 512.001;" xml:space="preserve">
<path style="fill:#FFC36E;" d="M453.284,84.244l-48.373-48.373c-6.678-6.678-17.507-6.678-24.186,0L83.51,333.086L8.415,480.357
	c-0.125,0.246,0.137,0.508,0.383,0.383l147.271-75.095l297.215-297.215C459.963,101.751,459.963,90.922,453.284,84.244z"/>
<path style="fill:#FFE69B;" d="M453.284,84.244l-24.186-24.186L8.467,480.688c0.081,0.08,0.207,0.114,0.33,0.052l147.271-75.095
	l297.215-297.215C459.963,101.751,459.963,90.922,453.284,84.244z"/>
<polyline style="fill:#FFD782;" points="134.691,384.267 443.999,74.959 414.196,45.155 104.888,354.464 "/>
<path style="fill:#FFF0CD;" d="M156.069,405.645L83.51,333.086L8.415,480.357c-0.125,0.246,0.137,0.508,0.383,0.383L156.069,405.645
	z"/>
<path style="fill:#464655;" d="M48.538,401.669L8.415,480.357c-0.125,0.246,0.137,0.509,0.382,0.383l78.689-40.124L48.538,401.669z"
	/>
<path d="M503.983,473.122H41.386l118.323-60.335c0.749-0.382,1.433-0.879,2.027-1.473l297.215-297.215
	c4.744-4.744,7.357-11.052,7.357-17.762c0-6.709-2.613-13.018-7.357-17.762L410.58,30.202c-4.744-4.744-11.052-7.357-17.762-7.357
	c-6.709,0-13.018,2.613-17.762,7.357L77.841,327.418c-0.594,0.594-1.091,1.278-1.473,2.027L0.875,477.497
	c-1.578,3.094-0.983,6.854,1.473,9.31c1.54,1.54,3.591,2.348,5.672,2.348c0.192,0,495.964,0,495.964,0
	c4.427,0,8.017-3.589,8.017-8.017C512.001,476.711,508.41,473.122,503.983,473.122z M447.615,102.761L156.069,394.308
	l-10.041-10.041L443.999,86.296l3.616,3.616l0,0c1.716,1.716,2.662,3.997,2.662,6.424
	C450.276,98.763,449.331,101.044,447.615,102.761z M432.662,74.959L134.691,372.93l-18.466-18.466L414.196,56.493L432.662,74.959z
	 M386.393,41.539c1.716-1.716,3.998-2.662,6.425-2.662c2.427,0,4.708,0.945,6.424,2.662l3.616,3.616l-297.97,297.971l-10.041-10.041
	L386.393,41.539z M85.64,346.554l56.96,56.959L90.226,430.22l-31.292-31.292L85.64,346.554z M51.278,413.945l23.931,23.933
	l-48.831,24.9L51.278,413.945z"/>
<path d="M136.818,446.934c0,4.427,3.589,8.017,8.017,8.017h333.495c4.427,0,8.017-3.589,8.017-8.017
	c0-4.427-3.589-8.017-8.017-8.017H144.835C140.407,438.917,136.818,442.506,136.818,446.934z"/>
<path d="M188.125,412.729c0,4.427,3.589,8.017,8.017,8.017h256.534c4.427,0,8.017-3.589,8.017-8.017
	c0-4.427-3.589-8.017-8.017-8.017H196.141C191.714,404.713,188.125,408.301,188.125,412.729z"/>
<path d="M427.023,386.542c4.427,0,8.017-3.589,8.017-8.017c0-4.427-3.589-8.017-8.017-8.017H230.346
	c-4.427,0-8.017,3.589-8.017,8.017c0,4.427,3.589,8.017,8.017,8.017H427.023z"/>
<g>
</g>
<g>
</g>
<g>
</g>
<g>
</g>
<g>
</g>
<g>
</g>
<g>
</g>
<g>
</g>
<g>
</g>
<g>
</g>
<g>
</g>
<g>
</g>
<g>
</g>
<g>
</g>
<g>
</g>
</svg>
