<?xml version="1.0" encoding="iso-8859-1"?>
<!-- Generator: Adobe Illustrator 19.0.0, SVG Export Plug-In . SVG Version: 6.00 Build 0)  -->
<svg version="1.1" id="Capa_1" xmlns="http://www.w3.org/2000/svg" xmlns:xlink="http://www.w3.org/1999/xlink" x="0px" y="0px"
	 viewBox="0 0 512 512" style="enable-background:new 0 0 512 512;" xml:space="preserve">
<path style="fill:#303C42;" d="M300.979,375.438l37.229-37.229c3.75-3.75,4.167-9.698,1-13.938l-59.479-79.302l38.479-57.719
	c1.667-2.5,2.208-5.583,1.479-8.5l-21.333-85.333c-1.188-4.75-5.458-8.083-10.354-8.083h-38.25l-39.542-39.542
	c-2-2-4.708-3.125-7.542-3.125h-160C19.146,42.667,0,61.802,0,85.333v341.333c0,23.531,19.146,42.667,42.667,42.667h288
	c3.688,0,7.125-1.917,9.083-5.063c1.938-3.146,2.104-7.073,0.458-10.375L300.979,375.438z"/>
<path style="fill:#00AAE7;" d="M42.667,448c-11.771,0-21.333-9.573-21.333-21.333V85.333C21.333,73.573,30.896,64,42.667,64H198.25
	l39.542,39.542c2,2,4.708,3.125,7.542,3.125h34.333l18.167,72.677l-40.042,60.073c-2.5,3.76-2.375,8.698,0.333,12.313l58.458,77.938
	l-36.125,36.125c-3.25,3.25-4.063,8.208-2,12.313L313.417,448H42.667z"/>
<path style="fill:#303C42;" d="M469.333,85.333H352c-3.292,0-6.396,1.51-8.417,4.104c-2.021,2.583-2.729,5.958-1.938,9.146
	l20.188,80.76l-40.042,60.073c-2.5,3.76-2.375,8.698,0.333,12.313l58.458,77.938l-36.125,36.125c-3.25,3.25-4.063,8.208-2,12.313
	l42.667,85.333c1.813,3.615,5.5,5.896,9.542,5.896h74.667c23.521,0,42.667-19.135,42.667-42.667V128
	C512,104.469,492.854,85.333,469.333,85.333z"/>
<path style="fill:#00AAE7;" d="M490.667,426.667c0,11.76-9.563,21.333-21.333,21.333H401.25l-36.271-72.563l37.229-37.229
	c3.75-3.75,4.167-9.698,1-13.938l-59.479-79.302l38.479-57.719c1.667-2.5,2.208-5.583,1.479-8.5l-18.021-72.083h103.667
	c11.771,0,21.333,9.573,21.333,21.333V426.667z"/>
<path style="opacity:0.1;enable-background:new    ;" d="M21.333,416v10.667c0,11.76,9.563,21.333,21.333,21.333h270.75l-16.005-32
	H21.333z"/>
<path style="opacity:0.1;enable-background:new    ;" d="M469.333,106.667h-13.063v288c0,11.76-9.563,21.333-21.333,21.333h-49.682
	l15.995,32h68.083c11.771,0,21.333-9.573,21.333-21.333V128C490.667,116.24,481.104,106.667,469.333,106.667z"/>
<linearGradient id="SVGID_1_" gradientUnits="userSpaceOnUse" x1="-48.1768" y1="639.7673" x2="-21.9955" y2="627.5587" gradientTransform="matrix(21.3333 0 0 -21.3333 996.3334 13791.667)">
	<stop  offset="0" style="stop-color:#FFFFFF;stop-opacity:0.2"/>
	<stop  offset="1" style="stop-color:#FFFFFF;stop-opacity:0"/>
</linearGradient>
<path style="fill:url(#SVGID_1_);" d="M300.979,375.438l37.229-37.229c3.75-3.75,4.167-9.698,1-13.938l-59.479-79.302l38.479-57.719
	c1.667-2.5,2.208-5.583,1.479-8.5l-21.333-85.333c-1.188-4.75-5.458-8.083-10.354-8.083h-38.25l-39.542-39.542
	c-2-2-4.708-3.125-7.542-3.125h-160C19.146,42.667,0,61.802,0,85.333v341.333c0,23.531,19.146,42.667,42.667,42.667h288
	c3.688,0,7.125-1.917,9.083-5.063c1.938-3.146,2.104-7.073,0.458-10.375L300.979,375.438z M469.333,85.333H352
	c-3.292,0-6.396,1.51-8.417,4.104c-2.021,2.583-2.729,5.958-1.938,9.146l20.188,80.76l-40.042,60.073
	c-2.5,3.76-2.375,8.698,0.333,12.313l58.458,77.938l-36.125,36.125c-3.25,3.25-4.063,8.208-2,12.313l42.667,85.333
	c1.813,3.615,5.5,5.896,9.542,5.896h74.667c23.521,0,42.667-19.135,42.667-42.667V128C512,104.469,492.854,85.333,469.333,85.333z"
	/>
<g>
</g>
<g>
</g>
<g>
</g>
<g>
</g>
<g>
</g>
<g>
</g>
<g>
</g>
<g>
</g>
<g>
</g>
<g>
</g>
<g>
</g>
<g>
</g>
<g>
</g>
<g>
</g>
<g>
</g>
</svg>
