<?xml version="1.0" encoding="iso-8859-1"?>
<!-- Generator: Adobe Illustrator 19.0.0, SVG Export Plug-In . SVG Version: 6.00 Build 0)  -->
<svg version="1.1" id="Capa_1" xmlns="http://www.w3.org/2000/svg" xmlns:xlink="http://www.w3.org/1999/xlink" x="0px" y="0px"
	 viewBox="0 0 511.996 511.996" style="enable-background:new 0 0 511.996 511.996;" xml:space="preserve">
<path style="fill:#303C42;" d="M446.206,68.746c-26.583-39.885-79.833-60.979-101.5-68.198c-3.813-1.281-8.042-0.271-10.917,2.573
	c-6.979,6.979-54.958,18.208-77.792,18.208S185.185,10.1,178.206,3.121c-2.854-2.844-7.042-3.854-10.917-2.573
	c-21.667,7.219-74.917,28.313-101.5,68.198C43.81,101.704,23.706,219.579,21.477,232.912c-0.771,4.615,1.563,9.198,5.75,11.292
	c0.958,0.479,23.979,11.792,58.104,11.792c7.168,0,14.28-0.677,21.333-1.661v225.661c0,3.573,1.792,6.906,4.75,8.875
	c1.479,0.979,15.375,9.719,51.708,16.156c5.479,1.031,10.625-2.333,12.104-7.563l16.354-57.208
	c1.063-3.719,0.042-7.729-2.708-10.469l-13.792-13.792l13.792-13.792c1.167-1.167,2.063-2.594,2.583-4.167l14.438-43.313
	l24.646,36.979l-23.125,15.417c-2.833,1.885-4.583,5.01-4.75,8.417c-0.146,3.396,1.354,6.667,4,8.792l46.604,37.271l-17.417,34.823
	c-1.646,3.281-1.479,7.177,0.417,10.313c1.917,3.135,5.292,5.073,8.958,5.125l10.771,0.135c108.646,0,143.167-22.177,144.583-23.125
	c2.958-1.979,4.75-5.313,4.75-8.875V254.334c7.053,0.984,14.165,1.661,21.333,1.661c34.125,0,57.146-11.313,58.104-11.792
	c4.188-2.094,6.521-6.677,5.75-11.292C488.289,219.579,468.185,101.704,446.206,68.746z"/>
<path style="fill:#1E88E5;" d="M317.345,32.436c-13.655,17.568-34.742,31.56-61.348,31.56s-47.691-13.992-61.346-31.56
	c22.116,6.277,48.82,10.227,61.346,10.227S295.23,38.713,317.345,32.436z"/>
<path style="opacity:0.2;enable-background:new    ;" d="M317.345,32.436c-13.655,17.568-34.742,31.56-61.348,31.56
	s-47.691-13.992-61.346-31.56c22.116,6.277,48.82,10.227,61.346,10.227S295.23,38.713,317.345,32.436z"/>
<path style="fill:#1E88E5;" d="M426.664,234.662c-7.181,0-14.303-0.773-21.333-1.922v-51.411c0-35.198,7.625-45.802,7.563-45.802
	c0,0-0.021,0-0.021,0.01c4.167-4.167,4.167-10.917,0-15.083c-4.167-4.167-10.917-4.167-15.083,0
	c-2.313,2.302-13.792,16.063-13.792,60.875v292.083c-11.854,5.073-46.833,16.573-121.396,17.219l13.604-27.198
	c2.25-4.5,1.042-9.958-2.875-13.104l-41.937-33.552l19.854-13.24c4.896-3.271,6.229-9.885,2.958-14.792l-42.667-64
	c-2.271-3.385-6.146-5.271-10.292-4.656c-4.042,0.542-7.417,3.333-8.708,7.198l-20.542,61.615l-19.541,19.552
	c-4.167,4.167-4.167,10.917,0,15.083l16.896,16.896l-11.938,41.76c-14.979-3.188-24.354-6.583-29.417-8.76V181.329
	c0-44.812-11.479-58.573-13.792-60.875c-4.188-4.146-11.146-4.375-15.292-0.229c-4.167,4.167-4.375,10.688-0.208,14.854
	c0.083,0.104,7.958,10.458,7.958,46.25v51.411c-7.03,1.148-14.152,1.922-21.333,1.922c-18.458,0-33.146-3.885-41.354-6.708
	c7.063-40,24.292-124.479,39.563-147.375c20.064-30.085,60.197-48.438,81.204-56.427c14.374,31.096,46.823,61.177,91.254,61.177
	s76.88-30.081,91.254-61.177c21.008,7.99,61.141,26.342,81.204,56.427c15.271,22.906,32.521,107.427,39.563,147.406
	C459.894,230.798,445.31,234.662,426.664,234.662z"/>
<linearGradient id="SVGID_1_" gradientUnits="userSpaceOnUse" x1="-45.4399" y1="639.4427" x2="-24.9087" y2="629.8701" gradientTransform="matrix(21.3333 0 0 -21.3333 996.3779 13791.6182)">
	<stop  offset="0" style="stop-color:#FFFFFF;stop-opacity:0.2"/>
	<stop  offset="1" style="stop-color:#FFFFFF;stop-opacity:0"/>
</linearGradient>
<path style="fill:url(#SVGID_1_);" d="M446.206,68.746c-26.583-39.885-79.833-60.979-101.5-68.198
	c-3.813-1.281-8.042-0.271-10.917,2.573c-6.979,6.979-54.958,18.208-77.792,18.208S185.185,10.1,178.206,3.121
	c-2.854-2.844-7.042-3.854-10.917-2.573c-21.667,7.219-74.917,28.313-101.5,68.198C43.81,101.704,23.706,219.579,21.477,232.912
	c-0.771,4.615,1.563,9.198,5.75,11.292c0.958,0.479,23.979,11.792,58.104,11.792c7.168,0,14.28-0.677,21.333-1.661v225.661
	c0,3.573,1.792,6.906,4.75,8.875c1.479,0.979,15.375,9.719,51.708,16.156c5.479,1.031,10.625-2.333,12.104-7.563l16.354-57.208
	c1.063-3.719,0.042-7.729-2.708-10.469l-13.792-13.792l13.792-13.792c1.167-1.167,2.063-2.594,2.583-4.167l14.438-43.313
	l24.646,36.979l-23.125,15.417c-2.833,1.885-4.583,5.01-4.75,8.417c-0.146,3.396,1.354,6.667,4,8.792l46.604,37.271l-17.417,34.823
	c-1.646,3.281-1.479,7.177,0.417,10.313c1.917,3.135,5.292,5.073,8.958,5.125l10.771,0.135c108.646,0,143.167-22.177,144.583-23.125
	c2.958-1.979,4.75-5.313,4.75-8.875V254.334c7.053,0.984,14.165,1.661,21.333,1.661c34.125,0,57.146-11.313,58.104-11.792
	c4.188-2.094,6.521-6.677,5.75-11.292C488.289,219.579,468.185,101.704,446.206,68.746z"/>
<g>
</g>
<g>
</g>
<g>
</g>
<g>
</g>
<g>
</g>
<g>
</g>
<g>
</g>
<g>
</g>
<g>
</g>
<g>
</g>
<g>
</g>
<g>
</g>
<g>
</g>
<g>
</g>
<g>
</g>
</svg>
