<?xml version="1.0" encoding="iso-8859-1"?>
<!-- Generator: Adobe Illustrator 19.0.0, SVG Export Plug-In . SVG Version: 6.00 Build 0)  -->
<svg version="1.1" id="Capa_1" xmlns="http://www.w3.org/2000/svg" xmlns:xlink="http://www.w3.org/1999/xlink" x="0px" y="0px"
	 viewBox="0 0 512 512" style="enable-background:new 0 0 512 512;" xml:space="preserve">
<path style="fill:#303C42;" d="M487.126,322.719c-2.979-2.667-7.188-3.417-10.896-2.031c-13.646,5.156-25.083,5.094-33.958-0.229
	c-9.104-5.479-14.208-15.865-15.208-23.729c-0.375-2.865-1.875-5.458-4.188-7.188c-2.313-1.719-5.229-2.438-8.083-1.99
	c-15.229,2.344-30.792-10.094-30.792-26.219c0-5.51,1.729-10.844,5-15.417c2.083-2.906,2.563-6.656,1.313-9.99
	c-0.583-1.5-1.021-3.052-1.917-6.177c-1-3.396-3.646-6.073-7.021-7.146c-11.188-3.521-18.708-13.688-18.708-25.271
	c0-11.563,7.5-21.719,18.667-25.26c3.042-0.969,5.5-3.24,6.667-6.208c1.188-2.969,0.979-6.302-0.562-9.104
	c-2.271-4.156-3.438-8.448-3.438-12.76c0-14.708,11.958-26.667,26.396-26.677c0.021,0,2.521,0.365,2.542,0.375
	c5.438,0.5,9.917-2.708,11.333-7.677c1.417-4.958-0.917-10.229-5.542-12.51c-16.438-8.083-35.292-12.177-56.063-12.177
	c-24.5,0-46.729,6.708-66.354,12.625c-10.081,3.04-19.703,5.857-28.469,7.423c2.749-24.344,12.788-41.449,22.24-56.361
	c2.563-4.063,5.021-7.948,7.188-11.729c2.917-5.125,1.125-11.635-3.979-14.552c-5.083-2.938-11.625-1.177-14.563,3.969
	c-2,3.521-4.292,7.125-6.667,10.896c-5.065,7.988-10.6,16.905-15.353,27.288C238.792,22.152,199.243,0,160.001,0
	c-5.896,0-10.667,4.771-10.667,10.667c0,32.148,8.479,57.747,25.59,77.13c-8.259-1.402-16.72-2.464-25.59-2.464
	c-82.542,0-128,60.615-128,170.667c0,115.948,80.896,256,181.333,256c18.875,0,28.563-3.677,36.354-6.646
	c5.521-2.094,9.875-3.75,16.583-4.031c7.5,0.281,11.854,1.938,17.375,4.031c7.792,2.969,17.479,6.646,36.354,6.646
	c87.729,0,158.729-92.063,181-178.677C491.314,329.469,490.085,325.375,487.126,322.719z"/>
<path style="fill:#69B342;" d="M244.668,103.75c-47.042-12.625-70.229-38.385-73.583-81.688
	C205.73,26.615,239.584,52.698,244.668,103.75z"/>
<path style="fill:#D32F2F;" d="M309.334,490.667c-14.958,0-21.667-2.552-28.771-5.25c-6.167-2.344-13.167-5-24.958-5.406
	c-11,0.406-18,3.063-24.167,5.406c-7.104,2.698-13.813,5.25-28.771,5.25c-86.167,0-160-129.031-160-234.667
	c0-68.125,18.5-149.333,106.667-149.333c21.354,0,41.104,5.958,60.188,11.719c16.396,4.938,31.896,9.615,46.479,9.615
	c14.583,0,30.083-4.677,46.479-9.615c19.083-5.76,38.833-11.719,60.188-11.719c5.729,0,11.25,0.365,16.583,1.073
	c-10.146,8.813-16.583,21.802-16.583,36.26c0,4.229,0.583,8.396,1.729,12.479c-14.146,8.542-23.063,23.844-23.063,40.854
	c0,18.313,10.333,34.635,26.375,42.688c-3.313,6.615-5.042,13.865-5.042,21.313c0,25.646,20.229,46.667,45.563,47.938
	c3.542,10.458,10.854,22.135,23.063,29.469c7.271,4.375,18.354,8.26,33.208,6.698C439.564,419.542,378.147,490.667,309.334,490.667z
	"/>
<path style="opacity:0.1;enable-background:new    ;" d="M431.293,338.74c-7.352-4.417-12.738-10.449-16.785-16.801
	c-29.65,62.255-83.539,115.395-143.007,115.395c-14.958,0-91.708,0-106.667,0c-31.184,0-60.686-17.046-85.724-43.62
	c29.715,55.306,74.625,96.953,123.557,96.953c14.958,0,21.667-2.552,28.771-5.25c6.167-2.344,13.167-5,24.167-5.406
	c11.792,0.406,18.792,3.063,24.958,5.406c7.104,2.698,13.813,5.25,28.771,5.25c68.813,0,130.229-71.125,155.167-145.229
	C449.647,347,438.564,343.115,431.293,338.74z"/>
<path style="fill:#FAFAFA;" d="M149.334,128c-13.146,0-53.125,0-73.229,50.021c-2.208,5.469,0.458,11.677,5.917,13.875
	c1.313,0.521,2.646,0.771,3.979,0.771c4.229,0,8.229-2.531,9.896-6.688c14.729-36.646,40.875-36.646,53.438-36.646
	c5.896,0,10.667-4.771,10.667-10.667S155.23,128,149.334,128z"/>
<path style="opacity:0.2;fill:#FFFFFF;enable-background:new    ;" d="M192.001,42.667c21.53,2.956,42.591,18.09,50.16,47.003
	c-9.426-41.674-39.823-63.5-71.077-67.607c3.354,43.302,26.542,69.063,73.583,81.688C210.999,94.309,194.402,75.047,192.001,42.667z
	"/>
<linearGradient id="SVGID_1_" gradientUnits="userSpaceOnUse" x1="-45.2302" y1="638.4134" x2="-24.4658" y2="628.7316" gradientTransform="matrix(21.3333 0 0 -21.3333 996.3333 13791.667)">
	<stop  offset="0" style="stop-color:#FFFFFF;stop-opacity:0.2"/>
	<stop  offset="1" style="stop-color:#FFFFFF;stop-opacity:0"/>
</linearGradient>
<path style="fill:url(#SVGID_1_);" d="M487.126,322.719c-2.979-2.667-7.188-3.417-10.896-2.031
	c-13.646,5.156-25.083,5.094-33.958-0.229c-9.104-5.479-14.208-15.865-15.208-23.729c-0.375-2.865-1.875-5.458-4.188-7.188
	c-2.313-1.719-5.229-2.438-8.083-1.99c-15.229,2.344-30.792-10.094-30.792-26.219c0-5.51,1.729-10.844,5-15.417
	c2.083-2.906,2.563-6.656,1.313-9.99c-0.583-1.5-1.021-3.052-1.917-6.177c-1-3.396-3.646-6.073-7.021-7.146
	c-11.188-3.521-18.708-13.688-18.708-25.271c0-11.563,7.5-21.719,18.667-25.26c3.042-0.969,5.5-3.24,6.667-6.208
	c1.188-2.969,0.979-6.302-0.562-9.104c-2.271-4.156-3.438-8.448-3.438-12.76c0-14.708,11.958-26.667,26.396-26.677
	c0.021,0,2.521,0.365,2.542,0.375c5.438,0.5,9.917-2.708,11.333-7.677c1.417-4.958-0.917-10.229-5.542-12.51
	c-16.438-8.083-35.292-12.177-56.063-12.177c-24.5,0-46.729,6.708-66.354,12.625c-10.081,3.04-19.703,5.857-28.469,7.423
	c2.749-24.344,12.788-41.449,22.24-56.361c2.563-4.063,5.021-7.948,7.188-11.729c2.917-5.125,1.125-11.635-3.979-14.552
	c-5.083-2.938-11.625-1.177-14.563,3.969c-2,3.521-4.292,7.125-6.667,10.896c-5.065,7.988-10.6,16.905-15.353,27.288
	C238.792,22.152,199.243,0,160.001,0c-5.896,0-10.667,4.771-10.667,10.667c0,32.148,8.479,57.747,25.59,77.13
	c-8.259-1.402-16.72-2.464-25.59-2.464c-82.542,0-128,60.615-128,170.667c0,115.948,80.896,256,181.333,256
	c18.875,0,28.563-3.677,36.354-6.646c5.521-2.094,9.875-3.75,16.583-4.031c7.5,0.281,11.854,1.938,17.375,4.031
	c7.792,2.969,17.479,6.646,36.354,6.646c87.729,0,158.729-92.063,181-178.677C491.314,329.469,490.085,325.375,487.126,322.719z"/>
<g>
</g>
<g>
</g>
<g>
</g>
<g>
</g>
<g>
</g>
<g>
</g>
<g>
</g>
<g>
</g>
<g>
</g>
<g>
</g>
<g>
</g>
<g>
</g>
<g>
</g>
<g>
</g>
<g>
</g>
</svg>
