<?xml version="1.0" encoding="iso-8859-1"?>
<!-- Generator: Adobe Illustrator 19.0.0, SVG Export Plug-In . SVG Version: 6.00 Build 0)  -->
<svg version="1.1" id="Capa_1" xmlns="http://www.w3.org/2000/svg" xmlns:xlink="http://www.w3.org/1999/xlink" x="0px" y="0px"
	 viewBox="0 0 469.333 469.333" style="enable-background:new 0 0 469.333 469.333;" xml:space="preserve">
<path style="fill:#303C42;" d="M469.333,238.219V117.333c0-2.833-1.125-5.542-3.125-7.542L359.542,3.125
	c-2-2-4.708-3.125-7.542-3.125H42.667C19.135,0,0,19.135,0,42.667v96c0,1.656,0.385,3.292,1.125,4.771l19.438,38.885L0.448,249.385
	C0.156,250.375,0,251.406,0,252.448v174.219c0,23.531,19.135,42.667,42.667,42.667h61.865c2.219,0,4.385-0.698,6.198-1.99
	l39.917-28.51l69.156,29.635c1.333,0.573,2.76,0.865,4.198,0.865c0.698,0,1.396-0.073,2.094-0.208l101.063-20.208l17.302,17.292
	c2,2,4.708,3.125,7.542,3.125h74.667c23.531,0,42.667-19.135,42.667-42.667v-32c0-1.656-0.385-3.292-1.125-4.771l-40.052-80.094
	l39.656-66.094C468.813,242.052,469.333,240.156,469.333,238.219z"/>
<path style="fill:#1E88E5;" d="M362.667,36.417l70.25,70.25H384c-11.76,0-21.333-9.573-21.333-21.333V36.417z"/>
<path style="fill:#00AAE7;" d="M448,426.667c0,11.76-9.573,21.333-21.333,21.333h-70.25l-6.008-6.008l15.633-5.211
	c5.583-1.854,8.604-7.896,6.74-13.49c-1.865-5.583-7.875-8.604-13.49-6.74L327.948,427l-102.792,20.563l-57.267-24.544
	c3.715-4.19,3.664-10.548-0.348-14.56c-4.167-4.167-10.917-4.167-15.083,0l-10.052,10.052L101.115,448H42.667
	c-11.76,0-21.333-9.573-21.333-21.333V384h420.073L448,397.188V426.667z"/>
<path style="fill:#FAFAFA;" d="M430.74,362.667H21.333v-38.25l96-96l67.125,67.125c4.167,4.167,10.917,4.167,15.083,0
	c4.167-4.167,4.167-10.917,0-15.083l-19.125-19.125L288,153.75l130.568,130.568l-11.714,19.526
	c-0.064,0.105-0.042,0.236-0.102,0.342c-0.081,0.143-0.22,0.228-0.294,0.376l-10.667,21.333c-2.635,5.271-0.5,11.677,4.771,14.313
	c1.531,0.76,3.156,1.125,4.76,1.125c3.917,0,7.677-2.156,9.552-5.896l1.125-2.25L430.74,362.667z"/>
<path style="fill:#00AAE7;" d="M429.88,265.464L295.542,131.125c-4.167-4.167-10.917-4.167-15.083,0L165.333,246.25l-40.458-40.458
	c-4.167-4.167-10.917-4.167-15.083,0L21.333,294.25v-40.24l20.62-68.729l20.922-41.844c2.635-5.271,0.5-11.677-4.771-14.313
	c-5.271-2.625-11.677-0.5-14.313,4.771L32,157.479l-10.667-21.333V42.667c0-11.76,9.573-21.333,21.333-21.333h298.667v64
	C341.333,108.865,360.469,128,384,128h64v107.26L429.88,265.464z"/>
<circle style="fill:#303C42;" cx="160" cy="117.333" r="53.333"/>
<circle style="fill:#FAFAFA;" cx="160" cy="117.333" r="32"/>
<path style="opacity:0.1;enable-background:new    ;" d="M181.076,93.444c0.069,0.858,0.258,1.681,0.258,2.556
	c0,17.646-14.354,32-32,32c-8.105,0-15.431-3.126-21.076-8.111c1.328,16.435,14.971,29.444,31.742,29.444c17.646,0,32-14.354,32-32
	C192,107.793,187.719,99.311,181.076,93.444z"/>
<path style="opacity:0.1;enable-background:new    ;" d="M384,91.583c-11.76,0-21.333-9.573-21.333-21.333v15.083
	c0,11.76,9.573,21.333,21.333,21.333h48.917l-15.083-15.083H384z"/>
<linearGradient id="SVGID_1_" gradientUnits="userSpaceOnUse" x1="-49.4596" y1="619.6639" x2="-45.0814" y2="615.2847" gradientTransform="matrix(21.3333 0 0 -21.3333 1430.1112 13315.2227)">
	<stop  offset="0" style="stop-color:#000000;stop-opacity:0.1"/>
	<stop  offset="1" style="stop-color:#000000;stop-opacity:0"/>
</linearGradient>
<path style="fill:url(#SVGID_1_);" d="M384,128c-11.418,0-21.747-4.566-29.411-11.893L448,209.518V128H384z"/>
<linearGradient id="SVGID_2_" gradientUnits="userSpaceOnUse" x1="-69.031" y1="618.317" x2="-43.7264" y2="606.5172" gradientTransform="matrix(21.3333 0 0 -21.3333 1430.1112 13315.2227)">
	<stop  offset="0" style="stop-color:#FFFFFF;stop-opacity:0.2"/>
	<stop  offset="1" style="stop-color:#FFFFFF;stop-opacity:0"/>
</linearGradient>
<path style="fill:url(#SVGID_2_);" d="M469.333,238.219V117.333c0-2.833-1.125-5.542-3.125-7.542L359.542,3.125
	c-2-2-4.708-3.125-7.542-3.125H42.667C19.135,0,0,19.135,0,42.667v96c0,1.656,0.385,3.292,1.125,4.771l19.438,38.885L0.448,249.385
	C0.156,250.375,0,251.406,0,252.448v174.219c0,23.531,19.135,42.667,42.667,42.667h61.865c2.219,0,4.385-0.698,6.198-1.99
	l39.917-28.51l69.156,29.635c1.333,0.573,2.76,0.865,4.198,0.865c0.698,0,1.396-0.073,2.094-0.208l101.063-20.208l17.302,17.292
	c2,2,4.708,3.125,7.542,3.125h74.667c23.531,0,42.667-19.135,42.667-42.667v-32c0-1.656-0.385-3.292-1.125-4.771l-40.052-80.094
	l39.656-66.094C468.813,242.052,469.333,240.156,469.333,238.219z"/>
<g>
</g>
<g>
</g>
<g>
</g>
<g>
</g>
<g>
</g>
<g>
</g>
<g>
</g>
<g>
</g>
<g>
</g>
<g>
</g>
<g>
</g>
<g>
</g>
<g>
</g>
<g>
</g>
<g>
</g>
</svg>
