<?xml version="1.0" encoding="iso-8859-1"?>
<!-- Generator: Adobe Illustrator 19.0.0, SVG Export Plug-In . SVG Version: 6.00 Build 0)  -->
<svg version="1.1" id="Capa_1" xmlns="http://www.w3.org/2000/svg" xmlns:xlink="http://www.w3.org/1999/xlink" x="0px" y="0px"
	 viewBox="0 0 512 512" style="enable-background:new 0 0 512 512;" xml:space="preserve">
<path style="fill:#303C42;" d="M469.333,92.19V74.665c0-4.896-3.333-9.156-8.083-10.344c-3.531-0.885-87.104-21.656-130.583-21.656
	c-35.126,0-63.104,13.198-74.702,19.642c-9.344-5.122-29.156-14.513-54.663-18.111c-2.125-0.323-4.323,0.063-6.26,1.021L160,62.738
	l-26.604-13.302c-2.021-1.01-4.333-1.344-6.531-0.979c-37.719,6.323-75.729,15.76-76.115,15.854
	c-4.75,1.188-8.083,5.458-8.083,10.354V92.19C13.017,97.575,0,105.243,0,117.332v341.333c0,2.979,1.25,5.823,3.437,7.844
	c2.188,2.031,5.125,3.031,8.094,2.792c1.156-0.094,116.542-9.521,194.219-17.771c9.198-0.958,18.292,2.073,25.281,8.469
	c2.906,2.531,7.073,5.833,10.469,7.177c4.885,1.875,11.177,2.156,14.5,2.156c3.354,0,9.698-0.281,14.563-2.188
	c3.333-1.302,7.51-4.615,10.615-7.333c6.771-6.229,15.823-9.229,25.063-8.281c77.698,8.25,193.073,17.677,194.229,17.771
	c2.979,0.24,5.906-0.76,8.094-2.792c2.188-2.021,3.438-4.865,3.438-7.844V117.332C512,105.243,498.983,97.575,469.333,92.19z"/>
<path style="fill:#FAFAFA;" d="M266.667,80.748c9.865-5.396,34.135-16.75,64-16.75c33.344,0,95.25,13.865,117.333,19.073v80.333
	l-38.667,30.927c-0.135,0.108-0.165,0.292-0.294,0.406c-0.18,0.158-0.409,0.214-0.581,0.385l-21.333,21.333
	c-4.167,4.167-4.167,10.917,0,15.083c2.083,2.083,4.813,3.125,7.542,3.125c2.729,0,5.458-1.042,7.542-3.125l16.674-16.674
	L448,224.571v80.344l-7.743,7.743l-4.048-8.098c-2.646-5.271-9.031-7.375-14.313-4.771c-5.271,2.635-7.406,9.042-4.771,14.313
	L448,380.925v21.552c-25.979-6.031-83.667-18.479-117.333-18.479c-26.802,0-49.563,7.74-64,14.271V80.748z"/>
<path style="opacity:0.1;enable-background:new    ;" d="M330.667,351.998c-26.802,0-49.563,7.74-64,14.271v32
	c14.438-6.531,37.198-14.271,64-14.271c33.667,0,91.354,12.448,117.333,18.479v-21.552l-5.393-11.673
	C414.784,362.921,362.292,351.998,330.667,351.998z"/>
<path style="fill:#FAFAFA;" d="M64,279.384l20.161-50.398l20.714-31.07c3.271-4.906,1.948-11.521-2.958-14.792
	c-4.927-3.271-11.542-1.958-14.792,2.958l-14.117,21.174L64,198.248V83.071c12.438-2.927,37.5-8.604,62.979-12.99l27.417,13.708
	l41.875,31.406c1.917,1.438,4.156,2.135,6.385,2.135c3.25,0,6.448-1.469,8.542-4.271c3.542-4.708,2.583-11.396-2.135-14.927
	l-28.857-21.642l21.346-10.671c20.208,3.365,36.188,10.885,43.781,14.979v317.469c-14.438-6.531-37.198-14.271-64-14.271
	c-33.667,0-91.354,12.448-117.333,18.479V279.384z"/>
<path style="opacity:0.1;enable-background:new    ;" d="M64,373.332v29.146c25.979-6.031,83.667-18.479,117.333-18.479
	c26.802,0,49.563,7.74,64,14.271v-29.146c-14.438-6.531-37.198-14.271-64-14.271C147.667,354.852,89.979,367.3,64,373.332z"/>
<path style="fill:#00AAE7;" d="M490.667,447.082c-31.208-2.604-119.167-10.073-182.177-16.76
	c-15.25-1.594-30.469,3.417-41.552,13.604c-1.458,1.271-3.792,3.115-4.146,3.354c-1.26,0.479-12.917,0.219-13.083,0.219
	c-0.771-0.417-2.99-2.125-4.448-3.396c-11.292-10.365-26.531-15.354-41.75-13.781c-63.01,6.688-150.969,14.156-182.177,16.76
	V120.352c2.302-1.286,8.23-3.836,21.333-6.471v88.784c0,2.833,1.125,5.542,3.125,7.542l16.354,16.365l-18.719,46.802
	c-0.5,1.26-0.76,2.604-0.76,3.958v138.667c0,3.281,1.51,6.385,4.104,8.406c1.896,1.479,4.208,2.26,6.563,2.26
	c0.865,0,1.729-0.104,2.583-0.323c0.844-0.208,84.563-21.01,125.417-21.01c38.698,0,68.469,19.365,68.771,19.552
	c3.281,2.156,7.479,2.365,10.938,0.5c0.207-0.111,0.725-0.411,0.875-0.51c0.292-0.198,29.76-19.542,68.75-19.542
	c40.854,0,124.573,20.802,125.417,21.01c0.854,0.219,1.719,0.323,2.583,0.323c2.354,0,4.667-0.781,6.563-2.26
	c2.594-2.021,4.104-5.125,4.104-8.406v-37.333c0-1.49-0.313-2.969-0.917-4.333l-18.365-41.302l16.156-16.156
	c2-2,3.125-4.708,3.125-7.542v-92.448c0-4.594-2.938-8.667-7.292-10.115l-24.063-8.021l27.354-21.885c2.531-2.031,4-5.094,4-8.333
	v-54.648c13.103,2.635,19.031,5.185,21.333,6.471V447.082z"/>
<path style="opacity:0.1;enable-background:new    ;" d="M266.938,433.687c-1.458,1.271-3.792,3.115-4.146,3.354
	c-1.26,0.479-12.917,0.219-13.083,0.219c-0.771-0.417-2.99-2.125-4.448-3.396c-11.292-10.365-26.531-15.354-41.75-13.781
	c-63.01,6.688-150.969,14.156-182.177,16.76v10.238c31.208-2.604,119.167-10.073,182.177-16.76
	c15.219-1.573,30.458,3.417,41.75,13.781c1.458,1.271,3.677,2.979,4.448,3.396c0.167,0,11.823,0.26,13.083-0.219
	c0.354-0.24,2.688-2.083,4.146-3.354c11.083-10.188,26.302-15.198,41.552-13.604c63.01,6.688,150.969,14.156,182.177,16.76v-10.238
	c-31.208-2.604-119.167-10.073-182.177-16.76C293.24,418.489,278.021,423.499,266.938,433.687z"/>
<linearGradient id="SVGID_1_" gradientUnits="userSpaceOnUse" x1="-47.4798" y1="639.4761" x2="-21.5356" y2="627.3774" gradientTransform="matrix(21.3333 0 0 -21.3333 996.3334 13791.667)">
	<stop  offset="0" style="stop-color:#FFFFFF;stop-opacity:0.2"/>
	<stop  offset="1" style="stop-color:#FFFFFF;stop-opacity:0"/>
</linearGradient>
<path style="fill:url(#SVGID_1_);" d="M469.333,92.19V74.665c0-4.896-3.333-9.156-8.083-10.344
	c-3.531-0.885-87.104-21.656-130.583-21.656c-35.126,0-63.104,13.198-74.702,19.642c-9.344-5.122-29.156-14.513-54.663-18.111
	c-2.125-0.323-4.323,0.063-6.26,1.021L160,62.738l-26.604-13.302c-2.021-1.01-4.333-1.344-6.531-0.979
	c-37.719,6.323-75.729,15.76-76.115,15.854c-4.75,1.188-8.083,5.458-8.083,10.354V92.19C13.017,97.575,0,105.243,0,117.332v341.333
	c0,2.979,1.25,5.823,3.437,7.844c2.188,2.031,5.125,3.031,8.094,2.792c1.156-0.094,116.542-9.521,194.219-17.771
	c9.198-0.958,18.292,2.073,25.281,8.469c2.906,2.531,7.073,5.833,10.469,7.177c4.885,1.875,11.177,2.156,14.5,2.156
	c3.354,0,9.698-0.281,14.563-2.188c3.333-1.302,7.51-4.615,10.615-7.333c6.771-6.229,15.823-9.229,25.063-8.281
	c77.698,8.25,193.073,17.677,194.229,17.771c2.979,0.24,5.906-0.76,8.094-2.792c2.188-2.021,3.438-4.865,3.438-7.844V117.332
	C512,105.243,498.983,97.575,469.333,92.19z"/>
<g>
</g>
<g>
</g>
<g>
</g>
<g>
</g>
<g>
</g>
<g>
</g>
<g>
</g>
<g>
</g>
<g>
</g>
<g>
</g>
<g>
</g>
<g>
</g>
<g>
</g>
<g>
</g>
<g>
</g>
</svg>
