<?xml version="1.0" encoding="iso-8859-1"?>
<!-- Generator: Adobe Illustrator 19.0.0, SVG Export Plug-In . SVG Version: 6.00 Build 0)  -->
<svg version="1.1" id="Capa_1" xmlns="http://www.w3.org/2000/svg" xmlns:xlink="http://www.w3.org/1999/xlink" x="0px" y="0px"
	 viewBox="0 0 512.002 512.002" style="enable-background:new 0 0 512.002 512.002;" xml:space="preserve">
<path style="fill:#303C42;" d="M509.323,174.265c-0.938-1.063-23.51-26.188-70.729-49.531c-4.417-2.177-9.75-1.052-12.927,2.729
	l-39.198,47.042c-2.365,2.844-3.094,6.698-1.917,10.208l19.24,57.74l-27.385,27.396l7.042-21.135
	c1.042-3.125,0.583-6.552-1.24-9.292l-39.229-58.854l33.188-66.375c1.438-2.885,1.5-6.26,0.167-9.188s-3.917-5.104-7.031-5.906
	c-35.26-9.135-73.385-13.76-113.302-13.76c-173.51,0-250.177,85.344-253.365,88.979c-2.354,2.688-3.198,6.375-2.26,9.823l64,234.667
	c0.938,3.427,3.521,6.146,6.885,7.281c3.333,1.167,7.073,0.531,9.896-1.615c0.531-0.406,54.594-40.469,174.844-40.469
	s174.313,40.063,174.844,40.469c1.885,1.427,4.177,2.177,6.49,2.177c1.146,0,2.302-0.177,3.406-0.563
	c3.365-1.135,5.948-3.854,6.885-7.281l64-234.667C512.573,180.671,511.708,176.963,509.323,174.265z"/>
<path style="fill:#BBDEFB;" d="M430.813,399.369C407.271,386.39,351.229,362.671,256,362.671S104.729,386.39,81.188,399.369
	L22.563,184.432c17-16.313,90.552-77.76,233.438-77.76c33.292,0,65.208,3.354,95.083,9.99l-29.958,59.906
	c-1.708,3.427-1.458,7.5,0.667,10.688l39.771,59.656l-19.677,59.052c-1.573,4.698,0.302,9.844,4.51,12.448
	c4.188,2.615,9.646,1.979,13.146-1.531l64-64c2.854-2.854,3.854-7.083,2.573-10.917l-19.448-58.365l29.938-35.917
	c28.115,14.875,45.542,29.865,52.823,36.792L430.813,399.369z"/>
<linearGradient id="SVGID_1_" gradientUnits="userSpaceOnUse" x1="-45.2646" y1="638.6545" x2="-25.6879" y2="629.5227" gradientTransform="matrix(21.3333 0 0 -21.3333 996.3095 13791.6934)">
	<stop  offset="0" style="stop-color:#FFFFFF;stop-opacity:0.4"/>
	<stop  offset="1" style="stop-color:#FFFFFF;stop-opacity:0"/>
</linearGradient>
<path style="fill:url(#SVGID_1_);" d="M430.813,399.369C407.271,386.39,351.229,362.671,256,362.671S104.729,386.39,81.188,399.369
	L22.563,184.432c17-16.313,90.552-77.76,233.438-77.76c33.292,0,65.208,3.354,95.083,9.99l-29.958,59.906
	c-1.708,3.427-1.458,7.5,0.667,10.688l39.771,59.656l-19.677,59.052c-1.573,4.698,0.302,9.844,4.51,12.448
	c4.188,2.615,9.646,1.979,13.146-1.531l64-64c2.854-2.854,3.854-7.083,2.573-10.917l-19.448-58.365l29.938-35.917
	c28.115,14.875,45.542,29.865,52.823,36.792L430.813,399.369z"/>
<g>
	<path style="fill:#FAFAFA;" d="M100.771,171.796c-5.271-2.625-11.677-0.5-14.313,4.771l-21.333,42.667
		c-2.635,5.271-0.5,11.677,4.771,14.313c1.531,0.76,3.156,1.125,4.76,1.125c3.917,0,7.677-2.156,9.552-5.896l21.333-42.667
		C108.177,180.838,106.042,174.432,100.771,171.796z"/>
	<path style="fill:#FAFAFA;" d="M143.438,171.796c-5.271-2.625-11.667-0.5-14.313,4.771L86.458,261.9
		c-2.635,5.271-0.5,11.677,4.771,14.313c1.531,0.76,3.156,1.125,4.76,1.125c3.917,0,7.677-2.156,9.552-5.896l42.667-85.333
		C150.844,180.838,148.708,174.432,143.438,171.796z"/>
</g>
<linearGradient id="SVGID_2_" gradientUnits="userSpaceOnUse" x1="-46.3" y1="638.9586" x2="-24.7524" y2="628.9113" gradientTransform="matrix(21.3333 0 0 -21.3333 996.3095 13791.6934)">
	<stop  offset="0" style="stop-color:#FFFFFF;stop-opacity:0.2"/>
	<stop  offset="1" style="stop-color:#FFFFFF;stop-opacity:0"/>
</linearGradient>
<path style="fill:url(#SVGID_2_);" d="M509.323,174.265c-0.938-1.063-23.51-26.188-70.729-49.531
	c-4.417-2.177-9.75-1.052-12.927,2.729l-39.198,47.042c-2.365,2.844-3.094,6.698-1.917,10.208l19.24,57.74l-27.385,27.396
	l7.042-21.135c1.042-3.125,0.583-6.552-1.24-9.292l-39.229-58.854l33.188-66.375c1.438-2.885,1.5-6.26,0.167-9.188
	s-3.917-5.104-7.031-5.906c-35.26-9.135-73.385-13.76-113.302-13.76c-173.51,0-250.177,85.344-253.365,88.979
	c-2.354,2.688-3.198,6.375-2.26,9.823l64,234.667c0.938,3.427,3.521,6.146,6.885,7.281c3.333,1.167,7.073,0.531,9.896-1.615
	c0.531-0.406,54.594-40.469,174.844-40.469s174.313,40.063,174.844,40.469c1.885,1.427,4.177,2.177,6.49,2.177
	c1.146,0,2.302-0.177,3.406-0.563c3.365-1.135,5.948-3.854,6.885-7.281l64-234.667C512.573,180.671,511.708,176.963,509.323,174.265
	z"/>
<g>
</g>
<g>
</g>
<g>
</g>
<g>
</g>
<g>
</g>
<g>
</g>
<g>
</g>
<g>
</g>
<g>
</g>
<g>
</g>
<g>
</g>
<g>
</g>
<g>
</g>
<g>
</g>
<g>
</g>
</svg>
