<?xml version="1.0" encoding="iso-8859-1"?>
<!-- Generator: Adobe Illustrator 19.0.0, SVG Export Plug-In . SVG Version: 6.00 Build 0)  -->
<svg version="1.1" id="Capa_1" xmlns="http://www.w3.org/2000/svg" xmlns:xlink="http://www.w3.org/1999/xlink" x="0px" y="0px"
	 viewBox="0 0 512 512" style="enable-background:new 0 0 512 512;" xml:space="preserve">
<path style="fill:#303C42;" d="M469.333,64H42.667C19.135,64,0,83.135,0,106.667v298.667C0,428.865,19.135,448,42.667,448h426.667
	C492.865,448,512,428.865,512,405.333V106.667C512,83.135,492.865,64,469.333,64z"/>
<path style="fill:#495965;" d="M490.667,405.333c0,11.76-9.573,21.333-21.333,21.333H42.667c-11.76,0-21.333-9.573-21.333-21.333
	V106.667c0-11.76,9.573-21.333,21.333-21.333h426.667c11.76,0,21.333,9.573,21.333,21.333V405.333z"/>
<linearGradient id="SVGID_1_" gradientUnits="userSpaceOnUse" x1="-46.5044" y1="639.9875" x2="-22.9018" y2="628.9813" gradientTransform="matrix(21.3333 0 0 -21.3333 996.3334 13791.667)">
	<stop  offset="0" style="stop-color:#FFFFFF;stop-opacity:0.2"/>
	<stop  offset="1" style="stop-color:#FFFFFF;stop-opacity:0"/>
</linearGradient>
<path style="fill:url(#SVGID_1_);" d="M490.667,405.333c0,11.76-9.573,21.333-21.333,21.333H42.667
	c-11.76,0-21.333-9.573-21.333-21.333V106.667c0-11.76,9.573-21.333,21.333-21.333h426.667c11.76,0,21.333,9.573,21.333,21.333
	V405.333z"/>
<linearGradient id="SVGID_2_" gradientUnits="userSpaceOnUse" x1="-40.7336" y1="644.9304" x2="-28.6726" y2="624.0384" gradientTransform="matrix(21.3333 0 0 -21.3333 996.3334 13791.667)">
	<stop  offset="0" style="stop-color:#FFFFFF;stop-opacity:0.2"/>
	<stop  offset="1" style="stop-color:#FFFFFF;stop-opacity:0"/>
</linearGradient>
<path style="fill:url(#SVGID_2_);" d="M490.667,405.333c0,11.76-9.573,21.333-21.333,21.333H42.667
	c-11.76,0-21.333-9.573-21.333-21.333V106.667c0-11.76,9.573-21.333,21.333-21.333h426.667c11.76,0,21.333,9.573,21.333,21.333
	V405.333z"/>
<g>
	<path style="fill:#303C42;" d="M458.667,384H114.053c-3.724-6.258-10.262-10.667-18.053-10.667S81.671,377.742,77.947,384H53.333
		c-5.896,0-10.667,4.771-10.667,10.667c0,5.896,4.771,10.667,10.667,10.667h24.613C81.671,411.591,88.208,416,96,416
		s14.329-4.409,18.053-10.667h344.613c5.896,0,10.667-4.771,10.667-10.667C469.333,388.771,464.563,384,458.667,384z"/>
	<path style="fill:#303C42;" d="M167.292,308.781C168.667,309.24,201.563,320,256,320c54.469,0,87.333-10.76,88.708-11.219
		c3.188-1.063,5.688-3.563,6.74-6.74c0.458-1.375,11.219-34.031,11.219-67.375s-10.76-66-11.219-67.375
		c-1.052-3.188-3.552-5.688-6.74-6.74c-1.375-0.458-34.271-11.219-88.708-11.219s-87.333,10.76-88.708,11.219
		c-3.188,1.052-5.688,3.552-6.74,6.74c-0.458,1.375-11.219,34.031-11.219,67.375s10.76,66,11.219,67.375
		C161.604,305.229,164.104,307.729,167.292,308.781z"/>
</g>
<path style="fill:#D32F2F;" d="M179.198,179.333c10.813-2.802,38.052-8.667,76.802-8.667s65.99,5.865,76.802,8.667
	c2.854,10.052,8.531,32.896,8.531,55.333s-5.677,45.281-8.531,55.333c-10.802,2.813-38.031,8.667-76.802,8.667
	c-38.75,0-65.99-5.865-76.802-8.667c-2.854-10.052-8.531-32.896-8.531-55.333S176.344,189.385,179.198,179.333z"/>
<g>
	<circle style="fill:#FAFAFA;" cx="218.667" cy="208" r="16"/>
	<circle style="fill:#FAFAFA;" cx="293.333" cy="208" r="16"/>
	<path style="fill:#FAFAFA;" d="M202.656,277.333c0.688,0,1.396-0.063,2.104-0.208l106.667-21.333
		c5.771-1.156,9.521-6.771,8.365-12.552c-1.146-5.781-6.719-9.573-12.552-8.365l-106.667,21.333
		c-5.771,1.156-9.521,6.771-8.365,12.552C193.219,273.833,197.677,277.333,202.656,277.333z"/>
</g>
<linearGradient id="SVGID_3_" gradientUnits="userSpaceOnUse" x1="-47.4108" y1="640.4102" x2="-21.9955" y2="628.5585" gradientTransform="matrix(21.3333 0 0 -21.3333 996.3334 13791.667)">
	<stop  offset="0" style="stop-color:#FFFFFF;stop-opacity:0.2"/>
	<stop  offset="1" style="stop-color:#FFFFFF;stop-opacity:0"/>
</linearGradient>
<path style="fill:url(#SVGID_3_);" d="M469.333,64H42.667C19.135,64,0,83.135,0,106.667v298.667C0,428.865,19.135,448,42.667,448
	h426.667C492.865,448,512,428.865,512,405.333V106.667C512,83.135,492.865,64,469.333,64z"/>
<g>
</g>
<g>
</g>
<g>
</g>
<g>
</g>
<g>
</g>
<g>
</g>
<g>
</g>
<g>
</g>
<g>
</g>
<g>
</g>
<g>
</g>
<g>
</g>
<g>
</g>
<g>
</g>
<g>
</g>
</svg>
