<?xml version="1.0" encoding="iso-8859-1"?>
<!-- Generator: Adobe Illustrator 19.0.0, SVG Export Plug-In . SVG Version: 6.00 Build 0)  -->
<svg version="1.1" id="Capa_1" xmlns="http://www.w3.org/2000/svg" xmlns:xlink="http://www.w3.org/1999/xlink" x="0px" y="0px"
	 viewBox="0 0 512.396 512.396" style="enable-background:new 0 0 512.396 512.396;" xml:space="preserve">
<path style="fill:#303C42;" d="M441.048,64.996l-181.3-64c-2.3-0.8-4.8-0.8-7.1,0l-181.3,64c-4.3,1.5-7.1,5.5-7.1,10.1v128
	c0,165.6,24.6,226.2,187.2,308.2c1.5,0.8,3.2,1.1,4.8,1.1s3.3-0.4,4.8-1.1c162.5-82,187.1-142.6,187.1-308.2v-128
	C448.148,70.496,445.248,66.496,441.048,64.996z"/>
<path style="fill:#1E88E5;" d="M256.148,22.396l-170.7,60.2v120.4c0,19.3,0.3,37,1.1,53.3h169.6V22.396z"/>
<path style="fill:#01579B;" d="M425.748,256.396c0.8-16.4,1.1-34,1.1-53.3v-120.5l-170.7-60.2v234H425.748z"/>
<path style="fill:#1E88E5;" d="M256.148,256.396v233.4c132.1-67.4,163.8-115.3,169.6-233.4H256.148z"/>
<path style="fill:#01579B;" d="M86.548,256.396c5.8,118.1,37.4,166,169.6,233.4v-233.4H86.548z"/>
<path style="opacity:0.1;enable-background:new    ;" d="M256.148,448.396c-150.4-76.7-170.7-106.7-170.7-265.4v20
	c0,158.7,20.2,210,170.7,286.7c150.4-76.7,170.7-128.1,170.7-286.7v-20C426.848,341.696,406.548,371.696,256.148,448.396z"/>
<path style="fill:#303C42;" d="M288.148,363.396c-2.8,0-5.6-1.1-7.8-3.2l-64-64c-2.1-2.1-3.2-4.9-3.2-7.8s1.2-5.7,3.2-7.8l55-55
	l-75.2-56.4c-2.8-2.1-4.4-5.3-4.4-8.8s1.6-6.7,4.4-8.8l78.7-59.1l-29.1-77.6c-2.1-5.7,0.7-12,6.4-14.2c5.7-2.1,12,0.7,14.2,6.4
	l32,85.3c1.7,4.6,0.2,9.7-3.7,12.7l-73.5,55.3l73.6,55.2c2.6,1.9,4.1,4.8,4.4,8c0.2,3.2-0.9,6.3-3.2,8.6l-56.2,56.2l56.2,56.2
	c4.3,4.3,4.3,11.3,0,15.6C293.748,362.296,290.948,363.396,288.148,363.396z"/>
<linearGradient id="SVGID_1_" gradientUnits="userSpaceOnUse" x1="32.0837" y1="373.16" x2="442.2318" y2="181.908" gradientTransform="matrix(1 0 0 -1 0 514.7922)">
	<stop  offset="0" style="stop-color:#FFFFFF;stop-opacity:0.2"/>
	<stop  offset="1" style="stop-color:#FFFFFF;stop-opacity:0"/>
</linearGradient>
<path style="fill:url(#SVGID_1_);" d="M441.048,64.996l-181.3-64c-2.3-0.8-4.8-0.8-7.1,0l-181.3,64c-4.3,1.5-7.1,5.5-7.1,10.1v128
	c0,165.6,24.6,226.2,187.2,308.2c1.5,0.8,3.2,1.1,4.8,1.1s3.3-0.4,4.8-1.1c162.5-82,187.1-142.6,187.1-308.2v-128
	C448.148,70.496,445.248,66.496,441.048,64.996z"/>
<g>
</g>
<g>
</g>
<g>
</g>
<g>
</g>
<g>
</g>
<g>
</g>
<g>
</g>
<g>
</g>
<g>
</g>
<g>
</g>
<g>
</g>
<g>
</g>
<g>
</g>
<g>
</g>
<g>
</g>
</svg>
