<?xml version="1.0" encoding="iso-8859-1"?>
<!-- Generator: Adobe Illustrator 19.0.0, SVG Export Plug-In . SVG Version: 6.00 Build 0)  -->
<svg version="1.1" id="Capa_1" xmlns="http://www.w3.org/2000/svg" xmlns:xlink="http://www.w3.org/1999/xlink" x="0px" y="0px"
	 viewBox="0 0 512.006 512.006" style="enable-background:new 0 0 512.006 512.006;" xml:space="preserve">
<path style="fill:#303C42;" d="M505.646,406.743l-162.313-92.75c-3.396-1.927-7.542-1.875-10.833,0.146l-21.788,13.271l7.454-21.625
	l26.396-16.083c3.229-1.969,5.167-5.49,5.125-9.26c-0.063-3.781-2.104-7.24-5.375-9.115l-26.815-15.323L506.625,147.93
	c3.208-1.833,5.25-5.198,5.375-8.896c0.125-3.688-1.667-7.188-4.75-9.24l-8.563-5.708c-32.333-21.573-76.229-22.875-109.792-3.292
	l-152.418,88.911l-28.52-16.297c-4.146-2.365-9.438-1.677-12.833,1.719c-9.125,9.146-23.354,10.979-34.479,4.458l-49.387-28.802
	C121.552,159.422,128,144.507,128,128.003c0-35.292-28.708-64-64-64s-64,28.708-64,64c0,25.177,14.741,46.789,35.928,57.232
	l-0.053,0.029l121.259,70.738L35.875,326.743l0.039,0.035C14.734,337.223,0,358.833,0,384.003c0,35.292,28.708,64,64,64
	s64-28.708,64-64c0-16.501-6.445-31.415-16.737-42.777l49.383-28.816c11.146-6.521,25.354-4.677,34.479,4.469
	c3.396,3.396,8.667,4.083,12.833,1.719l28.531-16.301l57.781,33.707c1.383,0.814,2.949,1.094,4.514,1.225
	c-0.112,0.257-0.422,0.372-0.514,0.639l-9.688,28.125c-1.667,4.802,0.313,10.115,4.708,12.688l94.625,55.198
	c15.875,9.24,33.938,14.125,52.271,14.125c20.542,0,40.438-6.021,57.542-17.427l8.542-5.708c3.083-2.052,4.875-5.542,4.75-9.24
	C510.875,411.941,508.854,408.576,505.646,406.743z M64,160.003c-17.641,0-32-14.352-32-32s14.359-32,32-32s32,14.352,32,32
	S81.641,160.003,64,160.003z M64,416.003c-17.641,0-32-14.352-32-32s14.359-32,32-32s32,14.352,32,32S81.641,416.003,64,416.003z"/>
<path style="fill:#D5D0CA;" d="M399.646,139.222c24.604-14.344,56.313-14.688,81.125-1.083L296,243.719l-38.134-21.792
	L399.646,139.222z"/>
<path style="opacity:0.2;fill:#FFFFFF;enable-background:new    ;" d="M457.28,129.881L277.03,232.879l18.97,10.84l184.771-105.581
	C473.432,134.115,465.462,131.463,457.28,129.881z"/>
<g>
	<path style="fill:#D5D0CA;" d="M203.813,296.388c-15.688-11.135-36.813-12.396-53.917-2.396L92.921,327.23
		c-2.917-1.493-5.941-2.729-9.095-3.766l94.469-55.118l36.915,21.535L203.813,296.388z"/>
	<path style="fill:#D5D0CA;" d="M293.792,311.034L83.819,188.543c3.152-1.036,6.174-2.271,9.091-3.763l56.986,33.233
		c17.104,9.969,38.229,8.729,53.917-2.396l114.229,65.26l-14.25,8.677c-2.125,1.302-3.729,3.292-4.542,5.646L293.792,311.034z"/>
	<path style="fill:#D5D0CA;" d="M398.667,415.441l-87.062-50.781l5.583-16.208l21.021-12.813l141.583,80.896
		C454.979,430.139,423.333,429.795,398.667,415.441z"/>
</g>
<path style="opacity:0.2;fill:#FFFFFF;enable-background:new    ;" d="M454.148,425.172c8.939-1.487,17.659-4.26,25.643-8.638
	l-141.583-80.896l-15.62,9.521L454.148,425.172z"/>
<circle style="fill:#303C42;" cx="234.67" cy="256.003" r="10.667"/>
<linearGradient id="SVGID_1_" gradientUnits="userSpaceOnUse" x1="-47.4852" y1="639.4684" x2="-22.341" y2="627.7453" gradientTransform="matrix(21.3333 0 0 -21.3333 996.271 13791.7354)">
	<stop  offset="0" style="stop-color:#FFFFFF;stop-opacity:0.2"/>
	<stop  offset="1" style="stop-color:#FFFFFF;stop-opacity:0"/>
</linearGradient>
<path style="fill:url(#SVGID_1_);" d="M505.646,406.743l-162.313-92.75c-3.396-1.927-7.542-1.875-10.833,0.146l-21.788,13.271
	l7.454-21.625l26.396-16.083c3.229-1.969,5.167-5.49,5.125-9.26c-0.063-3.781-2.104-7.24-5.375-9.115l-26.815-15.323L506.625,147.93
	c3.208-1.833,5.25-5.198,5.375-8.896c0.125-3.688-1.667-7.188-4.75-9.24l-8.563-5.708c-32.333-21.573-76.229-22.875-109.792-3.292
	l-152.418,88.911l-28.52-16.297c-4.146-2.365-9.438-1.677-12.833,1.719c-9.125,9.146-23.354,10.979-34.479,4.458l-49.387-28.802
	C121.552,159.422,128,144.507,128,128.003c0-35.292-28.708-64-64-64s-64,28.708-64,64c0,25.177,14.741,46.789,35.928,57.232
	l-0.053,0.029l121.259,70.738L35.875,326.743l0.039,0.035C14.734,337.223,0,358.833,0,384.003c0,35.292,28.708,64,64,64
	s64-28.708,64-64c0-16.501-6.445-31.415-16.737-42.777l49.383-28.816c11.146-6.521,25.354-4.677,34.479,4.469
	c3.396,3.396,8.667,4.083,12.833,1.719l28.531-16.301l57.781,33.707c1.383,0.814,2.949,1.094,4.514,1.225
	c-0.112,0.257-0.422,0.372-0.514,0.639l-9.688,28.125c-1.667,4.802,0.313,10.115,4.708,12.688l94.625,55.198
	c15.875,9.24,33.938,14.125,52.271,14.125c20.542,0,40.438-6.021,57.542-17.427l8.542-5.708c3.083-2.052,4.875-5.542,4.75-9.24
	C510.875,411.941,508.854,408.576,505.646,406.743z M64,160.003c-17.641,0-32-14.352-32-32s14.359-32,32-32s32,14.352,32,32
	S81.641,160.003,64,160.003z M64,416.003c-17.641,0-32-14.352-32-32s14.359-32,32-32s32,14.352,32,32S81.641,416.003,64,416.003z"/>
<g>
</g>
<g>
</g>
<g>
</g>
<g>
</g>
<g>
</g>
<g>
</g>
<g>
</g>
<g>
</g>
<g>
</g>
<g>
</g>
<g>
</g>
<g>
</g>
<g>
</g>
<g>
</g>
<g>
</g>
</svg>
