<?xml version="1.0" encoding="iso-8859-1"?>
<!-- Generator: Adobe Illustrator 19.0.0, SVG Export Plug-In . SVG Version: 6.00 Build 0)  -->
<svg version="1.1" id="Capa_1" xmlns="http://www.w3.org/2000/svg" xmlns:xlink="http://www.w3.org/1999/xlink" x="0px" y="0px"
	 viewBox="0 0 512 512" style="enable-background:new 0 0 512 512;" xml:space="preserve">
<path style="fill:#303C42;" d="M501.333,149.333c-4.844,0-9.5-0.49-13.896-1.375c2.031-9.188,3.229-19.385,3.229-30.625
	c0-17.646-14.354-32-32-32c-17.646,0-32,14.354-32,32c0,17.531,14.031,34.073,34.156,43.958
	c-3.085,7.167-6.755,13.173-10.548,18.332c-25.497-42.189-74.785-75.344-136.806-88.29c-5.01-1.094-10.156,1.656-12.083,6.479
	l-23.292,58.229c-1.125,2.823-1,6,0.365,8.729l17.896,35.792l-26.615,26.615l7.042-21.135c1.281-3.833,0.281-8.063-2.573-10.917
	l-40.385-40.385l-11.427-57.125c-1.115-5.625-6.417-9.396-12.198-8.427c-33.177,5.469-64.156,16.813-90.135,32.958
	c-13.01-10.031-28.844-15.479-45.396-15.479c-5.896,0-10.667,4.771-10.667,10.667c0,14.719,4.51,29.125,12.833,41.427
	c-14.302,16.698-24.406,35.292-29.656,54.573h-4.51C19.135,213.333,0,232.469,0,256c0,23.74,12.031,45.406,32.177,57.979
	l74.49,46.406V416c0,5.896,4.771,10.667,10.667,10.667H160c4.042,0,7.729-2.281,9.542-5.896l12.625-25.25
	c47.208,13.021,100.458,13.021,147.667,0l12.625,25.25c1.813,3.615,5.5,5.896,9.542,5.896h42.667
	c5.896,0,10.667-4.771,10.667-10.667v-56.479c40.75-29.979,64-71.323,64-114.188c0-15.405-3.135-30.384-8.719-44.669
	c7.249-8.069,14.707-18.59,20.396-32.279c6.542,1.479,13.375,2.281,20.323,2.281c5.896,0,10.667-4.771,10.667-10.667
	C512,154.104,507.229,149.333,501.333,149.333z M467.177,140.49C455.323,133.75,448,124.448,448,117.333
	c0-5.885,4.781-10.667,10.667-10.667c5.885,0,10.667,4.781,10.667,10.667C469.333,125.76,468.542,133.469,467.177,140.49z"/>
<path id="SVGCleanerId_0" style="fill:#FABEAE;" d="M388.594,345.26c-2.875,2-4.594,5.271-4.594,8.771v51.302h-25.406
	l-13.677-27.344c-2.344-4.688-7.76-7.021-12.74-5.406c-48.229,15.146-104.125,15.146-152.354,0
	c-4.979-1.583-10.396,0.729-12.74,5.406l-13.677,27.344H128v-50.865c0-3.688-1.896-7.104-5.021-9.052l-79.51-49.542
	C29.604,287.229,21.333,272.323,21.333,256c0-11.76,9.573-21.333,21.333-21.333h12.969c5.104,0,9.49-3.615,10.469-8.625
	c4.094-21.01,15.271-41.531,32.323-59.344c3.823-3.99,3.958-10.25,0.313-14.406c-5.969-6.802-10.021-14.583-12-22.906
	c9.313,2.177,17.927,6.865,24.99,13.719c3.656,3.552,9.25,4.021,13.417,1.167c22.229-15.083,49.156-26.104,78.396-32.156l10,49.979
	c0.417,2.063,1.427,3.958,2.917,5.448l38,38.01l-19.24,57.74c-1.573,4.698,0.302,9.844,4.51,12.448
	c4.188,2.615,9.667,1.979,13.146-1.531l64-64c3.25-3.25,4.052-8.208,2-12.313l-19.188-38.385l18.125-45.323
	C394.917,133.219,448,186.219,448,245.333C448,283.229,426.906,318.719,388.594,345.26z"/>
<g>
	<path id="SVGCleanerId_0_1_" style="fill:#FABEAE;" d="M388.594,345.26c-2.875,2-4.594,5.271-4.594,8.771v51.302h-25.406
		l-13.677-27.344c-2.344-4.688-7.76-7.021-12.74-5.406c-48.229,15.146-104.125,15.146-152.354,0
		c-4.979-1.583-10.396,0.729-12.74,5.406l-13.677,27.344H128v-50.865c0-3.688-1.896-7.104-5.021-9.052l-79.51-49.542
		C29.604,287.229,21.333,272.323,21.333,256c0-11.76,9.573-21.333,21.333-21.333h12.969c5.104,0,9.49-3.615,10.469-8.625
		c4.094-21.01,15.271-41.531,32.323-59.344c3.823-3.99,3.958-10.25,0.313-14.406c-5.969-6.802-10.021-14.583-12-22.906
		c9.313,2.177,17.927,6.865,24.99,13.719c3.656,3.552,9.25,4.021,13.417,1.167c22.229-15.083,49.156-26.104,78.396-32.156l10,49.979
		c0.417,2.063,1.427,3.958,2.917,5.448l38,38.01l-19.24,57.74c-1.573,4.698,0.302,9.844,4.51,12.448
		c4.188,2.615,9.667,1.979,13.146-1.531l64-64c3.25-3.25,4.052-8.208,2-12.313l-19.188-38.385l18.125-45.323
		C394.917,133.219,448,186.219,448,245.333C448,283.229,426.906,318.719,388.594,345.26z"/>
</g>
<path style="opacity:0.1;enable-background:new    ;" d="M434.206,194.245c1.991,7.94,3.128,16.053,3.128,24.307
	c0,39.384-21.264,78.658-64,103.012c-10.473,5.967-32.138,16.637-43.232,21.349c-51.754,21.983-117.742,21.887-169.536,0
	c-11.083-4.684-32.708-15.316-43.232-21.15c-21.779-12.07-84.531-52.669-84.531-52.669c-4.339-2.706-7.91-6.176-11.072-9.96
	c1.007,15.055,8.786,28.664,21.738,36.741l79.51,49.542c3.125,1.948,5.021,5.365,5.021,9.052v50.865h25.406l13.677-27.344
	c2.344-4.677,7.76-6.99,12.74-5.406c48.229,15.146,104.125,15.146,152.354,0c4.979-1.615,10.396,0.719,12.74,5.406l13.677,27.344
	H384v-51.302c0-3.5,1.719-6.771,4.594-8.771C426.906,318.719,448,283.229,448,245.333C448,227.483,443.086,210.214,434.206,194.245z
	"/>
<circle style="fill:#303C42;" cx="106.667" cy="213.333" r="21.333"/>
<linearGradient id="SVGID_1_" gradientUnits="userSpaceOnUse" x1="-44.4421" y1="639.7766" x2="-25.7504" y2="631.0607" gradientTransform="matrix(21.3333 0 0 -21.3333 996.3334 13791.667)">
	<stop  offset="0" style="stop-color:#FFFFFF;stop-opacity:0.2"/>
	<stop  offset="1" style="stop-color:#FFFFFF;stop-opacity:0"/>
</linearGradient>
<path style="fill:url(#SVGID_1_);" d="M501.333,149.333c-4.844,0-9.5-0.49-13.896-1.375c2.031-9.188,3.229-19.385,3.229-30.625
	c0-17.646-14.354-32-32-32c-17.646,0-32,14.354-32,32c0,17.531,14.031,34.073,34.156,43.958
	c-3.085,7.167-6.755,13.173-10.548,18.332c-25.497-42.189-74.785-75.344-136.806-88.29c-5.01-1.094-10.156,1.656-12.083,6.479
	l-23.292,58.229c-1.125,2.823-1,6,0.365,8.729l17.896,35.792l-26.615,26.615l7.042-21.135c1.281-3.833,0.281-8.063-2.573-10.917
	l-40.385-40.385l-11.427-57.125c-1.115-5.625-6.417-9.396-12.198-8.427c-33.177,5.469-64.156,16.813-90.135,32.958
	c-13.01-10.031-28.844-15.479-45.396-15.479c-5.896,0-10.667,4.771-10.667,10.667c0,14.719,4.51,29.125,12.833,41.427
	c-14.302,16.698-24.406,35.292-29.656,54.573h-4.51C19.135,213.333,0,232.469,0,256c0,23.74,12.031,45.406,32.177,57.979
	l74.49,46.406V416c0,5.896,4.771,10.667,10.667,10.667H160c4.042,0,7.729-2.281,9.542-5.896l12.625-25.25
	c47.208,13.021,100.458,13.021,147.667,0l12.625,25.25c1.813,3.615,5.5,5.896,9.542,5.896h42.667
	c5.896,0,10.667-4.771,10.667-10.667v-56.479c40.75-29.979,64-71.323,64-114.188c0-15.405-3.135-30.384-8.719-44.669
	c7.249-8.069,14.707-18.59,20.396-32.279c6.542,1.479,13.375,2.281,20.323,2.281c5.896,0,10.667-4.771,10.667-10.667
	C512,154.104,507.229,149.333,501.333,149.333z M467.177,140.49C455.323,133.75,448,124.448,448,117.333
	c0-5.885,4.781-10.667,10.667-10.667c5.885,0,10.667,4.781,10.667,10.667C469.333,125.76,468.542,133.469,467.177,140.49z"/>
<g>
</g>
<g>
</g>
<g>
</g>
<g>
</g>
<g>
</g>
<g>
</g>
<g>
</g>
<g>
</g>
<g>
</g>
<g>
</g>
<g>
</g>
<g>
</g>
<g>
</g>
<g>
</g>
<g>
</g>
</svg>
