<?xml version="1.0" encoding="iso-8859-1"?>
<!-- Generator: Adobe Illustrator 19.0.0, SVG Export Plug-In . SVG Version: 6.00 Build 0)  -->
<svg version="1.1" id="Capa_1" xmlns="http://www.w3.org/2000/svg" xmlns:xlink="http://www.w3.org/1999/xlink" x="0px" y="0px"
	 viewBox="0 0 512 512" style="enable-background:new 0 0 512 512;" xml:space="preserve">
<path style="fill:#303C42;" d="M384,0H128c-23.531,0-42.667,19.135-42.667,42.667v426.667C85.333,492.865,104.469,512,128,512h256
	c23.531,0,42.667-19.135,42.667-42.667V42.667C426.667,19.135,407.531,0,384,0z"/>
<path style="fill:#5C6671;" d="M128,21.333h256c11.76,0,21.333,9.573,21.333,21.333v362.667H106.667V42.667
	C106.667,30.906,116.24,21.333,128,21.333z"/>
<linearGradient id="SVGID_1_" gradientUnits="userSpaceOnUse" x1="-43.6714" y1="640.4838" x2="-25.5757" y2="632.0478" gradientTransform="matrix(21.3333 0 0 -21.3333 996.3334 13791.667)">
	<stop  offset="0" style="stop-color:#FFFFFF;stop-opacity:0.2"/>
	<stop  offset="1" style="stop-color:#FFFFFF;stop-opacity:0"/>
</linearGradient>
<path style="fill:url(#SVGID_1_);" d="M128,21.333h256c11.76,0,21.333,9.573,21.333,21.333v362.667H106.667V42.667
	C106.667,30.906,116.24,21.333,128,21.333z"/>
<g>
	<path style="fill:#303C42;" d="M309.333,320c-2.729,0-5.458-1.042-7.542-3.125l-38.01-38l-57.74,19.24
		c-4.99,1.688-10.531-0.583-12.917-5.344l-38.531-77.063l-55.219,18.406c-5.646,1.865-11.635-1.156-13.49-6.74
		c-1.865-5.594,1.156-11.635,6.74-13.49l64-21.333c5.063-1.677,10.542,0.604,12.917,5.344l38.531,77.063l55.219-18.406
		c3.823-1.323,8.063-0.281,10.917,2.573l42.667,42.667c4.167,4.167,4.167,10.917,0,15.083C314.792,318.958,312.063,320,309.333,320z
		"/>
	<path style="fill:#303C42;" d="M245.333,64h21.333c5.896,0,10.667-4.771,10.667-10.667s-4.771-10.667-10.667-10.667h-21.333
		c-5.896,0-10.667,4.771-10.667,10.667S239.438,64,245.333,64z"/>
</g>
<path style="fill:#FFFFFF;" d="M288,448h-64c-5.896,0-10.667,4.771-10.667,10.667c0,5.896,4.771,10.667,10.667,10.667h64
	c5.896,0,10.667-4.771,10.667-10.667C298.667,452.771,293.896,448,288,448z"/>
<circle style="fill:#303C42;" cx="373.333" cy="53.333" r="10.667"/>
<linearGradient id="SVGID_2_" gradientUnits="userSpaceOnUse" x1="-45.2743" y1="639.4139" x2="-24.1319" y2="629.5548" gradientTransform="matrix(21.3333 0 0 -21.3333 996.3334 13791.667)">
	<stop  offset="0" style="stop-color:#FFFFFF;stop-opacity:0.2"/>
	<stop  offset="1" style="stop-color:#FFFFFF;stop-opacity:0"/>
</linearGradient>
<path style="fill:url(#SVGID_2_);" d="M384,0H128c-23.531,0-42.667,19.135-42.667,42.667v426.667
	C85.333,492.865,104.469,512,128,512h256c23.531,0,42.667-19.135,42.667-42.667V42.667C426.667,19.135,407.531,0,384,0z"/>
<g>
</g>
<g>
</g>
<g>
</g>
<g>
</g>
<g>
</g>
<g>
</g>
<g>
</g>
<g>
</g>
<g>
</g>
<g>
</g>
<g>
</g>
<g>
</g>
<g>
</g>
<g>
</g>
<g>
</g>
</svg>
