<?xml version="1.0" encoding="iso-8859-1"?>
<!-- Generator: Adobe Illustrator 19.0.0, SVG Export Plug-In . SVG Version: 6.00 Build 0)  -->
<svg version="1.1" id="Capa_1" xmlns="http://www.w3.org/2000/svg" xmlns:xlink="http://www.w3.org/1999/xlink" x="0px" y="0px"
	 viewBox="0 0 469.333 469.333" style="enable-background:new 0 0 469.333 469.333;" xml:space="preserve">
<path style="fill:#303C42;" d="M367.896,339.979c0.813-2.906,0.354-6.01-1.25-8.563l-17.604-27.948
	c-1.958-3.094-5.354-4.979-9.021-4.979l-190.688,0.177c-1.771,0-3.5,0.438-5.063,1.271L5.604,374.604C2.146,376.469,0,380.073,0,384
	c0,3.927,2.146,7.531,5.604,9.396l138.667,74.667c1.563,0.833,3.292,1.271,5.063,1.271h192.771c4.042,0,7.729-2.281,9.542-5.896
	l15.521-31.052c2.063-4.104,1.25-9.073-2-12.313l-49.896-49.875l47.125-23.552C365.083,345.302,367.083,342.875,367.896,339.979z"/>
<path style="fill:#E4CE9B;" d="M146.914,445.25l-40.247-21.672v-79.156l40.408-21.758l17.238,17.221l-14.375,40.552
	c-0.833,2.385-0.813,4.99,0.104,7.354l14.313,37.615L146.914,445.25z"/>
<polygon style="opacity:0.1;enable-background:new    ;" points="157.844,421.076 106.667,407.005 106.667,423.578 146.914,445.25 
	164.354,425.406 161.826,418.762 "/>
<polygon style="fill:#63554F;" points="85.333,355.91 85.333,412.09 33.167,384 "/>
<path style="fill:#F9C20A;" d="M292.5,357.734c-3.063,1.531-5.208,4.448-5.75,7.833c-0.563,3.385,0.563,6.823,2.979,9.25
	l54.917,54.896l-9.125,18.281H172.906l11.719-13.344c2.604-2.969,3.354-7.146,1.938-10.833l-15.208-39.958l15.313-43.198
	c1.375-3.875,0.396-8.198-2.521-11.104l-9.587-9.583l159.587-0.146l8.188,13L292.5,357.734z"/>
<g>
	<polygon style="opacity:0.2;fill:#FFFFFF;enable-background:new    ;" points="158.267,356.94 164.313,339.885 147.074,322.664 
		106.667,344.422 106.667,367.516 147.074,345.758 	"/>
	<path style="opacity:0.2;fill:#FFFFFF;enable-background:new    ;" d="M186.667,340.661l-0.849,2.396l136.298-0.125l20.217-10.104
		l-8.188-13l-159.587,0.146l9.587,9.583C187.063,332.464,188.042,336.786,186.667,340.661z"/>
</g>
<path style="opacity:0.1;enable-background:new    ;" d="M335.521,426.656H186.832c0.266,2.871-0.253,5.767-2.207,7.995
	l-11.719,13.344h162.615l9.125-18.281l-7.105-7.103L335.521,426.656z"/>
<path style="fill:#303C42;" d="M456.833,76.102l-64-64c-16.125-16.125-44.167-16.156-60.375,0.031L179.854,166.112
	c-2.75,2.792-3.771,6.875-2.625,10.625s4.271,6.573,8.125,7.344l24.708,4.948l-17.521,52.531c-1.083,3.25-0.542,6.833,1.479,9.615
	c2,2.781,5.208,4.427,8.646,4.427h77.646l8.542,25.646c1.167,3.5,4.063,6.146,7.646,7c0.833,0.198,1.646,0.292,2.479,0.292
	c2.771,0,5.479-1.083,7.5-3.094l150.354-149.01c8.063-8.063,12.5-18.771,12.5-30.167S464.896,84.164,456.833,76.102z"/>
<path style="fill:#F9C20A;" d="M303.667,258.206l-5.542-16.646c-1.458-4.354-5.542-7.292-10.125-7.292h-70.542l16.667-49.958
	c0.958-2.906,0.646-6.083-0.896-8.729s-4.146-4.51-7.146-5.104l-17.125-3.427l77.03-77.719l93.613,93.621L303.667,258.206z"/>
<path style="fill:#EE3124;" d="M441.792,121.32l-47.039,46.617L301.005,74.18l46.578-46.995c8.083-8.063,22.083-8.063,30.167,0
	l64,64c4.021,4.031,6.25,9.385,6.25,15.083C448,111.966,445.771,117.32,441.792,121.32z"/>
<g>
	<path style="opacity:0.2;fill:#FFFFFF;enable-background:new    ;" d="M285.988,89.331l-77.03,77.719l17.125,3.427
		c3,0.594,5.604,2.458,7.146,5.104c0.147,0.251,0.139,0.551,0.263,0.811l69.467-70.089L285.988,89.331z"/>
	<path style="opacity:0.2;fill:#FFFFFF;enable-background:new    ;" d="M377.75,61.281l62.031,62.031l2.01-1.992
		c3.979-4,6.208-9.354,6.208-15.052c0-5.698-2.229-11.052-6.25-15.083l-64-64c-8.083-8.063-22.083-8.063-30.167,0L301.005,74.18
		l16.971,16.973l29.607-29.871C355.667,53.219,369.667,53.219,377.75,61.281z"/>
</g>
<linearGradient id="SVGID_1_" gradientUnits="userSpaceOnUse" x1="-62.2227" y1="616.5847" x2="-47.1745" y2="609.5671" gradientTransform="matrix(21.3333 0 0 -21.3333 1430.1112 13315.2227)">
	<stop  offset="0" style="stop-color:#FFFFFF;stop-opacity:0.2"/>
	<stop  offset="1" style="stop-color:#FFFFFF;stop-opacity:0"/>
</linearGradient>
<path style="fill:url(#SVGID_1_);" d="M367.896,339.979c0.813-2.906,0.354-6.01-1.25-8.563l-17.604-27.948
	c-1.958-3.094-5.354-4.979-9.021-4.979l-190.688,0.177c-1.771,0-3.5,0.438-5.063,1.271L5.604,374.604C2.146,376.469,0,380.073,0,384
	c0,3.927,2.146,7.531,5.604,9.396l138.667,74.667c1.563,0.833,3.292,1.271,5.063,1.271h192.771c4.042,0,7.729-2.281,9.542-5.896
	l15.521-31.052c2.063-4.104,1.25-9.073-2-12.313l-49.896-49.875l47.125-23.552C365.083,345.302,367.083,342.875,367.896,339.979z
	 M456.833,76.102l-64-64c-16.125-16.125-44.167-16.156-60.375,0.031L179.854,166.112c-2.75,2.792-3.771,6.875-2.625,10.625
	s4.271,6.573,8.125,7.344l24.708,4.948l-17.521,52.531c-1.083,3.25-0.542,6.833,1.479,9.615c2,2.781,5.208,4.427,8.646,4.427h77.646
	l8.542,25.646c1.167,3.5,4.063,6.146,7.646,7c0.833,0.198,1.646,0.292,2.479,0.292c2.771,0,5.479-1.083,7.5-3.094l150.354-149.01
	c8.063-8.063,12.5-18.771,12.5-30.167S464.896,84.164,456.833,76.102z"/>
<g>
</g>
<g>
</g>
<g>
</g>
<g>
</g>
<g>
</g>
<g>
</g>
<g>
</g>
<g>
</g>
<g>
</g>
<g>
</g>
<g>
</g>
<g>
</g>
<g>
</g>
<g>
</g>
<g>
</g>
</svg>
