<?xml version="1.0" encoding="iso-8859-1"?>
<!-- Generator: Adobe Illustrator 19.0.0, SVG Export Plug-In . SVG Version: 6.00 Build 0)  -->
<svg version="1.1" id="Capa_1" xmlns="http://www.w3.org/2000/svg" xmlns:xlink="http://www.w3.org/1999/xlink" x="0px" y="0px"
	 viewBox="0 0 512 512" style="enable-background:new 0 0 512 512;" xml:space="preserve">
<path style="fill:#303C42;" d="M405.336,64H377.12l6.799-51.948c0.396-3.042-0.542-6.115-2.563-8.417
	C379.336,1.323,376.399,0,373.336,0H192.003c-3.292,0-6.396,1.51-8.417,4.104c-2.021,2.583-2.729,5.958-1.938,9.146l9.521,38.094
	l-40.042,60.073c-1.167,1.75-1.792,3.813-1.792,5.917v40.146l-20.479-40.969l19.938-59.802c0.729-2.188,0.729-4.563,0-6.75
	L134.565,7.292C133.107,2.937,129.024,0,124.44,0H32.003c-3.062,0-6,1.323-8.021,3.635c-2.021,2.302-2.958,5.375-2.563,8.417
	l59.333,453.229C84.086,491.917,106.836,512,133.669,512h138c26.833,0,49.583-20.083,52.917-46.656l16.232-124.01h8.518
	c38.583,0,74.542-17.281,98.646-47.417c12.542-15.688,21.271-34.406,25.229-54.146l16.979-85.198l0.479-5.24
	C490.669,102.281,452.399,64,405.336,64z M410.461,227.198c-1.958,9.74-6.271,18.99-12.458,26.75
	c-11.875,14.865-29.625,23.385-48.667,23.385h-0.141L368.742,128h36.594c10.896,0,19.979,8.188,21.208,18.865L410.461,227.198z"/>
<path style="fill:#00AAE7;" d="M303.419,462.635c-2,15.979-15.646,28.031-31.75,28.031h-138c-16.104,0-29.75-12.052-31.75-28.094
	L44.149,21.333h72.604l10.667,32l-20.208,60.625c-0.896,2.688-0.688,5.615,0.583,8.146l42.667,85.333
	c2.208,4.427,7.063,6.688,12,5.615c4.813-1.135,8.208-5.438,8.208-10.385v-82.104l40.875-61.313c1.667-2.5,2.208-5.583,1.479-8.5
	l-7.354-29.417H361.19L303.419,462.635z"/>
<path style="opacity:0.1;enable-background:new    ;" d="M314.417,21.333l-52.185,398.635c-2,15.979-15.646,28.031-31.75,28.031
	h-130.47l1.908,14.573c2,16.042,15.646,28.094,31.75,28.094h138c16.104,0,29.75-12.052,31.75-28.031L361.19,21.333H314.417z"/>
<path style="fill:#00AAE7;" d="M452.294,235.573c-3.292,16.417-10.542,31.979-20.979,45.021
	C411.294,305.635,381.399,320,349.336,320h-5.725l2.793-21.333h2.932c25.563,0,49.375-11.448,65.333-31.406
	c8.313-10.406,14.084-22.802,16.709-35.865l16.375-81.823c0.188-0.885,0.25-1.802,0.188-2.698
	c-1.292-22.552-20-40.208-42.604-40.208h-33.801l2.792-21.333h31.009c35.292,0,64,28.708,64.063,62.948L452.294,235.573z"/>
<linearGradient id="SVGID_1_" gradientUnits="userSpaceOnUse" x1="-48.2459" y1="640.6429" x2="-26.5405" y2="630.5198" gradientTransform="matrix(21.3333 0 0 -21.3333 996.3333 13791.667)">
	<stop  offset="0" style="stop-color:#FFFFFF;stop-opacity:0.2"/>
	<stop  offset="1" style="stop-color:#FFFFFF;stop-opacity:0"/>
</linearGradient>
<path style="fill:url(#SVGID_1_);" d="M405.336,64H377.12l6.799-51.948c0.396-3.042-0.542-6.115-2.563-8.417
	C379.336,1.323,376.399,0,373.336,0H192.003c-3.292,0-6.396,1.51-8.417,4.104c-2.021,2.583-2.729,5.958-1.938,9.146l9.521,38.094
	l-40.042,60.073c-1.167,1.75-1.792,3.813-1.792,5.917v40.146l-20.479-40.969l19.938-59.802c0.729-2.188,0.729-4.563,0-6.75
	L134.565,7.292C133.107,2.937,129.024,0,124.44,0H32.003c-3.062,0-6,1.323-8.021,3.635c-2.021,2.302-2.958,5.375-2.563,8.417
	l59.333,453.229C84.086,491.917,106.836,512,133.669,512h138c26.833,0,49.583-20.083,52.917-46.656l16.232-124.01h8.518
	c38.583,0,74.542-17.281,98.646-47.417c12.542-15.688,21.271-34.406,25.229-54.146l16.979-85.198l0.479-5.24
	C490.669,102.281,452.399,64,405.336,64z M410.461,227.198c-1.958,9.74-6.271,18.99-12.458,26.75
	c-11.875,14.865-29.625,23.385-48.667,23.385h-0.141L368.742,128h36.594c10.896,0,19.979,8.188,21.208,18.865L410.461,227.198z"/>
<g>
</g>
<g>
</g>
<g>
</g>
<g>
</g>
<g>
</g>
<g>
</g>
<g>
</g>
<g>
</g>
<g>
</g>
<g>
</g>
<g>
</g>
<g>
</g>
<g>
</g>
<g>
</g>
<g>
</g>
</svg>
