<?xml version="1.0" encoding="iso-8859-1"?>
<!-- Generator: Adobe Illustrator 19.0.0, SVG Export Plug-In . SVG Version: 6.00 Build 0)  -->
<svg version="1.1" id="Capa_1" xmlns="http://www.w3.org/2000/svg" xmlns:xlink="http://www.w3.org/1999/xlink" x="0px" y="0px"
	 viewBox="0 0 512 512" style="enable-background:new 0 0 512 512;" xml:space="preserve">
<path style="fill:#303C42;" d="M256,0c-70.583,0-128,76.563-128,170.667c0,66.135,28.958,126.865,73.771,154.708
	c11.333,7.031,17.333,19.781,15.292,32.479l-13.75,85.104c-0.438,2.792-0.667,5.635-0.667,8.469v7.271
	C202.667,488.083,226.604,512,256,512c29.417,0,53.333-23.927,53.333-53.375l-0.021-7.219c0-2.865-0.208-5.708-0.667-8.469
	l-13.708-85.094c-2.042-12.688,3.958-25.427,15.271-32.458C355.042,297.552,384,236.823,384,170.667C384,76.563,326.583,0,256,0z"/>
<path style="fill:#8E532A;" d="M298.958,307.26c-18.646,11.583-28.479,32.771-25.063,53.979l13.688,85.156
	c0.271,1.656,0.396,3.333,0.396,5.042l0.021,7.219c0,17.646-14.375,32.01-32.021,32.01c-17.625,0-31.979-14.354-32-31.979v-7.26
	c0-1.729,0.146-3.448,0.396-5.115l13.729-85.063c3.417-21.219-6.417-42.417-25.083-54c-38.688-24.031-63.688-77.646-63.688-136.583
	c0-82.344,47.854-149.333,106.667-149.333s106.667,66.99,106.667,149.333C362.667,229.615,337.667,283.229,298.958,307.26z"/>
<path style="fill:#303C42;" d="M256,42.667c-47.854,0-85.333,56.229-85.333,128s37.479,128,85.333,128s85.333-56.229,85.333-128
	S303.854,42.667,256,42.667z"/>
<path style="fill:#FAFAFA;" d="M256,277.333c-34.688,0-64-48.844-64-106.667c0-32.624,9.516-62.021,23.878-81.768l37.477,31.216
	l-17.563,35.115c-2.063,4.104-1.25,9.063,2,12.313l21.333,21.333c2.083,2.083,4.813,3.125,7.542,3.125
	c2.729,0,5.458-1.042,7.542-3.125c4.167-4.167,4.167-10.917,0-15.083l-15.896-15.896l17.896-35.792
	c2.208-4.427,1.083-9.792-2.708-12.969l-42.984-35.82C238.382,67.422,246.988,64,256,64c34.688,0,64,48.844,64,106.667
	S290.688,277.333,256,277.333z"/>
<circle style="fill:#303C42;" cx="256" cy="458.667" r="10.667"/>
<linearGradient id="SVGID_1_" gradientUnits="userSpaceOnUse" x1="-41.9954" y1="637.9936" x2="-28.7574" y2="631.8206" gradientTransform="matrix(21.3333 0 0 -21.3333 996.3334 13791.667)">
	<stop  offset="0" style="stop-color:#FFFFFF;stop-opacity:0.2"/>
	<stop  offset="1" style="stop-color:#FFFFFF;stop-opacity:0"/>
</linearGradient>
<path style="fill:url(#SVGID_1_);" d="M256,0c-70.583,0-128,76.563-128,170.667c0,66.135,28.958,126.865,73.771,154.708
	c11.333,7.031,17.333,19.781,15.292,32.479l-13.75,85.104c-0.438,2.792-0.667,5.635-0.667,8.469v7.271
	C202.667,488.083,226.604,512,256,512c29.417,0,53.333-23.927,53.333-53.375l-0.021-7.219c0-2.865-0.208-5.708-0.667-8.469
	l-13.708-85.094c-2.042-12.688,3.958-25.427,15.271-32.458C355.042,297.552,384,236.823,384,170.667C384,76.563,326.583,0,256,0z"/>
<g>
</g>
<g>
</g>
<g>
</g>
<g>
</g>
<g>
</g>
<g>
</g>
<g>
</g>
<g>
</g>
<g>
</g>
<g>
</g>
<g>
</g>
<g>
</g>
<g>
</g>
<g>
</g>
<g>
</g>
</svg>
