<?xml version="1.0" encoding="iso-8859-1"?>
<!-- Generator: Adobe Illustrator 19.0.0, SVG Export Plug-In . SVG Version: 6.00 Build 0)  -->
<svg version="1.1" id="Capa_1" xmlns="http://www.w3.org/2000/svg" xmlns:xlink="http://www.w3.org/1999/xlink" x="0px" y="0px"
	 viewBox="0 0 469.333 469.333" style="enable-background:new 0 0 469.333 469.333;" xml:space="preserve">
<path style="fill:#303C42;" d="M466.208,451.125L316.681,301.587c28.503-32.043,45.986-74.095,45.986-120.254
	C362.667,81.344,281.313,0,181.333,0S0,81.344,0,181.333s81.354,181.333,181.333,181.333c46.161,0,88.22-17.486,120.266-45.995
	l149.526,149.536c2.083,2.083,4.813,3.125,7.542,3.125c2.729,0,5.458-1.042,7.542-3.125
	C470.375,462.042,470.375,455.292,466.208,451.125z"/>
<circle style="fill:#BBDEFB;" cx="181.333" cy="181.333" r="160"/>
<path style="opacity:0.1;enable-background:new    ;" d="M42.667,202.667c0-88.229,71.771-160,160-160
	c38.694,0,74.215,13.813,101.911,36.755c-29.371-35.458-73.71-58.089-123.245-58.089c-88.229,0-160,71.771-160,160
	c0,49.535,22.63,93.874,58.089,123.245C56.479,276.882,42.667,241.361,42.667,202.667z"/>
<circle style="opacity:0.4;fill:#FFFFFF;enable-background:new    ;" cx="224" cy="245.333" r="53.333"/>
<path style="fill:#303C42;" d="M138.667,234.667c-2.729,0-5.458-1.042-7.542-3.125c-4.167-4.167-4.167-10.917,0-15.083l38-38.01
	l-19.24-57.74c-1.688-5.042,0.594-10.542,5.344-12.917l77.063-38.531l-16.438-49.323c-1.865-5.594,1.156-11.635,6.74-13.49
	c5.646-1.875,11.635,1.156,13.49,6.74l19.365,58.104c1.688,5.042-0.594,10.542-5.344,12.917l-77.063,38.531l18.406,55.219
	c1.281,3.833,0.281,8.063-2.573,10.917l-42.667,42.667C144.125,233.625,141.396,234.667,138.667,234.667z"/>
<linearGradient id="SVGID_1_" gradientUnits="userSpaceOnUse" x1="-66.24" y1="619.2424" x2="-42.4256" y2="608.1403" gradientTransform="matrix(21.3333 0 0 -21.3333 1430.1112 13315.2227)">
	<stop  offset="0" style="stop-color:#FFFFFF;stop-opacity:0.2"/>
	<stop  offset="1" style="stop-color:#FFFFFF;stop-opacity:0"/>
</linearGradient>
<path style="fill:url(#SVGID_1_);" d="M466.208,451.125L316.681,301.587c28.503-32.043,45.986-74.095,45.986-120.254
	C362.667,81.344,281.313,0,181.333,0S0,81.344,0,181.333s81.354,181.333,181.333,181.333c46.161,0,88.22-17.486,120.266-45.995
	l149.526,149.536c2.083,2.083,4.813,3.125,7.542,3.125c2.729,0,5.458-1.042,7.542-3.125
	C470.375,462.042,470.375,455.292,466.208,451.125z"/>
<g>
</g>
<g>
</g>
<g>
</g>
<g>
</g>
<g>
</g>
<g>
</g>
<g>
</g>
<g>
</g>
<g>
</g>
<g>
</g>
<g>
</g>
<g>
</g>
<g>
</g>
<g>
</g>
<g>
</g>
</svg>
