<?xml version="1.0" encoding="iso-8859-1"?>
<!-- Generator: Adobe Illustrator 19.0.0, SVG Export Plug-In . SVG Version: 6.00 Build 0)  -->
<svg version="1.1" id="Capa_1" xmlns="http://www.w3.org/2000/svg" xmlns:xlink="http://www.w3.org/1999/xlink" x="0px" y="0px"
	 viewBox="0 0 512 512" style="enable-background:new 0 0 512 512;" xml:space="preserve">
<path style="fill:#303C42;" d="M504.813,254.448L475.271,121.49c-4.75-21.292-23.292-36.156-45.083-36.156
	c-25.458,0-46.188,20.719-46.188,46.177v7.156c0,5.896,4.771,10.667,10.667,10.667c5.896,0,10.667-4.771,10.667-10.667v-7.156
	c0-13.698,11.146-24.844,24.854-24.844c11.729,0,21.708,8.01,24.25,19.458l29.542,132.948c3.667,16.521,5.833,33.375,6.479,50.26
	h-0.87c-5.441-53.75-50.428-96-105.589-96c-48.228,0-88.613,32.385-101.758,76.398c-6.527-6.882-15.129-12.398-26.242-12.398
	s-19.715,5.517-26.242,12.398c-13.145-44.013-53.53-76.398-101.758-76.398c-55.16,0-100.147,42.25-105.589,96h-0.87
	c0.646-16.885,2.813-33.74,6.479-50.26l29.542-132.938c2.542-11.458,12.521-19.469,24.25-19.469
	c13.708,0,24.854,11.146,24.854,24.844v7.156c0,5.896,4.771,10.667,10.667,10.667S128,144.563,128,138.667v-7.156
	c0-25.458-20.729-46.177-46.188-46.177c-21.792,0-40.333,14.865-45.083,36.167L7.188,254.448C2.417,275.969,0,298.021,0,320
	c0,5.896,4.771,10.667,10.667,10.667h11.745c5.441,53.75,50.428,96,105.589,96c14.868,0,29.013-3.096,41.885-8.617
	c-0.043,1.142,0.319,0.807,0.837-0.456c36.789-16.174,62.608-52.496,63.676-94.939c2.143-5.964,10.667-23.988,21.602-23.988
	c10.654,0,19.07,17.02,21.599,23.956c1.43,57.576,48.487,104.044,106.401,104.044c55.16,0,100.147-42.25,105.589-96h11.745
	c5.896,0,10.667-4.771,10.667-10.667C512,298.021,509.583,275.969,504.813,254.448z"/>
<g>
	<path style="fill:#BBDEFB;" d="M42.667,320c0-40.757,28.76-74.831,67.03-83.246l-23.238,46.475
		c-2.625,5.271-0.5,11.677,4.771,14.313l33.125,16.563l-16.563,33.125c-1.854,3.719-1.396,8.188,1.208,11.438l35.967,44.951
		c-5.487,1.112-11.158,1.716-16.967,1.716C80.938,405.333,42.667,367.052,42.667,320z"/>
	<path style="fill:#BBDEFB;" d="M166.145,395.923l-36.228-45.257l18.292-36.563c2.625-5.271,0.5-11.677-4.771-14.313l-33.125-16.563
		l23.964-47.928c44.087,3.279,79.057,39.796,79.057,84.699C213.333,353.277,194.003,381.859,166.145,395.923z"/>
	<circle style="fill:#BBDEFB;" cx="384" cy="320" r="85.333"/>
</g>
<linearGradient id="SVGID_1_" gradientUnits="userSpaceOnUse" x1="-44.3307" y1="633.1672" x2="-37.0858" y2="629.7883" gradientTransform="matrix(21.3333 0 0 -21.3333 996.3334 13791.667)">
	<stop  offset="0" style="stop-color:#FFFFFF;stop-opacity:0.7"/>
	<stop  offset="1" style="stop-color:#FFFFFF;stop-opacity:0"/>
</linearGradient>
<path style="fill:url(#SVGID_1_);" d="M107.792,347.229l16.563-33.125l-33.125-16.563c-5.271-2.635-7.396-9.042-4.771-14.313
	l23.238-46.475c-38.27,8.415-67.03,42.49-67.03,83.246c0,47.052,38.271,85.333,85.333,85.333c5.81,0,11.48-0.604,16.967-1.716
	L109,358.667C106.396,355.417,105.938,350.948,107.792,347.229z M134.276,235.301l-23.964,47.928l33.125,16.563
	c5.271,2.635,7.396,9.042,4.771,14.313l-18.292,36.563l36.228,45.257c27.858-14.064,47.189-42.646,47.189-75.923
	C213.333,275.096,178.363,238.579,134.276,235.301z"/>
<linearGradient id="SVGID_2_" gradientUnits="userSpaceOnUse" x1="-32.3294" y1="633.1749" x2="-25.0769" y2="629.7938" gradientTransform="matrix(21.3333 0 0 -21.3333 996.3334 13791.667)">
	<stop  offset="0" style="stop-color:#FFFFFF;stop-opacity:0.7"/>
	<stop  offset="1" style="stop-color:#FFFFFF;stop-opacity:0"/>
</linearGradient>
<circle style="fill:url(#SVGID_2_);" cx="384" cy="320" r="85.333"/>
<linearGradient id="SVGID_3_" gradientUnits="userSpaceOnUse" x1="-45.4693" y1="639.8659" x2="-23.5158" y2="629.6301" gradientTransform="matrix(21.3333 0 0 -21.3333 996.3334 13791.667)">
	<stop  offset="0" style="stop-color:#FFFFFF;stop-opacity:0.2"/>
	<stop  offset="1" style="stop-color:#FFFFFF;stop-opacity:0"/>
</linearGradient>
<path style="fill:url(#SVGID_3_);" d="M504.813,254.448L475.271,121.49c-4.75-21.292-23.292-36.156-45.083-36.156
	c-25.458,0-46.188,20.719-46.188,46.177v7.156c0,5.896,4.771,10.667,10.667,10.667c5.896,0,10.667-4.771,10.667-10.667v-7.156
	c0-13.698,11.146-24.844,24.854-24.844c11.729,0,21.708,8.01,24.25,19.458l29.542,132.948c3.667,16.521,5.833,33.375,6.479,50.26
	h-0.87c-5.441-53.75-50.428-96-105.589-96c-48.228,0-88.613,32.385-101.758,76.398c-6.527-6.882-15.129-12.398-26.242-12.398
	s-19.715,5.517-26.242,12.398c-13.145-44.013-53.53-76.398-101.758-76.398c-55.16,0-100.147,42.25-105.589,96h-0.87
	c0.646-16.885,2.813-33.74,6.479-50.26l29.542-132.938c2.542-11.458,12.521-19.469,24.25-19.469
	c13.708,0,24.854,11.146,24.854,24.844v7.156c0,5.896,4.771,10.667,10.667,10.667S128,144.563,128,138.667v-7.156
	c0-25.458-20.729-46.177-46.188-46.177c-21.792,0-40.333,14.865-45.083,36.167L7.188,254.448C2.417,275.969,0,298.021,0,320
	c0,5.896,4.771,10.667,10.667,10.667h11.745c5.441,53.75,50.428,96,105.589,96c14.868,0,29.013-3.096,41.885-8.617
	c-0.043,1.142,0.319,0.807,0.837-0.456c36.789-16.174,62.608-52.496,63.676-94.939c2.143-5.964,10.667-23.988,21.602-23.988
	c10.654,0,19.07,17.02,21.599,23.956c1.43,57.576,48.487,104.044,106.401,104.044c55.16,0,100.147-42.25,105.589-96h11.745
	c5.896,0,10.667-4.771,10.667-10.667C512,298.021,509.583,275.969,504.813,254.448z"/>
<g>
</g>
<g>
</g>
<g>
</g>
<g>
</g>
<g>
</g>
<g>
</g>
<g>
</g>
<g>
</g>
<g>
</g>
<g>
</g>
<g>
</g>
<g>
</g>
<g>
</g>
<g>
</g>
<g>
</g>
</svg>
