<?xml version="1.0" encoding="iso-8859-1"?>
<!-- Generator: Adobe Illustrator 19.0.0, SVG Export Plug-In . SVG Version: 6.00 Build 0)  -->
<svg version="1.1" id="Capa_1" xmlns="http://www.w3.org/2000/svg" xmlns:xlink="http://www.w3.org/1999/xlink" x="0px" y="0px"
	 viewBox="0 0 426.667 426.667" style="enable-background:new 0 0 426.667 426.667;" xml:space="preserve">
<path style="fill:#303C42;" d="M373.333,0h-96c-3.354,0-6.521,1.583-8.542,4.271l-32,42.667c-2.417,3.229-2.813,7.552-1,11.167
	l17.896,35.792l-26.604,26.615l7.042-21.135c1.271-3.833,0.271-8.063-2.583-10.917l-36.125-36.125l26.458-35.271
	c2.417-3.229,2.813-7.552,1-11.167S217.375,0,213.333,0h-160c-5.896,0-10.667,4.771-10.667,10.667V64
	c0,90.504,70.868,164.576,160,170.126v161.954l-65.5,9.357c-5.542,0.792-9.542,5.74-9.146,11.323
	c0.396,5.583,5.042,9.906,10.646,9.906H288c5.604,0,10.25-4.323,10.646-9.906c0.396-5.583-3.604-10.531-9.146-11.323l-65.5-9.357
	V234.126C313.132,228.576,384,154.504,384,64V10.667C384,4.771,379.229,0,373.333,0z"/>
<path style="fill:#FAFAFA;" d="M362.667,64c0,82.344-67,149.333-149.333,149.333S64,146.344,64,64V21.333h128l-19.208,25.604
	c-3.167,4.24-2.75,10.188,1,13.938l38,38.01l-19.25,57.74c-1.563,4.698,0.313,9.844,4.521,12.448
	c4.188,2.615,9.625,1.99,13.146-1.531l64-64c3.25-3.25,4.063-8.208,2-12.313l-18.396-36.771l24.854-33.125h80V64z"/>
<path style="opacity:0.1;enable-background:new    ;" d="M341.333,21.333V32c0,82.344-67,149.333-149.333,149.333
	c-44.846,0-85.042-19.969-112.44-51.375c24.417,49.31,75.133,83.375,133.773,83.375c82.333,0,149.333-66.99,149.333-149.333V21.333
	H341.333z"/>
<linearGradient id="SVGID_1_" gradientUnits="userSpaceOnUse" x1="-87.265" y1="597.365" x2="-70.0453" y2="589.3347" gradientTransform="matrix(21.3333 0 0 -21.3333 1863.8889 12838.7783)">
	<stop  offset="0" style="stop-color:#FFFFFF;stop-opacity:0.2"/>
	<stop  offset="1" style="stop-color:#FFFFFF;stop-opacity:0"/>
</linearGradient>
<path style="fill:url(#SVGID_1_);" d="M373.333,0h-96c-3.354,0-6.521,1.583-8.542,4.271l-32,42.667
	c-2.417,3.229-2.813,7.552-1,11.167l17.896,35.792l-26.604,26.615l7.042-21.135c1.271-3.833,0.271-8.063-2.583-10.917
	l-36.125-36.125l26.458-35.271c2.417-3.229,2.813-7.552,1-11.167S217.375,0,213.333,0h-160c-5.896,0-10.667,4.771-10.667,10.667V64
	c0,90.504,70.868,164.576,160,170.126v161.954l-65.5,9.357c-5.542,0.792-9.542,5.74-9.146,11.323
	c0.396,5.583,5.042,9.906,10.646,9.906H288c5.604,0,10.25-4.323,10.646-9.906c0.396-5.583-3.604-10.531-9.146-11.323l-65.5-9.357
	V234.126C313.132,228.576,384,154.504,384,64V10.667C384,4.771,379.229,0,373.333,0z"/>
<g>
</g>
<g>
</g>
<g>
</g>
<g>
</g>
<g>
</g>
<g>
</g>
<g>
</g>
<g>
</g>
<g>
</g>
<g>
</g>
<g>
</g>
<g>
</g>
<g>
</g>
<g>
</g>
<g>
</g>
</svg>
