<?xml version="1.0" encoding="iso-8859-1"?>
<!-- Generator: Adobe Illustrator 19.0.0, SVG Export Plug-In . SVG Version: 6.00 Build 0)  -->
<svg version="1.1" id="Capa_1" xmlns="http://www.w3.org/2000/svg" xmlns:xlink="http://www.w3.org/1999/xlink" x="0px" y="0px"
	 viewBox="0 0 512 512" style="enable-background:new 0 0 512 512;" xml:space="preserve">
<path style="fill:#303C42;" d="M442.81,317.073l-63.688-38.219c-4.146-2.5-9.542-1.865-13.021,1.604l-55.313,55.302l-56.604-75.49
	c-1.854-2.479-4.708-4.021-7.792-4.24c-2.979-0.198-6.104,0.906-8.292,3.094l-56.458,56.458l-35.125-35.125
	c-2.646-2.646-6.521-3.708-10.083-2.813l-64.312,15.823c-4.771,1.167-8.125,5.448-8.125,10.354c0,2.906,0.083,5.833,0.167,8.708
	c0.063,2.583,0.146,5.125,0.146,7.563c0,105.813,86.125,191.906,192,191.906c104,0,188.208-81.448,191.688-185.427
	C448.122,322.708,446.143,319.063,442.81,317.073z"/>
<path style="fill:#DFE1DF;" d="M256.31,490.667c-94.104,0-170.667-76.521-170.667-170.573c0-2.563-0.083-5.24-0.146-7.948
	l50.188-12.354l38.417,38.417c4.167,4.167,10.917,4.167,15.083,0l55.313-55.302l56.604,75.49c1.854,2.479,4.708,4.021,7.792,4.24
	c3.042,0.25,6.125-0.906,8.292-3.094l58.104-58.115l51.062,30.646C420.206,421.5,346.664,490.667,256.31,490.667z"/>
<path style="fill:#303C42;" d="M89.351,247.396l46.354-11.583l38.396,38.396c4.167,4.167,10.917,4.167,15.083,0l55.313-55.302
	l56.604,75.49c1.854,2.479,4.708,4.021,7.792,4.24c0.25,0.021,0.5,0.031,0.75,0.031c2.813,0,5.542-1.115,7.542-3.125l58.104-58.115
	l49.854,29.906c3.583,2.177,8.167,2,11.625-0.427c3.438-2.427,5.146-6.667,4.313-10.802C419.893,149.76,348.539,0,256.31,0
	C176.351,0,105.289,117.958,76.414,234.49c-0.896,3.625,0.167,7.469,2.813,10.115C81.893,247.24,85.706,248.333,89.351,247.396z"/>
<path style="fill:#DFE1DF;" d="M256.31,21.333c66.792,0,131.313,107.375,158.417,214.875l-35.604-21.354
	c-4.146-2.5-9.542-1.865-13.021,1.604l-55.313,55.302l-56.604-75.49c-1.854-2.479-4.708-4.021-7.792-4.24
	c-0.25-0.021-0.5-0.031-0.75-0.031c-2.813,0-5.542,1.115-7.542,3.125l-56.458,56.458l-35.125-35.125
	c-2.646-2.635-6.479-3.74-10.125-2.802l-34.667,8.656C130.393,121.896,191.768,21.333,256.31,21.333z"/>
<path style="opacity:0.1;enable-background:new    ;" d="M381.531,305.173C368.202,386.044,297.963,448,213.331,448
	c-35.876,0-69.158-11.177-96.664-30.152c30.902,43.961,81.926,72.819,139.643,72.819c90.354,0,163.896-69.167,170.042-158.594
	L381.531,305.173z"/>
<path style="opacity:0.1;enable-background:new    ;" d="M379.122,214.854l35.604,21.354
	c-23.277-92.324-74.171-184.352-130.382-208.552c44.079,43.698,77.404,120.922,91.792,186.564
	C377.139,214.47,378.207,214.302,379.122,214.854z"/>
<linearGradient id="SVGID_1_" gradientUnits="userSpaceOnUse" x1="-42.5257" y1="637.8889" x2="-25.4746" y2="629.9388" gradientTransform="matrix(21.3333 0 0 -21.3333 996.3333 13791.667)">
	<stop  offset="0" style="stop-color:#FFFFFF;stop-opacity:0.2"/>
	<stop  offset="1" style="stop-color:#FFFFFF;stop-opacity:0"/>
</linearGradient>
<path style="fill:url(#SVGID_1_);" d="M442.81,317.073l-63.688-38.219c-4.146-2.5-9.542-1.865-13.021,1.604l-55.313,55.302
	l-56.604-75.49c-1.854-2.479-4.708-4.021-7.792-4.24c-2.979-0.198-6.104,0.906-8.292,3.094l-56.458,56.458l-35.125-35.125
	c-2.646-2.646-6.521-3.708-10.083-2.813l-64.312,15.823c-4.771,1.167-8.125,5.448-8.125,10.354c0,2.906,0.083,5.833,0.167,8.708
	c0.063,2.583,0.146,5.125,0.146,7.563c0,105.813,86.125,191.906,192,191.906c104,0,188.208-81.448,191.688-185.427
	C448.122,322.708,446.143,319.063,442.81,317.073z M89.351,247.396l46.354-11.583l38.396,38.396c4.167,4.167,10.917,4.167,15.083,0
	l55.313-55.302l56.604,75.49c1.854,2.479,4.708,4.021,7.792,4.24c0.25,0.021,0.5,0.031,0.75,0.031c2.813,0,5.542-1.115,7.542-3.125
	l58.104-58.115l49.854,29.906c3.583,2.177,8.167,2,11.625-0.427c3.438-2.427,5.146-6.667,4.313-10.802
	C419.893,149.76,348.539,0,256.31,0C176.351,0,105.289,117.958,76.414,234.49c-0.896,3.625,0.167,7.469,2.813,10.115
	C81.893,247.24,85.706,248.333,89.351,247.396z"/>
<g>
</g>
<g>
</g>
<g>
</g>
<g>
</g>
<g>
</g>
<g>
</g>
<g>
</g>
<g>
</g>
<g>
</g>
<g>
</g>
<g>
</g>
<g>
</g>
<g>
</g>
<g>
</g>
<g>
</g>
</svg>
