<?xml version="1.0" encoding="iso-8859-1"?>
<!-- Generator: Adobe Illustrator 19.0.0, SVG Export Plug-In . SVG Version: 6.00 Build 0)  -->
<svg version="1.1" id="Capa_1" xmlns="http://www.w3.org/2000/svg" xmlns:xlink="http://www.w3.org/1999/xlink" x="0px" y="0px"
	 viewBox="0 0 512 512" style="enable-background:new 0 0 512 512;" xml:space="preserve">
<path style="fill:#303C42;" d="M256,0C114.844,0,0,114.844,0,256s114.844,256,256,256c39.5,0,77.688-9.01,113.51-26.792
	c4.771-2.365,7.063-7.875,5.375-12.927l-12.771-38.323c-0.885-2.677-2.813-4.896-5.344-6.167l-37.813-18.906l-13.25-79.49
	l37.76,50.333c2.01,2.688,5.177,4.271,8.531,4.271h59.583l30.208,30.208c2.167,2.167,5.25,3.313,8.198,3.104
	c3.052-0.188,5.875-1.677,7.75-4.083C493.24,367.76,512,313.396,512,256C512,114.844,397.156,0,256,0z"/>
<path style="fill:#FAFAFA;" d="M296.531,281.604c-2.948-3.948-8.208-5.323-12.729-3.406c-4.521,1.927-7.135,6.708-6.323,11.552
	l7.658,45.947c-9.331,3.415-19.005,5.637-29.137,5.637c-47.052,0-85.333-38.281-85.333-85.333s38.281-85.333,85.333-85.333
	s85.333,38.281,85.333,85.333c0,20.987-8.066,40.76-21.799,56.271L296.531,281.604z"/>
<path style="fill:#D5D0CA;" d="M448.135,390.385l-24.594-24.594c-2-2-4.708-3.125-7.542-3.125h-58.667l-24.549-32.729
	c19.061-19.79,29.883-46.194,29.883-73.938c0-58.813-47.854-106.667-106.667-106.667S149.333,197.188,149.333,256
	S197.188,362.667,256,362.667c11.285,0,22.241-1.81,32.763-5.216l10.049,60.299c0.563,3.365,2.698,6.26,5.75,7.792l38.719,19.354
	l8.385,25.167C321.26,483.74,289.125,490.667,256,490.667C126.604,490.667,21.333,385.396,21.333,256S126.604,21.333,256,21.333
	S490.667,126.604,490.667,256C490.667,304.563,476,350.771,448.135,390.385z"/>
<circle style="fill:#303C42;" cx="256" cy="256" r="21.333"/>
<path style="fill:#FAFAFA;" d="M256,64c-51.406,0-99.708,20.052-135.99,56.469c-4.167,4.177-4.146,10.927,0.021,15.083
	c2.083,2.073,4.813,3.115,7.531,3.115c2.74,0,5.469-1.042,7.552-3.135c32.26-32.375,75.188-50.198,120.885-50.198
	c5.896,0,10.667-4.771,10.667-10.667C266.667,68.771,261.896,64,256,64z"/>
<linearGradient id="SVGID_1_" gradientUnits="userSpaceOnUse" x1="-45.5783" y1="639.5552" x2="-23.8288" y2="629.4139" gradientTransform="matrix(21.3333 0 0 -21.3333 996.3334 13791.667)">
	<stop  offset="0" style="stop-color:#FFFFFF;stop-opacity:0.2"/>
	<stop  offset="1" style="stop-color:#FFFFFF;stop-opacity:0"/>
</linearGradient>
<path style="fill:url(#SVGID_1_);" d="M256,0C114.844,0,0,114.844,0,256s114.844,256,256,256c39.5,0,77.688-9.01,113.51-26.792
	c4.771-2.365,7.063-7.875,5.375-12.927l-12.771-38.323c-0.885-2.677-2.813-4.896-5.344-6.167l-37.813-18.906l-13.25-79.49
	l37.76,50.333c2.01,2.688,5.177,4.271,8.531,4.271h59.583l30.208,30.208c2.167,2.167,5.25,3.313,8.198,3.104
	c3.052-0.188,5.875-1.677,7.75-4.083C493.24,367.76,512,313.396,512,256C512,114.844,397.156,0,256,0z"/>
<g>
</g>
<g>
</g>
<g>
</g>
<g>
</g>
<g>
</g>
<g>
</g>
<g>
</g>
<g>
</g>
<g>
</g>
<g>
</g>
<g>
</g>
<g>
</g>
<g>
</g>
<g>
</g>
<g>
</g>
</svg>
