<?xml version="1.0" encoding="iso-8859-1"?>
<!-- Generator: Adobe Illustrator 19.0.0, SVG Export Plug-In . SVG Version: 6.00 Build 0)  -->
<svg version="1.1" id="Capa_1" xmlns="http://www.w3.org/2000/svg" xmlns:xlink="http://www.w3.org/1999/xlink" x="0px" y="0px"
	 viewBox="0 0 512 512" style="enable-background:new 0 0 512 512;" xml:space="preserve">
<g>
	<path style="fill:#303C42;" d="M341.333,192c5.896,0,10.667-4.771,10.667-10.667c0-5.896-4.771-10.667-10.667-10.667
		c-11.76,0-21.333-9.573-21.333-21.333c0-10.479,7.885-19.5,18.333-20.99c3.542-0.51,6.594-2.75,8.125-5.969
		c1.542-3.229,1.365-7.01-0.479-10.073c-3.083-5.156-4.646-10.635-4.646-16.302c0-17.646,14.354-32,32-32
		c10.083,0,19.396,4.729,25.552,12.969c1.698,2.281,4.24,3.781,7.052,4.177c2.781,0.438,5.667-0.333,7.938-2.063
		c3.802-2.896,8.229-4.417,12.792-4.417C438.427,74.667,448,84.24,448,96c0,5.896,4.771,10.667,10.667,10.667
		c17.646,0,32,14.354,32,32s-14.354,32-32,32c-5.896,0-10.667,4.771-10.667,10.667c0,5.896,4.771,10.667,10.667,10.667
		C488.073,192,512,168.073,512,138.667c0-26.156-18.927-47.979-43.802-52.479c-4.448-18.813-21.385-32.854-41.531-32.854
		c-5.948,0-11.74,1.25-17.125,3.656c-9.792-9.188-22.563-14.323-36.208-14.323C343.927,42.667,320,66.594,320,96
		c0,5.156,0.792,10.302,2.323,15.281c-14.094,7.073-23.656,21.677-23.656,38.052C298.667,172.865,317.802,192,341.333,192z"/>
	<path style="fill:#303C42;" d="M485.26,295.844l-71.445-11.909L435.5,262.25c3.969-3.969,9.469-6.25,15.083-6.25h50.75
		c5.896,0,10.667-4.771,10.667-10.667c0-5.896-4.771-10.667-10.667-10.667h-50.75c-11.229,0-22.229,4.552-30.167,12.5
		l-32.458,32.458l-8.313-1.385l-30.604-45.906c-7.927-11.896-21.198-19-35.5-19h-157.75c-14.302,0-27.573,7.104-35.5,19
		l-30.883,46.324l-65.18,16.29C9.969,298.51,0,311.281,0,325.99v53.594c0,12.573,4.896,24.396,13.792,33.292
		c8.896,8.896,20.719,13.792,33.292,13.792h28.663c4.956,24.314,26.5,42.667,52.254,42.667s47.298-18.353,52.254-42.667h140.826
		c4.956,24.314,26.5,42.667,52.254,42.667s47.298-18.353,52.254-42.667h47.819c8.146,0,15.458-4.521,19.083-11.792l17.26-34.521
		c0.375-0.75,0.656-1.542,0.844-2.354l1.115-4.708c0.198-0.813,0.292-1.646,0.292-2.479v-43.406
		C512,311.688,500.75,298.417,485.26,295.844z"/>
</g>
<path style="fill:#BBDEFB;" d="M138.042,244.167c3.969-5.948,10.604-9.5,17.75-9.5h157.75c7.146,0,13.781,3.552,17.75,9.5
	l22.111,33.167H115.931L138.042,244.167z"/>
<linearGradient id="SVGID_1_" gradientUnits="userSpaceOnUse" x1="-40.0387" y1="636.1223" x2="-30.8955" y2="631.8586" gradientTransform="matrix(21.3333 0 0 -21.3333 996.3334 13791.667)">
	<stop  offset="0" style="stop-color:#FFFFFF;stop-opacity:0.2"/>
	<stop  offset="1" style="stop-color:#FFFFFF;stop-opacity:0"/>
</linearGradient>
<path style="fill:url(#SVGID_1_);" d="M138.042,244.167c3.969-5.948,10.604-9.5,17.75-9.5h157.75c7.146,0,13.781,3.552,17.75,9.5
	l22.111,33.167H115.931L138.042,244.167z"/>
<circle style="fill:#B3B3B3;" cx="128" cy="416" r="32"/>
<path style="opacity:0.1;enable-background:new    ;" d="M144.572,388.762c2.961,4.849,4.762,10.486,4.762,16.572
	c0,17.646-14.354,32-32,32c-6.086,0-11.723-1.801-16.572-4.762C106.387,441.781,116.44,448,128,448c17.646,0,32-14.354,32-32
	C160,404.44,153.781,394.387,144.572,388.762z"/>
<circle style="fill:#B3B3B3;" cx="373.333" cy="416" r="32"/>
<path style="opacity:0.1;enable-background:new    ;" d="M389.905,388.762c2.961,4.849,4.762,10.486,4.762,16.572
	c0,17.646-14.354,32-32,32c-6.086,0-11.723-1.801-16.572-4.762c5.625,9.21,15.678,15.428,27.238,15.428c17.646,0,32-14.354,32-32
	C405.333,404.44,399.115,394.387,389.905,388.762z"/>
<path id="SVGCleanerId_0" style="fill:#B3B3B3;" d="M490.667,369.573l-17.26,35.76h-47.819c-4.956-24.314-26.5-42.667-52.254-42.667
	s-47.298,18.353-52.254,42.667H180.254c-4.956-24.314-26.5-42.667-52.254-42.667s-47.298,18.353-52.254,42.667H47.083
	c-6.875,0-13.344-2.677-18.208-7.542c-4.865-4.865-7.542-11.333-7.542-18.208V325.99c0-4.906,3.323-9.156,8.073-10.354
	l67.906-16.969h275.146l109.302,18.219c5.156,0.854,8.906,5.281,8.906,10.521V369.573z"/>
<g>
	<path id="SVGCleanerId_0_1_" style="fill:#B3B3B3;" d="M490.667,369.573l-17.26,35.76h-47.819
		c-4.956-24.314-26.5-42.667-52.254-42.667s-47.298,18.353-52.254,42.667H180.254c-4.956-24.314-26.5-42.667-52.254-42.667
		s-47.298,18.353-52.254,42.667H47.083c-6.875,0-13.344-2.677-18.208-7.542c-4.865-4.865-7.542-11.333-7.542-18.208V325.99
		c0-4.906,3.323-9.156,8.073-10.354l67.906-16.969h275.146l109.302,18.219c5.156,0.854,8.906,5.281,8.906,10.521V369.573z"/>
</g>
<path style="opacity:0.1;enable-background:new    ;" d="M440.433,384c-4.262,0-7.877-2.65-9.736-6.486
	c-8.924-18.413-26.324-31.816-47.248-35.161c-3.283-0.634-6.651-1.02-10.116-1.02s-6.833,0.385-10.116,1.02
	c-20.928,3.346-38.33,16.752-47.252,35.172c-1.855,3.829-5.463,6.475-9.719,6.475l-111.182,0c-4.242,0-7.84-2.638-9.688-6.456
	c-8.919-18.429-26.326-31.843-47.261-35.19c-3.283-0.634-6.651-1.02-10.116-1.02s-6.833,0.385-10.116,1.02
	c-20.917,3.344-38.312,16.738-47.24,35.141c-1.867,3.847-5.493,6.506-9.769,6.506h-7.542c-6.875,0-19.594-2.677-24.458-7.542
	s-7.542-11.333-7.542-18.208v21.333c0,6.875,2.677,13.344,7.542,18.208c4.865,4.865,11.333,7.542,18.208,7.542h28.663
	c4.956-24.314,26.5-42.667,52.254-42.667s47.298,18.353,52.254,42.667H192h117.333h11.746c4.956-24.314,26.5-42.667,52.254-42.667
	s47.298,18.353,52.254,42.667h11.746h36.073l17.26-35.76V348.24l-14.377,29.786c-1.763,3.653-5.461,5.974-9.517,5.974L440.433,384z"
	/>
<linearGradient id="SVGID_2_" gradientUnits="userSpaceOnUse" x1="-43.359" y1="638.7103" x2="-22.6269" y2="629.0446" gradientTransform="matrix(21.3333 0 0 -21.3333 996.3334 13791.667)">
	<stop  offset="0" style="stop-color:#FFFFFF;stop-opacity:0.2"/>
	<stop  offset="1" style="stop-color:#FFFFFF;stop-opacity:0"/>
</linearGradient>
<path style="fill:url(#SVGID_2_);" d="M341.333,192c5.896,0,10.667-4.771,10.667-10.667c0-5.896-4.771-10.667-10.667-10.667
	c-11.76,0-21.333-9.573-21.333-21.333c0-10.479,7.885-19.5,18.333-20.99c3.542-0.51,6.594-2.75,8.125-5.969
	c1.542-3.229,1.365-7.01-0.479-10.073c-3.083-5.156-4.646-10.635-4.646-16.302c0-17.646,14.354-32,32-32
	c10.083,0,19.396,4.729,25.552,12.969c1.698,2.281,4.24,3.781,7.052,4.177c2.781,0.438,5.667-0.333,7.938-2.063
	c3.802-2.896,8.229-4.417,12.792-4.417C438.427,74.667,448,84.24,448,96c0,5.896,4.771,10.667,10.667,10.667
	c17.646,0,32,14.354,32,32s-14.354,32-32,32c-5.896,0-10.667,4.771-10.667,10.667c0,5.896,4.771,10.667,10.667,10.667
	C488.073,192,512,168.073,512,138.667c0-26.156-18.927-47.979-43.802-52.479c-4.448-18.813-21.385-32.854-41.531-32.854
	c-5.948,0-11.74,1.25-17.125,3.656c-9.792-9.188-22.563-14.323-36.208-14.323C343.927,42.667,320,66.594,320,96
	c0,5.156,0.792,10.302,2.323,15.281c-14.094,7.073-23.656,21.677-23.656,38.052C298.667,172.865,317.802,192,341.333,192z
	 M450.583,256h50.75c5.896,0,10.667-4.771,10.667-10.667c0-5.896-4.771-10.667-10.667-10.667h-50.75
	c-11.229,0-22.229,4.552-30.167,12.5l-32.458,32.458l-8.313-1.385l-30.604-45.906c-7.927-11.896-21.198-19-35.5-19h-157.75
	c-14.302,0-27.573,7.104-35.5,19l-30.883,46.324l-65.18,16.29C9.969,298.51,0,311.281,0,325.99v53.594
	c0,12.573,4.896,24.396,13.792,33.292c8.896,8.896,20.719,13.792,33.292,13.792h28.663c4.956,24.314,26.5,42.667,52.254,42.667
	s47.298-18.353,52.254-42.667h140.826c4.956,24.314,26.5,42.667,52.254,42.667s47.298-18.353,52.254-42.667h47.819
	c8.146,0,15.458-4.521,19.083-11.792l17.26-34.521c0.375-0.75,0.656-1.542,0.844-2.354l1.115-4.708
	c0.198-0.813,0.292-1.646,0.292-2.479v-43.406c0-15.719-11.25-28.99-26.74-31.563l-71.445-11.909L435.5,262.25
	C439.469,258.281,444.969,256,450.583,256z"/>
<g>
</g>
<g>
</g>
<g>
</g>
<g>
</g>
<g>
</g>
<g>
</g>
<g>
</g>
<g>
</g>
<g>
</g>
<g>
</g>
<g>
</g>
<g>
</g>
<g>
</g>
<g>
</g>
<g>
</g>
</svg>
