<?xml version="1.0" encoding="iso-8859-1"?>
<!-- Generator: Adobe Illustrator 19.0.0, SVG Export Plug-In . SVG Version: 6.00 Build 0)  -->
<svg version="1.1" id="Capa_1" xmlns="http://www.w3.org/2000/svg" xmlns:xlink="http://www.w3.org/1999/xlink" x="0px" y="0px"
	 viewBox="0 0 512 512" style="enable-background:new 0 0 512 512;" xml:space="preserve">
<path style="fill:#303C42;" d="M416,256h-10.667v-32c0-5.896-4.771-10.667-10.667-10.667c-5.896,0-10.667,4.771-10.667,10.667v32
	h-10.667c-5.896,0-10.667,4.771-10.667,10.667v112c0,38.229-31.104,69.333-69.333,69.333c-36.402,0-66.017-28.298-68.794-64h20.794
	c4.365,0,8.281-2.656,9.906-6.708l28.938-72.333c9.615-24.031,14.49-49.354,14.49-75.271V160c0-13.888-8.944-25.617-21.333-30.035
	V10.667C277.333,4.771,272.563,0,266.667,0H117.333c-5.896,0-10.667,4.771-10.667,10.667v119.298
	C94.277,134.383,85.333,146.112,85.333,160v69.688c0,25.917,4.875,51.24,14.49,75.271l28.938,72.333
	c1.625,4.052,5.542,6.708,9.906,6.708h21.604c2.829,71.039,61.342,128,133.063,128c73.521,0,133.333-59.813,133.333-133.333v-112
	C426.667,260.771,421.896,256,416,256z"/>
<rect x="128" y="21.333" style="fill:#DFE1DF;" width="128" height="106.667"/>
<path style="fill:#D5D0CA;" d="M119.635,297.042c-8.604-21.51-12.969-44.167-12.969-67.354V160c0-5.885,4.781-10.667,10.667-10.667
	h149.333c5.885,0,10.667,4.781,10.667,10.667v69.688c0,23.188-4.365,45.844-12.969,67.354l-26.25,65.625h-92.229L119.635,297.042z"
	/>
<path style="opacity:0.2;fill:#FFFFFF;enable-background:new    ;" d="M138.667,229.688V160c0-5.885,2.988-10.667,6.667-10.667h-28
	c-5.885,0-10.667,4.781-10.667,10.667v69.688c0,23.188,4.365,45.844,12.969,67.354l26.25,65.625h17.293l-16.406-65.625
	C141.395,275.531,138.667,252.875,138.667,229.688z"/>
<path style="opacity:0.1;enable-background:new    ;" d="M266.667,149.333h-28c3.678,0,6.667,4.781,6.667,10.667v69.688
	c0,23.188-2.728,45.844-8.105,67.354l-16.406,65.625h17.293l26.25-65.625c8.604-21.51,12.969-44.167,12.969-67.354V160
	C277.333,154.115,272.552,149.333,266.667,149.333z"/>
<path style="fill:#00AAE7;" d="M405.333,378.667c0,61.76-50.24,112-112,112c-59.934,0-108.611-47.427-111.461-106.667h21.333
	c2.823,47.467,41.965,85.333,90.128,85.333c49.99,0,90.667-40.677,90.667-90.667V277.333h21.333V378.667z"/>
<g>
	<path style="fill:#303C42;" d="M160,42.667c-5.896,0-10.667,4.771-10.667,10.667V96c0,5.896,4.771,10.667,10.667,10.667
		c5.896,0,10.667-4.771,10.667-10.667V53.333C170.667,47.438,165.896,42.667,160,42.667z"/>
	<path style="fill:#303C42;" d="M224,42.667c-5.896,0-10.667,4.771-10.667,10.667V96c0,5.896,4.771,10.667,10.667,10.667
		c5.896,0,10.667-4.771,10.667-10.667V53.333C234.667,47.438,229.896,42.667,224,42.667z"/>
	<path style="fill:#303C42;" d="M416,0h-42.667c-5.896,0-10.667,4.771-10.667,10.667v128c0,5.896,4.771,10.667,10.667,10.667H384v32
		c0,5.896,4.771,10.667,10.667,10.667c5.896,0,10.667-4.771,10.667-10.667v-32H416c5.896,0,10.667-4.771,10.667-10.667v-128
		C426.667,4.771,421.896,0,416,0z"/>
</g>
<rect x="384" y="21.333" style="fill:#00AAE7;" width="21.333" height="106.667"/>
<linearGradient id="SVGID_1_" gradientUnits="userSpaceOnUse" x1="-44.1878" y1="640.7659" x2="-24.6869" y2="631.6748" gradientTransform="matrix(21.3333 0 0 -21.3333 996.3334 13791.667)">
	<stop  offset="0" style="stop-color:#FFFFFF;stop-opacity:0.2"/>
	<stop  offset="1" style="stop-color:#FFFFFF;stop-opacity:0"/>
</linearGradient>
<path style="fill:url(#SVGID_1_);" d="M416,256h-10.667v-32c0-5.896-4.771-10.667-10.667-10.667
	c-5.896,0-10.667,4.771-10.667,10.667v32h-10.667c-5.896,0-10.667,4.771-10.667,10.667v112c0,38.229-31.104,69.333-69.333,69.333
	c-36.402,0-66.017-28.298-68.794-64h20.794c4.365,0,8.281-2.656,9.906-6.708l28.938-72.333c9.615-24.031,14.49-49.354,14.49-75.271
	V160c0-13.888-8.944-25.617-21.333-30.035V10.667C277.333,4.771,272.563,0,266.667,0H117.333c-5.896,0-10.667,4.771-10.667,10.667
	v119.298C94.277,134.383,85.333,146.112,85.333,160v69.688c0,25.917,4.875,51.24,14.49,75.271l28.938,72.333
	c1.625,4.052,5.542,6.708,9.906,6.708h21.604c2.829,71.039,61.342,128,133.063,128c73.521,0,133.333-59.813,133.333-133.333v-112
	C426.667,260.771,421.896,256,416,256z M416,0h-42.667c-5.896,0-10.667,4.771-10.667,10.667v128c0,5.896,4.771,10.667,10.667,10.667
	H384v32c0,5.896,4.771,10.667,10.667,10.667c5.896,0,10.667-4.771,10.667-10.667v-32H416c5.896,0,10.667-4.771,10.667-10.667v-128
	C426.667,4.771,421.896,0,416,0z"/>
<g>
</g>
<g>
</g>
<g>
</g>
<g>
</g>
<g>
</g>
<g>
</g>
<g>
</g>
<g>
</g>
<g>
</g>
<g>
</g>
<g>
</g>
<g>
</g>
<g>
</g>
<g>
</g>
<g>
</g>
</svg>
