<?xml version="1.0" encoding="iso-8859-1"?>
<!-- Generator: Adobe Illustrator 19.0.0, SVG Export Plug-In . SVG Version: 6.00 Build 0)  -->
<svg version="1.1" id="Capa_1" xmlns="http://www.w3.org/2000/svg" xmlns:xlink="http://www.w3.org/1999/xlink" x="0px" y="0px"
	 viewBox="0 0 512 512" style="enable-background:new 0 0 512 512;" xml:space="preserve">
<g>
	<path style="fill:#303C42;" d="M245.333,341.333c0,5.896,4.771,10.667,10.667,10.667c5.896,0,10.667-4.771,10.667-10.667V320
		c0-5.896-4.771-10.667-10.667-10.667c-5.896,0-10.667,4.771-10.667,10.667V341.333z"/>
	<path style="fill:#303C42;" d="M309.333,341.333c2.729,0,5.458-1.042,7.542-3.125c4.167-4.167,4.167-10.917,0-15.083
		l-21.333-21.333c-4.167-4.167-10.917-4.167-15.083,0c-4.167,4.167-4.167,10.917,0,15.083l21.333,21.333
		C303.875,340.292,306.604,341.333,309.333,341.333z"/>
	<path style="fill:#303C42;" d="M210.208,338.208l21.333-21.333c4.167-4.167,4.167-10.917,0-15.083
		c-4.167-4.167-10.917-4.167-15.083,0l-21.333,21.333c-4.167,4.167-4.167,10.917,0,15.083c2.083,2.083,4.813,3.125,7.542,3.125
		S208.125,340.292,210.208,338.208z"/>
	<path style="fill:#303C42;" d="M256,213.333c5.896,0,10.667-4.771,10.667-10.667v-21.333c0-5.896-4.771-10.667-10.667-10.667
		c-5.896,0-10.667,4.771-10.667,10.667v21.333C245.333,208.563,250.104,213.333,256,213.333z"/>
	<path style="fill:#303C42;" d="M288,224c2.729,0,5.458-1.042,7.542-3.125l21.333-21.333c4.167-4.167,4.167-10.917,0-15.083
		c-4.167-4.167-10.917-4.167-15.083,0l-21.333,21.333c-4.167,4.167-4.167,10.917,0,15.083C282.542,222.958,285.271,224,288,224z"/>
	<path style="fill:#303C42;" d="M195.125,184.458c-4.167,4.167-4.167,10.917,0,15.083l21.333,21.333
		c2.083,2.083,4.813,3.125,7.542,3.125c2.729,0,5.458-1.042,7.542-3.125c4.167-4.167,4.167-10.917,0-15.083l-21.333-21.333
		C206.042,180.292,199.292,180.292,195.125,184.458z"/>
	<path style="fill:#303C42;" d="M501.333,64h-384C52.635,64,0,116.635,0,181.333s52.635,117.333,117.333,117.333h64.01
		c2.833,0,5.542-1.125,7.542-3.125s3.125-4.719,3.125-7.542l-0.003-10.667H224c5.896,0,10.667-4.771,10.667-10.667
		c0-5.896-4.771-10.667-10.667-10.667h-31.997L192,245.333c0-5.896-4.781-10.667-10.667-10.667h-64
		C87.927,234.667,64,210.74,64,181.333S87.927,128,117.333,128h384c5.896,0,10.667-4.771,10.667-10.667V74.667
		C512,68.771,507.229,64,501.333,64z"/>
</g>
<path style="fill:#00AAE7;" d="M42.667,181.333c0,41.167,33.5,74.667,74.667,74.667h53.333l0.01,21.333h-53.344
	c-52.938,0-96-43.063-96-96s43.063-96,96-96h373.333v21.333H117.333C76.167,106.667,42.667,140.167,42.667,181.333z"/>
<path style="fill:#303C42;" d="M394.667,213.333h-63.99c-5.885,0-10.667,4.771-10.667,10.667l-0.003,10.667H288
	c-5.896,0-10.667,4.771-10.667,10.667c0,5.896,4.771,10.667,10.667,10.667h32.003L320,266.667c0,2.823,1.125,5.542,3.125,7.542
	s4.708,3.125,7.542,3.125h64c29.406,0,53.333,23.927,53.333,53.333S424.073,384,394.667,384h-384C4.771,384,0,388.771,0,394.667
	v42.667C0,443.229,4.771,448,10.667,448h384C459.365,448,512,395.365,512,330.667S459.365,213.333,394.667,213.333z"/>
<path style="fill:#00AAE7;" d="M394.667,426.667H21.333v-21.333h373.333c41.167,0,74.667-33.5,74.667-74.667
	S435.833,256,394.667,256h-53.333l0.01-21.333h53.323c52.938,0,96,43.063,96,96S447.604,426.667,394.667,426.667z"/>
<linearGradient id="SVGID_1_" gradientUnits="userSpaceOnUse" x1="-46.3672" y1="639.9234" x2="-23.0391" y2="629.0453" gradientTransform="matrix(21.3333 0 0 -21.3333 996.3334 13791.667)">
	<stop  offset="0" style="stop-color:#FFFFFF;stop-opacity:0.2"/>
	<stop  offset="1" style="stop-color:#FFFFFF;stop-opacity:0"/>
</linearGradient>
<path style="fill:url(#SVGID_1_);" d="M245.333,341.333c0,5.896,4.771,10.667,10.667,10.667c5.896,0,10.667-4.771,10.667-10.667V320
	c0-5.896-4.771-10.667-10.667-10.667c-5.896,0-10.667,4.771-10.667,10.667V341.333z M309.333,341.333
	c2.729,0,5.458-1.042,7.542-3.125c4.167-4.167,4.167-10.917,0-15.083l-21.333-21.333c-4.167-4.167-10.917-4.167-15.083,0
	c-4.167,4.167-4.167,10.917,0,15.083l21.333,21.333C303.875,340.292,306.604,341.333,309.333,341.333z M210.208,338.208
	l21.333-21.333c4.167-4.167,4.167-10.917,0-15.083c-4.167-4.167-10.917-4.167-15.083,0l-21.333,21.333
	c-4.167,4.167-4.167,10.917,0,15.083c2.083,2.083,4.813,3.125,7.542,3.125S208.125,340.292,210.208,338.208z M256,213.333
	c5.896,0,10.667-4.771,10.667-10.667v-21.333c0-5.896-4.771-10.667-10.667-10.667c-5.896,0-10.667,4.771-10.667,10.667v21.333
	C245.333,208.563,250.104,213.333,256,213.333z M288,224c2.729,0,5.458-1.042,7.542-3.125l21.333-21.333
	c4.167-4.167,4.167-10.917,0-15.083c-4.167-4.167-10.917-4.167-15.083,0l-21.333,21.333c-4.167,4.167-4.167,10.917,0,15.083
	C282.542,222.958,285.271,224,288,224z M195.125,184.458c-4.167,4.167-4.167,10.917,0,15.083l21.333,21.333
	c2.083,2.083,4.813,3.125,7.542,3.125c2.729,0,5.458-1.042,7.542-3.125c4.167-4.167,4.167-10.917,0-15.083l-21.333-21.333
	C206.042,180.292,199.292,180.292,195.125,184.458z M501.333,64h-384C52.635,64,0,116.635,0,181.333s52.635,117.333,117.333,117.333
	h64.01c2.833,0,5.542-1.125,7.542-3.125s3.125-4.719,3.125-7.542l-0.003-10.667H224c5.896,0,10.667-4.771,10.667-10.667
	c0-5.896-4.771-10.667-10.667-10.667h-31.997L192,245.333c0-5.896-4.781-10.667-10.667-10.667h-64
	C87.927,234.667,64,210.74,64,181.333S87.927,128,117.333,128h384c5.896,0,10.667-4.771,10.667-10.667V74.667
	C512,68.771,507.229,64,501.333,64z M394.667,213.333h-63.99c-5.885,0-10.667,4.771-10.667,10.667l-0.003,10.667H288
	c-5.896,0-10.667,4.771-10.667,10.667c0,5.896,4.771,10.667,10.667,10.667h32.003L320,266.667c0,2.823,1.125,5.542,3.125,7.542
	s4.708,3.125,7.542,3.125h64c29.406,0,53.333,23.927,53.333,53.333S424.073,384,394.667,384h-384C4.771,384,0,388.771,0,394.667
	v42.667C0,443.229,4.771,448,10.667,448h384C459.365,448,512,395.365,512,330.667S459.365,213.333,394.667,213.333z"/>
<g>
</g>
<g>
</g>
<g>
</g>
<g>
</g>
<g>
</g>
<g>
</g>
<g>
</g>
<g>
</g>
<g>
</g>
<g>
</g>
<g>
</g>
<g>
</g>
<g>
</g>
<g>
</g>
<g>
</g>
</svg>
