<?xml version="1.0" encoding="iso-8859-1"?>
<!-- Generator: Adobe Illustrator 19.0.0, SVG Export Plug-In . SVG Version: 6.00 Build 0)  -->
<svg version="1.1" id="Capa_1" xmlns="http://www.w3.org/2000/svg" xmlns:xlink="http://www.w3.org/1999/xlink" x="0px" y="0px"
	 viewBox="0 0 469.338 469.338" style="enable-background:new 0 0 469.338 469.338;" xml:space="preserve">
<path style="fill:#303C42;" d="M469.333,309.335V12.501c0-3.375-1.604-6.563-4.313-8.573c-2.75-2.01-6.208-2.583-9.458-1.635
	l-62.188,18.948L11.25,0.022C8.208-0.155,5.438,0.908,3.333,2.918C1.208,4.939,0,7.741,0,10.668v106.667
	c0,1.656,0.396,3.292,1.125,4.771l39.229,78.458L3.125,237.793c-2,2-3.125,4.708-3.125,7.542v213.333
	c0,5.896,4.771,10.667,10.667,10.667h448c3.292,0,6.396-1.51,8.417-4.104c2.021-2.583,2.729-5.958,1.938-9.146l-20.583-82.323
	l20.354-61.052C469.146,311.616,469.333,310.48,469.333,309.335z"/>
<path style="fill:#E4CE9B;" d="M192,31.421l85.333,4.741v172.09l-38.708-15.49c-2.542-1.021-5.375-1.021-7.917,0L192,208.251V31.421
	z"/>
<path style="fill:#8E532A;" d="M448,307.605l-13.892,41.661l-30.566-45.849c-3.292-4.917-9.958-6.219-14.792-2.958
	c-4.896,3.271-6.229,9.885-2.958,14.792l41.633,62.451L445,448.001H21.333v-198.25l29.078-29.078l23.005,45.995l-18.958,37.896
	c-2.625,5.271-0.5,11.677,4.771,14.313c1.542,0.76,3.167,1.125,4.771,1.125c3.896,0,7.667-2.156,9.542-5.896l21.333-42.667
	c1.5-3,1.5-6.542,0-9.542l-32-64l-41.542-83.083V21.939l149.333,8.297v193.766c0,3.542,1.75,6.844,4.688,8.833
	c2.938,1.979,6.646,2.375,9.938,1.073l49.375-19.75l49.375,19.75c1.271,0.51,2.625,0.76,3.958,0.76c2.104,0,4.188-0.625,5.979-1.833
	c2.938-1.99,4.688-5.292,4.688-8.833V37.346l79.201,4.4l-14.076,28.151c-2.625,5.271-0.5,11.677,4.771,14.313
	c1.542,0.76,3.167,1.125,4.771,1.125c3.896,0,7.667-2.156,9.542-5.896l19.284-38.566L448,26.897V307.605z"/>
<path style="opacity:0.1;enable-background:new    ;" d="M415.813,360.284c-0.561,29.522-24.527,54.828-55.815,54.828H21.333v32.889
	H445l-17.576-70.299L415.813,360.284z"/>
<linearGradient id="SVGID_1_" gradientUnits="userSpaceOnUse" x1="-69.1505" y1="619.225" x2="-42.9509" y2="607.0104" gradientTransform="matrix(21.3333 0 0 -21.3333 1430.0664 13315.2725)">
	<stop  offset="0" style="stop-color:#FFFFFF;stop-opacity:0.2"/>
	<stop  offset="1" style="stop-color:#FFFFFF;stop-opacity:0"/>
</linearGradient>
<path style="fill:url(#SVGID_1_);" d="M469.333,309.335V12.501c0-3.375-1.604-6.563-4.313-8.573c-2.75-2.01-6.208-2.583-9.458-1.635
	l-62.188,18.948L11.25,0.022C8.208-0.155,5.438,0.908,3.333,2.918C1.208,4.939,0,7.741,0,10.668v106.667
	c0,1.656,0.396,3.292,1.125,4.771l39.229,78.458L3.125,237.793c-2,2-3.125,4.708-3.125,7.542v213.333
	c0,5.896,4.771,10.667,10.667,10.667h448c3.292,0,6.396-1.51,8.417-4.104c2.021-2.583,2.729-5.958,1.938-9.146l-20.583-82.323
	l20.354-61.052C469.146,311.616,469.333,310.48,469.333,309.335z"/>
<g>
</g>
<g>
</g>
<g>
</g>
<g>
</g>
<g>
</g>
<g>
</g>
<g>
</g>
<g>
</g>
<g>
</g>
<g>
</g>
<g>
</g>
<g>
</g>
<g>
</g>
<g>
</g>
<g>
</g>
</svg>
