<?xml version="1.0" encoding="iso-8859-1"?>
<!-- Generator: Adobe Illustrator 19.0.0, SVG Export Plug-In . SVG Version: 6.00 Build 0)  -->
<svg version="1.1" id="Capa_1" xmlns="http://www.w3.org/2000/svg" xmlns:xlink="http://www.w3.org/1999/xlink" x="0px" y="0px"
	 viewBox="0 0 511.996 511.996" style="enable-background:new 0 0 511.996 511.996;" xml:space="preserve">
<path style="fill:#303C42;" d="M287.998,511.996h-64c-5.896,0-10.667-4.771-10.667-10.667V397.527
	c-0.24-0.802-0.385-1.656-0.417-2.531c-1.76-56.573-17.458-88.281-32.646-118.958c-15.208-30.719-30.938-62.49-30.938-116.042v-128
	c0-3.698,1.917-7.125,5.063-9.073c3.135-1.948,7.063-2.104,10.375-0.469l33.125,16.563l16.563-33.125
	c1.74-3.479,5.24-5.74,9.135-5.885c4.01-0.135,7.552,1.833,9.552,5.167l52.938,88.229l24.458-61.156
	c1.948-4.896,7.146-7.656,12.302-6.438l31.552,7.281c4.844,1.115,8.271,5.427,8.271,10.396v116.51
	c0,53.552-15.729,85.323-30.938,116.042c-15.188,30.677-30.885,62.385-32.646,118.958c-0.031,0.906-0.177,1.792-0.417,2.625v103.708
	C298.665,507.225,293.894,511.996,287.998,511.996z"/>
<path style="fill:#414B1F;" d="M234.665,490.663h42.667v-96c0-1.156,0.188-2.281,0.531-3.323
	c2.344-59.323,18.813-92.583,34.74-124.76c14.781-29.844,28.729-58.021,28.729-106.583V51.975l-14.375-3.323l-29.052,72.635
	c-1.51,3.76-5.01,6.354-9.052,6.677c-4.219,0.26-7.917-1.677-10-5.146l-54-90.01L212.206,58.1c-2.646,5.26-9.042,7.406-14.313,4.771
	l-27.229-13.615v110.74c0,48.563,13.948,76.74,28.729,106.583c15.938,32.198,32.417,65.479,34.75,124.896
	c0.333,1.01,0.521,2.083,0.521,3.188V490.663z"/>
<path style="opacity:0.2;fill:#FFFFFF;enable-background:new    ;" d="M239.607,391.475c-1.75-59.417-14.109-92.698-26.063-124.896
	c-11.086-29.844-21.547-58.021-21.547-106.583V59.923l-21.333-10.667v110.74c0,48.563,13.948,76.74,28.729,106.583
	c15.938,32.198,32.417,65.479,34.75,124.896c0.333,1.01,0.521,2.083,0.521,3.188v96h5.333v-96
	C239.998,393.559,239.857,392.486,239.607,391.475z"/>
<path style="opacity:0.1;enable-background:new    ;" d="M326.956,48.652l-6.958,17.397v93.947
	c0,48.563-10.461,76.74-21.547,106.583c-11.945,32.177-24.297,65.438-26.055,124.76c-0.258,1.042-0.398,2.167-0.398,3.323v96h5.333
	v-96c0-1.156,0.188-2.281,0.531-3.323c2.344-59.323,18.813-92.583,34.74-124.76c14.781-29.844,28.729-58.021,28.729-106.583V51.975
	L326.956,48.652z"/>
<linearGradient id="SVGID_1_" gradientUnits="userSpaceOnUse" x1="-42.9031" y1="638.2365" x2="-28.6411" y2="631.5846" gradientTransform="matrix(21.3333 0 0 -21.3333 996.3724 13791.624)">
	<stop  offset="0" style="stop-color:#FFFFFF;stop-opacity:0.2"/>
	<stop  offset="1" style="stop-color:#FFFFFF;stop-opacity:0"/>
</linearGradient>
<path style="fill:url(#SVGID_1_);" d="M287.998,511.996h-64c-5.896,0-10.667-4.771-10.667-10.667V397.527
	c-0.24-0.802-0.385-1.656-0.417-2.531c-1.76-56.573-17.458-88.281-32.646-118.958c-15.208-30.719-30.938-62.49-30.938-116.042v-128
	c0-3.698,1.917-7.125,5.063-9.073c3.135-1.948,7.063-2.104,10.375-0.469l33.125,16.563l16.563-33.125
	c1.74-3.479,5.24-5.74,9.135-5.885c4.01-0.135,7.552,1.833,9.552,5.167l52.938,88.229l24.458-61.156
	c1.948-4.896,7.146-7.656,12.302-6.438l31.552,7.281c4.844,1.115,8.271,5.427,8.271,10.396v116.51
	c0,53.552-15.729,85.323-30.938,116.042c-15.188,30.677-30.885,62.385-32.646,118.958c-0.031,0.906-0.177,1.792-0.417,2.625v103.708
	C298.665,507.225,293.894,511.996,287.998,511.996z"/>
<g>
</g>
<g>
</g>
<g>
</g>
<g>
</g>
<g>
</g>
<g>
</g>
<g>
</g>
<g>
</g>
<g>
</g>
<g>
</g>
<g>
</g>
<g>
</g>
<g>
</g>
<g>
</g>
<g>
</g>
</svg>
