<?xml version="1.0" encoding="iso-8859-1"?>
<!-- Generator: Adobe Illustrator 19.0.0, SVG Export Plug-In . SVG Version: 6.00 Build 0)  -->
<svg version="1.1" id="Capa_1" xmlns="http://www.w3.org/2000/svg" xmlns:xlink="http://www.w3.org/1999/xlink" x="0px" y="0px"
	 viewBox="0 0 512 512" style="enable-background:new 0 0 512 512;" xml:space="preserve">
<path style="fill:#303C42;" d="M384,64h-42.667V10.667C341.333,4.771,336.563,0,330.667,0H181.333
	c-5.896,0-10.667,4.771-10.667,10.667V64H128c-23.531,0-42.667,19.135-42.667,42.667V192c0,3.167,1.406,6.167,3.833,8.198l64,53.333
	c2.854,2.375,6.719,3.115,10.208,1.917l57.74-19.24l27.396,27.385l-21.135-7.042c-2.698-0.927-5.615-0.698-8.146,0.573
	l-80.563,40.281l-37.896-18.948c-3.302-1.635-7.25-1.479-10.375,0.469c-3.146,1.948-5.063,5.375-5.063,9.073v181.333
	C85.333,492.865,104.469,512,128,512h256c23.531,0,42.667-19.135,42.667-42.667V106.667C426.667,83.135,407.531,64,384,64z"/>
<rect x="192" y="21.333" style="fill:#1E88E5;" width="128" height="42.667"/>
<rect x="192" y="21.333" style="opacity:0.2;fill:#FFFFFF;enable-background:new    ;" width="32" height="42.667"/>
<rect x="288" y="21.333" style="opacity:0.1;enable-background:new    ;" width="32" height="42.667"/>
<path style="fill:#1E88E5;" d="M405.333,469.333c0,11.76-9.573,21.333-21.333,21.333H128c-11.76,0-21.333-9.573-21.333-21.333
	V305.26l27.229,13.615c3,1.5,6.542,1.5,9.542,0l81.385-40.688l59.802,19.927c4.677,1.583,9.854-0.292,12.448-4.51
	c2.604-4.208,1.969-9.646-1.531-13.146l-64-64c-2.844-2.854-7.073-3.875-10.917-2.573l-58.365,19.448L106.667,187v-80.333
	c0-11.76,9.573-21.333,21.333-21.333h256c11.76,0,21.333,9.573,21.333,21.333V469.333z"/>
<path style="opacity:0.2;fill:#FFFFFF;enable-background:new    ;" d="M138.667,106.667c0-11.76,7.522-21.333,16.762-21.333H128
	c-11.76,0-21.333,9.573-21.333,21.333V187l32,26.669V106.667z"/>
<path style="opacity:0.1;enable-background:new    ;" d="M384,85.333h-27.428c9.24,0,16.762,9.573,16.762,21.333v362.667
	c0,11.76-7.522,21.333-16.762,21.333H384c11.76,0,21.333-9.573,21.333-21.333V106.667C405.333,94.906,395.76,85.333,384,85.333z"/>
<path style="opacity:0.2;fill:#FFFFFF;enable-background:new    ;" d="M138.667,469.333V320c-1.635,0-3.271-0.375-4.771-1.125
	l-27.229-13.615v164.073c0,11.76,9.573,21.333,21.333,21.333h27.428C146.189,490.667,138.667,481.094,138.667,469.333z"/>
<linearGradient id="SVGID_1_" gradientUnits="userSpaceOnUse" x1="-44.3781" y1="638.3356" x2="-24.3849" y2="629.0125" gradientTransform="matrix(21.3333 0 0 -21.3333 996.3334 13791.667)">
	<stop  offset="0" style="stop-color:#FFFFFF;stop-opacity:0.2"/>
	<stop  offset="1" style="stop-color:#FFFFFF;stop-opacity:0"/>
</linearGradient>
<path style="fill:url(#SVGID_1_);" d="M384,64h-42.667V10.667C341.333,4.771,336.563,0,330.667,0H181.333
	c-5.896,0-10.667,4.771-10.667,10.667V64H128c-23.531,0-42.667,19.135-42.667,42.667V192c0,3.167,1.406,6.167,3.833,8.198l64,53.333
	c2.854,2.375,6.719,3.115,10.208,1.917l57.74-19.24l27.396,27.385l-21.135-7.042c-2.698-0.927-5.615-0.698-8.146,0.573
	l-80.563,40.281l-37.896-18.948c-3.302-1.635-7.25-1.479-10.375,0.469c-3.146,1.948-5.063,5.375-5.063,9.073v181.333
	C85.333,492.865,104.469,512,128,512h256c23.531,0,42.667-19.135,42.667-42.667V106.667C426.667,83.135,407.531,64,384,64z"/>
<g>
</g>
<g>
</g>
<g>
</g>
<g>
</g>
<g>
</g>
<g>
</g>
<g>
</g>
<g>
</g>
<g>
</g>
<g>
</g>
<g>
</g>
<g>
</g>
<g>
</g>
<g>
</g>
<g>
</g>
</svg>
