<?xml version="1.0" encoding="iso-8859-1"?>
<!-- Generator: Adobe Illustrator 19.0.0, SVG Export Plug-In . SVG Version: 6.00 Build 0)  -->
<svg version="1.1" id="Capa_1" xmlns="http://www.w3.org/2000/svg" xmlns:xlink="http://www.w3.org/1999/xlink" x="0px" y="0px"
	 viewBox="0 0 512 512" style="enable-background:new 0 0 512 512;" xml:space="preserve">
<path style="fill:#303C42;" d="M384,64h-42.667V10.667C341.333,4.771,336.563,0,330.667,0H181.333
	c-5.896,0-10.667,4.771-10.667,10.667V64H128c-23.531,0-42.667,19.135-42.667,42.667v362.667C85.333,492.865,104.469,512,128,512
	h256c23.531,0,42.667-19.135,42.667-42.667V106.667C426.667,83.135,407.531,64,384,64z"/>
<rect x="192" y="21.333" style="fill:#1E88E5;" width="128" height="42.667"/>
<rect x="192" y="21.333" style="opacity:0.2;fill:#FFFFFF;enable-background:new    ;" width="32" height="42.667"/>
<rect x="288" y="21.333" style="opacity:0.1;enable-background:new    ;" width="32" height="42.667"/>
<path style="fill:#1E88E5;" d="M405.333,469.333c0,11.76-9.573,21.333-21.333,21.333H128c-11.76,0-21.333-9.573-21.333-21.333
	V106.667c0-11.76,9.573-21.333,21.333-21.333h256c11.76,0,21.333,9.573,21.333,21.333V469.333z"/>
<path style="fill:#303C42;" d="M373.333,106.667H320c-3.167,0-6.167,1.406-8.198,3.833l-53.333,64
	c-2.365,2.844-3.094,6.698-1.917,10.208l19.24,57.74l-27.385,27.396l7.042-21.135c0.896-2.688,0.688-5.615-0.573-8.146L214.594,160
	l18.948-37.896c1.656-3.302,1.479-7.229-0.469-10.375c-1.948-3.146-5.375-5.063-9.073-5.063h-85.333
	c-5.896,0-10.667,4.771-10.667,10.667v341.333c0,5.896,4.771,10.667,10.667,10.667h234.667c5.896,0,10.667-4.771,10.667-10.667
	V117.333C384,111.438,379.229,106.667,373.333,106.667z"/>
<path style="fill:#00AAE7;" d="M362.667,448H149.333V128h57.406l-13.615,27.229c-1.5,3-1.5,6.542,0,9.542l40.688,81.385
	l-19.927,59.802c-1.573,4.698,0.302,9.844,4.51,12.448c4.208,2.615,9.656,1.979,13.146-1.531l64-64
	c2.854-2.854,3.854-7.083,2.573-10.917l-19.448-58.365L325,128h37.667V448z"/>
<rect x="330.667" y="128" style="opacity:0.1;enable-background:new    ;" width="32" height="320"/>
<rect x="149.333" y="128" style="opacity:0.2;fill:#FFFFFF;enable-background:new    ;" width="32" height="320"/>
<linearGradient id="SVGID_1_" gradientUnits="userSpaceOnUse" x1="-44.3781" y1="638.3356" x2="-24.3849" y2="629.0125" gradientTransform="matrix(21.3333 0 0 -21.3333 996.3334 13791.667)">
	<stop  offset="0" style="stop-color:#FFFFFF;stop-opacity:0.2"/>
	<stop  offset="1" style="stop-color:#FFFFFF;stop-opacity:0"/>
</linearGradient>
<path style="fill:url(#SVGID_1_);" d="M384,64h-42.667V10.667C341.333,4.771,336.563,0,330.667,0H181.333
	c-5.896,0-10.667,4.771-10.667,10.667V64H128c-23.531,0-42.667,19.135-42.667,42.667v362.667C85.333,492.865,104.469,512,128,512
	h256c23.531,0,42.667-19.135,42.667-42.667V106.667C426.667,83.135,407.531,64,384,64z"/>
<g>
</g>
<g>
</g>
<g>
</g>
<g>
</g>
<g>
</g>
<g>
</g>
<g>
</g>
<g>
</g>
<g>
</g>
<g>
</g>
<g>
</g>
<g>
</g>
<g>
</g>
<g>
</g>
<g>
</g>
</svg>
