<?xml version="1.0" encoding="iso-8859-1"?>
<!-- Generator: Adobe Illustrator 19.0.0, SVG Export Plug-In . SVG Version: 6.00 Build 0)  -->
<svg version="1.1" id="Capa_1" xmlns="http://www.w3.org/2000/svg" xmlns:xlink="http://www.w3.org/1999/xlink" x="0px" y="0px"
	 viewBox="0 0 512 512" style="enable-background:new 0 0 512 512;" xml:space="preserve">
<g>
	<path style="fill:#303C42;" d="M236.979,328.563l17.896-35.792c2.052-4.104,1.25-9.063-2-12.313l-35.917-35.917l79.375-99.208
		c3.583-4.49,2.979-11.021-1.396-14.771l-49.781-42.667c-1.927-1.656-4.396-2.563-6.938-2.563H42.667C19.135,85.333,0,104.469,0,128
		v256c0,23.531,19.135,42.667,42.667,42.667h202.667c4.042,0,7.729-2.281,9.542-5.896l21.333-42.667
		c2.052-4.104,1.25-9.063-2-12.313L236.979,328.563z"/>
	<polygon style="fill:#303C42;" points="214.602,213.333 21.333,213.333 21.333,170.667 248.736,170.667 	"/>
</g>
<g>
	<path style="fill:#00AAE7;" d="M42.667,106.667h191.604l38.958,33.385l-7.426,9.281H21.333V128
		C21.333,116.24,30.906,106.667,42.667,106.667z"/>
	<path style="fill:#00AAE7;" d="M238.74,405.333H42.667c-11.76,0-21.333-9.573-21.333-21.333V234.667h176.201l-3.201,4
		c-3.396,4.25-3.052,10.365,0.792,14.208l37.229,37.229l-17.896,35.792c-2.052,4.104-1.25,9.063,2,12.313l37.229,37.229
		L238.74,405.333z"/>
</g>
<path style="fill:#303C42;" d="M469.333,85.333H302.219c-4.469,0-8.458,2.781-10,6.969c-1.552,4.188-0.333,8.896,3.063,11.802
	l41.948,35.948l-78.896,98.615c-3.396,4.25-3.052,10.365,0.792,14.208l37.229,37.229l-17.896,35.792
	c-2.052,4.104-1.25,9.063,2,12.313l37.229,37.229l-17.896,35.792c-1.656,3.302-1.479,7.229,0.469,10.375
	c1.948,3.146,5.375,5.063,9.073,5.063h160C492.865,426.667,512,407.531,512,384V128C512,104.469,492.865,85.333,469.333,85.333z"/>
<path style="fill:#00AAE7;" d="M331.052,106.667h138.281c11.76,0,21.333,9.573,21.333,21.333v21.333H357.133l3.201-4
	c3.583-4.49,2.979-11.021-1.396-14.771L331.052,106.667z"/>
<polygon style="fill:#303C42;" points="490.667,170.667 490.667,213.333 305.927,213.333 340.065,170.667 "/>
<path style="fill:#00AAE7;" d="M469.333,405.333h-142.74l13.615-27.229c2.052-4.104,1.25-9.063-2-12.313l-37.229-37.229
	l17.896-35.792c2.052-4.104,1.25-9.063-2-12.313l-35.917-35.917l7.901-9.875h201.807V384
	C490.667,395.76,481.094,405.333,469.333,405.333z"/>
<path style="opacity:0.1;enable-background:new    ;" d="M21.333,384c0,11.76,9.573,21.333,21.333,21.333H238.74l14.948-29.896
	l-2.104-2.104H21.333V384z"/>
<path style="opacity:0.1;enable-background:new    ;" d="M490.667,149.333V128c0-11.76-9.573-21.333-21.333-21.333h-10.667v42.667
	H490.667z"/>
<rect x="458.667" y="170.667" style="opacity:0.1;enable-background:new    ;" width="32" height="42.667"/>
<path style="opacity:0.1;enable-background:new    ;" d="M437.333,373.333h-96.397c-0.001,1.615,0.027,3.259-0.728,4.771
	l-13.615,27.229h142.74c11.76,0,21.333-9.573,21.333-21.333V234.667h-32V352C458.667,363.76,449.094,373.333,437.333,373.333z"/>
<linearGradient id="SVGID_1_" gradientUnits="userSpaceOnUse" x1="-35.1764" y1="635.2002" x2="-28.6734" y2="625.3642" gradientTransform="matrix(21.3333 0 0 -21.3333 996.3334 13791.667)">
	<stop  offset="0" style="stop-color:#FFFFFF;stop-opacity:0.2"/>
	<stop  offset="1" style="stop-color:#FFFFFF;stop-opacity:0"/>
</linearGradient>
<path style="fill:url(#SVGID_1_);" d="M236.979,328.563l17.896-35.792c2.052-4.104,1.25-9.063-2-12.313l-35.917-35.917
	l79.375-99.208c3.583-4.49,2.979-11.021-1.396-14.771l-49.781-42.667c-1.927-1.656-4.396-2.563-6.938-2.563H42.667
	C19.135,85.333,0,104.469,0,128v256c0,23.531,19.135,42.667,42.667,42.667h202.667c4.042,0,7.729-2.281,9.542-5.896l21.333-42.667
	c2.052-4.104,1.25-9.063-2-12.313L236.979,328.563z M469.333,85.333H302.219c-4.469,0-8.458,2.781-10,6.969
	c-1.552,4.188-0.333,8.896,3.063,11.802l41.948,35.948l-78.896,98.615c-3.396,4.25-3.052,10.365,0.792,14.208l37.229,37.229
	l-17.896,35.792c-2.052,4.104-1.25,9.063,2,12.313l37.229,37.229l-17.896,35.792c-1.656,3.302-1.479,7.229,0.469,10.375
	c1.948,3.146,5.375,5.063,9.073,5.063h160C492.865,426.667,512,407.531,512,384V128C512,104.469,492.865,85.333,469.333,85.333z"/>
<g>
</g>
<g>
</g>
<g>
</g>
<g>
</g>
<g>
</g>
<g>
</g>
<g>
</g>
<g>
</g>
<g>
</g>
<g>
</g>
<g>
</g>
<g>
</g>
<g>
</g>
<g>
</g>
<g>
</g>
</svg>
