<?xml version="1.0" encoding="iso-8859-1"?>
<!-- Generator: Adobe Illustrator 19.0.0, SVG Export Plug-In . SVG Version: 6.00 Build 0)  -->
<svg xmlns="http://www.w3.org/2000/svg" xmlns:xlink="http://www.w3.org/1999/xlink" version="1.1" id="Layer_1" x="0px" y="0px" viewBox="0 0 512.001 512.001" style="enable-background:new 0 0 512.001 512.001;" xml:space="preserve">
<path style="fill:#EBEBEC;" d="M499.487,337.867H12.513c-2.764,0-5.005-2.241-5.005-5.005V179.139c0-2.764,2.241-5.005,5.005-5.005  h486.973c2.764,0,5.005,2.241,5.005,5.005v153.722C504.492,335.626,502.251,337.867,499.487,337.867z"/>
<path style="fill:#D7D8D9;" d="M499.487,337.867h-47.474V174.134h47.474c2.764,0,5.005,2.241,5.005,5.005v153.722  C504.492,335.626,502.251,337.867,499.487,337.867z"/>
<path d="M468.683,302.281c4.147,0,7.508-3.361,7.508-7.508c0-4.147-3.361-7.508-7.508-7.508h-69.07  c-4.147,0-7.508,3.361-7.508,7.508c0,4.147,3.361,7.508,7.508,7.508H468.683z"/>
<path d="M107.263,233.248c-2.244-3.486-6.888-4.497-10.376-2.25l-17.471,11.243v-20.776c0-4.147-3.361-7.508-7.508-7.508  s-7.508,3.361-7.508,7.508v20.775l-17.47-11.243c-3.486-2.245-8.132-1.238-10.376,2.25c-2.245,3.487-1.237,8.133,2.25,10.376  L58.034,256l-19.231,12.376c-3.487,2.244-4.495,6.889-2.25,10.376c1.435,2.23,3.852,3.446,6.32,3.446  c1.391,0,2.799-0.386,4.056-1.196l17.47-11.243v20.775c0,4.147,3.361,7.508,7.508,7.508s7.508-3.361,7.508-7.508V269.76  l17.471,11.243c1.257,0.809,2.664,1.196,4.056,1.196c2.467,0,4.885-1.216,6.32-3.446c2.245-3.487,1.237-8.133-2.25-10.376  L85.781,256l19.231-12.376C108.499,241.381,109.507,236.736,107.263,233.248z"/>
<path d="M125.982,278.752c1.435,2.23,3.852,3.446,6.32,3.446c1.391,0,2.799-0.386,4.056-1.196l17.471-11.243v20.776  c0,4.147,3.361,7.508,7.508,7.508s7.508-3.361,7.508-7.508V269.76l17.47,11.243c1.257,0.809,2.664,1.196,4.056,1.196  c2.467,0,4.885-1.216,6.32-3.446c2.245-3.487,1.237-8.133-2.25-10.376L175.21,256l19.231-12.376  c3.487-2.244,4.495-6.889,2.25-10.376c-2.245-3.486-6.888-4.497-10.376-2.25l-17.47,11.243v-20.775c0-4.147-3.361-7.508-7.508-7.508  s-7.508,3.361-7.508,7.508v20.776l-17.471-11.243c-3.487-2.245-8.133-1.238-10.376,2.25c-2.245,3.487-1.237,8.133,2.25,10.376  L147.463,256l-19.231,12.376C124.745,270.62,123.737,275.265,125.982,278.752z"/>
<path d="M286.122,233.248c-2.245-3.486-6.888-4.497-10.376-2.25l-17.471,11.243v-20.775c0-4.147-3.361-7.508-7.508-7.508  s-7.508,3.361-7.508,7.508v20.775l-17.471-11.243c-3.486-2.245-8.134-1.238-10.376,2.25c-2.245,3.487-1.237,8.133,2.25,10.376  L236.892,256l-19.231,12.376c-3.487,2.244-4.495,6.889-2.25,10.376c1.435,2.23,3.852,3.446,6.32,3.446  c1.391,0,2.799-0.386,4.056-1.196l17.471-11.243v20.775c0,4.147,3.361,7.508,7.508,7.508s7.508-3.361,7.508-7.508V269.76  l17.471,11.243c1.257,0.809,2.664,1.196,4.056,1.196c2.467,0,4.886-1.216,6.32-3.446c2.245-3.487,1.237-8.133-2.25-10.376  L264.64,256l19.231-12.376C287.358,241.381,288.366,236.736,286.122,233.248z"/>
<path d="M332.687,290.535c0,4.147,3.361,7.508,7.508,7.508s7.508-3.361,7.508-7.508V269.76l17.471,11.243  c1.257,0.809,2.664,1.196,4.056,1.196c2.467,0,4.885-1.216,6.32-3.446c2.245-3.487,1.237-8.133-2.25-10.376L354.069,256  l19.231-12.376c3.487-2.244,4.495-6.889,2.25-10.376c-2.244-3.486-6.888-4.497-10.376-2.25l-17.471,11.243v-20.776  c0-4.147-3.361-7.508-7.508-7.508s-7.508,3.361-7.508,7.508v20.775l-17.47-11.243c-3.486-2.245-8.132-1.238-10.376,2.25  c-2.245,3.487-1.237,8.133,2.25,10.376L326.322,256l-19.231,12.376c-3.487,2.244-4.495,6.889-2.25,10.376  c1.435,2.23,3.852,3.446,6.32,3.446c1.391,0,2.799-0.386,4.056-1.196l17.47-11.243V290.535z"/>
<path d="M271.792,330.359H15.016V181.642h93.1c4.147,0,7.508-3.361,7.508-7.508s-3.361-7.508-7.508-7.508H12.513  C5.613,166.626,0,172.24,0,179.14v153.722c0,6.9,5.613,12.513,12.513,12.513h259.278c4.147,0,7.508-3.361,7.508-7.508  C279.299,333.72,275.939,330.359,271.792,330.359z"/>
<path d="M499.487,166.626H162.174c-4.147,0-7.508,3.361-7.508,7.508s3.361,7.508,7.508,7.508h334.811v148.716H323.848  c-4.147,0-7.508,3.361-7.508,7.508c0,4.147,3.361,7.508,7.508,7.508h175.64c6.9,0,12.513-5.613,12.513-12.513V179.14  C512.001,172.24,506.387,166.626,499.487,166.626z"/>
<g>
</g>
<g>
</g>
<g>
</g>
<g>
</g>
<g>
</g>
<g>
</g>
<g>
</g>
<g>
</g>
<g>
</g>
<g>
</g>
<g>
</g>
<g>
</g>
<g>
</g>
<g>
</g>
<g>
</g>
</svg>
