<?xml version="1.0" encoding="iso-8859-1"?>
<!-- Generator: Adobe Illustrator 19.0.0, SVG Export Plug-In . SVG Version: 6.00 Build 0)  -->
<svg xmlns="http://www.w3.org/2000/svg" xmlns:xlink="http://www.w3.org/1999/xlink" version="1.1" id="Layer_1" x="0px" y="0px" viewBox="0 0 512.001 512.001" style="enable-background:new 0 0 512.001 512.001;" xml:space="preserve">
<path style="fill:#FDDD85;" d="M390.598,504.492H121.402c-13.875,0-25.122-11.248-25.122-25.122V241.525  c0-13.875,11.248-25.122,25.122-25.122h269.196c13.875,0,25.122,11.248,25.122,25.122V479.37  C415.721,493.245,404.473,504.492,390.598,504.492z"/>
<path style="fill:#FDD042;" d="M415.719,241.527v237.845c0,13.873-11.241,25.125-25.125,25.125h-49.717  c13.873,0,25.115-11.251,25.115-25.125V241.527c0-13.873-11.241-25.125-25.115-25.125h49.717  C404.477,216.403,415.719,227.654,415.719,241.527z"/>
<polygon points="247.431,216.407 96.837,367.001 96.837,310.849 191.28,216.407 "/>
<path d="M367.552,216.407L97.988,485.97c-0.751-2.373-1.151-4.895-1.151-7.518V430.97l214.564-214.564L367.552,216.407  L367.552,216.407z"/>
<path d="M415.164,241.434v47.492L200.59,503.489h-56.141l269.574-269.574C414.763,236.288,415.164,238.811,415.164,241.434z"/>
<polygon points="415.164,352.905 415.164,409.046 320.721,503.489 264.58,503.489 "/>
<path style="fill:#F07B52;" d="M341.197,216.403V92.705c0-47.053-38.144-85.196-85.196-85.196l0,0  c-47.053,0-85.196,38.144-85.196,85.196v123.698h35.259V90.816c0-27.58,22.358-49.937,49.937-49.937l0,0  c27.58,0,49.937,22.358,49.937,49.937v125.587H341.197z"/>
<path d="M390.598,208.895h-41.893v-54.56c0-4.147-3.361-7.508-7.508-7.508s-7.508,3.361-7.508,7.508v54.56h-20.243V90.816  c0-31.675-25.77-57.445-57.445-57.445c-31.676,0-57.445,25.77-57.445,57.445v118.079h-20.243V92.705  c0-42.838,34.851-77.688,77.688-77.688c42.838,0,77.688,34.85,77.688,77.688v11.576c0,4.147,3.361,7.508,7.508,7.508  s7.508-3.361,7.508-7.508V92.705C348.705,41.587,307.117,0,256,0c-51.118,0-92.704,41.587-92.704,92.705v116.19h-41.894  c-17.992,0-32.63,14.638-32.63,32.63v164.592c0,4.147,3.362,7.508,7.508,7.508s7.508-3.361,7.508-7.508V241.525  c0-9.713,7.902-17.614,17.614-17.614h49.402h35.259h99.874h35.259h49.401c9.713,0,17.615,7.901,17.615,17.614V479.37  c0,9.713-7.902,17.615-17.615,17.615H121.402c-9.712,0-17.614-7.902-17.614-17.615v-20.529c0-4.147-3.362-7.508-7.508-7.508  s-7.508,3.361-7.508,7.508v20.529c0,17.993,14.638,32.631,32.63,32.631h269.196c17.993,0,32.631-14.638,32.631-32.631V241.525  C423.229,223.532,408.591,208.895,390.598,208.895z M213.571,90.816c0-23.396,19.033-42.429,42.429-42.429  s42.429,19.033,42.429,42.429v118.079h-84.858V90.816L213.571,90.816z"/>
<g>
</g>
<g>
</g>
<g>
</g>
<g>
</g>
<g>
</g>
<g>
</g>
<g>
</g>
<g>
</g>
<g>
</g>
<g>
</g>
<g>
</g>
<g>
</g>
<g>
</g>
<g>
</g>
<g>
</g>
</svg>
