<?xml version="1.0" encoding="iso-8859-1"?>
<!-- Generator: Adobe Illustrator 19.0.0, SVG Export Plug-In . SVG Version: 6.00 Build 0)  -->
<svg xmlns="http://www.w3.org/2000/svg" xmlns:xlink="http://www.w3.org/1999/xlink" version="1.1" id="Layer_1" x="0px" y="0px" viewBox="0 0 512 512" style="enable-background:new 0 0 512 512;" xml:space="preserve">
<path style="fill:#FDDD85;" d="M230.76,242.128v248.974c0,1.784,0.951,3.433,2.495,4.326l14.528,8.405  c1.571,0.909,3.512,0.895,5.07-0.038l13.961-8.356c1.508-0.903,2.431-2.531,2.431-4.289v-27.52c0-1.363-0.557-2.667-1.541-3.61  l-5.381-5.154c-1.956-1.873-2.064-4.964-0.243-6.969l5.868-6.463c0.835-0.92,1.298-2.117,1.298-3.36v-30.089  c0-1.555-0.724-3.022-1.958-3.967l-6.899-5.286c-2.504-1.919-2.626-5.649-0.253-7.727l7.404-6.484  c1.084-0.949,1.705-2.32,1.705-3.76V242.128H230.76z"/>
<g>
	<path style="fill:#57565C;" d="M404.636,161.609L368.991,29.804c-3.56-13.164-15.504-22.307-29.14-22.307H256h-83.851   c-13.637,0-25.58,9.143-29.14,22.307l-35.645,131.805c-5.189,19.189,9.262,38.068,29.14,38.068h87.508v47.677   c0,2.003,1.196,3.813,3.04,4.598l23.95,10.201l22.692-11.124c1.713-0.84,2.798-2.581,2.798-4.488v-11.378h6.497   c2.76,0,4.998-2.238,4.998-4.998v-30.488h87.508C395.374,199.677,409.826,180.798,404.636,161.609z"/>
	<path style="fill:#57565C;" d="M404.636,161.609L368.991,29.804c-3.56-13.164-15.504-22.307-29.14-22.307H256h-83.851   c-13.637,0-25.58,9.143-29.14,22.307l-35.645,131.805c-5.189,19.189,9.262,38.068,29.14,38.068h87.508v47.677   c0,2.003,1.196,3.813,3.04,4.598l21.846,9.305c1.336,0.569,2.854,0.529,4.158-0.11l20.638-10.117   c1.713-0.84,2.798-2.581,2.798-4.488v-11.378h6.497c2.76,0,4.998-2.238,4.998-4.998v-30.488h87.508   C395.374,199.677,409.826,180.798,404.636,161.609z"/>
</g>
<path style="fill:#3C3B40;" d="M375.494,199.677h-62.976c19.872,0,34.327-18.883,29.139-38.065l-35.646-131.81  c-3.559-13.165-15.504-22.301-29.139-22.301h62.976c13.645,0,25.58,9.137,29.139,22.301l35.646,131.809  C409.822,180.794,395.376,199.677,375.494,199.677z"/>
<ellipse style="fill:#FFFFFF;" cx="256" cy="60.48" rx="38.985" ry="26.24"/>
<path d="M411.873,159.652L376.228,27.847C371.796,11.451,356.836,0,339.852,0H172.149c-16.985,0-31.944,11.451-36.377,27.847  l-19.017,70.319c-1.081,3.997,1.283,8.113,5.28,9.195c3.997,1.075,8.113-1.284,9.194-5.28l19.017-70.319  c2.67-9.872,11.677-16.767,21.903-16.767h167.702c10.227,0,19.233,6.895,21.903,16.767L397.4,163.568  c1.859,6.874,0.442,14.06-3.887,19.715c-4.328,5.655-10.896,8.898-18.017,8.898h-87.508c-4.14,0-7.497,3.356-7.497,7.497v27.989  h-3.998c-4.141,0-7.497,3.356-7.497,7.497v9.819l-18.212,8.928l-19.274-8.21v-46.024c0-4.141-3.357-7.497-7.497-7.497h-87.508  c-7.121,0-13.689-3.243-18.017-8.898c-4.329-5.655-5.745-12.841-3.887-19.715l2.239-8.281c1.081-3.997-1.283-8.113-5.28-9.195  c-4-1.081-8.114,1.284-9.194,5.28l-2.239,8.281c-3.088,11.417-0.735,23.352,6.454,32.743c7.189,9.392,18.096,14.778,29.924,14.778  h80.011v40.18c0,4.702,2.619,8.96,6.747,11.095v232.653c0,4.446,2.391,8.59,6.238,10.816l14.529,8.405  c1.935,1.12,4.096,1.678,6.255,1.678c2.223,0,4.444-0.592,6.417-1.773l13.962-8.356c3.749-2.244,6.077-6.352,6.077-10.72V463.63  c0-3.39-1.404-6.679-3.852-9.024l-3.624-3.471l4.233-4.662c2.091-2.305,3.243-5.287,3.243-8.398v-30.09  c0-3.862-1.83-7.569-4.896-9.918l-4.478-3.431l5.109-4.474c2.71-2.372,4.264-5.8,4.264-9.402v-41.47  c0-4.141-3.357-7.497-7.497-7.497s-7.497,3.356-7.497,7.497v40.337l-6.551,5.737c-2.828,2.477-4.38,6.051-4.257,9.81  c0.123,3.757,1.905,7.224,4.889,9.509l5.92,4.536v27.891l-5.219,5.748c-4.586,5.051-4.319,12.704,0.608,17.423l4.611,4.416v25.037  l-11.484,6.873l-12.007-6.947V264.873l7.703,3.281c1.568,0.668,3.233,1.001,4.897,1.001c1.885-0.001,3.767-0.428,5.499-1.277  l5.392-2.643v21.408c0,4.141,3.357,7.497,7.497,7.497c4.141,0,7.497-3.356,7.497-7.497v-28.759l0.252-0.123  c4.249-2.083,6.995-6.487,6.995-11.219v-3.921c6.424-0.511,11.496-5.902,11.496-12.455v-22.991h80.011  c11.827,0,22.734-5.387,29.924-14.778C412.608,183.005,414.961,171.07,411.873,159.652z"/>
<path d="M256,94.218c-26.065,0-46.482-14.819-46.482-33.737S229.936,26.744,256,26.744s46.482,14.819,46.482,33.737  S282.065,94.218,256,94.218z M256,41.738c-17.068,0-31.488,8.584-31.488,18.743S238.932,79.223,256,79.223  s31.488-8.584,31.488-18.743S273.068,41.738,256,41.738z"/>
<g>
</g>
<g>
</g>
<g>
</g>
<g>
</g>
<g>
</g>
<g>
</g>
<g>
</g>
<g>
</g>
<g>
</g>
<g>
</g>
<g>
</g>
<g>
</g>
<g>
</g>
<g>
</g>
<g>
</g>
</svg>
