<?xml version="1.0" encoding="iso-8859-1"?>
<!-- Generator: Adobe Illustrator 19.0.0, SVG Export Plug-In . SVG Version: 6.00 Build 0)  -->
<svg xmlns="http://www.w3.org/2000/svg" xmlns:xlink="http://www.w3.org/1999/xlink" version="1.1" id="Layer_1" x="0px" y="0px" viewBox="0 0 512.001 512.001" style="enable-background:new 0 0 512.001 512.001;" xml:space="preserve">
<path style="fill:#FDDD85;" d="M267.979,316.352v8.904c7.128,3.938,11.959,11.544,11.959,20.285s-4.831,16.347-11.959,20.285v22.653  c27.407,4.755,48.254,28.724,48.254,57.58c0,32.276-26.078,58.44-58.247,58.44s-58.247-26.165-58.247-58.44  c0-28.714,20.64-52.59,47.846-57.51v-21.823c-8.113-3.586-13.78-11.719-13.78-21.185s5.667-17.599,13.78-21.185v-8.004  L267.979,316.352L267.979,316.352z"/>
<circle style="fill:#FDD042;" cx="257.982" cy="446.13" r="44.601"/>
<path style="fill:#3494D0;" d="M309.075,137.63V60.572c0-29.311-23.762-53.073-53.073-53.073l0,0  c-29.311,0-53.073,23.762-53.073,53.073v77.058h21.965V59.395c0-17.181,13.928-31.108,31.108-31.108l0,0  c17.181,0,31.108,13.928,31.108,31.108v78.235H309.075z"/>
<path style="fill:#F07B52;" d="M339.559,316.472H172.445c-8.613,0-15.596-6.982-15.596-15.596V153.225  c0-8.613,6.982-15.596,15.596-15.596h167.113c8.613,0,15.596,6.982,15.596,15.596v147.651  C355.154,309.489,348.172,316.472,339.559,316.472z"/>
<path style="fill:#DD6140;" d="M355.151,153.227v147.644c0,8.619-6.979,15.598-15.588,15.598h-43.495  c8.609,0,15.588-6.979,15.588-15.598V153.227c0-8.619-6.979-15.598-15.588-15.598h43.495  C348.172,137.629,355.151,144.608,355.151,153.227z"/>
<path d="M339.559,130.131h-22.984V60.572c0-1.016-0.026-2.054-0.078-3.087c-0.207-4.136-3.716-7.33-7.864-7.114  c-4.136,0.206-7.321,3.727-7.114,7.864c0.039,0.782,0.059,1.569,0.059,2.337v69.559h-6.967V59.395  c0-21.289-17.319-38.608-38.607-38.608s-38.607,17.319-38.607,38.608v70.736h-6.967V60.572c0-25.129,20.444-45.573,45.574-45.573  c8.05,0,15.957,2.124,22.869,6.142c3.578,2.084,8.171,0.867,10.252-2.714c2.082-3.58,0.867-8.17-2.714-10.252  C277.212,2.827,266.697,0,256.002,0c-33.4,0-60.573,27.172-60.573,60.572v69.559h-22.984c-12.735,0-23.095,10.36-23.095,23.094  v64.145c0,4.142,3.357,7.499,7.499,7.499s7.499-3.357,7.499-7.499v-64.145c0-4.464,3.632-8.096,8.097-8.096h30.483h21.965h62.216  h21.965h30.483c4.464,0,8.097,3.631,8.097,8.096v147.651c0,4.464-3.632,8.096-8.097,8.096H172.446c-4.464,0-8.097-3.631-8.097-8.096  v-31.013c0-4.142-3.357-7.499-7.499-7.499s-7.499,3.357-7.499,7.499v31.013c0,12.734,10.36,23.094,23.095,23.094h62.735  c-5.575,5.639-8.877,13.34-8.877,21.568c0,10.417,5.277,20.003,13.781,25.608v11.444c-28.069,7.914-47.846,33.668-47.846,63.469  c0,8.86,1.725,17.463,5.127,25.57c1.604,3.819,5.999,5.614,9.817,4.013c3.819-1.603,5.616-5.998,4.013-9.817  c-2.628-6.259-3.96-12.909-3.96-19.765c0-24.68,17.53-45.763,41.682-50.132c3.569-0.645,6.164-3.753,6.164-7.379v-21.824  c0-2.969-1.752-5.659-4.468-6.86c-5.657-2.5-9.312-8.123-9.312-14.326c0-6.202,3.656-11.826,9.312-14.326  c2.717-1.201,4.468-3.89,4.468-6.86v-0.119h5.396v1.019c0,2.73,1.483,5.244,3.873,6.564c4.989,2.757,8.087,8.014,8.087,13.721  c0,5.708-3.098,10.966-8.087,13.722c-2.389,1.32-3.873,3.834-3.873,6.564v22.653c0,3.647,2.624,6.765,6.217,7.389  c24.358,4.226,42.038,25.335,42.038,50.193c0,28.09-22.766,50.943-50.748,50.943c-10.277,0-20.172-3.065-28.616-8.865  c-3.417-2.344-8.083-1.478-10.428,1.936c-2.344,3.414-1.477,8.082,1.936,10.428c10.954,7.523,23.786,11.5,37.107,11.5  c36.253,0,65.747-29.581,65.747-65.941c0-30.016-19.946-55.814-48.255-63.582V369.85c7.471-5.75,11.96-14.705,11.96-24.311  c0-8.193-3.275-15.906-8.873-21.568h60.994c12.735,0,23.095-10.36,23.095-23.094V153.225  C362.654,140.491,352.294,130.131,339.559,130.131z M279.611,130.131h-47.218V59.395c0-13.018,10.591-23.61,23.609-23.61  s23.609,10.592,23.609,23.61V130.131z"/>
<circle style="fill:#FFFFFF;" cx="257.982" cy="469.95" r="13.01"/>
<path d="M278.488,470.064c0-11.305-9.197-20.503-20.503-20.503c-11.305,0-20.503,9.197-20.503,20.503  c0,11.305,9.197,20.503,20.503,20.503C269.291,490.567,278.488,481.37,278.488,470.064z M252.481,470.064  c0-3.035,2.469-5.504,5.504-5.504c3.035,0,5.504,2.469,5.504,5.504s-2.469,5.504-5.504,5.504  C254.95,475.568,252.481,473.099,252.481,470.064z"/>
<g>
</g>
<g>
</g>
<g>
</g>
<g>
</g>
<g>
</g>
<g>
</g>
<g>
</g>
<g>
</g>
<g>
</g>
<g>
</g>
<g>
</g>
<g>
</g>
<g>
</g>
<g>
</g>
<g>
</g>
</svg>
