<?xml version="1.0" encoding="iso-8859-1"?>
<!-- Generator: Adobe Illustrator 19.0.0, SVG Export Plug-In . SVG Version: 6.00 Build 0)  -->
<svg xmlns="http://www.w3.org/2000/svg" xmlns:xlink="http://www.w3.org/1999/xlink" version="1.1" id="Layer_1" x="0px" y="0px" viewBox="0 0 512 512" style="enable-background:new 0 0 512 512;" xml:space="preserve">
<path style="fill:#FDDD85;" d="M368.758,88.716c0-44.864-50.483-81.234-112.758-81.234S143.241,43.851,143.241,88.716  c0,40.824,41.804,74.612,96.255,80.365v183.263h-8.592c-5.313,0-9.953,4.01-10.296,9.312c-0.376,5.81,4.225,10.639,9.954,10.639  h8.934v127.947c0,2.362,1.915,4.277,4.277,4.277h24.455c2.362,0,4.277-1.915,4.277-4.277v-8.817c0-2.362,1.915-4.277,4.277-4.277  h11.398c2.362,0,4.277-1.915,4.277-4.277v-9.267c0-2.362,1.915-4.277,4.277-4.277h21.33c2.362,0,4.277,1.915,4.277,4.277l0,0  c0,2.362,1.915,4.277,4.277,4.277h11.398c2.362,0,4.277-1.915,4.277-4.277V445.1c0-2.362-1.915-4.277-4.277-4.277h-11.398  c-2.362,0-4.277,1.915-4.277,4.277l0,0c0,2.362-1.915,4.277-4.277,4.277h-21.33c-2.362,0-4.277-1.915-4.277-4.277v-9.267  c0-2.362-1.915-4.277-4.277-4.277h-11.398c-2.362,0-4.277-1.915-4.277-4.277v-54.985h8.592c5.313,0,9.953-4.01,10.296-9.312  c0.376-5.81-4.225-10.639-9.954-10.639h-8.934V169.08C326.953,163.326,368.758,129.54,368.758,88.716z"/>
<ellipse style="fill:#FDD042;" cx="255.995" cy="88.719" rx="86.339" ry="62.199"/>
<path style="fill:#FFFFFF;" d="M280.798,54.601c-9.958,0-18.861,4.5-24.799,11.573c-5.938-7.073-14.842-11.573-24.799-11.573  c-17.877,0-32.368,14.492-32.368,32.368s14.492,32.368,32.368,32.368c9.958,0,18.861-4.5,24.799-11.573  c5.938,7.073,14.841,11.573,24.799,11.573c17.877,0,32.368-14.492,32.368-32.368S298.675,54.601,280.798,54.601z"/>
<path d="M239.495,220.662c-4.132,0-7.482-3.349-7.482-7.482v-37.511c-25.355-3.776-48.528-13.547-65.831-27.854  c-19.618-16.221-30.423-37.209-30.423-59.1c0-24.17,12.833-46.724,36.134-63.512C194.454,8.951,224.323,0,255.999,0  c25.734,0,50.258,5.873,70.923,16.985c3.64,1.957,5.003,6.493,3.046,10.132c-1.955,3.641-6.493,5.003-10.133,3.046  c-18.494-9.944-40.568-15.2-63.836-15.2c-58.05,0-105.276,33.084-105.276,73.753c0,36.178,38.502,67.53,89.559,72.925  c3.806,0.401,6.696,3.612,6.696,7.44v44.099C246.977,217.313,243.628,220.662,239.495,220.662z"/>
<path d="M268.227,512h-24.456c-6.483,0-11.758-5.275-11.758-11.758V379.776h-1.452c-4.808,0-9.451-2.012-12.738-5.52  c-3.287-3.506-4.993-8.276-4.682-13.084c0.591-9.146,8.394-16.311,17.762-16.311h1.11v-77.809c0-4.133,3.349-7.482,7.482-7.482  s7.482,3.349,7.482,7.482v85.291c0,4.132-3.349,7.482-7.482,7.482h-8.591c-1.452,0-2.749,1.059-2.83,2.314  c-0.058,0.907,0.33,1.526,0.667,1.884c0.276,0.295,0.881,0.79,1.821,0.79h8.933c4.132,0,7.482,3.349,7.482,7.482v124.742h18.046  v-5.612c0-6.483,5.274-11.757,11.757-11.757h8.194v-6.062c0-6.483,5.274-11.758,11.757-11.758h21.33  c5.373,0,9.915,3.623,11.314,8.553h5.432v-22.094h-5.432c-1.399,4.93-5.942,8.552-11.314,8.552h-21.33  c-6.483,0-11.757-5.275-11.757-11.758v-6.061h-8.194c-6.483,0-11.757-5.275-11.757-11.758v-54.989c0-4.132,3.349-7.482,7.482-7.482  h8.591c1.453,0,2.749-1.059,2.83-2.314c0.058-0.907-0.33-1.526-0.666-1.884c-0.277-0.295-0.882-0.79-1.822-0.79h-8.933  c-4.133,0-7.482-3.349-7.482-7.482V169.08c0-3.828,2.889-7.038,6.696-7.44c51.056-5.396,89.559-36.746,89.559-72.925  c0-8.496-2.069-16.831-6.149-24.775c-1.888-3.676-0.439-8.186,3.236-10.074c3.675-1.887,8.184-0.438,10.074,3.237  c5.177,10.08,7.802,20.716,7.802,31.611c0,21.891-10.805,42.879-30.423,59.1c-17.303,14.307-40.476,24.078-65.831,27.854v169.192  h1.452c4.807,0,9.451,2.012,12.738,5.52c3.287,3.506,4.993,8.276,4.682,13.084c-0.591,9.146-8.394,16.311-17.762,16.311h-1.11v44.3  h8.193c6.483,0,11.758,5.275,11.758,11.758v6.061h15.363c1.399-4.93,5.942-8.552,11.314-8.552h11.398  c6.483,0,11.758,5.274,11.758,11.757v28.505c0,6.483-5.275,11.758-11.758,11.758h-11.398c-5.373,0-9.915-3.623-11.314-8.553h-15.363  v6.062c0,6.483-5.275,11.758-11.758,11.758h-8.193v5.611C279.985,506.725,274.71,512,268.227,512z"/>
<path d="M280.798,126.82c-9.105,0-17.807-3.089-24.799-8.658c-6.992,5.568-15.694,8.658-24.799,8.658  c-21.975,0-39.851-17.877-39.851-39.85c0-21.975,17.877-39.851,39.851-39.851c9.104,0,17.807,3.09,24.799,8.658  c6.992-5.567,15.695-8.658,24.799-8.658c21.975,0,39.851,17.877,39.851,39.851C320.649,108.943,302.772,126.82,280.798,126.82z   M255.999,100.283c2.211,0,4.309,0.978,5.73,2.671c4.749,5.657,11.699,8.902,19.069,8.902c13.723,0,24.888-11.164,24.888-24.887  s-11.165-24.888-24.888-24.888c-7.369,0-14.32,3.245-19.069,8.902c-1.421,1.693-3.52,2.671-5.73,2.671  c-2.21,0-4.309-0.978-5.73-2.671c-4.749-5.657-11.7-8.902-19.069-8.902c-13.723,0-24.888,11.165-24.888,24.888  s11.165,24.887,24.888,24.887c7.37,0,14.32-3.245,19.069-8.902C251.691,101.262,253.789,100.283,255.999,100.283z"/>
<g>
</g>
<g>
</g>
<g>
</g>
<g>
</g>
<g>
</g>
<g>
</g>
<g>
</g>
<g>
</g>
<g>
</g>
<g>
</g>
<g>
</g>
<g>
</g>
<g>
</g>
<g>
</g>
<g>
</g>
</svg>
