<?xml version="1.0" encoding="iso-8859-1"?>
<!-- Generator: Adobe Illustrator 19.0.0, SVG Export Plug-In . SVG Version: 6.00 Build 0)  -->
<svg xmlns="http://www.w3.org/2000/svg" xmlns:xlink="http://www.w3.org/1999/xlink" version="1.1" id="Layer_1" x="0px" y="0px" viewBox="0 0 512 512" style="enable-background:new 0 0 512 512;" xml:space="preserve">
<path style="fill:#F07B52;" d="M341.293,228.721V92.809c0-47.106-38.187-85.293-85.293-85.293l0,0  c-47.106,0-85.293,38.187-85.293,85.293v135.912h35.299V90.918c0-27.61,22.382-49.994,49.994-49.994l0,0  c27.61,0,49.994,22.382,49.994,49.994v137.803H341.293z"/>
<circle style="fill:#3494D0;" cx="256.004" cy="348.842" r="155.636"/>
<path style="fill:#0E80AD;" d="M411.635,348.84c0,85.961-69.674,155.645-155.635,155.645c-9.491,0-18.782-0.852-27.811-2.486  c72.691-13.109,127.834-76.69,127.834-153.159c0-76.459-55.143-140.041-127.834-153.149c9.03-1.634,18.321-2.486,27.811-2.486  C341.96,193.204,411.635,262.889,411.635,348.84z"/>
<path style="fill:#FFFFFF;" d="M278.051,339.837c0-12.179-9.873-22.052-22.052-22.052c-12.179,0-22.052,9.873-22.052,22.052  c0,7.424,3.673,13.987,9.297,17.983v19.349c0,7.016,5.74,12.756,12.756,12.756l0,0c7.016,0,12.756-5.74,12.756-12.756V357.82  C274.379,353.824,278.051,347.262,278.051,339.837z"/>
<path d="M418.832,338.49c-0.26-4.144-3.834-7.282-7.973-7.031c-4.143,0.26-7.291,3.83-7.031,7.973  c0.195,3.109,0.294,6.277,0.294,9.413c0,81.675-66.447,148.123-148.123,148.123S107.877,430.52,107.877,348.845  S174.325,200.721,256,200.721c59.861,0,113.501,35.67,136.657,90.874c1.606,3.829,6.012,5.631,9.839,4.024  c3.828-1.605,5.63-6.011,4.024-9.839c-12.362-29.472-32.613-53.889-57.71-71.227V154.51c0-4.152-3.365-7.517-7.517-7.517  c-4.151,0-7.517,3.365-7.517,7.517v50.818c-6.518-3.528-13.29-6.61-20.266-9.228V90.918c0-31.711-25.798-57.511-57.511-57.511  s-57.511,25.799-57.511,57.511v105.246c-6.994,2.643-13.766,5.744-20.266,9.284V92.809c0-42.886,34.89-77.776,77.776-77.776  s77.776,34.89,77.776,77.776v11.589c0,4.152,3.365,7.517,7.517,7.517c4.151,0,7.517-3.365,7.517-7.517V92.809  C348.809,41.634,307.175,0,256,0s-92.809,41.634-92.809,92.809v121.926c-42.476,29.485-70.347,78.6-70.347,134.109  C92.844,438.808,166.035,512,256,512s163.156-73.191,163.156-163.156C419.156,345.395,419.047,341.912,418.832,338.49z   M213.523,90.918c0-23.422,19.055-42.477,42.477-42.477s42.477,19.055,42.477,42.477v100.354  c-13.631-3.656-27.885-5.584-42.477-5.584c-14.69,0-28.927,1.963-42.477,5.62L213.523,90.918L213.523,90.918z"/>
<path d="M256,397.441c-11.178,0-20.273-9.095-20.273-20.273v-15.817c-5.881-5.55-9.296-13.334-9.296-21.514  c0-16.304,13.265-29.568,29.568-29.568c16.305,0,29.568,13.265,29.568,29.568c0,8.181-3.415,15.965-9.296,21.515v15.817  C276.272,388.347,267.178,397.441,256,397.441z M256,325.302c-8.015,0-14.535,6.52-14.535,14.536c0,4.694,2.293,9.126,6.134,11.856  c1.984,1.409,3.162,3.693,3.162,6.127v19.349c0,2.84,2.399,5.239,5.239,5.239s5.239-2.399,5.239-5.239v-19.349  c0-2.434,1.178-4.718,3.162-6.127c3.841-2.73,6.134-7.162,6.134-11.856C270.535,331.823,264.015,325.302,256,325.302z"/>
<g>
</g>
<g>
</g>
<g>
</g>
<g>
</g>
<g>
</g>
<g>
</g>
<g>
</g>
<g>
</g>
<g>
</g>
<g>
</g>
<g>
</g>
<g>
</g>
<g>
</g>
<g>
</g>
<g>
</g>
</svg>
