<?xml version="1.0" encoding="iso-8859-1"?>
<!-- Generator: Adobe Illustrator 19.0.0, SVG Export Plug-In . SVG Version: 6.00 Build 0)  -->
<svg xmlns="http://www.w3.org/2000/svg" xmlns:xlink="http://www.w3.org/1999/xlink" version="1.1" id="Layer_1" x="0px" y="0px" viewBox="0 0 512.001 512.001" style="enable-background:new 0 0 512.001 512.001;" xml:space="preserve">
<path style="fill:#FDDD85;" d="M377.582,129.092c0-68.727-57.026-124.136-126.342-121.491  c-64.237,2.451-115.823,55.309-116.807,119.585c-0.941,61.432,43.691,112.617,102.276,121.959v30.599  c-10.884,6.552-18.166,18.479-18.166,32.109s7.282,25.557,18.166,32.11v67.72h-5.888c-5.33,0-9.986,4.022-10.33,9.343  c-0.378,5.829,4.239,10.676,9.988,10.676h6.231v67.79c0,2.764,2.24,5.004,5.004,5.004h33.577h60.884c2.764,0,5.004-2.24,5.004-5.004  v-29.012c0-2.764-2.24-5.004-5.004-5.004h-16.007c-2.764,0-5.004,2.24-5.004,5.004v11.632c0,2.764-2.24,5.004-5.004,5.004h-11.698  c-2.764,0-5.004-2.24-5.004-5.004v-11.632c0-2.764-2.24-5.004-5.004-5.004h-8.158c-2.764,0-5.004-2.24-5.004-5.004v-28.771h5.889  c5.331,0,9.986-4.023,10.33-9.343c0.377-5.829-4.239-10.675-9.988-10.675h-6.231v-67.721c10.884-6.552,18.166-18.479,18.166-32.11  c0-13.63-7.282-25.557-18.166-32.109v-30.599C333.271,239.901,377.582,189.674,377.582,129.092z"/>
<circle style="fill:#FDD042;" cx="255.997" cy="129.119" r="100.586"/>
<path id="SVGCleanerId_0" style="fill:#FFFFFF;" d="M283.975,76.997c-13.739-0.337-25.294,9.276-27.974,22.143  c-2.68-12.87-14.24-22.483-27.983-22.142c-14.577,0.361-26.514,12.088-27.128,26.656c-0.101,2.396,0.103,4.728,0.573,6.962  c0,0,7.612,39.854,54.536,61.28l0,0l0,0l0,0l0,0c46.924-21.426,54.536-61.28,54.536-61.28c0.47-2.235,0.675-4.567,0.573-6.964  C310.495,89.08,298.553,77.354,283.975,76.997z"/>
<g>
	<path id="SVGCleanerId_0_1_" style="fill:#FFFFFF;" d="M283.975,76.997c-13.739-0.337-25.294,9.276-27.974,22.143   c-2.68-12.87-14.24-22.483-27.983-22.142c-14.577,0.361-26.514,12.088-27.128,26.656c-0.101,2.396,0.103,4.728,0.573,6.962   c0,0,7.612,39.854,54.536,61.28l0,0l0,0l0,0l0,0c46.924-21.426,54.536-61.28,54.536-61.28c0.47-2.235,0.675-4.567,0.573-6.964   C310.495,89.08,298.553,77.354,283.975,76.997z"/>
</g>
<path d="M336.175,512.001h-94.46c-6.898,0-12.511-5.612-12.511-12.511v-60.33c-4.361-0.322-8.498-2.283-11.505-5.491  c-3.298-3.518-5.01-8.304-4.698-13.129c0.56-8.645,7.538-15.523,16.203-16.293v-56.295c-11.302-8.425-18.166-21.889-18.166-36.1  c0-14.212,6.863-27.676,18.166-36.1v-20.367c-27.843-5.889-53.102-20.936-71.678-42.83c-20.21-23.819-31.077-54.179-30.598-85.484  c0.505-33.02,13.582-64.31,36.819-88.107c23.244-23.804,54.215-37.606,87.207-38.865c35.466-1.368,69.048,11.423,94.558,35.979  c25.522,24.566,39.577,57.599,39.577,93.013c0,30.896-11.088,60.791-31.221,84.175c-18.509,21.497-43.554,36.294-71.07,42.117  v20.368c11.302,8.425,18.166,21.888,18.166,36.1c0,14.211-6.864,27.676-18.166,36.1v56.27c4.361,0.322,8.499,2.283,11.506,5.491  c3.297,3.517,5.009,8.304,4.697,13.128c-0.56,8.645-7.538,15.524-16.203,16.294v18.834h5.655c6.898,0,12.511,5.612,12.511,12.511  v9.13h6.692v-9.13c0-6.898,5.612-12.511,12.511-12.511h16.007c6.898,0,12.511,5.612,12.511,12.511v29.01  C348.686,506.389,343.073,512.001,336.175,512.001z M244.216,496.988h89.456v-24.006h-11.003v9.13  c0,6.898-5.612,12.511-12.511,12.511H298.46c-6.898,0-12.511-5.612-12.511-12.511v-9.13h-5.654c-6.898,0-12.511-5.612-12.511-12.511  V431.7c0-4.146,3.361-7.507,7.506-7.507h5.889c1.457,0,2.757-1.063,2.839-2.321c0.059-0.91-0.331-1.531-0.669-1.89  c-0.278-0.296-0.884-0.793-1.827-0.793h-6.231c-4.145,0-7.506-3.36-7.506-7.506v-67.719c0-2.632,1.379-5.072,3.634-6.43  c9.1-5.479,14.532-15.08,14.532-25.68c0-10.601-5.432-20.2-14.531-25.678c-2.255-1.359-3.634-3.798-3.634-6.431v-30.599  c0-3.69,2.681-6.832,6.324-7.412c55.606-8.867,95.967-56.238,95.967-112.64c0-31.296-12.421-60.488-34.975-82.197  c-22.541-21.697-52.219-32.969-83.573-31.794c-60.524,2.309-108.661,51.594-109.589,112.2  c-0.863,56.377,40.388,105.571,95.953,114.43c3.643,0.581,6.324,3.723,6.324,7.412v30.599c0,2.633-1.379,5.072-3.634,6.431  c-9.1,5.477-14.531,15.077-14.531,25.678c0,10.6,5.432,20.2,14.531,25.68c2.255,1.358,3.634,3.798,3.634,6.43v67.719  c0,4.146-3.361,7.506-7.506,7.506h-5.888c-1.458,0-2.758,1.062-2.839,2.32c-0.059,0.91,0.331,1.531,0.669,1.891  c0.278,0.296,0.884,0.793,1.827,0.793h6.231c4.145,0,7.506,3.36,7.506,7.507v65.289H244.216z"/>
<path d="M256.001,179.401c-1.064,0-2.128-0.226-3.118-0.678c-49.275-22.499-58.239-63.901-58.776-66.617  c-0.6-2.872-0.841-5.822-0.716-8.77c0.781-18.518,15.909-33.384,34.442-33.843c11.183-0.273,21.434,4.682,28.169,12.821  c6.732-8.137,16.976-13.073,28.157-12.822l0,0c18.536,0.455,33.669,15.32,34.452,33.841c0.125,2.951-0.116,5.902-0.716,8.776  c-0.542,2.74-9.516,44.122-58.776,66.614C258.129,179.175,257.065,179.401,256.001,179.401z M228.718,84.495  c-0.171,0-0.342,0.002-0.514,0.007c-10.662,0.264-19.364,8.815-19.814,19.467c-0.072,1.717,0.069,3.432,0.419,5.101  c0.01,0.045,0.019,0.09,0.027,0.136c0.282,1.412,7.366,34.706,47.163,54.377c40.141-19.861,47.097-54.025,47.165-54.377  c0.009-0.046,0.018-0.092,0.027-0.137c0.351-1.666,0.492-3.383,0.419-5.102c-0.451-10.654-9.157-19.205-19.821-19.466l0,0  c-0.169-0.005-0.339-0.007-0.506-0.007c-9.631,0-17.967,6.73-19.935,16.176c-0.725,3.481-3.793,5.976-7.348,5.976  c-3.555,0-6.624-2.494-7.348-5.976C246.684,91.225,238.348,84.495,228.718,84.495z"/>
<g>
</g>
<g>
</g>
<g>
</g>
<g>
</g>
<g>
</g>
<g>
</g>
<g>
</g>
<g>
</g>
<g>
</g>
<g>
</g>
<g>
</g>
<g>
</g>
<g>
</g>
<g>
</g>
<g>
</g>
</svg>
