<?xml version="1.0" encoding="iso-8859-1"?>
<!-- Generator: Adobe Illustrator 19.0.0, SVG Export Plug-In . SVG Version: 6.00 Build 0)  -->
<svg xmlns="http://www.w3.org/2000/svg" xmlns:xlink="http://www.w3.org/1999/xlink" version="1.1" id="Layer_1" x="0px" y="0px" viewBox="0 0 512.002 512.002" style="enable-background:new 0 0 512.002 512.002;" xml:space="preserve">
<path style="fill:#FDDD85;" d="M12.496,73.299h179.969c2.761,0,4.998,2.238,4.998,4.998v59.93c0,2.761,2.238,4.999,4.999,4.999  h297.042c2.761,0,4.999,2.238,4.999,4.998v285.481c0,2.761-2.238,4.999-4.999,4.999H12.496c-2.761,0-4.998-2.238-4.998-4.999V78.298  C7.498,75.537,9.736,73.299,12.496,73.299z"/>
<path style="fill:#FDD042;" d="M504.506,148.225v285.484c0,2.761-2.238,4.999-4.999,4.999h-54.983V143.226h54.983  C502.268,143.226,504.506,145.464,504.506,148.225z"/>
<path style="fill:#74DBC9;" d="M310.088,382.771h-96.181c-4.957,0-8.976-4.019-8.976-8.976v-84.979c0-4.957,4.019-8.976,8.976-8.976  h96.181c4.957,0,8.976,4.019,8.976,8.976v84.979C319.064,378.752,315.045,382.771,310.088,382.771z"/>
<path style="fill:#6DCCBA;" d="M319.061,288.816v84.974c0,4.958-4.019,8.977-8.977,8.977h-31.991c4.959,0,8.977-4.019,8.977-8.977  v-84.974c0-4.959-4.019-8.977-8.977-8.977h31.991C315.043,279.838,319.061,283.857,319.061,288.816z"/>
<path d="M365.967,446.201H4.998c-2.76,0-4.998-2.238-4.998-4.998V70.8c0-2.761,2.238-4.999,4.998-4.999h45.749  c4.106,0,7.686,3.164,7.808,7.268c0.127,4.246-3.277,7.727-7.494,7.727H19.994c-2.761,0-4.998,2.238-4.998,4.998v340.412  c0,2.761,2.238,4.999,4.998,4.999h345.659c4.106,0,7.686,3.164,7.808,7.268C373.588,442.72,370.185,446.201,365.967,446.201z"/>
<path d="M507.002,446.201h-84.738c-4.106,0-7.686-3.164-7.808-7.268c-0.127-4.246,3.277-7.727,7.494-7.727h70.056  c2.761,0,4.999-2.238,4.999-4.999V155.722c0-2.761-2.238-4.999-4.999-4.999H194.965c-2.761,0-4.998-2.238-4.998-4.998v-59.93  c0-2.761-2.238-4.998-4.999-4.998H105.36c-4.106,0-7.686-3.164-7.808-7.268c-0.127-4.246,3.277-7.727,7.494-7.727h94.918  c2.761,0,4.998,2.238,4.998,4.998v59.93c0,2.761,2.238,4.999,4.999,4.999h297.042c2.761,0,4.999,2.238,4.999,4.998v300.476  C512,443.963,509.763,446.201,507.002,446.201z M192.466,80.797h0.01H192.466z"/>
<path d="M310.088,272.343h-5.687v-43.182c0-23.382-19.023-42.404-42.404-42.404c-23.382,0-42.403,19.023-42.403,42.404v43.182  h-5.687c-9.083,0-16.474,7.39-16.474,16.474v84.979c0,9.083,7.39,16.474,16.474,16.474h96.181c9.083,0,16.474-7.39,16.474-16.474  v-84.979C326.562,279.733,319.172,272.343,310.088,272.343z M234.59,229.16c0-15.114,12.295-27.409,27.408-27.409  c15.114,0,27.409,12.295,27.409,27.409v43.182H234.59V229.16z M311.567,373.795c0,0.815-0.663,1.478-1.478,1.478h-96.181  c-0.815,0-1.478-0.663-1.478-1.478v-84.979c0-0.815,0.663-1.478,1.478-1.478h96.181c0.815,0,1.478,0.663,1.478,1.478V373.795z"/>
<g>
</g>
<g>
</g>
<g>
</g>
<g>
</g>
<g>
</g>
<g>
</g>
<g>
</g>
<g>
</g>
<g>
</g>
<g>
</g>
<g>
</g>
<g>
</g>
<g>
</g>
<g>
</g>
<g>
</g>
</svg>
