<?xml version="1.0" encoding="iso-8859-1"?>
<!-- Generator: Adobe Illustrator 19.0.0, SVG Export Plug-In . SVG Version: 6.00 Build 0)  -->
<svg xmlns="http://www.w3.org/2000/svg" xmlns:xlink="http://www.w3.org/1999/xlink" version="1.1" id="Layer_1" x="0px" y="0px" viewBox="0 0 512.002 512.002" style="enable-background:new 0 0 512.002 512.002;" xml:space="preserve">
<path style="fill:#F07B52;" d="M419.866,11.134H296h-9.514H148.88h-1.887H12.608c-2.821,0-5.108,2.239-5.108,5v479.734  c0,2.761,2.287,5,5.108,5h134.385h1.887h137.606H296h123.866c2.761,0,5-2.239,5-5V16.134  C424.866,13.373,422.627,11.134,419.866,11.134z"/>
<rect x="94.87" y="11.139" style="fill:#DD6140;" width="51.01" height="489.73"/>
<circle style="fill:#FDDD85;" cx="76.69" cy="82.041" r="30.963"/>
<path style="fill:#FDD042;" d="M107.65,82.039c0,17.1-13.86,30.97-30.96,30.97c-4.26,0-8.31-0.86-12-2.42  c11.14-4.68,18.96-15.71,18.96-28.55s-7.82-23.86-18.96-28.55c3.69-1.55,7.74-2.41,12-2.41  C93.79,51.079,107.65,64.939,107.65,82.039z"/>
<rect x="234.36" y="11.139" style="fill:#DD6140;" width="51.01" height="489.73"/>
<circle style="fill:#FDDD85;" cx="216.18" cy="82.041" r="30.963"/>
<path style="fill:#FDD042;" d="M247.143,82.039c0,17.1-13.86,30.97-30.96,30.97c-4.26,0-8.31-0.86-12-2.42  c11.14-4.68,18.96-15.71,18.96-28.55s-7.82-23.86-18.96-28.55c3.69-1.55,7.74-2.41,12-2.41  C233.283,51.079,247.143,64.939,247.143,82.039z"/>
<path style="fill:#DD6140;" d="M424.866,16.139v479.73c0,2.761-2.239,5-5,5h-46.01V11.139h46.01  C422.627,11.139,424.866,13.377,424.866,16.139z"/>
<circle style="fill:#FDDD85;" cx="355.68" cy="82.041" r="30.963"/>
<path style="fill:#FDD042;" d="M386.636,82.039c0,17.1-13.86,30.97-30.96,30.97c-4.26,0-8.31-0.86-12-2.42  c11.14-4.68,18.96-15.71,18.96-28.55s-7.82-23.86-18.96-28.55c3.69-1.55,7.74-2.41,12-2.41  C372.776,51.079,386.636,64.939,386.636,82.039z"/>
<circle style="fill:#3494D0;" cx="424" cy="242.021" r="80.75"/>
<path style="fill:#0E80AD;" d="M504.745,242.023c0,44.592-36.148,80.746-80.746,80.746c-5.2,0-10.28-0.489-15.209-1.43  c37.328-7.113,65.542-39.923,65.542-79.316c0-39.398-28.213-72.208-65.542-79.321c4.929-0.941,10.009-1.43,15.209-1.43  C468.597,161.273,504.745,197.426,504.745,242.023z"/>
<path style="fill:#74DBC9;" d="M448.003,285.935h-48.005c-2.474,0-4.48-2.006-4.48-4.48V239.04c0-2.474,2.006-4.48,4.48-4.48h48.005  c2.474,0,4.48,2.006,4.48,4.48v42.414C452.483,283.929,450.477,285.935,448.003,285.935z"/>
<path style="fill:#6DCCBA;" d="M452.481,239.04v42.412c0,2.475-2.006,4.481-4.481,4.481h-15.967c2.475,0,4.481-2.006,4.481-4.481  V239.04c0-2.475-2.006-4.481-4.481-4.481H448C450.475,234.559,452.481,236.565,452.481,239.04z"/>
<path d="M500.349,198.236c-1.995-3.474-6.431-4.672-9.901-2.675c-3.473,1.995-4.67,6.428-2.675,9.901  c6.361,11.07,9.723,23.712,9.723,36.56c0,40.526-32.97,73.496-73.496,73.496s-73.496-32.97-73.496-73.496  c0-40.525,32.97-73.495,73.496-73.495c10.239,0,20.143,2.062,29.438,6.13c3.67,1.605,7.946-0.066,9.551-3.736  c1.605-3.669-0.067-7.945-3.736-9.551c-8.583-3.756-17.597-6.08-26.887-6.951V16.134c0-6.893-5.607-12.5-12.5-12.5h-133.38  c-0.188,0-0.372,0.015-0.557,0.028c-0.184-0.014-0.369-0.028-0.557-0.028h-138.38c-0.188,0-0.372,0.015-0.557,0.028  c-0.184-0.014-0.369-0.028-0.557-0.028H12.5C5.607,3.634,0,9.241,0,16.134v132.968c0,4.143,3.357,7.5,7.5,7.5s7.5-3.357,7.5-7.5  V18.634h123.38v474.734H15V203.102c0-4.143-3.357-7.5-7.5-7.5s-7.5,3.357-7.5,7.5v292.767c0,6.893,5.607,12.5,12.5,12.5h133.38  c0.188,0,0.372-0.014,0.557-0.028c0.184,0.014,0.369,0.028,0.557,0.028h138.38c0.188,0,0.372-0.014,0.557-0.028  c0.184,0.014,0.369,0.028,0.557,0.028h133.379c6.893,0,12.5-5.607,12.5-12.5V329.621c44.614-4.227,79.635-41.899,79.635-87.6  C512,226.641,507.971,211.501,500.349,198.236z M277.873,493.368h-123.38V18.634h123.38V493.368z M417.365,493.368H293.986V18.634  h123.379v135.637C371.929,157.674,336,195.73,336,242.021s35.929,84.348,81.365,87.751V493.368z"/>
<path d="M424,184.591c-13.605,0-24.674,11.069-24.674,24.674v18.078c-6.156,0.351-11.061,5.455-11.061,11.698v42.415  c0,6.469,5.263,11.731,11.733,11.731h48.005c6.469,0,11.733-5.262,11.733-11.731V239.04c0-6.243-4.905-11.347-11.061-11.698v-18.078  C448.674,195.659,437.605,184.591,424,184.591z M413.83,209.264c0-5.608,4.562-10.17,10.17-10.17s10.17,4.562,10.17,10.17v18.044  h-20.34V209.264z M445.231,278.682h-42.462v-36.87h42.462V278.682z"/>
<path d="M45.727,361.465h61.927c4.143,0,7.5-3.357,7.5-7.5s-3.357-7.5-7.5-7.5H45.727c-4.143,0-7.5,3.357-7.5,7.5  S41.584,361.465,45.727,361.465z"/>
<path d="M45.727,393.35h61.927c4.143,0,7.5-3.357,7.5-7.5s-3.357-7.5-7.5-7.5H45.727c-4.143,0-7.5,3.357-7.5,7.5  S41.584,393.35,45.727,393.35z"/>
<path d="M45.727,425.234h61.927c4.143,0,7.5-3.357,7.5-7.5s-3.357-7.5-7.5-7.5H45.727c-4.143,0-7.5,3.357-7.5,7.5  S41.584,425.234,45.727,425.234z"/>
<path d="M45.727,457.12h61.927c4.143,0,7.5-3.357,7.5-7.5s-3.357-7.5-7.5-7.5H45.727c-4.143,0-7.5,3.357-7.5,7.5  S41.584,457.12,45.727,457.12z"/>
<path d="M76.689,120.505c21.209,0,38.464-17.254,38.464-38.463S97.898,43.578,76.689,43.578S38.227,60.833,38.227,82.042  S55.48,120.505,76.689,120.505z M76.689,58.578c12.938,0,23.464,10.525,23.464,23.464c0,12.938-10.525,23.463-23.464,23.463  c-12.938,0-23.463-10.525-23.463-23.463C53.227,69.104,63.752,58.578,76.689,58.578z"/>
<path d="M185.22,361.465h61.927c4.143,0,7.5-3.357,7.5-7.5s-3.357-7.5-7.5-7.5H185.22c-4.143,0-7.5,3.357-7.5,7.5  S181.077,361.465,185.22,361.465z"/>
<path d="M185.22,393.35h61.927c4.143,0,7.5-3.357,7.5-7.5s-3.357-7.5-7.5-7.5H185.22c-4.143,0-7.5,3.357-7.5,7.5  S181.077,393.35,185.22,393.35z"/>
<path d="M185.22,425.234h61.927c4.143,0,7.5-3.357,7.5-7.5s-3.357-7.5-7.5-7.5H185.22c-4.143,0-7.5,3.357-7.5,7.5  S181.077,425.234,185.22,425.234z"/>
<path d="M185.22,457.12h61.927c4.143,0,7.5-3.357,7.5-7.5s-3.357-7.5-7.5-7.5H185.22c-4.143,0-7.5,3.357-7.5,7.5  S181.077,457.12,185.22,457.12z"/>
<path d="M216.183,120.505c21.209,0,38.464-17.254,38.464-38.463s-17.255-38.464-38.464-38.464S177.72,60.833,177.72,82.042  S194.974,120.505,216.183,120.505z M216.183,58.578c12.938,0,23.464,10.525,23.464,23.464c0,12.938-10.525,23.463-23.464,23.463  c-12.938,0-23.463-10.525-23.463-23.463S203.245,58.578,216.183,58.578z"/>
<path d="M324.713,361.465h61.927c4.143,0,7.5-3.357,7.5-7.5s-3.357-7.5-7.5-7.5h-61.927c-4.143,0-7.5,3.357-7.5,7.5  S320.57,361.465,324.713,361.465z"/>
<path d="M324.713,393.35h61.927c4.143,0,7.5-3.357,7.5-7.5s-3.357-7.5-7.5-7.5h-61.927c-4.143,0-7.5,3.357-7.5,7.5  S320.57,393.35,324.713,393.35z"/>
<path d="M324.713,425.234h61.927c4.143,0,7.5-3.357,7.5-7.5s-3.357-7.5-7.5-7.5h-61.927c-4.143,0-7.5,3.357-7.5,7.5  S320.57,425.234,324.713,425.234z"/>
<path d="M324.713,457.12h61.927c4.143,0,7.5-3.357,7.5-7.5s-3.357-7.5-7.5-7.5h-61.927c-4.143,0-7.5,3.357-7.5,7.5  S320.57,457.12,324.713,457.12z"/>
<path d="M355.676,120.505c21.209,0,38.464-17.254,38.464-38.463s-17.255-38.464-38.464-38.464s-38.463,17.255-38.463,38.464  S334.467,120.505,355.676,120.505z M355.676,58.578c12.938,0,23.464,10.525,23.464,23.464c0,12.938-10.525,23.463-23.464,23.463  c-12.938,0-23.463-10.525-23.463-23.463C332.213,69.104,342.738,58.578,355.676,58.578z"/>
<g>
</g>
<g>
</g>
<g>
</g>
<g>
</g>
<g>
</g>
<g>
</g>
<g>
</g>
<g>
</g>
<g>
</g>
<g>
</g>
<g>
</g>
<g>
</g>
<g>
</g>
<g>
</g>
<g>
</g>
</svg>
