<?xml version="1.0" encoding="iso-8859-1"?>
<!-- Generator: Adobe Illustrator 19.0.0, SVG Export Plug-In . SVG Version: 6.00 Build 0)  -->
<svg xmlns="http://www.w3.org/2000/svg" xmlns:xlink="http://www.w3.org/1999/xlink" version="1.1" id="Layer_1" x="0px" y="0px" viewBox="0 0 512 512" style="enable-background:new 0 0 512 512;" xml:space="preserve">
<path d="M295.107,121.905c-2.139,0-4.262-0.909-5.745-2.675c-8.528-10.147-21.013-15.967-34.252-15.967  c-12.545,0-24.167,5.058-32.725,14.242c-2.824,3.031-7.57,3.198-10.6,0.374c-3.031-2.824-3.198-7.569-0.375-10.601  c11.261-12.085,27.188-19.016,43.699-19.016c17.68,0,34.35,7.77,45.734,21.316c2.665,3.171,2.255,7.901-0.916,10.566  C298.523,121.328,296.81,121.905,295.107,121.905z"/>
<path d="M318.629,88.861c-2.139,0-4.262-0.909-5.745-2.675c-14.518-17.273-35.771-27.181-58.31-27.181  c-21.049,0-41.355,8.837-55.712,24.245c-2.824,3.031-7.569,3.199-10.6,0.375c-3.03-2.824-3.198-7.569-0.375-10.6  c17.184-18.443,41.49-29.021,66.687-29.021c26.98,0,52.418,11.856,69.792,32.53c2.665,3.171,2.255,7.902-0.916,10.566  C322.045,88.284,320.332,88.861,318.629,88.861z"/>
<path d="M345.77,57.793c-2.139,0-4.262-0.909-5.745-2.675C318.596,29.623,287.226,15,253.956,15  c-31.07,0-61.043,13.044-82.234,35.786c-2.823,3.032-7.57,3.199-10.6,0.375s-3.198-7.569-0.375-10.601  C184.766,14.784,218.739,0,253.956,0c37.71,0,73.267,16.572,97.551,45.468c2.665,3.171,2.255,7.901-0.916,10.566  C349.186,57.216,347.473,57.793,345.77,57.793z"/>
<path style="fill:#EBEBEC;" d="M156.754,500.906v-350c0-1.985,1.609-3.593,3.593-3.593h191.305c1.985,0,3.593,1.609,3.593,3.593v350  c0,1.985-1.609,3.593-3.593,3.593H160.348C158.363,504.5,156.754,502.891,156.754,500.906z"/>
<path style="fill:#D7D8D9;" d="M355.25,150.902v350c0,1.99-1.61,3.6-3.6,3.6h-47c1.99,0,3.6-1.61,3.6-3.6v-350  c0-1.98-1.61-3.59-3.6-3.59h47C353.64,147.312,355.25,148.922,355.25,150.902z"/>
<rect x="264.65" y="147.31" style="fill:#F07B52;" width="43.12" height="357.19"/>
<path d="M351.652,139.813H237c-4.142,0-7.5,3.357-7.5,7.5s3.358,7.5,7.5,7.5h19.833V497h-92.579v-38.808c0-4.143-3.358-7.5-7.5-7.5  s-7.5,3.357-7.5,7.5v42.714c0,6.117,4.977,11.094,11.094,11.094h191.305c6.117,0,11.094-4.977,11.094-11.094v-350  C362.746,144.789,357.77,139.813,351.652,139.813z M271.833,154.813H299.5V497h-27.667V154.813z M347.746,497H314.5V154.813h33.246  V497z"/>
<path d="M156.754,412.692c4.142,0,7.5-3.357,7.5-7.5v-250.38H184.5c4.142,0,7.5-3.357,7.5-7.5s-3.358-7.5-7.5-7.5h-24.152  c-6.117,0-11.094,4.977-11.094,11.094v254.286C149.254,409.335,152.612,412.692,156.754,412.692z"/>
<g>
</g>
<g>
</g>
<g>
</g>
<g>
</g>
<g>
</g>
<g>
</g>
<g>
</g>
<g>
</g>
<g>
</g>
<g>
</g>
<g>
</g>
<g>
</g>
<g>
</g>
<g>
</g>
<g>
</g>
</svg>
