<?xml version="1.0" encoding="iso-8859-1"?>
<!-- Generator: Adobe Illustrator 19.0.0, SVG Export Plug-In . SVG Version: 6.00 Build 0)  -->
<svg xmlns="http://www.w3.org/2000/svg" xmlns:xlink="http://www.w3.org/1999/xlink" version="1.1" id="Layer_1" x="0px" y="0px" viewBox="0 0 511.999 511.999" style="enable-background:new 0 0 511.999 511.999;" xml:space="preserve">
<path style="fill:#FDDD85;" d="M390.598,504.491H121.402c-13.875,0-25.122-11.248-25.122-25.122V241.525  c0-13.875,11.248-25.122,25.122-25.122h269.195c13.875,0,25.122,11.248,25.122,25.122v237.845  C415.721,493.244,404.473,504.491,390.598,504.491z"/>
<path style="fill:#FDD042;" d="M415.718,241.527v237.845c0,13.873-11.241,25.125-25.125,25.125h-49.717  c13.873,0,25.115-11.251,25.115-25.125V241.527c0-13.873-11.241-25.125-25.115-25.125h49.717  C404.477,216.402,415.718,227.653,415.718,241.527z"/>
<g>
	<path style="fill:#74DBC9;" d="M230.024,268.846h-29.136c-2.764,0-5.005-2.241-5.005-5.005v-12.013   c0-2.764,2.241-5.005,5.005-5.005h29.136c2.764,0,5.005,2.241,5.005,5.005v12.013C235.029,266.605,232.788,268.846,230.024,268.846   z"/>
	<path style="fill:#74DBC9;" d="M311.111,268.846h-29.136c-2.764,0-5.005-2.241-5.005-5.005v-12.013   c0-2.764,2.241-5.005,5.005-5.005h29.136c2.764,0,5.005,2.241,5.005,5.005v12.013C316.117,266.605,313.876,268.846,311.111,268.846   z"/>
	<path style="fill:#74DBC9;" d="M230.024,319.902h-29.136c-2.764,0-5.005-2.241-5.005-5.005v-12.013   c0-2.764,2.241-5.005,5.005-5.005h29.136c2.764,0,5.005,2.241,5.005,5.005v12.013C235.029,317.661,232.788,319.902,230.024,319.902   z"/>
	<path style="fill:#74DBC9;" d="M311.111,319.902h-29.136c-2.764,0-5.005-2.241-5.005-5.005v-12.013   c0-2.764,2.241-5.005,5.005-5.005h29.136c2.764,0,5.005,2.241,5.005,5.005v12.013C316.117,317.661,313.876,319.902,311.111,319.902   z"/>
	<path style="fill:#74DBC9;" d="M230.024,370.958h-29.136c-2.764,0-5.005-2.241-5.005-5.005V353.94c0-2.764,2.241-5.005,5.005-5.005   h29.136c2.764,0,5.005,2.241,5.005,5.005v12.013C235.029,368.717,232.788,370.958,230.024,370.958z"/>
	<path style="fill:#74DBC9;" d="M311.111,370.958h-29.136c-2.764,0-5.005-2.241-5.005-5.005V353.94c0-2.764,2.241-5.005,5.005-5.005   h29.136c2.764,0,5.005,2.241,5.005,5.005v12.013C316.117,368.717,313.876,370.958,311.111,370.958z"/>
	<path style="fill:#74DBC9;" d="M230.024,422.014h-29.136c-2.764,0-5.005-2.241-5.005-5.005v-12.013   c0-2.764,2.241-5.005,5.005-5.005h29.136c2.764,0,5.005,2.241,5.005,5.005v12.013C235.029,419.773,232.788,422.014,230.024,422.014   z"/>
	<path style="fill:#74DBC9;" d="M311.111,422.014h-29.136c-2.764,0-5.005-2.241-5.005-5.005v-12.013   c0-2.764,2.241-5.005,5.005-5.005h29.136c2.764,0,5.005,2.241,5.005,5.005v12.013C316.117,419.773,313.876,422.014,311.111,422.014   z"/>
	<path style="fill:#74DBC9;" d="M230.024,473.069h-29.136c-2.764,0-5.005-2.241-5.005-5.005v-12.013   c0-2.764,2.241-5.005,5.005-5.005h29.136c2.764,0,5.005,2.241,5.005,5.005v12.013C235.029,470.828,232.788,473.069,230.024,473.069   z"/>
	<path style="fill:#74DBC9;" d="M311.111,473.069h-29.136c-2.764,0-5.005-2.241-5.005-5.005v-12.013   c0-2.764,2.241-5.005,5.005-5.005h29.136c2.764,0,5.005,2.241,5.005,5.005v12.013C316.117,470.828,313.876,473.069,311.111,473.069   z"/>
</g>
<path style="fill:#EBEBEC;" d="M341.196,216.402V92.704c0-47.053-38.144-85.197-85.197-85.197l0,0  c-47.053,0-85.196,38.144-85.196,85.197v123.697h35.259V90.814c0-27.58,22.358-49.938,49.938-49.938l0,0  c27.58,0,49.938,22.358,49.938,49.938v125.587H341.196z"/>
<path d="M390.598,208.894h-41.894v-54.56c0-4.147-3.362-7.508-7.508-7.508c-4.147,0-7.508,3.361-7.508,7.508v54.56h-20.243V90.814  c0-31.675-25.77-57.446-57.446-57.446s-57.446,25.77-57.446,57.446v118.078h-20.243V92.704c0-42.838,34.851-77.689,77.689-77.689  s77.689,34.851,77.689,77.689v11.575c0,4.147,3.362,7.508,7.508,7.508c4.147,0,7.508-3.361,7.508-7.508V92.704  C348.704,41.588,307.117,0,256,0s-92.704,41.588-92.704,92.704v116.189h-41.894c-17.992,0-32.63,14.638-32.63,32.63v164.592  c0,4.147,3.362,7.508,7.508,7.508c4.147,0,7.508-3.361,7.508-7.508V241.524c0-9.713,7.902-17.614,17.614-17.614h49.402h35.259  h99.874h35.259h49.403c9.712,0,17.614,7.901,17.614,17.614v237.846c0,9.713-7.902,17.614-17.614,17.614H121.401  c-9.712,0-17.614-7.901-17.614-17.614V458.84c0-4.147-3.362-7.508-7.508-7.508c-4.147,0-7.508,3.361-7.508,7.508v20.529  c0,17.992,14.638,32.63,32.63,32.63h269.196c17.992,0,32.63-14.638,32.63-32.63V241.524  C423.229,223.532,408.591,208.894,390.598,208.894z M213.571,90.814c0-23.396,19.034-42.429,42.429-42.429  s42.429,19.034,42.429,42.429v118.078h-84.858L213.571,90.814L213.571,90.814z"/>
<path d="M200.888,276.355h29.135c6.9,0,12.514-5.614,12.514-12.514v-12.013c0-6.9-5.614-12.514-12.514-12.514h-29.135  c-6.9,0-12.514,5.614-12.514,12.514v12.013C188.375,270.742,193.988,276.355,200.888,276.355z M203.391,254.332h24.13v7.008h-24.13  V254.332z"/>
<path d="M281.976,276.355h29.135c6.9,0,12.514-5.614,12.514-12.514v-12.013c0-6.9-5.614-12.514-12.514-12.514h-29.135  c-6.9,0-12.514,5.614-12.514,12.514v12.013C269.462,270.742,275.076,276.355,281.976,276.355z M284.479,254.332h24.13v7.008h-24.13  V254.332z"/>
<path d="M188.375,314.897c0,6.9,5.614,12.514,12.514,12.514h29.135c6.9,0,12.514-5.614,12.514-12.514v-12.013  c0-6.9-5.614-12.514-12.514-12.514h-29.135c-6.9,0-12.514,5.614-12.514,12.514V314.897z M203.391,305.387h24.13v7.008h-24.13  V305.387z"/>
<path d="M269.462,314.897c0,6.9,5.614,12.514,12.514,12.514h29.135c6.9,0,12.514-5.614,12.514-12.514v-12.013  c0-6.9-5.614-12.514-12.514-12.514h-29.135c-6.9,0-12.514,5.614-12.514,12.514V314.897z M284.479,305.387h24.13v7.008h-24.13  V305.387z"/>
<path d="M188.375,365.953c0,6.9,5.614,12.514,12.514,12.514h29.135c6.9,0,12.514-5.614,12.514-12.514V353.94  c0-6.9-5.614-12.514-12.514-12.514h-29.135c-6.9,0-12.514,5.614-12.514,12.514V365.953z M203.391,356.443h24.13v7.008h-24.13  V356.443z"/>
<path d="M269.462,365.953c0,6.9,5.614,12.514,12.514,12.514h29.135c6.9,0,12.514-5.614,12.514-12.514V353.94  c0-6.9-5.614-12.514-12.514-12.514h-29.135c-6.9,0-12.514,5.614-12.514,12.514V365.953z M284.479,356.443h24.13v7.008h-24.13  V356.443z"/>
<path d="M188.375,417.009c0,6.9,5.614,12.514,12.514,12.514h29.135c6.9,0,12.514-5.614,12.514-12.514v-12.013  c0-6.9-5.614-12.514-12.514-12.514h-29.135c-6.9,0-12.514,5.614-12.514,12.514V417.009z M203.391,407.499h24.13v7.008h-24.13  V407.499z"/>
<path d="M269.462,417.009c0,6.9,5.614,12.514,12.514,12.514h29.135c6.9,0,12.514-5.614,12.514-12.514v-12.013  c0-6.9-5.614-12.514-12.514-12.514h-29.135c-6.9,0-12.514,5.614-12.514,12.514V417.009z M284.479,407.499h24.13v7.008h-24.13  V407.499z"/>
<path d="M188.375,468.064c0,6.9,5.614,12.514,12.514,12.514h29.135c6.9,0,12.514-5.614,12.514-12.514v-12.013  c0-6.9-5.614-12.514-12.514-12.514h-29.135c-6.9,0-12.514,5.614-12.514,12.514V468.064z M203.391,458.553h24.13v7.008h-24.13  V458.553z"/>
<path d="M269.462,468.064c0,6.9,5.614,12.514,12.514,12.514h29.135c6.9,0,12.514-5.614,12.514-12.514v-12.013  c0-6.9-5.614-12.514-12.514-12.514h-29.135c-6.9,0-12.514,5.614-12.514,12.514V468.064z M284.479,458.553h24.13v7.008h-24.13  V458.553z"/>
<g>
</g>
<g>
</g>
<g>
</g>
<g>
</g>
<g>
</g>
<g>
</g>
<g>
</g>
<g>
</g>
<g>
</g>
<g>
</g>
<g>
</g>
<g>
</g>
<g>
</g>
<g>
</g>
<g>
</g>
</svg>
