<?xml version="1.0" encoding="iso-8859-1"?>
<!-- Generator: Adobe Illustrator 19.0.0, SVG Export Plug-In . SVG Version: 6.00 Build 0)  -->
<svg xmlns="http://www.w3.org/2000/svg" xmlns:xlink="http://www.w3.org/1999/xlink" version="1.1" id="Layer_1" x="0px" y="0px" viewBox="0 0 512.001 512.001" style="enable-background:new 0 0 512.001 512.001;" xml:space="preserve">
<path style="fill:#74DBC9;" d="M289.815,504.477h-67.63c-69.411,0-125.68-56.269-125.68-125.68V241.881  c0-13.855,11.232-25.086,25.086-25.086h268.816c13.855,0,25.086,11.232,25.086,25.086v136.916  C415.494,448.209,359.226,504.477,289.815,504.477z"/>
<path style="fill:#6DCCBA;" d="M415.492,241.882v136.912c0,69.419-56.267,125.686-125.676,125.686h-52.164  c69.409,0,125.676-56.267,125.676-125.686V241.882c0-13.854-11.225-25.089-25.089-25.089h52.165  C404.267,216.794,415.492,228.029,415.492,241.882z"/>
<path style="fill:#FFFFFF;" d="M278.072,340.101c0-12.191-9.882-22.073-22.073-22.073s-22.073,9.882-22.073,22.073  c0,7.431,3.677,14,9.305,18v19.366c0,7.022,5.745,12.768,12.768,12.768l0,0c7.022,0,12.768-5.745,12.768-12.768v-19.366  C274.397,354.101,278.072,347.532,278.072,340.101z"/>
<path style="fill:#F07B52;" d="M341.372,216.85V92.896c0-47.15-38.223-85.372-85.373-85.372l0,0  c-47.15,0-85.372,38.223-85.372,85.372V216.85h35.332V91.003c0-27.637,22.404-50.041,50.041-50.041l0,0  c27.636,0,50.041,22.404,50.041,50.041V216.85H341.372z"/>
<path d="M256,397.758c11.189,0,20.292-9.103,20.292-20.292v-15.83c5.886-5.554,9.305-13.346,9.305-21.536  c0-16.319-13.277-29.596-29.596-29.596s-29.596,13.278-29.596,29.596c0,8.19,3.418,15.981,9.305,21.536v15.83  C235.709,388.655,244.812,397.758,256,397.758z M256,325.552c8.022,0,14.548,6.526,14.548,14.548c0,4.7-2.296,9.135-6.139,11.868  c-1.986,1.411-3.166,3.697-3.166,6.132v19.366c0,2.892-2.352,5.244-5.244,5.244c-2.893,0-5.244-2.352-5.244-5.244V358.1  c0-2.437-1.18-4.722-3.166-6.132c-3.845-2.732-6.139-7.168-6.139-11.868C241.451,332.078,247.977,325.552,256,325.552z"/>
<path d="M390.407,209.272h-41.512v-54.617c0-4.156-3.368-7.524-7.523-7.524c-4.156,0-7.523,3.368-7.523,7.524v54.617h-20.285V91.002  c0-31.741-25.823-57.564-57.564-57.564s-57.564,25.823-57.564,57.564v118.269h-20.286V92.896c0-42.926,34.922-77.849,77.849-77.849  s77.849,34.922,77.849,77.849v11.6c0,4.156,3.368,7.523,7.523,7.523c4.156,0,7.523-3.368,7.523-7.523v-11.6  C348.896,41.674,307.222,0,256,0s-92.896,41.674-92.896,92.896v116.376h-41.512c-17.981,0-32.611,14.629-32.611,32.611v136.916  c0,2.899,0.095,5.836,0.282,8.732c0.267,4.147,3.835,7.276,7.994,7.022c4.146-0.268,7.29-3.847,7.022-7.994  c-0.167-2.573-0.251-5.183-0.251-7.76V241.883c0-9.685,7.878-17.563,17.563-17.563h48.161c0.287,0.033,0.578,0.055,0.875,0.055  h35.332c0.296,0,0.587-0.021,0.875-0.055h98.332c0.287,0.033,0.578,0.055,0.875,0.055h35.332c0.296,0,0.587-0.021,0.875-0.055  h48.161c9.685,0,17.563,7.878,17.563,17.563v136.916c0,65.151-53.003,118.156-118.156,118.156h-67.631  c-43.288,0-83.066-23.634-103.81-61.68c-1.989-3.647-6.556-4.991-10.208-3.004c-3.649,1.99-4.992,6.559-3.004,10.208  c23.383,42.883,68.223,69.523,117.022,69.523h67.631c73.448,0,133.203-59.755,133.203-133.203V241.883  C423.018,223.9,408.388,209.272,390.407,209.272z M298.516,209.272h-85.033V91.002c0-23.445,19.073-42.517,42.517-42.517  s42.516,19.073,42.516,42.517V209.272z"/>
<g>
</g>
<g>
</g>
<g>
</g>
<g>
</g>
<g>
</g>
<g>
</g>
<g>
</g>
<g>
</g>
<g>
</g>
<g>
</g>
<g>
</g>
<g>
</g>
<g>
</g>
<g>
</g>
<g>
</g>
</svg>
