<?xml version="1.0" encoding="iso-8859-1"?>
<!-- Generator: Adobe Illustrator 19.0.0, SVG Export Plug-In . SVG Version: 6.00 Build 0)  -->
<svg xmlns="http://www.w3.org/2000/svg" xmlns:xlink="http://www.w3.org/1999/xlink" version="1.1" id="Layer_1" x="0px" y="0px" viewBox="0 0 511.998 511.998" style="enable-background:new 0 0 511.998 511.998;" xml:space="preserve">
<path style="fill:#FDDD85;" d="M353.753,422.011v-23.008c0-2.763-2.24-5.002-5.002-5.002h-74.08c-2.763,0-5.002-2.24-5.002-5.002  v-90.071c13.168-5.801,22.366-18.958,22.366-34.272c0-15.313-9.198-28.471-22.366-34.271V195.08  c44.855-8.086,78.714-47.813,77.633-95.242c-1.152-50.58-42.58-91.621-93.168-92.325c-52.831-0.736-95.889,41.869-95.889,94.532  c0,46.682,33.836,85.457,78.32,93.15v36.646c-11.569,6.37-19.41,18.675-19.41,32.815c0,14.14,7.841,26.446,19.41,32.816v202.021  c0,2.763,2.24,5.002,5.002,5.002h28.101h79.082c2.763,0,5.002-2.24,5.002-5.002v-23.008c0-2.763-2.24-5.002-5.002-5.002h-74.08  c-2.763,0-5.002-2.24-5.002-5.002v-34.464c0-2.763,2.24-5.002,5.002-5.002h74.08C351.514,427.013,353.753,424.774,353.753,422.011z"/>
<circle style="fill:#FDD042;" cx="252.79" cy="102.04" r="72.39"/>
<circle style="fill:#FFFFFF;" cx="252.79" cy="63.4" r="21.11"/>
<path d="M356.254,511.998h-122.19c-2.763,0-5.002-2.24-5.002-5.002V384.74c0-1.484,0.637-2.922,1.799-3.847  c6.245-4.97,13.208-0.631,13.208,5.336v105.76c0,2.763,2.24,5.002,5.002,5.002h92.177c2.763,0,5.002-2.24,5.002-5.002v-8.003  c0-2.763-2.24-5.002-5.002-5.002h-74.08c-2.763,0-5.002-2.24-5.002-5.002v-49.471c0-2.763,2.24-5.002,5.002-5.002h74.08  c2.763,0,5.002-2.24,5.002-5.002v-8.002c0-2.763-2.24-5.002-5.002-5.002h-74.08c-2.763,0-5.002-2.24-5.002-5.002v-97.573  c0-2.946,1.708-5.654,4.407-6.835c10.907-4.771,17.959-15.55,17.959-27.438s-7.052-22.665-17.959-27.436  c-2.699-1.181-4.407-3.889-4.407-6.835V195.08c0-3.644,2.62-6.742,6.206-7.39c41.405-7.481,71.453-43.495,71.453-85.646  c0-11.623-2.25-22.901-6.688-33.524c-1.464-3.503-0.292-7.674,2.981-9.598c4-2.352,9.01-0.594,10.751,3.539  c5.284,12.545,7.962,25.863,7.962,39.583c0,47.313-32.296,88.031-77.659,99.112v24.641c13.733,7.981,22.366,22.739,22.366,38.859  s-8.634,30.879-22.366,38.861v77.979c0,2.763,2.24,5.002,5.002,5.002h74.08c2.763,0,5.002,2.24,5.002,5.002v38.014  c0,2.763-2.24,5.002-5.002,5.002h-74.08c-2.763,0-5.002,2.24-5.002,5.002v19.458c0,2.763,2.24,5.002,5.002,5.002h74.08  c2.763,0,5.002,2.24,5.002,5.002v38.015C361.256,509.758,359.016,511.998,356.254,511.998z"/>
<path d="M236.565,340.377c-4.144,0-7.503-3.359-7.503-7.503v-31.231c-12.075-8.342-19.41-22.135-19.41-36.987  c0-14.852,7.335-28.643,19.41-36.986v-26.356c-45.749-10.835-78.32-51.615-78.32-99.269C150.742,45.777,196.519,0,252.786,0  c20.671,0,40.58,6.149,57.576,17.784c3.419,2.34,4.294,7.01,1.953,10.429c-2.339,3.421-7.011,4.297-10.429,1.953  c-14.489-9.917-31.467-15.16-49.099-15.16c-47.992,0-87.038,39.045-87.038,87.038c0,42.468,30.321,78.533,72.096,85.756  c3.597,0.622,6.224,3.743,6.224,7.394v36.647c0,2.735-1.488,5.253-3.884,6.573c-9.576,5.273-15.525,15.328-15.525,26.242  s5.949,20.97,15.525,26.243c2.397,1.32,3.884,3.838,3.884,6.573v35.402C244.068,337.018,240.71,340.377,236.565,340.377z"/>
<path d="M252.786,92.006c-15.775,0-28.609-12.834-28.609-28.609s12.834-28.609,28.609-28.609s28.609,12.834,28.609,28.609  S268.561,92.006,252.786,92.006z M252.786,49.794c-7.5,0-13.603,6.102-13.603,13.603S245.285,77,252.786,77  c7.5,0,13.603-6.102,13.603-13.603S260.286,49.794,252.786,49.794z"/>
<g>
</g>
<g>
</g>
<g>
</g>
<g>
</g>
<g>
</g>
<g>
</g>
<g>
</g>
<g>
</g>
<g>
</g>
<g>
</g>
<g>
</g>
<g>
</g>
<g>
</g>
<g>
</g>
<g>
</g>
</svg>
