<?xml version="1.0" encoding="iso-8859-1"?>
<!-- Generator: Adobe Illustrator 19.0.0, SVG Export Plug-In . SVG Version: 6.00 Build 0)  -->
<svg xmlns="http://www.w3.org/2000/svg" xmlns:xlink="http://www.w3.org/1999/xlink" version="1.1" id="Layer_1" x="0px" y="0px" viewBox="0 0 512.002 512.002" style="enable-background:new 0 0 512.002 512.002;" xml:space="preserve">
<path style="fill:#FDDD85;" d="M236.712,241.508v249.546c0,1.788,0.953,3.441,2.501,4.336l14.561,8.424  c1.575,0.911,3.52,0.897,5.081-0.038l13.993-8.375c1.512-0.905,2.437-2.537,2.437-4.299v-27.584c0-1.366-0.558-2.673-1.544-3.618  l-5.394-5.166c-1.96-1.878-2.069-4.975-0.244-6.985l5.881-6.478c0.837-0.922,1.301-2.122,1.301-3.367v-30.159  c0-1.559-0.725-3.028-1.963-3.976l-6.915-5.298c-2.51-1.923-2.632-5.662-0.253-7.745l7.421-6.499  c1.086-0.951,1.709-2.325,1.709-3.769v-138.95H236.712z"/>
<path style="fill:#57565C;" d="M302.766,7.514h-93.534c-38.787,0-70.23,31.443-70.23,70.23v158.755c0,2.767,2.243,5.01,5.01,5.01  h79.926v48.025c0,2.008,1.199,3.822,3.047,4.609l21.896,9.326c1.339,0.571,2.861,0.53,4.168-0.111l20.686-10.14  c1.717-0.841,2.805-2.586,2.805-4.498v-6.395c0-2.767,2.243-5.01,5.01-5.01h1.503c2.767,0,5.01-2.243,5.01-5.01v-30.797h79.926  c2.767,0,5.01-2.243,5.01-5.01V77.744C372.996,38.957,341.553,7.514,302.766,7.514z"/>
<path style="fill:#3C3B40;" d="M372.993,77.748v158.753c0,2.765-2.234,5.01-5.01,5.01h-46.088c2.775,0,5.01-2.244,5.01-5.01V77.748  c0-38.794-31.44-70.234-70.224-70.234h46.088C341.553,7.514,372.993,38.954,372.993,77.748z"/>
<rect x="213.918" y="39.576" style="fill:#FFFFFF;" width="84.16" height="30.06"/>
<path d="M302.766,0h-93.534c-19.596,0-38.314,7.314-52.707,20.594c-14.308,13.201-23.098,31.116-24.751,50.445  c-0.354,4.135,2.712,7.774,6.847,8.127c4.14,0.351,7.773-2.711,8.127-6.847c2.748-32.125,30.194-57.29,62.485-57.29h93.534  c34.581,0,62.715,28.134,62.715,62.715v156.25H146.517V125.74c0-4.151-3.364-7.514-7.514-7.514s-7.514,3.364-7.514,7.514v110.758  c0,6.906,5.618,12.524,12.524,12.524h72.412v43.823c0,3.012,1.798,5.733,4.57,6.914l8.205,3.495v27.378  c0,4.151,3.364,7.514,7.514,7.514s7.514-3.364,7.514-7.514v-20.977l3.818,1.626c0.942,0.401,1.944,0.601,2.945,0.601  c1.134,0,2.266-0.256,3.308-0.767l13.474-6.605v74.815l-6.566,5.75c-2.835,2.481-4.39,6.064-4.267,9.83s1.908,7.24,4.9,9.533  l5.933,4.547v27.955l-5.231,5.761c-4.596,5.062-4.329,12.733,0.61,17.463l4.622,4.426v25.095l-11.511,6.889l-12.034-6.963V384.735  c0-4.15-3.364-7.514-7.514-7.514c-4.15,0-7.514,3.364-7.514,7.514v106.32c0,4.454,2.395,8.607,6.252,10.841l14.562,8.424  c1.939,1.122,4.105,1.682,6.27,1.682c2.227,0,4.454-0.593,6.432-1.777l13.992-8.374c3.759-2.248,6.094-6.366,6.094-10.747V463.52  c0-3.397-1.407-6.693-3.861-9.044l-3.632-3.479l4.243-4.673c2.096-2.31,3.25-5.299,3.25-8.418v-30.158  c0-3.871-1.834-7.587-4.907-9.941l-4.488-3.439l5.123-4.487c2.715-2.379,4.272-5.812,4.272-9.42v-84.482  c0.796-1.206,1.252-2.632,1.252-4.134v-7.013h4.008c4.15,0,7.514-3.364,7.514-7.514v-28.293h72.412  c6.906,0,12.524-5.618,12.524-12.524V77.744C380.51,34.876,345.635,0,302.766,0z M280.546,269.801h-4.008  c-4.15,0-7.514,3.364-7.514,7.514v9.843l-18.254,8.948l-19.318-8.229v-38.616h49.094V269.801z"/>
<path d="M305.594,69.633V39.576c0-4.151-3.364-7.514-7.514-7.514h-84.161c-4.15,0-7.514,3.364-7.514,7.514v30.057  c0,4.151,3.364,7.514,7.514,7.514h84.161C302.23,77.147,305.594,73.784,305.594,69.633z M290.565,62.119h-69.132V47.09h69.132  V62.119z"/>
<g>
</g>
<g>
</g>
<g>
</g>
<g>
</g>
<g>
</g>
<g>
</g>
<g>
</g>
<g>
</g>
<g>
</g>
<g>
</g>
<g>
</g>
<g>
</g>
<g>
</g>
<g>
</g>
<g>
</g>
</svg>
