<?xml version="1.0" encoding="iso-8859-1"?>
<!-- Generator: Adobe Illustrator 19.0.0, SVG Export Plug-In . SVG Version: 6.00 Build 0)  -->
<svg xmlns="http://www.w3.org/2000/svg" xmlns:xlink="http://www.w3.org/1999/xlink" version="1.1" id="Layer_1" x="0px" y="0px" viewBox="0 0 512 512" style="enable-background:new 0 0 512 512;" xml:space="preserve">
<path style="fill:#57565C;" d="M411.786,504.504H100.214c-2.76,0-4.998-2.237-4.998-4.998V12.494c0-2.76,2.237-4.998,4.998-4.998  h311.571c2.76,0,4.998,2.237,4.998,4.998v487.012C416.783,502.266,414.546,504.504,411.786,504.504z"/>
<path style="fill:#3C3B40;" d="M411.786,504.504h-52.9V7.496h52.9c2.76,0,4.998,2.237,4.998,4.998v487.012  C416.783,502.266,414.546,504.504,411.786,504.504z"/>
<circle style="fill:#FDDD85;" cx="256" cy="179.27" r="120.71"/>
<path style="fill:#FDD042;" d="M376.701,179.277c0,66.657-54.034,120.701-120.701,120.701c-8.216,0-16.232-0.82-23.988-2.389  c55.163-11.125,96.713-59.871,96.713-118.312c0-58.451-41.55-107.198-96.713-118.322c7.756-1.569,15.772-2.389,23.988-2.389  C322.667,58.566,376.701,112.61,376.701,179.277z"/>
<g>
	<circle style="fill:#FFFFFF;" cx="256" cy="179.27" r="26.535"/>
	<path style="fill:#FFFFFF;" d="M277.992,371.896c0-12.146-9.846-21.992-21.992-21.992s-21.992,9.846-21.992,21.992   c0,7.404,3.663,13.949,9.271,17.934v19.296c0,6.997,5.724,12.721,12.721,12.721l0,0c6.997,0,12.721-5.724,12.721-12.721V389.83   C274.33,385.844,277.992,379.3,277.992,371.896z"/>
</g>
<path d="M411.785,512h-311.57c-6.889,0-12.494-5.605-12.494-12.494v-97.91c0-4.141,3.356-7.496,7.496-7.496s7.496,3.356,7.496,7.496  v95.411h306.573V14.993H102.714v333.962c0,4.141-3.356,7.496-7.496,7.496s-7.496-3.356-7.496-7.496V12.494  C87.721,5.605,93.326,0,100.215,0h311.57c6.889,0,12.494,5.605,12.494,12.494v487.012C424.279,506.395,418.674,512,411.785,512z"/>
<circle cx="129.95" cy="38.513" r="12.99"/>
<circle cx="382.05" cy="38.513" r="12.99"/>
<circle cx="129.95" cy="473.49" r="12.99"/>
<circle cx="382.05" cy="473.49" r="12.99"/>
<path d="M256,307.475c-70.691,0-128.202-57.511-128.202-128.202S185.309,51.071,256,51.071c18.129,0,35.654,3.709,52.089,11.026  c3.782,1.684,5.484,6.114,3.8,9.897c-1.684,3.782-6.116,5.484-9.897,3.8c-14.504-6.456-29.978-9.73-45.992-9.73  c-62.424,0-113.209,50.786-113.209,113.209S193.576,292.482,256,292.482s113.209-50.786,113.209-113.209  c0-26.592-9.402-52.431-26.473-72.76c-2.663-3.17-2.251-7.899,0.919-10.561c3.171-2.663,7.899-2.251,10.561,0.919  c19.336,23.026,29.985,52.29,29.985,82.402C384.202,249.964,326.691,307.475,256,307.475z"/>
<path d="M256,213.304c-18.765,0-34.032-15.266-34.032-34.031s15.267-34.032,34.032-34.032c18.765,0,34.032,15.267,34.032,34.032  S274.765,213.304,256,213.304z M256,160.233c-10.499,0-19.04,8.541-19.04,19.04c0,10.498,8.541,19.039,19.04,19.039  c10.499,0,19.04-8.541,19.04-19.039C275.04,168.774,266.499,160.233,256,160.233z"/>
<path d="M256,429.343c-11.148,0-20.218-9.07-20.218-20.218v-15.773c-5.864-5.535-9.271-13.299-9.271-21.457  c0-16.26,13.229-29.489,29.489-29.489c16.26,0,29.489,13.229,29.489,29.489c0,8.158-3.407,15.922-9.271,21.457v15.773  C276.218,420.273,267.148,429.343,256,429.343z M256,357.4c-7.993,0-14.496,6.503-14.496,14.496c0,4.681,2.287,9.102,6.117,11.824  c1.979,1.407,3.154,3.683,3.154,6.11v19.295c0,2.833,2.392,5.225,5.225,5.225c2.833,0,5.225-2.392,5.225-5.225V389.83  c0-2.428,1.175-4.704,3.154-6.11c3.83-2.722,6.117-7.143,6.117-11.824C270.496,363.902,263.993,357.4,256,357.4z"/>
<g>
</g>
<g>
</g>
<g>
</g>
<g>
</g>
<g>
</g>
<g>
</g>
<g>
</g>
<g>
</g>
<g>
</g>
<g>
</g>
<g>
</g>
<g>
</g>
<g>
</g>
<g>
</g>
<g>
</g>
</svg>
