<?xml version="1.0" encoding="iso-8859-1"?>
<!-- Generator: Adobe Illustrator 19.0.0, SVG Export Plug-In . SVG Version: 6.00 Build 0)  -->
<svg xmlns="http://www.w3.org/2000/svg" xmlns:xlink="http://www.w3.org/1999/xlink" version="1.1" id="Layer_1" x="0px" y="0px" viewBox="0 0 512 512" style="enable-background:new 0 0 512 512;" xml:space="preserve">
<path style="fill:#FDDD85;" d="M332.74,217.158V93.009c0-47.224-38.283-85.507-85.507-85.507l0,0  c-47.224,0-85.507,38.283-85.507,85.507v124.149h35.388V91.112c0-27.68,22.439-50.119,50.119-50.119l0,0  c27.68,0,50.119,22.439,50.119,50.119v126.045h35.388V217.158z"/>
<path style="fill:#EBEBEC;" d="M382.322,504.464H112.144c-13.925,0-25.214-11.289-25.214-25.214V240.537  c0-13.925,11.289-25.214,25.214-25.214h270.178c13.925,0,25.214,11.289,25.214,25.214V479.25  C407.536,493.175,396.247,504.464,382.322,504.464z"/>
<path style="fill:#D7D8D9;" d="M407.534,240.54v238.712c0,13.924-11.282,25.216-25.216,25.216h-49.898  c13.924,0,25.206-11.292,25.206-25.216V240.54c0-13.924-11.282-25.216-25.206-25.216h49.898  C396.252,215.323,407.534,226.616,407.534,240.54z"/>
<g>
	<path style="fill:#3494D0;" d="M413.015,315.008h-90.427c-6.631,0-12.057-5.426-12.057-12.057v-32.152   c0-6.631,5.426-12.057,12.057-12.057h90.427c6.631,0,12.057,5.426,12.057,12.057v32.152   C425.072,309.582,419.646,315.008,413.015,315.008z"/>
	<path style="fill:#3494D0;" d="M413.015,389.359h-90.427c-6.631,0-12.057-5.426-12.057-12.057V345.15   c0-6.631,5.426-12.057,12.057-12.057h90.427c6.631,0,12.057,5.426,12.057,12.057v32.152   C425.072,383.933,419.646,389.359,413.015,389.359z"/>
	<path style="fill:#3494D0;" d="M413.015,463.709h-90.427c-6.631,0-12.057-5.426-12.057-12.057V419.5   c0-6.631,5.426-12.057,12.057-12.057h90.427c6.631,0,12.057,5.426,12.057,12.057v32.152   C425.072,458.284,419.646,463.709,413.015,463.709z"/>
</g>
<g>
	<path style="fill:#0E80AD;" d="M425.072,270.795v32.152c0,6.631-5.426,12.057-12.057,12.057h-30.142   c6.631,0,12.057-5.426,12.057-12.057v-32.152c0-6.631-5.426-12.057-12.057-12.057h30.142   C419.646,258.738,425.072,264.164,425.072,270.795z"/>
	<path style="fill:#0E80AD;" d="M425.072,345.146v32.152c0,6.631-5.426,12.057-12.057,12.057h-30.142   c6.631,0,12.057-5.426,12.057-12.057v-32.152c0-6.631-5.426-12.057-12.057-12.057h30.142   C419.646,333.089,425.072,338.515,425.072,345.146z"/>
	<path style="fill:#0E80AD;" d="M425.072,419.497v32.152c0,6.631-5.426,12.057-12.057,12.057h-30.142   c6.631,0,12.057-5.426,12.057-12.057v-32.152c0-6.631-5.426-12.057-12.057-12.057h30.142   C419.646,407.44,425.072,412.866,425.072,419.497z"/>
</g>
<path d="M432.607,302.951v-32.152c0-10.108-7.696-18.451-17.536-19.483v-10.779c0-18.058-14.691-32.749-32.75-32.749h-42.046V93.043  C340.276,41.739,298.536,0,247.232,0s-93.043,41.739-93.043,93.043v35.237c0,4.162,3.373,7.536,7.536,7.536s7.536-3.373,7.536-7.536  V93.043c0-42.994,34.978-77.972,77.972-77.972s77.972,34.978,77.972,77.972v114.745h-20.317V91.146  c0-31.791-25.864-57.655-57.655-57.655s-57.655,25.864-57.655,57.655v116.642H169.26v-23.912c0-4.162-3.373-7.536-7.536-7.536  s-7.536,3.373-7.536,7.536v23.912h-42.046c-18.059,0-32.75,14.691-32.75,32.749V479.25c0,18.059,14.691,32.75,32.75,32.75h155.518  c4.162,0,7.536-3.373,7.536-7.536c0-4.162-3.373-7.536-7.536-7.536H112.144c-9.748,0-17.679-7.931-17.679-17.679V240.537  c0-9.748,7.931-17.678,17.679-17.678H382.32c9.748,0,17.679,7.93,17.679,17.678v10.669h-77.412c-10.803,0-19.592,8.79-19.592,19.592  v32.152c0,10.803,8.79,19.592,19.592,19.592H400v3.014h-77.412c-10.803,0-19.592,8.79-19.592,19.593v32.152  c0,10.803,8.79,19.592,19.592,19.592H400v3.014h-77.412c-10.803,0-19.592,8.79-19.592,19.592v32.152  c0,10.803,8.79,19.592,19.592,19.592H400v8.005c0,9.748-7.931,17.679-17.679,17.679H321.25c-4.162,0-7.536,3.373-7.536,7.536  c0,4.162,3.373,7.536,7.536,7.536h61.072c18.059,0,32.75-14.691,32.75-32.75v-8.115c9.84-1.031,17.536-9.374,17.536-19.483v-32.152  c0-10.108-7.696-18.451-17.536-19.483v-3.234c9.84-1.031,17.536-9.374,17.536-19.483V345.15c0-10.108-7.696-18.451-17.536-19.483  v-3.234C424.911,321.402,432.607,313.059,432.607,302.951z M204.648,91.146c0-23.481,19.103-42.584,42.584-42.584  s42.584,19.103,42.584,42.584v116.642h-85.168L204.648,91.146L204.648,91.146z M318.067,302.951v-32.152  c0-2.451,2.07-4.521,4.521-4.521h90.427c2.451,0,4.521,2.07,4.521,4.521v32.152c0,2.451-2.07,4.521-4.521,4.521h-90.427  C320.138,307.472,318.067,305.402,318.067,302.951z M417.536,419.501v32.152c0,2.451-2.07,4.521-4.521,4.521h-90.427  c-2.451,0-4.521-2.07-4.521-4.521v-32.152c0-2.451,2.07-4.521,4.521-4.521h90.427C415.466,414.98,417.536,417.05,417.536,419.501z   M417.536,345.15v32.152c0,2.451-2.07,4.521-4.521,4.521h-90.427c-2.451,0-4.521-2.07-4.521-4.521V345.15  c0-2.451,2.07-4.521,4.521-4.521h90.427C415.466,340.629,417.536,342.699,417.536,345.15z"/>
<g>
</g>
<g>
</g>
<g>
</g>
<g>
</g>
<g>
</g>
<g>
</g>
<g>
</g>
<g>
</g>
<g>
</g>
<g>
</g>
<g>
</g>
<g>
</g>
<g>
</g>
<g>
</g>
<g>
</g>
</svg>
