<?xml version="1.0" encoding="iso-8859-1"?>
<!-- Generator: Adobe Illustrator 19.0.0, SVG Export Plug-In . SVG Version: 6.00 Build 0)  -->
<svg xmlns="http://www.w3.org/2000/svg" xmlns:xlink="http://www.w3.org/1999/xlink" version="1.1" id="Layer_1" x="0px" y="0px" viewBox="0 0 512 512" style="enable-background:new 0 0 512 512;" xml:space="preserve">
<path style="fill:#3494D0;" d="M447.32,61.613c-132.909-6.969-175.165-37.424-187.72-51.445c-2.616-2.921-7.243-2.921-9.858,0  c-12.555,14.021-54.811,44.476-187.72,51.445c-2.98,0.156-5.486,2.285-6.119,5.201C47.403,105.972,1.296,367.634,251.491,504.2  c1.975,1.078,4.384,1.078,6.359,0C508.044,367.635,461.937,105.973,453.439,66.814C452.806,63.898,450.299,61.769,447.32,61.613z"/>
<path style="fill:#0E80AD;" d="M257.735,504.364c-1.978,1.079-4.394,1.079-6.372,0c-14.492-7.91-27.995-16.239-40.559-24.918  C410.44,343.47,393.121,124.669,381.676,54.958c18.996,2.717,40.798,4.854,65.806,6.162c2.987,0.16,5.493,2.287,6.132,5.213  C462.123,105.543,508.294,367.599,257.735,504.364z"/>
<path style="fill:#74DBC9;" d="M330.182,370.915H182.149c-7.63,0-13.815-6.185-13.815-13.815V226.307  c0-7.63,6.185-13.815,13.815-13.815h148.034c7.63,0,13.815,6.185,13.815,13.815V357.1  C343.997,364.73,337.812,370.915,330.182,370.915z"/>
<path style="fill:#6DCCBA;" d="M343.993,226.305v130.798c0,7.629-6.183,13.812-13.812,13.812h-41.884  c7.629,0,13.812-6.183,13.812-13.812V226.305c0-7.629-6.183-13.812-13.812-13.812h41.884  C337.81,212.493,343.993,218.675,343.993,226.305z"/>
<path style="fill:#FDDD85;" d="M309.891,212.492V134.49c0-29.671-24.053-53.724-53.725-53.724l0,0  c-29.671,0-53.725,24.053-53.725,53.724v78.003h22.234v-79.194c0-17.391,14.099-31.49,31.49-31.49l0,0  c17.391,0,31.49,14.099,31.49,31.49v79.194H309.891z"/>
<path d="M463.69,165.522c-4.132-0.125-7.598,3.07-7.751,7.197c-3.713,100.094-41.401,237.55-199.773,324.197  C153.053,440.506,88.907,356.4,65.496,246.917c-18.067-84.489-5.485-157.091-0.929-178.368  c129.736-6.891,175.645-35.945,191.599-53.185c15.953,17.238,61.864,46.293,191.599,53.185c1.869,8.726,5.13,26.331,7.029,50.205  c0.327,4.117,3.936,7.18,8.049,6.863c4.118-0.327,7.191-3.931,6.863-8.049c-2.016-25.353-5.54-43.987-7.462-52.838  c-1.344-6.194-6.704-10.751-13.037-11.085C317.861,46.76,277.796,17.109,266.667,4.68C264.004,1.706,260.175,0,256.166,0  c-4.01,0-7.838,1.706-10.501,4.68C234.535,17.109,194.47,46.76,63.124,53.646c-6.332,0.333-11.692,4.891-13.035,11.083  c-4.591,21.151-18.101,97.022,0.78,185.316c10.836,50.677,30.574,96.929,58.664,137.468  c34.315,49.523,81.374,90.825,139.871,122.754c2.118,1.156,4.44,1.735,6.763,1.734c2.323,0,4.646-0.578,6.763-1.734  c74.466-40.647,129.976-96.095,164.989-164.804c26.18-51.376,40.637-109.309,42.97-172.189  C471.041,169.146,467.819,165.676,463.69,165.522z"/>
<path d="M168.334,308.647c-4.13,0-7.48,3.348-7.48,7.48v40.974c0,11.741,9.552,21.294,21.295,21.294h148.034  c11.741,0,21.295-9.552,21.295-21.294V226.307c0-11.742-9.552-21.295-21.295-21.295h-12.813V134.49  c0-33.748-27.456-61.204-61.203-61.204s-61.203,27.457-61.203,61.204v70.523H182.15c-11.741,0-21.295,9.552-21.295,21.295v37.464  c0,4.131,3.348,7.48,7.48,7.48s7.48-3.348,7.48-7.48v-37.464c0-3.493,2.843-6.336,6.336-6.336h20.293h22.234h62.98h22.234h20.293  c3.493,0,6.336,2.843,6.336,6.336V357.1c0,3.493-2.843,6.335-6.336,6.335H182.149c-3.493,0-6.336-2.842-6.336-6.335v-40.974  C175.814,311.996,172.465,308.647,168.334,308.647z M280.176,205.013h-48.021v-71.715c0-13.24,10.771-24.011,24.011-24.011  c13.24,0,24.011,10.771,24.011,24.011v71.715H280.176z M295.135,205.013v-71.715c0-21.488-17.481-38.97-38.97-38.97  c-21.488,0-38.97,17.482-38.97,38.97v71.715h-7.275V134.49c0-25.5,20.746-46.246,46.245-46.246s46.245,20.746,46.245,46.246v70.523  H295.135z"/>
<g>
</g>
<g>
</g>
<g>
</g>
<g>
</g>
<g>
</g>
<g>
</g>
<g>
</g>
<g>
</g>
<g>
</g>
<g>
</g>
<g>
</g>
<g>
</g>
<g>
</g>
<g>
</g>
<g>
</g>
</svg>
