<?xml version="1.0" encoding="iso-8859-1"?>
<!-- Generator: Adobe Illustrator 19.0.0, SVG Export Plug-In . SVG Version: 6.00 Build 0)  -->
<svg xmlns="http://www.w3.org/2000/svg" xmlns:xlink="http://www.w3.org/1999/xlink" version="1.1" id="Layer_1" x="0px" y="0px" viewBox="0 0 512 512" style="enable-background:new 0 0 512 512;" xml:space="preserve">
<path style="fill:#EBEBEC;" d="M389.623,504.5H122.377c-5.523,0-10-4.477-10-10v-477c0-5.523,4.477-10,10-10h267.247  c5.523,0,10,4.477,10,10v477C399.623,500.023,395.146,504.5,389.623,504.5z"/>
<path style="fill:#D7D8D9;" d="M399.62,17.499v477c0,5.52-4.47,10-10,10h-54c5.52,0,10-4.48,10-10v-477c0-5.52-4.48-10-10-10h54  C395.15,7.499,399.62,11.979,399.62,17.499z"/>
<rect x="112.38" y="63.3" style="fill:#FDDD85;" width="287.25" height="357.05"/>
<rect x="345.04" y="63.3" style="fill:#FDD042;" width="54.58" height="357.05"/>
<circle style="fill:#F07B52;" cx="256" cy="464.35" r="19.632"/>
<path style="fill:#74DBC9;" d="M278.003,197.194c0-12.152-9.851-22.003-22.003-22.003c-12.152,0-22.003,9.851-22.003,22.003  c0,7.408,3.665,13.956,9.276,17.943v19.305c0,7,5.727,12.727,12.727,12.727l0,0c7,0,12.727-5.727,12.727-12.727v-19.305  C274.339,211.149,278.003,204.601,278.003,197.194z"/>
<path d="M268.063,44.479h-24.125c-4.142,0-7.5-3.358-7.5-7.5s3.358-7.5,7.5-7.5h24.125c4.142,0,7.5,3.358,7.5,7.5  S272.205,44.479,268.063,44.479z"/>
<path d="M191.072,312.814h-24.615c-4.142,0-7.5-3.358-7.5-7.5s3.358-7.5,7.5-7.5h24.615c4.142,0,7.5,3.358,7.5,7.5  S195.214,312.814,191.072,312.814z"/>
<path d="M242.563,312.814h-24.616c-4.142,0-7.5-3.358-7.5-7.5s3.358-7.5,7.5-7.5h24.616c4.142,0,7.5,3.358,7.5,7.5  S246.705,312.814,242.563,312.814z"/>
<path d="M294.053,312.814h-24.616c-4.142,0-7.5-3.358-7.5-7.5s3.358-7.5,7.5-7.5h24.616c4.142,0,7.5,3.358,7.5,7.5  S298.195,312.814,294.053,312.814z"/>
<path d="M345.543,312.814h-24.615c-4.142,0-7.5-3.358-7.5-7.5s3.358-7.5,7.5-7.5h24.615c4.142,0,7.5,3.358,7.5,7.5  S349.686,312.814,345.543,312.814z"/>
<path d="M256,157.641c-4.142,0-7.5-3.358-7.5-7.5v-16.404c0-4.142,3.358-7.5,7.5-7.5s7.5,3.358,7.5,7.5v16.404  C263.5,154.283,260.142,157.641,256,157.641z"/>
<path d="M320.928,206.165h-16.404c-4.142,0-7.5-3.358-7.5-7.5s3.358-7.5,7.5-7.5h16.404c4.142,0,7.5,3.358,7.5,7.5  S325.07,206.165,320.928,206.165z"/>
<path d="M298.03,181.905c-2.592,0-5.113-1.345-6.502-3.751c-2.071-3.587-0.842-8.174,2.745-10.245l14.207-8.202  c3.587-2.071,8.174-0.842,10.245,2.745s0.842,8.174-2.745,10.245l-14.207,8.202C300.592,181.581,299.302,181.905,298.03,181.905z"/>
<path d="M280.255,164.144c-1.272,0-2.562-0.324-3.743-1.006c-3.587-2.071-4.816-6.658-2.745-10.245l8.202-14.207  c2.071-3.587,6.657-4.817,10.245-2.745c3.587,2.071,4.816,6.658,2.745,10.245l-8.202,14.207  C285.368,162.798,282.847,164.144,280.255,164.144z"/>
<path d="M389.624,0H122.376c-9.649,0-17.5,7.851-17.5,17.5v45.799v357.048V494.5c0,9.649,7.851,17.5,17.5,17.5h267.247  c9.649,0,17.5-7.851,17.5-17.5v-74.153V63.299V17.5C407.124,7.851,399.273,0,389.624,0z M122.376,15h267.247  c1.378,0,2.5,1.122,2.5,2.5v38.299H119.876V17.5C119.876,16.122,120.998,15,122.376,15z M392.124,412.847H119.876V70.799h272.247  L392.124,412.847L392.124,412.847z M389.624,497H122.376c-1.378,0-2.5-1.122-2.5-2.5v-66.653h272.247V494.5  C392.124,495.878,391.003,497,389.624,497z"/>
<path d="M256,491.479c-14.96,0-27.132-12.171-27.132-27.132S241.04,437.215,256,437.215c14.96,0,27.132,12.171,27.132,27.132  S270.96,491.479,256,491.479z M256,452.215c-6.689,0-12.132,5.442-12.132,12.132s5.442,12.132,12.132,12.132  s12.132-5.442,12.132-12.132S262.689,452.215,256,452.215z"/>
<path d="M256,254.669c-11.153,0-20.228-9.074-20.228-20.227v-15.781c-5.868-5.538-9.275-13.305-9.275-21.468  c0-16.268,13.235-29.503,29.503-29.503s29.503,13.235,29.503,29.503c0,8.163-3.408,15.93-9.275,21.468v15.781  C276.228,245.595,267.154,254.669,256,254.669z M256,182.69c-7.997,0-14.503,6.506-14.503,14.503c0,4.684,2.288,9.106,6.12,11.83  c1.979,1.407,3.155,3.685,3.155,6.113v19.305c0,2.833,2.394,5.227,5.228,5.227c2.834,0,5.228-2.394,5.228-5.227v-19.305  c0-2.428,1.176-4.707,3.155-6.113c3.832-2.724,6.12-7.146,6.12-11.83C270.503,189.196,263.997,182.69,256,182.69z"/>
<g>
</g>
<g>
</g>
<g>
</g>
<g>
</g>
<g>
</g>
<g>
</g>
<g>
</g>
<g>
</g>
<g>
</g>
<g>
</g>
<g>
</g>
<g>
</g>
<g>
</g>
<g>
</g>
<g>
</g>
</svg>
