<?xml version="1.0" encoding="iso-8859-1"?>
<!-- Generator: Adobe Illustrator 19.0.0, SVG Export Plug-In . SVG Version: 6.00 Build 0)  -->
<svg xmlns="http://www.w3.org/2000/svg" xmlns:xlink="http://www.w3.org/1999/xlink" version="1.1" id="Layer_1" x="0px" y="0px" viewBox="0 0 512.001 512.001" style="enable-background:new 0 0 512.001 512.001;" xml:space="preserve">
<path style="fill:#57565C;" d="M150.326,496.771H43.537c-19.914,0-36.058-16.143-36.058-36.058V170.712  c0-19.914,16.143-36.058,36.058-36.058h106.788c19.914,0,36.058,16.143,36.058,36.058v290.001  C186.382,480.628,170.239,496.771,150.326,496.771z"/>
<path style="fill:#3C3B40;" d="M186.383,170.71v290.007c0,19.907-16.147,36.054-36.054,36.054h-42.886  c19.907,0,36.054-16.147,36.054-36.054V170.71c0-19.907-16.147-36.054-36.054-36.054h42.885  C170.236,134.655,186.383,150.802,186.383,170.71z"/>
<path style="fill:#EBEBEC;" d="M137.885,432.108H55.978c-2.976,0-5.389-2.413-5.389-5.389V204.707c0-2.976,2.413-5.389,5.389-5.389  h81.907c2.976,0,5.389,2.413,5.389,5.389v222.011C143.274,429.695,140.861,432.108,137.885,432.108z"/>
<path style="fill:#D7D8D9;" d="M143.278,204.709v222.008c0,2.982-2.414,5.386-5.396,5.386h-34.907c2.982,0,5.396-2.404,5.396-5.386  V204.709c0-2.982-2.414-5.386-5.396-5.386h34.907C140.864,199.323,143.278,201.727,143.278,204.709z"/>
<path style="fill:#FDDD85;" d="M317.031,45.136C271.77,3.093,201.13,5.468,158.788,50.282  c-42.373,44.846-40.489,116.22,4.233,158.724c39.443,37.486,98.759,40.676,141.57,10.927l37.821,35.131  c1.229,1.142,2.95,1.589,4.58,1.19l18.879-4.621c3.207-0.785,6.278,1.707,6.17,5.007l-0.748,22.912  c-0.047,1.442,0.533,2.834,1.59,3.817l23.327,21.668c1.161,1.078,2.765,1.541,4.322,1.246l18.834-3.565  c3.104-0.587,5.965,1.822,5.914,4.98l-0.35,21.761c-0.023,1.414,0.556,2.771,1.592,3.734l44.104,40.967  c1.036,0.962,2.432,1.44,3.84,1.313l25.515-2.291c2.571-0.231,4.541-2.386,4.541-4.967v-28.338L337.386,184.627  C363.687,140.104,356.472,81.772,317.031,45.136z"/>
<circle style="fill:#FDD042;" cx="240.025" cy="126.074" r="88.954"/>
<circle style="fill:#FFFFFF;" cx="208.247" cy="97.556" r="24.609"/>
<path d="M509.611,334.396L346.775,183.139c10.144-19.333,14.775-40.985,13.422-62.999c-0.254-4.124-3.804-7.272-7.926-7.008  c-4.124,0.253-7.261,3.802-7.008,7.925c1.294,21.051-3.657,41.717-14.318,59.765c-1.789,3.028-1.227,6.892,1.349,9.284  l164.746,153.029v22.798l-22.14,1.988l-42.477-39.457l0.332-20.65c0.06-3.763-1.557-7.312-4.436-9.736  c-2.878-2.424-6.649-3.414-10.347-2.713l-17.597,3.331l-21.572-20.039l0.711-21.777c0.128-3.932-1.552-7.609-4.606-10.087  c-3.055-2.478-6.996-3.363-10.818-2.428l-17.573,4.301l-36.837-34.217c-2.576-2.393-6.471-2.669-9.358-0.662  c-40.167,27.91-95.365,23.972-131.253-9.364c-38.977-36.205-44.157-95.832-13.847-138.086c9.846,2.178,18.873,6.882,26.243,13.556  c-8.482,12.848-6.7,30.36,4.946,41.176c6.169,5.73,14.007,8.563,21.828,8.563c8.615,0,17.211-3.44,23.523-10.235  c12.042-12.964,11.292-33.309-1.672-45.352c-6.281-5.834-14.463-8.871-23.023-8.556c-5.235,0.193-10.229,1.631-14.656,4.149  c-7.6-7.122-16.663-12.544-26.589-15.865c18.501-18.744,43.121-29.697,69.806-30.944c28.117-1.312,54.957,8.311,75.571,27.102  c7.539,6.873,14.004,14.735,19.217,23.371c2.136,3.538,6.736,4.671,10.269,2.538c3.537-2.136,4.673-6.733,2.538-10.269  c-5.959-9.869-13.341-18.851-21.946-26.695c-23.57-21.486-54.241-32.489-86.348-30.99c-32.107,1.501-61.618,15.313-83.097,38.894  c-1.044,1.146-2.055,2.313-3.049,3.491c-2.016-0.168-4.048-0.262-6.097-0.262c-40.097,0-72.719,32.622-72.719,72.719  c0,1.49,0.048,2.972,0.136,4.446H43.537C19.531,127.173,0,146.703,0,170.71v139.328c0,4.131,3.349,7.48,7.481,7.48  s7.481-3.349,7.481-7.48V170.712c0-15.757,12.82-28.577,28.577-28.577h29.04c4.08,14.846,12.817,28.099,25.316,37.885  c1.369,1.071,2.993,1.591,4.606,1.591c2.221,0,4.42-0.985,5.896-2.87c2.547-3.253,1.974-7.953-1.279-10.5  c-8.796-6.886-15.251-15.932-18.864-26.104h33.221c2.169,17.887,8.265,34.819,17.821,49.785c-0.463-0.051-0.933-0.081-1.409-0.081  H55.978c-7.096,0-12.868,5.773-12.868,12.868v222.011c0,7.096,5.773,12.869,12.868,12.869h81.908  c7.096,0,12.868-5.774,12.868-12.869V207.074c2.562,2.881,5.274,5.657,8.134,8.313c6.154,5.716,12.874,10.729,20.015,15v230.327  c0,15.757-12.82,28.577-28.577,28.577H43.537c-15.758,0-28.577-12.82-28.577-28.577v-96.816c0-4.131-3.349-7.48-7.481-7.48  S0,359.767,0,363.898v96.816c0,24.007,19.531,43.537,43.537,43.537h106.787c24.006,0,43.537-19.531,43.537-43.537V237.971  c12.269,5.184,25.388,8.347,38.803,9.217c24.993,1.62,50.016-4.671,71.131-17.784l33.525,31.141  c3.082,2.864,7.364,3.977,11.448,2.976l15.688-3.84l-0.641,19.629c-0.117,3.609,1.333,7.087,3.976,9.539l23.328,21.669  c2.89,2.684,6.927,3.848,10.802,3.115l15.828-2.996l-0.301,18.704c-0.056,3.529,1.395,6.931,3.981,9.332l44.105,40.968  c2.313,2.148,5.357,3.332,8.49,3.332c0.369,0,0.739-0.016,1.109-0.049l25.516-2.291c6.471-0.581,11.351-5.919,11.351-12.416v-28.338  C512,337.798,511.134,335.812,509.611,334.396z M207.62,80.443c0.216-0.008,0.432-0.012,0.647-0.012  c4.336,0,8.448,1.613,11.642,4.58c3.353,3.114,5.292,7.348,5.46,11.92c0.169,4.573-1.453,8.936-4.568,12.289  c-6.43,6.921-17.289,7.32-24.208,0.893c-3.353-3.114-5.292-7.348-5.46-11.92c-0.073-1.969,0.206-3.892,0.773-5.72  c1.511,2.462,2.853,5.057,4.003,7.776c1.61,3.805,5.999,5.585,9.803,3.975c3.805-1.609,5.585-5.999,3.975-9.803  c-1.961-4.635-4.37-8.979-7.149-13.011C204.153,80.84,205.86,80.508,207.62,80.443z M84.928,122.729  c0-30.278,23.424-55.173,53.1-57.554c-11.353,18.58-17.399,39.887-17.442,62.001H85.117  C85.005,125.703,84.928,124.222,84.928,122.729z M135.794,206.799v101.434H58.069V206.799H135.794z M58.069,424.627V323.192h77.724  v101.435H58.069z"/>
<g>
</g>
<g>
</g>
<g>
</g>
<g>
</g>
<g>
</g>
<g>
</g>
<g>
</g>
<g>
</g>
<g>
</g>
<g>
</g>
<g>
</g>
<g>
</g>
<g>
</g>
<g>
</g>
<g>
</g>
</svg>
