<?xml version="1.0" encoding="iso-8859-1"?>
<!-- Generator: Adobe Illustrator 19.0.0, SVG Export Plug-In . SVG Version: 6.00 Build 0)  -->
<svg xmlns="http://www.w3.org/2000/svg" xmlns:xlink="http://www.w3.org/1999/xlink" version="1.1" id="Layer_1" x="0px" y="0px" viewBox="0 0 512.003 512.003" style="enable-background:new 0 0 512.003 512.003;" xml:space="preserve">
<path style="fill:#3494D0;" d="M421.195,504.502H188.746c-2.632,0-4.766-2.134-4.766-4.766V12.263c0-2.632,2.134-4.766,4.766-4.766  h232.449c2.632,0,4.766,2.134,4.766,4.766v487.474C425.96,502.368,423.826,504.502,421.195,504.502z"/>
<path style="fill:#0E80AD;" d="M425.96,12.259V499.74c0,2.629-2.129,4.758-4.768,4.758h-56.982c2.629,0,4.758-2.129,4.758-4.758  V12.259c0-2.629-2.129-4.758-4.758-4.758h56.982C423.831,7.501,425.96,9.63,425.96,12.259z"/>
<circle style="fill:#FDDD85;" cx="304.969" cy="239.119" r="71.48"/>
<path style="fill:#FDD042;" d="M376.447,239.126c0,39.477-32,71.477-71.477,71.477c-6.218,0-12.246-0.79-17.994-2.289  c30.77-7.977,53.483-35.928,53.483-69.188s-22.713-61.21-53.483-69.188c5.748-1.5,11.776-2.289,17.994-2.289  C344.447,167.649,376.447,199.649,376.447,239.126z"/>
<path style="fill:#FFFFFF;" d="M326.966,382.35c0-12.148-9.848-21.996-21.996-21.996c-12.148,0-21.996,9.848-21.996,21.996  c0,7.405,3.663,13.951,9.273,17.937v19.299c0,6.998,5.725,12.723,12.723,12.723l0,0c6.998,0,12.723-5.725,12.723-12.723v-19.299  C323.303,396.301,326.966,389.755,326.966,382.35z"/>
<path style="fill:#EBEBEC;" d="M289.975,275.112H122.03c-19.794,0-35.988-16.195-35.988-35.988l0,0  c0-19.794,16.195-35.988,35.988-35.988h167.945c19.794,0,35.988,16.195,35.988,35.988l0,0  C325.963,258.917,309.769,275.112,289.975,275.112z"/>
<path d="M425.96,53.899c4.141,0,7.498-3.357,7.498-7.498V12.264C433.457,5.502,427.956,0,421.195,0H188.747  c-6.762,0-12.264,5.502-12.264,12.264v183.375H122.03c-23.979,0-43.486,19.508-43.486,43.486c0,19.746,13.362,37.046,32.493,42.07  c4.005,1.053,8.105-1.342,9.156-5.347c1.051-4.005-1.342-8.104-5.347-9.156c-12.546-3.295-21.308-14.631-21.308-27.567  c0-15.71,12.781-28.49,28.491-28.49h167.945c15.71,0,28.491,12.781,28.491,28.491s-12.781,28.491-28.491,28.491H165.349  c-4.141,0-7.498,3.357-7.498,7.498c0,4.141,3.356,7.498,7.498,7.498h11.134v217.127c0,6.762,5.501,12.264,12.264,12.264h232.448  c6.762,0,12.264-5.502,12.264-12.264V101.05c0-4.141-3.356-7.498-7.498-7.498c-4.141,0-7.498,3.357-7.498,7.498v395.955H191.478  V282.61h47.628c14.148,21.362,38.38,35.489,65.865,35.489c43.547,0,78.975-35.428,78.975-78.975s-35.428-78.975-78.975-78.975  c-27.484,0-51.71,14.128-65.857,35.489h-47.636V14.995h226.985v31.406C418.462,50.542,421.818,53.899,425.96,53.899z   M304.97,175.145c35.279,0,63.979,28.701,63.979,63.979s-28.701,63.98-63.979,63.98c-18.5,0-35.184-7.898-46.876-20.493h31.88  c23.979,0,43.486-19.508,43.486-43.487c0-23.978-19.507-43.486-43.486-43.486h-31.867  C269.796,183.044,286.473,175.145,304.97,175.145z"/>
<path d="M304.97,439.806c-11.15,0-20.221-9.071-20.221-20.221V403.81c-5.866-5.535-9.272-13.299-9.272-21.46  c0-16.263,13.231-29.493,29.493-29.493s29.493,13.231,29.493,29.493c0,8.161-3.406,15.926-9.272,21.46v15.776  C325.191,430.736,316.12,439.806,304.97,439.806z M304.97,367.852c-7.995,0-14.498,6.504-14.498,14.498  c0,4.683,2.287,9.104,6.118,11.825c1.979,1.406,3.154,3.684,3.154,6.112v19.299c0,2.833,2.393,5.226,5.226,5.226  c2.833,0,5.226-2.393,5.226-5.226v-19.299c0-2.428,1.175-4.706,3.154-6.112c3.831-2.722,6.118-7.143,6.118-11.825  C319.468,374.356,312.965,367.852,304.97,367.852z"/>
<g>
</g>
<g>
</g>
<g>
</g>
<g>
</g>
<g>
</g>
<g>
</g>
<g>
</g>
<g>
</g>
<g>
</g>
<g>
</g>
<g>
</g>
<g>
</g>
<g>
</g>
<g>
</g>
<g>
</g>
</svg>
