<?xml version="1.0" encoding="iso-8859-1"?>
<!-- Generator: Adobe Illustrator 19.0.0, SVG Export Plug-In . SVG Version: 6.00 Build 0)  -->
<svg xmlns="http://www.w3.org/2000/svg" xmlns:xlink="http://www.w3.org/1999/xlink" version="1.1" id="Layer_1" x="0px" y="0px" viewBox="0 0 512 512" style="enable-background:new 0 0 512 512;" xml:space="preserve">
<path style="fill:#FDDD85;" d="M341.197,216.402V92.704c0-47.052-38.144-85.197-85.197-85.197l0,0  c-47.052,0-85.197,38.144-85.197,85.197v123.698h35.259V90.815c0-27.58,22.358-49.938,49.938-49.938l0,0  c27.58,0,49.938,22.358,49.938,49.938v125.587L341.197,216.402L341.197,216.402z"/>
<path style="fill:#F07B52;" d="M390.598,504.492H121.402c-13.874,0-25.123-11.247-25.123-25.122V241.525  c0-13.874,11.247-25.123,25.123-25.123h269.196c13.874,0,25.122,11.247,25.122,25.123V479.37  C415.72,493.244,404.473,504.492,390.598,504.492z"/>
<path style="fill:#DD6140;" d="M415.718,241.527v237.844c0,13.873-11.241,25.125-25.125,25.125h-49.717  c13.873,0,25.115-11.251,25.115-25.125V241.527c0-13.873-11.241-25.125-25.115-25.125h49.717  C404.477,216.402,415.718,227.653,415.718,241.527z"/>
<path d="M390.598,208.895h-41.893v-54.56c0-4.146-3.362-7.508-7.508-7.508s-7.508,3.361-7.508,7.508v54.56h-20.243V90.815  c0-31.676-25.77-57.446-57.446-57.446s-57.446,25.77-57.446,57.446v118.08h-20.243V92.705c0-42.837,34.851-77.688,77.688-77.688  s77.688,34.851,77.688,77.688v11.575c0,4.146,3.361,7.508,7.508,7.508s7.508-3.362,7.508-7.508V92.705  C348.705,41.587,307.118,0,256,0s-92.705,41.587-92.705,92.705v116.19h-41.893c-17.993,0-32.63,14.638-32.63,32.63v180.102  c0,4.146,3.362,7.508,7.508,7.508s7.508-3.361,7.508-7.508V241.525c0-9.712,7.901-17.614,17.614-17.614h49.402h35.259h99.874h35.259  h49.402c9.712,0,17.614,7.901,17.614,17.614V479.37c0,9.712-7.901,17.614-17.614,17.614H121.402  c-9.712,0-17.614-7.901-17.614-17.614v-3.685c0-4.146-3.362-7.508-7.508-7.508s-7.508,3.361-7.508,7.508v3.685  c0,17.993,14.638,32.63,32.63,32.63h269.196c17.993,0,32.63-14.638,32.63-32.63V241.525  C423.228,223.532,408.591,208.895,390.598,208.895z M298.429,208.895h-84.858V90.815c0-23.396,19.034-42.429,42.429-42.429  s42.429,19.034,42.429,42.429v118.08H298.429z"/>
<path d="M200.925,415.474c1.464,1.464,3.384,2.197,5.303,2.197s3.839-0.732,5.303-2.197l44.467-44.467l44.467,44.467  c1.465,1.464,3.385,2.197,5.304,2.197s3.839-0.732,5.304-2.197c2.929-2.929,2.929-7.678,0-10.606L266.606,360.4l44.468-44.467  c2.929-2.929,2.929-7.678,0-10.606c-2.93-2.929-7.678-2.929-10.607,0L256,349.794l-44.467-44.467c-2.929-2.929-7.678-2.929-10.606,0  c-2.929,2.929-2.929,7.678,0,10.606l44.467,44.467l-44.467,44.467C197.996,407.796,197.996,412.545,200.925,415.474z"/>
<g>
</g>
<g>
</g>
<g>
</g>
<g>
</g>
<g>
</g>
<g>
</g>
<g>
</g>
<g>
</g>
<g>
</g>
<g>
</g>
<g>
</g>
<g>
</g>
<g>
</g>
<g>
</g>
<g>
</g>
</svg>
