<?xml version="1.0" encoding="iso-8859-1"?>
<!-- Generator: Adobe Illustrator 19.0.0, SVG Export Plug-In . SVG Version: 6.00 Build 0)  -->
<svg xmlns="http://www.w3.org/2000/svg" xmlns:xlink="http://www.w3.org/1999/xlink" version="1.1" id="Layer_1" x="0px" y="0px" viewBox="0 0 512 512" style="enable-background:new 0 0 512 512;" xml:space="preserve">
<path style="fill:#FDDD85;" d="M272.943,196.075c10.012,6.24,22.005,9.594,34.841,8.827c30.13-1.8,54.318-26.482,55.529-56.641  c1.251-31.141-21.572-57.193-51.367-61.104c2.589-7.017,3.889-14.658,3.605-22.637c-1.089-30.605-25.832-55.601-56.426-56.973  c-33.929-1.522-61.914,25.535-61.914,59.128c0,7.201,1.289,14.1,3.643,20.482c-29.795,3.911-52.618,29.963-51.367,61.104  c1.212,30.16,25.399,54.841,55.529,56.641c12.836,0.767,24.829-2.587,34.841-8.827v303.451c0,2.756,2.234,4.99,4.99,4.99h28.096  h79.05c2.756,0,4.99-2.234,4.99-4.99V476.51c0-2.756-2.234-4.99-4.99-4.99h-74.06c-2.756,0-4.99-2.234-4.99-4.99v-34.465  c0-2.756,2.234-4.99,4.99-4.99h74.06c2.756,0,4.99-2.234,4.99-4.99v-23.015c0-2.756-2.234-4.99-4.99-4.99h-74.06  c-2.756,0-4.99-2.234-4.99-4.99L272.943,196.075L272.943,196.075z"/>
<circle style="fill:#FFFFFF;" cx="256.403" cy="62.706" r="21.089"/>
<path d="M239.858,251.303c-4.134,0-7.485-3.351-7.485-7.485v-35.703c-7.546,2.884-15.585,4.379-23.746,4.379  c-36.764,0-66.673-29.909-66.673-66.673c0-30.408,20.714-56.715,49.412-64.396c-1.09-4.817-1.64-9.752-1.64-14.751  C189.727,29.91,219.637,0,256.401,0s66.674,29.91,66.674,66.674c0,5-0.551,9.936-1.641,14.753  c12.432,3.33,23.726,10.235,32.423,19.941c2.758,3.079,2.499,7.811-0.58,10.569c-3.08,2.76-7.811,2.498-10.569-0.58  c-8.26-9.22-19.53-15.179-31.735-16.78c-2.257-0.296-4.256-1.603-5.433-3.551c-1.176-1.948-1.403-4.325-0.615-6.46  c2.111-5.723,3.181-11.743,3.181-17.891c0-28.51-23.194-51.704-51.704-51.704s-51.704,23.194-51.704,51.704  c0,6.151,1.07,12.171,3.181,17.891c0.787,2.135,0.561,4.513-0.616,6.46c-1.177,1.948-3.176,3.255-5.432,3.551  c-25.6,3.361-44.906,25.391-44.906,51.244c0,28.51,23.194,51.704,51.704,51.704c9.652,0,19.082-2.698,27.272-7.802  c2.307-1.439,5.214-1.512,7.591-0.192c2.378,1.32,3.853,3.825,3.853,6.544v47.743C247.342,247.951,243.991,251.303,239.858,251.303z  "/>
<path d="M351.993,512H244.847c-6.879,0-12.475-5.596-12.475-12.475v-202.38c0-4.134,3.351-7.485,7.485-7.485  c4.134,0,7.485,3.351,7.485,7.485V497.03h102.156v-18.025h-71.565c-6.879,0-12.475-5.596-12.475-12.475v-34.465  c0-6.879,5.596-12.475,12.475-12.475h71.565v-18.025h-71.565c-6.879,0-12.475-5.596-12.475-12.475V196.075  c0-2.719,1.475-5.225,3.852-6.544c2.377-1.32,5.283-1.246,7.591,0.192c8.189,5.104,17.618,7.802,27.271,7.802  c22.842,0,43.258-15.297,49.644-37.198c0.569-1.952,1.027-3.961,1.361-5.973c0.677-4.078,4.531-6.831,8.609-6.158  c4.078,0.677,6.835,4.532,6.157,8.61c-0.431,2.597-1.022,5.191-1.757,7.712c-8.238,28.248-34.562,47.977-64.015,47.977  c-8.161,0-16.198-1.495-23.745-4.379v178.481h71.565c6.879,0,12.475,5.596,12.475,12.475v23.015c0,6.879-5.596,12.475-12.475,12.475  h-71.565v29.476h71.565c6.879,0,12.475,5.596,12.475,12.475v23.015C364.467,506.404,358.872,512,351.993,512z"/>
<path d="M256.401,91.284c-15.758,0-28.579-12.821-28.579-28.579s12.821-28.579,28.579-28.579s28.58,12.821,28.58,28.579  S272.159,91.284,256.401,91.284z M256.401,49.095c-7.505,0-13.61,6.106-13.61,13.61s6.106,13.61,13.61,13.61  c7.505,0,13.611-6.106,13.611-13.61S263.906,49.095,256.401,49.095z"/>
<g>
</g>
<g>
</g>
<g>
</g>
<g>
</g>
<g>
</g>
<g>
</g>
<g>
</g>
<g>
</g>
<g>
</g>
<g>
</g>
<g>
</g>
<g>
</g>
<g>
</g>
<g>
</g>
<g>
</g>
</svg>
