<?xml version="1.0" encoding="iso-8859-1"?>
<!-- Generator: Adobe Illustrator 19.0.0, SVG Export Plug-In . SVG Version: 6.00 Build 0)  -->
<svg xmlns="http://www.w3.org/2000/svg" xmlns:xlink="http://www.w3.org/1999/xlink" version="1.1" id="Layer_1" x="0px" y="0px" viewBox="0 0 512.001 512.001" style="enable-background:new 0 0 512.001 512.001;" xml:space="preserve">
<path style="fill:#57565C;" d="M454.239,410.166H57.761c-13.81,0-25.005-11.195-25.005-25.005V32.504  c0-13.81,11.195-25.005,25.005-25.005h396.477c13.81,0,25.005,11.195,25.005,25.005v352.658  C479.243,398.971,468.048,410.166,454.239,410.166z"/>
<path style="fill:#3C3B40;" d="M479.243,32.504v352.657c0,13.808-11.199,25.007-25.007,25.007h-82.99  c13.808,0,25.007-11.199,25.007-25.007V32.504c0-13.808-11.199-25.007-25.007-25.007h82.99  C468.044,7.497,479.243,18.696,479.243,32.504z"/>
<path style="fill:#FDDD85;" d="M307.994,129.079H95.542c-2.761,0-4.999-2.238-4.999-4.999V58.286c0-2.761,2.238-4.999,4.999-4.999  h212.452c2.761,0,4.999,2.238,4.999,4.999v65.793C312.993,126.84,310.755,129.079,307.994,129.079z"/>
<path style="fill:#FDD042;" d="M307.994,129.079h-32.996V53.287h32.996c2.761,0,4.999,2.238,4.999,4.999v65.793  C312.993,126.84,310.755,129.079,307.994,129.079z"/>
<g>
	<path style="fill:#74DBC9;" d="M137.547,217.646H95.542c-2.761,0-4.999-2.238-4.999-4.999v-31.191c0-2.761,2.238-4.999,4.999-4.999   h42.005c2.761,0,4.999,2.238,4.999,4.999v31.191C142.546,215.408,140.308,217.646,137.547,217.646z"/>
	<path style="fill:#74DBC9;" d="M222.77,217.646h-42.005c-2.761,0-4.999-2.238-4.999-4.999v-31.191c0-2.761,2.238-4.999,4.999-4.999   h42.005c2.761,0,4.999,2.238,4.999,4.999v31.191C227.77,215.408,225.531,217.646,222.77,217.646z"/>
	<path style="fill:#74DBC9;" d="M307.994,217.646h-42.005c-2.761,0-4.999-2.238-4.999-4.999v-31.191   c0-2.761,2.238-4.999,4.999-4.999h42.005c2.761,0,4.999,2.238,4.999,4.999v31.191C312.993,215.408,310.755,217.646,307.994,217.646   z"/>
	<path style="fill:#74DBC9;" d="M137.547,293.167H95.542c-2.761,0-4.999-2.238-4.999-4.999v-31.191c0-2.761,2.238-4.999,4.999-4.999   h42.005c2.761,0,4.999,2.238,4.999,4.999v31.191C142.546,290.928,140.308,293.167,137.547,293.167z"/>
	<path style="fill:#74DBC9;" d="M222.77,293.167h-42.005c-2.761,0-4.999-2.238-4.999-4.999v-31.191c0-2.761,2.238-4.999,4.999-4.999   h42.005c2.761,0,4.999,2.238,4.999,4.999v31.191C227.77,290.928,225.531,293.167,222.77,293.167z"/>
	<path style="fill:#74DBC9;" d="M307.994,293.167h-42.005c-2.761,0-4.999-2.238-4.999-4.999v-31.191   c0-2.761,2.238-4.999,4.999-4.999h42.005c2.761,0,4.999,2.238,4.999,4.999v31.191C312.993,290.928,310.755,293.167,307.994,293.167   z"/>
	<path style="fill:#74DBC9;" d="M137.547,368.687H95.542c-2.761,0-4.999-2.238-4.999-4.999v-31.191c0-2.761,2.238-4.999,4.999-4.999   h42.005c2.761,0,4.999,2.238,4.999,4.999v31.191C142.546,366.449,140.308,368.687,137.547,368.687z"/>
	<path style="fill:#74DBC9;" d="M222.77,368.687h-42.005c-2.761,0-4.999-2.238-4.999-4.999v-31.191c0-2.761,2.238-4.999,4.999-4.999   h42.005c2.761,0,4.999,2.238,4.999,4.999v31.191C227.77,366.449,225.531,368.687,222.77,368.687z"/>
	<path style="fill:#74DBC9;" d="M307.994,368.687h-42.005c-2.761,0-4.999-2.238-4.999-4.999v-31.191   c0-2.761,2.238-4.999,4.999-4.999h42.005c2.761,0,4.999,2.238,4.999,4.999v31.191C312.993,366.449,310.755,368.687,307.994,368.687   z"/>
</g>
<ellipse style="fill:#EBEBEC;" cx="406.05" cy="102.28" rx="42.995" ry="57.993"/>
<path style="fill:#D7D8D9;" d="M449.046,102.285c0,32.026-19.248,57.993-42.995,57.993c-4.899,0-9.609-1.11-13.998-3.15  c16.878-7.829,28.996-29.426,28.996-54.843c0-25.427-12.119-47.014-28.996-54.843c4.389-2.04,9.099-3.15,13.998-3.15  C429.799,44.292,449.046,70.249,449.046,102.285z"/>
<path style="fill:#EACBC6;" d="M430.411,431.139v-40.573v-63.141c0-10.684-8.661-19.345-19.345-19.345l0,0  c-10.684,0-19.345,8.661-19.345,19.345v-16.709c0-10.569-8.568-19.137-19.137-19.137l0,0c-10.569,0-19.137,8.568-19.137,19.137  v-16.124c0-10.569-8.568-19.136-19.136-19.136l0,0c-9.612,0-17.546,7.094-18.908,16.328v-97.41c0-12.521-10.15-22.671-22.671-22.671  l0,0c-12.521,0-22.671,10.15-22.671,22.671v169.441c-8.603-41.105-39.092-51.912-53.491-54.74c-3.605-0.708-6.704,2.607-5.783,6.164  l16.33,63.094c3.194,12.341,6.019,24.782,8.289,37.326c8.473,46.819,34.654,72.392,34.654,72.392V512h145.906v-27.534  C431.966,469.801,430.411,431.139,430.411,431.139z"/>
<path style="fill:#F0BEB4;" d="M415.97,484.469V512h-23.497v-27.531c15.998-14.668,14.438-53.333,14.438-53.333V327.428  c0-6.269-2.98-11.839-7.599-15.368c3.26-2.5,7.329-3.979,11.749-3.979c10.689,0,19.348,8.659,19.348,19.348v103.707  C430.409,431.135,431.969,469.801,415.97,484.469z"/>
<path d="M32.757,287.323c4.142,0,7.499-3.358,7.499-7.499V32.504c0-9.653,7.853-17.506,17.506-17.506h229.235  c4.142,0,7.499-3.358,7.499-7.499S291.138,0,286.996,0H57.762C39.839,0,25.258,14.581,25.258,32.504v247.32  C25.258,283.965,28.615,287.323,32.757,287.323z"/>
<path d="M406.052,167.772c27.842,0,50.494-29.38,50.494-65.492s-22.652-65.492-50.494-65.492c-27.842,0-50.494,29.38-50.494,65.492  S378.21,167.772,406.052,167.772z M406.052,51.787c19.572,0,35.496,22.652,35.496,50.494s-15.923,50.494-35.496,50.494  s-35.496-22.652-35.496-50.494S386.48,51.787,406.052,51.787z"/>
<path d="M83.044,58.286v65.793c0,6.892,5.607,12.498,12.498,12.498h212.452c6.892,0,12.498-5.607,12.498-12.498V58.286  c0-6.892-5.607-12.498-12.498-12.498H95.542C88.65,45.787,83.044,51.394,83.044,58.286z M98.042,60.786h207.452v60.794H98.042  V60.786z"/>
<path d="M150.045,176.457c0-4.142-3.358-7.499-7.499-7.499H90.543c-4.142,0-7.499,3.357-7.499,7.499v41.189  c0,4.142,3.358,7.499,7.499,7.499h52.003c4.142,0,7.499-3.357,7.499-7.499L150.045,176.457L150.045,176.457z M135.047,210.147  H98.042v-26.191h37.005V210.147z"/>
<path d="M235.269,176.457c0-4.142-3.357-7.499-7.499-7.499h-52.003c-4.142,0-7.499,3.357-7.499,7.499v41.189  c0,4.142,3.357,7.499,7.499,7.499h52.003c4.142,0,7.499-3.357,7.499-7.499L235.269,176.457L235.269,176.457z M220.27,210.147  h-37.005v-26.191h37.005V210.147z"/>
<path d="M150.045,251.977c0-4.142-3.358-7.499-7.499-7.499H90.543c-4.142,0-7.499,3.357-7.499,7.499v41.189  c0,4.142,3.358,7.499,7.499,7.499h52.003c4.142,0,7.499-3.357,7.499-7.499L150.045,251.977L150.045,251.977z M135.047,285.667  H98.042v-26.191h37.005V285.667z"/>
<path d="M227.77,244.478h-52.003c-4.142,0-7.499,3.357-7.499,7.499v41.189c0,4.142,3.357,7.499,7.499,7.499h52.003  c4.142,0,7.499-3.357,7.499-7.499v-41.189C235.269,247.835,231.911,244.478,227.77,244.478z M220.27,285.667h-37.005v-26.191h37.005  V285.667z"/>
<path d="M142.546,319.999H90.543c-4.142,0-7.499,3.358-7.499,7.499v41.189c0,4.142,3.358,7.499,7.499,7.499h52.003  c4.142,0,7.499-3.357,7.499-7.499v-41.189C150.045,323.356,146.688,319.999,142.546,319.999z M135.047,361.188H98.042v-26.191  h37.005V361.188z"/>
<path d="M454.238,0H338.99c-4.142,0-7.499,3.358-7.499,7.499s3.358,7.499,7.499,7.499h115.249c9.653,0,17.506,7.853,17.506,17.506  v352.657c0,9.653-7.853,17.506-17.506,17.506H437.91v-75.242c0-14.802-12.042-26.844-26.844-26.844  c-4.615,0-8.961,1.171-12.758,3.231c-3.05-11.35-13.424-19.731-25.723-19.731c-4.581,0-8.895,1.163-12.664,3.208  c-3.184-11.146-13.455-19.333-25.61-19.333c-4.081,0-7.948,0.925-11.409,2.572v-76.155c0-4.217-0.873-8.232-2.442-11.88  c0.01,0,0.021,0,0.031,0v-6.036c0-4.142-3.358-7.499-7.499-7.499h-4.034c-4.689-3.004-10.255-4.755-16.226-4.755  s-11.537,1.751-16.226,4.755h-15.518c-4.142,0-7.499,3.357-7.499,7.499v41.189c0,4.142,3.358,7.499,7.499,7.499h1.574v19.333h-1.574  c-4.142,0-7.499,3.357-7.499,7.499v41.189c0,4.142,3.358,7.499,7.499,7.499h1.574v28.077c-14.507-18.85-34.418-25.038-44.547-27.026  c-4.23-0.831-8.523,0.548-11.482,3.688c-2.966,3.148-4.09,7.526-3.006,11.713l0.746,2.881h-28.508c-4.142,0-7.499,3.358-7.499,7.499  v41.189c0,4.142,3.357,7.499,7.499,7.499h43.051l1.042,4.025c2.022,7.813,3.784,15.245,5.33,22.456H57.762  c-9.653,0-17.506-7.853-17.506-17.506v-52.343c0-4.142-3.358-7.499-7.499-7.499s-7.499,3.357-7.499,7.499v52.343  c0,17.923,14.581,32.504,32.504,32.504h170.396c7.519,40.604,27.594,65.782,34.405,73.36V504.5c0,4.142,3.357,7.499,7.499,7.499  s7.499-3.358,7.499-7.499v-16.45c0-2.019-0.814-3.954-2.259-5.365c-0.245-0.239-24.56-24.409-32.515-68.363  c-2.179-12.039-4.93-24.426-8.409-37.87l-15.301-59.117c14.829,3.877,36.772,15.176,43.645,48.014  c0.787,3.761,4.295,6.321,8.112,5.923c3.822-0.395,6.727-3.616,6.727-7.459v-169.44c0-8.366,6.806-15.171,15.172-15.171  s15.171,6.806,15.171,15.171v96.787c-0.145,1.124-0.228,2.268-0.228,3.431v70.222c0,4.142,3.358,7.499,7.499,7.499  c4.142,0,7.499-3.358,7.499-7.499v-7.822c0.144-0.58,0.228-1.183,0.228-1.807v-62.88c1.066-5.325,5.775-9.35,11.409-9.35  c6.417,0,11.638,5.221,11.638,11.638v16.124v47.225v16.124c0,4.142,3.358,7.499,7.499,7.499c4.142,0,7.499-3.358,7.499-7.499  v-16.124v-47.225c0-6.417,5.221-11.637,11.637-11.637c6.417,0,11.638,5.221,11.638,11.637v16.709v46.64v16.5  c0,4.142,3.358,7.499,7.499,7.499c4.142,0,7.499-3.358,7.499-7.499v-16.5v-46.64c0-6.532,5.314-11.846,11.846-11.846  s11.846,5.314,11.846,11.846v103.714c0,0.097,0.002,0.199,0.006,0.296c0.379,9.801-1.04,37.441-12.017,47.503  c-1.55,1.421-2.432,3.426-2.432,5.528v20.036c0,4.142,3.358,7.499,7.499,7.499c4.142,0,7.499-3.358,7.499-7.499V487.51  c15.337-17.393,14.621-51.75,14.443-56.516v-13.328h16.329c17.923,0,32.504-14.581,32.504-32.504V32.504  C486.742,14.581,472.161,0,454.238,0z M183.265,361.188v-26.191h24.89l6.779,26.191H183.265z"/>
<circle cx="148.07" cy="93.31" r="8.584"/>
<circle cx="185.56" cy="93.31" r="8.584"/>
<circle cx="223.06" cy="93.31" r="8.584"/>
<circle cx="260.55" cy="93.31" r="8.584"/>
<g>
</g>
<g>
</g>
<g>
</g>
<g>
</g>
<g>
</g>
<g>
</g>
<g>
</g>
<g>
</g>
<g>
</g>
<g>
</g>
<g>
</g>
<g>
</g>
<g>
</g>
<g>
</g>
<g>
</g>
</svg>
