<?xml version="1.0" encoding="iso-8859-1"?>
<!-- Generator: Adobe Illustrator 19.0.0, SVG Export Plug-In . SVG Version: 6.00 Build 0)  -->
<svg xmlns="http://www.w3.org/2000/svg" xmlns:xlink="http://www.w3.org/1999/xlink" version="1.1" id="Layer_1" x="0px" y="0px" viewBox="0 0 512 512" style="enable-background:new 0 0 512 512;" xml:space="preserve">
<path style="fill:#FDDD85;" d="M295.826,215.779V91.96c0-47.098-38.181-85.28-85.28-85.28l0,0c-47.098,0-85.28,38.181-85.28,85.28  v123.819h35.293V90.069c0-27.606,22.379-49.986,49.986-49.986l0,0c27.606,0,49.986,22.379,49.986,49.986v125.71H295.826z"/>
<path style="fill:#74DBC9;" d="M345.276,504.151H75.817c-13.888,0-25.146-11.258-25.146-25.146V240.927  c0-13.888,11.258-25.146,25.146-25.146h269.46c13.888,0,25.146,11.258,25.146,25.146v238.077  C370.423,492.892,359.164,504.151,345.276,504.151z"/>
<path style="fill:#6DCCBA;" d="M370.421,240.929v238.077c0,13.887-11.252,25.149-25.149,25.149h-49.765  c13.887,0,25.139-11.262,25.139-25.149V240.929c0-13.887-11.252-25.149-25.139-25.149h49.765  C359.168,215.779,370.421,227.041,370.421,240.929z"/>
<path style="fill:#FFFFFF;" d="M232.595,338.951c0-12.177-9.872-22.049-22.049-22.049c-12.177,0-22.049,9.872-22.049,22.049  c0,7.423,3.672,13.984,9.295,17.981v19.345c0,7.015,5.739,12.754,12.754,12.754l0,0c7.015,0,12.754-5.739,12.754-12.754v-19.345  C228.923,352.936,232.595,346.374,232.595,338.951z"/>
<path style="fill:#F07B52;" d="M369.867,307.145c-30.904,0-55.955,25.052-55.955,55.955s25.052,55.955,55.955,55.955  s55.955-25.052,55.955-55.955S400.771,307.145,369.867,307.145z M369.867,391.983c-15.951,0-28.883-12.931-28.883-28.882  s12.931-28.883,28.883-28.883c15.951,0,28.882,12.931,28.882,28.883C398.751,379.052,385.818,391.983,369.867,391.983z"/>
<path d="M210.546,396.546c-11.176,0-20.269-9.093-20.269-20.269v-15.813c-5.879-5.549-9.295-13.333-9.295-21.512  c0-16.302,13.262-29.564,29.564-29.564s29.564,13.262,29.564,29.564c0,8.18-3.416,15.963-9.295,21.512v15.813  C230.816,387.453,221.723,396.546,210.546,396.546z M210.546,324.419c-8.014,0-14.534,6.519-14.534,14.533  c0,4.694,2.292,9.125,6.134,11.855c1.983,1.41,3.161,3.692,3.161,6.126v19.345c0,2.839,2.399,5.238,5.239,5.238  c2.888,0,5.238-2.35,5.238-5.238v-19.345c0-2.434,1.178-4.716,3.161-6.126c3.84-2.729,6.134-7.161,6.134-11.855  C225.079,330.938,218.56,324.419,210.546,324.419z"/>
<path d="M461.824,355.334h-28.978c-0.751-6.121-2.367-11.974-4.737-17.432l25.152-14.522c3.595-2.075,4.826-6.671,2.751-10.266  c-2.075-3.595-6.672-4.826-10.266-2.751l-25.213,14.557c-3.633-4.808-7.93-9.089-12.758-12.697l14.58-25.253  c2.075-3.595,0.844-8.191-2.751-10.266c-3.595-2.076-8.191-0.844-10.266,2.751l-14.585,25.262  c-5.442-2.329-11.276-3.905-17.369-4.627v-29.197c0-4.151-3.365-7.515-7.515-7.515c-4.151,0-7.515,3.365-7.515,7.515v29.197  c-6.093,0.723-11.927,2.298-17.369,4.627L330.4,279.456c-2.075-3.595-6.674-4.825-10.266-2.751  c-3.595,2.075-4.826,6.672-2.751,10.266l14.58,25.253c-4.829,3.607-9.125,7.888-12.758,12.697l-25.214-14.557  c-3.596-2.076-8.191-0.844-10.266,2.751s-0.844,8.191,2.751,10.266l25.153,14.522c-2.371,5.458-3.986,11.312-4.737,17.432h-28.979  c-4.151,0-7.515,3.365-7.515,7.515s3.365,7.515,7.515,7.515h28.914c0.705,6.153,2.281,12.043,4.621,17.536l-24.973,14.419  c-3.595,2.075-4.826,6.671-2.751,10.266c1.393,2.412,3.918,3.759,6.515,3.759c1.275,0,2.568-0.324,3.751-1.008l24.949-14.405  c3.637,4.883,7.96,9.227,12.823,12.89l-14.38,24.906c-2.075,3.594-0.844,8.191,2.751,10.266c1.183,0.684,2.476,1.008,3.751,1.008  c2.597,0,5.124-1.348,6.515-3.759l14.356-24.865c5.508,2.383,11.418,3.998,17.598,4.731v28.696c0,4.151,3.365,7.515,7.515,7.515  c4.151,0,7.515-3.365,7.515-7.515v-28.696c6.18-0.733,12.09-2.349,17.598-4.731l14.356,24.865c1.393,2.412,3.918,3.759,6.515,3.759  c1.275,0,2.568-0.325,3.751-1.008c3.595-2.075,4.826-6.671,2.751-10.266l-14.38-24.906c4.863-3.663,9.186-8.007,12.823-12.89  l24.949,14.405c1.183,0.684,2.476,1.008,3.751,1.008c2.597,0,5.124-1.348,6.515-3.759c2.075-3.595,0.844-8.191-2.751-10.266  l-24.973-14.419c2.341-5.493,3.916-11.383,4.621-17.536h28.913c4.151,0,7.515-3.365,7.515-7.515  C469.34,358.699,465.975,355.334,461.824,355.334z M369.867,411.54c-26.709,0-48.44-21.73-48.44-48.44s21.73-48.44,48.44-48.44  c26.71,0,48.44,21.73,48.44,48.44C418.307,389.81,396.577,411.54,369.867,411.54z"/>
<path d="M369.867,326.702c-20.07,0-36.398,16.328-36.398,36.399c0,20.07,16.328,36.398,36.398,36.398  c20.07,0,36.399-16.328,36.399-36.398C406.266,343.03,389.938,326.702,369.867,326.702z M369.867,384.467  c-11.782,0-21.367-9.585-21.367-21.367c0-11.782,9.585-21.367,21.367-21.367s21.367,9.585,21.367,21.367  C391.234,374.883,381.649,384.467,369.867,384.467z"/>
<path d="M50.17,429.135c4.147,0,7.508-3.362,7.508-7.508V241.524c0-10.051,8.256-17.614,13.61-17.614h53.406h35.259h99.875h35.259  h45.397c11.512,0,19.459,5.255,21.261,14.057c0.115,0.561,0.203,1.136,0.262,1.711c0.426,4.124,4.114,7.118,8.24,6.697  c4.126-0.426,7.123-4.115,6.697-8.24c-0.11-1.066-0.274-2.136-0.489-3.18c-3.24-15.832-17.36-26.062-35.972-26.062h-37.889v-54.559  c0-4.147-3.362-7.508-7.508-7.508s-7.508,3.362-7.508,7.508v54.559h-20.243V90.815c0-31.676-25.77-57.446-57.446-57.446  s-57.446,25.77-57.446,57.446v118.08h-20.243V92.705c-0.001-42.838,34.85-77.689,77.688-77.689s77.689,34.851,77.689,77.689v11.576  c0,4.147,3.362,7.508,7.508,7.508s7.508-3.362,7.508-7.508V92.705C302.594,41.587,261.006,0,209.89,0  c-51.118,0-92.705,41.587-92.705,92.705v116.19H71.287c-13.513,0-28.626,13.954-28.626,32.631v180.101  C42.662,425.773,46.022,429.135,50.17,429.135z M167.461,90.815c0-23.396,19.034-42.429,42.429-42.429s42.429,19.034,42.429,42.429  v118.08H167.46L167.461,90.815L167.461,90.815z"/>
<path d="M370.61,481.739c-3.85-1.545-8.221,0.327-9.762,4.177c-2.694,6.723-9.115,11.068-16.36,11.068H75.291  c-9.713,0-17.614-7.902-17.614-17.614v-3.685c0-4.147-3.362-7.508-7.508-7.508s-7.508,3.362-7.508,7.508v3.685  C42.66,497.362,57.298,512,75.291,512h269.196c13.417,0,25.31-8.047,30.299-20.499C376.329,487.651,374.459,483.281,370.61,481.739z  "/>
<g>
</g>
<g>
</g>
<g>
</g>
<g>
</g>
<g>
</g>
<g>
</g>
<g>
</g>
<g>
</g>
<g>
</g>
<g>
</g>
<g>
</g>
<g>
</g>
<g>
</g>
<g>
</g>
<g>
</g>
</svg>
