<?xml version="1.0" encoding="iso-8859-1"?>
<!-- Generator: Adobe Illustrator 19.0.0, SVG Export Plug-In . SVG Version: 6.00 Build 0)  -->
<svg version="1.1" id="Capa_1" xmlns="http://www.w3.org/2000/svg" xmlns:xlink="http://www.w3.org/1999/xlink" x="0px" y="0px"
	 viewBox="0 0 512 512" style="enable-background:new 0 0 512 512;" xml:space="preserve">
<path style="fill:#3E3D43;" d="M415.246,159.22h-124c-3.53-16.22-17.97-28.37-35.25-28.37c-0.41,0-0.82,0.01-1.23,0.03
	c-0.25,0.01-0.49,0.02-0.74,0.04c-15.51,0.82-28.42,11.47-32.63,25.82c-0.25,0.81-0.46,1.64-0.64,2.48h-124
	c2.4-50.34,28.14-94.55,66.63-122.06c3.11-2.23,6.3-4.34,9.57-6.34c23.86-14.59,51.85-23.08,81.81-23.31
	c0.41-0.01,0.82-0.01,1.23-0.01C341.466,7.5,411.216,74.75,415.246,159.22z"/>
<path style="fill:#57565C;" d="M364.416,159.22h-73.17c-3.22-14.78-15.49-26.17-30.71-28.09c-1.49-0.18-3-0.28-4.54-0.28
	c-0.41,0-0.82,0.01-1.23,0.03c-0.25,0.01-0.49,0.02-0.74,0.04c-15.51,0.82-28.42,11.47-32.63,25.82c-0.25,0.81-0.46,1.64-0.64,2.48
	h-28.9c-0.76-0.41-1.52-0.45-2.28,0h-92.82c0.6-12.63,2.68-24.88,6.05-36.57c10.07-34.91,31.75-64.88,60.58-85.49
	c13.78-4.01,28.33-6.21,43.38-6.33c0.41-0.01,0.82-0.01,1.23-0.01C285.436,30.82,349.966,86.02,364.416,159.22z"/>
<rect x="83.36" y="159.22" style="fill:#FFA834;" width="345.29" height="345.28"/>
<polygon style="fill:#FF9911;" points="428.646,159.22 428.646,504.5 357.446,504.5 357.446,215.5 83.356,215.5 83.356,159.22 "/>
<g>
	<path style="fill:#FFFFFF;" d="M403.642,326.286c0,4.089,0,13.835,0,17.912"/>
	<path style="fill:#FFFFFF;" d="M108.358,326.286c0-5.044,0-10.08,0-15.084"/>
</g>
<g>
	<path style="fill:#3E3D43;" d="M208.096,397.28c-11.1,4.76-22.76,4.71-31.61,0.73c-5.77-2.6-10.34-6.86-12.78-12.55
		c-6.17-14.39,3.69-32.43,22.03-40.3c0.6-0.26,1.2-0.5,1.8-0.73c17.83-6.79,36.62-1.38,42.59,12.55
		C236.306,371.37,226.436,389.41,208.096,397.28z"/>
	<path style="fill:#3E3D43;" d="M308.466,397.28c-11.11,4.76-22.77,4.71-31.61,0.73c-5.77-2.6-10.34-6.86-12.78-12.55
		c-6.17-14.39,3.69-32.43,22.03-40.3c0.6-0.26,1.2-0.5,1.8-0.73c17.82-6.79,36.62-1.38,42.59,12.55
		C336.666,371.37,326.806,389.41,308.466,397.28z"/>
</g>
<g>
	<path style="fill:#57565C;" d="M178.276,397.28c-0.59,0.25-1.19,0.5-1.79,0.73c-5.77-2.6-10.34-6.86-12.78-12.55
		c-6.17-14.39,3.69-32.43,22.03-40.3c0.6-0.26,1.2-0.5,1.8-0.73c5.77,2.6,10.34,6.86,12.78,12.55
		C206.486,371.37,196.616,389.41,178.276,397.28z"/>
	<path style="fill:#57565C;" d="M278.646,397.28c-0.59,0.25-1.19,0.5-1.79,0.73c-5.77-2.6-10.34-6.86-12.78-12.55
		c-6.17-14.39,3.69-32.43,22.03-40.3c0.6-0.26,1.2-0.5,1.8-0.73c5.77,2.6,10.34,6.86,12.77,12.55
		C306.856,371.37,296.986,389.41,278.646,397.28z"/>
</g>
<path style="fill:#020202;" d="M422.233,151.716c-3.626-40.159-21.527-77.378-50.888-105.454C340.145,16.43,299.182,0,256,0
	s-84.145,16.43-115.344,46.262c-29.362,28.076-47.263,65.295-50.89,105.454H75.858V512h360.284V151.716H422.233z M256,15
	c78.587,0,143.534,59.437,151.175,136.716H369.82c-4.146-31.154-20.939-59.287-46.728-77.916l-8.783,12.16
	c21.884,15.807,36.313,39.471,40.352,65.756h-57.823c-6.271-16.749-22.572-28.37-40.838-28.37c-18.267,0-34.568,11.621-40.839,28.37
	h-57.825c4.472-29.014,21.65-54.836,47.166-70.27l-7.764-12.835c-30,18.146-49.967,48.8-54.546,83.105h-37.368
	C112.466,74.437,177.413,15,256,15z M280.173,151.716h-48.345c5.136-8.094,14.206-13.37,24.173-13.37
	C265.967,138.346,275.037,143.621,280.173,151.716z M421.142,497H90.858V166.716h135.936h58.413h135.936V497H421.142z"/>
<g>
	<polygon style="fill:#FFFFFF;" points="396.142,305.546 411.142,305.546 411.142,176.716 357.444,176.716 357.444,191.716 
		396.142,191.716 	"/>
	<rect x="396.14" y="326.29" style="fill:#FFFFFF;" width="15" height="17.912"/>
</g>
<polygon style="fill:#020202;" points="396.142,472 378.656,472 378.656,487 411.142,487 411.142,453.085 396.142,453.085 "/>
<g>
	<polygon style="fill:#FFFFFF;" points="115.858,350.797 100.858,350.797 100.858,487 146.743,487 146.743,472 115.858,472 	"/>
	<rect x="100.86" y="311.2" style="fill:#FFFFFF;" width="15" height="15.08"/>
</g>
<g>
	<polygon style="fill:#020202;" points="115.858,191.716 160.413,191.716 160.413,176.716 100.858,176.716 100.858,225.885 
		115.858,225.885 	"/>
	<path style="fill:#020202;" d="M224.411,263.449v76.316c-11.157-6.779-26.882-7.822-41.627-1.496
		c-22.113,9.485-33.763,31.983-25.97,50.152c5.443,12.692,18.954,19.966,34.145,19.965c6.556,0,13.426-1.355,20.092-4.215
		c16.779-7.197,27.524-21.887,28.331-36.493h0.029v-0.672c0.028-0.818,0.035-1.636,0-2.452v-89.981l84.882-25.757v90.648
		c-11.124-6.514-26.612-7.429-41.141-1.196c-22.113,9.485-33.764,31.983-25.971,50.152c5.443,12.692,18.954,19.965,34.145,19.965
		c6.556,0,13.426-1.355,20.092-4.215c19.6-8.407,30.968-27.036,27.875-43.814V228.59L224.411,263.449z M205.138,390.386
		c-14.515,6.224-30.007,2.689-34.539-7.878c-4.533-10.568,3.586-24.23,18.098-30.454c4.856-2.083,9.82-3.072,14.448-3.072
		c9.204,0,17.075,3.918,20.091,10.95l0,0c0.644,1.502,1.024,3.067,1.175,4.663v3.083h0.005
		C223.636,376.454,216.273,385.609,205.138,390.386z M305.505,390.386c-14.513,6.224-30.006,2.689-34.539-7.878
		c-4.532-10.568,3.586-24.23,18.098-30.454c4.856-2.083,9.819-3.072,14.447-3.072c9.204,0,17.075,3.918,20.092,10.95
		c0.277,0.646,0.505,1.304,0.689,1.971v8.685C322.337,378.42,315.413,386.136,305.505,390.386z"/>
</g>
<g>
</g>
<g>
</g>
<g>
</g>
<g>
</g>
<g>
</g>
<g>
</g>
<g>
</g>
<g>
</g>
<g>
</g>
<g>
</g>
<g>
</g>
<g>
</g>
<g>
</g>
<g>
</g>
<g>
</g>
</svg>
