<svg viewBox="1 -8 511.99998 511" xmlns="http://www.w3.org/2000/svg"><path d="m7.347656 6.855469h496.90625v384.703125h-496.90625zm0 0" fill="#d9eef7"/><path d="m39.40625 38.914062h432.789062v320.585938h-432.789062zm0 0" fill="#ffe451"/><path d="m39.40625 38.914062h56.101562v320.585938h-56.101562zm0 0" fill="#fbb03b"/><path d="m143.597656 455.671875h224.410156v32.058594h-224.410156zm0 0" fill="#d9eef7"/><path d="m327.933594 391.554688h-144.261719l-16.03125 64.117187h176.320313zm0 0" fill="#aac4da"/><path d="m319.917969 127.074219c17.714843 0 32.058593 14.347656 32.058593 32.058593 0 17.714844-14.34375 32.058594-32.058593 32.058594-9.375 0-114.929688 0-128.234375 0-17.710938 0-32.058594-14.34375-32.058594-32.058594 0-17.710937 14.347656-32.058593 32.058594-32.058593 5.933594 0 11.460937 1.761719 16.191406 4.570312 1.84375-29.414062 26.125-52.65625 55.941406-52.65625 28.292969 0 51.613282 20.917969 55.460938 48.167969.242187 0 .402344-.082031.640625-.082031zm0 0" fill="#69f0f7"/><path d="m215.730469 159.132812c0-17.710937 14.34375-32.058593 32.058593-32.058593 5.929688 0 11.460938 1.761719 16.1875 4.570312 1.210938-19.320312 12.136719-35.929687 27.921876-45.085937-8.257813-4.796875-17.832032-7.570313-28.082032-7.570313-29.816406 0-54.097656 23.242188-55.941406 52.65625-4.730469-2.808593-10.257812-4.570312-16.191406-4.570312-17.710938 0-32.058594 14.347656-32.058594 32.058593 0 17.710938 14.347656 32.058594 32.058594 32.058594h56.105468c-17.714843 0-32.058593-14.347656-32.058593-32.058594zm0 0" fill="#69d4f7"/><path d="m512 400.296875v-399.796875h-127.765625v15.09375h112.671875v369.609375h-481.8125v-369.609375h345.097656v-15.09375h-360.191406v399.796875h174.203125l-12.257813 49.023437h-25.699218v32.058594h-16.496094v15.09375h136.25v-15.09375h-104.65625v-16.964844h209.3125v16.964844h-80.613281v15.09375h112.207031v-15.09375h-16.5v-32.058594h-25.695312l-12.257813-49.023437zm-177.503906 49.023437h-156.988282l12.253907-49.023437h132.476562zm0 0"/><path d="m479.941406 32.558594h-447.882812v335.679687h127.765625v-15.09375h-112.671875v-305.492187h417.695312v305.492187h-280.980468v15.09375h296.074218zm0 0"/><path d="m325.761719 121.121094c-6.867188-28.039063-32.382813-48.488282-61.746094-48.488282-29.988281 0-55.480469 21.03125-61.992187 49.476563-3.324219-.917969-6.734376-1.390625-10.140626-1.390625-21.835937 0-39.605468 17.765625-39.605468 39.605469 0 21.839843 17.769531 39.605469 39.605468 39.605469h128.234376c21.839843 0 39.605468-17.765626 39.605468-39.605469 0-19.921875-14.785156-36.457031-33.960937-39.203125zm-5.644531 63.714844h-128.234376c-13.515624 0-24.511718-10.996094-24.511718-24.511719s10.996094-24.511719 24.511718-24.511719c4.199219 0 8.464844 1.214844 12.339844 3.511719l10.609375 6.296875.773438-12.3125c1.601562-25.5625 22.867187-45.582032 48.410156-45.582032 24.003906 0 44.632813 17.917969 47.988281 41.675782l.914063 6.492187s7.367187-.03125 7.695312-.074219c13.289063.265626 24.015625 11.15625 24.015625 24.503907 0 13.515625-10.996094 24.511719-24.511718 24.511719zm0 0"/><path d="m143.796875 317.414062h64.117187c17.296876 0 23.574219-14.097656 23.574219-23.574218v-53.914063l11.160157 11.160157 10.671874-10.671876-29.378906-29.378906-29.378906 29.378906 10.671875 10.671876 11.160156-11.160157v53.914063c0 .019531-.109375 2.441406-1.207031 4.636718-.949219 1.902344-2.558594 3.84375-7.277344 3.84375h-64.117187v15.09375zm0 0" fill="#fff"/><path d="m349.5 323.21875 29.378906-29.378906-29.378906-29.382813-10.675781 10.675781 11.160156 11.15625h-53.910156c-.023438 0-2.441407-.105468-4.640625-1.203124-1.898438-.953126-3.839844-2.558594-3.839844-7.277344v-64.117188h-15.09375v64.117188c0 17.296875 14.097656 23.578125 23.574219 23.578125h53.914062l-11.160156 11.160156zm0 0" fill="#fff"/><path d="m111.738281 305.054688h16.027344v15.09375h-16.027344zm0 0"/><path d="m79.679688 305.054688h16.027343v15.09375h-16.027343zm0 0"/><path d="m304.089844 216.894531h16.027344v15.09375h-16.027344zm0 0"/><path d="m336.144531 216.894531h16.03125v15.09375h-16.03125zm0 0"/><path d="m103.722656 61.882812h-39.605468v71.664063h15.09375v-56.570313h24.511718zm0 0" fill="#fff"/><path d="m64.117188 152.308594h15.09375v16.03125h-15.09375zm0 0"/><path d="m432.320312 61.882812h16.03125v15.09375h-16.03125zm0 0" fill="#fff"/><path d="m432.320312 96.675781h16.03125v15.09375h-16.03125zm0 0"/><path d="m400.261719 64.617188h16.03125v15.09375h-16.03125zm0 0"/></svg>