<?xml version="1.0" encoding="iso-8859-1"?>
<!-- Generator: Adobe Illustrator 19.0.0, SVG Export Plug-In . SVG Version: 6.00 Build 0)  -->
<svg xmlns="http://www.w3.org/2000/svg" xmlns:xlink="http://www.w3.org/1999/xlink" version="1.1" id="Layer_1" x="0px" y="0px" viewBox="0 0 512 512" style="enable-background:new 0 0 512 512;" xml:space="preserve" width="512" height="512">
<g id="XMLID_299_">
	<g id="XMLID_359_">
		<g id="XMLID_369_">
			<g id="XMLID_370_">
				<g id="XMLID_371_">
					<rect id="XMLID_374_" x="7.5" y="49.47" style="fill:#89B4C9;" width="497" height="40.67"/>
					<rect id="XMLID_377_" x="64.4" y="49.47" style="fill:#618BAA;" width="68.83" height="40.67"/>
				</g>
				<g id="XMLID_378_">
					<rect id="XMLID_2745_" x="76.4" y="24.205" style="fill:#E3E3E3;" width="44.832" height="90.535"/>
					<rect id="XMLID_2741_" x="76.4" y="69.908" style="fill:#AAAAAA;" width="44.832" height="44.832"/>
				</g>
			</g>
			<g id="XMLID_379_">
				<g id="XMLID_382_">
					<rect id="XMLID_385_" x="7.5" y="173.82" style="fill:#89B4C9;" width="497" height="40.67"/>
					<rect id="XMLID_388_" x="250.66" y="173.82" style="fill:#618BAA;" width="68.83" height="40.67"/>
				</g>
				<g id="XMLID_389_">
					<rect id="XMLID_2731_" x="262.661" y="148.557" style="fill:#DCE561;" width="44.832" height="90.535"/>
					<rect id="XMLID_2730_" x="262.661" y="194.26" style="fill:#89BF4A;" width="44.832" height="44.832"/>
				</g>
			</g>
			<g id="XMLID_390_">
				<g id="XMLID_391_">
					<rect id="XMLID_394_" x="7.5" y="298.18" style="fill:#89B4C9;" width="497" height="40.66"/>
					<rect id="XMLID_397_" x="338.42" y="298.18" style="fill:#618BAA;" width="68.83" height="40.66"/>
				</g>
				<g id="XMLID_398_">
					<rect id="XMLID_2720_" x="350.419" y="272.908" style="fill:#FC4747;" width="44.832" height="90.535"/>
					<rect id="XMLID_2719_" x="350.419" y="318.612" style="fill:#E20F0A;" width="44.832" height="44.832"/>
				</g>
			</g>
			<g id="XMLID_399_">
				<g id="XMLID_400_">
					<rect id="XMLID_403_" x="7.5" y="422.53" style="fill:#89B4C9;" width="497" height="40.66"/>
					<rect id="XMLID_406_" x="137.48" y="422.53" style="fill:#618BAA;" width="68.83" height="40.66"/>
				</g>
				<g id="XMLID_407_">
					<rect id="XMLID_2707_" x="149.479" y="397.26" style="fill:#4AD4FF;" width="44.832" height="90.535"/>
					<rect id="XMLID_2704_" x="149.479" y="442.963" style="fill:#159BFF;" width="44.832" height="44.832"/>
				</g>
			</g>
		</g>
	</g>
	<g id="XMLID_408_">
		<path id="XMLID_411_" d="M504.5,41.973H128.732V24.205c0-4.143-3.358-7.5-7.5-7.5H76.4c-4.142,0-7.5,3.357-7.5,7.5v17.768H7.5    c-4.142,0-7.5,3.357-7.5,7.5v40.666c0,4.143,3.358,7.5,7.5,7.5h61.4v17.102c0,4.143,3.358,7.5,7.5,7.5h44.832    c4.142,0,7.5-3.357,7.5-7.5V97.639h241.846c4.142,0,7.5-3.357,7.5-7.5s-3.358-7.5-7.5-7.5H128.732v-5.25    c3.956-0.208,7.102-3.472,7.102-7.48s-3.146-7.271-7.102-7.48v-5.456H497v25.666h-92.245c-4.142,0-7.5,3.357-7.5,7.5    s3.358,7.5,7.5,7.5H504.5c4.142,0,7.5-3.357,7.5-7.5V49.473C512,45.33,508.642,41.973,504.5,41.973z M113.732,31.705v30.703H83.9    V31.705H113.732z M15,82.639V56.973h53.9v5.456c-3.956,0.209-7.101,3.472-7.101,7.48s3.146,7.271,7.101,7.48v5.25H15z     M83.9,107.24V77.408h29.832v29.832H83.9z"/>
		<path id="XMLID_416_" d="M504.5,166.324H314.993v-17.768c0-4.143-3.358-7.5-7.5-7.5h-44.832c-4.142,0-7.5,3.357-7.5,7.5v17.768    H7.5c-4.142,0-7.5,3.357-7.5,7.5v40.667c0,4.143,3.358,7.5,7.5,7.5h247.662v17.101c0,4.143,3.358,7.5,7.5,7.5h44.832    c4.142,0,7.5-3.357,7.5-7.5v-17.101H504.5c4.142,0,7.5-3.357,7.5-7.5v-40.667C512,169.682,508.642,166.324,504.5,166.324z     M299.993,156.057v30.703h-29.832v-30.703H299.993z M15,206.991v-25.667h240.162v5.456c-3.956,0.208-7.102,3.472-7.102,7.48    s3.146,7.271,7.102,7.48v5.251H15z M270.162,231.592V201.76h29.832v29.832H270.162z M497,206.991H314.993v-5.251    c3.956-0.208,7.102-3.472,7.102-7.48s-3.146-7.271-7.102-7.48v-5.456H497V206.991z"/>
		<path id="XMLID_422_" d="M504.5,290.676H402.751v-17.768c0-4.143-3.358-7.5-7.5-7.5h-44.832c-4.142,0-7.5,3.357-7.5,7.5v17.768    H149.422c-4.142,0-7.5,3.357-7.5,7.5s3.358,7.5,7.5,7.5h193.498v5.456c-3.956,0.209-7.101,3.472-7.101,7.48    s3.146,7.271,7.101,7.48v5.251H15v-25.667h100.245c4.142,0,7.5-3.357,7.5-7.5s-3.358-7.5-7.5-7.5H7.5c-4.142,0-7.5,3.357-7.5,7.5    v40.667c0,4.143,3.358,7.5,7.5,7.5h335.419v17.101c0,4.143,3.358,7.5,7.5,7.5h44.832c4.142,0,7.5-3.357,7.5-7.5v-17.101H504.5    c4.142,0,7.5-3.357,7.5-7.5v-40.667C512,294.033,508.642,290.676,504.5,290.676z M387.751,280.408v30.703h-29.832v-30.703H387.751    z M357.919,355.943v-29.832h29.832v29.832H357.919z M497,331.343h-94.249v-5.251c3.956-0.209,7.101-3.472,7.101-7.48    s-3.146-7.271-7.101-7.48v-5.456H497V331.343z"/>
		<path id="XMLID_427_" d="M504.5,415.027h-41.078c-4.142,0-7.5,3.357-7.5,7.5s3.358,7.5,7.5,7.5H497v25.667H201.811v-5.251    c3.956-0.209,7.101-3.472,7.101-7.48s-3.146-7.271-7.101-7.48v-5.456h227.434c4.142,0,7.5-3.357,7.5-7.5s-3.358-7.5-7.5-7.5    H201.811V397.26c0-4.143-3.358-7.5-7.5-7.5h-44.832c-4.142,0-7.5,3.357-7.5,7.5v17.768H7.5c-4.142,0-7.5,3.357-7.5,7.5v40.667    c0,4.143,3.358,7.5,7.5,7.5h134.479v17.101c0,4.143,3.358,7.5,7.5,7.5h44.832c4.142,0,7.5-3.357,7.5-7.5v-17.101H504.5    c4.142,0,7.5-3.357,7.5-7.5v-40.667C512,418.385,508.642,415.027,504.5,415.027z M186.811,404.76v30.703h-29.832V404.76H186.811z     M15,455.694v-25.667h126.979v5.456c-3.956,0.209-7.101,3.472-7.101,7.48s3.146,7.271,7.101,7.48v5.251H15z M156.979,480.295    v-29.832h29.832v29.832H156.979z"/>
	</g>
</g>















</svg>
