<?xml version="1.0" encoding="iso-8859-1"?>
<!-- Generator: Adobe Illustrator 19.0.0, SVG Export Plug-In . SVG Version: 6.00 Build 0)  -->
<svg version="1.1" id="Capa_1" xmlns="http://www.w3.org/2000/svg" xmlns:xlink="http://www.w3.org/1999/xlink" x="0px" y="0px"
	 viewBox="0 0 512.001 512.001" style="enable-background:new 0 0 512.001 512.001;" xml:space="preserve">
<g>
	<path style="fill:#F8C55A;" d="M231.886,106.113V36.22c0-14.48-11.739-26.22-26.22-26.22H72.785v36.572
		c0,6.504-5.273,11.777-11.777,11.777H10.841c-0.477,1.848-0.749,3.757-0.749,5.697V275.12c0,14.48,11.739,26.22,26.22,26.22h75.398
		c-8.092-17.533-12.613-37.051-12.613-57.63C99.097,169.306,158.112,108.696,231.886,106.113z"/>
	<path style="fill:#F8C55A;" d="M13.565,51.98c0.179-0.289,0.364-0.573,0.556-0.854C13.929,51.407,13.745,51.692,13.565,51.98z"/>
	<path style="fill:#F8C55A;" d="M14.974,49.959c0.124-0.158,0.25-0.315,0.378-0.471C15.223,49.644,15.098,49.801,14.974,49.959z"/>
	<path style="fill:#F8C55A;" d="M12.454,53.984c0.165-0.339,0.339-0.674,0.521-1.005C12.791,53.31,12.62,53.645,12.454,53.984z"/>
	<path style="fill:#F8C55A;" d="M10.841,58.347c0.347-1.344,0.82-2.65,1.4-3.907C11.657,55.697,11.189,57.002,10.841,58.347z"/>
</g>
<path style="fill:#F39E54;" d="M72.785,46.571V10l0,0h-9.123c-2.992,0-5.922,0.591-8.637,1.702
	c-0.141,0.058-0.282,0.118-0.422,0.179c-2.67,1.155-5.122,2.815-7.204,4.929L16.654,48.03c-0.46,0.467-0.888,0.957-1.301,1.458
	c-0.128,0.155-0.254,0.313-0.378,0.471c-0.297,0.381-0.581,0.77-0.853,1.167c-0.192,0.281-0.377,0.565-0.556,0.854
	c-0.204,0.33-0.404,0.661-0.591,1c-0.182,0.331-0.356,0.666-0.521,1.005c-0.073,0.151-0.143,0.303-0.213,0.456
	c-0.58,1.257-1.053,2.563-1.4,3.907l0,0l0,0h50.167C67.512,58.348,72.785,53.075,72.785,46.571z"/>
<path style="fill:#4CC1EB;" d="M301.967,321.761c3.516-3.244,7.427-6.164,11.743-8.656l55.67-32.142
	c3.323-11.85,5.104-24.343,5.104-37.254c0-76.046-61.647-137.693-137.694-137.693c-1.642,0-3.275,0.039-4.904,0.096
	c-73.774,2.584-132.79,63.194-132.79,137.598c0,20.578,4.522,40.096,12.613,57.63c17.193,37.253,50.533,65.521,91.051,75.823
	l85.839-49.56C292.916,325.111,297.4,323.184,301.967,321.761z"/>
<path style="fill:#ABB0B7;" d="M369.132,429.782c0.619-0.651,1.22-1.315,1.808-1.988c0.193-0.221,0.391-0.438,0.581-0.661
	c0.71-0.834,1.399-1.684,2.063-2.549c0.05-0.065,0.103-0.127,0.153-0.192c0.747-0.98,1.466-1.98,2.154-2.997
	c0.003-0.004,0.006-0.009,0.009-0.013c0.652-0.965,1.273-1.948,1.871-2.943c0.133-0.222,0.259-0.448,0.389-0.672
	c0.461-0.789,0.909-1.584,1.336-2.39c0.15-0.283,0.295-0.567,0.44-0.852c0.395-0.771,0.775-1.55,1.138-2.336
	c0.134-0.29,0.268-0.579,0.398-0.87c0.369-0.829,0.718-1.665,1.053-2.507c0.096-0.242,0.197-0.481,0.29-0.724
	c0.403-1.05,0.781-2.108,1.13-3.177c0.01-0.031,0.022-0.062,0.032-0.093c0.735-2.266,1.342-4.57,1.828-6.902
	c0.05-0.239,0.091-0.48,0.139-0.72c0.178-0.904,0.34-1.812,0.48-2.724c0.047-0.303,0.088-0.607,0.131-0.912
	c0.121-0.869,0.225-1.741,0.312-2.615c0.03-0.306,0.061-0.612,0.087-0.919c0.078-0.918,0.134-1.838,0.173-2.761
	c0.011-0.249,0.027-0.496,0.035-0.745c0.036-1.154,0.047-2.31,0.022-3.467c0-0.009,0-0.018,0-0.027
	c-0.027-1.236-0.089-2.473-0.186-3.709l0,0c-0.744-9.456-3.551-18.897-8.609-27.66l0,0c-5.059-8.762-11.833-15.913-19.649-21.285
	l-26.292,15.179c-4.591,2.65-8.153,6.396-10.555,10.715c9.606,0.154,18.891,5.201,24.044,14.125l0.001,0.001
	c5.154,8.926,4.881,19.493,0.21,27.89c0.009,0,0.017,0.001,0.026,0.001c-0.163,0.284-0.334,0.55-0.503,0.822
	c-0.078,0.129-0.157,0.259-0.237,0.387c-0.061,0.095-0.122,0.189-0.183,0.283c-1.725,2.694-3.926,5.122-6.569,7.148
	c-1.803,1.412-3.087,2.071-3.087,2.071l-19.069,11.01l-70.501,40.703c-13.515,7.804-30.798,3.173-38.601-10.344l0,0
	c-7.803-13.515-3.173-30.798,10.344-38.601l63.278-36.534c-1.56-19.814,5.969-39.676,20.924-53.473
	c-4.567,1.423-9.052,3.35-13.367,5.842l-85.839,49.56l-3.732,2.154c-31.438,18.15-42.208,58.35-24.058,89.786l0.001,0.001
	c18.15,31.437,58.35,42.208,89.787,24.058l89.57-51.713c4.514-2.606,8.587-5.68,12.224-9.104c0.628-0.591,1.243-1.193,1.844-1.805
	C368.643,430.289,368.889,430.037,369.132,429.782z"/>
<path style="fill:#E5EAED;" d="M403.281,261.391l-33.902,19.573l-55.67,32.142c-4.316,2.492-8.228,5.412-11.743,8.656
	c-14.954,13.796-22.484,33.658-20.924,53.473c0.745,9.456,3.551,18.897,8.609,27.658l0.001,0.001
	c5.059,8.762,11.833,15.913,19.649,21.285l7.222-4.17l19.069-11.01c0,0,1.285-0.66,3.087-2.071c1.905-1.492,4.389-3.83,6.569-7.148
	c0.061-0.094,0.122-0.188,0.183-0.283c0.08-0.125,0.158-0.259,0.237-0.387c0.168-0.272,0.339-0.538,0.503-0.822
	c-0.009,0-0.017-0.001-0.026-0.001c-9.605-0.155-18.89-5.205-24.043-14.129l0,0c-5.153-8.925-4.881-19.491-0.211-27.887
	c2.402-4.319,5.964-8.064,10.555-10.715l26.292-15.179l63.28-36.535c13.515-7.804,30.797-3.173,38.6,10.343v0.001
	c7.804,13.515,3.173,30.798-10.344,38.601l-63.279,36.535l0,0c0.097,1.236,0.159,2.473,0.186,3.709c0,0.009,0,0.018,0,0.027
	c0.025,1.157,0.014,2.313-0.022,3.467c-0.008,0.249-0.024,0.497-0.035,0.745c-0.039,0.922-0.095,1.843-0.173,2.761
	c-0.026,0.307-0.057,0.613-0.087,0.919c-0.087,0.875-0.191,1.746-0.312,2.615c-0.042,0.304-0.084,0.608-0.131,0.912
	c-0.14,0.912-0.302,1.819-0.48,2.724c-0.047,0.24-0.089,0.481-0.139,0.72c-0.486,2.332-1.093,4.636-1.828,6.902
	c-0.01,0.031-0.022,0.062-0.032,0.093c-0.348,1.068-0.727,2.126-1.13,3.177c-0.093,0.243-0.194,0.482-0.29,0.724
	c-0.334,0.842-0.683,1.678-1.053,2.507c-0.13,0.292-0.264,0.581-0.398,0.87c-0.364,0.786-0.743,1.564-1.138,2.336
	c-0.146,0.285-0.29,0.569-0.44,0.852c-0.427,0.806-0.875,1.602-1.336,2.39c-0.131,0.224-0.256,0.45-0.389,0.672
	c-0.598,0.995-1.219,1.978-1.871,2.943c-0.003,0.004-0.006,0.009-0.009,0.013c-0.688,1.017-1.406,2.016-2.154,2.997
	c-0.049,0.065-0.103,0.127-0.153,0.192c-0.664,0.865-1.353,1.714-2.063,2.549c-0.19,0.223-0.388,0.44-0.581,0.661
	c-0.589,0.673-1.19,1.337-1.808,1.988c-0.242,0.255-0.489,0.506-0.735,0.758c-0.601,0.612-1.216,1.214-1.844,1.805
	c-0.152,0.143-0.293,0.295-0.447,0.438c4.556-1.422,9.029-3.346,13.334-5.832l89.57-51.714
	c31.438-18.15,42.209-58.351,24.059-89.788C474.918,254.012,434.719,243.24,403.281,261.391z"/>
<path d="M455.746,245.167c-19.539-5.237-39.946-2.55-57.465,7.565l-14.85,8.574c0.688-5.772,1.053-11.642,1.053-17.596
	c0-15.041-2.266-29.563-6.465-43.247c-0.097-0.386-0.211-0.766-0.353-1.137c-14.454-45.776-50.647-81.987-96.412-96.466
	c-0.434-0.17-0.879-0.305-1.333-0.414c-12.097-3.701-24.849-5.883-38.034-6.333V36.22C241.886,16.247,225.637,0,205.667,0H72.785
	h-9.124l0,0C56.564,0,49.607,2.356,43.96,6.578c-0.869,0.649-1.706,1.343-2.509,2.079c-0.401,0.368-0.794,0.747-1.177,1.136
	L9.529,41.013c-0.017,0.017-0.032,0.036-0.049,0.053c-0.447,0.456-0.879,0.927-1.298,1.409c-0.086,0.099-0.17,0.199-0.255,0.299
	c-0.4,0.468-0.78,0.95-1.151,1.437c-0.005,0.006-0.009,0.012-0.013,0.018c-4.319,5.676-6.671,12.568-6.671,19.815V275.12
	c0,19.972,16.248,36.22,36.219,36.22h69.204c16.046,31.022,42.771,55.658,75.277,69.027c-25.647,23.451-32.558,62.427-14.48,93.738
	c10.114,17.518,26.444,30.049,45.982,35.284c6.524,1.749,13.144,2.613,19.723,2.613c13.121,0,26.073-3.441,37.741-10.179
	l89.57-51.714c4.317-2.493,8.286-5.358,11.911-8.518c4.596-1.585,9.034-3.574,13.201-5.98l89.571-51.714
	c17.518-10.114,30.049-26.444,35.284-45.982c5.235-19.539,2.548-39.946-7.566-57.465
	C491.616,262.932,475.284,250.402,455.746,245.167z M337.276,375.397c2.086,3.614,2.774,7.648,2.266,11.497
	c-3.637-1.508-6.725-4.178-8.779-7.737c-2.03-3.516-2.799-7.515-2.279-11.474C332.06,369.17,335.195,371.792,337.276,375.397z
	 M273.776,390.975c1.692,5.84,4.099,11.517,7.217,16.917c3.117,5.398,6.831,10.296,11.069,14.692l-51.038,29.467
	c-8.719,5.036-19.908,2.036-24.942-6.684c-2.438-4.224-3.086-9.145-1.824-13.854c1.262-4.711,4.283-8.648,8.507-11.087l0,0
	L273.776,390.975z M184.941,322.54c13.915,2.518,28.007,4.025,42.119,4.468c2.969,0.094,5.938,0.14,8.91,0.14
	c12.608,0,25.227-0.845,37.742-2.497l-71.344,41.19C195.279,351.86,189.457,337.398,184.941,322.54z M177.474,291.34
	c-1.103-6.24-1.992-12.534-2.659-18.88c-0.577-5.493-5.497-9.482-10.99-8.901c-5.493,0.577-9.478,5.497-8.901,10.989
	c0.592,5.637,1.365,11.232,2.278,16.792c0.222,1.355,0.437,2.712,0.678,4.063c-4.168-1.258-8.314-2.6-12.423-4.063
	c-10.843-3.859-21.458-8.455-31.788-13.737c-2.976-10.798-4.575-22.162-4.575-33.893c0-11.736,1.599-23.103,4.578-33.905
	c14.326-7.327,29.218-13.292,44.474-17.878c-0.273,1.479-0.536,2.959-0.786,4.443c-0.918,5.446,2.753,10.605,8.199,11.523
	c0.563,0.095,1.122,0.141,1.674,0.141c4.792,0,9.026-3.457,9.849-8.34c0.75-4.448,1.615-8.874,2.587-13.274
	c13.916-2.96,28.038-4.82,42.217-5.569c6.66-0.351,13.33-0.464,19.999-0.326c17.44,0.361,34.853,2.406,51.962,6.127
	c8.163,37.541,8.216,76.551,0.254,114.059c-23.21,5.07-46.981,7.034-70.619,5.925c-14.819-0.695-29.581-2.599-44.118-5.709
	C178.682,297.745,178.042,294.551,177.474,291.34z M163.178,169.676c-13.125,3.428-26.011,7.771-38.52,12.99
	c11.898-21.768,29.951-39.708,51.802-51.473C171.132,143.7,166.691,156.562,163.178,169.676z M315.721,295.03
	c2.461-13.744,3.934-27.659,4.372-41.593c0.642-20.441-0.937-40.978-4.635-61.13c10.763,3.301,21.357,7.27,31.696,11.96
	l12.829,5.819c2.929,10.719,4.502,21.99,4.502,33.625c0,10.579-1.302,20.857-3.738,30.693l-19.95,11.519
	C332.571,289.393,324.199,292.419,315.721,295.03z M349.303,183.374c-12.598-5.36-25.593-9.814-38.843-13.333
	c-3.521-13.249-7.975-26.246-13.335-38.844C319.211,143.087,337.413,161.289,349.303,183.374z M270.417,120.517l5.815,12.818
	c4.691,10.343,8.661,20.94,11.964,31.708c-15.283-2.805-30.79-4.385-46.308-4.708c-4.945-0.103-9.892-0.085-14.832,0.069
	c-1.723,0.054-3.445,0.13-5.167,0.215c-12.225,0.607-24.419,2.004-36.482,4.167c3.321-10.709,7.305-21.214,11.945-31.443
	l5.818-12.826c6.073-1.66,12.324-2.88,18.719-3.627c4.891-0.571,9.863-0.875,14.903-0.875c1.707,0,3.404,0.044,5.096,0.11
	C251.719,116.514,261.27,118.018,270.417,120.517z M54.524,23.825c0.287-0.292,0.589-0.566,0.902-0.827
	c0.105-0.088,0.217-0.165,0.324-0.249c0.213-0.167,0.426-0.333,0.649-0.485c0.134-0.091,0.273-0.173,0.41-0.26
	c0.207-0.13,0.414-0.26,0.627-0.378c0.15-0.083,0.303-0.157,0.456-0.234c0.21-0.105,0.42-0.209,0.636-0.303
	c0.16-0.07,0.323-0.134,0.486-0.197c0.216-0.084,0.433-0.164,0.653-0.237c0.167-0.055,0.336-0.106,0.505-0.154
	c0.223-0.063,0.447-0.121,0.674-0.172c0.17-0.039,0.341-0.076,0.513-0.107c0.232-0.043,0.466-0.077,0.701-0.107
	c0.169-0.021,0.338-0.044,0.508-0.059c0.072-0.006,0.145-0.006,0.218-0.011v26.527c0,0.98-0.797,1.777-1.777,1.777H30.375
	L54.524,23.825z M36.311,291.34c-8.944,0-16.219-7.276-16.219-16.22V68.347h40.916c12.008,0,21.776-9.77,21.776-21.776V19.999
	h122.883c8.944,0,16.219,7.276,16.219,16.22v60.546c-9.751,0.981-19.222,2.919-28.325,5.711c-0.395,0.098-0.784,0.216-1.163,0.361
	c-45.803,14.465-82.029,50.695-96.488,96.501c-0.146,0.385-0.268,0.779-0.365,1.18c-4.188,13.667-6.449,28.17-6.449,43.191
	c0,15.097,2.282,29.67,6.51,43.398c0.061,0.229,0.131,0.456,0.209,0.681c0.373,1.19,0.762,2.374,1.164,3.551H36.311V291.34z
	 M128.524,311.339c-1.353-2.159-2.649-4.356-3.874-6.599c5.706,2.381,11.489,4.586,17.338,6.599
	c6.85,2.357,13.79,4.455,20.798,6.295c3.407,13.007,7.717,25.755,12.928,38.19C156.435,345.28,140.163,329.903,128.524,311.339z
	 M377.163,385.797c-0.016,0.663-0.053,1.324-0.093,1.984c-0.02,0.331-0.039,0.661-0.065,0.991c-0.044,0.568-0.1,1.134-0.162,1.699
	c-0.05,0.454-0.106,0.908-0.167,1.36c-0.062,0.465-0.126,0.929-0.2,1.391c-0.102,0.634-0.218,1.266-0.341,1.896
	c-0.057,0.293-0.108,0.587-0.17,0.88c-0.638,2.999-1.515,5.941-2.627,8.792c-0.009,0.024-0.019,0.047-0.029,0.071
	c-0.364,0.929-0.753,1.848-1.166,2.757c-0.026,0.057-0.052,0.113-0.078,0.17c-0.407,0.888-0.837,1.766-1.289,2.631
	c-0.027,0.051-0.053,0.103-0.079,0.154c-1.431,2.719-3.085,5.321-4.949,7.774c-0.15,0.197-0.31,0.388-0.463,0.583
	c-0.437,0.56-0.881,1.113-1.339,1.656c-0.279,0.329-0.568,0.65-0.855,0.974c-0.354,0.399-0.71,0.795-1.076,1.184
	c-0.332,0.353-0.671,0.701-1.014,1.045c-0.357,0.359-0.719,0.714-1.086,1.063c-3.14,2.995-6.67,5.675-10.591,7.938l-89.57,51.714
	c-12.891,7.442-27.91,9.42-42.288,5.567c-14.378-3.853-26.397-13.074-33.84-25.967c-15.364-26.612-6.214-60.763,20.398-76.127
	l0.304-0.175l28.516-16.463l41.471-23.944c-0.313,1.004-0.619,2.012-0.893,3.034c-1.412,5.27-2.228,10.603-2.497,15.925
	c-0.081,0.159-0.163,0.317-0.245,0.477c-0.634,1.24-1.252,2.486-1.907,3.718c-0.053,0.1-0.093,0.203-0.142,0.303l-35.518,20.506
	l-20.353,11.752c-8.851,5.109-15.181,13.358-17.826,23.229s-1.287,20.181,3.823,29.031c7.079,12.26,19.963,19.121,33.197,19.121
	c6.486,0,13.055-1.648,19.064-5.118l83.061-47.955l6.374-3.68c0.59-0.321,1.782-1.018,3.294-2.117
	c0.151-0.108,0.298-0.221,0.448-0.331c0.133-0.1,0.267-0.202,0.404-0.308c3.506-2.66,6.446-5.844,8.773-9.379
	c0.5-0.743,0.992-1.51,1.462-2.328c0.172-0.299,0.314-0.61,0.452-0.921c5.9-11.241,6.107-25.173-0.696-36.956
	c-3.304-5.723-7.874-10.268-13.152-13.489l16.491-9.521c4.586,3.961,8.596,8.74,11.793,14.275c4.564,7.905,6.959,16.475,7.38,25.02
	v0.006c0.027,0.554,0.044,1.107,0.054,1.661c0.009,0.666,0.017,1.332,0.005,1.996C377.164,385.495,377.167,385.647,377.163,385.797z
	 M387.047,346.662c-3.148-5.452-6.884-10.354-11.069-14.693l51.039-29.467c8.72-5.034,19.907-2.036,24.941,6.684
	c5.034,8.72,2.036,19.908-6.684,24.942l-51.038,29.467C392.571,357.799,390.195,352.113,387.047,346.662z M489.977,332.738
	c-3.853,14.378-13.074,26.396-25.966,33.84l-70.334,40.606c0.472-1.506,0.886-3.03,1.263-4.563c0.106-0.426,0.212-0.853,0.311-1.28
	c0.12-0.525,0.233-1.052,0.342-1.58c0.138-0.664,0.265-1.33,0.385-1.998c0.063-0.355,0.131-0.708,0.19-1.064
	c0.379-2.29,0.651-4.599,0.818-6.921c0.115-1.594,0.191-3.194,0.204-4.797l58.084-33.536c18.269-10.548,24.551-33.993,14.002-52.263
	c-10.548-18.27-33.991-24.551-52.26-14.002l-50.569,29.196l-7.551,4.359l-21.503,12.414l-9.95,5.745
	c-4.443,2.565-8.17,5.896-11.125,9.727c-5.391,6.987-8.197,15.642-7.985,24.398c0.015,0.602,0.044,1.204,0.088,1.807
	c0.401,5.585,2.036,11.165,5.018,16.33c3.228,5.591,7.802,10.19,13.174,13.477l-13.324,7.693l-3.204,1.85
	c-4.68-4.043-8.628-8.829-11.779-14.284c-3.123-5.41-5.271-11.197-6.442-17.15c-0.013-0.064-0.027-0.127-0.04-0.191
	c-1.481-7.67-1.316-15.614,0.541-23.405c0.123-0.514,0.236-1.03,0.373-1.542c2.547-9.504,7.451-17.964,14.197-24.766
	c0.054-0.055,0.107-0.11,0.162-0.164c3.422-3.421,7.305-6.425,11.607-8.909l19.238-11.107l11.313-6.532l0.514-0.296l28.048-16.193
	l30.46-17.585c8.588-4.958,18.117-7.49,27.774-7.49c4.84,0,9.714,0.637,14.514,1.923c14.378,3.853,26.396,13.073,33.84,25.966
	C491.851,303.342,493.829,318.36,489.977,332.738z"/>
<path d="M52.848,119.144h77.388c5.523,0,10-4.478,10-10c0-5.522-4.477-10-10-10H52.848c-5.523,0-10,4.478-10,10
	C42.849,114.666,47.326,119.144,52.848,119.144z"/>
<path d="M94.326,174.635c0-5.522-4.477-10-10-10H52.848c-5.523,0-10,4.478-10,10c0,5.522,4.477,10,10,10h31.478
	C89.848,184.634,94.326,180.157,94.326,174.635z"/>
<path d="M71.772,230.125H52.848c-5.523,0-10,4.478-10,10c0,5.522,4.477,10,10,10h18.923c5.523,0,10-4.478,10-10
	C81.771,234.602,77.294,230.125,71.772,230.125z"/>
<path d="M169.143,228.18c-0.55-0.359-1.13-0.67-1.73-0.92c-0.6-0.25-1.23-0.45-1.87-0.569c-1.29-0.261-2.62-0.261-3.91,0
	c-0.64,0.119-1.27,0.319-1.87,0.569c-0.6,0.25-1.18,0.561-1.73,0.92c-0.54,0.36-1.06,0.78-1.52,1.24c-1.86,1.86-2.92,4.44-2.92,7.07
	c0,0.649,0.06,1.31,0.19,1.95s0.32,1.27,0.57,1.869c0.25,0.61,0.56,1.19,0.92,1.73c0.36,0.55,0.78,1.06,1.24,1.52
	c0.46,0.46,0.98,0.881,1.52,1.24c0.55,0.36,1.13,0.67,1.73,0.92c0.6,0.25,1.23,0.44,1.87,0.57s1.3,0.2,1.95,0.2
	c2.64,0,5.22-1.07,7.07-2.931c0.47-0.46,0.88-0.97,1.25-1.52c0.36-0.54,0.67-1.12,0.92-1.73c0.25-0.6,0.44-1.229,0.57-1.869
	c0.13-0.641,0.19-1.301,0.19-1.95c0-2.63-1.06-5.21-2.92-7.07C170.203,228.961,169.683,228.541,169.143,228.18z"/>
<g>
</g>
<g>
</g>
<g>
</g>
<g>
</g>
<g>
</g>
<g>
</g>
<g>
</g>
<g>
</g>
<g>
</g>
<g>
</g>
<g>
</g>
<g>
</g>
<g>
</g>
<g>
</g>
<g>
</g>
</svg>
