<?xml version="1.0"?>
<svg xmlns="http://www.w3.org/2000/svg" height="512px" viewBox="0 0 480 480" width="512px" class=""><g><path d="m8 8h128v128h-128zm0 0" fill="#0052b4" data-original="#0052B4" class="" style="fill:#009FE9" data-old_color="#009fe9"/><path d="m176 8h128v128h-128zm0 0" fill="#0052b4" data-original="#0052B4" class="" style="fill:#009FE9" data-old_color="#009fe9"/><path d="m344 8h128v128h-128zm0 0" fill="#0052b4" data-original="#0052B4" class="" style="fill:#009FE9" data-old_color="#009fe9"/><path d="m8 176h128v128h-128zm0 0" fill="#0052b4" data-original="#0052B4" class="" style="fill:#009FE9" data-old_color="#009fe9"/><path d="m304 194.398438v-18.398438h-128v128h32.238281c3.6875-53.890625 42.851563-98.714844 95.761719-109.601562zm0 0" fill="#0052b4" data-original="#0052B4" class="" style="fill:#009FE9" data-old_color="#009fe9"/><path d="m376 202c-2.640625-1.121094-5.28125-2.160156-8-3.121094-7.78125-2.761718-15.820312-4.71875-24-5.839844-13.316406-1.75-26.832031-1.289062-40 1.359376-52.910156 10.886718-92.074219 55.710937-95.761719 109.601562-.160156 2.640625-.238281 5.28125-.238281 8-.042969 47.734375 28.238281 90.941406 72 110 7.714844 3.355469 15.757812 5.902344 24 7.601562 13.167969 2.648438 26.683594 3.109376 40 1.359376 8.179688-1.121094 16.21875-3.078126 24-5.839844 2.71875-.960938 5.359375-2 8-3.121094 19.011719-8.3125 35.546875-21.402344 48-38 15.515625-20.804688 23.929688-46.046875 24-72 0-2.71875-.078125-5.359375-.238281-8-3.023438-44.722656-30.6875-84.046875-71.761719-102zm24 126h-56v56h-32v-56h-56v-32h56v-56h32v56h56zm0 0" fill="#a0815c" data-original="#A0815C" class="" style="fill:#FFFFFF" data-old_color="#009FE9"/><path d="m344 240h-32v56h-56v32h56v56h32v-56h56v-32h-56zm0 0" fill="#ffda44" data-original="#FFDA44" class="active-path" style="fill:#4CAF50" data-old_color="#FFDA44"/><path d="m344 193.039062c8.179688 1.121094 16.21875 3.078126 24 5.839844 2.71875.960938 5.359375 2 8 3.121094 41.074219 17.953125 68.738281 57.277344 71.761719 102h24.238281v-128h-128zm0 0" fill="#0052b4" data-original="#0052B4" class="" style="fill:#009FE9" data-old_color="#009fe9"/><path d="m8 344h128v128h-128zm0 0" fill="#004496" data-original="#004496" class="" style="fill:#377FEA" data-old_color="#004496"/><path d="m212.320312 344h-36.320312v128h128v-42.398438c-8.242188-1.699218-16.285156-4.246093-24-7.601562-33.140625-14.503906-57.992188-43.148438-67.679688-78zm0 0" fill="#004496" data-original="#004496" class="" style="fill:#377FEA" data-old_color="#004496"/><path d="m376 422c-2.640625 1.121094-5.28125 2.160156-8 3.121094-7.78125 2.761718-15.820312 4.71875-24 5.839844v41.039062h128v-128h-28.398438c-3.921874 14.460938-10.574218 28.039062-19.601562 40-12.453125 16.597656-28.988281 29.6875-48 38zm0 0" fill="#004496" data-original="#004496" class="" style="fill:#377FEA" data-old_color="#004496"/><g fill="#231f20"><path d="m352 384v-48h48c4.417969 0 8-3.582031 8-8v-32c0-4.417969-3.582031-8-8-8h-48v-48c0-4.417969-3.582031-8-8-8h-32c-4.417969 0-8 3.582031-8 8v48h-48c-4.417969 0-8 3.582031-8 8v32c0 4.417969 3.582031 8 8 8h48v48c0 4.417969 3.582031 8 8 8h32c4.417969 0 8-3.582031 8-8zm-16-56v48h-16v-48c0-4.417969-3.582031-8-8-8h-48v-16h48c4.417969 0 8-3.582031 8-8v-48h16v48c0 4.417969 3.582031 8 8 8h48v16h-48c-4.417969 0-8 3.582031-8 8zm0 0" data-original="#000000" class=""/><path d="m136 0h-128c-4.417969 0-8 3.582031-8 8v128c0 4.417969 3.582031 8 8 8h128c4.417969 0 8-3.582031 8-8v-128c0-4.417969-3.582031-8-8-8zm-8 128h-112v-112h112zm0 0" data-original="#000000" class=""/><path d="m176 144h128c4.417969 0 8-3.582031 8-8v-128c0-4.417969-3.582031-8-8-8h-128c-4.417969 0-8 3.582031-8 8v128c0 4.417969 3.582031 8 8 8zm8-128h112v112h-112zm0 0" data-original="#000000" class=""/><path d="m472 0h-128c-4.417969 0-8 3.582031-8 8v128c0 4.417969 3.582031 8 8 8h128c4.417969 0 8-3.582031 8-8v-128c0-4.417969-3.582031-8-8-8zm-8 128h-112v-112h112zm0 0" data-original="#000000" class=""/><path d="m136 168h-128c-4.417969 0-8 3.582031-8 8v128c0 4.417969 3.582031 8 8 8h128c4.417969 0 8-3.582031 8-8v-128c0-4.417969-3.582031-8-8-8zm-8 128h-112v-112h112zm0 0" data-original="#000000" class=""/><path d="m472 168h-128c-4.417969 0-8 3.582031-8 8v8.40625c-2.65625-.167969-5.296875-.40625-8-.40625-5.351562.035156-10.695312.40625-16 1.113281v-9.113281c0-4.417969-3.582031-8-8-8h-128c-4.417969 0-8 3.582031-8 8v128c0 4.417969 3.582031 8 8 8h24c.019531 8.054688.800781 16.089844 2.335938 24h-26.335938c-4.417969 0-8 3.582031-8 8v128c0 4.417969 3.582031 8 8 8h128c4.417969 0 8-3.582031 8-8v-33.113281c5.304688.707031 10.648438 1.078125 16 1.113281 2.703125 0 5.34375-.238281 8-.40625v32.40625c0 4.417969 3.582031 8 8 8h128c4.417969 0 8-3.582031 8-8v-128c0-4.417969-3.582031-8-8-8h-18.335938c1.535157-7.910156 2.316407-15.945312 2.335938-24h16c4.417969 0 8-3.582031 8-8v-128c0-4.417969-3.582031-8-8-8zm-271.023438 128h-16.976562v-112h112v4c-1.070312.28125-2.097656.679688-3.199219.992188-1.9375.550781-3.847656 1.152343-5.753906 1.792968-2.105469.707032-4.183594 1.472656-6.238281 2.285156-1.808594.722657-3.585938 1.488282-5.351563 2.289063-2.097656.945313-4.160156 1.929687-6.191406 2.984375-1.601563.800781-3.203125 1.703125-4.746094 2.601562-2.105469 1.207032-4.175781 2.453126-6.199219 3.773438-1.390624.90625-2.746093 1.839844-4.097656 2.800781-2.070312 1.464844-4.109375 2.96875-6.09375 4.558594-1.21875.976563-2.402344 1.984375-3.570312 2.992187-1.964844 1.699219-3.894532 3.425782-5.757813 5.242188-1.121093 1.085938-2.191406 2.222656-3.273437 3.351562-1.75 1.839844-3.480469 3.6875-5.121094 5.601563-1.125 1.328125-2.183594 2.703125-3.253906 4.070313-1.433594 1.839843-2.855469 3.679687-4.191406 5.601562-1.199219 1.726562-2.3125 3.519531-3.433594 5.300781-.75 1.210938-1.597656 2.355469-2.320313 3.585938-.285156.503906-.511719 1.039062-.800781 1.542969-1.039062 1.855468-1.972656 3.761718-2.925781 5.664062-.953125 1.90625-1.96875 3.898438-2.847657 5.898438-.695312 1.597656-1.304687 3.261718-1.945312 4.910156-.894531 2.320312-1.800781 4.632812-2.566406 7-.496094 1.550781-.890625 3.144531-1.328125 4.726562-.695313 2.472656-1.386719 4.945313-1.929688 7.464844-.359375 1.679688-.605469 3.410156-.894531 5.113281-.304688 2-.746094 3.902344-.992188 5.855469zm95.023438 140v28h-112v-112h22.398438c.585937 1.785156 1.363281 3.472656 2.027343 5.214844.664063 1.746094 1.359375 3.738281 2.140625 5.546875 1.105469 2.558593 2.355469 5.023437 3.617188 7.484375.625 1.21875 1.207031 2.449218 1.871094 3.640625 1.519531 2.761719 3.203124 5.417969 4.890624 8.042969.527344.796874 1.03125 1.597656 1.597657 2.398437 1.890625 2.75 3.898437 5.40625 5.984375 8 .503906.617187.992187 1.230469 1.503906 1.832031 2.132812 2.574219 4.394531 5.0625 6.785156 7.464844.589844.597656 1.199219 1.191406 1.800782 1.78125 2.320312 2.265625 4.703124 4.457031 7.199218 6.539062.863282.726563 1.757813 1.40625 2.640625 2.109376 2.320313 1.839843 4.664063 3.648437 7.117188 5.328124 1.328125.921876 2.714843 1.746094 4.082031 2.617188 2.144531 1.359375 4.28125 2.726562 6.519531 4 1.921875 1.0625 3.929688 1.992188 5.902344 2.960938 1.601563.800781 3.144531 1.6875 4.800781 2.398437.320313.144531.65625.242187.984375.382813.730469.3125 1.488281.5625 2.226563.867187 2.8125 1.125 5.597656 2.175781 8.46875 3.101563 1.183594.386718 2.402344.738281 3.59375 1.089843 1.191406.351563 2.550781.824219 3.847656 1.199219zm7.527344-14.734375c-2.976563-.664063-5.953125-1.386719-8.941406-2.320313-1.035157-.328124-2.019532-.761718-3.042969-1.113281-2.527344-.878906-5.054688-1.769531-7.566407-2.832031-1.496093-.640625-2.921874-1.40625-4.375-2.113281-2.042968-.984375-4.082031-1.964844-6.050781-3.054688-1.808593-1.015625-3.550781-2.121093-5.304687-3.199219-1.40625-.898437-2.8125-1.792968-4.183594-2.738281-1.972656-1.386719-3.902344-2.832031-5.789062-4.335937-.949219-.757813-1.890626-1.53125-2.816407-2.328125-2.058593-1.742188-4.066406-3.542969-5.984375-5.4375-.601562-.585938-1.160156-1.191407-1.746094-1.792969-2.070312-2.136719-4.101562-4.3125-6-6.601562-.214843-.261719-.414062-.550782-.628906-.796876-5.753906-7.117187-10.613281-14.90625-14.472656-23.203124-.671875-1.445313-1.410156-2.855469-2.023438-4.335938-.699218-1.679688-1.265624-3.421875-1.882812-5.140625-.742188-2.074219-1.488281-4.136719-2.109375-6.257813-3.050781-10.277343-4.601563-20.941406-4.609375-31.664062 0-3.199219.214844-6.398438.480469-9.511719.199219-2.3125.519531-4.601562.855469-6.871093.257812-1.714844.457031-3.449219.800781-5.136719.488281-2.496094 1.144531-4.945313 1.800781-7.390625.375-1.417969.664062-2.867188 1.09375-4.257813 1.140625-3.683593 2.476562-7.304687 4-10.847656.472656-1.097656 1.046875-2.136719 1.554688-3.199219 1.222656-2.609375 2.492187-5.199218 3.925781-7.730468.703125-1.246094 1.480469-2.453126 2.230469-3.671876 1.195312-1.933593 2.402343-3.855468 3.722656-5.703124 1.023437-1.457032 2.101562-2.871094 3.199218-4.28125 1.097657-1.40625 2.351563-2.964844 3.582032-4.398438 1.234375-1.433594 2.625-2.96875 4-4.398438 1.179687-1.226562 2.402344-2.402343 3.617187-3.59375 1.503907-1.433593 3.023438-2.839843 4.609375-4.183593 1.246094-1.070313 2.550782-2.082031 3.847656-3.097657 1.640626-1.277343 3.289063-2.550781 5.007813-3.742187 1.390625-.96875 2.839844-1.847656 4.28125-2.753906 1.710937-1.078125 3.414063-2.175781 5.183594-3.160157 1.597656-.886718 3.285156-1.671874 4.941406-2.484374 1.65625-.816407 3.386719-1.722657 5.136719-2.480469 1.914062-.800781 3.890625-1.496094 5.847656-2.210938 1.601562-.582031 3.160156-1.246093 4.800781-1.757812 2.746094-.863281 5.601563-1.535157 8.382813-2.183594 14.425781-3.453125 29.410156-3.867187 44-1.21875 1.867187.320313 3.730468.640625 5.601562 1.058594 1.601563.351562 3.128906.800781 4.679688 1.207031 2.183594.601562 4.367187 1.214844 6.519531 1.945312 2.152344.726563 4.359375 1.511719 6.488281 2.398438.578125.230469 1.167969.449219 1.738282.679688 1.167968.503906 2.269531 1.113281 3.414062 1.648437 2.777344 1.296875 5.496094 2.679687 8.152344 4.199219 1.511718.871094 2.992187 1.785156 4.464844 2.714844 2.253906 1.4375 4.445312 2.972656 6.605468 4.574218 1.3125.976563 2.664063 1.910156 3.9375 2.945313 3.121094 2.523437 6.105469 5.214843 8.9375 8.0625 1.023438 1.03125 1.949219 2.152343 2.933594 3.199219 1.9375 2.113281 3.816406 4.273437 5.601562 6.527343 1.542969 1.960938 3.070313 3.929688 4.480469 5.992188.199219.296875.414063.585937.605469.875 3.824219 5.699219 7.117188 11.742187 9.832031 18.046875.234375.542968.449219 1.085937.671875 1.640625 1.117188 2.691406 2.125 5.441406 3.027344 8.246093.167969.519532.359375 1.039063.519531 1.601563 1.007813 3.261719 1.867188 6.589844 2.574219 9.984375.066406.3125.105469.640625.167969.949219.601562 3.035156 1.066406 6.121093 1.417969 9.234375.078124.734375.160156 1.480468.222656 2.222656.320312 3.417969.527344 6.855469.527344 10.351562-.019532 10.441407-1.507813 20.824219-4.414063 30.847657-.546875 1.953125-1.210937 3.855469-1.855469 5.777343-.625 1.792969-1.25 3.59375-1.960937 5.34375-.496094 1.222657-1.03125 2.398438-1.601563 3.632813-.96875 2.167969-1.984375 4.304687-3.085937 6.398437-.519531 1-1.074219 1.984376-1.601563 2.96875-1.199218 2.132813-2.460937 4.207032-3.785156 6.222657-.628906.96875-1.285156 1.921875-1.949219 2.875-1.21875 1.734375-2.496093 3.414062-3.800781 5.070312-1.777344 2.25-3.648438 4.398438-5.601562 6.496094-.992188 1.082031-1.917969 2.214844-2.953126 3.25-2.824218 2.820313-5.792968 5.492187-8.902343 8-1.3125 1.0625-2.695313 2.023437-4.046875 3.023437-2.097656 1.597657-4.234375 3.054688-6.402344 4.453126-1.519531.96875-3.046875 1.914062-4.605469 2.800781-2.5625 1.464843-5.191406 2.808593-7.863281 4.058593-1.21875.574219-2.402344 1.222657-3.640625 1.757813-.617187.257813-1.25.480469-1.875.726563-2.070313.84375-4.175781 1.601562-6.300781 2.3125-2.128906.714843-4.402344 1.378906-6.625 1.976562-1.535156.417969-3.074219.847656-4.640625 1.199219-1.855469.417969-3.71875.738281-5.601563 1.058593-14.371094 2.605469-29.128906 2.246094-43.359375-1.058593zm146.074218-69.265625h14.398438v112h-112v-26.246094c.359375-.074218.710938-.179687 1.0625-.25.992188-.199218 1.945312-.464844 2.929688-.679687 2.625-.601563 5.238281-1.257813 7.832031-2.023438 1.519531-.441406 3.015625-.914062 4.511719-1.417969.800781-.253906 1.601562-.453124 2.328124-.726562 1.855469-.648438 3.671876-1.410156 5.496094-2.136719.664063-.273437 1.34375-.503906 2.007813-.800781.34375-.144531.679687-.253906 1.023437-.398438 3.199219-1.410156 6.402344-2.992187 9.472656-4.664062l.734376-.410156c7.015624-3.84375 13.65625-8.339844 19.832031-13.421875l.355469-.296875c6.191406-5.136719 11.894531-10.84375 17.03125-17.039063l.292968-.375c1.179688-1.433593 2.402344-2.847656 3.488282-4.328125 1-1.335937 1.875-2.730468 2.816406-4.089844.472656-.6875.960937-1.367187 1.425781-2.0625 1.914063-2.871093 3.695313-5.804687 5.34375-8.800781.222656-.40625.472656-.800781.695313-1.214843 3.601562-6.585938 6.585937-13.484376 8.921874-20.617188zm14.398438-56h-8.976562c-.398438-3.199219-.945313-6.296875-1.597657-9.40625-.082031-.394531-.179687-.800781-.265625-1.167969-.753906-3.5625-1.660156-7.082031-2.71875-10.554687-.136718-.457032-.257812-.910156-.402344-1.367188-1.183593-3.734375-2.53125-7.40625-4.046874-11.023437-.105469-.257813-.222657-.496094-.328126-.753907-1.515624-3.527343-3.183593-6.996093-5.007812-10.398437-.082031-.160156-.160156-.320313-.25-.480469-1.933594-3.550781-4.039062-7.019531-6.316406-10.398437-1.203125-1.785157-2.402344-3.5625-3.707032-5.289063-1.125-1.496094-2.335937-2.929687-3.519531-4.375l-.222656-.273437c-5.132813-6.207031-10.839844-11.917969-17.039063-17.054688l-.394531-.335937c-6.132812-5.042969-12.722656-9.503906-19.679687-13.328125l-.96875-.535157c-3.085938-1.664062-6.222656-3.242187-9.445313-4.648437-.320312-.136719-.648437-.242187-.96875-.378906-.617187-.261719-1.265625-.476563-1.886719-.734375-1.859374-.742188-3.699218-1.511719-5.601562-2.175782-.800781-.28125-1.601562-.488281-2.398438-.761718-1.449218-.480469-2.914062-.941406-4.386718-1.375-2.625-.800782-5.253906-1.429688-7.902344-2.03125-.96875-.222656-1.921875-.480469-2.898438-.679688-.359374-.074218-.710937-.175781-1.070312-.25v-2.222656h112zm0 0" data-original="#000000" class=""/><path d="m136 336h-128c-4.417969 0-8 3.582031-8 8v128c0 4.417969 3.582031 8 8 8h128c4.417969 0 8-3.582031 8-8v-128c0-4.417969-3.582031-8-8-8zm-8 128h-112v-112h112zm0 0" data-original="#000000" class=""/></g></g> </svg>
