<?xml version="1.0" encoding="iso-8859-1"?>
<!-- Generator: Adobe Illustrator 19.0.0, SVG Export Plug-In . SVG Version: 6.00 Build 0)  -->
<svg version="1.1" id="Capa_1" xmlns="http://www.w3.org/2000/svg" xmlns:xlink="http://www.w3.org/1999/xlink" x="0px" y="0px"
	 viewBox="0 0 512 512" style="enable-background:new 0 0 512 512;" xml:space="preserve">
<path style="fill:#00E2F0;" d="M358.907,7.604v496.792h-47.651c-4.197,0-7.999-1.703-10.747-4.461
	c-2.758-2.748-4.461-6.55-4.461-10.747L116.594,357.386H50.693c-17.915,0-32.444-14.529-32.444-32.444V187.057
	c0-17.915,14.529-32.444,32.444-32.444h65.901L296.048,22.812c0-8.395,6.813-15.208,15.208-15.208H358.907z"/>
<path style="fill:#077FD5;" d="M296.048,489.188L296.048,489.188c0,8.399,6.809,15.208,15.208,15.208h47.651V7.604h-47.651
	c-8.399,0-15.208,6.809-15.208,15.208l0,0V489.188z"/>
<path style="fill:#00C6DA;" d="M358.907,190.859v-84.536c-82.457,1.622-149.038,69.206-149.038,152.049
	s66.58,150.427,149.038,152.049v-84.526c-1.47-0.061-2.94-0.172-4.4-0.335l4.4-4.4V201.677l-64.137,64.137
	c-0.274-2.464-0.416-4.948-0.416-7.442C294.354,222.117,323.047,192.451,358.907,190.859z"/>
<path style="fill:#FFFFFF;" d="M170.774,164.798l-9.002-12.258l12.863-9.447l9.002,12.258L170.774,164.798z M195.894,146.349
	l-9.002-12.258l58.017-42.612l9.002,12.258L195.894,146.349z"/>
<path style="fill:#00C6DA;" d="M296.048,447.62L116.594,315.818H50.693c-17.918,0-32.444-14.526-32.444-32.444v41.568
	c0,17.918,14.526,32.444,32.444,32.444h65.901l179.453,131.802c0,8.399,6.809,15.208,15.208,15.208h47.651v-41.568h-47.651
	C302.857,462.828,296.048,456.019,296.048,447.62z"/>
<path style="fill:#077FD5;" d="M116.594,154.614H50.693c-17.918,0-32.444,14.526-32.444,32.444v137.885
	c0,17.918,14.526,32.444,32.444,32.444h65.901V154.614z"/>
<g>
	<path style="fill:#0053C0;" d="M50.693,315.818c-17.918,0-32.444-14.526-32.444-32.444v41.568
		c0,17.918,14.526,32.444,32.444,32.444h65.901v-41.568H50.693z"/>
	<path style="fill:#0053C0;" d="M296.048,447.62v41.568c0,8.399,6.809,15.208,15.208,15.208h47.651v-41.568h-47.651
		C302.857,462.828,296.048,456.019,296.048,447.62z"/>
	<path style="fill:#0053C0;" d="M296.048,121.331v274.092c19.089,9.216,40.385,14.551,62.859,14.994v-304.08
		C336.433,106.78,315.137,112.115,296.048,121.331z"/>
</g>
<path style="fill:#E2324E;" d="M361.949,126.576c-72.792,0-131.802,59.01-131.802,131.802s59.01,131.802,131.802,131.802
	s131.802-59.01,131.802-131.802S434.741,126.576,361.949,126.576z M274.08,258.378c0-48.528,39.34-87.868,87.868-87.868
	c16.295,0,31.55,4.441,44.631,12.17L286.251,303.009C278.522,289.928,274.08,274.672,274.08,258.378z M361.949,346.246
	c-16.295,0-31.55-4.441-44.631-12.17l120.329-120.329c7.73,13.082,12.17,28.336,12.17,44.631
	C449.817,306.906,410.477,346.246,361.949,346.246z"/>
<rect x="288.444" y="60.713" width="15.208" height="35.485"/>
<path d="M351.303,496.792h-40.048c-4.193,0-7.604-3.411-7.604-7.604v-3.85v-64.782h-15.208v53.613L124.198,353.538V189.085H108.99
	v160.697H50.693c-13.697,0-24.84-11.142-24.84-24.84V187.057c0-13.697,11.142-24.84,24.84-24.84h68.393L303.651,26.662v-3.85
	c0-4.193,3.411-7.604,7.604-7.604h40.048v80.99h15.208V0h-55.255c-11.171,0-20.492,8.071-22.439,18.689L114.102,147.01H50.693
	c-22.082,0-40.048,17.966-40.048,40.048v137.885c0,22.082,17.966,40.048,40.048,40.048h63.409l174.715,128.321
	C290.763,503.929,300.085,512,311.255,512h55.255v-91.443h-15.208V496.792z"/>
<path d="M361.949,118.972c-76.868,0-139.406,62.538-139.406,139.406s62.538,139.406,139.406,139.406s139.406-62.538,139.406-139.406
	S438.816,118.972,361.949,118.972z M361.949,382.576c-68.483,0-124.198-55.715-124.198-124.198s55.715-124.198,124.198-124.198
	s124.198,55.715,124.198,124.198S430.432,382.576,361.949,382.576z"/>
<path d="M444.193,209.878l-4.988-8.444L305.006,335.633l8.442,4.989c14.644,8.653,31.415,13.228,48.5,13.228
	c52.644,0,95.472-42.829,95.472-95.472C457.421,241.296,452.846,224.526,444.193,209.878z M361.949,338.642
	c-11.006,0-21.857-2.257-31.863-6.582l105.545-105.544c4.326,10.007,6.582,20.856,6.582,31.862
	C442.213,302.635,406.207,338.642,361.949,338.642z"/>
<path d="M410.449,176.134c-14.644-8.653-31.415-13.228-48.5-13.228c-52.644,0-95.472,42.829-95.472,95.471
	c0,17.083,4.575,33.854,13.228,48.5l4.988,8.443l134.199-134.198L410.449,176.134z M288.266,290.239
	c-4.326-10.007-6.582-20.856-6.582-31.863c0-44.257,36.006-80.263,80.264-80.263c11.006,0,21.857,2.257,31.863,6.582
	L288.266,290.239z"/>
<g>
</g>
<g>
</g>
<g>
</g>
<g>
</g>
<g>
</g>
<g>
</g>
<g>
</g>
<g>
</g>
<g>
</g>
<g>
</g>
<g>
</g>
<g>
</g>
<g>
</g>
<g>
</g>
<g>
</g>
</svg>
