<?xml version="1.0"?>
<svg xmlns="http://www.w3.org/2000/svg" xmlns:xlink="http://www.w3.org/1999/xlink" version="1.1" id="Capa_1" x="0px" y="0px" viewBox="0 0 512 512" style="enable-background:new 0 0 512 512;" xml:space="preserve" width="512px" height="512px"><g><g>
	<g>
		<g>
			<path d="M469.333,0H42.667c-14.138,0-25.6,11.461-25.6,25.6v460.8c0,14.138,11.461,25.6,25.6,25.6h426.667     c14.138,0,25.6-11.461,25.6-25.6V25.6C494.933,11.461,483.472,0,469.333,0z M477.867,486.4c0,4.713-3.821,8.533-8.533,8.533     H42.667c-4.713,0-8.533-3.82-8.533-8.533V25.6c0-4.713,3.82-8.533,8.533-8.533h426.667c4.713,0,8.533,3.82,8.533,8.533V486.4z" data-original="#000000" class="active-path" data-old_color="#D4CACA" fill="#FFFFFF"/>
			<path d="M443.733,34.133H68.267c-9.426,0-17.067,7.641-17.067,17.067v315.733c0,9.426,7.641,17.067,17.067,17.067h375.467     c9.426,0,17.067-7.641,17.067-17.067V51.2C460.8,41.774,453.159,34.133,443.733,34.133z M443.733,366.933H68.267v-76.8h375.467     V366.933z M443.733,273.067H305.92c-4.776-10.746-7.247-22.374-7.253-34.133c0.052-47.107,38.226-85.282,85.333-85.333     c22.381-0.096,43.877,8.73,59.733,24.525V273.067z M443.733,155.742c-17.372-12.571-38.29-19.297-59.733-19.209     c-33.259-0.053-64.466,16.075-83.66,43.237c-19.194,27.162-23.975,61.964-12.818,93.296H68.267V51.2h375.467V155.742z" data-original="#000000" class="active-path" data-old_color="#D4CACA" fill="#FFFFFF"/>
			<path d="M298.667,409.6h-230.4c-4.713,0-8.533,3.82-8.533,8.533s3.82,8.533,8.533,8.533h230.4c4.713,0,8.533-3.82,8.533-8.533     S303.38,409.6,298.667,409.6z" data-original="#000000" class="active-path" data-old_color="#D4CACA" fill="#FFFFFF"/>
			<path d="M162.133,452.267H68.267c-4.713,0-8.533,3.821-8.533,8.533s3.82,8.533,8.533,8.533h93.867     c4.713,0,8.533-3.82,8.533-8.533S166.846,452.267,162.133,452.267z" data-original="#000000" class="active-path" data-old_color="#D4CACA" fill="#FFFFFF"/>
			<path d="M204.8,452.267h-8.533c-4.713,0-8.533,3.821-8.533,8.533s3.82,8.533,8.533,8.533h8.533c4.713,0,8.533-3.82,8.533-8.533     S209.513,452.267,204.8,452.267z" data-original="#000000" class="active-path" data-old_color="#D4CACA" fill="#FFFFFF"/>
			<path d="M93.867,324.267h51.2c4.713,0,8.533-3.82,8.533-8.533s-3.82-8.533-8.533-8.533h-51.2c-4.713,0-8.533,3.82-8.533,8.533     S89.154,324.267,93.867,324.267z" data-original="#000000" class="active-path" data-old_color="#D4CACA" fill="#FFFFFF"/>
			<path d="M179.2,349.867h51.2c4.713,0,8.533-3.82,8.533-8.533s-3.821-8.533-8.533-8.533h-51.2c-4.713,0-8.533,3.821-8.533,8.533     S174.487,349.867,179.2,349.867z" data-original="#000000" class="active-path" data-old_color="#D4CACA" fill="#FFFFFF"/>
			<path d="M264.533,324.267h51.2c4.713,0,8.533-3.82,8.533-8.533s-3.82-8.533-8.533-8.533h-51.2c-4.713,0-8.533,3.82-8.533,8.533     S259.821,324.267,264.533,324.267z" data-original="#000000" class="active-path" data-old_color="#D4CACA" fill="#FFFFFF"/>
			<path d="M358.4,349.867h51.2c4.713,0,8.533-3.82,8.533-8.533s-3.821-8.533-8.533-8.533h-51.2c-4.713,0-8.533,3.821-8.533,8.533     S353.687,349.867,358.4,349.867z" data-original="#000000" class="active-path" data-old_color="#D4CACA" fill="#FFFFFF"/>
			<path d="M102.4,102.4c4.612-0.299,9.129,1.402,12.397,4.67c3.268,3.268,4.969,7.785,4.67,12.397c0,4.713,3.82,8.533,8.533,8.533     s8.533-3.82,8.533-8.533c-0.292-4.619,1.419-9.14,4.696-12.408c3.278-3.268,7.804-4.965,12.422-4.659     c4.713-0.014,8.522-3.846,8.508-8.559s-3.846-8.522-8.559-8.508c-9.631,0.034-18.848,3.918-25.6,10.786     c-6.752-6.868-15.969-10.752-25.6-10.786c-4.713,0-8.533,3.821-8.533,8.533C93.867,98.579,97.687,102.4,102.4,102.4z" data-original="#000000" class="active-path" data-old_color="#D4CACA" fill="#FFFFFF"/>
			<path d="M213.333,145.067c4.612-0.299,9.129,1.402,12.397,4.67c3.268,3.268,4.969,7.785,4.67,12.397     c0,4.713,3.82,8.533,8.533,8.533s8.533-3.82,8.533-8.533c-0.292-4.619,1.419-9.14,4.696-12.408s7.804-4.965,12.422-4.659     c4.713-0.014,8.522-3.846,8.508-8.559c-0.014-4.713-3.846-8.522-8.559-8.508c-9.631,0.034-18.848,3.918-25.6,10.786     c-6.752-6.868-15.969-10.752-25.6-10.786c-4.713,0-8.533,3.82-8.533,8.533S208.62,145.067,213.333,145.067z" data-original="#000000" class="active-path" data-old_color="#D4CACA" fill="#FFFFFF"/>
		</g>
	</g>
</g></g> </svg>
