<?xml version="1.0"?>
<svg xmlns="http://www.w3.org/2000/svg" xmlns:xlink="http://www.w3.org/1999/xlink" version="1.1" id="Capa_1" x="0px" y="0px" viewBox="0 0 511.999 511.999" style="enable-background:new 0 0 511.999 511.999;" xml:space="preserve" width="512px" height="512px" class=""><g><path style="fill:#377FEA" d="M421.641,175.641L341.281,256h44.747c0,71.758-58.379,130.137-130.137,130.137  c-30.424,0-58.44-10.497-80.624-28.056l-51.937,51.937c36.855,31.82,83.374,49.178,132.561,49.178  c54.275,0,105.303-21.136,143.681-59.515c38.379-38.378,59.515-89.406,59.515-143.681H502L421.641,175.641z" data-original="#C4FFB6" class="active-path" data-old_color="#C4FFB6"/><path d="M255.891,469.197c-51.151,0-100.549-18.328-139.096-51.609c-2.104-1.816-3.356-4.426-3.458-7.203s0.957-5.472,2.922-7.438  l51.937-51.937c3.589-3.588,9.298-3.922,13.277-0.77c21.405,16.941,47.138,25.896,74.418,25.896  c62.875,0,114.625-48.555,119.725-110.137h-34.335c-4.044,0-7.691-2.437-9.239-6.173c-1.548-3.737-0.692-8.038,2.167-10.898  l80.36-80.359c3.905-3.904,10.237-3.904,14.142,0l80.359,80.359c2.86,2.86,3.716,7.161,2.168,10.898  C509.691,263.564,506.045,266,502,266h-33.142c-2.44,53.191-24.314,102.853-62.215,140.752  C366.377,447.02,312.839,469.197,255.891,469.197z M138.225,409.265c33.559,25.822,74.934,39.932,117.666,39.932  c51.605,0,100.121-20.096,136.61-56.587c36.49-36.488,56.586-85.004,56.586-136.609c0-5.522,4.477-10,10-10h18.771l-56.217-56.217  L365.423,246h20.605c5.523,0,10,4.478,10,10c0,77.271-62.865,140.137-140.137,140.137c-28.837,0-56.192-8.575-79.652-24.886  L138.225,409.265z" data-original="#000000" class=""/><path style="fill:#009EE8" d="M256.109,52.804c-54.275,0-105.303,21.136-143.681,59.515C74.049,150.698,52.913,201.725,52.913,256  H10l80.36,80.36L170.72,256h-44.747c0-71.758,58.379-130.137,130.137-130.137c30.424,0,58.44,10.497,80.624,28.056l51.937-51.937  C351.815,70.163,305.296,52.804,256.109,52.804z" data-original="#A0E892" class="" data-old_color="#009ee8"/><path d="M90.36,346.36c-2.559,0-5.119-0.977-7.071-2.929L2.93,263.072c-2.86-2.86-3.716-7.161-2.168-10.898  C2.309,248.437,5.956,246,10,246h33.142c2.44-53.191,24.314-102.853,62.215-140.752c8.521-8.521,17.777-16.353,27.511-23.275  c4.501-3.2,10.745-2.146,13.945,2.354c3.201,4.501,2.147,10.744-2.354,13.945c-8.828,6.278-17.226,13.384-24.96,21.119  C83.009,155.879,62.913,204.395,62.913,256c0,5.522-4.477,10-10,10H34.142l56.217,56.217L146.577,266h-20.605  c-5.523,0-10-4.478-10-10c0-77.271,62.865-140.137,140.137-140.137c28.837,0,56.192,8.575,79.653,24.886l38.013-38.014  c-33.559-25.822-74.934-39.932-117.666-39.932c-14.316,0-28.578,1.559-42.388,4.633c-5.392,1.2-10.734-2.197-11.934-7.588  c-1.2-5.391,2.197-10.733,7.588-11.934c15.234-3.392,30.958-5.111,46.733-5.111c51.151,0,100.549,18.328,139.096,51.609  c2.104,1.816,3.356,4.426,3.458,7.203s-0.957,5.472-2.922,7.438l-51.936,51.937c-3.589,3.589-9.297,3.921-13.277,0.77  c-21.405-16.941-47.139-25.896-74.418-25.896c-62.875,0-114.625,48.555-119.725,110.137h34.335c4.044,0,7.691,2.437,9.239,6.173  c1.548,3.737,0.692,8.038-2.167,10.898l-80.36,80.359C95.478,345.383,92.919,346.36,90.36,346.36z" data-original="#000000" class=""/><path d="M174.733,79.697c-3.853,0-7.524-2.24-9.167-5.996c-2.213-5.06,0.095-10.956,5.155-13.169l0.848-0.368  c5.075-2.18,10.955,0.171,13.133,5.246s-0.171,10.955-5.246,13.133l-0.72,0.313C177.43,79.426,176.071,79.697,174.733,79.697z" data-original="#000000" class=""/><path d="M370.85,391.097c-2.567,0-5.134-0.982-7.088-2.946c-3.896-3.914-3.881-10.246,0.034-14.142l0.289-0.288  c3.905-3.904,10.237-3.904,14.143,0c3.905,3.905,3.905,10.237,0,14.143l-0.323,0.321  C375.953,390.126,373.401,391.097,370.85,391.097z" data-original="#000000" class=""/><path d="M257.469,437.883c-5.523,0-10-4.478-10-10s4.477-10,10-10c29.237,0,57.511-8.31,81.766-24.031  c4.634-3.002,10.826-1.683,13.831,2.952c3.004,4.635,1.682,10.827-2.953,13.831C322.611,428.461,290.575,437.883,257.469,437.883z" data-original="#000000" class=""/></g> </svg>
