<?xml version="1.0"?>
<svg xmlns="http://www.w3.org/2000/svg" xmlns:xlink="http://www.w3.org/1999/xlink" version="1.1" id="Capa_1" x="0px" y="0px" viewBox="0 0 512 512" style="enable-background:new 0 0 512 512;" xml:space="preserve" width="512px" height="512px" class=""><g><circle style="fill:#FFFFFF;" cx="256" cy="256" r="246" data-original="#FFFFFF" class=""/><g>
	<path style="fill:#009EE8" d="M256,84c-94.993,0-172,77.007-172,172c0,47.497,19.252,90.498,50.379,121.624l38.186-38.181   C151.209,318.088,138,288.587,138,256c0-65.17,52.83-118,118-118" data-original="#FF5A5A" class="" data-old_color="#009ee8"/>
	<path style="fill:#009EE8" d="M339.437,172.559C360.792,193.913,374,223.414,374,256c0,65.17-52.83,118-118,118v54   c94.993,0,172-77.007,172-172c0-47.496-19.251-90.495-50.376-121.621L339.437,172.559z" data-original="#FF5A5A" class="" data-old_color="#009ee8"/>
	<polygon style="fill:#009EE8" points="256,51.733 315,111 256,170.267  " data-original="#FF5A5A" class="" data-old_color="#009ee8"/>
	<polygon style="fill:#009EE8" points="256,460.242 197,400.975 256,341.708  " data-original="#FF5A5A" class="" data-old_color="#009ee8"/>
</g><path d="M256,512c-68.38,0-132.667-26.629-181.019-74.98C26.628,388.667,0,324.38,0,256S26.628,123.333,74.981,74.98  C123.333,26.629,187.62,0,256,0s132.667,26.629,181.019,74.98C485.372,123.333,512,187.62,512,256s-26.628,132.667-74.981,181.02  C388.667,485.371,324.38,512,256,512z M256,20C125.869,20,20,125.869,20,256s105.869,236,236,236s236-105.869,236-236  S386.131,20,256,20z" data-original="#000000" class="active-path" style="fill:#000000"/><path d="M134.377,144.378c-2.568,0-5.135-0.983-7.089-2.947c-3.895-3.915-3.879-10.247,0.037-14.143l0.263-0.263  c3.905-3.904,10.237-3.904,14.143,0c3.905,3.905,3.905,10.237,0,14.143l-0.3,0.3C139.479,143.408,136.928,144.378,134.377,144.378z" data-original="#000000" class="active-path" style="fill:#000000"/><path d="M377.289,387.955c-2.566,0-5.133-0.981-7.086-2.944c-3.897-3.914-3.883-10.246,0.031-14.143l0.332-0.331  c3.914-3.896,10.246-3.883,14.142,0.031c3.897,3.914,3.883,10.246-0.031,14.143l-0.332,0.331  C382.394,386.984,379.841,387.955,377.289,387.955z" data-original="#000000" class="active-path" style="fill:#000000"/><path d="M322.087,103.945l-59-59.267c-2.857-2.871-7.163-3.734-10.903-2.188c-3.742,1.545-6.184,5.194-6.184,9.243v22.541  c-31.304,1.705-61.52,11.402-87.942,28.302c-4.653,2.976-6.012,9.16-3.036,13.813c1.909,2.983,5.136,4.612,8.434,4.612  c1.844,0,3.71-0.51,5.379-1.577c23.199-14.839,49.694-23.416,77.166-25.098v34.063C180.076,133.507,128,188.786,128,256  c0,30.837,10.831,60.01,30.693,83.172l-24.101,24.098C108.342,333.641,94,295.924,94,256c0-31.082,8.823-61.272,25.516-87.309  c2.981-4.649,1.628-10.835-3.021-13.815c-4.648-2.982-10.834-1.627-13.816,3.021C83.917,187.161,74,221.084,74,256  c0,48.614,18.932,94.319,53.308,128.695c1.953,1.952,4.511,2.929,7.071,2.929c2.559,0,5.118-0.977,7.071-2.929l38.187-38.182  c1.875-1.875,2.929-4.419,2.929-7.071s-1.054-5.196-2.929-7.071C159.235,311.973,148,284.851,148,256  c0-56.18,43.12-102.47,98-107.533v21.799c0,4.049,2.441,7.698,6.184,9.243c1.234,0.51,2.53,0.757,3.814,0.757  c2.61,0,5.175-1.021,7.089-2.945l59-59.267C325.971,114.153,325.971,107.847,322.087,103.945z M266,146.047V75.953L300.89,111  L266,146.047z" data-original="#000000" class="active-path" style="fill:#000000"/><path d="M384.695,127.308c-3.904-3.903-10.236-3.904-14.142,0l-38.188,38.181c-1.876,1.875-2.93,4.419-2.93,7.071  s1.054,5.196,2.929,7.071C352.765,200.029,364,227.151,364,256c0,56.18-43.12,102.47-98,107.533v-21.825  c0-4.049-2.441-7.698-6.184-9.243c-3.741-1.544-8.046-0.683-10.903,2.188l-59,59.267c-3.884,3.901-3.884,10.208,0,14.109l59,59.268  c1.914,1.924,4.479,2.945,7.089,2.945c1.285,0,2.58-0.247,3.814-0.757c3.742-1.545,6.184-5.194,6.184-9.243v-22.541  c29.772-1.63,58.681-10.491,84.158-25.921c4.724-2.861,6.234-9.01,3.373-13.734c-2.861-4.724-9.009-6.232-13.734-3.373  c-22.354,13.538-47.681,21.415-73.796,23.021v-34.08c65.924-5.117,118-60.398,118-127.613c0-30.836-10.831-60.008-30.691-83.17  l24.101-24.097C403.659,178.362,418,216.078,418,256c0,29.705-8.108,58.751-23.447,83.996c-2.868,4.72-1.367,10.87,3.353,13.738  c4.72,2.869,10.871,1.367,13.739-3.354C428.887,322.006,438,289.369,438,256C438,207.387,419.069,161.684,384.695,127.308z   M246,436.022l-34.89-35.048L246,365.928V436.022z" data-original="#000000" class="active-path" style="fill:#000000"/></g> </svg>
