<?xml version="1.0"?>
<svg xmlns="http://www.w3.org/2000/svg" xmlns:xlink="http://www.w3.org/1999/xlink" version="1.1" id="Capa_1" x="0px" y="0px" viewBox="0 0 512 512" style="enable-background:new 0 0 512 512;" xml:space="preserve" width="512px" height="512px" class=""><g><polygon style="fill:#377FEA" points="187,89.623 187,10.623 64,133.623 187,256.623 187,177.623 414,177.623 414,256.623   502,256.623 502,89.623 " data-original="#8CCEEA" class="active-path" data-old_color="#8CCEEA"/><polygon style="fill:#009EE8" points="212.333,422.377 325,422.377 325,501.377 448,378.377 325,255.377 325,334.377 98,334.377   98,255.377 10,255.377 10,422.377 130.333,422.377 " data-original="#39B8EA" class="" data-old_color="#009ee8"/><path d="M187.002,266.623c-2.603,0-5.16-1.016-7.073-2.929l-123-123c-3.905-3.905-3.905-10.237,0-14.143l123-123  c2.861-2.86,7.163-3.715,10.898-2.167C194.563,2.932,197,6.579,197,10.623v69h305c5.523,0,10,4.477,10,10v167  c0,5.522-4.477,10-10,10h-88c-5.523,0-10-4.478-10-10v-69H197v69c0,4.045-2.437,7.691-6.173,9.238  C189.59,266.374,188.29,266.623,187.002,266.623z M424,246.623h68v-147H187c-5.523,0-10-4.477-10-10V34.765l-98.858,98.858  L177,232.481v-54.858c0-5.523,4.477-10,10-10h227c5.523,0,10,4.477,10,10V246.623z" data-original="#000000" class="" style="fill:#000000"/><path d="M324.998,511.377c-1.289,0-2.587-0.249-3.825-0.762c-3.737-1.547-6.173-5.193-6.173-9.238v-69H212.333  c-5.523,0-10-4.478-10-10s4.477-10,10-10H325c5.523,0,10,4.478,10,10v54.857l98.858-98.857L335,279.52v54.857  c0,5.522-4.477,10-10,10H98c-5.523,0-10-4.478-10-10v-69H20v147h110.333c5.523,0,10,4.478,10,10s-4.477,10-10,10H10  c-5.523,0-10-4.478-10-10v-167c0-5.523,4.477-10,10-10h88c5.523,0,10,4.477,10,10v69h207v-69c0-4.044,2.437-7.691,6.173-9.239  c3.735-1.547,8.038-0.693,10.898,2.167l123,123c3.905,3.905,3.905,10.237,0,14.143l-123,123  C330.158,510.361,327.6,511.377,324.998,511.377z" data-original="#000000" class="" style="fill:#000000"/><path d="M171.333,432.377h-0.5c-5.523,0-10-4.478-10-10s4.477-10,10-10h0.5c5.523,0,10,4.478,10,10S176.856,432.377,171.333,432.377  z" data-original="#000000" class="" style="fill:#000000"/><path d="M363.31,135.457H255.968c-5.523,0-10-4.477-10-10c0-5.523,4.477-10,10-10H363.31c5.523,0,10,4.477,10,10  C373.31,130.98,368.833,135.457,363.31,135.457z" data-original="#000000" class="" style="fill:#000000"/><path d="M395.968,135.457h-0.13c-5.523,0-10-4.477-10-10c0-5.523,4.477-10,10-10h0.13c5.523,0,10,4.477,10,10  C405.968,130.98,401.491,135.457,395.968,135.457z" data-original="#000000" class="" style="fill:#000000"/></g> </svg>
