<svg height="512pt" viewBox="0 0 512.00003 512" width="512pt" xmlns="http://www.w3.org/2000/svg"><path d="m307.199219 195.941406v-85.332031h34.132812c3.386719 0 6.449219-2 7.8125-5.097656 1.363281-3.097657.765625-6.710938-1.523437-9.203125l-85.332032-85.335938c-1.617187-1.761718-3.898437-2.765625-6.289062-2.765625s-4.671875 1.003907-6.289062 2.765625l-85.332032 85.335938c-2.289062 2.492187-2.886718 6.105468-1.523437 9.203125 1.363281 3.097656 4.425781 5.097656 7.8125 5.097656h34.132812v85.332031zm0 0" fill="#8bc34a"/><path d="m25.601562 178.875h460.796876c9.425781 0 17.066406 7.640625 17.066406 17.066406v290.132813c0 9.425781-7.640625 17.066406-17.066406 17.066406h-460.796876c-9.425781 0-17.066406-7.640625-17.066406-17.066406v-290.132813c0-9.425781 7.640625-17.066406 17.066406-17.066406zm0 0" fill="#37474f"/><path d="m25.601562 178.875h435.199219c9.425781 0 17.066407 7.640625 17.066407 17.066406v290.132813c0 9.425781-7.640626 17.066406-17.066407 17.066406h-435.199219c-9.425781 0-17.066406-7.640625-17.066406-17.066406v-290.132813c0-9.425781 7.640625-17.066406 17.066406-17.066406zm0 0" fill="#607d8b"/><path d="m153.601562 255.675781h204.796876c9.425781 0 17.066406 7.640625 17.066406 17.066407v136.535156c0 9.425781-7.640625 17.066406-17.066406 17.066406h-204.796876c-9.425781 0-17.066406-7.640625-17.066406-17.066406v-136.535156c0-9.425782 7.640625-17.066407 17.066406-17.066407zm0 0" fill="#9e9e9e"/><path d="m153.601562 255.675781h179.199219c9.425781 0 17.066407 7.640625 17.066407 17.066407v136.535156c0 9.425781-7.640626 17.066406-17.066407 17.066406h-179.199219c-9.425781 0-17.066406-7.640625-17.066406-17.066406v-136.535156c0-9.425782 7.640625-17.066407 17.066406-17.066407zm0 0" fill="#f5f5f5"/><path d="m503.464844 255.675781v170.667969h-68.265625c-9.414063-.03125-17.039063-7.652344-17.066407-17.066406v-136.535156c.027344-9.414063 7.652344-17.039063 17.066407-17.066407zm0 0" fill="#9e9e9e"/><path d="m477.867188 255.675781v170.667969h-42.667969c-9.414063-.03125-17.039063-7.652344-17.066407-17.066406v-136.535156c.027344-9.414063 7.652344-17.039063 17.066407-17.066407zm0 0" fill="#f5f5f5"/><path d="m93.867188 272.742188v136.535156c-.027344 9.414062-7.652344 17.035156-17.066407 17.066406h-68.265625v-170.667969h68.265625c9.414063.027344 17.039063 7.652344 17.066407 17.066407zm0 0" fill="#9e9e9e"/><path d="m68.265625 272.742188v136.535156c-.027344 9.414062-7.652344 17.035156-17.066406 17.066406h-42.664063v-170.667969h42.664063c9.414062.027344 17.039062 7.652344 17.066406 17.066407zm0 0" fill="#f5f5f5"/><path d="m213.332031 306.175781v69.667969c.027344 6.039062 3.367188 11.582031 8.703125 14.421875 5.332032 2.839844 11.792969 2.519531 16.820313-.828125l52.5-34.835938c4.5625-3.015624 7.3125-8.121093 7.3125-13.59375 0-5.472656-2.75-10.578124-7.3125-13.59375l-52.5-34.832031c-5.027344-3.351562-11.488281-3.667969-16.820313-.828125-5.335937 2.839844-8.675781 8.378906-8.703125 14.421875zm0 0" fill="#f44335"/><path d="m296.105469 320.308594-52.496094-34.84375c-7.652344-5.101563-17.488281-5.585938-25.601563-1.253906-8.113281 4.328124-13.1875 12.769531-13.207031 21.964843v69.667969c.023438 9.183594 5.097657 17.613281 13.199219 21.9375 8.101562 4.328125 17.929688 3.851562 25.574219-1.238281l52.53125-34.824219c6.949219-4.597656 11.125-12.375 11.125-20.707031 0-8.328125-4.175781-16.105469-11.125-20.703125zm-9.472657 27.1875-52.496093 34.832031c-2.421875 1.660156-5.574219 1.804687-8.140625.375-2.542969-1.324219-4.136719-3.957031-4.128906-6.828125v-69.699219c-.007813-2.867187 1.585937-5.5 4.128906-6.828125 1.175781-.640625 2.488281-.984375 3.824218-1.003906 1.542969.007812 3.046876.480469 4.316407 1.355469l52.496093 34.824219c2.1875 1.433593 3.503907 3.871093 3.503907 6.484374 0 2.613282-1.316407 5.050782-3.503907 6.488282zm0 0"/><path d="m486.398438 170.34375h-170.664063v-51.203125h25.597656c6.835938 0 13.007813-4.078125 15.691407-10.363281 2.683593-6.285156 1.359374-13.566406-3.367188-18.503906l-85.078125-85.066407c-6.851563-6.839843-17.90625-6.957031-24.898437-.265625l-85.582032 85.597656c-4.574218 4.988282-5.773437 12.207032-3.046875 18.402344 2.722657 6.195313 8.847657 10.199219 15.617188 10.199219h25.597656v51.203125h-170.664063c-14.140624 0-25.601562 11.460938-25.601562 25.597656v290.132813c0 14.140625 11.460938 25.601562 25.601562 25.601562h460.796876c14.140624 0 25.601562-11.460937 25.601562-25.601562v-290.132813c0-14.136718-11.460938-25.597656-25.601562-25.597656zm8.535156 247.464844h-59.734375c-4.710938 0-8.53125-3.820313-8.53125-8.53125v-136.535156c0-4.710938 3.820312-8.53125 8.53125-8.53125h59.734375zm-290.132813-315.734375-34.375.265625 85.832031-85.332032 85.074219 85.066407h-34.132812c-4.710938 0-8.53125 3.820312-8.53125 8.535156v59.734375h-85.335938v-59.734375c0-4.714844-3.820312-8.535156-8.53125-8.535156zm-187.734375 162.136719h59.734375c4.710938 0 8.53125 3.820312 8.53125 8.53125v136.535156c0 4.710937-3.820312 8.53125-8.53125 8.53125h-59.734375zm469.332032 230.398437h-460.796876c-4.714843 0-8.535156-3.820313-8.535156-8.535156v-51.199219h59.734375c14.136719 0 25.597657-11.460938 25.597657-25.597656v-136.535156c0-14.136719-11.460938-25.601563-25.597657-25.601563h-59.734375v-51.199219c0-4.710937 3.820313-8.53125 8.535156-8.53125h460.796876c4.714843 0 8.535156 3.820313 8.535156 8.53125v51.199219h-59.734375c-14.136719 0-25.597657 11.464844-25.597657 25.601563v136.535156c0 14.136718 11.460938 25.597656 25.597657 25.597656h59.734375v51.199219c0 4.714843-3.820313 8.535156-8.535156 8.535156zm0 0"/><path d="m384 272.742188c0-14.136719-11.460938-25.601563-25.601562-25.601563h-204.796876c-14.140624 0-25.601562 11.464844-25.601562 25.601563v136.535156c0 14.136718 11.460938 25.597656 25.601562 25.597656h204.796876c14.140624 0 25.601562-11.460938 25.601562-25.597656zm-17.066406 136.535156c0 4.710937-3.820313 8.53125-8.535156 8.53125h-204.796876c-4.714843 0-8.535156-3.820313-8.535156-8.53125v-136.535156c0-4.710938 3.820313-8.53125 8.535156-8.53125h204.796876c4.714843 0 8.535156 3.820312 8.535156 8.53125zm0 0"/><path d="m290.132812 230.074219c4.714844 0 8.535157-3.820313 8.535157-8.53125v-8.535157c0-4.710937-3.820313-8.53125-8.535157-8.53125-4.710937 0-8.53125 3.820313-8.53125 8.53125v8.535157c0 4.710937 3.820313 8.53125 8.53125 8.53125zm0 0"/><path d="m256 230.074219c4.710938 0 8.535156-3.820313 8.535156-8.53125v-8.535157c0-4.710937-3.824218-8.53125-8.535156-8.53125s-8.535156 3.820313-8.535156 8.53125v8.535157c0 4.710937 3.824218 8.53125 8.535156 8.53125zm0 0"/><path d="m221.867188 230.074219c4.710937 0 8.53125-3.820313 8.53125-8.53125v-8.535157c0-4.710937-3.820313-8.53125-8.53125-8.53125-4.714844 0-8.535157 3.820313-8.535157 8.53125v8.535157c0 4.710937 3.820313 8.53125 8.535157 8.53125zm0 0"/><path d="m187.734375 230.074219c4.710937 0 8.53125-3.820313 8.53125-8.53125v-8.535157c0-4.710937-3.820313-8.53125-8.53125-8.53125-4.714844 0-8.535156 3.820313-8.535156 8.53125v8.535157c0 4.710937 3.820312 8.53125 8.535156 8.53125zm0 0"/><path d="m153.601562 230.074219c4.710938 0 8.53125-3.820313 8.53125-8.53125v-8.535157c0-4.710937-3.820312-8.53125-8.53125-8.53125-4.714843 0-8.535156 3.820313-8.535156 8.53125v8.535157c0 4.710937 3.820313 8.53125 8.535156 8.53125zm0 0"/><path d="m119.464844 230.074219c4.714844 0 8.535156-3.820313 8.535156-8.53125v-8.535157c0-4.710937-3.820312-8.53125-8.535156-8.53125-4.710938 0-8.53125 3.820313-8.53125 8.53125v8.535157c0 4.710937 3.820312 8.53125 8.53125 8.53125zm0 0"/><path d="m85.332031 204.476562c-4.710937 0-8.53125 3.820313-8.53125 8.53125v8.535157c0 4.710937 3.820313 8.53125 8.53125 8.53125 4.714844 0 8.535157-3.820313 8.535157-8.53125v-8.535157c0-4.710937-3.820313-8.53125-8.535157-8.53125zm0 0"/><path d="m51.199219 204.476562c-4.710938 0-8.53125 3.820313-8.53125 8.53125v8.535157c0 4.710937 3.820312 8.53125 8.53125 8.53125 4.714843 0 8.535156-3.820313 8.535156-8.53125v-8.535157c0-4.710937-3.820313-8.53125-8.535156-8.53125zm0 0"/><path d="m460.800781 230.074219c4.710938 0 8.53125-3.820313 8.53125-8.53125v-8.535157c0-4.710937-3.820312-8.53125-8.53125-8.53125-4.714843 0-8.535156 3.820313-8.535156 8.53125v8.535157c0 4.710937 3.820313 8.53125 8.535156 8.53125zm0 0"/><path d="m426.667969 230.074219c4.710937 0 8.53125-3.820313 8.53125-8.53125v-8.535157c0-4.710937-3.820313-8.53125-8.53125-8.53125-4.714844 0-8.535157 3.820313-8.535157 8.53125v8.535157c0 4.710937 3.820313 8.53125 8.535157 8.53125zm0 0"/><path d="m392.535156 204.476562c-4.714844 0-8.535156 3.820313-8.535156 8.53125v8.535157c0 4.710937 3.820312 8.53125 8.535156 8.53125 4.710938 0 8.53125-3.820313 8.53125-8.53125v-8.535157c0-4.710937-3.820312-8.53125-8.53125-8.53125zm0 0"/><path d="m358.398438 230.074219c4.714843 0 8.535156-3.820313 8.535156-8.53125v-8.535157c0-4.710937-3.820313-8.53125-8.535156-8.53125-4.710938 0-8.53125 3.820313-8.53125 8.53125v8.535157c0 4.710937 3.820312 8.53125 8.53125 8.53125zm0 0"/><path d="m324.265625 230.074219c4.714844 0 8.535156-3.820313 8.535156-8.53125v-8.535157c0-4.710937-3.820312-8.53125-8.535156-8.53125-4.710937 0-8.53125 3.820313-8.53125 8.53125v8.535157c0 4.710937 3.820313 8.53125 8.53125 8.53125zm0 0"/><path d="m290.132812 451.941406c-4.710937 0-8.53125 3.820313-8.53125 8.535156v8.53125c0 4.714844 3.820313 8.535157 8.53125 8.535157 4.714844 0 8.535157-3.820313 8.535157-8.535157v-8.53125c0-4.714843-3.820313-8.535156-8.535157-8.535156zm0 0"/><path d="m256 451.941406c-4.710938 0-8.535156 3.820313-8.535156 8.535156v8.53125c0 4.714844 3.824218 8.535157 8.535156 8.535157s8.535156-3.820313 8.535156-8.535157v-8.53125c0-4.714843-3.824218-8.535156-8.535156-8.535156zm0 0"/><path d="m221.867188 451.941406c-4.714844 0-8.535157 3.820313-8.535157 8.535156v8.53125c0 4.714844 3.820313 8.535157 8.535157 8.535157 4.710937 0 8.53125-3.820313 8.53125-8.535157v-8.53125c0-4.714843-3.820313-8.535156-8.53125-8.535156zm0 0"/><path d="m187.734375 451.941406c-4.714844 0-8.535156 3.820313-8.535156 8.535156v8.53125c0 4.714844 3.820312 8.535157 8.535156 8.535157 4.710937 0 8.53125-3.820313 8.53125-8.535157v-8.53125c0-4.714843-3.820313-8.535156-8.53125-8.535156zm0 0"/><path d="m153.601562 451.941406c-4.714843 0-8.535156 3.820313-8.535156 8.535156v8.53125c0 4.714844 3.820313 8.535157 8.535156 8.535157 4.710938 0 8.53125-3.820313 8.53125-8.535157v-8.53125c0-4.714843-3.820312-8.535156-8.53125-8.535156zm0 0"/><path d="m119.464844 451.941406c-4.710938 0-8.53125 3.820313-8.53125 8.535156v8.53125c0 4.714844 3.820312 8.535157 8.53125 8.535157 4.714844 0 8.535156-3.820313 8.535156-8.535157v-8.53125c0-4.714843-3.820312-8.535156-8.535156-8.535156zm0 0"/><path d="m85.332031 451.941406c-4.710937 0-8.53125 3.820313-8.53125 8.535156v8.53125c0 4.714844 3.820313 8.535157 8.53125 8.535157 4.714844 0 8.535157-3.820313 8.535157-8.535157v-8.53125c0-4.714843-3.820313-8.535156-8.535157-8.535156zm0 0"/><path d="m51.199219 451.941406c-4.710938 0-8.53125 3.820313-8.53125 8.535156v8.53125c0 4.714844 3.820312 8.535157 8.53125 8.535157 4.714843 0 8.535156-3.820313 8.535156-8.535157v-8.53125c0-4.714843-3.820313-8.535156-8.535156-8.535156zm0 0"/><path d="m460.800781 451.941406c-4.714843 0-8.535156 3.820313-8.535156 8.535156v8.53125c0 4.714844 3.820313 8.535157 8.535156 8.535157 4.710938 0 8.53125-3.820313 8.53125-8.535157v-8.53125c0-4.714843-3.820312-8.535156-8.53125-8.535156zm0 0"/><path d="m426.667969 451.941406c-4.714844 0-8.535157 3.820313-8.535157 8.535156v8.53125c0 4.714844 3.820313 8.535157 8.535157 8.535157 4.710937 0 8.53125-3.820313 8.53125-8.535157v-8.53125c0-4.714843-3.820313-8.535156-8.53125-8.535156zm0 0"/><path d="m392.535156 451.941406c-4.714844 0-8.535156 3.820313-8.535156 8.535156v8.53125c0 4.714844 3.820312 8.535157 8.535156 8.535157 4.710938 0 8.53125-3.820313 8.53125-8.535157v-8.53125c0-4.714843-3.820312-8.535156-8.53125-8.535156zm0 0"/><path d="m358.398438 451.941406c-4.710938 0-8.53125 3.820313-8.53125 8.535156v8.53125c0 4.714844 3.820312 8.535157 8.53125 8.535157 4.714843 0 8.535156-3.820313 8.535156-8.535157v-8.53125c0-4.714843-3.820313-8.535156-8.535156-8.535156zm0 0"/><path d="m324.265625 451.941406c-4.710937 0-8.53125 3.820313-8.53125 8.535156v8.53125c0 4.714844 3.820313 8.535157 8.53125 8.535157 4.714844 0 8.535156-3.820313 8.535156-8.535157v-8.53125c0-4.714843-3.820312-8.535156-8.535156-8.535156zm0 0"/></svg>