<?xml version="1.0" encoding="iso-8859-1"?>
<!-- Generator: Adobe Illustrator 19.0.0, SVG Export Plug-In . SVG Version: 6.00 Build 0)  -->
<svg version="1.1" id="Capa_1" xmlns="http://www.w3.org/2000/svg" xmlns:xlink="http://www.w3.org/1999/xlink" x="0px" y="0px"
	 viewBox="0 0 511.978 511.978" style="enable-background:new 0 0 511.978 511.978;" xml:space="preserve">
<path style="fill:#00E2F0;" d="M286.253,24.524L286.253,24.524L107.55,155.775H41.924c-17.843,0-32.308,14.465-32.308,32.308
	v137.309c0,17.843,14.465,32.308,32.308,32.308h65.626l178.704,131.251l0,0c0,8.364,6.781,15.144,15.144,15.144h47.452V9.379
	h-47.452C293.034,9.379,286.253,16.159,286.253,24.524z"/>
<path style="fill:#FFFFFF;" d="M161.504,165.915l-8.965-12.206l12.809-9.408l8.964,12.206L161.504,165.915z M186.517,147.543
	l-8.964-12.206l57.775-42.434l8.964,12.206L186.517,147.543z"/>
<path style="fill:#00C6DA;" d="M286.253,447.556L107.55,316.305H41.924c-17.843,0-32.308-14.465-32.308-32.308v41.395
	c0,17.843,14.465,32.308,32.308,32.308h65.626l178.704,131.251c0,8.364,6.781,15.144,15.144,15.144h47.452v-41.395h-47.452
	C293.034,462.701,286.253,455.92,286.253,447.556z"/>
<path style="fill:#077FD5;" d="M107.55,155.775H41.924c-17.843,0-32.308,14.465-32.308,32.308v137.309
	c0,17.843,14.465,32.308,32.308,32.308h65.626V155.775z"/>
<path style="fill:#0053C0;" d="M41.924,316.305c-17.843,0-32.308-14.465-32.308-32.308v41.395c0,17.843,14.465,32.308,32.308,32.308
	h65.626v-41.395H41.924z"/>
<path style="fill:#077FD5;" d="M286.253,488.951L286.253,488.951c0,8.364,6.781,15.144,15.144,15.144h47.452V9.379h-47.452
	c-8.364,0-15.144,6.781-15.144,15.144l0,0V488.951z"/>
<path style="fill:#0053C0;" d="M286.253,447.556v41.395c0,8.364,6.781,15.144,15.144,15.144h47.452v-41.395h-47.452
	C293.034,462.701,286.253,455.92,286.253,447.556z"/>
<path d="M279.053,20.416L105.068,148.203H41.924c-21.99,0-39.88,17.891-39.88,39.88v137.309c0,21.99,17.891,39.88,39.88,39.88
	h63.144l173.986,127.785c1.939,10.573,11.221,18.61,22.345,18.61h55.025V1.807h-55.025C290.275,1.807,280.992,9.844,279.053,20.416z
	 M341.278,496.523h-39.88c-4.176,0-7.572-3.396-7.572-7.572v-3.834V89.139h-15.144v384.855L115.122,353.866V190.102H99.977v160.026
	H41.924c-13.639,0-24.736-11.097-24.736-24.736V188.083c0-13.639,11.097-24.736,24.736-24.736h68.107L293.825,28.356v-3.833
	c0-4.176,3.396-7.572,7.572-7.572h39.88V496.523z"/>
<rect x="309.983" y="309.743" width="15.144" height="15.144"/>
<rect x="309.983" y="279.454" width="15.144" height="15.144"/>
<rect x="309.983" y="218.876" width="15.144" height="15.144"/>
<rect x="309.983" y="188.588" width="15.144" height="15.144"/>
<rect x="309.983" y="249.165" width="15.144" height="15.144"/>
<rect x="390.272" y="68.889" transform="matrix(-0.5447 -0.8386 0.8386 -0.5447 550.4339 451.7519)" width="15.144" height="15.144"/>
<rect x="491.875" y="2.903" transform="matrix(-0.5447 -0.8386 0.8386 -0.5447 762.7183 435.0272)" width="15.144" height="15.144"/>
<rect x="415.67" y="52.392" transform="matrix(-0.5447 -0.8386 0.8386 -0.5447 603.5013 447.5673)" width="15.144" height="15.144"/>
<rect x="441.072" y="35.892" transform="matrix(-0.5447 -0.8386 0.8386 -0.5447 656.5759 443.3821)" width="15.144" height="15.144"/>
<rect x="466.496" y="19.408" transform="matrix(0.5447 0.8386 -0.8386 0.5447 238.462 -385.2801)" width="15.144" height="15.144"/>
<rect x="441.069" y="127.766" transform="matrix(-0.5447 -0.8386 0.8386 -0.5447 579.5247 585.2983)" width="15.144" height="15.144"/>
<rect x="390.27" y="160.763" transform="matrix(-0.5447 -0.8386 0.8386 -0.5447 473.3827 593.6681)" width="15.144" height="15.144"/>
<rect x="466.501" y="111.284" transform="matrix(0.5447 0.8386 -0.8386 0.5447 315.514 -343.4544)" width="15.144" height="15.144"/>
<rect x="491.887" y="94.783" transform="matrix(0.5447 0.8386 -0.8386 0.5447 313.2342 -372.2563)" width="15.144" height="15.144"/>
<rect x="415.669" y="144.264" transform="matrix(-0.5447 -0.8386 0.8386 -0.5447 526.4537 589.4832)" width="15.144" height="15.144"/>
<rect x="464.237" y="477.432" transform="matrix(0.8386 0.5448 -0.5448 0.8386 340.3844 -178.743)" width="15.145" height="15.145"/>
<rect x="438.806" y="460.97" transform="matrix(0.8386 0.5447 -0.5447 0.8386 327.2571 -167.5358)" width="15.144" height="15.144"/>
<rect x="489.632" y="493.93" transform="matrix(0.8386 0.5448 -0.5448 0.8386 353.4713 -189.9148)" width="15.145" height="15.145"/>
<rect x="387.995" y="427.973" transform="matrix(0.8386 0.5447 -0.5447 0.8386 301.0836 -145.1835)" width="15.144" height="15.144"/>
<rect x="413.404" y="444.465" transform="matrix(0.8386 0.5447 -0.5447 0.8386 314.1671 -156.3627)" width="15.144" height="15.144"/>
<rect x="464.23" y="385.559" transform="matrix(0.8386 0.5448 -0.5448 0.8386 290.3322 -193.5698)" width="15.145" height="15.145"/>
<rect x="489.625" y="402.057" transform="matrix(0.8386 0.5448 -0.5448 0.8386 303.4191 -204.7415)" width="15.145" height="15.145"/>
<rect x="413.406" y="352.591" transform="matrix(0.8386 0.5447 -0.5447 0.8386 264.1228 -171.1903)" width="15.144" height="15.144"/>
<rect x="438.808" y="369.097" transform="matrix(0.8386 0.5447 -0.5447 0.8386 277.2129 -182.3634)" width="15.144" height="15.144"/>
<rect x="387.997" y="336.1" transform="matrix(0.8386 0.5447 -0.5447 0.8386 251.0393 -160.0111)" width="15.144" height="15.144"/>
<rect x="488.194" y="251.1" transform="matrix(-1 -0.0093 0.0093 -1 989.1069 521.9438)" width="15.145" height="15.145"/>
<rect x="457.905" y="250.817" transform="matrix(-1 -0.0093 0.0093 -1 928.5326 521.0967)" width="15.145" height="15.145"/>
<rect x="427.571" y="250.519" transform="matrix(1 0.0093 -0.0093 1 2.419 -4.0355)" width="15.145" height="15.145"/>
<rect x="397.289" y="250.235" transform="matrix(1 0.0093 -0.0093 1 2.415 -3.7539)" width="15.145" height="15.145"/>
<g>
</g>
<g>
</g>
<g>
</g>
<g>
</g>
<g>
</g>
<g>
</g>
<g>
</g>
<g>
</g>
<g>
</g>
<g>
</g>
<g>
</g>
<g>
</g>
<g>
</g>
<g>
</g>
<g>
</g>
</svg>
