<?xml version="1.0" encoding="iso-8859-1"?>
<!-- Generator: Adobe Illustrator 19.0.0, SVG Export Plug-In . SVG Version: 6.00 Build 0)  -->
<svg version="1.1" id="Layer_1" xmlns="http://www.w3.org/2000/svg" xmlns:xlink="http://www.w3.org/1999/xlink" x="0px" y="0px"
	 viewBox="0 0 512 512" style="enable-background:new 0 0 512 512;" xml:space="preserve">
<path style="fill:#E35336;" d="M435.574,444.125H76.426c-37.781,0-68.409-30.628-68.409-68.409V136.284
	c0-37.781,30.628-68.409,68.409-68.409h359.148c37.781,0,68.409,30.628,68.409,68.409v239.432
	C503.983,413.497,473.355,444.125,435.574,444.125z"/>
<path style="fill:#D93C1C;" d="M469.779,409.921H93.528c-28.336,0-51.307-22.971-51.307-51.307V102.079
	c0-10.036,2.178-19.558,6.061-28.144C24.544,84.668,8.017,108.539,8.017,136.284v239.432c0,37.781,30.628,68.409,68.409,68.409
	h359.148c27.745,0,51.616-16.527,62.349-40.265C489.336,407.742,479.815,409.921,469.779,409.921z"/>
<polygon style="fill:#FFFFFF;" points="358.614,256 187.591,367.165 187.591,144.835 "/>
<polygon style="fill:#E5E5E5;" points="213.244,161.51 187.591,144.835 187.591,367.165 213.244,350.49 "/>
<path d="M435.574,59.858H76.426C34.285,59.858,0,94.143,0,136.284v171.023c0,4.427,3.589,8.017,8.017,8.017s8.017-3.589,8.017-8.017
	V136.284c0-33.3,27.092-60.392,60.392-60.392h359.148c33.3,0,60.392,27.092,60.392,60.392v239.432
	c0,33.3-27.092,60.392-60.392,60.392H76.426c-33.3,0-60.392-27.092-60.392-60.392v-34.205c0-4.427-3.589-8.017-8.017-8.017
	S0,337.084,0,341.511v34.205c0,42.141,34.285,76.426,76.426,76.426h359.148c42.141,0,76.426-34.285,76.426-76.426V136.284
	C512,94.143,477.715,59.858,435.574,59.858z"/>
<path d="M294.386,223.813c3.711,2.411,8.678,1.359,11.09-2.353c2.414-3.712,1.36-8.677-2.353-11.091l-111.165-72.256
	c-5.24-3.407-12.384,0.491-12.384,6.721v222.33c0,6.226,7.142,10.131,12.385,6.721l171.023-111.165
	c4.779-3.106,4.778-10.336,0-13.443l-34.205-22.233c-3.712-2.412-8.677-1.359-11.091,2.353c-2.412,3.712-1.36,8.677,2.353,11.091
	l23.864,15.511l-148.296,96.394V159.607L294.386,223.813z"/>
<g>
</g>
<g>
</g>
<g>
</g>
<g>
</g>
<g>
</g>
<g>
</g>
<g>
</g>
<g>
</g>
<g>
</g>
<g>
</g>
<g>
</g>
<g>
</g>
<g>
</g>
<g>
</g>
<g>
</g>
</svg>
