<?xml version="1.0" encoding="iso-8859-1"?>
<!-- Generator: Adobe Illustrator 19.0.0, SVG Export Plug-In . SVG Version: 6.00 Build 0)  -->
<svg version="1.1" id="Capa_1" xmlns="http://www.w3.org/2000/svg" xmlns:xlink="http://www.w3.org/1999/xlink" x="0px" y="0px"
	 viewBox="0 0 512.003 512.003" style="enable-background:new 0 0 512.003 512.003;" xml:space="preserve">
<path style="fill:#F8E47C;" d="M127.415,307.973c-35.297,0-71.265-12.015-106.318-35.812c-14.187-9.633-17.878-28.941-8.247-43.127
	c9.63-14.187,28.936-17.879,43.127-8.247c38.05,25.836,73.137,31.712,107.271,17.977c15.909-6.406,33.993,1.305,40.393,17.211
	c6.402,15.907-1.304,33.992-17.211,40.393C167.177,304.118,147.401,307.973,127.415,307.973z"/>
<path style="opacity:0.2;fill:#C97B00;enable-background:new    ;" d="M127.415,307.973c19.985,0,39.761-3.855,59.016-11.605
	c15.907-6.402,23.613-24.486,17.211-40.393c-6.4-15.906-24.484-23.617-40.393-17.211c-27.03,10.877-54.659,9.443-83.883-4.449
	c-1.337,16.637-5.292,46.875-22.524,57.901C80.354,302.695,104.032,307.973,127.415,307.973z"/>
<path style="fill:#F8E47C;" d="M384.589,307.973c-19.988,0-39.756-3.853-59.016-11.605c-15.907-6.402-23.613-24.486-17.211-40.393
	c6.402-15.907,24.49-23.613,40.393-17.211c34.137,13.738,69.225,7.858,107.271-17.977c14.19-9.631,33.496-5.936,43.126,8.247
	c9.631,14.187,5.939,33.494-8.247,43.127C455.858,295.958,419.881,307.973,384.589,307.973z"/>
<path style="opacity:0.2;fill:#C97B00;enable-background:new    ;" d="M475.71,281.701c-28.442,0.864-45.543-27.731-41.268-48.252
	c-29.89,14.701-58.099,16.417-85.687,5.315c-15.903-6.402-33.992,1.304-40.393,17.211c-6.402,15.907,1.304,33.992,17.211,40.393
	c19.259,7.751,39.027,11.605,59.016,11.605C414.797,307.973,445.509,299.161,475.71,281.701z"/>
<path style="fill:#F8E47C;" d="M21.779,422.876L21.779,422.876c-8.388,7.326-2.455,21.103,8.632,20.041l17.939-1.718
	c23.968-2.296,47.693,6.344,64.571,23.516l0,0c9.307,9.469,23.426,12.344,35.694,7.269l16.172-6.689
	c23.54-9.738,50.568-5.25,69.7,11.571l0,0c12.304,10.819,30.728,10.819,43.031,0l0,0c19.131-16.821,46.16-21.307,69.7-11.571
	l16.172,6.689c12.268,5.074,26.388,2.199,35.694-7.269l0,0c16.878-17.172,40.602-25.813,64.571-23.516l17.939,1.718
	c11.087,1.062,17.02-12.716,8.632-20.041l0,0c-41.393-36.15-67.369-86.781-72.588-141.488l-11.219-117.585
	c-7.4-77.538-72.527-136.747-150.417-136.747l0,0c-77.89,0-143.016,59.208-150.415,136.746l-11.22,117.585
	C89.148,336.095,63.173,386.726,21.779,422.876z"/>
<g>
	<ellipse style="fill:#E38892;" cx="177.412" cy="220.295" rx="28.997" ry="23.091"/>
	<ellipse style="fill:#E38892;" cx="334.592" cy="220.295" rx="28.997" ry="23.091"/>
</g>
<path style="fill:#495059;" d="M256.002,223.562L256.002,223.562c-11.603,0-21.008-9.406-21.008-21.008V187.28
	c0-3.167,2.567-5.735,5.735-5.735h30.547c3.167,0,5.735,2.568,5.735,5.735v15.274C277.01,214.157,267.605,223.562,256.002,223.562z"
	/>
<path style="opacity:0.1;fill:#C97B00;enable-background:new    ;" d="M206.411,35.404c-54.416,18.91-95.072,68.111-100.824,128.399
	l-11.22,117.584c-5.22,54.708-31.196,105.339-72.589,141.488l0,0c-8.388,7.325-2.455,21.103,8.632,20.041l17.939-1.718
	c23.968-2.296,47.693,6.345,64.571,23.516l0,0c9.307,9.469,23.426,12.344,35.694,7.269l16.172-6.689
	c23.54-9.738,50.568-5.25,69.7,11.571l0,0c12.304,10.819,30.728,10.819,43.031,0l0,0c10.965-9.641,24.525-15.221,38.535-16.403
	C135.897,304.081,146.259,108.427,206.411,35.404z"/>
<path d="M174.762,180.585v12.446c0,4.143,3.357,7.5,7.5,7.5s7.5-3.357,7.5-7.5v-12.446c0-4.143-3.357-7.5-7.5-7.5
	C178.119,173.084,174.762,176.442,174.762,180.585z M79.338,436.519c-10.345-2.872-21.008-3.809-31.704-2.786l-17.938,1.719
	c-2.6,0.254-3.672-1.579-4.016-2.376c-0.343-0.797-0.93-2.836,1.033-4.55c43.019-37.569,69.697-89.571,75.12-146.426l3.797-39.799
	c0.003-0.032,0.007-0.064,0.009-0.096l7.412-77.69c3.4-35.639,19.861-68.529,46.353-92.611
	c26.49-24.082,60.796-37.346,96.597-37.346c29.572,0,57.987,8.933,82.176,25.831c3.396,2.372,8.07,1.543,10.444-1.854
	c2.372-3.395,1.542-8.071-1.854-10.444C320.047,29.423,288.66,19.556,256,19.556c-39.541,0-77.431,14.648-106.688,41.247
	c-29.258,26.599-47.439,62.925-51.194,102.287l-6.519,68.331c-10.202-3.95-20.73-9.588-31.411-16.84
	c-17.588-11.94-41.607-7.345-53.544,10.239c-11.939,17.585-7.345,41.606,10.24,53.546c21.369,14.508,43.293,24.865,65.275,30.881
	c-9.932,41.729-32.532,79.35-65.315,107.979c-6.322,5.522-8.263,14.071-4.942,21.781c3.32,7.711,10.862,12.174,19.224,11.376
	l17.938-1.719c8.855-0.849,17.691-0.071,26.26,2.308c0.672,0.186,1.347,0.275,2.011,0.275c3.285,0,6.301-2.176,7.223-5.495
	C85.666,441.761,83.329,437.627,79.338,436.519z M25.311,265.956c-10.742-7.293-13.549-21.967-6.255-32.71
	c7.291-10.74,21.964-13.545,32.708-6.253c12.975,8.809,25.851,15.474,38.362,19.876l-3.225,33.806
	c-0.443,4.647-1.048,9.258-1.793,13.829C65.06,288.886,44.981,279.31,25.311,265.956z M240.728,174.046
	c-7.298,0-13.235,5.937-13.235,13.235v15.274c0,15.721,12.789,28.51,28.509,28.51s28.509-12.789,28.509-28.51V187.28
	c0-7.298-5.936-13.235-13.235-13.235H240.728z M269.51,202.554c0,7.448-6.059,13.509-13.508,13.509
	c-7.447,0-13.508-6.06-13.508-13.509v-13.508h27.016V202.554z M495.159,417.227c-32.782-28.63-55.382-66.249-65.314-107.978
	c21.982-6.015,43.906-16.374,65.274-30.882c17.585-11.94,22.179-35.96,10.241-53.544c-5.783-8.521-14.537-14.277-24.649-16.211
	c-10.115-1.935-20.374,0.186-28.897,5.97c-10.68,7.251-21.207,12.889-31.41,16.839l-6.52-68.332
	c-3.236-33.921-16.936-65.255-39.614-90.613c-2.763-3.086-7.504-3.353-10.592-0.591c-3.087,2.762-3.352,7.503-0.591,10.592
	c20.531,22.956,32.934,51.325,35.864,82.038l7.412,77.69c0.003,0.032,0.006,0.064,0.009,0.096l3.797,39.799
	c5.423,56.854,32.103,108.856,75.12,146.427c1.963,1.713,1.376,3.752,1.033,4.549c-0.344,0.797-1.402,2.625-4.016,2.376
	l-17.939-1.719c-26.349-2.524-52.087,6.853-70.634,25.727c-7.2,7.324-17.985,9.521-27.48,5.595l-16.171-6.688
	c-26.376-10.91-56.08-5.982-77.52,12.868c-9.443,8.302-23.684,8.302-33.127,0c-21.437-18.849-51.142-23.777-77.519-12.868
	l-16.172,6.688c-9.495,3.927-20.278,1.73-27.48-5.596c-1.61-1.638-3.3-3.226-5.023-4.723c-3.125-2.714-7.863-2.383-10.581,0.746
	c-2.716,3.127-2.382,7.864,0.746,10.581c1.427,1.239,2.826,2.555,4.16,3.911c11.506,11.708,28.742,15.219,43.91,8.943l16.173-6.689
	c21.054-8.711,44.767-4.774,61.88,10.272c7.544,6.633,17.007,9.95,26.469,9.95c9.462,0,18.924-3.316,26.469-9.95
	c17.113-15.047,40.823-18.981,61.881-10.272l16.172,6.689c15.169,6.272,32.403,2.764,43.91-8.943
	c15.363-15.629,36.689-23.395,58.505-21.308l17.94,1.719c8.37,0.796,15.903-3.665,19.223-11.376
	C503.422,431.298,501.481,422.748,495.159,417.227z M425.103,280.675l-3.225-33.805c12.515-4.403,25.391-11.069,38.361-19.876
	c5.207-3.532,11.475-4.827,17.652-3.646c6.177,1.181,11.524,4.697,15.057,9.902c7.293,10.742,4.486,25.414-6.255,32.708
	c-19.668,13.353-39.747,22.929-59.796,28.55C426.151,289.933,425.546,285.322,425.103,280.675z M322.241,180.585v12.446
	c0,4.143,3.357,7.5,7.5,7.5c4.142,0,7.5-3.357,7.5-7.5v-12.446c0-4.143-3.358-7.5-7.5-7.5
	C325.599,173.084,322.241,176.442,322.241,180.585z"/>
<g>
</g>
<g>
</g>
<g>
</g>
<g>
</g>
<g>
</g>
<g>
</g>
<g>
</g>
<g>
</g>
<g>
</g>
<g>
</g>
<g>
</g>
<g>
</g>
<g>
</g>
<g>
</g>
<g>
</g>
</svg>
