<?xml version="1.0" encoding="iso-8859-1"?>
<!-- Generator: Adobe Illustrator 19.0.0, SVG Export Plug-In . SVG Version: 6.00 Build 0)  -->
<svg version="1.1" id="Capa_1" xmlns="http://www.w3.org/2000/svg" xmlns:xlink="http://www.w3.org/1999/xlink" x="0px" y="0px"
	 viewBox="0 0 512 512" style="enable-background:new 0 0 512 512;" xml:space="preserve">
<circle style="fill:#7F9AE6;" cx="201.958" cy="471.106" r="33.395"/>
<circle style="fill:#BBE0F1;" cx="201.958" cy="471.106" r="7.254"/>
<circle style="fill:#7F9AE6;" cx="382.336" cy="471.106" r="33.395"/>
<circle style="fill:#BBE0F1;" cx="382.336" cy="471.106" r="7.254"/>
<path style="fill:#6B7BAB;" d="M454.162,441.971H154.203c-13.168,0-25.131-6.708-31.999-17.944
	c-6.869-11.234-7.385-24.938-1.382-36.659l47.266-92.284c6.293-12.289,21.359-17.149,33.649-10.855
	c12.29,6.294,17.15,21.36,10.855,33.649l-37.947,74.09h279.516c13.808,0,25.001,11.194,25.001,25.001
	C479.162,430.779,467.969,441.971,454.162,441.971z"/>
<path style="opacity:0.2;fill:#254A74;enable-background:new    ;" d="M174.646,391.97l37.947-74.09
	c6.295-12.289,1.435-27.355-10.855-33.649c-12.29-6.294-27.356-1.434-33.649,10.855l-47.266,92.284
	c-6.003,11.721-5.487,25.424,1.382,36.659c6.868,11.236,18.831,17.944,31.999,17.944H304.16
	c-20.942-11.552-22.539-37.518-13.648-50.003L174.646,391.97L174.646,391.97z"/>
<path style="fill:#BBE0F1;" d="M461.852,313.873l-300.38,15.535c-11.129,0.576-20.991-7.111-23.15-18.043L99.736,116.068
	c-2.829-14.321,8.565-27.483,23.143-26.734l360.35,18.52c13.075,0.672,22.794,12.358,21.073,25.336l-21.385,161.243
	C481.496,305.143,472.64,313.315,461.852,313.873z"/>
<g>
	<ellipse style="fill:#E38892;" cx="215.397" cy="200.278" rx="37.888" ry="30.17"/>
	<ellipse style="fill:#E38892;" cx="420.756" cy="200.278" rx="37.888" ry="30.17"/>
</g>
<path style="opacity:0.2;fill:#254A74;enable-background:new    ;" d="M99.736,116.068l38.586,195.297
	c2.16,10.932,12.022,18.618,23.15,18.043l176.459-9.126c-95.983-36.56-152.827-162.523-167.223-228.489l-47.829-2.458
	C108.301,88.585,96.906,101.747,99.736,116.068z"/>
<path style="fill:#72CDA2;" d="M488.278,254.01l-360.595,3.507l10.639,53.848c2.16,10.932,12.022,18.618,23.15,18.043l300.38-15.535
	c10.789-0.558,19.645-8.731,21.065-19.441L488.278,254.01z"/>
<path style="opacity:0.2;fill:#2C6245;enable-background:new    ;" d="M138.322,311.366c2.16,10.932,12.022,18.618,23.15,18.043
	l176.459-9.126c-33.255-12.666-61.813-36.06-85.532-63.977l-124.715,1.213L138.322,311.366z"/>
<path style="fill:#6B7BAB;" d="M142.058,355.417c-11.697,0-22.147-8.249-24.5-20.161L65.839,73.487
	c-1.239-6.271-6.308-11.182-12.614-12.222L28.44,57.178C14.816,54.933,5.594,42.068,7.84,28.444
	C10.087,14.818,22.949,5.59,36.577,7.843L61.36,11.93c26.762,4.411,48.276,25.255,53.533,51.866l51.719,261.769
	c2.677,13.546-6.135,26.696-19.681,29.373C145.295,355.26,143.664,355.417,142.058,355.417z"/>
<path d="M237.474,149.305c-4.142,0-7.5,3.357-7.5,7.5v13.38c0,4.143,3.358,7.5,7.5,7.5s7.5-3.357,7.5-7.5v-13.38
	C244.974,152.663,241.616,149.305,237.474,149.305z M344.253,165.124c-3.122-2.722-7.86-2.396-10.582,0.727
	c-3.937,4.518-9.622,7.108-15.597,7.108c-5.975,0-11.659-2.591-15.596-7.108c-2.723-3.122-7.46-3.447-10.582-0.727
	c-3.122,2.722-3.448,7.459-0.727,10.582c6.787,7.787,16.593,12.253,26.904,12.253c10.313,0,20.118-4.466,26.905-12.253
	C347.702,172.583,347.376,167.845,344.253,165.124z M398.677,149.305c-4.143,0-7.5,3.357-7.5,7.5v13.38c0,4.143,3.357,7.5,7.5,7.5
	c4.142,0,7.5-3.357,7.5-7.5v-13.38C406.177,152.663,402.82,149.305,398.677,149.305z M505.081,111.112
	c-5.325-6.402-13.15-10.319-21.467-10.747L126.133,81.992l-3.882-19.65c-0.803-4.063-4.75-6.709-8.812-5.903
	c-4.063,0.803-6.707,4.747-5.904,8.811l51.719,261.77c1.871,9.466-4.31,18.689-13.774,20.56c-1.134,0.224-2.285,0.337-3.422,0.337
	c-1.031,0-2.045-0.092-3.033-0.268c-0.117-0.026-0.234-0.057-0.351-0.076c-6.824-1.358-12.367-6.727-13.758-13.77l-51.72-261.77
	c-1.842-9.321-9.377-16.622-18.751-18.169l-24.785-4.087c-9.521-1.569-15.99-10.593-14.42-20.114
	c0.761-4.614,3.273-8.656,7.071-11.38c3.799-2.724,8.43-3.804,13.046-3.04l24.784,4.087c12.78,2.106,24.668,8.613,33.472,18.323
	c2.782,3.069,7.525,3.302,10.594,0.518c3.068-2.782,3.3-7.525,0.518-10.594C93.654,15.37,78.688,7.185,62.581,4.53l-24.78-4.086
	c-8.568-1.419-17.173,0.59-24.23,5.65C6.516,11.152,1.853,18.656,0.441,27.223c-2.916,17.683,9.098,34.44,26.78,37.355l24.784,4.087
	c3.238,0.533,5.84,3.056,6.476,6.276l51.72,261.769c1.944,9.841,8.258,17.929,16.667,22.406l-12.72,24.835
	c-7.204,14.066-6.583,30.511,1.658,43.99c8.242,13.482,22.596,21.531,38.397,21.531h13.09c-3.99,6.391-6.232,13.855-6.232,21.635
	c0,22.55,18.346,40.895,40.896,40.895s40.895-18.345,40.895-40.895c0-7.78-2.242-15.244-6.232-21.635h111.056
	c-3.99,6.391-6.232,13.855-6.232,21.635c0,22.55,18.346,40.895,40.896,40.895c22.549,0,40.895-18.345,40.895-40.895
	c0-7.78-2.242-15.244-6.232-21.635h37.16c17.922,0,32.502-14.58,32.502-32.501c0-17.922-14.58-32.502-32.502-32.502h-22.002
	c-4.143,0-7.5,3.357-7.5,7.5s3.357,7.5,7.5,7.5h22.002c9.65,0,17.502,7.852,17.502,17.502c0,9.65-7.852,17.501-17.502,17.501
	H154.203c-10.535,0-20.104-5.366-25.6-14.355c-5.495-8.986-5.908-19.95-1.105-29.328l14.279-27.878
	c0.094,0.001,0.187,0.006,0.282,0.006c2.108,0,4.236-0.209,6.327-0.621c13.445-2.657,23.311-13.303,25.66-26.027l21.267-1.1
	l-27.341,53.382c-1.191,2.325-1.087,5.103,0.276,7.331c1.362,2.228,3.787,3.588,6.399,3.588h222.647c4.143,0,7.5-3.357,7.5-7.5
	s-3.357-7.5-7.5-7.5h-210.38l25.71-50.196l249.616-12.91c14.395-0.744,26.218-11.655,28.113-25.944l21.385-161.242
	C512.832,125.921,510.406,117.514,505.081,111.112z M368.12,449.471h28.437c7.244,4.772,11.676,12.901,11.676,21.635
	c0,14.278-11.616,25.895-25.895,25.895c-14.279,0-25.896-11.616-25.896-25.895C356.443,462.372,360.875,454.243,368.12,449.471z
	 M187.738,449.471h28.437c7.245,4.772,11.677,12.901,11.677,21.635c0,14.278-11.617,25.895-25.895,25.895
	c-14.279,0-25.896-11.616-25.896-25.895C176.061,462.372,180.493,454.243,187.738,449.471z M496.867,132.205l-21.385,161.242
	c-0.945,7.125-6.841,12.565-14.018,12.937l-288.054,14.898l-44.28-224.115l353.713,18.179c4.208,0.216,8.009,2.119,10.703,5.358
	C496.242,123.943,497.42,128.028,496.867,132.205z"/>
<g>
</g>
<g>
</g>
<g>
</g>
<g>
</g>
<g>
</g>
<g>
</g>
<g>
</g>
<g>
</g>
<g>
</g>
<g>
</g>
<g>
</g>
<g>
</g>
<g>
</g>
<g>
</g>
<g>
</g>
</svg>
