<?xml version="1.0" encoding="iso-8859-1"?>
<!-- Generator: Adobe Illustrator 19.0.0, SVG Export Plug-In . SVG Version: 6.00 Build 0)  -->
<svg version="1.1" id="Capa_1" xmlns="http://www.w3.org/2000/svg" xmlns:xlink="http://www.w3.org/1999/xlink" x="0px" y="0px"
	 viewBox="0 0 512 512" style="enable-background:new 0 0 512 512;" xml:space="preserve">
<path style="fill:#F8E47C;" d="M90.717,177.35h-61.6c-11.939,0-21.617,9.678-21.617,21.617v114.067
	c0,11.939,9.678,21.617,21.617,21.617h61.6c13.485,0,26.808,2.935,39.044,8.602l105.205,48.723
	c13.724,6.356,29.41-3.666,29.41-18.79V138.815c0-15.124-15.686-25.146-29.41-18.79l-105.205,48.723
	C117.525,174.415,104.202,177.35,90.717,177.35z"/>
<g>
	<ellipse style="fill:#E38892;" cx="62.15" cy="242.481" rx="18.695" ry="14.888"/>
	<ellipse style="fill:#E38892;" cx="163.48" cy="242.481" rx="18.695" ry="14.888"/>
</g>
<g style="opacity:0.2;">
	<path style="fill:#C97B00;" d="M100.508,284.792H57.135c-4.143,0-7.5-3.357-7.5-7.5s3.357-7.5,7.5-7.5h43.373
		c4.143,0,7.5,3.357,7.5,7.5C108.008,281.435,104.65,284.792,100.508,284.792z"/>
	<path style="fill:#C97B00;" d="M100.508,311.941H57.135c-4.143,0-7.5-3.358-7.5-7.5c0-4.143,3.357-7.5,7.5-7.5h43.373
		c4.143,0,7.5,3.357,7.5,7.5C108.008,308.583,104.65,311.941,100.508,311.941z"/>
</g>
<path style="opacity:0.2;fill:#C97B00;enable-background:new    ;" d="M234.966,391.977c13.724,6.356,29.41-3.666,29.41-18.79
	v-10.508C51.149,319.468,55.769,228.698,56.998,177.35h-27.88c-11.939,0-21.617,9.678-21.617,21.617v114.068
	c0,11.939,9.678,21.617,21.617,21.617h61.6c13.485,0,26.808,2.936,39.044,8.602L234.966,391.977z"/>
<path style="fill:#BBE0F1;" d="M401.453,84.429c0,4.077,1.555,8.155,4.666,11.266c42.893,42.893,66.515,99.824,66.515,160.306
	s-23.622,117.413-66.515,160.306c-6.222,6.222-6.222,16.31,0,22.532c6.222,6.223,16.31,6.223,22.533,0
	c48.911-48.91,75.848-113.844,75.848-182.838s-26.937-133.928-75.848-182.838c-6.222-6.223-16.31-6.223-22.533,0
	C403.009,76.274,401.453,80.351,401.453,84.429z"/>
<path style="fill:#7F9AE6;" d="M356.409,129.472c0,4.077,1.555,8.155,4.666,11.266c30.842,30.842,47.828,71.777,47.828,115.264
	s-16.985,84.421-47.828,115.263c-6.222,6.222-6.222,16.31,0,22.532c6.222,6.223,16.31,6.223,22.533,0
	c36.861-36.861,57.161-85.797,57.161-137.795s-20.3-100.935-57.161-137.795c-6.222-6.223-16.31-6.223-22.533,0
	C357.965,121.317,356.409,125.394,356.409,129.472z"/>
<path style="fill:#6B7BAB;" d="M311.366,174.515c0,4.078,1.555,8.155,4.667,11.266c18.791,18.791,29.139,43.729,29.139,70.22
	s-10.349,51.428-29.139,70.22c-6.223,6.222-6.222,16.31,0,22.532s16.31,6.223,22.532,0c24.81-24.809,38.473-57.749,38.473-92.751
	s-13.663-67.943-38.473-92.751c-6.222-6.223-16.31-6.222-22.532,0C312.922,166.361,311.366,170.438,311.366,174.515z"/>
<g>
	<path style="opacity:0.2;fill:#254A74;enable-background:new    ;" d="M376.929,250.835c0.066,1.717,0.109,3.438,0.109,5.166
		c0,35.002-13.663,67.943-38.473,92.751c-6.222,6.223-16.31,6.222-22.532,0c-6.222-6.222-6.222-16.31,0-22.532
		c18.791-18.791,29.139-43.729,29.139-70.22c0-4.708-0.333-9.366-0.976-13.95C353.114,257.288,370.797,257.957,376.929,250.835z"/>
	<path style="opacity:0.2;fill:#254A74;enable-background:new    ;" d="M440.769,256.001c0,51.998-20.3,100.935-57.161,137.795
		c-6.222,6.223-16.31,6.223-22.533,0c-6.222-6.222-6.222-16.31,0-22.532c30.842-30.842,47.828-71.776,47.828-115.263
		c0-7.559-0.525-15.037-1.535-22.402c9.902,17.291,26.275,19.712,33.199,13.665C440.695,250.166,440.769,253.078,440.769,256.001z"
		/>
	<path style="opacity:0.2;fill:#254A74;enable-background:new    ;" d="M504.5,256.001c0,68.994-26.937,133.928-75.848,182.838
		c-6.222,6.223-16.31,6.223-22.533,0c-6.222-6.222-6.222-16.31,0-22.532c42.893-42.893,66.515-99.824,66.515-160.306
		c0-7.775-0.397-15.489-1.168-23.124c8.341,14.788,23.728,19.714,32.945,16.395C504.468,251.511,504.5,253.753,504.5,256.001z"/>
</g>
<path style="fill:#E38892;" d="M234.966,120.025l-24.686,11.432v249.088l24.686,11.433c13.724,6.356,29.41-3.666,29.41-18.79
	V138.815C264.376,123.691,248.69,113.669,234.966,120.025z"/>
<path style="opacity:0.2;fill:#C97B00;enable-background:new    ;" d="M210.281,380.545l24.686,11.433
	c13.724,6.356,29.41-3.666,29.41-18.79V362.68c-19.864-4.025-37.834-8.464-54.096-13.245V380.545z"/>
<path d="M80.543,227.631v-6.602c0-4.143-3.357-7.5-7.5-7.5s-7.5,3.357-7.5,7.5v6.602c0,4.143,3.357,7.5,7.5,7.5
	S80.543,231.774,80.543,227.631z M258.855,115.045c-8.151-5.208-18.263-5.891-27.041-1.826l-105.206,48.724
	c-11.17,5.174-23.582,7.908-35.892,7.908h-61.6C13.061,169.851,0,182.912,0,198.967v114.068c0,12.11,7.625,23.081,18.975,27.3
	c3.882,1.443,8.2-0.535,9.644-4.417c1.443-3.883-0.535-8.2-4.417-9.644C18.697,324.229,15,318.908,15,313.035V198.967
	c0-7.784,6.333-14.116,14.117-14.116h61.6c14.472,0,29.063-3.215,42.196-9.297l69.867-32.358v225.61l-69.867-32.358
	c-13.133-6.082-27.725-9.297-42.196-9.297H57.081c-4.143,0-7.5,3.357-7.5,7.5s3.357,7.5,7.5,7.5h33.636
	c12.31,0,24.722,2.734,35.892,7.908l105.206,48.724c3.797,1.759,7.843,2.629,11.871,2.629c5.286,0,10.544-1.499,15.17-4.455
	c8.153-5.209,13.021-14.096,13.021-23.771V138.815C271.876,129.141,267.009,120.254,258.855,115.045z M256.876,373.186
	c0,4.598-2.222,8.654-6.097,11.13c-3.874,2.478-8.489,2.786-12.662,0.855l-20.337-9.419V136.249l20.337-9.419
	c4.172-1.933,8.787-1.62,12.662,0.855s6.097,6.532,6.097,11.13V373.186z M112.813,240.2c6.186,0,12.067-2.678,16.139-7.348
	c2.722-3.122,2.397-7.86-0.725-10.582c-3.124-2.724-7.861-2.399-10.582,0.725c-1.222,1.401-2.982,2.205-4.832,2.205
	s-3.61-0.804-4.832-2.205c-2.723-3.122-7.46-3.448-10.582-0.725c-3.122,2.722-3.446,7.46-0.725,10.582
	C100.746,237.522,106.628,240.2,112.813,240.2z M481.353,131.896c-1.938-3.662-6.477-5.06-10.137-3.119
	c-3.661,1.938-5.058,6.477-3.119,10.137C487.005,174.631,497,215.118,497,256.001c0,66.991-26.156,130.041-73.651,177.534
	c-1.593,1.594-3.71,2.471-5.963,2.471c-2.252,0-4.369-0.877-5.963-2.471c-1.593-1.593-2.47-3.71-2.47-5.962s0.877-4.369,2.471-5.962
	c44.308-44.31,68.711-103.125,68.711-165.61s-24.402-121.3-68.712-165.61c-1.593-1.593-2.47-3.71-2.47-5.962
	s0.877-4.369,2.471-5.963c1.593-1.593,3.71-2.47,5.962-2.47c2.253,0,4.37,0.877,5.964,2.471
	c9.801,9.801,18.832,20.424,26.843,31.574c2.416,3.363,7.102,4.132,10.467,1.715c3.364-2.416,4.132-7.103,1.715-10.467
	c-8.482-11.809-18.044-23.056-28.418-33.43c-4.427-4.426-10.312-6.863-16.57-6.863c-6.259,0-12.144,2.438-16.568,6.863
	c-4.427,4.425-6.864,10.31-6.864,16.569c0,6.26,2.438,12.145,6.863,16.569c41.477,41.477,64.318,96.524,64.318,155.003
	s-22.842,113.526-64.317,155.003c-4.427,4.426-6.864,10.311-6.864,16.569s2.438,12.143,6.863,16.568
	c4.426,4.427,10.311,6.864,16.569,6.864c6.259,0,12.144-2.438,16.57-6.863C484.283,393.816,512,326.999,512,256.001
	C512,212.681,501.402,169.766,481.353,131.896z M343.868,157.947c-4.425-4.427-10.31-6.865-16.569-6.864
	c-6.259,0-12.143,2.438-16.57,6.863c-4.425,4.426-6.862,10.311-6.862,16.569c0,6.26,2.438,12.145,6.863,16.569
	c17.375,17.374,26.943,40.429,26.943,64.916s-9.568,47.542-26.942,64.916c-4.427,4.426-6.864,10.31-6.864,16.569
	c0,6.259,2.436,12.143,6.862,16.569c4.427,4.426,10.312,6.863,16.57,6.863c6.26,0,12.145-2.438,16.568-6.863
	c26.228-26.225,40.671-61.048,40.671-98.055S370.095,184.171,343.868,157.947z M333.261,343.449c-1.593,1.593-3.71,2.47-5.962,2.47
	s-4.37-0.877-5.963-2.471c-1.593-1.592-2.47-3.71-2.47-5.962s0.877-4.369,2.471-5.962c20.207-20.208,31.336-47.029,31.336-75.523
	s-11.129-55.315-31.337-75.523c-1.593-1.593-2.47-3.71-2.47-5.962c0-2.253,0.877-4.37,2.47-5.962
	c1.593-1.594,3.711-2.471,5.963-2.471s4.369,0.877,5.963,2.471c23.392,23.391,36.276,54.447,36.276,87.447
	S356.654,320.057,333.261,343.449z M388.912,112.902c-4.427-4.426-10.312-6.863-16.57-6.863s-12.144,2.438-16.568,6.863
	c-4.427,4.425-6.864,10.31-6.864,16.569c0,6.26,2.438,12.145,6.863,16.569c29.426,29.426,45.631,68.478,45.631,109.96
	s-16.205,80.534-45.63,109.96c-4.427,4.426-6.864,10.311-6.864,16.569s2.438,12.144,6.863,16.568
	c4.426,4.427,10.311,6.864,16.569,6.864s12.144-2.438,16.57-6.863c38.276-38.277,59.356-89.098,59.356-143.099
	S427.189,151.18,388.912,112.902z M378.305,388.492c-1.593,1.594-3.71,2.471-5.963,2.471c-2.252,0-4.369-0.877-5.963-2.471
	c-1.593-1.593-2.47-3.71-2.47-5.962s0.877-4.369,2.471-5.963c32.258-32.259,50.023-75.077,50.023-120.566
	s-17.766-88.308-50.024-120.567c-1.593-1.593-2.47-3.71-2.47-5.962s0.877-4.369,2.471-5.963c1.593-1.593,3.71-2.47,5.962-2.47
	c2.253,0,4.37,0.877,5.963,2.471c35.444,35.443,54.964,82.496,54.964,132.491S413.749,353.049,378.305,388.492z M160.084,227.631
	v-6.602c0-4.143-3.357-7.5-7.5-7.5s-7.5,3.357-7.5,7.5v6.602c0,4.143,3.357,7.5,7.5,7.5S160.084,231.774,160.084,227.631z"/>
<g>
</g>
<g>
</g>
<g>
</g>
<g>
</g>
<g>
</g>
<g>
</g>
<g>
</g>
<g>
</g>
<g>
</g>
<g>
</g>
<g>
</g>
<g>
</g>
<g>
</g>
<g>
</g>
<g>
</g>
</svg>
