<?xml version="1.0" encoding="iso-8859-1"?>
<!-- Generator: Adobe Illustrator 19.0.0, SVG Export Plug-In . SVG Version: 6.00 Build 0)  -->
<svg version="1.1" id="Capa_1" xmlns="http://www.w3.org/2000/svg" xmlns:xlink="http://www.w3.org/1999/xlink" x="0px" y="0px"
	 viewBox="0 0 512.003 512.003" style="enable-background:new 0 0 512.003 512.003;" xml:space="preserve">
<path style="fill:#F0F2FF;" d="M298.447,23.316L129.082,53.18c-33.507,5.908-55.88,37.86-49.972,71.368l42.054,238.499
	c3.153,17.881,20.204,29.821,38.085,26.668l197.658-34.852c17.881-3.153,29.821-20.204,26.668-38.085L336.532,49.984
	C333.379,32.103,316.328,20.164,298.447,23.316z"/>
<path style="fill:#DBE1FF;" d="M129.082,53.18c-33.507,5.908-55.88,37.861-49.972,71.368l42.054,238.499
	c3.153,17.881,20.204,29.821,38.085,26.668l197.658-34.853c17.653-3.113,29.504-19.773,26.77-37.403l0,0
	C262.552,338.168,161.374,197.544,172.07,45.6L129.082,53.18z"/>
<g>
	
		<ellipse transform="matrix(-0.1736 -0.9848 0.9848 -0.1736 31.0261 318.6234)" style="fill:#E38892;" cx="149.198" cy="146.294" rx="19.972" ry="25.08"/>
	
		<ellipse transform="matrix(0.1736 0.9848 -0.9848 0.1736 354.7533 -177.4224)" style="fill:#E38892;" cx="283.094" cy="122.668" rx="19.972" ry="25.08"/>
</g>
<path style="fill:#909DE0;" d="M129.082,53.18c-33.507,5.908-55.88,37.86-49.972,71.368l3.488,19.78
	c-1.641-9.306,1.255-26.631,17.944-29.574c17.881-3.153,29.821-20.204,26.668-38.085c-2.943-16.689,12.347-25.335,21.653-26.976
	L129.082,53.18z"/>
<path style="fill:#BBE0F1;" d="M7.667,427.928l30.096-170.684c1.025-5.814,6.569-9.696,12.383-8.67l276.329,48.724
	c5.814,1.025,9.696,6.569,8.671,12.383L305.05,480.364c-1.025,5.814-6.569,9.696-12.383,8.671L16.338,440.31
	C10.524,439.285,6.642,433.741,7.667,427.928z"/>
<path style="fill:#5B9675;" d="M292.667,489.035c5.814,1.025,11.358-2.857,12.383-8.671l13.897-78.812l-39.665-56.648
	c-9.409-13.437-27.928-16.702-41.365-7.294L76.176,450.862L292.667,489.035z"/>
<path style="fill:#72CDA2;" d="M14.799,439.907c0.497,0.166,1.007,0.31,1.539,0.404l188.884,33.305l-67.726-96.722
	c-5.942-8.486-17.639-10.549-26.125-4.607L14.799,439.907z"/>
<circle style="fill:#F8E47C;" cx="99.51" cy="313.391" r="29.683"/>
<circle style="fill:#E38892;" cx="377.14" cy="393.221" r="88.47"/>
<path style="fill:#FFFFFF;" d="M417.041,407.137l-52.005,26.002c-10.347,5.173-22.52-2.35-22.52-13.918v-52.005
	c0-11.568,12.174-19.092,22.52-13.918l52.005,26.002C428.511,385.035,428.511,401.402,417.041,407.137z"/>
<path style="opacity:0.15;fill:#812B2F;enable-background:new    ;" d="M453.514,437.883
	c-110.657,21.516-137.264-81.707-91.465-131.844c-41.669,7.162-73.376,43.466-73.376,87.18c0,48.859,39.608,88.467,88.467,88.467
	C409.705,481.686,438.157,464.086,453.514,437.883z"/>
<rect x="389.366" y="91.911" transform="matrix(0.9848 0.1736 -0.1736 0.9848 36.4646 -67.9935)" style="fill:#6B7BAB;" width="35.109" height="165.087"/>
<path style="fill:#F8E47C;" d="M364.431,319.187h-22.119c-25.781,0-45.313-23.277-40.836-48.666l0,0
	c3.494-19.817,20.713-34.265,40.836-34.265h71.536l-8.581,48.666C401.773,304.739,384.554,319.187,364.431,319.187z"/>
<path style="opacity:0.2;fill:#C97B00;enable-background:new    ;" d="M354.344,236.255h-12.031
	c-20.123,0-37.341,14.448-40.836,34.265l0,0c-4.477,25.389,15.055,48.666,40.836,48.666h22.119c11.299,0,21.682-4.556,29.234-12.06
	C343.199,313.159,323.712,258.112,354.344,236.255z"/>
<path style="fill:#E38892;" d="M495.95,41.485h-55.397c-16.201,0-30.064,11.632-32.877,27.587l-7.675,43.53h54.939
	c22.359,0,41.491-16.053,45.374-38.073l4.057-23.008C505.294,46.285,501.266,41.485,495.95,41.485z"/>
<path style="opacity:0.15;fill:#812B2F;enable-background:new    ;" d="M454.94,112.602c8.826,0,17.144-2.51,24.224-6.892
	c-24.908-6.23-34.427-46.521-30.839-64.225h-7.772c-16.201,0-30.064,11.632-32.877,27.588l-7.675,43.529H454.94z"/>
<path d="M105.964,276.77c-9.778-1.724-19.648,0.463-27.784,6.159c-8.135,5.697-13.566,14.222-15.29,24.002
	c-1.725,9.781,0.463,19.648,6.16,27.784s14.221,13.565,24.002,15.29c2.175,0.384,4.338,0.569,6.475,0.569
	c17.695,0,33.423-12.714,36.6-30.729C139.686,299.654,126.155,280.329,105.964,276.77z M121.353,317.24
	c-2.124,12.046-13.656,20.114-25.698,17.994c-5.835-1.029-10.92-4.268-14.319-9.123c-3.398-4.853-4.704-10.739-3.674-16.574
	c1.029-5.836,4.269-10.921,9.122-14.32c3.771-2.641,8.166-4.017,12.677-4.017c1.294,0,2.598,0.113,3.899,0.343
	C115.405,293.665,123.477,305.194,121.353,317.24z M265.221,113.107c0.432,0,0.871-0.037,1.311-0.115
	c4.079-0.719,6.803-4.609,6.083-8.688l-1.538-8.722c-0.72-4.079-4.608-6.803-8.689-6.083c-4.079,0.719-6.803,4.609-6.083,8.688
	l1.538,8.722C258.486,110.547,261.65,113.107,265.221,113.107z M170.583,222.718c-4.08,0.719-6.803,4.609-6.084,8.689
	c0.642,3.639,3.806,6.198,7.377,6.198c0.432,0,0.871-0.037,1.311-0.115l118.541-20.902c4.079-0.719,6.803-4.609,6.084-8.688
	c-0.719-4.079-4.608-6.808-8.689-6.083L170.583,222.718z M165.995,114.111c-0.719-4.079-4.604-6.808-8.688-6.084
	c-4.079,0.719-6.803,4.608-6.084,8.688l1.538,8.722c0.642,3.64,3.806,6.199,7.378,6.199c0.432,0,0.871-0.037,1.311-0.115
	c4.079-0.719,6.803-4.608,6.084-8.688L165.995,114.111z M210.636,129.351c1.509,0,3.027-0.131,4.537-0.398
	c7.443-1.313,13.953-5.785,17.86-12.269c2.138-3.548,0.995-8.157-2.553-10.295c-3.549-2.137-8.157-0.993-10.295,2.553
	c-1.669,2.77-4.446,4.68-7.618,5.239c-3.172,0.554-6.436-0.285-8.951-2.317c-3.223-2.602-7.944-2.099-10.547,1.122
	c-2.603,3.223-2.101,7.945,1.122,10.548C198.887,127.327,204.699,129.351,210.636,129.351z M368.391,346.59
	c-7.2-3.602-15.588-3.223-22.438,1.009c-6.849,4.232-10.938,11.566-10.938,19.617v52.005c0,8.051,4.088,15.385,10.937,19.617
	c3.727,2.304,7.91,3.466,12.11,3.466c3.517,0,7.046-0.815,10.327-2.456l52.005-26.003c7.863-3.931,12.747-11.834,12.748-20.625
	c0-8.792-4.884-16.696-12.748-20.628L368.391,346.59z M413.688,400.429l-52.005,26.003c-2.553,1.276-5.414,1.147-7.843-0.354
	c-2.43-1.502-3.823-4.001-3.823-6.857v-52.005c0-2.856,1.393-5.355,3.823-6.857c1.32-0.815,2.767-1.226,4.222-1.226
	c1.224,0,2.454,0.29,3.621,0.873l52.004,26.002c2.79,1.396,4.457,4.091,4.457,7.211
	C418.144,396.338,416.478,399.034,413.688,400.429z M508.246,39.718c-3.057-3.644-7.539-5.733-12.296-5.733h-55.396
	c-19.878,0-36.811,14.209-40.264,33.785l-7.675,43.529l-18.827,106.776L343.919,48.681c-1.873-10.621-7.77-19.877-16.604-26.063
	c-8.834-6.186-19.55-8.563-30.169-6.687L127.78,45.794c-37.526,6.617-62.673,42.53-56.056,80.057l7.763,44.025
	c0.72,4.079,4.609,6.806,8.688,6.083c4.08-0.719,6.803-4.609,6.084-8.689l-4.275-24.246c0,0,0,0,0-0.001
	c-0.542-3.071-0.457-8.273,1.566-12.825c2.026-4.559,5.393-7.195,10.294-8.059c21.924-3.866,36.617-24.849,32.751-46.774
	c-0.864-4.9,0.461-8.966,4.053-12.429c3.585-3.457,8.444-5.316,11.516-5.858c0.002,0,0.005-0.001,0.007-0.001L299.75,30.703
	c13.782-2.431,26.967,6.804,29.397,20.584l31.292,177.469h-18.126c-23.808,0-44.088,17.018-48.222,40.463
	c-0.867,4.917-0.956,9.863-0.342,14.694l-184.663-32.561l-8.642-49.008c-0.719-4.078-4.608-6.806-8.688-6.083
	c-4.079,0.719-6.803,4.609-6.084,8.689l7.693,43.631L51.45,241.19c-9.88-1.75-19.33,4.876-21.072,14.753L0.281,426.625
	c-0.843,4.785,0.227,9.611,3.014,13.592c2.247,3.208,5.402,5.537,9.044,6.768c0.03,0.01,0.056,0.026,0.086,0.036
	c0.068,0.023,0.132,0.037,0.199,0.059c0.32,0.102,0.64,0.203,0.967,0.288c0.487,0.131,0.964,0.243,1.433,0.327
	c0.008,0.001,0.017,0.002,0.025,0.003l276.315,48.722c1.064,0.189,2.123,0.278,3.168,0.278c8.655-0.001,16.349-6.219,17.904-15.031
	l2.693-15.27c16.738,14.205,38.389,22.789,62.01,22.789c18.786,0,36.982-5.43,52.622-15.702c3.462-2.273,4.425-6.924,2.151-10.386
	c-2.273-3.463-6.924-4.427-10.386-2.151c-13.186,8.661-28.535,13.239-44.387,13.239c-44.646,0-80.967-36.321-80.967-80.967
	c0-8.785,1.388-17.32,4.017-25.362c0.151-0.355,0.276-0.719,0.37-1.091c5.701-16.627,16.753-31.063,31.917-41.087
	c3.207,0.655,6.498,1.008,9.837,1.008h22.119c12.24,0,23.541-4.507,32.201-12.064c35.843,8.85,61.474,41.303,61.474,78.596
	c0,16.081-4.702,31.616-13.596,44.926c-2.301,3.443-1.376,8.102,2.069,10.402c1.28,0.856,2.728,1.266,4.16,1.266
	c2.42,0,4.797-1.17,6.243-3.334c10.549-15.785,16.124-34.202,16.124-53.26c0-41.825-27.215-78.505-66.143-91.217
	c2.725-4.782,4.686-10.088,5.69-15.778l29.292-166.122h12.995c26.048,0,48.237-18.618,52.76-44.271l4.057-23.009
	C512.583,48.138,511.303,43.363,508.246,39.718z M119.823,77.971c2.43,13.779-6.804,26.967-20.583,29.397
	c-5.207,0.918-9.79,3.047-13.553,6.201c0.107-22.454,14.266-42.675,35.329-50.456C119.338,67.729,118.905,72.763,119.823,77.971z
	 M33.781,435.77l81.891-57.34c5.086-3.56,12.119-2.32,15.68,2.765l14.576,20.817c0.001,0.002,0.002,0.004,0.004,0.006
	c0.001,0.001,0.002,0.003,0.004,0.004l42.757,61.063L33.781,435.77z M302.235,453.137l-4.571,25.925
	c-0.305,1.732-1.965,2.884-3.694,2.587l-84.386-14.88l-47.062-67.211l79.697-55.804c4.857-3.402,10.749-4.707,16.588-3.678
	c5.84,1.029,10.929,4.271,14.331,9.129l11.87,16.952c-2.514,8.645-3.836,17.734-3.836,27.061
	C281.172,415.868,289.064,436.705,302.235,453.137z M291.631,349.465l-6.206-8.863c-5.7-8.14-14.228-13.572-24.013-15.298
	c-9.788-1.725-19.658,0.464-27.797,6.163l-79.697,55.803l-10.279-14.68c-8.304-11.859-24.709-14.751-36.57-6.448l-91.97,64.398
	c-0.093-0.374-0.133-0.813-0.045-1.311L45.15,258.546c0.305-1.731,1.959-2.887,3.694-2.587l52.413,9.242
	c0.02,0.004,0.041,0.007,0.061,0.011l197.4,34.807c1.662,3.243,3.692,6.325,6.085,9.177c3.291,3.922,7.131,7.24,11.35,9.91
	C305.848,327.545,297.552,337.88,291.631,349.465z M397.881,283.619c-1.184,6.713-4.279,12.663-8.664,17.34
	c-0.207,0.194-0.406,0.397-0.591,0.615c-6.2,6.289-14.8,10.114-24.195,10.114h-22.119c-10.066,0-19.549-4.422-26.019-12.133
	s-9.179-17.818-7.431-27.731c2.868-16.264,16.935-28.067,33.45-28.067h27.033c0.007,0,0.014,0.001,0.022,0.001
	s0.015-0.001,0.023-0.001h8.807c3.64,0,6.754-2.613,7.386-6.197l20.71-117.456h20.419L397.881,283.619z M492.927,73.226
	c-3.256,18.471-19.232,31.876-37.987,31.876h-46.002l6.124-34.727c2.186-12.394,12.906-21.391,25.491-21.391h55.396
	c0.325,0,0.596,0.126,0.805,0.375c0.209,0.249,0.286,0.538,0.229,0.857L492.927,73.226z M158.354,196.561
	c0.642,3.639,3.806,6.198,7.377,6.198c0.432,0,0.871-0.037,1.311-0.115l118.541-20.902c4.079-0.719,6.803-4.609,6.084-8.688
	c-0.719-4.079-4.606-6.803-8.688-6.083l-118.542,20.902C160.359,188.591,157.635,192.482,158.354,196.561z"/>
<g>
</g>
<g>
</g>
<g>
</g>
<g>
</g>
<g>
</g>
<g>
</g>
<g>
</g>
<g>
</g>
<g>
</g>
<g>
</g>
<g>
</g>
<g>
</g>
<g>
</g>
<g>
</g>
<g>
</g>
</svg>
