<?xml version="1.0" encoding="iso-8859-1"?>
<!-- Generator: Adobe Illustrator 19.0.0, SVG Export Plug-In . SVG Version: 6.00 Build 0)  -->
<svg version="1.1" id="Capa_1" xmlns="http://www.w3.org/2000/svg" xmlns:xlink="http://www.w3.org/1999/xlink" x="0px" y="0px"
	 viewBox="0 0 512 512" style="enable-background:new 0 0 512 512;" xml:space="preserve">
<path style="fill:#7F9AE6;" d="M302.986,502.197c-81.758,14.416-160.001-40.37-174.417-122.127L86.328,140.511
	C75.478,78.975,116.713,20.085,178.248,9.235c61.536-10.85,120.425,30.386,131.276,91.921l42.241,239.558
	c7.285,41.313-20.4,80.85-61.713,88.134c-41.313,7.285-80.85-20.4-88.135-61.713l-26.569-150.682
	c-1.726-9.79,4.811-19.126,14.601-20.852c9.79-1.726,19.126,4.81,20.852,14.601l26.569,150.682
	c3.838,21.764,24.666,36.348,46.43,32.511c21.764-3.838,36.348-24.666,32.511-46.43L274.07,107.408
	c-7.403-41.987-47.585-70.123-89.571-62.72c-41.986,7.403-70.122,47.586-62.718,89.572l42.241,239.558
	c10.969,62.209,70.504,103.895,132.713,92.926c62.209-10.969,103.895-70.505,92.926-132.712l-26.569-150.682
	c-1.726-9.791,4.811-19.126,14.601-20.852s19.126,4.81,20.852,14.601l26.569,150.681
	C439.53,409.538,384.743,487.781,302.986,502.197z"/>
<g>
	<path style="opacity:0.2;fill:#254A74;enable-background:new    ;" d="M422.434,392.212c-11.012,2.268-25.08-0.123-35.135-7.957
		c-11.411,41.304-45.632,74.566-90.565,82.489c-62.209,10.969-121.743-30.718-132.713-92.926L121.78,134.259
		c-3.792-21.504,1.756-42.522,13.694-58.918c-12.771-3.55-22.226-14.899-25.324-26.1c-20.084,24.658-29.766,57.567-23.824,91.269
		l42.241,239.558c14.416,81.758,92.659,136.544,174.417,122.127C362.609,491.683,407.878,447.223,422.434,392.212z"/>
	<path style="opacity:0.2;fill:#254A74;enable-background:new    ;" d="M316.312,346.965c3.838,21.764-10.747,42.592-32.511,46.43
		s-42.592-10.746-46.43-32.511l-26.569-150.682c-1.726-9.79-11.062-16.327-20.852-14.601c-9.79,1.726-16.327,11.062-14.601,20.852
		l26.569,150.681c7.285,41.313,46.822,68.997,88.135,61.712c41.313-7.285,68.997-46.822,61.713-88.134l-6.657-37.753
		c-15.11-4.231-30.408-18.789-42.463-33.502L316.312,346.965z"/>
</g>
<path d="M401.191,439.013c-3.299-2.507-8.004-1.863-10.509,1.437c-21.866,28.791-53.473,48.097-88.998,54.361
	c-77.69,13.695-152.031-38.36-165.729-116.044l-28.66-162.538c-0.719-4.079-4.605-6.809-8.688-6.083
	c-4.079,0.719-6.803,4.609-6.084,8.688l28.66,162.538C134.688,457.96,201.539,512,276.765,512c9.077,0,18.283-0.788,27.524-2.418
	c39.258-6.922,74.183-28.252,98.339-60.06C405.133,446.223,404.49,441.518,401.191,439.013z M432.5,326.478l-26.57-150.681
	c-2.441-13.848-15.69-23.126-29.541-20.686c-13.847,2.441-23.126,15.693-20.685,29.541l26.569,150.682
	c4.958,28.114-1.356,56.514-17.779,79.967c-16.422,23.454-40.95,39.101-69.064,44.058c-28.113,4.956-56.514-1.357-79.968-17.779
	c-23.454-16.422-39.101-40.95-44.058-69.064l-42.241-239.558c-6.686-37.914,18.721-74.198,56.635-80.884
	c18.333-3.231,36.855,0.887,52.15,11.596c15.296,10.711,25.501,26.706,28.733,45.041l42.241,239.558
	c1.508,8.553-0.414,17.194-5.412,24.333c-4.998,7.139-12.461,11.9-21.015,13.408c-8.555,1.506-17.195-0.414-24.333-5.412
	c-7.139-4.999-11.9-12.462-13.408-21.016L218.188,208.9c-2.442-13.847-15.689-23.123-29.542-20.684
	c-13.847,2.441-23.126,15.693-20.684,29.541l26.569,150.682c3.871,21.953,16.085,41.103,34.391,53.921
	c18.307,12.818,40.477,17.748,62.432,13.874c21.954-3.87,41.104-16.084,53.922-34.391c12.818-18.306,17.746-40.478,13.875-62.432
	l-42.24-239.558C305.342,34.245,242.556-9.727,176.946,1.85C145.212,7.445,117.53,25.101,99,51.565s-25.654,58.516-20.058,90.249
	l7.49,42.477c0.719,4.08,4.609,6.809,8.688,6.083c4.079-0.719,6.803-4.608,6.084-8.689l-7.49-42.477
	c-4.9-27.788,1.341-55.858,17.573-79.041c16.232-23.182,40.475-38.647,68.264-43.547c57.464-10.124,112.455,28.374,122.587,85.837
	l42.241,239.559c3.175,18.008-0.87,36.199-11.39,51.223c-10.52,15.024-26.231,25.047-44.239,28.223
	c-18.009,3.173-36.2-0.869-51.224-11.39c-15.024-10.521-25.047-26.232-28.222-44.239l-26.569-150.682
	c-1.006-5.701,2.815-11.158,8.517-12.164c5.704-1.001,11.158,2.816,12.164,8.518l26.569,150.682
	c2.204,12.499,9.156,23.4,19.577,30.697c10.421,7.297,23.043,10.104,35.541,7.896c12.499-2.203,23.4-9.155,30.697-19.576
	c7.296-10.42,10.101-23.042,7.897-35.542l-42.241-239.558c-3.929-22.279-16.324-41.714-34.902-54.723
	c-18.578-13.01-41.08-18.011-63.359-14.08c-46.059,8.121-76.924,52.2-68.803,98.26l42.241,239.558
	c5.653,32.06,23.491,60.025,50.226,78.746c20.788,14.556,44.982,22.145,69.791,22.144c7.099,0,14.252-0.622,21.385-1.88
	c32.06-5.652,60.026-23.489,78.747-50.226c18.721-26.735,25.917-59.115,20.264-91.175l-26.568-150.682
	c-1.005-5.701,2.815-11.158,8.517-12.164c5.708-0.995,11.159,2.817,12.164,8.519l26.57,150.682
	c4.963,28.148,1.446,56.803-10.172,82.865c-1.687,3.783,0.013,8.218,3.796,9.904c3.785,1.689,8.218-0.015,9.904-3.797
	C434.097,389.251,437.985,357.584,432.5,326.478z"/>
<g>
</g>
<g>
</g>
<g>
</g>
<g>
</g>
<g>
</g>
<g>
</g>
<g>
</g>
<g>
</g>
<g>
</g>
<g>
</g>
<g>
</g>
<g>
</g>
<g>
</g>
<g>
</g>
<g>
</g>
</svg>
