<?xml version="1.0" encoding="iso-8859-1"?>
<!-- Generator: Adobe Illustrator 19.0.0, SVG Export Plug-In . SVG Version: 6.00 Build 0)  -->
<svg version="1.1" id="Capa_1" xmlns="http://www.w3.org/2000/svg" xmlns:xlink="http://www.w3.org/1999/xlink" x="0px" y="0px"
	 viewBox="0 0 512 512" style="enable-background:new 0 0 512 512;" xml:space="preserve">
<rect x="332.62" y="73.44" style="fill:#72CDA2;" width="98.06" height="116.02"/>
<path style="opacity:0.2;fill:#2C6245;enable-background:new    ;" d="M362.947,88.129h67.73V73.435h-98.055v116.018h81.798
	C359.164,159.067,362.947,88.129,362.947,88.129z"/>
<path style="fill:#72CDA2;" d="M455.808,218.811L256,138.581l-199.808,80.23v239.724c0,12.468,10.108,22.576,22.576,22.576h354.463
	c12.468,0,22.576-10.108,22.576-22.576V218.811H455.808z"/>
<path style="opacity:0.2;fill:#2C6245;enable-background:new    ;" d="M56.192,218.811v239.724
	c0,12.468,10.108,22.576,22.576,22.576h229.615c-134.017-53.976-124.797-192.393-100.368-260.103
	c1.689-4.682,5.326-8.397,9.966-10.2l30.13-11.704c5.074-1.971,10.703-1.971,15.777,0l191.919,74.551V218.81L256,138.581
	L56.192,218.811z"/>
<path style="fill:#6B7BAB;" d="M211.888,290.959H126.61c-11.575,0-20.959,9.384-20.959,20.959v169.193h127.197V311.918
	C232.847,300.342,223.464,290.959,211.888,290.959z"/>
<path style="fill:#F0F2FF;" d="M389.013,386.652H290.43v-84.728c0-6.056,4.909-10.966,10.966-10.966h76.652
	c6.056,0,10.965,4.909,10.965,10.966V386.652z"/>
<path style="fill:#5B9675;" d="M398.41,386.652H281.034c-4.385,0-7.939,3.554-7.939,7.939v19.318c0,4.385,3.555,7.939,7.939,7.939
	H398.41c4.385,0,7.939-3.555,7.939-7.939v-19.318C406.349,390.206,402.795,386.652,398.41,386.652z"/>
<path style="opacity:0.2;fill:#254A74;enable-background:new    ;" d="M232.848,427.363
	c-33.223-40.725-41.744-91.598-38.951-136.405H126.61c-11.575,0-20.959,9.384-20.959,20.959v169.194h127.197L232.848,427.363
	L232.848,427.363z"/>
<circle style="fill:#F0F2FF;" cx="133.84" cy="386.04" r="7.157"/>
<path style="fill:#6B7BAB;" d="M504.5,202.062c0-8.988-5.52-17.053-13.898-20.308L272.06,96.861c-10.331-4.012-21.789-4.012-32.12,0
	L21.398,181.754C13.02,185.008,7.5,193.074,7.5,202.062v28.452c0,15.32,15.394,25.855,29.675,20.308l210.937-81.938
	c5.074-1.971,10.703-1.971,15.777,0l210.936,81.938c14.281,5.547,29.675-4.988,29.675-20.308V202.062z"/>
<path style="opacity:0.2;fill:#2C6245;enable-background:new    ;" d="M202.096,111.562L21.398,181.754
	C13.02,185.008,7.5,193.074,7.5,202.062v28.451c0,15.32,15.394,25.855,29.675,20.308l202.154-78.527
	C205.077,165.856,194.633,130,202.096,111.562z"/>
<path style="fill:#6B7BAB;" d="M435.834,30.889h-108.37c-5.199,0-9.413,4.215-9.413,9.413v23.72c0,5.199,4.215,9.414,9.413,9.414
	h108.37c5.199,0,9.413-4.215,9.413-9.414v-23.72C445.248,35.103,441.033,30.889,435.834,30.889z"/>
<path d="M378.048,283.459h-76.651c-10.182,0-18.466,8.283-18.466,18.465v77.228h-1.896c-8.514,0-15.44,6.926-15.44,15.439v19.318
	c0,8.514,6.926,15.439,15.44,15.439H398.41c8.514,0,15.439-6.926,15.439-15.439v-19.318c0-8.514-6.926-15.439-15.439-15.439h-1.896
	v-77.228C396.514,291.742,388.229,283.459,378.048,283.459z M347.222,298.459h30.826c1.911,0,3.466,1.555,3.466,3.465v29.381
	h-34.292V298.459z M347.222,346.305h34.292v32.847h-34.292V346.305z M297.931,301.924c0-1.91,1.555-3.465,3.466-3.465h30.825v32.846
	h-34.291L297.931,301.924L297.931,301.924z M297.931,346.305h34.291v32.847h-34.291L297.931,346.305L297.931,346.305z
	 M398.41,394.151c0.242,0,0.439,0.197,0.439,0.439v19.318c0,0.242-0.197,0.439-0.439,0.439H281.034c-0.242,0-0.44-0.197-0.44-0.439
	V394.59c0-0.242,0.197-0.439,0.44-0.439H398.41z M493.318,174.763l-55.142-21.42V80.754c8.219-1.147,14.571-8.203,14.571-16.732
	V40.303c0-9.326-7.588-16.914-16.914-16.914h-108.37c-9.326,0-16.914,7.588-16.914,16.914v23.719
	c0,8.529,6.353,15.585,14.571,16.732v28.673L274.775,89.87c-12.107-4.703-25.442-4.703-37.552,0L86.206,148.532
	c-3.861,1.5-5.775,5.846-4.275,9.707c1.499,3.86,5.843,5.776,9.707,4.275l151.017-58.662c8.606-3.342,18.086-3.342,26.69,0
	l218.543,84.893c5.535,2.15,9.112,7.377,9.112,13.316v28.452c0,4.788-2.267,9.085-6.218,11.789
	c-3.952,2.704-8.779,3.261-13.241,1.527l-210.938-81.938c-6.838-2.656-14.37-2.656-21.208,0L34.459,243.83
	c-4.465,1.733-9.289,1.177-13.241-1.527C17.267,239.599,15,235.302,15,230.514v-28.452c0-5.939,3.577-11.166,9.113-13.316
	l34.006-13.21c3.861-1.5,5.775-5.846,4.275-9.707c-1.5-3.861-5.846-5.774-9.707-4.275l-34.005,13.21
	C7.333,179.171,0,189.886,0,202.061v28.452c0,9.671,4.765,18.706,12.746,24.168c7.983,5.462,18.129,6.632,27.144,3.131l8.802-3.419
	v204.142c0,16.584,13.492,30.076,30.076,30.076h354.463c16.584,0,30.076-13.492,30.076-30.076v-20.741c0-4.143-3.357-7.5-7.5-7.5
	s-7.5,3.357-7.5,7.5v20.741c0,8.313-6.763,15.076-15.076,15.076H240.348V311.918c0-15.692-12.767-28.459-28.459-28.459H126.61
	c-15.692,0-28.459,12.767-28.459,28.459v161.693H78.769c-8.313,0-15.076-6.763-15.076-15.076V248.567l187.134-72.693
	c3.338-1.295,7.011-1.295,10.347,0l187.135,72.693v153.678c0,4.143,3.357,7.5,7.5,7.5s7.5-3.357,7.5-7.5V254.393l8.802,3.419
	c3.433,1.333,7.027,1.989,10.605,1.989c5.821-0.001,11.596-1.737,16.539-5.12c7.98-5.461,12.745-14.496,12.745-24.167v-28.452
	C512,189.886,504.667,179.171,493.318,174.763z M423.177,147.516l-83.056-32.263V80.936h83.056V147.516z M437.748,64.021
	c0,1.056-0.858,1.914-1.914,1.914h-108.37c-1.056,0-1.914-0.858-1.914-1.914V40.303c0-1.056,0.858-1.914,1.914-1.914h108.37
	c1.056,0,1.914,0.858,1.914,1.914V64.021z M113.15,311.918c0-7.421,6.038-13.459,13.459-13.459h85.279
	c7.421,0,13.459,6.038,13.459,13.459v161.693H113.15V311.918z"/>
<g>
</g>
<g>
</g>
<g>
</g>
<g>
</g>
<g>
</g>
<g>
</g>
<g>
</g>
<g>
</g>
<g>
</g>
<g>
</g>
<g>
</g>
<g>
</g>
<g>
</g>
<g>
</g>
<g>
</g>
</svg>
