<?xml version="1.0" encoding="iso-8859-1"?>
<!-- Generator: Adobe Illustrator 19.0.0, SVG Export Plug-In . SVG Version: 6.00 Build 0)  -->
<svg version="1.1" id="Capa_1" xmlns="http://www.w3.org/2000/svg" xmlns:xlink="http://www.w3.org/1999/xlink" x="0px" y="0px"
	 viewBox="0 0 512 512" style="enable-background:new 0 0 512 512;" xml:space="preserve">
<path style="fill:#F8E47C;" d="M255.999,504.5c-133.043,0-241.281-108.238-241.281-241.281c0-16.273,13.193-29.467,29.467-29.467
	s29.467,13.193,29.467,29.467c0,100.547,81.801,182.346,182.347,182.346s182.347-81.801,182.347-182.346S356.547,80.871,256,80.871
	c-48.619,0-94.353,18.908-128.774,53.242c-11.522,11.492-30.18,11.47-41.672-0.053c-11.493-11.522-11.469-30.179,0.053-41.672
	C131.154,46.958,191.667,21.937,256,21.937c133.043,0,241.281,108.238,241.281,241.281S389.042,504.5,255.999,504.5z"/>
<g>
	<path style="opacity:0.2;fill:#C97B00;enable-background:new    ;" d="M413.62,354.811c-31.634,54.23-90.44,90.755-157.621,90.755
		c-100.547,0-182.347-81.801-182.347-182.346c0-16.273-13.193-29.467-29.467-29.467s-29.467,13.193-29.467,29.467
		c0,133.043,108.239,241.281,241.281,241.281c93.84,0,175.33-53.851,215.214-132.27C451.135,368.969,431.908,362.983,413.62,354.811
		z"/>
	<path style="opacity:0.2;fill:#C97B00;enable-background:new    ;" d="M85.606,92.389c-11.522,11.493-11.546,30.15-0.053,41.672
		c11.493,11.523,30.15,11.545,41.672,0.053c22.128-22.072,48.935-37.757,78.175-46.153c-5.709-22.948-7.898-43.37-6.244-59.308
		C156.538,38.899,117.419,60.658,85.606,92.389z"/>
</g>
<path style="fill:#6B7BAB;" d="M189.579,356.159c-6.788,0-13.574-2.589-18.753-7.767c-10.356-10.357-10.356-27.148,0.001-37.506
	l66.42-66.419c10.356-10.356,27.147-10.356,37.505,0c10.356,10.357,10.356,27.148,0,37.505l-66.421,66.42
	C203.154,353.568,196.365,356.159,189.579,356.159z"/>
<path style="opacity:0.2;fill:#254A74;enable-background:new    ;" d="M237.247,244.467l-29.756,29.756
	c2.881,16.728,12.736,34.047,34.271,40.739l32.99-32.989c10.356-10.357,10.356-27.148,0-37.505
	C264.394,234.111,247.603,234.111,237.247,244.467z"/>
<path style="fill:#7F9AE6;" d="M349.931,289.74h-93.932c-14.646,0-26.52-11.873-26.52-26.52s11.874-26.52,26.52-26.52h93.932
	c14.647,0,26.52,11.873,26.52,26.52S364.578,289.74,349.931,289.74z"/>
<path style="fill:#6B7BAB;" d="M179.792,152.086c-0.947,0-1.901-0.041-2.862-0.125l-73.34-6.417
	c-17.833-1.561-31.025-17.282-29.465-35.115l6.417-73.34c1.56-17.834,17.278-31.037,35.115-29.465
	c17.833,1.561,31.025,17.282,29.465,35.115l-3.592,41.049l41.05,3.591c17.833,1.561,31.025,17.282,29.465,35.116
	C210.569,139.368,196.415,152.086,179.792,152.086z"/>
<path style="opacity:0.2;fill:#254A74;enable-background:new    ;" d="M179.792,152.086c12.967,0,24.429-7.738,29.546-19.149
	C98.672,138.433,96.102,48.861,103.481,8.874c-12.32,3.714-21.749,14.613-22.939,28.215l-6.417,73.34
	c-1.56,17.833,11.632,33.554,29.465,35.115l73.34,6.417C177.891,152.044,178.845,152.086,179.792,152.086z"/>
<path d="M256,14.439c-35.736,0-71.205,7.73-103.377,22.407c-1.464-19.115-16.6-34.969-36.307-36.693
	c-16.575-1.461-32.488,7.671-39.59,22.723c-1.767,3.746-0.163,8.216,3.583,9.983c3.748,1.767,8.216,0.164,9.983-3.583
	c4.432-9.394,14.362-15.095,24.711-14.182c13.685,1.197,23.844,13.305,22.647,26.989l-3.592,41.05
	c-0.361,4.126,2.692,7.764,6.818,8.125l41.049,3.592c13.685,1.197,23.845,13.305,22.648,26.989
	c-1.117,12.754-12.003,22.744-24.782,22.744c-0.733,0-1.476-0.032-2.208-0.097l-73.34-6.417
	c-13.685-1.197-23.845-13.305-22.647-26.99l4.485-51.269c0.361-4.126-2.691-7.764-6.818-8.125c-4.129-0.373-7.765,2.691-8.125,6.818
	l-4.485,51.268c-1.919,21.925,14.358,41.322,36.283,43.241l73.341,6.417c1.166,0.102,2.349,0.153,3.515,0.153
	c20.829,0,37.906-15.664,39.725-36.437c0.947-10.828-2.55-21.036-8.968-28.83c14.736-3.943,29.968-5.945,45.45-5.945
	c96.411,0,174.846,78.436,174.846,174.846S352.41,438.064,256,438.064c-96.412,0-174.847-78.436-174.847-174.847
	c0-20.383-16.583-36.966-36.967-36.966S7.218,242.836,7.218,263.219C7.218,400.398,118.821,512,256,512
	c44.768,0,88.695-12.081,127.03-34.937c3.558-2.122,4.723-6.726,2.602-10.283c-2.123-3.56-6.726-4.723-10.283-2.601
	c-36.013,21.471-77.283,32.82-119.348,32.82c-128.908,0-233.782-104.874-233.782-233.781c0-12.112,9.854-21.966,21.967-21.966
	s21.967,9.854,21.967,21.966c0,104.683,85.166,189.848,189.847,189.848s189.846-85.165,189.846-189.848
	c0-104.682-85.165-189.846-189.846-189.846c-20.652,0-40.906,3.279-60.257,9.735c-3.871-1.696-8.071-2.811-12.508-3.2l-33.578-2.938
	l2.017-23.047c32.079-16.014,68.051-24.485,104.327-24.485c128.907,0,233.781,104.873,233.781,233.78
	c0,70.375-31.376,136.377-86.083,181.083c-3.207,2.621-3.683,7.346-1.062,10.554c1.482,1.815,3.639,2.754,5.812,2.754
	c1.669,0,3.349-0.554,4.742-1.692c58.206-47.566,91.591-117.803,91.591-192.699C504.78,126.041,393.178,14.439,256,14.439z
	 M213.636,353.695l56.456-56.455h79.839c18.759,0,34.021-15.262,34.021-34.021s-15.262-34.019-34.021-34.019H256
	c-9.165,0-17.489,3.649-23.612,9.563c-0.152,0.129-0.303,0.26-0.446,0.403l-66.418,66.418
	c-13.264,13.264-13.264,34.847-0.001,48.112c6.426,6.425,14.969,9.964,24.056,9.964C198.667,363.66,207.211,360.12,213.636,353.695z
	 M256,244.2h93.931c10.488,0,19.021,8.532,19.021,19.019c0,10.488-8.532,19.021-19.021,19.021H256
	c-10.488,0-19.02-8.532-19.02-19.021C236.98,252.732,245.512,244.2,256,244.2z M176.13,316.189l46.477-46.477
	c2.632,13.56,13.338,24.266,26.898,26.898l-46.477,46.478c-3.592,3.592-8.368,5.57-13.449,5.57c-5.08,0-9.857-1.979-13.449-5.57
	C168.714,335.671,168.715,323.605,176.13,316.189z"/>
<g>
</g>
<g>
</g>
<g>
</g>
<g>
</g>
<g>
</g>
<g>
</g>
<g>
</g>
<g>
</g>
<g>
</g>
<g>
</g>
<g>
</g>
<g>
</g>
<g>
</g>
<g>
</g>
<g>
</g>
</svg>
