<?xml version="1.0" encoding="iso-8859-1"?>
<!-- Generator: Adobe Illustrator 19.0.0, SVG Export Plug-In . SVG Version: 6.00 Build 0)  -->
<svg version="1.1" id="Capa_1" xmlns="http://www.w3.org/2000/svg" xmlns:xlink="http://www.w3.org/1999/xlink" x="0px" y="0px"
	 viewBox="0 0 512.004 512.004" style="enable-background:new 0 0 512.004 512.004;" xml:space="preserve">
<path style="fill:#D66274;" d="M343.178,83.133l-178.022,31.39c-20.654,3.642-40.974-7.941-48.364-27.569l-6.8-18.061
	c-3.03-8.049,1.998-16.87,10.468-18.364L363.291,7.712c8.469-1.493,16.212,5.076,16.117,13.676l-0.212,19.298
	C378.965,61.657,363.832,79.491,343.178,83.133z"/>
<path style="fill:#E38892;" d="M347.303,177.609l-16.281-92.332l-153.71,27.103l16.281,92.332c0.834,4.73-0.261,9.608-3.085,13.493
	c-15.604,21.472-24.12,48.057-22.856,75.92c0.378,8.328,7.925,14.464,16.135,13.016l207.762-36.634
	c8.21-1.448,13.204-9.795,10.71-17.75c-8.341-26.615-25.437-48.684-47.443-63.524C350.834,186.547,348.137,182.339,347.303,177.609z
	"/>
<g>
	
		<ellipse transform="matrix(-0.1736 -0.9848 0.9848 -0.1736 15.4496 517.4219)" style="fill:#FFFFFF;" cx="224.819" cy="252.229" rx="16.315" ry="20.487"/>
	
		<ellipse transform="matrix(0.1736 0.9848 -0.9848 0.1736 505.5816 -136.6483)" style="fill:#FFFFFF;" cx="334.213" cy="232.926" rx="16.315" ry="20.487"/>
</g>
<path style="fill:#BBE0F1;" d="M318.307,283.422l-61.277,10.805l31.228,177.102c1.141,6.469,4.455,12.356,9.394,16.687l14.064,12.33
	c8.045,7.054,20.553,4.848,25.7-4.532l8.998-16.397c3.16-5.759,4.261-12.424,3.12-18.893L318.307,283.422z"/>
<path style="opacity:0.2;fill:#254A74;enable-background:new    ;" d="M279.581,311.724l42.398-7.476l-3.672-20.826l-61.277,10.805
	l31.228,177.102c1.141,6.469,4.455,12.356,9.394,16.687l14.064,12.33c8.045,7.054,20.553,4.848,25.7-4.531l7.827-14.262
	C302.318,467.652,295.369,401.263,279.581,311.724z"/>
<g>
	<path style="opacity:0.15;fill:#812B2F;enable-background:new    ;" d="M229.652,103.151l-52.34,9.229l16.281,92.332
		c0.834,4.73-0.261,9.608-3.085,13.493c-15.604,21.472-24.12,48.057-22.856,75.92c0.378,8.328,7.925,14.464,16.135,13.017
		l136.76-24.114C248.611,269.092,229.636,193.649,229.652,103.151z"/>
	<path style="opacity:0.15;fill:#812B2F;enable-background:new    ;" d="M120.46,50.529c-8.469,1.493-13.498,10.315-10.468,18.364
		l6.8,18.061c7.39,19.628,27.71,31.211,48.364,27.569l128.082-22.584c-40.61-10.151-50.806-46.269-45.208-63.904L120.46,50.529z"/>
</g>
<path d="M291.932,218.45c-3.545-2.135-8.156-0.996-10.295,2.553c-1.158,1.923-3.085,3.248-5.286,3.636
	c-2.203,0.387-4.465-0.198-6.21-1.608c-3.223-2.604-7.945-2.102-10.547,1.121c-2.604,3.222-2.102,7.944,1.121,10.547
	c4.082,3.298,9.135,5.058,14.295,5.058c1.313,0,2.633-0.114,3.945-0.346c6.472-1.14,12.132-5.027,15.529-10.665
	C296.622,225.197,295.48,220.589,291.932,218.45z M239.896,225.695c-0.718-4.08-4.604-6.81-8.688-6.084
	c-4.079,0.719-6.804,4.608-6.084,8.688l1.256,7.125c0.641,3.64,3.806,6.199,7.377,6.199c0.432,0,0.87-0.037,1.311-0.115
	c4.079-0.719,6.804-4.608,6.084-8.688L239.896,225.695z M325.74,210.559c-0.718-4.079-4.602-6.807-8.688-6.084
	c-4.079,0.719-6.804,4.608-6.084,8.688l1.256,7.125c0.641,3.64,3.806,6.199,7.377,6.199c0.432,0,0.87-0.037,1.31-0.115
	c4.079-0.719,6.804-4.608,6.084-8.688L325.74,210.559z M409.417,250.514c-8.587-27.397-26.488-51.369-50.407-67.498
	c-2.264-1.526-3.838-3.972-4.321-6.71L339.71,91.36l4.77-0.841c24.19-4.265,41.944-25.188,42.216-49.751l0.212-19.297
	c0.069-6.338-2.662-12.325-7.495-16.426c-4.833-4.1-11.183-5.821-17.425-4.719L176.33,33.063c-4.079,0.719-6.803,4.609-6.083,8.688
	c0.72,4.08,4.614,6.808,8.688,6.083l185.658-32.736c2.506-0.442,4.28,0.678,5.114,1.386c0.834,0.707,2.229,2.274,2.2,4.822
	l-0.212,19.297c-0.191,17.352-12.732,32.131-29.821,35.145l-165.862,29.247c-0.001,0-0.003,0-0.004,0.001
	c-0.001,0-0.003,0.001-0.004,0.001l-12.151,2.143c-17.092,3.011-33.929-6.588-40.042-22.826l-6.8-18.064
	c-0.897-2.384-0.123-4.333,0.419-5.283c0.541-0.949,1.824-2.609,4.333-3.052l23.029-4.06c4.079-0.719,6.803-4.608,6.083-8.688
	c-0.719-4.079-4.61-6.806-8.689-6.083l-23.028,4.06c-6.242,1.1-11.622,4.889-14.761,10.396c-3.139,5.506-3.657,12.066-1.424,17.996
	l6.799,18.062c7.591,20.161,26.858,33.093,47.802,33.092c2.936,0,5.909-0.255,8.885-0.779l4.769-0.841l14.978,84.945
	c0.482,2.738-0.161,5.574-1.767,7.782c-16.959,23.338-25.582,51.986-24.28,80.669c0.279,6.153,3.189,11.886,7.982,15.727
	c3.791,3.038,8.479,4.658,13.266,4.658c1.226,0,2.458-0.107,3.683-0.322l65.857-11.612l29.925,169.715
	c1.432,8.122,5.635,15.589,11.836,21.024l14.064,12.331c4.47,3.919,10.108,6.017,15.932,6.017c1.411,0,2.833-0.123,4.251-0.374
	c7.273-1.282,13.483-5.731,17.037-12.206l8.997-16.395c0.897-1.635,1.676-3.357,2.315-5.121c1.41-3.895-0.603-8.195-4.497-9.606
	c-3.897-1.412-8.195,0.603-9.606,4.497c-0.376,1.039-0.834,2.052-1.361,3.012l-8.998,16.397c-1.354,2.467-3.72,4.162-6.491,4.651
	c-2.771,0.484-5.573-0.295-7.689-2.15l-14.064-12.331c-3.643-3.193-6.111-7.579-6.953-12.35L265.72,300.313l46.505-8.2
	l26.607,150.893c0.642,3.639,3.806,6.198,7.377,6.198c0.433,0,0.871-0.037,1.312-0.115c4.079-0.719,6.803-4.609,6.083-8.688
	l-26.607-150.893l65.858-11.612c6.009-1.06,11.272-4.657,14.441-9.87C410.485,262.774,411.259,256.393,409.417,250.514z
	 M394.477,260.231c-0.941,1.549-2.443,2.575-4.23,2.891l-73.231,12.913c-0.004,0.001-0.008,0.001-0.012,0.001
	s-0.008,0.002-0.012,0.003l-61.254,10.801c-0.003,0.001-0.007,0.001-0.01,0.001c-0.003,0.001-0.007,0.002-0.01,0.002l-73.232,12.913
	c-1.789,0.314-3.55-0.137-4.965-1.271c-1.447-1.16-2.292-2.829-2.377-4.7c-1.148-25.299,6.463-50.574,21.43-71.171
	c3.984-5.481,5.59-12.481,4.404-19.205L186,118.463l138.939-24.499l14.978,84.946c1.185,6.724,5.087,12.752,10.706,16.542
	c21.11,14.234,36.906,35.383,44.479,59.548C395.663,256.787,395.44,258.646,394.477,260.231z"/>
<g>
</g>
<g>
</g>
<g>
</g>
<g>
</g>
<g>
</g>
<g>
</g>
<g>
</g>
<g>
</g>
<g>
</g>
<g>
</g>
<g>
</g>
<g>
</g>
<g>
</g>
<g>
</g>
<g>
</g>
</svg>
