<?xml version="1.0" encoding="iso-8859-1"?>
<!-- Generator: Adobe Illustrator 19.0.0, SVG Export Plug-In . SVG Version: 6.00 Build 0)  -->
<svg version="1.1" id="Capa_1" xmlns="http://www.w3.org/2000/svg" xmlns:xlink="http://www.w3.org/1999/xlink" x="0px" y="0px"
	 viewBox="0 0 512 512" style="enable-background:new 0 0 512 512;" xml:space="preserve">
<path style="fill:#6B7BAB;" d="M356.961,259.911c-16.442,0-29.772-13.33-29.772-29.772v-91.904c0-39.254-31.935-71.19-71.189-71.19
	s-71.189,31.936-71.189,71.19v91.904c0,16.442-13.33,29.772-29.772,29.772c-16.443,0-29.772-13.33-29.772-29.772v-91.904
	C125.267,66.148,183.914,7.5,256,7.5s130.733,58.648,130.733,130.734v91.904C386.733,246.581,373.404,259.911,356.961,259.911z"/>
<path style="opacity:0.2;fill:#254A74;enable-background:new    ;" d="M265.246,67.665c-29.784-15.393-30.542-46.153-18.132-59.857
	c-67.958,4.584-121.848,61.326-121.848,130.426v91.905c0,16.442,13.329,29.772,29.772,29.772c16.442,0,29.772-13.33,29.772-29.772
	v-91.905c0-39.253,31.935-71.189,71.189-71.189C259.135,67.045,262.217,67.27,265.246,67.665z"/>
<path style="fill:#F8E47C;" d="M428.837,210.351L428.837,210.351c-113.968-24.066-231.706-24.066-345.674,0l0,0
	c-12.124,2.56-20.799,13.259-20.799,25.65v224.8c0,12.391,8.676,23.09,20.799,25.65l0,0c113.968,24.066,231.706,24.066,345.674,0
	l0,0c12.124-2.56,20.799-13.259,20.799-25.65v-224.8C449.637,223.61,440.961,212.911,428.837,210.351z"/>
<g>
	<ellipse style="fill:#E38892;" cx="175.16" cy="264.15" rx="29.829" ry="23.754"/>
	<ellipse style="fill:#E38892;" cx="336.84" cy="264.15" rx="29.829" ry="23.754"/>
</g>
<path style="opacity:0.2;fill:#C97B00;enable-background:new    ;" d="M393.305,493.14
	C191.658,431.368,164.799,271.724,183.51,195.464c-33.644,2.926-67.156,7.879-100.347,14.887l0,0
	c-12.124,2.56-20.799,13.259-20.799,25.65v224.8c0,12.391,8.676,23.09,20.799,25.65l0,0
	C185.325,508.023,290.515,510.243,393.305,493.14z"/>
<rect x="62.36" y="297.32" style="fill:#BBE0F1;" width="387.27" height="147.72"/>
<path style="opacity:0.2;fill:#254A74;enable-background:new    ;" d="M185.877,297.323H62.363v147.715h228.814
	C229.847,402.686,198.688,347.922,185.877,297.323z"/>
<path d="M327.212,378.681h14.428l-10.202,10.202c-2.929,2.93-2.929,7.678,0,10.607c1.464,1.464,3.384,2.196,5.303,2.196
	s3.839-0.732,5.303-2.196l10.203-10.203v14.428c0,4.143,3.358,7.5,7.5,7.5s7.5-3.357,7.5-7.5v-14.428l10.203,10.203
	c1.464,1.464,3.384,2.196,5.303,2.196s3.839-0.732,5.303-2.196c2.929-2.93,2.929-7.678,0-10.607l-10.202-10.202h14.428
	c4.142,0,7.5-3.357,7.5-7.5s-3.358-7.5-7.5-7.5h-14.428l10.202-10.202c2.929-2.93,2.929-7.678,0-10.607
	c-2.929-2.928-7.678-2.928-10.606,0l-10.203,10.203v-14.428c0-4.143-3.358-7.5-7.5-7.5s-7.5,3.357-7.5,7.5v14.428l-10.203-10.203
	c-2.929-2.928-7.678-2.928-10.606,0c-2.929,2.93-2.929,7.678,0,10.607l10.202,10.202h-14.428c-4.142,0-7.5,3.357-7.5,7.5
	C319.712,375.323,323.07,378.681,327.212,378.681z M430.387,203.014c-11.992-2.532-24.05-4.787-36.153-6.795v-57.985
	c0-14.301-2.186-28.407-6.499-41.928c-1.259-3.945-5.478-6.122-9.425-4.866c-3.946,1.259-6.125,5.479-4.866,9.425
	c3.842,12.045,5.79,24.617,5.79,37.369v55.632c-14.795-2.182-29.651-3.975-44.544-5.37v-50.263c0-43.39-35.3-78.69-78.689-78.69
	s-78.689,35.3-78.689,78.69v50.263c-14.893,1.395-29.75,3.188-44.544,5.37v-55.632C132.767,70.283,188.049,15,256,15
	c41.53,0,80.024,20.787,102.973,55.604c2.28,3.459,6.932,4.415,10.39,2.135c3.458-2.279,4.414-6.931,2.135-10.389
	C345.765,23.309,302.588,0,256,0c-76.222,0-138.233,62.012-138.233,138.234v57.985c-12.104,2.008-24.162,4.262-36.153,6.795
	c-15.5,3.272-26.75,17.145-26.75,32.987v224.8c0,15.841,11.25,29.715,26.751,32.988C138.84,505.873,197.512,512,256,512
	s117.161-6.127,174.387-18.211c15.499-3.273,26.749-17.147,26.749-32.988v-224.8C457.137,220.159,445.887,206.286,430.387,203.014z
	 M192.311,138.234c0-35.118,28.571-63.69,63.689-63.69s63.689,28.571,63.689,63.69v48.992c-21.202-1.607-42.457-2.425-63.689-2.425
	s-42.487,0.818-63.689,2.425V138.234z M442.137,437.538H137.706c-4.142,0-7.5,3.357-7.5,7.5s3.358,7.5,7.5,7.5h304.431v8.263
	c0,8.794-6.245,16.495-14.849,18.313C371.078,490.982,313.449,497,256,497s-115.079-6.018-171.288-17.887
	c-8.604-1.817-14.849-9.519-14.849-18.313v-8.263h32.348c4.142,0,7.5-3.357,7.5-7.5s-3.358-7.5-7.5-7.5H69.863V304.823h372.273
	L442.137,437.538L442.137,437.538z M442.137,289.823H69.863v-53.822c0-8.794,6.245-16.495,14.85-18.312
	C140.922,205.82,198.551,199.802,256,199.802s115.079,6.018,171.288,17.888l0,0c8.604,1.816,14.849,9.518,14.849,18.312V289.823z
	 M223.465,378.681h14.428l-10.202,10.202c-2.929,2.93-2.929,7.678,0,10.607c1.464,1.464,3.384,2.196,5.303,2.196
	c1.92,0,3.839-0.732,5.303-2.196l10.203-10.203v14.428c0,4.143,3.358,7.5,7.5,7.5c4.142,0,7.5-3.357,7.5-7.5v-14.428l10.203,10.203
	c1.464,1.464,3.384,2.196,5.303,2.196s3.839-0.732,5.303-2.196c2.929-2.93,2.929-7.678,0-10.607l-10.202-10.202h14.428
	c4.142,0,7.5-3.357,7.5-7.5s-3.358-7.5-7.5-7.5h-14.428l10.202-10.202c2.929-2.93,2.929-7.678,0-10.607
	c-2.929-2.928-7.678-2.928-10.607,0L263.5,353.074v-14.428c0-4.143-3.358-7.5-7.5-7.5s-7.5,3.357-7.5,7.5v14.428l-10.203-10.203
	c-2.929-2.928-7.678-2.928-10.606,0c-2.929,2.93-2.929,7.678,0,10.607l10.202,10.202h-14.428c-4.142,0-7.5,3.357-7.5,7.5
	S219.323,378.681,223.465,378.681z M277.658,235.268c-3.122-2.724-7.861-2.397-10.581,0.726c-2.797,3.209-6.834,5.049-11.076,5.049
	c-4.242,0-8.279-1.84-11.076-5.049c-2.722-3.124-7.459-3.448-10.581-0.726c-3.123,2.721-3.448,7.459-0.726,10.581
	c5.646,6.479,13.805,10.193,22.384,10.193s16.737-3.715,22.384-10.193C281.105,242.727,280.78,237.988,277.658,235.268z
	 M119.718,378.681h14.428l-10.202,10.202c-2.929,2.93-2.929,7.678,0,10.607c1.464,1.464,3.384,2.196,5.303,2.196
	c1.919,0,3.839-0.732,5.303-2.196l10.203-10.203v14.428c0,4.143,3.358,7.5,7.5,7.5s7.5-3.357,7.5-7.5v-14.428l10.203,10.203
	c1.464,1.464,3.384,2.196,5.303,2.196s3.839-0.732,5.303-2.196c2.929-2.93,2.929-7.678,0-10.607l-10.202-10.202h14.428
	c4.142,0,7.5-3.357,7.5-7.5s-3.358-7.5-7.5-7.5H170.36l10.202-10.202c2.929-2.93,2.929-7.678,0-10.607
	c-2.929-2.928-7.678-2.928-10.606,0l-10.203,10.203v-14.428c0-4.143-3.358-7.5-7.5-7.5s-7.5,3.357-7.5,7.5v14.428l-10.203-10.203
	c-2.929-2.928-7.678-2.928-10.607,0c-2.929,2.93-2.929,7.678,0,10.607l10.202,10.202h-14.428c-4.142,0-7.5,3.357-7.5,7.5
	C112.218,375.323,115.576,378.681,119.718,378.681z M319.457,222.42c-4.142,0-7.5,3.357-7.5,7.5v10.533c0,4.143,3.358,7.5,7.5,7.5
	s7.5-3.357,7.5-7.5V229.92C326.957,225.777,323.599,222.42,319.457,222.42z M192.544,222.42c-4.142,0-7.5,3.357-7.5,7.5v10.533
	c0,4.143,3.358,7.5,7.5,7.5s7.5-3.357,7.5-7.5V229.92C200.044,225.777,196.686,222.42,192.544,222.42z"/>
<g>
</g>
<g>
</g>
<g>
</g>
<g>
</g>
<g>
</g>
<g>
</g>
<g>
</g>
<g>
</g>
<g>
</g>
<g>
</g>
<g>
</g>
<g>
</g>
<g>
</g>
<g>
</g>
<g>
</g>
</svg>
