<?xml version="1.0" encoding="iso-8859-1"?>
<!-- Generator: Adobe Illustrator 19.0.0, SVG Export Plug-In . SVG Version: 6.00 Build 0)  -->
<svg version="1.1" id="Capa_1" xmlns="http://www.w3.org/2000/svg" xmlns:xlink="http://www.w3.org/1999/xlink" x="0px" y="0px"
	 viewBox="0 0 511.999 511.999" style="enable-background:new 0 0 511.999 511.999;" xml:space="preserve">
<path style="fill:#72CDA2;" d="M177.975,320.385L177.975,320.385c-15.34-42.146-23.188-86.651-23.188-131.502l0,0
	c0-16.774,13.598-30.372,30.372-30.372l0,0c13.003,0,23.544-10.542,23.544-23.544V31.044c0-13.003-10.542-23.544-23.544-23.544
	h-57.97c-38.381,0-69.496,31.115-69.496,69.496l0,0c0,130.197,22.78,259.39,67.31,381.736l0,0
	c13.127,36.066,53.007,54.663,89.073,41.535l54.475-19.827c12.218-4.448,18.519-17.958,14.071-30.177l-35.543-97.655
	c-4.448-12.218-17.958-18.519-30.177-14.071l0,0C201.14,344.274,183.712,336.147,177.975,320.385z"/>
<g>
	<path style="fill:#5B9675;" d="M185.159,7.5h-22.343c-1.792,29.049-4.563,95.078,7.256,155.027
		c4.446-2.551,9.595-4.017,15.087-4.017l0,0c13.003,0,23.544-10.541,23.544-23.544V31.044C208.704,18.041,198.162,7.5,185.159,7.5z"
		/>
	<path style="fill:#5B9675;" d="M268.551,480.44l-20.996,7.642c-11.618-26.684-36.805-87.783-46.204-148.159
		c5.051,0.876,10.39,0.493,15.551-1.386l0,0c12.218-4.448,25.73,1.853,30.177,14.071l35.543,97.655
		C287.07,462.482,280.77,475.993,268.551,480.44z"/>
</g>
<path style="fill:#BBE0F1;" d="M321.626,56.362c0.695,3.939,2.892,7.613,6.427,10.089c48.742,34.129,81.259,85.103,91.561,143.531
	c10.303,58.427-2.82,117.449-36.949,166.191c-4.951,7.071-3.233,16.815,3.838,21.766c7.071,4.952,16.816,3.233,21.767-3.838
	c38.918-55.581,53.88-122.896,42.127-189.546S401.562,79.764,345.981,40.847c-7.071-4.952-16.816-3.233-21.767,3.838
	C321.739,48.22,320.931,52.424,321.626,56.362z"/>
<path style="fill:#7F9AE6;" d="M285.785,107.548c0.695,3.939,2.892,7.613,6.427,10.089c35.047,24.541,58.429,61.191,65.836,103.2
	c7.408,42.01-2.028,84.447-26.569,119.495c-4.951,7.071-3.233,16.815,3.838,21.766c7.071,4.952,16.816,3.233,21.767-3.838
	c29.33-41.887,40.604-92.619,31.748-142.851c-8.858-50.232-36.803-94.048-78.69-123.377c-7.071-4.952-16.816-3.233-21.767,3.838
	C285.898,99.406,285.09,103.609,285.785,107.548z"/>
<path style="fill:#6B7BAB;" d="M249.945,158.734c0.695,3.94,2.891,7.613,6.428,10.089c21.353,14.952,35.598,37.279,40.11,62.871
	c4.513,25.591-1.237,51.444-16.188,72.798c-4.952,7.071-3.233,16.815,3.838,21.766c7.071,4.951,16.816,3.233,21.767-3.838
	c19.741-28.192,27.33-62.341,21.367-96.154c-5.962-33.813-24.772-63.307-52.966-83.047c-7.071-4.952-16.816-3.232-21.767,3.838
	C250.059,150.591,249.25,154.795,249.945,158.734z"/>
<g>
	<path style="opacity:0.2;fill:#254A74;enable-background:new    ;" d="M326.279,221.293c0.357,1.648,0.691,3.303,0.986,4.972
		c5.963,33.813-1.626,67.962-21.367,96.154c-4.951,7.072-14.696,8.789-21.767,3.838c-7.071-4.951-8.79-14.695-3.838-21.766
		c14.951-21.353,20.701-47.207,16.188-72.798c-0.802-4.548-1.917-8.991-3.319-13.309
		C304.373,231.584,321.569,229.218,326.279,221.293z"/>
	<path style="opacity:0.2;fill:#254A74;enable-background:new    ;" d="M388.831,215.409c8.858,50.232-2.418,100.963-31.748,142.851
		c-4.951,7.072-14.696,8.79-21.767,3.838c-7.071-4.951-8.789-14.696-3.838-21.766c24.541-35.047,33.976-77.485,26.569-119.495
		c-1.288-7.302-3.069-14.436-5.299-21.379c12.51,15.016,28.74,14.566,34.398,7.546C387.766,209.786,388.333,212.585,388.831,215.409
		z"/>
	<path style="opacity:0.2;fill:#254A74;enable-background:new    ;" d="M450.397,204.554c11.752,66.65-3.209,133.966-42.127,189.546
		c-4.951,7.072-14.696,8.79-21.767,3.838c-7.071-4.951-8.789-14.695-3.838-21.766c34.129-48.742,47.252-107.763,36.949-166.191
		c-1.324-7.511-3.022-14.895-5.068-22.14c10.577,12.865,26.28,15.002,34.618,10.227
		C449.602,200.221,450.015,202.382,450.397,204.554z"/>
</g>
<path style="opacity:0.2;fill:#2C6245;enable-background:new    ;" d="M214.076,500.268l54.475-19.827
	c12.218-4.448,18.519-17.958,14.071-30.177l-6.368-17.495C131.072,418.207,52.057,152.625,92.558,16.752
	C71.727,28.754,57.692,51.229,57.692,76.996l0,0c0,130.197,22.78,259.39,67.31,381.736l0,0
	C138.131,494.799,178.01,513.394,214.076,500.268z"/>
<path d="M457.783,203.251c-8.119-46.037-28.325-88.955-58.436-124.113c-2.694-3.146-7.429-3.513-10.575-0.817
	c-3.146,2.694-3.512,7.429-0.818,10.575c28.367,33.122,47.405,73.566,55.057,116.962c11.404,64.678-3.116,130.003-40.885,183.942
	c-1.246,1.779-3.109,2.967-5.247,3.344c-2.138,0.378-4.296-0.101-6.075-1.347c-3.671-2.571-4.567-7.65-1.996-11.321
	C424.087,330.09,437.65,269.08,427,208.68c-10.651-60.4-44.263-113.093-94.646-148.371c-1.779-1.245-2.966-3.109-3.343-5.248
	c-0.377-2.138,0.102-4.295,1.347-6.074c1.246-1.779,3.109-2.967,5.248-3.344c2.139-0.377,4.295,0.103,6.075,1.348
	c7.819,5.475,15.377,11.433,22.465,17.708c3.101,2.745,7.841,2.457,10.587-0.644c2.746-3.102,2.458-7.841-0.644-10.587
	c-7.513-6.652-15.521-12.965-23.805-18.765c-5.062-3.544-11.199-4.907-17.283-3.832c-6.085,1.072-11.386,4.45-14.93,9.512
	s-4.904,11.198-3.831,17.281c1.073,6.085,4.451,11.387,9.512,14.93c47.101,32.98,78.522,82.234,88.477,138.69
	c9.955,56.453-2.727,113.484-35.706,160.586c-7.315,10.447-4.767,24.897,5.68,32.212c3.933,2.754,8.516,4.189,13.217,4.189
	c1.35,0,2.709-0.118,4.065-0.357c6.085-1.073,11.386-4.451,14.929-9.513C454.48,341.181,469.883,271.876,457.783,203.251z
	 M334.651,224.963c-6.311-35.786-26.216-67-56.048-87.888c-5.061-3.544-11.199-4.907-17.283-3.832
	c-6.084,1.073-11.385,4.451-14.929,9.512c-3.543,5.061-4.904,11.197-3.832,17.281v0.001c1.073,6.085,4.452,11.386,9.512,14.929
	c19.712,13.803,32.863,34.411,37.026,58.029c4.165,23.617-1.143,47.48-14.945,67.192c-3.544,5.061-4.905,11.198-3.833,17.283
	c1.073,6.084,4.451,11.385,9.512,14.929c3.933,2.754,8.515,4.189,13.217,4.189c1.349,0,2.709-0.118,4.065-0.357
	c6.085-1.072,11.386-4.451,14.929-9.512C332.932,296.888,340.962,260.749,334.651,224.963z M299.754,318.118
	c-1.245,1.779-3.108,2.966-5.247,3.343c-2.138,0.377-4.296-0.102-6.075-1.347c-1.779-1.246-2.966-3.109-3.343-5.247
	c-0.377-2.139,0.101-4.296,1.347-6.075c16.101-22.995,22.291-50.839,17.431-78.401c-4.86-27.563-20.2-51.61-43.195-67.711
	c-1.778-1.245-2.966-3.109-3.343-5.248l0,0c-0.376-2.139,0.102-4.296,1.347-6.074c1.246-1.778,3.109-2.966,5.248-3.343
	c2.137-0.378,4.295,0.101,6.075,1.347c26.552,18.591,44.267,46.364,49.881,78.206C325.494,259.408,318.347,291.566,299.754,318.118z
	 M254.126,350.043c-5.855-16.084-23.703-24.405-39.789-18.554c-5.74,2.09-11.951,1.819-17.488-0.764
	c-5.537-2.582-9.738-7.165-11.826-12.906c-15.086-41.448-22.735-84.829-22.735-128.936c0-12.611,10.261-22.872,22.872-22.872
	c17.117,0,31.044-13.926,31.044-31.045V31.044C216.202,13.926,202.277,0,185.159,0h-57.971C84.733,0,50.193,34.54,50.193,76.996
	c0,116.525,18.027,231.874,53.582,342.842c1.265,3.945,5.486,6.115,9.431,4.854c3.944-1.264,6.118-5.486,4.854-9.431
	C82.979,305.773,65.192,191.965,65.192,76.996c0-34.184,27.812-61.996,61.996-61.996h27.691
	c-2.86,54.217-0.485,103.766,6.913,144.113c-8.823,6.94-14.504,17.7-14.504,29.77c0,45.862,7.954,90.97,23.64,134.067
	c3.46,9.506,10.415,17.095,19.582,21.37c1.393,0.65,2.815,1.2,4.254,1.673c6.848,40.439,21.552,87.792,42.778,137.754l-26.03,9.474
	c-15.56,5.663-32.396,4.929-47.404-2.07c-15.008-6.998-26.393-19.422-32.058-34.983c-0.831-2.283-1.654-4.569-2.47-6.857
	c-1.392-3.902-5.681-5.939-9.583-4.546c-3.901,1.391-5.937,5.682-4.546,9.583c0.827,2.319,1.662,4.637,2.504,6.951
	c7.035,19.325,21.173,34.755,39.812,43.447c10.352,4.827,21.402,7.256,32.494,7.256c8.881,0,17.787-1.557,26.38-4.685l54.476-19.827
	c16.085-5.854,24.409-23.704,18.554-39.79L254.126,350.043z M169.898,14.999h15.26c8.847,0,16.044,7.197,16.044,16.044v103.922
	c0,8.848-7.198,16.045-16.044,16.045c-3.231,0-6.368,0.409-9.364,1.174C169.162,113.556,167.134,66.484,169.898,14.999z
	 M265.987,473.393l-14.329,5.216c-20.202-47.429-34.404-92.352-41.383-130.915c3.102-0.315,6.187-1.015,9.194-2.109
	c8.315-3.028,17.538,1.275,20.564,9.59l35.543,97.655C278.601,461.141,274.3,470.368,265.987,473.393z M396.217,214.106
	c-9.205-52.204-38.246-97.739-81.774-128.218c-5.061-3.544-11.199-4.905-17.283-3.832c-6.084,1.072-11.385,4.45-14.93,9.512
	c-3.543,5.06-4.903,11.197-3.831,17.281v0.001c1.073,6.084,4.451,11.385,9.512,14.929c33.408,23.392,55.693,58.323,62.752,98.36
	c7.06,40.036-1.935,80.483-25.327,113.89c-7.315,10.447-4.767,24.897,5.68,32.212c3.933,2.754,8.516,4.189,13.217,4.189
	c1.35,0,2.709-0.118,4.065-0.357c6.085-1.073,11.386-4.451,14.929-9.513C393.706,319.034,405.422,266.311,396.217,214.106z
	 M350.94,353.958c-1.246,1.779-3.109,2.967-5.247,3.344c-2.137,0.377-4.296-0.101-6.075-1.347c-3.672-2.571-4.567-7.65-1.997-11.322
	c25.69-36.688,35.566-81.116,27.812-125.099c-7.755-43.981-32.232-82.35-68.92-108.041c-1.779-1.245-2.966-3.109-3.343-5.247
	c-0.377-2.14,0.101-4.297,1.346-6.075c1.246-1.779,3.109-2.967,5.248-3.344c2.139-0.377,4.295,0.103,6.075,1.348
	c40.246,28.181,67.097,70.278,75.606,118.537C389.955,264.97,379.122,313.712,350.94,353.958z"/>
<g>
</g>
<g>
</g>
<g>
</g>
<g>
</g>
<g>
</g>
<g>
</g>
<g>
</g>
<g>
</g>
<g>
</g>
<g>
</g>
<g>
</g>
<g>
</g>
<g>
</g>
<g>
</g>
<g>
</g>
</svg>
