<?xml version="1.0" encoding="iso-8859-1"?>
<!-- Generator: Adobe Illustrator 19.0.0, SVG Export Plug-In . SVG Version: 6.00 Build 0)  -->
<svg version="1.1" id="Capa_1" xmlns="http://www.w3.org/2000/svg" xmlns:xlink="http://www.w3.org/1999/xlink" x="0px" y="0px"
	 viewBox="0 0 511.999 511.999" style="enable-background:new 0 0 511.999 511.999;" xml:space="preserve">
<path style="fill:#7F9AE6;" d="M428.755,393.72L87.764,453.846c-15.146,2.671-29.587-7.442-32.258-22.588L7.926,161.422
	c-2.671-15.146,7.442-29.587,22.588-32.258l402.717-71.01c15.146-2.671,29.587,7.442,32.258,22.588l36.695,208.11
	C510.867,338.088,477.991,385.039,428.755,393.72z"/>
<path style="fill:#FFFFFF;" d="M92.4,396.322L54.545,181.634c-1.289-7.313,3.593-14.286,10.906-15.576l347.57-61.286
	c7.313-1.289,14.286,3.593,15.576,10.906l37.855,214.688c1.289,7.313-3.593,14.286-10.906,15.576l-347.57,61.286
	C100.662,408.517,93.689,403.635,92.4,396.322z"/>
<path style="fill:#BBE0F1;" d="M92.4,396.322L54.545,181.634c-1.289-7.313,3.593-14.286,10.906-15.576l347.57-61.286
	c7.313-1.289,14.286,3.593,15.576,10.906l37.855,214.688c1.289,7.313-3.593,14.286-10.906,15.576l-347.57,61.286
	C100.662,408.517,93.689,403.635,92.4,396.322z"/>
<path style="fill:#F8E47C;" d="M413.02,104.773l-197.865,34.889l29.176,165.468l196.911-117.726l-12.647-71.727
	C427.305,108.366,420.332,103.483,413.02,104.773z"/>
<path style="fill:#72CDA2;" d="M92.4,396.322c1.289,7.313,8.263,12.196,15.576,10.906l130.95-23.09L215.99,254.063L71.798,279.488
	L92.4,396.322z"/>
<path style="opacity:0.15;fill:#2C6245;enable-background:new    ;" d="M107.975,407.228l114.029-20.107
	c-49.751-15.04-77.937-63.875-93.059-117.71l-57.146,10.077l20.601,116.834C93.689,403.635,100.662,408.517,107.975,407.228z"/>
<polygon style="fill:#6B7BAB;" points="437.916,168.54 258.083,271.817 234.189,136.305 176.833,146.419 189.419,217.801 
	64.797,239.776 74.909,297.133 199.532,275.158 219.348,387.534 276.704,377.42 268.836,332.803 448.67,229.526 "/>
<path style="fill:#F0F2FF;" d="M501.677,285.972l-23.099,7.365c-14.482,4.617-29.518,7.269-44.706,7.883l0,0
	c-12.19,0.493-20.566,12.455-16.86,24.078l0,0c4.618,14.482,7.269,29.518,7.883,44.706l0.98,24.225l8.569-1.511
	c46.094-8.128,76.872-52.082,68.744-98.176L501.677,285.972z"/>
<path style="opacity:0.15;fill:#8C6023;enable-background:new    ;" d="M424.179,304.431c-6.424,4.415-9.764,12.72-7.167,20.866l0,0
	c4.617,14.482,7.269,29.518,7.883,44.706l0.98,24.225l8.569-1.511c28.755-5.07,51.544-24.084,62.652-48.86
	C460.565,362.211,423.499,335.027,424.179,304.431z"/>
<path style="opacity:0.2;fill:#254A74;enable-background:new    ;" d="M219.108,386.174l0.24,1.36l2.578-0.454
	C220.977,386.792,220.04,386.486,219.108,386.174z M417.012,325.297L417.012,325.297c-0.198-0.621-0.355-1.244-0.485-1.865
	c-86.711,63.18-149.432,77.281-194.482,63.682l-114.07,20.114c-7.313,1.289-14.286-3.593-15.576-10.906l-17.49-99.189l59.413-10.476
	c-21.35-61.999-23.14-135.344-19.441-172.369l-84.369,14.877c-15.146,2.671-25.258,17.113-22.588,32.258l47.579,269.836
	c2.671,15.146,17.113,25.259,32.258,22.588l340.992-60.126c0.009-0.002,0.018-0.004,0.027-0.005l-2.908,0.513l-0.98-24.225
	C424.281,354.816,421.629,339.779,417.012,325.297z"/>
<path d="M107.378,442.773l-20.917,3.688c-5.351,0.94-10.751-0.253-15.203-3.371c-4.451-3.117-7.423-7.781-8.367-13.134
	L15.312,160.12c-1.948-11.049,5.456-21.622,16.505-23.571l402.718-71.01c11.053-1.947,21.621,5.456,23.57,16.505l2.91,16.504
	c0.72,4.079,4.614,6.807,8.688,6.083c4.079-0.719,6.803-4.609,6.083-8.688l-2.91-16.504c-3.385-19.194-21.749-32.06-40.946-28.67
	L29.211,121.778c-19.194,3.385-32.055,21.754-28.67,40.947L48.12,432.561c3.021,17.128,17.97,29.212,34.79,29.211
	c2.03,0,4.089-0.176,6.155-0.541l20.916-3.688c4.08-0.719,6.804-4.608,6.084-8.688C115.345,444.777,111.456,442.051,107.378,442.773
	z M510.574,293.239l-1.51-8.567c0-0.001,0-0.002-0.001-0.003l-27.16-154.028c-0.719-4.079-4.611-6.803-8.689-6.083
	c-4.079,0.719-6.803,4.609-6.083,8.689l26.022,147.571l-16.853,5.374c-3.155,1.006-6.341,1.901-9.547,2.711L435.98,114.378
	c-2.005-11.375-12.894-18.996-24.264-16.99l-178.825,31.531c-0.002,0-0.004,0.001-0.007,0.001c-0.002,0-0.004,0.001-0.007,0.001
	L64.149,158.673c-11.374,2.005-18.995,12.89-16.99,24.265l10.251,58.135c0,0.002,0,0.005,0.001,0.007
	c0,0.003,0.001,0.005,0.002,0.007l27.603,156.537c1.789,10.149,10.647,17.311,20.616,17.311c1.203,0,2.423-0.104,3.648-0.32
	l307.407-54.204c0.335,3.289,0.583,6.589,0.717,9.897l0.715,17.674l-276.371,48.732c-4.079,0.719-6.803,4.608-6.083,8.689
	c0.642,3.639,3.806,6.198,7.377,6.198c0.433,0,0.871-0.037,1.311-0.115l285.708-50.378c0.009-0.002,0.022-0.004,0.032-0.006
	l5.657-0.998c24.266-4.278,45.413-17.75,59.546-37.934C509.426,341.984,514.853,317.504,510.574,293.239z M414.322,112.158
	c1.563-0.275,3.142,0.074,4.442,0.985c1.301,0.911,2.169,2.274,2.445,3.838l8.406,47.676l-166.003,95.335l-20.737-117.604
	L414.322,112.158z M61.93,180.333c-0.568-3.229,1.595-6.319,4.823-6.889l103.995-18.338l9.982,56.611l-109.851,19.37L61.93,180.333z
	 M106.673,399.842c-3.234,0.565-6.318-1.596-6.888-4.823l-16.187-91.803l109.851-19.37l17.22,97.658L106.673,399.842z M225.44,378.9
	l-18.522-105.045c-0.345-1.958-1.454-3.7-3.084-4.841c-1.629-1.141-3.642-1.588-5.604-1.242L80.993,288.444l-7.509-42.585
	l117.237-20.672c1.959-0.345,3.7-1.454,4.841-3.084c1.141-1.629,1.588-3.646,1.242-5.605l-11.285-63.997l42.585-7.509
	l22.592,128.127c0.424,2.406,1.994,4.455,4.208,5.491c1.01,0.472,2.095,0.706,3.178,0.706c1.292,0,2.582-0.334,3.735-0.996
	l170.568-97.956l7.984,45.279L265.101,326.299c-2.739,1.573-4.199,4.695-3.65,7.807l6.574,37.286L225.44,378.9z M413.337,304.782
	c-4.689,6.696-5.954,15.004-3.471,22.793c1.884,5.91,3.404,11.921,4.598,17.995l-131.669,23.217l-5.66-32.102l166.003-95.333
	l8.912,50.541c-6.116,0.955-12.285,1.583-18.482,1.834C425.4,294.056,418.026,298.086,413.337,304.782z M483.005,353.565
	c-11.835,16.902-29.543,28.183-49.864,31.766l-0.119,0.021l-0.633-15.65c-0.262-6.485-0.9-12.941-1.869-19.345
	c0-0.001,0-0.002,0-0.003c0-0.001,0-0.001,0-0.001c-1.4-9.255-3.513-18.399-6.362-27.335c-1.05-3.292-0.515-6.803,1.467-9.633
	c1.981-2.83,5.098-4.533,8.55-4.673c15.857-0.642,31.563-3.411,46.683-8.232l14.924-4.759l0.022,0.12
	C499.385,316.163,494.84,336.663,483.005,353.565z"/>
<g>
</g>
<g>
</g>
<g>
</g>
<g>
</g>
<g>
</g>
<g>
</g>
<g>
</g>
<g>
</g>
<g>
</g>
<g>
</g>
<g>
</g>
<g>
</g>
<g>
</g>
<g>
</g>
<g>
</g>
</svg>
