<?xml version="1.0" encoding="iso-8859-1"?>
<!-- Generator: Adobe Illustrator 19.0.0, SVG Export Plug-In . SVG Version: 6.00 Build 0)  -->
<svg version="1.1" id="Capa_1" xmlns="http://www.w3.org/2000/svg" xmlns:xlink="http://www.w3.org/1999/xlink" x="0px" y="0px"
	 viewBox="0 0 511.999 511.999" style="enable-background:new 0 0 511.999 511.999;" xml:space="preserve">
<circle style="fill:#6B7BAB;" cx="256" cy="393.249" r="68.33"/>
<path style="fill:#BBE0F1;" d="M483.384,186.981c-5.404,0-10.808-2.061-14.931-6.184C411.608,123.951,336.157,92.645,256,92.645
	s-155.607,31.306-212.453,88.152c-8.246,8.246-21.615,8.246-29.861,0c-8.247-8.246-8.247-21.616,0-29.862
	C78.506,86.113,164.563,50.414,256,50.414s177.494,35.699,242.315,100.521c8.247,8.246,8.247,21.616,0,29.862
	C494.192,184.92,488.788,186.981,483.384,186.981z"/>
<path style="fill:#7F9AE6;" d="M423.689,246.677c-5.404,0-10.808-2.062-14.931-6.184c-40.875-40.875-95.125-63.386-152.758-63.386
	s-111.883,22.511-152.758,63.386c-8.246,8.246-21.615,8.246-29.861,0c-8.247-8.246-8.247-21.616,0-29.862
	c48.851-48.851,113.706-75.755,182.62-75.755s133.768,26.904,182.62,75.755c8.247,8.247,8.247,21.616,0,29.862
	C434.496,244.616,429.093,246.677,423.689,246.677z"/>
<path style="fill:#6B7BAB;" d="M363.992,306.373c-5.405,0-10.808-2.061-14.931-6.185c-24.904-24.903-57.954-38.618-93.062-38.618
	s-68.158,13.715-93.062,38.618c-8.246,8.247-21.615,8.246-29.861,0.001c-8.246-8.246-8.247-21.616,0-29.862
	c32.88-32.881,76.536-50.988,122.924-50.988s90.044,18.108,122.923,50.988c8.247,8.246,8.246,21.616,0,29.862
	C374.8,304.311,369.396,306.373,363.992,306.373z"/>
<g>
	<ellipse style="fill:#E38892;" cx="208.32" cy="393.229" rx="17.592" ry="14.01"/>
	<ellipse style="fill:#E38892;" cx="303.68" cy="393.229" rx="17.592" ry="14.01"/>
</g>
<g>
	<path style="opacity:0.2;fill:#254A74;enable-background:new    ;" d="M306.408,439.379
		c-83.938,12.158-112.198-54.194-93.226-99.368c-15.554,12.526-25.516,31.715-25.516,53.239c0,37.74,30.594,68.334,68.334,68.334
		C275.958,461.584,293.914,453.024,306.408,439.379z"/>
	<path style="opacity:0.2;fill:#254A74;enable-background:new    ;" d="M262.847,219.483c-2.276-0.088-4.557-0.145-6.847-0.145
		c-46.388,0-90.044,18.108-122.923,50.989c-8.247,8.246-8.246,21.616,0,29.862s21.615,8.246,29.861-0.001
		c24.904-24.903,57.954-38.618,93.062-38.618c6.24,0,12.412,0.442,18.488,1.294C254.295,251.045,253.407,227.61,262.847,219.483z"/>
	<path style="opacity:0.2;fill:#254A74;enable-background:new    ;" d="M256,134.876c-68.913,0-133.768,26.904-182.62,75.755
		c-8.247,8.246-8.247,21.616,0,29.862c8.246,8.246,21.615,8.246,29.861,0c40.875-40.875,95.125-63.386,152.758-63.386
		c10.017,0,19.929,0.696,29.689,2.034c-22.915-13.123-26.124-34.822-18.11-43.999C263.732,134.974,259.874,134.876,256,134.876z"/>
	<path style="opacity:0.2;fill:#254A74;enable-background:new    ;" d="M256,50.414c-91.437,0-177.494,35.699-242.315,100.521
		c-8.247,8.246-8.247,21.616,0,29.862c8.246,8.246,21.615,8.246,29.861,0C100.392,123.951,175.843,92.645,256,92.645
		c10.304,0,20.528,0.526,30.646,1.549c-19.599-11.054-26.126-31.447-21.729-43.662C261.951,50.456,258.979,50.414,256,50.414z"/>
</g>
<path d="M226.075,373.043c0-4.142-3.357-7.5-7.5-7.5s-7.5,3.358-7.5,7.5v6.212c0,4.142,3.357,7.5,7.5,7.5s7.5-3.358,7.5-7.5V373.043
	z M300.925,379.255v-6.212c0-4.142-3.357-7.5-7.5-7.5s-7.5,3.358-7.5,7.5v6.212c0,4.142,3.357,7.5,7.5,7.5
	S300.925,383.397,300.925,379.255z M256,391.525c5.949,0,11.606-2.576,15.522-7.067c2.721-3.123,2.396-7.86-0.727-10.582
	c-3.123-2.722-7.859-2.397-10.582,0.726c-1.08,1.24-2.577,1.923-4.213,1.923c-1.636,0-3.133-0.683-4.213-1.923
	c-2.722-3.123-7.46-3.448-10.582-0.726c-3.123,2.722-3.447,7.459-0.727,10.582C244.394,388.95,250.051,391.525,256,391.525z
	 M256,317.417c-41.815,0-75.834,34.019-75.834,75.834c0,17.196,5.916,34.039,16.658,47.428c2.593,3.232,7.313,3.749,10.543,1.156
	c3.231-2.592,3.749-7.313,1.156-10.543c-8.738-10.892-13.357-24.046-13.357-38.041c0-33.544,27.29-60.834,60.834-60.834
	s60.834,27.29,60.834,60.834s-27.29,60.834-60.834,60.834c-7.452,0-14.727-1.329-21.622-3.953c-3.868-1.47-8.203,0.472-9.676,4.344
	c-1.473,3.871,0.472,8.204,4.344,9.676c8.605,3.273,17.673,4.933,26.954,4.933c41.815,0,75.834-34.019,75.834-75.834
	C331.834,351.435,297.815,317.417,256,317.417z M503.618,145.631c-11.738-11.739-24.354-22.713-37.496-32.619
	c-3.31-2.494-8.011-1.832-10.504,1.475c-2.493,3.308-1.833,8.01,1.475,10.503c12.588,9.487,24.672,20,35.919,31.247
	c2.571,2.571,3.988,5.991,3.988,9.627s-1.417,7.056-3.989,9.628c-2.571,2.571-5.99,3.987-9.627,3.987
	c-3.637,0-7.056-1.416-9.627-3.987C415.494,117.231,338.16,85.145,256,85.145S96.506,117.231,38.244,175.494
	c-5.309,5.308-13.947,5.308-19.256,0c-2.571-2.572-3.988-5.991-3.988-9.628s1.417-7.056,3.989-9.628
	C82.393,92.833,166.565,57.914,256,57.914c61.142,0,120.846,16.543,172.658,47.842c3.544,2.143,8.155,1.005,10.298-2.541
	c2.142-3.545,1.004-8.156-2.542-10.297C382.262,60.204,319.875,42.914,256,42.914c-93.441,0-181.381,36.479-247.617,102.717
	C2.977,151.036,0,158.222,0,165.866s2.977,14.83,8.383,20.235c11.155,11.155,29.309,11.157,40.468-0.001
	C104.28,130.671,177.847,100.145,256,100.145s151.721,30.526,207.149,85.955c5.405,5.404,12.591,8.381,20.234,8.381
	c7.644,0,14.829-2.977,20.233-8.38c5.405-5.405,8.383-12.591,8.383-20.235C512,158.222,509.022,151.036,503.618,145.631z
	 M256,127.376c-70.916,0-137.655,27.684-187.922,77.952c-5.405,5.405-8.383,12.591-8.383,20.234c0,7.644,2.978,14.83,8.382,20.234
	c11.158,11.157,29.311,11.157,40.469,0c39.457-39.458,91.824-61.189,147.454-61.189s107.997,21.73,147.454,61.189
	c5.405,5.405,12.591,8.381,20.234,8.381s14.829-2.977,20.233-8.381c5.405-5.405,8.383-12.591,8.383-20.234
	c0-7.644-2.978-14.83-8.382-20.234C393.655,155.06,326.916,127.376,256,127.376z M433.315,235.19
	c-2.571,2.572-5.99,3.988-9.627,3.988c-3.637,0-7.056-1.416-9.627-3.988C371.77,192.898,315.636,169.607,256,169.607
	S140.23,192.898,97.939,235.19c-5.309,5.309-13.946,5.309-19.255-0.001c-2.571-2.572-3.988-5.991-3.988-9.627
	c0-3.637,1.417-7.056,3.989-9.628c47.434-47.435,110.406-73.558,177.315-73.558s129.882,26.124,177.316,73.559
	c2.571,2.572,3.988,5.991,3.988,9.627C437.305,229.199,435.888,232.618,433.315,235.19z M256,211.838
	c-48.393,0-93.931,18.888-128.226,53.185c-5.405,5.405-8.383,12.591-8.382,20.235c0,7.643,2.977,14.829,8.381,20.234
	c5.405,5.405,12.591,8.381,20.234,8.381c7.644,0,14.829-2.977,20.234-8.382c23.486-23.487,54.653-36.422,87.758-36.422
	s64.272,12.935,87.758,36.421c5.404,5.405,12.59,8.382,20.234,8.382c7.643,0,14.828-2.977,20.234-8.381
	c5.404-5.405,8.381-12.591,8.381-20.234c0.001-7.644-2.977-14.83-8.381-20.234C349.931,230.727,304.393,211.838,256,211.838z
	 M373.62,294.885c-2.572,2.572-5.991,3.988-9.628,3.988s-7.056-1.416-9.627-3.988c-26.32-26.32-61.254-40.815-98.365-40.815
	s-72.045,14.495-98.365,40.815c-2.571,2.572-5.99,3.988-9.627,3.988s-7.056-1.416-9.627-3.988c-2.572-2.572-3.988-5.991-3.988-9.628
	s1.416-7.056,3.988-9.628c31.462-31.464,73.233-48.792,117.619-48.792s86.157,17.328,117.62,48.792
	c2.571,2.571,3.987,5.99,3.987,9.627C377.607,288.895,376.191,292.314,373.62,294.885z"/>
<g>
</g>
<g>
</g>
<g>
</g>
<g>
</g>
<g>
</g>
<g>
</g>
<g>
</g>
<g>
</g>
<g>
</g>
<g>
</g>
<g>
</g>
<g>
</g>
<g>
</g>
<g>
</g>
<g>
</g>
</svg>
