<?xml version="1.0" encoding="iso-8859-1"?>
<!-- Generator: Adobe Illustrator 19.0.0, SVG Export Plug-In . SVG Version: 6.00 Build 0)  -->
<svg version="1.1" id="Capa_1" xmlns="http://www.w3.org/2000/svg" xmlns:xlink="http://www.w3.org/1999/xlink" x="0px" y="0px"
	 viewBox="0 0 512 512" style="enable-background:new 0 0 512 512;" xml:space="preserve">
<path style="fill:#E38892;" d="M96.926,166.574c0,107.157,85.414,258.856,137.008,326.958c11.08,14.625,33.052,14.625,44.132,0
	c51.594-68.102,137.008-219.8,137.008-326.958C415.074,78.72,343.854,7.5,256,7.5S96.926,78.72,96.926,166.574z"/>
<path style="fill:#D66274;" d="M256,330.193c-49.4,0-75.246,14.879-104.718,25.484c26.784,55.532,58.441,105.897,82.652,137.854
	c11.08,14.625,33.052,14.625,44.132,0c24.21-31.957,55.867-82.322,82.652-137.854C331.246,345.072,305.4,330.193,256,330.193z"/>
<path style="opacity:0.15;fill:#812B2F;enable-background:new    ;" d="M225.492,10.435
	C152.235,24.666,96.926,89.156,96.926,166.574c0,107.157,85.414,258.856,137.008,326.958c11.08,14.625,33.052,14.625,44.132,0
	c11.303-14.92,24.23-33.853,37.526-55.451C223.302,448.079,150.527,99.292,225.492,10.435z"/>
<circle style="fill:#F8E47C;" cx="256" cy="166.57" r="91.54"/>
<g>
	<ellipse style="fill:#E38892;" cx="199.41" cy="181.23" rx="20.881" ry="16.628"/>
	<ellipse style="fill:#E38892;" cx="312.59" cy="181.23" rx="20.881" ry="16.628"/>
</g>
<path style="opacity:0.15;fill:#C97B00;enable-background:new    ;" d="M256,75.033c-25.312,0-48.223,10.275-64.794,26.879
	c60.687-17.984,166.041,14.759,127.477,131.341c17.754-16.697,28.857-40.384,28.857-66.679
	C347.541,116.017,306.557,75.033,256,75.033z"/>
<path d="M321.941,102.64c2.73-3.115,2.417-7.854-0.699-10.584C303.193,76.242,280.023,67.533,256,67.533
	c-54.611,0-99.041,44.43-99.041,99.041s44.43,99.041,99.041,99.041s99.041-44.43,99.041-99.041c0-15.65-3.547-30.626-10.543-44.51
	c-1.864-3.7-6.375-5.186-10.072-3.323c-3.699,1.864-5.187,6.374-3.323,10.072c5.931,11.772,8.939,24.477,8.939,37.761
	c0,46.34-37.701,84.041-84.041,84.041s-84.041-37.701-84.041-84.041s37.701-84.041,84.041-84.041
	c20.385,0,40.044,7.389,55.357,20.806C314.473,106.069,319.21,105.756,321.941,102.64z M256,0
	C164.151,0,89.426,74.725,89.426,166.574c0,88.249,56.89,207.968,110.131,290.582c2.244,3.482,6.886,4.485,10.367,2.241
	c3.482-2.244,4.485-6.885,2.241-10.367C132.73,325.769,104.426,222.302,104.426,166.574C104.426,82.996,172.422,15,256,15
	s151.574,67.996,151.574,151.574c0,58.419-26.352,127.391-48.458,174.964c-28.879,62.149-63.891,116.925-87.028,147.465
	C268.237,494.085,262.374,497,256,497s-12.237-2.915-16.088-7.998c-2.78-3.669-5.666-7.595-8.58-11.671
	c-2.408-3.369-7.092-4.148-10.463-1.74c-3.37,2.409-4.148,7.094-1.739,10.463c2.994,4.188,5.963,8.227,8.826,12.005
	C234.667,506.919,244.889,512,256,512s21.332-5.081,28.044-13.94c53.559-70.696,138.53-223.206,138.53-331.486
	C422.574,74.725,347.849,0,256,0z M292.921,157.27v7.374c0,4.142,3.358,7.5,7.5,7.5s7.5-3.358,7.5-7.5v-7.374
	c0-4.142-3.358-7.5-7.5-7.5S292.921,153.128,292.921,157.27z M204.079,157.27v7.374c0,4.142,3.358,7.5,7.5,7.5s7.5-3.358,7.5-7.5
	v-7.374c0-4.142-3.358-7.5-7.5-7.5S204.079,153.128,204.079,157.27z M262.057,160.043c-1.53,1.756-3.738,2.763-6.057,2.763
	s-4.527-1.007-6.057-2.763c-2.722-3.123-7.46-3.447-10.582-0.727c-3.122,2.722-3.448,7.459-0.726,10.582
	c4.38,5.025,10.709,7.908,17.366,7.908c6.656,0,12.986-2.882,17.366-7.908c2.721-3.123,2.396-7.86-0.727-10.582
	C269.516,156.596,264.778,156.92,262.057,160.043z"/>
<g>
</g>
<g>
</g>
<g>
</g>
<g>
</g>
<g>
</g>
<g>
</g>
<g>
</g>
<g>
</g>
<g>
</g>
<g>
</g>
<g>
</g>
<g>
</g>
<g>
</g>
<g>
</g>
<g>
</g>
</svg>
