<?xml version="1.0" encoding="iso-8859-1"?>
<!-- Generator: Adobe Illustrator 19.0.0, SVG Export Plug-In . SVG Version: 6.00 Build 0)  -->
<svg version="1.1" id="Capa_1" xmlns="http://www.w3.org/2000/svg" xmlns:xlink="http://www.w3.org/1999/xlink" x="0px" y="0px"
	 viewBox="0 0 512 512" style="enable-background:new 0 0 512 512;" xml:space="preserve">
<circle style="fill:#BBE0F1;" cx="256" cy="256" r="248.5"/>
<path style="fill:#5B9675;" d="M470.501,381.513c0.894-12.585,0.643-23.166-1.136-29.959c-7.758-29.62-81.479-63.997-107.077-55.435
	c-25.599,8.562-33.368-4.48-36.101-14.064c-2.733-9.585-18.146-22.866-33.613-13.458s-42.531-10.968-46.48-32.201
	c-3.95-21.232,12.732-27.304,20.256-23.241c7.524,4.062,44.655,14.729,27.721-13.112s42.038-15.3,34.808-49.697
	c-7.229-34.396-2.993-68.431-18.769-78.558s-7.118-46.527-49.881-33.23c-42.763,13.298-78.965,70.302-114.521,50.75
	c-32.271-17.745-54.048-9.338-71.461-2.746C35.848,127.733,11.273,181.954,7.91,241.851c30.383-21.303,72.515-16.673,77.15,7.125
	c3.642,18.702,28.841,78.904,63.859,79.612s-13.653-54.121-0.369-61.223s52.417,2.836,58.675,34.563s56.185,25.646,69.592,23.033
	s24.932-8.319,31.972,2.721c7.041,11.039-12.6,65.039,29.389,89.05c23.872,13.651,40.322,32.441,49.326,50.14
	C421.592,445.568,450.139,416.235,470.501,381.513z"/>
<g>
	
		<ellipse transform="matrix(-0.342 -0.9397 0.9397 -0.342 -19.1585 382.0714)" style="fill:#FFFFFF;" cx="124.188" cy="197.743" rx="22.1" ry="27.75"/>
	
		<ellipse transform="matrix(0.342 0.9397 -0.9397 0.342 312.179 -153.2613)" style="fill:#FFFFFF;" cx="265.527" cy="146.283" rx="22.1" ry="27.75"/>
</g>
<g>
	<path style="opacity:0.2;fill:#254A74;enable-background:new    ;" d="M177.28,20.238C78.623,53.165,7.5,146.272,7.5,256
		c0,137.243,111.257,248.5,248.5,248.5c86.082,0,161.934-43.775,206.529-110.273C157.481,460.999,95.431,156.671,177.28,20.238z"/>
	<g style="opacity:0.2;">
		<path style="fill:#254A74;" d="M444.896,220.824c-12.66,0-24.705-4.961-33.67-13.596c-8.964,8.635-21.008,13.596-33.669,13.596
			c-4.143,0-7.5-3.358-7.5-7.5s3.357-7.5,7.5-7.5c10.95,0,21.237-5.377,27.517-14.384c1.402-2.012,3.7-3.21,6.152-3.21
			s4.749,1.199,6.152,3.21c6.28,9.007,16.567,14.385,27.518,14.385c4.143,0,7.5,3.358,7.5,7.5S449.038,220.824,444.896,220.824z"/>
		<path style="fill:#254A74;" d="M163.836,402.436c-12.661,0-24.705-4.961-33.669-13.596c-8.964,8.635-21.009,13.596-33.669,13.596
			c-4.142,0-7.5-3.358-7.5-7.5s3.358-7.5,7.5-7.5c10.95,0,21.237-5.377,27.517-14.384c1.402-2.011,3.7-3.21,6.152-3.21
			c2.452,0,4.749,1.199,6.152,3.21c6.281,9.007,16.567,14.384,27.518,14.384c4.142,0,7.5,3.358,7.5,7.5
			C171.336,399.078,167.978,402.436,163.836,402.436z"/>
		<path style="fill:#254A74;" d="M281.397,462.744c-12.66,0-24.705-4.961-33.669-13.596c-8.964,8.635-21.009,13.596-33.669,13.596
			c-4.142,0-7.5-3.358-7.5-7.5s3.358-7.5,7.5-7.5c10.95,0,21.237-5.378,27.517-14.384c1.403-2.012,3.7-3.21,6.152-3.21
			s4.749,1.199,6.152,3.21c6.28,9.007,16.567,14.384,27.517,14.384c4.143,0,7.5,3.358,7.5,7.5
			C288.897,459.386,285.54,462.744,281.397,462.744z"/>
	</g>
</g>
<path d="M135.539,159.721c-1.417-3.893-5.723-5.901-9.613-4.483c-3.893,1.417-5.899,5.721-4.483,9.613l3.351,9.209
	c1.109,3.046,3.984,4.937,7.048,4.937c0.852,0,1.718-0.146,2.564-0.454c3.893-1.417,5.899-5.721,4.483-9.613L135.539,159.721z
	 M437.02,74.981C388.668,26.629,324.38,0,256,0S123.332,26.629,74.98,74.981C26.629,123.333,0,187.62,0,256
	c0,36.102,7.367,71.006,21.895,103.744c14.033,31.621,34.022,59.677,59.41,83.388c3.026,2.826,7.772,2.665,10.601-0.362
	c2.827-3.027,2.665-7.773-0.362-10.6c-23.907-22.327-42.727-48.741-55.937-78.509C21.933,322.85,15,289.992,15,256
	c0-3.336,0.084-6.659,0.218-9.973c14.204-8.722,35.337-13.873,51.091-7.516c4.492,1.812,10.113,5.348,11.389,11.899
	c2.212,11.358,10.204,31.887,21.2,49.149c14.994,23.54,32.239,36.17,49.869,36.527c8.449,0.162,14.464-2.359,17.87-7.518
	c6.557-9.932-0.061-24.592-6.461-38.769c-2.22-4.918-5.74-12.715-6.395-16.466c4.656-1.28,14.174-0.911,24.325,3.9
	c6.84,3.242,18.762,10.949,21.76,26.146c4.179,21.189,23.2,28.21,38.42,30.368c17.986,2.552,36.446-0.74,39.964-1.425
	c2.652-0.517,5.153-1.127,7.573-1.717c11.649-2.842,14.181-2.696,16.593,1.033c0.848,1.941,0.596,9.368,0.412,14.802
	c-0.728,21.544-1.948,57.602,31.626,76.802c18.183,10.399,33.223,24.798,43.003,41.012C340.992,485.603,299.375,497,256,497
	c-50.026,0-98-15.184-138.732-43.91c-3.385-2.387-8.064-1.579-10.452,1.807c-2.388,3.385-1.579,8.064,1.807,10.451
	C151.899,495.868,202.861,512,256,512c68.38,0,132.668-26.629,181.02-74.98C485.371,388.668,512,324.38,512,256
	S485.371,123.333,437.02,74.981z M476.619,349.653c-2.424-9.254-9.612-18.783-21.366-28.321c-3.217-2.611-7.94-2.118-10.55,1.098
	c-2.609,3.217-2.118,7.94,1.099,10.55c8.963,7.273,14.754,14.544,16.308,20.474c0.992,3.789,1.945,11.36,1.013,25.943
	c-10.122,16.922-22.404,32.711-36.709,47.016c-11.225,11.225-23.365,21.2-36.247,29.868c-11.1-18.293-27.973-34.455-48.266-46.06
	c-25.724-14.71-24.774-42.778-24.081-63.273c0.355-10.504,0.612-18.094-2.708-23.3c-8.625-13.523-22.052-10.247-32.843-7.616
	c-2.251,0.549-4.58,1.117-6.888,1.567c-3.105,0.605-19.379,3.511-34.989,1.297c-5.643-0.8-22.815-3.236-25.81-18.42
	c-3.165-16.046-13.838-29.114-30.053-36.798c-14.265-6.76-30.146-7.937-39.517-2.927c-7.715,4.125-6.658,13.033-5.342,17.975
	c1.369,5.14,4.023,11.02,6.833,17.244c2.617,5.797,5.323,11.792,6.79,16.848c1.711,5.895,0.834,7.472,0.835,7.473
	c-0.008,0.01-1.059,0.887-5.06,0.799c-8.63-0.174-22.144-5.449-37.52-29.588c-11.088-17.408-17.617-36.201-19.127-43.958
	c-1.999-10.268-9.28-18.416-20.5-22.943c-16.012-6.46-36.886-4.837-55.336,3.668c5.754-50.54,27.197-97.556,61.952-135.31
	c16.474-6.218,35.268-12.631,63.555,2.922c25.939,14.264,51.008-4.658,75.249-22.957c14.59-11.014,29.678-22.403,45.112-27.203
	c22.147-6.886,25.245,0.637,30.382,13.102c2.834,6.877,6.047,14.672,13.222,19.278c7.379,4.736,8.935,20.658,10.736,39.094
	c1.037,10.618,2.213,22.653,4.744,34.695c2.167,10.309-3.264,13.568-17.127,19.053c-8.493,3.36-17.275,6.836-20.1,15.251
	c-1.781,5.307-0.685,11.112,3.351,17.748c2.261,3.717,2.971,5.91,3.19,6.994c-4.108,0.915-15.984-1.703-20.94-4.378
	c-6.447-3.482-15.251-2.562-21.906,2.289c-8.208,5.982-11.593,16.524-9.287,28.923c2.828,15.2,15.45,30.574,30.695,37.385
	c9.968,4.454,19.576,4.401,27.056-0.149c3.905-2.376,7.99-2.755,12.141-1.13c5.176,2.028,9.409,6.893,10.362,10.238
	c2.563,8.988,7.367,15.392,14.276,19.034c8.158,4.302,18.729,4.329,31.417,0.086c7.993-2.675,28.169,0.11,53.578,12.542
	c1.061,0.519,2.184,0.765,3.29,0.765c2.774,0,5.441-1.545,6.743-4.205c1.82-3.721,0.279-8.213-3.441-10.033
	c-20.545-10.054-48.392-18.822-64.928-13.294c-8.53,2.853-15.331,3.155-19.665,0.871c-3.19-1.682-5.429-4.913-6.845-9.878
	c-2.367-8.302-10.311-16.563-19.317-20.092c-8.495-3.326-17.516-2.516-25.406,2.282c-4.24,2.577-10.054,0.649-13.142-0.731
	c-10.663-4.764-20.15-16.128-22.067-26.433c-1.225-6.586-0.027-11.579,3.374-14.058c2.435-1.774,5.113-1.661,5.944-1.212
	c4.2,2.268,29.336,12.167,39.537,1.426c5.414-5.699,4.793-14.123-1.844-25.036c-1.948-3.203-2.066-4.825-1.946-5.18
	c0.605-1.805,7.626-4.583,11.398-6.076c11.695-4.628,31.272-12.373,26.287-36.085c-2.362-11.236-3.446-22.335-4.495-33.069
	c-2.182-22.319-4.065-41.594-17.562-50.258c-3.207-2.059-5.271-7.067-7.457-12.37c-5.359-13.013-13.46-32.673-48.701-21.714
	c-17.932,5.576-34.08,17.766-49.696,29.554c-25.855,19.518-42.728,30.725-58.984,21.786c-19.093-10.5-35.029-12.549-48.471-11.153
	C144.227,34.964,198.575,15,256,15c64.374,0,124.894,25.068,170.413,70.587S497,191.627,497,256
	c0,33.593-6.841,66.132-19.838,96.042C476.995,351.211,476.817,350.408,476.619,349.653z M204.787,139.39
	c-3.864-1.488-8.206,0.437-9.695,4.302c-1.369,3.554-4.2,6.336-7.767,7.635c-3.568,1.299-7.525,0.986-10.858-0.856
	c-3.625-2.002-8.188-0.689-10.192,2.937c-2.003,3.625-0.688,8.188,2.937,10.192c4.223,2.333,8.916,3.518,13.63,3.518
	c3.244,0,6.498-0.561,9.614-1.695c7.642-2.782,13.705-8.737,16.633-16.338C210.579,145.219,208.652,140.879,204.787,139.39z
	 M245.356,138.16c3.892-1.417,5.899-5.721,4.483-9.613l-3.352-9.209c-1.417-3.893-5.723-5.9-9.613-4.483
	c-3.893,1.417-5.899,5.721-4.483,9.613l3.352,9.208c1.109,3.046,3.984,4.937,7.048,4.937
	C243.643,138.614,244.51,138.468,245.356,138.16z"/>
<g>
</g>
<g>
</g>
<g>
</g>
<g>
</g>
<g>
</g>
<g>
</g>
<g>
</g>
<g>
</g>
<g>
</g>
<g>
</g>
<g>
</g>
<g>
</g>
<g>
</g>
<g>
</g>
<g>
</g>
</svg>
