<?xml version="1.0" encoding="iso-8859-1"?>
<!-- Generator: Adobe Illustrator 19.0.0, SVG Export Plug-In . SVG Version: 6.00 Build 0)  -->
<svg version="1.1" id="Capa_1" xmlns="http://www.w3.org/2000/svg" xmlns:xlink="http://www.w3.org/1999/xlink" x="0px" y="0px"
	 viewBox="0 0 512 512" style="enable-background:new 0 0 512 512;" xml:space="preserve">
<g>
	<path style="fill:#BBE0F1;" d="M469.554,87.579l-101.184,25.7l16.627,65.461l21.331-10.441
		c29.404-14.39,55.405-34.88,76.272-60.104l0,0C490.513,98.631,481.585,84.522,469.554,87.579z"/>
	<path style="fill:#BBE0F1;" d="M492.93,166.702l-103.872-10.457l-6.765,67.2l23.616-2.515
		c32.553-3.466,63.993-13.827,92.229-30.393l0,0C508.845,184.256,505.281,167.946,492.93,166.702z"/>
</g>
<path style="fill:#7F9AE6;" d="M317.857,52.414c-75.739-0.924-137.426,60.195-137.426,135.721c0,0.392-0.011,0.781-0.013,1.173
	c-30.995-17.65-55.129-45.962-67.371-79.965c-5.425-15.067-26.81-14.407-31.188,0.996c-4.102,14.432-6.298,29.666-6.298,45.413
	c0,29.58,7.754,57.345,21.324,81.39c-16.423-8.984-31.223-21.02-43.443-35.688c-10.251-12.303-30.121-4.37-28.966,11.604
	c1.082,14.964,4.229,30.031,9.615,44.828c13.333,36.634,38.238,65.708,69.08,84.613c-24.398,18.294-53.273,30.944-84.69,36.001
	c-11.086,1.785-14.922,15.873-6.11,22.83c46.224,36.488,104.597,58.268,168.058,58.268c148.167,0,268.608-118.704,271.413-266.199
	C453.284,117.696,393.568,53.337,317.857,52.414z"/>
<path style="opacity:0.15;fill:#254A74;enable-background:new    ;" d="M222.713,89.704c-26.041,24.731-42.281,59.683-42.281,98.431
	c0,0.386-0.011,0.77-0.013,1.156c-30.994-17.647-55.13-45.948-67.371-79.948c-5.425-15.067-26.81-14.407-31.188,0.996
	c-4.102,14.432-6.298,29.666-6.298,45.413c0,29.58,7.754,57.345,21.324,81.39c-16.423-8.984-31.223-21.02-43.443-35.688
	c-10.251-12.303-30.121-4.37-28.966,11.604c1.082,14.964,4.229,30.031,9.615,44.828c13.335,36.638,38.249,65.699,69.096,84.601
	c-24.401,18.301-53.282,30.955-84.706,36.014c-11.086,1.785-14.922,15.873-6.11,22.83c46.224,36.488,104.597,58.268,168.058,58.268
	c83.371,0,157.962-37.583,207.759-96.732C205.215,411.503,165.984,196.593,222.713,89.704z"/>
<ellipse style="fill:#E38892;" cx="341.496" cy="183.272" rx="42.088" ry="33.515"/>
<path d="M511.508,175.13c-1.913-8.756-8.911-14.992-17.827-15.89l-38.569-3.883c-0.639-2.601-1.345-5.181-2.124-7.736
	c12.981-10.308,24.876-21.934,35.392-34.645c5.712-6.905,6.307-16.259,1.515-23.832c-4.792-7.574-13.499-11.041-22.187-8.835
	l-46.308,11.762c-1.156-1.278-2.328-2.545-3.534-3.789c-26.66-27.506-62.144-42.907-99.916-43.368
	c-38.565-0.491-74.992,14.203-102.442,41.32c-24.571,24.273-39.262,55.806-42.077,89.823
	c-24.494-16.954-43.208-41.155-53.326-69.256C116.5,96.791,107.322,90.55,96.755,90.921c-10.535,0.362-19.213,7.18-22.109,17.368
	c-4.369,15.369-6.583,31.339-6.583,47.463c0,20.652,3.699,41.115,10.819,60.329c-7.158-5.806-13.734-12.296-19.675-19.427
	c-6.812-8.176-17.558-10.898-27.373-6.938c-9.776,3.943-15.599,13.317-14.835,23.883c1.152,15.937,4.533,31.701,10.047,46.853
	c12.25,33.657,33.855,61.894,62.812,82.267c-10.724,7.108-22.149,13.077-34.089,17.803c-3.852,1.524-5.738,5.883-4.213,9.734
	c1.166,2.946,3.989,4.742,6.976,4.742c0.918,0,1.852-0.17,2.758-0.528c16.514-6.537,32.12-15.274,46.383-25.97
	c1.988-1.491,3.108-3.869,2.992-6.351c-0.116-2.482-1.454-4.745-3.572-6.044c-30.777-18.865-53.583-46.799-65.951-80.783
	c-5.041-13.849-8.13-28.25-9.182-42.804c-0.435-6.021,4.089-8.328,5.486-8.891c1.413-0.57,6.327-2.065,10.238,2.629
	c12.718,15.264,28.063,27.871,45.606,37.467c2.937,1.607,6.586,1.071,8.938-1.312c2.352-2.384,2.839-6.038,1.193-8.955
	c-13.317-23.595-20.356-50.464-20.356-77.704c0-14.737,2.023-29.328,6.012-43.363c1.65-5.807,6.691-6.427,8.196-6.479
	c1.527-0.053,6.652,0.224,8.721,5.972c12.754,35.426,37.868,65.236,70.716,83.942c2.315,1.317,5.154,1.309,7.46-0.022
	c2.307-1.331,3.734-3.786,3.751-6.449l0.005-0.442c0.004-0.259,0.008-0.518,0.008-0.778c0-34.548,13.537-66.947,38.117-91.228
	c24.574-24.277,57.113-37.431,91.718-36.993c33.747,0.412,65.47,14.194,89.329,38.809c2.061,2.126,4.034,4.313,5.933,6.548
	c0.092,0.11,0.182,0.223,0.28,0.327c10.362,12.27,18.279,26.119,23.528,40.954c0.132,0.622,0.342,1.232,0.637,1.815
	c1.627,4.824,2.967,9.75,4.026,14.755c0.053,0.469,0.147,0.928,0.283,1.37c1.875,9.358,2.75,18.987,2.565,28.765
	c-0.111,5.816-0.425,11.639-0.916,17.44c-0.011,0.096-0.018,0.193-0.025,0.289c-0.633,7.375-1.559,14.714-2.796,21.952
	c-0.698,4.083,2.046,7.958,6.129,8.656c4.084,0.7,7.959-2.046,8.656-6.129c1.037-6.068,1.864-12.204,2.5-18.371
	c15.35-5.202,30.147-11.936,44.04-20.087C509.662,192.472,513.421,183.885,511.508,175.13z M447.537,132.717
	c-4.191-9.767-9.456-19.086-15.743-27.811l39.607-10.06c3.478-0.883,5.334,1.55,5.82,2.317c0.485,0.767,1.891,3.485-0.397,6.251
	C468.028,114.046,458.195,123.86,447.537,132.717z M494.344,184.07c-11.189,6.564-23.007,12.145-35.242,16.683
	c0.108-2.404,0.196-4.809,0.242-7.212c0.146-7.704-0.304-15.324-1.314-22.815l34.15,3.438c3.572,0.359,4.482,3.281,4.676,4.168
	C497.049,179.218,497.44,182.253,494.344,184.07z M442.183,260.746c-3.961-1.216-8.155,1.009-9.371,4.969
	c-16.22,52.834-49.631,100.304-94.076,133.665c-45.946,34.489-100.687,52.718-158.305,52.718
	c-59.953,0-116.459-19.591-163.411-56.655c-2.432-1.92-2.087-4.463-1.826-5.468c0.213-0.82,1.166-3.539,4.48-4.072
	c2.033-0.327,4.091-0.691,6.118-1.083c4.067-0.785,6.727-4.719,5.941-8.786c-0.785-4.067-4.719-6.729-8.786-5.941
	c-1.874,0.362-3.777,0.699-5.657,1.001c-8.168,1.315-14.533,7.104-16.613,15.108c-2.055,7.907,0.646,15.959,7.05,21.013
	c24.086,19.014,50.905,33.818,79.712,44.001c29.806,10.537,61.093,15.879,92.993,15.879c60.891,0,118.745-19.268,167.309-55.722
	c46.961-35.251,82.267-85.417,99.411-141.259C448.367,266.157,446.143,261.962,442.183,260.746z M345.997,154.306
	c4.142,0,7.5-3.358,7.5-7.5c0-6.911,5.622-12.532,12.531-12.532c6.911,0,12.533,5.622,12.533,12.532c0,4.142,3.358,7.5,7.5,7.5
	c4.142,0,7.5-3.358,7.5-7.5c0-15.181-12.35-27.532-27.532-27.532c-15.18,0-27.531,12.35-27.531,27.532
	C338.497,150.949,341.855,154.306,345.997,154.306z"/>
<g>
</g>
<g>
</g>
<g>
</g>
<g>
</g>
<g>
</g>
<g>
</g>
<g>
</g>
<g>
</g>
<g>
</g>
<g>
</g>
<g>
</g>
<g>
</g>
<g>
</g>
<g>
</g>
<g>
</g>
</svg>
