<?xml version="1.0" encoding="iso-8859-1"?>
<!-- Generator: Adobe Illustrator 19.0.0, SVG Export Plug-In . SVG Version: 6.00 Build 0)  -->
<svg version="1.1" id="Capa_1" xmlns="http://www.w3.org/2000/svg" xmlns:xlink="http://www.w3.org/1999/xlink" x="0px" y="0px"
	 viewBox="0 0 511.998 511.998" style="enable-background:new 0 0 511.998 511.998;" xml:space="preserve">
<path style="fill:#F0F2FF;" d="M440.485,399.875c34.218-41.261,54.862-94.186,55.071-151.93
	C496.033,116.288,387.652,7.497,255.992,7.5C124.266,7.503,17.374,113.824,16.445,245.332
	c-0.928,131.51,105.541,239.924,237.048,241.273c21.831,0.224,42.993-2.482,63.126-7.738c11.361-2.965,23.408-1.422,33.565,4.468
	c14.276,8.279,30.677,15.476,47.154,20.244c17.345,5.019,33.141-11.583,27.637-28.779c-4.385-13.699-3.396-27.421-0.979-40.295
	C426.392,421.736,432.191,409.876,440.485,399.875z"/>
<path style="fill:#DBE1FF;" d="M424.975,474.8c-4.385-13.699-3.396-27.421-0.98-40.295c2.397-12.769,8.196-24.628,16.49-34.628
	c14.117-17.022,25.914-36.033,34.929-56.545C290.057,438.744,66.154,267.086,181.447,19.345
	C86.167,50.52,17.19,139.81,16.445,245.332c-0.928,131.51,105.541,239.925,237.048,241.273c21.831,0.224,42.993-2.482,63.126-7.738
	c11.361-2.966,23.408-1.422,33.565,4.468c14.276,8.279,30.677,15.476,47.154,20.244C414.682,508.598,430.478,491.996,424.975,474.8z
	"/>
<g>
	<path style="fill:#7F9AE6;" d="M291.596,343.226v-151.55c0-12.96-13.245-21.703-25.161-16.609l0,0
		c-13.199,5.641-27.294,8.894-41.631,9.605l-23.638,1.173c-5.527,0.274-9.867,4.835-9.867,10.368v14.787
		c0,5.733,4.648,10.381,10.381,10.381h20.743c4.751,0,8.603,3.852,8.603,8.603v113.243h-21.236
		c-10.212,0-18.491,8.279-18.491,18.491v7.529c0,10.212,8.279,18.491,18.491,18.491h103.043c10.212,0,18.491-8.279,18.491-18.491
		v-7.529c0-10.212-8.279-18.491-18.491-18.491H291.596z"/>
	<circle style="fill:#7F9AE6;" cx="261.313" cy="109.488" r="30.289"/>
</g>
<path d="M118.889,434.02c-28.992-21.357-52.996-49.52-69.418-81.444C32.51,319.6,23.683,282.534,23.946,245.385
	c0.435-61.632,24.765-119.506,68.51-162.963C136.221,38.946,194.3,15.002,255.992,15c36.395-0.001,71.346,8.374,103.886,24.89
	c3.695,1.875,8.208,0.401,10.082-3.293c1.875-3.693,0.4-8.208-3.293-10.082C332.005,8.92,294.768-0.001,255.992,0
	C190.312,0.002,128.479,25.494,81.884,71.781C35.313,118.045,9.409,179.661,8.947,245.28c-0.279,39.562,9.122,79.037,27.186,114.158
	c17.475,33.971,43.015,63.938,73.859,86.66c1.339,0.986,2.897,1.462,4.442,1.462c2.302,0,4.574-1.057,6.044-3.052
	C122.936,441.172,122.224,436.477,118.889,434.02z M209.789,335.726c-14.331,0-25.989,11.659-25.989,25.99v7.528
	c0,14.331,11.659,25.99,25.989,25.99h103.043c14.332,0,25.99-11.66,25.99-25.99v-7.528c0-14.332-11.659-25.99-25.99-25.99h-13.736
	v-144.05c0-8.614-4.292-16.589-11.48-21.335c-7.188-4.745-16.207-5.557-24.127-2.171c-12.424,5.31-25.562,8.341-39.056,9.011
	l-23.639,1.173c-9.529,0.473-16.994,8.318-16.994,17.859v14.787c0,9.86,8.021,17.881,17.881,17.881h20.743
	c0.608,0,1.103,0.495,1.103,1.103v105.744h-13.737V335.726z M222.423,213.88H201.68c-1.589,0-2.881-1.292-2.881-2.881v-14.787
	c0-1.538,1.203-2.802,2.738-2.878l23.639-1.173c15.271-0.758,30.145-4.189,44.207-10.199c3.32-1.42,6.954-1.093,9.969,0.897
	c3.015,1.99,4.744,5.203,4.744,8.816v151.55c0,4.142,3.358,7.5,7.5,7.5h21.236c6.06,0,10.991,4.93,10.991,10.991v7.528
	c0,6.06-4.931,10.991-10.991,10.991H209.789c-6.059,0-10.99-4.931-10.99-10.991v-7.528c0-6.061,4.931-10.991,10.99-10.991h21.236
	c4.143,0,7.5-3.358,7.5-7.5V229.982C238.526,221.103,231.302,213.88,222.423,213.88z M446.258,404.663
	c36.419-43.917,56.591-99.564,56.798-156.691c0.288-79.447-38.595-154.882-104.013-201.786c-3.364-2.412-8.052-1.642-10.465,1.725
	c-2.414,3.366-1.642,8.052,1.725,10.465c61.48,44.081,98.023,114.938,97.753,189.54c-0.194,53.658-19.14,105.924-53.344,147.17
	c-9.26,11.164-15.515,24.315-18.089,38.033c-2.041,10.877-4.137,27.268,1.208,43.965c1.752,5.476,0.401,11.21-3.612,15.338
	c-3.912,4.024-9.443,5.501-14.798,3.951c-15.415-4.461-31.14-11.213-45.478-19.528c-11.866-6.881-25.793-8.743-39.221-5.237
	c-19.867,5.186-40.455,7.702-61.154,7.495c-36.964-0.379-72.262-9.275-104.913-26.44c-3.671-1.929-8.202-0.517-10.129,3.148
	c-1.928,3.666-0.518,8.201,3.148,10.129c34.778,18.284,72.372,27.758,111.739,28.162c22.058,0.216,43.944-2.458,65.098-7.98
	c9.573-2.499,19.485-1.185,27.907,3.699c15.377,8.918,32.262,16.166,48.832,20.961c2.823,0.817,5.668,1.216,8.474,1.216
	c7.895-0.001,15.463-3.169,21.249-9.12c7.825-8.048,10.563-19.684,7.143-30.366c-3.324-10.385-3.556-21.681-0.751-36.625
	C433.471,424.669,438.62,413.872,446.258,404.663z M261.311,147.274c20.836,0,37.786-16.951,37.786-37.785
	s-16.951-37.786-37.786-37.786c-20.835,0-37.785,16.951-37.785,37.786C223.526,130.323,240.477,147.274,261.311,147.274z
	 M261.311,86.702c12.565,0,22.786,10.222,22.786,22.787c0,12.564-10.223,22.786-22.786,22.786
	c-12.564,0-22.786-10.222-22.786-22.786C238.526,96.924,248.746,86.702,261.311,86.702z"/>
<g>
</g>
<g>
</g>
<g>
</g>
<g>
</g>
<g>
</g>
<g>
</g>
<g>
</g>
<g>
</g>
<g>
</g>
<g>
</g>
<g>
</g>
<g>
</g>
<g>
</g>
<g>
</g>
<g>
</g>
</svg>
