<?xml version="1.0" encoding="iso-8859-1"?>
<!-- Generator: Adobe Illustrator 19.0.0, SVG Export Plug-In . SVG Version: 6.00 Build 0)  -->
<svg version="1.1" id="Capa_1" xmlns="http://www.w3.org/2000/svg" xmlns:xlink="http://www.w3.org/1999/xlink" x="0px" y="0px"
	 viewBox="0 0 512.001 512.001" style="enable-background:new 0 0 512.001 512.001;" xml:space="preserve">
<path style="fill:#72CDA2;" d="M277.999,325.897H136.14c-57.824,0-108.13,39.592-121.719,95.797l-6.345,26.241
	c-3.071,12.7,6.552,24.927,19.618,24.927h358.751c13.066,0,22.689-12.226,19.618-24.927l-6.345-26.241
	C386.129,365.489,335.824,325.897,277.999,325.897z"/>
<polygon style="fill:#F0F2FF;" points="276.796,325.897 137.344,325.897 175.155,472.862 238.985,472.862 "/>
<path style="fill:#DBE1FF;" d="M245.538,452.735c-26.41-16.008-50.642-36.158-70.321-57.471c-3.785-4.099-0.172-10.623,5.329-9.693
	c8.744,1.478,17.728,2.247,26.893,2.247c20.28,0,39.679-3.767,57.538-10.639l14.36-51.084H135.542l39.546,148.97h64.701
	L245.538,452.735z"/>
<circle style="fill:#F8E47C;" cx="207.07" cy="197.249" r="158.11"/>
<g>
	<ellipse style="fill:#E38892;" cx="113.94" cy="226.629" rx="34.36" ry="27.364"/>
	<ellipse style="fill:#E38892;" cx="300.19" cy="226.629" rx="34.36" ry="27.364"/>
</g>
<path style="fill:#495059;" d="M207.07,230.497L207.07,230.497c-13.749,0-24.895-11.146-24.895-24.895v-18.099
	c0-3.753,3.043-6.796,6.796-6.796h36.198c3.753,0,6.796,3.043,6.796,6.796v18.099C231.965,219.352,220.819,230.497,207.07,230.497z"
	/>
<path style="opacity:0.15;fill:#C97B00;enable-background:new    ;" d="M317.821,310.078
	C55.456,355.362,51.837,129.028,146.751,51.061C89.353,74.77,48.957,131.288,48.957,197.249c0,87.323,70.79,158.113,158.113,158.113
	C250.203,355.362,289.295,338.082,317.821,310.078z"/>
<circle style="fill:#7F9AE6;" cx="423.51" cy="381.149" r="80.991"/>
<g>
	<path style="fill:#FFFFFF;" d="M423.511,427.016c-4.142,0-7.5-3.358-7.5-7.5v-76.73c0-4.142,3.358-7.5,7.5-7.5s7.5,3.358,7.5,7.5
		v76.73C431.011,423.659,427.653,427.016,423.511,427.016z"/>
	<path style="fill:#FFFFFF;" d="M461.877,388.651h-76.731c-4.142,0-7.5-3.358-7.5-7.5s3.358-7.5,7.5-7.5h76.731
		c4.142,0,7.5,3.358,7.5,7.5S466.019,388.651,461.877,388.651z"/>
</g>
<path style="opacity:0.15;fill:#254A74;enable-background:new    ;" d="M402.723,302.866c-34.655,9.179-60.203,40.743-60.203,78.285
	c0,44.73,36.261,80.99,80.991,80.99c27.634,0,52.022-13.85,66.638-34.976C378.502,447.952,369.488,344.637,402.723,302.866z"/>
<path d="M286.951,179.569v14.749c0,4.142,3.358,7.5,7.5,7.5s7.5-3.358,7.5-7.5v-14.749c0-4.142-3.358-7.5-7.5-7.5
	S286.951,175.427,286.951,179.569z M188.971,173.207c-7.883,0-14.296,6.413-14.296,14.296v18.099
	c0,17.863,14.532,32.395,32.395,32.395c17.862,0,32.395-14.532,32.395-32.395v-18.099c0-7.883-6.413-14.296-14.295-14.296H188.971z
	 M224.464,205.602c0,9.592-7.803,17.395-17.395,17.395c-9.592,0-17.395-7.803-17.395-17.395v-17.395h34.79L224.464,205.602
	L224.464,205.602z M112.189,179.569v14.749c0,4.142,3.358,7.5,7.5,7.5s7.5-3.358,7.5-7.5v-14.749c0-4.142-3.358-7.5-7.5-7.5
	C115.547,172.069,112.189,175.427,112.189,179.569z M423.511,292.66c-32.928,0-61.71,18.081-76.948,44.834
	c-10.105-6.089-21.033-10.826-32.372-14.052c35.76-30.402,58.492-75.69,58.492-126.194c0-30.304-8.261-59.951-23.891-85.734
	c-2.147-3.542-6.759-4.675-10.301-2.526c-3.542,2.147-4.673,6.759-2.526,10.301c14.208,23.438,21.718,50.396,21.718,77.959
	c0,83.048-67.564,150.613-150.612,150.613S56.458,280.296,56.458,197.248S124.022,46.636,207.07,46.636
	c41.492,0,80.145,16.516,108.839,46.505c2.863,2.992,7.61,3.098,10.604,0.234c2.993-2.863,3.098-7.611,0.234-10.604
	c-31.551-32.975-74.053-51.135-119.677-51.135c-91.319,0-165.613,74.294-165.613,165.613c0,50.499,22.727,95.783,58.48,126.185
	c-19.73,5.578-37.911,15.648-53.254,29.641c-19.628,17.899-33.305,41.018-39.552,66.857l-6.345,26.241
	c-2.007,8.303-0.129,16.915,5.154,23.627c5.283,6.713,13.212,10.563,21.754,10.563h21.263c4.142,0,7.5-3.358,7.5-7.5
	s-3.358-7.5-7.5-7.5H27.694c-3.914,0-7.546-1.764-9.967-4.839c-2.42-3.075-3.281-7.021-2.361-10.825l6.345-26.241
	c11.061-45.748,47.744-80.098,93.861-88.236c6.148,4.09,12.58,7.785,19.266,11.039l30.643,119.103H84.517
	c-4.142,0-7.5,3.358-7.5,7.5s3.358,7.5,7.5,7.5h90.609c0.008,0,0.016,0.002,0.023,0.002c0.01,0,0.021-0.002,0.031-0.002h63.779
	c0.01,0,0.021,0.002,0.031,0.002c0.008,0,0.016-0.002,0.023-0.002h147.431c9.259,0,17.644-4.514,22.738-11.886
	c4.665,0.763,9.45,1.166,14.328,1.166c48.794,0,88.491-39.697,88.491-88.49C512.002,332.357,472.305,292.66,423.511,292.66z
	 M233.17,465.362h-52.201L152.19,353.504c17.184,6.053,35.652,9.358,54.879,9.358c19.228,0,37.695-3.305,54.879-9.358
	L233.17,465.362z M386.445,465.362H248.659l30.643-119.103c6.691-3.257,13.128-6.954,19.28-11.048
	c14.703,2.611,28.947,8.089,41.658,15.998c-3.375,9.356-5.219,19.438-5.219,29.943c0,37.803,23.831,70.14,57.256,82.792
	C390.515,464.854,388.53,465.362,386.445,465.362z M423.511,454.641c-40.523,0-73.49-32.968-73.49-73.49
	c0-40.523,32.968-73.491,73.49-73.491c40.523,0,73.491,32.968,73.491,73.491C497.002,421.674,464.034,454.641,423.511,454.641z"/>
<g>
</g>
<g>
</g>
<g>
</g>
<g>
</g>
<g>
</g>
<g>
</g>
<g>
</g>
<g>
</g>
<g>
</g>
<g>
</g>
<g>
</g>
<g>
</g>
<g>
</g>
<g>
</g>
<g>
</g>
</svg>
