<?xml version="1.0" encoding="iso-8859-1"?>
<!-- Generator: Adobe Illustrator 19.0.0, SVG Export Plug-In . SVG Version: 6.00 Build 0)  -->
<svg version="1.1" id="Capa_1" xmlns="http://www.w3.org/2000/svg" xmlns:xlink="http://www.w3.org/1999/xlink" x="0px" y="0px"
	 viewBox="0 0 511.998 511.998" style="enable-background:new 0 0 511.998 511.998;" xml:space="preserve">
<path style="fill:#BBE0F1;" d="M489.066,301.222c11.857-13.056,12.807-32.68,2.266-46.82l-5.14-6.895
	c-2.124-2.849-1.932-6.802,0.457-9.433l8.298-9.137c11.857-13.056,12.807-32.68,2.266-46.82l0,0
	c-5.534-7.425-14.252-11.8-23.512-11.8h-72.287c4.582-13.46,6.147-39.923,6.147-72.79v-18.2c0-26.982-21.873-48.857-48.857-48.857
	l0,0c-26.982,0-48.857,21.874-48.857,48.857v18.2c0,17.373-4.243,72.79-53.052,72.79h-71.27v289.14h270.533
	c9.262,0,17.978-4.374,23.512-11.8l1.722-2.309c9.746-13.073,9.746-30.995,0-44.068l-6.861-9.204
	c-2.124-2.849-1.932-6.802,0.457-9.433l8.298-9.137c11.857-13.056,12.807-32.68,2.266-46.82l-5.14-6.895
	c-2.124-2.849-1.932-6.802,0.457-9.432L489.066,301.222z"/>
<path style="opacity:0.15;fill:#254A74;enable-background:new    ;" d="M479.569,447.658l1.722-2.309
	c4.551-6.105,6.948-13.269,7.248-20.501c-199.807,36.22-222.739-157.544-225.34-254.908c-2.054,0.224-4.167,0.378-6.405,0.378
	h-71.27v289.14h270.533C465.317,459.458,474.035,455.083,479.569,447.658z"/>
<path style="fill:#7F9AE6;" d="M202.168,481.528H64.509c-18.968,0-34.747-14.586-36.237-33.495L7.604,185.609
	c-1.586-20.141,14.331-37.361,34.534-37.361h160.029c11.304,0,20.467,9.163,20.467,20.467v292.347
	C222.635,472.364,213.472,481.528,202.168,481.528z"/>
<circle style="fill:#F0F2FF;" cx="145.437" cy="415.332" r="24.31"/>
<path style="opacity:0.15;fill:#254A74;enable-background:new    ;" d="M28.272,448.033c1.489,18.91,17.269,33.495,36.237,33.495
	h137.66c11.304,0,20.467-9.163,20.467-20.467v-30.746C77.107,462.678,64.534,270.27,63.793,148.248H42.139
	c-20.204,0-36.121,17.22-34.535,37.361L28.272,448.033z"/>
<path d="M497.345,249.919l-5.145-6.801l8.299-9.139c14.234-15.674,15.381-39.37,2.727-56.344
	c-6.916-9.279-17.954-14.817-29.526-14.817h-62.656c1.961-10.172,3.182-24.079,3.709-42.096c0.121-4.141-3.138-7.595-7.278-7.716
	c-4.129-0.127-7.595,3.137-7.716,7.277c-0.671,22.956-2.503,38.977-5.444,47.619c-0.78,2.29-0.407,4.816,1.001,6.783
	c1.408,1.967,3.68,3.134,6.099,3.134h72.287c6.858,0,13.4,3.283,17.5,8.781c8.375,11.236,7.616,26.919-1.805,37.294l-8.3,9.139
	c-4.788,5.273-5.174,13.246-0.917,18.958l5.14,6.894c8.375,11.236,7.616,26.921-1.805,37.295l-8.298,9.138
	c-4.789,5.272-5.176,13.246-0.918,18.958l5.14,6.895c8.375,11.236,7.616,26.92-1.805,37.295l-8.298,9.137
	c-4.789,5.273-5.176,13.246-0.918,18.959l6.86,9.204c7.703,10.334,7.703,24.769,0.001,35.102l-1.723,2.31
	c-4.099,5.499-10.641,8.781-17.499,8.781h-225.92V177.818h26.658c44.645,0,60.553-41.476,60.553-80.291V79.328
	c0-22.804,18.553-41.356,41.356-41.356c22.804,0,41.356,18.552,41.356,41.356v5.905c0,4.142,3.357,7.5,7.5,7.5
	c4.142,0,7.5-3.358,7.5-7.5v-5.905c0-31.076-25.281-56.357-56.357-56.357s-56.357,25.281-56.357,56.357v18.2
	c0,6.888-0.737,24.561-7.569,39.85c-7.65,17.119-20.074,25.44-37.982,25.44h-27.289c-2.715-12.599-13.938-22.07-27.336-22.07H42.139
	c-11.715,0-22.994,4.934-30.946,13.537S-0.791,174.52,0.129,186.199l16.966,215.429c0.325,4.129,3.935,7.208,8.065,6.888
	c4.129-0.325,7.213-3.937,6.888-8.066L15.082,185.02c-0.601-7.632,1.93-14.932,7.127-20.554c5.196-5.622,12.274-8.717,19.93-8.717
	h160.03c7.149,0,12.967,5.816,12.967,12.967v292.347c0,7.149-5.816,12.967-12.967,12.967H64.509
	c-14.953,0-27.587-11.677-28.761-26.583l-0.964-12.252c-0.324-4.129-3.934-7.211-8.064-6.889c-4.13,0.325-7.214,3.936-6.889,8.065
	l0.964,12.252c1.784,22.658,20.985,40.406,43.714,40.406h137.66c13.399,0,24.62-9.472,27.336-22.07h226.551
	c11.573,0,22.61-5.539,29.526-14.817l1.723-2.31c11.638-15.613,11.638-37.42-0.001-53.034l-6.865-9.111l8.298-9.137
	c14.234-15.673,15.382-39.369,2.728-56.345l-5.145-6.802l8.298-9.138C508.852,290.591,510,266.895,497.345,249.919z M177.251,415.33
	c0-17.541-14.271-31.811-31.812-31.811c-17.54,0-31.811,14.271-31.811,31.811c0,17.54,14.271,31.811,31.811,31.811
	C162.981,447.141,177.251,432.87,177.251,415.33z M128.63,415.33c0-9.27,7.54-16.81,16.81-16.81s16.811,7.541,16.811,16.81
	c0,9.268-7.541,16.81-16.811,16.81C136.17,432.14,128.63,424.599,128.63,415.33z"/>
<g>
</g>
<g>
</g>
<g>
</g>
<g>
</g>
<g>
</g>
<g>
</g>
<g>
</g>
<g>
</g>
<g>
</g>
<g>
</g>
<g>
</g>
<g>
</g>
<g>
</g>
<g>
</g>
<g>
</g>
</svg>
