<?xml version="1.0" encoding="iso-8859-1"?>
<!-- Generator: Adobe Illustrator 19.0.0, SVG Export Plug-In . SVG Version: 6.00 Build 0)  -->
<svg version="1.1" id="Capa_1" xmlns="http://www.w3.org/2000/svg" xmlns:xlink="http://www.w3.org/1999/xlink" x="0px" y="0px"
	 viewBox="0 0 511.999 511.999" style="enable-background:new 0 0 511.999 511.999;" xml:space="preserve">
<path style="fill:#72CDA2;" d="M311.865,227.247c170.943,0,192.634,45.401,192.634,101.407c0,24.455-4.147,46.882-23.041,64.396
	c-7.331,6.796-11.175,16.649-10.044,26.581c0.971,8.533,3.37,15.493,7.458,22.84c3.535,6.354-1.702,14.104-8.891,13.013
	c-21.981-3.337-41.949-12.433-57.361-24.648c-5.499-4.358-12.521-6.262-19.477-5.341c-22.403,2.966-49.21,4.566-81.277,4.566
	c-170.943,0-192.634-45.401-192.634-101.407C119.232,272.648,140.922,227.247,311.865,227.247z"/>
<g>
	<ellipse style="fill:#FFFFFF;" cx="232.997" cy="347.886" rx="29.12" ry="23.19"/>
	<ellipse style="fill:#FFFFFF;" cx="390.835" cy="347.886" rx="29.12" ry="23.19"/>
</g>
<path style="opacity:0.15;fill:#2C6245;enable-background:new    ;" d="M263.269,328.029c-11.67-16.127-0.191-38.688,19.716-38.688
	h75.419c31.101,0,56.798-23.073,60.947-53.031c-26.798-5.819-61.81-9.063-107.486-9.063c-170.943,0-192.634,45.401-192.634,101.407
	s21.691,101.407,192.634,101.407c32.067,0,58.875-1.6,81.278-4.566c6.956-0.921,13.978,0.983,19.477,5.341
	c15.413,12.215,35.382,21.311,57.361,24.648c7.189,1.091,12.427-6.659,8.891-13.013c-4.087-7.346-6.486-14.306-7.458-22.837
	c-1.128-9.909,2.674-19.765,9.995-26.538c8.105-7.499,13.496-15.903,17.018-24.981C363.287,391.288,292.005,367.739,263.269,328.029
	z"/>
<path style="fill:#F0F2FF;" d="M7.85,284.481L7.85,284.481c6.672-30.226,10.038-61.087,10.038-92.041v-74.477
	c0-33.992,27.556-61.547,61.547-61.547h278.969c33.992,0,61.547,27.556,61.547,61.547v72.047c0,33.992-27.556,61.547-61.547,61.547
	h-255.63c-10.819,0-21.012,5.071-27.539,13.7l0,0c-12.444,16.454-29.492,28.844-48.982,35.6l0,0
	C15.826,304.471,5.471,295.256,7.85,284.481z"/>
<path style="fill:#DBE1FF;" d="M412.783,218.839C170.644,244.054,121.096,122.73,126.436,56.415h-47
	c-33.992,0-61.547,27.556-61.547,61.547v74.477c0,30.953-3.366,61.814-10.038,92.04c-2.379,10.777,7.976,19.991,18.403,16.377
	c19.492-6.756,36.54-19.146,48.983-35.6l0,0c6.526-8.629,16.72-13.7,27.539-13.7h255.63
	C381.977,251.558,402.445,238.299,412.783,218.839z"/>
<path d="M320.962,333.927c-2.284,2.621-5.582,4.125-9.048,4.125c-3.465,0-6.763-1.504-9.048-4.125
	c-2.723-3.123-7.46-3.448-10.582-0.726c-3.123,2.721-3.447,7.459-0.727,10.581c5.135,5.891,12.555,9.27,20.356,9.27
	c7.804,0,15.224-3.379,20.357-9.271c2.722-3.123,2.396-7.861-0.728-10.582C328.42,330.478,323.682,330.803,320.962,333.927z
	 M416.036,227.976c7.206-10.902,11.416-23.949,11.416-37.967v-72.047c0-38.073-30.976-69.047-69.048-69.047H139.911
	c-4.142,0-7.5,3.358-7.5,7.5s3.358,7.5,7.5,7.5h218.492c29.803,0,54.048,24.246,54.048,54.047v72.047
	c0,29.802-24.246,54.047-54.048,54.047H160.383c-0.014,0-0.029,0-0.043,0h-57.566c-13.092,0-25.624,6.234-33.521,16.676
	c-11.588,15.322-27.307,26.746-45.457,33.037c-3.308,1.147-5.691-0.533-6.562-1.308c-0.871-0.775-2.815-2.947-2.061-6.366
	c6.778-30.705,10.215-62.215,10.215-93.657v-74.477c0-29.802,24.246-54.047,54.047-54.047h25.134c4.142,0,7.5-3.358,7.5-7.5
	s-3.358-7.5-7.5-7.5H79.435c-38.073,0-69.047,30.975-69.047,69.047v74.477c0,30.356-3.318,60.779-9.862,90.424
	c-1.711,7.75,0.808,15.528,6.737,20.805c4.058,3.61,9.091,5.499,14.269,5.499c2.389,0,4.81-0.402,7.178-1.223
	c20.966-7.267,39.124-20.463,52.509-38.162c5.078-6.715,13.137-10.724,21.557-10.724h34.054
	c-7.22,6.765-12.782,14.504-16.808,23.341c-5.655,12.413-8.289,27.111-8.289,46.255c0,26.501,4.215,56.479,35.475,77.892
	c30.467,20.87,84.327,31.014,164.659,31.014c5.625,0,11.203-0.05,16.581-0.149c4.142-0.076,7.438-3.495,7.361-7.636
	c-0.076-4.142-3.532-7.443-7.637-7.361c-5.286,0.097-10.772,0.146-16.306,0.146c-77.206,0-128.293-9.286-156.182-28.389
	c-25.445-17.429-28.952-41.79-28.952-65.517c0-29.752,6.116-53.024,35.568-69.596h196.105c17.821,0,34.085-6.787,46.347-17.911
	C489.795,255.551,497,292.245,497,328.654c0,27.873-6.173,45.486-20.64,58.895c-9.146,8.477-13.779,20.788-12.397,32.93
	c1.052,9.234,3.629,17.142,8.356,25.638c0.272,0.49,0.246,0.977-0.079,1.445c-0.427,0.614-0.941,0.537-1.133,0.507
	c-19.677-2.987-38.794-11.195-53.829-23.111c-7.023-5.567-16.177-8.083-25.12-6.898c-8.968,1.187-18.705,2.151-28.941,2.866
	c-4.132,0.289-7.248,3.872-6.959,8.004c0.288,4.132,3.882,7.247,8.004,6.959c10.544-0.736,20.592-1.732,29.865-2.96
	c4.938-0.652,9.977,0.726,13.835,3.784c17.051,13.513,38.677,22.812,60.894,26.186c0.826,0.125,1.649,0.187,2.465,0.186
	c5.246,0,10.168-2.542,13.241-6.969c3.591-5.171,3.922-11.797,0.865-17.292c-3.77-6.776-5.732-12.77-6.56-20.042
	c-0.846-7.421,2.029-14.985,7.69-20.232c9.838-9.119,16.598-19.866,20.665-32.855c3.259-10.41,4.777-22.18,4.777-37.042
	C512,286.137,500.022,244.757,416.036,227.976z M367.502,322.654c0-3.507,2.853-6.36,6.36-6.36c3.507,0,6.36,2.853,6.36,6.36
	c0,4.142,3.357,7.5,7.5,7.5c4.143,0,7.5-3.358,7.5-7.5c0-11.778-9.582-21.36-21.36-21.36c-11.778,0-21.36,9.582-21.36,21.36
	c0,4.142,3.357,7.5,7.5,7.5C364.144,330.154,367.502,326.796,367.502,322.654z M353.74,133.255c0-4.142-3.357-7.5-7.5-7.5H91.6
	c-4.142,0-7.5,3.358-7.5,7.5s3.358,7.5,7.5,7.5h254.64C350.382,140.755,353.74,137.397,353.74,133.255z M228.607,322.654
	c0,4.142,3.358,7.5,7.5,7.5s7.5-3.358,7.5-7.5c0-3.507,2.853-6.36,6.36-6.36c3.507,0,6.36,2.853,6.36,6.36
	c0,4.142,3.357,7.5,7.5,7.5c4.143,0,7.5-3.358,7.5-7.5c0-11.778-9.582-21.36-21.36-21.36
	C238.189,301.294,228.607,310.876,228.607,322.654z M91.6,167.218c-4.142,0-7.5,3.358-7.5,7.5c0,4.142,3.358,7.5,7.5,7.5h127.321
	c4.142,0,7.5-3.358,7.5-7.5c0-4.142-3.358-7.5-7.5-7.5H91.6z"/>
<g>
</g>
<g>
</g>
<g>
</g>
<g>
</g>
<g>
</g>
<g>
</g>
<g>
</g>
<g>
</g>
<g>
</g>
<g>
</g>
<g>
</g>
<g>
</g>
<g>
</g>
<g>
</g>
<g>
</g>
</svg>
