<?xml version="1.0" encoding="iso-8859-1"?>
<!-- Generator: Adobe Illustrator 19.0.0, SVG Export Plug-In . SVG Version: 6.00 Build 0)  -->
<svg version="1.1" id="Capa_1" xmlns="http://www.w3.org/2000/svg" xmlns:xlink="http://www.w3.org/1999/xlink" x="0px" y="0px"
	 viewBox="0 0 512 512" style="enable-background:new 0 0 512 512;" xml:space="preserve">
<path style="fill:#7F9AE6;" d="M363.974,504.5H148.026c-20.213,0-36.599-16.386-36.599-36.599V44.099
	c0-20.213,16.386-36.599,36.599-36.599h215.949c20.213,0,36.599,16.386,36.599,36.599V467.9
	C400.574,488.114,384.188,504.5,363.974,504.5z"/>
<rect x="111.43" y="73.12" style="fill:#BBE0F1;" width="289.15" height="345.16"/>
<path style="fill:#72CDA2;" d="M322.451,300.508v36.212c0,8.075-6.546,14.622-14.622,14.622H198.944
	c-4.701,0-9.209,1.867-12.533,5.191l-24.673,24.673c-5.038,5.038-13.651,1.47-13.651-5.654v-75.043
	c0-8.075,6.546-14.622,14.622-14.622h145.12C315.904,285.887,322.451,292.433,322.451,300.508z"/>
<g>
	<path style="fill:#FFFFFF;" d="M189.549,199.053v36.212c0,8.075,6.546,14.622,14.622,14.622h108.885
		c4.701,0,9.209,1.867,12.533,5.191l24.673,24.673c5.038,5.038,13.651,1.47,13.651-5.655v-75.043
		c0-8.075-6.546-14.622-14.622-14.622h-145.12C196.096,184.431,189.549,190.977,189.549,199.053z"/>
	<circle style="fill:#FFFFFF;" cx="256" cy="461.39" r="20.731"/>
</g>
<g>
	<ellipse style="fill:#E38892;" cx="194.25" cy="141.55" rx="22.784" ry="18.14"/>
	<ellipse style="fill:#E38892;" cx="317.75" cy="141.55" rx="22.784" ry="18.14"/>
</g>
<path style="opacity:0.15;fill:#254A74;enable-background:new    ;" d="M184.506,7.5h-36.48c-20.212,0-36.598,16.385-36.599,36.597
	v423.806c0.001,20.212,16.387,36.597,36.599,36.597h201.843C163.05,445.575,180.391,136.633,184.506,7.5z"/>
<path d="M355.9,289.601c1.999,0,4.018-0.389,5.946-1.188c5.812-2.407,9.566-8.027,9.566-14.317v-75.043
	c0-12.198-9.924-22.122-22.122-22.122H204.17c-12.198,0-22.122,9.924-22.122,22.122v36.212c0,12.198,9.924,22.122,22.122,22.122
	h108.885c2.731,0,5.298,1.064,7.229,2.994l24.673,24.673C347.93,288.025,351.875,289.601,355.9,289.601z M313.056,242.387H204.171
	c-3.927,0-7.122-3.195-7.122-7.122v-36.212c0-3.927,3.195-7.122,7.122-7.122h145.12c3.927,0,7.122,3.195,7.122,7.122v75.043
	c0,0.178,0,0.332-0.307,0.458c-0.306,0.127-0.416,0.018-0.542-0.107l-24.673-24.673C326.128,245.01,319.793,242.387,313.056,242.387
	z M285.714,32.81h-59.428c-4.142,0-7.5,3.358-7.5,7.5s3.358,7.5,7.5,7.5h59.428c4.142,0,7.5-3.358,7.5-7.5
	S289.856,32.81,285.714,32.81z M400.574,110.715c4.142,0,7.5-3.358,7.5-7.5V44.1c0-24.316-19.783-44.1-44.1-44.1H148.026
	c-24.316,0-44.1,19.783-44.1,44.1v423.8c0,24.316,19.783,44.1,44.1,44.1h215.948c24.316,0,44.1-19.783,44.1-44.1V138.546
	c0-4.142-3.358-7.5-7.5-7.5s-7.5,3.358-7.5,7.5v272.236H206.491c-4.142,0-7.5,3.358-7.5,7.5s3.358,7.5,7.5,7.5h186.583V467.9
	c0,16.045-13.054,29.1-29.1,29.1H148.026c-16.045,0-29.1-13.054-29.1-29.1v-42.118h53.238c4.142,0,7.5-3.358,7.5-7.5
	s-3.358-7.5-7.5-7.5h-53.238V80.621h274.147v22.594C393.074,107.357,396.432,110.715,400.574,110.715z M118.926,65.621V44.1
	c0-16.045,13.054-29.1,29.1-29.1h215.948c16.045,0,29.1,13.054,29.1,29.1v21.521H118.926z M284.231,461.391
	c0-15.566-12.665-28.231-28.231-28.231s-28.231,12.665-28.231,28.231c0,15.566,12.665,28.231,28.231,28.231
	S284.231,476.957,284.231,461.391z M242.769,461.391c0-7.295,5.936-13.231,13.231-13.231c7.295,0,13.231,5.936,13.231,13.231
	c0,7.295-5.936,13.231-13.231,13.231C248.705,474.622,242.769,468.686,242.769,461.391z M311.971,123.446V115.4
	c0-4.142-3.358-7.5-7.5-7.5s-7.5,3.358-7.5,7.5v8.046c0,4.142,3.358,7.5,7.5,7.5S311.971,127.588,311.971,123.446z M162.709,278.387
	c-12.198,0-22.122,9.924-22.122,22.122v75.043c0,6.29,3.755,11.91,9.566,14.317c1.929,0.799,3.947,1.188,5.946,1.188
	c4.024-0.001,7.97-1.575,10.942-4.547l24.673-24.673c1.931-1.931,4.498-2.994,7.229-2.994h108.885
	c12.198,0,22.122-9.924,22.122-22.122v-36.212c0-12.198-9.924-22.122-22.122-22.122L162.709,278.387L162.709,278.387z
	 M314.951,300.508v36.212c0,3.927-3.195,7.122-7.122,7.122H198.944c-6.737,0-13.072,2.624-17.835,7.388l-24.673,24.673
	c-0.126,0.125-0.235,0.234-0.542,0.108c-0.307-0.127-0.307-0.281-0.307-0.459v-75.043c0-3.927,3.195-7.122,7.122-7.122h145.12
	C311.756,293.387,314.951,296.582,314.951,300.508z M213.566,119.445v-8.289c0-4.142-3.358-7.5-7.5-7.5s-7.5,3.358-7.5,7.5v8.289
	c0,4.142,3.358,7.5,7.5,7.5S213.566,123.587,213.566,119.445z M256,137.124c7.065,0,13.784-3.059,18.433-8.394
	c2.722-3.123,2.396-7.86-0.726-10.582c-3.123-2.722-7.861-2.396-10.582,0.726c-1.8,2.065-4.397,3.25-7.125,3.25
	c-2.729,0-5.326-1.185-7.126-3.25c-2.722-3.122-7.46-3.448-10.581-0.726c-3.123,2.721-3.448,7.459-0.726,10.582
	C242.216,134.064,248.935,137.124,256,137.124z"/>
<g>
</g>
<g>
</g>
<g>
</g>
<g>
</g>
<g>
</g>
<g>
</g>
<g>
</g>
<g>
</g>
<g>
</g>
<g>
</g>
<g>
</g>
<g>
</g>
<g>
</g>
<g>
</g>
<g>
</g>
</svg>
