<?xml version="1.0" encoding="iso-8859-1"?>
<!-- Generator: Adobe Illustrator 19.0.0, SVG Export Plug-In . SVG Version: 6.00 Build 0)  -->
<svg version="1.1" id="Capa_1" xmlns="http://www.w3.org/2000/svg" xmlns:xlink="http://www.w3.org/1999/xlink" x="0px" y="0px"
	 viewBox="0 0 512 512" style="enable-background:new 0 0 512 512;" xml:space="preserve">
<path style="fill:#CFD8DC;" d="M266.667,0h-256C4.776,0,0,4.776,0,10.667v256c0,5.891,4.776,10.667,10.667,10.667h234.667
	c5.891,0,10.667-4.776,10.667-10.667V256h10.667c5.891,0,10.667-4.776,10.667-10.667V10.667C277.333,4.776,272.558,0,266.667,0z"/>
<path style="fill:#2196F3;" d="M245.333,234.667h256c5.891,0,10.667,4.776,10.667,10.667v256c0,5.891-4.776,10.667-10.667,10.667
	h-256c-5.891,0-10.667-4.776-10.667-10.667v-256C234.667,239.442,239.442,234.667,245.333,234.667z"/>
<g>
	<path style="fill:#FAFAFA;" d="M202.667,106.667h-128C68.776,106.667,64,101.891,64,96c0-5.891,4.776-10.667,10.667-10.667h128
		c5.891,0,10.667,4.776,10.667,10.667C213.333,101.891,208.558,106.667,202.667,106.667z"/>
	<path style="fill:#FAFAFA;" d="M138.667,106.667C132.776,106.667,128,101.891,128,96V53.333c0-5.891,4.776-10.667,10.667-10.667
		s10.667,4.776,10.667,10.667V96C149.333,101.891,144.558,106.667,138.667,106.667z"/>
	<path style="fill:#FAFAFA;" d="M181.333,234.667c-2.661-0.002-5.225-0.999-7.189-2.795C165.056,223.595,85.333,149.333,85.333,96
		c0-5.891,4.776-10.667,10.667-10.667c5.891,0,10.667,4.776,10.667,10.667c0,37.291,59.093,99.349,81.856,120.128
		c4.348,3.975,4.649,10.722,0.674,15.07C187.178,233.406,184.325,234.664,181.333,234.667z"/>
	<path style="fill:#FAFAFA;" d="M96,234.667c-5.891-0.005-10.663-4.784-10.658-10.675c0.002-2.992,1.261-5.845,3.469-7.863
		c22.763-20.779,81.856-82.837,81.856-120.128c0-5.891,4.776-10.667,10.667-10.667C187.224,85.333,192,90.109,192,96
		c0,53.333-79.723,127.595-88.811,135.872C101.225,233.668,98.661,234.665,96,234.667z"/>
	<path style="fill:#FAFAFA;" d="M437.333,469.333c-4.443,0-8.42-2.754-9.984-6.912l-54.016-144.043l-54.016,144.043
		c-2.078,5.512-8.232,8.296-13.744,6.217c-5.505-2.076-8.29-8.218-6.224-13.727l64-170.667c2.671-5.514,9.305-7.819,14.819-5.149
		c2.247,1.088,4.061,2.902,5.149,5.149l64,170.667c2.074,5.514-0.715,11.665-6.229,13.739
		C439.89,469.111,438.617,469.342,437.333,469.333z"/>
	<path style="fill:#FAFAFA;" d="M416,426.667h-85.333c-5.891,0-10.667-4.776-10.667-10.667c0-5.891,4.776-10.667,10.667-10.667H416
		c5.891,0,10.667,4.776,10.667,10.667C426.667,421.891,421.891,426.667,416,426.667z"/>
</g>
<g>
	<path style="fill:#455A64;" d="M458.667,213.333c-5.891,0-10.667-4.776-10.667-10.667C447.906,126.122,385.878,64.094,309.333,64
		c-5.891,0-10.667-4.776-10.667-10.667s4.776-10.667,10.667-10.667c88.327,0.094,159.906,71.673,160,160
		C469.333,208.558,464.558,213.333,458.667,213.333z"/>
	<path style="fill:#455A64;" d="M458.667,213.333c-2.831,0.005-5.548-1.115-7.552-3.115l-42.667-42.667
		c-4.093-4.237-3.975-10.99,0.262-15.083c4.134-3.993,10.687-3.993,14.821,0l33.984,33.984l24.619-32.853
		c3.529-4.717,10.214-5.68,14.931-2.151s5.68,10.214,2.151,14.931c-0.005,0.007-0.01,0.013-0.015,0.02l-32,42.667
		c-1.852,2.486-4.694,4.044-7.787,4.267L458.667,213.333z"/>
	<path style="fill:#455A64;" d="M202.667,469.333c-88.327-0.094-159.906-71.673-160-160c0-5.891,4.776-10.667,10.667-10.667
		S64,303.442,64,309.333C64.094,385.878,126.122,447.906,202.667,448c5.891,0,10.667,4.776,10.667,10.667
		C213.333,464.558,208.558,469.333,202.667,469.333z"/>
	<path style="fill:#455A64;" d="M21.333,362.667c-5.891,0-10.667-4.776-10.667-10.667c0-2.308,0.749-4.554,2.133-6.4l32-42.667
		c3.529-4.717,10.213-5.681,14.931-2.152c0.408,0.305,0.794,0.64,1.155,1l42.667,42.667c4.237,4.093,4.355,10.845,0.262,15.083
		c-4.093,4.237-10.845,4.354-15.083,0.262c-0.089-0.086-0.176-0.173-0.262-0.262l-33.984-33.963L29.867,358.4
		C27.852,361.086,24.691,362.667,21.333,362.667z"/>
</g>
<path d="M245.333,277.333H10.667C4.776,277.333,0,272.558,0,266.667v-256C0,4.776,4.776,0,10.667,0h256
	c5.891,0,10.667,4.776,10.667,10.667v234.667c0,5.891-4.776,10.667-10.667,10.667H256v10.667
	C256,272.558,251.224,277.333,245.333,277.333z M21.333,256h213.333v-10.667c0-5.891,4.776-10.667,10.667-10.667H256V21.333H21.333
	V256z"/>
<path d="M501.333,512h-256c-5.891,0-10.667-4.776-10.667-10.667v-256c0-5.891,4.776-10.667,10.667-10.667h256
	c5.891,0,10.667,4.776,10.667,10.667v256C512,507.224,507.224,512,501.333,512z M256,490.667h234.667V256H256V490.667z"/>
<path d="M202.667,106.667h-128C68.776,106.667,64,101.891,64,96c0-5.891,4.776-10.667,10.667-10.667h128
	c5.891,0,10.667,4.776,10.667,10.667C213.333,101.891,208.558,106.667,202.667,106.667z"/>
<path d="M138.667,106.667C132.776,106.667,128,101.891,128,96V53.333c0-5.891,4.776-10.667,10.667-10.667
	s10.667,4.776,10.667,10.667V96C149.333,101.891,144.558,106.667,138.667,106.667z"/>
<path d="M181.333,234.667c-2.661-0.002-5.225-0.999-7.189-2.795C165.056,223.595,85.333,149.333,85.333,96
	c0-5.891,4.776-10.667,10.667-10.667c5.891,0,10.667,4.776,10.667,10.667c0,37.291,59.093,99.349,81.856,120.128
	c4.348,3.975,4.649,10.722,0.674,15.07C187.178,233.406,184.325,234.664,181.333,234.667z"/>
<path d="M96,234.667c-5.891-0.005-10.663-4.784-10.658-10.675c0.002-2.992,1.261-5.845,3.469-7.863
	c22.763-20.779,81.856-82.837,81.856-120.128c0-5.891,4.776-10.667,10.667-10.667C187.224,85.333,192,90.109,192,96
	c0,53.333-79.723,127.595-88.811,135.872C101.225,233.668,98.661,234.665,96,234.667z"/>
<path d="M437.333,469.333c-4.443,0-8.42-2.754-9.984-6.912l-54.016-144.043l-54.016,144.043c-2.078,5.512-8.232,8.296-13.744,6.217
	c-5.505-2.076-8.29-8.218-6.224-13.727l64-170.667c2.671-5.514,9.305-7.819,14.819-5.149c2.247,1.088,4.061,2.902,5.149,5.149
	l64,170.667c2.074,5.514-0.715,11.665-6.229,13.739C439.89,469.111,438.617,469.342,437.333,469.333z"/>
<path d="M416,426.667h-85.333c-5.891,0-10.667-4.776-10.667-10.667c0-5.891,4.776-10.667,10.667-10.667H416
	c5.891,0,10.667,4.776,10.667,10.667C426.667,421.891,421.891,426.667,416,426.667z"/>
<path d="M458.667,213.333c-5.891,0-10.667-4.776-10.667-10.667C447.906,126.122,385.878,64.094,309.333,64
	c-5.891,0-10.667-4.776-10.667-10.667s4.776-10.667,10.667-10.667c88.327,0.094,159.906,71.673,160,160
	C469.333,208.558,464.558,213.333,458.667,213.333z"/>
<path d="M458.667,213.333c-2.831,0.005-5.548-1.115-7.552-3.115l-42.667-42.667c-4.093-4.237-3.975-10.99,0.262-15.083
	c4.134-3.993,10.687-3.993,14.821,0l33.984,33.984l24.619-32.853c3.529-4.717,10.214-5.68,14.931-2.151s5.68,10.214,2.151,14.931
	c-0.005,0.007-0.01,0.013-0.015,0.02l-32,42.667c-1.852,2.486-4.694,4.044-7.787,4.267L458.667,213.333z"/>
<path d="M202.667,469.333c-88.327-0.094-159.906-71.673-160-160c0-5.891,4.776-10.667,10.667-10.667S64,303.442,64,309.333
	C64.094,385.878,126.122,447.906,202.667,448c5.891,0,10.667,4.776,10.667,10.667C213.333,464.558,208.558,469.333,202.667,469.333z
	"/>
<path d="M21.333,362.667c-5.891,0-10.667-4.776-10.667-10.667c0-2.308,0.749-4.554,2.133-6.4l32-42.667
	c3.529-4.717,10.213-5.681,14.931-2.152c0.408,0.305,0.794,0.64,1.155,1l42.667,42.667c4.237,4.093,4.355,10.845,0.262,15.083
	c-4.093,4.237-10.845,4.354-15.083,0.262c-0.089-0.086-0.176-0.173-0.262-0.262l-33.984-33.963L29.867,358.4
	C27.852,361.086,24.691,362.667,21.333,362.667z"/>
<g>
</g>
<g>
</g>
<g>
</g>
<g>
</g>
<g>
</g>
<g>
</g>
<g>
</g>
<g>
</g>
<g>
</g>
<g>
</g>
<g>
</g>
<g>
</g>
<g>
</g>
<g>
</g>
<g>
</g>
</svg>
