<?xml version="1.0" encoding="iso-8859-1"?>
<!-- Generator: Adobe Illustrator 19.0.0, SVG Export Plug-In . SVG Version: 6.00 Build 0)  -->
<svg version="1.1" id="Capa_1" xmlns="http://www.w3.org/2000/svg" xmlns:xlink="http://www.w3.org/1999/xlink" x="0px" y="0px"
	 viewBox="0 0 512 512" style="enable-background:new 0 0 512 512;" xml:space="preserve">
<g>
	<path style="fill:#455A64;" d="M309.333,64c-5.891,0-10.667-4.776-10.667-10.667v-32H21.333v32C21.333,59.224,16.558,64,10.667,64
		S0,59.224,0,53.333V10.667C0,4.776,4.776,0,10.667,0h298.667C315.224,0,320,4.776,320,10.667v42.667
		C320,59.224,315.224,64,309.333,64z"/>
	<path style="fill:#455A64;" d="M160,512c-5.891,0-10.667-4.776-10.667-10.667V10.667C149.333,4.776,154.109,0,160,0
		c5.891,0,10.667,4.776,10.667,10.667v490.667C170.667,507.224,165.891,512,160,512z"/>
	<path style="fill:#455A64;" d="M501.333,277.333c-5.891,0-10.667-4.776-10.667-10.667V256H341.333v10.667
		c0,5.891-4.776,10.667-10.667,10.667c-5.891,0-10.667-4.776-10.667-10.667v-21.333c0-5.891,4.776-10.667,10.667-10.667h170.667
		c5.891,0,10.667,4.776,10.667,10.667v21.333C512,272.558,507.224,277.333,501.333,277.333z"/>
	<path style="fill:#455A64;" d="M416,512c-5.891,0-10.667-4.776-10.667-10.667v-256c0-5.891,4.776-10.667,10.667-10.667
		c5.891,0,10.667,4.776,10.667,10.667v256C426.667,507.224,421.891,512,416,512z"/>
	<path style="fill:#455A64;" d="M202.667,512h-85.333c-5.891,0-10.667-4.776-10.667-10.667s4.776-10.667,10.667-10.667h85.333
		c5.891,0,10.667,4.776,10.667,10.667S208.558,512,202.667,512z"/>
	<path style="fill:#455A64;" d="M437.333,512h-42.667c-5.891,0-10.667-4.776-10.667-10.667s4.776-10.667,10.667-10.667h42.667
		c5.891,0,10.667,4.776,10.667,10.667S443.224,512,437.333,512z"/>
</g>
<path d="M309.333,64c-5.891,0-10.667-4.776-10.667-10.667v-32H21.333v32C21.333,59.224,16.558,64,10.667,64S0,59.224,0,53.333
	V10.667C0,4.776,4.776,0,10.667,0h298.667C315.224,0,320,4.776,320,10.667v42.667C320,59.224,315.224,64,309.333,64z"/>
<path d="M160,512c-5.891,0-10.667-4.776-10.667-10.667V10.667C149.333,4.776,154.109,0,160,0c5.891,0,10.667,4.776,10.667,10.667
	v490.667C170.667,507.224,165.891,512,160,512z"/>
<path d="M501.333,277.333c-5.891,0-10.667-4.776-10.667-10.667V256H341.333v10.667c0,5.891-4.776,10.667-10.667,10.667
	c-5.891,0-10.667-4.776-10.667-10.667v-21.333c0-5.891,4.776-10.667,10.667-10.667h170.667c5.891,0,10.667,4.776,10.667,10.667
	v21.333C512,272.558,507.224,277.333,501.333,277.333z"/>
<path d="M416,512c-5.891,0-10.667-4.776-10.667-10.667v-256c0-5.891,4.776-10.667,10.667-10.667c5.891,0,10.667,4.776,10.667,10.667
	v256C426.667,507.224,421.891,512,416,512z"/>
<path d="M202.667,512h-85.333c-5.891,0-10.667-4.776-10.667-10.667s4.776-10.667,10.667-10.667h85.333
	c5.891,0,10.667,4.776,10.667,10.667S208.558,512,202.667,512z"/>
<path d="M437.333,512h-42.667c-5.891,0-10.667-4.776-10.667-10.667s4.776-10.667,10.667-10.667h42.667
	c5.891,0,10.667,4.776,10.667,10.667S443.224,512,437.333,512z"/>
<g>
</g>
<g>
</g>
<g>
</g>
<g>
</g>
<g>
</g>
<g>
</g>
<g>
</g>
<g>
</g>
<g>
</g>
<g>
</g>
<g>
</g>
<g>
</g>
<g>
</g>
<g>
</g>
<g>
</g>
</svg>
