<?xml version="1.0" encoding="iso-8859-1"?>
<!-- Generator: Adobe Illustrator 19.0.0, SVG Export Plug-In . SVG Version: 6.00 Build 0)  -->
<svg version="1.1" id="Capa_1" xmlns="http://www.w3.org/2000/svg" xmlns:xlink="http://www.w3.org/1999/xlink" x="0px" y="0px"
	 viewBox="0 0 512 512" style="enable-background:new 0 0 512 512;" xml:space="preserve">
<path style="fill:#2196F3;" d="M458.707,213.333H352.04c-5.891,0.011-10.675-4.757-10.686-10.648
	c-0.005-2.84,1.123-5.565,3.134-7.571l84.032-84.053C441.051,98.611,448.08,81.665,448.04,64c0-23.564-19.103-42.667-42.667-42.667
	c-23.564,0-42.667,19.103-42.667,42.667v10.667c0,5.891-4.776,10.667-10.667,10.667s-10.667-4.776-10.667-10.667V64
	c0-35.346,28.654-64,64-64s64,28.654,64,64c0.069,23.33-9.204,45.717-25.749,62.165L377.79,192h80.917
	c5.891,0,10.667,4.776,10.667,10.667S464.598,213.333,458.707,213.333z"/>
<g>
	<path style="fill:#455A64;" d="M53.373,512c-5.891-0.009-10.66-4.791-10.651-10.682c0.003-2.011,0.574-3.98,1.648-5.68l256-405.333
		c3.146-4.984,9.736-6.474,14.72-3.328c4.984,3.146,6.474,9.736,3.328,14.72l-256,405.333C60.459,510.132,57.043,512.009,53.373,512
		z"/>
	<path style="fill:#455A64;" d="M309.374,512c-3.662,0.002-7.069-1.875-9.024-4.971l-256-405.333
		c-3.146-4.984-1.656-11.574,3.328-14.72s11.574-1.656,14.72,3.328l256,405.333c3.146,4.981,1.658,11.569-3.323,14.715
		C313.369,511.43,311.392,512.001,309.374,512z"/>
</g>
<path d="M458.707,213.333H352.04c-5.891,0.011-10.675-4.757-10.686-10.648c-0.005-2.84,1.123-5.565,3.134-7.571l84.032-84.032
	C441.056,98.627,448.085,81.672,448.04,64c0-23.564-19.103-42.667-42.667-42.667c-23.564,0-42.667,19.103-42.667,42.667v10.667
	c0,5.891-4.776,10.667-10.667,10.667s-10.667-4.776-10.667-10.667V64c0-35.346,28.654-64,64-64s64,28.654,64,64
	c0.071,23.331-9.202,45.718-25.749,62.165L377.79,192h80.917c5.891,0,10.667,4.776,10.667,10.667S464.598,213.333,458.707,213.333z"
	/>
<path d="M53.373,512c-5.891-0.009-10.66-4.791-10.651-10.682c0.003-2.011,0.574-3.98,1.648-5.68l256-405.333
	c3.07-5.028,9.635-6.615,14.663-3.544c5.028,3.07,6.615,9.635,3.544,14.663c-0.052,0.085-0.105,0.169-0.159,0.252l-256,405.333
	C60.464,510.119,57.047,512.005,53.373,512z"/>
<path d="M309.374,512c-3.662,0.002-7.069-1.875-9.024-4.971l-256-405.333c-3.21-4.94-1.807-11.546,3.133-14.756
	c4.94-3.21,11.546-1.807,14.756,3.133c0.054,0.083,0.107,0.167,0.159,0.252l256,405.333c3.134,4.988,1.631,11.573-3.357,14.707
	C313.342,511.432,311.378,511.999,309.374,512z"/>
<g>
</g>
<g>
</g>
<g>
</g>
<g>
</g>
<g>
</g>
<g>
</g>
<g>
</g>
<g>
</g>
<g>
</g>
<g>
</g>
<g>
</g>
<g>
</g>
<g>
</g>
<g>
</g>
<g>
</g>
</svg>
