<?xml version="1.0" encoding="iso-8859-1"?>
<!-- Generator: Adobe Illustrator 19.0.0, SVG Export Plug-In . SVG Version: 6.00 Build 0)  -->
<svg version="1.1" id="Capa_1" xmlns="http://www.w3.org/2000/svg" xmlns:xlink="http://www.w3.org/1999/xlink" x="0px" y="0px"
	 viewBox="0 0 512 512" style="enable-background:new 0 0 512 512;" xml:space="preserve">
<path style="fill:#455A64;" d="M437.333,512H74.667c-5.891-0.001-10.666-4.777-10.665-10.668c0-1.956,0.538-3.874,1.556-5.545
	L211.52,256L65.557,16.213c-3.063-5.032-1.467-11.594,3.564-14.658C70.792,0.538,72.711,0,74.667,0h362.667
	C443.224,0,448,4.776,448,10.667s-4.776,10.667-10.667,10.667H93.653l139.456,229.12c2.074,3.407,2.074,7.686,0,11.093
	L93.653,490.667h343.68c5.891,0,10.667,4.776,10.667,10.667S443.224,512,437.333,512z"/>
<path d="M437.333,512H74.667c-5.891-0.001-10.666-4.777-10.665-10.668c0-1.956,0.538-3.874,1.556-5.545L211.52,256L65.557,16.213
	c-3.063-5.032-1.467-11.594,3.564-14.658C70.792,0.538,72.711,0,74.667,0h362.667C443.224,0,448,4.776,448,10.667
	s-4.776,10.667-10.667,10.667H93.653l139.477,229.12c2.074,3.407,2.074,7.686,0,11.093L93.653,490.667h343.68
	c5.891,0,10.667,4.776,10.667,10.667S443.224,512,437.333,512z"/>
<g>
</g>
<g>
</g>
<g>
</g>
<g>
</g>
<g>
</g>
<g>
</g>
<g>
</g>
<g>
</g>
<g>
</g>
<g>
</g>
<g>
</g>
<g>
</g>
<g>
</g>
<g>
</g>
<g>
</g>
</svg>
