<?xml version="1.0" encoding="iso-8859-1"?>
<!-- Generator: Adobe Illustrator 19.0.0, SVG Export Plug-In . SVG Version: 6.00 Build 0)  -->
<svg version="1.1" id="Capa_1" xmlns="http://www.w3.org/2000/svg" xmlns:xlink="http://www.w3.org/1999/xlink" x="0px" y="0px"
	 viewBox="0 0 512.138 512.138" style="enable-background:new 0 0 512.138 512.138;" xml:space="preserve">
<path style="fill:#2196F3;" d="M458.74,512.138H352.073c-5.891,0.01-10.675-4.757-10.686-10.648
	c-0.005-2.84,1.123-5.565,3.134-7.571l84.032-84.053c12.447-12.506,19.461-29.416,19.52-47.061
	c0-23.564-19.102-42.667-42.667-42.667s-42.667,19.103-42.667,42.667v10.667c0,5.891-4.776,10.667-10.667,10.667
	c-5.891,0-10.667-4.776-10.667-10.667v-10.667c0-35.346,28.654-64,64-64s64,28.654,64,64c0.066,23.33-9.206,45.716-25.749,62.165
	l-65.835,65.835h80.917c5.891,0,10.667,4.776,10.667,10.667C469.406,507.363,464.631,512.138,458.74,512.138z"/>
<g>
	<path style="fill:#455A64;" d="M53.406,426.805c-2.016,0.002-3.991-0.568-5.696-1.643c-4.983-3.142-6.475-9.729-3.333-14.712
		c0.002-0.003,0.003-0.005,0.005-0.008l256-405.333c3.146-4.984,9.736-6.474,14.72-3.328s6.474,9.736,3.328,14.72l0,0l-256,405.333
		C60.475,424.93,57.068,426.807,53.406,426.805z"/>
	<path style="fill:#455A64;" d="M309.406,426.805c-3.662,0.002-7.069-1.875-9.024-4.971l-256-405.333
		c-3.146-4.984-1.656-11.574,3.328-14.72s11.574-1.656,14.72,3.328l256,405.333c3.147,4.98,1.66,11.568-3.32,14.715
		c-0.003,0.002-0.005,0.003-0.008,0.005C313.397,426.237,311.422,426.807,309.406,426.805z"/>
</g>
<path d="M458.74,512.138H352.073c-5.891,0.01-10.675-4.757-10.686-10.648c-0.005-2.84,1.123-5.565,3.134-7.571l84.032-84.032
	c12.536-12.456,19.565-29.411,19.52-47.083c0-23.564-19.102-42.667-42.667-42.667s-42.667,19.103-42.667,42.667v10.667
	c0,5.891-4.776,10.667-10.667,10.667c-5.891,0-10.667-4.776-10.667-10.667v-10.667c0-35.346,28.654-64,64-64s64,28.654,64,64
	c0.071,23.331-9.202,45.718-25.749,62.165l-65.835,65.835h80.917c5.891,0,10.667,4.776,10.667,10.667
	C469.406,507.363,464.631,512.138,458.74,512.138z"/>
<path d="M53.406,426.805c-5.891-0.009-10.66-4.791-10.651-10.682c0.003-2.011,0.574-3.98,1.648-5.68l256-405.333
	c3.07-5.028,9.635-6.615,14.663-3.544c5.028,3.07,6.615,9.635,3.544,14.663c-0.052,0.085-0.105,0.169-0.159,0.252l-256,405.333
	C60.497,424.924,57.08,426.81,53.406,426.805z"/>
<path d="M309.406,426.805c-3.662,0.002-7.069-1.875-9.024-4.971l-256-405.333c-3.146-4.984-1.656-11.574,3.328-14.72
	s11.574-1.656,14.72,3.328l256,405.333c3.146,4.981,1.658,11.569-3.322,14.715C313.401,426.235,311.424,426.806,309.406,426.805z"/>
<g>
</g>
<g>
</g>
<g>
</g>
<g>
</g>
<g>
</g>
<g>
</g>
<g>
</g>
<g>
</g>
<g>
</g>
<g>
</g>
<g>
</g>
<g>
</g>
<g>
</g>
<g>
</g>
<g>
</g>
</svg>
