<?xml version="1.0" encoding="iso-8859-1"?>
<!-- Generator: Adobe Illustrator 19.0.0, SVG Export Plug-In . SVG Version: 6.00 Build 0)  -->
<svg version="1.1" id="Capa_1" xmlns="http://www.w3.org/2000/svg" xmlns:xlink="http://www.w3.org/1999/xlink" x="0px" y="0px"
	 viewBox="0 0 512 512" style="enable-background:new 0 0 512 512;" xml:space="preserve">
<path style="fill:#455A64;" d="M256,512c-88.235,0-160-59.733-160-133.333c0-5.891,4.776-10.667,10.667-10.667
	c5.891,0,10.667,4.776,10.667,10.667c0,61.76,62.208,112,138.667,112s138.667-50.24,138.667-112
	C394.667,313.323,329.856,256,256,256c-92.715,0-160-51.584-160-122.667C96,59.733,167.765,0,256,0s160,59.733,160,133.333
	c0,5.891-4.776,10.667-10.667,10.667s-10.667-4.776-10.667-10.667c0-61.76-62.208-112-138.667-112s-138.667,50.24-138.667,112
	c0,58.667,58.304,101.333,138.667,101.333c85.333,0,160,67.285,160,144C416,452.267,344.235,512,256,512z"/>
<path style="fill:#2196F3;" d="M469.333,256H42.667C36.776,256,32,251.224,32,245.333c0-5.891,4.776-10.667,10.667-10.667h426.667
	c5.891,0,10.667,4.776,10.667,10.667C480,251.224,475.224,256,469.333,256z"/>
<path d="M256,512c-88.235,0-160-59.733-160-133.333c0-5.891,4.776-10.667,10.667-10.667c5.891,0,10.667,4.776,10.667,10.667
	c0,61.76,62.208,112,138.667,112s138.667-50.24,138.667-112C394.667,313.323,329.877,256,256,256c-92.715,0-160-51.584-160-122.667
	C96,59.733,167.765,0,256,0s160,59.733,160,133.333c0,5.891-4.776,10.667-10.667,10.667s-10.667-4.776-10.667-10.667
	c0-61.76-62.208-112-138.667-112s-138.667,50.24-138.667,112c0,58.667,58.304,101.333,138.667,101.333c85.333,0,160,67.285,160,144
	C416,452.267,344.235,512,256,512z"/>
<path d="M469.333,256H42.667C36.776,256,32,251.224,32,245.333c0-5.891,4.776-10.667,10.667-10.667h426.667
	c5.891,0,10.667,4.776,10.667,10.667C480,251.224,475.224,256,469.333,256z"/>
<g>
</g>
<g>
</g>
<g>
</g>
<g>
</g>
<g>
</g>
<g>
</g>
<g>
</g>
<g>
</g>
<g>
</g>
<g>
</g>
<g>
</g>
<g>
</g>
<g>
</g>
<g>
</g>
<g>
</g>
</svg>
