<?xml version="1.0" encoding="iso-8859-1"?>
<!-- Generator: Adobe Illustrator 19.0.0, SVG Export Plug-In . SVG Version: 6.00 Build 0)  -->
<svg version="1.1" id="Capa_1" xmlns="http://www.w3.org/2000/svg" xmlns:xlink="http://www.w3.org/1999/xlink" x="0px" y="0px"
	 viewBox="0 0 512.005 512.005" style="enable-background:new 0 0 512.005 512.005;" xml:space="preserve">
<path style="fill:#607D8B;" d="M53.336,149.338h405.333c29.455,0,53.333,23.878,53.333,53.333v149.333
	c0,29.455-23.878,53.333-53.333,53.333H53.336c-29.455,0-53.333-23.878-53.333-53.333V202.671
	C0.002,173.216,23.88,149.338,53.336,149.338z"/>
<g>
	<path style="fill:#CFD8DC;" d="M416.002,0.005H181.336c-5.891,0-10.667,4.776-10.667,10.667v74.667H96.002
		c-5.891,0-10.667,4.776-10.667,10.667v128c0,5.891,4.776,10.667,10.667,10.667h320c5.891,0,10.667-4.776,10.667-10.667V10.671
		C426.669,4.78,421.893,0.005,416.002,0.005z"/>
	<path style="fill:#CFD8DC;" d="M96.002,384.005h320c5.891,0,10.667,4.776,10.667,10.667v106.667
		c0,5.891-4.776,10.667-10.667,10.667h-320c-5.891,0-10.667-4.776-10.667-10.667V394.671
		C85.336,388.78,90.111,384.005,96.002,384.005z"/>
</g>
<path style="fill:#B0BEC5;" d="M185.41,0.815c-3.985-1.654-8.574-0.745-11.627,2.304L88.45,88.453
	c-4.171,4.16-4.179,10.914-0.019,15.085c2.006,2.011,4.731,3.139,7.571,3.134h85.333c5.891,0,10.667-4.776,10.667-10.667V10.671
	C192.002,6.355,189.399,2.464,185.41,0.815z"/>
<circle style="fill:#FFC107;" cx="458.669" cy="202.671" r="10.667"/>
<path d="M458.669,405.338H53.336c-29.455,0-53.333-23.878-53.333-53.333V202.671c0-29.455,23.878-53.333,53.333-53.333h42.667
	c5.891,0,10.667,4.776,10.667,10.667c0,5.891-4.776,10.667-10.667,10.667H53.336c-17.673,0-32,14.327-32,32v149.333
	c0,17.673,14.327,32,32,32h405.333c17.673,0,32-14.327,32-32V202.671c0-17.673-14.327-32-32-32h-42.667
	c-5.891,0-10.667-4.776-10.667-10.667c0-5.891,4.776-10.667,10.667-10.667h42.667c29.455,0,53.333,23.878,53.333,53.333v149.333
	C512.002,381.46,488.124,405.338,458.669,405.338z"/>
<path d="M416.002,234.671h-320c-5.891,0-10.667-4.776-10.667-10.667v-128c-0.005-2.831,1.115-5.548,3.115-7.552l85.333-85.333
	c2.004-1.999,4.721-3.12,7.552-3.115h234.667c5.891,0,10.667,4.776,10.667,10.667v213.333
	C426.669,229.896,421.893,234.671,416.002,234.671z M106.669,213.338h298.667v-192H185.752l-79.083,79.083V213.338z"/>
<path d="M416.002,512.005h-320c-5.891,0-10.667-4.776-10.667-10.667V394.671c0-5.891,4.776-10.667,10.667-10.667h320
	c5.891,0,10.667,4.776,10.667,10.667v106.667C426.669,507.229,421.893,512.005,416.002,512.005z M106.669,490.671h298.667v-85.333
	H106.669V490.671z"/>
<path d="M181.336,106.671H96.002c-5.891,0-10.667-4.776-10.667-10.667c0-5.891,4.776-10.667,10.667-10.667h74.667V10.671
	c0-5.891,4.776-10.667,10.667-10.667c5.891,0,10.667,4.776,10.667,10.667v85.333C192.002,101.896,187.227,106.671,181.336,106.671z"
	/>
<circle cx="458.669" cy="202.671" r="10.667"/>
<g>
</g>
<g>
</g>
<g>
</g>
<g>
</g>
<g>
</g>
<g>
</g>
<g>
</g>
<g>
</g>
<g>
</g>
<g>
</g>
<g>
</g>
<g>
</g>
<g>
</g>
<g>
</g>
<g>
</g>
</svg>
