<?xml version="1.0" encoding="iso-8859-1"?>
<!-- Generator: Adobe Illustrator 19.0.0, SVG Export Plug-In . SVG Version: 6.00 Build 0)  -->
<svg version="1.1" id="Capa_1" xmlns="http://www.w3.org/2000/svg" xmlns:xlink="http://www.w3.org/1999/xlink" x="0px" y="0px"
	 viewBox="0 0 512.274 512.274" style="enable-background:new 0 0 512.274 512.274;" xml:space="preserve">
<path style="fill:#455A64;" d="M480.137,512.274H309.47c-5.891,0-10.667-4.776-10.667-10.667V452.54
	c-0.034-4.991,3.307-9.375,8.128-10.667c114.432-28.053,184.456-143.56,156.403-257.993
	C435.282,69.449,319.774-0.575,205.342,27.478S20.886,171.038,48.939,285.47c18.926,77.201,79.203,137.478,156.403,156.403
	c4.775,1.17,8.132,5.452,8.128,10.368v49.365c0,5.891-4.776,10.667-10.667,10.667H32.137c-5.891,0-10.667-4.776-10.667-10.667
	V458.94c0-5.891,4.776-10.667,10.667-10.667s10.667,4.776,10.667,10.667v32h149.333v-30.443
	C67.447,425.151-4.98,295.417,30.366,170.727S195.447-26.39,320.137,8.956s197.117,165.081,161.771,289.771
	c-22.207,78.337-83.434,139.564-161.771,161.771v30.443H469.47v-32c0-5.891,4.776-10.667,10.667-10.667
	c5.891,0,10.667,4.776,10.667,10.667v42.667C490.803,507.498,486.028,512.274,480.137,512.274z"/>
<path d="M480.137,512.274H309.47c-5.891,0-10.667-4.776-10.667-10.667V452.54c-0.042-4.994,3.302-9.382,8.128-10.667
	c114.432-28.053,184.456-143.56,156.403-257.993C435.282,69.449,319.774-0.575,205.342,27.478S20.886,171.038,48.939,285.47
	c18.926,77.201,79.203,137.478,156.403,156.403c4.767,1.168,8.122,5.439,8.128,10.347v49.387c0,5.891-4.776,10.667-10.667,10.667
	H32.137c-5.891,0-10.667-4.776-10.667-10.667V458.94c0-5.891,4.776-10.667,10.667-10.667s10.667,4.776,10.667,10.667v32h149.333
	v-30.443C67.447,425.151-4.98,295.417,30.366,170.727S195.447-26.39,320.137,8.956s197.117,165.081,161.771,289.771
	c-22.207,78.337-83.434,139.564-161.771,161.771v30.443H469.47v-32c0-5.891,4.776-10.667,10.667-10.667
	c5.891,0,10.667,4.776,10.667,10.667v42.667C490.803,507.498,486.028,512.274,480.137,512.274z"/>
<g>
</g>
<g>
</g>
<g>
</g>
<g>
</g>
<g>
</g>
<g>
</g>
<g>
</g>
<g>
</g>
<g>
</g>
<g>
</g>
<g>
</g>
<g>
</g>
<g>
</g>
<g>
</g>
<g>
</g>
</svg>
