<?xml version="1.0" encoding="iso-8859-1"?>
<!-- Generator: Adobe Illustrator 19.0.0, SVG Export Plug-In . SVG Version: 6.00 Build 0)  -->
<svg version="1.1" id="Capa_1" xmlns="http://www.w3.org/2000/svg" xmlns:xlink="http://www.w3.org/1999/xlink" x="0px" y="0px"
	 viewBox="0 0 512.148 512.148" style="enable-background:new 0 0 512.148 512.148;" xml:space="preserve">
<path style="fill:#2196F3;" d="M124.961,440.564l-42.667-42.667c-4.165-4.164-10.917-4.164-15.083,0l-64,64
	c-4.153,4.178-4.133,10.932,0.045,15.085c1.186,1.179,2.632,2.062,4.222,2.579l64,21.333c1.054,0.347,2.154,0.534,3.264,0.555
	c2.831,0.005,5.548-1.115,7.552-3.115l42.667-42.667c4.171-4.16,4.179-10.914,0.019-15.085
	C124.973,440.577,124.967,440.571,124.961,440.564z"/>
<path style="fill:#CFD8DC;" d="M274.294,419.231L103.627,248.564c-4.16-4.171-10.914-4.179-15.085-0.019
	c-2.011,2.006-3.139,4.731-3.134,7.571v6.4c-0.104,41.773-14.32,82.286-40.341,114.965c-3.377,4.247-3.029,10.352,0.811,14.187
	l85.333,85.333c3.601,3.605,9.249,4.159,13.483,1.323l14.933-10.005c30.191-20.164,65.69-30.908,101.995-30.869h5.12
	c5.891,0.011,10.675-4.757,10.686-10.648C277.433,423.962,276.305,421.237,274.294,419.231z"/>
<path style="fill:#2196F3;" d="M496.374,59.999l-33.493-33.493c-18.573-18.825-48.176-21.091-69.397-5.312L89.675,247.583
	c-4.727,3.515-5.71,10.197-2.195,14.924c0.311,0.419,0.653,0.814,1.022,1.182l170.667,170.667c2.004,1.999,4.721,3.12,7.552,3.115
	h0.768c3.092-0.223,5.935-1.78,7.787-4.267l226.347-303.787l0,0C517.449,108.213,515.209,78.583,496.374,59.999z"/>
<path d="M74.742,501.45c-1.146,0-2.285-0.187-3.371-0.555l-64-21.333c-5.602-1.822-8.667-7.84-6.846-13.442
	c0.517-1.59,1.4-3.036,2.579-4.222l64-64c4.237-4.093,10.99-3.976,15.083,0.262c3.993,4.134,3.993,10.687,0,14.821l-51.691,51.797
	l41.365,13.781l37.995-37.995c4.237-4.093,10.99-3.975,15.083,0.262c3.993,4.134,3.993,10.687,0,14.821l-42.667,42.667
	C80.277,500.316,77.569,501.444,74.742,501.45z"/>
<path d="M138.742,480.116c-2.831,0.005-5.548-1.115-7.552-3.115l-85.333-85.333c-3.845-3.843-4.185-9.963-0.789-14.208
	c26.068-32.645,40.29-73.168,40.341-114.944v-6.4c0-3.357,1.581-6.519,4.267-8.533L393.569,21.151
	c21.195-15.727,50.726-13.491,69.312,5.248l33.557,33.557c18.722,18.56,20.984,48.049,5.312,69.248L275.275,433.183
	c-2.014,2.686-5.176,4.267-8.533,4.267h-5.035c-36.337-0.032-71.865,10.727-102.08,30.912l-14.933,9.963
	C142.932,479.499,140.86,480.123,138.742,480.116z M67.531,383.178l72.533,72.533l7.68-5.12
	c33.64-22.473,73.187-34.47,113.643-34.475l223.211-299.563c9.379-12.712,8.007-30.381-3.221-41.493l-33.579-33.579
	c-11.129-11.24-28.826-12.594-41.536-3.179l-299.52,224.213C106.684,305.859,92.964,348.081,67.531,383.178z"/>
<path d="M266.742,437.45c-2.831,0.005-5.548-1.115-7.552-3.115L88.523,263.668c-4.093-4.237-3.975-10.99,0.262-15.083
	c4.134-3.992,10.687-3.992,14.82,0l170.667,170.667c4.171,4.16,4.179,10.914,0.019,15.085c-2.006,2.011-4.731,3.139-7.571,3.134
	L266.742,437.45z"/>
<g>
</g>
<g>
</g>
<g>
</g>
<g>
</g>
<g>
</g>
<g>
</g>
<g>
</g>
<g>
</g>
<g>
</g>
<g>
</g>
<g>
</g>
<g>
</g>
<g>
</g>
<g>
</g>
<g>
</g>
</svg>
