<?xml version="1.0" encoding="iso-8859-1"?>
<!-- Generator: Adobe Illustrator 19.0.0, SVG Export Plug-In . SVG Version: 6.00 Build 0)  -->
<svg version="1.1" id="Capa_1" xmlns="http://www.w3.org/2000/svg" xmlns:xlink="http://www.w3.org/1999/xlink" x="0px" y="0px"
	 viewBox="0 0 512 512" style="enable-background:new 0 0 512 512;" xml:space="preserve">
<g>
	<path style="fill:#455A64;" d="M138.667,330.667h-64C33.429,330.667,0,297.237,0,256s33.429-74.667,74.667-74.667h64
		c41.237,0,74.667,33.429,74.667,74.667S179.904,330.667,138.667,330.667z M74.667,202.667c-29.455,0-53.333,23.878-53.333,53.333
		c0,29.455,23.878,53.333,53.333,53.333h64C168.122,309.333,192,285.455,192,256c0-29.455-23.878-53.333-53.333-53.333H74.667z"/>
	<path style="fill:#455A64;" d="M437.333,330.667h-64c-41.237,0-74.667-33.429-74.667-74.667s33.429-74.667,74.667-74.667h64
		C478.571,181.333,512,214.763,512,256S478.571,330.667,437.333,330.667z M373.333,202.667C343.878,202.667,320,226.545,320,256
		c0,29.455,23.878,53.333,53.333,53.333h64c29.455,0,53.333-23.878,53.333-53.333c0-29.455-23.878-53.333-53.333-53.333H373.333z"/>
	<path style="fill:#455A64;" d="M352,266.667H160c-5.891,0-10.667-4.776-10.667-10.667c0-5.891,4.776-10.667,10.667-10.667h192
		c5.891,0,10.667,4.776,10.667,10.667C362.667,261.891,357.891,266.667,352,266.667z"/>
</g>
<path d="M138.667,330.667h-64C33.429,330.667,0,297.237,0,256s33.429-74.667,74.667-74.667h64c41.237,0,74.667,33.429,74.667,74.667
	S179.904,330.667,138.667,330.667z M74.667,202.667c-29.455,0-53.333,23.878-53.333,53.333c0,29.455,23.878,53.333,53.333,53.333h64
	C168.122,309.333,192,285.455,192,256c0-29.455-23.878-53.333-53.333-53.333H74.667z"/>
<path d="M437.333,330.667h-64c-41.237,0-74.667-33.429-74.667-74.667s33.429-74.667,74.667-74.667h64
	C478.571,181.333,512,214.763,512,256S478.571,330.667,437.333,330.667z M373.333,202.667C343.878,202.667,320,226.545,320,256
	c0,29.455,23.878,53.333,53.333,53.333h64c29.455,0,53.333-23.878,53.333-53.333c0-29.455-23.878-53.333-53.333-53.333H373.333z"/>
<path d="M352,266.667H160c-5.891,0-10.667-4.776-10.667-10.667c0-5.891,4.776-10.667,10.667-10.667h192
	c5.891,0,10.667,4.776,10.667,10.667C362.667,261.891,357.891,266.667,352,266.667z"/>
<g>
</g>
<g>
</g>
<g>
</g>
<g>
</g>
<g>
</g>
<g>
</g>
<g>
</g>
<g>
</g>
<g>
</g>
<g>
</g>
<g>
</g>
<g>
</g>
<g>
</g>
<g>
</g>
<g>
</g>
</svg>
