<?xml version="1.0" encoding="iso-8859-1"?>
<!-- Generator: Adobe Illustrator 19.0.0, SVG Export Plug-In . SVG Version: 6.00 Build 0)  -->
<svg version="1.1" id="Capa_1" xmlns="http://www.w3.org/2000/svg" xmlns:xlink="http://www.w3.org/1999/xlink" x="0px" y="0px"
	 viewBox="0 0 469.331 469.331" style="enable-background:new 0 0 469.331 469.331;" xml:space="preserve">
<g>
	<path style="fill:#455A64;" d="M309.333,106.666c-5.891,0-10.667-4.776-10.667-10.667v-32H21.333v32
		c0,5.891-4.776,10.667-10.667,10.667S0,101.89,0,95.999V53.332c0-5.891,4.776-10.667,10.667-10.667h298.667
		c5.891,0,10.667,4.776,10.667,10.667v42.667C320,101.89,315.224,106.666,309.333,106.666z"/>
	<path style="fill:#455A64;" d="M160,426.666c-5.891,0-10.667-4.776-10.667-10.667V53.332c0-5.891,4.776-10.667,10.667-10.667
		c5.891,0,10.667,4.776,10.667,10.667v362.667C170.667,421.89,165.891,426.666,160,426.666z"/>
	<path style="fill:#455A64;" d="M202.667,426.666h-85.333c-5.891,0-10.667-4.776-10.667-10.667s4.776-10.667,10.667-10.667h85.333
		c5.891,0,10.667,4.776,10.667,10.667S208.558,426.666,202.667,426.666z"/>
</g>
<g>
	<path style="fill:#2196F3;" d="M458.667,106.666c-2.831,0.005-5.548-1.115-7.552-3.115L416,68.415l-35.115,35.136
		c-4.237,4.093-10.99,3.975-15.083-0.262c-3.993-4.134-3.993-10.687,0-14.821l42.667-42.667c4.165-4.164,10.917-4.164,15.083,0
		l42.667,42.667c4.159,4.172,4.148,10.926-0.024,15.085C464.196,105.546,461.489,106.665,458.667,106.666z"/>
	<path style="fill:#2196F3;" d="M416,426.666c-2.831,0.005-5.548-1.115-7.552-3.115l-42.667-42.667
		c-4.093-4.237-3.976-10.99,0.261-15.083c4.134-3.993,10.688-3.993,14.821,0L416,400.916l35.115-35.115
		c4.237-4.093,10.99-3.976,15.083,0.261c3.993,4.134,3.993,10.688,0,14.821l-42.667,42.667
		C421.532,425.545,418.824,426.665,416,426.666z"/>
	<path style="fill:#2196F3;" d="M416,426.666c-5.891,0-10.667-4.776-10.667-10.667V53.332c0-5.891,4.776-10.667,10.667-10.667
		c5.891,0,10.667,4.776,10.667,10.667v362.667C426.667,421.89,421.891,426.666,416,426.666z"/>
</g>
<path d="M309.333,106.666c-5.891,0-10.667-4.776-10.667-10.667v-32H21.333v32c0,5.891-4.776,10.667-10.667,10.667S0,101.89,0,95.999
	V53.332c0-5.891,4.776-10.667,10.667-10.667h298.667c5.891,0,10.667,4.776,10.667,10.667v42.667
	C320,101.89,315.224,106.666,309.333,106.666z"/>
<path d="M160,426.666c-5.891,0-10.667-4.776-10.667-10.667V53.332c0-5.891,4.776-10.667,10.667-10.667
	c5.891,0,10.667,4.776,10.667,10.667v362.667C170.667,421.89,165.891,426.666,160,426.666z"/>
<path d="M202.667,426.666h-85.333c-5.891,0-10.667-4.776-10.667-10.667s4.776-10.667,10.667-10.667h85.333
	c5.891,0,10.667,4.776,10.667,10.667S208.558,426.666,202.667,426.666z"/>
<path d="M458.667,106.666c-2.831,0.005-5.548-1.115-7.552-3.115L416,68.415l-35.115,35.136c-4.237,4.093-10.99,3.975-15.083-0.262
	c-3.993-4.134-3.993-10.687,0-14.821l42.667-42.667c4.165-4.164,10.917-4.164,15.083,0l42.667,42.667
	c4.159,4.172,4.148,10.926-0.024,15.085C464.196,105.546,461.489,106.665,458.667,106.666z"/>
<path d="M416,426.666c-2.831,0.005-5.548-1.115-7.552-3.115l-42.667-42.667c-4.093-4.237-3.976-10.99,0.261-15.083
	c4.134-3.993,10.688-3.993,14.821,0L416,400.916l35.115-35.115c4.237-4.093,10.99-3.976,15.083,0.261
	c3.993,4.134,3.993,10.688,0,14.821l-42.667,42.667C421.532,425.545,418.824,426.665,416,426.666z"/>
<path d="M416,426.666c-5.891,0-10.667-4.776-10.667-10.667V53.332c0-5.891,4.776-10.667,10.667-10.667
	c5.891,0,10.667,4.776,10.667,10.667v362.667C426.667,421.89,421.891,426.666,416,426.666z"/>
<g>
</g>
<g>
</g>
<g>
</g>
<g>
</g>
<g>
</g>
<g>
</g>
<g>
</g>
<g>
</g>
<g>
</g>
<g>
</g>
<g>
</g>
<g>
</g>
<g>
</g>
<g>
</g>
<g>
</g>
</svg>
