<?xml version="1.0" encoding="iso-8859-1"?>
<!-- Generator: Adobe Illustrator 19.0.0, SVG Export Plug-In . SVG Version: 6.00 Build 0)  -->
<svg version="1.1" id="Capa_1" xmlns="http://www.w3.org/2000/svg" xmlns:xlink="http://www.w3.org/1999/xlink" x="0px" y="0px"
	 viewBox="0 0 512 512" style="enable-background:new 0 0 512 512;" xml:space="preserve">
<path style="fill:#2196F3;" d="M10.667,85.333h490.667C507.224,85.333,512,90.109,512,96v320c0,5.891-4.776,10.667-10.667,10.667
	H10.667C4.776,426.667,0,421.891,0,416V96C0,90.109,4.776,85.333,10.667,85.333z"/>
<g>
	<rect x="192.853" y="256" style="fill:#64B5F6;" width="127.104" height="64"/>
	<rect x="192.853" y="341.333" style="fill:#64B5F6;" width="127.104" height="64"/>
	<rect x="192.853" y="170.667" style="fill:#64B5F6;" width="127.104" height="64"/>
	<rect x="341.333" y="170.667" style="fill:#64B5F6;" width="149.333" height="64"/>
	<rect x="21.333" y="170.667" style="fill:#64B5F6;" width="150.187" height="64"/>
	<rect x="21.333" y="256" style="fill:#64B5F6;" width="150.187" height="64"/>
	<rect x="341.333" y="256" style="fill:#64B5F6;" width="149.333" height="64"/>
</g>
<rect x="21.333" y="106.667" style="fill:#1976D2;" width="469.333" height="42.667"/>
<g>
	<rect x="21.333" y="341.333" style="fill:#64B5F6;" width="150.187" height="64"/>
	<rect x="341.333" y="341.333" style="fill:#64B5F6;" width="149.333" height="64"/>
</g>
<path d="M501.333,426.667H10.667C4.776,426.667,0,421.891,0,416V96c0-5.891,4.776-10.667,10.667-10.667h490.667
	C507.224,85.333,512,90.109,512,96v320C512,421.891,507.224,426.667,501.333,426.667z M21.333,405.333h469.333V106.667H21.333
	V405.333z"/>
<path d="M501.333,170.667H10.667C4.776,170.667,0,165.891,0,160c0-5.891,4.776-10.667,10.667-10.667h490.667
	c5.891,0,10.667,4.776,10.667,10.667C512,165.891,507.224,170.667,501.333,170.667z"/>
<path d="M501.333,256H10.667C4.776,256,0,251.224,0,245.333c0-5.891,4.776-10.667,10.667-10.667h490.667
	c5.891,0,10.667,4.776,10.667,10.667C512,251.224,507.224,256,501.333,256z"/>
<path d="M501.333,341.333H10.667C4.776,341.333,0,336.558,0,330.667C0,324.776,4.776,320,10.667,320h490.667
	c5.891,0,10.667,4.776,10.667,10.667C512,336.558,507.224,341.333,501.333,341.333z"/>
<path d="M182.229,426.667c-5.891,0-10.667-4.776-10.667-10.667V160c0-5.891,4.776-10.667,10.667-10.667
	c5.891,0,10.667,4.776,10.667,10.667v256C192.896,421.891,188.12,426.667,182.229,426.667z"/>
<path d="M330.667,426.667c-5.891,0-10.667-4.776-10.667-10.667V170.667c0-5.891,4.776-10.667,10.667-10.667
	c5.891,0,10.667,4.776,10.667,10.667V416C341.333,421.891,336.558,426.667,330.667,426.667z"/>
<g>
</g>
<g>
</g>
<g>
</g>
<g>
</g>
<g>
</g>
<g>
</g>
<g>
</g>
<g>
</g>
<g>
</g>
<g>
</g>
<g>
</g>
<g>
</g>
<g>
</g>
<g>
</g>
<g>
</g>
</svg>
