<?xml version="1.0" encoding="iso-8859-1"?>
<!-- Generator: Adobe Illustrator 19.0.0, SVG Export Plug-In . SVG Version: 6.00 Build 0)  -->
<svg version="1.1" id="Capa_1" xmlns="http://www.w3.org/2000/svg" xmlns:xlink="http://www.w3.org/1999/xlink" x="0px" y="0px"
	 viewBox="0 0 512.02 512.02" style="enable-background:new 0 0 512.02 512.02;" xml:space="preserve">
<path style="fill:#CFD8DC;" d="M501.334,53.343H10.667c-5.891,0-10.667,4.776-10.667,10.667v384c0,5.891,4.776,10.667,10.667,10.667
	c3.357,0,6.519-1.581,8.533-4.267l152.597-203.499l55.317,55.317c2.319,2.402,5.659,3.531,8.96,3.029
	c3.295-0.437,6.198-2.386,7.851-5.269l76.331-133.611l171.947,283.179c1.939,3.185,5.401,5.127,9.131,5.12
	c0.974-0.001,1.943-0.137,2.88-0.405c4.601-1.29,7.783-5.483,7.787-10.261v-384C512.001,58.119,507.225,53.343,501.334,53.343z"/>
<path style="fill:#2196F3;" d="M510.465,442.463L329.131,143.796c-2.07-3.121-5.536-5.033-9.28-5.12
	c-3.781,0.047-7.255,2.092-9.131,5.376l-78.4,137.216l-54.101-54.144c-4.165-4.166-10.919-4.168-15.085-0.003
	c-0.361,0.361-0.695,0.746-1,1.155l-160,213.333c-3.535,4.713-2.579,11.399,2.133,14.933c1.846,1.385,4.092,2.133,6.4,2.133h490.667
	c5.891,0.011,10.675-4.756,10.686-10.647C512.024,446.066,511.486,444.14,510.465,442.463z"/>
<circle style="fill:#FFC107;" cx="181.334" cy="149.343" r="53.333"/>
<path d="M501.334,458.676H10.667c-5.891,0-10.667-4.776-10.667-10.667v-384c0-5.891,4.776-10.667,10.667-10.667h490.667
	c5.891,0,10.667,4.776,10.667,10.667v384C512.001,453.901,507.225,458.676,501.334,458.676z M21.334,437.343h469.333V74.676H21.334
	V437.343z"/>
<path d="M501.334,458.676c-3.734,0.002-7.197-1.948-9.131-5.141L320.278,170.356l-76.352,133.611
	c-2.924,5.114-9.44,6.89-14.554,3.966c-0.826-0.472-1.585-1.052-2.256-1.726l-55.296-55.296L19.201,454.41
	c-3.535,4.713-10.221,5.668-14.933,2.133s-5.668-10.22-2.133-14.933l160-213.333c1.847-2.481,4.681-4.038,7.765-4.267
	c3.09-0.265,6.136,0.871,8.299,3.093l54.123,54.123l78.4-137.216c1.872-3.277,5.336-5.322,9.109-5.376
	c3.829-0.258,7.453,1.755,9.259,5.141l181.333,298.667c3.052,5.039,1.44,11.598-3.599,14.649c-1.662,1.007-3.568,1.54-5.511,1.543
	L501.334,458.676z"/>
<path d="M181.334,202.676c-29.455,0-53.333-23.878-53.333-53.333s23.878-53.333,53.333-53.333s53.333,23.878,53.333,53.333
	S210.789,202.676,181.334,202.676z M181.334,117.343c-17.673,0-32,14.327-32,32s14.327,32,32,32s32-14.327,32-32
	S199.007,117.343,181.334,117.343z"/>
<g>
</g>
<g>
</g>
<g>
</g>
<g>
</g>
<g>
</g>
<g>
</g>
<g>
</g>
<g>
</g>
<g>
</g>
<g>
</g>
<g>
</g>
<g>
</g>
<g>
</g>
<g>
</g>
<g>
</g>
</svg>
