<?xml version="1.0" encoding="iso-8859-1"?>
<!-- Generator: Adobe Illustrator 19.0.0, SVG Export Plug-In . SVG Version: 6.00 Build 0)  -->
<svg version="1.1" id="Capa_1" xmlns="http://www.w3.org/2000/svg" xmlns:xlink="http://www.w3.org/1999/xlink" x="0px" y="0px"
	 viewBox="0 0 512 512" style="enable-background:new 0 0 512 512;" xml:space="preserve">
<g>
	<path style="fill:#455A64;" d="M501.333,42.667H224c-5.891,0-10.667-4.776-10.667-10.667S218.109,21.333,224,21.333h277.333
		C507.224,21.333,512,26.109,512,32S507.224,42.667,501.333,42.667z"/>
	<path style="fill:#455A64;" d="M501.333,106.667H224c-5.891,0-10.667-4.776-10.667-10.667c0-5.891,4.776-10.667,10.667-10.667
		h277.333C507.224,85.333,512,90.109,512,96C512,101.891,507.224,106.667,501.333,106.667z"/>
	<path style="fill:#455A64;" d="M501.333,170.667H224c-5.891,0-10.667-4.776-10.667-10.667c0-5.891,4.776-10.667,10.667-10.667
		h277.333c5.891,0,10.667,4.776,10.667,10.667C512,165.891,507.224,170.667,501.333,170.667z"/>
	<path style="fill:#455A64;" d="M501.333,234.667H224c-5.891,0-10.667-4.776-10.667-10.667c0-5.891,4.776-10.667,10.667-10.667
		h277.333c5.891,0,10.667,4.776,10.667,10.667C512,229.891,507.224,234.667,501.333,234.667z"/>
	<path style="fill:#455A64;" d="M501.333,298.667H224c-5.891,0-10.667-4.776-10.667-10.667c0-5.891,4.776-10.667,10.667-10.667
		h277.333c5.891,0,10.667,4.776,10.667,10.667C512,293.891,507.224,298.667,501.333,298.667z"/>
	<path style="fill:#455A64;" d="M501.333,362.667H10.667C4.776,362.667,0,357.891,0,352c0-5.891,4.776-10.667,10.667-10.667h490.667
		c5.891,0,10.667,4.776,10.667,10.667C512,357.891,507.224,362.667,501.333,362.667z"/>
	<path style="fill:#455A64;" d="M501.333,426.667H10.667C4.776,426.667,0,421.891,0,416c0-5.891,4.776-10.667,10.667-10.667h490.667
		c5.891,0,10.667,4.776,10.667,10.667C512,421.891,507.224,426.667,501.333,426.667z"/>
	<path style="fill:#455A64;" d="M501.333,490.667H10.667C4.776,490.667,0,485.891,0,480c0-5.891,4.776-10.667,10.667-10.667h490.667
		c5.891,0,10.667,4.776,10.667,10.667C512,485.891,507.224,490.667,501.333,490.667z"/>
</g>
<g>
	<path style="fill:#2196F3;" d="M181.333,298.667c-4.597,0.006-8.681-2.935-10.133-7.296L96,65.728L20.8,291.371
		c-1.862,5.591-7.903,8.614-13.493,6.752s-8.614-7.903-6.752-13.493l85.333-256c2.535-5.591,9.122-8.068,14.713-5.533
		c2.454,1.113,4.42,3.079,5.533,5.533l85.333,256c1.869,5.587-1.144,11.631-6.73,13.5c-0.004,0.001-0.007,0.002-0.011,0.004
		C183.631,298.493,182.485,298.673,181.333,298.667z"/>
	<path style="fill:#2196F3;" d="M149.333,213.333H42.667c-5.891,0-10.667-4.776-10.667-10.667S36.776,192,42.667,192h106.667
		c5.891,0,10.667,4.776,10.667,10.667S155.224,213.333,149.333,213.333z"/>
</g>
<path d="M501.333,42.667H224c-5.891,0-10.667-4.776-10.667-10.667S218.109,21.333,224,21.333h277.333
	C507.224,21.333,512,26.109,512,32S507.224,42.667,501.333,42.667z"/>
<path d="M501.333,106.667H224c-5.891,0-10.667-4.776-10.667-10.667c0-5.891,4.776-10.667,10.667-10.667h277.333
	C507.224,85.333,512,90.109,512,96C512,101.891,507.224,106.667,501.333,106.667z"/>
<path d="M501.333,170.667H224c-5.891,0-10.667-4.776-10.667-10.667c0-5.891,4.776-10.667,10.667-10.667h277.333
	c5.891,0,10.667,4.776,10.667,10.667C512,165.891,507.224,170.667,501.333,170.667z"/>
<path d="M501.333,234.667H224c-5.891,0-10.667-4.776-10.667-10.667c0-5.891,4.776-10.667,10.667-10.667h277.333
	c5.891,0,10.667,4.776,10.667,10.667C512,229.891,507.224,234.667,501.333,234.667z"/>
<path d="M501.333,298.667H224c-5.891,0-10.667-4.776-10.667-10.667c0-5.891,4.776-10.667,10.667-10.667h277.333
	c5.891,0,10.667,4.776,10.667,10.667C512,293.891,507.224,298.667,501.333,298.667z"/>
<path d="M501.333,362.667H10.667C4.776,362.667,0,357.891,0,352c0-5.891,4.776-10.667,10.667-10.667h490.667
	c5.891,0,10.667,4.776,10.667,10.667C512,357.891,507.224,362.667,501.333,362.667z"/>
<path d="M501.333,426.667H10.667C4.776,426.667,0,421.891,0,416c0-5.891,4.776-10.667,10.667-10.667h490.667
	c5.891,0,10.667,4.776,10.667,10.667C512,421.891,507.224,426.667,501.333,426.667z"/>
<path d="M501.333,490.667H10.667C4.776,490.667,0,485.891,0,480c0-5.891,4.776-10.667,10.667-10.667h490.667
	c5.891,0,10.667,4.776,10.667,10.667C512,485.891,507.224,490.667,501.333,490.667z"/>
<path d="M181.333,298.667c-4.589-0.003-8.662-2.942-10.112-7.296L96,65.728L20.779,291.371c-2.074,5.514-8.225,8.303-13.739,6.229
	c-5.22-1.963-8.047-7.617-6.485-12.971l85.333-256c2.519-5.585,9.089-8.07,14.674-5.55c2.465,1.112,4.438,3.086,5.55,5.55
	l85.333,256c1.862,5.589-1.16,11.629-6.749,13.491C183.612,298.481,182.476,298.666,181.333,298.667z"/>
<path d="M149.333,213.333H42.667c-5.891,0-10.667-4.776-10.667-10.667S36.776,192,42.667,192h106.667
	c5.891,0,10.667,4.776,10.667,10.667S155.224,213.333,149.333,213.333z"/>
<g>
</g>
<g>
</g>
<g>
</g>
<g>
</g>
<g>
</g>
<g>
</g>
<g>
</g>
<g>
</g>
<g>
</g>
<g>
</g>
<g>
</g>
<g>
</g>
<g>
</g>
<g>
</g>
<g>
</g>
</svg>
