<?xml version="1.0" encoding="iso-8859-1"?>
<!-- Generator: Adobe Illustrator 19.0.0, SVG Export Plug-In . SVG Version: 6.00 Build 0)  -->
<svg version="1.1" id="Capa_1" xmlns="http://www.w3.org/2000/svg" xmlns:xlink="http://www.w3.org/1999/xlink" x="0px" y="0px"
	 viewBox="0 0 512 512" style="enable-background:new 0 0 512 512;" xml:space="preserve">
<g>
	<path style="fill:#455A64;" d="M86.677,512H76.011c-24.848,0.013-45.002-20.12-45.015-44.969c-0.002-3.69,0.45-7.366,1.346-10.946
		c1.426-5.72,7.218-9.202,12.939-7.776c5.72,1.426,9.202,7.218,7.776,12.939l0,0c-3.169,12.688,4.547,25.543,17.235,28.713
		c1.864,0.466,3.777,0.703,5.698,0.706h10.667c12.011-0.02,22.102-9.037,23.467-20.971l39.211-342.912
		c0.672-5.891,5.992-10.122,11.883-9.451c5.891,0.672,10.122,5.992,9.451,11.883l-39.253,342.891
		C128.82,494.848,109.566,512.017,86.677,512z"/>
	<path style="fill:#455A64;" d="M256,512h-1.024c-5.865-0.551-10.173-5.752-9.622-11.618c0-0.003,0.001-0.006,0.001-0.009
		l32-341.333c0.554-5.891,5.778-10.218,11.669-9.664c5.891,0.554,10.218,5.778,9.664,11.669l-32,341.333
		C266.148,507.866,261.514,512.038,256,512z"/>
	<path style="fill:#455A64;" d="M10.667,192C4.776,192,0,187.224,0,181.333c0-43.968,48.256-74.667,117.333-74.667
		c29.166,1.234,57.767,8.444,84.032,21.184c27.082,13.075,56.582,20.389,86.635,21.483c36.827,1.291,72.53-12.807,98.539-38.912
		c3.908-4.409,10.649-4.815,15.058-0.907c4.268,3.783,4.805,10.253,1.22,14.688C372.762,155.119,331.097,171.98,288,170.667
		c-32.843-0.985-65.112-8.856-94.72-23.104c-23.717-11.63-49.562-18.288-75.947-19.563c-55.616,0-96,22.421-96,53.333
		C21.333,187.224,16.558,192,10.667,192z"/>
</g>
<path style="fill:#2196F3;" d="M501.333,213.333H394.667c-5.891,0.011-10.675-4.757-10.686-10.648
	c-0.005-2.84,1.123-5.565,3.134-7.571l84.032-84.053c12.447-12.506,19.461-29.416,19.52-47.061
	c0-23.564-19.103-42.667-42.667-42.667c-23.564,0-42.667,19.103-42.667,42.667v10.667c0,5.891-4.776,10.667-10.667,10.667
	c-5.891,0-10.667-4.776-10.667-10.667V64c0-35.346,28.654-64,64-64s64,28.654,64,64c0.066,23.33-9.206,45.716-25.749,62.165
	L420.416,192h80.917c5.891,0,10.667,4.776,10.667,10.667C512,208.558,507.224,213.333,501.333,213.333z"/>
<path d="M86.677,512H76.011c-24.848,0.013-45.002-20.12-45.015-44.969c-0.002-3.69,0.45-7.366,1.346-10.946
	c1.426-5.72,7.218-9.202,12.939-7.776c5.72,1.426,9.202,7.218,7.776,12.939l0,0c-3.169,12.688,4.547,25.543,17.235,28.713
	c1.864,0.466,3.777,0.703,5.698,0.706h10.667c12.011-0.02,22.102-9.037,23.467-20.971l39.211-342.912
	c0.672-5.891,5.992-10.122,11.883-9.451c5.891,0.672,10.122,5.992,9.451,11.883l-39.253,342.891
	C128.82,494.848,109.566,512.017,86.677,512z"/>
<path d="M256,512h-1.024c-5.865-0.551-10.173-5.752-9.622-11.618c0-0.003,0.001-0.006,0.001-0.009l32-341.333
	c0.554-5.891,5.778-10.218,11.669-9.664c5.891,0.554,10.218,5.778,9.664,11.669l-32,341.333
	C266.148,507.866,261.514,512.038,256,512z"/>
<path d="M10.667,192C4.776,192,0,187.224,0,181.333c0-43.968,48.256-74.667,117.333-74.667c29.166,1.234,57.767,8.444,84.032,21.184
	c27.082,13.075,56.582,20.389,86.635,21.483c36.827,1.291,72.53-12.807,98.539-38.912c3.908-4.409,10.649-4.815,15.058-0.907
	c4.268,3.783,4.805,10.253,1.22,14.688C372.762,155.119,331.097,171.98,288,170.667c-32.843-0.985-65.112-8.856-94.72-23.104
	c-23.717-11.63-49.562-18.288-75.947-19.563c-55.616,0-96,22.421-96,53.333C21.333,187.224,16.558,192,10.667,192z"/>
<path d="M501.333,213.333H394.667c-5.891,0.011-10.675-4.757-10.686-10.648c-0.005-2.84,1.123-5.565,3.134-7.571l84.032-84.053
	c12.447-12.506,19.461-29.416,19.52-47.061c0-23.564-19.103-42.667-42.667-42.667c-23.564,0-42.667,19.103-42.667,42.667v10.667
	c0,5.891-4.776,10.667-10.667,10.667c-5.891,0-10.667-4.776-10.667-10.667V64c0-35.346,28.654-64,64-64s64,28.654,64,64
	c0.066,23.33-9.206,45.716-25.749,62.165L420.416,192h80.917c5.891,0,10.667,4.776,10.667,10.667
	C512,208.558,507.224,213.333,501.333,213.333z"/>
<g>
</g>
<g>
</g>
<g>
</g>
<g>
</g>
<g>
</g>
<g>
</g>
<g>
</g>
<g>
</g>
<g>
</g>
<g>
</g>
<g>
</g>
<g>
</g>
<g>
</g>
<g>
</g>
<g>
</g>
</svg>
