<?xml version="1.0" encoding="iso-8859-1"?>
<!-- Generator: Adobe Illustrator 19.0.0, SVG Export Plug-In . SVG Version: 6.00 Build 0)  -->
<svg version="1.1" id="Capa_1" xmlns="http://www.w3.org/2000/svg" xmlns:xlink="http://www.w3.org/1999/xlink" x="0px" y="0px"
	 viewBox="0 0 514.428 514.428" style="enable-background:new 0 0 514.428 514.428;" xml:space="preserve">
<path style="fill:#CFD8DC;" d="M183.759,2.428C83.613,1.856,1.964,82.577,1.392,182.723s80.149,181.794,180.295,182.366
	c8.268,0.047,16.53-0.471,24.728-1.551c2.351-0.299,4.535-1.372,6.208-3.051l147.861-147.861c1.682-1.679,2.756-3.871,3.051-6.229
	c13.08-98.707-56.335-189.329-155.043-202.409C200.293,2.901,192.029,2.38,183.759,2.428z"/>
<path style="fill:#2196F3;" d="M205.092,194.428h298.667c5.891,0,10.667,4.776,10.667,10.667v298.667
	c0,5.891-4.776,10.667-10.667,10.667H205.092c-5.891,0-10.667-4.776-10.667-10.667V205.095
	C194.425,199.204,199.201,194.428,205.092,194.428z"/>
<path d="M183.759,365.095C82.942,365.761,0.673,284.573,0.007,183.756S80.529,0.67,181.346,0.004s183.085,80.522,183.752,181.339
	c0.055,8.384-0.467,16.762-1.563,25.074c-0.818,5.803-6.101,9.904-11.925,9.259c-5.843-0.732-9.987-6.061-9.259-11.904
	c0.881-6.635,1.351-13.318,1.408-20.011c0.663-89.035-70.977-161.749-160.012-162.411C94.712,20.688,21.998,92.327,21.335,181.362
	c-0.663,89.035,70.977,161.749,160.012,162.411c7.497,0.056,14.99-0.411,22.422-1.398c5.857-0.634,11.118,3.601,11.752,9.458
	c0.618,5.712-3.399,10.886-9.085,11.705C198.916,364.527,191.343,365.047,183.759,365.095z"/>
<path d="M503.759,514.428H205.092c-5.891,0-10.667-4.776-10.667-10.667V205.095c0-5.891,4.776-10.667,10.667-10.667h298.667
	c5.891,0,10.667,4.776,10.667,10.667v298.667C514.425,509.652,509.65,514.428,503.759,514.428z M215.759,493.095h277.333V215.761
	H215.759V493.095z"/>
<g>
</g>
<g>
</g>
<g>
</g>
<g>
</g>
<g>
</g>
<g>
</g>
<g>
</g>
<g>
</g>
<g>
</g>
<g>
</g>
<g>
</g>
<g>
</g>
<g>
</g>
<g>
</g>
<g>
</g>
</svg>
