<?xml version="1.0" encoding="iso-8859-1"?>
<!-- Generator: Adobe Illustrator 19.0.0, SVG Export Plug-In . SVG Version: 6.00 Build 0)  -->
<svg version="1.1" id="Capa_1" xmlns="http://www.w3.org/2000/svg" xmlns:xlink="http://www.w3.org/1999/xlink" x="0px" y="0px"
	 viewBox="0 0 512 512" style="enable-background:new 0 0 512 512;" xml:space="preserve">
<g>
	<path style="fill:#455A64;" d="M501.333,405.333h-384c-5.891,0-10.667-4.776-10.667-10.667v-384C106.667,4.776,111.442,0,117.333,0
		S128,4.776,128,10.667V384h373.333c5.891,0,10.667,4.776,10.667,10.667C512,400.558,507.224,405.333,501.333,405.333z"/>
	<path style="fill:#455A64;" d="M394.667,512c-5.891,0-10.667-4.776-10.667-10.667V128H10.667C4.776,128,0,123.224,0,117.333
		s4.776-10.667,10.667-10.667h384c5.891,0,10.667,4.776,10.667,10.667v384C405.333,507.224,400.558,512,394.667,512z"/>
</g>
<path d="M501.333,405.333h-384c-5.891,0-10.667-4.776-10.667-10.667v-384C106.667,4.776,111.442,0,117.333,0S128,4.776,128,10.667
	V384h373.333c5.891,0,10.667,4.776,10.667,10.667C512,400.558,507.224,405.333,501.333,405.333z"/>
<path d="M394.667,512c-5.891,0-10.667-4.776-10.667-10.667V128H10.667C4.776,128,0,123.224,0,117.333s4.776-10.667,10.667-10.667
	h384c5.891,0,10.667,4.776,10.667,10.667v384C405.333,507.224,400.558,512,394.667,512z"/>
<g>
</g>
<g>
</g>
<g>
</g>
<g>
</g>
<g>
</g>
<g>
</g>
<g>
</g>
<g>
</g>
<g>
</g>
<g>
</g>
<g>
</g>
<g>
</g>
<g>
</g>
<g>
</g>
<g>
</g>
</svg>
