<?xml version="1.0" encoding="iso-8859-1"?>
<!-- Generator: Adobe Illustrator 19.0.0, SVG Export Plug-In . SVG Version: 6.00 Build 0)  -->
<svg version="1.1" id="Capa_1" xmlns="http://www.w3.org/2000/svg" xmlns:xlink="http://www.w3.org/1999/xlink" x="0px" y="0px"
	 viewBox="0 0 512.014 512.014" style="enable-background:new 0 0 512.014 512.014;" xml:space="preserve">
<g>
	<path style="fill:#455A64;" d="M320.014,469.347H42.68c-5.891,0-10.667-4.776-10.667-10.667c0-5.891,4.776-10.667,10.667-10.667
		h277.333c5.891,0,10.667,4.776,10.667,10.667C330.68,464.572,325.905,469.347,320.014,469.347z"/>
	<path style="fill:#455A64;" d="M170.68,426.681c-0.915-0.003-1.826-0.124-2.709-0.363c-5.696-1.502-9.097-7.337-7.595-13.033
		c0,0,0-0.001,0-0.001L267.043,7.95c1.502-5.697,7.338-9.097,13.035-7.595c5.697,1.502,9.097,7.338,7.595,13.035L181.006,418.723
		C179.774,423.415,175.531,426.684,170.68,426.681z"/>
	<path style="fill:#455A64;" d="M405.347,21.347H128.014c-5.891,0-10.667-4.776-10.667-10.667s4.776-10.667,10.667-10.667h277.333
		c5.891,0,10.667,4.776,10.667,10.667S411.238,21.347,405.347,21.347z"/>
</g>
<g>
	<path style="fill:#2196F3;" d="M469.347,512.014c-3.294,0.002-6.404-1.517-8.427-4.117l-149.333-192
		c-3.515-4.728-2.532-11.409,2.196-14.924c4.581-3.406,11.032-2.602,14.636,1.826l149.333,192c3.617,4.65,2.78,11.352-1.87,14.969
		C474.014,511.22,471.715,512.011,469.347,512.014z"/>
	<path style="fill:#2196F3;" d="M320.014,512.014c-5.891,0.004-10.67-4.768-10.674-10.659c-0.002-2.375,0.789-4.682,2.247-6.557
		l149.333-192c3.719-4.568,10.438-5.257,15.006-1.538c4.427,3.604,5.232,10.055,1.826,14.636l-149.333,192
		C326.401,510.491,323.3,512.01,320.014,512.014z"/>
</g>
<path d="M320.014,469.347H42.68c-5.891,0-10.667-4.776-10.667-10.667c0-5.891,4.776-10.667,10.667-10.667h277.333
	c5.891,0,10.667,4.776,10.667,10.667C330.68,464.572,325.905,469.347,320.014,469.347z"/>
<path d="M170.68,426.681c-0.915-0.003-1.826-0.124-2.709-0.363c-5.696-1.502-9.097-7.337-7.595-13.033c0,0,0-0.001,0-0.001
	L267.043,7.95c1.502-5.697,7.338-9.097,13.035-7.595c5.697,1.502,9.097,7.338,7.595,13.035L181.006,418.723
	C179.774,423.415,175.531,426.684,170.68,426.681z"/>
<path d="M405.347,21.347H128.014c-5.891,0-10.667-4.776-10.667-10.667s4.776-10.667,10.667-10.667h277.333
	c5.891,0,10.667,4.776,10.667,10.667S411.238,21.347,405.347,21.347z"/>
<path d="M469.347,512.014c-3.294,0.002-6.404-1.517-8.427-4.117l-149.333-192c-3.515-4.728-2.532-11.409,2.196-14.924
	c4.581-3.406,11.032-2.602,14.636,1.826l149.333,192c3.617,4.65,2.78,11.352-1.87,14.969
	C474.014,511.22,471.715,512.011,469.347,512.014z"/>
<path d="M320.014,512.014c-5.891,0.004-10.67-4.768-10.674-10.659c-0.002-2.375,0.789-4.682,2.247-6.557l149.333-192
	c3.719-4.568,10.438-5.257,15.006-1.538c4.427,3.604,5.232,10.055,1.826,14.636l-149.333,192
	C326.401,510.491,323.3,512.01,320.014,512.014z"/>
<g>
</g>
<g>
</g>
<g>
</g>
<g>
</g>
<g>
</g>
<g>
</g>
<g>
</g>
<g>
</g>
<g>
</g>
<g>
</g>
<g>
</g>
<g>
</g>
<g>
</g>
<g>
</g>
<g>
</g>
</svg>
