<?xml version="1.0" encoding="iso-8859-1"?>
<!-- Generator: Adobe Illustrator 19.0.0, SVG Export Plug-In . SVG Version: 6.00 Build 0)  -->
<svg version="1.1" id="Capa_1" xmlns="http://www.w3.org/2000/svg" xmlns:xlink="http://www.w3.org/1999/xlink" x="0px" y="0px"
	 viewBox="0 0 469.333 469.333" style="enable-background:new 0 0 469.333 469.333;" xml:space="preserve">
<g>
	<path style="fill:#455A64;" d="M384,64c-5.891,0-10.667-4.776-10.667-10.667v-32H96v32C96,59.224,91.224,64,85.333,64
		s-10.667-4.776-10.667-10.667V10.667C74.667,4.776,79.442,0,85.333,0H384c5.891,0,10.667,4.776,10.667,10.667v42.667
		C394.667,59.224,389.891,64,384,64z"/>
	<path style="fill:#455A64;" d="M234.667,384c-5.891,0-10.667-4.776-10.667-10.667V10.667C224,4.776,228.776,0,234.667,0
		c5.891,0,10.667,4.776,10.667,10.667v362.667C245.333,379.224,240.558,384,234.667,384z"/>
	<path style="fill:#455A64;" d="M277.333,384H192c-5.891,0-10.667-4.776-10.667-10.667s4.776-10.667,10.667-10.667h85.333
		c5.891,0,10.667,4.776,10.667,10.667S283.224,384,277.333,384z"/>
</g>
<g>
	<path style="fill:#2196F3;" d="M362.667,469.333c-5.891,0.011-10.675-4.757-10.686-10.648c-0.005-2.84,1.123-5.565,3.134-7.571
		L390.251,416l-35.115-35.115c-4.093-4.237-3.976-10.99,0.261-15.083c4.134-3.993,10.688-3.993,14.821,0l42.667,42.667
		c4.164,4.165,4.164,10.917,0,15.083l-42.667,42.667C368.214,468.218,365.498,469.338,362.667,469.333z"/>
	<path style="fill:#2196F3;" d="M106.667,469.333c-2.831,0.005-5.548-1.115-7.552-3.115l-42.667-42.667
		c-4.164-4.165-4.164-10.917,0-15.083l42.667-42.667c4.237-4.093,10.99-3.975,15.083,0.262c3.993,4.134,3.993,10.687,0,14.821
		L79.083,416l35.115,35.115c4.171,4.16,4.179,10.914,0.019,15.085C112.216,468.205,109.5,469.333,106.667,469.333z"/>
	<path style="fill:#2196F3;" d="M405.333,426.667H64c-5.891,0-10.667-4.776-10.667-10.667c0-5.891,4.776-10.667,10.667-10.667
		h341.333c5.891,0,10.667,4.776,10.667,10.667C416,421.891,411.224,426.667,405.333,426.667z"/>
</g>
<path d="M384,64c-5.891,0-10.667-4.776-10.667-10.667v-32H96v32C96,59.224,91.224,64,85.333,64s-10.667-4.776-10.667-10.667V10.667
	C74.667,4.776,79.442,0,85.333,0H384c5.891,0,10.667,4.776,10.667,10.667v42.667C394.667,59.224,389.891,64,384,64z"/>
<path d="M234.667,384c-5.891,0-10.667-4.776-10.667-10.667V10.667C224,4.776,228.776,0,234.667,0
	c5.891,0,10.667,4.776,10.667,10.667v362.667C245.333,379.224,240.558,384,234.667,384z"/>
<path d="M277.333,384H192c-5.891,0-10.667-4.776-10.667-10.667s4.776-10.667,10.667-10.667h85.333
	c5.891,0,10.667,4.776,10.667,10.667S283.224,384,277.333,384z"/>
<path d="M362.667,469.333c-5.891,0.011-10.675-4.757-10.686-10.648c-0.005-2.84,1.123-5.565,3.134-7.571L390.251,416l-35.115-35.115
	c-4.093-4.237-3.976-10.99,0.261-15.083c4.134-3.993,10.688-3.993,14.821,0l42.667,42.667c4.164,4.165,4.164,10.917,0,15.083
	l-42.667,42.667C368.214,468.218,365.498,469.338,362.667,469.333z"/>
<path d="M106.667,469.333c-2.831,0.005-5.548-1.115-7.552-3.115l-42.667-42.667c-4.164-4.165-4.164-10.917,0-15.083l42.667-42.667
	c4.237-4.093,10.99-3.975,15.083,0.262c3.993,4.134,3.993,10.687,0,14.821L79.083,416l35.115,35.115
	c4.171,4.16,4.179,10.914,0.019,15.085C112.216,468.205,109.5,469.333,106.667,469.333z"/>
<path d="M405.333,426.667H64c-5.891,0-10.667-4.776-10.667-10.667c0-5.891,4.776-10.667,10.667-10.667h341.333
	c5.891,0,10.667,4.776,10.667,10.667C416,421.891,411.224,426.667,405.333,426.667z"/>
<g>
</g>
<g>
</g>
<g>
</g>
<g>
</g>
<g>
</g>
<g>
</g>
<g>
</g>
<g>
</g>
<g>
</g>
<g>
</g>
<g>
</g>
<g>
</g>
<g>
</g>
<g>
</g>
<g>
</g>
</svg>
