<?xml version="1.0" encoding="iso-8859-1"?>
<!-- Generator: Adobe Illustrator 19.0.0, SVG Export Plug-In . SVG Version: 6.00 Build 0)  -->
<svg version="1.1" id="Capa_1" xmlns="http://www.w3.org/2000/svg" xmlns:xlink="http://www.w3.org/1999/xlink" x="0px" y="0px"
	 viewBox="0 0 512 512" style="enable-background:new 0 0 512 512;" xml:space="preserve">
<g>
	<path style="fill:#455A64;" d="M288,512H106.667C100.776,512,96,507.224,96,501.333s4.776-10.667,10.667-10.667H288
		c58.881-0.071,106.596-47.786,106.667-106.667v-21.333C394.596,303.786,346.881,256.071,288,256H149.333
		c-5.891,0-10.667-4.776-10.667-10.667c0-5.891,4.776-10.667,10.667-10.667h96C304.244,234.667,352,186.91,352,128
		S304.244,21.333,245.333,21.333H106.667C100.776,21.333,96,16.558,96,10.667S100.776,0,106.667,0h138.667
		c70.692,0.037,127.97,57.374,127.933,128.067c-0.023,44.412-23.066,85.638-60.883,108.925
		c60.13,11.754,103.541,64.407,103.616,125.675V384C415.918,454.658,358.658,511.918,288,512z"/>
	<path style="fill:#455A64;" d="M149.333,512c-5.891,0-10.667-4.776-10.667-10.667V10.667C138.667,4.776,143.442,0,149.333,0
		C155.224,0,160,4.776,160,10.667v490.667C160,507.224,155.224,512,149.333,512z"/>
</g>
<path d="M288,512H106.667C100.776,512,96,507.224,96,501.333s4.776-10.667,10.667-10.667H288
	c58.881-0.071,106.596-47.786,106.667-106.667v-21.333C394.596,303.786,346.881,256.071,288,256H149.333
	c-5.891,0-10.667-4.776-10.667-10.667c0-5.891,4.776-10.667,10.667-10.667h96C304.244,234.667,352,186.91,352,128
	S304.244,21.333,245.333,21.333H106.667C100.776,21.333,96,16.558,96,10.667S100.776,0,106.667,0h138.667
	c70.692,0.037,127.97,57.374,127.933,128.067c-0.023,44.412-23.066,85.638-60.883,108.925
	c60.13,11.754,103.541,64.407,103.616,125.675V384C415.918,454.658,358.658,511.918,288,512z"/>
<path d="M149.333,512c-5.891,0-10.667-4.776-10.667-10.667V10.667C138.667,4.776,143.442,0,149.333,0
	C155.224,0,160,4.776,160,10.667v490.667C160,507.224,155.224,512,149.333,512z"/>
<g>
</g>
<g>
</g>
<g>
</g>
<g>
</g>
<g>
</g>
<g>
</g>
<g>
</g>
<g>
</g>
<g>
</g>
<g>
</g>
<g>
</g>
<g>
</g>
<g>
</g>
<g>
</g>
<g>
</g>
</svg>
