<?xml version="1.0" encoding="iso-8859-1"?>
<!-- Generator: Adobe Illustrator 19.0.0, SVG Export Plug-In . SVG Version: 6.00 Build 0)  -->
<svg version="1.1" id="Capa_1" xmlns="http://www.w3.org/2000/svg" xmlns:xlink="http://www.w3.org/1999/xlink" x="0px" y="0px"
	 viewBox="0 0 409.6 409.6" style="enable-background:new 0 0 409.6 409.6;" xml:space="preserve">
<path style="fill:#9BFC1D;" d="M6.827,20.456c0-7.528,6.06-13.629,13.629-13.629h368.688c7.526,0,13.629,6.06,13.629,13.629v368.688
	c0,7.526-6.06,13.629-13.629,13.629H20.456c-7.526,0-13.629-6.062-13.629-13.629V20.456z"/>
<path d="M389.147,409.6H20.453C9.173,409.6,0,400.423,0,389.144V20.456C0,9.177,9.173,0,20.453,0h368.693
	C400.427,0,409.6,9.177,409.6,20.456v368.686C409.6,400.423,400.427,409.6,389.147,409.6z M20.453,13.653
	c-3.746,0-6.799,3.053-6.799,6.803v368.686c0,3.75,3.053,6.803,6.799,6.803h368.693c3.746,0,6.799-3.053,6.799-6.803V20.456
	c0-3.75-3.053-6.803-6.799-6.803H20.453z"/>
<path style="fill:#EE5281;" d="M27.307,354.739c0-15.08,12.201-28.715,27.063-30.432l88.991-10.281l88.991,10.281
	c14.945,1.725,27.063,15.398,27.063,30.432v48.034H27.307V354.739z"/>
<path d="M259.413,409.6H27.307c-3.773,0-6.827-3.057-6.827-6.827v-48.034c0-18.413,14.853-35.106,33.101-37.214l88.994-10.279
	c0.532-0.06,1.039-0.06,1.574,0l88.994,10.279c18.251,2.108,33.097,18.804,33.097,37.214v48.034
	C266.24,406.543,263.187,409.6,259.413,409.6z M34.133,395.947h218.453v-41.207c0-11.503-9.627-22.337-21.019-23.653l-88.207-10.187
	l-88.207,10.187c-11.392,1.318-21.019,12.15-21.019,23.653V395.947z"/>
<path style="fill:#FFDD95;" d="M225.28,232.107c0-6.333-2.935-11.923-7.45-15.681c0.411-3.482,0.623-6.915,0.623-10.267
	c0-42.223-33.62-76.452-75.093-76.452c-41.472,0-75.093,34.229-75.093,76.452c0,3.352,0.213,6.787,0.623,10.267
	c-4.514,3.758-7.45,9.347-7.45,15.681c0,10.544,7.997,19.125,18.241,20.255c5.815,12.213,13.512,23.588,22.719,32.451v46.454
	c0,0,27.767,10.068,40.96,10.068c13.193,0,40.96-10.068,40.96-10.068v-46.454c9.209-8.863,16.905-20.238,22.719-32.451
	C217.283,251.232,225.28,242.65,225.28,232.107z"/>
<path d="M143.36,348.16c-13.986,0-40.327-9.407-43.286-10.481c-2.7-0.98-4.5-3.543-4.5-6.415V287.65
	c-7.799-7.997-14.821-17.997-20.514-29.21c-11.892-3.063-20.446-13.775-20.446-26.334c0-6.799,2.574-13.29,7.153-18.297
	c-0.22-2.596-0.326-5.159-0.326-7.649c0-45.92,36.746-83.28,81.92-83.28s81.92,37.361,81.92,83.28c0,2.49-0.106,5.053-0.326,7.649
	c4.579,5.007,7.153,11.498,7.153,18.297c0,12.559-8.554,23.27-20.446,26.334c-5.693,11.213-12.713,21.214-20.514,29.21v43.614
	c0,2.874-1.801,5.437-4.5,6.417C183.687,338.753,157.346,348.16,143.36,348.16z M109.227,326.41
	c9.433,3.166,25.873,8.096,34.133,8.096c8.26,0,24.701-4.931,34.133-8.096v-41.6c0-1.857,0.753-3.63,2.094-4.917
	c8.201-7.893,15.56-18.43,21.287-30.467c1.021-2.137,3.067-3.593,5.42-3.854c6.932-0.763,12.16-6.554,12.16-13.467
	c0-3.994-1.819-7.793-4.994-10.429c-1.773-1.48-2.686-3.756-2.413-6.057c0.387-3.234,0.58-6.417,0.58-9.46
	c-0.002-38.391-30.628-69.625-68.268-69.625s-68.267,31.234-68.267,69.627c0,3.043,0.193,6.226,0.58,9.46
	c0.273,2.301-0.64,4.577-2.413,6.057c-3.174,2.637-4.994,6.436-4.994,10.429c0,6.914,5.226,12.703,12.16,13.467
	c2.353,0.259,4.4,1.717,5.42,3.854c5.726,12.037,13.087,22.574,21.287,30.467c1.34,1.287,2.094,3.06,2.094,4.917v41.598H109.227z
	 M184.32,331.264h0.067H184.32z"/>
<rect x="150.187" y="68.267" style="fill:#FEDA38;" width="157.013" height="40.96"/>
<path d="M307.2,116.053H150.187c-3.773,0-6.827-3.057-6.827-6.827v-40.96c0-3.77,3.053-6.827,6.827-6.827H307.2
	c3.773,0,6.827,3.057,6.827,6.827v40.96C314.027,112.997,310.973,116.053,307.2,116.053z M157.013,102.4h143.36V75.093h-143.36
	V102.4z"/>
<polygon style="fill:#288EEA;" points="375.467,88.747 293.547,150.187 293.547,27.307 "/>
<path d="M293.547,157.013c-1.039,0-2.087-0.237-3.053-0.72c-2.314-1.157-3.773-3.519-3.773-6.106V27.307
	c0-2.587,1.459-4.949,3.773-6.106c2.313-1.161,5.081-0.906,7.148,0.647l81.92,61.44c1.719,1.287,2.732,3.309,2.732,5.46
	c0,2.15-1.014,4.173-2.734,5.46l-81.92,61.44C296.439,156.551,294.994,157.013,293.547,157.013z M300.373,40.96v95.573
	l63.713-47.787L300.373,40.96z"/>
<g>
</g>
<g>
</g>
<g>
</g>
<g>
</g>
<g>
</g>
<g>
</g>
<g>
</g>
<g>
</g>
<g>
</g>
<g>
</g>
<g>
</g>
<g>
</g>
<g>
</g>
<g>
</g>
<g>
</g>
</svg>
