<?xml version="1.0" encoding="iso-8859-1"?>
<!-- Generator: Adobe Illustrator 19.0.0, SVG Export Plug-In . SVG Version: 6.00 Build 0)  -->
<svg version="1.1" id="Capa_1" xmlns="http://www.w3.org/2000/svg" xmlns:xlink="http://www.w3.org/1999/xlink" x="0px" y="0px"
	 viewBox="0 0 375.249 375.249" style="enable-background:new 0 0 375.249 375.249;" xml:space="preserve">
<polygon style="fill:#26BBEC;" points="235.411,149.969 235.411,300.155 139.838,300.155 139.838,149.969 98.878,149.969 
	187.624,6.609 276.371,149.969 "/>
<path d="M235.411,306.982h-95.573c-3.773,0-6.827-3.057-6.827-6.827v-143.36H98.878c-2.473,0-4.76-1.34-5.967-3.504
	c-1.2-2.164-1.14-4.809,0.16-6.917l88.747-143.36c2.493-4.019,9.12-4.019,11.614,0l88.747,143.36c1.3,2.106,1.36,4.753,0.16,6.917
	c-1.207,2.164-3.494,3.504-5.967,3.504h-34.133v143.36C242.238,303.925,239.184,306.982,235.411,306.982z M146.664,293.329h81.92
	v-143.36c0-3.77,3.053-6.827,6.827-6.827h28.706L187.624,19.579l-76.493,123.563h28.706c3.773,0,6.827,3.057,6.827,6.827V293.329z"
	/>
<polygon style="fill:#288EEA;" points="78.401,327.534 78.401,293.329 37.438,293.329 37.438,368.422 337.811,368.422 
	337.811,293.651 296.848,293.651 296.848,327.534 "/>
<path d="M337.811,375.249H37.438c-3.773,0-6.827-3.057-6.827-6.827v-75.093c0-3.77,3.053-6.827,6.827-6.827h40.96
	c3.773,0,6.827,3.057,6.827,6.827v27.377h204.8v-27.054c0-3.77,3.053-6.827,6.827-6.827h40.96c3.773,0,6.827,3.057,6.827,6.827
	v74.771C344.638,372.192,341.584,375.249,337.811,375.249z M44.264,361.595h286.72v-61.117h-27.307v27.054
	c0,3.77-3.053,6.827-6.827,6.827H78.398c-3.773,0-6.827-3.057-6.827-6.827v-27.377H44.264V361.595z"/>
<g>
</g>
<g>
</g>
<g>
</g>
<g>
</g>
<g>
</g>
<g>
</g>
<g>
</g>
<g>
</g>
<g>
</g>
<g>
</g>
<g>
</g>
<g>
</g>
<g>
</g>
<g>
</g>
<g>
</g>
</svg>
