<?xml version="1.0" encoding="iso-8859-1"?>
<!-- Generator: Adobe Illustrator 19.0.0, SVG Export Plug-In . SVG Version: 6.00 Build 0)  -->
<svg version="1.1" id="Capa_1" xmlns="http://www.w3.org/2000/svg" xmlns:xlink="http://www.w3.org/1999/xlink" x="0px" y="0px"
	 viewBox="0 0 402.522 402.522" style="enable-background:new 0 0 402.522 402.522;" xml:space="preserve">
<rect x="180.782" y="163.594" style="fill:#EE5281;" width="40.96" height="232.107"/>
<path d="M221.742,402.522h-40.96c-3.773,0-6.827-3.057-6.827-6.827V163.589c0-3.77,3.053-6.827,6.827-6.827h40.96
	c3.773,0,6.827,3.057,6.827,6.827v232.107C228.569,399.466,225.516,402.522,221.742,402.522z M187.609,388.869h27.307V170.416
	h-27.307V388.869z"/>
<polygon style="fill:#FCAD3A;" points="201.262,6.576 92.035,197.722 310.489,197.722 "/>
<path d="M310.489,204.549H92.035c-2.434,0-4.68-1.295-5.907-3.4c-1.22-2.104-1.227-4.7-0.02-6.813L195.335,3.19
	c2.427-4.253,9.426-4.253,11.853,0l109.227,191.147c1.207,2.113,1.2,4.709-0.02,6.813
	C315.168,203.254,312.922,204.549,310.489,204.549z M103.803,190.896h194.92L201.262,20.335L103.803,190.896z"/>
<polygon style="fill:#EE5281;" points="201.262,68.016 146.649,163.589 255.875,163.589 "/>
<path d="M255.875,170.416H146.649c-2.434,0-4.68-1.295-5.907-3.4c-1.22-2.104-1.227-4.7-0.02-6.813l54.613-95.573
	c2.427-4.253,9.426-4.253,11.853,0l54.613,95.573c1.207,2.113,1.2,4.709-0.02,6.813C260.555,169.12,258.309,170.416,255.875,170.416
	z M158.416,156.762h85.693l-42.848-74.988L158.416,156.762z"/>
<g>
</g>
<g>
</g>
<g>
</g>
<g>
</g>
<g>
</g>
<g>
</g>
<g>
</g>
<g>
</g>
<g>
</g>
<g>
</g>
<g>
</g>
<g>
</g>
<g>
</g>
<g>
</g>
<g>
</g>
</svg>
