<?xml version="1.0" encoding="iso-8859-1"?>
<!-- Generator: Adobe Illustrator 19.0.0, SVG Export Plug-In . SVG Version: 6.00 Build 0)  -->
<svg version="1.1" id="Capa_1" xmlns="http://www.w3.org/2000/svg" xmlns:xlink="http://www.w3.org/1999/xlink" x="0px" y="0px"
	 viewBox="0 0 300.373 300.373" style="enable-background:new 0 0 300.373 300.373;" xml:space="preserve">
<path style="fill:#9BFC1D;" d="M157.013,266.24c-7.54,0-13.653,6.11-13.653,13.653c0,7.537,6.113,13.653,13.653,13.653h136.533
	V157.013c0-7.543-6.113-13.653-13.653-13.653s-13.653,6.11-13.653,13.653V266.24H157.013z"/>
<path d="M293.547,300.373H157.013c-11.293,0-20.48-9.187-20.48-20.48s9.187-20.48,20.48-20.48h102.4v-102.4
	c0-11.293,9.187-20.48,20.48-20.48s20.48,9.187,20.48,20.48v136.533C300.373,297.317,297.32,300.373,293.547,300.373z
	 M157.013,273.067c-3.767,0-6.827,3.062-6.827,6.827s3.06,6.827,6.827,6.827H286.72V157.013c0-3.765-3.06-6.827-6.827-6.827
	s-6.827,3.062-6.827,6.827V266.24c0,3.77-3.053,6.827-6.827,6.827H157.013z"/>
<path style="fill:#26BBEC;" d="M88.747,197.973c-7.54,0-13.653,6.11-13.653,13.653c0,7.537,6.113,13.653,13.653,13.653H225.28
	V88.747c0-7.543-6.113-13.653-13.653-13.653c-7.54,0-13.653,6.11-13.653,13.653v109.227H88.747z"/>
<path d="M225.28,232.107H88.747c-11.293,0-20.48-9.187-20.48-20.48c0-11.293,9.187-20.48,20.48-20.48h102.4v-102.4
	c0-11.293,9.187-20.48,20.48-20.48c11.293,0,20.48,9.187,20.48,20.48V225.28C232.107,229.05,229.053,232.107,225.28,232.107z
	 M88.747,204.8c-3.767,0-6.827,3.062-6.827,6.827c0,3.765,3.06,6.827,6.827,6.827h129.707V88.747c0-3.765-3.06-6.827-6.827-6.827
	c-3.767,0-6.827,3.062-6.827,6.827v109.227c0,3.77-3.053,6.827-6.827,6.827H88.747z"/>
<path style="fill:#288EEA;" d="M20.48,129.707c-7.54,0-13.653,6.11-13.653,13.653c0,7.537,6.113,13.653,13.653,13.653h136.533V20.48
	c0-7.543-6.113-13.653-13.653-13.653s-13.653,6.11-13.653,13.653v109.227H20.48z"/>
<path d="M157.013,163.84H20.48C9.187,163.84,0,154.653,0,143.36c0-11.293,9.187-20.48,20.48-20.48h102.4V20.48
	C122.88,9.187,132.067,0,143.36,0c11.293,0,20.48,9.187,20.48,20.48v136.533C163.84,160.783,160.787,163.84,157.013,163.84z
	 M20.48,136.533c-3.767,0-6.827,3.062-6.827,6.827s3.06,6.827,6.827,6.827h129.707V20.48c0-3.765-3.06-6.827-6.827-6.827
	s-6.827,3.062-6.827,6.827v109.227c0,3.77-3.053,6.827-6.827,6.827H20.48z"/>
<g>
</g>
<g>
</g>
<g>
</g>
<g>
</g>
<g>
</g>
<g>
</g>
<g>
</g>
<g>
</g>
<g>
</g>
<g>
</g>
<g>
</g>
<g>
</g>
<g>
</g>
<g>
</g>
<g>
</g>
</svg>
