<?xml version="1.0" encoding="iso-8859-1"?>
<!-- Generator: Adobe Illustrator 19.0.0, SVG Export Plug-In . SVG Version: 6.00 Build 0)  -->
<svg version="1.1" id="Capa_1" xmlns="http://www.w3.org/2000/svg" xmlns:xlink="http://www.w3.org/1999/xlink" x="0px" y="0px"
	 viewBox="0 0 300.373 300.373" style="enable-background:new 0 0 300.373 300.373;" xml:space="preserve">
<path style="fill:#9BFC1D;" d="M143.36,34.133c7.54,0,13.653-6.117,13.653-13.653c0-7.543-6.113-13.653-13.653-13.653H6.827V143.36
	c0,7.537,6.113,13.653,13.653,13.653s13.653-6.117,13.653-13.653V34.133H143.36z"/>
<path d="M20.48,163.84C9.187,163.84,0,154.653,0,143.36V6.827C0,3.057,3.053,0,6.827,0H143.36c11.293,0,20.48,9.187,20.48,20.48
	s-9.187,20.48-20.48,20.48H40.96v102.4C40.96,154.653,31.773,163.84,20.48,163.84z M13.653,13.653V143.36
	c0,3.765,3.06,6.827,6.827,6.827s6.827-3.062,6.827-6.827V34.133c0-3.77,3.053-6.827,6.827-6.827H143.36
	c3.767,0,6.827-3.062,6.827-6.827s-3.06-6.827-6.827-6.827H13.653z"/>
<path style="fill:#26BBEC;" d="M211.627,102.4c7.54,0,13.653-6.117,13.653-13.653c0-7.543-6.113-13.653-13.653-13.653H75.093
	v136.533c0,7.537,6.113,13.653,13.653,13.653c7.54,0,13.653-6.117,13.653-13.653V102.4H211.627z"/>
<path d="M88.747,232.107c-11.293,0-20.48-9.187-20.48-20.48V75.093c0-3.77,3.053-6.827,6.827-6.827h136.533
	c11.293,0,20.48,9.187,20.48,20.48s-9.187,20.48-20.48,20.48h-102.4v102.4C109.227,222.92,100.04,232.107,88.747,232.107z
	 M81.92,81.92v129.707c0,3.765,3.06,6.827,6.827,6.827c3.767,0,6.827-3.062,6.827-6.827V102.4c0-3.77,3.053-6.827,6.827-6.827
	h109.227c3.767,0,6.827-3.062,6.827-6.827c0-3.765-3.06-6.827-6.827-6.827H81.92z"/>
<path style="fill:#288EEA;" d="M279.893,170.667c7.54,0,13.653-6.117,13.653-13.653c0-7.543-6.113-13.653-13.653-13.653H143.36
	v136.533c0,7.537,6.113,13.653,13.653,13.653s13.653-6.117,13.653-13.653V170.667H279.893z"/>
<path d="M157.013,300.373c-11.293,0-20.48-9.187-20.48-20.48V143.36c0-3.77,3.053-6.827,6.827-6.827h136.533
	c11.293,0,20.48,9.187,20.48,20.48s-9.187,20.48-20.48,20.48h-102.4v102.4C177.493,291.186,168.306,300.373,157.013,300.373z
	 M150.187,150.187v129.707c0,3.765,3.06,6.827,6.827,6.827s6.827-3.062,6.827-6.827V170.667c0-3.77,3.053-6.827,6.827-6.827h109.227
	c3.767,0,6.827-3.062,6.827-6.827s-3.06-6.827-6.827-6.827H150.187z"/>
<g>
</g>
<g>
</g>
<g>
</g>
<g>
</g>
<g>
</g>
<g>
</g>
<g>
</g>
<g>
</g>
<g>
</g>
<g>
</g>
<g>
</g>
<g>
</g>
<g>
</g>
<g>
</g>
<g>
</g>
</svg>
