<?xml version="1.0" encoding="iso-8859-1"?>
<!-- Generator: Adobe Illustrator 19.0.0, SVG Export Plug-In . SVG Version: 6.00 Build 0)  -->
<svg version="1.1" id="Capa_1" xmlns="http://www.w3.org/2000/svg" xmlns:xlink="http://www.w3.org/1999/xlink" x="0px" y="0px"
	 viewBox="0 0 416.429 416.429" style="enable-background:new 0 0 416.429 416.429;" xml:space="preserve">
<polygon style="fill:#DDDDDD;" points="208.213,23.779 409.6,358.285 6.827,358.285 "/>
<path d="M409.6,365.112H6.827c-2.459,0-4.733-1.324-5.939-3.468c-1.213-2.142-1.179-4.77,0.094-6.88L202.368,20.258
	c2.466-4.099,9.226-4.099,11.694,0l201.387,334.507c1.273,2.109,1.307,4.738,0.094,6.88
	C414.333,363.786,412.059,365.112,409.6,365.112z M18.906,351.459H397.52L208.213,37.014L18.906,351.459z"/>
<polygon style="fill:#FEDA38;" points="208.213,105.699 334.507,317.325 81.92,317.325 "/>
<path d="M334.507,324.152H81.92c-2.454,0-4.727-1.319-5.934-3.456c-1.213-2.135-1.186-4.758,0.073-6.868l126.293-211.627
	c2.454-4.13,9.267-4.13,11.72,0l126.293,211.627c1.26,2.109,1.287,4.733,0.073,6.868
	C339.234,322.831,336.961,324.152,334.507,324.152z M93.947,310.499H322.48L208.213,119.019L93.947,310.499z"/>
<rect x="6.827" y="358.28" style="fill:#777777;" width="402.773" height="34.133"/>
<path d="M409.6,399.245H6.827c-3.773,0-6.827-3.057-6.827-6.827v-34.133c0-3.77,3.053-6.827,6.827-6.827H409.6
	c3.773,0,6.827,3.057,6.827,6.827v34.133C416.427,396.189,413.373,399.245,409.6,399.245z M13.653,385.592h389.12v-20.48H13.653
	V385.592z"/>
<g>
</g>
<g>
</g>
<g>
</g>
<g>
</g>
<g>
</g>
<g>
</g>
<g>
</g>
<g>
</g>
<g>
</g>
<g>
</g>
<g>
</g>
<g>
</g>
<g>
</g>
<g>
</g>
<g>
</g>
</svg>
