<?xml version="1.0" encoding="iso-8859-1"?>
<!-- Generator: Adobe Illustrator 19.0.0, SVG Export Plug-In . SVG Version: 6.00 Build 0)  -->
<svg version="1.1" id="Capa_1" xmlns="http://www.w3.org/2000/svg" xmlns:xlink="http://www.w3.org/1999/xlink" x="0px" y="0px"
	 viewBox="0 0 416.427 416.427" style="enable-background:new 0 0 416.427 416.427;" xml:space="preserve">
<polygon style="fill:#DDDDDD;" points="392.533,208.213 58.027,6.827 58.027,409.6 "/>
<path d="M58.027,416.427c-1.161,0-2.313-0.294-3.36-0.884c-2.14-1.212-3.466-3.482-3.466-5.943V6.827
	c0-2.461,1.326-4.731,3.466-5.943c2.154-1.208,4.78-1.174,6.88,0.096l334.507,201.387c2.053,1.236,3.307,3.453,3.307,5.849
	s-1.253,4.613-3.307,5.849L61.546,415.45C60.467,416.101,59.247,416.427,58.027,416.427z M64.853,18.905v378.617L379.3,208.213
	L64.853,18.905z"/>
<polygon style="fill:#FEDA38;" points="310.613,208.213 98.987,81.92 98.987,334.507 "/>
<path d="M98.987,341.333c-1.161,0-2.326-0.297-3.374-0.889c-2.133-1.213-3.453-3.482-3.453-5.938V81.92
	c0-2.456,1.319-4.724,3.453-5.938c2.147-1.213,4.76-1.183,6.873,0.075l211.627,126.293c2.06,1.232,3.326,3.458,3.326,5.862
	c0,2.405-1.266,4.63-3.326,5.862L102.485,340.369C101.407,341.012,100.2,341.333,98.987,341.333z M105.813,93.943v228.54
	l191.479-114.27L105.813,93.943z"/>
<rect x="23.893" y="6.827" style="fill:#777777;" width="34.133" height="402.773"/>
<path d="M58.027,416.427H23.893c-3.773,0-6.827-3.057-6.827-6.827V6.827C17.067,3.057,20.12,0,23.893,0h34.133
	c3.773,0,6.827,3.057,6.827,6.827V409.6C64.853,413.37,61.8,416.427,58.027,416.427z M30.72,402.773H51.2V13.653H30.72V402.773z"/>
<g>
</g>
<g>
</g>
<g>
</g>
<g>
</g>
<g>
</g>
<g>
</g>
<g>
</g>
<g>
</g>
<g>
</g>
<g>
</g>
<g>
</g>
<g>
</g>
<g>
</g>
<g>
</g>
<g>
</g>
</svg>
