<?xml version="1.0" encoding="iso-8859-1"?>
<!-- Generator: Adobe Illustrator 19.0.0, SVG Export Plug-In . SVG Version: 6.00 Build 0)  -->
<svg version="1.1" id="Capa_1" xmlns="http://www.w3.org/2000/svg" xmlns:xlink="http://www.w3.org/1999/xlink" x="0px" y="0px"
	 viewBox="0 0 416.427 416.427" style="enable-background:new 0 0 416.427 416.427;" xml:space="preserve">
<polygon style="fill:#DDDDDD;" points="23.893,208.213 358.4,6.827 358.4,409.6 "/>
<path d="M358.4,416.427c-1.22,0-2.441-0.326-3.519-0.978L20.374,214.062c-2.055-1.236-3.308-3.454-3.308-5.849
	s1.253-4.613,3.308-5.849L354.881,0.978c2.113-1.27,4.739-1.304,6.88-0.096c2.14,1.213,3.466,3.483,3.466,5.944V409.6
	c0,2.461-1.326,4.731-3.466,5.943C360.713,416.133,359.561,416.427,358.4,416.427z M37.127,208.213l314.447,189.309V18.905
	L37.127,208.213z"/>
<polygon style="fill:#FEDA38;" points="105.813,208.213 317.44,81.92 317.44,334.507 "/>
<path d="M317.44,341.333c-1.213,0-2.42-0.321-3.5-0.964L102.313,214.076c-2.06-1.232-3.326-3.459-3.326-5.862
	c0-2.403,1.266-4.63,3.326-5.862L313.94,76.058c2.113-1.258,4.733-1.289,6.873-0.075c2.135,1.213,3.454,3.482,3.454,5.937v252.587
	c0,2.456-1.319,4.724-3.453,5.938C319.766,341.036,318.601,341.333,317.44,341.333z M119.134,208.213l191.479,114.27V93.943
	L119.134,208.213z"/>
<rect x="358.4" y="6.827" style="fill:#777777;" width="34.133" height="402.773"/>
<path d="M392.533,416.427H358.4c-3.773,0-6.827-3.057-6.827-6.827V6.827c0-3.77,3.053-6.827,6.827-6.827h34.133
	c3.773,0,6.827,3.057,6.827,6.827V409.6C399.36,413.37,396.307,416.427,392.533,416.427z M365.227,402.773h20.48V13.653h-20.48
	V402.773z"/>
<g>
</g>
<g>
</g>
<g>
</g>
<g>
</g>
<g>
</g>
<g>
</g>
<g>
</g>
<g>
</g>
<g>
</g>
<g>
</g>
<g>
</g>
<g>
</g>
<g>
</g>
<g>
</g>
<g>
</g>
</svg>
