<?xml version="1.0" encoding="iso-8859-1"?>
<!-- Generator: Adobe Illustrator 19.0.0, SVG Export Plug-In . SVG Version: 6.00 Build 0)  -->
<svg version="1.1" id="Capa_1" xmlns="http://www.w3.org/2000/svg" xmlns:xlink="http://www.w3.org/1999/xlink" x="0px" y="0px"
	 viewBox="0 0 416.427 416.427" style="enable-background:new 0 0 416.427 416.427;" xml:space="preserve">
<polygon style="fill:#DDDDDD;" points="208.214,392.534 409.6,58.027 6.827,58.027 "/>
<path d="M208.214,399.36c-2.393,0-4.613-1.254-5.847-3.306L0.98,61.548c-1.273-2.109-1.307-4.738-0.094-6.88
	C2.094,52.525,4.368,51.2,6.827,51.2H409.6c2.459,0,4.733,1.324,5.939,3.468c1.213,2.142,1.179,4.77-0.094,6.88L214.059,396.054
	C212.827,398.106,210.606,399.36,208.214,399.36z M18.907,64.854l189.307,314.445L397.521,64.854H18.907z"/>
<polygon style="fill:#FEDA38;" points="208.214,310.614 334.507,98.987 81.92,98.987 "/>
<path d="M208.214,317.44c-2.406,0-4.634-1.263-5.861-3.328L76.06,102.486c-1.26-2.109-1.287-4.733-0.073-6.868
	c1.207-2.138,3.48-3.458,5.934-3.458h252.587c2.454,0,4.727,1.319,5.934,3.456c1.213,2.135,1.186,4.758-0.073,6.868L214.074,314.111
	C212.847,316.177,210.62,317.44,208.214,317.44z M93.947,105.814l114.266,191.478L322.48,105.814H93.947z"/>
<rect x="6.827" y="23.894" style="fill:#777777;" width="402.773" height="34.133"/>
<path d="M409.6,64.854H6.827C3.054,64.854,0,61.797,0,58.027V23.894c0-3.77,3.053-6.827,6.827-6.827H409.6
	c3.773,0,6.827,3.057,6.827,6.827v34.133C416.427,61.797,413.374,64.854,409.6,64.854z M13.654,51.2h389.12V30.72H13.654V51.2z"/>
<g>
</g>
<g>
</g>
<g>
</g>
<g>
</g>
<g>
</g>
<g>
</g>
<g>
</g>
<g>
</g>
<g>
</g>
<g>
</g>
<g>
</g>
<g>
</g>
<g>
</g>
<g>
</g>
<g>
</g>
</svg>
