<?xml version="1.0" encoding="iso-8859-1"?>
<!-- Generator: Adobe Illustrator 19.0.0, SVG Export Plug-In . SVG Version: 6.00 Build 0)  -->
<svg version="1.1" id="Capa_1" xmlns="http://www.w3.org/2000/svg" xmlns:xlink="http://www.w3.org/1999/xlink" x="0px" y="0px"
	 viewBox="0 0 416.72 416.72" style="enable-background:new 0 0 416.72 416.72;" xml:space="preserve">
<polygon style="fill:#DDDDDD;" points="6.827,6.825 385.76,100.955 100.957,385.758 "/>
<path d="M100.953,392.585c-0.606,0-1.227-0.082-1.826-0.249c-2.374-0.66-4.207-2.543-4.799-4.934L0.2,8.47
	c-0.573-2.323,0.106-4.78,1.801-6.472C3.687,0.306,6.141-0.374,8.474,0.2l378.933,94.131c2.386,0.594,4.273,2.427,4.934,4.799
	c0.654,2.372-0.014,4.913-1.753,6.653L105.78,390.585C104.481,391.883,102.74,392.585,100.953,392.585z M16.187,16.183
	l88.48,356.207l267.727-267.721L16.187,16.183z"/>
<polygon style="fill:#FEDA38;" points="64.753,64.751 303.698,125.09 125.092,303.696 "/>
<path d="M125.094,310.523c-0.606,0-1.213-0.08-1.812-0.246c-2.367-0.654-4.207-2.528-4.806-4.91L58.133,66.422
	c-0.587-2.33,0.094-4.799,1.794-6.499c1.7-1.703,4.18-2.381,6.501-1.792l238.947,60.339c2.381,0.602,4.253,2.435,4.907,4.803
	s-0.014,4.905-1.753,6.642L129.921,308.523C128.62,309.822,126.881,310.523,125.094,310.523z M74.174,74.17l54.593,216.197
	l161.606-161.601L74.174,74.17z"/>
<rect x="54.052" y="238.364" transform="matrix(-0.7071 0.7071 -0.7071 -0.7071 616.6742 255.4255)" style="fill:#777777;" width="402.77" height="34.133"/>
<path d="M125.094,416.72c-1.746,0-3.494-0.667-4.826-1.998l-24.141-24.136c-1.28-1.282-2-3.017-2-4.828s0.72-3.546,2-4.826
	L380.934,96.128c1.28-1.28,3.014-2,4.826-2l0,0c1.812,0,3.546,0.72,4.826,2l24.134,24.136c2.666,2.666,2.666,6.989,0,9.653
	l-284.8,284.803C128.588,416.053,126.84,416.72,125.094,416.72z M110.608,385.758l14.486,14.481L400.241,125.09l-14.479-14.479
	L110.608,385.758z"/>
<g>
</g>
<g>
</g>
<g>
</g>
<g>
</g>
<g>
</g>
<g>
</g>
<g>
</g>
<g>
</g>
<g>
</g>
<g>
</g>
<g>
</g>
<g>
</g>
<g>
</g>
<g>
</g>
<g>
</g>
</svg>
