<?xml version="1.0" encoding="iso-8859-1"?>
<!-- Generator: Adobe Illustrator 19.0.0, SVG Export Plug-In . SVG Version: 6.00 Build 0)  -->
<svg version="1.1" id="Capa_1" xmlns="http://www.w3.org/2000/svg" xmlns:xlink="http://www.w3.org/1999/xlink" x="0px" y="0px"
	 viewBox="0 0 361.813 361.813" style="enable-background:new 0 0 361.813 361.813;" xml:space="preserve">
<circle style="fill:#EE5281;" cx="47.787" cy="314.027" r="40.96"/>
<path d="M47.787,361.813C21.439,361.813,0,340.376,0,314.027s21.439-47.787,47.787-47.787s47.787,21.437,47.787,47.787
	S74.134,361.813,47.787,361.813z M47.787,279.893c-18.819,0-34.133,15.314-34.133,34.133s15.314,34.133,34.133,34.133
	s34.133-15.314,34.133-34.133S66.606,279.893,47.787,279.893z"/>
<circle style="fill:#EE5281;" cx="293.547" cy="293.547" r="61.44"/>
<path d="M293.547,361.813c-37.641,0-68.267-30.623-68.267-68.267s30.626-68.267,68.267-68.267s68.267,30.623,68.267,68.267
	S331.187,361.813,293.547,361.813z M293.547,238.933c-30.114,0-54.613,24.499-54.613,54.613c0,30.114,24.499,54.613,54.613,54.613
	c30.114,0,54.613-24.499,54.613-54.613C348.16,263.433,323.661,238.933,293.547,238.933z"/>
<path style="fill:#26BBEC;" d="M279.9,34.045v148.248c0,7.516,6.112,13.612,13.65,13.612s13.65-6.096,13.65-13.612V6.827H34.133
	v232.148c0,7.516,6.112,13.612,13.65,13.612s13.65-6.096,13.65-13.612V34.045H279.9z"/>
<path d="M47.787,259.413c-11.293,0-20.48-9.17-20.48-20.441V6.827C27.307,3.057,30.36,0,34.133,0H307.2
	c3.773,0,6.827,3.057,6.827,6.827v175.466c0,11.271-9.187,20.437-20.48,20.437c-11.286,0-20.473-9.167-20.473-20.437V40.87H68.26
	v198.103C68.26,250.243,59.073,259.413,47.787,259.413z M40.96,13.653v225.319c0,3.743,3.06,6.787,6.827,6.787
	c3.76,0,6.82-3.043,6.82-6.787V34.043c0-3.77,3.053-6.827,6.827-6.827H279.9c3.773,0,6.827,3.057,6.827,6.827v148.25
	c0,3.739,3.06,6.784,6.82,6.784c3.767,0,6.827-3.043,6.827-6.784V13.653H40.96z"/>
<polygon style="fill:#9BFC1D;" points="293.547,211.627 238.933,157.013 348.16,157.013 "/>
<path d="M293.547,218.453c-1.746,0-3.494-0.667-4.826-2l-54.613-54.613c-1.954-1.954-2.54-4.886-1.48-7.439
	c1.053-2.55,3.546-4.214,6.306-4.214H348.16c2.76,0,5.253,1.664,6.306,4.214c1.06,2.553,0.473,5.487-1.48,7.439l-54.613,54.613
	C297.04,217.786,295.293,218.453,293.547,218.453z M255.413,163.84l38.134,38.134l38.134-38.134H255.413z"/>
<g>
</g>
<g>
</g>
<g>
</g>
<g>
</g>
<g>
</g>
<g>
</g>
<g>
</g>
<g>
</g>
<g>
</g>
<g>
</g>
<g>
</g>
<g>
</g>
<g>
</g>
<g>
</g>
<g>
</g>
</svg>
