<?xml version="1.0" encoding="iso-8859-1"?>
<!-- Generator: Adobe Illustrator 19.0.0, SVG Export Plug-In . SVG Version: 6.00 Build 0)  -->
<svg version="1.1" id="Capa_1" xmlns="http://www.w3.org/2000/svg" xmlns:xlink="http://www.w3.org/1999/xlink" x="0px" y="0px"
	 viewBox="0 0 430.08 430.08" style="enable-background:new 0 0 430.08 430.08;" xml:space="preserve">
<rect x="6.827" y="194.56" style="fill:#F97DA3;" width="116.053" height="40.96"/>
<path d="M122.88,242.347H6.827C3.053,242.347,0,239.29,0,235.52v-40.96c0-3.77,3.053-6.827,6.827-6.827H122.88
	c3.773,0,6.827,3.057,6.827,6.827v40.96C129.707,239.29,126.653,242.347,122.88,242.347z M13.653,228.693h102.4v-27.307h-102.4
	V228.693z"/>
<rect x="307.2" y="194.56" style="fill:#F97DA3;" width="116.053" height="40.96"/>
<path d="M423.253,242.347H307.2c-3.773,0-6.827-3.057-6.827-6.827v-40.96c0-3.77,3.053-6.827,6.827-6.827h116.053
	c3.773,0,6.827,3.057,6.827,6.827v40.96C430.08,239.29,427.027,242.347,423.253,242.347z M314.027,228.693h102.4v-27.307h-102.4
	V228.693z"/>
<polygon style="fill:#EE5281;" points="157.013,215.04 88.747,167.253 88.747,262.827 "/>
<path d="M88.747,269.653c-1.08,0-2.161-0.256-3.154-0.77c-2.26-1.178-3.673-3.511-3.673-6.057v-95.573
	c0-2.546,1.413-4.879,3.673-6.057c2.26-1.167,4.98-0.997,7.067,0.463l68.267,47.787c1.826,1.277,2.913,3.367,2.913,5.593
	c0,2.225-1.087,4.316-2.913,5.593L92.66,268.418C91.493,269.237,90.121,269.653,88.747,269.653z M95.573,180.364v69.354
	l49.533-34.678L95.573,180.364z"/>
<polygon style="fill:#EE5281;" points="273.067,215.04 341.333,167.253 341.333,262.827 "/>
<path d="M341.333,269.653c-1.374,0-2.746-0.416-3.913-1.234l-68.267-47.787c-1.826-1.277-2.913-3.367-2.913-5.593
	c0-2.225,1.087-4.316,2.913-5.593l68.267-47.787c2.087-1.459,4.806-1.63,7.067-0.463c2.26,1.176,3.673,3.511,3.673,6.057v95.573
	c0,2.546-1.413,4.879-3.673,6.057C343.494,269.397,342.414,269.653,341.333,269.653z M284.974,215.04l49.533,34.676v-69.354
	L284.974,215.04z"/>
<rect x="177.493" y="126.293" style="fill:#DDDDDD;" width="75.093" height="177.493"/>
<path d="M252.587,310.067h-75.093c-3.466,0-6.281-2.813-6.281-6.281V126.293c0-3.466,2.813-6.281,6.281-6.281h75.093
	c3.466,0,6.281,2.813,6.281,6.281v177.493C258.867,307.253,256.053,310.067,252.587,310.067z M183.774,297.506h62.534V132.574
	h-62.534V297.506z"/>
<g>
</g>
<g>
</g>
<g>
</g>
<g>
</g>
<g>
</g>
<g>
</g>
<g>
</g>
<g>
</g>
<g>
</g>
<g>
</g>
<g>
</g>
<g>
</g>
<g>
</g>
<g>
</g>
<g>
</g>
</svg>
