<?xml version="1.0" encoding="iso-8859-1"?>
<!-- Generator: Adobe Illustrator 19.0.0, SVG Export Plug-In . SVG Version: 6.00 Build 0)  -->
<svg version="1.1" id="Capa_1" xmlns="http://www.w3.org/2000/svg" xmlns:xlink="http://www.w3.org/1999/xlink" x="0px" y="0px"
	 viewBox="0 0 388.919 388.919" style="enable-background:new 0 0 388.919 388.919;" xml:space="preserve">
<path style="fill:#DDDDDD;" d="M37.446,361.612c0-11.312,9.228-20.48,20.483-20.48h273.062c11.312,0,20.483,9.192,20.483,20.48
	c0,11.31-9.228,20.48-20.483,20.48H57.93C46.616,382.092,37.446,372.899,37.446,361.612z"/>
<path d="M330.993,388.919H57.926c-15.06,0-27.307-12.25-27.307-27.307c0-15.056,12.247-27.307,27.307-27.307h273.067
	c15.06,0,27.307,12.25,27.307,27.307C358.3,376.669,346.052,388.919,330.993,388.919z M57.926,347.959
	c-7.526,0-13.653,6.124-13.653,13.653s6.127,13.653,13.653,13.653h273.067c7.526,0,13.653-6.124,13.653-13.653
	s-6.127-13.653-13.653-13.653H57.926z"/>
<path style="fill:#9BFC1D;" d="M261.462,130.804l-24.141,162.662c-1.109,7.474-8.093,13.534-15.647,13.534h-61.249
	c-7.532,0-14.537-6.065-15.647-13.534l-24.141-162.662h-41.97c-7.508,0-9.33-4.396-4.125-9.764l107.02-110.379
	c5.229-5.393,13.732-5.367,18.937,0l107.058,110.379c5.229,5.393,3.311,9.764-4.123,9.764L261.462,130.804L261.462,130.804z"/>
<path d="M221.672,313.826h-61.247c-10.953,0-20.794-8.503-22.4-19.36l-23.274-156.834H78.666c-9.146,0-12.213-4.913-13.114-7.026
	c-0.893-2.113-2.287-7.74,4.087-14.317L176.666,5.907c7.634-7.88,21.093-7.873,28.733,0l107.059,110.377
	c6.366,6.571,4.973,12.196,4.074,14.31c-0.893,2.116-3.966,7.037-13.1,7.037h-36.087l-23.274,156.836
	C242.466,305.321,232.626,313.826,221.672,313.826z M81.2,123.978h39.439c3.379,0,6.253,2.476,6.753,5.823l24.141,162.661
	c0.606,4.106,4.767,7.711,8.893,7.711h61.247c4.127,0,8.286-3.599,8.893-7.707l24.141-162.664c0.5-3.347,3.374-5.823,6.753-5.823
	h39.439l-105.3-108.563c-2.454-2.529-6.68-2.536-9.134-0.003L81.2,123.978z"/>
<g>
</g>
<g>
</g>
<g>
</g>
<g>
</g>
<g>
</g>
<g>
</g>
<g>
</g>
<g>
</g>
<g>
</g>
<g>
</g>
<g>
</g>
<g>
</g>
<g>
</g>
<g>
</g>
<g>
</g>
</svg>
