<?xml version="1.0" encoding="iso-8859-1"?>
<!-- Generator: Adobe Illustrator 19.0.0, SVG Export Plug-In . SVG Version: 6.00 Build 0)  -->
<svg version="1.1" id="Capa_1" xmlns="http://www.w3.org/2000/svg" xmlns:xlink="http://www.w3.org/1999/xlink" x="0px" y="0px"
	 viewBox="0 0 409.6 409.6" style="enable-background:new 0 0 409.6 409.6;" xml:space="preserve">
<path style="fill:#EE5281;" d="M6.827,20.456c0-7.528,6.06-13.629,13.629-13.629h368.688c7.526,0,13.629,6.06,13.629,13.629v368.688
	c0,7.526-6.06,13.629-13.629,13.629H20.456c-7.526,0-13.629-6.062-13.629-13.629V20.456z"/>
<path d="M389.147,409.6H20.453C9.173,409.6,0,400.423,0,389.144V20.456C0,9.177,9.173,0,20.453,0h368.693
	C400.427,0,409.6,9.177,409.6,20.456v368.686C409.6,400.423,400.427,409.6,389.147,409.6z M20.453,13.653
	c-3.746,0-6.799,3.053-6.799,6.803v368.686c0,3.75,3.053,6.803,6.799,6.803h368.693c3.746,0,6.799-3.053,6.799-6.803V20.456
	c0-3.75-3.053-6.803-6.799-6.803H20.453z"/>
<path d="M273.067,225.28h-143.36c-3.773,0-6.827-3.057-6.827-6.827V109.227c0-3.77,3.053-6.827,6.827-6.827
	c3.773,0,6.827,3.057,6.827,6.827v102.4h136.533c3.773,0,6.827,3.057,6.827,6.827S276.84,225.28,273.067,225.28z"/>
<path d="M273.067,320.853c-3.773,0-6.827-3.057-6.827-6.827V102.4c0-3.77,3.053-6.827,6.827-6.827s6.827,3.057,6.827,6.827v211.627
	C279.893,317.797,276.84,320.853,273.067,320.853z"/>
<path d="M163.833,136.533c-1.48,0-2.973-0.48-4.227-1.473l-30.247-23.917l-29.493,23.869c-2.927,2.377-7.233,1.913-9.6-1.014
	c-2.374-2.93-1.92-7.226,1.014-9.6l33.741-27.307c2.48-2.01,6.019-2.033,8.527-0.046l34.526,27.307
	c2.959,2.336,3.459,6.63,1.12,9.586C167.847,135.644,165.854,136.533,163.833,136.533z"/>
<path d="M272.674,327.68c-1.521,0-3.04-0.507-4.294-1.521l-33.741-27.307c-2.934-2.374-3.386-6.67-1.014-9.6
	c2.367-2.927,6.673-3.389,9.6-1.014l29.493,23.869l30.247-23.917c2.966-2.343,7.253-1.836,9.586,1.12
	c2.34,2.956,1.84,7.25-1.12,9.586l-34.526,27.307C275.666,327.19,274.167,327.68,272.674,327.68z"/>
<g>
</g>
<g>
</g>
<g>
</g>
<g>
</g>
<g>
</g>
<g>
</g>
<g>
</g>
<g>
</g>
<g>
</g>
<g>
</g>
<g>
</g>
<g>
</g>
<g>
</g>
<g>
</g>
<g>
</g>
</svg>
