<?xml version="1.0" encoding="iso-8859-1"?>
<!-- Generator: Adobe Illustrator 19.0.0, SVG Export Plug-In . SVG Version: 6.00 Build 0)  -->
<svg version="1.1" id="Capa_1" xmlns="http://www.w3.org/2000/svg" xmlns:xlink="http://www.w3.org/1999/xlink" x="0px" y="0px"
	 viewBox="0 0 409.6 409.6" style="enable-background:new 0 0 409.6 409.6;" xml:space="preserve">
<path style="fill:#EE5281;" d="M6.827,20.456c0-7.528,6.062-13.629,13.626-13.629h368.695c7.523,0,13.626,6.06,13.626,13.629
	v368.688c0,7.526-6.062,13.629-13.626,13.629H20.453c-7.523,0-13.626-6.062-13.626-13.629V20.456z"/>
<path d="M389.147,409.6H20.453C9.173,409.6,0,400.423,0,389.144V20.456C0,9.177,9.173,0,20.453,0h368.693
	C400.427,0,409.6,9.177,409.6,20.456v368.686C409.6,400.423,400.427,409.6,389.147,409.6z M20.453,13.653
	c-3.746,0-6.799,3.053-6.799,6.803v368.686c0,3.75,3.053,6.803,6.799,6.803h368.693c3.746,0,6.799-3.053,6.799-6.803V20.456
	c0-3.75-3.053-6.803-6.799-6.803H20.453z"/>
<path d="M204.8,348.16c-3.773,0-6.827-3.057-6.827-6.827V68.267c0-3.77,3.053-6.827,6.827-6.827s6.827,3.057,6.827,6.827v273.067
	C211.627,345.103,208.573,348.16,204.8,348.16z"/>
<path d="M293.547,293.547H204.8c-3.773,0-6.827-3.057-6.827-6.827s3.053-6.827,6.827-6.827h88.747c3.773,0,6.827,3.057,6.827,6.827
	S297.32,293.547,293.547,293.547z"/>
<path d="M204.8,129.707h-88.747c-3.773,0-6.827-3.057-6.827-6.827s3.053-6.827,6.827-6.827H204.8c3.773,0,6.827,3.057,6.827,6.827
	S208.573,129.707,204.8,129.707z"/>
<path d="M136.54,163.84c-1.993,0-3.966-0.867-5.313-2.533l-27.307-33.743c-2.007-2.48-2.028-6.023-0.046-8.527l27.307-34.524
	c2.333-2.953,6.634-3.466,9.586-1.12c2.959,2.336,3.459,6.63,1.12,9.586l-23.921,30.24l23.873,29.5c2.374,2.93,1.92,7.226-1.014,9.6
	C139.566,163.343,138.047,163.84,136.54,163.84z"/>
<path d="M273.06,327.68c-1.507,0-3.026-0.497-4.287-1.521c-2.934-2.374-3.386-6.67-1.014-9.6l23.873-29.5l-23.921-30.24
	c-2.34-2.956-1.84-7.25,1.12-9.586c2.973-2.347,7.26-1.836,9.586,1.12l27.307,34.524c1.98,2.504,1.959,6.047-0.046,8.527
	l-27.307,33.742C277.026,326.813,275.053,327.68,273.06,327.68z"/>
<g>
</g>
<g>
</g>
<g>
</g>
<g>
</g>
<g>
</g>
<g>
</g>
<g>
</g>
<g>
</g>
<g>
</g>
<g>
</g>
<g>
</g>
<g>
</g>
<g>
</g>
<g>
</g>
<g>
</g>
</svg>
