<?xml version="1.0" encoding="iso-8859-1"?>
<!-- Generator: Adobe Illustrator 19.0.0, SVG Export Plug-In . SVG Version: 6.00 Build 0)  -->
<svg version="1.1" id="Capa_1" xmlns="http://www.w3.org/2000/svg" xmlns:xlink="http://www.w3.org/1999/xlink" x="0px" y="0px"
	 viewBox="0 0 416.422 416.422" style="enable-background:new 0 0 416.422 416.422;" xml:space="preserve">
<path style="fill:#26BBEC;" d="M204.8,150.184c11.312,0,20.48-9.168,20.48-20.48c0-11.312-9.168-20.48-20.48-20.48
	s-20.48,9.168-20.48,20.48C184.32,141.016,193.49,150.184,204.8,150.184z M152.783,96.991l-10.735-10.732l19.309-19.313
	l10.735,10.738c5.775-3.639,12.198-6.342,19.057-7.898V54.611h27.307v15.176c6.859,1.556,13.281,4.26,19.057,7.898l10.735-10.738
	l19.309,19.313l-10.735,10.732c3.639,5.775,6.342,12.199,7.898,19.06h15.174v27.307h-15.176c-1.556,6.854-4.26,13.278-7.898,19.053
	l10.735,10.738l-19.309,19.306l-10.735-10.732c-5.775,3.639-12.198,6.342-19.057,7.898v15.176h-27.307v-15.176
	c-6.859-1.556-13.281-4.26-19.057-7.898l-10.735,10.732l-19.309-19.306l10.735-10.738c-3.639-5.775-6.342-12.199-7.898-19.053
	h-15.176v-27.307h15.176C146.439,109.19,149.144,102.766,152.783,96.991z"/>
<path d="M218.454,211.624h-27.307c-3.773,0-6.827-3.057-6.827-6.827v-9.953c-3.826-1.2-7.533-2.739-11.093-4.599l-7.047,7.04
	c-2.666,2.661-6.987,2.664-9.653-0.003l-19.306-19.306c-2.666-2.666-2.666-6.987,0-9.653l7.04-7.043
	c-1.86-3.557-3.4-7.264-4.599-11.093h-9.955c-3.773,0-6.827-3.057-6.827-6.827v-27.308c0-3.77,3.053-6.827,6.827-6.827h9.953
	c1.2-3.833,2.739-7.54,4.599-11.1l-7.04-7.04c-2.666-2.666-2.666-6.987,0-9.653l19.308-19.311c2.666-2.666,6.987-2.666,9.653,0
	l7.047,7.043c3.56-1.864,7.267-3.4,11.093-4.599v-9.953c0-3.77,3.053-6.827,6.827-6.827h27.307c3.773,0,6.827,3.057,6.827,6.827
	v9.953c3.826,1.2,7.533,2.737,11.093,4.599l7.047-7.043c2.666-2.666,6.987-2.666,9.653,0l19.306,19.309
	c2.666,2.666,2.666,6.987,0,9.653l-7.04,7.04c1.86,3.56,3.4,7.267,4.599,11.1h9.955c3.773,0,6.827,3.057,6.827,6.827v27.307
	c0,3.77-3.053,6.827-6.827,6.827h-9.953c-1.2,3.83-2.739,7.537-4.599,11.093l7.04,7.043c2.666,2.668,2.666,6.987,0,9.653
	l-19.306,19.306c-2.666,2.666-6.987,2.664-9.653,0.003l-7.047-7.04c-3.56,1.86-7.267,3.4-11.093,4.599v9.957
	C225.28,208.567,222.227,211.624,218.454,211.624z M197.974,197.971h13.653v-8.351c0-3.186,2.207-5.953,5.313-6.656
	c6.007-1.364,11.699-3.724,16.927-7.016c2.686-1.696,6.207-1.307,8.467,0.947l5.914,5.907l9.653-9.653l-5.907-5.91
	c-2.253-2.253-2.647-5.77-0.947-8.467c3.287-5.221,5.647-10.914,7.02-16.93c0.707-3.106,3.466-5.309,6.653-5.309h8.349v-13.653
	h-8.347c-3.186,0-5.953-2.207-6.659-5.313c-1.367-6.016-3.727-11.713-7.013-16.934c-1.7-2.697-1.307-6.214,0.947-8.467l5.907-5.907
	l-9.653-9.656l-5.914,5.91c-2.26,2.253-5.78,2.65-8.467,0.951c-5.226-3.294-10.919-5.652-16.927-7.016
	c-3.106-0.703-5.313-3.47-5.313-6.656v-8.354h-13.653v8.351c0,3.186-2.207,5.953-5.313,6.656
	c-6.007,1.364-11.699,3.724-16.927,7.016c-2.686,1.7-6.207,1.311-8.467-0.951l-5.914-5.91l-9.653,9.656l5.907,5.907
	c2.253,2.253,2.647,5.77,0.947,8.467c-3.287,5.221-5.647,10.916-7.013,16.934c-0.707,3.106-3.473,5.313-6.659,5.313h-8.351v13.653
	h8.347c3.186,0,5.946,2.203,6.653,5.309c1.374,6.016,3.734,11.709,7.02,16.93c1.7,2.697,1.307,6.214-0.947,8.467l-5.907,5.91
	l9.653,9.653l5.914-5.907c2.26-2.253,5.78-2.644,8.467-0.947c5.226,3.294,10.919,5.652,16.927,7.016
	c3.106,0.703,5.313,3.47,5.313,6.656v8.354H197.974z M204.8,157.011c-15.06,0-27.307-12.25-27.307-27.307
	s12.247-27.307,27.307-27.307s27.307,12.25,27.307,27.307S219.862,157.011,204.8,157.011z M204.8,116.051
	c-7.526,0-13.653,6.124-13.653,13.653c0,7.53,6.127,13.653,13.653,13.653c7.526,0,13.653-6.124,13.653-13.653
	C218.454,122.174,212.329,116.051,204.8,116.051z"/>
<polygon style="fill:#9BFC1D;" points="409.6,279.891 334.507,277.058 334.507,225.277 289.437,275.354 245.76,273.707 
	245.76,225.277 203.606,272.117 157.014,270.359 157.014,225.277 117.774,268.878 68.267,267.01 68.267,225.277 6.827,293.544 
	68.267,361.811 68.267,320.078 117.774,318.21 157.014,361.811 157.014,316.729 203.606,314.97 245.76,361.811 245.76,313.381 
	289.437,311.732 334.507,361.811 334.507,310.03 409.6,307.197 "/>
<path d="M245.76,368.637c-1.9,0-3.753-0.794-5.074-2.26l-40.013-44.464L163.84,323.3v38.511c0,2.826-1.741,5.361-4.379,6.373
	c-2.654,1.017-5.627,0.29-7.52-1.807l-37.1-41.223l-39.748,1.497v35.161c0,2.826-1.741,5.361-4.379,6.373
	c-2.661,1.017-5.627,0.29-7.52-1.807l-61.44-68.267c-2.34-2.596-2.34-6.537,0-9.134l61.44-68.267
	c1.893-2.099,4.861-2.823,7.52-1.807c2.64,1.015,4.379,3.548,4.379,6.376v35.161l39.747,1.497l37.1-41.223
	c1.893-2.099,4.867-2.823,7.52-1.807c2.64,1.014,4.379,3.546,4.379,6.373v38.506l36.833,1.389l40.013-44.464
	c1.893-2.099,4.867-2.823,7.52-1.807c2.64,1.014,4.379,3.546,4.379,6.373v41.856l33.913,1.277l42.933-47.7
	c1.886-2.099,4.873-2.823,7.52-1.807c2.64,1.014,4.379,3.546,4.379,6.373v45.206l68.526,2.584c3.666,0.14,6.567,3.154,6.567,6.823
	v27.307c0,3.669-2.9,6.683-6.567,6.823l-68.521,2.587v45.208c0,2.826-1.741,5.361-4.379,6.373c-2.647,1.017-5.634,0.29-7.52-1.807
	l-42.933-47.703l-33.915,1.28v41.858c0,2.826-1.741,5.361-4.379,6.373C247.407,368.491,246.581,368.637,245.76,368.637z
	 M289.434,304.904c1.934,0,3.78,0.819,5.074,2.26l33.172,36.857v-33.99c0-3.669,2.9-6.683,6.567-6.823l68.526-2.584v-14.16
	l-68.526-2.584c-3.666-0.138-6.567-3.152-6.567-6.822v-33.99l-33.174,36.854c-1.353,1.507-3.22,2.319-5.333,2.256l-43.674-1.647
	c-3.666-0.14-6.567-3.154-6.567-6.823v-30.64l-30.254,33.616c-1.347,1.507-3.319,2.371-5.333,2.256l-46.594-1.76
	c-3.666-0.14-6.567-3.154-6.567-6.823v-27.29l-27.341,30.377c-1.347,1.504-3.26,2.347-5.333,2.256l-49.507-1.867
	c-3.661-0.14-6.562-3.154-6.562-6.823v-23.943l-45.426,50.476L61.44,344.02v-23.943c0-3.669,2.9-6.683,6.567-6.823l49.507-1.867
	c2.074-0.09,3.987,0.753,5.333,2.256l27.339,30.377v-27.293c0-3.669,2.9-6.683,6.567-6.823l46.594-1.756
	c2.014-0.036,3.987,0.753,5.333,2.256l30.252,33.616v-30.64c0-3.669,2.9-6.683,6.567-6.823l43.674-1.65
	C289.262,304.904,289.349,304.904,289.434,304.904z"/>
<g>
</g>
<g>
</g>
<g>
</g>
<g>
</g>
<g>
</g>
<g>
</g>
<g>
</g>
<g>
</g>
<g>
</g>
<g>
</g>
<g>
</g>
<g>
</g>
<g>
</g>
<g>
</g>
<g>
</g>
</svg>
