<?xml version="1.0" encoding="iso-8859-1"?>
<!-- Generator: Adobe Illustrator 19.0.0, SVG Export Plug-In . SVG Version: 6.00 Build 0)  -->
<svg version="1.1" id="Capa_1" xmlns="http://www.w3.org/2000/svg" xmlns:xlink="http://www.w3.org/1999/xlink" x="0px" y="0px"
	 viewBox="0 0 416.427 416.427" style="enable-background:new 0 0 416.427 416.427;" xml:space="preserve">
<path style="fill:#26BBEC;" d="M204.8,150.185c11.312,0,20.48-9.168,20.48-20.48s-9.168-20.48-20.48-20.48s-20.48,9.168-20.48,20.48
	S193.488,150.185,204.8,150.185z M152.781,96.992L142.046,86.26l19.309-19.313l10.735,10.738c5.775-3.639,12.198-6.342,19.057-7.898
	V54.612h27.307v15.176c6.859,1.556,13.281,4.26,19.057,7.898l10.735-10.738l19.309,19.313l-10.735,10.732
	c3.639,5.775,6.342,12.199,7.898,19.06h15.176v27.307h-15.176c-1.556,6.854-4.26,13.278-7.898,19.053l10.735,10.738l-19.309,19.306
	l-10.735-10.732c-5.775,3.639-12.198,6.342-19.057,7.898v15.176h-27.307v-15.176c-6.859-1.556-13.281-4.26-19.057-7.898
	l-10.735,10.732l-19.309-19.306l10.735-10.738c-3.639-5.775-6.342-12.199-7.898-19.053h-15.176v-27.307h15.176
	C146.439,109.191,149.142,102.767,152.781,96.992z"/>
<path d="M218.453,211.625h-27.307c-3.773,0-6.827-3.057-6.827-6.827v-9.953c-3.826-1.2-7.533-2.739-11.093-4.599l-7.047,7.04
	c-2.666,2.661-6.987,2.664-9.653-0.003l-19.306-19.306c-2.666-2.666-2.666-6.987,0-9.653l7.04-7.043
	c-1.86-3.557-3.4-7.264-4.599-11.093h-9.955c-3.773,0-6.827-3.057-6.827-6.827v-27.308c0-3.77,3.053-6.827,6.827-6.827h9.953
	c1.2-3.833,2.739-7.54,4.599-11.1l-7.04-7.04c-2.666-2.666-2.666-6.987,0-9.653l19.306-19.311c2.666-2.666,6.987-2.666,9.653,0
	l7.047,7.043c3.56-1.864,7.267-3.4,11.093-4.599v-9.953c0-3.77,3.053-6.827,6.827-6.827h27.307c3.773,0,6.827,3.057,6.827,6.827
	v9.953c3.826,1.2,7.533,2.737,11.093,4.599l7.047-7.043c2.666-2.666,6.987-2.666,9.653,0l19.306,19.309
	c2.666,2.666,2.666,6.987,0,9.653l-7.04,7.04c1.86,3.56,3.4,7.267,4.599,11.1h9.957c3.773,0,6.827,3.057,6.827,6.827v27.307
	c0,3.77-3.053,6.827-6.827,6.827h-9.953c-1.2,3.83-2.739,7.537-4.599,11.093l7.04,7.043c2.666,2.668,2.666,6.987,0,9.653
	l-19.306,19.306c-2.666,2.666-6.987,2.664-9.653,0.003l-7.047-7.04c-3.56,1.86-7.267,3.4-11.093,4.599v9.957
	C225.28,208.569,222.225,211.625,218.453,211.625z M197.973,197.972h13.653v-8.351c0-3.186,2.207-5.953,5.313-6.656
	c6.007-1.364,11.699-3.724,16.927-7.016c2.693-1.696,6.207-1.307,8.467,0.947l5.914,5.907l9.653-9.653l-5.907-5.91
	c-2.253-2.253-2.647-5.77-0.947-8.467c3.287-5.221,5.647-10.914,7.02-16.93c0.707-3.106,3.466-5.309,6.653-5.309h8.349V122.88
	h-8.347c-3.186,0-5.953-2.207-6.659-5.313c-1.367-6.016-3.727-11.713-7.013-16.934c-1.7-2.697-1.307-6.214,0.947-8.467l5.907-5.907
	l-9.653-9.656l-5.914,5.91c-2.26,2.253-5.774,2.65-8.467,0.951c-5.226-3.294-10.919-5.652-16.927-7.016
	c-3.106-0.703-5.313-3.47-5.313-6.656v-8.354h-13.653v8.351c0,3.186-2.207,5.953-5.313,6.656
	c-6.007,1.364-11.699,3.724-16.927,7.016c-2.693,1.7-6.207,1.311-8.467-0.951l-5.914-5.91l-9.653,9.656l5.907,5.907
	c2.253,2.253,2.647,5.77,0.947,8.467c-3.287,5.221-5.647,10.916-7.013,16.934c-0.707,3.106-3.473,5.313-6.659,5.313h-8.351v13.653
	h8.347c3.186,0,5.946,2.203,6.653,5.309c1.374,6.016,3.734,11.709,7.02,16.93c1.7,2.697,1.307,6.214-0.947,8.467l-5.907,5.91
	l9.653,9.653l5.914-5.907c2.26-2.253,5.774-2.644,8.467-0.947c5.226,3.294,10.919,5.652,16.927,7.016
	c3.106,0.703,5.313,3.47,5.313,6.656v8.354H197.973z M204.8,157.012c-15.06,0-27.307-12.25-27.307-27.307
	s12.247-27.307,27.307-27.307s27.307,12.25,27.307,27.307S219.86,157.012,204.8,157.012z M204.8,116.052
	c-7.526,0-13.653,6.124-13.653,13.653s6.127,13.653,13.653,13.653c7.526,0,13.653-6.124,13.653-13.653
	S212.326,116.052,204.8,116.052z"/>
<polygon style="fill:#9BFC1D;" points="409.6,293.545 348.16,225.279 348.16,267.012 298.653,268.879 259.413,225.279 
	259.413,270.36 212.821,272.118 170.667,225.279 170.667,273.709 126.99,275.356 81.92,225.279 81.92,277.059 6.827,279.892 
	6.827,307.199 81.92,310.032 81.92,361.812 126.99,311.733 170.667,313.382 170.667,361.812 212.821,314.971 259.413,316.73 
	259.413,361.812 298.653,318.212 348.16,320.079 348.16,361.812 "/>
<path d="M170.667,368.639c-0.819,0-1.647-0.147-2.447-0.454c-2.64-1.014-4.379-3.546-4.379-6.373v-41.856l-33.913-1.28
	l-42.933,47.703c-1.886,2.098-4.867,2.823-7.52,1.807c-2.642-1.016-4.381-3.548-4.381-6.374v-45.206l-68.526-2.584
	C2.9,313.882,0,310.868,0,307.199v-27.307c0-3.669,2.9-6.683,6.567-6.823l68.526-2.584v-45.206c0-2.826,1.741-5.361,4.379-6.373
	c2.654-1.017,5.634-0.294,7.52,1.807l42.933,47.7l33.915-1.278v-41.856c0-2.826,1.741-5.361,4.379-6.373
	c2.647-1.017,5.634-0.294,7.52,1.807l40.013,44.464l36.835-1.393v-38.506c0-2.826,1.741-5.361,4.379-6.373
	c2.654-1.017,5.627-0.294,7.52,1.807l37.1,41.223l39.748-1.498v-35.159c0-2.826,1.741-5.361,4.379-6.373
	c2.654-1.017,5.634-0.294,7.52,1.807l61.44,68.267c2.34,2.596,2.34,6.537,0,9.134l-61.44,68.267
	c-1.886,2.098-4.867,2.823-7.52,1.807c-2.64-1.017-4.379-3.55-4.379-6.376v-35.161l-39.747-1.497l-37.1,41.223
	c-1.893,2.097-4.867,2.823-7.52,1.807c-2.642-1.014-4.381-3.546-4.381-6.373v-38.509l-36.833-1.386l-40.013,44.464
	C174.42,367.845,172.566,368.639,170.667,368.639z M13.653,300.624l68.526,2.584c3.666,0.14,6.567,3.152,6.567,6.823v33.99
	l33.174-36.857c1.353-1.504,3.347-2.316,5.333-2.256l43.674,1.65c3.666,0.14,6.567,3.154,6.567,6.823v30.64l30.254-33.616
	c1.353-1.504,3.294-2.294,5.333-2.256l46.594,1.756c3.666,0.14,6.567,3.154,6.567,6.823v27.293l27.341-30.377
	c1.353-1.504,3.386-2.347,5.333-2.256l49.507,1.867c3.666,0.14,6.567,3.154,6.567,6.823v23.943l45.421-50.476l-45.426-50.476v23.943
	c0,3.669-2.9,6.683-6.567,6.823l-49.507,1.867c-1.947,0.09-3.98-0.753-5.333-2.256l-27.339-30.377v27.29
	c0,3.669-2.9,6.683-6.567,6.823l-46.594,1.76c-2.039,0.113-3.98-0.749-5.333-2.256l-30.252-33.616v30.64
	c0,3.669-2.9,6.683-6.567,6.823l-43.674,1.647c-1.987,0.063-3.98-0.749-5.333-2.256l-33.172-36.854v33.99
	c0,3.669-2.9,6.683-6.567,6.823l-68.526,2.582V300.624z"/>
<g>
</g>
<g>
</g>
<g>
</g>
<g>
</g>
<g>
</g>
<g>
</g>
<g>
</g>
<g>
</g>
<g>
</g>
<g>
</g>
<g>
</g>
<g>
</g>
<g>
</g>
<g>
</g>
<g>
</g>
</svg>
