<?xml version="1.0" encoding="iso-8859-1"?>
<!-- Generator: Adobe Illustrator 19.0.0, SVG Export Plug-In . SVG Version: 6.00 Build 0)  -->
<svg version="1.1" id="Capa_1" xmlns="http://www.w3.org/2000/svg" xmlns:xlink="http://www.w3.org/1999/xlink" x="0px" y="0px"
	 viewBox="0 0 416.427 416.427" style="enable-background:new 0 0 416.427 416.427;" xml:space="preserve">
<path style="fill:#26BBEC;" d="M293.547,232.107c11.312,0,20.48-9.168,20.48-20.48s-9.168-20.48-20.48-20.48
	s-20.48,9.168-20.48,20.48S282.235,232.107,293.547,232.107z M241.528,178.915l-10.735-10.732l19.309-19.313l10.735,10.738
	c5.775-3.639,12.198-6.342,19.057-7.898v-15.177H307.2v15.176c6.859,1.556,13.281,4.26,19.057,7.898l10.735-10.738l19.309,19.313
	l-10.735,10.732c3.639,5.775,6.342,12.199,7.898,19.06h15.176v27.307h-15.176c-1.556,6.854-4.26,13.278-7.898,19.053l10.735,10.738
	l-19.309,19.306l-10.735-10.732c-5.775,3.639-12.198,6.342-19.057,7.898v15.176h-27.307v-15.176
	c-6.859-1.556-13.281-4.26-19.057-7.898l-10.735,10.732l-19.309-19.306l10.735-10.738c-3.639-5.775-6.342-12.199-7.898-19.053
	h-15.176v-27.307h15.176C235.186,191.113,237.889,184.691,241.528,178.915z"/>
<path d="M307.2,293.547h-27.307c-3.773,0-6.827-3.057-6.827-6.827v-9.953c-3.826-1.2-7.533-2.739-11.093-4.599l-7.047,7.04
	c-2.666,2.661-6.987,2.664-9.653-0.003l-19.306-19.306c-2.666-2.666-2.666-6.987,0-9.653l7.04-7.043
	c-1.86-3.557-3.4-7.264-4.599-11.093h-9.955c-3.773,0-6.827-3.057-6.827-6.827v-27.307c0-3.77,3.053-6.827,6.827-6.827h9.953
	c1.2-3.833,2.739-7.54,4.599-11.1l-7.04-7.04c-2.666-2.666-2.666-6.987,0-9.653l19.306-19.309c2.666-2.666,6.987-2.666,9.653,0
	l7.047,7.043c3.56-1.864,7.267-3.4,11.093-4.599v-9.957c0-3.77,3.053-6.827,6.827-6.827h27.307c3.773,0,6.827,3.057,6.827,6.827
	v9.953c3.826,1.2,7.533,2.737,11.093,4.599l7.047-7.043c2.666-2.666,6.987-2.666,9.653,0l19.306,19.309
	c2.666,2.666,2.666,6.987,0,9.653l-7.04,7.04c1.86,3.56,3.4,7.267,4.599,11.1h9.957c3.773,0,6.827,3.057,6.827,6.827v27.307
	c0,3.77-3.053,6.827-6.827,6.827h-9.953c-1.2,3.83-2.739,7.537-4.599,11.093l7.04,7.043c2.666,2.666,2.666,6.987,0,9.653
	l-19.306,19.306c-2.666,2.666-6.987,2.664-9.653,0.003l-7.047-7.04c-3.56,1.86-7.267,3.4-11.093,4.599v9.957
	C314.027,290.49,310.974,293.547,307.2,293.547z M286.72,279.894h13.653v-8.351c0-3.186,2.207-5.953,5.313-6.656
	c6.007-1.364,11.699-3.724,16.927-7.016c2.693-1.7,6.207-1.307,8.467,0.947l5.914,5.907l9.653-9.653l-5.907-5.91
	c-2.253-2.253-2.647-5.77-0.947-8.467c3.287-5.221,5.647-10.914,7.02-16.93c0.707-3.106,3.466-5.309,6.653-5.309h8.349v-13.653
	h-8.347c-3.186,0-5.953-2.207-6.659-5.313c-1.367-6.016-3.727-11.713-7.013-16.934c-1.7-2.697-1.307-6.214,0.947-8.467l5.907-5.907
	l-9.653-9.656l-5.914,5.91c-2.26,2.256-5.774,2.65-8.467,0.951c-5.226-3.294-10.919-5.652-16.927-7.016
	c-3.106-0.703-5.313-3.47-5.313-6.656v-8.354h-13.653v8.351c0,3.186-2.207,5.953-5.313,6.656
	c-6.007,1.364-11.699,3.724-16.927,7.016c-2.7,1.7-6.207,1.314-8.467-0.951l-5.914-5.91l-9.653,9.656l5.907,5.907
	c2.253,2.253,2.647,5.77,0.947,8.467c-3.287,5.221-5.647,10.916-7.013,16.934c-0.707,3.106-3.473,5.313-6.659,5.313h-8.351v13.653
	h8.347c3.186,0,5.946,2.203,6.653,5.309c1.374,6.016,3.734,11.709,7.02,16.93c1.7,2.697,1.307,6.214-0.947,8.467l-5.907,5.91
	l9.653,9.653l5.914-5.907c2.26-2.253,5.767-2.647,8.467-0.947c5.226,3.294,10.919,5.652,16.927,7.016
	c3.106,0.703,5.313,3.47,5.313,6.656v8.354H286.72z M293.547,238.934c-15.06,0-27.307-12.25-27.307-27.307
	c0-15.056,12.247-27.307,27.307-27.307s27.307,12.25,27.307,27.307C320.853,226.683,308.606,238.934,293.547,238.934z
	 M293.547,197.974c-7.526,0-13.653,6.124-13.653,13.653c0,7.53,6.127,13.653,13.653,13.653s13.653-6.124,13.653-13.653
	C307.2,204.097,301.073,197.974,293.547,197.974z"/>
<polygon style="fill:#9BFC1D;" points="184.32,157.014 140.72,117.774 142.587,68.267 184.32,68.267 116.053,6.827 47.787,68.267 
	89.52,68.267 91.387,117.774 47.787,157.014 92.868,157.014 94.626,203.604 47.787,245.76 96.219,245.76 97.866,289.437 
	47.787,334.507 99.567,334.507 102.4,409.6 129.707,409.6 132.54,334.507 184.32,334.507 134.241,289.437 135.89,245.76 
	184.32,245.76 137.481,203.604 139.239,157.014 "/>
<path d="M129.707,416.427H102.4c-3.673,0-6.687-2.903-6.82-6.571l-2.587-68.523H47.787c-2.826,0-5.361-1.742-6.373-4.379
	c-1.014-2.64-0.294-5.63,1.807-7.52l47.706-42.933l-1.282-33.915H47.787c-2.826,0-5.361-1.742-6.373-4.379
	c-1.014-2.64-0.294-5.63,1.807-7.52l44.467-40.02l-1.394-36.828H47.787c-2.826,0-5.361-1.743-6.373-4.379
	c-1.014-2.64-0.294-5.63,1.807-7.52l41.226-37.103l-1.5-39.745H47.787c-2.826,0-5.361-1.743-6.373-4.379
	c-1.014-2.64-0.294-5.63,1.807-7.52l68.267-61.44c2.599-2.34,6.533-2.34,9.134,0l68.267,61.44c2.099,1.889,2.819,4.879,1.807,7.52
	c-1.015,2.637-3.55,4.379-6.376,4.379h-35.161l-1.5,39.743l41.226,37.103c2.099,1.889,2.819,4.879,1.807,7.52
	c-1.012,2.639-3.546,4.381-6.373,4.381h-38.506l-1.393,36.826l44.467,40.02c2.099,1.889,2.819,4.879,1.807,7.52
	c-1.015,2.638-3.55,4.381-6.376,4.381h-41.859l-1.28,33.913l47.706,42.933c2.099,1.889,2.819,4.879,1.807,7.52
	c-1.014,2.638-3.548,4.381-6.374,4.381h-45.206l-2.587,68.523C136.393,413.524,133.38,416.427,129.707,416.427z M108.974,402.774
	h14.16l2.587-68.523c0.133-3.666,3.147-6.571,6.82-6.571h33.987l-36.854-33.171c-1.507-1.353-2.333-3.308-2.253-5.33l1.647-43.677
	c0.133-3.666,3.147-6.571,6.82-6.571h30.647l-33.62-30.258c-1.507-1.353-2.333-3.308-2.253-5.33l1.76-46.59
	c0.14-3.669,3.154-6.571,6.82-6.571h27.293l-30.38-27.341c-1.507-1.353-2.333-3.308-2.253-5.33l1.867-49.507
	c0.133-3.666,3.147-6.571,6.82-6.571h23.946l-50.481-45.425l-50.48,45.43H89.52c3.673,0,6.687,2.903,6.82,6.571l1.867,49.507
	c0.08,2.024-0.748,3.977-2.253,5.33l-30.38,27.339h27.293c3.666,0,6.68,2.9,6.82,6.571l1.76,46.59
	c0.08,2.024-0.748,3.977-2.253,5.33l-33.62,30.256H96.22c3.673,0,6.687,2.903,6.82,6.571l1.647,43.677
	c0.08,2.024-0.748,3.977-2.253,5.33L65.58,327.68h33.987c3.673,0,6.687,2.903,6.82,6.571L108.974,402.774z"/>
<g>
</g>
<g>
</g>
<g>
</g>
<g>
</g>
<g>
</g>
<g>
</g>
<g>
</g>
<g>
</g>
<g>
</g>
<g>
</g>
<g>
</g>
<g>
</g>
<g>
</g>
<g>
</g>
<g>
</g>
</svg>
