<?xml version="1.0" encoding="iso-8859-1"?>
<!-- Generator: Adobe Illustrator 19.0.0, SVG Export Plug-In . SVG Version: 6.00 Build 0)  -->
<svg version="1.1" id="Capa_1" xmlns="http://www.w3.org/2000/svg" xmlns:xlink="http://www.w3.org/1999/xlink" x="0px" y="0px"
	 viewBox="0 0 416.427 416.427" style="enable-background:new 0 0 416.427 416.427;" xml:space="preserve">
<path style="fill:#26BBEC;" d="M293.548,232.107c11.312,0,20.48-9.168,20.48-20.48s-9.168-20.48-20.48-20.48
	s-20.48,9.168-20.48,20.48S282.236,232.107,293.548,232.107z M241.53,178.913l-10.735-10.732l19.308-19.313l10.735,10.738
	c5.775-3.639,12.198-6.342,19.057-7.898v-15.176h27.307v15.176c6.859,1.556,13.281,4.26,19.057,7.898l10.735-10.738l19.308,19.313
	l-10.735,10.732c3.639,5.775,6.344,12.199,7.898,19.06h15.177v27.307h-15.176c-1.556,6.854-4.26,13.278-7.898,19.053l10.735,10.738
	l-19.308,19.306l-10.735-10.732c-5.775,3.639-12.198,6.342-19.057,7.898v15.176h-27.307v-15.176
	c-6.859-1.556-13.281-4.26-19.057-7.898l-10.735,10.732l-19.308-19.306l10.735-10.738c-3.639-5.775-6.344-12.199-7.898-19.053
	h-15.179v-27.307h15.176C235.187,191.113,237.89,184.689,241.53,178.913z"/>
<path d="M307.201,293.547h-27.307c-3.773,0-6.827-3.057-6.827-6.827v-9.953c-3.826-1.2-7.533-2.739-11.093-4.599l-7.047,7.04
	c-2.666,2.661-6.987,2.664-9.653-0.003l-19.306-19.306c-2.666-2.666-2.666-6.987,0-9.653l7.04-7.043
	c-1.86-3.557-3.4-7.264-4.599-11.093h-9.955c-3.773,0-6.827-3.057-6.827-6.827v-27.307c0-3.77,3.053-6.827,6.827-6.827h9.953
	c1.2-3.833,2.739-7.54,4.599-11.1l-7.04-7.04c-2.666-2.666-2.666-6.987,0-9.653l19.306-19.309c2.666-2.666,6.987-2.666,9.653,0
	l7.047,7.043c3.56-1.864,7.267-3.4,11.093-4.599v-9.957c0-3.77,3.053-6.827,6.827-6.827h27.307c3.773,0,6.827,3.057,6.827,6.827
	v9.953c3.826,1.2,7.533,2.737,11.093,4.599l7.047-7.043c2.666-2.666,6.987-2.666,9.653,0l19.306,19.309
	c2.666,2.666,2.666,6.987,0,9.653l-7.04,7.04c1.86,3.56,3.4,7.267,4.599,11.1h9.957c3.773,0,6.827,3.057,6.827,6.827v27.307
	c0,3.77-3.053,6.827-6.827,6.827h-9.953c-1.2,3.83-2.739,7.537-4.599,11.093l7.04,7.043c2.666,2.666,2.666,6.987,0,9.653
	L341.823,279.2c-2.666,2.666-6.987,2.664-9.653,0.003l-7.047-7.04c-3.56,1.86-7.267,3.4-11.093,4.599v9.957
	C314.028,290.49,310.975,293.547,307.201,293.547z M286.721,279.893h13.653v-8.351c0-3.186,2.207-5.953,5.313-6.656
	c6.007-1.364,11.699-3.724,16.927-7.016c2.693-1.7,6.207-1.307,8.467,0.947l5.914,5.907l9.653-9.653l-5.907-5.91
	c-2.253-2.253-2.647-5.77-0.947-8.467c3.287-5.221,5.647-10.914,7.02-16.93c0.707-3.106,3.466-5.309,6.653-5.309h8.349v-13.653
	h-8.347c-3.186,0-5.953-2.207-6.659-5.313c-1.367-6.016-3.727-11.713-7.013-16.934c-1.7-2.697-1.307-6.214,0.947-8.467l5.907-5.907
	l-9.653-9.656l-5.914,5.91c-2.26,2.256-5.774,2.65-8.467,0.951c-5.226-3.294-10.919-5.652-16.927-7.016
	c-3.106-0.703-5.313-3.47-5.313-6.656v-8.354h-13.653v8.351c0,3.186-2.207,5.953-5.313,6.656
	c-6.007,1.364-11.699,3.724-16.927,7.016c-2.693,1.7-6.207,1.314-8.467-0.951l-5.914-5.91l-9.653,9.656l5.907,5.907
	c2.253,2.253,2.647,5.77,0.947,8.467c-3.287,5.221-5.647,10.916-7.013,16.934c-0.707,3.106-3.473,5.313-6.659,5.313h-8.351v13.653
	h8.347c3.186,0,5.946,2.203,6.653,5.309c1.374,6.016,3.734,11.709,7.02,16.93c1.7,2.697,1.307,6.214-0.947,8.467l-5.907,5.91
	l9.653,9.653l5.914-5.907c2.26-2.253,5.774-2.647,8.467-0.947c5.226,3.294,10.919,5.652,16.927,7.016
	c3.106,0.703,5.313,3.47,5.313,6.656v8.354H286.721z M293.548,238.933c-15.06,0-27.307-12.25-27.307-27.307
	c0-15.056,12.247-27.307,27.307-27.307s27.307,12.25,27.307,27.307C320.854,226.683,308.607,238.933,293.548,238.933z
	 M293.548,197.973c-7.526,0-13.653,6.124-13.653,13.653c0,7.53,6.127,13.653,13.653,13.653c7.526,0,13.653-6.124,13.653-13.653
	C307.201,204.097,301.074,197.973,293.548,197.973z"/>
<polygon style="fill:#9BFC1D;" points="184.321,170.667 135.891,170.667 134.242,126.99 184.321,81.92 132.541,81.92 129.708,6.827 
	102.401,6.827 99.568,81.92 47.788,81.92 97.866,126.99 96.22,170.667 47.788,170.667 94.627,212.823 92.869,259.413 
	47.788,259.413 91.388,298.653 89.521,348.16 47.788,348.16 116.054,409.6 184.321,348.16 142.588,348.16 140.721,298.653 
	184.321,259.413 139.239,259.413 137.482,212.823 "/>
<path d="M116.054,416.427c-1.633,0-3.267-0.584-4.567-1.753l-68.267-61.44c-2.099-1.889-2.819-4.879-1.807-7.52
	c1.014-2.638,3.548-4.381,6.374-4.381h35.161l1.5-39.743l-41.226-37.103c-2.099-1.889-2.819-4.879-1.807-7.52
	c1.012-2.638,3.546-4.381,6.373-4.381h38.506l1.393-36.826l-44.467-40.02c-2.099-1.889-2.819-4.879-1.807-7.52
	c1.015-2.638,3.55-4.381,6.376-4.381h41.859l1.28-33.913L43.221,86.994c-2.099-1.889-2.819-4.879-1.807-7.52
	c1.014-2.639,3.548-4.381,6.374-4.381h45.206l2.587-68.523C95.714,2.903,98.728,0,102.401,0h27.307c3.673,0,6.687,2.903,6.82,6.571
	l2.587,68.523h45.206c2.826,0,5.361,1.743,6.373,4.379c1.014,2.64,0.294,5.63-1.807,7.52l-47.706,42.933l1.28,33.913h41.861
	c2.826,0,5.361,1.743,6.373,4.379c1.014,2.64,0.294,5.63-1.807,7.52l-44.467,40.02l1.396,36.83h38.506
	c2.826,0,5.361,1.743,6.373,4.379c1.014,2.64,0.294,5.63-1.807,7.52l-41.226,37.103l1.5,39.745h35.161
	c2.826,0,5.361,1.742,6.373,4.379c1.014,2.64,0.294,5.63-1.807,7.52l-68.267,61.44C119.321,415.843,117.688,416.427,116.054,416.427
	z M65.575,354.987l50.48,45.43l50.48-45.43h-23.946c-3.673,0-6.687-2.903-6.82-6.571l-1.867-49.507
	c-0.08-2.024,0.748-3.977,2.253-5.33l30.38-27.339h-27.293c-3.666,0-6.68-2.9-6.82-6.571l-1.76-46.59
	c-0.08-2.024,0.748-3.977,2.253-5.33l33.62-30.256h-30.647c-3.673,0-6.687-2.903-6.82-6.571l-1.647-43.677
	c-0.08-2.024,0.748-3.977,2.253-5.33l36.854-33.169h-33.987c-3.673,0-6.687-2.903-6.82-6.571l-2.587-68.523h-14.16l-2.587,68.523
	c-0.131,3.668-3.145,6.571-6.818,6.571H65.581l36.854,33.171c1.507,1.353,2.333,3.308,2.253,5.33l-1.647,43.677
	c-0.133,3.666-3.147,6.571-6.82,6.571H65.575l33.62,30.258c1.507,1.353,2.333,3.308,2.253,5.33l-1.76,46.587
	c-0.14,3.669-3.154,6.571-6.82,6.571H65.575l30.38,27.341c1.507,1.353,2.333,3.308,2.253,5.33l-1.867,49.507
	c-0.133,3.666-3.147,6.571-6.82,6.571H65.575V354.987z"/>
<g>
</g>
<g>
</g>
<g>
</g>
<g>
</g>
<g>
</g>
<g>
</g>
<g>
</g>
<g>
</g>
<g>
</g>
<g>
</g>
<g>
</g>
<g>
</g>
<g>
</g>
<g>
</g>
<g>
</g>
</svg>
