<?xml version="1.0" encoding="iso-8859-1"?>
<!-- Generator: Adobe Illustrator 19.0.0, SVG Export Plug-In . SVG Version: 6.00 Build 0)  -->
<svg version="1.1" id="Capa_1" xmlns="http://www.w3.org/2000/svg" xmlns:xlink="http://www.w3.org/1999/xlink" x="0px" y="0px"
	 viewBox="0 0 402.773 402.773" style="enable-background:new 0 0 402.773 402.773;" xml:space="preserve">
<rect x="6.827" y="180.906" style="fill:#EE5281;" width="232.107" height="40.96"/>
<path d="M238.933,228.693H6.827c-3.773,0-6.827-3.057-6.827-6.827v-40.96c0-3.77,3.053-6.827,6.827-6.827h232.107
	c3.773,0,6.827,3.057,6.827,6.827v40.96C245.76,225.637,242.707,228.693,238.933,228.693z M13.653,215.04h218.453v-27.307H13.653
	V215.04z"/>
<polygon style="fill:#FCAD3A;" points="395.947,201.386 204.8,310.613 204.8,92.16 "/>
<path d="M204.8,317.44c-1.186,0-2.367-0.309-3.427-0.922c-2.106-1.222-3.4-3.471-3.4-5.905V92.16c0-2.434,1.294-4.683,3.4-5.905
	c2.099-1.217,4.7-1.232,6.813-0.022l191.147,109.227c2.126,1.215,3.441,3.476,3.441,5.927c0,2.451-1.314,4.712-3.441,5.927
	L208.186,316.54C207.14,317.139,205.967,317.44,204.8,317.44z M211.627,103.922v194.927l170.561-97.463L211.627,103.922z"/>
<polygon style="fill:#EE5281;" points="334.507,201.386 238.933,256 238.933,146.773 "/>
<path d="M238.933,262.826c-1.186,0-2.367-0.309-3.427-0.922c-2.106-1.222-3.4-3.471-3.4-5.905V146.773
	c0-2.434,1.294-4.683,3.4-5.905c2.099-1.215,4.7-1.232,6.813-0.022l95.573,54.613c2.126,1.215,3.441,3.476,3.441,5.927
	c0,2.451-1.314,4.712-3.441,5.927l-95.573,54.613C241.273,262.526,240.101,262.826,238.933,262.826z M245.76,158.535v85.7
	l74.988-42.849L245.76,158.535z"/>
<g>
</g>
<g>
</g>
<g>
</g>
<g>
</g>
<g>
</g>
<g>
</g>
<g>
</g>
<g>
</g>
<g>
</g>
<g>
</g>
<g>
</g>
<g>
</g>
<g>
</g>
<g>
</g>
<g>
</g>
</svg>
