<?xml version="1.0" encoding="iso-8859-1"?>
<!-- Generator: Adobe Illustrator 19.0.0, SVG Export Plug-In . SVG Version: 6.00 Build 0)  -->
<svg version="1.1" id="Capa_1" xmlns="http://www.w3.org/2000/svg" xmlns:xlink="http://www.w3.org/1999/xlink" x="0px" y="0px"
	 viewBox="0 0 436.907 436.907" style="enable-background:new 0 0 436.907 436.907;" xml:space="preserve">
<path style="fill:#EE5281;" d="M307.204,218.453c0-49.015-39.733-88.747-88.747-88.747s-88.747,39.731-88.747,88.747
	c0,49.009,39.733,88.747,88.747,88.747S307.204,267.462,307.204,218.453z M334.511,218.453c0,64.096-51.959,116.053-116.053,116.053
	s-116.053-51.958-116.053-116.053S154.363,102.4,218.457,102.4S334.511,154.358,334.511,218.453z"/>
<path d="M218.457,341.333c-67.753,0-122.88-55.124-122.88-122.88s55.127-122.88,122.88-122.88s122.88,55.124,122.88,122.88
	S286.21,341.333,218.457,341.333z M218.457,109.227c-60.227,0-109.227,49-109.227,109.227s49,109.227,109.227,109.227
	s109.227-49,109.227-109.227S278.684,109.227,218.457,109.227z M218.457,314.027c-52.7,0-95.573-42.873-95.573-95.573
	s42.873-95.573,95.573-95.573s95.573,42.873,95.573,95.573S271.157,314.027,218.457,314.027z M218.457,136.533
	c-45.174,0-81.92,36.75-81.92,81.92s36.746,81.92,81.92,81.92s81.92-36.75,81.92-81.92S263.631,136.533,218.457,136.533z"/>
<path style="fill:#EE5281;" d="M102.404,218.549v177.3c0,7.59,6.113,13.749,13.653,13.749c7.54,0,13.653-6.159,13.653-13.749v-177.3
	"/>
<path d="M116.057,416.427c-11.293,0-20.48-9.23-20.48-20.577V218.551c0-3.77,3.053-6.827,6.827-6.827s6.827,3.057,6.827,6.827v177.3
	c0,3.816,3.06,6.924,6.827,6.924c3.767,0,6.827-3.106,6.827-6.924v-177.3c0-3.77,3.053-6.827,6.827-6.827s6.827,3.057,6.827,6.827
	v177.3C136.537,407.197,127.35,416.427,116.057,416.427z"/>
<path style="fill:#EE5281;" d="M334.511,211.531V34.229c0-7.598-6.113-13.749-13.653-13.749c-7.54,0-13.653,6.153-13.653,13.749
	v177.3"/>
<path d="M334.511,218.356c-3.773,0-6.827-3.057-6.827-6.827V34.231c0-3.816-3.06-6.924-6.827-6.924
	c-3.767,0-6.827,3.106-6.827,6.924v177.3c0,3.77-3.053,6.827-6.827,6.827s-6.827-3.057-6.827-6.827v-177.3
	c0-11.346,9.187-20.577,20.48-20.577s20.48,9.23,20.48,20.577v177.3C341.337,215.299,338.284,218.356,334.511,218.356z"/>
<path style="fill:#288EEA;" d="M121.911,424.868c-3.239,6.914-8.46,6.984-11.73,0l-33.908-57.371
	c-3.239-6.907,0.456-12.51,8.122-12.51h63.304c7.724,0,11.392,5.535,8.122,12.51L121.911,424.868z"/>
<path d="M116.044,436.907h-0.007c-2.333,0-8.173-0.893-12.034-9.143L70.39,370.971c-2.84-5.98-2.714-11.57,0.046-15.91
	c2.787-4.383,7.873-6.9,13.961-6.9h63.3c6.113,0,11.213,2.507,13.993,6.876c2.746,4.323,2.86,9.919,0.307,15.36l-34.053,57.685
	C124.077,436.036,118.351,436.907,116.044,436.907z M117.418,423.634L117.418,423.634L117.418,423.634z M84.397,361.813
	c-1.667,0-2.353,0.457-2.441,0.57c-0.053,0.109-0.147,0.857,0.493,2.214l33.594,56.777l33.893-57.351
	c0.34-0.794,0.273-1.553,0.22-1.679c-0.087-0.094-0.8-0.531-2.459-0.531H84.397L84.397,361.813z"/>
<path style="fill:#288EEA;" d="M326.711,12.034c-3.239-6.907-8.46-6.977-11.73,0l-33.908,57.37
	c-3.239,6.914,0.456,12.518,8.12,12.518h63.304c7.724,0,11.392-5.535,8.122-12.518L326.711,12.034z"/>
<path d="M352.497,88.747h-63.3c-6.086,0-11.174-2.514-13.961-6.9c-2.76-4.337-2.886-9.929-0.346-15.34l34.22-57.946
	C312.664,0.894,318.504,0,320.837,0l0,0c2.313,0,8.033,0.87,11.901,8.817l33.76,57.114c2.854,6.019,2.739,11.621-0.007,15.944
	C363.71,86.24,358.61,88.747,352.497,88.747z M320.83,15.5l-33.881,57.376c-0.34,0.79-0.247,1.536-0.186,1.65
	c0.08,0.109,0.766,0.567,2.434,0.567h63.3c1.661,0,2.374-0.437,2.473-0.553c0.039-0.104,0.106-0.867-0.532-2.239l-33.606-56.793
	C320.83,15.503,320.83,15.503,320.83,15.5z"/>
<g>
</g>
<g>
</g>
<g>
</g>
<g>
</g>
<g>
</g>
<g>
</g>
<g>
</g>
<g>
</g>
<g>
</g>
<g>
</g>
<g>
</g>
<g>
</g>
<g>
</g>
<g>
</g>
<g>
</g>
</svg>
