<?xml version="1.0" encoding="iso-8859-1"?>
<!-- Generator: Adobe Illustrator 19.0.0, SVG Export Plug-In . SVG Version: 6.00 Build 0)  -->
<svg version="1.1" id="Capa_1" xmlns="http://www.w3.org/2000/svg" xmlns:xlink="http://www.w3.org/1999/xlink" x="0px" y="0px"
	 viewBox="0 0 436.909 436.909" style="enable-background:new 0 0 436.909 436.909;" xml:space="preserve">
<path style="fill:#26BBEC;" d="M218.455,395.948c-97.874,0-177.493-79.623-177.493-177.493h27.307
	c0,82.813,67.374,150.187,150.187,150.187c40.113,0,77.827-15.621,106.201-43.988l19.306,19.309
	C310.435,377.487,265.861,395.948,218.455,395.948z M395.948,218.455h-27.307c0-82.813-67.374-150.187-150.187-150.187
	c-40.113,0-77.827,15.623-106.201,43.989L92.948,92.948c33.526-33.526,78.1-51.987,125.507-51.987
	C316.328,40.961,395.948,120.584,395.948,218.455z"/>
<path d="M218.455,402.775c-101.634,0-184.32-82.685-184.32-184.32c0-3.77,3.053-6.827,6.827-6.827h27.307
	c3.773,0,6.827,3.057,6.827,6.827c0,79.048,64.314,143.36,143.36,143.36c38.287,0,74.286-14.911,101.373-41.991
	c2.666-2.664,6.987-2.666,9.653,0.002l19.306,19.309c2.666,2.666,2.666,6.989,0,9.653
	C313.975,383.604,267.689,402.775,218.455,402.775z M47.921,225.281c3.599,90.955,78.713,163.84,170.534,163.84
	c43.3,0,84.147-16.017,115.76-45.254l-9.66-9.663c-29.034,26.66-66.447,41.264-106.1,41.264
	c-84.287,0-153.279-66.765-156.867-150.187H47.921z M395.948,225.281h-27.307c-3.773,0-6.827-3.057-6.827-6.827
	c0-79.048-64.314-143.36-143.36-143.36c-38.287,0-74.286,14.913-101.373,41.991c-2.666,2.664-6.987,2.666-9.653-0.002L88.122,97.774
	c-2.666-2.666-2.666-6.989,0-9.653c34.813-34.814,81.099-53.987,130.333-53.987c101.634,0,184.32,82.685,184.32,184.32
	C402.775,222.225,399.721,225.281,395.948,225.281z M375.321,211.628h13.667c-3.601-90.955-78.713-163.84-170.534-163.84
	c-43.307,0-84.147,16.019-115.76,45.256l9.66,9.663c29.041-26.662,66.447-41.265,106.1-41.265
	C302.742,61.441,371.734,128.206,375.321,211.628z"/>
<polygon style="fill:#9BFC1D;" points="54.615,122.881 102.401,218.455 6.828,218.455 "/>
<path d="M102.401,225.281H6.828c-2.367,0-4.56-1.225-5.806-3.238s-1.36-4.524-0.3-6.642l47.787-95.573
	c2.319-4.623,9.894-4.623,12.213,0l47.787,95.573c1.06,2.116,0.947,4.63-0.3,6.642C106.961,224.056,104.768,225.281,102.401,225.281
	z M17.875,211.628h73.481l-36.741-73.482L17.875,211.628z"/>
<polygon style="fill:#9BFC1D;" points="382.295,314.028 334.508,218.455 430.081,218.455 "/>
<path d="M382.295,320.855c-2.587,0-4.946-1.461-6.106-3.773l-47.787-95.573c-1.06-2.116-0.947-4.63,0.3-6.642
	c1.246-2.014,3.441-3.238,5.806-3.238h95.573c2.367,0,4.56,1.225,5.806,3.238s1.36,4.524,0.3,6.642l-47.787,95.573
	C387.24,319.394,384.882,320.855,382.295,320.855z M345.555,225.281l36.739,73.482l36.739-73.482H345.555z"/>
<rect x="163.841" y="218.455" style="fill:#FEDA38;" width="109.227" height="81.92"/>
<path d="M273.068,307.201H163.841c-3.773,0-6.827-3.057-6.827-6.827v-81.92c0-3.77,3.053-6.827,6.827-6.827h109.227
	c3.773,0,6.827,3.057,6.827,6.827v81.92C279.895,304.145,276.841,307.201,273.068,307.201z M170.668,293.548h95.573v-68.267h-95.573
	V293.548z"/>
<rect x="204.801" y="259.415" style="fill:#9BFC1D;" width="27.307" height="40.96"/>
<path d="M232.108,307.201h-27.307c-3.773,0-6.827-3.057-6.827-6.827v-40.96c0-3.77,3.053-6.827,6.827-6.827h27.307
	c3.773,0,6.827,3.057,6.827,6.827v40.96C238.935,304.145,235.881,307.201,232.108,307.201z M211.628,293.548h13.653v-27.307h-13.653
	V293.548z"/>
<polygon style="fill:#EE5281;" points="218.455,136.535 307.201,218.455 129.708,218.455 "/>
<path d="M307.201,225.281H129.708c-2.813,0-5.333-1.724-6.361-4.34c-1.021-2.618-0.333-5.596,1.727-7.503l88.747-81.92
	c2.627-2.413,6.641-2.413,9.267,0l88.747,81.92c2.06,1.906,2.746,4.884,1.727,7.503
	C312.535,223.558,310.014,225.281,307.201,225.281z M147.167,211.628H289.74l-71.286-65.804L147.167,211.628z"/>
<g>
</g>
<g>
</g>
<g>
</g>
<g>
</g>
<g>
</g>
<g>
</g>
<g>
</g>
<g>
</g>
<g>
</g>
<g>
</g>
<g>
</g>
<g>
</g>
<g>
</g>
<g>
</g>
<g>
</g>
</svg>
