<?xml version="1.0" encoding="iso-8859-1"?>
<!-- Generator: Adobe Illustrator 19.0.0, SVG Export Plug-In . SVG Version: 6.00 Build 0)  -->
<svg version="1.1" id="Capa_1" xmlns="http://www.w3.org/2000/svg" xmlns:xlink="http://www.w3.org/1999/xlink" x="0px" y="0px"
	 viewBox="0 0 430.083 430.083" style="enable-background:new 0 0 430.083 430.083;" xml:space="preserve">
<path style="fill:#26BBEC;" d="M218.455,402.776c-24.433,0-48.174-4.707-70.554-13.99l10.453-25.223
	c38.106,15.8,82.094,15.8,120.201,0c19.094-7.921,36.233-19.386,50.927-34.082l19.306,19.309
	c-17.241,17.241-37.354,30.696-59.779,39.996C266.629,398.069,242.887,402.776,218.455,402.776z M88.122,348.791
	c-17.241-17.237-30.693-37.349-39.999-59.776c-9.281-22.397-13.988-46.136-13.988-70.559s4.707-48.16,13.986-70.554l25.226,10.457
	c-7.898,19.06-11.906,39.281-11.906,60.097c0,20.818,4.007,41.038,11.907,60.099c7.921,19.101,19.393,36.236,34.08,50.927
	L88.122,348.791z M388.788,289.011l-25.226-10.457c7.9-19.06,11.907-39.281,11.907-60.099c0-20.816-4.007-41.037-11.907-60.097
	c-7.921-19.101-19.393-36.236-34.08-50.927l19.306-19.309c17.241,17.237,30.693,37.349,40.001,59.776
	c9.281,22.397,13.986,46.133,13.986,70.557S398.068,266.618,388.788,289.011z M107.427,107.432L88.122,88.123
	c17.239-17.241,37.354-30.698,59.779-39.996c22.386-9.284,46.126-13.991,70.554-13.991s48.167,4.707,70.554,13.991L278.555,73.35
	c-38.12-15.804-82.08-15.804-120.201,0C139.262,81.271,122.122,92.738,107.427,107.432z"/>
<path d="M218.455,409.603c-25.341,0-49.954-4.881-73.167-14.512c-3.487-1.444-5.134-5.437-3.693-8.919l10.453-25.223
	c0.693-1.673,2.021-3.002,3.693-3.695c1.679-0.69,3.56-0.691,5.226,0.002c36.533,15.15,78.44,15.15,114.973,0
	c18.266-7.578,34.661-18.548,48.713-32.602c1.28-1.28,3.014-2,4.826-2l0,0c1.812,0,3.546,0.72,4.826,2l19.306,19.309
	c2.666,2.666,2.666,6.989,0,9.653c-17.874,17.877-38.733,31.831-61.993,41.475C268.409,404.722,243.795,409.603,218.455,409.603z
	 M156.868,384.974c19.666,7.287,40.354,10.976,61.587,10.976c23.533,0,46.394-4.531,67.941-13.469
	c19.494-8.084,37.18-19.434,52.647-33.782l-9.66-9.661c-14.186,13.076-30.374,23.431-48.213,30.829
	c-37.746,15.654-80.753,16.481-119.067,2.482L156.868,384.974z M88.122,355.618c-1.746,0-3.494-0.667-4.826-1.999
	c-17.867-17.865-31.828-38.721-41.481-61.988c-9.627-23.235-14.507-47.853-14.507-73.175s4.879-49.939,14.507-73.167
	c0.693-1.673,2.021-3.002,3.693-3.695c1.679-0.689,3.56-0.691,5.226,0.002l25.226,10.457c3.487,1.444,5.14,5.439,3.693,8.921
	c-7.552,18.229-11.385,37.569-11.385,57.482c0,19.915,3.833,39.255,11.387,57.486c7.574,18.258,18.54,34.649,32.601,48.713
	c2.666,2.666,2.666,6.989,0,9.653L92.95,353.617C91.615,354.95,89.867,355.618,88.122,355.618z M51.935,156.873
	c-7.287,19.68-10.974,40.363-10.974,61.583c0,23.518,4.533,46.379,13.467,67.946c8.093,19.502,19.441,37.183,33.78,52.646
	l9.667-9.663c-13.087-14.196-23.439-30.389-30.833-48.213c-8.248-19.896-12.428-40.998-12.428-62.715
	c0-19.417,3.34-38.34,9.946-56.351L51.935,156.873z M388.788,295.838c-0.887,0-1.78-0.174-2.613-0.521l-25.226-10.457
	c-3.487-1.444-5.14-5.439-3.693-8.921c7.554-18.231,11.387-37.571,11.387-57.486c0-19.913-3.833-39.253-11.387-57.484
	c-7.574-18.258-18.54-34.649-32.601-48.713c-2.666-2.666-2.666-6.989,0-9.653l19.306-19.309c2.666-2.666,6.987-2.666,9.653-0.002
	c17.867,17.865,31.826,38.721,41.48,61.988c9.627,23.235,14.507,47.853,14.507,73.173c0,25.324-4.879,49.94-14.507,73.168
	c-0.693,1.673-2.021,3.002-3.693,3.695C390.562,295.664,389.674,295.838,388.788,295.838z M372.348,274.807l12.626,5.233
	c7.287-19.68,10.974-40.363,10.974-61.585c0-23.518-4.533-46.377-13.467-67.944c-8.093-19.502-19.441-37.183-33.78-52.646
	l-9.667,9.663c13.087,14.196,23.439,30.389,30.833,48.213c8.247,19.895,12.426,40.996,12.426,62.711
	C382.295,237.875,378.955,256.798,372.348,274.807z M107.427,114.259c-1.812,0-3.546-0.72-4.826-2L83.295,92.95
	c-2.666-2.666-2.666-6.989,0-9.653c17.872-17.877,38.733-31.833,61.993-41.475c23.214-9.629,47.833-14.512,73.167-14.512
	s49.954,4.883,73.167,14.513c3.487,1.444,5.134,5.437,3.693,8.919l-10.453,25.223c-0.693,1.673-2.021,3.002-3.693,3.695
	c-1.679,0.689-3.56,0.691-5.226-0.002c-36.533-15.147-78.44-15.147-114.973,0c-18.266,7.578-34.661,18.548-48.713,32.602
	C110.975,113.539,109.242,114.259,107.427,114.259z M97.868,88.214l9.66,9.661c14.186-13.076,30.374-23.431,48.213-30.829
	c37.746-15.65,80.759-16.48,119.067-2.481l5.233-12.624c-19.673-7.287-40.359-10.977-61.587-10.977
	c-23.526,0-46.387,4.531-67.941,13.471C131.022,62.518,113.334,73.866,97.868,88.214z"/>
<polygon style="fill:#9BFC1D;" points="320.855,79.45 232.108,81.923 270.709,6.829 "/>
<path d="M232.108,88.749c-2.34,0-4.526-1.201-5.78-3.19c-1.28-2.041-1.393-4.611-0.294-6.758l38.6-75.093
	c1.101-2.133,3.234-3.535,5.634-3.69c2.386-0.177,4.693,0.959,6.06,2.934l50.147,72.62c1.42,2.06,1.601,4.733,0.466,6.965
	c-1.133,2.234-3.393,3.668-5.893,3.736l-88.747,2.473C232.234,88.748,232.168,88.749,232.108,88.749z M271.568,20.089
	l-28.114,54.688l64.633-1.802L271.568,20.089z"/>
<polygon style="fill:#9BFC1D;" points="348.161,314.029 350.295,225.283 423.255,267.792 "/>
<path d="M348.161,320.856c-1.174,0-2.347-0.302-3.4-0.906c-2.173-1.246-3.487-3.582-3.427-6.083l2.133-88.747
	c0.06-2.415,1.386-4.618,3.494-5.796c2.108-1.178,4.666-1.155,6.774,0.061l72.96,42.51c2.074,1.208,3.36,3.415,3.386,5.815
	c0.026,2.4-1.207,4.639-3.246,5.897l-75.093,46.237C350.641,320.518,349.402,320.856,348.161,320.856z M356.841,236.997
	l-1.553,64.626l54.687-33.671L356.841,236.997z"/>
<polygon style="fill:#9BFC1D;" points="109.228,357.896 191.148,348.163 161.561,423.256 "/>
<path d="M161.561,430.083c-2.053,0-4.019-0.928-5.327-2.56l-52.333-65.36c-1.553-1.935-1.934-4.559-0.993-6.854
	s3.053-3.9,5.513-4.192l81.92-9.733c2.427-0.288,4.753,0.708,6.214,2.609c1.466,1.901,1.826,4.436,0.947,6.67l-29.587,75.093
	c-0.893,2.266-2.927,3.884-5.333,4.248C162.242,430.057,161.901,430.083,161.561,430.083z M122.241,363.224l37.287,46.57
	l21.081-53.506L122.241,363.224z"/>
<polygon style="fill:#9BFC1D;" points="70.797,109.229 81.921,191.149 6.828,162.78 "/>
<path d="M81.921,197.976c-0.814,0-1.626-0.145-2.413-0.44L4.415,169.168c-2.266-0.858-3.913-2.855-4.32-5.245
	c-0.399-2.391,0.493-4.818,2.353-6.376l63.966-53.552c1.906-1.599,4.54-2.024,6.847-1.132c2.313,0.898,3.959,2.985,4.301,5.448
	l11.127,81.92c0.321,2.383-0.633,4.762-2.514,6.26C84.949,197.468,83.442,197.976,81.921,197.976z M20.162,160.522l53.453,20.193
	l-7.921-58.312L20.162,160.522z"/>
<g>
</g>
<g>
</g>
<g>
</g>
<g>
</g>
<g>
</g>
<g>
</g>
<g>
</g>
<g>
</g>
<g>
</g>
<g>
</g>
<g>
</g>
<g>
</g>
<g>
</g>
<g>
</g>
<g>
</g>
</svg>
