<?xml version="1.0" encoding="iso-8859-1"?>
<!-- Generator: Adobe Illustrator 19.0.0, SVG Export Plug-In . SVG Version: 6.00 Build 0)  -->
<svg version="1.1" id="Capa_1" xmlns="http://www.w3.org/2000/svg" xmlns:xlink="http://www.w3.org/1999/xlink" x="0px" y="0px"
	 viewBox="0 0 436.909 436.909" style="enable-background:new 0 0 436.909 436.909;" xml:space="preserve">
<path style="fill:#26BBEC;" d="M218.455,395.948c-97.874,0-177.493-79.623-177.493-177.493c0-7.54,6.113-13.653,13.653-13.653
	s13.653,6.113,13.653,13.653c0,82.813,67.374,150.187,150.187,150.187c40.113,0,77.827-15.621,106.201-43.988
	c5.333-5.33,13.974-5.332,19.306,0.002c5.333,5.332,5.333,13.976,0,19.308C310.435,377.487,265.861,395.948,218.455,395.948z
	 M382.295,232.108c-7.54,0-13.653-6.113-13.653-13.653c0-82.813-67.374-150.187-150.187-150.187
	c-40.113,0-77.827,15.623-106.201,43.989c-5.333,5.33-13.974,5.332-19.306-0.002c-5.333-5.332-5.333-13.976,0-19.308
	c33.526-33.526,78.1-51.987,125.507-51.987c97.874,0,177.493,79.623,177.493,177.493
	C395.948,225.995,389.835,232.108,382.295,232.108z"/>
<path d="M218.455,402.775c-101.634,0-184.32-82.685-184.32-184.32c0-11.293,9.187-20.48,20.48-20.48s20.48,9.187,20.48,20.48
	c0,79.048,64.314,143.36,143.36,143.36c38.287,0,74.286-14.911,101.373-41.991c7.987-7.986,20.973-7.975,28.96,0.003
	c3.867,3.867,6.001,9.01,6.001,14.481c0,5.47-2.133,10.614-6.001,14.481C313.975,383.604,267.689,402.775,218.455,402.775z
	 M54.615,211.628c-3.767,0-6.827,3.062-6.827,6.827c0,94.107,76.559,170.667,170.667,170.667c45.587,0,88.439-17.751,120.68-49.985
	c1.287-1.29,2-3.005,2-4.826c0-1.823-0.713-3.538-2-4.826c-2.666-2.664-6.987-2.662-9.653-0.002
	c-29.66,29.655-69.094,45.986-111.027,45.986c-86.579,0-157.013-70.436-157.013-157.013
	C61.441,214.69,58.381,211.628,54.615,211.628z M382.295,238.935c-11.293,0-20.48-9.187-20.48-20.48
	c0-79.048-64.314-143.36-143.36-143.36c-38.287,0-74.286,14.913-101.373,41.991c-7.994,7.985-20.98,7.975-28.96-0.003
	c-3.867-3.867-6.001-9.009-6.001-14.479c0-5.472,2.133-10.615,6.001-14.483c34.813-34.813,81.099-53.985,130.333-53.985
	c101.634,0,184.32,82.685,184.32,184.32C402.775,229.748,393.588,238.935,382.295,238.935z M218.455,61.441
	c86.579,0,157.013,70.436,157.013,157.013c0,3.765,3.06,6.827,6.827,6.827c3.767,0,6.827-3.062,6.827-6.827
	c0-94.107-76.559-170.667-170.667-170.667c-45.587,0-88.439,17.751-120.68,49.987c-1.287,1.29-2,3.005-2,4.828
	c0,1.821,0.713,3.536,2,4.825c2.666,2.664,6.987,2.662,9.653,0.002C137.094,77.774,176.522,61.441,218.455,61.441z"/>
<polygon style="fill:#9BFC1D;" points="54.615,122.881 102.401,218.455 6.828,218.455 "/>
<path d="M102.401,225.281H6.828c-2.367,0-4.56-1.225-5.806-3.238s-1.36-4.524-0.3-6.642l47.787-95.573
	c2.319-4.623,9.894-4.623,12.213,0l47.787,95.573c1.06,2.116,0.947,4.63-0.3,6.642C106.961,224.056,104.768,225.281,102.401,225.281
	z M17.875,211.628h73.481l-36.741-73.482L17.875,211.628z"/>
<polygon style="fill:#9BFC1D;" points="382.295,314.028 334.508,218.455 430.081,218.455 "/>
<path d="M382.295,320.855c-2.587,0-4.946-1.461-6.106-3.773l-47.787-95.573c-1.06-2.116-0.947-4.63,0.3-6.642
	c1.246-2.014,3.441-3.238,5.806-3.238h95.573c2.367,0,4.56,1.225,5.806,3.238s1.36,4.524,0.3,6.642l-47.787,95.573
	C387.24,319.394,384.882,320.855,382.295,320.855z M345.555,225.281l36.739,73.482l36.739-73.482H345.555z"/>
<g>
</g>
<g>
</g>
<g>
</g>
<g>
</g>
<g>
</g>
<g>
</g>
<g>
</g>
<g>
</g>
<g>
</g>
<g>
</g>
<g>
</g>
<g>
</g>
<g>
</g>
<g>
</g>
<g>
</g>
</svg>
