<?xml version="1.0" encoding="iso-8859-1"?>
<!-- Generator: Adobe Illustrator 19.0.0, SVG Export Plug-In . SVG Version: 6.00 Build 0)  -->
<svg version="1.1" id="Capa_1" xmlns="http://www.w3.org/2000/svg" xmlns:xlink="http://www.w3.org/1999/xlink" x="0px" y="0px"
	 viewBox="0 0 388.97 388.97" style="enable-background:new 0 0 388.97 388.97;" xml:space="preserve">
<rect x="68.192" y="156.87" style="fill:#EE5281;" width="40.96" height="157.013"/>
<path d="M109.152,320.703h-40.96c-3.773,0-6.827-3.057-6.827-6.827V156.863c0-3.77,3.053-6.827,6.827-6.827h40.96
	c3.773,0,6.827,3.057,6.827,6.827v157.013C115.978,317.647,112.925,320.703,109.152,320.703z M75.018,307.05h27.307V163.69H75.018
	V307.05z"/>
<polygon style="fill:#FEDA38;" points="88.672,382.143 150.112,300.223 27.232,300.223 "/>
<path d="M88.672,388.97c-2.147,0-4.173-1.01-5.46-2.731l-61.44-81.92c-1.553-2.07-1.801-4.837-0.647-7.149
	c1.161-2.313,3.519-3.773,6.106-3.773h122.88c2.587,0,4.946,1.459,6.106,3.773c1.154,2.313,0.906,5.081-0.647,7.149l-61.44,81.92
	C92.844,387.96,90.819,388.97,88.672,388.97z M40.885,307.05l47.787,63.717l47.787-63.717H40.885z"/>
<rect x="279.818" y="156.87" style="fill:#EE5281;" width="40.96" height="157.013"/>
<path d="M320.778,320.703h-40.96c-3.773,0-6.827-3.057-6.827-6.827V156.863c0-3.77,3.053-6.827,6.827-6.827h40.96
	c3.773,0,6.827,3.057,6.827,6.827v157.013C327.605,317.647,324.552,320.703,320.778,320.703z M286.645,307.05h27.307V163.69h-27.307
	V307.05z"/>
<polygon style="fill:#FEDA38;" points="300.298,382.143 361.738,300.223 238.858,300.223 "/>
<path d="M300.298,388.97c-2.147,0-4.173-1.01-5.46-2.731l-61.44-81.92c-1.553-2.07-1.801-4.837-0.647-7.149
	c1.161-2.313,3.519-3.773,6.106-3.773h122.88c2.587,0,4.946,1.459,6.106,3.773c1.154,2.313,0.906,5.081-0.647,7.149l-61.44,81.92
	C304.471,387.96,302.445,388.97,300.298,388.97z M252.512,307.05l47.787,63.717l47.787-63.717H252.512z"/>
<rect x="170.592" y="74.943" style="fill:#EE5281;" width="40.96" height="157.013"/>
<path d="M211.552,238.783h-40.96c-3.773,0-6.827-3.057-6.827-6.827V74.943c0-3.77,3.053-6.827,6.827-6.827h40.96
	c3.773,0,6.827,3.057,6.827,6.827v157.013C218.378,235.727,215.325,238.783,211.552,238.783z M177.418,225.13h27.307V81.77h-27.307
	V225.13z"/>
<polygon style="fill:#FEDA38;" points="191.072,6.676 252.512,88.596 129.632,88.596 "/>
<path d="M252.512,95.423h-122.88c-2.587,0-4.946-1.459-6.106-3.773c-1.154-2.313-0.906-5.081,0.647-7.149l61.44-81.92
	c2.574-3.441,8.347-3.441,10.919,0l61.44,81.92c1.553,2.07,1.801,4.837,0.647,7.149C257.457,93.964,255.099,95.423,252.512,95.423z
	 M143.285,81.77h95.573l-47.787-63.717L143.285,81.77z"/>
<g>
</g>
<g>
</g>
<g>
</g>
<g>
</g>
<g>
</g>
<g>
</g>
<g>
</g>
<g>
</g>
<g>
</g>
<g>
</g>
<g>
</g>
<g>
</g>
<g>
</g>
<g>
</g>
<g>
</g>
</svg>
