<?xml version="1.0" encoding="iso-8859-1"?>
<!-- Generator: Adobe Illustrator 19.0.0, SVG Export Plug-In . SVG Version: 6.00 Build 0)  -->
<svg version="1.1" id="Capa_1" xmlns="http://www.w3.org/2000/svg" xmlns:xlink="http://www.w3.org/1999/xlink" x="0px" y="0px"
	 viewBox="0 0 395.796 395.796" style="enable-background:new 0 0 395.796 395.796;" xml:space="preserve">
<rect x="71.605" y="74.943" style="fill:#26BBEC;" width="40.96" height="157.013"/>
<path d="M112.565,238.783h-40.96c-3.773,0-6.827-3.057-6.827-6.827V74.943c0-3.77,3.053-6.827,6.827-6.827h40.96
	c3.773,0,6.827,3.057,6.827,6.827v157.013C119.392,235.727,116.338,238.783,112.565,238.783z M78.432,225.13h27.307V81.77H78.432
	V225.13z"/>
<polygon style="fill:#288EEA;" points="92.088,6.676 153.525,88.596 30.645,88.596 "/>
<path d="M153.525,95.423H30.645c-2.587,0-4.946-1.459-6.106-3.773c-1.154-2.313-0.906-5.081,0.647-7.149l61.44-81.92
	c2.574-3.441,8.347-3.441,10.919,0l61.44,81.92c1.553,2.07,1.801,4.837,0.647,7.149C158.471,93.964,156.112,95.423,153.525,95.423z
	 M44.298,81.77h95.573L92.085,18.053L44.298,81.77z"/>
<rect x="283.232" y="74.943" style="fill:#26BBEC;" width="40.96" height="157.013"/>
<path d="M324.192,238.783h-40.96c-3.773,0-6.827-3.057-6.827-6.827V74.943c0-3.77,3.053-6.827,6.827-6.827h40.96
	c3.773,0,6.827,3.057,6.827,6.827v157.013C331.018,235.727,327.965,238.783,324.192,238.783z M290.058,225.13h27.307V81.77h-27.307
	V225.13z"/>
<polygon style="fill:#288EEA;" points="303.715,6.676 365.152,88.596 242.272,88.596 "/>
<path d="M365.152,95.423h-122.88c-2.587,0-4.946-1.459-6.106-3.773c-1.154-2.313-0.906-5.081,0.647-7.149l61.44-81.92
	c2.574-3.441,8.347-3.441,10.919,0l61.44,81.92c1.553,2.07,1.801,4.837,0.647,7.149C370.098,93.964,367.739,95.423,365.152,95.423z
	 M255.925,81.77h95.573l-47.787-63.717L255.925,81.77z"/>
<rect x="174.005" y="231.963" style="fill:#26BBEC;" width="40.96" height="157.013"/>
<path d="M214.965,395.796h-40.96c-3.773,0-6.827-3.057-6.827-6.827V231.956c0-3.77,3.053-6.827,6.827-6.827h40.96
	c3.773,0,6.827,3.057,6.827,6.827V388.97C221.792,392.74,218.738,395.796,214.965,395.796z M180.832,382.143h27.307v-143.36h-27.307
	V382.143z"/>
<polygon style="fill:#288EEA;" points="194.488,163.69 255.925,245.61 133.045,245.61 "/>
<path d="M255.925,252.436h-122.88c-2.587,0-4.946-1.459-6.106-3.773c-1.154-2.313-0.906-5.081,0.647-7.149l61.44-81.92
	c2.574-3.441,8.347-3.441,10.919,0l61.44,81.92c1.553,2.07,1.801,4.837,0.647,7.149
	C260.871,250.977,258.512,252.436,255.925,252.436z M146.698,238.783h95.573l-47.787-63.717L146.698,238.783z"/>
<g>
</g>
<g>
</g>
<g>
</g>
<g>
</g>
<g>
</g>
<g>
</g>
<g>
</g>
<g>
</g>
<g>
</g>
<g>
</g>
<g>
</g>
<g>
</g>
<g>
</g>
<g>
</g>
<g>
</g>
</svg>
