<?xml version="1.0" encoding="iso-8859-1"?>
<!-- Generator: Adobe Illustrator 19.0.0, SVG Export Plug-In . SVG Version: 6.00 Build 0)  -->
<svg version="1.1" id="Capa_1" xmlns="http://www.w3.org/2000/svg" xmlns:xlink="http://www.w3.org/1999/xlink" x="0px" y="0px"
	 viewBox="0 0 395.948 395.948" style="enable-background:new 0 0 395.948 395.948;" xml:space="preserve">
<rect x="81.92" y="283.307" style="fill:#EE5281;" width="157.013" height="40.96"/>
<path d="M238.933,331.092H81.92c-3.773,0-6.827-3.057-6.827-6.827v-40.96c0-3.77,3.053-6.827,6.827-6.827h157.013
	c3.773,0,6.827,3.057,6.827,6.827v40.96C245.76,328.036,242.707,331.092,238.933,331.092z M88.747,317.439h143.36v-27.307H88.747
	V317.439z"/>
<polygon style="fill:#FEDA38;" points="6.827,303.784 88.747,242.346 88.747,365.226 "/>
<path d="M88.747,372.052c-1.454,0-2.893-0.463-4.093-1.367l-81.92-61.443C1.014,307.955,0,305.933,0,303.782s1.014-4.173,2.734-5.46
	l81.92-61.437c2.067-1.55,4.84-1.801,7.148-0.647c2.313,1.157,3.773,3.519,3.773,6.106v122.88c0,2.587-1.459,4.949-3.773,6.106
	C90.834,371.817,89.786,372.052,88.747,372.052z M18.207,303.784l63.713,47.788v-95.573L18.207,303.784z"/>
<rect x="81.92" y="71.679" style="fill:#EE5281;" width="157.013" height="40.96"/>
<path d="M238.933,119.466H81.92c-3.773,0-6.827-3.057-6.827-6.827v-40.96c0-3.77,3.053-6.827,6.827-6.827h157.013
	c3.773,0,6.827,3.057,6.827,6.827v40.96C245.76,116.409,242.707,119.466,238.933,119.466z M88.747,105.812h143.36V78.506H88.747
	V105.812z"/>
<polygon style="fill:#FEDA38;" points="6.827,92.157 88.747,30.719 88.747,153.599 "/>
<path d="M88.747,160.426c-1.454,0-2.893-0.463-4.093-1.367L2.734,97.615C1.014,96.33,0,94.306,0,92.157s1.014-4.173,2.734-5.46
	l81.92-61.437c2.067-1.55,4.84-1.801,7.148-0.647c2.313,1.155,3.772,3.519,3.772,6.105v122.88c0,2.587-1.459,4.949-3.773,6.106
	C90.834,160.19,89.786,160.426,88.747,160.426z M18.207,92.157l63.713,47.788V44.372L18.207,92.157z"/>
<rect x="163.84" y="180.907" style="fill:#EE5281;" width="157.013" height="40.96"/>
<path d="M320.853,228.692H163.84c-3.773,0-6.827-3.057-6.827-6.827v-40.96c0-3.77,3.053-6.827,6.827-6.827h157.013
	c3.773,0,6.827,3.057,6.827,6.827v40.96C327.68,225.636,324.627,228.692,320.853,228.692z M170.667,215.039h143.36v-27.307h-143.36
	V215.039z"/>
<polygon style="fill:#FEDA38;" points="389.12,201.384 307.2,139.946 307.2,262.826 "/>
<path d="M307.2,269.652c-1.039,0-2.087-0.237-3.053-0.72c-2.313-1.157-3.773-3.519-3.773-6.106v-122.88
	c0-2.587,1.459-4.949,3.773-6.106c2.313-1.161,5.081-0.906,7.148,0.647l81.92,61.437c1.72,1.287,2.734,3.309,2.734,5.46
	s-1.014,4.173-2.734,5.46l-81.92,61.443C310.093,269.19,308.647,269.652,307.2,269.652z M314.027,153.599v95.573l63.713-47.79
	L314.027,153.599z"/>
<g>
</g>
<g>
</g>
<g>
</g>
<g>
</g>
<g>
</g>
<g>
</g>
<g>
</g>
<g>
</g>
<g>
</g>
<g>
</g>
<g>
</g>
<g>
</g>
<g>
</g>
<g>
</g>
<g>
</g>
</svg>
