<?xml version="1.0" encoding="iso-8859-1"?>
<!-- Generator: Adobe Illustrator 19.0.0, SVG Export Plug-In . SVG Version: 6.00 Build 0)  -->
<svg version="1.1" id="Capa_1" xmlns="http://www.w3.org/2000/svg" xmlns:xlink="http://www.w3.org/1999/xlink" x="0px" y="0px"
	 viewBox="0 0 436.975 436.975" style="enable-background:new 0 0 436.975 436.975;" xml:space="preserve">
<path style="fill:#26BBEC;" d="M204.857,88.665V348.31c0,7.477,6.11,13.537,13.653,13.537c7.543,0,13.653-6.06,13.653-13.537V88.665
	c0-7.477-6.11-13.537-13.653-13.537C210.966,75.127,204.857,81.188,204.857,88.665z"/>
<path d="M218.51,368.674c-11.293,0-20.48-9.134-20.48-20.364V88.665c0-11.23,9.187-20.364,20.48-20.364
	c11.293,0,20.48,9.134,20.48,20.364v259.647C238.99,359.54,229.803,368.674,218.51,368.674z M218.51,81.954
	c-3.767,0-6.827,3.011-6.827,6.711v259.647c0,3.7,3.06,6.711,6.827,6.711s6.827-3.011,6.827-6.711V88.665
	C225.337,84.965,222.277,81.954,218.51,81.954z"/>
<path style="fill:#EE5281;" d="M382.35,204.834H266.297c-7.673-0.036-13.619,6.028-13.653,13.653
	c-0.034,7.625,5.98,13.618,13.653,13.653H382.35l-23.347,24.216c-5.429,5.391-5.429,14.135,0,19.526
	c5.429,5.393,14.227,5.393,19.663,0l44.737-44.392c2.606-1.649,4.622-4.134,5.664-7.078c2.106-5.014,1.113-11.017-3.002-15.099
	l-48.546-48.224c-5.429-5.393-14.227-5.393-19.656,0c-5.429,5.391-5.429,14.135,0,19.526L382.35,204.834z"/>
<path d="M368.83,286.737c-5.299,0-10.6-2.004-14.64-6.009c-3.927-3.9-6.086-9.09-6.086-14.611
	c0.007-5.519,2.167-10.706,6.086-14.604l12.1-12.547h-99.994c-11.547-0.056-20.526-9.064-20.48-20.511
	c0.027-5.507,2.133-10.65,5.946-14.483c3.847-3.874,8.854-5.757,14.566-5.967h99.406l-12.674-12.537
	c-3.941-3.907-6.1-9.097-6.1-14.616s2.161-10.709,6.093-14.607c8.067-8.02,21.193-8.02,29.273,0l48.546,48.224
	c5.987,5.943,7.747,14.81,4.48,22.586c-1.307,3.736-4.04,7.281-7.62,9.75l-44.268,43.923
	C379.437,284.733,374.131,286.737,368.83,286.737z M382.35,225.314c2.739,0,5.214,1.637,6.281,4.157
	c1.073,2.521,0.532,5.437-1.367,7.407l-23.347,24.216c-1.427,1.423-2.154,3.169-2.161,5.023c0,1.86,0.734,3.606,2.06,4.924
	c2.76,2.746,7.267,2.749,10.04-0.003l44.74-44.394c0.346-0.346,0.734-0.657,1.154-0.92c1.34-0.847,2.36-2.12,2.874-3.584
	c1.246-2.99,0.654-5.977-1.367-7.984l-48.553-48.224c-2.76-2.746-7.267-2.746-10.027,0c-1.333,1.319-2.06,3.067-2.06,4.92
	s0.727,3.599,2.053,4.92l24.48,24.207c1.966,1.947,2.567,4.886,1.514,7.446c-1.053,2.563-3.546,4.233-6.313,4.233H266.298
	c-0.014,0-0.027,0-0.034,0c-1.874,0-3.574,0.686-4.82,1.94c-1.26,1.273-1.966,3.021-1.973,4.917
	c-0.02,3.857,2.934,6.777,6.861,6.796H382.35V225.314z"/>
<path style="fill:#9BFC1D;" d="M54.67,204.834h116.053c7.673-0.036,13.619,6.028,13.653,13.653
	c0.034,7.625-5.98,13.618-13.653,13.653H54.67l23.349,24.216c5.429,5.391,5.429,14.135,0,19.526c-5.429,5.393-14.227,5.393-19.663,0
	L13.619,231.49c-2.606-1.649-4.622-4.134-5.664-7.078c-2.106-5.014-1.113-11.017,3.002-15.099l48.546-48.224
	c5.429-5.393,14.227-5.393,19.656,0c5.429,5.391,5.429,14.135,0,19.526L54.67,204.834z"/>
<path d="M68.19,286.737c-5.299,0-10.607-2-14.64-6.007L9.283,236.807c-3.581-2.47-6.32-6.036-7.76-10.121
	c-3.127-7.407-1.367-16.273,4.627-22.217l48.539-48.224c8.079-8.02,21.2-8.02,29.28,0c3.927,3.896,6.086,9.086,6.086,14.607
	s-2.161,10.709-6.093,14.607l-12.677,12.547h99.441c5.673,0.266,10.687,2.094,14.534,5.967c3.813,3.833,5.92,8.977,5.946,14.483
	c0.046,11.447-8.933,20.453-20.446,20.511H70.736l12.194,12.653c3.82,3.79,5.98,8.977,5.987,14.496
	c0,5.519-2.161,10.709-6.086,14.611C78.797,284.733,73.491,286.737,68.19,286.737z M69.33,163.874c-1.819,0-3.633,0.686-5.014,2.06
	L15.77,214.157c-2.028,2.007-2.62,4.994-1.521,7.613c0.66,1.833,1.679,3.106,3.021,3.953c0.42,0.263,0.807,0.573,1.154,0.92
	l44.74,44.394c2.773,2.753,7.281,2.749,10.04,0.003c1.326-1.316,2.06-3.063,2.06-4.924c-0.007-1.853-0.734-3.599-2.06-4.917
	l-23.446-24.323c-1.9-1.97-2.441-4.886-1.367-7.407c1.067-2.521,3.54-4.157,6.281-4.157h116.053c3.893-0.02,6.847-2.941,6.827-6.796
	c-0.007-1.896-0.713-3.644-1.973-4.917c-1.253-1.263-2.76-2.097-4.82-1.94H54.672c-2.767,0-5.26-1.671-6.313-4.233
	c-1.053-2.56-0.454-5.501,1.514-7.446l24.487-24.216c1.319-1.311,2.046-3.057,2.046-4.91s-0.727-3.599-2.053-4.92
	C72.964,164.56,71.144,163.874,69.33,163.874z"/>
<g>
</g>
<g>
</g>
<g>
</g>
<g>
</g>
<g>
</g>
<g>
</g>
<g>
</g>
<g>
</g>
<g>
</g>
<g>
</g>
<g>
</g>
<g>
</g>
<g>
</g>
<g>
</g>
<g>
</g>
</svg>
