<?xml version="1.0" encoding="iso-8859-1"?>
<!-- Generator: Adobe Illustrator 19.0.0, SVG Export Plug-In . SVG Version: 6.00 Build 0)  -->
<svg version="1.1" id="Capa_1" xmlns="http://www.w3.org/2000/svg" xmlns:xlink="http://www.w3.org/1999/xlink" x="0px" y="0px"
	 viewBox="0 0 334.513 334.513" style="enable-background:new 0 0 334.513 334.513;" xml:space="preserve">
<path style="fill:#26BBEC;" d="M65.398,84.789l184.325,184.325c5.308,5.308,13.949,5.274,19.302-0.082
	c5.355-5.356,5.39-13.995,0.082-19.302L84.782,65.403c-5.308-5.308-13.947-5.274-19.302,0.082
	C60.124,70.84,60.09,79.481,65.398,84.789z"/>
<path d="M259.301,279.898c-5.446,0-10.561-2.113-14.401-5.956L60.573,89.615c-3.867-3.864-5.987-9.006-5.96-14.49
	c0.027-5.456,2.167-10.593,6.04-14.467c3.867-3.874,9.006-6.016,14.467-6.04c0.027,0,0.06,0,0.087,0
	c5.446,0,10.561,2.113,14.401,5.956l184.327,184.327c3.867,3.86,5.987,9.006,5.96,14.49c-0.027,5.456-2.167,10.593-6.04,14.467
	c-3.867,3.874-9.006,6.016-14.467,6.04C259.361,279.898,259.327,279.898,259.301,279.898z M75.206,68.271c-0.014,0-0.02,0-0.034,0
	c-1.826,0.007-3.56,0.73-4.867,2.039c-1.307,1.309-2.033,3.04-2.039,4.873c-0.007,1.811,0.686,3.504,1.959,4.774v0.003
	l184.327,184.327c1.273,1.273,3.127,1.917,4.78,1.956c1.826-0.007,3.56-0.73,4.867-2.039c1.307-1.309,2.033-3.04,2.039-4.873
	c0.007-1.811-0.686-3.504-1.959-4.774L79.954,70.227C78.686,68.964,77.007,68.271,75.206,68.271z"/>
<path style="fill:#9BFC1D;" d="M278.675,35.273l-83.405,84.135c-5.54,5.536-5.456,14.242,0,19.797
	c5.454,5.553,14.085,5.536,19.625,0L298.3,55.07l0.623,34.483c-0.026,7.844,6.257,14.182,14.034,14.157
	c7.776-0.026,14.1-6.405,14.129-14.254l0.247-64.616c0.69-3.084,0.352-6.349-1.015-9.238c-2.091-5.163-7.119-8.793-13.008-8.769
	l-69.545,0.234c-7.776,0.026-14.1,6.405-14.126,14.249c-0.026,7.844,6.257,14.182,14.034,14.157L278.675,35.273z"/>
<path d="M205.046,150.192c-0.034,0-0.067,0-0.101,0c-5.473-0.027-10.639-2.231-14.546-6.204c-8.166-8.31-8.146-21.229,0.053-29.409
	l71.747-72.383l-18.485,0.102c-0.027,0-0.053,0-0.073,0c-5.56,0-10.767-2.157-14.693-6.079c-3.973-3.977-6.153-9.277-6.134-14.927
	c0.039-11.569,9.426-21.012,20.927-21.053l69.547-0.234c0.027,0,0.053,0,0.08,0c8.506,0,16.067,5.106,19.28,13.034
	c1.734,3.633,2.307,8.146,1.514,12.489l-0.247,63.954c-0.046,11.569-9.44,21.012-20.934,21.053c-0.027,0-0.053,0-0.073,0
	c-5.54,0-10.747-2.157-14.667-6.074c-3.98-3.973-6.159-9.277-6.147-14.927l-0.326-18.176l-72.026,72.653
	C215.747,148.005,210.533,150.192,205.046,150.192z M278.673,28.448c2.746,0,5.226,1.647,6.294,4.183
	c1.073,2.546,0.5,5.487-1.447,7.45l-83.4,84.134c-2.893,2.886-2.874,7.264,0.02,10.204c1.333,1.36,3.067,2.109,4.873,2.12
	c0.007,0,0.02,0,0.027,0c1.847,0,3.633-0.766,5.026-2.164l83.386-84.11c1.934-1.947,4.861-2.55,7.386-1.529
	c2.546,1.024,4.233,3.47,4.287,6.214l0.62,34.48c-0.007,2.13,0.753,3.99,2.14,5.373c1.353,1.347,3.161,1.871,5.04,2.08
	c4.026-0.014,7.313-3.36,7.334-7.456l0.247-64.613c0-0.49,0.053-0.98,0.16-1.457c0.367-1.637,0.179-3.354-0.521-4.833
	c-1.266-3.096-3.867-4.864-6.787-4.864c-0.007,0-0.014,0-0.027,0l-69.547,0.234c-4.019,0.014-7.306,3.354-7.32,7.446
	c-0.007,1.987,0.753,3.84,2.133,5.224c1.353,1.347,3.106,2.084,5.047,2.084l34.987-0.196
	C278.646,28.448,278.66,28.448,278.673,28.448z"/>
<path style="fill:#EE5281;" d="M35.268,278.68l84.135-83.405c5.536-5.54,14.242-5.456,19.797,0c5.553,5.454,5.536,14.085,0,19.625
	l-84.135,83.405l34.483,0.623c7.844-0.026,14.182,6.257,14.157,14.034c-0.026,7.776-6.405,14.1-14.254,14.129l-64.616,0.247
	c-3.084,0.69-6.349,0.352-9.238-1.015c-5.163-2.091-8.793-7.119-8.769-13.008l0.234-69.545c0.026-7.776,6.405-14.1,14.249-14.126
	c7.844-0.026,14.182,6.257,14.157,14.034L35.268,278.68z"/>
<path d="M21.714,334.508c-3.113,0-6.214-0.679-9.033-2.014c-7.607-3.067-12.72-10.67-12.681-19.21l0.234-69.54
	c0.039-11.5,9.487-20.89,21.06-20.931c5.507,0.034,10.947,2.164,14.92,6.141c3.941,3.941,6.1,9.177,6.079,14.744l-0.106,18.507
	l72.414-71.781c8.166-8.16,21.074-8.18,29.387-0.02c3.973,3.907,6.173,9.076,6.2,14.553c0.027,5.526-2.167,10.771-6.159,14.766
	L71.356,291.77l18.319,0.329c0.02,0,0.046,0,0.073,0c5.48,0,10.747,2.176,14.706,6.134c3.941,3.944,6.1,9.18,6.079,14.751
	c-0.039,11.5-9.487,20.89-21.053,20.934l-63.954,0.244C24.267,334.395,22.987,334.508,21.714,334.508z M21.354,236.469
	c-0.007,0-0.014,0-0.02,0c-4.093,0.014-7.433,3.301-7.446,7.323l-0.234,69.547c-0.014,2.934,1.753,5.543,4.5,6.656
	c1.847,0.853,3.553,1.053,5.193,0.679c0.48-0.106,0.966-0.16,1.459-0.164l64.62-0.247c4.093-0.017,7.439-3.304,7.453-7.327
	c0.007-1.906-0.734-3.697-2.08-5.047c-1.381-1.381-3.227-2.137-5.207-2.137c-0.007,0-0.014,0-0.027,0l-34.627-0.623
	c-2.739-0.049-5.187-1.737-6.207-4.287c-1.027-2.546-0.42-5.456,1.527-7.386l84.134-83.407c1.381-1.384,2.147-3.176,2.14-5.033
	c-0.007-1.811-0.759-3.54-2.12-4.873c-2.953-2.896-7.327-2.903-10.173-0.046l-84.166,83.43c-1.966,1.944-4.907,2.517-7.453,1.444
	c-2.546-1.07-4.193-3.57-4.18-6.333l0.2-35.004c0.007-1.886-0.734-3.68-2.08-5.03C25.18,237.228,23.334,236.469,21.354,236.469z"/>
<g>
</g>
<g>
</g>
<g>
</g>
<g>
</g>
<g>
</g>
<g>
</g>
<g>
</g>
<g>
</g>
<g>
</g>
<g>
</g>
<g>
</g>
<g>
</g>
<g>
</g>
<g>
</g>
<g>
</g>
</svg>
