<?xml version="1.0" encoding="iso-8859-1"?>
<!-- Generator: Adobe Illustrator 19.0.0, SVG Export Plug-In . SVG Version: 6.00 Build 0)  -->
<svg version="1.1" id="Capa_1" xmlns="http://www.w3.org/2000/svg" xmlns:xlink="http://www.w3.org/1999/xlink" x="0px" y="0px"
	 viewBox="0 0 436.974 436.974" style="enable-background:new 0 0 436.974 436.974;" xml:space="preserve">
<path style="fill:#26BBEC;" d="M88.663,232.117h259.645c7.477,0,13.537-6.11,13.537-13.653c0-7.543-6.06-13.653-13.537-13.653
	H88.663c-7.477,0-13.537,6.11-13.537,13.653C75.126,226.007,81.186,232.117,88.663,232.117z"/>
<path d="M348.305,238.944H88.667c-11.233,0-20.367-9.187-20.367-20.48c0-11.293,9.134-20.48,20.367-20.48h259.64
	c11.233,0,20.367,9.187,20.367,20.48C368.674,229.757,359.539,238.944,348.305,238.944z M88.667,211.637
	c-3.7,0-6.714,3.063-6.714,6.827s3.014,6.827,6.714,6.827h259.64c3.7,0,6.714-3.063,6.714-6.827s-3.014-6.827-6.714-6.827H88.667z"
	/>
<path style="fill:#EE5281;" d="M204.833,54.624v116.053c-0.036,7.673,6.028,13.619,13.653,13.653
	c7.625,0.034,13.618-5.98,13.653-13.653V54.624l24.216,23.349c5.391,5.429,14.135,5.429,19.526,0c5.393-5.429,5.393-14.227,0-19.663
	l-44.392-44.737c-1.649-2.606-4.134-4.622-7.078-5.664c-5.014-2.106-11.017-1.113-15.099,3.002l-48.222,48.548
	c-5.393,5.429-5.393,14.227,0,19.656c5.391,5.429,14.135,5.429,19.526,0L204.833,54.624z"/>
<path d="M218.552,191.157c-0.034,0-0.067,0-0.094,0c-11.52-0.049-20.5-9.061-20.453-20.511v-99.41l-12.534,12.677
	c-3.913,3.937-9.1,6.096-14.619,6.096c0,0,0,0-0.007,0c-5.519-0.003-10.706-2.164-14.601-6.086c-8.013-8.071-8.013-21.207,0-29.276
	l48.227-48.543c5.934-5.997,14.807-7.747,22.586-4.487c3.734,1.311,7.281,4.047,9.747,7.624l43.919,44.261
	c8.013,8.076,8.013,21.214-0.007,29.283c-3.886,3.92-9.073,6.083-14.594,6.086h-0.007c-5.519,0-10.713-2.164-14.612-6.089
	l-12.539-12.095v99.99c-0.027,5.553-2.147,10.706-5.973,14.541C229.159,189.049,224.039,191.157,218.552,191.157z M204.833,47.797
	c0.874,0,1.753,0.167,2.594,0.514c2.56,1.05,4.233,3.546,4.233,6.313v116.053c-0.02,3.886,2.934,6.81,6.854,6.827
	c0.014,0,0.027,0,0.034,0c1.84,0,3.54-0.686,4.787-1.934c1.266-1.273,1.973-3.021,1.98-4.924V54.624
	c0-2.739,1.633-5.214,4.161-6.284c2.514-1.077,5.427-0.536,7.407,1.37l24.214,23.347c1.42,1.43,3.166,2.161,5.026,2.161l0,0
	c1.853,0,3.599-0.73,4.913-2.053c2.753-2.77,2.753-7.274,0-10.044l-44.394-44.737c-0.346-0.353-0.66-0.744-0.927-1.164
	c-0.84-1.336-2.113-2.357-3.574-2.874c-2.993-1.241-5.98-0.65-7.98,1.374l-48.227,48.546c-2.746,2.767-2.746,7.27,0.007,10.037
	c1.314,1.323,3.06,2.053,4.913,2.053l0,0c1.86,0,3.606-0.73,4.927-2.057l24.201-24.477C201.286,48.5,203.046,47.797,204.833,47.797z
	"/>
<path style="fill:#9BFC1D;" d="M204.833,382.304V266.251c-0.036-7.673,6.028-13.619,13.653-13.653
	c7.625-0.034,13.618,5.98,13.653,13.653v116.053l24.216-23.349c5.391-5.427,14.135-5.427,19.526,0
	c5.393,5.429,5.393,14.227,0,19.663l-44.392,44.737c-1.649,2.606-4.134,4.622-7.078,5.664c-5.014,2.106-11.017,1.113-15.099-3.002
	l-48.224-48.546c-5.393-5.427-5.393-14.227,0-19.656c5.391-5.429,14.135-5.429,19.526,0L204.833,382.304z"/>
<path d="M219.105,436.974c-5.313,0-10.639-2.116-14.64-6.153l-48.213-48.539c-8.02-8.071-8.02-21.207-0.007-29.276
	c3.893-3.924,9.079-6.083,14.601-6.086h0.007c5.519,0,10.706,2.161,14.607,6.083l12.547,12.691v-99.441
	c-0.046-11.419,8.933-20.43,20.453-20.48c0.027,0,0.06,0,0.094,0c5.487,0,10.607,2.106,14.44,5.939
	c3.826,3.833,5.946,8.987,5.973,14.51v100.018l12.646-12.194c3.794-3.823,8.987-5.987,14.507-5.987c0,0,0,0,0.007,0
	c5.519,0.003,10.706,2.167,14.601,6.093c8.013,8.064,8.013,21.2,0,29.276l-43.919,44.261c-2.466,3.581-6.033,6.32-10.121,7.767
	C224.266,436.473,221.686,436.974,219.105,436.974z M170.853,360.569L170.853,360.569c-1.853,0-3.599,0.73-4.913,2.053
	c-2.753,2.767-2.753,7.27,0,10.037l48.213,48.543c2.007,2.021,4.98,2.623,7.613,1.521c1.833-0.66,3.106-1.679,3.946-3.017
	c0.266-0.42,0.58-0.811,0.927-1.164l44.394-44.737c2.753-2.77,2.753-7.274,0.007-10.037c-1.319-1.329-3.067-2.06-4.92-2.06l0,0
	c-1.86,0-3.606,0.73-4.92,2.057l-24.32,23.45c-1.98,1.903-4.886,2.447-7.407,1.37c-2.526-1.07-4.161-3.543-4.161-6.284V266.247
	c-0.007-1.874-0.713-3.62-1.98-4.893c-1.246-1.246-2.947-1.934-4.787-1.934c-0.007,0-0.02,0-0.034,0
	c-3.92,0.017-6.873,2.941-6.854,6.796V382.3c0,2.767-1.673,5.263-4.233,6.313c-2.56,1.056-5.501,0.457-7.446-1.514l-24.214-24.491
	C174.459,361.3,172.713,360.569,170.853,360.569z"/>
<g>
</g>
<g>
</g>
<g>
</g>
<g>
</g>
<g>
</g>
<g>
</g>
<g>
</g>
<g>
</g>
<g>
</g>
<g>
</g>
<g>
</g>
<g>
</g>
<g>
</g>
<g>
</g>
<g>
</g>
</svg>
