<?xml version="1.0" encoding="iso-8859-1"?>
<!-- Generator: Adobe Illustrator 19.0.0, SVG Export Plug-In . SVG Version: 6.00 Build 0)  -->
<svg version="1.1" id="Capa_1" xmlns="http://www.w3.org/2000/svg" xmlns:xlink="http://www.w3.org/1999/xlink" x="0px" y="0px"
	 viewBox="0 0 436.907 436.907" style="enable-background:new 0 0 436.907 436.907;" xml:space="preserve">
<path style="fill:#26BBEC;" d="M204.8,40.844v355.219c0,7.477,6.11,13.537,13.653,13.537c7.543,0,13.653-6.06,13.653-13.537V40.844
	c0-7.477-6.11-13.537-13.653-13.537C210.91,27.307,204.8,33.367,204.8,40.844z"/>
<path d="M218.454,416.427c-11.293,0-20.48-9.134-20.48-20.364V40.844c0-11.23,9.187-20.364,20.48-20.364
	c11.293,0,20.48,9.134,20.48,20.364v355.22C238.934,407.293,229.747,416.427,218.454,416.427z M218.454,34.134
	c-3.767,0-6.827,3.011-6.827,6.711v355.22c0,3.7,3.06,6.711,6.827,6.711c3.767,0,6.827-3.011,6.827-6.711V40.844
	C225.28,37.144,222.22,34.134,218.454,34.134z"/>
<path style="fill:#EE5281;" d="M300.374,232.107h116.053c7.673,0.036,13.619-6.028,13.653-13.653
	c0.034-7.625-5.98-13.618-13.653-13.653H300.374l23.347-24.216c5.429-5.391,5.429-14.135,0-19.526
	c-5.427-5.393-14.227-5.393-19.663,0l-44.737,44.392c-2.606,1.649-4.622,4.134-5.664,7.078c-2.106,5.014-1.113,11.017,3.002,15.099
	l48.546,48.224c5.429,5.393,14.227,5.393,19.656,0c5.429-5.391,5.429-14.135,0-19.526L300.374,232.107z"/>
<path d="M315.034,286.707c-5.299,0-10.6-2.004-14.64-6.013l-48.546-48.224c-5.987-5.943-7.747-14.81-4.48-22.586
	c1.307-3.736,4.04-7.281,7.62-9.75l44.268-43.923c8.067-8.006,21.2-8.009,29.28,0.003c3.927,3.9,6.086,9.09,6.086,14.611
	c-0.007,5.519-2.167,10.706-6.086,14.604l-12.102,12.544h99.994c11.547,0.056,20.526,9.064,20.48,20.511
	c-0.027,5.507-2.133,10.65-5.946,14.483c-3.847,3.874-9.114,5.659-14.566,5.967h-99.407l12.674,12.537
	c3.941,3.907,6.1,9.097,6.1,14.616c0,5.519-2.161,10.709-6.093,14.607C325.634,284.703,320.333,286.707,315.034,286.707z
	 M313.894,163.84c-1.819,0-3.64,0.686-5.026,2.063l-44.74,44.394c-0.346,0.346-0.734,0.657-1.154,0.92
	c-1.34,0.847-2.36,2.12-2.874,3.584c-1.246,2.99-0.654,5.977,1.367,7.984l48.553,48.224c2.76,2.746,7.267,2.746,10.027,0
	c1.333-1.319,2.06-3.067,2.06-4.92c0-1.853-0.727-3.599-2.053-4.92l-24.48-24.207c-1.966-1.947-2.567-4.886-1.514-7.446
	c1.053-2.563,3.546-4.233,6.313-4.233h116.053c0.014,0,0.027,0,0.034,0c1.874,0,3.574-0.686,4.82-1.94
	c1.26-1.273,1.966-3.021,1.973-4.917c0.02-3.857-2.934-6.777-6.861-6.796H300.374c-2.739,0-5.214-1.637-6.281-4.157
	c-1.073-2.521-0.532-5.437,1.367-7.407l23.347-24.216c1.427-1.423,2.154-3.169,2.161-5.023c0-1.86-0.734-3.606-2.06-4.924
	C317.527,164.526,315.713,163.84,313.894,163.84z"/>
<path style="fill:#9BFC1D;" d="M136.534,204.8H20.48c-7.673-0.036-13.619,6.028-13.653,13.653
	c-0.034,7.625,5.98,13.617,13.653,13.653h116.053l-23.347,24.216c-5.429,5.391-5.429,14.135,0,19.526
	c5.429,5.393,14.227,5.393,19.663,0l44.737-44.392c2.606-1.649,4.622-4.134,5.664-7.078c2.106-5.014,1.113-11.017-3.002-15.099
	l-48.55-48.222c-5.429-5.393-14.227-5.393-19.656,0c-5.429,5.391-5.429,14.135,0,19.526L136.534,204.8z"/>
<path d="M123.013,286.703c-5.299,0-10.6-2.004-14.64-6.009c-3.927-3.9-6.086-9.09-6.086-14.611
	c0.007-5.519,2.167-10.706,6.086-14.604l12.1-12.546H20.48C8.933,238.877-0.046,229.869,0,218.423
	c0.027-5.507,2.133-10.65,5.946-14.483c3.847-3.874,9.267-5.757,14.566-5.967h99.407l-12.674-12.537
	c-3.941-3.907-6.1-9.097-6.1-14.616s2.161-10.709,6.093-14.607c8.067-8.02,21.193-8.02,29.273,0l48.546,48.224
	c5.987,5.943,7.747,14.81,4.48,22.586c-1.307,3.736-4.04,7.281-7.62,9.75l-44.268,43.923
	C133.62,284.699,128.314,286.703,123.013,286.703z M136.534,225.28c2.739,0,5.214,1.637,6.281,4.157
	c1.074,2.521,0.532,5.437-1.367,7.407L118.1,261.06c-1.427,1.423-2.154,3.169-2.161,5.023c0,1.86,0.734,3.606,2.06,4.924
	c2.76,2.746,7.267,2.749,10.04-0.003l44.74-44.394c0.346-0.346,0.734-0.657,1.154-0.92c1.34-0.846,2.36-2.12,2.874-3.584
	c1.246-2.99,0.654-5.977-1.367-7.984l-48.553-48.224c-2.76-2.746-7.267-2.746-10.027,0c-1.333,1.319-2.06,3.067-2.06,4.92
	c0,1.853,0.727,3.599,2.053,4.92l24.48,24.207c1.966,1.947,2.567,4.886,1.514,7.446c-1.053,2.563-3.546,4.233-6.313,4.233H20.48
	c-0.014,0-0.027,0-0.034,0c-1.874,0-3.574,0.686-4.82,1.94c-1.26,1.273-1.966,3.021-1.973,4.917
	c-0.02,3.857,2.934,6.777,6.861,6.796h116.019V225.28z"/>
<g>
</g>
<g>
</g>
<g>
</g>
<g>
</g>
<g>
</g>
<g>
</g>
<g>
</g>
<g>
</g>
<g>
</g>
<g>
</g>
<g>
</g>
<g>
</g>
<g>
</g>
<g>
</g>
<g>
</g>
</svg>
