<?xml version="1.0" encoding="iso-8859-1"?>
<!-- Generator: Adobe Illustrator 19.0.0, SVG Export Plug-In . SVG Version: 6.00 Build 0)  -->
<svg version="1.1" id="Capa_1" xmlns="http://www.w3.org/2000/svg" xmlns:xlink="http://www.w3.org/1999/xlink" x="0px" y="0px"
	 viewBox="0 0 321.117 321.117" style="enable-background:new 0 0 321.117 321.117;" xml:space="preserve">
<path style="fill:#26BBEC;" d="M25.315,44.625l251.177,251.177c5.287,5.287,13.892,5.251,19.227-0.082
	c5.335-5.335,5.369-13.94,0.082-19.227L44.625,25.318c-5.287-5.287-13.892-5.253-19.227,0.082
	C20.064,30.733,20.028,39.34,25.315,44.625z"/>
<path d="M286.026,306.573c-5.427,0-10.527-2.109-14.36-5.943L20.492,49.453c-7.939-7.939-7.907-20.896,0.08-28.88
	c3.86-3.864,8.987-6.004,14.426-6.026c5.18-0.024,10.6,2.087,14.454,5.943l251.172,251.177c7.939,7.939,7.907,20.896-0.08,28.88
	c-3.86,3.864-8.987,6.004-14.426,6.026C286.086,306.573,286.058,306.573,286.026,306.573z M35.084,28.2c-0.007,0-0.02,0-0.027,0
	c-1.819,0.01-3.533,0.727-4.833,2.028c-2.661,2.664-2.693,6.956-0.08,9.573l0,0l251.174,251.177
	c1.253,1.256,2.673,2.039,4.739,1.944c1.819-0.01,3.533-0.727,4.833-2.028c2.661-2.664,2.693-6.956,0.08-9.573L39.798,30.142
	C38.546,28.89,36.871,28.2,35.084,28.2z"/>
<path style="fill:#9BFC1D;" d="M228.139,112.288l82.062-82.062c5.451-5.4,5.367-13.892,0-19.309c-5.367-5.417-13.858-5.4-19.309,0
	L208.83,92.978l-0.614-33.633c0.026-7.651-6.156-13.833-13.807-13.807c-7.651,0.026-13.873,6.246-13.902,13.903l-0.242,63.024
	c-0.678,3.009-0.345,6.192,1,9.009c2.057,5.035,7.002,8.576,12.8,8.554l68.425-0.229c7.651-0.026,13.873-6.246,13.897-13.897
	c0.026-7.651-6.156-13.833-13.807-13.807L228.139,112.288z"/>
<path d="M194.006,146.856c-8.407,0-15.887-5.016-19.06-12.8c-1.72-3.574-2.294-8.016-1.507-12.29l0.241-62.35
	c0.046-11.383,9.341-20.669,20.714-20.704c0.027,0,0.046,0,0.073,0c5.501,0,10.667,2.137,14.553,6.023
	c3.907,3.907,6.047,9.103,6.026,14.633l0.321,17.423l70.7-70.704c8.212-8.131,20.927-8.113,28.979,0.024
	c3.879,3.907,6.026,9.037,6.04,14.444c0.014,5.463-2.147,10.621-6.079,14.52l-70.294,70.291l17.826-0.101c0.027,0,0.046,0,0.067,0
	c5.526,0,10.701,2.14,14.587,6.026c3.9,3.903,6.04,9.1,6.019,14.633c-0.039,11.373-9.327,20.659-20.7,20.7l-68.427,0.23
	C194.059,146.856,194.031,146.856,194.006,146.856z M194.458,52.367c-0.007,0-0.014,0-0.02,0c-3.907,0.014-7.086,3.2-7.107,7.107
	l-0.241,63.02c0,0.497-0.06,0.993-0.167,1.48c-0.346,1.536-0.174,3.157,0.5,4.56c1.227,2.98,3.746,4.669,6.586,4.669
	c0.007,0,0.014,0,0.027,0l68.427-0.23c3.893-0.014,7.079-3.197,7.093-7.093c0.007-1.87-0.713-3.62-2.028-4.934
	c-1.307-1.307-3.046-2.028-4.913-2.028c-0.007,0-0.014,0-0.02,0l-34.42,0.193c-2.874,0.154-5.274-1.644-6.34-4.197
	s-0.486-5.501,1.473-7.456l82.06-82.06c1.34-1.329,2.067-3.026,2.06-4.803c-0.007-1.794-0.748-3.526-2.08-4.873
	c-2.707-2.734-6.866-2.731-9.653,0.043l-82.039,82.039c-1.934,1.944-4.84,2.524-7.38,1.504c-2.54-1.024-4.221-3.466-4.273-6.207
	l-0.613-33.633c0.007-2.014-0.713-3.763-2.028-5.077C198.059,53.087,196.318,52.367,194.458,52.367z"/>
<path style="fill:#EE5281;" d="M92.978,208.832l-82.062,82.062c-5.451,5.4-5.367,13.892,0,19.309c5.367,5.417,13.858,5.4,19.309,0
	l82.062-82.062l0.614,33.633c-0.026,7.651,6.156,13.833,13.807,13.807c7.651-0.026,13.873-6.246,13.903-13.902l0.242-63.024
	c0.678-3.009,0.345-6.192-1-9.01c-2.057-5.035-7.002-8.576-12.8-8.554l-68.425,0.229c-7.651,0.026-13.873,6.246-13.897,13.897
	c-0.026,7.651,6.156,13.833,13.807,13.807L92.978,208.832z"/>
<path d="M20.525,321.117c-5.221,0-10.419-2.036-14.454-6.11c-3.879-3.907-6.026-9.037-6.04-14.444
	c-0.014-5.463,2.147-10.621,6.079-14.52l70.294-70.291l-17.826,0.101c-0.027,0-0.046,0-0.067,0c-5.526,0-10.701-2.14-14.587-6.026
	c-3.9-3.903-6.04-9.1-6.019-14.633c0.039-11.373,9.327-20.659,20.7-20.7l68.427-0.23c0.027,0,0.053,0,0.08,0
	c8.407,0,15.887,5.016,19.06,12.8c1.72,3.574,2.294,8.016,1.507,12.29l-0.241,62.35c-0.046,11.383-9.341,20.669-20.714,20.704
	c-0.027,0-0.046,0-0.073,0c-5.501,0-10.667-2.137-14.553-6.023c-3.907-3.907-6.047-9.103-6.026-14.633l-0.321-17.423l-70.7,70.702
	C30.953,319.09,25.732,321.117,20.525,321.117z M92.978,202.007c2.753,0,5.239,1.654,6.299,4.197
	c1.067,2.553,0.486,5.501-1.473,7.456l-82.06,82.06c-1.34,1.329-2.067,3.026-2.06,4.803c0.007,1.794,0.748,3.526,2.08,4.873
	c2.7,2.731,6.861,2.724,9.653-0.043l82.039-82.039c1.94-1.94,4.854-2.524,7.38-1.504c2.54,1.024,4.221,3.466,4.273,6.207
	l0.613,33.633c-0.007,2.014,0.713,3.763,2.028,5.077c1.307,1.307,3.046,2.028,4.907,2.028c0.007,0,0.014,0,0.02,0
	c3.907-0.014,7.086-3.2,7.107-7.107l0.241-63.02c0-0.497,0.06-0.993,0.167-1.48c0.346-1.536,0.174-3.157-0.5-4.56
	c-1.227-2.98-3.746-4.669-6.586-4.669c-0.007,0-0.014,0-0.027,0l-68.427,0.23c-3.893,0.014-7.079,3.197-7.093,7.093
	c-0.007,1.87,0.713,3.62,2.028,4.934c1.307,1.307,3.046,2.028,4.913,2.028c0.007,0,0.014,0,0.02,0l34.42-0.193
	C92.952,202.007,92.966,202.007,92.978,202.007z"/>
<g>
</g>
<g>
</g>
<g>
</g>
<g>
</g>
<g>
</g>
<g>
</g>
<g>
</g>
<g>
</g>
<g>
</g>
<g>
</g>
<g>
</g>
<g>
</g>
<g>
</g>
<g>
</g>
<g>
</g>
</svg>
