<?xml version="1.0" encoding="iso-8859-1"?>
<!-- Generator: Adobe Illustrator 19.0.0, SVG Export Plug-In . SVG Version: 6.00 Build 0)  -->
<svg version="1.1" id="Capa_1" xmlns="http://www.w3.org/2000/svg" xmlns:xlink="http://www.w3.org/1999/xlink" x="0px" y="0px"
	 viewBox="0 0 402.773 402.773" style="enable-background:new 0 0 402.773 402.773;" xml:space="preserve">
<rect x="163.84" y="180.906" style="fill:#EE5281;" width="232.107" height="40.96"/>
<path d="M395.947,228.693H163.84c-3.773,0-6.827-3.057-6.827-6.827v-40.96c0-3.77,3.053-6.827,6.827-6.827h232.107
	c3.773,0,6.827,3.057,6.827,6.827v40.96C402.773,225.637,399.72,228.693,395.947,228.693z M170.667,215.04H389.12v-27.307H170.667
	V215.04z"/>
<polygon style="fill:#FCAD3A;" points="6.827,201.386 197.973,310.613 197.973,92.16 "/>
<path d="M197.973,317.44c-1.167,0-2.34-0.3-3.386-0.899L3.441,207.314C1.314,206.099,0,203.836,0,201.386s1.314-4.712,3.441-5.927
	L194.587,86.233c2.113-1.21,4.714-1.195,6.813,0.022c2.106,1.222,3.4,3.471,3.4,5.905v218.453c0,2.434-1.294,4.683-3.4,5.905
	C200.34,317.131,199.159,317.44,197.973,317.44z M20.586,201.386l170.561,97.463V103.922L20.586,201.386z"/>
<polygon style="fill:#EE5281;" points="68.267,201.386 163.84,256 163.84,146.773 "/>
<path d="M163.84,262.826c-1.167,0-2.34-0.3-3.386-0.899l-95.573-54.613c-2.127-1.215-3.441-3.478-3.441-5.927
	s1.314-4.712,3.441-5.927l95.573-54.613c2.113-1.21,4.707-1.193,6.813,0.022c2.106,1.222,3.4,3.471,3.4,5.905V256
	c0,2.434-1.294,4.683-3.4,5.905C166.207,262.518,165.026,262.826,163.84,262.826z M82.026,201.386l74.988,42.849v-85.7
	L82.026,201.386z"/>
<g>
</g>
<g>
</g>
<g>
</g>
<g>
</g>
<g>
</g>
<g>
</g>
<g>
</g>
<g>
</g>
<g>
</g>
<g>
</g>
<g>
</g>
<g>
</g>
<g>
</g>
<g>
</g>
<g>
</g>
</svg>
