<?xml version="1.0" encoding="iso-8859-1"?>
<!-- Generator: Adobe Illustrator 19.0.0, SVG Export Plug-In . SVG Version: 6.00 Build 0)  -->
<svg version="1.1" id="Capa_1" xmlns="http://www.w3.org/2000/svg" xmlns:xlink="http://www.w3.org/1999/xlink" x="0px" y="0px"
	 viewBox="0 0 402.773 402.773" style="enable-background:new 0 0 402.773 402.773;" xml:space="preserve">
<path style="fill:#777777;" d="M296.96,368.64c-7.54,0-13.653-6.113-13.653-13.653v-102.2l-81.92-58.513l-81.92,58.513v102.2
	c0,7.54-6.113,13.653-13.653,13.653c-7.54,0-13.653-6.113-13.653-13.653V245.76c0-4.41,2.127-8.547,5.721-11.11l95.573-68.267
	c4.746-3.393,11.121-3.393,15.867,0l95.573,68.267c3.593,2.563,5.721,6.7,5.721,11.11v109.227
	C310.613,362.527,304.5,368.64,296.96,368.64z"/>
<path d="M296.96,375.467c-11.293,0-20.48-9.187-20.48-20.48V256.3l-75.093-53.637L126.293,256.3v98.686
	c0,11.293-9.187,20.48-20.48,20.48s-20.48-9.187-20.48-20.48V245.76c0-6.603,3.207-12.834,8.579-16.667l95.573-68.267
	c7.12-5.086,16.674-5.089,23.806,0.003l95.567,68.263c5.374,3.833,8.581,10.064,8.581,16.667v109.227
	C317.44,366.28,308.253,375.467,296.96,375.467z M201.387,187.447c1.393,0,2.78,0.423,3.966,1.27l81.92,58.513
	c1.794,1.283,2.86,3.354,2.86,5.557v102.2c0,3.763,3.06,6.827,6.827,6.827c3.767,0,6.827-3.063,6.827-6.827V245.76
	c0-2.2-1.067-4.277-2.86-5.553l-95.573-68.267c-2.374-1.7-5.567-1.696-7.927-0.003l-95.58,68.27
	c-1.792,1.277-2.859,3.354-2.859,5.553v109.227c0,3.763,3.06,6.827,6.827,6.827c3.767,0,6.827-3.063,6.827-6.827v-102.2
	c0-2.203,1.067-4.273,2.86-5.557l81.92-58.513C198.607,187.87,199.994,187.447,201.387,187.447z"/>
<circle style="fill:#26BBEC;" cx="105.813" cy="354.987" r="40.96"/>
<path d="M105.813,402.773c-26.348,0-47.787-21.437-47.787-47.787c0-26.349,21.439-47.787,47.787-47.787s47.787,21.437,47.787,47.787
	C153.6,381.336,132.161,402.773,105.813,402.773z M105.813,320.853c-18.819,0-34.133,15.314-34.133,34.133
	s15.314,34.133,34.133,34.133s34.133-15.314,34.133-34.133S124.633,320.853,105.813,320.853z"/>
<circle style="fill:#26BBEC;" cx="296.96" cy="354.987" r="40.96"/>
<path d="M296.96,402.773c-26.348,0-47.787-21.437-47.787-47.787c0-26.349,21.439-47.787,47.787-47.787
	c26.348,0,47.787,21.437,47.787,47.787C344.747,381.336,323.308,402.773,296.96,402.773z M296.96,320.853
	c-18.819,0-34.133,15.314-34.133,34.133s15.314,34.133,34.133,34.133s34.133-15.314,34.133-34.133S315.779,320.853,296.96,320.853z"
	/>
<path d="M201.387,177.493c-3.773,0-6.827-3.057-6.827-6.827V47.787c0-3.77,3.053-6.827,6.827-6.827s6.827,3.057,6.827,6.827v122.88
	C208.213,174.437,205.16,177.493,201.387,177.493z"/>
<path style="fill:#777777;" d="M201.387,184.32c-7.54,0-13.653-6.113-13.653-13.653V47.787c0-7.54,6.113-13.653,13.653-13.653
	s13.653,6.113,13.653,13.653v122.88C215.04,178.207,208.927,184.32,201.387,184.32z"/>
<path d="M201.387,191.147c-11.293,0-20.48-9.187-20.48-20.48V47.787c0-11.293,9.187-20.48,20.48-20.48
	c11.293,0,20.48,9.187,20.48,20.48v122.88C221.867,181.96,212.68,191.147,201.387,191.147z M201.387,40.96
	c-3.767,0-6.827,3.063-6.827,6.827v122.88c0,3.763,3.06,6.827,6.827,6.827s6.827-3.063,6.827-6.827V47.787
	C208.213,44.023,205.153,40.96,201.387,40.96z"/>
<path style="fill:#F97DA3;" d="M192.323,10.955c5.001-5.526,13.146-5.484,18.109,0l42.81,47.305
	c5.001,5.526,3.012,10.004-4.449,10.004h-94.829c-7.458,0-9.412-4.521-4.449-10.004L192.323,10.955z"/>
<path d="M248.793,75.093H153.96c-9.033,0-12.18-4.89-13.114-6.994c-0.934-2.104-2.454-7.719,3.599-14.416l42.813-47.307V6.373
	C190.986,2.263,195.992,0,201.373,0c0,0,0,0,0.007,0c5.299,0,10.447,2.323,14.114,6.376l42.807,47.304
	c6.079,6.707,4.567,12.317,3.633,14.42C261.001,70.202,257.853,75.093,248.793,75.093z M155.839,61.44h91.073l-41.54-45.903
	c-1.101-1.213-2.521-1.884-4-1.884l0,0c-1.473,0-2.886,0.671-3.994,1.884L155.839,61.44z"/>
<g>
</g>
<g>
</g>
<g>
</g>
<g>
</g>
<g>
</g>
<g>
</g>
<g>
</g>
<g>
</g>
<g>
</g>
<g>
</g>
<g>
</g>
<g>
</g>
<g>
</g>
<g>
</g>
<g>
</g>
</svg>
