<?xml version="1.0" encoding="iso-8859-1"?>
<!-- Generator: Adobe Illustrator 19.0.0, SVG Export Plug-In . SVG Version: 6.00 Build 0)  -->
<svg version="1.1" id="Capa_1" xmlns="http://www.w3.org/2000/svg" xmlns:xlink="http://www.w3.org/1999/xlink" x="0px" y="0px"
	 viewBox="0 0 409.6 409.6" style="enable-background:new 0 0 409.6 409.6;" xml:space="preserve">
<path style="fill:#777777;" d="M307.192,375.467c-7.54,0-13.653-6.113-13.653-13.653v-102.2l-81.92-58.513l-81.92,58.513v102.2
	c0,7.54-6.113,13.653-13.653,13.653s-13.653-6.113-13.653-13.653V252.587c0-4.41,2.127-8.547,5.721-11.11l95.573-68.267
	c4.746-3.393,11.121-3.393,15.867,0l95.573,68.267c3.593,2.563,5.721,6.7,5.721,11.11v109.227
	C320.846,369.353,314.732,375.467,307.192,375.467z"/>
<path d="M307.192,382.293c-11.293,0-20.48-9.187-20.48-20.48v-98.686l-75.093-53.637l-75.093,53.637v98.686
	c0,11.293-9.187,20.48-20.48,20.48s-20.48-9.187-20.48-20.48V252.587c0-6.603,3.207-12.834,8.579-16.667l95.573-68.267
	c7.12-5.086,16.674-5.089,23.806,0.003l95.567,68.263c5.373,3.833,8.579,10.063,8.579,16.667v109.227
	C327.672,373.106,318.487,382.293,307.192,382.293z M211.619,194.273c1.393,0,2.78,0.423,3.966,1.27l81.92,58.513
	c1.794,1.283,2.86,3.354,2.86,5.557v102.2c0,3.763,3.06,6.827,6.827,6.827c3.767,0,6.827-3.063,6.827-6.827V252.587
	c0-2.2-1.067-4.277-2.86-5.553l-95.573-68.267c-2.374-1.7-5.567-1.696-7.927-0.003l-95.58,68.27c-1.794,1.277-2.86,3.354-2.86,5.553
	v109.227c0,3.763,3.06,6.827,6.827,6.827c3.767,0,6.827-3.063,6.827-6.827v-102.2c0-2.203,1.067-4.273,2.86-5.557l81.92-58.513
	C208.839,194.697,210.226,194.273,211.619,194.273z"/>
<circle style="fill:#26BBEC;" cx="307.201" cy="361.813" r="40.96"/>
<path d="M307.192,409.6c-26.348,0-47.787-21.437-47.787-47.787c0-26.349,21.439-47.787,47.787-47.787s47.787,21.437,47.787,47.787
	C354.979,388.163,333.54,409.6,307.192,409.6z M307.192,327.68c-18.819,0-34.133,15.314-34.133,34.133s15.314,34.133,34.133,34.133
	s34.133-15.314,34.133-34.133S326.013,327.68,307.192,327.68z"/>
<path d="M211.619,184.32c-3.773,0-6.827-3.057-6.827-6.827V54.613c0-3.77,3.053-6.827,6.827-6.827s6.827,3.057,6.827,6.827v122.88
	C218.446,181.263,215.392,184.32,211.619,184.32z"/>
<path style="fill:#777777;" d="M211.619,191.147c-7.54,0-13.653-6.113-13.653-13.653V54.613c0-7.54,6.113-13.653,13.653-13.653
	c7.54,0,13.653,6.113,13.653,13.653v122.88C225.272,185.033,219.159,191.147,211.619,191.147z"/>
<path d="M211.619,197.973c-11.293,0-20.48-9.187-20.48-20.48V54.613c0-11.293,9.187-20.48,20.48-20.48
	c11.293,0,20.48,9.187,20.48,20.48v122.88C232.099,188.786,222.914,197.973,211.619,197.973z M211.619,47.787
	c-3.767,0-6.827,3.063-6.827,6.827v122.88c0,3.763,3.06,6.827,6.827,6.827c3.767,0,6.827-3.063,6.827-6.827V54.613
	C218.446,50.85,215.386,47.787,211.619,47.787z"/>
<path style="fill:#F97DA3;" d="M125.11,398.645c-5.001,5.526-13.146,5.484-18.109,0L64.19,351.34
	c-5.001-5.526-3.012-10.006,4.449-10.006h94.829c7.458,0,9.412,4.521,4.449,10.006L125.11,398.645z"/>
<path d="M116.059,409.6c0,0,0,0-0.007,0c-5.299,0-10.447-2.323-14.114-6.369L59.132,355.92c-6.079-6.707-4.567-12.317-3.633-14.42
	s4.081-6.994,13.141-6.994h94.833c9.033,0,12.18,4.89,13.114,6.994c0.934,2.104,2.454,7.719-3.599,14.416l-42.813,47.311
	c0,0.003,0,0.003,0,0.003C126.446,407.34,121.434,409.6,116.059,409.6z M125.113,398.647h0.067H125.113z M70.52,348.16l41.54,45.906
	c1.101,1.21,2.521,1.881,4,1.881l0,0c1.473,0,2.893-0.667,3.994-1.884l41.539-45.902H70.52z"/>
<circle style="fill:#26BBEC;" cx="211.628" cy="47.787" r="40.96"/>
<path d="M211.619,95.573c-26.348,0-47.787-21.437-47.787-47.787S185.271,0,211.619,0s47.787,21.437,47.787,47.787
	S237.967,95.573,211.619,95.573z M211.619,13.653c-18.819,0-34.133,15.314-34.133,34.133S192.8,81.92,211.619,81.92
	s34.133-15.314,34.133-34.133S230.44,13.653,211.619,13.653z"/>
<g>
</g>
<g>
</g>
<g>
</g>
<g>
</g>
<g>
</g>
<g>
</g>
<g>
</g>
<g>
</g>
<g>
</g>
<g>
</g>
<g>
</g>
<g>
</g>
<g>
</g>
<g>
</g>
<g>
</g>
</svg>
