<?xml version="1.0" encoding="iso-8859-1"?>
<!-- Generator: Adobe Illustrator 19.0.0, SVG Export Plug-In . SVG Version: 6.00 Build 0)  -->
<svg version="1.1" id="Capa_1" xmlns="http://www.w3.org/2000/svg" xmlns:xlink="http://www.w3.org/1999/xlink" x="0px" y="0px"
	 viewBox="0 0 409.6 409.6" style="enable-background:new 0 0 409.6 409.6;" xml:space="preserve">
<path style="fill:#777777;" d="M307.203,375.467c-7.54,0-13.653-6.113-13.653-13.653v-102.2L211.63,201.1l-81.92,58.513v102.2
	c0,7.54-6.113,13.653-13.653,13.653c-7.54,0-13.653-6.113-13.653-13.653V252.587c0-4.41,2.127-8.547,5.721-11.11l95.573-68.267
	c4.746-3.393,11.121-3.393,15.867,0l95.573,68.267c3.593,2.563,5.721,6.7,5.721,11.11v109.227
	C320.857,369.353,314.743,375.467,307.203,375.467z"/>
<path d="M307.203,382.293c-11.293,0-20.48-9.187-20.48-20.48v-98.686L211.63,209.49l-75.093,53.637v98.686
	c0,11.293-9.187,20.48-20.48,20.48s-20.48-9.187-20.48-20.48V252.587c0-6.603,3.207-12.834,8.579-16.667l95.573-68.267
	c7.12-5.086,16.674-5.089,23.806,0.003l95.567,68.263c5.373,3.833,8.579,10.063,8.579,16.667v109.227
	C327.683,373.106,318.496,382.293,307.203,382.293z M211.63,194.273c1.393,0,2.78,0.423,3.966,1.27l81.92,58.513
	c1.794,1.283,2.86,3.354,2.86,5.557v102.2c0,3.763,3.06,6.827,6.827,6.827c3.767,0,6.827-3.063,6.827-6.827V252.587
	c0-2.2-1.067-4.277-2.86-5.553l-95.573-68.267c-2.374-1.7-5.567-1.696-7.927-0.003l-95.58,68.27c-1.794,1.277-2.86,3.354-2.86,5.553
	v109.227c0,3.763,3.06,6.827,6.827,6.827c3.767,0,6.827-3.063,6.827-6.827v-102.2c0-2.203,1.067-4.273,2.86-5.557l81.92-58.513
	C208.85,194.697,210.236,194.273,211.63,194.273z"/>
<path d="M211.63,184.32c-3.773,0-6.827-3.057-6.827-6.827V54.613c0-3.77,3.053-6.827,6.827-6.827s6.827,3.057,6.827,6.827v122.88
	C218.457,181.263,215.404,184.32,211.63,184.32z"/>
<path style="fill:#777777;" d="M211.63,191.147c-7.54,0-13.653-6.113-13.653-13.653V54.613c0-7.54,6.113-13.653,13.653-13.653
	s13.653,6.113,13.653,13.653v122.88C225.283,185.033,219.17,191.147,211.63,191.147z"/>
<path d="M211.63,197.973c-11.293,0-20.48-9.187-20.48-20.48V54.613c0-11.293,9.187-20.48,20.48-20.48
	c11.293,0,20.48,9.187,20.48,20.48v122.88C232.11,188.786,222.923,197.973,211.63,197.973z M211.63,47.787
	c-3.767,0-6.827,3.063-6.827,6.827v122.88c0,3.763,3.06,6.827,6.827,6.827s6.827-3.063,6.827-6.827V54.613
	C218.457,50.85,215.397,47.787,211.63,47.787z"/>
<path style="fill:#9BFC1D;" d="M118.292,398.645c-5.001,5.526-13.146,5.484-18.109,0l-42.81-47.305
	c-5.001-5.526-3.012-10.006,4.449-10.006h94.829c7.458,0,9.412,4.521,4.449,10.006L118.292,398.645z"/>
<path d="M109.242,409.6c0,0,0,0-0.007,0c-5.299,0-10.447-2.323-14.114-6.369L52.314,355.92c-6.079-6.707-4.567-12.317-3.633-14.42
	c0.934-2.103,4.082-6.994,13.141-6.994h94.833c9.033,0,12.18,4.89,13.114,6.994c0.934,2.104,2.454,7.719-3.599,14.416
	l-42.813,47.311c0,0.003,0,0.003,0,0.003C119.629,407.34,114.616,409.6,109.242,409.6z M118.296,398.647h0.067H118.296z
	 M63.703,348.16l41.54,45.906c1.101,1.21,2.521,1.881,4,1.881l0,0c1.473,0,2.893-0.667,3.994-1.884l41.539-45.902H63.703z"/>
<path style="fill:#9BFC1D;" d="M309.439,398.645c-5.001,5.526-13.146,5.484-18.109,0l-42.81-47.305
	c-5.001-5.526-3.012-10.006,4.449-10.006h94.829c7.458,0,9.412,4.521,4.449,10.006L309.439,398.645z"/>
<path d="M300.389,409.6c0,0,0,0-0.007,0c-5.299,0-10.447-2.323-14.114-6.369l-42.807-47.311c-6.079-6.707-4.567-12.317-3.633-14.42
	c0.934-2.103,4.081-6.994,13.14-6.994H347.8c9.033,0,12.18,4.89,13.114,6.994c0.934,2.104,2.454,7.719-3.599,14.416l-42.813,47.31
	c0,0.003,0,0.003,0,0.003C310.775,407.34,305.763,409.6,300.389,409.6z M309.443,398.647h0.067H309.443z M254.85,348.16
	l41.54,45.906c1.101,1.21,2.521,1.881,4,1.881l0,0c1.473,0,2.893-0.667,3.994-1.884l41.539-45.902H254.85z"/>
<path style="fill:#9BFC1D;" d="M202.566,10.955c5.001-5.526,13.146-5.484,18.109,0l42.81,47.305
	c5.001,5.526,3.012,10.004-4.449,10.004h-94.829c-7.458,0-9.412-4.521-4.449-10.004L202.566,10.955z"/>
<path d="M259.036,75.093h-94.833c-9.033,0-12.18-4.89-13.114-6.994s-2.454-7.719,3.599-14.416l42.813-47.307V6.373
	C201.23,2.263,206.235,0,211.616,0c0,0,0,0,0.007,0c5.299,0,10.447,2.323,14.114,6.376l42.807,47.304
	c6.079,6.707,4.567,12.317,3.633,14.42C271.244,70.202,268.097,75.093,259.036,75.093z M166.083,61.44h91.073l-41.54-45.903
	c-1.099-1.213-2.519-1.884-3.999-1.884l0,0c-1.473,0-2.886,0.671-3.994,1.884L166.083,61.44z"/>
<g>
</g>
<g>
</g>
<g>
</g>
<g>
</g>
<g>
</g>
<g>
</g>
<g>
</g>
<g>
</g>
<g>
</g>
<g>
</g>
<g>
</g>
<g>
</g>
<g>
</g>
<g>
</g>
<g>
</g>
</svg>
