<?xml version="1.0" encoding="iso-8859-1"?>
<!-- Generator: Adobe Illustrator 19.0.0, SVG Export Plug-In . SVG Version: 6.00 Build 0)  -->
<svg version="1.1" id="Capa_1" xmlns="http://www.w3.org/2000/svg" xmlns:xlink="http://www.w3.org/1999/xlink" x="0px" y="0px"
	 viewBox="0 0 409.6 409.6" style="enable-background:new 0 0 409.6 409.6;" xml:space="preserve">
<path style="fill:#777777;" d="M348.16,314.026H238.933c-4.407,0-8.547-2.13-11.114-5.717l-68.267-95.573
	c-3.386-4.746-3.386-11.127,0-15.874l68.267-95.573c2.567-3.587,6.707-5.717,11.114-5.717H348.16c7.54,0,13.653,6.113,13.653,13.653
	s-6.113,13.653-13.653,13.653h-102.2l-58.513,81.92l58.513,81.92h102.2c7.54,0,13.653,6.113,13.653,13.653
	S355.7,314.026,348.16,314.026z"/>
<path d="M348.16,320.853H238.933c-6.593,0-12.827-3.203-16.667-8.569l-68.267-95.58c-5.081-7.12-5.081-16.686-0.007-23.803
	l68.273-95.577c3.84-5.374,10.074-8.578,16.667-8.578H348.16c11.293,0,20.48,9.187,20.48,20.48s-9.187,20.48-20.48,20.48h-98.686
	L195.833,204.8l53.641,75.093h98.686c11.293,0,20.48,9.187,20.48,20.48C368.64,311.666,359.453,320.853,348.16,320.853z
	 M238.933,102.4c-2.2,0-4.28,1.07-5.56,2.864l-68.267,95.566c-1.693,2.374-1.693,5.567,0.007,7.943l68.26,95.57
	c1.28,1.787,3.36,2.857,5.56,2.857H348.16c3.767,0,6.827-3.063,6.827-6.827c0-3.763-3.06-6.827-6.827-6.827h-102.2
	c-2.207,0-4.273-1.063-5.553-2.86l-58.513-81.92c-1.7-2.374-1.7-5.56,0-7.933l58.513-81.92c1.28-1.797,3.347-2.86,5.553-2.86h102.2
	c3.767,0,6.827-3.063,6.827-6.827c0-3.763-3.06-6.827-6.827-6.827L238.933,102.4L238.933,102.4z"/>
<path d="M163.84,211.626H40.96c-3.773,0-6.827-3.057-6.827-6.827c0-3.77,3.053-6.827,6.827-6.827h122.88
	c3.773,0,6.827,3.057,6.827,6.827C170.667,208.57,167.613,211.626,163.84,211.626z"/>
<path style="fill:#777777;" d="M163.84,218.453H40.96c-7.54,0-13.653-6.113-13.653-13.653c0-7.54,6.113-13.653,13.653-13.653h122.88
	c7.54,0,13.653,6.113,13.653,13.653C177.493,212.34,171.38,218.453,163.84,218.453z"/>
<path d="M163.84,225.28H40.96c-11.293,0-20.48-9.187-20.48-20.48c0-11.293,9.187-20.48,20.48-20.48h122.88
	c11.293,0,20.48,9.187,20.48,20.48C184.32,216.093,175.133,225.28,163.84,225.28z M40.96,197.973c-3.767,0-6.827,3.063-6.827,6.827
	c0,3.763,3.06,6.827,6.827,6.827h122.88c3.767,0,6.827-3.063,6.827-6.827c0-3.763-3.06-6.827-6.827-6.827H40.96z"/>
<path style="fill:#9BFC1D;" d="M64.14,195.736c5.526,5.001,5.48,13.146,0,18.109l-47.311,42.812
	c-5.526,5.001-10.003,3.012-10.003-4.449v-94.831c0-7.458,4.524-9.412,10.003-4.451L64.14,195.736z"/>
<path d="M11.267,266.223c-1.913,0-3.4-0.49-4.273-0.877C4.895,264.412,0,261.265,0,252.206v-94.829c0-9.044,4.9-12.191,7.001-13.123
	c2.106-0.934,7.733-2.444,14.413,3.616l47.307,42.803c4.106,3.721,6.373,8.726,6.373,14.107c0,5.309-2.319,10.457-6.373,14.126
	L21.407,261.72C17.493,265.263,13.954,266.223,11.267,266.223z M13.653,159.262v91.057l45.906-41.537
	c1.213-1.097,1.881-2.521,1.881-4c0-1.473-0.667-2.886-1.881-3.983l0,0L13.653,159.262z"/>
<path style="fill:#9BFC1D;" d="M398.647,100.162c5.526,5.001,5.48,13.146,0,18.109l-47.311,42.812
	c-5.526,5.001-10.003,3.012-10.003-4.449V61.801c0-7.458,4.524-9.412,10.003-4.451L398.647,100.162z"/>
<path d="M345.774,170.649c-1.913,0-3.4-0.49-4.273-0.877c-2.099-0.934-6.994-4.081-6.994-13.14V61.803
	c0-9.044,4.9-12.191,7.001-13.123c2.106-0.93,7.726-2.444,14.413,3.616L403.227,95.1c4.106,3.721,6.373,8.726,6.373,14.107
	c0,5.309-2.319,10.457-6.373,14.126l-47.314,42.813C352,169.69,348.46,170.649,345.774,170.649z M348.16,63.689v91.057
	l45.906-41.537c1.213-1.097,1.881-2.521,1.881-4c0-1.473-0.667-2.886-1.881-3.983l0,0L348.16,63.689z"/>
<path style="fill:#9BFC1D;" d="M398.647,291.309c5.526,5.001,5.48,13.146,0,18.109l-47.311,42.812
	c-5.526,5.001-10.003,3.012-10.003-4.449V252.95c0-7.458,4.524-9.412,10.003-4.451L398.647,291.309z"/>
<path d="M345.774,361.796c-1.913,0-3.4-0.49-4.273-0.877c-2.099-0.934-6.994-4.081-6.994-13.14V252.95
	c0-9.044,4.9-12.191,7.001-13.123c2.106-0.93,7.726-2.444,14.413,3.616l47.307,42.803c4.106,3.721,6.373,8.726,6.373,14.107
	c0,5.309-2.319,10.457-6.373,14.126l-47.314,42.813C352,360.837,348.46,361.796,345.774,361.796z M348.16,254.836v91.058
	l45.906-41.537c1.213-1.097,1.881-2.521,1.881-4c0-1.473-0.667-2.886-1.881-3.983l0,0L348.16,254.836z"/>
<g>
</g>
<g>
</g>
<g>
</g>
<g>
</g>
<g>
</g>
<g>
</g>
<g>
</g>
<g>
</g>
<g>
</g>
<g>
</g>
<g>
</g>
<g>
</g>
<g>
</g>
<g>
</g>
<g>
</g>
</svg>
