<?xml version="1.0" encoding="iso-8859-1"?>
<!-- Generator: Adobe Illustrator 19.0.0, SVG Export Plug-In . SVG Version: 6.00 Build 0)  -->
<svg version="1.1" id="Capa_1" xmlns="http://www.w3.org/2000/svg" xmlns:xlink="http://www.w3.org/1999/xlink" x="0px" y="0px"
	 viewBox="0 0 361.813 361.813" style="enable-background:new 0 0 361.813 361.813;" xml:space="preserve">
<rect x="54.613" y="129.707" style="fill:#26BBEC;" width="27.307" height="225.28"/>
<path d="M81.92,361.812H54.613c-3.773,0-6.827-3.057-6.827-6.827v-225.28c0-3.77,3.053-6.827,6.827-6.827H81.92
	c3.773,0,6.827,3.057,6.827,6.827v225.28C88.747,358.756,85.693,361.812,81.92,361.812z M61.44,348.159h13.653V136.532H61.44
	V348.159z"/>
<polygon style="fill:#9BFC1D;" points="68.267,88.746 129.707,157.012 6.827,157.012 "/>
<path d="M129.707,163.839H6.827c-2.693,0-5.14-1.587-6.233-4.05c-1.101-2.463-0.647-5.34,1.161-7.344l61.44-68.267
	c2.587-2.881,7.561-2.881,10.146,0l61.44,68.267c1.807,2.004,2.26,4.879,1.161,7.344C134.847,162.252,132.4,163.839,129.707,163.839
	z M22.152,150.186h92.227L68.267,98.95L22.152,150.186z"/>
<rect x="129.707" y="54.612" style="fill:#9BFC1D;" width="225.28" height="27.307"/>
<path d="M354.987,88.746h-225.28c-3.773,0-6.827-3.057-6.827-6.827V54.612c0-3.77,3.053-6.827,6.827-6.827h225.28
	c3.773,0,6.827,3.057,6.827,6.827v27.307C361.813,85.689,358.76,88.746,354.987,88.746z M136.533,75.092H348.16V61.439H136.533
	V75.092z"/>
<polygon style="fill:#26BBEC;" points="88.747,68.266 157.013,129.706 157.013,6.826 "/>
<path d="M157.013,136.532c-1.654,0-3.287-0.604-4.567-1.753L84.18,73.339c-1.44-1.294-2.26-3.137-2.26-5.074
	c0-1.937,0.819-3.78,2.26-5.074l68.267-61.44c2.014-1.804,4.886-2.253,7.347-1.164c2.459,1.097,4.047,3.54,4.047,6.236v122.88
	c0,2.697-1.587,5.14-4.047,6.236C158.899,136.339,157.954,136.532,157.013,136.532z M98.952,68.266l51.234,46.114V22.153
	L98.952,68.266z"/>
<g>
</g>
<g>
</g>
<g>
</g>
<g>
</g>
<g>
</g>
<g>
</g>
<g>
</g>
<g>
</g>
<g>
</g>
<g>
</g>
<g>
</g>
<g>
</g>
<g>
</g>
<g>
</g>
<g>
</g>
</svg>
