<?xml version="1.0" encoding="iso-8859-1"?>
<!-- Generator: Adobe Illustrator 19.0.0, SVG Export Plug-In . SVG Version: 6.00 Build 0)  -->
<svg version="1.1" id="Capa_1" xmlns="http://www.w3.org/2000/svg" xmlns:xlink="http://www.w3.org/1999/xlink" x="0px" y="0px"
	 viewBox="0 0 361.813 361.813" style="enable-background:new 0 0 361.813 361.813;" xml:space="preserve">
<rect x="279.893" y="6.827" style="fill:#26BBEC;" width="27.307" height="225.28"/>
<path d="M307.2,238.933h-27.307c-3.773,0-6.827-3.057-6.827-6.827V6.827c0-3.77,3.053-6.827,6.827-6.827H307.2
	c3.773,0,6.827,3.057,6.827,6.827v225.28C314.027,235.877,310.974,238.933,307.2,238.933z M286.72,225.28h13.653V13.653H286.72
	V225.28z"/>
<polygon style="fill:#9BFC1D;" points="293.547,273.067 232.107,204.8 354.987,204.8 "/>
<path d="M293.547,279.893c-1.934,0-3.78-0.819-5.074-2.26l-61.44-68.267c-1.807-2.004-2.26-4.879-1.161-7.344
	c1.094-2.463,3.541-4.05,6.234-4.05h122.88c2.693,0,5.14,1.587,6.233,4.05c1.101,2.463,0.647,5.34-1.161,7.344l-61.44,68.267
	C297.327,279.074,295.48,279.893,293.547,279.893z M247.433,211.627l46.114,51.236l46.114-51.236H247.433z"/>
<rect x="6.827" y="279.893" style="fill:#26BBEC;" width="225.28" height="27.307"/>
<path d="M232.107,314.027H6.827C3.053,314.027,0,310.97,0,307.2v-27.307c0-3.77,3.053-6.827,6.827-6.827h225.28
	c3.773,0,6.827,3.057,6.827,6.827V307.2C238.933,310.97,235.88,314.027,232.107,314.027z M13.653,300.373H225.28V286.72H13.653
	V300.373z"/>
<polygon style="fill:#9BFC1D;" points="273.067,293.547 204.8,232.107 204.8,354.987 "/>
<path d="M204.8,361.813c-0.94,0-1.886-0.193-2.78-0.591c-2.459-1.096-4.047-3.54-4.047-6.236v-122.88
	c0-2.697,1.587-5.14,4.047-6.236c2.466-1.094,5.34-0.64,7.347,1.164l68.267,61.44c1.44,1.292,2.26,3.135,2.26,5.072
	c0,1.937-0.819,3.78-2.26,5.074l-68.267,61.44C208.087,361.209,206.454,361.813,204.8,361.813z M211.627,247.433v92.227
	l51.234-46.112L211.627,247.433z"/>
<g>
</g>
<g>
</g>
<g>
</g>
<g>
</g>
<g>
</g>
<g>
</g>
<g>
</g>
<g>
</g>
<g>
</g>
<g>
</g>
<g>
</g>
<g>
</g>
<g>
</g>
<g>
</g>
<g>
</g>
</svg>
