<?xml version="1.0" encoding="iso-8859-1"?>
<!-- Generator: Adobe Illustrator 19.0.0, SVG Export Plug-In . SVG Version: 6.00 Build 0)  -->
<svg version="1.1" id="Capa_1" xmlns="http://www.w3.org/2000/svg" xmlns:xlink="http://www.w3.org/1999/xlink" x="0px" y="0px"
	 viewBox="0 0 436.909 436.909" style="enable-background:new 0 0 436.909 436.909;" xml:space="preserve">
<path style="fill:#26BBEC;" d="M218.455,395.948c-97.874,0-177.493-79.623-177.493-177.493c0-7.54,6.113-13.653,13.653-13.653
	s13.653,6.113,13.653,13.653c0,82.813,67.374,150.187,150.187,150.187c40.113,0,77.827-15.623,106.201-43.989
	c5.333-5.327,13.974-5.33,19.306,0.003c5.332,5.333,5.333,13.976,0,19.309C310.429,377.485,265.861,395.948,218.455,395.948z
	 M382.295,232.108c-7.54,0-13.653-6.113-13.653-13.653c0-82.813-67.374-150.187-150.187-150.187
	c-40.113,0-77.827,15.623-106.201,43.989c-5.333,5.327-13.974,5.33-19.306-0.003c-5.332-5.333-5.333-13.976,0-19.309
	c33.533-33.521,78.1-51.983,125.507-51.983c97.874,0,177.493,79.623,177.493,177.493
	C395.948,225.995,389.835,232.108,382.295,232.108z"/>
<path d="M218.455,402.775c-101.634,0-184.32-82.686-184.32-184.32c0-11.293,9.187-20.48,20.48-20.48s20.48,9.187,20.48,20.48
	c0,79.049,64.314,143.36,143.36,143.36c38.287,0,74.286-14.913,101.373-41.991c7.994-7.984,20.98-7.98,28.96,0.003
	c7.987,7.987,7.987,20.98,0,28.964C313.961,383.605,267.675,402.775,218.455,402.775z M54.615,211.628
	c-3.767,0-6.827,3.063-6.827,6.827c0,94.107,76.559,170.667,170.667,170.667c45.573,0,88.433-17.749,120.68-49.983
	c2.661-2.664,2.661-6.994,0-9.656c-2.666-2.661-7.001-2.661-9.653,0c-29.667,29.653-69.094,45.986-111.027,45.986
	c-86.579,0-157.013-70.436-157.013-157.013C61.441,214.691,58.381,211.628,54.615,211.628z M382.295,238.935
	c-11.293,0-20.48-9.187-20.48-20.48c0-79.049-64.314-143.36-143.36-143.36c-38.287,0-74.286,14.913-101.373,41.991
	c-7.994,7.984-20.98,7.98-28.96-0.003c-7.987-7.987-7.987-20.98,0-28.964c34.826-34.814,81.113-53.984,130.333-53.984
	c101.634,0,184.32,82.686,184.32,184.32C402.775,229.748,393.588,238.935,382.295,238.935z M218.455,61.441
	c86.579,0,157.013,70.436,157.013,157.013c0,3.763,3.06,6.827,6.827,6.827c3.767,0,6.827-3.063,6.827-6.827
	c0-94.107-76.559-170.667-170.667-170.667c-45.573,0-88.433,17.749-120.68,49.983c-2.661,2.664-2.661,6.994,0,9.656
	c2.666,2.661,7.001,2.661,9.653,0C137.094,77.774,176.522,61.441,218.455,61.441z"/>
<path style="fill:#9BFC1D;" d="M272.11,130.036c17.442,25.202,19.98,59.595,3.739,88.231
	c-16.241,28.638-46.761,43.597-76.919,40.818c-17.442-25.202-19.98-59.593-3.739-88.231
	C211.432,142.218,241.952,127.257,272.11,130.036z"/>
<path d="M206.074,266.241c-2.58,0-5.166-0.119-7.767-0.36c-2.014-0.183-3.833-1.249-4.987-2.91
	c-19.441-28.076-21.033-65.557-4.074-95.483c17-29.99,49.734-47.384,83.487-44.247c2.014,0.183,3.833,1.249,4.987,2.91
	c19.441,28.076,21.033,65.556,4.074,95.483C266.101,249.311,236.969,266.241,206.074,266.241z M202.769,252.508
	c27.353,1.3,53.327-13.237,67.147-37.606c13.86-24.45,13.133-54.823-1.64-78.287c-27.307-1.314-53.327,13.233-67.147,37.606
	C187.269,198.671,187.994,229.044,202.769,252.508z"/>
<polygon style="fill:#9BFC1D;" points="54.615,122.881 102.401,218.455 6.828,218.455 "/>
<path d="M102.401,225.281H6.828c-2.367,0-4.56-1.227-5.806-3.236c-1.246-2.014-1.36-4.526-0.3-6.644l47.787-95.573
	c2.319-4.627,9.894-4.627,12.213,0l47.787,95.573c1.06,2.116,0.947,4.63-0.3,6.644C106.961,224.054,104.768,225.281,102.401,225.281
	z M17.875,211.628h73.481l-36.741-73.484L17.875,211.628z"/>
<polygon style="fill:#9BFC1D;" points="382.295,314.028 334.508,218.455 430.081,218.455 "/>
<path d="M382.295,320.855c-2.587,0-4.946-1.459-6.106-3.773l-47.787-95.573c-1.06-2.116-0.947-4.63,0.3-6.644
	c1.246-2.01,3.441-3.236,5.806-3.236h95.573c2.367,0,4.56,1.227,5.806,3.236c1.246,2.014,1.36,4.526,0.3,6.644l-47.787,95.573
	C387.24,319.395,384.882,320.855,382.295,320.855z M345.555,225.281l36.739,73.484l36.739-73.484H345.555z"/>
<path style="fill:#9BFC1D;" d="M202.385,255.947c-5.26,7.711-16.63,26.844-8.25,37.601"/>
<path d="M194.141,300.375c-2.033,0-4.047-0.903-5.393-2.63c-10.733-13.783,0.399-34.514,7.994-45.643
	c2.127-3.116,6.386-3.917,9.487-1.794c3.113,2.127,3.92,6.373,1.794,9.487c-6.793,9.953-13.094,23.666-8.499,29.556
	c2.313,2.976,1.78,7.264-1.193,9.583C197.082,299.905,195.607,300.375,194.141,300.375z"/>
<path style="fill:#9BFC1D;" d="M204.801,259.415c0,0,0-27.307,28.689-70.482c9.327-14.036,29.687-44.455,36.944-55.293"/>
<path d="M204.801,266.221c-0.014,0-0.027,0-0.039,0c-3.755-0.022-6.787-3.053-6.787-6.806c0-1.2,0.34-29.877,29.827-74.26
	c9.334-14.041,29.699-44.474,36.96-55.313c2.106-3.133,6.34-3.973,9.474-1.871c3.133,2.097,3.966,6.337,1.874,9.47
	c-7.26,10.834-27.614,41.24-36.934,55.27c-26.935,40.537-27.547,66.487-27.547,66.743
	C211.582,263.195,208.535,266.221,204.801,266.221z"/>
<path d="M279.895,177.495h-32.266c-3.773,0-6.827-3.057-6.827-6.827c0-3.77,3.053-6.827,6.827-6.827h32.266
	c3.773,0,6.827,3.057,6.827,6.827C286.721,174.438,283.668,177.495,279.895,177.495z"/>
<path d="M218.455,211.628c-1.746,0-3.494-0.667-4.826-2l-25.12-25.117c-2.666-2.664-2.666-6.987,0-9.653
	c2.666-2.666,6.987-2.666,9.653,0l25.12,25.117c2.666,2.664,2.666,6.987,0,9.653C221.948,210.961,220.2,211.628,218.455,211.628z"/>
<path d="M211.621,238.935c-3.434,0-6.393-2.58-6.781-6.074c-0.413-3.746,2.287-7.124,6.033-7.537l59.628-6.627
	c3.673-0.43,7.127,2.28,7.54,6.03c0.413,3.746-2.287,7.124-6.033,7.537l-59.628,6.627
	C212.128,238.921,211.875,238.935,211.621,238.935z"/>
<g>
</g>
<g>
</g>
<g>
</g>
<g>
</g>
<g>
</g>
<g>
</g>
<g>
</g>
<g>
</g>
<g>
</g>
<g>
</g>
<g>
</g>
<g>
</g>
<g>
</g>
<g>
</g>
<g>
</g>
</svg>
