<?xml version="1.0" encoding="iso-8859-1"?>
<!-- Generator: Adobe Illustrator 19.0.0, SVG Export Plug-In . SVG Version: 6.00 Build 0)  -->
<svg version="1.1" id="Capa_1" xmlns="http://www.w3.org/2000/svg" xmlns:xlink="http://www.w3.org/1999/xlink" x="0px" y="0px"
	 viewBox="0 0 402.773 402.773" style="enable-background:new 0 0 402.773 402.773;" xml:space="preserve">
<rect x="180.907" y="6.827" style="fill:#EE5281;" width="40.96" height="232.107"/>
<path d="M221.867,245.76h-40.96c-3.773,0-6.827-3.057-6.827-6.827V6.827c0-3.77,3.053-6.827,6.827-6.827h40.96
	c3.773,0,6.827,3.057,6.827,6.827v232.107C228.693,242.703,225.64,245.76,221.867,245.76z M187.733,232.107h27.307V13.653h-27.307
	V232.107z"/>
<polygon style="fill:#FCAD3A;" points="201.387,395.947 92.16,204.8 310.613,204.8 "/>
<path d="M201.387,402.773c-2.447,0-4.714-1.314-5.927-3.441L86.233,208.186c-1.207-2.113-1.2-4.709,0.02-6.813
	c1.227-2.104,3.473-3.4,5.907-3.4h218.453c2.434,0,4.68,1.295,5.907,3.4c1.22,2.104,1.227,4.7,0.02,6.813L207.314,399.333
	C206.1,401.459,203.834,402.773,201.387,402.773z M103.927,211.627l97.459,170.561l97.459-170.561H103.927z"/>
<polygon style="fill:#EE5281;" points="201.387,334.507 146.773,238.933 256,238.933 "/>
<path d="M201.387,341.333c-2.447,0-4.714-1.314-5.927-3.441l-54.613-95.573c-1.207-2.113-1.2-4.709,0.02-6.813
	c1.227-2.104,3.473-3.4,5.907-3.4H256c2.434,0,4.68,1.295,5.907,3.4c1.22,2.104,1.227,4.7,0.02,6.813l-54.613,95.573
	C206.1,340.019,203.834,341.333,201.387,341.333z M158.541,245.76l42.846,74.988l42.846-74.988H158.541z"/>
<g>
</g>
<g>
</g>
<g>
</g>
<g>
</g>
<g>
</g>
<g>
</g>
<g>
</g>
<g>
</g>
<g>
</g>
<g>
</g>
<g>
</g>
<g>
</g>
<g>
</g>
<g>
</g>
<g>
</g>
</svg>
