<?xml version="1.0" encoding="iso-8859-1"?>
<!-- Generator: Adobe Illustrator 19.0.0, SVG Export Plug-In . SVG Version: 6.00 Build 0)  -->
<svg version="1.1" id="Capa_1" xmlns="http://www.w3.org/2000/svg" xmlns:xlink="http://www.w3.org/1999/xlink" x="0px" y="0px"
	 viewBox="0 0 423.255 423.255" style="enable-background:new 0 0 423.255 423.255;" xml:space="preserve">
<path style="fill:#26BBEC;" d="M197.973,327.681c-63.993,0-116.053-52.06-116.053-116.053S133.98,95.574,197.973,95.574
	c7.54,0,13.653,6.113,13.653,13.653c0,7.54-6.113,13.653-13.653,13.653c-48.934,0-88.747,39.81-88.747,88.747
	s39.813,88.747,88.747,88.747s88.747-39.81,88.747-88.747c0-7.54,6.113-13.653,13.653-13.653c7.54,0,13.653,6.113,13.653,13.653
	C314.027,275.62,261.968,327.681,197.973,327.681z"/>
<path d="M197.973,334.507c-67.753,0-122.88-55.124-122.88-122.88s55.127-122.88,122.88-122.88c11.293,0,20.48,9.187,20.48,20.48
	s-9.187,20.48-20.48,20.48c-45.174,0-81.92,36.75-81.92,81.92s36.746,81.92,81.92,81.92s81.92-36.75,81.92-81.92
	c0-11.293,9.187-20.48,20.48-20.48c11.293,0,20.48,9.187,20.48,20.48C320.853,279.384,265.728,334.507,197.973,334.507z
	 M197.973,102.401c-60.227,0-109.227,49-109.227,109.227s49,109.227,109.227,109.227s109.227-49,109.227-109.227
	c0-3.763-3.06-6.827-6.827-6.827c-3.767,0-6.827,3.063-6.827,6.827c0,52.7-42.873,95.573-95.573,95.573S102.4,264.327,102.4,211.627
	s42.873-95.573,95.573-95.573c3.767,0,6.827-3.063,6.827-6.827C204.8,105.464,201.74,102.401,197.973,102.401z"/>
<polygon style="fill:#9BFC1D;" points="279.893,109.227 197.973,150.187 197.973,68.267 "/>
<path d="M197.973,157.014c-1.246,0-2.493-0.343-3.587-1.021c-2.014-1.244-3.239-3.441-3.239-5.806v-81.92
	c0-2.367,1.227-4.564,3.239-5.806c2.014-1.246,4.519-1.353,6.641-0.3l81.92,40.96c2.313,1.157,3.773,3.519,3.773,6.106
	s-1.459,4.949-3.773,6.106l-81.92,40.96C200.061,156.773,199.021,157.014,197.973,157.014z M204.8,79.315v59.827l59.827-29.914
	L204.8,79.315z"/>
<circle style="fill:#9BFC1D;" cx="197.975" cy="211.627" r="34.133"/>
<path d="M197.973,252.587c-22.586,0-40.96-18.374-40.96-40.96s18.374-40.96,40.96-40.96s40.96,18.374,40.96,40.96
	S220.561,252.587,197.973,252.587z M197.973,184.321c-15.06,0-27.307,12.25-27.307,27.307c0,15.056,12.247,27.307,27.307,27.307
	c15.06,0,27.307-12.25,27.307-27.307C225.28,196.571,213.035,184.321,197.973,184.321z"/>
<path style="fill:#26BBEC;" d="M197.973,402.774c-105.4,0-191.147-85.746-191.147-191.147S92.573,20.481,197.973,20.481
	S389.12,106.227,389.12,211.627c0,7.54-6.113,13.653-13.653,13.653s-13.653-6.113-13.653-13.653
	c0-90.344-73.499-163.84-163.84-163.84s-163.84,73.496-163.84,163.84s73.499,163.84,163.84,163.84
	c7.54,0,13.653,6.113,13.653,13.653S205.513,402.774,197.973,402.774z"/>
<path d="M197.973,409.601C88.813,409.601,0,320.791,0,211.627S88.813,13.654,197.973,13.654s197.973,88.81,197.973,197.973
	c0,11.293-9.187,20.48-20.48,20.48s-20.48-9.187-20.48-20.48c0-86.578-70.434-157.013-157.013-157.013S40.96,125.05,40.96,211.627
	s70.434,157.013,157.013,157.013c11.293,0,20.48,9.187,20.48,20.48S209.268,409.601,197.973,409.601z M197.973,27.307
	c-101.634,0-184.32,82.686-184.32,184.32s82.686,184.32,184.32,184.32c3.767,0,6.827-3.063,6.827-6.827s-3.06-6.827-6.827-6.827
	c-94.107,0-170.667-76.559-170.667-170.667S103.866,40.961,197.973,40.961S368.64,117.52,368.64,211.627
	c0,3.763,3.06,6.827,6.827,6.827s6.827-3.063,6.827-6.827C382.293,109.994,299.607,27.307,197.973,27.307z"/>
<polygon style="fill:#9BFC1D;" points="375.467,286.721 334.507,204.801 416.427,204.801 "/>
<path d="M375.467,293.547c-2.587,0-4.946-1.459-6.106-3.773l-40.96-81.92c-1.06-2.116-0.947-4.63,0.3-6.644
	c1.246-2.01,3.441-3.236,5.806-3.236h81.92c2.367,0,4.56,1.227,5.806,3.236c1.246,2.014,1.36,4.526,0.3,6.644l-40.96,81.92
	C380.414,292.088,378.054,293.547,375.467,293.547z M345.554,211.627l29.913,59.831l29.914-59.831H345.554z"/>
<g>
</g>
<g>
</g>
<g>
</g>
<g>
</g>
<g>
</g>
<g>
</g>
<g>
</g>
<g>
</g>
<g>
</g>
<g>
</g>
<g>
</g>
<g>
</g>
<g>
</g>
<g>
</g>
<g>
</g>
</svg>
