<?xml version="1.0" encoding="iso-8859-1"?>
<!-- Generator: Adobe Illustrator 19.0.0, SVG Export Plug-In . SVG Version: 6.00 Build 0)  -->
<svg version="1.1" id="Capa_1" xmlns="http://www.w3.org/2000/svg" xmlns:xlink="http://www.w3.org/1999/xlink" x="0px" y="0px"
	 viewBox="0 0 368.64 368.64" style="enable-background:new 0 0 368.64 368.64;" xml:space="preserve">
<path style="fill:#DDDDDD;" d="M330.47,361.813H38.17c-17.311,0-31.343-14.032-31.343-31.343V38.17
	c0-17.311,14.032-31.343,31.343-31.343H330.47c17.311,0,31.343,14.032,31.343,31.343V330.47
	C361.813,347.781,347.781,361.813,330.47,361.813z"/>
<path d="M330.467,368.64H38.173C17.126,368.64,0,351.517,0,330.47V38.17C0,17.123,17.126,0,38.173,0h292.294
	c21.047,0,38.173,17.123,38.173,38.17V330.47C368.64,351.517,351.514,368.64,330.467,368.64z M38.173,13.653
	c-13.52,0-24.52,10.998-24.52,24.516V330.47c0,13.518,10.999,24.516,24.52,24.516h292.294c13.52,0,24.52-10.998,24.52-24.516V38.17
	c0-13.519-10.999-24.516-24.52-24.516H38.173z"/>
<polygon style="fill:#EE5281;" points="184.32,227.808 246.903,179.526 184.32,128.352 184.32,75.093 314.027,179.526 
	184.32,279.893 "/>
<path d="M184.32,286.72c-1.027,0-2.053-0.23-3.007-0.698c-2.34-1.147-3.82-3.524-3.82-6.129v-52.086c0-2.116,0.98-4.113,2.661-5.405
	l55.781-43.032l-55.933-45.735c-1.587-1.297-2.507-3.236-2.507-5.286V75.093c0-2.628,1.507-5.023,3.879-6.158
	c2.374-1.132,5.187-0.807,7.226,0.841L318.307,174.21c1.626,1.311,2.567,3.294,2.546,5.383c-0.02,2.089-0.993,4.053-2.647,5.332
	L188.5,285.292C187.279,286.237,185.807,286.72,184.32,286.72z M191.147,231.163v34.814l111.86-86.559l-111.86-90.064v35.76
	l60.08,49.126c1.613,1.318,2.533,3.301,2.507,5.381c-0.034,2.082-1.007,4.036-2.661,5.308L191.147,231.163z"/>
<polygon style="fill:#9BFC1D;" points="75.093,227.808 137.677,179.526 75.093,128.352 75.093,75.093 204.8,179.526 75.093,279.893 
	"/>
<path d="M75.093,286.72c-1.027,0-2.053-0.23-3.007-0.698c-2.34-1.147-3.82-3.524-3.82-6.129v-52.086c0-2.116,0.98-4.113,2.661-5.405
	l55.781-43.032l-55.933-45.735c-1.587-1.297-2.507-3.236-2.507-5.286V75.093c0-2.628,1.507-5.023,3.879-6.158
	c2.374-1.132,5.187-0.807,7.226,0.841L209.08,174.21c1.626,1.311,2.567,3.294,2.546,5.383c-0.02,2.089-0.993,4.053-2.647,5.332
	L79.273,285.292C78.053,286.237,76.58,286.72,75.093,286.72z M81.92,231.163v34.814l111.86-86.559L81.92,89.354v35.76L142,174.24
	c1.613,1.318,2.533,3.301,2.507,5.381c-0.034,2.082-1.007,4.036-2.661,5.308L81.92,231.163z"/>
<g>
</g>
<g>
</g>
<g>
</g>
<g>
</g>
<g>
</g>
<g>
</g>
<g>
</g>
<g>
</g>
<g>
</g>
<g>
</g>
<g>
</g>
<g>
</g>
<g>
</g>
<g>
</g>
<g>
</g>
</svg>
