<?xml version="1.0" encoding="iso-8859-1"?>
<!-- Generator: Adobe Illustrator 19.0.0, SVG Export Plug-In . SVG Version: 6.00 Build 0)  -->
<svg version="1.1" id="Capa_1" xmlns="http://www.w3.org/2000/svg" xmlns:xlink="http://www.w3.org/1999/xlink" x="0px" y="0px"
	 viewBox="0 0 368.64 368.64" style="enable-background:new 0 0 368.64 368.64;" xml:space="preserve">
<path style="fill:#DDDDDD;" d="M38.17,361.813H330.47c17.311,0,31.343-14.032,31.343-31.343V38.17
	c0-17.311-14.032-31.343-31.343-31.343H38.17c-17.311,0-31.343,14.032-31.343,31.343V330.47
	C6.827,347.781,20.859,361.813,38.17,361.813z"/>
<path d="M330.474,368.64H38.173C17.126,368.64,0,351.517,0,330.47V38.17C0,17.123,17.12,0,38.166,0h292.301
	c21.047,0,38.173,17.123,38.173,38.17V330.47C368.64,351.517,351.52,368.64,330.474,368.64z M38.166,13.653
	c-13.513,0-24.513,10.998-24.513,24.516V330.47c0,13.518,10.999,24.516,24.52,24.516h292.301c13.513,0,24.513-10.998,24.513-24.516
	V38.17c0-13.519-10.999-24.516-24.52-24.516H38.166z"/>
<polygon style="fill:#EE5281;" points="184.32,227.808 121.737,179.526 184.32,128.352 184.32,75.093 54.613,179.526 
	184.32,279.893 "/>
<path d="M184.32,286.72c-1.487,0-2.959-0.483-4.18-1.428L50.434,184.924c-1.654-1.278-2.627-3.243-2.647-5.332
	c-0.02-2.091,0.92-4.074,2.546-5.383L180.04,69.777c2.039-1.649,4.854-1.973,7.226-0.841c2.374,1.135,3.881,3.529,3.881,6.158
	v53.258c0,2.048-0.92,3.988-2.507,5.286l-55.933,45.735l55.781,43.032c1.679,1.292,2.661,3.289,2.661,5.405v52.084
	c0,2.604-1.48,4.982-3.82,6.129C186.373,286.49,185.347,286.72,184.32,286.72z M65.633,179.42l111.86,86.559v-34.814l-59.926-46.232
	c-1.654-1.271-2.627-3.227-2.661-5.308c-0.027-2.082,0.893-4.064,2.507-5.381l60.08-49.128V89.354L65.633,179.42z"/>
<polygon style="fill:#9BFC1D;" points="293.547,227.808 230.963,179.526 293.547,128.352 293.547,75.093 163.84,179.526 
	293.547,279.893 "/>
<path d="M293.547,286.72c-1.487,0-2.959-0.483-4.18-1.428L159.66,184.924c-1.654-1.278-2.627-3.243-2.647-5.332
	c-0.02-2.091,0.92-4.074,2.546-5.383L289.266,69.777c2.039-1.649,4.854-1.973,7.226-0.841c2.374,1.135,3.881,3.529,3.881,6.158
	v53.258c0,2.048-0.92,3.988-2.507,5.286l-55.933,45.735l55.781,43.032c1.679,1.292,2.661,3.289,2.661,5.405v52.084
	c0,2.604-1.48,4.982-3.82,6.129C295.6,286.49,294.574,286.72,293.547,286.72z M174.86,179.42l111.86,86.559v-34.814l-59.926-46.232
	c-1.654-1.271-2.627-3.227-2.661-5.308c-0.027-2.082,0.893-4.064,2.507-5.381l60.08-49.128V89.354L174.86,179.42z"/>
<g>
</g>
<g>
</g>
<g>
</g>
<g>
</g>
<g>
</g>
<g>
</g>
<g>
</g>
<g>
</g>
<g>
</g>
<g>
</g>
<g>
</g>
<g>
</g>
<g>
</g>
<g>
</g>
<g>
</g>
</svg>
