<?xml version="1.0" encoding="iso-8859-1"?>
<!-- Generator: Adobe Illustrator 19.0.0, SVG Export Plug-In . SVG Version: 6.00 Build 0)  -->
<svg version="1.1" id="Capa_1" xmlns="http://www.w3.org/2000/svg" xmlns:xlink="http://www.w3.org/1999/xlink" x="0px" y="0px"
	 viewBox="0 0 368.64 368.64" style="enable-background:new 0 0 368.64 368.64;" xml:space="preserve">
<path style="fill:#DDDDDD;" d="M361.813,330.47V38.17c0-17.311-14.032-31.343-31.343-31.343H38.17
	c-17.311,0-31.343,14.032-31.343,31.343V330.47c0,17.311,14.032,31.343,31.343,31.343H330.47
	C347.781,361.813,361.813,347.781,361.813,330.47z"/>
<path d="M330.474,368.64H38.173C17.126,368.64,0,351.517,0,330.47V38.17C0,17.123,17.12,0,38.166,0h292.301
	c21.047,0,38.173,17.123,38.173,38.17V330.47C368.64,351.517,351.52,368.64,330.474,368.64z M38.166,13.653
	c-13.513,0-24.513,10.998-24.513,24.516V330.47c0,13.518,10.999,24.516,24.52,24.516h292.301c13.513,0,24.513-10.998,24.513-24.516
	V38.17c0-13.519-10.999-24.516-24.52-24.516H38.166z"/>
<polygon style="fill:#EE5281;" points="227.808,184.32 179.526,246.903 128.352,184.32 75.093,184.32 179.526,314.027 
	279.893,184.32 "/>
<path d="M179.526,320.853c-2.067,0-4.019-0.935-5.32-2.545L69.774,188.602c-1.647-2.046-1.973-4.859-0.84-7.229
	c1.14-2.371,3.533-3.879,6.159-3.879h53.26c2.046,0,3.987,0.92,5.287,2.505l45.734,55.931l43.027-55.781
	c1.294-1.674,3.294-2.657,5.407-2.657h52.086c2.606,0,4.98,1.481,6.127,3.82c1.147,2.338,0.867,5.125-0.727,7.185L184.926,318.203
	c-1.28,1.652-3.246,2.628-5.333,2.649C179.574,320.853,179.546,320.853,179.526,320.853z M89.353,191.147l90.066,111.862
	l86.562-111.862h-34.819l-46.227,59.928c-1.273,1.649-3.227,2.627-5.306,2.657c-1.807-0.014-4.06-0.891-5.386-2.505l-49.123-60.08
	H89.353z"/>
<polygon style="fill:#9BFC1D;" points="227.808,75.093 179.526,137.677 128.352,75.093 75.093,75.093 179.526,204.8 279.893,75.093 
	"/>
<path d="M179.526,211.627c-2.067,0-4.019-0.935-5.32-2.545L69.774,79.375c-1.647-2.046-1.973-4.859-0.84-7.229
	c1.14-2.371,3.533-3.879,6.159-3.879h53.26c2.046,0,3.987,0.92,5.287,2.505l45.734,55.931l43.027-55.781
	c1.294-1.674,3.294-2.657,5.407-2.657h52.086c2.606,0,4.98,1.481,6.127,3.82c1.147,2.338,0.867,5.125-0.727,7.185L184.926,208.976
	c-1.28,1.652-3.246,2.628-5.333,2.649C179.574,211.627,179.546,211.627,179.526,211.627z M89.353,81.92l90.066,111.862
	L265.981,81.92h-34.819l-46.227,59.928c-1.273,1.649-3.227,2.627-5.306,2.657c-1.807,0.014-4.06-0.891-5.386-2.505l-49.123-60.08
	H89.353z"/>
<g>
</g>
<g>
</g>
<g>
</g>
<g>
</g>
<g>
</g>
<g>
</g>
<g>
</g>
<g>
</g>
<g>
</g>
<g>
</g>
<g>
</g>
<g>
</g>
<g>
</g>
<g>
</g>
<g>
</g>
</svg>
