<?xml version="1.0" encoding="iso-8859-1"?>
<!-- Generator: Adobe Illustrator 19.0.0, SVG Export Plug-In . SVG Version: 6.00 Build 0)  -->
<svg version="1.1" id="Capa_1" xmlns="http://www.w3.org/2000/svg" xmlns:xlink="http://www.w3.org/1999/xlink" x="0px" y="0px"
	 viewBox="0 0 368.64 368.64" style="enable-background:new 0 0 368.64 368.64;" xml:space="preserve">
<path style="fill:#DDDDDD;" d="M361.813,330.47V38.17c0-17.311-14.032-31.343-31.343-31.343H38.17
	c-17.311,0-31.343,14.032-31.343,31.343V330.47c0,17.311,14.032,31.343,31.343,31.343H330.47
	C347.781,361.813,361.813,347.781,361.813,330.47z"/>
<path d="M330.474,368.64H38.173C17.126,368.64,0,351.517,0,330.47V38.17C0,17.123,17.12,0,38.166,0h292.301
	c21.047,0,38.173,17.123,38.173,38.17V330.47C368.64,351.517,351.52,368.64,330.474,368.64z M38.166,13.653
	c-13.513,0-24.513,10.998-24.513,24.516V330.47c0,13.518,10.999,24.516,24.52,24.516h292.301c13.513,0,24.513-10.998,24.513-24.516
	V38.17c0-13.519-10.999-24.516-24.52-24.516H38.166z"/>
<polygon style="fill:#EE5281;" points="142.329,203.245 132.217,124.851 212.656,132.919 250.315,95.259 84.753,77.389 
	105.499,240.075 "/>
<path d="M105.499,246.902c-0.741,0-1.487-0.119-2.207-0.367c-2.466-0.841-4.233-3.014-4.567-5.596L77.979,78.252
	c-0.259-2.072,0.433-4.152,1.9-5.644c1.459-1.492,3.466-2.243,5.606-2.007l165.56,17.872c2.613,0.282,4.833,2.038,5.707,4.516
	c0.874,2.478,0.247,5.238-1.613,7.096l-37.659,37.659c-1.447,1.449-3.514,2.161-5.507,1.966l-71.887-7.211l9.013,69.869
	c0.266,2.098-0.447,4.204-1.947,5.7l-36.826,36.83C109.027,246.204,107.279,246.902,105.499,246.902z M92.621,85.103l17.893,140.305
	l24.614-24.619l-9.687-75.064c-0.266-2.065,0.427-4.139,1.881-5.632c1.447-1.493,3.533-2.236,5.574-2.034l77.22,7.745l25.286-25.286
	L92.621,85.103z"/>
<polygon style="fill:#9BFC1D;" points="219.564,280.48 209.451,202.086 289.891,210.154 327.55,172.495 161.988,154.622 
	182.735,317.31 "/>
<path d="M182.733,324.137c-0.741,0-1.487-0.119-2.207-0.367c-2.466-0.841-4.233-3.014-4.567-5.596l-20.746-162.686
	c-0.259-2.072,0.433-4.152,1.9-5.644c1.466-1.492,3.487-2.243,5.606-2.007l165.567,17.872c2.613,0.282,4.833,2.038,5.707,4.516
	s0.247,5.238-1.613,7.096l-37.659,37.658c-1.454,1.449-3.507,2.162-5.507,1.966l-71.887-7.211l9.013,69.869
	c0.266,2.098-0.447,4.205-1.947,5.7l-36.833,36.83C186.26,323.439,184.513,324.137,182.733,324.137z M169.853,162.338
	l17.893,140.307l24.62-24.62l-9.687-75.064c-0.266-2.065,0.427-4.139,1.881-5.632c1.44-1.493,3.546-2.236,5.574-2.034l77.22,7.745
	l25.286-25.286L169.853,162.338z"/>
<g>
</g>
<g>
</g>
<g>
</g>
<g>
</g>
<g>
</g>
<g>
</g>
<g>
</g>
<g>
</g>
<g>
</g>
<g>
</g>
<g>
</g>
<g>
</g>
<g>
</g>
<g>
</g>
<g>
</g>
</svg>
