<?xml version="1.0" encoding="iso-8859-1"?>
<!-- Generator: Adobe Illustrator 19.0.0, SVG Export Plug-In . SVG Version: 6.00 Build 0)  -->
<svg version="1.1" id="Capa_1" xmlns="http://www.w3.org/2000/svg" xmlns:xlink="http://www.w3.org/1999/xlink" x="0px" y="0px"
	 viewBox="0 0 382.293 382.293" style="enable-background:new 0 0 382.293 382.293;" xml:space="preserve">
<circle style="fill:#FFDD95;" cx="191.147" cy="119.467" r="40.96"/>
<path d="M191.147,167.253c-26.348,0-47.787-21.437-47.787-47.787s21.439-47.787,47.787-47.787s47.787,21.437,47.787,47.787
	S217.494,167.253,191.147,167.253z M191.147,85.333c-18.819,0-34.133,15.314-34.133,34.133s15.314,34.133,34.133,34.133
	s34.133-15.314,34.133-34.133S209.966,85.333,191.147,85.333z"/>
<path d="M191.147,310.613c-3.773,0-6.827-3.057-6.827-6.827v-143.36c0-3.77,3.053-6.827,6.827-6.827s6.827,3.057,6.827,6.827v143.36
	C197.973,307.557,194.92,310.613,191.147,310.613z"/>
<path d="M191.147,310.613c-1.746,0-3.494-0.667-4.826-2l-40.96-40.96c-2.666-2.666-2.666-6.987,0-9.653
	c2.666-2.666,6.987-2.666,9.653,0l36.134,36.134L227.28,258c2.666-2.666,6.987-2.666,9.653,0s2.666,6.987,0,9.653l-40.96,40.96
	C194.64,309.946,192.893,310.613,191.147,310.613z"/>
<path d="M375.467,126.293h-143.36c-3.773,0-6.827-3.057-6.827-6.827s3.053-6.827,6.827-6.827h143.36
	c3.773,0,6.827,3.057,6.827,6.827S379.24,126.293,375.467,126.293z"/>
<path d="M334.507,167.253c-1.746,0-3.494-0.667-4.826-2c-2.666-2.666-2.666-6.987,0-9.653l36.134-36.134L329.68,83.333
	c-2.666-2.666-2.666-6.987,0-9.653c2.666-2.666,6.987-2.666,9.653,0l40.96,40.96c2.666,2.666,2.666,6.987,0,9.653l-40.96,40.96
	C338,166.586,336.253,167.253,334.507,167.253z"/>
<path d="M150.187,126.293H6.827c-3.773,0-6.827-3.057-6.827-6.827s3.053-6.827,6.827-6.827h143.36c3.773,0,6.827,3.057,6.827,6.827
	S153.96,126.293,150.187,126.293z"/>
<path d="M47.787,167.253c-1.746,0-3.494-0.667-4.826-2L2,124.293c-2.666-2.666-2.666-6.987,0-9.653l40.96-40.96
	c2.666-2.666,6.987-2.666,9.653,0c2.666,2.666,2.666,6.987,0,9.653L16.48,119.467L52.613,155.6c2.666,2.666,2.666,6.987,0,9.653
	C51.28,166.586,49.533,167.253,47.787,167.253z"/>
<path d="M60.814,256.626c-1.746,0-3.494-0.667-4.826-2c-2.666-2.666-2.666-6.987,0-9.653L157.36,143.604
	c2.666-2.666,6.987-2.666,9.653,0s2.666,6.987,0,9.653L65.64,254.626C64.307,255.961,62.56,256.626,60.814,256.626z"/>
<path d="M118.74,256.626H60.814c-3.773,0-6.827-3.057-6.827-6.827v-57.926c0-3.77,3.053-6.827,6.827-6.827s6.827,3.057,6.827,6.827
	v51.099h51.099c3.773,0,6.827,3.057,6.827,6.827S122.513,256.626,118.74,256.626z"/>
<path d="M321.48,256.626c-1.746,0-3.494-0.667-4.826-2L215.281,153.257c-2.666-2.666-2.666-6.987,0-9.653s6.987-2.666,9.653,0
	l101.373,101.369c2.666,2.666,2.666,6.987,0,9.653C324.973,255.961,323.227,256.626,321.48,256.626z"/>
<path d="M321.48,256.626h-57.926c-3.773,0-6.827-3.057-6.827-6.827c0-3.77,3.053-6.827,6.827-6.827h51.099v-51.099
	c0-3.77,3.053-6.827,6.827-6.827s6.827,3.057,6.827,6.827V249.8C328.306,253.57,325.253,256.626,321.48,256.626z"/>
<g>
</g>
<g>
</g>
<g>
</g>
<g>
</g>
<g>
</g>
<g>
</g>
<g>
</g>
<g>
</g>
<g>
</g>
<g>
</g>
<g>
</g>
<g>
</g>
<g>
</g>
<g>
</g>
<g>
</g>
</svg>
