<?xml version="1.0" encoding="iso-8859-1"?>
<!-- Generator: Adobe Illustrator 19.0.0, SVG Export Plug-In . SVG Version: 6.00 Build 0)  -->
<svg version="1.1" id="Capa_1" xmlns="http://www.w3.org/2000/svg" xmlns:xlink="http://www.w3.org/1999/xlink" x="0px" y="0px"
	 viewBox="0 0 382.293 382.293" style="enable-background:new 0 0 382.293 382.293;" xml:space="preserve">
<circle style="fill:#DDDDDD;" cx="262.827" cy="191.147" r="40.96"/>
<path d="M262.827,238.933c-26.348,0-47.787-21.437-47.787-47.787s21.439-47.787,47.787-47.787s47.787,21.437,47.787,47.787
	S289.174,238.933,262.827,238.933z M262.827,157.013c-18.819,0-34.133,15.314-34.133,34.133s15.314,34.133,34.133,34.133
	s34.133-15.314,34.133-34.133S281.646,157.013,262.827,157.013z"/>
<path d="M262.827,157.013c-3.773,0-6.827-3.057-6.827-6.827V6.827C256,3.057,259.053,0,262.827,0s6.827,3.057,6.827,6.827v143.36
	C269.653,153.957,266.6,157.013,262.827,157.013z"/>
<path d="M303.787,54.613c-1.746,0-3.494-0.667-4.826-2L262.827,16.48l-36.134,36.134c-2.666,2.666-6.987,2.666-9.653,0
	c-2.666-2.666-2.666-6.987,0-9.653L258,2c2.666-2.666,6.987-2.666,9.653,0l40.96,40.96c2.666,2.666,2.666,6.987,0,9.653
	C307.28,53.946,305.533,54.613,303.787,54.613z"/>
<path d="M262.827,382.293c-3.773,0-6.827-3.057-6.827-6.827v-143.36c0-3.77,3.053-6.827,6.827-6.827s6.827,3.057,6.827,6.827v143.36
	C269.653,379.237,266.6,382.293,262.827,382.293z"/>
<path d="M262.827,382.293c-1.746,0-3.494-0.667-4.826-2l-40.96-40.96c-2.666-2.666-2.666-6.987,0-9.653
	c2.666-2.666,6.987-2.666,9.653,0l36.134,36.134l36.134-36.134c2.666-2.666,6.987-2.666,9.653,0c2.666,2.666,2.666,6.987,0,9.653
	l-40.96,40.96C266.32,381.626,264.573,382.293,262.827,382.293z"/>
<path d="M221.867,197.973H78.507c-3.773,0-6.827-3.057-6.827-6.827c0-3.77,3.053-6.827,6.827-6.827h143.36
	c3.773,0,6.827,3.057,6.827,6.827C228.693,194.917,225.64,197.973,221.867,197.973z"/>
<path d="M119.467,238.933c-1.746,0-3.494-0.667-4.826-2l-40.96-40.96c-2.666-2.666-2.666-6.987,0-9.653l40.96-40.96
	c2.666-2.666,6.987-2.666,9.653,0c2.666,2.666,2.666,6.987,0,9.653L88.16,191.147l36.134,36.134c2.666,2.666,2.666,6.987,0,9.653
	C122.96,238.266,121.213,238.933,119.467,238.933z"/>
<path d="M132.494,328.306c-1.746,0-3.494-0.667-4.826-2c-2.666-2.666-2.666-6.987,0-9.653L229.04,215.284
	c2.666-2.666,6.987-2.666,9.653,0c2.666,2.666,2.666,6.987,0,9.653L137.32,326.306C135.987,327.641,134.24,328.306,132.494,328.306z
	"/>
<path d="M190.42,328.306h-57.926c-3.773,0-6.827-3.057-6.827-6.827v-57.926c0-3.77,3.053-6.827,6.827-6.827s6.827,3.057,6.827,6.827
	v51.099h51.099c3.773,0,6.827,3.057,6.827,6.827S194.193,328.306,190.42,328.306z"/>
<path d="M233.866,169.01c-1.746,0-3.494-0.667-4.826-2L127.667,65.64c-2.666-2.666-2.666-6.987,0-9.653
	c2.666-2.666,6.987-2.666,9.653,0l101.373,101.369c2.666,2.666,2.666,6.987,0,9.653C237.36,168.344,235.614,169.01,233.866,169.01z"
	/>
<path d="M132.494,125.566c-3.773,0-6.827-3.057-6.827-6.827V60.814c0-3.77,3.053-6.827,6.827-6.827h57.926
	c3.773,0,6.827,3.057,6.827,6.827s-3.053,6.827-6.827,6.827H139.32v51.099C139.32,122.51,136.267,125.566,132.494,125.566z"/>
<g>
</g>
<g>
</g>
<g>
</g>
<g>
</g>
<g>
</g>
<g>
</g>
<g>
</g>
<g>
</g>
<g>
</g>
<g>
</g>
<g>
</g>
<g>
</g>
<g>
</g>
<g>
</g>
<g>
</g>
</svg>
