<?xml version="1.0" encoding="iso-8859-1"?>
<!-- Generator: Adobe Illustrator 19.0.0, SVG Export Plug-In . SVG Version: 6.00 Build 0)  -->
<svg version="1.1" id="Capa_1" xmlns="http://www.w3.org/2000/svg" xmlns:xlink="http://www.w3.org/1999/xlink" x="0px" y="0px"
	 viewBox="0 0 328.308 328.308" style="enable-background:new 0 0 328.308 328.308;" xml:space="preserve">
<circle style="fill:#9BFC1D;" cx="119.473" cy="137.155" r="40.96"/>
<path d="M119.467,184.948c-26.348,0-47.787-21.437-47.787-47.787s21.439-47.787,47.787-47.787s47.787,21.437,47.787,47.787
	S145.814,184.948,119.467,184.948z M119.467,103.028c-18.819,0-34.133,15.314-34.133,34.133s15.314,34.133,34.133,34.133
	s34.133-15.314,34.133-34.133S138.288,103.028,119.467,103.028z"/>
<path d="M119.467,328.308c-3.773,0-6.827-3.057-6.827-6.827v-143.36c0-3.77,3.053-6.827,6.827-6.827s6.827,3.057,6.827,6.827v143.36
	C126.293,325.251,123.24,328.308,119.467,328.308z"/>
<path d="M119.467,328.308c-1.746,0-3.494-0.667-4.826-2l-40.96-40.96c-2.666-2.666-2.666-6.987,0-9.653
	c2.666-2.666,6.987-2.666,9.653,0l36.134,36.134l36.134-36.134c2.666-2.666,6.987-2.666,9.653,0s2.666,6.987,0,9.653l-40.96,40.96
	C122.96,327.641,121.214,328.308,119.467,328.308z"/>
<path d="M148.427,115.024c-1.746,0-3.494-0.667-4.826-2c-2.666-2.666-2.666-6.987,0-9.653L244.973,2.002
	c2.666-2.666,6.987-2.666,9.653,0s2.666,6.987,0,9.653L153.254,113.024C151.921,114.357,150.175,115.024,148.427,115.024z"/>
<path d="M249.801,71.581c-3.773,0-6.827-3.057-6.827-6.827V13.653h-51.099c-3.773,0-6.827-3.057-6.827-6.827S188.102,0,191.875,0
	h57.926c3.773,0,6.827,3.057,6.827,6.827v57.926C256.628,68.524,253.575,71.581,249.801,71.581z"/>
<g>
</g>
<g>
</g>
<g>
</g>
<g>
</g>
<g>
</g>
<g>
</g>
<g>
</g>
<g>
</g>
<g>
</g>
<g>
</g>
<g>
</g>
<g>
</g>
<g>
</g>
<g>
</g>
<g>
</g>
</svg>
