<?xml version="1.0" encoding="iso-8859-1"?>
<!-- Generator: Adobe Illustrator 19.0.0, SVG Export Plug-In . SVG Version: 6.00 Build 0)  -->
<svg version="1.1" id="Capa_1" xmlns="http://www.w3.org/2000/svg" xmlns:xlink="http://www.w3.org/1999/xlink" x="0px" y="0px"
	 viewBox="0 0 436.907 436.907" style="enable-background:new 0 0 436.907 436.907;" xml:space="preserve">
<polygon style="fill:#99783D;" points="430.08,163.84 75.093,163.84 6.827,218.453 75.093,273.067 430.08,273.067 "/>
<path d="M430.08,279.893H75.093c-1.553,0-3.053-0.527-4.267-1.497L2.56,223.783C0.94,222.49,0,220.527,0,218.453
	s0.94-4.036,2.56-5.33l68.267-54.613c1.213-0.969,2.714-1.497,4.267-1.497H430.08c3.773,0,6.827,3.057,6.827,6.827v109.227
	C436.907,276.837,433.853,279.893,430.08,279.893z M77.486,266.24h345.767v-95.573H77.486l-59.733,47.787L77.486,266.24z"/>
<path d="M348.16,204.8h-95.573c-3.773,0-6.827-3.057-6.827-6.827c0-3.77,3.053-6.827,6.827-6.827h95.573
	c3.773,0,6.827,3.057,6.827,6.827C354.987,201.743,351.933,204.8,348.16,204.8z"/>
<path d="M218.453,191.147H102.4c-3.773,0-6.827-3.057-6.827-6.827c0-3.77,3.053-6.827,6.827-6.827h116.053
	c3.773,0,6.827,3.057,6.827,6.827C225.28,188.09,222.227,191.147,218.453,191.147z"/>
<path d="M307.2,232.107H191.147c-3.773,0-6.827-3.057-6.827-6.827c0-3.77,3.053-6.827,6.827-6.827H307.2
	c3.773,0,6.827,3.057,6.827,6.827C314.027,229.05,310.973,232.107,307.2,232.107z"/>
<path d="M163.84,225.28h-27.307c-3.773,0-6.827-3.057-6.827-6.827s3.053-6.827,6.827-6.827h27.307c3.773,0,6.827,3.057,6.827,6.827
	S167.613,225.28,163.84,225.28z"/>
<path d="M375.467,252.587H348.16c-3.773,0-6.827-3.057-6.827-6.827c0-3.77,3.053-6.827,6.827-6.827h27.307
	c3.773,0,6.827,3.057,6.827,6.827C382.293,249.53,379.24,252.587,375.467,252.587z"/>
<path d="M225.28,259.413h-88.747c-3.773,0-6.827-3.057-6.827-6.827s3.053-6.827,6.827-6.827h88.747c3.773,0,6.827,3.057,6.827,6.827
	S229.053,259.413,225.28,259.413z"/>
<g>
</g>
<g>
</g>
<g>
</g>
<g>
</g>
<g>
</g>
<g>
</g>
<g>
</g>
<g>
</g>
<g>
</g>
<g>
</g>
<g>
</g>
<g>
</g>
<g>
</g>
<g>
</g>
<g>
</g>
</svg>
