<?xml version="1.0" encoding="iso-8859-1"?>
<!-- Generator: Adobe Illustrator 19.0.0, SVG Export Plug-In . SVG Version: 6.00 Build 0)  -->
<svg version="1.1" id="Capa_1" xmlns="http://www.w3.org/2000/svg" xmlns:xlink="http://www.w3.org/1999/xlink" x="0px" y="0px"
	 viewBox="0 0 436.907 436.907" style="enable-background:new 0 0 436.907 436.907;" xml:space="preserve">
<polygon style="fill:#99783D;" points="163.84,6.827 163.84,361.813 218.453,430.08 273.067,361.813 273.067,6.827 "/>
<path d="M218.453,436.907c-2.074,0-4.033-0.944-5.333-2.563l-54.613-68.267c-0.966-1.21-1.493-2.714-1.493-4.263V6.827
	c0-3.77,3.053-6.827,6.827-6.827h109.227c3.773,0,6.827,3.057,6.827,6.827v354.987c0,1.55-0.527,3.053-1.493,4.263l-54.613,68.267
	C222.486,435.963,220.527,436.907,218.453,436.907z M170.667,359.421l47.787,59.733l47.787-59.733V13.653h-95.573V359.421z"/>
<path d="M197.973,184.32c-3.773,0-6.827-3.057-6.827-6.827V81.92c0-3.77,3.053-6.827,6.827-6.827s6.827,3.057,6.827,6.827v95.573
	C204.8,181.263,201.747,184.32,197.973,184.32z"/>
<path d="M184.32,334.507c-3.773,0-6.827-3.057-6.827-6.827V211.627c0-3.77,3.053-6.827,6.827-6.827s6.827,3.057,6.827,6.827V327.68
	C191.147,331.45,188.093,334.507,184.32,334.507z"/>
<path d="M225.28,245.76c-3.773,0-6.827-3.057-6.827-6.827V122.88c0-3.77,3.053-6.827,6.827-6.827s6.827,3.057,6.827,6.827v116.053
	C232.107,242.703,229.053,245.76,225.28,245.76z"/>
<path d="M218.453,307.2c-3.773,0-6.827-3.057-6.827-6.827v-27.307c0-3.77,3.053-6.827,6.827-6.827s6.827,3.057,6.827,6.827v27.307
	C225.28,304.143,222.227,307.2,218.453,307.2z"/>
<path d="M245.76,95.573c-3.773,0-6.827-3.057-6.827-6.827V61.44c0-3.77,3.053-6.827,6.827-6.827s6.827,3.057,6.827,6.827v27.307
	C252.587,92.517,249.533,95.573,245.76,95.573z"/>
<path d="M252.587,307.2c-3.773,0-6.827-3.057-6.827-6.827v-88.747c0-3.77,3.053-6.827,6.827-6.827s6.827,3.057,6.827,6.827v88.747
	C259.413,304.143,256.36,307.2,252.587,307.2z"/>
<g>
</g>
<g>
</g>
<g>
</g>
<g>
</g>
<g>
</g>
<g>
</g>
<g>
</g>
<g>
</g>
<g>
</g>
<g>
</g>
<g>
</g>
<g>
</g>
<g>
</g>
<g>
</g>
<g>
</g>
</svg>
