<?xml version="1.0" encoding="iso-8859-1"?>
<!-- Generator: Adobe Illustrator 19.0.0, SVG Export Plug-In . SVG Version: 6.00 Build 0)  -->
<svg version="1.1" id="Capa_1" xmlns="http://www.w3.org/2000/svg" xmlns:xlink="http://www.w3.org/1999/xlink" x="0px" y="0px"
	 viewBox="0 0 436.907 436.907" style="enable-background:new 0 0 436.907 436.907;" xml:space="preserve">
<rect x="218.453" y="10.24" style="fill:#8C6B37;" width="47.787" height="416.427"/>
<path d="M266.24,433.493h-47.787c-3.773,0-6.827-3.057-6.827-6.827V10.24c0-3.77,3.053-6.827,6.827-6.827h47.787
	c3.773,0,6.827,3.057,6.827,6.827v416.427C273.067,430.437,270.013,433.493,266.24,433.493z M225.28,419.84h34.133V17.067H225.28
	V419.84z"/>
<polygon style="fill:#99783D;" points="430.08,37.547 75.093,37.547 6.827,92.16 75.093,146.773 430.08,146.773 "/>
<path d="M430.08,153.6H75.093c-1.553,0-3.053-0.527-4.267-1.497L2.56,97.49C0.94,96.196,0,94.234,0,92.16s0.94-4.036,2.56-5.33
	l68.267-54.613c1.213-0.969,2.714-1.497,4.267-1.497H430.08c3.773,0,6.827,3.057,6.827,6.827v109.227
	C436.907,150.543,433.853,153.6,430.08,153.6z M77.486,139.947h345.767V44.373H77.486L17.753,92.16L77.486,139.947z"/>
<path d="M348.16,78.507h-95.573c-3.773,0-6.827-3.057-6.827-6.827s3.053-6.827,6.827-6.827h95.573c3.773,0,6.827,3.057,6.827,6.827
	S351.933,78.507,348.16,78.507z"/>
<path d="M218.453,64.853H102.4c-3.773,0-6.827-3.057-6.827-6.827S98.627,51.2,102.4,51.2h116.053c3.773,0,6.827,3.057,6.827,6.827
	S222.227,64.853,218.453,64.853z"/>
<path d="M307.2,105.813H191.147c-3.773,0-6.827-3.057-6.827-6.827s3.053-6.827,6.827-6.827H307.2c3.773,0,6.827,3.057,6.827,6.827
	S310.973,105.813,307.2,105.813z"/>
<path d="M163.84,98.987h-27.307c-3.773,0-6.827-3.057-6.827-6.827s3.053-6.827,6.827-6.827h27.307c3.773,0,6.827,3.057,6.827,6.827
	S167.613,98.987,163.84,98.987z"/>
<path d="M375.467,126.293H348.16c-3.773,0-6.827-3.057-6.827-6.827s3.053-6.827,6.827-6.827h27.307c3.773,0,6.827,3.057,6.827,6.827
	S379.24,126.293,375.467,126.293z"/>
<path d="M225.28,133.12h-88.747c-3.773,0-6.827-3.057-6.827-6.827c0-3.77,3.053-6.827,6.827-6.827h88.747
	c3.773,0,6.827,3.057,6.827,6.827C232.107,130.063,229.053,133.12,225.28,133.12z"/>
<polygon style="fill:#8C6B37;" points="6.827,174.08 361.813,174.08 430.08,228.693 361.813,283.307 6.827,283.307 "/>
<path d="M361.813,290.133H6.827c-3.773,0-6.827-3.057-6.827-6.827V174.08c0-3.77,3.053-6.827,6.827-6.827h354.987
	c1.553,0,3.053,0.527,4.267,1.497l68.267,54.613c1.62,1.294,2.56,3.256,2.56,5.33s-0.94,4.036-2.56,5.33l-68.267,54.613
	C364.867,289.606,363.366,290.133,361.813,290.133z M13.653,276.48h345.767l59.733-47.787l-59.733-47.787H13.653V276.48z"/>
<path d="M177.493,215.04H81.92c-3.773,0-6.827-3.057-6.827-6.827c0-3.77,3.053-6.827,6.827-6.827h95.573
	c3.773,0,6.827,3.057,6.827,6.827C184.32,211.983,181.267,215.04,177.493,215.04z"/>
<path d="M327.68,201.387H211.627c-3.773,0-6.827-3.057-6.827-6.827c0-3.77,3.053-6.827,6.827-6.827H327.68
	c3.773,0,6.827,3.057,6.827,6.827C334.507,198.33,331.453,201.387,327.68,201.387z"/>
<path d="M238.933,242.347H122.88c-3.773,0-6.827-3.057-6.827-6.827c0-3.77,3.053-6.827,6.827-6.827h116.053
	c3.773,0,6.827,3.057,6.827,6.827C245.76,239.29,242.707,242.347,238.933,242.347z"/>
<path d="M300.373,235.52h-27.307c-3.773,0-6.827-3.057-6.827-6.827c0-3.77,3.053-6.827,6.827-6.827h27.307
	c3.773,0,6.827,3.057,6.827,6.827C307.2,232.463,304.147,235.52,300.373,235.52z"/>
<path d="M88.747,262.827H61.44c-3.773,0-6.827-3.057-6.827-6.827s3.053-6.827,6.827-6.827h27.307c3.773,0,6.827,3.057,6.827,6.827
	S92.52,262.827,88.747,262.827z"/>
<path d="M300.373,269.653h-88.747c-3.773,0-6.827-3.057-6.827-6.827c0-3.77,3.053-6.827,6.827-6.827h88.747
	c3.773,0,6.827,3.057,6.827,6.827C307.2,266.597,304.147,269.653,300.373,269.653z"/>
<g>
</g>
<g>
</g>
<g>
</g>
<g>
</g>
<g>
</g>
<g>
</g>
<g>
</g>
<g>
</g>
<g>
</g>
<g>
</g>
<g>
</g>
<g>
</g>
<g>
</g>
<g>
</g>
<g>
</g>
</svg>
