<?xml version="1.0" encoding="iso-8859-1"?>
<!-- Generator: Adobe Illustrator 19.0.0, SVG Export Plug-In . SVG Version: 6.00 Build 0)  -->
<svg version="1.1" id="Capa_1" xmlns="http://www.w3.org/2000/svg" xmlns:xlink="http://www.w3.org/1999/xlink" x="0px" y="0px"
	 viewBox="0 0 436.907 436.907" style="enable-background:new 0 0 436.907 436.907;" xml:space="preserve">
<rect x="170.667" y="10.24" style="fill:#8C6B37;" width="47.787" height="416.427"/>
<path d="M218.453,433.493h-47.787c-3.773,0-6.827-3.057-6.827-6.827V10.24c0-3.77,3.053-6.827,6.827-6.827h47.787
	c3.773,0,6.827,3.057,6.827,6.827v416.427C225.28,430.437,222.227,433.493,218.453,433.493z M177.493,419.84h34.133V17.067h-34.133
	V419.84z"/>
<polygon style="fill:#99783D;" points="6.827,37.547 361.813,37.547 430.08,92.16 361.813,146.773 6.827,146.773 "/>
<path d="M361.813,153.6H6.827C3.053,153.6,0,150.543,0,146.773V37.547c0-3.77,3.053-6.827,6.827-6.827h354.987
	c1.553,0,3.053,0.527,4.267,1.497l68.267,54.613c1.62,1.294,2.56,3.256,2.56,5.33s-0.94,4.036-2.56,5.33l-68.267,54.613
	C364.867,153.073,363.366,153.6,361.813,153.6z M13.653,139.947h345.767l59.733-47.787l-59.733-47.787H13.653V139.947z"/>
<path d="M177.493,78.507H81.92c-3.773,0-6.827-3.057-6.827-6.827s3.053-6.827,6.827-6.827h95.573c3.773,0,6.827,3.057,6.827,6.827
	S181.267,78.507,177.493,78.507z"/>
<path d="M327.68,64.853H211.627c-3.773,0-6.827-3.057-6.827-6.827s3.053-6.827,6.827-6.827H327.68c3.773,0,6.827,3.057,6.827,6.827
	S331.453,64.853,327.68,64.853z"/>
<path d="M238.933,105.813H122.88c-3.773,0-6.827-3.057-6.827-6.827s3.053-6.827,6.827-6.827h116.053
	c3.773,0,6.827,3.057,6.827,6.827S242.707,105.813,238.933,105.813z"/>
<path d="M300.373,98.987h-27.307c-3.773,0-6.827-3.057-6.827-6.827s3.053-6.827,6.827-6.827h27.307c3.773,0,6.827,3.057,6.827,6.827
	S304.147,98.987,300.373,98.987z"/>
<path d="M88.747,126.293H61.44c-3.773,0-6.827-3.057-6.827-6.827s3.053-6.827,6.827-6.827h27.307c3.773,0,6.827,3.057,6.827,6.827
	S92.52,126.293,88.747,126.293z"/>
<path d="M300.373,133.12h-88.747c-3.773,0-6.827-3.057-6.827-6.827c0-3.77,3.053-6.827,6.827-6.827h88.747
	c3.773,0,6.827,3.057,6.827,6.827C307.2,130.063,304.147,133.12,300.373,133.12z"/>
<g>
</g>
<g>
</g>
<g>
</g>
<g>
</g>
<g>
</g>
<g>
</g>
<g>
</g>
<g>
</g>
<g>
</g>
<g>
</g>
<g>
</g>
<g>
</g>
<g>
</g>
<g>
</g>
<g>
</g>
</svg>
