<?xml version="1.0" encoding="iso-8859-1"?>
<!-- Generator: Adobe Illustrator 19.0.0, SVG Export Plug-In . SVG Version: 6.00 Build 0)  -->
<svg version="1.1" id="Capa_1" xmlns="http://www.w3.org/2000/svg" xmlns:xlink="http://www.w3.org/1999/xlink" x="0px" y="0px"
	 viewBox="0 0 436.907 436.907" style="enable-background:new 0 0 436.907 436.907;" xml:space="preserve">
<rect x="218.453" y="10.24" style="fill:#8C6B37;" width="47.787" height="416.427"/>
<path d="M266.24,433.493h-47.787c-3.773,0-6.827-3.057-6.827-6.827V10.24c0-3.77,3.053-6.827,6.827-6.827h47.787
	c3.773,0,6.827,3.057,6.827,6.827v416.427C273.067,430.437,270.013,433.493,266.24,433.493z M225.28,419.84h34.133V17.067H225.28
	V419.84z"/>
<polygon style="fill:#99783D;" points="430.08,37.547 75.093,37.547 6.827,92.16 75.093,146.773 430.08,146.773 "/>
<path d="M430.08,153.6H75.093c-1.553,0-3.053-0.527-4.267-1.497L2.56,97.49C0.94,96.196,0,94.234,0,92.16s0.94-4.036,2.56-5.33
	l68.267-54.613c1.213-0.969,2.714-1.497,4.267-1.497H430.08c3.773,0,6.827,3.057,6.827,6.827v109.227
	C436.907,150.543,433.853,153.6,430.08,153.6z M77.486,139.947h345.767V44.373H77.486L17.753,92.16L77.486,139.947z"/>
<path d="M348.16,78.507h-95.573c-3.773,0-6.827-3.057-6.827-6.827s3.053-6.827,6.827-6.827h95.573c3.773,0,6.827,3.057,6.827,6.827
	S351.933,78.507,348.16,78.507z"/>
<path d="M218.453,64.853H102.4c-3.773,0-6.827-3.057-6.827-6.827S98.627,51.2,102.4,51.2h116.053c3.773,0,6.827,3.057,6.827,6.827
	S222.227,64.853,218.453,64.853z"/>
<path d="M307.2,105.813H191.147c-3.773,0-6.827-3.057-6.827-6.827s3.053-6.827,6.827-6.827H307.2c3.773,0,6.827,3.057,6.827,6.827
	S310.973,105.813,307.2,105.813z"/>
<path d="M163.84,98.987h-27.307c-3.773,0-6.827-3.057-6.827-6.827s3.053-6.827,6.827-6.827h27.307c3.773,0,6.827,3.057,6.827,6.827
	S167.613,98.987,163.84,98.987z"/>
<path d="M375.467,126.293H348.16c-3.773,0-6.827-3.057-6.827-6.827s3.053-6.827,6.827-6.827h27.307c3.773,0,6.827,3.057,6.827,6.827
	S379.24,126.293,375.467,126.293z"/>
<path d="M225.28,133.12h-88.747c-3.773,0-6.827-3.057-6.827-6.827c0-3.77,3.053-6.827,6.827-6.827h88.747
	c3.773,0,6.827,3.057,6.827,6.827C232.107,130.063,229.053,133.12,225.28,133.12z"/>
<g>
</g>
<g>
</g>
<g>
</g>
<g>
</g>
<g>
</g>
<g>
</g>
<g>
</g>
<g>
</g>
<g>
</g>
<g>
</g>
<g>
</g>
<g>
</g>
<g>
</g>
<g>
</g>
<g>
</g>
</svg>
