<?xml version="1.0" encoding="iso-8859-1"?>
<!-- Generator: Adobe Illustrator 19.0.0, SVG Export Plug-In . SVG Version: 6.00 Build 0)  -->
<svg version="1.1" id="Capa_1" xmlns="http://www.w3.org/2000/svg" xmlns:xlink="http://www.w3.org/1999/xlink" x="0px" y="0px"
	 viewBox="0 0 334.507 334.507" style="enable-background:new 0 0 334.507 334.507;" xml:space="preserve">
<polyline style="fill:#288EEA;" points="62.309,46.061 150.187,133.936 130.526,153.6 43.095,66.167 "/>
<path d="M130.526,160.427c-1.812,0-3.546-0.72-4.826-2L38.267,70.994c-2.666-2.666-2.666-6.987,0-9.653s6.987-2.666,9.653,0
	l82.606,82.606l10.006-10.01L57.481,50.886c-2.666-2.666-2.666-6.987,0-9.653c2.666-2.666,6.987-2.666,9.653,0l87.88,87.876
	c2.666,2.666,2.666,6.987,0,9.653l-19.661,19.663C134.074,159.706,132.34,160.427,130.526,160.427z"/>
<polyline style="fill:#288EEA;" points="61.029,289.724 150.187,200.564 130.526,180.907 41.368,270.061 "/>
<path d="M61.027,296.55c-1.746,0-3.494-0.667-4.826-2c-2.666-2.666-2.666-6.987,0-9.653l84.333-84.333l-10.006-10.003
	l-84.333,84.326c-2.666,2.666-6.987,2.666-9.653,0s-2.666-6.987,0-9.653l89.16-89.153c2.666-2.666,6.987-2.666,9.653,0
	l19.661,19.657c1.28,1.28,2,3.017,2,4.826s-0.72,3.546-2,4.826l-89.16,89.16C64.521,295.883,62.773,296.55,61.027,296.55z"/>
<polyline style="fill:#288EEA;" points="268.928,42.503 177.493,133.936 197.154,153.6 288.591,62.16 "/>
<path d="M197.154,160.427L197.154,160.427c-1.812,0-3.546-0.72-4.826-2l-19.661-19.663c-2.666-2.666-2.666-6.987,0-9.653
	L264.1,37.678c2.666-2.666,6.987-2.666,9.653,0c2.666,2.666,2.666,6.987,0,9.653l-86.607,86.606l10.006,10.01l86.613-86.613
	c2.666-2.666,6.987-2.666,9.653,0c2.666,2.666,2.666,6.987,0,9.653l-91.44,91.44C200.701,159.706,198.967,160.427,197.154,160.427z"
	/>
<polyline style="fill:#288EEA;" points="270.078,293.152 177.493,200.564 197.154,180.907 289.741,273.49 "/>
<path d="M270.08,299.981c-1.746,0-3.494-0.667-4.826-2l-92.587-92.59c-1.28-1.28-2-3.017-2-4.826c0-1.809,0.72-3.546,2-4.826
	l19.661-19.657c2.666-2.666,6.987-2.666,9.653,0l92.587,92.583c2.666,2.666,2.666,6.987,0,9.653c-2.666,2.666-6.987,2.666-9.653,0
	l-87.76-87.757l-10.006,10.003l87.76,87.764c2.666,2.666,2.666,6.987,0,9.653C273.574,299.314,271.826,299.981,270.08,299.981z"/>
<polygon style="fill:#F97DA3;" points="6.827,10.24 95.573,10.24 6.827,98.987 "/>
<path d="M6.827,105.813c-0.881,0-1.766-0.171-2.613-0.521C1.661,104.236,0,101.746,0,98.987V10.24c0-3.77,3.053-6.827,6.827-6.827
	h88.747c2.76,0,5.253,1.664,6.306,4.214c1.06,2.553,0.473,5.487-1.48,7.439l-88.747,88.747C10.346,105.12,8.6,105.813,6.827,105.813
	z M13.653,17.067v65.44l65.44-65.44H13.653z"/>
<polygon style="fill:#F97DA3;" points="6.827,324.267 95.573,324.267 6.827,235.52 "/>
<path d="M95.573,331.093H6.827c-3.773,0-6.827-3.057-6.827-6.827V235.52c0-2.76,1.661-5.25,4.214-6.306
	c2.56-1.053,5.494-0.473,7.439,1.48L100.4,319.44c1.954,1.954,2.54,4.886,1.48,7.439C100.826,329.429,98.333,331.093,95.573,331.093
	z M13.653,317.44h65.44L13.653,252V317.44z"/>
<path d="M292.413,70.547c-1.746,0-3.494-0.667-4.826-2l-22.354-22.351c-2.666-2.664-2.666-6.987,0-9.653
	c2.666-2.666,6.987-2.666,9.653,0l22.354,22.351c2.666,2.664,2.666,6.987,0,9.653C295.907,69.879,294.159,70.547,292.413,70.547z"/>
<polygon style="fill:#F97DA3;" points="292.413,63.72 327.68,98.987 327.68,10.24 238.933,10.24 270.063,41.37 "/>
<path d="M327.68,105.813c-1.773,0-3.519-0.693-4.826-2l-88.747-88.747c-1.954-1.954-2.54-4.89-1.48-7.439
	c1.053-2.55,3.546-4.214,6.306-4.214h88.747c3.773,0,6.827,3.057,6.827,6.827v88.747c0,2.76-1.661,5.25-4.214,6.306
	C329.446,105.643,328.561,105.813,327.68,105.813z M255.413,17.067l41.827,41.827l0,0l23.613,23.613v-65.44H255.413z"/>
<polygon style="fill:#F97DA3;" points="327.68,324.267 238.933,324.267 327.68,235.52 "/>
<path d="M327.68,331.093h-88.747c-2.76,0-5.253-1.664-6.306-4.214c-1.06-2.553-0.473-5.487,1.48-7.439l88.747-88.747
	c1.959-1.954,4.886-2.536,7.439-1.48c2.553,1.056,4.214,3.546,4.214,6.306v88.747C334.507,328.037,331.453,331.093,327.68,331.093z
	 M255.413,317.44h65.44V252L255.413,317.44z"/>
<g>
</g>
<g>
</g>
<g>
</g>
<g>
</g>
<g>
</g>
<g>
</g>
<g>
</g>
<g>
</g>
<g>
</g>
<g>
</g>
<g>
</g>
<g>
</g>
<g>
</g>
<g>
</g>
<g>
</g>
</svg>
