<?xml version="1.0" encoding="iso-8859-1"?>
<!-- Generator: Adobe Illustrator 19.0.0, SVG Export Plug-In . SVG Version: 6.00 Build 0)  -->
<svg version="1.1" id="Capa_1" xmlns="http://www.w3.org/2000/svg" xmlns:xlink="http://www.w3.org/1999/xlink" x="0px" y="0px"
	 viewBox="0 0 436.907 436.907" style="enable-background:new 0 0 436.907 436.907;" xml:space="preserve">
<rect x="6.827" y="194.56" style="fill:#F97DA3;" width="116.053" height="40.96"/>
<path d="M122.88,242.347H6.827C3.053,242.347,0,239.29,0,235.52v-40.96c0-3.77,3.053-6.827,6.827-6.827H122.88
	c3.773,0,6.827,3.057,6.827,6.827v40.96C129.707,239.29,126.653,242.347,122.88,242.347z M13.653,228.693h102.4v-27.307h-102.4
	V228.693z"/>
<polygon style="fill:#DDDDDD;" points="129.707,365.227 307.2,365.227 245.76,215.04 307.2,71.68 129.707,71.68 191.147,215.04 "/>
<path d="M307.2,372.053H129.707c-2.273,0-4.4-1.133-5.666-3.021c-1.266-1.889-1.514-4.287-0.654-6.39l60.36-147.543L123.433,74.37
	c-0.906-2.109-0.686-4.533,0.573-6.446c1.266-1.917,3.407-3.07,5.7-3.07H307.2c2.294,0,4.434,1.154,5.7,3.07
	c1.26,1.913,1.48,4.337,0.573,6.446L253.16,215.1l60.36,147.543c0.86,2.103,0.613,4.5-0.654,6.39
	C311.6,370.92,309.473,372.053,307.2,372.053z M139.873,358.4h157.16L239.44,217.624c-0.693-1.69-0.674-3.591,0.046-5.274
	l57.361-133.844H140.061L197.42,212.35c0.72,1.683,0.741,3.584,0.046,5.274L139.873,358.4z"/>
<polygon style="fill:#EE5281;" points="163.84,215.04 95.573,167.253 95.573,262.827 "/>
<path d="M95.573,269.653c-1.08,0-2.161-0.256-3.154-0.77c-2.26-1.178-3.673-3.511-3.673-6.057v-95.573
	c0-2.546,1.413-4.879,3.673-6.057c2.26-1.167,4.98-0.997,7.067,0.463l68.267,47.787c1.826,1.277,2.913,3.367,2.913,5.593
	s-1.087,4.316-2.913,5.593l-68.267,47.787C98.319,269.237,96.947,269.653,95.573,269.653z M102.4,180.364v69.354l49.533-34.678
	L102.4,180.364z"/>
<rect x="314.027" y="194.56" style="fill:#F97DA3;" width="116.053" height="40.96"/>
<path d="M430.08,242.347H314.027c-3.773,0-6.827-3.057-6.827-6.827v-40.96c0-3.77,3.053-6.827,6.827-6.827H430.08
	c3.773,0,6.827,3.057,6.827,6.827v40.96C436.907,239.29,433.853,242.347,430.08,242.347z M320.853,228.693h102.4v-27.307h-102.4
	V228.693z"/>
<polygon style="fill:#EE5281;" points="273.067,215.04 341.333,167.253 341.333,262.827 "/>
<path d="M341.333,269.653c-1.374,0-2.746-0.416-3.913-1.234l-68.267-47.787c-1.826-1.277-2.913-3.367-2.913-5.593
	c0-2.225,1.087-4.316,2.913-5.593l68.267-47.787c2.08-1.459,4.806-1.63,7.067-0.463c2.26,1.176,3.673,3.511,3.673,6.057v95.573
	c0,2.546-1.413,4.879-3.673,6.057C343.494,269.397,342.414,269.653,341.333,269.653z M284.974,215.04l49.533,34.676v-69.354
	L284.974,215.04z"/>
<g>
</g>
<g>
</g>
<g>
</g>
<g>
</g>
<g>
</g>
<g>
</g>
<g>
</g>
<g>
</g>
<g>
</g>
<g>
</g>
<g>
</g>
<g>
</g>
<g>
</g>
<g>
</g>
<g>
</g>
</svg>
