<?xml version="1.0" encoding="iso-8859-1"?>
<!-- Generator: Adobe Illustrator 19.0.0, SVG Export Plug-In . SVG Version: 6.00 Build 0)  -->
<svg version="1.1" id="Capa_1" xmlns="http://www.w3.org/2000/svg" xmlns:xlink="http://www.w3.org/1999/xlink" x="0px" y="0px"
	 viewBox="0 0 436.907 436.907" style="enable-background:new 0 0 436.907 436.907;" xml:space="preserve">
<rect x="197.973" y="6.827" style="fill:#F97DA3;" width="40.96" height="116.053"/>
<path d="M238.933,129.707h-40.96c-3.773,0-6.827-3.057-6.827-6.827V6.827c0-3.77,3.053-6.827,6.827-6.827h40.96
	c3.773,0,6.827,3.057,6.827,6.827V122.88C245.76,126.65,242.707,129.707,238.933,129.707z M204.8,116.053h27.307v-102.4H204.8
	V116.053z"/>
<rect x="197.973" y="314.027" style="fill:#F97DA3;" width="40.96" height="116.053"/>
<path d="M238.933,436.907h-40.96c-3.773,0-6.827-3.057-6.827-6.827V314.027c0-3.77,3.053-6.827,6.827-6.827h40.96
	c3.773,0,6.827,3.057,6.827,6.827V430.08C245.76,433.85,242.707,436.907,238.933,436.907z M204.8,423.253h27.307v-102.4H204.8
	V423.253z"/>
<polygon style="fill:#EE5281;" points="218.453,163.84 266.24,95.573 170.667,95.573 "/>
<path d="M218.453,170.667c-2.227,0-4.313-1.087-5.593-2.913l-47.787-68.267c-1.459-2.084-1.64-4.806-0.461-7.067
	c1.174-2.256,3.507-3.673,6.054-3.673h95.573c2.546,0,4.879,1.417,6.054,3.673c1.179,2.26,1,4.983-0.461,7.067l-47.787,68.267
	C222.766,169.58,220.681,170.667,218.453,170.667z M183.781,102.4l34.673,49.536l34.673-49.536H183.781z"/>
<polygon style="fill:#EE5281;" points="218.453,279.893 266.24,348.16 170.667,348.16 "/>
<path d="M266.24,354.987h-95.573c-2.546,0-4.879-1.417-6.054-3.673c-1.179-2.26-1-4.983,0.461-7.067l47.787-68.267
	c2.56-3.654,8.627-3.654,11.187,0l47.787,68.267c1.459,2.084,1.64,4.806,0.461,7.067C271.119,353.57,268.786,354.987,266.24,354.987
	z M183.781,341.333h69.347l-34.674-49.536L183.781,341.333z"/>
<rect x="129.707" y="184.32" style="fill:#DDDDDD;" width="177.493" height="75.093"/>
<path d="M307.2,266.24H129.707c-3.773,0-6.827-3.057-6.827-6.827V184.32c0-3.77,3.053-6.827,6.827-6.827H307.2
	c3.773,0,6.827,3.057,6.827,6.827v75.093C314.027,263.183,310.973,266.24,307.2,266.24z M136.533,252.587h163.84v-61.44h-163.84
	V252.587z"/>
<g>
</g>
<g>
</g>
<g>
</g>
<g>
</g>
<g>
</g>
<g>
</g>
<g>
</g>
<g>
</g>
<g>
</g>
<g>
</g>
<g>
</g>
<g>
</g>
<g>
</g>
<g>
</g>
<g>
</g>
</svg>
