<?xml version="1.0" encoding="iso-8859-1"?>
<!-- Generator: Adobe Illustrator 19.0.0, SVG Export Plug-In . SVG Version: 6.00 Build 0)  -->
<svg version="1.1" id="Capa_1" xmlns="http://www.w3.org/2000/svg" xmlns:xlink="http://www.w3.org/1999/xlink" x="0px" y="0px"
	 viewBox="0 0 436.907 436.907" style="enable-background:new 0 0 436.907 436.907;" xml:space="preserve">
<circle style="fill:#FCAD3A;" cx="218.453" cy="218.453" r="197.973"/>
<path style="fill:#8C6B37;" d="M218.453,430.08c-116.693,0-211.627-94.937-211.627-211.627S101.76,6.827,218.453,6.827
	S430.08,101.763,430.08,218.453S335.147,430.08,218.453,430.08z M218.453,34.133c-101.634,0-184.32,82.686-184.32,184.32
	s82.686,184.32,184.32,184.32s184.32-82.686,184.32-184.32S320.087,34.133,218.453,34.133z"/>
<path d="M218.453,436.907C98,436.907,0,338.91,0,218.453S98,0,218.453,0s218.453,97.997,218.453,218.453
	S338.906,436.907,218.453,436.907z M218.453,13.653c-112.927,0-204.8,91.873-204.8,204.8s91.873,204.8,204.8,204.8
	s204.8-91.873,204.8-204.8S331.38,13.653,218.453,13.653z M218.453,409.6c-105.4,0-191.147-85.746-191.147-191.147
	S113.053,27.307,218.453,27.307S409.6,113.053,409.6,218.453S323.854,409.6,218.453,409.6z M218.453,40.96
	c-97.874,0-177.493,79.623-177.493,177.493s79.619,177.493,177.493,177.493s177.493-79.623,177.493-177.493
	S316.327,40.96,218.453,40.96z"/>
<polygon style="fill:#83D816;" points="81.92,88.747 244.808,184.375 341.333,348.16 177.55,251.634 "/>
<path d="M341.333,354.987c-1.193,0-2.386-0.311-3.466-0.947L174.08,257.514c-1-0.587-1.833-1.423-2.42-2.423L76.034,92.203
	c-1.574-2.679-1.14-6.086,1.06-8.284c2.193-2.2,5.606-2.637,8.281-1.06l162.886,95.63c1.007,0.587,1.84,1.42,2.427,2.42
	l96.527,163.784c1.58,2.683,1.147,6.093-1.053,8.293C344.847,354.304,343.1,354.987,341.333,354.987z M182.54,246.649l139.5,82.214
	l-82.214-139.496l-138.733-81.451L182.54,246.649z"/>
<circle style="fill:#FEDA38;" cx="211.627" cy="218.453" r="20.48"/>
<path d="M211.627,245.76c-15.06,0-27.307-12.25-27.307-27.307s12.247-27.307,27.307-27.307c15.06,0,27.307,12.25,27.307,27.307
	S226.686,245.76,211.627,245.76z M211.627,204.8c-7.526,0-13.653,6.124-13.653,13.653s6.127,13.653,13.653,13.653
	c7.526,0,13.653-6.124,13.653-13.653S219.153,204.8,211.627,204.8z"/>
<g>
</g>
<g>
</g>
<g>
</g>
<g>
</g>
<g>
</g>
<g>
</g>
<g>
</g>
<g>
</g>
<g>
</g>
<g>
</g>
<g>
</g>
<g>
</g>
<g>
</g>
<g>
</g>
<g>
</g>
</svg>
