<?xml version="1.0" encoding="iso-8859-1"?>
<!-- Generator: Adobe Illustrator 19.0.0, SVG Export Plug-In . SVG Version: 6.00 Build 0)  -->
<svg version="1.1" id="Capa_1" xmlns="http://www.w3.org/2000/svg" xmlns:xlink="http://www.w3.org/1999/xlink" x="0px" y="0px"
	 viewBox="0 0 436.907 436.907" style="enable-background:new 0 0 436.907 436.907;" xml:space="preserve">
<g>
	<circle style="fill:#FCAD3A;" cx="218.453" cy="218.453" r="197.973"/>
	<polygon style="fill:#83D816;" points="348.16,88.747 252.53,251.634 88.747,348.16 185.272,184.375 	"/>
</g>
<path d="M88.747,354.987c-1.766,0-3.514-0.683-4.826-2c-2.2-2.2-2.633-5.61-1.053-8.293l96.527-163.784
	c0.587-1,1.42-1.833,2.427-2.42l162.886-95.63c2.673-1.577,6.086-1.14,8.281,1.06c2.2,2.196,2.633,5.603,1.06,8.284L258.422,255.09
	c-0.587,1-1.42,1.836-2.42,2.423L92.215,354.041C91.133,354.676,89.94,354.987,88.747,354.987z M190.254,189.367l-82.214,139.496
	l139.5-82.214l81.447-138.733L190.254,189.367z"/>
<circle style="fill:#FEDA38;" cx="218.453" cy="218.453" r="20.48"/>
<path d="M218.453,245.76c-15.06,0-27.307-12.25-27.307-27.307s12.247-27.307,27.307-27.307s27.307,12.25,27.307,27.307
	S233.513,245.76,218.453,245.76z M218.453,204.8c-7.526,0-13.653,6.124-13.653,13.653s6.127,13.653,13.653,13.653
	s13.653-6.124,13.653-13.653S225.98,204.8,218.453,204.8z"/>
<path style="fill:#8C6B37;" d="M218.453,430.08c-116.693,0-211.627-94.937-211.627-211.627S101.76,6.827,218.453,6.827
	S430.08,101.763,430.08,218.453S335.147,430.08,218.453,430.08z M218.453,34.133c-101.634,0-184.32,82.686-184.32,184.32
	s82.686,184.32,184.32,184.32s184.32-82.686,184.32-184.32S320.087,34.133,218.453,34.133z"/>
<path d="M218.453,436.907C98,436.907,0,338.91,0,218.453S98,0,218.453,0s218.453,97.997,218.453,218.453
	S338.906,436.907,218.453,436.907z M218.453,13.653c-112.927,0-204.8,91.873-204.8,204.8s91.873,204.8,204.8,204.8
	s204.8-91.873,204.8-204.8S331.38,13.653,218.453,13.653z M218.453,409.6c-105.4,0-191.147-85.746-191.147-191.147
	S113.053,27.307,218.453,27.307S409.6,113.053,409.6,218.453S323.854,409.6,218.453,409.6z M218.453,40.96
	c-97.874,0-177.493,79.623-177.493,177.493s79.619,177.493,177.493,177.493s177.493-79.623,177.493-177.493
	S316.327,40.96,218.453,40.96z"/>
<g>
</g>
<g>
</g>
<g>
</g>
<g>
</g>
<g>
</g>
<g>
</g>
<g>
</g>
<g>
</g>
<g>
</g>
<g>
</g>
<g>
</g>
<g>
</g>
<g>
</g>
<g>
</g>
<g>
</g>
</svg>
