<?xml version="1.0" encoding="iso-8859-1"?>
<!-- Generator: Adobe Illustrator 19.0.0, SVG Export Plug-In . SVG Version: 6.00 Build 0)  -->
<svg version="1.1" id="Capa_1" xmlns="http://www.w3.org/2000/svg" xmlns:xlink="http://www.w3.org/1999/xlink" x="0px" y="0px"
	 viewBox="0 0 436.907 436.907" style="enable-background:new 0 0 436.907 436.907;" xml:space="preserve">
<g>
	<circle style="fill:#FCAD3A;" cx="218.453" cy="218.453" r="197.973"/>
	<polygon style="fill:#83D816;" points="34.133,218.453 217.817,170.667 402.773,218.453 217.817,266.24 	"/>
</g>
<path d="M217.813,273.067c-0.58,0-1.154-0.073-1.72-0.22L32.413,225.06c-3.007-0.783-5.106-3.5-5.106-6.607s2.099-5.823,5.106-6.607
	l183.68-47.787c1.126-0.29,2.301-0.294,3.427-0.003l184.96,47.787c3.014,0.78,5.12,3.497,5.12,6.61s-2.106,5.83-5.12,6.61
	L219.52,272.85C218.96,272.993,218.387,273.067,217.813,273.067z M61.247,218.453l156.573,40.733l157.66-40.733L217.82,177.72
	L61.247,218.453z"/>
<circle style="fill:#FEDA38;" cx="218.453" cy="218.453" r="20.48"/>
<path d="M218.453,245.76c-15.06,0-27.307-12.25-27.307-27.307s12.247-27.307,27.307-27.307s27.307,12.25,27.307,27.307
	S233.513,245.76,218.453,245.76z M218.453,204.8c-7.526,0-13.653,6.124-13.653,13.653s6.127,13.653,13.653,13.653
	s13.653-6.124,13.653-13.653S225.98,204.8,218.453,204.8z"/>
<path style="fill:#8C6B37;" d="M218.453,430.08c-116.693,0-211.627-94.937-211.627-211.627S101.76,6.827,218.453,6.827
	S430.08,101.763,430.08,218.453S335.147,430.08,218.453,430.08z M218.453,34.133c-101.634,0-184.32,82.686-184.32,184.32
	s82.686,184.32,184.32,184.32s184.32-82.686,184.32-184.32S320.087,34.133,218.453,34.133z"/>
<path d="M218.453,436.907C98,436.907,0,338.91,0,218.453S98,0,218.453,0s218.453,97.997,218.453,218.453
	S338.906,436.907,218.453,436.907z M218.453,13.653c-112.927,0-204.8,91.873-204.8,204.8s91.873,204.8,204.8,204.8
	s204.8-91.873,204.8-204.8S331.38,13.653,218.453,13.653z M218.453,409.6c-105.4,0-191.147-85.746-191.147-191.147
	S113.053,27.307,218.453,27.307S409.6,113.053,409.6,218.453S323.854,409.6,218.453,409.6z M218.453,40.96
	c-97.874,0-177.493,79.623-177.493,177.493s79.619,177.493,177.493,177.493s177.493-79.623,177.493-177.493
	S316.327,40.96,218.453,40.96z"/>
<g>
</g>
<g>
</g>
<g>
</g>
<g>
</g>
<g>
</g>
<g>
</g>
<g>
</g>
<g>
</g>
<g>
</g>
<g>
</g>
<g>
</g>
<g>
</g>
<g>
</g>
<g>
</g>
<g>
</g>
</svg>
