<?xml version="1.0" encoding="iso-8859-1"?>
<!-- Generator: Adobe Illustrator 19.0.0, SVG Export Plug-In . SVG Version: 6.00 Build 0)  -->
<svg version="1.1" id="Capa_1" xmlns="http://www.w3.org/2000/svg" xmlns:xlink="http://www.w3.org/1999/xlink" x="0px" y="0px"
	 viewBox="0 0 402.773 402.773" style="enable-background:new 0 0 402.773 402.773;" xml:space="preserve">
<path style="fill:#26BBEC;" d="M269.653,177.493c33.932,0,61.44-27.508,61.44-61.44s-27.508-61.44-61.44-61.44
	c-9.969,0-19.383,2.374-27.709,6.588c-3.502-30.604-29.495-54.374-61.037-54.374c-33.932,0-61.44,27.508-61.44,61.44
	c0,4.702,0.527,9.279,1.527,13.677c-0.507-0.015-1.015-0.024-1.527-0.024c-26.392,0-47.787,21.395-47.787,47.787
	s21.395,47.787,47.787,47.787H269.653z"/>
<path d="M269.653,184.32H119.467c-30.114,0-54.613-24.499-54.613-54.613c0-27.933,21.081-51.033,48.16-54.233
	c-0.247-2.391-0.374-4.797-0.374-7.207C112.64,30.623,143.266,0,180.907,0c31.679,0,58.726,21.627,66.22,51.584
	c7.194-2.524,14.74-3.797,22.526-3.797c37.641,0,68.267,30.623,68.267,68.267S307.294,184.32,269.653,184.32z M119.467,88.747
	c-22.586,0-40.96,18.374-40.96,40.96s18.374,40.96,40.96,40.96h150.187c30.114,0,54.613-24.499,54.613-54.613
	S299.767,61.44,269.653,61.44c-8.666,0-16.954,1.969-24.627,5.85c-1.993,1.014-4.347,0.976-6.32-0.08
	c-1.966-1.06-3.287-3.014-3.54-5.233c-3.161-27.551-26.487-48.324-54.26-48.324c-30.114,0-54.613,24.499-54.613,54.613
	c0,4.113,0.454,8.204,1.353,12.163c0.473,2.063-0.039,4.227-1.386,5.861c-1.347,1.63-3.092,2.567-5.494,2.476L119.467,88.747z"/>
<path d="M290.133,368.64h-128.58c-45.793,0-83.046-36.75-83.046-81.92s37.253-81.92,83.046-81.92s83.046,36.75,83.046,81.92
	c0,3.77-3.053,6.827-6.827,6.827s-6.827-3.057-6.827-6.827c0-37.644-31.126-68.267-69.393-68.267S92.16,249.076,92.16,286.72
	s31.126,68.267,69.393,68.267h128.58c3.773,0,6.827,3.057,6.827,6.827C296.96,365.583,293.907,368.64,290.133,368.64z"/>
<polygon style="fill:#9BFC1D;" points="331.093,361.813 283.307,327.68 283.307,395.947 "/>
<path d="M283.307,402.773c-1.067,0-2.14-0.249-3.127-0.756c-2.273-1.171-3.7-3.514-3.7-6.071V327.68c0-2.557,1.427-4.9,3.7-6.071
	c2.273-1.176,5.014-0.966,7.093,0.514l47.787,34.133c1.794,1.283,2.86,3.354,2.86,5.557s-1.067,4.273-2.86,5.557l-47.787,34.133
	C286.094,402.343,284.706,402.773,283.307,402.773z M290.133,340.946v41.733l29.213-20.866L290.133,340.946z"/>
<rect x="119.467" y="75.093" width="34.133" height="13.653"/>
<g>
</g>
<g>
</g>
<g>
</g>
<g>
</g>
<g>
</g>
<g>
</g>
<g>
</g>
<g>
</g>
<g>
</g>
<g>
</g>
<g>
</g>
<g>
</g>
<g>
</g>
<g>
</g>
<g>
</g>
</svg>
