<?xml version="1.0" encoding="iso-8859-1"?>
<!-- Generator: Adobe Illustrator 19.0.0, SVG Export Plug-In . SVG Version: 6.00 Build 0)  -->
<svg version="1.1" id="Capa_1" xmlns="http://www.w3.org/2000/svg" xmlns:xlink="http://www.w3.org/1999/xlink" x="0px" y="0px"
	 viewBox="0 0 327.678 327.678" style="enable-background:new 0 0 327.678 327.678;" xml:space="preserve">
<path style="fill:#FEDA38;" d="M273.065,81.942c0-3.782-3.028-6.849-6.892-6.849h-13.525c-3.806,0-6.892,3.081-6.892,6.849v163.796
	c0,3.784,3.028,6.849,6.892,6.849h13.525c3.806,0,6.892-3.081,6.892-6.849V81.942z"/>
<path d="M266.172,259.413h-13.52c-7.567,0-13.72-6.137-13.72-13.677V81.942c0-7.54,6.153-13.677,13.72-13.677h13.52
	c7.567,0,13.72,6.137,13.72,13.677v163.794C279.892,253.276,273.739,259.413,266.172,259.413z M266.238,81.917l-13.587,0.003
	l-0.067,163.816l13.587,0.024l0.067-163.816C266.238,81.923,266.238,81.917,266.238,81.917z"/>
<path style="fill:#FFDD95;" d="M320.852,81.942c0-3.782-3.028-6.849-6.892-6.849h-13.525c-3.806,0-6.892,3.081-6.892,6.849v163.796
	c0,3.784,3.028,6.849,6.892,6.849h13.525c3.806,0,6.892-3.081,6.892-6.849V81.942z"/>
<path d="M313.958,259.413h-13.52c-7.567,0-13.72-6.137-13.72-13.677V81.942c0-7.54,6.153-13.677,13.72-13.677h13.52
	c7.567,0,13.72,6.137,13.72,13.677v163.794C327.678,253.276,321.526,259.413,313.958,259.413z M314.025,81.917l-13.587,0.003
	l-0.067,163.816l13.587,0.024l0.067-163.816C314.025,81.923,314.025,81.917,314.025,81.917z"/>
<path style="fill:#FCAD3A;" d="M225.278,81.942c0-3.782-3.028-6.849-6.892-6.849h-13.525c-3.806,0-6.892,3.081-6.892,6.849v163.796
	c0,3.784,3.028,6.849,6.892,6.849h13.525c3.806,0,6.892-3.081,6.892-6.849V81.942z"/>
<path d="M218.385,259.413h-13.52c-7.567,0-13.72-6.137-13.72-13.677V81.942c0-7.54,6.153-13.677,13.72-13.677h13.52
	c7.567,0,13.72,6.137,13.72,13.677v163.794C232.105,253.276,225.952,259.413,218.385,259.413z M218.452,81.917l-13.587,0.003
	l-0.067,163.816l13.587,0.024l0.067-163.816C218.452,81.923,218.452,81.917,218.452,81.917z"/>
<path style="fill:#9BFC1D;" d="M177.492,81.942c0-3.782-3.028-6.849-6.892-6.849h-13.525c-3.806,0-6.892,3.081-6.892,6.849v163.796
	c0,3.784,3.028,6.849,6.892,6.849H170.6c3.806,0,6.892-3.081,6.892-6.849V81.942z"/>
<path d="M170.598,259.413h-13.52c-7.567,0-13.72-6.137-13.72-13.677V81.942c0-7.54,6.153-13.677,13.72-13.677h13.52
	c7.567,0,13.72,6.137,13.72,13.677v163.794C184.318,253.276,178.166,259.413,170.598,259.413z M170.665,81.917l-13.587,0.003
	l-0.067,163.816l13.587,0.024l0.067-163.816C170.665,81.923,170.665,81.917,170.665,81.917z"/>
<path style="fill:#83D816;" d="M129.705,245.738c0,3.782-3.111,6.849-6.926,6.849h-21.204c-3.825,0-9.168-2.193-11.868-4.835
	L8.866,168.673c-2.729-2.669-2.697-7.028-0.056-9.605l81.099-79.203c2.698-2.635,7.984-4.772,11.783-4.772h21.117
	c3.809,0,6.897,3.081,6.897,6.849V245.738z"/>
<path d="M122.778,259.413h-21.199c-5.627,0-12.626-2.85-16.647-6.781l-80.84-79.08C1.452,170.965,0,167.506,0,163.816
	c0.007-3.669,1.44-7.09,4.047-9.634l81.101-79.2c3.966-3.889,10.933-6.717,16.546-6.717h21.12c7.567,0,13.72,6.137,13.72,13.677
	v163.794C136.532,253.276,130.365,259.413,122.778,259.413z M101.692,81.92c-2,0-5.6,1.454-7.006,2.823l-81.106,79.21l80.899,78.92
	c1.434,1.403,5.086,2.886,7.1,2.886l21.299-0.024V81.94L101.692,81.92z"/>
<g>
</g>
<g>
</g>
<g>
</g>
<g>
</g>
<g>
</g>
<g>
</g>
<g>
</g>
<g>
</g>
<g>
</g>
<g>
</g>
<g>
</g>
<g>
</g>
<g>
</g>
<g>
</g>
<g>
</g>
</svg>
