<?xml version="1.0" encoding="iso-8859-1"?>
<!-- Generator: Adobe Illustrator 19.0.0, SVG Export Plug-In . SVG Version: 6.00 Build 0)  -->
<svg version="1.1" id="Capa_1" xmlns="http://www.w3.org/2000/svg" xmlns:xlink="http://www.w3.org/1999/xlink" x="0px" y="0px"
	 viewBox="0 0 382.293 382.293" style="enable-background:new 0 0 382.293 382.293;" xml:space="preserve">
<path style="fill:#83D816;" d="M6.827,41.008c0-18.876,15.254-34.181,34.185-34.181h300.271c18.879,0,34.185,15.251,34.185,34.181
	v300.271c0,18.883-15.254,34.188-34.185,34.188H41.011c-18.879,0-34.185-15.258-34.185-34.188V41.008z"/>
<path d="M341.28,382.293H41.013C18.4,382.293,0,363.894,0,341.28V41.006C0,18.396,18.4,0,41.013,0H341.28
	c22.613,0,41.013,18.396,41.013,41.006v300.273C382.293,363.894,363.894,382.293,341.28,382.293z M41.013,13.653
	c-15.087,0-27.36,12.269-27.36,27.353v300.273c0,15.089,12.273,27.361,27.36,27.361H341.28c15.087,0,27.36-12.273,27.36-27.36
	V41.006c0-15.084-12.273-27.353-27.36-27.353H41.013z"/>
<path style="fill:#9BFC1D;" d="M6.827,41.008c0-18.876,15.254-34.181,34.185-34.181h300.271c18.879,0,34.185,15.258,34.185,34.181
	v252.484c0,18.883-15.254,34.188-34.185,34.188H41.011c-18.879,0-34.185-15.264-34.185-34.188V41.008z"/>
<path d="M341.28,334.507H41.013C18.4,334.507,0,316.107,0,293.494V41.006C0,18.396,18.4,0,41.013,0H341.28
	c22.613,0,41.013,18.396,41.013,41.006v252.486C382.293,316.107,363.894,334.507,341.28,334.507z M41.013,13.653
	c-15.087,0-27.36,12.269-27.36,27.353v252.486c0,15.089,12.273,27.361,27.36,27.361H341.28c15.087,0,27.36-12.273,27.36-27.36
	V41.006c0-15.084-12.273-27.353-27.36-27.353H41.013z"/>
<polygon style="fill:#DDDDDD;" points="191.147,95.573 259.413,238.933 122.88,238.933 "/>
<path d="M259.413,245.76H122.88c-2.34,0-4.519-1.2-5.774-3.183c-1.246-1.98-1.399-4.463-0.393-6.577L184.98,92.64
	c1.133-2.379,3.533-3.893,6.166-3.893c2.633,0,5.033,1.514,6.166,3.893L265.58,236c1.007,2.113,0.853,4.596-0.393,6.577
	C263.933,244.56,261.753,245.76,259.413,245.76z M133.693,232.107H248.6l-57.453-120.653L133.693,232.107z"/>
<g>
</g>
<g>
</g>
<g>
</g>
<g>
</g>
<g>
</g>
<g>
</g>
<g>
</g>
<g>
</g>
<g>
</g>
<g>
</g>
<g>
</g>
<g>
</g>
<g>
</g>
<g>
</g>
<g>
</g>
</svg>
