<?xml version="1.0" encoding="iso-8859-1"?>
<!-- Generator: Adobe Illustrator 19.0.0, SVG Export Plug-In . SVG Version: 6.00 Build 0)  -->
<svg version="1.1" id="Capa_1" xmlns="http://www.w3.org/2000/svg" xmlns:xlink="http://www.w3.org/1999/xlink" x="0px" y="0px"
	 viewBox="0 0 409.6 409.6" style="enable-background:new 0 0 409.6 409.6;" xml:space="preserve">
<path style="fill:#EE5281;" d="M402.773,20.456c0-7.528-6.06-13.629-13.629-13.629H20.456c-7.526,0-13.629,6.06-13.629,13.629
	v368.688c0,7.526,6.06,13.629,13.629,13.629h368.688c7.526,0,13.629-6.062,13.629-13.629V20.456z"/>
<path d="M389.147,409.6H20.453C9.173,409.6,0,400.423,0,389.144V20.456C0,9.177,9.173,0,20.453,0h368.693
	C400.427,0,409.6,9.177,409.6,20.456v368.686C409.6,400.423,400.427,409.6,389.147,409.6z M20.453,13.653
	c-3.746,0-6.799,3.053-6.799,6.803v368.686c0,3.75,3.053,6.803,6.799,6.803h368.693c3.746,0,6.799-3.053,6.799-6.803V20.456
	c0-3.75-3.053-6.803-6.799-6.803H20.453z"/>
<path d="M238.993,341.333h-163.9c-3.773,0-6.827-3.057-6.827-6.827s3.053-6.827,6.827-6.827h163.9
	c41.373,0,75.034-33.71,75.034-75.143v-61.339c0-41.434-33.661-75.145-75.034-75.145H143.36c-3.773,0-6.827-3.057-6.827-6.827
	s3.053-6.827,6.827-6.827h95.633c48.901,0,88.687,39.834,88.687,88.796v61.339C327.68,301.5,287.894,341.333,238.993,341.333z"/>
<path d="M157.02,150.187c-1.993,0-3.966-0.867-5.313-2.533l-27.307-33.743c-2.007-2.48-2.028-6.023-0.046-8.527l27.307-34.524
	c2.34-2.953,6.627-3.466,9.586-1.12c2.959,2.336,3.459,6.63,1.12,9.586l-23.921,30.24l23.873,29.5c2.374,2.93,1.92,7.226-1.014,9.6
	C160.046,149.69,158.527,150.187,157.02,150.187z"/>
<g>
</g>
<g>
</g>
<g>
</g>
<g>
</g>
<g>
</g>
<g>
</g>
<g>
</g>
<g>
</g>
<g>
</g>
<g>
</g>
<g>
</g>
<g>
</g>
<g>
</g>
<g>
</g>
<g>
</g>
</svg>
