<?xml version="1.0" encoding="iso-8859-1"?>
<!-- Generator: Adobe Illustrator 19.0.0, SVG Export Plug-In . SVG Version: 6.00 Build 0)  -->
<svg version="1.1" id="Capa_1" xmlns="http://www.w3.org/2000/svg" xmlns:xlink="http://www.w3.org/1999/xlink" x="0px" y="0px"
	 viewBox="0 0 409.6 409.6" style="enable-background:new 0 0 409.6 409.6;" xml:space="preserve">
<path style="fill:#EE5281;" d="M402.773,20.456c0-7.528-6.06-13.629-13.629-13.629H20.456c-7.526,0-13.629,6.06-13.629,13.629
	v368.688c0,7.526,6.06,13.629,13.629,13.629h368.688c7.526,0,13.629-6.062,13.629-13.629V20.456z"/>
<path d="M389.147,409.6H20.453C9.173,409.6,0,400.423,0,389.144V20.456C0,9.177,9.173,0,20.453,0h368.693
	C400.427,0,409.6,9.177,409.6,20.456v368.686C409.6,400.423,400.427,409.6,389.147,409.6z M20.453,13.653
	c-3.746,0-6.799,3.053-6.799,6.803v368.686c0,3.75,3.053,6.803,6.799,6.803h368.693c3.746,0,6.799-3.053,6.799-6.803V20.456
	c0-3.75-3.053-6.803-6.799-6.803H20.453z"/>
<path d="M177.553,341.333c-3.773,0-6.827-3.057-6.827-6.827s3.053-6.827,6.827-6.827c41.373,0,75.034-33.71,75.034-75.143v-61.339
	c0-41.434-33.661-75.145-75.034-75.145H81.92c-3.773,0-6.827-3.057-6.827-6.827s3.053-6.827,6.827-6.827h95.633
	c48.901,0,88.687,39.834,88.687,88.796v61.339C266.24,301.5,226.454,341.333,177.553,341.333z"/>
<path d="M334.507,225.28H266.24c-3.773,0-6.827-3.057-6.827-6.827s3.053-6.827,6.827-6.827h68.267c3.773,0,6.827,3.057,6.827,6.827
	S338.28,225.28,334.507,225.28z"/>
<path d="M95.58,150.187c-1.993,0-3.966-0.867-5.313-2.533l-27.307-33.743c-2.007-2.48-2.028-6.023-0.046-8.527l27.307-34.524
	c2.34-2.953,6.627-3.466,9.586-1.12c2.959,2.336,3.459,6.63,1.12,9.586l-23.921,30.239l23.873,29.5c2.374,2.93,1.92,7.226-1.014,9.6
	C98.606,149.69,97.087,150.187,95.58,150.187z"/>
<path d="M320.847,259.413c-1.507,0-3.026-0.497-4.287-1.521c-2.934-2.374-3.386-6.67-1.014-9.6l23.873-29.5l-23.921-30.24
	c-2.34-2.956-1.84-7.25,1.12-9.586c2.966-2.347,7.26-1.836,9.586,1.12l27.307,34.524c1.98,2.504,1.959,6.047-0.046,8.527
	l-27.307,33.742C324.813,258.546,322.84,259.413,320.847,259.413z"/>
<g>
</g>
<g>
</g>
<g>
</g>
<g>
</g>
<g>
</g>
<g>
</g>
<g>
</g>
<g>
</g>
<g>
</g>
<g>
</g>
<g>
</g>
<g>
</g>
<g>
</g>
<g>
</g>
<g>
</g>
</svg>
