<?xml version="1.0" encoding="iso-8859-1"?>
<!-- Generator: Adobe Illustrator 19.0.0, SVG Export Plug-In . SVG Version: 6.00 Build 0)  -->
<svg version="1.1" id="Capa_1" xmlns="http://www.w3.org/2000/svg" xmlns:xlink="http://www.w3.org/1999/xlink" x="0px" y="0px"
	 viewBox="0 0 418.556 418.556" style="enable-background:new 0 0 418.556 418.556;" xml:space="preserve">
<path d="M87.127,190.785c0.64,3.604,4.062,6.139,7.642,5.661c3.579-0.478,5.961-3.789,5.32-7.393l-6.881-38.707l-37.658-5.688
	c-3.616-0.546-6.857,1.925-7.241,5.521c-0.382,3.596,2.237,6.953,5.854,7.499l27.826,4.204L87.127,190.785z"/>
<path d="M62.991,214.922c0.64,3.604,4.062,6.139,7.642,5.661c3.579-0.478,5.961-3.789,5.32-7.393l-6.881-38.707l-37.658-5.688
	c-3.616-0.546-6.857,1.925-7.241,5.521c-0.382,3.596,2.237,6.953,5.854,7.499l27.825,4.204L62.991,214.922z"/>
<path d="M38.855,239.058c0.64,3.604,4.062,6.139,7.642,5.661c3.579-0.478,5.961-3.789,5.32-7.393l-6.881-38.707L7.278,192.93
	c-3.616-0.546-6.857,1.925-7.241,5.521c-0.382,3.596,2.237,6.953,5.854,7.499l27.826,4.204L38.855,239.058z"/>
<rect x="-16.433" y="125.177" transform="matrix(-0.7071 0.7071 -0.7071 -0.7071 285.8793 145.5928)" width="258.438" height="13.653"/>
<polygon style="fill:#9BFC1D;" points="237.948,6.829 204.158,98.545 184.849,59.926 146.232,40.619 "/>
<path d="M204.154,105.373c-2.574,0-4.946-1.454-6.106-3.773l-18.287-36.584l-36.588-18.29c-2.434-1.217-3.913-3.767-3.76-6.484
	c0.147-2.72,1.9-5.086,4.453-6.03l91.72-33.79c2.48-0.92,5.306-0.304,7.187,1.58c1.886,1.884,2.5,4.687,1.58,7.187l-33.792,91.716
	c-0.94,2.553-3.313,4.306-6.026,4.456C204.409,105.37,204.282,105.373,204.154,105.373z M163.394,41.569L187.9,53.82
	c1.319,0.66,2.393,1.734,3.053,3.053l12.254,24.506l23.219-63.031L163.394,41.569z"/>
<path d="M105.75,345.941c0.64,3.604,4.062,6.139,7.642,5.661c3.579-0.478,5.961-3.789,5.32-7.393l-6.881-38.707l-37.658-5.688
	c-3.616-0.546-6.857,1.925-7.241,5.521c-0.382,3.596,2.237,6.953,5.854,7.499l27.825,4.204L105.75,345.941z"/>
<path d="M81.612,370.077c0.64,3.604,4.062,6.139,7.642,5.661c3.579-0.478,5.961-3.789,5.32-7.393l-6.881-38.707l-37.658-5.688
	c-3.616-0.546-6.857,1.925-7.241,5.521c-0.382,3.596,2.237,6.953,5.854,7.499l27.826,4.204L81.612,370.077z"/>
<path d="M57.477,394.213c0.64,3.604,4.062,6.139,7.642,5.661c3.579-0.478,5.961-3.789,5.32-7.393l-6.881-38.707L25.9,348.085
	c-3.616-0.546-6.857,1.925-7.241,5.521c-0.382,3.596,2.237,6.953,5.854,7.499l27.825,4.204L57.477,394.213z"/>
<rect x="-11.953" y="246.184" transform="matrix(-0.7071 0.7071 -0.7071 -0.7071 461.4974 314.8635)" width="354.983" height="13.653"/>
<polygon style="fill:#8C6B37;" points="324.836,93.717 291.046,185.435 271.738,146.816 233.12,127.507 "/>
<path d="M291.048,192.26c-2.574,0-4.946-1.454-6.106-3.773l-18.294-36.581l-36.581-18.29c-2.434-1.217-3.913-3.767-3.76-6.484
	c0.147-2.72,1.9-5.086,4.453-6.03l91.713-33.794c2.487-0.923,5.306-0.307,7.187,1.58c1.881,1.884,2.5,4.687,1.58,7.187
	l-33.787,91.716c-0.94,2.553-3.313,4.306-6.026,4.456C291.302,192.256,291.176,192.26,291.048,192.26z M250.289,128.459
	l24.499,12.25c1.319,0.66,2.393,1.734,3.053,3.053l12.254,24.503l23.219-63.031L250.289,128.459z"/>
<path d="M260.904,364.565c0.64,3.604,4.062,6.139,7.642,5.661c3.579-0.478,5.961-3.789,5.32-7.393l-6.881-38.707l-37.658-5.688
	c-3.616-0.546-6.857,1.925-7.241,5.521c-0.382,3.596,2.237,6.953,5.854,7.499l27.825,4.203L260.904,364.565z"/>
<path d="M236.769,388.7c0.642,3.604,4.062,6.139,7.642,5.661c3.579-0.478,5.961-3.789,5.32-7.393l-6.881-38.707l-37.658-5.688
	c-3.616-0.546-6.857,1.925-7.241,5.521c-0.382,3.596,2.237,6.953,5.854,7.499l27.825,4.203L236.769,388.7z"/>
<path d="M212.633,412.836c0.642,3.604,4.062,6.139,7.642,5.661c3.579-0.478,5.961-3.789,5.32-7.393l-6.881-38.707l-37.658-5.688
	c-3.616-0.546-6.857,1.925-7.241,5.521c-0.382,3.596,2.237,6.953,5.854,7.499l27.826,4.204L212.633,412.836z"/>
<rect x="157.337" y="298.944" transform="matrix(-0.7071 0.7071 -0.7071 -0.7071 705.3949 319.3572)" width="258.438" height="13.653"/>
<polygon style="fill:#FCAD3A;" points="411.726,180.606 377.936,272.323 358.626,233.706 320.01,214.397 "/>
<path d="M377.936,279.149c-2.574,0-4.946-1.454-6.106-3.773l-18.287-36.584l-36.588-18.29c-2.434-1.217-3.913-3.767-3.76-6.484
	c0.147-2.72,1.9-5.086,4.453-6.03l91.72-33.79c2.48-0.92,5.299-0.304,7.187,1.58c1.888,1.884,2.5,4.687,1.58,7.187l-33.794,91.716
	c-0.94,2.553-3.313,4.306-6.026,4.456C378.188,279.146,378.062,279.149,377.936,279.149z M337.175,215.346l24.506,12.254
	c1.319,0.66,2.393,1.734,3.053,3.053l12.247,24.503l23.226-63.031L337.175,215.346z"/>
<g>
</g>
<g>
</g>
<g>
</g>
<g>
</g>
<g>
</g>
<g>
</g>
<g>
</g>
<g>
</g>
<g>
</g>
<g>
</g>
<g>
</g>
<g>
</g>
<g>
</g>
<g>
</g>
<g>
</g>
</svg>
