<?xml version="1.0" encoding="iso-8859-1"?>
<!-- Generator: Adobe Illustrator 19.0.0, SVG Export Plug-In . SVG Version: 6.00 Build 0)  -->
<svg version="1.1" id="Capa_1" xmlns="http://www.w3.org/2000/svg" xmlns:xlink="http://www.w3.org/1999/xlink" x="0px" y="0px"
	 viewBox="0 0 327.625 327.625" style="enable-background:new 0 0 327.625 327.625;" xml:space="preserve">
<path d="M53.99,233.209c-3.604-0.642-6.139-4.062-5.661-7.642c0.478-3.579,3.789-5.961,7.393-5.32l38.707,6.881l5.688,37.658
	c0.546,3.616-1.925,6.857-5.521,7.241c-3.596,0.382-6.953-2.237-7.499-5.854l-4.204-27.826L53.99,233.209z"/>
<path d="M29.855,257.344c-3.604-0.64-6.139-4.062-5.661-7.642c0.478-3.579,3.789-5.961,7.393-5.32l38.707,6.881l5.688,37.658
	c0.546,3.616-1.925,6.857-5.521,7.241c-3.596,0.382-6.953-2.237-7.499-5.854l-4.204-27.826L29.855,257.344z"/>
<path d="M5.719,281.48c-3.604-0.64-6.139-4.062-5.661-7.642c0.478-3.579,3.789-5.961,7.393-5.32l38.707,6.881l5.688,37.658
	c0.546,3.616-1.925,6.857-5.521,7.241c-3.596,0.382-6.953-2.237-7.499-5.854l-4.204-27.826L5.719,281.48z"/>
<rect x="-30.574" y="166.596" transform="matrix(-0.7071 0.7071 -0.7071 -0.7071 373.4327 192.1649)" width="354.983" height="13.653"/>
<polygon style="fill:#8C6B37;" points="306.215,14.121 214.499,47.911 253.116,67.218 272.425,105.837 "/>
<path d="M272.427,112.662c-2.574,0-4.946-1.454-6.106-3.773l-18.294-36.584l-36.581-18.289c-2.434-1.22-3.913-3.767-3.76-6.484
	c0.147-2.72,1.9-5.086,4.453-6.03l91.713-33.79c2.48-0.923,5.299-0.307,7.187,1.58c1.881,1.884,2.5,4.687,1.58,7.187l-33.787,91.716
	c-0.94,2.553-3.313,4.306-6.026,4.456C272.679,112.658,272.553,112.662,272.427,112.662z M231.666,48.858l24.499,12.254
	c1.319,0.66,2.393,1.734,3.053,3.053l12.254,24.503l23.219-63.031L231.666,48.858z"/>
<path d="M240.498,266.344c-0.64,3.604-4.062,6.139-7.642,5.661c-3.579-0.478-5.961-3.789-5.32-7.393l6.881-38.707l37.658-5.688
	c3.616-0.546,6.857,1.925,7.241,5.521c0.382,3.596-2.237,6.953-5.854,7.499l-27.826,4.204L240.498,266.344z"/>
<path d="M264.634,290.481c-0.642,3.604-4.062,6.139-7.642,5.661c-3.579-0.478-5.961-3.789-5.32-7.393l6.881-38.707l37.658-5.688
	c3.616-0.546,6.857,1.925,7.241,5.521c0.382,3.596-2.237,6.953-5.854,7.499l-27.826,4.204L264.634,290.481z"/>
<path d="M288.77,314.617c-0.642,3.604-4.062,6.139-7.642,5.661c-3.579-0.478-5.961-3.789-5.32-7.393l6.881-38.707l37.658-5.688
	c3.616-0.546,6.857,1.925,7.241,5.521c0.382,3.596-2.237,6.953-5.854,7.499l-27.826,4.204L288.77,314.617z"/>
<rect x="173.882" y="-4.072" transform="matrix(-0.7071 0.7071 -0.7071 -0.7071 431.1144 168.2656)" width="13.653" height="354.983"/>
<polygon style="fill:#9BFC1D;" points="21.41,14.121 55.2,105.837 74.509,67.22 113.128,47.911 "/>
<path d="M55.199,112.662c-0.126,0-0.253-0.003-0.381-0.01c-2.714-0.15-5.086-1.903-6.026-4.456L15.005,16.479
	c-0.92-2.5-0.3-5.303,1.58-7.187c1.881-1.886,4.693-2.504,7.187-1.58l91.713,33.794c2.553,0.944,4.306,3.309,4.453,6.03
	c0.154,2.717-1.326,5.267-3.76,6.484l-36.581,18.29L61.303,108.89C60.146,111.209,57.772,112.662,55.199,112.662z M32.933,25.639
	l23.219,63.031l12.254-24.503c0.66-1.319,1.734-2.393,3.053-3.053l24.499-12.25L32.933,25.639z"/>
<g>
</g>
<g>
</g>
<g>
</g>
<g>
</g>
<g>
</g>
<g>
</g>
<g>
</g>
<g>
</g>
<g>
</g>
<g>
</g>
<g>
</g>
<g>
</g>
<g>
</g>
<g>
</g>
<g>
</g>
</svg>
