<?xml version="1.0" encoding="iso-8859-1"?>
<!-- Generator: Adobe Illustrator 19.0.0, SVG Export Plug-In . SVG Version: 6.00 Build 0)  -->
<svg version="1.1" id="Capa_1" xmlns="http://www.w3.org/2000/svg" xmlns:xlink="http://www.w3.org/1999/xlink" x="0px" y="0px"
	 viewBox="0 0 409.601 409.601" style="enable-background:new 0 0 409.601 409.601;" xml:space="preserve">
<path d="M181.371,69.507c-3.002-2.096-7.214-1.469-9.405,1.401c-2.193,2.869-1.536,6.895,1.466,8.991l32.234,22.502l30.65-22.607
	c2.942-2.171,3.487-6.211,1.217-9.025c-2.272-2.813-6.499-3.333-9.441-1.162l-22.647,16.703L181.371,69.507z"/>
<path d="M181.371,35.373c-3.002-2.096-7.214-1.469-9.405,1.401c-2.193,2.869-1.536,6.895,1.466,8.991l32.234,22.502l30.65-22.607
	c2.942-2.171,3.487-6.211,1.217-9.025c-2.272-2.813-6.499-3.333-9.441-1.162l-22.647,16.703L181.371,35.373z"/>
<path d="M181.371,1.24c-3.002-2.096-7.214-1.469-9.405,1.401c-2.193,2.869-1.536,6.895,1.466,8.991l32.234,22.502l30.65-22.607
	c2.942-2.171,3.487-6.211,1.217-9.025c-2.272-2.813-6.499-3.333-9.441-1.162l-22.647,16.703L181.371,1.24z"/>
<rect x="197.975" y="0.001" width="13.653" height="354.987"/>
<polygon style="fill:#9BFC1D;" points="204.801,402.774 163.841,314.028 204.801,327.681 245.761,314.028 "/>
<path d="M204.801,409.601c-2.661,0-5.081-1.546-6.2-3.966l-40.96-88.747c-1.14-2.47-0.7-5.383,1.113-7.414
	c1.819-2.024,4.673-2.787,7.247-1.923l38.801,12.933l38.799-12.933c2.58-0.867,5.427-0.106,7.247,1.923
	c1.812,2.029,2.253,4.943,1.113,7.414L211,405.635C209.882,408.055,207.462,409.601,204.801,409.601z M176.655,325.495
	l28.146,60.989l28.146-60.989l-25.987,8.663c-1.399,0.466-2.92,0.466-4.32,0L176.655,325.495z"/>
<g>
</g>
<g>
</g>
<g>
</g>
<g>
</g>
<g>
</g>
<g>
</g>
<g>
</g>
<g>
</g>
<g>
</g>
<g>
</g>
<g>
</g>
<g>
</g>
<g>
</g>
<g>
</g>
<g>
</g>
</svg>
