<?xml version="1.0" encoding="iso-8859-1"?>
<!-- Generator: Adobe Illustrator 19.0.0, SVG Export Plug-In . SVG Version: 6.00 Build 0)  -->
<svg version="1.1" id="Capa_1" xmlns="http://www.w3.org/2000/svg" xmlns:xlink="http://www.w3.org/1999/xlink" x="0px" y="0px"
	 viewBox="0 0 409.601 409.601" style="enable-background:new 0 0 409.601 409.601;" xml:space="preserve">
<path d="M69.507,228.229c-2.096,3.002-1.469,7.214,1.401,9.405c2.869,2.193,6.895,1.536,8.991-1.466l22.502-32.234l-22.607-30.65
	c-2.171-2.942-6.211-3.487-9.025-1.217c-2.813,2.272-3.333,6.499-1.162,9.441l16.703,22.647L69.507,228.229z"/>
<path d="M35.373,228.229c-2.096,3.002-1.469,7.214,1.401,9.405c2.869,2.193,6.895,1.536,8.991-1.466l22.502-32.234l-22.607-30.65
	c-2.171-2.942-6.211-3.487-9.025-1.217c-2.813,2.272-3.333,6.499-1.162,9.441l16.703,22.647L35.373,228.229z"/>
<path d="M1.24,228.229c-2.096,3.002-1.469,7.214,1.401,9.405c2.869,2.193,6.895,1.536,8.991-1.466l22.502-32.234l-22.607-30.65
	c-2.171-2.942-6.211-3.487-9.025-1.217c-2.813,2.272-3.333,6.499-1.162,9.441l16.703,22.647L1.24,228.229z"/>
<rect x="0.001" y="197.974" width="354.987" height="13.653"/>
<polygon style="fill:#9BFC1D;" points="402.774,204.799 314.028,245.759 327.681,204.799 314.028,163.839 "/>
<path d="M314.028,252.585c-1.647,0-3.273-0.597-4.553-1.741c-2.028-1.816-2.787-4.663-1.92-7.247l12.933-38.799l-12.933-38.799
	c-0.867-2.584-0.106-5.431,1.92-7.247c2.039-1.819,4.96-2.243,7.414-1.113l88.747,40.96c2.42,1.116,3.966,3.536,3.966,6.2
	c0,2.664-1.546,5.084-3.966,6.2l-88.747,40.96C315.975,252.379,315,252.585,314.028,252.585z M325.495,176.649l8.66,25.991
	c0.473,1.403,0.473,2.917,0,4.32l-8.66,25.991l60.986-28.15L325.495,176.649z"/>
<g>
</g>
<g>
</g>
<g>
</g>
<g>
</g>
<g>
</g>
<g>
</g>
<g>
</g>
<g>
</g>
<g>
</g>
<g>
</g>
<g>
</g>
<g>
</g>
<g>
</g>
<g>
</g>
<g>
</g>
</svg>
