<?xml version="1.0" encoding="iso-8859-1"?>
<!-- Generator: Adobe Illustrator 19.0.0, SVG Export Plug-In . SVG Version: 6.00 Build 0)  -->
<svg version="1.1" id="Capa_1" xmlns="http://www.w3.org/2000/svg" xmlns:xlink="http://www.w3.org/1999/xlink" x="0px" y="0px"
	 viewBox="0 0 409.379 409.379" style="enable-background:new 0 0 409.379 409.379;" xml:space="preserve">
<polygon style="fill:#26BBEC;" points="204.689,402.552 129.596,279.672 279.783,279.672 "/>
<path d="M204.689,409.379c-2.381,0-4.588-1.237-5.827-3.267l-75.093-122.88c-1.287-2.106-1.333-4.746-0.126-6.9
	c1.207-2.154,3.487-3.487,5.953-3.487h150.187c2.466,0,4.746,1.333,5.953,3.487c1.207,2.154,1.161,4.794-0.126,6.9l-75.093,122.88
	C209.277,408.141,207.07,409.379,204.689,409.379z M141.77,286.499l62.92,102.96l62.92-102.96H141.77z"/>
<polygon style="fill:#26BBEC;" points="204.689,6.605 129.596,129.485 279.783,129.485 "/>
<path d="M279.783,136.312H129.596c-2.466,0-4.746-1.333-5.953-3.487c-1.207-2.154-1.161-4.794,0.126-6.9l75.093-122.88
	c2.48-4.06,9.173-4.06,11.653,0l75.093,122.88c1.287,2.106,1.333,4.746,0.126,6.9C284.529,134.979,282.249,136.312,279.783,136.312z
	 M141.77,122.659h125.839l-62.92-102.96L141.77,122.659z"/>
<circle style="fill:#EE5281;" cx="204.689" cy="204.587" r="27.307"/>
<path d="M204.689,238.712c-18.819,0-34.133-15.314-34.133-34.133s15.314-34.133,34.133-34.133s34.133,15.314,34.133,34.133
	S223.509,238.712,204.689,238.712z M204.689,184.099c-11.293,0-20.48,9.187-20.48,20.48c0,11.293,9.187,20.48,20.48,20.48
	c11.293,0,20.48-9.187,20.48-20.48C225.169,193.286,215.982,184.099,204.689,184.099z"/>
<g>
</g>
<g>
</g>
<g>
</g>
<g>
</g>
<g>
</g>
<g>
</g>
<g>
</g>
<g>
</g>
<g>
</g>
<g>
</g>
<g>
</g>
<g>
</g>
<g>
</g>
<g>
</g>
<g>
</g>
</svg>
