<?xml version="1.0" encoding="iso-8859-1"?>
<!-- Generator: Adobe Illustrator 19.0.0, SVG Export Plug-In . SVG Version: 6.00 Build 0)  -->
<svg version="1.1" id="Capa_1" xmlns="http://www.w3.org/2000/svg" xmlns:xlink="http://www.w3.org/1999/xlink" x="0px" y="0px"
	 viewBox="0 0 300.374 300.374" style="enable-background:new 0 0 300.374 300.374;" xml:space="preserve">
<polygon style="fill:#26BBEC;" points="6.826,293.547 41.432,150.187 150.186,258.943 "/>
<path d="M6.826,300.374c-1.787,0-3.533-0.703-4.826-2c-1.679-1.679-2.367-4.116-1.807-6.431l34.606-143.36
	c0.58-2.4,2.406-4.301,4.787-4.966c2.347-0.671,4.92-0.01,6.673,1.743l108.754,108.757c1.746,1.746,2.413,4.301,1.746,6.676
	c-0.674,2.377-2.574,4.207-4.973,4.787L8.425,300.183C7.9,300.311,7.359,300.374,6.826,300.374z M45.213,163.621L16.087,284.29
	l120.666-29.126L45.213,163.621z"/>
<polygon style="fill:#26BBEC;" points="293.546,6.827 150.186,41.432 258.94,150.187 "/>
<path d="M258.94,157.014c-1.787,0-3.526-0.7-4.826-2L145.36,46.257c-1.746-1.746-2.413-4.301-1.746-6.676
	c0.674-2.377,2.574-4.207,4.973-4.787L291.947,0.19c2.294-0.556,4.746,0.126,6.427,1.811c1.679,1.679,2.367,4.116,1.807,6.431
	l-34.606,143.36c-0.58,2.4-2.406,4.301-4.787,4.966C260.179,156.93,259.56,157.014,258.94,157.014z M163.619,45.21l91.54,91.544
	l29.126-120.67L163.619,45.21z"/>
<ellipse style="fill:#EE5281;" cx="143.362" cy="150.201" rx="27.303" ry="27.303"/>
<path d="M143.359,184.304c-8.74,0-17.48-3.326-24.134-9.981c-13.307-13.31-13.307-34.963,0-48.273
	c13.307-13.307,34.959-13.307,48.266,0c13.307,13.31,13.307,34.963,0,48.273l0,0C160.839,180.977,152.099,184.304,143.359,184.304z
	 M143.359,129.718c-5.246,0-10.487,1.997-14.479,5.987c-7.987,7.987-7.987,20.98,0,28.967c7.987,7.98,20.973,7.98,28.96,0
	c7.987-7.987,7.987-20.98,0-28.967C153.847,131.714,148.606,129.718,143.359,129.718z M162.665,169.498h0.067H162.665z"/>
<g>
</g>
<g>
</g>
<g>
</g>
<g>
</g>
<g>
</g>
<g>
</g>
<g>
</g>
<g>
</g>
<g>
</g>
<g>
</g>
<g>
</g>
<g>
</g>
<g>
</g>
<g>
</g>
<g>
</g>
</svg>
