<?xml version="1.0" encoding="iso-8859-1"?>
<!-- Generator: Adobe Illustrator 19.0.0, SVG Export Plug-In . SVG Version: 6.00 Build 0)  -->
<svg version="1.1" id="Capa_1" xmlns="http://www.w3.org/2000/svg" xmlns:xlink="http://www.w3.org/1999/xlink" x="0px" y="0px"
	 viewBox="0 0 443.732 443.732" style="enable-background:new 0 0 443.732 443.732;" xml:space="preserve">
<rect x="95.573" y="242.345" style="fill:#26BBEC;" width="157.013" height="81.92"/>
<path d="M252.587,331.09H95.573c-3.773,0-6.827-3.057-6.827-6.827v-81.92c0-3.77,3.053-6.827,6.827-6.827h157.013
	c3.773,0,6.827,3.057,6.827,6.827v81.92C259.413,328.034,256.36,331.09,252.587,331.09z M102.4,317.437h143.36V249.17H102.4V317.437
	z"/>
<polygon style="fill:#9BFC1D;" points="6.827,283.3 102.4,201.384 102.4,365.224 "/>
<path d="M102.4,372.05c-1.601,0-3.18-0.563-4.441-1.644L2.386,288.483C0.872,287.186,0,285.294,0,283.3s0.874-3.886,2.386-5.183
	l95.573-81.917c2.028-1.734,4.873-2.137,7.293-1.021c2.42,1.116,3.975,3.536,3.975,6.204v163.84c0,2.666-1.553,5.086-3.973,6.204
	C104.34,371.847,103.366,372.05,102.4,372.05z M17.314,283.3l78.259,67.081V216.228L17.314,283.3z"/>
<rect x="197.973" y="119.464" style="fill:#26BBEC;" width="157.013" height="81.92"/>
<path d="M354.987,208.21H197.973c-3.773,0-6.827-3.057-6.827-6.827v-81.92c0-3.77,3.053-6.827,6.827-6.827h157.013
	c3.773,0,6.827,3.057,6.827,6.827v81.92C361.813,205.154,358.76,208.21,354.987,208.21z M204.8,194.557h143.36V126.29H204.8V194.557
	z"/>
<polygon style="fill:#9BFC1D;" points="436.907,160.42 341.333,78.504 341.333,242.344 "/>
<path d="M341.333,249.17c-0.966,0-1.94-0.203-2.854-0.623c-2.42-1.116-3.973-3.536-3.973-6.204V78.504
	c0-2.666,1.553-5.086,3.973-6.204c2.427-1.103,5.274-0.713,7.293,1.021l95.573,81.917c1.514,1.297,2.386,3.19,2.386,5.183
	c0,1.993-0.874,3.886-2.386,5.183l-95.573,81.923C344.513,248.607,342.934,249.17,341.333,249.17z M348.16,93.347v134.153
	l78.259-67.081L348.16,93.347z"/>
<g>
</g>
<g>
</g>
<g>
</g>
<g>
</g>
<g>
</g>
<g>
</g>
<g>
</g>
<g>
</g>
<g>
</g>
<g>
</g>
<g>
</g>
<g>
</g>
<g>
</g>
<g>
</g>
<g>
</g>
</svg>
