<?xml version="1.0" encoding="iso-8859-1"?>
<!-- Generator: Adobe Illustrator 19.0.0, SVG Export Plug-In . SVG Version: 6.00 Build 0)  -->
<svg version="1.1" id="Capa_1" xmlns="http://www.w3.org/2000/svg" xmlns:xlink="http://www.w3.org/1999/xlink" x="0px" y="0px"
	 viewBox="0 0 399.831 399.831" style="enable-background:new 0 0 399.831 399.831;" xml:space="preserve">
<rect x="128.644" y="238.61" transform="matrix(-0.7071 0.7071 -0.7071 -0.7071 551.3131 330.7782)" style="fill:#26BBEC;" width="157.012" height="81.919"/>
<path d="M180.611,370.867c-1.812,0-3.546-0.72-4.826-2l-57.926-57.926c-1.28-1.28-2-3.017-2-4.826s0.72-3.546,2-4.826
	l111.027-111.024c1.28-1.28,3.014-2,4.826-2l0,0c1.812,0,3.546,0.72,4.826,2l57.921,57.926c2.666,2.666,2.666,6.987,0,9.653
	l-111.02,111.024C184.157,370.147,182.423,370.867,180.611,370.867z M132.336,306.115l48.273,48.273l101.367-101.369l-48.266-48.273
	L132.336,306.115z"/>
<polygon style="fill:#9BFC1D;" points="93.719,393.005 103.372,267.498 219.226,383.35 "/>
<path d="M93.716,399.831c-1.807,0-3.54-0.713-4.826-2c-1.406-1.41-2.133-3.364-1.98-5.35l9.653-125.507
	c0.207-2.661,1.94-4.953,4.441-5.879c2.487-0.923,5.306-0.311,7.194,1.577L224.05,378.525c1.886,1.884,2.5,4.693,1.574,7.197
	c-0.92,2.5-3.22,4.233-5.873,4.437l-125.507,9.653C94.064,399.824,93.89,399.831,93.716,399.831z M109.037,282.821l-7.9,102.767
	l102.767-7.904L109.037,282.821z"/>
<rect x="114.168" y="79.302" transform="matrix(-0.7071 0.7071 -0.7071 -0.7071 413.9536 69.0584)" style="fill:#26BBEC;" width="157.012" height="81.919"/>
<path d="M166.123,211.571L166.123,211.571c-1.812,0-3.546-0.72-4.826-2l-57.921-57.926c-2.666-2.666-2.666-6.987,0-9.653
	l111.02-111.024c2.56-2.56,7.093-2.56,9.653,0l57.926,57.926c1.28,1.28,2,3.017,2,4.826s-0.72,3.546-2,4.826L170.948,209.57
	C169.669,210.85,167.937,211.571,166.123,211.571z M117.857,146.818l48.266,48.273L267.495,93.722l-48.273-48.273L117.857,146.818z"
	/>
<polygon style="fill:#9BFC1D;" points="306.114,6.83 180.607,16.485 296.461,132.337 "/>
<path d="M296.463,139.165c-1.78,0-3.526-0.696-4.826-2L175.783,21.311c-1.886-1.884-2.5-4.693-1.574-7.197
	c0.92-2.5,3.22-4.233,5.873-4.437l125.507-9.653c2.028-0.171,3.941,0.57,5.354,1.98c1.406,1.41,2.133,3.364,1.98,5.35
	l-9.653,125.507c-0.207,2.661-1.94,4.953-4.441,5.879C298.064,139.024,297.256,139.165,296.463,139.165z M195.93,22.151
	l94.867,94.863l7.9-102.767L195.93,22.151z"/>
<g>
</g>
<g>
</g>
<g>
</g>
<g>
</g>
<g>
</g>
<g>
</g>
<g>
</g>
<g>
</g>
<g>
</g>
<g>
</g>
<g>
</g>
<g>
</g>
<g>
</g>
<g>
</g>
<g>
</g>
</svg>
