<?xml version="1.0" encoding="iso-8859-1"?>
<!-- Generator: Adobe Illustrator 19.0.0, SVG Export Plug-In . SVG Version: 6.00 Build 0)  -->
<svg version="1.1" id="Capa_1" xmlns="http://www.w3.org/2000/svg" xmlns:xlink="http://www.w3.org/1999/xlink" x="0px" y="0px"
	 viewBox="0 0 399.829 399.829" style="enable-background:new 0 0 399.829 399.829;" xml:space="preserve">
<rect x="238.608" y="114.175" transform="matrix(-0.7071 0.7071 -0.7071 -0.7071 613.4978 131.2433)" style="fill:#26BBEC;" width="81.919" height="157.012"/>
<path d="M306.114,283.975c-1.746,0-3.494-0.667-4.826-2L190.261,170.951c-1.28-1.28-2-3.017-2-4.826c0-1.809,0.72-3.546,2-4.826
	l57.926-57.926c2.666-2.666,6.987-2.666,9.653,0l111.027,111.027c1.28,1.28,2,3.017,2,4.826c0,1.809-0.72,3.546-2,4.826
	l-57.926,57.923C309.606,283.308,307.86,283.975,306.114,283.975z M204.74,166.125l101.373,101.369l48.273-48.27L253.013,117.851
	L204.74,166.125z"/>
<polygon style="fill:#9BFC1D;" points="393.001,306.112 267.494,296.458 383.346,180.606 "/>
<path d="M393.001,312.937c-0.174,0-0.346-0.007-0.527-0.02l-125.507-9.653c-2.654-0.203-4.953-1.937-5.873-4.437
	c-0.927-2.504-0.314-5.313,1.574-7.197l115.854-115.854c1.874-1.886,4.693-2.497,7.194-1.577c2.5,0.927,4.233,3.22,4.441,5.879
	l9.653,125.507c0.154,1.987-0.573,3.941-1.98,5.35C396.54,312.225,394.806,312.937,393.001,312.937z M282.813,290.791l102.767,7.904
	l-7.9-102.767L282.813,290.791z"/>
<rect x="79.3" y="128.643" transform="matrix(-0.7071 0.7071 -0.7071 -0.7071 351.772 268.5882)" style="fill:#26BBEC;" width="81.919" height="157.012"/>
<path d="M146.814,298.458c-1.746,0-3.494-0.667-4.826-2L30.96,185.43c-1.28-1.28-2-3.017-2-4.826s0.72-3.546,2-4.826l57.926-57.923
	c2.666-2.666,6.987-2.666,9.653,0l111.027,111.024c1.28,1.28,2,3.017,2,4.826c0,1.809-0.72,3.546-2,4.826l-57.926,57.926
	C150.308,297.79,148.56,298.458,146.814,298.458z M45.44,180.604l101.373,101.373l48.273-48.273L93.713,132.334L45.44,180.604z"/>
<polygon style="fill:#9BFC1D;" points="6.826,93.716 16.481,219.224 132.333,103.37 "/>
<path d="M16.481,226.051c-0.794,0-1.601-0.14-2.367-0.423c-2.5-0.927-4.233-3.22-4.441-5.879L0.02,94.241
	c-0.154-1.987,0.573-3.941,1.98-5.35c1.413-1.41,3.333-2.13,5.354-1.98l125.507,9.653c2.654,0.203,4.953,1.937,5.873,4.437
	c0.927,2.504,0.314,5.313-1.574,7.197L21.306,224.052C20.007,225.354,18.259,226.051,16.481,226.051z M14.247,101.135l7.9,102.767
	l94.867-94.863L14.247,101.135z"/>
<g>
</g>
<g>
</g>
<g>
</g>
<g>
</g>
<g>
</g>
<g>
</g>
<g>
</g>
<g>
</g>
<g>
</g>
<g>
</g>
<g>
</g>
<g>
</g>
<g>
</g>
<g>
</g>
<g>
</g>
</svg>
