<?xml version="1.0" encoding="iso-8859-1"?>
<!-- Generator: Adobe Illustrator 19.0.0, SVG Export Plug-In . SVG Version: 6.00 Build 0)  -->
<svg version="1.1" id="Capa_1" xmlns="http://www.w3.org/2000/svg" xmlns:xlink="http://www.w3.org/1999/xlink" x="0px" y="0px"
	 viewBox="0 0 409.6 409.6" style="enable-background:new 0 0 409.6 409.6;" xml:space="preserve">
<path style="fill:#26BBEC;" d="M6.827,20.456c0-7.528,6.06-13.629,13.629-13.629h368.688c7.526,0,13.629,6.06,13.629,13.629v368.688
	c0,7.526-6.06,13.629-13.629,13.629H20.456c-7.526,0-13.629-6.062-13.629-13.629V20.456z"/>
<path d="M389.147,409.6H20.453C9.173,409.6,0,400.423,0,389.144V20.456C0,9.177,9.173,0,20.453,0h368.693
	C400.427,0,409.6,9.177,409.6,20.456v368.686C409.6,400.423,400.427,409.6,389.147,409.6z M20.453,13.653
	c-3.746,0-6.799,3.053-6.799,6.803v368.686c0,3.75,3.053,6.803,6.799,6.803h368.693c3.746,0,6.799-3.053,6.799-6.803V20.456
	c0-3.75-3.053-6.803-6.799-6.803H20.453z"/>
<path d="M157.013,170.667c-1.812,0-3.627-0.72-4.973-2.147L42.813,52.466c-2.58-2.746-2.454-7.067,0.294-9.649
	s7.06-2.456,9.653,0.29L161.987,159.16c2.58,2.746,2.454,7.067-0.294,9.649C160.374,170.054,158.693,170.667,157.013,170.667z"/>
<path d="M368.64,375.467c-1.679,0-3.367-0.616-4.687-1.864L241.074,257.55c-2.739-2.591-2.867-6.91-0.273-9.65
	c2.58-2.743,6.907-2.867,9.646-0.276l122.88,116.053c2.739,2.591,2.867,6.91,0.273,9.65
	C372.26,374.75,370.452,375.467,368.64,375.467z"/>
<path d="M157.013,170.667h-102.4c-3.773,0-6.827-3.057-6.827-6.827c0-3.77,3.053-6.827,6.827-6.827h95.573V61.44
	c0-3.77,3.053-6.827,6.827-6.827s6.827,3.057,6.827,6.827v102.4C163.84,167.61,160.787,170.667,157.013,170.667z"/>
<path d="M245.76,361.813c-3.773,0-6.827-3.057-6.827-6.827v-102.4c0-3.77,3.053-6.827,6.827-6.827h102.4
	c3.773,0,6.827,3.057,6.827,6.827s-3.053,6.827-6.827,6.827h-95.573v95.573C252.587,358.757,249.533,361.813,245.76,361.813z"/>
<path d="M47.787,375.467c-1.679,0-3.367-0.616-4.687-1.864c-2.739-2.591-2.867-6.91-0.273-9.65l116.053-122.88
	c2.58-2.743,6.907-2.871,9.646-0.276c2.739,2.591,2.867,6.91,0.273,9.65L52.746,373.327
	C51.407,374.75,49.599,375.467,47.787,375.467z"/>
<path d="M252.587,163.84c-1.746,0-3.494-0.667-4.826-2c-2.666-2.666-2.666-6.987,0-9.653L363.814,36.134
	c2.666-2.666,6.987-2.666,9.653,0s2.666,6.987,0,9.653L257.413,161.84C256.08,163.173,254.333,163.84,252.587,163.84z"/>
<path d="M163.84,354.987c-3.773,0-6.827-3.057-6.827-6.827v-95.573H61.44c-3.773,0-6.827-3.057-6.827-6.827
	c0-3.77,3.053-6.827,6.827-6.827h102.4c3.773,0,6.827,3.057,6.827,6.827v102.4C170.667,351.93,167.613,354.987,163.84,354.987z"/>
<path d="M354.987,163.84h-102.4c-3.773,0-6.827-3.057-6.827-6.827v-102.4c0-3.77,3.053-6.827,6.827-6.827s6.827,3.057,6.827,6.827
	v95.573h95.573c3.773,0,6.827,3.057,6.827,6.827S358.76,163.84,354.987,163.84z"/>
<g>
</g>
<g>
</g>
<g>
</g>
<g>
</g>
<g>
</g>
<g>
</g>
<g>
</g>
<g>
</g>
<g>
</g>
<g>
</g>
<g>
</g>
<g>
</g>
<g>
</g>
<g>
</g>
<g>
</g>
</svg>
