<?xml version="1.0" encoding="iso-8859-1"?>
<!-- Generator: Adobe Illustrator 19.0.0, SVG Export Plug-In . SVG Version: 6.00 Build 0)  -->
<svg xmlns="http://www.w3.org/2000/svg" xmlns:xlink="http://www.w3.org/1999/xlink" version="1.1" id="Layer_1" x="0px" y="0px" viewBox="0 0 512 512" style="enable-background:new 0 0 512 512;" xml:space="preserve" width="512" height="512">
<g id="XMLID_2614_">
	<g id="XMLID_2615_">
		<g id="XMLID_2616_">
			<g id="XMLID_2617_">
				<path id="XMLID_2704_" style="fill:#4E7693;" d="M378.953,504.5H133.047c-14.571,0-26.383-11.812-26.383-26.383V33.883      c0-14.571,11.812-26.383,26.383-26.383h245.906c14.571,0,26.383,11.812,26.383,26.383v444.234      C405.336,492.688,393.524,504.5,378.953,504.5z"/>
				<rect id="XMLID_2618_" x="106.66" y="68.72" style="fill:#00D8E0;" width="298.68" height="365.28"/>
				<polygon id="XMLID_2620_" style="fill:#98F4F4;" points="405.34,78.66 405.34,187.33 170.82,421.85 158.67,434 106.66,434       106.66,377.34     "/>
				<polygon id="XMLID_2621_" style="fill:#98F4F4;" points="405.34,224.74 405.34,263.24 234.58,434 196.08,434     "/>
				<rect id="XMLID_2700_" x="106.664" y="421.847" style="fill:#00BDC6;" width="298.673" height="12.153"/>
				<polygon id="XMLID_2622_" style="fill:#00D8E0;" points="106.66,421.85 170.82,421.85 158.67,434 106.66,434     "/>
				<polygon id="XMLID_2623_" style="fill:#00D8E0;" points="246.73,421.85 234.58,434 196.08,434 208.23,421.85     "/>
				<rect id="XMLID_2697_" x="106.664" y="68.72" style="fill:#00BDC6;" width="298.673" height="12.153"/>
				<path id="XMLID_2694_" style="fill:#89B4C9;" d="M270.5,480.675h-29c-6.904,0-12.5-5.596-12.5-12.5l0,0      c0-6.904,5.596-12.5,12.5-12.5h29c6.904,0,12.5,5.596,12.5,12.5l0,0C283,475.078,277.404,480.675,270.5,480.675z"/>
			</g>
		</g>
	</g>
	<g id="XMLID_2624_">
		<path id="XMLID_2626_" d="M405.336,127.922c-4.142,0-7.5,3.358-7.5,7.5V426.5H114.164v-61.078c0-4.142-3.358-7.5-7.5-7.5    s-7.5,3.358-7.5,7.5v112.695c0,18.683,15.2,33.883,33.883,33.883h44.864c4.142,0,7.5-3.358,7.5-7.5s-3.358-7.5-7.5-7.5h-44.864    c-10.412,0-18.883-8.471-18.883-18.883V441.5h283.673v36.617c0,10.412-8.471,18.883-18.883,18.883H212.089    c-4.142,0-7.5,3.358-7.5,7.5s3.358,7.5,7.5,7.5h166.864c18.683,0,33.883-15.2,33.883-33.883V135.422    C412.836,131.28,409.479,127.922,405.336,127.922z"/>
		<path id="XMLID_2627_" d="M378.953,0H133.047c-18.683,0-33.883,15.2-33.883,33.883v297.361c0,4.142,3.358,7.5,7.5,7.5    s7.5-3.358,7.5-7.5V76.22h283.673v25.025c0,4.142,3.358,7.5,7.5,7.5s7.5-3.358,7.5-7.5V33.883C412.836,15.2,397.636,0,378.953,0z     M114.164,61.22V33.883c0-10.412,8.471-18.883,18.883-18.883h245.906c10.412,0,18.883,8.471,18.883,18.883V61.22H114.164z"/>
		<path id="XMLID_2630_" d="M270.5,488.175c11.028,0,20-8.972,20-20s-8.972-20-20-20h-29c-11.028,0-20,8.972-20,20s8.972,20,20,20    H270.5z M236.5,468.175c0-2.757,2.243-5,5-5h29c2.757,0,5,2.243,5,5s-2.243,5-5,5h-29    C238.743,473.175,236.5,470.932,236.5,468.175z"/>
		<path id="XMLID_2633_" d="M212.093,40.167H212c-4.142,0-7.454,3.358-7.454,7.5s3.404,7.5,7.546,7.5s7.5-3.358,7.5-7.5    S216.235,40.167,212.093,40.167z"/>
		<path id="XMLID_2634_" d="M212.093,21.5H212c-4.142,0-7.454,3.358-7.454,7.5s3.404,7.5,7.546,7.5s7.5-3.358,7.5-7.5    S216.235,21.5,212.093,21.5z"/>
		<path id="XMLID_2635_" d="M300,29.833h-64c-4.142,0-7.5,3.358-7.5,7.5s3.358,7.5,7.5,7.5h64c4.142,0,7.5-3.358,7.5-7.5    S304.142,29.833,300,29.833z"/>
		<path id="XMLID_2636_" d="M155.667,460.675c-4.142,0-7.5,3.358-7.5,7.5s3.358,7.5,7.5,7.5h14c4.142,0,7.5-3.358,7.5-7.5    s-3.358-7.5-7.5-7.5H155.667z"/>
		<path id="XMLID_2637_" d="M356.333,475.675c4.142,0,7.5-3.358,7.5-7.5s-3.358-7.5-7.5-7.5h-14c-4.142,0-7.5,3.358-7.5,7.5    s3.358,7.5,7.5,7.5H356.333z"/>
	</g>
</g>















</svg>
