<?xml version="1.0" encoding="iso-8859-1"?>
<!-- Generator: Adobe Illustrator 19.0.0, SVG Export Plug-In . SVG Version: 6.00 Build 0)  -->
<svg xmlns="http://www.w3.org/2000/svg" xmlns:xlink="http://www.w3.org/1999/xlink" version="1.1" id="Layer_1" x="0px" y="0px" viewBox="0 0 511.998 511.998" style="enable-background:new 0 0 511.998 511.998;" xml:space="preserve" width="512" height="512">
<g id="XMLID_2193_">
	<g id="XMLID_2194_">
		<g id="XMLID_2195_">
			<g id="XMLID_2196_">
				<g id="XMLID_2197_">
					<g id="XMLID_2198_">
						<path id="XMLID_2199_" style="fill:#4E7693;" d="M295.711,388.704v86.603h-79.423v-86.603h20.211v30.641        c0,10.77,8.73,19.501,19.501,19.501s19.501-8.73,19.501-19.501v-30.641H295.711z"/>
						<rect id="XMLID_2202_" x="216.287" y="458.307" style="fill:#385F82;" width="79.423" height="17.001"/>
						<rect id="XMLID_2205_" x="216.287" y="388.704" style="fill:#385F82;" width="20.211" height="23.401"/>
						<rect id="XMLID_2208_" x="275.5" y="388.704" style="fill:#385F82;" width="20.211" height="23.401"/>
						<rect id="XMLID_2211_" x="7.499" y="105.326" style="fill:#159BFF;" width="497" height="263.95"/>
						<path id="XMLID_2214_" style="fill:#006DF0;" d="M412.279,158.086c0.12,20.07-3.53,39.63-10.84,58.16        c-20.47,51.93-67.42,89.22-122.53,97.32c-7.22,1.07-14.64,1.63-22.04,1.67h-0.89c-54.24,0-103.81-27.49-132.6-73.55        c-15.32-24.52-23.5-52.82-23.66-81.86c-0.05-9.2,0.71-18.45,2.26-27.49c1.57-9.17,3.99-18.24,7.21-27.01h293.62        c1.19,3.23,2.26,6.51,3.23,9.83c2.17,7.42,3.79,15.05,4.81,22.67C411.759,144.416,412.239,151.236,412.279,158.086z"/>
						<path id="XMLID_2217_" style="fill:#006DF0;" d="M465.399,125.646c-4.49,8.5-13.26,13.78-22.88,13.78h-67.75        c-9.61,0-18.38-5.28-22.88-13.78c-3.36-6.37-3.89-13.7-1.66-20.32h116.84C469.299,111.946,468.769,119.276,465.399,125.646z"/>
						<path id="XMLID_2220_" style="fill:#006DF0;" d="M74.553,235.328c-9.617,0-18.385-5.281-22.881-13.783        c-4.496-8.501-3.926-18.721,1.487-26.67l33.874-49.74c4.825-7.085,12.823-11.314,21.394-11.314        c8.571,0,16.569,4.229,21.394,11.314l33.875,49.741c5.414,7.95,5.983,18.169,1.487,26.671s-13.264,13.783-22.881,13.783        H74.553z"/>
						<rect id="XMLID_2223_" x="7.499" y="349.305" style="fill:#006DF0;" width="497" height="19.97"/>
						<rect id="XMLID_2226_" x="7.499" y="361.305" style="fill:#618BAA;" width="497" height="38.8"/>
						<rect id="XMLID_2726_" x="7.5" y="361.306" style="fill:#89B4C9;" width="496.998" height="12.09"/>
						<rect id="XMLID_2723_" x="183.996" y="470.307" style="fill:#618BAA;" width="144.006" height="27.001"/>
					</g>
				</g>
			</g>
			<g id="XMLID_2227_">
				<path id="XMLID_2232_" style="fill:#9FEDFF;" d="M400.279,158.166c0.11,18.94-3.45,37.07-10,53.68      c-18.6,47.18-61.37,82.24-113.12,89.85c-6.65,0.98-13.45,1.5-20.36,1.54c-51.93,0.29-97.6-26.89-123.24-67.91      c-13.7-21.92-21.69-47.81-21.84-75.56c-0.05-8.66,0.67-17.14,2.09-25.39c1.65-9.62,4.26-18.92,7.72-27.79      c15.57-39.96,48.46-71.3,89.49-84.74c13.91-4.57,28.76-7.07,44.18-7.16c45.42-0.25,86.07,20.52,112.69,53.19      c1.22,1.5,2.41,3.02,3.56,4.56c10.27,13.68,18.16,29.23,23.07,46.08c1.98,6.77,3.48,13.76,4.44,20.91      C399.799,145.556,400.239,151.816,400.279,158.166z"/>
				<path id="XMLID_2233_" style="fill:#00D8E0;" d="M398.959,139.426h-24.19c-9.61,0-18.38-5.28-22.88-13.78      c-4.49-8.5-3.92-18.72,1.49-26.67l18.07-26.54c10.27,13.68,18.16,29.23,23.07,46.08      C396.499,125.286,397.999,132.276,398.959,139.426z"/>
				<path id="XMLID_2234_" style="fill:#00D8E0;" d="M165.179,221.546c-4.49,8.5-13.26,13.78-22.88,13.78h-8.74      c-13.7-21.92-21.69-47.81-21.84-75.56c-0.05-8.66,0.67-17.14,2.09-25.39c6.45,1.37,12.22,5.18,16.01,10.76l33.88,49.74      C169.109,202.826,169.679,213.046,165.179,221.546z"/>
			</g>
			<g id="XMLID_2235_">
				<path id="XMLID_2713_" style="fill:#FC4747;" d="M374.772,127.428h67.749c11.151,0,17.752-12.482,11.475-21.698l-33.874-49.741      c-5.511-8.092-17.44-8.092-22.951,0l-33.874,49.741C357.02,114.946,363.621,127.428,374.772,127.428z"/>
			</g>
			<g id="XMLID_2236_">
				<path id="XMLID_2711_" style="fill:#FFB229;" d="M74.553,223.328h67.749c11.151,0,17.752-12.482,11.475-21.698l-33.874-49.741      c-5.511-8.092-17.44-8.092-22.951,0l-33.874,49.741C56.801,210.846,63.402,223.328,74.553,223.328z"/>
			</g>
		</g>
	</g>
	<g id="XMLID_2237_">
		<path id="XMLID_2238_" d="M504.498,264.585c-4.142,0-7.5,3.358-7.5,7.5v81.721H15v-83.721c0-4.142-3.358-7.5-7.5-7.5    s-7.5,3.358-7.5,7.5v91.221v7.966v30.835c0,4.142,3.358,7.5,7.5,7.5h81.744c4.142,0,7.5-3.358,7.5-7.5s-3.358-7.5-7.5-7.5H15    v-23.335v-0.466h481.998v0.466v23.335H123.421c-4.142,0-7.5,3.358-7.5,7.5s3.358,7.5,7.5,7.5h85.367v55.199h-24.792    c-4.142,0-7.5,3.358-7.5,7.5v27.001c0,4.142,3.358,7.5,7.5,7.5h144.006c4.142,0,7.5-3.358,7.5-7.5v-27.001    c0-4.142-3.358-7.5-7.5-7.5H303.21v-55.199h201.288c4.142,0,7.5-3.358,7.5-7.5v-30.835v-7.966v-89.221    C511.998,267.943,508.64,264.585,504.498,264.585z M243.998,407.608H268v11.737c0,6.617-5.384,12.001-12.001,12.001    s-12.001-5.384-12.001-12.001V407.608z M320.502,489.808H191.496v-12.001h129.006V489.808z M288.21,462.807h-64.423v-55.199h5.21    v11.737c0,14.888,12.113,27.001,27.001,27.001S283,434.233,283,419.345v-11.737h5.21V462.807z"/>
		<path id="XMLID_2243_" d="M504.498,97.825h-46.81l-31.367-46.059c-3.986-5.853-10.593-9.347-17.674-9.347    c-7.082,0-13.688,3.494-17.675,9.347l-12.212,17.932C350.145,30.307,304.892,7.155,255.83,7.197    c-0.123-0.001-0.245-0.008-0.367-0.008c-0.102,0-0.206,0-0.308,0c-37.982,0.211-74.252,14.513-102.129,40.271    c-15.49,14.313-27.667,31.475-35.984,50.365H7.5c-4.142,0-7.5,3.358-7.5,7.5v130.582c0,4.142,3.358,7.5,7.5,7.5s7.5-3.358,7.5-7.5    V112.825h96.375c-2.656,8.334-4.601,16.923-5.783,25.688c-5.981,0.798-11.391,4.091-14.839,9.154l-33.874,49.741    c-4.472,6.567-4.943,15.01-1.229,22.034c3.714,7.023,10.958,11.387,18.903,11.387h47.753    c26.584,49.412,77.497,79.915,133.673,79.914c0.287,0,0.576-0.001,0.863-0.002c40.541-0.226,78.567-16.225,107.074-45.05    c28.507-28.826,44.083-67.027,43.857-107.568c0-0.001,0-0.001,0-0.002l0-0.001c0,0,0-0.001,0-0.001    c-0.043-7.776-0.682-15.547-1.897-23.19h36.645c7.945,0,15.188-4.363,18.903-11.387c1.781-3.367,2.589-7.059,2.466-10.715h33.108    v125.082c0,4.142,3.358,7.5,7.5,7.5s7.5-3.358,7.5-7.5V105.325C511.998,101.183,508.64,97.825,504.498,97.825z M187.252,61.423    c-5.358-3.047-10.524-6.464-15.46-10.238c10.774-8.431,22.669-15.139,35.294-19.97c-5.708,6.311-11.012,13.798-15.807,22.402    C189.872,56.14,188.543,58.76,187.252,61.423z M204.381,60.918c12.018-21.564,27.195-34.763,43.362-37.961l0.312,56.14    c-16.431-0.808-32.462-4.561-47.377-10.991C201.865,65.652,203.087,63.239,204.381,60.918z M248.138,94.122l0.319,57.431    l-66.347,0.389c0.6-25.325,4.979-49.365,12.674-70.045C211.575,89.128,229.639,93.31,248.138,94.122z M248.54,166.553    l0.319,57.338c-18.49,1.012-36.508,5.386-53.222,12.798c-7.906-20.553-12.546-44.488-13.438-69.747L248.54,166.553z     M248.943,238.915l0.312,56.144c-16.201-3.02-31.525-16.052-43.78-37.48c-1.322-2.311-2.573-4.716-3.791-7.161    C216.532,243.828,232.526,239.902,248.943,238.915z M192.453,265.026c4.91,8.585,10.322,16.037,16.126,22.3    c-12.836-4.719-24.858-11.33-35.683-19.615c4.92-3.852,10.077-7.347,15.434-10.468    C189.654,259.899,191.015,262.511,192.453,265.026z M324.745,256.508c5.365,3.049,10.536,6.471,15.476,10.249    c-10.806,8.479-22.717,15.203-35.379,20.035c5.734-6.327,11.062-13.839,15.877-22.478    C322.126,261.79,323.454,259.17,324.745,256.508z M307.617,257.011c-12.018,21.564-27.196,34.763-43.362,37.962l-0.312-56.142    c16.425,0.811,32.459,4.566,47.376,10.995C310.131,252.279,308.91,254.691,307.617,257.011z M263.859,223.807l-0.319-57.342    l66.344-0.389c-0.608,25.292-4.985,49.3-12.67,69.956C300.422,228.801,282.359,224.62,263.859,223.807z M263.457,151.465    l-0.319-57.428c18.49-1.012,36.509-5.387,53.223-12.799c7.915,20.577,12.558,44.544,13.442,69.837L263.457,151.465z     M263.054,79.015l-0.312-56.143c16.201,3.019,31.525,16.052,43.781,37.48c1.322,2.311,2.573,4.715,3.791,7.161    C295.465,74.102,279.472,78.028,263.054,79.015z M319.544,52.903c-4.911-8.586-10.324-16.039-16.129-22.303    c12.809,4.713,24.826,11.322,35.67,19.631c-4.915,3.847-10.067,7.338-15.417,10.456C322.343,58.03,320.982,55.418,319.544,52.903z     M160.303,61.248c6.623,5.275,13.642,9.954,20.975,14.017c-8.648,22.701-13.566,49.074-14.179,76.765l-37.874,0.222l-3.123-4.586    c-1.574-2.311-3.561-4.247-5.82-5.753C124.091,111.294,138.154,82.936,160.303,61.248z M68.91,212.428    c-0.541-1.022-1.587-3.709,0.367-6.578l33.874-49.741c1.208-1.773,3.131-2.791,5.277-2.791c2.145,0,4.068,1.017,5.276,2.791    l33.875,49.741c1.954,2.869,0.907,5.556,0.367,6.578s-2.172,3.399-5.643,3.399H74.553C71.082,215.828,69.45,213.451,68.91,212.428    z M139.601,230.828h2.701c7.945,0,15.188-4.363,18.903-11.387s3.244-15.466-1.228-22.034L139.4,167.194l27.788-0.163    c0.934,27.62,6.137,53.875,15.015,76.433c-7.312,4.155-14.3,8.928-20.883,14.295C153.075,249.836,145.76,240.819,139.601,230.828z     M353.25,255.142c-0.514,0.52-1.037,1.027-1.558,1.538c-6.622-5.275-13.641-9.953-20.973-14.016    c8.638-22.676,13.555-49.018,14.177-76.676l47.712-0.28C390.984,199.432,377.174,230.951,353.25,255.142z M392.523,150.708    l-47.709,0.28c-0.926-27.652-6.132-53.94-15.02-76.523c7.303-4.15,14.285-8.917,20.862-14.277    c7.069,6.798,13.47,14.416,19.066,22.782l-12.624,18.537c-4.473,6.567-4.943,15.009-1.229,22.033    c3.714,7.024,10.958,11.387,18.903,11.387h15.89C391.583,140.129,392.206,145.405,392.523,150.708z M448.164,116.528    c-0.541,1.022-2.172,3.399-5.643,3.399h-67.749c-3.471,0-5.103-2.377-5.643-3.399s-1.586-3.708,0.367-6.577L403.37,60.21    c1.208-1.773,3.131-2.791,5.277-2.791c2.145,0,4.068,1.017,5.276,2.791l33.875,49.741    C449.751,112.82,448.705,115.506,448.164,116.528z"/>
		<path id="XMLID_2263_" d="M60.646,289.939h31.645c4.142,0,7.5-3.358,7.5-7.5s-3.358-7.5-7.5-7.5H60.646    c-4.142,0-7.5,3.358-7.5,7.5S56.503,289.939,60.646,289.939z"/>
		<path id="XMLID_2264_" d="M60.646,314.879h31.645c4.142,0,7.5-3.358,7.5-7.5s-3.358-7.5-7.5-7.5H60.646    c-4.142,0-7.5,3.358-7.5,7.5S56.503,314.879,60.646,314.879z"/>
		<path id="XMLID_2265_" d="M436.574,184.824h31.645c4.142,0,7.5-3.358,7.5-7.5s-3.358-7.5-7.5-7.5h-31.645    c-4.142,0-7.5,3.358-7.5,7.5S432.432,184.824,436.574,184.824z"/>
		<path id="XMLID_2266_" d="M436.574,209.764h31.645c4.142,0,7.5-3.358,7.5-7.5s-3.358-7.5-7.5-7.5h-31.645    c-4.142,0-7.5,3.358-7.5,7.5S432.432,209.764,436.574,209.764z"/>
	</g>
</g>















</svg>
