<?xml version="1.0" encoding="iso-8859-1"?>
<!-- Generator: Adobe Illustrator 19.0.0, SVG Export Plug-In . SVG Version: 6.00 Build 0)  -->
<svg xmlns="http://www.w3.org/2000/svg" xmlns:xlink="http://www.w3.org/1999/xlink" version="1.1" id="Layer_1" x="0px" y="0px" viewBox="0 0 512.005 512.005" style="enable-background:new 0 0 512.005 512.005;" xml:space="preserve" width="512" height="512">
<g id="XMLID_2102_">
	<g id="XMLID_2103_">
		<g id="XMLID_2104_">
			<g id="XMLID_2105_">
				<g id="XMLID_2106_">
					<path id="XMLID_2107_" style="fill:#00D8E0;" d="M456.53,251.503c0,124-100.52,224.51-224.52,224.51       c-15.76,0-31.14-1.62-45.98-4.72c-61.45-12.78-113.68-50.68-145.48-102.48c-20.96-34.14-33.05-74.31-33.05-117.31       c0-124,100.52-224.52,224.51-224.52c50.71,0,97.49,16.81,135.07,45.16c49.11,37.04,82.53,93.78,88.49,158.48       C456.21,237.493,456.53,244.463,456.53,251.503z"/>
					<path id="XMLID_2108_" style="fill:#00BDC6;" d="M345.714,364.867c-22.762,0-41.279-18.518-41.279-41.279       s18.518-41.279,41.279-41.279c22.761,0,41.278,18.518,41.278,41.279S368.475,364.867,345.714,364.867z"/>
					<path id="XMLID_2109_" style="fill:#00BDC6;" d="M440.83,253.463c1.49,9.14-0.67,18.31-6.08,25.82       c-6.49,9.03-17.02,14.42-28.15,14.42c-7.3,0-14.29-2.26-20.23-6.53c-11.91-8.57-25.97-13.11-40.66-13.11       c-14.69,0-28.75,4.54-40.66,13.11c-5.93,4.27-12.93,6.53-20.23,6.53c-11.13,0-21.65-5.39-28.15-14.42       c-5.4-7.51-7.56-16.68-6.07-25.82c1.08-6.64,4-12.68,8.4-17.57c-1.43,0.18-2.87,0.3-4.32,0.3c-11.13,0-21.66-5.39-28.15-14.42       c-5.41-7.51-7.57-16.69-6.08-25.82c1.04-6.38,3.77-12.2,7.88-16.98c-5.6,3.61-12.03,5.53-18.72,5.53       c-11.13,0-21.66-5.39-28.15-14.41c-5.41-7.52-7.57-16.69-6.08-25.83c1.49-9.13,6.45-17.14,13.96-22.55       c45.82-32.98,99.89-50.41,156.37-50.41c7.17,0,14.3,0.28,21.37,0.84c49.11,37.04,82.53,93.78,88.49,158.48       c-5.54,3.58-12.07,5.56-18.82,5.57c-1.46,0-2.9-0.12-4.33-0.3C436.82,240.783,439.75,246.823,440.83,253.463z"/>
					<path id="XMLID_2110_" style="fill:#00BDC6;" d="M186.03,343.473v127.82c-61.45-12.78-113.68-50.68-145.48-102.48v-25.34       c0-6.63,5.37-12,12-12h121.48C180.66,331.473,186.03,336.843,186.03,343.473z"/>
				</g>
			</g>
			<g id="XMLID_2111_">
				<rect id="XMLID_2714_" x="52.551" y="343.474" style="fill:#E3E3E3;" width="121.481" height="141.545"/>
			</g>
			<g id="XMLID_2112_">
				<g id="XMLID_2114_">
					<path id="XMLID_2115_" style="fill:#DCE561;" d="M284.823,281.7c-7.042,0-13.983-3.272-18.41-9.425       c-7.311-10.158-5.002-24.319,5.155-31.629c21.725-15.635,47.363-23.899,74.145-23.899c26.782,0,52.421,8.264,74.145,23.899       c10.158,7.311,12.466,21.471,5.155,31.629c-7.311,10.158-21.472,12.465-31.629,5.155       c-13.965-10.05-30.449-15.363-47.671-15.363c-17.222,0-33.706,5.313-47.671,15.363       C294.036,280.313,289.409,281.7,284.823,281.7z"/>
					<path id="XMLID_2116_" style="fill:#DCE561;" d="M254.677,224.188c-7.042,0-13.982-3.272-18.41-9.425       c-7.311-10.157-5.003-24.318,5.155-31.629c30.556-21.992,66.619-33.617,104.291-33.617c37.672,0,73.736,11.625,104.292,33.617       c10.158,7.311,12.466,21.471,5.155,31.629c-7.311,10.158-21.471,12.466-31.629,5.155c-22.798-16.407-49.707-25.08-77.819-25.08       c-28.112,0-55.021,8.673-77.817,25.08C263.89,222.8,259.262,224.188,254.677,224.188z"/>
					<g id="XMLID_2117_">
						<path id="XMLID_2118_" style="fill:#DCE561;" d="M481.82,172.504c-4.585,0-9.213-1.387-13.218-4.27        c-36.002-25.91-78.496-39.607-122.889-39.607s-86.887,13.696-122.888,39.607c-10.156,7.31-24.317,5.003-31.629-5.155        c-7.311-10.157-5.003-24.318,5.155-31.629c43.761-31.496,95.409-48.143,149.361-48.143        c53.953,0,105.602,16.647,149.362,48.143c10.158,7.311,12.466,21.471,5.155,31.629        C495.802,169.231,488.861,172.504,481.82,172.504z"/>
					</g>
				</g>
			</g>
			<g id="XMLID_2119_">
				<circle id="XMLID_2706_" style="fill:#DCE561;" cx="345.714" cy="323.589" r="29.279"/>
			</g>
		</g>
	</g>
	<g id="XMLID_2120_">
		<path id="XMLID_2121_" d="M90.571,389.515h45.441c4.142,0,7.5-3.358,7.5-7.5s-3.358-7.5-7.5-7.5H90.571    c-4.142,0-7.5,3.358-7.5,7.5S86.429,389.515,90.571,389.515z"/>
		<path id="XMLID_2122_" d="M90.571,418.698h45.441c4.142,0,7.5-3.358,7.5-7.5s-3.358-7.5-7.5-7.5H90.571    c-4.142,0-7.5,3.358-7.5,7.5S86.429,418.698,90.571,418.698z"/>
		<path id="XMLID_2123_" d="M143.512,440.381c0-4.142-3.358-7.5-7.5-7.5H90.571c-4.142,0-7.5,3.358-7.5,7.5s3.358,7.5,7.5,7.5    h45.441C140.154,447.881,143.512,444.523,143.512,440.381z"/>
		<path id="XMLID_2124_" d="M511.605,144.991c-1.296-7.951-5.61-14.921-12.149-19.627c-33.676-24.237-71.891-39.929-112.241-46.308    c-42.664-38.423-97.679-59.568-155.2-59.568c-76.302,0-147.754,37.563-191.133,100.479c-2.351,3.41-1.493,8.081,1.917,10.432    c1.3,0.896,2.783,1.326,4.25,1.326c2.383,0,4.727-1.133,6.182-3.243c8.968-13.007,19.222-24.851,30.52-35.417    c11.808,9.824,24.513,18.415,37.91,25.672c-14.727,36.6-23.015,79.823-23.838,125.266H15.14    c1.004-30.011,8.032-58.888,20.956-85.938c1.786-3.737,0.204-8.215-3.534-10c-3.739-1.787-8.216-0.204-10,3.534    C7.591,182.929,0,216.542,0,251.502c0,49.872,15.579,97.372,45.051,137.405v96.111c0,4.142,3.358,7.5,7.5,7.5h16.694    c4.142,0,7.5-3.358,7.5-7.5s-3.358-7.5-7.5-7.5h-9.194V350.974h106.481v126.544h-63.11c-4.142,0-7.5,3.358-7.5,7.5    s3.358,7.5,7.5,7.5h70.61c4.142,0,7.5-3.358,7.5-7.5v-7.016c16.498,3.659,33.442,5.515,50.483,5.515    c66.545,0,129.984-28.654,174.051-78.614c2.739-3.106,2.442-7.846-0.664-10.585c-3.107-2.741-7.847-2.443-10.586,0.664    c-4.625,5.244-9.49,10.222-14.549,14.954c-11.829-9.839-24.528-18.421-37.901-25.656c3.092-7.719,5.935-15.821,8.506-24.279    c17.846-2.516,31.622-17.881,31.622-36.41c0-13.519-7.337-25.35-18.233-31.741c0.648-6.454,1.157-12.986,1.492-19.545    c8.281,2.319,16.128,6.087,23.252,11.214c13.496,9.713,32.382,6.637,42.097-6.861c3.754-5.216,5.702-11.35,5.681-17.654h12.118    c-1.331,38.934-13.011,76.593-33.984,109.352c-2.233,3.488-1.216,8.127,2.272,10.36c1.252,0.802,2.652,1.185,4.037,1.185    c2.472,0,4.892-1.221,6.323-3.457c23.866-37.277,36.481-80.481,36.481-124.94c0-11.048-0.793-22.141-2.34-33.005    c4.375-6.415,6.1-14.131,4.846-21.823c-1.296-7.951-5.61-14.921-12.149-19.627c-1.123-0.808-2.255-1.599-3.392-2.381    c-1.386-3.95-2.887-7.875-4.494-11.76c6.063,3.481,11.979,7.284,17.72,11.415c5.165,3.718,11.251,5.683,17.6,5.683    c9.687,0,18.845-4.689,24.498-12.544C511.023,160.922,512.901,152.942,511.605,144.991z M359.944,76.194    c-4.724-0.251-9.468-0.386-14.231-0.386c-8.362,0-16.669,0.396-24.905,1.167c-9.125-13.873-19.235-25.407-30.043-34.413    C315.562,49.518,338.978,60.867,359.944,76.194z M191.971,125.363c-0.907,0.653-1.767,1.354-2.586,2.09    c-16.716-3.334-32.932-8.638-48.322-15.757c2.467-5.268,5.08-10.366,7.845-15.263c20.73-36.714,47.34-58.253,75.607-61.501v70.395    C213.28,111.174,202.405,117.853,191.971,125.363z M239.515,34.934c23.295,2.727,45.766,18.097,64.542,44.148    c-22.304,3.539-43.951,9.932-64.542,19.034V34.934z M95.227,83.082c22.911-18.602,49.372-32.367,77.76-40.401    c-13.681,11.481-26.231,27.054-37.141,46.377c-2.88,5.1-5.602,10.403-8.174,15.876C116.264,98.666,105.402,91.356,95.227,83.082z     M135.11,125.468c14.607,6.727,29.906,11.931,45.658,15.489c-0.401,1.312-0.722,2.657-0.947,4.034    c-1.296,7.951,0.582,15.931,5.288,22.47c9.085,12.621,26.186,16.13,39.406,8.588v24.571c-0.023,0.704-0.026,1.406,0,2.106v41.276    H112.826C113.633,200.919,121.372,160.046,135.11,125.468z M332.989,136.525c0.664,1.914,1.308,3.851,1.939,5.801    c-34.33,1.956-67.063,13.25-95.413,32.976v-9.176C267.847,148.675,299.717,138.577,332.989,136.525z M447.923,229.549    c0.481,4.796,0.808,9.621,0.973,14.453h-16.122c-2.11-3.675-4.993-6.893-8.536-9.443c-17.948-12.918-38.425-21.06-60.026-24.027    c-0.237-2.317-0.495-4.629-0.773-6.935c20.046,2.823,39.046,10.414,55.712,22.408c5.188,3.734,11.284,5.688,17.553,5.688    c1.631,0,3.274-0.132,4.916-0.4C443.805,230.937,445.913,230.345,447.923,229.549z M348.172,202.385    c0.295,2.298,0.568,4.609,0.822,6.926c-1.093-0.026-2.185-0.063-3.281-0.063c-28.364,0-55.518,8.753-78.525,25.312    c-3.543,2.549-6.426,5.768-8.536,9.443h-19.136v-16.411c4.55,2.641,9.773,4.096,15.162,4.096c6.349,0,12.435-1.965,17.6-5.683    c21.514-15.483,46.907-23.667,73.437-23.667C346.535,202.337,347.353,202.369,348.172,202.385z M52.551,335.974    c-4.142,0-7.5,3.358-7.5,7.5v18.296c-18.46-31.16-28.685-66.193-29.916-102.768h82.688c0.479,26.579,3.505,52.406,9.02,76.972    H52.551z M122.235,335.974c-5.753-24.469-8.911-50.311-9.409-76.972h111.688v97.468c-14.508,0.461-28.908,2.268-42.983,5.387    v-18.384c0-4.142-3.358-7.5-7.5-7.5H122.235z M181.532,377.269c14.041-3.341,28.448-5.291,42.983-5.784v96.594    c-14.927-1.7-29.343-8.492-42.983-20.258V377.269z M239.515,468.073v-96.577c29.056,1.007,57.391,7.812,83.425,19.831    c-8.408,18.01-18.399,33.567-29.642,45.945C276.894,455.333,258.439,465.864,239.515,468.073z M368.805,419.931    c-22.989,18.663-49.498,32.379-77.827,40.389c17.5-14.634,33.01-35.774,45.391-62.216    C347.758,404.355,358.617,411.649,368.805,419.931z M345.714,345.368c-12.009,0-21.779-9.77-21.779-21.779    c0-12.009,9.771-21.779,21.779-21.779s21.778,9.77,21.778,21.779C367.492,335.598,357.723,345.368,345.714,345.368z     M349.672,287.026c-1.301-0.14-2.62-0.216-3.958-0.216c-20.28,0-36.779,16.499-36.779,36.779    c0,16.737,11.242,30.888,26.568,35.326c-2.033,6.422-4.242,12.641-6.615,18.635c-27.897-12.824-58.254-20.053-89.373-21.061    v-97.486h15.13c-0.021,6.304,1.927,12.438,5.68,17.654c5.653,7.855,14.811,12.544,24.498,12.544c6.348,0,12.434-1.965,17.6-5.683    c12.681-9.126,27.65-13.95,43.29-13.95c1.72,0,3.431,0.069,5.133,0.185C350.578,275.537,350.194,281.312,349.672,287.026z     M418.926,267.894c-4.883,6.785-14.375,8.334-21.161,3.449c-15.249-10.975-33.248-16.775-52.052-16.775    s-36.803,5.801-52.052,16.775c-2.598,1.869-5.653,2.857-8.838,2.857c-4.874,0-9.481-2.357-12.322-6.306    c-2.366-3.287-3.31-7.298-2.658-11.295s2.82-7.5,6.106-9.865c20.44-14.711,44.563-22.487,69.764-22.487    c25.201,0,49.324,7.776,69.764,22.487c3.287,2.365,5.456,5.869,6.107,9.866S421.291,264.607,418.926,267.894z M449.072,210.381    c-2.365,3.287-5.868,5.456-9.865,6.107c-3.993,0.651-8.006-0.292-11.294-2.658c-21.408-15.407-46.251-24.339-72.362-26.137    c-0.235-0.025-0.471-0.039-0.71-0.041c-3.028-0.193-6.069-0.315-9.128-0.315c-29.693,0-58.117,9.161-82.198,26.493    c-2.598,1.869-5.653,2.857-8.838,2.857c-4.874,0-9.481-2.357-12.323-6.307c-1.747-2.427-2.712-5.249-2.839-8.168v-0.903    c0.012-0.739,0.06-1.48,0.181-2.223c0.651-3.997,2.82-7.5,6.107-9.866c29.272-21.068,63.821-32.204,99.91-32.204    s70.638,11.136,99.911,32.204c3.287,2.365,5.456,5.869,6.107,9.866S451.438,207.094,449.072,210.381z M425.296,152.717    c1.573,3.07,3.069,6.19,4.497,9.344c-24.495-12.449-51.385-19.261-79.209-19.974c-0.612-1.989-1.236-3.969-1.882-5.93    c26.563,0.382,52.377,5.858,76.379,16.083C425.15,152.4,425.215,152.56,425.296,152.717z M494.144,158.698    c-2.843,3.949-7.449,6.307-12.324,6.307c-3.185,0-6.239-0.988-8.837-2.857c-37.286-26.835-81.295-41.019-127.27-41.019    c-2.613,0-5.219,0.052-7.819,0.143c-0.046,0.002-0.092,0.001-0.139,0.004c-43.086,1.541-84.183,15.589-119.311,40.872    c-6.784,4.882-16.277,3.336-21.161-3.449c-2.366-3.287-3.31-7.297-2.658-11.294s2.82-7.5,6.107-9.866    c42.476-30.571,92.609-46.73,144.98-46.73c52.372,0,102.505,16.159,144.981,46.73c3.287,2.365,5.455,5.869,6.107,9.866    C497.453,151.4,496.509,155.411,494.144,158.698z"/>
	</g>
</g>















</svg>
