<?xml version="1.0" encoding="iso-8859-1"?>
<!-- Generator: Adobe Illustrator 19.0.0, SVG Export Plug-In . SVG Version: 6.00 Build 0)  -->
<svg xmlns="http://www.w3.org/2000/svg" xmlns:xlink="http://www.w3.org/1999/xlink" version="1.1" id="Layer_1" x="0px" y="0px" viewBox="0 0 512 512" style="enable-background:new 0 0 512 512;" xml:space="preserve" width="512" height="512">
<g id="XMLID_1693_">
	<g id="XMLID_1694_">
		<g id="XMLID_1695_">
			<g id="XMLID_1696_">
				<g id="XMLID_1697_">
					<path id="XMLID_2750_" style="fill:#4E7693;" d="M378.953,504.5H133.047c-14.571,0-26.383-11.812-26.383-26.383V33.883       c0-14.571,11.812-26.383,26.383-26.383h245.906c14.571,0,26.383,11.812,26.383,26.383v444.234       C405.336,492.688,393.524,504.5,378.953,504.5z"/>
					<rect id="XMLID_2744_" x="106.664" y="68.72" style="fill:#E3E3E3;" width="298.673" height="365.28"/>
					<rect id="XMLID_2740_" x="106.664" y="421.847" style="fill:#C8C8C8;" width="298.673" height="12.153"/>
					<rect id="XMLID_2737_" x="106.664" y="68.72" style="fill:#C8C8C8;" width="298.673" height="12.153"/>
					<path id="XMLID_2734_" style="fill:#89B4C9;" d="M270.5,480.675h-29c-6.904,0-12.5-5.596-12.5-12.5l0,0       c0-6.904,5.596-12.5,12.5-12.5h29c6.904,0,12.5,5.596,12.5,12.5l0,0C283,475.078,277.404,480.675,270.5,480.675z"/>
				</g>
			</g>
			<g id="XMLID_1698_">
				<g id="XMLID_1704_">
					<rect id="XMLID_2729_" x="270.979" y="210.672" style="fill:#159BFF;" width="78.066" height="78.066"/>
					<rect id="XMLID_2728_" x="270.979" y="317.606" style="fill:#FFB229;" width="78.066" height="78.066"/>
				</g>
				<g id="XMLID_1710_">
					<g id="XMLID_1707_">
						<rect id="XMLID_1708_" x="162.956" y="210.672" style="fill:#159BFF;" width="78.066" height="78.066"/>
						<rect id="XMLID_1709_" x="162.956" y="317.606" style="fill:#159BFF;" width="78.066" height="78.066"/>
					</g>
				</g>
			</g>
		</g>
	</g>
	<g id="XMLID_1711_">
		<path id="XMLID_1712_" d="M405.336,262.589c-4.142,0-7.5,3.358-7.5,7.5v60.489c0,4.142,3.358,7.5,7.5,7.5s7.5-3.358,7.5-7.5    v-60.489C412.836,265.947,409.479,262.589,405.336,262.589z"/>
		<path id="XMLID_1713_" d="M405.336,357.255c-4.142,0-7.5,3.358-7.5,7.5V426.5H114.164V164.089c0-4.142-3.358-7.5-7.5-7.5    s-7.5,3.358-7.5,7.5v314.028c0,18.683,15.2,33.883,33.883,33.883h245.906c18.683,0,33.883-15.2,33.883-33.883V364.755    C412.836,360.613,409.479,357.255,405.336,357.255z M378.953,497H133.047c-10.412,0-18.883-8.471-18.883-18.883V441.5h283.673    v36.617C397.836,488.529,389.365,497,378.953,497z"/>
		<path id="XMLID_1716_" d="M378.953,0H133.047c-18.683,0-33.883,15.2-33.883,33.883v96.028c0,4.142,3.358,7.5,7.5,7.5    s7.5-3.358,7.5-7.5V76.22h283.673v159.691c0,4.142,3.358,7.5,7.5,7.5s7.5-3.358,7.5-7.5V33.883C412.836,15.2,397.636,0,378.953,0z     M114.164,61.22V33.883c0-10.412,8.471-18.883,18.883-18.883h245.906c10.412,0,18.883,8.471,18.883,18.883V61.22H114.164z"/>
		<path id="XMLID_1719_" d="M270.5,448.175h-29c-11.028,0-20,8.972-20,20s8.972,20,20,20h29c11.028,0,20-8.972,20-20    S281.528,448.175,270.5,448.175z M270.5,473.175h-29c-2.757,0-5-2.243-5-5s2.243-5,5-5h29c2.757,0,5,2.243,5,5    S273.257,473.175,270.5,473.175z"/>
		<path id="XMLID_1722_" d="M169.667,460.675h-14c-4.142,0-7.5,3.358-7.5,7.5s3.358,7.5,7.5,7.5h14c4.142,0,7.5-3.358,7.5-7.5    S173.809,460.675,169.667,460.675z"/>
		<path id="XMLID_1723_" d="M356.333,460.675h-14c-4.142,0-7.5,3.358-7.5,7.5s3.358,7.5,7.5,7.5h14c4.142,0,7.5-3.358,7.5-7.5    S360.476,460.675,356.333,460.675z"/>
		<path id="XMLID_1724_" d="M212.093,40.167H212c-4.142,0-7.454,3.358-7.454,7.5s3.404,7.5,7.546,7.5s7.5-3.358,7.5-7.5    S216.235,40.167,212.093,40.167z"/>
		<path id="XMLID_1725_" d="M212.093,21.5H212c-4.142,0-7.454,3.358-7.454,7.5s3.404,7.5,7.546,7.5s7.5-3.358,7.5-7.5    S216.235,21.5,212.093,21.5z"/>
		<path id="XMLID_1726_" d="M300,29.833h-64c-4.142,0-7.5,3.358-7.5,7.5s3.358,7.5,7.5,7.5h64c4.142,0,7.5-3.358,7.5-7.5    S304.142,29.833,300,29.833z"/>
		<path id="XMLID_1727_" d="M353.928,159.568c7.737,0,14.031-6.294,14.031-14.031v-23.781c0-7.737-6.294-14.031-14.031-14.031    h-9.189c-7.736,0-14.03,6.294-14.03,14.031v23.781c0,7.737,6.294,14.031,14.03,14.031H353.928z M345.708,122.725h7.25v21.843    h-7.25V122.725z"/>
		<path id="XMLID_1730_" d="M131.5,181.05c0,4.142,3.358,7.5,7.5,7.5h234c4.142,0,7.5-3.358,7.5-7.5s-3.358-7.5-7.5-7.5H139    C134.858,173.55,131.5,176.908,131.5,181.05z"/>
		<path id="XMLID_1731_" d="M356.544,210.672c0-4.142-3.358-7.5-7.5-7.5h-78.066c-4.142,0-7.5,3.358-7.5,7.5v78.065    c0,4.142,3.358,7.5,7.5,7.5h78.066c4.142,0,7.5-3.358,7.5-7.5V210.672z M341.544,281.238h-63.066v-63.065h63.066V281.238z"/>
		<path id="XMLID_1734_" d="M349.044,310.106h-78.066c-4.142,0-7.5,3.358-7.5,7.5v78.066c0,4.142,3.358,7.5,7.5,7.5h78.066    c4.142,0,7.5-3.358,7.5-7.5v-78.066C356.544,313.464,353.187,310.106,349.044,310.106z M341.544,388.172h-63.066v-63.066h63.066    V388.172z"/>
		<path id="XMLID_1737_" d="M248.521,210.672c0-4.142-3.358-7.5-7.5-7.5h-78.066c-4.142,0-7.5,3.358-7.5,7.5v78.065    c0,4.142,3.358,7.5,7.5,7.5h78.066c4.142,0,7.5-3.358,7.5-7.5V210.672z M233.521,281.238h-63.066v-63.065h63.066V281.238z"/>
		<path id="XMLID_1740_" d="M241.021,310.106h-78.066c-4.142,0-7.5,3.358-7.5,7.5v78.066c0,4.142,3.358,7.5,7.5,7.5h78.066    c4.142,0,7.5-3.358,7.5-7.5v-78.066C248.521,313.464,245.164,310.106,241.021,310.106z M233.521,388.172h-63.066v-63.066h63.066    V388.172z"/>
		<path id="XMLID_1743_" d="M189.409,257.205h5.08v5.08c0,4.142,3.358,7.5,7.5,7.5s7.5-3.358,7.5-7.5v-5.08h5.079    c4.142,0,7.5-3.358,7.5-7.5s-3.358-7.5-7.5-7.5h-5.079v-5.08c0-4.142-3.358-7.5-7.5-7.5s-7.5,3.358-7.5,7.5v5.08h-5.08    c-4.142,0-7.5,3.358-7.5,7.5S185.267,257.205,189.409,257.205z"/>
		<path id="XMLID_1744_" d="M298.86,257.205h25.159c4.142,0,7.5-3.358,7.5-7.5s-3.358-7.5-7.5-7.5H298.86    c-4.142,0-7.5,3.358-7.5,7.5S294.718,257.205,298.86,257.205z"/>
		<path id="XMLID_1745_" d="M189.409,364.139h25.159c4.142,0,7.5-3.358,7.5-7.5s-3.358-7.5-7.5-7.5h-25.159    c-4.142,0-7.5,3.358-7.5,7.5S185.267,364.139,189.409,364.139z"/>
		<path id="XMLID_1746_" d="M298.86,372.976h25.159c4.142,0,7.5-3.358,7.5-7.5s-3.358-7.5-7.5-7.5H298.86    c-4.142,0-7.5,3.358-7.5,7.5S294.718,372.976,298.86,372.976z"/>
		<path id="XMLID_1747_" d="M298.86,355.302h25.159c4.142,0,7.5-3.358,7.5-7.5s-3.358-7.5-7.5-7.5H298.86    c-4.142,0-7.5,3.358-7.5,7.5S294.718,355.302,298.86,355.302z"/>
		<path id="XMLID_1748_" d="M202.093,367H202c-4.142,0-7.454,3.358-7.454,7.5s3.404,7.5,7.546,7.5s7.5-3.358,7.5-7.5    S206.235,367,202.093,367z"/>
		<path id="XMLID_1749_" d="M202.093,346.278c4.142,0,7.5-3.358,7.5-7.5s-3.358-7.5-7.5-7.5H202c-4.142,0-7.454,3.358-7.454,7.5    S197.951,346.278,202.093,346.278z"/>
	</g>
</g>















</svg>
