<?xml version="1.0" encoding="iso-8859-1"?>
<!-- Generator: Adobe Illustrator 19.0.0, SVG Export Plug-In . SVG Version: 6.00 Build 0)  -->
<svg xmlns="http://www.w3.org/2000/svg" xmlns:xlink="http://www.w3.org/1999/xlink" version="1.1" id="Layer_1" x="0px" y="0px" viewBox="0 0 512 512" style="enable-background:new 0 0 512 512;" xml:space="preserve" width="512" height="512">
<g id="XMLID_1456_">
	<g id="XMLID_1457_">
		<rect id="XMLID_1460_" x="90.691" y="7.5" style="fill:#E3E3E3;" width="332.72" height="497"/>
		<path id="XMLID_1463_" style="fill:#C8C8C8;" d="M184.621,316.8v86.28c0,13.24-10.77,24-24,24h-69.93V292.8h69.93    C173.851,292.8,184.621,303.57,184.621,316.8z"/>
		<path id="XMLID_1466_" style="fill:#C8C8C8;" d="M423.411,85.52V215.6h-67.83c-13.23,0-24-10.76-24-24v-82.08    c0-13.23,10.77-24,24-24H423.411z"/>
		<g id="XMLID_1467_">
			<path id="XMLID_1470_" style="fill:#C8C8C8;" d="M371.311,7.5v65.34c0,6.63-5.37,12-12,12h-204.52c-6.63,0-12-5.37-12-12V7.5     H371.311z"/>
			<rect id="XMLID_1471_" x="154.791" y="7.5" style="fill:#4E7693;" width="204.52" height="65.34"/>
			<polygon id="XMLID_1472_" style="fill:#618BAA;" points="306.721,7.5 241.381,72.84 218.341,72.84 283.691,7.5    "/>
			<polygon id="XMLID_1473_" style="fill:#618BAA;" points="344.759,7.5 279.419,72.84 256.379,72.84 321.729,7.5    "/>
			<path id="XMLID_1476_" style="fill:#C8C8C8;" d="M144.963,268.41V129.25c0-6.627,5.373-12,12-12h204.52c6.627,0,12,5.373,12,12     v139.16c0,6.627-5.373,12-12,12h-204.52C150.336,280.41,144.963,275.038,144.963,268.41z"/>
			<rect id="XMLID_1477_" x="154.791" y="129.25" style="fill:#4E7693;" width="204.52" height="139.16"/>
			<path id="XMLID_1480_" style="fill:#385F82;" d="M359.311,129.25v86.35h-3.73c-13.23,0-24-10.76-24-24v-62.35H359.311z"/>
			<polygon id="XMLID_1481_" style="fill:#618BAA;" points="359.131,129.25 331.581,156.8 219.961,268.41 205.561,268.41      331.581,142.39 344.721,129.25    "/>
			<polygon id="XMLID_1482_" style="fill:#618BAA;" points="359.311,149.78 359.311,236.88 327.771,268.41 240.681,268.41      331.581,177.51    "/>
			<polygon id="XMLID_1483_" style="fill:#4E7693;" points="359.131,129.25 331.581,156.8 331.581,142.39 344.721,129.25    "/>
			<path id="XMLID_1484_" style="fill:#4E7693;" d="M359.311,149.78v65.82h-3.73c-13.23,0-24-10.76-24-24v-14.09L359.311,149.78z"/>
			<path id="XMLID_1487_" style="fill:#C8C8C8;" d="M142.791,460.24V321.09c0-6.627,5.373-12,12-12h204.52c6.627,0,12,5.373,12,12     v139.15c0,6.627-5.373,12-12,12h-204.52C148.164,472.24,142.791,466.868,142.791,460.24z"/>
			<rect id="XMLID_1488_" x="154.791" y="321.09" style="fill:#4E7693;" width="204.52" height="139.15"/>
			<path id="XMLID_1491_" style="fill:#385F82;" d="M184.621,321.09v81.99c0,13.24-10.77,24-24,24h-5.83V321.09H184.621z"/>
			<polygon id="XMLID_1494_" style="fill:#618BAA;" points="337.621,321.09 198.471,460.24 162.661,460.24 301.811,321.09    "/>
			<polygon id="XMLID_1497_" style="fill:#618BAA;" points="275.261,321.09 154.791,441.56 154.791,374.11 207.811,321.09    "/>
			<path id="XMLID_1498_" style="fill:#4E7693;" d="M184.621,344.28v58.8c0,4.25-1.11,8.25-3.06,11.71l-9.22,9.22     c-3.47,1.96-7.47,3.07-11.72,3.07h-5.83v-52.97L184.621,344.28z"/>
		</g>
		<g id="XMLID_1499_">
			<path id="XMLID_2714_" style="fill:#159BFF;" d="M437.664,203.603h-82.08c-6.627,0-12-5.373-12-12v-82.08c0-6.627,5.373-12,12-12     h82.08c6.627,0,12,5.373,12,12v82.08C449.664,198.23,444.292,203.603,437.664,203.603z"/>
		</g>
		<g id="XMLID_1500_">
			<g id="XMLID_1502_">
				<path id="XMLID_2712_" style="fill:#FC4747;" d="M160.619,415.085H74.336c-6.627,0-12-5.373-12-12v-86.283      c0-6.627,5.373-12,12-12h86.283c6.627,0,12,5.373,12,12v86.283C172.619,409.712,167.247,415.085,160.619,415.085z"/>
			</g>
			<path id="XMLID_1505_" style="fill:#E3E3E3;" d="M98.41,345.937v28.011c0,3.505,3.673,5.798,6.822,4.259l28.655-14.006     c3.545-1.733,3.545-6.785,0-8.518l-28.655-14.006C102.082,340.139,98.41,342.432,98.41,345.937z"/>
		</g>
	</g>
	<g id="XMLID_1506_">
		<path id="XMLID_1507_" d="M154.791,80.339h204.52c4.143,0,7.5-3.358,7.5-7.5V7.5c0-4.142-3.357-7.5-7.5-7.5s-7.5,3.358-7.5,7.5    v57.839h-189.52V7.5c0-4.142-3.357-7.5-7.5-7.5s-7.5,3.358-7.5,7.5v65.339C147.291,76.981,150.648,80.339,154.791,80.339z"/>
		<path id="XMLID_1508_" d="M359.311,313.588H179.831c-1.54-9.225-9.557-16.287-19.212-16.287h-31.091    c-0.556-3.593-3.653-6.347-7.402-6.347s-6.846,2.754-7.402,6.347H98.188v-83.879c0-4.142-3.357-7.5-7.5-7.5s-7.5,3.358-7.5,7.5    v83.879h-8.852c-10.752,0-19.5,8.748-19.5,19.5v86.283c0,10.752,8.748,19.5,19.5,19.5h8.852V504.5c0,4.142,3.357,7.5,7.5,7.5    s7.5-3.358,7.5-7.5v-81.916h16.547c0.585,3.559,3.667,6.278,7.392,6.278s6.807-2.718,7.392-6.278h17.773v37.658    c0,4.142,3.357,7.5,7.5,7.5h42.453c4.143,0,7.5-3.358,7.5-7.5s-3.357-7.5-7.5-7.5h-34.953V422.5    c9.971-0.852,17.828-9.227,17.828-19.415v-74.497h171.691v124.155H231.422c-4.143,0-7.5,3.358-7.5,7.5s3.357,7.5,7.5,7.5h127.889    c4.143,0,7.5-3.358,7.5-7.5V321.088C366.811,316.946,363.453,313.588,359.311,313.588z M165.119,403.084    c0,2.481-2.019,4.5-4.5,4.5H74.336c-2.481,0-4.5-2.019-4.5-4.5v-86.283c0-2.481,2.019-4.5,4.5-4.5h86.283    c2.481,0,4.5,2.019,4.5,4.5V403.084z"/>
		<path id="XMLID_1511_" d="M90.688,186.745c4.143,0,7.5-3.358,7.5-7.5V7.5c0-4.142-3.357-7.5-7.5-7.5s-7.5,3.358-7.5,7.5v171.745    C83.188,183.387,86.545,186.745,90.688,186.745z"/>
		<path id="XMLID_1512_" d="M391.976,65.182c4.143,0,7.5-3.358,7.5-7.5V38.683c0-4.142-3.357-7.5-7.5-7.5s-7.5,3.358-7.5,7.5v18.999    C384.476,61.824,387.833,65.182,391.976,65.182z"/>
		<path id="XMLID_1513_" d="M391.976,239c-4.143,0-7.5,3.358-7.5,7.5V265.5c0,4.142,3.357,7.5,7.5,7.5s7.5-3.358,7.5-7.5V246.5    C399.476,242.358,396.118,239,391.976,239z"/>
		<path id="XMLID_1514_" d="M391.976,290.955c-4.143,0-7.5,3.358-7.5,7.5v19c0,4.142,3.357,7.5,7.5,7.5s7.5-3.358,7.5-7.5v-19    C399.476,294.313,396.118,290.955,391.976,290.955z"/>
		<path id="XMLID_1515_" d="M391.976,342.909c-4.143,0-7.5,3.358-7.5,7.5v18.999c0,4.142,3.357,7.5,7.5,7.5s7.5-3.358,7.5-7.5    v-18.999C399.476,346.267,396.118,342.909,391.976,342.909z"/>
		<path id="XMLID_1516_" d="M391.976,394.863c-4.143,0-7.5,3.358-7.5,7.5v18.999c0,4.142,3.357,7.5,7.5,7.5s7.5-3.358,7.5-7.5    v-18.999C399.476,398.221,396.118,394.863,391.976,394.863z"/>
		<path id="XMLID_1517_" d="M391.976,446.818c-4.143,0-7.5,3.358-7.5,7.5v18.999c0,4.142,3.357,7.5,7.5,7.5s7.5-3.358,7.5-7.5    v-18.999C399.476,450.176,396.118,446.818,391.976,446.818z"/>
		<path id="XMLID_1518_" d="M122.126,65.182c4.143,0,7.5-3.358,7.5-7.5V38.683c0-4.142-3.357-7.5-7.5-7.5s-7.5,3.358-7.5,7.5v18.999    C114.626,61.824,117.983,65.182,122.126,65.182z"/>
		<path id="XMLID_1519_" d="M122.126,117.137c4.143,0,7.5-3.358,7.5-7.5V90.638c0-4.142-3.357-7.5-7.5-7.5s-7.5,3.358-7.5,7.5    v18.999C114.626,113.779,117.983,117.137,122.126,117.137z"/>
		<path id="XMLID_1520_" d="M122.126,169.091c4.143,0,7.5-3.358,7.5-7.5v-18.999c0-4.142-3.357-7.5-7.5-7.5s-7.5,3.358-7.5,7.5    v18.999C114.626,165.733,117.983,169.091,122.126,169.091z"/>
		<path id="XMLID_1521_" d="M122.126,221.045c4.143,0,7.5-3.358,7.5-7.5v-19c0-4.142-3.357-7.5-7.5-7.5s-7.5,3.358-7.5,7.5v19    C114.626,217.688,117.983,221.045,122.126,221.045z"/>
		<path id="XMLID_1522_" d="M122.126,273c4.143,0,7.5-3.358,7.5-7.5V246.5c0-4.142-3.357-7.5-7.5-7.5s-7.5,3.358-7.5,7.5V265.5    C114.626,269.642,117.983,273,122.126,273z"/>
		<path id="XMLID_1523_" d="M122.126,446.818c-4.143,0-7.5,3.358-7.5,7.5v18.999c0,4.142,3.357,7.5,7.5,7.5s7.5-3.358,7.5-7.5    v-18.999C129.626,450.176,126.269,446.818,122.126,446.818z"/>
		<path id="XMLID_1524_" d="M437.664,90.022h-6.75V7.5c0-4.142-3.357-7.5-7.5-7.5s-7.5,3.358-7.5,7.5v82.522h-16.469    c-0.314-3.854-3.534-6.885-7.469-6.885s-7.155,3.031-7.469,6.885h-28.923c-10.752,0-19.5,8.748-19.5,19.5v12.232h-21.995    c-4.143,0-7.5,3.358-7.5,7.5s3.357,7.5,7.5,7.5h21.995v54.849c0,9.461,6.775,17.363,15.727,19.126v50.18h-189.52V136.754h117.62    c4.143,0,7.5-3.358,7.5-7.5s-3.357-7.5-7.5-7.5h-125.12c-4.143,0-7.5,3.358-7.5,7.5v139.155c0,4.142,3.357,7.5,7.5,7.5h204.52    c4.143,0,7.5-3.358,7.5-7.5v-57.306h17.665v2.442c0,4.142,3.357,7.5,7.5,7.5s7.5-3.358,7.5-7.5v-2.442h16.438V504.5    c0,4.142,3.357,7.5,7.5,7.5s7.5-3.358,7.5-7.5V211.103h6.75c10.752,0,19.5-8.748,19.5-19.5v-82.081    C457.164,98.77,448.416,90.022,437.664,90.022z M442.164,191.603c0,2.481-2.019,4.5-4.5,4.5h-82.08c-2.481,0-4.5-2.019-4.5-4.5    v-82.081c0-2.481,2.019-4.5,4.5-4.5h82.08c2.481,0,4.5,2.019,4.5,4.5V191.603z"/>
		<g id="XMLID_1527_">
			<g id="XMLID_1528_">
				<g id="XMLID_1529_">
					<path id="XMLID_1530_" d="M388.96,185.361c-12.242,0-22.202-8.97-22.202-19.997c0-7.327,4.422-14.054,11.54-17.555       c3.717-1.827,8.213-0.297,10.04,3.419c1.829,3.717,0.298,8.212-3.419,10.041c-1.528,0.751-3.161,2.222-3.161,4.095       c0,2.662,3.365,4.997,7.202,4.997s7.203-2.335,7.203-4.997v-36.511c0-3.151,1.97-5.967,4.931-7.046l15.327-5.589       c3.892-1.419,8.196,0.586,9.615,4.477c1.419,3.892-0.585,8.197-4.477,9.616l-10.396,3.791v31.263       C411.163,176.391,401.203,185.361,388.96,185.361z"/>
				</g>
			</g>
		</g>
		<path id="XMLID_1531_" d="M137.18,348.946l-28.655-14.006c-3.818-1.867-8.251-1.636-11.856,0.614    c-3.605,2.251-5.758,6.133-5.758,10.383v28.011c0,4.25,2.152,8.132,5.758,10.383c1.987,1.241,4.226,1.867,6.475,1.867    c1.83,0,3.668-0.416,5.382-1.253l28.655-14.006c4.234-2.069,6.865-6.283,6.865-10.996    C144.046,355.23,141.415,351.016,137.18,348.946z M105.91,369.528v-19.17l19.61,9.585L105.91,369.528z"/>
	</g>
</g>















</svg>
