<?xml version="1.0" encoding="iso-8859-1"?>
<!-- Generator: Adobe Illustrator 19.0.0, SVG Export Plug-In . SVG Version: 6.00 Build 0)  -->
<svg xmlns="http://www.w3.org/2000/svg" xmlns:xlink="http://www.w3.org/1999/xlink" version="1.1" id="Layer_1" x="0px" y="0px" viewBox="0 0 511.998 511.998" style="enable-background:new 0 0 511.998 511.998;" xml:space="preserve" width="512" height="512">
<g id="XMLID_1281_">
	<g id="XMLID_1282_">
		<g id="XMLID_1283_">
			<g id="XMLID_1284_">
				<path id="XMLID_2759_" style="fill:#4E7693;" d="M295.711,359.248l0,86.603h-79.423l0-86.603h20.211v30.641      c0,10.77,8.73,19.501,19.501,19.501s19.501-8.73,19.501-19.501v-30.641H295.711z"/>
				<rect id="XMLID_2756_" x="216.287" y="428.851" style="fill:#385F82;" width="79.423" height="17.001"/>
				<rect id="XMLID_2753_" x="216.287" y="359.248" style="fill:#385F82;" width="20.211" height="23.401"/>
				<rect id="XMLID_2750_" x="275.5" y="359.248" style="fill:#385F82;" width="20.211" height="23.401"/>
				<rect id="XMLID_2749_" x="7.499" y="75.869" style="fill:#DCE561;" width="497" height="263.95"/>
				<rect id="XMLID_2745_" x="7.499" y="319.849" style="fill:#C3D24C;" width="497" height="19.97"/>
				<path id="XMLID_2744_" style="fill:#C3D24C;" d="M439.079,75.869v39.15c0,6.63-5.37,12-12,12l-101.16,0c-6.62,0-12-5.37-12-12      v-39.15L439.079,75.869z"/>
				<path id="XMLID_2743_" style="fill:#C3D24C;" d="M248.819,75.869l0,71.15c0,6.63-5.38,12-12,12l-162.14,0c-6.63,0-12-5.37-12-12      l0-71.15L248.819,75.869z"/>
				<path id="XMLID_2741_" style="fill:#C3D24C;" d="M178.029,223.669l0,116.15l-142.81,0l0-116.15c0-6.63,5.37-12,12-12l118.81,0      C172.659,211.669,178.029,217.039,178.029,223.669z"/>
				<rect id="XMLID_2738_" x="7.499" y="331.849" style="fill:#618BAA;" width="497" height="38.8"/>
				<rect id="XMLID_2737_" x="35.219" y="331.849" style="fill:#4E7693;" width="142.81" height="38.8"/>
				<rect id="XMLID_2734_" x="7.5" y="331.851" style="fill:#89B4C9;" width="496.998" height="12.09"/>
				<rect id="XMLID_2731_" x="35.219" y="331.849" style="fill:#618BAA;" width="142.81" height="12.092"/>
				<rect id="XMLID_2728_" x="183.996" y="440.851" style="fill:#618BAA;" width="144.006" height="27.001"/>
			</g>
			<g id="XMLID_1285_">
				<path id="XMLID_2726_" style="fill:#C3D24C;" d="M245.056,284.1l0-102.877c0-6.627,5.373-12,12-12l162.134,0      c6.627,0,12,5.373,12,12V284.1c0,6.627-5.373,12-12,12l-162.134,0C250.428,296.1,245.056,290.727,245.056,284.1z"/>
				<rect id="XMLID_2723_" x="257.056" y="181.223" style="fill:#E3E3E3;" width="162.133" height="102.877"/>
			</g>
			<g id="XMLID_1293_">
				<rect id="XMLID_2719_" x="74.681" y="44.146" style="fill:#E3E3E3;" width="162.133" height="102.877"/>
			</g>
			<g id="XMLID_1295_">
				<rect id="XMLID_2715_" x="47.221" y="223.669" style="fill:#159BFF;" width="118.812" height="184.422"/>
			</g>
			<g id="XMLID_1297_">
				<rect id="XMLID_2713_" x="325.922" y="50.835" style="fill:#00D8E0;" width="101.16" height="64.188"/>
			</g>
		</g>
	</g>
	<g id="XMLID_1299_">
		<path id="XMLID_1300_" d="M7.5,116.743c4.142,0,7.5-3.357,7.5-7.5V83.37h52.181v63.652c0,4.143,3.358,7.5,7.5,7.5h162.133    c4.142,0,7.5-3.357,7.5-7.5V83.37h18.263c4.143,0,7.5-3.357,7.5-7.5s-3.357-7.5-7.5-7.5h-18.263V44.146c0-4.143-3.358-7.5-7.5-7.5    H74.681c-4.142,0-7.5,3.357-7.5,7.5V68.37H7.5c-4.142,0-7.5,3.357-7.5,7.5v33.373C0,113.386,3.358,116.743,7.5,116.743z     M82.181,51.646h147.133v87.877H82.181V51.646z"/>
		<path id="XMLID_1303_" d="M504.498,68.37h-69.916V50.835c0-4.143-3.357-7.5-7.5-7.5h-101.16c-4.143,0-7.5,3.357-7.5,7.5V68.37    h-21.667c-4.143,0-7.5,3.357-7.5,7.5s3.357,7.5,7.5,7.5h21.667v31.653c0,4.143,3.357,7.5,7.5,7.5h101.16    c4.143,0,7.5-3.357,7.5-7.5V83.37h62.416v240.98H173.533V223.669c0-4.143-3.358-7.5-7.5-7.5H47.221c-4.142,0-7.5,3.357-7.5,7.5    v100.682H15v-180.93c0-4.143-3.358-7.5-7.5-7.5s-7.5,3.357-7.5,7.5v227.23c0,4.143,3.358,7.5,7.5,7.5h32.221v29.939    c0,4.143,3.358,7.5,7.5,7.5h58.022c4.142,0,7.5-3.357,7.5-7.5s-3.358-7.5-7.5-7.5H54.721V231.169h103.812v169.422h-19.112    c-4.142,0-7.5,3.357-7.5,7.5s3.358,7.5,7.5,7.5h26.612c4.142,0,7.5-3.357,7.5-7.5v-29.939h35.254v55.2h-24.792    c-4.142,0-7.5,3.357-7.5,7.5v27.001c0,4.143,3.358,7.5,7.5,7.5h144.006c4.143,0,7.5-3.357,7.5-7.5v-27.001    c0-4.143-3.357-7.5-7.5-7.5h-24.791v-55.2h201.287c4.143,0,7.5-3.357,7.5-7.5V75.87C511.998,71.728,508.641,68.37,504.498,68.37z     M419.582,107.523h-86.16V58.335h86.16V107.523z M15,363.151v-23.335v-0.466h24.721v23.801H15z M320.502,460.353H191.496v-12.001    h129.006V460.353z M288.211,433.352h-64.423v-55.2h5.21v11.738c0,14.888,12.113,27,27.001,27c14.889,0,27.001-12.112,27.001-27    v-11.738h5.211V433.352z M243.998,378.151H268v11.738c0,6.617-5.384,12-12.001,12s-12.001-5.383-12.001-12V378.151z     M496.998,363.151H173.533v-23.801h323.465v0.466V363.151z"/>
		<path id="XMLID_1311_" d="M249.556,181.223V284.1c0,4.143,3.358,7.5,7.5,7.5h162.134c4.143,0,7.5-3.357,7.5-7.5V181.223    c0-4.143-3.357-7.5-7.5-7.5H257.056C252.914,173.723,249.556,177.08,249.556,181.223z M264.556,188.723h147.134V276.6H264.556    V188.723z"/>
		<path id="XMLID_1314_" d="M386.623,201.161h-68.5c-4.143,0-7.5,3.357-7.5,7.5s3.357,7.5,7.5,7.5h68.5c4.143,0,7.5-3.357,7.5-7.5    S390.766,201.161,386.623,201.161z"/>
		<path id="XMLID_1315_" d="M289.623,216.161h7c4.143,0,7.5-3.357,7.5-7.5s-3.357-7.5-7.5-7.5h-7c-4.143,0-7.5,3.357-7.5,7.5    S285.48,216.161,289.623,216.161z"/>
		<path id="XMLID_1316_" d="M386.623,225.161h-97c-4.143,0-7.5,3.357-7.5,7.5s3.357,7.5,7.5,7.5h97c4.143,0,7.5-3.357,7.5-7.5    S390.766,225.161,386.623,225.161z"/>
		<path id="XMLID_1317_" d="M386.623,249.161h-11c-4.143,0-7.5,3.357-7.5,7.5s3.357,7.5,7.5,7.5h11c4.143,0,7.5-3.357,7.5-7.5    S390.766,249.161,386.623,249.161z"/>
		<path id="XMLID_1318_" d="M355.623,249.161h-66c-4.143,0-7.5,3.357-7.5,7.5s3.357,7.5,7.5,7.5h66c4.143,0,7.5-3.357,7.5-7.5    S359.766,249.161,355.623,249.161z"/>
		<path id="XMLID_1319_" d="M204.248,64.084h-68.5c-4.142,0-7.5,3.357-7.5,7.5s3.358,7.5,7.5,7.5h68.5c4.142,0,7.5-3.357,7.5-7.5    S208.39,64.084,204.248,64.084z"/>
		<path id="XMLID_1320_" d="M107.248,79.084h7c4.142,0,7.5-3.357,7.5-7.5s-3.358-7.5-7.5-7.5h-7c-4.142,0-7.5,3.357-7.5,7.5    S103.105,79.084,107.248,79.084z"/>
		<path id="XMLID_1321_" d="M204.248,88.084h-97c-4.142,0-7.5,3.357-7.5,7.5s3.358,7.5,7.5,7.5h97c4.142,0,7.5-3.357,7.5-7.5    S208.39,88.084,204.248,88.084z"/>
		<path id="XMLID_1322_" d="M204.248,112.084h-11c-4.142,0-7.5,3.357-7.5,7.5s3.358,7.5,7.5,7.5h11c4.142,0,7.5-3.357,7.5-7.5    S208.39,112.084,204.248,112.084z"/>
		<path id="XMLID_1323_" d="M173.248,112.084h-66c-4.142,0-7.5,3.357-7.5,7.5s3.358,7.5,7.5,7.5h66c4.142,0,7.5-3.357,7.5-7.5    S177.39,112.084,173.248,112.084z"/>
		<path id="XMLID_1324_" d="M84.406,330.03h44.442c4.142,0,7.5-3.357,7.5-7.5s-3.358-7.5-7.5-7.5H84.406c-4.142,0-7.5,3.357-7.5,7.5    S80.264,330.03,84.406,330.03z"/>
		<path id="XMLID_1325_" d="M84.406,352.411h44.442c4.142,0,7.5-3.357,7.5-7.5s-3.358-7.5-7.5-7.5H84.406    c-4.142,0-7.5,3.357-7.5,7.5S80.264,352.411,84.406,352.411z"/>
		<path id="XMLID_1326_" d="M84.406,375.859h44.442c4.142,0,7.5-3.357,7.5-7.5s-3.358-7.5-7.5-7.5H84.406    c-4.142,0-7.5,3.357-7.5,7.5S80.264,375.859,84.406,375.859z"/>
		<path id="XMLID_1327_" d="M84.406,291.6h44.442c4.142,0,7.5-3.357,7.5-7.5s-3.358-7.5-7.5-7.5H84.406c-4.142,0-7.5,3.357-7.5,7.5    S80.264,291.6,84.406,291.6z"/>
		<path id="XMLID_1328_" d="M84.406,267.181h44.442c4.142,0,7.5-3.357,7.5-7.5s-3.358-7.5-7.5-7.5H84.406    c-4.142,0-7.5,3.357-7.5,7.5S80.264,267.181,84.406,267.181z"/>
		<path id="XMLID_1329_" d="M382.332,90.43h13.09c4.143,0,7.5-3.357,7.5-7.5s-3.357-7.5-7.5-7.5h-13.09c-4.143,0-7.5,3.357-7.5,7.5    S378.189,90.43,382.332,90.43z"/>
		<path id="XMLID_1330_" d="M357.582,90.43h3.542c4.143,0,7.5-3.357,7.5-7.5s-3.357-7.5-7.5-7.5h-3.542c-4.143,0-7.5,3.357-7.5,7.5    S353.439,90.43,357.582,90.43z"/>
	</g>
</g>















</svg>
