<?xml version="1.0" encoding="iso-8859-1"?>
<!-- Generator: Adobe Illustrator 19.0.0, SVG Export Plug-In . SVG Version: 6.00 Build 0)  -->
<svg xmlns="http://www.w3.org/2000/svg" xmlns:xlink="http://www.w3.org/1999/xlink" version="1.1" id="Layer_1" x="0px" y="0px" viewBox="0 0 512 512" style="enable-background:new 0 0 512 512;" xml:space="preserve" width="512" height="512">
<g id="XMLID_1033_">
	<g id="XMLID_1078_">
		<g id="XMLID_1137_">
			<g id="XMLID_1141_">
				<g id="XMLID_1139_">
					<path id="XMLID_1140_" style="fill:#929292;" d="M394.966,305.26l-25.62,25.62l-141.56,141.55       c-42.75,42.76-112.32,42.76-155.08,0c-38.49-38.49-42.33-98.7-11.52-141.52c3.4-4.75,7.25-9.29,11.52-13.56       c7.22-7.22,18.92-7.22,26.14,0c7.22,7.22,7.22,18.92,0,26.14c-4.32,4.32-7.99,9.06-10.99,14.09       c-16.69,27.91-13.03,64.69,10.99,88.71c28.34,28.34,74.46,28.34,102.8,0l141.56-141.55l25.62-25.62L394.966,305.26z"/>
				</g>
			</g>
			
				<rect id="XMLID_1145_" x="350.602" y="286.883" transform="matrix(-0.7071 -0.7071 0.7071 -0.7071 414.4024 781.6501)" style="fill:#6E6E6E;" width="36.968" height="36.232"/>
			<path id="XMLID_1148_" style="fill:#6E6E6E;" d="M98.846,343.49c-4.32,4.32-7.99,9.06-10.99,14.09l-26.67-26.67     c3.4-4.75,7.25-9.29,11.52-13.56c7.22-7.22,18.92-7.22,26.14,0C106.066,324.57,106.066,336.27,98.846,343.49z"/>
			<g id="XMLID_1149_">
				<polygon id="XMLID_1152_" style="fill:#AAAAAA;" points="159.086,341.62 123.976,376.729 39.406,292.149 52.746,278.81       74.506,257.05     "/>
				<polygon id="XMLID_1155_" style="fill:#929292;" points="74.506,257.05 159.086,341.62 137.316,363.39 52.746,278.81     "/>
				<polygon id="XMLID_1156_" style="fill:#FFDA2C;" points="408.626,86.969 363.596,132 349.076,146.52 269.606,67.05       284.126,52.53 329.166,7.5     "/>
				
					<rect id="XMLID_1157_" x="306.334" y="43.331" transform="matrix(0.7071 -0.7071 0.7071 0.7071 22.3559 253.021)" style="fill:#FFB229;" width="20.534" height="112.388"/>
				
					<rect id="XMLID_2700_" x="124.738" y="56.872" transform="matrix(0.7071 0.7071 -0.7071 0.7071 207.4923 -87.5666)" style="fill:#C8C8C8;" width="169.422" height="299.621"/>
				<polygon id="XMLID_1161_" style="fill:#E3E3E3;" points="265.702,51.077 53.846,262.943 43.618,252.714 255.484,40.848     "/>
			</g>
		</g>
		<g id="XMLID_1162_">
			<polygon id="XMLID_1163_" style="fill:#FFDA2C;" points="472.596,240.89 453.066,260.419 449.016,264.459 441.416,272.06      399.816,230.459 407.416,222.859 411.466,218.82 430.996,199.28    "/>
			<polygon id="XMLID_1164_" style="fill:#FFB229;" points="453.066,260.419 449.016,264.459 441.416,272.06 399.816,230.459      407.416,222.859 411.466,218.82    "/>
			
				<rect id="XMLID_2690_" x="349.369" y="235.65" transform="matrix(0.7071 0.7071 -0.7071 0.7071 312.0075 -196.9292)" style="fill:#C8C8C8;" width="88.698" height="85.023"/>
		</g>
	</g>
	<g id="XMLID_1165_">
		<path id="XMLID_1167_" d="M266.872,149.258c-2.929-2.928-7.678-2.928-10.606,0l-73.78,73.78l-16.141-16.141l14.849-14.849    c2.929-2.93,2.929-7.678,0-10.607c-2.929-2.928-7.678-2.928-10.606,0l-20.152,20.152c-2.929,2.93-2.929,7.678,0,10.607    l21.444,21.444l-33.807,33.807c-2.929,2.93-2.929,7.678,0,10.607c1.464,1.464,3.384,2.196,5.303,2.196s3.839-0.732,5.303-2.196    l33.807-33.807l21.445,21.445c1.406,1.406,3.314,2.196,5.303,2.196s3.897-0.79,5.303-2.196l53.02-53.021    c2.929-2.93,2.929-7.678,0-10.607c-2.929-2.928-7.678-2.928-10.606,0l-47.717,47.718l-16.141-16.141l73.78-73.779    C269.801,156.936,269.801,152.188,266.872,149.258z"/>
		<path id="XMLID_1168_" d="M274.827,194.863c1.464,1.464,3.384,2.196,5.303,2.196s3.839-0.732,5.303-2.196    c2.929-2.93,2.929-7.678,0-10.607l-0.063-0.063c-2.928-2.927-7.646-2.896-10.575,0.032S271.898,191.933,274.827,194.863z"/>
		<path id="XMLID_1169_" d="M281.483,142.21c1.919,0,3.839-0.732,5.303-2.196c2.929-2.93,2.929-7.678,0-10.607l-0.063-0.063    c-2.928-2.928-7.646-2.896-10.575,0.032s-2.897,7.709,0.032,10.639C277.644,141.478,279.564,142.21,281.483,142.21z"/>
		<path id="XMLID_1170_" d="M199.83,162.782c-2.918-2.94-7.635-2.926-10.575-0.009c-2.94,2.918-2.927,7.698-0.009,10.639    c1.466,1.478,3.395,2.217,5.324,2.217c1.91,0,3.82-0.725,5.283-2.177c2.94-2.917,2.958-7.666,0.041-10.606L199.83,162.782z"/>
		<path id="XMLID_1171_" d="M477.901,235.583l-41.604-41.605c-1.406-1.406-3.314-2.196-5.303-2.196s-3.897,0.79-5.303,2.196    l-22.714,22.714l-5.253-5.253c-2.929-2.928-7.678-2.928-10.606,0l-60.121,60.12c-1.407,1.407-2.197,3.314-2.197,5.304    s0.79,3.896,2.197,5.304l14.084,14.084l-80.664,80.664c-2.929,2.93-2.929,7.678,0,10.607c1.464,1.464,3.384,2.196,5.303,2.196    s3.839-0.732,5.303-2.196l80.664-80.664l15.536,15.536L222.488,467.127C203.225,486.391,177.57,497,150.248,497    c-27.322,0-52.977-10.608-72.24-29.872c-36.366-36.366-39.711-94.272-8.739-134.5l15.704,15.703    C74.559,362.92,69.32,380.62,70.182,398.735c0.951,19.972,9.248,38.743,23.362,52.857c15.633,15.633,36.169,23.449,56.704,23.449    s41.07-7.816,56.704-23.449l39.903-39.903c2.929-2.93,2.929-7.678,0-10.607c-2.929-2.928-7.678-2.928-10.606,0l-39.903,39.903    c-25.418,25.418-66.776,25.418-92.195,0c-11.47-11.469-18.212-26.728-18.985-42.964c-0.661-13.887,3.078-27.468,10.59-38.907    l22.919,22.919c1.406,1.406,3.314,2.196,5.303,2.196s3.897-0.79,5.303-2.196l16.523-16.523l12.308,12.309    c1.406,1.406,3.314,2.196,5.303,2.196s3.897-0.79,5.303-2.196l211.864-211.864c2.929-2.93,2.929-7.678,0-10.607l-14.862-14.862    l9.11-9.11c2.929-2.929,2.929-7.678,0-10.606c-2.929-2.928-7.678-2.929-10.606,0.001l-9.109,9.109l-68.863-68.863l42.909-42.909    l68.863,68.863l-9.633,9.632c-2.929,2.93-2.929,7.678,0,10.606c1.464,1.465,3.384,2.197,5.303,2.197    c1.919,0,3.839-0.732,5.303-2.196l14.936-14.936c1.407-1.407,2.197-3.314,2.197-5.304s-0.79-3.896-2.197-5.304l-79.47-79.47    c-2.929-2.928-7.678-2.928-10.606,0l-48.212,48.212l-14.862-14.862c-1.406-1.406-3.314-2.196-5.303-2.196s-3.897,0.79-5.303,2.196    l-48.565,48.565c-2.929,2.93-2.929,7.678,0,10.607c2.929,2.928,7.678,2.928,10.606,0l43.262-43.263L364.674,160.65    L163.416,361.908L54.223,252.714l133.829-133.828c2.929-2.93,2.929-7.678,0-10.607c-2.929-2.928-7.678-2.928-10.606,0    L38.314,247.411c-2.929,2.93-2.929,7.678,0,10.607l12.308,12.308l-16.523,16.523c-2.929,2.93-2.929,7.678,0,10.607l24.474,24.474    c-36.811,46.19-33.341,113.634,8.83,155.805C89.498,499.831,118.92,512,150.248,512c31.328,0,60.75-12.169,82.846-34.265    L377.829,333l11.885,11.885c1.406,1.406,3.314,2.196,5.303,2.196s3.897-0.79,5.303-2.196l60.121-60.121    c1.407-1.407,2.197-3.314,2.197-5.304s-0.79-3.896-2.197-5.304l-5.253-5.253l22.713-22.713    C480.83,243.261,480.83,238.513,477.901,235.583z M61.228,280.933l73.969,73.97l-11.219,11.22l-73.97-73.97L61.228,280.933z     M395.017,328.975l-52.112-52.112l49.514-49.514l52.112,52.111L395.017,328.975z M444.581,258.297l-30.998-30.998l17.411-17.411    l30.998,30.999L444.581,258.297z"/>
	</g>
</g>















</svg>
