<?xml version="1.0" encoding="iso-8859-1"?>
<!-- Generator: Adobe Illustrator 19.0.0, SVG Export Plug-In . SVG Version: 6.00 Build 0)  -->
<svg xmlns="http://www.w3.org/2000/svg" xmlns:xlink="http://www.w3.org/1999/xlink" version="1.1" id="Layer_1" x="0px" y="0px" viewBox="0 0 512 512" style="enable-background:new 0 0 512 512;" xml:space="preserve" width="512" height="512">
<g id="XMLID_2677_">
	<g id="XMLID_1034_">
		<path id="XMLID_2805_" style="fill:#E3E3E3;" d="M478.499,504.5H33.501c-14.36,0-26.001-11.641-26.001-26.001V33.501    C7.5,19.141,19.141,7.5,33.501,7.5h444.998c14.36,0,26.001,11.641,26.001,26.001v444.998    C504.5,492.859,492.859,504.5,478.499,504.5z"/>
		<path id="XMLID_1038_" style="fill:#C8D6D5;" d="M424.247,127.299h-18.053c-1.124-11.331-10.162-20.368-21.492-21.493V87.753    c0-6.627-5.373-12-12-12H139.298c-6.627,0-12,5.373-12,12v17.934h0c-11.936,0-21.612,9.676-21.612,21.612v0.001H87.753    c-6.627,0-12,5.373-12,12v233.402c0,6.627,5.373,12,12,12h18.053c1.124,11.331,10.162,20.368,21.492,21.493v18.053    c0,6.627,5.373,12,12,12h233.403c6.627,0,12-5.373,12-12v-18.053c11.331-1.125,20.368-10.162,21.492-21.493h18.053    c6.627,0,12-5.373,12-12V139.299C436.247,132.671,430.874,127.299,424.247,127.299z"/>
		<g id="XMLID_1039_">
			<g id="XMLID_1040_">
				<rect id="XMLID_1043_" x="386.93" y="139.3" style="fill:#4E7693;" width="37.32" height="233.4"/>
				<rect id="XMLID_1046_" x="386.93" y="139.3" style="fill:#385F82;" width="19.38" height="233.4"/>
			</g>
			<g id="XMLID_1047_">
				<rect id="XMLID_2792_" x="87.753" y="139.298" style="fill:#4E7693;" width="37.321" height="233.403"/>
				<rect id="XMLID_1051_" x="105.69" y="139.3" style="fill:#385F82;" width="19.38" height="233.4"/>
			</g>
		</g>
		<g id="XMLID_1052_">
			<g id="XMLID_1053_">
				<rect id="XMLID_1056_" x="139.3" y="386.93" style="fill:#4E7693;" width="233.4" height="37.32"/>
				<rect id="XMLID_1059_" x="139.3" y="386.93" style="fill:#385F82;" width="233.4" height="19.38"/>
			</g>
			<g id="XMLID_1060_">
				<rect id="XMLID_1063_" x="139.3" y="87.75" style="fill:#4E7693;" width="233.4" height="37.32"/>
				<rect id="XMLID_1066_" x="139.3" y="105.69" style="fill:#385F82;" width="233.4" height="19.38"/>
			</g>
		</g>
		<g id="XMLID_1067_">
			<g id="XMLID_1068_">
				<path id="XMLID_1069_" style="fill:#89BF4A;" d="M394.313,129.687v252.627c0,6.627-5.373,12-12,12H129.687      c-6.627,0-12-5.373-12-12V129.687c0-6.627,5.373-12,12-12h252.627C388.941,117.687,394.313,123.059,394.313,129.687z"/>
				<g id="XMLID_1070_">
					<g id="XMLID_1071_">
						<path id="XMLID_1072_" style="fill:#C3D24C;" d="M394.313,129.687v23.276L152.963,394.313h-23.276c-6.627,0-12-5.373-12-12        v-1.982l262.645-262.645h1.982C388.941,117.687,394.313,123.059,394.313,129.687z"/>
						<path id="XMLID_1073_" style="fill:#C3D24C;" d="M394.313,266.583v115.731c0,6.627-5.373,12-12,12H266.583L394.313,266.583z"/>
						<polygon id="XMLID_1074_" style="fill:#C3D24C;" points="349.654,117.687 117.687,349.642 117.687,259.247 259.247,117.687               "/>
					</g>
				</g>
			</g>
		</g>
		<g id="XMLID_1075_">
			<g id="XMLID_1076_">
				<circle id="XMLID_2743_" style="fill:#89BF4A;" cx="437.782" cy="74.218" r="12.405"/>
			</g>
			<g id="XMLID_1077_">
				<circle id="XMLID_2740_" style="fill:#89BF4A;" cx="74.218" cy="437.782" r="12.405"/>
			</g>
		</g>
	</g>
	<g id="XMLID_2678_">
		<path id="XMLID_1079_" d="M131.8,87.615l-0.413,22.571h-1.7c-10.752,0-19.5,8.748-19.5,19.5v2.113H87.75    c-4.142,0-7.5,3.357-7.5,7.5v233.4c0,4.143,3.358,7.5,7.5,7.5h22.437v2.113c0,10.752,8.748,19.5,19.5,19.5h2.112v22.434    c0,4.143,3.358,7.5,7.5,7.5h233.403c4.142,0,7.5-3.357,7.5-7.5v-22.434h2.112c10.752,0,19.5-8.748,19.5-19.5v-2.112h22.434    c4.142,0,7.5-3.357,7.5-7.5V139.299c0-4.143-3.358-7.5-7.5-7.5h-22.434v-2.112c0-10.752-8.748-19.5-19.5-19.5h-2.521l0.408-22.296    c0.037-2.013-0.737-3.956-2.147-5.393c-1.41-1.436-3.339-2.245-5.352-2.245H139.298C135.209,80.253,131.875,83.527,131.8,87.615z     M95.25,365.2V146.8h14.937v218.4H95.25z M365.202,416.747H146.798v-14.934h218.403V416.747z M386.813,129.687v62.225    c0,4.143,3.358,7.5,7.5,7.5s7.5-3.357,7.5-7.5v-45.112h14.934v218.402h-14.934V226.089c0-4.143-3.358-7.5-7.5-7.5    s-7.5,3.357-7.5,7.5v156.225c0,2.481-2.019,4.5-4.5,4.5H129.687c-2.481,0-4.5-2.019-4.5-4.5V129.687c0-2.481,2.019-4.5,4.5-4.5    h252.627C384.795,125.187,386.813,127.205,386.813,129.687z M365.063,95.253l-0.273,14.934H146.389l0.273-14.934H365.063z"/>
		<path id="XMLID_1085_" d="M478.499,0h-266.41c-4.142,0-7.5,3.357-7.5,7.5s3.358,7.5,7.5,7.5h266.41    C488.701,15,497,23.3,497,33.501v444.998C497,488.7,488.701,497,478.499,497H33.501C23.299,497,15,488.7,15,478.499v-53.743    c0-4.143-3.358-7.5-7.5-7.5s-7.5,3.357-7.5,7.5v53.743C0,496.972,15.028,512,33.501,512h444.998    C496.972,512,512,496.972,512,478.499V33.501C512,15.028,496.972,0,478.499,0z"/>
		<path id="XMLID_1086_" d="M7.5,398.078c4.142,0,7.5-3.357,7.5-7.5V33.501C15,23.3,23.299,15,33.501,15h144.41    c4.142,0,7.5-3.357,7.5-7.5s-3.358-7.5-7.5-7.5H33.501C15.028,0,0,15.028,0,33.501v357.077C0,394.721,3.358,398.078,7.5,398.078z"/>
		<path id="XMLID_1087_" d="M470.054,141.833h-17.333c-4.142,0-7.5,3.357-7.5,7.5s3.358,7.5,7.5,7.5h17.333    c4.142,0,7.5-3.357,7.5-7.5S474.196,141.833,470.054,141.833z"/>
		<path id="XMLID_1088_" d="M470.054,163.167h-17.333c-4.142,0-7.5,3.357-7.5,7.5s3.358,7.5,7.5,7.5h17.333    c4.142,0,7.5-3.357,7.5-7.5S474.196,163.167,470.054,163.167z"/>
		<path id="XMLID_1089_" d="M470.054,184.5h-17.333c-4.142,0-7.5,3.357-7.5,7.5s3.358,7.5,7.5,7.5h17.333c4.142,0,7.5-3.357,7.5-7.5    S474.196,184.5,470.054,184.5z"/>
		<path id="XMLID_1090_" d="M470.054,205.833h-17.333c-4.142,0-7.5,3.357-7.5,7.5s3.358,7.5,7.5,7.5h17.333    c4.142,0,7.5-3.357,7.5-7.5S474.196,205.833,470.054,205.833z"/>
		<path id="XMLID_1091_" d="M470.054,227.167h-17.333c-4.142,0-7.5,3.357-7.5,7.5s3.358,7.5,7.5,7.5h17.333    c4.142,0,7.5-3.357,7.5-7.5S474.196,227.167,470.054,227.167z"/>
		<path id="XMLID_1092_" d="M470.054,248.5h-17.333c-4.142,0-7.5,3.357-7.5,7.5s3.358,7.5,7.5,7.5h17.333c4.142,0,7.5-3.357,7.5-7.5    S474.196,248.5,470.054,248.5z"/>
		<path id="XMLID_1093_" d="M470.054,269.833h-17.333c-4.142,0-7.5,3.357-7.5,7.5s3.358,7.5,7.5,7.5h17.333    c4.142,0,7.5-3.357,7.5-7.5S474.196,269.833,470.054,269.833z"/>
		<path id="XMLID_1094_" d="M470.054,291.167h-17.333c-4.142,0-7.5,3.357-7.5,7.5s3.358,7.5,7.5,7.5h17.333    c4.142,0,7.5-3.357,7.5-7.5S474.196,291.167,470.054,291.167z"/>
		<path id="XMLID_1095_" d="M470.054,312.5h-17.333c-4.142,0-7.5,3.357-7.5,7.5s3.358,7.5,7.5,7.5h17.333c4.142,0,7.5-3.357,7.5-7.5    S474.196,312.5,470.054,312.5z"/>
		<path id="XMLID_1096_" d="M470.054,333.833h-17.333c-4.142,0-7.5,3.357-7.5,7.5s3.358,7.5,7.5,7.5h17.333    c4.142,0,7.5-3.357,7.5-7.5S474.196,333.833,470.054,333.833z"/>
		<path id="XMLID_1097_" d="M470.054,355.167h-17.333c-4.142,0-7.5,3.357-7.5,7.5s3.358,7.5,7.5,7.5h17.333    c4.142,0,7.5-3.357,7.5-7.5S474.196,355.167,470.054,355.167z"/>
		<path id="XMLID_1098_" d="M41.946,156.833h17.333c4.142,0,7.5-3.357,7.5-7.5s-3.358-7.5-7.5-7.5H41.946    c-4.142,0-7.5,3.357-7.5,7.5S37.804,156.833,41.946,156.833z"/>
		<path id="XMLID_1099_" d="M41.946,178.167h17.333c4.142,0,7.5-3.357,7.5-7.5s-3.358-7.5-7.5-7.5H41.946    c-4.142,0-7.5,3.357-7.5,7.5S37.804,178.167,41.946,178.167z"/>
		<path id="XMLID_1100_" d="M41.946,199.5h17.333c4.142,0,7.5-3.357,7.5-7.5s-3.358-7.5-7.5-7.5H41.946c-4.142,0-7.5,3.357-7.5,7.5    S37.804,199.5,41.946,199.5z"/>
		<path id="XMLID_1101_" d="M41.946,220.833h17.333c4.142,0,7.5-3.357,7.5-7.5s-3.358-7.5-7.5-7.5H41.946    c-4.142,0-7.5,3.357-7.5,7.5S37.804,220.833,41.946,220.833z"/>
		<path id="XMLID_1102_" d="M41.946,242.167h17.333c4.142,0,7.5-3.357,7.5-7.5s-3.358-7.5-7.5-7.5H41.946    c-4.142,0-7.5,3.357-7.5,7.5S37.804,242.167,41.946,242.167z"/>
		<path id="XMLID_1103_" d="M41.946,263.5h17.333c4.142,0,7.5-3.357,7.5-7.5s-3.358-7.5-7.5-7.5H41.946c-4.142,0-7.5,3.357-7.5,7.5    S37.804,263.5,41.946,263.5z"/>
		<path id="XMLID_1104_" d="M41.946,284.833h17.333c4.142,0,7.5-3.357,7.5-7.5s-3.358-7.5-7.5-7.5H41.946    c-4.142,0-7.5,3.357-7.5,7.5S37.804,284.833,41.946,284.833z"/>
		<path id="XMLID_1105_" d="M41.946,306.167h17.333c4.142,0,7.5-3.357,7.5-7.5s-3.358-7.5-7.5-7.5H41.946    c-4.142,0-7.5,3.357-7.5,7.5S37.804,306.167,41.946,306.167z"/>
		<path id="XMLID_1106_" d="M41.946,327.5h17.333c4.142,0,7.5-3.357,7.5-7.5s-3.358-7.5-7.5-7.5H41.946c-4.142,0-7.5,3.357-7.5,7.5    S37.804,327.5,41.946,327.5z"/>
		<path id="XMLID_1107_" d="M41.946,348.833h17.333c4.142,0,7.5-3.357,7.5-7.5s-3.358-7.5-7.5-7.5H41.946    c-4.142,0-7.5,3.357-7.5,7.5S37.804,348.833,41.946,348.833z"/>
		<path id="XMLID_1108_" d="M41.946,370.167h17.333c4.142,0,7.5-3.357,7.5-7.5s-3.358-7.5-7.5-7.5H41.946    c-4.142,0-7.5,3.357-7.5,7.5S37.804,370.167,41.946,370.167z"/>
		<path id="XMLID_1109_" d="M355.167,452.721v17.334c0,4.143,3.358,7.5,7.5,7.5s7.5-3.357,7.5-7.5v-17.334    c0-4.143-3.358-7.5-7.5-7.5S355.167,448.578,355.167,452.721z"/>
		<path id="XMLID_1110_" d="M333.833,452.721v17.334c0,4.143,3.358,7.5,7.5,7.5s7.5-3.357,7.5-7.5v-17.334    c0-4.143-3.358-7.5-7.5-7.5S333.833,448.578,333.833,452.721z"/>
		<path id="XMLID_1111_" d="M312.5,452.721v17.334c0,4.143,3.358,7.5,7.5,7.5s7.5-3.357,7.5-7.5v-17.334c0-4.143-3.358-7.5-7.5-7.5    S312.5,448.578,312.5,452.721z"/>
		<path id="XMLID_1112_" d="M291.167,452.721v17.334c0,4.143,3.358,7.5,7.5,7.5s7.5-3.357,7.5-7.5v-17.334    c0-4.143-3.358-7.5-7.5-7.5S291.167,448.578,291.167,452.721z"/>
		<path id="XMLID_1113_" d="M269.833,452.721v17.334c0,4.143,3.358,7.5,7.5,7.5s7.5-3.357,7.5-7.5v-17.334    c0-4.143-3.358-7.5-7.5-7.5S269.833,448.578,269.833,452.721z"/>
		<path id="XMLID_1114_" d="M248.5,452.721v17.334c0,4.143,3.358,7.5,7.5,7.5s7.5-3.357,7.5-7.5v-17.334c0-4.143-3.358-7.5-7.5-7.5    S248.5,448.578,248.5,452.721z"/>
		<path id="XMLID_1115_" d="M227.167,452.721v17.334c0,4.143,3.358,7.5,7.5,7.5s7.5-3.357,7.5-7.5v-17.334    c0-4.143-3.358-7.5-7.5-7.5S227.167,448.578,227.167,452.721z"/>
		<path id="XMLID_1116_" d="M205.833,452.721v17.334c0,4.143,3.358,7.5,7.5,7.5s7.5-3.357,7.5-7.5v-17.334    c0-4.143-3.358-7.5-7.5-7.5S205.833,448.578,205.833,452.721z"/>
		<path id="XMLID_1117_" d="M184.5,452.721v17.334c0,4.143,3.358,7.5,7.5,7.5s7.5-3.357,7.5-7.5v-17.334c0-4.143-3.358-7.5-7.5-7.5    S184.5,448.578,184.5,452.721z"/>
		<path id="XMLID_1118_" d="M163.167,452.721v17.334c0,4.143,3.358,7.5,7.5,7.5s7.5-3.357,7.5-7.5v-17.334    c0-4.143-3.358-7.5-7.5-7.5S163.167,448.578,163.167,452.721z"/>
		<path id="XMLID_1119_" d="M141.833,452.721v17.334c0,4.143,3.358,7.5,7.5,7.5s7.5-3.357,7.5-7.5v-17.334    c0-4.143-3.358-7.5-7.5-7.5S141.833,448.578,141.833,452.721z"/>
		<path id="XMLID_1120_" d="M370.167,59.279V41.945c0-4.143-3.358-7.5-7.5-7.5s-7.5,3.357-7.5,7.5v17.334c0,4.143,3.358,7.5,7.5,7.5    S370.167,63.422,370.167,59.279z"/>
		<path id="XMLID_1121_" d="M348.833,59.279V41.945c0-4.143-3.358-7.5-7.5-7.5s-7.5,3.357-7.5,7.5v17.334c0,4.143,3.358,7.5,7.5,7.5    S348.833,63.422,348.833,59.279z"/>
		<path id="XMLID_1122_" d="M327.5,59.279V41.945c0-4.143-3.358-7.5-7.5-7.5s-7.5,3.357-7.5,7.5v17.334c0,4.143,3.358,7.5,7.5,7.5    S327.5,63.422,327.5,59.279z"/>
		<path id="XMLID_1123_" d="M306.167,59.279V41.945c0-4.143-3.358-7.5-7.5-7.5s-7.5,3.357-7.5,7.5v17.334c0,4.143,3.358,7.5,7.5,7.5    S306.167,63.422,306.167,59.279z"/>
		<path id="XMLID_1124_" d="M284.833,59.279V41.945c0-4.143-3.358-7.5-7.5-7.5s-7.5,3.357-7.5,7.5v17.334c0,4.143,3.358,7.5,7.5,7.5    S284.833,63.422,284.833,59.279z"/>
		<path id="XMLID_1125_" d="M263.5,59.279V41.945c0-4.143-3.358-7.5-7.5-7.5s-7.5,3.357-7.5,7.5v17.334c0,4.143,3.358,7.5,7.5,7.5    S263.5,63.422,263.5,59.279z"/>
		<path id="XMLID_1126_" d="M242.167,59.279V41.945c0-4.143-3.358-7.5-7.5-7.5s-7.5,3.357-7.5,7.5v17.334c0,4.143,3.358,7.5,7.5,7.5    S242.167,63.422,242.167,59.279z"/>
		<path id="XMLID_1127_" d="M220.833,59.279V41.945c0-4.143-3.358-7.5-7.5-7.5s-7.5,3.357-7.5,7.5v17.334c0,4.143,3.358,7.5,7.5,7.5    S220.833,63.422,220.833,59.279z"/>
		<path id="XMLID_1128_" d="M184.5,59.279c0,4.143,3.358,7.5,7.5,7.5s7.5-3.357,7.5-7.5V41.945c0-4.143-3.358-7.5-7.5-7.5    s-7.5,3.357-7.5,7.5V59.279z"/>
		<path id="XMLID_1129_" d="M178.167,59.279V41.945c0-4.143-3.358-7.5-7.5-7.5s-7.5,3.357-7.5,7.5v17.334c0,4.143,3.358,7.5,7.5,7.5    S178.167,63.422,178.167,59.279z"/>
		<path id="XMLID_1130_" d="M156.833,59.279V41.945c0-4.143-3.358-7.5-7.5-7.5s-7.5,3.357-7.5,7.5v17.334c0,4.143,3.358,7.5,7.5,7.5    S156.833,63.422,156.833,59.279z"/>
		<path id="XMLID_1131_" d="M437.782,54.313c-10.976,0-19.905,8.93-19.905,19.905s8.93,19.905,19.905,19.905    c10.976,0,19.906-8.93,19.906-19.905S448.758,54.313,437.782,54.313z M437.782,79.123c-2.705,0-4.905-2.2-4.905-4.905    s2.201-4.905,4.905-4.905c2.705,0,4.906,2.2,4.906,4.905S440.487,79.123,437.782,79.123z"/>
		<path id="XMLID_1134_" d="M74.218,457.688c10.976,0,19.905-8.93,19.905-19.905s-8.93-19.905-19.905-19.905    c-10.976,0-19.906,8.93-19.906,19.905S63.242,457.688,74.218,457.688z M74.218,432.877c2.705,0,4.905,2.2,4.905,4.905    s-2.201,4.905-4.905,4.905c-2.705,0-4.906-2.2-4.906-4.905S71.513,432.877,74.218,432.877z"/>
	</g>
</g>















</svg>
