<?xml version="1.0" encoding="iso-8859-1"?>
<!-- Generator: Adobe Illustrator 19.0.0, SVG Export Plug-In . SVG Version: 6.00 Build 0)  -->
<svg xmlns="http://www.w3.org/2000/svg" xmlns:xlink="http://www.w3.org/1999/xlink" version="1.1" id="Layer_1" x="0px" y="0px" viewBox="0 0 512 512" style="enable-background:new 0 0 512 512;" xml:space="preserve" width="512" height="512">
<g id="XMLID_981_">
	<g id="XMLID_982_">
		<g id="XMLID_983_">
			<g id="XMLID_984_">
				<path id="XMLID_987_" style="fill:#C8C8C8;" d="M177.33,177.769c0,3.98-1.52,7.97-4.56,11.01c-6.09,6.08-15.95,6.08-22.03,0      l-12.42-12.42l-67.08,67.08H26.98l84.86-84.86c14.57-14.57,38.18-14.57,52.75,0l8.18,8.18      C175.81,169.799,177.33,173.789,177.33,177.769z"/>
				<polygon id="XMLID_990_" style="fill:#AAAAAA;" points="41.39,229.029 85.65,229.029 71.24,243.439 26.98,243.439     "/>
				<path id="XMLID_993_" style="fill:#C8C8C8;" d="M485.02,243.439h-44.26l-67.08-67.08l-12.42,12.42      c-6.08,6.08-15.94,6.08-22.03,0c-3.04-3.04-4.56-7.03-4.56-11.01s1.52-7.97,4.56-11.01l8.18-8.18      c14.57-14.57,38.18-14.57,52.75,0L485.02,243.439z"/>
				<polygon id="XMLID_996_" style="fill:#AAAAAA;" points="485.02,243.439 440.76,243.439 426.35,229.029 470.61,229.029     "/>
			</g>
			<g id="XMLID_997_">
				<polygon id="XMLID_1000_" style="fill:#929292;" points="11.642,310.201 35.113,310.201 35.113,272.092 7.5,272.092     "/>
				<polygon id="XMLID_2712_" style="fill:#929292;" points="500.358,310.201 476.887,310.201 476.887,272.092 504.5,272.092           "/>
			</g>
			<g id="XMLID_1001_">
				<path id="XMLID_1005_" style="fill:#E3E3E3;" d="M23.358,241.028l17.977,123.298h186.553l8.378-71.261      c1.177-10.007,9.658-17.55,19.734-17.55h0c10.076,0,18.558,7.542,19.734,17.55l8.378,71.261h186.552l17.977-123.298H23.358z"/>
				<path id="XMLID_1008_" style="fill:#C8C8C8;" d="M56.324,334.993l-8.918-61.17c-1.056-7.24,4.558-13.731,11.874-13.731h148.173      c7.183,0,12.757,6.268,11.918,13.401l-7.192,61.17c-0.711,6.044-5.833,10.599-11.918,10.599H68.199      C62.24,345.262,57.184,340.889,56.324,334.993z"/>
				<polygon id="XMLID_1011_" style="fill:#159BFF;" points="207.45,272.089 200.26,333.259 68.2,333.259 59.28,272.089     "/>
				<polygon id="XMLID_1014_" style="fill:#4AD4FF;" points="149.983,272.089 88.813,333.259 74.773,333.259 135.943,272.089           "/>
				<polygon id="XMLID_1017_" style="fill:#4AD4FF;" points="203.33,272.089 142.16,333.259 97.85,333.259 159.03,272.089     "/>
				<path id="XMLID_1020_" style="fill:#C8C8C8;" d="M299.82,334.663l-7.191-61.17c-0.839-7.134,4.735-13.401,11.918-13.401h148.172      c7.316,0,12.93,6.491,11.874,13.731l-8.918,61.17c-0.86,5.896-5.916,10.269-11.874,10.269H311.738      C305.653,345.262,300.531,340.707,299.82,334.663z"/>
				<polygon id="XMLID_1021_" style="fill:#FC4747;" points="452.72,272.089 443.8,333.259 311.74,333.259 304.55,272.089     "/>
				<polygon id="XMLID_1022_" style="fill:#FF6E6E;" points="399.31,272.089 338.14,333.259 314.1,333.259 375.27,272.089     "/>
				<polygon id="XMLID_1023_" style="fill:#FF6E6E;" points="437.42,272.089 376.25,333.259 352.21,333.259 413.37,272.089     "/>
			</g>
		</g>
	</g>
	<g id="XMLID_1024_">
		<path id="XMLID_1025_" d="M510.082,267.084c-1.422-1.585-3.452-2.491-5.582-2.491h-11.714l3.278-22.482    c0.313-2.155-0.324-4.341-1.749-5.988s-3.495-2.594-5.673-2.594h-2.928l-80.257-80.256c-17.465-17.465-45.883-17.463-63.348,0    l-8.18,8.18c-4.357,4.358-6.758,10.153-6.758,16.316s2.4,11.958,6.758,16.316c4.358,4.357,10.152,6.758,16.316,6.758    c6.163,0,11.957-2.4,16.315-6.758l7.117-7.118l46.561,46.562H91.759l46.561-46.562l7.118,7.118c8.996,8.995,23.635,8.996,32.631,0    c4.358-4.358,6.758-10.153,6.758-16.316s-2.4-11.958-6.758-16.316l-8.18-8.18c-17.466-17.463-45.884-17.463-63.349,0    l-80.255,80.256h-2.928c-2.178,0-4.249,0.946-5.673,2.594c-1.425,1.647-2.063,3.833-1.749,5.988l3.278,22.482H7.5    c-2.13,0-4.16,0.906-5.583,2.491c-1.422,1.586-2.104,3.701-1.874,5.819l4.142,38.109c0.414,3.806,3.627,6.689,7.456,6.689h15.316    l6.956,47.706c0.537,3.686,3.697,6.418,7.421,6.418h186.552c3.803,0,7.004-2.847,7.449-6.624l8.378-71.261    c0.732-6.229,6.014-10.926,12.286-10.926s11.554,4.697,12.286,10.926l8.378,71.261c0.443,3.777,3.645,6.624,7.448,6.624h29.799    c4.143,0,7.5-3.357,7.5-7.5s-3.357-7.5-7.5-7.5h-23.129l-7.6-64.637c-1.62-13.781-13.307-24.174-27.183-24.174    c-13.876,0-25.563,10.393-27.183,24.174l-7.6,64.637H47.821l-15.79-108.298H479.97l-15.79,108.298H348.089    c-4.143,0-7.5,3.357-7.5,7.5s3.357,7.5,7.5,7.5h122.576c3.724,0,6.884-2.732,7.422-6.418l6.956-47.706h15.316    c3.828,0,7.042-2.884,7.456-6.689l4.142-38.109C512.186,270.785,511.505,268.67,510.082,267.084z M378.983,171.056    c-2.93-2.928-7.678-2.928-10.607,0l-12.421,12.421c-1.524,1.525-3.552,2.365-5.708,2.365c-2.157,0-4.185-0.84-5.709-2.365    c-3.148-3.147-3.148-8.271,0-11.418l8.18-8.18c11.616-11.618,30.52-11.616,42.134,0l69.648,69.648h-23.045L378.983,171.056z     M117.147,163.88c11.617-11.615,30.52-11.615,42.136,0l8.18,8.18c3.148,3.147,3.148,8.271,0,11.418    c-3.149,3.147-8.271,3.147-11.418,0l-12.421-12.421c-2.929-2.928-7.678-2.928-10.606,0l-62.472,62.472H47.499L117.147,163.88z     M18.371,302.702l-2.512-23.109h5.542l3.369,23.109H18.371z M493.629,302.702h-6.399l3.37-23.109h5.541L493.629,302.702z"/>
		<path id="XMLID_1031_" d="M168.755,325.761c-4.142,0-7.5,3.357-7.5,7.5s3.358,7.5,7.5,7.5h31.506c3.803,0,7.004-2.847,7.449-6.624    l7.191-61.169c0.25-2.127-0.421-4.26-1.844-5.86c-1.423-1.6-3.463-2.516-5.604-2.516H59.28c-2.178,0-4.249,0.946-5.673,2.594    c-1.425,1.647-2.063,3.833-1.749,5.988l8.918,61.169c0.537,3.686,3.697,6.418,7.421,6.418h66.38c4.142,0,7.5-3.357,7.5-7.5    s-3.358-7.5-7.5-7.5H74.684l-6.731-46.169h131.066l-5.428,46.169H168.755z"/>
		<path id="XMLID_1032_" d="M398.744,272.092c0-4.143-3.357-7.5-7.5-7.5h-86.697c-2.142,0-4.181,0.916-5.604,2.516    c-1.423,1.601-2.095,3.733-1.844,5.86l7.191,61.169c0.443,3.777,3.645,6.624,7.448,6.624h132.063c3.725,0,6.884-2.732,7.422-6.418    l8.918-61.169c0.313-2.155-0.324-4.341-1.749-5.988s-3.495-2.594-5.673-2.594h-27.298c-4.143,0-7.5,3.357-7.5,7.5    s3.357,7.5,7.5,7.5h18.625l-6.73,46.169H318.408l-5.428-46.169h78.264C395.387,279.592,398.744,276.235,398.744,272.092z"/>
	</g>
</g>















</svg>
