<?xml version="1.0" encoding="iso-8859-1"?>
<!-- Generator: Adobe Illustrator 19.0.0, SVG Export Plug-In . SVG Version: 6.00 Build 0)  -->
<svg xmlns="http://www.w3.org/2000/svg" xmlns:xlink="http://www.w3.org/1999/xlink" version="1.1" id="Layer_1" x="0px" y="0px" viewBox="0 0 512 512" style="enable-background:new 0 0 512 512;" xml:space="preserve" width="512" height="512">
<g id="XMLID_562_">
	<g id="XMLID_563_">
		<g id="XMLID_564_">
			<rect id="XMLID_567_" x="158.28" y="46.17" style="fill:#385F82;" width="331.9" height="439.2"/>
			<path id="XMLID_570_" style="fill:#1F4C68;" d="M191.65,189.06c-1.96,30.72-3.44,59.55-3.44,76.71     c0,50.88,12.97,204.28,13.1,205.82l0.04,0.51v0.51c0,4.44-0.66,8.72-1.9,12.76h-41.17V46.17h331.9v142.89H191.65z"/>
			<rect id="XMLID_573_" x="158.28" y="46.17" style="fill:#E3E3E3;" width="331.9" height="130.89"/>
			<path id="XMLID_576_" style="fill:#C8C8C8;" d="M443.89,46.17v61.26c0,6.62-5.37,12-12,12H235.96c-6.63,0-12-5.38-12-12V46.17     H443.89z"/>
			<path id="XMLID_579_" style="fill:#4E7693;" d="M157.457,504.5H53.712c-17.614,0-31.893-14.279-31.893-31.893     c0,0,13.14-154.861,13.14-206.837S21.818,58.932,21.818,58.932c0-17.614,14.279-31.893,31.893-31.893h103.745     c17.614,0,31.893,14.279,31.893,31.893c0,0-13.14,154.861-13.14,206.837s13.14,206.837,13.14,206.837     C189.35,490.221,175.071,504.5,157.457,504.5z"/>
			<path id="XMLID_582_" style="fill:#618BAA;" d="M189.35,58.93c0,0-0.34,4.04-0.92,11.04c-3.42-13.94-15.99-24.27-30.97-24.27     H53.71c-14.99,0-27.56,10.34-30.97,24.29c-0.58-7.01-0.92-11.06-0.92-11.06c0-17.61,14.28-31.89,31.89-31.89h103.75     C175.07,27.04,189.35,41.32,189.35,58.93z"/>
			<path id="XMLID_585_" style="fill:#385F82;" d="M189.35,472.61c0,17.61-14.28,31.89-31.89,31.89H53.71     c-17.61,0-31.89-14.28-31.89-31.89c0,0,1.45-17.11,3.39-41.88c5.24,10.43,16.04,17.58,28.5,17.58h103.75     c12.46,0,23.25-7.15,28.5-17.57C187.9,455.5,189.35,472.61,189.35,472.61z"/>
		</g>
		<g id="XMLID_586_">
			<g id="XMLID_587_">
				<path id="XMLID_590_" style="fill:#1F4C68;" d="M404.228,267.706c-15.512,0-28.131-12.62-28.131-28.131      s12.62-28.131,28.131-28.131h26.138c15.512,0,28.131,12.62,28.131,28.131s-12.62,28.131-28.131,28.131H404.228z"/>
				<path id="XMLID_2827_" style="fill:#89B4C9;" d="M430.366,255.705h-26.138c-8.909,0-16.131-7.222-16.131-16.131v0      c0-8.909,7.222-16.131,16.131-16.131h26.138c8.909,0,16.131,7.222,16.131,16.131v0      C446.498,248.483,439.275,255.705,430.366,255.705z"/>
			</g>
			<g id="XMLID_591_">
				<path id="XMLID_595_" style="fill:#1F4C68;" d="M320.857,267.706c-15.512,0-28.131-12.62-28.131-28.131      s12.62-28.131,28.131-28.131h26.138c15.512,0,28.131,12.62,28.131,28.131s-12.62,28.131-28.131,28.131H320.857z"/>
				<path id="XMLID_2820_" style="fill:#89B4C9;" d="M346.995,255.705h-26.138c-8.909,0-16.131-7.222-16.131-16.131v0      c0-8.909,7.222-16.131,16.131-16.131h26.138c8.909,0,16.131,7.222,16.131,16.131v0      C363.127,248.483,355.904,255.705,346.995,255.705z"/>
			</g>
			<g id="XMLID_596_">
				<path id="XMLID_600_" style="fill:#1F4C68;" d="M237.486,267.706c-15.512,0-28.131-12.62-28.131-28.131      s12.62-28.131,28.131-28.131h26.138c15.512,0,28.131,12.62,28.131,28.131s-12.62,28.131-28.131,28.131H237.486z"/>
				<path id="XMLID_2813_" style="fill:#89B4C9;" d="M263.624,255.705h-26.138c-8.909,0-16.131-7.222-16.131-16.131v0      c0-8.909,7.222-16.131,16.131-16.131h26.138c8.909,0,16.131,7.222,16.131,16.131v0      C279.756,248.483,272.533,255.705,263.624,255.705z"/>
			</g>
		</g>
		<g id="XMLID_601_">
			<g id="XMLID_603_">
				<path id="XMLID_606_" style="fill:#1F4C68;" d="M404.228,328.696c-15.512,0-28.131-12.62-28.131-28.131      s12.62-28.132,28.131-28.132h26.138c15.512,0,28.131,12.62,28.131,28.132s-12.62,28.131-28.131,28.131H404.228z"/>
				<path id="XMLID_2805_" style="fill:#89B4C9;" d="M430.366,316.696h-26.138c-8.909,0-16.131-7.222-16.131-16.131v0      c0-8.909,7.222-16.131,16.131-16.131h26.138c8.909,0,16.131,7.222,16.131,16.131v0      C446.498,309.474,439.275,316.696,430.366,316.696z"/>
			</g>
			<g id="XMLID_607_">
				<path id="XMLID_611_" style="fill:#1F4C68;" d="M320.857,328.696c-15.512,0-28.131-12.62-28.131-28.131      s12.62-28.132,28.131-28.132h26.138c15.512,0,28.131,12.62,28.131,28.132s-12.62,28.131-28.131,28.131H320.857z"/>
				<path id="XMLID_2798_" style="fill:#89B4C9;" d="M346.995,316.696h-26.138c-8.909,0-16.131-7.222-16.131-16.131v0      c0-8.909,7.222-16.131,16.131-16.131h26.138c8.909,0,16.131,7.222,16.131,16.131v0      C363.127,309.474,355.904,316.696,346.995,316.696z"/>
			</g>
			<g id="XMLID_612_">
				<path id="XMLID_616_" style="fill:#1F4C68;" d="M237.486,328.696c-15.512,0-28.131-12.62-28.131-28.131      s12.62-28.132,28.131-28.132h26.138c15.512,0,28.131,12.62,28.131,28.132s-12.62,28.131-28.131,28.131H237.486z"/>
				<path id="XMLID_2791_" style="fill:#89B4C9;" d="M263.624,316.696h-26.138c-8.909,0-16.131-7.222-16.131-16.131v0      c0-8.909,7.222-16.131,16.131-16.131h26.138c8.909,0,16.131,7.222,16.131,16.131v0      C279.756,309.474,272.533,316.696,263.624,316.696z"/>
			</g>
		</g>
		<g id="XMLID_617_">
			<g id="XMLID_619_">
				<path id="XMLID_622_" style="fill:#1F4C68;" d="M404.228,389.687c-15.512,0-28.131-12.62-28.131-28.132      s12.62-28.131,28.131-28.131h26.138c15.512,0,28.131,12.62,28.131,28.131s-12.62,28.132-28.131,28.132H404.228z"/>
				<path id="XMLID_2783_" style="fill:#89B4C9;" d="M430.366,377.687h-26.138c-8.909,0-16.131-7.222-16.131-16.131v0      c0-8.909,7.222-16.131,16.131-16.131h26.138c8.909,0,16.131,7.222,16.131,16.131v0      C446.498,370.465,439.275,377.687,430.366,377.687z"/>
			</g>
			<g id="XMLID_623_">
				<path id="XMLID_627_" style="fill:#1F4C68;" d="M320.857,389.687c-15.512,0-28.131-12.62-28.131-28.132      s12.62-28.131,28.131-28.131h26.138c15.512,0,28.131,12.62,28.131,28.131s-12.62,28.132-28.131,28.132H320.857z"/>
				<path id="XMLID_2759_" style="fill:#89B4C9;" d="M346.995,377.687h-26.138c-8.909,0-16.131-7.222-16.131-16.131v0      c0-8.909,7.222-16.131,16.131-16.131h26.138c8.909,0,16.131,7.222,16.131,16.131v0      C363.127,370.465,355.904,377.687,346.995,377.687z"/>
			</g>
			<g id="XMLID_628_">
				<path id="XMLID_632_" style="fill:#1F4C68;" d="M237.486,389.687c-15.512,0-28.131-12.62-28.131-28.132      s12.62-28.131,28.131-28.131h26.138c15.512,0,28.131,12.62,28.131,28.131s-12.62,28.132-28.131,28.132H237.486z"/>
				<path id="XMLID_2752_" style="fill:#89B4C9;" d="M263.624,377.687h-26.138c-8.909,0-16.131-7.222-16.131-16.131v0      c0-8.909,7.222-16.131,16.131-16.131h26.138c8.909,0,16.131,7.222,16.131,16.131v0      C279.756,370.465,272.533,377.687,263.624,377.687z"/>
			</g>
		</g>
		<g id="XMLID_633_">
			<g id="XMLID_635_">
				<path id="XMLID_638_" style="fill:#1F4C68;" d="M404.228,450.677c-15.512,0-28.131-12.62-28.131-28.131      s12.62-28.131,28.131-28.131h26.138c15.512,0,28.131,12.62,28.131,28.131s-12.62,28.131-28.131,28.131H404.228z"/>
				<path id="XMLID_2743_" style="fill:#FC4747;" d="M430.366,438.677h-26.138c-8.909,0-16.131-7.222-16.131-16.131v0      c0-8.909,7.222-16.131,16.131-16.131h26.138c8.909,0,16.131,7.222,16.131,16.131v0      C446.498,431.455,439.275,438.677,430.366,438.677z"/>
			</g>
			<g id="XMLID_639_">
				<path id="XMLID_642_" style="fill:#1F4C68;" d="M320.857,450.677c-15.512,0-28.131-12.62-28.131-28.131      s12.62-28.131,28.131-28.131h26.138c15.512,0,28.131,12.62,28.131,28.131s-12.62,28.131-28.131,28.131H320.857z"/>
				<path id="XMLID_2735_" style="fill:#89B4C9;" d="M346.995,438.677h-26.138c-8.909,0-16.131-7.222-16.131-16.131v0      c0-8.909,7.222-16.131,16.131-16.131h26.138c8.909,0,16.131,7.222,16.131,16.131v0      C363.127,431.455,355.904,438.677,346.995,438.677z"/>
			</g>
			<g id="XMLID_643_">
				<path id="XMLID_647_" style="fill:#1F4C68;" d="M237.486,450.677c-15.512,0-28.131-12.62-28.131-28.131      s12.62-28.131,28.131-28.131h26.138c15.512,0,28.131,12.62,28.131,28.131s-12.62,28.131-28.131,28.131H237.486z"/>
				<path id="XMLID_2728_" style="fill:#89B4C9;" d="M263.624,438.677h-26.138c-8.909,0-16.131-7.222-16.131-16.131v0      c0-8.909,7.222-16.131,16.131-16.131h26.138c8.909,0,16.131,7.222,16.131,16.131v0      C279.756,431.455,272.533,438.677,263.624,438.677z"/>
			</g>
		</g>
		<rect id="XMLID_648_" x="235.957" y="7.505" style="fill:#00D8E0;" width="195.937" height="99.922"/>
		<polygon id="XMLID_650_" style="fill:#98F4F4;" points="418.496,7.505 318.573,107.427 244.41,107.427 344.332,7.505   "/>
		<polygon id="XMLID_651_" style="fill:#98F4F4;" points="431.895,22.501 431.895,51.867 376.334,107.427 346.968,107.427   "/>
	</g>
	<g id="XMLID_652_">
		<path id="XMLID_653_" d="M490.182,38.672h-50.784V7.5c0-4.143-3.357-7.5-7.5-7.5h-28.476c-4.143,0-7.5,3.357-7.5,7.5    s3.357,7.5,7.5,7.5h20.976v84.928H243.455V15h125.789c4.143,0,7.5-3.357,7.5-7.5s-3.357-7.5-7.5-7.5H235.955    c-4.143,0-7.5,3.357-7.5,7.5v31.172h-37.229c-6.898-11.453-19.452-19.133-33.769-19.133H53.712    c-21.722,0-39.394,17.672-39.394,39.393c0,0.212,0.009,0.423,0.027,0.634c0.111,1.315,11.18,132.224,12.89,192.559    c0.115,4.067,3.449,7.287,7.493,7.287c0.072,0,0.145-0.001,0.217-0.003c4.14-0.117,7.401-3.569,7.284-7.71    C40.55,192.46,29.952,66.13,29.32,58.637c0.158-13.315,11.039-24.098,24.392-24.098h103.745c13.353,0,24.233,10.781,24.392,24.097    c-0.851,10.048-13.139,156.139-13.139,207.134s12.288,197.085,13.139,207.133C181.69,486.218,170.81,497,157.457,497H53.712    c-13.353,0-24.233-10.783-24.392-24.099c0.609-7.229,10.504-125.166,12.699-186.545c0.148-4.139-3.088-7.615-7.227-7.763    c-4.15-0.14-7.615,3.087-7.764,7.227c-2.241,62.651-12.58,184.924-12.684,186.152c-0.019,0.211-0.027,0.422-0.027,0.634    C14.318,494.328,31.99,512,53.712,512h103.745c14.317,0,26.871-7.679,33.769-19.133h215.352c4.143,0,7.5-3.357,7.5-7.5    s-3.357-7.5-7.5-7.5H196.489c0.231-1.722,0.362-3.476,0.362-5.261c0-0.212-0.009-0.423-0.026-0.634    c-0.132-1.546-13.114-155.139-13.114-206.203c0-18.027,1.619-48.833,3.718-81.214h295.254v293.312h-41.926    c-4.143,0-7.5,3.357-7.5,7.5s3.357,7.5,7.5,7.5h49.426c4.143,0,7.5-3.357,7.5-7.5V46.172    C497.682,42.029,494.324,38.672,490.182,38.672z M188.425,169.556c3.728-54.74,8.321-109.074,8.399-109.99    c0.018-0.211,0.026-0.422,0.026-0.634c0-1.784-0.131-3.538-0.362-5.26h31.966v53.756c0,4.143,3.357,7.5,7.5,7.5h195.942    c4.143,0,7.5-3.357,7.5-7.5V53.672h43.284v115.884H188.425z"/>
		<path id="XMLID_656_" d="M404.228,263.205h26.139c13.03,0,23.632-10.601,23.632-23.631s-10.602-23.632-23.632-23.632h-26.139    c-13.03,0-23.631,10.602-23.631,23.632S391.197,263.205,404.228,263.205z M404.228,230.942h26.139c4.76,0,8.632,3.872,8.632,8.632    c0,4.759-3.872,8.631-8.632,8.631h-26.139c-4.759,0-8.631-3.872-8.631-8.631C395.597,234.814,399.469,230.942,404.228,230.942z"/>
		<path id="XMLID_659_" d="M346.995,215.942h-26.139c-13.03,0-23.631,10.602-23.631,23.632s10.601,23.631,23.631,23.631h26.139    c13.03,0,23.632-10.601,23.632-23.631S360.025,215.942,346.995,215.942z M346.995,248.205h-26.139    c-4.759,0-8.631-3.872-8.631-8.631c0-4.76,3.872-8.632,8.631-8.632h26.139c4.76,0,8.632,3.872,8.632,8.632    C355.627,244.333,351.755,248.205,346.995,248.205z"/>
		<path id="XMLID_662_" d="M263.624,215.942h-26.139c-13.03,0-23.631,10.602-23.631,23.632s10.601,23.631,23.631,23.631h26.139    c13.03,0,23.632-10.601,23.632-23.631S276.654,215.942,263.624,215.942z M263.624,248.205h-26.139    c-4.759,0-8.631-3.872-8.631-8.631c0-4.76,3.872-8.632,8.631-8.632h26.139c4.76,0,8.632,3.872,8.632,8.632    C272.256,244.333,268.384,248.205,263.624,248.205z"/>
		<path id="XMLID_665_" d="M404.228,324.196h26.139c13.03,0,23.632-10.602,23.632-23.632s-10.602-23.631-23.632-23.631h-26.139    c-13.03,0-23.631,10.601-23.631,23.631S391.197,324.196,404.228,324.196z M404.228,291.934h26.139c4.76,0,8.632,3.872,8.632,8.631    c0,4.76-3.872,8.632-8.632,8.632h-26.139c-4.759,0-8.631-3.872-8.631-8.632C395.597,295.806,399.469,291.934,404.228,291.934z"/>
		<path id="XMLID_668_" d="M346.995,276.934h-26.139c-13.03,0-23.631,10.601-23.631,23.631s10.601,23.632,23.631,23.632h26.139    c13.03,0,23.632-10.602,23.632-23.632S360.025,276.934,346.995,276.934z M346.995,309.196h-26.139    c-4.759,0-8.631-3.872-8.631-8.632c0-4.759,3.872-8.631,8.631-8.631h26.139c4.76,0,8.632,3.872,8.632,8.631    C355.627,305.324,351.755,309.196,346.995,309.196z"/>
		<path id="XMLID_671_" d="M263.624,276.934h-26.139c-13.03,0-23.631,10.601-23.631,23.631s10.601,23.632,23.631,23.632h26.139    c13.03,0,23.632-10.602,23.632-23.632S276.654,276.934,263.624,276.934z M263.624,309.196h-26.139    c-4.759,0-8.631-3.872-8.631-8.632c0-4.759,3.872-8.631,8.631-8.631h26.139c4.76,0,8.632,3.872,8.632,8.631    C272.256,305.324,268.384,309.196,263.624,309.196z"/>
		<path id="XMLID_674_" d="M404.228,385.187h26.139c13.03,0,23.632-10.601,23.632-23.631s-10.602-23.632-23.632-23.632h-26.139    c-13.03,0-23.631,10.602-23.631,23.632S391.197,385.187,404.228,385.187z M404.228,352.924h26.139c4.76,0,8.632,3.872,8.632,8.632    c0,4.759-3.872,8.631-8.632,8.631h-26.139c-4.759,0-8.631-3.872-8.631-8.631C395.597,356.796,399.469,352.924,404.228,352.924z"/>
		<path id="XMLID_677_" d="M346.995,337.924h-26.139c-13.03,0-23.631,10.602-23.631,23.632s10.601,23.631,23.631,23.631h26.139    c13.03,0,23.632-10.601,23.632-23.631S360.025,337.924,346.995,337.924z M346.995,370.187h-26.139    c-4.759,0-8.631-3.872-8.631-8.631c0-4.76,3.872-8.632,8.631-8.632h26.139c4.76,0,8.632,3.872,8.632,8.632    C355.627,366.314,351.755,370.187,346.995,370.187z"/>
		<path id="XMLID_680_" d="M263.624,337.924h-26.139c-13.03,0-23.631,10.602-23.631,23.632s10.601,23.631,23.631,23.631h26.139    c13.03,0,23.632-10.601,23.632-23.631S276.654,337.924,263.624,337.924z M263.624,370.187h-26.139    c-4.759,0-8.631-3.872-8.631-8.631c0-4.76,3.872-8.632,8.631-8.632h26.139c4.76,0,8.632,3.872,8.632,8.632    C272.256,366.314,268.384,370.187,263.624,370.187z"/>
		<path id="XMLID_683_" d="M404.228,446.178h26.139c13.03,0,23.632-10.602,23.632-23.632s-10.602-23.631-23.632-23.631h-26.139    c-13.03,0-23.631,10.601-23.631,23.631S391.197,446.178,404.228,446.178z M404.228,413.915h26.139c4.76,0,8.632,3.872,8.632,8.631    c0,4.76-3.872,8.632-8.632,8.632h-26.139c-4.759,0-8.631-3.872-8.631-8.632C395.597,417.787,399.469,413.915,404.228,413.915z"/>
		<path id="XMLID_686_" d="M346.995,398.915h-26.139c-13.03,0-23.631,10.601-23.631,23.631s10.601,23.632,23.631,23.632h26.139    c13.03,0,23.632-10.602,23.632-23.632S360.025,398.915,346.995,398.915z M346.995,431.178h-26.139    c-4.759,0-8.631-3.872-8.631-8.632c0-4.759,3.872-8.631,8.631-8.631h26.139c4.76,0,8.632,3.872,8.632,8.631    C355.627,427.306,351.755,431.178,346.995,431.178z"/>
		<path id="XMLID_689_" d="M263.624,398.915h-26.139c-13.03,0-23.631,10.601-23.631,23.631s10.601,23.632,23.631,23.632h26.139    c13.03,0,23.632-10.602,23.632-23.632S276.654,398.915,263.624,398.915z M263.624,431.178h-26.139    c-4.759,0-8.631-3.872-8.631-8.632c0-4.759,3.872-8.631,8.631-8.631h26.139c4.76,0,8.632,3.872,8.632,8.631    C272.256,427.306,268.384,431.178,263.624,431.178z"/>
		<path id="XMLID_692_" d="M258.233,132.096h-22.278c-4.143,0-7.5,3.357-7.5,7.5s3.357,7.5,7.5,7.5h22.278    c4.143,0,7.5-3.357,7.5-7.5S262.376,132.096,258.233,132.096z"/>
		<path id="XMLID_693_" d="M315.864,132.096h-22.278c-4.143,0-7.5,3.357-7.5,7.5s3.357,7.5,7.5,7.5h22.278    c4.143,0,7.5-3.357,7.5-7.5S320.007,132.096,315.864,132.096z"/>
		<path id="XMLID_694_" d="M373.496,132.096h-22.278c-4.143,0-7.5,3.357-7.5,7.5s3.357,7.5,7.5,7.5h22.278    c4.143,0,7.5-3.357,7.5-7.5S377.639,132.096,373.496,132.096z"/>
		<path id="XMLID_695_" d="M431.128,132.096H408.85c-4.143,0-7.5,3.357-7.5,7.5s3.357,7.5,7.5,7.5h22.278c4.143,0,7.5-3.357,7.5-7.5    S435.271,132.096,431.128,132.096z"/>
	</g>
</g>















</svg>
