<?xml version="1.0" encoding="iso-8859-1"?>
<!-- Generator: Adobe Illustrator 19.0.0, SVG Export Plug-In . SVG Version: 6.00 Build 0)  -->
<svg xmlns="http://www.w3.org/2000/svg" xmlns:xlink="http://www.w3.org/1999/xlink" version="1.1" id="Layer_1" x="0px" y="0px" viewBox="0 0 512 512" style="enable-background:new 0 0 512 512;" xml:space="preserve" width="512" height="512">
<g id="XMLID_2516_">
	<g id="XMLID_2517_">
		<g id="XMLID_2518_">
			<g id="XMLID_2519_">
				<rect id="XMLID_2522_" x="7.5" y="67.07" style="fill:#C8C8C8;" width="497" height="377.86"/>
				<rect id="XMLID_2525_" x="7.5" y="390" style="fill:#AAAAAA;" width="497" height="54.93"/>
				<rect id="XMLID_2716_" x="7.5" y="402.003" style="fill:#E3E3E3;" width="497" height="42.926"/>
				<rect id="XMLID_2529_" x="7.5" y="67.07" style="fill:#AAAAAA;" width="497" height="83.93"/>
				<rect id="XMLID_2710_" x="7.5" y="67.071" style="fill:#159BFF;" width="497" height="71.924"/>
				<g id="XMLID_2530_">
					<path id="XMLID_2532_" style="fill:#FC4747;" d="M51.381,110.533h-0.106c-4.143,0-7.5-3.358-7.5-7.5s3.357-7.5,7.5-7.5h0.106       c4.143,0,7.5,3.358,7.5,7.5S55.523,110.533,51.381,110.533z"/>
					<path id="XMLID_2533_" style="fill:#FFDA2C;" d="M79.203,110.533h-0.106c-4.143,0-7.5-3.358-7.5-7.5s3.357-7.5,7.5-7.5h0.106       c4.143,0,7.5,3.358,7.5,7.5S83.346,110.533,79.203,110.533z"/>
					<path id="XMLID_2534_" style="fill:#00D8E0;" d="M107.025,110.533h-0.106c-4.143,0-7.5-3.358-7.5-7.5s3.357-7.5,7.5-7.5h0.106       c4.143,0,7.5,3.358,7.5,7.5S111.168,110.533,107.025,110.533z"/>
				</g>
			</g>
			<g id="XMLID_2535_">
				<rect id="XMLID_2702_" x="90.194" y="253.733" style="fill:#E3E3E3;" width="340.583" height="67.847"/>
			</g>
			<rect id="XMLID_2539_" x="184.27" y="189" style="fill:#159BFF;" width="143.46" height="35"/>
			<polygon id="XMLID_2540_" style="fill:#FFDA2C;" points="313.454,189 278.444,224 234.354,224 269.364,189    "/>
			<polygon id="XMLID_2541_" style="fill:#89BF4A;" points="292.92,189 257.91,224 213.82,224 248.83,189    "/>
			<polygon id="XMLID_2542_" style="fill:#FC4747;" points="271.373,189 236.363,224 192.273,224 227.283,189    "/>
		</g>
	</g>
	<g id="XMLID_2543_">
		<path id="XMLID_2544_" d="M504.5,59.571H244.089c-4.143,0-7.5,3.358-7.5,7.5s3.357,7.5,7.5,7.5H497v56.924H15V74.571h194.911    c4.143,0,7.5-3.358,7.5-7.5s-3.357-7.5-7.5-7.5H7.5c-4.143,0-7.5,3.358-7.5,7.5v377.857c0,4.142,3.357,7.5,7.5,7.5h312.411    c4.143,0,7.5-3.358,7.5-7.5s-3.357-7.5-7.5-7.5H15v-27.926h482v27.926H354.089c-4.143,0-7.5,3.358-7.5,7.5s3.357,7.5,7.5,7.5    H504.5c4.143,0,7.5-3.358,7.5-7.5V67.071C512,62.929,508.643,59.571,504.5,59.571z M15,394.502V146.495h482v248.007H15z"/>
		<path id="XMLID_2547_" d="M464.682,110.533c4.143,0,7.5-3.358,7.5-7.5s-3.357-7.5-7.5-7.5h-83.604c-4.143,0-7.5,3.358-7.5,7.5    s3.357,7.5,7.5,7.5H464.682z"/>
		<path id="XMLID_2548_" d="M354.231,110.533c4.143,0,7.5-3.358,7.5-7.5s-3.357-7.5-7.5-7.5h-18.408c-4.143,0-7.5,3.358-7.5,7.5    s3.357,7.5,7.5,7.5H354.231z"/>
		<path id="XMLID_2549_" d="M430.776,246.233h-34.688c-4.143,0-7.5,3.358-7.5,7.5s3.357,7.5,7.5,7.5h27.188v52.847H97.693v-52.847    h264.218c4.143,0,7.5-3.358,7.5-7.5s-3.357-7.5-7.5-7.5H90.193c-4.143,0-7.5,3.358-7.5,7.5v67.847c0,4.142,3.357,7.5,7.5,7.5    h340.583c4.143,0,7.5-3.358,7.5-7.5v-67.847C438.276,249.591,434.919,246.233,430.776,246.233z"/>
		<path id="XMLID_2550_" d="M116.833,306.275c1.465,1.464,3.385,2.197,5.304,2.197s3.839-0.732,5.304-2.197l4.207-4.207    c1.926,0.701,3.974,1.086,6.085,1.086c4.749,0,9.213-1.849,12.571-5.207c6.931-6.931,6.931-18.209,0-25.142    c-3.358-3.358-7.822-5.207-12.571-5.207s-9.213,1.849-12.571,5.207c-5.034,5.035-6.393,12.359-4.113,18.648l-4.215,4.215    C113.904,298.597,113.904,303.346,116.833,306.275z M135.769,283.412c0.707-0.708,1.534-0.813,1.964-0.813    s1.257,0.105,1.964,0.813c1.083,1.083,1.083,2.846,0,3.929c-0.707,0.708-1.534,0.813-1.964,0.813s-1.257-0.105-1.964-0.813    C134.686,286.257,134.686,284.495,135.769,283.412z"/>
		<path id="XMLID_2553_" d="M239.324,341.979h-81.556c-4.143,0-7.5,3.358-7.5,7.5s3.357,7.5,7.5,7.5h81.556    c4.143,0,7.5-3.358,7.5-7.5S243.467,341.979,239.324,341.979z"/>
		<path id="XMLID_2554_" d="M354.231,341.979h-81.556c-4.143,0-7.5,3.358-7.5,7.5s3.357,7.5,7.5,7.5h81.556    c4.143,0,7.5-3.358,7.5-7.5S358.374,341.979,354.231,341.979z"/>
		<path id="XMLID_2555_" d="M184.273,231.5h143.453c4.143,0,7.5-3.358,7.5-7.5v-35c0-4.142-3.357-7.5-7.5-7.5H184.273    c-4.143,0-7.5,3.358-7.5,7.5v35C176.773,228.142,180.131,231.5,184.273,231.5z M191.773,196.5h128.453v20H191.773V196.5z"/>
	</g>
</g>















</svg>
