<?xml version="1.0" encoding="iso-8859-1"?>
<!-- Generator: Adobe Illustrator 19.0.0, SVG Export Plug-In . SVG Version: 6.00 Build 0)  -->
<svg xmlns="http://www.w3.org/2000/svg" xmlns:xlink="http://www.w3.org/1999/xlink" version="1.1" id="Layer_1" x="0px" y="0px" viewBox="0 0 512 512" style="enable-background:new 0 0 512 512;" xml:space="preserve" width="512" height="512">
<g id="XMLID_432_">
	<g id="XMLID_433_">
		<g id="XMLID_434_">
			<path id="XMLID_435_" style="fill:#FC4747;" d="M299.647,374.881v-46.129h-41.116c-2.755-12.586-7.7-24.335-14.435-34.838     l29.085-29.085l-32.628-32.619l-29.075,29.085c-10.503-6.736-22.262-11.681-34.838-14.436v-41.126H130.51v41.126     c-12.576,2.755-24.335,7.7-34.838,14.436L66.596,232.21l-32.619,32.619l29.075,29.085c-6.736,10.503-11.681,22.252-14.436,34.838     H7.502v46.129h41.116c2.755,12.576,7.7,24.335,14.436,34.838l-29.075,29.075l32.619,32.619l29.075-29.075     c10.503,6.736,22.261,11.681,34.838,14.426v41.126h46.129v-41.126c12.576-2.745,24.335-7.69,34.838-14.426l29.075,29.075     l32.628-32.619l-29.085-29.075c6.736-10.503,11.681-22.262,14.435-34.838H299.647z M153.579,411.899     c-33.183,0-60.088-26.905-60.088-60.088c0-33.183,26.905-60.078,60.088-60.078c33.183,0,60.078,26.895,60.078,60.078     C213.657,384.994,186.762,411.899,153.579,411.899z"/>
		</g>
		<g id="XMLID_439_">
			<path id="XMLID_440_" style="fill:#E20F0A;" d="M153.579,280.053c-39.578,0-71.769,32.19-71.769,71.759     c0,39.569,32.19,71.768,71.769,71.768c39.568,0,71.759-32.2,71.759-71.768C225.338,312.243,193.148,280.053,153.579,280.053z      M153.579,411.899c-33.183,0-60.088-26.905-60.088-60.088c0-33.183,26.905-60.078,60.088-60.078     c33.183,0,60.078,26.895,60.078,60.078C213.657,384.994,186.762,411.899,153.579,411.899z"/>
		</g>
		<g id="XMLID_443_">
			<path id="XMLID_444_" style="fill:#DCE561;" d="M504.498,233.729v-35.256h-31.421c-2.044-9.315-5.714-18.339-11.029-26.622     l22.223-22.213l-24.929-24.929l-22.223,22.223c-8.284-5.315-17.307-8.994-26.622-11.029v-31.421h-35.247v31.421     c-9.315,2.034-18.339,5.714-26.622,11.029l-22.222-22.223l-24.929,24.929L323.7,171.85c-5.305,8.284-8.984,17.307-11.029,26.622     H281.25v35.256h31.421c2.044,9.315,5.724,18.339,11.029,26.622l-22.223,22.213l24.929,24.929l22.222-22.213     c8.284,5.305,17.307,8.984,26.622,11.019v31.431h35.247v-31.431c9.315-2.034,18.339-5.714,26.622-11.019l22.223,22.213     l24.929-24.929l-22.223-22.213c5.315-8.284,8.984-17.307,11.029-26.622H504.498z M360.407,248.563     c-17.93-17.93-17.93-46.996,0-64.926c17.93-17.93,47.005-17.93,64.935,0c17.93,17.93,17.93,46.996,0,64.926     C407.412,266.493,378.336,266.493,360.407,248.563z"/>
		</g>
		<g id="XMLID_448_">
			<path id="XMLID_449_" style="fill:#C3D24C;" d="M433.596,175.374c-10.873-10.873-25.338-16.869-40.717-16.869     c-15.389,0-29.854,5.996-40.727,16.869c-22.456,22.456-22.456,58.998,0,81.454c10.873,10.873,25.338,16.869,40.727,16.869     c15.38,0,29.844-5.996,40.717-16.869c10.883-10.883,16.869-25.337,16.869-40.727     C450.465,200.721,444.479,186.256,433.596,175.374z M425.342,248.563c-17.93,17.93-47.005,17.93-64.935,0     c-17.93-17.93-17.93-46.996,0-64.926c17.93-17.93,47.005-17.93,64.935,0C443.272,201.568,443.272,230.633,425.342,248.563z"/>
		</g>
		<g id="XMLID_458_">
			<g id="XMLID_453_">
				<path id="XMLID_454_" style="fill:#E3E3E3;" d="M297.233,115.734V88.011h-24.715c-1.645-7.554-4.624-14.611-8.663-20.928      l17.463-17.472l-19.594-19.594l-17.473,17.472c-6.308-4.049-13.374-7.018-20.928-8.673V14.111H195.61v24.705      c-7.554,1.655-14.62,4.624-20.928,8.673L157.21,30.016l-19.604,19.594l17.473,17.472c-4.04,6.317-7.018,13.374-8.663,20.928      h-24.714v27.722h24.714c1.645,7.554,4.624,14.62,8.663,20.928l-17.473,17.472l19.604,19.594l17.472-17.472      c6.308,4.049,13.374,7.018,20.928,8.673v24.705h27.713v-24.705c7.554-1.655,14.62-4.624,20.928-8.673l17.473,17.472      l19.594-19.594l-17.463-17.472c4.039-6.308,7.018-13.374,8.663-20.928H297.233z M180.063,101.872      c0-16.238,13.162-29.4,29.4-29.4c16.246,0,29.408,13.162,29.408,29.4c0,16.238-13.162,29.4-29.408,29.4      C193.225,131.272,180.063,118.11,180.063,101.872z"/>
			</g>
		</g>
		<g id="XMLID_463_">
			<path id="XMLID_469_" style="fill:#C8C8C8;" d="M209.471,60.859c-22.621,0-41.021,18.392-41.021,41.013     s18.401,41.013,41.021,41.013c22.612,0,41.013-18.392,41.013-41.013S232.083,60.859,209.471,60.859z M209.463,131.272     c-16.238,0-29.4-13.162-29.4-29.4c0-16.238,13.162-29.4,29.4-29.4c16.246,0,29.408,13.162,29.408,29.4     C238.871,118.11,225.709,131.272,209.463,131.272z"/>
		</g>
	</g>
	<g id="XMLID_472_">
		<path id="XMLID_473_" d="M299.685,321.498h-35.429c-2.528-9.252-6.196-18.107-10.952-26.439l25.053-25.052    c1.37-1.371,2.14-3.229,2.14-5.167c0-1.938-0.77-3.796-2.14-5.167l-32.647-32.646c-2.853-2.852-7.479-2.852-10.332,0    l-25.053,25.053c-8.331-4.756-17.186-8.424-26.439-10.953v-35.429c0-4.036-3.271-7.306-7.306-7.306h-46.169    c-4.035,0-7.306,3.271-7.306,7.306v35.429c-9.254,2.529-18.107,6.197-26.438,10.953l-25.053-25.053    c-2.854-2.851-7.479-2.853-10.332,0l-32.647,32.646c-1.37,1.371-2.14,3.229-2.14,5.167c0,1.938,0.77,3.796,2.14,5.167    l25.053,25.052c-4.756,8.333-8.424,17.188-10.953,26.439H7.306c-4.035,0-7.306,3.271-7.306,7.306v46.169    c0,4.035,3.271,7.306,7.306,7.306h35.429c2.528,9.252,6.196,18.107,10.953,26.438L28.634,433.77    c-2.853,2.854-2.853,7.479,0,10.333l32.647,32.647c2.853,2.852,7.479,2.852,10.332,0l25.053-25.053    c8.333,4.756,17.187,8.424,26.438,10.952v35.429c0,4.036,3.271,7.306,7.306,7.306h46.169c4.035,0,7.306-3.271,7.306-7.306v-35.429    c9.251-2.528,18.106-6.196,26.439-10.952l25.053,25.053c2.853,2.852,7.479,2.852,10.332,0l32.647-32.647    c2.854-2.854,2.854-7.479,0-10.333l-25.053-25.053c4.756-8.333,8.424-17.187,10.952-26.438h35.429    c4.035,0,7.306-3.271,7.306-7.306v-46.169C306.991,324.768,303.72,321.498,299.685,321.498z M292.379,367.666h-33.848    c-3.433,0-6.404,2.391-7.137,5.745c-2.532,11.573-7.059,22.502-13.456,32.481c-1.853,2.89-1.443,6.681,0.985,9.109l23.935,23.935    l-22.314,22.314l-23.935-23.935c-2.428-2.428-6.219-2.838-9.108-0.985c-9.981,6.397-20.909,10.924-32.482,13.455    c-3.354,0.734-5.745,3.704-5.745,7.138v33.848h-31.557v-33.848c0-3.433-2.391-6.403-5.745-7.138    c-11.573-2.531-22.501-7.058-32.481-13.455c-2.889-1.852-6.68-1.441-9.108,0.985l-23.935,23.935l-22.314-22.314l23.935-23.935    c2.428-2.428,2.838-6.219,0.985-9.11c-6.396-9.978-10.924-20.906-13.456-32.48c-0.733-3.354-3.704-5.745-7.137-5.745H14.612    V336.11H48.46c3.433,0,6.404-2.391,7.137-5.745c2.532-11.573,7.059-22.502,13.456-32.482c1.853-2.89,1.443-6.681-0.985-9.109    L44.133,264.84l22.314-22.313l23.935,23.935c2.427,2.428,6.218,2.835,9.109,0.985c9.977-6.396,20.905-10.923,32.481-13.456    c3.354-0.733,5.745-3.704,5.745-7.137v-33.848h31.557v33.848c0,3.433,2.391,6.403,5.745,7.138    c11.575,2.532,22.504,7.06,32.482,13.456c2.892,1.853,6.681,1.442,9.109-0.985l23.935-23.935l22.314,22.313l-23.935,23.934    c-2.428,2.428-2.838,6.219-0.985,9.109c6.397,9.98,10.924,20.909,13.456,32.482c0.733,3.354,3.704,5.745,7.137,5.745h33.848    V367.666z"/>
		<path id="XMLID_476_" d="M174.594,287.837c-3.832-1.261-7.963,0.822-9.225,4.655c-1.262,3.833,0.821,7.963,4.654,9.225    c17.916,5.899,31.406,21.015,35.206,39.45c0.713,3.454,3.754,5.833,7.148,5.833c0.489,0,0.985-0.049,1.483-0.152    c3.952-0.815,6.495-4.68,5.681-8.631C214.688,314.672,197.465,295.369,174.594,287.837z"/>
		<path id="XMLID_477_" d="M212.375,366.144c-3.779-1.417-7.989,0.498-9.406,4.277c-7.688,20.511-27.569,34.291-49.473,34.291    c-29.127,0-52.824-23.697-52.824-52.825c0-24.348,16.489-45.431,40.097-51.271c3.917-0.968,6.307-4.93,5.338-8.846    c-0.969-3.918-4.935-6.305-8.847-5.338c-30.147,7.456-51.201,34.372-51.201,65.455c0,37.185,30.252,67.437,67.437,67.437    c27.962,0,53.342-17.592,63.156-43.776C218.068,371.771,216.153,367.56,212.375,366.144z"/>
		<path id="XMLID_478_" d="M504.694,191.123h-25.769c-1.831-6.331-4.351-12.415-7.532-18.186l18.221-18.22    c1.37-1.371,2.14-3.229,2.14-5.167s-0.77-3.796-2.14-5.167l-24.947-24.947c-2.854-2.852-7.479-2.852-10.332,0l-18.221,18.221    c-5.77-3.181-11.854-5.7-18.185-7.532v-25.769c0-4.036-3.271-7.306-7.306-7.306h-35.281c-4.035,0-7.306,3.271-7.306,7.306v25.769    c-6.331,1.831-12.415,4.35-18.185,7.532l-18.221-18.221c-2.853-2.852-7.479-2.852-10.332,0l-24.947,24.947    c-1.37,1.371-2.14,3.229-2.14,5.167s0.77,3.796,2.14,5.167l18.221,18.22c-3.181,5.771-5.701,11.854-7.532,18.186h-25.769    c-4.035,0-7.306,3.271-7.306,7.306v35.281c0,4.036,3.271,7.306,7.306,7.306h25.769c1.831,6.331,4.351,12.416,7.532,18.186    l-18.221,18.22c-2.854,2.854-2.854,7.479,0,10.333l24.947,24.948c1.37,1.37,3.228,2.14,5.166,2.14s3.796-0.77,5.166-2.14    l18.221-18.221c5.77,3.18,11.854,5.7,18.185,7.531v25.769c0,4.036,3.271,7.306,7.306,7.306h35.281    c4.035,0,7.306-3.271,7.306-7.306v-25.769c6.33-1.83,12.414-4.349,18.185-7.532l18.221,18.222c1.37,1.37,3.228,2.14,5.166,2.14    c1.938,0,3.796-0.77,5.166-2.14l24.947-24.948c2.853-2.854,2.853-7.479,0-10.333l-18.22-18.221    c3.182-5.771,5.701-11.854,7.532-18.185h25.769c4.035,0,7.306-3.271,7.306-7.306V198.43    C512,194.394,508.729,191.123,504.694,191.123z M497.388,226.404h-24.143c-3.433,0-6.404,2.391-7.137,5.745    c-1.892,8.647-5.272,16.809-10.048,24.26c-1.853,2.89-1.443,6.681,0.985,9.108l17.071,17.072l-14.615,14.615l-17.071-17.072    c-2.427-2.427-6.217-2.837-9.108-0.985c-7.452,4.776-15.614,8.157-24.26,10.047c-3.354,0.734-5.745,3.704-5.745,7.138v24.144    h-20.668v-24.144c0-3.433-2.391-6.403-5.745-7.138c-8.648-1.891-16.81-5.271-24.259-10.047c-2.891-1.852-6.681-1.441-9.109,0.985    l-17.071,17.072l-14.615-14.615l17.071-17.071c2.428-2.428,2.838-6.219,0.985-9.11c-4.775-7.449-8.155-15.611-10.048-24.26    c-0.734-3.353-3.704-5.744-7.137-5.744h-24.143v-20.668h24.143c3.433,0,6.403-2.391,7.137-5.744    c1.893-8.649,5.273-16.811,10.048-24.26c1.853-2.891,1.443-6.682-0.985-9.11l-17.071-17.071l14.615-14.614l17.071,17.071    c2.428,2.428,6.219,2.837,9.108,0.985c7.45-4.775,15.612-8.155,24.261-10.048c3.354-0.733,5.744-3.704,5.744-7.137v-24.143h20.668    v24.143c0,3.433,2.39,6.403,5.744,7.137c8.648,1.893,16.811,5.273,24.261,10.048c2.892,1.853,6.681,1.442,9.108-0.985    l17.071-17.071l14.615,14.614l-17.071,17.071c-2.428,2.428-2.838,6.219-0.985,9.11c4.775,7.45,8.156,15.611,10.048,24.259    c0.734,3.354,3.704,5.745,7.137,5.745h24.143V226.404z"/>
		<path id="XMLID_481_" d="M438.455,225.894c-3.763-1.456-7.994,0.408-9.453,4.172c-1.948,5.023-4.873,9.508-8.695,13.328    c-15.067,15.067-39.582,15.067-54.649,0c-7.299-7.299-11.318-17.002-11.318-27.324s4.02-20.025,11.318-27.324    c15.066-15.067,39.582-15.068,54.649,0c3.817,3.817,6.741,8.296,8.688,13.311c1.46,3.762,5.692,5.627,9.455,4.166    c3.762-1.46,5.627-5.694,4.166-9.455c-2.687-6.919-6.716-13.094-11.977-18.355c-20.764-20.763-54.549-20.765-75.314,0    c-10.059,10.058-15.598,23.432-15.598,37.657s5.54,27.599,15.598,37.657c10.383,10.383,24.018,15.574,37.657,15.572    c13.636-0.001,27.276-5.191,37.657-15.572c5.267-5.267,9.3-11.45,11.986-18.38C444.084,231.586,442.217,227.354,438.455,225.894z"/>
		<path id="XMLID_482_" d="M121.6,122.928h19.095c1.323,4.309,3.047,8.471,5.159,12.454l-13.503,13.502    c-1.37,1.371-2.14,3.229-2.14,5.167s0.77,3.796,2.14,5.167l19.614,19.614c1.37,1.37,3.228,2.14,5.166,2.14s3.796-0.77,5.166-2.14    l13.503-13.503c3.983,2.111,8.146,3.836,12.454,5.159v19.095c0,4.036,3.271,7.306,7.306,7.306H223.3    c4.035,0,7.306-3.271,7.306-7.306v-19.095c4.309-1.323,8.471-3.048,12.454-5.159l13.503,13.503c1.37,1.37,3.228,2.14,5.166,2.14    c1.938,0,3.796-0.77,5.166-2.14l19.614-19.614c1.37-1.371,2.14-3.229,2.14-5.167s-0.77-3.796-2.14-5.167l-13.503-13.502    c2.111-3.983,3.836-8.145,5.159-12.454h19.095c4.035,0,7.306-3.271,7.306-7.306V87.883c0-4.036-3.271-7.306-7.306-7.306h-19.095    c-1.323-4.309-3.048-8.471-5.159-12.454l13.503-13.502c1.37-1.371,2.14-3.229,2.14-5.167s-0.77-3.796-2.14-5.167l-19.614-19.614    c-1.37-1.37-3.228-2.14-5.166-2.14c-1.938,0-3.796,0.77-5.166,2.14L243.06,38.176c-3.984-2.111-8.146-3.836-12.454-5.159V13.922    c0-4.036-3.271-7.306-7.306-7.306h-27.738c-4.035,0-7.306,3.271-7.306,7.306v19.095c-4.308,1.323-8.471,3.048-12.454,5.159    l-13.503-13.503c-1.37-1.37-3.228-2.14-5.166-2.14s-3.796,0.77-5.166,2.14l-19.614,19.614c-1.37,1.371-2.14,3.229-2.14,5.167    s0.77,3.796,2.14,5.167l13.503,13.502c-2.111,3.982-3.836,8.145-5.159,12.454H121.6c-4.035,0-7.306,3.271-7.306,7.306v27.739    C114.294,119.657,117.565,122.928,121.6,122.928z M128.906,95.189h17.419c3.433,0,6.403-2.391,7.137-5.744    c1.447-6.616,4.035-12.862,7.69-18.565c1.853-2.89,1.443-6.681-0.985-9.109l-12.318-12.317l9.282-9.282l12.318,12.319    c2.428,2.428,6.218,2.838,9.109,0.985c5.704-3.657,11.95-6.244,18.564-7.691c3.354-0.734,5.745-3.704,5.745-7.138V21.228h13.126    v17.419c0,3.433,2.391,6.403,5.745,7.138c6.614,1.447,12.86,4.035,18.564,7.691c2.891,1.854,6.682,1.442,9.109-0.985    l12.318-12.319l9.282,9.282l-12.318,12.317c-2.428,2.428-2.838,6.219-0.985,9.109c3.656,5.704,6.243,11.951,7.69,18.565    c0.734,3.353,3.704,5.744,7.137,5.744h17.419v13.126h-17.419c-3.433,0-6.403,2.391-7.137,5.745    c-1.447,6.614-4.035,12.86-7.69,18.564c-1.853,2.89-1.443,6.681,0.985,9.109l12.318,12.317l-9.282,9.282l-12.318-12.319    c-2.427-2.428-6.218-2.838-9.109-0.985c-5.704,3.656-11.95,6.244-18.564,7.691c-3.354,0.734-5.745,3.704-5.745,7.138v17.419    h-13.126v-17.419c0-3.433-2.391-6.403-5.745-7.138c-6.614-1.446-12.86-4.034-18.564-7.691c-2.891-1.853-6.682-1.441-9.109,0.985    l-12.318,12.319l-9.282-9.282l12.318-12.317c2.428-2.428,2.838-6.219,0.985-9.109c-3.655-5.704-6.243-11.95-7.69-18.564    c-0.734-3.354-3.704-5.745-7.137-5.745h-17.419V95.189z"/>
		<path id="XMLID_485_" d="M209.43,138.485c20.254,0,36.733-16.478,36.733-36.733S229.684,65.02,209.43,65.02    s-36.732,16.478-36.732,36.733S189.176,138.485,209.43,138.485z M209.43,79.632c12.197,0,22.12,9.923,22.12,22.12    s-9.923,22.12-22.12,22.12s-22.12-9.923-22.12-22.12S197.233,79.632,209.43,79.632z"/>
		<path id="XMLID_488_" d="M340.127,60.949c0.007,0,0.014,0,0.021,0c4.025,0,7.294-3.257,7.306-7.285l0.013-4.484    c0.011-4.036-3.25-7.316-7.285-7.327c-0.007,0-0.014,0-0.021,0c-4.025,0-7.294,3.257-7.306,7.285l-0.013,4.484    C332.83,57.657,336.092,60.938,340.127,60.949z"/>
		<path id="XMLID_489_" d="M340.095,71.451c-0.007,0-0.014,0-0.021,0c-4.025,0-7.294,3.257-7.306,7.285l-0.013,4.483    c-0.011,4.036,3.25,7.316,7.285,7.327c0.007,0,0.014,0,0.021,0c4.025,0,7.294-3.257,7.306-7.285l0.013-4.483    C347.392,74.742,344.13,71.462,340.095,71.451z"/>
		<path id="XMLID_490_" d="M352.646,73.542l4.483,0.013c0.008,0,0.015,0,0.022,0c4.025,0,7.294-3.257,7.306-7.284    c0.012-4.036-3.249-7.316-7.284-7.328l-4.483-0.013c-0.008,0-0.015,0-0.022,0c-4.025,0-7.294,3.257-7.306,7.284    C345.35,70.249,348.611,73.529,352.646,73.542z"/>
		<path id="XMLID_491_" d="M323.049,73.456l4.483,0.013c0.008,0,0.015,0,0.022,0c4.025,0,7.294-3.257,7.306-7.284    c0.012-4.036-3.249-7.316-7.284-7.328l-4.483-0.013c-0.008,0-0.015,0-0.022,0c-4.025,0-7.294,3.257-7.306,7.284    C315.753,70.164,319.014,73.444,323.049,73.456z"/>
		<path id="XMLID_492_" d="M87.467,160.802c0.008,0,0.015,0,0.022,0c4.025,0,7.294-3.257,7.306-7.284l0.013-4.484    c0.012-4.036-3.249-7.316-7.284-7.328c-0.008,0-0.015,0-0.022,0c-4.025,0-7.294,3.257-7.306,7.284l-0.013,4.484    C80.17,157.509,83.432,160.79,87.467,160.802z"/>
		<path id="XMLID_493_" d="M87.437,171.304c-0.007,0-0.014,0-0.021,0c-4.025,0-7.294,3.257-7.306,7.285l-0.013,4.484    c-0.011,4.036,3.25,7.316,7.285,7.327c0.007,0,0.014,0,0.021,0c4.025,0,7.294-3.257,7.306-7.285l0.013-4.484    C94.733,174.595,91.472,171.315,87.437,171.304z"/>
		<path id="XMLID_494_" d="M99.988,173.396l4.483,0.013c0.008,0,0.015,0,0.022,0c4.025,0,7.294-3.257,7.306-7.284    c0.012-4.036-3.249-7.316-7.284-7.328l-4.483-0.013c-0.008,0-0.015,0-0.022,0c-4.025,0-7.294,3.257-7.306,7.284    C92.691,170.103,95.952,173.383,99.988,173.396z"/>
		<path id="XMLID_495_" d="M70.39,173.309l4.483,0.013c0.008,0,0.015,0,0.022,0c4.025,0,7.294-3.257,7.306-7.284    c0.012-4.036-3.249-7.316-7.284-7.328l-4.483-0.013c-0.008,0-0.015,0-0.022,0c-4.025,0-7.294,3.257-7.306,7.284    C63.094,170.016,66.355,173.297,70.39,173.309z"/>
		<path id="XMLID_496_" d="M345.903,365.782c0.007,0,0.014,0,0.021,0c4.025,0,7.294-3.257,7.306-7.285l0.013-4.483    c0.011-4.036-3.25-7.316-7.285-7.327c-0.007,0-0.014,0-0.021,0c-4.025,0-7.294,3.257-7.306,7.285l-0.013,4.483    C338.606,362.49,341.868,365.77,345.903,365.782z"/>
		<path id="XMLID_497_" d="M345.873,376.285c-0.008,0-0.015,0-0.022,0c-4.025,0-7.294,3.257-7.306,7.284l-0.013,4.483    c-0.012,4.036,3.249,7.316,7.284,7.328c0.008,0,0.015,0,0.022,0c4.025,0,7.294-3.257,7.306-7.284l0.013-4.483    C353.169,379.577,349.908,376.297,345.873,376.285z"/>
		<path id="XMLID_498_" d="M362.949,363.777l-4.483-0.013c-0.008,0-0.015,0-0.022,0c-4.025,0-7.294,3.257-7.306,7.284    c-0.012,4.036,3.249,7.316,7.284,7.328l4.483,0.013c0.008,0,0.015,0,0.022,0c4.025,0,7.294-3.257,7.306-7.284    C370.246,367.069,366.984,363.789,362.949,363.777z"/>
		<path id="XMLID_499_" d="M333.352,363.691l-4.483-0.013c-0.008,0-0.015,0-0.022,0c-4.025,0-7.294,3.257-7.306,7.284    c-0.012,4.036,3.249,7.316,7.284,7.328l4.483,0.013c0.008,0,0.015,0,0.022,0c4.025,0,7.294-3.257,7.306-7.284    C340.648,366.983,337.387,363.703,333.352,363.691z"/>
	</g>
</g>















</svg>
