<?xml version="1.0" encoding="iso-8859-1"?>
<!-- Generator: Adobe Illustrator 19.0.0, SVG Export Plug-In . SVG Version: 6.00 Build 0)  -->
<svg xmlns="http://www.w3.org/2000/svg" xmlns:xlink="http://www.w3.org/1999/xlink" version="1.1" id="Layer_1" x="0px" y="0px" viewBox="0 0 512 512" style="enable-background:new 0 0 512 512;" xml:space="preserve" width="512" height="512">
<g id="XMLID_268_">
	<g id="XMLID_269_">
		<g id="XMLID_270_">
			<g id="XMLID_271_">
				<path id="XMLID_2710_" style="fill:#FC4747;" d="M310.744,373.708H279V138.292h31.744c8.978,0,16.256,7.278,16.256,16.256      v202.903C327,366.43,319.722,373.708,310.744,373.708z"/>
				<path id="XMLID_272_" style="fill:#FFDA2C;" d="M374.48,256c0,32.64-26.1,59.18-58.56,59.88c-0.44,0.02-0.89,0.02-1.33,0.02      c-4.6,0-9.07-0.54-13.37-1.52V197.62c4.3-0.98,8.77-1.52,13.37-1.52c0.44,0,0.89,0,1.33,0.02      C348.38,196.82,374.48,223.36,374.48,256z"/>
				<path id="XMLID_273_" style="fill:#FFB229;" d="M315.92,196.12v119.76c-0.44,0.02-0.89,0.02-1.33,0.02      c-4.6,0-9.07-0.54-13.37-1.52V197.62c4.3-0.98,8.77-1.52,13.37-1.52C315.03,196.1,315.48,196.1,315.92,196.12z"/>
				<g id="XMLID_274_">
					<rect id="XMLID_275_" x="7.5" y="181.96" style="fill:#FC4747;" width="49.86" height="28.29"/>
					<rect id="XMLID_276_" x="36.52" y="181.96" style="fill:#E20F0A;" width="20.84" height="28.29"/>
					<rect id="XMLID_277_" x="7.5" y="241.86" style="fill:#FC4747;" width="49.86" height="28.28"/>
					<rect id="XMLID_278_" x="36.52" y="241.86" style="fill:#E20F0A;" width="20.84" height="28.28"/>
					<rect id="XMLID_279_" x="7.5" y="301.75" style="fill:#FC4747;" width="49.86" height="28.29"/>
					<rect id="XMLID_280_" x="36.52" y="301.75" style="fill:#E20F0A;" width="20.84" height="28.29"/>
				</g>
				<path id="XMLID_281_" style="fill:#618BAA;" d="M303.92,68.02v375.96c0,9.72-10.99,15.36-18.88,9.7L125.43,339.33l-20.47-14.66      V187.33l20.47-14.66L285.04,58.32C292.93,52.66,303.92,58.3,303.92,68.02z"/>
				<path id="XMLID_284_" style="fill:#89B4C9;" d="M303.92,68.02v375.96c0,9.33-10.13,14.9-17.92,10.31c3.45-2,5.92-5.7,5.92-10.31      V68.02c0-4.61-2.47-8.31-5.92-10.31C293.79,53.12,303.92,58.69,303.92,68.02z"/>
				<polygon id="XMLID_285_" style="fill:#4E7693;" points="125.43,172.67 125.43,339.33 104.96,324.67 104.96,187.33     "/>
				<rect id="XMLID_2695_" x="48.52" y="168.568" style="fill:#618BAA;" width="64.906" height="174.865"/>
				<rect id="XMLID_2694_" x="48.52" y="168.568" style="fill:#4E7693;" width="11.146" height="174.865"/>
			</g>
		</g>
	</g>
	<g id="XMLID_286_">
		<path id="XMLID_287_" d="M314.586,203.605c24.292,0,45.232,16.476,50.923,40.065c0.829,3.436,3.899,5.743,7.285,5.743    c0.582,0,1.174-0.068,1.765-0.211c4.026-0.972,6.503-5.023,5.532-9.05c-5.704-23.645-23.314-41.73-45.591-48.57v-37.034    c0-12.873-10.293-23.38-23.08-23.74V68.017c0-7.318-4.044-13.941-10.554-17.286c-6.511-3.345-14.251-2.774-20.199,1.489    l-77.612,55.606c-3.367,2.412-4.141,7.098-1.729,10.465c2.413,3.367,7.097,4.141,10.465,1.729l77.612-55.606    c1.983-1.422,3.885-0.712,4.609-0.34c0.724,0.372,2.407,1.501,2.407,3.943v375.967c0,2.442-1.684,3.571-2.407,3.943    c-0.725,0.372-2.626,1.082-4.609-0.34L120.926,326.879V185.121l62.706-44.926c3.367-2.412,4.141-7.098,1.729-10.465    c-2.414-3.367-7.098-4.141-10.465-1.729l-54.183,38.82c-0.788-3.298-3.747-5.753-7.287-5.753H48.521c-4.143,0-7.5,3.357-7.5,7.5    v5.893H7.5c-4.143,0-7.5,3.357-7.5,7.5v28.289c0,4.143,3.357,7.5,7.5,7.5h33.521v16.606H7.5c-4.143,0-7.5,3.357-7.5,7.5v28.289    c0,4.143,3.357,7.5,7.5,7.5h33.521v16.606H7.5c-4.143,0-7.5,3.357-7.5,7.5v28.289c0,4.143,3.357,7.5,7.5,7.5h33.521v5.892    c0,4.143,3.357,7.5,7.5,7.5h12.058c4.143,0,7.5-3.357,7.5-7.5s-3.357-7.5-7.5-7.5h-4.558V176.068h49.905v159.864h-11.17    c-4.143,0-7.5,3.357-7.5,7.5s3.357,7.5,7.5,7.5h18.67c3.54,0,6.499-2.455,7.287-5.753l159.954,114.601    c3.377,2.419,7.33,3.649,11.308,3.649c3.031,0,6.076-0.715,8.892-2.16c6.51-3.345,10.554-9.968,10.554-17.286v-62.792    c12.787-0.36,23.08-10.867,23.08-23.74v-37.087c19.921-6.188,36.35-21.441,43.584-41.76c1.39-3.902-0.647-8.191-4.55-9.581    c-3.903-1.388-8.192,0.648-9.581,4.55c-7.416,20.828-27.255,34.822-49.367,34.822c-1.05,0-2.108-0.038-3.166-0.103V203.707    C312.478,203.642,313.536,203.605,314.586,203.605z M15,202.749V189.46h26.021v13.289H15z M15,262.645v-13.289h26.021v13.289H15z     M15,322.54v-13.289h26.021v13.289H15z M319.5,154.549v34.245c-1.625-0.117-3.262-0.189-4.914-0.189    c-1.051,0-2.109,0.041-3.166,0.091v-42.869C315.933,146.174,319.5,149.949,319.5,154.549z M314.586,323.396    c1.649,0,3.287-0.067,4.914-0.186v34.242c0,4.6-3.567,8.375-8.08,8.723v-42.869C312.477,323.355,313.535,323.396,314.586,323.396z    "/>
		<path id="XMLID_294_" d="M403.578,185.165c-3.802,1.646-5.549,6.062-3.903,9.862c7.708,17.806,11.782,38.89,11.782,60.973    s-4.074,43.167-11.782,60.973c-1.646,3.801,0.102,8.217,3.903,9.862c0.971,0.42,1.981,0.619,2.976,0.619    c2.9,0,5.661-1.691,6.887-4.522c8.516-19.671,13.017-42.815,13.017-66.932s-4.501-47.261-13.017-66.932    C411.795,185.267,407.379,183.519,403.578,185.165z"/>
		<path id="XMLID_295_" d="M439.903,153.512c-3.802,1.646-5.549,6.062-3.903,9.862c11.723,27.076,17.919,59.106,17.919,92.626    s-6.196,65.55-17.919,92.626c-1.646,3.801,0.102,8.217,3.903,9.862c0.971,0.42,1.981,0.619,2.976,0.619    c2.899,0,5.661-1.692,6.887-4.522c12.53-28.941,19.153-63.032,19.153-98.585s-6.623-69.644-19.153-98.585    C448.119,153.614,443.704,151.866,439.903,153.512z"/>
		<path id="XMLID_296_" d="M483.672,110.093c-1.646-3.802-6.061-5.55-9.862-3.903c-3.802,1.646-5.549,6.062-3.903,9.862    C487.631,156.994,497,205.387,497,256s-9.369,99.006-27.094,139.948c-1.646,3.801,0.102,8.217,3.903,9.862    c0.971,0.42,1.981,0.619,2.976,0.619c2.9,0,5.661-1.691,6.887-4.522C502.204,359.1,512,308.646,512,256    S502.204,152.901,483.672,110.093z"/>
		<path id="XMLID_297_" d="M262.669,124.087c4.104,0,7.454-3.307,7.498-7.421c0.043-4.142-3.279-7.535-7.421-7.579l-0.093-0.001    c-0.027,0-0.054,0-0.081,0c-4.104,0-7.408,3.307-7.451,7.422c-0.044,4.142,3.325,7.535,7.467,7.579    C262.615,124.087,262.642,124.087,262.669,124.087z"/>
		<path id="XMLID_298_" d="M262.588,402.914c0.027,0,0.054,0,0.081,0c4.104,0,7.454-3.307,7.498-7.421    c0.043-4.142-3.279-7.535-7.421-7.579l-0.093-0.001c-4.108-0.064-7.489,3.278-7.532,7.422    C255.077,399.477,258.446,402.87,262.588,402.914z"/>
	</g>
</g>















</svg>
