<?xml version="1.0" encoding="iso-8859-1"?>
<!-- Generator: Adobe Illustrator 19.0.0, SVG Export Plug-In . SVG Version: 6.00 Build 0)  -->
<svg xmlns="http://www.w3.org/2000/svg" xmlns:xlink="http://www.w3.org/1999/xlink" version="1.1" id="Layer_1" x="0px" y="0px" viewBox="0 0 512 512" style="enable-background:new 0 0 512 512;" xml:space="preserve" width="512" height="512">
<g id="XMLID_243_">
	<g id="XMLID_244_">
		<g id="XMLID_245_">
			<polygon id="XMLID_246_" style="fill:#C3D24C;" points="504.5,79.348 504.5,382.908 30.08,382.908 30.08,79.348 264.49,79.348      289.83,40.678 446.22,40.678 471.56,79.348    "/>
			<polygon id="XMLID_247_" style="fill:#DCE561;" points="504.5,79.348 504.5,91.348 465.08,91.348 439.74,52.678 296.31,52.678      270.97,91.348 30.08,91.348 30.08,79.348 264.49,79.348 289.83,40.678 446.22,40.678 471.56,79.348    "/>
			<path id="XMLID_248_" style="fill:#89BF4A;" d="M504.5,141.318v241.59H30.08v-241.59h25.05l23-35.09     c2.22-3.39,5.99-5.42,10.04-5.42h163.82c4.05,0,7.82,2.03,10.04,5.42l23,35.09H504.5z"/>
			<polygon id="XMLID_249_" style="fill:#E29C6D;" points="278.546,153.314 251.992,112.804 88.167,112.804 61.612,153.314      7.5,153.314 7.5,471.324 504.5,471.324 504.5,153.314    "/>
			<path id="XMLID_250_" style="fill:#EDB48A;" d="M504.5,153.318v12H278.543c-4.046,0-7.819-2.038-10.037-5.422l-22.996-35.088     H94.65l-23.006,35.09c-2.218,3.383-5.991,5.42-10.035,5.42H7.5v-12h54.11l26.56-40.51h163.82l26.56,40.51H504.5z"/>
			<rect id="XMLID_251_" x="7.5" y="448.735" style="fill:#C97F4C;" width="497" height="21.079"/>
			<g id="XMLID_252_">
				<rect id="XMLID_2695_" x="277.038" y="311.418" style="fill:#E3E3E3;" width="193.322" height="122.666"/>
			</g>
		</g>
	</g>
	<g id="XMLID_253_">
		<path id="XMLID_255_" d="M504.5,71.847h-28.884l-23.127-35.282c-1.386-2.115-3.744-3.389-6.272-3.389h-41.46    c-4.142,0-7.5,3.357-7.5,7.5s3.358,7.5,7.5,7.5h37.409l23.127,35.282c1.386,2.115,3.744,3.389,6.272,3.389H497v58.968H282.598    l-24.333-37.122c-1.386-2.115-3.744-3.389-6.272-3.389H88.167c-2.528,0-4.887,1.273-6.272,3.389l-24.333,37.122h-19.98V86.847    h226.905c2.528,0,4.887-1.273,6.272-3.389l23.127-35.282h76.693c4.142,0,7.5-3.357,7.5-7.5s-3.358-7.5-7.5-7.5h-80.745    c-2.528,0-4.887,1.273-6.272,3.389l-23.127,35.282H30.081c-4.142,0-7.5,3.357-7.5,7.5v66.468H7.5c-4.142,0-7.5,3.357-7.5,7.5    v255.93c0,4.143,3.358,7.5,7.5,7.5s7.5-3.357,7.5-7.5v-248.43h46.612c2.528,0,4.887-1.273,6.272-3.389l24.333-37.122h155.723    l24.333,37.122c1.386,2.115,3.744,3.389,6.272,3.389H497v303.01H173.422c-4.142,0-7.5,3.357-7.5,7.5s3.358,7.5,7.5,7.5H504.5    c4.142,0,7.5-3.357,7.5-7.5V79.347C512,75.204,508.642,71.847,504.5,71.847z"/>
		<path id="XMLID_256_" d="M139.245,463.824H15v-20.402c0-4.143-3.358-7.5-7.5-7.5s-7.5,3.357-7.5,7.5v27.902    c0,4.143,3.358,7.5,7.5,7.5h131.745c4.142,0,7.5-3.357,7.5-7.5S143.387,463.824,139.245,463.824z"/>
		<path id="XMLID_257_" d="M90.542,188.988l25.409-36.079h114.583c4.142,0,7.5-3.357,7.5-7.5s-3.358-7.5-7.5-7.5H112.06    c-2.44,0-4.727,1.187-6.132,3.182L80.519,177.17H40.293c-4.142,0-7.5,3.357-7.5,7.5v240.944c0,4.143,3.358,7.5,7.5,7.5    s7.5-3.357,7.5-7.5V192.17H84.41C86.85,192.17,89.137,190.983,90.542,188.988z"/>
		<path id="XMLID_258_" d="M78,220.351c0-4.143-3.358-7.5-7.5-7.5s-7.5,3.357-7.5,7.5v5.741c0,4.143,3.358,7.5,7.5,7.5    s7.5-3.357,7.5-7.5V220.351z"/>
		<path id="XMLID_259_" d="M70.5,242.947c-4.142,0-7.5,3.357-7.5,7.5v82.416c0,4.143,3.358,7.5,7.5,7.5s7.5-3.357,7.5-7.5v-82.416    C78,246.305,74.642,242.947,70.5,242.947z"/>
		<path id="XMLID_260_" d="M269.538,311.418v122.666c0,4.143,3.358,7.5,7.5,7.5h193.322c4.142,0,7.5-3.357,7.5-7.5V311.418    c0-4.143-3.358-7.5-7.5-7.5H277.038C272.896,303.918,269.538,307.275,269.538,311.418z M284.538,318.918h178.322v107.666H284.538    V318.918z"/>
		<path id="XMLID_263_" d="M431.528,336.634h-81.677c-4.142,0-7.5,3.357-7.5,7.5s3.358,7.5,7.5,7.5h81.677    c4.142,0,7.5-3.357,7.5-7.5S435.67,336.634,431.528,336.634z"/>
		<path id="XMLID_264_" d="M315.869,351.634h8.346c4.142,0,7.5-3.357,7.5-7.5s-3.358-7.5-7.5-7.5h-8.346c-4.142,0-7.5,3.357-7.5,7.5    S311.727,351.634,315.869,351.634z"/>
		<path id="XMLID_265_" d="M431.528,365.251H315.869c-4.142,0-7.5,3.357-7.5,7.5s3.358,7.5,7.5,7.5h115.659    c4.142,0,7.5-3.357,7.5-7.5S435.67,365.251,431.528,365.251z"/>
		<path id="XMLID_266_" d="M431.528,393.867h-13.116c-4.142,0-7.5,3.357-7.5,7.5s3.358,7.5,7.5,7.5h13.116    c4.142,0,7.5-3.357,7.5-7.5S435.67,393.867,431.528,393.867z"/>
		<path id="XMLID_267_" d="M394.565,393.867h-78.696c-4.142,0-7.5,3.357-7.5,7.5s3.358,7.5,7.5,7.5h78.696    c4.142,0,7.5-3.357,7.5-7.5S398.707,393.867,394.565,393.867z"/>
	</g>
</g>















</svg>
