<?xml version="1.0" encoding="iso-8859-1"?>
<!-- Generator: Adobe Illustrator 19.0.0, SVG Export Plug-In . SVG Version: 6.00 Build 0)  -->
<svg xmlns="http://www.w3.org/2000/svg" xmlns:xlink="http://www.w3.org/1999/xlink" version="1.1" id="Layer_1" x="0px" y="0px" viewBox="0 0 512 512" style="enable-background:new 0 0 512 512;" xml:space="preserve" width="512" height="512">
<g id="XMLID_172_">
	<g id="XMLID_173_">
		<g id="XMLID_174_">
			<g id="XMLID_175_">
				<g id="XMLID_176_">
					<rect id="XMLID_177_" x="243.78" y="108.02" style="fill:#FC4747;" width="24.44" height="64.61"/>
					<rect id="XMLID_178_" x="243.78" y="108.02" style="fill:#E20F0A;" width="24.44" height="24.46"/>
					<rect id="XMLID_179_" x="243.78" y="146.6" style="fill:#E20F0A;" width="24.44" height="26.03"/>
					<polygon id="XMLID_182_" style="fill:#618BAA;" points="320.41,482.39 191.59,482.39 194.32,464.44 199.08,433.12        206.46,384.61 221.71,284.31 229.09,235.8 234.74,198.66 237.77,178.75 274.23,178.75 277.26,198.66 295.54,318.88        302.92,367.39 317.68,464.44      "/>
					<path id="XMLID_185_" style="fill:#4E7693;" d="M262.1,247.8v24.51c0,6.62-5.38,12-12,12h-28.39l7.38-48.51h21.01       C256.72,235.8,262.1,241.17,262.1,247.8z"/>
					<path id="XMLID_188_" style="fill:#4E7693;" d="M239.41,396.61v24.51c0,6.63-5.37,12-12,12h-28.33l7.38-48.51h20.95       C234.04,384.61,239.41,389.98,239.41,396.61z"/>
					<path id="XMLID_191_" style="fill:#4E7693;" d="M302.92,367.39H278.8c-6.63,0-12-5.37-12-12v-24.51c0-6.62,5.37-12,12-12h16.74       L302.92,367.39z"/>
					<polygon id="XMLID_194_" style="fill:#4E7693;" points="277.26,198.66 234.74,198.66 237.77,178.75 274.23,178.75      "/>
					<polygon id="XMLID_197_" style="fill:#4E7693;" points="320.41,482.39 191.59,482.39 194.32,464.44 317.68,464.44      "/>
					<path id="XMLID_198_" style="fill:#00D8E0;" d="M314.656,48.51v85.736c0,1.158-0.939,2.096-2.096,2.096l0,0       c-0.765,0-1.455-0.425-1.836-1.088c-5.082-8.836-14.615-14.776-25.545-14.776h-58.355c-10.93,0-20.463,5.94-25.545,14.776       c-0.381,0.663-1.071,1.088-1.836,1.088h0c-1.158,0-2.096-0.939-2.096-2.096V48.511c0-16.28,13.198-29.477,29.477-29.477h58.355       C301.459,19.033,314.656,32.231,314.656,48.51z"/>
					<path id="XMLID_199_" style="fill:#98F4F4;" d="M314.654,116.668c0-16.281-13.198-29.479-29.479-29.479h-58.352       c-16.281,0-29.479,13.198-29.479,29.479V82.591c0-16.281,13.198-29.479,29.479-29.479h58.352       c16.281,0,29.479,13.198,29.479,29.479V116.668z"/>
					<rect id="XMLID_2731_" x="223.21" y="158.601" style="fill:#618BAA;" width="65.58" height="28.059"/>
					<rect id="XMLID_2728_" x="223.21" y="158.601" style="fill:#89B4C9;" width="65.58" height="12.052"/>
					<rect id="XMLID_2725_" x="160.603" y="476.442" style="fill:#618BAA;" width="190.795" height="28.059"/>
					<g id="XMLID_200_">
						<rect id="XMLID_2724_" x="204.724" y="247.798" style="fill:#FC4747;" width="45.373" height="24.509"/>
					</g>
					<g id="XMLID_204_">
						<rect id="XMLID_2722_" x="278.799" y="330.885" style="fill:#FC4747;" width="45.373" height="24.509"/>
					</g>
					<g id="XMLID_205_">
						<rect id="XMLID_2720_" x="182.037" y="396.609" style="fill:#FC4747;" width="45.373" height="24.509"/>
					</g>
				</g>
			</g>
		</g>
	</g>
	<g id="XMLID_206_">
		<path id="XMLID_207_" d="M189.847,134.247c0,5.291,4.305,9.596,9.596,9.596c3.423,0,6.617-1.858,8.337-4.849    c3.908-6.795,11.205-11.016,19.043-11.016h9.456v23.123h-13.07c-4.142,0-7.5,3.357-7.5,7.5v28.059c0,4.143,3.358,7.5,7.5,7.5    h4.632l-0.095,0.624c-0.623,4.095,2.192,7.92,6.287,8.543c0.382,0.058,0.762,0.086,1.137,0.086c3.644,0,6.841-2.66,7.405-6.373    l0.438-2.88h25.973l12.808,84.213c0.564,3.713,3.761,6.373,7.405,6.373c0.375,0,0.755-0.028,1.137-0.086    c4.095-0.623,6.91-4.447,6.287-8.543l-12.465-81.957h4.631c4.142,0,7.5-3.357,7.5-7.5v-28.059c0-4.143-3.358-7.5-7.5-7.5h-13.07    v-23.123h9.459c7.838,0,15.135,4.221,19.045,11.019c1.721,2.989,4.915,4.846,8.335,4.846c5.292,0,9.597-4.305,9.597-9.596V48.51    c0-19.687-15.466-35.825-34.886-36.914c-0.3-0.036-0.603-0.061-0.912-0.061c-0.125,0-0.246,0.013-0.369,0.019    c-0.27-0.006-0.539-0.021-0.81-0.021h-58.355c-0.273,0-0.542,0.015-0.813,0.021c-0.123-0.006-0.245-0.019-0.37-0.019    c-0.311,0-0.615,0.025-0.915,0.062c-19.416,1.092-34.879,17.229-34.879,36.913V134.247z M204.847,82.456    c0.055-8.979,5.52-16.698,13.294-20.054v18.325c-4.877,1.178-9.382,3.32-13.294,6.221V82.456z M307.156,86.953    c-3.914-2.903-8.419-5.045-13.298-6.224V62.404c7.812,3.374,13.295,11.151,13.295,20.187c0,0.016,0.002,0.032,0.002,0.048V86.953z     M248.5,79.689h-15.358V60.612H248.5V79.689z M263.5,60.612h15.358v19.077H263.5V60.612z M233.142,94.689H248.5v18.289h-15.358    V94.689z M263.5,112.978V94.689h15.358v18.289H263.5z M278.859,45.612H263.5V26.534h15.358V45.612z M248.5,45.612h-15.358V26.534    H248.5V45.612z M204.847,120.236v-3.703c0.055-8.979,5.52-16.697,13.294-20.053v17.541    C213.328,115.19,208.805,117.313,204.847,120.236z M281.29,179.16h-50.58v-13.059h50.58V179.16z M260.72,151.101h-9.439v-23.123    h9.439V151.101z M293.859,114.02v-17.54c7.812,3.373,13.295,11.151,13.295,20.187c0,0.016,0.002,0.032,0.002,0.048v3.52    C303.198,117.312,298.674,115.189,293.859,114.02z M307.156,48.51v4.365c-3.914-2.903-8.419-5.045-13.298-6.224V28.324    C301.672,31.696,307.156,39.473,307.156,48.51z M218.142,28.325v18.326c-4.877,1.178-9.382,3.32-13.294,6.221V48.51    C204.847,39.475,210.33,31.698,218.142,28.325z"/>
		<path id="XMLID_223_" d="M351.398,468.942h-25.445l-16.13-106.047h14.349c4.142,0,7.5-3.357,7.5-7.5v-24.51    c0-4.143-3.358-7.5-7.5-7.5h-20.358l-1.991-13.091c-0.623-4.095-4.441-6.905-8.542-6.287c-4.095,0.623-6.91,4.448-6.287,8.543    l1.648,10.835H278.8c-4.142,0-7.5,3.357-7.5,7.5v24.51c0,4.143,3.358,7.5,7.5,7.5h15.851l16.13,106.047H201.22l6.133-40.323    h20.058c4.142,0,7.5-3.357,7.5-7.5v-24.51c0-4.143-3.358-7.5-7.5-7.5h-14.048l16.625-109.302h20.109c4.142,0,7.5-3.357,7.5-7.5    v-24.51c0-4.143-3.358-7.5-7.5-7.5h-14.1l1.381-9.08c0.623-4.095-2.192-7.92-6.287-8.543c-4.092-0.614-7.919,2.192-8.542,6.287    l-1.724,11.336h-16.101c-4.142,0-7.5,3.357-7.5,7.5v24.51c0,4.143,3.358,7.5,7.5,7.5h10.091L198.19,389.109h-16.153    c-4.142,0-7.5,3.357-7.5,7.5v24.51c0,4.143,3.358,7.5,7.5,7.5h10.143l-6.133,40.323h-25.445c-4.142,0-7.5,3.357-7.5,7.5V504.5    c0,4.143,3.358,7.5,7.5,7.5h8.642c4.142,0,7.5-3.357,7.5-7.5s-3.358-7.5-7.5-7.5h-1.142v-13.059h175.795V497H203.422    c-4.142,0-7.5,3.357-7.5,7.5s3.358,7.5,7.5,7.5h147.976c4.142,0,7.5-3.357,7.5-7.5v-28.059    C358.898,472.299,355.54,468.942,351.398,468.942z M286.3,338.385h30.373v9.51H286.3V338.385z M212.224,255.297h30.373v9.51    h-30.373V255.297z M189.537,404.109h30.373v9.51h-30.373V404.109z"/>
		<path id="XMLID_228_" d="M354.842,42.906c-3.362,2.42-4.125,7.106-1.706,10.469c6.161,8.559,9.417,18.662,9.417,29.217    s-3.256,20.657-9.417,29.218c-2.419,3.361-1.656,8.049,1.707,10.468c1.326,0.955,2.857,1.414,4.375,1.414    c2.331,0,4.628-1.084,6.094-3.12c8.009-11.128,12.242-24.261,12.242-37.979c0-13.72-4.233-26.853-12.242-37.98    C362.89,41.249,358.204,40.486,354.842,42.906z"/>
		<path id="XMLID_229_" d="M397.036,27.981c-2.418-3.361-7.107-4.124-10.468-1.707c-3.362,2.42-4.126,7.106-1.707,10.469    c9.667,13.433,14.777,29.287,14.777,45.849c0,16.563-5.11,32.416-14.777,45.848c-2.419,3.361-1.656,8.049,1.706,10.468    c1.326,0.954,2.857,1.414,4.375,1.414c2.331,0,4.628-1.084,6.094-3.12c11.515-15.999,17.602-34.883,17.602-54.609    C414.638,62.866,408.551,43.981,397.036,27.981z"/>
		<path id="XMLID_230_" d="M426.65,3.12c-2.42-3.362-7.106-4.126-10.469-1.706c-3.362,2.419-4.125,7.106-1.706,10.468    c14.909,20.716,22.79,45.167,22.79,70.71s-7.881,49.993-22.79,70.709c-2.419,3.361-1.656,8.049,1.706,10.468    c1.326,0.955,2.857,1.414,4.375,1.414c2.331,0,4.628-1.084,6.094-3.12c16.758-23.283,25.615-50.764,25.615-79.471    S443.407,26.403,426.65,3.12z"/>
		<path id="XMLID_231_" d="M152.784,123.691c1.517,0,3.049-0.46,4.375-1.414c3.362-2.419,4.126-7.106,1.707-10.468    c-6.161-8.561-9.417-18.663-9.417-29.218s3.256-20.658,9.417-29.217c2.419-3.362,1.656-8.049-1.706-10.469    c-3.361-2.419-8.048-1.655-10.469,1.705c-8.009,11.128-12.242,24.261-12.242,37.98c0,13.719,4.233,26.852,12.242,37.979    C148.156,122.607,150.453,123.691,152.784,123.691z"/>
		<path id="XMLID_232_" d="M112.362,82.591c0-16.562,5.11-32.416,14.777-45.849c2.419-3.362,1.656-8.049-1.707-10.469    c-3.363-2.42-8.049-1.655-10.468,1.707c-11.515,16-17.602,34.885-17.602,54.61c0,19.727,6.087,38.61,17.602,54.609    c1.466,2.037,3.763,3.12,6.094,3.12c1.517,0,3.049-0.46,4.375-1.414c3.362-2.419,4.125-7.106,1.706-10.468    C117.472,115.007,112.362,99.154,112.362,82.591z"/>
		<path id="XMLID_233_" d="M74.736,82.591c0-25.543,7.881-49.994,22.79-70.71c2.419-3.361,1.656-8.049-1.706-10.468    C92.456-1.005,87.77-0.243,85.351,3.12C68.593,26.403,59.736,53.884,59.736,82.591s8.857,56.188,25.615,79.471    c1.466,2.037,3.763,3.12,6.094,3.12c1.517,0,3.049-0.46,4.375-1.414c3.362-2.419,4.125-7.106,1.706-10.468    C82.616,132.584,74.736,108.134,74.736,82.591z"/>
		<path id="XMLID_234_" d="M364.434,334.852h-9.489c-4.142,0-7.5,3.357-7.5,7.5s3.358,7.5,7.5,7.5h9.489c4.142,0,7.5-3.357,7.5-7.5    S368.576,334.852,364.434,334.852z"/>
		<path id="XMLID_235_" d="M350.844,327.155c1.272,0,2.563-0.324,3.744-1.006l8.217-4.745c3.587-2.071,4.816-6.658,2.745-10.246    c-2.072-3.586-6.659-4.814-10.246-2.744l-8.217,4.745c-3.587,2.071-4.816,6.658-2.745,10.246    C345.732,325.81,348.252,327.155,350.844,327.155z"/>
		<path id="XMLID_236_" d="M362.804,363.299l-8.217-4.744c-3.588-2.071-8.175-0.843-10.245,2.745    c-2.071,3.587-0.842,8.174,2.745,10.245l8.217,4.744c1.181,0.682,2.471,1.006,3.743,1.006c2.592,0,5.113-1.345,6.502-3.751    C367.621,369.957,366.391,365.371,362.804,363.299z"/>
		<path id="XMLID_237_" d="M151.467,416.364c4.142,0,7.5-3.357,7.5-7.5s-3.358-7.5-7.5-7.5h-9.489c-4.142,0-7.5,3.357-7.5,7.5    s3.358,7.5,7.5,7.5H151.467z"/>
		<path id="XMLID_238_" d="M162.071,427.812c-2.071-3.588-6.658-4.814-10.245-2.745l-8.217,4.744    c-3.587,2.071-4.816,6.658-2.745,10.245c1.389,2.406,3.91,3.751,6.502,3.751c1.272,0,2.562-0.324,3.743-1.006l8.217-4.744    C162.913,435.986,164.142,431.399,162.071,427.812z"/>
		<path id="XMLID_239_" d="M140.863,377.669c-2.071,3.588-0.842,8.175,2.745,10.246l8.217,4.745    c1.181,0.682,2.471,1.006,3.744,1.006c2.591,0,5.113-1.345,6.502-3.75c2.071-3.588,0.842-8.175-2.745-10.246l-8.217-4.745    C147.523,372.856,142.935,374.082,140.863,377.669z"/>
		<path id="XMLID_240_" d="M173.334,267.862c4.142,0,7.5-3.357,7.5-7.5s-3.358-7.5-7.5-7.5h-9.489c-4.142,0-7.5,3.357-7.5,7.5    s3.358,7.5,7.5,7.5H173.334z"/>
		<path id="XMLID_241_" d="M169.232,295.305c1.272,0,2.562-0.324,3.743-1.006l8.218-4.744c3.587-2.07,4.816-6.657,2.745-10.245    s-6.658-4.815-10.245-2.745l-8.218,4.744c-3.587,2.07-4.816,6.657-2.745,10.245C164.119,293.96,166.64,295.305,169.232,295.305z"/>
		<path id="XMLID_242_" d="M165.475,239.414l8.218,4.744c1.182,0.683,2.471,1.006,3.743,1.006c2.592,0,5.113-1.345,6.502-3.751    c2.071-3.588,0.842-8.175-2.745-10.245l-8.218-4.744c-3.589-2.074-8.175-0.843-10.245,2.745    C160.659,232.757,161.888,237.344,165.475,239.414z"/>
	</g>
</g>















</svg>
