<?xml version="1.0" encoding="iso-8859-1"?>
<!-- Generator: Adobe Illustrator 19.0.0, SVG Export Plug-In . SVG Version: 6.00 Build 0)  -->
<svg xmlns="http://www.w3.org/2000/svg" xmlns:xlink="http://www.w3.org/1999/xlink" version="1.1" id="Layer_1" x="0px" y="0px" viewBox="0 0 512 512" style="enable-background:new 0 0 512 512;" xml:space="preserve" width="512" height="512">
<g id="XMLID_82_">
	<g id="XMLID_83_">
		<g id="XMLID_84_">
			<g id="XMLID_85_">
				<g id="XMLID_86_">
					<path id="XMLID_89_" style="fill:#C8C8C8;" d="M348.445,459.333h-258.3l8.056-22.463l57.487-160.281       c6.331-17.658,18.841-31.834,34.572-40.462c0.04-0.02,0.08-0.04,0.12-0.06c10.765-5.869,23.045-9.14,35.877-9.14h38.826       l24.159,67.369l2.729,7.615l48.417,134.959L348.445,459.333z"/>
					<path id="XMLID_92_" style="fill:#AAAAAA;" d="M289.242,294.297l2.729,7.615c-32.154-7.184-61.671-23.336-85.538-47.194       c-5.899-5.899-11.287-12.109-16.172-18.59c0.04-0.02,0.08-0.04,0.12-0.06c10.765-5.869,23.045-9.14,35.877-9.14h38.826       L289.242,294.297z"/>
					<polygon id="XMLID_95_" style="fill:#AAAAAA;" points="348.445,459.333 90.145,459.333 98.201,436.87 340.389,436.87      "/>
					<path id="XMLID_2707_" style="fill:#6E6E6E;" d="M245.567,448.911h-48.415V398.52c0-6.574,5.329-11.903,11.903-11.903h24.609       c6.574,0,11.903,5.329,11.903,11.903V448.911z"/>
					<path id="XMLID_96_" style="fill:#FFDA2C;" d="M382.927,138.801c0,6.632-1.064,13.012-3.05,18.982       c-0.401,1.234-0.843,2.438-1.334,3.632c-8.929,22.252-30.73,37.973-56.193,37.973c-33.459,0-60.587-27.128-60.587-60.587       c0-25.463,15.711-47.244,37.963-56.203c1.194-0.482,2.408-0.933,3.642-1.334c5.969-1.977,12.35-3.04,18.982-3.04       C355.819,78.224,382.927,105.342,382.927,138.801z"/>
					<path id="XMLID_98_" style="fill:#FFB229;" d="M378.543,161.415c-8.929,22.252-30.73,37.973-56.193,37.973       c-33.459,0-60.587-27.128-60.587-60.587c0-25.463,15.711-47.244,37.963-56.203L378.543,161.415z"/>
					<g id="XMLID_99_">
						<path id="XMLID_2702_" style="fill:#618BAA;" d="M214.948,14.846c-63.888,63.888-63.888,167.47,0,231.357        s167.47,63.888,231.357,0L214.948,14.846z"/>
						<path id="XMLID_2699_" style="fill:#4E7693;" d="M186.572,52.919c-33.425,61.951-23.973,140.941,28.373,193.287        s131.336,61.797,193.287,28.373c-59.703,22.955-131.365,9.211-181.118-40.542S163.617,112.623,186.572,52.919z"/>
					</g>
					<rect id="XMLID_2695_" x="75.468" y="448.911" style="fill:#4E7693;" width="287.65" height="29.316"/>
					<rect id="XMLID_2692_" x="58.831" y="475.184" style="fill:#618BAA;" width="320.924" height="29.316"/>
				</g>
			</g>
		</g>
	</g>
	<g id="XMLID_100_">
		<path id="XMLID_105_" d="M382.123,171.414c5.447-9.968,8.309-21.148,8.309-32.612c0-12.092-3.228-23.985-9.333-34.394    c-2.096-3.573-6.69-4.769-10.264-2.674c-3.572,2.096-4.77,6.69-2.674,10.264c4.756,8.108,7.271,17.377,7.271,26.804    c0,7.434-1.547,14.709-4.505,21.416l-69.996-69.996c6.708-2.958,13.991-4.502,21.418-4.502c8.425,0,16.496,1.93,23.988,5.734    c3.691,1.875,8.207,0.402,10.083-3.292c1.875-3.692,0.401-8.207-3.292-10.083c-9.616-4.883-19.972-7.359-30.779-7.359    c-11.453,0-22.64,2.868-32.607,8.313l-69.49-69.49c-2.93-2.928-7.678-2.928-10.607,0c-32.315,32.316-50.112,75.281-50.112,120.982    c0,35.312,10.634,68.985,30.372,97.379c-19.15,9.414-34.014,25.913-41.274,46.154l-24.709,68.89    c-1.398,3.899,0.629,8.193,4.527,9.592c0.837,0.3,1.691,0.442,2.532,0.442c3.076,0,5.961-1.907,7.06-4.97l24.709-68.89    c6.277-17.501,19.5-31.588,36.473-39.02c3.288,3.929,6.757,7.739,10.423,11.405c20.419,20.419,45.078,34.958,71.697,42.959    l52.706,146.945h-80.979v-42.891c0-10.699-8.704-19.404-19.403-19.404h-24.608c-10.699,0-19.403,8.705-19.403,19.404v42.891    H104.54l20.74-57.824c1.398-3.899-0.629-8.193-4.527-9.592c-3.898-1.395-8.192,0.628-9.592,4.527l-22.556,62.889H75.468    c-4.143,0-7.5,3.357-7.5,7.5v18.772h-9.137c-4.143,0-7.5,3.357-7.5,7.5V504.5c0,4.143,3.357,7.5,7.5,7.5h320.923    c4.143,0,7.5-3.357,7.5-7.5v-29.316c0-4.143-3.357-7.5-7.5-7.5h-9.137v-18.772c0-4.143-3.357-7.5-7.5-7.5h-13.136l-51.183-142.699    c10.35,1.949,20.907,2.953,31.555,2.953c12.394-0.001,24.911-1.346,37.345-4.094c4.045-0.894,6.599-4.896,5.705-8.941    c-0.894-4.044-4.894-6.602-8.941-5.705c-52.407,11.581-106.317-4.131-144.211-42.025c-29.482-29.482-45.72-68.681-45.72-110.375    c0-39.186,14.341-76.165,40.54-104.948l220.502,220.502c-11.076,10.073-23.455,18.453-36.889,24.96    c-3.728,1.806-5.286,6.292-3.48,10.02s6.293,5.284,10.02,3.48c17.185-8.324,32.79-19.438,46.385-33.031    c2.929-2.93,2.929-7.678,0-10.607L382.123,171.414z M204.652,398.521c0-2.429,1.976-4.404,4.403-4.404h24.608    c2.428,0,4.403,1.976,4.403,4.404v42.891h-33.415V398.521z M372.254,497H66.331v-14.316h305.923V497z M355.618,467.684H82.968    v-11.272h272.649V467.684z"/>
		<path id="XMLID_110_" d="M203.037,363.876c0,4.143,3.357,7.5,7.5,7.5h21.646c4.143,0,7.5-3.357,7.5-7.5s-3.357-7.5-7.5-7.5    h-21.646C206.394,356.376,203.037,359.734,203.037,363.876z"/>
		<path id="XMLID_111_" d="M362.032,69.295c7.391,1.167,14.108,4.568,19.429,9.836c5.32,5.267,8.789,11.95,10.029,19.329    c0.616,3.664,3.792,6.257,7.388,6.257c0.413,0,0.832-0.034,1.253-0.104c4.085-0.688,6.839-4.556,6.152-8.641    c-1.766-10.498-6.7-20.009-14.269-27.5c-7.568-7.494-17.127-12.332-27.643-13.993c-4.096-0.646-7.932,2.147-8.578,6.238    C355.147,64.809,357.94,68.649,362.032,69.295z"/>
		<path id="XMLID_112_" d="M369.881,43.705c11.819,1.865,22.565,7.306,31.077,15.731c8.51,8.425,14.058,19.116,16.042,30.919    c0.616,3.664,3.792,6.257,7.388,6.257c0.413,0,0.832-0.034,1.253-0.104c4.085-0.688,6.839-4.556,6.152-8.641    c-2.51-14.922-9.523-28.439-20.282-39.091c-10.76-10.652-24.347-17.529-39.292-19.888c-4.083-0.644-7.932,2.148-8.577,6.239    S365.789,43.06,369.881,43.705z"/>
		<path id="XMLID_113_" d="M460.564,85.213c-3.621-21.535-13.742-41.044-29.271-56.417c-15.528-15.374-35.138-25.3-56.707-28.704    c-4.084-0.643-7.932,2.148-8.577,6.239s2.147,7.932,6.239,8.577c18.443,2.911,35.211,11.399,48.492,24.548    c13.28,13.146,21.936,29.829,25.031,48.243c0.616,3.664,3.792,6.258,7.388,6.258c0.413,0,0.831-0.034,1.252-0.104    C458.496,93.166,461.25,89.298,460.564,85.213z"/>
	</g>
</g>















</svg>
