<?xml version="1.0" encoding="iso-8859-1"?>
<!-- Generator: Adobe Illustrator 19.0.0, SVG Export Plug-In . SVG Version: 6.00 Build 0)  -->
<svg xmlns="http://www.w3.org/2000/svg" xmlns:xlink="http://www.w3.org/1999/xlink" version="1.1" id="Layer_1" x="0px" y="0px" viewBox="0 0 512 512" style="enable-background:new 0 0 512 512;" xml:space="preserve" width="512" height="512">
<g id="XMLID_2458_">
	<g id="XMLID_2459_">
		<g id="XMLID_2460_">
			<path id="XMLID_2463_" style="fill:#E3E3E3;" d="M504.5,148.85v298.5c0,8.45-6.85,15.3-15.3,15.3H22.8     c-8.45,0-15.3-6.85-15.3-15.3V64.65c0-8.45,6.85-15.3,15.3-15.3H405l33.98,33.98l30.81,30.81L504.5,148.85z"/>
			<path id="XMLID_2466_" style="fill:#C8C8C8;" d="M504.5,423.19v24.16c0,8.45-6.85,15.3-15.3,15.3H22.8     c-8.45,0-15.3-6.85-15.3-15.3v-24.16c0,8.45,6.85,15.3,15.3,15.3h466.4C497.65,438.49,504.5,431.64,504.5,423.19z"/>
			<path id="XMLID_2469_" style="fill:#C8C8C8;" d="M504.5,148.85v12h-84.2c-15.05,0-27.3-12.25-27.3-27.3v-84.2h12L504.5,148.85z"/>
			<path id="XMLID_2472_" style="fill:#C8C8C8;" d="M469.79,114.14v73.48c0,6.62-5.37,12-12,12H54.21c-6.63,0-12-5.38-12-12V95.33     c0-6.63,5.37-12,12-12h384.77L469.79,114.14z"/>
			<rect id="XMLID_2722_" x="54.21" y="95.329" style="fill:#159BFF;" width="403.581" height="92.289"/>
			<path id="XMLID_2476_" style="fill:#AAAAAA;" d="M504.5,148.85h-84.196c-8.452,0-15.304-6.852-15.304-15.304V49.35L504.5,148.85z     "/>
			<path id="XMLID_2479_" style="fill:#C8C8C8;" d="M42.21,322.704V219.54c0-6.627,5.373-12,12-12h214.088c6.627,0,12,5.373,12,12     v103.163c0,6.627-5.373,12-12,12H54.21C47.583,334.704,42.21,329.331,42.21,322.704z"/>
			<rect id="XMLID_2480_" x="54.21" y="219.54" style="fill:#89BF4A;" width="214.088" height="103.163"/>
			<path id="XMLID_2481_" style="fill:#FC4747;" d="M237.839,322.705H84.669c0-42.298,34.298-76.573,76.573-76.573     C203.541,246.132,237.839,280.407,237.839,322.705z"/>
			<path id="XMLID_2482_" style="fill:#FFDA2C;" d="M198.72,322.704h-74.932c0-20.693,16.779-37.46,37.46-37.46     C181.941,285.243,198.72,302.011,198.72,322.704z"/>
		</g>
	</g>
	<g id="XMLID_2483_">
		<path id="XMLID_2484_" d="M191.833,114.368c-4.143,0-7.5,3.358-7.5,7.5v20.401l-25.26-25.662c-2.135-2.169-5.37-2.834-8.188-1.679    c-2.817,1.154-4.657,3.896-4.657,6.94v38.712c0,4.142,3.357,7.5,7.5,7.5s7.5-3.358,7.5-7.5v-20.401l25.26,25.662    c1.438,1.461,3.374,2.239,5.347,2.239c0.956,0,1.921-0.183,2.841-0.56c2.817-1.154,4.657-3.896,4.657-6.94v-38.712    C199.333,117.726,195.976,114.368,191.833,114.368z"/>
		<path id="XMLID_2485_" d="M242.611,129.368c4.143,0,7.5-3.358,7.5-7.5s-3.357-7.5-7.5-7.5h-27.402c-4.143,0-7.5,3.358-7.5,7.5    v38.712c0,4.142,3.357,7.5,7.5,7.5h27.402c4.143,0,7.5-3.358,7.5-7.5s-3.357-7.5-7.5-7.5h-19.902v-4.356h6.201    c4.143,0,7.5-3.358,7.5-7.5s-3.357-7.5-7.5-7.5h-6.201v-4.356H242.611z"/>
		<path id="XMLID_2486_" d="M312.934,114.536c-4.039-0.872-8.037,1.705-8.909,5.754l-4.639,21.561l-5.619-8.283    c-1.396-2.058-3.721-3.29-6.207-3.29s-4.811,1.232-6.207,3.29l-5.619,8.283l-4.639-21.561c-0.872-4.05-4.87-6.627-8.909-5.754    c-4.05,0.871-6.626,4.86-5.755,8.91l8.329,38.712c0.632,2.936,2.953,5.211,5.9,5.785c2.949,0.573,5.953-0.667,7.639-3.152    l9.261-13.652l9.261,13.652c1.413,2.082,3.751,3.29,6.206,3.29c0.475,0,0.955-0.045,1.433-0.138    c2.947-0.573,5.269-2.849,5.9-5.785l8.329-38.712C319.56,119.396,316.983,115.407,312.934,114.536z"/>
		<path id="XMLID_2487_" d="M340.547,129.368h17.725c4.143,0,7.5-3.358,7.5-7.5s-3.357-7.5-7.5-7.5h-17.725    c-9.472,0-17.178,7.706-17.178,17.178c0,9.472,7.706,17.178,17.178,17.178h8.047c1.201,0,2.178,0.977,2.178,2.178    c0,1.201-0.977,2.178-2.178,2.178h-17.725c-4.143,0-7.5,3.358-7.5,7.5s3.357,7.5,7.5,7.5h17.725    c9.472,0,17.178-7.706,17.178-17.178c0-9.472-7.706-17.178-17.178-17.178h-8.047c-1.201,0-2.178-0.977-2.178-2.178    C338.369,130.345,339.346,129.368,340.547,129.368z"/>
		<path id="XMLID_2488_" d="M504.5,233.255c-4.143,0-7.5,3.358-7.5,7.5v206.591c0,4.303-3.501,7.804-7.804,7.804H22.804    c-4.303,0-7.804-3.501-7.804-7.804V275.422c0-4.142-3.357-7.5-7.5-7.5s-7.5,3.358-7.5,7.5v171.924    c0,12.574,10.229,22.804,22.804,22.804h466.393c12.574,0,22.804-10.229,22.804-22.804V240.755    C512,236.613,508.643,233.255,504.5,233.255z"/>
		<path id="XMLID_2489_" d="M509.804,143.546l-99.5-99.5c-1.407-1.407-3.314-2.197-5.304-2.197H22.804    C10.229,41.85,0,52.08,0,64.654v176.591c0,4.142,3.357,7.5,7.5,7.5s7.5-3.358,7.5-7.5V64.654c0-4.303,3.501-7.804,7.804-7.804    H397.5v30.979H54.21c-4.143,0-7.5,3.358-7.5,7.5v92.289c0,4.142,3.357,7.5,7.5,7.5h403.58c4.143,0,7.5-3.358,7.5-7.5V156.35H497    v50.228c0,4.142,3.357,7.5,7.5,7.5s7.5-3.358,7.5-7.5V148.85C512,146.86,511.21,144.953,509.804,143.546z M420.304,141.35    c-4.303,0-7.804-3.501-7.804-7.804V67.457l73.894,73.894H420.304z M450.29,180.117H61.71v-77.289H397.5v30.717    c0,12.574,10.229,22.804,22.804,22.804h29.986V180.117z"/>
		<path id="XMLID_2493_" d="M268.302,248.078c4.143,0,7.5-3.358,7.5-7.5v-21.036c0-4.142-3.357-7.5-7.5-7.5H54.209    c-4.143,0-7.5,3.358-7.5,7.5v103.163c0,4.142,3.357,7.5,7.5,7.5h214.093c4.143,0,7.5-3.358,7.5-7.5v-47.95    c0-4.142-3.357-7.5-7.5-7.5s-7.5,3.358-7.5,7.5v40.45h-15.815c-3.81-42.856-39.903-76.574-83.744-76.574    c-43.829,0-79.912,33.718-83.721,76.574H61.709v-88.163h199.093v13.536C260.802,244.72,264.159,248.078,268.302,248.078z     M132.239,315.205c3.337-12.903,15.078-22.462,29.009-22.462c13.937,0,25.682,9.559,29.021,22.462H132.239z M161.242,253.631    c35.564,0,64.93,27.002,68.682,61.574h-24.342c-3.582-21.233-22.093-37.462-44.334-37.462c-22.235,0-40.741,16.229-44.323,37.462    H92.583C96.334,280.634,125.69,253.631,161.242,253.631z"/>
		<path id="XMLID_2497_" d="M139.827,355.286H85.899c-4.143,0-7.5,3.358-7.5,7.5s3.357,7.5,7.5,7.5h53.928    c4.143,0,7.5-3.358,7.5-7.5S143.97,355.286,139.827,355.286z"/>
		<path id="XMLID_2498_" d="M54.21,370.286h7.783c4.143,0,7.5-3.358,7.5-7.5s-3.357-7.5-7.5-7.5H54.21c-4.143,0-7.5,3.358-7.5,7.5    S50.067,370.286,54.21,370.286z"/>
		<path id="XMLID_2499_" d="M139.827,381.972H54.21c-4.143,0-7.5,3.358-7.5,7.5s3.357,7.5,7.5,7.5h85.617c4.143,0,7.5-3.358,7.5-7.5    S143.97,381.972,139.827,381.972z"/>
		<path id="XMLID_2500_" d="M139.827,408.658h-12.231c-4.143,0-7.5,3.358-7.5,7.5s3.357,7.5,7.5,7.5h12.231    c4.143,0,7.5-3.358,7.5-7.5S143.97,408.658,139.827,408.658z"/>
		<path id="XMLID_2501_" d="M54.21,408.658c-4.143,0-7.5,3.358-7.5,7.5s3.357,7.5,7.5,7.5h51.147c4.143,0,7.5-3.358,7.5-7.5    s-3.357-7.5-7.5-7.5H54.21z"/>
		<path id="XMLID_2502_" d="M268.302,355.286h-53.928c-4.143,0-7.5,3.358-7.5,7.5s3.357,7.5,7.5,7.5h53.928    c4.143,0,7.5-3.358,7.5-7.5S272.444,355.286,268.302,355.286z"/>
		<path id="XMLID_2503_" d="M182.685,370.286h7.783c4.143,0,7.5-3.358,7.5-7.5s-3.357-7.5-7.5-7.5h-7.783    c-4.143,0-7.5,3.358-7.5,7.5S178.542,370.286,182.685,370.286z"/>
		<path id="XMLID_2504_" d="M268.302,381.972h-85.617c-4.143,0-7.5,3.358-7.5,7.5s3.357,7.5,7.5,7.5h85.617    c4.143,0,7.5-3.358,7.5-7.5S272.444,381.972,268.302,381.972z"/>
		<path id="XMLID_2505_" d="M268.302,408.658H256.07c-4.143,0-7.5,3.358-7.5,7.5s3.357,7.5,7.5,7.5h12.231    c4.143,0,7.5-3.358,7.5-7.5S272.444,408.658,268.302,408.658z"/>
		<path id="XMLID_2506_" d="M182.685,408.658c-4.143,0-7.5,3.358-7.5,7.5s3.357,7.5,7.5,7.5h51.147c4.143,0,7.5-3.358,7.5-7.5    s-3.357-7.5-7.5-7.5H182.685z"/>
		<path id="XMLID_2507_" d="M320.491,227.042H457.79c4.143,0,7.5-3.358,7.5-7.5s-3.357-7.5-7.5-7.5H320.491    c-4.143,0-7.5,3.358-7.5,7.5S316.349,227.042,320.491,227.042z"/>
		<path id="XMLID_2508_" d="M320.491,253.728H457.79c4.143,0,7.5-3.358,7.5-7.5s-3.357-7.5-7.5-7.5H320.491    c-4.143,0-7.5,3.358-7.5,7.5S316.349,253.728,320.491,253.728z"/>
		<path id="XMLID_2509_" d="M457.79,265.414h-90.589c-4.143,0-7.5,3.358-7.5,7.5s3.357,7.5,7.5,7.5h90.589    c4.143,0,7.5-3.358,7.5-7.5S461.933,265.414,457.79,265.414z"/>
		<path id="XMLID_2510_" d="M320.491,280.414h20.014c4.143,0,7.5-3.358,7.5-7.5s-3.357-7.5-7.5-7.5h-20.014    c-4.143,0-7.5,3.358-7.5,7.5S316.349,280.414,320.491,280.414z"/>
		<path id="XMLID_2511_" d="M320.491,327.981H457.79c4.143,0,7.5-3.358,7.5-7.5s-3.357-7.5-7.5-7.5H320.491    c-4.143,0-7.5,3.358-7.5,7.5S316.349,327.981,320.491,327.981z"/>
		<path id="XMLID_2512_" d="M457.79,355.286h-15.569c-4.143,0-7.5,3.358-7.5,7.5s3.357,7.5,7.5,7.5h15.569    c4.143,0,7.5-3.358,7.5-7.5S461.933,355.286,457.79,355.286z"/>
		<path id="XMLID_2513_" d="M320.491,370.286h93.42c4.143,0,7.5-3.358,7.5-7.5s-3.357-7.5-7.5-7.5h-93.42    c-4.143,0-7.5,3.358-7.5,7.5S316.349,370.286,320.491,370.286z"/>
		<path id="XMLID_2514_" d="M320.491,396.924H457.79c4.143,0,7.5-3.358,7.5-7.5s-3.357-7.5-7.5-7.5H320.491    c-4.143,0-7.5,3.358-7.5,7.5S316.349,396.924,320.491,396.924z"/>
		<path id="XMLID_2515_" d="M320.491,423.658H457.79c4.143,0,7.5-3.358,7.5-7.5s-3.357-7.5-7.5-7.5H320.491    c-4.143,0-7.5,3.358-7.5,7.5S316.349,423.658,320.491,423.658z"/>
	</g>
</g>















</svg>
