<?xml version="1.0" encoding="iso-8859-1"?>
<!-- Generator: Adobe Illustrator 19.0.0, SVG Export Plug-In . SVG Version: 6.00 Build 0)  -->
<svg xmlns="http://www.w3.org/2000/svg" xmlns:xlink="http://www.w3.org/1999/xlink" version="1.1" id="Layer_1" x="0px" y="0px" viewBox="0 0 512 512" style="enable-background:new 0 0 512 512;" xml:space="preserve" width="512" height="512">
<g id="XMLID_51_">
	<g id="XMLID_52_">
		<path id="XMLID_53_" style="fill:#4E7693;" d="M131.42,68.09v284.74h-29.59V68.09c0-8.17,6.63-14.79,14.8-14.79    c4.08,0,7.78,1.66,10.45,4.33C129.76,60.31,131.42,64,131.42,68.09z"/>
		<rect id="XMLID_56_" x="101.83" y="324.05" style="fill:#385F82;" width="29.59" height="28.78"/>
		<g id="XMLID_57_">
			<rect id="XMLID_60_" x="59.557" y="465.053" style="fill:#618BAA;" width="392.886" height="39.445"/>
			<rect id="XMLID_63_" x="59.557" y="465.053" style="fill:#4E7693;" width="392.886" height="24.396"/>
			<g id="XMLID_64_">
				<path id="XMLID_65_" style="fill:#FFB229;" d="M484.862,367.849v109.274H27.138V367.849c0-17.555,14.237-31.792,31.802-31.792      h394.119C470.624,336.057,484.862,350.294,484.862,367.849z"/>
				<path id="XMLID_66_" style="fill:#FF8B00;" d="M484.862,367.849v61.334H27.138v-61.334c0-17.555,14.237-31.792,31.802-31.792      h394.119C470.624,336.057,484.862,350.294,484.862,367.849z"/>
				<path id="XMLID_2695_" style="fill:#618BAA;" d="M484.862,416.86H27.138v-49.007c0-17.562,14.237-31.798,31.798-31.798h394.128      c17.562,0,31.798,14.237,31.798,31.798V416.86z"/>
				<rect id="XMLID_67_" x="240.191" y="336.057" style="fill:#89BF4A;" width="148.39" height="80.8"/>
				<polygon id="XMLID_69_" style="fill:#C3D24C;" points="354.697,336.057 273.897,416.856 249.111,416.856 329.921,336.057           "/>
				<polygon id="XMLID_70_" style="fill:#C3D24C;" points="376.252,336.057 295.452,416.856 282.992,416.856 363.802,336.057           "/>
			</g>
		</g>
	</g>
	<g id="XMLID_71_">
		<path id="XMLID_72_" d="M453.064,328.555h-13.643c-4.143,0-7.5,3.357-7.5,7.5s3.357,7.5,7.5,7.5h13.643    c13.397,0,24.298,10.9,24.298,24.299v41.517c-27.023,0.039-54.137,0.065-81.284,0.08v-65.895h9.166c4.143,0,7.5-3.357,7.5-7.5    s-3.357-7.5-7.5-7.5H138.917V68.087c0-12.291-10-22.291-22.292-22.291s-22.292,10-22.292,22.291v260.468H58.936    c-21.669,0-39.298,17.629-39.298,39.299v109.268c0,4.143,3.357,7.5,7.5,7.5h24.919V504.5c0,4.143,3.357,7.5,7.5,7.5h34.354    c4.143,0,7.5-3.357,7.5-7.5s-3.357-7.5-7.5-7.5H67.057v-12.379h377.887V497H128.089c-4.143,0-7.5,3.357-7.5,7.5s3.357,7.5,7.5,7.5    h324.354c4.143,0,7.5-3.357,7.5-7.5v-19.879h24.919c4.143,0,7.5-3.357,7.5-7.5V367.854    C492.362,346.184,474.733,328.555,453.064,328.555z M381.078,409.458c-44.516,0.017-89.071,0-133.384-0.048v-65.855h133.384    V409.458z M109.333,68.087c0-4.021,3.271-7.291,7.292-7.291s7.292,3.271,7.292,7.291v260.468h-14.584V68.087z M34.638,469.621    V424.38c21.448,0.056,111.166,0.051,135.138-0.019c4.143-0.012,7.49-3.38,7.479-7.521c-0.012-4.135-3.367-7.479-7.5-7.479    c-0.007,0-0.015,0-0.021,0c-45.418,0.133-89.702,0.139-135.095,0.019v-41.526c0-13.398,10.9-24.299,24.298-24.299h173.759v65.836    c-7.766-0.01-15.536-0.019-23.283-0.031c-0.004,0-0.008,0-0.012,0c-4.137,0-7.494,3.351-7.5,7.488    c-0.006,4.143,3.347,7.505,7.488,7.512c45.635,0.069,224.681,0.072,267.975,0.01v45.251H34.638z"/>
		<path id="XMLID_77_" d="M94.03,359.104H70.747c-4.143,0-7.5,3.357-7.5,7.5s3.357,7.5,7.5,7.5H94.03c4.143,0,7.5-3.357,7.5-7.5    S98.173,359.104,94.03,359.104z"/>
		<path id="XMLID_78_" d="M94.03,380.229H70.747c-4.143,0-7.5,3.357-7.5,7.5s3.357,7.5,7.5,7.5H94.03c4.143,0,7.5-3.357,7.5-7.5    S98.173,380.229,94.03,380.229z"/>
		<path id="XMLID_79_" d="M163.41,125.233c1.326,0.954,2.858,1.414,4.376,1.414c2.33,0,4.628-1.084,6.093-3.119    c8.202-11.396,12.537-24.845,12.537-38.895s-4.335-27.499-12.537-38.895c-2.42-3.361-7.104-4.124-10.469-1.705    c-3.361,2.42-4.125,7.106-1.705,10.469c6.353,8.826,9.711,19.245,9.711,30.131s-3.358,21.305-9.711,30.131    C159.285,118.127,160.049,122.813,163.41,125.233z"/>
		<path id="XMLID_80_" d="M196,142.315c1.325,0.954,2.857,1.414,4.375,1.414c2.33,0,4.628-1.084,6.093-3.12    c11.804-16.398,18.043-35.755,18.043-55.976s-6.239-39.578-18.043-55.977c-2.42-3.364-7.107-4.124-10.468-1.706    c-3.362,2.42-4.126,7.106-1.706,10.468c9.955,13.832,15.217,30.158,15.217,47.215c0,17.056-5.262,33.382-15.217,47.214    C191.874,135.209,192.638,139.895,196,142.315z"/>
		<path id="XMLID_81_" d="M248.161,84.634c0,26.28-8.108,51.437-23.448,72.752c-2.42,3.361-1.656,8.049,1.706,10.468    c1.325,0.955,2.857,1.414,4.375,1.414c2.33,0,4.628-1.084,6.093-3.12c17.189-23.882,26.274-52.069,26.274-81.514    c0-29.445-9.085-57.633-26.274-81.515c-2.418-3.362-7.106-4.125-10.468-1.706c-3.362,2.419-4.126,7.106-1.706,10.468    C240.053,33.195,248.161,58.353,248.161,84.634z"/>
	</g>
</g>















</svg>
