<?xml version="1.0" encoding="iso-8859-1"?>
<!-- Generator: Adobe Illustrator 19.0.0, SVG Export Plug-In . SVG Version: 6.00 Build 0)  -->
<svg xmlns="http://www.w3.org/2000/svg" xmlns:xlink="http://www.w3.org/1999/xlink" version="1.1" id="Layer_1" x="0px" y="0px" viewBox="0 0 512 512" style="enable-background:new 0 0 512 512;" xml:space="preserve" width="512" height="512">
<g id="XMLID_2438_">
	<g id="XMLID_2439_">
		<g id="XMLID_2440_">
			<g id="XMLID_2441_">
				<rect id="XMLID_2442_" x="55.2" y="139.861" style="fill:#E29C6D;" width="449.3" height="250.01"/>
				<path id="XMLID_2443_" style="fill:#C97F4C;" d="M165.45,139.861c-1.98,45.13-39.32,81.23-84.93,81.23      c-8.81,0-17.32-1.35-25.32-3.85v-77.38H165.45z"/>
				<polygon id="XMLID_2444_" style="fill:#C97F4C;" points="504.5,139.87 504.5,389.87 55.2,389.87 55.2,139.87 137.05,199.521       279.85,303.59     "/>
				<path id="XMLID_2445_" style="fill:#AA6344;" d="M137.05,199.521c-15.04,13.41-34.85,21.57-56.53,21.57      c-8.81,0-17.32-1.35-25.32-3.85v-77.37L137.05,199.521z"/>
				<path id="XMLID_2446_" style="fill:#AA6344;" d="M481.83,306.1v83.77H336.61V306.1c0-6.62,5.37-12,12-12h121.22      C476.45,294.1,481.83,299.48,481.83,306.1z"/>
			</g>
			<circle id="XMLID_2691_" style="fill:#159BFF;" cx="80.522" cy="136.068" r="73.022"/>
		</g>
		<g id="XMLID_2447_">
			<rect id="XMLID_2689_" x="348.608" y="306.105" style="fill:#89BF4A;" width="121.219" height="141.239"/>
		</g>
	</g>
	<g id="XMLID_2449_">
		<path id="XMLID_2450_" d="M511.934,138.917c-0.469-3.692-3.713-6.554-7.434-6.554H160.953c-1.6-34.853-25.65-65.007-59.594-74.08    c-3.999-1.067-8.113,1.307-9.182,5.309c-1.07,4.001,1.307,8.112,5.309,9.182c28.59,7.642,48.558,33.669,48.558,63.292    c0,36.128-29.393,65.521-65.522,65.521S15,172.196,15,136.068c0-30.735,21.788-57.682,51.807-64.074    c4.051-0.863,6.636-4.846,5.773-8.897c-0.862-4.051-4.845-6.638-8.897-5.773C26.782,65.18,0,98.297,0,136.068    c0,32.712,19.618,60.909,47.697,73.499v180.306c0,4.142,3.358,7.5,7.5,7.5h198.047c4.142,0,7.5-3.358,7.5-7.5s-3.358-7.5-7.5-7.5    H62.697V214.576c5.738,1.302,11.698,2.013,17.824,2.013c17.391,0,33.498-5.56,46.676-14.97l148.234,108.036    c2.604,1.898,6.231,1.898,8.835,0l123.773-90.209c3.347-2.439,4.083-7.131,1.644-10.479c-2.439-3.347-7.13-4.084-10.479-1.644    l-119.356,86.989L138.817,191.526c11.3-11.872,19.021-27.169,21.418-44.163h321.241l-54.293,39.569    c-3.347,2.439-4.083,7.131-1.644,10.479s7.131,4.084,10.479,1.644L497,154.61v227.763h-19.674v-76.268c0-4.142-3.358-7.5-7.5-7.5    H348.608c-4.142,0-7.5,3.358-7.5,7.5v76.268h-53.686c-4.142,0-7.5,3.358-7.5,7.5s3.358,7.5,7.5,7.5h53.686v49.971    c0,4.142,3.358,7.5,7.5,7.5h121.218c4.142,0,7.5-3.358,7.5-7.5v-49.971H504.5c4.142,0,7.5-3.358,7.5-7.5V139.864    C512,139.542,511.973,139.228,511.934,138.917z M462.326,439.844H356.108V313.605h106.218V439.844z"/>
		<path id="XMLID_2453_" d="M68.574,157.115v-49.594c0-3.034-1.827-5.768-4.63-6.929c-2.801-1.16-6.029-0.52-8.173,1.626l-12.5,12.5    c-2.929,2.929-2.929,7.678,0,10.606c2.83,2.83,7.358,2.927,10.303,0.287v31.503H50.73c-4.142,0-7.5,3.358-7.5,7.5    s3.358,7.5,7.5,7.5h20.75c4.142,0,7.5-3.358,7.5-7.5s-3.358-7.5-7.5-7.5H68.574z"/>
		<path id="XMLID_2454_" d="M94.563,125.611v31.503H91.72c-4.142,0-7.5,3.358-7.5,7.5s3.358,7.5,7.5,7.5h20.75    c4.142,0,7.5-3.358,7.5-7.5s-3.358-7.5-7.5-7.5h-2.906v-49.594c0-3.034-1.827-5.768-4.63-6.929c-2.8-1.16-6.028-0.52-8.173,1.626    l-12.5,12.5c-2.929,2.929-2.929,7.678,0,10.606C87.09,128.154,91.618,128.251,94.563,125.611z"/>
		<path id="XMLID_2455_" d="M386.545,352.063h45.343c4.142,0,7.5-3.358,7.5-7.5s-3.358-7.5-7.5-7.5h-45.343    c-4.142,0-7.5,3.358-7.5,7.5S382.403,352.063,386.545,352.063z"/>
		<path id="XMLID_2456_" d="M386.545,381.182h45.343c4.142,0,7.5-3.358,7.5-7.5s-3.358-7.5-7.5-7.5h-45.343    c-4.142,0-7.5,3.358-7.5,7.5S382.403,381.182,386.545,381.182z"/>
		<path id="XMLID_2457_" d="M386.545,410.303h45.343c4.142,0,7.5-3.358,7.5-7.5s-3.358-7.5-7.5-7.5h-45.343    c-4.142,0-7.5,3.358-7.5,7.5S382.403,410.303,386.545,410.303z"/>
	</g>
</g>















</svg>
