<?xml version="1.0" encoding="iso-8859-1"?>
<!-- Generator: Adobe Illustrator 19.0.0, SVG Export Plug-In . SVG Version: 6.00 Build 0)  -->
<svg xmlns="http://www.w3.org/2000/svg" xmlns:xlink="http://www.w3.org/1999/xlink" version="1.1" id="Layer_1" x="0px" y="0px" viewBox="0 0 512 512" style="enable-background:new 0 0 512 512;" xml:space="preserve" width="512" height="512">
<g id="XMLID_2353_">
	<g id="XMLID_2354_">
		<g id="XMLID_2355_">
			<g id="XMLID_2356_">
				<g id="XMLID_2357_">
					<rect id="XMLID_2360_" x="7.5" y="67.07" style="fill:#C8C8C8;" width="497" height="377.86"/>
					<rect id="XMLID_2363_" x="7.5" y="390" style="fill:#AAAAAA;" width="497" height="54.93"/>
					<rect id="XMLID_2724_" x="7.5" y="402.003" style="fill:#E3E3E3;" width="497" height="42.926"/>
					<rect id="XMLID_2367_" x="7.5" y="67.07" style="fill:#AAAAAA;" width="497" height="83.93"/>
					<rect id="XMLID_2370_" x="7.5" y="67.07" style="fill:#159BFF;" width="497" height="71.93"/>
					<g id="XMLID_2371_">
						<polygon id="XMLID_2372_" style="fill:#FFDA2C;" points="504.5,67.07 504.5,94.56 460.05,139 368.24,139 440.19,67.07               "/>
						<polygon id="XMLID_2373_" style="fill:#89BF4A;" points="489.24,67.07 417.29,139 325.48,139 397.43,67.07       "/>
						<polygon id="XMLID_2374_" style="fill:#FC4747;" points="444.38,67.07 372.42,139 280.62,139 352.57,67.07       "/>
					</g>
					<g id="XMLID_2375_">
						<path id="XMLID_2376_" style="fill:#FC4747;" d="M51.381,110.533h-0.106c-4.142,0-7.5-3.358-7.5-7.5s3.358-7.5,7.5-7.5h0.106        c4.142,0,7.5,3.358,7.5,7.5S55.523,110.533,51.381,110.533z"/>
						<path id="XMLID_2377_" style="fill:#FFDA2C;" d="M79.203,110.533h-0.106c-4.142,0-7.5-3.358-7.5-7.5s3.358-7.5,7.5-7.5h0.106        c4.142,0,7.5,3.358,7.5,7.5S83.345,110.533,79.203,110.533z"/>
						<path id="XMLID_2378_" style="fill:#00D8E0;" d="M107.026,110.533h-0.107c-4.142,0-7.5-3.358-7.5-7.5s3.358-7.5,7.5-7.5h0.107        c4.142,0,7.5,3.358,7.5,7.5S111.168,110.533,107.026,110.533z"/>
					</g>
				</g>
				<g id="XMLID_2379_">
					<rect id="XMLID_2706_" x="90.194" y="207.81" style="fill:#E3E3E3;" width="340.583" height="75.847"/>
				</g>
			</g>
			<g id="XMLID_2380_">
				<rect id="XMLID_2701_" x="202.5" y="317" style="fill:#159BFF;" width="107" height="30"/>
			</g>
		</g>
	</g>
	<g id="XMLID_2382_">
		<path id="XMLID_2384_" d="M7.5,59.571c-4.142,0-7.5,3.358-7.5,7.5v274.173c0,4.142,3.358,7.5,7.5,7.5s7.5-3.358,7.5-7.5v-194.75    h114.247c4.142,0,7.5-3.358,7.5-7.5s-3.358-7.5-7.5-7.5H15V74.571h262.311l-56.94,56.924h-51.69c-4.142,0-7.5,3.358-7.5,7.5    s3.358,7.5,7.5,7.5H497v88.75c0,4.142,3.357,7.5,7.5,7.5s7.5-3.358,7.5-7.5V94.563c0-0.002,0-0.003,0-0.005V67.071    c0-4.142-3.357-7.5-7.5-7.5H7.5z M497,91.453l-40.051,40.042h-21.543l56.94-56.924H497V91.453z M390.536,131.495l56.948-56.924    h23.645l-56.94,56.924H390.536z M298.736,131.495l56.94-56.924h70.592l-56.948,56.924H298.736z M298.528,74.571h35.931    l-56.94,56.924h-35.931L298.528,74.571z M478.164,131.495L497,112.664v18.832H478.164z"/>
		<path id="XMLID_2391_" d="M504.5,261.922c-4.143,0-7.5,3.358-7.5,7.5v125.081H15v-19.081c0-4.142-3.358-7.5-7.5-7.5    s-7.5,3.358-7.5,7.5v69.507c0,4.142,3.358,7.5,7.5,7.5h497c4.143,0,7.5-3.358,7.5-7.5V269.422    C512,265.28,508.643,261.922,504.5,261.922z M15,437.429v-27.926h482v27.926H15z"/>
		<path id="XMLID_2394_" d="M438.276,283.657V207.81c0-4.142-3.357-7.5-7.5-7.5H90.194c-4.142,0-7.5,3.358-7.5,7.5v75.847    c0,4.142,3.358,7.5,7.5,7.5h340.583C434.919,291.157,438.276,287.799,438.276,283.657z M423.276,276.157H97.694V215.31h325.583    V276.157z"/>
		<path id="XMLID_2397_" d="M186.909,260.159c0.631,2.936,2.953,5.211,5.9,5.785c2.945,0.571,5.953-0.668,7.638-3.152l3.848-5.672    l3.847,5.672c1.412,2.082,3.75,3.29,6.206,3.29c0.475,0,0.955-0.045,1.433-0.138c2.947-0.573,5.269-2.849,5.9-5.785l5.414-25.163    c0.872-4.049-1.705-8.039-5.754-8.91c-4.046-0.874-8.038,1.705-8.91,5.754l-1.724,8.012l-0.205-0.303    c-1.396-2.057-3.72-3.29-6.207-3.29s-4.811,1.232-6.207,3.29l-0.206,0.303l-1.724-8.012c-0.872-4.05-4.858-6.628-8.91-5.754    c-4.049,0.871-6.626,4.86-5.754,8.91L186.909,260.159z"/>
		<path id="XMLID_2398_" d="M238.614,260.159c0.631,2.936,2.953,5.211,5.9,5.785c2.945,0.571,5.952-0.668,7.638-3.152L256,257.12    l3.847,5.672c1.413,2.082,3.751,3.29,6.206,3.29c0.475,0,0.955-0.045,1.433-0.138c2.947-0.573,5.269-2.849,5.9-5.785l5.414-25.163    c0.871-4.049-1.705-8.039-5.755-8.91c-4.039-0.872-8.037,1.705-8.909,5.754l-1.724,8.012l-0.205-0.303    c-1.396-2.057-3.721-3.29-6.207-3.29s-4.811,1.232-6.207,3.29l-0.206,0.303l-1.724-8.012c-0.872-4.05-4.859-6.628-8.91-5.754    c-4.049,0.871-6.626,4.86-5.754,8.91L238.614,260.159z"/>
		<path id="XMLID_2399_" d="M290.318,260.159c0.631,2.936,2.953,5.211,5.9,5.785c2.942,0.577,5.952-0.666,7.639-3.151l3.848-5.672    l3.847,5.672c1.413,2.082,3.751,3.29,6.206,3.29c0.475,0,0.955-0.045,1.433-0.138c2.947-0.573,5.269-2.849,5.9-5.785l5.414-25.163    c0.871-4.049-1.705-8.039-5.755-8.91c-4.039-0.872-8.038,1.705-8.909,5.754l-1.724,8.012l-0.205-0.303    c-1.396-2.057-3.721-3.29-6.207-3.29s-4.811,1.232-6.207,3.29l-0.205,0.303l-1.724-8.011c-0.871-4.049-4.861-6.627-8.909-5.755    c-4.05,0.871-6.626,4.86-5.755,8.909L290.318,260.159z"/>
		<path id="XMLID_2400_" d="M202.5,309.5c-4.142,0-7.5,3.358-7.5,7.5v30c0,4.142,3.358,7.5,7.5,7.5h107c4.143,0,7.5-3.358,7.5-7.5    v-30c0-4.142-3.357-7.5-7.5-7.5H202.5z M302,339.5h-92v-15h92V339.5z"/>
	</g>
</g>















</svg>
