<?xml version="1.0" encoding="iso-8859-1"?>
<!-- Generator: Adobe Illustrator 19.0.0, SVG Export Plug-In . SVG Version: 6.00 Build 0)  -->
<svg version="1.1" id="Capa_1" xmlns="http://www.w3.org/2000/svg" xmlns:xlink="http://www.w3.org/1999/xlink" x="0px" y="0px"
	 viewBox="0 0 512 512" style="enable-background:new 0 0 512 512;" xml:space="preserve">
<path style="fill:#FFC66C;" d="M419,10H93c-45.84,0-83,37.16-83,83v234c0,45.84,37.16,83,83,83h109.884L256,502l53.116-92H419
	c45.84,0,83-37.16,83-83V93C502,47.16,464.84,10,419,10z"/>
<g>
	<path style="fill:#4DBAF6;" d="M293.328,309.925v-45.519c29.211-2.658,43.812-23.805,43.812-63.442h-43.821
		c-4.834,0-8.753-3.919-8.753-8.753v-73.533c0-4.834,3.919-8.753,8.753-8.753h82.295c4.834,0,8.753,3.919,8.753,8.753v79.156
		C384.366,269.145,354.023,306.511,293.328,309.925z"/>
	<path style="fill:#4DBAF6;" d="M136.396,309.925v-45.519c29.211-2.658,43.812-23.806,43.812-63.442h-43.821
		c-4.834,0-8.753-3.919-8.753-8.753v-73.533c0-4.834,3.919-8.753,8.753-8.753h82.295c4.834,0,8.753,3.919,8.753,8.753v79.156
		C227.434,269.145,197.091,306.511,136.396,309.925z"/>
</g>
<path d="M369.37,285.646c16.586-20.423,24.996-49.967,24.996-87.811v-79.156c0-10.34-8.412-18.753-18.753-18.753h-82.295
	c-10.341,0-18.753,8.413-18.753,18.753v73.533c0,10.34,8.412,18.753,18.753,18.753h33.462
	c-2.742,36.184-20.633,42.234-34.359,43.483c-5.15,0.469-9.094,4.787-9.094,9.959v45.519c0,2.75,1.132,5.378,3.131,7.267
	c1.861,1.76,4.321,2.733,6.868,2.733c0.188,0,0.375-0.005,0.563-0.016C327.022,318.046,352.418,306.518,369.37,285.646z
	 M303.327,298.944V272.93c21.711-4.992,43.813-22.282,43.813-71.967c0-5.523-4.478-10-10-10h-42.574v-71.039h79.801v77.909
	c0,33.134-6.904,58.436-20.521,75.202C342.181,287.399,325.591,295.925,303.327,298.944z"/>
<path d="M136.957,319.91c33.134-1.864,58.529-13.392,75.481-34.264c16.586-20.423,24.996-49.967,24.996-87.812v-79.156
	c0-10.34-8.412-18.753-18.753-18.753h-82.295c-10.341,0-18.753,8.412-18.753,18.752v73.533c0,10.34,8.412,18.752,18.753,18.752
	h33.462c-2.742,36.184-20.633,42.235-34.359,43.483c-5.15,0.469-9.094,4.787-9.094,9.959v45.52c0,2.75,1.132,5.378,3.131,7.267
	c1.861,1.76,4.321,2.733,6.868,2.733C136.582,319.925,136.77,319.92,136.957,319.91z M146.396,272.931
	c21.711-4.992,43.813-22.282,43.813-71.967c0-5.523-4.478-10-10-10h-42.574v-71.038h79.801v77.909
	c0,33.134-6.904,58.437-20.521,75.203c-11.664,14.362-28.254,22.889-50.518,25.908v-26.015H146.396z"/>
<path d="M419,0H93C41.72,0,0,41.72,0,93v234c0,51.28,41.72,93,93,93h14.667c5.522,0,10-4.477,10-10s-4.478-10-10-10H93
	c-40.252,0-73-32.748-73-73V93c0-40.252,32.748-73,73-73h326c40.252,0,73,32.748,73,73v234c0,8.778-1.559,17.198-4.412,25H375.271
	c-5.522,0-10,4.477-10,10s4.478,10,10,10h101.145c-13.376,17.029-34.133,28-57.417,28H309.116c-3.572,0-6.874,1.906-8.66,5L256,482
	l-44.456-77c-1.786-3.094-5.088-5-8.66-5h-20.551c-5.522,0-10,4.477-10,10s4.478,10,10,10h14.777l50.229,87
	c1.786,3.094,5.088,5,8.66,5c3.572,0,6.874-1.906,8.66-5l50.229-87H419c51.28,0,93-41.72,93-93V93C512,41.72,470.28,0,419,0z"/>
<path d="M146,400c-2.63,0-5.21,1.07-7.07,2.93S136,407.37,136,410s1.069,5.21,2.93,7.07S143.37,420,146,420s5.21-1.07,7.069-2.93
	c1.86-1.86,2.931-4.44,2.931-7.07s-1.07-5.21-2.931-7.07C151.21,401.07,148.63,400,146,400z"/>
<path d="M330.7,354.93c-1.87,1.86-2.931,4.44-2.931,7.07s1.061,5.21,2.931,7.07c1.859,1.86,4.43,2.93,7.069,2.93
	c2.63,0,5.2-1.07,7.07-2.93c1.86-1.86,2.93-4.44,2.93-7.07s-1.069-5.21-2.93-7.07c-1.86-1.86-4.44-2.93-7.07-2.93
	C335.13,352,332.56,353.07,330.7,354.93z"/>
<g>
</g>
<g>
</g>
<g>
</g>
<g>
</g>
<g>
</g>
<g>
</g>
<g>
</g>
<g>
</g>
<g>
</g>
<g>
</g>
<g>
</g>
<g>
</g>
<g>
</g>
<g>
</g>
<g>
</g>
</svg>
