<?xml version="1.0" encoding="iso-8859-1"?>
<!-- Generator: Adobe Illustrator 19.0.0, SVG Export Plug-In . SVG Version: 6.00 Build 0)  -->
<svg version="1.1" id="Capa_1" xmlns="http://www.w3.org/2000/svg" xmlns:xlink="http://www.w3.org/1999/xlink" x="0px" y="0px"
	 viewBox="0 0 511.999 511.999" style="enable-background:new 0 0 511.999 511.999;" xml:space="preserve">
<path style="fill:#6A80FF;" d="M204.672,390.87l69.28-39.999L80.898,16.491c-3.314-5.741-10.655-7.707-16.395-4.393L16.011,40.095
	C10.27,43.409,8.304,50.75,11.618,56.49L204.672,390.87z"/>
<path style="fill:#FFB954;" d="M111.289,69.131L80.898,16.491c-3.314-5.741-10.655-7.708-16.396-4.393L16.011,40.095
	c-5.74,3.314-7.708,10.655-4.393,16.396l30.124,52.178L111.289,69.131z"/>
<polygon style="fill:#5A54E0;" points="258.884,451.488 300.452,427.489 260.095,358.87 218.528,382.87 "/>
<path style="fill:#B3B6C3;" d="M319.632,477.99l-26.107-46.502l-27.712,16l26.107,46.502c4.418,7.653,14.204,10.275,21.855,5.856
	l0,0C321.429,495.428,324.051,485.642,319.632,477.99z"/>
<path d="M184.034,205.125c2.63,0,5.199-1.07,7.069-2.93c1.86-1.86,2.931-4.44,2.931-7.07s-1.07-5.21-2.931-7.07
	c-1.87-1.86-4.439-2.93-7.069-2.93c-2.641,0-5.221,1.07-7.08,2.93c-1.86,1.86-2.92,4.44-2.92,7.07s1.06,5.21,2.92,7.07
	C178.824,204.055,181.395,205.125,184.034,205.125z"/>
<path d="M306.991,435.048c1.513-1.309,2.613-3.049,3.131-5.011c0.68-2.578,0.302-5.321-1.05-7.619l-35.246-59.93l5.126-2.96
	c2.297-1.326,3.973-3.51,4.659-6.072c0.687-2.562,0.327-5.292-0.999-7.588l-72.527-125.62c-2.762-4.782-8.878-6.422-13.66-3.66
	c-4.783,2.761-6.422,8.877-3.66,13.66l67.527,116.961l-51.961,29.999L55.259,112.079L107.22,82.08l49.268,85.334
	c2.763,4.783,8.879,6.423,13.66,3.66c4.783-2.761,6.422-8.877,3.66-13.66L89.558,11.491C83.492,0.986,70.012-2.628,59.503,3.438
	L11.012,31.435c-5.091,2.938-8.731,7.683-10.253,13.36S0.019,56.401,2.957,61.49l24.981,43.269l-9.73,5.618
	c-13.735,7.93-18.458,25.556-10.528,39.292l52.76,91.383c1.853,3.208,5.213,5.001,8.67,5.001c1.696,0,3.416-0.432,4.99-1.341
	c4.783-2.761,6.422-8.877,3.66-13.66l-52.76-91.383c-2.416-4.185-0.978-9.556,3.208-11.973l9.73-5.618l158.073,273.79
	c1.853,3.208,5.213,5.002,8.67,5.001c1.696,0,3.416-0.432,4.99-1.341l5.265-3.04l35.327,60.068c1.862,3.167,5.2,4.932,8.629,4.932
	c1.017,0,2.038-0.176,3.034-0.496l21.273,37.891c0.02,0.035,0.039,0.07,0.06,0.104c3.472,6.015,9.079,10.317,15.787,12.115
	c2.24,0.6,4.513,0.897,6.771,0.897c4.505,0,8.951-1.182,12.958-3.495c12.396-7.157,16.672-23.051,9.55-35.458L306.991,435.048z
	 M20.278,51.49c-0.343-0.593-0.298-1.153-0.2-1.519c0.098-0.366,0.339-0.873,0.934-1.216l48.492-27.997
	c0.956-0.55,2.184-0.223,2.735,0.733L97.22,64.76L45.259,94.76L20.278,51.49z M232.258,386.49l24.247-14l30.217,51.379l-24.247,14
	L232.258,386.49z M308.776,491.186c-1.39,0.802-3.005,1.014-4.554,0.6c-1.532-0.411-2.816-1.389-3.619-2.755l-21.234-37.822
	l10.392-6l21.152,37.676c0.02,0.035,0.039,0.07,0.06,0.104C312.627,485.855,311.642,489.531,308.776,491.186z"/>
<path d="M501.999,409.989H357.667c-5.522,0-10,4.477-10,10s4.478,10,10,10h144.332c5.522,0,10-4.477,10-10
	S507.521,409.989,501.999,409.989z"/>
<path d="M501.999,327.991H317.001c-5.522,0-10,4.477-10,10s4.478,10,10,10h184.998c5.522,0,10-4.477,10-10
	S507.521,327.991,501.999,327.991z"/>
<path d="M501.999,491.987h-111c-5.522,0-10,4.477-10,10c0,5.523,4.478,10,10,10h111c5.522,0,10-4.477,10-10
	C511.999,496.464,507.521,491.987,501.999,491.987z"/>
<path d="M286.742,263.063c1.859-1.86,2.93-4.44,2.93-7.07s-1.07-5.21-2.93-7.07c-1.86-1.86-4.44-2.93-7.07-2.93
	c-2.64,0-5.21,1.07-7.07,2.93c-1.87,1.86-2.93,4.44-2.93,7.07s1.06,5.21,2.93,7.07c1.86,1.86,4.44,2.93,7.07,2.93
	S284.872,264.923,286.742,263.063z"/>
<path d="M501.999,245.994H325.243c-5.522,0-10,4.477-10,10c0,5.523,4.478,10,10,10h176.756c5.522,0,10-4.477,10-10
	C511.999,250.47,507.521,245.994,501.999,245.994z"/>
<path d="M501.999,163.996H235.198c-5.522,0-10,4.477-10,10s4.478,10,10,10h266.801c5.522,0,10-4.477,10-10
	S507.521,163.996,501.999,163.996z"/>
<path d="M501.999,81.998H186.337c-5.522,0-10,4.477-10,10s4.478,10,10,10h315.661c5.522,0,10-4.477,10-10
	S507.521,81.998,501.999,81.998z"/>
<path d="M148.005,20h353.993c5.522,0,10-4.477,10-10s-4.478-10-10-10H148.005c-5.522,0-10,4.477-10,10S142.484,20,148.005,20z"/>
<g>
</g>
<g>
</g>
<g>
</g>
<g>
</g>
<g>
</g>
<g>
</g>
<g>
</g>
<g>
</g>
<g>
</g>
<g>
</g>
<g>
</g>
<g>
</g>
<g>
</g>
<g>
</g>
<g>
</g>
</svg>
