<?xml version="1.0" encoding="iso-8859-1"?>
<!-- Generator: Adobe Illustrator 19.0.0, SVG Export Plug-In . SVG Version: 6.00 Build 0)  -->
<svg version="1.1" id="Capa_1" xmlns="http://www.w3.org/2000/svg" xmlns:xlink="http://www.w3.org/1999/xlink" x="0px" y="0px"
	 viewBox="0 0 512 512" style="enable-background:new 0 0 512 512;" xml:space="preserve">
<path style="fill:#EDF2FA;" d="M448.008,50.024c0-22.088-17.907-39.995-39.995-39.995H49.994c-22.088,0-39.995,17.907-39.995,39.995
	v315.933c0,21.001,17.025,38.026,38.026,38.026h361.958c21.001,0,38.026-17.025,38.026-38.026V50.024z"/>
<path style="fill:#4DBAF6;" d="M408.012,10.028H49.994c-22.089,0-39.995,17.907-39.995,39.995v48.064h438.009V50.024
	C448.008,27.934,430.101,10.028,408.012,10.028z"/>
<path style="fill:#FF5D5D;" d="M452.34,137.996H275.694c-27.427,0-49.661,22.234-49.661,49.661v83.691
	c0,27.427,22.234,49.661,49.661,49.661h22.497v39.233l39.233-39.233H452.34c27.427,0,49.661-22.234,49.661-49.661v-83.691
	C502.001,160.23,479.767,137.996,452.34,137.996z"/>
<g>
	<circle style="fill:#FFFFFF;" cx="284.027" cy="229.123" r="19.998"/>
	<circle style="fill:#FFFFFF;" cx="364.017" cy="229.123" r="19.998"/>
	<circle style="fill:#FFFFFF;" cx="444.008" cy="229.123" r="19.998"/>
</g>
<path style="fill:#FFEFD5;" d="M174.309,310.619v56.49c-0.673,8.805-4.967,16.645-11.469,20.939l-33.809,19.328
	c-6.789,4.483-15.043,4.483-21.832,0l-33.707-19.328c-6.502-4.293-10.896-12.134-11.57-20.939v-56.49H174.309z"/>
<path style="fill:#898998;" d="M184.613,302.947c0,11.652-4.266,17.607-17.251,17.607H87.952c-20.075,0-36.349-16.274-36.349-36.349
	v-32.433c0-3.066,3.483-4.785,5.95-2.967c3.77,2.779,9.103,5.566,15.327,5.566h84.709c14.672,0,26.607,11.689,27.021,26.261
	l0.02-0.09L184.613,302.947z"/>
<path style="fill:#62CD4D;" d="M140.932,406.511v9.359c0,8.175,5.773,15.213,13.791,16.811l37.573,7.486
	c16.505,3.289,28.971,16.9,30.798,33.63l3.079,28.175H10.059l3.071-28.167c1.824-16.733,14.291-30.349,30.799-33.639l37.565-7.484
	c8.018-1.598,13.791-8.635,13.791-16.811v-9.359h45.648V406.511z"/>
<path style="fill:#FFEFD5;" d="M83.393,433.936c19.177,19.177,50.269,19.177,69.446,0l1.425-1.368
	c-7.775-1.773-13.331-8.681-13.331-16.698v-9.359H95.285v9.359c0,8.175-5.773,15.213-13.791,16.811l-1.11,0.221L83.393,433.936z"/>
<path d="M54.522,45.351c-5.521,0-9.999,4.477-9.999,9.999s4.477,9.999,9.999,9.999h0.1c5.521,0,9.949-4.477,9.949-9.999
	S60.044,45.351,54.522,45.351z"/>
<path d="M102.467,45.351c-5.521,0-9.999,4.477-9.999,9.999s4.477,9.999,9.999,9.999h0.099c5.521,0,9.95-4.477,9.95-9.999
	S107.989,45.351,102.467,45.351z"/>
<path d="M150.412,45.351c-5.521,0-9.999,4.477-9.999,9.999s4.477,9.999,9.999,9.999h0.099c5.521,0,9.949-4.477,9.949-9.999
	S155.934,45.351,150.412,45.351z"/>
<path d="M395.663,45.351H274.322c-5.521,0-9.999,4.477-9.999,9.999s4.477,9.999,9.999,9.999h121.341
	c5.521,0,9.999-4.477,9.999-9.999S401.184,45.351,395.663,45.351z"/>
<path d="M219.774,396.912c-1.86,1.86-2.931,4.439-2.931,7.069s1.07,5.209,2.931,7.068c1.859,1.86,4.438,2.931,7.068,2.931
	s5.209-1.07,7.069-2.931c1.86-1.859,2.93-4.438,2.93-7.068s-1.069-5.209-2.93-7.069c-1.861-1.86-4.439-2.93-7.069-2.93
	S221.633,395.052,219.774,396.912z"/>
<path d="M458.006,128.273v-78.25c0-27.567-22.427-49.994-49.994-49.994H49.994C22.427,0.029,0,22.457,0,50.024v315.933
	c0,26.481,21.543,48.024,48.023,48.024h37.526v1.623c0,3.421-2.435,6.388-5.789,7.056l-37.682,7.508
	c-20.941,4.174-36.566,21.238-38.88,42.466l-3.081,28.254c-0.308,2.824,0.601,5.645,2.497,7.76s4.603,3.323,7.443,3.323H226.84
	c2.841,0,5.548-1.209,7.444-3.324c1.896-2.115,2.804-4.937,2.495-7.761l-3.089-28.263c-2.319-21.223-17.943-38.282-38.878-42.454
	l-37.689-7.509c-3.355-0.668-5.789-3.636-5.789-7.056v-9.389c0-0.051-0.007-0.1-0.008-0.151l16.947-9.688
	c0.187-0.106,0.369-0.219,0.548-0.337c9.087-6.001,15.054-16.687,15.963-28.586c0.02-0.254,0.029-0.508,0.029-0.762v-41.006
	c5.975-3.892,10.337-10.968,10.337-23.354l0.016-22.468c0-0.372-0.02-0.739-0.06-1.101c-1.024-19.787-17.135-35.157-37.063-35.157
	h-84.97c-3.73,0-7.192-1.976-9.44-3.633c-4.211-3.104-9.718-3.57-14.377-1.216c-4.641,2.345-7.524,7.034-7.524,12.239v32.534
	c0,11.051,3.885,21.208,10.353,29.193v53.969c0,0.254,0.01,0.508,0.029,0.762c0.811,10.615,5.719,20.282,13.306,26.529H48.023
	c-15.453,0.002-28.026-12.57-28.026-28.025V156.081h111.664c5.521,0,9.999-4.477,9.999-9.999s-4.477-9.999-9.999-9.999H19.998
	v-27.997h418.011v19.911H275.695c-32.896,0-59.66,26.763-59.66,59.659v83.691c0,32.896,26.764,59.659,59.66,59.659h12.499v29.235
	c0,4.045,2.437,7.69,6.172,9.238c1.237,0.512,2.537,0.761,3.825,0.761c2.603,0,5.159-1.016,7.072-2.929l36.305-36.306h96.442v34.951
	c0,15.454-12.573,28.027-28.027,28.027H267.529c-5.521,0-9.999,4.477-9.999,9.999s4.477,9.999,9.999,9.999h142.453
	c26.481,0,48.024-21.543,48.024-48.024v-35.226C488.254,327.866,512,302.333,512,271.348v-83.691
	C512,156.672,488.254,131.138,458.006,128.273z M131.419,417.405c0.393,5.894,2.684,11.35,6.329,15.684
	c-5.823,3.299-12.423,5.064-19.298,5.064c-6.878,0-13.481-1.768-19.308-5.07c3.645-4.334,5.933-9.791,6.325-15.685
	c4.136,2.027,8.557,3.057,12.981,3.057C122.87,420.455,127.285,419.427,131.419,417.405z M213.814,474.794l1.877,17.178H21.207
	l1.873-17.171c1.363-12.508,10.569-22.562,22.907-25.02l33.107-6.596c10.857,9.672,24.697,14.967,39.355,14.967
	c14.658,0,28.497-5.295,39.352-14.965l33.104,6.595C203.242,452.238,212.447,462.29,213.814,474.794z M158.028,379.2l-33.592,19.203
	c-0.187,0.106-0.369,0.219-0.548,0.337c-3.458,2.283-7.423,2.282-10.879,0c-0.175-0.115-0.354-0.226-0.536-0.33l-33.498-19.208
	c-3.776-2.613-6.39-7.516-6.894-12.928v-39.165c5.021,1.863,10.449,2.884,16.11,2.884h76.625v36.283
	C164.313,371.724,161.739,376.624,158.028,379.2z M61.73,261.512c3.737,1.381,7.557,2.092,11.345,2.092h84.97
	c9.329,0,16.845,7.303,17.109,16.627c0.003,0.111,0.009,0.223,0.016,0.334l-0.016,21.76c0,0.002,0,0.005,0,0.007
	c0,5.062-1.034,6.341-1.152,6.471c-0.404,0.442-2.155,1.191-6.153,1.191H88.193c-14.592,0-26.463-11.871-26.463-26.463
	C61.73,283.531,61.73,261.512,61.73,261.512z M19.998,88.089V50.024c0-16.54,13.456-29.996,29.996-29.996h358.018
	c16.54,0,29.996,13.456,29.996,29.996v38.066H19.998z M492.002,271.348c0,21.869-17.793,39.661-39.662,39.661H337.424
	c-2.652,0-5.194,1.054-7.07,2.929l-22.163,22.164v-15.094c0-5.521-4.477-9.999-9.999-9.999h-22.497
	c-21.869,0-39.662-17.792-39.662-39.661v-83.691c0-21.869,17.793-39.661,39.662-39.661H452.34c21.869,0,39.662,17.792,39.662,39.661
	V271.348z"/>
<path d="M284.027,199.125c-16.54,0-29.996,13.456-29.996,29.996s13.456,29.996,29.996,29.996c16.54,0,29.996-13.456,29.996-29.996
	S300.567,199.125,284.027,199.125z M284.027,239.12c-5.513,0-9.999-4.485-9.999-9.999c0-5.513,4.485-9.999,9.999-9.999
	s9.999,4.485,9.999,9.999C294.026,234.635,289.539,239.12,284.027,239.12z"/>
<path d="M364.017,199.125c-16.54,0-29.996,13.456-29.996,29.996s13.456,29.996,29.996,29.996c16.54,0,29.996-13.456,29.996-29.996
	S380.557,199.125,364.017,199.125z M364.017,239.12c-5.513,0-9.999-4.485-9.999-9.999c0-5.513,4.485-9.999,9.999-9.999
	s9.999,4.485,9.999,9.999C374.016,234.635,369.53,239.12,364.017,239.12z"/>
<path d="M444.008,199.125c-16.54,0-29.996,13.456-29.996,29.996s13.456,29.996,29.996,29.996c16.54,0,29.996-13.456,29.996-29.996
	S460.548,199.125,444.008,199.125z M444.008,239.12c-5.513,0-9.999-4.485-9.999-9.999c0-5.513,4.485-9.999,9.999-9.999
	s9.999,4.485,9.999,9.999C454.007,234.635,449.52,239.12,444.008,239.12z"/>
<path d="M162.09,139.013c-1.86,1.859-2.93,4.429-2.93,7.068c0,2.631,1.069,5.21,2.93,7.069c1.86,1.86,4.439,2.93,7.069,2.93
	c2.64,0,5.209-1.069,7.068-2.93c1.87-1.859,2.931-4.438,2.931-7.069c0-2.63-1.061-5.209-2.931-7.068
	c-1.859-1.86-4.438-2.931-7.068-2.931S163.951,137.152,162.09,139.013z"/>
<g>
</g>
<g>
</g>
<g>
</g>
<g>
</g>
<g>
</g>
<g>
</g>
<g>
</g>
<g>
</g>
<g>
</g>
<g>
</g>
<g>
</g>
<g>
</g>
<g>
</g>
<g>
</g>
<g>
</g>
</svg>
