<?xml version="1.0" encoding="iso-8859-1"?>
<!-- Generator: Adobe Illustrator 19.0.0, SVG Export Plug-In . SVG Version: 6.00 Build 0)  -->
<svg version="1.1" id="Capa_1" xmlns="http://www.w3.org/2000/svg" xmlns:xlink="http://www.w3.org/1999/xlink" x="0px" y="0px"
	 viewBox="0 0 512 512" style="enable-background:new 0 0 512 512;" xml:space="preserve">
<path style="fill:#EDF2FA;" d="M502.002,76.042v359.916c0,22.086-17.905,39.991-39.991,39.991H49.988
	c-22.086,0-39.991-17.905-39.991-39.991V76.042c0-22.086,17.905-39.991,39.991-39.991h412.023
	C484.098,36.052,502.002,53.956,502.002,76.042z"/>
<path style="fill:#62CD4D;" d="M462.012,36.052H49.988c-22.087,0-39.991,17.905-39.991,39.991v48.059h492.005V76.042
	C502.002,53.956,484.098,36.052,462.012,36.052z"/>
<rect x="196.014" y="164.092" style="fill:#FEA02C;" width="119.972" height="171.54"/>
<rect x="232.925" y="164.092" style="fill:#FFB954;" width="46.139" height="171.54"/>
<rect x="279.075" y="164.092" style="fill:#FFC66C;" width="36.914" height="171.54"/>
<polygon style="fill:#B3B6C3;" points="196.014,335.632 256,436.029 315.986,335.632 "/>
<polygon style="fill:#686C83;" points="288.518,381.604 223.482,381.604 256,436.029 "/>
<path d="M54.516,91.366h0.099c5.522,0,9.949-4.476,9.949-9.998c0-5.522-4.525-9.998-10.047-9.998s-9.998,4.476-9.998,9.998
	C44.52,86.89,48.995,91.366,54.516,91.366z"/>
<path d="M102.456,91.366h0.099c5.522,0,9.949-4.476,9.949-9.998c0-5.522-4.525-9.998-10.047-9.998c-5.522,0-9.998,4.476-9.998,9.998
	C92.459,86.89,96.934,91.366,102.456,91.366z"/>
<path d="M150.396,91.366h0.099c5.522,0,9.949-4.476,9.949-9.998c0-5.522-4.525-9.998-10.047-9.998s-9.998,4.476-9.998,9.998
	C140.399,86.89,144.874,91.366,150.396,91.366z"/>
<path d="M274.29,91.366h175.375c5.522,0,9.998-4.476,9.998-9.998c0-5.522-4.476-9.998-9.998-9.998H274.29
	c-5.522,0-9.998,4.476-9.998,9.998C264.292,86.89,268.768,91.366,274.29,91.366z"/>
<path d="M462.012,26.054H49.988C22.425,26.054,0,48.479,0,76.042v359.916c0,27.564,22.425,49.988,49.988,49.988h412.023
	c27.564,0,49.988-22.425,49.988-49.988V76.042C512,48.479,489.575,26.054,462.012,26.054z M49.988,46.049h412.023
	c16.538,0,29.993,13.455,29.993,29.993v38.061H19.995V76.042C19.995,59.504,33.45,46.049,49.988,46.049z M462.012,465.951H49.988
	c-16.538,0-29.993-13.455-29.993-29.993V134.099h472.009v301.859C492.005,452.496,478.55,465.951,462.012,465.951z"/>
<path d="M279.075,213.313c2.629,0,5.209-1.07,7.068-2.929c1.86-1.86,2.929-4.439,2.929-7.068c0-2.629-1.07-5.209-2.929-7.068
	c-1.86-1.86-4.439-2.929-7.068-2.929c-2.639,0-5.209,1.07-7.068,2.929c-1.86,1.86-2.929,4.439-2.929,7.068
	c0,2.639,1.07,5.209,2.929,7.068C273.866,212.243,276.435,213.313,279.075,213.313z"/>
<path d="M324.485,426.03H273.62l50.948-85.27c0.926-1.55,1.416-3.322,1.416-5.128v-171.54c0-5.522-4.476-9.998-9.998-9.998h-83.048
	c-0.003,0-0.007,0-0.01,0s-0.006,0-0.01,0h-36.904c-5.522,0-9.998,4.476-9.998,9.998v171.541c0,1.806,0.489,3.578,1.416,5.128
	l50.948,85.27h-91.356c-5.522,0-9.998,4.476-9.998,9.998c0,5.522,4.476,9.998,9.998,9.998h177.46c5.522,0,9.998-4.476,9.998-9.998
	C334.483,430.507,330.007,426.03,324.485,426.03z M298.366,345.63l-15.52,25.976h-53.691l-15.52-25.976H298.366z M270.899,391.601
	L256,416.536l-14.899-24.935H270.899z M305.988,325.635h-16.919v-84.82c0-5.522-4.476-9.998-9.998-9.998
	c-5.522,0-9.998,4.476-9.998,9.998v84.82h-26.148V174.09h63.062V325.635z M222.931,174.09v151.545h-16.919V174.09H222.931z"/>
<path d="M364.974,426.033c-2.629,0-5.209,1.06-7.068,2.929c-1.86,1.86-2.929,4.429-2.929,7.068c0,2.629,1.07,5.209,2.929,7.068
	c1.86,1.86,4.439,2.929,7.068,2.929s5.209-1.07,7.068-2.929c1.86-1.86,2.929-4.439,2.929-7.068c0-2.639-1.07-5.219-2.929-7.068
	C370.183,427.093,367.604,426.033,364.974,426.033z"/>
<g>
</g>
<g>
</g>
<g>
</g>
<g>
</g>
<g>
</g>
<g>
</g>
<g>
</g>
<g>
</g>
<g>
</g>
<g>
</g>
<g>
</g>
<g>
</g>
<g>
</g>
<g>
</g>
<g>
</g>
</svg>
