<?xml version="1.0" encoding="iso-8859-1"?>
<!-- Generator: Adobe Illustrator 19.0.0, SVG Export Plug-In . SVG Version: 6.00 Build 0)  -->
<svg version="1.1" id="Capa_1" xmlns="http://www.w3.org/2000/svg" xmlns:xlink="http://www.w3.org/1999/xlink" x="0px" y="0px"
	 viewBox="0 0 512.001 512.001" style="enable-background:new 0 0 512.001 512.001;" xml:space="preserve">
<path style="fill:#ADE5FF;" d="M255.868,10.008H50.013c-22.09,0-39.999,17.909-39.999,39.999v76.108
	c0,22.09,17.909,39.999,39.999,39.999H180.04l-0.044,48.988l48.988-48.988h26.884c22.09,0,39.999-17.909,39.999-39.999V50.007
	C295.867,27.915,277.958,10.008,255.868,10.008z"/>
<path style="fill:#FFC66C;" d="M462.003,10.008H256.148c-0.047,0-0.093,0.003-0.14,0.003l0,0
	c22.025,0.076,39.859,17.952,39.859,39.996v76.108c0,21.141-16.405,38.44-37.177,39.889h189.343l-0.029,52.739l45.953-68.679
	c5.049-6.696,8.046-15.027,8.046-24.058V50.007C502.002,27.915,484.094,10.008,462.003,10.008z"/>
<path style="fill:#FFEFD5;" d="M442.933,284.064v64.337c-0.767,10.029-5.657,18.958-13.062,23.847l-38.505,22.012
	c-7.732,5.106-17.133,5.106-24.864,0l-38.389-22.012c-7.405-4.89-12.41-13.819-13.177-23.847v-64.337H442.933z"/>
<path style="fill:#898998;" d="M454.67,275.326c0,13.27-4.859,20.053-19.648,20.053h-90.441c-22.863,0-41.398-18.535-41.398-41.398
	v-36.939c0-3.491,3.967-5.45,6.777-3.378c4.294,3.165,10.367,6.339,17.456,6.339h96.475c16.711,0,30.303,13.313,30.774,29.909
	l0.022-0.102L454.67,275.326z"/>
<path style="fill:#6A80FF;" d="M404.921,393.275v10.659c0,9.311,6.576,17.327,15.708,19.146l42.791,8.526
	c18.798,3.745,32.994,19.247,35.076,38.301l3.506,32.088H255.868l3.497-32.079c2.078-19.058,16.277-34.565,35.077-38.312
	l42.783-8.524c9.132-1.819,15.708-9.835,15.708-19.146v-10.659H404.921z"/>
<path style="fill:#FFEFD5;" d="M339.389,424.509c21.84,21.84,57.252,21.84,79.092,0l1.623-1.558
	c-8.855-2.019-15.184-9.888-15.184-19.018v-10.659h-51.988v10.659c0,9.311-6.576,17.327-15.708,19.146l-1.264,0.252L339.389,424.509
	z"/>
<path style="fill:#FFB954;" d="M33.07,437.083V304.284c0-55.227,44.77-99.997,99.997-99.997l0,0
	c55.227,0,99.997,44.77,99.997,99.997v132.799"/>
<path style="fill:#FF5D5D;" d="M159.054,393.275v10.659c0,9.311,6.576,17.327,15.708,19.146l42.791,8.526
	c18.798,3.745,32.994,19.247,35.076,38.301l3.506,32.088H10.001l3.497-32.079c2.078-19.058,16.277-34.565,35.077-38.312
	l42.783-8.524c9.132-1.819,15.708-9.835,15.708-19.146v-10.659H159.054z"/>
<g>
	<path style="fill:#FFEFD5;" d="M93.522,424.509c21.84,21.84,57.252,21.84,79.092,0l1.623-1.558
		c-8.855-2.019-15.184-9.888-15.184-19.018v-10.659h-51.988v10.659c0,9.311-6.576,17.327-15.708,19.146l-1.264,0.252L93.522,424.509
		z"/>
	<path style="fill:#FFEFD5;" d="M69.07,304.5v43.901c0.767,10.029,5.657,18.958,13.062,23.847l38.505,22.012
		c7.732,5.106,17.133,5.106,24.864,0l38.389-22.012c7.405-4.89,12.41-13.819,13.177-23.847V304.5l-44.723-24.967l0,0
		c-15.558,15.964-36.904,24.967-59.194,24.967H69.07z"/>
</g>
<path d="M502.119,155.846c6.467-8.68,9.883-18.992,9.883-29.842V50.006c0-27.569-22.429-49.999-49.999-49.999H50.013
	c-27.569,0-49.999,22.429-49.999,49.999v76.108c0,27.569,22.429,49.999,49.999,49.999h120.018l-0.023,24.562
	c-11.552-4.131-23.986-6.389-36.941-6.389c-60.652,0-109.997,49.345-109.997,109.997v128.574
	C12.348,441.58,5.151,454.321,3.566,468.82l-3.507,32.088c-0.309,2.824,0.599,5.646,2.495,7.762s4.604,3.324,7.445,3.324h492.002
	c2.841,0,5.549-1.209,7.445-3.324c1.896-2.115,2.804-4.938,2.495-7.762l-3.506-32.088c-2.568-23.505-19.874-42.402-43.063-47.022
	l-42.791-8.526c-4.439-0.884-7.662-4.812-7.662-9.339v-10.659c0-0.315-0.019-0.626-0.047-0.934l19.961-11.412
	c0.187-0.106,0.369-0.219,0.548-0.337c9.971-6.584,16.521-18.334,17.521-31.43c0.02-0.253,0.029-0.508,0.029-0.762v-47.375
	c6.749-4.154,11.734-11.889,11.736-25.692l0.018-25.518c0-0.388-0.021-0.771-0.064-1.147c-0.457-8.949-3.727-17.074-8.937-23.542
	c0.219-0.264,0.435-0.533,0.629-0.823L502.119,155.846z M50.013,156.114c-15.907,0-28.954-12.446-29.934-28.109h85.844
	c5.522,0,10-4.478,10-10c0-5.522-4.478-10-10-10H20.014V50.007c0-16.542,13.458-29.999,29.999-29.999h205.854
	c16.542,0,29.999,13.458,29.999,29.999v76.108c0,16.542-13.458,29.999-29.999,29.999h-26.884c-2.652,0-5.195,1.054-7.071,2.929
	l-31.895,31.895l0.022-24.815c0.002-2.653-1.05-5.199-2.926-7.076c-1.876-1.878-4.421-2.933-7.074-2.933H50.013z M233.126,176.114
	h22.741c27.569,0,49.999-22.429,49.999-49.999V50.007c0-11.247-3.735-21.635-10.026-29.998l166.163-0.001
	c16.542,0,29.999,13.458,29.999,29.999v75.998c0,6.569-2.085,12.808-6.03,18.038c-0.113,0.15-0.223,0.304-0.327,0.461
	l-27.623,41.285l0.011-19.779c0.002-2.653-1.052-5.198-2.927-7.075c-1.876-1.876-4.42-2.931-7.073-2.931h-77.027
	c-5.522,0-10,4.478-10,10c0,5.522,4.478,10,10,10h67.021l-0.02,36.478c-4.394-1.6-9.146-2.479-14.117-2.479h-96.476
	c-4.603,0-8.807-2.387-11.521-4.388c-4.365-3.218-10.078-3.702-14.912-1.262c-4.811,2.431-7.8,7.292-7.8,12.688v36.938
	c0,12.401,4.414,23.789,11.754,32.677v61.743c0,0.254,0.01,0.509,0.029,0.762c0.997,13.048,7.591,24.796,17.638,31.43
	c0.175,0.116,0.354,0.226,0.535,0.33l19.845,11.379c-0.031,0.321-0.049,0.645-0.049,0.973v10.659c0,4.527-3.223,8.455-7.662,9.339
	l-42.783,8.524c-15.862,3.161-28.965,13.001-36.487,26.423c-3.311-5.907-7.704-11.116-12.937-15.371V304.284
	c0-37.493-18.86-70.658-47.586-90.524L233.126,176.114z M313.182,253.98v-26.992c4.671,1.987,9.479,3.015,14.233,3.015h96.476
	c11.33,0,20.456,8.87,20.777,20.192c0.004,0.128,0.01,0.254,0.018,0.38l-0.017,24.745c0,0.002,0,0.005,0,0.007
	c0,5.811-1.162,7.711-1.662,8.259c-1.041,1.14-3.951,1.793-7.985,1.793h-90.441C327.268,285.379,313.182,271.293,313.182,253.98z
	 M362.933,403.934v-0.153c5.026,2.862,10.511,4.306,16.002,4.306c5.483-0.001,10.965-1.442,15.986-4.297v0.144
	c0,7.707,3.017,14.849,8.012,20.179c-14.674,8.994-33.334,8.992-48.005-0.006C359.918,418.777,362.933,411.638,362.933,403.934z
	 M43.07,304.284c0-49.625,40.373-89.998,89.998-89.998s89.998,40.373,89.998,89.998v118.354c-1.169-0.315-2.35-0.602-3.552-0.841
	l-42.783-8.524c-4.439-0.884-7.661-4.812-7.661-9.339v-10.659c0-0.329-0.018-0.653-0.049-0.974l19.843-11.378
	c0.182-0.104,0.36-0.214,0.535-0.33c10.047-6.634,16.641-18.383,17.638-31.43c0.02-0.253,0.029-0.508,0.029-0.762v-43.901
	c0-3.624-1.961-6.965-5.126-8.731l-44.723-24.967c-3.947-2.205-8.881-1.485-12.035,1.752
	c-13.594,13.948-32.559,21.946-52.034,21.946H69.07c-5.522,0-10,4.478-10,10v43.901c0,0.254,0.01,0.509,0.029,0.762
	c1.001,13.098,7.552,24.846,17.523,31.43c0.179,0.118,0.361,0.23,0.547,0.337l19.96,11.411c-0.029,0.308-0.047,0.619-0.047,0.935
	v10.659c0,4.527-3.223,8.455-7.662,9.339l-42.791,8.526c-1.204,0.24-2.388,0.527-3.56,0.843V304.284H43.07z M140.527,385.586
	c-0.182,0.104-0.36,0.215-0.536,0.33c-4.4,2.906-9.445,2.906-13.844,0c-0.179-0.118-0.361-0.23-0.548-0.337L87.41,363.748
	c-4.574-3.148-7.742-9.134-8.341-15.76V314.5h14.08c22.243,0,43.965-8.182,60.71-22.668l33.207,18.539v37.617
	c-0.598,6.583-3.81,12.571-8.459,15.763L140.527,385.586z M117.082,403.934v-0.145c5.021,2.857,10.501,4.298,15.987,4.298
	c5.489-0.001,10.977-1.445,16.002-4.307v0.153c0,7.704,3.014,14.843,8.005,20.173c-14.671,8.998-33.332,9-48.005,0.006
	C114.065,418.783,117.082,411.641,117.082,403.934z M21.153,491.996l2.295-21.002c1.616-14.786,12.503-26.673,27.09-29.579
	l38.242-7.62c12.527,11.375,28.406,17.065,44.289,17.065c15.884,0,31.764-5.691,44.291-17.068l38.247,7.621
	c14.592,2.907,25.478,14.798,27.091,29.588l2.289,20.995L21.153,491.996L21.153,491.996z M488.556,470.993l2.294,21.002H267.017
	l2.29-20.995c1.611-14.791,12.499-26.681,27.09-29.588l38.247-7.621c12.529,11.377,28.406,17.068,44.291,17.068
	c15.88,0,31.763-5.692,44.29-17.065l38.241,7.62C476.053,444.32,486.94,456.208,488.556,470.993z M424.594,363.748l-38.189,21.831
	c-0.187,0.106-0.369,0.219-0.548,0.337c-4.4,2.906-9.445,2.906-13.844,0c-0.175-0.115-0.354-0.226-0.536-0.33l-38.083-21.836
	c-4.648-3.192-7.86-9.18-8.458-15.763v-46.52c6.056,2.515,12.69,3.91,19.645,3.91h88.352v42.61
	C432.334,354.614,429.167,360.599,424.594,363.748z"/>
<path d="M326.006,176.004c2.63,0,5.21-1.07,7.069-2.931c1.86-1.859,2.931-4.439,2.931-7.069c0-2.63-1.07-5.21-2.931-7.07
	c-1.859-1.86-4.439-2.93-7.069-2.93s-5.21,1.069-7.07,2.93c-1.86,1.861-2.93,4.44-2.93,7.07c0,2.63,1.069,5.21,2.93,7.069
	C320.796,174.933,323.376,176.004,326.006,176.004z"/>
<path d="M143.431,108.005c-2.641,0-5.21,1.069-7.07,2.93c-1.87,1.86-2.93,4.44-2.93,7.07c0,2.63,1.06,5.21,2.93,7.069
	c1.86,1.86,4.43,2.931,7.07,2.931c2.63,0,5.21-1.07,7.07-2.931c1.859-1.859,2.93-4.439,2.93-7.069c0-2.63-1.07-5.21-2.93-7.07
	C148.641,109.074,146.061,108.005,143.431,108.005z"/>
<g>
</g>
<g>
</g>
<g>
</g>
<g>
</g>
<g>
</g>
<g>
</g>
<g>
</g>
<g>
</g>
<g>
</g>
<g>
</g>
<g>
</g>
<g>
</g>
<g>
</g>
<g>
</g>
<g>
</g>
</svg>
