<?xml version="1.0" encoding="iso-8859-1"?>
<!-- Generator: Adobe Illustrator 19.0.0, SVG Export Plug-In . SVG Version: 6.00 Build 0)  -->
<svg version="1.1" id="Capa_1" xmlns="http://www.w3.org/2000/svg" xmlns:xlink="http://www.w3.org/1999/xlink" x="0px" y="0px"
	 viewBox="0 0 512 512" style="enable-background:new 0 0 512 512;" xml:space="preserve">
<path style="fill:#62CD4D;" d="M216.333,120H59.667C32.237,120,10,142.237,10,169.667v148.667C10,345.763,32.237,368,59.667,368H64
	v80l80-80h72.333c27.43,0,49.667-22.237,49.667-49.667V169.667C266,142.237,243.763,120,216.333,120z"/>
<path style="fill:#EDF2FA;" d="M340.831,10h-203c-27.246,0-49.333,22.087-49.333,49.333v147.333
	c0,27.246,22.087,49.333,49.333,49.333h2.667v57.488L197.986,256h142.845c27.246,0,49.333-22.087,49.333-49.333V59.333
	C390.164,32.087,368.077,10,340.831,10z"/>
<path style="fill:#4DBAF6;" d="M452.667,216H271.333C244.087,216,222,238.087,222,265.333v133.333
	C222,425.913,244.087,448,271.333,448H394l54,54v-54h4.667C479.913,448,502,425.913,502,398.667V265.333
	C502,238.087,479.913,216,452.667,216z"/>
<path d="M390.16,168c-2.631,0-5.21,1.069-7.07,2.93s-2.93,4.44-2.93,7.07s1.069,5.21,2.93,7.069c1.87,1.86,4.439,2.931,7.07,2.931
	c2.64,0,5.21-1.07,7.069-2.931c1.87-1.859,2.931-4.439,2.931-7.069s-1.061-5.21-2.931-7.07C395.37,169.069,392.8,168,390.16,168z"/>
<path d="M452.667,206H271.333c-25.948,0-48.044,16.75-56.082,40h-0.001h-17.264c-2.652,0-5.195,1.054-7.071,2.929l-40.417,40.417
	V256c0-5.522-4.478-10-10-10h-2.667c-21.688,0-39.333-17.645-39.333-39.333V59.333C98.498,37.645,116.143,20,137.831,20h203
	c21.688,0,39.333,17.645,39.333,39.333V140.5c0,5.522,4.478,10,10,10s10-4.478,10-10V59.333C400.164,26.617,373.548,0,340.831,0
	h-203c-32.717,0-59.333,26.617-59.333,59.333V110H59.667C26.767,110,0,136.767,0,169.667v148.666c0,30.988,23.748,56.536,54,59.4
	V448c0,4.045,2.437,7.691,6.173,9.239C61.41,457.751,62.71,458,63.998,458c2.603,0,5.16-1.016,7.073-2.929L148.143,378h26.19
	c5.522,0,10-4.478,10-10s-4.478-10-10-10H144c-2.652,0-5.195,1.054-7.071,2.929L74,423.857V368c0-5.522-4.478-10-10-10h-4.333
	C37.795,358,20,340.205,20,318.333V169.667C20,147.795,37.795,130,59.667,130h18.831v76.667c0,30.234,22.73,55.259,52,58.882v47.939
	c0,4.045,2.437,7.691,6.173,9.239c1.237,0.512,2.537,0.761,3.825,0.761c2.603,0,5.16-1.016,7.073-2.929l54.56-54.56H212v132.667
	C212,431.384,238.616,458,271.333,458h118.524l51.071,51.071c1.913,1.913,4.471,2.929,7.073,2.929c1.288,0,2.588-0.249,3.825-0.761
	c3.736-1.548,6.173-5.194,6.173-9.239v-44.237c30.228-2.705,54-28.177,54-59.096V265.333C512,232.616,485.384,206,452.667,206z
	 M492,398.667C492,420.355,474.355,438,452.667,438H448c-5.522,0-10,4.478-10,10v29.857l-36.929-36.929
	C399.195,439.054,396.652,438,394,438H271.333C249.645,438,232,420.355,232,398.667V265.333C232,243.645,249.645,226,271.333,226
	h181.334C474.355,226,492,243.645,492,265.333V398.667z"/>
<path d="M270,311.506c-5.522,0-10,4.478-10,10v67.328c0,5.522,4.478,10,10,10s10-4.478,10-10v-67.328
	C280,315.983,275.522,311.506,270,311.506z"/>
<path d="M270,274c-2.63,0-5.21,1.069-7.07,2.93S260,281.37,260,284s1.069,5.21,2.93,7.069c1.86,1.86,4.44,2.931,7.07,2.931
	s5.21-1.07,7.069-2.931C278.93,289.21,280,286.63,280,284s-1.07-5.21-2.931-7.07C275.21,275.069,272.63,274,270,274z"/>
<g>
</g>
<g>
</g>
<g>
</g>
<g>
</g>
<g>
</g>
<g>
</g>
<g>
</g>
<g>
</g>
<g>
</g>
<g>
</g>
<g>
</g>
<g>
</g>
<g>
</g>
<g>
</g>
<g>
</g>
</svg>
