<?xml version="1.0" encoding="iso-8859-1"?>
<!-- Generator: Adobe Illustrator 19.0.0, SVG Export Plug-In . SVG Version: 6.00 Build 0)  -->
<svg version="1.1" id="Capa_1" xmlns="http://www.w3.org/2000/svg" xmlns:xlink="http://www.w3.org/1999/xlink" x="0px" y="0px"
	 viewBox="0 0 512 512" style="enable-background:new 0 0 512 512;" xml:space="preserve">
<path style="fill:#FEDA9B;" d="M376,367.999h106c11.046,0,20-8.954,20-20V20.001c0-5.523-4.477-10-10-10H99.999
	c-5.523,0-10,4.477-10,10v267.995l80,80.003h46.003H376z"/>
<path style="fill:#FEA02C;" d="M296,447.999h106c11.046,0,20-8.954,20-20V100.001c0-5.523-4.477-10-10-10H20
	c-5.523,0-10,4.477-10,10v267.995l80,80.003h46.003"/>
<path style="fill:#FFB954;" d="M10,161.746v206.252l80,80.003h46.002H296H402c11.046,0,20-8.954,20-20V161.746H10z"/>
<path style="fill:#FEDA9B;" d="M184.002,501.999V361.999c0-19.882,16.118-36,36-36l0,0c19.882,0,36,16.118,36,36v139.999H184.002z"
	/>
<path style="fill:#FEA02C;" d="M70,367.997H10l80,80.001v-60.001C89.999,376.951,81.046,367.997,70,367.997z"/>
<path style="fill:#FFFFFF;" d="M220.002,326.001L220.002,326.001c-19.882,0-36,16.118-36,36v38h72v-38
	C256.001,342.118,239.884,326.001,220.002,326.001z"/>
<path d="M378.027,210c0-5.522-4.478-10-10-10H109.999c-5.522,0-10,4.478-10,10s4.478,10,10,10h258.027
	C373.55,220,378.027,215.523,378.027,210z"/>
<path d="M63.973,220c2.63,0,5.21-1.07,7.07-2.931c1.859-1.859,2.93-4.439,2.93-7.069s-1.07-5.21-2.93-7.07
	c-1.86-1.86-4.44-2.93-7.07-2.93s-5.21,1.069-7.07,2.93c-1.859,1.86-2.93,4.44-2.93,7.07s1.07,5.21,2.93,7.069
	C58.763,218.93,61.343,220,63.973,220z"/>
<path d="M368.027,260h-46.026c-5.522,0-10,4.478-10,10s4.478,10,10,10h46.026c5.522,0,10-4.478,10-10S373.55,260,368.027,260z"/>
<path d="M492,0.002H99.999c-11.028,0-20,8.972-20,20v60H20c-11.028,0-20,8.972-20,20v267.995c0,2.621,1.075,5.218,2.929,7.071
	l80,80.003c1.858,1.857,4.443,2.929,7.071,2.929h46.003c5.522,0,10-4.478,10-10s-4.478-10-10-10H99.999v-50.003
	c0-16.542-13.458-30-30-30H20V172.001h392.001V266c0,5.522,4.478,10,10,10s10-4.478,10-10V100.001c0-11.028-8.972-20-20-20H99.999
	v-60H492v327.998c0,5.514-4.486,10-10,10h-15c-5.522,0-10,4.478-10,10s4.478,10,10,10h15c16.542,0,30-13.458,30-30V20.001
	C512,8.973,503.028,0.002,492,0.002z M70,377.997c5.514,0,10,4.486,10,10v35.858l-45.858-45.858H70z M412.001,152.001H20v-52
	h392.001V152.001z"/>
<path d="M220.002,316c-25.364,0-46,20.636-46,46v139.999c0,5.522,4.478,10,10,10c5.522,0,10-4.478,10-10v-91.999h52v91.999
	c0,5.522,4.478,10,10,10c5.522,0,10-4.478,10-10V361.999C266.001,336.636,245.366,316,220.002,316z M194.002,389.999v-28
	c0-14.337,11.663-26,26-26c14.337,0,26,11.663,26,26v28H194.002z"/>
<path d="M210.002,266v28.859c0,5.522,4.478,10,10,10s10-4.478,10-10V266c0-5.522-4.478-10-10-10S210.002,260.478,210.002,266z"/>
<path d="M179.413,301.262l-16.656-16.656c-3.906-3.904-10.236-3.904-14.143,0c-3.905,3.905-3.905,10.237,0,14.143l16.656,16.656
	c1.953,1.952,4.512,2.929,7.071,2.929s5.118-0.977,7.071-2.929C183.318,311.499,183.318,305.167,179.413,301.262z"/>
<path d="M291.946,283.98c-3.906-3.904-10.236-3.904-14.143,0l-17.214,17.214c-3.905,3.905-3.905,10.237,0,14.143
	c1.953,1.952,4.512,2.929,7.071,2.929c2.559,0,5.118-0.977,7.071-2.929l17.214-17.214
	C295.852,294.217,295.852,287.885,291.946,283.98z"/>
<path d="M422.001,298.331c-2.63,0-5.21,1.069-7.07,2.93c-1.86,1.861-2.93,4.44-2.93,7.07c0,2.64,1.069,5.21,2.93,7.069
	c1.86,1.87,4.44,2.931,7.07,2.931c2.63,0,5.21-1.061,7.069-2.931c1.86-1.859,2.931-4.43,2.931-7.069c0-2.63-1.07-5.21-2.931-7.07
	C427.211,299.4,424.631,298.331,422.001,298.331z"/>
<path d="M422.001,343.667c-5.522,0-10,4.478-10,10v74.333c0,5.514-4.486,10-10,10H296c-5.522,0-10,4.478-10,10s4.478,10,10,10h106
	c16.542,0,30-13.458,30-30v-74.333C432,348.144,427.522,343.667,422.001,343.667z"/>
<path d="M368.027,320.133h-46.026c-5.522,0-10,4.478-10,10s4.478,10,10,10h46.026c5.522,0,10-4.478,10-10
	S373.55,320.133,368.027,320.133z"/>
<path d="M109.999,260H63.974c-5.522,0-10,4.478-10,10s4.478,10,10,10h46.026c5.522,0,10-4.478,10-10S115.521,260,109.999,260z"/>
<path d="M109.999,320.133H63.974c-5.522,0-10,4.478-10,10s4.478,10,10,10h46.026c5.522,0,10-4.478,10-10
	S115.521,320.133,109.999,320.133z"/>
<g>
</g>
<g>
</g>
<g>
</g>
<g>
</g>
<g>
</g>
<g>
</g>
<g>
</g>
<g>
</g>
<g>
</g>
<g>
</g>
<g>
</g>
<g>
</g>
<g>
</g>
<g>
</g>
<g>
</g>
</svg>
