<?xml version="1.0" encoding="iso-8859-1"?>
<!-- Generator: Adobe Illustrator 19.0.0, SVG Export Plug-In . SVG Version: 6.00 Build 0)  -->
<svg version="1.1" id="Capa_1" xmlns="http://www.w3.org/2000/svg" xmlns:xlink="http://www.w3.org/1999/xlink" x="0px" y="0px"
	 viewBox="0 0 512.001 512.001" style="enable-background:new 0 0 512.001 512.001;" xml:space="preserve">
<path style="fill:#EDF2FA;" d="M162.001,308v174c0,11.046,8.954,20,20,20h300c11.046,0,20-8.954,20-20V30c0-11.046-8.954-20-20-20
	h-300c-11.046,0-20,8.954-20,20v64V308z"/>
<circle style="fill:#4DBAF6;" cx="256.001" cy="201.99" r="138"/>
<circle style="fill:#C9F3FF;" cx="256.001" cy="201.99" r="98"/>
<g>
	<path style="fill:#FFB954;" d="M92.363,331.688l-75.349,75.348c-9.372,9.372-9.372,24.568,0,33.941
		c4.687,4.686,10.828,7.029,16.971,7.029s12.284-2.343,16.971-7.029l75.349-75.348L92.363,331.688z"/>
	<polygon style="fill:#FFB954;" points="255.99,147.979 273.547,183.529 312.786,189.22 284.401,216.903 291.114,255.98 
		256.014,237.539 220.924,255.999 227.616,216.919 199.216,189.25 238.452,183.538 	"/>
</g>
<path d="M453.681,350h-127.68c-5.523,0-10,4.478-10,10s4.477,10,10,10h127.68c5.523,0,10-4.478,10-10S459.204,350,453.681,350z"/>
<path d="M220.001,402c-2.63,0-5.21,1.069-7.07,2.93c-1.86,1.86-2.93,4.44-2.93,7.07s1.07,5.21,2.93,7.069
	c1.86,1.86,4.44,2.931,7.07,2.931s5.21-1.07,7.07-2.931c1.86-1.859,2.93-4.439,2.93-7.069s-1.07-5.21-2.93-7.07
	S222.631,402,220.001,402z"/>
<path d="M453.675,402H265.577c-5.523,0-10,4.478-10,10s4.477,10,10,10h188.099c5.523,0,10-4.478,10-10S459.198,402,453.675,402z"/>
<path d="M256.002,309.939c27.657,0,55.313-10.527,76.368-31.582c14.616-14.616,24.679-32.968,29.102-53.069
	c4.303-19.557,3.116-39.876-3.434-58.76c-1.809-5.219-7.505-7.981-12.724-6.172c-5.218,1.81-7.981,7.507-6.171,12.725
	c11.152,32.16,3.139,67.08-20.915,91.134c-17.158,17.158-39.688,25.735-62.226,25.733c-22.532-0.002-45.072-8.579-62.225-25.733
	c-16.621-16.621-25.774-38.72-25.774-62.226s9.153-45.604,25.774-62.225c23.384-23.385,57.502-31.665,89.037-21.613
	c5.26,1.678,10.887-1.229,12.564-6.49c1.678-5.262-1.228-10.888-6.49-12.564c-38.69-12.334-80.557-2.17-109.253,26.525
	c-20.398,20.398-31.632,47.52-31.632,76.367s11.234,55.97,31.632,76.368C200.689,299.412,228.346,309.939,256.002,309.939z"/>
<path d="M318.589,140.127c1.957,1.985,4.538,2.979,7.122,2.979c2.535,0,5.072-0.958,7.02-2.879
	c3.933-3.878,3.978-10.209,0.101-14.142l-0.474-0.477c-3.913-3.898-10.244-3.887-14.142,0.025s-3.887,10.244,0.025,14.143
	L318.589,140.127z"/>
<path d="M264.957,143.551c-1.685-3.413-5.161-5.572-8.966-5.572h-0.002c-3.807,0.001-7.282,2.163-8.966,5.577L231.811,174.4
	l-34.033,4.955c-3.767,0.548-6.896,3.188-8.071,6.808s-0.193,7.595,2.533,10.251l24.635,24l-5.805,33.898
	c-0.643,3.752,0.901,7.543,3.981,9.779c1.742,1.265,3.804,1.908,5.876,1.908c1.592,0,3.191-0.38,4.655-1.15l30.437-16.012
	l30.445,15.996c3.37,1.771,7.453,1.474,10.531-0.764c3.079-2.238,4.62-6.03,3.976-9.782l-5.823-33.896l24.622-24.013
	c2.725-2.658,3.705-6.632,2.528-10.252s-4.308-6.258-8.075-6.804l-34.036-4.936L264.957,143.551z M277.419,209.744
	c-2.356,2.298-3.431,5.608-2.874,8.853l3.282,19.107l-17.162-9.018c-2.914-1.53-6.394-1.529-9.307,0.003l-17.158,9.025l3.272-19.108
	c0.556-3.244-0.521-6.554-2.878-8.851l-13.887-13.529l19.185-2.793c3.257-0.474,6.072-2.521,7.528-5.473l8.575-17.387l8.585,17.383
	c1.458,2.951,4.274,4.996,7.531,5.469l19.186,2.782L277.419,209.744z"/>
<path d="M482.001,0h-300c-16.542,0-30,13.458-30,30v64c0,0.859,0.12,1.688,0.323,2.483c-27.337,26.868-44.322,64.238-44.322,105.506
	c0,37.212,13.81,71.257,36.567,97.29l-35.236,35.236l-9.899-9.899c-3.905-3.904-10.238-3.904-14.142,0l-75.35,75.349
	c-13.256,13.256-13.256,34.826,0.001,48.085c6.422,6.421,14.96,9.957,24.041,9.957c9.082,0,17.62-3.536,24.042-9.958l75.35-75.349
	c1.875-1.876,2.929-4.419,2.929-7.071s-1.054-5.195-2.929-7.071l-9.9-9.9l28.525-28.525V482c0,16.542,13.458,30,30,30h300
	c16.542,0,30-13.458,30-30V30C512.001,13.458,498.543,0,482.001,0z M43.884,433.906c-2.644,2.645-6.16,4.101-9.899,4.101
	s-7.255-1.456-9.899-4.1c-5.458-5.46-5.458-14.342,0-19.8l68.278-68.277l19.799,19.799L43.884,433.906z M256.002,73.989
	c70.58,0,128,57.421,128,128s-57.42,128-128,128s-128-57.421-128-128S185.423,73.989,256.002,73.989z M492.001,482
	c0,5.514-4.486,10-10,10h-300c-5.514,0-10-4.486-10-10V323.77c23.881,16.523,52.828,26.22,84.001,26.22
	c34.647,0,66.547-11.972,91.793-31.989h105.88c5.523,0,10-4.478,10-10s-4.477-10-10-10h-85.138c8.266-9.674,15.315-20.418,20.893-32
	h63.807c5.523,0,10-4.478,10-10c0-5.522-4.477-10-10-10H397.32c3.195-10.237,5.3-20.95,6.191-32h50.587c5.523,0,10-4.478,10-10
	s-4.477-10-10-10h-50.315c-0.589-11.027-2.392-21.737-5.276-32h55.166c5.523,0,10-4.478,10-10s-4.477-10-10-10h-62.389
	c-5.125-11.513-11.677-22.254-19.431-32h81.396c5.523,0,10-4.478,10-10s-4.477-10-10-10h-98.836c-0.544,0-1.073,0.055-1.594,0.139
	C326.848,67.629,292.986,53.991,256,53.991c-31.174,0-60.121,9.697-84.001,26.22V30c0-5.514,4.486-10,10-10h300
	c5.514,0,10,4.486,10,10v452H492.001z"/>
<g>
</g>
<g>
</g>
<g>
</g>
<g>
</g>
<g>
</g>
<g>
</g>
<g>
</g>
<g>
</g>
<g>
</g>
<g>
</g>
<g>
</g>
<g>
</g>
<g>
</g>
<g>
</g>
<g>
</g>
</svg>
