<?xml version="1.0" encoding="iso-8859-1"?>
<!-- Generator: Adobe Illustrator 19.0.0, SVG Export Plug-In . SVG Version: 6.00 Build 0)  -->
<svg version="1.1" id="Capa_1" xmlns="http://www.w3.org/2000/svg" xmlns:xlink="http://www.w3.org/1999/xlink" x="0px" y="0px"
	 viewBox="0 0 512 512" style="enable-background:new 0 0 512 512;" xml:space="preserve">
<path style="fill:#4DBAF6;" d="M502,122.003c0-61.854-50.143-111.997-111.997-111.997h-80.998
	c-61.854,0-111.997,50.143-111.997,111.997l0,0c0,61.854,50.143,111.997,111.997,111.997h80.998
	c19.574,0,37.971-5.026,53.981-13.851l35.85,35.85v-67.101C493.757,170.233,502,147.081,502,122.003L502,122.003z"/>
<path style="fill:#FF5D5D;" d="M287.98,162.003H64.011C34.182,162.003,10,186.184,10,216.014v151.97
	c0,29.83,24.181,54.012,54.012,54.012l0,0v79.998l79.998-79.998h143.97c29.83,0,54.012-24.181,54.012-54.012v-151.97
	C341.991,186.184,317.81,162.003,287.98,162.003z"/>
<path style="fill:#EDF2FA;" d="M287.98,162.003H64.011C34.182,162.003,10,186.184,10,216.014v151.97
	c0,29.83,24.181,54.012,54.012,54.012l0,0v79.998l79.998-79.998h143.97c29.83,0,54.012-24.181,54.012-54.012v-151.97
	C341.991,186.184,317.81,162.003,287.98,162.003z"/>
<g>
	<circle style="fill:#FF5D5D;" cx="87.998" cy="291.503" r="21.999"/>
	<circle style="fill:#FF5D5D;" cx="175.996" cy="291.503" r="21.999"/>
	<circle style="fill:#FF5D5D;" cx="263.993" cy="291.503" r="21.999"/>
</g>
<path d="M196.804,130.94c0.073,0.002,0.145,0.003,0.218,0.003c5.486,0,9.856-4.31,9.99-9.902c0.001-0.043,0.002-0.087,0.002-0.13
	c0.062-5.669-4.268-10.171-9.857-10.25c-0.05-0.001-0.099-0.001-0.149-0.001c-5.519,0-9.896,4.35-9.994,9.966
	C186.915,126.294,191.215,130.825,196.804,130.94z"/>
<path d="M390.003,0.007h-80.998c-43.776,0-84.432,23.658-106.101,61.743c-2.461,4.325-4.676,8.845-6.585,13.433
	c-2.121,5.1,0.293,10.953,5.392,13.074c5.098,2.117,10.953-0.294,13.074-5.393c1.595-3.833,3.446-7.609,5.502-11.224
	c18.123-31.849,52.118-51.635,88.719-51.635h80.998c56.242,0,101.997,45.756,101.997,101.997c0,22.149-6.979,43.214-20.183,60.916
	c-1.288,1.727-1.984,3.824-1.984,5.979v42.96l-18.78-18.78c-3.148-3.147-7.998-3.836-11.898-1.687
	C424.191,219.64,407.195,224,390.003,224h-6c-5.523,0-10,4.478-10,10s4.477,10,10,10h6c18.015,0,35.856-4.007,52.049-11.642
	l30.711,30.712c1.914,1.913,4.471,2.929,7.074,2.929c1.288,0,2.587-0.249,3.824-0.761c3.737-1.548,6.173-5.194,6.173-9.239V192.14
	C504.347,171.539,512,147.363,512,122.003C512,54.734,457.272,0.007,390.003,0.007z"/>
<path d="M287.98,152.003H64.011C28.715,152.003,0,180.717,0,216.013v151.971c0,31.894,23.449,58.416,54.012,63.23v70.778
	c0,4.045,2.437,7.691,6.173,9.239c1.237,0.512,2.536,0.761,3.824,0.761c2.603,0,5.161-1.016,7.074-2.929l77.069-77.069H287.98
	c35.296,0,64.011-28.715,64.011-64.011v-151.97C351.991,180.717,323.276,152.003,287.98,152.003z M287.98,411.997h-143.97
	c-2.652,0-5.196,1.054-7.071,2.929l-62.927,62.927v-55.856c0-5.522-4.477-10-10-10c-24.268-0.001-44.012-19.746-44.012-44.013
	V216.013c0-24.268,19.743-44.012,44.012-44.012H287.98c24.268,0,44.012,19.744,44.012,44.012v147.983h-92.485
	c-5.523,0-10,4.478-10,10c0,5.522,4.477,10,10,10h89.456C322.544,400.368,306.599,411.997,287.98,411.997z"/>
<path d="M87.998,259.5c-17.645,0-31.999,14.355-31.999,31.999c0,17.645,14.355,31.999,31.999,31.999s31.999-14.355,31.999-31.999
	C119.997,273.855,105.642,259.5,87.998,259.5z M87.998,303.499c-6.617,0-12-5.383-12-12c0-6.617,5.383-12,12-12s12,5.383,12,12
	C99.997,298.116,94.615,303.499,87.998,303.499z"/>
<path d="M207.995,291.5c0-17.645-14.355-31.999-31.999-31.999s-31.999,14.355-31.999,31.999c0,17.645,14.355,31.999,31.999,31.999
	S207.995,309.143,207.995,291.5z M175.996,303.499c-6.617,0-12-5.383-12-12c0-6.617,5.383-12,12-12s12,5.383,12,12
	C187.995,298.116,182.612,303.499,175.996,303.499z"/>
<path d="M263.993,323.499c17.645,0,31.999-14.355,31.999-31.999c0-17.645-14.355-31.999-31.999-31.999
	c-17.645,0-31.999,14.355-31.999,31.999C231.994,309.144,246.349,323.499,263.993,323.499z M263.993,279.5c6.617,0,12,5.383,12,12
	c0,6.617-5.383,12-12,12c-6.617,0-12-5.383-12-12C251.994,284.883,257.376,279.5,263.993,279.5z"/>
<path d="M201.998,363.998c-2.63,0-5.21,1.069-7.07,2.93s-2.93,4.44-2.93,7.07s1.07,5.21,2.93,7.069c1.86,1.86,4.44,2.931,7.07,2.931
	c2.64,0,5.22-1.07,7.08-2.931c1.86-1.859,2.93-4.439,2.93-7.069s-1.07-5.21-2.93-7.07S204.638,363.998,201.998,363.998z"/>
<g>
</g>
<g>
</g>
<g>
</g>
<g>
</g>
<g>
</g>
<g>
</g>
<g>
</g>
<g>
</g>
<g>
</g>
<g>
</g>
<g>
</g>
<g>
</g>
<g>
</g>
<g>
</g>
<g>
</g>
</svg>
