<?xml version="1.0" encoding="iso-8859-1"?>
<!-- Generator: Adobe Illustrator 19.0.0, SVG Export Plug-In . SVG Version: 6.00 Build 0)  -->
<svg version="1.1" id="Capa_1" xmlns="http://www.w3.org/2000/svg" xmlns:xlink="http://www.w3.org/1999/xlink" x="0px" y="0px"
	 viewBox="0 0 512 512" style="enable-background:new 0 0 512 512;" xml:space="preserve">
<path style="fill:#FFB954;" d="M442.002,37.006H69.998C36.862,37.006,10,63.868,10,97.004v237.994
	c0,33.136,26.862,59.998,59.998,59.998h74.011v79.998l79.998-79.998h217.994c33.136,0,59.998-26.862,59.998-59.998V97.004
	C502,63.868,475.138,37.006,442.002,37.006z"/>
<path d="M144.007,484.994c-1.288,0-2.587-0.249-3.824-0.761c-3.737-1.548-6.173-5.194-6.173-9.239v-69.998H69.998
	C31.401,404.996,0,373.595,0,334.998V97.004c0-38.597,31.401-69.998,69.998-69.998h372.004c38.597,0,69.998,31.401,69.998,69.998
	v237.994c0,38.597-31.401,69.998-69.998,69.998h-61.498c-5.523,0-10-4.478-10-10c0-5.522,4.477-10,10-10h61.498
	c27.569,0,49.999-22.429,49.999-49.999V97.004c0-27.569-22.429-49.999-49.999-49.999H69.998c-27.569,0-49.999,22.429-49.999,49.999
	v237.994c0,27.569,22.429,49.999,49.999,49.999h74.011c5.523,0,10,4.478,10,10v55.856l62.927-62.927
	c1.875-1.875,4.419-2.929,7.071-2.929h79.498c5.523,0,10,4.478,10,10c0,5.522-4.477,10-10,10h-75.356l-77.069,77.069
	C149.167,483.978,146.609,484.994,144.007,484.994z"/>
<path d="M342.004,404.996c-2.63,0-5.21-1.07-7.07-2.931c-1.86-1.859-2.93-4.439-2.93-7.069c0-2.63,1.07-5.21,2.93-7.07
	c1.86-1.86,4.44-2.93,7.07-2.93c2.63,0,5.21,1.069,7.07,2.93c1.86,1.861,2.93,4.44,2.93,7.07c0,2.63-1.07,5.21-2.93,7.069
	C347.214,403.925,344.634,404.996,342.004,404.996z"/>
<path d="M437.088,134.003H75.654c-5.523,0-10-4.478-10-10s4.477-10,10-10h361.434c5.523,0,10,4.478,10,10
	S442.611,134.003,437.088,134.003z"/>
<path d="M437.088,195.335H75.654c-5.523,0-10-4.478-10-10c0-5.522,4.477-10,10-10h361.434c5.523,0,10,4.478,10,10
	C447.088,190.857,442.611,195.335,437.088,195.335z"/>
<path d="M437.088,256.667H75.654c-5.523,0-10-4.478-10-10c0-5.522,4.477-10,10-10h361.434c5.523,0,10,4.478,10,10
	C447.088,252.189,442.611,256.667,437.088,256.667z"/>
<path d="M437.088,317.998H256.007c-5.523,0-10-4.478-10-10c0-5.522,4.477-10,10-10h181.081c5.523,0,10,4.478,10,10
	C447.088,313.521,442.611,317.998,437.088,317.998z"/>
<path d="M206.306,317.998h-0.236c-5.523,0-10-4.478-10-10c0-5.522,4.477-10,10-10h0.236c5.523,0,10,4.478,10,10
	C216.306,313.521,211.829,317.998,206.306,317.998z"/>
<g>
</g>
<g>
</g>
<g>
</g>
<g>
</g>
<g>
</g>
<g>
</g>
<g>
</g>
<g>
</g>
<g>
</g>
<g>
</g>
<g>
</g>
<g>
</g>
<g>
</g>
<g>
</g>
<g>
</g>
</svg>
