<?xml version="1.0" encoding="iso-8859-1"?>
<!-- Generator: Adobe Illustrator 19.0.0, SVG Export Plug-In . SVG Version: 6.00 Build 0)  -->
<svg version="1.1" id="Capa_1" xmlns="http://www.w3.org/2000/svg" xmlns:xlink="http://www.w3.org/1999/xlink" x="0px" y="0px"
	 viewBox="0 0 512 512" style="enable-background:new 0 0 512 512;" xml:space="preserve">
<path style="fill:#4DBAF6;" d="M81.272,64H50c-22.091,0-40,17.909-40,40v358c0,22.091,17.909,40,40,40h304c22.091,0,40-17.909,40-40
	V104c0-22.091-17.909-40-40-40h-30.744"/>
<g>
	<polygon style="fill:#EDF2FA;" points="90,98 57.986,98 57.986,452.772 346,452.772 346,98 314,98 	"/>
	<path style="fill:#EDF2FA;" d="M246.424,108H314V62c0-11.046-8.954-20-20-20h-60c0-17.673-14.327-32-32-32s-32,14.327-32,32h-60
		c-11.046,0-20,8.954-20,20v46h73.634H246.424z"/>
</g>
<path style="fill:#FFB954;" d="M484.125,10h-34.25C440.003,10,432,18.003,432,27.875V418l35,84l35-84V27.875
	C502,18.003,493.997,10,484.125,10z"/>
<polygon style="fill:#B3B6C3;" points="502,418 432,418 467,502 "/>
<rect x="432" y="74" style="fill:#EDF2FA;" width="70" height="37"/>
<path style="fill:#FF5D5D;" d="M484.125,10h-34.25C440.003,10,432,18.003,432,27.875V74h70V27.875C502,18.003,493.997,10,484.125,10
	z"/>
<path d="M354,54h-30.744c-0.116,0-0.228,0.013-0.343,0.017C319.408,41.339,307.778,32,294,32h-51.203C238.3,13.652,221.714,0,202,0
	s-36.3,13.652-40.797,32H110c-13.771,0-25.397,9.331-28.908,22H50C22.43,54,0,76.43,0,104v358c0,27.57,22.43,50,50,50h304
	c27.57,0,50-22.43,50-50V104C404,76.43,381.57,54,354,54z M90,118h224c5.522,0,10-4.478,10-10h12v334.772H67.986V108H80
	C80,113.522,84.478,118,90,118z M100,62c0-5.514,4.486-10,10-10h60c5.522,0,10-4.478,10-10c0-12.131,9.869-22,22-22s22,9.869,22,22
	c0,5.522,4.478,10,10,10h60c5.514,0,10,4.486,10,10v36H100V62z M384,462c0,16.542-13.458,30-30,30H50c-16.542,0-30-13.458-30-30V104
	c0-16.542,13.458-30,30-30h30v14H57.986c-5.522,0-10,4.478-10,10v354.772c0,5.522,4.478,10,10,10H346c5.522,0,10-4.478,10-10V98
	c0-5.522-4.478-10-10-10h-22V74h30c16.542,0,30,13.458,30,30V462z"/>
<path d="M484.125,0h-34.25C434.505,0,422,12.505,422,27.875V418c0,1.32,0.262,2.628,0.77,3.846l35,84
	c1.553,3.727,5.193,6.154,9.23,6.154s7.678-2.428,9.23-6.154l35-84c0.508-1.218,0.77-2.525,0.77-3.846V27.875
	C512,12.505,499.495,0,484.125,0z M442,408V118h15v102.667c0,5.522,4.478,10,10,10s10-4.478,10-10V118h15v290H442z M442,98V84h50v14
	H442z M449.875,20h34.25c4.342,0,7.875,3.533,7.875,7.875V64h-50V27.875C442,23.533,445.533,20,449.875,20z M467,476l-20-48h40
	L467,476z"/>
<path d="M467,253.64c-2.63,0-5.21,1.07-7.07,2.93c-1.86,1.86-2.93,4.44-2.93,7.07s1.069,5.21,2.93,7.07
	c1.86,1.859,4.44,2.93,7.07,2.93s5.21-1.07,7.069-2.93c1.86-1.86,2.931-4.44,2.931-7.07s-1.07-5.21-2.931-7.07
	C472.21,254.71,469.63,253.64,467,253.64z"/>
<path d="M122.781,222h158c5.522,0,10-4.478,10-10s-4.478-10-10-10h-158c-5.522,0-10,4.478-10,10S117.259,222,122.781,222z"/>
<path d="M122.781,274h158.424c5.522,0,10-4.478,10-10s-4.478-10-10-10H122.781c-5.522,0-10,4.478-10,10S117.259,274,122.781,274z"/>
<path d="M122.781,170h157.575c5.522,0,10-4.478,10-10s-4.478-10-10-10H122.781c-5.522,0-10,4.478-10,10S117.259,170,122.781,170z"/>
<path d="M280.781,368H202c-5.522,0-10,4.478-10,10s4.478,10,10,10h78.781c5.522,0,10-4.478,10-10S286.304,368,280.781,368z"/>
<path d="M281.2,306c-2.631,0-5.21,1.069-7.061,2.93c-1.87,1.86-2.939,4.44-2.939,7.07s1.069,5.21,2.939,7.069
	c1.86,1.86,4.43,2.931,7.061,2.931c2.64,0,5.21-1.07,7.079-2.931c1.86-1.859,2.931-4.439,2.931-7.069s-1.07-5.21-2.931-7.07
	C286.42,307.069,283.84,306,281.2,306z"/>
<path d="M122.781,326H235.63c5.522,0,10-4.478,10-10s-4.478-10-10-10H122.781c-5.522,0-10,4.478-10,10S117.259,326,122.781,326z"/>
<path d="M202,65.17c-2.63,0-5.21,1.07-7.07,2.93S192,72.54,192,75.17s1.069,5.21,2.93,7.07c1.86,1.859,4.44,2.93,7.07,2.93
	s5.21-1.07,7.069-2.93c1.86-1.86,2.931-4.44,2.931-7.07s-1.07-5.21-2.931-7.07C207.21,66.24,204.63,65.17,202,65.17z"/>
<g>
</g>
<g>
</g>
<g>
</g>
<g>
</g>
<g>
</g>
<g>
</g>
<g>
</g>
<g>
</g>
<g>
</g>
<g>
</g>
<g>
</g>
<g>
</g>
<g>
</g>
<g>
</g>
<g>
</g>
</svg>
