<?xml version="1.0" encoding="iso-8859-1"?>
<!-- Generator: Adobe Illustrator 19.0.0, SVG Export Plug-In . SVG Version: 6.00 Build 0)  -->
<svg version="1.1" id="Capa_1" xmlns="http://www.w3.org/2000/svg" xmlns:xlink="http://www.w3.org/1999/xlink" x="0px" y="0px"
	 viewBox="0 0 512 512" style="enable-background:new 0 0 512 512;" xml:space="preserve">
<g>
	<path style="fill:#FF5D5D;" d="M359.511,37C318.74,37,281.973,54.724,256,83.129C230.027,54.724,193.26,37,152.489,37
		C73.795,37,10,103.019,10,184.458C10,298.534,256,475,256,475s246-176.466,246-290.542C502,103.019,438.205,37,359.511,37z"/>
</g>
<g>
	<path style="fill:#FFFFFF;" d="M181.578,184.611c0-33.178,46.716-53.765,46.716-53.765l-9.288,1.356
		c-52.018,7.596-90.586,52.205-90.586,104.774l0,0l0.025-0.02c0,0.055-0.004,0.109-0.004,0.163l0,0
		c0,29.008,23.516,52.524,52.524,52.524l0,0c29.008,0,52.524-23.516,52.524-52.524l0,0
		C233.489,208.317,210.302,184.941,181.578,184.611z"/>
	<path style="fill:#FFFFFF;" d="M331.67,184.611c0-33.178,46.716-53.765,46.716-53.765l-9.288,1.356
		c-52.018,7.596-90.586,52.205-90.586,104.774l0,0l0.025-0.02c0,0.055-0.004,0.109-0.004,0.163l0,0
		c0,29.008,23.516,52.524,52.524,52.524l0,0c29.008,0,52.524-23.516,52.524-52.524l0,0
		C383.58,208.317,360.394,184.941,331.67,184.611z"/>
</g>
<path d="M256,485c-2.043,0-4.087-0.625-5.829-1.874c-0.454-0.327-46.069-33.151-97.41-78.885c-4.124-3.673-4.489-9.994-0.815-14.118
	c3.673-4.123,9.993-4.49,14.118-0.815c39.867,35.512,76.181,63.087,89.936,73.29c16.72-12.405,66.791-50.504,116.271-97.49
	C450.598,290.728,492,228.26,492,184.458C492,108.663,432.565,47,359.511,47c-36.708,0-70.849,15.228-96.131,42.877
	c-1.895,2.072-4.572,3.252-7.38,3.252s-5.485-1.18-7.38-3.252C223.338,62.228,189.197,47,152.489,47
	C79.435,47,20,108.663,20,184.458c0,34.427,24.941,79.55,74.133,134.113c3.697,4.103,3.37,10.426-0.731,14.124
	c-4.104,3.695-10.426,3.369-14.124-0.731C26.673,273.612,0,223.984,0,184.458C0,97.636,68.406,27,152.489,27
	C191.398,27,227.771,41.774,256,68.824C284.229,41.774,320.602,27,359.511,27C443.594,27,512,97.636,512,184.458
	c0,50.159-42.432,115.869-126.115,195.302c-61.289,58.176-123.436,102.921-124.056,103.366C260.087,484.375,258.043,485,256,485z"/>
<path d="M123.787,373.698c-2.425,0-4.942-0.896-7.083-2.984c-4.563-4.454-3.746-10.754-0.319-14.271
	c3.426-3.518,9.702-4.501,14.274-0.057c0.01,0.01,0.02,0.02,0.029,0.028c4.555,4.463,3.725,10.762,0.291,14.272
	C129.156,372.551,126.531,373.698,123.787,373.698z"/>
<path d="M180.965,299.644c-34.299,0-62.236-27.761-62.522-61.994c-0.015-0.223-0.022-0.447-0.022-0.673
	c0-27.826,10.022-54.743,28.222-75.793c18.199-21.049,43.386-34.855,70.919-38.877l9.288-1.355c4.96-0.723,9.674,2.323,11.056,7.131
	c1.383,4.808-1,9.897-5.578,11.914c-9.753,4.333-32.932,18.163-39.176,35.812c28.618,5.718,50.338,31.151,50.338,61.312
	C243.488,271.596,215.44,299.644,180.965,299.644z M138.44,237.232c0.061,23.396,19.113,42.411,42.524,42.411
	c23.447,0,42.523-19.076,42.523-42.524c0-23.173-18.853-42.242-42.025-42.51c-5.478-0.063-9.885-4.521-9.885-9.999
	c0-9.75,3.119-18.481,7.84-26.11c-24.71,17.417-40.768,46.117-40.995,77.794c0.014,0.22,0.021,0.44,0.021,0.662
	C138.444,237.03,138.442,237.135,138.44,237.232z"/>
<path d="M331.056,299.644c-34.299,0-62.235-27.761-62.521-61.994c-0.015-0.223-0.022-0.447-0.022-0.673
	c0-27.826,10.022-54.743,28.222-75.793c18.199-21.049,43.386-34.855,70.919-38.877l9.288-1.355c4.95-0.723,9.674,2.323,11.056,7.131
	c1.383,4.808-1,9.897-5.578,11.914c-9.753,4.333-32.932,18.163-39.176,35.812c28.618,5.718,50.338,31.151,50.338,61.312
	C393.58,271.596,365.532,299.644,331.056,299.644z M288.532,237.232c0.061,23.396,19.113,42.411,42.523,42.411
	c23.448,0,42.524-19.076,42.524-42.524c0-23.173-18.853-42.242-42.025-42.51c-5.478-0.063-9.885-4.521-9.885-9.999
	c0-9.75,3.119-18.481,7.84-26.11c-24.71,17.417-40.768,46.117-40.995,77.794c0.014,0.22,0.021,0.44,0.021,0.662
	C288.536,237.03,288.534,237.135,288.532,237.232z"/>
<path d="M359.511,91.499c-0.044,0-0.089,0-0.133-0.001c-5.66-0.075-10.05-4.512-9.994-10.101c0.056-5.565,4.495-9.9,10.121-9.9
	c0.024,0,0.048,0,0.073,0c5.66,0.037,10.079,4.445,10.061,10.034C369.62,87.121,365.171,91.499,359.511,91.499z"/>
<path d="M459,194.458c-5.522,0-10-4.478-10-10c0-36.067-20.363-69.187-51.877-84.376c-4.976-2.397-7.064-8.374-4.666-13.35
	c2.396-4.976,8.376-7.064,13.35-4.666C444.195,100.568,469,140.76,469,184.458C469,189.98,464.522,194.458,459,194.458z"/>
<g>
</g>
<g>
</g>
<g>
</g>
<g>
</g>
<g>
</g>
<g>
</g>
<g>
</g>
<g>
</g>
<g>
</g>
<g>
</g>
<g>
</g>
<g>
</g>
<g>
</g>
<g>
</g>
<g>
</g>
</svg>
