<?xml version="1.0" encoding="iso-8859-1"?>
<!-- Generator: Adobe Illustrator 19.0.0, SVG Export Plug-In . SVG Version: 6.00 Build 0)  -->
<svg version="1.1" id="Capa_1" xmlns="http://www.w3.org/2000/svg" xmlns:xlink="http://www.w3.org/1999/xlink" x="0px" y="0px"
	 viewBox="0 0 512 512" style="enable-background:new 0 0 512 512;" xml:space="preserve">
<path style="fill:#C9F3FF;" d="M145,314l-56.051,56.051V314H75.667C39.4,314,10,284.6,10,248.333V75.667C10,39.4,39.4,10,75.667,10
	h296.667C408.6,10,438,39.4,438,75.667v172.667C438,284.6,408.6,314,372.333,314H145z"/>
<rect x="232.09" y="219.76" style="fill:#2E9DE3;" width="52" height="176"/>
<path style="fill:#FEDA9B;" d="M502,332.161v0.422c0,12.075-9.789,21.863-21.863,21.863h-18.406
	c12.075,0,21.863,9.788,21.863,21.863v0.422c0,12.075-9.789,21.863-21.863,21.863H377.87l20.435,41.465
	c10.348,20.996,5.684,46.295-11.469,62.222l0,0L285.063,379.277V234.705l16.095-6.313c10.771-4.224,22.238-6.393,33.808-6.393
	H453.39c12.075,0,21.863,9.789,21.863,21.863v0.422c0,12.075-9.789,21.863-21.863,21.863h26.745
	c12.075,0,21.863,9.789,21.863,21.863v0.422c0,12.075-9.789,21.863-21.863,21.863C492.211,310.298,502,320.086,502,332.161z"/>
<path d="M186.537,304H145c-2.652,0-5.195,1.054-7.071,2.929L98.95,345.908V314c0-5.522-4.478-10-10-10H75.667
	C44.972,304,20,279.028,20,248.333V75.667C20,44.972,44.972,20,75.667,20h296.666C403.028,20,428,44.972,428,75.667V162
	c0,5.522,4.478,10,10,10s10-4.478,10-10V75.667C448,33.944,414.056,0,372.333,0H75.667C33.944,0,0,33.944,0,75.667v172.666
	C0,290.056,33.944,324,75.667,324h3.282v46.051c0,4.045,2.437,7.691,6.173,9.238c1.237,0.513,2.537,0.762,3.825,0.762
	c2.603,0,5.16-1.016,7.073-2.929L149.143,324h37.395c5.522,0,10-4.478,10-10S192.06,304,186.537,304z"/>
<path d="M258.916,238.099c-5.522,0-10,4.478-10,10v0.108c0,5.522,4.478,10,10,10s10-4.478,10-10v-0.108
	C268.916,242.576,264.438,238.099,258.916,238.099z"/>
<path d="M512,287.79c0-16.583-12.765-30.232-28.983-31.659c1.496-3.684,2.328-7.706,2.328-11.921v-0.42
	c0-17.529-14.261-31.79-31.789-31.79H314.088c-1.249,0-2.488,0.234-3.651,0.69l-16.369,6.42c-0.235-5.314-4.605-9.554-9.978-9.554
	h-52c-5.522,0-10,4.478-10,10v176c0,5.522,4.478,10,10,10h52c3.028,0,5.736-1.352,7.57-3.479l87.948,106.298
	c1.882,2.273,4.672,3.601,7.623,3.625c0.027,0,0.055,0,0.082,0c2.921,0,5.698-1.277,7.599-3.499l3.812-4.455
	c15.818-18.487,19.308-44.641,8.889-66.627L393.674,408h59.882c17.528,0,31.789-14.261,31.789-31.79v-0.42
	c0-4.215-0.832-8.237-2.328-11.921C499.235,362.442,512,348.793,512,332.21v-0.42c0-8.428-3.303-16.095-8.675-21.79
	c5.372-5.695,8.675-13.362,8.675-21.79V287.79z M242.09,385.556v-156h32v146.532c-0.078,0.719-0.079,1.446,0,2.168v7.3H242.09z
	 M492,332.21c0,6.501-5.289,11.79-11.79,11.79h-66.788c-5.522,0-10,4.478-10,10s4.478,10,10,10h40.134
	c6.501,0,11.789,5.289,11.789,11.79v0.42c0,6.501-5.288,11.79-11.789,11.79H377.87c-3.428,0-6.617,1.756-8.45,4.653
	c-1.833,2.896-2.055,6.53-0.587,9.628l20.705,43.701c6.164,13.008,5.131,28.171-2.387,40.135L294.09,373.639V240.584L315.979,232
	h137.577c6.501,0,11.789,5.289,11.789,11.79v0.42c0,6.501-5.288,11.79-11.789,11.79h-40.134c-5.522,0-10,4.478-10,10s4.478,10,10,10
	h40.134h26.654c6.501,0,11.79,5.289,11.79,11.79v0.42c0,6.501-5.289,11.79-11.79,11.79h-66.788c-5.522,0-10,4.478-10,10
	s4.478,10,10,10h66.788c6.501,0,11.79,5.289,11.79,11.79V332.21z"/>
<path d="M76,172h296c5.522,0,10-4.478,10-10s-4.478-10-10-10H76c-5.522,0-10,4.478-10,10S70.478,172,76,172z"/>
<path d="M76,108h242.488c5.522,0,10-4.478,10-10s-4.478-10-10-10H76c-5.522,0-10,4.478-10,10S70.478,108,76,108z"/>
<path d="M379.069,90.93C377.21,89.069,374.63,88,372,88s-5.21,1.069-7.07,2.93S362,95.37,362,98c0,2.64,1.069,5.21,2.93,7.069
	c1.86,1.86,4.44,2.931,7.07,2.931s5.21-1.07,7.069-2.931C380.93,103.21,382,100.63,382,98S380.93,92.79,379.069,90.93z"/>
<path d="M186.537,216H76c-5.522,0-10,4.478-10,10s4.478,10,10,10h110.537c5.522,0,10-4.478,10-10S192.06,216,186.537,216z"/>
<g>
</g>
<g>
</g>
<g>
</g>
<g>
</g>
<g>
</g>
<g>
</g>
<g>
</g>
<g>
</g>
<g>
</g>
<g>
</g>
<g>
</g>
<g>
</g>
<g>
</g>
<g>
</g>
<g>
</g>
</svg>
