<?xml version="1.0" encoding="iso-8859-1"?>
<!-- Generator: Adobe Illustrator 19.0.0, SVG Export Plug-In . SVG Version: 6.00 Build 0)  -->
<svg version="1.1" id="Capa_1" xmlns="http://www.w3.org/2000/svg" xmlns:xlink="http://www.w3.org/1999/xlink" x="0px" y="0px"
	 viewBox="0 0 512 512" style="enable-background:new 0 0 512 512;" xml:space="preserve">
<g>
	<path style="fill:#2E9DE3;" d="M303.139,475v-99.43c63.807-5.806,95.702-52,95.702-138.581H324c-22.091,0-40-17.909-40-40V77
		c0-22.091,17.909-40,40-40h138c22.091,0,40,17.909,40,40v153.153C502,385.921,435.719,467.543,303.139,475z"/>
	<path style="fill:#2E9DE3;" d="M29.139,475v-99.43c63.807-5.806,95.702-52,95.702-138.581H50c-22.091,0-40-17.909-40-40V77
		c0-22.091,17.909-40,40-40h138c22.091,0,40,17.909,40,40v153.153C228,385.921,161.719,467.543,29.139,475z"/>
</g>
<path d="M29.138,485c-2.548,0-5.007-0.974-6.869-2.733c-1.998-1.889-3.13-4.517-3.13-7.267v-99.431c0-5.172,3.943-9.49,9.094-9.959
	c55.838-5.08,84.183-43.916,86.459-118.622H50c-27.57,0-50-22.43-50-50V77c0-27.57,22.43-50,50-50h138c27.57,0,50,22.43,50,50v32
	c0,5.522-4.477,10-10,10s-10-4.478-10-10V77c0-16.542-13.458-30-30-30H50c-16.542,0-30,13.458-30,30v119.988
	c0,16.542,13.458,30,30,30h74.841c5.523,0,10,4.478,10,10c0,45.158-8.645,80.573-25.694,105.264
	c-16.073,23.275-39.596,37.431-70.007,42.161v79.836C159.465,453.483,218,376.796,218,230.152v-35.819c0-5.522,4.477-10,10-10
	s10,4.478,10,10v35.819c0,79.877-17.479,141.899-51.951,184.345c-34.838,42.896-87.441,66.611-156.349,70.487
	C29.513,484.995,29.325,485,29.138,485z"/>
<path d="M462,27H324c-27.57,0-50,22.43-50,50v119.988c0,27.57,22.43,50,50,50h64.692c-2.276,74.706-30.621,113.542-86.459,118.622
	c-5.15,0.469-9.094,4.787-9.094,9.959V475c0,2.75,1.132,5.378,3.13,7.267c1.862,1.76,4.321,2.733,6.869,2.733
	c0.187,0,0.375-0.005,0.562-0.016c68.908-3.876,121.511-27.591,156.349-70.487C494.521,372.052,512,310.029,512,230.152V77
	C512,49.43,489.57,27,462,27z M492,230.152c0,146.644-58.535,223.331-178.861,234.097v-79.836
	c30.412-4.73,53.935-18.886,70.007-42.161c17.049-24.69,25.694-60.105,25.694-105.264c0-5.522-4.477-10-10-10H324
	c-16.542,0-30-13.458-30-30V77c0-16.542,13.458-30,30-30h120v74.034c0,5.522,4.477,10,10,10s10-4.478,10-10v-73.96
	c15.612,1.034,28,14.057,28,29.926V230.152z"/>
<path d="M454,165.8c-5.523,0-10-4.478-10-10s4.477-10.049,10-10.049s10,4.428,10,9.95v0.099C464,161.322,459.522,165.8,454,165.8z"
	/>
<path d="M228,161.875c-5.523,0-10-4.478-10-10v-0.209c0-5.522,4.477-10,10-10s10,4.478,10,10v0.209
	C238,157.397,233.523,161.875,228,161.875z"/>
<g>
</g>
<g>
</g>
<g>
</g>
<g>
</g>
<g>
</g>
<g>
</g>
<g>
</g>
<g>
</g>
<g>
</g>
<g>
</g>
<g>
</g>
<g>
</g>
<g>
</g>
<g>
</g>
<g>
</g>
</svg>
