<?xml version="1.0" encoding="iso-8859-1"?>
<!-- Generator: Adobe Illustrator 19.0.0, SVG Export Plug-In . SVG Version: 6.00 Build 0)  -->
<svg version="1.1" id="Capa_1" xmlns="http://www.w3.org/2000/svg" xmlns:xlink="http://www.w3.org/1999/xlink" x="0px" y="0px"
	 viewBox="0 0 512 512" style="enable-background:new 0 0 512 512;" xml:space="preserve">
<circle style="fill:#62CD4D;" cx="422" cy="90" r="80"/>
<circle style="fill:#FF5D5D;" cx="422" cy="422" r="80"/>
<rect x="10" y="187.27" style="fill:#4DBAF6;" width="56" height="200"/>
<path style="fill:#FEDA9B;" d="M66,375.567l44.982,14.106c22.399,7.024,45.737,10.598,69.211,10.598h84.38
	c13.28,0,24.045-10.765,24.045-24.045l0,0c0-13.28-10.765-24.045-24.045-24.045h-29.349h35.675h11.392
	c13.28,0,24.045-10.765,24.045-24.045l0,0c0-13.28-10.765-24.045-24.045-24.045h-8.595h-38.472h62.298
	c13.28,0,24.045-10.765,24.045-24.045l0,0c0-13.28-10.765-24.045-24.045-24.045h-62.298H393c13.28,0,24.045-10.765,24.045-24.045
	l0,0c0-13.28-10.765-24.045-24.045-24.045H202.044l52.29-28.239c12.079-6.523,16.773-21.474,10.59-33.73l0,0
	c-5.302-10.51-17.141-15.989-28.585-13.228l-75.883,18.307c-16.365,3.948-31.787,11.094-45.379,21.026L66,207.91V375.567z"/>
<path d="M393,266c18.772,0,34.045-15.272,34.045-34.045S411.772,197.91,393,197.91h-51c-5.522,0-10,4.477-10,10s4.478,10,10,10h51
	c7.744,0,14.045,6.301,14.045,14.045S400.744,246,393,246H235.225c-5.522,0-10,4.477-10,10c0,5.522,4.478,10,10,10h62.297
	c7.744,0,14.045,6.301,14.045,14.045s-6.301,14.045-14.045,14.045h-62.297c-5.522,0-10,4.478-10,10s4.478,10,10,10h47.066
	c7.745,0,14.046,6.301,14.046,14.045c0,7.745-6.301,14.046-14.046,14.046h-47.066c-5.522,0-10,4.478-10,10s4.478,10,10,10h29.349
	c7.744,0,14.045,6.301,14.045,14.045s-6.301,14.045-14.045,14.045h-84.38c-22.486,0-44.765-3.411-66.219-10.14L76,368.223V333.5
	c0-5.522-4.478-10-10-10s-10,4.478-10,10v41.996c0,0.036,0,0.072,0,0.109v1.666H20v-180h36V251c0,5.523,4.478,10,10,10
	s10-4.477,10-10v-38.012l44.978-32.868c12.592-9.202,26.663-15.722,41.824-19.379l75.883-18.307
	c6.961-1.683,14.083,1.614,17.311,8.011c3.771,7.476,0.954,16.448-6.413,20.427l-52.29,28.239c-4.028,2.176-6.065,6.81-4.943,11.25
	s5.116,7.549,9.695,7.549H263c5.522,0,10-4.477,10-10s-4.478-10-10-10h-21.395l17.48-9.44c16.963-9.161,23.449-29.82,14.766-47.033
	c-7.432-14.729-23.819-22.311-39.858-18.445l-75.882,18.307c-17.738,4.279-34.202,11.908-48.935,22.674L76,188.217v-0.946
	c0-5.523-4.478-10-10-10H10c-5.522,0-10,4.477-10,10v200c0,5.522,4.478,10,10,10h56c4.887,0,8.95-3.509,9.821-8.143l32.169,10.088
	c23.393,7.336,47.685,11.056,72.203,11.056h84.38c18.772,0,34.045-15.272,34.045-34.045c0-5.901-1.511-11.456-4.164-16.299
	c12.782-4.907,21.883-17.303,21.883-31.792c0-6.249-1.7-12.105-4.65-17.144c11.719-5.386,19.88-17.227,19.88-30.946
	c0-5.007-1.095-9.76-3.044-14.045L393,266L393,266z"/>
<path d="M302.88,217.91c2.63,0,5.21-1.07,7.07-2.93c1.859-1.86,2.93-4.44,2.93-7.07s-1.07-5.21-2.93-7.07s-4.44-2.93-7.07-2.93
	s-5.21,1.07-7.07,2.93c-1.859,1.86-2.93,4.44-2.93,7.07s1.07,5.21,2.93,7.07C297.67,216.84,300.25,217.91,302.88,217.91z"/>
<path d="M66,280c-2.63,0-5.21,1.069-7.07,2.93S56,287.37,56,290s1.069,5.21,2.93,7.069C60.79,298.93,63.37,300,66,300
	c2.63,0,5.21-1.07,7.069-2.931C74.93,295.21,76,292.63,76,290s-1.07-5.21-2.931-7.07C71.21,281.069,68.63,280,66,280z"/>
<path d="M394.67,85.17c2.63,0,5.21-1.07,7.07-2.93c1.859-1.86,2.93-4.44,2.93-7.07s-1.07-5.21-2.93-7.07s-4.44-2.93-7.07-2.93
	c-2.641,0-5.21,1.07-7.08,2.93c-1.86,1.86-2.92,4.44-2.92,7.07s1.06,5.21,2.92,7.07S392.029,85.17,394.67,85.17z"/>
<path d="M449.33,85.17c2.64,0,5.21-1.07,7.069-2.93c1.86-1.86,2.931-4.44,2.931-7.07c0-2.64-1.07-5.21-2.931-7.07
	c-1.859-1.86-4.43-2.93-7.069-2.93c-2.63,0-5.21,1.07-7.07,2.93c-1.86,1.86-2.93,4.43-2.93,7.07c0,2.63,1.069,5.21,2.93,7.07
	S446.7,85.17,449.33,85.17z"/>
<path d="M422,180c49.626,0,90-40.374,90-90S471.626,0,422,0s-90,40.374-90,90S372.374,180,422,180z M422,20
	c38.598,0,70,31.402,70,70s-31.402,70-70,70s-70-31.402-70-70S383.402,20,422,20z"/>
<path d="M400.116,98.839c-5.335,1.426-8.505,6.907-7.079,12.243c3.501,13.102,15.411,22.252,28.963,22.252
	s25.462-9.15,28.963-22.252c1.426-5.335-1.744-10.817-7.079-12.243c-5.338-1.426-10.817,1.744-12.243,7.08
	c-1.167,4.366-5.131,7.415-9.641,7.415s-8.474-3.049-9.641-7.415C410.933,100.583,405.459,97.41,400.116,98.839z"/>
<path d="M422,332c-49.626,0-90,40.374-90,90s40.374,90,90,90s90-40.374,90-90S471.626,332,422,332z M422,492
	c-38.598,0-70-31.402-70-70s31.402-70,70-70s70,31.402,70,70S460.598,492,422,492z"/>
<path d="M401.74,414.24c1.859-1.86,2.93-4.44,2.93-7.07c0-2.64-1.07-5.21-2.93-7.07c-1.86-1.859-4.44-2.93-7.07-2.93
	c-2.641,0-5.21,1.07-7.08,2.93c-1.86,1.86-2.92,4.44-2.92,7.07s1.06,5.21,2.92,7.07c1.87,1.859,4.45,2.93,7.08,2.93
	S399.87,416.1,401.74,414.24z"/>
<path d="M449.33,397.17c-2.63,0-5.2,1.06-7.07,2.93c-1.86,1.86-2.93,4.44-2.93,7.07s1.069,5.21,2.93,7.07
	c1.86,1.859,4.44,2.93,7.07,2.93s5.21-1.07,7.069-2.93c1.86-1.86,2.931-4.44,2.931-7.07c0-2.64-1.07-5.21-2.931-7.07
	C454.54,398.229,451.96,397.17,449.33,397.17z"/>
<path d="M422,430.5c-13.552,0-25.462,9.15-28.963,22.251c-1.426,5.336,1.744,10.817,7.079,12.243
	c5.337,1.428,10.816-1.743,12.243-7.079c1.167-4.366,5.131-7.415,9.641-7.415s8.474,3.049,9.641,7.415
	c1.195,4.471,5.236,7.421,9.655,7.421c0.854,0,1.723-0.111,2.588-0.342c5.335-1.426,8.505-6.907,7.079-12.243
	C447.462,439.65,435.552,430.5,422,430.5z"/>
<g>
</g>
<g>
</g>
<g>
</g>
<g>
</g>
<g>
</g>
<g>
</g>
<g>
</g>
<g>
</g>
<g>
</g>
<g>
</g>
<g>
</g>
<g>
</g>
<g>
</g>
<g>
</g>
<g>
</g>
</svg>
