<?xml version="1.0" encoding="iso-8859-1"?>
<!-- Generator: Adobe Illustrator 19.0.0, SVG Export Plug-In . SVG Version: 6.00 Build 0)  -->
<svg version="1.1" id="Capa_1" xmlns="http://www.w3.org/2000/svg" xmlns:xlink="http://www.w3.org/1999/xlink" x="0px" y="0px"
	 viewBox="0 0 512 512" style="enable-background:new 0 0 512 512;" xml:space="preserve">
<path style="fill:#FF5D5D;" d="M431.914,132.747c-20.054,0-38.139,8.641-50.914,22.488c-12.775-13.847-30.86-22.488-50.914-22.488
	c-38.708,0-70.086,32.185-70.086,71.887c0,55.613,121,167.967,121,167.967s121-112.354,121-167.967
	C502,164.932,470.621,132.747,431.914,132.747z"/>
<path style="fill:#FEDA9B;" d="M63.918,275.505L196.716,115l9.854,11.517c14.079,16.456,17.276,39.608,8.181,59.263L184.574,251
	h175.414c15.316,0,27.732,12.416,27.732,27.732v0.536c0,15.316-12.416,27.732-27.732,27.732H231.434h74.425
	c15.316,0,27.732,12.416,27.732,27.732v0.536c0,15.316-12.416,27.732-27.732,27.732h-74.425h74.425
	c15.316,0,27.732,12.416,27.732,27.732v0.536c0,15.316-12.416,27.732-27.732,27.732h-74.425h40.5
	c15.316,0,27.732,12.416,27.732,27.732v0.536c0,15.316-12.416,27.732-27.732,27.732H127.218c-14.676,0-29.221-2.75-42.884-8.109
	l-20.416-8.007V275.505z"/>
<rect x="10" y="255.86" style="fill:#FFB954;" width="54" height="219.14"/>
<path d="M37,425.938c-5.523,0-10,4.477-10,10v0.14c0,5.523,4.477,10,10,10s10-4.477,10-10v-0.14
	C47,430.416,42.523,425.938,37,425.938z"/>
<path d="M125.387,201.22c1.864,1.541,4.121,2.292,6.365,2.292c2.879,0,5.736-1.237,7.713-3.63l0.158-0.191
	c3.519-4.257,2.92-10.561-1.337-14.079c-4.255-3.518-10.559-2.92-14.079,1.337l-0.158,0.191
	C120.531,191.398,121.129,197.701,125.387,201.22z"/>
<path d="M431.914,122.747c-18.587,0-36.66,6.717-50.914,18.691c-14.253-11.975-32.326-18.691-50.914-18.691
	c-44.16,0-80.086,36.734-80.086,81.887c0,10.416,3.318,22.408,10.082,36.366H200.22l23.607-51.02
	c10.704-23.134,6.913-50.596-9.659-69.964l-9.854-11.517c-1.918-2.242-4.719-3.537-7.681-3.499
	c-2.951,0.024-5.741,1.351-7.622,3.625l-38.078,46.022c-3.521,4.255-2.925,10.559,1.33,14.079c4.255,3.521,10.559,2.926,14.079-1.33
	l30.501-36.865l2.127,2.486c11.502,13.444,14.134,32.506,6.704,48.563l-30.177,65.219c-1.433,3.097-1.188,6.71,0.65,9.585
	c1.837,2.875,5.014,4.614,8.426,4.614h175.414c9.777,0,17.732,7.955,17.732,17.732v0.535c0,9.778-7.955,17.732-17.732,17.732
	h-54.128h-74.425c-5.523,0-10,4.477-10,10s4.477,10,10,10h74.425c4.768,0,9.094,1.901,12.284,4.974
	c0.613,0.695,1.224,1.388,1.835,2.076c2.257,2.975,3.613,6.669,3.613,10.683v0.535c0,9.778-7.955,17.732-17.732,17.732h-74.425
	c-5.523,0-10,4.477-10,10s4.477,10,10,10h74.425c9.777,0,17.732,7.955,17.732,17.732v0.535c0,9.778-7.955,17.732-17.732,17.732
	h-33.925h-40.5c-5.523,0-10,4.477-10,10s4.477,10,10,10h40.5c9.777,0,17.732,7.955,17.732,17.732v0.535
	c0,9.778-7.955,17.732-17.732,17.732H127.218c-13.481,0-26.681-2.496-39.233-7.418L74,452.097V279.006l40.647-49.128
	c3.521-4.255,2.925-10.559-1.33-14.079c-4.254-3.521-10.559-2.926-14.079,1.33l-27.169,32.837c-1.819-2.488-4.751-4.111-8.069-4.111
	H10c-5.523,0-10,4.477-10,10V475c0,5.523,4.477,10,10,10h54c5.523,0,10-4.477,10-10v-1.42l6.683,2.621
	C95.57,482.04,111.227,485,127.218,485h144.717c20.806,0,37.732-16.927,37.732-37.732v-0.535c0-6.407-1.61-12.442-4.438-17.732
	h0.631c20.806,0,37.732-16.927,37.732-37.732v-0.535c0-10.956-4.698-20.833-12.18-27.732c4.57-4.214,8.093-9.541,10.149-15.545
	c18.069,18.911,31.775,31.676,32.635,32.475c1.919,1.782,4.362,2.672,6.805,2.672s4.886-0.891,6.804-2.672
	c0.764-0.709,18.974-17.656,41.453-41.838c3.76-4.045,3.529-10.373-0.516-14.133c-4.046-3.761-10.373-3.53-14.133,0.516
	c-13.89,14.942-26.313,27.245-33.608,34.307c-8.458-8.191-23.823-23.445-40.469-41.781h19.455c20.806,0,37.732-16.927,37.732-37.732
	v-0.535c0-20.806-16.926-37.732-37.732-37.732h-77.336C272.286,222.465,270,211.066,270,204.634
	c0-34.125,26.955-61.887,60.086-61.887c16.629,0,32.1,6.843,43.563,19.269c1.894,2.052,4.558,3.219,7.35,3.219
	s5.457-1.167,7.35-3.219c11.464-12.426,26.936-19.269,43.564-19.269c33.132,0,60.086,27.763,60.086,61.887
	c0,9.647-4.963,28.095-28.607,61.196c-3.21,4.494-2.169,10.74,2.325,13.95c1.762,1.258,3.792,1.864,5.804,1.864
	c3.12,0,6.194-1.456,8.146-4.188C501.424,246.997,512,223.177,512,204.634C512,159.481,476.073,122.747,431.914,122.747z M20,465
	V265.856h34V465H20z"/>
<path d="M452.215,296.877c-4.213-3.571-10.523-3.052-14.094,1.161l-0.514,0.606c-3.572,4.212-3.052,10.523,1.161,14.094
	c1.88,1.594,4.176,2.373,6.462,2.373c2.836,0,5.655-1.2,7.632-3.533l0.514-0.606C456.947,306.759,456.427,300.449,452.215,296.877z"
	/>
<path d="M381,91.083c5.523,0,10-4.477,10-10V37c0-5.523-4.477-10-10-10s-10,4.477-10,10v44.083
	C371,86.606,375.477,91.083,381,91.083z"/>
<path d="M305.61,79.907c1.852,3.208,5.213,5.001,8.669,5.001c1.696,0,3.416-0.432,4.991-1.341c4.783-2.761,6.422-8.877,3.66-13.66
	l-13.258-22.963c-2.762-4.784-8.878-6.423-13.66-3.66c-4.783,2.761-6.422,8.877-3.66,13.66L305.61,79.907z"/>
<path d="M442.73,83.471c1.575,0.909,3.294,1.341,4.991,1.341c3.456,0,6.817-1.793,8.669-5.001l13.258-22.963
	c2.762-4.783,1.123-10.899-3.66-13.66c-4.782-2.761-10.898-1.123-13.66,3.66L439.07,69.811
	C436.308,74.594,437.947,80.709,442.73,83.471z"/>
<g>
</g>
<g>
</g>
<g>
</g>
<g>
</g>
<g>
</g>
<g>
</g>
<g>
</g>
<g>
</g>
<g>
</g>
<g>
</g>
<g>
</g>
<g>
</g>
<g>
</g>
<g>
</g>
<g>
</g>
</svg>
