<?xml version="1.0" encoding="iso-8859-1"?>
<!-- Generator: Adobe Illustrator 19.0.0, SVG Export Plug-In . SVG Version: 6.00 Build 0)  -->
<svg version="1.1" id="Capa_1" xmlns="http://www.w3.org/2000/svg" xmlns:xlink="http://www.w3.org/1999/xlink" x="0px" y="0px"
	 viewBox="0 0 511.999 511.999" style="enable-background:new 0 0 511.999 511.999;" xml:space="preserve">
<path style="fill:#4DBAF6;" d="M356.009,321.223v153.773l-60.005-46.29l-60.006,46.29V321.223H356.009z"/>
<path style="fill:#72D8FF;" d="M316.005,348.226v153.773l-60.006-46.29l-60.006,46.29V348.226H316.005z"/>
<path id="SVGCleanerId_0" style="fill:#FF5D5D;" d="M250.135,352.473l-27.908,13.032c-5.913,2.761-12.95,1.024-16.9-4.171
	l-18.748-24.666c-2.475-3.256-6.262-5.253-10.347-5.456l-30.779-1.529c-6.49-0.322-11.883-5.109-12.975-11.514l-5.244-30.762
	c-0.683-4.007-3.091-7.514-6.588-9.589L93.972,261.98c-5.56-3.3-8.099-10.006-6.12-16.161l9.576-29.781
	c1.239-3.854,0.731-8.059-1.39-11.507l-16.371-26.604c-3.384-5.499-2.522-12.606,2.077-17.138l22.185-21.854
	c2.889-2.845,4.386-6.814,4.098-10.859l-2.221-31.193c-0.46-6.464,3.62-12.384,9.825-14.255l29.586-8.92
	c3.905-1.177,7.093-4.014,8.716-7.757l12.374-28.54c2.591-5.977,8.994-9.342,15.385-8.088l30.201,5.927
	c4.022,0.789,8.187-0.242,11.376-2.816l24.022-19.395c5.08-4.101,12.334-4.101,17.414,0l24.022,19.395
	c3.189,2.574,7.354,3.606,11.376,2.816l30.2-5.927c6.393-1.254,12.795,2.111,15.386,8.089l12.37,28.538
	c1.622,3.742,4.811,6.581,8.717,7.758l29.59,8.92c6.205,1.87,10.285,7.791,9.825,14.255l-2.221,31.193
	c-0.288,4.044,1.21,8.013,4.098,10.859l22.185,21.854c4.599,4.531,5.461,11.639,2.077,17.138l-16.37,26.604
	c-2.122,3.448-2.63,7.652-1.39,11.507l9.576,29.781c1.979,6.155-0.56,12.86-6.12,16.161l-26.675,15.837
	c-3.496,2.075-5.905,5.582-6.588,9.589l-5.244,30.762c-1.092,6.405-6.487,11.192-12.975,11.514l-30.783,1.53
	c-4.085,0.203-7.873,2.2-10.348,5.457l-18.742,24.663c-3.948,5.196-10.987,6.934-16.901,4.172l-27.907-13.032
	C258.148,350.738,253.852,350.738,250.135,352.473z"/>
<g>
	<path id="SVGCleanerId_0_1_" style="fill:#FF5D5D;" d="M250.135,352.473l-27.908,13.032c-5.913,2.761-12.95,1.024-16.9-4.171
		l-18.748-24.666c-2.475-3.256-6.262-5.253-10.347-5.456l-30.779-1.529c-6.49-0.322-11.883-5.109-12.975-11.514l-5.244-30.762
		c-0.683-4.007-3.091-7.514-6.588-9.589L93.972,261.98c-5.56-3.3-8.099-10.006-6.12-16.161l9.576-29.781
		c1.239-3.854,0.731-8.059-1.39-11.507l-16.371-26.604c-3.384-5.499-2.522-12.606,2.077-17.138l22.185-21.854
		c2.889-2.845,4.386-6.814,4.098-10.859l-2.221-31.193c-0.46-6.464,3.62-12.384,9.825-14.255l29.586-8.92
		c3.905-1.177,7.093-4.014,8.716-7.757l12.374-28.54c2.591-5.977,8.994-9.342,15.385-8.088l30.201,5.927
		c4.022,0.789,8.187-0.242,11.376-2.816l24.022-19.395c5.08-4.101,12.334-4.101,17.414,0l24.022,19.395
		c3.189,2.574,7.354,3.606,11.376,2.816l30.2-5.927c6.393-1.254,12.795,2.111,15.386,8.089l12.37,28.538
		c1.622,3.742,4.811,6.581,8.717,7.758l29.59,8.92c6.205,1.87,10.285,7.791,9.825,14.255l-2.221,31.193
		c-0.288,4.044,1.21,8.013,4.098,10.859l22.185,21.854c4.599,4.531,5.461,11.639,2.077,17.138l-16.37,26.604
		c-2.122,3.448-2.63,7.652-1.39,11.507l9.576,29.781c1.979,6.155-0.56,12.86-6.12,16.161l-26.675,15.837
		c-3.496,2.075-5.905,5.582-6.588,9.589l-5.244,30.762c-1.092,6.405-6.487,11.192-12.975,11.514l-30.783,1.53
		c-4.085,0.203-7.873,2.2-10.348,5.457l-18.742,24.663c-3.948,5.196-10.987,6.934-16.901,4.172l-27.907-13.032
		C258.148,350.738,253.852,350.738,250.135,352.473z"/>
</g>
<circle style="fill:#FFFFFF;" cx="256.003" cy="188.557" r="116.051"/>
<polygon style="fill:#FFB954;" points="255.988,129.95 275.038,168.524 317.614,174.699 286.815,204.736 294.099,247.137 
	256.013,227.127 217.939,247.157 225.201,204.753 194.386,174.732 236.959,168.534 "/>
<path d="M214.455,208.248l-6.373,37.222c-0.643,3.751,0.9,7.544,3.98,9.78c1.742,1.265,3.805,1.909,5.878,1.909
	c1.593,0,3.191-0.38,4.655-1.15l33.42-17.582l33.431,17.565c3.37,1.771,7.454,1.475,10.532-0.764
	c3.079-2.238,4.62-6.031,3.976-9.782l-6.394-37.219l27.035-26.367c2.725-2.657,3.704-6.633,2.527-10.252
	c-1.178-3.62-4.308-6.258-8.075-6.805l-37.372-5.421l-16.723-33.859c-1.685-3.413-5.16-5.573-8.967-5.573h-0.003
	c-3.806,0.001-7.283,2.163-8.967,5.578l-16.704,33.869l-37.369,5.441c-3.767,0.548-6.897,3.188-8.072,6.809
	c-1.175,3.621-0.193,7.595,2.533,10.251L214.455,208.248z M238.399,178.431c3.257-0.474,6.073-2.521,7.529-5.473l10.066-20.41
	l10.077,20.404c1.457,2.951,4.273,4.996,7.531,5.469l22.523,3.266l-16.293,15.889c-2.355,2.298-3.431,5.609-2.873,8.853l3.853,22.43
	l-20.147-10.585c-2.913-1.531-6.394-1.529-9.309,0.002l-20.14,10.595l3.84-22.431c0.556-3.244-0.521-6.554-2.878-8.851l-16.3-15.88
	L238.399,178.431z"/>
<path d="M255.999,62.498c-21.638,0-42.987,5.579-61.74,16.131c-4.813,2.708-6.521,8.807-3.811,13.62
	c2.709,4.813,8.808,6.52,13.62,3.811C219.833,87.19,237.791,82.5,255.999,82.5c58.478,0,106.054,47.575,106.054,106.054
	s-47.575,106.054-106.054,106.054s-106.053-47.575-106.053-106.054c0-15.318,3.191-30.093,9.487-43.912
	c2.289-5.026,0.071-10.958-4.955-13.247c-5.026-2.29-10.957-0.071-13.247,4.955c-7.489,16.441-11.286,34.004-11.286,52.204
	c0,69.507,56.548,126.056,126.056,126.056s126.055-56.548,126.055-126.056S325.507,62.498,255.999,62.498z"/>
<path d="M170.878,119.666c2.67,0,5.334-1.063,7.303-3.166l0.193-0.207c3.774-4.032,3.566-10.361-0.466-14.136
	c-4.031-3.774-10.362-3.565-14.135,0.466l-0.193,0.207c-3.774,4.032-3.566,10.361,0.466,14.136
	C165.974,118.772,168.428,119.666,170.878,119.666z"/>
<path d="M440.849,183.168c5.859-9.524,4.387-21.656-3.578-29.503l-22.185-21.855c-0.806-0.793-1.221-1.895-1.141-3.023l2.221-31.193
	c0.798-11.207-6.158-21.298-16.914-24.54l-29.59-8.92c-1.089-0.329-1.974-1.116-2.427-2.16l-12.37-28.538
	c-4.427-10.212-15.564-16.066-26.487-13.924l-30.2,5.927c-1.122,0.221-2.278-0.065-3.167-0.784L270.989,5.261
	c-8.687-7.015-21.295-7.015-29.98-0.001l-24.022,19.395c-0.891,0.719-2.046,1.003-3.167,0.784l-30.202-5.928
	c-10.919-2.144-22.059,3.713-26.486,13.923l-12.374,28.541c-0.453,1.044-1.337,1.831-2.427,2.16l-29.586,8.92
	c-10.755,3.242-17.71,13.332-16.912,24.538l2.221,31.194c0.08,1.128-0.335,2.229-1.141,3.023l-22.185,21.854
	c-7.966,7.848-9.438,19.98-3.577,29.504l16.371,26.604c0.592,0.961,0.732,2.129,0.388,3.204l-9.577,29.781
	c-3.428,10.663,0.904,22.103,10.535,27.822l26.673,15.836c0.977,0.579,1.646,1.552,1.836,2.671l5.244,30.762
	c1.894,11.111,11.079,19.263,22.337,19.821l30.778,1.529c1.141,0.057,2.19,0.611,2.882,1.52l7.375,9.703v149.576
	c0,3.813,2.167,7.294,5.59,8.976c3.422,1.681,7.502,1.271,10.521-1.057L256,468.339l53.897,41.578
	c1.784,1.376,3.939,2.082,6.11,2.082c1.502,0,3.012-0.338,4.41-1.025c3.422-1.682,5.59-5.162,5.59-8.976v-37.515l23.894,18.433
	c1.784,1.376,3.939,2.082,6.11,2.082c1.502,0,3.012-0.338,4.41-1.025c3.422-1.682,5.589-5.162,5.589-8.976V339.722l1.031-0.051
	c11.258-0.559,20.443-8.71,22.337-19.821l5.245-30.764c0.189-1.117,0.858-2.09,1.834-2.669l26.674-15.836
	c9.631-5.719,13.963-17.159,10.534-27.822l-9.575-29.781c-0.346-1.075-0.205-2.242,0.387-3.204L440.849,183.168z M266,450.792v-16.8
	c0-5.523-4.478-10.001-10.001-10.001s-10.001,4.478-10.001,10.001v16.8l-40.004,30.861v-107.25c3.254,1.56,6.835,2.379,10.449,2.379
	c3.39,0,6.81-0.719,10.015-2.215l27.908-13.032c1.038-0.485,2.23-0.483,3.266,0l27.906,13.031
	c6.626,3.094,14.156,2.844,20.466-0.183v107.27L266,450.792z M346.008,454.65l-20.002-15.43v-86.801l7.371-9.699
	c0.691-0.909,1.741-1.463,2.881-1.52l9.75-0.484V454.65z M423.814,172.686l-16.37,26.603c-3.657,5.945-4.53,13.165-2.394,19.81
	l9.575,29.78c0.555,1.725-0.146,3.576-1.704,4.5l-26.675,15.837c-6.029,3.58-10.162,9.598-11.339,16.508l-5.244,30.762
	c-0.307,1.797-1.792,3.115-3.612,3.206l-30.783,1.529c-7.051,0.351-13.544,3.774-17.815,9.395l-18.743,24.663
	c-1.092,1.438-3.071,1.926-4.705,1.162l-27.908-13.032c-6.417-2.994-13.774-2.994-20.191,0c0,0.001,0,0.001-0.001,0.001
	l-27.908,13.032c-1.634,0.764-3.612,0.273-4.705-1.161l-7.856-10.337c-0.703-2.023-2.03-3.751-3.76-4.948l-7.13-9.382
	c-4.271-5.62-10.764-9.043-17.814-9.394l-30.779-1.529c-1.82-0.091-3.306-1.409-3.612-3.206l-5.243-30.76
	c-1.178-6.912-5.311-12.929-11.341-16.511l-26.676-15.834c-1.559-0.925-2.259-2.775-1.705-4.5l9.577-29.781
	c2.136-6.645,1.263-13.865-2.395-19.809l-16.37-26.603c-0.948-1.541-0.71-3.504,0.578-4.773l22.185-21.854
	c4.98-4.905,7.553-11.72,7.056-18.694l-2.221-31.193c-0.129-1.813,0.996-3.445,2.735-3.969l29.586-8.92
	c6.737-2.031,12.206-6.899,15.004-13.354l12.373-28.539c0.618-1.424,2.042-2.324,3.554-2.324c0.242,0,0.487,0.023,0.731,0.071
	l30.201,5.928c6.949,1.362,14.079-0.406,19.585-4.849l24.022-19.396c1.403-1.133,3.442-1.135,4.848,0.001l24.023,19.395
	c5.505,4.443,12.645,6.208,19.584,4.849l30.2-5.927c1.765-0.348,3.567,0.6,4.284,2.252l12.37,28.538
	c2.798,6.457,8.269,11.325,15.005,13.355l29.59,8.92c1.739,0.525,2.864,2.157,2.735,3.969l-2.221,31.192
	c-0.497,6.975,2.074,13.788,7.056,18.694l22.185,21.854C424.523,169.183,424.762,171.146,423.814,172.686z"/>
<path d="M255.999,384.488c-2.63,0-5.21,1.069-7.071,2.93c-1.86,1.861-2.93,4.44-2.93,7.071s1.069,5.21,2.93,7.07
	c1.86,1.86,4.44,2.931,7.071,2.931c2.63,0,5.21-1.07,7.07-2.931c1.86-1.859,2.931-4.439,2.931-7.07s-1.07-5.21-2.931-7.071
	C261.21,385.557,258.63,384.488,255.999,384.488z"/>
<g>
</g>
<g>
</g>
<g>
</g>
<g>
</g>
<g>
</g>
<g>
</g>
<g>
</g>
<g>
</g>
<g>
</g>
<g>
</g>
<g>
</g>
<g>
</g>
<g>
</g>
<g>
</g>
<g>
</g>
</svg>
