<?xml version="1.0" encoding="iso-8859-1"?>
<!-- Generator: Adobe Illustrator 19.0.0, SVG Export Plug-In . SVG Version: 6.00 Build 0)  -->
<svg version="1.1" id="Capa_1" xmlns="http://www.w3.org/2000/svg" xmlns:xlink="http://www.w3.org/1999/xlink" x="0px" y="0px"
	 viewBox="0 0 512 512" style="enable-background:new 0 0 512 512;" xml:space="preserve">
<path style="fill:#62CD4D;" d="M216.333,147H59.667C32.237,147,10,169.237,10,196.667v148.667C10,372.763,32.237,395,59.667,395
	h26.667v80l80-80h50c27.43,0,49.667-22.237,49.667-49.667V196.667C266,169.237,243.763,147,216.333,147z"/>
<path style="fill:#EDF2FA;" d="M452.667,37H215.333C188.087,37,166,59.087,166,86.333v125.333C166,238.913,188.087,261,215.333,261
	h153.178L448,340.488V261h4.667C479.913,261,502,238.913,502,211.667V86.333C502,59.087,479.913,37,452.667,37z"/>
<g>
	<polygon style="fill:#FFB954;" points="402.199,103.543 416.975,133.464 450,138.253 426.11,161.553 431.76,194.441 
		402.219,178.92 372.686,194.457 378.318,161.565 354.416,138.279 387.438,133.471 	"/>
	<polygon style="fill:#FFB954;" points="265.783,103.543 280.559,133.464 313.584,138.253 289.694,161.553 295.344,194.441 
		265.803,178.92 236.27,194.457 241.902,161.565 218,138.279 251.022,133.471 	"/>
</g>
<path d="M132.27,157c2.63,0,5.21-1.07,7.07-2.93s2.93-4.44,2.93-7.07s-1.069-5.21-2.93-7.07c-1.86-1.86-4.44-2.93-7.07-2.93
	s-5.21,1.07-7.069,2.93c-1.86,1.86-2.931,4.44-2.931,7.07s1.07,5.21,2.931,7.07C127.06,155.93,129.64,157,132.27,157z"/>
<path d="M452.667,27H382c-5.522,0-10,4.477-10,10s4.478,10,10,10h70.667C474.355,47,492,64.645,492,86.333v125.333
	C492,233.355,474.355,251,452.667,251H448c-5.522,0-10,4.477-10,10v55.346l-62.417-62.417c-1.876-1.875-4.419-2.929-7.071-2.929
	H215.333C193.645,251,176,233.355,176,211.667V86.333C176,64.645,193.645,47,215.333,47h71.938c5.522,0,10-4.477,10-10
	s-4.478-10-10-10h-71.938C182.616,27,156,53.617,156,86.333v125.333C156,244.383,182.616,271,215.333,271H256v74.333
	C256,367.205,238.205,385,216.333,385h-50c-2.652,0-5.195,1.054-7.071,2.929l-62.929,62.929V395c0-5.522-4.478-10-10-10H59.667
	C37.795,385,20,367.205,20,345.333V196.667C20,174.794,37.795,157,59.667,157H87c5.522,0,10-4.477,10-10s-4.478-10-10-10H59.667
	C26.767,137,0,163.766,0,196.667v148.667C0,378.233,26.767,405,59.667,405h16.666v70c0,4.045,2.437,7.691,6.173,9.239
	c1.237,0.512,2.537,0.761,3.825,0.761c2.603,0,5.16-1.016,7.073-2.929L170.476,405h45.857c32.9,0,59.667-26.767,59.667-59.667V271
	h88.369l76.56,76.56c1.913,1.913,4.471,2.929,7.073,2.929c1.288,0,2.588-0.249,3.825-0.761c3.736-1.548,6.173-5.194,6.173-9.239
	v-69.726c30.228-2.705,54-28.177,54-59.096V86.333C512,53.617,485.384,27,452.667,27z"/>
<path d="M334,47c2.63,0,5.21-1.07,7.069-2.93C342.93,42.21,344,39.63,344,37s-1.07-5.21-2.931-7.07C339.21,28.07,336.63,27,334,27
	s-5.21,1.07-7.07,2.93C325.07,31.79,324,34.37,324,37s1.069,5.21,2.93,7.07S331.37,47,334,47z"/>
<path d="M367.574,165.06l-4.744,27.709c-0.643,3.751,0.9,7.543,3.98,9.779c1.742,1.265,3.805,1.908,5.877,1.908
	c1.593,0,3.191-0.38,4.655-1.15l24.879-13.088l24.887,13.075c3.37,1.771,7.453,1.475,10.531-0.764
	c3.079-2.238,4.62-6.03,3.976-9.781l-4.759-27.707l20.126-19.628c2.725-2.658,3.704-6.632,2.527-10.252s-4.308-6.257-8.074-6.804
	l-27.821-4.035l-12.449-25.207c-1.685-3.412-5.16-5.572-8.966-5.572c-0.001,0-0.002,0-0.003,0c-3.806,0.001-7.282,2.163-8.966,5.577
	l-12.435,25.213l-27.82,4.05c-3.767,0.548-6.896,3.188-8.071,6.808c-1.175,3.621-0.193,7.594,2.533,10.25L367.574,165.06z
	 M388.879,143.367c3.257-0.474,6.072-2.521,7.528-5.472l5.798-11.756l5.805,11.753c1.457,2.951,4.273,4.996,7.53,5.468l12.973,1.881
	l-9.385,9.152c-2.355,2.298-3.431,5.608-2.873,8.852l2.219,12.919l-11.604-6.097c-2.914-1.531-6.394-1.529-9.308,0.002l-11.6,6.103
	l2.212-12.92c0.556-3.244-0.521-6.554-2.878-8.85l-9.39-9.147L388.879,143.367z"/>
<path d="M274.748,99.115c-1.685-3.412-5.16-5.572-8.966-5.572c-0.001,0-0.002,0-0.003,0c-3.807,0.001-7.282,2.163-8.966,5.577
	l-12.435,25.213l-27.819,4.05c-3.767,0.548-6.896,3.188-8.071,6.808c-1.175,3.621-0.193,7.594,2.533,10.25l20.137,19.618
	l-4.745,27.709c-0.643,3.752,0.9,7.543,3.98,9.78c1.742,1.265,3.805,1.908,5.877,1.908c1.593,0,3.191-0.38,4.654-1.15l24.881-13.088
	l24.887,13.075c3.37,1.771,7.453,1.475,10.531-0.764c3.079-2.238,4.62-6.03,3.976-9.781l-4.759-27.707l20.126-19.628
	c2.725-2.658,3.704-6.632,2.527-10.252s-4.308-6.257-8.074-6.804l-27.822-4.035L274.748,99.115z M282.712,154.394
	c-2.355,2.298-3.431,5.608-2.873,8.852l2.219,12.919l-11.604-6.097c-2.913-1.531-6.394-1.529-9.307,0.002l-11.602,6.103
	l2.213-12.919c0.556-3.244-0.521-6.554-2.878-8.851l-9.39-9.147l12.972-1.889c3.257-0.474,6.072-2.521,7.528-5.473l5.798-11.756
	l5.805,11.753c1.457,2.951,4.273,4.996,7.53,5.468l12.973,1.881L282.712,154.394z"/>
<path d="M132.271,189H78.27c-5.522,0-10,4.477-10,10s4.478,10,10,10h54.001c5.522,0,10-4.477,10-10S137.793,189,132.271,189z"/>
<path d="M78.27,257h54.001c5.522,0,10-4.477,10-10s-4.478-10-10-10H78.27c-5.522,0-10,4.477-10,10S72.747,257,78.27,257z"/>
<path d="M194.73,285H78.27c-5.522,0-10,4.478-10,10s4.478,10,10,10h116.46c5.522,0,10-4.478,10-10S200.253,285,194.73,285z"/>
<path d="M194.73,333H136.5c-5.522,0-10,4.478-10,10s4.478,10,10,10h58.23c5.522,0,10-4.478,10-10S200.253,333,194.73,333z"/>
<g>
</g>
<g>
</g>
<g>
</g>
<g>
</g>
<g>
</g>
<g>
</g>
<g>
</g>
<g>
</g>
<g>
</g>
<g>
</g>
<g>
</g>
<g>
</g>
<g>
</g>
<g>
</g>
<g>
</g>
</svg>
