<?xml version="1.0" encoding="iso-8859-1"?>
<!-- Generator: Adobe Illustrator 19.0.0, SVG Export Plug-In . SVG Version: 6.00 Build 0)  -->
<svg version="1.1" id="Capa_1" xmlns="http://www.w3.org/2000/svg" xmlns:xlink="http://www.w3.org/1999/xlink" x="0px" y="0px"
	 viewBox="0 0 512 512" style="enable-background:new 0 0 512 512;" xml:space="preserve">
<path style="fill:#2E9DE3;" d="M436.335,101.005H139.676c-36.266,0-65.665,29.399-65.665,65.665v172.662
	c0,36.266,29.399,65.665,65.665,65.665h106.506l41.823,69.998l41.823-69.998h106.506c36.266,0,65.665-29.399,65.665-65.665V166.669
	C502,130.404,472.601,101.005,436.335,101.005z"/>
<path style="fill:#EDF2FA;" d="M144.996,340.998l-56.05,56.05v-56.05H75.665C39.399,340.998,10,311.599,10,275.334V102.671
	c0-36.266,29.399-65.665,65.665-65.665h296.659c36.266,0,65.665,29.399,65.665,65.665v172.663c0,36.266-29.399,65.665-65.665,65.665
	L144.996,340.998L144.996,340.998z"/>
<path style="fill:#FFEFD5;" d="M267.441,138.279v44.496c0.53,6.936,3.912,13.111,9.034,16.493l26.629,15.224
	c5.347,3.532,11.849,3.532,17.197,0l26.55-15.224c5.121-3.382,8.583-9.557,9.113-16.493v-44.496L267.441,138.279L267.441,138.279z"
	/>
<path style="fill:#FFB954;" d="M259.324,132.236c0,9.178,3.361,13.868,13.589,13.868h62.548c15.813,0,28.631-12.819,28.631-28.631
	V91.927c0-2.415-2.743-3.769-4.687-2.337c-2.969,2.189-7.17,4.384-12.073,4.384h-66.722c-11.557,0-20.957,9.207-21.283,20.684
	l-0.016-0.071L259.324,132.236z"/>
<path style="fill:#FF5D5D;" d="M293.731,213.809v7.372c0,6.44-4.548,11.983-10.863,13.241l-29.594,5.897
	c-13,2.59-22.818,13.312-24.258,26.488l-2.425,22.192h170.226l-2.419-22.185c-1.437-13.181-11.257-23.905-24.259-26.496
	l-29.588-5.895c-6.316-1.258-10.863-6.802-10.863-13.241v-7.372L293.731,213.809L293.731,213.809z"/>
<path d="M447.197,91.803c-5.287-36.59-36.842-64.797-74.873-64.797H75.665C33.943,27.006,0,60.949,0,102.671v172.663
	c0,41.722,33.943,75.665,75.665,75.665h3.282v46.05c0,4.045,2.437,7.691,6.173,9.238c1.237,0.513,2.537,0.762,3.825,0.762
	c2.603,0,5.16-1.016,7.073-2.929l53.121-53.121h223.184c41.722,0,75.665-33.943,75.665-75.665V112.235
	C473.205,117.63,492,140.199,492,166.669v172.663c0,30.693-24.971,55.665-55.666,55.665H329.829c-3.52,0-6.779,1.85-8.584,4.871
	l-33.239,55.631l-33.239-55.631c-1.805-3.021-5.064-4.871-8.584-4.871H139.676c-5.522,0-10,4.478-10,10c0,5.522,4.478,10,10,10
	h100.832l38.913,65.127c1.805,3.021,5.064,4.871,8.584,4.871s6.779-1.85,8.584-4.871l38.913-65.127h100.832
	c41.722,0,75.665-33.942,75.665-75.664V166.669C512,128.975,483.95,97.114,447.197,91.803z M427.989,275.333
	c0,30.694-24.971,55.666-55.666,55.666H144.996c-2.652,0-5.195,1.054-7.071,2.929l-38.978,38.978v-31.907c0-5.522-4.478-10-10-10
	H75.665c-30.694,0-55.666-24.97-55.666-55.666V102.671c0-30.694,24.971-55.666,55.666-55.666h296.658
	c30.694,0,55.666,24.971,55.666,55.666L427.989,275.333L427.989,275.333z"/>
<path d="M404.338,265.731c-1.919-17.606-14.878-31.76-32.246-35.221l-29.589-5.896c-1.633-0.325-2.817-1.769-2.817-3.433v-6.278
	l12.141-6.962c0.182-0.104,0.36-0.214,0.535-0.33c7.738-5.109,12.813-14.109,13.574-24.075c0.02-0.253,0.029-0.508,0.029-0.762
	v-41.637c5.088-6.543,8.129-14.753,8.129-23.663V91.927c0-4.902-2.716-9.319-7.088-11.528c-4.385-2.216-9.571-1.778-13.531,1.141
	c-1.507,1.111-3.796,2.435-6.141,2.435h-66.722c-16.78,0-30.349,12.925-31.244,29.574c-0.036,0.344-0.054,0.693-0.054,1.046
	l0.012,17.648c0.001,8.895,2.817,15.462,8.117,19.435v31.096c0,0.254,0.01,0.509,0.029,0.762
	c0.765,10.001,5.81,19.001,13.495,24.075c0.179,0.118,0.361,0.23,0.547,0.336l12.219,6.985v6.247c0,1.665-1.185,3.108-2.817,3.434
	l-29.594,5.897c-17.363,3.459-30.321,17.609-32.245,35.21l-2.425,22.191c-0.309,2.824,0.599,5.646,2.495,7.762
	c1.896,2.116,4.604,3.324,7.445,3.324h170.225c2.841,0,5.548-1.208,7.444-3.323c1.896-2.114,2.805-4.937,2.497-7.761
	L404.338,265.731z M269.324,114.943c0.174-6.15,5.132-10.968,11.287-10.968h66.722c2.255,0,4.52-0.294,6.76-0.87v14.37
	c0,10.273-8.358,18.631-18.632,18.631h-62.548c-1.824,0-2.793-0.213-3.222-0.346c-0.139-0.45-0.367-1.496-0.367-3.522
	c0-0.002,0-0.004,0-0.007l-0.012-17.019C269.317,115.123,269.321,115.033,269.324,114.943z M277.441,182.344v-26.24h58.02
	c3.641,0,7.161-0.517,10.503-1.463v27.701c-0.355,3.559-2.022,6.745-4.417,8.439l-26.22,15.036
	c-0.182,0.104-0.361,0.214-0.536,0.331c-1.992,1.314-4.184,1.314-6.176,0c-0.179-0.118-0.361-0.231-0.548-0.337l-26.291-15.031
	C279.432,189.115,277.797,185.93,277.441,182.344z M237.742,278.999l1.213-11.105c0.972-8.883,7.511-16.023,16.273-17.769
	l29.593-5.897c9.455-1.884,16.661-9.365,18.462-18.558c2.739,0.976,5.579,1.475,8.421,1.475c2.846,0,5.689-0.5,8.43-1.478
	c1.8,9.196,9.006,16.677,18.462,18.561l29.588,5.896c8.765,1.746,15.305,8.889,16.272,17.773L385.665,279H237.742V278.999z"/>
<path d="M63.998,119.003h158.746c5.522,0,10-4.477,10-10c0-5.523-4.478-10-10-10H63.998c-5.522,0-10,4.477-10,10
	C53.999,114.527,58.477,119.003,63.998,119.003z"/>
<path d="M63.998,172.336h158.746c5.522,0,10-4.477,10-10c0-5.523-4.478-10-10-10H63.998c-5.522,0-10,4.477-10,10
	C53.999,167.859,58.477,172.336,63.998,172.336z"/>
<path d="M63.998,225.668h158.746c5.522,0,10-4.477,10-10c0-5.523-4.478-10-10-10H63.998c-5.522,0-10,4.477-10,10
	C53.999,221.191,58.477,225.668,63.998,225.668z"/>
<path d="M145.746,259H63.998c-5.522,0-10,4.478-10,10s4.478,10,10,10h81.748c5.522,0,10-4.478,10-10S151.268,259,145.746,259z"/>
<path d="M188.196,259h-0.095c-5.522,0-9.953,4.478-9.953,10s4.525,10,10.048,10s10-4.478,10-10S193.719,259,188.196,259z"/>
<g>
</g>
<g>
</g>
<g>
</g>
<g>
</g>
<g>
</g>
<g>
</g>
<g>
</g>
<g>
</g>
<g>
</g>
<g>
</g>
<g>
</g>
<g>
</g>
<g>
</g>
<g>
</g>
<g>
</g>
</svg>
