<?xml version="1.0" encoding="iso-8859-1"?>
<!-- Generator: Adobe Illustrator 19.0.0, SVG Export Plug-In . SVG Version: 6.00 Build 0)  -->
<svg version="1.1" id="Capa_1" xmlns="http://www.w3.org/2000/svg" xmlns:xlink="http://www.w3.org/1999/xlink" x="0px" y="0px"
	 viewBox="0 0 512 512" style="enable-background:new 0 0 512 512;" xml:space="preserve">
<path style="fill:#C9F3FF;" d="M323.005,37.006h-134.01C90.139,37.006,10,117.145,10,216.002l0,0
	c0,98.856,80.139,178.995,178.995,178.995h27.006v79.998L296,394.997h27.006c98.857,0,178.995-80.139,178.995-178.995l0,0
	C502,117.145,421.861,37.006,323.005,37.006z"/>
<circle style="fill:#62CD4D;" cx="143.586" cy="215.505" r="79.998"/>
<path d="M215.999,484.995c-1.288,0-2.587-0.249-3.824-0.761c-3.737-1.548-6.173-5.194-6.173-9.239v-69.998h-17.007
	C84.783,404.997,0,320.214,0,216.002S84.783,27.006,188.995,27.006h32.012c5.523,0,10,4.477,10,10s-4.477,10-10,10h-32.012
	c-93.185,0-168.996,75.811-168.996,168.996s75.811,168.996,168.996,168.996h27.006c5.523,0,10,4.478,10,10v55.856l62.927-62.927
	c1.875-1.875,4.418-2.929,7.071-2.929h27.005c93.185,0,168.996-75.811,168.996-168.996S416.189,47.005,323.005,47.005h-13.333
	c-5.523,0-10-4.477-10-10s4.477-10,10-10h13.333C427.217,27.005,512,111.788,512,216.001s-84.783,188.995-188.995,188.995h-22.863
	l-77.069,77.069C221.159,483.979,218.601,484.995,215.999,484.995z"/>
<path d="M262.506,47.006c-2.63,0-5.21-1.07-7.07-2.93c-1.86-1.86-2.93-4.44-2.93-7.07c0-2.63,1.07-5.21,2.93-7.07
	c1.86-1.86,4.44-2.93,7.07-2.93c2.63,0,5.21,1.07,7.07,2.93c1.86,1.86,2.93,4.44,2.93,7.07c0,2.63-1.07,5.21-2.93,7.07
	C267.716,45.936,265.136,47.006,262.506,47.006z"/>
<path d="M116.68,210.672c-2.64,0-5.21-1.07-7.07-2.93c-1.87-1.86-2.93-4.44-2.93-7.07s1.06-5.21,2.93-7.07
	c1.86-1.86,4.43-2.93,7.07-2.93c2.63,0,5.21,1.07,7.07,2.93c1.86,1.86,2.93,4.44,2.93,7.07s-1.07,5.21-2.93,7.07
	S119.31,210.672,116.68,210.672z"/>
<path d="M171.339,210.672c-2.63,0-5.21-1.07-7.07-2.93s-2.93-4.44-2.93-7.07s1.07-5.21,2.93-7.07c1.86-1.86,4.44-2.93,7.07-2.93
	c2.64,0,5.21,1.07,7.07,2.93c1.87,1.86,2.93,4.44,2.93,7.07s-1.06,5.21-2.93,7.07C176.549,209.601,173.979,210.672,171.339,210.672z
	"/>
<path d="M144.009,305.499c-49.625,0-89.998-40.373-89.998-89.998s40.373-89.998,89.998-89.998s89.998,40.373,89.998,89.998
	S193.634,305.499,144.009,305.499z M144.009,145.503c-38.597,0-69.998,31.401-69.998,69.998s31.401,69.998,69.998,69.998
	s69.998-31.401,69.998-69.998S182.606,145.503,144.009,145.503z"/>
<path d="M144.009,258.833c-13.553,0-25.462-9.15-28.962-22.251c-1.425-5.336,1.744-10.817,7.08-12.242
	c5.336-1.425,10.817,1.744,12.242,7.08c1.167,4.366,5.131,7.415,9.641,7.415c4.51,0,8.474-3.049,9.641-7.415
	c1.425-5.336,6.906-8.506,12.242-7.08c5.336,1.425,8.505,6.906,7.08,12.242C169.472,249.684,157.562,258.833,144.009,258.833z"/>
<circle style="fill:#FF5D5D;" cx="368.001" cy="215.505" r="79.998"/>
<path d="M368.004,305.499c-49.625,0-89.998-40.373-89.998-89.998s40.373-89.998,89.998-89.998s89.998,40.373,89.998,89.998
	S417.628,305.499,368.004,305.499z M368.004,145.503c-38.597,0-69.998,31.401-69.998,69.998s31.401,69.998,69.998,69.998
	s69.998-31.401,69.998-69.998S406.601,145.503,368.004,145.503z"/>
<path d="M340.674,210.672c-2.64,0-5.21-1.07-7.07-2.93c-1.87-1.86-2.93-4.44-2.93-7.07s1.06-5.21,2.93-7.07
	c1.86-1.86,4.43-2.93,7.07-2.93c2.63,0,5.21,1.07,7.07,2.93c1.86,1.86,2.93,4.44,2.93,7.07s-1.07,5.21-2.93,7.07
	C345.884,209.602,343.304,210.672,340.674,210.672z"/>
<path d="M395.333,210.672c-2.63,0-5.21-1.07-7.07-2.93c-1.86-1.86-2.93-4.44-2.93-7.07s1.07-5.21,2.93-7.07
	c1.86-1.86,4.44-2.93,7.07-2.93c2.64,0,5.21,1.07,7.07,2.93c1.87,1.86,2.93,4.44,2.93,7.07s-1.06,5.21-2.93,7.07
	C400.543,209.601,397.973,210.672,395.333,210.672z"/>
<path d="M387.299,258.836c-4.418,0-8.46-2.95-9.655-7.421c-1.167-4.366-5.131-7.415-9.641-7.415s-8.474,3.049-9.641,7.415
	c-1.426,5.336-6.907,8.501-12.242,7.081c-5.336-1.426-8.505-6.907-7.08-12.243c3.5-13.102,15.41-22.251,28.962-22.251
	s25.462,9.15,28.962,22.251c1.425,5.336-1.744,10.817-7.08,12.243C389.022,258.725,388.153,258.836,387.299,258.836z"/>
<g>
</g>
<g>
</g>
<g>
</g>
<g>
</g>
<g>
</g>
<g>
</g>
<g>
</g>
<g>
</g>
<g>
</g>
<g>
</g>
<g>
</g>
<g>
</g>
<g>
</g>
<g>
</g>
<g>
</g>
</svg>
