<?xml version="1.0" encoding="iso-8859-1"?>
<!-- Generator: Adobe Illustrator 19.0.0, SVG Export Plug-In . SVG Version: 6.00 Build 0)  -->
<svg version="1.1" id="Capa_1" xmlns="http://www.w3.org/2000/svg" xmlns:xlink="http://www.w3.org/1999/xlink" x="0px" y="0px"
	 viewBox="0 0 512 512" style="enable-background:new 0 0 512 512;" xml:space="preserve">
<circle style="fill:#62CD4D;" cx="256" cy="256" r="246"/>
<g>
	<path style="fill:#FFFFFF;" d="M213.226,133v55.989c-35.929,3.269-53.889,29.281-53.889,78.034h40.629
		c13.275,0,24.037,10.762,24.037,24.037v63.904c0,13.275-10.762,24.037-24.037,24.037h-74.681
		c-13.275,0-24.037-10.762-24.037-24.037v-84.091C101.249,183.16,138.571,137.199,213.226,133z"/>
	<path style="fill:#FFFFFF;" d="M399.974,133v55.989c-35.929,3.269-53.889,29.281-53.889,78.034h40.629
		c13.275,0,24.037,10.762,24.037,24.037v63.904c0,13.275-10.762,24.037-24.037,24.037h-74.681
		c-13.275,0-24.037-10.762-24.037-24.037v-84.091C287.997,183.16,325.319,137.199,399.974,133z"/>
</g>
<path d="M256,512c-68.38,0-132.667-26.629-181.019-74.98C26.628,388.667,0,324.38,0,256S26.628,123.333,74.981,74.981
	C123.333,26.628,187.62,0,256,0c52.785,0,103.468,15.936,146.57,46.085c4.525,3.166,5.628,9.4,2.462,13.926s-9.4,5.628-13.926,2.462
	C351.382,34.688,304.663,20,256,20C125.869,20,20,125.869,20,256s105.869,236,236,236s236-105.869,236-236
	c0-47.623-14.114-93.512-40.817-132.707c-3.11-4.564-1.931-10.785,2.634-13.895s10.785-1.931,13.895,2.634
	C496.685,154.561,512,204.344,512,256c0,68.38-26.628,132.667-74.981,181.02C388.667,485.371,324.38,512,256,512z"/>
<path d="M430.291,92.395c-2.559,0-5.119-0.976-7.071-2.929l-0.342-0.343c-3.905-3.905-3.905-10.237,0-14.143
	c3.905-3.905,10.237-3.905,14.143,0l0.342,0.343c3.905,3.905,3.905,10.237,0,14.143C435.409,91.418,432.85,92.395,430.291,92.395z"
	/>
<path d="M199.966,389h-74.681c-18.768,0-34.037-15.269-34.037-34.037v-84.091c0-46.007,10.171-81.858,30.231-106.558
	c20.425-25.149,51.104-39.044,91.185-41.299c2.742-0.151,5.433,0.828,7.431,2.717s3.13,4.518,3.13,7.267v55.989
	c0,5.172-3.943,9.49-9.094,9.959c-18.053,1.643-41.689,9.64-44.515,58.075h30.349c18.768,0,34.037,15.269,34.037,34.037v63.903
	C234.003,373.731,218.734,389,199.966,389z M203.226,143.896c-29.301,3.466-51.031,14.323-66.222,33.027
	c-17.09,21.043-25.756,52.652-25.756,93.949v84.091c0,7.74,6.297,14.037,14.037,14.037h74.681c7.74,0,14.037-6.297,14.037-14.037
	V291.06c0-7.74-6.297-14.037-14.037-14.037h-40.629c-5.523,0-10-4.478-10-10c0-60.923,27.5-81.217,53.889-86.658L203.226,143.896
	L203.226,143.896z"/>
<path d="M386.714,389h-74.681c-18.768,0-34.037-15.269-34.037-34.037V349.5c0-5.522,4.477-10,10-10s10,4.478,10,10v5.463
	c0,7.74,6.297,14.037,14.037,14.037h74.681c7.74,0,14.037-6.297,14.037-14.037V291.06c0-7.74-6.297-14.037-14.037-14.037h-40.629
	c-5.523,0-10-4.478-10-10c0-60.923,27.5-81.216,53.889-86.658v-36.468c-29.302,3.466-51.031,14.323-66.222,33.027
	c-17.09,21.043-25.755,52.652-25.755,93.949v3.461c0,5.522-4.477,10-10,10s-10-4.478-10-10v-3.461
	c0-46.007,10.171-81.858,30.23-106.558c20.425-25.149,51.104-39.044,91.186-41.299c2.742-0.151,5.433,0.828,7.431,2.717
	s3.13,4.518,3.13,7.267v55.989c0,5.172-3.943,9.49-9.094,9.959c-18.053,1.643-41.689,9.641-44.515,58.075h30.349
	c18.768,0,34.037,15.269,34.037,34.037v63.903C420.751,373.731,405.482,389,386.714,389z"/>
<path d="M287.997,320c-5.523,0-10-4.478-10-10v-0.417c0-5.522,4.477-10,10-10s10,4.478,10,10V310
	C297.997,315.522,293.52,320,287.997,320z"/>
<g>
</g>
<g>
</g>
<g>
</g>
<g>
</g>
<g>
</g>
<g>
</g>
<g>
</g>
<g>
</g>
<g>
</g>
<g>
</g>
<g>
</g>
<g>
</g>
<g>
</g>
<g>
</g>
<g>
</g>
</svg>
