<?xml version="1.0" encoding="iso-8859-1"?>
<!-- Generator: Adobe Illustrator 19.0.0, SVG Export Plug-In . SVG Version: 6.00 Build 0)  -->
<svg version="1.1" id="Capa_1" xmlns="http://www.w3.org/2000/svg" xmlns:xlink="http://www.w3.org/1999/xlink" x="0px" y="0px"
	 viewBox="0 0 512.001 512.001" style="enable-background:new 0 0 512.001 512.001;" xml:space="preserve">
<path style="fill:#6A80FF;" d="M106.501,313.414v148.583c0,22.091,17.909,40,40,40h231.999c22.091,0,40-17.909,40-40V314.582
	V198.583V50c0-22.091-17.909-40-40-40H146.501c-22.091,0-40,17.909-40,40v147.415C106.501,197.415,106.501,313.414,106.501,313.414z
	"/>
<rect x="106.5" y="64" style="fill:#C9F3FF;" width="311.998" height="383.998"/>
<circle style="fill:#62CD4D;" cx="262.499" cy="255.999" r="91.999"/>
<g>
	<path style="fill:#FEDA9B;" d="M428.499,501.997l37.349-86.593c4.388-10.173,6.651-21.136,6.651-32.216V221.583
		c0-17.121-13.879-31-31-31l0,0c-17.121,0-31,13.879-31,31v88.908l-9.131,6.322c-38.758,26.836-61.884,70.978-61.884,118.118v67.067
		H428.499z"/>
	<path style="fill:#FEDA9B;" d="M103.924,416.852l-46.392-14.253c-10.716-3.292-18.031-13.191-18.031-24.402l0,0
		c0-17.171,16.611-29.445,33.025-24.402l46.392,14.253c10.716,3.292,18.031,13.191,18.031,24.402l0,0
		C136.949,409.62,120.338,421.894,103.924,416.852z"/>
	<path style="fill:#FEDA9B;" d="M103.924,363.441l-46.392-14.253c-10.716-3.292-18.031-13.191-18.031-24.402l0,0
		c0-17.171,16.611-29.445,33.025-24.402l46.392,14.253c10.716,3.292,18.031,13.191,18.031,24.402l0,0
		C136.949,356.209,120.338,368.483,103.924,363.441z"/>
	<path style="fill:#FEDA9B;" d="M103.924,310.029l-46.392-14.253c-10.716-3.292-18.031-13.191-18.031-24.402l0,0
		c0-17.171,16.611-29.445,33.025-24.402l46.392,14.253c10.716,3.292,18.031,13.191,18.031,24.402l0,0
		C136.949,302.798,120.338,315.072,103.924,310.029z"/>
	<path style="fill:#FEDA9B;" d="M103.924,256.618l-46.392-14.253c-10.716-3.292-18.031-13.191-18.031-24.402l0,0
		c0-17.171,16.611-29.445,33.025-24.402l46.392,14.253c10.716,3.292,18.031,13.191,18.031,24.402l0,0
		C136.949,249.388,120.338,261.661,103.924,256.618z"/>
</g>
<path d="M143.491,54c-2.64,0-5.21,1.07-7.07,2.93c-1.87,1.86-2.93,4.44-2.93,7.07c0,2.63,1.06,5.21,2.93,7.07
	c1.86,1.86,4.43,2.93,7.07,2.93c2.63,0,5.21-1.07,7.07-2.93c1.86-1.86,2.93-4.44,2.93-7.07c0-2.63-1.07-5.21-2.93-7.07
	S146.122,54,143.491,54z"/>
<path d="M441.499,180.583c-4.544,0-8.912,0.754-13,2.125V50c0-27.57-22.43-50-50-50H146.501c-27.57,0-50,22.43-50,50v140.466
	l-21.038-6.464c-10.887-3.345-22.386-1.381-31.547,5.387c-9.161,6.769-14.415,17.184-14.415,28.574
	c0,10.543,4.551,20.155,12.082,26.732c-7.707,6.739-12.082,16.299-12.082,26.679c0,10.543,4.551,20.155,12.082,26.732
	c-7.707,6.739-12.082,16.299-12.082,26.679c0,10.543,4.551,20.155,12.082,26.732c-7.707,6.739-12.082,16.299-12.082,26.679
	c0,15.702,10.084,29.351,25.094,33.961l41.906,12.875v36.967c0,27.57,22.43,50,50,50h192.983c5.523,0,10-4.478,10-10v-67.066
	c0-43.851,21.524-84.935,57.577-109.896l9.131-6.322c2.698-1.868,4.308-4.94,4.308-8.222v-88.907c0-11.58,9.42-21,21-21
	s21,9.42,21,21V383.19c0,9.774-1.963,19.28-5.833,28.255l-37.349,86.594c-2.188,5.07,0.15,10.955,5.222,13.143
	c1.291,0.557,2.634,0.82,3.956,0.82c3.871,0,7.557-2.262,9.187-6.043l37.349-86.591c4.957-11.491,7.469-23.662,7.469-36.177V221.583
	C482.499,198.976,464.107,180.583,441.499,180.583z M55.801,205.476c2.723-2.012,5.918-3.053,9.181-3.053
	c1.535,0,3.085,0.23,4.607,0.698l46.392,14.253c6.56,2.016,10.968,7.98,10.968,14.843c0,4.978-2.296,9.53-6.3,12.488
	c-4.003,2.958-9.029,3.817-13.788,2.354l-46.392-14.253c-6.56-2.016-10.968-7.98-10.968-14.843
	C49.501,212.986,51.798,208.434,55.801,205.476z M60.469,339.628c-6.56-2.015-10.967-7.979-10.967-14.843
	c0-4.979,2.296-9.53,6.3-12.489c2.723-2.012,5.918-3.052,9.181-3.052c1.533,0,3.082,0.23,4.603,0.696l31.402,9.648h0.002
	l14.992,4.606c6.561,2.017,10.968,7.981,10.968,14.844c0,4.979-2.296,9.53-6.3,12.489c-4.003,2.958-9.027,3.815-13.785,2.355
	l-9.448-2.903L60.469,339.628z M64.982,255.834c1.535,0,3.085,0.23,4.607,0.698l46.391,14.252
	c6.561,2.017,10.968,7.981,10.968,14.844c0,4.979-2.296,9.53-6.3,12.489c-4.003,2.958-9.028,3.814-13.785,2.355l-9.448-2.903
	l-36.947-11.352c-6.56-2.015-10.967-7.979-10.967-14.843c0-4.979,2.296-9.53,6.3-12.488
	C58.524,256.874,61.719,255.834,64.982,255.834z M49.501,378.196c0-4.979,2.296-9.53,6.3-12.489
	c2.723-2.012,5.918-3.052,9.181-3.052c1.533,0,3.082,0.23,4.603,0.696l31.402,9.648h0.002l14.992,4.606
	c6.561,2.017,10.968,7.981,10.968,14.844c0,4.979-2.296,9.53-6.3,12.489c-4.004,2.958-9.029,3.817-13.788,2.354l-46.393-14.254
	C53.909,391.024,49.501,385.06,49.501,378.196z M116.501,461.997v-4h212.983v34H146.501
	C129.959,491.997,116.501,478.539,116.501,461.997z M400.499,221.583v83.669l-4.824,3.34
	c-41.447,28.698-66.191,75.929-66.191,126.34v3.066H116.501v-10.364c5.706-0.821,11.197-3.037,16.033-6.61
	c9.161-6.769,14.415-17.184,14.415-28.574c0-10.542-4.551-20.154-12.082-26.731c7.708-6.739,12.082-16.299,12.082-26.68
	c0-10.542-4.551-20.154-12.082-26.732c7.707-6.739,12.082-16.299,12.082-26.679c0-10.542-4.551-20.154-12.082-26.732
	c7.707-6.739,12.082-16.299,12.082-26.679c0-15.702-10.084-29.349-25.094-33.961l-5.354-1.645V50c0-16.542,13.458-30,30-30h231.999
	c16.542,0,30,13.458,30,30v4H178.988c-5.523,0-10,4.477-10,10s4.477,10,10,10H408.5v123.287
	C403.476,204.091,400.499,212.495,400.499,221.583z"/>
<path d="M263.5,357.998c-27.245,0-52.859-10.609-72.125-29.875c-14.869-14.869-24.658-33.638-28.309-54.275
	c-3.567-20.161-1.072-40.669,7.213-59.309c2.244-5.047,8.153-7.318,13.2-5.076c5.046,2.243,7.319,8.153,5.076,13.2
	c-13.686,30.789-6.869,67.487,16.962,91.317c15.489,15.488,36.081,24.017,57.983,24.017s42.495-8.529,57.983-24.018
	c31.972-31.972,31.972-83.994,0-115.964c-24.075-24.076-59.772-30.799-90.945-17.126c-5.058,2.218-10.956-0.085-13.174-5.142
	c-2.218-5.058,0.084-10.956,5.142-13.174c18.597-8.155,39.03-10.564,59.09-6.965c20.541,3.686,39.225,13.459,54.031,28.265
	c39.77,39.77,39.77,104.48,0,144.249C316.36,347.389,290.746,357.998,263.5,357.998z"/>
<path d="M198.411,200.935c-2.542,0-5.082-0.969-7.027-2.914l-0.06-0.06c-3.905-3.905-3.905-10.237,0-14.143
	c3.905-3.905,10.237-3.905,14.143,0c3.905,3.905,3.935,10.267,0.03,14.172C203.536,199.951,200.973,200.935,198.411,200.935z"/>
<path d="M260.628,287.352c-2.56,0-5.118-0.976-7.071-2.929l-31.308-31.308c-3.905-3.905-3.905-10.237,0-14.143
	c3.905-3.905,10.237-3.905,14.143,0l24.237,24.237l44.596-44.595c3.905-3.904,10.237-3.905,14.142,0
	c3.905,3.905,3.905,10.237,0,14.142l-51.668,51.668C265.747,286.376,263.187,287.352,260.628,287.352z"/>
<g>
</g>
<g>
</g>
<g>
</g>
<g>
</g>
<g>
</g>
<g>
</g>
<g>
</g>
<g>
</g>
<g>
</g>
<g>
</g>
<g>
</g>
<g>
</g>
<g>
</g>
<g>
</g>
<g>
</g>
</svg>
