<?xml version="1.0" encoding="iso-8859-1"?>
<!-- Generator: Adobe Illustrator 19.0.0, SVG Export Plug-In . SVG Version: 6.00 Build 0)  -->
<svg version="1.1" id="Capa_1" xmlns="http://www.w3.org/2000/svg" xmlns:xlink="http://www.w3.org/1999/xlink" x="0px" y="0px"
	 viewBox="0 0 512.001 512.001" style="enable-background:new 0 0 512.001 512.001;" xml:space="preserve">
<path style="fill:#C9F3FF;" d="M308.192,49.031H203.808C96.771,49.031,10,135.802,10,242.839l0,0
	c0,59.404,26.736,112.554,68.821,148.105v72.025l68.095-34.85c17.995,5.52,37.089,8.529,56.893,8.529h104.384
	C415.229,436.648,502,349.878,502,242.839l0,0C502,135.802,415.229,49.031,308.192,49.031z"/>
<path style="fill:#FEDA9B;" d="M266.146,202.736l-3.23,3.521v-1.563l19.84-40.952c9.697-20.016,6.619-43.876-7.84-60.776l0,0
	l-95.91,115.92v132.441l14.745,5.783c9.867,3.87,20.372,5.856,30.972,5.856h85.738v-160.23H266.146z"/>
<rect x="122.71" y="204.69" style="fill:#4DBAF6;" width="56.35" height="158.27"/>
<g>
	<path style="fill:#FEDA9B;" d="M301.035,322.909h48.193c11.062,0,20.029,8.967,20.029,20.029l0,0
		c0,11.062-8.967,20.029-20.029,20.029h-48.193c-11.062,0-20.029-8.967-20.029-20.029l0,0
		C281.006,331.876,289.974,322.909,301.035,322.909z"/>
	<path style="fill:#FEDA9B;" d="M301.035,282.852h68.222c11.062,0,20.029,8.967,20.029,20.029l0,0
		c0,11.062-8.967,20.029-20.029,20.029h-68.222c-11.062,0-20.029-8.967-20.029-20.029l0,0
		C281.006,291.818,289.974,282.852,301.035,282.852z"/>
	<path style="fill:#FEDA9B;" d="M301.035,242.793h68.222c11.062,0,20.029,8.967,20.029,20.029l0,0
		c0,11.062-8.967,20.029-20.029,20.029h-68.222c-11.062,0-20.029-8.967-20.029-20.029l0,0
		C281.006,251.761,289.974,242.793,301.035,242.793z"/>
	<path style="fill:#FEDA9B;" d="M301.035,202.736h48.193c11.062,0,20.029,8.967,20.029,20.029l0,0
		c0,11.062-8.967,20.029-20.029,20.029h-48.193c-11.062,0-20.029-8.967-20.029-20.029l0,0
		C281.006,211.703,289.974,202.736,301.035,202.736z"/>
</g>
<path d="M66.765,115.796c2.559,0,5.119-0.976,7.071-2.929l0.128-0.128c3.923-3.888,3.952-10.219,0.065-14.142
	c-3.887-3.923-10.219-3.952-14.142-0.065l-0.193,0.192c-3.905,3.905-3.905,10.237,0,14.143
	C61.646,114.82,64.206,115.796,66.765,115.796z"/>
<path d="M308.192,39.031H203.808c-38.655,0-76.276,10.872-108.797,31.439c-4.667,2.952-6.059,9.129-3.106,13.797
	c2.953,4.667,9.129,6.058,13.797,3.106c29.317-18.542,63.242-28.342,98.106-28.342h104.384C409.544,59.031,492,141.487,492,242.839
	s-82.456,183.808-183.808,183.808H203.808c-18.308,0-36.462-2.722-53.96-8.089c-2.485-0.763-5.173-0.526-7.488,0.658l-53.54,27.401
	v-55.673c0-2.944-1.297-5.739-3.547-7.639C43.792,348.263,20,297.065,20,242.839c0-36.448,10.643-71.669,30.778-101.857
	c3.064-4.594,1.824-10.803-2.771-13.868c-4.596-3.066-10.804-1.824-13.868,2.771C11.805,163.369,0,202.428,0,242.839
	c0,58.563,25.023,113.94,68.82,152.678v67.452c0,3.482,1.812,6.714,4.783,8.531c1.597,0.977,3.405,1.469,5.218,1.469
	c1.559,0,3.122-0.364,4.556-1.098l64.537-33.029c18.182,5.181,36.965,7.806,55.895,7.806h104.384
	c112.38,0,203.808-91.428,203.808-203.809S420.572,39.031,308.192,39.031z"/>
<path d="M150.824,324.755c-5.523,0-10,4.477-10,10v0.101c0,5.523,4.477,10,10,10s10-4.477,10-10v-0.101
	C160.824,329.232,156.347,324.755,150.824,324.755z"/>
<path d="M282.514,96.465c-1.919-2.243-4.739-3.555-7.681-3.499c-2.951,0.024-5.741,1.351-7.622,3.625l-82.572,99.8
	c-1.593-1.071-3.51-1.697-5.574-1.697h-56.351c-5.523,0-10,4.477-10,10v158.271c0,5.523,4.477,10,10,10h56.351
	c4.52,0,8.336-3.001,9.574-7.118l1.461,0.573c11.076,4.344,22.725,6.546,34.622,6.546h124.506c16.558,0,30.029-13.471,30.029-30.029
	c0-3.914-0.76-7.651-2.129-11.083c12.751-3.468,22.157-15.141,22.157-28.975c0-7.69-2.908-14.711-7.679-20.029
	c4.771-5.318,7.679-12.339,7.679-20.029c0-13.834-9.406-25.507-22.157-28.975c1.368-3.432,2.129-7.169,2.129-11.083
	c0-16.558-13.471-30.029-30.029-30.029h-69.407l11.934-24.634C303.186,144.506,299.559,116.387,282.514,96.465z M132.714,352.965
	V214.694h36.351v138.271H132.714z M197.402,347.801l-8.337-3.27V222.416l84.919-102.636c5.817,12.365,5.916,26.921-0.228,39.603
	l-19.84,40.952c-0.658,1.359-1,2.85-1,4.36v11.798c0,17.387-14.146,31.532-31.532,31.532h-5.96c-5.523,0-10,4.477-10,10
	c0,5.523,4.477,10,10,10h5.96c24.344,0,44.785-16.973,50.146-39.703c1.033,5.495,3.563,10.467,7.155,14.472
	c-4.771,5.318-7.679,12.339-7.679,20.029s2.908,14.711,7.679,20.029c-4.771,5.318-7.679,12.339-7.679,20.029
	s2.908,14.711,7.679,20.029c-4.771,5.318-7.679,12.339-7.679,20.029c0,3.516,0.613,6.891,1.728,10.029h-48.012
	C215.334,352.966,206.142,351.229,197.402,347.801z M349.229,352.966h-48.193c-5.53,0-10.029-4.499-10.029-10.029
	s4.499-10.029,10.029-10.029h48.193c5.53,0,10.029,4.499,10.029,10.029S354.758,352.966,349.229,352.966z M369.257,312.909h-20.029
	h-48.193c-5.53,0-10.029-4.499-10.029-10.029s4.499-10.029,10.029-10.029h68.222c5.53,0,10.029,4.499,10.029,10.029
	S374.787,312.909,369.257,312.909z M369.257,272.852h-68.222c-5.53,0-10.029-4.499-10.029-10.029s4.499-10.029,10.029-10.029h48.193
	h20.029c5.53,0,10.029,4.499,10.029,10.029S374.787,272.852,369.257,272.852z M310.46,212.736h38.769
	c5.53,0,10.029,4.499,10.029,10.029s-4.499,10.029-10.029,10.029h-48.193c-5.53,0-10.029-4.499-10.029-10.029
	s4.499-10.029,10.029-10.029H310.46z"/>
<path d="M335.88,106.608c-0.617,0-1.243-0.058-1.871-0.176l-0.748-0.139c-5.434-0.986-9.04-6.191-8.054-11.625
	c0.986-5.435,6.195-9.039,11.625-8.054l0.896,0.166c5.426,1.027,8.993,6.259,7.966,11.686
	C344.787,103.264,340.591,106.608,335.88,106.608z"/>
<path d="M454.53,225.795c-4.733,0-8.939-3.374-9.824-8.196c-8.051-43.844-37.023-81.388-77.499-100.432
	c-4.997-2.351-7.143-8.308-4.791-13.306c2.351-4.997,8.307-7.142,13.306-4.792c46.299,21.783,79.442,64.743,88.655,114.917
	c0.998,5.432-2.597,10.644-8.029,11.642C455.737,225.741,455.129,225.795,454.53,225.795z"/>
<g>
</g>
<g>
</g>
<g>
</g>
<g>
</g>
<g>
</g>
<g>
</g>
<g>
</g>
<g>
</g>
<g>
</g>
<g>
</g>
<g>
</g>
<g>
</g>
<g>
</g>
<g>
</g>
<g>
</g>
</svg>
