<?xml version="1.0" encoding="iso-8859-1"?>
<!-- Generator: Adobe Illustrator 19.0.0, SVG Export Plug-In . SVG Version: 6.00 Build 0)  -->
<svg version="1.1" id="Capa_1" xmlns="http://www.w3.org/2000/svg" xmlns:xlink="http://www.w3.org/1999/xlink" x="0px" y="0px"
	 viewBox="0 0 512 512" style="enable-background:new 0 0 512 512;" xml:space="preserve">
<path style="fill:#D8D8E4;" d="M324.142,388H502l0,0v17.5c0,25.681-20.819,46.5-46.5,46.5h-399C30.819,452,10,431.181,10,405.5V388
	h177.847H324.142z"/>
<path style="fill:#7D9BFF;" d="M289.529,420h-67.057c-11.784,0-21.337-9.553-21.337-21.337V388h109.731v10.663
	C310.866,410.447,301.313,420,289.529,420z"/>
<path style="fill:#6A80FF;" d="M300.063,60h147.934c22.091,0,40,17.909,40,40v288h-464V100c0-22.091,17.909-40,40-40h147.906
	H300.063z"/>
<rect x="63.997" y="100" style="fill:#C9F3FF;" width="384" height="288"/>
<polygon style="fill:#FEA02C;" points="255.979,156.495 284.424,214.092 347.997,223.313 302.009,268.164 312.885,331.474 
	256.018,301.597 199.167,331.505 210.009,268.188 163.997,223.362 227.565,214.107 "/>
<path d="M502,378h-4.003V100c0-27.57-22.43-50-50-50H300.063c-5.522,0-10,4.477-10,10s4.478,10,10,10h147.935
	c16.542,0,30,13.458,30,30v278h-20V100c0-5.523-4.478-10-10-10h-384c-5.522,0-10,4.477-10,10v278h-20V100c0-16.542,13.458-30,30-30
	h147.905c5.522,0,10-4.477,10-10s-4.478-10-10-10H63.997c-27.57,0-50,22.43-50,50v278H10c-5.522,0-10,4.477-10,10v17.5
	C0,436.654,25.346,462,56.5,462h399c31.154,0,56.5-25.346,56.5-56.5V388C512,382.477,507.522,378,502,378z M73.997,110h364v268H122
	v-71.266c0-5.523-4.478-10-10-10s-10,4.477-10,10V378H73.997V110z M211.134,398h89.732v0.663c0,6.251-5.086,11.337-11.338,11.337
	h-67.057c-6.252,0-11.338-5.086-11.338-11.337V398H211.134z M492,405.5c0,20.126-16.374,36.5-36.5,36.5h-399
	C36.374,442,20,425.626,20,405.5V398h171.134v0.663c0,17.279,14.059,31.337,31.338,31.337h67.057
	c17.279,0,31.338-14.058,31.338-31.337V398H492V405.5z"/>
<path d="M254.56,70c2.641,0,5.21-1.07,7.07-2.93s2.93-4.44,2.93-7.07s-1.069-5.21-2.93-7.07c-1.86-1.86-4.43-2.93-7.07-2.93
	c-2.63,0-5.21,1.07-7.069,2.93c-1.86,1.86-2.931,4.44-2.931,7.07s1.07,5.21,2.931,7.07C249.35,68.93,251.93,70,254.56,70z"/>
<path d="M199.265,271.683l-9.954,58.135c-0.643,3.751,0.9,7.543,3.98,9.779c1.742,1.265,3.805,1.908,5.877,1.908
	c1.593,0,3.191-0.38,4.655-1.15l52.197-27.46l52.213,27.432c3.37,1.771,7.453,1.475,10.531-0.764c3.079-2.238,4.62-6.03,3.976-9.781
	l-9.985-58.13l42.225-41.18c2.725-2.658,3.704-6.632,2.527-10.252c-1.178-3.62-4.308-6.257-8.074-6.804l-58.37-8.465l-26.117-52.883
	c-1.685-3.413-5.16-5.572-8.966-5.572h-0.003c-3.806,0.001-7.282,2.163-8.966,5.577l-26.089,52.897l-58.365,8.497
	c-3.767,0.548-6.896,3.188-8.071,6.808s-0.193,7.594,2.533,10.25L199.265,271.683z M229.005,224.003
	c3.257-0.474,6.072-2.521,7.528-5.472l19.452-39.44l19.473,39.429c1.457,2.951,4.273,4.996,7.53,5.469l43.521,6.312l-31.482,30.704
	c-2.355,2.298-3.431,5.608-2.873,8.852l7.445,43.342l-38.93-20.454c-2.913-1.531-6.393-1.529-9.308,0.002l-38.918,20.474
	l7.422-43.345c0.556-3.244-0.521-6.554-2.878-8.851l-31.499-30.688L229.005,224.003z"/>
<path d="M112,279.23c2.63,0,5.21-1.07,7.069-2.93c1.86-1.86,2.931-4.44,2.931-7.07s-1.07-5.21-2.931-7.07
	c-1.859-1.86-4.439-2.93-7.069-2.93s-5.21,1.07-7.07,2.93s-2.93,4.44-2.93,7.07s1.069,5.21,2.93,7.07S109.37,279.23,112,279.23z"/>
<g>
</g>
<g>
</g>
<g>
</g>
<g>
</g>
<g>
</g>
<g>
</g>
<g>
</g>
<g>
</g>
<g>
</g>
<g>
</g>
<g>
</g>
<g>
</g>
<g>
</g>
<g>
</g>
<g>
</g>
</svg>
