<?xml version="1.0" encoding="iso-8859-1"?>
<!-- Generator: Adobe Illustrator 19.0.0, SVG Export Plug-In . SVG Version: 6.00 Build 0)  -->
<svg version="1.1" id="Capa_1" xmlns="http://www.w3.org/2000/svg" xmlns:xlink="http://www.w3.org/1999/xlink" x="0px" y="0px"
	 viewBox="0 0 512 512" style="enable-background:new 0 0 512 512;" xml:space="preserve">
<circle style="fill:#FF5D5D;" cx="90" cy="90" r="80"/>
<circle style="fill:#62CD4D;" cx="422" cy="90" r="80"/>
<rect x="187.27" y="446" style="fill:#4DBAF6;" width="200" height="56"/>
<path style="fill:#FEDA9B;" d="M375.567,446l14.106-44.982c7.024-22.399,10.598-45.737,10.598-69.211v-84.38
	c0-13.28-10.765-24.045-24.045-24.045l0,0c-13.28,0-24.045,10.765-24.045,24.045v29.349v-35.675v-11.392
	c0-13.28-10.765-24.045-24.045-24.045l0,0c-13.28,0-24.045,10.765-24.045,24.045v8.595v38.472v-62.298
	c0-13.28-10.765-24.045-24.045-24.045l0,0c-13.28,0-24.045,10.765-24.045,24.045v62.298V119c0-13.28-10.765-24.045-24.045-24.045
	l0,0c-13.28,0-24.045,10.765-24.045,24.045v190.956l-28.239-52.29c-6.523-12.079-21.474-16.773-33.73-10.59l0,0
	c-10.51,5.302-15.989,17.141-13.228,28.585l18.307,75.883c3.948,16.365,11.094,31.787,21.026,45.379L207.91,446H375.567z"/>
<path d="M207.91,219.12c2.63,0,5.21-1.07,7.069-2.93c1.86-1.86,2.931-4.44,2.931-7.07s-1.07-5.21-2.931-7.07
	c-1.859-1.86-4.439-2.93-7.069-2.93s-5.21,1.07-7.07,2.93s-2.93,4.44-2.93,7.07s1.069,5.21,2.93,7.07
	C202.7,218.05,205.28,219.12,207.91,219.12z"/>
<path d="M376.226,213.382c-5.901,0-11.456,1.511-16.299,4.164c-4.907-12.782-17.303-21.883-31.792-21.883
	c-6.249,0-12.104,1.7-17.144,4.65c-5.385-11.719-17.227-19.88-30.946-19.88c-5.007,0-9.76,1.095-14.045,3.044V119
	c0-18.772-15.272-34.045-34.045-34.045S197.91,100.228,197.91,119v51c0,5.523,4.478,10,10,10s10-4.477,10-10v-51
	c0-7.745,6.301-14.045,14.045-14.045S246,111.255,246,119v157.776c0,5.523,4.478,10,10,10s10-4.477,10-10v-62.298
	c0-7.745,6.301-14.045,14.045-14.045s14.045,6.3,14.045,14.045v15.23v8.595v38.472c0,5.523,4.478,10,10,10s10-4.477,10-10v-38.472
	v-8.595c0-7.745,6.301-14.045,14.045-14.045c7.745,0,14.046,6.3,14.046,14.045v11.393c0,0.765,0.094,1.506,0.256,2.222
	c-0.163,1.347-0.256,2.715-0.256,4.105v29.349c0,5.523,4.478,10,10,10s10-4.477,10-10v-29.349c0-7.745,6.301-14.045,14.045-14.045
	s14.045,6.3,14.045,14.045v84.38c0,22.485-3.411,44.765-10.14,66.219L368.223,436H333.5c-5.522,0-10,4.477-10,10s4.478,10,10,10
	h43.771v36h-180v-36H251c5.522,0,10-4.477,10-10s-4.478-10-10-10h-38.011l-32.868-44.978c-9.201-12.591-15.722-26.662-19.38-41.824
	l-18.307-75.882c-1.68-6.965,1.614-14.084,8.012-17.311c7.478-3.772,16.448-0.954,20.427,6.413l28.239,52.291
	c2.175,4.028,6.812,6.063,11.249,4.943c4.439-1.123,7.55-5.116,7.55-9.695V249c0-5.523-4.478-10-10-10s-10,4.477-10,10v21.395
	l-9.44-17.48c-9.161-16.964-29.82-23.449-47.033-14.766c-14.729,7.43-22.313,23.82-18.444,39.858l18.307,75.882
	c4.279,17.739,11.908,34.203,22.673,48.934L188.217,436h-0.946c-5.522,0-10,4.477-10,10v56c0,5.523,4.478,10,10,10h200
	c5.522,0,10-4.477,10-10v-56c0-4.888-3.509-8.95-8.143-9.821l10.087-32.169c7.336-23.393,11.056-47.686,11.056-72.203v-84.38
	C410.271,228.655,394.998,213.382,376.226,213.382z"/>
<path d="M297.069,453.07c1.86-1.86,2.931-4.44,2.931-7.07s-1.07-5.21-2.931-7.07C295.21,437.07,292.63,436,290,436
	s-5.21,1.07-7.07,2.93c-1.86,1.86-2.93,4.44-2.93,7.07s1.069,5.21,2.93,7.07S287.37,456,290,456S295.21,454.93,297.069,453.07z"/>
<path d="M180,90c0-49.626-40.374-90-90-90S0,40.374,0,90s40.374,90,90,90S180,139.626,180,90z M90,160c-38.598,0-70-31.402-70-70
	s31.402-70,70-70s70,31.402,70,70S128.598,160,90,160z"/>
<path d="M123.155,56.817c-3.906-3.905-10.236-3.905-14.143,0L89.986,75.844L70.96,56.818c-3.905-3.905-10.235-3.905-14.143,0
	c-3.905,3.905-3.905,10.237,0,14.142l19.027,19.027l-19.027,19.027c-3.905,3.905-3.905,10.237,0,14.142
	c1.953,1.953,4.512,2.929,7.071,2.929s5.118-0.977,7.071-2.929l19.026-19.027l19.026,19.027c1.953,1.953,4.512,2.929,7.071,2.929
	s5.118-0.977,7.071-2.929c3.905-3.905,3.905-10.237,0-14.142l-19.027-19.027l19.027-19.027
	C127.061,67.055,127.061,60.723,123.155,56.817z"/>
<path d="M454.402,56.504l-45.778,45.779l-19.026-19.027c-3.906-3.905-10.236-3.905-14.143,0c-3.905,3.905-3.905,10.237,0,14.143
	l26.098,26.098c1.953,1.952,4.512,2.929,7.071,2.929s5.118-0.977,7.071-2.929l52.85-52.85c3.905-3.905,3.905-10.237,0-14.143
	C464.639,52.6,458.309,52.6,454.402,56.504z"/>
<path d="M422,0c-49.626,0-90,40.374-90,90s40.374,90,90,90s90-40.374,90-90S471.626,0,422,0z M422,160c-38.598,0-70-31.402-70-70
	s31.402-70,70-70s70,31.402,70,70S460.598,160,422,160z"/>
<g>
</g>
<g>
</g>
<g>
</g>
<g>
</g>
<g>
</g>
<g>
</g>
<g>
</g>
<g>
</g>
<g>
</g>
<g>
</g>
<g>
</g>
<g>
</g>
<g>
</g>
<g>
</g>
<g>
</g>
</svg>
