<?xml version="1.0" encoding="iso-8859-1"?>
<!-- Generator: Adobe Illustrator 19.0.0, SVG Export Plug-In . SVG Version: 6.00 Build 0)  -->
<svg version="1.1" id="Capa_1" xmlns="http://www.w3.org/2000/svg" xmlns:xlink="http://www.w3.org/1999/xlink" x="0px" y="0px"
	 viewBox="0 0 511.999 511.999" style="enable-background:new 0 0 511.999 511.999;" xml:space="preserve">
<g>
	<polygon style="fill:#72D8FF;" points="361,170.321 405.325,295.455 336.419,280.909 292.986,336.343 256.313,235.586 	"/>
	<polygon style="fill:#72D8FF;" points="256.171,235.197 210.858,332.373 172.421,273.364 102.51,281.85 154.931,170.321 	"/>
</g>
<circle style="fill:#FF5D5D;" cx="255.998" cy="121.984" r="112.004"/>
<polygon style="fill:#FFB954;" points="255.986,70.465 272.733,104.376 310.163,109.806 283.086,136.213 289.491,173.488 
	256.008,155.897 222.536,173.506 228.921,136.227 201.83,109.835 239.257,104.385 "/>
<rect x="23.457" y="337.992" style="fill:#2E9DE3;" width="82.941" height="164.006"/>
<path style="fill:#FFEFD5;" d="M485.977,378.334L485.977,378.334c-7.132-16.836-26.829-24.37-43.377-16.592l-145.195,68.254h-9.226
	l-0.654,0.209c2.219-9.981-1.192-21.183-11.18-27.801l-67.016-44.411H106.989v130.005l45.731,14h110.357
	c25.227,0,50.125-5.729,72.816-16.756l28.74-13.966l69.152-33.605l36.606-17.79C485.816,412.387,492.666,394.125,485.977,378.334z"
	/>
<path d="M218.176,139.721l-5.496,32.096c-0.643,3.752,0.9,7.543,3.98,9.78c1.742,1.265,3.804,1.908,5.877,1.908
	c1.593,0,3.191-0.38,4.654-1.15l28.82-15.161l28.827,15.146c3.37,1.771,7.453,1.475,10.531-0.764c3.079-2.238,4.62-6.03,3.976-9.781
	l-5.513-32.094l23.313-22.736c2.725-2.658,3.704-6.632,2.527-10.252c-1.177-3.62-4.308-6.257-8.074-6.804l-32.227-4.674
	l-14.421-29.198c-1.685-3.412-5.16-5.572-8.966-5.572c-0.001,0-0.002,0-0.003,0c-3.807,0.001-7.282,2.163-8.966,5.577
	l-14.404,29.206l-32.224,4.691c-3.767,0.548-6.896,3.188-8.071,6.808c-1.175,3.62-0.193,7.594,2.533,10.25L218.176,139.721z
	 M240.697,114.282c3.257-0.474,6.072-2.521,7.528-5.472l7.766-15.748l7.775,15.744c1.457,2.951,4.273,4.996,7.53,5.468l17.378,2.521
	l-12.57,12.259c-2.355,2.298-3.431,5.608-2.873,8.852l2.973,17.305l-15.544-8.166c-2.914-1.531-6.395-1.529-9.307,0.002
	l-15.541,8.174l2.964-17.307c0.556-3.244-0.521-6.554-2.878-8.851l-12.576-12.252L240.697,114.282z"/>
<path d="M103.716,291.778l63.725-7.735l35.037,53.789c1.854,2.846,5.013,4.542,8.377,4.542c0.234,0,0.471-0.008,0.706-0.025
	c3.624-0.256,6.824-2.457,8.359-5.749l35.111-75.297l28.557,78.46c1.242,3.413,4.238,5.885,7.825,6.456
	c0.525,0.083,1.051,0.124,1.572,0.124c3.044,0,5.958-1.392,7.87-3.833l39.591-50.53l62.81,13.258
	c3.542,0.75,7.206-0.475,9.589-3.196c2.383-2.721,3.11-6.517,1.902-9.927l-44.324-125.133c-0.154-0.435-0.344-0.846-0.55-1.245
	c16.685-43.619,7.475-94.955-27.633-130.045C323.308,16.766,299.316,4.82,272.864,1.147c-25.583-3.551-52.125,1.208-74.744,13.402
	c-4.861,2.621-6.677,8.687-4.056,13.548c2.619,4.862,8.685,6.676,13.548,4.057c39.315-21.199,88.864-13.925,120.491,17.685
	c39.781,39.76,39.799,104.473,0.039,144.255s-104.474,39.799-144.255,0.039c-31.628-31.611-38.926-81.157-17.748-120.484
	c2.618-4.862,0.799-10.927-4.063-13.546c-4.861-2.618-10.928-0.799-13.546,4.063c-12.184,22.626-16.931,49.173-13.364,74.752
	c1.524,10.934,4.483,21.437,8.743,31.345L93.461,277.596c-1.548,3.292-1.186,7.166,0.946,10.114
	C96.54,290.659,100.106,292.217,103.716,291.778z M342.29,208.232c5.702-5.705,10.712-11.842,15.047-18.303l32.607,92.057
	l-51.46-10.863c-3.728-0.789-7.585,0.615-9.937,3.617l-32.325,41.255l-26.488-72.776
	C297.137,240.169,322.514,228.019,342.29,208.232z M155.901,191.766c4.09,5.839,8.701,11.367,13.848,16.512
	c19.574,19.564,44.622,31.655,71.688,34.852l-32.031,68.692L180.8,267.906c-2.081-3.195-5.807-4.926-9.584-4.469l-51.965,6.308
	L155.901,191.766z"/>
<path d="M169.715,49.884c1.953,1.953,4.512,2.929,7.071,2.929s5.118-0.976,7.071-2.929c3.905-3.905,3.905-10.237,0-14.144
	l-0.072-0.072c-3.906-3.905-10.236-3.905-14.144,0c-3.905,3.905-3.905,10.237,0,14.143L169.715,49.884z"/>
<path d="M400.042,444.066c-2.641,0-5.21,1.07-7.07,2.93c-1.87,1.86-2.93,4.44-2.93,7.07c0,2.64,1.06,5.21,2.93,7.07
	c1.86,1.87,4.43,2.93,7.07,2.93c2.63,0,5.2-1.06,7.069-2.93c1.86-1.86,2.931-4.43,2.931-7.07c0-2.63-1.07-5.2-2.931-7.07
	C405.242,445.136,402.672,444.066,400.042,444.066z"/>
<path d="M495.185,374.433c-4.52-10.669-12.97-18.826-23.793-22.966c-10.823-4.139-22.559-3.705-33.046,1.225L297.757,418.78
	c-1.508-9.948-7.096-18.886-15.889-24.713l-67.016-44.411c-1.639-1.085-3.56-1.664-5.524-1.664h-92.929v-10c0-5.523-4.478-10-10-10
	H23.457c-5.522,0-10,4.477-10,10c0,5.523,4.478,10,10,10h72.941v144.005H23.457c-5.522,0-10,4.477-10,10c0,5.523,4.478,10,10,10
	h82.941c5.522,0,10-4.477,10-10v-0.661l33.393,10.223c0.949,0.291,1.936,0.438,2.928,0.438h110.357
	c26.586,0,53.276-6.142,77.187-17.762l28.74-13.966c4.967-2.414,7.037-8.397,4.623-13.365c-2.413-4.969-8.397-7.038-13.365-4.624
	l-28.74,13.966c-21.202,10.303-44.87,15.75-68.443,15.75H154.216L116.4,480.42V367.995h89.916l64.505,42.747
	c5.522,3.66,8.192,9.75,7.141,16.293c-1.052,6.541-5.496,11.488-11.888,13.232c-4.462,1.219-9.259,0.489-13.159-2.002
	l-45.113-28.813c-4.656-2.972-10.839-1.609-13.811,3.045c-2.973,4.655-1.609,10.838,3.045,13.811l45.113,28.813
	c5.904,3.771,12.733,5.721,19.624,5.721c3.205,0,6.424-0.422,9.567-1.28c10.582-2.888,18.938-10.048,23.37-19.564h2.696
	c1.471,0,2.923-0.324,4.254-0.95l145.194-68.253c5.52-2.595,11.695-2.824,17.393-0.645c5.696,2.179,10.143,6.471,12.521,12.086
	c4.616,10.895-0.105,23.481-10.748,28.653l-36.606,17.79c-4.967,2.414-7.037,8.397-4.623,13.365c1.729,3.56,5.293,5.632,9.001,5.632
	c1.467,0,2.957-0.324,4.364-1.008l36.606-17.79C494.984,419.05,503.955,395.136,495.185,374.433z"/>
<path d="M80.151,409.037l0.087-0.08c4.072-3.73,4.351-10.055,0.621-14.128c-3.73-4.073-10.054-4.352-14.129-0.622l-0.087,0.08
	c-4.072,3.73-4.351,10.055-0.621,14.128c1.973,2.154,4.671,3.247,7.378,3.247C75.812,411.662,78.231,410.794,80.151,409.037z"/>
<g>
</g>
<g>
</g>
<g>
</g>
<g>
</g>
<g>
</g>
<g>
</g>
<g>
</g>
<g>
</g>
<g>
</g>
<g>
</g>
<g>
</g>
<g>
</g>
<g>
</g>
<g>
</g>
<g>
</g>
</svg>
