<?xml version="1.0" encoding="iso-8859-1"?>
<!-- Generator: Adobe Illustrator 19.0.0, SVG Export Plug-In . SVG Version: 6.00 Build 0)  -->
<svg version="1.1" id="Capa_1" xmlns="http://www.w3.org/2000/svg" xmlns:xlink="http://www.w3.org/1999/xlink" x="0px" y="0px"
	 viewBox="0 0 512.001 512.001" style="enable-background:new 0 0 512.001 512.001;" xml:space="preserve">
<path style="fill:#EDF2FA;" d="M306,10H30c-11.046,0-20,8.954-20,20v452c0,11.046,8.954,20,20,20h360c11.046,0,20-8.954,20-20V114
	L306,10z"/>
<polygon style="fill:#2E9DE3;" points="410.083,329.2 353.276,368.73 373.317,302.488 318.167,260.676 387.36,260.676 
	410.083,193.894 432.806,260.676 502,260.676 446.85,302.488 466.891,368.73 "/>
<path style="fill:#FF5D5D;" d="M410,114L306,10v84c0,11.046,8.954,20,20,20H410z"/>
<path d="M511.479,257.489c-1.369-4.071-5.184-6.813-9.479-6.813h-62.033l-20.417-60.002c-1.379-4.053-5.186-6.779-9.467-6.779
	s-8.088,2.726-9.467,6.779L380.2,250.676h-62.033c-4.295,0-8.11,2.742-9.479,6.813s0.015,8.561,3.437,11.156l49.605,37.608
	l-18.026,59.582c-1.232,4.075,0.25,8.484,3.694,10.986c3.444,2.502,8.095,2.55,11.59,0.118l51.096-35.555l51.096,35.555
	c1.718,1.196,3.715,1.792,5.712,1.792c2.064,0,4.127-0.638,5.878-1.91c3.444-2.502,4.926-6.911,3.694-10.986l-18.026-59.582
	l49.605-37.608C511.464,266.05,512.847,261.559,511.479,257.489z M440.809,294.519c-3.333,2.527-4.741,6.861-3.53,10.865
	l11.71,38.706l-33.193-23.098c-1.717-1.195-3.714-1.792-5.712-1.792s-3.995,0.597-5.712,1.792l-33.193,23.098l11.71-38.706
	c1.211-4.003-0.197-8.338-3.53-10.865l-31.45-23.843h39.452c4.281,0,8.088-2.726,9.467-6.779l13.256-38.958l13.256,38.958
	c1.379,4.053,5.186,6.779,9.467,6.779h39.451L440.809,294.519z"/>
<path d="M410,379c-5.523,0-10,4.477-10,10v93c0,5.514-4.486,10-10,10H30c-5.514,0-10-4.486-10-10V30c0-5.514,4.486-10,10-10h266v74
	c0,16.542,13.458,30,30,30h74v29c0,5.523,4.477,10,10,10s10-4.477,10-10v-39c-0.008,0-0.016-0.001-0.024-0.001
	c-0.001-2.601-0.993-5.158-2.905-7.07l-104-104c-1.912-1.912-4.469-2.904-7.07-2.905C306.001,0.016,306,0.009,306,0H30
	C13.458,0,0,13.458,0,30v452c0,16.542,13.458,30,30,30h360c16.542,0,30-13.458,30-30v-93C420,383.477,415.523,379,410,379z M326,104
	c-5.514,0-10-4.486-10-10V34.142L385.858,104H326z"/>
<path d="M98,176h158c5.523,0,10-4.477,10-10s-4.477-10-10-10H98c-5.523,0-10,4.477-10,10S92.477,176,98,176z"/>
<path d="M98,228h158.424c5.523,0,10-4.477,10-10s-4.477-10-10-10H98c-5.523,0-10,4.477-10,10S92.477,228,98,228z"/>
<path d="M98,124h157.576c5.523,0,10-4.477,10-10s-4.477-10-10-10H98c-5.523,0-10,4.477-10,10S92.477,124,98,124z"/>
<path d="M249.35,262.93c-1.86,1.86-2.93,4.44-2.93,7.07s1.07,5.21,2.93,7.07c1.86,1.86,4.44,2.93,7.07,2.93
	c2.64,0,5.21-1.07,7.08-2.93c1.86-1.86,2.93-4.44,2.93-7.07s-1.07-5.21-2.93-7.07c-1.87-1.86-4.44-2.93-7.08-2.93
	C253.79,260,251.21,261.07,249.35,262.93z"/>
<path d="M98,280h112.849c5.523,0,10-4.477,10-10s-4.477-10-10-10H98c-5.523,0-10,4.477-10,10S92.477,280,98,280z"/>
<path d="M313.477,312H98c-5.523,0-10,4.477-10,10s4.477,10,10,10h215.477c5.523,0,10-4.477,10-10S319,312,313.477,312z"/>
<path d="M313.482,364H98c-5.523,0-10,4.477-10,10s4.477,10,10,10h215.482c5.523,0,10-4.477,10-10S319.005,364,313.482,364z"/>
<path d="M90.93,418.93C89.07,420.79,88,423.37,88,426s1.07,5.21,2.93,7.07c1.86,1.86,4.44,2.93,7.07,2.93s5.21-1.07,7.07-2.93
	S108,428.63,108,426s-1.07-5.21-2.93-7.07c-1.86-1.86-4.44-2.93-7.07-2.93S92.79,417.07,90.93,418.93z"/>
<path d="M313.477,416H143.576c-5.523,0-10,4.477-10,10s4.477,10,10,10h169.901c5.523,0,10-4.477,10-10S319,416,313.477,416z"/>
<g>
</g>
<g>
</g>
<g>
</g>
<g>
</g>
<g>
</g>
<g>
</g>
<g>
</g>
<g>
</g>
<g>
</g>
<g>
</g>
<g>
</g>
<g>
</g>
<g>
</g>
<g>
</g>
<g>
</g>
</svg>
