<?xml version="1.0" encoding="iso-8859-1"?>
<!-- Generator: Adobe Illustrator 19.0.0, SVG Export Plug-In . SVG Version: 6.00 Build 0)  -->
<svg version="1.1" id="Capa_1" xmlns="http://www.w3.org/2000/svg" xmlns:xlink="http://www.w3.org/1999/xlink" x="0px" y="0px"
	 viewBox="0 0 512 512" style="enable-background:new 0 0 512 512;" xml:space="preserve">
<path style="fill:#4DBAF6;" d="M64,166.927L10,206v256c0,22.091,17.909,40,40,40h412c22.091,0,40-17.909,40-40V206l-54-39.073"/>
<path style="fill:#6A80FF;" d="M64,166.927L10,206l234.082,173.691c7.077,5.251,16.758,5.251,23.835,0L502,206l-54-39.073H64z"/>
<path style="fill:#EDF2FA;" d="M64,246V30c0-11.046,8.954-20,20-20h276l88,87.983V246L266.661,375.306
	c-6.978,4.976-16.351,4.952-23.304-0.058L64,246z"/>
<path style="fill:#FFB954;" d="M448,97.983h-68c-11.046,0-20-8.954-20-20V10L448,97.983z"/>
<polygon style="fill:#FF5D5D;" points="63.747,441.214 105.429,367.085 42.555,357.596 194.515,269.862 194.515,445.33 
	153.654,394.113 113.19,466.791 "/>
<path d="M507.862,197.898L458,161.819V97.983l0,0c0-2.56-0.976-5.119-2.93-7.072l-88-87.983C365.195,1.053,362.652,0,360,0H84
	C67.458,0,54,13.458,54,30v131.819L4.138,197.898C1.539,199.779,0,202.792,0,206v256c0,27.57,22.43,50,50,50h412
	c27.57,0,50-22.43,50-50V206C512,202.792,510.461,199.779,507.862,197.898z M485.081,206.101L458,226.196v-39.69L485.081,206.101z
	 M370,34.139l53.855,53.844H380c-5.514,0-10-4.486-10-10V34.139z M84,20h266v57.983c0,16.542,13.458,30,30,30h58v131.684
	c0,0.442,0.039,0.873,0.094,1.3L261.958,371.66c-3.563,2.645-8.354,2.645-11.917,0l-45.527-33.781v-68.017
	c0-3.573-1.906-6.874-5-8.66s-6.906-1.786-10,0l-49.681,28.683L74,241.036V30C74,24.486,78.486,20,84,20z M114.415,362.696
	c-1.442-2.953-4.244-5.008-7.493-5.499l-34.625-5.225l112.217-64.789V416.76l-23.043-28.884c-2.078-2.606-5.317-4.003-8.643-3.729
	c-3.323,0.275-6.29,2.188-7.912,5.102l-35.747,64.205L77.537,437.09l36.607-65.103C115.757,369.122,115.857,365.649,114.415,362.696
	z M54,226.196l-27.081-20.095L54,186.506V226.196z M50,492c-16.542,0-30-13.458-30-30V225.872l100.958,74.911l-83.402,48.152
	c-3.68,2.125-5.615,6.343-4.826,10.519c0.79,4.175,4.132,7.396,8.333,8.03l48.55,7.327l-34.582,61.501
	c-1.33,2.364-1.642,5.167-0.865,7.767c0.777,2.599,2.577,4.771,4.986,6.017l49.443,25.578c1.468,0.759,3.038,1.12,4.587,1.12
	c3.517,0,6.92-1.86,8.745-5.138l33.21-59.649l31.56,39.56c2.65,3.321,7.111,4.605,11.121,3.202c4.011-1.404,6.696-5.189,6.696-9.438
	v-82.546l33.609,24.938c5.347,3.967,11.611,5.951,17.876,5.951c6.264,0,12.531-1.984,17.876-5.951L492,225.872V462
	c0,4.626-1.054,9.009-2.932,12.926l-85.997-85.997c-3.905-3.905-10.237-3.905-14.143,0s-3.905,10.237,0,14.143l85.997,85.997
	c-3.917,1.878-8.3,2.932-12.926,2.932H50V492z"/>
<path d="M144,142h157.576c5.523,0,10-4.477,10-10s-4.477-10-10-10H144c-5.523,0-10,4.477-10,10C134,137.523,138.477,142,144,142z"/>
<path d="M144,194h224c5.523,0,10-4.477,10-10s-4.477-10-10-10H144c-5.523,0-10,4.477-10,10S138.477,194,144,194z"/>
<path d="M144,90h157.576c5.523,0,10-4.477,10-10s-4.477-10-10-10H144c-5.523,0-10,4.477-10,10S138.477,90,144,90z"/>
<path d="M301.58,226c-2.64,0-5.21,1.07-7.08,2.93c-1.86,1.86-2.92,4.44-2.92,7.07s1.06,5.21,2.92,7.07
	c1.87,1.86,4.44,2.93,7.08,2.93c2.63,0,5.2-1.07,7.07-2.93c1.86-1.86,2.93-4.44,2.93-7.07s-1.07-5.21-2.93-7.07
	C306.78,227.07,304.21,226,301.58,226z"/>
<path d="M144,246h112c5.523,0,10-4.477,10-10s-4.477-10-10-10H144c-5.523,0-10,4.477-10,10S138.477,246,144,246z"/>
<path d="M368.33,358.33c-2.64,0-5.21,1.06-7.08,2.93c-1.86,1.86-2.92,4.44-2.92,7.07s1.06,5.2,2.92,7.07
	c1.87,1.86,4.44,2.93,7.08,2.93c2.63,0,5.21-1.07,7.07-2.93s2.93-4.44,2.93-7.07s-1.07-5.21-2.93-7.07
	C373.54,359.39,370.96,358.33,368.33,358.33z"/>
<g>
</g>
<g>
</g>
<g>
</g>
<g>
</g>
<g>
</g>
<g>
</g>
<g>
</g>
<g>
</g>
<g>
</g>
<g>
</g>
<g>
</g>
<g>
</g>
<g>
</g>
<g>
</g>
<g>
</g>
</svg>
