<?xml version="1.0" encoding="iso-8859-1"?>
<!-- Generator: Adobe Illustrator 19.0.0, SVG Export Plug-In . SVG Version: 6.00 Build 0)  -->
<svg version="1.1" id="Capa_1" xmlns="http://www.w3.org/2000/svg" xmlns:xlink="http://www.w3.org/1999/xlink" x="0px" y="0px"
	 viewBox="0 0 512 512" style="enable-background:new 0 0 512 512;" xml:space="preserve">
<g>
	<path style="fill:#FEDA9B;" d="M231.991,254.001l-5,5.45v-2.419l38.837-80.166c11.14-22.993,6.496-50.518-11.571-68.583
		l-8.696-8.696L97.123,278.998v204.979l22.821,8.95c15.271,5.99,31.531,9.064,47.935,9.064h132.697V254L231.991,254.001
		L231.991,254.001z"/>
	<path style="fill:#FEDA9B;" d="M285.989,439.994h74.589c17.12,0,30.999,13.878,30.999,30.999l0,0
		c0,17.12-13.878,30.999-30.999,30.999h-74.589c-17.12,0-30.999-13.878-30.999-30.999l0,0
		C254.99,453.872,268.868,439.994,285.989,439.994z"/>
	<path style="fill:#FEDA9B;" d="M285.989,377.996h105.588c17.12,0,30.999,13.878,30.999,30.999l0,0
		c0,17.12-13.878,30.999-30.999,30.999H285.989c-17.12,0-30.999-13.878-30.999-30.999l0,0
		C254.99,391.875,268.868,377.996,285.989,377.996z"/>
	<path style="fill:#FEDA9B;" d="M285.989,315.999h105.588c17.12,0,30.999,13.878,30.999,30.999l0,0
		c0,17.12-13.878,30.999-30.999,30.999H285.989c-17.12,0-30.999-13.878-30.999-30.999l0,0
		C254.99,329.877,268.868,315.999,285.989,315.999z"/>
	<path style="fill:#FEDA9B;" d="M285.989,254.001h74.589c17.12,0,30.999,13.878,30.999,30.999l0,0
		c0,17.12-13.878,30.999-30.999,30.999h-74.589c-17.12,0-30.999-13.878-30.999-30.999l0,0
		C254.99,267.879,268.868,254.001,285.989,254.001z"/>
</g>
<rect x="10" y="257.03" style="fill:#FF5D5D;" width="87.217" height="244.96"/>
<path style="fill:#FEA02C;" d="M411.088,12.795l25.611,51.86c0.729,1.476,2.138,2.499,3.767,2.735l57.24,8.302
	c4.103,0.595,5.742,5.636,2.774,8.531l-41.407,40.383c-1.179,1.149-1.716,2.805-1.437,4.428l9.793,57.004
	c0.702,4.086-3.586,7.203-7.256,5.275l-51.202-26.901c-1.457-0.766-3.198-0.765-4.655,0.001l-51.188,26.929
	c-3.669,1.93-7.959-1.185-7.259-5.271l9.763-57.009c0.278-1.623-0.261-3.278-1.44-4.427l-41.428-40.361
	c-2.969-2.893-1.333-7.935,2.77-8.532l57.236-8.333c1.629-0.237,3.037-1.261,3.765-2.737l25.584-51.873
	C403.951,9.08,409.252,9.079,411.088,12.795z"/>
<path d="M53.506,448.329c-5.523,0-10,4.477-10,10v0.157c0,5.523,4.477,10,10,10s10-4.477,10-10v-0.157
	C63.506,452.806,59.029,448.329,53.506,448.329z"/>
<path d="M53.506,321.996c-5.523,0-10,4.477-10,10v88.997c0,5.523,4.477,10,10,10s10-4.477,10-10v-88.997
	C63.506,326.473,59.029,321.996,53.506,321.996z"/>
<path d="M511.253,76.003c-1.779-5.47-6.42-9.381-12.113-10.207l-54.64-7.925L420.054,8.369c-2.546-5.157-7.7-8.36-13.45-8.36
	c-0.001,0-0.002,0-0.002,0c-5.753,0.001-10.908,3.207-13.452,8.366l-24.421,49.517l-54.636,7.954
	c-5.692,0.828-10.332,4.742-12.108,10.213s-0.32,11.363,3.8,15.377l39.546,38.527l-9.319,54.419
	c-0.971,5.669,1.317,11.291,5.972,14.67c2.629,1.909,5.704,2.879,8.801,2.879c2.385,0,4.784-0.576,6.999-1.741l48.863-25.705
	l48.875,25.679c5.093,2.675,11.146,2.236,15.797-1.146c4.653-3.382,6.938-9.005,5.965-14.673l-9.348-54.415l39.525-38.549
	C511.58,87.365,513.032,81.472,511.253,76.003z M452.09,117.447c-3.535,3.449-5.146,8.413-4.31,13.278l8.078,47.024l-42.238-22.192
	c-4.371-2.295-9.59-2.295-13.96,0.004l-42.225,22.213l8.053-47.028c0.833-4.868-0.781-9.832-4.318-13.276l-34.175-33.294
	l47.215-6.874c4.886-0.711,9.107-3.78,11.293-8.209l21.103-42.79l21.127,42.779c2.187,4.428,6.411,7.495,11.298,8.204l47.218,6.849
	L452.09,117.447z"/>
<path d="M165.836,205.951c2.63,0,5.21-1.07,7.07-2.93c1.86-1.87,2.93-4.44,2.93-7.07s-1.07-5.21-2.93-7.07
	c-1.86-1.87-4.44-2.93-7.07-2.93s-5.21,1.06-7.07,2.93c-1.86,1.86-2.93,4.43-2.93,7.07c0,2.63,1.07,5.21,2.93,7.07
	C160.626,204.881,163.206,205.951,165.836,205.951z"/>
<path d="M432.575,346.997c0-21.23-16.221-38.74-36.92-40.794c3.756-6.191,5.921-13.448,5.921-21.203
	c0-22.606-18.392-40.998-40.998-40.998H244.415l29.872-61.661c12.132-25.041,8.282-54.882-9.807-76.024l-11.32-13.229
	c-1.918-2.242-4.749-3.551-7.681-3.499c-2.951,0.024-5.741,1.351-7.622,3.625l-51.404,62.13c-3.521,4.255-2.925,10.559,1.33,14.078
	c4.255,3.521,10.559,2.926,14.078-1.33l43.828-52.972l3.593,4.2c12.92,15.102,15.67,36.417,7.005,54.303l-38.298,79.05
	c-0.658,1.359-1,2.85-1,4.36v18.26c0,29.93-24.35,54.28-54.28,54.28h-9.225c-5.523,0-10,4.477-10,10s4.477,10,10,10h9.225
	c40.957,0,74.279-33.322,74.279-74.279v-11.292h13.803c-3.681,6.147-5.804,13.328-5.804,20.999c0,12.374,5.518,23.475,14.212,30.999
	c-8.695,7.524-14.212,18.625-14.212,30.999s5.518,23.475,14.212,30.999c-8.695,7.524-14.212,18.625-14.212,30.999
	s5.518,23.475,14.212,30.999c-8.695,7.524-14.212,18.625-14.212,30.999c0,7.671,2.122,14.852,5.804,20.999h-82.915
	c-15.218,0-30.118-2.817-44.283-8.374l-16.381-6.425V282.488l42.086-50.867c3.521-4.255,2.925-10.559-1.33-14.078
	c-4.256-3.521-10.559-2.926-14.079,1.33l-27.791,33.589c-1.661-3.222-5.013-5.429-8.887-5.429H10c-5.523,0-10,4.477-10,10v244.957
	c0,5.523,4.477,10,10,10h87.215c5.523,0,10-4.477,10-10v-3.313l9.079,3.561c16.502,6.473,33.859,9.754,51.586,9.754h192.699
	c22.606,0,40.998-18.392,40.998-40.998c0-7.755-2.165-15.012-5.921-21.203c20.699-2.054,36.92-19.564,36.92-40.794
	c0-12.374-5.518-23.475-14.212-30.999C427.057,370.472,432.575,359.371,432.575,346.997z M19.999,491.99V267.031h67.215V491.99
	L19.999,491.99L19.999,491.99z M264.99,285c0-11.58,9.42-20.999,20.999-20.999h14.586h60.002c11.58,0,20.999,9.421,20.999,20.999
	s-9.42,20.999-20.999,20.999h-74.588C274.409,305.999,264.99,296.579,264.99,285z M360.578,491.992h-74.589
	c-11.58,0-20.999-9.42-20.999-20.999c0-11.58,9.42-20.999,20.999-20.999h74.589c11.58,0,20.999,9.421,20.999,20.999
	C381.577,482.572,372.156,491.992,360.578,491.992z M412.576,408.996c0,11.579-9.42,20.999-20.999,20.999h-30.999h-74.589
	c-11.58,0-20.999-9.42-20.999-20.999s9.42-20.999,20.999-20.999h105.588C403.155,387.996,412.576,397.416,412.576,408.996z
	 M285.989,367.997c-11.58,0-20.999-9.42-20.999-20.999c0-11.58,9.42-20.999,20.999-20.999h74.589h30.999
	c11.58,0,20.999,9.421,20.999,20.999c0,11.579-9.42,20.999-20.999,20.999H285.989z"/>
<g>
</g>
<g>
</g>
<g>
</g>
<g>
</g>
<g>
</g>
<g>
</g>
<g>
</g>
<g>
</g>
<g>
</g>
<g>
</g>
<g>
</g>
<g>
</g>
<g>
</g>
<g>
</g>
<g>
</g>
</svg>
