<?xml version="1.0" encoding="iso-8859-1"?>
<!-- Generator: Adobe Illustrator 19.0.0, SVG Export Plug-In . SVG Version: 6.00 Build 0)  -->
<svg version="1.1" id="Capa_1" xmlns="http://www.w3.org/2000/svg" xmlns:xlink="http://www.w3.org/1999/xlink" x="0px" y="0px"
	 viewBox="0 0 512 512" style="enable-background:new 0 0 512 512;" xml:space="preserve">
<circle style="fill:#E5F8D2;" cx="473.997" cy="63.985" r="28.002"/>
<circle style="fill:#FFE1AF;" cx="473.997" cy="448.015" r="28.002"/>
<circle style="fill:#D9F9F7;" cx="38.003" cy="63.985" r="28.002"/>
<circle style="fill:#FF8E8E;" cx="38.003" cy="448.015" r="28.002"/>
<path style="fill:#96EDE7;" d="M447.995,282.539v-53.077c0-4.311-3.494-7.806-7.806-7.806h-23.057c-3.534,0-6.649-2.37-7.539-5.79
	c-3.704-14.247-9.335-27.716-16.603-40.11c-1.789-3.05-1.268-6.928,1.233-9.429l16.297-16.297c3.048-3.048,3.048-7.991,0-11.039
	L372.99,101.46c-3.048-3.048-7.991-3.048-11.039,0l-16.297,16.297c-2.5,2.5-6.379,3.022-9.429,1.233
	c-12.394-7.27-25.863-12.9-40.11-16.603c-3.421-0.889-5.79-4.004-5.79-7.539V71.791c0-4.311-3.494-7.806-7.806-7.806h-53.077
	c-4.311,0-7.806,3.494-7.806,7.806v23.109c0,3.531-2.365,6.644-5.781,7.536c-14.223,3.716-27.669,9.353-40.041,16.623
	c-3.051,1.793-6.933,1.273-9.435-1.229l-16.37-16.37c-3.048-3.048-7.991-3.048-11.039,0l-37.531,37.531
	c-3.048,3.048-3.048,7.991,0,11.039l16.423,16.423c2.499,2.499,3.021,6.374,1.236,9.423c-7.236,12.36-12.842,25.788-16.534,39.988
	c-0.889,3.421-4.003,5.791-7.539,5.791H71.771c-4.311,0-7.806,3.494-7.806,7.806v53.077c0,4.311,3.494,7.806,7.806,7.806h23.307
	c3.531,0,6.644,2.365,7.536,5.782c3.704,14.177,9.318,27.581,16.554,39.919c1.789,3.051,1.269,6.929-1.232,9.43l-16.496,16.496
	c-3.048,3.048-3.048,7.991,0,11.039l37.531,37.531c3.048,3.048,7.991,3.048,11.039,0l16.496-16.496
	c2.501-2.501,6.379-3.021,9.43-1.232c12.338,7.237,25.743,12.85,39.919,16.554c3.416,0.893,5.782,4.004,5.782,7.536v23.307
	c0,4.311,3.494,7.806,7.806,7.806h53.077c4.311,0,7.806-3.494,7.806-7.806v-23.256c0-3.534,2.37-6.649,5.791-7.539
	c14.201-3.692,27.628-9.299,39.988-16.534c3.05-1.785,6.925-1.263,9.423,1.236l16.423,16.423c3.048,3.048,7.991,3.048,11.039,0
	l37.531-37.531c3.048-3.048,3.048-7.991,0-11.039l-16.37-16.37c-2.502-2.502-3.022-6.383-1.229-9.435
	c7.271-12.372,12.907-25.818,16.623-40.041c0.893-3.416,4.005-5.781,7.536-5.781h23.109
	C444.501,290.344,447.995,286.849,447.995,282.539z"/>
<circle style="fill:#FFFFFF;" cx="255.98" cy="256" r="108.008"/>
<path style="fill:#FF5D5D;" d="M233.602,247.5l-67.86,67.86c19.316,29.304,52.516,48.648,90.238,48.648
	c59.651,0,108.008-48.357,108.008-108.008c0-23.583-7.564-45.397-20.39-63.159l-82.327,82.328L233.602,247.5z"/>
<path d="M473.997,410.012c-17.493,0-32.256,11.885-36.658,28.002h-33.348v-0.333c0-5.522-4.478-10.001-10.001-10.001
	c-5.522,0-10.001,4.478-10.001,10.001v10.334c0,5.522,4.478,10.001,10.001,10.001h43.348c4.402,16.117,19.164,28.002,36.658,28.002
	c20.955,0,38.003-17.048,38.003-38.003C512,427.06,494.952,410.012,473.997,410.012z M473.997,466.016
	c-9.926,0-18.001-8.076-18.001-18.001c0-9.926,8.076-18.001,18.001-18.001c9.926,0,18.001,8.076,18.001,18.001
	C491.998,457.941,483.923,466.016,473.997,466.016z"/>
<path d="M38.003,101.988c17.493,0,32.256-11.885,36.658-28.002h33.348c0,5.522,4.478,10.001,10.001,10.001
	c5.522,0,10.001-4.478,10.001-10.001V63.985c0-5.522-4.478-10.001-10.001-10.001H74.661c-4.402-16.117-19.164-28.002-36.658-28.002
	C17.048,25.982,0,43.03,0,63.985S17.048,101.988,38.003,101.988z M38.003,45.984c9.926,0,18.001,8.076,18.001,18.001
	s-8.076,18.001-18.001,18.001s-18.001-8.076-18.001-18.001S28.077,45.984,38.003,45.984z"/>
<path d="M422.807,367.49c0-4.756-1.853-9.229-5.215-12.591l-15.173-15.174c7.105-12.382,12.6-25.614,16.351-39.38h21.42
	c9.818,0,17.806-7.988,17.806-17.807v-53.076c0-9.819-7.988-17.807-17.806-17.807h-21.367c-3.738-13.787-9.227-27.044-16.332-39.452
	l15.101-15.101c3.363-3.363,5.216-7.836,5.216-12.592c0-4.756-1.853-9.229-5.215-12.591l-37.53-37.53
	c-3.363-3.363-7.836-5.216-12.592-5.216c-4.756,0-9.229,1.853-12.591,5.215l-15.102,15.102
	c-12.41-7.107-25.665-12.594-39.452-16.332V71.791c0-9.818-7.988-17.806-17.807-17.806h-53.076c-9.819,0-17.807,7.988-17.807,17.806
	v21.42c-13.766,3.751-26.998,9.246-39.38,16.351l-15.173-15.172c-3.363-3.363-7.836-5.216-12.592-5.216
	c-4.756,0-9.229,1.853-12.591,5.215l-37.53,37.53c-3.363,3.363-5.216,7.836-5.216,12.592c0,4.756,1.853,9.229,5.215,12.591
	l15.229,15.229c-7.073,12.374-12.536,25.587-16.261,39.325H71.771c-9.818,0-17.806,7.988-17.806,17.807v53.076
	c0,9.819,7.988,17.807,17.806,17.807h21.619c3.737,13.717,9.207,26.905,16.278,39.253l-15.299,15.3
	c-3.363,3.363-5.216,7.836-5.216,12.592s1.853,9.229,5.215,12.591l37.53,37.53c3.363,3.363,7.836,5.216,12.592,5.216
	c4.756,0,9.229-1.853,12.591-5.215l15.301-15.3c12.348,7.072,25.536,12.541,39.253,16.278v21.619
	c0,9.818,7.988,17.806,17.807,17.806h53.076c9.819,0,17.807-7.988,17.807-17.806v-21.565c13.737-3.725,26.95-9.189,39.325-16.261
	l15.228,15.228c3.363,3.363,7.836,5.216,12.592,5.216c4.756,0,9.229-1.853,12.591-5.215l37.53-37.53
	C420.955,376.718,422.807,372.246,422.807,367.49z M367.47,401.916l-14.871-14.871c-5.723-5.723-14.584-6.873-21.547-2.794
	c-11.724,6.862-24.325,12.072-37.453,15.485c-7.817,2.032-13.275,9.112-13.275,17.217v21.061h-48.688v-21.111
	c0-8.096-5.45-15.173-13.254-17.212c-13.108-3.426-25.688-8.643-37.389-15.505c-6.969-4.085-15.833-2.94-21.561,2.787
	l-14.943,14.943l-34.427-34.427l14.943-14.943c5.727-5.727,6.874-14.593,2.787-21.562c-6.863-11.7-12.079-24.279-15.505-37.39
	c-2.041-7.803-9.119-13.252-17.212-13.252h-21.11v-48.688h21.061c8.105,0,15.185-5.458,17.218-13.276
	c3.412-13.127,8.623-25.729,15.483-37.45c4.078-6.965,2.93-15.825-2.793-21.549l-14.871-14.871l34.427-34.427l14.817,14.817
	c5.73,5.73,14.602,6.877,21.573,2.779c11.73-6.895,24.349-12.133,37.503-15.57c7.804-2.038,13.253-9.116,13.253-17.211V73.986
	h48.688v20.862c0,8.105,5.458,15.185,13.275,17.218c13.172,3.424,25.812,8.656,37.566,15.55c6.968,4.085,15.832,2.939,21.56-2.787
	l14.745-14.745l34.427,34.427l-14.745,14.745c-5.727,5.727-6.873,14.593-2.787,21.561c6.895,11.754,12.126,24.394,15.551,37.566
	c2.032,7.816,9.112,13.274,17.217,13.274h20.862v48.688h-20.913c-8.096,0-15.173,5.449-17.211,13.253
	c-3.438,13.154-8.677,25.773-15.57,37.503c-4.096,6.97-2.953,15.84,2.779,21.573l14.817,14.817L367.47,401.916z"/>
<path d="M296.47,145.124c-5.187-1.897-10.932,0.772-12.824,5.962c-1.896,5.188,0.774,10.93,5.962,12.824
	c38.507,14.066,64.379,51.074,64.379,92.089c0,54.041-43.966,98.008-98.008,98.008S157.972,310.041,157.972,256
	c0-40.467,24.305-76.246,61.919-91.152c5.134-2.035,7.647-7.848,5.612-12.982c-2.034-5.134-7.847-7.646-12.982-5.612
	c-21.74,8.616-40.29,23.37-53.645,42.668c-13.677,19.766-20.906,42.96-20.906,67.078c0,65.07,52.939,118.009,118.009,118.009
	S373.989,321.07,373.989,256C373.989,206.618,342.838,162.06,296.47,145.124z"/>
<path d="M255.98,157.992l0.443,0.001c0.021,0,0.04,0,0.06,0c5.495,0,9.968-4.439,10-9.942c0.032-5.522-4.419-10.027-9.942-10.06
	l-0.561-0.001c-5.522,0-10.001,4.478-10.001,10.001C245.979,153.514,250.458,157.992,255.98,157.992z"/>
<path d="M212.218,268.885c3.906,3.904,10.237,3.904,14.144,0l11.705-11.705l20.598,20.598c1.876,1.875,4.419,2.929,7.072,2.929
	s5.195-1.054,7.072-2.929l31.766-31.766c1.146,4.26,5.024,7.402,9.647,7.402c5.522,0,10.001-4.478,10.001-10.001V222.23
	c0-5.522-4.478-10.001-10.001-10.001h-21.183c-5.522,0-10.001,4.478-10.001,10.001c0,4.616,3.133,8.492,7.386,9.644l-24.688,24.689
	l-20.598-20.598c-3.906-3.904-10.237-3.904-14.144,0l-18.776,18.776C208.312,258.646,208.312,264.979,212.218,268.885z"/>
<path d="M189.215,277.742c-1.86,1.869-2.931,4.439-2.931,7.07c0,2.63,1.07,5.21,2.931,7.071c1.859,1.86,4.439,2.93,7.07,2.93
	c2.641,0,5.21-1.069,7.071-2.93c1.87-1.86,2.93-4.44,2.93-7.071c0-2.63-1.06-5.21-2.93-7.07c-1.86-1.86-4.43-2.931-7.071-2.931
	C193.655,274.811,191.075,275.882,189.215,277.742z"/>
<path d="M393.991,83.987c5.522,0,10.001-4.478,10.001-10.001h33.348c4.402,16.117,19.164,28.002,36.658,28.002
	c20.955,0,38.003-17.048,38.003-38.003s-17.048-38.003-38.003-38.003c-17.493,0-32.256,11.885-36.658,28.002h-43.348
	c-5.522,0-10.001,4.478-10.001,10.001v10.001C383.99,79.508,388.468,83.987,393.991,83.987z M473.997,45.984
	c9.926,0,18.001,8.076,18.001,18.001s-8.076,18.001-18.001,18.001c-9.926,0-18.001-8.076-18.001-18.001
	S464.071,45.984,473.997,45.984z"/>
<path d="M118.009,427.68c-5.522,0-10.001,4.478-10.001,10.001v0.333H74.661c-4.402-16.117-19.164-28.002-36.658-28.002
	C17.048,410.012,0,427.06,0,448.015c0,20.955,17.048,38.003,38.003,38.003c17.493,0,32.256-11.885,36.658-28.002h43.348
	c5.522,0,10.001-4.478,10.001-10.001v-10.334C128.01,432.159,123.532,427.68,118.009,427.68z M38.003,466.016
	c-9.926,0-18.001-8.076-18.001-18.001c0-9.926,8.076-18.001,18.001-18.001s18.001,8.076,18.001,18.001
	C56.004,457.941,47.929,466.016,38.003,466.016z"/>
<g>
</g>
<g>
</g>
<g>
</g>
<g>
</g>
<g>
</g>
<g>
</g>
<g>
</g>
<g>
</g>
<g>
</g>
<g>
</g>
<g>
</g>
<g>
</g>
<g>
</g>
<g>
</g>
<g>
</g>
</svg>
