<?xml version="1.0" encoding="iso-8859-1"?>
<!-- Generator: Adobe Illustrator 19.0.0, SVG Export Plug-In . SVG Version: 6.00 Build 0)  -->
<svg version="1.1" id="Capa_1" xmlns="http://www.w3.org/2000/svg" xmlns:xlink="http://www.w3.org/1999/xlink" x="0px" y="0px"
	 viewBox="0 0 512 512" style="enable-background:new 0 0 512 512;" xml:space="preserve">
<g>
	<circle style="fill:#96EDE7;" cx="30" cy="256" r="20"/>
	<circle style="fill:#96EDE7;" cx="482" cy="256" r="20"/>
	<circle style="fill:#96EDE7;" cx="256" cy="30" r="20"/>
	<circle style="fill:#96EDE7;" cx="256" cy="482" r="20"/>
	<path style="fill:#96EDE7;" d="M304.576,256h-97.153c-35.346,0-64,28.654-64,64v49.97h225.153V320
		C368.576,284.654,339.923,256,304.576,256z"/>
</g>
<path style="fill:#546DFF;" d="M256,123.97L256,123.97c-27.357,0-49.534,22.177-49.534,49.534v11.924h24.219
	c16.099,0,31.372-7.128,41.712-19.468l0,0l33.136,19.468v-11.924C305.534,146.147,283.357,123.97,256,123.97z"/>
<path style="fill:#FEC869;" d="M261.728,175.694c-9.024,6.268-19.83,9.734-31.043,9.734h-24.219v21.039
	C206.466,233.823,228.643,256,256,256l0,0c27.357,0,49.534-22.177,49.534-49.534v-21.039l-16.568-9.734l-16.568-9.734
	L261.728,175.694z"/>
<path d="M359.616,66.427c50.356,27.585,88.277,74.937,104.042,129.913c1.258,4.389,5.259,7.247,9.607,7.247
	c0.912,0,1.841-0.126,2.761-0.391c5.31-1.521,8.379-7.06,6.856-12.368c-17.225-60.074-58.651-111.81-113.657-141.942
	c-4.844-2.65-10.921-0.877-13.575,3.966C352.997,57.695,354.772,63.773,359.616,66.427z"/>
<path d="M322.731,50.503l0.36,0.116c1.03,0.336,2.075,0.496,3.103,0.496c4.211,0,8.129-2.682,9.505-6.902
	c1.713-5.251-1.156-10.896-6.406-12.607l-0.446-0.146c-5.261-1.688-10.891,1.206-12.579,6.464S317.473,48.813,322.731,50.503z"/>
<path d="M34.952,207.67c0.857,0.228,1.718,0.336,2.565,0.336c4.427,0,8.475-2.963,9.66-7.444c1.379-5.207,2.977-10.434,4.749-15.532
	c1.813-5.217-0.944-10.916-6.161-12.729c-5.22-1.813-10.916,0.945-12.729,6.161c-1.938,5.575-3.686,11.289-5.192,16.983
	C26.431,200.783,29.613,206.257,34.952,207.67z"/>
<path d="M59.208,144.345c1.653,1.04,3.494,1.535,5.313,1.535c3.324,0,6.576-1.656,8.476-4.679c2.868-4.563,5.949-9.077,9.157-13.421
	c3.282-4.441,2.341-10.703-2.102-13.984c-4.439-3.282-10.702-2.343-13.984,2.102c-3.505,4.743-6.87,9.675-10.003,14.659
	C53.125,135.232,54.532,141.405,59.208,144.345z"/>
<path d="M166.132,58.578c1.328,0,2.679-0.267,3.975-0.829c4.943-2.145,10.033-4.127,15.128-5.894
	c5.218-1.809,7.982-7.506,6.173-12.724c-1.808-5.218-7.505-7.982-12.724-6.173c-5.569,1.931-11.133,4.098-16.536,6.442
	c-5.067,2.198-7.393,8.087-5.194,13.153C158.589,56.325,162.268,58.578,166.132,58.578z"/>
<path d="M108.749,94.555c2.308,0,4.627-0.795,6.514-2.417c4.091-3.517,8.366-6.922,12.707-10.121
	c4.445-3.277,5.393-9.537,2.116-13.983c-3.277-4.446-9.537-5.395-13.983-2.116c-4.74,3.495-9.409,7.214-13.877,11.055
	c-4.188,3.6-4.665,9.914-1.064,14.102C103.139,93.374,105.936,94.555,108.749,94.555z"/>
<path d="M60,256c0-16.542-13.458-30-30-30S0,239.458,0,256s13.458,30,30,30S60,272.542,60,256z M20,256c0-5.514,4.486-10,10-10
	s10,4.486,10,10s-4.486,10-10,10S20,261.514,20,256z"/>
<path d="M482,226c-16.542,0-30,13.458-30,30s13.458,30,30,30s30-13.458,30-30S498.542,226,482,226z M482,266
	c-5.514,0-10-4.486-10-10s4.486-10,10-10s10,4.486,10,10S487.514,266,482,266z"/>
<path d="M256,60c16.542,0,30-13.458,30-30S272.542,0,256,0s-30,13.458-30,30S239.458,60,256,60z M256,20c5.514,0,10,4.486,10,10
	s-4.486,10-10,10s-10-4.486-10-10S250.486,20,256,20z"/>
<path d="M153.612,446.241c-50.991-27.504-89.36-75.1-105.271-130.582c-1.521-5.308-7.057-8.382-12.369-6.855
	c-5.309,1.522-8.378,7.06-6.855,12.369C46.501,381.798,88.418,433.8,144.118,463.845c1.51,0.813,3.136,1.2,4.738,1.2
	c3.558,0,7.003-1.903,8.811-5.255C160.288,454.93,158.474,448.863,153.612,446.241z"/>
<path d="M189.307,461.51l-0.285-0.093c-5.261-1.69-10.892,1.199-12.583,6.456s1.198,10.891,6.456,12.583l0.221,0.071
	c1.028,0.335,2.071,0.494,3.098,0.494c4.213,0,8.132-2.685,9.507-6.907C197.43,468.863,194.559,463.22,189.307,461.51z"/>
<path d="M341.894,454.251c-4.943,2.145-10.033,4.127-15.128,5.894c-5.218,1.809-7.982,7.506-6.173,12.724
	c1.433,4.134,5.306,6.728,9.448,6.728c1.086,0,2.191-0.179,3.275-0.555c5.569-1.931,11.133-4.098,16.536-6.442
	c5.067-2.198,7.393-8.087,5.194-13.153S346.959,452.051,341.894,454.251z"/>
<path d="M452.792,367.655c-4.676-2.941-10.85-1.532-13.788,3.144c-2.868,4.563-5.949,9.077-9.157,13.421
	c-3.282,4.441-2.341,10.703,2.102,13.984c1.787,1.321,3.869,1.958,5.934,1.958c3.064,0,6.09-1.404,8.051-4.06
	c3.505-4.743,6.87-9.675,10.003-14.659C458.875,376.768,457.468,370.595,452.792,367.655z"/>
<path d="M396.737,419.862c-4.091,3.517-8.366,6.922-12.707,10.121c-4.445,3.277-5.393,9.537-2.116,13.983
	c1.961,2.66,4.988,4.067,8.058,4.067c2.061,0,4.14-0.635,5.926-1.951c4.74-3.495,9.409-7.214,13.877-11.055
	c4.188-3.6,4.665-9.914,1.064-14.102C407.239,416.738,400.925,416.263,396.737,419.862z"/>
<path d="M477.048,304.33c-5.337-1.416-10.813,1.769-12.226,7.108c-1.379,5.207-2.977,10.434-4.749,15.532
	c-1.813,5.217,0.944,10.916,6.161,12.729c1.088,0.378,2.194,0.558,3.284,0.558c4.139,0,8.01-2.59,9.445-6.719
	c1.938-5.575,3.686-11.289,5.192-16.983C485.569,311.217,482.387,305.743,477.048,304.33z"/>
<path d="M256,452c-16.542,0-30,13.458-30,30s13.458,30,30,30s30-13.458,30-30S272.542,452,256,452z M256,492
	c-5.514,0-10-4.486-10-10s4.486-10,10-10s10,4.486,10,10S261.514,492,256,492z"/>
<path d="M304.576,246h-4.115c9.366-10.522,15.072-24.371,15.072-39.533v-21.039v-9.734v-2.19c0-32.827-26.706-59.533-59.533-59.533
	s-59.533,26.706-59.533,59.533v2.19v9.734v21.039c0,15.162,5.706,29.011,15.072,39.533h-4.115c-40.804,0-74,33.196-74,74v49.97
	c0,5.522,4.478,10,10,10h225.152c5.522,0,10-4.478,10-10V320C378.576,279.196,345.38,246,304.576,246z M216.467,173.503
	c0-21.799,17.734-39.533,39.533-39.533c19.829,0,36.296,14.676,39.109,33.735l-17.646-10.367c-4.21-2.475-9.593-1.544-12.73,2.199
	c-8.462,10.099-20.871,15.891-34.047,15.891h-14.219L216.467,173.503L216.467,173.503z M216.467,206.467v-11.039h14.219
	c16.225,0,31.649-6.057,43.447-16.851l21.4,12.573v15.316c0,21.8-17.734,39.534-39.533,39.534S216.467,228.266,216.467,206.467z
	 M358.576,359.97H153.424V320c0-29.775,24.225-54,54-54H246v42c0,5.522,4.478,10,10,10s10-4.478,10-10v-42h38.576
	c29.775,0,54,24.225,54,54V359.97z"/>
<path d="M99.733,265.733c2.559,0,5.118-0.977,7.071-2.929l55.063-55.063l6.194,6.195c3.906,3.904,10.236,3.906,14.143,0
	c3.905-3.905,3.905-10.236,0-14.142l-13.266-13.267c-1.875-1.876-4.419-2.93-7.071-2.93s-5.195,1.054-7.071,2.929L92.661,248.66
	c-3.905,3.905-3.905,10.237,0,14.143C94.615,264.757,97.174,265.733,99.733,265.733z"/>
<path d="M392.506,166.917c5.522,0,10-4.478,10-10v-28.086c0-5.522-4.478-10-10-10h-28.085c-5.522,0-10,4.478-10,10s4.478,10,10,10
	h3.925l-36.861,36.861c-3.905,3.905-3.905,10.237,0,14.143c1.953,1.952,4.512,2.929,7.071,2.929s5.118-0.977,7.071-2.929
	l36.879-36.879v3.961C382.506,162.439,386.983,166.917,392.506,166.917z"/>
<g>
</g>
<g>
</g>
<g>
</g>
<g>
</g>
<g>
</g>
<g>
</g>
<g>
</g>
<g>
</g>
<g>
</g>
<g>
</g>
<g>
</g>
<g>
</g>
<g>
</g>
<g>
</g>
<g>
</g>
</svg>
