<?xml version="1.0" encoding="iso-8859-1"?>
<!-- Generator: Adobe Illustrator 19.0.0, SVG Export Plug-In . SVG Version: 6.00 Build 0)  -->
<svg version="1.1" id="Capa_1" xmlns="http://www.w3.org/2000/svg" xmlns:xlink="http://www.w3.org/1999/xlink" x="0px" y="0px"
	 viewBox="0 0 512 512" style="enable-background:new 0 0 512 512;" xml:space="preserve">
<path style="fill:#FED284;" d="M462,10H50c-22.091,0-40,17.909-40,40v412c0,22.091,17.909,40,40,40h412c22.091,0,40-17.909,40-40V50
	C502,27.909,484.091,10,462,10z"/>
<polygon style="fill:#FFF3DD;" points="288.157,50 288.157,10 208.157,10 208.157,50 50,50 50,462 279.484,462 279.484,502 
	359.484,502 359.484,462 462,462 462,50 "/>
<path d="M279.447,452H60v-48.667h88.813c5.522,0,10-4.478,10-10s-4.478-10-10-10H60v-48.666h152.225V391c0,5.522,4.478,10,10,10
	s10-4.478,10-10v-66.333c0-5.522-4.478-10-10-10H60V266h42.11v12.789c0,5.522,4.478,10,10,10s10-4.478,10-10V256
	c0-5.522-4.478-10-10-10H50c-5.522,0-10,4.478-10,10v68.667V462c0,5.522,4.478,10,10,10h219.447v20h-77.78c-5.522,0-10,4.478-10,10
	s4.478,10,10,10h87.78c5.522,0,10-4.478,10-10v-40C289.447,456.478,284.97,452,279.447,452z"/>
<path d="M153,492c-2.63,0-5.21,1.069-7.07,2.93S143,499.37,143,502s1.069,5.21,2.93,7.069c1.86,1.86,4.44,2.931,7.07,2.931
	s5.21-1.07,7.069-2.931C161.93,507.21,163,504.63,163,502s-1.07-5.21-2.931-7.07C158.21,493.069,155.63,492,153,492z"/>
<path d="M112.11,492H50c-16.542,0-30-13.458-30-30V50c0-16.542,13.458-30,30-30h148.157v20H50c-5.522,0-10,4.478-10,10v68.667
	v68.666c0,5.522,4.478,10,10,10h62.11c5.522,0,10-4.478,10-10s-4.478-10-10-10H60v-48.666h325.427v48.666H250.833
	c-5.522,0-10,4.478-10,10v18.881c0,5.522,4.478,10,10,10c5.522,0,10-4.478,10-10v-8.881h134.594c5.522,0,10-4.478,10-10v-68.666
	c0-5.522-4.478-10-10-10H60V60h148.157c5.522,0,10-4.478,10-10V10c0-5.522-4.478-10-10-10H50C22.43,0,0,22.43,0,50v412
	c0,27.57,22.43,50,50,50h62.11c5.522,0,10-4.478,10-10S117.633,492,112.11,492z"/>
<path d="M462,0H288.157c-5.522,0-10,4.478-10,10v40c0,5.522,4.478,10,10,10H452v186H336.713c-5.522,0-10,4.478-10,10s4.478,10,10,10
	H462c5.522,0,10-4.478,10-10V50c0-5.522-4.478-10-10-10H298.157V20H462c16.542,0,30,13.458,30,30v412c0,16.542-13.458,30-30,30
	h-92.516v-20H462c5.522,0,10-4.478,10-10v-68.667v-68.666c0-5.522-4.478-10-10-10H345.233c-5.522,0-10,4.478-10,10s4.478,10,10,10
	H452v48.666H291.234v-16.518c0-5.522-4.478-10-10-10s-10,4.478-10,10v26.518c0,5.522,4.478,10,10,10H452V452h-92.516
	c-5.522,0-10,4.478-10,10v40c0,5.522,4.478,10,10,10H462c27.57,0,50-22.43,50-50V50C512,22.43,489.57,0,462,0z"/>
<path d="M289.26,248.93c-1.86,1.86-2.93,4.44-2.93,7.07s1.069,5.21,2.93,7.069c1.86,1.86,4.44,2.931,7.07,2.931
	s5.21-1.07,7.069-2.931c1.87-1.859,2.931-4.439,2.931-7.069s-1.061-5.21-2.931-7.07c-1.859-1.86-4.43-2.93-7.069-2.93
	C293.7,246,291.12,247.069,289.26,248.93z"/>
<path d="M181.472,177.333c-5.522,0-10,4.478-10,10V256c0,5.522,4.478,10,10,10h71.787c5.522,0,10-4.478,10-10s-4.478-10-10-10
	h-61.787v-58.667C191.472,181.811,186.994,177.333,181.472,177.333z"/>
<path d="M238.157,82.852v0.282c0,5.522,4.478,10,10,10s10-4.478,10-10v-0.282c1.904,1.732,4.308,2.61,6.719,2.61
	c2.559,0,5.118-0.977,7.071-2.929c3.905-3.905,3.905-10.236,0-14.143l-16.719-16.72c-1.875-1.875-4.419-2.929-7.071-2.929
	s-5.196,1.054-7.071,2.929l-16.719,16.72c-3.905,3.906-3.905,10.237,0,14.143C228.16,86.324,234.233,86.423,238.157,82.852z"/>
<path d="M326.556,417.819c-3.906-3.904-10.236-3.904-14.143,0l-17.229,17.229c-3.905,3.905-3.905,10.237,0,14.143
	c3.906,3.904,10.236,3.904,14.143,0l0.157-0.157v0.248c0,5.522,4.478,10,10,10s10-4.478,10-10v-0.248l0.157,0.157
	c1.953,1.952,4.512,2.929,7.071,2.929s5.118-0.977,7.071-2.929c3.905-3.905,3.905-10.237,0-14.143L326.556,417.819z"/>
<g>
</g>
<g>
</g>
<g>
</g>
<g>
</g>
<g>
</g>
<g>
</g>
<g>
</g>
<g>
</g>
<g>
</g>
<g>
</g>
<g>
</g>
<g>
</g>
<g>
</g>
<g>
</g>
<g>
</g>
</svg>
