<?xml version="1.0" encoding="iso-8859-1"?>
<!-- Generator: Adobe Illustrator 19.0.0, SVG Export Plug-In . SVG Version: 6.00 Build 0)  -->
<svg version="1.1" id="Capa_1" xmlns="http://www.w3.org/2000/svg" xmlns:xlink="http://www.w3.org/1999/xlink" x="0px" y="0px"
	 viewBox="0 0 512 512" style="enable-background:new 0 0 512 512;" xml:space="preserve">
<path style="fill:#FFE1AF;" d="M407.438,316.553L283.799,113.358c-25.101-11.405-53.134-14.696-80.194-9.416l-81.727,15.948H74
	v168.724c10.442,0,20.588,3.47,28.844,9.864l6.249,4.841l162.39,74.56c9.156,8.898,23.791,8.689,32.689-0.467
	s8.689-23.791-0.467-32.689l-51.903-50.441l25.261,24.519l51.903,50.441c9.156,8.898,23.791,8.689,32.688-0.467
	c8.898-9.156,8.689-23.791-0.467-32.688l-51.903-50.441l32.776,31.842l33.155,32.222c9.156,8.898,23.791,8.689,32.688-0.467l0,0
	C416.803,340.086,416.594,325.451,407.438,316.553z"/>
<path style="fill:#FFDCA0;" d="M438,274.783l-44.384,23.66l-94.883-86.9l-36.469-3.224l-81.631,46.12
	c-10.086,5.699-22.749,3.862-30.801-4.467l0,0c-9.684-10.017-9.506-25.961,0.398-35.76l75.713-74.913
	c16.112-15.942,37.863-24.883,60.528-24.883H438V274.783z"/>
<path style="fill:#FF5D5D;" d="M438,300.115V110.528c0-5.523,4.477-10,10-10h54v209.588h-54
	C442.477,310.115,438,305.638,438,300.115z"/>
<path style="fill:#A0E557;" d="M74,300.115V110.528c0-5.523-4.477-10-10-10H10v209.588h54C69.523,310.115,74,305.638,74,300.115z"/>
<g>
	<path style="fill:#FFDCA0;" d="M119.112,323.297L119.112,323.297c-9.296-7.658-10.625-21.402-2.967-30.699l8.132-9.872
		c7.658-9.296,21.402-10.625,30.699-2.967l0,0c9.296,7.658,10.625,21.402,2.967,30.699l-8.132,9.872
		C142.152,329.626,128.408,330.954,119.112,323.297z"/>
	<path style="fill:#FFDCA0;" d="M152.777,351.029L152.777,351.029c-9.296-7.658-10.625-21.402-2.967-30.699l8.132-9.872
		c7.658-9.296,21.402-10.625,30.699-2.967l0,0c9.296,7.658,10.625,21.402,2.967,30.699l-8.132,9.872
		C175.818,357.359,162.073,358.687,152.777,351.029z"/>
	<path style="fill:#FFDCA0;" d="M186.442,378.76L186.442,378.76c-9.296-7.658-10.625-21.402-2.967-30.699l8.132-9.872
		c7.658-9.296,21.402-10.625,30.699-2.967l0,0c9.296,7.658,10.625,21.402,2.967,30.699l-8.132,9.872
		C209.483,385.091,195.739,386.419,186.442,378.76z"/>
	<path style="fill:#FFDCA0;" d="M220.107,406.493L220.107,406.493c-9.296-7.658-10.625-21.402-2.967-30.699l8.132-9.872
		c7.658-9.296,21.402-10.625,30.699-2.967l0,0c9.296,7.658,10.625,21.402,2.967,30.699l-8.132,9.872
		C243.148,412.823,229.404,414.151,220.107,406.493z"/>
</g>
<path d="M502,90.527h-54c-8.896,0-16.447,5.842-19.037,13.889H288.249c-0.106-0.053-0.205-0.113-0.314-0.162
	c-27.153-12.337-56.977-15.84-86.245-10.126l-80.778,15.763H83.968C83.627,99.158,74.813,90.527,64,90.527H10
	c-5.523,0-10,4.478-10,10v64.288c0,5.522,4.477,10,10,10s10-4.478,10-10v-54.288h44v189.588H20v-53.3c0-5.522-4.477-10-10-10
	s-10,4.478-10,10v63.3c0,5.522,4.477,10,10,10h54c11.028,0,20-8.972,20-20v-0.11c4.589,1.288,8.931,3.444,12.721,6.38l4.669,3.616
	c0.887,7.936,4.729,15.549,11.364,21.015c5.914,4.871,13.074,7.243,20.196,7.243c0.716,0,1.431-0.033,2.145-0.081
	c1.015,8.088,5.007,15.365,11.325,20.569c5.914,4.871,13.074,7.244,20.197,7.243c0.716,0,1.43-0.032,2.144-0.08
	c1.015,8.088,5.008,15.365,11.326,20.57l0,0c5.75,4.735,12.813,7.261,20.167,7.261c0.727,0,1.458-0.034,2.19-0.084
	c0.982,7.769,4.801,15.195,11.308,20.556c5.75,4.735,12.813,7.261,20.167,7.261c1.034,0,2.075-0.051,3.118-0.151
	c8.457-0.817,16.089-4.879,21.491-11.437l8.132-9.872c2.393-2.904,4.178-6.111,5.38-9.465c4.735,2.528,10.04,3.871,15.544,3.871
	c0.162,0,0.324-0.002,0.486-0.004c8.845-0.126,17.111-3.689,23.276-10.033c3.252-3.346,5.648-7.211,7.203-11.321l3.451,3.354
	c6.425,6.244,14.753,9.352,23.076,9.352c8.639,0,17.271-3.352,23.753-10.021c3.681-3.787,6.265-8.238,7.771-12.958
	c4.627,2.294,9.676,3.446,14.726,3.446c8.639,0,17.271-3.351,23.753-10.021c6.165-6.344,9.491-14.708,9.364-23.554
	c-0.126-8.845-3.689-17.111-10.024-23.267l-6.948-6.77L428,291.542v8.573c0,11.028,8.972,20,20,20h54c5.523,0,10-4.478,10-10v-66.3
	c0-5.522-4.477-10-10-10s-10,4.478-10,10v56.3h-44v-25.276c0-0.027,0-0.054,0-0.081V110.527h44v55.822c0,5.522,4.477,10,10,10
	s10-4.478,10-10v-65.822C512,95.005,507.523,90.527,502,90.527z M125.47,315.578c-5.026-4.14-5.747-11.597-1.607-16.622l8.133-9.872
	c2.005-2.435,4.839-3.943,7.978-4.246c0.387-0.038,0.773-0.057,1.157-0.057c2.729,0,5.353,0.938,7.486,2.696
	c5.026,4.14,5.746,11.597,1.607,16.622l-8.132,9.872C137.952,318.997,130.496,319.72,125.47,315.578z M159.135,343.31
	L159.135,343.31c-2.435-2.005-3.942-4.838-4.246-7.978c-0.303-3.14,0.634-6.209,2.64-8.644l8.133-9.873
	c2.005-2.435,4.838-3.942,7.978-4.245c0.387-0.038,0.773-0.057,1.157-0.057c2.729,0,5.353,0.938,7.486,2.696
	c2.435,2.005,3.942,4.839,4.246,7.979c0.303,3.139-0.634,6.208-2.64,8.644l-8.132,9.872
	C171.618,346.729,164.16,347.451,159.135,343.31z M192.801,371.042L192.801,371.042c-2.435-2.005-3.943-4.839-4.247-7.979
	c-0.303-3.139,0.634-6.208,2.64-8.644l8.132-9.872c2.332-2.83,5.715-4.295,9.125-4.295c2.644,0,5.303,0.881,7.498,2.689
	c5.026,4.14,5.747,11.596,1.607,16.621l-8.133,9.873c-2.005,2.435-4.838,3.942-7.978,4.245
	C198.302,373.987,195.234,373.048,192.801,371.042z M251.22,387.296l-8.133,9.872c-2.005,2.435-4.839,3.943-7.978,4.246
	c-3.143,0.308-6.21-0.634-8.644-2.64c-5.026-4.14-5.747-11.597-1.607-16.622l8.133-9.872c2.005-2.435,4.839-3.942,7.979-4.245
	c0.387-0.038,0.773-0.057,1.157-0.057c2.73,0,5.353,0.938,7.487,2.696c2.435,2.005,3.942,4.838,4.246,7.978
	C254.163,381.792,253.226,384.861,251.22,387.296z M400.733,342.272c-5.041,5.188-13.361,5.306-18.548,0.266l-33.155-32.222
	c-0.037-0.036-0.077-0.065-0.114-0.101l-32.662-31.742c-3.96-3.85-10.292-3.758-14.141,0.201
	c-3.849,3.961-3.759,10.292,0.202,14.141l51.902,50.441c5.187,5.041,5.306,13.362,0.265,18.549
	c-5.04,5.188-13.361,5.306-18.548,0.266l-51.903-50.441c-0.104-0.102-0.217-0.189-0.325-0.285l-24.937-24.234
	c-3.96-3.849-10.291-3.758-14.141,0.201c-3.849,3.961-3.759,10.292,0.202,14.141l51.902,50.441
	c5.187,5.041,5.306,13.362,0.265,18.549c-2.442,2.513-5.716,3.924-9.219,3.974c-3.484,0.063-6.815-1.268-9.329-3.71l-14.536-14.126
	c-0.326-0.317-0.674-0.597-1.03-0.861c-0.186-0.16-0.366-0.326-0.557-0.483c-6.512-5.363-14.537-7.689-22.355-7.162
	c-0.979-7.774-4.799-15.206-11.31-20.57c-6.507-5.36-14.527-7.687-22.34-7.163c-1.016-8.087-5.007-15.365-11.325-20.569
	s-14.229-7.73-22.357-7.177c-0.982-7.769-4.801-15.195-11.308-20.556c-6.558-5.401-14.823-7.922-23.284-7.109
	c-8.457,0.817-16.089,4.879-21.491,11.437l-8.133,9.872c-0.683,0.829-1.315,1.683-1.9,2.558c-6.75-4.671-14.469-7.837-22.526-9.281
	V129.891h37.878c0.643,0,1.284-0.062,1.916-0.186l81.727-15.948c13.866-2.705,27.876-2.992,41.569-0.941
	c-10.346,4.653-19.883,11.166-28.179,19.375l-75.713,74.913c-13.73,13.584-13.979,35.933-0.555,49.818
	c6.857,7.095,16.118,10.809,25.493,10.808c5.956-0.001,11.958-1.5,17.417-4.584l79.341-44.826h27.394l108.182,105.406
	c2.513,2.441,3.924,5.715,3.974,9.219C404.493,336.447,403.175,339.76,400.733,342.272z M392.457,287.996l-71.512-69.677h7.022
	c5.523,0,10-4.478,10-10s-4.477-10-10-10h-65.704c-1.724,0-3.418,0.445-4.919,1.294l-81.631,46.119
	c-6.12,3.459-13.806,2.343-18.692-2.711c-5.848-6.049-5.739-15.784,0.242-21.701l75.713-74.913
	c14.333-14.182,33.332-21.991,53.495-21.991H428v144.399L392.457,287.996z"/>
<path d="M502,195.324c-2.63,0-5.21,1.06-7.07,2.93c-1.86,1.86-2.93,4.431-2.93,7.07c0,2.63,1.07,5.21,2.93,7.07
	c1.86,1.859,4.44,2.93,7.07,2.93s5.21-1.07,7.07-2.93c1.86-1.87,2.93-4.44,2.93-7.07c0-2.64-1.07-5.21-2.93-7.07
	C507.21,196.384,504.63,195.324,502,195.324z"/>
<path d="M10,215.324c2.63,0,5.21-1.07,7.07-2.93c1.86-1.87,2.93-4.44,2.93-7.07c0-2.64-1.07-5.21-2.93-7.07
	c-1.86-1.87-4.44-2.93-7.07-2.93s-5.21,1.06-7.07,2.93c-1.86,1.86-2.93,4.431-2.93,7.07c0,2.63,1.07,5.2,2.93,7.07
	C4.79,214.255,7.37,215.324,10,215.324z"/>
<g>
</g>
<g>
</g>
<g>
</g>
<g>
</g>
<g>
</g>
<g>
</g>
<g>
</g>
<g>
</g>
<g>
</g>
<g>
</g>
<g>
</g>
<g>
</g>
<g>
</g>
<g>
</g>
<g>
</g>
</svg>
