<?xml version="1.0" encoding="iso-8859-1"?>
<!-- Generator: Adobe Illustrator 19.0.0, SVG Export Plug-In . SVG Version: 6.00 Build 0)  -->
<svg version="1.1" id="Capa_1" xmlns="http://www.w3.org/2000/svg" xmlns:xlink="http://www.w3.org/1999/xlink" x="0px" y="0px"
	 viewBox="0 0 512 512" style="enable-background:new 0 0 512 512;" xml:space="preserve">
<path style="fill:#D9F9F7;" d="M282,50h72c22.091,0,40,17.909,40,40v372c0,22.091-17.909,40-40,40H50c-22.091,0-40-17.909-40-40V90
	c0-22.091,17.909-40,40-40h68.333H282z"/>
<path style="fill:#FF5D5D;" d="M147.053,184.421H89.789c-19.766,0-35.789,16.024-35.789,35.79V256h128.842v-35.789
	C182.842,200.445,166.819,184.421,147.053,184.421z"/>
<g>
	<path style="fill:#FFDCA0;" d="M147.053,147.632v7.158c0,15.813-12.819,28.632-28.632,28.632l0,0l0,0
		c-15.813,0-28.632-12.819-28.632-28.632v-7.158c0-15.813,12.819-28.632,28.632-28.632l0,0
		C134.234,119,147.053,131.819,147.053,147.632z"/>
	<path style="fill:#FFDCA0;" d="M147.053,340.632v7.158c0,15.813-12.819,28.632-28.632,28.632l0,0l0,0
		c-15.813,0-28.632-12.819-28.632-28.632v-7.158c0-15.813,12.819-28.632,28.632-28.632l0,0
		C134.234,312,147.053,324.819,147.053,340.632z"/>
</g>
<path style="fill:#FF5D5D;" d="M147.053,376.421H89.789c-19.766,0-35.789,16.024-35.789,35.79V448h128.842v-35.789
	C182.842,392.445,166.819,376.421,147.053,376.421z"/>
<circle style="fill:#96EDE7;" cx="406" cy="247.85" r="96"/>
<path style="fill:#FEC96B;" d="M406,151.854c-0.167,0-0.333,0.006-0.5,0.006v95.994H502C502,194.834,459.019,151.854,406,151.854z"
	/>
<path style="fill:#C1EE92;" d="M405.5,247.854V151.86c-33.004,0.169-62.068,16.988-79.218,42.491L405.5,247.854z"/>
<path style="fill:#546DFF;" d="M406,502L406,502c-11.598,0-21-9.402-21-21V343.854h42V481C427,492.598,417.598,502,406,502z"/>
<path d="M10,267c5.523,0,10-4.478,10-10V90c0-16.542,13.458-30,30-30h83.373c-1.065,4.376-5.007,7.64-9.707,7.64
	c-5.523,0-10,4.478-10,10s4.477,10,10,10c15.747,0,28.69-12.198,29.898-27.64h123.808c-1.065,4.376-5.007,7.64-9.707,7.64
	c-5.523,0-10,4.478-10,10s4.477,10,10,10c15.747,0,28.69-12.198,29.898-27.64H354c16.542,0,30,13.458,30,30v22.943
	c0,5.522,4.477,10,10,10s10-4.478,10-10V90c0-27.57-22.43-50-50-50h-56.333V30c0-16.542-13.458-30-30-30s-30,13.458-30,30v10h-84V30
	c0-16.542-13.458-30-30-30s-30,13.458-30,30v10H50C22.43,40,0,62.43,0,90v167C0,262.522,4.477,267,10,267z M257.667,30
	c0-5.514,4.486-10,10-10s10,4.486,10,10v10h-20V30z M113.667,30c0-5.514,4.486-10,10-10s10,4.486,10,10v10h-20
	C113.667,40,113.667,30,113.667,30z"/>
<path d="M10,306.12c2.63,0,5.21-1.07,7.07-2.931c1.86-1.859,2.93-4.439,2.93-7.069c0-2.641-1.07-5.21-2.93-7.07
	s-4.44-2.93-7.07-2.93s-5.21,1.069-7.07,2.93C1.07,290.91,0,293.48,0,296.12c0,2.63,1.07,5.21,2.93,7.069
	C4.79,305.05,7.37,306.12,10,306.12z"/>
<path d="M331,492H50c-16.542,0-30-13.458-30-30V334.667c0-5.522-4.477-10-10-10s-10,4.478-10,10V462c0,27.57,22.43,50,50,50h281
	c5.523,0,10-4.478,10-10S336.523,492,331,492z"/>
<path d="M192.842,220.211c0-23.547-17.868-42.992-40.756-45.507c3.156-5.595,4.966-12.046,4.966-18.915v-7.157
	c0-21.302-17.33-38.632-38.632-38.632c-21.301,0-38.631,17.33-38.631,38.632v7.157c0,6.869,1.81,13.319,4.966,18.915
	C61.868,177.219,44,196.664,44,220.211V256c0,5.522,4.477,10,10,10h128.842c5.523,0,10-4.478,10-10V220.211z M99.79,148.632
	c0-10.273,8.358-18.632,18.631-18.632s18.632,8.358,18.632,18.632v7.157c0,10.273-8.358,18.632-18.632,18.632
	s-18.631-8.358-18.631-18.632C99.79,155.789,99.79,148.632,99.79,148.632z M172.842,246H64v-25.789
	c0-14.221,11.569-25.79,25.79-25.79h57.263c14.22,0,25.79,11.569,25.79,25.79V246H172.842z"/>
<path d="M44,412.211V448c0,5.522,4.477,10,10,10h128.842c5.523,0,10-4.478,10-10v-35.789c0-23.547-17.868-42.992-40.756-45.507
	c3.156-5.595,4.966-12.046,4.966-18.915v-7.157c0-21.302-17.33-38.632-38.632-38.632c-21.301,0-38.631,17.33-38.631,38.632v7.157
	c0,6.869,1.81,13.319,4.966,18.915C61.868,369.219,44,388.664,44,412.211z M99.79,340.632c0-10.273,8.358-18.632,18.631-18.632
	s18.632,8.358,18.632,18.632v7.157c0,10.273-8.358,18.632-18.632,18.632s-18.631-8.358-18.631-18.632
	C99.79,347.789,99.79,340.632,99.79,340.632z M64,412.211c0-14.221,11.569-25.79,25.79-25.79h57.263
	c14.22,0,25.79,11.569,25.79,25.79V438H64V412.211z"/>
<path d="M232.333,218H278c5.523,0,10-4.478,10-10s-4.477-10-10-10h-45.667c-5.523,0-10,4.478-10,10S226.811,218,232.333,218z"/>
<path d="M232.333,266H278c5.523,0,10-4.478,10-10s-4.477-10-10-10h-45.667c-5.523,0-10,4.478-10,10S226.811,266,232.333,266z"/>
<path d="M232.333,170h26.638c5.523,0,10-4.478,10-10s-4.477-10-10-10h-26.638c-5.523,0-10,4.478-10,10S226.811,170,232.333,170z"/>
<path d="M331,390h-98.667c-5.523,0-10,4.478-10,10s4.477,10,10,10H331c5.523,0,10-4.478,10-10S336.523,390,331,390z"/>
<path d="M331,438h-98.667c-5.523,0-10,4.478-10,10s4.477,10,10,10H331c5.523,0,10-4.478,10-10S336.523,438,331,438z"/>
<path d="M232.333,362h58.333c5.523,0,10-4.478,10-10s-4.477-10-10-10h-58.333c-5.523,0-10,4.478-10,10S226.811,362,232.333,362z"/>
<path d="M331,342c-2.63,0-5.21,1.069-7.07,2.93c-1.86,1.86-2.93,4.44-2.93,7.07s1.07,5.21,2.93,7.069
	c1.86,1.86,4.44,2.931,7.07,2.931s5.21-1.07,7.07-2.931c1.86-1.859,2.93-4.439,2.93-7.069s-1.07-5.21-2.93-7.07S333.63,342,331,342z
	"/>
<path d="M512,247.854c0-58.448-47.551-106-106-106s-106,47.552-106,106c0,47.667,31.629,88.082,75,101.371V481
	c0,17.094,13.907,31,31,31s31-13.906,31-31V349.225C480.371,335.935,512,295.521,512,247.854z M491.4,237.854H416v-75.4
	C455.441,167.044,486.809,198.413,491.4,237.854z M396,162.454v66.538l-55.034-37.315C354.691,175.81,374.097,165.003,396,162.454z
	 M417,481c0,6.065-4.935,11-11,11s-11-4.935-11-11V353.285c3.617,0.375,7.286,0.569,11,0.569s7.383-0.194,11-0.569V481z
	 M406,333.854c-47.42,0-86-38.579-86-86c0-14.292,3.524-27.769,9.719-39.641l70.666,47.915c1.601,1.088,3.533,1.726,5.615,1.726
	h85.4C486.427,300.578,450.036,333.854,406,333.854z"/>
<g>
</g>
<g>
</g>
<g>
</g>
<g>
</g>
<g>
</g>
<g>
</g>
<g>
</g>
<g>
</g>
<g>
</g>
<g>
</g>
<g>
</g>
<g>
</g>
<g>
</g>
<g>
</g>
<g>
</g>
</svg>
