<?xml version="1.0" encoding="iso-8859-1"?>
<!-- Generator: Adobe Illustrator 19.0.0, SVG Export Plug-In . SVG Version: 6.00 Build 0)  -->
<svg version="1.1" id="Capa_1" xmlns="http://www.w3.org/2000/svg" xmlns:xlink="http://www.w3.org/1999/xlink" x="0px" y="0px"
	 viewBox="0 0 512 512" style="enable-background:new 0 0 512 512;" xml:space="preserve">
<path style="fill:#FED284;" d="M256,10.511L256,10.511c-15.464,0-28,12.536-28,28V448h56V38.511
	C284,23.047,271.464,10.511,256,10.511z"/>
<path style="fill:#FEC96B;" d="M448,502H64l0,0c0-29.823,24.177-54,54-54h276C423.823,448,448,472.177,448,502L448,502z"/>
<polygon style="fill:#96EDE7;" points="368.017,200 64,200 64,64 368.017,64 436.3,132 "/>
<polygon style="fill:#FF5D5D;" points="143.451,248 447.468,248 447.468,384 143.451,384 75.168,316 "/>
<path d="M394,438H294v-44h153.468c5.522,0,10-4.478,10-10V248c0-5.522-4.478-10-10-10H412.5c-5.522,0-10,4.478-10,10s4.478,10,10,10
	h24.968v116h-47.325l-67.87-67.871c-1.876-1.875-4.419-2.929-7.071-2.929s-5.195,1.054-7.071,2.929l-22.199,22.199l-33.919-33.92
	c4.758-0.769,8.396-4.885,8.396-9.859c0-5.522-4.478-10-10-10H228c-5.522,0-10,4.478-10,10v22.407c0,5.522,4.478,10,10,10
	c4.981,0,9.1-3.646,9.862-8.412l40.997,40.998c1.875,1.875,4.419,2.929,7.071,2.929s5.195-1.054,7.071-2.929l22.199-22.199
	L361.857,374H147.581L89.34,316l58.241-58H228h56h46.502c5.522,0,10-4.478,10-10s-4.478-10-10-10H294v-28h74.017
	c2.645,0,5.183-1.048,7.057-2.914l68.283-68c1.884-1.877,2.943-4.427,2.943-7.086s-1.06-5.209-2.943-7.086l-68.283-68
	C373.2,55.048,370.662,54,368.017,54H294V38c0-20.953-17.047-38-38-38s-38,17.047-38,38v16h-44.019c-5.522,0-10,4.478-10,10
	s4.478,10,10,10h189.905l58.241,58l-58.241,58H149.448l46.733-46.733l22.198,22.199c1.875,1.875,4.419,2.929,7.071,2.929
	s5.195-1.054,7.071-2.929l40.998-40.997c0.763,4.766,4.881,8.411,9.862,8.411c5.522,0,10-4.478,10-10v-22.406
	c0-5.522-4.478-10-10-10h-22.406c-5.522,0-10,4.478-10,10c0,4.975,3.638,9.09,8.395,9.859l-33.919,33.919l-22.198-22.199
	c-1.875-1.875-4.419-2.929-7.071-2.929s-5.196,1.054-7.071,2.929L121.163,190H74V74h21c5.522,0,10-4.478,10-10s-4.478-10-10-10H64
	c-5.522,0-10,4.478-10,10v136c0,5.522,4.478,10,10,10h154v28h-74.549c-2.645,0-5.183,1.048-7.057,2.914l-68.283,68
	c-1.884,1.877-2.943,4.427-2.943,7.086s1.06,5.209,2.943,7.086l68.283,68c1.874,1.866,4.412,2.914,7.057,2.914H218v44H118
	c-35.29,0-64,28.71-64,64c0,5.522,4.478,10,10,10h384c5.522,0,10-4.478,10-10C458,466.71,429.29,438,394,438z M238,54V38
	c0-9.925,8.075-18,18-18c9.925,0,18,8.075,18,18v16H238z M238,210h36v28h-36V210z M238,394h36v44h-36V394z M75.146,492
	c4.539-19.461,22.03-34,42.854-34h276c20.823,0,38.314,14.539,42.854,34H75.146z"/>
<path d="M134,74c2.63,0,5.21-1.07,7.069-2.931C142.93,69.21,144,66.63,144,64s-1.07-5.21-2.931-7.07C139.21,55.069,136.63,54,134,54
	c-2.641,0-5.21,1.069-7.07,2.93S124,61.37,124,64c0,2.63,1.069,5.21,2.93,7.069C128.79,72.93,131.359,74,134,74z"/>
<path d="M365.93,240.93c-1.86,1.86-2.93,4.44-2.93,7.07s1.069,5.21,2.93,7.069c1.86,1.86,4.44,2.931,7.07,2.931
	s5.21-1.07,7.069-2.931C381.93,253.21,383,250.63,383,248s-1.07-5.21-2.931-7.07C378.21,239.07,375.63,238,373,238
	S367.79,239.069,365.93,240.93z"/>
<g>
</g>
<g>
</g>
<g>
</g>
<g>
</g>
<g>
</g>
<g>
</g>
<g>
</g>
<g>
</g>
<g>
</g>
<g>
</g>
<g>
</g>
<g>
</g>
<g>
</g>
<g>
</g>
<g>
</g>
</svg>
