<?xml version="1.0" encoding="iso-8859-1"?>
<!-- Generator: Adobe Illustrator 19.0.0, SVG Export Plug-In . SVG Version: 6.00 Build 0)  -->
<svg version="1.1" id="Capa_1" xmlns="http://www.w3.org/2000/svg" xmlns:xlink="http://www.w3.org/1999/xlink" x="0px" y="0px"
	 viewBox="0 0 512.001 512.001" style="enable-background:new 0 0 512.001 512.001;" xml:space="preserve">
<g>
	<polygon style="fill:#D9F9F7;" points="216.997,188.713 158.142,129.858 167.542,120.458 106.405,106.405 120.458,167.542 
		129.858,158.142 187.933,216.217 	"/>
	<polygon style="fill:#D9F9F7;" points="323.649,216.889 382.396,158.142 391.796,167.542 405.848,106.405 344.712,120.458 
		354.112,129.858 295.366,188.603 	"/>
	<polygon style="fill:#D9F9F7;" points="297.919,326.203 354.112,382.396 344.712,391.796 405.848,405.848 391.796,344.712 
		382.396,354.112 326.343,298.059 	"/>
	<polygon style="fill:#D9F9F7;" points="185.9,298.069 129.858,354.112 120.458,344.712 106.405,405.848 167.542,391.796 
		158.142,382.396 214.269,326.269 	"/>
</g>
<circle style="fill:#FF5D5D;" cx="256.13" cy="256.13" r="78"/>
<circle style="fill:#C1EE92;" cx="50" cy="50" r="40"/>
<circle style="fill:#96EDE7;" cx="462" cy="50" r="40"/>
<circle style="fill:#FEC96B;" cx="462" cy="462" r="40"/>
<circle style="fill:#546DFF;" cx="50" cy="462" r="40"/>
<path d="M50,100c27.57,0,50-22.43,50-50S77.57,0,50,0S0,22.43,0,50S22.43,100,50,100z M50,20c16.542,0,30,13.458,30,30
	S66.542,80,50,80S20,66.542,20,50S33.458,20,50,20z"/>
<path d="M462.001,100c27.57,0,50-22.43,50-50s-22.43-50-50-50s-50,22.43-50,50S434.431,100,462.001,100z M462.001,20
	c16.542,0,30,13.458,30,30s-13.458,30-30,30s-30-13.458-30-30S445.459,20,462.001,20z"/>
<path d="M462.001,412.001c-27.57,0-50,22.43-50,50s22.43,50,50,50s50-22.43,50-50S489.571,412.001,462.001,412.001z
	 M462.001,492.001c-16.542,0-30-13.458-30-30s13.458-30,30-30s30,13.458,30,30S478.543,492.001,462.001,492.001z"/>
<path d="M415.595,403.608l-14.053-61.137c-0.814-3.544-3.489-6.367-6.985-7.371c-3.494-1.004-7.26-0.03-9.832,2.54l-2.328,2.329
	l-20.628-20.628c-3.906-3.904-10.236-3.904-14.143,0c-3.905,3.905-3.905,10.237,0,14.143l27.699,27.698
	c2.847,2.846,6.983,3.616,10.528,2.314l6.672,29.028l-29.028-6.672c1.304-3.546,0.532-7.682-2.314-10.528L310.85,324.99
	c20.264-16.136,33.278-41.007,33.278-68.864c0-13.318-2.979-25.95-8.297-37.276l46.567-46.567l2.328,2.329
	c2.572,2.571,6.336,3.546,9.832,2.54c3.496-1.004,6.17-3.827,6.985-7.371l14.053-61.137c0.771-3.357-0.239-6.875-2.675-9.312
	c-2.437-2.436-5.955-3.444-9.312-2.675l-61.137,14.053c-3.544,0.814-6.367,3.489-7.371,6.985c-1.004,3.495-0.031,7.26,2.54,9.832
	l2.329,2.328l-20.468,20.468c-3.905,3.905-3.905,10.237,0,14.143c3.906,3.904,10.236,3.904,14.143,0l27.538-27.539
	c2.847-2.847,3.618-6.982,2.314-10.528l29.028-6.672l-6.672,29.028c-3.548-1.306-7.681-0.532-10.528,2.314l-50.334,50.333
	c-16.136-20.264-41.007-33.278-68.864-33.278c-13.317,0-25.95,2.979-37.276,8.297l-46.567-46.567l2.329-2.328
	c2.571-2.572,3.544-6.337,2.54-9.832c-1.004-3.496-3.827-6.17-7.371-6.985l-61.137-14.053c-3.354-0.77-6.875,0.239-9.312,2.675
	c-2.436,2.437-3.446,5.954-2.675,9.312l14.053,61.137c0.814,3.544,3.489,6.367,6.985,7.371c3.496,1.005,7.26,0.031,9.832-2.54
	l2.328-2.329l20.269,20.269c3.906,3.904,10.236,3.904,14.143,0c3.905-3.905,3.905-10.237,0-14.143l-27.34-27.339
	c-2.849-2.847-6.984-3.618-10.528-2.314l-6.672-29.028l29.028,6.672c-1.304,3.546-0.532,7.682,2.314,10.528l50.333,50.334
	c-20.264,16.136-33.278,41.007-33.278,68.864c0,13.318,2.979,25.95,8.297,37.276l-46.567,46.567l-2.328-2.329
	c-2.572-2.571-6.337-3.545-9.832-2.54c-3.496,1.004-6.171,3.827-6.985,7.371l-14.053,61.137c-0.771,3.357,0.239,6.875,2.675,9.312
	c1.896,1.896,4.449,2.929,7.071,2.929c0.746,0,1.497-0.083,2.24-0.254l61.137-14.053c3.544-0.814,6.367-3.489,7.371-6.985
	c1.004-3.495,0.031-7.26-2.54-9.832l-2.329-2.328l20.478-20.478c3.905-3.905,3.905-10.237,0-14.143
	c-3.906-3.904-10.236-3.904-14.143,0l-27.548,27.549c-2.847,2.847-3.618,6.982-2.314,10.528l-29.028,6.672l6.672-29.028
	c3.547,1.307,7.681,0.532,10.528-2.314l50.334-50.333c16.136,20.264,41.007,33.278,68.864,33.278c13.317,0,25.95-2.979,37.276-8.297
	l46.567,46.567l-2.329,2.328c-2.571,2.572-3.544,6.337-2.54,9.832c1.004,3.496,3.827,6.17,7.371,6.985l61.137,14.053
	c0.743,0.171,1.494,0.254,2.24,0.254c2.622,0,5.175-1.032,7.071-2.929C415.355,410.483,416.366,406.966,415.595,403.608z
	 M188.127,256.127c0-37.495,30.505-68,68-68s68,30.505,68,68s-30.505,68-68,68S188.127,293.622,188.127,256.127z"/>
<path d="M50,412.001c-27.57,0-50,22.43-50,50s22.43,50,50,50s50-22.43,50-50S77.57,412.001,50,412.001z M50,492.001
	c-16.542,0-30-13.458-30-30s13.458-30,30-30s30,13.458,30,30S66.542,492.001,50,492.001z"/>
<path d="M256.127,207.127c-5.522,0-10,4.478-10,10s4.478,10,10,10c15.99,0,29,13.01,29,29c0,5.522,4.478,10,10,10s10-4.478,10-10
	C305.127,229.108,283.146,207.127,256.127,207.127z"/>
<path d="M226.833,219.882c-5.523,0-10,4.526-10,10.049l-0.001,0.196c0,5.522,4.478,9.952,10,9.952c5.523,0,10-4.525,10-10.049
	l0.001-0.197C236.833,224.311,232.355,219.882,226.833,219.882z"/>
<g>
</g>
<g>
</g>
<g>
</g>
<g>
</g>
<g>
</g>
<g>
</g>
<g>
</g>
<g>
</g>
<g>
</g>
<g>
</g>
<g>
</g>
<g>
</g>
<g>
</g>
<g>
</g>
<g>
</g>
</svg>
