<?xml version="1.0" encoding="iso-8859-1"?>
<!-- Generator: Adobe Illustrator 19.0.0, SVG Export Plug-In . SVG Version: 6.00 Build 0)  -->
<svg version="1.1" id="Capa_1" xmlns="http://www.w3.org/2000/svg" xmlns:xlink="http://www.w3.org/1999/xlink" x="0px" y="0px"
	 viewBox="0 0 512 512" style="enable-background:new 0 0 512 512;" xml:space="preserve">
<path style="fill:#C1EE92;" d="M436.615,403.094C477.013,362.696,502,306.886,502,245.24C502,121.948,402.052,22,278.76,22v223.24
	L436.615,403.094z"/>
<path style="fill:#546DFF;" d="M391.094,424.614L233.24,266.76V43.52C109.948,43.52,10,143.468,10,266.76S109.948,490,233.24,490
	C294.886,490,350.696,465.013,391.094,424.614L391.094,424.614z"/>
<path style="fill:#FF5D5D;" d="M391.094,424.615C391.094,424.614,391.094,424.614,391.094,424.615L233.24,266.76l51.029,217.374
	C325.424,474.51,362.202,453.507,391.094,424.615z"/>
<path d="M443.686,80.314C399.632,36.262,341.061,12,278.76,12c-5.523,0-10,4.478-10,10v223.24c0,2.652,1.054,5.195,2.929,7.071
	l157.854,157.854c1.953,1.952,4.512,2.929,7.071,2.929s5.119-0.977,7.071-2.929C487.739,366.111,512,307.54,512,245.24
	C512,182.939,487.739,124.368,443.686,80.314z M491.276,258.276l-92.668,92.669l-22.611-22.611l113.791-113.791
	C491.24,224.569,492,234.817,492,245.24c0,4.265-0.138,8.508-0.385,12.73C491.502,258.073,491.385,258.168,491.276,258.276z
	 M339.23,291.567l133.923-133.924c4.838,10.694,8.818,21.855,11.853,33.396L361.854,314.191L339.23,291.567z M288.76,121.398
	c0.134-0.12,0.272-0.234,0.401-0.363l72.321-72.321c10.372,4.382,20.328,9.558,29.79,15.458L288.76,166.685V121.398z
	 M340.723,41.188L288.76,93.151v-60.92C306.749,33.066,324.158,36.148,340.723,41.188z M288.76,194.97L407.99,75.74
	c8.506,6.5,16.51,13.623,23.944,21.304l-92.645,92.646c-3.905,3.905-3.905,10.237,0,14.143c1.953,1.952,4.512,2.929,7.071,2.929
	s5.119-0.977,7.071-2.929l91.754-91.755c6.78,8.456,12.926,17.439,18.374,26.875L325.087,277.425l-36.327-36.327V194.97z
	 M436.453,388.79l-23.702-23.702l74.419-74.419C479.306,327.094,461.998,360.791,436.453,388.79z"/>
<path d="M243.24,262.617V43.521c0-5.522-4.477-10-10-10c-62.301,0-120.872,24.261-164.925,68.314C24.261,145.888,0,204.459,0,266.76
	s24.261,120.872,68.314,164.926C112.368,475.738,170.939,500,233.24,500c62.3,0,120.872-24.262,164.926-68.314
	c3.905-3.905,3.905-10.237,0-14.143L243.24,262.617z M20,266.76c0-114.23,90.283-207.769,203.24-213.008V266.76
	c0,0.777,0.101,1.541,0.276,2.285c-0.004,0-0.007,0-0.011,0l48.692,207.421C259.476,478.801,246.45,480,233.24,480
	C115.659,480,20,384.341,20,266.76z M291.677,471.936l-40.676-173.273l125.79,125.789
	C352.155,446.929,323.111,463.034,291.677,471.936z"/>
<path d="M326.84,230.42c1.86-1.86,2.93-4.44,2.93-7.07s-1.07-5.21-2.93-7.069c-1.86-1.86-4.44-2.931-7.07-2.931
	s-5.21,1.07-7.07,2.931c-1.86,1.859-2.93,4.439-2.93,7.069s1.07,5.21,2.93,7.07s4.44,2.93,7.07,2.93
	C322.4,233.35,324.98,232.28,326.84,230.42z"/>
<path d="M57.546,256.438c-0.016,0-0.031,0-0.046,0c-5.501,0-9.974,4.447-9.999,9.954v0.368c0,5.522,4.477,10,10,10s10-4.478,10-10
	v-0.276C67.525,260.96,63.069,256.463,57.546,256.438z"/>
<path d="M141.419,105.269c-43.929,25.027-76.137,67.396-88.366,116.242c-1.341,5.357,1.915,10.788,7.272,12.129
	c0.815,0.204,1.632,0.302,2.436,0.302c4.479,0,8.556-3.031,9.693-7.573c10.91-43.577,39.655-81.383,78.865-103.723
	c4.799-2.733,6.473-8.84,3.739-13.639C152.324,104.207,146.218,102.533,141.419,105.269z"/>
<g>
</g>
<g>
</g>
<g>
</g>
<g>
</g>
<g>
</g>
<g>
</g>
<g>
</g>
<g>
</g>
<g>
</g>
<g>
</g>
<g>
</g>
<g>
</g>
<g>
</g>
<g>
</g>
<g>
</g>
</svg>
