<?xml version="1.0" encoding="iso-8859-1"?>
<!-- Generator: Adobe Illustrator 19.0.0, SVG Export Plug-In . SVG Version: 6.00 Build 0)  -->
<svg version="1.1" id="Capa_1" xmlns="http://www.w3.org/2000/svg" xmlns:xlink="http://www.w3.org/1999/xlink" x="0px" y="0px"
	 viewBox="0 0 512.001 512.001" style="enable-background:new 0 0 512.001 512.001;" xml:space="preserve">
<path style="fill:#C0F4F1;" d="M468.05,328.573h12.411c11.895,0,21.538-9.643,21.538-21.538v-81.846
	c0-38.065-30.858-68.923-68.923-68.923h-30.154c-38.065,0-68.923,30.858-68.923,68.923v81.846c0,11.895,9.643,21.538,21.538,21.538
	h11.012"/>
<polygon style="fill:#546DFF;" points="462.072,288.994 462.072,502 418.135,502 418.135,316.017 418.01,328.117 418.01,502 
	374.072,502 374.072,288.994 "/>
<path style="fill:#FFDCA0;" d="M418,156.265L418,156.265c-20.154,0-36.493-16.338-36.493-36.493v-9.123
	c0-20.154,16.338-36.493,36.493-36.493l0,0c20.154,0,36.493,16.338,36.493,36.493v9.123
	C454.493,139.927,438.154,156.265,418,156.265z"/>
<path style="fill:#C0F4F1;" d="M43.95,328.573H31.538C19.643,328.573,10,318.93,10,307.035v-81.846
	c0-38.065,30.858-68.923,68.923-68.923h30.154c38.065,0,68.923,30.858,68.923,68.923v81.846c0,11.895-9.643,21.538-21.538,21.538
	H145.45"/>
<polygon style="fill:#546DFF;" points="49.928,288.994 49.928,502 93.865,502 93.865,316.017 93.99,328.117 93.99,502 137.928,502 
	137.928,288.994 "/>
<path style="fill:#FFDCA0;" d="M94,156.265L94,156.265c20.154,0,36.493-16.338,36.493-36.493v-9.123
	c0-20.154-16.338-36.493-36.493-36.493l0,0c-20.154,0-36.493,16.338-36.493,36.493v9.123C57.507,139.927,73.846,156.265,94,156.265z
	"/>
<path style="fill:#C0F4F1;" d="M304.794,107.333L304.794,107.333h-48.667H207.46l0,0c-24.699,0-44.722,20.023-44.722,44.722v104.017
	c0,24.699,20.023,44.722,44.722,44.722l0,0v-31.239h48.667h7.639h41.028v31.239l0,0c24.699,0,44.722-20.023,44.722-44.722V152.055
	C349.516,127.356,329.493,107.333,304.794,107.333z"/>
<path style="fill:#FFDCA0;" d="M256.127,10L256.127,10c-24.638,0-44.611,19.973-44.611,44.611v8.111
	c0,24.638,19.973,44.611,44.611,44.611l0,0c24.638,0,44.611-19.973,44.611-44.611v-8.111C300.738,29.973,280.765,10,256.127,10z"/>
<rect x="208.13" y="269.56" style="fill:#546DFF;" width="96" height="232.44"/>
<path d="M454.034,149.112c6.533-8.008,10.459-18.223,10.459-29.34v-9.123c0-25.637-20.856-46.493-46.493-46.493
	s-46.493,20.856-46.493,46.493v9.123c0,11.121,3.929,21.34,10.467,29.349c-7.967,2.2-15.548,5.64-22.458,10.186v-7.252
	c0-30.174-24.548-54.723-54.722-54.723h-6.457c7.745-9.428,12.402-21.485,12.402-34.61v-8.111C310.738,24.499,286.24,0,256.127,0
	s-54.611,24.499-54.611,54.611v8.111c0,13.125,4.657,25.182,12.402,34.61h-6.457c-30.174,0-54.722,24.549-54.722,54.723v7.425
	c-6.978-4.63-14.647-8.132-22.712-10.359c6.537-8.01,10.467-18.228,10.467-29.349v-9.123c0-25.637-20.856-46.493-46.493-46.493
	s-46.493,20.856-46.493,46.493v9.123c0,11.117,3.926,21.331,10.459,29.34C24.591,158.318,0,188.926,0,225.188v81.846
	c0,17.391,14.148,31.539,31.539,31.539h8.389V502c0,5.522,4.477,10,10,10h43.938c0.021,0,0.041-0.003,0.062-0.003
	c0.021,0,0.041,0.003,0.062,0.003h43.938c5.523,0,10-4.478,10-10V338.573h8.534c17.333,0,31.442-14.056,31.534-31.369
	c3.242,1.238,6.63,2.173,10.131,2.777V502c0,5.522,4.477,10,10,10h96c5.523,0,10-4.478,10-10v-96.948c0-5.522-4.477-10-10-10
	s-10,4.478-10,10V492h-28V323.306c0-5.522-4.477-10-10-10s-10,4.478-10,10V492h-28V279.556h76v48.163c0,5.522,4.477,10,10,10
	s10-4.478,10-10v-17.737c3.41-0.589,6.715-1.487,9.88-2.678c0.146,17.266,14.232,31.269,31.532,31.269h8.534V502
	c0,5.522,4.477,10,10,10h43.938c0.021,0,0.041-0.003,0.062-0.003c0.021,0,0.041,0.003,0.062,0.003h43.938c5.523,0,10-4.478,10-10
	V338.573h8.389c17.391,0,31.539-14.148,31.539-31.539v-81.846C512,188.926,487.409,158.318,454.034,149.112z M391.507,110.649
	c0-14.608,11.885-26.493,26.493-26.493s26.493,11.885,26.493,26.493v9.123c0,14.608-11.885,26.493-26.493,26.493
	s-26.493-11.885-26.493-26.493V110.649z M221.516,54.611c0-19.085,15.526-34.611,34.611-34.611s34.611,15.526,34.611,34.611v8.111
	c0,19.084-15.526,34.61-34.611,34.61s-34.611-15.526-34.611-34.61L221.516,54.611L221.516,54.611z M67.507,110.649
	c0-14.608,11.885-26.493,26.493-26.493s26.493,11.885,26.493,26.493v9.123c0,14.608-11.885,26.493-26.493,26.493
	s-26.493-11.885-26.493-26.493V110.649z M103.99,492V338c0-5.522-4.477-10-10-10s-10,4.478-10,10v10.5
	c-0.074,0.49-0.125,0.989-0.125,1.5v142H59.928V298.994h68V492H103.99z M156.461,318.573h-8.534v-53.226c0-5.522-4.477-10-10-10
	s-10,4.478-10,10v13.646h-68v-45.477c0-5.522-4.477-10-10-10s-10,4.478-10,10v85.056h-8.389c-6.362,0-11.539-5.177-11.539-11.539
	v-81.846c0-32.49,26.433-58.923,58.923-58.923h30.154c16.585,0,32.494,7.049,43.647,19.34c0.004,0.005,0.009,0.009,0.014,0.014
	v70.453c0,14.679,5.821,28.016,15.262,37.854v13.108C168,313.396,162.824,318.573,156.461,318.573z M304.127,142.056
	c-5.523,0-10,4.478-10,10v107.5h-76v-107.5c0-5.522-4.477-10-10-10s-10,4.478-10,10V289.51
	c-14.626-4.088-25.389-17.525-25.389-33.438V152.056c0-19.146,15.576-34.723,34.722-34.723h38.333v27.327c0,5.522,4.477,10,10,10
	c5.523,0,10-4.478,10-10v-27.327h39c19.146,0,34.722,15.576,34.722,34.723v104.017c0,15.913-10.763,29.35-25.389,33.438V152.056
	C314.127,146.533,309.65,142.056,304.127,142.056z M428.135,492V350c0-0.511-0.051-1.009-0.125-1.5V338c0-5.522-4.477-10-10-10
	s-10,4.478-10,10v154h-23.938V298.994h68V492H428.135z M492,307.034c0,6.362-5.176,11.539-11.539,11.539h-8.389v-85.056
	c0-5.522-4.477-10-10-10s-10,4.478-10,10v45.477h-68v-13.646c0-5.522-4.477-10-10-10s-10,4.478-10,10v53.226h-8.534
	c-6.362,0-11.539-5.177-11.539-11.539v-12.842c9.592-9.862,15.516-23.309,15.516-38.12v-70.718
	c11.142-12.132,26.938-19.089,43.407-19.089h30.154c32.49,0,58.923,26.433,58.923,58.923v81.845H492z"/>
<path d="M304.13,355.72c-2.63,0-5.21,1.061-7.07,2.93c-1.87,1.86-2.93,4.44-2.93,7.07s1.06,5.21,2.93,7.07
	c1.86,1.859,4.44,2.93,7.07,2.93s5.2-1.07,7.07-2.93c1.86-1.86,2.93-4.44,2.93-7.07s-1.07-5.21-2.93-7.07
	C309.34,356.78,306.76,355.72,304.13,355.72z"/>
<path d="M255.79,172.03c-2.63,0-5.21,1.069-7.07,2.93c-1.86,1.859-2.93,4.439-2.93,7.07c0,2.63,1.07,5.21,2.93,7.069
	c1.86,1.86,4.44,2.931,7.07,2.931c2.64,0,5.21-1.07,7.07-2.931c1.87-1.859,2.93-4.439,2.93-7.069c0-2.631-1.06-5.211-2.93-7.07
	C261,173.1,258.43,172.03,255.79,172.03z"/>
<g>
</g>
<g>
</g>
<g>
</g>
<g>
</g>
<g>
</g>
<g>
</g>
<g>
</g>
<g>
</g>
<g>
</g>
<g>
</g>
<g>
</g>
<g>
</g>
<g>
</g>
<g>
</g>
<g>
</g>
</svg>
