<?xml version="1.0" encoding="iso-8859-1"?>
<!-- Generator: Adobe Illustrator 19.0.0, SVG Export Plug-In . SVG Version: 6.00 Build 0)  -->
<svg version="1.1" id="Capa_1" xmlns="http://www.w3.org/2000/svg" xmlns:xlink="http://www.w3.org/1999/xlink" x="0px" y="0px"
	 viewBox="0 0 512 512" style="enable-background:new 0 0 512 512;" xml:space="preserve">
<path style="fill:#96EDE7;" d="M358.822,30.143H152.924c-11.041,0-19.99,8.95-19.99,19.99v151.925c0,11.041,8.95,19.99,19.99,19.99
	h205.898c11.041,0,19.99-8.95,19.99-19.99V50.133C378.812,39.094,369.862,30.143,358.822,30.143z"/>
<path style="fill:#FED284;" d="M117.941,353.92H29.985c-11.041,0-19.99,8.95-19.99,19.99v87.956c0,11.041,8.95,19.99,19.99,19.99
	h87.956c11.041,0,19.99-8.95,19.99-19.99V373.91C137.932,362.87,128.982,353.92,117.941,353.92z"/>
<path style="fill:#C1EE92;" d="M299.978,353.92h-87.956c-11.041,0-19.99,8.95-19.99,19.99v87.956c0,11.041,8.95,19.99,19.99,19.99
	h87.956c11.04,0,19.99-8.95,19.99-19.99V373.91C319.968,362.87,311.019,353.92,299.978,353.92z"/>
<path style="fill:#FF5D5D;" d="M482.015,353.92h-87.956c-11.04,0-19.99,8.95-19.99,19.99v87.956c0,11.041,8.95,19.99,19.99,19.99
	h87.956c11.041,0,19.99-8.95,19.99-19.99V373.91C502.005,362.87,493.055,353.92,482.015,353.92z"/>
<path d="M388.807,202.058V50.133c0-16.534-13.451-29.985-29.985-29.985H152.924c-16.534,0-29.985,13.451-29.985,29.985v151.925
	c0,16.534,13.451,29.985,29.985,29.985h205.898C375.356,232.043,388.807,218.592,388.807,202.058z M142.929,202.058V50.133
	c0-5.511,4.484-9.995,9.995-9.995h205.898c5.511,0,9.995,4.484,9.995,9.995v151.925c0,5.511-4.484,9.995-9.995,9.995H152.924
	C147.413,212.053,142.929,207.569,142.929,202.058z"/>
<path d="M292.855,156.081H174.389c-5.519,0-9.995,4.475-9.995,9.995c0,5.52,4.476,9.995,9.995,9.995h118.465
	c5.519,0,9.995-4.475,9.995-9.995C302.85,160.555,298.374,156.081,292.855,156.081z"/>
<path d="M335.144,156.08c-2.629,0-5.207,1.069-7.065,2.929c-1.859,1.859-2.93,4.438-2.93,7.066c0,2.629,1.069,5.207,2.93,7.067
	c1.858,1.859,4.437,2.929,7.065,2.929s5.207-1.069,7.066-2.929c1.859-1.859,2.929-4.438,2.929-7.067
	c0-2.629-1.068-5.207-2.929-7.066C340.351,157.149,337.771,156.08,335.144,156.08z"/>
<path d="M335.145,60.128H174.389c-5.519,0-9.995,4.475-9.995,9.995s4.476,9.995,9.995,9.995h160.755
	c5.519,0,9.995-4.475,9.995-9.995S340.664,60.128,335.145,60.128z"/>
<path d="M335.145,108.104H174.389c-5.519,0-9.995,4.475-9.995,9.995s4.476,9.995,9.995,9.995h160.755
	c5.519,0,9.995-4.475,9.995-9.995S340.664,108.104,335.145,108.104z"/>
<path d="M117.941,343.925H29.985C13.451,343.925,0,357.377,0,373.91v87.956c0,16.534,13.451,29.985,29.985,29.985h87.956
	c16.534,0,29.985-13.451,29.985-29.985V373.91C147.927,357.377,134.475,343.925,117.941,343.925z M127.937,461.867
	c0,5.511-4.484,9.995-9.995,9.995H29.985c-5.511,0-9.995-4.484-9.995-9.995V373.91c0-5.511,4.484-9.995,9.995-9.995h87.956
	c5.511,0,9.995,4.484,9.995,9.995V461.867z"/>
<path d="M299.978,343.925h-87.956c-16.534,0-29.985,13.451-29.985,29.985v87.956c0,16.534,13.451,29.985,29.985,29.985h87.956
	c16.534,0,29.985-13.451,29.985-29.985V373.91C329.963,357.377,316.512,343.925,299.978,343.925z M309.973,461.867
	c0,5.511-4.484,9.995-9.995,9.995h-87.956c-5.511,0-9.995-4.484-9.995-9.995V373.91c0-5.511,4.484-9.995,9.995-9.995h87.956
	c5.511,0,9.995,4.484,9.995,9.995V461.867z"/>
<path d="M482.015,343.925h-87.956c-16.534,0-29.985,13.451-29.985,29.985v87.956c0,16.534,13.451,29.985,29.985,29.985h87.956
	c16.534,0,29.985-13.451,29.985-29.985V373.91C512,357.377,498.549,343.925,482.015,343.925z M492.01,461.867
	c0,5.511-4.484,9.995-9.995,9.995h-87.956c-5.511,0-9.995-4.484-9.995-9.995V373.91c0-5.511,4.484-9.995,9.995-9.995h87.956
	c5.511,0,9.995,4.484,9.995,9.995V461.867z"/>
<path d="M265.995,254.032c0-5.52-4.476-9.995-9.995-9.995c-5.519,0-9.995,4.475-9.995,9.995v12.121H201.9
	c-5.519,0-9.995,4.476-9.995,9.995c0,5.519,4.476,9.995,9.995,9.995h44.105v27.255c0,5.519,4.476,9.995,9.995,9.995
	s9.995-4.476,9.995-9.995v-27.255h162.047v31.191c0,5.519,4.476,9.995,9.995,9.995c5.519,0,9.995-4.476,9.995-9.995v-31.191
	c0-11.023-8.968-19.99-19.99-19.99H265.995V254.032z"/>
<path d="M73.963,327.329c5.519,0,9.995-4.476,9.995-9.995v-31.191h43.978c5.519,0,9.995-4.476,9.995-9.995
	c0-5.519-4.476-9.995-9.995-9.995H83.958c-11.023,0-19.99,8.968-19.99,19.99v31.191C63.968,322.854,68.444,327.329,73.963,327.329z"
	/>
<path d="M164.397,266.155c-2.629,0-5.207,1.068-7.065,2.929c-1.859,1.859-2.93,4.438-2.93,7.067c0,2.629,1.069,5.207,2.93,7.065
	c1.858,1.859,4.437,2.93,7.065,2.93c2.629,0,5.207-1.069,7.067-2.93c1.859-1.858,2.929-4.437,2.929-7.065
	c0-2.64-1.068-5.207-2.929-7.067C169.604,267.224,167.026,266.155,164.397,266.155z"/>
<g>
</g>
<g>
</g>
<g>
</g>
<g>
</g>
<g>
</g>
<g>
</g>
<g>
</g>
<g>
</g>
<g>
</g>
<g>
</g>
<g>
</g>
<g>
</g>
<g>
</g>
<g>
</g>
<g>
</g>
</svg>
