<?xml version="1.0" encoding="iso-8859-1"?>
<!-- Generator: Adobe Illustrator 19.0.0, SVG Export Plug-In . SVG Version: 6.00 Build 0)  -->
<svg version="1.1" id="Capa_1" xmlns="http://www.w3.org/2000/svg" xmlns:xlink="http://www.w3.org/1999/xlink" x="0px" y="0px"
	 viewBox="0 0 512 512" style="enable-background:new 0 0 512 512;" xml:space="preserve">
<path style="fill:#FEC96B;" d="M128.444,419.127H55.556c-25.16,0-45.556,20.396-45.556,45.556V502h164v-37.317
	C174,439.523,153.604,419.127,128.444,419.127z"/>
<path style="fill:#FFDCA0;" d="M128.444,373.571v9.111c0,20.128-16.317,36.444-36.444,36.444l0,0l0,0
	c-20.128,0-36.444-16.317-36.444-36.444v-9.111c0-20.128,16.317-36.444,36.444-36.444l0,0
	C112.128,337.127,128.444,353.444,128.444,373.571z"/>
<path style="fill:#C0F4F1;" d="M292.444,419.127h-72.889c-25.16,0-45.556,20.396-45.556,45.556V502h164v-37.317
	C338,439.523,317.604,419.127,292.444,419.127z"/>
<g>
	<path style="fill:#FFDCA0;" d="M292.444,373.571v9.111c0,20.128-16.317,36.444-36.444,36.444l0,0l0,0
		c-20.128,0-36.444-16.317-36.444-36.444v-9.111c0-20.128,16.317-36.444,36.444-36.444l0,0
		C276.128,337.127,292.444,353.444,292.444,373.571z"/>
	<path style="fill:#FFDCA0;" d="M456.444,373.571v9.111c0,20.128-16.317,36.444-36.444,36.444l0,0l0,0
		c-20.128,0-36.444-16.317-36.444-36.444v-9.111c0-20.128,16.317-36.444,36.444-36.444l0,0
		C440.128,337.127,456.444,353.444,456.444,373.571z"/>
</g>
<path style="fill:#C1EE92;" d="M456.444,419.127h-72.889c-25.16,0-45.556,20.396-45.556,45.556V502h164v-37.317
	C502,439.523,481.604,419.127,456.444,419.127z"/>
<path style="fill:#FF5D5D;" d="M304.576,142.03h-97.153c-35.346,0-64,28.654-64,64V236h225.153v-29.97
	C368.576,170.684,339.923,142.03,304.576,142.03z"/>
<path style="fill:#FEC96B;" d="M256,10L256,10c-27.357,0-49.534,22.177-49.534,49.534v11.924h24.219
	c16.099,0,31.372-7.128,41.712-19.468l0,0l33.136,19.468V59.534C305.534,32.177,283.357,10,256,10z"/>
<path style="fill:#FFDCA0;" d="M261.728,61.724c-9.024,6.268-19.83,9.734-31.043,9.734h-24.219v21.039
	c0,27.357,22.177,49.534,49.534,49.534l0,0c27.357,0,49.534-22.177,49.534-49.534V71.458l-16.568-9.734l-16.568-9.734
	L261.728,61.724z"/>
<path d="M458.119,409.169c5.24-7.519,8.325-16.647,8.325-26.487v-9.111c0-25.609-20.835-46.444-46.444-46.444
	s-46.444,20.835-46.444,46.444v9.111c0,9.84,3.085,18.968,8.325,26.487c-18.147,0.541-34.13,9.819-43.881,23.772
	c-9.751-13.953-25.733-23.23-43.881-23.772c5.24-7.519,8.325-16.647,8.325-26.487v-9.111c0-25.609-20.835-46.444-46.444-46.444
	s-46.444,20.835-46.444,46.444v9.111c0,9.84,3.085,18.968,8.325,26.487c-18.147,0.541-34.13,9.819-43.881,23.772
	c-9.751-13.953-25.733-23.23-43.881-23.772c5.24-7.519,8.325-16.647,8.325-26.487v-9.111c0-25.609-20.835-46.444-46.444-46.444
	s-46.444,20.835-46.444,46.444v9.111c0,9.84,3.085,18.968,8.325,26.487C24.021,410.06,0,434.61,0,464.683V502
	c0,5.522,4.478,10,10,10h164h164h164c5.522,0,10-4.478,10-10v-37.317C512,434.61,487.979,410.06,458.119,409.169z M393.556,373.571
	c0-14.581,11.863-26.444,26.444-26.444s26.444,11.863,26.444,26.444v9.111c0,14.581-11.863,26.444-26.444,26.444
	s-26.444-11.863-26.444-26.444V373.571z M229.556,373.571c0-14.581,11.863-26.444,26.444-26.444s26.444,11.863,26.444,26.444v9.111
	c0,14.581-11.863,26.444-26.444,26.444s-26.444-11.863-26.444-26.444V373.571z M65.556,373.571
	c0-14.581,11.863-26.444,26.444-26.444s26.444,11.863,26.444,26.444v9.111c0,14.581-11.863,26.444-26.444,26.444
	s-26.444-11.863-26.444-26.444V373.571z M20,464.683c0-19.605,15.95-35.556,35.556-35.556H82v39.959c0,5.522,4.478,10,10,10
	s10-4.478,10-10v-39.959h26.444c19.605,0,35.556,15.95,35.556,35.556V492H20V464.683z M184,464.683
	c0-19.605,15.95-35.556,35.556-35.556h26.571v39.959c0,5.522,4.478,10,10,10c5.522,0,10-4.478,10-10v-39.959h26.317
	c19.605,0,35.556,15.95,35.556,35.556V492H184V464.683z M492,492H348v-27.317c0-19.605,15.95-35.556,35.556-35.556h26.698v39.959
	c0,5.522,4.478,10,10,10s10-4.478,10-10v-39.959h26.19c19.605,0,35.556,15.95,35.556,35.556V492z"/>
<path d="M263.069,208.07c1.86-1.86,2.931-4.44,2.931-7.07s-1.07-5.21-2.931-7.07C261.21,192.07,258.63,191,256,191
	s-5.21,1.07-7.07,2.93c-1.86,1.86-2.93,4.44-2.93,7.07s1.069,5.21,2.93,7.07S253.37,211,256,211S261.21,209.93,263.069,208.07z"/>
<path d="M92,313.063c5.522,0,10-4.478,10-10V290h144v13.063c0,5.522,4.478,10,10,10s10-4.478,10-10V290h34.076
	c5.522,0,10-4.478,10-10s-4.478-10-10-10H266v-24h102.576c5.522,0,10-4.477,10-10v-29.97c0-40.804-33.196-74-74-74h-4.116
	c9.367-10.522,15.073-24.371,15.073-39.534V61.724v-2.19C315.533,26.707,288.827,0,256,0s-59.533,26.707-59.533,59.534v32.963
	c0,15.162,5.706,29.011,15.073,39.534h-4.116c-40.804,0-74,33.196-74,74V236c0,5.523,4.478,10,10,10H246v24H92
	c-5.522,0-10,4.478-10,10v23.063C82,308.586,86.478,313.063,92,313.063z M216.467,59.534C216.467,37.735,234.201,20,256,20
	c19.829,0,36.296,14.675,39.109,33.735l-17.646-10.367c-4.211-2.474-9.593-1.544-12.73,2.199
	c-8.462,10.099-20.871,15.89-34.047,15.89h-14.219L216.467,59.534L216.467,59.534z M216.467,92.497V81.458h14.219
	c16.225,0,31.648-6.056,43.447-16.85l21.4,12.573v15.316c0,21.799-17.734,39.534-39.533,39.534S216.467,114.295,216.467,92.497z
	 M153.424,206.03c0-29.776,24.225-54,54-54H246V163c0,5.523,4.478,10,10,10s10-4.477,10-10v-10.97h38.576c29.775,0,54,24.224,54,54
	V226H153.424V206.03z"/>
<path d="M329.01,272.93c-1.87,1.86-2.93,4.44-2.93,7.07s1.06,5.21,2.93,7.069c1.86,1.86,4.43,2.931,7.06,2.931
	c2.641,0,5.211-1.07,7.08-2.931c1.86-1.859,2.931-4.439,2.931-7.069s-1.07-5.21-2.931-7.07c-1.859-1.86-4.439-2.93-7.08-2.93
	C333.439,270,330.859,271.069,329.01,272.93z"/>
<path d="M358.576,280c0,5.522,4.478,10,10,10h41.678v13.063c0,5.522,4.478,10,10,10s10-4.478,10-10V280c0-5.522-4.478-10-10-10
	h-51.678C363.054,270,358.576,274.478,358.576,280z"/>
<g>
</g>
<g>
</g>
<g>
</g>
<g>
</g>
<g>
</g>
<g>
</g>
<g>
</g>
<g>
</g>
<g>
</g>
<g>
</g>
<g>
</g>
<g>
</g>
<g>
</g>
<g>
</g>
<g>
</g>
</svg>
