<?xml version="1.0" encoding="iso-8859-1"?>
<!-- Generator: Adobe Illustrator 19.0.0, SVG Export Plug-In . SVG Version: 6.00 Build 0)  -->
<svg version="1.1" id="Capa_1" xmlns="http://www.w3.org/2000/svg" xmlns:xlink="http://www.w3.org/1999/xlink" x="0px" y="0px"
	 viewBox="0 0 512 512" style="enable-background:new 0 0 512 512;" xml:space="preserve">
<path style="fill:#FFFFFF;" d="M209.986,502H482c11.046,0,20-8.954,20-20V100.987L411,10H114c-11.046,0-20,8.954-20,20v452
	c0,11.046,8.954,20,20,20H209.986z"/>
<path style="fill:#FED284;" d="M411,11.167V81c0,11.046,8.954,20,20,20h69.833L411,11.167z"/>
<rect x="257.79" y="104.58" style="fill:#FF5D5D;" width="80" height="80"/>
<circle style="fill:#FED284;" cx="180.08" cy="317.5" r="32"/>
<circle style="fill:#546DFF;" cx="298" cy="317.5" r="32"/>
<circle style="fill:#C1EE92;" cx="415.92" cy="317.5" r="32"/>
<path style="fill:#96EDE7;" d="M74,492V177l-32-67.333L10,177v315c0,5.523,4.477,10,10,10h44C69.523,502,74,497.523,74,492z"/>
<path style="fill:#7388FF;" d="M10,490.5V448h64v42.5c0,6.351-5.149,11.5-11.5,11.5h-41C15.149,502,10,496.851,10,490.5z"/>
<polygon style="fill:#CAD2FF;" points="74,177 42,109.667 10,177 "/>
<path d="M509.07,93.915l-91-90.987C416.195,1.053,413.652,0,411,0H114C97.458,0,84,13.458,84,30v90c0,5.523,4.477,10,10,10
	s10-4.477,10-10V30c0-5.514,4.486-10,10-10h287v61c0,16.542,13.458,30,30,30h61v333h-88.192c-5.523,0-10,4.478-10,10s4.477,10,10,10
	H492v18c0,5.514-4.486,10-10,10H114c-5.523,0-10,4.478-10,10s4.477,10,10,10h368c16.542,0,30-13.458,30-30V100.987
	C512,98.334,510.946,95.791,509.07,93.915z M421,81V34.14L477.869,91H431C425.486,91,421,86.514,421,81z"/>
<path d="M362.93,446.93c-1.86,1.86-2.93,4.44-2.93,7.07s1.07,5.21,2.93,7.069c1.86,1.86,4.44,2.931,7.07,2.931s5.21-1.07,7.07-2.931
	c1.86-1.859,2.93-4.439,2.93-7.069s-1.07-5.21-2.93-7.07S372.63,444,370,444S364.79,445.069,362.93,446.93z"/>
<path d="M180.077,219c-5.523,0-10,4.477-10,10v47.713c-18.344,4.5-31.998,21.075-31.998,40.787c0,23.159,18.841,42,42,42
	s42-18.841,42-42c0-19.714-13.656-36.29-32.002-40.788V239h98.05v37.683C269.718,281.137,256,297.742,256,317.5
	c0,23.159,18.841,42,42,42s42-18.841,42-42c0-19.668-13.591-36.214-31.873-40.758V239h97.796v37.713
	c-18.345,4.499-32,21.074-32,40.787c0,23.159,18.841,42,42,42s42-18.841,42-42c0-19.713-13.655-36.289-32-40.787V229
	c0-5.523-4.477-10-10-10H308v-24.418h29.791c5.523,0,10-4.477,10-10v-80c0-5.523-4.477-10-10-10h-80c-5.523,0-10,4.477-10,10v80
	c0,5.523,4.477,10,10,10H288V219H180.077z M202.079,317.5c0,12.131-9.869,22-22,22s-22-9.869-22-22s9.869-22,22-22
	S202.079,305.369,202.079,317.5z M437.923,317.5c0,12.131-9.869,22-22,22s-22-9.869-22-22s9.869-22,22-22
	S437.923,305.369,437.923,317.5z M267.791,114.582h60v60h-60V114.582z M320,317.5c0,12.131-9.869,22-22,22s-22-9.869-22-22
	s9.869-22,22-22S320,305.369,320,317.5z"/>
<path d="M74,272c-2.63,0-5.21,1.069-7.07,2.93C65.07,276.79,64,279.36,64,282c0,2.63,1.07,5.21,2.93,7.069
	C68.79,290.93,71.37,292,74,292s5.21-1.07,7.07-2.931C82.93,287.21,84,284.63,84,282s-1.07-5.21-2.93-7.07S76.63,272,74,272z"/>
<path d="M124,453.333V369c0-5.522-4.477-10-10-10s-10,4.478-10,10v84.333c0,3.676-2.991,6.667-6.667,6.667H84V324
	c0-5.522-4.477-10-10-10s-10,4.478-10,10v114H20V187h44v51c0,5.523,4.477,10,10,10s10-4.477,10-10v-61
	c0-1.485-0.331-2.951-0.968-4.292L52,107.411V77c0-5.523-4.477-10-10-10s-10,4.477-10,10v30.411L0.968,172.708
	C0.331,174.049,0,175.515,0,177v315c0,11.028,8.972,20,20,20h44c11.028,0,20-8.972,20-20v-12h13.333
	C112.038,480,124,468.037,124,453.333z M42,132.963L58.176,167H25.824L42,132.963z M64,492H20v-34h44V492z"/>
<g>
</g>
<g>
</g>
<g>
</g>
<g>
</g>
<g>
</g>
<g>
</g>
<g>
</g>
<g>
</g>
<g>
</g>
<g>
</g>
<g>
</g>
<g>
</g>
<g>
</g>
<g>
</g>
<g>
</g>
</svg>
