<?xml version="1.0" encoding="iso-8859-1"?>
<!-- Generator: Adobe Illustrator 19.0.0, SVG Export Plug-In . SVG Version: 6.00 Build 0)  -->
<svg version="1.1" id="Capa_1" xmlns="http://www.w3.org/2000/svg" xmlns:xlink="http://www.w3.org/1999/xlink" x="0px" y="0px"
	 viewBox="0 0 512 512" style="enable-background:new 0 0 512 512;" xml:space="preserve">
<path style="fill:#FFFFFF;" d="M146.989,502h272.014c11.046,0,20-8.954,20-20V100.987l-91-90.987h-297c-11.046,0-20,8.954-20,20v452
	c0,11.046,8.954,20,20,20H146.989z"/>
<path style="fill:#FEC96B;" d="M348.003,11.167V81c0,11.046,8.954,20,20,20h69.833L348.003,11.167z"/>
<ellipse style="fill:#FF5D5D;" cx="235" cy="256" rx="155" ry="152"/>
<ellipse style="fill:#FFFFFF;" cx="235" cy="256" rx="106.05" ry="104"/>
<ellipse style="fill:#FF8E8E;" cx="235" cy="256" rx="57.1" ry="56"/>
<path style="fill:#A0E557;" d="M470.297,450.705l-40.633-0.043l-64.071-64.071l66.45,0.07l45.816,45.816
	C484.589,439.207,479.816,450.715,470.297,450.705z"/>
<path style="fill:#C1EE92;" d="M429.708,491.295l-0.043-40.633l-64.071-64.071l0.07,66.45l45.816,45.816
	C418.21,505.587,429.718,500.813,429.708,491.295z"/>
<path d="M363.003,492h-312c-5.514,0-10-4.486-10-10V68h69.667c5.522,0,10-4.477,10-10s-4.478-10-10-10H41.003V30
	c0-5.514,4.486-10,10-10h287v61c0,16.542,13.458,30,30,30h61v192c0,5.523,4.478,10,10,10s10-4.477,10-10V100.987
	c0-2.652-1.054-5.196-2.93-7.072l-91-90.987C353.198,1.053,350.655,0,348.003,0h-297c-16.542,0-30,13.458-30,30v452
	c0,16.542,13.458,30,30,30h312c5.522,0,10-4.477,10-10S368.525,492,363.003,492z M358.003,81V34.14L414.872,91h-46.869
	C362.489,91,358.003,86.514,358.003,81z"/>
<path d="M439.003,330.5c-2.63,0-5.21,1.07-7.07,2.93c-1.86,1.86-2.93,4.44-2.93,7.07s1.069,5.21,2.93,7.07s4.44,2.93,7.07,2.93
	s5.21-1.07,7.069-2.93c1.86-1.86,2.931-4.44,2.931-7.07s-1.07-5.21-2.931-7.07C444.213,331.57,441.633,330.5,439.003,330.5z"/>
<path d="M484.931,425.406l-45.816-45.816c-1.873-1.873-4.412-2.926-7.061-2.929l-62.313-0.066l-12.213-12.213
	c24.259-26.41,39.801-60.673,42.152-98.382h9.049c5.522,0,10-4.477,10-10s-4.478-10-10-10h-9.049
	c-5.077-81.438-71.706-146.799-154.676-151.694V82.275c0-5.523-4.478-10-10-10s-10,4.477-10,10v12.031
	C142.032,99.201,75.404,164.562,70.327,246h-9.049c-5.522,0-10,4.477-10,10c0,5.523,4.478,10,10,10h9.049
	c5.077,81.438,71.706,146.799,154.676,151.694v12.031c0,5.523,4.478,10,10,10s10-4.477,10-10v-12.031
	c37.411-2.207,71.502-16.699,98.126-39.425l12.469,12.469l0.066,62.313c0.003,2.648,1.057,5.188,2.929,7.061l45.815,45.815
	c3.966,3.966,9.229,6.067,14.6,6.067c2.671,0,5.368-0.52,7.945-1.589c7.757-3.218,12.764-10.723,12.755-19.121l0,0l-0.032-30.611
	l30.61,0.033c0.008,0,0.015,0,0.022,0c8.389,0,15.885-5.005,19.1-12.755C492.626,440.193,490.868,431.344,484.931,425.406z
	 M343.376,350.23l-20.197-20.197c15.296-17.554,25.263-39.711,27.425-64.033h29.034C377.339,298.203,364.027,327.476,343.376,350.23
	z M288.693,295.547c8.42-11.029,13.416-24.725,13.416-39.547c0-36.393-30.104-66-67.105-66s-67.105,29.607-67.105,66
	s30.104,66,67.105,66c14.671,0,28.248-4.668,39.303-12.554l20.252,20.252C278.177,342.403,257.48,350,235.003,350
	c-52.964,0-96.053-42.168-96.053-94s43.089-94,96.053-94s96.053,42.168,96.053,94c0,22.725-8.284,43.591-22.049,59.861
	L288.693,295.547z M242.201,249.056c-3.906-3.904-10.236-3.904-14.143,0c-3.905,3.905-3.905,10.237,0,14.143l31.832,31.832
	c-7.228,4.411-15.755,6.97-24.888,6.97c-25.974,0-47.105-20.636-47.105-46s21.132-46,47.105-46s47.105,20.636,47.105,46
	c0,9.308-2.854,17.974-7.741,25.222L242.201,249.056z M379.638,246h-29.034c-4.886-54.956-49.631-98.857-105.601-103.572v-28.084
	C316.933,119.166,374.611,175.586,379.638,246z M225.003,114.344v28.084c-55.97,4.715-100.715,48.616-105.601,103.572H90.368
	C95.395,175.586,153.073,119.166,225.003,114.344z M90.368,266h29.034c4.886,54.956,49.631,98.857,105.601,103.572v28.084
	C153.073,392.834,95.395,336.414,90.368,266z M245.003,397.656v-28.084c24.105-2.031,46.131-11.322,63.786-25.643l20.15,20.15
	C305.994,383.234,276.901,395.518,245.003,397.656z M419.29,491.932c-0.419,0.177-0.575,0.018-0.739-0.147l-42.892-42.891
	l-0.04-38.135l1.46,1.46l0.001,0.001l42.588,42.588l0.039,36.497C419.708,491.538,419.708,491.758,419.29,491.932z M470.935,440.287
	c-0.173,0.418-0.403,0.44-0.627,0.418l-36.496-0.039l-44.05-44.05l38.135,0.041l42.892,42.892
	C470.953,439.713,471.108,439.868,470.935,440.287z"/>
<path d="M139.263,50.93c-1.86,1.86-2.93,4.44-2.93,7.07s1.069,5.21,2.93,7.07s4.44,2.93,7.07,2.93c2.64,0,5.21-1.07,7.069-2.93
	c1.87-1.86,2.931-4.44,2.931-7.07s-1.061-5.21-2.931-7.07c-1.859-1.86-4.43-2.93-7.069-2.93C143.703,48,141.123,49.07,139.263,50.93
	z"/>
<g>
</g>
<g>
</g>
<g>
</g>
<g>
</g>
<g>
</g>
<g>
</g>
<g>
</g>
<g>
</g>
<g>
</g>
<g>
</g>
<g>
</g>
<g>
</g>
<g>
</g>
<g>
</g>
<g>
</g>
</svg>
