<?xml version="1.0" encoding="iso-8859-1"?>
<!-- Generator: Adobe Illustrator 19.0.0, SVG Export Plug-In . SVG Version: 6.00 Build 0)  -->
<svg version="1.1" id="Capa_1" xmlns="http://www.w3.org/2000/svg" xmlns:xlink="http://www.w3.org/1999/xlink" x="0px" y="0px"
	 viewBox="0 0 512 512" style="enable-background:new 0 0 512 512;" xml:space="preserve">
<path style="fill:#C0F4F1;" d="M502,290v-68c0-5.523-4.477-10-10-10h-29.54c-4.528,0-8.518-3.036-9.658-7.419
	c-4.745-18.253-11.959-35.509-21.272-51.387c-2.292-3.908-1.624-8.876,1.579-12.079l20.88-20.88c3.905-3.905,3.905-10.237,0-14.142
	L405.907,58.01c-3.905-3.905-10.237-3.905-14.142,0l-20.88,20.88c-3.204,3.204-8.171,3.872-12.079,1.579
	c-15.878-9.313-33.134-16.526-51.387-21.272c-4.383-1.139-7.419-5.13-7.419-9.658V20c0-5.523-4.477-10-10-10h-68
	c-5.523,0-10,4.477-10,10v29.605c0,4.524-3.03,8.511-7.407,9.655c-18.222,4.761-35.448,11.982-51.298,21.297
	c-3.909,2.297-8.881,1.631-12.087-1.575L120.235,58.01c-3.905-3.905-10.237-3.905-14.142,0L58.01,106.093
	c-3.905,3.905-3.905,10.237,0,14.142l21.041,21.041c3.202,3.202,3.871,8.165,1.583,12.072
	c-9.269,15.835-16.453,33.038-21.183,51.231c-1.14,4.383-5.129,7.42-9.658,7.42H20c-5.523,0-10,4.477-10,10v68
	c0,5.523,4.477,10,10,10h29.859c4.524,0,8.511,3.031,9.655,7.408c4.746,18.162,11.937,35.335,21.208,51.143
	c2.292,3.908,1.626,8.876-1.579,12.081L58.01,391.764c-3.905,3.905-3.905,10.237,0,14.142l48.083,48.083
	c3.905,3.905,10.237,3.905,14.142,0l21.134-21.134c3.204-3.204,8.172-3.871,12.08-1.578c15.807,9.271,32.98,16.462,51.143,21.208
	c4.377,1.144,7.408,5.131,7.408,9.655V492c0,5.523,4.477,10,10,10h68c5.523,0,10-4.477,10-10v-29.794
	c0-4.529,3.037-8.518,7.42-9.658c18.193-4.73,35.396-11.913,51.231-21.183c3.907-2.287,8.871-1.618,12.072,1.583l21.041,21.041
	c3.905,3.905,10.237,3.905,14.142,0l48.083-48.083c3.905-3.905,3.905-10.237,0-14.142l-20.972-20.972
	c-3.206-3.206-3.872-8.178-1.575-12.087c9.315-15.85,16.536-33.076,21.297-51.298c1.144-4.377,5.131-7.407,9.655-7.407H492
	C497.523,300,502,295.523,502,290z"/>
<path style="fill:#C1EE92;" d="M253.525,128.951C181.99,128.951,124,186.941,124,258.475S181.99,388,253.525,388
	S383.05,330.01,383.05,258.475H253.525V128.951z"/>
<path style="fill:#39DDD2;" d="M253.525,258.475V128.951c-35.767,0-68.148,14.498-91.588,37.937L253.525,258.475z"/>
<path style="fill:#FF5D5D;" d="M253.525,102.54v155.936H409.46C409.46,172.354,339.646,102.54,253.525,102.54z"/>
<path d="M492,202l-29.52,0.065c-4.918-18.915-12.429-37.06-22.299-53.879l20.88-20.879c7.798-7.798,7.798-20.486,0-28.285
	l-48.084-48.083c-7.798-7.796-20.486-7.798-28.284,0l-20.828,20.904C346.993,61.947,328.849,54.437,310,49.54V20
	c0-11.028-8.972-20-20-20h-68c-11.028,0-20,8.972-20,20l0.065,29.584c-18.883,4.934-36.997,12.454-53.786,22.327l-20.973-20.972
	c-7.798-7.796-20.486-7.798-28.284,0L50.938,99.022c-7.798,7.798-7.798,20.486,0,28.284l21.066,20.991
	c-9.851,16.829-17.33,34.919-22.21,53.703H20c-11.028,0-20,8.972-20,20v68c0,11.028,8.972,20,20,20l29.839-0.064
	c4.917,18.818,12.406,36.876,22.233,53.624l-21.134,21.133c-7.798,7.798-7.798,20.486,0,28.285l48.084,48.083
	c7.798,7.797,20.484,7.798,28.284,0l21.084-21.157c16.796,9.851,34.854,17.339,53.609,22.237V492c0,11.028,8.972,20,20,20h68
	c11.028,0,20-8.972,20-20l-0.063-29.773c18.848-4.9,36.937-12.38,53.716-22.207l21.041,21.041c7.798,7.796,20.486,7.798,28.284,0
	l48.084-48.083c7.798-7.798,7.798-20.486,0-28.285l-20.997-20.922c9.896-16.839,17.416-34.953,22.33-53.771H492
	c11.028,0,20-8.972,20-20v-68C512,210.972,503.028,202,492,202z M492,290h-29.605c-9.092,0-17.041,6.119-19.329,14.878
	c-4.47,17.103-11.28,33.508-20.243,48.759c-4.6,7.825-3.315,17.787,3.124,24.226l20.973,20.972l-48.083,48.083l-21.042-21.042
	c-6.429-6.427-16.378-7.719-24.194-3.142c-15.243,8.922-31.627,15.697-48.695,20.135C296.129,445.151,290,453.102,290,462.206V492
	h-68v-29.859c0-9.092-6.119-17.041-14.88-19.33c-17.043-4.454-33.397-11.236-48.611-20.159c-3.132-1.837-6.604-2.731-10.058-2.731
	c-5.171,0-10.296,2.008-14.153,5.864l-21.133,21.134l-48.084-48.083l21.134-21.134c6.432-6.433,7.721-16.388,3.134-24.211
	c-8.924-15.214-15.706-31.569-20.16-48.611C66.9,296.119,58.951,290,49.859,290H20v-68h29.794c9.104,0,17.055-6.128,19.337-14.903
	c4.437-17.069,11.211-33.453,20.135-48.696c4.576-7.82,3.283-17.77-3.144-24.194l-21.041-21.042l48.083-48.083l20.973,20.972
	c6.438,6.438,16.4,7.724,24.225,3.125c15.253-8.964,31.658-15.775,48.761-20.243c8.76-2.29,14.878-10.238,14.878-19.33V20h68v29.54
	c0,9.103,6.128,17.054,14.902,19.336c17.129,4.453,33.563,11.256,48.845,20.219c7.821,4.588,17.777,3.298,24.209-3.134
	l20.879-20.879l48.084,48.083l-20.879,20.879c-6.434,6.433-7.724,16.389-3.136,24.21c8.963,15.28,15.766,31.713,20.22,48.842
	c2.28,8.775,10.231,14.904,19.336,14.904H492V290z"/>
<path d="M378.987,165.321c-4.633,3.006-5.951,9.199-2.945,13.832c13.507,20.816,21.4,44.602,23.079,69.323H263.524V112.871
	c19.212,1.281,37.654,6.27,54.946,14.878c4.946,2.461,10.948,0.449,13.409-4.496c2.461-4.944,0.448-10.947-4.495-13.409
	c-23.067-11.483-47.917-17.306-73.86-17.306c-5.522,0-10,4.477-10,10v16.773C171.241,124.457,114,184.904,114,258.476
	C114,335.41,176.591,398,253.524,398c73.571,0,134.018-57.24,139.163-129.524h16.773c5.522,0,10-4.477,10-10
	c0-32.156-9.212-63.35-26.641-90.209C389.814,163.634,383.622,162.314,378.987,165.321z M243.524,234.333l-67.106-67.107
	c18.44-15.606,41.651-25.735,67.106-27.854V234.333z M253.524,378C187.618,378,134,324.381,134,258.476
	c0-29.361,10.648-56.277,28.276-77.106l84.177,84.178c0.001,0.001,0.002,0.002,0.003,0.003c1.81,1.808,4.308,2.926,7.068,2.926
	h119.103C367.529,329.719,316.063,378,253.524,378z"/>
<path d="M352.032,150.801c0.008,0.007,0.036,0.033,0.044,0.04c1.913,1.739,4.315,2.597,6.71,2.597c2.715,0,5.42-1.101,7.396-3.267
	c3.717-4.076,3.422-10.401-0.648-14.125c-0.039-0.036-0.121-0.11-0.161-0.145c-4.133-3.664-10.489-3.315-14.153,0.817
	C347.556,140.851,347.899,147.138,352.032,150.801z"/>
<path d="M284.516,349.771c1.185,0,2.39-0.212,3.563-0.66c22.883-8.729,41.485-25.639,52.38-47.616
	c2.452-4.948,0.43-10.948-4.519-13.401c-4.95-2.452-10.948-0.431-13.401,4.518c-8.652,17.454-23.422,30.883-41.589,37.813
	c-5.16,1.968-7.747,7.747-5.779,12.907C276.691,347.32,280.487,349.771,284.516,349.771z"/>
<path d="M243.524,345.451c0,5.523,4.478,10,10,10h0.184c5.522,0,10-4.477,10-10s-4.478-10-10-10h-0.184
	C248.002,335.451,243.524,339.928,243.524,345.451z"/>
<g>
</g>
<g>
</g>
<g>
</g>
<g>
</g>
<g>
</g>
<g>
</g>
<g>
</g>
<g>
</g>
<g>
</g>
<g>
</g>
<g>
</g>
<g>
</g>
<g>
</g>
<g>
</g>
<g>
</g>
</svg>
