<?xml version="1.0" encoding="iso-8859-1"?>
<!-- Generator: Adobe Illustrator 19.0.0, SVG Export Plug-In . SVG Version: 6.00 Build 0)  -->
<svg version="1.1" id="Capa_1" xmlns="http://www.w3.org/2000/svg" xmlns:xlink="http://www.w3.org/1999/xlink" x="0px" y="0px"
	 viewBox="0 0 512 512" style="enable-background:new 0 0 512 512;" xml:space="preserve">
<path style="fill:#FEC96B;" d="M336,50h72c22.091,0,40,17.909,40,40v372c0,22.091-17.909,40-40,40H104c-22.091,0-40-17.909-40-40V90
	c0-22.091,17.909-40,40-40h68.333H336z"/>
<path style="fill:#FFFFFF;" d="M398,462H114c-5.523,0-10-4.477-10-10V100c0-5.523,4.477-10,10-10h284c5.523,0,10,4.477,10,10v352
	C408,457.523,403.523,462,398,462z"/>
<path style="fill:#96EDE7;" d="M295.475,39.5C290.862,22.504,275.334,10,256.877,10h-1.755c-18.457,0-33.985,12.504-38.598,29.5
	H193.25c-9.527,0-17.25,7.723-17.25,17.25V90h160V56.75c0-9.527-7.723-17.25-17.25-17.25H295.475z"/>
<circle style="fill:#C1EE92;" cx="256" cy="181.39" r="38"/>
<circle style="fill:#FF5D5D;" cx="182" cy="322.9" r="32"/>
<circle style="fill:#39DDD2;" cx="330" cy="322.9" r="32"/>
<path d="M408,40h-67.78c-4.992-6.384-12.757-10.5-21.47-10.5h-16.267C294.525,11.806,276.742,0,256.877,0h-1.754
	c-19.865,0-37.648,11.806-45.606,29.5H193.25c-8.713,0-16.479,4.116-21.47,10.5H104c-27.57,0-50,22.43-50,50v372
	c0,27.57,22.43,50,50,50h304c27.57,0,50-22.43,50-50V331.937c0-5.523-4.478-10-10-10s-10,4.477-10,10V462c0,16.542-13.458,30-30,30
	H104c-16.542,0-30-13.458-30-30V90c0-16.542,13.458-30,30-30h62v20h-52c-11.028,0-20,8.972-20,20v352c0,11.028,8.972,20,20,20h284
	c11.028,0,20-8.972,20-20V100c0-11.028-8.972-20-20-20h-52V60h62c16.542,0,30,13.458,30,30v158.102c0,5.523,4.478,10,10,10
	s10-4.477,10-10V90C458,62.43,435.57,40,408,40z M398.013,452c0,0-0.004,0-0.013,0H114V100h20v62c0,5.523,4.478,10,10,10
	s10-4.477,10-10v-62h244L398.013,452z M186,80V56.75c0-3.998,3.252-7.25,7.25-7.25h23.275c4.515,0,8.469-3.024,9.651-7.381
	C229.711,29.096,241.614,20,255.123,20h1.754c13.509,0,25.412,9.096,28.946,22.119c1.183,4.356,5.137,7.381,9.651,7.381h23.275
	c3.998,0,7.25,3.252,7.25,7.25V80H186z"/>
<path d="M266,247.808v-19.474c21.683-4.614,38-23.906,38-46.945c0-26.467-21.532-48-48-48s-48,21.533-48,48
	c0,23.038,16.317,42.331,38,46.945v19.474h-64c-5.522,0-10,4.477-10,10v24.309c-18.345,4.499-32,21.075-32,40.787
	c0,23.159,18.841,42,42,42s42-18.841,42-42c0-19.713-13.655-36.288-32-40.787v-14.309h128v14.309c-18.345,4.499-32,21.075-32,40.787
	c0,23.159,18.841,42,42,42s42-18.841,42-42c0-19.713-13.655-36.288-32-40.787v-24.309c0-5.523-4.478-10-10-10L266,247.808
	L266,247.808z M228,181.389c0-15.439,12.561-28,28-28s28,12.561,28,28s-12.561,28-28,28S228,196.829,228,181.389z M204,322.904
	c0,12.131-9.869,22-22,22s-22-9.869-22-22s9.869-22,22-22S204,310.773,204,322.904z M352,322.904c0,12.131-9.869,22-22,22
	s-22-9.869-22-22s9.869-22,22-22S352,310.773,352,322.904z"/>
<path d="M303.67,398c-2.64,0-5.21,1.07-7.07,2.93c-1.87,1.86-2.93,4.44-2.93,7.07s1.06,5.21,2.93,7.07
	c1.86,1.86,4.431,2.93,7.07,2.93c2.63,0,5.21-1.07,7.07-2.93c1.859-1.86,2.93-4.44,2.93-7.07s-1.07-5.21-2.93-7.07
	C308.88,399.07,306.3,398,303.67,398z"/>
<path d="M257.64,398c-2.64,0-5.21,1.07-7.07,2.93c-1.859,1.86-2.93,4.44-2.93,7.07s1.07,5.21,2.93,7.07
	c1.86,1.86,4.44,2.93,7.07,2.93s5.21-1.07,7.07-2.93c1.859-1.86,2.93-4.44,2.93-7.07s-1.07-5.21-2.93-7.07
	C262.85,399.07,260.27,398,257.64,398z"/>
<path d="M211.17,398c-2.64,0-5.22,1.07-7.07,2.93c-1.87,1.86-2.93,4.44-2.93,7.07s1.06,5.21,2.93,7.07
	c1.86,1.86,4.431,2.93,7.07,2.93c2.63,0,5.21-1.07,7.07-2.93c1.859-1.86,2.93-4.44,2.93-7.07s-1.07-5.21-2.93-7.07
	C216.38,399.07,213.8,398,211.17,398z"/>
<path d="M448,280.9c-2.63,0-5.21,1.07-7.07,2.93c-1.86,1.86-2.93,4.44-2.93,7.07c0,2.64,1.069,5.21,2.93,7.08
	c1.86,1.86,4.44,2.92,7.07,2.92s5.21-1.06,7.069-2.92c1.86-1.87,2.931-4.45,2.931-7.08s-1.07-5.2-2.931-7.07
	C453.21,281.97,450.63,280.9,448,280.9z"/>
<path d="M151.069,210.07c1.86-1.86,2.931-4.44,2.931-7.07s-1.07-5.21-2.931-7.07C149.21,194.07,146.63,193,144,193
	s-5.21,1.07-7.07,2.93c-1.86,1.86-2.93,4.44-2.93,7.07s1.069,5.21,2.93,7.07S141.37,213,144,213S149.21,211.93,151.069,210.07z"/>
<g>
</g>
<g>
</g>
<g>
</g>
<g>
</g>
<g>
</g>
<g>
</g>
<g>
</g>
<g>
</g>
<g>
</g>
<g>
</g>
<g>
</g>
<g>
</g>
<g>
</g>
<g>
</g>
<g>
</g>
</svg>
