<?xml version="1.0" encoding="iso-8859-1"?>
<!-- Generator: Adobe Illustrator 19.0.0, SVG Export Plug-In . SVG Version: 6.00 Build 0)  -->
<svg version="1.1" id="Capa_1" xmlns="http://www.w3.org/2000/svg" xmlns:xlink="http://www.w3.org/1999/xlink" x="0px" y="0px"
	 viewBox="0 0 512 512" style="enable-background:new 0 0 512 512;" xml:space="preserve">
<circle style="fill:#FF5D5D;" cx="328" cy="184" r="174"/>
<circle style="fill:#FFFFFF;" cx="328" cy="184" r="130"/>
<path style="fill:#67E5DD;" d="M210.41,360.267H89.59c-43.957,0-79.59,35.634-79.59,79.59V502h280v-62.142
	C290,395.901,254.366,360.267,210.41,360.267z"/>
<polygon style="fill:#FFFFFF;" points="200.262,360.267 200.262,414.338 150,382 99.738,414.338 99.738,360.267 "/>
<path style="fill:#FED284;" d="M150,196.074L150,196.074c-34.021,0-61.6,27.579-61.6,61.6v14.829h30.118
	c20.021,0,39.014-8.864,51.873-24.21l0,0l41.208,24.21v-14.829C211.6,223.654,184.021,196.074,150,196.074z"/>
<path style="fill:#FFDCA0;" d="M157.123,260.398c-11.222,7.795-24.661,12.105-38.605,12.105H88.4v26.164
	c0,34.021,27.579,61.6,61.6,61.6l0,0c34.021,0,61.6-27.579,61.6-61.6v-26.164l-20.604-12.105l-20.604-12.105L157.123,260.398z"/>
<path d="M210.41,350.267h-10.848c13.568-13.037,22.038-31.342,22.038-51.6v-23.784C247.298,304.924,285.461,324,328,324
	c77.196,0,140-62.804,140-140S405.196,44,328,44s-140,62.804-140,140c0,4.537,0.225,9.022,0.649,13.449
	c-11.158-7.186-24.419-11.375-38.649-11.375c-39.48,0-71.6,32.12-71.6,71.6v2.724v12.105v26.164c0,20.258,8.47,38.563,22.038,51.6
	H89.59c-49.4,0-89.59,40.19-89.59,89.59V502c0,5.523,4.477,10,10,10h280c5.523,0,10-4.477,10-10v-62.143
	C300,390.457,259.81,350.267,210.41,350.267z M190.538,370.267c-0.174,0.739-0.276,1.505-0.276,2.297v23.449L155.41,373.59
	c-3.296-2.12-7.525-2.12-10.821,0l-34.852,22.423v-25.746H190.538z M328,64c66.168,0,120,53.832,120,120s-53.832,120-120,120
	s-120-53.832-120-120S261.832,64,328,64z M98.4,257.674c0-28.453,23.148-51.6,51.6-51.6c27.551,0,50.128,21.707,51.531,48.915
	l-26.074-15.318c-4.212-2.476-9.594-1.545-12.73,2.199c-10.988,13.112-27.102,20.632-44.209,20.632H98.4v-2.105V257.674z
	 M98.4,298.667v-16.164h20.119c20.168,0,39.311-7.762,53.695-21.542l29.386,17.265v20.441c0,28.453-23.148,51.6-51.6,51.6
	S98.4,327.12,98.4,298.667z M280,492H20v-52.143c0-38.372,31.218-69.59,69.59-69.59h0.147v44.071c0,3.659,1.998,7.025,5.21,8.778
	c3.211,1.753,7.125,1.612,10.201-0.368L140,400.325v21.713c0,5.523,4.477,10,10,10s10-4.477,10-10v-21.713l34.852,22.423
	c1.644,1.058,3.525,1.59,5.411,1.59c1.645,0,3.293-0.405,4.79-1.222c3.212-1.752,5.21-5.119,5.21-8.778v-41.773
	c0-0.792-0.102-1.559-0.276-2.297h0.423c38.372,0,69.59,31.218,69.59,69.59V492z"/>
<path d="M150,448.5c-2.63,0-5.21,1.07-7.07,2.93s-2.93,4.44-2.93,7.07s1.07,5.21,2.93,7.07c1.86,1.86,4.44,2.93,7.07,2.93
	s5.21-1.07,7.07-2.93s2.93-4.44,2.93-7.07s-1.07-5.21-2.93-7.07C155.21,449.57,152.63,448.5,150,448.5z"/>
<path d="M249.5,438h-45c-5.523,0-10,4.477-10,10s4.477,10,10,10h45c5.523,0,10-4.477,10-10S255.023,438,249.5,438z"/>
<path d="M328,0c-43.848,0-86.317,15.682-119.585,44.156c-32.9,28.159-54.896,67.071-61.934,109.568
	c-0.902,5.448,2.783,10.597,8.232,11.5c5.447,0.896,10.596-2.784,11.5-8.232C179.358,77.613,247.4,20,328,20
	c90.43,0,164,73.57,164,164s-73.57,164-164,164c-5.523,0-10,4.477-10,10s4.477,10,10,10c101.458,0,184-82.542,184-184
	S429.458,0,328,0z"/>
<path d="M297.125,345.101c-0.033-0.007-0.1-0.02-0.141-0.027c-5.409-1.04-10.63,2.494-11.688,7.902
	c-1.061,5.42,2.486,10.676,7.907,11.736c0.662,0.132,1.321,0.196,1.972,0.196c4.669,0,8.844-3.287,9.795-8.041
	C306.053,351.452,302.541,346.184,297.125,345.101z"/>
<path d="M321.094,191.071c1.953,1.953,4.512,2.929,7.071,2.929s5.119-0.976,7.071-2.929l46.669-46.669
	c3.905-3.905,3.905-10.237,0-14.143s-10.237-3.905-14.143,0l-39.598,39.598l-20.845-20.845c-3.905-3.905-10.237-3.905-14.143,0
	s-3.905,10.237,0,14.143L321.094,191.071z"/>
<path d="M328,103.168c5.523,0,10-4.477,10-10v-7.084c0-5.523-4.477-10-10-10s-10,4.477-10,10v7.084
	C318,98.691,322.477,103.168,328,103.168z"/>
<path d="M328,264.832c-5.523,0-10,4.477-10,10v7.084c0,5.523,4.477,10,10,10s10-4.477,10-10v-7.084
	C338,269.309,333.523,264.832,328,264.832z"/>
<path d="M418.832,194h7.084c5.523,0,10-4.477,10-10s-4.477-10-10-10h-7.084c-5.523,0-10,4.477-10,10S413.309,194,418.832,194z"/>
<path d="M247.168,184c0-5.523-4.477-10-10-10h-7.084c-5.523,0-10,4.477-10,10s4.477,10,10,10h7.084
	C242.691,194,247.168,189.523,247.168,184z"/>
<g>
</g>
<g>
</g>
<g>
</g>
<g>
</g>
<g>
</g>
<g>
</g>
<g>
</g>
<g>
</g>
<g>
</g>
<g>
</g>
<g>
</g>
<g>
</g>
<g>
</g>
<g>
</g>
<g>
</g>
</svg>
