<?xml version="1.0" encoding="iso-8859-1"?>
<!-- Generator: Adobe Illustrator 19.0.0, SVG Export Plug-In . SVG Version: 6.00 Build 0)  -->
<svg version="1.1" id="Capa_1" xmlns="http://www.w3.org/2000/svg" xmlns:xlink="http://www.w3.org/1999/xlink" x="0px" y="0px"
	 viewBox="0 0 512 512" style="enable-background:new 0 0 512 512;" xml:space="preserve">
<path style="fill:#FED284;" d="M372.689,180.562c0-84.079-89.022-147.366-177.953-100.748c-17.267,9.052-31.143,23.305-40.03,40.657
	c-27.71,54.103-14.907,108.061,18.342,141.84c17.024,17.296,26.255,40.794,26.255,65.063v0.001c0,6.421,5.205,11.626,11.626,11.626
	h90.397c6.421,0,11.626-5.205,11.626-11.626l0,0c0-24.29,9.269-47.787,26.299-65.108
	C359.93,241.234,372.689,212.389,372.689,180.562z"/>
<path style="fill:#C1EE92;" d="M196,339l-95.036,27.414C64.86,376.829,40,409.873,40,447.45V502h432v-54.55
	c0-37.577-24.86-70.621-60.964-81.036L316,339H196z"/>
<circle style="fill:#FFFFFF;" cx="255" cy="194" r="20"/>
<path style="fill:#546DFF;" d="M279.164,403h-44.071c-13.235,0-23.964-10.729-23.964-23.964V339h92v40.036
	C303.128,392.271,292.399,403,279.164,403z"/>
<path d="M463.048,390.734c-12.398-16.48-29.426-28.212-49.241-33.929l-54.652-15.765c-5.306-1.531-10.849,1.529-12.38,6.837
	c-1.531,5.306,1.53,10.849,6.837,12.38l54.652,15.765C439.903,385.149,462,414.521,462,447.45V492H158.762c-5.523,0-10,4.477-10,10
	s4.477,10,10,10H472c5.523,0,10-4.477,10-10v-54.55C482,426.827,475.447,407.215,463.048,390.734z"/>
<path d="M119,492c-2.63,0-5.21,1.07-7.07,2.93S109,499.37,109,502s1.07,5.21,2.93,7.07c1.86,1.86,4.44,2.93,7.07,2.93
	s5.21-1.07,7.07-2.93S129,504.63,129,502s-1.07-5.21-2.93-7.07C124.21,493.07,121.63,492,119,492z"/>
<path d="M103.736,376.022l47.918-13.822c5.307-1.531,8.368-7.073,6.837-12.38c-1.53-5.306-7.071-8.368-12.38-6.837l-47.918,13.822
	c-19.815,5.716-36.843,17.449-49.241,33.929C36.553,407.215,30,426.827,30,447.45V502c0,5.523,4.477,10,10,10h38
	c5.523,0,10-4.477,10-10s-4.477-10-10-10H50v-44.55C50,414.521,72.097,385.149,103.736,376.022z"/>
<path d="M165.921,269.326c15.078,15.319,23.382,35.935,23.382,58.049c0,8.398,4.814,15.687,11.825,19.268v32.394
	c0,18.728,15.236,33.964,33.964,33.964h44.071c18.728,0,33.964-15.236,33.964-33.964v-33.555c5.908-3.864,9.822-10.535,9.822-18.106
	c0-22.098,8.321-42.73,23.43-58.097c23.414-23.813,36.309-55.32,36.309-88.716c0-22.178-5.822-44.003-16.838-63.115
	c-10.68-18.53-26.001-34.177-44.308-45.25c-39.483-23.881-87.395-24.333-131.45-1.239c-19.015,9.968-34.33,25.514-44.288,44.956
	c-14.043,27.418-19.114,56.697-14.664,84.671C135.289,226.652,147.315,250.422,165.921,269.326z M293.128,379.036
	c0,7.7-6.264,13.964-13.964,13.964h-44.071c-7.7,0-13.964-6.264-13.964-13.964V349h72v30.036H293.128z M163.606,125.03
	c8.065-15.746,20.435-28.319,35.773-36.359c18.649-9.776,38.04-14.66,56.916-14.66c19.29,0,38.041,5.103,54.897,15.298
	c32.246,19.504,51.497,53.617,51.497,91.252c0,28.118-10.856,54.645-30.569,74.693c-18.81,19.13-29.169,44.743-29.169,72.119
	c0,0.896-0.729,1.625-1.625,1.625H266v-73c0-5.523-4.477-10-10-10s-10,4.477-10,10v73h-34.872h-0.2
	c-0.896,0-1.625-0.729-1.625-1.626c0-27.396-10.345-52.994-29.128-72.077C153.692,228.39,135.432,180.04,163.606,125.03z"/>
<path d="M255,224c16.542,0,30-13.458,30-30s-13.458-30-30-30s-30,13.458-30,30S238.458,224,255,224z M255,184
	c5.514,0,10,4.486,10,10s-4.486,10-10,10s-10-4.486-10-10S249.486,184,255,184z"/>
<path d="M255.936,40.771c5.523,0,10-4.477,10-10V10c0-5.523-4.477-10-10-10s-10,4.477-10,10v20.771
	C245.936,36.294,250.413,40.771,255.936,40.771z"/>
<path d="M322.721,54.2c2.559,0,5.119-0.976,7.071-2.929l19.522-19.522c3.905-3.905,3.905-10.237,0-14.143
	c-3.905-3.905-10.237-3.905-14.143,0l-19.522,19.522c-3.905,3.905-3.905,10.237,0,14.143C317.602,53.224,320.162,54.2,322.721,54.2z
	"/>
<path d="M181.816,51.404c1.953,1.953,4.512,2.929,7.071,2.929s5.119-0.977,7.071-2.929c3.905-3.905,3.906-10.237,0-14.142
	L176.25,17.554c-3.906-3.906-10.237-3.905-14.142,0s-3.906,10.237,0,14.142L181.816,51.404z"/>
<path d="M330.833,448c0,5.523,4.477,10,10,10h34.272c5.523,0,10-4.477,10-10s-4.477-10-10-10h-34.272
	C335.311,438,330.833,442.477,330.833,448z"/>
<path d="M420.07,455.07c1.86-1.86,2.93-4.44,2.93-7.07s-1.07-5.21-2.93-7.07c-1.86-1.86-4.44-2.93-7.07-2.93s-5.21,1.07-7.07,2.93
	c-1.86,1.86-2.93,4.44-2.93,7.07s1.07,5.21,2.93,7.07c1.86,1.86,4.44,2.93,7.07,2.93S418.21,456.93,420.07,455.07z"/>
<g>
</g>
<g>
</g>
<g>
</g>
<g>
</g>
<g>
</g>
<g>
</g>
<g>
</g>
<g>
</g>
<g>
</g>
<g>
</g>
<g>
</g>
<g>
</g>
<g>
</g>
<g>
</g>
<g>
</g>
</svg>
