<?xml version="1.0" encoding="iso-8859-1"?>
<!-- Generator: Adobe Illustrator 19.0.0, SVG Export Plug-In . SVG Version: 6.00 Build 0)  -->
<svg version="1.1" id="Capa_1" xmlns="http://www.w3.org/2000/svg" xmlns:xlink="http://www.w3.org/1999/xlink" x="0px" y="0px"
	 viewBox="0 0 512 512" style="enable-background:new 0 0 512 512;" xml:space="preserve">
<path style="fill:#FF5D5D;" d="M304.576,142.03h-97.153c-35.346,0-64,28.654-64,64V256h225.153v-49.97
	C368.576,170.684,339.923,142.03,304.576,142.03z"/>
<path style="fill:#97A6FF;" d="M256,10L256,10c-27.357,0-49.534,22.177-49.534,49.534v11.924h24.219
	c16.099,0,31.372-7.128,41.712-19.468l0,0l33.136,19.468V59.534C305.534,32.177,283.357,10,256,10z"/>
<path style="fill:#FEC869;" d="M261.728,61.724c-9.024,6.268-19.83,9.734-31.043,9.734h-24.219v21.039
	c0,27.357,22.177,49.534,49.534,49.534l0,0c27.357,0,49.534-22.177,49.534-49.534V71.458l-16.568-9.734l-16.568-9.734
	L261.728,61.724z"/>
<path style="fill:#FFDCA0;" d="M138.552,363.171v9.138c0,20.187-16.365,36.552-36.552,36.552l0,0l0,0
	c-20.187,0-36.552-16.365-36.552-36.552v-9.138c0-20.187,16.365-36.552,36.552-36.552l0,0
	C122.187,326.619,138.552,342.984,138.552,363.171z"/>
<path style="fill:#96EDE7;" d="M154,408.861H50c-22.091,0-40,17.909-40,40V502h184v-53.139C194,426.77,176.091,408.861,154,408.861z
	"/>
<path style="fill:#FFDCA0;" d="M446.552,363.171v9.138c0,20.187-16.365,36.552-36.552,36.552l0,0l0,0
	c-20.187,0-36.552-16.365-36.552-36.552v-9.138c0-20.187,16.365-36.552,36.552-36.552l0,0
	C430.187,326.619,446.552,342.984,446.552,363.171z"/>
<path style="fill:#96EDE7;" d="M462,408.861H358c-22.091,0-40,17.909-40,40V502h184v-53.139C502,426.77,484.091,408.861,462,408.861
	z"/>
<path d="M143.424,266h225.152c5.522,0,10-4.477,10-10v-49.97c0-40.804-33.196-74-74-74h-4.116
	c9.367-10.522,15.073-24.371,15.073-39.534V71.458v-9.733v-2.19C315.533,26.707,288.827,0,256,0s-59.533,26.707-59.533,59.534v2.19
	v9.733v21.039c0,15.162,5.706,29.011,15.073,39.534h-4.116c-40.804,0-74,33.196-74,74V256C133.424,261.523,137.901,266,143.424,266z
	 M216.467,59.534C216.467,37.735,234.201,20,256,20c19.829,0,36.296,14.675,39.109,33.735l-17.646-10.367
	c-4.211-2.475-9.593-1.543-12.73,2.199c-8.462,10.099-20.871,15.89-34.047,15.89h-14.219L216.467,59.534L216.467,59.534z
	 M216.467,92.497V81.458h14.219c16.225,0,31.648-6.056,43.447-16.85l21.4,12.573v15.316c0,21.799-17.734,39.534-39.533,39.534
	S216.467,114.295,216.467,92.497z M153.424,206.03c0-29.776,24.225-54,54-54H246V172c0,5.523,4.478,10,10,10s10-4.477,10-10v-19.97
	h38.576c29.775,0,54,24.224,54,54V246H153.424V206.03z"/>
<path d="M154,398.861h-13.795c5.254-7.537,8.347-16.688,8.347-26.552v-9.138c0-25.669-20.883-46.552-46.552-46.552
	s-46.552,20.883-46.552,46.552v9.138c0,9.864,3.093,19.015,8.347,26.552H50c-27.57,0-50,22.43-50,50V502c0,5.523,4.478,10,10,10h184
	c5.522,0,10-4.477,10-10v-53.139C204,421.291,181.57,398.861,154,398.861z M75.448,372.309v-9.138
	c0-14.641,11.911-26.552,26.552-26.552s26.552,11.911,26.552,26.552v9.138c0,14.641-11.911,26.552-26.552,26.552
	S75.448,386.95,75.448,372.309z M184,492H20v-43.139c0-16.542,13.458-30,30-30h42V439c0,5.523,4.478,10,10,10s10-4.477,10-10
	v-20.139h42c16.542,0,30,13.458,30,30V492z"/>
<path d="M462,398.861h-13.795c5.254-7.537,8.347-16.688,8.347-26.552v-9.138c0-25.669-20.883-46.552-46.552-46.552
	s-46.552,20.883-46.552,46.552v9.138c0,9.864,3.093,19.015,8.347,26.552H358c-27.57,0-50,22.43-50,50V502c0,5.523,4.478,10,10,10
	h184c5.522,0,10-4.477,10-10v-53.139C512,421.291,489.57,398.861,462,398.861z M383.448,372.309v-9.138
	c0-14.641,11.911-26.552,26.552-26.552s26.552,11.911,26.552,26.552v9.138c0,14.641-11.911,26.552-26.552,26.552
	S383.448,386.95,383.448,372.309z M492,492H328v-43.139c0-16.542,13.458-30,30-30h42V439c0,5.523,4.478,10,10,10s10-4.477,10-10
	v-20.139h42c16.542,0,30,13.458,30,30V492z"/>
<path d="M318.372,404.071c3.905-3.905,3.905-10.237,0-14.143L266,337.557V295.5c0-5.523-4.478-10-10-10s-10,4.477-10,10v42.057
	l-52.372,52.372c-3.905,3.905-3.905,10.237,0,14.143c3.906,3.905,10.236,3.905,14.143,0L256,355.841l48.229,48.23
	c1.953,1.953,4.512,2.929,7.071,2.929S316.419,406.024,318.372,404.071z"/>
<path d="M256,200.5c-2.63,0-5.21,1.07-7.07,2.93c-1.86,1.86-2.93,4.44-2.93,7.07s1.069,5.21,2.93,7.07s4.44,2.93,7.07,2.93
	s5.21-1.07,7.069-2.93c1.86-1.86,2.931-4.44,2.931-7.07s-1.07-5.21-2.931-7.07C261.21,201.57,258.63,200.5,256,200.5z"/>
<g>
</g>
<g>
</g>
<g>
</g>
<g>
</g>
<g>
</g>
<g>
</g>
<g>
</g>
<g>
</g>
<g>
</g>
<g>
</g>
<g>
</g>
<g>
</g>
<g>
</g>
<g>
</g>
<g>
</g>
</svg>
