<?xml version="1.0" encoding="iso-8859-1"?>
<!-- Generator: Adobe Illustrator 19.0.0, SVG Export Plug-In . SVG Version: 6.00 Build 0)  -->
<svg version="1.1" id="Capa_1" xmlns="http://www.w3.org/2000/svg" xmlns:xlink="http://www.w3.org/1999/xlink" x="0px" y="0px"
	 viewBox="0 0 512 512" style="enable-background:new 0 0 512 512;" xml:space="preserve">
<path style="fill:#67E5DD;" d="M378.97,171.941H133.204c-4.513,0-8.719,2.284-11.177,6.068L66.151,264.04
	c-3.271,5.037-2.77,11.639,1.225,16.124l178.663,200.581c5.3,5.95,14.603,5.951,19.903,0l178.682-200.592
	c3.99-4.48,4.496-11.073,1.235-16.109l-55.702-86.02C387.701,174.231,383.49,171.941,378.97,171.941z"/>
<path style="fill:#96EDE7;" d="M390.157,178.024c-2.456-3.793-6.668-6.083-11.187-6.083H133.204c-4.513,0-8.719,2.284-11.177,6.068
	L66.151,264.04c-1.729,2.662-2.393,5.76-2.056,8.753h383.809c0.34-2.99-0.321-6.087-2.045-8.749L390.157,178.024z"/>
<polygon style="fill:#C0F4F1;" points="320.844,272.793 255.99,483.3 191.137,272.793 "/>
<polygon style="fill:#67E5DD;" points="191.137,272.793 255.99,172.567 320.844,272.793 "/>
<g>
	<polygon style="fill:#C0F4F1;" points="58.813,272.793 123.666,172.567 188.52,272.793 	"/>
	<polygon style="fill:#C0F4F1;" points="319.146,272.793 384,172.567 448.854,272.793 	"/>
</g>
<path d="M398.551,172.589c-4.317-6.667-11.637-10.648-19.58-10.648H133.204c-7.931,0-15.244,3.971-19.563,10.621l-55.876,86.03
	c-5.71,8.79-4.828,20.396,2.145,28.222l178.662,200.58c4.422,4.964,10.77,7.812,17.418,7.812c0.001,0,0,0,0.001,0
	c6.647,0,12.997-2.847,17.419-7.811l178.682-200.592c6.963-7.816,7.852-19.41,2.162-28.195L398.551,172.589z M307.299,282.793
	L255.99,449.336l-51.309-166.543H307.299z M209.518,262.793l46.472-71.819l46.472,71.819H209.518z M273.967,181.941h93.72
	l-46.846,72.44L273.967,181.941z M191.268,254.183l-46.729-72.241h93.474L191.268,254.183z M236.97,455.529L83.109,282.793h100.645
	L236.97,455.529z M328.227,282.793h100.654l-153.872,172.74L328.227,282.793z M433.136,262.793H339.22l46.927-72.565
	L433.136,262.793z M126.048,190.178l46.97,72.615H78.885L126.048,190.178z"/>
<path d="M30.333,262.793H10c-5.522,0-10,4.477-10,10s4.478,10,10,10h20.333c5.522,0,10-4.477,10-10S35.855,262.793,30.333,262.793z"
	/>
<path d="M502,262.793h-20.333c-5.522,0-10,4.477-10,10s4.478,10,10,10H502c5.522,0,10-4.477,10-10S507.522,262.793,502,262.793z"/>
<path d="M396.858,142.114c2.56,0,5.118-0.977,7.071-2.929l33.217-33.217c3.905-3.905,3.905-10.237,0-14.142
	c-3.906-3.905-10.236-3.905-14.143,0l-33.217,33.217c-3.905,3.905-3.905,10.237,0,14.142
	C391.74,141.138,394.299,142.114,396.858,142.114z"/>
<path d="M108.504,139.006c1.953,1.953,4.512,2.929,7.071,2.929s5.118-0.977,7.071-2.929c3.905-3.905,3.905-10.237,0-14.142
	L89.43,91.647c-3.904-3.905-10.234-3.905-14.143,0c-3.905,3.905-3.905,10.237,0,14.142L108.504,139.006z"/>
<path d="M256.254,101.961c5.522,0,10-4.477,10-10V26.793c0-5.523-4.478-10-10-10s-10,4.477-10,10v65.168
	C246.254,97.484,250.731,101.961,256.254,101.961z"/>
<path d="M256.25,135.79c2.63,0,5.21-1.06,7.069-2.93c1.87-1.86,2.931-4.44,2.931-7.07s-1.061-5.21-2.931-7.07
	c-1.859-1.86-4.439-2.93-7.069-2.93s-5.21,1.07-7.07,2.93s-2.93,4.44-2.93,7.07c0,2.64,1.069,5.21,2.93,7.07
	C251.04,134.73,253.62,135.79,256.25,135.79z"/>
<g>
</g>
<g>
</g>
<g>
</g>
<g>
</g>
<g>
</g>
<g>
</g>
<g>
</g>
<g>
</g>
<g>
</g>
<g>
</g>
<g>
</g>
<g>
</g>
<g>
</g>
<g>
</g>
<g>
</g>
</svg>
