<?xml version="1.0" encoding="iso-8859-1"?>
<!-- Generator: Adobe Illustrator 19.0.0, SVG Export Plug-In . SVG Version: 6.00 Build 0)  -->
<svg version="1.1" id="Capa_1" xmlns="http://www.w3.org/2000/svg" xmlns:xlink="http://www.w3.org/1999/xlink" x="0px" y="0px"
	 viewBox="0 0 512 512" style="enable-background:new 0 0 512 512;" xml:space="preserve">
<path style="fill:#FFFFFF;" d="M50.017,49.996h363.969c22.089,0,39.997,17.907,39.997,39.997v299.975H30.019
	c-11.045,0-19.998-8.953-19.998-19.998V89.992C10.021,67.903,27.928,49.996,50.017,49.996z"/>
<path style="fill:#C1EE92;" d="M413.987,49.996H50.017c-22.089,0-39.997,17.907-39.997,39.997v37.997h443.963V89.992
	C453.983,67.903,436.077,49.996,413.987,49.996z"/>
<g>
	<path style="fill:#96EDE7;" d="M92.015,341.971L92.015,341.971c-15.463,0-27.998-12.535-27.998-27.998l0,0
		c0-15.463,12.535-27.998,27.998-27.998l0,0c15.463,0,27.998,12.535,27.998,27.998l0,0
		C120.011,329.436,107.476,341.971,92.015,341.971z"/>
	<path style="fill:#96EDE7;" d="M185.34,341.971L185.34,341.971c-15.463,0-27.998-12.535-27.998-27.998l0,0
		c0-15.463,12.535-27.998,27.998-27.998l0,0c15.463,0,27.998,12.535,27.998,27.998l0,0
		C213.338,329.436,200.803,341.971,185.34,341.971z"/>
	<path style="fill:#96EDE7;" d="M278.665,341.971L278.665,341.971c-15.463,0-27.998-12.535-27.998-27.998l0,0
		c0-15.463,12.535-27.998,27.998-27.998l0,0c15.463,0,27.998,12.535,27.998,27.998l0,0
		C306.663,329.436,294.128,341.971,278.665,341.971z"/>
	<path style="fill:#96EDE7;" d="M92.015,237.98L92.015,237.98c-15.463,0-27.998-12.535-27.998-27.998l0,0
		c0-15.463,12.535-27.998,27.998-27.998l0,0c15.463,0,27.998,12.535,27.998,27.998l0,0
		C120.011,225.445,107.476,237.98,92.015,237.98z"/>
	<path style="fill:#96EDE7;" d="M278.665,237.98L278.665,237.98c-15.463,0-27.998-12.535-27.998-27.998l0,0
		c0-15.463,12.535-27.998,27.998-27.998l0,0c15.463,0,27.998,12.535,27.998,27.998l0,0
		C306.663,225.445,294.128,237.98,278.665,237.98z"/>
	<path style="fill:#96EDE7;" d="M185.34,237.98L185.34,237.98c-15.463,0-27.998-12.535-27.998-27.998l0,0
		c0-15.463,12.535-27.998,27.998-27.998l0,0c15.463,0,27.998,12.535,27.998,27.998l0,0
		C213.338,225.445,200.803,237.98,185.34,237.98z"/>
</g>
<path style="fill:#FF5D5D;" d="M371.991,237.98L371.991,237.98c-15.463,0-27.998-12.535-27.998-27.998l0,0
	c0-15.463,12.535-27.998,27.998-27.998l0,0c15.463,0,27.998,12.535,27.998,27.998l0,0
	C399.988,225.445,387.453,237.98,371.991,237.98z"/>
<circle style="fill:#546DFF;" cx="401.987" cy="402.006" r="99.992"/>
<path d="M453.983,263.478c-2.63,0-5.21,1.07-7.069,2.93c-1.86,1.86-2.93,4.44-2.93,7.069s1.069,5.21,2.93,7.069
	s4.44,2.93,7.069,2.93c2.63,0,5.21-1.07,7.068-2.93c1.86-1.86,2.931-4.44,2.931-7.069s-1.07-5.21-2.931-7.069
	C459.193,264.548,456.623,263.478,453.983,263.478z"/>
<path d="M250.667,379.968H30.019c-5.514,0-9.999-4.486-9.999-9.999V89.992c0-16.541,13.457-29.997,29.997-29.997h51.996v7.167
	c0,7.719-6.279,13.999-13.999,13.999c-5.522,0-9.999,4.477-9.999,9.999s4.478,9.999,9.999,9.999
	c18.746,0,33.997-15.251,33.997-33.997v-7.167h123.99v7.167c0,7.719-6.279,13.999-13.999,13.999c-5.522,0-9.999,4.477-9.999,9.999
	s4.478,9.999,9.999,9.999c18.746,0,33.997-15.251,33.997-33.997v-7.167h123.99v7.167c0,7.719-6.279,13.999-13.999,13.999
	c-5.522,0-9.999,4.477-9.999,9.999s4.478,9.999,9.999,9.999c18.746,0,33.997-15.251,33.997-33.997v-7.167h4
	c16.541,0,29.997,13.457,29.997,29.997v27.998H94.014c-5.522,0-9.999,4.477-9.999,9.999c0,5.523,4.478,9.999,9.999,9.999h349.971
	v92.492c0,5.523,4.478,9.999,9.999,9.999c5.522,0,9.999-4.477,9.999-9.999V89.992c0-27.568-22.428-49.996-49.996-49.996h-4v-5.999
	C409.987,15.251,394.736,0,375.99,0c-18.746,0-33.997,15.251-33.997,33.997v5.999h-75.994v-5.999
	C265.999,15.251,250.748,0,232.002,0s-33.997,15.251-33.997,33.997v5.999h-75.994v-5.999C122.011,15.251,106.761,0,88.014,0
	S54.017,15.251,54.017,33.997v5.999h-4c-27.568,0-49.996,22.428-49.996,49.996v279.976c0,16.541,13.457,29.997,29.997,29.997
	h220.648c5.522,0,9.999-4.477,9.999-9.999S256.19,379.968,250.667,379.968z M361.991,33.997c0-7.719,6.279-13.999,13.999-13.999
	c7.719,0,13.999,6.279,13.999,13.999v5.999h-27.998V33.997z M218.003,33.997c0-7.719,6.279-13.999,13.999-13.999
	c7.719,0,13.999,6.279,13.999,13.999v5.999h-27.998V33.997z M74.015,33.997c0-7.719,6.279-13.999,13.999-13.999
	s13.999,6.279,13.999,13.999v5.999H74.015V33.997z"/>
<path d="M92.014,275.977c-20.951,0-37.997,17.046-37.997,37.997c0,20.951,17.046,37.997,37.997,37.997s37.997-17.046,37.997-37.997
	C130.011,293.022,112.966,275.977,92.014,275.977z M92.014,331.972c-9.924,0-17.998-8.074-17.998-17.999
	c0-9.924,8.074-17.998,17.998-17.998s17.998,8.074,17.998,17.998C110.012,323.898,101.938,331.972,92.014,331.972z"/>
<path d="M185.339,275.977c-20.951,0-37.997,17.046-37.997,37.997c0,20.951,17.046,37.997,37.997,37.997s37.997-17.046,37.997-37.997
	C223.336,293.022,206.291,275.977,185.339,275.977z M185.339,331.972c-9.924,0-17.998-8.074-17.998-17.999
	c0-9.924,8.074-17.998,17.998-17.998s17.998,8.074,17.998,17.998C203.337,323.898,195.263,331.972,185.339,331.972z"/>
<path d="M316.662,313.974c0-20.951-17.046-37.997-37.997-37.997c-20.951,0-37.997,17.046-37.997,37.997
	c0,20.951,17.046,37.997,37.997,37.997C299.616,351.97,316.662,334.925,316.662,313.974z M278.665,331.972
	c-9.924,0-17.999-8.074-17.999-17.999c0-9.924,8.074-17.998,17.999-17.998c9.924,0,17.998,8.074,17.998,17.998
	C296.664,323.898,288.589,331.972,278.665,331.972z"/>
<path d="M92.014,171.986c-20.951,0-37.997,17.046-37.997,37.997s17.046,37.997,37.997,37.997s37.997-17.046,37.997-37.997
	S112.966,171.986,92.014,171.986z M92.014,227.981c-9.924,0-17.998-8.074-17.998-17.998c0-9.924,8.074-17.998,17.998-17.998
	s17.998,8.074,17.998,17.998C110.012,219.907,101.938,227.981,92.014,227.981z"/>
<path d="M240.668,209.982c0,20.951,17.046,37.997,37.997,37.997c20.951,0,37.997-17.046,37.997-37.997s-17.046-37.997-37.997-37.997
	C257.714,171.986,240.668,189.031,240.668,209.982z M296.664,209.982c0,9.924-8.074,17.998-17.998,17.998
	c-9.924,0-17.999-8.074-17.999-17.998c0-9.924,8.074-17.998,17.999-17.998C288.589,191.984,296.664,200.058,296.664,209.982z"/>
<path d="M333.993,209.982c0,20.951,17.046,37.997,37.997,37.997c20.951,0,37.997-17.046,37.997-37.997s-17.046-37.997-37.997-37.997
	C351.039,171.986,333.993,189.031,333.993,209.982z M389.989,209.982c0,9.924-8.074,17.998-17.999,17.998
	c-9.924,0-17.998-8.074-17.998-17.998c0-9.924,8.074-17.998,17.998-17.998C381.914,191.984,389.989,200.058,389.989,209.982z"/>
<path d="M185.339,171.986c-20.951,0-37.997,17.046-37.997,37.997s17.046,37.997,37.997,37.997s37.997-17.046,37.997-37.997
	S206.291,171.986,185.339,171.986z M185.339,227.981c-9.924,0-17.998-8.074-17.998-17.998c0-9.924,8.074-17.998,17.998-17.998
	s17.998,8.074,17.998,17.998C203.337,219.907,195.263,227.981,185.339,227.981z"/>
<path d="M62.086,135.059c1.86-1.86,2.931-4.44,2.931-7.069c0-2.63-1.07-5.21-2.931-7.069c-1.859-1.86-4.439-2.93-7.068-2.93
	s-5.21,1.07-7.069,2.93c-1.86,1.86-2.93,4.44-2.93,7.069c0,2.63,1.069,5.21,2.93,7.069s4.44,2.93,7.069,2.93
	S60.226,136.918,62.086,135.059z"/>
<path d="M401.988,292.018c-60.649,0-109.991,49.342-109.991,109.991S341.339,512,401.988,512s109.991-49.342,109.991-109.991
	S462.638,292.018,401.988,292.018z M401.988,492.002c-49.622,0-89.992-40.371-89.992-89.992s40.371-89.992,89.992-89.992
	s89.992,40.371,89.992,89.992S451.61,492.002,401.988,492.002z"/>
<path d="M458.983,362.969h-21.998c-5.522,0-9.999,4.477-9.999,9.999c0,4.473,2.938,8.257,6.987,9.535l-27.319,27.319l-22.094-22.094
	c-3.906-3.905-10.235-3.905-14.142,0l-33.497,33.497c-3.905,3.905-3.905,10.236,0,14.142c1.953,1.953,4.512,2.929,7.07,2.929
	s5.118-0.976,7.07-2.929l26.427-26.427l22.094,22.094c3.906,3.905,10.235,3.905,14.142,0l35.298-35.298
	c0.394,5.162,4.698,9.229,9.96,9.229c5.522,0,9.999-4.477,9.999-9.999v-21.998C468.982,367.446,464.505,362.969,458.983,362.969z"/>
<g>
</g>
<g>
</g>
<g>
</g>
<g>
</g>
<g>
</g>
<g>
</g>
<g>
</g>
<g>
</g>
<g>
</g>
<g>
</g>
<g>
</g>
<g>
</g>
<g>
</g>
<g>
</g>
<g>
</g>
</svg>
