<?xml version="1.0" encoding="iso-8859-1"?>
<!-- Generator: Adobe Illustrator 19.0.0, SVG Export Plug-In . SVG Version: 6.00 Build 0)  -->
<svg version="1.1" id="Capa_1" xmlns="http://www.w3.org/2000/svg" xmlns:xlink="http://www.w3.org/1999/xlink" x="0px" y="0px"
	 viewBox="0 0 512.001 512.001" style="enable-background:new 0 0 512.001 512.001;" xml:space="preserve">
<path style="fill:#D9F9F7;" d="M443.73,502.001V393.554c0-18.284,5.572-36.136,16.009-51.148
	c27.105-38.985,43.034-93.56,42.233-140.7C500.136,93.652,411.745,8.282,303.69,10.027C197.421,11.743,111.804,98.423,111.804,205.1
	L78.069,326.62h61.278v57.173c0,27.204,22.054,49.258,49.258,49.258h33.855c16.015,0,28.998,12.983,28.998,28.998v39.952"/>
<path style="fill:#FFFFFF;" d="M461.687,113.023c-7.249-33.425-36.992-58.465-72.587-58.465c-36.392,0-66.667,26.172-73.041,60.719
	c-4.66-1.625-9.663-2.519-14.877-2.519c-24.952,0-45.18,20.228-45.18,45.18s20.228,45.18,45.18,45.18c15.556,0,144.491,0,155.64,0
	c24.952,0,45.18-20.228,45.18-45.18C502.001,134.631,484.35,115.451,461.687,113.023z"/>
<path d="M222.459,423.051h-33.854c-21.647,0-39.258-17.611-39.258-39.258V326.62c0-5.523-4.477-10-10-10H91.223l30.216-108.845
	c0.242-0.871,0.364-1.771,0.364-2.675c0-37.337,11.062-73.317,31.99-104.05c3.108-4.565,1.928-10.786-2.637-13.894
	c-4.563-3.108-10.785-1.929-13.894,2.637c-22.94,33.687-35.185,73.052-35.455,113.928L68.433,323.945
	c-0.835,3.011-0.216,6.239,1.675,8.727c1.891,2.488,4.836,3.948,7.961,3.948h51.278v47.172c0,32.675,26.583,59.258,59.258,59.258
	h33.854c10.476,0,18.999,8.522,18.999,18.998V502c0,5.523,4.477,10,10,10c5.523,0,10-4.477,10-10v-39.952
	C261.458,440.545,243.963,423.051,222.459,423.051z"/>
<path d="M197.385,53.624c1.935,0,3.891-0.561,5.612-1.73c29.817-20.265,64.692-31.285,100.854-31.869
	c20.403-0.325,40.475,2.602,59.656,8.71c5.262,1.679,10.887-1.231,12.563-6.494s-1.231-10.887-6.494-12.563
	c-21.251-6.768-43.469-10.019-66.048-9.65c-40.071,0.647-78.722,12.862-111.773,35.324c-4.567,3.104-5.754,9.324-2.65,13.892
	C191.039,52.091,194.183,53.624,197.385,53.624z"/>
<path d="M498.957,242.97c-5.413-1.11-10.697,2.37-11.811,7.779c-6.545,31.804-19.195,62.328-35.617,85.948
	c-11.645,16.748-17.799,36.408-17.799,56.856V502c0,5.523,4.477,10,10,10s10-4.477,10-10V393.554c0-16.347,4.917-32.06,14.22-45.439
	c17.933-25.792,31.707-58.938,38.786-93.333C507.85,249.371,504.367,244.084,498.957,242.97z"/>
<path d="M512.001,157.939c0-25.871-17.737-47.82-42.269-53.661c-4.849-15.887-14.41-30.18-27.387-40.77
	c-14.975-12.22-33.885-18.95-53.246-18.95c-37.109,0-69.386,24.146-80.336,58.722c-2.504-0.347-5.036-0.521-7.583-0.521
	c-30.426,0-55.18,24.754-55.18,55.18s24.754,55.18,55.18,55.18h22.486c5.523,0,10-4.477,10-10s-4.477-10-10-10H301.18
	c-19.398,0-35.18-15.782-35.18-35.18s15.782-35.18,35.18-35.18c3.954,0,7.852,0.66,11.584,1.961c2.756,0.96,5.794,0.671,8.317-0.796
	c2.523-1.466,4.28-3.961,4.81-6.832c5.616-30.44,32.199-52.534,63.208-52.534c30.041,0,56.458,21.274,62.814,50.584
	c0.914,4.212,4.423,7.365,8.708,7.824c17.89,1.916,31.38,16.951,31.38,34.973c0,19.398-15.782,35.18-35.18,35.18h-27.629
	c-5.523,0-10,4.477-10,10s4.477,10,10,10h27.629C487.247,213.119,512.001,188.365,512.001,157.939z"/>
<path d="M404.105,216.822h-26.177l16.903-48.975c1.802-5.221-0.969-10.914-6.19-12.715c-5.22-1.802-10.914,0.97-12.715,6.19
	l-21.48,62.238c-1.055,3.057-0.567,6.434,1.31,9.067c1.876,2.633,4.91,4.196,8.143,4.196h26.008l-15.32,42.81
	c-1.86,5.2,0.846,10.924,6.046,12.785c1.113,0.398,2.25,0.587,3.369,0.587c4.105,0,7.954-2.547,9.416-6.634l20.104-56.179
	c1.096-3.063,0.633-6.467-1.24-9.127S407.358,216.822,404.105,216.822z"/>
<path d="M170.001,193.12c-2.63,0-5.21,1.07-7.07,2.93c-1.86,1.86-2.93,4.44-2.93,7.07s1.07,5.21,2.93,7.07
	c1.86,1.86,4.44,2.93,7.07,2.93s5.21-1.07,7.07-2.93s2.93-4.44,2.93-7.07s-1.07-5.21-2.93-7.07S172.631,193.12,170.001,193.12z"/>
<path d="M73.251,213.119c5.523,0,10-4.477,10-10s-4.477-10-10-10h-39.12c3.779-3.914,3.744-10.148-0.119-14.011
	c-3.905-3.905-10.237-3.905-14.143,0l-16.94,16.94c-3.905,3.905-3.905,10.237,0,14.143l16.94,16.94
	c1.953,1.953,4.512,2.929,7.071,2.929s5.119-0.976,7.071-2.929c3.863-3.863,3.898-10.097,0.119-14.011h39.121V213.119z"/>
<path d="M396.001,383.551c-2.63,0-5.21,1.07-7.07,2.93c-1.86,1.86-2.93,4.44-2.93,7.07c0,2.64,1.07,5.21,2.93,7.07
	c1.86,1.87,4.44,2.93,7.07,2.93s5.21-1.06,7.07-2.93c1.86-1.86,2.93-4.43,2.93-7.07c0-2.63-1.07-5.21-2.93-7.07
	C401.211,384.62,398.631,383.551,396.001,383.551z"/>
<path d="M396.001,419.001c-5.523,0-10,4.477-10,10v73c0,5.523,4.477,10,10,10s10-4.477,10-10v-73
	C406.001,423.478,401.524,419.001,396.001,419.001z"/>
<circle cx="170.001" cy="66.1" r="10"/>
<g>
</g>
<g>
</g>
<g>
</g>
<g>
</g>
<g>
</g>
<g>
</g>
<g>
</g>
<g>
</g>
<g>
</g>
<g>
</g>
<g>
</g>
<g>
</g>
<g>
</g>
<g>
</g>
<g>
</g>
</svg>
