<?xml version="1.0" encoding="iso-8859-1"?>
<!-- Generator: Adobe Illustrator 19.0.0, SVG Export Plug-In . SVG Version: 6.00 Build 0)  -->
<svg version="1.1" id="Capa_1" xmlns="http://www.w3.org/2000/svg" xmlns:xlink="http://www.w3.org/1999/xlink" x="0px" y="0px"
	 viewBox="0 0 512.001 512.001" style="enable-background:new 0 0 512.001 512.001;" xml:space="preserve">
<path style="fill:#C1EE92;" d="M384.269,40.455L359.742,15.93c-7.308-7.308-18.481-7.982-24.956-1.507l-35.209,35.209
	c-4.351,4.351-12.449,1.829-14.536-4.597c-1.888-5.812-5.229-11.398-9.99-16.159l-1.091-1.091
	c-14.513-14.513-36.703-15.854-49.563-2.993l0,0c-12.86,12.86-11.52,35.05,2.993,49.563l1.091,1.091
	c4.761,4.761,10.347,8.103,16.159,9.99c6.426,2.087,8.949,10.185,4.597,14.536l-35.209,35.209c-6.475,6.475-5.8,17.648,1.507,24.956
	l39.772,39.772c0.001-0.013,0.002-0.029,0.002-0.029l-39.735-39.735l39.736,39.736c4.911,4.91,12.762,3.351,14.085-2.869
	c1.197-5.626,3.886-10.848,8.104-15.066l0.967-0.967c12.86-12.86,35.05-11.52,49.563,2.993l0,0
	c14.513,14.513,15.854,36.703,2.993,49.563l-0.967,0.967c-4.219,4.219-9.441,6.908-15.066,8.104c-5.72,1.217-7.484,7.95-3.93,13.055
	l40.758,40.758c7.308,7.308,18.481,7.982,24.956,1.507l34.407-34.407l0.802-0.802c4.351-4.351,12.449-1.829,14.536,4.597
	c1.888,5.812,5.229,11.398,9.99,16.159l1.091,1.091c14.513,14.513,36.703,15.854,49.563,2.993l0,0
	c12.86-12.86,11.52-35.05-2.993-49.563l-1.091-1.091c-4.761-4.761-10.347-8.103-16.159-9.99c-6.426-2.087-8.949-10.185-4.597-14.536
	l0.802-0.802l34.407-34.407c6.475-6.475,5.8-17.648-1.507-24.956l-24.43-24.43l-14.382-14.382
	c-4.744-4.744-3.485-12.322,2.396-13.962c4.889-1.364,9.407-3.899,13.14-7.632l0.967-0.967c12.86-12.86,11.52-35.05-2.993-49.564
	l0,0c-14.513-14.513-36.703-15.854-49.563-2.993l-0.968,0.966c-3.733,3.733-6.268,8.251-7.632,13.14
	c-1.641,5.881-9.218,7.14-13.962,2.396L384.269,40.455z"/>
<path style="fill:#FED284;" d="M211.581,463.164c4.204-4.204,11.989-2.017,14.355,4.106c1.967,5.09,5.068,9.949,9.281,14.161
	l1.091,1.091c14.513,14.513,36.703,15.854,49.564,2.993l0,0c12.86-12.86,11.52-35.05-2.993-49.563l-1.091-1.091
	c-4.213-4.213-9.072-7.314-14.161-9.281c-6.122-2.366-8.31-10.151-4.106-14.355l34.429-34.429c6.475-6.475,5.8-17.648-1.507-24.956
	l-39.735-39.735c-4.911-4.911-3.351-12.762,2.869-14.085c5.626-1.197,10.848-3.886,15.066-8.104l0.967-0.967
	c12.86-12.86,11.52-35.05-2.993-49.563l0,0c-14.513-14.513-36.703-15.854-49.563-2.993l-0.967,0.967
	c-4.219,4.219-6.908,9.441-8.104,15.066c-1.323,6.22-9.175,7.78-14.085,2.869l-39.735-39.735
	c-7.308-7.308-18.481-7.982-24.956-1.507l-34.429,34.429c-4.204,4.204-2.017,11.989,4.106,14.355
	c5.09,1.967,9.949,5.068,14.161,9.281l1.091,1.091c14.513,14.513,15.854,36.703,2.993,49.563l0,0
	c-12.86,12.86-35.05,11.52-49.564-2.993l-1.091-1.091c-4.213-4.213-7.314-9.072-9.281-14.161c-2.366-6.122-10.151-8.31-14.355-4.106
	l-34.39,34.39c-6.475,6.475-5.8,17.648,1.507,24.956l38.83,38.83l0.905,0.905c4.911,4.911,3.351,12.762-2.869,14.085
	c-5.626,1.197-10.848,3.886-15.066,8.104l-0.967,0.967c-12.86,12.86-11.52,35.05,2.993,49.563l0,0
	c14.513,14.513,36.703,15.854,49.563,2.993l0.967-0.967c4.219-4.219,6.908-9.441,8.104-15.066c1.323-6.22,9.175-7.78,14.085-2.869
	l0.905,0.905l38.83,38.83c7.308,7.308,18.481,7.982,24.956,1.507L211.581,463.164z"/>
<path d="M303.513,344.769l-37.983-37.99c6.136-1.942,11.673-5.283,16.183-9.792l0.966-0.967
	c16.739-16.739,15.396-45.316-2.993-63.706c-8.75-8.749-20.068-13.959-31.87-14.672c-12.264-0.741-23.564,3.408-31.835,11.68
	l-0.966,0.966c-4.512,4.511-7.854,10.05-9.795,16.188l-37.988-37.989c-11.194-11.194-28.732-11.87-39.098-1.507l-34.429,34.43
	c-4.213,4.213-5.965,10.337-4.687,16.38c1.39,6.571,5.973,11.944,12.26,14.373c3.969,1.534,7.568,3.897,10.695,7.024l1.091,1.091
	c5.29,5.29,8.434,12.014,8.851,18.934c0.391,6.464-1.69,12.32-5.858,16.488c-4.168,4.168-10.026,6.254-16.488,5.857
	c-6.92-0.417-13.645-3.561-18.934-8.851l-1.091-1.091c-3.127-3.127-5.49-6.726-7.024-10.694
	c-2.429-6.288-7.802-10.871-14.374-12.261c-6.043-1.278-12.167,0.474-16.381,4.687l-34.39,34.392
	c-10.363,10.364-9.688,27.902,1.507,39.097l37.988,37.989c-6.138,1.942-11.677,5.284-16.188,9.794l-0.967,0.967
	c-16.738,16.739-15.395,45.316,2.994,63.706c9.763,9.762,22.393,14.721,34.602,14.719c10.79,0,21.251-3.874,29.103-11.727
	l0.967-0.966c4.511-4.511,7.852-10.049,9.794-16.189l37.988,37.989c5.264,5.264,12.104,8.4,19.259,8.833
	c0.548,0.033,1.095,0.05,1.64,0.05c6.906,0,13.465-2.641,18.2-7.376l32.747-32.747c2.544,6.186,6.288,11.774,11.137,16.625
	l1.091,1.091c18.389,18.388,46.967,19.731,63.706,2.993c16.739-16.739,15.396-45.317-2.993-63.706l-1.091-1.091
	c-4.85-4.85-10.438-8.593-16.625-11.137l32.786-32.786c5.109-5.109,7.779-12.34,7.326-19.84
	C311.914,356.872,308.777,350.032,303.513,344.769z M290.879,369.725l-34.429,34.429c-4.212,4.213-5.965,10.336-4.687,16.379
	c1.389,6.572,5.972,11.945,12.26,14.375c3.969,1.534,7.568,3.897,10.695,7.025l1.091,1.091c10.591,10.591,11.934,26.48,2.993,35.421
	c-8.94,8.941-24.831,7.598-35.421-2.993l-1.091-1.091c-3.127-3.127-5.491-6.726-7.025-10.694
	c-2.429-6.288-7.803-10.871-14.375-12.26c-6.044-1.278-12.167,0.475-16.379,4.687l-34.39,34.391
	c-1.384,1.384-3.206,1.586-4.492,1.504c-2.239-0.135-4.543-1.233-6.322-3.011l-15.239-15.239l33.186-33.186
	c3.905-3.905,3.905-10.237,0-14.143c-3.905-3.906-10.237-3.905-14.143,0l-33.186,33.186l-10.355-10.355
	c-3.787-3.787-8.775-5.836-13.802-5.836c-1.738,0-3.482,0.246-5.182,0.749c-6.148,1.821-10.617,6.66-11.954,12.945
	c-0.84,3.947-2.655,7.337-5.395,10.077l-0.967,0.966c-8.94,8.941-24.832,7.598-35.421-2.993
	c-10.591-10.591-11.934-26.48-2.994-35.421l0.967-0.967c2.74-2.74,6.13-4.555,10.077-5.395c6.286-1.337,11.125-5.807,12.946-11.956
	c1.958-6.613,0.008-13.886-5.087-18.981l-39.734-39.737c-1.779-1.778-2.876-4.083-3.012-6.322c-0.078-1.285,0.121-3.107,1.504-4.492
	l32.747-32.747c2.544,6.186,6.288,11.774,11.137,16.625l1.091,1.091c18.39,18.389,46.967,19.731,63.707,2.993
	c16.738-16.739,15.396-45.316-2.994-63.706l-1.091-1.091c-4.85-4.85-10.438-8.593-16.625-11.137l32.786-32.786
	c2.524-2.522,7.476-1.832,10.814,1.507l39.736,39.735c5.095,5.096,12.368,7.045,18.982,5.087c6.148-1.82,10.617-6.66,11.955-12.946
	c0.839-3.946,2.654-7.336,5.395-10.076l0.967-0.967c4.168-4.167,10.022-6.247,16.488-5.857c6.92,0.417,13.645,3.561,18.934,8.851
	c10.591,10.592,11.934,26.481,2.993,35.421l-0.966,0.967c-2.74,2.74-6.13,4.555-10.076,5.395
	c-6.286,1.337-11.126,5.806-12.947,11.955c-1.958,6.613-0.009,13.887,5.087,18.983l39.736,39.736
	c1.778,1.778,2.876,4.082,3.011,6.321C292.461,366.518,292.263,368.34,290.879,369.725z"/>
<path d="M195.838,397.83c-2.63,0-5.21,1.07-7.07,2.93c-1.86,1.86-2.93,4.44-2.93,7.07c0,2.63,1.07,5.21,2.93,7.07
	c1.86,1.86,4.43,2.93,7.07,2.93c2.63,0,5.21-1.07,7.07-2.93c1.86-1.86,2.93-4.44,2.93-7.07c0-2.63-1.07-5.21-2.93-7.07
	C201.047,398.9,198.467,397.83,195.838,397.83z"/>
<path d="M408.193,124.065c-2.63,0-5.21,1.07-7.07,2.93c-1.86,1.86-2.93,4.44-2.93,7.07c0,2.63,1.07,5.21,2.93,7.07
	c1.86,1.86,4.44,2.93,7.07,2.93c2.63,0,5.21-1.07,7.07-2.93c1.86-1.86,2.93-4.44,2.93-7.07c0-2.63-1.07-5.21-2.93-7.07
	C413.403,125.135,410.823,124.065,408.193,124.065z"/>
<path d="M490.15,229.831c-5.433-5.433-12.006-9.589-19.072-12.069l33.524-33.524c5.109-5.108,7.779-12.34,7.326-19.84
	c-0.432-7.155-3.569-13.995-8.833-19.259l-37.238-37.244c5.25-2.005,10.024-5.081,13.962-9.02l0.967-0.967
	c16.738-16.739,15.396-45.316-2.994-63.706c-18.388-18.388-46.966-19.731-63.706-2.993l-0.967,0.967
	c-3.939,3.94-7.016,8.715-9.021,13.967L366.813,8.859C355.618-2.336,338.08-3.012,327.715,7.352l-33.524,33.524
	c-2.48-7.066-6.636-13.639-12.069-19.072l-1.091-1.091c-18.389-18.389-46.967-19.731-63.706-2.993
	c-16.738,16.739-15.396,45.317,2.992,63.704l1.093,1.093c5.432,5.432,12.005,9.588,19.072,12.069l-33.525,33.524
	c-10.364,10.364-9.688,27.902,1.51,39.1l39.771,39.741c5.097,5.096,12.373,7.044,18.983,5.087
	c6.148-1.821,10.617-6.661,11.955-12.946c0.839-3.946,2.654-7.336,5.395-10.076l0.967-0.967c4.168-4.168,10.034-6.251,16.488-5.858
	c6.92,0.418,13.644,3.562,18.934,8.852c5.29,5.29,8.433,12.014,8.851,18.934c0.391,6.465-1.69,12.321-5.858,16.489l-0.966,0.966
	c-2.74,2.74-6.13,4.555-10.076,5.395c-6.286,1.337-11.125,5.806-12.946,11.954c-1.958,6.612-0.01,13.884,5.084,18.98l39.699,39.73
	c5.881,5.881,13.512,8.859,20.935,8.859c6.707,0,13.244-2.432,18.164-7.352l33.524-33.524c2.48,7.065,6.636,13.639,12.068,19.071
	l1.092,1.092c18.39,18.389,46.967,19.731,63.706,2.993c16.738-16.739,15.396-45.317-2.993-63.706L490.15,229.831z M480.091,280.485
	c-8.94,8.941-24.831,7.598-35.421-2.993l-1.091-1.091c-3.484-3.483-6.095-7.694-7.55-12.177
	c-2.115-6.512-7.567-11.551-14.229-13.151c-6.219-1.493-12.533,0.215-16.889,4.571l-35.209,35.209
	c-1.385,1.384-3.209,1.584-4.492,1.504c-2.239-0.135-4.543-1.233-6.319-3.009l-37.954-37.983c6.139-1.942,11.678-5.284,16.189-9.794
	l0.966-0.967c8.272-8.272,12.42-19.579,11.68-31.835c-0.713-11.803-5.923-23.122-14.672-31.87
	c-8.749-8.749-20.067-13.96-31.87-14.673c-12.262-0.736-23.564,3.408-31.835,11.679l-0.967,0.967
	c-4.511,4.512-7.853,10.051-9.794,16.189l-38.026-37.997c-1.779-1.778-2.876-4.083-3.012-6.322
	c-0.078-1.285,0.121-3.108,1.504-4.492l35.21-35.209c4.356-4.356,6.064-10.67,4.571-16.89c-1.601-6.662-6.64-12.114-13.151-14.228
	c-4.482-1.456-8.693-4.067-12.175-7.549l-1.093-1.093c-10.591-10.591-11.934-26.48-2.993-35.421
	c8.939-8.941,24.831-7.599,35.421,2.993l1.091,1.091c3.484,3.483,6.095,7.694,7.551,12.177c2.115,6.512,7.567,11.551,14.229,13.15
	c6.219,1.493,12.533-0.216,16.889-4.571l35.208-35.209c2.524-2.521,7.475-1.832,10.814,1.507l38.854,38.855
	c4.925,4.925,11.995,6.934,18.448,5.238c5.989-1.572,10.557-6.065,12.217-12.018c0.947-3.392,2.653-6.338,5.071-8.756l0.967-0.967
	c8.939-8.941,24.831-7.599,35.421,2.993c10.591,10.591,11.934,26.48,2.993,35.421l-0.967,0.967
	c-2.418,2.419-5.364,4.125-8.755,5.071c-5.953,1.661-10.446,6.228-12.018,12.217c-1.694,6.454,0.313,13.523,5.238,18.449
	l38.811,38.811c1.779,1.778,2.876,4.083,3.012,6.322c0.078,1.285-0.121,3.108-1.505,4.492l-16.048,16.048L441.271,153
	c-3.906-3.905-10.237-3.905-14.142,0c-3.905,3.905-3.906,10.237,0,14.142l33.14,33.141l-5.02,5.02
	c-4.355,4.356-6.064,10.67-4.571,16.889c1.6,6.662,6.639,12.114,13.15,14.229c4.483,1.456,8.693,4.067,12.177,7.551l1.091,1.091
	C487.69,255.655,489.032,271.546,480.091,280.485z"/>
<g>
</g>
<g>
</g>
<g>
</g>
<g>
</g>
<g>
</g>
<g>
</g>
<g>
</g>
<g>
</g>
<g>
</g>
<g>
</g>
<g>
</g>
<g>
</g>
<g>
</g>
<g>
</g>
<g>
</g>
</svg>
