<?xml version="1.0" encoding="iso-8859-1"?>
<!-- Generator: Adobe Illustrator 19.0.0, SVG Export Plug-In . SVG Version: 6.00 Build 0)  -->
<svg version="1.1" id="Capa_1" xmlns="http://www.w3.org/2000/svg" xmlns:xlink="http://www.w3.org/1999/xlink" x="0px" y="0px"
	 viewBox="0 0 512 512" style="enable-background:new 0 0 512 512;" xml:space="preserve">
<path style="fill:#63E4DC;" d="M237.469,491.58L364.35,301.259c2.653-3.979,8.5-3.979,11.153,0l126.781,190.172
	c3.012,4.518-0.227,10.569-5.656,10.569H243.045C237.692,502,234.5,496.034,237.469,491.58z"/>
<path style="fill:#92ECE7;" d="M11.695,486.453L201.01,202.481c3.958-5.937,12.683-5.937,16.641,0L417.33,502H20.016
	C12.029,502,7.265,493.099,11.695,486.453z"/>
<polygon style="fill:#FEC96B;" points="437.999,154 207.999,154 207.999,10 437.999,10 412.332,82 "/>
<path style="fill:#67E5DD;" d="M328.962,101.295h-23.669c-22.184,0-40.168,17.984-40.168,40.168V154H369.13v-12.537
	C369.13,119.279,351.146,101.295,328.962,101.295z"/>
<path style="fill:#FFF3DD;" d="M317.128,53.295L317.128,53.295c-12.15,0-22,9.85-22,22v4c0,12.15,9.85,22,22,22l0,0
	c12.15,0,22-9.85,22-22v-4C339.127,63.145,329.278,53.295,317.128,53.295z"/>
<path d="M370.619,290.741c-6.174,0-11.905,3.067-15.329,8.204l-11.814,17.721c-3.064,4.595-1.822,10.804,2.773,13.867
	c4.596,3.065,10.804,1.823,13.867-2.773l10.503-15.754l22.883,34.324c1.927,2.891,5.098,4.454,8.33,4.454
	c1.906,0,3.833-0.544,5.538-1.681c4.595-3.063,5.837-9.272,2.773-13.867l-24.194-36.292
	C382.525,293.808,376.794,290.741,370.619,290.741z"/>
<path d="M416.039,365.63c-1.87,1.86-2.93,4.44-2.93,7.08c0,2.63,1.06,5.21,2.93,7.07c1.86,1.86,4.44,2.93,7.07,2.93
	s5.21-1.07,7.07-2.93c1.86-1.87,2.93-4.44,2.93-7.07c0-2.64-1.07-5.21-2.93-7.08c-1.86-1.86-4.44-2.92-7.07-2.92
	C420.468,362.71,417.899,363.77,416.039,365.63z"/>
<path d="M508.892,483.358l-56.418-84.672c-3.062-4.595-9.27-5.84-13.867-2.777c-4.596,3.063-5.839,9.271-2.777,13.867L490.617,492
	h-67.935l-196.71-295.066c-2.024-3.035-4.792-5.398-7.973-6.927c0-0.002,0-0.004,0-0.006v-26h220c3.251,0,6.299-1.58,8.172-4.237
	c1.874-2.657,2.339-6.058,1.247-9.121L422.948,82l24.47-68.642c1.092-3.063,0.626-6.464-1.247-9.121
	C444.298,1.58,441.25,0,437.999,0h-230c-5.523,0-10,4.477-10,10v180c0,0.5,0.049,0.989,0.12,1.469
	c-2.114,1.432-3.967,3.271-5.429,5.465L3.375,480.906l0,0c-4.099,6.149-4.479,14.016-0.992,20.531
	C5.869,507.953,12.626,512,20.015,512H493.56c6.807,0,13.032-3.729,16.244-9.73C513.017,496.268,512.667,489.021,508.892,483.358z
	 M275.125,144v-2.537c0-16.635,13.533-30.168,30.168-30.168h23.669c16.635,0,30.168,13.533,30.168,30.168V144H275.125z
	 M329.128,79.295c0,6.617-5.383,12-12,12s-12-5.383-12-12v-4c0-6.617,5.383-12,12-12s12,5.383,12,12V79.295z M402.913,78.642
	c-0.774,2.172-0.774,4.544,0,6.716L423.818,144H379.13v-2.537c0-21.876-14.08-40.514-33.648-47.36
	c2.324-4.431,3.646-9.467,3.646-14.808v-4c0-17.645-14.355-32-32-32s-32,14.355-32,32v4c0,5.341,1.322,10.376,3.646,14.808
	c-19.569,6.846-33.648,25.485-33.648,47.36V144H218V20h205.819L402.913,78.642z M19.985,492.053c0,0,0.008-0.018,0.031-0.053l0,0
	l189.315-283.972l189.316,283.975L19.985,492.053z"/>
<path d="M174.329,312c-2.63,0-5.21,1.07-7.07,2.93s-2.93,4.44-2.93,7.07s1.07,5.21,2.93,7.07s4.44,2.93,7.07,2.93
	s5.21-1.07,7.07-2.93s2.93-4.44,2.93-7.07s-1.07-5.21-2.93-7.07C179.539,313.07,176.959,312,174.329,312z"/>
<path d="M160.374,341.693c-4.595-3.063-10.803-1.822-13.867,2.773l-49.171,73.757c-3.063,4.595-1.822,10.804,2.773,13.867
	c1.705,1.137,3.631,1.681,5.538,1.681c3.231,0,6.403-1.563,8.33-4.454l49.171-73.757
	C166.211,350.965,164.969,344.757,160.374,341.693z"/>
<g>
</g>
<g>
</g>
<g>
</g>
<g>
</g>
<g>
</g>
<g>
</g>
<g>
</g>
<g>
</g>
<g>
</g>
<g>
</g>
<g>
</g>
<g>
</g>
<g>
</g>
<g>
</g>
<g>
</g>
</svg>
