<svg id="Layer_2" enable-background="new 0 0 96 96" height="512" viewBox="0 0 96 96" width="512" xmlns="http://www.w3.org/2000/svg"><path d="m3 3h38v31h-38z" fill="#dfdddc"/><path d="m62 45v-17l-11-19h-10v25h-38v11z" fill="#f2ae40"/><circle cx="84" cy="15" fill="#6ebaed" r="6"/><path d="m87 21h-6c-3.314 0-6 2.686-6 6v5h18v-5c0-3.314-2.686-6-6-6z" fill="#6ebaed"/><path d="m59.68 24h-12.68v-11h6.32z" fill="#ddd"/><path d="m14 69h11v24h-11z" fill="#dfdddc"/><path d="m25 59h16v34h-16z" fill="#ddd"/><path d="m76 93h-35v-21l7-7v7l7-7v7l7-7v7l7-7v7l7-7z" fill="#ef6662"/><path d="m76 76h17v17h-17z" fill="#dfdddc"/><path d="m30 87h6v6h-6z" fill="#9c9b9a"/><path d="m82 88h5v5h-5z" fill="#9c9b9a"/><path d="m7 88c-2.005 0-3.452-1.919-2.901-3.846l2.901-10.154 2.901 10.154c.551 1.927-.896 3.846-2.901 3.846z" fill="#f2ae40"/><path d="m69 72v-23h4v19z" fill="#c9c7c6"/><path d="m3 3h38v10h-38z" fill="#c9c7c6"/><path d="m17 3v18l5-5 5 5v-18z" fill="#f2ae40"/><g fill="#9c9b9a"><circle cx="13" cy="45" r="6"/><circle cx="25" cy="45" r="6"/><circle cx="49" cy="45" r="6"/></g><circle cx="25" cy="45" fill="#c9c7c6" r="2"/><circle cx="49" cy="45" fill="#c9c7c6" r="2"/><circle cx="13" cy="45" fill="#c9c7c6" r="2"/><path d="m3 46h3.08c.488 3.386 3.401 6 6.92 6 2.548 0 4.775-1.373 6-3.413 1.225 2.04 3.452 3.413 6 3.413 3.519 0 6.432-2.614 6.92-6h10.16c.488 3.386 3.401 6 6.92 6s6.432-2.614 6.92-6h6.08c.552 0 1-.447 1-1v-17c0-.176-.046-.349-.135-.501l-11-19c-.178-.309-.508-.499-.865-.499h-9v-5c0-.553-.448-1-1-1h-38c-.552 0-1 .447-1 1v31 11c0 .553.448 1 1 1zm10 4c-2.757 0-5-2.243-5-5s2.243-5 5-5 5 2.243 5 5-2.243 5-5 5zm12 0c-2.757 0-5-2.243-5-5s2.243-5 5-5 5 2.243 5 5-2.243 5-5 5zm24 0c-2.757 0-5-2.243-5-5s2.243-5 5-5 5 2.243 5 5-2.243 5-5 5zm3.739-36 5.211 9h-9.95v-9zm-34.739-10h8v4c0 .553.448 1 1 1s1-.447 1-1v-4h12v5 2h-13c-.552 0-1 .447-1 1v6.586l-3.293-3.293c-.391-.391-1.023-.391-1.414 0l-3.293 3.293zm-14 0h12v7h-12zm0 9h12v8c0 .404.244.77.617.924.374.155.803.069 1.09-.217l4.293-4.293 4.293 4.293c.191.191.447.293.707.293.129 0 .259-.024.383-.076.373-.154.617-.52.617-.924v-8h12v20h-36zm0 22h37c.552 0 1-.447 1-1v-24h8.423l1.158 2h-4.581c-.552 0-1 .447-1 1v11c0 .553.448 1 1 1h12.108l1.892 3.269v15.731h-5.08c-.488-3.386-3.401-6-6.92-6s-6.432 2.614-6.92 6h-10.16c-.488-3.386-3.401-6-6.92-6-2.548 0-4.775 1.373-6 3.413-1.225-2.04-3.452-3.413-6-3.413-3.519 0-6.432 2.614-6.92 6h-2.08z"/><circle cx="7" cy="30" r="1"/><circle cx="11" cy="30" r="1"/><circle cx="15" cy="30" r="1"/><path d="m88.661 20.207c1.432-1.282 2.339-3.139 2.339-5.207 0-3.859-3.14-7-7-7s-7 3.141-7 7c0 2.068.907 3.925 2.339 5.207-3.059.749-5.339 3.507-5.339 6.793v5c0 .553.448 1 1 1h18c.552 0 1-.447 1-1v-5c0-3.286-2.28-6.044-5.339-6.793zm-9.661-5.207c0-2.757 2.243-5 5-5s5 2.243 5 5-2.243 5-5 5-5-2.243-5-5zm13 16h-16v-4c0-2.757 2.243-5 5-5h6c2.757 0 5 2.243 5 5z"/><path d="m25 42c-1.654 0-3 1.346-3 3s1.346 3 3 3 3-1.346 3-3-1.346-3-3-3zm0 4c-.551 0-1-.448-1-1s.449-1 1-1 1 .448 1 1-.449 1-1 1z"/><path d="m49 42c-1.654 0-3 1.346-3 3s1.346 3 3 3 3-1.346 3-3-1.346-3-3-3zm0 4c-.551 0-1-.448-1-1s.449-1 1-1 1 .448 1 1-.449 1-1 1z"/><path d="m13 42c-1.654 0-3 1.346-3 3s1.346 3 3 3 3-1.346 3-3-1.346-3-3-3zm0 4c-.551 0-1-.448-1-1s.449-1 1-1 1 .448 1 1-.449 1-1 1z"/><path d="m45 30h4c.552 0 1-.447 1-1s-.448-1-1-1h-4c-.552 0-1 .447-1 1s.448 1 1 1z"/><path d="m93 75h-17c-.552 0-1 .447-1 1v16h-33v-19.586l5-5v4.586c0 .404.244.77.617.924.374.156.803.069 1.09-.217l5.293-5.293v4.586c0 .404.244.77.617.924.374.156.804.069 1.09-.217l5.293-5.293v4.586c0 .404.244.77.617.924.373.156.803.069 1.09-.217l5.293-5.293v4.586c0 .404.244.77.617.924.374.156.803.069 1.09-.217l3.999-3.999.002-.002 1.292-1.292v4.586c0 .553.448 1 1 1s1-.447 1-1v-7c0-.404-.244-.77-.617-.924-.375-.156-.805-.069-1.09.217l-1.293 1.293v-16.586c0-.553-.448-1-1-1h-4c-.552 0-1 .447-1 1v15.586l-5 5v-4.586c0-.404-.244-.77-.617-.924-.375-.156-.804-.069-1.09.217l-5.293 5.293v-4.586c0-.404-.244-.77-.617-.924-.375-.156-.804-.069-1.09.217l-5.293 5.293v-4.586c0-.404-.244-.77-.617-.924-.375-.156-.804-.069-1.09.217l-7 7c-.187.187-.293.441-.293.707v20h-3v-5c0-.553-.448-1-1-1h-6c-.552 0-1 .447-1 1v5h-3v-23-9h14v7c0 .553.448 1 1 1s1-.447 1-1v-8c0-.553-.448-1-1-1h-16c-.552 0-1 .447-1 1v9h-10c-.552 0-1 .447-1 1v23h-5v-3.132c.872-.222 1.648-.725 2.207-1.466.766-1.016 1.005-2.299.655-3.521l-2.901-10.155c-.122-.43-.515-.726-.961-.726s-.839.296-.961.726l-2.901 10.154c-.35 1.223-.111 2.506.655 3.521.559.742 1.336 1.245 2.207 1.467v3.132h-3c-.552 0-1 .447-1 1s.448 1 1 1h90c.552 0 1-.447 1-1v-17c0-.553-.448-1-1-1zm-23-25h2v17.586l-2 2zm-64.61 36.197c-.385-.51-.504-1.154-.329-1.769l1.939-6.787 1.939 6.788c.175.614.056 1.259-.329 1.769-.769 1.019-2.451 1.019-3.22-.001zm18.61 5.803h-9v-22h9zm11 0h-4v-4h4zm51 0h-3v-3h3zm6 0h-4v-3h1c.552 0 1-.447 1-1s-.448-1-1-1h-9c-.552 0-1 .447-1 1s.448 1 1 1h1v3h-4v-15h15z"/><path d="m46 77h-1c-.552 0-1 .447-1 1s.448 1 1 1h1c.552 0 1-.447 1-1s-.448-1-1-1z"/><path d="m51 77h-1c-.552 0-1 .447-1 1s.448 1 1 1h1c.552 0 1-.447 1-1s-.448-1-1-1z"/><path d="m56 77h-1c-.552 0-1 .447-1 1s.448 1 1 1h1c.552 0 1-.447 1-1s-.448-1-1-1z"/><path d="m61 77h-1c-.552 0-1 .447-1 1s.448 1 1 1h1c.552 0 1-.447 1-1s-.448-1-1-1z"/><path d="m66 77h-1c-.552 0-1 .447-1 1s.448 1 1 1h1c.552 0 1-.447 1-1s-.448-1-1-1z"/><path d="m71 77h-1c-.552 0-1 .447-1 1s.448 1 1 1h1c.552 0 1-.447 1-1s-.448-1-1-1z"/><path d="m46 81h-1c-.552 0-1 .447-1 1s.448 1 1 1h1c.552 0 1-.447 1-1s-.448-1-1-1z"/><path d="m51 81h-1c-.552 0-1 .447-1 1s.448 1 1 1h1c.552 0 1-.447 1-1s-.448-1-1-1z"/><path d="m56 81h-1c-.552 0-1 .447-1 1s.448 1 1 1h1c.552 0 1-.447 1-1s-.448-1-1-1z"/><path d="m61 81h-1c-.552 0-1 .447-1 1s.448 1 1 1h1c.552 0 1-.447 1-1s-.448-1-1-1z"/><path d="m66 81h-1c-.552 0-1 .447-1 1s.448 1 1 1h1c.552 0 1-.447 1-1s-.448-1-1-1z"/><path d="m71 81h-1c-.552 0-1 .447-1 1s.448 1 1 1h1c.552 0 1-.447 1-1s-.448-1-1-1z"/><path d="m46 85h-1c-.552 0-1 .447-1 1s.448 1 1 1h1c.552 0 1-.447 1-1s-.448-1-1-1z"/><path d="m51 85h-1c-.552 0-1 .447-1 1s.448 1 1 1h1c.552 0 1-.447 1-1s-.448-1-1-1z"/><path d="m56 85h-1c-.552 0-1 .447-1 1s.448 1 1 1h1c.552 0 1-.447 1-1s-.448-1-1-1z"/><path d="m31 63h-1c-.552 0-1 .447-1 1s.448 1 1 1h1c.552 0 1-.447 1-1s-.448-1-1-1z"/><path d="m36 63h-1c-.552 0-1 .447-1 1s.448 1 1 1h1c.552 0 1-.447 1-1s-.448-1-1-1z"/><path d="m31 67h-1c-.552 0-1 .447-1 1s.448 1 1 1h1c.552 0 1-.447 1-1s-.448-1-1-1z"/><path d="m36 67h-1c-.552 0-1 .447-1 1s.448 1 1 1h1c.552 0 1-.447 1-1s-.448-1-1-1z"/><path d="m31 71h-1c-.552 0-1 .447-1 1s.448 1 1 1h1c.552 0 1-.447 1-1s-.448-1-1-1z"/><path d="m18 74h3c.552 0 1-.447 1-1s-.448-1-1-1h-3c-.552 0-1 .447-1 1s.448 1 1 1z"/><path d="m18 78h3c.552 0 1-.447 1-1s-.448-1-1-1h-3c-.552 0-1 .447-1 1s.448 1 1 1z"/><path d="m18 82h3c.552 0 1-.447 1-1s-.448-1-1-1h-3c-.552 0-1 .447-1 1s.448 1 1 1z"/><path d="m18 86h3c.552 0 1-.447 1-1s-.448-1-1-1h-3c-.552 0-1 .447-1 1s.448 1 1 1z"/><path d="m18 90h3c.552 0 1-.447 1-1s-.448-1-1-1h-3c-.552 0-1 .447-1 1s.448 1 1 1z"/><path d="m36 71h-1c-.552 0-1 .447-1 1s.448 1 1 1h1c.552 0 1-.447 1-1s-.448-1-1-1z"/><path d="m31 75h-1c-.552 0-1 .447-1 1s.448 1 1 1h1c.552 0 1-.447 1-1s-.448-1-1-1z"/><path d="m36 75h-1c-.552 0-1 .447-1 1s.448 1 1 1h1c.552 0 1-.447 1-1s-.448-1-1-1z"/><path d="m31 79h-1c-.552 0-1 .447-1 1s.448 1 1 1h1c.552 0 1-.447 1-1s-.448-1-1-1z"/><path d="m36 79h-1c-.552 0-1 .447-1 1s.448 1 1 1h1c.552 0 1-.447 1-1s-.448-1-1-1z"/><path d="m61 85h-1c-.552 0-1 .447-1 1s.448 1 1 1h1c.552 0 1-.447 1-1s-.448-1-1-1z"/><path d="m66 85h-1c-.552 0-1 .447-1 1s.448 1 1 1h1c.552 0 1-.447 1-1s-.448-1-1-1z"/><path d="m71 85h-1c-.552 0-1 .447-1 1s.448 1 1 1h1c.552 0 1-.447 1-1s-.448-1-1-1z"/><path d="m80 81h9c.552 0 1-.447 1-1s-.448-1-1-1h-9c-.552 0-1 .447-1 1s.448 1 1 1z"/><path d="m80 85h9c.552 0 1-.447 1-1s-.448-1-1-1h-9c-.552 0-1 .447-1 1s.448 1 1 1z"/><path d="m17 63c-.552 0-1 .447-1 1v1c0 .553.448 1 1 1s1-.447 1-1v-1c0-.553-.448-1-1-1z"/><path d="m18 59c0-.553-.448-1-1-1s-1 .447-1 1v1c0 .553.448 1 1 1s1-.447 1-1z"/><path d="m18 54c0-.553-.448-1-1-1s-1 .447-1 1v1c0 .553.448 1 1 1s1-.447 1-1z"/><path d="m74 14c.552 0 1-.447 1-1s-.448-1-1-1h-1c-.552 0-1 .447-1 1s.448 1 1 1z"/><path d="m69 14c.552 0 1-.447 1-1s-.448-1-1-1h-1c-.552 0-1 .447-1 1s.448 1 1 1z"/><path d="m64 14c.552 0 1-.447 1-1s-.448-1-1-1h-1c-.552 0-1 .447-1 1s.448 1 1 1z"/><path d="m59 14c.552 0 1-.447 1-1s-.448-1-1-1h-1c-.552 0-1 .447-1 1s.448 1 1 1z"/><path d="m84 72c0 .553.448 1 1 1s1-.447 1-1v-1c0-.553-.448-1-1-1s-1 .447-1 1z"/><path d="m84 67c0 .553.448 1 1 1s1-.447 1-1v-1c0-.553-.448-1-1-1s-1 .447-1 1z"/><path d="m84 62c0 .553.448 1 1 1s1-.447 1-1v-1c0-.553-.448-1-1-1s-1 .447-1 1z"/><path d="m84 57c0 .553.448 1 1 1s1-.447 1-1v-1c0-.553-.448-1-1-1s-1 .447-1 1z"/><path d="m84 52c0 .553.448 1 1 1s1-.447 1-1v-1c0-.553-.448-1-1-1s-1 .447-1 1z"/><path d="m84 47c0 .553.448 1 1 1s1-.447 1-1v-1c0-.553-.448-1-1-1s-1 .447-1 1z"/><path d="m84 42c0 .553.448 1 1 1s1-.447 1-1v-1c0-.553-.448-1-1-1s-1 .447-1 1z"/><path d="m85 38c.552 0 1-.447 1-1v-1c0-.553-.448-1-1-1s-1 .447-1 1v1c0 .553.448 1 1 1z"/></svg>