<?xml version="1.0" encoding="iso-8859-1"?>
<!-- Generator: Adobe Illustrator 19.0.0, SVG Export Plug-In . SVG Version: 6.00 Build 0)  -->
<svg version="1.1" id="Layer_1" xmlns="http://www.w3.org/2000/svg" xmlns:xlink="http://www.w3.org/1999/xlink" x="0px" y="0px"
	 viewBox="0 0 512 512" style="enable-background:new 0 0 512 512;" xml:space="preserve">
<polygon style="fill:#605353;" points="503.742,413.232 503.742,457.55 8.258,457.55 8.258,413.232 256,380.2 "/>
<polygon style="fill:#8B7E7F;" points="467.572,334.99 503.742,413.232 8.258,413.232 44.428,334.99 256,301.957 "/>
<path style="fill:#FFD24D;" d="M437.399,54.449H74.601c-16.654,0-30.171,13.495-30.171,30.169v250.368h423.138V84.618
	C467.568,67.944,454.045,54.449,437.399,54.449z"/>
<path d="M256,87.984c-58.854,0-106.734,47.88-106.734,106.734S197.146,301.452,256,301.452c20.676,0,40.737-5.923,58.012-17.128
	c3.826-2.482,4.916-7.595,2.434-11.421c-2.482-3.827-7.595-4.917-11.423-2.434c-14.594,9.465-31.546,14.468-49.025,14.468
	c-49.747,0-90.218-40.471-90.218-90.218S206.253,104.5,256,104.5s90.218,40.471,90.218,90.218v32.878
	c0,7.503-6.104,13.607-13.607,13.607s-13.607-6.104-13.607-13.607v-68.703c0-4.562-3.697-8.258-8.258-8.258
	c-2.749,0-5.178,1.349-6.679,3.416c-11.566-13.649-28.816-22.335-48.064-22.335c-34.739,0-63.002,28.262-63.002,63.002
	s28.262,63.002,63.002,63.002c19.021,0,36.088-8.485,47.649-21.855c3.604,12.602,15.218,21.855,28.96,21.855
	c16.61,0,30.123-13.512,30.123-30.123v-32.878C362.734,135.866,314.854,87.984,256,87.984z M256,241.204
	c-25.632,0-46.486-20.853-46.486-46.486s20.853-46.486,46.486-46.486s46.486,20.853,46.486,46.486S281.632,241.204,256,241.204z"/>
<path d="M280.575,370.139h-49.15c-4.561,0-8.258,3.696-8.258,8.258s3.697,8.258,8.258,8.258h49.15c4.561,0,8.258-3.696,8.258-8.258
	S285.136,370.139,280.575,370.139z"/>
<path d="M511.986,412.951c-0.003-0.113-0.009-0.227-0.018-0.339c-0.018-0.233-0.046-0.462-0.083-0.689
	c-0.013-0.08-0.021-0.161-0.036-0.24c-0.122-0.643-0.319-1.259-0.581-1.839c-0.012-0.025-0.019-0.054-0.031-0.079l-35.411-76.593
	V84.619c0-21.189-17.238-38.428-38.428-38.428H74.601c-21.19,0-38.429,17.238-38.429,38.428v248.551L0.762,409.764
	c-0.012,0.025-0.019,0.054-0.031,0.079c-0.262,0.581-0.459,1.196-0.581,1.839c-0.015,0.08-0.024,0.161-0.036,0.24
	c-0.036,0.228-0.065,0.457-0.083,0.689c-0.009,0.113-0.013,0.226-0.018,0.339C0.011,413.044,0,413.135,0,413.229v44.322
	c0,4.562,3.697,8.258,8.258,8.258h495.484c4.561,0,8.258-3.696,8.258-8.258v-44.322C512,413.135,511.989,413.044,511.986,412.951z
	 M52.69,84.619c0-12.083,9.83-21.911,21.912-21.911H437.4c12.082,0,21.911,9.829,21.911,21.911v242.11H52.69V84.619z
	 M49.711,343.244h412.577l28.538,61.726H21.174L49.711,343.244z M495.484,449.292H16.516v-27.805h478.968V449.292z"/>
<g>
</g>
<g>
</g>
<g>
</g>
<g>
</g>
<g>
</g>
<g>
</g>
<g>
</g>
<g>
</g>
<g>
</g>
<g>
</g>
<g>
</g>
<g>
</g>
<g>
</g>
<g>
</g>
<g>
</g>
</svg>
