<?xml version="1.0" encoding="iso-8859-1"?>
<!-- Generator: Adobe Illustrator 19.0.0, SVG Export Plug-In . SVG Version: 6.00 Build 0)  -->
<svg version="1.1" id="Layer_1" xmlns="http://www.w3.org/2000/svg" xmlns:xlink="http://www.w3.org/1999/xlink" x="0px" y="0px"
	 viewBox="0 0 512 512" style="enable-background:new 0 0 512 512;" xml:space="preserve">
<circle style="fill:#6FC5D6;" cx="256" cy="256" r="247.742"/>
<path style="fill:#FFFFFF;" d="M256,428.252c-94.981,0-172.252-77.272-172.252-172.252S161.019,83.748,256,83.748
	S428.252,161.02,428.252,256S350.981,428.252,256,428.252z"/>
<path style="fill:#F14742;" d="M396.144,115.856l-138.299,101.65c-10.468-0.499-21.101,3.249-29.095,11.243l5.229,49.272
	l49.272,5.229c7.994-7.994,11.742-18.627,11.243-29.095L396.144,115.856z"/>
<path style="fill:#609399;" d="M228.749,228.749c-7.994,7.995-11.742,18.627-11.243,29.096l-101.65,138.299l138.299-101.65
	c10.468,0.499,21.101-3.249,29.095-11.243L228.749,228.749z"/>
<path d="M289.09,289.091L289.09,289.091c8.582-8.582,13.482-20.205,13.697-32.276l100.011-136.068
	c2.416-3.286,2.07-7.845-0.814-10.73c-2.886-2.884-7.447-3.232-10.73-0.814L255.186,209.214
	c-12.07,0.217-23.694,5.116-32.276,13.696c-8.581,8.582-13.48,20.205-13.696,32.276L109.204,391.254
	c-2.416,3.286-2.07,7.845,0.814,10.73c1.6,1.599,3.715,2.418,5.842,2.418c1.709,0,3.424-0.527,4.888-1.604l136.068-100.011
	C268.884,302.57,280.508,297.671,289.09,289.091z M254.549,286.245c-1.904-0.088-3.758,0.472-5.284,1.594l-94.733,69.629
	l69.629-94.733c1.123-1.526,1.685-3.391,1.594-5.284c-0.405-8.51,2.814-16.843,8.833-22.863c5.682-5.68,13.422-8.868,21.429-8.868
	c0.478,0,0.956,0.011,1.435,0.033c1.899,0.092,3.757-0.473,5.284-1.594l94.733-69.629l-69.629,94.733
	c-1.123,1.526-1.685,3.391-1.594,5.284c0.405,8.51-2.814,16.843-8.834,22.863h0.001C271.391,283.43,263.049,286.646,254.549,286.245
	z"/>
<path d="M476.215,247.191h-38.842c-1.514-31.479-11.102-61.909-28.005-88.498c-2.447-3.849-7.551-4.985-11.399-2.539
	c-3.849,2.447-4.986,7.55-2.539,11.399c16.79,26.41,25.665,56.995,25.665,88.446c0,91.035-74.062,165.095-165.095,165.095
	c-31.451,0-62.037-8.876-88.448-25.666c-3.846-2.447-8.953-1.31-11.399,2.539c-2.448,3.848-1.31,8.953,2.539,11.399
	c26.745,17.003,57.376,26.608,89.051,28.036v38.812c0,4.562,3.696,8.258,8.258,8.258c4.562,0,8.258-3.696,8.258-8.258v-38.799
	c44.054-1.982,84.07-19.73,114.529-47.728l11.906,11.906c1.613,1.612,3.727,2.418,5.84,2.418s4.227-0.806,5.84-2.418
	c3.225-3.226,3.225-8.454,0-11.679l-11.936-11.936c27.684-30.484,45.158-70.392,46.999-114.272h38.778
	c4.562,0,8.258-3.696,8.258-8.258S480.777,247.191,476.215,247.191z"/>
<path d="M256,247.191c-4.857,0-8.809,3.952-8.809,8.809c0,4.857,3.952,8.809,8.809,8.809c4.857,0,8.809-3.952,8.809-8.809
	C264.809,251.143,260.857,247.191,256,247.191z"/>
<path d="M437.019,74.981C388.666,26.63,324.38,0,256,0S123.334,26.63,74.981,74.981C26.63,123.334,0,187.62,0,256
	s26.63,132.666,74.981,181.019C123.334,485.371,187.62,512,256,512s132.666-26.629,181.019-74.981
	C485.371,388.666,512,324.38,512,256S485.371,123.334,437.019,74.981z M256,495.484C123.948,495.484,16.516,388.052,16.516,256
	S123.948,16.516,256,16.516S495.484,123.948,495.484,256S388.052,495.484,256,495.484z"/>
<path d="M114.027,355.841c3.849-2.447,4.986-7.55,2.539-11.399C99.778,318.032,90.905,287.45,90.905,256
	c0-91.035,74.062-165.095,165.095-165.095c31.451,0,62.037,8.876,88.448,25.666c3.844,2.445,8.952,1.31,11.399-2.539
	c2.448-3.848,1.31-8.953-2.539-11.399c-26.745-17.003-57.376-26.607-89.051-28.036V35.785c0-4.562-3.696-8.258-8.258-8.258
	c-4.562,0-8.258,3.696-8.258,8.258v38.799c-43.663,1.964-83.365,19.41-113.721,46.98l-11.936-11.936
	c-3.226-3.224-8.454-3.224-11.679,0c-3.225,3.226-3.225,8.454,0,11.679l11.906,11.906c-27.881,30.332-45.603,70.141-47.707,113.979
	h-38.82c-4.562,0-8.258,3.696-8.258,8.258c0,4.562,3.696,8.258,8.258,8.258h38.783c1.34,31.868,10.96,62.696,28.06,89.595
	c1.573,2.475,4.245,3.83,6.976,3.83C111.119,357.132,112.654,356.714,114.027,355.841z"/>
<g>
</g>
<g>
</g>
<g>
</g>
<g>
</g>
<g>
</g>
<g>
</g>
<g>
</g>
<g>
</g>
<g>
</g>
<g>
</g>
<g>
</g>
<g>
</g>
<g>
</g>
<g>
</g>
<g>
</g>
</svg>
