<?xml version="1.0" encoding="iso-8859-1"?>
<!-- Generator: Adobe Illustrator 19.0.0, SVG Export Plug-In . SVG Version: 6.00 Build 0)  -->
<svg version="1.1" id="Layer_1" xmlns="http://www.w3.org/2000/svg" xmlns:xlink="http://www.w3.org/1999/xlink" x="0px" y="0px"
	 viewBox="0 0 512 512" style="enable-background:new 0 0 512 512;" xml:space="preserve">
<g>
	<path style="fill:#6FC5D6;" d="M261.743,79.14H214.32c-3.04,0-5.505,2.464-5.505,5.505v56.082h58.434V84.645
		C267.249,81.604,264.784,79.14,261.743,79.14z"/>
	<path style="fill:#6FC5D6;" d="M357.968,79.14h-47.423c-3.04,0-5.505,2.464-5.505,5.505v56.082h58.434V84.645
		C363.474,81.604,361.01,79.14,357.968,79.14z"/>
</g>
<path style="fill:#F14742;" d="M454.194,79.14H406.77c-3.04,0-5.505,2.464-5.505,5.505v56.082h58.434V84.645
	C459.699,81.604,457.234,79.14,454.194,79.14z"/>
<path style="fill:#463836;" d="M503.742,415.243c0,9.73-7.887,17.617-17.617,17.617H25.875c-9.73,0-17.617-7.887-17.617-17.617
	V136.322c0-9.73,7.887-17.617,17.617-17.617h460.249c9.73,0,17.617,7.887,17.617,17.617V415.243z"/>
<rect x="208.819" y="214.71" style="fill:#C2B8B9;" width="250.88" height="122.142"/>
<g>
	<circle style="fill:#FFFFFF;" cx="273.694" cy="275.786" r="24.773"/>
	<circle style="fill:#FFFFFF;" cx="394.813" cy="275.786" r="24.773"/>
</g>
<path d="M486.125,110.448h-18.168V84.645c0-7.59-6.174-13.763-13.763-13.763H406.77c-7.59,0-13.763,6.174-13.763,13.763v25.803
	h-21.275V84.645c0-7.59-6.174-13.763-13.763-13.763h-47.423c-7.59,0-13.763,6.174-13.763,13.763v25.803h-21.274V84.645
	c0-7.59-6.174-13.763-13.763-13.763h-47.423c-7.59,0-13.763,6.174-13.763,13.763v25.803H25.875C11.608,110.448,0,122.055,0,136.323
	v278.92c0,14.268,11.608,25.875,25.875,25.875h460.249c14.268,0,25.875-11.608,25.875-25.875v-278.92
	C512,122.055,500.392,110.448,486.125,110.448z M409.523,87.398h41.918v23.05h-41.918V87.398z M313.298,87.398h41.918v23.05h-41.918
	V87.398z M217.073,87.398h41.918v23.05h-41.918V87.398z M495.484,415.243c0,5.161-4.198,9.359-9.359,9.359H25.875
	c-5.161,0-9.359-4.198-9.359-9.359v-278.92c0-5.161,4.198-9.359,9.359-9.359h460.249c5.161,0,9.359,4.198,9.359,9.359V415.243z"/>
<path d="M306.729,275.783c0-18.214-14.818-33.031-33.031-33.031c-18.213,0-33.031,14.817-33.031,33.031
	c0,18.214,14.818,33.031,33.031,33.031C291.91,308.814,306.729,293.997,306.729,275.783z M257.183,275.783
	c0-9.107,7.409-16.515,16.515-16.515c9.107,0,16.515,7.409,16.515,16.515s-7.409,16.515-16.515,16.515
	C264.592,292.298,257.183,284.889,257.183,275.783z"/>
<path d="M427.847,275.783c0-18.214-14.818-33.031-33.031-33.031s-33.031,14.817-33.031,33.031c0,18.214,14.818,33.031,33.031,33.031
	C413.029,308.814,427.847,293.997,427.847,275.783z M378.301,275.783c0-9.107,7.409-16.515,16.515-16.515
	c9.107,0,16.515,7.409,16.515,16.515s-7.409,16.515-16.515,16.515C385.71,292.298,378.301,284.889,378.301,275.783z"/>
<path d="M459.699,206.453H208.815c-4.561,0-8.258,3.696-8.258,8.258v122.143c0,4.562,3.697,8.258,8.258,8.258h22.022
	c4.561,0,8.258-3.696,8.258-8.258c0-4.562-3.697-8.258-8.258-8.258h-13.763V222.969h234.368v105.627H263.868
	c-4.561,0-8.258,3.696-8.258,8.258c0,4.562,3.697,8.258,8.258,8.258h195.831c4.561,0,8.258-3.696,8.258-8.258V214.711
	C467.957,210.149,464.26,206.453,459.699,206.453z"/>
<path d="M52.852,374.515c-4.857,0-8.809,3.952-8.809,8.809c0,4.857,3.952,8.809,8.809,8.809s8.809-3.952,8.809-8.809
	C61.66,378.467,57.708,374.515,52.852,374.515z"/>
<path d="M96.895,374.515c-4.857,0-8.809,3.952-8.809,8.809c0,4.857,3.952,8.809,8.809,8.809c4.857,0,8.809-3.952,8.809-8.809
	C105.703,378.467,101.751,374.515,96.895,374.515z"/>
<path d="M140.938,374.515c-4.857,0-8.809,3.952-8.809,8.809c0,4.857,3.952,8.809,8.809,8.809c4.857,0,8.809-3.952,8.809-8.809
	C149.746,378.467,145.794,374.515,140.938,374.515z"/>
<path d="M52.852,330.472c-4.857,0-8.809,3.952-8.809,8.809c0,4.857,3.952,8.809,8.809,8.809s8.809-3.952,8.809-8.809
	C61.66,334.424,57.708,330.472,52.852,330.472z"/>
<path d="M96.895,330.472c-4.857,0-8.809,3.952-8.809,8.809c0,4.857,3.952,8.809,8.809,8.809c4.857,0,8.809-3.952,8.809-8.809
	C105.703,334.424,101.751,330.472,96.895,330.472z"/>
<path d="M140.938,330.472c-4.857,0-8.809,3.952-8.809,8.809c0,4.857,3.952,8.809,8.809,8.809c4.857,0,8.809-3.952,8.809-8.809
	C149.746,334.424,145.794,330.472,140.938,330.472z"/>
<path d="M52.852,286.429c-4.857,0-8.809,3.952-8.809,8.809c0,4.857,3.952,8.809,8.809,8.809s8.809-3.952,8.809-8.809
	C61.66,290.381,57.708,286.429,52.852,286.429z"/>
<path d="M96.895,286.429c-4.857,0-8.809,3.952-8.809,8.809c0,4.857,3.952,8.809,8.809,8.809c4.857,0,8.809-3.952,8.809-8.809
	C105.703,290.381,101.751,286.429,96.895,286.429z"/>
<path d="M140.938,286.429c-4.857,0-8.809,3.952-8.809,8.809c0,4.857,3.952,8.809,8.809,8.809c4.857,0,8.809-3.952,8.809-8.809
	C149.746,290.381,145.794,286.429,140.938,286.429z"/>
<path d="M52.852,242.386c-4.857,0-8.809,3.952-8.809,8.809s3.952,8.809,8.809,8.809s8.809-3.952,8.809-8.809
	S57.708,242.386,52.852,242.386z"/>
<path d="M96.895,242.386c-4.857,0-8.809,3.952-8.809,8.809s3.952,8.809,8.809,8.809c4.857,0,8.809-3.952,8.809-8.809
	S101.751,242.386,96.895,242.386z"/>
<path d="M140.938,242.386c-4.857,0-8.809,3.952-8.809,8.809s3.952,8.809,8.809,8.809c4.857,0,8.809-3.952,8.809-8.809
	S145.794,242.386,140.938,242.386z"/>
<path d="M52.852,198.343c-4.857,0-8.809,3.952-8.809,8.809s3.952,8.809,8.809,8.809s8.809-3.952,8.809-8.809
	S57.708,198.343,52.852,198.343z"/>
<path d="M96.895,198.343c-4.857,0-8.809,3.952-8.809,8.809s3.952,8.809,8.809,8.809c4.857,0,8.809-3.952,8.809-8.809
	S101.751,198.343,96.895,198.343z"/>
<path d="M140.938,198.343c-4.857,0-8.809,3.952-8.809,8.809s3.952,8.809,8.809,8.809c4.857,0,8.809-3.952,8.809-8.809
	S145.794,198.343,140.938,198.343z"/>
<path d="M52.852,154.3c-4.857,0-8.809,3.952-8.809,8.809c0,4.857,3.952,8.809,8.809,8.809s8.809-3.952,8.809-8.809
	C61.66,158.252,57.708,154.3,52.852,154.3z"/>
<path d="M96.895,154.3c-4.857,0-8.809,3.952-8.809,8.809c0,4.857,3.952,8.809,8.809,8.809c4.857,0,8.809-3.952,8.809-8.809
	C105.703,158.252,101.751,154.3,96.895,154.3z"/>
<path d="M140.938,154.3c-4.857,0-8.809,3.952-8.809,8.809c0,4.857,3.952,8.809,8.809,8.809c4.857,0,8.809-3.952,8.809-8.809
	C149.746,158.252,145.794,154.3,140.938,154.3z"/>
<g>
</g>
<g>
</g>
<g>
</g>
<g>
</g>
<g>
</g>
<g>
</g>
<g>
</g>
<g>
</g>
<g>
</g>
<g>
</g>
<g>
</g>
<g>
</g>
<g>
</g>
<g>
</g>
<g>
</g>
</svg>
