<?xml version="1.0" encoding="iso-8859-1"?>
<!-- Generator: Adobe Illustrator 19.0.0, SVG Export Plug-In . SVG Version: 6.00 Build 0)  -->
<svg version="1.1" id="Layer_1" xmlns="http://www.w3.org/2000/svg" xmlns:xlink="http://www.w3.org/1999/xlink" x="0px" y="0px"
	 viewBox="0 0 512 512" style="enable-background:new 0 0 512 512;" xml:space="preserve">
<g>
	<path style="fill:#6FC5D6;" d="M88.492,269.495l-48.56,48.56c-42.353,42.353-42.353,111.658,0,154.012s111.658,42.353,154.012,0
		l48.56-48.56c42.354-42.353,42.354-111.658,0-154.012S130.846,227.141,88.492,269.495z M211.702,392.704l-48.56,48.56
		c-25.477,25.477-66.931,25.477-92.408,0c-25.477-25.477-25.477-66.931,0-92.408l48.56-48.56c25.477-25.477,66.931-25.477,92.408,0
		C237.179,325.774,237.179,367.228,211.702,392.704z"/>
	<path style="fill:#6FC5D6;" d="M318.055,39.933l-48.56,48.56c-42.353,42.353-42.353,111.658,0,154.012s111.659,42.353,154.012,0
		l48.56-48.56c42.353-42.353,42.353-111.658,0-154.012S360.408-2.421,318.055,39.933z M441.264,163.142l-48.56,48.56
		c-25.477,25.477-66.931,25.477-92.408,0s-25.477-66.931,0-92.408l48.56-48.56c25.477-25.477,66.931-25.477,92.408,0
		S466.741,137.667,441.264,163.142z"/>
</g>
<path style="fill:#609399;" d="M354.211,188.59c8.506-8.506,8.505-22.297,0-30.802c-8.506-8.506-22.297-8.506-30.802,0
	c-0.57,0.57-165.209,165.209-165.622,165.622c-8.506,8.506-8.506,22.297,0,30.802c8.505,8.505,22.297,8.506,30.802,0
	C188.984,353.818,353.615,189.187,354.211,188.59z"/>
<path d="M125.071,306.072c7.962-7.962,18.004-13.345,29.041-15.57c4.423-0.891,7.285-5.198,6.394-9.62
	c-0.891-4.421-5.194-7.285-9.62-6.393c-14.2,2.861-27.12,9.788-37.365,20.033l-48.56,48.56c-28.661,28.661-28.661,75.297,0,103.958
	c14.331,14.331,33.154,21.495,51.978,21.495c18.825,0,37.649-7.165,51.979-21.495l48.56-48.56
	c10.243-10.245,17.171-23.165,20.032-37.365c0.891-4.423-1.971-8.73-6.393-9.621c-4.425-0.892-8.73,1.971-9.62,6.394
	c-2.224,11.036-7.608,21.078-15.57,29.041l-48.56,48.56c-11.147,11.147-25.786,16.72-40.429,16.719
	c-14.639-0.001-29.283-5.575-40.428-16.719c-22.291-22.292-22.291-58.565,0-80.857L125.071,306.072z"/>
<path d="M268.531,310.49c-4.36,1.153-6.962,5.624-5.809,9.984c9.191,34.765-0.769,72.032-25.993,97.257l-48.56,48.56
	c-18.942,18.942-44.239,29.373-71.231,29.373s-52.29-10.432-71.23-29.373s-29.372-44.239-29.372-71.23
	c0-26.992,10.432-52.29,29.373-71.231l48.56-48.56c25.225-25.225,62.492-35.184,97.257-25.993c4.358,1.154,8.83-1.448,9.984-5.809
	c1.153-4.36-1.448-8.831-5.809-9.984c-40.366-10.67-83.66,0.913-112.983,30.235l-48.56,48.56C12.131,334.306,0,363.705,0,395.061
	s12.131,60.755,34.157,82.782C56.184,499.869,85.583,512,116.939,512s60.755-12.131,82.782-34.157l48.56-48.56
	c29.322-29.322,40.907-72.614,30.235-112.983C277.362,311.939,272.891,309.336,268.531,310.49z"/>
<path d="M359.99,194.363c11.674-11.677,11.673-30.675-0.002-42.35c-11.677-11.678-30.677-11.678-42.353,0L152.012,317.634
	c-11.677,11.677-11.677,30.676,0,42.353c5.838,5.838,13.507,8.758,21.176,8.758c7.669,0,15.338-2.919,21.176-8.758l1.042-1.042
	C209.398,344.955,359.42,194.933,359.99,194.363z M183.857,347.394l-1.042,1.042c-5.308,5.308-13.944,5.308-19.252,0
	s-5.308-13.944,0-19.252l165.622-165.622c2.654-2.654,6.14-3.98,9.626-3.98c3.486,0,6.972,1.326,9.626,3.98
	c5.308,5.308,5.308,13.944,0,19.252c-0.001,0-0.001,0.001-0.002,0.002C347.864,183.388,197.846,333.405,183.857,347.394z"/>
<path d="M386.928,205.927c-7.961,7.962-18.003,13.345-29.04,15.57c-4.423,0.891-7.285,5.198-6.394,9.62
	c0.781,3.878,4.189,6.556,7.998,6.556c0.535,0,1.078-0.052,1.623-0.162c14.201-2.862,27.121-9.789,37.364-20.033l48.56-48.56
	c13.864-13.864,21.5-32.325,21.5-51.979s-7.635-38.115-21.5-51.978s-32.325-21.5-51.978-21.5c-19.655,0-38.115,7.635-51.979,21.5
	l-48.56,48.56c-10.243,10.242-17.171,23.164-20.033,37.364c-0.891,4.423,1.971,8.73,6.393,9.62c4.427,0.894,8.73-1.971,9.62-6.394
	c2.224-11.037,7.608-21.079,15.57-29.04l48.56-48.56c10.779-10.779,25.137-16.716,40.429-16.716
	c15.291,0,29.649,5.936,40.428,16.716s16.716,25.137,16.716,40.428c0,15.292-5.936,29.65-16.716,40.429L386.928,205.927z"/>
<path d="M477.841,34.157C455.816,12.131,426.416,0,395.061,0s-60.755,12.131-82.782,34.157l-48.56,48.56
	c-29.322,29.322-40.907,72.614-30.235,112.983c1.153,4.36,5.622,6.961,9.984,5.809c4.36-1.153,6.962-5.624,5.809-9.984
	c-9.191-34.765,0.769-72.032,25.993-97.257l48.56-48.56c18.94-18.94,44.237-29.372,71.23-29.372c26.993,0,52.29,10.432,71.23,29.373
	c18.941,18.942,29.373,44.239,29.373,71.23s-10.432,52.29-29.373,71.231l-48.56,48.56c-25.225,25.225-62.492,35.184-97.257,25.993
	c-4.363-1.153-8.831,1.448-9.984,5.809c-1.153,4.36,1.448,8.831,5.809,9.984c9.927,2.625,20.028,3.903,30.058,3.903
	c30.755,0,60.814-12.026,82.925-34.138l48.56-48.56C499.869,177.695,512,148.295,512,116.94S499.868,56.184,477.841,34.157z"/>
<g>
</g>
<g>
</g>
<g>
</g>
<g>
</g>
<g>
</g>
<g>
</g>
<g>
</g>
<g>
</g>
<g>
</g>
<g>
</g>
<g>
</g>
<g>
</g>
<g>
</g>
<g>
</g>
<g>
</g>
</svg>
