<?xml version="1.0" encoding="iso-8859-1"?>
<!-- Generator: Adobe Illustrator 19.0.0, SVG Export Plug-In . SVG Version: 6.00 Build 0)  -->
<svg version="1.1" id="Layer_1" xmlns="http://www.w3.org/2000/svg" xmlns:xlink="http://www.w3.org/1999/xlink" x="0px" y="0px"
	 viewBox="0 0 512 512" style="enable-background:new 0 0 512 512;" xml:space="preserve">
<path style="fill:#1B4145;" d="M334.769,137.922c93.225,0,168.791,60.018,168.791,134.052c0,52.863-38.533,98.573-94.507,120.398
	c-3.905,25.36,3.808,52.19,23.162,71.728c-37.146,0-68.533-24.8-78.858-58.886c-6.105,0.531-12.305,0.812-18.587,0.812
	c-93.218,0-168.791-60.018-168.791-134.052C165.978,197.94,241.553,137.922,334.769,137.922z"/>
<path style="fill:#FFD24D;" d="M177.231,47.9C84.006,47.9,8.44,107.918,8.44,181.952c0,52.863,38.533,98.573,94.507,120.398
	c3.905,25.36-3.808,52.19-23.162,71.728c37.146,0,68.533-24.8,78.858-58.886c6.105,0.531,12.305,0.812,18.587,0.812
	c93.218,0,168.791-60.018,168.791-134.052C346.022,107.918,270.447,47.9,177.231,47.9z"/>
<path d="M472.578,182.298c-24.637-24.45-59.101-41.861-97.044-49.028c-4.579-0.862-8.994,2.147-9.86,6.727
	c-0.865,4.58,2.146,8.994,6.727,9.86c72.255,13.647,122.719,63.864,122.719,122.117c0,47.977-34.154,91.098-89.133,112.534
	c-2.806,1.095-4.817,3.602-5.275,6.579c-3.335,21.662,1.218,43.707,12.343,62.071c-24.292-6.488-43.969-25.131-51.622-50.392
	c-1.157-3.819-4.841-6.313-8.808-5.961c-5.961,0.518-11.968,0.781-17.857,0.781c-52.504,0-101.788-20.255-131.834-54.183
	c-3.089-3.49-8.423-3.814-11.913-0.724c-3.489,3.09-3.814,8.424-0.724,11.913c33.2,37.49,87.209,59.872,144.471,59.872
	c4.206,0,8.467-0.124,12.73-0.369c6.118,15.78,16.643,29.829,30.126,40.064c15.838,12.024,34.716,18.378,54.589,18.378
	c3.406,0,6.478-2.048,7.789-5.192c1.311-3.144,0.603-6.767-1.794-9.188c-15.563-15.71-23.378-37.781-21.386-59.83
	c27.254-11.442,50.363-28.394,67.06-49.242C502.278,326.122,512,299.458,512,271.974C512,239.376,498,207.528,472.578,182.298z"/>
<path d="M354.462,181.952c0-38.434-18.691-74.444-52.63-101.397c-33.368-26.5-77.619-41.094-124.601-41.094
	c-46.985,0-91.237,14.594-124.603,41.094C18.69,107.508,0,143.518,0,181.952c0,27.484,9.722,54.149,28.115,77.114
	c16.697,20.847,39.807,37.8,67.06,49.242c1.992,22.049-5.823,44.12-21.386,59.83c-2.397,2.419-3.105,6.044-1.794,9.188
	c1.311,3.144,4.384,5.192,7.789,5.192c19.875,0,38.751-6.354,54.589-18.378c13.483-10.234,24.008-24.285,30.126-40.064
	c4.264,0.245,8.524,0.369,12.73,0.369c46.982,0,91.234-14.594,124.601-41.094C335.771,256.396,354.462,220.386,354.462,181.952z
	 M159.374,306.783c-3.979-0.348-7.651,2.14-8.808,5.961c-7.653,25.26-27.328,43.903-51.622,50.391
	c11.126-18.363,15.678-40.41,12.343-62.071c-0.458-2.977-2.469-5.485-5.275-6.579c-54.979-21.434-89.133-64.555-89.133-112.532
	c0-69.263,71.933-125.612,160.352-125.612s160.352,56.349,160.352,125.612s-71.933,125.612-160.352,125.612
	C171.342,307.564,165.334,307.302,159.374,306.783z"/>
<g>
</g>
<g>
</g>
<g>
</g>
<g>
</g>
<g>
</g>
<g>
</g>
<g>
</g>
<g>
</g>
<g>
</g>
<g>
</g>
<g>
</g>
<g>
</g>
<g>
</g>
<g>
</g>
<g>
</g>
</svg>
