<?xml version="1.0" encoding="iso-8859-1"?>
<!-- Generator: Adobe Illustrator 19.0.0, SVG Export Plug-In . SVG Version: 6.00 Build 0)  -->
<svg version="1.1" id="Layer_1" xmlns="http://www.w3.org/2000/svg" xmlns:xlink="http://www.w3.org/1999/xlink" x="0px" y="0px"
	 viewBox="0 0 512.001 512.001" style="enable-background:new 0 0 512.001 512.001;" xml:space="preserve">
<path style="fill:#FFF1CD;" d="M384.266,83.92H59.562c-4.949,0-8.963,4.013-8.963,8.963v44.896L8.258,158.948l42.341,21.171v44.895
	c0,4.95,4.012,8.964,8.963,8.964h324.705c4.95,0,8.963-4.013,8.963-8.964V92.882C393.228,87.932,389.216,83.92,384.266,83.92z"/>
<path style="fill:#B4E5EA;" d="M503.742,353.052l-42.341-21.17v-44.896c0-4.949-4.012-8.963-8.963-8.963H127.734
	c-4.95,0-8.963,4.013-8.963,8.963v132.133c0,4.95,4.012,8.964,8.963,8.964h324.705c4.949,0,8.963-4.013,8.963-8.964v-44.895
	L503.742,353.052z"/>
<path d="M401.487,225.015V92.882c0-9.496-7.726-17.221-17.222-17.221H59.562c-9.496,0-17.221,7.725-17.221,17.221v39.793
	L4.565,151.562C1.767,152.962,0,155.821,0,158.948s1.766,5.988,4.565,7.386l37.777,18.888v39.793
	c0,9.496,7.725,17.222,17.221,17.222h324.704C393.761,242.237,401.487,234.511,401.487,225.015z M58.857,225.015V180.12
	c0-3.128-1.767-5.988-4.565-7.386l-27.569-13.785l27.569-13.784c2.797-1.399,4.565-4.258,4.565-7.386V92.882
	c0-0.389,0.316-0.705,0.705-0.705h324.704c0.39,0,0.706,0.316,0.706,0.705v132.133c0,0.39-0.316,0.706-0.706,0.706H59.562
	C59.173,225.721,58.857,225.405,58.857,225.015z"/>
<path d="M340.283,366.132H164.1c-4.562,0-8.258,3.696-8.258,8.258s3.696,8.258,8.258,8.258h176.183c4.562,0,8.258-3.696,8.258-8.258
	S344.844,366.132,340.283,366.132z"/>
<path d="M417.358,323.455H164.1c-4.562,0-8.258,3.696-8.258,8.258c0,4.562,3.696,8.258,8.258,8.258h253.258
	c4.562,0,8.258-3.696,8.258-8.258C425.616,327.151,421.919,323.455,417.358,323.455z"/>
<path d="M507.435,345.665l-37.777-18.888v-39.793c0-9.496-7.725-17.221-17.221-17.221H127.735c-9.496,0-17.221,7.725-17.221,17.221
	v132.133c0,9.496,7.725,17.222,17.221,17.222h324.704c9.496,0,17.221-7.726,17.221-17.222v-39.793l37.777-18.888
	c2.797-1.399,4.565-4.258,4.565-7.386C512.001,349.923,510.233,347.064,507.435,345.665z M457.707,366.836
	c-2.797,1.399-4.565,4.258-4.565,7.386v44.895c0,0.39-0.316,0.706-0.705,0.706H127.735c-0.389,0-0.705-0.316-0.705-0.706V286.985
	c0-0.389,0.316-0.705,0.705-0.705h324.704c0.389,0,0.705,0.316,0.705,0.705v44.896c0,3.128,1.767,5.988,4.565,7.386l27.569,13.784
	L457.707,366.836z"/>
<path d="M272.111,172.03H94.405c-4.562,0-8.258,3.696-8.258,8.258c0,4.562,3.696,8.258,8.258,8.258h177.706
	c4.562,0,8.258-3.696,8.258-8.258C280.369,175.727,276.672,172.03,272.111,172.03z"/>
<path d="M349.186,129.353H94.405c-4.562,0-8.258,3.696-8.258,8.258c0,4.562,3.696,8.258,8.258,8.258h254.781
	c4.562,0,8.258-3.696,8.258-8.258C357.444,133.049,353.747,129.353,349.186,129.353z"/>
<g>
</g>
<g>
</g>
<g>
</g>
<g>
</g>
<g>
</g>
<g>
</g>
<g>
</g>
<g>
</g>
<g>
</g>
<g>
</g>
<g>
</g>
<g>
</g>
<g>
</g>
<g>
</g>
<g>
</g>
</svg>
