<?xml version="1.0" encoding="iso-8859-1"?>
<!-- Generator: Adobe Illustrator 19.0.0, SVG Export Plug-In . SVG Version: 6.00 Build 0)  -->
<svg version="1.1" id="Layer_1" xmlns="http://www.w3.org/2000/svg" xmlns:xlink="http://www.w3.org/1999/xlink" x="0px" y="0px"
	 viewBox="0 0 512 512" style="enable-background:new 0 0 512 512;" xml:space="preserve">
<rect x="143.514" y="8.258" style="fill:#1B4145;" width="224.972" height="353.148"/>
<g>
	<circle style="fill:#6FC5D6;" cx="256" cy="287.182" r="19.739"/>
	<path style="fill:#6FC5D6;" d="M325.918,463.002H186.082c-3.04,0-5.505,2.464-5.505,5.505v29.729c0,3.04,2.465,5.505,5.505,5.505
		h139.837c3.04,0,5.505-2.465,5.505-5.505v-29.729C331.424,465.466,328.958,463.002,325.918,463.002z"/>
</g>
<path d="M256,259.189c-15.438,0-27.997,12.559-27.997,27.997s12.559,27.997,27.997,27.997s27.997-12.559,27.997-27.997
	S271.438,259.189,256,259.189z M256,298.666c-6.331,0-11.481-5.151-11.481-11.481c0-6.33,5.15-11.481,11.481-11.481
	s11.481,5.151,11.481,11.481C267.481,293.515,262.331,298.666,256,298.666z"/>
<path d="M264.809,234.333c0-4.857-3.952-8.809-8.809-8.809c-4.857,0-8.809,3.952-8.809,8.809s3.952,8.809,8.809,8.809
	C260.857,243.142,264.809,239.19,264.809,234.333z"/>
<path d="M143.515,369.667h224.968c4.561,0,8.258-3.696,8.258-8.258V8.258c0-4.562-3.697-8.258-8.258-8.258H143.515
	c-4.561,0-8.258,3.696-8.258,8.258v353.151C135.257,365.971,138.955,369.667,143.515,369.667z M151.773,16.516h208.452v336.635
	H151.773V16.516z"/>
<path d="M321.287,54.486H190.713c-4.561,0-8.258,3.696-8.258,8.258s3.697,8.258,8.258,8.258h130.575
	c4.561,0,8.258-3.696,8.258-8.258S325.849,54.486,321.287,54.486z"/>
<path d="M321.287,163.457H190.713c-4.561,0-8.258,3.696-8.258,8.258s3.697,8.258,8.258,8.258h130.575
	c4.561,0,8.258-3.696,8.258-8.258S325.849,163.457,321.287,163.457z"/>
<path d="M321.287,108.971H190.713c-4.561,0-8.258,3.696-8.258,8.258s3.697,8.258,8.258,8.258h130.575
	c4.561,0,8.258-3.696,8.258-8.258S325.849,108.971,321.287,108.971z"/>
<path d="M503.742,475.114h-164.06v-6.606c0-7.59-6.174-13.763-13.763-13.763h-61.66v-71.313c0-4.562-3.697-8.258-8.258-8.258
	c-4.561,0-8.258,3.696-8.258,8.258v71.313h-61.66c-7.59,0-13.763,6.174-13.763,13.763v6.606H8.258c-4.561,0-8.258,3.696-8.258,8.258
	c0,4.562,3.697,8.258,8.258,8.258h164.06v6.606c0,7.59,6.174,13.763,13.763,13.763h139.837c7.59,0,13.763-6.174,13.763-13.763
	v-6.606h164.06c4.561,0,8.258-3.696,8.258-8.258C512,478.81,508.303,475.114,503.742,475.114z M323.166,495.484H188.834V471.26
	h134.331V495.484z"/>
<g>
</g>
<g>
</g>
<g>
</g>
<g>
</g>
<g>
</g>
<g>
</g>
<g>
</g>
<g>
</g>
<g>
</g>
<g>
</g>
<g>
</g>
<g>
</g>
<g>
</g>
<g>
</g>
<g>
</g>
</svg>
