<?xml version="1.0" encoding="iso-8859-1"?>
<!-- Generator: Adobe Illustrator 19.0.0, SVG Export Plug-In . SVG Version: 6.00 Build 0)  -->
<svg version="1.1" id="Layer_1" xmlns="http://www.w3.org/2000/svg" xmlns:xlink="http://www.w3.org/1999/xlink" x="0px" y="0px"
	 viewBox="0 0 512 512" style="enable-background:new 0 0 512 512;" xml:space="preserve">
<path style="fill:#609399;" d="M8.258,146.991v243.34c0,10.338,8.38,18.718,18.718,18.718h458.047
	c10.338,0,18.718-8.38,18.718-18.718v-243.34L256,113.959L8.258,146.991z"/>
<path style="fill:#ECE7EA;" d="M436.005,199.845h-85.312L256,221.867l-94.692-22.021H77.25c-15.203,0-27.527,12.324-27.527,27.527
	v101.299c0,15.203,12.324,27.527,27.527,27.527h84.057L256,323.166l94.692,33.032h85.312c15.203,0,27.527-12.324,27.527-27.527
	V227.372C463.532,212.169,451.207,199.845,436.005,199.845z"/>
<rect x="8.258" y="102.951" style="fill:#6FC5D6;" width="495.484" height="44.041"/>
<g>
	<path style="fill:#1B4145;" d="M113.411,278.022c0,26.452,21.445,47.897,47.897,47.897l33.032-47.897l-33.032-47.897
		C134.855,230.125,113.411,251.569,113.411,278.022z"/>
	<path style="fill:#1B4145;" d="M350.692,230.125l-33.032,47.897l33.032,47.897c26.452,0,47.897-21.445,47.897-47.897
		S377.145,230.125,350.692,230.125z"/>
</g>
<rect x="161.308" y="199.845" style="fill:#6FC5D6;" width="189.385" height="156.353"/>
<path d="M503.742,160.751c-4.561,0-8.258,3.696-8.258,8.258v221.322c0,5.767-4.693,10.46-10.46,10.46H26.976
	c-5.767,0-10.46-4.693-10.46-10.46V169.01c0-4.562-3.697-8.258-8.258-8.258S0,164.448,0,169.01v221.322
	c0,14.876,12.102,26.976,26.976,26.976h458.047c14.874,0,26.976-12.101,26.976-26.976V169.01
	C512,164.449,508.303,160.751,503.742,160.751z"/>
<path d="M503.742,94.692H8.258C3.697,94.692,0,98.389,0,102.951v44.041c0,4.562,3.697,8.258,8.258,8.258h495.484
	c4.561,0,8.258-3.696,8.258-8.258v-44.041C512,98.389,508.303,94.692,503.742,94.692z M495.484,138.733H16.516v-27.525h478.968
	V138.733z"/>
<path d="M463.531,253.246c4.561,0,8.258-3.696,8.258-8.258v-17.616c0-19.732-16.054-35.785-35.785-35.785H77.25
	c-19.731,0-35.785,16.053-35.785,35.785v101.299c0,19.732,16.054,35.785,35.785,35.785h358.753
	c19.731,0,35.785-16.053,35.785-35.785V278.02c0-4.562-3.697-8.258-8.258-8.258c-4.561,0-8.258,3.696-8.258,8.258v50.651
	c0,10.624-8.645,19.269-19.269,19.269h-77.053v-14.376c27.062-4.007,47.897-27.385,47.897-55.543s-20.835-51.537-47.897-55.543
	v-14.376h77.053c10.624,0,19.269,8.645,19.269,19.269v17.616C455.273,249.55,458.97,253.246,463.531,253.246z M153.049,316.789
	c-17.906-3.811-31.381-19.743-31.381-38.768c0-19.024,13.475-34.957,31.381-38.768V316.789z M57.982,328.671V227.372
	c0-10.624,8.645-19.269,19.269-19.269h75.799v14.376c-27.062,4.007-47.897,27.385-47.897,55.543s20.835,51.537,47.897,55.543v14.376
	H77.25C66.626,347.94,57.982,339.295,57.982,328.671z M390.331,278.022c0,19.024-13.475,34.957-31.381,38.768v-77.536
	C376.856,243.065,390.331,258.997,390.331,278.022z M342.434,347.94H169.566V208.103h172.869V347.94z"/>
<g>
</g>
<g>
</g>
<g>
</g>
<g>
</g>
<g>
</g>
<g>
</g>
<g>
</g>
<g>
</g>
<g>
</g>
<g>
</g>
<g>
</g>
<g>
</g>
<g>
</g>
<g>
</g>
<g>
</g>
</svg>
