<?xml version="1.0" encoding="iso-8859-1"?>
<!-- Generator: Adobe Illustrator 19.0.0, SVG Export Plug-In . SVG Version: 6.00 Build 0)  -->
<svg version="1.1" id="Layer_1" xmlns="http://www.w3.org/2000/svg" xmlns:xlink="http://www.w3.org/1999/xlink" x="0px" y="0px"
	 viewBox="0 0 512 512" style="enable-background:new 0 0 512 512;" xml:space="preserve">
<rect x="193.811" y="267.451" style="fill:#C2B8B9;" width="42.415" height="144.593"/>
<path style="fill:#8B7E7F;" d="M106.54,37.335c-54.28,0-98.282,44.003-98.282,98.283v309.968c0,16.058,13.018,29.077,29.077,29.077
	h138.41c16.059,0,29.077-13.019,29.077-29.077V135.618C204.823,81.339,160.821,37.335,106.54,37.335z"/>
<path style="fill:#C2B8B9;" d="M8.258,135.618c0,54.28,44.002,98.283,98.282,98.283s98.283-44.003,98.283-98.283
	C204.823,135.618,8.258,135.618,8.258,135.618z"/>
<circle style="fill:#1B4145;" cx="106.54" cy="135.619" r="49.432"/>
<circle style="fill:#609399;" cx="106.54" cy="135.619" r="15.415"/>
<rect x="236.225" y="233.901" style="fill:#8B7E7F;" width="267.517" height="211.682"/>
<rect x="269.257" y="266.934" style="fill:#1B4145;" width="201.453" height="145.617"/>
<path style="fill:#FEE191;" d="M171.79,287.26v16.857l-65.25,22.022l-65.25-22.022V287.26c0-10.945,8.875-19.819,19.819-19.819
	h90.861C162.915,267.44,171.79,276.315,171.79,287.26z"/>
<path style="fill:#FFD24D;" d="M171.79,304.117v16.846c0,10.945-8.875,19.819-19.819,19.819H61.11
	c-10.945,0-19.819-8.875-19.819-19.819v-16.846H171.79z"/>
<path d="M35.803,215.287c19.503,17.329,44.625,26.872,70.739,26.872c26.114,0,51.236-9.544,70.74-26.873
	c3.41-3.029,3.717-8.249,0.688-11.658c-3.029-3.411-8.248-3.718-11.658-0.688c-16.478,14.641-37.703,22.703-59.77,22.703
	c-22.066,0-43.291-8.062-59.769-22.702c-3.41-3.03-8.631-2.723-11.658,0.688C32.085,207.038,32.393,212.258,35.803,215.287z"/>
<path d="M106.541,193.308c31.811,0,57.691-25.88,57.691-57.691s-25.88-57.691-57.691-57.691s-57.691,25.88-57.691,57.691
	S74.73,193.308,106.541,193.308z M106.541,94.444c22.703,0,41.175,18.471,41.175,41.175s-18.471,41.175-41.175,41.175
	s-41.175-18.471-41.175-41.175S83.838,94.444,106.541,94.444z"/>
<path d="M106.541,159.291c13.053,0,23.673-10.62,23.673-23.673c0-4.562-3.696-8.258-8.258-8.258s-8.258,3.696-8.258,8.258
	c0,3.946-3.211,7.157-7.157,7.157c-3.946,0-7.157-3.211-7.157-7.157s3.211-7.157,7.157-7.157c4.562,0,8.258-3.696,8.258-8.258
	s-3.696-8.258-8.258-8.258c-13.053,0-23.673,10.62-23.673,23.673S93.487,159.291,106.541,159.291z"/>
<path d="M503.742,225.643H236.227c-4.562,0-8.258,3.696-8.258,8.258v25.286h-14.888V135.618
	c0-58.747-47.793-106.541-106.541-106.541S0,76.87,0,135.618v309.968c0,20.587,16.748,37.336,37.335,37.336h138.41
	c20.587,0,37.336-16.75,37.336-37.336v-25.285h14.888v25.285c0,4.562,3.696,8.258,8.258,8.258h267.515
	c4.562,0,8.258-3.696,8.258-8.258V233.901C512,229.34,508.304,225.643,503.742,225.643z M196.565,445.586
	c0,11.481-9.339,20.82-20.82,20.82H37.335c-11.48,0-20.819-9.339-20.819-20.82V135.618c0-49.64,40.385-90.025,90.025-90.025
	s90.025,40.385,90.025,90.025v309.968H196.565z M495.484,437.328H244.485V321.987c0-4.562-3.696-8.258-8.258-8.258
	c-4.562,0-8.258,3.696-8.258,8.258v81.798h-14.888V275.704h14.888v13.251c0,4.562,3.696,8.258,8.258,8.258
	c4.562,0,8.258-3.696,8.258-8.258v-46.796h250.999V437.328z"/>
<path d="M269.259,420.812h146.397c4.562,0,8.258-3.696,8.258-8.258s-3.696-8.258-8.258-8.258H277.517V275.192h184.934v129.104
	h-13.763c-4.562,0-8.258,3.696-8.258,8.258s3.696,8.258,8.258,8.258h22.022c4.562,0,8.258-3.696,8.258-8.258v-145.62
	c0-4.562-3.696-8.258-8.258-8.258H269.259c-4.562,0-8.258,3.696-8.258,8.258v145.62
	C261.001,417.115,264.697,420.812,269.259,420.812z"/>
<path d="M151.972,259.188H61.11c-15.482,0-28.077,12.595-28.077,28.077v33.698c0,15.482,12.595,28.077,28.077,28.077h90.862
	c15.482,0,28.077-12.595,28.077-28.077v-33.698C180.049,271.783,167.454,259.188,151.972,259.188z M61.11,275.704h90.862
	c6.375,0,11.561,5.186,11.561,11.561v8.592H49.548v-8.592C49.548,280.889,54.734,275.704,61.11,275.704z M151.972,332.525H61.11
	c-6.375,0-11.561-5.186-11.561-11.561v-8.592h113.984v8.592C163.533,327.339,158.348,332.525,151.972,332.525z"/>
<g>
</g>
<g>
</g>
<g>
</g>
<g>
</g>
<g>
</g>
<g>
</g>
<g>
</g>
<g>
</g>
<g>
</g>
<g>
</g>
<g>
</g>
<g>
</g>
<g>
</g>
<g>
</g>
<g>
</g>
</svg>
