<?xml version="1.0" encoding="iso-8859-1"?>
<!-- Generator: Adobe Illustrator 19.0.0, SVG Export Plug-In . SVG Version: 6.00 Build 0)  -->
<svg version="1.1" id="Layer_1" xmlns="http://www.w3.org/2000/svg" xmlns:xlink="http://www.w3.org/1999/xlink" x="0px" y="0px"
	 viewBox="0 0 512 512" style="enable-background:new 0 0 512 512;" xml:space="preserve">
<circle style="fill:#8B7E7F;" cx="251.871" cy="251.871" r="218.861"/>
<circle style="fill:#1B4145;" cx="251.871" cy="251.871" r="141.785"/>
<path style="fill:#C2B8B9;" d="M251.871,4.129C115.047,4.129,4.129,115.047,4.129,251.871s110.918,247.742,247.742,247.742
	s247.742-110.918,247.742-247.742S388.695,4.129,251.871,4.129z M56.309,188.329c10.993-33.834,47.332-52.348,81.165-41.356
	c33.833,10.993,52.348,47.332,41.355,81.166c-10.993,33.834-47.332,52.348-81.165,41.356
	C63.832,258.501,45.316,222.163,56.309,188.329z M220.979,403.976c-20.911,28.781-61.192,35.161-89.972,14.25
	c-28.78-20.909-35.161-61.192-14.25-89.972c20.911-28.781,61.192-35.161,89.972-14.25S241.89,375.196,220.979,403.976z
	 M187.458,110.658c0-35.575,28.838-64.413,64.413-64.413s64.413,28.838,64.413,64.413s-28.838,64.413-64.413,64.413
	S187.458,146.233,187.458,110.658z M372.735,418.226c-28.78,20.909-69.062,14.53-89.972-14.25
	c-20.911-28.78-14.53-69.062,14.25-89.972c28.78-20.909,69.062-14.53,89.972,14.25C407.894,357.034,401.515,397.316,372.735,418.226
	z M406.077,269.495c-33.833,10.992-70.172-7.523-81.165-41.356c-10.993-33.834,7.523-70.172,41.355-81.166
	c33.833-10.992,70.172,7.523,81.165,41.356C458.425,222.163,439.91,258.501,406.077,269.495z"/>
<circle style="fill:#8B7E7F;" cx="251.871" cy="251.871" r="34.684"/>
<path d="M115.777,284.795c1.962,0.161,3.921,0.246,5.87,0.246c30.637,0,59.198-19.546,69.165-50.221
	c5.999-18.462,4.449-38.152-4.364-55.448c-6.205-12.178-15.497-22.126-26.89-29.051c-0.091-0.059-0.186-0.11-0.28-0.165
	c-4.71-2.833-9.767-5.165-15.123-6.906l0,0c-38.107-12.378-79.188,8.549-91.571,46.658s8.548,79.188,46.658,91.571
	c5.281,1.715,10.618,2.779,15.927,3.259C115.371,284.763,115.573,284.784,115.777,284.795z M175.105,229.716
	c-7.486,23.04-28.544,37.952-51.459,38.77c-0.385-4.144-0.601-8.32-0.601-12.486c0-32.658,11.75-63.616,33.222-87.923
	c6.395,4.986,11.676,11.352,15.467,18.791C178.543,200.234,179.74,215.451,175.105,229.716z M68.292,195.009
	c7.703-23.705,29.77-38.806,53.447-38.806c5.736,0,11.57,0.887,17.313,2.753l0,0c0.847,0.275,1.682,0.573,2.509,0.884
	c-22.668,26.903-35.033,60.636-35.033,96.16c0,3.509,0.13,7.026,0.373,10.53c-0.853-0.233-1.706-0.482-2.557-0.759
	C74.897,256.202,58.724,224.459,68.292,195.009z"/>
<path d="M185.377,131.875c7.708,31.851,36.438,55.583,70.623,55.583c34.188,0,62.921-23.738,70.625-55.593
	c0.122-0.396,0.218-0.798,0.277-1.2c1.145-5.114,1.768-10.423,1.768-15.877c0-40.071-32.6-72.671-72.671-72.671
	s-72.671,32.6-72.671,72.671c0,5.453,0.623,10.76,1.767,15.873C185.157,131.068,185.254,131.472,185.377,131.875z M256,170.942
	c-24.24,0-44.94-15.44-52.788-37.002c16.647-7.227,34.37-10.895,52.788-10.895s36.141,3.668,52.788,10.895
	C300.94,155.502,280.241,170.942,256,170.942z M256,58.632c30.964,0,56.155,25.192,56.155,56.155c0,0.883-0.026,1.76-0.067,2.632
	c-17.771-7.222-36.585-10.89-56.088-10.89c-19.503,0-38.317,3.668-56.088,10.891c-0.041-0.873-0.067-1.75-0.067-2.633
	C199.845,83.824,225.036,58.632,256,58.632z"/>
<path d="M298.942,256c0-23.679-19.263-42.942-42.942-42.942c-23.679,0-42.942,19.263-42.942,42.942
	c0,23.679,19.263,42.942,42.942,42.942C279.679,298.942,298.942,279.679,298.942,256z M256,282.426
	c-14.572,0-26.426-11.855-26.426-26.426s11.854-26.426,26.426-26.426s26.426,11.855,26.426,26.426S270.572,282.426,256,282.426z"/>
<path d="M215.712,311.451c-27.652-20.091-64.841-17.78-89.797,3.45c-0.342,0.257-0.664,0.531-0.957,0.831
	c-3.928,3.463-7.549,7.388-10.752,11.797c-11.409,15.704-16.021,34.911-12.984,54.083c3.037,19.172,13.357,36.015,29.062,47.423
	c12.551,9.119,27.34,13.896,42.56,13.896c3.823,0,7.674-0.302,11.523-0.912c19.173-3.037,36.014-13.357,47.423-29.062
	c3.217-4.427,5.84-9.107,7.923-13.935c0.187-0.363,0.349-0.742,0.482-1.136C252.653,367.598,243.355,331.536,215.712,311.451z
	 M173.071,314.108c11.442,0,22.988,3.479,32.933,10.705c19.607,14.246,27.279,38.898,20.961,60.95
	c-35.549-7.955-66.72-30.601-85.393-62.042C150.943,317.406,161.955,314.108,173.071,314.108z M181.782,425.708
	c-14.815,2.349-29.656-1.217-41.792-10.033c-12.135-8.816-20.11-21.831-22.456-36.646c-2.346-14.815,1.217-29.657,10.033-41.791l0,0
	c0.525-0.722,1.077-1.414,1.63-2.104c20.534,32.78,53.326,56.606,90.736,65.931c-0.484,0.737-0.982,1.467-1.505,2.187
	C209.611,415.385,196.597,423.36,181.782,425.708z"/>
<path d="M387.03,315.72c-0.283-0.288-0.593-0.553-0.923-0.802c-24.957-21.247-62.158-23.565-89.819-3.467
	c-27.64,20.083-36.939,56.139-24.486,86.426c0.134,0.402,0.299,0.787,0.49,1.156c2.083,4.825,4.704,9.5,7.919,13.924l0,0
	c11.409,15.705,28.251,26.025,47.424,29.062c3.849,0.611,7.699,0.912,11.523,0.912c15.219-0.001,30.01-4.778,42.56-13.896
	c15.705-11.408,26.025-28.251,29.062-47.423c3.037-19.172-1.575-38.379-12.984-54.083
	C394.589,323.115,390.963,319.186,387.03,315.72z M305.995,324.813c9.946-7.226,21.49-10.705,32.933-10.705
	c11.114,0,22.127,3.297,31.498,9.613c-18.674,31.441-49.843,54.087-85.393,62.041C278.717,363.71,286.389,339.06,305.995,324.813z
	 M394.467,379.028c-2.346,14.815-10.323,27.83-22.456,36.646c-12.135,8.816-26.975,12.378-41.792,10.033
	c-14.815-2.348-27.829-10.323-36.645-22.458l0,0c-0.523-0.72-1.022-1.45-1.505-2.187c37.41-9.324,70.202-33.15,90.737-65.931
	c0.553,0.69,1.104,1.382,1.63,2.104C393.249,349.371,396.813,364.213,394.467,379.028z"/>
<path d="M459.416,189.907c-12.383-38.108-53.465-59.044-91.571-46.658c-5.441,1.768-10.575,4.144-15.347,7.039
	c-0.009,0.007-0.019,0.011-0.028,0.018c-11.407,6.924-20.709,16.878-26.919,29.066c-8.812,17.296-10.362,36.987-4.364,55.448
	c9.968,30.678,38.524,50.221,69.165,50.221c1.936,0,3.879-0.083,5.828-0.241c0.237-0.013,0.472-0.035,0.705-0.069
	c5.293-0.482,10.612-1.544,15.873-3.254l0,0C450.867,269.095,471.799,228.016,459.416,189.907z M407.654,265.77
	c-0.85,0.276-1.703,0.526-2.557,0.76c0.244-3.505,0.373-7.022,0.373-10.53c0-13.341-1.76-26.573-5.23-39.33
	c-1.197-4.4-5.736-6.996-10.137-5.802c-4.401,1.198-6.997,5.736-5.8,10.136c3.086,11.344,4.651,23.118,4.651,34.994
	c0,4.166-0.216,8.342-0.601,12.486c-22.914-0.817-43.973-15.731-51.459-38.77c-4.634-14.266-3.438-29.482,3.373-42.847
	c3.788-7.436,9.065-13.798,15.455-18.782c5.946,6.74,11.212,14.054,15.677,21.835c1.526,2.659,4.309,4.149,7.17,4.149
	c1.394,0,2.807-0.352,4.103-1.097c3.956-2.27,5.323-7.318,3.052-11.273c-4.432-7.723-9.567-15.032-15.306-21.855
	c0.834-0.314,1.677-0.613,2.53-0.891c5.744-1.866,11.576-2.753,17.313-2.753c23.675,0,45.745,15.103,53.447,38.806
	C453.276,224.459,437.103,256.202,407.654,265.77z"/>
<path d="M503.742,495.484c-34.389,0-62.521-27.254-63.959-61.296C486.376,386.17,512,323.058,512,256
	c0-68.38-26.628-132.666-74.981-181.019C388.667,26.63,324.38,0,256,0S123.333,26.63,74.981,74.981C26.628,123.334,0,187.62,0,256
	s26.628,132.666,74.981,181.019C123.333,485.371,187.62,512,256,512c62.855,0,122.24-22.515,168.982-63.703
	c7.766,36.352,40.123,63.703,78.76,63.703c4.561,0,8.258-3.696,8.258-8.258S508.303,495.484,503.742,495.484z M16.516,256
	C16.516,123.948,123.948,16.516,256,16.516S495.484,123.948,495.484,256S388.052,495.484,256,495.484S16.516,388.052,16.516,256z"/>
<g>
</g>
<g>
</g>
<g>
</g>
<g>
</g>
<g>
</g>
<g>
</g>
<g>
</g>
<g>
</g>
<g>
</g>
<g>
</g>
<g>
</g>
<g>
</g>
<g>
</g>
<g>
</g>
<g>
</g>
</svg>
