<?xml version="1.0" encoding="iso-8859-1"?>
<!-- Generator: Adobe Illustrator 19.0.0, SVG Export Plug-In . SVG Version: 6.00 Build 0)  -->
<svg version="1.1" id="Layer_1" xmlns="http://www.w3.org/2000/svg" xmlns:xlink="http://www.w3.org/1999/xlink" x="0px" y="0px"
	 viewBox="0 0 512 512" style="enable-background:new 0 0 512 512;" xml:space="preserve">
<path style="fill:#FAB9A7;" d="M468.686,201.235c19.044,0,34.486,15.431,34.486,34.475s-15.442,34.486-34.486,34.486l-65.913,23.54
	l23.54-92.501L468.686,201.235L468.686,201.235z"/>
<path style="fill:#F99D88;" d="M454.562,270.196c19.044,0,34.486,15.442,34.486,34.486s-15.442,34.486-34.486,34.486h-14.124
	l-37.664,23.54v-92.513L454.562,270.196L454.562,270.196z"/>
<path style="fill:#FAB9A7;" d="M440.438,339.169c19.044,0,34.486,15.431,34.486,34.475c0,19.056-15.442,34.486-34.486,34.486
	h-37.664v-68.961H440.438z"/>
<path style="fill:#F99D88;" d="M426.314,408.13c19.044,0,34.486,15.442,34.486,34.486s-15.442,34.486-34.486,34.486l-23.54-34.486
	L426.314,408.13z"/>
<path style="fill:#FAD4C6;" d="M426.314,408.13v68.973h-35.31c0,0-31.532,0-107.72,0c-45.845,0-86.44-22.387-111.522-56.803h-67.608
	V258.025h67.608c18.538-25.423,45.539-44.444,76.859-52.506c15.595-4.025,32.697-18.032,38.794-27.601
	c20.115-31.544,29.825-68.49,27.648-106.567c-1.083-19.009,13.453-35.31,32.462-36.393c19.021-1.083,35.31,13.453,36.393,32.462
	c2.707,47.292-7.851,93.313-30.167,133.814h72.563L426.314,408.13L426.314,408.13z"/>
<rect x="8.828" y="201.235" style="fill:#1B4145;" width="107.102" height="275.868"/>
<path d="M84.15,435.905c0-5.192-4.224-9.416-9.416-9.416c-5.192,0-9.416,4.224-9.416,9.416c0,5.192,4.224,9.416,9.416,9.416
	C79.926,445.321,84.15,441.097,84.15,435.905z"/>
<path d="M512,235.715c0-23.883-19.429-43.312-43.312-43.312H368.201c18.557-38.844,27.022-81.92,24.534-125.485
	c-0.659-11.55-5.778-22.153-14.411-29.854c-8.633-7.7-19.754-11.579-31.299-10.918c-11.55,0.659-22.151,5.778-29.853,14.411
	c-7.701,8.633-11.578,19.749-10.918,31.299c2.061,36.086-7.026,71.122-26.279,101.317c-4.826,7.569-19.924,20.281-33.552,23.792
	c-31.166,8.027-59.077,26.504-79.06,52.232h-42.605V201.23c0-4.875-3.952-8.828-8.828-8.828H8.828c-4.875,0-8.828,3.952-8.828,8.828
	c0,4.875,3.952,8.828,8.828,8.828h98.275V468.27H8.828c-4.875,0-8.828,3.952-8.828,8.828s3.952,8.828,8.828,8.828H115.93
	c4.875,0,8.828-3.952,8.828-8.828v-47.969h42.608c27.72,35.646,70.715,56.797,115.923,56.797h107.718
	c4.875,0,8.828-3.952,8.828-8.828s-3.952-8.828-8.828-8.828H283.288c-41.1,0-80.123-19.876-104.387-53.168
	c-1.662-2.28-4.313-3.629-7.134-3.629h-47.01V266.855h47.01c2.821,0,5.472-1.349,7.134-3.629
	c17.725-24.322,43.268-41.782,71.926-49.164c17.749-4.572,36.678-19.859,44.034-31.398c21.258-33.34,31.292-72.006,29.018-111.816
	c-0.391-6.842,1.907-13.426,6.468-18.54c4.561-5.114,10.841-8.146,17.683-8.537c6.838-0.388,13.426,1.906,18.54,6.468
	c5.114,4.561,8.146,10.841,8.537,17.683c2.482,43.455-6.725,86.376-26.642,124.478h-18.253c-4.875,0-8.828,3.952-8.828,8.828
	s3.952,8.828,8.828,8.828h23.444c0.028,0,0.056,0,0.085,0h114.947c14.148,0,25.656,11.509,25.656,25.656
	c0,14.146-11.509,25.655-25.656,25.655h-14.124h-28.248c-4.875,0-8.828,3.952-8.828,8.828s3.952,8.828,8.828,8.828h28.248
	c14.148,0,25.656,11.509,25.656,25.656c0,14.147-11.509,25.655-25.656,25.655H440.44h-14.124c-4.875,0-8.828,3.952-8.828,8.828
	c0,4.875,3.952,8.828,8.828,8.828h14.124c14.148,0,25.657,11.509,25.657,25.656c0,14.147-11.509,25.655-25.657,25.655h-14.124
	c-4.875,0-8.828,3.952-8.828,8.828s3.952,8.828,8.828,8.828c14.148,0,25.656,11.509,25.656,25.656
	c0,14.147-11.509,25.655-25.656,25.655c-4.875,0-8.828,3.952-8.828,8.828s3.952,8.828,8.828,8.828
	c23.883,0,43.312-19.429,43.312-43.311c0-11.344-4.384-21.683-11.547-29.413c15.114-6.768,25.671-21.951,25.671-39.553
	c0-11.343-4.384-21.683-11.546-29.414c15.114-6.768,25.671-21.951,25.671-39.553c0-11.343-4.384-21.683-11.546-29.414
	C501.443,268.501,512,253.317,512,235.715z"/>
<g>
</g>
<g>
</g>
<g>
</g>
<g>
</g>
<g>
</g>
<g>
</g>
<g>
</g>
<g>
</g>
<g>
</g>
<g>
</g>
<g>
</g>
<g>
</g>
<g>
</g>
<g>
</g>
<g>
</g>
</svg>
