<?xml version="1.0" encoding="iso-8859-1"?>
<!-- Generator: Adobe Illustrator 19.0.0, SVG Export Plug-In . SVG Version: 6.00 Build 0)  -->
<svg version="1.1" id="Layer_1" xmlns="http://www.w3.org/2000/svg" xmlns:xlink="http://www.w3.org/1999/xlink" x="0px" y="0px"
	 viewBox="0 0 512 512" style="enable-background:new 0 0 512 512;" xml:space="preserve">
<path style="fill:#463836;" d="M458.003,7.284l22.022,146.393l-22.022,146.393c-27.747,0-375.786,0-404.007,0L31.975,153.677
	L53.997,7.284L458.003,7.284L458.003,7.284z"/>
<g>
	<path style="fill:#6FC5D6;" d="M53.997,7.284v292.787c-0.253,0-0.484,0-0.694,0c-24.774,0-45.045-20.271-45.045-45.045V52.329
		c0-24.774,20.271-45.045,45.045-45.045C53.303,7.284,53.997,7.284,53.997,7.284z"/>
	<path style="fill:#6FC5D6;" d="M458.697,7.284c24.774,0,45.045,20.271,45.045,45.045v202.697c0,24.774-20.271,45.045-45.045,45.045
		c-0.198,0-0.429,0-0.694,0V7.284H458.697z"/>
</g>
<g>
	<path style="fill:#F99D88;" d="M352.939,300.071l-24.235,22.022l-24.235-22.022c0-13.389,10.846-24.235,24.235-24.235
		C342.093,275.836,352.939,286.681,352.939,300.071z"/>
	<path style="fill:#F99D88;" d="M304.469,300.071l-24.235,22.022L256,300.071c0-13.389,10.846-24.235,24.235-24.235
		S304.469,286.681,304.469,300.071z"/>
	<path style="fill:#F99D88;" d="M256,300.071l-24.235,22.022l-24.235-22.022c0-13.389,10.846-24.235,24.235-24.235
		C245.154,275.836,256,286.681,256,300.071z"/>
</g>
<path style="fill:#FAD4C6;" d="M207.531,300.071V156.788c0-13.389-10.846-24.235-24.235-24.235s-24.235,10.846-24.235,24.235
	c0,0,0,200.176,0,231.765c0,32.548,15.481,61.374,39.914,79.189v36.974h114.049v-36.974c24.433-17.815,39.914-46.642,39.914-79.189
	c0-36.302,0-88.482,0-88.482L207.531,300.071L207.531,300.071z"/>
<path d="M361.128,153.629c-0.03-0.238-0.065-0.475-0.115-0.706c-0.012-0.057-0.03-0.112-0.043-0.167
	c-0.053-0.222-0.11-0.443-0.179-0.658c-0.022-0.067-0.048-0.131-0.072-0.196c-0.07-0.2-0.146-0.399-0.231-0.592
	c-0.034-0.077-0.074-0.152-0.11-0.229c-0.084-0.175-0.172-0.348-0.268-0.516c-0.05-0.086-0.102-0.17-0.154-0.254
	c-0.094-0.152-0.19-0.301-0.294-0.445c-0.064-0.09-0.13-0.177-0.197-0.264c-0.103-0.134-0.211-0.264-0.323-0.391
	c-0.075-0.086-0.151-0.17-0.23-0.252c-0.119-0.124-0.243-0.244-0.37-0.361c-0.053-0.05-0.1-0.103-0.155-0.152l-23.115-20.281
	c-3.428-3.007-8.647-2.667-11.654,0.761c-3.007,3.428-2.667,8.647,0.761,11.654l6.627,5.815h-90.443
	c-4.562,0-8.258,3.696-8.258,8.258c0,4.562,3.696,8.258,8.258,8.258h90.445l-6.628,5.816c-3.428,3.008-3.769,8.226-0.761,11.654
	c1.632,1.861,3.917,2.812,6.211,2.812c1.934,0,3.876-0.675,5.443-2.05l23.115-20.282c0.055-0.047,0.102-0.102,0.155-0.152
	c0.127-0.117,0.251-0.237,0.37-0.361c0.079-0.083,0.154-0.167,0.23-0.252c0.112-0.128,0.219-0.258,0.323-0.391
	c0.067-0.088,0.134-0.175,0.197-0.264c0.104-0.144,0.2-0.294,0.294-0.445c0.053-0.085,0.106-0.168,0.154-0.254
	c0.096-0.168,0.183-0.341,0.268-0.515c0.036-0.077,0.076-0.152,0.11-0.229c0.086-0.193,0.161-0.391,0.231-0.591
	c0.023-0.066,0.051-0.13,0.072-0.197c0.069-0.215,0.128-0.436,0.179-0.658c0.013-0.056,0.031-0.111,0.043-0.167
	c0.05-0.231,0.085-0.468,0.115-0.706c0.007-0.051,0.018-0.099,0.023-0.15c0.03-0.286,0.046-0.577,0.046-0.872
	c0-0.295-0.017-0.586-0.046-0.872C361.146,153.728,361.134,153.679,361.128,153.629z"/>
<path d="M458.698,0H53.302C23.911,0,0,23.911,0,53.302V256c0,29.391,23.911,53.302,53.302,53.302h71.67
	c4.562,0,8.258-3.696,8.258-8.258s-3.696-8.258-8.258-8.258H62.256V16.516h387.488v276.27h-63.772c-4.562,0-8.258,3.696-8.258,8.258
	s3.696,8.258,8.258,8.258h72.726C488.089,309.302,512,285.391,512,256V53.302C512,23.911,488.089,0,458.698,0z M16.516,256V53.302
	c0-17.692,12.556-32.504,29.224-36.001V292C29.072,288.504,16.516,273.692,16.516,256z M495.484,256
	c0,17.692-12.556,32.504-29.224,36.001v-274.7c16.668,3.498,29.224,18.309,29.224,36.001V256z"/>
<path d="M328.705,266.601c-9.622,0-18.281,4.203-24.236,10.871c-5.955-6.668-14.612-10.871-24.235-10.871
	c-9.622,0-18.281,4.203-24.236,10.871c-5.955-6.668-14.612-10.871-24.236-10.871c-5.804,0-11.256,1.529-15.977,4.205V155.81
	c0-17.916-14.576-32.493-32.494-32.493c-17.916,0-32.493,14.576-32.493,32.493v231.765c0,33.063,14.492,63.181,39.916,83.29v32.877
	c0,4.562,3.696,8.258,8.258,8.258c4.562,0,8.258-3.696,8.258-8.258v-36.974c0-2.638-1.262-5.119-3.395-6.675
	c-23.21-16.916-36.522-43.347-36.522-72.518V155.81c0-8.81,7.167-15.977,15.977-15.977S199.27,147,199.27,155.81v143.284
	c0,4.562,3.696,8.258,8.258,8.258c4.562,0,8.258-3.696,8.258-8.258c0-8.81,7.167-15.977,15.977-15.977
	c8.81,0,15.979,7.167,15.979,15.977c0,4.562,3.696,8.258,8.258,8.258c4.562,0,8.258-3.696,8.258-8.258
	c0-8.81,7.168-15.977,15.978-15.977s15.977,7.167,15.977,15.977c0,4.562,3.696,8.258,8.258,8.258s8.258-3.696,8.258-8.258
	c0-8.81,7.168-15.977,15.978-15.977c8.81,0,15.977,7.167,15.977,15.977v88.481c0,29.171-13.312,55.602-36.522,72.518
	c-2.134,1.555-3.395,4.035-3.395,6.675v36.974c0,4.562,3.696,8.258,8.258,8.258c4.562,0,8.258-3.696,8.258-8.258v-32.877
	c25.424-20.109,39.916-50.226,39.916-83.29v-88.481C361.198,281.177,346.622,266.601,328.705,266.601z"/>
<g>
</g>
<g>
</g>
<g>
</g>
<g>
</g>
<g>
</g>
<g>
</g>
<g>
</g>
<g>
</g>
<g>
</g>
<g>
</g>
<g>
</g>
<g>
</g>
<g>
</g>
<g>
</g>
<g>
</g>
</svg>
