<?xml version="1.0" encoding="iso-8859-1"?>
<!-- Generator: Adobe Illustrator 19.0.0, SVG Export Plug-In . SVG Version: 6.00 Build 0)  -->
<svg version="1.1" id="Layer_1" xmlns="http://www.w3.org/2000/svg" xmlns:xlink="http://www.w3.org/1999/xlink" x="0px" y="0px"
	 viewBox="0 0 512.002 512.002" style="enable-background:new 0 0 512.002 512.002;" xml:space="preserve">
<path style="fill:#463836;" d="M492.566,458.003l-146.393,22.022l-146.393-22.022c0-27.747,0-375.786,0-404.007l146.393-22.022
	l146.393,22.022V458.003z"/>
<g>
	<path style="fill:#6FC5D6;" d="M492.566,53.997H199.779c0-0.253,0-0.484,0-0.694c0-24.774,20.271-45.045,45.045-45.045h202.697
		c24.774,0,45.045,20.271,45.045,45.045V53.997z"/>
	<path style="fill:#6FC5D6;" d="M492.566,458.697c0,24.774-20.271,45.045-45.045,45.045H244.824
		c-24.774,0-45.045-20.271-45.045-45.045c0-0.198,0-0.429,0-0.694h292.787V458.697z"/>
</g>
<g>
	<path style="fill:#F99D88;" d="M363.482,377.43l-32.709-1.565l-1.565-32.709c9.467-9.467,24.805-9.467,34.273,0
		C372.95,352.624,372.95,367.962,363.482,377.43z"/>
	<path style="fill:#F99D88;" d="M329.21,343.157l-32.709-1.565l-1.565-32.709c9.467-9.467,24.805-9.467,34.273,0
		C338.678,318.351,338.677,333.689,329.21,343.157z"/>
	<path style="fill:#F99D88;" d="M294.937,308.884l-32.709-1.565l-1.565-32.709c9.467-9.467,24.805-9.467,34.273,0
		C304.405,284.077,304.404,299.415,294.937,308.884z"/>
</g>
<path style="fill:#FAD4C6;" d="M260.664,274.61L361.98,173.294c9.467-9.467,9.467-24.805,0-34.273
	c-9.467-9.468-24.806-9.467-34.273,0c0,0-141.545,141.545-163.883,163.883c-23.015,23.015-32.451,54.345-27.771,84.219
	L19.436,503.742h161.287l35.974-35.974c29.873,4.68,61.204-4.757,84.219-27.771c25.669-25.669,62.566-62.566,62.566-62.566
	L260.664,274.61z"/>
<path d="M372.772,197.856c-3.88,2.395-5.085,7.483-2.689,11.364c1.561,2.529,4.266,3.922,7.035,3.922
	c1.48,0,2.978-0.397,4.331-1.232c20.019-12.356,31.97-33.761,31.97-57.259c0-37.079-30.165-67.244-67.245-67.244
	c-23.621,0-45.794,12.633-57.863,32.966c-2.328,3.923-1.035,8.988,2.886,11.316c3.923,2.329,8.988,1.036,11.316-2.886
	c9.109-15.347,25.839-24.881,43.66-24.881c27.972,0,50.729,22.757,50.729,50.728C396.901,172.379,387.881,188.531,372.772,197.856z"
	/>
<path d="M447.522,0H244.824c-29.391,0-53.302,23.911-53.302,53.302v166.933c0,4.562,3.696,8.258,8.258,8.258
	c4.562,0,8.258-3.696,8.258-8.258V62.256h276.27v387.488H329.629c-4.562,0-8.258,3.696-8.258,8.258s3.696,8.258,8.258,8.258h153.894
	c-3.498,16.668-18.309,29.224-36.001,29.224H244.824c-4.562,0-8.258,3.696-8.258,8.258s3.696,8.258,8.258,8.258h202.698
	c29.391,0,53.302-23.911,53.302-53.302V53.302C500.824,23.911,476.913,0,447.522,0z M244.824,16.516h202.698
	c17.692,0,32.504,12.556,36.001,29.224h-274.7C212.32,29.072,227.132,16.516,244.824,16.516z"/>
<path d="M369.323,383.272c6.136-6.137,9.518-14.297,9.518-22.976c0-8.68-3.38-16.84-9.518-22.977
	c-6.804-6.804-15.909-9.956-24.824-9.449c0.504-8.924-2.646-18.019-9.449-24.824c-6.137-6.136-14.297-9.518-22.976-9.518
	c-0.619,0-1.234,0.018-1.846,0.052c0.498-8.92-2.651-18.007-9.451-24.807c-4.105-4.104-9.042-6.877-14.272-8.323l81.316-81.315
	c12.669-12.67,12.669-33.283,0-45.952s-33.284-12.669-45.952,0L157.985,297.064c-23.379,23.379-34.427,54.924-30.668,87.12
	L13.597,497.902c-3.225,3.226-3.225,8.454,0,11.679c1.613,1.612,3.726,2.418,5.84,2.418c2.113,0,4.227-0.806,5.84-2.418
	l116.616-116.615c1.865-1.866,2.728-4.512,2.318-7.12c-4.451-28.375,4.827-56.479,25.452-77.104l163.884-163.882
	c6.228-6.23,16.365-6.23,22.594,0c6.23,6.229,6.23,16.364,0,22.594L254.824,268.772c-1.612,1.613-2.418,3.727-2.418,5.84
	c0,2.113,0.806,4.227,2.418,5.84c3.226,3.224,8.454,3.222,11.679,0c6.228-6.229,16.366-6.231,22.595,0
	c6.23,6.229,6.23,16.364,0,22.594c-1.612,1.613-2.418,3.727-2.418,5.84s0.806,4.227,2.418,5.84c3.226,3.224,8.454,3.224,11.679,0
	c6.228-6.23,16.365-6.23,22.594,0c6.23,6.229,6.23,16.364,0,22.594c-1.612,1.613-2.418,3.727-2.418,5.84
	c0,2.113,0.806,4.227,2.418,5.84c3.226,3.224,8.454,3.224,11.679,0c6.228-6.23,16.365-6.23,22.594,0
	c6.23,6.229,6.23,16.365,0,22.595l-62.565,62.565c-20.625,20.626-48.731,29.899-77.103,25.454c-2.608-0.413-5.253,0.453-7.12,2.318
	l-35.972,35.972c-3.225,3.226-3.225,8.454,0,11.679c3.226,3.224,8.454,3.223,11.679,0l33.075-33.076
	c32.19,3.766,63.739-7.288,87.119-30.668L369.323,383.272z"/>
<g>
</g>
<g>
</g>
<g>
</g>
<g>
</g>
<g>
</g>
<g>
</g>
<g>
</g>
<g>
</g>
<g>
</g>
<g>
</g>
<g>
</g>
<g>
</g>
<g>
</g>
<g>
</g>
<g>
</g>
</svg>
