<?xml version="1.0" encoding="iso-8859-1"?>
<!-- Generator: Adobe Illustrator 19.0.0, SVG Export Plug-In . SVG Version: 6.00 Build 0)  -->
<svg version="1.1" id="Layer_1" xmlns="http://www.w3.org/2000/svg" xmlns:xlink="http://www.w3.org/1999/xlink" x="0px" y="0px"
	 viewBox="0 0 511.999 511.999" style="enable-background:new 0 0 511.999 511.999;" xml:space="preserve">
<polygon style="fill:#F14742;" points="456.821,8.258 55.179,8.258 55.179,503.742 256,377.399 456.821,503.742 "/>
<path style="fill:#FFD24D;" d="M384.412,165.504c-0.853-2.628-3.637-5.059-8.238-5.337l-82-5.481l-30.553-76.294
	c-1.686-4.29-4.859-6.186-7.622-6.186c-2.763,0-5.936,1.896-7.622,6.186l-30.553,76.293l-82,5.481
	c-4.601,0.277-7.385,2.709-8.238,5.337c-0.853,2.627-0.031,6.231,3.528,9.16l63.118,52.632l-20.127,79.68
	c-1.158,4.462,0.295,7.862,2.529,9.485s5.917,1.953,9.802-0.526l69.562-43.763l69.562,43.763c3.886,2.48,7.567,2.149,9.802,0.526
	c2.235-1.624,3.688-5.024,2.529-9.485l-20.127-79.68l63.117-52.632C384.444,171.735,385.266,168.13,384.412,165.504z"/>
<path d="M125.828,181.006l59.127,49.305l-18.84,74.59c-1.903,7.329,0.27,14.319,5.668,18.24c2.646,1.922,5.754,2.88,8.981,2.88
	c3.356,0,6.841-1.035,10.07-3.097l29.554-18.593c3.86-2.429,5.021-7.528,2.592-11.388c-2.429-3.861-7.528-5.024-11.387-2.592
	l-29.452,18.529l20.097-79.564c0.778-3.08-0.279-6.331-2.717-8.365l-63.024-52.555l81.879-5.472c3.169-0.211,5.935-2.222,7.115-5.17
	L256,81.574l30.506,76.181c1.18,2.949,3.947,4.958,7.116,5.17l81.88,5.472l-63.026,52.555c-2.439,2.034-3.495,5.285-2.717,8.365
	l20.096,79.564l-69.458-43.699c-2.687-1.689-6.108-1.691-8.795,0l-12.481,7.852c-3.86,2.429-5.021,7.527-2.592,11.388
	c2.429,3.857,7.526,5.02,11.387,2.592l8.083-5.086l65.119,40.969c6.382,4.072,13.699,4.165,19.1,0.246
	c5.397-3.923,7.57-10.912,5.68-18.189l-18.854-74.643l59.086-49.271c5.847-4.811,8.196-11.743,6.135-18.085
	c-2.06-6.349-8.037-10.575-15.543-11.028l-76.817-5.134l-28.6-71.42c-2.769-7.046-8.635-11.424-15.307-11.424
	c-6.674,0-12.539,4.378-15.287,11.374l-28.621,71.47l-76.761,5.131c-7.559,0.456-13.534,4.682-15.596,11.027
	C117.672,169.298,120.023,176.229,125.828,181.006z"/>
<path d="M456.821,0H55.179c-4.561,0-8.258,3.696-8.258,8.258v495.484c0,3.006,1.634,5.775,4.266,7.229
	c2.632,1.452,5.847,1.361,8.39-0.239L256,387.156l196.422,123.576c1.342,0.843,2.868,1.267,4.398,1.267
	c1.373,0,2.748-0.342,3.992-1.03c2.632-1.453,4.266-4.223,4.266-7.229V8.258C465.079,3.696,461.381,0,456.821,0z M448.563,488.79
	L260.398,370.408c-2.688-1.69-6.108-1.689-8.794,0L63.437,488.79V16.516h385.124V488.79H448.563z"/>
<g>
</g>
<g>
</g>
<g>
</g>
<g>
</g>
<g>
</g>
<g>
</g>
<g>
</g>
<g>
</g>
<g>
</g>
<g>
</g>
<g>
</g>
<g>
</g>
<g>
</g>
<g>
</g>
<g>
</g>
</svg>
