<?xml version="1.0" encoding="iso-8859-1"?>
<!-- Generator: Adobe Illustrator 19.0.0, SVG Export Plug-In . SVG Version: 6.00 Build 0)  -->
<svg version="1.1" id="Layer_1" xmlns="http://www.w3.org/2000/svg" xmlns:xlink="http://www.w3.org/1999/xlink" x="0px" y="0px"
	 viewBox="0 0 512 512" style="enable-background:new 0 0 512 512;" xml:space="preserve">
<g>
	<circle style="fill:#FFD24D;" cx="256" cy="81.293" r="73.034"/>
	<path style="fill:#FFD24D;" d="M356.012,231.76v-44.394H155.988v44.394c14.899,0,26.975,12.077,26.975,26.974v173.638
		c0,14.898-12.078,26.975-26.975,26.975v44.394h200.025v-44.393c-14.899,0-26.975-12.078-26.975-26.975v-173.64
		C329.037,243.836,341.114,231.76,356.012,231.76z"/>
</g>
<path d="M256,162.588c44.826,0,81.295-36.469,81.295-81.295S300.826,0,256,0s-81.295,36.468-81.295,81.293
	S211.174,162.588,256,162.588z M256,16.516c35.719,0,64.778,29.06,64.778,64.777c0,35.719-29.06,64.778-64.778,64.778
	s-64.778-29.06-64.778-64.778C191.222,45.576,220.281,16.516,256,16.516z"/>
<path d="M356.013,240.018c4.561,0,8.258-3.696,8.258-8.258v-44.394c0-4.562-3.697-8.258-8.258-8.258H155.987
	c-4.561,0-8.258,3.696-8.258,8.258v44.394c0,4.562,3.697,8.258,8.258,8.258c10.321,0,18.718,8.396,18.718,18.716v22.022
	c0,4.562,3.697,8.258,8.258,8.258c4.561,0,8.258-3.696,8.258-8.258v-22.022c0-16.584-11.519-30.53-26.976-34.254v-28.856h183.508
	v28.856c-15.457,3.726-26.976,17.671-26.976,34.254v173.638c0,16.585,11.519,30.531,26.976,34.257v28.855H164.245V466.63
	c15.457-3.727,26.976-17.672,26.976-34.257V313.788c0-4.562-3.697-8.258-8.258-8.258c-4.561,0-8.258,3.696-8.258,8.258v118.585
	c0,10.321-8.397,18.718-18.718,18.718c-4.561,0-8.258,3.696-8.258,8.258v44.393c0,4.562,3.697,8.258,8.258,8.258h200.025
	c4.561,0,8.258-3.696,8.258-8.258V459.35c0-4.562-3.697-8.258-8.258-8.258c-10.321,0-18.718-8.397-18.718-18.718v-173.64
	C337.295,248.414,345.691,240.018,356.013,240.018z"/>
<g>
</g>
<g>
</g>
<g>
</g>
<g>
</g>
<g>
</g>
<g>
</g>
<g>
</g>
<g>
</g>
<g>
</g>
<g>
</g>
<g>
</g>
<g>
</g>
<g>
</g>
<g>
</g>
<g>
</g>
</svg>
