<?xml version="1.0" encoding="iso-8859-1"?>
<!-- Generator: Adobe Illustrator 19.0.0, SVG Export Plug-In . SVG Version: 6.00 Build 0)  -->
<svg version="1.1" id="Layer_1" xmlns="http://www.w3.org/2000/svg" xmlns:xlink="http://www.w3.org/1999/xlink" x="0px" y="0px"
	 viewBox="0 0 512 512" style="enable-background:new 0 0 512 512;" xml:space="preserve">
<path style="fill:#8B7E7F;" d="M503.742,394.041v47.39c0,9.117-7.399,16.516-16.516,16.516H24.774
	c-9.117,0-16.516-7.399-16.516-16.516v-47.39L256,361.009L503.742,394.041z"/>
<rect x="8.258" y="54.051" style="fill:#463836;" width="495.484" height="339.99"/>
<g>
	<rect x="396.387" y="139.759" style="fill:#609399;" width="41.296" height="84.188"/>
	<rect x="289.032" y="224.156" style="fill:#609399;" width="41.296" height="84.188"/>
</g>
<g>
	<rect x="181.677" y="139.759" style="fill:#F14742;" width="41.296" height="84.188"/>
	<rect x="74.323" y="224.156" style="fill:#F14742;" width="41.296" height="84.188"/>
</g>
<path d="M417.034,237.706c-4.562,0-8.258,3.696-8.258,8.258V349.43c0,4.562,3.696,8.258,8.258,8.258s8.258-3.696,8.258-8.258
	V245.964C425.293,241.403,421.596,237.706,417.034,237.706z"/>
<path d="M396.386,232.201h41.296c4.562,0,8.258-3.696,8.258-8.258v-84.187c0-4.562-3.696-8.258-8.258-8.258h-12.389V97.525
	c0-4.562-3.696-8.258-8.258-8.258s-8.258,3.696-8.258,8.258v33.973h-12.39c-4.562,0-8.258,3.696-8.258,8.258v84.187
	C388.128,228.503,391.824,232.201,396.386,232.201z M404.644,148.014h24.78v67.671h-24.78V148.014z"/>
<path d="M309.679,322.109c-4.562,0-8.258,3.696-8.258,8.258v20.209c0,4.562,3.696,8.258,8.258,8.258s8.258-3.696,8.258-8.258
	v-20.209C317.937,325.805,314.24,322.109,309.679,322.109z"/>
<path d="M289.03,316.604h41.296c4.562,0,8.258-3.696,8.258-8.258v-84.187c0-4.562-3.696-8.258-8.258-8.258h-12.389V98.671
	c0-4.562-3.696-8.258-8.258-8.258s-8.258,3.696-8.258,8.258V215.9h-12.39c-4.562,0-8.258,3.696-8.258,8.258v84.187
	C280.772,312.907,284.468,316.604,289.03,316.604z M297.288,232.417h24.78v67.671h-24.78V232.417z"/>
<path d="M202.323,237.706c-4.561,0-8.258,3.696-8.258,8.258V349.43c0,4.562,3.697,8.258,8.258,8.258s8.258-3.696,8.258-8.258
	V245.964C210.581,241.403,206.883,237.706,202.323,237.706z"/>
<path d="M181.674,232.201h41.296c4.561,0,8.258-3.696,8.258-8.258v-84.187c0-4.562-3.697-8.258-8.258-8.258h-12.389V97.525
	c0-4.562-3.697-8.258-8.258-8.258s-8.258,3.696-8.258,8.258v33.973h-12.389c-4.561,0-8.258,3.696-8.258,8.258v84.187
	C173.416,228.503,177.113,232.201,181.674,232.201z M189.932,148.014h24.78v67.671h-24.78V148.014z"/>
<path d="M94.967,322.109c-4.561,0-8.258,3.696-8.258,8.258v20.209c0,4.562,3.697,8.258,8.258,8.258s8.258-3.696,8.258-8.258v-20.209
	C103.225,325.805,99.527,322.109,94.967,322.109z"/>
<path d="M74.318,316.604h41.296c4.561,0,8.258-3.696,8.258-8.258v-84.187c0-4.562-3.697-8.258-8.258-8.258h-12.389V98.671
	c0-4.562-3.697-8.258-8.258-8.258s-8.258,3.696-8.258,8.258V215.9h-12.39c-4.561,0-8.258,3.696-8.258,8.258v84.187
	C66.06,312.907,69.758,316.604,74.318,316.604z M82.576,232.417h24.78v67.671h-24.78V232.417z"/>
<path d="M503.742,45.798H8.258C3.697,45.798,0,49.494,0,54.056v387.373c0,13.66,11.113,24.774,24.774,24.774h462.452
	c13.66,0,24.774-11.114,24.774-24.774V54.056C512,49.494,508.304,45.798,503.742,45.798z M495.484,62.314v323.474H16.516V62.314
	H495.484z M487.226,449.685H24.774c-4.554,0-8.258-3.704-8.258-8.258v-39.123h478.968v39.123
	C495.484,445.981,491.78,449.685,487.226,449.685z"/>
<g>
</g>
<g>
</g>
<g>
</g>
<g>
</g>
<g>
</g>
<g>
</g>
<g>
</g>
<g>
</g>
<g>
</g>
<g>
</g>
<g>
</g>
<g>
</g>
<g>
</g>
<g>
</g>
<g>
</g>
</svg>
