<?xml version="1.0" encoding="iso-8859-1"?>
<!-- Generator: Adobe Illustrator 19.0.0, SVG Export Plug-In . SVG Version: 6.00 Build 0)  -->
<svg version="1.1" id="Layer_1" xmlns="http://www.w3.org/2000/svg" xmlns:xlink="http://www.w3.org/1999/xlink" x="0px" y="0px"
	 viewBox="0 0 512 512" style="enable-background:new 0 0 512 512;" xml:space="preserve">
<path style="fill:#1B4145;" d="M407.948,4.129H104.052l95.794,426.214h303.897V99.923C503.742,47.018,460.854,4.129,407.948,4.129z"
	/>
<g>
	<path style="fill:#609399;" d="M104.052,4.129c-52.906,0-95.794,42.889-95.794,95.794v330.421h191.587V99.923
		C199.845,47.018,156.957,4.129,104.052,4.129z"/>
	<polygon style="fill:#609399;" points="459.699,205.075 459.699,397.312 243.888,397.312 243.888,205.075 351.794,183.054 	"/>
</g>
<rect x="243.888" y="128" style="fill:#6FC5D6;" width="215.811" height="77.075"/>
<polygon style="fill:#FFFFFF;" points="289.032,249.118 289.032,333.048 415.656,333.048 415.656,249.118 352.344,269.061 "/>
<polygon style="fill:#B4E5EA;" points="289.032,249.118 352.344,302.093 415.656,249.118 "/>
<path d="M459.699,123.871H243.888c-4.561,0-8.258,3.696-8.258,8.258V401.44c0,4.562,3.697,8.258,8.258,8.258
	c4.561,0,8.258-3.696,8.258-8.258V217.462h36.886c4.561,0,8.258-3.696,8.258-8.258c0-4.562-3.697-8.258-8.258-8.258h-36.886v-60.559
	h199.295v60.559H322.065c-4.561,0-8.258,3.696-8.258,8.258c0,4.562,3.697,8.258,8.258,8.258h129.376V401.44
	c0,4.562,3.697,8.258,8.258,8.258c4.561,0,8.258-3.696,8.258-8.258V132.129C467.957,127.567,464.26,123.871,459.699,123.871z"/>
<path d="M415.656,244.989H289.032c-4.561,0-8.258,3.696-8.258,8.258v83.929c0,4.562,3.697,8.258,8.258,8.258h126.624
	c4.561,0,8.258-3.696,8.258-8.258v-83.929C423.914,248.686,420.217,244.989,415.656,244.989z M407.398,328.919H297.29v-67.413
	h110.108V328.919z"/>
<path d="M407.948,0H104.052C46.678,0,0,46.678,0,104.052v330.421v69.27C0,508.304,3.697,512,8.258,512s8.258-3.696,8.258-8.258
	V442.73h175.071v61.012c0,4.562,3.697,8.258,8.258,8.258s8.258-3.696,8.258-8.258V442.73h287.381v61.012
	c0,4.562,3.697,8.258,8.258,8.258c4.561,0,8.258-3.696,8.258-8.258v-69.27V104.052C512,46.678,465.322,0,407.948,0z
	 M191.587,426.214H16.516V104.052c0-48.268,39.269-87.535,87.535-87.535s87.535,39.268,87.535,87.535V426.214z M495.484,426.214
	H208.103V104.052c0-36.69-19.089-69.003-47.856-87.535h247.701c48.267,0,87.535,39.268,87.535,87.535V426.214z"/>
<path d="M306.1,281.876l41.29,30.953c1.468,1.1,3.211,1.651,4.954,1.651s3.486-0.551,4.954-1.651l41.29-30.953
	c3.649-2.735,4.39-7.912,1.654-11.561c-2.736-3.648-7.913-4.389-11.561-1.654l-36.337,27.241l-36.337-27.241
	c-3.649-2.737-8.825-1.995-11.561,1.654C301.711,273.964,302.451,279.141,306.1,281.876z"/>
<g>
</g>
<g>
</g>
<g>
</g>
<g>
</g>
<g>
</g>
<g>
</g>
<g>
</g>
<g>
</g>
<g>
</g>
<g>
</g>
<g>
</g>
<g>
</g>
<g>
</g>
<g>
</g>
<g>
</g>
</svg>
