<?xml version="1.0" encoding="iso-8859-1"?>
<!-- Generator: Adobe Illustrator 19.0.0, SVG Export Plug-In . SVG Version: 6.00 Build 0)  -->
<svg version="1.1" id="Layer_1" xmlns="http://www.w3.org/2000/svg" xmlns:xlink="http://www.w3.org/1999/xlink" x="0px" y="0px"
	 viewBox="0 0 512 512" style="enable-background:new 0 0 512 512;" xml:space="preserve">
<path style="fill:#D6CED1;" d="M423.122,75.675L219.429,205.126L15.735,75.675c-4.468,4.12-7.295,9.997-7.295,16.517v254.474
	c0,6.551,2.854,12.453,7.36,16.575l203.629-129.386l209.254,135.317h1.735V92.191C430.418,85.672,427.591,79.794,423.122,75.675z"/>
<path style="fill:#C2B8B9;" d="M30.945,369.171h397.737L286.638,219.429H152.219L15.8,363.241
	C19.807,366.908,25.118,369.171,30.945,369.171z"/>
<path style="fill:#ECE7EA;" d="M30.945,69.686c-5.858,0-11.195,2.287-15.21,5.989l188.167,197.458c8.54,8.961,22.512,8.961,31.052,0
	L423.122,75.675c-4.015-3.702-9.352-5.989-15.21-5.989H30.945z"/>
<circle style="fill:#F14742;" cx="430.418" cy="369.169" r="73.143"/>
<path d="M323.517,360.732H30.945c-7.757,0-14.066-6.309-14.066-14.066V92.191c0-7.757,6.309-14.066,14.066-14.066h376.967
	c7.757,0,14.066,6.309,14.066,14.066V262.27c0,4.661,3.778,8.44,8.44,8.44s8.44-3.779,8.44-8.44V92.191
	c0-17.064-13.883-30.945-30.945-30.945H30.945C13.883,61.246,0,75.128,0,92.191v254.474c0,17.064,13.883,30.945,30.945,30.945
	h292.571c4.662,0,8.44-3.779,8.44-8.44S328.179,360.732,323.517,360.732z"/>
<path d="M402.482,97.335c-3.375-3.215-8.716-3.089-11.932,0.288L228.845,267.31c-2.521,2.647-5.866,4.104-9.416,4.104
	c-3.55,0-6.896-1.457-9.416-4.103L48.308,97.622c-3.217-3.375-8.557-3.502-11.932-0.288c-3.375,3.216-3.503,8.558-0.288,11.932
	l104.738,109.91L36.074,329.604c-3.208,3.381-3.067,8.723,0.315,11.931c1.632,1.548,3.721,2.317,5.806,2.317
	c2.234,0,4.465-0.882,6.124-2.631l104.164-109.81l45.307,47.544c5.739,6.021,13.423,9.338,21.637,9.338
	c8.213,0,15.898-3.316,21.637-9.339l45.306-47.543l63.485,66.925c1.66,1.75,3.89,2.631,6.124,2.631c2.086,0,4.175-0.769,5.806-2.317
	c3.383-3.208,3.523-8.55,0.315-11.931l-64.072-67.544l104.738-109.91C405.984,105.893,405.856,100.55,402.482,97.335z"/>
<path d="M430.418,287.589c-44.985,0-81.582,36.597-81.582,81.582s36.597,81.582,81.582,81.582S512,414.156,512,369.171
	S475.403,287.589,430.418,287.589z M430.418,433.874c-35.678,0-64.703-29.025-64.703-64.703s29.025-64.703,64.703-64.703
	s64.703,29.025,64.703,64.703S466.096,433.874,430.418,433.874z"/>
<path d="M433.647,333.242c-3.153-1.308-6.783-0.585-9.198,1.83l-11.253,11.253c-3.296,3.296-3.296,8.64,0,11.935
	c2.375,2.375,5.813,3.037,8.782,1.992v37.052c0,4.661,3.778,8.44,8.44,8.44s8.44-3.779,8.44-8.44v-56.264
	C438.857,337.625,436.801,334.549,433.647,333.242z"/>
<g>
</g>
<g>
</g>
<g>
</g>
<g>
</g>
<g>
</g>
<g>
</g>
<g>
</g>
<g>
</g>
<g>
</g>
<g>
</g>
<g>
</g>
<g>
</g>
<g>
</g>
<g>
</g>
<g>
</g>
</svg>
