<?xml version="1.0" encoding="iso-8859-1"?>
<!-- Generator: Adobe Illustrator 19.0.0, SVG Export Plug-In . SVG Version: 6.00 Build 0)  -->
<svg version="1.1" id="Layer_1" xmlns="http://www.w3.org/2000/svg" xmlns:xlink="http://www.w3.org/1999/xlink" x="0px" y="0px"
	 viewBox="0 0 512 512" style="enable-background:new 0 0 512 512;" xml:space="preserve">
<path style="fill:#F14742;" d="M450.373,455.019C435.251,379.639,353.991,322.065,256,322.065S76.748,379.639,61.627,455.019
	H450.373z"/>
<circle style="fill:#FAB9A7;" cx="256" cy="138.769" r="132.437"/>
<rect x="197.643" y="306.011" style="fill:#FFD24D;" width="116.714" height="100.605"/>
<path style="fill:#463836;" d="M300.422,245.054c0,56.579-19.395,62.696-43.321,62.696s-43.321-6.118-43.321-62.696
	c0-24.733,19.395-44.783,43.321-44.783S300.422,220.321,300.422,245.054z"/>
<path d="M163.21,331.489c-50.764,23.643-90.293,65.241-111.304,117.13c-1.712,4.227,0.327,9.042,4.555,10.754
	c1.015,0.412,2.065,0.606,3.097,0.606c3.265,0,6.357-1.949,7.657-5.161c19.437-48.002,56.006-86.484,102.969-108.358
	c4.135-1.926,5.925-6.838,3.999-10.972C172.257,331.353,167.345,329.563,163.21,331.489z"/>
<path d="M460.094,448.619c-21.011-51.884-60.534-93.478-111.289-117.122c-4.135-1.927-9.046-0.137-10.973,3.998
	c-1.926,4.135-0.135,9.046,3.999,10.972c46.955,21.874,83.519,60.353,102.955,108.35c1.3,3.212,4.391,5.161,7.657,5.161
	c1.032,0,2.081-0.195,3.097-0.606C459.766,457.661,461.806,452.846,460.094,448.619z"/>
<path d="M396.084,140.698C396.084,63.117,332.969,0,255.388,0S114.69,63.117,114.69,140.698c0,46.811,23.188,90.424,62.027,116.663
	c1.418,0.958,3.025,1.416,4.616,1.416c2.65,0,5.254-1.274,6.851-3.636c2.553-3.78,1.559-8.913-2.22-11.467
	c-34.286-23.163-54.756-61.66-54.756-102.977c-0.001-68.474,55.707-124.181,124.18-124.181s124.182,55.708,124.182,124.181
	c0,40.384-19.75,78.383-52.83,101.649c-3.732,2.624-4.628,7.775-2.004,11.505c2.624,3.729,7.776,4.629,11.505,2.004
	C373.713,229.502,396.084,186.451,396.084,140.698z"/>
<path d="M312.287,298.933h-17.019c7.463-10.765,10.973-27.031,10.973-50.506c0-27.699-22.535-50.233-50.233-50.233
	c-27.699,0-50.233,22.535-50.233,50.233c0,23.475,3.51,39.741,10.973,50.506h-17.019c-4.561,0-8.258,3.697-8.258,8.258v97.022
	c0,4.561,3.697,8.258,8.258,8.258h48.021v91.27c0,4.561,3.697,8.258,8.258,8.258c4.561,0,8.258-3.697,8.258-8.258v-91.27h48.02
	c4.562,0,8.258-3.697,8.258-8.258v-97.022C320.545,302.631,316.848,298.933,312.287,298.933z M222.292,248.427
	c0-18.592,15.125-33.717,33.717-33.717s33.717,15.125,33.717,33.717c0,50.506-17.14,50.506-33.717,50.506
	C239.431,298.933,222.292,298.933,222.292,248.427z M304.029,395.955h-96.042v-80.506h96.042V395.955z"/>
<g>
</g>
<g>
</g>
<g>
</g>
<g>
</g>
<g>
</g>
<g>
</g>
<g>
</g>
<g>
</g>
<g>
</g>
<g>
</g>
<g>
</g>
<g>
</g>
<g>
</g>
<g>
</g>
<g>
</g>
</svg>
