<?xml version="1.0" encoding="iso-8859-1"?>
<!-- Generator: Adobe Illustrator 19.0.0, SVG Export Plug-In . SVG Version: 6.00 Build 0)  -->
<svg version="1.1" id="Layer_1" xmlns="http://www.w3.org/2000/svg" xmlns:xlink="http://www.w3.org/1999/xlink" x="0px" y="0px"
	 viewBox="0 0 512.001 512.001" style="enable-background:new 0 0 512.001 512.001;" xml:space="preserve">
<g>
	<path style="fill:#F14742;" d="M77.351,148.954c-22.804,0-41.29,18.486-41.29,41.29s18.486,41.29,41.29,41.29
		c1.399,0,2.728-0.072,4.093-0.207l0.003-82.165C80.082,149.025,78.751,148.954,77.351,148.954z"/>
	<path style="fill:#F14742;" d="M435.751,148.954c22.804,0,41.29,18.486,41.29,41.29s-18.486,41.29-41.29,41.29
		c-1.399,0-2.728-0.072-4.093-0.207l-0.003-82.165C433.021,149.025,434.352,148.954,435.751,148.954z"/>
	<path style="fill:#F14742;" d="M452.575,504.29c-15.293-77.721-97.472-137.083-196.574-137.083
		c-99.101,0-181.281,59.362-196.574,137.083H452.575z"/>
</g>
<circle style="fill:#FAB9A7;" cx="255.999" cy="190.243" r="132.437"/>
<path d="M255.388,316.9c-28.468,0-55.245-9.369-77.438-27.095c-3.565-2.846-8.76-2.265-11.606,1.298
	c-2.846,3.563-2.265,8.76,1.299,11.606c25.15,20.088,55.492,30.707,87.745,30.707c77.58,0,140.696-63.116,140.696-140.696
	S332.969,52.023,255.388,52.023S114.691,115.14,114.691,192.72c0,13.539,1.921,26.93,5.711,39.801
	c1.288,4.376,5.881,6.878,10.254,5.59c4.376-1.288,6.878-5.879,5.59-10.254c-3.344-11.356-5.038-23.179-5.038-35.137
	c0-68.473,55.708-124.181,124.181-124.181s124.18,55.708,124.18,124.181S323.862,316.9,255.388,316.9z"/>
<path d="M380.451,401.598c-36.711-25.222-79.745-38.554-124.45-38.554s-87.739,13.332-124.45,38.554
	c-35.834,24.62-63.375,58.869-79.644,99.042c-1.712,4.227,0.327,9.042,4.555,10.754c4.228,1.713,9.042-0.327,10.754-4.555
	C98.528,429.52,172.63,379.56,256.003,379.56s157.475,49.96,188.785,127.279c1.3,3.212,4.392,5.161,7.657,5.161
	c1.033,0,2.082-0.195,3.097-0.606c4.227-1.712,6.266-6.526,4.555-10.754C443.826,460.467,416.286,426.218,380.451,401.598z"/>
<path d="M440.382,144.809C420.134,61.801,345.155,0,256.001,0S91.867,61.801,71.619,144.809
	c-23.523,1.482-42.211,21.08-42.211,44.97c0,23.877,18.664,43.465,42.167,44.968c2.643,10.863,6.25,21.493,10.829,31.829
	c1.343,3.031,4.334,4.909,7.545,4.909c0.109,0,0.218-0.002,0.327-0.007h165.113c4.561,0,8.258-3.697,8.258-8.258
	c0-4.561-3.697-8.258-8.258-8.258H95.413c-3.984-9.794-7.025-19.864-9.136-30.148c-0.009-0.047-0.02-0.095-0.03-0.142
	c-2.328-11.389-3.51-23.044-3.51-34.892c0-95.538,77.726-173.263,173.263-173.263s173.263,77.726,173.263,173.263
	c0,11.762-1.185,23.512-3.52,34.927c0,0.002-0.001,0.006-0.001,0.008c-0.059,0.284-0.106,0.574-0.134,0.869
	c-0.456,4.539,2.854,8.586,7.392,9.041c1.5,0.151,3.021,0.227,4.522,0.227c24.852,0,45.071-20.219,45.071-45.071
	C482.593,165.889,463.906,146.29,440.382,144.809z M45.924,189.779c0-13.614,9.578-25.025,22.347-27.867
	c-1.344,9.098-2.051,18.401-2.051,27.868c0,9.409,0.689,18.704,2.034,27.864C55.493,214.794,45.924,203.386,45.924,189.779z
	 M443.736,217.645c1.352-9.195,2.044-18.528,2.044-27.866c0-9.466-0.706-18.769-2.051-27.868
	c12.769,2.843,22.347,14.253,22.347,27.867C466.077,203.391,456.502,214.8,443.736,217.645z"/>
<g>
</g>
<g>
</g>
<g>
</g>
<g>
</g>
<g>
</g>
<g>
</g>
<g>
</g>
<g>
</g>
<g>
</g>
<g>
</g>
<g>
</g>
<g>
</g>
<g>
</g>
<g>
</g>
<g>
</g>
</svg>
