<?xml version="1.0" encoding="iso-8859-1"?>
<!-- Generator: Adobe Illustrator 19.0.0, SVG Export Plug-In . SVG Version: 6.00 Build 0)  -->
<svg version="1.1" id="Layer_1" xmlns="http://www.w3.org/2000/svg" xmlns:xlink="http://www.w3.org/1999/xlink" x="0px" y="0px"
	 viewBox="0 0 512 512" style="enable-background:new 0 0 512 512;" xml:space="preserve">
<circle style="fill:#609399;" cx="256" cy="256" r="244.747"/>
<path d="M437.02,74.98C388.667,26.629,324.381,0,256,0S123.333,26.629,74.98,74.98C26.629,123.332,0,187.619,0,256
	s26.629,132.667,74.98,181.02C123.333,485.372,187.619,512,256,512s132.667-26.628,181.02-74.98
	C485.372,388.667,512,324.381,512,256S485.372,123.332,437.02,74.98z M256,495.121C124.148,495.121,16.879,387.852,16.879,256
	S124.148,16.879,256,16.879S495.121,124.148,495.121,256S387.852,495.121,256,495.121z"/>
<path d="M459.641,323.536c-20.345-9.3-45.316-16.92-73.461-22.634c1.345-14.712,2.04-29.734,2.04-44.902
	c0-15.168-0.695-30.19-2.04-44.903c28.145-5.713,53.116-13.333,73.461-22.634c4.239-1.938,6.105-6.945,4.167-11.184
	c-1.939-4.239-6.943-6.105-11.184-4.167c-18.613,8.508-41.932,15.611-68.308,21.035c-3.575-28.011-9.531-54.625-17.573-78.651
	c10.375-4.989,20.452-10.689,30.154-17.099c3.889-2.569,4.959-7.805,2.39-11.694s-7.806-4.959-11.694-2.39
	c-8.59,5.675-17.492,10.761-26.651,15.245c-7.359-18.693-16.059-35.482-25.956-49.678c-2.665-3.823-7.925-4.763-11.749-2.098
	c-3.823,2.666-4.762,7.925-2.096,11.749c9.304,13.347,17.488,29.194,24.414,46.89c-25.689,10.389-53.079,16.23-81.114,17.207V42.198
	c0-4.661-3.778-8.44-8.44-8.44s-8.44,3.779-8.44,8.44v81.433c-28.035-0.977-55.425-6.818-81.114-17.207
	c6.926-17.696,15.11-33.542,24.414-46.89c2.666-3.824,1.726-9.084-2.096-11.749c-3.825-2.666-9.084-1.726-11.749,2.098
	C167.12,64.078,158.42,80.866,151.06,99.56c-9.159-4.483-18.061-9.569-26.651-15.245c-3.888-2.569-9.124-1.499-11.694,2.39
	c-2.569,3.889-1.499,9.125,2.39,11.694c9.702,6.41,19.779,12.11,30.154,17.099c-8.042,24.027-13.998,50.64-17.573,78.651
	c-26.375-5.424-49.694-12.527-68.308-21.035c-4.239-1.938-9.248-0.072-11.184,4.167c-1.937,4.239-0.071,9.246,4.167,11.184
	c20.345,9.3,45.316,16.92,73.461,22.634c-1.347,14.712-2.042,29.734-2.042,44.902c0,15.168,0.695,30.19,2.04,44.903
	c-28.145,5.713-53.116,13.333-73.461,22.634c-4.239,1.938-6.105,6.945-4.167,11.184c1.939,4.239,6.945,6.106,11.184,4.167
	c18.613-8.508,41.932-15.611,68.308-21.035c3.575,28.011,9.531,54.625,17.573,78.651c-10.375,4.989-20.451,10.689-30.154,17.099
	c-3.889,2.569-4.959,7.805-2.39,11.694c2.568,3.889,7.805,4.959,11.694,2.39c8.59-5.675,17.492-10.761,26.651-15.245
	c7.359,18.694,16.059,35.482,25.956,49.677c1.641,2.353,4.264,3.613,6.931,3.613c1.664,0,3.349-0.492,4.818-1.517
	c3.823-2.666,4.762-7.925,2.096-11.75c-9.304-13.348-17.488-29.194-24.414-46.89c25.689-10.389,53.079-16.23,81.114-17.207v81.434
	c0,4.661,3.778,8.44,8.44,8.44s8.44-3.779,8.44-8.44v-81.433c28.035,0.977,55.425,6.818,81.114,17.207
	c-6.926,17.696-15.11,33.542-24.414,46.89c-2.666,3.824-1.726,9.084,2.096,11.75c1.471,1.025,3.153,1.517,4.818,1.517
	c2.667,0,5.29-1.26,6.931-3.613c9.896-14.195,18.596-30.984,25.956-49.677c9.159,4.483,18.061,9.569,26.651,15.245
	c1.431,0.946,3.047,1.399,4.644,1.399c2.74,0,5.426-1.332,7.05-3.789c2.569-3.889,1.499-9.125-2.39-11.694
	c-9.703-6.41-19.779-12.109-30.154-17.099c8.042-24.027,13.998-50.64,17.573-78.651c26.375,5.424,49.694,12.527,68.308,21.035
	c1.138,0.52,2.329,0.766,3.503,0.766c3.201,0,6.263-1.831,7.681-4.933C465.746,330.481,463.879,325.473,459.641,323.536z
	 M371.341,256c0,14.13-0.626,28.108-1.823,41.801c-32.152-5.443-67.803-8.525-105.078-8.93v-65.74
	c37.275-0.405,72.926-3.488,105.078-8.93C370.715,227.892,371.341,241.87,371.341,256z M351.276,122.318
	c7.535,22.851,13.113,48.205,16.447,74.947c-31.662,5.426-66.914,8.56-103.283,8.981v-65.732
	C294.442,139.539,323.763,133.363,351.276,122.318z M160.724,122.318c27.513,11.045,56.834,17.219,86.836,18.197v65.732
	c-36.369-0.421-71.621-3.555-103.283-8.981C147.612,170.523,153.19,145.169,160.724,122.318z M140.659,256
	c0-14.13,0.626-28.108,1.823-41.801c32.152,5.443,67.803,8.525,105.078,8.93v65.74c-37.275,0.405-72.926,3.488-105.078,8.93
	C141.285,284.108,140.659,270.13,140.659,256z M160.725,389.682c-7.535-22.851-13.113-48.205-16.448-74.947
	c31.662-5.426,66.914-8.56,103.283-8.981v65.732C217.558,372.461,188.237,378.637,160.725,389.682z M351.275,389.682
	c-27.512-11.045-56.834-17.219-86.835-18.197v-65.732c36.369,0.421,71.621,3.555,103.283,8.981
	C364.388,341.477,358.81,366.831,351.275,389.682z"/>
<g>
</g>
<g>
</g>
<g>
</g>
<g>
</g>
<g>
</g>
<g>
</g>
<g>
</g>
<g>
</g>
<g>
</g>
<g>
</g>
<g>
</g>
<g>
</g>
<g>
</g>
<g>
</g>
<g>
</g>
</svg>
