<?xml version="1.0" encoding="iso-8859-1"?>
<!-- Generator: Adobe Illustrator 19.0.0, SVG Export Plug-In . SVG Version: 6.00 Build 0)  -->
<svg version="1.1" id="Layer_1" xmlns="http://www.w3.org/2000/svg" xmlns:xlink="http://www.w3.org/1999/xlink" x="0px" y="0px"
	 viewBox="0 0 512 512" style="enable-background:new 0 0 512 512;" xml:space="preserve">
<circle style="fill:#6FC5D6;" cx="256" cy="256" r="185.67"/>
<path style="fill:#B4E5EA;" d="M256,61.89C148.967,61.89,61.89,148.967,61.89,256S148.967,450.11,256,450.11
	S450.11,363.033,450.11,256S363.033,61.89,256,61.89z M433.025,247.56h-75.847c-0.752-34.492-6.104-67.394-15.47-95.904
	c13.037-6.42,25.383-14.329,36.791-23.618C410.309,158.504,430.816,200.678,433.025,247.56z M314.096,128.486
	c2.253,4.507,4.367,9.218,6.348,14.106c-17.783,6.942-36.681,11.011-56.004,11.929V79.694
	C282.802,83.692,300.183,100.659,314.096,128.486z M264.44,340.582V264.44h75.857c-0.728,32.111-5.605,62.641-14.111,89.09
	C306.578,345.925,285.739,341.507,264.44,340.582z M320.443,369.409c-1.98,4.888-4.095,9.6-6.348,14.106
	c-13.913,27.827-31.294,44.794-49.656,48.792V357.48C283.762,358.397,302.661,362.466,320.443,369.409z M191.557,142.593
	c1.98-4.888,4.095-9.6,6.348-14.106c13.913-27.827,31.294-44.794,49.656-48.792v74.827
	C228.238,153.603,209.339,149.534,191.557,142.593z M247.56,171.418v76.143h-75.857c0.728-32.111,5.605-62.642,14.111-89.09
	C205.422,166.075,226.261,170.493,247.56,171.418z M182.808,120.937c-2.364,4.73-4.587,9.663-6.67,14.773
	c-10.449-5.278-20.394-11.614-29.69-18.93c17.681-13.943,38.074-24.592,60.243-31.023
	C197.931,94.987,189.888,106.776,182.808,120.937z M247.56,264.44v76.143c-21.299,0.924-42.138,5.343-61.747,12.947
	c-8.506-26.45-13.383-56.979-14.111-89.09L247.56,264.44L247.56,264.44z M247.56,357.478v74.827
	c-18.362-3.998-35.743-20.965-49.656-48.792c-2.253-4.507-4.367-9.218-6.348-14.106C209.339,362.466,228.238,358.397,247.56,357.478
	z M176.137,376.29c2.083,5.11,4.305,10.044,6.67,14.773c7.08,14.16,15.124,25.95,23.882,35.181
	c-22.168-6.431-42.56-17.078-60.243-31.023C155.744,387.905,165.689,381.567,176.137,376.29z M329.192,391.063
	c2.364-4.73,4.587-9.663,6.67-14.773c10.449,5.278,20.394,11.614,29.69,18.931c-17.681,13.943-38.074,24.592-60.243,31.023
	C314.069,417.013,322.112,405.224,329.192,391.063z M264.44,247.56v-76.143c21.299-0.924,42.138-5.343,61.747-12.947
	c8.506,26.45,13.383,56.979,14.111,89.09H264.44z M335.863,135.71c-2.083-5.11-4.305-10.044-6.67-14.773
	c-7.08-14.16-15.124-25.95-23.882-35.181c22.168,6.431,42.56,17.078,60.243,31.023C356.256,124.095,346.311,130.433,335.863,135.71z
	 M133.501,128.038c11.408,9.288,23.753,17.199,36.791,23.618c-9.367,28.51-14.719,61.412-15.47,95.904H78.975
	C81.184,200.678,101.691,158.504,133.501,128.038z M78.975,264.44h75.847c0.752,34.492,6.103,67.394,15.47,95.904
	c-13.037,6.42-25.383,14.329-36.791,23.618C101.691,353.496,81.184,311.322,78.975,264.44z M378.499,383.962
	c-11.408-9.288-23.753-17.199-36.791-23.618c9.367-28.51,14.719-61.412,15.47-95.904h75.847
	C430.816,311.322,410.309,353.496,378.499,383.962z"/>
<g>
	<path style="fill:#F14742;" d="M439.465,430.491c-0.004-0.064-0.003-0.128-0.009-0.192c-0.028-0.314-0.074-0.627-0.137-0.937
		c-0.012-0.06-0.03-0.118-0.044-0.179c-0.057-0.251-0.125-0.5-0.205-0.746c-0.027-0.081-0.056-0.162-0.084-0.242
		c-0.082-0.23-0.176-0.456-0.279-0.68c-0.034-0.072-0.065-0.145-0.1-0.216c-0.129-0.26-0.271-0.515-0.43-0.764
		c-0.016-0.025-0.029-0.052-0.045-0.077c-0.178-0.272-0.372-0.537-0.585-0.792c-0.071-0.089-0.118-0.129-0.161-0.178
		c-0.119-0.136-0.235-0.275-0.366-0.405c-0.044-0.044-0.091-0.08-0.136-0.123c-0.081-0.078-0.164-0.15-0.248-0.224
		c-0.168-0.149-0.34-0.289-0.515-0.423c-0.078-0.059-0.155-0.117-0.235-0.173c-0.216-0.152-0.438-0.291-0.665-0.42
		c-0.046-0.026-0.089-0.055-0.135-0.08c-0.576-0.314-1.182-0.555-1.803-0.724c-0.065-0.018-0.132-0.032-0.198-0.048
		c-0.244-0.06-0.49-0.11-0.736-0.149c-0.087-0.013-0.172-0.027-0.259-0.037c-0.255-0.032-0.511-0.051-0.767-0.059
		c-0.064-0.002-0.128-0.009-0.194-0.009c-0.318-0.002-0.636,0.012-0.953,0.045c-0.051,0.002-41.314,4.565-41.314,4.565
		c-4.633,0.512-7.973,4.683-7.461,9.316c0.513,4.633,4.692,7.975,9.316,7.461l15.156-1.676
		c-93.814,75.572-231.883,69.832-318.957-17.243C41.752,379.92,16.879,319.872,16.879,256.001c0-4.661-3.779-8.44-8.44-8.44
		S0,251.34,0,256.001c0,68.38,26.629,132.667,74.98,181.018S187.62,512,256,512c58.33,0,113.671-19.39,158.694-55.097l-3.401,11.623
		c-1.309,4.474,1.257,9.162,5.73,10.471c0.792,0.232,1.59,0.342,2.374,0.342c3.653,0,7.018-2.39,8.096-6.072l11.641-39.785
		c0.006-0.02,0.011-0.039,0.017-0.06c0.089-0.305,0.155-0.614,0.209-0.924c0.016-0.093,0.027-0.187,0.04-0.28
		c0.032-0.224,0.054-0.448,0.066-0.673c0.006-0.102,0.012-0.205,0.015-0.307C439.488,430.988,439.481,430.739,439.465,430.491z"/>
	<path style="fill:#F14742;" d="M437.02,74.98C388.667,26.629,324.38,0,256,0C197.67,0,142.329,19.39,97.306,55.097l3.401-11.623
		c1.309-4.474-1.257-9.162-5.73-10.471c-4.476-1.308-9.162,1.257-10.471,5.73l-11.64,39.785c-0.006,0.02-0.011,0.039-0.017,0.06
		c-0.089,0.305-0.155,0.613-0.209,0.924c-0.016,0.093-0.027,0.187-0.041,0.28c-0.032,0.224-0.054,0.449-0.066,0.674
		c-0.006,0.102-0.012,0.204-0.015,0.306c-0.006,0.25,0.001,0.498,0.018,0.747c0.004,0.064,0.003,0.128,0.009,0.192
		c0.028,0.314,0.074,0.627,0.137,0.936c0.012,0.061,0.03,0.119,0.044,0.179c0.056,0.251,0.125,0.5,0.205,0.745
		c0.027,0.082,0.056,0.162,0.086,0.243c0.082,0.23,0.176,0.456,0.279,0.679c0.034,0.072,0.064,0.144,0.1,0.215
		c0.129,0.26,0.271,0.515,0.429,0.763c0.016,0.026,0.029,0.053,0.046,0.079c0.178,0.272,0.372,0.537,0.585,0.792
		c0.086,0.107,0.15,0.165,0.208,0.231c0.106,0.117,0.205,0.239,0.317,0.351c0.025,0.025,0.053,0.046,0.079,0.071
		c0.088,0.086,0.181,0.164,0.272,0.246c0.135,0.12,0.269,0.24,0.41,0.35c0.089,0.07,0.18,0.134,0.271,0.199
		c0.154,0.111,0.309,0.219,0.468,0.318c0.087,0.054,0.174,0.105,0.263,0.155c0.171,0.098,0.343,0.191,0.519,0.277
		c0.088,0.043,0.177,0.083,0.267,0.124c0.18,0.08,0.362,0.152,0.547,0.219c0.093,0.034,0.186,0.068,0.28,0.098
		c0.185,0.06,0.371,0.11,0.559,0.156c0.098,0.025,0.195,0.051,0.294,0.072c0.195,0.041,0.392,0.071,0.589,0.098
		c0.093,0.012,0.185,0.03,0.279,0.041c0.273,0.028,0.549,0.044,0.824,0.045c0.358,0,0.639-0.017,0.919-0.046
		c0.055-0.003,41.319-4.565,41.319-4.565c4.633-0.512,7.973-4.683,7.461-9.316c-0.513-4.633-4.689-7.966-9.316-7.461l-15.156,1.676
		c93.813-75.57,231.882-69.83,318.956,17.245C470.248,132.08,495.121,192.129,495.121,256c0,4.661,3.779,8.44,8.44,8.44
		S512,260.661,512,256C512,187.619,485.372,123.333,437.02,74.98z"/>
</g>
<path d="M385.223,111.29c-0.035-0.042-0.064-0.086-0.101-0.127c-0.501-0.567-1.065-1.042-1.667-1.441
	C349.331,79.95,304.737,61.89,256,61.89s-93.331,18.06-127.456,47.832c-0.601,0.399-1.165,0.874-1.665,1.441
	c-0.036,0.041-0.065,0.086-0.101,0.127C86.985,146.862,61.89,198.551,61.89,256s25.095,109.138,64.887,144.71
	c0.035,0.042,0.064,0.086,0.101,0.127c0.501,0.567,1.065,1.042,1.667,1.441C162.669,432.05,207.263,450.11,256,450.11
	c48.741,0,93.339-18.063,127.466-47.84c0.598-0.398,1.159-0.87,1.656-1.434c0.036-0.041,0.065-0.086,0.101-0.127
	C425.015,365.138,450.11,313.449,450.11,256S425.015,146.862,385.223,111.29z M357.178,247.56
	c-0.752-34.492-6.104-67.394-15.47-95.904c13.039-6.42,25.388-14.322,36.797-23.613c31.808,30.465,52.313,72.637,54.522,119.517
	H357.178z M329.192,120.937c-7.08-14.16-15.124-25.95-23.882-35.181c22.17,6.432,42.565,17.082,60.247,31.027
	c-9.296,7.319-19.247,13.648-29.696,18.926C333.78,130.599,331.558,125.666,329.192,120.937z M320.443,142.593
	c-17.783,6.942-36.681,11.011-56.004,11.929V79.694c18.362,3.998,35.743,20.965,49.656,48.792
	C316.349,132.992,318.463,137.704,320.443,142.593z M176.137,135.71c-10.449-5.278-20.4-11.607-29.696-18.926
	c17.683-13.946,38.077-24.595,60.247-31.027c-8.758,9.23-16.801,21.02-23.882,35.181
	C180.442,125.666,178.221,130.599,176.137,135.71z M197.904,128.486c13.913-27.827,31.294-44.794,49.656-48.792v74.827
	c-19.322-0.918-38.221-4.987-56.004-11.929C193.537,137.704,195.652,132.992,197.904,128.486z M247.56,171.418v76.143h-75.857
	c0.728-32.111,5.605-62.642,14.111-89.09C205.422,166.075,226.261,170.493,247.56,171.418z M247.56,264.44v76.143
	c-21.299,0.924-42.138,5.343-61.747,12.947c-8.506-26.45-13.383-56.979-14.111-89.09L247.56,264.44L247.56,264.44z M247.56,357.478
	v74.827c-18.362-3.998-35.743-20.965-49.656-48.792c-2.253-4.507-4.367-9.218-6.348-14.106
	C209.34,362.466,228.238,358.397,247.56,357.478z M182.808,391.063c7.08,14.16,15.124,25.95,23.882,35.181
	c-22.17-6.432-42.565-17.082-60.247-31.027c9.296-7.319,19.247-13.648,29.696-18.926
	C178.221,381.401,180.442,386.334,182.808,391.063z M335.863,376.29c10.449,5.278,20.4,11.607,29.696,18.926
	c-17.683,13.946-38.077,24.595-60.247,31.027c8.758-9.229,16.801-21.02,23.882-35.181
	C331.558,386.334,333.78,381.401,335.863,376.29z M314.096,383.514c-13.913,27.827-31.294,44.794-49.656,48.792v-74.827
	c19.322,0.918,38.221,4.987,56.004,11.929C318.463,374.296,316.349,379.008,314.096,383.514z M264.44,340.582V264.44h75.857
	c-0.728,32.111-5.605,62.641-14.111,89.09C306.578,345.925,285.739,341.507,264.44,340.582z M264.44,247.56v-76.143
	c21.299-0.924,42.138-5.343,61.747-12.947c8.506,26.45,13.383,56.979,14.111,89.09H264.44z M133.497,128.044
	c11.408,9.29,23.758,17.193,36.796,23.613c-9.367,28.51-14.719,61.412-15.47,95.904H78.975
	C81.184,200.68,101.689,158.508,133.497,128.044z M78.975,264.44h75.847c0.752,34.492,6.103,67.394,15.47,95.904
	c-13.039,6.42-25.388,14.323-36.796,23.613C101.689,353.492,81.184,311.32,78.975,264.44z M378.503,383.956
	c-11.408-9.29-23.758-17.193-36.797-23.613c9.367-28.51,14.719-61.412,15.47-95.904h75.847
	C430.816,311.32,410.311,353.492,378.503,383.956z"/>
<path d="M439.465,430.491c-0.004-0.064-0.003-0.128-0.009-0.192c-0.028-0.314-0.074-0.627-0.137-0.937
	c-0.012-0.06-0.03-0.118-0.044-0.179c-0.057-0.251-0.125-0.5-0.205-0.746c-0.027-0.081-0.056-0.162-0.084-0.242
	c-0.082-0.23-0.176-0.456-0.279-0.68c-0.034-0.072-0.065-0.145-0.1-0.216c-0.129-0.26-0.271-0.515-0.43-0.764
	c-0.016-0.025-0.029-0.052-0.045-0.077c-0.178-0.272-0.372-0.537-0.585-0.792c-0.01-0.012-0.018-0.027-0.029-0.039
	c-0.042-0.05-0.089-0.09-0.132-0.138c-0.119-0.136-0.235-0.275-0.366-0.405c-0.044-0.044-0.091-0.08-0.136-0.123
	c-0.081-0.078-0.164-0.15-0.248-0.224c-0.168-0.149-0.34-0.289-0.515-0.423c-0.078-0.059-0.155-0.117-0.235-0.173
	c-0.216-0.152-0.438-0.291-0.665-0.42c-0.046-0.026-0.089-0.055-0.135-0.08c-0.576-0.314-1.182-0.555-1.803-0.724
	c-0.065-0.018-0.132-0.032-0.198-0.048c-0.244-0.06-0.49-0.11-0.736-0.149c-0.087-0.013-0.172-0.027-0.259-0.037
	c-0.255-0.032-0.511-0.051-0.767-0.059c-0.064-0.002-0.128-0.009-0.194-0.009c-0.318-0.002-0.636,0.012-0.953,0.045
	c-0.017,0.002-0.034,0-0.051,0.002l-41.264,4.563c-4.633,0.512-7.973,4.683-7.461,9.316c0.513,4.633,4.692,7.975,9.316,7.461
	l15.156-1.676c-93.812,75.571-231.88,69.832-318.955-17.243C41.752,379.92,16.879,319.872,16.879,256.001
	c0-4.661-3.779-8.44-8.44-8.44S0,251.34,0,256.001c0,68.38,26.629,132.667,74.98,181.018S187.62,512,256,512
	c58.33,0,113.671-19.39,158.694-55.097l-3.401,11.623c-1.309,4.474,1.257,9.162,5.73,10.471c0.792,0.232,1.59,0.342,2.374,0.342
	c3.653,0,7.018-2.39,8.096-6.072l11.641-39.785c0.006-0.02,0.011-0.039,0.017-0.06l0,0v-0.001c0.089-0.304,0.155-0.612,0.209-0.923
	c0.016-0.093,0.027-0.187,0.04-0.28c0.032-0.224,0.054-0.448,0.066-0.673c0.006-0.102,0.012-0.205,0.015-0.307
	C439.488,430.988,439.482,430.739,439.465,430.491z"/>
<path d="M437.02,74.98C388.668,26.629,324.38,0,256,0C197.671,0,142.329,19.39,97.306,55.097l3.401-11.623
	c1.309-4.474-1.257-9.162-5.73-10.471c-4.476-1.308-9.162,1.257-10.471,5.73l-11.64,39.785c-0.006,0.02-0.011,0.039-0.017,0.06l0,0
	v0.001c-0.089,0.304-0.155,0.612-0.209,0.923c-0.016,0.093-0.027,0.187-0.041,0.28c-0.032,0.224-0.054,0.449-0.066,0.674
	c-0.006,0.102-0.012,0.204-0.015,0.306c-0.006,0.25,0.001,0.498,0.018,0.747c0.004,0.064,0.003,0.128,0.009,0.192
	c0.028,0.314,0.074,0.627,0.137,0.936c0.012,0.061,0.03,0.119,0.044,0.179c0.056,0.251,0.125,0.5,0.205,0.745
	c0.027,0.082,0.056,0.162,0.086,0.243c0.082,0.23,0.176,0.456,0.279,0.679c0.034,0.072,0.064,0.144,0.1,0.215
	c0.129,0.26,0.271,0.515,0.429,0.763c0.016,0.026,0.029,0.053,0.046,0.079c0.178,0.272,0.372,0.537,0.585,0.792
	c0.01,0.012,0.018,0.027,0.029,0.039c0.056,0.068,0.122,0.126,0.18,0.191c0.106,0.117,0.205,0.239,0.317,0.351
	c0.025,0.025,0.053,0.046,0.079,0.071c0.088,0.086,0.181,0.164,0.272,0.246c0.135,0.12,0.269,0.24,0.41,0.35
	c0.089,0.07,0.18,0.134,0.271,0.199c0.154,0.111,0.309,0.219,0.468,0.318c0.087,0.054,0.174,0.105,0.263,0.155
	c0.171,0.098,0.343,0.191,0.519,0.277c0.088,0.043,0.177,0.083,0.267,0.124c0.18,0.08,0.362,0.152,0.547,0.219
	c0.093,0.034,0.186,0.068,0.28,0.098c0.185,0.06,0.371,0.11,0.559,0.156c0.098,0.025,0.195,0.051,0.294,0.072
	c0.195,0.041,0.392,0.071,0.589,0.098c0.093,0.012,0.185,0.03,0.279,0.041c0.273,0.028,0.549,0.044,0.824,0.045
	c0.016,0,0.03,0.002,0.045,0.002c0.01,0,0.02-0.001,0.03-0.001c0.281-0.001,0.563-0.018,0.844-0.046
	c0.018-0.002,0.036-0.001,0.055-0.003l41.264-4.563c4.633-0.512,7.973-4.683,7.461-9.316c-0.513-4.633-4.689-7.966-9.316-7.461
	l-15.156,1.676c93.812-75.57,231.881-69.83,318.955,17.245C470.248,132.08,495.121,192.129,495.121,256
	c0,4.661,3.779,8.44,8.44,8.44S512,260.661,512,256C512,187.619,485.372,123.333,437.02,74.98z"/>
<g>
</g>
<g>
</g>
<g>
</g>
<g>
</g>
<g>
</g>
<g>
</g>
<g>
</g>
<g>
</g>
<g>
</g>
<g>
</g>
<g>
</g>
<g>
</g>
<g>
</g>
<g>
</g>
<g>
</g>
</svg>
