<?xml version="1.0" encoding="iso-8859-1"?>
<!-- Generator: Adobe Illustrator 19.0.0, SVG Export Plug-In . SVG Version: 6.00 Build 0)  -->
<svg version="1.1" id="Layer_1" xmlns="http://www.w3.org/2000/svg" xmlns:xlink="http://www.w3.org/1999/xlink" x="0px" y="0px"
	 viewBox="0 0 512 512" style="enable-background:new 0 0 512 512;" xml:space="preserve">
<circle style="fill:#609399;" cx="255.993" cy="262.212" r="207.654"/>
<path d="M168.274,460.601c1.083,0.482,2.215,0.71,3.33,0.71c3.138,0,6.132-1.812,7.492-4.865c1.842-4.136-0.019-8.982-4.154-10.823
	C103.017,413.594,56.54,342.037,56.54,263.323c0-109.981,89.476-199.457,199.457-199.457c78.713,0,150.272,46.475,182.302,118.402
	c1.843,4.136,6.688,5.995,10.822,4.153c4.136-1.842,5.995-6.688,4.154-10.823C418.614,97.764,341.179,47.472,255.998,47.472
	c-119.02,0-215.851,96.83-215.851,215.851C40.147,348.504,90.439,425.939,168.274,460.601z"/>
<path d="M480.631,38.691C456.014,14.074,415.624,8.3,365.21,21.674l6.935-8.175c2.929-3.453,2.505-8.625-0.948-11.553
	s-8.624-2.504-11.552,0.948l-25.417,29.959c-0.012,0.014-0.024,0.028-0.036,0.043l-0.04,0.047c-0.021,0.024-0.036,0.051-0.057,0.077
	c-0.172,0.208-0.331,0.422-0.481,0.644c-0.054,0.08-0.104,0.16-0.154,0.24c-0.116,0.186-0.224,0.376-0.325,0.569
	c-0.045,0.085-0.091,0.17-0.132,0.257c-0.118,0.249-0.225,0.503-0.318,0.763c-0.01,0.026-0.022,0.05-0.031,0.077
	c-0.099,0.289-0.18,0.585-0.247,0.884c-0.017,0.075-0.028,0.152-0.044,0.228c-0.045,0.231-0.081,0.462-0.106,0.697
	c-0.009,0.085-0.016,0.17-0.023,0.256c-0.019,0.242-0.025,0.485-0.022,0.73c0.001,0.068-0.001,0.136,0.001,0.203
	c0.024,0.622,0.119,1.247,0.293,1.868c0.007,0.023,0.009,0.047,0.015,0.07c0.019,0.064,0.047,0.125,0.067,0.188
	c0.045,0.143,0.084,0.287,0.137,0.431c0.026,0.069,0.059,0.132,0.087,0.201c0.042,0.103,0.086,0.203,0.132,0.304
	c0.09,0.199,0.187,0.391,0.291,0.579c0.045,0.082,0.089,0.164,0.137,0.244c0.141,0.236,0.292,0.463,0.454,0.681
	c0.02,0.026,0.036,0.055,0.056,0.08c0.196,0.257,0.404,0.499,0.626,0.729c0.022,0.023,0.046,0.043,0.068,0.064
	c0.193,0.196,0.396,0.379,0.607,0.553c0.064,0.054,0.131,0.104,0.197,0.155c0.181,0.14,0.367,0.272,0.558,0.397
	c0.075,0.049,0.15,0.098,0.226,0.145c0.227,0.138,0.461,0.263,0.701,0.378c0.039,0.019,0.075,0.04,0.115,0.059
	c0.281,0.129,0.57,0.239,0.864,0.337c0.023,0.008,0.044,0.019,0.066,0.025l37.543,11.974c0.828,0.264,1.668,0.39,2.493,0.39
	c3.472,0,6.696-2.224,7.808-5.708c1.376-4.313-1.005-8.925-5.318-10.3l-13.355-4.26c18.817-5.194,36.095-7.552,51.544-6.994
	c21.537,0.775,38.499,7.21,50.414,19.126c11.916,11.916,18.351,28.878,19.126,50.415c0.785,21.78-4.183,47.129-14.763,75.344
	c-5.441,14.507-12.204,29.331-20.154,44.292c-0.28,0.426-0.521,0.878-0.719,1.35c-24.393,45.51-59.799,92.26-102.854,135.315
	c-43.059,43.059-89.81,78.466-135.324,102.859c-0.464,0.195-0.907,0.433-1.327,0.706c-14.966,7.955-29.794,14.72-44.306,20.162
	c-28.214,10.581-53.566,15.551-75.344,14.764c-21.537-0.775-38.499-7.21-50.414-19.126c-11.899-11.897-18.332-28.826-19.123-50.317
	c-0.8-21.733,4.133-47.028,14.664-75.185c1.586-4.239-0.566-8.963-4.806-10.549c-4.235-1.585-8.962,0.566-10.548,4.807
	c-23.629,63.179-20.71,113.906,8.22,142.836c16.001,16,38.658,24.045,66.405,24.044c22.502,0,48.353-5.293,76.703-15.924
	c14.572-5.465,29.438-12.209,44.428-20.093c12.184,2.109,24.645,3.192,37.098,3.192c119.021,0,215.851-96.83,215.851-215.851
	c0-12.449-1.082-24.912-3.191-37.098c7.884-14.99,14.629-29.856,20.093-44.428C512.491,118.489,509.607,67.666,480.631,38.691z
	 M455.455,263.323c0,109.981-89.476,199.457-199.457,199.457c-4.321,0-8.644-0.149-12.953-0.425
	c40.175-24.208,80.621-56.166,118.221-93.766s69.557-78.045,93.765-118.22C455.308,254.68,455.455,259.002,455.455,263.323z"/>
<g>
</g>
<g>
</g>
<g>
</g>
<g>
</g>
<g>
</g>
<g>
</g>
<g>
</g>
<g>
</g>
<g>
</g>
<g>
</g>
<g>
</g>
<g>
</g>
<g>
</g>
<g>
</g>
<g>
</g>
</svg>
