<?xml version="1.0" encoding="iso-8859-1"?>
<!-- Generator: Adobe Illustrator 19.0.0, SVG Export Plug-In . SVG Version: 6.00 Build 0)  -->
<svg version="1.1" id="Layer_1" xmlns="http://www.w3.org/2000/svg" xmlns:xlink="http://www.w3.org/1999/xlink" x="0px" y="0px"
	 viewBox="0 0 512 512" style="enable-background:new 0 0 512 512;" xml:space="preserve">
<polygon style="fill:#CD3F39;" points="503.742,159.062 412.485,250.319 503.742,341.587 321.217,341.587 321.217,288.207 
	222.12,161.231 "/>
<polygon style="fill:#F14742;" points="321.217,161.231 321.217,288.207 30.258,288.207 30.258,52.301 321.217,52.301 "/>
<g>
	<polygon style="fill:#6FC5D6;" points="52.279,255.174 52.279,503.742 8.258,503.742 8.258,288.207 	"/>
	<path style="fill:#6FC5D6;" d="M52.279,15.966v69.368L8.258,52.301V15.966c0-4.261,3.446-7.708,7.708-7.708h28.606
		C48.833,8.258,52.279,11.705,52.279,15.966z"/>
</g>
<rect x="8.258" y="52.301" style="fill:#CD3F39;" width="44.021" height="235.905"/>
<path d="M424.16,250.322l85.423-85.421c2.376-2.377,3.075-5.959,1.766-9.055c-1.294-3.06-4.291-5.043-7.605-5.043
	c-0.041,0-0.08,0-0.121,0.001l-149.492,2.172c-4.561,0.066-8.203,3.816-8.137,8.377c0.066,4.519,3.749,8.138,8.255,8.138
	c0.04,0,0.081,0,0.122-0.001l129.14-1.876l-76.869,76.869c-3.225,3.226-3.225,8.454,0,11.679l77.164,77.164H329.476v-45.121
	c0-4.562-3.696-8.258-8.258-8.258H93.573V60.559H312.96v194.613c0,4.562,3.696,8.258,8.258,8.258c4.562,0,8.258-3.696,8.258-8.258
	V52.301c0-4.562-3.696-8.258-8.258-8.258H85.315c-4.561,0-8.258,3.696-8.258,8.258v235.903c0,4.562,3.697,8.258,8.258,8.258H312.96
	v45.121c0,4.562,3.696,8.258,8.258,8.258h182.524c3.34,0,6.352-2.012,7.629-5.098c1.278-3.086,0.573-6.637-1.789-9L424.16,250.322z"
	/>
<path d="M44.575,0H15.966C7.162,0,0,7.163,0,15.966v487.776C0,508.304,3.697,512,8.258,512s8.258-3.696,8.258-8.258v-207.28h27.508
	v207.28c0,4.562,3.697,8.258,8.258,8.258s8.258-3.696,8.258-8.258V15.966C60.54,7.163,53.379,0,44.575,0z M44.024,279.946H16.516
	V60.559h27.508V279.946z M44.024,44.043H16.516V16.516h27.508V44.043z"/>
<g>
</g>
<g>
</g>
<g>
</g>
<g>
</g>
<g>
</g>
<g>
</g>
<g>
</g>
<g>
</g>
<g>
</g>
<g>
</g>
<g>
</g>
<g>
</g>
<g>
</g>
<g>
</g>
<g>
</g>
</svg>
