<?xml version="1.0" encoding="iso-8859-1"?>
<!-- Generator: Adobe Illustrator 19.0.0, SVG Export Plug-In . SVG Version: 6.00 Build 0)  -->
<svg version="1.1" id="Layer_1" xmlns="http://www.w3.org/2000/svg" xmlns:xlink="http://www.w3.org/1999/xlink" x="0px" y="0px"
	 viewBox="0 0 512 512" style="enable-background:new 0 0 512 512;" xml:space="preserve">
<path style="fill:#F14742;" d="M303.001,399.655h-45.044c-12.193,51.375-57.806,78.55-112.61,79.801v24.01H415.61v-24.01
	C360.806,478.204,315.193,451.029,303.001,399.655z"/>
<circle style="fill:#6FC5D6;" cx="279.374" cy="174.441" r="135.134"/>
<path d="M413.842,471.475c-54.981-1.256-94.144-28.715-104.762-73.452c-0.883-3.723-4.208-6.351-8.035-6.351H286.78v-28.645
	c21.675-0.946,43.238-5.678,63.852-14.217c2.024-0.838,3.631-2.445,4.469-4.469c0.839-2.024,0.839-4.297,0-6.32l-4.313-10.412
	c-1.745-4.214-6.574-6.216-10.789-4.469c-4.214,1.745-6.216,6.577-4.469,10.789l1.078,2.603
	c-18.574,6.688-37.869,10.065-57.186,10.149c-0.295-0.032-0.596-0.051-0.9-0.051c-0.302,0-0.599,0.019-0.892,0.05
	c-21.965-0.137-43.931-4.534-64.865-13.205c-42.476-17.594-75.53-50.609-93.073-92.963c-17.544-42.354-17.516-89.072,0.078-131.547
	c16.534-39.917,46.683-71.511,85.408-89.734l1.078,2.603c1.746,4.214,6.577,6.216,10.789,4.469
	c4.214-1.745,6.214-6.576,4.469-10.789L217.201,5.1c-1.745-4.213-6.577-6.214-10.789-4.469
	c-95.994,39.762-141.741,150.206-101.98,246.2c19.232,46.43,55.461,82.619,102.011,101.901c20.635,8.548,42.179,13.303,63.82,14.283
	v28.658h-14.264c-3.826,0-7.151,2.628-8.035,6.351c-10.618,44.739-49.782,72.197-104.764,73.452c-4.486,0.102-8.07,3.768-8.07,8.256
	v24.01c0,4.561,3.697,8.258,8.258,8.258h270.262c4.562,0,8.258-3.697,8.258-8.258v-24.01
	C421.911,475.244,418.327,471.577,413.842,471.475z M405.395,495.482H151.649v-7.864c26.177-1.796,49.775-9.389,68.652-22.151
	c20.507-13.866,34.942-33.574,42.034-57.28h32.377c7.091,23.706,21.525,43.414,42.033,57.28
	c18.877,12.763,42.473,20.355,68.651,22.151v7.864H405.395z"/>
<path d="M135.133,174.719c0,79.066,64.323,143.39,143.389,143.39s143.39-64.325,143.39-143.39S357.588,31.329,278.522,31.329
	S135.133,95.654,135.133,174.719z M278.522,47.845c69.959,0,126.874,56.915,126.874,126.873s-56.915,126.874-126.874,126.874
	s-126.873-56.915-126.873-126.874S208.565,47.845,278.522,47.845z"/>
<g>
</g>
<g>
</g>
<g>
</g>
<g>
</g>
<g>
</g>
<g>
</g>
<g>
</g>
<g>
</g>
<g>
</g>
<g>
</g>
<g>
</g>
<g>
</g>
<g>
</g>
<g>
</g>
<g>
</g>
</svg>
