<?xml version="1.0" encoding="iso-8859-1"?>
<!-- Generator: Adobe Illustrator 19.0.0, SVG Export Plug-In . SVG Version: 6.00 Build 0)  -->
<svg version="1.1" id="Layer_1" xmlns="http://www.w3.org/2000/svg" xmlns:xlink="http://www.w3.org/1999/xlink" x="0px" y="0px"
	 viewBox="0 0 512 512" style="enable-background:new 0 0 512 512;" xml:space="preserve">
<g>
	<path style="fill:#605353;" d="M333.644,376.967c0,12.378,10.127,22.505,22.505,22.505h124.905
		c12.378,0,22.505-10.127,22.505-22.505v-36.009l-84.958-22.505l-84.958,22.505V376.967z"/>
	<path style="fill:#605353;" d="M503.56,135.033c0-12.378-10.127-22.505-22.505-22.505H356.149
		c-12.378,0-22.505,10.127-22.505,22.505v36.009l84.958,22.505l84.958-22.505V135.033z"/>
</g>
<rect x="333.644" y="171.042" style="fill:#FFD24D;" width="169.916" height="169.916"/>
<g>
	<path style="fill:#605353;" d="M8.44,376.967c0,12.378,10.127,22.505,22.505,22.505h124.906c12.378,0,22.505-10.127,22.505-22.505
		v-36.009l-84.958-22.505L8.44,340.958V376.967z"/>
	<path style="fill:#605353;" d="M178.356,135.033c0-12.378-10.127-22.505-22.505-22.505H30.945
		c-12.378,0-22.505,10.127-22.505,22.505v36.009l84.958,22.505l84.958-22.505V135.033z"/>
</g>
<rect x="8.44" y="171.042" style="fill:#FFD24D;" width="169.916" height="169.916"/>
<path d="M155.851,104.088H30.945C13.881,104.088,0,117.969,0,135.033v241.934c0,17.064,13.881,30.945,30.945,30.945h124.906
	c17.064,0,30.945-13.881,30.945-30.945V135.033C186.796,117.969,172.914,104.088,155.851,104.088z M16.879,179.481h153.037v153.037
	H16.879V179.481z M30.945,120.967h124.906c7.757,0,14.066,6.309,14.066,14.066v27.569H16.879v-27.569
	C16.879,127.276,23.189,120.967,30.945,120.967z M155.851,391.033H30.945c-7.757,0-14.066-6.309-14.066-14.066v-27.569h153.037
	v27.569C169.916,384.724,163.607,391.033,155.851,391.033z"/>
<path d="M73.143,150.224h40.51c4.661,0,8.44-3.779,8.44-8.44s-3.779-8.44-8.44-8.44h-40.51c-4.661,0-8.44,3.779-8.44,8.44
	S68.482,150.224,73.143,150.224z"/>
<path d="M481.055,104.088H356.149c-17.063,0-30.945,13.881-30.945,30.945v241.934c0,17.064,13.883,30.945,30.945,30.945h124.905
	c17.063,0,30.945-13.881,30.945-30.945V135.033C512,117.969,498.117,104.088,481.055,104.088z M342.084,179.481h153.037v153.037
	H342.084V179.481z M356.149,120.967h124.905c7.757,0,14.066,6.309,14.066,14.066v27.569H342.084v-27.569
	C342.084,127.276,348.393,120.967,356.149,120.967z M481.055,391.033H356.149c-7.757,0-14.066-6.309-14.066-14.066v-27.569h153.037
	v27.569C495.121,384.724,488.811,391.033,481.055,391.033z"/>
<path d="M398.347,150.224h40.51c4.662,0,8.44-3.779,8.44-8.44s-3.778-8.44-8.44-8.44h-40.51c-4.662,0-8.44,3.779-8.44,8.44
	S393.685,150.224,398.347,150.224z"/>
<path d="M299.886,292.571h-59.897l10.565-7.044c3.879-2.585,4.926-7.825,2.341-11.703c-2.585-3.878-7.825-4.925-11.703-2.341
	l-33.758,22.505c-0.002,0.001-0.005,0.003-0.007,0.006c-0.267,0.179-0.521,0.375-0.765,0.582c-0.07,0.059-0.134,0.122-0.2,0.182
	c-0.169,0.153-0.332,0.311-0.487,0.477c-0.072,0.077-0.143,0.154-0.212,0.233c-0.153,0.176-0.298,0.359-0.437,0.547
	c-0.048,0.065-0.099,0.127-0.145,0.194c-0.182,0.262-0.351,0.533-0.503,0.817c-0.005,0.008-0.008,0.016-0.011,0.024
	c-0.144,0.27-0.27,0.551-0.385,0.838c-0.029,0.073-0.054,0.147-0.081,0.222c-0.083,0.226-0.158,0.457-0.221,0.693
	c-0.024,0.089-0.047,0.178-0.069,0.269c-0.055,0.232-0.098,0.468-0.133,0.708c-0.012,0.087-0.029,0.171-0.039,0.259
	c-0.037,0.321-0.061,0.645-0.061,0.974s0.024,0.655,0.061,0.974c0.01,0.087,0.027,0.172,0.039,0.259
	c0.035,0.24,0.079,0.475,0.133,0.708c0.021,0.09,0.045,0.179,0.069,0.269c0.064,0.235,0.137,0.466,0.221,0.693
	c0.027,0.074,0.052,0.149,0.081,0.222c0.115,0.287,0.241,0.567,0.385,0.838c0.004,0.008,0.008,0.017,0.011,0.024
	c0.152,0.282,0.321,0.554,0.503,0.817c0.046,0.066,0.097,0.129,0.145,0.194c0.138,0.188,0.284,0.37,0.437,0.547
	c0.07,0.079,0.14,0.156,0.212,0.233c0.156,0.165,0.318,0.324,0.487,0.477c0.068,0.061,0.132,0.124,0.2,0.182
	c0.244,0.207,0.498,0.403,0.765,0.582c0.002,0.001,0.005,0.003,0.007,0.006l33.758,22.505c1.439,0.96,3.065,1.419,4.673,1.419
	c2.727,0,5.404-1.32,7.03-3.76c2.586-3.878,1.538-9.118-2.341-11.703l-10.565-7.044h59.897c4.662,0,8.44-3.779,8.44-8.44
	S304.548,292.571,299.886,292.571z"/>
<path d="M308.225,209.756c-0.035-0.24-0.079-0.476-0.133-0.708c-0.021-0.09-0.045-0.179-0.069-0.269
	c-0.064-0.235-0.137-0.466-0.221-0.692c-0.027-0.074-0.052-0.149-0.081-0.222c-0.114-0.286-0.24-0.565-0.384-0.835
	c-0.004-0.009-0.009-0.019-0.013-0.028c-0.152-0.282-0.321-0.554-0.502-0.815c-0.046-0.068-0.099-0.131-0.147-0.197
	c-0.138-0.187-0.281-0.369-0.434-0.544c-0.07-0.08-0.141-0.158-0.213-0.234c-0.156-0.165-0.32-0.324-0.488-0.477
	c-0.066-0.061-0.131-0.123-0.199-0.181c-0.245-0.208-0.5-0.404-0.766-0.583c-0.002-0.001-0.004-0.003-0.006-0.005l-33.758-22.505
	c-3.877-2.586-9.118-1.538-11.703,2.341c-2.586,3.878-1.537,9.118,2.341,11.703l10.566,7.044h-59.901c-4.661,0-8.44,3.779-8.44,8.44
	c0,4.661,3.779,8.44,8.44,8.44h59.897l-10.566,7.044c-3.878,2.585-4.926,7.825-2.341,11.703c1.626,2.44,4.302,3.76,7.03,3.76
	c1.609,0,3.235-0.459,4.673-1.419l33.758-22.505c0.002-0.001,0.005-0.003,0.006-0.005c0.268-0.179,0.522-0.375,0.766-0.583
	c0.069-0.059,0.133-0.122,0.199-0.181c0.169-0.153,0.332-0.311,0.488-0.477c0.072-0.077,0.144-0.154,0.213-0.234
	c0.152-0.174,0.296-0.357,0.434-0.544c0.048-0.066,0.1-0.129,0.147-0.197c0.181-0.261,0.351-0.532,0.502-0.815
	c0.005-0.009,0.009-0.019,0.014-0.028c0.143-0.27,0.269-0.549,0.384-0.835c0.029-0.073,0.054-0.147,0.081-0.222
	c0.083-0.226,0.156-0.457,0.221-0.692c0.024-0.089,0.047-0.178,0.069-0.269c0.055-0.232,0.098-0.468,0.133-0.708
	c0.012-0.086,0.029-0.171,0.039-0.258c0.037-0.321,0.061-0.645,0.061-0.974c0-0.33-0.024-0.655-0.061-0.974
	C308.254,209.927,308.238,209.842,308.225,209.756z"/>
<g>
</g>
<g>
</g>
<g>
</g>
<g>
</g>
<g>
</g>
<g>
</g>
<g>
</g>
<g>
</g>
<g>
</g>
<g>
</g>
<g>
</g>
<g>
</g>
<g>
</g>
<g>
</g>
<g>
</g>
</svg>
