<?xml version="1.0" encoding="iso-8859-1"?>
<!-- Generator: Adobe Illustrator 19.0.0, SVG Export Plug-In . SVG Version: 6.00 Build 0)  -->
<svg version="1.1" id="Layer_1" xmlns="http://www.w3.org/2000/svg" xmlns:xlink="http://www.w3.org/1999/xlink" x="0px" y="0px"
	 viewBox="0 0 511.999 511.999" style="enable-background:new 0 0 511.999 511.999;" xml:space="preserve">
<g>
	<path style="fill:#C2B8B9;" d="M296.109,149.56c0-19.186-15.698-34.884-34.884-34.884H101.437
		c-19.186,0-34.884,15.698-34.884,34.884v44.657l114.778,22.505l114.778-22.505V149.56z"/>
	<path style="fill:#C2B8B9;" d="M66.553,468.677c0,19.186,15.698,34.884,34.884,34.884h159.789
		c19.186,0,34.884-15.698,34.884-34.884V424.02l-114.778-22.505L66.553,424.02L66.553,468.677L66.553,468.677z"/>
</g>
<rect x="66.549" y="194.211" style="fill:#463836;" width="229.556" height="229.804"/>
<path style="fill:#FFD24D;" d="M445.447,126.852c0-65.396-66.757-118.413-149.099-118.413C214,8.44,147.249,61.456,147.249,126.852
	c0,58.425,53.279,106.963,123.359,116.649h-0.213c3.677,22.588-3.108,46.574-20.365,63.996c37.029,0,67.596-27.889,72.239-63.992
	h-0.213C392.147,233.829,445.447,185.286,445.447,126.852z"/>
<path d="M296.348,322.102c-4.662,0-8.44,3.779-8.44,8.44v85.039H74.993V202.656h64.973c4.662,0,8.44-3.779,8.44-8.44
	s-3.778-8.44-8.44-8.44H74.993V150.03c0-14.84,12.073-26.913,26.914-26.913h12.152c4.662,0,8.44-3.779,8.44-8.44
	c0-4.661-3.778-8.44-8.44-8.44h-12.152c-24.147,0-43.793,19.645-43.793,43.792v318.177c0,24.147,19.646,43.792,43.793,43.792
	h159.088c24.147,0,43.793-19.645,43.793-43.792V330.542C304.787,325.881,301.01,322.102,296.348,322.102z M260.994,495.121H101.907
	c-14.84,0-26.914-12.073-26.914-26.913V432.46h212.917v35.748C287.908,483.048,275.835,495.121,260.994,495.121z"/>
<path d="M220.065,118.518c-12.272-2.007-12.79-3.207-12.79-5.727c0-4.455,7.477-5.632,11.431-5.632
	c6.352,0,10.449,2.14,11.216,4.255c1.588,4.382,6.428,6.649,10.809,5.059c4.383-1.588,6.648-6.428,5.06-10.809
	c-3.439-9.489-13.817-15.384-27.085-15.384c-16.669,0-28.31,9.257-28.31,22.511c0,17.977,16.867,20.737,26.944,22.385
	c12.28,2.009,12.798,3.21,12.798,5.737c0,4.455-7.479,5.632-11.432,5.632c-6.352,0-10.45-2.141-11.216-4.257
	c-1.586-4.384-6.428-6.648-10.807-5.065c-4.383,1.586-6.65,6.424-5.065,10.807c3.435,9.495,13.814,15.394,27.088,15.394
	c16.669,0,28.311-9.257,28.311-22.511C247.018,122.927,230.146,120.167,220.065,118.518z"/>
<path d="M375.349,118.518c-12.272-2.007-12.79-3.207-12.79-5.727c0-4.455,7.477-5.632,11.431-5.632
	c6.351,0,10.449,2.141,11.217,4.256c1.588,4.382,6.426,6.65,10.809,5.058c4.383-1.589,6.647-6.429,5.058-10.811
	c-3.44-9.488-13.817-15.382-27.084-15.382c-16.669,0-28.31,9.257-28.31,22.511c0,17.977,16.867,20.737,26.944,22.385
	c12.28,2.009,12.798,3.21,12.798,5.737c0,4.455-7.479,5.632-11.432,5.632c-6.353,0-10.452-2.143-11.218-4.258
	c-1.586-4.382-6.422-6.653-10.807-5.064c-4.383,1.587-6.649,6.425-5.063,10.808c3.437,9.495,13.815,15.393,27.088,15.393
	c16.669,0,28.311-9.257,28.311-22.511C402.3,122.927,385.429,120.167,375.349,118.518z"/>
<path d="M323.28,90.802c-3.318-1.223-7.044-0.249-9.339,2.438l-17.594,20.612L278.754,93.24c-2.294-2.688-6.024-3.663-9.339-2.438
	c-3.316,1.222-5.519,4.383-5.519,7.919v56.264c0,4.661,3.778,8.44,8.44,8.44s8.44-3.779,8.44-8.44v-33.377l9.154,10.724
	c1.604,1.878,3.949,2.961,6.419,2.961c2.47,0,4.815-1.081,6.419-2.961l9.154-10.724v33.377c0,4.661,3.778,8.44,8.44,8.44
	s8.44-3.779,8.44-8.44V98.72C328.8,95.185,326.596,92.025,323.28,90.802z"/>
<path d="M407.024,36.513C377.376,12.967,338.071,0,296.347,0s-81.031,12.968-110.678,36.513c-30.218,24-46.86,56.083-46.86,90.339
	c0,60.131,51.726,111.412,123.948,123.966c1.314,18.747-5.467,37.357-18.723,50.74c-2.398,2.42-3.105,6.044-1.794,9.188
	c1.311,3.143,4.383,5.191,7.789,5.191c38.595,0,71.737-27.551,79.55-65.058c72.413-12.447,124.306-63.794,124.306-124.027
	C453.886,92.597,437.244,60.513,407.024,36.513z M320.904,235.144c-4.395,0.608-7.571,4.512-7.266,8.939
	c0.002,0.039,0.006,0.078,0.009,0.117c-3.884,24.845-21.622,44.717-44.547,51.931c8.805-15.595,12.422-33.898,9.925-52.002
	c0.001-0.017,0.002-0.033,0.003-0.048c0.305-4.426-2.871-8.332-7.265-8.939c-67.258-9.296-116.073-54.838-116.073-108.289
	c0-60.64,63.099-109.973,140.658-109.973c77.561,0,140.66,49.333,140.66,109.973C437.007,180.313,388.179,225.856,320.904,235.144z"
	/>
<g>
</g>
<g>
</g>
<g>
</g>
<g>
</g>
<g>
</g>
<g>
</g>
<g>
</g>
<g>
</g>
<g>
</g>
<g>
</g>
<g>
</g>
<g>
</g>
<g>
</g>
<g>
</g>
<g>
</g>
</svg>
