<?xml version="1.0" encoding="iso-8859-1"?>
<!-- Generator: Adobe Illustrator 19.0.0, SVG Export Plug-In . SVG Version: 6.00 Build 0)  -->
<svg version="1.1" id="Layer_1" xmlns="http://www.w3.org/2000/svg" xmlns:xlink="http://www.w3.org/1999/xlink" x="0px" y="0px"
	 viewBox="0 0 512 512" style="enable-background:new 0 0 512 512;" xml:space="preserve">
<path style="fill:#D6CED1;" d="M256,8.258c-119.14,0-149.643,79.275-149.643,132.035v231.414
	c0,52.759,30.502,132.034,149.643,132.034s149.643-79.275,149.643-132.034V140.294C405.643,87.533,375.14,8.258,256,8.258z"/>
<path style="fill:#FFFFFF;" d="M256,83.444c-16.114,0-29.178,13.063-29.178,29.178v44.831c0,16.115,13.064,29.178,29.178,29.178
	s29.178-13.063,29.178-29.178v-44.831C285.178,96.507,272.114,83.444,256,83.444z"/>
<path d="M381.782,49.133C353.989,16.532,311.67,0,256,0s-97.989,16.532-125.782,49.133c-27.945,32.78-32.117,71.185-32.117,91.16
	v231.414c0,19.976,4.172,58.38,32.117,91.16C158.011,495.47,200.33,512,256,512s97.989-16.53,125.782-49.132
	c27.945-32.78,32.117-71.185,32.117-91.16V140.294C413.9,120.318,409.728,81.913,381.782,49.133z M256,178.374
	c-11.536,0-20.92-9.384-20.92-20.92v-44.831c0-11.536,9.384-20.92,20.92-20.92c11.536,0,20.92,9.384,20.92,20.92v44.831
	C276.92,168.99,267.536,178.374,256,178.374z M397.384,371.708c0,20.668-6.816,123.776-141.384,123.776
	S114.616,392.376,114.616,371.708V140.294c0-20.238,6.555-119.484,133.126-123.628v59.449
	c-16.681,3.772-29.178,18.702-29.178,36.507v44.831c0,17.805,12.497,32.735,29.178,36.507v67.857c0,4.562,3.696,8.258,8.258,8.258
	c4.562,0,8.258-3.696,8.258-8.258v-67.857c16.681-3.772,29.178-18.702,29.178-36.507v-44.831c0-17.805-12.497-32.735-29.178-36.507
	V16.666c126.572,4.144,133.126,103.39,133.126,123.628V371.708z"/>
<g>
</g>
<g>
</g>
<g>
</g>
<g>
</g>
<g>
</g>
<g>
</g>
<g>
</g>
<g>
</g>
<g>
</g>
<g>
</g>
<g>
</g>
<g>
</g>
<g>
</g>
<g>
</g>
<g>
</g>
</svg>
