<?xml version="1.0" encoding="iso-8859-1"?>
<!-- Generator: Adobe Illustrator 19.0.0, SVG Export Plug-In . SVG Version: 6.00 Build 0)  -->
<svg version="1.1" id="Layer_1" xmlns="http://www.w3.org/2000/svg" xmlns:xlink="http://www.w3.org/1999/xlink" x="0px" y="0px"
	 viewBox="0 0 512 512" style="enable-background:new 0 0 512 512;" xml:space="preserve">
<g>
	<polygon style="fill:#8B7E7F;" points="41.441,339.213 41.474,419.694 77.135,419.5 77.135,339.213 	"/>
	<polygon style="fill:#8B7E7F;" points="470.559,339.213 470.618,419.5 434.864,419.5 434.864,339.213 	"/>
</g>
<g>
	<path style="fill:#463836;" d="M417.263,310.601l-22.022,68.756l22.022,68.756c15.802,0,28.611-12.81,28.611-28.611v-80.287
		C445.875,323.412,433.066,310.601,417.263,310.601z"/>
	<path style="fill:#463836;" d="M66.124,339.213V419.5c0,15.803,12.81,28.611,28.611,28.611l22.022-68.756L94.735,310.6
		C78.934,310.601,66.124,323.412,66.124,339.213z"/>
	<path style="fill:#463836;" d="M431.181,90.675C384.385,45.367,322.175,20.404,256,20.404S127.615,45.367,80.819,90.675
		C34.023,135.994,8.258,196.24,8.258,260.326c0,7.411,6.205,13.42,13.857,13.42c7.654,0,13.857-6.009,13.857-13.42
		c0-117.68,98.513-213.082,220.028-213.082c121.418,0,219.868,95.253,220.025,212.803c-0.002,0.095-0.014,0.185-0.014,0.28
		c0,7.417,6.208,13.428,13.866,13.428c7.658,0,13.866-6.012,13.866-13.428C503.742,196.24,477.977,135.994,431.181,90.675z"/>
</g>
<g>
	<path style="fill:#F14742;" d="M373.78,267.118c-24.017,0-43.485,19.469-43.485,43.484v137.511
		c0,24.017,19.468,43.484,43.485,43.484c24.016,0,43.485-19.468,43.485-43.484V310.601
		C417.263,286.587,397.795,267.118,373.78,267.118z"/>
	<path style="fill:#F14742;" d="M138.22,267.118c-24.016,0-43.485,19.469-43.485,43.484v137.511
		c0,24.017,19.468,43.484,43.485,43.484s43.485-19.468,43.485-43.484V310.601C181.705,286.587,162.237,267.118,138.22,267.118z"/>
</g>
<path d="M424.98,303.161c-3.619-25.018-25.196-44.303-51.2-44.303c-28.531,0-51.743,23.212-51.743,51.743v137.51
	c0,28.53,23.212,51.742,51.743,51.742c26.004,0,47.581-19.285,51.2-44.302c16.637-3.558,29.153-18.368,29.153-36.051v-80.287
	C454.133,321.529,441.617,306.719,424.98,303.161z M437.617,419.499c0,8.281-4.979,15.411-12.094,18.586v-72.43
	c0-4.562-3.696-8.258-8.258-8.258s-8.258,3.696-8.258,8.258v82.456c0,19.424-15.804,35.226-35.227,35.226
	s-35.227-15.803-35.227-35.226v-137.51c0-19.424,15.804-35.227,35.227-35.227s35.227,15.804,35.227,35.227v22.022
	c0,4.562,3.696,8.258,8.258,8.258s8.258-3.696,8.258-8.258v-11.996c7.115,3.174,12.094,10.303,12.094,18.585V419.499z"/>
<path d="M138.22,258.858c-26.004,0-47.582,19.286-51.2,44.303c-16.637,3.558-29.153,18.368-29.153,36.05v80.287
	c0,17.684,12.516,32.494,29.153,36.051c3.619,25.018,25.196,44.302,51.2,44.302c28.531,0,51.743-23.212,51.743-51.742V310.601
	C189.963,282.07,166.751,258.858,138.22,258.858z M173.447,448.111c0,19.424-15.804,35.226-35.227,35.226
	s-35.227-15.803-35.227-35.226v-82.456c0-4.562-3.696-8.258-8.258-8.258s-8.258,3.696-8.258,8.258v72.43
	c-7.115-3.176-12.094-10.304-12.094-18.586v-80.287c0-8.281,4.979-15.411,12.094-18.585v11.996c0,4.562,3.696,8.258,8.258,8.258
	s8.258-3.696,8.258-8.258v-22.022c0-19.424,15.804-35.227,35.227-35.227s35.227,15.804,35.227,35.227V448.111z"/>
<path d="M437.02,87.127C388.666,38.775,324.38,12.147,256,12.147S123.334,38.775,74.98,87.127C26.628,135.479,0,199.767,0,268.147
	c0,4.562,3.696,8.258,8.258,8.258h5.696c4.562,0,8.258-3.696,8.258-8.258c0-3.62-2.33-6.697-5.573-7.811
	c1.944-61.04,26.633-118.145,70.02-161.53C131.891,53.574,192.032,28.663,256,28.663s124.109,24.911,169.341,70.143
	c43.386,43.385,68.075,100.491,70.02,161.53c-3.242,1.115-5.571,4.191-5.571,7.811c0,4.562,3.696,8.258,8.258,8.258h5.695
	c4.562,0,8.258-3.696,8.258-8.258C512,199.767,485.372,135.479,437.02,87.127z"/>
<path d="M256,39.863c-125.875,0-228.283,102.408-228.283,228.284c0,17.649,2.024,35.225,6.016,52.257v58.952
	c0,4.562,3.696,8.258,8.258,8.258s8.258-3.696,8.258-8.258V319.44c0-0.646-0.076-1.292-0.226-1.919
	c-3.842-16.075-5.791-32.685-5.791-49.373c0-116.769,94.997-211.768,211.766-211.768s211.767,94.999,211.767,211.768
	c0,16.688-1.949,33.299-5.791,49.373c-0.15,0.628-0.226,1.273-0.226,1.919v59.916c0,4.562,3.696,8.258,8.258,8.258
	c4.562,0,8.258-3.696,8.258-8.258v-58.952c3.992-17.033,6.016-34.608,6.016-52.257C484.283,142.271,381.875,39.863,256,39.863z"/>
<g>
</g>
<g>
</g>
<g>
</g>
<g>
</g>
<g>
</g>
<g>
</g>
<g>
</g>
<g>
</g>
<g>
</g>
<g>
</g>
<g>
</g>
<g>
</g>
<g>
</g>
<g>
</g>
<g>
</g>
</svg>
