<?xml version="1.0" encoding="iso-8859-1"?>
<!-- Generator: Adobe Illustrator 19.0.0, SVG Export Plug-In . SVG Version: 6.00 Build 0)  -->
<svg version="1.1" id="Layer_1" xmlns="http://www.w3.org/2000/svg" xmlns:xlink="http://www.w3.org/1999/xlink" x="0px" y="0px"
	 viewBox="0 0 512 512" style="enable-background:new 0 0 512 512;" xml:space="preserve">
<g>
	<path style="fill:#609399;" d="M357.574,313.531l-134.606-4.647l-62.717-101.079l-148.975,9.436
		C9.293,229.871,8.258,242.809,8.258,256C8.258,392.82,119.18,503.742,256,503.742c68.41,0,130.345-27.725,175.181-72.561
		L357.574,313.531z"/>
	<path style="fill:#609399;" d="M256,8.258c-68.41,0-130.345,27.725-175.181,72.561l73.607,117.65l123.596,1.927l73.728,103.798
		l148.975-9.435c1.982-12.629,3.017-25.567,3.017-38.758C503.742,119.18,392.82,8.258,256,8.258z"/>
</g>
<g>
	<path style="fill:#B4E5EA;" d="M80.819,80.819c-36.192,36.192-61.231,83.528-69.544,136.423l148.975,23.597l27.208-53.38
		L80.819,80.819z"/>
	<path style="fill:#B4E5EA;" d="M351.75,271.162l-27.208,53.38l106.639,106.639c36.192-36.191,61.231-83.526,69.544-136.422
		L351.75,271.162z"/>
</g>
<path style="fill:#6FC5D6;" d="M256,159.075c-53.531,0-96.925,43.396-96.925,96.925c0,53.531,43.396,96.925,96.925,96.925
	s96.925-43.395,96.925-96.925C352.925,202.469,309.531,159.075,256,159.075z M256,289.583c-18.548,0-33.583-15.035-33.583-33.583
	s15.035-33.583,33.583-33.583s33.583,15.035,33.583,33.583S274.548,289.583,256,289.583z"/>
<path d="M437.019,74.981C388.666,26.63,324.38,0,256,0S123.334,26.63,74.981,74.981C26.63,123.334,0,187.62,0,256
	s26.63,132.666,74.981,181.019C123.334,485.371,187.62,512,256,512s132.666-26.629,181.019-74.981
	C485.371,388.666,512,324.38,512,256S485.371,123.334,437.019,74.981z M256,495.484C123.948,495.484,16.516,388.052,16.516,256
	S123.948,16.516,256,16.516S495.484,123.948,495.484,256S388.052,495.484,256,495.484z"/>
<path d="M256,150.816c-57.999,0-105.184,47.185-105.184,105.184S198.002,361.184,256,361.184S361.184,313.998,361.184,256
	S313.999,150.816,256,150.816z M256,344.667c-48.891,0-88.667-39.776-88.667-88.667s39.776-88.667,88.667-88.667
	s88.667,39.776,88.667,88.667S304.891,344.667,256,344.667z"/>
<path d="M256,214.159c-23.071,0-41.841,18.77-41.841,41.841s18.77,41.841,41.841,41.841s41.841-18.77,41.841-41.841
	S279.071,214.159,256,214.159z M256,281.325c-13.965,0-25.325-11.36-25.325-25.325s11.36-25.325,25.325-25.325
	s25.325,11.36,25.325,25.325S269.965,281.325,256,281.325z"/>
<path d="M158.265,169.945c1.613,1.612,3.727,2.418,5.84,2.418s4.227-0.806,5.84-2.418c3.225-3.226,3.225-8.454,0-11.679
	l-59.928-59.928c-3.226-3.224-8.454-3.224-11.679,0c-3.225,3.226-3.225,8.454,0,11.679L158.265,169.945z"/>
<path d="M128.934,227.514l-83.708-13.258c-4.506-0.715-8.735,2.361-9.447,6.864c-0.713,4.505,2.36,8.735,6.864,9.447l83.708,13.258
	c0.437,0.069,0.872,0.104,1.301,0.104c3.991,0,7.502-2.9,8.146-6.968C136.511,232.457,133.438,228.226,128.934,227.514z"/>
<path d="M353.735,342.055c-3.226-3.224-8.454-3.224-11.679,0c-3.225,3.226-3.225,8.454,0,11.679l59.928,59.928
	c1.613,1.612,3.727,2.418,5.84,2.418c2.113,0,4.227-0.806,5.84-2.418c3.225-3.226,3.225-8.454,0-11.679L353.735,342.055z"/>
<path d="M469.358,281.433l-83.708-13.258c-4.507-0.712-8.734,2.361-9.447,6.864c-0.713,4.503,2.36,8.735,6.864,9.447l83.708,13.258
	c0.437,0.069,0.872,0.103,1.301,0.103c3.991,0,7.502-2.9,8.146-6.968C476.936,286.375,473.863,282.145,469.358,281.433z"/>
<g>
</g>
<g>
</g>
<g>
</g>
<g>
</g>
<g>
</g>
<g>
</g>
<g>
</g>
<g>
</g>
<g>
</g>
<g>
</g>
<g>
</g>
<g>
</g>
<g>
</g>
<g>
</g>
<g>
</g>
</svg>
