<?xml version="1.0" encoding="iso-8859-1"?>
<!-- Generator: Adobe Illustrator 19.0.0, SVG Export Plug-In . SVG Version: 6.00 Build 0)  -->
<svg version="1.1" id="Layer_1" xmlns="http://www.w3.org/2000/svg" xmlns:xlink="http://www.w3.org/1999/xlink" x="0px" y="0px"
	 viewBox="0 0 512 512" style="enable-background:new 0 0 512 512;" xml:space="preserve">
<path style="fill:#609399;" d="M503.742,144.714v261.748c0,10.152-8.225,18.377-18.377,18.377h-45.569L256,391.807L72.204,424.839
	H26.635c-10.152,0-18.377-8.225-18.377-18.377V144.714L256,111.682L503.742,144.714z"/>
<path style="fill:#6FC5D6;" d="M503.742,105.538v39.176H8.258v-39.176c0-10.152,8.225-18.377,18.377-18.377h458.73
	C495.517,87.161,503.742,95.386,503.742,105.538z"/>
<polygon style="fill:#1B4145;" points="417.774,336.761 94.226,336.761 72.204,424.839 439.796,424.839 "/>
<rect x="243.58" y="194.758" style="fill:#ECE7EA;" width="119.081" height="78.452"/>
<path style="fill:#1B4145;" d="M243.58,194.757h-94.241v78.452h94.241c5.043-12.079,7.818-25.336,7.818-39.231
	S248.623,206.825,243.58,194.757z"/>
<g>
	<path style="fill:#FFFFFF;" d="M362.661,194.758c21.669,0,39.231,17.562,39.231,39.22c0,21.669-17.562,39.231-39.231,39.231
		c-21.658,0-39.22-17.562-39.22-39.231C323.441,212.32,341.003,194.758,362.661,194.758z"/>
	<path style="fill:#FFFFFF;" d="M149.339,194.758c21.658,0,39.22,17.562,39.22,39.22c0,21.669-17.562,39.231-39.22,39.231
		c-21.669,0-39.231-17.562-39.231-39.231C110.108,212.32,127.67,194.758,149.339,194.758z"/>
</g>
<path d="M425.786,334.758c-0.919-3.676-4.223-6.255-8.011-6.255H94.226c-3.789,0-7.092,2.579-8.011,6.255l-22.021,88.078
	c-0.618,2.467-0.063,5.08,1.502,7.085s3.966,3.177,6.51,3.177h367.592c2.543,0,4.944-1.172,6.508-3.177
	c1.566-2.004,2.12-4.617,1.503-7.085L425.786,334.758z M82.781,416.582l17.892-71.562h310.654l17.891,71.562H82.781z"/>
<path d="M243.855,233.983c0,5.313-0.444,10.637-1.318,15.827c-0.758,4.497,2.273,8.757,6.771,9.515
	c0.465,0.078,0.926,0.116,1.382,0.116c3.957,0,7.454-2.854,8.134-6.887c1.027-6.093,1.548-12.342,1.548-18.571
	c0-6.228-0.522-12.478-1.548-18.576c-0.758-4.497-5.01-7.526-9.515-6.771c-4.497,0.758-7.529,5.018-6.772,9.515
	C243.411,223.344,243.855,228.671,243.855,233.983z"/>
<path d="M485.365,78.902H26.635C11.949,78.902,0,90.851,0,105.538v300.924c0,14.687,11.949,26.635,26.635,26.635h12.537
	c4.561,0,8.258-3.696,8.258-8.258c0-4.562-3.697-8.258-8.258-8.258H26.635c-5.579,0-10.119-4.54-10.119-10.119V105.538
	c0-5.579,4.54-10.119,10.119-10.119h458.73c5.579,0,10.119,4.54,10.119,10.119v300.924c0,5.579-4.54,10.119-10.119,10.119h-12.537
	c-4.562,0-8.258,3.696-8.258,8.258c0,4.562,3.696,8.258,8.258,8.258h12.537c14.687,0,26.635-11.949,26.635-26.635V105.538
	C512,90.851,500.051,78.902,485.365,78.902z"/>
<path d="M149.334,186.499c-26.182,0-47.484,21.301-47.484,47.484c0,26.181,21.301,47.483,47.484,47.483h213.331
	c26.182,0,47.484-21.301,47.484-47.483c0-26.182-21.301-47.484-47.484-47.484H149.334z M326.715,203.015
	c-7.178,8.322-11.533,19.142-11.533,30.968c0,11.824,4.356,22.645,11.533,30.967H185.285c7.178-8.322,11.533-19.142,11.533-30.967
	c0-11.826-4.356-22.646-11.533-30.968H326.715z M118.367,233.983c0-17.075,13.892-30.968,30.968-30.968s30.968,13.892,30.968,30.968
	s-13.892,30.967-30.968,30.967C132.259,264.95,118.367,251.058,118.367,233.983z M393.633,233.983
	c0,17.075-13.892,30.967-30.968,30.967s-30.968-13.891-30.968-30.967s13.892-30.968,30.968-30.968S393.633,216.907,393.633,233.983z
	"/>
<path d="M481.086,144.715c0-4.562-3.696-8.258-8.258-8.258H39.172c-4.561,0-8.258,3.696-8.258,8.258
	c0,4.562,3.697,8.258,8.258,8.258h433.656C477.389,152.973,481.086,149.276,481.086,144.715z"/>
<g>
</g>
<g>
</g>
<g>
</g>
<g>
</g>
<g>
</g>
<g>
</g>
<g>
</g>
<g>
</g>
<g>
</g>
<g>
</g>
<g>
</g>
<g>
</g>
<g>
</g>
<g>
</g>
<g>
</g>
</svg>
