<?xml version="1.0" encoding="iso-8859-1"?>
<!-- Generator: Adobe Illustrator 19.0.0, SVG Export Plug-In . SVG Version: 6.00 Build 0)  -->
<svg version="1.1" id="Layer_1" xmlns="http://www.w3.org/2000/svg" xmlns:xlink="http://www.w3.org/1999/xlink" x="0px" y="0px"
	 viewBox="0 0 512 512" style="enable-background:new 0 0 512 512;" xml:space="preserve">
<path style="fill:#1B4145;" d="M411.403,466.264c0,20.699-16.779,37.478-37.478,37.478h-14.027l-103.896-44.043l-103.896,44.043
	h-14.027c-20.699,0-37.478-16.779-37.478-37.478V45.736c0-20.699,16.779-37.478,37.478-37.478h235.847
	c20.699,0,37.478,16.779,37.478,37.478v420.527H411.403z"/>
<polygon style="fill:#8B7E7F;" points="152.104,189.887 152.104,503.742 359.897,503.742 359.897,189.887 256.001,156.855 "/>
<rect x="152.103" y="59.766" style="fill:#6FC5D6;" width="207.795" height="130.125"/>
<circle style="fill:#D6CED1;" cx="256.001" cy="412.066" r="19.572"/>
<circle style="fill:#FFFFFF;" cx="256.001" cy="291.19" r="61.458"/>
<circle style="fill:#D6CED1;" cx="256.001" cy="291.19" r="24.323"/>
<path d="M373.925,0H138.076C112.857,0,92.34,20.517,92.34,45.736v420.527c0,25.219,20.517,45.736,45.736,45.736h235.847
	c25.219,0,45.736-20.517,45.736-45.736V45.736C419.661,20.517,399.144,0,373.925,0z M403.145,466.264
	c0,16.112-13.108,29.22-29.22,29.22H138.076c-16.112,0-29.22-13.108-29.22-29.22V45.736c0-16.112,13.108-29.22,29.22-29.22h235.847
	c16.112,0,29.22,13.108,29.22,29.22v420.527H403.145z"/>
<path d="M359.897,51.505H152.104c-4.561,0-8.258,3.696-8.258,8.258v130.124v262.35c0,4.562,3.697,8.258,8.258,8.258
	s8.258-3.696,8.258-8.258V198.145h13.763c4.561,0,8.258-3.696,8.258-8.258c0-4.562-3.697-8.258-8.258-8.258h-13.763V68.021h191.277
	v113.608H207.158c-4.561,0-8.258,3.696-8.258,8.258c0,4.562,3.697,8.258,8.258,8.258h144.481v254.092
	c0,4.562,3.697,8.258,8.258,8.258c4.561,0,8.258-3.696,8.258-8.258v-262.35V59.763C368.155,55.202,364.458,51.505,359.897,51.505z"
	/>
<path d="M256.001,384.232c-15.346,0-27.83,12.485-27.83,27.83c0,15.345,12.484,27.83,27.83,27.83s27.83-12.485,27.83-27.83
	C283.83,396.717,271.346,384.232,256.001,384.232z M256.001,423.377c-6.239,0-11.314-5.075-11.314-11.314
	s5.075-11.314,11.314-11.314c6.239,0,11.314,5.075,11.314,11.314S262.239,423.377,256.001,423.377z"/>
<path d="M256.001,221.474c-38.441,0-69.715,31.274-69.715,69.715s31.274,69.715,69.715,69.715s69.715-31.274,69.715-69.715
	S294.441,221.474,256.001,221.474z M256.001,344.387c-29.334,0-53.198-23.865-53.198-53.198s23.865-53.198,53.198-53.198
	s53.198,23.865,53.198,53.198S285.334,344.387,256.001,344.387z"/>
<path d="M256.001,258.612c-17.963,0-32.576,14.613-32.576,32.576s14.613,32.578,32.576,32.578s32.576-14.613,32.576-32.578
	C288.577,273.226,273.963,258.612,256.001,258.612z M256.001,307.25c-8.856,0-16.06-7.205-16.06-16.061
	c0-8.856,7.204-16.06,16.06-16.06c8.856,0,16.06,7.204,16.06,16.06C272.061,300.044,264.856,307.25,256.001,307.25z"/>
<g>
</g>
<g>
</g>
<g>
</g>
<g>
</g>
<g>
</g>
<g>
</g>
<g>
</g>
<g>
</g>
<g>
</g>
<g>
</g>
<g>
</g>
<g>
</g>
<g>
</g>
<g>
</g>
<g>
</g>
</svg>
