<?xml version="1.0" encoding="iso-8859-1"?>
<!-- Generator: Adobe Illustrator 19.0.0, SVG Export Plug-In . SVG Version: 6.00 Build 0)  -->
<svg version="1.1" id="Layer_1" xmlns="http://www.w3.org/2000/svg" xmlns:xlink="http://www.w3.org/1999/xlink" x="0px" y="0px"
	 viewBox="0 0 511.999 511.999" style="enable-background:new 0 0 511.999 511.999;" xml:space="preserve">
<path style="fill:#463836;" d="M302.847,149.692L16.224,455.456c-10.382,11.076-10.095,28.921,0.641,39.656
	c10.735,10.735,28.581,11.023,39.656,0.641l305.763-286.623L302.847,149.692z"/>
<polygon style="fill:#FFD24D;" points="386.016,305.966 343.561,263.512 258.521,316.023 206.011,401.063 248.465,443.517 "/>
<rect x="108.74" y="166.253" transform="matrix(-0.7071 0.7071 -0.7071 -0.7071 537.9946 304.1802)" style="fill:#FEE191;" width="194.52" height="194.52"/>
<path style="fill:#F14742;" d="M476.449,165.528c-82.122,82.122-120.102,61.899-156,26s-56.121-73.88,26-156
	c35.899-35.899,94.101-35.899,130,0S512.348,129.629,476.449,165.528z"/>
<path d="M355.68,227.143c7.261,2.713,15.085,4.296,23.618,4.296c0.685,0,1.379-0.01,2.074-0.031
	c29.11-0.866,61.259-19.863,101.177-59.78c18.991-18.991,29.45-44.242,29.45-71.1c0-26.859-10.46-52.109-29.45-71.1
	c-39.206-39.204-102.995-39.204-142.201,0c-39.916,39.918-58.913,72.067-59.78,101.176c-0.278,9.343,1.342,17.839,4.273,25.682
	l-17.566,18.739L212.11,119.86c-1.618-1.618-3.812-2.527-6.1-2.527c-2.289,0-4.481,0.909-6.1,2.527L62.359,257.412
	c-1.617,1.617-2.526,3.812-2.526,6.099s0.909,4.482,2.526,6.099l60.003,60.003L9.931,449.556
	c-13.56,14.464-13.186,37.637,0.834,51.656c7.164,7.164,16.716,10.764,26.277,10.763c9.149,0,18.307-3.299,25.379-9.929
	l119.941-112.433l60.003,60.003c1.618,1.618,3.812,2.527,6.1,2.527c2.289,0,4.481-0.909,6.1-2.527l137.55-137.551
	c3.369-3.369,3.369-8.831,0-12.198l-42.451-42.451c-0.001-0.001-0.001-0.002-0.002-0.003s-0.002-0.001-0.003-0.002l-12.709-12.709
	L355.68,227.143z M297.814,131.119c0.718-24.106,18.621-53.379,54.735-89.492c16.239-16.239,37.569-24.359,58.9-24.359
	s42.662,8.12,58.9,24.359c15.734,15.733,24.399,36.651,24.399,58.9s-8.665,43.168-24.399,58.9
	c-36.112,36.113-65.386,54.017-89.492,54.735c-8.149,0.247-15.583-1.439-22.691-4.656c-0.382-0.217-0.779-0.396-1.183-0.551
	c-10.399-4.979-20.138-13.229-30.436-23.528c-10.299-10.298-18.546-20.027-23.525-30.424c-0.156-0.409-0.336-0.811-0.557-1.197
	C299.255,146.705,297.571,139.273,297.814,131.119z M293.208,172.589c5.94,9.091,13.404,17.301,21.141,25.039
	c7.738,7.738,15.948,15.205,25.037,21.145l-14.64,13.723l-45.265-45.265L293.208,172.589z M50.622,489.46
	c-7.746,7.262-20.153,7.058-27.659-0.446c-7.506-7.506-7.706-19.913-0.446-27.657l112.051-119.535l35.588,35.588L50.622,489.46z
	 M248.465,431.319l-30.255-30.255l26.431-26.431c3.369-3.369,3.369-8.831,0-12.198c-3.37-3.369-8.831-3.369-12.199,0l-26.431,26.431
	L80.658,263.512L206.011,138.16l125.352,125.353l-74.523,74.523c-3.369,3.369-3.369,8.831,0,12.198
	c1.685,1.684,3.893,2.527,6.1,2.527s4.415-0.842,6.1-2.527l74.523-74.523l30.255,30.255L248.465,431.319z"/>
<path d="M335.175,123.684c2.353,0,4.707-0.894,6.498-2.681c0.002-0.002,0.005-0.005,0.008-0.008
	c3.587-3.587,3.587-9.425-0.008-13.021c-3.584-3.575-9.413-3.573-13.006,0.008c-3.587,3.587-3.587,9.425,0.008,13.021
	C330.468,122.791,332.822,123.684,335.175,123.684z"/>
<path d="M335.256,137.555c-4.674,1.943-6.905,7.331-4.97,12.014c0.94,2.273,2.71,4.043,4.982,4.984
	c1.135,0.47,2.327,0.705,3.519,0.705c1.193,0,2.384-0.235,3.518-0.704c0.005-0.001,0.009-0.003,0.014-0.006
	c4.674-1.943,6.905-7.331,4.97-12.014c-0.94-2.273-2.71-4.043-4.982-4.984C340.036,136.611,337.537,136.611,335.256,137.555z"/>
<g>
</g>
<g>
</g>
<g>
</g>
<g>
</g>
<g>
</g>
<g>
</g>
<g>
</g>
<g>
</g>
<g>
</g>
<g>
</g>
<g>
</g>
<g>
</g>
<g>
</g>
<g>
</g>
<g>
</g>
</svg>
