<?xml version="1.0" encoding="iso-8859-1"?>
<!-- Generator: Adobe Illustrator 19.0.0, SVG Export Plug-In . SVG Version: 6.00 Build 0)  -->
<svg version="1.1" id="Layer_1" xmlns="http://www.w3.org/2000/svg" xmlns:xlink="http://www.w3.org/1999/xlink" x="0px" y="0px"
	 viewBox="0 0 512 512" style="enable-background:new 0 0 512 512;" xml:space="preserve">
<path style="fill:#1B4145;" d="M503.742,424.321v33.032c-41.544,0-98.546-37.051-158.775-37.051
	c-35.488,0-57.729,14.644-71.096,29.278H256l-22.021-102.598L503.742,424.321z"/>
<path style="fill:#609399;" d="M256,346.982V449.58h-17.87c-13.367-14.633-35.609-29.278-71.096-29.278
	c-60.229,0-117.231,37.051-158.775,37.051v-33.032L256,346.982z"/>
<path style="fill:#6FC5D6;" d="M503.742,91.698v332.624c-41.544,0-98.546-37.051-158.775-37.051
	c-35.488,0-57.729,14.644-71.096,29.278H256L211.957,264.88L256,113.213c0,0,17.992-58.566,88.967-58.566
	C405.196,54.646,462.198,91.698,503.742,91.698z"/>
<path style="fill:#B4E5EA;" d="M256,113.213v303.335h-17.87c-13.367-14.644-35.609-29.278-71.096-29.278
	c-60.229,0-117.231,37.051-158.775,37.051V91.698c41.544,0,98.546-37.051,158.775-37.051C238.008,54.646,256,113.213,256,113.213z"
	/>
<path d="M264.258,392.061V145.474c0-4.562-3.696-8.258-8.258-8.258c-4.562,0-8.258,3.696-8.258,8.258v246.587
	c0,4.562,3.696,8.258,8.258,8.258C260.562,400.319,264.258,396.623,264.258,392.061z"/>
<path d="M503.742,83.442c-17.459,0-39.214-7.534-62.247-15.509c-29.17-10.101-62.234-21.549-96.524-21.549
	c-39.677,0-63.883,17.387-77.202,31.973c-4.981,5.457-8.842,10.925-11.768,15.775c-2.927-4.85-6.787-10.318-11.768-15.775
	c-13.32-14.586-37.525-31.973-77.202-31.973c-34.291,0-67.354,11.448-96.524,21.549C47.472,75.908,25.717,83.442,8.258,83.442
	C3.696,83.442,0,87.138,0,91.7v332.626c0,4.562,3.696,8.258,8.258,8.258c20.238,0,43.269-7.975,67.651-16.418
	c27.94-9.674,59.608-20.64,91.119-20.64c27.02,0,48.891,8.947,65.005,26.593c3.074,3.367,8.299,3.604,11.667,0.529
	c3.368-3.075,3.604-8.299,0.529-11.667c-13.32-14.585-37.525-31.972-77.201-31.972c-34.291,0-67.354,11.448-96.524,21.549
	c-19.528,6.764-38.138,13.206-53.989,15.012V99.548c18.158-1.73,38.268-8.694,59.393-16.009c27.94-9.674,59.608-20.64,91.119-20.64
	c63.731,0,80.406,50.608,81.077,52.735c1.066,3.466,4.268,5.833,7.895,5.833s6.829-2.366,7.895-5.833
	c0.161-0.527,16.938-52.735,81.077-52.735c31.512,0,63.18,10.966,91.119,20.64c21.126,7.316,41.235,14.279,59.393,16.009V415.57
	c-15.851-1.806-34.461-8.248-53.989-15.011c-29.17-10.101-62.234-21.549-96.524-21.549c-39.678,0-63.884,17.387-77.202,31.973
	c-3.075,3.369-2.839,8.592,0.529,11.667c3.369,3.075,8.593,2.839,11.667-0.529c16.114-17.647,37.985-26.594,65.006-26.594
	c31.512,0,63.18,10.966,91.12,20.64c24.383,8.443,47.414,16.418,67.651,16.418c4.562,0,8.258-3.696,8.258-8.258V91.7
	C512,87.139,508.304,83.442,503.742,83.442z"/>
<path d="M503.742,449.1c-17.459,0-39.214-7.534-62.247-15.509c-29.17-10.101-62.234-21.549-96.524-21.549
	c-37.264,0-60.88,15.336-74.648,29.284l-28.647-0.001c-13.769-13.948-37.386-29.283-74.647-29.283
	c-34.291,0-67.354,11.448-96.524,21.549C47.472,441.566,25.717,449.1,8.258,449.1C3.696,449.1,0,452.796,0,457.358
	s3.696,8.258,8.258,8.258c20.238,0,43.269-7.975,67.651-16.418c27.94-9.674,59.608-20.64,91.119-20.64
	c27.02,0,48.891,8.947,65.005,26.593c1.565,1.713,3.778,2.689,6.098,2.689l35.734,0.001c2.32,0,4.533-0.977,6.098-2.689
	c16.114-17.647,37.985-26.594,65.006-26.594c31.512,0,63.18,10.966,91.12,20.64c24.383,8.443,47.415,16.418,67.651,16.418
	c4.562,0,8.258-3.696,8.258-8.258S508.304,449.1,503.742,449.1z"/>
<g>
</g>
<g>
</g>
<g>
</g>
<g>
</g>
<g>
</g>
<g>
</g>
<g>
</g>
<g>
</g>
<g>
</g>
<g>
</g>
<g>
</g>
<g>
</g>
<g>
</g>
<g>
</g>
<g>
</g>
</svg>
