<?xml version="1.0" encoding="iso-8859-1"?>
<!-- Generator: Adobe Illustrator 19.0.0, SVG Export Plug-In . SVG Version: 6.00 Build 0)  -->
<svg version="1.1" id="Layer_1" xmlns="http://www.w3.org/2000/svg" xmlns:xlink="http://www.w3.org/1999/xlink" x="0px" y="0px"
	 viewBox="0 0 512 512" style="enable-background:new 0 0 512 512;" xml:space="preserve">
<g>
	<rect x="211.583" y="25.468" style="fill:#605353;" width="88.846" height="79.982"/>
	<polygon style="fill:#605353;" points="503.742,442.214 503.742,486.532 8.258,486.532 8.258,442.214 256,409.182 	"/>
</g>
<polygon style="fill:#8B7E7F;" points="467.572,363.971 503.742,442.214 8.258,442.214 44.428,363.971 256,330.939 "/>
<path style="fill:#FFD24D;" d="M437.399,83.43H74.601c-16.654,0-30.171,13.495-30.171,30.169v250.368h423.138V113.599
	C467.568,96.924,454.045,83.43,437.399,83.43z"/>
<circle style="fill:#FFFFFF;" cx="256" cy="178.352" r="56.05"/>
<path style="fill:#FFF1CD;" d="M345.042,327.384c-12.716-34.24-47.777-58.845-89.042-58.845s-76.325,24.605-89.042,58.845H345.042z"
	/>
<path d="M256,243.168c35.46,0,64.308-28.848,64.308-64.308S291.46,114.551,256,114.551s-64.308,28.848-64.308,64.308
	S220.54,243.168,256,243.168z M256,131.066c26.353,0,47.792,21.44,47.792,47.792s-21.44,47.792-47.792,47.792
	s-47.792-21.44-47.792-47.792S229.647,131.066,256,131.066z"/>
<path d="M256,260.282c-40.097,0-75.734,24.025-90.791,61.208c-1.712,4.228,0.327,9.042,4.555,10.754
	c4.228,1.718,9.042-0.326,10.754-4.554c12.519-30.915,42.147-50.892,75.482-50.892c33.334,0,62.964,19.977,75.483,50.892
	c1.3,3.212,4.391,5.161,7.657,5.161c1.032,0,2.081-0.195,3.097-0.607c4.227-1.712,6.266-6.526,4.554-10.754
	C331.734,284.308,296.097,260.282,256,260.282z"/>
<path d="M280.575,399.121h-49.15c-4.561,0-8.258,3.696-8.258,8.258c0,4.562,3.697,8.258,8.258,8.258h49.15
	c4.562,0,8.258-3.696,8.258-8.258C288.833,402.817,285.137,399.121,280.575,399.121z"/>
<path d="M511.986,441.929c-0.003-0.111-0.009-0.22-0.017-0.331c-0.018-0.237-0.046-0.47-0.084-0.701
	c-0.012-0.076-0.021-0.154-0.035-0.23c-0.122-0.644-0.32-1.262-0.582-1.843c-0.011-0.025-0.019-0.053-0.03-0.078l-35.411-76.594
	V113.6c0-21.189-17.238-38.428-38.428-38.428H308.678V25.469c0-4.562-3.696-8.258-8.258-8.258H211.58
	c-4.561,0-8.258,3.696-8.258,8.258v49.704H74.601c-21.19,0-38.429,17.238-38.429,38.428v248.551L0.762,438.745
	c-0.012,0.025-0.019,0.054-0.031,0.079c-0.262,0.581-0.459,1.196-0.581,1.84c-0.015,0.079-0.023,0.16-0.036,0.24
	c-0.036,0.227-0.065,0.457-0.081,0.689c-0.009,0.115-0.013,0.226-0.018,0.34C0.011,442.026,0,442.117,0,442.211v44.32
	c0,4.562,3.697,8.258,8.258,8.258h495.484c4.562,0,8.258-3.696,8.258-8.258v-44.32C512,442.115,511.989,442.022,511.986,441.929z
	 M219.839,33.727h72.323v41.446h-72.323L219.839,33.727L219.839,33.727z M52.69,113.6c0-12.083,9.83-21.911,21.912-21.911H437.4
	c12.082,0,21.911,9.829,21.911,21.911v242.11H52.69V113.6z M49.711,372.226H462.29l28.537,61.727H21.174L49.711,372.226z
	 M495.484,478.273H16.516v-27.804h478.968V478.273z"/>
<path d="M256,45.631c-4.863,0-8.819,3.956-8.819,8.819s3.956,8.819,8.819,8.819c4.862,0,8.82-3.956,8.82-8.819
	S260.862,45.631,256,45.631z"/>
<g>
</g>
<g>
</g>
<g>
</g>
<g>
</g>
<g>
</g>
<g>
</g>
<g>
</g>
<g>
</g>
<g>
</g>
<g>
</g>
<g>
</g>
<g>
</g>
<g>
</g>
<g>
</g>
<g>
</g>
</svg>
