<?xml version="1.0" encoding="iso-8859-1"?>
<!-- Generator: Adobe Illustrator 19.0.0, SVG Export Plug-In . SVG Version: 6.00 Build 0)  -->
<svg version="1.1" id="Layer_1" xmlns="http://www.w3.org/2000/svg" xmlns:xlink="http://www.w3.org/1999/xlink" x="0px" y="0px"
	 viewBox="0 0 512 512" style="enable-background:new 0 0 512 512;" xml:space="preserve">
<rect x="81.898" y="63.729" style="fill:#ECE7EA;" width="348.215" height="440.012"/>
<path style="fill:#8B7E7F;" d="M337.434,38.377H286.12c0-16.633-13.485-30.119-30.12-30.119s-30.12,13.486-30.12,30.119h-51.315
	c-8.009,0-14.502,6.493-14.502,14.502v36.214h191.873V52.879C351.937,44.871,345.444,38.377,337.434,38.377z"/>
<g>
	<rect x="160.063" y="412.881" style="fill:#FFFFFF;" width="39.639" height="39.639"/>
	<rect x="160.063" y="322.031" style="fill:#FFFFFF;" width="39.639" height="39.639"/>
	<rect x="160.063" y="231.171" style="fill:#FFFFFF;" width="39.639" height="39.639"/>
	<rect x="160.063" y="140.31" style="fill:#FFFFFF;" width="39.639" height="39.639"/>
</g>
<path d="M430.106,55.471h-45.137c-4.562,0-8.258,3.696-8.258,8.258s3.696,8.258,8.258,8.258h36.879v423.497H90.152V71.987h36.879
	c4.562,0,8.258-3.696,8.258-8.258s-3.696-8.258-8.258-8.258H81.894c-4.562,0-8.258,3.696-8.258,8.258v440.013
	c0,4.562,3.696,8.258,8.258,8.258h348.213c4.562,0,8.258-3.696,8.258-8.258V63.729C438.365,59.167,434.668,55.471,430.106,55.471z"
	/>
<path d="M160.063,97.352h137.501c4.562,0,8.258-3.696,8.258-8.258s-3.696-8.258-8.258-8.258H168.321V52.879
	c0-3.443,2.801-6.244,6.244-6.244h51.315c4.562,0,8.258-3.696,8.258-8.258c0-12.055,9.807-21.861,21.862-21.861
	s21.862,9.806,21.862,21.861c0,4.562,3.696,8.258,8.258,8.258h51.315c3.443,0,6.244,2.801,6.244,6.244v27.956h-13.082
	c-4.562,0-8.258,3.696-8.258,8.258s3.696,8.258,8.258,8.258h21.34c4.562,0,8.258-3.696,8.258-8.258V52.879
	c0-12.55-10.209-22.76-22.76-22.76h-43.951C289.697,12.913,274.328,0,256,0s-33.697,12.913-37.484,30.119h-43.951
	c-12.55,0-22.76,10.209-22.76,22.76v36.214C151.805,93.655,155.503,97.352,160.063,97.352z"/>
<path d="M160.063,460.781h39.639c4.562,0,8.258-3.696,8.258-8.258v-39.639c0-4.562-3.696-8.258-8.258-8.258h-39.639
	c-4.562,0-8.258,3.696-8.258,8.258v39.639C151.805,457.085,155.503,460.781,160.063,460.781z M168.321,421.143h23.123v23.123
	h-23.123V421.143z"/>
<path d="M351.937,424.446H232.734c-4.562,0-8.258,3.696-8.258,8.258c0,4.562,3.696,8.258,8.258,8.258h119.202
	c4.562,0,8.258-3.696,8.258-8.258C360.195,428.142,356.497,424.446,351.937,424.446z"/>
<path d="M160.063,369.924h39.639c4.562,0,8.258-3.696,8.258-8.258v-39.639c0-4.562-3.696-8.258-8.258-8.258h-39.639
	c-4.562,0-8.258,3.696-8.258,8.258v39.639C151.805,366.226,155.503,369.924,160.063,369.924z M168.321,330.285h23.123v23.123
	h-23.123V330.285z"/>
<path d="M351.937,333.588H232.734c-4.562,0-8.258,3.696-8.258,8.258c0,4.562,3.696,8.258,8.258,8.258h119.202
	c4.562,0,8.258-3.696,8.258-8.258C360.195,337.285,356.497,333.588,351.937,333.588z"/>
<path d="M160.063,279.066h39.639c4.562,0,8.258-3.696,8.258-8.258V231.17c0-4.562-3.696-8.258-8.258-8.258h-39.639
	c-4.562,0-8.258,3.696-8.258,8.258v39.639C151.805,275.37,155.503,279.066,160.063,279.066z M168.321,239.428h23.123v23.123h-23.123
	V239.428z"/>
<path d="M351.937,242.731H232.734c-4.562,0-8.258,3.696-8.258,8.258c0,4.562,3.696,8.258,8.258,8.258h119.202
	c4.562,0,8.258-3.696,8.258-8.258C360.195,246.427,356.497,242.731,351.937,242.731z"/>
<path d="M160.063,188.209h39.639c4.562,0,8.258-3.696,8.258-8.258v-39.639c0-4.562-3.696-8.258-8.258-8.258h-39.639
	c-4.562,0-8.258,3.696-8.258,8.258v39.639C151.805,184.512,155.503,188.209,160.063,188.209z M168.321,148.57h23.123v23.123h-23.123
	V148.57z"/>
<path d="M351.937,151.874H232.734c-4.562,0-8.258,3.696-8.258,8.258c0,4.562,3.696,8.258,8.258,8.258h119.202
	c4.562,0,8.258-3.696,8.258-8.258C360.195,155.57,356.497,151.874,351.937,151.874z"/>
<g>
</g>
<g>
</g>
<g>
</g>
<g>
</g>
<g>
</g>
<g>
</g>
<g>
</g>
<g>
</g>
<g>
</g>
<g>
</g>
<g>
</g>
<g>
</g>
<g>
</g>
<g>
</g>
<g>
</g>
</svg>
