<?xml version="1.0" encoding="iso-8859-1"?>
<!-- Generator: Adobe Illustrator 19.0.0, SVG Export Plug-In . SVG Version: 6.00 Build 0)  -->
<svg version="1.1" id="Layer_1" xmlns="http://www.w3.org/2000/svg" xmlns:xlink="http://www.w3.org/1999/xlink" x="0px" y="0px"
	 viewBox="0 0 512 512" style="enable-background:new 0 0 512 512;" xml:space="preserve">
<g>
	<path style="fill:#C2B8B9;" d="M109.557,459.699c0,24.224,19.819,44.043,44.043,44.043h204.8c24.224,0,44.043-19.819,44.043-44.043
		v-57.256L256,380.422l-146.443,22.022V459.699z"/>
	<path style="fill:#C2B8B9;" d="M402.443,52.301c0-24.224-19.819-44.043-44.043-44.043H153.6c-24.224,0-44.043,19.819-44.043,44.043
		v57.256L256,131.578l146.443-22.021V52.301z"/>
</g>
<circle style="fill:#FFFFFF;" cx="256" cy="453.092" r="16.516"/>
<rect x="109.557" y="109.557" style="fill:#463836;" width="292.886" height="292.886"/>
<path d="M256,428.296c-13.661,0-24.774,11.114-24.774,24.774s11.113,24.774,24.774,24.774c13.66,0,24.774-11.114,24.774-24.774
	S269.66,428.296,256,428.296z M256,461.329c-4.554,0-8.258-3.705-8.258-8.258c0-4.553,3.704-8.258,8.258-8.258
	s8.258,3.705,8.258,8.258C264.258,457.623,260.554,461.329,256,461.329z"/>
<path d="M221.163,67.188h69.674c4.562,0,8.258-3.697,8.258-8.258s-3.696-8.258-8.258-8.258h-69.674
	c-4.561,0-8.258,3.697-8.258,8.258S216.602,67.188,221.163,67.188z"/>
<path d="M357.35,0H154.652c-29.391,0-53.302,23.911-53.302,53.302v405.396c0,29.391,23.911,53.302,53.302,53.302H357.35
	c29.39,0,53.301-23.911,53.301-53.302V53.302C410.65,23.911,386.741,0,357.35,0z M117.866,117.86h276.27v276.28h-276.27V117.86z
	 M154.652,16.516H357.35c20.283,0,36.785,16.502,36.785,36.786v48.042H117.866V53.302C117.866,33.018,134.368,16.516,154.652,16.516
	z M357.35,495.484H154.652c-20.284,0-36.786-16.502-36.786-36.786v-48.042h276.27v48.042
	C394.134,478.982,377.633,495.484,357.35,495.484z"/>
<g>
</g>
<g>
</g>
<g>
</g>
<g>
</g>
<g>
</g>
<g>
</g>
<g>
</g>
<g>
</g>
<g>
</g>
<g>
</g>
<g>
</g>
<g>
</g>
<g>
</g>
<g>
</g>
<g>
</g>
</svg>
