<?xml version="1.0" encoding="iso-8859-1"?>
<!-- Generator: Adobe Illustrator 19.0.0, SVG Export Plug-In . SVG Version: 6.00 Build 0)  -->
<svg version="1.1" id="Layer_1" xmlns="http://www.w3.org/2000/svg" xmlns:xlink="http://www.w3.org/1999/xlink" x="0px" y="0px"
	 viewBox="0 0 511.999 511.999" style="enable-background:new 0 0 511.999 511.999;" xml:space="preserve">
<g>
	<path style="fill:#C2B8B9;" d="M306.933,149.56c0-19.186-15.698-34.884-34.884-34.884H112.261
		c-19.186,0-34.884,15.698-34.884,34.884v44.657l114.778,22.505l114.778-22.505V149.56z"/>
	<path style="fill:#C2B8B9;" d="M77.377,468.677c0,19.186,15.698,34.884,34.884,34.884H272.05c19.186,0,34.884-15.698,34.884-34.884
		V424.02l-114.778-22.505L77.377,424.02V468.677z"/>
</g>
<rect x="77.377" y="194.211" style="fill:#463836;" width="229.556" height="229.804"/>
<path style="fill:#FFD24D;" d="M434.622,109.848c0-56.006-57.171-101.409-127.688-101.409c-70.523,0-127.688,45.403-127.688,101.409
	c0,50.035,45.629,91.603,105.644,99.899h-0.182c3.15,19.345-2.661,39.886-17.441,54.805c31.711,0,57.89-23.884,61.865-54.802h-0.181
	C388.976,201.462,434.622,159.89,434.622,109.848z"/>
<path d="M307.053,281.202c-4.662,0-8.44,3.779-8.44,8.44V415.58H85.698V202.656h94.903c4.662,0,8.44-3.779,8.44-8.44
	s-3.778-8.44-8.44-8.44H85.698V150.03c0-14.84,12.073-26.913,26.913-26.913h33.106c4.662,0,8.44-3.779,8.44-8.44
	c0-4.661-3.778-8.44-8.44-8.44h-33.106c-24.147,0-43.792,19.645-43.792,43.792v318.177c0,24.147,19.645,43.792,43.792,43.792H271.7
	c24.147,0,43.792-19.645,43.792-43.792V289.641C315.492,284.98,311.715,281.202,307.053,281.202z M271.7,495.121H112.611
	c-14.84,0-26.913-12.073-26.913-26.913V432.46h212.916v35.748C298.613,483.048,286.54,495.121,271.7,495.121z"/>
<path d="M307.053,0c-75.06,0-136.128,49.278-136.128,109.848c0,51.83,44.266,96.059,106.211,107.191
	c0.812,15.388-4.861,30.586-15.745,41.573c-2.398,2.419-3.105,6.044-1.794,9.188c1.311,3.144,4.383,5.192,7.789,5.192
	c33.351,0,62.03-23.611,69.141-55.874c62.175-11.003,106.652-55.314,106.652-107.269C443.182,49.278,382.114,0,307.053,0z
	 M327.916,201.389c-4.384,0.605-7.555,4.494-7.268,8.909c-3.131,19.69-16.654,35.634-34.4,42.362
	c6.572-12.923,9.182-27.74,7.187-42.413c0.26-4.393-2.901-8.256-7.27-8.86c-56.993-7.877-98.36-46.375-98.36-91.538
	c-0.001-51.264,53.494-92.97,119.248-92.97s119.25,41.706,119.25,92.969C426.302,155.02,384.925,193.519,327.916,201.389z"/>
<path d="M262.042,100.846c-4.964,0-9.002,4.039-9.002,9.002c0,4.964,4.039,9.002,9.002,9.002c4.964,0,9.002-4.039,9.002-9.002
	C271.044,104.885,267.005,100.846,262.042,100.846z"/>
<path d="M352.064,100.846c-4.964,0-9.002,4.039-9.002,9.002c0,4.964,4.039,9.002,9.002,9.002c4.964,0,9.002-4.039,9.002-9.002
	C361.066,104.885,357.027,100.846,352.064,100.846z"/>
<path d="M307.053,100.846c-4.964,0-9.002,4.039-9.002,9.002c0,4.964,4.039,9.002,9.002,9.002c4.964,0,9.002-4.039,9.002-9.002
	C316.055,104.885,312.016,100.846,307.053,100.846z"/>
<g>
</g>
<g>
</g>
<g>
</g>
<g>
</g>
<g>
</g>
<g>
</g>
<g>
</g>
<g>
</g>
<g>
</g>
<g>
</g>
<g>
</g>
<g>
</g>
<g>
</g>
<g>
</g>
<g>
</g>
</svg>
