<?xml version="1.0" encoding="iso-8859-1"?>
<!-- Generator: Adobe Illustrator 19.0.0, SVG Export Plug-In . SVG Version: 6.00 Build 0)  -->
<svg version="1.1" id="Layer_1" xmlns="http://www.w3.org/2000/svg" xmlns:xlink="http://www.w3.org/1999/xlink" x="0px" y="0px"
	 viewBox="0 0 512 512" style="enable-background:new 0 0 512 512;" xml:space="preserve">
<path style="fill:#C2B8B9;" d="M402.443,52.301c0-24.224-19.819-44.043-44.043-44.043H153.6c-24.224,0-44.043,19.819-44.043,44.043
	v57.256L256,131.578l146.443-22.021V52.301z"/>
<polygon style="fill:#605353;" points="109.557,109.557 109.557,402.443 256,424.465 402.443,402.443 402.443,109.557 "/>
<path style="fill:#C2B8B9;" d="M109.557,459.699c0,24.224,19.819,44.043,44.043,44.043h204.8c24.224,0,44.043-19.819,44.043-44.043
	v-57.256H109.557V459.699z"/>
<g>
	<circle style="fill:#FFFFFF;" cx="256" cy="453.092" r="16.516"/>
	<path style="fill:#FFFFFF;" d="M256,297.841c-46.824,0-84.783,27.606-84.783,61.66h169.566
		C340.783,325.447,302.824,297.841,256,297.841z"/>
</g>
<circle style="fill:#FAD4C6;" cx="254.899" cy="210.856" r="56.155"/>
<path d="M256,275.519c35.6,0,64.564-28.963,64.564-64.563S291.6,146.393,256,146.393s-64.564,28.963-64.564,64.563
	S220.4,275.519,256,275.519z M256,162.91c26.494,0,48.048,21.554,48.048,48.047S282.494,259.003,256,259.003
	s-48.048-21.554-48.048-48.047S229.506,162.91,256,162.91z"/>
<path d="M347.169,354.249c-15.119-37.337-50.905-61.463-91.169-61.463s-76.049,24.126-91.169,61.463
	c-1.711,4.227,0.328,9.042,4.555,10.754c4.23,1.712,9.042-0.327,10.755-4.555c12.581-31.07,42.357-51.146,75.86-51.146
	s63.279,20.076,75.86,51.146c1.301,3.212,4.392,5.161,7.658,5.161c1.032,0,2.081-0.195,3.097-0.606
	C346.841,363.291,348.88,358.477,347.169,354.249z"/>
<path d="M256,428.296c-13.66,0-24.774,11.114-24.774,24.774S242.34,477.845,256,477.845c13.66,0,24.774-11.114,24.774-24.774
	S269.66,428.296,256,428.296z M256,461.329c-4.554,0-8.258-3.705-8.258-8.258c0-4.553,3.704-8.258,8.258-8.258
	c4.554,0,8.258,3.705,8.258,8.258C264.258,457.623,260.554,461.329,256,461.329z"/>
<path d="M221.163,67.188h69.673c4.562,0,8.258-3.697,8.258-8.258s-3.696-8.258-8.258-8.258h-69.673
	c-4.562,0-8.258,3.697-8.258,8.258S216.602,67.188,221.163,67.188z"/>
<path d="M357.35,0H154.65c-29.39,0-53.301,23.911-53.301,53.302v405.396c0,29.391,23.911,53.302,53.301,53.302H357.35
	c29.39,0,53.301-23.911,53.301-53.302V53.302C410.65,23.911,386.74,0,357.35,0z M117.866,117.86h276.269v276.28H117.866V117.86z
	 M154.65,16.516H357.35c20.283,0,36.785,16.502,36.785,36.786v48.042H117.866V53.302C117.866,33.018,134.368,16.516,154.65,16.516z
	 M357.35,495.484H154.65c-20.283,0-36.785-16.502-36.785-36.786v-48.042h276.269v48.042
	C394.134,478.982,377.633,495.484,357.35,495.484z"/>
<g>
</g>
<g>
</g>
<g>
</g>
<g>
</g>
<g>
</g>
<g>
</g>
<g>
</g>
<g>
</g>
<g>
</g>
<g>
</g>
<g>
</g>
<g>
</g>
<g>
</g>
<g>
</g>
<g>
</g>
</svg>
