<?xml version="1.0" encoding="iso-8859-1"?>
<!-- Generator: Adobe Illustrator 19.0.0, SVG Export Plug-In . SVG Version: 6.00 Build 0)  -->
<svg version="1.1" id="Layer_1" xmlns="http://www.w3.org/2000/svg" xmlns:xlink="http://www.w3.org/1999/xlink" x="0px" y="0px"
	 viewBox="0 0 512 512" style="enable-background:new 0 0 512 512;" xml:space="preserve">
<path style="fill:#F14742;" d="M163.649,125.25h-61.04c-5.176,0-9.372,4.196-9.372,9.373v48.833h79.786v-48.833
	C173.022,129.445,168.825,125.25,163.649,125.25z"/>
<polygon style="fill:#609399;" points="439.737,82.375 439.737,138.063 317.698,138.063 317.698,82.375 378.718,49.294 "/>
<rect x="317.696" y="23.931" style="fill:#B4E5EA;" width="122.039" height="58.445"/>
<path style="fill:#1B4145;" d="M503.728,161.397V438.06c0,27.623-22.385,50.009-50.009,50.009H131.668L8.273,223.095l61.698-61.698
	h126.318c33.402-34.857,34.703-45.388,65.237-45.388H458.34C483.405,116.009,503.728,136.332,503.728,161.397z"/>
<g>
	<path style="fill:#609399;" d="M131.668,223.095v264.975H57.509c-27.623,0-49.237-22.385-49.237-50.009V223.095H131.668z"/>
	<circle style="fill:#609399;" cx="317.696" cy="302.038" r="136.187"/>
</g>
<g>
	<path style="fill:#B4E5EA;" d="M317.699,405.146c-56.852,0-103.105-46.253-103.105-103.105s46.253-103.105,103.105-103.105
		s103.105,46.253,103.105,103.105S374.55,405.146,317.699,405.146z"/>
	<circle style="fill:#B4E5EA;" cx="69.968" cy="223.105" r="61.699"/>
</g>
<path style="fill:#609399;" d="M69.969,251.717c-15.779,0-28.616-12.838-28.616-28.617s12.838-28.616,28.616-28.616
	s28.616,12.838,28.616,28.616C98.585,238.879,85.748,251.717,69.969,251.717z"/>
<path d="M458.339,107.74h-10.335V23.928c0-4.569-3.702-8.27-8.27-8.27H317.699c-4.569,0-8.27,3.702-8.27,8.27v83.813h-47.904
	c-27.806,0-36.016,9.164-54.007,29.241c-4.239,4.731-8.975,10.016-14.778,16.151h-12.909v-18.51c0-9.728-7.915-17.643-17.644-17.643
	h-61.042c-9.728,0-17.643,7.914-17.643,17.643v18.509H69.968C31.388,153.131,0,184.519,0,223.099v214.967
	c0,15.582,5.904,30.194,16.623,41.145c10.813,11.048,25.334,17.132,40.886,17.132h396.214c32.135,0,58.278-26.142,58.278-58.277
	V161.401C512,131.813,487.927,107.74,458.339,107.74z M431.463,32.198v41.904H325.97V32.198
	C325.97,32.198,431.463,32.198,431.463,32.198z M325.97,90.643h105.494v17.098H325.97L325.97,90.643L325.97,90.643z
	 M100.045,134.622c0-0.608,0.494-1.102,1.102-1.102h61.04c0.609,0,1.103,0.494,1.103,1.102v18.509h-63.245V134.622z M69.968,169.672
	c29.46,0,53.428,23.967,53.428,53.427s-23.968,53.428-53.428,53.428s-53.427-23.968-53.427-53.428S40.508,169.672,69.968,169.672z
	 M495.459,438.067c0,23.013-18.723,41.736-41.737,41.736H57.508c-22.973-0.001-40.967-18.334-40.967-41.736V268.208
	c12.845,15.19,32.024,24.861,53.427,24.861c21.404,0,40.584-9.671,53.428-24.861v186.783c0,4.569,3.702,8.27,8.27,8.27
	c4.569,0,8.27-3.702,8.27-8.27V223.099c0-21.404-9.671-40.583-24.861-53.427h81.207c2.255,0,4.412-0.921,5.971-2.548
	c7.124-7.435,12.922-13.904,17.58-19.104c17.607-19.65,21.271-23.738,41.689-23.738h56.174h122.035h18.605
	c20.469,0,37.12,16.652,37.12,37.12v276.666H495.459z"/>
<path d="M317.699,157.584c-79.653,0-144.457,64.804-144.457,144.457s64.804,144.457,144.457,144.457s144.457-64.804,144.457-144.457
	S397.353,157.584,317.699,157.584z M317.699,429.958c-70.534,0-127.916-57.383-127.916-127.916s57.383-127.916,127.916-127.916
	s127.916,57.383,127.916,127.916S388.232,429.958,317.699,429.958z"/>
<path d="M317.698,190.666c-61.412,0-111.376,49.964-111.376,111.376s49.964,111.376,111.376,111.376s111.376-49.964,111.376-111.376
	S379.11,190.666,317.698,190.666z M317.698,396.876c-52.292,0-94.835-42.542-94.835-94.835s42.542-94.835,94.835-94.835
	s94.835,42.542,94.835,94.835S369.99,396.876,317.698,396.876z"/>
<path d="M345.867,293.771c-4.569,0-8.27,3.702-8.27,8.27c0,10.972-8.927,19.899-19.899,19.899c-10.972,0-19.9-8.927-19.9-19.899
	c0-10.972,8.928-19.899,19.9-19.899c4.569,0,8.27-3.702,8.27-8.27s-3.702-8.27-8.27-8.27c-20.094,0-36.441,16.347-36.441,36.44
	c0,20.093,16.347,36.44,36.441,36.44c20.093,0,36.44-16.347,36.44-36.44C354.138,297.474,350.436,293.771,345.867,293.771z"/>
<path d="M69.968,259.987c20.339,0,36.886-16.548,36.886-36.887c0-20.339-16.548-36.886-36.886-36.886s-36.886,16.546-36.886,36.885
	C33.082,243.44,49.629,259.987,69.968,259.987z M69.968,202.754c11.219,0,20.345,9.126,20.345,20.345s-9.126,20.346-20.345,20.346
	s-20.345-9.127-20.345-20.346S58.749,202.754,69.968,202.754z"/>
<g>
</g>
<g>
</g>
<g>
</g>
<g>
</g>
<g>
</g>
<g>
</g>
<g>
</g>
<g>
</g>
<g>
</g>
<g>
</g>
<g>
</g>
<g>
</g>
<g>
</g>
<g>
</g>
<g>
</g>
</svg>
