<?xml version="1.0" encoding="iso-8859-1"?>
<!-- Generator: Adobe Illustrator 19.0.0, SVG Export Plug-In . SVG Version: 6.00 Build 0)  -->
<svg version="1.1" id="Layer_1" xmlns="http://www.w3.org/2000/svg" xmlns:xlink="http://www.w3.org/1999/xlink" x="0px" y="0px"
	 viewBox="0 0 511.999 511.999" style="enable-background:new 0 0 511.999 511.999;" xml:space="preserve">
<ellipse style="fill:#C2B8B9;" cx="62.171" cy="237.781" rx="51.763" ry="69.767"/>
<path style="fill:#D6CED1;" d="M59.629,202.138c-8.739,2.471-15.462,17.485-15.462,35.645s6.724,33.173,15.462,35.645
	l282.396,90.227V111.91L59.629,202.138z"/>
<path style="fill:#F14742;" d="M342.025,111.91c-20.165,27.312-33.418,73.495-33.418,125.872c0,52.376,13.254,98.559,33.418,125.872
	l72.69,23.177V88.732L342.025,111.91z"/>
<ellipse style="fill:#8B7E7F;" cx="426.198" cy="237.781" rx="75.393" ry="150.787"/>
<path d="M427.604,77.711c-5.371,0-10.608,0.916-15.675,2.657l-311.445,99.508c-10.968-12.785-25.364-20.019-40.283-20.019
	C27.007,159.858,0,194.941,0,238.064s27.007,78.207,60.202,78.207c14.92,0,29.315-7.233,40.283-20.02l33.571,10.726v8.827
	c0,4.661,3.778,8.44,8.44,8.44s8.44-3.779,8.44-8.44v-3.433l135.407,43.263c-3.083,34.575-32.197,61.774-67.56,61.774
	c-37.411,0-67.846-30.435-67.846-67.846c0-4.661-3.778-8.44-8.44-8.44c-4.662,0-8.44,3.779-8.44,8.44
	c0,46.718,38.007,84.725,84.725,84.725c42.882,0,78.401-32.03,83.949-73.417l109.182,34.884c5.073,1.744,10.315,2.662,15.691,2.662
	c47.325,0,84.396-70.434,84.396-160.352S474.929,77.711,427.604,77.711z M345.315,356.756
	c-18.968-27.159-30.238-71.237-30.238-118.693c0-13.7,0.937-27.259,2.785-40.299c0.654-4.615-2.557-8.886-7.172-9.54
	c-4.608-0.655-8.885,2.557-9.54,7.173c-1.958,13.823-2.952,28.179-2.952,42.668c0,41.848,8.432,81.573,23.088,111.015l-23.661-7.56
	c-0.027-0.009-0.055-0.018-0.082-0.026L145.05,292.772c-0.026-0.008-0.051-0.017-0.077-0.025l-44.812-14.318
	c-0.028-0.009-0.056-0.018-0.084-0.027l-39.848-12.731c-0.09-0.029-0.181-0.056-0.272-0.082c-3.252-0.919-9.318-11.183-9.318-27.523
	c0-16.341,6.067-26.605,9.318-27.523c0.091-0.026,0.182-0.053,0.272-0.082l39.855-12.734c0.025-0.008,0.048-0.015,0.073-0.024
	l221.128-70.651c-4.996,10.022-9.325,21.296-12.8,33.454c-1.282,4.481,1.313,9.153,5.794,10.434
	c0.775,0.222,1.556,0.327,2.324,0.327c3.672,0,7.051-2.416,8.11-6.123c5.157-18.046,12.255-33.799,20.597-45.769l31.367-10.022
	c-20.452,28.996-33.468,75.432-33.468,128.71s13.016,99.714,33.468,128.712L345.315,356.756z M60.202,299.391
	c-23.888,0-43.323-27.512-43.323-61.327s19.435-61.327,43.323-61.327c7.947,0,15.605,3.099,22.307,8.883l-27.305,8.724
	c-12.636,3.702-21.447,21.641-21.447,43.72c0,22.08,8.812,40.019,21.449,43.72l27.304,8.723
	C75.808,296.292,68.149,299.391,60.202,299.391z M427.604,381.536c-2.826,0-5.617-0.394-8.364-1.153
	c-0.047-0.016-0.092-0.037-0.141-0.053l-2.401-0.767c-31.63-11.456-56.61-71.597-56.61-141.499
	c0-69.911,24.987-130.059,56.623-141.503l2.389-0.763c0.047-0.015,0.09-0.036,0.136-0.052c2.748-0.76,5.542-1.155,8.369-1.155
	c36.597,0,67.517,65.703,67.517,143.473S464.202,381.536,427.604,381.536z"/>
<g>
</g>
<g>
</g>
<g>
</g>
<g>
</g>
<g>
</g>
<g>
</g>
<g>
</g>
<g>
</g>
<g>
</g>
<g>
</g>
<g>
</g>
<g>
</g>
<g>
</g>
<g>
</g>
<g>
</g>
</svg>
