<?xml version="1.0" encoding="iso-8859-1"?>
<!-- Generator: Adobe Illustrator 19.0.0, SVG Export Plug-In . SVG Version: 6.00 Build 0)  -->
<svg version="1.1" id="Layer_1" xmlns="http://www.w3.org/2000/svg" xmlns:xlink="http://www.w3.org/1999/xlink" x="0px" y="0px"
	 viewBox="0 0 512 512" style="enable-background:new 0 0 512 512;" xml:space="preserve">
<path style="fill:#D6CED1;" d="M96.888,30.093C41.962,85.02,65.116,197.227,148.604,280.717
	c104.706,104.706,216.913,85.426,250.624,51.716l7.956-7.956l-302.34-302.34L96.888,30.093z"/>
<ellipse transform="matrix(0.7071 -0.7071 0.7071 0.7071 -47.5532 231.7858)" style="fill:#ECE7EA;" cx="256.014" cy="173.295" rx="106.892" ry="213.784"/>
<path d="M282.062,497.155l-73.41-62.97c-0.007-0.006-0.013-0.012-0.021-0.018l-51.589-44.253v-71.222
	c0-4.661-3.777-8.439-8.439-8.439s-8.439,3.778-8.439,8.439v71.222L15.145,497.155c-3.539,3.035-3.946,8.362-0.911,11.899
	c3.034,3.536,8.361,3.947,11.899,0.911l68.886-59.091l45.144,24v28.686c0,4.661,3.777,8.439,8.439,8.439s8.439-3.778,8.439-8.439
	v-28.685l45.145-24l68.885,59.089c1.592,1.366,3.545,2.034,5.49,2.034c2.378,0,4.74-0.999,6.409-2.945
	C286.008,505.517,285.601,500.19,282.062,497.155z M108.778,439.074l31.387-26.924v43.61L108.778,439.074z M157.043,455.76v-43.61
	l31.387,26.924L157.043,455.76z"/>
<path d="M425.052,270.563c-0.001,0-0.003,0-0.004,0c-4.661,0.002-8.437,3.782-8.434,8.442c0.009,18.785-5.17,33.494-15.394,43.72
	c-0.001,0.001-0.002,0.002-0.003,0.003l-0.01,0.01c-17.814,17.802-49.449,20.33-89.077,7.121
	c-41.608-13.87-86.262-43.246-125.732-82.716s-68.847-84.123-82.716-125.732c-13.213-39.638-10.68-71.276,7.131-89.088
	c17.811-17.811,49.449-20.343,89.087-7.131c41.61,13.87,86.263,43.246,125.732,82.716c30.922,30.922,55.791,65.198,71.918,99.123
	c2.001,4.21,7.038,5.998,11.244,3.999c4.209-2.001,6-7.036,3.999-11.245c-16.944-35.645-42.956-71.543-75.225-103.811
	C296.28,54.686,249.283,23.863,205.236,9.181c-46.017-15.34-83.79-11.36-106.359,11.208c-0.008,0.008-0.015,0.016-0.023,0.024
	l-7.934,7.933C62.282,56.985,52.215,100.409,62.575,150.62c10.099,48.932,38.53,98.753,80.061,140.284
	c60.045,60.044,118.602,76.756,157.152,80.201c5.6,0.501,11.174,0.746,16.68,0.746c36.671,0,70.348-10.852,88.727-29.231
	l7.946-7.947c0.003-0.003,0.007-0.006,0.01-0.009c13.317-13.319,20.35-32.568,20.339-55.665
	C433.489,274.338,429.712,270.563,425.052,270.563z M301.29,354.294c-35.766-3.198-90.255-18.862-146.719-75.325
	C93.139,217.537,65.189,140.207,78.789,84.255c0.89,13.108,3.832,27.351,8.879,42.494c14.683,44.047,45.505,91.043,86.793,132.329
	c41.288,41.288,88.284,72.111,132.33,86.794c10.978,3.659,21.482,6.21,31.428,7.681C326.975,355.084,314.571,355.481,301.29,354.294
	z"/>
<path d="M497.329,158.989l-37.793-37.792c-3.297-3.296-8.639-3.296-11.935,0c-3.296,3.296-3.296,8.639,0,11.934l1.99,1.989
	l-17.902,17.901c-3.297,3.296-3.297,8.638-0.001,11.934c1.648,1.648,3.808,2.472,5.968,2.472c2.159,0,4.32-0.824,5.967-2.472
	l17.903-17.902l17.903,17.902L361.435,282.947c-3.296,3.296-3.296,8.639,0,11.934c1.648,1.647,3.809,2.472,5.968,2.472
	s4.32-0.824,5.968-2.472l123.958-123.958c1.582-1.582,2.471-3.729,2.471-5.967C499.8,162.718,498.911,160.571,497.329,158.989z"/>
<g>
</g>
<g>
</g>
<g>
</g>
<g>
</g>
<g>
</g>
<g>
</g>
<g>
</g>
<g>
</g>
<g>
</g>
<g>
</g>
<g>
</g>
<g>
</g>
<g>
</g>
<g>
</g>
<g>
</g>
</svg>
