<?xml version="1.0" encoding="iso-8859-1"?>
<!-- Generator: Adobe Illustrator 19.0.0, SVG Export Plug-In . SVG Version: 6.00 Build 0)  -->
<svg version="1.1" id="Layer_1" xmlns="http://www.w3.org/2000/svg" xmlns:xlink="http://www.w3.org/1999/xlink" x="0px" y="0px"
	 viewBox="0 0 512 512" style="enable-background:new 0 0 512 512;" xml:space="preserve">
<path style="fill:#F14742;" d="M440.878,9.988H103.46L80.628,31.774v450.345L449.44,463.02V18.55
	C449.44,13.82,445.608,9.988,440.878,9.988z"/>
<path style="fill:#CD3F39;" d="M103.46,9.988v472.131l-40.9,1.827V30.913c0-11.553,9.373-20.925,20.925-20.925
	C83.485,9.988,103.46,9.988,103.46,9.988z"/>
<circle style="fill:#FAD4C6;" cx="272.168" cy="247.464" r="69.249"/>
<path style="fill:#F99D88;" d="M272.171,357.809c-46.492,0-86.269,28.648-102.708,69.246h205.417
	C358.44,386.457,318.663,357.809,272.171,357.809z"/>
<path style="fill:#FFF1CD;" d="M92.047,463.014c-11.558,0-20.927,9.369-20.927,20.927s9.369,20.927,20.927,20.927h348.831v-41.852
	H92.047V463.014z"/>
<path d="M349.979,247.299c0-42.902-34.904-77.807-77.808-77.807c-42.902,0-77.807,34.904-77.807,77.807
	c0,42.904,34.904,77.808,77.807,77.808C315.074,325.107,349.979,290.202,349.979,247.299z M211.488,247.299
	c0-33.461,27.223-60.683,60.683-60.683s60.684,27.223,60.684,60.683s-27.224,60.684-60.684,60.684S211.488,280.76,211.488,247.299z"
	/>
<path d="M297.811,272.939c3.344-3.345,3.344-8.765,0-12.109c-3.345-3.343-8.765-3.343-12.109,0c-7.46,7.463-19.601,7.463-27.062,0
	c-3.345-3.343-8.765-3.343-12.109,0c-3.344,3.345-3.344,8.765,0,12.109c6.84,6.839,15.947,10.607,25.64,10.607
	S290.971,279.778,297.811,272.939z"/>
<path d="M272.171,349.53c-48.866,0-92.296,29.28-110.645,74.595c-1.774,4.383,0.34,9.375,4.724,11.15
	c1.053,0.426,2.139,0.628,3.21,0.628c3.385,0,6.59-2.022,7.94-5.352c15.718-38.815,52.918-63.898,94.772-63.898
	s79.055,25.082,94.773,63.899c1.775,4.381,6.761,6.497,11.151,4.723c4.383-1.776,6.497-6.767,4.723-11.151
	C364.467,378.81,321.036,349.53,272.171,349.53z"/>
<path d="M195.758,115.856c3.275,3.017,8.32,3.017,11.597,0l29.505-27.161l29.509,27.162c3.278,3.017,8.321,3.016,11.596-0.001
	l29.507-27.162l29.513,27.163c1.639,1.508,3.718,2.262,5.798,2.262s4.16-0.753,5.798-2.262l35.31-32.5
	c3.48-3.203,3.703-8.619,0.501-12.099c-3.204-3.48-8.618-3.703-12.099-0.501l-29.511,27.163l-29.513-27.163
	c-3.278-3.017-8.321-3.016-11.596,0.001l-29.507,27.162l-29.508-27.163c-3.278-3.017-8.32-3.016-11.598,0.001l-29.505,27.161
	l-29.507-27.161c-3.477-3.204-8.895-2.978-12.098,0.5c-3.203,3.478-2.978,8.895,0.5,12.098L195.758,115.856z"/>
<path d="M92.047,470.148h348.831c4.73,0,8.562-3.832,8.562-8.562V8.562c0-4.73-3.832-8.562-8.562-8.562H92.047
	C75.787,0,62.56,13.229,62.56,29.489v453.023c0,16.26,13.228,29.489,29.487,29.489h348.831c4.73,0,8.562-3.832,8.562-8.562
	c0-4.73-3.832-8.562-8.562-8.562H92.047c-6.818,0-12.364-5.546-12.364-12.365C79.684,475.694,85.229,470.148,92.047,470.148z
	 M79.684,29.489c0-6.819,5.546-12.365,12.364-12.365h2.854v90.15c0,4.73,3.832,8.562,8.562,8.562c4.73,0,8.562-3.832,8.562-8.562
	v-90.15h320.291v435.9H112.025V141.522c0-4.73-3.832-8.562-8.562-8.562c-4.73,0-8.562,3.832-8.562,8.562v311.502h-2.854
	c-4.413,0-8.601,0.981-12.364,2.727C79.684,455.751,79.684,29.489,79.684,29.489z"/>
<g>
</g>
<g>
</g>
<g>
</g>
<g>
</g>
<g>
</g>
<g>
</g>
<g>
</g>
<g>
</g>
<g>
</g>
<g>
</g>
<g>
</g>
<g>
</g>
<g>
</g>
<g>
</g>
<g>
</g>
</svg>
