<?xml version="1.0" encoding="iso-8859-1"?>
<!-- Generator: Adobe Illustrator 19.0.0, SVG Export Plug-In . SVG Version: 6.00 Build 0)  -->
<svg version="1.1" id="Layer_1" xmlns="http://www.w3.org/2000/svg" xmlns:xlink="http://www.w3.org/1999/xlink" x="0px" y="0px"
	 viewBox="0 0 512 512" style="enable-background:new 0 0 512 512;" xml:space="preserve">
<polygon style="fill:#FFD24D;" points="503.56,345.616 410.516,241.423 410.516,278.441 156.758,278.441 156.758,412.791 
	410.516,412.791 410.516,449.809 "/>
<polygon style="fill:#6FC5D6;" points="112.737,99.21 112.737,62.191 8.44,166.385 112.737,270.578 112.737,233.56 366.495,233.56 
	366.495,99.21 "/>
<path d="M509.855,339.995l-93.044-104.194c-2.333-2.613-6.034-3.511-9.304-2.265c-3.27,1.248-5.432,4.385-5.432,7.886V270h-35.581
	c-4.661,0-8.44,3.778-8.44,8.44s3.779,8.44,8.44,8.44h44.021c4.661,0,8.44-3.778,8.44-8.44v-14.896l73.29,82.072l-73.29,82.072
	v-14.896c0-4.662-3.779-8.44-8.44-8.44H165.197V286.881h167.54c4.661,0,8.44-3.778,8.44-8.44s-3.779-8.44-8.44-8.44H156.758
	c-4.661,0-8.44,3.778-8.44,8.44v134.35c0,4.662,3.779,8.44,8.44,8.44h245.319v28.579c0,3.5,2.161,6.637,5.432,7.886
	c0.98,0.374,1.997,0.554,3.007,0.554c2.359,0,4.664-0.989,6.297-2.819l93.044-104.194
	C512.715,348.035,512.715,343.196,509.855,339.995z"/>
<path d="M165.197,233.56c0-4.662-3.779-8.44-8.44-8.44h-44.021c-4.661,0-8.44,3.778-8.44,8.44v16.659l-83.916-83.833l83.916-83.833
	v16.659c0,4.662,3.779,8.44,8.44,8.44h245.319v117.471h-167.54c-4.661,0-8.44,3.778-8.44,8.44s3.779,8.44,8.44,8.44h175.979
	c4.661,0,8.44-3.778,8.44-8.44V99.21c0-4.662-3.779-8.44-8.44-8.44H121.176V62.191c0-3.413-2.056-6.489-5.208-7.797
	c-3.153-1.306-6.782-0.586-9.197,1.826L2.474,160.414C0.89,161.997,0,164.145,0,166.385s0.89,4.387,2.474,5.971L106.772,276.55
	c1.615,1.614,3.772,2.469,5.966,2.469c1.088,0,2.185-0.21,3.231-0.643c3.152-1.308,5.208-4.384,5.208-7.797V242h35.581
	C161.418,241.999,165.197,238.22,165.197,233.56z"/>
<g>
</g>
<g>
</g>
<g>
</g>
<g>
</g>
<g>
</g>
<g>
</g>
<g>
</g>
<g>
</g>
<g>
</g>
<g>
</g>
<g>
</g>
<g>
</g>
<g>
</g>
<g>
</g>
<g>
</g>
</svg>
