<?xml version="1.0" encoding="iso-8859-1"?>
<!-- Generator: Adobe Illustrator 19.0.0, SVG Export Plug-In . SVG Version: 6.00 Build 0)  -->
<svg version="1.1" id="Layer_1" xmlns="http://www.w3.org/2000/svg" xmlns:xlink="http://www.w3.org/1999/xlink" x="0px" y="0px"
	 viewBox="0 0 512.001 512.001" style="enable-background:new 0 0 512.001 512.001;" xml:space="preserve">
<path style="fill:#C2B8B9;" d="M301.144,52.301c0-24.224-19.819-44.043-44.043-44.043h-204.8c-24.224,0-44.043,19.819-44.043,44.043
	v57.256l146.443,22.021l146.443-22.021V52.301z"/>
<polygon style="fill:#605353;" points="8.258,109.557 8.258,402.443 154.701,424.465 301.144,402.443 301.144,109.557 "/>
<path style="fill:#C2B8B9;" d="M8.258,459.699c0,24.224,19.819,44.043,44.043,44.043h204.8c24.224,0,44.043-19.819,44.043-44.043
	v-57.256H8.258V459.699z"/>
<circle style="fill:#FFFFFF;" cx="154.701" cy="453.093" r="16.516"/>
<polygon style="fill:#FFD24D;" points="503.742,256 412.698,154.047 412.698,190.27 154.652,190.27 154.652,321.73 412.698,321.73 
	412.698,357.953 "/>
<path d="M154.652,428.297c-13.661,0-24.774,11.114-24.774,24.774s11.113,24.774,24.774,24.774s24.774-11.114,24.774-24.774
	S168.311,428.297,154.652,428.297z M154.652,461.329c-4.554,0-8.258-3.704-8.258-8.258c0-4.554,3.704-8.258,8.258-8.258
	s8.258,3.704,8.258,8.258C162.91,457.625,159.204,461.329,154.652,461.329z"/>
<path d="M119.814,67.189h69.674c4.561,0,8.258-3.696,8.258-8.258s-3.697-8.258-8.258-8.258h-69.674
	c-4.561,0-8.258,3.696-8.258,8.258S115.253,67.189,119.814,67.189z"/>
<path d="M301.044,346.505c-4.562,0-8.258,3.696-8.258,8.258v39.377H16.516V117.86h276.27v39.378c0,4.562,3.696,8.258,8.258,8.258
	s8.258-3.696,8.258-8.258V53.302C309.302,23.911,285.391,0,256,0H53.302C23.911,0,0,23.911,0,53.302v405.396
	C0,488.089,23.911,512,53.302,512H256c29.391,0,53.302-23.911,53.302-53.302V354.763
	C309.302,350.203,305.606,346.505,301.044,346.505z M53.302,16.516H256c20.284,0,36.786,16.502,36.786,36.786v48.042H16.516V53.302
	C16.516,33.018,33.018,16.516,53.302,16.516z M256,495.484H53.302c-20.284,0-36.786-16.502-36.786-36.786v-48.042h276.27v48.042
	C292.786,478.982,276.284,495.484,256,495.484z"/>
<path d="M509.901,250.5l-91.044-101.953c-2.28-2.555-5.898-3.439-9.104-2.216c-3.2,1.221-5.314,4.291-5.314,7.716v27.964H154.65
	c-4.561,0-8.258,3.696-8.258,8.258s3.697,8.258,8.258,8.258h258.048c4.562,0,8.258-3.696,8.258-8.258v-14.576L492.671,256
	l-71.714,80.307v-14.576c0-4.562-3.696-8.258-8.258-8.258H154.65c-4.561,0-8.258,3.696-8.258,8.258c0,4.562,3.697,8.258,8.258,8.258
	h249.79v27.964c0,3.424,2.114,6.494,5.314,7.716c0.959,0.366,1.954,0.542,2.942,0.542c2.308,0,4.564-0.968,6.162-2.758
	L509.901,261.5C512.7,258.368,512.7,253.634,509.901,250.5z"/>
<g>
</g>
<g>
</g>
<g>
</g>
<g>
</g>
<g>
</g>
<g>
</g>
<g>
</g>
<g>
</g>
<g>
</g>
<g>
</g>
<g>
</g>
<g>
</g>
<g>
</g>
<g>
</g>
<g>
</g>
</svg>
