<?xml version="1.0" encoding="iso-8859-1"?>
<!-- Generator: Adobe Illustrator 19.0.0, SVG Export Plug-In . SVG Version: 6.00 Build 0)  -->
<svg version="1.1" id="Layer_1" xmlns="http://www.w3.org/2000/svg" xmlns:xlink="http://www.w3.org/1999/xlink" x="0px" y="0px"
	 viewBox="0 0 512 512" style="enable-background:new 0 0 512 512;" xml:space="preserve">
<circle style="fill:#F14742;" cx="256.003" cy="256.002" r="247.745"/>
<path style="fill:#FEE191;" d="M227.272,390.767c0,15.867,12.862,28.729,28.729,28.729s28.728-12.862,28.728-28.729v-44.044h-57.457
	L227.272,390.767L227.272,390.767z"/>
<polygon style="fill:#FFF1CD;" points="143.138,313.691 143.138,357.734 368.861,357.734 368.861,313.691 256,291.669 "/>
<path style="fill:#FFD24D;" d="M368.861,215.481c0-62.232-50.629-112.862-112.862-112.862s-112.862,50.629-112.862,112.862v98.209
	h225.723V215.481z"/>
<path d="M276.668,390.767c0,11.287-9.183,20.47-20.47,20.47c-11.287,0-20.47-9.183-20.47-20.47c0-4.561-3.696-8.258-8.258-8.258
	c-4.562,0-8.258,3.697-8.258,8.258c0,20.394,16.591,36.987,36.987,36.987s36.987-16.592,36.987-36.987
	c0-4.561-3.696-8.258-8.258-8.258C280.365,382.509,276.668,386.206,276.668,390.767z"/>
<path d="M121.716,349.476c-4.562,0-8.258,3.697-8.258,8.258s3.696,8.258,8.258,8.258h268.964c4.562,0,8.258-3.697,8.258-8.258
	s-3.696-8.258-8.258-8.258h-13.764V215.079c0-63.788-49.734-116.172-112.461-120.431V69.587c0-4.561-3.696-8.258-8.258-8.258
	c-4.562,0-8.258,3.697-8.258,8.258v25.062c-62.727,4.259-112.46,56.642-112.46,120.431v97.588c0,0.008-0.001,0.014-0.001,0.021
	s0.001,0.014,0.001,0.021v36.765h-13.764V349.476z M151.996,320.947h183.63c4.562,0,8.258-3.697,8.258-8.258
	c0-4.561-3.696-8.258-8.258-8.258h-183.63v-89.351c0-57.457,46.745-104.202,104.202-104.202
	c57.458,0,104.203,46.745,104.203,104.202v134.397H151.996V320.947z"/>
<path d="M437.018,74.973c-46.249-46.249-107.704-72.83-173.045-74.85C198.929-1.874,136.236,20.556,87.445,63.319
	c-3.43,3.006-3.773,8.223-0.767,11.653c3.008,3.431,8.226,3.775,11.654,0.767c94.461-82.789,238.1-77.996,327.006,10.912
	c45.234,45.233,70.145,105.373,70.145,169.342c0,63.97-24.911,124.11-70.145,169.343c-45.233,45.234-105.373,70.144-169.343,70.144
	c-63.969,0-124.109-24.911-169.342-70.144C-2.254,336.429-7.047,192.791,75.743,98.331c3.005-3.43,2.662-8.648-0.767-11.653
	c-3.43-3.005-8.648-2.662-11.654,0.767C20.559,136.237-1.885,198.928,0.124,263.972c2.019,65.341,28.602,126.796,74.85,173.045
	c48.353,48.353,112.641,74.982,181.021,74.982c68.382,0,132.669-26.629,181.022-74.982C485.37,388.665,512,324.377,512,255.996
	C512,187.613,485.37,123.325,437.018,74.973z"/>
<g>
</g>
<g>
</g>
<g>
</g>
<g>
</g>
<g>
</g>
<g>
</g>
<g>
</g>
<g>
</g>
<g>
</g>
<g>
</g>
<g>
</g>
<g>
</g>
<g>
</g>
<g>
</g>
<g>
</g>
</svg>
