<?xml version="1.0" encoding="iso-8859-1"?>
<!-- Generator: Adobe Illustrator 19.0.0, SVG Export Plug-In . SVG Version: 6.00 Build 0)  -->
<svg version="1.1" id="Layer_1" xmlns="http://www.w3.org/2000/svg" xmlns:xlink="http://www.w3.org/1999/xlink" x="0px" y="0px"
	 viewBox="0 0 512 512" style="enable-background:new 0 0 512 512;" xml:space="preserve">
<g>
	<circle style="fill:#6FC5D6;" cx="105.306" cy="256" r="87.888"/>
	<circle style="fill:#6FC5D6;" cx="409.544" cy="415.854" r="87.888"/>
	<circle style="fill:#6FC5D6;" cx="409.544" cy="96.146" r="87.888"/>
</g>
<path d="M408.12,319.712c-33.933,0-63.816,17.671-80.931,44.293l-134.674-70.761c4.834-11.46,7.508-24.045,7.508-37.243
	c0-13.198-2.675-25.783-7.508-37.243l134.674-70.761c17.116,26.622,46.998,44.293,80.931,44.293
	c53.015,0,96.145-43.13,96.145-96.144C504.264,43.13,461.134,0,408.12,0c-53.013,0-96.144,43.13-96.144,96.145
	c0,13.199,2.674,25.783,7.508,37.243l-134.674,70.761c-17.116-26.622-46.998-44.293-80.931-44.293
	c-53.013,0-96.144,43.13-96.144,96.145s43.13,96.145,96.144,96.145c33.933,0,63.816-17.671,80.931-44.293l134.674,70.761
	c-4.834,11.46-7.508,24.045-7.508,37.243c0,53.015,43.13,96.145,96.144,96.145c53.015,0,96.145-43.13,96.145-96.145
	C504.264,362.842,461.134,319.712,408.12,319.712z M408.12,16.516c43.908,0,79.629,35.721,79.629,79.629
	c0,43.906-35.721,79.628-79.629,79.628s-79.628-35.721-79.628-79.628C328.491,52.237,364.212,16.516,408.12,16.516z
	 M103.878,335.629c-43.906,0-79.628-35.721-79.628-79.629s35.721-79.629,79.628-79.629s79.628,35.721,79.628,79.629
	S147.785,335.629,103.878,335.629z M408.12,495.484c-43.908,0-79.628-35.721-79.628-79.629c0-43.906,35.72-79.628,79.628-79.628
	s79.629,35.721,79.629,79.628C487.748,459.763,452.027,495.484,408.12,495.484z"/>
<g>
</g>
<g>
</g>
<g>
</g>
<g>
</g>
<g>
</g>
<g>
</g>
<g>
</g>
<g>
</g>
<g>
</g>
<g>
</g>
<g>
</g>
<g>
</g>
<g>
</g>
<g>
</g>
<g>
</g>
</svg>
