<?xml version="1.0" encoding="iso-8859-1"?>
<!-- Generator: Adobe Illustrator 19.0.0, SVG Export Plug-In . SVG Version: 6.00 Build 0)  -->
<svg version="1.1" id="Layer_1" xmlns="http://www.w3.org/2000/svg" xmlns:xlink="http://www.w3.org/1999/xlink" x="0px" y="0px"
	 viewBox="0 0 512 512" style="enable-background:new 0 0 512 512;" xml:space="preserve">
<polygon style="fill:#1B4145;" points="375.749,8.258 320.695,256 375.749,503.742 456.644,503.742 456.644,8.258 "/>
<rect x="55.352" y="8.258" style="fill:#8B7E7F;" width="320.391" height="495.484"/>
<circle style="fill:#C2B8B9;" cx="215.558" cy="123.331" r="43.476"/>
<circle style="fill:#FFFFFF;" cx="215.558" cy="343.547" r="105.142"/>
<path style="fill:#C2B8B9;" d="M215.553,293.457c-27.619,0-50.089,22.47-50.089,50.088c0,27.619,22.47,50.089,50.089,50.089
	s50.089-22.47,50.089-50.089C265.643,315.927,243.172,293.457,215.553,293.457z"/>
<path d="M215.554,175.064c28.527,0,51.734-23.207,51.734-51.734c0-28.526-23.207-51.733-51.734-51.733S163.82,94.805,163.82,123.33
	C163.819,151.857,187.026,175.064,215.554,175.064z M215.554,88.112c19.42,0,35.218,15.798,35.218,35.217
	s-15.799,35.218-35.218,35.218s-35.218-15.799-35.218-35.218S196.134,88.112,215.554,88.112z"/>
<path d="M215.554,230.146c-62.529,0-113.401,50.871-113.401,113.4c0,62.53,50.872,113.401,113.401,113.401
	s113.401-50.871,113.401-113.401C328.954,281.016,278.083,230.146,215.554,230.146z M215.554,440.43
	c-53.423,0-96.885-43.463-96.885-96.885s43.463-96.884,96.885-96.884s96.885,43.463,96.885,96.884
	C312.438,396.967,268.976,440.43,215.554,440.43z"/>
<path d="M265.574,352.273c-4.305-1.505-9.016,0.758-10.525,5.063c-5.875,16.773-21.748,28.041-39.496,28.041
	c-23.065,0-41.831-18.766-41.831-41.831c0-23.065,18.766-41.83,41.831-41.83c17.748,0,33.62,11.268,39.497,28.041
	c1.507,4.303,6.217,6.57,10.524,5.064c4.304-1.507,6.571-6.219,5.064-10.524c-8.192-23.385-30.329-39.097-55.084-39.097
	c-32.173,0-58.347,26.174-58.347,58.346c0,32.173,26.174,58.347,58.347,58.347c24.753,0,46.89-15.712,55.084-39.096
	C272.146,358.493,269.879,353.781,265.574,352.273z"/>
<path d="M456.645,0H375.75H55.356c-4.562,0-8.258,3.696-8.258,8.258v495.484c0,4.562,3.696,8.258,8.258,8.258h320.393h80.895
	c4.562,0,8.258-3.696,8.258-8.258V8.258C464.903,3.696,461.206,0,456.645,0z M63.614,16.516h303.877v478.968H63.614V16.516z
	 M448.387,495.484h-64.379V16.516h64.379V495.484z"/>
<g>
</g>
<g>
</g>
<g>
</g>
<g>
</g>
<g>
</g>
<g>
</g>
<g>
</g>
<g>
</g>
<g>
</g>
<g>
</g>
<g>
</g>
<g>
</g>
<g>
</g>
<g>
</g>
<g>
</g>
</svg>
