<?xml version="1.0" encoding="iso-8859-1"?>
<!-- Generator: Adobe Illustrator 19.0.0, SVG Export Plug-In . SVG Version: 6.00 Build 0)  -->
<svg version="1.1" id="Layer_1" xmlns="http://www.w3.org/2000/svg" xmlns:xlink="http://www.w3.org/1999/xlink" x="0px" y="0px"
	 viewBox="0 0 512.001 512.001" style="enable-background:new 0 0 512.001 512.001;" xml:space="preserve">
<path style="fill:#F14742;" d="M503.742,55.33c0-12.112-9.91-22.022-22.022-22.022H30.28c-12.112,0-22.022,9.91-22.022,22.022
	v269.763l248.164,22.022l247.32-22.022V55.33z"/>
<path style="fill:#FFFFFF;" d="M256.551,228.474c-46.52,0-84.232,26.004-84.232,58.082h168.465
	C340.783,254.478,303.071,228.474,256.551,228.474z"/>
<circle style="fill:#FAD4C6;" cx="256" cy="139.011" r="56.155"/>
<rect x="199.691" y="360.327" style="fill:#8B7E7F;" width="112.607" height="110.108"/>
<path style="fill:#C2B8B9;" d="M8.258,325.093v35.234c0,12.112,9.91,22.022,22.022,22.022H481.72
	c12.112,0,22.022-9.91,22.022-22.022v-35.234H8.258z"/>
<path d="M481.219,28.153H30.781C13.809,28.153,0,41.96,0,58.933V362.98c0,16.972,13.809,30.779,30.781,30.779h450.44
	c16.972,0,30.781-13.807,30.781-30.779V58.933C512,41.96,498.191,28.153,481.219,28.153z M495.484,362.98
	c0,7.865-6.399,14.263-14.264,14.263H30.781c-7.865,0-14.264-6.398-14.264-14.263V58.933c0-7.865,6.399-14.264,14.264-14.264h450.44
	c7.865,0,14.264,6.398,14.264,14.264V362.98H495.484z"/>
<path d="M256,202.323c35.6,0,64.563-28.963,64.563-64.563S291.6,73.198,256,73.198s-64.563,28.963-64.563,64.563
	C191.437,173.36,220.4,202.323,256,202.323z M256,89.713c26.493,0,48.047,21.554,48.047,48.047S282.493,185.806,256,185.806
	s-48.047-21.554-48.047-48.047C207.953,111.266,229.507,89.713,256,89.713z"/>
<path d="M169.386,291.807c4.227,1.712,9.042-0.327,10.754-4.555c12.582-31.07,42.358-51.146,75.86-51.146
	s63.279,20.076,75.86,51.146c1.3,3.212,4.392,5.161,7.657,5.161c1.033,0,2.082-0.195,3.097-0.606
	c4.227-1.712,6.266-6.526,4.555-10.754C332.05,243.716,296.264,219.59,256,219.59s-76.049,24.126-91.169,61.463
	C163.12,285.28,165.159,290.095,169.386,291.807z"/>
<path d="M470.71,320.939H41.29c-4.561,0-8.258,3.697-8.258,8.258c0,4.561,3.697,8.258,8.258,8.258H470.71
	c4.561,0,8.258-3.697,8.258-8.258C478.968,324.636,475.27,320.939,470.71,320.939z"/>
<path d="M391.132,467.332h-70.569v-48.797c0-4.561-3.697-8.258-8.258-8.258c-4.561,0-8.258,3.697-8.258,8.258v48.797h-96.093
	v-48.797c0-4.561-3.697-8.258-8.258-8.258s-8.258,3.697-8.258,8.258v48.797h-70.569c-4.561,0-8.258,3.697-8.258,8.258
	c0,4.561,3.697,8.258,8.258,8.258h270.263c4.561,0,8.258-3.697,8.258-8.258C399.39,471.03,395.692,467.332,391.132,467.332z"/>
<g>
</g>
<g>
</g>
<g>
</g>
<g>
</g>
<g>
</g>
<g>
</g>
<g>
</g>
<g>
</g>
<g>
</g>
<g>
</g>
<g>
</g>
<g>
</g>
<g>
</g>
<g>
</g>
<g>
</g>
</svg>
