<?xml version="1.0" encoding="iso-8859-1"?>
<!-- Generator: Adobe Illustrator 19.0.0, SVG Export Plug-In . SVG Version: 6.00 Build 0)  -->
<svg version="1.1" id="Layer_1" xmlns="http://www.w3.org/2000/svg" xmlns:xlink="http://www.w3.org/1999/xlink" x="0px" y="0px"
	 viewBox="0 0 512 512" style="enable-background:new 0 0 512 512;" xml:space="preserve">
<path style="fill:#F14742;" d="M503.56,481.899c0,12.378-10.127,22.505-22.505,22.505H30.945c-12.378,0-22.505-10.127-22.505-22.505
	V166.822c0-12.378,10.127-22.505,22.505-22.505h450.11c12.378,0,22.505,10.127,22.505,22.505V481.899z"/>
<g>
	<circle style="fill:#FFFFFF;" cx="430.418" cy="217.459" r="28.132"/>
	<circle style="fill:#FFFFFF;" cx="430.418" cy="307.481" r="28.132"/>
</g>
<path style="fill:#91302A;" d="M327.213,217.234c41.963,31.484,38.149,175.341,0,210.763c-45.085,41.862-198.619,41.862-243.703,0
	c-38.149-35.421-41.963-179.278,0-210.763C133.102,180.025,277.62,180.025,327.213,217.234z"/>
<path d="M430.418,180.044c-20.166,0-36.571,16.407-36.571,36.571s16.405,36.571,36.571,36.571s36.571-16.407,36.571-36.571
	S450.584,180.044,430.418,180.044z M430.418,236.308c-10.858,0-19.692-8.835-19.692-19.692c0-10.858,8.835-19.692,19.692-19.692
	s19.692,8.835,19.692,19.692C450.11,227.473,441.275,236.308,430.418,236.308z"/>
<path d="M430.418,270.066c-20.166,0-36.571,16.407-36.571,36.571c0,20.165,16.405,36.571,36.571,36.571s36.571-16.406,36.571-36.571
	C466.989,286.472,450.584,270.066,430.418,270.066z M430.418,326.33c-10.858,0-19.692-8.835-19.692-19.692
	s8.835-19.692,19.692-19.692s19.692,8.835,19.692,19.692S441.275,326.33,430.418,326.33z"/>
<path d="M458.549,450.11h-56.264c-4.662,0-8.44,3.779-8.44,8.44s3.778,8.44,8.44,8.44h56.264c4.662,0,8.44-3.779,8.44-8.44
	S463.211,450.11,458.549,450.11z"/>
<path d="M458.549,416.352h-56.264c-4.662,0-8.44,3.779-8.44,8.44s3.778,8.44,8.44,8.44h56.264c4.662,0,8.44-3.779,8.44-8.44
	S463.211,416.352,458.549,416.352z"/>
<path d="M458.549,382.593h-56.264c-4.662,0-8.44,3.779-8.44,8.44s3.778,8.44,8.44,8.44h56.264c4.662,0,8.44-3.779,8.44-8.44
	S463.211,382.593,458.549,382.593z"/>
<path d="M481.055,135.033H235.361l58.188-107.068c6.784-0.998,12.013-6.842,12.013-13.899C305.563,6.309,299.253,0,291.497,0
	s-14.066,6.309-14.066,14.066c0,2.085,0.468,4.059,1.286,5.84L216.15,135.033h-34.972L118.606,19.906
	c0.818-1.781,1.286-3.755,1.286-5.84C119.892,6.309,113.583,0,105.826,0S91.761,6.309,91.761,14.066
	c0,7.058,5.23,12.9,12.015,13.899l58.19,107.068H30.945C13.881,135.033,0,148.914,0,165.978v315.077
	C0,498.119,13.881,512,30.945,512h450.11C498.117,512,512,498.119,512,481.055V165.978C512,148.914,498.117,135.033,481.055,135.033
	z M495.121,481.055c0,7.757-6.309,14.066-14.066,14.066H30.945c-7.757,0-14.066-6.309-14.066-14.066V165.978
	c0-7.757,6.309-14.066,14.066-14.066H176.14c0.008,0,0.017,0.001,0.025,0.001c0.009,0,0.018-0.001,0.027-0.001h44.941
	c0.009,0,0.018,0.001,0.027,0.001c0.008,0,0.017-0.001,0.025-0.001h259.87c7.757,0,14.066,6.309,14.066,14.066V481.055z"/>
<path d="M332.28,209.64c-24.699-18.532-72.145-29.596-126.917-29.596S103.144,191.108,78.444,209.64
	c-18.662,14.001-30.702,47.583-33.036,92.135c-2.442,46.627,6.642,107.685,32.358,131.563
	c26.722,24.811,83.432,33.651,127.596,33.651s100.874-8.84,127.595-33.651c10.041-9.322,18.085-24.689,23.913-45.673
	c1.247-4.491-1.383-9.143-5.874-10.39c-4.498-1.248-9.143,1.383-10.39,5.874c-4.908,17.678-11.525,30.756-19.134,37.819
	c-19.066,17.702-64.641,29.141-116.11,29.141s-97.045-11.44-116.111-29.141c-18.04-16.751-29.642-67.612-26.986-118.31
	c2.04-38.961,11.876-68.688,26.309-79.518c21.555-16.171,66.306-26.218,116.789-26.218s95.234,10.046,116.788,26.218
	c20.579,15.44,31.428,71.446,24.699,127.501c-0.556,4.628,2.745,8.83,7.374,9.386c4.618,0.547,8.829-2.746,9.385-7.374
	C369.948,299.851,362.847,232.573,332.28,209.64z"/>
<g>
</g>
<g>
</g>
<g>
</g>
<g>
</g>
<g>
</g>
<g>
</g>
<g>
</g>
<g>
</g>
<g>
</g>
<g>
</g>
<g>
</g>
<g>
</g>
<g>
</g>
<g>
</g>
<g>
</g>
</svg>
