<?xml version="1.0" encoding="iso-8859-1"?>
<!-- Generator: Adobe Illustrator 19.0.0, SVG Export Plug-In . SVG Version: 6.00 Build 0)  -->
<svg version="1.1" id="Layer_1" xmlns="http://www.w3.org/2000/svg" xmlns:xlink="http://www.w3.org/1999/xlink" x="0px" y="0px"
	 viewBox="0 0 512 512" style="enable-background:new 0 0 512 512;" xml:space="preserve">
<path style="fill:#605353;" d="M424.465,459.699c0,24.224-19.819,44.043-44.043,44.043H131.578
	c-24.224,0-44.043-19.819-44.043-44.043V52.301c0-24.224,19.819-44.043,44.043-44.043h248.843c24.224,0,44.043,19.819,44.043,44.043
	V459.699z"/>
<circle style="fill:#C2B8B9;" cx="256" cy="454.194" r="16.516"/>
<rect x="120.568" y="111.759" style="fill:#FFFFFF;" width="270.865" height="292.886"/>
<path d="M256,429.422c-13.661,0-24.774,11.113-24.774,24.774c0,13.661,11.113,24.774,24.774,24.774
	c13.661,0,24.774-11.113,24.774-24.774C280.774,440.535,269.661,429.422,256,429.422z M256,462.454
	c-4.554,0-8.258-3.704-8.258-8.258c0-4.554,3.704-8.258,8.258-8.258s8.258,3.704,8.258,8.258
	C264.258,458.75,260.554,462.454,256,462.454z"/>
<path d="M256,66.613c4.857,0,8.809-3.952,8.809-8.809s-3.952-8.809-8.809-8.809c-4.857,0-8.809,3.952-8.809,8.809
	S251.143,66.613,256,66.613z"/>
<path d="M178.925,176.172h154.151c4.561,0,8.258-3.697,8.258-8.258s-3.697-8.258-8.258-8.258H178.925
	c-4.561,0-8.258,3.697-8.258,8.258S174.364,176.172,178.925,176.172z"/>
<path d="M178.925,220.215h154.151c4.561,0,8.258-3.697,8.258-8.258c0-4.561-3.697-8.258-8.258-8.258H178.925
	c-4.561,0-8.258,3.697-8.258,8.258C170.667,216.518,174.364,220.215,178.925,220.215z"/>
<path d="M178.925,264.258h154.151c4.561,0,8.258-3.697,8.258-8.258c0-4.561-3.697-8.258-8.258-8.258H178.925
	c-4.561,0-8.258,3.697-8.258,8.258C170.667,260.561,174.364,264.258,178.925,264.258z"/>
<path d="M178.925,308.301h154.151c4.561,0,8.258-3.697,8.258-8.258c0-4.561-3.697-8.258-8.258-8.258H178.925
	c-4.561,0-8.258,3.697-8.258,8.258C170.667,304.604,174.364,308.301,178.925,308.301z"/>
<path d="M178.925,352.344H256c4.561,0,8.258-3.697,8.258-8.258s-3.697-8.258-8.258-8.258h-77.075c-4.561,0-8.258,3.697-8.258,8.258
	S174.364,352.344,178.925,352.344z"/>
<path d="M377.118,0H134.882c-28.838,0-52.301,23.463-52.301,52.301v407.398c0,28.838,23.463,52.301,52.301,52.301h242.237
	c28.838,0,52.301-23.463,52.301-52.301V52.301C429.419,23.463,405.957,0,377.118,0z M412.903,459.699
	c0,19.731-16.054,35.785-35.785,35.785H134.882c-19.731,0-35.785-16.054-35.785-35.785V52.301c0-19.731,16.054-35.785,35.785-35.785
	h242.237c19.731,0,35.785,16.054,35.785,35.785V459.699z"/>
<path d="M388.129,99.092H123.871c-4.561,0-8.258,3.697-8.258,8.258v297.3c0,4.561,3.697,8.258,8.258,8.258h264.258
	c4.561,0,8.258-3.697,8.258-8.258v-297.3C396.387,102.79,392.69,99.092,388.129,99.092z M379.871,396.392H132.129V115.609h247.742
	V396.392z"/>
<g>
</g>
<g>
</g>
<g>
</g>
<g>
</g>
<g>
</g>
<g>
</g>
<g>
</g>
<g>
</g>
<g>
</g>
<g>
</g>
<g>
</g>
<g>
</g>
<g>
</g>
<g>
</g>
<g>
</g>
</svg>
