<?xml version="1.0" encoding="iso-8859-1"?>
<!-- Generator: Adobe Illustrator 19.0.0, SVG Export Plug-In . SVG Version: 6.00 Build 0)  -->
<svg version="1.1" id="Layer_1" xmlns="http://www.w3.org/2000/svg" xmlns:xlink="http://www.w3.org/1999/xlink" x="0px" y="0px"
	 viewBox="0 0 512 512" style="enable-background:new 0 0 512 512;" xml:space="preserve">
<polygon style="fill:#ECE7EA;" points="503.742,79.828 503.742,487.226 8.258,487.226 8.258,79.828 256,57.806 "/>
<rect x="8.258" y="24.774" style="fill:#1B4145;" width="495.484" height="55.054"/>
<rect x="278.022" y="239.484" style="fill:#F14742;" width="159.656" height="176.172"/>
<path d="M503.742,16.516H8.258C3.696,16.516,0,20.214,0,24.774v462.452c0,4.561,3.696,8.258,8.258,8.258h495.484
	c4.562,0,8.258-3.697,8.258-8.258V24.774C512,20.214,508.304,16.516,503.742,16.516z M495.484,33.032V71.57H16.516V33.032H495.484z
	 M16.516,478.968V88.086h478.968v390.882H16.516z"/>
<path d="M429.419,61.11c4.857,0,8.809-3.952,8.809-8.809s-3.952-8.809-8.809-8.809c-4.857,0-8.809,3.952-8.809,8.809
	S424.563,61.11,429.419,61.11z"/>
<path d="M467.957,61.11c4.857,0,8.809-3.952,8.809-8.809s-3.952-8.809-8.809-8.809s-8.809,3.952-8.809,8.809
	S463.1,61.11,467.957,61.11z"/>
<path d="M390.882,61.11c4.857,0,8.809-3.952,8.809-8.809s-3.952-8.809-8.809-8.809c-4.857,0-8.809,3.952-8.809,8.809
	S386.025,61.11,390.882,61.11z"/>
<path d="M437.677,187.183H74.323c-4.562,0-8.258,3.697-8.258,8.258c0,4.561,3.696,8.258,8.258,8.258h363.355
	c4.562,0,8.258-3.697,8.258-8.258C445.935,190.88,442.239,187.183,437.677,187.183z"/>
<path d="M437.677,143.14H74.323c-4.562,0-8.258,3.697-8.258,8.258s3.696,8.258,8.258,8.258h363.355c4.562,0,8.258-3.697,8.258-8.258
	S442.239,143.14,437.677,143.14z"/>
<path d="M233.979,275.269H74.323c-4.562,0-8.258,3.697-8.258,8.258s3.696,8.258,8.258,8.258h159.656
	c4.562,0,8.258-3.697,8.258-8.258S238.54,275.269,233.979,275.269z"/>
<path d="M233.979,231.226H74.323c-4.562,0-8.258,3.697-8.258,8.258s3.696,8.258,8.258,8.258h159.656
	c4.562,0,8.258-3.697,8.258-8.258S238.54,231.226,233.979,231.226z"/>
<path d="M233.979,319.312H74.323c-4.562,0-8.258,3.697-8.258,8.258c0,4.561,3.696,8.258,8.258,8.258h159.656
	c4.562,0,8.258-3.697,8.258-8.258C242.237,323.009,238.54,319.312,233.979,319.312z"/>
<path d="M233.979,363.355H74.323c-4.562,0-8.258,3.697-8.258,8.258c0,4.561,3.696,8.258,8.258,8.258h159.656
	c4.562,0,8.258-3.697,8.258-8.258C242.237,367.052,238.54,363.355,233.979,363.355z"/>
<path d="M437.677,231.226H278.022c-4.562,0-8.258,3.697-8.258,8.258v27.527c0,4.561,3.696,8.258,8.258,8.258
	s8.258-3.697,8.258-8.258v-19.269h143.14v159.656H286.28V300.043c0-4.561-3.696-8.258-8.258-8.258s-8.258,3.697-8.258,8.258v115.613
	c0,4.561,3.696,8.258,8.258,8.258h159.656c4.562,0,8.258-3.697,8.258-8.258V239.484
	C445.935,234.923,442.239,231.226,437.677,231.226z"/>
<path d="M233.979,407.398H74.323c-4.562,0-8.258,3.697-8.258,8.258c0,4.561,3.696,8.258,8.258,8.258h159.656
	c4.562,0,8.258-3.697,8.258-8.258C242.237,411.095,238.54,407.398,233.979,407.398z"/>
<g>
</g>
<g>
</g>
<g>
</g>
<g>
</g>
<g>
</g>
<g>
</g>
<g>
</g>
<g>
</g>
<g>
</g>
<g>
</g>
<g>
</g>
<g>
</g>
<g>
</g>
<g>
</g>
<g>
</g>
</svg>
