<?xml version="1.0" encoding="iso-8859-1"?>
<!-- Generator: Adobe Illustrator 19.0.0, SVG Export Plug-In . SVG Version: 6.00 Build 0)  -->
<svg version="1.1" id="Layer_1" xmlns="http://www.w3.org/2000/svg" xmlns:xlink="http://www.w3.org/1999/xlink" x="0px" y="0px"
	 viewBox="0 0 512 512" style="enable-background:new 0 0 512 512;" xml:space="preserve">
<path style="fill:#D6CED1;" d="M82.391,39.724c-14.566,0-26.483,11.917-26.483,26.483v406.069h350.161V39.724H82.391z"/>
<path style="fill:#C2B8B9;" d="M401.153,392.915v52.878H86.655c-14.969,0-27.216,11.917-27.216,26.483
	c0,14.566,12.247,26.483,27.216,26.483h311.474c29.937,0,54.432-23.834,54.432-52.966
	C452.561,417.65,429.697,394.455,401.153,392.915z"/>
<path style="fill:#ECE7EA;" d="M111.816,401.655h282.483c60.616-2.06,54.923,55.197,58.84,62.996
	c1.911-5.949,2.953-12.283,2.953-18.858c0,0,0-359.283,0-388.414S432.257,4.414,403.126,4.414H102.989v388.414
	C102.989,397.703,106.941,401.655,111.816,401.655z"/>
<rect x="208.92" y="63.264" style="fill:#F14742;" width="141.241" height="141.241"/>
<path d="M161.839,58.851c-4.875,0-8.828,3.952-8.828,8.828v270.713c0,4.875,3.952,8.828,8.828,8.828s8.828-3.952,8.828-8.828V67.678
	C170.667,62.803,166.714,58.851,161.839,58.851z"/>
<path d="M208.92,235.402c-4.875,0-8.828,3.952-8.828,8.828v94.161c0,4.875,3.952,8.828,8.828,8.828s8.828-3.952,8.828-8.828V244.23
	C217.747,239.355,213.795,235.402,208.92,235.402z"/>
<path d="M256,235.402c-4.875,0-8.828,3.952-8.828,8.828v94.161c0,4.875,3.952,8.828,8.828,8.828c4.876,0,8.828-3.952,8.828-8.828
	V244.23C264.828,239.355,260.876,235.402,256,235.402z"/>
<path d="M303.08,235.402c-4.876,0-8.828,3.952-8.828,8.828v94.161c0,4.875,3.951,8.828,8.828,8.828c4.876,0,8.828-3.952,8.828-8.828
	V244.23C311.908,239.355,307.957,235.402,303.08,235.402z"/>
<path d="M350.161,58.851H256c-4.875,0-8.828,3.952-8.828,8.828s3.952,8.828,8.828,8.828h85.333v123.586H217.747V76.506h2.943
	c4.875,0,8.828-3.952,8.828-8.828s-3.952-8.828-8.828-8.828h-11.77c-4.875,0-8.828,3.952-8.828,8.828V208.92
	c0,4.875,3.952,8.828,8.828,8.828h141.241c4.876,0,8.828-3.952,8.828-8.828V67.678C358.988,62.803,355.037,58.851,350.161,58.851z"
	/>
<path d="M350.161,235.402c-4.876,0-8.828,3.952-8.828,8.828v94.161c0,4.875,3.951,8.828,8.828,8.828s8.828-3.952,8.828-8.828V244.23
	C358.988,239.355,355.037,235.402,350.161,235.402z"/>
<path d="M397.241,58.851c-4.876,0-8.828,3.952-8.828,8.828v270.713c0,4.875,3.951,8.828,8.828,8.828
	c4.876,0,8.828-3.952,8.828-8.828V67.678C406.069,62.803,402.118,58.851,397.241,58.851z"/>
<path d="M403.126,0H102.989c-4.875,0-8.828,3.952-8.828,8.828V35.31h-11.77c-19.47,0-35.31,15.84-35.31,35.31V476.69
	c0,19.47,15.84,35.31,35.31,35.31h320.736c34.072,0,61.793-27.72,61.793-61.793V61.793C464.92,27.72,437.199,0,403.126,0z
	 M403.126,494.345H82.391c-9.735,0-17.655-7.92-17.655-17.655c0-9.735,7.92-17.655,17.655-17.655h314.851
	c4.876,0,8.828-3.952,8.828-8.828v-17.655c0-4.875-3.951-8.828-8.828-8.828c-4.876,0-8.828,3.952-8.828,8.828v8.828H82.391
	c-6.429,0-12.457,1.736-17.655,4.75V70.621c0-9.735,7.92-17.655,17.655-17.655h11.77v344.276c0,4.875,3.952,8.828,8.828,8.828
	h300.138c24.338,0,44.138,19.8,44.138,44.138C447.264,474.545,427.465,494.345,403.126,494.345z M447.264,407.002
	c-11.224-11.465-26.864-18.589-44.138-18.589h-291.31V17.655h291.31c24.338,0,44.138,19.8,44.138,44.138V407.002z"/>
<g>
</g>
<g>
</g>
<g>
</g>
<g>
</g>
<g>
</g>
<g>
</g>
<g>
</g>
<g>
</g>
<g>
</g>
<g>
</g>
<g>
</g>
<g>
</g>
<g>
</g>
<g>
</g>
<g>
</g>
</svg>
