<?xml version="1.0" encoding="iso-8859-1"?>
<!-- Generator: Adobe Illustrator 19.0.0, SVG Export Plug-In . SVG Version: 6.00 Build 0)  -->
<svg version="1.1" id="Layer_1" xmlns="http://www.w3.org/2000/svg" xmlns:xlink="http://www.w3.org/1999/xlink" x="0px" y="0px"
	 viewBox="0 0 512 512" style="enable-background:new 0 0 512 512;" xml:space="preserve">
<path style="fill:#605353;" d="M424.465,459.699c0,24.224-19.819,44.043-44.043,44.043H131.578
	c-24.224,0-44.043-19.819-44.043-44.043V52.301c0-24.224,19.819-44.043,44.043-44.043h248.843c24.224,0,44.043,19.819,44.043,44.043
	V459.699z"/>
<circle style="fill:#C2B8B9;" cx="256" cy="454.194" r="16.516"/>
<rect x="120.568" y="111.759" style="fill:#FFFFFF;" width="270.865" height="292.886"/>
<path style="fill:#F14742;" d="M256,301.034c-47.432,0-85.884,26.916-85.884,60.119h171.768
	C341.884,327.95,303.432,301.034,256,301.034z"/>
<circle style="fill:#FAD4C6;" cx="256" cy="209.755" r="56.155"/>
<path d="M256,428.296c-13.661,0-24.774,11.114-24.774,24.774s11.113,24.774,24.774,24.774c13.661,0,24.774-11.114,24.774-24.774
	S269.661,428.296,256,428.296z M256,461.329c-4.554,0-8.258-3.705-8.258-8.258c0-4.553,3.704-8.258,8.258-8.258
	s8.258,3.705,8.258,8.258C264.258,457.623,260.554,461.329,256,461.329z"/>
<path d="M256,67.738c4.857,0,8.809-3.952,8.809-8.809s-3.952-8.809-8.809-8.809c-4.857,0-8.809,3.952-8.809,8.809
	S251.143,67.738,256,67.738z"/>
<path d="M391.883,101.344H120.117c-4.561,0-8.258,3.697-8.258,8.258v292.796c0,4.561,3.697,8.258,8.258,8.258h271.765
	c4.561,0,8.258-3.697,8.258-8.258V109.602C400.141,105.041,396.443,101.344,391.883,101.344z M383.625,394.14H128.375V117.86
	h255.249V394.14z"/>
<path d="M379.871,0H132.129c-29.391,0-53.302,23.911-53.302,53.302v405.396c0,29.391,23.911,53.302,53.302,53.302h247.742
	c29.391,0,53.302-23.911,53.302-53.302V53.302C433.173,23.911,409.262,0,379.871,0z M416.657,458.698
	c0,20.284-16.502,36.786-36.786,36.786H132.129c-20.284,0-36.786-16.502-36.786-36.786V53.302c0-20.284,16.502-36.786,36.786-36.786
	h247.742c20.284,0,36.786,16.502,36.786,36.786V458.698z"/>
<path d="M256,275.517c35.593,0,64.551-28.957,64.551-64.551S291.593,146.415,256,146.415s-64.551,28.957-64.551,64.551
	S220.407,275.517,256,275.517z M256,162.932c26.486,0,48.034,21.548,48.034,48.034S282.486,259,256,259
	s-48.034-21.548-48.034-48.034S229.514,162.932,256,162.932z"/>
<path d="M169.405,364.98c4.228,1.712,9.042-0.327,10.754-4.555c12.579-31.062,42.347-51.134,75.841-51.134
	s63.263,20.072,75.841,51.134c1.3,3.212,4.392,5.161,7.657,5.161c1.033,0,2.082-0.195,3.097-0.606
	c4.227-1.712,6.266-6.526,4.555-10.754c-15.117-37.33-50.895-61.451-91.15-61.451s-76.034,24.12-91.15,61.451
	C163.139,358.454,165.178,363.269,169.405,364.98z"/>
<g>
</g>
<g>
</g>
<g>
</g>
<g>
</g>
<g>
</g>
<g>
</g>
<g>
</g>
<g>
</g>
<g>
</g>
<g>
</g>
<g>
</g>
<g>
</g>
<g>
</g>
<g>
</g>
<g>
</g>
</svg>
