<?xml version="1.0" encoding="iso-8859-1"?>
<!-- Generator: Adobe Illustrator 19.0.0, SVG Export Plug-In . SVG Version: 6.00 Build 0)  -->
<svg version="1.1" id="Layer_1" xmlns="http://www.w3.org/2000/svg" xmlns:xlink="http://www.w3.org/1999/xlink" x="0px" y="0px"
	 viewBox="0 0 512 512" style="enable-background:new 0 0 512 512;" xml:space="preserve">
<path style="fill:#605353;" d="M424.465,459.699c0,24.224-19.819,44.043-44.043,44.043H131.578
	c-24.224,0-44.043-19.819-44.043-44.043V52.301c0-24.224,19.819-44.043,44.043-44.043h248.843c24.224,0,44.043,19.819,44.043,44.043
	V459.699z"/>
<circle style="fill:#C2B8B9;" cx="256" cy="454.194" r="16.516"/>
<rect x="120.568" y="111.759" style="fill:#FFFFFF;" width="270.865" height="292.886"/>
<path d="M256,428.296c-13.661,0-24.774,11.114-24.774,24.774s11.113,24.774,24.774,24.774c13.661,0,24.774-11.114,24.774-24.774
	S269.661,428.296,256,428.296z M256,461.329c-4.554,0-8.258-3.705-8.258-8.258c0-4.553,3.704-8.258,8.258-8.258
	s8.258,3.705,8.258,8.258C264.258,457.623,260.554,461.329,256,461.329z"/>
<path d="M256,67.738c4.857,0,8.809-3.952,8.809-8.809s-3.952-8.809-8.809-8.809c-4.857,0-8.809,3.952-8.809,8.809
	S251.143,67.738,256,67.738z"/>
<path d="M391.883,101.344H120.117c-4.561,0-8.258,3.697-8.258,8.258v292.796c0,4.561,3.697,8.258,8.258,8.258h271.765
	c4.561,0,8.258-3.697,8.258-8.258V109.602C400.141,105.041,396.443,101.344,391.883,101.344z M383.625,394.14H128.375V117.86
	h255.249V394.14z"/>
<path d="M379.871,0H132.129c-29.391,0-53.302,23.911-53.302,53.302v405.396c0,29.391,23.911,53.302,53.302,53.302h247.742
	c29.391,0,53.302-23.911,53.302-53.302V53.302C433.173,23.911,409.262,0,379.871,0z M416.657,458.698
	c0,20.284-16.502,36.786-36.786,36.786H132.129c-20.284,0-36.786-16.502-36.786-36.786V53.302c0-20.284,16.502-36.786,36.786-36.786
	h247.742c20.284,0,36.786,16.502,36.786,36.786V458.698z"/>
<g>
</g>
<g>
</g>
<g>
</g>
<g>
</g>
<g>
</g>
<g>
</g>
<g>
</g>
<g>
</g>
<g>
</g>
<g>
</g>
<g>
</g>
<g>
</g>
<g>
</g>
<g>
</g>
<g>
</g>
</svg>
