<?xml version="1.0" encoding="iso-8859-1"?>
<!-- Generator: Adobe Illustrator 19.0.0, SVG Export Plug-In . SVG Version: 6.00 Build 0)  -->
<svg version="1.1" id="Layer_1" xmlns="http://www.w3.org/2000/svg" xmlns:xlink="http://www.w3.org/1999/xlink" x="0px" y="0px"
	 viewBox="0 0 511.999 511.999" style="enable-background:new 0 0 511.999 511.999;" xml:space="preserve">
<path style="fill:#605353;" d="M323.932,468.677c0,19.186-15.698,34.884-34.884,34.884H95.262
	c-19.186,0-34.884-15.698-34.884-34.884V149.56c0-19.186,15.698-34.884,34.884-34.884h193.787c19.186,0,34.884,15.698,34.884,34.884
	V468.677z"/>
<rect x="94.14" y="194.211" style="fill:#FFFFFF;" width="196.034" height="229.804"/>
<path style="fill:#FFD24D;" d="M451.621,109.848c0-56.006-57.171-101.409-127.688-101.409c-70.523,0-127.688,45.403-127.688,101.409
	c0,50.035,45.629,91.603,105.644,99.899h-0.182c3.15,19.345-2.661,39.886-17.441,54.805c31.711,0,57.89-23.884,61.865-54.802h-0.182
	C405.974,201.462,451.621,159.89,451.621,109.848z"/>
<path d="M323.931,281.202c-4.662,0-8.44,3.779-8.44,8.44v178.565c0,14.84-12.073,26.913-26.913,26.913H95.732
	c-14.84,0-26.913-12.073-26.913-26.913V150.03c0-14.84,12.073-26.913,26.913-26.913h66.863c4.661,0,8.44-3.779,8.44-8.44
	c0-4.661-3.779-8.44-8.44-8.44H95.732c-24.147,0-43.792,19.645-43.792,43.792v318.177c0,24.147,19.645,43.792,43.792,43.792h192.846
	c24.147,0,43.792-19.645,43.792-43.792V289.641C332.371,284.98,328.593,281.202,323.931,281.202z"/>
<path d="M183.154,463.79c0,4.964,4.039,9.002,9.002,9.002c4.964,0,9.002-4.039,9.002-9.002s-4.039-9.002-9.002-9.002
	C187.192,454.788,183.154,458.826,183.154,463.79z"/>
<path d="M323.931,0C248.87,0,187.803,49.278,187.803,109.848c0,51.83,44.266,96.059,106.211,107.191
	c0.812,15.388-4.861,30.586-15.745,41.573c-2.398,2.419-3.105,6.044-1.794,9.188c1.311,3.144,4.383,5.192,7.789,5.192
	c33.351,0,62.03-23.611,69.141-55.874c62.175-11.003,106.652-55.314,106.652-107.269C460.06,49.278,398.993,0,323.931,0z
	 M344.795,201.389c-4.384,0.605-7.555,4.494-7.268,8.909c-3.131,19.69-16.654,35.634-34.4,42.362
	c6.572-12.923,9.182-27.74,7.187-42.413c0.26-4.393-2.901-8.256-7.269-8.86c-56.994-7.877-98.361-46.375-98.361-91.538
	c-0.001-51.264,53.494-92.97,119.248-92.97s119.25,41.706,119.25,92.969C443.181,155.02,401.804,193.519,344.795,201.389z"/>
<path d="M278.92,100.846c-4.964,0-9.002,4.039-9.002,9.002c0,4.964,4.039,9.002,9.002,9.002c4.964,0,9.002-4.039,9.002-9.002
	C287.922,104.885,283.884,100.846,278.92,100.846z"/>
<path d="M368.942,100.846c-4.964,0-9.002,4.039-9.002,9.002c0,4.964,4.039,9.002,9.002,9.002c4.964,0,9.002-4.039,9.002-9.002
	C377.944,104.885,373.906,100.846,368.942,100.846z"/>
<path d="M323.931,100.846c-4.964,0-9.002,4.039-9.002,9.002c0,4.964,4.039,9.002,9.002,9.002s9.002-4.039,9.002-9.002
	C332.933,104.885,328.895,100.846,323.931,100.846z"/>
<path d="M197.48,202.656c4.661,0,8.44-3.779,8.44-8.44s-3.779-8.44-8.44-8.44H94.137c-4.661,0-8.44,3.779-8.44,8.44v229.802
	c0,4.661,3.779,8.44,8.44,8.44h196.036c4.662,0,8.44-3.779,8.44-8.44V298.031c0-4.661-3.778-8.44-8.44-8.44s-8.44,3.779-8.44,8.44
	v117.55H102.576V202.656H197.48z"/>
<g>
</g>
<g>
</g>
<g>
</g>
<g>
</g>
<g>
</g>
<g>
</g>
<g>
</g>
<g>
</g>
<g>
</g>
<g>
</g>
<g>
</g>
<g>
</g>
<g>
</g>
<g>
</g>
<g>
</g>
</svg>
