<?xml version="1.0" encoding="iso-8859-1"?>
<!-- Generator: Adobe Illustrator 19.0.0, SVG Export Plug-In . SVG Version: 6.00 Build 0)  -->
<svg version="1.1" id="Layer_1" xmlns="http://www.w3.org/2000/svg" xmlns:xlink="http://www.w3.org/1999/xlink" x="0px" y="0px"
	 viewBox="0 0 512 512" style="enable-background:new 0 0 512 512;" xml:space="preserve">
<polygon style="fill:#8B7E7F;" points="182.228,399.446 182.228,502.916 283.527,502.916 283.527,399.415 "/>
<line style="fill:none;stroke:#000000;stroke-width:15;stroke-linecap:round;stroke-linejoin:round;stroke-miterlimit:10;" x1="424.883" y1="370.06" x2="41.29" y2="370.06"/>
<path style="fill:#463836;" d="M457.497,126.379c0-12.112-9.91-22.022-22.022-22.022H30.28c-12.112,0-22.022,9.91-22.022,22.022
	v244.439l224.619,22.021l224.619-22.021V126.379z"/>
<path style="fill:#C2B8B9;" d="M8.258,370.818v28.628c0,12.112,9.91,22.021,22.022,22.021h405.196
	c12.112,0,22.022-9.91,22.022-22.021v-28.628H8.258z"/>
<path style="fill:#FFD24D;" d="M503.742,108.915c0-56.047-57.213-101.483-127.782-101.483c-70.575,0-127.782,45.436-127.782,101.483
	c0,50.073,45.663,91.671,105.722,99.971h-0.182c3.151,19.358-2.664,39.915-17.454,54.846c31.735,0,57.932-23.901,61.911-54.842
	h-0.182C458.063,200.597,503.742,158.994,503.742,108.915z"/>
<path d="M355.831,495.484h-63.39v-40.466c0-4.561-3.697-8.258-8.258-8.258s-8.258,3.697-8.258,8.258v40.466h-85.678v-40.466
	c0-4.561-3.697-8.258-8.258-8.258s-8.258,3.697-8.258,8.258v40.466h-63.389c-4.561,0-8.258,3.697-8.258,8.258
	c0,4.561,3.697,8.258,8.258,8.258h245.49c4.561,0,8.258-3.697,8.258-8.258C364.09,499.181,360.392,495.484,355.831,495.484z"/>
<path d="M457.914,212.374c-4.561,0-8.258,3.697-8.258,8.258v178.832c0,7.865-6.398,14.264-14.263,14.264H30.781
	c-7.865,0-14.264-6.399-14.264-14.264v-271.76c0-7.865,6.399-14.264,14.264-14.264h184.365c4.561,0,8.258-3.697,8.258-8.258
	s-3.697-8.258-8.258-8.258H30.781C13.809,96.925,0,110.733,0,127.705v271.76c0,16.972,13.809,30.781,30.781,30.781h404.612
	c16.972,0,30.779-13.809,30.779-30.781V220.632C466.172,216.072,462.475,212.374,457.914,212.374z"/>
<path d="M375.96,0c-75.012,0-136.04,49.229-136.04,109.741c0,51.817,44.306,96.029,106.28,107.112
	c0.861,15.504-4.838,30.826-15.803,41.895c-2.345,2.368-3.038,5.914-1.755,8.99c1.283,3.076,4.29,5.08,7.622,5.08
	c33.331,0,61.984-23.624,69.035-55.891C467.498,205.97,512,161.677,512,109.741C512,49.229,450.973,0,375.96,0z M396.864,201.535
	c-4.295,0.593-7.4,4.408-7.11,8.734c-3.164,19.95-16.951,36.076-35.002,42.734c6.723-13.006,9.41-27.972,7.389-42.787
	c0.263-4.304-2.833-8.092-7.112-8.683c-57.129-7.896-98.595-46.5-98.595-91.791c0.001-51.406,53.619-93.226,119.525-93.226
	s119.524,41.82,119.524,93.225C495.484,155.041,454.009,193.646,396.864,201.535z"/>
<path d="M330.916,100.92c-4.863,0-8.822,3.957-8.822,8.821s3.957,8.821,8.822,8.821c4.865,0,8.821-3.957,8.821-8.821
	S335.781,100.92,330.916,100.92z"/>
<path d="M421.004,100.92c-4.863,0-8.821,3.957-8.821,8.821s3.957,8.821,8.821,8.821s8.822-3.957,8.822-8.821
	S425.867,100.92,421.004,100.92z"/>
<path d="M375.96,100.92c-4.863,0-8.822,3.957-8.822,8.821s3.957,8.821,8.822,8.821c4.865,0,8.821-3.957,8.821-8.821
	S380.824,100.92,375.96,100.92z"/>
<path d="M33.032,370.889c0,4.561,3.697,8.258,8.258,8.258h383.592c4.561,0,8.258-3.697,8.258-8.258c0-4.561-3.697-8.258-8.258-8.258
	H41.29C36.73,362.631,33.032,366.328,33.032,370.889z"/>
<g>
</g>
<g>
</g>
<g>
</g>
<g>
</g>
<g>
</g>
<g>
</g>
<g>
</g>
<g>
</g>
<g>
</g>
<g>
</g>
<g>
</g>
<g>
</g>
<g>
</g>
<g>
</g>
<g>
</g>
</svg>
