<?xml version="1.0" encoding="iso-8859-1"?>
<!-- Generator: Adobe Illustrator 19.0.0, SVG Export Plug-In . SVG Version: 6.00 Build 0)  -->
<svg version="1.1" id="Layer_1" xmlns="http://www.w3.org/2000/svg" xmlns:xlink="http://www.w3.org/1999/xlink" x="0px" y="0px"
	 viewBox="0 0 512 512" style="enable-background:new 0 0 512 512;" xml:space="preserve">
<rect x="227.868" y="345.178" style="fill:#605353;" width="56.264" height="112.527"/>
<path style="fill:#463836;" d="M503.56,367.684c0,6.189-5.064,11.253-11.253,11.253H19.692c-6.189,0-11.253-5.064-11.253-11.253
	V63.859c0-6.189,5.064-11.253,11.253-11.253h472.615c6.189,0,11.253,5.064,11.253,11.253V367.684z"/>
<rect x="42.198" y="86.365" style="fill:#6FC5D6;" width="427.604" height="258.813"/>
<path d="M391.033,450.11h-98.462v-36.571c0-4.661-3.779-8.44-8.44-8.44c-4.661,0-8.44,3.779-8.44,8.44v36.571h-39.385v-36.571
	c0-4.661-3.779-8.44-8.44-8.44c-4.661,0-8.44,3.779-8.44,8.44v36.571h-98.462c-4.661,0-8.44,3.779-8.44,8.44s3.779,8.44,8.44,8.44
	h270.066c4.661,0,8.44-3.779,8.44-8.44S395.694,450.11,391.033,450.11z"/>
<path d="M492.308,45.011H19.692C8.835,45.011,0,53.846,0,64.703v303.824c0,10.858,8.835,19.692,19.692,19.692h374.154v2.813
	c0,4.661,3.779,8.44,8.44,8.44s8.44-3.779,8.44-8.44v-2.813h16.879v2.813c0,4.661,3.779,8.44,8.44,8.44s8.44-3.779,8.44-8.44v-2.813
	h16.879v2.813c0,4.661,3.779,8.44,8.44,8.44s8.44-3.779,8.44-8.44v-2.813h14.066c10.858,0,19.692-8.835,19.692-19.692V64.703
	C512,53.846,503.165,45.011,492.308,45.011z M495.121,368.527c0,1.525-1.288,2.813-2.813,2.813H19.692
	c-1.525,0-2.813-1.288-2.813-2.813V64.703c0-1.525,1.288-2.813,2.813-2.813h472.615c1.525,0,2.813,1.288,2.813,2.813V368.527z"/>
<path d="M469.802,78.769H42.198c-4.661,0-8.44,3.779-8.44,8.44c0,4.661,3.779,8.44,8.44,8.44h419.165v171.604
	c0,4.661,3.779,8.44,8.44,8.44s8.44-3.779,8.44-8.44V87.209C478.242,82.548,474.463,78.769,469.802,78.769z"/>
<path d="M469.802,292.571c-4.661,0-8.44,3.779-8.44,8.44v36.571H50.637V120.967c0-4.661-3.779-8.44-8.44-8.44s-8.44,3.779-8.44,8.44
	v225.055c0,4.661,3.779,8.44,8.44,8.44h427.604c4.661,0,8.44-3.779,8.44-8.44v-45.011
	C478.242,296.35,474.463,292.571,469.802,292.571z"/>
<g>
</g>
<g>
</g>
<g>
</g>
<g>
</g>
<g>
</g>
<g>
</g>
<g>
</g>
<g>
</g>
<g>
</g>
<g>
</g>
<g>
</g>
<g>
</g>
<g>
</g>
<g>
</g>
<g>
</g>
</svg>
