<?xml version="1.0" encoding="iso-8859-1"?>
<!-- Generator: Adobe Illustrator 19.0.0, SVG Export Plug-In . SVG Version: 6.00 Build 0)  -->
<svg version="1.1" id="Layer_1" xmlns="http://www.w3.org/2000/svg" xmlns:xlink="http://www.w3.org/1999/xlink" x="0px" y="0px"
	 viewBox="0 0 512 512" style="enable-background:new 0 0 512 512;" xml:space="preserve">
<path style="fill:#463836;" d="M503.742,483.219c0,11.183-9.065,20.248-20.248,20.248H28.506c-11.183,0-20.248-9.065-20.248-20.248
	V199.745c0-11.183,9.065-20.248,20.248-20.248h454.987c11.183,0,20.248,9.065,20.248,20.248v283.474H503.742z"/>
<path d="M483.493,171.513h-78.314v-12.725c0-25.231-20.527-45.757-45.757-45.757H152.577c-16.124,0-29.241-13.118-29.241-29.241
	V8.258c0-4.561-3.696-8.258-8.258-8.258s-8.258,3.697-8.258,8.258V83.79c0,25.231,20.527,45.757,45.757,45.757h206.845
	c16.124,0,29.241,13.118,29.241,29.241v12.725H28.507C12.789,171.513,0,184.301,0,200.02v283.473C0,499.212,12.788,512,28.507,512
	h454.986C499.211,512,512,499.212,512,483.493V200.02C512,184.301,499.212,171.513,483.493,171.513z M495.484,483.493
	c0,6.611-5.379,11.991-11.991,11.991H28.507c-6.612,0-11.991-5.379-11.991-11.991V200.02c0-6.611,5.379-11.991,11.991-11.991
	h454.986c6.612,0,11.991,5.379,11.991,11.991V483.493z"/>
<path d="M329.088,427.28H182.912c-4.562,0-8.258,3.697-8.258,8.258c0,4.561,3.696,8.258,8.258,8.258h146.177
	c4.562,0,8.258-3.697,8.258-8.258C337.346,430.977,333.649,427.28,329.088,427.28z"/>
<path d="M115.094,364.759H75.916c-4.562,0-8.258,3.697-8.258,8.258c0,4.561,3.696,8.258,8.258,8.258h39.178
	c4.562,0,8.258-3.697,8.258-8.258C123.352,368.456,119.656,364.759,115.094,364.759z"/>
<path d="M436.084,364.759h-39.178c-4.562,0-8.258,3.697-8.258,8.258c0,4.561,3.696,8.258,8.258,8.258h39.178
	c4.562,0,8.258-3.697,8.258-8.258C444.342,368.456,440.645,364.759,436.084,364.759z"/>
<path d="M329.088,364.759h-39.18c-4.562,0-8.258,3.697-8.258,8.258c0,4.561,3.696,8.258,8.258,8.258h39.18
	c4.562,0,8.258-3.697,8.258-8.258C337.346,368.456,333.649,364.759,329.088,364.759z"/>
<path d="M182.912,381.275h39.18c4.562,0,8.258-3.697,8.258-8.258c0-4.561-3.696-8.258-8.258-8.258h-39.18
	c-4.562,0-8.258,3.697-8.258,8.258C174.654,377.577,178.351,381.275,182.912,381.275z"/>
<path d="M115.094,302.239H75.916c-4.562,0-8.258,3.697-8.258,8.258s3.696,8.258,8.258,8.258h39.178c4.562,0,8.258-3.697,8.258-8.258
	S119.656,302.239,115.094,302.239z"/>
<path d="M436.084,302.239h-39.178c-4.562,0-8.258,3.697-8.258,8.258s3.696,8.258,8.258,8.258h39.178
	c4.562,0,8.258-3.697,8.258-8.258S440.645,302.239,436.084,302.239z"/>
<path d="M329.088,302.239h-39.18c-4.562,0-8.258,3.697-8.258,8.258s3.696,8.258,8.258,8.258h39.18c4.562,0,8.258-3.697,8.258-8.258
	S333.649,302.239,329.088,302.239z"/>
<path d="M182.912,318.755h39.18c4.562,0,8.258-3.697,8.258-8.258s-3.696-8.258-8.258-8.258h-39.18c-4.562,0-8.258,3.697-8.258,8.258
	S178.351,318.755,182.912,318.755z"/>
<path d="M115.094,239.717H75.916c-4.562,0-8.258,3.697-8.258,8.258s3.696,8.258,8.258,8.258h39.178c4.562,0,8.258-3.697,8.258-8.258
	S119.656,239.717,115.094,239.717z"/>
<path d="M436.084,239.717h-39.178c-4.562,0-8.258,3.697-8.258,8.258s3.696,8.258,8.258,8.258h39.178
	c4.562,0,8.258-3.697,8.258-8.258S440.645,239.717,436.084,239.717z"/>
<path d="M329.088,239.717h-39.18c-4.562,0-8.258,3.697-8.258,8.258s3.696,8.258,8.258,8.258h39.18c4.562,0,8.258-3.697,8.258-8.258
	S333.649,239.717,329.088,239.717z"/>
<path d="M182.912,256.233h39.18c4.562,0,8.258-3.697,8.258-8.258s-3.696-8.258-8.258-8.258h-39.18c-4.562,0-8.258,3.697-8.258,8.258
	S178.351,256.233,182.912,256.233z"/>
<g>
</g>
<g>
</g>
<g>
</g>
<g>
</g>
<g>
</g>
<g>
</g>
<g>
</g>
<g>
</g>
<g>
</g>
<g>
</g>
<g>
</g>
<g>
</g>
<g>
</g>
<g>
</g>
<g>
</g>
</svg>
