<?xml version="1.0" encoding="iso-8859-1"?>
<!-- Generator: Adobe Illustrator 19.0.0, SVG Export Plug-In . SVG Version: 6.00 Build 0)  -->
<svg version="1.1" id="Layer_1" xmlns="http://www.w3.org/2000/svg" xmlns:xlink="http://www.w3.org/1999/xlink" x="0px" y="0px"
	 viewBox="0 0 512 512" style="enable-background:new 0 0 512 512;" xml:space="preserve">
<g>
	<circle style="fill:#1B4145;" cx="311.054" cy="120.568" r="60.559"/>
	<path style="fill:#1B4145;" d="M311.054,225.72c-63.851,0-115.613,51.762-115.613,115.613h231.226
		C426.667,277.482,374.905,225.72,311.054,225.72z"/>
</g>
<g>
	<circle style="fill:#609399;" cx="129.376" cy="120.568" r="60.559"/>
	<path style="fill:#609399;" d="M129.376,227.372c-64.459,0-116.714,50.283-116.714,112.31H246.09
		C246.09,277.655,193.836,227.372,129.376,227.372z"/>
</g>
<circle style="fill:#F14742;" cx="432.172" cy="371.613" r="71.57"/>
<path d="M129.376,190.486c37.945,0,68.817-30.871,68.817-68.817s-30.872-68.817-68.817-68.817s-68.817,30.871-68.817,68.817
	S91.431,190.486,129.376,190.486z M129.376,69.368c28.838,0,52.301,23.463,52.301,52.301s-23.463,52.301-52.301,52.301
	s-52.301-23.463-52.301-52.301S100.538,69.368,129.376,69.368z"/>
<path d="M311.054,190.486c37.945,0,68.817-30.871,68.817-68.817s-30.872-68.817-68.817-68.817s-68.817,30.871-68.817,68.817
	S273.109,190.486,311.054,190.486z M311.054,69.368c28.838,0,52.301,23.463,52.301,52.301s-23.463,52.301-52.301,52.301
	c-28.838,0-52.301-23.463-52.301-52.301S282.215,69.368,311.054,69.368z"/>
<path d="M400.413,282.846c1.627,2.105,4.071,3.21,6.54,3.209c1.763,0,3.54-0.563,5.044-1.723c3.609-2.789,4.273-7.975,1.485-11.584
	c-24.718-31.986-62.052-50.33-102.429-50.33c-25.925,0-50.94,7.641-72.341,22.1c-3.78,2.553-4.773,7.687-2.221,11.465
	c2.555,3.781,7.688,4.774,11.465,2.221c18.661-12.606,40.479-19.27,63.096-19.27C346.276,238.933,378.847,254.939,400.413,282.846z"
	/>
<path d="M129.376,222.417C58.038,222.417,0,280.455,0,351.794c0,4.562,3.697,8.258,8.258,8.258s8.258-3.696,8.258-8.258
	c0-62.232,50.629-112.86,112.86-112.86s112.86,50.629,112.86,112.86c0,4.562,3.697,8.258,8.258,8.258s8.258-3.696,8.258-8.258
	C258.753,280.455,200.715,222.417,129.376,222.417z"/>
<path d="M432.172,299.492c-44.018,0-79.828,35.81-79.828,79.828s35.81,79.828,79.828,79.828S512,423.338,512,379.32
	S476.19,299.492,432.172,299.492z M432.172,442.632c-34.911,0-63.312-28.401-63.312-63.312s28.401-63.312,63.312-63.312
	s63.312,28.401,63.312,63.312S467.083,442.632,432.172,442.632z"/>
<path d="M459.699,371.062H440.43v-19.269c0-4.562-3.697-8.258-8.258-8.258c-4.561,0-8.258,3.696-8.258,8.258v19.269h-19.269
	c-4.561,0-8.258,3.696-8.258,8.258s3.697,8.258,8.258,8.258h19.269v19.269c0,4.562,3.697,8.258,8.258,8.258
	c4.561,0,8.258-3.696,8.258-8.258v-19.269h19.269c4.561,0,8.258-3.696,8.258-8.258S464.26,371.062,459.699,371.062z"/>
<g>
</g>
<g>
</g>
<g>
</g>
<g>
</g>
<g>
</g>
<g>
</g>
<g>
</g>
<g>
</g>
<g>
</g>
<g>
</g>
<g>
</g>
<g>
</g>
<g>
</g>
<g>
</g>
<g>
</g>
</svg>
