<?xml version="1.0" encoding="iso-8859-1"?>
<!-- Generator: Adobe Illustrator 19.0.0, SVG Export Plug-In . SVG Version: 6.00 Build 0)  -->
<svg version="1.1" id="Layer_1" xmlns="http://www.w3.org/2000/svg" xmlns:xlink="http://www.w3.org/1999/xlink" x="0px" y="0px"
	 viewBox="0 0 512 512" style="enable-background:new 0 0 512 512;" xml:space="preserve">
<polygon style="fill:#C2B8B9;" points="503.742,395.286 503.742,483.372 8.258,483.372 8.258,395.286 256,362.254 "/>
<rect x="8.258" y="28.628" style="fill:#1B4145;" width="495.484" height="366.658"/>
<circle style="fill:#F14742;" cx="255.438" cy="211.957" r="120.182"/>
<polygon style="fill:#FFFFFF;" points="215.706,142.992 335.157,211.957 215.706,280.922 "/>
<path d="M215.706,289.181c1.426,0,2.852-0.369,4.129-1.107l119.451-68.966c2.555-1.475,4.129-4.201,4.129-7.151
	c0-2.951-1.575-5.676-4.129-7.151L219.835,135.84c-2.555-1.475-5.704-1.475-8.258,0s-4.129,4.201-4.129,7.151v137.932
	c0,2.951,1.575,5.676,4.129,7.151C212.854,288.812,214.28,289.181,215.706,289.181z M223.964,157.294l94.677,54.663l-94.677,54.663
	V157.294z"/>
<path d="M255.437,83.513c-31.224,0-61.323,11.339-84.753,31.929c-23.213,20.397-38.302,48.41-42.488,78.873
	c-0.621,4.519,2.538,8.685,7.057,9.305c4.516,0.628,8.684-2.538,9.305-7.056c7.564-55.034,55.232-96.536,110.879-96.536
	c61.717,0,111.929,50.211,111.929,111.928s-50.211,111.928-111.929,111.928c-55.648,0-103.316-41.502-110.879-96.538
	c-0.621-4.519-4.783-7.684-9.305-7.056c-4.519,0.62-7.678,4.787-7.057,9.305c4.187,30.465,19.275,58.476,42.488,78.876
	c23.43,20.589,53.529,31.929,84.753,31.929c70.824,0,128.445-57.619,128.445-128.444S326.262,83.513,255.437,83.513z"/>
<path d="M459.699,431.071H52.301c-4.561,0-8.258,3.696-8.258,8.258s3.697,8.258,8.258,8.258h407.398
	c4.562,0,8.258-3.696,8.258-8.258S464.261,431.071,459.699,431.071z"/>
<path d="M503.742,20.37H8.258C3.697,20.37,0,24.066,0,28.628v366.658v88.086c0,4.562,3.697,8.258,8.258,8.258h495.484
	c4.562,0,8.258-3.696,8.258-8.258v-88.086V28.628C512,24.066,508.304,20.37,503.742,20.37z M16.516,36.886h478.968v350.142H16.516
	V36.886z M16.516,475.114v-71.57h478.968v71.57H16.516z"/>
<g>
</g>
<g>
</g>
<g>
</g>
<g>
</g>
<g>
</g>
<g>
</g>
<g>
</g>
<g>
</g>
<g>
</g>
<g>
</g>
<g>
</g>
<g>
</g>
<g>
</g>
<g>
</g>
<g>
</g>
</svg>
