<?xml version="1.0" encoding="iso-8859-1"?>
<!-- Generator: Adobe Illustrator 19.0.0, SVG Export Plug-In . SVG Version: 6.00 Build 0)  -->
<svg version="1.1" id="Layer_1" xmlns="http://www.w3.org/2000/svg" xmlns:xlink="http://www.w3.org/1999/xlink" x="0px" y="0px"
	 viewBox="0 0 512 512" style="enable-background:new 0 0 512 512;" xml:space="preserve">
<path style="fill:#8B7E7F;" d="M256,346.022c-96.394,0-177.053,67.339-197.522,157.538h395.045
	C433.053,413.361,352.394,346.022,256,346.022z"/>
<path style="fill:#D6CED1;" d="M342.261,27.689L256,98.462l-86.261-70.773C101.017,60.085,53.451,129.977,53.451,210.989
	c0,111.865,90.685,202.549,202.549,202.549s202.549-90.685,202.549-202.549C458.549,129.977,410.983,60.085,342.261,27.689z"/>
<path style="fill:#C2B8B9;" d="M169.739,27.689c-2.435,8.164-3.761,16.807-3.761,25.762c0,49.718,40.304,90.022,90.022,90.022
	s90.022-40.304,90.022-90.022c0-8.956-1.326-17.598-3.761-25.762C316.089,15.35,286.853,8.44,256,8.44S195.911,15.35,169.739,27.689
	z"/>
<circle style="fill:#605353;" cx="256" cy="210.989" r="112.527"/>
<path style="fill:#463836;" d="M256,278.505c-37.229,0-67.516-30.288-67.516-67.516s30.288-67.516,67.516-67.516
	s67.517,30.288,67.517,67.516S293.229,278.505,256,278.505z"/>
<path d="M256,331.956c66.701,0,120.967-54.265,120.967-120.967S322.701,90.022,256,90.022c-66.702,0-120.967,54.265-120.967,120.967
	S189.298,331.956,256,331.956z M256,106.901c57.395,0,104.088,46.693,104.088,104.088S313.395,315.077,256,315.077
	s-104.088-46.693-104.088-104.088S198.605,106.901,256,106.901z"/>
<path d="M256,286.945c41.883,0,75.956-34.073,75.956-75.956S297.883,135.033,256,135.033s-75.956,34.073-75.956,75.956
	S214.117,286.945,256,286.945z M256,151.912c32.574,0,59.077,26.501,59.077,59.077S288.574,270.066,256,270.066
	c-32.576,0-59.077-26.501-59.077-59.077S223.424,151.912,256,151.912z"/>
<path d="M256,253.171c11.282,0,21.879-4.384,29.839-12.343c16.453-16.453,16.453-43.224,0-59.677c-3.297-3.296-8.64-3.296-11.936,0
	s-3.296,8.64,0,11.935c9.872,9.872,9.872,25.934,0,35.806c-4.771,4.771-11.129,7.4-17.902,7.4c-6.773,0-13.131-2.628-17.903-7.4
	c-3.296-3.297-8.64-3.296-11.935,0c-3.296,3.296-3.296,8.64,0,11.935C234.121,248.787,244.719,253.171,256,253.171z"/>
<path d="M256,421.978c116.34,0,210.989-94.649,210.989-210.989c0-83.904-49.234-156.52-120.327-190.492
	c-0.548-0.335-1.13-0.61-1.741-0.814C317.883,7.064,287.754,0,256,0c-31.759,0-61.895,7.067-88.936,19.69
	c-0.601,0.201-1.174,0.473-1.714,0.801C94.252,54.46,45.011,127.08,45.011,210.989C45.011,327.329,139.66,421.978,256,421.978z
	 M158.056,43.463c-0.338,3.314-0.518,6.647-0.518,9.988c0,13.904,2.866,27.381,8.519,40.055c1.401,3.141,4.482,5.004,7.713,5.004
	c1.149,0,2.316-0.235,3.432-0.734c4.257-1.898,6.169-6.889,4.27-11.145c-4.682-10.498-7.055-21.662-7.055-33.181
	c0-6.64,0.819-13.242,2.418-19.68C201.025,22.922,227.819,16.879,256,16.879s54.975,6.043,79.164,16.89
	c1.599,6.439,2.418,13.041,2.418,19.681c0,11.519-2.373,22.683-7.055,33.181c-1.899,4.257,0.013,9.246,4.27,11.145
	c1.117,0.498,2.283,0.734,3.433,0.734c3.228,0,6.312-1.865,7.713-5.004c5.652-12.675,8.518-26.153,8.518-40.055
	c0-3.341-0.18-6.674-0.518-9.988c57.484,33.737,96.166,96.194,96.166,167.526c0,107.033-87.077,194.11-194.11,194.11
	S61.89,318.022,61.89,210.989C61.89,139.658,100.573,77.199,158.056,43.463z"/>
<path d="M401.237,395.534c-3.38-3.208-8.722-3.071-11.932,0.311c-3.209,3.38-3.071,8.722,0.309,11.931
	c25.343,24.058,43.538,54.084,53.029,87.346H69.355c9.492-33.262,27.686-63.288,53.029-87.346c3.38-3.209,3.519-8.551,0.311-11.931
	c-3.208-3.38-8.551-3.52-11.931-0.311c-30.362,28.824-51.284,65.533-60.506,106.158c-0.568,2.503,0.034,5.129,1.635,7.134
	c1.601,2.005,4.028,3.173,6.595,3.173h395.024c2.567,0,4.994-1.168,6.595-3.173c1.601-2.005,2.202-4.63,1.635-7.133
	C452.523,461.066,431.6,424.357,401.237,395.534z"/>
<path d="M256,62.453c4.964,0,9.002-4.039,9.002-9.002s-4.039-9.002-9.002-9.002c-4.964,0-9.002,4.039-9.002,9.002
	S251.036,62.453,256,62.453z"/>
<g>
</g>
<g>
</g>
<g>
</g>
<g>
</g>
<g>
</g>
<g>
</g>
<g>
</g>
<g>
</g>
<g>
</g>
<g>
</g>
<g>
</g>
<g>
</g>
<g>
</g>
<g>
</g>
<g>
</g>
</svg>
