<?xml version="1.0" encoding="iso-8859-1"?>
<!-- Generator: Adobe Illustrator 19.0.0, SVG Export Plug-In . SVG Version: 6.00 Build 0)  -->
<svg version="1.1" id="Layer_1" xmlns="http://www.w3.org/2000/svg" xmlns:xlink="http://www.w3.org/1999/xlink" x="0px" y="0px"
	 viewBox="0 0 512 512" style="enable-background:new 0 0 512 512;" xml:space="preserve">
<polygon style="fill:#91302A;" points="443.964,67.573 503.742,444.427 384.176,444.427 384.176,149.999 "/>
<polygon style="fill:#ECE7EA;" points="425.642,183.032 384.176,444.427 8.258,444.427 49.724,183.032 237.683,161.01 "/>
<polygon style="fill:#F14742;" points="443.964,67.573 425.642,183.032 49.724,183.032 68.035,67.573 "/>
<path d="M511.897,443.134L452.117,66.278c-0.002-0.014-0.007-0.026-0.009-0.041c-0.019-0.115-0.047-0.225-0.072-0.338
	c-0.035-0.173-0.069-0.346-0.116-0.515c-0.026-0.096-0.061-0.189-0.09-0.284c-0.057-0.184-0.116-0.367-0.185-0.544
	c-0.033-0.081-0.07-0.162-0.106-0.244c-0.079-0.185-0.162-0.369-0.254-0.545c-0.04-0.076-0.084-0.151-0.126-0.226
	c-0.099-0.177-0.203-0.351-0.315-0.521c-0.047-0.073-0.098-0.144-0.149-0.215c-0.118-0.166-0.241-0.328-0.37-0.483
	c-0.03-0.036-0.055-0.076-0.086-0.113c-0.026-0.031-0.057-0.057-0.084-0.088c-0.138-0.156-0.282-0.305-0.429-0.45
	c-0.057-0.056-0.112-0.112-0.171-0.165c-0.167-0.155-0.342-0.299-0.521-0.439c-0.044-0.034-0.086-0.07-0.13-0.105
	c-0.924-0.693-1.99-1.188-3.136-1.446c-0.036-0.008-0.074-0.014-0.11-0.022c-0.241-0.051-0.483-0.091-0.73-0.12
	c-0.065-0.008-0.131-0.012-0.197-0.019c-0.215-0.02-0.429-0.032-0.647-0.035c-0.042,0-0.084-0.007-0.126-0.007H68.039
	c-4.061,0-7.519,2.953-8.156,6.964L0.102,443.134c-0.379,2.386,0.306,4.818,1.875,6.656c1.57,1.838,3.865,2.896,6.281,2.896H384.18
	c4.061,0,7.519-2.953,8.156-6.964l51.625-325.44l50.11,315.89h-78.402c-4.562,0-8.258,3.696-8.258,8.258s3.696,8.258,8.258,8.258
	h88.073c2.416,0,4.71-1.058,6.279-2.896C511.591,447.952,512.276,445.52,511.897,443.134z M377.129,436.17H17.929l38.846-244.882
	h359.201L377.129,436.17z M418.595,174.77H59.395L75.09,75.83h359.2L418.595,174.77z"/>
<path d="M131.299,133.559h231.087c4.562,0,8.258-3.696,8.258-8.258c0-4.562-3.696-8.258-8.258-8.258H131.299
	c-4.562,0-8.258,3.696-8.258,8.258C123.041,129.863,126.737,133.559,131.299,133.559z"/>
<path d="M144.93,246.221h-34.123c-4.562,0-8.258,3.696-8.258,8.258c0,4.562,3.696,8.258,8.258,8.258h34.123
	c4.562,0,8.258-3.696,8.258-8.258C153.188,249.917,149.491,246.221,144.93,246.221z"/>
<path d="M243.412,246.221h-34.123c-4.562,0-8.258,3.696-8.258,8.258c0,4.562,3.696,8.258,8.258,8.258h34.123
	c4.562,0,8.258-3.696,8.258-8.258C251.67,249.917,247.974,246.221,243.412,246.221z"/>
<path d="M341.895,246.221h-34.123c-4.562,0-8.258,3.696-8.258,8.258c0,4.562,3.696,8.258,8.258,8.258h34.123
	c4.562,0,8.258-3.696,8.258-8.258C350.153,249.917,346.455,246.221,341.895,246.221z"/>
<path d="M135.532,305.471h-34.125c-4.562,0-8.258,3.696-8.258,8.258s3.696,8.258,8.258,8.258h34.125
	c4.562,0,8.258-3.696,8.258-8.258S140.093,305.471,135.532,305.471z"/>
<path d="M234.014,305.471H199.89c-4.562,0-8.258,3.696-8.258,8.258s3.696,8.258,8.258,8.258h34.123c4.562,0,8.258-3.696,8.258-8.258
	S238.575,305.471,234.014,305.471z"/>
<path d="M332.496,305.471h-34.123c-4.562,0-8.258,3.696-8.258,8.258s3.696,8.258,8.258,8.258h34.123
	c4.562,0,8.258-3.696,8.258-8.258S337.057,305.471,332.496,305.471z"/>
<path d="M126.133,364.719H92.009c-4.562,0-8.258,3.696-8.258,8.258s3.696,8.258,8.258,8.258h34.123c4.562,0,8.258-3.696,8.258-8.258
	S130.694,364.719,126.133,364.719z"/>
<path d="M224.615,364.719h-34.123c-4.562,0-8.258,3.696-8.258,8.258s3.696,8.258,8.258,8.258h34.123
	c4.562,0,8.258-3.696,8.258-8.258S229.177,364.719,224.615,364.719z"/>
<path d="M323.097,364.719h-34.125c-4.562,0-8.258,3.696-8.258,8.258s3.696,8.258,8.258,8.258h34.125
	c4.562,0,8.258-3.696,8.258-8.258S327.659,364.719,323.097,364.719z"/>
<g>
</g>
<g>
</g>
<g>
</g>
<g>
</g>
<g>
</g>
<g>
</g>
<g>
</g>
<g>
</g>
<g>
</g>
<g>
</g>
<g>
</g>
<g>
</g>
<g>
</g>
<g>
</g>
<g>
</g>
</svg>
