<?xml version="1.0" encoding="iso-8859-1"?>
<!-- Generator: Adobe Illustrator 19.0.0, SVG Export Plug-In . SVG Version: 6.00 Build 0)  -->
<svg version="1.1" id="Layer_1" xmlns="http://www.w3.org/2000/svg" xmlns:xlink="http://www.w3.org/1999/xlink" x="0px" y="0px"
	 viewBox="0 0 512 512" style="enable-background:new 0 0 512 512;" xml:space="preserve">
<polygon style="fill:#C2B8B9;" points="35.784,470.434 35.784,503.467 476.215,503.467 476.215,470.434 255.999,437.402 "/>
<polygon style="fill:#D6CED1;" points="35.784,437.402 35.784,470.434 476.215,470.434 476.215,360.327 "/>
<polygon style="fill:#ECE7EA;" points="476.215,151.123 476.215,360.327 421.161,382.348 399.139,437.402 35.784,437.402 
	35.784,151.123 255.999,118.09 "/>
<rect x="35.784" y="30.004" style="fill:#F14742;" width="440.43" height="121.118"/>
<polygon style="fill:#FFFFFF;" points="476.215,360.327 399.139,437.402 399.139,360.327 "/>
<path d="M156.903,38.538H379.87v52.301c0,4.562,3.697,8.258,8.258,8.258c4.561,0,8.258-3.696,8.258-8.258V30.291V30.28v-0.011V8.258
	c0-4.562-3.697-8.258-8.258-8.258c-4.561,0-8.258,3.696-8.258,8.258v13.763H156.903c-4.561,0-8.258,3.696-8.258,8.258
	S152.342,38.538,156.903,38.538z"/>
<path d="M476.215,22.022h-55.054c-4.561,0-8.258,3.696-8.258,8.258s3.697,8.258,8.258,8.258h46.796V143.14H44.042V38.538h71.57
	v52.301c0,4.562,3.697,8.258,8.258,8.258c4.561,0,8.258-3.696,8.258-8.258V8.258c0-4.562-3.697-8.258-8.258-8.258
	c-4.561,0-8.258,3.696-8.258,8.258v13.763H35.784c-4.561,0-8.258,3.696-8.258,8.258v407.398c0,4.562,3.697,8.258,8.258,8.258
	h363.355c0.276,0,0.552-0.014,0.825-0.042c0.205-0.021,0.405-0.055,0.604-0.09c0.065-0.011,0.131-0.017,0.196-0.029
	c0.236-0.047,0.466-0.109,0.694-0.174c0.029-0.009,0.059-0.014,0.088-0.023c0.229-0.069,0.451-0.152,0.671-0.24
	c0.03-0.012,0.059-0.021,0.089-0.032c0.208-0.087,0.408-0.185,0.608-0.287c0.041-0.022,0.084-0.039,0.123-0.061
	c0.182-0.097,0.356-0.206,0.529-0.316c0.055-0.034,0.112-0.065,0.166-0.101c0.161-0.108,0.314-0.226,0.466-0.345
	c0.061-0.047,0.124-0.089,0.184-0.138c0.186-0.153,0.363-0.316,0.535-0.483c0.02-0.021,0.043-0.036,0.063-0.057l77.075-77.075
	c0.017-0.017,0.03-0.034,0.046-0.051c0.173-0.176,0.339-0.357,0.497-0.548c0.043-0.052,0.078-0.108,0.12-0.16
	c0.126-0.161,0.25-0.322,0.363-0.491c0.031-0.045,0.055-0.094,0.085-0.14c0.117-0.181,0.23-0.364,0.331-0.555
	c0.019-0.033,0.032-0.069,0.05-0.104c0.106-0.206,0.207-0.413,0.296-0.626c0.01-0.024,0.017-0.05,0.026-0.073
	c0.09-0.225,0.175-0.453,0.246-0.686c0.009-0.028,0.013-0.057,0.022-0.085c0.067-0.229,0.128-0.46,0.175-0.696
	c0.013-0.067,0.019-0.134,0.031-0.202c0.034-0.199,0.069-0.396,0.089-0.6c0.028-0.273,0.042-0.548,0.042-0.825V30.28
	C484.473,25.718,480.775,22.022,476.215,22.022z M44.042,159.656h423.914v192.688h-68.817c-4.561,0-8.258,3.696-8.258,8.258v68.817
	H44.042V159.656z M456.278,368.86l-48.881,48.881V368.86H456.278z"/>
<path d="M476.215,495.484H35.784c-4.561,0-8.258,3.696-8.258,8.258S31.224,512,35.784,512h440.43c4.561,0,8.258-3.696,8.258-8.258
	S480.775,495.484,476.215,495.484z"/>
<path d="M476.215,385.376c-4.561,0-8.258,3.696-8.258,8.258v68.817H44.042v-2.753c0-4.562-3.697-8.258-8.258-8.258
	s-8.258,3.696-8.258,8.258v11.011c0,4.562,3.697,8.258,8.258,8.258h440.43c4.561,0,8.258-3.696,8.258-8.258v-77.075
	C484.473,389.073,480.775,385.376,476.215,385.376z"/>
<path d="M318.16,228.001c-3.084-1.277-6.637-0.574-8.999,1.789l-23.563,23.562c-3.225,3.226-3.225,8.454,0,11.679
	c3.225,3.224,8.454,3.224,11.678,0l9.466-9.466v97.88c0,4.562,3.697,8.258,8.258,8.258c4.561,0,8.258-3.696,8.258-8.258V235.63
	C323.256,232.291,321.245,229.278,318.16,228.001z"/>
<path d="M227.702,227.372c-21.483,0-38.96,17.477-38.96,38.96c0,4.562,3.697,8.258,8.258,8.258s8.258-3.696,8.258-8.258
	c0-12.375,10.068-22.444,22.444-22.444c12.375,0,22.443,10.069,22.443,22.444c0,8.974-5.328,17.069-13.575,20.622
	c-3.029,1.305-4.991,4.286-4.991,7.584c0,3.298,1.962,6.279,4.991,7.584c8.246,3.553,13.575,11.647,13.575,20.622
	c0,12.375-10.068,22.444-22.443,22.444c-12.376,0-22.444-10.069-22.444-22.444c0-4.562-3.697-8.258-8.258-8.258
	s-8.258,3.696-8.258,8.258c0,21.483,17.477,38.96,38.96,38.96c21.482,0,38.959-17.477,38.959-38.96
	c0-10.863-4.498-20.984-12.074-28.205c7.576-7.222,12.074-17.342,12.074-28.205C266.662,244.849,249.185,227.372,227.702,227.372z"
	/>
<g>
</g>
<g>
</g>
<g>
</g>
<g>
</g>
<g>
</g>
<g>
</g>
<g>
</g>
<g>
</g>
<g>
</g>
<g>
</g>
<g>
</g>
<g>
</g>
<g>
</g>
<g>
</g>
<g>
</g>
</svg>
