<?xml version="1.0" encoding="iso-8859-1"?>
<!-- Generator: Adobe Illustrator 19.0.0, SVG Export Plug-In . SVG Version: 6.00 Build 0)  -->
<svg version="1.1" id="Layer_1" xmlns="http://www.w3.org/2000/svg" xmlns:xlink="http://www.w3.org/1999/xlink" x="0px" y="0px"
	 viewBox="0 0 512 512" style="enable-background:new 0 0 512 512;" xml:space="preserve">
<path style="fill:#609399;" d="M138.225,176.734c-9.121,0-16.515,7.394-16.515,16.515v140.887h33.031V193.249
	C154.74,184.128,147.346,176.734,138.225,176.734z"/>
<path style="fill:#1B4145;" d="M503.742,367.719c0-24.224-19.819-44.043-44.043-44.043H52.301
	c-24.224,0-44.043,19.819-44.043,44.043v53.586c0,24.224,19.819,44.043,44.043,44.043h407.398c24.224,0,44.043-19.819,44.043-44.043
	V367.719z"/>
<path d="M459.699,311.289H52.301C23.463,311.289,0,334.752,0,363.59v53.586c0,28.838,23.463,52.301,52.301,52.301h407.398
	c28.838,0,52.301-23.463,52.301-52.301V363.59C512,334.751,488.537,311.289,459.699,311.289z M495.484,417.176
	c0,19.732-16.053,35.785-35.785,35.785H52.301c-19.732,0-35.785-16.053-35.785-35.785V363.59c0-19.732,16.053-35.785,35.785-35.785
	h407.398c19.732,0,35.785,16.053,35.785,35.785V417.176z"/>
<path d="M195.697,123.428c2.113,0,4.227-0.806,5.84-2.418c3.225-3.226,3.225-8.454,0-11.679c-34.912-34.91-91.715-34.911-126.627,0
	c-3.225,3.226-3.225,8.454,0,11.679c3.226,3.224,8.454,3.224,11.679,0c28.472-28.474,74.798-28.472,103.268,0
	C191.471,122.621,193.584,123.428,195.697,123.428z"/>
<path d="M57.854,92.273c44.316-44.319,116.424-44.317,160.74,0c1.613,1.612,3.727,2.418,5.84,2.418c2.113,0,4.227-0.806,5.84-2.418
	c3.225-3.226,3.225-8.454,0-11.679c-24.551-24.551-57.242-38.071-92.05-38.071s-67.5,13.52-92.051,38.071
	c-3.225,3.226-3.225,8.454,0,11.679C49.4,95.496,54.628,95.496,57.854,92.273z"/>
<path d="M172.801,149.746c3.225-3.226,3.225-8.454,0-11.679c-19.065-19.064-50.086-19.064-69.154,0
	c-3.225,3.226-3.225,8.454,0,11.679c3.226,3.224,8.454,3.224,11.679,0c12.627-12.627,33.17-12.625,45.795,0
	c1.613,1.612,3.727,2.418,5.84,2.418C169.073,152.164,171.189,151.358,172.801,149.746z"/>
<path d="M256,367.072c-4.562,0-8.258,3.696-8.258,8.258v30.107c0,4.562,3.696,8.258,8.258,8.258c4.562,0,8.258-3.696,8.258-8.258
	V375.33C264.258,370.768,260.562,367.072,256,367.072z"/>
<path d="M317.935,367.072c-4.562,0-8.258,3.696-8.258,8.258v30.107c0,4.562,3.696,8.258,8.258,8.258s8.258-3.696,8.258-8.258V375.33
	C326.194,370.768,322.497,367.072,317.935,367.072z"/>
<path d="M441.806,367.072c-4.562,0-8.258,3.696-8.258,8.258v30.107c0,4.562,3.696,8.258,8.258,8.258s8.258-3.696,8.258-8.258V375.33
	C450.065,370.768,446.368,367.072,441.806,367.072z"/>
<path d="M379.871,367.072c-4.562,0-8.258,3.696-8.258,8.258v30.107c0,4.562,3.696,8.258,8.258,8.258s8.258-3.696,8.258-8.258V375.33
	C388.129,370.768,384.433,367.072,379.871,367.072z"/>
<path d="M154.74,305.233c4.562,0,8.258-3.696,8.258-8.258V189.12c0-13.66-11.113-24.773-24.773-24.773S113.45,175.46,113.45,189.12
	v107.855c0,4.562,3.696,8.258,8.258,8.258c4.562,0,8.258-3.696,8.258-8.258V189.12c0-4.553,3.704-8.257,8.258-8.257
	c4.553,0,8.257,3.704,8.257,8.257v107.855C146.482,301.536,150.179,305.233,154.74,305.233z"/>
<g>
</g>
<g>
</g>
<g>
</g>
<g>
</g>
<g>
</g>
<g>
</g>
<g>
</g>
<g>
</g>
<g>
</g>
<g>
</g>
<g>
</g>
<g>
</g>
<g>
</g>
<g>
</g>
<g>
</g>
</svg>
