<?xml version="1.0" encoding="iso-8859-1"?>
<!-- Generator: Adobe Illustrator 19.0.0, SVG Export Plug-In . SVG Version: 6.00 Build 0)  -->
<svg version="1.1" id="Layer_1" xmlns="http://www.w3.org/2000/svg" xmlns:xlink="http://www.w3.org/1999/xlink" x="0px" y="0px"
	 viewBox="0 0 512 512" style="enable-background:new 0 0 512 512;" xml:space="preserve">
<rect x="380.906" y="174.8" style="fill:#C2B8B9;" width="100.149" height="45.011"/>
<rect x="122.554" y="404.053" style="fill:#8B7E7F;" width="76.721" height="79.388"/>
<line style="fill:none;stroke:#000000;stroke-width:15;stroke-linecap:round;stroke-linejoin:round;stroke-miterlimit:10;" x1="279.631" y1="370.294" x2="39.947" y2="370.294"/>
<path style="fill:#463836;" d="M313.389,242.008c0-12.378-10.127-22.505-22.505-22.505H30.945
	c-12.378,0-22.505,10.127-22.505,22.505V370.29l152.475,22.505l152.475-22.505V242.008z"/>
<path style="fill:#C2B8B9;" d="M8.44,370.29v22.505c0,12.378,10.127,22.505,22.505,22.505h259.938
	c12.378,0,22.505-10.127,22.505-22.505V370.29H8.44z"/>
<rect x="358.4" y="219.811" style="fill:#605353;" width="145.16" height="272.058"/>
<circle style="fill:#C2B8B9;" cx="430.98" cy="433.355" r="16.879"/>
<g>
	<path style="fill:#463836;" d="M469.802,273.261h-77.644c-4.661,0-8.44-3.779-8.44-8.44c0-4.661,3.779-8.44,8.44-8.44h77.644
		c4.661,0,8.44,3.779,8.44,8.44C478.242,269.482,474.463,273.261,469.802,273.261z"/>
	<path style="fill:#463836;" d="M469.802,318.272h-77.644c-4.661,0-8.44-3.779-8.44-8.44s3.779-8.44,8.44-8.44h77.644
		c4.661,0,8.44,3.779,8.44,8.44S474.463,318.272,469.802,318.272z"/>
</g>
<path d="M252.982,474.993h-45.266v-25.932c0-4.661-3.779-8.44-8.44-8.44c-4.661,0-8.44,3.779-8.44,8.44v25.932h-59.844v-25.932
	c0-4.661-3.779-8.44-8.44-8.44c-4.661,0-8.44,3.779-8.44,8.44v25.932H68.847c-4.661,0-8.44,3.779-8.44,8.44
	c0,4.661,3.779,8.44,8.44,8.44h184.135c4.661,0,8.44-3.779,8.44-8.44C261.422,478.772,257.643,474.993,252.982,474.993z"/>
<path d="M279.631,361.852H39.947c-4.661,0-8.44,3.779-8.44,8.44s3.779,8.44,8.44,8.44h239.684c4.661,0,8.44-3.779,8.44-8.44
	S284.292,361.852,279.631,361.852z"/>
<path d="M290.884,211.066H30.945C13.881,211.066,0,224.947,0,242.011v150.787c0,17.064,13.881,30.945,30.945,30.945h259.938
	c17.064,0,30.945-13.881,30.945-30.945V242.011C321.829,224.947,307.947,211.066,290.884,211.066z M304.949,392.798
	c0,7.757-6.309,14.066-14.066,14.066H30.945c-7.757,0-14.066-6.309-14.066-14.066V242.011c0-7.757,6.309-14.066,14.066-14.066
	h259.938c7.757,0,14.066,6.309,14.066,14.066V392.798z"/>
<path d="M430.98,402.976c-13.961,0-25.319,11.357-25.319,25.319s11.357,25.319,25.319,25.319c13.961,0,25.319-11.357,25.319-25.319
	S444.942,402.976,430.98,402.976z M430.98,436.734c-4.654,0-8.44-3.785-8.44-8.44c0-4.654,3.785-8.44,8.44-8.44
	c4.654,0,8.44,3.785,8.44,8.44C439.42,432.948,435.634,436.734,430.98,436.734z"/>
<path d="M469.24,335.153c-4.964,0-9.002,4.039-9.002,9.002s4.039,9.002,9.002,9.002c4.964,0,9.002-4.039,9.002-9.002
	S474.203,335.153,469.24,335.153z"/>
<path d="M503.56,211.373h-14.066v-36.571c0-4.661-3.779-8.44-8.44-8.44H380.906c-4.661,0-8.44,3.779-8.44,8.44v8.44h-5.626V129.79
	c0-4.661-3.779-8.44-8.44-8.44s-8.44,3.779-8.44,8.44v61.89c0,4.661,3.779,8.44,8.44,8.44h14.066v11.253H358.4
	c-4.661,0-8.44,3.779-8.44,8.44v263.62c0,4.661,3.779,8.44,8.44,8.44h145.16c4.661,0,8.44-3.779,8.44-8.44v-263.62
	C512,215.152,508.221,211.373,503.56,211.373z M389.345,183.241h83.27v28.132h-83.27V183.241z M495.121,474.993H366.84V228.252
	h14.066h100.149h14.066V474.993z"/>
<path d="M469.802,256.384h-77.644c-4.661,0-8.44,3.779-8.44,8.44s3.779,8.44,8.44,8.44h77.644c4.661,0,8.44-3.779,8.44-8.44
	S474.463,256.384,469.802,256.384z"/>
<path d="M469.802,301.395h-77.644c-4.661,0-8.44,3.779-8.44,8.44s3.779,8.44,8.44,8.44h77.644c4.661,0,8.44-3.779,8.44-8.44
	S474.463,301.395,469.802,301.395z"/>
<path d="M304.692,76.081c-3.296,3.296-3.296,8.639,0,11.935c1.647,1.649,3.808,2.472,5.967,2.472c2.159,0,4.32-0.824,5.967-2.472
	C327.764,76.878,342.6,70.744,358.4,70.744c15.801,0,30.636,6.134,41.774,17.272c3.295,3.296,8.639,3.296,11.935,0
	c3.296-3.296,3.296-8.64,0-11.936c-14.325-14.326-33.399-22.215-53.708-22.215C338.091,53.866,319.017,61.755,304.692,76.081z"/>
<path d="M292.756,64.145c36.198-36.197,95.094-36.196,131.289,0c1.647,1.649,3.808,2.472,5.967,2.472
	c2.159,0,4.32-0.824,5.967-2.472c3.296-3.296,3.296-8.639,0-11.935c-42.777-42.777-112.381-42.777-155.16,0
	c-3.296,3.296-3.296,8.639,0,11.935C284.115,67.441,289.459,67.441,292.756,64.145z"/>
<path d="M376.303,111.887c1.647,1.649,3.808,2.472,5.967,2.472c2.159,0,4.32-0.824,5.967-2.472c3.296-3.296,3.296-8.639,0-11.935
	c-16.453-16.454-43.224-16.454-59.677,0c-3.296,3.296-3.296,8.639,0,11.935c3.296,3.296,8.64,3.296,11.935,0
	c4.782-4.782,11.14-7.416,17.903-7.416S371.521,107.105,376.303,111.887z"/>
<g>
</g>
<g>
</g>
<g>
</g>
<g>
</g>
<g>
</g>
<g>
</g>
<g>
</g>
<g>
</g>
<g>
</g>
<g>
</g>
<g>
</g>
<g>
</g>
<g>
</g>
<g>
</g>
<g>
</g>
</svg>
