<?xml version="1.0" encoding="iso-8859-1"?>
<!-- Generator: Adobe Illustrator 19.0.0, SVG Export Plug-In . SVG Version: 6.00 Build 0)  -->
<svg version="1.1" id="Layer_1" xmlns="http://www.w3.org/2000/svg" xmlns:xlink="http://www.w3.org/1999/xlink" x="0px" y="0px"
	 viewBox="0 0 512 512" style="enable-background:new 0 0 512 512;" xml:space="preserve">
<circle style="fill:#F14742;" cx="256" cy="110.021" r="16.101"/>
<path d="M203.931,206.901c3.914,2.112,8.796,0.649,10.908-3.263c2.111-3.914,0.65-8.796-3.263-10.908
	c-30.53-16.47-49.495-48.162-49.495-82.709c0-51.788,42.132-93.92,93.92-93.92s93.92,42.132,93.92,93.92
	c0,34.548-18.965,66.239-49.495,82.71c-3.914,2.11-5.373,6.994-3.263,10.908c1.454,2.697,4.228,4.229,7.092,4.229
	c1.29,0,2.6-0.311,3.815-0.967c35.747-19.283,57.953-56.406,57.953-96.88C366.021,49.355,316.666,0,256,0
	S145.979,49.355,145.979,110.021C145.979,150.495,168.185,187.616,203.931,206.901z"/>
<path d="M285.361,151.669c-3.63,2.568-4.491,7.592-1.923,11.221c1.568,2.218,4.054,3.402,6.579,3.402c1.608,0,3.23-0.48,4.642-1.478
	c17.8-12.592,28.427-33.075,28.427-54.793c0-36.991-30.095-67.086-67.086-67.086s-67.086,30.095-67.086,67.086
	c0,21.718,10.628,42.201,28.427,54.793c3.628,2.569,8.654,1.707,11.221-1.923c2.568-3.629,1.707-8.654-1.923-11.221
	c-13.541-9.578-21.624-25.147-21.624-41.648c0-28.113,22.873-50.985,50.985-50.985s50.985,22.873,50.985,50.985
	C306.985,126.522,298.902,142.091,285.361,151.669z"/>
<path d="M349.986,407.916c-0.008-0.023-0.016-0.045-0.024-0.069L264.05,156.981v-24.194c9.37-3.323,16.101-12.271,16.101-22.766
	c0-13.317-10.834-24.151-24.151-24.151c-13.317,0-24.151,10.834-24.151,24.151c0,10.495,6.731,19.443,16.101,22.766v24.196
	l-31.036,90.623c-0.024,0.07-0.049,0.138-0.071,0.208l-26.74,78.079c-0.035,0.102-0.074,0.203-0.104,0.305l-42.04,122.755
	c-1.44,4.207,0.802,8.784,5.007,10.225c0.864,0.295,1.744,0.436,2.609,0.436c3.346,0,6.471-2.102,7.616-5.444l10.91-31.856
	l73.848,42.801v38.834c0,4.446,3.604,8.05,8.05,8.05c4.446,0,8.05-3.604,8.05-8.05v-38.833l73.848-42.802l10.901,31.833
	c1.442,4.205,6.017,6.45,10.225,5.007c4.205-1.44,6.448-6.017,5.007-10.224L349.986,407.916z M228.328,263.97l19.621,16.683v72.724
	l-40.646-28.017L228.328,263.97z M264.05,280.653l19.621-16.682l21.024,61.391l-40.646,28.016V280.653z M278.065,247.602
	l-14.015,11.917v-52.842L278.065,247.602z M256,101.971c4.439,0,8.05,3.611,8.05,8.05c0,4.439-3.611,8.05-8.05,8.05
	c-4.439,0-8.05-3.611-8.05-8.05C247.95,105.581,251.561,101.971,256,101.971z M247.95,259.519l-14.015-11.917l14.015-40.926V259.519
	z M179.419,406.788l22.468-65.607l46.063,31.751v73.575L179.419,406.788z M264.05,446.508v-73.574l46.063-31.752l22.468,65.606
	L264.05,446.508z"/>
<g>
</g>
<g>
</g>
<g>
</g>
<g>
</g>
<g>
</g>
<g>
</g>
<g>
</g>
<g>
</g>
<g>
</g>
<g>
</g>
<g>
</g>
<g>
</g>
<g>
</g>
<g>
</g>
<g>
</g>
</svg>
