<?xml version="1.0" encoding="iso-8859-1"?>
<!-- Generator: Adobe Illustrator 19.0.0, SVG Export Plug-In . SVG Version: 6.00 Build 0)  -->
<svg version="1.1" id="Layer_1" xmlns="http://www.w3.org/2000/svg" xmlns:xlink="http://www.w3.org/1999/xlink" x="0px" y="0px"
	 viewBox="0 0 512 512" style="enable-background:new 0 0 512 512;" xml:space="preserve">
<g>
	<path style="fill:#FFD24D;" d="M75.956,503.56c-37.229,0-67.516-30.288-67.516-67.516s30.288-67.516,67.516-67.516
		s67.516,30.288,67.516,67.516S113.185,503.56,75.956,503.56z"/>
	<path style="fill:#FFD24D;" d="M289.758,469.802c-18.644,0-33.758-15.115-33.758-33.758C256,336.768,175.233,256,75.956,256
		c-18.644,0-33.758-15.115-33.758-33.758s15.115-33.758,33.758-33.758c66.127,0,128.294,25.751,175.051,72.509
		c46.759,46.757,72.509,108.925,72.509,175.051C323.517,454.688,308.402,469.802,289.758,469.802z"/>
	<path style="fill:#FFD24D;" d="M469.802,469.802c-18.644,0-33.758-15.115-33.758-33.758c0-198.554-161.535-360.088-360.088-360.088
		c-18.644,0-33.758-15.115-33.758-33.758S57.312,8.44,75.956,8.44c57.711,0,113.715,11.31,166.453,33.618
		c50.923,21.539,96.65,52.366,135.908,91.626c39.261,39.26,70.087,84.985,91.625,135.908
		c22.306,52.738,33.618,108.741,33.618,166.453C503.56,454.688,488.446,469.802,469.802,469.802z"/>
</g>
<path d="M75.956,360.088C34.073,360.088,0,394.161,0,436.044S34.073,512,75.956,512s75.956-34.073,75.956-75.956
	S117.839,360.088,75.956,360.088z M75.956,495.121c-32.574,0-59.077-26.501-59.077-59.077s26.502-59.077,59.077-59.077
	s59.077,26.501,59.077,59.077S108.531,495.121,75.956,495.121z"/>
<path d="M75.956,180.044c-23.268,0-42.198,18.929-42.198,42.198s18.929,42.198,42.198,42.198
	c94.623,0,171.604,76.981,171.604,171.604c0,23.268,18.929,42.198,42.198,42.198c23.268,0,42.198-18.929,42.198-42.198
	c0-68.381-26.629-132.668-74.98-181.02C208.623,206.672,144.337,180.044,75.956,180.044z M289.758,461.363
	c-13.96,0-25.319-11.357-25.319-25.319c0-103.93-84.554-188.484-188.484-188.484c-13.96,0-25.319-11.357-25.319-25.319
	c0-13.961,11.359-25.319,25.319-25.319c63.872,0,123.92,24.873,169.084,70.037c45.164,45.163,70.037,105.212,70.037,169.084
	C315.077,450.005,303.718,461.363,289.758,461.363z"/>
<path d="M477.715,266.303c-21.964-51.929-53.399-98.557-93.429-138.589c-40.033-40.033-86.661-71.467-138.589-93.43
	C191.912,11.534,134.803,0,75.956,0C52.688,0,33.758,18.929,33.758,42.198s18.929,42.198,42.198,42.198
	c193.899,0,351.648,157.749,351.648,351.648c0,23.268,18.929,42.198,42.198,42.198S512,459.312,512,436.044
	C512,377.198,500.465,320.089,477.715,266.303z M469.802,461.363c-13.96,0-25.319-11.357-25.319-25.319
	c0-203.207-165.321-368.527-368.527-368.527c-13.96,0-25.319-11.357-25.319-25.319s11.359-25.319,25.319-25.319
	c56.575,0,111.473,11.086,163.165,32.95c49.916,21.112,94.741,51.333,133.228,89.819c38.488,38.487,68.708,83.311,89.821,133.229
	c21.864,51.694,32.95,106.591,32.95,163.165C495.121,450.005,483.762,461.363,469.802,461.363z"/>
<g>
</g>
<g>
</g>
<g>
</g>
<g>
</g>
<g>
</g>
<g>
</g>
<g>
</g>
<g>
</g>
<g>
</g>
<g>
</g>
<g>
</g>
<g>
</g>
<g>
</g>
<g>
</g>
<g>
</g>
</svg>
