<?xml version="1.0" encoding="iso-8859-1"?>
<!-- Generator: Adobe Illustrator 19.0.0, SVG Export Plug-In . SVG Version: 6.00 Build 0)  -->
<svg version="1.1" id="Layer_1" xmlns="http://www.w3.org/2000/svg" xmlns:xlink="http://www.w3.org/1999/xlink" x="0px" y="0px"
	 viewBox="0 0 512 512" style="enable-background:new 0 0 512 512;" xml:space="preserve">
<path style="fill:#FFD24D;" d="M446.904,136.192H199.163v236.731l113.675,2.885h134.067c31.392,0,56.837-25.446,56.837-56.838
	V193.029C503.742,161.638,478.296,136.192,446.904,136.192z"/>
<path style="fill:#1B4145;" d="M312.837,375.808H65.096c-31.392,0-56.838-25.446-56.838-56.838V193.029
	c0-31.392,25.446-56.837,56.838-56.837h134.067c31.392,0,56.837,25.446,56.837,56.837V318.97
	C256,350.362,281.446,375.808,312.837,375.808z"/>
<path d="M446.906,127.937H257.521c-4.561,0-8.258,3.696-8.258,8.258s3.697,8.258,8.258,8.258h189.385
	c26.786,0,48.578,21.792,48.578,48.578v125.935c0,26.786-21.792,48.578-48.578,48.578H312.836
	c-26.786,0-48.578-21.792-48.578-48.578V193.033c0-35.894-29.202-65.094-65.094-65.094H65.094C29.202,127.937,0,157.139,0,193.033
	v125.935c0,35.894,29.202,65.094,65.094,65.094h189.385c4.562,0,8.258-3.696,8.258-8.258c0-4.562-3.696-8.258-8.258-8.258H65.094
	c-26.786,0-48.578-21.792-48.578-48.578V193.033c0-26.786,21.792-48.578,48.578-48.578h134.069
	c26.786,0,48.578,21.792,48.578,48.578v125.935c0,35.894,29.202,65.094,65.094,65.094h134.069c35.894,0,65.094-29.202,65.094-65.094
	V193.033C512,157.139,482.798,127.937,446.906,127.937z"/>
<path d="M404.27,210.93c4.562-0.001,8.258-3.699,8.257-8.259c-0.001-4.562-3.699-8.258-8.259-8.257l-81.707,0.012
	c-4.561,0.001-8.257,3.697-8.257,8.258v118.793c0,4.562,3.696,8.258,8.258,8.258s8.258-3.696,8.258-8.258v-51.144l62.444-0.04
	c4.561-0.003,8.256-3.702,8.253-8.264c-0.003-4.56-3.699-8.253-8.258-8.253c-0.001,0-0.003,0-0.006,0l-62.433,0.04v-42.875
	L404.27,210.93z"/>
<path d="M436.723,224.444c-4.562,0-8.258,3.696-8.258,8.258v88.774c0,4.562,3.696,8.258,8.258,8.258
	c4.562,0,8.258-3.696,8.258-8.258v-88.774C444.981,228.141,441.283,224.444,436.723,224.444z"/>
<path d="M436.723,194.414c-4.872,0-8.836,3.965-8.836,8.836s3.965,8.836,8.836,8.836c4.871,0,8.836-3.965,8.836-8.836
	S441.595,194.414,436.723,194.414z"/>
<path d="M189.277,224.444c-4.561,0-8.258,3.696-8.258,8.258v88.774c0,4.562,3.697,8.258,8.258,8.258s8.258-3.696,8.258-8.258
	v-88.774C197.535,228.141,193.838,224.444,189.277,224.444z"/>
<path d="M189.277,194.414c-4.872,0-8.836,3.965-8.836,8.836s3.964,8.836,8.836,8.836s8.836-3.965,8.836-8.836
	S194.149,194.414,189.277,194.414z"/>
<path d="M75.115,194.748c-4.561,0-8.258,3.696-8.258,8.258v118.469c0,3.616,2.353,6.812,5.806,7.886
	c0.809,0.252,1.635,0.373,2.452,0.373c2.666,0,5.232-1.296,6.802-3.576l33.997-49.384l34.112,49.393
	c2.054,2.974,5.8,4.268,9.253,3.191c3.45-1.076,5.8-4.27,5.8-7.884V202.672c0-4.562-3.697-8.258-8.258-8.258
	c-4.561,0-8.258,3.696-8.258,8.258v92.314l-25.865-37.452c-1.542-2.233-4.083-3.565-6.795-3.565c-0.002,0-0.004,0-0.006,0
	c-2.715,0.002-5.257,1.339-6.796,3.575l-25.73,37.374v-91.911C83.373,198.446,79.676,194.748,75.115,194.748z"/>
<g>
</g>
<g>
</g>
<g>
</g>
<g>
</g>
<g>
</g>
<g>
</g>
<g>
</g>
<g>
</g>
<g>
</g>
<g>
</g>
<g>
</g>
<g>
</g>
<g>
</g>
<g>
</g>
<g>
</g>
</svg>
