<?xml version="1.0" encoding="iso-8859-1"?>
<!-- Generator: Adobe Illustrator 19.0.0, SVG Export Plug-In . SVG Version: 6.00 Build 0)  -->
<svg version="1.1" id="Layer_1" xmlns="http://www.w3.org/2000/svg" xmlns:xlink="http://www.w3.org/1999/xlink" x="0px" y="0px"
	 viewBox="0 0 511.999 511.999" style="enable-background:new 0 0 511.999 511.999;" xml:space="preserve">
<polygon style="fill:#8B7E7F;" points="82.109,407.55 55.211,503.559 212.778,503.559 185.88,407.55 "/>
<path style="fill:#605353;" d="M111.741,299.281c-13.141,15.016-12.554,37.863,1.763,52.179
	c14.316,14.316,37.162,14.904,52.179,1.761L111.741,299.281z"/>
<path style="fill:#C2B8B9;" d="M136.582,26.228c-83.511,83.511-83.511,218.908,0,302.42s218.908,83.511,302.42,0L136.582,26.228z"/>
<ellipse transform="matrix(0.7071 -0.7071 0.7071 0.7071 -41.1727 255.4659)" style="fill:#ECE7EA;" cx="287.788" cy="177.433" rx="106.92" ry="213.841"/>
<circle style="fill:#FFD24D;" cx="399.21" cy="66.02" r="16.882"/>
<path d="M392.753,121.171c-3.025-3.546-8.352-3.97-11.9-0.944c-3.546,3.025-3.97,8.353-0.944,11.9
	c63.949,74.969,86.787,156.887,53.124,190.551c-17.816,17.816-49.464,20.349-89.112,7.133
	c-41.619-13.874-86.284-43.257-125.765-82.738s-68.865-84.146-82.738-125.766c-13.217-39.649-10.683-71.295,7.133-89.11
	C176.215-1.469,258.134,21.37,333.103,85.32c3.548,3.025,8.876,2.602,11.9-0.944c3.025-3.546,2.603-8.874-0.944-11.9
	C260.994,1.618,171.234-20.343,130.625,20.249c-0.003,0.003-0.007,0.006-0.01,0.009C55.068,95.805,45.384,212.644,101.541,298.79
	c-9.799,14.894-10.111,34.128-1.227,49.282l-13.455,51.037H70.854c-4.662,0-8.441,3.779-8.441,8.441s3.779,8.441,8.441,8.441h0.124
	l-23.895,85.289c-0.712,2.544-0.194,5.274,1.402,7.378c1.596,2.105,4.084,3.34,6.726,3.34h157.568c2.642,0,5.13-1.236,6.726-3.34
	c1.596-2.105,2.115-4.834,1.402-7.378l-23.895-85.291h0.124c4.662,0,8.441-3.779,8.441-8.441s-3.779-8.441-8.441-8.441h-15.993
	l-8.178-31.251c34.295,20.765,73.707,31.864,114.827,31.864c59.374,0,115.195-23.122,157.179-65.106
	C485.577,294.01,463.616,204.243,392.753,121.171z M130.615,334.615c6.378,6.378,13.079,12.314,20.06,17.806
	c-10.565,3.802-22.833,1.437-31.202-6.932c-8.388-8.388-10.742-20.692-6.903-31.273C118.1,321.29,124.109,328.108,130.615,334.615z
	 M113.908,362.737c3.638,2.526,7.56,4.483,11.647,5.859v30.513h-21.236L113.908,362.737z M201.648,495.118H66.342l22.169-79.126
	h4.825c0.011,0,0.023,0.002,0.034,0.002c0.009,0,0.018-0.002,0.026-0.002h81.198c0.009,0,0.018,0.002,0.026,0.002
	c0.011,0,0.024-0.002,0.035-0.002h4.825L201.648,495.118z M142.436,399.108v-28.089c4.488-0.178,8.958-1.006,13.259-2.474
	l7.997,30.563H142.436z M287.793,382.838c-54.865,0-106.445-21.365-145.241-60.161c-67.258-67.258-78.02-169.933-32.309-248.539
	c-0.232,15.755,2.797,33.419,9.16,52.507c14.686,44.058,45.518,91.068,86.817,132.365c41.299,41.299,88.307,72.13,132.364,86.817
	c18.413,6.137,35.507,9.183,50.835,9.183c0.61,0,1.205-0.025,1.81-0.034C360.168,373.142,324.728,382.838,287.793,382.838z"/>
<path d="M281.823,171.468c-3.297,3.297-3.297,8.641,0,11.937c1.649,1.649,3.809,2.473,5.97,2.473c2.16,0,4.321-0.824,5.97-2.473
	l94.556-94.556c3.437,1.635,7.16,2.481,10.892,2.481c6.485,0,12.969-2.468,17.907-7.406c9.872-9.874,9.872-25.939,0-35.813
	c-4.783-4.783-11.142-7.417-17.907-7.417s-13.123,2.635-17.905,7.417c-4.783,4.783-7.418,11.142-7.418,17.908
	c0,3.839,0.877,7.536,2.485,10.9L281.823,171.468z M393.243,60.05c1.594-1.595,3.714-2.473,5.968-2.473
	c2.254,0,4.375,0.878,5.968,2.473c3.292,3.291,3.292,8.647,0,11.938c-1.594,1.595-3.713,2.472-5.968,2.472
	c-2.254,0-4.371-0.877-5.966-2.469c-0.001-0.001-0.001-0.001-0.002-0.002c-0.001-0.001-0.002-0.002-0.003-0.003
	c-1.593-1.594-2.469-3.713-2.469-5.966C390.769,63.764,391.648,61.645,393.243,60.05z"/>
<g>
</g>
<g>
</g>
<g>
</g>
<g>
</g>
<g>
</g>
<g>
</g>
<g>
</g>
<g>
</g>
<g>
</g>
<g>
</g>
<g>
</g>
<g>
</g>
<g>
</g>
<g>
</g>
<g>
</g>
</svg>
