<?xml version="1.0" encoding="iso-8859-1"?>
<!-- Generator: Adobe Illustrator 19.0.0, SVG Export Plug-In . SVG Version: 6.00 Build 0)  -->
<svg version="1.1" id="Layer_1" xmlns="http://www.w3.org/2000/svg" xmlns:xlink="http://www.w3.org/1999/xlink" x="0px" y="0px"
	 viewBox="0 0 512 512" style="enable-background:new 0 0 512 512;" xml:space="preserve">
<g>
	<path style="fill:#C2B8B9;" d="M420.775,259.156l-33.018,33.018l-99.537-68.395l-68.395-99.537l33.018-33.018
		c14.209-14.209,37.463-14.216,51.672-0.008l116.267,116.267C434.992,221.693,434.984,244.947,420.775,259.156z"/>
	<path style="fill:#C2B8B9;" d="M221.266,458.665l-33.018,33.018c-14.209,14.209-37.464,14.216-51.672,0.008L20.309,375.423
		C6.1,361.215,6.108,337.96,20.317,323.751l33.018-33.018l99.537,68.395L221.266,458.665z"/>
</g>
<rect x="102.819" y="172.701" transform="matrix(-0.7071 0.7071 -0.7071 -0.7071 582.5771 341.5797)" style="fill:#605353;" width="235.452" height="237.489"/>
<path d="M318.581,154.492c-3.225-3.224-8.453-3.226-11.679,0c-3.225,3.225-3.225,8.454,0,11.677l38.927,38.927
	c1.613,1.613,3.726,2.419,5.84,2.419c2.113,0,4.227-0.806,5.84-2.419c3.225-3.225,3.225-8.454,0-11.677L318.581,154.492z"/>
<path d="M369.138,44.033c-4.562,0-8.258,3.697-8.258,8.258s3.696,8.258,8.258,8.258c45.388,0,82.313,36.925,82.313,82.312
	c0,4.56,3.696,8.258,8.258,8.258s8.258-3.697,8.258-8.258C467.966,88.367,423.632,44.033,369.138,44.033z"/>
<path d="M308.978,86.76c-8.433-8.433-19.682-13.076-31.677-13.076s-23.243,4.644-31.675,13.076l-33.016,33.016
	c-0.002,0.002-0.006,0.006-0.008,0.008L13.1,319.288c-17.466,17.466-17.466,45.885,0,63.351l116.263,116.263
	c8.733,8.733,20.204,13.099,31.674,13.099c11.472,0,22.943-4.367,31.676-13.1L392.2,299.414c0.007-0.007,0.014-0.014,0.022-0.022
	c0.007-0.007,0.014-0.014,0.021-0.022l33-32.999c17.464-17.466,17.464-45.884,0-63.351L308.978,86.76z M181.035,487.223
	c-5.314,5.312-12.415,8.239-19.998,8.239c-7.583,0-14.684-2.925-19.997-8.238L24.777,370.96c-5.312-5.314-8.239-12.415-8.239-19.998
	s2.927-14.684,8.239-19.998l27.181-27.181L208.216,460.04L181.035,487.223z M219.894,448.364L63.637,292.107l154.81-154.81
	l156.258,156.258L219.894,448.364z M413.562,254.695l-27.181,27.181L230.124,125.618l27.181-27.181
	c5.312-5.314,12.414-8.239,19.997-8.239c7.583,0,14.684,2.927,19.997,8.239L413.562,214.7
	C424.589,225.728,424.589,243.669,413.562,254.695z"/>
<path d="M470.112,41.887C443.101,14.876,407.241,0,369.139,0c-4.562,0-8.258,3.697-8.258,8.258s3.696,8.258,8.258,8.258
	c33.691,0,65.402,13.157,89.295,37.05c23.892,23.892,37.049,55.604,37.049,89.295c0,4.56,3.696,8.258,8.258,8.258
	S512,147.421,512,142.86C512,104.758,497.124,68.899,470.112,41.887z"/>
<path d="M407.416,142.86c0,4.56,3.696,8.258,8.258,8.258s8.258-3.697,8.258-8.258c0-30.213-24.579-54.794-54.793-54.794
	c-4.562,0-8.258,3.697-8.258,8.258s3.696,8.258,8.258,8.258C390.245,104.583,407.416,121.755,407.416,142.86z"/>
<g>
</g>
<g>
</g>
<g>
</g>
<g>
</g>
<g>
</g>
<g>
</g>
<g>
</g>
<g>
</g>
<g>
</g>
<g>
</g>
<g>
</g>
<g>
</g>
<g>
</g>
<g>
</g>
<g>
</g>
</svg>
