<?xml version="1.0" encoding="iso-8859-1"?>
<!-- Generator: Adobe Illustrator 19.0.0, SVG Export Plug-In . SVG Version: 6.00 Build 0)  -->
<svg version="1.1" id="Layer_1" xmlns="http://www.w3.org/2000/svg" xmlns:xlink="http://www.w3.org/1999/xlink" x="0px" y="0px"
	 viewBox="0 0 512 512" style="enable-background:new 0 0 512 512;" xml:space="preserve">
<path style="fill:#463836;" d="M402.393,458.003l-146.393,22.022l-146.393-22.022c0-27.747,0-375.786,0-404.007l146.393-22.022
	l146.393,22.022V458.003z"/>
<g>
	<path style="fill:#6FC5D6;" d="M402.393,53.997H109.606c0-0.253,0-0.484,0-0.694c0-24.774,20.271-45.045,45.045-45.045h202.697
		c24.774,0,45.045,20.271,45.045,45.045V53.997z"/>
	<path style="fill:#6FC5D6;" d="M402.393,458.697c0,24.774-20.271,45.045-45.045,45.045H154.651
		c-24.774,0-45.045-20.271-45.045-45.045c0-0.198,0-0.429,0-0.694h292.787V458.697z"/>
</g>
<path d="M357.348,0H154.651c-29.391,0-53.302,23.911-53.302,53.302v405.396c0,29.391,23.911,53.302,53.302,53.302h202.698
	c29.391,0,53.302-23.911,53.302-53.302V53.302C410.651,23.911,386.739,0,357.348,0z M117.864,449.744V62.256h276.27v387.488
	L117.864,449.744L117.864,449.744z M154.651,16.516h202.698c17.692,0,32.504,12.556,36.001,29.224h-274.7
	C122.147,29.072,136.959,16.516,154.651,16.516z M357.348,495.484H154.651c-17.692,0-32.504-12.556-36.001-29.224h274.7
	C389.852,482.928,375.04,495.484,357.348,495.484z"/>
<path d="M342.014,332.884l-60.909-60.909c-3.225-3.224-8.454-3.224-11.678,0c-3.225,3.226-3.225,8.454,0,11.679l55.07,55.07
	l-60.24,60.239V297.081c0-4.562-3.697-8.258-8.258-8.258c-4.561,0-8.258,3.697-8.258,8.258V418.9c0,3.34,2.012,6.352,5.098,7.629
	c1.022,0.424,2.094,0.629,3.159,0.629c2.149,0,4.261-0.839,5.841-2.418l80.176-80.175
	C345.239,341.338,345.239,336.11,342.014,332.884z"/>
<path d="M344.433,178.371c0-2.19-0.87-4.29-2.419-5.84L261.84,92.357c-2.362-2.362-5.914-3.068-8.999-1.789
	c-3.086,1.277-5.098,4.29-5.098,7.629v140.414l-66.079-66.08c-3.225-3.224-8.454-3.224-11.678,0c-3.225,3.226-3.225,8.454,0,11.679
	l74.336,74.337l-74.336,74.337c-3.225,3.226-3.225,8.454,0,11.679c1.612,1.612,3.726,2.418,5.839,2.418
	c2.113,0,4.227-0.806,5.839-2.418L342.015,184.21C343.564,182.662,344.433,180.561,344.433,178.371z M264.258,238.61V118.133
	l60.238,60.238L264.258,238.61z"/>
<g>
</g>
<g>
</g>
<g>
</g>
<g>
</g>
<g>
</g>
<g>
</g>
<g>
</g>
<g>
</g>
<g>
</g>
<g>
</g>
<g>
</g>
<g>
</g>
<g>
</g>
<g>
</g>
<g>
</g>
</svg>
