<?xml version="1.0" encoding="iso-8859-1"?>
<!-- Generator: Adobe Illustrator 19.0.0, SVG Export Plug-In . SVG Version: 6.00 Build 0)  -->
<svg version="1.1" id="Capa_1" xmlns="http://www.w3.org/2000/svg" xmlns:xlink="http://www.w3.org/1999/xlink" x="0px" y="0px"
	 viewBox="0 0 512 512" style="enable-background:new 0 0 512 512;" xml:space="preserve">
<rect x="10" y="10" style="fill:#FAC51C;" width="492" height="492"/>
<path style="fill:#69CBEF;" d="M238.842,111.873c17.224,0,32.822,6.952,44.15,18.199v-0.017
	c11.343,11.343,27.011,18.362,44.308,18.362h11.786V10H10v329.086h138.417v11.786c0,17.297-7.019,32.964-18.362,44.308h0.017
	c-11.247,11.328-18.199,26.926-18.199,44.15c0,34.612,28.058,62.67,62.67,62.67s62.67-28.058,62.67-62.67
	c0-17.224-6.952-32.822-18.199-44.15h0.01c-11.343-11.343-18.362-27.011-18.362-44.308v-11.786h138.424V200.662H327.3
	c-17.297,0-32.964,7.019-44.308,18.362v-0.01c-11.328,11.247-26.926,18.199-44.15,18.199c-34.612,0-62.67-28.058-62.67-62.67
	C176.172,139.931,204.23,111.873,238.842,111.873z"/>
<rect x="339.09" y="339.09" style="fill:#EF584F;" width="162.91" height="162.91"/>
<path d="M502,0H10C4.478,0,0,4.478,0,10v492c0,5.522,4.478,10,10,10h492c5.522,0,10-4.478,10-10V10C512,4.478,507.522,0,502,0z
	 M349.086,148.417V20H492v309.086H349.086V200.662c0-5.522-4.478-10-10-10H327.3c-19.26,0-37.382,7.451-51.075,20.989
	c-0.094,0.087-0.187,0.175-0.278,0.266c-9.935,9.864-23.111,15.296-37.104,15.296c-29.042,0-52.67-23.628-52.67-52.67
	s23.628-52.67,52.67-52.67c13.993,0,27.17,5.433,37.104,15.296c0.119,0.118,0.241,0.232,0.365,0.344
	c13.683,13.484,31.769,20.904,50.988,20.904h11.786C344.608,158.417,349.086,153.939,349.086,148.417z M20,492V349.086h118.417
	v1.786c0,14.061-5.48,27.285-15.433,37.236c-0.137,0.137-0.269,0.276-0.396,0.419c-13.363,13.66-20.715,31.679-20.715,50.803
	c0,20.71,8.71,39.422,22.657,52.67H20z M174.543,492c-29.042,0-52.67-23.628-52.67-52.67c0-13.993,5.432-27.17,15.296-37.104
	c0.118-0.12,0.233-0.241,0.345-0.366c13.484-13.683,20.903-31.768,20.903-50.987v-11.786c0-5.522-4.478-10-10-10H20V20h309.086
	v118.417H327.3c-14.061,0-27.285-5.48-37.236-15.433c-0.137-0.137-0.276-0.27-0.419-0.396
	c-13.66-13.363-31.679-20.715-50.803-20.715c-40.07,0-72.67,32.6-72.67,72.67s32.6,72.67,72.67,72.67
	c19.164,0,37.219-7.384,50.889-20.8c0.113-0.104,0.225-0.209,0.333-0.318c9.951-9.952,23.176-15.433,37.236-15.433h1.786v118.424
	H200.662c-5.522,0-10,4.478-10,10v11.786c0,19.26,7.45,37.381,20.988,51.074c0.087,0.095,0.176,0.188,0.267,0.279
	c9.864,9.935,15.296,23.111,15.296,37.104C227.213,468.372,203.585,492,174.543,492z M247.213,439.33
	c0-19.164-7.384-37.219-20.8-50.89c-0.104-0.112-0.209-0.224-0.318-0.332c-9.952-9.951-15.433-23.176-15.433-37.236v-1.786h118.424
	V492H224.533C238.489,478.753,247.213,460.046,247.213,439.33z M349.086,492V349.086H492V492H349.086z"/>
<path d="M419.18,389.09H462c5.521,0,10-4.49,10-10s-4.479-10-10-10h-42.82c-5.52,0-10,4.49-10,10S413.66,389.09,419.18,389.09z"/>
<path d="M379.18,389.09c5.511,0,10-4.49,10-10s-4.489-10-10-10c-5.52,0-10,4.49-10,10S373.66,389.09,379.18,389.09z"/>
<path d="M379.09,472c5.51,0,10-4.479,10-10v-42.99c0-5.52-4.49-10-10-10s-10,4.48-10,10V462C369.09,467.521,373.58,472,379.09,472z"
	/>
<g>
</g>
<g>
</g>
<g>
</g>
<g>
</g>
<g>
</g>
<g>
</g>
<g>
</g>
<g>
</g>
<g>
</g>
<g>
</g>
<g>
</g>
<g>
</g>
<g>
</g>
<g>
</g>
<g>
</g>
</svg>
