<svg height="480pt" viewBox="0 0 480 480" width="480pt" xmlns="http://www.w3.org/2000/svg"><path d="m56 8h376c8.800781 0 16 7.199219 16 16v224c0 8.800781-7.199219 16-16 16h-376c-8.800781 0-16-7.199219-16-16v-224c0-8.800781 7.199219-16 16-16zm0 0" fill="#e6ac69"/><path d="m24 80h88c8.800781 0 16 7.199219 16 16v48c0 8.800781-7.199219 16-16 16h-104v-64c0-8.800781 7.199219-16 16-16zm0 0" fill="#ffbf75"/><path d="m272 48h16c4.398438 0 8 3.601562 8 8v16c0 4.398438-3.601562 8-8 8h-16c-4.398438 0-8-3.601562-8-8v-16c0-4.398438 3.601562-8 8-8zm0 0" fill="#55965c"/><path d="m288 81h-16c-5 0-9-4-9-9v-16c0-5 4-9 9-9h16c5 0 9 4 9 9v16c0 5-4 9-9 9zm-16-32c-3.898438 0-7 3.101562-7 7v16c0 3.898438 3.101562 7 7 7h16c3.898438 0 7-3.101562 7-7v-16c0-3.898438-3.101562-7-7-7zm0 0" fill="#73c97c"/><path d="m376 48h16c4.398438 0 8 3.601562 8 8v16c0 4.398438-3.601562 8-8 8h-16c-4.398438 0-8-3.601562-8-8v-16c0-4.398438 3.601562-8 8-8zm0 0" fill="#55965c"/><path d="m392 81h-16c-5 0-9-4-9-9v-16c0-5 4-9 9-9h16c5 0 9 4 9 9v16c0 5-4 9-9 9zm-16-32c-3.898438 0-7 3.101562-7 7v16c0 3.898438 3.101562 7 7 7h16c3.898438 0 7-3.101562 7-7v-16c0-3.898438-3.101562-7-7-7zm0 0" fill="#73c97c"/><path d="m184 112h16c4.398438 0 8 3.601562 8 8v16c0 4.398438-3.601562 8-8 8h-16c-4.398438 0-8-3.601562-8-8v-16c0-4.398438 3.601562-8 8-8zm0 0" fill="#55965c"/><path d="m200 145h-16c-5 0-9-4-9-9v-16c0-5 4-9 9-9h16c5 0 9 4 9 9v16c0 5-4 9-9 9zm-16-32c-3.898438 0-7 3.101562-7 7v16c0 3.898438 3.101562 7 7 7h16c3.898438 0 7-3.101562 7-7v-16c0-3.898438-3.101562-7-7-7zm0 0" fill="#73c97c"/><path d="m392 400h-296c-8.800781 0-16-7.199219-16-16v-176c0-8.800781 7.199219-16 16-16h296c8.800781 0 16 7.199219 16 16v176c0 8.800781-7.199219 16-16 16zm0 0" fill="#d6d6d6"/><path d="m80 232h328v72h-328zm0 0" fill="#707070"/><path d="m456 472h-296c-8.800781 0-16-7.199219-16-16v-176c0-8.800781 7.199219-16 16-16h296c8.800781 0 16 7.199219 16 16v176c0 8.800781-7.199219 16-16 16zm0 0" fill="#efefef"/><path d="m424 376h-48c-8.800781 0-16-7.199219-16-16v-48c0-8.800781 7.199219-16 16-16h48c8.800781 0 16 7.199219 16 16v48c0 8.800781-7.199219 16-16 16zm0 0" fill="#ffd04a"/><path d="m280 432h-24c-4.398438 0-8-3.601562-8-8v-24c0-4.398438 3.601562-8 8-8h24c4.398438 0 8 3.601562 8 8v24c0 4.398438-3.601562 8-8 8zm0 0" fill="#75c1ff"/><path d="m208 432h-24c-4.398438 0-8-3.601562-8-8v-24c0-4.398438 3.601562-8 8-8h24c4.398438 0 8 3.601562 8 8v24c0 4.398438-3.601562 8-8 8zm0 0" fill="#73c97c"/><path d="m456 256h-296c-13.199219 0-24 10.800781-24 24v176c0 13.199219 10.800781 24 24 24h296c13.199219 0 24-10.800781 24-24v-176c0-13.199219-10.800781-24-24-24zm8 200c0 4.398438-3.601562 8-8 8h-296c-4.398438 0-8-3.601562-8-8v-176c0-4.398438 3.601562-8 8-8h296c4.398438 0 8 3.601562 8 8zm0 0"/><path d="m88 240h328v-32c0-13.199219-10.800781-24-24-24h-296c-13.199219 0-24 10.800781-24 24v176c0 13.199219 10.800781 24 24 24h24v-16h-24c-4.398438 0-8-3.601562-8-8v-72h32v-16h-32zm8-40h296c4.398438 0 8 3.601562 8 8v16h-312v-16c0-4.398438 3.601562-8 8-8zm0 0"/><path d="m424 288h-48c-13.199219 0-24 10.800781-24 24v48c0 13.199219 10.800781 24 24 24h48c13.199219 0 24-10.800781 24-24v-48c0-13.199219-10.800781-24-24-24zm-56 72v-48c0-4.398438 3.601562-8 8-8h8v16h16v-16h24c4.398438 0 8 3.601562 8 8v24h-32c-8.800781 0-16 7.199219-16 16v16h-8c-4.398438 0-8-3.601562-8-8zm56 8h-24v-16h32v8c0 4.398438-3.601562 8-8 8zm0 0"/><path d="m320 312h16v16h-16zm0 0"/><path d="m200 312h104v16h-104zm0 0"/><path d="m168 312h16v16h-16zm0 0"/><path d="m320 344h16v16h-16zm0 0"/><path d="m200 344h104v16h-104zm0 0"/><path d="m168 344h16v16h-16zm0 0"/><path d="m280 384h-24c-8.800781 0-16 7.199219-16 16v24c0 8.800781 7.199219 16 16 16h24c8.800781 0 16-7.199219 16-16v-24c0-8.800781-7.199219-16-16-16zm0 40h-24v-24h24zm0 0"/><path d="m208 384h-24c-8.800781 0-16 7.199219-16 16v24c0 8.800781 7.199219 16 16 16h24c8.800781 0 16-7.199219 16-16v-24c0-8.800781-7.199219-16-16-16zm0 40h-24v-24h24zm0 0"/><path d="m424 408h16v16h-16zm0 0"/><path d="m392 408h16v16h-16zm0 0"/><path d="m360 408h16v16h-16zm0 0"/><path d="m328 408h16v16h-16zm0 0"/><path d="m48 248v-80h64c13.199219 0 24-10.800781 24-24v-48c0-13.199219-10.800781-24-24-24h-64v-48c0-4.398438 3.601562-8 8-8h376c4.398438 0 8 3.601562 8 8v216h16v-216c0-13.199219-10.800781-24-24-24h-376c-13.199219 0-24 10.800781-24 24v48h-8c-13.199219 0-24 10.800781-24 24v80c0 13.199219 10.800781 24 24 24h8v48c0 13.199219 10.800781 24 24 24v-16c-4.398438 0-8-3.601562-8-8zm-32-152c0-4.398438 3.601562-8 8-8h88c4.398438 0 8 3.601562 8 8v48c0 4.398438-3.601562 8-8 8h-96zm8 88c-4.398438 0-8-3.601562-8-8v-8h16v16zm0 0"/><path d="m104 120c0 8.835938-7.164062 16-16 16s-16-7.164062-16-16 7.164062-16 16-16 16 7.164062 16 16zm0 0"/><path d="m424 56h-16c0-8.800781-7.199219-16-16-16h-16c-8.800781 0-16 7.199219-16 16h-56c0-8.800781-7.199219-16-16-16h-16c-8.800781 0-16 7.199219-16 16v12.300781l-45.898438 39.398438c-2.800781-2.398438-6.402343-3.699219-10.101562-3.699219h-16c-8.800781 0-16 7.199219-16 16h-16v16h16c0 8.800781 7.199219 16 16 16h16c8.800781 0 16-7.199219 16-16v-12.300781l45.898438-39.398438c2.800781 2.398438 6.402343 3.699219 10.101562 3.699219h16c8.800781 0 16-7.199219 16-16h56c0 8.800781 7.199219 16 16 16h16c8.800781 0 16-7.199219 16-16h16zm-240 80v-16h16v16zm88-64v-16h16v16zm104 0v-16h16v16zm0 0"/><path d="m248 136h16v16h-16zm0 0"/><path d="m280 136h112v16h-112zm0 0"/><path d="m408 136h16v16h-16zm0 0"/><path d="m264 104h16v16h-16zm0 0"/><path d="m296 104h96v16h-96zm0 0"/><path d="m408 104h16v16h-16zm0 0"/></svg>