<svg id="Layer_5" enable-background="new 0 0 64 64" height="512" viewBox="0 0 64 64" width="512" xmlns="http://www.w3.org/2000/svg"><g><g><g><path d="m54 59 .84-5.86c1.94.41 3.64 1.45 4.89 2.86 1.42 1.61 2.27 3.72 2.27 6h-22c0-4.3 3.02-7.98 7.16-8.86l.84 5.86 3-3z" fill="#fcd770"/></g><g><path d="m54.84 53.14-.84 5.86-3-3 3-3 .06.01c.26.03.52.08.78.13z" fill="#ffc729"/></g><g><path d="m51 56-3 3-.84-5.86c.26-.05.52-.1.78-.13l.06-.01z" fill="#ffc729"/></g><g><path d="m58 41.56c0 1.04-.25 2.04-.69 2.93-.35-.31-.81-.49-1.31-.49h-1-1c-2.02 0-2.68-1.82-2.9-3h-2.1l-.34.17c-1.02.51-1.66 1.55-1.66 2.68v.15h-1c-.5 0-.96.18-1.31.49-.44-.89-.69-1.89-.69-2.93 0-3.62 2.94-6.56 6.56-6.56h.88c1.81 0 3.45.74 4.64 1.92 1.18 1.19 1.92 2.83 1.92 4.64z" fill="#b27946"/></g><g><circle cx="32" cy="32" fill="#69d6f4" r="12"/></g><g><path d="m16.06 20.01c1.46.18 2.8.7 3.94 1.48 1.12.75 2.05 1.74 2.73 2.89-.42.51-.8 1.04-1.12 1.61-.54.93-.96 1.94-1.23 3.01h-18.38c0-3.11 1.57-5.88 4-7.51 1.15-.78 2.49-1.3 3.94-1.48l.06-.01c0 1.66 1.34 3 3 3 .83 0 1.58-.34 2.12-.88s.88-1.29.88-2.12z" fill="#ff826e"/></g><g><path d="m6 21.49v-8.49c0 .55.22 1.05.59 1.41.36.37.86.59 1.41.59h1.13c.18.7.55 1.33 1.04 1.83.21.21.45.4.7.55v.01l-.87 2.61-.06.01c-1.45.18-2.79.7-3.94 1.48z" fill="#656d78"/></g><g><path d="m6 9c0-1.94.78-3.68 2.05-4.95s3.01-2.05 4.95-2.05c3.87 0 7 3.13 7 7v4c0-.55-.22-1.05-.59-1.41-.36-.37-.86-.59-1.41-.59h-1-1c-2.02 0-2.68-1.82-2.9-3h-2.1l-.34.17c-1.02.51-1.66 1.55-1.66 2.68v.15h-1c-1.1 0-2 .9-2 2z" fill="#656d78"/></g><g><path d="m20 13v8.49c-1.14-.78-2.48-1.3-3.94-1.48l-.06-.01-.87-2.61v-.01c.85-.53 1.48-1.38 1.74-2.38h1.13c1.1 0 2-.9 2-2z" fill="#656d78"/></g><g><path d="m20 13c0 1.1-.9 2-2 2h-1.13c.09-.32.13-.65.13-1v-3h1c.55 0 1.05.22 1.41.59.37.36.59.86.59 1.41z" fill="#f0d0b4"/></g><g><path d="m15.13 17.39.87 2.61c0 .83-.34 1.58-.88 2.12s-1.29.88-2.12.88c-1.66 0-3-1.34-3-3l.87-2.61v-.01c.62.39 1.35.62 2.13.62s1.51-.23 2.13-.62z" fill="#f0d0b4"/></g><g><path d="m16.87 15c-.26 1-.89 1.85-1.74 2.38-.62.39-1.35.62-2.13.62s-1.51-.23-2.13-.62c-.25-.15-.49-.34-.7-.55-.49-.5-.86-1.13-1.04-1.83-.09-.32-.13-.65-.13-1v-3-.15c0-1.13.64-2.17 1.66-2.68l.34-.17h2.1c.22 1.18.88 3 2.9 3h1v3c0 .35-.04.68-.13 1z" fill="#f0d0b4"/></g><g><path d="m6.59 14.41c-.37-.36-.59-.86-.59-1.41 0-1.1.9-2 2-2h1v3c0 .35.04.68.13 1h-1.13c-.55 0-1.05-.22-1.41-.59z" fill="#f0d0b4"/></g><g><path d="m57.41 44.59c.37.36.59.86.59 1.41 0 1.1-.9 2-2 2h-1.13c.09-.32.13-.65.13-1v-3h1c.5 0 .96.18 1.31.49.03.04.07.07.1.1z" fill="#f0d0b4"/></g><g><path d="m48.87 50.38c1.85.61 1.99.62 2.13.62.78 0 1.51-.23 2.13-.62v.01l.87 2.61-3 3-3-3 .87-2.61z" fill="#f0d0b4"/></g><g><path d="m47 44v3c0 .35.04.68.13 1h-1.13c-.55 0-1.05-.22-1.41-.59-.37-.36-.59-.86-.59-1.41 0-.6.27-1.14.69-1.51.35-.31.81-.49 1.31-.49z" fill="#f0d0b4"/></g><g><path d="m54.87 48c-.26 1-.89 1.85-1.74 2.38-.62.39-1.35.62-2.13.62-.14 0-.28-.01-2.13-.62-.25-.15-.49-.34-.7-.55-.49-.5-.86-1.13-1.04-1.83-.09-.32-.13-.65-.13-1v-3-.15c0-1.13.64-2.17 1.66-2.68l.34-.17h2.1c.22 1.18.88 3 2.9 3h1v3c0 .35-.04.68-.13 1z" fill="#f0d0b4"/></g><g><path d="m8 62c-3.31 0-6-2.69-6-6v-2c0-1.77.77-3.37 2-4.46 1.06-.96 2.46-1.54 4-1.54s2.94.58 4 1.54c.08.07.16.14.24.22 1.09 1.08 1.76 2.58 1.76 4.24v2c0 3.31-2.69 6-6 6z" fill="#b4dd7f"/></g><g><path d="m56 24c-3.31 0-6-2.69-6-6v-2c0-1.77.77-3.37 2-4.46 1.06-.96 2.46-1.54 4-1.54s2.94.58 4 1.54c.08.07.16.14.24.22 1.09 1.08 1.76 2.58 1.76 4.24v2c0 3.31-2.69 6-6 6z" fill="#b4dd7f"/></g><g><circle cx="8" cy="54" fill="#fcd770" r="2"/></g><g><circle cx="56" cy="16" fill="#fcd770" r="2"/></g><g><circle cx="32" cy="10" fill="#ff826e" r="2"/></g><g><circle cx="32" cy="54" fill="#ff826e" r="2"/></g></g><g><path d="m8 51c-1.654 0-3 1.346-3 3 0 1.302.839 2.402 2 2.816v2.184h2v-2.184c1.161-.414 2-1.514 2-2.816 0-1.654-1.346-3-3-3zm0 4c-.551 0-1-.448-1-1s.449-1 1-1 1 .448 1 1-.449 1-1 1z"/><path d="m13 44c0-2.757-2.243-5-5-5s-5 2.243-5 5v5.111c-1.235 1.262-2 2.987-2 4.889v2c0 3.859 3.14 7 7 7s7-3.141 7-7v-2c0-1.902-.765-3.627-2-4.889zm-5-3c1.654 0 3 1.346 3 3v3.685c-.911-.434-1.925-.685-3-.685s-2.089.251-3 .685v-3.685c0-1.654 1.346-3 3-3zm5 15c0 2.757-2.243 5-5 5s-5-2.243-5-5v-2c0-2.757 2.243-5 5-5s5 2.243 5 5z"/><path d="m56 13c-1.654 0-3 1.346-3 3 0 1.302.839 2.402 2 2.816v2.184h2v-2.184c1.161-.414 2-1.514 2-2.816 0-1.654-1.346-3-3-3zm0 4c-.551 0-1-.448-1-1s.449-1 1-1 1 .448 1 1-.449 1-1 1z"/><path d="m61 11.111v-5.111c0-2.757-2.243-5-5-5s-5 2.243-5 5v5.111c-1.235 1.263-2 2.988-2 4.889v2c0 3.859 3.14 7 7 7s7-3.141 7-7v-2c0-1.902-.765-3.627-2-4.889zm-5-8.111c1.654 0 3 1.346 3 3v3.685c-.911-.434-1.925-.685-3-.685s-2.089.251-3 .685v-3.685c0-1.654 1.346-3 3-3zm5 15c0 2.757-2.243 5-5 5s-5-2.243-5-5v-2c0-2.757 2.243-5 5-5s5 2.243 5 5z"/><path d="m54.756 52.106-.459-1.377c.54-.478.985-1.06 1.279-1.729h.424c1.654 0 3-1.346 3-3 0-.628-.195-1.21-.527-1.693.341-.873.527-1.809.527-2.747 0-4.168-3.391-7.56-7.559-7.56h-.882c-4.168 0-7.559 3.392-7.559 7.56 0 .938.186 1.874.527 2.748-.332.482-.527 1.064-.527 1.692 0 1.654 1.346 3 3 3h.424c.294.669.739 1.251 1.279 1.729l-.458 1.374c-4.739.869-8.245 5.026-8.245 9.897v1h24v-1c0-4.853-3.479-8.996-8.244-9.894zm-5.17 3.894-.879.879-.293-2.051zm1.414 1.414 3.586 3.586h-7.172zm2.586-2.586-.293 2.051-.879-.879zm2.414-7.828v-2c.551 0 1 .448 1 1s-.449 1-1 1zm-11-1c0-.552.449-1 1-1v2c-.551 0-1-.448-1-1zm1.1-3h-.1c-.267 0-.522.046-.768.112-.147-.504-.232-1.027-.232-1.552 0-3.065 2.494-5.56 5.559-5.56h.882c3.065 0 5.559 2.494 5.559 5.56 0 .526-.085 1.048-.231 1.553-.247-.067-.502-.113-.769-.113v-1h-2v1c-1.958 0-1.999-2.881-2-3.003l-1 .003h-1c0 1.729.836 5 4 5v2c0 1.654-1.346 3-3 3s-3-1.346-3-3v-3.146c0-.763.423-1.448 1.105-1.789l.342-.171-.895-1.789-.342.171c-1.101.551-1.857 1.555-2.11 2.724zm4.9 9c.535 0 1.041-.107 1.525-.263l.331.993-1.856 1.856-1.856-1.856.331-.993c.484.156.99.263 1.525.263zm-4.663 2.428.939 6.572h-6.214c.376-3.009 2.431-5.54 5.275-6.572zm8.387 6.572.94-6.58c2.828 1.019 4.896 3.558 5.274 6.58z"/><path d="m19 32c0 7.168 5.832 13 13 13s13-5.832 13-13-5.832-13-13-13c-3.57 0-6.807 1.448-9.159 3.785-.537-.685-1.156-1.288-1.841-1.805v-11.98c0-4.411-3.589-8-8-8s-8 3.589-8 8v11.984c-2.439 1.85-4 4.771-4 8.016v1h18.17c-.101.654-.17 1.318-.17 2zm3.214-5h4.217c-.225 1.237-.364 2.581-.409 4h-4.971c.129-1.43.537-2.779 1.163-4zm9.786-6c1.075 0 2.22 1.527 3.009 4h-6.018c.789-2.473 1.934-4 3.009-4zm3.519 6c.244 1.209.408 2.553.46 4h-7.958c.052-1.447.217-2.791.46-4zm7.43 4h-4.971c-.046-1.419-.184-2.763-.409-4h4.217c.626 1.221 1.034 2.57 1.163 4zm-10.949 12c-1.075 0-2.22-1.527-3.009-4h6.018c-.789 2.473-1.934 4-3.009 4zm-3.519-6c-.244-1.209-.408-2.553-.46-4h7.958c-.052 1.447-.217 2.791-.46 4zm-7.43-4h4.971c.046 1.419.184 2.763.409 4h-4.217c-.626-1.221-1.034-2.57-1.163-4zm16.927 0h4.971c-.13 1.43-.537 2.779-1.164 4h-4.217c.226-1.237.365-2.581.41-4zm-14.457 6h3.374c.368 1.295.838 2.422 1.391 3.341-1.874-.675-3.518-1.834-4.765-3.341zm12.193 3.341c.553-.919 1.023-2.046 1.391-3.341h3.374c-1.247 1.507-2.891 2.666-4.765 3.341zm4.765-17.341h-3.374c-.368-1.295-.838-2.422-1.391-3.341 1.874.675 3.518 1.834 4.765 3.341zm-12.193-3.341c-.553.919-1.023 2.046-1.391 3.341h-3.374c1.247-1.507 2.891-2.666 4.765-3.341zm-11.53-2.554-.459-1.376c.54-.478.985-1.06 1.279-1.729h.424c.352 0 .686-.072 1-.184v3.987c-.71-.311-1.459-.551-2.244-.698zm-5.281-.368c.484.156.99.263 1.525.263s1.041-.107 1.525-.263l.463 1.388c-.066 1.043-.928 1.875-1.988 1.875s-1.922-.832-1.987-1.876zm6.525-6.737c.551 0 1 .448 1 1s-.449 1-1 1zm-5-9c3.309 0 6 2.691 6 6v1.184c-.314-.112-.648-.184-1-.184v-1h-2v1c-1.958 0-1.999-2.881-2-3.003l-1 .003h-1c0 1.729.836 5 4 5v2c0 1.654-1.346 3-3 3s-3-1.346-3-3v-3.146c0-.763.423-1.448 1.105-1.789l.342-.171-.895-1.789-.342.171c-1.101.551-1.857 1.555-2.11 2.724h-.1c-.352 0-.686.072-1 .184v-1.184c0-3.309 2.691-6 6-6zm-5 11c-.551 0-1-.448-1-1s.449-1 1-1zm-1 1.816c.314.112.648.184 1 .184h.424c.294.669.739 1.251 1.279 1.729l-.458 1.374c-.787.145-1.536.387-2.245.701zm-3.938 12.184c.413-3.304 2.849-6.032 6.133-6.831.503 1.633 2.009 2.831 3.805 2.831 1.8 0 3.308-1.202 3.808-2.841 1.911.452 3.566 1.58 4.703 3.192-.805 1.1-1.446 2.326-1.876 3.649z"/><path d="m33 51.184v-4.184h-2v4.184c-.847.302-1.514.969-1.816 1.816h-12.184v2h12.184c.414 1.161 1.514 2 2.816 2 1.654 0 3-1.346 3-3 0-1.302-.839-2.402-2-2.816zm-1 3.816c-.551 0-1-.448-1-1s.449-1 1-1 1 .448 1 1-.449 1-1 1z"/><path d="m31 12.816v4.184h2v-4.184c.847-.302 1.514-.969 1.816-1.816h12.184v-2h-12.184c-.414-1.161-1.514-2-2.816-2-1.654 0-3 1.346-3 3 0 1.302.839 2.402 2 2.816zm1-3.816c.551 0 1 .448 1 1s-.449 1-1 1-1-.448-1-1 .449-1 1-1z"/></g></g></svg>