<?xml version="1.0" encoding="iso-8859-1"?>
<!-- Generator: Adobe Illustrator 19.0.0, SVG Export Plug-In . SVG Version: 6.00 Build 0)  -->
<svg version="1.1" id="Capa_1" xmlns="http://www.w3.org/2000/svg" xmlns:xlink="http://www.w3.org/1999/xlink" x="0px" y="0px"
	 viewBox="0 0 512 512" style="enable-background:new 0 0 512 512;" xml:space="preserve">
<path style="fill:#FFFFFF;" d="M475,88v374c0,22.091-17.909,40-40,40H77c-22.091,0-40-17.909-40-40V50c0-22.091,17.909-40,40-40
	h315.988L475,88z"/>
<rect x="96" y="352" style="fill:#FF5A5A;" width="80" height="80"/>
<rect x="216" y="352" style="fill:#78D2FA;" width="80" height="80"/>
<g>
	<rect x="336" y="352" style="fill:#A5DC69;" width="80" height="80"/>
	<path style="fill:#A5DC69;" d="M376,164L376,164c22.091,0,40-17.909,40-40l0,0c0-22.091-17.909-40-40-40l0,0
		c-22.091,0-40,17.909-40,40l0,0C336,146.091,353.909,164,376,164z"/>
</g>
<path style="fill:#78D2FA;" d="M256,164L256,164c22.091,0,40-17.909,40-40l0,0c0-22.091-17.909-40-40-40l0,0
	c-22.091,0-40,17.909-40,40l0,0C216,146.091,233.909,164,256,164z"/>
<path style="fill:#FF5A5A;" d="M136,164L136,164c22.091,0,40-17.909,40-40l0,0c0-22.091-17.909-40-40-40l0,0
	c-22.091,0-40,17.909-40,40l0,0C96,146.091,113.909,164,136,164z"/>
<rect x="170" y="216" style="fill:#F5C86E;" width="172" height="80"/>
<path style="fill:#78D2FA;" d="M475,88h-38.015c-22.091,0-40-17.909-40-40V10L475,88z"/>
<path d="M284,266.13c2.63,0,5.21-1.07,7.07-2.93c1.86-1.86,2.93-4.44,2.93-7.07c0-2.64-1.07-5.21-2.93-7.07
	c-1.86-1.87-4.44-2.93-7.07-2.93s-5.21,1.06-7.07,2.93c-1.86,1.86-2.93,4.44-2.93,7.07s1.07,5.21,2.93,7.07
	C278.79,265.06,281.37,266.13,284,266.13z"/>
<path d="M475,277c-2.63,0-5.21,1.069-7.07,2.93c-1.86,1.86-2.93,4.44-2.93,7.07s1.07,5.21,2.93,7.069
	c1.86,1.86,4.44,2.931,7.07,2.931s5.21-1.07,7.07-2.931c1.86-1.859,2.93-4.439,2.93-7.069s-1.07-5.21-2.93-7.07S477.63,277,475,277z
	"/>
<path d="M482.066,80.925L404.055,2.929c-2.388-2.389-5.779-3.355-9.01-2.715C394.381,0.075,393.693,0,392.988,0H77
	C49.43,0,27,22.43,27,50v412c0,27.57,22.43,50,50,50h358c27.57,0,50-22.43,50-50V335.667c0-5.522-4.477-10-10-10s-10,4.478-10,10
	V462c0,16.542-13.458,30-30,30H77c-16.542,0-30-13.458-30-30V50c0-16.542,13.458-30,30-30h309.985v28
	c0,11.711,4.058,22.486,10.827,31.017C391.216,75.806,383.816,74,376,74c-27.57,0-50,22.43-50,50c0,24.146,17.205,44.348,40,48.994
	v50.98h-14V216c0-5.522-4.477-10-10-10h-76v-33.006c22.795-4.646,40-24.847,40-48.994c0-27.57-22.43-50-50-50s-50,22.43-50,50
	c0,24.146,17.205,44.348,40,48.994V206h-76c-5.523,0-10,4.478-10,10v7.974h-14v-50.98c22.795-4.646,40-24.847,40-48.994
	c0-27.57-22.43-50-50-50s-50,22.43-50,50c0,24.146,17.205,44.348,40,48.994v60.98c0,5.522,4.477,10,10,10h24V266h-24
	c-5.523,0-10,4.478-10,10v66H96c-5.523,0-10,4.478-10,10v80c0,5.522,4.477,10,10,10h80c5.523,0,10-4.478,10-10v-80
	c0-5.522-4.477-10-10-10h-30v-56h14v10c0,5.522,4.477,10,10,10h76v36h-30c-5.523,0-10,4.478-10,10v80c0,5.522,4.477,10,10,10h80
	c5.523,0,10-4.478,10-10v-80c0-5.522-4.477-10-10-10h-30v-36h76c5.523,0,10-4.478,10-10v-10h14v56h-30c-5.523,0-10,4.478-10,10v80
	c0,5.522,4.477,10,10,10h80c5.523,0,10-4.478,10-10v-80c0-5.522-4.477-10-10-10h-30v-66c0-5.522-4.477-10-10-10h-24v-22.026h24
	c5.523,0,10-4.478,10-10v-60.98c22.795-4.646,40-24.847,40-48.994c0-11.711-4.058-22.486-10.827-31.017
	C421.769,96.194,429.169,98,436.985,98H465v144.333c0,5.522,4.477,10,10,10s10-4.478,10-10V88
	C485,85.237,483.879,82.735,482.066,80.925z M226,124c0-16.542,13.458-30,30-30s30,13.458,30,30s-13.458,30-30,30
	S226,140.542,226,124z M106,124c0-16.542,13.458-30,30-30s30,13.458,30,30s-13.458,30-30,30S106,140.542,106,124z M166,422h-60v-60
	h60V422z M286,422h-60v-60h60V422z M406,422h-60v-60h60V422z M332,286H180v-19.873h53.855c5.523,0,10-4.478,10-10s-4.477-10-10-10
	H180V226h152V286z M376,154c-16.542,0-30-13.458-30-30s13.458-30,30-30s30,13.458,30,30S392.542,154,376,154z M436.985,78
	c-16.542,0-30-13.458-30-30V34.139L450.854,78H436.985z"/>
<g>
</g>
<g>
</g>
<g>
</g>
<g>
</g>
<g>
</g>
<g>
</g>
<g>
</g>
<g>
</g>
<g>
</g>
<g>
</g>
<g>
</g>
<g>
</g>
<g>
</g>
<g>
</g>
<g>
</g>
</svg>
