<?xml version="1.0" encoding="iso-8859-1"?>
<!-- Generator: Adobe Illustrator 19.0.0, SVG Export Plug-In . SVG Version: 6.00 Build 0)  -->
<svg version="1.1" id="Capa_1" xmlns="http://www.w3.org/2000/svg" xmlns:xlink="http://www.w3.org/1999/xlink" x="0px" y="0px"
	 viewBox="0 0 512 512" style="enable-background:new 0 0 512 512;" xml:space="preserve">
<path style="fill:#2196F3;" d="M465.414,365.077l-234.667-192c-4.565-3.723-11.285-3.04-15.008,1.525
	c-1.55,1.901-2.398,4.278-2.4,6.731v320c-0.005,4.703,3.072,8.855,7.573,10.219c1.003,0.302,2.046,0.453,3.093,0.448
	c3.568-0.002,6.898-1.787,8.875-4.757L315.057,384h143.616c5.891-0.007,10.661-4.788,10.654-10.679
	C469.323,370.126,467.887,367.1,465.414,365.077z"/>
<g>
	<path style="fill:#455A64;" d="M224.006,106.667c-5.891,0-10.667-4.776-10.667-10.667V10.667C213.34,4.776,218.115,0,224.006,0
		c5.891,0,10.667,4.776,10.667,10.667V96C234.673,101.891,229.897,106.667,224.006,106.667z"/>
	<path style="fill:#455A64;" d="M138.673,192H53.34c-5.891,0-10.667-4.776-10.667-10.667c0-5.891,4.776-10.667,10.667-10.667h85.333
		c5.891,0,10.667,4.776,10.667,10.667C149.34,187.224,144.564,192,138.673,192z"/>
	<path style="fill:#455A64;" d="M394.673,192H309.34c-5.891,0-10.667-4.776-10.667-10.667c0-5.891,4.776-10.667,10.667-10.667
		h85.333c5.891,0,10.667,4.776,10.667,10.667C405.34,187.224,400.564,192,394.673,192z"/>
	<path style="fill:#455A64;" d="M163.676,131.669c-2.831,0.005-5.548-1.115-7.552-3.115L95.772,68.267
		c-4.189-4.189-4.189-10.979,0-15.168c4.189-4.189,10.979-4.189,15.168,0l60.267,60.352c4.171,4.16,4.179,10.914,0.019,15.085
		c-2.006,2.011-4.731,3.139-7.571,3.134H163.676z"/>
	<path style="fill:#455A64;" d="M103.324,312.683c-5.891,0.011-10.675-4.757-10.686-10.648c-0.005-2.84,1.123-5.565,3.134-7.571
		l60.352-60.352c4.237-4.092,10.99-3.975,15.083,0.262c3.992,4.134,3.992,10.687,0,14.82l-60.267,60.373
		C108.92,311.583,106.177,312.705,103.324,312.683z"/>
	<path style="fill:#455A64;" d="M284.337,131.669c-5.891,0.011-10.675-4.757-10.686-10.648c-0.005-2.84,1.123-5.565,3.134-7.571
		l60.288-60.352c4.237-4.093,10.99-3.975,15.083,0.262c3.992,4.134,3.992,10.687,0,14.82l-60.267,60.352
		C289.888,130.54,287.171,131.669,284.337,131.669z"/>
</g>
<path d="M224.006,512c-1.048,0.005-2.09-0.146-3.093-0.448c-4.501-1.364-7.578-5.515-7.573-10.219v-320
	c0.006-5.891,4.786-10.662,10.677-10.656c2.453,0.002,4.83,0.85,6.731,2.4l234.667,192c4.56,3.73,5.232,10.45,1.502,15.01
	c-2.023,2.473-5.048,3.909-8.243,3.913H315.057l-82.176,123.243C230.904,510.213,227.574,511.998,224.006,512z M234.673,203.84
	v262.272l65.792-98.688c1.976-2.97,5.307-4.756,8.875-4.757h119.467L234.673,203.84z"/>
<path d="M224.006,106.667c-5.891,0-10.667-4.776-10.667-10.667V10.667C213.34,4.776,218.115,0,224.006,0
	c5.891,0,10.667,4.776,10.667,10.667V96C234.673,101.891,229.897,106.667,224.006,106.667z"/>
<path d="M138.673,192H53.34c-5.891,0-10.667-4.776-10.667-10.667c0-5.891,4.776-10.667,10.667-10.667h85.333
	c5.891,0,10.667,4.776,10.667,10.667C149.34,187.224,144.564,192,138.673,192z"/>
<path d="M394.673,192H309.34c-5.891,0-10.667-4.776-10.667-10.667c0-5.891,4.776-10.667,10.667-10.667h85.333
	c5.891,0,10.667,4.776,10.667,10.667C405.34,187.224,400.564,192,394.673,192z"/>
<path d="M163.676,131.669c-2.831,0.005-5.548-1.115-7.552-3.115L95.772,68.267c-4.189-4.189-4.189-10.979,0-15.168
	c4.189-4.189,10.979-4.189,15.168,0l60.267,60.352c4.171,4.16,4.179,10.914,0.019,15.085c-2.006,2.011-4.731,3.139-7.571,3.134
	H163.676z"/>
<path d="M103.324,312.683c-5.891,0.011-10.675-4.757-10.686-10.648c-0.005-2.84,1.123-5.565,3.134-7.571l60.352-60.352
	c4.237-4.092,10.99-3.975,15.083,0.262c3.992,4.134,3.992,10.687,0,14.82l-60.267,60.373
	C108.92,311.583,106.177,312.705,103.324,312.683z"/>
<path d="M284.337,131.669c-5.891,0.011-10.675-4.757-10.686-10.648c-0.005-2.84,1.123-5.565,3.134-7.571l60.288-60.352
	c4.237-4.093,10.99-3.975,15.083,0.262c3.992,4.134,3.992,10.687,0,14.82l-60.267,60.352
	C289.888,130.54,287.171,131.669,284.337,131.669z"/>
<g>
</g>
<g>
</g>
<g>
</g>
<g>
</g>
<g>
</g>
<g>
</g>
<g>
</g>
<g>
</g>
<g>
</g>
<g>
</g>
<g>
</g>
<g>
</g>
<g>
</g>
<g>
</g>
<g>
</g>
</svg>
