<?xml version="1.0" encoding="iso-8859-1"?>
<!-- Generator: Adobe Illustrator 19.0.0, SVG Export Plug-In . SVG Version: 6.00 Build 0)  -->
<svg version="1.1" id="Capa_1" xmlns="http://www.w3.org/2000/svg" xmlns:xlink="http://www.w3.org/1999/xlink" x="0px" y="0px"
	 viewBox="0 0 512 512" style="enable-background:new 0 0 512 512;" xml:space="preserve">
<rect x="50.39" y="78" style="fill:#72D8FF;" width="76" height="76"/>
<rect x="264" y="10" style="fill:#A0E557;" width="76" height="76"/>
<rect x="165.84" y="118" style="fill:#6A80FF;" width="76" height="36"/>
<rect x="392" y="81.999" style="fill:#FF5D5D;" width="56" height="72"/>
<rect x="21" y="154" style="fill:#D8D8E4;" width="470" height="54"/>
<polygon style="fill:#B3B6C3;" points="491,207.999 21,207.999 208,394.999 208,502 304,468 304,394.999 "/>
<circle style="fill:#FFB954;" cx="346" cy="428" r="74"/>
<path d="M501,207.999v-54c0-5.522-4.478-10-10-10h-33v-62c0-5.522-4.478-10-10-10h-56c-5.522,0-10,4.478-10,10v62h-31.999V128
	c0-5.522-4.478-10-10-10s-10,4.478-10,10v15.999h-78.165V118c0-5.522-4.478-10-10-10h-76c-5.522,0-10,4.478-10,10v25.999h-19.449V78
	c0-5.522-4.478-10-10-10h-76c-5.522,0-10,4.478-10,10v65.999H21c-5.522,0-10,4.478-10,10v54c0,2.761,1.119,5.261,2.929,7.071l0,0
	L198,399.142V502c0,3.248,1.577,6.293,4.229,8.167c1.711,1.209,3.73,1.833,5.771,1.833c1.123,0,2.253-0.189,3.34-0.574l48-17.012
	c5.205-1.845,7.93-7.561,6.085-12.767c-1.847-5.205-7.563-7.931-12.767-6.085L218,487.847v-92.848c0-2.652-1.054-5.195-2.929-7.071
	L45.143,217.999h421.715l-53.929,53.929c-3.905,3.905-3.905,10.237,0,14.143c3.906,3.904,10.236,3.904,14.143,0l71-71l0,0
	C499.881,213.26,501,210.76,501,207.999z M402,91.999h36v52h-36V91.999z M175.836,128h56v15.999h-56V128z M60.387,88h56v55.999h-56
	V88z M31,197.999v-34h450v34H31z"/>
<path d="M393.069,320.069C394.93,318.21,396,315.63,396,313s-1.07-5.21-2.931-7.07C391.21,304.07,388.63,303,386,303
	s-5.21,1.069-7.07,2.93S376,310.37,376,313s1.069,5.21,2.93,7.069c1.86,1.86,4.44,2.931,7.07,2.931S391.21,321.93,393.069,320.069z"
	/>
<path d="M346,397.686c6.617,0,12,4.471,12,9.966c0,5.522,4.478,10,10,10s10-4.478,10-10c0-13.257-9.244-24.523-22.01-28.462
	c-0.103-5.433-4.532-9.809-9.99-9.809s-9.888,4.376-9.99,9.809c-12.766,3.939-22.01,15.206-22.01,28.462
	c0,16.523,14.355,29.967,32,29.967c6.617,0,12,4.471,12,9.966s-5.383,9.966-12,9.966s-12-4.471-12-9.966c0-5.522-4.478-10-10-10
	s-10,4.478-10,10c0,13.261,9.25,24.53,22.022,28.466c0.227,5.321,4.601,9.57,9.978,9.57s9.751-4.249,9.978-9.57
	C368.75,472.114,378,460.845,378,447.584c0-16.523-14.355-29.966-32-29.966c-6.617,0-12-4.471-12-9.967
	C334,402.156,339.383,397.686,346,397.686z"/>
<path d="M346,344c-46.317,0-84,37.683-84,84s37.683,84,84,84s84-37.683,84-84S392.317,344,346,344z M346,492
	c-35.29,0-64-28.71-64-64s28.71-64,64-64s64,28.71,64,64S381.29,492,346,492z"/>
<path d="M234.819,248.93c-1.859-1.86-4.43-2.93-7.069-2.93c-2.63,0-5.21,1.069-7.07,2.93s-2.93,4.44-2.93,7.07
	s1.069,5.21,2.93,7.069c1.86,1.86,4.44,2.931,7.07,2.931c2.64,0,5.21-1.07,7.069-2.931c1.87-1.859,2.931-4.439,2.931-7.069
	S236.689,250.79,234.819,248.93z"/>
<path d="M165.67,248.93c-1.86,1.86-2.93,4.44-2.93,7.07s1.069,5.21,2.93,7.069c1.86,1.86,4.439,2.931,7.07,2.931
	c2.63,0,5.21-1.07,7.069-2.931c1.86-1.859,2.931-4.439,2.931-7.069s-1.07-5.21-2.931-7.07c-1.859-1.86-4.439-2.93-7.069-2.93
	C170.109,246,167.53,247.069,165.67,248.93z"/>
<path d="M282.76,266c2.64,0,5.21-1.07,7.08-2.931c1.86-1.859,2.93-4.439,2.93-7.069s-1.069-5.21-2.93-7.07
	c-1.87-1.86-4.44-2.93-7.08-2.93c-2.63,0-5.21,1.069-7.07,2.93c-1.859,1.86-2.92,4.44-2.92,7.07s1.061,5.21,2.92,7.069
	C277.56,264.93,280.13,266,282.76,266z"/>
<path d="M227.75,329c-2.63,0-5.21,1.069-7.07,2.93s-2.93,4.44-2.93,7.07s1.069,5.21,2.93,7.069c1.86,1.86,4.44,2.931,7.07,2.931
	c2.64,0,5.21-1.07,7.069-2.931c1.87-1.859,2.931-4.439,2.931-7.069s-1.061-5.21-2.931-7.07C232.96,330.069,230.38,329,227.75,329z"
	/>
<path d="M275.689,346.069c1.87,1.86,4.44,2.931,7.08,2.931c2.63,0,5.21-1.07,7.061-2.931c1.87-1.859,2.939-4.439,2.939-7.069
	s-1.069-5.21-2.939-7.07c-1.86-1.86-4.431-2.93-7.061-2.93s-5.21,1.069-7.08,2.93c-1.859,1.86-2.92,4.44-2.92,7.07
	S273.83,344.21,275.689,346.069z"/>
<path d="M263.069,290.43c-1.859-1.86-4.439-2.93-7.069-2.93s-5.21,1.069-7.07,2.93s-2.93,4.44-2.93,7.07s1.069,5.21,2.93,7.069
	c1.86,1.86,4.44,2.931,7.07,2.931s5.21-1.07,7.069-2.931c1.86-1.859,2.931-4.439,2.931-7.069S264.93,292.29,263.069,290.43z"/>
<path d="M199.68,290.43c-1.86,1.86-2.93,4.44-2.93,7.07s1.069,5.21,2.93,7.069c1.87,1.86,4.44,2.931,7.07,2.931
	c2.64,0,5.21-1.07,7.069-2.931c1.87-1.859,2.931-4.439,2.931-7.069s-1.061-5.21-2.931-7.07c-1.859-1.86-4.43-2.93-7.069-2.93
	C204.12,287.5,201.55,288.569,199.68,290.43z"/>
<path d="M312.31,304.569c1.87-1.859,2.931-4.439,2.931-7.069s-1.061-5.21-2.931-7.07c-1.859-1.86-4.43-2.93-7.06-2.93
	c-2.641,0-5.21,1.069-7.07,2.93c-1.87,1.86-2.93,4.44-2.93,7.07s1.06,5.21,2.93,7.069c1.86,1.86,4.43,2.931,7.07,2.931
	C307.88,307.5,310.45,306.43,312.31,304.569z"/>
<path d="M346.33,263.069c1.859-1.859,2.93-4.439,2.93-7.069s-1.07-5.21-2.93-7.07s-4.44-2.93-7.07-2.93s-5.21,1.069-7.07,2.93
	c-1.859,1.86-2.93,4.44-2.93,7.07s1.07,5.21,2.93,7.069c1.86,1.86,4.44,2.931,7.07,2.931S344.47,264.93,346.33,263.069z"/>
<path d="M264.001,96h76c5.522,0,10-4.478,10-10V10c0-5.522-4.478-10-10-10h-76c-5.522,0-10,4.478-10,10v76
	C254.001,91.522,258.479,96,264.001,96z M274.001,20h56v56h-56V20z"/>
<path d="M165.836,51.667c5.522,0,10-4.478,10-10V10c0-5.522-4.478-10-10-10s-10,4.478-10,10v31.667
	C155.836,47.189,160.313,51.667,165.836,51.667z"/>
<path d="M165.84,67.83c-2.64,0-5.21,1.069-7.07,2.93c-1.87,1.86-2.93,4.44-2.93,7.07s1.06,5.21,2.93,7.069
	c1.86,1.87,4.431,2.931,7.07,2.931c2.63,0,5.2-1.061,7.07-2.931c1.859-1.859,2.93-4.439,2.93-7.069s-1.07-5.21-2.93-7.07
	C171.05,68.899,168.47,67.83,165.84,67.83z"/>
<path d="M88.387,45c5.522,0,10-4.478,10-10V10c0-5.522-4.478-10-10-10s-10,4.478-10,10v25C78.387,40.522,82.864,45,88.387,45z"/>
<path d="M419.98,45c5.522,0,10-4.478,10-10V10c0-5.522-4.478-10-10-10s-10,4.478-10,10v25C409.98,40.522,414.458,45,419.98,45z"/>
<path d="M206,74c5.522,0,10-4.478,10-10V35c0-5.522-4.478-10-10-10s-10,4.478-10,10v29C196,69.522,200.478,74,206,74z"/>
<g>
</g>
<g>
</g>
<g>
</g>
<g>
</g>
<g>
</g>
<g>
</g>
<g>
</g>
<g>
</g>
<g>
</g>
<g>
</g>
<g>
</g>
<g>
</g>
<g>
</g>
<g>
</g>
<g>
</g>
</svg>
