<?xml version="1.0"?>
<svg xmlns="http://www.w3.org/2000/svg" xmlns:xlink="http://www.w3.org/1999/xlink" version="1.1" id="Capa_1" x="0px" y="0px" viewBox="0 0 512.002 512.002" style="enable-background:new 0 0 512.002 512.002;" xml:space="preserve" width="512px" height="512px" class=""><g transform="matrix(-1 1.22465e-16 -1.22465e-16 -1 512.002 512.002)"><rect x="451.498" y="217.179" style="fill:#022738" width="22.689" height="75.63" data-original="#166793" class="" data-old_color="#00141D"/><rect x="353.18" y="217.179" style="fill:#004260" width="68.067" height="75.63" data-original="#5A9DAF" class="" data-old_color="#004362"/><rect x="396.662" y="217.179" style="fill:#022738" width="24.58" height="75.63" data-original="#166793" class="" data-old_color="#00141D"/><polygon style="fill:#009EE8" points="322.926,218.186 155.466,218.186 224.608,149.045 171.13,95.567 64.173,202.523   10.695,256.001 171.13,416.435 224.608,362.957 155.466,293.816 322.926,293.816 " data-original="#ACD9E5" class="" data-old_color="#009ee8"/><rect x="213.265" y="218.187" style="fill:#026EA0" width="109.663" height="75.63" data-original="#8DBCC9" class="" data-old_color="#026FA1"/><rect x="273.769" y="218.187" style="fill:#004260" width="49.159" height="75.63" data-original="#5A9DAF" class="" data-old_color="#004362"/><path d="M171.131,427.132L0,256.001L171.131,84.87l64.173,64.174l-61.579,61.579h156.764v90.755H173.725l61.579,61.579  L171.131,427.132z M21.391,256.001L171.131,405.74l42.782-42.783l-76.705-76.705h178.155v-60.504H137.208l76.704-76.705  l-42.782-42.783L21.391,256.001z" data-original="#000000" class=""/><path d="M428.807,300.37h-83.193v-90.755h83.193V300.37z M360.741,285.244h52.941v-60.504h-52.941V285.244z" data-original="#000000" class=""/><path d="M481.748,300.37h-37.815v-90.755h37.815V300.37z M459.059,285.244h7.563v-60.504h-7.563V285.244z" data-original="#000000" class=""/><rect x="496.876" y="209.616" width="15.126" height="90.755" data-original="#000000" class=""/><g>
	<rect x="241.621" y="247.431" style="fill:#FFFFFF" width="58.608" height="15.126" data-original="#FFFFFF" class="active-path"/>
	<rect x="196.244" y="247.431" style="fill:#FFFFFF" width="30.252" height="15.126" data-original="#FFFFFF" class="active-path"/>
	<rect x="165.992" y="247.431" style="fill:#FFFFFF" width="15.126" height="15.126" data-original="#FFFFFF" class="active-path"/>
</g></g> </svg>
