<?xml version="1.0" encoding="iso-8859-1"?>
<!-- Generator: Adobe Illustrator 19.0.0, SVG Export Plug-In . SVG Version: 6.00 Build 0)  -->
<svg version="1.1" id="Layer_1" xmlns="http://www.w3.org/2000/svg" xmlns:xlink="http://www.w3.org/1999/xlink" x="0px" y="0px"
	 viewBox="0 0 502 502" style="enable-background:new 0 0 502 502;" xml:space="preserve">
<g>
	<g>
		<g>
			<path style="fill:#E6E6E6;" d="M277.72,161.287c-4.962-11.288-16.219-25.197-42.221-13.767l-22.914,10.073l-21.834-49.668
				c-13.15-29.914-45.796-32.126-62.368-16.31c-11.998,11.451-17.455,29.705-9.563,47.657l77.437,177.259
				c-18.861-14.285-54.884-14.124-71.008,2.481l0.421-0.637c-17.126,17.637-14.258,42.636,11.729,64.478L276.079,492l198.672-87.338
				l1.081-17.311c2.812-45.041-5.197-90.1-23.358-131.413l-15.038-34.208c-0.78-1.773-1.633-3.506-2.556-5.193
				c-10.488-19.174-33.962-27.078-54.004-18.363l-14.929,6.492l-16.872-38.38c-7.384-16.797-27.068-24.438-43.812-16.932
				L277.72,161.287z"/>
			<path d="M461.63,251.914l-15.038-34.207c-0.89-2.026-1.879-4.035-2.938-5.968c-6.272-11.469-16.565-20.103-28.981-24.313
				c-12.377-4.196-25.794-3.636-37.784,1.578l-5.795,2.52l-7.405-16.845c-0.001-0.002-0.002-0.005-0.003-0.007l-5.456-12.41
				c-4.662-10.604-13.188-18.74-24.007-22.907c-10.766-4.146-22.478-3.845-32.987,0.846l-19.228,8.33
				c-3.557-5.06-7.877-8.921-12.914-11.528c-10.521-5.445-23.178-4.987-37.621,1.363l-13.759,6.048l-17.81-40.514
				c-7.25-16.493-20.706-27.81-36.916-31.05c-15.239-3.046-30.755,1.265-41.51,11.53c-16.139,15.402-20.776,38.528-11.822,58.895
				l67.466,154.435c-5.649-1.143-11.602-1.666-17.643-1.519c-15.691,0.387-29.8,5.377-39.247,13.79
				c-0.62,0.402-1.203,0.878-1.737,1.428c-9.494,9.777-14.174,21.604-13.537,34.201c0.797,15.743,9.79,31.268,26.006,44.898
				c0.082,0.069,0.165,0.137,0.25,0.203l138.681,109.147c1.794,1.413,3.979,2.142,6.186,2.142c1.362,0,2.732-0.278,4.023-0.846
				l198.672-87.337c3.425-1.505,5.723-4.797,5.956-8.531l1.081-17.312C488.713,341.548,480.351,294.499,461.63,251.914z
				 M380.613,262.873c1.647,3.747,5.313,5.978,9.16,5.978c1.344,0,2.71-0.272,4.019-0.848c5.056-2.222,7.353-8.123,5.13-13.179
				l-19.779-44.992l5.722-2.488c15.467-6.727,33.2-0.713,41.244,13.994c0.783,1.431,1.514,2.916,2.173,4.416l15.039,34.208
				c17.441,39.676,25.233,83.511,22.532,126.766l-0.702,11.231L277.55,480.431L143.715,375.097
				c-11.612-9.796-18.28-20.623-18.78-30.498c-0.324-6.402,1.87-12.364,6.526-17.748c0.336-0.267,0.658-0.558,0.964-0.873
				c11.971-12.329,41.824-13.181,57.414-1.748l34.447,33.084c1.939,1.862,4.434,2.788,6.926,2.788c2.627,0,5.25-1.029,7.214-3.073
				c3.826-3.983,3.698-10.314-0.285-14.14l-33.516-32.191l-76.648-175.452c-6.717-15.28-0.627-28.821,7.313-36.398
				c5.953-5.682,15.066-8.129,23.782-6.386c9.87,1.973,17.87,8.893,22.527,19.486l58.06,132.072c1.647,3.747,5.313,5.978,9.16,5.978
				c1.344,0,2.71-0.272,4.019-0.848c5.056-2.223,7.353-8.123,5.13-13.179l-32.201-73.249l13.76-6.049
				c8.636-3.795,15.493-4.438,20.379-1.909c3.458,1.79,6.373,5.338,8.663,10.546l34.24,77.888c1.647,3.747,5.313,5.978,9.16,5.978
				c1.344,0,2.71-0.272,4.019-0.848c5.056-2.223,7.353-8.123,5.13-13.179l-30.194-68.685l18.32-7.937
				c0.039-0.017,0.077-0.033,0.115-0.051c5.625-2.521,11.904-2.685,17.681-0.46c5.809,2.237,10.385,6.602,12.886,12.292
				L380.613,262.873z"/>
			<g>
				<path d="M420.718,407.562c-3.85,0-7.518-2.235-9.163-5.986c-2.218-5.058,0.083-10.956,5.141-13.174l9.865-4.327
					c5.059-2.219,10.957,0.083,13.174,5.141c2.218,5.058-0.083,10.956-5.141,13.174l-9.865,4.327
					C423.423,407.291,422.059,407.562,420.718,407.562z"/>
			</g>
			<g>
				<path d="M285.439,467.119c-3.85,0-7.518-2.235-9.163-5.986c-2.218-5.058,0.083-10.956,5.141-13.174l105.353-46.208
					c5.06-2.218,10.957,0.084,13.174,5.141c2.218,5.058-0.083,10.956-5.141,13.174L289.45,466.275
					C288.144,466.848,286.78,467.119,285.439,467.119z"/>
			</g>
		</g>
	</g>
	<g>
		<path d="M136.8,53.177c-4.644,0-8.807-3.253-9.783-7.98l-6.85-33.174c-1.117-5.409,2.362-10.699,7.771-11.815
			c5.407-1.114,10.699,2.363,11.815,7.771l6.85,33.174c1.117,5.409-2.362,10.699-7.771,11.816
			C138.151,53.109,137.47,53.177,136.8,53.177z"/>
	</g>
	<g>
		<path d="M32.524,51.649c-1.797,0-3.616-0.484-5.256-1.5l-6.907-4.277c-4.695-2.908-6.145-9.071-3.236-13.767
			c2.908-4.696,9.071-6.145,13.767-3.236l6.907,4.277c4.695,2.908,6.145,9.071,3.236,13.767
			C39.143,49.968,35.871,51.649,32.524,51.649z"/>
	</g>
	<g>
		<path d="M87.272,87.922c-1.886,0-3.792-0.532-5.486-1.646L60.454,72.245c-4.614-3.035-5.895-9.236-2.86-13.85
			s9.235-5.895,13.85-2.86l21.333,14.031c4.614,3.035,5.895,9.236,2.86,13.85C93.715,86.337,90.525,87.922,87.272,87.922z"/>
	</g>
	<g>
		<path d="M43.644,154.365c-4.644,0-8.807-3.253-9.783-7.98c-1.117-5.409,2.362-10.699,7.771-11.815l33.174-6.85
			c5.411-1.115,10.699,2.363,11.816,7.771c1.117,5.409-2.362,10.699-7.771,11.816l-33.174,6.85
			C44.995,154.297,44.314,154.365,43.644,154.365z"/>
	</g>
	<g>
		<path d="M87.657,233.639c-1.886,0-3.792-0.532-5.486-1.646c-4.614-3.035-5.895-9.236-2.86-13.85l18.614-28.301
			c3.034-4.614,9.235-5.896,13.85-2.86c4.614,3.035,5.895,9.236,2.86,13.85l-18.614,28.301
			C94.1,232.054,90.91,233.639,87.657,233.639z"/>
	</g>
	<g>
		<path d="M231.138,113.159c-4.644,0-8.807-3.253-9.783-7.979c-1.117-5.409,2.362-10.699,7.771-11.816l22.116-4.567
			c5.41-1.117,10.699,2.362,11.816,7.771s-2.362,10.699-7.771,11.816l-22.116,4.567
			C232.488,113.091,231.808,113.159,231.138,113.159z"/>
	</g>
	<g>
		<path d="M293.34,100.315c-4.644,0-8.807-3.253-9.783-7.979c-1.117-5.409,2.362-10.699,7.771-11.816l6.912-1.427
			c5.412-1.116,10.699,2.363,11.816,7.771c1.117,5.409-2.362,10.699-7.771,11.816l-6.912,1.427
			C294.691,100.247,294.01,100.315,293.34,100.315z"/>
	</g>
	<g>
		<path d="M196.393,63.628c-1.886,0-3.792-0.532-5.486-1.646c-4.614-3.035-5.895-9.236-2.86-13.85l18.614-28.301
			c3.034-4.614,9.235-5.896,13.85-2.86c4.614,3.035,5.895,9.236,2.86,13.85l-18.614,28.301
			C202.837,62.043,199.646,63.628,196.393,63.628z"/>
	</g>
</g>
<g>
</g>
<g>
</g>
<g>
</g>
<g>
</g>
<g>
</g>
<g>
</g>
<g>
</g>
<g>
</g>
<g>
</g>
<g>
</g>
<g>
</g>
<g>
</g>
<g>
</g>
<g>
</g>
<g>
</g>
</svg>
