<?xml version="1.0"?>
<svg xmlns="http://www.w3.org/2000/svg" xmlns:xlink="http://www.w3.org/1999/xlink" version="1.1" id="Capa_1" x="0px" y="0px" viewBox="0 0 512 512" style="enable-background:new 0 0 512 512;" xml:space="preserve" width="512px" height="512px" class=""><g><rect x="370.755" y="221.223" style="fill:#0377B1" width="50.846" height="67.795" data-original="#5A9DAF" class="active-path" data-old_color="#0375AD"/><g>
	<rect x="397.12" y="221.223" style="fill:#053E5A" width="24.482" height="67.795" data-original="#166793" class="" data-old_color="#05415E"/>
	<rect x="449.849" y="221.223" style="fill:#053E5A" width="24.482" height="67.795" data-original="#166793" class="" data-old_color="#05415E"/>
</g><polygon style="fill:#0377B1" points="264.442,371.851 312.381,323.912 277.487,289.018 340.629,289.018 340.629,221.223   279.244,221.223 312.381,188.087 264.442,140.148 148.59,255.999 " data-original="#5A9DAF" class="active-path" data-old_color="#0375AD"/><g>
	<polygon style="fill:#009EE8" points="264.442,371.851 290.807,345.486 201.32,255.999 290.807,166.513 264.442,140.148    148.59,255.999  " data-original="#8DBCC9" class="" data-old_color="#009ee8"/>
	<polygon style="fill:#009EE8" points="106.53,255.999 174.443,188.087 126.504,140.148 10.652,255.999 126.504,371.851    174.443,323.912  " data-original="#8DBCC9" class="" data-old_color="#009ee8"/>
</g><polygon style="fill:#0481BB" points="126.504,371.851 150.277,348.08 58.196,255.999 150.277,163.92 126.504,140.148   10.652,255.999 " data-original="#ACD9E5" class="" data-old_color="#0380BA"/><path d="M126.504,382.504L0,255.999l126.504-126.504l58.591,58.591l-67.913,67.913l67.913,67.913L126.504,382.504z M21.306,255.999  l105.198,105.198l37.286-37.285L95.878,256l67.913-67.913l-37.286-37.285L21.306,255.999z" data-original="#000000"/><path d="M264.442,382.504L137.938,255.999l126.504-126.504l58.592,58.591L297.43,213.69h50.732v82.861h-52.49l27.361,27.361  L264.442,382.504z M159.244,255.999l105.198,105.198l37.286-37.285l-42.427-42.427h73.795v-52.73h-72.038l40.669-40.669  l-37.286-37.285L159.244,255.999z" data-original="#000000"/><path d="M481.869,296.551h-39.547V213.69h39.547V296.551z M457.387,281.486h9.416v-52.73h-9.416V281.486z" data-original="#000000"/><path d="M429.139,296.551h-65.912V213.69h65.912V296.551z M378.293,281.486h35.781v-52.73h-35.781V281.486z" data-original="#000000"/><rect x="496.934" y="213.69" width="15.066" height="82.861" data-original="#000000"/><g>
	<rect x="270.95" y="245.7" style="fill:#FFFFFF" width="47.08" height="15.066" data-original="#FFFFFF" class=""/>
	<rect x="233.286" y="245.7" style="fill:#FFFFFF" width="22.598" height="15.066" data-original="#FFFFFF" class=""/>
	<rect x="203.155" y="245.7" style="fill:#FFFFFF" width="15.066" height="15.066" data-original="#FFFFFF" class=""/>
</g></g> </svg>
