<?xml version="1.0" encoding="iso-8859-1"?>
<!-- Generator: Adobe Illustrator 19.0.0, SVG Export Plug-In . SVG Version: 6.00 Build 0)  -->
<svg version="1.1" id="Capa_1" xmlns="http://www.w3.org/2000/svg" xmlns:xlink="http://www.w3.org/1999/xlink" x="0px" y="0px"
	 viewBox="0 0 480 480" style="enable-background:new 0 0 480 480;" xml:space="preserve">
<path style="fill:#FE946F;" d="M208,480H88V248c0-8.837,7.163-16,16-16h88c8.837,0,16,7.163,16,16V480z"/>
<path style="fill:#09557F;" d="M392,408V88H288c-17.673,0-32,14.327-32,32v312v8v0c0-17.673,14.327-32,32-32H392z"/>
<path style="fill:#FFD422;" d="M120,408V88h104c17.673,0,32,14.327,32,32v312v8v0c0-17.673-14.327-32-32-32H120z"/>
<path style="fill:#FFB398;" d="M456,480V368c0-8.837-7.163-16-16-16h-80v-48c0-8.837-7.163-16-16-16h0c-8.837,0-16,7.163-16,16v88
	h-8c-8.837,0-16,7.163-16,16v40l24,24v8H456z"/>
<g>
	<rect x="360" y="352" style="fill:#FE946F;" width="16" height="32"/>
	<rect x="392" y="352" style="fill:#FE946F;" width="16" height="32"/>
	<rect x="424" y="352" style="fill:#FE946F;" width="16" height="32"/>
</g>
<polygon style="fill:#F40E34;" points="24,8 24,56 64,56 88,80 88,56 120,56 120,8 "/>
<g>
	<rect x="48" y="24" style="fill:#FFD422;" width="16" height="16"/>
	<rect x="80" y="24" style="fill:#FFD422;" width="16" height="16"/>
</g>
<rect x="152" y="120" style="fill:#EBE5DD;" width="72" height="72"/>
<g>
	<rect x="144" y="216" style="fill:#4D4D4D;" width="88" height="16"/>
	<rect x="176" y="248" style="fill:#4D4D4D;" width="56" height="16"/>
	<rect x="176" y="304" style="fill:#4D4D4D;" width="56" height="16"/>
</g>
<rect x="152" y="344" style="fill:#82EF2E;" width="40" height="32"/>
<g>
	<rect x="216" y="336" style="fill:#4D4D4D;" width="16" height="16"/>
	<rect x="216" y="368" style="fill:#4D4D4D;" width="16" height="16"/>
</g>
<rect x="288" y="120" style="fill:#F40E34;" width="32" height="64"/>
<g>
	<rect x="344" y="112" style="fill:#4D4D4D;" width="24" height="16"/>
	<rect x="344" y="144" style="fill:#4D4D4D;" width="24" height="16"/>
	<rect x="344" y="176" style="fill:#4D4D4D;" width="24" height="16"/>
</g>
<rect x="288" y="224" style="fill:#5AAAE7;" width="72" height="32"/>
<path style="fill:#FFB398;" d="M136,312c8.836,0,16-7.164,16-16v-16H80c-8.836,0-16,7.163-16,16v40l24,24v120h64v-72h-32v-80H96v-16
	H136z"/>
<path d="M256,416.248C248.702,406.446,237.13,400,224,400h-96v-64h-16v72c0,4.418,3.578,8,8,8h104c13.234,0,24,10.766,24,24h16
	c0-13.234,10.766-24,24-24v-16C274.87,400,263.298,406.446,256,416.248z"/>
<path d="M160,296v-16c0-4.418-3.578-8-8-8H96v-24c0-4.41,3.586-8,8-8h8v16h16V96h96c13.234,0,24,10.766,24,24h16
	c0-13.234,10.766-24,24-24h96v232h16V88c0-4.418-3.578-8-8-8H288c-13.13,0-24.702,6.446-32,16.248C248.702,86.446,237.13,80,224,80
	H120c-4.422,0-8,3.582-8,8v136h-8c-13.234,0-24,10.766-24,24v24c-13.234,0-24,10.766-24,24v40c0,2.121,0.844,4.156,2.344,5.656
	L80,363.313V480h16V360c0-2.121-0.844-4.156-2.344-5.656L72,332.688V296c0-4.41,3.586-8,8-8h64v8c0,4.41-3.586,8-8,8H96
	c-4.422,0-8,3.582-8,8v16h16v-8h32C149.234,320,160,309.234,160,296z"/>
<rect x="200" y="432" width="16" height="48"/>
<path d="M440,344h-72v-40c0-13.234-10.766-24-24-24s-24,10.766-24,24v80c-13.234,0-24,10.766-24,24v40
	c0,2.121,0.844,4.156,2.344,5.656L320,475.313V480h16v-8c0-2.121-0.844-4.156-2.344-5.656L312,444.688V408c0-4.41,3.586-8,8-8h8
	c4.422,0,8-3.582,8-8v-88c0-4.41,3.586-8,8-8s8,3.59,8,8v48v32h16v-24h16v24h16v-24h16v24h16v-24h8c4.414,0,8,3.59,8,8v112h16V368
	C464,354.766,453.234,344,440,344z"/>
<path d="M82.344,85.656C83.875,87.188,85.922,88,88,88c1.031,0,2.07-0.199,3.063-0.609C94.055,86.152,96,83.234,96,80V64h24
	c4.422,0,8-3.582,8-8V8c0-4.418-3.578-8-8-8H24c-4.422,0-8,3.582-8,8v48c0,4.418,3.578,8,8,8h36.688L82.344,85.656z M32,16h80v32H88
	c-4.422,0-8,3.582-8,8v4.688L69.656,50.344C68.156,48.844,66.125,48,64,48H32V16z"/>
<rect x="48" y="24" width="16" height="16"/>
<rect x="80" y="24" width="16" height="16"/>
<rect x="248" y="136" width="16" height="256"/>
<path d="M232,120c0-4.418-3.578-8-8-8h-72c-4.422,0-8,3.582-8,8v72c0,4.418,3.578,8,8,8h72c4.422,0,8-3.582,8-8V120z M216,184h-56
	v-56h56V184z"/>
<rect x="144" y="216" width="88" height="16"/>
<rect x="176" y="248" width="56" height="16"/>
<rect x="176" y="304" width="56" height="16"/>
<path d="M152,336c-4.422,0-8,3.582-8,8v32c0,4.418,3.578,8,8,8h40c4.422,0,8-3.582,8-8v-32c0-4.418-3.578-8-8-8H152z M184,368h-24
	v-16h24V368z"/>
<rect x="216" y="336" width="16" height="16"/>
<rect x="216" y="368" width="16" height="16"/>
<path d="M288,112c-4.422,0-8,3.582-8,8v64c0,4.418,3.578,8,8,8h32c4.422,0,8-3.582,8-8v-64c0-4.418-3.578-8-8-8H288z M312,176h-16
	v-48h16V176z"/>
<rect x="344" y="112" width="24" height="16"/>
<rect x="344" y="144" width="24" height="16"/>
<rect x="344" y="176" width="24" height="16"/>
<path d="M368,256v-32c0-4.418-3.578-8-8-8h-72c-4.422,0-8,3.582-8,8v32c0,4.418,3.578,8,8,8h72C364.422,264,368,260.418,368,256z
	 M352,248h-56v-16h56V248z"/>
<g>
</g>
<g>
</g>
<g>
</g>
<g>
</g>
<g>
</g>
<g>
</g>
<g>
</g>
<g>
</g>
<g>
</g>
<g>
</g>
<g>
</g>
<g>
</g>
<g>
</g>
<g>
</g>
<g>
</g>
</svg>
