<?xml version="1.0" encoding="iso-8859-1"?>
<!-- Generator: Adobe Illustrator 19.0.0, SVG Export Plug-In . SVG Version: 6.00 Build 0)  -->
<svg version="1.1" id="Layer_1" xmlns="http://www.w3.org/2000/svg" xmlns:xlink="http://www.w3.org/1999/xlink" x="0px" y="0px"
	 viewBox="0 0 56 56" style="enable-background:new 0 0 56 56;" xml:space="preserve">
<g>
	<circle style="fill:#EE8B26;" cx="13" cy="25.708" r="1"/>
	<path style="fill:#66CEDB;" d="M16,40.849C14.601,41.213,13.506,42,13.142,44H16V40.849z"/>
	<path style="fill:#EE8B26;" d="M18,40.849v3.358l2.696,2.022C20.89,45.76,21,45.247,21,44.708C21,42.849,19.72,41.297,18,40.849z"
		/>
	<path style="fill:#FFFFFF;" d="M46,8.708v36.816c1.161-0.414,2-1.514,2-2.816v-38C48,3.053,46.654,2,45,2H19
		c-1.302,0-2.402,0-2.816,2H41C43.757,4,46,5.951,46,8.708z"/>
	<circle style="fill:#EE8B26;" cx="19" cy="17.708" r="1"/>
	<path style="fill:#FFFFFF;" d="M42,12.708v36.816c1.161-0.414,2-1.514,2-2.816v-38C44,7.053,42.654,6,41,6H15
		c-1.302,0-2.402,0-2.816,2H37C39.757,8,42,9.951,42,12.708z"/>
	<circle style="fill:#EE8B26;" cx="27" cy="22.708" r="1"/>
	<circle style="fill:#EE8B26;" cx="35" cy="15.708" r="1"/>
	<path style="fill:#F8CF26;" d="M13.142,46c0.447,1,2,2.854,3.858,2.854c0.942,0,1.798-0.268,2.482-0.815L16.667,46H13.142z"/>
	<path style="fill:#66CEDB;" d="M40,13c0-1.657-1.343-3-3-3H11c-1.657,0-3,1.343-3,3v38c0,1.657,1.343,3,3,3h26c1.657,0,3-1.343,3-3
		V13z M10,25.708c0-1.654,1.346-3,3-3c0.164,0,0.323,0.023,0.48,0.049l2.897-3.622C16.145,18.708,16,18.227,16,17.708
		c0-1.654,1.346-3,3-3s3,1.346,3,3c0,0.329-0.066,0.639-0.164,0.935l3.127,1.876c0.536-0.499,1.249-0.811,2.038-0.811
		c0.722,0,1.375,0.266,1.894,0.692l3.407-3.407C32.113,16.602,32,16.169,32,15.708c0-1.654,1.346-3,3-3s3,1.346,3,3s-1.346,3-3,3
		c-0.462,0-0.894-0.114-1.285-0.301l-3.768,3.768C29.978,22.349,30,22.525,30,22.708c0,1.654-1.346,3-3,3s-3-1.346-3-3
		c0-0.14,0.023-0.274,0.041-0.409l-3.439-2.064C20.137,20.53,19.59,20.708,19,20.708c-0.403,0-0.786-0.083-1.138-0.227l-2.612,3.265
		c0.461,0.527,0.75,1.208,0.75,1.962c0,1.654-1.346,3-3,3S10,27.362,10,25.708z M17,50.708c-3.309,0-6-2.691-6-6s2.691-6,6-6
		s6,2.691,6,6S20.309,50.708,17,50.708z M36,50H25v-2h11V50z M36,46H25v-2h11V46z M36,42H25v-2h11V42z M36,37H12v-2h24V37z M36,33
		H12v-2h24V33z"/>
	<g>
		<path d="M45,0H19c-2.446,0-4.479,1.622-4.908,3.946c-2.028,0.375-3.625,1.899-4,3.927C7.768,8.302,6,10.262,6,12.708v38
			C6,53.464,8.243,56,11,56h26c2.446,0,4.479-1.914,4.908-4.238c2.028-0.375,3.625-2.045,4-4.073C48.232,47.259,50,45.153,50,42.708
			v-38C50,1.951,47.757,0,45,0z M40,51c0,1.657-1.343,3-3,3H11c-1.657,0-3-1.343-3-3V13c0-1.657,1.343-3,3-3h26c1.657,0,3,1.343,3,3
			V51z M44,46.708c0,1.302-0.839,2.402-2,2.816V12.708C42,9.951,39.757,8,37,8H12.184C12.598,6,13.698,6,15,6h26
			c1.654,0,3,1.053,3,2.708V46.708L44,46.708z M48,42.708c0,1.302-0.839,2.402-2,2.816V8.708C46,5.951,43.757,4,41,4H16.184
			C16.598,2,17.698,2,19,2h26c1.654,0,3,1.053,3,2.708V42.708z"/>
		<path d="M35,12.708c-1.654,0-3,1.346-3,3c0,0.462,0.113,0.894,0.301,1.285L28.894,20.4c-0.518-0.426-1.172-0.692-1.894-0.692
			c-0.789,0-1.501,0.312-2.038,0.811l-3.127-1.876C21.934,18.347,22,18.036,22,17.708c0-1.654-1.346-3-3-3s-3,1.346-3,3
			c0,0.519,0.145,1.001,0.378,1.427l-2.897,3.622c-0.157-0.026-0.316-0.049-0.48-0.049c-1.654,0-3,1.346-3,3s1.346,3,3,3
			s3-1.346,3-3c0-0.754-0.289-1.435-0.749-1.962l2.612-3.265c0.351,0.145,0.735,0.227,1.138,0.227c0.59,0,1.137-0.177,1.602-0.473
			l3.439,2.064C24.023,22.434,24,22.567,24,22.708c0,1.654,1.346,3,3,3s3-1.346,3-3c0-0.182-0.022-0.359-0.054-0.532l3.768-3.768
			c0.391,0.187,0.824,0.301,1.285,0.301c1.654,0,3-1.346,3-3C38,14.053,36.654,12.708,35,12.708z M13,26.708c-0.551,0-1-0.448-1-1
			s0.449-1,1-1s1,0.448,1,1S13.551,26.708,13,26.708z M18,17.708c0-0.552,0.449-1,1-1s1,0.448,1,1s-0.449,1-1,1S18,18.259,18,17.708
			z M27,23.708c-0.551,0-1-0.448-1-1s0.449-1,1-1s1,0.448,1,1S27.551,23.708,27,23.708z M35,16.708c-0.551,0-1-0.448-1-1
			s0.449-1,1-1s1,0.448,1,1S35.551,16.708,35,16.708z"/>
		<rect x="12" y="31" width="24" height="2"/>
		<rect x="12" y="35" width="24" height="2"/>
		<path d="M17,38.708c-3.309,0-6,2.691-6,6s2.691,6,6,6s6-2.691,6-6C23,41.399,20.309,38.708,17,38.708z M21,44.708
			c0,0.539-0.11,1.052-0.304,1.522L18,44.208V40.85C19.72,41.297,21,42.849,21,44.708z M16,40.849V44h-2.858
			C13.506,42,14.601,41.213,16,40.849z M13.142,46h3.525l2.816,1.965c-0.684,0.547-1.54,0.961-2.482,0.961
			C15.142,48.927,13.589,47,13.142,46z"/>
		<rect x="25" y="40" width="11" height="2"/>
		<rect x="25" y="44" width="11" height="2"/>
		<rect x="25" y="48" width="11" height="2"/>
	</g>
</g>
<g>
</g>
<g>
</g>
<g>
</g>
<g>
</g>
<g>
</g>
<g>
</g>
<g>
</g>
<g>
</g>
<g>
</g>
<g>
</g>
<g>
</g>
<g>
</g>
<g>
</g>
<g>
</g>
<g>
</g>
</svg>
