<?xml version="1.0" encoding="iso-8859-1"?>
<!-- Generator: Adobe Illustrator 19.0.0, SVG Export Plug-In . SVG Version: 6.00 Build 0)  -->
<svg version="1.1" id="Layer_1" xmlns="http://www.w3.org/2000/svg" xmlns:xlink="http://www.w3.org/1999/xlink" x="0px" y="0px"
	 viewBox="0 0 55.473 55.473" style="enable-background:new 0 0 55.473 55.473;" xml:space="preserve">
<g>
	<path style="fill:#FFFFFF;" d="M12.473,14.091v3.5c0,0.827,0.673,1.5,1.5,1.5s1.5-0.673,1.5-1.5v-3.5c0-0.553,0.447-0.708,1-0.708
		h4c0.553,0,1,0.155,1,0.708v13c0,0.827,0.673,1.5,1.5,1.5s1.5-0.673,1.5-1.5v-13c0-0.553,0.447-0.708,1-0.708h5v-3.292V7.254
		c0-1.568-1.092-2.914-2.539-3.129c-1.257-0.185-2.471,0.419-3.082,1.544C24.5,6.314,23.445,6.313,23.095,5.67
		c-0.53-0.975-1.535-1.579-2.622-1.579s-2.092,0.604-2.622,1.579c-0.35,0.643-1.406,0.643-1.756,0
		c-0.53-0.975-1.535-1.579-2.622-1.579s-2.092,0.604-2.622,1.579c-0.35,0.643-1.406,0.643-1.756,0
		C8.597,4.755,7.389,4.091,6.223,4.091c-0.982,0-1.884,0.479-2.75,1.465v7.827h8C12.026,13.383,12.473,13.538,12.473,14.091z"/>
	<circle style="fill:#EE8B26;" cx="10.473" cy="41.591" r="1"/>
	<circle style="fill:#EE8B26;" cx="7.473" cy="23.091" r="1"/>
	<path style="fill:#FFFFFF;" d="M39.473,16.383h2c0-3-2.243-5-5-5h-4v2h4C38.127,13.383,39.473,14.383,39.473,16.383z"/>
	<path style="fill:#FFFFFF;" d="M41.473,34.383h-2v1.708c0,1.654-1.346,3.292-3,3.292h-4v2h4c2.757,0,5-2.536,5-5.292V34.383z"/>
	<rect x="40.473" y="45.383" style="fill:#66CEDB;" width="13" height="2"/>
	<path style="fill:#EE8B26;" d="M30.616,44.605c-0.094-0.155-0.143-0.333-0.143-0.514v-2v-4V15.383h-4v11.708
		c0,1.93-1.57,3.5-3.5,3.5s-3.5-1.57-3.5-3.5V15.383h-2v2.208c0,1.93-1.57,3.5-3.5,3.5s-3.5-1.57-3.5-3.5v-2.208h-7v28.708
		c0,0.182-0.049,0.359-0.143,0.515l-1.183,1.971c-0.271,0.451-0.099,1.001-0.013,1.154c0.088,0.151,0.345,0.652,0.871,0.652h27.936
		c0.526,0,0.783-0.501,0.87-0.653c0.086-0.153,0.258-0.63-0.013-1.081L30.616,44.605z M4.473,23.091c0-1.654,1.346-3,3-3
		s3,1.346,3,3s-1.346,3-3,3S4.473,24.745,4.473,23.091z M10.473,44.591c-1.654,0-3-1.346-3-3s1.346-3,3-3s3,1.346,3,3
		S12.127,44.591,10.473,44.591z M14.473,35.091c-2.206,0-4-1.794-4-4s1.794-4,4-4s4,1.794,4,4S16.679,35.091,14.473,35.091z
		 M20.473,46.091h-2v-2h2V46.091z M24.473,46.091h-2v-2h2V46.091z M22.473,41.591c-1.654,0-3-1.346-3-3s1.346-3,3-3s3,1.346,3,3
		S24.127,41.591,22.473,41.591z M28.473,46.091h-2v-2h2V46.091z"/>
	<path style="fill:#F8CF26;" d="M43.473,34.383v1.708c0,1.902-0.765,3.626-2,4.889v2.403h11V9.218c-1.724,0.444-3,2.013-3,3.873v4
		c0,0.28-0.116,0.532-0.301,0.713c0.187,0.391,0.301,0.824,0.301,1.287c0,0.771-0.301,1.468-0.78,2c0.48,0.532,0.78,1.229,0.78,2
		s-0.301,1.468-0.78,2c0.48,0.532,0.78,1.229,0.78,2s-0.301,1.468-0.78,2c0.48,0.532,0.78,1.375,0.78,2.146
		c0,1.654-1.346,3.146-3,3.146H43.473L43.473,34.383z"/>
	<path style="fill:#F8CF26;" d="M37.473,19.383c0,0.552,0.448,1,1,1h8c0.552,0,1-0.448,1-1s-0.448-1-1-1h-1h-7
		C37.921,18.383,37.473,18.831,37.473,19.383z"/>
	<circle style="fill:#EE8B26;" cx="22.473" cy="38.591" r="1"/>
	<path style="fill:#F8CF26;" d="M38.473,24.383h8c0.552,0,1-0.448,1-1s-0.448-1-1-1h-8c-0.552,0-1,0.448-1,1
		S37.921,24.383,38.473,24.383z"/>
	<path style="fill:#F8CF26;" d="M38.473,28.383h8c0.552,0,1-0.448,1-1s-0.448-1-1-1h-8c-0.552,0-1,0.448-1,1
		S37.921,28.383,38.473,28.383z"/>
	<circle style="fill:#EE8B26;" cx="14.473" cy="31.091" r="2"/>
	<path style="fill:#F8CF26;" d="M38.473,32.383h8c0.552,0,1-0.448,1-1s-0.448-1-1-1h-8c-0.552,0-1,0.448-1,1
		S37.921,32.383,38.473,32.383z"/>
	<g>
		<path d="M10.473,38.591c-1.654,0-3,1.346-3,3s1.346,3,3,3s3-1.346,3-3S12.127,38.591,10.473,38.591z M10.473,42.591
			c-0.552,0-1-0.448-1-1s0.448-1,1-1s1,0.448,1,1S11.025,42.591,10.473,42.591z"/>
		<path d="M14.473,27.091c-2.206,0-4,1.794-4,4s1.794,4,4,4s4-1.794,4-4S16.679,27.091,14.473,27.091z M14.473,33.091
			c-1.103,0-2-0.897-2-2s0.897-2,2-2c1.102,0,2,0.897,2,2S15.575,33.091,14.473,33.091z"/>
		<path d="M22.473,35.591c-1.654,0-3,1.346-3,3s1.346,3,3,3s3-1.346,3-3S24.127,35.591,22.473,35.591z M22.473,39.591
			c-0.552,0-1-0.448-1-1s0.448-1,1-1s1,0.448,1,1S23.025,39.591,22.473,39.591z"/>
		<path d="M10.473,23.091c0-1.654-1.346-3-3-3s-3,1.346-3,3s1.346,3,3,3S10.473,24.745,10.473,23.091z M6.473,23.091
			c0-0.552,0.448-1,1-1s1,0.448,1,1s-0.448,1-1,1S6.473,23.642,6.473,23.091z"/>
		<path d="M54.473,43.091v-35c0-0.553-0.447-1-1-1c-3.309,0-6,2.691-6,6v3.292h-1h-1h-2c0-4-3.141-7-7-7h-4V7.254
			c0-2.552-1.825-4.748-4.245-5.107C26.623,1.912,25.07,2.44,23.97,3.539c-0.921-0.915-2.172-1.448-3.497-1.448
			c-1.327,0-2.578,0.534-3.5,1.45c-0.922-0.916-2.173-1.45-3.5-1.45c-1.339,0-2.601,0.544-3.524,1.476
			C8.974,2.662,7.594,2.091,6.223,2.091c-1.687,0-3.211,0.832-4.529,2.475C1.551,4.743,1.473,4.963,1.473,5.191v38.622l-1.04,1.733
			c-0.564,0.939-0.578,2.216-0.038,3.169c0.539,0.952,1.515,1.668,2.61,1.668h27.936c1.095,0,2.071-0.716,2.61-1.668
			c0.54-0.953,0.525-2.156-0.038-3.096l-1.04-1.806v-0.43h4c1.074,0,2.089-0.543,3-0.978v0.685c-0.553,0-1,0.447-1,1v4v5.293h2v-4
			h13v4h2v-5.292v-4C55.473,43.538,55.026,43.091,54.473,43.091z M47.473,31.383c0,0.552-0.448,1-1,1h-8c-0.552,0-1-0.448-1-1
			s0.448-1,1-1h8C47.025,30.383,47.473,30.831,47.473,31.383z M32.473,15.383h4c0.552,0,1,0.156,1,0.708v0.184
			c-1.162,0.414-2,1.514-2,2.816c0,0.771,0.3,1.468,0.78,2c-0.48,0.532-0.78,1.229-0.78,2s0.3,1.468,0.78,2
			c-0.48,0.532-0.78,1.229-0.78,2s0.3,1.468,0.78,2c-0.48,0.532-0.78,1.229-0.78,2c0,1.302,0.838,2.402,2,2.816v2.184
			c0,0.551-0.448,1.292-1,1.292h-4V15.383z M47.473,23.383c0,0.552-0.448,1-1,1h-8c-0.552,0-1-0.448-1-1s0.448-1,1-1h8
			C47.025,22.383,47.473,22.831,47.473,23.383z M47.473,27.383c0,0.552-0.448,1-1,1h-8c-0.552,0-1-0.448-1-1s0.448-1,1-1h8
			C47.025,26.383,47.473,26.831,47.473,27.383z M45.473,18.383h1c0.552,0,1,0.448,1,1s-0.448,1-1,1h-8c-0.552,0-1-0.448-1-1
			s0.448-1,1-1H45.473z M36.473,11.383c2.757,0,5,2,5,5h-2c0-2-1.346-3-3-3h-4v-2C32.473,11.383,36.473,11.383,36.473,11.383z
			 M3.473,5.555C4.339,4.57,5.241,4.09,6.223,4.09c1.166,0,2.374,0.664,2.872,1.579c0.35,0.643,1.406,0.643,1.756,0
			c0.53-0.975,1.535-1.579,2.622-1.579s2.092,0.604,2.622,1.579c0.35,0.643,1.406,0.643,1.756,0c0.53-0.975,1.535-1.579,2.622-1.579
			s2.092,0.604,2.622,1.579c0.35,0.643,1.405,0.644,1.757-0.001c0.611-1.125,1.825-1.728,3.082-1.544
			c1.447,0.216,2.539,1.561,2.539,3.13v2.837v3.292h-5c-0.553,0-1,0.155-1,0.708v13c0,0.827-0.673,1.5-1.5,1.5s-1.5-0.673-1.5-1.5
			v-13c0-0.553-0.447-0.708-1-0.708h-4c-0.553,0-1,0.155-1,0.708v3.5c0,0.827-0.673,1.5-1.5,1.5s-1.5-0.673-1.5-1.5v-3.5
			c0-0.553-0.447-0.708-1-0.708h-8C3.473,13.383,3.473,5.555,3.473,5.555z M31.811,47.73c-0.087,0.152-0.344,0.653-0.87,0.653H3.005
			c-0.526,0-0.783-0.501-0.87-0.653c-0.086-0.153-0.258-0.63,0.013-1.081l1.183-2.007c0.093-0.156,0.142-0.37,0.142-0.551V15.383h7
			v2.208c0,1.93,1.57,3.5,3.5,3.5s3.5-1.57,3.5-3.5v-2.208h2v11.708c0,1.93,1.57,3.5,3.5,3.5s3.5-1.57,3.5-3.5V15.383h4v22.708v4v2
			c0,0.182,0.049,0.359,0.143,0.515l1.183,2.044C32.069,47.1,31.897,47.577,31.811,47.73z M32.473,41.383v-2h4
			c1.654,0,3-1.638,3-3.292v-1.708h2v1.708c0,2.756-2.243,5.292-5,5.292H32.473z M41.473,40.98c1.235-1.263,2-2.988,2-4.889v-1.708
			h3c1.654,0,3-1.492,3-3.146c0-0.771-0.301-1.541-0.78-2.073c0.48-0.532,0.78-1.265,0.78-2.037c0-0.771-0.301-1.486-0.78-2.018
			c0.48-0.532,0.78-1.238,0.78-2.009s-0.301-1.473-0.78-2.005c0.479-0.532,0.78-1.231,0.78-2.002c0-0.462-0.114-0.897-0.301-1.288
			c0.185-0.182,0.301-0.434,0.301-0.714v-4c0-1.86,1.276-3.429,3-3.873v34.165h-11V40.98z M40.473,47.383v-2h13v2H40.473z"/>
		<rect x="26.473" y="44.091" width="2" height="2"/>
		<rect x="22.473" y="44.091" width="2" height="2"/>
		<rect x="18.473" y="44.091" width="2" height="2"/>
	</g>
</g>
<g>
</g>
<g>
</g>
<g>
</g>
<g>
</g>
<g>
</g>
<g>
</g>
<g>
</g>
<g>
</g>
<g>
</g>
<g>
</g>
<g>
</g>
<g>
</g>
<g>
</g>
<g>
</g>
<g>
</g>
</svg>
