<?xml version="1.0" encoding="iso-8859-1"?>
<!-- Generator: Adobe Illustrator 19.0.0, SVG Export Plug-In . SVG Version: 6.00 Build 0)  -->
<svg version="1.1" id="Layer_1" xmlns="http://www.w3.org/2000/svg" xmlns:xlink="http://www.w3.org/1999/xlink" x="0px" y="0px"
	 viewBox="0 0 56.717 56.717" style="enable-background:new 0 0 56.717 56.717;" xml:space="preserve">
<g>
	<circle style="fill:#66CEDB;" cx="48.358" cy="29.001" r="1"/>
	<path style="fill:#F8CF26;" d="M48.358,23.001c-2.489,0-4.627,1.523-5.535,3.686c1.39-0.835,3.34-1.686,5.535-1.686
		s4.144,0.851,5.535,1.686C52.985,24.523,50.847,23.001,48.358,23.001z"/>
	<path style="fill:#FFFFFF;" d="M53.77,29.002c-0.666-0.482-1.665-1.099-2.84-1.521c0.265,0.448,0.427,0.963,0.427,1.52
		c0,0.558-0.163,1.075-0.43,1.523C52.108,30.103,53.106,29.486,53.77,29.002z"/>
	<path style="fill:#EE8B26;" d="M15.358,26.82v4.361l12.53,2.506c-0.958-1.319-1.53-2.935-1.53-4.686s0.572-3.368,1.53-4.687
		L15.358,26.82z"/>
	<path style="fill:#F8CF26;" d="M27.358,17.293c1.102,0,2-1.044,2-2.146c0-1.094-0.883-2.059-1.973-2.073
		c-0.041,0.005-0.13-0.021-0.14-0.02c-0.351,0.026-0.668-0.14-0.873-0.41c-0.206-0.271-0.26-0.636-0.145-0.955
		c0.088-0.24,0.13-0.466,0.13-0.683c0-1.102-0.898-2.002-2-2.002c-0.492,0-0.97,0.188-1.345,0.531
		c-0.283,0.261-0.69,0.334-1.047,0.192c-0.356-0.143-0.601-0.477-0.627-0.861c-0.071-1.045-0.942-1.864-1.981-1.864
		s-1.91,0.819-1.981,1.864c-0.026,0.384-0.271,0.718-0.627,0.86c-0.356,0.143-0.765,0.068-1.047-0.192
		c-0.375-0.343-0.852-0.532-1.345-0.532c-1.103,0-2,0.897-2,2c0,0.217,0.042,0.438,0.13,0.679c0.115,0.319,0.062,0.676-0.144,0.946
		c-0.205,0.27-0.525,0.417-0.873,0.391c-0.021-0.002-0.116-0.016-0.138-0.016h-0.001c-1.077,0-1.974,1.043-1.974,2.146
		c0.001,1.101,0.898,2.145,2.001,2.145H27.358z M22.358,13.001h2v2h-2V13.001z M18.358,13.001h2v2h-2V13.001z M14.358,13.001h2v2h-2
		C14.358,15.001,14.358,13.001,14.358,13.001z"/>
	<path style="fill:#F8CF26;" d="M28.823,31.315c0.599,1.427,1.734,2.573,3.151,3.189l2.462,0.492
		c2.454-0.032,4.558-1.542,5.456-3.682C38.502,32.149,36.552,33,34.356,33C32.162,33.001,30.214,32.15,28.823,31.315z"/>
	<circle style="fill:#66CEDB;" cx="34.358" cy="29.001" r="1"/>
	<path style="fill:#F8CF26;" d="M34.437,23.005l-2.462,0.492c-1.418,0.616-2.553,1.763-3.151,3.189
		c1.39-0.835,3.34-1.686,5.535-1.686s4.144,0.851,5.535,1.686C38.994,24.547,36.891,23.036,34.437,23.005z"/>
	<path style="fill:#F8CF26;" d="M42.823,31.315c0.908,2.163,3.046,3.686,5.535,3.686s4.627-1.523,5.535-3.686
		c-1.39,0.835-3.34,1.686-5.535,1.686S44.214,32.15,42.823,31.315z"/>
	<path style="fill:#FFFFFF;" d="M39.77,29.002c-0.666-0.482-1.665-1.099-2.84-1.521c0.265,0.448,0.427,0.963,0.427,1.52
		c0,0.558-0.163,1.075-0.43,1.523C38.108,30.103,39.106,29.486,39.77,29.002z"/>
	<path style="fill:#FFFFFF;" d="M42.945,28.999c0.666,0.482,1.665,1.099,2.84,1.521c-0.265-0.448-0.427-0.963-0.427-1.519
		c0-0.558,0.163-1.075,0.43-1.523C44.608,27.898,43.61,28.515,42.945,28.999z"/>
	<path style="fill:#FFFFFF;" d="M28.945,28.999c0.666,0.482,1.665,1.099,2.84,1.521c-0.265-0.448-0.427-0.963-0.427-1.519
		c0-0.558,0.163-1.075,0.43-1.523C30.608,27.898,29.61,28.515,28.945,28.999z"/>
	<g>
		<path d="M37.358,50.293c0.553,0,1-0.74,1-1.292v-5.708h3c0.553,0,1-0.74,1-1.292v-7.726c1.467,1.667,3.61,2.726,6,2.726
			c4.411,0,8-3.589,8-8s-3.589-8-8-8c-1.07,0-2.089,0.215-3.023,0.597C44.859,9.609,34.962,0,22.858,0
			c-12.406,0-22.5,10.094-22.5,22.501v33.792h2V22.501c0-11.304,9.196-20.5,20.5-20.5s20.5,9.196,20.5,20.5v0.265
			c-0.811,0.651-1.493,1.455-2,2.371c-1.365-2.463-3.99-4.136-7-4.136c-1.042,0-2.034,0.206-2.948,0.57l-17.249,3.45
			c-0.466,0.093-0.803,0.503-0.803,0.98v2.292h-5v-3.878l5.414-5.122h13.586c2.206,0,4-1.94,4-4.146
			c0-1.861-1.277-3.503-3.002-3.947c0.001-0.042,0.002-0.121,0.002-0.163c0-2.206-1.794-4.018-4-4.018
			c-0.486,0-0.964,0.081-1.412,0.253c-0.651-1.342-2.024-2.267-3.588-2.267c-1.565,0-2.938,0.918-3.588,2.259
			c-0.448-0.171-0.926-0.262-1.412-0.262c-2.206,0-4,1.793-4,3.999c0,0.042,0.001,0.084,0.002,0.126
			c-1.725,0.444-3.002,2.012-3.002,3.874c0,2.077,1.596,3.769,3.624,3.962l-4.331,4.331c-0.188,0.187-0.293,0.441-0.293,0.707v5
			c0,0.552,0.447,1.292,1,1.292h6v1.708c0,0.477,0.337,0.887,0.804,0.98l17.249,3.45c0.913,0.364,1.906,0.57,2.948,0.57
			c2.39,0,4.533-1.059,6-2.726v7.018h-3c-0.553,0-1,0.155-1,0.708v6.292H21.358v2h3v6h2v-6
			C26.358,50.293,37.358,50.293,37.358,50.293z M9.371,15.147c0-1.103,0.987-2.02,1.987-2.02v-0.062
			c0,0.003,0.104-0.018,0.125-0.016c0.348,0.026,0.662-0.138,0.867-0.407c0.206-0.271,0.257-0.635,0.141-0.954
			c-0.088-0.24-0.131-0.466-0.131-0.683c0-1.102,0.897-2.002,1.999-2.002c0.492,0,0.969,0.189,1.344,0.531
			c0.282,0.261,0.69,0.335,1.047,0.192c0.356-0.143,0.601-0.477,0.627-0.861c0.071-1.045,0.942-1.864,1.981-1.864
			s1.91,0.819,1.981,1.864c0.026,0.384,0.271,0.718,0.627,0.86c0.357,0.143,0.764,0.068,1.047-0.192
			c0.375-0.343,0.852-0.532,1.345-0.532c1.102,0,2,0.897,2,2c0,0.217-0.042,0.438-0.13,0.679c-0.115,0.319-0.061,0.676,0.145,0.946
			c0.205,0.27,0.522,0.418,0.873,0.392c0.01-0.001,0.099-0.012,0.14-0.017c1.089,0.014,1.972,1.052,1.972,2.146
			c0,1.102-0.898,2.146-2,2.146h-16C10.255,17.293,9.371,16.249,9.371,15.147z M48.358,35.001c-2.489,0-4.627-1.523-5.535-3.686
			c1.39,0.835,3.34,1.686,5.535,1.686s4.144-0.851,5.535-1.686C52.985,33.478,50.847,35.001,48.358,35.001z M48.358,28.001
			c0.552,0,1,0.448,1,1s-0.448,1-1,1s-1-0.448-1-1S47.806,28.001,48.358,28.001z M50.931,27.482c1.176,0.422,2.174,1.038,2.84,1.521
			c-0.665,0.483-1.663,1.101-2.843,1.521c0.267-0.448,0.43-0.965,0.43-1.523C51.358,28.444,51.196,27.929,50.931,27.482z
			 M45.785,30.519c-1.176-0.422-2.174-1.038-2.84-1.521c0.665-0.483,1.663-1.101,2.843-1.521c-0.267,0.448-0.43,0.965-0.43,1.524
			C45.358,29.557,45.52,30.072,45.785,30.519z M53.893,26.686C52.503,25.851,50.553,25,48.358,25s-4.144,0.851-5.535,1.686
			C43.731,24.523,45.869,23,48.358,23C50.847,23.001,52.985,24.523,53.893,26.686z M39.893,26.686
			C38.503,25.851,36.553,25,34.358,25s-4.144,0.851-5.535,1.686c0.599-1.427,1.734-2.573,3.151-3.189l2.462-0.492
			C36.891,23.036,38.994,24.547,39.893,26.686z M34.358,30.001c-0.552,0-1-0.448-1-1s0.448-1,1-1s1,0.448,1,1
			S34.91,30.001,34.358,30.001z M31.785,30.519c-1.176-0.422-2.174-1.038-2.84-1.521c0.665-0.483,1.663-1.101,2.843-1.521
			c-0.267,0.448-0.43,0.965-0.43,1.524C31.358,29.557,31.52,30.072,31.785,30.519z M36.931,27.482
			c1.176,0.422,2.174,1.038,2.84,1.521c-0.665,0.483-1.663,1.101-2.843,1.521c0.267-0.448,0.43-0.965,0.43-1.523
			C37.358,28.444,37.196,27.929,36.931,27.482z M15.358,26.82l12.53-2.506c-0.958,1.319-1.53,2.935-1.53,4.687
			c0,1.751,0.572,3.368,1.53,4.687l-12.53-2.507V26.82z M34.437,34.996l-2.462-0.492c-1.418-0.616-2.553-1.763-3.151-3.189
			c1.39,0.835,3.34,1.686,5.535,1.686s4.144-0.851,5.535-1.686C38.994,33.454,36.891,34.965,34.437,34.996z"/>
		<path d="M22.358,42.293v0.708c0,1.654,1.346,3.292,3,3.292h9v-2h-9c-0.552,0-1-0.741-1-1.292v-0.708H22.358z"/>
		<rect x="14.358" y="13.001" width="2" height="2"/>
		<rect x="18.358" y="13.001" width="2" height="2"/>
		<rect x="22.358" y="13.001" width="2" height="2"/>
		<path d="M55.358,42.293h-5v2h2.586l-6.586,6.44l-2.293-2.366c-0.391-0.391-1.023-0.427-1.414-0.037l-7,6.982l1.414,1.405
			l6.293-6.298l2.293,2.291c0.391,0.391,1.023,0.39,1.414-0.001l7.293-7.294v2.878h2v-5.292
			C56.358,42.448,55.91,42.293,55.358,42.293z"/>
	</g>
</g>
<g>
</g>
<g>
</g>
<g>
</g>
<g>
</g>
<g>
</g>
<g>
</g>
<g>
</g>
<g>
</g>
<g>
</g>
<g>
</g>
<g>
</g>
<g>
</g>
<g>
</g>
<g>
</g>
<g>
</g>
</svg>
