<?xml version="1.0" encoding="iso-8859-1"?>
<!-- Generator: Adobe Illustrator 19.0.0, SVG Export Plug-In . SVG Version: 6.00 Build 0)  -->
<svg version="1.1" id="Layer_1" xmlns="http://www.w3.org/2000/svg" xmlns:xlink="http://www.w3.org/1999/xlink" x="0px" y="0px"
	 viewBox="0 0 56 56" style="enable-background:new 0 0 56 56;" xml:space="preserve">
<g>
	<path style="fill:#EE8B26;" d="M2,8h52V2H2V8z M13,3.707c0.552,0,1,0.448,1,1s-0.448,1-1,1s-1-0.448-1-1S12.448,3.707,13,3.707z
		 M9,3.707c0.552,0,1,0.448,1,1s-0.448,1-1,1s-1-0.448-1-1S8.448,3.707,9,3.707z M5,3.707c0.552,0,1,0.448,1,1s-0.448,1-1,1
		s-1-0.448-1-1S4.448,3.707,5,3.707z"/>
	<path style="fill:#66CEDB;" d="M9,54h12v-6H9V54z M14,49.708h2v2h-2V49.708z"/>
	<path style="fill:#66CEDB;" d="M20,28v1h-2v-1h-5c-0.352,0-0.686-0.365-1-0.477V32h14v-4.477C25.686,27.635,25.352,28,25,28H20z"/>
	<path style="fill:#66CEDB;" d="M12,24.708C12,25.259,12.449,26,13,26h12c0.551,0,1-0.741,1-1.292V22H12V24.708z"/>
	<path style="fill:#FFFFFF;" d="M19,13.708c-7.169,0-13,5.831-13,13s5.831,13,13,13c7.168,0,13-5.832,13-13S26.168,13.708,19,13.708
		z M28,24.708v8C28,33.26,27.552,34,27,34H11c-0.552,0-1-0.74-1-1.292v-8v-4C10,20.155,10.448,20,11,20h4v-1.292
		C15,17.053,16.346,16,18,16h2c1.654,0,3,1.053,3,2.708V20h4c0.552,0,1,0.155,1,0.708V24.708z"/>
	<path style="fill:#FFFFFF;" d="M21,18.708C21,18.156,20.551,18,20,18h-2c-0.551,0-1,0.156-1,0.708V20h4V18.708z"/>
	<path style="fill:#FFFFFF;" d="M28.22,38.514l12.865,12.865c0.212,0.211,0.493,0.328,0.793,0.328c0.618,0,1.121-0.503,1.121-1.121
		c0-0.3-0.117-0.581-0.328-0.793l-12.79-12.791C29.365,37.547,28.811,38.051,28.22,38.514z"/>
	<g>
		<path d="M55,0H1C0.448,0,0,0.155,0,0.707V56h2V10h52v46h2V0.707C56,0.155,55.552,0,55,0z M2,8V2h52v6H2z"/>
		<path d="M31.161,35.454C32.939,32.989,34,29.973,34,26.708c0-8.271-6.729-15-15-15s-15,6.729-15,15s6.729,15,15,15
			c2.748,0,5.318-0.755,7.535-2.051l13.137,13.137c0.589,0.589,1.373,0.914,2.207,0.914c1.721,0,3.121-1.4,3.121-3.121
			c0-0.834-0.325-1.618-0.914-2.207L31.161,35.454z M6,26.708c0-7.169,5.831-13,13-13c7.168,0,13,5.831,13,13s-5.832,13-13,13
			C11.831,39.708,6,33.876,6,26.708z M41.879,51.708c-0.3,0-0.581-0.117-0.793-0.328L28.22,38.514
			c0.591-0.463,1.145-0.967,1.66-1.512l12.791,12.791C42.883,50.005,43,50.287,43,50.586C43,51.205,42.497,51.708,41.879,51.708z"/>
		<path d="M27,20h-4v-1.292C23,17.053,21.654,16,20,16h-2c-1.654,0-3,1.053-3,2.708V20h-4c-0.552,0-1,0.155-1,0.708v4v8
			C10,33.26,10.448,34,11,34h16c0.552,0,1-0.74,1-1.292v-8v-4C28,20.155,27.552,20,27,20z M26,24.708C26,25.259,25.551,26,25,26H13
			c-0.551,0-1-0.741-1-1.292V22h14V24.708z M17,18.708C17,18.156,17.449,18,18,18h2c0.551,0,1,0.156,1,0.708V20h-4V18.708z M12,32
			v-4.477C12.314,27.635,12.648,28,13,28h5v1h2v-1h5c0.352,0,0.686-0.365,1-0.477V32H12z"/>
		<path d="M22,46h-3v-1.292C19,43.604,18.103,43,17,43h-4c-1.103,0-2,0.604-2,1.708V46H8c-0.552,0-1,0.155-1,0.708v8
			C7,55.26,7.448,56,8,56h14c0.552,0,1-0.74,1-1.292v-8C23,46.155,22.552,46,22,46z M13,45h4v1h-4V45z M21,54H9v-6h12V54z"/>
		<rect x="36" y="14" width="14" height="2"/>
		<rect x="36" y="18" width="14" height="2"/>
		<rect x="36" y="22" width="14" height="2"/>
		<rect x="36" y="30" width="14" height="2"/>
		<rect x="36" y="34" width="14" height="2"/>
		<rect x="38" y="38" width="12" height="2"/>
		<rect x="47" y="46" width="3" height="2"/>
		<rect x="47" y="50" width="3" height="2"/>
		<rect x="47" y="54" width="3" height="2"/>
		<circle cx="5" cy="4.708" r="1"/>
		<circle cx="9" cy="4.708" r="1"/>
		<circle cx="13" cy="4.708" r="1"/>
		<rect x="14" y="49.708" width="2" height="2"/>
	</g>
</g>
<g>
</g>
<g>
</g>
<g>
</g>
<g>
</g>
<g>
</g>
<g>
</g>
<g>
</g>
<g>
</g>
<g>
</g>
<g>
</g>
<g>
</g>
<g>
</g>
<g>
</g>
<g>
</g>
<g>
</g>
</svg>
