<?xml version="1.0" encoding="iso-8859-1"?>
<!-- Generator: Adobe Illustrator 19.0.0, SVG Export Plug-In . SVG Version: 6.00 Build 0)  -->
<svg version="1.1" id="Layer_1" xmlns="http://www.w3.org/2000/svg" xmlns:xlink="http://www.w3.org/1999/xlink" x="0px" y="0px"
	 viewBox="0 0 55.415 55.415" style="enable-background:new 0 0 55.415 55.415;" xml:space="preserve">
<g>
	<path style="fill:#F8CF26;" d="M13.294,25.562l-0.672-0.672c-0.589-0.59-0.914-1.373-0.914-2.207c0-1.684,1.342-3.051,3.011-3.11
		c0.058-1.632,1.368-2.942,3-3c0.058-1.632,1.368-2.942,3-3c0.043-1.223,0.787-2.121,1.847-2.593l-1.272-1.126h-1.172L9.708,19.976
		v5.172l2,2L13.294,25.562z"/>
	<path style="fill:#66CEDB;" d="M14.708,4.976l-9.586,9.586l3.586,3.585l9.586-9.586L14.708,4.976z M12,9.854l2-2l1.414,1.414l-2,2
		L12,9.854z"/>
	<path style="fill:#66CEDB;" d="M17.708,47.147l3.586-3.586l-9.586-9.585l-3.586,3.586L17.708,47.147z M16.415,40.854l2,2
		l-1.414,1.414l-2-2L16.415,40.854z"/>
	<polygon style="fill:#F8CF26;" points="41.708,23.976 31.293,13.854 28.122,13.854 41.708,27.147 	"/>
	<path style="fill:#66CEDB;" d="M33.122,42.562l3.586,3.585l9.586-9.586l-3.586-3.585L33.122,42.562z M41.415,39.269L40,37.854l2-2
		l1.414,1.414L41.415,39.269z"/>
	<path style="fill:#F8CF26;" d="M20.708,36.562v-3.586l-6-6l-2,2v3.172l10.414,10.706h3.172L21,37.415
		C20.813,37.227,20.708,36.827,20.708,36.562z"/>
	<path style="fill:#F8CF26;" d="M30.415,21.854L29,23.268l-7.379-7.379c-0.212-0.211-0.493-0.328-0.793-0.328
		c-0.618,0-1.121,0.503-1.121,1.121c0,0.3,0.117,0.581,0.328,0.793l7.379,7.379L26,26.268l-7.379-7.379
		c-0.212-0.211-0.493-0.328-0.793-0.328c-0.618,0-1.121,0.503-1.121,1.121c0,0.3,0.117,0.581,0.328,0.793l7.379,7.379L23,29.268
		l-7.379-7.379c-0.212-0.211-0.493-0.328-0.793-0.328c-0.618,0-1.121,0.503-1.121,1.121c0,0.3,0.117,0.581,0.328,0.793
		l11.379,11.379L24,36.268l-1.293-1.292v1.172l5.414,5.706h3.172l10.414-10.707v-1.172L25,13.268l-0.379-0.379
		c-0.212-0.211-0.493-0.328-0.793-0.328c-0.618,0-1.121,0.503-1.121,1.121c0,0.3,0.117,0.581,0.328,0.793L30.415,21.854z"/>
	<path style="fill:#66CEDB;" d="M46.293,18.562l-9.586-9.586l-3.586,3.586l9.586,9.585L46.293,18.562z M38,15.268l-2-2l1.414-1.414
		l2,2L38,15.268z"/>
	<g>
		<path d="M43.708,29.562c0-0.265-0.106-0.52-0.293-0.707l-0.293-0.293l0.293-0.293c0.187-0.188,0.293-0.442,0.293-0.707v-3.586
			l11.707-11.707L54,10.854l-6.293,6.293l-9.586-9.586l6.293-6.293L43,0L31.293,11.854h-3.586c-0.265,0-0.52-0.041-0.707,0.147
			l-0.293,0.22l-0.293-0.329l-0.379-0.397l-3.621-3.484c-0.188-0.189-0.442-0.157-0.707-0.157h-1.586l-7.707-7.853L11,1.342
			l2.293,2.256l-9.586,9.568l-2.293-2.302L0,12.273l7.707,7.703v5.586c0,0.265,0.105,0.519,0.293,0.707l2.707,2.707v3.172
			L0.001,42.854l1.414,1.414l5.293-5.292l9.586,9.586l-5.293,5.292l1.414,1.56l10.707-10.56h3.586c0.265,0,0.519-0.105,0.707-0.293
			l0.707-0.707h3.172l11.707,11.561l1.414-1.487l-6.293-6.33l9.586-9.604L54,44.278l1.414-1.419L43.708,31.147V29.562z
			 M36.708,8.976l9.586,9.586l-3.586,3.585l-9.586-9.586L36.708,8.976z M31.293,13.854l10.414,10.122v3.172L28.122,13.854H31.293z
			 M41.708,29.976v1.172L31.293,41.854h-3.172l-5.414-5.707v-1.172L24,36.268l1.414-1.414L14.035,23.476
			c-0.211-0.212-0.328-0.494-0.328-0.793c0-0.618,0.503-1.121,1.121-1.121c0.3,0,0.581,0.117,0.793,0.328L23,29.269l1.414-1.415
			l-7.379-7.379c-0.211-0.211-0.328-0.493-0.328-0.792c0-0.618,0.503-1.121,1.121-1.121c0.3,0,0.581,0.117,0.793,0.328L26,26.269
			l1.414-1.415l-7.379-7.379c-0.211-0.211-0.328-0.493-0.328-0.792c0-0.618,0.503-1.121,1.121-1.121c0.3,0,0.581,0.117,0.793,0.328
			L29,23.269l1.414-1.415l-7.379-7.379c-0.211-0.211-0.328-0.493-0.328-0.792c0-0.618,0.503-1.121,1.121-1.121
			c0.3,0,0.581,0.117,0.793,0.328L25,13.269L41.708,29.976z M14.708,4.976l3.586,3.586l-9.586,9.585l-3.586-3.586L14.708,4.976z
			 M9.708,19.976L20.122,9.854h1.172l1.272,1.126c-1.06,0.472-1.804,1.443-1.847,2.666c-1.632,0.058-2.942,1.332-3,2.963
			c-1.632,0.058-2.942,1.35-3,2.982c-1.669,0.059-3.011,1.417-3.011,3.101c0,0.834,0.325,1.613,0.914,2.202l0.672,0.67l-1.586,1.585
			l-2-2.001V19.976z M17.708,47.147l-9.586-9.586l3.586-3.585l9.586,9.586L17.708,47.147z M23.122,42.854L12.708,32.147v-3.172l2-2
			l6,6v3.586c0,0.265,0.105,0.666,0.293,0.853l5.293,5.44C26.294,42.854,23.122,42.854,23.122,42.854z M36.708,46.147l-3.586-3.586
			l9.586-9.585l3.586,3.586L36.708,46.147z"/>
		<rect x="40.294" y="36.562" transform="matrix(0.7071 -0.7071 0.7071 0.7071 -14.3442 40.4935)" width="2.828" height="2"/>
		<rect x="15.707" y="41.147" transform="matrix(0.7071 -0.7071 0.7071 0.7071 -25.2021 24.2795)" width="2" height="2.828"/>
		<rect x="12.293" y="8.562" transform="matrix(0.7071 -0.7071 0.7071 0.7071 -2.7466 12.4933)" width="2.828" height="2"/>
		<rect x="36.707" y="12.148" transform="matrix(0.7071 -0.7071 0.7071 0.7071 1.4547 30.635)" width="2" height="2.828"/>
	</g>
</g>
<g>
</g>
<g>
</g>
<g>
</g>
<g>
</g>
<g>
</g>
<g>
</g>
<g>
</g>
<g>
</g>
<g>
</g>
<g>
</g>
<g>
</g>
<g>
</g>
<g>
</g>
<g>
</g>
<g>
</g>
</svg>
