<?xml version="1.0" encoding="iso-8859-1"?>
<!-- Generator: Adobe Illustrator 19.0.0, SVG Export Plug-In . SVG Version: 6.00 Build 0)  -->
<svg version="1.1" id="Layer_1" xmlns="http://www.w3.org/2000/svg" xmlns:xlink="http://www.w3.org/1999/xlink" x="0px" y="0px"
	 viewBox="0 0 57.854 57.854" style="enable-background:new 0 0 57.854 57.854;" xml:space="preserve">
<g>
	<rect x="12.927" y="14" style="fill:#FFFFFF;" width="31" height="37"/>
	<path style="fill:#FFFFFF;" d="M7.927,49h3v-3h-2c-1.654,0-3-1.638-3-3.292v-21c0-1.655,1.346-2.708,3-2.708h2v-3h-3
		c-2.757,0-5,1.951-5,4.708v23C2.927,46.464,5.17,49,7.927,49z"/>
	<path style="fill:#66CEDB;" d="M42.927,55.708c6.617,0,12-5.383,12-12s-5.383-12-12-12c-6.617,0-12,5.383-12,12
		S36.31,55.708,42.927,55.708z M42.927,33.708c5.514,0,10,4.486,10,10s-4.486,10-10,10s-10-4.486-10-10S37.413,33.708,42.927,33.708
		z"/>
	<path style="fill:#F8CF26;" d="M42.927,51.708c4.411,0,8-3.589,8-8s-3.589-8-8-8c-4.411,0-8,3.589-8,8S38.516,51.708,42.927,51.708
		z M39.374,40.813l3.355,1.678l3.49-3.49l1.414,1.414l-4,4c-0.192,0.192-0.448,0.293-0.707,0.293c-0.152,0-0.305-0.035-0.447-0.105
		l-4-2L39.374,40.813z"/>
	<g>
		<path d="M43.927,29.758V28h2v-2h-6v2h2v1.758c-7.253,0.516-13,6.713-13,14.096c0,2.551,0.697,4.146,1.894,7.146H12.927V14h31v10h2
			V12.708c0-0.553-0.447-0.708-1-0.708h-33c-0.553,0-1,0.155-1,0.708V14h-3c-3.859,0-7,2.848-7,6.708v23
			c0,3.859,3.141,7.292,7,7.292h3v0.708c0,0.552,0.447,1.292,1,1.292h20.292c2.57,3,6.415,4.854,10.708,4.854
			c7.72,0,14-6.353,14-14.073C56.927,36.398,51.18,30.275,43.927,29.758z M7.927,49c-2.757,0-5-2.536-5-5.292v-23
			c0-2.757,2.243-4.708,5-4.708h3v3h-2c-1.654,0-3,1.053-3,2.708v21c0,1.654,1.346,3.292,3,3.292h2v3H7.927z M10.927,21v23h-2
			c-0.552,0-1-0.741-1-1.292v-21c0-0.552,0.448-0.708,1-0.708H10.927z M42.927,55.708c-6.617,0-12-5.383-12-12s5.383-12,12-12
			c6.617,0,12,5.383,12,12S49.544,55.708,42.927,55.708z"/>
		<path d="M21.271,5.707c0,0.645,0.251,1.251,0.707,1.707c0.161,0.162,0.161,0.424,0,0.586l1.414,1.414
			c0.941-0.941,0.941-2.473,0-3.415c-0.105-0.106-0.121-0.228-0.121-0.293s0.016-0.187,0.121-0.293c0.941-0.941,0.941-2.473,0-3.415
			c-0.105-0.105-0.121-0.228-0.121-0.293c0-0.064,0.016-0.187,0.121-0.293L21.978,0c-0.456,0.456-0.707,1.062-0.707,1.707
			s0.251,1.252,0.707,1.707c0.161,0.162,0.161,0.424,0,0.585C21.522,4.456,21.271,5.062,21.271,5.707z"/>
		<path d="M26.685,5.707c0,0.645,0.251,1.251,0.707,1.707c0.161,0.162,0.161,0.424,0,0.586l1.414,1.414
			c0.94-0.941,0.94-2.473,0-3.415c-0.106-0.106-0.121-0.228-0.121-0.293s0.016-0.187,0.121-0.293c0.94-0.941,0.94-2.473,0-3.415
			C28.7,1.893,28.685,1.77,28.685,1.705c0-0.064,0.016-0.187,0.121-0.293L27.392,0c-0.456,0.456-0.707,1.062-0.707,1.707
			s0.251,1.252,0.707,1.707c0.161,0.162,0.161,0.424,0,0.585C26.936,4.456,26.685,5.062,26.685,5.707z"/>
		<path d="M32.099,5.707c0,0.645,0.251,1.251,0.707,1.707c0.161,0.162,0.161,0.424,0,0.586l1.414,1.414
			c0.94-0.941,0.94-2.473,0-3.415c-0.106-0.106-0.121-0.228-0.121-0.293s0.016-0.187,0.121-0.293c0.94-0.941,0.94-2.473,0-3.415
			c-0.106-0.105-0.121-0.228-0.121-0.293c0-0.064,0.016-0.187,0.121-0.293L32.806,0c-0.456,0.456-0.707,1.062-0.707,1.707
			s0.251,1.252,0.707,1.707c0.161,0.162,0.161,0.424,0,0.585C32.35,4.456,32.099,5.062,32.099,5.707z"/>
		<path d="M42.73,42.491l-3.355-1.678l-0.895,1.789l4,2c0.143,0.071,0.295,0.105,0.447,0.105c0.259,0,0.515-0.101,0.707-0.293l4-4
			L46.22,39L42.73,42.491z"/>
		<path d="M42.927,33.708c-5.514,0-10,4.486-10,10s4.486,10,10,10s10-4.486,10-10S48.441,33.708,42.927,33.708z M42.927,51.708
			c-4.411,0-8-3.589-8-8s3.589-8,8-8c4.411,0,8,3.589,8,8S47.338,51.708,42.927,51.708z"/>
		<rect x="53.427" y="29.086" transform="matrix(0.7071 -0.7071 0.7071 0.7071 -6.1256 47.6264)" width="2" height="4.243"/>
		<rect x="29.927" y="29.708" width="2" height="2"/>
		<rect x="25.927" y="29.708" width="2" height="2"/>
		<rect x="21.927" y="29.708" width="2" height="2"/>
	</g>
</g>
<g>
</g>
<g>
</g>
<g>
</g>
<g>
</g>
<g>
</g>
<g>
</g>
<g>
</g>
<g>
</g>
<g>
</g>
<g>
</g>
<g>
</g>
<g>
</g>
<g>
</g>
<g>
</g>
<g>
</g>
</svg>
