<?xml version="1.0" encoding="iso-8859-1"?>
<!-- Generator: Adobe Illustrator 19.0.0, SVG Export Plug-In . SVG Version: 6.00 Build 0)  -->
<svg version="1.1" id="Layer_1" xmlns="http://www.w3.org/2000/svg" xmlns:xlink="http://www.w3.org/1999/xlink" x="0px" y="0px"
	 viewBox="0 0 56 56" style="enable-background:new 0 0 56 56;" xml:space="preserve">
<g>
	<path style="fill:#F8CF26;" d="M17,14.5v3h6.5c0.827,0,1.5-0.673,1.5-1.5s-0.673-1.5-1.5-1.5H17z"/>
	<path style="fill:#F8CF26;" d="M23.5,12.5h10c0.827,0,1.5-0.673,1.5-1.5s-0.673-1.5-1.5-1.5H15.974c0.635,0,1.026,1,1.026,3H23.5z"
		/>
	<path style="fill:#F8CF26;" d="M25,26c0-0.827-0.673-1.5-1.5-1.5H16v-2h7.5c0.827,0,1.5-0.673,1.5-1.5s-0.673-1.5-1.5-1.5h-6.663
		c-0.434,1-1.757,2.354-3.337,2.354c-1.93,0-3.5-1.717-3.5-3.646V13.5h2v4.708c0,0.827,0.673,1.5,1.5,1.5s1.5-0.673,1.5-1.5v-6
		c0-1.655-1.346-2.708-3-2.708h-2H8v18h15.5C24.327,27.5,25,26.827,25,26z"/>
	<rect x="4" y="9.5" style="fill:#66CEDB;" width="2" height="18"/>
	<path style="fill:#66CEDB;" d="M37,23.208v-2.816c-1.162,0.414-2,1.514-2,2.816v7c0,1.654,1.346,3.292,3,3.292h9
		c1.304,0,2.416-1,2.829-2H38c-0.553,0-1-0.74-1-1.292V23.208z"/>
	<path style="fill:#66CEDB;" d="M47,35.5h-2.382l4.276,8.406C48.964,44.045,49,44.052,49,44.208V50.5h3v-6.057l-4.637-9.126
		C47.241,35.326,47.124,35.5,47,35.5z"/>
	<circle style="fill:#F8CF26;" cx="45" cy="12.208" r="4"/>
	<polygon style="fill:#EE8B26;" points="45,26.5 47,26.5 47,29.5 51,29.5 54,29.5 54,18.5 39,18.5 39,23.208 39,29.5 45,29.5 	"/>
	<path style="fill:#66CEDB;" d="M39,41.208c0,0.208-0.065,0.412-0.187,0.581l-4.432,6.205l2.372,1.78L42,41.905V35.5h-3V41.208z"/>
	<g>
		<path d="M55,16.5h-5.541c0.955-2,1.541-2.609,1.541-4.146c0-3.309-2.691-6.073-6-6.073s-6,2.801-6,6.11
			c0,1.538,0.586,2.11,1.54,4.11H38c-0.553,0-1,0.155-1,0.708v1.101c-2.279,0.465-4,2.485-4,4.899v7c0,2.414,1.721,4.434,4,4.899
			v5.781l-4.814,6.739c-0.316,0.442-0.221,1.055,0.214,1.381l4,3c0.174,0.131,0.385,0.2,0.6,0.2c0.057,0,0.112-0.005,0.169-0.014
			c0.271-0.046,0.511-0.203,0.663-0.431l6-9C43.941,42.598,44,42.405,44,42.208v-3.764l3,6v6.764c0,0.552,0.447,1.292,1,1.292h5
			c0.553,0,1-0.74,1-1.292v-7c0-0.155-0.036-0.309-0.106-0.447l-4.575-9.004c1.303-0.69,2.277-2.257,2.58-3.257H55
			c0.553,0,1-0.74,1-1.292v-13C56,16.655,55.553,16.5,55,16.5z M41,12.208c0-2.206,1.794-4,4-4s4,1.794,4,4s-1.794,4-4,4
			S41,14.413,41,12.208z M36.754,49.773l-2.372-1.78l4.432-6.205C38.935,41.619,39,41.416,39,41.208V35.5h3v6.405L36.754,49.773z
			 M52,44.443V50.5h-3v-6.292c0-0.155-0.036-0.162-0.106-0.301L44.618,35.5H47c0.124,0,0.241-0.174,0.363-0.183L52,44.443z M47,33.5
			h-9c-1.654,0-3-1.638-3-3.292v-7c0-1.302,0.838-2.402,2-2.816v2.816v7c0,0.552,0.447,1.292,1,1.292h11.829
			C49.416,32.5,48.304,33.5,47,33.5z M54,29.5h-3h-4v-3h-2v3h-6v-6.292V18.5h15V29.5z"/>
		<path d="M27,15.854c0-0.539-0.133-1.354-0.351-1.354H33.5c1.93,0,3.5-1.57,3.5-3.5s-1.57-3.5-3.5-3.5H12h-2H7H3H0v2h2v18H0v2h3h4
			h16.5c1.93,0,3.5-1.717,3.5-3.646c0-0.98-0.407-1.937-1.058-2.573C26.593,22.645,27,21.724,27,20.744s-0.407-1.809-1.058-2.445
			C26.593,17.663,27,16.833,27,15.854z M6,27.5H4v-18h2V27.5z M35,11c0,0.827-0.673,1.5-1.5,1.5h-10H17c0-2-0.391-3-1.026-3H33.5
			C34.327,9.5,35,10.173,35,11z M25,21c0,0.827-0.673,1.5-1.5,1.5H16v2h7.5c0.827,0,1.5,0.673,1.5,1.5s-0.673,1.5-1.5,1.5H8v-18h2h2
			c1.654,0,3,1.053,3,2.708v6c0,0.827-0.673,1.5-1.5,1.5s-1.5-0.673-1.5-1.5V13.5h-2v4.708c0,1.93,1.57,3.646,3.5,3.646
			c1.58,0,2.903-1.354,3.337-2.354H23.5C24.327,19.5,25,20.173,25,21z M17,17.5v-3h6.5c0.827,0,1.5,0.673,1.5,1.5
			s-0.673,1.5-1.5,1.5H17z"/>
		<rect x="28" y="50.208" width="2" height="2"/>
		<rect x="24" y="50.208" width="2" height="2"/>
		<rect x="20" y="50.208" width="2" height="2"/>
		<rect x="38" y="3.5" width="2" height="3"/>
	</g>
</g>
<g>
</g>
<g>
</g>
<g>
</g>
<g>
</g>
<g>
</g>
<g>
</g>
<g>
</g>
<g>
</g>
<g>
</g>
<g>
</g>
<g>
</g>
<g>
</g>
<g>
</g>
<g>
</g>
<g>
</g>
</svg>
