<?xml version="1.0" encoding="iso-8859-1"?>
<!-- Generator: Adobe Illustrator 19.0.0, SVG Export Plug-In . SVG Version: 6.00 Build 0)  -->
<svg version="1.1" id="Layer_1" xmlns="http://www.w3.org/2000/svg" xmlns:xlink="http://www.w3.org/1999/xlink" x="0px" y="0px"
	 viewBox="0 0 56 56" style="enable-background:new 0 0 56 56;" xml:space="preserve">
<g>
	<path style="fill:#F8CF26;" d="M22,20.955c0,1.419,2.464,3,6,3s6-1.581,6-3c0-1.281-2.01-2.689-5-2.952v3.244h-2v-3.245
		C24.01,18.266,22,19.674,22,20.955z"/>
	<path style="fill:#66CEDB;" d="M21.994,7.949c0.039-1.173-0.077-3.373-1.347-4.642c-1.268-1.268-3.459-1.374-4.642-1.347
		c-0.039,1.173,0.077,3.373,1.347,4.642C18.621,7.872,20.816,7.979,21.994,7.949z"/>
	<path style="fill:#F8CF26;" d="M42,29.287v1.667c0,1.419,2.464,3,6,3s6-1.581,6-3v-1.667c-1.455,1.026-3.583,1.667-6,1.667
		C45.583,30.955,43.455,30.313,42,29.287z"/>
	<path style="fill:#F8CF26;" d="M8,38.955c3.536,0,6-1.581,6-3v-1.668c-1.455,1.026-3.583,1.667-6,1.667s-4.545-0.641-6-1.667v1.667
		C2,37.373,4.464,38.955,8,38.955z"/>
	<path style="fill:#F8CF26;" d="M8,48.955c3.536,0,6-1.581,6-3v-1.668c-1.455,1.026-3.583,1.667-6,1.667s-4.545-0.641-6-1.667v1.667
		C2,47.373,4.464,48.955,8,48.955z"/>
	<path style="fill:#F8CF26;" d="M8,33.955c3.536,0,6-1.581,6-3s-2.464-3-6-3s-6,1.581-6,3C2,32.374,4.464,33.955,8,33.955z"/>
	<path style="fill:#F8CF26;" d="M8,53.955c3.536,0,6-1.581,6-3v-1.668c-1.455,1.026-3.583,1.667-6,1.667s-4.545-0.641-6-1.667v1.667
		C2,52.373,4.464,53.955,8,53.955z"/>
	<path style="fill:#F8CF26;" d="M8,43.955c3.536,0,6-1.581,6-3v-1.668c-1.455,1.026-3.583,1.667-6,1.667s-4.545-0.641-6-1.667v1.667
		C2,42.373,4.464,43.955,8,43.955z"/>
	<path style="fill:#F8CF26;" d="M42,39.287v1.667c0,1.419,2.464,3,6,3s6-1.581,6-3v-1.667c-1.455,1.026-3.583,1.667-6,1.667
		C45.583,40.955,43.455,40.313,42,39.287z"/>
	<path style="fill:#F8CF26;" d="M42,49.287v1.667c0,1.419,2.464,3,6,3s6-1.581,6-3v-1.667c-1.455,1.026-3.583,1.667-6,1.667
		C45.583,50.955,43.455,50.313,42,49.287z"/>
	<path style="fill:#F8CF26;" d="M42,34.287v1.667c0,1.419,2.464,3,6,3s6-1.581,6-3v-1.667c-1.455,1.026-3.583,1.667-6,1.667
		C45.583,35.955,43.455,35.313,42,34.287z"/>
	<path style="fill:#F8CF26;" d="M42,24.287v1.667c0,1.419,2.464,3,6,3s6-1.581,6-3v-1.667c-1.455,1.026-3.583,1.667-6,1.667
		C45.583,25.955,43.455,25.313,42,24.287z"/>
	<path style="fill:#F8CF26;" d="M22,49.287v1.667c0,1.419,2.464,3,6,3s6-1.581,6-3v-1.667c-1.455,1.026-3.583,1.667-6,1.667
		C25.583,50.955,23.455,50.313,22,49.287z"/>
	<path style="fill:#F8CF26;" d="M42,44.287v1.667c0,1.419,2.464,3,6,3s6-1.581,6-3v-1.667c-1.455,1.026-3.583,1.667-6,1.667
		C45.583,45.955,43.455,45.313,42,44.287z"/>
	<path style="fill:#66CEDB;" d="M35.998,5.957c-1.039-0.016-2.814,0.108-3.852,1.144c-1.037,1.037-1.167,2.822-1.144,3.851
		c1.032,0.02,2.812-0.105,3.851-1.144C35.891,8.771,36.02,6.986,35.998,5.957z"/>
	<path style="fill:#F8CF26;" d="M22,39.287v1.667c0,1.419,2.464,3,6,3s6-1.581,6-3v-1.667c-1.455,1.026-3.583,1.667-6,1.667
		C25.583,40.955,23.455,40.313,22,39.287z"/>
	<path style="fill:#F8CF26;" d="M42,19.287v1.667c0,1.419,2.464,3,6,3s6-1.581,6-3v-1.667c-1.455,1.026-3.583,1.667-6,1.667
		C45.583,20.955,43.455,20.313,42,19.287z"/>
	<path style="fill:#F8CF26;" d="M42,14.287v1.667c0,1.419,2.464,3,6,3s6-1.581,6-3v-1.667c-1.455,1.026-3.583,1.667-6,1.667
		C45.583,15.955,43.455,15.313,42,14.287z"/>
	<path style="fill:#F8CF26;" d="M48,2.954c-3.536,0-6,1.581-6,3s2.464,3,6,3s6-1.581,6-3S51.536,2.954,48,2.954z"/>
	<path style="fill:#F8CF26;" d="M42,9.287v1.668c0,1.419,2.464,3,6,3s6-1.581,6-3V9.287c-1.455,1.026-3.583,1.668-6,1.668
		S43.455,10.313,42,9.287z"/>
	<path style="fill:#F8CF26;" d="M22,29.287v1.667c0,1.419,2.464,3,6,3s6-1.581,6-3v-1.667c-1.455,1.026-3.583,1.667-6,1.667
		C25.583,30.955,23.455,30.313,22,29.287z"/>
	<path style="fill:#F8CF26;" d="M22,44.287v1.667c0,1.419,2.464,3,6,3s6-1.581,6-3v-1.667c-1.455,1.026-3.583,1.667-6,1.667
		C25.583,45.955,23.455,45.313,22,44.287z"/>
	<path style="fill:#F8CF26;" d="M22,24.287v1.667c0,1.419,2.464,3,6,3s6-1.581,6-3v-1.667c-1.455,1.026-3.583,1.667-6,1.667
		C25.583,25.955,23.455,25.313,22,24.287z"/>
	<path style="fill:#F8CF26;" d="M22,34.287v1.667c0,1.419,2.464,3,6,3s6-1.581,6-3v-1.667c-1.455,1.026-3.583,1.667-6,1.667
		C25.583,35.955,23.455,35.313,22,34.287z"/>
	<g>
		<path d="M8,25.955c-4.486,0-8,2.196-8,5v20c0,2.804,3.514,5,8,5s8-2.196,8-5v-20C16,28.151,12.486,25.955,8,25.955z M8,53.955
			c-3.536,0-6-1.581-6-3v-1.668c1.455,1.026,3.583,1.667,6,1.667s4.545-0.641,6-1.667v1.667C14,52.373,11.536,53.955,8,53.955z
			 M8,48.955c-3.536,0-6-1.581-6-3v-1.668c1.455,1.026,3.583,1.667,6,1.667s4.545-0.641,6-1.667v1.667
			C14,47.373,11.536,48.955,8,48.955z M8,43.955c-3.536,0-6-1.581-6-3v-1.668c1.455,1.026,3.583,1.667,6,1.667s4.545-0.641,6-1.667
			v1.667C14,42.373,11.536,43.955,8,43.955z M8,38.955c-3.536,0-6-1.581-6-3v-1.668c1.455,1.026,3.583,1.667,6,1.667
			s4.545-0.641,6-1.667v1.667C14,37.373,11.536,38.955,8,38.955z M8,33.955c-3.536,0-6-1.581-6-3s2.464-3,6-3s6,1.581,6,3
			C14,32.374,11.536,33.955,8,33.955z"/>
		<path d="M48,0.954c-4.486,0-8,2.196-8,5v45c0,2.804,3.514,5,8,5s8-2.196,8-5v-45C56,3.151,52.486,0.954,48,0.954z M48,2.954
			c3.536,0,6,1.581,6,3s-2.464,3-6,3s-6-1.581-6-3S44.464,2.954,48,2.954z M48,53.955c-3.536,0-6-1.581-6-3v-1.668
			c1.455,1.026,3.583,1.667,6,1.667s4.545-0.641,6-1.667v1.667C54,52.373,51.536,53.955,48,53.955z M48,48.955c-3.536,0-6-1.581-6-3
			v-1.668c1.455,1.026,3.583,1.667,6,1.667s4.545-0.641,6-1.667v1.667C54,47.373,51.536,48.955,48,48.955z M48,43.955
			c-3.536,0-6-1.581-6-3v-1.668c1.455,1.026,3.583,1.667,6,1.667s4.545-0.641,6-1.667v1.667C54,42.373,51.536,43.955,48,43.955z
			 M48,38.955c-3.536,0-6-1.581-6-3v-1.668c1.455,1.026,3.583,1.667,6,1.667s4.545-0.641,6-1.667v1.667
			C54,37.373,51.536,38.955,48,38.955z M48,33.955c-3.536,0-6-1.581-6-3v-1.668c1.455,1.026,3.583,1.667,6,1.667
			s4.545-0.641,6-1.667v1.667C54,32.373,51.536,33.955,48,33.955z M48,28.955c-3.536,0-6-1.581-6-3v-1.668
			c1.455,1.026,3.583,1.667,6,1.667s4.545-0.641,6-1.667v1.667C54,27.373,51.536,28.955,48,28.955z M48,23.955c-3.536,0-6-1.581-6-3
			v-1.668c1.455,1.026,3.583,1.667,6,1.667s4.545-0.641,6-1.667v1.667C54,22.373,51.536,23.955,48,23.955z M48,18.955
			c-3.536,0-6-1.581-6-3v-1.668c1.455,1.026,3.583,1.667,6,1.667s4.545-0.641,6-1.667v1.667C54,17.373,51.536,18.955,48,18.955z
			 M48,13.955c-3.536,0-6-1.581-6-3V9.287c1.455,1.026,3.583,1.668,6,1.668s4.545-0.641,6-1.668v1.668
			C54,12.373,51.536,13.955,48,13.955z"/>
		<path d="M37.077,4.032c-0.168-0.026-4.121-0.57-6.345,1.655c-1.779,1.779-1.787,4.657-1.706,5.827l-1.733,1.733
			C27.105,13.435,27,13.689,27,13.955v0.586l-3-3V8.247h-0.006c0.043-2-0.152-4.428-1.932-6.208
			c-2.492-2.494-6.943-1.956-7.13-1.926c-0.438,0.064-0.782,0.371-0.846,0.809c-0.027,0.188-0.642,4.619,1.853,7.112
			c1.647,1.648,4.148,1.929,5.71,1.929c0.128,0,0.237-0.014,0.352-0.017v2.008c0,0.266,0.105,0.519,0.293,0.707l3.485,3.486
			C22.408,16.735,20,18.635,20,20.955v30c0,2.804,3.514,5,8,5s8-2.196,8-5v-30c0-2.591-3.004-4.66-7-4.959v-1.627l1.441-1.441
			c0.203,0.014,0.446,0.026,0.738,0.026c1.388,0,3.616-0.26,5.088-1.731c2.226-2.226,1.68-6.178,1.655-6.345
			C37.859,4.439,37.516,4.095,37.077,4.032z M21.994,7.949c-1.178,0.03-3.373-0.077-4.642-1.347
			c-1.269-1.269-1.386-3.469-1.347-4.642c1.183-0.027,3.374,0.078,4.642,1.347C21.917,4.576,22.033,6.776,21.994,7.949z M28,53.955
			c-3.536,0-6-1.581-6-3v-1.668c1.455,1.026,3.583,1.667,6,1.667s4.545-0.641,6-1.667v1.667C34,52.373,31.536,53.955,28,53.955z
			 M28,48.955c-3.536,0-6-1.581-6-3v-1.668c1.455,1.026,3.583,1.667,6,1.667s4.545-0.641,6-1.667v1.667
			C34,47.373,31.536,48.955,28,48.955z M28,43.955c-3.536,0-6-1.581-6-3v-1.668c1.455,1.026,3.583,1.667,6,1.667
			s4.545-0.641,6-1.667v1.667C34,42.373,31.536,43.955,28,43.955z M28,38.955c-3.536,0-6-1.581-6-3v-1.668
			c1.455,1.026,3.583,1.667,6,1.667s4.545-0.641,6-1.667v1.667C34,37.373,31.536,38.955,28,38.955z M28,33.955c-3.536,0-6-1.581-6-3
			v-1.668c1.455,1.026,3.583,1.667,6,1.667s4.545-0.641,6-1.667v1.667C34,32.373,31.536,33.955,28,33.955z M28,28.955
			c-3.536,0-6-1.581-6-3v-1.668c1.455,1.026,3.583,1.667,6,1.667s4.545-0.641,6-1.667v1.667C34,27.373,31.536,28.955,28,28.955z
			 M34,20.955c0,1.419-2.464,3-6,3s-6-1.581-6-3c0-1.281,2.01-2.689,5-2.952v3.244h2v-3.245C31.99,18.266,34,19.674,34,20.955z
			 M34.853,9.808c-1.039,1.039-2.819,1.164-3.851,1.144c-0.023-1.029,0.107-2.814,1.144-3.851c1.037-1.036,2.813-1.16,3.852-1.144
			C36.02,6.986,35.891,8.771,34.853,9.808z"/>
	</g>
</g>
<g>
</g>
<g>
</g>
<g>
</g>
<g>
</g>
<g>
</g>
<g>
</g>
<g>
</g>
<g>
</g>
<g>
</g>
<g>
</g>
<g>
</g>
<g>
</g>
<g>
</g>
<g>
</g>
<g>
</g>
</svg>
