<?xml version="1.0" encoding="iso-8859-1"?>
<!-- Generator: Adobe Illustrator 19.0.0, SVG Export Plug-In . SVG Version: 6.00 Build 0)  -->
<svg version="1.1" id="Layer_1" xmlns="http://www.w3.org/2000/svg" xmlns:xlink="http://www.w3.org/1999/xlink" x="0px" y="0px"
	 viewBox="0 0 56 56" style="enable-background:new 0 0 56 56;" xml:space="preserve">
<g>
	<path style="fill:#F8CF26;" d="M34.586,26.854L23.992,16.26c-0.209-0.21-0.315-0.501-0.289-0.797
		c0.027-0.295,0.183-0.563,0.426-0.732c0.099-0.068,0.196-0.141,0.284-0.229C24.792,14.122,25,13.62,25,13.086
		s-0.208-1.036-0.586-1.414c-0.756-0.756-2.072-0.756-2.828,0c-0.012,0.016-0.056,0.077-0.069,0.093
		c-0.221,0.258-0.56,0.389-0.894,0.338c-0.337-0.046-0.627-0.26-0.77-0.567c-0.108-0.23-0.234-0.417-0.387-0.569
		c-0.757-0.758-2.073-0.757-2.829-0.001c-0.377,0.378-0.585,0.88-0.585,1.414s0.208,1.036,0.585,1.414
		c0.153,0.152,0.34,0.279,0.573,0.389c0.306,0.144,0.519,0.433,0.565,0.768c0.047,0.335-0.079,0.671-0.334,0.893
		c-0.018,0.016-0.097,0.078-0.115,0.092c-0.359,0.358-0.567,0.86-0.567,1.395c0,0.534,0.208,1.036,0.586,1.414
		c0.756,0.756,2.073,0.756,2.829,0c0.194-0.194,0.345-0.428,0.447-0.694c0.122-0.316,0.395-0.55,0.726-0.62
		c0.069-0.015,0.139-0.021,0.208-0.021c0.262,0,0.518,0.104,0.707,0.293L33,28.439L34.586,26.854z"/>
	<path style="fill:#EE8B26;" d="M51.5,9.146h-12c-1.378,0-2.5,1.121-2.5,2.5s1.122,2.5,2.5,2.5H43c0.404,0,0.769,0.097,0.924,0.471
		s0.069,0.731-0.217,1.017l-8.793,8.757L36,25.458l1.293-1.302l1.414,1.409l-2,1.998l-3,2.999l-2,1.999l-1.414-1.414l1.293-1.293
		L30.5,28.768l-5.793,5.793c-0.391,0.391-1.023,0.391-1.414,0L17,28.268L2.414,42.854L6,46.439l10.293-10.293
		c0.391-0.391,1.023-0.391,1.414,0L24,42.439l23.293-23.293c0.286-0.287,0.715-0.374,1.09-0.217C48.756,19.084,49,19.449,49,19.854
		v3.5c0,1.379,1.122,2.5,2.5,2.5s2.5-1.121,2.5-2.5v-12C54,9.975,52.878,9.146,51.5,9.146z"/>
	<g>
		<path d="M51.5,7.146h-12c-2.481,0-4.5,2.019-4.5,4.5s2.019,4.5,4.5,4.5h1.086l-7.086,6.94l-7.367-7.44
			C26.695,14.941,27,14.037,27,13.122c0-1.069-0.416-2.091-1.172-2.846c-1.27-1.271-3.358-1.518-4.863-0.626
			c-0.028-0.03-0.058-0.065-0.087-0.094c-1.511-1.512-4.146-1.514-5.657-0.002c-0.755,0.755-1.171,1.759-1.171,2.827
			s0.416,2.072,1.172,2.829c0.029,0.029,0.059,0.057,0.089,0.086c-0.361,0.609-0.554,1.307-0.554,2.034
			c0,1.069,0.417,2.073,1.172,2.828c1.511,1.512,4.147,1.511,5.656,0.001c0.051-0.051,0.1-0.103,0.148-0.156l7.352,7.352L24,32.439
			l-6.293-6.293c-0.391-0.391-1.023-0.391-1.414,0l-16,16c-0.391,0.391-0.391,1.023,0,1.414l5,5C5.488,48.756,5.744,48.854,6,48.854
			s0.512-0.098,0.707-0.293L17,38.268l6.293,6.293c0.391,0.391,1.023,0.391,1.414,0L47,22.268v1.086c0,2.481,2.019,4.5,4.5,4.5
			s4.5-2.019,4.5-4.5v-12C56,8.872,53.981,7.146,51.5,7.146z M21.553,17.406c-0.069,0-0.139,0.007-0.208,0.021
			c-0.331,0.07-0.604,0.304-0.726,0.62c-0.103,0.267-0.253,0.5-0.447,0.694c-0.756,0.756-2.073,0.756-2.829,0
			c-0.378-0.378-0.586-0.88-0.586-1.414s0.208-1.036,0.567-1.395c0.019-0.014,0.098-0.076,0.115-0.092
			c0.255-0.222,0.381-0.558,0.334-0.893c-0.046-0.335-0.259-0.624-0.565-0.768c-0.232-0.109-0.42-0.236-0.573-0.389
			c-0.377-0.378-0.585-0.88-0.585-1.414s0.208-1.036,0.585-1.414c0.756-0.756,2.072-0.757,2.829,0.001
			c0.153,0.152,0.28,0.339,0.387,0.569c0.143,0.308,0.434,0.522,0.77,0.567c0.334,0.051,0.673-0.08,0.894-0.338
			c0.013-0.016,0.057-0.077,0.069-0.093c0.756-0.756,2.072-0.756,2.828,0C24.792,12.05,25,12.552,25,13.086
			s-0.208,1.036-0.587,1.415c-0.088,0.089-0.185,0.161-0.284,0.229c-0.244,0.169-0.399,0.438-0.426,0.732
			c-0.026,0.296,0.08,0.587,0.289,0.797l10.594,10.594L33,28.439l-10.74-10.74C22.07,17.51,21.815,17.406,21.553,17.406z M54,23.354
			c0,1.379-1.122,2.5-2.5,2.5s-2.5-1.121-2.5-2.5v-3.5c0-0.404-0.244-0.77-0.617-0.924c-0.375-0.157-0.804-0.07-1.09,0.217
			L24,42.439l-6.293-6.293c-0.391-0.391-1.023-0.391-1.414,0L6,46.439l-3.586-3.586L17,28.268l6.293,6.293
			c0.391,0.391,1.023,0.391,1.414,0l5.793-5.793l1.086,1.086l-1.293,1.292l1.414,1.414l2-2l3-3l2-2l-1.414-1.414L36,25.439
			l-1.086-1.086l8.793-8.793c0.286-0.286,0.372-0.57,0.217-0.944c-0.155-0.373-0.52-0.47-0.924-0.47h-3.5
			c-1.378,0-2.5-1.121-2.5-2.5s1.122-2.5,2.5-2.5h12c1.378,0,2.5,0.829,2.5,2.208V23.354z"/>
		<rect x="4" y="21.854" width="2" height="2"/>
		<rect x="8" y="21.854" width="2" height="2"/>
		<rect x="12" y="21.854" width="2" height="2"/>
		<rect x="41" y="31.854" width="2" height="2"/>
		<rect x="45" y="31.854" width="2" height="2"/>
		<rect x="49" y="31.854" width="2" height="2"/>
	</g>
</g>
<g>
</g>
<g>
</g>
<g>
</g>
<g>
</g>
<g>
</g>
<g>
</g>
<g>
</g>
<g>
</g>
<g>
</g>
<g>
</g>
<g>
</g>
<g>
</g>
<g>
</g>
<g>
</g>
<g>
</g>
</svg>
