<?xml version="1.0" encoding="iso-8859-1"?>
<!-- Generator: Adobe Illustrator 19.0.0, SVG Export Plug-In . SVG Version: 6.00 Build 0)  -->
<svg version="1.1" id="Layer_1" xmlns="http://www.w3.org/2000/svg" xmlns:xlink="http://www.w3.org/1999/xlink" x="0px" y="0px"
	 viewBox="0 0 51.001 51.001" style="enable-background:new 0 0 51.001 51.001;" xml:space="preserve">
<g>
	<circle style="fill:#66CEDB;" cx="31" cy="17" r="2"/>
	<path style="fill:#F8CF26;" d="M31,35v-1.724c-2.546,1.498-5.269,2.244-7.979,2.244c-4.858,0-9.664-2.358-13.282-6.897l1.563-1.246
		c5.356,6.715,13.622,8.053,20.102,3.248l0.319,0.577c0.09-0.027,0.179,0.09,0.277,0.09h3c0.265,0,0.519-0.041,0.707,0.147
		l4.172,4.098C42.534,31.942,44,27.529,44,23.036c0-11.579-9.42-21.018-21-21.018S2,11.43,2,23.009s9.42,20.995,21,20.995
		c4.491,0,8.869-1.469,12.464-4.124l-4.171-4.173C31.105,35.52,31,35.265,31,35z M31,13c2.206,0,4,1.794,4,4s-1.794,4-4,4
		s-4-1.794-4-4S28.794,13,31,13z M15,13c2.206,0,4,1.794,4,4s-1.794,4-4,4s-4-1.794-4-4S12.794,13,15,13z"/>
	<circle style="fill:#66CEDB;" cx="15" cy="17" r="2"/>
	<polygon style="fill:#66CEDB;" points="33,33.292 33,34.585 47,48.585 48.586,47.146 34.586,33.292 	"/>
	<g>
		<path d="M15,21c2.206,0,4-1.794,4-4s-1.794-4-4-4s-4,1.794-4,4S12.794,21,15,21z M15,15c1.103,0,2,0.897,2,2c0,1.102-0.897,2-2,2
			s-2-0.898-2-2C13,15.897,13.897,15,15,15z"/>
		<path d="M31,21c2.206,0,4-1.794,4-4s-1.794-4-4-4s-4,1.794-4,4S28.794,21,31,21z M31,15c1.103,0,2,0.897,2,2c0,1.102-0.897,2-2,2
			s-2-0.898-2-2C29,15.897,29.897,15,31,15z"/>
		<path d="M50.707,46.292l-9.402-9.402C44.327,32.909,46,28.021,46,23C46,10.317,35.682,0,23,0S0,10.317,0,23s10.318,23,23,23
			c5.019,0,9.91-1.673,13.891-4.694l9.402,9.402c0.195,0.195,0.451,0.293,0.707,0.293s0.512-0.098,0.707-0.293l3-3
			C51.098,47.316,51.098,46.683,50.707,46.292z M23,44C11.42,44,2,34.579,2,23S11.42,2,23,2s21,9.421,21,21
			c0,4.493-1.466,8.869-4.121,12.465l-4.172-4.025c-0.188-0.189-0.442-0.148-0.707-0.148h-3c-0.098,0-0.187-0.117-0.276-0.091
			l-0.319-0.504c-6.48,4.805-14.746,3.43-20.102-3.285L9.74,28.64c3.618,4.539,8.424,6.888,13.282,6.888
			c2.71,0,5.433-0.756,7.979-2.254v1.724c0,0.266,0.105,0.52,0.293,0.707l4.171,4.171C31.869,42.532,27.491,44,23,44z M47,48.585
			l-14-14v-1.293h1.586l14,13.854L47,48.585z"/>
		<rect x="32" y="49" width="2" height="2"/>
		<rect x="36" y="49" width="2" height="2"/>
		<rect x="40" y="49" width="2" height="2"/>
	</g>
</g>
<g>
</g>
<g>
</g>
<g>
</g>
<g>
</g>
<g>
</g>
<g>
</g>
<g>
</g>
<g>
</g>
<g>
</g>
<g>
</g>
<g>
</g>
<g>
</g>
<g>
</g>
<g>
</g>
<g>
</g>
</svg>
