<?xml version="1.0" encoding="iso-8859-1"?>
<!-- Generator: Adobe Illustrator 19.0.0, SVG Export Plug-In . SVG Version: 6.00 Build 0)  -->
<svg version="1.1" id="Layer_1" xmlns="http://www.w3.org/2000/svg" xmlns:xlink="http://www.w3.org/1999/xlink" x="0px" y="0px"
	 viewBox="0 0 56.02 56.02" style="enable-background:new 0 0 56.02 56.02;" xml:space="preserve">
<g>
	<path style="fill:#EE8B26;" d="M8.32,35.15l-0.563-0.536c-0.431-0.41-0.996-0.615-1.562-0.615c-0.565,0-1.132,0.205-1.562,0.615
		C4.232,34.996,4.01,35.5,4.01,36.033c0,0.534,0.221,1.038,0.622,1.42l4.378,4.168l4.378-4.167c0.401-0.383,0.622-0.887,0.622-1.421
		c0-0.533-0.222-1.038-0.622-1.419c-0.864-0.821-2.265-0.819-3.125,0L9.7,35.15C9.313,35.517,8.707,35.517,8.32,35.15z"/>
	<polygon style="fill:#FFFFFF;" points="35.01,35.294 35.01,26.849 30.603,26.261 26.563,35.294 	"/>
	<path style="fill:#EE8B26;" d="M8.303,16.703l-0.751-0.751c-0.633-0.633-1.464-0.949-2.296-0.949c-0.831,0-1.662,0.316-2.295,0.949
		C2.348,16.565,2.01,17.38,2.01,18.246c0,0.867,0.338,1.682,0.951,2.294l6.049,6.047l6.049-6.046
		c0.613-0.613,0.951-1.428,0.951-2.295c0-0.866-0.338-1.681-0.951-2.294l0,0c-1.267-1.266-3.326-1.265-4.591,0l-0.751,0.751
		C9.326,17.092,8.694,17.092,8.303,16.703z"/>
	<polygon style="fill:#FFFFFF;" points="41.417,26.261 37.01,26.849 37.01,35.294 45.457,35.294 	"/>
	<polygon style="fill:#FFFFFF;" points="22.73,5.378 13.154,7.932 21.861,9.941 	"/>
	<polygon style="fill:#FFFFFF;" points="47.21,34.026 54.01,24.676 54.01,4.947 43.126,25.04 	"/>
	<polygon style="fill:#FFFFFF;" points="28.904,47.602 36.01,53.746 43.115,47.638 45.729,37.294 26.29,37.294 	"/>
	<path style="fill:#FFFFFF;" d="M24.046,36.243c-0.054-0.216-0.041-0.446,0.053-0.655l4.911-10.802V7.62l-4.265-2.133l-3.727,19.71
		l1.905,21.097h3.557l-2.439-9.904L24.046,36.243z"/>
	<g>
		<path d="M55.256,0.032c-0.446-0.115-0.907,0.09-1.125,0.493l-12.767,23.57l-5.354,0.893l-5-0.833V7.002
			c0-0.379-0.214-0.725-0.553-0.895l-6-3c-0.219-0.11-0.465-0.108-0.698-0.047l-0.007-0.025l-15,4.146
			C8.315,7.299,8.013,7.294,8.013,8.294H8.01v5.502c-2.021-1.249-4.71-1.01-6.463,0.741c-0.991,0.991-1.537,2.308-1.537,3.709
			s0.546,2.719,1.537,3.709l6.463,6.461v4.006c-1.55-0.717-3.47-0.482-4.757,0.743c-0.802,0.764-1.243,1.782-1.243,2.868
			s0.441,2.105,1.243,2.869l5.067,4.823c0.193,0.184,0.442,0.276,0.69,0.276s0.496-0.092,0.689-0.276l5.067-4.824
			c0.803-0.763,1.244-1.782,1.244-2.868s-0.441-2.104-1.243-2.868l0,0c-1.288-1.224-3.207-1.461-4.757-0.743v-4.006l6.463-6.461
			c0.991-0.99,1.537-2.307,1.537-3.709c0-1.401-0.546-2.718-1.537-3.708c-1.75-1.751-4.44-1.99-6.463-0.741V9.259l11.476,2.648
			l-2.458,12.907c-0.018,0.091-0.021,0.185-0.014,0.277l2,22.147c0.047,0.515,0.478,1.056,0.996,1.056h4.97l0.061,0.096
			c0.049,0.198,0.158,0.303,0.312,0.438l8,6.963c0.189,0.165,0.423,0.229,0.658,0.229s0.47-0.091,0.658-0.256l8-7.005
			c0.153-0.135,0.263-0.315,0.312-0.513l2.953-11.812L55.82,25.59c0.123-0.17,0.19-0.377,0.19-0.588v-24
			C56.01,0.544,55.699,0.145,55.256,0.032z M30.603,26.261l4.407,0.588v8.445h-8.447L30.603,26.261z M37.01,26.849l4.407-0.588
			l4.04,9.033H37.01V26.849z M13.388,34.614c0.4,0.382,0.622,0.886,0.622,1.419c0,0.534-0.221,1.038-0.622,1.42L9.01,41.621
			l-4.378-4.167c-0.401-0.383-0.622-0.887-0.622-1.421c0-0.533,0.222-1.038,0.622-1.419c0.431-0.41,0.997-0.615,1.562-0.615
			c0.566,0,1.132,0.205,1.562,0.615l0.563,0.536c0.387,0.367,0.992,0.367,1.379,0l0.563-0.536
			C11.123,33.794,12.524,33.793,13.388,34.614z M15.059,15.952L15.059,15.952c0.613,0.613,0.951,1.428,0.951,2.294
			c0,0.867-0.338,1.682-0.951,2.295L9.01,26.587L2.961,20.54c-0.613-0.612-0.951-1.427-0.951-2.294c0-0.866,0.338-1.681,0.951-2.294
			c0.633-0.632,1.464-0.949,2.295-0.949c0.832,0,1.663,0.316,2.296,0.949l0.751,0.751c0.391,0.39,1.023,0.39,1.414,0l0.751-0.751
			C11.733,14.687,13.792,14.686,15.059,15.952z M13.154,7.932l9.576-2.554l-0.869,4.563L13.154,7.932z M22.923,46.294l-1.904-21.097
			L24.746,5.56l4.264,2.06v17.166L24.1,35.588c-0.095,0.208-0.107,0.438-0.053,0.655l-0.006,0.148l2.439,9.903H22.923z
			 M43.115,47.602l-7.105,6.144l-7.106-6.107L26.29,37.294h19.439L43.115,47.602z M54.01,24.676l-6.8,9.35l-4.084-8.986L54.01,4.947
			V24.676z"/>
		<rect x="4.01" y="50.002" width="2" height="2"/>
		<rect x="8.01" y="50.002" width="2" height="2"/>
		<rect x="12.01" y="50.002" width="2" height="2"/>
	</g>
</g>
<g>
</g>
<g>
</g>
<g>
</g>
<g>
</g>
<g>
</g>
<g>
</g>
<g>
</g>
<g>
</g>
<g>
</g>
<g>
</g>
<g>
</g>
<g>
</g>
<g>
</g>
<g>
</g>
<g>
</g>
</svg>
