<?xml version="1.0" encoding="iso-8859-1"?>
<!-- Generator: Adobe Illustrator 19.0.0, SVG Export Plug-In . SVG Version: 6.00 Build 0)  -->
<svg version="1.1" id="Layer_1" xmlns="http://www.w3.org/2000/svg" xmlns:xlink="http://www.w3.org/1999/xlink" x="0px" y="0px"
	 viewBox="0 0 56 56" style="enable-background:new 0 0 56 56;" xml:space="preserve">
<g>
	<circle style="fill:#F8CF26;" cx="5" cy="49.708" r="3"/>
	<path style="fill:#66CEDB;" d="M13,24h30c1.654,0,3-2,3-3H10C10,22,11.346,24,13,24z"/>
	<circle style="fill:#F8CF26;" cx="5" cy="36.708" r="3"/>
	<circle style="fill:#F8CF26;" cx="25" cy="7.708" r="3"/>
	<path style="fill:#FFFFFF;" d="M43,2H13c-1.654,0-3,1.053-3,2.708V19h6c0-3,2.243-5,5-5h8c2.757,0,5,2,5,5h12V4.708
		C46,3.053,44.654,2,43,2z M25,12.708c-2.757,0-5-2.243-5-5s2.243-5,5-5s5,2.243,5,5S27.757,12.708,25,12.708z M44,8.708
		C44,10.362,42.654,12,41,12h-0.586l-3.707,3.561c-0.191,0.191-0.447,0.22-0.707,0.22c-0.129,0-0.259-0.061-0.383-0.113
		C35.243,15.514,35,15.112,35,14.708v-3c-1.654,0-3-1.346-3-3v-2C32,5.053,33.346,4,35,4h6c1.654,0,3,1.053,3,2.708V8.708z"/>
	<path style="fill:#EE8B26;" d="M41,6h-6c-0.552,0-1,0.156-1,0.708v2C34,9.259,34.448,10,35,10h1c0.553,0,1,0.155,1,0.708v1.586
		l2.293-2.147C39.48,9.959,39.734,10,40,10h1c0.552,0,1-0.741,1-1.292v-2C42,6.156,41.552,6,41,6z"/>
	<path style="fill:#F8CF26;" d="M29,16h-8c-1.654,0-3,1-3,3h14C32,17,30.654,16,29,16z"/>
	<circle style="fill:#F8CF26;" cx="51" cy="49.708" r="3"/>
	<circle style="fill:#F8CF26;" cx="51" cy="36.708" r="3"/>
	<g>
		<path d="M43,29H13c-0.553,0-1,0.155-1,0.708V56h2V31h28v25h2V29.708C44,29.155,43.553,29,43,29z"/>
		<path d="M46,36.708c0,2.757,2.243,5,5,5s5-2.243,5-5s-2.243-5-5-5S46,33.951,46,36.708z M54,36.708c0,1.654-1.346,3-3,3
			s-3-1.346-3-3s1.346-3,3-3S54,35.053,54,36.708z"/>
		<path d="M5,31.708c-2.757,0-5,2.243-5,5s2.243,5,5,5s5-2.243,5-5S7.757,31.708,5,31.708z M5,39.708c-1.654,0-3-1.346-3-3
			s1.346-3,3-3s3,1.346,3,3S6.654,39.708,5,39.708z"/>
		<path d="M25,12.708c2.757,0,5-2.243,5-5s-2.243-5-5-5s-5,2.243-5,5S22.243,12.708,25,12.708z M25,4.708c1.654,0,3,1.346,3,3
			s-1.346,3-3,3s-3-1.346-3-3S23.346,4.708,25,4.708z"/>
		<path d="M51,44.708c-2.757,0-5,2.243-5,5s2.243,5,5,5s5-2.243,5-5S53.757,44.708,51,44.708z M51,52.708c-1.654,0-3-1.346-3-3
			s1.346-3,3-3s3,1.346,3,3S52.654,52.708,51,52.708z"/>
		<path d="M5,44.708c-2.757,0-5,2.243-5,5s2.243,5,5,5s5-2.243,5-5S7.757,44.708,5,44.708z M5,52.708c-1.654,0-3-1.346-3-3
			s1.346-3,3-3s3,1.346,3,3S6.654,52.708,5,52.708z"/>
		<path d="M21.99,35.712c-0.058-0.402-0.353-0.803-0.748-0.901l-4-1.037l-0.484,1.921l3.348,0.974L20.847,42H20v2h4v-2h-1.132
			L21.99,35.712z"/>
		<path d="M21.99,47.712c-0.058-0.402-0.353-0.803-0.748-0.901l-4-1.037l-0.484,1.921l3.348,0.974L20.847,54H20v2h4v-2h-1.132
			L21.99,47.712z"/>
		<path d="M34.758,34.738c-0.394,0.099-0.69,0.572-0.748,0.974L33.132,42H32v2h4v-2h-0.847l0.741-5.34l3.348-0.91l-0.484-1.976
			L34.758,34.738z"/>
		<path d="M39.242,47.677l-0.484-1.939l-4,1c-0.394,0.099-0.69,0.572-0.748,0.974L33.132,54H32v2h4v-2h-0.847l0.741-5.34
			L39.242,47.677z"/>
		<path d="M48,5c0-2.761-2.239-5-5-5H13c-2.761,0-5,2.239-5,5v16c0,2.761,2.239,5,5,5h30c2.761,0,5-2.239,5-5V5z M43,24H13
			c-1.654,0-3-2-3-3h36C46,22,44.654,24,43,24z M18,19c0-2,1.346-3,3-3h8c1.654,0,3,1,3,3H18z M13,2h30c1.654,0,3,1.053,3,2.708V19
			H34c0-3-2.243-5-5-5h-8c-2.757,0-5,2-5,5h-6V4.708C10,3.053,11.346,2,13,2z"/>
		<path d="M35,11.708v3c0,0.404,0.243,0.769,0.617,0.924c0.124,0.052,0.254,0.076,0.383,0.076c0.26,0,0.516,0.045,0.707-0.147
			L40.414,12H41c1.654,0,3-1.638,3-3.292v-2C44,5.053,42.654,4,41,4h-6c-1.654,0-3,1.053-3,2.708v2
			C32,10.362,33.346,11.708,35,11.708z M34,6.708C34,6.156,34.448,6,35,6h6c0.552,0,1,0.156,1,0.708v2C42,9.259,41.552,10,41,10h-1
			c-0.266,0-0.52-0.041-0.707,0.147L37,12.293v-1.586C37,10.155,36.553,10,36,10h-1c-0.552,0-1-0.741-1-1.292V6.708z"/>
		<rect x="4" y="15.708" width="2" height="2"/>
		<rect x="4" y="11.708" width="2" height="2"/>
		<rect x="4" y="7.708" width="2" height="2"/>
		<rect x="50" y="15.708" width="2" height="2"/>
		<rect x="50" y="11.708" width="2" height="2"/>
		<rect x="50" y="7.708" width="2" height="2"/>
	</g>
</g>
<g>
</g>
<g>
</g>
<g>
</g>
<g>
</g>
<g>
</g>
<g>
</g>
<g>
</g>
<g>
</g>
<g>
</g>
<g>
</g>
<g>
</g>
<g>
</g>
<g>
</g>
<g>
</g>
<g>
</g>
</svg>
