<?xml version="1.0" encoding="iso-8859-1"?>
<!-- Generator: Adobe Illustrator 19.0.0, SVG Export Plug-In . SVG Version: 6.00 Build 0)  -->
<svg version="1.1" id="Layer_1" xmlns="http://www.w3.org/2000/svg" xmlns:xlink="http://www.w3.org/1999/xlink" x="0px" y="0px"
	 viewBox="0 0 56.292 56.292" style="enable-background:new 0 0 56.292 56.292;" xml:space="preserve">
<g>
	<path style="fill:#EE8B26;" d="M10.146,22.292c0.551,0,1-0.741,1-1.292v-2c0-0.552-0.449-0.708-1-0.708h-1c-0.552,0-1-0.74-1-1.292
		v-1.586l-2.293,2.439c-0.188,0.187-0.442,0.439-0.707,0.439h-2c-0.551,0-1,0.156-1,0.708v2c0,0.551,0.449,1.292,1,1.292
		C3.146,22.292,10.146,22.292,10.146,22.292z"/>
	<circle style="fill:#F8CF26;" cx="29.146" cy="6" r="4"/>
	<path style="fill:#F8CF26;" d="M24.146,20v7.292h4v-7h-1v-2h4v2h-1v7h4v-7h2v7h2V19c0-1.655-1.346-2.708-3-2.708h-10
		c-0.197,0-0.391-0.205-0.555-0.314l-6-4.073c-0.174-0.116-0.308-0.321-0.382-0.517l-2.686-7.183l-2.118,0.52l2.604,8.677l7.737,5.8
		C23.998,19.39,24.146,19.685,24.146,20z"/>
	<circle style="fill:#F8CF26;" cx="47.146" cy="45" r="3"/>
	<circle style="fill:#F8CF26;" cx="29.146" cy="45" r="3"/>
	<path style="fill:#EE8B26;" d="M53.146,2.292h-13c-0.551,0-1,0.156-1,0.707v4c0,0.552,0.449,1.293,1,1.293h1
		c0.552,0,1,0.155,1,0.708v1.586l2.293-2.147c0.187-0.188,0.442-0.147,0.707-0.147h8c0.551,0,1-0.741,1-1.292V3
		C54.146,2.448,53.697,2.292,53.146,2.292z M52.146,6.292h-11v-2h11V6.292z"/>
	<circle style="fill:#F8CF26;" cx="11.146" cy="45" r="3"/>
	<g>
		<path d="M29.146,12c3.309,0,6-2.691,6-6s-2.691-6-6-6s-6,2.691-6,6S25.837,12,29.146,12z M29.146,1.999c2.206,0,4,1.794,4,4
			s-1.794,4-4,4s-4-1.794-4-4S26.94,1.999,29.146,1.999z"/>
		<path d="M24.146,45c0,2.757,2.243,5,5,5s5-2.243,5-5s-2.243-5-5-5S24.146,42.243,24.146,45z M32.146,45c0,1.654-1.346,3-3,3
			s-3-1.346-3-3s1.346-3,3-3S32.146,43.345,32.146,45z"/>
		<path d="M14.188,14.287c0.061,0.205,0.187,0.385,0.358,0.513l7.6,5.7v6.792h-5.82l0.753-4.666l1.773-1.847l-1.414-1.451l-2,1.982
			c-0.148,0.147-0.245,0.474-0.279,0.68l-0.86,5.302h-2.153v2h2v8h2v-8h26v8h2v-8h2v-2h-6V19c0-2.757-2.243-4.708-5-4.708h-9.697
			l-5.479-3.8l-2.887-7.771c-0.179-0.476-0.688-0.78-1.179-0.655l-4,0.982c-0.265,0.065-0.491,0.228-0.626,0.466
			c-0.135,0.237-0.167,0.515-0.089,0.777L14.188,14.287z M15.523,4.186l2.686,7.165c0.074,0.196,0.208,0.364,0.382,0.48l6,4.146
			c0.164,0.11,0.358,0.315,0.555,0.315h10c1.654,0,3,1.053,3,2.708v8.292h-2v-7h-2v7h-4v-7h1v-2h-4v2h1v7h-4V20
			c0-0.315-0.148-0.611-0.4-0.8l-7.737-5.803l-2.604-8.682L15.523,4.186z"/>
		<path d="M53.146,0.292h-13c-1.654,0-3,1.053-3,2.707v4c0,1.654,1.346,3,3,3v3c0,0.404,0.244,0.769,0.617,0.924
			c0.124,0.052,0.254,0.076,0.383,0.076c0.26,0,0.516,0.045,0.707-0.147l3.707-3.56h7.586c1.654,0,3-1.638,3-3.292V3
			C56.146,1.345,54.8,0.292,53.146,0.292z M54.146,7c0,0.551-0.449,1.292-1,1.292h-8c-0.265,0-0.52-0.041-0.707,0.147l-2.293,2.146
			V8.999c0-0.552-0.448-0.707-1-0.707h-1c-0.551,0-1-0.741-1-1.292V3c0-0.552,0.449-0.708,1-0.708h13c0.551,0,1,0.156,1,0.707V7z"/>
		<path d="M10.146,24.292c1.654,0,3-1.638,3-3.292v-2c0-1.654-1.346-3-3-3v-3c0-0.404-0.244-0.77-0.617-0.924
			c-0.376-0.157-0.805,0.077-1.09,0.363l-3.707,3.853H3.146c-1.654,0-3,1.053-3,2.708v2c0,1.654,1.346,3.292,3,3.292H10.146z
			 M2.146,21v-2c0-0.552,0.449-0.708,1-0.708h2c0.265,0,0.519-0.252,0.707-0.439l2.293-2.439V17c0,0.552,0.448,1.292,1,1.292h1
			c0.551,0,1,0.156,1,0.708v2c0,0.551-0.449,1.292-1,1.292h-7C2.595,22.292,2.146,21.551,2.146,21z"/>
		<rect x="41.146" y="4.292" width="11" height="2"/>
		<path d="M34.146,52.292h-10c-1.654,0-3,1.053-3,2.708v1.292h2V55c0-0.552,0.449-0.708,1-0.708h10c0.551,0,1,0.156,1,0.708v1.292h2
			V55C37.146,53.345,35.8,52.292,34.146,52.292z"/>
		<path d="M42.146,45c0,2.757,2.243,5,5,5s5-2.243,5-5s-2.243-5-5-5S42.146,42.243,42.146,45z M47.146,42c1.654,0,3,1.346,3,3
			s-1.346,3-3,3s-3-1.346-3-3S45.492,42,47.146,42z"/>
		<path d="M52.146,52.292h-10c-1.654,0-3,1.053-3,2.708v1.292h2V55c0-0.552,0.449-0.708,1-0.708h10c0.551,0,1,0.156,1,0.708v1.292h2
			V55C55.146,53.345,53.8,52.292,52.146,52.292z"/>
		<path d="M6.146,45c0,2.757,2.243,5,5,5s5-2.243,5-5s-2.243-5-5-5S6.146,42.243,6.146,45z M14.146,45c0,1.654-1.346,3-3,3
			s-3-1.346-3-3s1.346-3,3-3S14.146,43.345,14.146,45z"/>
		<path d="M16.146,52.292h-10c-1.654,0-3,1.053-3,2.708v1.292h2V55c0-0.552,0.449-0.708,1-0.708h10c0.551,0,1,0.156,1,0.708v1.292h2
			V55C19.146,53.345,17.8,52.292,16.146,52.292z"/>
		<rect x="38.146" y="31" width="2" height="2"/>
		<rect x="34.146" y="31" width="2" height="2"/>
		<rect x="30.146" y="31" width="2" height="2"/>
	</g>
</g>
<g>
</g>
<g>
</g>
<g>
</g>
<g>
</g>
<g>
</g>
<g>
</g>
<g>
</g>
<g>
</g>
<g>
</g>
<g>
</g>
<g>
</g>
<g>
</g>
<g>
</g>
<g>
</g>
<g>
</g>
</svg>
