<?xml version="1.0" encoding="iso-8859-1"?>
<!-- Generator: Adobe Illustrator 19.0.0, SVG Export Plug-In . SVG Version: 6.00 Build 0)  -->
<svg version="1.1" id="Layer_1" xmlns="http://www.w3.org/2000/svg" xmlns:xlink="http://www.w3.org/1999/xlink" x="0px" y="0px"
	 viewBox="0 0 56.001 56.001" style="enable-background:new 0 0 56.001 56.001;" xml:space="preserve">
<g>
	<path style="fill:#F8CF26;" d="M17.381,30.045l1.187,0.96c0.342,0.276,0.463,0.743,0.299,1.15l-1.36,3.38l3.637-0.25
		c0.486-0.018,0.921,0.285,1.039,0.756l0.883,3.532l2.32-1.943C24.766,33.602,21.477,30.445,17.381,30.045z"/>
	<path style="fill:#66CEDB;" d="M41.359,35.851c6.352-0.91,11.142-6.435,11.142-12.85c0-3.588-1.43-6.928-4.026-9.405
		c-2.594-2.477-5.998-3.744-9.599-3.58c-6.419,0.3-11.838,5.547-12.335,11.945c-0.53,6.821,4.347,12.923,11.102,13.891
		c0.492,0.07,0.858,0.492,0.858,0.989V46c0,0.553-0.448,1.293-1,1.293h-3c-0.551,0-1,0.448-1,1s0.449,1,1,1h3
		c0.552,0,1,0.155,1,0.708v3c0,0.552,0.449,1,1,1s1-0.448,1-1v-3c0-0.553,0.448-0.708,1-0.708h3c0.551,0,1-0.448,1-1s-0.449-1-1-1
		h-3c-0.552,0-1-0.74-1-1.292v-9.159C40.501,36.344,40.867,35.922,41.359,35.851z M39.501,34.001c-6.065,0-11-4.935-11-11
		s4.935-11,11-11s11,4.935,11,11S45.566,34.001,39.501,34.001z"/>
	<path style="fill:#F8CF26;" d="M31.405,37.401l1.096,0.731v-1.888c-0.51-0.271-0.996-0.576-1.467-0.901
		C31.205,36.014,31.329,36.701,31.405,37.401z"/>
	<path style="fill:#EE8B26;" d="M18.359,26.15c-0.492-0.071-0.858-0.493-0.858-0.99V9.001c0-0.404,0.244-0.77,0.617-0.924
		c0.373-0.157,0.803-0.07,1.09,0.217l4.379,4.379c0.212,0.212,0.493,0.328,0.793,0.328c0.618,0,1.121-0.503,1.121-1.121
		c0-0.295-0.12-0.584-0.328-0.793l-8.672-8.672l-8.672,8.672c-0.208,0.208-0.328,0.498-0.328,0.792C7.501,12.497,8.004,13,8.622,13
		c0.3,0,0.581-0.116,0.793-0.328l4.379-4.379C13.985,8.102,14.241,8,14.501,8c0.129,0,0.259,0.024,0.383,0.076
		c0.373,0.155,0.617,0.52,0.617,0.925V25.16c0,0.497-0.366,0.919-0.858,0.99C8.291,27.06,3.501,32.585,3.501,39.001
		c0,7.168,5.831,13,13,13c7.168,0,13-5.832,13-13C29.501,32.585,24.711,27.06,18.359,26.15z M16.501,50.001c-6.065,0-11-4.935-11-11
		s4.935-11,11-11s11,4.935,11,11S22.566,50.001,16.501,50.001z"/>
	<path style="fill:#F8CF26;" d="M34.532,27.066c-0.41-0.258-0.577-0.771-0.396-1.221l1.36-3.38l-3.637,0.25
		c-0.475,0.02-0.921-0.285-1.039-0.756l-0.157-0.629c-0.103,0.542-0.162,1.099-0.162,1.671c0,3.275,1.764,6.138,4.385,7.712
		l2.732-1.712L34.532,27.066z"/>
	<path style="fill:#F8CF26;" d="M19.501,24.319c2.009,0.41,3.859,1.233,5.482,2.355c-0.398-1.554-0.566-3.189-0.436-4.868
		c0.05-0.644,0.158-1.273,0.291-1.894l-1.773-1.485l-0.883,3.532c-0.112,0.448-0.514,0.758-0.97,0.758
		c-0.023,0-0.046-0.001-0.069-0.002l-1.642-0.113V24.319z"/>
	<g>
		<path d="M16.501,28.001c-6.065,0-11,4.935-11,11s4.935,11,11,11s11-4.935,11-11S22.566,28.001,16.501,28.001z M25.385,37.631
			l-2.32,1.943l-0.883-3.532c-0.117-0.471-0.552-0.773-1.039-0.756l-3.637,0.25l1.36-3.38c0.164-0.407,0.043-0.874-0.299-1.15
			l-1.187-0.96C21.477,30.445,24.766,33.602,25.385,37.631z M16.501,48.001c-4.962,0-9-4.037-9-9c0-4.256,2.973-7.823,6.949-8.755
			l2.285,1.85l-1.679,4.175c-0.128,0.319-0.083,0.683,0.119,0.961c0.203,0.278,0.532,0.425,0.878,0.41l4.392-0.303l1.068,4.271
			c0.083,0.335,0.333,0.603,0.661,0.709c0.101,0.033,0.206,0.049,0.309,0.049c0.232,0,0.46-0.08,0.642-0.233l2.283-1.913
			C24.81,44.607,21.049,48.001,16.501,48.001z"/>
		<path d="M50.501,23.001c0-6.065-4.935-11-11-11s-11,4.935-11,11s4.935,11,11,11S50.501,29.066,50.501,23.001z M30.501,23.001
			c0-0.571,0.059-1.128,0.161-1.67l0.157,0.629c0.118,0.471,0.564,0.775,1.039,0.756l3.637-0.25l-1.36,3.38
			c-0.181,0.449-0.014,0.963,0.396,1.221l3.086,1.935l-2.732,1.712C32.265,29.138,30.501,26.275,30.501,23.001z M39.501,32.001
			c-0.824,0-1.619-0.121-2.377-0.329l2.909-1.823c0.291-0.184,0.468-0.504,0.468-0.848s-0.177-0.664-0.469-0.848l-3.729-2.338
			l1.643-4.084c0.128-0.319,0.083-0.683-0.119-0.961s-0.529-0.425-0.877-0.41l-4.393,0.303l-0.627-2.509
			c1.602-2.494,4.394-4.153,7.571-4.153c4.962,0,9,4.037,9,9S44.463,32.001,39.501,32.001z"/>
		<path d="M54.501,23.001c0-4.14-1.649-7.993-4.645-10.853c-2.994-2.856-6.929-4.31-11.073-4.131
			c-6.016,0.281-11.269,4.328-13.339,9.793l-2.319-1.943c-0.264-0.221-0.624-0.291-0.951-0.184
			c-0.328,0.106-0.578,0.374-0.661,0.709l-1.068,4.271l-0.944-0.066v-9.183l2.672,2.672C22.762,14.676,23.546,15,24.38,15
			c1.721,0,3.121-1.4,3.121-3.121c0-0.822-0.333-1.626-0.914-2.207l-9.379-9.379c-0.391-0.391-1.023-0.391-1.414,0L6.415,9.672
			c-0.581,0.581-0.914,1.385-0.914,2.207C5.501,13.6,6.901,15,8.622,15c0.834,0,1.618-0.324,2.207-0.914l2.672-2.671v12.904
			c-6.899,1.406-12,7.57-12,14.682c0,8.271,6.729,15,15,15c7.987,0,14.518-6.28,14.957-14.16l1.488,0.992
			c0.167,0.111,0.361,0.168,0.555,0.168c0.162,0,0.324-0.039,0.472-0.118c0.325-0.174,0.528-0.513,0.528-0.882v-2.888
			c0.648,0.23,1.311,0.431,2,0.571v7.609h-2c-1.654,0-3,1.346-3,3s1.346,3,3,3h2v1.708c0,1.654,1.346,3,3,3s3-1.346,3-3v-1.708h2
			c1.654,0,3-1.346,3-3s-1.346-3-3-3h-2v-7.611C49.4,36.276,54.501,30.112,54.501,23.001z M21.143,22.715
			c0.023,0.001,0.046,0.002,0.069,0.002c0.456,0,0.858-0.31,0.97-0.758l0.883-3.532l1.773,1.485
			c-0.133,0.621-0.241,1.25-0.291,1.894c-0.13,1.679,0.038,3.314,0.436,4.868c-1.623-1.123-3.473-1.946-5.482-2.355v-1.716
			L21.143,22.715z M16.501,52.001c-7.169,0-13-5.832-13-13c0-6.415,4.79-11.94,11.142-12.851c0.492-0.071,0.858-0.493,0.858-0.99
			V9.001c0-0.404-0.244-0.77-0.617-0.924c-0.124-0.052-0.254-0.076-0.383-0.076c-0.26,0-0.516,0.102-0.707,0.293l-4.379,4.379
			c-0.212,0.212-0.493,0.328-0.793,0.328c-0.618,0-1.121-0.503-1.121-1.121c0-0.295,0.12-0.584,0.328-0.793l8.672-8.672l8.672,8.672
			c0.208,0.208,0.328,0.498,0.328,0.792c0,0.618-0.503,1.121-1.121,1.121c-0.3,0-0.581-0.116-0.793-0.328l-4.379-4.379
			c-0.287-0.287-0.716-0.374-1.09-0.217c-0.373,0.155-0.617,0.52-0.617,0.925V25.16c0,0.497,0.366,0.919,0.858,0.99
			c6.352,0.91,11.142,6.435,11.142,12.851C29.501,46.168,23.669,52.001,16.501,52.001z M32.501,38.132l-1.096-0.731
			c-0.076-0.7-0.2-1.387-0.371-2.058c0.472,0.325,0.957,0.63,1.467,0.901V38.132z M41.501,47.293h3c0.551,0,1,0.448,1,1
			s-0.449,1-1,1h-3c-0.552,0-1,0.155-1,0.708v3c0,0.552-0.449,1-1,1s-1-0.448-1-1v-3c0-0.553-0.448-0.708-1-0.708h-3
			c-0.551,0-1-0.448-1-1s0.449-1,1-1h3c0.552,0,1-0.74,1-1.292v-9.159c0-0.497-0.366-0.919-0.858-0.99
			c-6.755-0.968-11.631-7.069-11.102-13.891c0.497-6.399,5.915-11.645,12.335-11.945c3.601-0.164,7.005,1.104,9.599,3.58
			c2.596,2.477,4.026,5.817,4.026,9.405c0,6.415-4.79,11.94-11.142,12.851c-0.492,0.07-0.858,0.492-0.858,0.989V46
			C40.501,46.553,40.949,47.293,41.501,47.293z"/>
	</g>
</g>
<g>
</g>
<g>
</g>
<g>
</g>
<g>
</g>
<g>
</g>
<g>
</g>
<g>
</g>
<g>
</g>
<g>
</g>
<g>
</g>
<g>
</g>
<g>
</g>
<g>
</g>
<g>
</g>
<g>
</g>
</svg>
