<?xml version="1.0" encoding="iso-8859-1"?>
<!-- Generator: Adobe Illustrator 19.0.0, SVG Export Plug-In . SVG Version: 6.00 Build 0)  -->
<svg version="1.1" id="Layer_1" xmlns="http://www.w3.org/2000/svg" xmlns:xlink="http://www.w3.org/1999/xlink" x="0px" y="0px"
	 viewBox="0 0 56 56" style="enable-background:new 0 0 56 56;" xml:space="preserve">
<g>
	<path style="fill:#F8CF26;" d="M39,27.293h-1v6h1c0.552,0,1-0.741,1-1.292v-4C40,27.449,39.552,27.293,39,27.293z"/>
	<path style="fill:#FFFFFF;" d="M29,46.95v7.025c6.415-0.244,12.241-2.821,16.652-6.908l-4.964-4.964
		C37.553,44.926,33.484,46.715,29,46.95z"/>
	<path style="fill:#FFFFFF;" d="M42.102,15.459c2.824,3.135,4.612,6.834,4.847,11.834h7.025c-0.244-7-2.821-12.314-6.908-16.726
		L42.102,15.459z"/>
	<path style="fill:#EE8B26;" d="M45.652,8.934C41.241,4.847,35.415,2.27,29,2.026v7.025c4.484,0.235,8.553,2.024,11.688,4.847
		L45.652,8.934z"/>
	<path style="fill:#FFFFFF;" d="M27,9.051V2.026C20.585,2.27,14.759,4.847,10.347,8.934l4.965,4.964
		C18.447,11.075,22.516,9.286,27,9.051z"/>
	<path style="fill:#F8CF26;" d="M35,26.001c-0.552,0-1,0.448-1,1v6c0,0.552,0.448,1,1,1s1-0.448,1-1v-6
		C36,26.449,35.552,26.001,35,26.001z"/>
	<path style="fill:#F8CF26;" d="M21,26.001c-0.552,0-1,0.448-1,1v6c0,0.552,0.448,1,1,1s1-0.448,1-1v-6
		C22,26.449,21.552,26.001,21,26.001z"/>
	<path style="fill:#EE8B26;" d="M42.102,40.835l4.964,5.038c4.088-4.412,6.664-10.58,6.909-16.58H46.95
		C46.714,33.293,44.926,37.7,42.102,40.835z"/>
	<path style="fill:#FFFFFF;" d="M9.051,29.293H2.025c0.244,6,2.821,12.095,6.908,16.506l4.964-4.891
		C11.074,37.773,9.286,33.293,9.051,29.293z"/>
	<path style="fill:#F8CF26;" d="M16,28.001v4c0,0.551,0.448,1.292,1,1.292h1v-6h-1C16.448,27.293,16,27.449,16,28.001z"/>
	<path style="fill:#EE8B26;" d="M13.898,15.459l-4.964-4.891c-4.088,4.411-6.665,9.725-6.909,16.725H9.05
		C9.286,22.293,11.074,18.594,13.898,15.459z"/>
	<path style="fill:#EE8B26;" d="M10.347,47.067c4.412,4.087,10.237,6.664,16.653,6.908V46.95c-4.484-0.235-8.553-2.023-11.688-4.847
		L10.347,47.067z"/>
	<g>
		<path d="M28,0C12.56,0,0,12.56,0,28s12.56,28,28,28c15.439,0,28-12.561,28-28S43.439,0,28,0z M53.975,27.293H46.95
			c-0.235-5-2.024-8.699-4.847-11.834l4.964-4.891C51.154,14.979,53.73,20.293,53.975,27.293z M15.312,42.103
			c3.135,2.824,7.204,4.612,11.688,4.847v7.025c-6.415-0.244-12.241-2.821-16.653-6.908L15.312,42.103z M29,46.95
			c4.484-0.235,8.553-2.023,11.688-4.847l4.964,4.964C41.241,51.154,35.415,53.731,29,53.975V46.95z M28,45.001
			c-9.374,0-17-7.626-17-17s7.626-17,17-17s17,7.626,17,17S37.374,45.001,28,45.001z M40.688,13.898
			C37.553,11.074,33.484,9.286,29,9.051V2.026c6.415,0.244,12.241,2.821,16.652,6.908L40.688,13.898z M27,9.051
			c-4.484,0.235-8.553,2.024-11.688,4.847l-4.965-4.964C14.759,4.847,20.585,2.27,27,2.026V9.051L27,9.051z M8.933,10.494
			l4.964,5.038c-2.823,3.135-4.611,6.761-4.846,11.761H2.025C2.269,20.293,4.846,14.906,8.933,10.494z M2.025,29.293H9.05
			c0.235,4,2.023,8.407,4.847,11.542l-4.964,5.038C4.846,41.461,2.269,35.293,2.025,29.293z M47.066,45.799l-4.964-4.891
			c2.824-3.135,4.612-7.615,4.847-11.615h7.025C53.73,35.293,51.154,41.388,47.066,45.799z"/>
		<path d="M39,25.293h-1.78c-0.33-1-0.746-0.939-1.22-1.108v-0.184c0-4.411-3.589-8-8-8s-8,3.589-8,8v0.184
			c-0.474,0.169-0.89,0.108-1.22,1.108H17c-1.654,0-3,1.053-3,2.708v4c0,1.654,1.346,3.292,3,3.292h1.78
			c0.35,0,0.797,0.678,1.305,0.842c0.403,2.355,2.447,4.158,4.915,4.158h5v-2h-5c-1.383,0-2.539-1.092-2.884-2.367
			C23.218,35.482,24,34.26,24,33.001v-6c0-1.302-0.839-2.402-2-2.816v-0.184c0-3.309,2.691-6,6-6s6,2.691,6,6v0.184
			c-1.162,0.414-2,1.514-2,2.816v6c0,1.654,1.346,3.146,3,3.146c0.883,0,1.67-0.854,2.22-0.854H39c1.654,0,3-1.638,3-3.292v-4
			C42,26.346,40.654,25.293,39,25.293z M21,34.001c-0.552,0-1-0.448-1-1v-6c0-0.552,0.448-1,1-1s1,0.448,1,1v6
			C22,33.552,21.552,34.001,21,34.001z M17,33.293c-0.552,0-1-0.741-1-1.292v-4c0-0.552,0.448-0.708,1-0.708h1v6H17z M35,34.001
			c-0.552,0-1-0.448-1-1v-6c0-0.552,0.448-1,1-1s1,0.448,1,1v6C36,33.552,35.552,34.001,35,34.001z M40,32.001
			c0,0.551-0.448,1.292-1,1.292h-1v-6h1c0.552,0,1,0.156,1,0.708V32.001z"/>
		<rect x="27" y="21.001" width="2" height="2"/>
		<rect x="27" y="25.001" width="2" height="2"/>
		<rect x="27" y="29.001" width="2" height="2"/>
	</g>
</g>
<g>
</g>
<g>
</g>
<g>
</g>
<g>
</g>
<g>
</g>
<g>
</g>
<g>
</g>
<g>
</g>
<g>
</g>
<g>
</g>
<g>
</g>
<g>
</g>
<g>
</g>
<g>
</g>
<g>
</g>
</svg>
