<?xml version="1.0" encoding="iso-8859-1"?>
<!-- Generator: Adobe Illustrator 19.0.0, SVG Export Plug-In . SVG Version: 6.00 Build 0)  -->
<svg version="1.1" id="Layer_1" xmlns="http://www.w3.org/2000/svg" xmlns:xlink="http://www.w3.org/1999/xlink" x="0px" y="0px"
	 viewBox="0 0 64 64" style="enable-background:new 0 0 64 64;" xml:space="preserve">
<g>
	<path style="fill:#EE8B26;" d="M36,31.427v-1.708h-2v2.708c0,0.552-0.447,1-1,1c-1.103,0-2,0.897-2,2s0.897,2,2,2
		c0.553,0,1,0.448,1,1v3.292h2h2h2v-2.292v-5.184c-0.314,0.112-0.648,0.184-1,0.184C37.346,34.427,36,33.081,36,31.427z"/>
	<path style="fill:#66CEDB;" d="M29,35.427c0-1.86,1.276-3.428,3-3.874v-1.834h-4v1.708c0,1.654-1.346,3-3,3
		c-0.352,0-0.686-0.072-1-0.184v5.184v2.292h2h2h4V39.3C30.276,38.855,29,37.287,29,35.427z"/>
	<g>
		<path d="M43,24.427c2.757,0,5,2.389,5,5.146c0,0.552,0.447,1.146,1,1.146h4h4h4h3v-2h-2V18.427c0-1.654-1.346-3-3-3
			c-0.771,0-1.468,0.3-2,0.78c-0.532-0.48-1.229-0.78-2-0.78s-1.468,0.3-2,0.78c-0.532-0.48-1.229-0.78-2-0.78c-1.654,0-3,1.346-3,3
			v6.109c-1.272-1.3-3.042-1.963-5-1.963c-3.164,0-5.842,2.146-6.705,5.146H33h-5.295c-0.863-3-3.541-5.146-6.705-5.146
			c-1.915,0-3.708,0.716-5,2.06v-6.206c0-1.654-1.346-3-3-3c-0.771,0-1.468,0.3-2,0.78c-0.532-0.48-1.229-0.78-2-0.78
			s-1.468,0.3-2,0.78c-0.532-0.48-1.229-0.78-2-0.78c-1.654,0-3,1.346-3,3v10.292H0v2h3h4h4h4c0.553,0,1-0.594,1-1.146
			c0-2.36,2.139-5.073,5-5.073c2.757,0,5,2.17,5,4.927v2c0,0.551-0.448,1-1,1s-1-0.449-1-1v-2c0-1.654-1.346-3-3-3s-3,1.346-3,3v12
			c0,1.654,1.346,3.146,3,3.146c0.883,0,1.67-0.854,2.22-0.854h2.357c-0.774,1-2.531,2.854-4.576,2.854
			c-2.508,0-4.532-1.636-4.923-4.085c-0.078-0.485-0.497-0.769-0.988-0.769H0v2h14.288c0.844,2,3.494,5,6.712,5
			c3.164,0,5.842-3,6.705-5H33h3.295c0.863,2,3.541,5,6.705,5c3.137,0,5.833-3,6.703-5H64v-2H48.91
			c-0.488,0-0.904,0.206-0.986,0.687c-0.407,2.414-2.479,4.24-4.924,4.24c-2.045,0-3.802-1.927-4.576-2.927h2.356
			c0.549,0,1.336,0.854,2.22,0.854c1.654,0,3-1.492,3-3.146v-12c0-1.654-1.346-3-3-3s-3,1.346-3,3v2c0,0.551-0.448,1-1,1
			s-1-0.449-1-1v-2C38,26.67,40.243,24.427,43,24.427z M59,17.427c0.552,0,1,0.449,1,1v10.292h-2V18.427
			C58,17.875,58.448,17.427,59,17.427z M55,17.427c0.552,0,1,0.449,1,1v10.292h-2V18.427C54,17.875,54.448,17.427,55,17.427z
			 M50,18.427c0-0.551,0.448-1,1-1s1,0.449,1,1v10.292h-2V18.427z M4,18.427c0-0.551,0.448-1,1-1s1,0.449,1,1v10.292H4V18.427z
			 M8,18.427c0-0.551,0.448-1,1-1s1,0.449,1,1v10.292H8V18.427z M12,28.719V18.427c0-0.551,0.448-1,1-1s1,0.449,1,1v10.292H12z
			 M21,42.427c-0.552,0-1-0.449-1-1v-12c0-0.551,0.448-1,1-1s1,0.449,1,1v2v8v2C22,41.978,21.552,42.427,21,42.427z M26,41.719h-2
			v-2.292v-5.184c0.314,0.112,0.648,0.184,1,0.184c1.654,0,3-1.346,3-3v-1.708h4v1.834c-1.724,0.445-3,2.013-3,3.874
			s1.276,3.428,3,3.874v2.418h-4H26z M42,29.427c0-0.551,0.448-1,1-1s1,0.449,1,1v12c0,0.551-0.448,1-1,1s-1-0.449-1-1v-2v-8V29.427
			z M39,34.427c0.352,0,0.686-0.072,1-0.184v5.184v2.292h-2h-2h-2v-3.292c0-0.552-0.447-1-1-1c-1.103,0-2-0.897-2-2s0.897-2,2-2
			c0.553,0,1-0.448,1-1v-2.708h2v1.708C36,33.081,37.346,34.427,39,34.427z"/>
		<path d="M34.293,15.134l1.414-1.268l-1.293-1.147H44v-2h-9.586l1.293-1.439l-1.414-1.487l-3,2.963
			c-0.391,0.391-0.391,1.005,0,1.396L34.293,15.134z"/>
		<rect x="46" y="10.427" width="2" height="2"/>
		<rect x="50" y="10.427" width="2" height="2"/>
		<rect x="54" y="10.427" width="2" height="2"/>
		<path d="M29.707,48.719l-1.414,1.56l1.293,1.44H20v2h9.586l-1.293,1.147l1.414,1.341l3-3.037c0.391-0.391,0.391-1.042,0-1.432
			L29.707,48.719z"/>
		<rect x="16" y="51.427" width="2" height="2"/>
		<rect x="12" y="51.427" width="2" height="2"/>
		<rect x="8" y="51.427" width="2" height="2"/>
	</g>
</g>
<g>
</g>
<g>
</g>
<g>
</g>
<g>
</g>
<g>
</g>
<g>
</g>
<g>
</g>
<g>
</g>
<g>
</g>
<g>
</g>
<g>
</g>
<g>
</g>
<g>
</g>
<g>
</g>
<g>
</g>
</svg>
