<?xml version="1.0" encoding="iso-8859-1"?>
<!-- Generator: Adobe Illustrator 19.0.0, SVG Export Plug-In . SVG Version: 6.00 Build 0)  -->
<svg version="1.1" id="Layer_1" xmlns="http://www.w3.org/2000/svg" xmlns:xlink="http://www.w3.org/1999/xlink" x="0px" y="0px"
	 viewBox="0 0 56 56" style="enable-background:new 0 0 56 56;" xml:space="preserve">
<g>
	<circle style="fill:#F8CF26;" cx="46" cy="25.708" r="4"/>
	<polygon style="fill:#EE8B26;" points="28,27.057 29.234,25 26.766,25 	"/>
	<path style="fill:#EE8B26;" d="M32,18.708c0-0.613-0.15-1.188-0.398-1.708c-0.004-0.007-0.011-0.013-0.014-0.02
		c-0.138-0.285-0.311-0.551-0.51-0.795c-0.008-0.01-0.017-0.02-0.025-0.03c-0.201-0.242-0.429-0.461-0.681-0.648
		c-0.002-0.002-0.004-0.005-0.006-0.007c-0.664-0.491-1.478-0.792-2.366-0.792c-0.889,0-1.703,0.301-2.367,0.793
		c-0.003,0.002-0.004,0.006-0.008,0.009c-0.251,0.187-0.479,0.406-0.68,0.647c-0.005,0.006-0.01,0.013-0.016,0.019
		c-0.199,0.242-0.372,0.508-0.511,0.79c-0.003,0.006-0.009,0.011-0.012,0.017C24.154,17.507,24,18.087,24,18.708
		c0,2.206,1.794,4,4,4S32,20.914,32,18.708z"/>
	<path style="fill:#66CEDB;" d="M24.461,8.515c1.949-1.949,5.121-1.949,7.07,0c1.622,1.622,1.895,4.109,0.78,6.029
		c0.408,0.422,0.753,0.904,1.024,1.431l0.267,0.268c2.052-2.74,1.833-6.653-0.656-9.143c-1.319-1.319-3.077-2.047-4.949-2.047
		c-1.873,0-3.631,0.727-4.95,2.047c-2.489,2.489-2.708,6.402-0.656,9.142l0.28-0.28c0.269-0.52,0.61-0.995,1.013-1.412
		C22.565,12.628,22.837,10.139,24.461,8.515z"/>
	<circle style="fill:#F8CF26;" cx="10" cy="25.708" r="4"/>
	<path style="fill:#F8CF26;" d="M4,35h2v19h3V43h2v11h3V35h2v6h2v-6.292C18,33.053,16.654,32,15,32H5c-1.654,0-3,1.053-3,2.708V41h2
		V35z"/>
	<path style="fill:#EE8B26;" d="M22,28h2v19h3V36h2v11h3V28h2v6h2v-6.292C36,26.053,34.654,25,33,25h-1.434l-2.709,4.368
		C28.676,29.669,28.351,29.78,28,29.78c-0.352,0-0.677-0.075-0.857-0.376L24.434,25H23c-1.654,0-3,1.053-3,2.708V34h2V28z"/>
	<path style="fill:#F8CF26;" d="M40,35h2v19h3V43h2v11h3V35h2v6h2v-6.292C54,33.053,52.654,32,51,32H41c-1.654,0-3,1.053-3,2.708V41
		h2V35z"/>
	<g>
		<path d="M51,30h-0.541C51.414,28,52,27.391,52,25.854c0-3.309-2.691-6.073-6-6.073s-6,2.801-6,6.11c0,1.538,0.586,2.11,1.54,4.11
			H41c-1.13,0-2.162,0.098-3,0.733v-3.026C38,24.951,35.757,23,33,23h-0.541C33.414,21,34,20.391,34,18.854
			c0-0.023-0.003-0.117-0.003-0.14c0.132-0.049,0.258-0.157,0.364-0.263c3.509-3.509,3.509-9.237,0-12.746
			c-1.5-1.5-3.401-2.371-5.36-2.589V2.707C29,1.053,27.654,0,26,0H0v2h26c0.552,0,1,0.156,1,0.707v0.407
			c-1.962,0.217-3.866,1.071-5.367,2.572c-3.509,3.509-3.509,9.219,0,12.727c0.108,0.108,0.236,0.179,0.371,0.228
			c0,0.022-0.003,0.19-0.003,0.212C22,20.391,22.586,21,23.54,23H23c-2.757,0-5,1.951-5,4.708v3.026C17.162,30.098,16.13,30,15,30
			h-0.541C15.414,28,16,27.391,16,25.854c0-3.309-2.691-6.073-6-6.073s-6,2.801-6,6.11C4,27.428,4.586,28,5.54,30H5
			c-2.757,0-5,1.951-5,4.708v7C0,42.26,0.447,43,1,43h3v11.708C4,55.26,4.447,56,5,56h5h5c0.553,0,1-0.74,1-1.292V43h3
			c0.553,0,1-0.74,1-1.292V36h2v11.708C22,48.26,22.447,49,23,49h5h5c0.553,0,1-0.74,1-1.292V36h2v5.708C36,42.26,36.447,43,37,43h3
			v11.708C40,55.26,40.447,56,41,56h5h5c0.553,0,1-0.74,1-1.292V43h3c0.553,0,1-0.74,1-1.292v-7C56,31.951,53.757,30,51,30z
			 M42,25.708c0-2.206,1.794-4,4-4s4,1.794,4,4s-1.794,4-4,4S42,27.914,42,25.708z M29.234,25L28,27.057L26.766,25H29.234z
			 M28,12.708c-0.963,0-1.871,0.234-2.679,0.639c-0.546-1.122-0.364-2.499,0.554-3.417c1.17-1.17,3.072-1.17,4.242,0
			c0.917,0.917,1.099,2.293,0.555,3.414C29.866,12.94,28.961,12.708,28,12.708z M22.391,16.243
			c-2.052-2.739-1.833-6.652,0.656-9.142c1.319-1.319,3.077-2.047,4.95-2.047c1.872,0,3.63,0.727,4.949,2.047
			c2.489,2.489,2.708,6.402,0.656,9.143l-0.267-0.268c-0.271-0.527-0.616-1.009-1.024-1.431c1.115-1.92,0.842-4.407-0.78-6.029
			c-1.949-1.949-5.121-1.949-7.07,0c-1.624,1.624-1.896,4.113-0.777,6.035c-0.402,0.418-0.744,0.893-1.013,1.412L22.391,16.243z
			 M24,18.708c0-0.62,0.154-1.201,0.407-1.726c0.003-0.006,0.009-0.01,0.012-0.017c0.138-0.283,0.311-0.548,0.511-0.79
			c0.005-0.006,0.01-0.013,0.016-0.019c0.201-0.241,0.429-0.46,0.68-0.647c0.003-0.002,0.004-0.006,0.008-0.009
			c0.665-0.492,1.479-0.793,2.367-0.793s1.702,0.301,2.366,0.792c0.002,0.002,0.004,0.005,0.006,0.007
			c0.252,0.187,0.48,0.406,0.681,0.648c0.008,0.01,0.016,0.02,0.025,0.03c0.199,0.244,0.372,0.51,0.51,0.795
			c0.004,0.007,0.011,0.013,0.014,0.02C31.85,17.519,32,18.094,32,18.708c0,2.206-1.794,4-4,4S24,20.914,24,18.708z M6,25.708
			c0-2.206,1.794-4,4-4s4,1.794,4,4s-1.794,4-4,4S6,27.914,6,25.708z M18,41h-2v-6h-2v19h-3V43H9v11H6V35H4v6H2v-6.292
			C2,33.053,3.346,32,5,32h10c1.654,0,3,1.053,3,2.708V41z M32,28v19h-3V36h-2v11h-3V28h-2v6h-2v-6.292C20,26.053,21.346,25,23,25
			h1.434l2.709,4.368c0.181,0.301,0.506,0.412,0.857,0.412c0.352,0,0.677-0.075,0.857-0.376L31.566,25H33c1.654,0,3,1.053,3,2.708
			V34h-2v-6H32z M54,41h-2v-6h-2v19h-3V43h-2v11h-3V35h-2v6h-2v-6.292C38,33.053,39.346,32,41,32h10c1.654,0,3,1.053,3,2.708V41z"/>
		<rect x="17" y="3.707" width="2" height="2"/>
		<rect x="13" y="3.707" width="2" height="2"/>
		<rect x="9" y="3.707" width="2" height="2"/>
	</g>
</g>
<g>
</g>
<g>
</g>
<g>
</g>
<g>
</g>
<g>
</g>
<g>
</g>
<g>
</g>
<g>
</g>
<g>
</g>
<g>
</g>
<g>
</g>
<g>
</g>
<g>
</g>
<g>
</g>
<g>
</g>
</svg>
