<?xml version="1.0" encoding="iso-8859-1"?>
<!-- Generator: Adobe Illustrator 19.0.0, SVG Export Plug-In . SVG Version: 6.00 Build 0)  -->
<svg version="1.1" id="Layer_1" xmlns="http://www.w3.org/2000/svg" xmlns:xlink="http://www.w3.org/1999/xlink" x="0px" y="0px"
	 viewBox="0 0 56 56" style="enable-background:new 0 0 56 56;" xml:space="preserve">
<g>
	<path style="fill:#66CEDB;" d="M17,27h22c1.654,0,3-1.638,3-3.292V13.682C41.162,14.316,40.13,15,39,15h-7v2.708
		C32,18.26,31.553,19,31,19h-6c-0.553,0-1-0.74-1-1.292V15h-7c-1.13,0-2.162-0.684-3-1.318v10.026C14,25.362,15.346,27,17,27z
		 M38,22.708h2v2h-2V22.708z M34,22.708h2v2h-2V22.708z M30,22.708h2v2h-2V22.708z"/>
	<polygon style="fill:#FFFFFF;" points="18.232,54 23.367,54 31.42,37 21.811,37 	"/>
	<polygon style="fill:#FFFFFF;" points="9.382,30 5.382,22 2.344,22 4.744,30 	"/>
	<path style="fill:#FFFFFF;" d="M33,2.707C33,2.156,32.552,2,32,2h-8c-0.552,0-1,0.156-1,0.707V5h10V2.707z"/>
	<path style="fill:#66CEDB;" d="M17,13h22c1.654,0,3-1.638,3-3.292V7H14v2.708C14,11.362,15.346,13,17,13z"/>
	<rect x="26" y="15" style="fill:#F8CF26;" width="4" height="2"/>
	<path style="fill:#FFFFFF;" d="M50.5,33H49c-0.228,0-0.447-0.077-0.625-0.219L43.649,29H39H17h-5.882l0.776,1.406
		c0.155,0.31,0.139,0.751-0.044,1.046C11.668,31.747,11.347,32,11,32H4c-0.441,0-0.831-0.29-0.958-0.713L2.356,29H2v2.708
		C2,33.362,3.346,35,5,35h6c0.17,0,0.337-0.103,0.485-0.02l7.768,4.243l0.768-3.538C20.119,35.221,20.527,35,21,35h12
		c0.343,0,0.662,0.03,0.845,0.319c0.184,0.29,0.206,0.726,0.059,1.036L32.211,40H50.5c1.93,0,3.5-1.57,3.5-3.5S52.43,33,50.5,33z
		 M16,32.708h-2v-2h2V32.708z M20,32.708h-2v-2h2V32.708z M24,32.708h-2v-2h2V32.708z M28,32.708h-2v-2h2V32.708z M32,32.708h-2v-2
		h2V32.708z M36,32.708h-2v-2h2V32.708z M40,32.708h-2v-2h2V32.708z M44,32.708h-2v-2h2V32.708z"/>
	<g>
		<rect x="42" y="30.708" width="2" height="2"/>
		<rect x="38" y="30.708" width="2" height="2"/>
		<rect x="34" y="30.708" width="2" height="2"/>
		<rect x="30" y="30.708" width="2" height="2"/>
		<rect x="26" y="30.708" width="2" height="2"/>
		<rect x="22" y="30.708" width="2" height="2"/>
		<rect x="18" y="30.708" width="2" height="2"/>
		<rect x="14" y="30.708" width="2" height="2"/>
		<path d="M50.5,31h-1.149l-4.726-3.781C44.447,27.077,44.227,27,44,27h-1.026C43.609,26,44,24.837,44,23.708v-18
			C44,5.155,43.553,5,43,5h-8V2.707C35,1.053,33.654,0,32,0h-8c-1.654,0-3,1.053-3,2.707V5h-8c-0.553,0-1,0.155-1,0.708v18
			C12,24.837,12.391,26,13.026,27h-2.907l-3.224-6.447C6.725,20.214,6.379,20,6,20H1c-0.316,0-0.613,0.003-0.803,0.257
			c-0.188,0.254-0.246,0.655-0.155,0.957L1.756,27H1c-0.553,0-1,0.155-1,0.708v4C0,34.464,2.243,37,5,37h5.741l8.081,4.343
			l-2.801,13.231c-0.062,0.295,0.012,0.712,0.202,0.946C16.413,55.755,16.698,56,17,56h7c0.387,0,0.738-0.223,0.903-0.572L31.264,42
			H50.5c3.032,0,5.5-2.467,5.5-5.5S53.532,31,50.5,31z M23,2.707C23,2.156,23.448,2,24,2h8c0.552,0,1,0.156,1,0.707V5H23V2.707z
			 M14,7h28v2.708C42,11.362,40.654,13,39,13H17c-1.654,0-3-1.638-3-3.292V7z M26,15h4v2h-4V15z M14,23.708V13.682
			C14.838,14.316,15.87,15,17,15h7v2.708C24,18.26,24.447,19,25,19h6c0.553,0,1-0.74,1-1.292V15h7c1.13,0,2.162-0.684,3-1.318
			v10.026C42,25.362,40.654,27,39,27H17C15.346,27,14,25.362,14,23.708z M5.382,22l4,8H4.744l-2.4-8H5.382z M23.367,54h-5.135
			l3.579-17h9.608L23.367,54z M50.5,40H32.211l1.692-3.718c0.148-0.31,0.125-0.6-0.059-0.89C33.662,35.103,33.343,35,33,35H21
			c-0.473,0-0.881,0.185-0.979,0.648l-0.768,3.575l-7.768-4.206C11.337,34.934,11.17,35,11,35H5c-1.654,0-3-1.638-3-3.292V29h0.356
			l0.686,2.287C3.169,31.71,3.559,32,4,32h7c0.347,0,0.668-0.326,0.851-0.62c0.183-0.295,0.199-0.59,0.044-0.9L11.118,29H17h22
			h4.649l4.726,3.781C48.553,32.923,48.772,33,49,33h1.5c1.93,0,3.5,1.57,3.5,3.5S52.43,40,50.5,40z"/>
		<rect x="38" y="22.708" width="2" height="2"/>
		<rect x="34" y="22.708" width="2" height="2"/>
		<rect x="30" y="22.708" width="2" height="2"/>
	</g>
</g>
<g>
</g>
<g>
</g>
<g>
</g>
<g>
</g>
<g>
</g>
<g>
</g>
<g>
</g>
<g>
</g>
<g>
</g>
<g>
</g>
<g>
</g>
<g>
</g>
<g>
</g>
<g>
</g>
<g>
</g>
</svg>
