<?xml version="1.0" encoding="iso-8859-1"?>
<!-- Generator: Adobe Illustrator 19.0.0, SVG Export Plug-In . SVG Version: 6.00 Build 0)  -->
<svg version="1.1" id="Layer_1" xmlns="http://www.w3.org/2000/svg" xmlns:xlink="http://www.w3.org/1999/xlink" x="0px" y="0px"
	 viewBox="0 0 56 56" style="enable-background:new 0 0 56 56;" xml:space="preserve">
<g>
	<path style="fill:#66CEDB;" d="M46,4.293L46.293,4c0.306-0.305,0.768-0.379,1.154-0.187l1.355,0.678l1.49-1.49
		c0.351-0.352,0.908-0.392,1.307-0.093l2.4,1.8V2h-8L46,4.293L46,4.293z"/>
	<path style="fill:#EE8B26;" d="M49.707,6.415C49.4,6.72,48.936,6.792,48.553,6.603l-1.355-0.678L46,7.122V8h8V7.207l-2.906-2.179
		L49.707,6.415z"/>
	<rect x="48" y="35" style="fill:#EE8B26;" width="3" height="19"/>
	<rect x="5" y="35" style="fill:#EE8B26;" width="3" height="19"/>
	<polygon style="fill:#EE8B26;" points="48.143,31 35,31 29,31 19,31 14,31 11,31 3,31 2,31 2,33 4,33 9,33 47,33 52,33 54,33 
		54,31 53.857,31 	"/>
	<path style="fill:#F8CF26;" d="M7,27c-1.304,0-2.416,0-2.829,2h5.658C9.416,27,8.304,27,7,27z"/>
	<path style="fill:#FFFFFF;" d="M35,25h6c0.552,0,1-0.741,1-1.292V23H22v0.708C22,24.259,22.448,25,23,25h6H35z"/>
	<rect x="15" y="28" style="fill:#FFFFFF;" width="3" height="1"/>
	<rect x="30" y="27" style="fill:#FFFFFF;" width="4" height="2"/>
	<path style="fill:#66CEDB;" d="M42,13.708C42,13.156,41.552,13,41,13H23c-0.552,0-1,0.156-1,0.708V21h20V13.708z M27.707,19.414
		L26.293,18l4-4l1.414,1.414L27.707,19.414z M33.707,19.414L32.293,18l4-4l1.414,1.414L33.707,19.414z"/>
	<circle style="fill:#F8CF26;" cx="3" cy="15.708" r="1"/>
	<path style="fill:#F8CF26;" d="M51,17.708c0.552,0,1-0.449,1-1v-1h-2v1C50,17.259,50.448,17.708,51,17.708z"/>
	<path style="fill:#F8CF26;" d="M12,11c-1.304,0-2.416,0-2.829,2h5.658C14.416,11,13.304,11,12,11z"/>
	<polygon style="fill:#F8CF26;" points="53.03,29 53.792,25 48.208,25 48.97,29 	"/>
	<path style="fill:#F8CF26;" d="M13,8.809V8.708c0-0.551-0.448-1-1-1s-1,0.449-1,1v0.101c0.323-0.066,0.658-0.101,1-0.101
		S12.677,8.743,13,8.809z"/>
	<path style="fill:#EE8B26;" d="M33,40c0-0.551-0.448-1-1-1h-8c-0.552,0-1,0.449-1,1s0.448,1,1,1h8C32.552,41,33,40.551,33,40z"/>
	<g>
		<path d="M55.063,28.72l0.919-4.826c0.056-0.293-0.022-0.449-0.212-0.678S55.298,23,55,23h-3v-3.477c1.161-0.414,2-1.514,2-2.816
			v-2C54,14.155,53.553,14,53,14h-4c-0.553,0-1,0.155-1,0.708v2c0,1.302,0.838,2.402,2,2.816V23h-3c-0.298,0-0.58-0.013-0.771,0.216
			c-0.189,0.23-0.268,0.605-0.212,0.898L46.934,29H36v-2h5c1.654,0,3-1.638,3-3.292v-10C44,12.053,42.654,11,41,11H23
			c-1.654,0-3,1.053-3,2.708v10C20,25.362,21.346,27,23,27h5v2h-8v-1.292C20,26.604,19.102,26,18,26h-3c-1.103,0-2,0.604-2,1.708V29
			h-1.101c-0.422-3-2.131-3.801-4.248-4.08l-3.222-6.518C5.36,17.892,6,16.878,6,15.744c0-0.768-0.299-1.481-0.776-2.012
			l1.869-0.944C7.037,13.09,7,13.54,7,13.858C7,14.411,7.447,15,8,15h8c0.553,0,1-0.448,1-1c0-1.641-0.806-4-2.031-4H15V8.708
			c0-1.654-1.346-3-3-3s-3,1.346-3,3V9.59l-6.296,3.148C1.19,12.889,0,14.155,0,15.708c0,1.428,1.005,2.622,2.343,2.922l3.165,6.476
			C3.793,25.648,2.465,27,2.101,29H1c-0.553,0-1,0.155-1,0.708v4C0,34.26,0.447,35,1,35h2v19.708C3,55.26,3.447,56,4,56h5
			c0.553,0,1-0.74,1-1.292V35h36v19.708C46,55.26,46.447,56,47,56h5c0.553,0,1-0.74,1-1.292V35h2c0.553,0,1-0.74,1-1.292v-4
			C56,29.178,55.585,28.755,55.063,28.72z M50,15.708h2v1c0,0.551-0.448,1-1,1s-1-0.449-1-1V15.708z M48.208,25h5.584l-0.762,4
			h-4.06L48.208,25z M23,13h18c0.552,0,1,0.156,1,0.708V21H22v-7.292C22,13.156,22.448,13,23,13z M22,23.708V23h20v0.708
			C42,24.259,41.552,25,41,25h-6h-6h-6C22.448,25,22,24.259,22,23.708z M30,27h4v2h-4V27z M15,28h3v1h-3V28z M9.171,13
			c0.413-2,1.525-2,2.829-2s2.416,0,2.829,2H9.171z M12,7.708c0.552,0,1,0.449,1,1v0.101c-0.323-0.066-0.658-0.101-1-0.101
			s-0.677,0.035-1,0.101V8.708C11,8.156,11.448,7.708,12,7.708z M3,14.708c0.552,0,1,0.449,1,1c0,0.551-0.448,1-1,1s-1-0.449-1-1
			S2.448,14.708,3,14.708z M7,27c1.304,0,2.416,0,2.829,2H4.171C4.584,27,5.696,27,7,27z M8,54H5V35h3V54z M51,54h-3V35h3V54z
			 M54,33h-2h-5H9H4H2v-2h1h8h3h5h10h6h13.143h5.715H54V33z"/>
		<path d="M35,40c0-1.654-1.346-3-3-3h-8c-1.654,0-3,1.346-3,3s1.346,3,3,3h0.646l-3.602,11.56C21.015,54.655,21,54.608,21,54.708
			V56h2v-1.142L26.739,43H27v13h2V43h0.261L33,54.858V56h2v-1.292c0-0.1-0.015-0.052-0.044-0.148L31.354,43H32
			C33.654,43,35,41.654,35,40z M23,40c0-0.551,0.448-1,1-1h8c0.552,0,1,0.449,1,1s-0.448,1-1,1h-8C23.448,41,23,40.551,23,40z"/>
		<path d="M56,1c0-0.552-0.448-1-1-1H45c-0.552,0-1,0.448-1,1v8c0,0.552,0.448,1,1,1h10c0.552,0,1-0.448,1-1V1z M54,2v2.708
			l-2.4-1.8c-0.398-0.299-0.955-0.259-1.307,0.093l-1.49,1.49l-1.355-0.678C47.061,3.622,46.599,3.696,46.293,4L46,4.293V2H54z
			 M46,8V7.122l1.197-1.197l1.355,0.678c0.384,0.19,0.848,0.117,1.154-0.188l1.387-1.387L54,7.207V8H46z"/>
		<rect x="26.173" y="15.712" transform="matrix(-0.7071 0.7071 -0.7071 -0.7071 61.3253 8.0216)" width="5.657" height="2"/>
		<rect x="32.172" y="15.712" transform="matrix(-0.7071 0.7071 -0.7071 -0.7071 71.5669 3.7808)" width="5.657" height="2"/>
	</g>
</g>
<g>
</g>
<g>
</g>
<g>
</g>
<g>
</g>
<g>
</g>
<g>
</g>
<g>
</g>
<g>
</g>
<g>
</g>
<g>
</g>
<g>
</g>
<g>
</g>
<g>
</g>
<g>
</g>
<g>
</g>
</svg>
