<?xml version="1.0" encoding="iso-8859-1"?>
<!-- Generator: Adobe Illustrator 19.0.0, SVG Export Plug-In . SVG Version: 6.00 Build 0)  -->
<svg version="1.1" id="Capa_1" xmlns="http://www.w3.org/2000/svg" xmlns:xlink="http://www.w3.org/1999/xlink" x="0px" y="0px"
	 viewBox="0 0 512 512" style="enable-background:new 0 0 512 512;" xml:space="preserve">
<path style="fill:#FFFFFF;" d="M118.622,410.031H84.689c-17.562,0-31.8-14.237-31.8-31.8V70.169c0-17.562,14.237-31.8,31.8-31.8
	h385.574c17.563,0,31.8,14.237,31.8,31.8v308.061c0,17.563-14.237,31.8-31.8,31.8h-42.15H118.622z"/>
<path style="fill:#A5DC69;" d="M470.263,38.37H84.689c-17.562,0-31.8,14.237-31.8,31.8v39.75h449.173v-39.75
	C502.063,52.607,487.825,38.37,470.263,38.37z"/>
<path style="fill:#F5B955;" d="M9.937,282.831L9.937,282.831c0-31.179,25.275-56.454,56.454-56.454h58.364v112.907H66.391
	C35.213,339.285,9.937,314.01,9.937,282.831z"/>
<polygon style="fill:#78D2FA;" points="349.043,157.692 124.755,226.377 124.755,339.285 349.043,407.971 "/>
<polygon style="fill:#AAE6FF;" points="301.677,393.465 349.043,407.971 349.043,157.692 301.677,172.197 "/>
<path style="fill:#BEBEBE;" d="M119.017,473.63L119.017,473.63c17.411,0,30.423-16.004,26.867-33.049l-21.129-101.297H68.683
	L92.15,451.789C94.804,464.513,106.019,473.63,119.017,473.63z"/>
<path style="fill:#FF5A5A;" d="M349.043,317.595c19.2,0,34.764-15.564,34.764-34.764c0-19.199-15.564-34.764-34.764-34.764"/>
<path style="fill:#231F20;" d="M62.935,109.919h434.159"/>
<path d="M301.676,195.469c-5.487,0-9.937,4.45-9.937,9.937v0.142c0,5.487,4.45,9.937,9.937,9.937c5.487,0,9.937-4.45,9.937-9.937
	v-0.142C311.613,199.918,307.164,195.469,301.676,195.469z"/>
<path d="M393.745,282.831c0-21.232-14.885-39.041-34.764-43.574v-81.566c0-3.151-1.495-6.116-4.029-7.99
	c-2.533-1.873-5.806-2.436-8.818-1.511l-222.865,68.251H66.392C29.784,216.441,0,246.224,0,282.832
	c0,34.638,26.668,63.148,60.548,66.119l21.873,104.867c3.595,17.238,18.986,29.75,36.595,29.75c11.304,0,21.877-5.031,29.007-13.802
	c7.13-8.772,9.896-20.148,7.587-31.215l-4.793-22.976c20.962-6.47,36.843-23.876,41.464-45.217l153.85,47.115
	c0.954,0.292,1.934,0.435,2.909,0.435c2.103,0,4.179-0.668,5.91-1.948c2.534-1.874,4.029-4.839,4.029-7.99v-81.566
	C378.86,321.872,393.745,304.064,393.745,282.831z M19.875,282.831c0-25.65,20.868-46.516,46.517-46.516h48.425v93.032H68.683
	h-2.291C40.743,329.346,19.875,308.48,19.875,282.831z M132.603,457.229c-3.339,4.108-8.292,6.464-13.586,6.464
	c-8.247,0-15.455-5.859-17.139-13.933L80.907,349.221h35.77l12.697,60.873c0.002,0.007,0.003,0.015,0.005,0.022l6.777,32.493
	C137.237,447.792,135.942,453.121,132.603,457.229z M146.735,395.992l-8.819-42.285l35.27,10.801
	C170.668,379,160.483,391.043,146.735,395.992z M339.105,394.534l-27.491-8.419V245.255c0-5.487-4.45-9.937-9.937-9.937
	s-9.937,4.45-9.937,9.937v134.774L188.166,348.31c-0.964-0.482-2.016-0.812-3.127-0.958l-50.345-15.418v-98.206l204.413-62.6
	L339.105,394.534L339.105,394.534z M358.98,305.575v-45.488c8.756,3.84,14.889,12.587,14.889,22.744
	C373.869,292.988,367.736,301.735,358.98,305.575z"/>
<path d="M476.722,282.831c0-5.487-4.45-9.937-9.937-9.937h-44.322c-5.487,0-9.937,4.45-9.937,9.937c0,5.487,4.45,9.937,9.937,9.937
	h44.322C472.272,292.769,476.722,288.319,476.722,282.831z"/>
<path d="M424.557,194.061l-22.303,16.267c-4.434,3.234-5.407,9.451-2.173,13.885c1.945,2.668,4.97,4.082,8.036,4.082
	c2.031,0,4.081-0.621,5.848-1.91l22.303-16.267c4.434-3.234,5.407-9.451,2.173-13.885
	C435.208,191.798,428.989,190.827,424.557,194.061z"/>
<path d="M414.103,339.377c-4.433-3.233-10.651-2.262-13.885,2.173c-3.235,4.434-2.261,10.651,2.173,13.885l22.167,16.167
	c1.767,1.289,3.816,1.91,5.848,1.91c3.066,0,6.092-1.416,8.036-4.082c3.235-4.434,2.261-10.651-2.173-13.885L414.103,339.377z"/>
<path d="M452.763,64.207H246.495c-5.487,0-9.937,4.45-9.937,9.937s4.45,9.937,9.937,9.937h206.268c5.487,0,9.937-4.45,9.937-9.937
	S458.251,64.207,452.763,64.207z"/>
<path d="M138.708,64.207c-2.614,0-5.177,1.062-7.025,2.912c-1.858,1.848-2.913,4.412-2.913,7.026s1.054,5.177,2.913,7.025
	c1.847,1.848,4.411,2.913,7.025,2.913c2.615,0,5.177-1.063,7.026-2.913c1.848-1.847,2.912-4.411,2.912-7.025
	s-1.062-5.177-2.912-7.026S141.323,64.207,138.708,64.207z"/>
<path d="M102.188,64.207c-2.614,0-5.177,1.062-7.025,2.912c-1.848,1.848-2.913,4.412-2.913,7.026s1.063,5.177,2.913,7.025
	c1.847,1.848,4.411,2.913,7.025,2.913c2.615,0,5.177-1.063,7.026-2.913c1.848-1.847,2.912-4.411,2.912-7.025
	s-1.062-5.177-2.912-7.026C107.364,65.27,104.802,64.207,102.188,64.207z"/>
<path d="M175.228,64.207c-2.623,0-5.177,1.062-7.035,2.912c-1.848,1.848-2.903,4.412-2.903,7.026s1.054,5.177,2.903,7.025
	c1.857,1.848,4.411,2.913,7.035,2.913c2.615,0,5.167-1.063,7.026-2.913c1.848-1.847,2.912-4.411,2.912-7.025
	s-1.062-5.177-2.912-7.026C180.396,65.269,177.843,64.207,175.228,64.207z"/>
<path d="M470.263,28.432H84.689c-23.014,0-41.737,18.723-41.737,41.737v136.143c0,5.487,4.45,9.937,9.937,9.937
	s9.937-4.45,9.937-9.937v-38.684h61.928c5.487,0,9.937-4.45,9.937-9.937s-4.45-9.937-9.937-9.937H62.827v-27.903
	c0.037,0,0.073,0.006,0.108,0.006h429.19v258.374c0,12.055-9.807,21.862-21.862,21.862h-79.169c-5.487,0-9.937,4.45-9.937,9.937
	s4.45,9.937,9.937,9.937h79.169c23.014,0,41.737-18.723,41.737-41.737V70.169C512,47.155,493.277,28.432,470.263,28.432z
	 M62.935,99.982c-0.037,0-0.073,0.005-0.108,0.006V70.169c0-12.055,9.807-21.862,21.862-21.862h385.574
	c12.055,0,21.862,9.807,21.862,21.862v29.812H62.935z"/>
<path d="M164.009,164.713c1.848-1.847,2.913-4.411,2.913-7.026c0-2.614-1.063-5.177-2.913-7.025
	c-1.847-1.848-4.411-2.913-7.025-2.913c-2.614,0-5.177,1.063-7.026,2.913c-1.848,1.847-2.912,4.411-2.912,7.025
	c0,2.615,1.062,5.178,2.912,7.026c1.848,1.858,4.412,2.912,7.026,2.912C159.598,167.625,162.162,166.573,164.009,164.713z"/>
<g>
</g>
<g>
</g>
<g>
</g>
<g>
</g>
<g>
</g>
<g>
</g>
<g>
</g>
<g>
</g>
<g>
</g>
<g>
</g>
<g>
</g>
<g>
</g>
<g>
</g>
<g>
</g>
<g>
</g>
</svg>
