<?xml version="1.0" encoding="iso-8859-1"?>
<!-- Generator: Adobe Illustrator 19.0.0, SVG Export Plug-In . SVG Version: 6.00 Build 0)  -->
<svg version="1.1" id="Capa_1" xmlns="http://www.w3.org/2000/svg" xmlns:xlink="http://www.w3.org/1999/xlink" x="0px" y="0px"
	 viewBox="0 0 512 512" style="enable-background:new 0 0 512 512;" xml:space="preserve">
<path style="fill:#FFFFFF;" d="M76.146,384H42c-17.673,0-32-14.327-32-32V42c0-17.673,14.327-32,32-32h388c17.673,0,32,14.327,32,32
	v310c0,17.673-14.327,32-32,32h-42.415H76.146z"/>
<path style="fill:#A5DC69;" d="M430,10H42c-17.673,0-32,14.327-32,32v40h452V42C462,24.327,447.673,10,430,10z"/>
<path style="fill:#231F20;" d="M20.109,82H457"/>
<path style="fill:#FF5A5A;" d="M382.04,206.8h-0.079H382.04h-0.079L262,266.825v114.507c0,44.689,28.725,67.286,59.98,86.055
	C352.179,485.522,381.96,502,381.96,502h0.079c0,0,29.782-16.478,59.98-34.613c31.255-18.77,59.98-41.366,59.98-86.055V266.825
	L382.04,206.8z"/>
<circle style="fill:#78D2FA;" cx="382" cy="354.4" r="64"/>
<path d="M204.824,56H412.39c5.523,0,10-4.478,10-10s-4.477-10-10-10H204.824c-5.523,0-10,4.478-10,10S199.301,56,204.824,56z"/>
<path d="M96.36,56c2.63,0,5.21-1.07,7.07-2.931c1.86-1.859,2.93-4.439,2.93-7.069s-1.07-5.21-2.93-7.07S98.99,36,96.36,36
	s-5.21,1.069-7.07,2.93c-1.86,1.86-2.93,4.44-2.93,7.07s1.07,5.21,2.93,7.069C91.15,54.93,93.73,56,96.36,56z"/>
<path d="M59.61,56c2.63,0,5.21-1.07,7.07-2.931c1.86-1.859,2.93-4.439,2.93-7.069s-1.07-5.21-2.93-7.07S62.25,36,59.61,36
	c-2.63,0-5.21,1.069-7.07,2.93c-1.86,1.86-2.93,4.44-2.93,7.07s1.07,5.21,2.93,7.069C54.4,54.93,56.98,56,59.61,56z"/>
<path d="M133.11,56c2.63,0,5.21-1.07,7.07-2.931c1.86-1.859,2.92-4.439,2.92-7.069s-1.06-5.21-2.92-7.07S135.74,36,133.11,36
	c-2.64,0-5.21,1.069-7.07,2.93c-1.87,1.86-2.93,4.44-2.93,7.07s1.06,5.21,2.93,7.069C127.9,54.93,130.47,56,133.11,56z"/>
<path d="M187.5,374H42c-12.131,0-22-9.869-22-22V91.995c0.037,0,0.073,0.005,0.109,0.005H452v112.005c0,5.522,4.477,10,10,10
	s10-4.478,10-10V42c0-23.159-18.841-42-42-42H42C18.841,0,0,18.841,0,42v310c0,23.159,18.841,42,42,42h145.5c5.523,0,10-4.478,10-10
	C197.5,378.478,193.023,374,187.5,374z M42,20h388c12.131,0,22,9.869,22,22v30H20.109c-0.037,0-0.073,0.005-0.109,0.005V42
	C20,29.869,29.869,20,42,20z"/>
<path d="M225.8,374c-2.63,0-5.21,1.069-7.07,2.93c-1.86,1.86-2.93,4.44-2.93,7.07s1.07,5.21,2.93,7.069
	c1.87,1.86,4.44,2.931,7.07,2.931c2.64,0,5.21-1.07,7.08-2.931c1.86-1.859,2.93-4.439,2.93-7.069s-1.07-5.21-2.93-7.07
	C231.02,375.07,228.44,374,225.8,374z"/>
<path d="M506.475,257.882l-119.96-60.025c-1.132-0.566-2.412-0.911-3.688-1.02c-0.002,0-0.005-0.001-0.007-0.001
	c-0.271-0.022-0.544-0.035-0.821-0.036c-0.005-0.001-0.012,0-0.017,0c-0.01,0-0.014,0-0.021,0s-0.01,0-0.021,0
	c-0.005,0-0.01,0-0.017,0c-1.666,0.007-3.237,0.42-4.616,1.146l-119.781,59.936c-3.387,1.695-5.525,5.157-5.525,8.943v114.507
	c0,48.946,31.159,74.406,64.832,94.629c30.003,18.018,59.988,34.623,60.287,34.789c1.482,0.82,3.227,1.25,4.92,1.25
	s3.359-0.43,4.841-1.25c0.299-0.166,30.284-16.771,60.288-34.789C480.841,455.738,512,430.278,512,381.332V266.825
	C512,263.039,509.861,259.577,506.475,257.882z M492,381.332c0,36.952-21.094,57.043-55.128,77.482
	c-22.629,13.59-45.258,26.374-54.872,31.758c-9.611-5.383-32.233-18.163-54.872-31.758C293.094,438.375,272,418.284,272,381.332
	V273.004l110-55.042l110,55.042V381.332z"/>
<path d="M365.784,348.427c-3.906-3.903-10.237-3.904-14.142,0c-3.905,3.905-3.906,10.237,0,14.143l17.691,17.691
	c1.875,1.875,4.419,2.929,7.071,2.929s5.196-1.054,7.071-2.929l35.382-35.383c3.905-3.905,3.905-10.237,0-14.143
	c-3.905-3.904-10.237-3.904-14.142,0l-28.311,28.312L365.784,348.427z"/>
<path d="M308,354.4c0,40.804,33.196,74,74,74s74-33.196,74-74c0-40.804-33.196-74-74-74S308,313.597,308,354.4z M436,354.4
	c0,29.775-24.224,54-54,54s-54-24.225-54-54c0-29.775,24.224-54,54-54S436,324.625,436,354.4z"/>
<path d="M285.312,119.662c-3.905-3.904-10.237-3.904-14.142,0l-23.167,23.167c-1.875,1.876-2.929,4.419-2.929,7.071
	s1.054,5.196,2.929,7.071l23.167,23.166c1.953,1.952,4.512,2.929,7.071,2.929s5.119-0.977,7.071-2.929
	c3.905-3.905,3.905-10.237,0-14.143L269.217,149.9l16.096-16.096C289.218,129.899,289.217,123.567,285.312,119.662z"/>
<path d="M387.486,180.138c1.953,1.952,4.512,2.929,7.071,2.929c2.559,0,5.119-0.977,7.071-2.929l23.167-23.166
	c1.875-1.875,2.929-4.419,2.929-7.071s-1.054-5.195-2.929-7.071l-23.167-23.167c-3.906-3.903-10.237-3.903-14.142,0
	c-3.905,3.905-3.906,10.237,0,14.143l16.096,16.096l-16.095,16.095C383.582,169.9,383.581,176.232,387.486,180.138z"/>
<path d="M344.133,117.003l-32.711,55.661c-2.798,4.762-1.207,10.89,3.555,13.688c1.592,0.936,3.336,1.381,5.058,1.381
	c3.429,0,6.768-1.766,8.631-4.936l32.711-55.661c2.798-4.762,1.207-10.89-3.555-13.688
	C353.059,110.648,346.932,112.241,344.133,117.003z"/>
<path d="M69.462,270.003h23.322c5.523,0,10-4.478,10-10c0-5.522-4.477-10-10-10H69.462c-5.523,0-10,4.478-10,10
	C59.462,265.525,63.939,270.003,69.462,270.003z"/>
<path d="M235.805,260.003c0-5.522-4.477-10-10-10h-95.271c-5.523,0-10,4.478-10,10c0,5.522,4.477,10,10,10h95.271
	C231.328,270.003,235.805,265.525,235.805,260.003z"/>
<path d="M69.462,326h99.598c5.523,0,10-4.478,10-10c0-5.522-4.477-10-10-10H69.462c-5.523,0-10,4.478-10,10
	C59.462,321.522,63.939,326,69.462,326z"/>
<path d="M235.805,316c0-5.522-4.477-10-10-10h-16.383c-5.523,0-10,4.478-10,10c0,5.522,4.477,10,10,10h16.383
	C231.328,326,235.805,321.522,235.805,316z"/>
<path d="M173.627,138.015c-5.523,0-10,4.478-10,10s4.477,10,10,10h31.228c5.523,0,10-4.478,10-10s-4.477-10-10-10H173.627z"/>
<path d="M69.462,158h60.818c5.523,0,10-4.478,10-10s-4.477-10-10-10H69.462c-5.523,0-10,4.478-10,10S63.939,158,69.462,158z"/>
<path d="M69.462,214.005h30.409c5.523,0,10-4.478,10-10s-4.477-10-10-10H69.462c-5.523,0-10,4.478-10,10
	S63.939,214.005,69.462,214.005z"/>
<path d="M238.555,194.005h-70.888c-5.523,0-10,4.478-10,10s4.477,10,10,10h70.888c5.523,0,10-4.478,10-10
	S244.078,194.005,238.555,194.005z"/>
<path d="M134.23,194.01c-2.63,0-5.21,1.06-7.07,2.92c-1.86,1.87-2.93,4.44-2.93,7.08c0,2.63,1.07,5.2,2.93,7.06
	c1.86,1.87,4.44,2.94,7.07,2.94s5.21-1.07,7.07-2.94c1.86-1.859,2.93-4.43,2.93-7.06c0-2.64-1.07-5.21-2.93-7.08
	C139.44,195.069,136.86,194.01,134.23,194.01z"/>
<g>
</g>
<g>
</g>
<g>
</g>
<g>
</g>
<g>
</g>
<g>
</g>
<g>
</g>
<g>
</g>
<g>
</g>
<g>
</g>
<g>
</g>
<g>
</g>
<g>
</g>
<g>
</g>
<g>
</g>
</svg>
