<?xml version="1.0" encoding="iso-8859-1"?>
<!-- Generator: Adobe Illustrator 19.0.0, SVG Export Plug-In . SVG Version: 6.00 Build 0)  -->
<svg version="1.1" id="Capa_1" xmlns="http://www.w3.org/2000/svg" xmlns:xlink="http://www.w3.org/1999/xlink" x="0px" y="0px"
	 viewBox="0 0 512 512" style="enable-background:new 0 0 512 512;" xml:space="preserve">
<path style="fill:#C8F5FF;" d="M53.448,202.127C29.452,202.127,10,182.675,10,158.679c0-18.222,11.222-33.814,27.128-40.267
	c-0.691-3.076-1.067-6.271-1.067-9.555c0-23.996,19.452-43.448,43.448-43.448c6.762,0,13.162,1.545,18.869,4.301
	C111.798,34.788,145.65,10,185.297,10c44.722,0,82.073,31.539,91.037,73.587c5.693-1.77,11.745-2.723,18.02-2.723
	c33.486,0,60.631,27.146,60.631,60.631s-27.146,60.631-60.631,60.631H53.448V202.127z"/>
<circle style="fill:#A5DC69;" cx="327.99" cy="265.06" r="26.993"/>
<circle style="fill:#FF5A5A;" cx="457.16" cy="224.92" r="31.08"/>
<polygon style="fill:#F5B955;" points="256.127,292.05 256.127,330 353.469,412.286 353.469,502 404.658,463.09 404.658,412.286 
	502,330 502,292.05 "/>
<path d="M502,282.05H360.836c2.646-5.092,4.15-10.868,4.15-16.992c0-20.398-16.595-36.993-36.993-36.993S291,244.659,291,265.058
	c0,6.124,1.505,11.9,4.15,16.992h-39.023c-5.522,0-10,4.478-10,10V330c0,2.943,1.297,5.737,3.544,7.637l93.798,79.29V502
	c0,3.8,2.153,7.271,5.557,8.959c1.408,0.698,2.929,1.041,4.442,1.041c2.146,0,4.278-0.69,6.053-2.039l51.189-38.91
	c2.487-1.891,3.948-4.836,3.948-7.961v-46.163l93.798-79.29c2.247-1.899,3.544-4.693,3.544-7.637v-37.95
	C512,286.527,507.522,282.05,502,282.05z M311,265.058c0-9.37,7.623-16.993,16.993-16.993s16.993,7.623,16.993,16.993
	c0,9.369-7.623,16.992-16.993,16.992S311,274.427,311,265.058z M492,325.359l-93.798,79.29c-2.247,1.899-3.544,4.693-3.544,7.637
	v45.844l-31.189,23.708v-69.552c0-2.943-1.297-5.737-3.544-7.637L283.446,340h112.887c5.522,0,10-4.478,10-10
	c0-5.522-4.478-10-10-10H266.127v-17.95H492V325.359z"/>
<path d="M364.986,141.496c0-38.946-31.686-70.632-70.632-70.632c-3.649,0-7.275,0.278-10.851,0.83
	c-6.037-18.834-17.501-35.762-32.943-48.406C232.22,8.271,209.042,0,185.298,0c-21.257,0-41.668,6.42-59.028,18.565
	c-14.248,9.969-25.613,23.172-33.269,38.555c-4.368-1.138-8.879-1.712-13.491-1.712c-29.472,0-53.448,23.977-53.448,53.448
	c0,1.275,0.047,2.554,0.139,3.831C10.063,122.207,0,139.512,0,158.679c0,29.472,23.977,53.448,53.448,53.448h240.906
	C333.301,212.127,364.986,180.442,364.986,141.496z M20,158.679c0-13.684,8.199-25.853,20.888-31.001
	c4.532-1.839,7.068-6.686,5.997-11.457c-0.546-2.435-0.823-4.912-0.823-7.364c0-18.443,15.005-33.448,33.448-33.448
	c5.091,0,9.977,1.112,14.521,3.306c2.518,1.217,5.43,1.321,8.029,0.293c2.6-1.03,4.649-3.101,5.652-5.711
	C119.963,41.418,151.143,20,185.298,20c38.971,0,73.144,27.619,81.257,65.673c0.586,2.749,2.303,5.125,4.729,6.545
	s5.34,1.753,8.021,0.919c4.849-1.508,9.911-2.272,15.05-2.272c27.919,0,50.632,22.713,50.632,50.632
	c0,27.918-22.713,50.631-50.632,50.631H53.448C35.005,192.127,20,177.122,20,158.679z"/>
<path d="M416.082,224.921c0,22.651,18.428,41.079,41.079,41.079s41.079-18.428,41.079-41.079s-18.428-41.079-41.079-41.079
	S416.082,202.27,416.082,224.921z M478.24,224.921c0,11.623-9.456,21.079-21.079,21.079s-21.079-9.456-21.079-21.079
	s9.456-21.079,21.079-21.079S478.24,213.298,478.24,224.921z"/>
<path d="M378.333,187.667v37.254c0,5.522,4.478,10,10,10s10-4.478,10-10v-37.254c0-5.522-4.478-10-10-10
	S378.333,182.145,378.333,187.667z"/>
<path d="M379.05,74H438v82.32c0,5.522,4.478,10,10,10s10-4.478,10-10V64c0-5.522-4.478-10-10-10h-68.95c-5.522,0-10,4.478-10,10
	S373.527,74,379.05,74z"/>
<path d="M207.406,438.012H74V297c0-5.522-4.478-10-10-10s-10,4.478-10,10v151.012c0,5.522,4.478,10,10,10h143.406
	c5.522,0,10-4.478,10-10C217.406,442.49,212.929,438.012,207.406,438.012z"/>
<path d="M56.93,248.93C55.07,250.79,54,253.37,54,256c0,2.63,1.069,5.21,2.93,7.069C58.79,264.93,61.37,266,64,266
	c2.63,0,5.21-1.07,7.069-2.931C72.93,261.21,74,258.63,74,256c0-2.63-1.07-5.21-2.931-7.07C69.21,247.069,66.63,246,64,246
	S58.79,247.069,56.93,248.93z"/>
<path d="M143.738,94.242c-3.906-3.904-10.236-3.904-14.143,0l-25.437,25.437c-3.905,3.905-3.905,10.237,0,14.143l25.437,25.437
	c1.953,1.952,4.512,2.929,7.071,2.929s5.118-0.977,7.071-2.929c3.905-3.905,3.905-10.237,0-14.143l-18.365-18.365l18.365-18.365
	C147.644,104.479,147.644,98.147,143.738,94.242z"/>
<path d="M235.39,94.242c-3.906-3.904-10.236-3.904-14.143,0c-3.905,3.905-3.905,10.237,0,14.143l18.365,18.365l-18.365,18.365
	c-3.905,3.905-3.905,10.237,0,14.143c1.953,1.952,4.512,2.929,7.071,2.929s5.118-0.977,7.071-2.929l25.437-25.437
	c3.905-3.905,3.905-10.237,0-14.143L235.39,94.242z"/>
<path d="M205.518,87.571c-4.762-2.799-10.89-1.207-13.688,3.555l-35.916,61.115c-2.799,4.762-1.207,10.89,3.555,13.688
	c1.592,0.936,3.335,1.381,5.057,1.381c3.429,0,6.769-1.766,8.631-4.936l35.916-61.115C211.871,96.497,210.279,90.369,205.518,87.571
	z"/>
<path d="M435,340c2.63,0,5.21-1.07,7.069-2.931C443.93,335.21,445,332.63,445,330s-1.07-5.21-2.931-7.07
	C440.21,321.07,437.63,320,435,320s-5.21,1.069-7.07,2.93c-1.86,1.861-2.93,4.44-2.93,7.07s1.069,5.21,2.93,7.069
	C429.79,338.93,432.37,340,435,340z"/>
<g>
</g>
<g>
</g>
<g>
</g>
<g>
</g>
<g>
</g>
<g>
</g>
<g>
</g>
<g>
</g>
<g>
</g>
<g>
</g>
<g>
</g>
<g>
</g>
<g>
</g>
<g>
</g>
<g>
</g>
</svg>
