<?xml version="1.0" encoding="iso-8859-1"?>
<!-- Generator: Adobe Illustrator 19.0.0, SVG Export Plug-In . SVG Version: 6.00 Build 0)  -->
<svg version="1.1" id="Capa_1" xmlns="http://www.w3.org/2000/svg" xmlns:xlink="http://www.w3.org/1999/xlink" x="0px" y="0px"
	 viewBox="0 0 512 512" style="enable-background:new 0 0 512 512;" xml:space="preserve">
<rect x="212" y="384" style="fill:#F0F0FA;" width="88" height="58"/>
<path style="fill:#78D2FA;" d="M156,482.002h200v-8c0-17.673-14.327-32-32-32H188c-17.673,0-32,14.327-32,32V482.002z"/>
<path style="fill:#FFFFFF;" d="M470,29.998c17.673,0,32,14.327,32,32v282c0,22.091-17.909,40-40,40H50c-22.091,0-40-17.909-40-40
	v-282c0-17.673,14.327-32,32-32L470,29.998L470,29.998z"/>
<path style="fill:#78D2FA;" d="M10,303.665v40.333c0,22.091,17.909,40,40,40h412c22.091,0,40-17.909,40-40v-40.333H10z"/>
<path style="fill:#6E87F5;" d="M302,409.998v-202.5c0-16.292,13.208-29.5,29.5-29.5h141c16.292,0,29.5,13.208,29.5,29.5v245
	c0,16.292-13.208,29.5-29.5,29.5h-141c-16.292,0-29.5-13.208-29.5-29.5V409.998"/>
<rect x="302" y="236.12" style="fill:#C8F5FF;" width="200" height="191.87"/>
<path d="M256.947,353.998h0.095c5.523,0,9.952-4.478,9.952-10s-4.524-10-10.047-10s-10,4.478-10,10S251.424,353.998,256.947,353.998
	z"/>
<path d="M470,19.998H42c-23.159,0-42,18.841-42,42v282c0,27.57,22.43,50,50,50h152v38.004h-14c-23.159,0-42,18.841-42,42v8
	c0,5.522,4.477,10,10,10h173c0.3,0,0.595-0.019,0.888-0.045c0.535,0.022,142.612,0.041,142.612,0.041c21.78,0,39.5-17.72,39.5-39.5
	v-24.5v-366C512,38.839,493.159,19.998,470,19.998z M492,417.998H312v-34V246.125h180V417.998z M312,226.125v-18.627
	c0-10.752,8.748-19.5,19.5-19.5h141c10.752,0,19.5,8.748,19.5,19.5v18.627H312z M42,39.998h428c12.131,0,22,9.869,22,22v111.17
	c-5.758-3.283-12.411-5.17-19.5-5.17h-141c-10.058,0-19.245,3.785-26.226,9.997h-53.768c-5.523,0-10,4.478-10,10s4.477,10,10,10
	h41.657c-0.755,3.046-1.163,6.227-1.163,9.503v86.504H20V61.998C20,49.867,29.869,39.998,42,39.998z M20,343.998v-29.996h272v59.996
	h-80H50C33.458,373.998,20,360.54,20,343.998z M222,393.998h70v38.004h-70V393.998z M188,452.002h24h80v0.496
	c0,7.091,1.888,13.745,5.172,19.504H166.09C167.104,460.805,176.543,452.002,188,452.002z M472.5,471.998h-141
	c-10.752,0-19.5-8.748-19.5-19.5v-10.496v-4.004h180v14.5C492,463.25,483.252,471.998,472.5,471.998z"/>
<path d="M426.792,196.998H377.29c-5.523,0-10,4.478-10,10s4.477,10,10,10h49.502c5.523,0,10-4.478,10-10
	S432.315,196.998,426.792,196.998z"/>
<path d="M402.065,444.998h-0.13c-5.523,0-10,4.478-10,10s4.477,10,10,10h0.13c5.523,0,10-4.478,10-10
	S407.588,444.998,402.065,444.998z"/>
<path d="M323.667,339.133l25.437,25.437c1.953,1.952,4.512,2.929,7.071,2.929s5.119-0.977,7.071-2.929
	c3.905-3.905,3.905-10.237,0-14.143l-18.366-18.365l18.366-18.365c3.905-3.905,3.905-10.237,0-14.143
	c-3.905-3.904-10.237-3.904-14.143,0l-25.437,25.437C319.762,328.896,319.762,335.228,323.667,339.133z"/>
<path d="M440.754,364.569c1.953,1.952,4.512,2.929,7.071,2.929s5.119-0.977,7.071-2.929l25.437-25.437
	c3.905-3.905,3.905-10.237,0-14.143l-25.437-25.437c-3.905-3.904-10.237-3.904-14.143,0c-3.905,3.905-3.905,10.237,0,14.143
	l18.366,18.365l-18.366,18.365C436.85,354.332,436.85,360.664,440.754,364.569z"/>
<path d="M378.976,371.24c1.591,0.936,3.335,1.381,5.057,1.381c3.429,0,6.768-1.766,8.631-4.936l35.916-61.115
	c2.798-4.762,1.207-10.89-3.555-13.688c-4.761-2.799-10.89-1.207-13.688,3.555l-35.916,61.115
	C372.623,362.314,374.214,368.442,378.976,371.24z"/>
<path d="M96,149.997h139.643c5.523,0,10-4.478,10-10s-4.477-10-10-10H96c-5.523,0-10,4.478-10,10S90.477,149.997,96,149.997z"/>
<path d="M416,129.997H283.849c-5.523,0-10,4.478-10,10s4.477,10,10,10H416c5.523,0,10-4.478,10-10S421.523,129.997,416,129.997z"/>
<path d="M96,101.999h228.58c5.523,0,10-4.478,10-10s-4.477-10-10-10H96c-5.523,0-10,4.478-10,10S90.477,101.999,96,101.999z"/>
<path d="M376.121,101.999H416c5.523,0,10-4.478,10-10s-4.477-10-10-10h-39.879c-5.523,0-10,4.478-10,10
	S370.598,101.999,376.121,101.999z"/>
<path d="M219.021,235.987c0,5.522,4.477,10,10,10H268.9c5.523,0,10-4.478,10-10s-4.477-10-10-10h-39.879
	C223.499,225.987,219.021,230.465,219.021,235.987z"/>
<path d="M96,246h77.667c5.523,0,10-4.478,10-10s-4.477-10-10-10H96c-5.523,0-10,4.478-10,10S90.477,246,96,246z"/>
<path d="M96,197.995h81.729c5.523,0,10-4.478,10-10s-4.477-10-10-10H96c-5.523,0-10,4.478-10,10S90.477,197.995,96,197.995z"/>
<path d="M225.96,188c0-2.641-1.07-5.21-2.93-7.08c-1.86-1.86-4.44-2.93-7.07-2.93s-5.21,1.069-7.07,2.93
	c-1.86,1.87-2.93,4.439-2.93,7.08c0,2.63,1.07,5.2,2.93,7.069c1.86,1.86,4.44,2.931,7.07,2.931s5.21-1.07,7.07-2.931
	C224.89,193.2,225.96,190.63,225.96,188z"/>
<g>
</g>
<g>
</g>
<g>
</g>
<g>
</g>
<g>
</g>
<g>
</g>
<g>
</g>
<g>
</g>
<g>
</g>
<g>
</g>
<g>
</g>
<g>
</g>
<g>
</g>
<g>
</g>
<g>
</g>
</svg>
