<?xml version="1.0" encoding="iso-8859-1"?>
<!-- Generator: Adobe Illustrator 19.0.0, SVG Export Plug-In . SVG Version: 6.00 Build 0)  -->
<svg version="1.1" id="Capa_1" xmlns="http://www.w3.org/2000/svg" xmlns:xlink="http://www.w3.org/1999/xlink" x="0px" y="0px"
	 viewBox="0 0 512 512" style="enable-background:new 0 0 512 512;" xml:space="preserve">
<path style="fill:#78D2FA;" d="M194.012,502h178.049l0,0c0-22.094-17.91-40.004-40.004-40.004h-98.041
	C211.922,461.996,194.012,479.906,194.012,502L194.012,502z"/>
<g>
	<rect x="243.04" y="418" style="fill:#F0F0FA;" width="80" height="43.998"/>
	<path style="fill:#F0F0FA;" d="M357.234,85.998H462c22.091,0,40,17.909,40,40v252c0,22.091-17.909,40-40,40H104
		c-22.091,0-40-17.909-40-40v-252c0-22.091,17.909-40,40-40h104.918"/>
</g>
<path style="fill:#78D2FA;" d="M462,417.998H104c-22.091,0-40-17.909-40-40v-28h438v28C502,400.089,484.091,417.998,462,417.998z"/>
<path style="fill:#FFFFFF;" d="M274,10H34c-13.255,0-24,10.745-24,24v198.127c0,13.255,10.745,24,24,24h240
	c13.255,0,24-10.745,24-24V34C298,20.745,287.255,10,274,10z"/>
<path style="fill:#A5DC69;" d="M274,10H34c-13.255,0-24,10.745-24,24v48h288V34C298,20.745,287.255,10,274,10z"/>
<path style="fill:#231F20;" d="M17.148,82H294.53"/>
<path style="fill:#F5B955;" d="M448,256.127l-32,54.206l-32-54.206V42c0-17.673,14.327-32,32-32l0,0c17.673,0,32,14.327,32,32
	V256.127z"/>
<polygon style="fill:#BEBEBE;" points="448,256.127 416,310.333 384,256.127 "/>
<path style="fill:#FF5A5A;" d="M416,10L416,10c-17.673,0-32,14.327-32,32v23h64V42C448,24.327,433.673,10,416,10z"/>
<path d="M462,75.998h-4V42c0-23.159-18.841-42-42-42s-42,18.841-42,42v33.998h-36.333c-5.522,0-10,4.477-10,10s4.478,10,10,10H374
	v22.668c0,5.523,4.478,10,10,10s10-4.477,10-10V75h44v171.127h-44V190c0-5.523-4.478-10-10-10s-10,4.477-10,10v66.127
	c0,1.788,0.479,3.544,1.389,5.084l23.095,39.122H201.667c-5.522,0-10,4.478-10,10s4.478,10,10,10H456c5.522,0,10-4.478,10-10
	s-4.478-10-10-10h-22.484l23.095-39.122c0.909-1.54,1.389-3.296,1.389-5.084V95.998h4c16.542,0,30,13.458,30,30v214H74v-73.871h200
	c18.748,0,34-15.252,34-34V34c0-18.748-15.252-34-34-34H34C15.252,0,0,15.252,0,34v198.127c0,18.748,15.252,34,34,34h20v111.871
	c0,27.57,22.43,50,50,50h129.036v24.023c-27.12,0.526-49.024,22.735-49.024,49.979c0,5.522,4.478,10,10,10h178.049
	c5.522,0,10-4.478,10-10c0-27.244-21.904-49.453-49.024-49.979v-24.023H462c27.57,0,50-22.43,50-50v-252
	C512,98.428,489.57,75.998,462,75.998z M394,55V42c0-12.131,9.869-22,22-22s22,9.869,22,22v13H394z M430.484,266.127L416,290.662
	l-14.484-24.535L430.484,266.127L430.484,266.127z M34,20h240c7.72,0,14,6.28,14,14v38H20V34C20,26.28,26.28,20,34,20z M20,232.127
	V92h268v140.127c0,7.72-6.28,14-14,14H34C26.28,246.127,20,239.847,20,232.127z M360.348,492H205.725
	c4.128-11.643,15.252-20.004,28.291-20.004h98.041C345.096,471.996,356.22,480.357,360.348,492z M313.036,451.996h-60v-23.998h60
	V451.996z M462,407.998H104c-16.542,0-30-13.458-30-30v-18h418v18C492,394.54,478.542,407.998,462,407.998z"/>
<path d="M163,56h93.127c5.522,0,10-4.477,10-10s-4.478-10-10-10H163c-5.522,0-10,4.477-10,10S157.478,56,163,56z"/>
<path d="M79.2,56c2.64,0,5.22-1.07,7.08-2.93c1.859-1.86,2.93-4.44,2.93-7.07s-1.07-5.21-2.93-7.07S81.84,36,79.2,36
	c-2.631,0-5.2,1.07-7.061,2.93c-1.87,1.86-2.93,4.44-2.93,7.07s1.06,5.21,2.93,7.07C74,54.93,76.569,56,79.2,56z"/>
<path d="M45.08,56c2.63,0,5.21-1.07,7.069-2.93c1.86-1.86,2.931-4.44,2.931-7.07s-1.07-5.21-2.931-7.07
	C50.29,37.07,47.71,36,45.08,36s-5.21,1.07-7.07,2.93s-2.93,4.44-2.93,7.07s1.069,5.21,2.93,7.07S42.45,56,45.08,56z"/>
<path d="M113.33,56c2.64,0,5.21-1.07,7.069-2.93c1.86-1.86,2.931-4.44,2.931-7.07s-1.07-5.21-2.931-7.07
	c-1.859-1.86-4.43-2.93-7.069-2.93c-2.63,0-5.2,1.07-7.07,2.93c-1.86,1.86-2.93,4.44-2.93,7.07s1.069,5.21,2.93,7.07
	C108.13,54.93,110.7,56,113.33,56z"/>
<path d="M99.338,121.687c-3.904-3.905-10.234-3.905-14.143,0l-34.267,34.266c-1.875,1.875-2.929,4.419-2.929,7.071
	s1.054,5.196,2.929,7.071l34.267,34.267c1.953,1.953,4.512,2.929,7.071,2.929s5.118-0.976,7.071-2.929
	c3.905-3.905,3.905-10.237,0-14.143l-27.195-27.195l27.195-27.195C103.243,131.923,103.243,125.592,99.338,121.687z"/>
<path d="M222.805,121.686c-3.906-3.905-10.236-3.905-14.143,0c-3.905,3.905-3.905,10.237,0,14.142l27.195,27.195l-27.195,27.195
	c-3.905,3.905-3.905,10.237,0,14.143c1.953,1.953,4.512,2.929,7.071,2.929s5.118-0.976,7.071-2.929l34.267-34.267
	c1.875-1.875,2.929-4.419,2.929-7.071s-1.054-5.196-2.929-7.071L222.805,121.686z"/>
<path d="M183.258,113.237c-4.763-2.798-10.89-1.207-13.688,3.555l-48.383,82.331c-2.799,4.761-1.207,10.89,3.555,13.688
	c1.592,0.935,3.335,1.38,5.057,1.38c3.429,0,6.769-1.765,8.631-4.935l48.383-82.331C189.611,122.164,188.02,116.035,183.258,113.237
	z"/>
<path d="M384,164.67c2.63,0,5.21-1.07,7.069-2.93c1.86-1.86,2.931-4.44,2.931-7.07c0-2.64-1.07-5.21-2.931-7.07
	c-1.859-1.87-4.439-2.93-7.069-2.93s-5.21,1.06-7.07,2.93c-1.86,1.86-2.93,4.43-2.93,7.07c0,2.63,1.069,5.21,2.93,7.07
	S381.37,164.67,384,164.67z"/>
<path d="M155.84,300.333c-5.522,0-10,4.478-10,10s4.478,10,10,10h1.561c5.522,0,10-4.478,10-10s-4.478-10-10-10H155.84z"/>
<g>
</g>
<g>
</g>
<g>
</g>
<g>
</g>
<g>
</g>
<g>
</g>
<g>
</g>
<g>
</g>
<g>
</g>
<g>
</g>
<g>
</g>
<g>
</g>
<g>
</g>
<g>
</g>
<g>
</g>
</svg>
