<?xml version="1.0" encoding="iso-8859-1"?>
<!-- Generator: Adobe Illustrator 19.0.0, SVG Export Plug-In . SVG Version: 6.00 Build 0)  -->
<svg version="1.1" id="Capa_1" xmlns="http://www.w3.org/2000/svg" xmlns:xlink="http://www.w3.org/1999/xlink" x="0px" y="0px"
	 viewBox="0 0 512 512" style="enable-background:new 0 0 512 512;" xml:space="preserve">
<rect x="211.998" y="403.996" style="fill:#F0F0FA;" width="87.999" height="57.999"/>
<path style="fill:#78D2FA;" d="M156.001,502h199.998v-8c0-17.673-14.327-32-32-32H188c-17.673,0-32,14.327-32,32L156.001,502
	L156.001,502z"/>
<path style="fill:#FFFFFF;" d="M469.999,50c17.673,0,32,14.327,32,32v281.997c0,22.091-17.909,40-40,40H50.003
	c-22.091,0-40-17.909-40-40V82c0-17.673,14.327-32,32-32C42.003,50,469.999,50,469.999,50z"/>
<polygon style="fill:#F5C86E;" points="152.275,324.001 152.275,107 108.138,10 64.002,107 64.002,324.001 "/>
<polygon style="fill:#BEBEBE;" points="152.275,107 108.138,10 64.002,107 "/>
<path style="fill:#78D2FA;" d="M10.002,323.664v40.333c0,22.091,17.909,40,40,40h411.996c22.091,0,40-17.909,40-40v-40.333H10.002z"
	/>
<polyline style="fill:#6E87F5;" points="212.044,323.589 212.044,166.883 300.043,166.883 300.043,323.589 "/>
<rect x="367.997" y="9.999" style="fill:#F5B955;" width="79.999" height="313.997"/>
<polygon style="fill:#78D2FA;" points="255.79,10 255.79,10 255.79,10 255.79,10 255.79,10 195.562,116.999 212.044,166.883 
	300.043,166.883 318.333,116.999 "/>
<polygon style="fill:#878791;" points="81.292,69 134.984,69 108.138,10 "/>
<path d="M256.948,353.997c-5.523,0-10,4.478-10,10s4.477,10,10,10h0.095c5.523,0,9.952-4.478,9.952-10
	S262.471,353.997,256.948,353.997z"/>
<path d="M469.999,40h-12V10c0-5.523-4.477-10-10-10H368c-5.523,0-10,4.477-10,10v304.001h-47.957V168.658l17.679-48.217
	c1.027-2.801,0.75-5.914-0.755-8.489l-30.368-51.953H325.5c5.523,0,10-4.477,10-10s-4.477-10-10-10h-40.592L264.423,4.955
	c-1.808-3.093-5.133-5.018-8.715-4.953c-3.583,0.029-6.875,1.972-8.633,5.094l-60.227,106.999c-1.38,2.452-1.664,5.371-0.781,8.042
	l15.977,48.356v145.509h-39.771V107c0-1.429-0.306-2.841-0.898-4.142L141.874,60h45.126c5.523,0,10-4.477,10-10s-4.477-10-10-10
	h-52.666c-0.512,0-1.011,0.051-1.503,0.125L117.24,5.859c-1.624-3.568-5.182-5.858-9.102-5.858s-7.479,2.291-9.102,5.858L83.501,40
	h-41.5c-23.159,0-42,18.841-42,42v281.997c0,27.57,22.43,50,50,50H202V452h-14c-23.159,0-42,18.841-42,42v8c0,5.522,4.477,10,10,10
	h199.998c5.523,0,10-4.478,10-10v-8c0-23.159-18.841-42-42-42h-14v-38.004h151.999c27.57,0,50-22.43,50-50V82
	C511.998,58.841,493.156,40,469.999,40z M378,299.998h21.25c5.523,0,10-4.478,10-10s-4.477-10-10-10H378v-20h8.951
	c5.523,0,10-4.477,10-10c0-5.523-4.477-10-10-10H378v-20h21.25c5.523,0,10-4.477,10-10s-4.477-10-10-10H378v-20h8.951
	c5.523,0,10-4.477,10-10c0-5.523-4.477-10-10-10H378v-20h21.25c5.523,0,10-4.477,10-10c0-5.523-4.477-10-10-10H378v-20h8.951
	c5.523,0,10-4.477,10-10s-4.477-10-10-10H378V60h21.25c5.523,0,10-4.477,10-10s-4.477-10-10-10H378V20h59.999v294.001H378V299.998z
	 M246,47.779v35.207c0,5.523,4.477,10,10,10c5.523,0,10-4.477,10-10V47.285l41.323,70.695l-14.264,38.904h-73.787l-12.829-38.828
	L246,47.779z M263.667,231.664c-5.523,0-10,4.477-10,10v72.337h-31.623V176.883h67.999v137.119h-16.377v-72.337
	C273.667,236.141,269.19,231.664,263.667,231.664z M136.738,97H79.539l8.19-18h40.819L136.738,97z M74.002,116.999h68.272v197.002
	H74.002V116.999z M108.138,34.146L119.447,59H96.829L108.138,34.146z M20.002,82c0-12.131,9.869-22,22-22h32.399L54.9,102.858
	c-0.592,1.301-0.898,2.713-0.898,4.142v207.002h-34C20.002,314.002,20.002,82,20.002,82z M324,472c11.457,0,20.896,8.803,21.91,20
	H166.092c1.013-11.197,10.453-20,21.91-20h24H300H324z M222,452v-38.004h67.999V452H222z M491.998,363.997c0,16.542-13.458,30-30,30
	H300h-87.999H50.003c-16.542,0-30-13.458-30-30v-29.996H368h79.999h44V363.997z M491.998,314.002h-34V60h12c12.131,0,22,9.869,22,22
	V314.002z"/>
<path d="M100.335,188.499c-5.523,0-10,4.477-10,10v73c0,5.522,4.477,10,10,10s10-4.478,10-10v-73
	C110.335,192.976,105.858,188.499,100.335,188.499z"/>
<path d="M100.331,169.499c2.64,0,5.21-1.07,7.07-2.93c1.87-1.86,2.93-4.44,2.93-7.07c0-2.64-1.06-5.21-2.93-7.07
	c-1.86-1.86-4.43-2.93-7.07-2.93c-2.63,0-5.21,1.07-7.07,2.93c-1.86,1.86-2.93,4.44-2.93,7.07c0,2.63,1.07,5.21,2.93,7.07
	S97.701,169.499,100.331,169.499z"/>
<path d="M256.001,126.999c2.63,0,5.21-1.07,7.07-2.93c1.86-1.86,2.93-4.44,2.93-7.07c0-2.63-1.07-5.21-2.93-7.07
	c-1.86-1.86-4.44-2.93-7.07-2.93c-2.63,0-5.21,1.07-7.07,2.93c-1.86,1.86-2.93,4.44-2.93,7.07c0,2.63,1.07,5.21,2.93,7.07
	C250.791,125.929,253.37,126.999,256.001,126.999z"/>
<g>
</g>
<g>
</g>
<g>
</g>
<g>
</g>
<g>
</g>
<g>
</g>
<g>
</g>
<g>
</g>
<g>
</g>
<g>
</g>
<g>
</g>
<g>
</g>
<g>
</g>
<g>
</g>
<g>
</g>
</svg>
