<?xml version="1.0" encoding="iso-8859-1"?>
<!-- Generator: Adobe Illustrator 19.0.0, SVG Export Plug-In . SVG Version: 6.00 Build 0)  -->
<svg version="1.1" id="Capa_1" xmlns="http://www.w3.org/2000/svg" xmlns:xlink="http://www.w3.org/1999/xlink" x="0px" y="0px"
	 viewBox="0 0 512 512" style="enable-background:new 0 0 512 512;" xml:space="preserve">
<rect x="412" y="10" style="fill:#AAE6FF;" width="60" height="492"/>
<rect x="119" y="42" style="fill:#C8F5FF;" width="293" height="44"/>
<path style="fill:#78D2FA;" d="M338,150.5H34c-13.255,0-24,10.745-24,24V502h352V174.5C362,161.245,351.255,150.5,338,150.5z"/>
<rect x="10" y="215" style="fill:#FFFFFF;" width="352" height="287"/>
<rect x="58" y="255" style="fill:#A5DC69;" width="256" height="80"/>
<g>
	<rect x="58" y="375" style="fill:#FF5A5A;" width="49.548" height="48"/>
	<rect x="161.23" y="375" style="fill:#FF5A5A;" width="49.548" height="48"/>
	<rect x="264.45" y="375" style="fill:#FF5A5A;" width="49.548" height="48"/>
</g>
<path d="M155.75,285c-2.63,0-5.21,1.069-7.07,2.93c-1.86,1.86-2.93,4.44-2.93,7.07s1.07,5.21,2.93,7.069
	c1.86,1.86,4.44,2.931,7.07,2.931s5.21-1.07,7.07-2.931c1.86-1.859,2.93-4.439,2.93-7.069s-1.07-5.21-2.93-7.07
	S158.38,285,155.75,285z"/>
<path d="M217,192.75h107.333c5.523,0,10-4.477,10-10s-4.477-10-10-10H217c-5.523,0-10,4.477-10,10S211.477,192.75,217,192.75z"/>
<path d="M86.83,172.75c-2.63,0-5.21,1.07-7.07,2.93c-1.86,1.86-2.93,4.44-2.93,7.07s1.07,5.21,2.93,7.07s4.44,2.93,7.07,2.93
	s5.21-1.07,7.08-2.93c1.86-1.86,2.92-4.44,2.92-7.07s-1.06-5.21-2.92-7.07C92.04,173.82,89.46,172.75,86.83,172.75z"/>
<path d="M45.67,172.75c-2.64,0-5.21,1.07-7.07,2.93c-1.87,1.86-2.93,4.44-2.93,7.07s1.06,5.21,2.93,7.07
	c1.86,1.86,4.43,2.93,7.07,2.93c2.63,0,5.21-1.07,7.07-2.93c1.86-1.86,2.93-4.44,2.93-7.07s-1.07-5.21-2.93-7.07
	C50.88,173.82,48.3,172.75,45.67,172.75z"/>
<path d="M135.07,175.68c-1.86-1.86-4.44-2.93-7.07-2.93c-2.63,0-5.21,1.07-7.07,2.93c-1.86,1.86-2.93,4.44-2.93,7.07
	s1.07,5.21,2.93,7.07s4.44,2.93,7.07,2.93c2.63,0,5.21-1.07,7.07-2.93s2.93-4.44,2.93-7.07S136.93,177.54,135.07,175.68z"/>
<path d="M362,343.67c-2.63,0-5.21,1.06-7.07,2.93c-1.86,1.86-2.93,4.44-2.93,7.07s1.07,5.2,2.93,7.07
	c1.86,1.859,4.44,2.93,7.07,2.93s5.21-1.07,7.07-2.93c1.86-1.86,2.93-4.44,2.93-7.07c0-2.64-1.07-5.21-2.93-7.07
	C367.21,344.729,364.63,343.67,362,343.67z"/>
<path d="M117.548,375c0-5.522-4.477-10-10-10H58c-5.523,0-10,4.478-10,10v48c0,5.522,4.477,10,10,10h49.548c5.523,0,10-4.478,10-10
	C117.548,423,117.548,375,117.548,375z M97.548,413H68v-28h29.548C97.548,385,97.548,413,97.548,413z"/>
<path d="M220.774,375c0-5.522-4.477-10-10-10h-49.549c-5.523,0-10,4.478-10,10v48c0,5.522,4.477,10,10,10h49.549
	c5.523,0,10-4.478,10-10V375z M200.774,413h-29.549v-28h29.549V413z"/>
<path d="M324,375c0-5.522-4.477-10-10-10h-49.548c-5.523,0-10,4.478-10,10v48c0,5.522,4.477,10,10,10H314c5.523,0,10-4.478,10-10
	V375z M304,413h-29.548v-28H304V413z"/>
<path d="M107.548,452.996H58c-5.523,0-10,4.478-10,10s4.477,10,10,10h49.548c5.523,0,10-4.478,10-10
	S113.071,452.996,107.548,452.996z"/>
<path d="M210.774,452.996h-49.549c-5.523,0-10,4.478-10,10s4.477,10,10,10h49.549c5.523,0,10-4.478,10-10
	S216.297,452.996,210.774,452.996z"/>
<path d="M314,452.996h-49.548c-5.523,0-10,4.478-10,10s4.477,10,10,10H314c5.523,0,10-4.478,10-10S319.523,452.996,314,452.996z"/>
<path d="M502,492h-20V10c0-5.523-4.477-10-10-10h-60c-5.523,0-10,4.477-10,10v22H119c-5.523,0-10,4.477-10,10v44
	c0,5.523,4.477,10,10,10h57v44.5H34c-18.748,0-34,15.252-34,34V502c0,5.522,4.477,10,10,10h352c5.523,0,10-4.478,10-10V388
	c0-5.522-4.477-10-10-10s-10,4.478-10,10v104H20V225h156v20H58c-5.523,0-10,4.477-10,10v80c0,5.522,4.477,10,10,10h256
	c5.523,0,10-4.478,10-10v-80c0-5.523-4.477-10-10-10H196v-20h156v88c0,5.522,4.477,10,10,10s10-4.478,10-10V174.5
	c0-18.748-15.252-34-34-34H196V96h206v396h-17.68c-5.523,0-10,4.478-10,10s4.477,10,10,10H412h60h30c5.523,0,10-4.478,10-10
	S507.523,492,502,492z M304,325H68v-20h49.917c5.523,0,10-4.478,10-10s-4.477-10-10-10H68v-20h236V325z M20,205v-30.5
	c0-7.72,6.28-14,14-14h142V205H20z M338,160.5c7.72,0,14,6.28,14,14V205H196v-44.5H338z M149.583,76L178.2,55.63L206.816,76H149.583
	z M207.588,52h58.302l-29.151,20.75L207.588,52z M295.278,55.63L323.895,76h-57.234L295.278,55.63z M324.667,52h58.302
	l-29.151,20.75L324.667,52z M422,86V45.997c0.284-1.04,0.392-2.122,0.332-3.203L457.8,78.261l-35.8,35.8V86z M422,162.137
	l35.8,35.799l-35.8,35.8V162.137z M426.246,257.774L462,222.021v71.507L426.246,257.774z M457.8,317.612L422,353.411v-71.599
	L457.8,317.612z M462,173.852l-35.754-35.753L462,102.345V173.852z M422,401.488l35.8,35.8l-35.8,35.8V401.488z M426.246,377.449
	L462,341.696v71.507L426.246,377.449z M462,54.177L427.823,20H462V54.177z M148.811,52L129,66.102V52H148.811z M383.74,76
	L402,63.003V76H383.74z M431.371,492L462,461.371V492H431.371z"/>
<g>
</g>
<g>
</g>
<g>
</g>
<g>
</g>
<g>
</g>
<g>
</g>
<g>
</g>
<g>
</g>
<g>
</g>
<g>
</g>
<g>
</g>
<g>
</g>
<g>
</g>
<g>
</g>
<g>
</g>
</svg>
