<?xml version="1.0" encoding="iso-8859-1"?>
<!-- Generator: Adobe Illustrator 19.0.0, SVG Export Plug-In . SVG Version: 6.00 Build 0)  -->
<svg version="1.1" id="Capa_1" xmlns="http://www.w3.org/2000/svg" xmlns:xlink="http://www.w3.org/1999/xlink" x="0px" y="0px"
	 viewBox="0 0 512 512" style="enable-background:new 0 0 512 512;" xml:space="preserve">
<path style="fill:#FFFFFF;" d="M82,502H50c-22.091,0-40-17.909-40-40V50c0-22.091,17.909-40,40-40h412c22.091,0,40,17.909,40,40v412
	c0,22.091-17.909,40-40,40h-41H82z"/>
<path style="fill:#A5DC69;" d="M462,10H50c-22.091,0-40,17.909-40,40v32h492V50C502,27.909,484.091,10,462,10z"/>
<path style="fill:#231F20;" d="M21.004,82H496"/>
<g>
	<rect x="64.5" y="138" style="fill:#78D2FA;" width="56" height="56"/>
	<rect x="64.5" y="250" style="fill:#78D2FA;" width="56" height="56"/>
	<rect x="64.5" y="362" style="fill:#78D2FA;" width="56" height="56"/>
</g>
<path d="M462,0H50C22.43,0,0,22.43,0,50v412c0,27.57,22.43,50,50,50h288.773c5.522,0,10-4.477,10-10s-4.478-10-10-10H50
	c-13.034,0-24.148-8.358-28.278-19.994H120.5c5.522,0,10-4.477,10-10s-4.478-10-10-10H20V91.949C20.33,91.982,20.665,92,21.004,92
	H492v370c0,16.542-13.458,30-30,30h-41c-5.522,0-10,4.477-10,10s4.478,10,10,10h41c27.57,0,50-22.43,50-50V50
	C512,22.43,489.57,0,462,0z M21.004,72c-0.339,0-0.674,0.018-1.004,0.051V50c0-16.542,13.458-30,30-30h412c16.542,0,30,13.458,30,30
	v22H21.004z"/>
<path d="M149.1,454.92c-1.87,1.86-2.93,4.44-2.93,7.07c0,2.64,1.06,5.21,2.93,7.07c1.86,1.87,4.44,2.93,7.07,2.93
	s5.21-1.06,7.07-2.93c1.859-1.86,2.93-4.44,2.93-7.07s-1.07-5.2-2.93-7.07c-1.86-1.86-4.44-2.93-7.07-2.93
	C153.53,451.99,150.96,453.06,149.1,454.92z"/>
<path d="M381,492c-2.63,0-5.21,1.07-7.07,2.93c-1.86,1.86-2.93,4.44-2.93,7.07s1.069,5.21,2.93,7.07S378.37,512,381,512
	s5.21-1.07,7.069-2.93c1.86-1.86,2.931-4.44,2.931-7.07s-1.07-5.21-2.931-7.07C386.21,493.07,383.63,492,381,492z"/>
<path d="M448,36H222.065c-5.522,0-10,4.477-10,10s4.478,10,10,10H448c5.522,0,10-4.477,10-10S453.522,36,448,36z"/>
<path d="M104,36c-2.63,0-5.21,1.07-7.07,2.93C95.069,40.79,94,43.37,94,46s1.069,5.21,2.93,7.07S101.37,56,104,56
	s5.21-1.07,7.069-2.93C112.93,51.21,114,48.63,114,46s-1.07-5.21-2.931-7.07C109.21,37.07,106.63,36,104,36z"/>
<path d="M64,36c-2.63,0-5.21,1.07-7.07,2.93C55.069,40.79,54,43.37,54,46s1.069,5.21,2.93,7.07S61.37,56,64,56
	c2.63,0,5.21-1.07,7.069-2.93C72.93,51.21,74,48.63,74,46s-1.07-5.21-2.931-7.07C69.21,37.07,66.63,36,64,36z"/>
<path d="M144,36c-2.63,0-5.21,1.07-7.07,2.93S134,43.37,134,46s1.069,5.21,2.93,7.07S141.37,56,144,56s5.21-1.07,7.069-2.93
	C152.93,51.21,154,48.63,154,46s-1.07-5.21-2.931-7.07C149.21,37.07,146.63,36,144,36z"/>
<path d="M130.5,138c0-5.523-4.478-10-10-10h-56c-5.522,0-10,4.477-10,10v56c0,5.523,4.478,10,10,10h56c5.522,0,10-4.477,10-10V138z
	 M110.5,184h-36v-36h36V184z"/>
<path d="M130.5,250c0-5.523-4.478-10-10-10h-56c-5.522,0-10,4.477-10,10v56c0,5.523,4.478,10,10,10h56c5.522,0,10-4.477,10-10V250z
	 M110.5,296h-36v-36h36V296z"/>
<path d="M120.5,352h-56c-5.522,0-10,4.477-10,10v56c0,5.523,4.478,10,10,10h56c5.522,0,10-4.477,10-10v-56
	C130.5,356.477,126.022,352,120.5,352z M110.5,408h-36v-36h36V408z"/>
<path d="M183.417,184H183c-5.522,0-10,4.477-10,10s4.478,10,10,10h0.417c5.522,0,10-4.477,10-10S188.939,184,183.417,184z"/>
<path d="M183.417,296H183c-5.522,0-10,4.477-10,10s4.478,10,10,10h0.417c5.522,0,10-4.477,10-10S188.939,296,183.417,296z"/>
<path d="M183,407.09c-2.641,0-5.21,1.06-7.07,2.93c-1.86,1.86-2.93,4.43-2.93,7.07c0,2.63,1.069,5.21,2.93,7.07
	c1.86,1.86,4.44,2.93,7.07,2.93s5.21-1.07,7.069-2.93c1.86-1.86,2.931-4.44,2.931-7.07c0-2.64-1.07-5.21-2.931-7.07
	C188.21,408.15,185.63,407.09,183,407.09z"/>
<path d="M355.037,148.914c5.522,0,10-4.477,10-10s-4.478-10-10-10h-27.824c-5.522,0-10,4.477-10,10V194c0,5.523,4.478,10,10,10
	h27.824c5.522,0,10-4.477,10-10s-4.478-10-10-10h-17.824v-7.543h10.517c5.522,0,10-4.477,10-10s-4.478-10-10-10h-10.517v-7.543
	H355.037z"/>
<path d="M418.045,204c5.522,0,10-4.477,10-10v-45.086h12.499c5.522,0,10-4.477,10-10s-4.478-10-10-10h-44.998
	c-5.522,0-10,4.477-10,10s4.478,10,10,10h12.499V194C408.045,199.523,412.522,204,418.045,204z"/>
<path d="M238.127,194v-30.944l38.015,38.015c1.913,1.913,4.471,2.929,7.073,2.929c1.288,0,2.588-0.25,3.825-0.762
	c3.736-1.548,6.173-5.194,6.173-9.239v-55.086c0-5.523-4.478-10-10-10s-10,4.477-10,10v30.944l-38.015-38.015
	c-2.859-2.86-7.161-3.715-10.898-2.167c-3.736,1.548-6.173,5.194-6.173,9.239V194c0,5.523,4.478,10,10,10
	S238.127,199.523,238.127,194z"/>
<path d="M427.528,396.614L438,386.142v30.944c0,5.523,4.478,10,10,10s10-4.477,10-10V362c0-4.044-2.437-7.691-6.173-9.239
	s-8.038-0.691-10.898,2.167L420.457,375.4l-20.472-20.472c-2.86-2.86-7.161-3.714-10.898-2.167
	c-3.736,1.548-6.173,5.194-6.173,9.239v55.086c0,5.523,4.478,10,10,10s10-4.477,10-10v-30.944l10.472,10.472
	C417.292,400.52,423.622,400.52,427.528,396.614z"/>
<path d="M295.5,390c0,20.953,17.047,38,38,38s38-17.047,38-38s-17.047-38-38-38S295.5,369.047,295.5,390z M333.5,372
	c9.925,0,18,8.075,18,18s-8.075,18-18,18s-18-8.075-18-18S323.575,372,333.5,372z"/>
<path d="M256.127,372c4.808,0,9.328,1.872,12.728,5.272c3.906,3.906,10.236,3.906,14.143,0c3.905-3.905,3.905-10.237,0-14.142
	c-7.178-7.178-16.72-11.13-26.87-11.13s-19.692,3.953-26.87,11.13c-14.815,14.816-14.815,38.924,0,53.74
	c7.178,7.178,16.72,11.13,26.87,11.13s19.692-3.953,26.87-11.13c3.905-3.905,3.905-10.237,0-14.142
	c-3.906-3.905-10.236-3.905-14.143,0c-3.399,3.4-7.92,5.272-12.728,5.272s-9.328-1.872-12.728-5.272
	c-7.019-7.018-7.019-18.437,0-25.456C246.799,373.872,251.319,372,256.127,372z"/>
<path d="M256.127,240c-20.953,0-38,17.047-38,38s17.047,38,38,38s38-17.047,38-38S277.08,240,256.127,240z M256.127,296
	c-9.925,0-18-8.075-18-18s8.075-18,18-18c9.925,0,18,8.075,18,18S266.052,296,256.127,296z"/>
<path d="M309.213,250v55.543c0,5.523,4.478,10,10,10s10-4.477,10-10v-5.854l23.964,14.422c1.613,0.971,3.392,1.434,5.146,1.434
	c3.393,0,6.701-1.727,8.578-4.845c2.848-4.732,1.32-10.876-3.412-13.724l-11.421-6.873c9.526-3.862,16.265-13.207,16.265-24.102
	c0-14.336-11.663-26-26-26h-23.12C313.69,240,309.213,244.477,309.213,250z M329.213,260h13.12c3.309,0,6,2.691,6,6s-2.691,6-6,6
	h-13.12v-3V260z"/>
<path d="M420.457,316c20.953,0,38-17.047,38-38c0-5.523-4.478-10-10-10H433c-5.522,0-10,4.477-10,10s4.478,10,10,10h2.417
	c-3.232,4.821-8.731,8-14.96,8c-9.925,0-18-8.075-18-18s8.075-18,18-18c5.522,0,10-4.477,10-10s-4.478-10-10-10
	c-20.953,0-38,17.047-38,38S399.504,316,420.457,316z"/>
<g>
</g>
<g>
</g>
<g>
</g>
<g>
</g>
<g>
</g>
<g>
</g>
<g>
</g>
<g>
</g>
<g>
</g>
<g>
</g>
<g>
</g>
<g>
</g>
<g>
</g>
<g>
</g>
<g>
</g>
</svg>
