<?xml version="1.0" encoding="iso-8859-1"?>
<!-- Generator: Adobe Illustrator 19.0.0, SVG Export Plug-In . SVG Version: 6.00 Build 0)  -->
<svg version="1.1" id="Capa_1" xmlns="http://www.w3.org/2000/svg" xmlns:xlink="http://www.w3.org/1999/xlink" x="0px" y="0px"
	 viewBox="0 0 512 512" style="enable-background:new 0 0 512 512;" xml:space="preserve">
<path style="fill:#F5B955;" d="M502,280l-28,51l-28-51V30.167C446,19.029,455.029,10,466.167,10h15.667
	C492.971,10,502,19.029,502,30.167V280z"/>
<polygon style="fill:#BEBEBE;" points="502,280 446,280 474,331 "/>
<path style="fill:#FF5A5A;" d="M481.833,10h-15.667C455.029,10,446,19.029,446,30.167V65h56V30.167
	C502,19.029,492.971,10,481.833,10z"/>
<path style="fill:#78D2FA;" d="M454,502.004L454,502.004c26.51,0,48-21.49,48-48V384h-96v70.004
	C406,480.514,427.49,502.004,454,502.004z"/>
<rect x="80.25" y="82" style="fill:#FF5A5A;" width="255.5" height="88"/>
<g>
	<rect x="80.25" y="210.06" style="fill:#A5DC69;" width="48" height="48"/>
	<rect x="183.75" y="210.06" style="fill:#A5DC69;" width="48" height="48"/>
	<rect x="287.75" y="210.06" style="fill:#A5DC69;" width="48" height="48"/>
</g>
<rect x="80.25" y="387.09" style="fill:#FF9155;" width="255.5" height="60.911"/>
<path d="M502,374h-49.5c-5.523,0-10,4.477-10,10s4.477,10,10,10H492v60c0,20.953-17.047,38-38,38s-38-17.047-38-38V10
	c0-5.523-4.477-10-10-10H149.336H10C4.477,0,0,4.477,0,10v444c0,31.981,26.019,58,58,58h396c31.981,0,58-26.019,58-58v-70
	C512,378.477,507.523,374,502,374z M20,454V20h129.336H396v434c0,14.527,5.381,27.813,14.238,38H58C37.047,492,20,474.953,20,454z"
	/>
<path d="M215,92c2.63,0,5.21-1.07,7.07-2.93S225,84.63,225,82s-1.07-5.21-2.93-7.07C220.21,73.07,217.63,72,215,72
	s-5.21,1.07-7.07,2.93C206.07,76.79,205,79.37,205,82s1.07,5.21,2.93,7.07C209.79,90.93,212.37,92,215,92z"/>
<path d="M335.752,72H253.5c-5.523,0-10,4.477-10,10s4.477,10,10,10h72.252v68H90.249V92h80.501c5.523,0,10-4.477,10-10
	s-4.477-10-10-10H80.249c-5.523,0-10,4.477-10,10v88c0,5.523,4.477,10,10,10h255.503c5.523,0,10-4.477,10-10V82
	C345.752,76.477,341.275,72,335.752,72z"/>
<path d="M80.249,268.058h48c5.523,0,10-4.477,10-10v-48c0-5.523-4.477-10-10-10h-48c-5.523,0-10,4.477-10,10v48
	C70.249,263.581,74.726,268.058,80.249,268.058z M90.249,220.058h28v28h-28V220.058z"/>
<path d="M231.752,200.058h-48c-5.523,0-10,4.477-10,10v48c0,5.523,4.477,10,10,10h48c5.523,0,10-4.477,10-10v-48
	C241.752,204.535,237.275,200.058,231.752,200.058z M221.752,248.058h-28v-28h28V248.058z"/>
<path d="M335.752,200.058h-48c-5.523,0-10,4.477-10,10v48c0,5.523,4.477,10,10,10h48c5.523,0,10-4.477,10-10v-48
	C345.752,204.535,341.275,200.058,335.752,200.058z M325.752,248.058h-28v-28h28V248.058z"/>
<path d="M80.249,309.089H128c5.523,0,10-4.477,10-10s-4.477-10-10-10H80.249c-5.523,0-10,4.477-10,10S74.726,309.089,80.249,309.089
	z"/>
<path d="M231.876,289.089h-47.751c-5.523,0-10,4.477-10,10s4.477,10,10,10h47.751c5.523,0,10-4.477,10-10
	S237.399,289.089,231.876,289.089z"/>
<path d="M287.877,309.089h47.751c5.523,0,10-4.477,10-10s-4.477-10-10-10h-47.751c-5.523,0-10,4.477-10,10
	S282.354,309.089,287.877,309.089z"/>
<path d="M80.249,349.089H128c5.523,0,10-4.477,10-10s-4.477-10-10-10H80.249c-5.523,0-10,4.477-10,10S74.726,349.089,80.249,349.089
	z"/>
<path d="M335.752,377.089H80.249c-5.523,0-10,4.477-10,10V448c0,5.523,4.477,10,10,10h255.503c5.523,0,10-4.477,10-10v-60.911
	C345.752,381.566,341.275,377.089,335.752,377.089z M325.752,438H90.249v-40.911h235.503V438z"/>
<path d="M231.876,329.089h-47.751c-5.523,0-10,4.477-10,10s4.477,10,10,10h47.751c5.523,0,10-4.477,10-10
	S237.399,329.089,231.876,329.089z"/>
<path d="M287.877,349.089h47.751c5.523,0,10-4.477,10-10s-4.477-10-10-10h-47.751c-5.523,0-10,4.477-10,10
	S282.354,349.089,287.877,349.089z"/>
<path d="M446,152.5c2.63,0,5.21-1.07,7.07-2.94c1.86-1.86,2.93-4.43,2.93-7.07c0-2.63-1.07-5.2-2.93-7.07
	c-1.86-1.86-4.44-2.93-7.07-2.93s-5.21,1.07-7.07,2.93c-1.86,1.86-2.93,4.44-2.93,7.07c0,2.64,1.07,5.22,2.93,7.07
	C440.79,151.43,443.37,152.5,446,152.5z"/>
<path d="M481.833,0h-15.667C449.533,0,436,13.533,436,30.167v75.5c0,5.523,4.477,10,10,10s10-4.477,10-10V75h36v195h-36v-90
	c0-5.523-4.477-10-10-10s-10,4.477-10,10v100c0,1.683,0.424,3.338,1.234,4.813l28,51c1.756,3.199,5.116,5.188,8.766,5.188
	s7.009-1.988,8.766-5.188l28-51c0.81-1.475,1.234-3.13,1.234-4.813V30.167C512,13.533,498.467,0,481.833,0z M456,55V30.167
	C456,24.561,460.561,20,466.167,20h15.667C487.439,20,492,24.561,492,30.167V55H456z M474,310.221L462.898,290h22.204L474,310.221z"
	/>
<g>
</g>
<g>
</g>
<g>
</g>
<g>
</g>
<g>
</g>
<g>
</g>
<g>
</g>
<g>
</g>
<g>
</g>
<g>
</g>
<g>
</g>
<g>
</g>
<g>
</g>
<g>
</g>
<g>
</g>
</svg>
