<?xml version="1.0" encoding="iso-8859-1"?>
<!-- Generator: Adobe Illustrator 19.0.0, SVG Export Plug-In . SVG Version: 6.00 Build 0)  -->
<svg version="1.1" id="Capa_1" xmlns="http://www.w3.org/2000/svg" xmlns:xlink="http://www.w3.org/1999/xlink" x="0px" y="0px"
	 viewBox="0 0 512 512" style="enable-background:new 0 0 512 512;" xml:space="preserve">
<rect x="211.998" y="403.997" style="fill:#F0F0FA;" width="87.999" height="58"/>
<path style="fill:#78D2FA;" d="M156.001,502h199.998v-8c0-17.673-14.327-32-32-32H188.001c-17.673,0-32,14.327-32,32L156.001,502
	L156.001,502z"/>
<path style="fill:#FFFFFF;" d="M469.998,50c17.673,0,32,14.327,32,32v281.998c0,22.091-17.909,40-40,40H50.002
	c-22.091,0-40-17.909-40-40V81.999c0-17.673,14.327-32,32-32H469.998z"/>
<g>
	<path style="fill:#78D2FA;" d="M10.002,323.664v40.333c0,22.091,17.909,40,40,40h411.997c22.091,0,40-17.909,40-40v-40.333H10.002z
		"/>
	<rect x="85.119" y="179.189" style="fill:#78D2FA;" width="39.966" height="40"/>
	<rect x="386.917" y="179.189" style="fill:#78D2FA;" width="39.966" height="40"/>
	<path style="fill:#78D2FA;" d="M236.019,30V10h39.963v40h-39.963L236.019,30L236.019,30z"/>
</g>
<g>
	<circle style="fill:#F5B955;" cx="411.567" cy="30" r="20"/>
	<circle style="fill:#F5B955;" cx="100.439" cy="30" r="20"/>
</g>
<path style="fill:#D7D7E6;" d="M295.624,221.748l25.602-78.287l-0.675-0.585c-28.225-24.432-50.332-55.137-64.55-89.653l0,0l0,0
	c-14.218,34.517-36.325,65.221-64.549,89.653l-0.675,0.585l25.602,78.287H295.624z"/>
<rect x="216.378" y="221.748" style="fill:#6E87F5;" width="79.789" height="102.249"/>
<path d="M246.947,363.997c0,5.523,4.477,10,10,10h0.095c5.523,0,9.952-4.477,9.952-10c0-5.523-4.524-10-10.047-10
	C251.424,353.997,246.947,358.474,246.947,363.997z"/>
<path d="M456.328,333.997c2.64,0,5.21-1.06,7.08-2.92c1.86-1.87,2.92-4.44,2.92-7.08c0-2.63-1.06-5.21-2.92-7.07
	c-1.87-1.86-4.44-2.93-7.08-2.93c-2.63,0-5.21,1.07-7.07,2.93c-1.86,1.86-2.93,4.44-2.93,7.07c0,2.64,1.07,5.22,2.93,7.08
	C451.118,332.937,453.698,333.997,456.328,333.997z"/>
<path d="M132.151,291.068c1.86-1.86,2.93-4.44,2.93-7.07c0-2.63-1.07-5.21-2.93-7.07c-1.86-1.86-4.44-2.93-7.07-2.93
	s-5.21,1.07-7.07,2.93c-1.86,1.86-2.93,4.44-2.93,7.07c0,2.63,1.07,5.21,2.93,7.07c1.86,1.86,4.44,2.93,7.07,2.93
	C127.721,293.998,130.291,292.928,132.151,291.068z"/>
<path d="M469.998,40h-8c-5.523,0-10,4.477-10,10s4.477,10,10,10h8c12.131,0,22,9.869,22,22v281.998c0,16.542-13.458,30-30,30H50.002
	c-16.542,0-30-13.458-30-30v-29.996h391.664c5.523,0,10-4.477,10-10c0-5.523-4.477-10-10-10H306.167v-82.253h6.284
	c5.523,0,10-4.477,10-10s-4.477-10-10-10h-3.035l21.315-65.179c1.251-3.828,0.085-8.034-2.96-10.669l-0.675-0.584
	C303.107,114.551,283.524,88.682,269.949,60h6.032c5.523,0,10-4.477,10-10v-8.331c60.443,13.221,105.759,65.676,110.205,127.524
	h-9.268c-5.523,0-10,4.477-10,10v40c0,5.523,4.477,10,10,10h39.966c5.523,0,10-4.477,10-10v-40c0-5.523-4.477-10-10-10h-10.653
	c-2.191-35.247-15.912-68.872-39.203-95.602C365.285,60.116,351.488,48.804,336.284,40h47.001c4.128,11.639,15.243,20,28.28,20
	c16.542,0,30-13.458,30-30s-13.458-30-30-30c-13.036,0-24.151,8.361-28.28,20h-97.304V10c0-5.523-4.477-10-10-10h-39.963
	c-5.523,0-10,4.477-10,10v10h-97.304c-4.128-11.639-15.243-20-28.28-20c-16.542,0-30,13.458-30,30s13.458,30,30,30
	c13.037,0,24.152-8.361,28.28-20h46.826c-15.178,8.789-28.956,20.077-40.686,33.524c-23.329,26.741-37.07,60.392-39.263,95.67
	H85.116c-5.523,0-10,4.477-10,10v40c0,5.523,4.477,10,10,10h39.966c5.523,0,10-4.477,10-10v-40c0-5.523-4.477-10-10-10h-9.448
	c4.448-61.93,49.842-114.405,110.384-127.562V50c0,5.523,4.477,10,10,10h6.032c-13.575,28.683-33.158,54.552-57.146,75.315
	l-0.675,0.584c-3.045,2.636-4.212,6.841-2.96,10.669l21.315,65.18h-0.864c-5.523,0-10,4.477-10,10s4.477,10,10,10h4.656v82.253
	H20.002v-20.003h67.08c5.523,0,10-4.477,10-10c0-5.523-4.477-10-10-10h-67.08V81.999c0-12.131,9.869-22,22-22h7.985
	c5.523,0,10-4.477,10-10s-4.477-10-10-10h-7.985c-23.159,0-42,18.841-42,42v281.998c0,27.57,22.43,50,50,50H202V452h-14
	c-23.159,0-42,18.841-42,42v8c0,5.523,4.477,10,10,10h199.998c5.523,0,10-4.477,10-10v-8c0-23.159-18.841-42-42-42h-14v-38.004
	h151.999c27.57,0,50-22.43,50-50V81.999C511.998,58.841,493.157,40,469.998,40z M416.884,209.192h-19.966v-20h19.966V209.192z
	 M115.082,209.192H95.116v-20h19.966C115.082,189.193,115.082,209.192,115.082,209.192z M411.565,20c5.514,0,10,4.486,10,10
	s-4.486,10-10,10c-5.514,0-10-4.486-10-10S406.051,20,411.565,20z M246.019,20h19.963v20h-19.963L246.019,20L246.019,20z
	 M100.435,40c-5.514,0-10-4.486-10-10s4.486-10,10-10c5.514,0,10,4.486,10,10S105.949,40,100.435,40z M246,94.346v55.494
	c0,5.523,4.477,10,10,10c5.523,0,10-4.477,10-10V94.346c12.102,19.294,26.823,36.954,43.678,52.254l-21.305,65.148h-64.745
	L202.322,146.6C219.176,131.3,233.898,113.64,246,94.346z M226.376,231.748h59.791v82.253h-59.791V231.748z M345.909,492H166.091
	c1.013-11.198,10.453-20,21.91-20h135.999C335.456,472,344.895,480.802,345.909,492z M290,452H222v-38.004H290V452z"/>
<g>
</g>
<g>
</g>
<g>
</g>
<g>
</g>
<g>
</g>
<g>
</g>
<g>
</g>
<g>
</g>
<g>
</g>
<g>
</g>
<g>
</g>
<g>
</g>
<g>
</g>
<g>
</g>
<g>
</g>
</svg>
