<?xml version="1.0" encoding="iso-8859-1"?>
<!-- Generator: Adobe Illustrator 19.0.0, SVG Export Plug-In . SVG Version: 6.00 Build 0)  -->
<svg version="1.1" id="Capa_1" xmlns="http://www.w3.org/2000/svg" xmlns:xlink="http://www.w3.org/1999/xlink" x="0px" y="0px"
	 viewBox="0 0 511.999 511.999" style="enable-background:new 0 0 511.999 511.999;" xml:space="preserve">
<path style="fill:#78D2FA;" d="M167.011,502H345.06l0,0c0-22.094-17.91-40.004-40.004-40.004h-98.041
	C184.921,461.996,167.011,479.906,167.011,502L167.011,502z"/>
<rect x="216.039" y="418" style="fill:#F0F0FA;" width="80" height="43.998"/>
<path style="fill:#FFFFFF;" d="M330.233,85.998h104.766c22.091,0,40,17.909,40,40v252c0,22.091-17.909,40-40,40h-358
	c-22.091,0-40-17.909-40-40v-252c0-22.091,17.909-40,40-40h104.918"/>
<path style="fill:#78D2FA;" d="M434.999,417.998h-358c-22.091,0-40-17.909-40-40v-28h438v28
	C474.999,400.089,457.09,417.998,434.999,417.998z"/>
<g>
	<path style="fill:#A5DC69;" d="M155.926,177.226L155.926,177.226v128.337H99.18v-34.419
		C99.18,231.727,121.033,195.559,155.926,177.226z"/>
	<path style="fill:#A5DC69;" d="M356.072,177.226L356.072,177.226v128.337h56.746v-34.419
		C412.818,231.727,390.965,195.559,356.072,177.226z"/>
</g>
<path style="fill:#F5C86E;" d="M330.233,307.24l-11.632,23.188c-16.146,32.187-37.175,61.681-62.341,87.437l-0.129,0.132l0,0
	c-25.325-25.842-46.478-55.463-62.701-87.804l-11.514-22.953H330.233z"/>
<path style="fill:#FF5A5A;" d="M255.984,10L255.984,10c-63.243,50.593-100.058,127.19-100.058,208.178v87.385h100.058h0.03h100.058
	v-87.361C356.072,137.2,319.244,60.591,255.984,10L255.984,10z"/>
<circle style="fill:#FFFFFF;" cx="255.999" cy="200.15" r="48"/>
<path d="M352.068,340c-2.63,0-5.21,1.07-7.069,2.93c-1.86,1.86-2.931,4.44-2.931,7.07s1.07,5.21,2.931,7.07
	c1.859,1.86,4.439,2.93,7.069,2.93c2.631,0,5.21-1.07,7.07-2.93s2.93-4.44,2.93-7.07s-1.069-5.21-2.93-7.07
	C357.278,341.069,354.699,340,352.068,340z"/>
<path d="M434.999,75.998H326.67c-16.907-28.133-38.852-53.344-64.439-73.808c-3.652-2.921-8.842-2.919-12.494,0.001
	c-25.581,20.464-47.521,45.675-64.422,73.806H76.999c-27.57,0-50,22.43-50,50v252c0,27.57,22.43,50,50,50h129.036v24.023
	c-27.12,0.526-49.024,22.735-49.024,49.979c0,5.523,4.478,10,10,10h178.048c5.522,0,10-4.477,10-10
	c0-27.244-21.904-49.453-49.024-49.979v-24.023h128.964c27.57,0,50-22.43,50-50v-252C484.999,98.427,462.569,75.998,434.999,75.998z
	 M255.985,22.965c57.354,48.854,90.087,119.554,90.087,195.236v77.361H165.926v-77.385
	C165.926,142.508,198.648,71.818,255.985,22.965z M366.072,218.202v-22.654c23.004,18.011,36.745,45.681,36.745,75.596v24.419
	h-36.745V218.202z M314.871,315.563l-5.208,10.382c-14.181,28.27-32.17,54.313-53.538,77.533
	c-21.471-23.289-39.529-49.408-53.756-77.769l-5.09-10.147h117.592V315.563z M46.999,377.998v-18h121.646c5.522,0,10-4.477,10-10
	s-4.478-10-10-10H46.999v-214c0-16.542,13.458-30,30-30h97.404c-0.388,0.789-0.795,1.569-1.176,2.361
	c-10.707,22.277-18.362,46.094-22.797,70.477c-37.801,20.259-61.249,59.364-61.249,102.308v34.419c0,5.523,4.478,10,10,10h56.745
	l0,0l0,0h18.977l9.588,19.115c13.254,26.423,29.66,50.998,48.893,73.32h-17.35H76.999C60.457,407.998,46.999,394.54,46.999,377.998z
	 M145.926,195.548v100.015h-36.745v-24.419C109.18,241.229,122.922,213.559,145.926,195.548z M333.346,492H178.723
	c4.128-11.642,15.252-20.004,28.291-20.004h9.021h80h9.021C318.094,471.996,329.218,480.357,333.346,492z M286.035,451.996h-60
	v-23.998h30.097h0.015h29.889v23.998H286.035z M434.999,407.998H296.035H278.85c19.146-22.26,35.482-46.756,48.689-73.085
	l9.707-19.35h18.826h56.745c5.522,0,10-4.477,10-10v-34.419c0-42.946-23.45-82.052-61.253-102.31
	c-4.437-24.381-12.093-48.195-22.801-70.469c-0.382-0.794-0.79-1.576-1.18-2.367h97.416c16.542,0,30,13.458,30,30v214h-75.828
	c-5.522,0-10,4.477-10,10s4.478,10,10,10h75.828v18C464.999,394.54,451.541,407.998,434.999,407.998z"/>
<path d="M255.999,258.153c31.981,0,58-26.019,58-58s-26.019-58-58-58s-58,26.019-58,58S224.017,258.153,255.999,258.153z
	 M255.999,162.153c20.953,0,38,17.047,38,38s-17.047,38-38,38s-38-17.047-38-38S235.046,162.153,255.999,162.153z"/>
<path d="M75.999,149.998h27c5.522,0,10-4.477,10-10s-4.478-10-10-10h-27c-5.522,0-10,4.477-10,10S70.476,149.998,75.999,149.998z"/>
<path d="M112.999,179.998c0-5.523-4.478-10-10-10h-27c-5.522,0-10,4.477-10,10s4.478,10,10,10h27
	C108.521,189.998,112.999,185.521,112.999,179.998z"/>
<path d="M136.959,150c2.64,0,5.21-1.07,7.069-2.93c1.86-1.86,2.931-4.44,2.931-7.07s-1.07-5.21-2.931-7.07
	c-1.859-1.87-4.439-2.93-7.069-2.93s-5.21,1.06-7.07,2.93c-1.86,1.86-2.93,4.43-2.93,7.07c0,2.63,1.069,5.21,2.93,7.07
	S134.329,150,136.959,150z"/>
<g>
</g>
<g>
</g>
<g>
</g>
<g>
</g>
<g>
</g>
<g>
</g>
<g>
</g>
<g>
</g>
<g>
</g>
<g>
</g>
<g>
</g>
<g>
</g>
<g>
</g>
<g>
</g>
<g>
</g>
</svg>
