<?xml version="1.0" encoding="iso-8859-1"?>
<!-- Generator: Adobe Illustrator 19.0.0, SVG Export Plug-In . SVG Version: 6.00 Build 0)  -->
<svg version="1.1" id="Capa_1" xmlns="http://www.w3.org/2000/svg" xmlns:xlink="http://www.w3.org/1999/xlink" x="0px" y="0px"
	 viewBox="0 0 512 512" style="enable-background:new 0 0 512 512;" xml:space="preserve">
<path style="fill:#FFFFFF;" d="M470,10.009H206c-17.673,0-32,14.327-32,32v336c0,17.673,14.327,32,32,32h264
	c17.673,0,32-14.327,32-32v-336C502,24.336,487.673,10.009,470,10.009z"/>
<path style="fill:#4BB9F5;" d="M470,10.009H206c-17.673,0-32,14.327-32,32v40h328v-40C502,24.336,487.673,10.009,470,10.009z"/>
<rect x="214" y="130.01" style="fill:#F5B955;" width="248" height="96"/>
<path style="fill:#FFFFFF;" d="M306,101.99H42c-17.673,0-32,14.327-32,32v336c0,17.673,14.327,32,32,32h264
	c17.673,0,32-14.327,32-32v-336C338,116.317,323.673,101.99,306,101.99z"/>
<path style="fill:#A5DC69;" d="M306,101.99H42c-17.673,0-32,14.327-32,32v40h328v-40C338,116.317,323.673,101.99,306,101.99z"/>
<path style="fill:#231F20;" d="M18.141,173.99h315.908"/>
<rect x="50" y="221.99" style="fill:#F5C86E;" width="248" height="96"/>
<path style="fill:#231F20;" d="M351,82.009h147.049"/>
<rect x="50" y="365.99" style="fill:#A5DC69;" width="48" height="48"/>
<rect x="150" y="365.99" style="fill:#FF8C8C;" width="48" height="48"/>
<rect x="250" y="365.99" style="fill:#4BB9F5;" width="48" height="48"/>
<path d="M166.894,147.99H295c5.522,0,10-4.477,10-10s-4.478-10-10-10H166.894c-5.522,0-10,4.477-10,10
	S161.371,147.99,166.894,147.99z"/>
<path d="M79.55,147.987c2.63,0,5.21-1.06,7.06-2.93c1.87-1.85,2.931-4.43,2.931-7.07c0-2.63-1.061-5.21-2.931-7.07
	c-1.85-1.86-4.43-2.93-7.06-2.93c-2.64,0-5.22,1.07-7.08,2.93c-1.86,1.87-2.93,4.44-2.93,7.07c0,2.64,1.069,5.21,2.93,7.07
	C74.33,146.927,76.91,147.987,79.55,147.987z"/>
<path d="M49.95,147.987c2.63,0,5.21-1.06,7.069-2.93c1.86-1.86,2.931-4.43,2.931-7.07c0-2.63-1.07-5.21-2.931-7.07
	c-1.859-1.86-4.439-2.93-7.069-2.93c-2.631,0-5.21,1.07-7.07,2.93c-1.86,1.87-2.93,4.44-2.93,7.07s1.069,5.21,2.93,7.07
	C44.74,146.927,47.319,147.987,49.95,147.987z"/>
<path d="M109.14,147.987c2.63,0,5.21-1.06,7.07-2.93c1.859-1.86,2.93-4.43,2.93-7.07c0-2.63-1.07-5.2-2.93-7.07
	c-1.86-1.86-4.44-2.93-7.07-2.93s-5.21,1.07-7.07,2.93c-1.859,1.86-2.93,4.44-2.93,7.07c0,2.64,1.07,5.21,2.93,7.07
	C103.93,146.927,106.51,147.987,109.14,147.987z"/>
<path d="M179.5,231.987c2.63,0,5.21-1.06,7.069-2.92c1.86-1.87,2.931-4.45,2.931-7.08s-1.07-5.2-2.931-7.07
	c-1.859-1.86-4.439-2.93-7.069-2.93s-5.21,1.07-7.07,2.93c-1.86,1.86-2.93,4.44-2.93,7.07c0,2.64,1.069,5.21,2.93,7.08
	C174.29,230.927,176.87,231.987,179.5,231.987z"/>
<path d="M298,211.99h-84.001c-5.522,0-10,4.477-10,10s4.478,10,10,10H288v76H60v-76h82c5.522,0,10-4.477,10-10s-4.478-10-10-10H50
	c-5.522,0-10,4.477-10,10v96c0,5.523,4.478,10,10,10h248c5.522,0,10-4.477,10-10v-96C308,216.468,303.522,211.99,298,211.99z"/>
<path d="M469,46.01c0-5.523-4.478-10-10-10H330.894c-5.522,0-10,4.477-10,10s4.478,10,10,10H459C464.522,56.01,469,51.532,469,46.01
	z"/>
<path d="M243.54,36.007c-2.63,0-5.2,1.07-7.07,2.93c-1.86,1.86-2.92,4.44-2.92,7.07c0,2.64,1.06,5.21,2.92,7.07
	c1.86,1.87,4.44,2.93,7.07,2.93c2.64,0,5.21-1.06,7.069-2.93c1.87-1.86,2.94-4.44,2.94-7.07s-1.07-5.21-2.94-7.07
	C248.75,37.076,246.17,36.007,243.54,36.007z"/>
<path d="M213.95,36.007c-2.631,0-5.21,1.07-7.07,2.93s-2.93,4.44-2.93,7.07c0,2.64,1.069,5.21,2.93,7.07
	c1.86,1.87,4.439,2.93,7.07,2.93c2.63,0,5.21-1.06,7.069-2.93c1.86-1.86,2.931-4.43,2.931-7.07c0-2.63-1.07-5.21-2.931-7.07
	C219.16,37.076,216.58,36.007,213.95,36.007z"/>
<path d="M273.14,36.007c-2.63,0-5.21,1.07-7.07,2.93c-1.859,1.86-2.93,4.44-2.93,7.07c0,2.64,1.07,5.21,2.93,7.08
	c1.86,1.86,4.44,2.92,7.07,2.92s5.21-1.06,7.07-2.92c1.859-1.87,2.93-4.45,2.93-7.08s-1.07-5.2-2.93-7.07
	C278.35,37.076,275.77,36.007,273.14,36.007z"/>
<path d="M470,0.01H206c-23.159,0-42,18.841-42,42v49.98H42c-23.159,0-42,18.841-42,42v336c0,23.159,18.841,42,42,42h264
	c23.159,0,42-18.841,42-42v-49.98h122c23.159,0,42-18.841,42-42v-336C512,18.851,493.159,0.01,470,0.01z M42,111.99h264
	c12.131,0,22,9.869,22,22v30H20v-30C20,121.86,29.869,111.99,42,111.99z M328,469.99c0,12.131-9.869,22-22,22H42
	c-12.131,0-22-9.869-22-22v-286h308V469.99z M470,400.01H348v-164h114c5.522,0,10-4.477,10-10v-96c0-5.523-4.478-10-10-10H345.598
	c-5.774-16.305-21.34-28.02-39.598-28.02H184V42.01c0-12.131,9.869-22,22-22h264c12.131,0,22,9.869,22,22v30H351
	c-5.522,0-10,4.477-10,10s4.478,10,10,10h141v286C492,390.14,482.131,400.01,470,400.01z M350.095,216.01v-76H452v76H350.095z"/>
<path d="M98,355.99H50c-5.522,0-10,4.477-10,10v48c0,5.523,4.478,10,10,10h48c5.522,0,10-4.477,10-10v-48
	C108,360.468,103.522,355.99,98,355.99z M88,403.99H60v-28h28V403.99z"/>
<path d="M198,355.99h-48c-5.522,0-10,4.477-10,10v48c0,5.523,4.478,10,10,10h48c5.522,0,10-4.477,10-10v-48
	C208,360.468,203.522,355.99,198,355.99z M188,403.99h-28v-28h28V403.99z"/>
<path d="M298,355.99h-48c-5.522,0-10,4.477-10,10v48c0,5.523,4.478,10,10,10h48c5.522,0,10-4.477,10-10v-48
	C308,360.468,303.522,355.99,298,355.99z M288,403.99h-28v-28h28V403.99z"/>
<path d="M98,443.987H50c-5.522,0-10,4.477-10,10s4.478,10,10,10h48c5.522,0,10-4.477,10-10S103.522,443.987,98,443.987z"/>
<path d="M198,443.987h-48c-5.522,0-10,4.477-10,10s4.478,10,10,10h48c5.522,0,10-4.477,10-10S203.522,443.987,198,443.987z"/>
<path d="M298,443.987h-48c-5.522,0-10,4.477-10,10s4.478,10,10,10h48c5.522,0,10-4.477,10-10S303.522,443.987,298,443.987z"/>
<path d="M462,312.01h-78c-5.522,0-10,4.477-10,10s4.478,10,10,10h78c5.522,0,10-4.477,10-10S467.522,312.01,462,312.01z"/>
<path d="M384,284.01h38.998c5.522,0,10-4.477,10-10s-4.478-10-10-10H384c-5.522,0-10,4.477-10,10S378.478,284.01,384,284.01z"/>
<path d="M462,264.007c-2.63,0-5.21,1.07-7.07,2.93c-1.86,1.86-2.93,4.44-2.93,7.07c0,2.64,1.069,5.22,2.93,7.07
	c1.86,1.87,4.44,2.93,7.07,2.93s5.21-1.06,7.069-2.93c1.86-1.86,2.931-4.43,2.931-7.07c0-2.63-1.07-5.21-2.931-7.07
	C467.21,265.076,464.63,264.007,462,264.007z"/>
<g>
</g>
<g>
</g>
<g>
</g>
<g>
</g>
<g>
</g>
<g>
</g>
<g>
</g>
<g>
</g>
<g>
</g>
<g>
</g>
<g>
</g>
<g>
</g>
<g>
</g>
<g>
</g>
<g>
</g>
</svg>
