<?xml version="1.0" encoding="iso-8859-1"?>
<!-- Generator: Adobe Illustrator 19.0.0, SVG Export Plug-In . SVG Version: 6.00 Build 0)  -->
<svg version="1.1" id="Capa_1" xmlns="http://www.w3.org/2000/svg" xmlns:xlink="http://www.w3.org/1999/xlink" x="0px" y="0px"
	 viewBox="0 0 512.001 512.001" style="enable-background:new 0 0 512.001 512.001;" xml:space="preserve">
<path style="fill:#FFFFFF;" d="M471.205,435.175c0,16.27-13.189,29.459-29.459,29.459c-19.741,0-35.745-16.004-35.745-35.745
	c0-23.954,19.418-43.372,43.372-43.372c29.065,0,52.628,23.562,52.628,52.628c0,35.268-28.59,63.858-63.858,63.858h-19.388H10
	V60.001h396.001v368.887"/>
<path style="fill:#4BB9F5;" d="M449.374,10.001c-23.954,0-43.373,19.419-43.373,43.372v370.218
	c0-23.954,19.418-43.372,43.373-43.372c27.728,0,50.432,21.449,52.463,48.658h0.165V62.629
	C502.001,33.564,478.439,10.001,449.374,10.001z"/>
<rect x="80.25" y="108.911" style="fill:#F5C86E;" width="255.5" height="88"/>
<rect x="80.25" y="414.001" style="fill:#FF8C8C;" width="255.5" height="40"/>
<g>
	<rect x="80.25" y="236.971" style="fill:#A5DC69;" width="48" height="48"/>
	<rect x="183.75" y="236.971" style="fill:#A5DC69;" width="48" height="48"/>
	<rect x="287.75" y="236.971" style="fill:#A5DC69;" width="48" height="48"/>
</g>
<path d="M449.374,0.001c-28.296,0-51.508,22.137-53.255,50H245c-5.522,0-10,4.477-10,10s4.478,10,10,10h151.001v358.887
	c0,25.224,20.521,45.745,45.745,45.745c21.758,0,39.459-17.701,39.459-39.459c0-5.523-4.478-10-10-10s-10,4.477-10,10
	c0,10.73-8.729,19.459-19.459,19.459c-14.196,0-25.745-11.549-25.745-25.745c0-18.402,14.971-33.373,33.373-33.373
	c23.505,0,42.627,19.123,42.627,42.628c0,29.697-24.16,53.857-53.857,53.857H20V70.001h143c5.522,0,10-4.477,10-10s-4.478-10-10-10
	H10c-5.522,0-10,4.478-10,10v442c0,5.523,4.478,10,10,10h428.144c40.725,0,73.857-33.132,73.857-73.857V62.629
	C512.001,28.096,483.906,0.001,449.374,0.001z M492.001,392.32c-11.188-10.415-26.172-16.804-42.627-16.804
	c-12.621,0-24.226,4.413-33.373,11.765V53.374c0-18.402,14.971-33.373,33.373-33.373c23.505,0,42.627,19.123,42.627,42.627
	L492.001,392.32L492.001,392.32z"/>
<path d="M462,165.001c-2.63,0-5.21,1.07-7.07,2.93c-1.86,1.87-2.93,4.44-2.93,7.07c0,2.64,1.069,5.21,2.93,7.08
	c1.86,1.86,4.44,2.92,7.07,2.92s5.21-1.06,7.069-2.92c1.86-1.87,2.931-4.44,2.931-7.08c0-2.63-1.07-5.21-2.931-7.07
	C467.21,166.071,464.63,165.001,462,165.001z"/>
<path d="M462.001,50.001c-5.522,0-10,4.477-10,10v74.377c0,5.523,4.478,10,10,10s10-4.477,10-10V60.001
	C472.001,54.479,467.523,50.001,462.001,50.001z"/>
<path d="M345.753,108.913c0-5.523-4.478-10-10-10H80.249c-5.522,0-10,4.477-10,10v88c0,5.523,4.478,10,10,10h255.504
	c5.522,0,10-4.477,10-10V108.913z M325.753,186.913H90.249v-68h235.504V186.913z"/>
<path d="M80.249,294.97h48c5.522,0,10-4.477,10-10v-48c0-5.523-4.478-10-10-10h-48c-5.522,0-10,4.477-10,10v48
	C70.249,290.493,74.727,294.97,80.249,294.97z M90.249,246.97h28v28h-28V246.97z"/>
<path d="M231.753,226.97h-48c-5.522,0-10,4.477-10,10v48c0,5.523,4.478,10,10,10h48c5.522,0,10-4.477,10-10v-48
	C241.753,231.447,237.275,226.97,231.753,226.97z M221.753,274.97h-28v-28h28V274.97z"/>
<path d="M345.753,236.97c0-5.523-4.478-10-10-10h-48c-5.522,0-10,4.477-10,10v48c0,5.523,4.478,10,10,10h48c5.522,0,10-4.477,10-10
	V236.97z M325.753,274.97h-28v-28h28V274.97z"/>
<path d="M80.249,336.001H128c5.522,0,10-4.477,10-10s-4.478-10-10-10H80.249c-5.522,0-10,4.477-10,10S74.727,336.001,80.249,336.001
	z"/>
<path d="M231.876,316.001h-47.751c-5.522,0-10,4.477-10,10s4.478,10,10,10h47.751c5.522,0,10-4.477,10-10
	S237.398,316.001,231.876,316.001z"/>
<path d="M287.877,336.001h47.751c5.522,0,10-4.477,10-10s-4.478-10-10-10h-47.751c-5.522,0-10,4.477-10,10
	S282.354,336.001,287.877,336.001z"/>
<path d="M80.249,376.001H128c5.522,0,10-4.477,10-10s-4.478-10-10-10H80.249c-5.522,0-10,4.477-10,10S74.727,376.001,80.249,376.001
	z"/>
<path d="M70.249,454.001c0,5.523,4.478,10,10,10h255.504c5.522,0,10-4.477,10-10v-40c0-5.523-4.478-10-10-10H80.249
	c-5.522,0-10,4.477-10,10V454.001z M90.249,424.001h235.504v20H90.249V424.001z"/>
<path d="M231.876,356.001h-47.751c-5.522,0-10,4.477-10,10s4.478,10,10,10h47.751c5.522,0,10-4.477,10-10
	S237.398,356.001,231.876,356.001z"/>
<path d="M287.877,376.001h47.751c5.522,0,10-4.477,10-10s-4.478-10-10-10h-47.751c-5.522,0-10,4.477-10,10
	S282.354,376.001,287.877,376.001z"/>
<g>
</g>
<g>
</g>
<g>
</g>
<g>
</g>
<g>
</g>
<g>
</g>
<g>
</g>
<g>
</g>
<g>
</g>
<g>
</g>
<g>
</g>
<g>
</g>
<g>
</g>
<g>
</g>
<g>
</g>
</svg>
