<?xml version="1.0" encoding="iso-8859-1"?>
<!-- Generator: Adobe Illustrator 19.0.0, SVG Export Plug-In . SVG Version: 6.00 Build 0)  -->
<svg version="1.1" id="Capa_1" xmlns="http://www.w3.org/2000/svg" xmlns:xlink="http://www.w3.org/1999/xlink" x="0px" y="0px"
	 viewBox="0 0 512 512" style="enable-background:new 0 0 512 512;" xml:space="preserve">
<rect x="212" y="384" style="fill:#F0F0FA;" width="88" height="58"/>
<path style="fill:#78D2FA;" d="M156,482.002h200v-8c0-17.673-14.327-32-32-32H188c-17.673,0-32,14.327-32,32V482.002z"/>
<path style="fill:#FFFFFF;" d="M470,29.998c17.673,0,32,14.327,32,32v282c0,22.091-17.909,40-40,40H50c-22.091,0-40-17.909-40-40
	v-282c0-17.673,14.327-32,32-32L470,29.998L470,29.998z"/>
<path style="fill:#BEBEBE;" d="M42,29.998h214v274.004H10V61.998C10,44.325,24.327,29.998,42,29.998z"/>
<path style="fill:#78D2FA;" d="M10,303.665v40.333c0,22.091,17.909,40,40,40h412c22.091,0,40-17.909,40-40v-40.333H10z"/>
<rect x="296.13" y="69.998" style="fill:#46C373;" width="156" height="72"/>
<path d="M256.947,333.998c-5.522,0-10,4.477-10,10s4.478,10,10,10h0.096c5.522,0,9.952-4.477,9.952-10
	S262.47,333.998,256.947,333.998z"/>
<path d="M47,294c-2.63,0-5.21,1.07-7.07,2.93S37,301.37,37,304c0,2.64,1.069,5.21,2.93,7.07S44.37,314,47,314s5.21-1.07,7.069-2.93
	C55.93,309.21,57,306.63,57,304s-1.07-5.21-2.931-7.07C52.21,295.07,49.63,294,47,294z"/>
<path d="M470,19.998H42c-23.159,0-42,18.841-42,42v282c0,27.57,22.43,50,50,50h152v38.004h-14c-23.159,0-42,18.841-42,42v8
	c0,5.523,4.478,10,10,10h200c5.522,0,10-4.477,10-10v-8c0-23.159-18.841-42-42-42h-14v-38.004h152c27.57,0,50-22.43,50-50v-282
	C512,38.839,493.159,19.998,470,19.998z M492,61.998v232.004H266V39.998h204C482.131,39.998,492,49.867,492,61.998z M345.91,472.002
	H166.09c1.014-11.198,10.453-20,21.91-20h136C335.457,452.002,344.896,460.804,345.91,472.002z M290,432.002h-68v-38.004h68V432.002
	z M462,373.998H50c-16.542,0-30-13.458-30-30v-282c0-12.131,9.869-22,22-22h204v254.004H83c-5.522,0-10,4.477-10,10s4.478,10,10,10
	h409v29.996C492,360.54,478.542,373.998,462,373.998z"/>
<path d="M296.127,151.998h156c5.522,0,10-4.477,10-10v-72c0-5.523-4.478-10-10-10h-156c-5.522,0-10,4.477-10,10v72
	C286.127,147.521,290.604,151.998,296.127,151.998z M306.127,79.998h136v52h-136V79.998z"/>
<path d="M135.574,179.997c0-5.523-4.478-10-10-10H60.376c-5.522,0-10,4.477-10,10s4.478,10,10,10h65.198
	C131.097,189.997,135.574,185.52,135.574,179.997z"/>
<path d="M159.987,169.997c-5.522,0-10,4.477-10,10s4.478,10,10,10h49.796c5.522,0,10-4.477,10-10s-4.478-10-10-10H159.987z"/>
<path d="M209.783,249.986h-18.619c-5.522,0-10,4.477-10,10s4.478,10,10,10h18.619c5.522,0,10-4.477,10-10
	C219.783,254.463,215.306,249.986,209.783,249.986z"/>
<path d="M161.289,259.997c0-5.523-4.478-10-10-10H60.376c-5.522,0-10,4.477-10,10c0,5.523,4.478,10,10,10h90.913
	C156.812,269.997,161.289,265.52,161.289,259.997z"/>
<path d="M60.376,209.995c-5.522,0-10,4.477-10,10s4.478,10,10,10h32.6c5.522,0,10-4.477,10-10s-4.478-10-10-10H60.376z"/>
<path d="M209.783,209.995H141c-5.522,0-10,4.477-10,10s4.478,10,10,10h68.783c5.522,0,10-4.477,10-10
	S215.306,209.995,209.783,209.995z"/>
<path d="M296.571,189.997h155.556c5.522,0,10-4.477,10-10s-4.478-10-10-10H296.571c-5.522,0-10,4.477-10,10
	S291.049,189.997,296.571,189.997z"/>
<path d="M452.13,250c-2.64,0-5.21,1.06-7.07,2.93c-1.87,1.86-2.93,4.43-2.93,7.07c0,2.63,1.06,5.21,2.93,7.07
	c1.86,1.86,4.431,2.93,7.07,2.93c2.63,0,5.2-1.07,7.07-2.93c1.859-1.86,2.93-4.44,2.93-7.07c0-2.64-1.07-5.21-2.93-7.07
	C457.33,251.06,454.76,250,452.13,250z"/>
<path d="M411.5,249.997H296.571c-5.522,0-10,4.477-10,10c0,5.523,4.478,10,10,10H411.5c5.522,0,10-4.477,10-10
	C421.5,254.474,417.022,249.997,411.5,249.997z"/>
<path d="M296.571,229.995h155.556c5.522,0,10-4.477,10-10s-4.478-10-10-10H296.571c-5.522,0-10,4.477-10,10
	S291.049,229.995,296.571,229.995z"/>
<path d="M79.227,134.991c1.953,1.953,4.512,2.929,7.071,2.929s5.118-0.977,7.071-2.929c3.905-3.905,3.905-10.237,0-14.142
	l-18.852-18.852l18.852-18.852c3.905-3.905,3.905-10.237,0-14.142c-3.906-3.905-10.236-3.905-14.143,0L53.305,94.927
	c-3.905,3.905-3.905,10.237,0,14.142L79.227,134.991z"/>
<path d="M172.631,134.992c1.953,1.953,4.512,2.929,7.071,2.929s5.118-0.977,7.071-2.929l25.922-25.922
	c3.905-3.905,3.905-10.237,0-14.142l-25.922-25.922c-3.904-3.905-10.234-3.905-14.143,0c-3.905,3.905-3.905,10.237,0,14.142
	L191.482,102l-18.852,18.852C168.726,124.755,168.726,131.086,172.631,134.992z"/>
<path d="M109.633,141.761c1.592,0.936,3.335,1.38,5.057,1.38c3.429,0,6.769-1.765,8.631-4.935l36.602-62.283
	c2.799-4.761,1.207-10.89-3.555-13.688c-4.763-2.799-10.891-1.207-13.688,3.555l-36.602,62.283
	C103.279,132.834,104.871,138.963,109.633,141.761z"/>
<g>
</g>
<g>
</g>
<g>
</g>
<g>
</g>
<g>
</g>
<g>
</g>
<g>
</g>
<g>
</g>
<g>
</g>
<g>
</g>
<g>
</g>
<g>
</g>
<g>
</g>
<g>
</g>
<g>
</g>
</svg>
