<?xml version="1.0" encoding="iso-8859-1"?>
<!-- Generator: Adobe Illustrator 19.0.0, SVG Export Plug-In . SVG Version: 6.00 Build 0)  -->
<svg version="1.1" id="Capa_1" xmlns="http://www.w3.org/2000/svg" xmlns:xlink="http://www.w3.org/1999/xlink" x="0px" y="0px"
	 viewBox="0 0 512 512" style="enable-background:new 0 0 512 512;" xml:space="preserve">
<path style="fill:#FFFFFF;" d="M76.162,384H42.015c-17.673,0-32-14.327-32-32V42c0-17.673,14.327-32,32-32h388
	c17.673,0,32,14.327,32,32v310c0,17.673-14.327,32-32,32H387.6H76.162z"/>
<path style="fill:#FF5A5A;" d="M430.015,10h-388c-17.673,0-32,14.327-32,32v40h452V42C462.015,24.327,447.688,10,430.015,10z"/>
<path style="fill:#231F20;" d="M20.125,82h436.891"/>
<g>
	<path style="fill:#F5B955;" d="M484.479,379c0-6.76-0.659-13.365-1.901-19.761l19.407-17.53l-28-48.413l-24.859,8.033
		c-9.917-8.645-21.505-15.42-34.216-19.78L409.437,256h-55.923l-5.473,25.548c-12.711,4.36-24.299,11.135-34.216,19.78
		l-24.859-8.033l-28,48.413l19.407,17.53c-1.243,6.396-1.902,13.001-1.902,19.761s0.658,13.365,1.902,19.761l-19.407,17.53
		l28,48.414l24.859-8.033c9.917,8.645,21.505,15.42,34.216,19.78L353.514,502h55.923l5.473-25.548
		c12.711-4.36,24.298-11.135,34.216-19.78l24.859,8.033l28-48.414l-19.407-17.53C483.821,392.365,484.479,385.76,484.479,379z"/>
	<path style="fill:#FFFFFF;" d="M381.475,434.333c-30.56,0-55.333-24.774-55.333-55.333s24.774-55.333,55.333-55.333
		S436.809,348.44,436.809,379S412.035,434.333,381.475,434.333z"/>
</g>
<path d="M204.839,56h200.176c5.523,0,10-4.477,10-10s-4.477-10-10-10H204.839c-5.523,0-10,4.477-10,10S199.316,56,204.839,56z"/>
<path d="M96.375,56c2.63,0,5.21-1.07,7.07-2.93s2.93-4.44,2.93-7.07s-1.07-5.21-2.93-7.07S99.005,36,96.375,36
	c-2.64,0-5.21,1.07-7.07,2.93s-2.93,4.44-2.93,7.07s1.07,5.21,2.93,7.07S93.735,56,96.375,56z"/>
<path d="M59.625,56c2.63,0,5.21-1.07,7.07-2.93s2.93-4.44,2.93-7.07s-1.07-5.21-2.93-7.07S62.255,36,59.625,36s-5.21,1.07-7.07,2.93
	s-2.93,4.44-2.93,7.07s1.07,5.21,2.93,7.07S56.995,56,59.625,56z"/>
<path d="M133.125,56c2.63,0,5.21-1.07,7.07-2.93s2.93-4.44,2.93-7.07s-1.07-5.21-2.93-7.07c-1.86-1.86-4.44-2.93-7.07-2.93
	c-2.64,0-5.21,1.07-7.08,2.93c-1.86,1.86-2.92,4.44-2.92,7.07s1.06,5.21,2.92,7.07C127.915,54.93,130.485,56,133.125,56z"/>
<path d="M79.697,228.833c0.05,0,0.101,0,0.151-0.001c3.791-0.057,7.223-2.252,8.864-5.67l16.295-33.929l17.702,34.197
	c1.743,3.366,5.205,5.428,9.031,5.402c3.791-0.057,7.223-2.252,8.864-5.67l24.974-52c2.391-4.979,0.293-10.953-4.685-13.343
	c-4.977-2.392-10.952-0.293-13.343,4.685l-16.295,33.929l-17.702-34.197c-1.744-3.367-5.22-5.435-9.031-5.402
	c-3.791,0.057-7.223,2.252-8.864,5.67l-16.295,33.929L61.66,162.236c-2.539-4.904-8.571-6.822-13.478-4.284
	c-4.905,2.539-6.822,8.573-4.284,13.478l26.918,52C72.537,226.753,75.964,228.833,79.697,228.833z"/>
<path d="M262.933,228.833c0.05,0,0.101,0,0.151-0.001c3.791-0.057,7.223-2.252,8.864-5.67l24.974-52
	c2.391-4.979,0.293-10.953-4.685-13.343c-4.978-2.392-10.953-0.294-13.343,4.685l-16.295,33.929l-17.702-34.197
	c-1.743-3.367-5.261-5.43-9.031-5.402c-3.791,0.057-7.223,2.252-8.864,5.67l-16.295,33.929l-17.702-34.197
	c-2.539-4.904-8.572-6.822-13.478-4.284c-4.905,2.539-6.822,8.573-4.284,13.478l26.918,52c1.743,3.367,5.267,5.431,9.031,5.402
	c3.791-0.057,7.223-2.252,8.864-5.67l16.295-33.929l17.702,34.197C255.773,226.753,259.2,228.833,262.933,228.833z"/>
<path d="M410.237,162.504l-16.295,33.929l-17.702-34.197c-1.743-3.367-5.238-5.43-9.031-5.402c-3.791,0.057-7.223,2.252-8.864,5.67
	l-16.295,33.929l-17.702-34.197c-2.539-4.904-8.571-6.822-13.478-4.284c-4.905,2.539-6.822,8.573-4.284,13.478l26.918,52
	c1.743,3.367,5.252,5.431,9.031,5.402c3.791-0.057,7.223-2.252,8.864-5.67l16.295-33.929l17.702,34.197
	c1.72,3.322,5.147,5.403,8.88,5.403c0.05,0,0.101,0,0.151-0.001c3.791-0.057,7.223-2.252,8.864-5.67l24.974-52
	c2.391-4.979,0.293-10.953-4.685-13.343C418.603,155.427,412.628,157.525,410.237,162.504z"/>
<path d="M462.015,225c-2.63,0-5.21,1.07-7.07,2.93c-1.86,1.86-2.93,4.44-2.93,7.07s1.07,5.21,2.93,7.07s4.44,2.93,7.07,2.93
	s5.21-1.07,7.07-2.93s2.93-4.44,2.93-7.07s-1.07-5.21-2.93-7.07C467.225,226.07,464.645,225,462.015,225z"/>
<path d="M238.57,374H42.015c-12.131,0-22-9.869-22-22V91.995c0.037,0,0.073,0.005,0.109,0.005h431.891v100.833
	c0,5.523,4.477,10,10,10s10-4.477,10-10V42c0-23.159-18.841-42-42-42h-388c-23.159,0-42,18.841-42,42v310c0,23.159,18.841,42,42,42
	H238.57c5.523,0,10-4.477,10-10S244.093,374,238.57,374z M42.015,20h388c12.131,0,22,9.869,22,22v30H20.125
	c-0.037,0-0.073,0.005-0.109,0.005V42C20.015,29.869,29.884,20,42.015,20z"/>
<path d="M52.779,334.011h117.177c5.523,0,10-4.477,10-10s-4.477-10-10-10H52.779c-5.523,0-10,4.477-10,10
	S47.256,334.011,52.779,334.011z"/>
<path d="M232.015,286.012c5.522,0,9.999-4.476,10-9.998c0.001-5.523-4.476-10.001-9.998-10.002l-138.333-0.025
	c-0.001,0-0.001,0-0.001,0c-5.522,0-10,4.476-10,9.998c-0.001,5.523,4.475,10.001,9.998,10.002L232.015,286.012L232.015,286.012z"/>
<path d="M45.705,283.08c1.87,1.87,4.44,2.93,7.07,2.93s5.21-1.06,7.08-2.93c1.86-1.86,2.93-4.44,2.93-7.07s-1.07-5.21-2.93-7.07
	c-1.87-1.86-4.44-2.93-7.08-2.93c-2.63,0-5.21,1.07-7.07,2.93s-2.93,4.44-2.93,7.07C42.775,278.65,43.845,281.22,45.705,283.08z"/>
<path d="M381.475,313.667c-36.025,0-65.333,29.309-65.333,65.333s29.309,65.333,65.333,65.333s65.333-29.309,65.333-65.333
	S417.5,313.667,381.475,313.667z M381.475,424.333c-24.997,0-45.333-20.336-45.333-45.333s20.336-45.333,45.333-45.333
	s45.333,20.336,45.333,45.333S406.472,424.333,381.475,424.333z"/>
<path d="M508.688,408.871l-15.343-13.859c0.753-5.3,1.134-10.664,1.134-16.012s-0.381-10.712-1.134-16.012l15.343-13.859
	c3.501-3.163,4.315-8.343,1.953-12.427l-28-48.414c-2.36-4.08-7.248-5.958-11.731-4.509l-19.635,6.346
	c-8.47-6.668-17.761-12.041-27.735-16.036l-4.324-20.184c-0.988-4.611-5.063-7.905-9.778-7.905h-55.923
	c-4.716,0-8.791,3.294-9.778,7.905l-4.323,20.184c-9.974,3.995-19.266,9.367-27.735,16.035l-19.636-6.345
	c-4.485-1.449-9.372,0.43-11.731,4.509l-28,48.414c-2.362,4.084-1.548,9.264,1.953,12.427l15.343,13.859
	c-0.753,5.301-1.134,10.665-1.134,16.012s0.381,10.711,1.134,16.012l-15.343,13.859c-3.501,3.163-4.315,8.343-1.953,12.427
	l28,48.414c2.36,4.08,7.246,5.959,11.731,4.509l19.636-6.345c8.469,6.668,17.761,12.04,27.735,16.035l4.323,20.184
	c0.988,4.611,5.063,7.905,9.778,7.905h55.923c4.715,0,8.791-3.294,9.778-7.905l4.324-20.184c9.974-3.995,19.265-9.367,27.735-16.036
	l19.635,6.346c4.485,1.45,9.372-0.429,11.731-4.509l28-48.414C513.003,417.213,512.189,412.034,508.688,408.871z M472.761,361.146
	c1.14,5.864,1.718,11.871,1.718,17.854s-0.578,11.989-1.718,17.854c-0.668,3.44,0.513,6.979,3.113,9.329l13.403,12.106
	l-19.905,34.417l-17.171-5.549c-3.34-1.08-7-0.329-9.646,1.978c-9.118,7.947-19.51,13.956-30.89,17.859
	c-3.319,1.138-5.798,3.933-6.534,7.364L401.352,492h-39.753l-3.779-17.643c-0.735-3.431-3.215-6.226-6.534-7.364
	c-11.38-3.903-21.773-9.912-30.89-17.859c-2.645-2.307-6.307-3.058-9.646-1.978l-17.172,5.549l-19.905-34.417l13.403-12.107
	c2.601-2.349,3.782-5.889,3.113-9.329c-1.14-5.866-1.718-11.873-1.718-17.854s0.578-11.987,1.718-17.854
	c0.668-3.44-0.513-6.979-3.113-9.329l-13.403-12.107l19.905-34.417l17.172,5.549c3.338,1.08,7,0.328,9.646-1.978
	c9.117-7.947,19.509-13.956,30.89-17.859c3.319-1.139,5.798-3.933,6.534-7.364L361.599,266h39.753l3.779,17.643
	c0.735,3.431,3.215,6.226,6.534,7.364c11.379,3.903,21.772,9.912,30.89,17.859c2.646,2.306,6.306,3.058,9.646,1.978l17.171-5.549
	l19.905,34.417l-13.403,12.106C473.274,354.167,472.093,357.707,472.761,361.146z"/>
<g>
</g>
<g>
</g>
<g>
</g>
<g>
</g>
<g>
</g>
<g>
</g>
<g>
</g>
<g>
</g>
<g>
</g>
<g>
</g>
<g>
</g>
<g>
</g>
<g>
</g>
<g>
</g>
<g>
</g>
</svg>
