<?xml version="1.0" encoding="iso-8859-1"?>
<!-- Generator: Adobe Illustrator 19.0.0, SVG Export Plug-In . SVG Version: 6.00 Build 0)  -->
<svg version="1.1" id="Capa_1" xmlns="http://www.w3.org/2000/svg" xmlns:xlink="http://www.w3.org/1999/xlink" x="0px" y="0px"
	 viewBox="0 0 512 512" style="enable-background:new 0 0 512 512;" xml:space="preserve">
<rect x="212" y="384" style="fill:#F0F0FA;" width="88" height="58"/>
<path style="fill:#78D2FA;" d="M156,482.002h200v-8c0-17.673-14.327-32-32-32H188c-17.673,0-32,14.327-32,32V482.002z"/>
<path style="fill:#FFFFFF;" d="M470,29.998c17.673,0,32,14.327,32,32v282c0,22.091-17.909,40-40,40H50c-22.091,0-40-17.909-40-40
	v-282c0-17.673,14.327-32,32-32L470,29.998L470,29.998z"/>
<path style="fill:#78D2FA;" d="M10,303.665v40.333c0,22.091,17.909,40,40,40h412c22.091,0,40-17.909,40-40v-40.333H10z"/>
<path d="M96,153.998h139.643c5.523,0,10-4.477,10-10s-4.477-10-10-10H96c-5.523,0-10,4.477-10,10S90.477,153.998,96,153.998z"/>
<path d="M416,134c-2.63,0-5.21,1.07-7.07,2.93c-1.86,1.86-2.93,4.44-2.93,7.07s1.07,5.21,2.93,7.07S413.37,154,416,154
	s5.21-1.07,7.07-2.93S426,146.63,426,144s-1.07-5.21-2.93-7.07C421.21,135.07,418.63,134,416,134z"/>
<path d="M379,153.998c5.523,0,10-4.477,10-10s-4.477-10-10-10h-95.151c-5.523,0-10,4.477-10,10s4.477,10,10,10H379z"/>
<path d="M96,98h228.58c5.523,0,10-4.477,10-10s-4.477-10-10-10H96c-5.523,0-10,4.477-10,10S90.477,98,96,98z"/>
<path d="M376.121,98H416c5.523,0,10-4.477,10-10s-4.477-10-10-10h-39.879c-5.523,0-10,4.477-10,10S370.598,98,376.121,98z"/>
<path d="M416,245.985h-39.879c-5.523,0-10,4.477-10,10c0,5.523,4.477,10,10,10H416c5.523,0,10-4.477,10-10
	C426,250.462,421.523,245.985,416,245.985z"/>
<path d="M96,266h240.506c5.523,0,10-4.477,10-10c0-5.523-4.477-10-10-10H96c-5.523,0-10,4.477-10,10C86,261.523,90.477,266,96,266z"
	/>
<path d="M96,209.996h81.729c5.523,0,10-4.477,10-10s-4.477-10-10-10H96c-5.523,0-10,4.477-10,10S90.477,209.996,96,209.996z"/>
<path d="M416,189.996H251.506c-5.523,0-10,4.477-10,10s4.477,10,10,10H416c5.523,0,10-4.477,10-10S421.523,189.996,416,189.996z"/>
<path d="M208.89,192.92c-1.86,1.87-2.93,4.44-2.93,7.08c0,2.63,1.07,5.21,2.93,7.07c1.86,1.86,4.44,2.93,7.07,2.93
	s5.21-1.07,7.07-2.93s2.93-4.44,2.93-7.07c0-2.64-1.07-5.21-2.93-7.08c-1.86-1.86-4.44-2.92-7.07-2.92S210.75,191.06,208.89,192.92z
	"/>
<path d="M256.947,333.998c-5.523,0-10,4.477-10,10s4.477,10,10,10h0.095c5.523,0,9.952-4.477,9.952-10
	S262.47,333.998,256.947,333.998z"/>
<path d="M470,19.998H42c-23.159,0-42,18.841-42,42v282c0,27.57,22.43,50,50,50h152v38.004h-14c-23.159,0-42,18.841-42,42v8
	c0,5.523,4.477,10,10,10h200c5.523,0,10-4.477,10-10v-8c0-23.159-18.841-42-42-42h-14v-38.004h152c27.57,0,50-22.43,50-50v-282
	C512,38.839,493.159,19.998,470,19.998z M42,39.998h428c12.131,0,22,9.869,22,22v232.004H20V61.998
	C20,49.867,29.869,39.998,42,39.998z M345.91,472.002H166.09c1.013-11.198,10.453-20,21.91-20h24h88h24
	C335.457,452.002,344.896,460.804,345.91,472.002z M290,432.002h-68v-38.004h68V432.002z M462,373.998H300h-88H50
	c-16.542,0-30-13.458-30-30v-29.996h472v29.996C492,360.54,478.542,373.998,462,373.998z"/>
<g>
</g>
<g>
</g>
<g>
</g>
<g>
</g>
<g>
</g>
<g>
</g>
<g>
</g>
<g>
</g>
<g>
</g>
<g>
</g>
<g>
</g>
<g>
</g>
<g>
</g>
<g>
</g>
<g>
</g>
</svg>
