<svg height="512pt" viewBox="0 -52 512.144 512" width="512pt" xmlns="http://www.w3.org/2000/svg"><path d="m504.152344 40.070312v360h-496v-360zm0 0" fill="#e6e9ed"/><path d="m392.070312 312.070312h80v32h-80zm0 0" fill="#fff"/><path d="m503.992188 24.070312v16h-496v-16c0-8.804687 7.191406-16 16-16h464c8.878906 0 16 7.195313 16 16zm0 0" fill="#ccd1d9"/><path d="m40.070312 336.070312h32v32h-32zm0 0" fill="#656d78"/><path d="m72.070312 336.070312h32v32h-32zm0 0" fill="#6f7984"/><path d="m296.070312 336.070312v32h-192v-32zm0 0" fill="#656d78"/><path d="m296.070312 336.070312h32v32h-32zm0 0" fill="#6f7984"/><path d="m328.070312 336.070312h32v32h-32zm0 0" fill="#656d78"/><path d="m272.070312 312.070312v24h-144v-24c0-13.277343 10.722657-24 24-24v.082032h24l8 7.917968 16-8 16 8 8-7.917968h24v-.082032c13.28125 0 24 10.722657 24 24zm0 0" fill="#e6e9ed"/><path d="m248.070312 288.070312v.082032h-24l-1.0625 1.054687c9.863282 2.984375 17.0625 12.015625 17.0625 22.863281v24h32v-24c0-13.277343-10.71875-24-24-24zm0 0" fill="#ccd1d9"/><path d="m224.070312 288.070312v.082032l-8 7.917968-16-8-16 8-8-7.917968v-29.519532c7.28125 3.511719 15.363282 5.4375 24 5.4375 8.640626 0 16.722657-1.917968 24-5.4375zm0 0" fill="#f5f7fa"/><path d="m256.070312 172.070312v11.042969c-13.757812-18-22.078124-21.28125-32-19.203125l16-32.476562c9.921876 10.636718 16 24.957031 16 40.636718zm0 0" fill="#edab37"/><path d="m240.070312 131.433594-16 32.476562c-14.957031 3.128906-33.519531 18.730469-80 13.28125-2.558593-.320312-5.199218-.640625-8-1.121094v-4c0-33.117187 26.882813-60 60-60 17.441407 0 33.121094 7.441407 44 19.363282zm0 0" fill="#ffce54"/><path d="m196.070312 112.070312c-2.621093 0-5.191406.210938-7.726562.554688-.375.046875-.734375.109375-1.105469.167969-2.445312.375-4.847656.855469-7.183593 1.503906-.007813 0-.007813 0-.015626 0 10.921876 3.023437 20.609376 8.992187 28.03125 17.128906 8.195313 8.796875 13.714844 20.117188 15.402344 32.628907.191406-.046876.40625-.117188.597656-.160157l16-32.480469c-10.878906-11.902343-26.558593-19.34375-44-19.34375zm0 0" fill="#f6bb42"/><path d="m256.070312 183.113281v24.957031c0 22.320313-13.039062 41.601563-32 50.5625-7.277343 3.511719-15.359374 5.4375-24 5.4375-8.636718 0-16.71875-1.917968-24-5.4375-18.957031-8.960937-32-28.242187-32-50.5625v-30.878906c46.480469 5.449219 65.042969-10.160156 80-13.28125 9.921876-2.078125 18.242188 1.203125 32 19.203125zm0 0" fill="#eac6bb"/><path d="m224.070312 163.902344v44.167968c0 22.320313-13.039062 41.601563-32 50.5625-2.558593 1.230469-5.246093 2.191407-8 3.023438 5.066407 1.527344 10.402344 2.414062 16 2.414062 8.640626 0 16.722657-1.917968 24-5.4375 18.960938-8.960937 32-28.242187 32-50.5625v-24.957031c-13.757812-18-22.078124-21.28125-32-19.210937zm0 0" fill="#d3b1a9"/><path d="m240.070312 131.433594c-10.878906-11.921875-26.558593-19.363282-44-19.363282-33.117187 0-60 26.882813-60 60v4c2.800782.480469 5.441407.800782 8 1.121094v30.878906c0 22.320313 13.042969 41.601563 32 50.5625v29.519532h-24v-.082032c-13.277343 0-24 10.722657-24 24v24h-88v-264h320v264h-88v-24c0-13.277343-10.71875-24-24-24v.082032h-24v-29.519532c18.960938-8.960937 32-28.242187 32-50.5625v-36c0-15.679687-6.078124-30-16-40.636718zm0 0" fill="#5d9cec"/><path d="m392.3125 80.070312c-4.425781 0-8.039062-3.582031-8.039062-8 0-4.414062 3.535156-8 7.949218-8h.089844c4.414062 0 8 3.585938 8 8 0 4.417969-3.585938 8-8 8zm0 0"/><path d="m392.3125 120.070312c-4.425781 0-8.039062-3.582031-8.039062-8 0-4.414062 3.535156-8 7.949218-8h.089844c4.414062 0 8 3.585938 8 8 0 4.417969-3.585938 8-8 8zm0 0"/><path d="m392.3125 160.070312c-4.425781 0-8.039062-3.582031-8.039062-8 0-4.414062 3.535156-8 7.949218-8h.089844c4.414062 0 8 3.585938 8 8 0 4.417969-3.585938 8-8 8zm0 0"/><path d="m392.3125 200.070312c-4.425781 0-8.039062-3.582031-8.039062-8 0-4.414062 3.535156-8 7.949218-8h.089844c4.414062 0 8 3.585938 8 8 0 4.417969-3.585938 8-8 8zm0 0"/><path d="m392.3125 240.070312c-4.425781 0-8.039062-3.574218-8.039062-8 0-4.421874 3.535156-8 7.949218-8h.089844c4.414062 0 8 3.578126 8 8 0 4.425782-3.585938 8-8 8zm0 0"/><path d="m32.238281 32.070312c-4.421875 0-8.039062-3.582031-8.039062-8 0-4.414062 3.535156-8 7.953125-8h.085937c4.417969 0 8 3.585938 8 8 0 4.417969-3.582031 8-8 8zm0 0"/><path d="m56.238281 32.070312c-4.421875 0-8.039062-3.582031-8.039062-8 0-4.414062 3.535156-8 7.953125-8h.085937c4.417969 0 8 3.585938 8 8 0 4.417969-3.582031 8-8 8zm0 0"/><path d="m80.238281 32.070312c-4.421875 0-8.039062-3.582031-8.039062-8 0-4.414062 3.535156-8 7.953125-8h.085937c4.417969 0 8 3.585938 8 8 0 4.417969-3.582031 8-8 8zm0 0"/><path d="m504.144531 408.070312h-496c-4.425781 0-8-3.574218-8-8v-360c0-4.414062 3.574219-8 8-8h496c4.421875 0 8 3.585938 8 8v360c0 4.425782-3.578125 8-8 8zm-488-16h480v-344h-480zm0 0"/><path d="m8 32.070312c-4.425781 0-8-3.582031-8-8 0-13.230468 10.769531-23.9999995 24-23.9999995 4.425781 0 8 3.5859375 8 7.9999995 0 4.417969-3.574219 8-8 8-4.414062 0-8 3.59375-8 8 0 4.417969-3.574219 8-8 8zm0 0"/><path d="m8 48.070312c-4.425781 0-8-3.582031-8-8v-16c0-4.414062 3.574219-8 8-8s8 3.585938 8 8v16c0 4.417969-3.574219 8-8 8zm0 0"/><path d="m504 32.070312c-4.425781 0-8-3.582031-8-8 0-4.40625-3.585938-8-8-8-4.425781 0-8-3.582031-8-8 0-4.414062 3.574219-7.9999995 8-7.9999995 13.230469 0 24 10.7695315 24 23.9999995 0 4.417969-3.574219 8-8 8zm0 0"/><path d="m504 48.070312c-4.425781 0-8-3.582031-8-8v-16c0-4.414062 3.574219-8 8-8s8 3.585938 8 8v16c0 4.417969-3.574219 8-8 8zm0 0"/><path d="m488 16.070312h-464c-4.425781 0-8-3.582031-8-8 0-4.414062 3.574219-7.9999995 8-7.9999995h464c4.425781 0 8 3.5859375 8 7.9999995 0 4.417969-3.574219 8-8 8zm0 0"/><path d="m360.070312 376.070312h-320c-4.421874 0-8-3.574218-8-8v-296c0-4.414062 3.578126-8 8-8h320c4.425782 0 8 3.585938 8 8v296c0 4.425782-3.574218 8-8 8zm-312-16h304v-280h-304zm0 0"/><path d="m456.070312 80.070312h-40c-4.421874 0-8-3.582031-8-8 0-4.414062 3.578126-8 8-8h40c4.425782 0 8 3.585938 8 8 0 4.417969-3.574218 8-8 8zm0 0"/><path d="m472.070312 120.070312h-56c-4.421874 0-8-3.582031-8-8 0-4.414062 3.578126-8 8-8h56c4.425782 0 8 3.585938 8 8 0 4.417969-3.574218 8-8 8zm0 0"/><path d="m464.070312 160.070312h-48c-4.421874 0-8-3.582031-8-8 0-4.414062 3.578126-8 8-8h48c4.425782 0 8 3.585938 8 8 0 4.417969-3.574218 8-8 8zm0 0"/><path d="m440.070312 200.070312h-24c-4.421874 0-8-3.582031-8-8 0-4.414062 3.578126-8 8-8h24c4.425782 0 8 3.585938 8 8 0 4.417969-3.574218 8-8 8zm0 0"/><path d="m472.070312 240.070312h-56c-4.421874 0-8-3.574218-8-8 0-4.421874 3.578126-8 8-8h56c4.425782 0 8 3.578126 8 8 0 4.425782-3.574218 8-8 8zm0 0"/><path d="m392.3125 280.070312c-4.425781 0-8.039062-3.574218-8.039062-8 0-4.421874 3.535156-8 7.949218-8h.089844c4.414062 0 8 3.578126 8 8 0 4.425782-3.585938 8-8 8zm0 0"/><path d="m456.070312 280.070312h-40c-4.421874 0-8-3.574218-8-8 0-4.421874 3.578126-8 8-8h40c4.425782 0 8 3.578126 8 8 0 4.425782-3.574218 8-8 8zm0 0"/><path d="m472.070312 352.070312h-80c-4.421874 0-8-3.574218-8-8v-32c0-4.421874 3.578126-8 8-8h80c4.425782 0 8 3.578126 8 8v32c0 4.425782-3.574218 8-8 8zm-72-16h64v-16h-64zm0 0"/><path d="m472.070312 376.070312h-24c-4.421874 0-8-3.574218-8-8 0-4.421874 3.578126-8 8-8h24c4.425782 0 8 3.578126 8 8 0 4.425782-3.574218 8-8 8zm0 0"/><path d="m360.070312 344.070312h-320c-4.421874 0-8-3.574218-8-8 0-4.421874 3.578126-8 8-8h320c4.425782 0 8 3.578126 8 8 0 4.425782-3.574218 8-8 8zm0 0"/><path d="m328.070312 376.070312c-4.421874 0-8-3.574218-8-8v-32c0-4.421874 3.578126-8 8-8 4.425782 0 8 3.578126 8 8v32c0 4.425782-3.574218 8-8 8zm0 0"/><path d="m296.070312 376.070312c-4.421874 0-8-3.574218-8-8v-32c0-4.421874 3.578126-8 8-8 4.425782 0 8 3.578126 8 8v32c0 4.425782-3.574218 8-8 8zm0 0"/><path d="m104.070312 376.070312c-4.421874 0-8-3.574218-8-8v-32c0-4.421874 3.578126-8 8-8 4.425782 0 8 3.578126 8 8v32c0 4.425782-3.574218 8-8 8zm0 0"/><path d="m72.070312 376.070312c-4.421874 0-8-3.574218-8-8v-32c0-4.421874 3.578126-8 8-8 4.425782 0 8 3.578126 8 8v32c0 4.425782-3.574218 8-8 8zm0 0"/><path d="m144.070312 216.070312c-4.421874 0-8-3.574218-8-8v-30.933593c0-4.417969 3.578126-8 8-8 4.425782 0 8 3.582031 8 8v30.933593c0 4.425782-3.574218 8-8 8zm0 0"/><path d="m256.070312 216.070312c-4.421874 0-8-3.574218-8-8v-36c0-4.414062 3.578126-8 8-8 4.425782 0 8 3.585938 8 8v36c0 4.425782-3.574218 8-8 8zm0 0"/><path d="m256.070312 180.070312c-4.421874 0-8-3.582031-8-8 0-28.671874-23.328124-52-52.007812-52-28.671875 0-51.992188 23.328126-51.992188 52 0 4.417969-3.574218 8-8 8-4.421874 0-8-3.582031-8-8 0-37.496093 30.503907-68 67.992188-68 37.503906 0 68.007812 30.503907 68.007812 68 0 4.417969-3.574218 8-8 8zm0 0"/><path d="m256.078125 191.039062c-2.40625 0-4.78125-1.078124-6.359375-3.136718-15.445312-20.175782-19.65625-18.503906-35.3125-12.300782-15.023438 5.941407-37.726562 14.957032-79.582031 8.335938-4.359375-.691406-7.34375-4.785156-6.648438-9.152344.679688-4.359375 4.785157-7.34375 9.152344-6.65625 37.535156 5.925782 56.984375-1.785156 71.191406-7.410156 19.265625-7.640625 32.191407-10.902344 53.90625 17.449219 2.6875 3.503906 2.023438 8.527343-1.488281 11.214843-1.449219 1.121094-3.160156 1.65625-4.859375 1.65625zm0 0"/><path d="m224.0625 171.886719c-1.175781 0-2.382812-.261719-3.511719-.824219-3.964843-1.941406-5.597656-6.742188-3.65625-10.703125l16-32.574219c1.945313-3.96875 6.722657-5.609375 10.707031-3.65625 3.964844 1.941406 5.597657 6.742188 3.65625 10.703125l-16 32.574219c-1.394531 2.832031-4.242187 4.480469-7.195312 4.480469zm0 0"/><path d="m128.070312 320.039062c-4.421874 0-8-3.574218-8-8 0-17.648437 14.355469-32 32-32 4.425782 0 8 3.578126 8 8 0 4.425782-3.574218 8-8 8-8.824218 0-16 7.175782-16 16 0 4.425782-3.574218 8-8 8zm0 0"/><path d="m176.070312 296.089844h-24c-4.421874 0-8-3.578125-8-8 0-4.425782 3.578126-8 8-8h24c4.425782 0 8 3.574218 8 8 0 4.421875-3.574218 8-8 8zm0 0"/><path d="m128.070312 344.070312c-4.421874 0-8-3.574218-8-8v-24.03125c0-4.421874 3.578126-8 8-8 4.425782 0 8 3.578126 8 8v24.03125c0 4.425782-3.574218 8-8 8zm0 0"/><path d="m272.070312 320.039062c-4.421874 0-8-3.574218-8-8 0-8.824218-7.175781-16-16-16-4.421874 0-8-3.574218-8-8 0-4.421874 3.578126-8 8-8 17.648438 0 32 14.351563 32 32 0 4.425782-3.574218 8-8 8zm0 0"/><path d="m248.070312 296.089844h-24c-4.421874 0-8-3.578125-8-8 0-4.425782 3.578126-8 8-8h24c4.425782 0 8 3.574218 8 8 0 4.421875-3.574218 8-8 8zm0 0"/><path d="m272.070312 344.070312c-4.421874 0-8-3.574218-8-8v-24.03125c0-4.421874 3.578126-8 8-8 4.425782 0 8 3.578126 8 8v24.03125c0 4.425782-3.574218 8-8 8zm0 0"/><path d="m176.070312 296.089844c-4.421874 0-8-3.578125-8-8v-29.472656c0-4.425782 3.578126-8 8-8 4.425782 0 8 3.574218 8 8v29.472656c0 4.421875-3.574218 8-8 8zm0 0"/><path d="m224.070312 296.039062c-4.421874 0-8-3.574218-8-8v-29.421874c0-4.425782 3.578126-8 8-8 4.425782 0 8 3.574218 8 8v29.421874c0 4.425782-3.574218 8-8 8zm0 0"/><path d="m200.070312 272.007812c-35.285156 0-64-28.695312-64-63.96875 0-4.414062 3.578126-8 8-8 4.425782 0 8 3.585938 8 8 0 26.457032 21.53125 47.96875 48 47.96875 26.472657 0 48-21.511718 48-47.96875 0-4.414062 3.578126-8 8-8 4.425782 0 8 3.585938 8 8 0 35.273438-28.710937 63.96875-64 63.96875zm0 0"/><path d="m184.078125 304.039062c-2.933594 0-5.757813-1.613281-7.167969-4.421874-1.972656-3.953126-.375-8.761719 3.578125-10.738282l16-8c3.945313-1.957031 8.75-.375 10.734375 3.578125 1.976563 3.949219.378906 8.757813-3.574218 10.734375l-16 8c-1.144532.578125-2.367188.847656-3.570313.847656zm0 0"/><path d="m216.070312 304.039062c-2.046874 0-4.09375-.78125-5.65625-2.34375-3.125-3.128906-3.125-8.183593 0-11.3125l8-8c3.128907-3.125 8.1875-3.125 11.3125 0 3.128907 3.128907 3.128907 8.183594 0 11.3125l-8 8c-1.558593 1.5625-3.605468 2.34375-5.65625 2.34375zm0 0"/><path d="m184.070312 304.039062c-2.046874 0-4.09375-.78125-5.65625-2.34375l-8-8c-3.125-3.128906-3.125-8.183593 0-11.3125 3.128907-3.125 8.1875-3.125 11.3125 0l8 8c3.128907 3.128907 3.128907 8.183594 0 11.3125-1.558593 1.5625-3.605468 2.34375-5.65625 2.34375zm0 0"/><path d="m216.0625 304.039062c-1.199219 0-2.421875-.269531-3.566406-.839843l-16-8c-3.953125-1.976563-5.550782-6.785157-3.574219-10.734375 1.980469-3.953125 6.789063-5.535156 10.734375-3.578125l16 8c3.953125 1.976562 5.550781 6.785156 3.574219 10.738281-1.40625 2.800781-4.230469 4.414062-7.167969 4.414062zm0 0"/><path d="m136.070312 184.039062c-4.421874 0-8-3.582031-8-8v-3.96875c0-4.414062 3.578126-8 8-8 4.425782 0 8 3.585938 8 8v3.96875c0 4.417969-3.574218 8-8 8zm0 0"/></svg>