<svg height="512pt" viewBox="-32 0 512 512" width="512pt" xmlns="http://www.w3.org/2000/svg"><path d="m268 416-52-32v-49.199219c18.800781 10.878907 40.640625 17.121094 64 17.121094 14 0 27.441406-2.234375 40-6.402344v38.480469zm0 0" fill="#eac6bb"/><path d="m376 384-108 72-52-34.71875v-37.28125l52 32 52-32zm0 0" fill="#f5f7fa"/><path d="m424 256v88c-.078125 8.871094-7.121094 15.910156-16 15.910156v.089844h-88v-14.488281c43.441406-14.230469 76.640625-51.191407 85.601562-96.871094zm0 0" fill="#773e3e"/><path d="m184 36.078125v99.921875h-62.078125c6.476563-41.199219 29.519531-76.878906 62.078125-99.921875zm0 0" fill="#844646"/><path d="m424 161.679688v94.320312l-18.398438-7.359375-189.601562-75.839844v-4.800781c0-17.601562-14.398438-32-32-32v-99.921875c24.878906-17.757813 55.199219-28.078125 88-28.078125 83.921875 0 152 68.078125 152 152zm0 0" fill="#965353"/><path d="m272 8c-5.320312 0-10.542969.367188-15.71875.894531 76.261719 8.136719 135.71875 72.679688 135.71875 151.105469v83.199219l13.601562 5.441406 18.398438 7.359375v-96c0-83.921875-68.078125-152-152-152zm0 0" fill="#844646"/><path d="m216 172.800781 189.601562 75.839844c-8.960937 45.679687-42.160156 82.640625-85.601562 96.871094-12.558594 4.167969-26 6.398437-40 6.398437-23.359375 0-45.199219-6.230468-64-17.117187zm0 0" fill="#eac6bb"/><path d="m56 168c8.800781 0 16 7.121094 16 16 0 8.800781-7.199219 16-16 16-8.878906 0-16-7.199219-16-16 0-8.878906 7.121094-16 16-16zm0 0" fill="#5d9cec"/><path d="m144 328c0 17.671875-14.328125 32-32 32s-32-14.328125-32-32 14.328125-32 32-32 32 14.328125 32 32zm0 0" fill="#aab2bd"/><path d="m216 421.28125v50.71875c0 17.59375-14.398438 32-32 32h-144c-17.601562 0-32-14.40625-32-32v-304c0-17.601562 14.398438-32 32-32h144c17.601562 0 32 14.398438 32 32zm-72-93.28125c0-17.679688-14.320312-32-32-32s-32 14.320312-32 32 14.320312 32 32 32 32-14.320312 32-32zm-72-144c0-8.878906-7.199219-16-16-16-8.878906 0-16 7.121094-16 16 0 8.800781 7.121094 16 16 16 8.800781 0 16-7.199219 16-16zm0 0" fill="#656d78"/><path d="m392 384c26.558594 0 48 21.441406 48 48v72h-256c17.601562 0 32-14.40625 32-32v-50.71875l52 34.71875 108-72zm0 0" fill="#5d9cec"/><path d="m392 384c26.558594 0 48 21.441406 48 48v72h-256c17.601562 0 32-14.40625 32-32v-50.71875l52 34.71875 108-72zm0 0" fill="#48cfad"/><path d="m392 384h-32c26.558594 0 48 21.441406 48 48v72h32v-72c0-26.558594-21.441406-48-48-48zm0 0" fill="#37bc9b"/><path d="m376 384h-16c4.585938 0 9 .679688 13.191406 1.871094zm0 0" fill="#e6e9ed"/><path d="m374.9375 236.375c-6.265625 53.695312-42.859375 97.960938-92.25 115.433594 13.023438-.265625 25.558594-2.394532 37.3125-6.289063 24.007812-7.863281 44.855469-22.703125 60.246094-42.085937 1.226562-1.640625 2.53125-3.226563 3.683594-4.921875.0625-.085938.125-.167969.191406-.265625 10-14.820313 17.230468-31.671875 20.976562-49.804688zm0 0" fill="#d3b1a9"/><path d="m184 512h-144c-22.054688 0-40-17.945312-40-40v-304c0-22.054688 17.945312-40 40-40h144c22.054688 0 40 17.945312 40 40v304c0 22.054688-17.945312 40-40 40zm-144-368c-13.230469 0-24 10.769531-24 24v304c0 13.230469 10.769531 24 24 24h144c13.230469 0 24-10.769531 24-24v-304c0-13.230469-10.769531-24-24-24zm0 0"/><path d="m112 368c-22.054688 0-40-17.945312-40-40s17.945312-40 40-40 40 17.945312 40 40-17.945312 40-40 40zm0-64c-13.230469 0-24 10.769531-24 24s10.769531 24 24 24 24-10.769531 24-24-10.769531-24-24-24zm0 0"/><path d="m56 208c-13.230469 0-24-10.769531-24-24s10.769531-24 24-24 24 10.769531 24 24-10.769531 24-24 24zm0-32c-4.414062 0-8 3.59375-8 8s3.585938 8 8 8 8-3.59375 8-8-3.585938-8-8-8zm0 0"/><path d="m96.238281 192c-4.421875 0-8.039062-3.585938-8.039062-8s3.535156-8 7.953125-8h.085937c4.417969 0 8 3.585938 8 8s-3.582031 8-8 8zm0 0"/><path d="m168 480h-112c-4.425781 0-8-3.574219-8-8s3.574219-8 8-8h112c4.425781 0 8 3.574219 8 8s-3.574219 8-8 8zm0 0"/><path d="m440 440c-4.425781 0-8-3.574219-8-8 0-22.054688-17.945312-40-40-40-4.425781 0-8-3.574219-8-8s3.574219-8 8-8c30.871094 0 56 25.128906 56 56 0 4.425781-3.574219 8-8 8zm0 0"/><path d="m392 392h-72c-4.425781 0-8-3.574219-8-8s3.574219-8 8-8h72c4.425781 0 8 3.574219 8 8s-3.574219 8-8 8zm0 0"/><path d="m440 512c-4.425781 0-8-3.574219-8-8v-72c0-4.425781 3.574219-8 8-8s8 3.574219 8 8v72c0 4.425781-3.574219 8-8 8zm0 0"/><path d="m218.984375 391.808594c-4.425781 0-8-3.578125-8-8v-44.847656c0-4.425782 3.574219-8 8-8 4.421875 0 8 3.574218 8 8v44.847656c0 4.414062-3.578125 8-8 8zm0 0"/><path d="m320 392c-4.425781 0-8-3.574219-8-8v-38.441406c0-4.421875 3.574219-8 8-8s8 3.578125 8 8v38.441406c0 4.425781-3.574219 8-8 8zm0 0"/><path d="m280 359.9375c-23.921875 0-47.449219-6.296875-68.023438-18.210938-3.824218-2.207031-5.136718-7.109374-2.914062-10.925781 2.210938-3.824219 7.089844-5.160156 10.929688-2.914062 18.152343 10.503906 38.894531 16.058593 60.007812 16.058593 4.425781 0 8 3.574219 8 8 0 4.421876-3.574219 7.992188-8 7.992188zm0 0"/><path d="m280 359.9375c-4.425781 0-8-3.578125-8-8 0-4.425781 3.574219-8 8-8 57.257812 0 106.785156-40.730469 117.761719-96.832031.847656-4.335938 4.992187-7.195313 9.390625-6.320313 4.335937.847656 7.167968 5.046875 6.3125 9.382813-12.449219 63.609375-68.578125 109.769531-133.464844 109.769531zm0 0"/><path d="m424 168c-4.425781 0-8-3.585938-8-8 0-79.398438-64.601562-144-144-144-71.265625 0-131.070312 50.992188-142.207031 121.257812-.6875 4.359376-4.785157 7.328126-9.152344 6.644532-4.367187-.6875-7.34375-4.789063-6.648437-9.160156 12.375-78.078126 78.832031-134.742188 158.007812-134.742188 88.222656 0 160 71.777344 160 160 0 4.414062-3.574219 8-8 8zm0 0"/><path d="m424 352c-4.425781 0-8-3.574219-8-8v-182.320312c0-4.414063 3.574219-8 8-8s8 3.585937 8 8v182.320312c0 4.425781-3.574219 8-8 8zm0 0"/><path d="m424 264c-.992188 0-2-.183594-2.96875-.566406l-208.015625-83.203125c-4.105469-1.644531-6.105469-6.292969-4.464844-10.398438s6.320313-6.078125 10.402344-4.457031l208.015625 83.199219c4.101562 1.648437 6.101562 6.296875 4.464844 10.402343-1.257813 3.121094-4.265625 5.023438-7.433594 5.023438zm0 0"/><path d="m408 367.9375c-4.425781 0-8-3.578125-8-8 0-4.425781 3.574219-8 8-8 4.414062 0 8-3.585938 8-8 0-4.425781 3.574219-8 8-8s8 3.574219 8 8c0 13.230469-10.769531 24-24 24zm0 0"/><path d="m408 368h-88c-4.425781 0-8-3.574219-8-8s3.574219-8 8-8h88c4.425781 0 8 3.574219 8 8s-3.574219 8-8 8zm0 0"/><path d="m184 144c-4.425781 0-8-3.585938-8-8v-99.9375c0-4.414062 3.574219-8 8-8s8 3.585938 8 8v99.9375c0 4.414062-3.574219 8-8 8zm0 0"/><path d="m267.992188 424c-1.433594 0-2.871094-.382812-4.183594-1.183594l-52-32c-3.761719-2.3125-4.929688-7.242187-2.617188-11.007812 2.304688-3.761719 7.214844-4.9375 11.007813-2.617188l52 32c3.761719 2.3125 4.929687 7.242188 2.617187 11.007813-1.511718 2.449219-4.136718 3.800781-6.824218 3.800781zm0 0"/><path d="m268.007812 424c-2.6875 0-5.3125-1.351562-6.824218-3.808594-2.3125-3.765625-1.144532-8.695312 2.617187-11.007812l52-32c3.785157-2.320313 8.695313-1.144532 11.007813 2.617187 2.3125 3.765625 1.144531 8.695313-2.617188 11.007813l-52 32c-1.3125.808594-2.75 1.191406-4.183594 1.191406zm0 0"/><path d="m267.992188 464c-1.519532 0-3.0625-.441406-4.433594-1.34375l-52.03125-34.6875c-3.679688-2.457031-4.671875-7.417969-2.214844-11.097656 2.449219-3.679688 7.398438-4.671875 11.09375-2.214844l52.035156 34.6875c3.679688 2.457031 4.671875 7.417969 2.214844 11.097656-1.535156 2.3125-4.082031 3.558594-6.664062 3.558594zm0 0"/><path d="m268.007812 464c-2.582031 0-5.128906-1.246094-6.664062-3.558594-2.457031-3.679687-1.464844-8.640625 2.214844-11.097656l108-72c3.6875-2.449219 8.648437-1.464844 11.097656 2.214844 2.457031 3.679687 1.464844 8.640625-2.214844 11.097656l-108 72c-1.371094.902344-2.914062 1.34375-4.433594 1.34375zm0 0"/></svg>