<svg height="512pt" viewBox="-112 0 512 512" width="512pt" xmlns="http://www.w3.org/2000/svg"><path d="m144 456c8.800781 0 16 7.199219 16 16 0 8.878906-7.199219 16-16 16s-16-7.121094-16-16c0-8.800781 7.199219-16 16-16zm0 0" fill="#aab2bd"/><path d="m216 440h-208v16c0 26.398438 21.601562 48 48 48h176c26.398438 0 48-21.601562 48-48v-16zm-72 48c-8.800781 0-16-7.121094-16-16 0-8.800781 7.199219-16 16-16s16 7.199219 16 16c0 8.878906-7.199219 16-16 16zm0 0" fill="#656d78"/><path d="m216 416v24h-144v-24c0-13.28125 10.71875-24 24-24h24l24 16 24-16h24c13.28125 0 24 10.71875 24 24zm0 0" fill="#e6e9ed"/><path d="m192 392h-24c13.28125 0 24 10.71875 24 24v24h24v-24c0-13.28125-10.71875-24-24-24zm0 0" fill="#ccd1d9"/><path d="m168 362.558594v29.441406l-24 16-24-16v-29.519531c7.28125 3.519531 15.359375 5.449219 24 5.449219s16.71875-1.921876 24-5.449219zm0 0" fill="#eac6bb"/><path d="m136 288h16c19.121094 0 36.320312 8.398438 48 21.679688v2.320312c0 22.320312-13.039062 41.601562-32 50.480469-7.28125 3.519531-15.359375 5.449219-24 5.449219s-16.71875-1.921876-24-5.449219c-18.960938-8.871094-32-28.160157-32-50.480469v-24c13.28125 0 24-10.71875 24-24 0 13.28125 10.71875 24 24 24zm0 0" fill="#eac6bb"/><path d="m176 292.753906v19.246094c0 22.320312-13.039062 41.601562-32 50.480469-3.792969 1.832031-7.816406 3.207031-12 4.136719 3.855469.839843 7.855469 1.3125 12 1.3125 8.640625 0 16.71875-1.921876 24-5.449219 18.960938-8.871094 32-28.160157 32-50.480469v-2.320312c-6.488281-7.375-14.71875-13.175782-24-16.925782zm0 0" fill="#d3b1a9"/><path d="m112 224v40c0 13.28125-10.71875 24-24 24v-40c0-13.28125 10.71875-24 24-24zm0 0" fill="#da4453"/><path d="m216 272v80c0-16.238281-6-31.039062-16-42.320312-11.679688-13.28125-28.878906-21.679688-48-21.679688h-16c-13.28125 0-24-10.71875-24-24v-40c10.960938-8.800781 24.878906-16 40-16 35.359375 0 64 28.640625 64 64zm0 0" fill="#ed5565"/><path d="m152 208c-3.816406 0-7.542969.464844-11.175781 1.289062 29.207031 5.933594 51.175781 31.742188 51.175781 62.710938v30.136719c2.863281 2.304687 5.574219 4.792969 8 7.542969 10 11.28125 16 26.082031 16 42.320312v-80c0-35.359375-28.640625-64-64-64zm0 0" fill="#da4453"/><path d="m74.71875 187.679688c4.882812 4.800781 4.882812 12.71875 0 17.601562l-18.71875 18.71875-17.601562-17.679688-1.117188-1.039062c-4.882812-4.882812-4.882812-12.808594 0-17.601562 4.796875-4.878907 12.71875-4.878907 17.597656 0l1.121094 1.039062 1.121094-1.039062c4.878906-4.878907 12.800781-4.878907 17.597656 0zm0 0" fill="#ed5565"/><path d="m250.71875 171.679688c4.882812 4.800781 4.882812 12.71875 0 17.601562l-18.71875 18.71875-17.601562-17.679688-1.117188-1.039062c-4.882812-4.882812-4.882812-12.808594 0-17.601562 4.796875-4.878907 12.71875-4.878907 17.597656 0l1.121094 1.039062 1.121094-1.039062c4.878906-4.878907 12.800781-4.878907 17.597656 0zm0 0" fill="#ed5565"/><path d="m162.71875 139.679688c4.882812 4.800781 4.882812 12.71875 0 17.601562l-18.71875 18.71875-17.601562-17.679688-1.117188-1.039062c-4.882812-4.882812-4.882812-12.808594 0-17.601562 4.796875-4.878907 12.71875-4.878907 17.597656 0l1.121094 1.039062 1.121094-1.039062c4.878906-4.878907 12.800781-4.878907 17.597656 0zm0 0" fill="#ed5565"/><g fill="#5d9cec"><path d="m250.71875 171.679688c-4.796875-4.878907-12.71875-4.878907-17.597656 0l-1.121094 1.039062-1.121094-1.039062c-4.878906-4.878907-12.808594-4.878907-17.597656 0-4.882812 4.800781-4.882812 12.71875 0 17.601562l1.117188 1.039062 17.601562 17.679688 18.71875-18.71875c4.882812-4.882812 4.882812-12.800781 0-17.601562zm-176 16c-4.796875-4.878907-12.71875-4.878907-17.597656 0l-1.121094 1.039062-1.121094-1.039062c-4.878906-4.878907-12.808594-4.878907-17.597656 0-4.882812 4.800781-4.882812 12.71875 0 17.601562l1.117188 1.039062 17.601562 17.679688 18.71875-18.71875c4.882812-4.882812 4.882812-12.800781 0-17.601562zm13.28125 124.320312c0 22.320312 13.039062 41.601562 32 50.480469v29.519531h-24c-13.28125 0-24 10.71875-24 24v24h-64v-336h272v336h-64v-24c0-13.28125-10.71875-24-24-24h-24v-29.519531c18.960938-8.871094 32-28.160157 32-50.480469v-2.320312c10 11.28125 16 26.082031 16 42.320312v-80c0-35.359375-28.640625-64-64-64-15.121094 0-29.039062 7.199219-40 16-13.28125 0-24 10.71875-24 24zm54.878906-172.320312c-4.878906-4.878907-12.808594-4.878907-17.597656 0-4.882812 4.800781-4.882812 12.71875 0 17.601562l1.117188 1.039062 17.601562 17.679688 18.71875-18.71875c4.882812-4.882812 4.882812-12.808594 0-17.601562-4.796875-4.878907-12.71875-4.878907-17.597656 0l-1.121094 1.039062zm0 0"/><path d="m64 32c13.28125 0 24 10.71875 24 24s-10.71875 24-24 24-24-10.71875-24-24 10.71875-24 24-24zm0 0"/><path d="m224 32c13.28125 0 24 10.71875 24 24s-10.71875 24-24 24-24-10.71875-24-24 10.71875-24 24-24zm0 0"/><path d="m144 32c13.28125 0 24 10.71875 24 24s-10.71875 24-24 24-24-10.71875-24-24 10.71875-24 24-24zm0 0"/></g><path d="m224 80c13.28125 0 24-10.71875 24-24s-10.71875-24-24-24-24 10.71875-24 24 10.71875 24 24 24zm56 24h-272v-56c0-22.078125 17.921875-40 40-40h192c22.078125 0 40 17.921875 40 40zm-216-24c13.28125 0 24-10.71875 24-24s-10.71875-24-24-24-24 10.71875-24 24 10.71875 24 24 24zm80-48c-13.28125 0-24 10.71875-24 24s10.71875 24 24 24 24-10.71875 24-24-10.71875-24-24-24zm0 0" fill="#e6e9ed"/><path d="m232 216c-2.128906 0-4.160156-.839844-5.65625-2.34375l-18.695312-18.695312c-3.90625-3.898438-6.03125-9.03125-6.03125-14.503907 0-5.472656 2.125-10.601562 5.992187-14.472656 6.300781-6.328125 16.726563-7.695313 24.382813-3.441406 7.625-4.238281 18.070312-2.910157 24.414062 3.464843 3.851562 3.839844 5.976562 8.976563 5.976562 14.449219 0 5.472657-2.125 10.597657-5.992187 14.472657l-18.734375 18.726562c-1.496094 1.503906-3.527344 2.34375-5.65625 2.34375zm-9.929688-40c-1.183593 0-2.292968.464844-3.132812 1.296875-.859375.855469-1.320312 1.976563-1.320312 3.167969s.460937 2.304687 1.292968 3.144531l13.089844 13.078125 13.078125-13.078125c.84375-.839844 1.304687-1.960937 1.304687-3.152344 0-1.191406-.460937-2.304687-1.292968-3.144531-1.730469-1.726562-4.632813-1.703125-6.3125-.015625l-1.160156 1.144531c-3.113282 3.078125-8.128907 3.078125-11.234376 0l-1.109374-1.097656c-.890626-.878906-2.007813-1.34375-3.203126-1.34375zm0 0"/><path d="m56 232c-2.128906 0-4.160156-.839844-5.65625-2.34375l-18.695312-18.695312c-3.90625-3.898438-6.03125-9.03125-6.03125-14.503907 0-5.472656 2.125-10.601562 5.992187-14.472656 6.300781-6.328125 16.734375-7.703125 24.382813-3.441406 7.632812-4.238281 18.078124-2.910157 24.414062 3.464843 3.851562 3.839844 5.976562 8.976563 5.976562 14.449219 0 5.472657-2.125 10.597657-5.992187 14.472657l-18.734375 18.726562c-1.496094 1.503906-3.527344 2.34375-5.65625 2.34375zm-9.929688-40c-1.183593 0-2.292968.464844-3.132812 1.296875-.859375.855469-1.320312 1.976563-1.320312 3.167969s.460937 2.304687 1.292968 3.144531l13.089844 13.078125 13.078125-13.078125c.84375-.839844 1.304687-1.960937 1.304687-3.152344 0-1.191406-.460937-2.304687-1.292968-3.144531-1.730469-1.738281-4.632813-1.703125-6.3125-.015625l-1.160156 1.144531c-3.113282 3.078125-8.128907 3.078125-11.234376 0l-1.109374-1.097656c-.890626-.878906-2.007813-1.34375-3.203126-1.34375zm0 0"/><path d="m144 184c-2.128906 0-4.160156-.839844-5.65625-2.34375l-18.695312-18.695312c-3.90625-3.898438-6.03125-9.03125-6.03125-14.503907 0-5.472656 2.125-10.601562 5.992187-14.472656 6.3125-6.328125 16.726563-7.703125 24.382813-3.441406 7.625-4.238281 18.078124-2.910157 24.414062 3.464843 3.851562 3.839844 5.976562 8.976563 5.976562 14.449219 0 5.472657-2.125 10.597657-5.992187 14.472657l-18.734375 18.726562c-1.496094 1.503906-3.527344 2.34375-5.65625 2.34375zm-9.929688-40c-1.183593 0-2.292968.464844-3.132812 1.296875-.859375.855469-1.320312 1.976563-1.320312 3.167969s.460937 2.304687 1.292968 3.144531l13.089844 13.078125 13.078125-13.078125c.84375-.839844 1.304687-1.960937 1.304687-3.152344 0-1.191406-.460937-2.304687-1.292968-3.144531-1.730469-1.726562-4.632813-1.703125-6.3125-.015625l-1.160156 1.144531c-3.113282 3.078125-8.128907 3.078125-11.234376 0l-1.109374-1.097656c-.890626-.878906-2.007813-1.34375-3.203126-1.34375zm0 0"/><path d="m280 56.015625c-4.425781 0-8-3.574219-8-8 0-17.648437-14.351562-32-32-32-4.425781 0-8-3.574219-8-8 0-4.421875 3.574219-8 8-8 26.472656 0 48 21.527344 48 48 0 4.425781-3.574219 8-8 8zm0 0"/><path d="m8 56c-4.425781 0-8-3.574219-8-8 0-26.472656 21.527344-48 48-48 4.425781 0 8 3.574219 8 8s-3.574219 8-8 8c-17.648438 0-32 14.351562-32 32 0 4.425781-3.574219 8-8 8zm0 0"/><path d="m240 16h-192c-4.425781 0-8-3.574219-8-8s3.574219-8 8-8h192c4.425781 0 8 3.574219 8 8s-3.574219 8-8 8zm0 0"/><path d="m232 512h-176c-30.871094 0-56-25.128906-56-56v-408c0-4.425781 3.574219-8 8-8s8 3.574219 8 8v408c0 22.054688 17.945312 40 40 40h176c22.054688 0 40-17.945312 40-40v-408c0-4.425781 3.574219-8 8-8s8 3.574219 8 8v408c0 30.871094-25.128906 56-56 56zm0 0"/><path d="m280 448h-272c-4.425781 0-8-3.574219-8-8s3.574219-8 8-8h272c4.425781 0 8 3.574219 8 8s-3.574219 8-8 8zm0 0"/><path d="m144 496c-13.230469 0-24-10.769531-24-24s10.769531-24 24-24 24 10.769531 24 24-10.769531 24-24 24zm0-32c-4.414062 0-8 3.585938-8 8s3.585938 8 8 8 8-3.585938 8-8-3.585938-8-8-8zm0 0"/><path d="m88 320.015625c-4.425781 0-8-3.574219-8-8v-64.03125c0-4.425781 3.574219-8 8-8s8 3.574219 8 8v64.03125c0 4.425781-3.574219 8-8 8zm0 0"/><path d="m200 320.015625c-4.425781 0-8-3.574219-8-8v-2.34375c0-4.425781 3.574219-8 8-8s8 3.574219 8 8v2.34375c0 4.425781-3.574219 8-8 8zm0 0"/><path d="m72 423.984375c-4.425781 0-8-3.578125-8-8 0-17.648437 14.351562-32 32-32 4.425781 0 8 3.574219 8 8 0 4.421875-3.574219 8-8 8-8.824219 0-16 7.175781-16 16 0 4.421875-3.574219 8-8 8zm0 0"/><path d="m120 400.03125h-24c-4.425781 0-8-3.574219-8-8 0-4.421875 3.574219-8 8-8h24c4.425781 0 8 3.578125 8 8 0 4.425781-3.574219 8-8 8zm0 0"/><path d="m72 448.015625c-4.425781 0-8-3.574219-8-8v-24.03125c0-4.425781 3.574219-8 8-8s8 3.574219 8 8v24.03125c0 4.425781-3.574219 8-8 8zm0 0"/><path d="m216 423.984375c-4.425781 0-8-3.578125-8-8 0-8.824219-7.175781-16-16-16-4.425781 0-8-3.578125-8-8 0-4.425781 3.574219-8 8-8 17.648438 0 32 14.351563 32 32 0 4.421875-3.574219 8-8 8zm0 0"/><path d="m192 400.03125h-24c-4.425781 0-8-3.574219-8-8 0-4.421875 3.574219-8 8-8h24c4.425781 0 8 3.578125 8 8 0 4.425781-3.574219 8-8 8zm0 0"/><path d="m216 448.015625c-4.425781 0-8-3.574219-8-8v-24.03125c0-4.425781 3.574219-8 8-8s8 3.574219 8 8v24.03125c0 4.425781-3.574219 8-8 8zm0 0"/><path d="m120 400.03125c-4.425781 0-8-3.574219-8-8v-29.472656c0-4.421875 3.574219-8 8-8s8 3.578125 8 8v29.472656c0 4.425781-3.574219 8-8 8zm0 0"/><path d="m168 399.984375c-4.425781 0-8-3.578125-8-8v-29.425781c0-4.421875 3.574219-8 8-8s8 3.578125 8 8v29.425781c0 4.421875-3.574219 8-8 8zm0 0"/><path d="m144 375.953125c-35.289062 0-64-28.695313-64-63.96875 0-4.425781 3.574219-8 8-8s8 3.574219 8 8c0 26.457031 21.527344 47.96875 48 47.96875s48-21.511719 48-47.96875c0-4.425781 3.574219-8 8-8s8 3.574219 8 8c0 35.273437-28.710938 63.96875-64 63.96875zm0 0"/><path d="m143.992188 415.984375c-1.519532 0-3.0625-.441406-4.433594-1.34375l-24-16c-3.679688-2.457031-4.671875-7.417969-2.214844-11.097656 2.449219-3.679688 7.410156-4.664063 11.097656-2.214844l24 16c3.679688 2.457031 4.671875 7.414063 2.214844 11.097656-1.535156 2.308594-4.082031 3.558594-6.664062 3.558594zm0 0"/><path d="m144.007812 415.984375c-2.582031 0-5.128906-1.25-6.664062-3.558594-2.457031-3.683593-1.464844-8.640625 2.214844-11.097656l24-16c3.6875-2.449219 8.648437-1.464844 11.097656 2.214844 2.457031 3.679687 1.464844 8.640625-2.214844 11.097656l-24 16c-1.371094.902344-2.914062 1.34375-4.433594 1.34375zm0 0"/><path d="m216 279.984375c-4.425781 0-8-3.578125-8-8 0-30.871094-25.128906-56-56-56-14.257812 0-26.894531 7.742187-34.992188 14.238281-3.457031 2.769532-8.480468 2.210938-11.246093-1.230468-2.769531-3.449219-2.210938-8.488282 1.230469-11.25 14.480468-11.613282 30.039062-17.757813 45.007812-17.757813 39.703125 0 72 32.296875 72 72 0 4.421875-3.574219 8-8 8zm0 0"/><path d="m216 359.984375c-4.425781 0-8-3.578125-8-8 0-30.871094-25.128906-56-56-56-4.425781 0-8-3.578125-8-8 0-4.425781 3.574219-8 8-8 39.703125 0 72 32.296875 72 72 0 4.421875-3.574219 8-8 8zm0 0"/><path d="m88 295.984375c-4.425781 0-8-3.578125-8-8 0-4.425781 3.574219-8 8-8 8.824219 0 16-7.175781 16-16 0-4.425781 3.574219-8 8-8s8 3.574219 8 8c0 17.648437-14.351562 32-32 32zm0 0"/><path d="m88 255.984375c-4.425781 0-8-3.578125-8-8 0-17.648437 14.351562-32 32-32 4.425781 0 8 3.574219 8 8 0 4.421875-3.574219 8-8 8-8.824219 0-16 7.175781-16 16 0 4.421875-3.574219 8-8 8zm0 0"/><path d="m136 295.984375c-17.648438 0-32-14.351563-32-32 0-4.425781 3.574219-8 8-8s8 3.574219 8 8c0 8.824219 7.175781 16 16 16 4.425781 0 8 3.574219 8 8 0 4.421875-3.574219 8-8 8zm0 0"/><path d="m112 271.984375c-4.425781 0-8-3.578125-8-8v-40c0-4.425781 3.574219-8 8-8s8 3.574219 8 8v40c0 4.421875-3.574219 8-8 8zm0 0"/><path d="m216 359.984375c-4.425781 0-8-3.578125-8-8v-80c0-4.425781 3.574219-8 8-8s8 3.574219 8 8v80c0 4.421875-3.574219 8-8 8zm0 0"/><path d="m152 295.984375h-16c-4.425781 0-8-3.578125-8-8 0-4.425781 3.574219-8 8-8h16c4.425781 0 8 3.574219 8 8 0 4.421875-3.574219 8-8 8zm0 0"/><path d="m64 88c-17.648438 0-32-14.351562-32-32s14.351562-32 32-32 32 14.351562 32 32-14.351562 32-32 32zm0-48c-8.824219 0-16 7.175781-16 16s7.175781 16 16 16 16-7.175781 16-16-7.175781-16-16-16zm0 0"/><path d="m144 88c-17.648438 0-32-14.351562-32-32s14.351562-32 32-32 32 14.351562 32 32-14.351562 32-32 32zm0-48c-8.824219 0-16 7.175781-16 16s7.175781 16 16 16 16-7.175781 16-16-7.175781-16-16-16zm0 0"/><path d="m224 88c-17.648438 0-32-14.351562-32-32s14.351562-32 32-32 32 14.351562 32 32-14.351562 32-32 32zm0-48c-8.824219 0-16 7.175781-16 16s7.175781 16 16 16 16-7.175781 16-16-7.175781-16-16-16zm0 0"/><path d="m280 112h-272c-4.425781 0-8-3.574219-8-8s3.574219-8 8-8h272c4.425781 0 8 3.574219 8 8s-3.574219 8-8 8zm0 0"/></svg>