<svg height="512pt" viewBox="0 -16 512 512" width="512pt" xmlns="http://www.w3.org/2000/svg"><path d="m504 8v144h-32v24l-48-24h-48v-64h-240v-80zm0 0" fill="#f6bb42"/><path d="m314.238281 232c-14.636719 8.078125-27.519531 19.039062-38 32-17.519531 21.921875-28.085937 49.761719-28.085937 80h-136.152344l-64 32v-32h-40v-256h368v128.078125c-22.320312 0-43.359375 5.761719-61.679688 15.921875zm0 0" fill="#ffce54"/><path d="m376.078125 216.078125c70.640625 0 127.921875 57.28125 127.921875 127.921875 0 70.71875-57.28125 128-127.921875 128-70.636719 0-127.917969-57.28125-127.917969-128 0-30.238281 10.558594-58.078125 28.085938-80 10.480468-12.960938 23.363281-23.921875 38-32h.082031c18.320313-10.167969 39.359375-15.921875 61.679687-15.921875zm0 0" fill="#ed5565"/><path d="m376.078125 216.078125h-.078125c-5.527344 0-10.976562.363281-16.328125 1.050781 63.273437 7.703125 112.328125 61.519532 112.328125 126.871094 0 65.28125-48.847656 119-111.921875 126.886719 5.25.65625 10.570313 1.113281 16 1.113281 70.640625 0 127.921875-57.28125 127.921875-128 0-70.640625-57.28125-127.921875-127.921875-127.921875zm0 0" fill="#da4453"/><path d="m48 384c-1.464844 0-2.921875-.398438-4.199219-1.191406-2.359375-1.457032-3.800781-4.03125-3.800781-6.808594v-24h-32c-4.425781 0-8-3.574219-8-8v-256c0-4.425781 3.574219-8 8-8h368c4.425781 0 8 3.574219 8 8v128.121094c0 4.421875-3.574219 8-8 8s-8-3.578125-8-8v-120.121094h-352v240h32c4.425781 0 8 3.574219 8 8v19.054688l52.414062-26.207032c1.105469-.558594 2.339844-.847656 3.578126-.847656h136.136718c4.421875 0 8 3.574219 8 8s-3.578125 8-8 8h-134.242187l-62.300781 31.160156c-1.136719.558594-2.363282.839844-3.585938.839844zm0 0"/><path d="m472 184c-1.222656 0-2.449219-.28125-3.574219-.839844l-46.304687-23.160156h-46.121094c-4.425781 0-8-3.574219-8-8s3.574219-8 8-8h48.007812c1.238282 0 2.472657.289062 3.578126.839844l36.414062 18.214844v-11.054688c0-4.425781 3.574219-8 8-8h24v-128h-352v63.992188c0 4.421874-3.574219 8-8 8s-8-3.578126-8-8v-71.992188c0-4.425781 3.574219-8 8-8h368c4.425781 0 8 3.574219 8 8v144c0 4.425781-3.574219 8-8 8h-24v16c0 2.777344-1.441406 5.351562-3.800781 6.808594-1.277344.792968-2.734375 1.191406-4.199219 1.191406zm0 0"/><path d="m216.128906 144h-160c-4.425781 0-8-3.574219-8-8s3.574219-8 8-8h160c4.421875 0 8 3.574219 8 8s-3.585937 8-8 8zm0 0"/><path d="m120.128906 176h-64c-4.425781 0-8-3.574219-8-8s3.574219-8 8-8h64c4.421875 0 8 3.574219 8 8s-3.585937 8-8 8zm0 0"/><path d="m328 176h-175.871094c-4.425781 0-8-3.574219-8-8s3.574219-8 8-8h175.871094c4.425781 0 8 3.574219 8 8s-3.574219 8-8 8zm0 0"/><path d="m144.128906 240h-88c-4.425781 0-8-3.574219-8-8s3.574219-8 8-8h88c4.421875 0 8 3.574219 8 8s-3.585937 8-8 8zm0 0"/><path d="m314.296875 240h-138.167969c-4.425781 0-8-3.574219-8-8s3.574219-8 8-8h138.167969c4.421875 0 8 3.574219 8 8s-3.578125 8-8 8zm0 0"/><path d="m240.097656 208h-183.96875c-4.425781 0-8-3.574219-8-8s3.574219-8 8-8h183.96875c4.421875 0 8 3.574219 8 8s-3.585937 8-8 8zm0 0"/><path d="m328 208h-55.902344c-4.425781 0-8-3.574219-8-8s3.574219-8 8-8h55.902344c4.425781 0 8 3.574219 8 8s-3.574219 8-8 8zm0 0"/><path d="m328 144h-79.871094c-4.425781 0-8-3.574219-8-8s3.574219-8 8-8h79.871094c4.425781 0 8 3.574219 8 8s-3.574219 8-8 8zm0 0"/><path d="m216.128906 272h-160c-4.425781 0-8-3.574219-8-8s3.574219-8 8-8h160c4.421875 0 8 3.574219 8 8s-3.585937 8-8 8zm0 0"/><path d="m120.128906 304h-64c-4.425781 0-8-3.574219-8-8s3.574219-8 8-8h64c4.421875 0 8 3.574219 8 8s-3.585937 8-8 8zm0 0"/><path d="m257.472656 304h-105.34375c-4.425781 0-8-3.574219-8-8s3.574219-8 8-8h105.34375c4.421875 0 8 3.574219 8 8s-3.585937 8-8 8zm0 0"/><path d="m276.273438 272h-28.152344c-4.425782 0-8-3.574219-8-8s3.574218-8 8-8h28.152344c4.421874 0 8 3.574219 8 8s-3.578126 8-8 8zm0 0"/><path d="m376.0625 480c-74.949219 0-135.933594-60.984375-135.933594-135.9375 0-74.949219 60.984375-135.933594 135.933594-135.933594 74.953125 0 135.9375 60.984375 135.9375 135.933594 0 74.953125-60.984375 135.9375-135.9375 135.9375zm0-255.871094c-66.132812 0-119.933594 53.808594-119.933594 119.933594 0 66.128906 53.800782 119.9375 119.933594 119.9375 66.136719 0 119.9375-53.808594 119.9375-119.9375 0-66.125-53.808594-119.933594-119.9375-119.933594zm0 0"/><path d="m424 400c-2.046875 0-4.097656-.785156-5.65625-2.34375l-96-96c-3.128906-3.128906-3.128906-8.183594 0-11.3125s8.183594-3.128906 11.3125 0l96 96c3.128906 3.128906 3.128906 8.183594 0 11.3125-1.558594 1.558594-3.609375 2.34375-5.65625 2.34375zm0 0"/><path d="m328 400c-2.046875 0-4.097656-.785156-5.65625-2.34375-3.128906-3.128906-3.128906-8.183594 0-11.3125l96-96c3.128906-3.128906 8.183594-3.128906 11.3125 0s3.128906 8.183594 0 11.3125l-96 96c-1.558594 1.558594-3.609375 2.34375-5.65625 2.34375zm0 0"/></svg>