<svg height="512pt" viewBox="-16 0 512 512" width="512pt" xmlns="http://www.w3.org/2000/svg"><path d="m200 424c0 26.398438 21.601562 48 48 48h176c26.398438 0 48-21.601562 48-48v32c0 26.398438-21.601562 48-48 48h-176c-26.398438 0-48-21.601562-48-48zm0 0" fill="#434a54"/><path d="m336 424c8.800781 0 16 7.199219 16 16 0 8.878906-7.199219 16-16 16s-16-7.121094-16-16c0-8.800781 7.199219-16 16-16zm0 0" fill="#aab2bd"/><path d="m432 8h-192c-4.398438 0-8.558594.71875-12.558594 2-15.839844 5.28125-27.28125 20.078125-27.441406 37.679688v.320312 8h272v-8c0-22.078125-17.921875-40-40-40zm0 0" fill="#656d78"/><path d="m200 408v16c0 26.398438 21.601562 48 48 48h176c26.398438 0 48-21.601562 48-48v-16zm152 32c0 8.878906-7.199219 16-16 16s-16-7.121094-16-16c0-8.800781 7.199219-16 16-16s16 7.199219 16 16zm0 0" fill="#656d78"/><g fill="#ed5565"><path d="m282.71875 339.679688c4.882812 4.800781 4.882812 12.71875 0 17.601562l-18.71875 18.71875-17.601562-17.679688-1.117188-1.039062c-4.882812-4.882812-4.882812-12.808594 0-17.601562 4.796875-4.878907 12.71875-4.878907 17.597656 0l1.121094 1.039062 1.121094-1.039062c4.878906-4.878907 12.800781-4.878907 17.597656 0zm0 0"/><path d="m354.71875 339.679688c4.882812 4.800781 4.882812 12.71875 0 17.601562l-18.71875 18.71875-17.601562-17.679688-1.117188-1.039062c-4.882812-4.882812-4.882812-12.808594 0-17.601562 4.796875-4.878907 12.71875-4.878907 17.597656 0l1.121094 1.039062 1.121094-1.039062c4.878906-4.878907 12.800781-4.878907 17.597656 0zm0 0"/><path d="m426.71875 339.679688c4.882812 4.800781 4.882812 12.71875 0 17.601562l-18.71875 18.71875-17.601562-17.679688-1.117188-1.039062c-4.882812-4.882812-4.882812-12.808594 0-17.601562 4.796875-4.878907 12.71875-4.878907 17.597656 0l1.121094 1.039062 1.121094-1.039062c4.878906-4.878907 12.800781-4.878907 17.597656 0zm0 0"/></g><path d="m354.71875 339.679688c-4.796875-4.878907-12.71875-4.878907-17.597656 0l-1.121094 1.039062-1.121094-1.039062c-4.878906-4.878907-12.808594-4.878907-17.597656 0-4.882812 4.800781-4.882812 12.71875 0 17.601562l1.117188 1.039062 17.601562 17.679688 18.71875-18.71875c4.882812-4.882812 4.882812-12.800781 0-17.601562zm52.160156 0c-4.878906-4.878907-12.808594-4.878907-17.597656 0-4.882812 4.800781-4.882812 12.71875 0 17.601562l1.117188 1.039062 17.601562 17.679688 18.71875-18.71875c4.882812-4.882812 4.882812-12.808594 0-17.601562-4.796875-4.878907-12.71875-4.878907-17.597656 0l-1.121094 1.039062zm-141.757812 0-1.121094 1.039062-1.121094-1.039062c-4.878906-4.878907-12.808594-4.878907-17.597656 0-4.882812 4.800781-4.882812 12.71875 0 17.601562l1.117188 1.039062 17.601562 17.679688 18.71875-18.71875c4.882812-4.882812 4.882812-12.808594 0-17.601562-4.796875-4.878907-12.71875-4.878907-17.597656 0zm206.878906-283.679688v352h-272v-352zm-32 136c0-57.441406-46.558594-104-104-104s-104 46.558594-104 104 46.558594 104 104 104 104-46.558594 104-104zm0 0" fill="#ac92ec"/><path d="m372 144c36 0 44 24.078125 44 44s-24 68-56 68c-19.921875 0-.640625-33.679688-16-64-20.238281-40 16-48 28-48zm0 0" fill="#965353"/><path d="m320 132c0 6.628906-5.371094 12-12 12s-12-5.371094-12-12 5.371094-12 12-12 12 5.371094 12 12zm0 0" fill="#ffce54"/><path d="m320 244c0 6.628906-5.371094 12-12 12s-12-5.371094-12-12 5.371094-12 12-12 12 5.371094 12 12zm0 0" fill="#ffce54"/><path d="m304 188c0 11.046875-8.953125 20-20 20s-20-8.953125-20-20 8.953125-20 20-20 20 8.953125 20 20zm0 0" fill="#ffce54"/><path d="m336 88c57.441406 0 104 46.558594 104 104s-46.558594 104-104 104-104-46.558594-104-104 46.558594-104 104-104zm80 100c0-19.921875-8-44-44-44-12 0-48.238281 8-28 48 15.359375 30.320312-3.921875 64 16 64 32 0 56-48.078125 56-68zm-96-56c0-6.640625-5.359375-12-12-12s-12 5.359375-12 12 5.359375 12 12 12 12-5.359375 12-12zm0 112c0-6.640625-5.359375-12-12-12s-12 5.359375-12 12 5.359375 12 12 12 12-5.359375 12-12zm-16-56c0-11.039062-8.960938-20-20-20s-20 8.960938-20 20 8.960938 20 20 20 20-8.960938 20-20zm0 0" fill="#e6e9ed"/><path d="m152 96c13.28125 0 24 10.71875 24 24s-10.71875 24-24 24-24-10.71875-24-24 10.71875-24 24-24zm0 0" fill="#ffce54"/><path d="m144 200c0 17.671875-14.328125 32-32 32s-32-14.328125-32-32 14.328125-32 32-32 32 14.328125 32 32zm0 0" fill="#ffce54"/><path d="m152 256c13.28125 0 24 10.71875 24 24s-10.71875 24-24 24-24-10.71875-24-24 10.71875-24 24-24zm0 0" fill="#ffce54"/><path d="m176 120c0-13.28125-10.71875-24-24-24s-24 10.71875-24 24 10.71875 24 24 24 24-10.71875 24-24zm0 160c0-13.28125-10.71875-24-24-24s-24 10.71875-24 24 10.71875 24 24 24 24-10.71875 24-24zm24-224v295.679688c-83.921875 0-152-68.078126-152-152 0-83.917969 68.078125-152 152-152v.320312zm-56 144c0-17.679688-14.320312-32-32-32s-32 14.320312-32 32 14.320312 32 32 32 32-14.320312 32-32zm0 0" fill="#e6e9ed"/><path d="m227.441406 10c-15.839844 5.28125-27.28125 20.078125-27.441406 37.679688-83.921875 0-152 68.082031-152 152 0 83.921874 68.078125 152 152 152v40.320312c-106 0-192-86-192-192s86-192 192-192c9.28125 0 18.480469.640625 27.441406 2zm0 0" fill="#f5f7fa"/><path d="m424 480h-176c-30.871094 0-56-25.128906-56-56 0-4.425781 3.574219-8 8-8s8 3.574219 8 8c0 22.054688 17.945312 40 40 40h176c22.054688 0 40-17.945312 40-40 0-4.425781 3.574219-8 8-8s8 3.574219 8 8c0 30.871094-25.128906 56-56 56zm0 0"/><path d="m312.238281 40c-4.421875 0-8.039062-3.574219-8.039062-8s3.535156-8 7.953125-8h.085937c4.417969 0 8 3.574219 8 8s-3.582031 8-8 8zm0 0"/><path d="m360 40h-24c-4.425781 0-8-3.574219-8-8s3.574219-8 8-8h24c4.425781 0 8 3.574219 8 8s-3.574219 8-8 8zm0 0"/><path d="m472 56.015625c-4.425781 0-8-3.574219-8-8 0-17.648437-14.351562-32-32-32-4.425781 0-8-3.574219-8-8 0-4.421875 3.574219-8 8-8 26.472656 0 48 21.527344 48 48 0 4.425781-3.574219 8-8 8zm0 0"/><path d="m200 56c-4.425781 0-8-3.574219-8-8 0-26.472656 21.527344-48 48-48 4.425781 0 8 3.574219 8 8s-3.574219 8-8 8c-17.648438 0-32 14.351562-32 32 0 4.425781-3.574219 8-8 8zm0 0"/><path d="m432 16h-192c-4.425781 0-8-3.574219-8-8s3.574219-8 8-8h192c4.425781 0 8 3.574219 8 8s-3.574219 8-8 8zm0 0"/><path d="m472 64.015625h-272c-4.425781 0-8-3.574219-8-8 0-4.421875 3.574219-8 8-8h272c4.425781 0 8 3.578125 8 8 0 4.425781-3.574219 8-8 8zm0 0"/><path d="m424 512h-176c-30.871094 0-56-25.128906-56-56 0-4.425781 3.574219-8 8-8s8 3.574219 8 8c0 22.054688 17.945312 40 40 40h176c22.054688 0 40-17.945312 40-40 0-4.425781 3.574219-8 8-8s8 3.574219 8 8c0 30.871094-25.128906 56-56 56zm0 0"/><path d="m472 416h-272c-4.425781 0-8-3.574219-8-8s3.574219-8 8-8h272c4.425781 0 8 3.574219 8 8s-3.574219 8-8 8zm0 0"/><path d="m336 464c-13.230469 0-24-10.769531-24-24s10.769531-24 24-24 24 10.769531 24 24-10.769531 24-24 24zm0-32c-4.414062 0-8 3.585938-8 8s3.585938 8 8 8 8-3.585938 8-8-3.585938-8-8-8zm0 0"/><path d="m200 464c-4.425781 0-8-3.574219-8-8v-407.984375c0-4.421875 3.574219-8 8-8s8 3.578125 8 8v407.984375c0 4.425781-3.574219 8-8 8zm0 0"/><path d="m472 464c-4.425781 0-8-3.574219-8-8v-407.984375c0-4.421875 3.574219-8 8-8s8 3.578125 8 8v407.984375c0 4.425781-3.574219 8-8 8zm0 0"/><path d="m200 400c-110.28125 0-200-89.71875-200-200s89.71875-200 200-200c9.609375 0 19.273438.6875 28.726562 2.046875 4.378907.632813 7.410157 4.6875 6.785157 9.066406-.632813 4.367188-4.542969 7.421875-9.0625 6.78125-8.695313-1.261719-17.601563-1.894531-26.449219-1.894531-101.464844 0-184 82.535156-184 184s82.535156 184 184 184c4.425781 0 8 3.574219 8 8s-3.574219 8-8 8zm0 0"/><path d="m152 152c-17.648438 0-32-14.351562-32-32s14.351562-32 32-32 32 14.351562 32 32-14.351562 32-32 32zm0-48c-8.824219 0-16 7.175781-16 16s7.175781 16 16 16 16-7.175781 16-16-7.175781-16-16-16zm0 0"/><path d="m308 152c-11.03125 0-20-8.96875-20-20s8.96875-20 20-20 20 8.96875 20 20-8.96875 20-20 20zm0-24c-2.199219 0-4 1.800781-4 4s1.800781 4 4 4 4-1.800781 4-4-1.800781-4-4-4zm0 0"/><path d="m308 264c-11.03125 0-20-8.96875-20-20s8.96875-20 20-20 20 8.96875 20 20-8.96875 20-20 20zm0-24c-2.199219 0-4 1.800781-4 4s1.800781 4 4 4 4-1.800781 4-4-1.800781-4-4-4zm0 0"/><path d="m284 216c-15.441406 0-28-12.558594-28-28s12.558594-28 28-28 28 12.558594 28 28-12.558594 28-28 28zm0-40c-6.617188 0-12 5.382812-12 12s5.382812 12 12 12 12-5.382812 12-12-5.382812-12-12-12zm0 0"/><path d="m152 312c-17.648438 0-32-14.351562-32-32s14.351562-32 32-32 32 14.351562 32 32-14.351562 32-32 32zm0-48c-8.824219 0-16 7.175781-16 16s7.175781 16 16 16 16-7.175781 16-16-7.175781-16-16-16zm0 0"/><path d="m112 240c-22.054688 0-40-17.945312-40-40s17.945312-40 40-40 40 17.945312 40 40-17.945312 40-40 40zm0-64c-13.230469 0-24 10.769531-24 24s10.769531 24 24 24 24-10.769531 24-24-10.769531-24-24-24zm0 0"/><path d="m200 359.664062c-88.222656 0-160-71.777343-160-160 0-88.222656 71.777344-160 160-160 4.425781 0 8 3.574219 8 8 0 4.425782-3.574219 8-8 8-79.398438 0-144 64.601563-144 144 0 79.398438 64.601562 144 144 144 4.425781 0 8 3.574219 8 8 0 4.425782-3.574219 8-8 8zm0 0"/><path d="m336 304c-61.761719 0-112-50.238281-112-112s50.238281-112 112-112 112 50.238281 112 112-50.238281 112-112 112zm0-208c-52.9375 0-96 43.0625-96 96s43.0625 96 96 96 96-43.0625 96-96-43.0625-96-96-96zm0 0"/><path d="m360 264c-5.230469 0-9.449219-1.617188-12.527344-4.816406-5.800781-6-5.480468-15.222656-5.113281-25.910156.382813-11.175782.863281-25.089844-5.503906-37.664063-8.34375-16.480469-9.152344-30.402344-2.398438-41.386719 8.847657-14.390625 27.757813-18.222656 37.542969-18.222656 33.046875 0 52 18.953125 52 52 0 21.921875-25.503906 76-64 76zm-.96875-16.03125c.167969 0 .496094.03125.96875.03125 26.191406 0 48-43.558594 48-60 0-24.222656-11.777344-36-36-36-6.726562 0-19.167969 2.871094-23.902344 10.601562-3.640625 5.925782-2.617187 14.597657 3.046875 25.78125 8.214844 16.242188 7.632813 33.128907 7.207031 45.449219-.175781 5.167969-.421874 12.175781.585938 14.152344.023438-.015625.054688-.015625.09375-.015625zm0 0"/><path d="m376 224c-4.425781 0-8-3.574219-8-8v-40c0-4.425781 3.574219-8 8-8s8 3.574219 8 8v40c0 4.425781-3.574219 8-8 8zm0 0"/><path d="m384 184h-16c-4.425781 0-8-3.574219-8-8s3.574219-8 8-8h16c4.425781 0 8 3.574219 8 8s-3.574219 8-8 8zm0 0"/><path d="m336 384c-2.128906 0-4.160156-.839844-5.65625-2.34375l-18.695312-18.695312c-3.894532-3.882813-6.03125-9.023438-6.03125-14.496094-.007813-5.472656 2.125-10.609375 5.992187-14.480469 6.300781-6.328125 16.726563-7.703125 24.382813-3.441406 7.625-4.238281 18.070312-2.910157 24.414062 3.464843 3.851562 3.839844 5.984375 8.984376 5.976562 14.457032 0 5.472656-2.136718 10.605468-6 14.464844l-18.726562 18.726562c-1.496094 1.503906-3.527344 2.34375-5.65625 2.34375zm-9.929688-40c-1.183593 0-2.292968.464844-3.132812 1.296875-.859375.855469-1.320312 1.976563-1.320312 3.167969 0 1.183594.460937 2.296875 1.292968 3.136718l13.089844 13.085938 13.078125-13.078125c.84375-.839844 1.304687-1.953125 1.304687-3.144531s-.460937-2.3125-1.292968-3.152344c-1.738282-1.726562-4.640625-1.695312-6.3125-.015625l-1.160156 1.144531c-3.113282 3.078125-8.128907 3.078125-11.234376 0l-1.109374-1.097656c-.890626-.878906-2.007813-1.34375-3.203126-1.34375zm0 0"/><path d="m408 384c-2.128906 0-4.160156-.839844-5.65625-2.34375l-18.695312-18.695312c-3.894532-3.882813-6.03125-9.023438-6.03125-14.496094-.007813-5.472656 2.125-10.609375 5.992187-14.480469 6.3125-6.328125 16.726563-7.703125 24.382813-3.441406 7.625-4.238281 18.078124-2.910157 24.414062 3.464843 3.851562 3.839844 5.984375 8.984376 5.976562 14.457032 0 5.472656-2.136718 10.605468-6 14.464844l-18.726562 18.726562c-1.496094 1.503906-3.527344 2.34375-5.65625 2.34375zm-9.929688-40c-1.183593 0-2.292968.464844-3.132812 1.296875-.859375.855469-1.320312 1.976563-1.320312 3.167969 0 1.183594.460937 2.296875 1.292968 3.136718l13.089844 13.085938 13.078125-13.078125c.84375-.839844 1.304687-1.953125 1.304687-3.144531s-.460937-2.3125-1.292968-3.152344c-1.730469-1.726562-4.632813-1.695312-6.3125-.015625l-1.160156 1.144531c-3.113282 3.078125-8.128907 3.078125-11.234376 0l-1.109374-1.097656c-.890626-.878906-2.007813-1.34375-3.203126-1.34375zm0 0"/><path d="m264 384c-2.128906 0-4.160156-.839844-5.65625-2.34375l-18.695312-18.695312c-3.894532-3.882813-6.03125-9.023438-6.03125-14.496094-.007813-5.472656 2.125-10.609375 5.992187-14.480469 6.3125-6.328125 16.734375-7.703125 24.382813-3.441406 7.632812-4.238281 18.078124-2.910157 24.414062 3.464843 3.851562 3.839844 5.984375 8.984376 5.976562 14.457032 0 5.472656-2.136718 10.605468-6 14.464844l-18.726562 18.726562c-1.496094 1.503906-3.527344 2.34375-5.65625 2.34375zm-9.929688-40c-1.183593 0-2.292968.464844-3.132812 1.296875-.859375.855469-1.320312 1.976563-1.320312 3.167969 0 1.183594.460937 2.296875 1.292968 3.136718l13.089844 13.085938 13.078125-13.078125c.84375-.839844 1.304687-1.953125 1.304687-3.144531s-.460937-2.3125-1.292968-3.152344c-1.730469-1.726562-4.632813-1.695312-6.3125-.015625l-1.160156 1.144531c-3.113282 3.078125-8.128907 3.078125-11.234376 0l-1.109374-1.097656c-.890626-.878906-2.007813-1.34375-3.203126-1.34375zm0 0"/></svg>