<?xml version="1.0" encoding="iso-8859-1"?>
<!-- Generator: Adobe Illustrator 19.0.0, SVG Export Plug-In . SVG Version: 6.00 Build 0)  -->
<svg version="1.1" id="Capa_1" xmlns="http://www.w3.org/2000/svg" xmlns:xlink="http://www.w3.org/1999/xlink" x="0px" y="0px"
	 viewBox="0 0 512.001 512.001" style="enable-background:new 0 0 512.001 512.001;" xml:space="preserve">
<circle style="fill:#DEAF73;" cx="105.06" cy="99.81" r="89.7"/>
<path style="fill:#FF80BD;" d="M323.758,378.475l-13.3-3.112H98.615l-13.301,3.112c-33.865,7.924-57.815,38.125-57.815,72.905
	v53.052h354.075V451.38C381.573,416.6,357.623,386.399,323.758,378.475z"/>
<path style="fill:#FAD7A5;" d="M204.536,440.331c46.234,0,86.273-26.419,105.922-64.968l-28.015-6.555
	c-18.553-4.341-31.675-20.887-31.675-39.942v-46.834h-92.464v46.834c0,19.055-13.121,35.6-31.675,39.942l-28.015,6.555
	C118.263,413.912,158.302,440.331,204.536,440.331z"/>
<path style="fill:#F0C891;" d="M250.768,328.867v-46.834h-92.464v46.834c0,1.422-0.082,2.827-0.225,4.217
	c13.419,6.681,28.537,10.458,44.546,10.458l0,0c17.483,0,33.912-4.492,48.215-12.369
	C250.797,330.408,250.768,329.64,250.768,328.867z"/>
<path style="fill:#FFE1B3;" d="M202.625,320.991L202.625,320.991c-55.288,0-100.107-44.82-100.107-100.107v-81.842
	c0-55.288,44.82-100.107,100.107-100.107l0,0c55.288,0,100.107,44.82,100.107,100.107v81.842
	C302.732,276.172,257.913,320.991,202.625,320.991z"/>
<path style="fill:#FAD7A5;" d="M219.266,40.337c26.419,18.022,43.768,48.356,43.768,82.749v81.842
	c0,55.288-44.819,100.107-100.107,100.107l0,0c-5.673,0-11.226-0.496-16.641-1.403c16.05,10.949,35.444,17.358,56.339,17.358l0,0
	c55.288,0,100.107-44.82,100.107-100.107v-81.842C302.732,89.426,266.629,48.266,219.266,40.337z"/>
<g>
	<rect x="80.62" y="131.29" style="fill:#CD905A;" width="21.902" height="38.719"/>
	<path style="fill:#CD905A;" d="M98.517,71.369c-5.06,8.106-11.853,21.165-15.449,38.493c-3.118,15.028-2.721,27.914-1.748,36.793
		c12.18-3.006,21.685-7.309,28.27-10.848c2.599-1.397,15.445-8.426,28.844-21.407l0.001-0.001L98.517,71.369z"/>
</g>
<path style="fill:#D59F63;" d="M330.185,128.019c-8.525-31.58-22.68-61.65-45.705-83.922c-7.463-7.219-35.509-34.348-77.018-36.492
	c0,0-43.314-2.238-80.715,29.588c-5.642,4.801-10.786,10.112-15.476,15.839s-8.926,11.871-12.754,18.337
	c34.812,49.807,87.037,81.481,145.432,81.481c14.38,0,44.427-4.386,58.784-13.808L330.185,128.019z"/>
<path style="fill:#CD905A;" d="M284.48,44.097c-7.463-7.219-35.509-34.348-77.018-36.492c0,0-10.501-0.533-25.615,2.71
	c31.227,7.507,52.11,27.703,58.395,33.783c23.025,22.272,37.18,52.342,45.705,83.922l-27.452,11.022
	c-9.115,5.982-24.552,9.931-38.291,12.019c7.78,1.167,15.701,1.789,23.745,1.789c14.38,0,44.426-4.386,58.784-13.808l27.452-11.022
	C321.66,96.439,307.504,66.369,284.48,44.097z"/>
<path style="fill:#53515E;" d="M323.93,237.426h-21.197v-90.771h21.197c10.081,0,18.254,8.173,18.254,18.254v54.263
	C342.184,229.253,334.011,237.426,323.93,237.426z"/>
<rect x="302.73" y="146.66" style="fill:#474756;" width="16.848" height="90.77"/>
<path style="fill:#53515E;" d="M81.32,146.655h21.197v90.771H81.32c-10.081,0-18.254-8.173-18.254-18.254v-54.263
	C63.066,154.828,71.239,146.655,81.32,146.655z"/>
<rect x="86.88" y="146.66" style="fill:#474756;" width="15.637" height="90.77"/>
<g>
	<path style="fill:#FF5CA6;" d="M50.48,414.863H37.034c-6.097,10.823-9.535,23.262-9.535,36.362v53.207h66.547v-46.004
		C94.045,434.368,74.541,414.863,50.48,414.863z"/>
	<path style="fill:#FF5CA6;" d="M358.592,414.863h13.446c6.097,10.823,9.535,23.262,9.535,36.362v53.207h-66.547v-46.004
		C315.026,434.368,334.531,414.863,358.592,414.863z"/>
</g>
<path style="fill:#FFE1B3;" d="M336.593,484.939l6.266,6.041c8.952,8.63,20.902,13.452,33.337,13.452h104.398
	c8.864,0,16.05-7.186,16.05-16.05l0,0c0-8.864-7.186-16.049-16.049-16.049h-13.894h13.894c8.864,0,16.05-7.186,16.05-16.05v-0.629
	c0-8.864-7.186-16.049-16.049-16.049h-13.894h13.894c8.864,0,16.05-7.186,16.05-16.05v-0.109c0-8.864-7.186-16.05-16.05-16.05
	h-13.894h13.894c8.864,0,16.05-7.186,16.05-16.049v-0.52c0-8.864-7.186-16.049-16.049-16.049h-69.333l0,0
	c10.265-14.241,16.033-31.263,16.342-48.815c0.075-4.274-0.026-8.714-0.027-14.222c0-8.129-6.58-14.725-14.709-14.725l0,0
	c-0.87-0.018-6.24-0.037-10.401,4.308c-3.349,3.498-3.845,7.664-3.87,9.699c-0.011,0.9-0.172,1.788-0.454,2.642
	c-5.112,15.466-16.359,41.119-41.3,61.409c-6.919,5.629-13.827,9.979-20.251,13.361l0,0"/>
<path style="fill:#00AAF0;" d="M327.423,504.433H249.84v-122.76c0-3.807,3.086-6.894,6.894-6.894h70.689
	c5.065,0,9.171,4.106,9.171,9.171v111.313C336.593,500.327,332.488,504.433,327.423,504.433z"/>
<path style="fill:#F0C891;" d="M490.409,475.703c-2.715,2.104-6.113,3.369-9.814,3.369H376.197
	c-12.435,0-24.385-4.822-33.337-13.452l-6.266-6.041v25.36l6.266,6.041c8.952,8.63,20.902,13.452,33.337,13.452h104.398
	c8.864,0,16.05-7.186,16.05-16.049l0,0C496.644,483.22,494.196,478.639,490.409,475.703z"/>
<path style="fill:#0398E2;" d="M327.423,479.69H249.84v24.742h77.583c5.065,0,9.171-4.106,9.171-9.171V470.52
	C336.593,475.584,332.488,479.69,327.423,479.69z"/>
<circle cx="162.93" cy="178.1" r="11.1"/>
<circle cx="238.37" cy="178.1" r="11.1"/>
<path d="M504.212,390.827c0-13.022-10.595-23.616-23.617-23.616h-55.821c6.581-12.728,10.142-26.717,10.396-41.114
	c0.048-2.727,0.027-5.523,0.004-8.483c-0.014-1.836-0.029-3.776-0.029-5.873c0-12.268-9.954-22.253-22.204-22.292
	c-2.333-0.031-9.942,0.377-15.939,6.641c-5.102,5.328-5.931,11.585-5.971,14.842c0,0.055-0.011,0.173-0.072,0.359
	c-3.165,9.578-7.291,18.645-12.263,26.952c-2.146,3.586-0.979,8.234,2.607,10.38c3.588,2.147,8.233,0.979,10.38-2.607
	c5.541-9.259,10.133-19.343,13.646-29.975c0.535-1.618,0.816-3.274,0.836-4.923c0.013-1.026,0.259-2.983,1.77-4.559
	c1.798-1.878,4.235-1.976,4.72-1.976c0.116,0.001,0.148,0.002,0.214,0.002c3.938,0,7.141,3.21,7.141,7.157
	c0,2.138,0.015,4.117,0.03,5.988c0.023,2.987,0.042,5.565-0.002,8.102c-0.281,15.981-5.438,31.376-14.914,44.523
	c-1.661,2.305-1.891,5.346-0.597,7.874c1.295,2.528,3.896,4.119,6.736,4.119h69.333c4.677,0,8.482,3.805,8.482,8.481v0.52
	c0,4.677-3.805,8.482-8.482,8.482h-13.894c-4.179,0-7.568,3.388-7.568,7.568s3.388,7.568,7.568,7.568h13.894
	c4.677,0,8.482,3.805,8.482,8.482v0.109c0,4.677-3.805,8.481-8.482,8.481h-13.894c-4.179,0-7.568,3.388-7.568,7.568
	s3.388,7.568,7.568,7.568h13.894c4.677,0,8.482,3.805,8.482,8.482v0.63c0,4.677-3.805,8.481-8.482,8.481h-13.894
	c-4.179,0-7.568,3.388-7.568,7.568s3.388,7.568,7.568,7.568h13.894c4.677,0,8.482,3.806,8.482,8.482
	c0,4.677-3.805,8.482-8.482,8.482H376.197c-10.53,0-20.504-4.025-28.084-11.333l-3.951-3.809V392.9
	c6.152-3.521,12.013-7.525,17.459-11.956c3.544-2.883,6.976-5.994,10.201-9.248c2.942-2.968,2.922-7.76-0.046-10.702
	c-2.967-2.943-7.759-2.923-10.702,0.046c-2.848,2.872-5.877,5.619-9.004,8.163c-3.112,2.531-6.379,4.904-9.769,7.109
	c-2.781-5.396-8.399-9.102-14.877-9.102h-18.589c-0.02-0.005-0.038-0.012-0.058-0.017l-24.613-5.759
	c-15.209-3.558-25.83-16.952-25.83-32.572v-15.87c11.378-6.907,21.377-15.866,29.49-26.354h0.597
	c22.939,0,41.602-18.663,41.602-41.602c0-0.26-0.013-0.517-0.039-0.77c11.324-2.734,19.764-12.946,19.764-25.097v-54.262
	c0-14.238-11.583-25.822-25.821-25.822h-13.63v-0.045c0-4.18-3.388-7.568-7.568-7.568c-1.402,0-2.711,0.388-3.837,1.053
	c-0.098,0.052-0.202,0.114-0.315,0.188c-12.332,8.092-40.131,12.567-54.631,12.567c-36.118,0-70.887-12.896-100.359-36.455
	l-35.6-38.376c3.428-5.327,7.097-10.293,10.962-14.799c2.721-3.173,2.355-7.95-0.818-10.672c-3.173-2.721-7.951-2.355-10.671,0.818
	c-5.57,6.495-10.77,13.801-15.456,21.717v0.001c-7.841,12.598-13.341,26.327-16.346,40.81c-2.19,10.554-2.981,21.308-2.412,32.061
	C62.952,143.784,55.5,153.488,55.5,164.906v0.401c-20.355-15.386-32.575-39.471-32.575-65.503c0-45.287,36.843-82.129,82.13-82.129
	c9.702,0,19.3,1.721,28.321,5.027c-1.861,1.254-3.721,2.556-5.573,3.952c-3.338,2.516-4.005,7.26-1.49,10.599
	c2.515,3.337,7.258,4.005,10.598,1.49c33.199-25.017,69.808-23.597,70.159-23.581c25.665,1.325,49.939,12.891,72.146,34.374
	c19.704,19.06,34.394,46.128,43.66,80.454c0.911,3.374,3.965,5.597,7.302,5.597c0.652,0,1.316-0.086,1.977-0.263
	c4.035-1.09,6.423-5.244,5.334-9.279c-9.988-37-26.053-66.402-47.748-87.387c-24.913-24.1-52.464-37.09-81.889-38.611
	c-1.378-0.068-28.099-1.212-58.206,13.309C135.925,6.276,120.6,2.541,105.054,2.541c-53.633,0-97.266,43.633-97.266,97.265
	c0,34.549,18.171,66.2,47.71,83.698v35.666c0,14.238,11.583,25.822,25.821,25.822h16.353c6.937,30.209,26.621,55.605,53.062,70.21
	v13.662c0,15.62-10.622,29.014-25.831,32.572l-41.315,9.667c-37.481,8.769-63.658,41.779-63.658,80.272v53.058
	c0,4.18,3.388,7.568,7.568,7.568h222.341l0,0h77.583c7.186,0,13.31-4.56,15.678-10.932c9.532,7.084,21.045,10.932,33.095,10.932
	h104.398c13.023,0,23.617-10.595,23.617-23.617c0-6.191-2.395-11.833-6.306-16.05c3.911-4.215,6.306-9.858,6.306-16.049v-0.63
	c0-6.191-2.395-11.833-6.306-16.05c3.911-4.215,6.306-9.858,6.306-16.049v-0.109c0-6.191-2.395-11.833-6.306-16.05
	c3.911-4.216,6.306-9.859,6.306-16.05v-0.52H504.212z M298.718,269.417c3.887-7.664,6.885-15.85,8.855-24.426h7.316
	c0,0.015-0.002,0.03-0.002,0.045C314.887,255.979,308.211,265.392,298.718,269.417z M323.926,154.221
	c5.892,0,10.686,4.794,10.686,10.686v54.262c0,5.893-4.794,10.686-10.686,10.686h-13.63v-8.975v-66.66L323.926,154.221
	L323.926,154.221z M90.477,111.399c1.881-9.065,4.887-17.792,8.945-26.069c8.456,10.852,17.677,20.632,27.515,29.284
	c-9.263,7.884-17.426,12.643-20.931,14.525c-1.613,0.867-3.257,1.684-4.916,2.472c-1.204,0.23-2.304,0.746-3.232,1.474
	c-3.143,1.372-6.355,2.615-9.635,3.704C87.988,128.267,88.742,119.761,90.477,111.399z M94.949,229.856h-13.63
	c-5.892,0-10.686-4.794-10.686-10.686v-54.262c0-5.893,4.794-10.686,10.686-10.686h13.63v66.66V229.856z M110.084,220.881v-74.228
	v-2.586c1.035-0.52,2.066-1.047,3.085-1.595c4.231-2.273,14.454-8.231,25.691-18.163c31.101,23.36,67.373,36.107,105.085,36.107
	c12.721,0,34.782-2.977,51.216-9.269v69.734c0,18.672-5.564,36.066-15.113,50.622h-67.069c-4.179,0-7.568,3.388-7.568,7.568
	s3.388,7.568,7.568,7.568h54.686c-16.727,16.547-39.711,26.781-65.042,26.781C151.597,313.42,110.084,271.907,110.084,220.881z
	 M201.999,268.615c-12.947,0-25.119-5.042-34.274-14.196c-2.929-2.93-2.929-7.678,0-10.607c2.929-2.928,7.678-2.928,10.606,0
	c6.322,6.322,14.727,9.804,23.667,9.804c8.94,0,17.345-3.481,23.667-9.804c2.929-2.928,7.678-2.928,10.606,0
	c2.929,2.93,2.929,7.678,0,10.607C227.118,263.573,214.946,268.615,201.999,268.615z M35.066,451.374
	c0-31.426,21.371-58.375,51.971-65.535l7.678-1.797c6.093,10.684,13.682,20.403,22.635,28.942c1.466,1.397,3.345,2.091,5.222,2.091
	c1.997,0,3.991-0.785,5.478-2.345c2.884-3.024,2.771-7.814-0.254-10.699c-6.788-6.474-12.687-13.716-17.621-21.606l18.176-4.253
	c22.09-5.168,37.518-24.622,37.518-47.309v-6.77c11.474,4.179,23.851,6.463,36.753,6.463c14.348,0,28.045-2.828,40.575-7.944v8.252
	c0,15.446,7.156,29.388,18.691,38.349h-12.049c-4.179,0-7.568,3.388-7.568,7.568v51.409c-12.068,4.359-24.738,6.57-37.739,6.57
	c-18.282,0-36.405-4.531-52.409-13.102c-3.684-1.973-8.271-0.587-10.244,3.098c-1.973,3.684-0.586,8.271,3.098,10.244
	c18.195,9.745,38.789,14.896,59.555,14.896c12.932,0,25.58-1.934,37.739-5.742v54.714H35.066V451.374z M327.423,496.865h-70.016
	V382.346h70.016c0.884,0,1.603,0.719,1.603,1.603v4.38c0,0.012,0,0.024,0,0.035v106.897
	C329.026,496.145,328.307,496.865,327.423,496.865z"/>
<circle cx="304.07" cy="404.24" r="6.701"/>
<path d="M95.493,509.712c-4.142,0-7.5-3.357-7.5-7.5v-24.493c0-4.143,3.358-7.5,7.5-7.5s7.5,3.357,7.5,7.5v24.493
	C102.993,506.355,99.635,509.712,95.493,509.712z"/>
<g>
</g>
<g>
</g>
<g>
</g>
<g>
</g>
<g>
</g>
<g>
</g>
<g>
</g>
<g>
</g>
<g>
</g>
<g>
</g>
<g>
</g>
<g>
</g>
<g>
</g>
<g>
</g>
<g>
</g>
</svg>
