<?xml version="1.0" encoding="iso-8859-1"?>
<!-- Generator: Adobe Illustrator 19.0.0, SVG Export Plug-In . SVG Version: 6.00 Build 0)  -->
<svg version="1.1" id="Capa_1" xmlns="http://www.w3.org/2000/svg" xmlns:xlink="http://www.w3.org/1999/xlink" x="0px" y="0px"
	 viewBox="0 0 512.001 512.001" style="enable-background:new 0 0 512.001 512.001;" xml:space="preserve">
<path style="fill:#DFE2EA;" d="M357.111,119.651l-11.359-1.432c-1.991-7.04-4.793-13.739-8.29-19.997l7.037-9.047
	c3.525-4.532,3.124-10.979-0.936-15.039l-18.048-18.048c-4.056-4.056-10.497-4.461-15.029-0.943l-9.069,7.038
	c-6.224-3.477-12.883-6.267-19.882-8.255l-1.421-11.375c-0.712-5.697-5.554-9.972-11.296-9.972h-25.524
	c-5.737,0-10.577,4.269-11.294,9.96L230.568,53.9c-7.036,1.99-13.731,4.789-19.985,8.283l-9.069-7.038
	c-4.532-3.517-10.973-3.113-15.029,0.943l-18.048,18.048c-4.06,4.06-4.461,10.507-0.936,15.039l7.037,9.047
	c-3.497,6.257-6.299,12.956-8.29,19.997l-11.359,1.432c-5.691,0.717-9.96,5.558-9.96,11.294v25.524
	c0,5.741,4.275,10.584,9.972,11.296l11.375,1.421c1.988,6.998,4.778,13.658,8.255,19.881l-7.038,9.069
	c-3.517,4.532-3.113,10.973,0.944,15.029l18.048,18.048c4.06,4.06,10.507,4.461,15.039,0.936l9.047-7.037
	c6.258,3.497,12.956,6.299,19.997,8.29L232,244.76c0.718,5.692,5.558,9.96,11.294,9.96h25.524c5.741,0,10.584-4.276,11.296-9.972
	l1.421-11.375c7.003-1.989,13.666-4.782,19.893-8.262l9.047,7.037c4.532,3.525,10.979,3.124,15.039-0.936l18.048-18.048
	c4.056-4.056,4.46-10.497,0.943-15.029l-7.038-9.069c3.477-6.224,6.267-12.883,8.255-19.881l11.375-1.421
	c5.697-0.712,9.972-5.555,9.972-11.296v-25.524C367.071,125.208,362.802,120.368,357.111,119.651z M256,199.186
	c-30.671,0-55.535-24.864-55.535-55.535S225.329,88.115,256,88.115s55.535,24.864,55.535,55.535S286.671,199.186,256,199.186z"/>
<path style="fill:#C7CAD3;" d="M257.166,69.232c-42.149,0-76.318,34.168-76.318,76.318s34.168,76.318,76.318,76.318
	s76.318-34.168,76.318-76.318S299.315,69.232,257.166,69.232z M256,199.186c-30.671,0-55.535-24.864-55.535-55.535
	S225.329,88.115,256,88.115s55.535,24.864,55.535,55.535S286.671,199.186,256,199.186z"/>
<path style="fill:#FFDC64;" d="M487.396,466.728H24.604c-9.35,0-16.93-7.58-16.93-16.93V189.714c0-9.35,7.58-16.93,16.93-16.93
	h462.792c9.35,0,16.93,7.58,16.93,16.93v260.084C504.326,459.148,496.746,466.728,487.396,466.728z"/>
<path style="fill:#FFC850;" d="M260.506,172.784c-3.774,7.362-5.917,15.698-5.917,24.539c0-8.841-2.143-17.177-5.917-24.539H24.604
	c-0.083,0-0.164,0.011-0.247,0.012v261.028c0,6.141,4.978,11.119,11.119,11.119h219.112H473.7c6.141,0,11.119-4.978,11.119-11.119
	v-261.04L260.506,172.784L260.506,172.784z"/>
<path style="fill:#E9EBF2;" d="M254.589,431.455H49.504c-5.748,0-10.407-4.659-10.407-10.407V159.661
	c0-5.748,4.659-10.407,10.407-10.407h154.651c27.853,0,50.433,22.58,50.433,50.433v231.767H254.589z"/>
<path style="fill:#DFE2EA;" d="M254.589,431.455h205.084c5.748,0,10.407-4.659,10.407-10.407V159.661
	c0-5.748-4.659-10.407-10.407-10.407H305.021c-27.853,0-50.433,22.58-50.433,50.433v231.767H254.589z"/>
<path style="fill:#C7CAD3;" d="M393.78,395.822c-61.562,0-111.469-49.906-111.469-111.469V164.053c0-3.384,0.339-6.688,0.975-9.885
	c-16.972,8.119-28.697,25.448-28.697,45.518v231.767h205.084c5.748,0,10.407-4.659,10.407-10.407V395.82h-76.3V395.822z"/>
<path style="fill:#FF6B5C;" d="M269.618,479.422h-28.037c-14.523,0-26.296-11.773-26.296-26.296v-21.671h80.629v21.671
	C295.914,467.649,284.141,479.422,269.618,479.422z"/>
<path d="M74.214,197.99h144.297c4.238,0,7.674-3.435,7.674-7.674s-3.436-7.674-7.674-7.674H74.214c-4.238,0-7.674,3.435-7.674,7.674
	C66.54,194.553,69.976,197.99,74.214,197.99z"/>
<path d="M74.214,351.632h144.297c4.238,0,7.674-3.435,7.674-7.674s-3.436-7.674-7.674-7.674H74.214
	c-4.238,0-7.674,3.435-7.674,7.674C66.54,348.197,69.976,351.632,74.214,351.632z"/>
<path d="M226.185,381.138c0-4.239-3.436-7.674-7.674-7.674H74.214c-4.238,0-7.674,3.435-7.674,7.674s3.436,7.674,7.674,7.674
	h144.297C222.749,388.812,226.185,385.376,226.185,381.138z"/>
<path d="M74.214,314.454h68.942c4.238,0,7.674-3.435,7.674-7.674s-3.436-7.674-7.674-7.674H74.214c-4.238,0-7.674,3.435-7.674,7.674
	S69.976,314.454,74.214,314.454z"/>
<path d="M74.214,236.811h42.982c4.238,0,7.674-3.435,7.674-7.674s-3.436-7.674-7.674-7.674H74.214c-4.238,0-7.674,3.435-7.674,7.674
	C66.54,233.374,69.976,236.811,74.214,236.811z"/>
<path d="M74.214,275.632h24.695c4.238,0,7.674-3.435,7.674-7.674s-3.436-7.674-7.674-7.674H74.214c-4.238,0-7.674,3.435-7.674,7.674
	S69.976,275.632,74.214,275.632z"/>
<path d="M118.46,267.958c0,4.239,3.436,7.674,7.674,7.674h34.045c4.238,0,7.674-3.435,7.674-7.674s-3.436-7.674-7.674-7.674h-34.045
	C121.896,260.284,118.46,263.719,118.46,267.958z"/>
<path d="M219.471,260.284h-29.664c-4.238,0-7.674,3.435-7.674,7.674s3.436,7.674,7.674,7.674h29.664
	c4.238,0,7.674-3.435,7.674-7.674S223.71,260.284,219.471,260.284z"/>
<path d="M175.291,314.454h44.18c4.238,0,7.674-3.435,7.674-7.674s-3.436-7.674-7.674-7.674h-44.18c-4.238,0-7.674,3.435-7.674,7.674
	S171.053,314.454,175.291,314.454z"/>
<path d="M218.511,236.811c4.238,0,7.674-3.435,7.674-7.674s-3.436-7.674-7.674-7.674H150.28c-4.238,0-7.674,3.435-7.674,7.674
	s3.436,7.674,7.674,7.674H218.511z"/>
<circle cx="294.11" cy="201.821" r="8.399"/>
<path d="M327.418,209.492h54.965c4.238,0,7.674-3.435,7.674-7.674s-3.436-7.674-7.674-7.674h-54.965
	c-4.238,0-7.674,3.435-7.674,7.674C319.744,206.055,323.179,209.492,327.418,209.492z"/>
<circle cx="294.11" cy="237.09" r="8.399"/>
<path d="M327.418,244.767h17.513c4.238,0,7.674-3.435,7.674-7.674s-3.436-7.674-7.674-7.674h-17.513
	c-4.238,0-7.674,3.435-7.674,7.674S323.179,244.767,327.418,244.767z"/>
<circle cx="294.11" cy="341.241" r="8.399"/>
<path d="M327.418,348.912H354.9c4.238,0,7.674-3.435,7.674-7.674s-3.436-7.674-7.674-7.674h-27.482
	c-4.238,0-7.674,3.435-7.674,7.674S323.179,348.912,327.418,348.912z"/>
<circle cx="294.11" cy="375.671" r="8.399"/>
<path d="M370.843,368h-43.426c-4.238,0-7.674,3.435-7.674,7.674s3.436,7.674,7.674,7.674h43.426c4.238,0,7.674-3.435,7.674-7.674
	S375.081,368,370.843,368z"/>
<path d="M400.094,333.564H384.76c-4.238,0-7.674,3.435-7.674,7.674s3.436,7.674,7.674,7.674h15.334c4.238,0,7.674-3.435,7.674-7.674
	C407.768,337,404.332,333.564,400.094,333.564z"/>
<path d="M365.803,237.092c0,4.239,3.436,7.674,7.674,7.674h28.845c4.238,0,7.674-3.435,7.674-7.674s-3.436-7.674-7.674-7.674
	h-28.845C369.238,229.418,365.803,232.854,365.803,237.092z"/>
<circle cx="294.11" cy="272.371" r="8.399"/>
<path d="M344.931,264.693c-4.238,0-7.674,3.435-7.674,7.674s3.436,7.674,7.674,7.674h25.564c4.238,0,7.674-3.435,7.674-7.674
	s-3.436-7.674-7.674-7.674H344.931z"/>
<circle cx="294.11" cy="305.961" r="8.399"/>
<path d="M417.575,298.289h-72.644c-4.238,0-7.674,3.435-7.674,7.674s3.436,7.674,7.674,7.674h72.644
	c4.238,0,7.674-3.435,7.674-7.674S421.813,298.289,417.575,298.289z"/>
<path d="M442.151,264.693h-39.829c-4.238,0-7.674,3.435-7.674,7.674s3.436,7.674,7.674,7.674h39.829
	c4.238,0,7.674-3.435,7.674-7.674S446.389,264.693,442.151,264.693z"/>
<path d="M487.396,165.109h-9.642v-5.448c0-9.97-8.111-18.081-18.082-18.081h-84.928v-10.636c0-9.582-7.168-17.71-16.674-18.908
	l-6.461-0.814c-1.413-4.161-3.103-8.237-5.055-12.192l4.001-5.145c5.889-7.57,5.215-18.394-1.567-25.177L330.94,50.661
	c-6.773-6.775-17.589-7.455-25.161-1.581l-5.168,4.011c-3.917-1.935-7.954-3.611-12.074-5.015l-0.809-6.476
	c-1.189-9.518-9.319-16.695-18.91-16.695h-25.525c-9.58,0-17.709,7.167-18.908,16.674l-0.814,6.461
	c-4.16,1.412-8.233,3.101-12.184,5.051l-5.169-4.012c-7.571-5.873-18.386-5.192-25.16,1.581L163.01,68.708
	c-6.782,6.783-7.456,17.606-1.567,25.177l4.002,5.145c-1.952,3.954-3.643,8.03-5.056,12.192l-6.461,0.814
	c-9.506,1.199-16.674,9.328-16.674,18.908v10.636h-87.75c-9.97,0-18.082,8.111-18.082,18.081v5.448h-6.819
	C11.037,165.109,0,176.148,0,189.714v260.085c0,13.567,11.037,24.604,24.604,24.604h190.524
	c6.232,7.733,15.772,12.693,26.454,12.693h28.037c10.682,0,20.222-4.96,26.454-12.693h191.324c13.567,0,24.604-11.038,24.604-24.604
	V189.714C512,176.148,500.962,165.109,487.396,165.109z M152.603,130.945c0-1.865,1.395-3.447,3.245-3.68l11.359-1.432
	c3.057-0.386,5.586-2.561,6.425-5.526c1.799-6.36,4.357-12.53,7.605-18.342c1.504-2.692,1.252-6.022-0.641-8.455l-7.038-9.047
	c-1.146-1.474-1.015-3.58,0.305-4.9l18.049-18.049c1.318-1.319,3.425-1.451,4.897-0.308l9.069,7.039
	c2.434,1.888,5.76,2.139,8.448,0.638c5.805-3.245,11.973-5.801,18.331-7.599c2.964-0.838,5.14-3.368,5.525-6.425l1.431-11.358
	c0.233-1.851,1.816-3.245,3.681-3.245h25.525c1.867,0,3.449,1.397,3.681,3.249l1.421,11.374c0.382,3.057,2.554,5.589,5.517,6.431
	c6.321,1.796,12.456,4.344,18.236,7.573c2.69,1.502,6.015,1.251,8.448-0.638l9.068-7.038c1.473-1.143,3.58-1.011,4.898,0.308
	l18.049,18.048c1.32,1.32,1.451,3.426,0.305,4.9l-7.037,9.047c-1.893,2.433-2.146,5.764-0.642,8.454
	c3.248,5.813,5.806,11.984,7.605,18.343c0.838,2.965,3.368,5.14,6.425,5.526l11.359,1.432c1.85,0.233,3.245,1.816,3.245,3.68v10.636
	h-40.24c-1.098-33.898-28.997-61.14-63.157-61.14c-25.712,0-48.659,15.359-58.458,39.13c-1.616,3.918,0.251,8.404,4.169,10.019
	c3.918,1.616,8.405-0.251,10.02-4.17c7.422-18,24.798-29.631,44.269-29.631c25.707,0,46.737,20.375,47.809,45.822
	c-21.054,0.434-39.383,12.113-49.221,29.271c-10.027-17.487-28.87-29.302-50.433-29.302h-51.552L152.603,130.945L152.603,130.945z
	 M24.604,459.055c-5.104,0-9.256-4.152-9.256-9.256V189.714c0-5.104,4.152-9.256,9.256-9.256h6.819v240.59
	c0,9.97,8.111,18.081,18.082,18.081H68.78c4.238,0,7.674-3.435,7.674-7.674s-3.436-7.674-7.674-7.674H49.504
	c-1.507,0-2.733-1.226-2.733-2.733V159.661c0-1.507,1.226-2.733,2.733-2.733h154.651c23.577,0,42.759,19.181,42.759,42.758v221.36
	c0,1.507-1.226,2.733-2.733,2.733h-28.896H98.91c-4.238,0-7.674,3.435-7.674,7.674s3.436,7.674,7.674,7.674h108.702v13.997
	c0,2.023,0.188,4.002,0.529,5.928H24.604V459.055z M269.618,471.748h-28.037c-10.268,0-18.622-8.354-18.622-18.622v-13.997h21.222
	h20.814h23.245v13.997C288.24,463.394,279.886,471.748,269.618,471.748z M496.652,449.799c0,5.104-4.152,9.256-9.256,9.256H303.06
	c0.341-1.927,0.529-3.906,0.529-5.928V439.13h156.084c9.97,0,18.082-8.111,18.082-18.081V228.693c0-4.239-3.436-7.674-7.674-7.674
	s-7.674,3.435-7.674,7.674v192.354c0,1.507-1.226,2.733-2.733,2.733h-163.76h-30.919c-1.507,0-2.733-1.226-2.733-2.733v-221.36
	c0-23.577,19.182-42.758,42.759-42.758h154.651c1.507,0,2.733,1.226,2.733,2.733v38.326c0,4.239,3.436,7.674,7.674,7.674
	s7.674-3.435,7.674-7.674v-17.531h9.642c5.104,0,9.256,4.152,9.256,9.256L496.652,449.799L496.652,449.799z"/>
<g>
</g>
<g>
</g>
<g>
</g>
<g>
</g>
<g>
</g>
<g>
</g>
<g>
</g>
<g>
</g>
<g>
</g>
<g>
</g>
<g>
</g>
<g>
</g>
<g>
</g>
<g>
</g>
<g>
</g>
</svg>
