<?xml version="1.0" encoding="iso-8859-1"?>
<!-- Generator: Adobe Illustrator 19.0.0, SVG Export Plug-In . SVG Version: 6.00 Build 0)  -->
<svg version="1.1" id="Capa_1" xmlns="http://www.w3.org/2000/svg" xmlns:xlink="http://www.w3.org/1999/xlink" x="0px" y="0px"
	 viewBox="0 0 512 512" style="enable-background:new 0 0 512 512;" xml:space="preserve">
<path style="fill:#DFE2EA;" d="M493.514,226.945l-35.91-3.25c-2.138-13.449-5.588-26.459-10.217-38.897l29.628-20.501
	c5.096-3.526,6.661-10.357,3.609-15.75l-16.871-29.808c-3.052-5.393-9.714-7.568-15.36-5.014l-32.875,14.869
	c-7.99-9.991-16.894-19.216-26.594-27.545l16.013-32.332c2.75-5.553,0.811-12.287-4.472-15.527l-29.198-17.906
	c-5.283-3.239-12.164-1.915-15.867,3.054l-21.531,28.895c-14.431-5.959-29.691-10.314-45.564-12.837l-3.25-35.91
	c-0.559-6.172-5.732-10.898-11.929-10.898h-34.252c-6.197,0-11.37,4.727-11.929,10.898l-3.25,35.91
	c-13.449,2.138-26.459,5.588-38.897,10.217l-20.501-29.628c-3.526-5.096-10.357-6.661-15.749-3.609L118.74,48.247
	c-5.393,3.053-7.568,9.714-5.014,15.36l14.869,32.876c-9.991,7.99-19.216,16.894-27.545,26.594l-32.333-16.013
	c-5.553-2.75-12.287-0.811-15.527,4.472l-17.906,29.198c-3.239,5.283-1.915,12.164,3.054,15.866l28.895,21.531
	c-5.959,14.431-10.314,29.691-12.838,45.564l-35.91,3.25c-6.172,0.559-10.898,5.732-10.898,11.929v34.252
	c0,6.197,4.726,11.37,10.898,11.929l35.91,3.25c2.139,13.449,5.588,26.459,10.217,38.897l-29.628,20.501
	c-5.096,3.526-6.661,10.357-3.609,15.75l16.871,29.808c3.052,5.393,9.714,7.568,15.36,5.014l32.875-14.869
	c7.99,9.991,16.894,19.216,26.594,27.545l-16.013,32.333c-2.75,5.553-0.811,12.287,4.472,15.527l29.198,17.906
	c5.283,3.239,12.164,1.915,15.867-3.054l21.531-28.895c14.431,5.96,29.691,10.314,45.564,12.837l3.25,35.91
	c0.559,6.172,5.732,10.898,11.929,10.898h34.252c6.197,0,11.37-4.726,11.929-10.898l3.25-35.91
	c13.449-2.138,26.459-5.588,38.897-10.217l20.501,29.629c3.526,5.096,10.357,6.661,15.749,3.609l29.809-16.871
	c5.393-3.052,7.568-9.714,5.014-15.36l-14.869-32.875c9.991-7.99,19.216-16.894,27.545-26.594l32.333,16.013
	c5.553,2.75,12.287,0.811,15.527-4.472l17.906-29.198c3.239-5.283,1.915-12.164-3.054-15.867l-28.895-21.531
	c5.96-14.431,10.314-29.691,12.837-45.564l35.91-3.25c6.172-0.559,10.898-5.732,10.898-11.929v-34.252
	C504.412,232.677,499.685,227.503,493.514,226.945z M257.603,400.684c-79.907,0-144.684-64.777-144.684-144.684
	s64.777-144.684,144.684-144.684S402.287,176.093,402.287,256C402.287,335.906,337.51,400.684,257.603,400.684z"/>
<path style="fill:#C7CAD3;" d="M256,82.416c-95.868,0-173.584,77.716-173.584,173.584S160.132,429.584,256,429.584
	S429.584,351.867,429.584,256C429.584,160.132,351.868,82.416,256,82.416z M257.603,400.684
	c-79.907,0-144.684-64.777-144.684-144.684s64.777-144.684,144.684-144.684S402.287,176.093,402.287,256
	C402.287,335.906,337.51,400.684,257.603,400.684z"/>
<circle style="fill:#8AEEFF;" cx="257.64" cy="255.97" r="144.68"/>
<polygon points="359.344,358.868 359.358,358.854 359.344,358.867 "/>
<path style="fill:#53DCFF;" d="M178.056,255.971h-65.097c0,40.257,16.447,76.669,42.981,102.897
	c10.151-10.034,21.784-18.569,34.533-25.266C182.612,311.17,178.056,284.538,178.056,255.971z"/>
<path style="fill:#8AEEFF;" d="M190.428,178.47c-12.785-6.685-24.537-15.298-34.72-25.335c-0.153,0.149-0.285,0.291-0.436,0.442
	c-26.183,26.183-42.313,62.44-42.313,102.393h65.097C178.056,227.458,182.595,200.874,190.428,178.47z"/>
<g>
	<path style="fill:#53DCFF;" d="M359.288,153.007l0.057,0.067c-10.151,10.034-21.784,18.569-34.533,25.266
		c7.861,22.432,12.417,49.063,12.417,77.631h65.097C402.326,215.682,385.859,179.24,359.288,153.007z"/>
	<path style="fill:#53DCFF;" d="M324.811,333.602c-14.127,40.311-38.929,67.052-67.169,67.052
		c39.649,0,75.568-15.955,101.702-41.787C349.193,348.834,337.56,340.299,324.811,333.602z"/>
</g>
<path style="fill:#8AEEFF;" d="M190.492,333.657c-12.733,6.702-24.351,15.239-34.489,25.272
	c26.129,25.796,62.021,41.725,101.639,41.725C229.415,400.654,204.622,373.938,190.492,333.657z"/>
<path d="M359.406,358.805c-0.016,0.016-0.032,0.033-0.048,0.049c0.016-0.016,0.033-0.032,0.049-0.048
	C359.408,358.806,359.407,358.805,359.406,358.805z"/>
<g>
	<path style="fill:#8AEEFF;" d="M337.229,255.971c0,28.544-4.549,55.155-12.398,77.575c-0.006,0.018-0.013,0.037-0.019,0.056
		c12.749,6.697,24.382,15.232,34.533,25.266c0.005-0.005,0.009-0.009,0.014-0.014c0.016-0.016,0.032-0.033,0.048-0.049
		c26.498-26.224,42.919-62.609,42.919-102.834L337.229,255.971L337.229,255.971z"/>
	<path style="fill:#8AEEFF;" d="M324.767,178.209c12.677-6.691,24.246-15.202,34.346-25.197
		c-26.047-25.715-61.797-41.621-101.267-41.72C285.97,111.419,310.666,138.067,324.767,178.209z"/>
</g>
<path style="fill:#53DCFF;" d="M257.473,111.287c-39.681,0-75.626,15.979-101.765,41.848c0.028,0.028,0.057,0.054,0.085,0.082
	c10.183,10.037,21.85,18.568,34.635,25.253c0.015-0.043,0.03-0.087,0.045-0.131c14.117-40.283,38.894-67.013,67.11-67.051
	C257.546,111.288,257.51,111.287,257.473,111.287z"/>
<path d="M257.642,317.081v0.002c0.021,0,0.042-0.001,0.063-0.001C257.684,317.082,257.663,317.081,257.642,317.081z"/>
<path d="M257.642,194.86c24.248,0,47.096-5.976,67.169-16.521c-0.015-0.043-0.03-0.088-0.045-0.131
	c-20.052,10.583-42.885,16.599-67.124,16.648V194.86z"/>
<path d="M257.642,111.287c-0.02,0-0.04,0.001-0.06,0.001c0.02,0,0.04,0.001,0.06,0.001V111.287z"/>
<path d="M257.845,111.292c-0.068,0-0.135-0.005-0.203-0.005v0.002C257.71,111.289,257.777,111.291,257.845,111.292z"/>
<path d="M257.642,317.081L257.642,317.081c-24.248,0-47.096,5.976-67.169,16.521c0.007,0.018,0.013,0.037,0.019,0.056
	c20.064-10.561,42.906-16.554,67.15-16.575V317.081z"/>
<path d="M257.642,194.86v-0.004c-0.049,0-0.098,0.002-0.148,0.002C257.544,194.858,257.593,194.86,257.642,194.86L257.642,194.86z"
	/>
<path style="fill:#53DCFF;" d="M257.642,194.86c-0.049,0-0.098-0.002-0.148-0.002c-0.049,0-0.098,0.002-0.147,0.002
	c-24.148,0-46.906-5.927-66.919-16.39c-7.833,22.404-12.372,48.988-12.372,77.501h79.587L257.642,194.86L257.642,194.86z"/>
<g>
	<path style="fill:#8AEEFF;" d="M257.642,255.971h79.586c0-28.568-4.556-55.2-12.417-77.631
		c-20.073,10.545-42.921,16.521-67.169,16.521V255.971z"/>
	<path style="fill:#8AEEFF;" d="M257.642,317.081V255.97h-79.587c0,28.568,4.556,55.2,12.417,77.631
		C210.546,323.057,233.394,317.081,257.642,317.081L257.642,317.081z"/>
</g>
<path style="fill:#53DCFF;" d="M257.642,400.654v-83.571c-24.244,0.021-47.086,6.014-67.15,16.575
	C204.622,373.938,229.415,400.654,257.642,400.654z"/>
<path style="fill:#8AEEFF;" d="M257.642,317.083v83.571c28.24,0,53.043-26.742,67.169-67.052
	c-20.056-10.535-42.881-16.509-67.106-16.52C257.684,317.082,257.663,317.083,257.642,317.083z"/>
<g>
	<path style="fill:#53DCFF;" d="M257.642,255.971v61.111c0.021,0,0.042,0.001,0.063,0.001c24.225,0.01,47.051,5.985,67.106,16.52
		c0.006-0.018,0.013-0.037,0.019-0.056c7.849-22.42,12.398-49.031,12.398-77.575h-79.586V255.971z"/>
	<path style="fill:#53DCFF;" d="M257.642,194.856c24.239-0.048,47.073-6.064,67.124-16.648
		c-14.1-40.142-38.796-66.789-66.922-66.917c-0.068,0-0.135-0.002-0.203-0.002v83.567H257.642z"/>
</g>
<path style="fill:#8AEEFF;" d="M257.583,111.288c-28.215,0.038-52.993,26.769-67.11,67.051c-0.015,0.043-0.03,0.087-0.045,0.131
	c20.013,10.463,42.771,16.39,66.919,16.39c0.049,0,0.098-0.002,0.147-0.002s0.098-0.002,0.148-0.002v-83.567
	C257.622,111.289,257.603,111.288,257.583,111.288z"/>
<path d="M494.197,219.387l-30.113-2.726c-1.845-9.808-4.39-19.497-7.599-28.93l24.848-17.192c8.38-5.799,10.915-16.859,5.896-25.728
	l-16.871-29.809c-5.021-8.869-15.807-12.392-25.092-8.19l-27.582,12.474c-6.013-7.103-12.504-13.826-19.382-20.075l13.435-27.126
	c4.522-9.131,1.381-20.035-7.305-25.363l-29.198-17.907c-8.69-5.327-19.83-3.181-25.918,4.989l-18.057,24.233
	c-11.639-4.427-23.678-7.819-35.92-10.122l-2.726-30.113C291.695,7.654,283.317,0,273.126,0h-34.252
	c-10.191,0-18.569,7.654-19.487,17.802l-2.726,30.113c-9.807,1.845-19.496,4.39-28.93,7.6l-17.193-24.849
	c-5.8-8.381-16.859-10.913-25.727-5.895l-29.809,16.871c-8.869,5.019-12.389,15.807-8.19,25.091l12.475,27.582
	c-7.105,6.014-13.828,12.505-20.075,19.382l-27.125-13.434c-9.133-4.522-20.037-1.382-25.365,7.305l-17.906,29.198
	c-5.329,8.687-3.184,19.83,4.989,25.918l24.232,18.057c-4.427,11.639-7.818,23.677-10.122,35.92l-30.112,2.726
	C7.654,220.305,0,228.683,0,238.874v34.251c0,10.19,7.654,18.568,17.803,19.488l30.112,2.725c1.846,9.81,4.391,19.498,7.6,28.931
	l-24.847,17.192c-8.382,5.798-10.916,16.858-5.897,25.728l16.871,29.809c5.019,8.868,15.805,12.389,25.092,8.19l27.582-12.475
	c6.014,7.105,12.504,13.827,19.382,20.075l-13.435,27.126c-4.522,9.132-1.382,20.036,7.305,25.364l29.198,17.906
	c8.683,5.329,19.828,3.185,25.918-4.989l18.057-24.232c11.64,4.427,23.678,7.818,35.92,10.121l2.726,30.113
	c0.918,10.149,9.296,17.803,19.487,17.803h34.252c10.191,0,18.569-7.654,19.487-17.803l2.726-30.113
	c9.809-1.845,19.498-4.39,28.93-7.599l17.193,24.849c5.799,8.379,16.86,10.911,25.727,5.894l29.809-16.87
	c8.869-5.02,12.39-15.807,8.19-25.092l-12.475-27.582c7.104-6.013,13.826-12.503,20.075-19.382l27.126,13.436
	c9.131,4.518,20.035,1.38,25.364-7.306l17.906-29.198c5.328-8.687,3.183-19.83-4.989-25.919l-24.232-18.056
	c4.427-11.641,7.818-23.678,10.121-35.921l30.114-2.725c10.148-0.92,17.802-9.298,17.802-19.488v-34.251
	C512,228.683,504.346,220.305,494.197,219.387z M496.823,273.125c0,2.286-1.717,4.166-3.994,4.372l-35.91,3.25
	c-3.46,0.313-6.265,2.936-6.811,6.366c-2.39,15.036-6.548,29.793-12.357,43.86c-1.325,3.208-0.303,6.907,2.48,8.98l28.895,21.53
	c1.834,1.366,2.315,3.866,1.119,5.816l-17.906,29.198c-1.195,1.947-3.642,2.653-5.69,1.639l-32.332-16.014
	c-3.108-1.538-6.866-0.777-9.126,1.857c-7.995,9.311-16.921,17.928-26.526,25.611c-2.709,2.166-3.604,5.893-2.176,9.054
	l14.87,32.877c0.942,2.083,0.152,4.503-1.838,5.628l-29.81,16.871c-1.989,1.125-4.47,0.556-5.77-1.323l-20.5-29.628
	c-1.975-2.854-5.637-4.006-8.888-2.794c-12.08,4.497-24.677,7.805-37.441,9.834c-3.431,0.545-6.053,3.351-6.366,6.811l-3.251,35.91
	c-0.206,2.276-2.085,3.994-4.371,3.994h-34.252c-2.286,0-4.166-1.717-4.371-3.994l-3.251-35.91c-0.313-3.46-2.936-6.265-6.366-6.811
	c-15.036-2.39-29.792-6.548-43.859-12.357c-0.94-0.388-1.922-0.575-2.893-0.575c-2.344,0-4.621,1.088-6.087,3.055l-21.532,28.895
	c-1.366,1.834-3.865,2.314-5.814,1.119l-29.198-17.906c-1.948-1.196-2.654-3.642-1.639-5.69l16.014-32.332
	c1.539-3.108,0.776-6.866-1.857-9.126c-9.31-7.993-17.926-16.919-25.611-26.527c-2.167-2.709-5.894-3.602-9.054-2.175l-32.877,14.87
	c-2.081,0.94-4.504,0.151-5.628-1.838L37.98,359.714c-1.126-1.99-0.558-4.471,1.323-5.771l29.628-20.5
	c2.854-1.975,4.005-5.635,2.794-8.888c-4.497-12.08-7.806-24.678-9.835-37.442c-0.546-3.431-3.352-6.053-6.811-6.366l-35.908-3.25
	c-2.277-0.207-3.995-2.086-3.995-4.372v-34.251c0-2.286,1.717-4.166,3.994-4.371l35.909-3.251c3.46-0.313,6.264-2.936,6.811-6.366
	c2.391-15.037,6.549-29.793,12.358-43.859c1.325-3.208,0.303-6.907-2.48-8.98l-28.896-21.532c-1.833-1.366-2.314-3.864-1.118-5.814
	l17.906-29.198c1.196-1.949,3.641-2.651,5.691-1.639l32.332,16.013c3.105,1.541,6.864,0.775,9.125-1.857
	c7.992-9.309,16.918-17.925,26.527-25.611c2.708-2.167,3.603-5.894,2.175-9.054l-14.87-32.877c-0.942-2.082-0.152-4.502,1.838-5.627
	l29.809-16.871c1.989-1.126,4.471-0.558,5.771,1.322l20.5,29.629c1.975,2.855,5.636,4.004,8.888,2.794
	c12.083-4.498,24.68-7.807,37.441-9.835c3.431-0.545,6.053-3.351,6.366-6.811l3.251-35.91c0.206-2.276,2.085-3.993,4.371-3.993
	h34.252c2.286,0,4.166,1.716,4.371,3.993l3.251,35.91c0.313,3.46,2.936,6.265,6.366,6.811c15.037,2.39,29.793,6.548,43.858,12.357
	c3.209,1.328,6.907,0.303,8.981-2.479l21.532-28.896c1.365-1.834,3.864-2.316,5.814-1.119l29.198,17.907
	c1.948,1.196,2.653,3.641,1.639,5.689l-16.014,32.334c-1.539,3.108-0.776,6.865,1.857,9.125c9.311,7.994,17.927,16.92,25.611,26.527
	c2.167,2.709,5.894,3.601,9.054,2.175l32.877-14.869c2.08-0.943,4.503-0.152,5.628,1.838l16.871,29.809
	c1.126,1.989,0.557,4.471-1.323,5.771l-29.628,20.5c-2.854,1.975-4.005,5.635-2.794,8.888c4.497,12.081,7.806,24.678,9.834,37.441
	c0.545,3.431,3.351,6.053,6.811,6.366l35.91,3.251c2.276,0.206,3.994,2.085,3.994,4.371v34.249H496.823z"/>
<path d="M365.255,148.339c-0.18-0.229-0.37-0.453-0.58-0.664c-0.265-0.267-0.548-0.502-0.84-0.722
	c-27.452-26.747-64.928-43.254-106.193-43.254c-32.808,0-63.225,10.429-88.111,28.146c-6.478,4.609-12.574,9.719-18.248,15.26
	c-0.28,0.213-0.552,0.441-0.806,0.698c-0.202,0.205-0.387,0.419-0.561,0.64C122.381,176.011,105.33,214.051,105.33,256
	c0,61.336,36.504,116.408,92.998,140.302c0.352,0.149,0.709,0.259,1.068,0.352c11.532,4.792,23.774,8.204,36.522,10.033
	c0.281,0.072,0.567,0.133,0.862,0.173c6.853,0.938,13.859,1.413,20.822,1.413c34.12,0,65.654-11.28,91.071-30.307
	c5.384-4.028,10.486-8.411,15.288-13.1c0.294-0.221,0.579-0.458,0.846-0.728c0.215-0.217,0.409-0.447,0.592-0.682
	c27.493-27.562,44.515-65.572,44.515-107.485C409.914,213.984,392.833,175.913,365.255,148.339z M334.023,329.915
	c6.351-20.187,10.039-42.781,10.688-66.356h49.776c-1.772,32.444-14.872,61.923-35.41,84.533
	C351.288,341.135,342.893,335.064,334.023,329.915z M156.314,348.22c-20.615-22.624-33.771-52.153-35.553-84.662h49.825
	c0.652,23.418,4.314,46.138,10.717,66.476C172.455,335.19,164.083,341.264,156.314,348.22z M181.272,181.991
	c-6.358,20.196-10.05,42.802-10.699,66.391h-49.812c1.779-32.458,14.897-61.947,35.456-84.557
	C163.946,170.721,172.328,176.808,181.272,181.991z M344.711,248.382c-0.65-23.623-4.351-46.26-10.726-66.478
	c8.833-5.146,17.192-11.209,24.949-18.151c20.607,22.616,33.76,52.133,35.549,84.629H344.711z M265.23,119.666
	c15.588,3.22,30.293,16.301,42.039,37.655c2.963,5.387,5.636,11.163,8.04,17.237c-15.603,7.263-32.539,11.524-50.079,12.493V119.666
	z M320.567,150.007c-4.834-8.789-10.185-16.406-15.94-22.793c16.109,5.9,30.806,14.747,43.449,25.876
	c-6.06,5.346-12.517,10.104-19.303,14.247C326.302,161.256,323.566,155.459,320.567,150.007z M250.054,119.666v67.381
	c-11.23-0.603-22.296-2.544-32.982-5.839c-4.004-1.232-8.253,1.011-9.487,5.015c-1.235,4.005,1.011,8.252,5.015,9.487
	c12.135,3.742,24.703,5.917,37.453,6.534v46.137H185.76c0.701-24.175,4.756-47.142,11.734-67.143
	c0.063-0.156,0.112-0.315,0.165-0.473c2.951-8.382,6.4-16.254,10.355-23.445C219.762,135.968,234.466,122.887,250.054,119.666z
	 M194.999,322.967c-5.472-18.241-8.616-38.498-9.231-59.408h64.286v46.127C230.798,310.642,212.19,315.181,194.999,322.967z
	 M265.23,392.275v-67.4c17.548,0.937,34.496,5.174,50.116,12.412c-2.413,6.109-5.099,11.919-8.077,17.334
	C295.523,375.974,280.818,389.055,265.23,392.275z M265.23,309.673v-46.114h39.858c4.191,0,7.588-3.397,7.588-7.588
	s-3.397-7.588-7.588-7.588H265.23v-46.127c19.262-0.957,37.877-5.499,55.073-13.289c6.089,20.263,9.337,43.148,9.337,67.004
	c0,23.818-3.237,46.668-9.306,66.906C303.123,315.113,284.497,310.598,265.23,309.673z M210.695,127.173
	c-5.769,6.396-11.133,14.026-15.978,22.834c-3.014,5.479-5.76,11.306-8.24,17.419c-6.873-4.174-13.364-8.946-19.417-14.268
	c3.586-3.163,7.332-6.148,11.235-8.928C188.203,137.179,199.085,131.413,210.695,127.173z M167.173,358.884
	c23.132-20.42,52.073-32.292,82.881-33.994v67.378c-14.628-3.054-28.598-14.866-39.974-34.034
	c-2.138-3.603-6.792-4.791-10.398-2.652c-3.603,2.138-4.791,6.794-2.653,10.398c4.234,7.135,8.838,13.421,13.735,18.828
	C194.6,378.908,179.853,370.044,167.173,358.884z M304.569,384.791c5.777-6.4,11.148-14.039,15.998-22.857
	c3.019-5.489,5.77-11.328,8.254-17.453c6.826,4.152,13.32,8.924,19.413,14.289c-2.783,2.457-5.659,4.809-8.635,7.037
	C328.998,373.737,317.216,380.17,304.569,384.791z"/>
<g>
</g>
<g>
</g>
<g>
</g>
<g>
</g>
<g>
</g>
<g>
</g>
<g>
</g>
<g>
</g>
<g>
</g>
<g>
</g>
<g>
</g>
<g>
</g>
<g>
</g>
<g>
</g>
<g>
</g>
</svg>
