<?xml version="1.0" encoding="iso-8859-1"?>
<!-- Generator: Adobe Illustrator 19.0.0, SVG Export Plug-In . SVG Version: 6.00 Build 0)  -->
<svg version="1.1" id="Capa_1" xmlns="http://www.w3.org/2000/svg" xmlns:xlink="http://www.w3.org/1999/xlink" x="0px" y="0px"
	 viewBox="0 0 511.999 511.999" style="enable-background:new 0 0 511.999 511.999;" xml:space="preserve">
<path style="fill:#E9EBF2;" d="M420.144,400.923H37.649c-16.459,0-29.802-13.343-29.802-29.802V67.356
	c0-16.459,13.343-29.802,29.802-29.802h382.495c16.459,0,29.802,13.343,29.802,29.802v303.765
	C449.946,387.58,436.603,400.923,420.144,400.923z"/>
<path style="fill:#00AAF0;" d="M449.946,109.219V67.356c0-16.459-13.343-29.802-29.802-29.802H37.649
	c-16.459,0-29.802,13.343-29.802,29.802v41.863h440.08H449.946z"/>
<path style="fill:#C7CAD3;" d="M137.258,338.679l-10.068-1.269c-1.765-6.24-4.248-12.178-7.348-17.724l6.237-8.019
	c3.125-4.016,2.769-9.731-0.829-13.329l-15.997-15.997c-3.595-3.595-9.304-3.954-13.321-0.836l-8.038,6.238
	c-5.516-3.082-11.419-5.555-17.622-7.317l-1.26-10.082c-0.631-5.049-4.923-8.839-10.012-8.839H36.379
	c-5.085,0-9.375,3.783-10.011,8.828L25.1,280.401c-6.065,1.715-11.84,4.114-17.252,7.093v43.498
	c8.951-12.278,23.436-20.263,39.793-20.263c27.185,0,49.223,22.038,49.223,49.223c0,17.094-8.717,32.147-21.944,40.972h45.487
	l-0.557-0.717c3.082-5.516,5.555-11.419,7.317-17.621l10.082-1.26c5.049-0.631,8.839-4.923,8.839-10.012v-22.625
	C146.086,343.605,142.302,339.315,137.258,338.679z"/>
<path style="fill:#B0B6C1;" d="M74.919,400.923h21.763c9.321-11.315,14.919-25.811,14.919-41.616c0-36.174-29.325-65.5-65.5-65.5
	c-14.284,0-27.489,4.586-38.254,12.347v24.838c8.951-12.278,23.436-20.263,39.793-20.263c27.185,0,49.222,22.038,49.222,49.223
	C96.863,377.045,88.146,392.098,74.919,400.923z"/>
<path style="fill:#DFE2EA;" d="M277.563,359.507l-36.231,7.095c-23.282,4.558-42.181,17.302-53.106,34.321h47.52
	c3.608-1.516,7.497-2.707,11.617-3.514l36.231-7.095c23.82-4.664,40.457-23.051,40.457-44.714v-25.741l-7.319-4.619
	c-16.909-10.67-27.004-28.944-27.004-48.883h-15.696v-3.556h-13.255v-35.23l13.318-0.076v-17.16l-0.079-0.786
	c-0.726-7.198-0.352-14.424,1.112-21.477c1.703-8.205,4.826-15.986,9.284-23.125l0.193-0.317
	c5.01-8.464,10.858-15.571,17.381-21.122c22.054-18.766,48.094-18.007,48.252-17.992c16.312,0.842,31.929,8.374,46.416,22.386
	c10.537,10.192,18.967,23.993,25.149,41.143l-16.537,6.64v31.895h28.952v35.221h-13.256v3.556h-15.696
	c0,10.338-2.774,20.49-8.021,29.357l-2.773,4.686l-3.627,4.116c-3.075,3.491-6.567,6.607-10.377,9.263l-6.721,4.684V345.6
	c0,21.664,16.637,40.051,40.457,44.714l23.807,4.662c7.247-5.436,11.937-14.097,11.937-23.855v-5.796l-29.713-5.818
	c-8.748-1.713-15.097-7.562-15.097-13.907v-11.244c1.429-1.212,2.819-2.468,4.169-3.768h1.154c16.699,0,31.353-8.899,39.487-22.2
	V174.727c-7.724-20.043-18.26-36.611-31.471-49.391c-25.033-24.211-50.045-30.314-66.619-31.17
	c-1.554-0.075-38.382-1.652-70.215,25.435c-9.133,7.772-17.193,17.489-23.958,28.882c-6.374,10.251-10.846,21.424-13.292,33.211
	c-1.331,6.413-2.039,12.921-2.119,19.454c-7.763,5.236-12.887,14.112-12.887,24.132v39.82c0,16.041,13.05,29.092,29.091,29.092
	h4.272c5.451,16.674,15.768,31.455,29.912,42.459v8.949C292.66,351.945,286.311,357.794,277.563,359.507z"/>
<path style="fill:#0398E2;" d="M351.859,94.166c-1.32-0.063-28.088-1.201-55.628,15.053H398.02
	C380.337,98.174,363.879,94.787,351.859,94.166z"/>
<path style="fill:#FFE1B3;" d="M453.449,382.005l-36.232-7.094c-16.27-3.186-27.777-15.328-27.777-29.311v-34.369h-81.086v34.368
	c0,13.983-11.507,26.125-27.777,29.311l-36.231,7.094c-29.698,5.815-50.701,27.978-50.701,53.501v38.937H504.15v-38.937
	C504.15,409.983,483.147,387.82,453.449,382.005z"/>
<rect x="258.4" y="199.659" style="fill:#B48765;" width="17.396" height="24.459"/>
<path style="fill:#F0C891;" d="M347.495,357.319L347.495,357.319c15.595,0,30.052-4.863,41.945-13.15V311.23h-81.086v34.369
	c0,0.142-0.008,0.282-0.011,0.424C319.679,353.176,333.102,357.319,347.495,357.319z"/>
<path style="fill:#FFE1B3;" d="M347.496,339.82L347.496,339.82c-40.573,0-73.464-32.891-73.464-73.464v-60.06
	c0-40.573,32.891-73.464,73.464-73.464l0,0c40.573,0,73.464,32.891,73.464,73.464v60.06
	C420.96,306.929,388.069,339.82,347.496,339.82z"/>
<path style="fill:#FAD7A5;" d="M361.038,134.083c18.639,13.324,30.789,35.144,30.789,59.802v60.06
	c0,40.573-32.891,73.464-73.464,73.464l0,0c-4.627,0-9.153-0.432-13.543-1.251c12.029,8.599,26.761,13.661,42.675,13.661l0,0
	c40.573,0,73.464-32.891,73.464-73.464v-60.06C420.96,170.35,395.141,140.439,361.038,134.083z"/>
<path style="fill:#B48765;" d="M271.096,156.635c-3.714,5.948-8.699,15.532-11.337,28.248c-2.288,11.029-1.997,20.485-1.283,27
	c8.938-2.206,15.913-5.364,20.746-7.961c1.907-1.025,11.334-6.183,21.167-15.709l0,0L271.096,156.635z"/>
<path style="fill:#966D50;" d="M441.105,198.207c-6.256-23.175-16.644-45.242-33.541-61.586c-5.477-5.298-26.058-25.206-56.52-26.78
	c0,0-31.786-1.642-59.233,21.713c-8.281,7.046-15.099,15.589-20.716,25.08c25.547,36.551,63.872,59.795,106.725,59.795
	c10.553,0,32.602-3.219,43.139-10.133"/>
<path style="fill:#846047;" d="M407.565,136.621c-5.477-5.298-26.058-25.206-56.52-26.78c0,0-9.016-0.465-21.591,2.628
	c21.54,5.938,35.929,19.854,40.373,24.152c16.897,16.344,27.285,38.411,33.541,61.586l-20.146,8.089
	c-6.119,4.016-16.121,6.782-25.5,8.398c6.563,1.139,13.272,1.735,20.098,1.735c10.553,0,52.748-0.936,63.284-7.85v-10.372
	C434.849,175.032,424.462,152.965,407.565,136.621z"/>
<path style="fill:#53515E;" d="M436.515,278.496H420.96v-66.612h15.556c7.398,0,13.396,5.997,13.396,13.396v39.821
	C449.911,272.498,443.913,278.496,436.515,278.496z"/>
<rect x="420.96" y="211.879" style="fill:#474756;" width="11.17" height="66.61"/>
<path style="fill:#53515E;" d="M258.476,211.883h15.556v66.612h-15.556c-7.398,0-13.396-5.997-13.396-13.396v-39.82
	C245.08,217.881,251.078,211.883,258.476,211.883z"/>
<rect x="263.23" y="211.879" style="fill:#474756;" width="10.797" height="66.61"/>
<path style="fill:#FF9EA4;" d="M453.449,382.005l-36.232-7.094c-5.632-1.103-10.691-3.28-14.902-6.234
	c-14.283,12.471-32.967,20.029-53.418,20.029s-39.135-7.557-53.418-20.029c-4.211,2.954-9.27,5.131-14.902,6.234l-36.231,7.094
	c-29.698,5.815-50.701,27.978-50.701,53.501v38.937H504.15v-38.937C504.15,409.983,483.147,387.82,453.449,382.005z"/>
<g>
	<path style="fill:#FF7B97;" d="M213.904,395.825c-12.597,10.101-20.258,24.276-20.258,39.682v38.937h58.845v-35.978
		C252.491,416.239,235.568,397.967,213.904,395.825z"/>
	<path style="fill:#FF7B97;" d="M483.892,395.825c-21.664,2.142-38.587,20.414-38.587,42.641l0.062,35.978h58.783v-38.937
		C504.15,420.1,496.489,405.926,483.892,395.825z"/>
</g>
<path d="M295.287,73.891c0-4.335-3.514-7.848-7.848-7.848H156.223c-4.334,0-7.848,3.513-7.848,7.848s3.514,7.848,7.848,7.848
	h131.216C291.773,81.739,295.287,78.226,295.287,73.891z"/>
<circle cx="47.21" cy="73.891" r="9.429"/>
<circle cx="83.55" cy="73.891" r="9.429"/>
<circle cx="117.87" cy="73.891" r="9.429"/>
<circle cx="411.59" cy="73.891" r="9.429"/>
<path d="M457.601,374.871c0.123-1.242,0.192-2.492,0.192-3.749V67.356c0-20.76-16.89-37.649-37.649-37.649H37.649
	C16.889,29.707,0,46.596,0,67.356v220.139v43.497v40.13c0,20.76,16.889,37.649,37.649,37.649h37.27h45.487h47.482
	c4.334,0,7.848-3.513,7.848-7.848s-3.514-7.848-7.848-7.848h-36.003c0.434-1.102,0.853-2.21,1.243-3.327l5.094-0.636
	c8.958-1.121,15.712-8.773,15.712-17.8v-22.623c0-9.017-6.747-16.668-15.693-17.798h-0.001l-5.08-0.64
	c-1.151-3.311-2.498-6.559-4.031-9.723l3.144-4.043c5.545-7.125,4.912-17.313-1.473-23.698l-15.997-15.997
	c-6.376-6.376-16.558-7.015-23.681-1.486l-4.064,3.154c-3.131-1.517-6.346-2.853-9.619-3.995l-0.636-5.093
	c-1.119-8.959-8.771-15.714-17.799-15.714H36.379c-9.018,0-16.669,6.747-17.797,15.695l-0.64,5.081
	c-0.754,0.262-1.499,0.553-2.247,0.835v-158.2h217.067c4.334,0,7.848-3.513,7.848-7.848s-3.514-7.848-7.848-7.848H15.696V67.356
	c0-12.105,9.848-21.953,21.953-21.953h382.495c12.105,0,21.954,9.849,21.954,21.953v34.015H271.096
	c-4.334,0-7.848,3.513-7.848,7.848s3.514,7.848,7.848,7.848h27.297c-3.908,2.43-7.824,5.24-11.667,8.509
	c-8.466,7.205-15.959,16.251-22.278,26.888c-0.003,0.005-0.007,0.009-0.009,0.013c-0.011,0.017-0.021,0.035-0.031,0.053
	c-0.021,0.036-0.044,0.07-0.065,0.106c-0.005,0.008-0.008,0.017-0.013,0.025c-5.875,9.457-10,19.758-12.256,30.626
	c-1.533,7.389-2.164,14.91-1.9,22.439c-7.6,3.239-12.942,10.783-12.942,19.552v39.821c0,11.713,9.53,21.243,21.244,21.243h10.2
	c4.812,18.967,16.316,35.282,31.831,46.311v12.946c0,6.382-3.419,12.234-9.044,16.339c-0.266,0.159-0.525,0.332-0.774,0.524
	c-3.269,2.219-7.203,3.882-11.619,4.746l-36.232,7.094c-33.585,6.577-57.041,31.745-57.041,61.204v38.938
	c0,4.335,3.514,7.848,7.848,7.848h310.506c4.334,0,7.848-3.513,7.848-7.848v-38.938C512,406.827,489.766,382.222,457.601,374.871z
	 M15.696,371.121v-37.448c7.831-9.496,19.596-15.097,31.945-15.097c22.814,0,41.375,18.561,41.375,41.375
	c0,13.1-6.169,25.315-16.601,33.124H37.649C25.544,393.075,15.696,383.226,15.696,371.121z M27.235,287.953
	c3.032-0.856,5.257-3.445,5.651-6.57l1.269-10.067c0.141-1.119,1.098-1.962,2.225-1.962h22.623c1.128,0,2.085,0.844,2.225,1.964
	l1.26,10.082c0.39,3.127,2.612,5.716,5.643,6.577c5.521,1.568,10.883,3.795,15.939,6.62c2.749,1.536,6.152,1.279,8.639-0.652
	l8.037-6.238c0.891-0.691,2.163-0.611,2.96,0.185l15.997,15.998c0.798,0.797,0.877,2.07,0.183,2.961l-6.237,8.018
	c-1.936,2.488-2.194,5.894-0.656,8.647c2.838,5.079,5.075,10.472,6.647,16.031c0.857,3.032,3.444,5.256,6.57,5.651l10.067,1.269
	c1.119,0.141,1.962,1.097,1.962,2.225v22.623c0,1.128-0.845,2.085-1.963,2.225l-10.082,1.259c-3.126,0.39-5.716,2.613-6.577,5.644
	c-1.23,4.334-2.867,8.569-4.879,12.635H94.122c6.8-9.532,10.589-21.057,10.589-33.124c0-31.469-25.601-57.07-57.07-57.07
	c-11.489,0-22.609,3.512-31.945,9.814v-20.403C19.431,290.52,23.297,289.067,27.235,287.953z M407.109,362.463
	c-0.25-0.193-0.51-0.368-0.777-0.527c-5.624-4.106-9.042-9.956-9.042-16.338v-15.03c5.139-3.994,9.786-8.588,13.838-13.68
	c14.784-0.298,27.194-10.411,30.97-24.081v78.313c0,0.22-0.021,0.438-0.027,0.658l-23.343-4.57
	C414.313,366.344,410.379,364.681,407.109,362.463z M428.809,219.73h7.708c3.059,0,5.548,2.488,5.548,5.548v39.821
	c0,3.059-2.489,5.548-5.548,5.548h-7.708v-4.292V219.73z M427.422,286.342c-0.441,3.319-1.824,6.341-3.887,8.78
	c1.084-2.856,2.02-5.782,2.781-8.78H427.422z M442.098,117.067v59.107c-7.258-18.356-16.993-33.509-29.078-45.198
	c-5.566-5.384-11.315-10.011-17.224-13.909C395.796,117.067,442.098,117.067,442.098,117.067z M296.898,137.529
	c24.581-20.917,53.479-19.861,53.743-19.852c18.261,0.943,35.578,9.214,51.468,24.583c14.159,13.696,24.73,33.207,31.421,57.992
	c0.41,1.517,1.241,2.805,2.329,3.783h-7.385c-0.971-3.232-3.966-5.587-7.514-5.587c-1.447,0-2.798,0.399-3.962,1.081
	c-0.105,0.057-0.218,0.123-0.344,0.205c-8.352,5.481-28.247,8.846-38.833,8.846c-25.934,0-50.914-9.265-72.121-26.183l-24.751-26.68
	C285.686,148.63,291.03,142.523,296.898,137.529z M275.507,197.008c-1.079,0.58-2.179,1.127-3.288,1.658
	c-1.006,0.238-1.935,0.668-2.749,1.252c-1.206,0.522-2.422,1.025-3.657,1.489c0.065-5.013,0.609-10.008,1.631-14.931
	c1.092-5.262,2.732-10.355,4.856-15.255c5.054,6.194,10.447,11.9,16.136,17.084C282.669,192.945,277.751,195.802,275.507,197.008z
	 M266.184,270.646h-7.708c-3.059,0-5.548-2.488-5.548-5.548v-39.821c0-3.059,2.489-5.548,5.548-5.548h7.708v46.625V270.646z
	 M281.88,266.354v-54.473v-0.502c0.352-0.183,0.708-0.359,1.058-0.547c3.001-1.612,10.011-5.697,17.869-12.405
	c22.883,16.738,49.43,25.847,77.016,25.847c8.733,0,23.359-1.887,35.291-5.857v47.937c0,12.801-3.698,24.749-10.063,34.856h-47.954
	c-4.334,0-7.848,3.513-7.848,7.848s3.514,7.848,7.848,7.848h34.187c-11.358,9.405-25.923,15.065-41.787,15.065
	C311.316,331.971,281.88,302.536,281.88,266.354z M347.497,347.667c12.173,0,23.72-2.707,34.098-7.522v5.454
	c0,8.416,3.117,16.244,8.514,22.583c-12.098,8.214-26.436,12.676-41.209,12.676c-14.774,0-29.111-4.462-41.209-12.676
	c5.397-6.339,8.514-14.167,8.514-22.583v-4.203C325.842,345.43,336.412,347.667,347.497,347.667z M496.304,466.596h-43.088V453.38
	c0-4.335-3.514-7.848-7.848-7.848s-7.848,3.513-7.848,7.848v13.216H260.339V453.38c0-4.335-3.514-7.848-7.848-7.848
	s-7.848,3.513-7.848,7.848v13.216h-43.149v-31.09c0-21.852,18.242-40.686,44.361-45.8l36.232-7.094
	c4.595-0.9,8.868-2.396,12.733-4.374c15.484,11.837,34.465,18.315,54.078,18.315c19.614,0,38.595-6.479,54.079-18.315
	c3.866,1.978,8.139,3.474,12.734,4.374l36.231,7.094c26.119,5.114,44.361,23.948,44.361,45.8v31.09H496.304z"/>
<path d="M347.049,297.598c-8.915,0-17.83-3.394-24.617-10.18c-2.929-2.929-2.929-7.678,0-10.606
	c2.929-2.93,7.678-2.929,10.606-0.001c7.726,7.727,20.295,7.728,28.021,0c2.929-2.928,7.678-2.929,10.606,0.001
	c2.929,2.929,2.929,7.678,0,10.606C364.879,294.204,355.964,297.598,347.049,297.598z"/>
<circle cx="319.36" cy="234.959" r="8.143"/>
<circle cx="374.73" cy="234.959" r="8.143"/>
<path d="M79.223,146.242c-2.021-0.957-4.345-1.437-6.968-1.437c-2.625,0-4.947,0.479-6.968,1.437
	c-2.021,0.957-3.316,2.324-3.883,4.096l-19.787,64.893c-0.143,0.568-0.214,0.957-0.214,1.17c0,1.845,1.153,3.442,3.458,4.787
	c2.304,1.348,4.697,2.021,7.181,2.021c3.049,0,4.857-1.027,5.426-3.085l3.616-13.297h22.447l3.617,13.297
	c0.567,2.058,2.376,3.085,5.426,3.085c2.481,0,4.875-0.673,7.181-2.021c2.303-1.346,3.457-2.942,3.457-4.787
	c0-0.213-0.072-0.602-0.213-1.17l-19.893-64.893C82.538,148.566,81.245,147.2,79.223,146.242z M64.489,194.062l7.766-28.512
	l7.766,28.512H64.489z"/>
<path d="M137.574,145.444h-22.022c-1.844,0-3.334,0.497-4.468,1.49c-1.135,0.993-1.702,2.163-1.702,3.51v67.66
	c0,1.632,0.814,2.891,2.446,3.777c1.631,0.888,3.581,1.329,5.851,1.329s4.219-0.441,5.851-1.329
	c1.631-0.886,2.447-2.145,2.447-3.777v-22.978h10.531c7.873,0,14.203-2.004,18.99-6.01s7.181-10.23,7.181-18.671v-0.531
	c0-8.439-2.287-14.628-6.862-18.564C151.244,147.412,145.161,145.444,137.574,145.444z M146.084,171.721
	c0,7.093-3.191,10.638-9.575,10.638h-10.531v-22.447h10.531c6.383,0,9.575,3.547,9.575,10.638V171.721z"/>
<path d="M186.508,150.444c0-1.631-0.816-2.872-2.447-3.724c-1.632-0.851-3.582-1.276-5.851-1.276c-2.271,0-4.22,0.425-5.851,1.276
	c-1.632,0.851-2.446,2.093-2.446,3.724v67.66c0,1.632,0.814,2.891,2.446,3.777c1.631,0.888,3.581,1.329,5.851,1.329
	s4.219-0.441,5.851-1.329c1.631-0.886,2.447-2.145,2.447-3.777V150.444z"/>
<g>
</g>
<g>
</g>
<g>
</g>
<g>
</g>
<g>
</g>
<g>
</g>
<g>
</g>
<g>
</g>
<g>
</g>
<g>
</g>
<g>
</g>
<g>
</g>
<g>
</g>
<g>
</g>
<g>
</g>
</svg>
