<?xml version="1.0" encoding="iso-8859-1"?>
<!-- Generator: Adobe Illustrator 19.0.0, SVG Export Plug-In . SVG Version: 6.00 Build 0)  -->
<svg version="1.1" id="Capa_1" xmlns="http://www.w3.org/2000/svg" xmlns:xlink="http://www.w3.org/1999/xlink" x="0px" y="0px"
	 viewBox="0 0 512.002 512.002" style="enable-background:new 0 0 512.002 512.002;" xml:space="preserve">
<path style="fill:#FFE1B3;" d="M341.452,349.415l-29.613-5.798c-13.298-2.604-22.703-12.528-22.703-23.957v-28.091h-66.273v28.091
	c0,11.429-9.405,21.353-22.703,23.957l-29.613,5.798c-24.273,4.753-41.439,22.867-41.439,43.728v31.824h253.783v-31.825
	C382.892,372.282,365.725,354.168,341.452,349.415z"/>
<path style="fill:#F0C891;" d="M254.854,329.239L254.854,329.239c12.746,0,24.562-3.975,34.283-10.748v-26.922h-66.273v28.091
	c0,0.116-0.007,0.231-0.009,0.347C232.118,325.853,243.09,329.239,254.854,329.239z"/>
<path style="fill:#FFE1B3;" d="M254.854,314.936L254.854,314.936c-33.162,0-60.044-26.883-60.044-60.044v-49.089
	c0-33.161,26.883-60.044,60.044-60.044l0,0c33.161,0,60.044,26.883,60.044,60.044v49.089
	C314.898,288.053,288.015,314.936,254.854,314.936z"/>
<path style="fill:#FAD7A5;" d="M265.923,146.781c15.234,10.89,25.165,28.724,25.165,48.878v49.089
	c0,33.161-26.883,60.044-60.044,60.044l0,0c-3.782,0-7.481-0.353-11.069-1.022c9.832,7.029,21.872,11.166,34.879,11.166l0,0
	c33.161,0,60.044-26.883,60.044-60.044v-49.089C314.898,176.424,293.796,151.976,265.923,146.781z"/>
<path style="fill:#B48765;" d="M192.41,165.213c-3.035,4.862-7.11,12.695-9.266,23.088c-1.87,9.014-1.632,16.743-1.048,22.068
	c7.305-1.803,13.006-4.384,16.956-6.507c1.559-0.838,9.264-5.054,17.301-12.84l0,0L192.41,165.213z"/>
<path style="fill:#966D50;" d="M331.363,199.192c-5.113-18.942-13.603-36.978-27.414-50.336
	c-4.476-4.33-21.298-20.602-46.195-21.888c0,0-25.98-1.342-48.413,17.747c-6.768,5.759-12.34,12.742-16.932,20.499
	c20.88,29.874,52.204,48.872,87.229,48.872c8.625,0,26.647-2.631,35.258-8.282"/>
<path style="fill:#846047;" d="M303.95,148.856c-4.476-4.33-21.298-20.602-46.195-21.888c0,0-7.369-0.38-17.647,2.148
	c17.605,4.853,29.366,16.227,32.998,19.74c13.811,13.359,22.301,31.395,27.414,50.336l-16.466,6.611
	c-5.002,3.282-13.176,5.543-20.842,6.864c5.364,0.931,10.848,1.418,16.427,1.418c8.625,0,26.647-2.631,35.258-8.282l16.466-6.611
	C326.25,180.25,317.76,162.215,303.95,148.856z"/>
<path style="fill:#53515E;" d="M327.612,264.814h-12.714V210.37h12.714c6.047,0,10.949,4.902,10.949,10.949v32.547
	C338.56,259.912,333.659,264.814,327.612,264.814z"/>
<rect x="314.9" y="210.371" style="fill:#474756;" width="9.129" height="54.44"/>
<path style="fill:#53515E;" d="M182.095,210.37h12.714v54.444h-12.714c-6.047,0-10.949-4.902-10.949-10.949v-32.547
	C171.147,215.272,176.049,210.37,182.095,210.37z"/>
<rect x="185.98" y="210.371" style="fill:#474756;" width="8.825" height="54.44"/>
<path style="fill:#FF9EA4;" d="M341.452,349.415l-29.613-5.798c-4.603-0.901-8.738-2.681-12.18-5.095
	c-11.674,10.193-26.945,16.37-43.66,16.37s-31.986-6.177-43.66-16.37c-3.441,2.414-7.577,4.194-12.18,5.095l-29.613,5.798
	c-24.273,4.753-41.439,22.867-41.439,43.728v31.824H382.89v-31.825C382.892,372.282,365.725,354.168,341.452,349.415z"/>
<g>
	<path style="fill:#FF7B97;" d="M145.666,360.71c-10.296,8.256-16.558,19.841-16.558,32.433v31.824h48.095v-29.405
		C177.203,377.395,163.372,362.461,145.666,360.71z"/>
	<path style="fill:#FF7B97;" d="M366.334,360.71c-17.707,1.751-31.538,16.685-31.538,34.852l0.05,29.405h48.045v-31.825
		C382.892,380.551,376.63,368.966,366.334,360.71z"/>
</g>
<path style="fill:#DFE2EA;" d="M493.514,226.946l-35.91-3.25c-2.138-13.449-5.588-26.459-10.217-38.897l29.628-20.501
	c5.096-3.526,6.661-10.357,3.609-15.749l-16.871-29.809c-3.052-5.393-9.714-7.568-15.36-5.014l-32.875,14.869
	c-7.99-9.991-16.894-19.216-26.594-27.545l16.013-32.333c2.75-5.553,0.811-12.287-4.472-15.527l-29.198-17.906
	c-5.283-3.239-12.164-1.915-15.867,3.054l-21.531,28.895c-14.431-5.959-29.691-10.314-45.564-12.837l-3.25-35.91
	c-0.559-6.172-5.732-10.898-11.929-10.898h-34.252c-6.197,0-11.37,4.726-11.929,10.898l-3.25,35.91
	c-13.448,2.138-26.459,5.588-38.896,10.217l-20.501-29.629c-3.526-5.096-10.357-6.661-15.75-3.609L118.74,48.248
	c-5.393,3.053-7.568,9.714-5.014,15.36l14.869,32.876c-9.991,7.99-19.216,16.894-27.545,26.594l-32.333-16.013
	c-5.553-2.75-12.287-0.811-15.527,4.472l-17.906,29.198c-3.24,5.283-1.915,12.164,3.054,15.866l28.895,21.531
	c-5.959,14.431-10.313,29.691-12.837,45.564l-35.91,3.25c-6.172,0.559-10.898,5.732-10.898,11.929v34.252
	c0,6.197,4.727,11.37,10.898,11.929l35.91,3.25c2.139,13.449,5.588,26.459,10.217,38.897l-29.628,20.501
	c-5.096,3.526-6.661,10.357-3.609,15.75l16.871,29.809c3.052,5.393,9.714,7.568,15.361,5.014l32.875-14.869
	c7.99,9.991,16.894,19.216,26.594,27.545l-16.013,32.333c-2.75,5.553-0.811,12.287,4.472,15.527l29.198,17.906
	c5.283,3.24,12.164,1.915,15.867-3.054l21.531-28.895c14.431,5.96,29.691,10.314,45.564,12.837l3.25,35.91
	c0.559,6.172,5.732,10.898,11.929,10.898h34.252c6.197,0,11.371-4.726,11.929-10.898l3.25-35.91
	c13.448-2.138,26.459-5.588,38.897-10.217l20.5,29.629c3.526,5.096,10.357,6.661,15.75,3.609l29.809-16.871
	c5.393-3.052,7.568-9.714,5.014-15.36l-14.869-32.875c9.991-7.99,19.216-16.894,27.545-26.594l32.333,16.013
	c5.553,2.75,12.287,0.811,15.527-4.472l17.906-29.198c3.24-5.283,1.915-12.164-3.054-15.867l-28.895-21.531
	c5.959-14.431,10.313-29.691,12.837-45.564l35.91-3.25c6.172-0.559,10.898-5.732,10.898-11.929v-34.252
	C504.412,232.678,499.685,227.505,493.514,226.946z M257.603,415.27c-87.962,0-159.269-71.307-159.269-159.269
	S169.641,96.732,257.603,96.732s159.269,71.307,159.269,159.269S345.565,415.27,257.603,415.27z"/>
<path style="fill:#C7CAD3;" d="M256,71.644c-101.818,0-184.357,82.54-184.357,184.357S154.182,440.358,256,440.358
	s184.357-82.539,184.357-184.357S357.817,71.644,256,71.644z M257.603,415.27c-87.962,0-159.269-71.307-159.269-159.269
	S169.641,96.732,257.603,96.732s159.269,71.307,159.269,159.269S345.565,415.27,257.603,415.27z"/>
<path d="M494.198,219.388L494.198,219.388l-30.114-2.726c-1.845-9.808-4.39-19.499-7.599-28.93l24.847-17.192
	c8.381-5.798,10.916-16.859,5.896-25.728l-16.871-29.809c-5.02-8.869-15.807-12.387-25.091-8.19l-27.581,12.475
	c-6.013-7.103-12.504-13.827-19.382-20.075l13.435-27.126c4.523-9.132,1.382-20.036-7.305-25.364l-29.198-17.906
	c-8.686-5.326-19.828-3.184-25.919,4.988l-18.055,24.233c-11.641-4.428-23.678-7.819-35.922-10.122l-2.726-30.112
	c-0.919-10.149-9.297-17.803-19.487-17.803h-34.252c-10.19,0-18.568,7.654-19.486,17.803l-2.726,30.112
	c-9.808,1.845-19.497,4.39-28.932,7.6l-17.193-24.849c-5.798-8.38-16.858-10.911-25.727-5.895l-29.808,16.871
	c-8.869,5.019-12.39,15.806-8.191,25.091l12.475,27.583c-7.104,6.013-13.827,12.504-20.076,19.381l-27.125-13.434
	c-9.132-4.522-20.036-1.383-25.364,7.305l-17.906,29.199c-5.327,8.687-3.182,19.829,4.989,25.917l24.232,18.057
	c-4.426,11.639-7.818,23.677-10.121,35.92l-30.114,2.726C7.653,220.308,0,228.686,0,238.875v34.252
	c0,10.189,7.653,18.567,17.802,19.487l30.113,2.725c1.845,9.809,4.39,19.498,7.599,28.931l-24.847,17.192
	c-8.381,5.798-10.915,16.858-5.895,25.728l16.871,29.809c5.019,8.868,15.806,12.388,25.092,8.19l27.581-12.475
	c6.014,7.104,12.504,13.827,19.382,20.075l-13.435,27.126c-4.522,9.132-1.382,20.036,7.305,25.364l29.198,17.906
	c8.685,5.328,19.829,3.183,25.919-4.989l18.056-24.232c11.64,4.427,23.677,7.818,35.921,10.122l2.726,30.112
	c0.918,10.149,9.296,17.803,19.486,17.803h34.252c10.19,0,18.568-7.654,19.487-17.803l2.726-30.112
	c9.808-1.846,19.5-4.392,28.931-7.6l17.192,24.848c5.799,8.38,16.859,10.915,25.728,5.896l29.808-16.871
	c8.869-5.019,12.39-15.806,8.191-25.092l-12.475-27.582c7.104-6.013,13.826-12.503,20.076-19.382l27.125,13.435
	c9.133,4.521,20.035,1.382,25.365-7.305l17.906-29.199c5.327-8.687,3.182-19.829-4.99-25.918l-24.231-18.056
	c4.426-11.638,7.818-23.678,10.121-35.921l30.114-2.725c10.149-0.92,17.802-9.297,17.802-19.487v-34.252
	C512,228.685,504.347,220.308,494.198,219.388z M496.823,273.127c0,2.285-1.717,4.165-3.994,4.371l-35.91,3.25
	c-3.46,0.313-6.265,2.936-6.81,6.366c-2.392,15.039-6.549,29.795-12.357,43.859c-1.325,3.209-0.304,6.908,2.48,8.981l28.894,21.53
	c1.833,1.366,2.315,3.867,1.12,5.816l-17.906,29.198c-1.197,1.949-3.642,2.652-5.691,1.639l-32.332-16.014
	c-3.11-1.539-6.865-0.777-9.125,1.857c-7.996,9.311-16.921,17.928-26.527,25.611c-2.709,2.166-3.604,5.893-2.175,9.054
	l14.869,32.876c0.942,2.083,0.152,4.504-1.838,5.629l-29.808,16.871c-1.989,1.125-4.471,0.557-5.772-1.323l-20.5-29.628
	c-1.975-2.854-5.633-4.006-8.887-2.794c-12.079,4.496-24.676,7.805-37.442,9.835c-3.431,0.546-6.052,3.352-6.365,6.811l-3.25,35.909
	c-0.207,2.276-2.086,3.994-4.372,3.994h-34.252c-2.286,0-4.165-1.717-4.372-3.994l-3.25-35.909c-0.313-3.46-2.935-6.264-6.365-6.811
	c-15.038-2.391-29.794-6.549-43.86-12.358c-0.941-0.388-1.923-0.575-2.894-0.575c-2.343,0-4.621,1.088-6.087,3.055l-21.53,28.895
	c-1.367,1.834-3.867,2.315-5.815,1.119l-29.198-17.906c-1.949-1.196-2.653-3.642-1.639-5.69l16.013-32.333
	c1.54-3.108,0.775-6.865-1.857-9.125c-9.311-7.994-17.927-16.919-25.611-26.527c-2.166-2.708-5.892-3.601-9.054-2.175l-32.876,14.87
	c-2.083,0.941-4.503,0.152-5.628-1.838l-16.87-29.808c-1.126-1.99-0.558-4.471,1.323-5.771l29.629-20.5
	c2.854-1.975,4.005-5.635,2.794-8.888c-4.496-12.081-7.805-24.679-9.835-37.442c-0.545-3.431-3.351-6.053-6.81-6.366l-35.909-3.25
	c-2.277-0.207-3.994-2.086-3.994-4.371v-34.252c0-2.285,1.717-4.165,3.994-4.371l35.91-3.251c3.459-0.313,6.264-2.936,6.81-6.366
	c2.392-15.037,6.549-29.793,12.358-43.858c1.325-3.209,0.304-6.908-2.48-8.981l-28.896-21.532c-1.833-1.366-2.314-3.865-1.119-5.814
	l17.906-29.198c1.195-1.949,3.641-2.653,5.69-1.639l32.333,16.013c3.108,1.537,6.865,0.777,9.125-1.857
	c7.995-9.311,16.92-17.926,26.527-25.61c2.709-2.166,3.604-5.893,2.175-9.054L120.642,60.48c-0.942-2.083-0.152-4.503,1.838-5.628
	l29.808-16.871c1.989-1.126,4.471-0.558,5.772,1.322l20.501,29.629c1.974,2.853,5.632,4.004,8.887,2.794
	c12.084-4.498,24.681-7.807,37.441-9.835c3.431-0.545,6.053-3.351,6.366-6.811l3.25-35.909c0.206-2.276,2.086-3.994,4.372-3.994
	h34.252c2.286,0,4.166,1.717,4.372,3.994l3.25,35.909c0.313,3.46,2.935,6.265,6.366,6.811c15.037,2.39,29.793,6.548,43.859,12.357
	c3.208,1.329,6.907,0.303,8.981-2.479l21.53-28.895c1.366-1.834,3.867-2.314,5.815-1.119L396.5,59.661
	c1.949,1.196,2.653,3.641,1.639,5.689l-16.014,32.334c-1.54,3.108-0.775,6.865,1.857,9.125c9.311,7.994,17.928,16.92,25.611,26.527
	c2.166,2.708,5.893,3.602,9.054,2.175l32.876-14.87c2.083-0.943,4.503-0.151,5.628,1.838l16.871,29.809
	c1.126,1.99,0.558,4.471-1.323,5.771l-29.628,20.5c-2.854,1.975-4.005,5.635-2.794,8.888c4.496,12.079,7.805,24.677,9.835,37.441
	c0.545,3.431,3.35,6.053,6.81,6.366l35.91,3.251c2.277,0.206,3.994,2.086,3.994,4.371v34.251H496.823z"/>
<path d="M257.603,89.143c-92.005,0-166.858,74.853-166.858,166.858c0,62.638,34.583,119.452,90.252,148.271
	c3.72,1.929,8.3,0.471,10.227-3.25c1.927-3.722,0.471-8.301-3.251-10.227c-13.248-6.858-25.167-15.474-35.568-25.458
	c5.561-3.945,12.173-6.732,19.481-8.163l29.653-5.807c3.612-0.707,6.989-1.852,10.073-3.355
	c12.768,9.562,28.323,14.788,44.387,14.788s31.618-5.226,44.386-14.788c3.084,1.504,6.461,2.648,10.073,3.355l29.655,5.807
	c7.989,1.564,15.292,4.84,21.174,9.428c-27.143,25.461-63.622,41.081-103.685,41.081c-10.165,0-20.327-1.012-30.204-3.006
	c-4.105-0.83-8.11,1.828-8.94,5.936c-0.829,4.108,1.828,8.11,5.936,8.94c10.864,2.193,22.036,3.306,33.208,3.306
	c46.72,0,89.008-19.309,119.327-50.356c0.144-0.112,0.289-0.224,0.427-0.348c0.406-0.365,0.762-0.765,1.07-1.19
	c28.51-29.949,46.034-70.448,46.034-114.964C424.461,163.996,349.609,89.143,257.603,89.143z M187.136,255.07v2.348h-5.144
	c-1.861,0-3.375-1.514-3.375-3.375v-32.592c0-1.862,1.514-3.376,3.375-3.376h5.144V255.07z M195.38,197.286
	c-0.842,0.452-1.701,0.875-2.565,1.29c-0.855,0.222-1.654,0.582-2.364,1.066c-0.416,0.179-0.824,0.374-1.244,0.545
	c0.139-3.443,0.561-6.872,1.264-10.259c0.747-3.6,1.816-7.102,3.166-10.495c3.509,4.18,7.21,8.079,11.08,11.684
	C200.545,194.356,197.044,196.392,195.38,197.286z M202.313,210.785c0.083-0.044,0.168-0.085,0.251-0.13
	c2.402-1.29,7.896-4.488,14.128-9.7c18.757,13.501,40.447,20.84,62.981,20.84c5.711,0,17.437-1.152,27.719-4.328v37.603
	c0,10.018-2.821,19.388-7.707,27.363h-38.612c-4.191,0-7.588,3.397-7.588,7.588s3.397,7.588,7.588,7.588h24.557
	c-0.561,0.298-1.076,0.668-1.542,1.092c-8.364,5.622-18.422,8.908-29.235,8.908c-28.97,0-52.539-23.569-52.539-52.54v-44.284
	H202.313z M322.568,218.074h5.144c1.861,0,3.375,1.515,3.375,3.376v32.592c0,1.862-1.514,3.375-3.375,3.375h-5.144v-2.348V218.074z
	 M223.984,338.156c4.082-5.206,6.421-11.493,6.421-18.227v-1.727c7.589,2.949,15.828,4.585,24.447,4.585
	c9.494,0,18.533-1.972,26.742-5.515v2.657c0,6.734,2.339,13.021,6.421,18.227c-9.483,6.143-20.587,9.467-32.015,9.467
	C244.572,347.622,233.467,344.299,223.984,338.156z M371.862,355.649c-7.979-6.575-17.952-11.24-28.832-13.37l-29.654-5.807
	c-9.621-1.884-16.604-8.841-16.604-16.543v-11.736c3.959-3.131,7.564-6.688,10.737-10.611c14.349-0.569,25.955-11.972,26.846-26.238
	c6.954-2.68,11.909-9.414,11.909-17.301v-32.592c0-7.097-4.009-13.269-9.877-16.388c2.159-1.844,3.197-4.823,2.408-7.746
	c-6.144-22.762-16.07-40.891-29.502-53.884c-3.012-2.916-7.817-2.834-10.73,0.178c-2.914,3.013-2.834,7.817,0.178,10.73
	c11.435,11.061,19.981,26.851,25.402,46.93c0.158,0.584,0.399,1.118,0.675,1.627h-2.875c-1.167-2.69-3.843-4.573-6.962-4.573
	c-1.479,0-2.855,0.43-4.021,1.161c-0.05,0.031-0.09,0.048-0.142,0.083c-6.655,4.368-22.624,7.05-31.144,7.05
	c-20.932,0-41.101-7.476-58.241-21.129l-19.561-21.086c3.687-5.387,7.814-10.047,12.324-13.885
	c19.742-16.798,42.972-15.979,43.171-15.972c7.535,0.388,15.024,2.401,22.26,5.982c3.757,1.855,8.308,0.319,10.167-3.436
	c1.859-3.757,0.32-8.309-3.436-10.166c-9.103-4.505-18.593-7.04-28.208-7.536c-1.181-0.055-29.31-1.259-53.789,19.571
	c-7.018,5.972-13.227,13.466-18.461,22.268c-0.004,0.007-0.01,0.013-0.014,0.02c-0.016,0.026-0.03,0.052-0.046,0.078
	c-0.015,0.026-0.032,0.051-0.047,0.077c-0.004,0.006-0.006,0.012-0.009,0.018c-4.874,7.851-8.298,16.403-10.17,25.425
	c-1.222,5.89-1.752,11.881-1.599,17.882c-6.241,2.991-10.572,9.352-10.572,16.723v32.592c0,10.229,8.322,18.552,18.552,18.552h7.456
	c4.082,15.221,13.347,28.333,25.78,37.338v9.996c0,7.702-6.983,14.659-16.605,16.543l-29.654,5.807
	c-10.176,1.993-19.382,6.078-27.041,11.931c-22.895-26.923-36.007-61.457-36.007-98.209c0-83.637,68.044-151.681,151.681-151.681
	s151.681,68.044,151.681,151.681C409.284,294.109,395.153,328.976,371.862,355.649z"/>
<circle cx="231.01" cy="229.371" r="6.664"/>
<circle cx="276.33" cy="229.371" r="6.664"/>
<path d="M253.668,280.105c-6.292,0-12.584-2.396-17.374-7.185c-2.929-2.929-2.93-7.678-0.001-10.606
	c2.929-2.93,7.678-2.929,10.606-0.001c3.732,3.732,9.805,3.732,13.536,0c2.929-2.928,7.677-2.929,10.607,0.001
	c2.929,2.929,2.928,7.678,0,10.606C266.251,277.709,259.96,280.105,253.668,280.105z"/>
<g>
</g>
<g>
</g>
<g>
</g>
<g>
</g>
<g>
</g>
<g>
</g>
<g>
</g>
<g>
</g>
<g>
</g>
<g>
</g>
<g>
</g>
<g>
</g>
<g>
</g>
<g>
</g>
<g>
</g>
</svg>
