<?xml version="1.0" encoding="iso-8859-1"?>
<!-- Generator: Adobe Illustrator 19.0.0, SVG Export Plug-In . SVG Version: 6.00 Build 0)  -->
<svg version="1.1" id="Capa_1" xmlns="http://www.w3.org/2000/svg" xmlns:xlink="http://www.w3.org/1999/xlink" x="0px" y="0px"
	 viewBox="0 0 512 512" style="enable-background:new 0 0 512 512;" xml:space="preserve">
<path style="fill:#E9EBF2;" d="M420.634,417.584H37.694c-16.478,0-29.836-13.358-29.836-29.836V83.629
	c0-16.478,13.358-29.836,29.836-29.836h382.94c16.478,0,29.836,13.358,29.836,29.836v304.119
	C450.47,404.226,437.112,417.584,420.634,417.584z"/>
<path style="fill:#00AAF0;" d="M450.47,125.54V83.629c0-16.478-13.358-29.836-29.836-29.836H37.694
	c-16.478,0-29.836,13.358-29.836,29.836v41.911H448.45C448.45,125.54,450.47,125.54,450.47,125.54z"/>
<path style="fill:#C7CAD3;" d="M184.477,332.634l-13.741-1.732c-2.408-8.517-5.798-16.62-10.028-24.189l8.512-10.944
	c4.264-5.482,3.779-13.281-1.132-18.192l-21.832-21.832c-4.907-4.907-12.698-5.396-18.18-1.141l-10.97,8.514
	c-7.529-4.206-15.585-7.581-24.05-9.986l-1.719-13.76c-0.861-6.891-6.719-12.063-13.664-12.063H46.797
	c-6.939,0-12.794,5.163-13.663,12.048l-1.732,13.741c-8.278,2.341-16.16,5.615-23.546,9.68v59.366
	c12.216-16.757,31.985-27.656,54.31-27.656c37.102,0,67.179,30.077,67.179,67.179c0,23.33-11.897,43.875-29.95,55.918h62.08
	l-0.76-0.979c4.206-7.529,7.581-15.584,9.986-24.05l13.76-1.719c6.891-0.861,12.063-6.719,12.063-13.664v-30.876
	C196.525,339.357,191.362,333.501,184.477,332.634z"/>
<path style="fill:#B0B6C1;" d="M99.396,417.584h29.703c12.721-15.443,20.362-35.227,20.362-56.797
	c0-49.371-40.023-89.394-89.395-89.394c-19.495,0-37.517,6.259-52.209,16.851v33.899c12.216-16.757,31.985-27.656,54.31-27.656
	c37.102,0,67.179,30.077,67.179,67.179C129.346,384.995,117.449,405.541,99.396,417.584z"/>
<path style="fill:#DFE2EA;" d="M247.12,156.335c-21.667,0-39.231,17.564-39.231,39.231v222.017h212.745
	c16.478,0,29.836-13.358,29.836-29.836V156.335H247.12z"/>
<path style="fill:#86E56E;" d="M470.168,458.207h-207.03c-18.763,0-33.974-15.211-33.974-33.974V211.988
	c0-18.763,15.211-33.974,33.974-33.974h207.031c18.763,0,33.974,15.211,33.974,33.974v212.245
	C504.143,442.996,488.932,458.207,470.168,458.207z"/>
<path style="fill:#5FCE6A;" d="M470.169,178.013h-19.902v79.597c0,81.863-66.363,148.226-148.226,148.226h-72.877v18.397
	c0,18.763,15.211,33.974,33.974,33.974h207.03c18.763,0,33.974-15.211,33.974-33.974V211.988
	C504.143,193.224,488.932,178.013,470.169,178.013z"/>
<circle style="fill:#FFFFFF;" cx="337.17" cy="288.68" r="64.6"/>
<circle style="fill:#00AAF0;" cx="337.17" cy="288.68" r="45.68"/>
<path style="fill:#FFDC64;" d="M467.59,405.793l-13.304,13.304c-2.289,2.289-5.999,2.289-8.288,0l-39.881-39.881
	c-5.962-5.962-5.962-15.629,0-21.592l0,0c5.962-5.962,15.629-5.962,21.592,0l39.881,39.881
	C469.878,399.794,469.878,403.504,467.59,405.793z"/>
<path d="M287.775,98.029c4.34,0,7.857-3.517,7.857-7.857s-3.517-7.857-7.857-7.857h-131.37c-4.34,0-7.857,3.517-7.857,7.857
	s3.517,7.857,7.857,7.857H287.775z"/>
<circle cx="47.27" cy="90.17" r="9.44"/>
<circle cx="83.65" cy="90.17" r="9.44"/>
<circle cx="118" cy="90.17" r="9.44"/>
<circle cx="412.07" cy="90.17" r="9.44"/>
<path d="M470.169,170.157h-11.842V83.628c0-20.784-16.91-37.693-37.694-37.693H37.694C16.91,45.935,0,62.844,0,83.628v179.148
	v59.366v65.605c0,20.784,16.91,37.693,37.694,37.693h61.703h62.08h35.048c4.34,0,7.857-3.517,7.857-7.857s-3.517-7.857-7.857-7.857
	h-23.664c1.429-3.282,2.725-6.618,3.852-10.005l8.722-1.09c10.801-1.348,18.947-10.574,18.947-21.46v-30.876
	c0-10.873-8.135-20.098-18.923-21.457l-8.703-1.097c-1.837-5.549-4.088-10.975-6.724-16.218l5.391-6.931
	c6.682-8.592,5.918-20.875-1.778-28.572l-21.832-21.832c-7.689-7.689-19.964-8.461-28.554-1.792l-6.959,5.401
	c-5.201-2.615-10.579-4.849-16.077-6.677l-1.09-8.721c-1.348-10.801-10.574-18.947-21.46-18.947H46.797
	c-10.872,0-20.097,8.134-21.458,18.923l-1.097,8.704c-2.877,0.954-5.721,2.026-8.528,3.201V133.397h27.767
	c4.34,0,7.857-3.517,7.857-7.857s-3.517-7.857-7.857-7.857H15.714V83.628c0-12.119,9.86-21.979,21.98-21.979h382.94
	c12.12,0,21.98,9.86,21.98,21.979v34.055H83.652c-4.34,0-7.857,3.517-7.857,7.857s3.517,7.857,7.857,7.857h358.962v36.76H263.138
	c-23.065,0-41.831,18.766-41.831,41.831v212.245c0,23.066,18.766,41.832,41.831,41.832h207.031
	c23.065,0,41.831-18.766,41.831-41.832V211.988C512,188.922,493.234,170.157,470.169,170.157z M15.714,387.748v-62.921
	c11.219-14.113,28.392-22.484,46.453-22.484c32.711,0,59.322,26.611,59.322,59.322c0,19.111-9.165,36.897-24.599,48.061H37.694
	C25.574,409.727,15.714,399.867,15.714,387.748z M33.541,260.657c3.035-0.858,5.263-3.449,5.657-6.578l1.731-13.739
	c0.371-2.949,2.894-5.175,5.867-5.175h30.876c2.976,0,5.499,2.226,5.867,5.18l1.72,13.76c0.392,3.13,2.616,5.723,5.65,6.584
	c7.747,2.201,15.272,5.325,22.364,9.287c2.754,1.537,6.158,1.281,8.65-0.653l10.97-8.514c2.348-1.822,5.705-1.611,7.807,0.491
	l21.832,21.832c2.105,2.104,2.314,5.463,0.487,7.813l-8.513,10.943c-1.939,2.491-2.196,5.901-0.657,8.657
	c3.983,7.126,7.12,14.694,9.326,22.495c0.858,3.035,3.449,5.262,6.578,5.657l13.74,1.732c2.949,0.371,5.174,2.893,5.174,5.866
	v30.876c0,2.976-2.226,5.499-5.18,5.867l-13.76,1.72c-3.129,0.392-5.722,2.616-6.584,5.649c-1.889,6.65-4.457,13.134-7.65,19.319
	h-35.697c11.121-13.319,17.406-30.241,17.406-48.061c0-41.375-33.661-75.036-75.036-75.036c-16.977,0-33.344,5.832-46.453,16.152
	v-35.247C21.459,264.69,27.438,262.383,33.541,260.657z M496.286,424.233c0,14.401-11.716,26.118-26.117,26.118H263.138
	c-14.401,0-26.117-11.717-26.117-26.118V211.988c0-14.401,11.716-26.117,26.117-26.117h207.031
	c14.401,0,26.117,11.716,26.117,26.117V424.233z"/>
<path d="M433.264,352.067c-7.064-7.063-17.588-8.566-26.154-4.563l-13.451-13.451c22.867-28.427,21.124-70.236-5.25-96.61
	c-3.069-3.067-8.043-3.067-11.112,0c-3.068,3.069-3.068,8.043,0,11.112c10.718,10.717,16.62,24.967,16.62,40.124
	c0,14.709-5.572,28.553-15.695,39.154c-0.362,0.255-0.711,0.537-1.035,0.861c-0.322,0.322-0.603,0.669-0.857,1.029
	c-22.193,21.185-57.473,20.889-79.282-0.92c-10.717-10.717-16.62-24.967-16.62-40.125c0-15.156,5.903-29.406,16.621-40.124
	c15.147-15.149,37.234-20.462,57.634-13.865c4.132,1.331,8.559-0.931,9.894-5.06c1.334-4.128-0.931-8.558-5.059-9.893
	c-26.048-8.422-54.239-1.635-73.58,17.706c-13.686,13.686-21.224,31.882-21.224,51.236c0,19.355,7.538,37.551,21.223,51.237
	c14.128,14.127,32.679,21.189,51.236,21.188c16.086-0.002,32.172-5.321,45.374-15.939l13.451,13.451
	c-4.004,8.567-2.5,19.091,4.563,26.156l39.881,39.881c2.675,2.674,6.187,4.011,9.7,4.011c3.512,0,7.025-1.338,9.698-4.011
	l13.305-13.304h0.001c5.348-5.349,5.348-14.051,0-19.401L433.264,352.067z M450.142,412.129l-38.469-38.469
	c-1.401-1.4-2.171-3.26-2.171-5.24s0.77-3.84,2.171-5.24c1.4-1.401,3.26-2.171,5.24-2.171c1.979,0,3.839,0.77,5.239,2.171
	l38.471,38.469L450.142,412.129z"/>
<g>
</g>
<g>
</g>
<g>
</g>
<g>
</g>
<g>
</g>
<g>
</g>
<g>
</g>
<g>
</g>
<g>
</g>
<g>
</g>
<g>
</g>
<g>
</g>
<g>
</g>
<g>
</g>
<g>
</g>
</svg>
