<?xml version="1.0" encoding="iso-8859-1"?>
<!-- Generator: Adobe Illustrator 19.0.0, SVG Export Plug-In . SVG Version: 6.00 Build 0)  -->
<svg version="1.1" id="Capa_1" xmlns="http://www.w3.org/2000/svg" xmlns:xlink="http://www.w3.org/1999/xlink" x="0px" y="0px"
	 viewBox="0 0 512 512" style="enable-background:new 0 0 512 512;" xml:space="preserve">
<path style="fill:#FFC850;" d="M438.542,503.859H73.459c-23.972,0-43.405-19.433-43.405-43.405V215.868L234.531,16.357
	c11.086-10.817,28.757-10.878,39.919-0.139l207.497,199.651v244.586C481.946,484.426,462.514,503.859,438.542,503.859z"/>
<polygon style="fill:#FFAA4D;" points="458.234,247.473 458.234,193.052 305.704,46.29 203.853,46.29 53.767,192.731 
	53.767,247.473 254.219,376.002 "/>
<path style="fill:#E9EBF2;" d="M435.108,246.032L254.423,359.864L76.893,246.032V92.509c0-13.616,11.038-24.654,24.654-24.654
	h308.906c13.616,0,24.654,11.038,24.654,24.654v153.523H435.108z"/>
<path style="fill:#DFE2EA;" d="M76.893,207.684v38.349l177.53,113.831l180.685-113.831v-38.349l-153.336,96.601
	c-16.69,10.515-37.954,10.43-54.56-0.218L76.893,207.684z"/>
<path style="fill:#FFDC64;" d="M73.459,503.859h365.083c23.972,0,43.405-19.433,43.405-43.405V215.868L254.423,359.863
	L30.054,215.868v244.586C30.054,484.426,49.487,503.859,73.459,503.859z"/>
<path style="fill:#FFC850;" d="M73.459,503.859h365.083c10.735,0,20.553-3.906,28.13-10.363L254.423,359.863L37.734,485.098
	C45.565,496.429,58.642,503.859,73.459,503.859z"/>
<path d="M487.591,210.002l-44.343-42.665V92.51c0-18.083-14.711-32.795-32.794-32.795h-79.058l-51.302-49.362
	c-14.419-13.874-36.93-13.793-51.247,0.178l-50.408,49.184h-76.892c-18.083,0-32.794,14.712-32.794,32.795v74.225l-44.384,43.306
	c-1.571,1.532-2.456,3.632-2.456,5.826V409.45c0,4.496,3.644,8.14,8.14,8.14s8.14-3.644,8.14-8.14V219.299l30.56-29.819v56.552
	c0,2.773,1.412,5.356,3.747,6.852l177.53,113.832c1.338,0.859,2.865,1.288,4.393,1.288c1.506,0,3.013-0.418,4.339-1.253
	l81.227-51.174c3.803-2.396,4.944-7.422,2.548-11.226c-2.396-3.803-7.423-4.945-11.226-2.548l-76.85,48.416L85.033,241.582V92.51
	c0-9.107,7.409-16.515,16.514-16.515h308.906c9.106,0,16.514,7.409,16.514,16.515v149.03l-68.411,43.1
	c-3.804,2.396-4.944,7.422-2.548,11.226c2.396,3.803,7.422,4.945,11.226,2.548l72.212-45.494c2.366-1.49,3.801-4.091,3.801-6.887
	v-56.104l30.559,29.403v241.123c0,19.445-15.82,35.265-35.265,35.265H73.458c-19.445,0-35.265-15.82-35.265-35.265v-17.374
	c0-4.496-3.644-8.14-8.14-8.14s-8.14,3.644-8.14,8.14v17.374c0,28.422,23.123,51.545,51.545,51.545h365.084
	c28.422,0,51.545-23.123,51.545-51.545V215.868C490.087,213.655,489.186,211.537,487.591,210.002z M240.216,22.183
	c7.989-7.796,20.548-7.838,28.591-0.1l39.11,37.632H201.75L240.216,22.183z"/>
<path d="M388.103,105h-263.69c-4.496,0-8.14,3.644-8.14,8.14s3.644,8.14,8.14,8.14h263.69c4.496,0,8.14-3.644,8.14-8.14
	S392.599,105,388.103,105z"/>
<path d="M124.413,234.154h157.094c4.496,0,8.14-3.644,8.14-8.14s-3.644-8.14-8.14-8.14H124.413c-4.496,0-8.14,3.644-8.14,8.14
	S119.917,234.154,124.413,234.154z"/>
<path d="M124.413,158.905h108.983c4.496,0,8.14-3.644,8.14-8.14s-3.644-8.14-8.14-8.14H124.413c-4.496,0-8.14,3.644-8.14,8.14
	C116.273,155.261,119.917,158.905,124.413,158.905z"/>
<path d="M124.413,196.529h68.506c4.496,0,8.14-3.644,8.14-8.14s-3.644-8.14-8.14-8.14h-68.506c-4.496,0-8.14,3.644-8.14,8.14
	C116.273,192.885,119.917,196.529,124.413,196.529z"/>
<path d="M314.856,188.389c0-4.496-3.644-8.14-8.14-8.14h-87.424c-4.496,0-8.14,3.644-8.14,8.14s3.644,8.14,8.14,8.14h87.424
	C311.213,196.529,314.856,192.885,314.856,188.389z"/>
<path d="M335.651,196.529h54.207c4.496,0,8.14-3.644,8.14-8.14s-3.644-8.14-8.14-8.14h-54.207c-4.496,0-8.14,3.644-8.14,8.14
	C327.51,192.885,331.154,196.529,335.651,196.529z"/>
<path d="M309.122,234.154h80.735c4.496,0,8.14-3.644,8.14-8.14s-3.644-8.14-8.14-8.14h-80.735c-4.496,0-8.14,3.644-8.14,8.14
	S304.626,234.154,309.122,234.154z"/>
<path d="M396.243,150.765c0-4.496-3.644-8.14-8.14-8.14H263.416c-4.496,0-8.14,3.644-8.14,8.14s3.644,8.14,8.14,8.14h124.687
	C392.599,158.905,396.243,155.261,396.243,150.765z"/>
<g>
</g>
<g>
</g>
<g>
</g>
<g>
</g>
<g>
</g>
<g>
</g>
<g>
</g>
<g>
</g>
<g>
</g>
<g>
</g>
<g>
</g>
<g>
</g>
<g>
</g>
<g>
</g>
<g>
</g>
</svg>
