<?xml version="1.0" encoding="iso-8859-1"?>
<!-- Generator: Adobe Illustrator 19.0.0, SVG Export Plug-In . SVG Version: 6.00 Build 0)  -->
<svg version="1.1" id="Capa_1" xmlns="http://www.w3.org/2000/svg" xmlns:xlink="http://www.w3.org/1999/xlink" x="0px" y="0px"
	 viewBox="0 0 512 512" style="enable-background:new 0 0 512 512;" xml:space="preserve">
<path style="fill:#E9EBF2;" d="M256,21.365c-129.164,0-233.872,104.708-233.872,233.872S126.836,489.109,256,489.109
	s233.872-104.708,233.872-233.872S385.164,21.365,256,21.365z M256,403.196c-81.715,0-147.959-66.244-147.959-147.959
	S174.285,107.278,256,107.278s147.959,66.243,147.959,147.959S337.715,403.196,256,403.196z"/>
<g>
	<path style="fill:#DFE2EA;" d="M256,79.559c-81.715,0-147.959,66.243-147.959,147.959c0,4.675,0.227,9.296,0.651,13.86
		c6.989-75.215,70.267-134.099,147.308-134.099s140.319,58.884,147.308,134.099c0.424-4.564,0.651-9.185,0.651-13.86
		C403.959,145.802,337.715,79.559,256,79.559z"/>
	<path style="fill:#DFE2EA;" d="M256,461.389c-124.51,0-226.278-97.302-233.452-220.012c-0.268,4.587-0.42,9.206-0.42,13.86
		c0,129.164,104.708,233.872,233.872,233.872s233.872-104.708,233.872-233.872c0-4.654-0.152-9.273-0.42-13.86
		C482.278,364.087,380.51,461.389,256,461.389z"/>
</g>
<g>
	<path style="fill:#FFDC64;" d="M280.956,125.674h-49.913c-10.058,0-18.212-8.154-18.212-18.212V26.408
		c0-10.058,8.154-18.212,18.212-18.212h49.913c10.058,0,18.212,8.154,18.212,18.212v81.055
		C299.168,117.521,291.014,125.674,280.956,125.674z"/>
	<path style="fill:#FFDC64;" d="M280.956,503.803h-49.913c-10.058,0-18.212-8.154-18.212-18.212v-81.055
		c0-10.058,8.154-18.212,18.212-18.212h49.913c10.058,0,18.212,8.154,18.212,18.212v81.055
		C299.168,495.65,291.014,503.803,280.956,503.803z"/>
	<path style="fill:#FFDC64;" d="M386.326,280.956v-49.913c0-10.058,8.154-18.212,18.212-18.212h81.055
		c10.058,0,18.212,8.154,18.212,18.212v49.913c0,10.058-8.154,18.212-18.212,18.212h-81.055
		C394.479,299.168,386.326,291.014,386.326,280.956z"/>
	<path style="fill:#FFDC64;" d="M8.196,280.956v-49.913c0-10.058,8.154-18.212,18.212-18.212h81.055
		c10.058,0,18.212,8.154,18.212,18.212v49.913c0,10.058-8.154,18.212-18.212,18.212H26.408
		C16.35,299.168,8.196,291.014,8.196,280.956z"/>
</g>
<g>
	<path style="fill:#FFC850;" d="M280.956,96.916h-49.913c-10.058,0-18.211-8.154-18.211-18.211v28.757
		c0,10.058,8.154,18.212,18.211,18.212h49.913c10.058,0,18.211-8.154,18.211-18.212V78.705
		C299.168,88.763,291.014,96.916,280.956,96.916z"/>
	<path style="fill:#FFC850;" d="M280.956,475.046h-49.913c-10.058,0-18.211-8.154-18.211-18.211v28.757
		c0,10.058,8.154,18.212,18.211,18.212h49.913c10.058,0,18.211-8.154,18.211-18.212v-28.757
		C299.168,466.892,291.014,475.046,280.956,475.046z"/>
	<path style="fill:#FFC850;" d="M485.592,270.41h-81.055c-10.058,0-18.211-8.154-18.211-18.211v28.757
		c0,10.058,8.154,18.212,18.211,18.212h81.055c10.058,0,18.211-8.154,18.211-18.212v-28.757
		C503.804,262.256,495.65,270.41,485.592,270.41z"/>
	<path style="fill:#FFC850;" d="M107.463,270.41H26.408c-10.058,0-18.211-8.154-18.211-18.211v28.757
		c0,10.058,8.154,18.212,18.211,18.212h81.055c10.058,0,18.211-8.154,18.211-18.212v-28.757
		C125.674,262.256,117.521,270.41,107.463,270.41z"/>
</g>
<path d="M492.986,205.697c-9.551-45.973-32.129-87.829-65.534-121.344c-33.458-33.568-75.318-56.306-121.343-65.984
	C302.7,7.727,292.715,0,280.956,0h-49.913c-11.759,0-21.744,7.727-25.153,18.369c-46.04,9.68-87.91,32.428-121.372,66.013
	c-33.389,33.511-55.956,75.356-65.505,121.315C8.042,208.903,0,219.049,0,231.044v49.913c0,12.12,8.21,22.353,19.36,25.445
	c10.85,50.29,38.001,96.525,76.893,130.712c1.556,1.369,3.486,2.041,5.408,2.041c2.275,0,4.539-0.942,6.159-2.786
	c2.989-3.399,2.655-8.578-0.745-11.567C71.952,393.928,47.1,352.526,36.383,307.364h71.08c0.438,0,0.873-0.012,1.306-0.033
	c7.778,21.951,20.495,42.093,37.107,58.617c16.616,16.529,36.829,29.14,58.827,36.799c-0.04,0.592-0.067,1.187-0.067,1.789v70.498
	c-23.757-5.521-46.323-14.824-67.191-27.733c-3.848-2.382-8.9-1.193-11.282,2.659c-2.382,3.85-1.192,8.901,2.659,11.282
	c23.707,14.666,49.454,25.004,76.607,30.77C208.304,503.48,218.696,512,231.044,512h49.913c12.349,0,22.741-8.521,25.615-19.991
	c45.874-9.744,87.621-32.491,120.951-65.96c32.948-33.085,55.379-74.351,65.118-119.648C503.79,303.309,512,293.077,512,280.956
	v-49.913C512,219.049,503.959,208.903,492.986,205.697z M221.029,26.408c0-5.522,4.493-10.015,10.015-10.015h49.913
	c5.522,0,10.015,4.493,10.015,10.015v81.055c0,5.522-4.493,10.015-10.015,10.015h-49.913c-5.522,0-10.015-4.493-10.015-10.015
	V26.408z M16.393,231.044c0-5.522,4.493-10.015,10.015-10.015h81.055c5.522,0,10.015,4.493,10.015,10.015v49.913
	c0,3.611-1.928,6.772-4.802,8.534c-0.28,0.053-0.559,0.119-0.838,0.202c-0.805,0.24-1.544,0.593-2.208,1.036
	c-0.699,0.155-1.422,0.243-2.167,0.243H26.408c-5.522,0-10.015-4.493-10.015-10.015C16.393,280.957,16.393,231.044,16.393,231.044z
	 M157.437,354.327c-14.975-14.896-26.41-33.068-33.357-52.866c5.968-4.846,9.791-12.236,9.791-20.505v-49.913
	c0-8.46-4.003-15.997-10.209-20.833c7.986-23.502,22.08-44.43,41.053-60.81c3.426-2.957,3.806-8.133,0.847-11.56
	c-2.958-3.426-8.132-3.806-11.56-0.847c-21.116,18.23-36.82,41.511-45.761,67.663c-0.259-0.007-0.517-0.02-0.779-0.02H36.024
	c9.396-41.104,30.046-78.512,60.108-108.683c30.072-30.182,67.419-50.973,108.504-60.517v72.027c0,0.094,0.006,0.186,0.007,0.279
	c-8.794,3.064-17.334,6.912-25.453,11.507c-3.939,2.229-5.326,7.231-3.096,11.171c1.508,2.664,4.283,4.16,7.141,4.16
	c1.367,0,2.755-0.343,4.03-1.064c7.223-4.088,14.817-7.514,22.636-10.247c4.821,6.433,12.504,10.603,21.143,10.603h49.913
	c8.637,0,16.319-4.168,21.14-10.599c19.871,6.95,38.108,18.422,53.045,33.454c14.995,15.091,26.381,33.483,33.193,53.487
	c-6.204,4.836-10.206,12.373-10.206,20.831v49.913c0,8.271,3.825,15.663,9.795,20.508c-14.188,40.605-46.054,72.218-86.781,86.073
	c-4.848-5.748-12.097-9.409-20.187-9.409h-49.913c-8.089,0-15.335,3.659-20.183,9.404
	C190.878,380.707,172.507,369.318,157.437,354.327z M290.971,485.592c0,5.522-4.493,10.015-10.015,10.015h-49.913
	c-5.522,0-10.015-4.493-10.015-10.015v-81.055c0-1.12,0.193-2.193,0.534-3.2c0.298-0.523,0.558-1.073,0.74-1.673
	c1.715-3.064,4.989-5.142,8.742-5.142h49.913c5.522,0,10.015,4.493,10.015,10.015v81.055H290.971z M415.907,414.482
	c-30.055,30.179-67.441,51.008-108.543,60.561v-70.505c0-0.602-0.027-1.197-0.068-1.79c21.972-7.652,42.178-20.251,58.779-36.75
	c16.629-16.527,29.37-36.697,37.155-58.666c0.433,0.021,0.868,0.033,1.307,0.033h71.083
	C466.064,347.848,445.554,384.713,415.907,414.482z M495.607,280.956c0,5.522-4.493,10.015-10.015,10.015h-81.055
	c-5.522,0-10.015-4.493-10.015-10.015v-49.913c0-5.522,4.493-10.015,10.015-10.015h22.678c4.527,0,8.196-3.669,8.196-8.196
	s-3.669-8.196-8.196-8.196h-22.678c-0.261,0-0.52,0.012-0.78,0.02c-7.626-22.249-20.307-42.699-36.987-59.484
	c-16.72-16.827-37.149-29.661-59.412-37.423c0.001-0.095,0.007-0.19,0.007-0.285V35.436c41.07,9.54,78.409,30.322,108.477,60.489
	c30.075,30.174,50.735,67.594,60.135,108.711h-15.066c-4.527,0-8.196,3.669-8.196,8.196s3.669,8.196,8.196,8.196h24.681
	c5.522,0,10.015,4.493,10.015,10.015V280.956z"/>
<g>
</g>
<g>
</g>
<g>
</g>
<g>
</g>
<g>
</g>
<g>
</g>
<g>
</g>
<g>
</g>
<g>
</g>
<g>
</g>
<g>
</g>
<g>
</g>
<g>
</g>
<g>
</g>
<g>
</g>
</svg>
