<?xml version="1.0" encoding="iso-8859-1"?>
<!-- Generator: Adobe Illustrator 19.0.0, SVG Export Plug-In . SVG Version: 6.00 Build 0)  -->
<svg version="1.1" id="Capa_1" xmlns="http://www.w3.org/2000/svg" xmlns:xlink="http://www.w3.org/1999/xlink" x="0px" y="0px"
	 viewBox="0 0 511.999 511.999" style="enable-background:new 0 0 511.999 511.999;" xml:space="preserve">
<path style="fill:#53515E;" d="M356.312,160.183V33.67c0-8.006-6.365-14.495-14.217-14.495h-164.77
	c-7.852,0-14.217,6.49-14.217,14.495v126.428"/>
<path style="fill:#474756;" d="M342.095,19.175h-24.43v21.638c0,51.685-41.911,93.577-93.596,93.555l-60.961-0.027v25.758
	l193.205,0.085V33.67C356.312,25.664,349.947,19.175,342.095,19.175z"/>
<path style="fill:#DFE2EA;" d="M278.664,159.161L278.664,159.161c-16.064,0-22.642,0-38.023,0l0,0h-98.393v6.848
	c0,11.309,9.168,20.476,20.476,20.476H355.53c11.309,0,20.476-9.168,20.476-20.476v-6.848H278.664z"/>
<path style="fill:#C7CAD3;" d="M143.414,172.823c2.808,7.958,10.391,13.662,19.311,13.662H355.53c8.919,0,16.502-5.704,19.31-13.662
	h-96.176c-16.064,0-22.642,0-38.023,0H143.414z"/>
<path style="fill:#00AAF0;" d="M336.822,42.939v92.734c0,2.526-2.047,4.573-4.573,4.573H188.717c-2.526,0-4.573-2.047-4.573-4.573
	V42.939c0-2.526,2.047-4.573,4.573-4.573H332.25C334.775,38.367,336.822,40.414,336.822,42.939z"/>
<path style="fill:#0398E2;" d="M188.717,140.246H332.25c2.525,0,4.573-2.047,4.573-4.573V42.939c0-2.526-2.047-4.573-4.573-4.573
	h-14.585v2.446c0,51.685-41.911,93.577-93.596,93.554l-39.924-0.018v1.324C184.144,138.199,186.192,140.246,188.717,140.246z"/>
<path style="fill:#53515E;" d="M221.645,466.522V340.009c0-8.006-6.365-14.495-14.217-14.495H42.658
	c-7.852,0-14.217,6.49-14.217,14.495v126.428"/>
<path style="fill:#474756;" d="M207.428,325.514h-24.43v21.638c0,51.685-41.911,93.577-93.596,93.555l-60.961-0.027v25.758
	l193.205,0.085V340.009C221.645,332.003,215.28,325.514,207.428,325.514z"/>
<path style="fill:#DFE2EA;" d="M143.997,465.5L143.997,465.5c-16.064,0-22.642,0-38.023,0l0,0H7.581v6.848
	c0,11.309,9.168,20.476,20.476,20.476h192.805c11.309,0,20.476-9.168,20.476-20.476V465.5H143.997z"/>
<path style="fill:#C7CAD3;" d="M8.747,479.161c2.808,7.958,10.391,13.662,19.311,13.662h192.805c8.919,0,16.502-5.704,19.31-13.662
	h-96.176c-16.064,0-22.642,0-38.023,0H8.747z"/>
<path style="fill:#FFDC64;" d="M202.155,349.278v92.734c0,2.526-2.047,4.573-4.573,4.573H54.05c-2.526,0-4.573-2.047-4.573-4.573
	v-92.734c0-2.526,2.047-4.573,4.573-4.573h143.533C200.108,344.706,202.155,346.753,202.155,349.278z"/>
<path style="fill:#FFC850;" d="M54.05,446.585h143.532c2.525,0,4.573-2.047,4.573-4.573v-92.734c0-2.526-2.047-4.573-4.573-4.573
	h-14.585v2.446c0,51.685-41.911,93.577-93.596,93.554l-39.924-0.018v1.324C49.477,444.538,51.525,446.585,54.05,446.585z"/>
<path style="fill:#53515E;" d="M484.726,466.522V340.009c0-8.006-6.365-14.495-14.217-14.495h-164.77
	c-7.852,0-14.217,6.49-14.217,14.495v126.428"/>
<path style="fill:#474756;" d="M470.508,325.514h-24.43v21.638c0,51.685-41.911,93.577-93.596,93.555l-60.961-0.027v25.758
	l193.205,0.085V340.009C484.726,332.003,478.36,325.514,470.508,325.514z"/>
<path style="fill:#DFE2EA;" d="M407.077,465.5L407.077,465.5c-16.064,0-22.642,0-38.023,0l0,0h-98.393v6.848
	c0,11.309,9.168,20.476,20.476,20.476h192.805c11.309,0,20.476-9.168,20.476-20.476V465.5H407.077z"/>
<path style="fill:#C7CAD3;" d="M271.827,479.161c2.808,7.958,10.391,13.662,19.311,13.662h192.805
	c8.919,0,16.502-5.704,19.31-13.662h-96.176c-16.064,0-22.642,0-38.023,0H271.827z"/>
<path style="fill:#86E56E;" d="M465.236,349.278v92.734c0,2.526-2.047,4.573-4.573,4.573H317.131c-2.526,0-4.573-2.047-4.573-4.573
	v-92.734c0-2.526,2.047-4.573,4.573-4.573h143.533C463.189,344.706,465.236,346.753,465.236,349.278z"/>
<path style="fill:#5FCE6A;" d="M317.131,446.585h143.532c2.525,0,4.573-2.047,4.573-4.573v-92.734c0-2.526-2.047-4.573-4.573-4.573
	h-14.585v2.446c0,51.685-41.911,93.577-93.596,93.554l-39.924-0.018v1.324C312.558,444.538,314.605,446.585,317.131,446.585z"/>
<path d="M162.724,194.066h192.805c15.471,0,28.057-12.586,28.057-28.057v-6.848c0-4.187-3.394-7.581-7.581-7.581h-12.113V33.67
	c0-12.173-9.778-22.076-21.798-22.076h-164.77c-12.02,0-21.798,9.903-21.798,22.076v96.339c0,4.187,3.394,7.581,7.581,7.581
	s7.581-3.394,7.581-7.581V33.67c0-3.813,2.977-6.914,6.637-6.914h164.77c3.66,0,6.637,3.101,6.637,6.914v117.91H142.248
	c-4.187,0-7.581,3.394-7.581,7.581v6.848C134.667,181.48,147.253,194.066,162.724,194.066z M355.237,166.742
	c0.352,0.05,0.709,0.085,1.075,0.085s0.723-0.035,1.075-0.085h11.017c-0.381,6.771-6.01,12.163-12.875,12.163H162.724
	c-6.865,0-12.494-5.391-12.875-12.163H355.237z"/>
<path d="M241.339,457.919h-12.113v-117.91c0-12.173-9.778-22.076-21.798-22.076H42.658c-12.02,0-21.798,9.903-21.798,22.076v96.34
	c0,4.187,3.394,7.581,7.581,7.581s7.581-3.394,7.581-7.581v-96.34c0-3.813,2.977-6.914,6.637-6.914h164.77
	c3.66,0,6.637,3.101,6.637,6.914v117.91H7.581C3.394,457.919,0,461.313,0,465.5v6.848c0,15.471,12.586,28.058,28.057,28.058h192.805
	c15.471,0,28.057-12.586,28.057-28.058V465.5C248.92,461.313,245.526,457.919,241.339,457.919z M220.863,485.243H28.057
	c-6.865,0-12.494-5.392-12.875-12.164H220.57c0.352,0.05,0.709,0.085,1.075,0.085s0.723-0.035,1.075-0.085h11.017
	C233.357,479.852,227.728,485.243,220.863,485.243z"/>
<path d="M504.419,457.919h-12.113v-117.91c0-12.173-9.779-22.076-21.798-22.076h-164.77c-12.02,0-21.798,9.903-21.798,22.076v96.34
	c0,4.187,3.394,7.581,7.581,7.581s7.581-3.394,7.581-7.581v-96.34c0-3.813,2.977-6.914,6.637-6.914h164.77
	c3.66,0,6.637,3.101,6.637,6.914v117.91H270.661c-4.187,0-7.581,3.394-7.581,7.581v6.848c0,15.471,12.586,28.058,28.057,28.058
	h192.805c15.471,0,28.057-12.586,28.057-28.058V465.5C512,461.313,508.606,457.919,504.419,457.919z M483.943,485.243H291.137
	c-6.865,0-12.494-5.392-12.875-12.164H483.65c0.352,0.05,0.709,0.085,1.075,0.085s0.723-0.035,1.075-0.085h11.017
	C496.437,479.852,490.808,485.243,483.943,485.243z"/>
<path d="M385.544,273.475v21.627c0,4.187,3.394,7.581,7.581,7.581c4.187,0,7.581-3.394,7.581-7.581v-21.627
	c0-13.991-11.382-25.374-25.374-25.374H267.291v-31.839c0-4.187-3.394-7.581-7.581-7.581c-4.187,0-7.581,3.394-7.581,7.581v31.839
	H142.253c-13.991,0-25.374,11.383-25.374,25.374v21.627c0,4.187,3.394,7.581,7.581,7.581c4.187,0,7.581-3.394,7.581-7.581v-21.627
	c0-5.631,4.581-10.212,10.212-10.212h233.079C380.963,263.262,385.544,267.842,385.544,273.475z"/>
<g>
</g>
<g>
</g>
<g>
</g>
<g>
</g>
<g>
</g>
<g>
</g>
<g>
</g>
<g>
</g>
<g>
</g>
<g>
</g>
<g>
</g>
<g>
</g>
<g>
</g>
<g>
</g>
<g>
</g>
</svg>
