<?xml version="1.0" encoding="iso-8859-1"?>
<!-- Generator: Adobe Illustrator 19.0.0, SVG Export Plug-In . SVG Version: 6.00 Build 0)  -->
<svg version="1.1" id="Capa_1" xmlns="http://www.w3.org/2000/svg" xmlns:xlink="http://www.w3.org/1999/xlink" x="0px" y="0px"
	 viewBox="0 0 512 512" style="enable-background:new 0 0 512 512;" xml:space="preserve">
<g>
	<path style="fill:#53515E;" d="M91.798,492.252H65.115c-3.228,0-5.844-2.617-5.844-5.844v-22.489h38.371v22.489
		C97.642,489.636,95.026,492.252,91.798,492.252z"/>
	<path style="fill:#53515E;" d="M446.885,492.252h-26.682c-3.228,0-5.844-2.617-5.844-5.844v-22.489h38.371v22.489
		C452.729,489.636,450.113,492.252,446.885,492.252z"/>
</g>
<path style="fill:#FFDC64;" d="M491.1,190.586v262.819c0,6.728-5.454,12.181-12.181,12.181H33.081
	c-6.728,0-12.181-5.454-12.181-12.181V190.586"/>
<path style="fill:#53515E;" d="M318.125,19.747H195.093c-13.455,0-24.363,11.443-24.363,25.558v60.406h32.277V58.1
	c0-4.166,3.377-7.543,7.543-7.543h92.117c4.166,0,7.543,3.377,7.543,7.543v47.611h32.277V45.305
	C342.488,31.19,331.58,19.747,318.125,19.747z"/>
<path style="fill:#3C3B44;" d="M318.125,19.747H195.093c-13.455,0-24.363,11.443-24.363,25.558v13.23
	c0-14.115,10.908-25.558,24.363-25.558h123.032c13.455,0,24.363,11.443,24.363,25.558v-13.23
	C342.488,31.19,331.58,19.747,318.125,19.747z"/>
<path style="fill:#FFC850;" d="M20.9,186.086v25.167h225.819c112.38,0,203.482,91.102,203.482,203.482v38.67
	c0,6.728-5.454,12.181-12.181,12.181h40.9c6.728,0,12.181-5.454,12.181-12.181V211.252v-25.167H20.9V186.086z"/>
<path style="fill:#FF6B5C;" d="M504.5,183.398v-63.121c0-10.446-8.468-18.914-18.914-18.914H26.414
	c-10.446,0-18.914,8.468-18.914,18.914v63.121c0,3.97,3.218,7.188,7.188,7.188h482.625C501.282,190.586,504.5,187.368,504.5,183.398
	z"/>
<path style="fill:#D85750;" d="M485.586,101.363h-59.6c10.446,0,18.914,8.468,18.914,18.914v63.121c0,3.969-3.218,7.188-7.188,7.188
	h59.6c3.969,0,7.188-3.218,7.188-7.188v-63.121C504.5,109.831,496.032,101.363,485.586,101.363z"/>
<g>
	<path style="fill:#FF6B5C;" d="M97.642,465.586H31.189c-5.683,0-10.29-4.607-10.29-10.29v-66.453h38.454
		c21.146,0,38.289,17.143,38.289,38.289V465.586z"/>
	<path style="fill:#FF6B5C;" d="M414.358,465.586h66.453c5.683,0,10.29-4.607,10.29-10.29v-66.453h-38.454
		c-21.146,0-38.289,17.143-38.289,38.289V465.586z"/>
</g>
<path style="fill:#D85750;" d="M448.594,389.058c1.059,8.41,1.607,16.979,1.607,25.676v38.67c0,6.728-5.454,12.181-12.181,12.181
	h40.9c6.728,0,12.181-5.454,12.181-12.181v-64.562h-38.454C451.277,388.843,449.926,388.918,448.594,389.058z"/>
<circle style="fill:#FF80BD;" cx="256" cy="337.25" r="59.6"/>
<g>
	<path style="fill:#53515E;" d="M292.876,261.083c0-15.027-8.993-27.946-21.887-33.691v28.521c0,3.163-2.565,5.728-5.728,5.728
		h-18.522c-3.164,0-5.728-2.565-5.728-5.728v-28.521c-12.894,5.745-21.887,18.664-21.887,33.691c0,14.907,8.85,27.738,21.578,33.551
		l-5.043,112.877c-0.518,11.59,8.739,21.269,20.34,21.269l0,0c11.657,0,20.934-9.768,20.334-21.409l-5.793-112.394
		C283.675,289.334,292.876,276.285,292.876,261.083z"/>
	<path style="fill:#53515E;" d="M100.579,227.392H77.692c-5.387,0-9.755-4.367-9.755-9.755v-52.963c0-5.387,4.367-9.755,9.755-9.755
		h22.887c5.387,0,9.755,4.367,9.755,9.755v52.963C110.333,223.024,105.966,227.392,100.579,227.392z"/>
	<path style="fill:#53515E;" d="M425.801,227.392h-22.887c-5.387,0-9.755-4.367-9.755-9.755v-52.963
		c0-5.387,4.367-9.755,9.755-9.755h22.887c5.387,0,9.755,4.367,9.755,9.755v52.963C435.556,223.024,431.188,227.392,425.801,227.392
		z"/>
</g>
<g>
	<path style="fill:#3C3B44;" d="M100.579,227.392H77.692c-5.387,0-9.755-4.367-9.755-9.755v-9.718c0-5.387,4.367-9.755,9.755-9.755
		h22.887c5.387,0,9.755,4.367,9.755,9.755v9.718C110.333,223.024,105.966,227.392,100.579,227.392z"/>
	<path style="fill:#3C3B44;" d="M425.801,227.392h-22.887c-5.387,0-9.755-4.367-9.755-9.755v-9.718c0-5.387,4.367-9.755,9.755-9.755
		h22.887c5.387,0,9.755,4.367,9.755,9.755v9.718C435.556,223.024,431.188,227.392,425.801,227.392z"/>
</g>
<path d="M228.555,398.494l-0.388,8.681c-0.343,7.671,2.391,14.95,7.697,20.5c5.307,5.549,12.458,8.604,20.136,8.604
	c7.714,0,14.889-3.08,20.201-8.674s8.02-12.917,7.623-20.62l-0.436-8.466c23.969-10.713,39.713-34.658,39.713-61.268
	c0-21.928-10.656-42.223-28.266-54.72c3.554-6.436,5.542-13.774,5.542-21.449c0-17.499-10.336-33.413-26.334-40.542
	c-2.319-1.032-5.005-0.822-7.136,0.56c-2.131,1.384-3.417,3.751-3.417,6.291v26.749h-14.979v-26.749c0-2.54-1.286-4.907-3.417-6.291
	c-2.13-1.384-4.817-1.593-7.136-0.56c-15.998,7.129-26.334,23.043-26.334,40.542c0,7.639,1.992,14.986,5.561,21.437
	c-17.618,12.498-28.285,32.812-28.285,54.733C188.9,363.828,204.622,387.768,228.555,398.494z M308.1,337.252
	c0,18.642-9.948,35.6-25.559,44.848l-4.26-82.635c2.585-1.5,4.984-3.244,7.179-5.192C299.548,303.936,308.1,319.941,308.1,337.252z
	 M233.511,242.198v13.715c0,7.294,5.934,13.228,13.228,13.228h18.522c7.294,0,13.228-5.934,13.228-13.228v-13.715
	c4.36,5.195,6.887,11.847,6.887,18.885c0,11.76-6.985,22.359-17.796,27.004c-2.884,1.238-4.691,4.143-4.53,7.276l5.793,112.395
	c0.184,3.557-1.066,6.937-3.518,9.519c-2.453,2.582-5.764,4.004-9.325,4.004c-3.544,0-6.845-1.411-9.295-3.972
	c-2.449-2.562-3.711-5.922-3.553-9.463l0.627-14.047c0-0.011,0.001-0.022,0.002-0.033l4.413-98.795
	c0.136-3.055-1.595-5.887-4.377-7.157c-10.445-4.771-17.194-15.263-17.194-26.729C226.624,254.044,229.151,247.393,233.511,242.198z
	 M226.566,294.253c1.985,1.766,4.128,3.373,6.432,4.772l-3.707,82.972c-15.512-9.271-25.392-26.18-25.392-44.745
	C203.9,319.941,212.464,303.914,226.566,294.253z"/>
<path d="M485.585,93.863H349.988V44.11c0-17.569-14.293-31.862-31.863-31.862H195.093c-17.569,0-31.863,14.293-31.863,31.862v49.753
	H26.415C11.85,93.863,0,105.712,0,120.277v63.121c0,7.664,5.903,13.967,13.399,14.622v190.823v64.562v1.891
	c0,9.81,7.98,17.79,17.79,17.79h1.892h18.69v13.497c0,7.262,5.908,13.17,13.17,13.17h27.031c7.262,0,13.17-5.908,13.17-13.17
	v-13.497h301.716v13.497c0,7.262,5.908,13.17,13.17,13.17h27.031c7.262,0,13.17-5.908,13.17-13.17v-13.497h18.69h1.892
	c9.81,0,17.79-7.98,17.79-17.79v-1.891v-64.562V198.02c7.497-0.656,13.399-6.958,13.399-14.622v-63.121
	C512,105.712,500.15,93.863,485.585,93.863z M178.23,44.11c0-9.298,7.564-16.862,16.863-16.862h123.032
	c9.298,0,16.863,7.564,16.863,16.862v49.753h-17.277V57.656c0-8.05-6.549-14.6-14.599-14.6h-93.005c-8.05,0-14.599,6.55-14.599,14.6
	v36.207H178.23V44.11z M302.711,58.056v35.807h-92.204V58.056H302.711z M90.142,484.752H66.771v-11.667h23.371
	C90.142,473.085,90.142,484.752,90.142,484.752z M90.142,458.085H59.271h-26.19c-2.582,0-4.682-2.1-4.682-4.681v-57.062h30.954
	c16.977,0,30.789,13.812,30.789,30.789C90.142,427.131,90.142,458.085,90.142,458.085z M445.229,484.752h-23.371v-11.667h23.371
	V484.752z M483.601,453.405c0,2.581-2.1,4.681-4.682,4.681h-26.19h-30.871v-30.953c0-16.978,13.812-30.789,30.789-30.789h30.954
	V453.405z M497,183.085h-53.944v-18.412c0-9.529-7.725-17.254-17.254-17.254h-22.887c-9.53,0-17.255,7.725-17.255,17.255v18.411
	H205.73c-4.142,0-7.5,3.358-7.5,7.5l0,0c0,4.142,3.358,7.5,7.5,7.5h179.93v19.552c0,9.529,7.725,17.254,17.254,17.254h22.888
	c9.529,0,17.254-7.725,17.254-17.254v-19.551h40.545v183.258h-30.954c-25.289,0-45.789,20.5-45.789,45.789v30.953H105.142v-30.953
	c0-25.289-20.5-45.789-45.789-45.789H28.399V198.085h32.038v19.552c0,9.529,7.725,17.254,17.254,17.254h22.887
	c9.53,0,17.255-7.725,17.255-17.255v-19.551h52.897c4.142,0,7.5-3.358,7.5-7.5l0,0c0-4.142-3.358-7.5-7.5-7.5h-52.897v-18.412
	c0-9.529-7.725-17.254-17.254-17.254H77.692c-9.529,0-17.254,7.725-17.254,17.254v18.412H15v-62.809
	c0-6.304,5.11-11.414,11.414-11.414h176.593h107.204h175.375c6.304,0,11.415,5.11,11.415,11.415v62.808H497z M428.056,164.673
	v52.964c0,1.243-1.011,2.254-2.254,2.254h-22.887c-1.243,0-2.255-1.011-2.255-2.254v-52.964c0-1.243,1.012-2.254,2.255-2.254h22.887
	C427.044,162.419,428.056,163.43,428.056,164.673z M75.438,190.576v-25.902c0-1.243,1.011-2.254,2.254-2.254h22.887
	c1.243,0,2.255,1.011,2.255,2.254v25.902c0,0.003,0,0.006,0,0.01s0,0.006,0,0.01v27.042c0,1.243-1.012,2.254-2.255,2.254H77.692
	c-1.243,0-2.254-1.011-2.254-2.254v-27.042c0-0.003,0-0.006,0-0.01S75.438,190.579,75.438,190.576z"/>
<g>
</g>
<g>
</g>
<g>
</g>
<g>
</g>
<g>
</g>
<g>
</g>
<g>
</g>
<g>
</g>
<g>
</g>
<g>
</g>
<g>
</g>
<g>
</g>
<g>
</g>
<g>
</g>
<g>
</g>
</svg>
