<?xml version="1.0" encoding="iso-8859-1"?>
<!-- Generator: Adobe Illustrator 19.0.0, SVG Export Plug-In . SVG Version: 6.00 Build 0)  -->
<svg version="1.1" id="Capa_1" xmlns="http://www.w3.org/2000/svg" xmlns:xlink="http://www.w3.org/1999/xlink" x="0px" y="0px"
	 viewBox="0 0 511.999 511.999" style="enable-background:new 0 0 511.999 511.999;" xml:space="preserve">
<path style="fill:#53515E;" d="M470.637,419.577H41.363c-18.472,0-33.446-14.974-33.446-33.446V45.215
	c0-18.472,14.974-33.446,33.446-33.446h429.275c18.472,0,33.446,14.974,33.446,33.446v340.916
	C504.084,404.603,489.109,419.577,470.637,419.577z"/>
<path style="fill:#6F4BEF;" d="M470.637,11.768H41.363c-18.472,0-33.446,14.975-33.446,33.446v46.983h493.902h2.265V45.215
	C504.084,26.743,489.109,11.768,470.637,11.768z"/>
<path style="fill:#474756;" d="M454.459,315.025H60.021c-16.897,0-30.595,13.698-30.595,30.595v71.755
	c3.708,1.418,7.73,2.202,11.937,2.202h429.275c5.163,0,10.051-1.172,14.416-3.26V345.62
	C485.054,328.723,471.356,315.025,454.459,315.025z"/>
<path style="fill:#86E56E;" d="M434.833,500.231H79.646c-15.216,0-27.551-12.335-27.551-27.551V361.006
	c0-15.216,12.335-27.551,27.551-27.551h355.187c15.216,0,27.551,12.335,27.551,27.551v111.675
	C462.384,487.897,450.049,500.231,434.833,500.231z"/>
<path style="fill:#5FCE6A;" d="M434.833,333.455h-3.147c0.068,0.787,0.11,1.582,0.11,2.386l0,0
	c0,76.892-62.334,139.226-139.226,139.226H52.205c1.21,14.097,13.03,25.164,27.441,25.164h355.187
	c15.216,0,27.551-12.335,27.551-27.551V361.006C462.384,345.79,450.049,333.455,434.833,333.455z"/>
<path d="M470.637,3.852H41.363C18.556,3.852,0,22.407,0,45.215v340.916c0,22.808,18.556,41.363,41.363,41.363h2.816v45.186
	c0,19.556,15.911,35.467,35.467,35.467h355.187c19.556,0,35.467-15.91,35.467-35.467v-45.186h0.336
	c22.808,0,41.363-18.556,41.363-41.363V45.215C512,22.407,493.444,3.852,470.637,3.852z M41.363,19.685h429.274
	c14.078,0,25.53,11.452,25.53,25.529V84.28H15.833V45.215C15.833,31.138,27.285,19.685,41.363,19.685z M470.637,411.661h-0.336
	v-50.656c0-19.556-15.911-35.467-35.467-35.467h-65.868V167.206c0-4.372-3.544-7.917-7.917-7.917s-7.917,3.544-7.917,7.917v158.332
	H139.404c-4.373,0-7.917,3.544-7.917,7.917s3.544,7.917,7.917,7.917h295.429c10.827,0,19.634,8.807,19.634,19.634v111.676
	c0,10.827-8.807,19.634-19.634,19.634H79.646c-10.827,0-19.634-8.807-19.634-19.634v-51.845c0.066-0.41,0.109-0.829,0.109-1.258
	s-0.044-0.847-0.109-1.258v-57.315c0-10.827,8.807-19.634,19.634-19.634h25.41c4.373,0,7.917-3.544,7.917-7.917
	s-3.544-7.917-7.917-7.917h-25.41c-19.556,0-35.467,15.911-35.467,35.467v50.656h-2.816c-14.078,0-25.53-11.452-25.53-25.53V100.114
	h337.3v29.572c0,4.372,3.544,7.917,7.917,7.917s7.917-3.544,7.917-7.917v-29.572h127.201v286.017
	C496.167,400.209,484.715,411.661,470.637,411.661z"/>
<path d="M174.438,60.466h147.264c4.373,0,7.917-3.544,7.917-7.917s-3.544-7.917-7.917-7.917H174.438
	c-4.373,0-7.917,3.544-7.917,7.917S170.066,60.466,174.438,60.466z"/>
<circle cx="52.1" cy="52.55" r="7.5"/>
<circle cx="92.88" cy="52.55" r="7.5"/>
<circle cx="131.39" cy="52.55" r="7.5"/>
<circle cx="461.04" cy="52.55" r="7.5"/>
<path d="M119.016,375.811c-7.585,0-14.058,1.878-19.425,5.634c-5.365,3.756-8.049,9.426-8.049,17.009
	c0,4.652,1.162,8.658,3.488,12.019c2.323,3.364,5.167,5.956,8.531,7.781c3.362,1.825,6.707,3.471,10.034,4.937
	c3.327,1.468,6.153,3.095,8.478,4.883c2.323,1.788,3.487,3.863,3.487,6.224c0,2.362-1.038,4.133-3.112,5.312
	c-2.076,1.181-4.507,1.771-7.297,1.771c-2.218,0-4.329-0.433-6.332-1.301c-2.003-0.867-3.559-1.828-4.667-2.884
	c-1.11-1.055-2.326-2.015-3.649-2.884c-1.325-0.867-2.521-1.301-3.595-1.301c-1.932,0-3.632,1.002-5.097,3.005
	c-1.467,2.004-2.2,4.007-2.2,6.01c0,3.578,2.576,6.798,7.727,9.658c5.151,2.864,11.196,4.293,18.136,4.293
	c8.012,0,14.488-2.054,19.425-6.163c4.937-4.111,7.404-9.853,7.404-17.231c0-4.221-0.841-7.976-2.521-11.269
	c-1.682-3.29-3.775-5.849-6.279-7.673c-2.505-1.825-5.242-3.505-8.209-5.044c-2.97-1.537-5.707-2.79-8.209-3.755
	c-2.505-0.967-4.598-2.129-6.279-3.488s-2.521-2.861-2.521-4.507c0-1.787,0.894-3.309,2.683-4.561
	c1.787-1.251,4.47-1.878,8.049-1.878c3.361,0,6.438,0.681,9.229,2.039c2.79,1.36,4.615,2.039,5.474,2.039
	c2.074,0,3.702-1.017,4.883-3.053c1.18-2.036,1.77-3.999,1.77-5.889c0-1.989-0.804-3.684-2.414-5.086
	c-1.61-1.4-3.686-2.413-6.224-3.04c-2.541-0.628-4.829-1.051-6.868-1.273C122.826,375.922,120.876,375.811,119.016,375.811z"/>
<path d="M156.897,449.429c4.792,4.078,11.162,6.117,19.103,6.117c8.011,0,14.415-2.039,19.209-6.117
	c4.792-4.078,7.19-10.479,7.19-19.209v-28.439c0-8.727-2.398-15.131-7.19-19.209c-4.794-4.078-11.198-6.117-19.209-6.117
	c-7.941,0-14.311,2.039-19.103,6.117c-4.793,4.078-7.19,10.482-7.19,19.209v28.439C149.707,438.95,152.104,445.351,156.897,449.429z
	 M166.449,401.781c0-7.153,3.182-10.731,9.551-10.731c6.438,0,9.658,3.578,9.658,10.731v28.439c0,7.155-3.219,10.732-9.658,10.732
	c-6.369,0-9.551-3.577-9.551-10.732V401.781z"/>
<path d="M215.276,453.56c1.431,0.897,3.147,1.342,5.151,1.342h33.911c1.503,0,2.683-0.714,3.542-2.146
	c0.859-1.431,1.287-3.148,1.287-5.152c0-2.002-0.429-3.719-1.287-5.15c-0.859-1.431-2.039-2.146-3.542-2.146h-24.467v-58.81
	c0-1.645-0.824-2.898-2.469-3.756c-1.646-0.859-3.613-1.287-5.902-1.287c-2.29,0-4.257,0.429-5.902,1.287
	c-1.646,0.859-2.468,2.111-2.468,3.756v68.253C213.13,451.398,213.844,452.668,215.276,453.56z"/>
<path d="M272.582,449.966c0.572,1.788,1.878,3.166,3.917,4.131c2.039,0.966,4.381,1.448,7.029,1.448c2.646,0,4.99-0.482,7.029-1.448
	s3.344-2.343,3.917-4.131l19.961-65.462c0.142-0.572,0.214-0.966,0.214-1.18c0-1.86-1.164-3.47-3.487-4.829
	c-2.326-1.359-4.741-2.039-7.243-2.039c-3.077,0-4.901,1.038-5.474,3.112l-14.917,55.053l-15.024-55.053
	c-0.574-2.074-2.398-3.112-5.474-3.112c-2.505,0-4.919,0.68-7.243,2.039c-2.326,1.36-3.488,2.97-3.488,4.829
	c0,0.214,0.071,0.608,0.215,1.18L272.582,449.966z"/>
<path d="M323.019,453.56c1.431,0.897,3.147,1.342,5.151,1.342h38.205c1.645,0,2.898-0.714,3.756-2.146
	c0.858-1.431,1.287-3.113,1.287-5.045c0-2.074-0.447-3.826-1.341-5.257c-0.896-1.431-2.13-2.146-3.703-2.146h-28.761v-18.244h16.097
	c1.645,0,2.898-0.644,3.756-1.932s1.287-2.753,1.287-4.401c0-1.787-0.447-3.326-1.341-4.614c-0.896-1.289-2.13-1.932-3.703-1.932
	h-16.097V391.05h28.761c1.573,0,2.807-0.715,3.703-2.146c0.894-1.431,1.341-3.183,1.341-5.259c0-1.932-0.43-3.612-1.287-5.044
	c-0.859-1.43-2.111-2.146-3.756-2.146H328.17c-2.004,0-3.72,0.447-5.151,1.341c-1.432,0.896-2.146,2.165-2.146,3.81v68.146
	C320.873,451.398,321.587,452.668,323.019,453.56z"/>
<path d="M380.753,453.4c1.359,1.003,3.112,1.503,5.258,1.503h18.995c8.012,0,14.416-2.039,19.21-6.117
	c4.792-4.078,7.19-10.48,7.19-19.21v-27.795c0-8.727-2.398-15.131-7.19-19.209c-4.794-4.078-11.198-6.117-19.21-6.117h-18.995
	c-2.146,0-3.9,0.501-5.258,1.502c-1.36,1.003-2.039,2.183-2.039,3.542v68.36C378.715,451.218,379.394,452.4,380.753,453.4z
	 M395.456,391.05h9.55c6.439,0,9.659,3.578,9.659,10.731v27.795c0,7.156-3.219,10.733-9.659,10.733h-9.55V391.05z"/>
<circle cx="56.17" cy="133.96" r="7.917"/>
<path d="M87.572,141.873h103.663c4.373,0,7.917-3.544,7.917-7.917c0-4.372-3.544-7.917-7.917-7.917H87.572
	c-4.373,0-7.917,3.544-7.917,7.917C79.656,138.329,83.2,141.873,87.572,141.873z"/>
<path d="M471.619,118.123h-77.938c-4.373,0-7.917,3.544-7.917,7.917c0,4.372,3.544,7.917,7.917,7.917h77.938
	c4.373,0,7.917-3.544,7.917-7.917C479.536,121.668,475.992,118.123,471.619,118.123z"/>
<path d="M471.619,152.165h-77.938c-4.373,0-7.917,3.544-7.917,7.917c0,4.372,3.544,7.917,7.917,7.917h77.938
	c4.373,0,7.917-3.544,7.917-7.917C479.536,155.709,475.992,152.165,471.619,152.165z"/>
<path d="M471.619,186.206h-77.938c-4.373,0-7.917,3.544-7.917,7.917c0,4.372,3.544,7.917,7.917,7.917h77.938
	c4.373,0,7.917-3.544,7.917-7.917C479.536,189.751,475.992,186.206,471.619,186.206z"/>
<path d="M471.619,220.247h-77.938c-4.373,0-7.917,3.544-7.917,7.917c0,4.372,3.544,7.917,7.917,7.917h77.938
	c4.373,0,7.917-3.544,7.917-7.917C479.536,223.792,475.992,220.247,471.619,220.247z"/>
<path d="M471.619,254.289h-77.938c-4.373,0-7.917,3.544-7.917,7.917s3.544,7.917,7.917,7.917h77.938
	c4.373,0,7.917-3.544,7.917-7.917C479.536,257.833,475.992,254.289,471.619,254.289z"/>
<path d="M471.619,288.33h-77.938c-4.373,0-7.917,3.544-7.917,7.917s3.544,7.917,7.917,7.917h77.938c4.373,0,7.917-3.544,7.917-7.917
	S475.992,288.33,471.619,288.33z"/>
<circle cx="56.17" cy="167.21" r="7.917"/>
<path d="M87.572,175.123h54.402c4.373,0,7.917-3.544,7.917-7.917c0-4.372-3.544-7.917-7.917-7.917H87.572
	c-4.373,0-7.917,3.544-7.917,7.917C79.656,171.578,83.2,175.123,87.572,175.123z"/>
<circle cx="56.17" cy="265.37" r="7.917"/>
<path d="M169.472,257.456h-81.9c-4.373,0-7.917,3.544-7.917,7.917s3.544,7.917,7.917,7.917h81.9c4.373,0,7.917-3.544,7.917-7.917
	S173.845,257.456,169.472,257.456z"/>
<circle cx="56.17" cy="297.83" r="7.917"/>
<path d="M169.472,289.914h-81.9c-4.373,0-7.917,3.544-7.917,7.917s3.544,7.917,7.917,7.917h81.9c4.373,0,7.917-3.544,7.917-7.917
	S173.845,289.914,169.472,289.914z"/>
<path d="M224.639,257.456h-28.92c-4.373,0-7.917,3.544-7.917,7.917s3.544,7.917,7.917,7.917h28.92c4.373,0,7.917-3.544,7.917-7.917
	S229.011,257.456,224.639,257.456z"/>
<path d="M166.522,167.206c0,4.372,3.544,7.917,7.917,7.917h54.401c4.373,0,7.917-3.544,7.917-7.917c0-4.372-3.544-7.917-7.917-7.917
	h-54.401C170.066,159.29,166.522,162.834,166.522,167.206z"/>
<circle cx="56.17" cy="200.46" r="7.917"/>
<path d="M120.601,192.539c-4.373,0-7.917,3.544-7.917,7.917c0,4.372,3.544,7.917,7.917,7.917h75.117
	c4.373,0,7.917-3.544,7.917-7.917c0-4.372-3.544-7.917-7.917-7.917H120.601z"/>
<circle cx="56.17" cy="232.12" r="7.917"/>
<path d="M257.606,224.206H120.601c-4.373,0-7.917,3.544-7.917,7.917c0,4.372,3.544,7.917,7.917,7.917h137.005
	c4.373,0,7.917-3.544,7.917-7.917S261.979,224.206,257.606,224.206z"/>
<path d="M303.956,192.539h-75.117c-4.373,0-7.917,3.544-7.917,7.917c0,4.372,3.544,7.917,7.917,7.917h75.117
	c4.373,0,7.917-3.544,7.917-7.917C311.873,196.084,308.329,192.539,303.956,192.539z"/>
<g>
</g>
<g>
</g>
<g>
</g>
<g>
</g>
<g>
</g>
<g>
</g>
<g>
</g>
<g>
</g>
<g>
</g>
<g>
</g>
<g>
</g>
<g>
</g>
<g>
</g>
<g>
</g>
<g>
</g>
</svg>
