<?xml version="1.0" encoding="iso-8859-1"?>
<!-- Generator: Adobe Illustrator 19.0.0, SVG Export Plug-In . SVG Version: 6.00 Build 0)  -->
<svg version="1.1" id="Capa_1" xmlns="http://www.w3.org/2000/svg" xmlns:xlink="http://www.w3.org/1999/xlink" x="0px" y="0px"
	 viewBox="0 0 512 512" style="enable-background:new 0 0 512 512;" xml:space="preserve">
<path style="fill:#E9EBF2;" d="M420.634,417.585H37.693c-16.478,0-29.836-13.358-29.836-29.836V83.629
	c0-16.478,13.358-29.836,29.836-29.836h382.941c16.478,0,29.836,13.358,29.836,29.836v304.119
	C450.471,404.226,437.113,417.585,420.634,417.585z"/>
<path style="fill:#00AAF0;" d="M450.471,125.54V83.629c0-16.478-13.358-29.836-29.836-29.836H37.693
	c-16.478,0-29.836,13.358-29.836,29.836v41.912H448.45L450.471,125.54L450.471,125.54z"/>
<path style="fill:#C7CAD3;" d="M184.477,332.634l-13.741-1.732c-2.408-8.517-5.798-16.62-10.028-24.19l8.512-10.944
	c4.264-5.482,3.779-13.281-1.132-18.192l-21.833-21.832c-4.907-4.907-12.698-5.396-18.18-1.141l-10.97,8.514
	c-7.529-4.206-15.585-7.581-24.05-9.986l-1.719-13.76c-0.861-6.891-6.719-12.063-13.664-12.063H46.797
	c-6.939,0-12.794,5.163-13.663,12.048l-1.732,13.741c-8.278,2.341-16.16,5.615-23.546,9.68v59.366
	c12.216-16.757,31.985-27.656,54.31-27.656c37.102,0,67.179,30.077,67.179,67.179c0,23.33-11.897,43.875-29.95,55.918h62.08
	l-0.76-0.979c4.206-7.529,7.581-15.584,9.986-24.05l13.76-1.719c6.891-0.861,12.063-6.719,12.063-13.664v-30.876
	C196.525,339.357,191.362,333.502,184.477,332.634z"/>
<path style="fill:#B0B6C1;" d="M99.396,417.585h29.703c12.721-15.443,20.362-35.228,20.362-56.797
	c0-49.371-40.023-89.395-89.395-89.395c-19.495,0-37.517,6.259-52.209,16.851v33.899c12.216-16.757,31.985-27.656,54.31-27.656
	c37.102,0,67.179,30.077,67.179,67.179C129.346,384.996,117.449,405.541,99.396,417.585z"/>
<path style="fill:#DFE2EA;" d="M247.12,156.335c-21.667,0-39.231,17.564-39.231,39.231v222.018h212.745
	c16.478,0,29.836-13.358,29.836-29.836V156.335H247.12z"/>
<path style="fill:#FFDC64;" d="M470.169,458.208H263.138c-18.763,0-33.974-15.211-33.974-33.974V211.988
	c0-18.763,15.211-33.974,33.974-33.974h207.031c18.763,0,33.974,15.211,33.974,33.974v212.246
	C504.143,442.997,488.932,458.208,470.169,458.208z"/>
<path style="fill:#FFC850;" d="M470.169,178.014h-19.902v79.597c0,81.863-66.363,148.226-148.226,148.226h-72.877v18.397
	c0,18.763,15.211,33.974,33.974,33.974h207.031c18.764,0,33.974-15.211,33.974-33.974V211.988
	C504.143,193.224,488.932,178.014,470.169,178.014z"/>
<path style="fill:#86E56E;" d="M298.052,389.318h144.057c6.03,0,9.829-6.492,6.876-11.749l-72.757-129.516
	c-3.029-5.392-10.802-5.358-13.785,0.059l-71.299,129.516C288.25,382.884,292.052,389.318,298.052,389.318z"/>
<path style="fill:#5FCE6A;" d="M414.677,316.497l-27.426,27.427l-15.396-15.397c-3.069-3.067-8.043-3.067-11.112,0
	c-3.068,3.069-2.586,7.714,0.482,10.783l20.952,20.952c1.474,1.473,3.472,2.301,5.556,2.301s4.082-0.828,5.556-2.301l29.382-29.535
	L414.677,316.497z"/>
<path d="M156.405,98.029h131.37c4.34,0,7.857-3.518,7.857-7.857s-3.517-7.857-7.857-7.857h-131.37c-4.34,0-7.857,3.518-7.857,7.857
	S152.066,98.029,156.405,98.029z"/>
<circle cx="47.27" cy="90.17" r="9.44"/>
<circle cx="83.65" cy="90.17" r="9.44"/>
<circle cx="118" cy="90.17" r="9.44"/>
<circle cx="412.07" cy="90.17" r="9.44"/>
<path d="M470.169,170.157h-11.842V83.629c0-20.784-16.909-37.693-37.693-37.693H37.693C16.909,45.936,0,62.845,0,83.629v179.148
	v59.365v65.607c0,20.784,16.909,37.693,37.693,37.693h61.703h62.08h59.862c0.643,22.507,19.14,40.623,41.8,40.623h207.031
	c23.065,0,41.831-18.766,41.831-41.831V211.988C512,188.922,493.234,170.157,470.169,170.157z M37.693,61.649h382.941
	c12.119,0,21.979,9.86,21.979,21.98v34.054h-75.96c-4.34,0-7.857,3.518-7.857,7.857c0,4.339,3.517,7.857,7.857,7.857h75.96v36.759
	H263.138c-23.065,0-41.831,18.765-41.831,41.831v197.74h-48.446c1.428-3.282,2.725-6.617,3.852-10.005l8.723-1.09
	c10.8-1.35,18.946-10.576,18.946-21.46v-30.876c0-10.873-8.135-20.098-18.923-21.457l-8.703-1.097
	c-1.838-5.55-4.088-10.976-6.725-16.218l5.39-6.931c6.685-8.59,5.92-20.873-1.777-28.573l-21.832-21.831
	c-7.687-7.691-19.963-8.462-28.554-1.793l-6.959,5.401c-5.2-2.615-10.578-4.849-16.076-6.677l-1.09-8.723
	c-1.35-10.8-10.576-18.945-21.461-18.945H46.797c-10.872,0-20.097,8.134-21.458,18.923l-1.097,8.705
	c-2.877,0.954-5.721,2.026-8.528,3.201V133.397h307.902c4.34,0,7.857-3.518,7.857-7.857c0-4.339-3.517-7.857-7.857-7.857H15.714
	V83.629C15.714,71.509,25.574,61.649,37.693,61.649z M119.796,409.728c11.122-13.319,17.407-30.24,17.407-48.061
	c0-41.375-33.661-75.036-75.037-75.036c-4.34,0-7.857,3.517-7.857,7.857s3.517,7.857,7.857,7.857
	c32.711,0,59.323,26.611,59.323,59.322c0,19.111-9.165,36.897-24.601,48.061H37.693c-12.119,0-21.979-9.86-21.979-21.979v-62.918
	c5.584-7.029,12.71-12.768,20.773-16.653c3.91-1.882,5.553-6.578,3.67-10.488c-1.883-3.909-6.578-5.552-10.488-3.669
	c-4.958,2.388-9.64,5.325-13.954,8.734v-35.221c5.743-2.843,11.722-5.151,17.827-6.878c3.034-0.858,5.261-3.449,5.656-6.578
	l1.732-13.739c0.371-2.949,2.894-5.174,5.867-5.174h30.875c2.976,0,5.499,2.227,5.868,5.18l1.719,13.76
	c0.391,3.129,2.616,5.723,5.65,6.584c7.749,2.201,15.273,5.325,22.365,9.287c2.754,1.538,6.158,1.281,8.65-0.653l10.969-8.514
	c2.347-1.821,5.702-1.614,7.808,0.491l21.832,21.831c2.104,2.105,2.314,5.463,0.486,7.813l-8.513,10.944
	c-1.939,2.492-2.196,5.902-0.657,8.657c3.983,7.125,7.121,14.693,9.327,22.495c0.858,3.035,3.449,5.263,6.578,5.657l13.74,1.732
	c2.949,0.371,5.174,2.893,5.174,5.866v30.876c0,2.976-2.227,5.498-5.182,5.867l-13.759,1.72c-3.128,0.392-5.721,2.616-6.583,5.649
	c-1.89,6.651-4.458,13.135-7.651,19.319h-35.697V409.728z M496.286,424.233c0,14.401-11.716,26.117-26.117,26.117H263.138
	c-14.401,0-26.117-11.716-26.117-26.117V211.988c0-14.401,11.716-26.117,26.117-26.117h207.031
	c14.401,0,26.117,11.716,26.117,26.117V424.233z"/>
<path d="M423.079,315.398l25.429-25.43c3.068-3.069,3.068-8.043,0-11.112c-3.069-3.067-8.043-3.067-11.112,0l-22.311,22.312
	l-32-56.964c-2.787-4.96-8.041-8.032-13.726-8.032c-0.022,0-0.046,0-0.07,0.001c-5.711,0.025-10.968,3.148-13.722,8.151
	l-33.265,60.425c-2.092,3.802-0.708,8.579,3.094,10.672c3.804,2.094,8.58,0.707,10.672-3.094l33.316-60.426l34.145,60.824
	l-23.343,23.343l-15.396-15.397c-3.069-3.067-8.043-3.067-11.112,0c-3.068,3.069-3.068,8.043,0,11.112l20.952,20.952
	c1.474,1.473,3.472,2.301,5.556,2.301s4.082-0.828,5.556-2.301l25.777-25.777l30.597,54.503l-144.083-0.044l20.972-38.097
	c2.092-3.802,0.707-8.579-3.094-10.672c-3.802-2.094-8.579-0.707-10.672,3.094l-20.972,38.098
	c-2.712,4.928-2.623,10.76,0.239,15.603c2.861,4.841,7.928,7.732,13.552,7.732h144.057c5.652,0,10.732-2.913,13.587-7.79
	c2.855-4.879,2.907-10.735,0.139-15.664L423.079,315.398z"/>
<g>
</g>
<g>
</g>
<g>
</g>
<g>
</g>
<g>
</g>
<g>
</g>
<g>
</g>
<g>
</g>
<g>
</g>
<g>
</g>
<g>
</g>
<g>
</g>
<g>
</g>
<g>
</g>
<g>
</g>
</svg>
