<?xml version="1.0" encoding="iso-8859-1"?>
<!-- Generator: Adobe Illustrator 19.0.0, SVG Export Plug-In . SVG Version: 6.00 Build 0)  -->
<svg version="1.1" id="Capa_1" xmlns="http://www.w3.org/2000/svg" xmlns:xlink="http://www.w3.org/1999/xlink" x="0px" y="0px"
	 viewBox="0 0 512.001 512.001" style="enable-background:new 0 0 512.001 512.001;" xml:space="preserve">
<path style="fill:#53515E;" d="M479.715,388.819V95.837c0-18.54-14.741-33.569-32.925-33.569H65.21
	c-18.184,0-32.925,15.029-32.925,33.569v292.786"/>
<path style="fill:#474756;" d="M446.79,62.267h-33.694v70.86c0,109.753-88.998,198.713-198.752,198.664l-182.06-0.08v56.911
	l447.431,0.197V95.837C479.715,77.298,464.974,62.267,446.79,62.267z"/>
<path style="fill:#DFE2EA;" d="M299.895,386.453L299.895,386.453c-37.201,0-52.436,0-88.055,0l0,0H7.687v15.86
	c0,26.189,21.231,47.42,47.42,47.42h401.786c26.189,0,47.42-21.231,47.42-47.42v-15.86H299.895z"/>
<path style="fill:#C7CAD3;" d="M10.387,418.093c6.503,18.429,24.065,31.64,44.72,31.64h401.786c20.655,0,38.216-13.211,44.72-31.64
	H299.895c-37.201,0-52.435,0-88.055,0L10.387,418.093L10.387,418.093z"/>
<rect x="69.69" y="99.161" style="fill:#FFFFFF;" width="376.2" height="251.03"/>
<path style="fill:#E9EBF2;" d="M445.894,99.165h-32.797v33.963c0,109.754-88.998,198.713-198.752,198.665L69.69,331.728v18.471
	h376.204V99.165z"/>
<path style="fill:#DFE2EA;" d="M343.627,203.558l-9.643-1.216c-1.69-5.977-4.069-11.664-7.037-16.976l5.974-7.68
	c2.993-3.847,2.652-9.321-0.794-12.767l-15.322-15.322c-3.444-3.444-8.911-3.787-12.759-0.801l-7.699,5.975
	c-5.284-2.952-10.937-5.321-16.878-7.008l-1.207-9.656c-0.604-4.836-4.715-8.466-9.589-8.466h-21.668
	c-4.87,0-8.979,3.624-9.588,8.455l-1.216,9.643c-5.973,1.689-11.657,4.066-16.966,7.032l-7.699-5.975
	c-3.847-2.986-9.315-2.643-12.759,0.801l-15.322,15.322c-3.446,3.446-3.787,8.92-0.795,12.767l5.974,7.68
	c-2.969,5.312-5.347,10.999-7.038,16.976l-9.643,1.216c-4.832,0.609-8.455,4.718-8.455,9.588v21.668
	c0,4.874,3.629,8.985,8.466,9.589l9.656,1.207c1.688,5.941,4.056,11.594,7.008,16.878l-5.975,7.699
	c-2.986,3.847-2.642,9.315,0.801,12.759l15.322,15.322c3.447,3.446,8.92,3.787,12.767,0.794l7.68-5.974
	c5.312,2.969,10.999,5.347,16.976,7.037l1.216,9.643c0.609,4.832,4.718,8.455,9.588,8.455h21.668c4.874,0,8.985-3.63,9.589-8.466
	l1.207-9.657c5.945-1.689,11.602-4.059,16.888-7.014l7.68,5.974c3.847,2.993,9.321,2.652,12.767-0.794l15.322-15.322
	c3.444-3.444,3.787-8.911,0.801-12.759l-5.975-7.699c2.952-5.283,5.321-10.937,7.008-16.878l9.657-1.207
	c4.836-0.604,8.466-4.715,8.466-9.589v-21.668C352.083,208.275,348.459,204.167,343.627,203.558z M257.792,271.077
	c-26.038,0-47.146-21.108-47.146-47.146s21.108-47.146,47.146-47.146s47.146,21.108,47.146,47.146S283.829,271.077,257.792,271.077z
	"/>
<path style="fill:#C7CAD3;" d="M258.781,160.756c-35.782,0-64.788,29.007-64.788,64.788s29.007,64.788,64.788,64.788
	s64.788-29.007,64.788-64.788S294.563,160.756,258.781,160.756z M257.792,271.077c-26.038,0-47.146-21.108-47.146-47.146
	s21.108-47.146,47.146-47.146s47.146,21.108,47.146,47.146S283.829,271.077,257.792,271.077z"/>
<path d="M504.313,378.766H39.971V95.837c0-14.272,11.322-25.882,25.238-25.882H84.84c4.245,0,7.687-3.442,7.687-7.687
	s-3.442-7.687-7.687-7.687H65.21c-22.393,0-40.612,18.507-40.612,41.256v282.93H7.687c-4.245,0-7.687,3.441-7.687,7.687v15.86
	c0,30.386,24.721,55.107,55.107,55.107h401.787c30.386,0,55.107-24.721,55.107-55.107v-15.86
	C512,382.207,508.558,378.766,504.313,378.766z M496.626,402.313c0,21.909-17.824,39.733-39.733,39.733H55.107
	c-21.909,0-39.733-17.824-39.733-39.733v-8.173h481.253L496.626,402.313L496.626,402.313z"/>
<path d="M121.054,69.954H446.79c13.916,0,25.238,11.611,25.238,25.882v261.386c0,4.246,3.442,7.687,7.687,7.687
	c4.245,0,7.687-3.441,7.687-7.687V95.837c0-22.749-18.219-41.256-40.612-41.256H121.054c-4.245,0-7.687,3.442-7.687,7.687
	S116.809,69.954,121.054,69.954z"/>
<path d="M69.69,91.477c-4.245,0-7.687,3.442-7.687,7.687v251.035c0,4.246,3.442,7.687,7.687,7.687h376.204
	c4.245,0,7.687-3.441,7.687-7.687V99.165c0-4.245-3.442-7.687-7.687-7.687C445.894,91.478,69.69,91.478,69.69,91.477z
	 M438.207,342.512H77.376V106.852h360.831V342.512z"/>
<path d="M171.013,252.031l4.774,0.597c1.077,3.074,2.332,6.093,3.754,9.036l-2.957,3.809c-5.349,6.89-4.731,16.738,1.438,22.908
	l15.321,15.321c6.175,6.176,16.03,6.79,22.922,1.427l3.79-2.949c2.975,1.438,6.026,2.703,9.136,3.788l0.601,4.76
	c1.09,8.655,8.491,15.181,17.214,15.181h21.669c8.732,0,16.134-6.534,17.217-15.199l0.597-4.773
	c3.076-1.078,6.096-2.333,9.041-3.756l3.789,2.948c6.894,5.361,16.748,4.749,22.922-1.426l15.322-15.323
	c6.168-6.168,6.786-16.016,1.438-22.906l-2.958-3.81c1.422-2.943,2.676-5.961,3.753-9.036l4.773-0.597
	c8.666-1.082,15.201-8.483,15.201-17.217v-21.669c0-8.723-6.526-16.124-15.181-17.214l-4.76-0.6
	c-1.085-3.11-2.351-6.162-3.788-9.136l2.948-3.79c5.362-6.893,4.749-16.747-1.427-22.922l-15.321-15.321
	c-6.168-6.168-16.016-6.787-22.908-1.439l-3.81,2.957c-2.943-1.422-5.962-2.676-9.036-3.753l-0.597-4.774
	c-1.083-8.665-8.484-15.199-17.217-15.199h-21.669c-8.723,0-16.124,6.526-17.214,15.181l-0.6,4.76
	c-3.108,1.085-6.158,2.35-9.131,3.786l-3.81-2.958c-6.892-5.348-16.739-4.73-22.907,1.439l-15.322,15.322
	c-6.175,6.175-6.788,16.029-1.427,22.921l2.948,3.79c-1.437,2.975-2.703,6.026-3.788,9.136l-4.761,0.601
	c-8.654,1.091-15.18,8.491-15.18,17.214v21.669C155.814,243.549,162.348,250.949,171.013,252.031z M171.187,213.146
	c0-0.994,0.744-1.837,1.73-1.962l9.644-1.216c3.062-0.386,5.596-2.565,6.435-5.535c1.502-5.31,3.639-10.464,6.351-15.318
	c1.507-2.696,1.254-6.031-0.643-8.469l-5.974-7.681c-0.611-0.785-0.54-1.908,0.163-2.612l15.322-15.322
	c0.704-0.702,1.826-0.772,2.61-0.164l7.698,5.975c2.438,1.892,5.769,2.143,8.462,0.639c4.851-2.71,10.002-4.845,15.309-6.346
	c2.97-0.84,5.149-3.374,5.535-6.436l1.216-9.643c0.125-0.986,0.968-1.73,1.962-1.73h21.669c0.995,0,1.839,0.745,1.962,1.732
	l1.207,9.657c0.382,3.062,2.559,5.598,5.527,6.441c5.276,1.499,10.4,3.627,15.229,6.325c2.693,1.505,6.026,1.253,8.462-0.639
	l7.698-5.974c0.786-0.61,1.908-0.538,2.611,0.164l15.322,15.322c0.704,0.704,0.774,1.827,0.163,2.612l-5.974,7.68
	c-1.896,2.438-2.149,5.774-0.643,8.47c2.712,4.853,4.849,10.006,6.351,15.317c0.839,2.97,3.373,5.149,6.435,5.535l9.643,1.216
	c0.986,0.125,1.73,0.968,1.73,1.962v21.669c0,0.995-0.744,1.838-1.733,1.961l-9.657,1.207c-3.062,0.383-5.598,2.559-6.441,5.528
	c-1.498,5.276-3.626,10.4-6.324,15.229c-1.504,2.692-1.253,6.024,0.638,8.461l5.975,7.699c0.61,0.785,0.538,1.907-0.164,2.609
	l-15.322,15.323c-0.704,0.703-1.827,0.771-2.612,0.162l-7.68-5.974c-2.438-1.898-5.774-2.15-8.47-0.643
	c-4.833,2.701-9.959,4.83-15.238,6.33c-2.968,0.844-5.145,3.38-5.527,6.442l-1.207,9.656c-0.124,0.988-0.967,1.733-1.962,1.733
	h-21.669c-0.994,0-1.837-0.744-1.962-1.731l-1.216-9.643c-0.386-3.061-2.565-5.595-5.534-6.435
	c-5.31-1.502-10.464-3.639-15.319-6.352c-1.171-0.655-2.463-0.977-3.749-0.977c-1.675,0-3.341,0.546-4.721,1.619l-7.68,5.974
	c-0.786,0.612-1.907,0.541-2.612-0.163l-15.321-15.321c-0.703-0.704-0.774-1.826-0.164-2.61l5.975-7.699
	c1.891-2.437,2.142-5.769,0.638-8.461c-2.698-4.829-4.826-9.954-6.325-15.23c-0.843-2.968-3.379-5.144-6.441-5.527l-9.658-1.207
	c-0.987-0.123-1.731-0.966-1.731-1.961L171.187,213.146L171.187,213.146z"/>
<path d="M217.634,249.814c3.891-1.697,5.669-6.229,3.971-10.119c-2.171-4.977-3.272-10.281-3.272-15.764
	c0-21.758,17.701-39.459,39.459-39.459s39.459,17.701,39.459,39.459c0,21.757-17.701,39.459-39.459,39.459
	c-6.667,0-13.252-1.691-19.043-4.89c-3.716-2.052-8.392-0.704-10.445,3.013c-2.053,3.716-0.704,8.392,3.012,10.445
	c8.062,4.452,17.217,6.806,26.477,6.806c30.235,0,54.832-24.598,54.832-54.832s-24.598-54.832-54.832-54.832
	c-30.235,0-54.832,24.598-54.832,54.832c0,7.612,1.533,14.984,4.556,21.911C209.212,249.734,213.743,251.512,217.634,249.814z"/>
<g>
</g>
<g>
</g>
<g>
</g>
<g>
</g>
<g>
</g>
<g>
</g>
<g>
</g>
<g>
</g>
<g>
</g>
<g>
</g>
<g>
</g>
<g>
</g>
<g>
</g>
<g>
</g>
<g>
</g>
</svg>
