<?xml version="1.0" encoding="iso-8859-1"?>
<!-- Generator: Adobe Illustrator 19.0.0, SVG Export Plug-In . SVG Version: 6.00 Build 0)  -->
<svg version="1.1" id="Capa_1" xmlns="http://www.w3.org/2000/svg" xmlns:xlink="http://www.w3.org/1999/xlink" x="0px" y="0px"
	 viewBox="0 0 512.003 512.003" style="enable-background:new 0 0 512.003 512.003;" xml:space="preserve">
<path style="fill:#53515E;" d="M449.443,78.878c0-31.76-19.008-59.064-46.259-71.208v60.28c0,6.686-5.42,12.106-12.106,12.106
	h-39.147c-6.686,0-12.106-5.42-12.106-12.106V7.671c-27.252,12.143-46.259,39.447-46.259,71.208
	c0,31.506,18.705,58.626,45.607,70.912L328.515,388.36c-1.094,24.496,18.47,44.953,42.99,44.953l0,0
	c24.637,0,44.244-20.644,42.976-45.248l-12.245-237.55C429.995,138.589,449.443,111.008,449.443,78.878z"/>
<g>
	<path style="fill:#474756;" d="M420.202,68.855c6.686,0,12.106-5.42,12.106-12.106V30.156c-7.734-9.631-17.7-17.394-29.125-22.485
		v60.28c0,0.305-0.023,0.605-0.046,0.904H420.202z"/>
	<path style="fill:#474756;" d="M357.638,377.158l10.658-238.569c-26.902-12.286-45.607-39.406-45.607-70.912
		c0-18.446,6.42-35.38,17.134-48.723V7.671c-27.251,12.143-46.259,39.447-46.259,71.207c0,31.506,18.705,58.626,45.607,70.912
		l-10.658,238.569c-1.094,24.496,18.47,44.953,42.99,44.953l0,0c11.181,0,21.318-4.262,28.946-11.207
		C376.013,422.007,356.547,401.594,357.638,377.158z"/>
</g>
<path style="fill:#FFE1B3;" d="M189.407,473.087l10.044,9.682c14.349,13.833,33.504,21.563,53.435,21.563h183.041
	c14.208,0,25.725-11.518,25.725-25.725s-11.518-25.725-25.725-25.725h-22.27h22.27c14.208,0,25.725-11.518,25.725-25.725v-1.008
	c0-14.208-11.518-25.725-25.725-25.725h-22.27h22.27c14.208,0,25.725-11.518,25.725-25.725v-0.175
	c0-14.208-11.518-25.726-25.726-25.726h-22.27h22.27c14.208,0,25.725-11.518,25.725-25.725v-0.833
	c0-14.208-11.518-25.725-25.725-25.725H332.616c0-30.19,2.172-50.11,2.667-78.244c0.121-6.851-0.042-13.968-0.043-22.797
	c0-13.03-10.546-23.602-23.576-23.602l0,0c-1.394-0.028-10.003-0.059-16.671,6.905c-5.369,5.607-6.163,12.285-6.203,15.546
	c-0.018,1.442-0.275,2.866-0.728,4.235c-4.042,12.231-14.242,36.265-34.242,65.806c-10.175,15.029-26.182,27.928-31.956,32.625
	c-11.09,9.022-22.163,15.995-32.459,21.416l0,0L189.407,473.087L189.407,473.087z"/>
<path style="fill:#F0C891;" d="M453.594,459.916c-4.609,4.357-10.823,7.035-17.666,7.035H252.886
	c-19.931,0-39.086-7.73-53.435-21.563l-10.044-9.682v37.381l10.044,9.682c14.349,13.833,33.504,21.563,53.435,21.563h183.041
	c14.208,0,25.725-11.518,25.725-25.725C461.652,471.242,458.552,464.605,453.594,459.916z"/>
<path style="fill:#00AAF0;" d="M174.708,504.332H50.351v-207.82h124.356c8.118,0,14.699,6.581,14.699,14.699v178.42
	C189.407,497.751,182.826,504.332,174.708,504.332z"/>
<path style="fill:#0398E2;" d="M174.708,458.389H50.351v45.943h124.356c8.118,0,14.699-6.581,14.699-14.7V443.69
	C189.407,451.808,182.826,458.389,174.708,458.389z"/>
<circle style="fill:#6F4BEF;" cx="137.272" cy="343.741" r="10.741"/>
<path d="M469.322,323.07v-0.833c0-18.413-14.981-33.394-33.395-33.394h-95.291l6.196-138.71c0.139-3.124-1.631-6.02-4.476-7.319
	c-24.982-11.41-41.124-36.507-41.124-63.937c0-23.546,11.821-45.28,30.921-58.208v47.282c0,10.904,8.872,19.775,19.776,19.775
	h39.147c10.904,0,19.776-8.871,19.776-19.775V20.67c19.1,12.928,30.921,34.662,30.921,58.208c0,28.129-16.709,53.482-42.567,64.59
	c-2.949,1.267-4.797,4.236-4.632,7.442l5.394,104.645c0.218,4.229,3.818,7.491,8.054,7.264c4.23-0.218,7.482-3.824,7.264-8.054
	l-5.129-99.492c28.693-14.516,46.953-43.939,46.953-76.396c0-33.759-19.943-64.459-50.807-78.213
	c-2.372-1.057-5.118-0.842-7.298,0.573c-2.178,1.414-3.493,3.835-3.493,6.432v60.28c0,2.447-1.991,4.437-4.437,4.437h-39.147
	c-2.447,0-4.437-1.99-4.437-4.437V7.671c0-2.597-1.315-5.018-3.493-6.432c-2.179-1.415-4.926-1.63-7.298-0.573
	c-30.864,13.753-50.807,44.454-50.807,78.213c0,31.666,17.651,60.776,45.391,75.566l-0.264,16.507
	c-5.309-4.207-12.006-6.734-19.284-6.751c-3.211-0.062-13.883,0.497-22.283,9.271c-7.12,7.438-8.276,16.197-8.331,20.754
	c-0.007,0.615-0.122,1.262-0.341,1.924c-5.175,15.659-11.925,30.494-20.063,44.092c-2.175,3.634-0.992,8.344,2.642,10.519
	c3.635,2.176,8.344,0.992,10.519-2.642c8.715-14.564,15.938-30.429,21.465-47.154c0.713-2.155,1.088-4.358,1.115-6.55
	c0.028-2.3,0.594-6.701,4.073-10.335c4.059-4.239,9.362-4.543,10.791-4.543c0.144,0,0.236,0.003,0.34,0.003
	c8.771,0,15.907,7.147,15.907,15.933c0,3.42,0.024,6.584,0.047,9.576c0.037,4.813,0.069,8.969-0.004,13.086
	c-0.214,12.18-0.757,23.017-1.281,33.497c-0.682,13.62-1.387,27.703-1.387,44.882c0,4.236,3.434,7.669,7.669,7.669h103.31
	c9.956,0,18.056,8.1,18.056,18.056v0.833c0,9.956-8.1,18.057-18.056,18.057h-22.27c-4.236,0-7.669,3.433-7.669,7.669
	s3.434,7.669,7.669,7.669h22.27c9.956,0,18.056,8.101,18.056,18.057v0.175c0,9.956-8.1,18.056-18.056,18.056h-22.27
	c-4.236,0-7.669,3.433-7.669,7.669s3.434,7.669,7.669,7.669h22.27c9.956,0,18.056,8.101,18.056,18.057v1.008
	c0,9.956-8.1,18.057-18.056,18.057h-22.27c-4.236,0-7.669,3.433-7.669,7.669s3.434,7.669,7.669,7.669h22.27
	c9.956,0,18.056,8.101,18.056,18.057s-8.1,18.056-18.056,18.056H252.886c-18.039,0-35.126-6.895-48.113-19.415l-7.697-7.42v-146.86
	c10.478-5.824,20.429-12.547,29.63-20.032c5.563-4.526,10.946-9.406,16-14.506c2.981-3.009,2.959-7.864-0.049-10.846
	s-7.864-2.959-10.846,0.049c-4.67,4.712-9.644,9.222-14.785,13.405c-6.507,5.293-13.428,10.165-20.658,14.581
	c-2.49-9.636-11.257-16.776-21.66-16.776H50.351c-4.236,0-7.669,3.433-7.669,7.669v207.819c0,4.236,3.434,7.669,7.669,7.669h124.356
	c11.888,0,21.636-9.323,22.326-21.04c15.461,13.596,35.142,21.04,55.853,21.04h183.041c18.414,0,33.395-14.981,33.395-33.395
	c0-10.338-4.722-19.594-12.123-25.725c7.401-6.13,12.123-15.387,12.123-25.726v-1.008c0-10.338-4.722-19.595-12.123-25.726
	c7.401-6.13,12.123-15.386,12.123-25.725v-0.175c0-10.339-4.723-19.595-12.124-25.726
	C464.598,342.666,469.322,333.409,469.322,323.07z M174.708,496.663H58.021V304.182h116.687c3.877,0,7.03,3.154,7.03,7.03v7.086
	c0,0.011,0,0.022,0,0.033v171.301C181.738,493.509,178.584,496.663,174.708,496.663z"/>
<circle cx="137.272" cy="343.741" r="10.742"/>
<g>
</g>
<g>
</g>
<g>
</g>
<g>
</g>
<g>
</g>
<g>
</g>
<g>
</g>
<g>
</g>
<g>
</g>
<g>
</g>
<g>
</g>
<g>
</g>
<g>
</g>
<g>
</g>
<g>
</g>
</svg>
