<?xml version="1.0" encoding="iso-8859-1"?>
<!-- Generator: Adobe Illustrator 19.0.0, SVG Export Plug-In . SVG Version: 6.00 Build 0)  -->
<svg version="1.1" id="Capa_1" xmlns="http://www.w3.org/2000/svg" xmlns:xlink="http://www.w3.org/1999/xlink" x="0px" y="0px"
	 viewBox="0 0 512 512" style="enable-background:new 0 0 512 512;" xml:space="preserve">
<path style="fill:#E9EBF2;" d="M420.634,417.585H37.694c-16.478,0-29.836-13.358-29.836-29.836V83.63
	c0-16.478,13.358-29.836,29.836-29.836h382.94c16.478,0,29.836,13.358,29.836,29.836v304.119
	C450.47,404.227,437.112,417.585,420.634,417.585z"/>
<path style="fill:#00AAF0;" d="M450.47,125.541V83.63c0-16.478-13.358-29.836-29.836-29.836H37.694
	c-16.478,0-29.836,13.358-29.836,29.836v41.911H448.45C448.45,125.54,450.47,125.54,450.47,125.541z"/>
<path style="fill:#C7CAD3;" d="M184.477,332.635l-13.74-1.732c-2.408-8.517-5.798-16.62-10.028-24.189l8.512-10.944
	c4.264-5.482,3.779-13.281-1.132-18.192l-21.832-21.832c-4.907-4.907-12.698-5.396-18.18-1.141l-10.97,8.514
	c-7.529-4.206-15.585-7.581-24.05-9.986l-1.719-13.76c-0.861-6.891-6.719-12.063-13.664-12.063H46.797
	c-6.939,0-12.794,5.163-13.663,12.048l-1.732,13.74c-8.278,2.341-16.16,5.615-23.546,9.68v59.366
	c12.216-16.757,31.985-27.656,54.31-27.656c37.102,0,67.179,30.077,67.179,67.179c0,23.33-11.897,43.875-29.95,55.918h62.08
	l-0.76-0.979c4.206-7.529,7.581-15.584,9.986-24.05l13.76-1.719c6.891-0.861,12.063-6.719,12.063-13.664v-30.876
	C196.525,339.358,191.362,333.503,184.477,332.635z"/>
<path style="fill:#B0B6C1;" d="M99.396,417.585h29.703c12.721-15.443,20.362-35.227,20.362-56.797
	c0-49.371-40.023-89.394-89.395-89.394c-19.495,0-37.517,6.259-52.209,16.851v33.899c12.216-16.757,31.985-27.656,54.31-27.656
	c37.102,0,67.179,30.077,67.179,67.179C129.346,384.997,117.449,405.542,99.396,417.585z"/>
<path style="fill:#DFE2EA;" d="M247.12,156.336c-21.667,0-39.231,17.564-39.231,39.231v222.017h212.745
	c16.478,0,29.836-13.358,29.836-29.836V156.336H247.12z"/>
<path style="fill:#FFDC64;" d="M470.169,458.208H263.138c-18.763,0-33.974-15.211-33.974-33.974V211.989
	c0-18.763,15.211-33.974,33.974-33.974h207.031c18.763,0,33.974,15.211,33.974,33.974v212.245
	C504.143,442.998,488.932,458.208,470.169,458.208z"/>
<path style="fill:#FFC850;" d="M470.169,178.015h-19.902v79.597c0,81.863-66.363,148.226-148.226,148.226h-72.877v18.397
	c0,18.763,15.211,33.974,33.974,33.974h207.03c18.764,0,33.974-15.211,33.974-33.974V211.989
	C504.143,193.225,488.932,178.015,470.169,178.015z"/>
<path style="fill:#FF6B5C;" d="M298.338,389.005h144.057c6.03,0,9.829-6.492,6.876-11.749L376.514,247.74
	c-3.029-5.392-10.802-5.358-13.785,0.059L291.43,377.315C288.535,382.571,292.338,389.005,298.338,389.005z"/>
<path style="fill:#FF5450;" d="M449.27,377.256L376.513,247.74c-3.029-5.392-10.802-5.358-13.785,0.059l-3.643,6.619l9.071,16.148
	c26.435,47.058-7.573,105.17-61.548,105.17h-14.309l-0.87,1.58c-2.894,5.256,0.909,11.69,6.909,11.69h144.056
	C448.424,389.005,452.223,382.513,449.27,377.256z"/>
<path d="M156.405,98.03h131.369c4.34,0,7.857-3.518,7.857-7.857c0-4.339-3.517-7.857-7.857-7.857H156.405
	c-4.34,0-7.857,3.518-7.857,7.857S152.065,98.03,156.405,98.03z"/>
<circle cx="47.27" cy="90.171" r="9.44"/>
<circle cx="83.65" cy="90.171" r="9.44"/>
<circle cx="118" cy="90.171" r="9.44"/>
<circle cx="412.07" cy="90.171" r="9.44"/>
<path d="M470.169,170.158h-11.842V83.63c0-20.784-16.91-37.693-37.694-37.693H37.694C16.91,45.937,0,62.846,0,83.63v179.147v59.366
	v65.605c0,20.784,16.91,37.693,37.694,37.693h61.703h62.08h59.861c0.643,22.508,19.14,40.623,41.8,40.623h207.031
	c23.065,0,41.831-18.766,41.831-41.831V211.989C512,188.923,493.234,170.158,470.169,170.158z M15.714,387.749v-62.921
	c11.219-14.113,28.392-22.484,46.453-22.484c32.711,0,59.322,26.612,59.322,59.322c0,19.111-9.165,36.897-24.599,48.061H37.694
	C25.574,409.728,15.714,399.868,15.714,387.749z M119.797,409.728c11.121-13.319,17.406-30.241,17.406-48.061
	c0-41.375-33.661-75.036-75.036-75.036c-16.977,0-33.344,5.832-46.453,16.152v-35.247c5.745-2.845,11.724-5.152,17.827-6.878
	c3.035-0.858,5.263-3.448,5.657-6.578l1.732-13.741c0.371-2.949,2.893-5.173,5.866-5.173h30.876c2.976,0,5.499,2.227,5.867,5.181
	l1.72,13.76c0.392,3.129,2.616,5.722,5.65,6.584c7.748,2.201,15.273,5.325,22.364,9.287c2.754,1.539,6.159,1.282,8.65-0.652
	l10.97-8.514c2.347-1.821,5.704-1.612,7.807,0.49l21.833,21.833c2.104,2.104,2.313,5.463,0.486,7.812l-8.513,10.944
	c-1.939,2.492-2.196,5.901-0.657,8.657c3.983,7.127,7.12,14.695,9.326,22.494c0.858,3.035,3.449,5.263,6.578,5.657l13.739,1.732
	c2.95,0.372,5.175,2.895,5.175,5.868v30.876c0,2.976-2.227,5.499-5.18,5.868l-13.76,1.719c-3.129,0.391-5.723,2.616-6.584,5.65
	c-1.887,6.647-4.456,13.131-7.65,19.318h-35.696V409.728z M496.286,424.234c0,14.401-11.716,26.117-26.117,26.117H263.138
	c-14.401,0-26.117-11.716-26.117-26.117v-31.93c0-4.339-3.517-7.857-7.857-7.857s-7.857,3.518-7.857,7.857v17.423h-48.445
	c1.429-3.283,2.726-6.618,3.852-10.005l8.723-1.09c10.8-1.35,18.945-10.576,18.945-21.46v-30.876
	c0-10.873-8.135-20.098-18.922-21.458c0,0,0,0-0.001,0l-8.703-1.097c-1.837-5.549-4.087-10.975-6.724-16.218l5.391-6.931
	c6.684-8.592,5.918-20.876-1.778-28.572l-21.833-21.833c-7.689-7.688-19.965-8.458-28.553-1.792l-6.959,5.401
	c-5.2-2.615-10.578-4.849-16.077-6.677l-1.09-8.722c-1.348-10.801-10.574-18.947-21.46-18.947H46.797
	c-10.873,0-20.098,8.135-21.457,18.923l-1.097,8.705c-2.877,0.954-5.722,2.027-8.529,3.201V133.398h40.994
	c4.34,0,7.857-3.518,7.857-7.857c0-4.339-3.517-7.857-7.857-7.857H15.714V83.63c0-12.119,9.86-21.979,21.98-21.979h382.94
	c12.12,0,21.98,9.86,21.98,21.979v34.054H102.191c-4.34,0-7.857,3.518-7.857,7.857c0,4.339,3.517,7.857,7.857,7.857h340.422v36.759
	H263.138c-23.065,0-41.831,18.766-41.831,41.831v136.316c0,4.339,3.517,7.857,7.857,7.857s7.857-3.518,7.857-7.857V211.989
	c0-14.401,11.716-26.117,26.117-26.117h207.031c14.401,0,26.117,11.716,26.117,26.117V424.234z"/>
<path d="M383.084,244.206c-2.786-4.96-8.04-8.034-13.725-8.034c-0.023,0-0.045,0-0.068,0.001
	c-5.712,0.024-10.971,3.147-13.725,8.151l-71.3,129.516c-2.712,4.927-2.623,10.76,0.238,15.602c2.862,4.842,7.93,7.733,13.554,7.733
	h144.056c5.653,0,10.733-2.913,13.588-7.792c2.855-4.878,2.906-10.734,0.138-15.662L383.084,244.206z M298.059,381.461l-0.027-0.043
	L369.383,251.9l72.732,129.56H298.059z"/>
<path d="M370.859,350.169c-2.499,0-4.583,0.799-6.249,2.396c-1.665,1.597-2.498,3.533-2.498,5.805c0,2.202,0.852,4.119,2.557,5.751
	c1.704,1.634,3.768,2.45,6.19,2.45c2.111,0,3.931-0.815,5.464-2.45c1.53-1.632,2.298-3.549,2.298-5.751
	c0-2.2-0.767-4.117-2.298-5.752C374.789,350.986,372.969,350.169,370.859,350.169z"/>
<path d="M362.432,294.572c0,4.26,0.248,11.539,0.745,21.834c0.496,10.296,0.746,17.539,0.746,21.727
	c0,3.125,2.273,4.687,6.822,4.687c1.617,0,3.14-0.408,4.567-1.225c1.424-0.815,2.138-1.97,2.138-3.461
	c0-4.188,0.106-11.431,0.319-21.727c0.213-10.294,0.319-17.574,0.319-21.834c0-1.987-0.697-3.568-2.091-4.74
	c-1.394-1.171-3.146-1.757-5.252-1.757c-2.43,0-4.424,0.586-5.98,1.757C363.208,291.004,362.432,292.585,362.432,294.572z"/>
<g>
</g>
<g>
</g>
<g>
</g>
<g>
</g>
<g>
</g>
<g>
</g>
<g>
</g>
<g>
</g>
<g>
</g>
<g>
</g>
<g>
</g>
<g>
</g>
<g>
</g>
<g>
</g>
<g>
</g>
</svg>
