<?xml version="1.0" encoding="iso-8859-1"?>
<!-- Generator: Adobe Illustrator 19.0.0, SVG Export Plug-In . SVG Version: 6.00 Build 0)  -->
<svg version="1.1" id="Capa_1" xmlns="http://www.w3.org/2000/svg" xmlns:xlink="http://www.w3.org/1999/xlink" x="0px" y="0px"
	 viewBox="0 0 512 512" style="enable-background:new 0 0 512 512;" xml:space="preserve">
<path style="fill:#E9EBF2;" d="M420.634,417.585H37.694c-16.478,0-29.836-13.358-29.836-29.836V83.63
	c0-16.478,13.358-29.836,29.836-29.836h382.94c16.478,0,29.836,13.358,29.836,29.836v304.119
	C450.47,404.227,437.112,417.585,420.634,417.585z"/>
<path style="fill:#00AAF0;" d="M450.47,125.541V83.63c0-16.478-13.358-29.836-29.836-29.836H37.694
	c-16.478,0-29.836,13.358-29.836,29.836v41.911H448.45C448.45,125.54,450.47,125.54,450.47,125.541z"/>
<path style="fill:#C7CAD3;" d="M184.477,332.635l-13.741-1.732c-2.408-8.517-5.798-16.62-10.028-24.189l8.512-10.944
	c4.264-5.482,3.779-13.281-1.132-18.192l-21.832-21.832c-4.907-4.907-12.698-5.396-18.18-1.141l-10.97,8.514
	c-7.529-4.206-15.585-7.581-24.05-9.986l-1.719-13.76c-0.861-6.891-6.719-12.063-13.664-12.063H46.797
	c-6.939,0-12.794,5.163-13.663,12.048l-1.732,13.741c-8.278,2.341-16.16,5.615-23.546,9.68v59.366
	c12.216-16.757,31.985-27.656,54.31-27.656c37.102,0,67.179,30.077,67.179,67.179c0,23.33-11.897,43.875-29.95,55.918h62.08
	l-0.76-0.979c4.206-7.529,7.581-15.584,9.986-24.05l13.76-1.719c6.891-0.861,12.063-6.719,12.063-13.664v-30.876
	C196.525,339.358,191.362,333.503,184.477,332.635z"/>
<path style="fill:#B0B6C1;" d="M99.396,417.585h29.703c12.721-15.443,20.362-35.227,20.362-56.797
	c0-49.371-40.023-89.394-89.395-89.394c-19.495,0-37.517,6.259-52.209,16.851v33.899c12.216-16.757,31.985-27.656,54.31-27.656
	c37.102,0,67.179,30.077,67.179,67.179C129.346,384.997,117.449,405.542,99.396,417.585z"/>
<path style="fill:#DFE2EA;" d="M247.12,156.336c-21.667,0-39.231,17.564-39.231,39.231v222.017h212.745
	c16.478,0,29.836-13.358,29.836-29.836V156.336H247.12z"/>
<path style="fill:#FFDC64;" d="M470.169,458.208H263.138c-18.763,0-33.974-15.211-33.974-33.974V211.989
	c0-18.763,15.211-33.974,33.974-33.974h207.031c18.763,0,33.974,15.211,33.974,33.974v212.245
	C504.143,442.998,488.932,458.208,470.169,458.208z"/>
<path style="fill:#FFC850;" d="M470.169,178.015h-19.902v79.597c0,81.863-66.363,148.226-148.226,148.226h-72.877v18.397
	c0,18.763,15.211,33.974,33.974,33.974h207.03c18.764,0,33.974-15.211,33.974-33.974V211.989
	C504.143,193.225,488.932,178.015,470.169,178.015z"/>
<circle style="fill:#53515E;" cx="370.96" cy="304.991" r="44.04"/>
<path style="fill:#474756;" d="M370.965,260.947c-3.213,0-6.343,0.353-9.361,1.007c19.826,4.293,34.683,21.926,34.683,43.037
	s-14.857,38.744-34.683,43.036c3.018,0.653,6.147,1.007,9.361,1.007c24.325,0,44.043-19.719,44.043-44.043
	C415.008,280.666,395.289,260.947,370.965,260.947z"/>
<path style="fill:#FF6B5C;" d="M319.189,300.561c-1.554,7.421-2.393,15.305-2.393,23.479c0,43.882,24.118,79.456,53.868,79.456
	s53.868-35.573,53.868-79.456c0-8.174-0.839-16.058-2.393-23.479H319.189z"/>
<g>
	<path style="fill:#D85750;" d="M422.139,300.561h-18.42c1.555,7.421,2.393,15.305,2.393,23.479
		c0,39.248-19.298,71.827-44.658,78.275c2.994,0.761,6.068,1.181,9.21,1.181c29.75,0,53.869-35.573,53.869-79.456
		C424.532,315.866,423.694,307.982,422.139,300.561z"/>
	<path style="fill:#D85750;" d="M370.965,320.06c-4.34,0-7.857,3.518-7.857,7.857v74.784c2.47,0.512,4.99,0.794,7.556,0.794
		c2.773,0,5.497-0.311,8.158-0.907v-74.671C378.822,323.578,375.304,320.06,370.965,320.06z"/>
</g>
<g>
	<circle style="fill:#FFFFFF;" cx="354.24" cy="286.091" r="6.198"/>
	<circle style="fill:#FFFFFF;" cx="386.26" cy="286.091" r="6.198"/>
</g>
<path d="M7.857,199.547c4.34,0,7.857-3.518,7.857-7.857v-58.292h426.9v14.817c0,4.339,3.517,7.857,7.857,7.857
	s7.857-3.518,7.857-7.857V83.63c0-20.784-16.91-37.693-37.694-37.693H37.694C16.91,45.937,0,62.846,0,83.63v108.06
	C0,196.03,3.517,199.547,7.857,199.547z M37.694,61.651h382.94c12.12,0,21.98,9.86,21.98,21.979v34.054h-426.9V83.63
	C15.714,71.511,25.574,61.651,37.694,61.651z"/>
<path d="M156.405,98.03h131.369c4.34,0,7.857-3.518,7.857-7.857c0-4.339-3.517-7.857-7.857-7.857H156.405
	c-4.34,0-7.857,3.518-7.857,7.857S152.065,98.03,156.405,98.03z"/>
<circle cx="47.27" cy="90.171" r="9.44"/>
<circle cx="83.65" cy="90.171" r="9.44"/>
<circle cx="118" cy="90.171" r="9.44"/>
<circle cx="412.07" cy="90.171" r="9.44"/>
<path d="M470.169,170.158H263.138c-23.065,0-41.831,18.766-41.831,41.831v23.701c0,4.339,3.517,7.857,7.857,7.857
	s7.857-3.518,7.857-7.857v-23.701c0-14.401,11.716-26.117,26.117-26.117h207.031c14.401,0,26.117,11.716,26.117,26.117v212.246
	c0,14.401-11.716,26.117-26.117,26.117H263.138c-14.401,0-26.117-11.716-26.117-26.117v-151.18c0-4.339-3.517-7.857-7.857-7.857
	s-7.857,3.518-7.857,7.857v136.674h-48.445c1.429-3.283,2.726-6.618,3.852-10.005l8.723-1.09c10.8-1.35,18.945-10.576,18.945-21.46
	v-30.876c0-10.873-8.135-20.098-18.922-21.458c0,0,0,0-0.001,0l-8.703-1.097c-1.837-5.549-4.087-10.975-6.724-16.218l5.391-6.931
	c6.684-8.592,5.918-20.876-1.778-28.572l-21.833-21.833c-7.688-7.688-19.966-8.458-28.553-1.792l-6.959,5.401
	c-5.2-2.615-10.578-4.849-16.077-6.677l-1.09-8.722c-1.348-10.801-10.574-18.947-21.46-18.947H46.797
	c-10.873,0-20.098,8.135-21.457,18.923l-1.097,8.705c-2.877,0.954-5.722,2.027-8.529,3.201V235.69c0-4.339-3.517-7.857-7.857-7.857
	S0,231.35,0,235.689v27.088v59.366v65.605c0,20.784,16.91,37.693,37.694,37.693h61.703h62.08h59.861
	c0.643,22.508,19.14,40.623,41.8,40.623h207.031c23.065,0,41.831-18.766,41.831-41.831V211.989
	C512,188.923,493.234,170.158,470.169,170.158z M15.714,387.749v-62.921c11.219-14.113,28.392-22.484,46.453-22.484
	c32.711,0,59.322,26.612,59.322,59.322c0,19.111-9.165,36.897-24.599,48.061H37.694C25.574,409.728,15.714,399.868,15.714,387.749z
	 M119.797,409.728c11.121-13.319,17.406-30.241,17.406-48.061c0-41.375-33.661-75.036-75.036-75.036
	c-16.977,0-33.344,5.832-46.453,16.152v-35.247c5.745-2.845,11.724-5.152,17.827-6.878c3.035-0.858,5.263-3.448,5.657-6.578
	l1.732-13.741c0.371-2.949,2.893-5.173,5.866-5.173h30.876c2.976,0,5.499,2.227,5.867,5.181l1.72,13.76
	c0.392,3.129,2.616,5.722,5.65,6.584c7.748,2.201,15.273,5.325,22.364,9.287c2.754,1.539,6.158,1.282,8.65-0.652l10.97-8.514
	c2.347-1.821,5.704-1.612,7.807,0.49l21.833,21.833c2.104,2.104,2.313,5.463,0.486,7.812l-8.513,10.944
	c-1.939,2.492-2.196,5.901-0.657,8.657c3.983,7.127,7.12,14.695,9.326,22.494c0.858,3.035,3.449,5.263,6.578,5.657l13.739,1.732
	c2.95,0.372,5.175,2.895,5.175,5.868v30.876c0,2.976-2.227,5.499-5.18,5.868l-13.76,1.719c-3.129,0.391-5.723,2.616-6.584,5.65
	c-1.887,6.647-4.456,13.131-7.65,19.318h-35.696V409.728z"/>
<path d="M264.186,339.305c0,4.339,3.517,7.857,7.857,7.857h38.674c1.175,6.533,2.87,12.831,5.066,18.781
	c-18.256,4.859-31.748,21.527-31.748,41.292v7.046c0,4.339,3.517,7.857,7.857,7.857s7.857-3.518,7.857-7.857v-7.046
	c0-13.477,9.921-24.68,22.843-26.692c1.055,1.833,2.154,3.624,3.321,5.345c11.681,17.231,27.519,26.72,44.593,26.72
	c0.06,0,0.119-0.006,0.179-0.006c0.041,0,0.082,0.006,0.123,0.006c0.226,0,0.447-0.015,0.668-0.034
	c16.703-0.353,32.165-9.783,43.624-26.686c1.183-1.745,2.296-3.56,3.364-5.42c13.193,1.773,23.401,13.096,23.401,26.766v7.046
	c0,4.339,3.517,7.857,7.857,7.857s7.857-3.518,7.857-7.857v-7.046c0-19.962-13.762-36.766-32.296-41.435
	c2.171-5.907,3.845-12.158,5.011-18.638h38.673c4.34,0,7.857-3.518,7.857-7.857s-3.517-7.857-7.857-7.857h-36.903
	c0.099-2.04,0.166-4.088,0.166-6.152c0-3.972-0.194-7.921-0.565-11.828c20.097-3.472,35.437-21.02,35.437-42.093v-7.045
	c0-4.339-3.517-7.857-7.857-7.857s-7.857,3.518-7.857,7.857v7.045c0,13.372-9.768,24.499-22.542,26.638
	c-1.356-2.446-3.952-4.052-6.867-4.052h-0.735c-2.995-12.454-10.396-23.021-20.412-30.104v-5.55c0-3.388,2.756-6.144,6.144-6.144
	c12.052,0,21.858-9.806,21.858-21.858v-10.087c0-4.339-3.517-7.857-7.857-7.857s-7.857,3.518-7.857,7.857v10.087
	c0,3.388-2.756,6.144-6.144,6.144c-11.394,0-20.769,8.767-21.76,19.909c-4.58-1.311-9.416-2.011-14.411-2.011
	c-4.821,0-9.49,0.661-13.928,1.884c-1.05-11.082-10.401-19.782-21.753-19.782c-3.388,0-6.144-2.757-6.144-6.144v-10.087
	c0-4.339-3.517-7.857-7.857-7.857s-7.857,3.518-7.857,7.857v10.087c0,12.052,9.806,21.858,21.858,21.858
	c3.388,0,6.144,2.757,6.144,6.144v5.199c-10.267,7.082-17.858,17.797-20.901,30.455h-1.337c-2.805,0-5.319,1.484-6.712,3.775
	c-12.073-2.695-21.127-13.487-21.127-26.361v-7.045c0-4.339-3.517-7.857-7.857-7.857s-7.857,3.518-7.857,7.857v7.045
	c0,20.532,14.558,37.723,33.893,41.805c-0.389,4-0.591,8.047-0.591,12.117c0,2.064,0.067,4.112,0.166,6.152h-36.904
	C267.704,331.448,264.186,334.966,264.186,339.305z M402.094,377.071c-6.626,9.773-14.745,16.175-23.43,18.655v-66.552
	c0-4.339-3.517-7.857-7.857-7.857s-7.857,3.518-7.857,7.857v66.712c-8.911-2.351-17.253-8.817-24.032-18.815
	c-9.301-13.72-14.424-32.107-14.424-51.775c0-5.282,0.375-10.513,1.12-15.622h89.783c0.745,5.109,1.12,10.339,1.12,15.622
	C416.518,344.964,411.395,363.351,402.094,377.071z M352.451,275.025c0.386-0.181,0.758-0.386,1.106-0.624
	c5.137-2.772,11.015-4.341,17.25-4.341c15.629,0,29.028,9.817,34.061,23.9h-68.122C339.624,285.904,345.243,279.25,352.451,275.025z
	"/>
<g>
</g>
<g>
</g>
<g>
</g>
<g>
</g>
<g>
</g>
<g>
</g>
<g>
</g>
<g>
</g>
<g>
</g>
<g>
</g>
<g>
</g>
<g>
</g>
<g>
</g>
<g>
</g>
<g>
</g>
</svg>
