<?xml version="1.0" encoding="iso-8859-1"?>
<!-- Generator: Adobe Illustrator 19.0.0, SVG Export Plug-In . SVG Version: 6.00 Build 0)  -->
<svg version="1.1" id="Capa_1" xmlns="http://www.w3.org/2000/svg" xmlns:xlink="http://www.w3.org/1999/xlink" x="0px" y="0px"
	 viewBox="0 0 512 512" style="enable-background:new 0 0 512 512;" xml:space="preserve">
<circle style="fill:#FFDC64;" cx="256" cy="256" r="110.96"/>
<path style="fill:#DFE2EA;" d="M493.514,226.945l-35.91-3.25c-2.138-13.449-5.588-26.459-10.217-38.897l29.628-20.501
	c5.096-3.526,6.661-10.357,3.609-15.75l-16.871-29.808c-3.052-5.393-9.714-7.568-15.36-5.014l-32.875,14.869
	c-7.99-9.991-16.894-19.216-26.594-27.545l16.013-32.332c2.75-5.553,0.811-12.287-4.472-15.527l-29.198-17.906
	c-5.283-3.239-12.164-1.915-15.867,3.054l-21.531,28.895c-14.431-5.959-29.691-10.314-45.564-12.837l-3.25-35.91
	c-0.559-6.172-5.732-10.898-11.929-10.898h-34.252c-6.197,0-11.37,4.727-11.929,10.898l-3.25,35.91
	c-13.449,2.138-26.459,5.588-38.897,10.217l-20.501-29.628c-3.526-5.096-10.357-6.661-15.749-3.609L118.74,48.247
	c-5.393,3.053-7.568,9.714-5.014,15.36l14.869,32.876c-9.991,7.99-19.216,16.894-27.545,26.594l-32.333-16.013
	c-5.553-2.75-12.287-0.811-15.527,4.472l-17.906,29.198c-3.239,5.283-1.915,12.164,3.054,15.866l28.895,21.531
	c-5.959,14.431-10.314,29.691-12.838,45.564l-35.91,3.25c-6.172,0.559-10.898,5.732-10.898,11.929v34.252
	c0,6.197,4.726,11.371,10.898,11.929l35.91,3.25c2.139,13.449,5.588,26.459,10.217,38.897l-29.628,20.501
	c-5.096,3.526-6.661,10.357-3.609,15.75l16.871,29.809c3.052,5.393,9.714,7.568,15.36,5.014l32.875-14.869
	c7.99,9.991,16.894,19.216,26.594,27.545l-16.013,32.333c-2.75,5.553-0.811,12.287,4.472,15.527l29.198,17.906
	c5.283,3.24,12.164,1.915,15.867-3.054l21.531-28.895c14.431,5.96,29.691,10.314,45.564,12.837l3.25,35.91
	c0.559,6.172,5.732,10.898,11.929,10.898h34.252c6.197,0,11.37-4.726,11.929-10.898l3.25-35.91
	c13.449-2.138,26.459-5.588,38.897-10.217l20.501,29.629c3.526,5.096,10.357,6.661,15.749,3.609l29.809-16.871
	c5.393-3.052,7.568-9.714,5.014-15.36l-14.869-32.875c9.991-7.99,19.216-16.894,27.545-26.594l32.333,16.013
	c5.553,2.75,12.287,0.811,15.527-4.472l17.906-29.198c3.239-5.283,1.915-12.164-3.054-15.867l-28.895-21.531
	c5.96-14.431,10.314-29.691,12.837-45.564l35.91-3.25c6.172-0.559,10.898-5.732,10.898-11.929v-34.252
	C504.412,232.677,499.685,227.504,493.514,226.945z M257.603,400.684c-79.907,0-144.684-64.777-144.684-144.684
	s64.777-144.684,144.684-144.684S402.287,176.093,402.287,256S337.51,400.684,257.603,400.684z"/>
<path style="fill:#C7CAD3;" d="M256,82.416c-95.868,0-173.584,77.716-173.584,173.584S160.132,429.584,256,429.584
	S429.584,351.868,429.584,256S351.868,82.416,256,82.416z M257.603,400.684c-79.907,0-144.684-64.777-144.684-144.684
	s64.777-144.684,144.684-144.684S402.287,176.093,402.287,256S337.51,400.684,257.603,400.684z"/>
<path d="M374.547,256c0-33.304-14.134-65.268-38.779-87.696c-3.1-2.821-7.9-2.596-10.719,0.505c-2.821,3.1-2.595,7.899,0.505,10.719
	c21.49,19.559,33.816,47.432,33.816,76.472c0,56.998-46.372,103.37-103.37,103.37S152.63,312.998,152.63,256
	S199.002,152.63,256,152.63c13.958,0,27.495,2.732,40.234,8.12c3.858,1.632,8.313-0.173,9.945-4.033
	c1.633-3.86-0.173-8.313-4.032-9.945c-14.62-6.183-30.146-9.319-46.146-9.319c-65.367,0-118.547,53.179-118.547,118.546
	S190.633,374.546,256,374.546S374.547,321.367,374.547,256z"/>
<path d="M257.603,103.728c-83.964,0-152.272,68.309-152.272,152.272c0,61.335,36.504,116.408,92.998,140.303
	c3.86,1.632,8.312-0.173,9.945-4.033c1.633-3.859-0.173-8.312-4.032-9.945c-50.866-21.515-83.734-71.1-83.734-126.325
	c0-75.595,61.501-137.096,137.096-137.096S394.698,180.405,394.698,256s-61.501,137.096-137.096,137.096
	c-6.278,0-12.592-0.428-18.765-1.273c-4.148-0.569-7.979,2.337-8.547,6.49c-0.568,4.152,2.338,7.979,6.49,8.547
	c6.853,0.938,13.859,1.413,20.822,1.413c83.964,0,152.272-68.309,152.272-152.272S341.566,103.728,257.603,103.728z"/>
<path d="M494.198,219.388c-0.001,0-0.001,0-0.001,0l-30.113-2.726c-1.845-9.809-4.39-19.499-7.599-28.931l24.848-17.192
	c8.381-5.798,10.915-16.859,5.896-25.728l-16.871-29.808c-5.021-8.87-15.807-12.391-25.092-8.19l-27.582,12.474
	c-6.013-7.103-12.503-13.826-19.382-20.076l13.435-27.126c4.522-9.131,1.382-20.035-7.305-25.363l-29.198-17.906
	c-8.687-5.327-19.83-3.181-25.918,4.989l-18.057,24.232c-11.638-4.426-23.677-7.818-35.92-10.121l-2.726-30.113
	C291.695,7.654,283.317,0,273.126,0h-34.252c-10.191,0-18.569,7.654-19.487,17.802l-2.726,30.114
	c-9.808,1.845-19.497,4.39-28.93,7.599l-17.193-24.848c-5.8-8.38-16.859-10.914-25.727-5.894l-29.809,16.871
	c-8.869,5.02-12.389,15.807-8.19,25.091l12.475,27.582c-7.104,6.014-13.827,12.504-20.075,19.382l-27.126-13.435
	c-9.132-4.521-20.036-1.382-25.364,7.305l-17.906,29.198c-5.329,8.688-3.184,19.83,4.989,25.918l24.232,18.056
	c-4.427,11.64-7.818,23.677-10.122,35.921l-30.113,2.726C7.654,220.306,0,228.684,0,238.874v34.251
	c0,10.19,7.654,18.568,17.803,19.487l30.112,2.726c1.846,9.808,4.392,19.499,7.6,28.931l-24.848,17.192
	c-8.381,5.798-10.915,16.859-5.896,25.728l16.871,29.808c5.019,8.868,15.805,12.39,25.092,8.19l27.582-12.475
	c6.013,7.104,12.504,13.827,19.382,20.076l-13.435,27.126c-4.522,9.131-1.382,20.035,7.305,25.363l29.198,17.905
	c8.689,5.329,19.83,3.184,25.918-4.988l18.057-24.232c11.638,4.426,23.677,7.818,35.92,10.121l2.726,30.113
	c0.918,10.149,9.296,17.803,19.487,17.803h34.252c10.191,0,18.569-7.654,19.487-17.802l2.726-30.113
	c9.809-1.845,19.497-4.39,28.93-7.599l17.193,24.848c5.799,8.38,16.86,10.913,25.727,5.894l29.809-16.871
	c8.869-5.02,12.389-15.807,8.19-25.092l-12.475-27.581c7.103-6.013,13.827-12.504,20.075-19.382l27.126,13.435
	c9.131,4.52,20.035,1.382,25.364-7.305l17.906-29.198c5.328-8.688,3.184-19.83-4.989-25.919l-24.232-18.056
	c4.427-11.641,7.818-23.678,10.121-35.921l30.114-2.726c10.148-0.918,17.802-9.296,17.802-19.487v-34.251
	C512,228.684,504.346,220.306,494.198,219.388z M496.823,273.126c0,2.286-1.717,4.166-3.994,4.372l-35.91,3.25
	c-3.46,0.313-6.265,2.935-6.811,6.366c-2.39,15.036-6.548,29.793-12.357,43.859c-1.325,3.209-0.303,6.907,2.48,8.981l28.896,21.53
	c1.833,1.366,2.314,3.866,1.118,5.815l-17.906,29.198c-1.196,1.95-3.642,2.654-5.69,1.639l-32.332-16.014
	c-3.108-1.54-6.866-0.775-9.126,1.857c-7.994,9.311-16.92,17.928-26.527,25.611c-2.708,2.166-3.603,5.893-2.175,9.054l14.87,32.876
	c0.942,2.083,0.152,4.503-1.838,5.628l-29.809,16.871c-1.99,1.126-4.471,0.557-5.771-1.323l-20.5-29.629
	c-1.975-2.854-5.633-4.007-8.888-2.794c-12.082,4.497-24.679,7.805-37.441,9.834c-3.431,0.546-6.053,3.351-6.366,6.81l-3.251,35.91
	c-0.206,2.277-2.085,3.994-4.371,3.994h-34.252c-2.286,0-4.166-1.717-4.371-3.994l-3.251-35.91c-0.313-3.459-2.936-6.264-6.366-6.81
	c-15.038-2.392-29.795-6.549-43.858-12.357c-0.941-0.388-1.923-0.575-2.894-0.575c-2.344,0-4.621,1.087-6.087,3.055l-21.532,28.896
	c-1.366,1.833-3.866,2.314-5.814,1.118l-29.198-17.905c-1.948-1.196-2.653-3.642-1.639-5.691l16.014-32.333
	c1.539-3.108,0.776-6.866-1.857-9.125c-9.311-7.994-17.927-16.919-25.611-26.527c-2.167-2.709-5.894-3.605-9.054-2.175
	l-32.877,14.87c-2.081,0.94-4.504,0.151-5.628-1.838L37.98,359.714c-1.126-1.99-0.557-4.471,1.323-5.772l29.628-20.501
	c2.854-1.975,4.005-5.634,2.794-8.887c-4.496-12.08-7.805-24.676-9.835-37.441c-0.546-3.431-3.352-6.052-6.811-6.365l-35.908-3.25
	c-2.277-0.207-3.995-2.086-3.995-4.372v-34.251c0-2.286,1.717-4.166,3.994-4.372l35.909-3.25c3.46-0.313,6.264-2.935,6.811-6.365
	c2.391-15.038,6.549-29.794,12.358-43.86c1.325-3.209,0.303-6.907-2.48-8.981l-28.896-21.531c-1.833-1.366-2.314-3.865-1.118-5.814
	l17.906-29.198c1.196-1.949,3.644-2.652,5.69-1.639l32.333,16.013c3.105,1.54,6.864,0.775,9.125-1.857
	c7.994-9.311,16.919-17.927,26.527-25.611c2.708-2.166,3.603-5.893,2.175-9.054L120.64,60.48c-0.942-2.083-0.152-4.502,1.838-5.628
	l29.809-16.871c1.989-1.126,4.471-0.556,5.771,1.323l20.5,29.629c1.975,2.854,5.632,4.006,8.888,2.794
	c12.082-4.497,24.679-7.805,37.441-9.834c3.431-0.546,6.053-3.351,6.366-6.81l3.251-35.911c0.206-2.276,2.085-3.993,4.371-3.993
	h34.252c2.286,0,4.166,1.717,4.371,3.994l3.251,35.91c0.313,3.459,2.936,6.264,6.366,6.81c15.038,2.391,29.795,6.548,43.858,12.357
	c3.209,1.324,6.907,0.303,8.981-2.48l21.532-28.896c1.365-1.833,3.864-2.317,5.814-1.119l29.198,17.906
	c1.948,1.196,2.653,3.642,1.639,5.691l-16.014,32.332c-1.539,3.108-0.776,6.865,1.857,9.125
	c9.311,7.996,17.928,16.921,25.611,26.528c2.166,2.709,5.893,3.603,9.054,2.175l32.877-14.869c2.08-0.942,4.503-0.153,5.628,1.838
	l16.871,29.808c1.126,1.99,0.557,4.471-1.323,5.772l-29.628,20.5c-2.854,1.975-4.005,5.634-2.794,8.887
	c4.497,12.081,7.806,24.677,9.834,37.441c0.545,3.431,3.351,6.053,6.811,6.366l35.909,3.25c2.277,0.206,3.995,2.086,3.995,4.372
	v34.249H496.823z"/>
<path d="M220.407,222.08c-2.963-2.963-7.767-2.964-10.732,0l-31.93,31.93c-1.423,1.423-2.222,3.353-2.222,5.366
	s0.799,3.943,2.222,5.366l33.194,33.194c1.482,1.482,3.424,2.223,5.366,2.223s3.884-0.741,5.366-2.223
	c2.963-2.963,2.963-7.768,0-10.731l-27.829-27.829l26.565-26.564C223.37,229.848,223.37,225.044,220.407,222.08z"/>
<path d="M291.593,298.884c1.482,1.482,3.424,2.223,5.366,2.223s3.884-0.741,5.366-2.223l31.93-31.93
	c2.963-2.963,2.963-7.768,0-10.731l-33.194-33.195c-2.963-2.964-7.767-2.964-10.732,0c-2.963,2.963-2.963,7.768,0,10.731
	l27.829,27.829l-26.565,26.564C288.63,291.116,288.63,295.921,291.593,298.884z"/>
<path d="M266.512,203.275l-35.808,110.691c-1.29,3.988,0.897,8.266,4.884,9.556c0.777,0.251,1.563,0.371,2.338,0.371
	c3.201,0,6.179-2.044,7.218-5.255l35.808-110.691c1.29-3.988-0.897-8.266-4.884-9.556
	C272.081,197.1,267.801,199.288,266.512,203.275z"/>
<g>
</g>
<g>
</g>
<g>
</g>
<g>
</g>
<g>
</g>
<g>
</g>
<g>
</g>
<g>
</g>
<g>
</g>
<g>
</g>
<g>
</g>
<g>
</g>
<g>
</g>
<g>
</g>
<g>
</g>
</svg>
