<?xml version="1.0" encoding="iso-8859-1"?>
<!-- Generator: Adobe Illustrator 19.0.0, SVG Export Plug-In . SVG Version: 6.00 Build 0)  -->
<svg version="1.1" id="Capa_1" xmlns="http://www.w3.org/2000/svg" xmlns:xlink="http://www.w3.org/1999/xlink" x="0px" y="0px"
	 viewBox="0 0 512.001 512.001" style="enable-background:new 0 0 512.001 512.001;" xml:space="preserve">
<path style="fill:#DFE2EA;" d="M414.67,250.258l-19.252-5.052c0.066-7.517-0.623-14.915-2.006-22.109l18.004-8.451
	c3.097-1.454,4.573-5.029,3.404-8.243l-6.459-17.77c-1.168-3.215-4.596-5.008-7.904-4.134l-19.257,5.089
	c-3.436-6.169-7.44-12.005-11.959-17.426l11.674-16.137c2.005-2.772,1.564-6.615-1.015-8.861l-14.258-12.418
	c-2.579-2.247-6.447-2.154-8.917,0.212l-14.363,13.761c-7.311-4.563-15.221-8.329-23.631-11.154l1.514-19.846
	c0.26-3.411-2.124-6.457-5.498-7.024l-18.646-3.132c-3.374-0.566-6.622,1.533-7.491,4.842l-5.052,19.252
	c-7.517-0.066-14.914,0.623-22.109,2.006l-5.961-12.699l-2.49-5.304c-1.454-3.097-5.029-4.573-8.245-3.404l-17.77,6.459
	c-3.215,1.168-5.008,4.597-4.134,7.904l5.089,19.257c-6.169,3.436-12.005,7.44-17.426,11.959l-16.137-11.674
	c-2.772-2.005-6.615-1.564-8.861,1.015l-12.418,14.258c-2.247,2.579-2.154,6.447,0.212,8.917l13.761,14.363
	c-4.563,7.311-8.329,15.221-11.155,23.631l-19.846-1.513c-3.411-0.26-6.457,2.124-7.024,5.498l-3.131,18.646
	c-0.566,3.374,1.533,6.623,4.842,7.491l19.252,5.052c-0.066,7.517,0.623,14.914,2.006,22.109l-18.003,8.451
	c-3.097,1.454-4.573,5.029-3.404,8.244l6.459,17.77c1.168,3.215,4.597,5.008,7.904,4.134l19.257-5.089
	c3.436,6.169,7.44,12.005,11.959,17.426l-11.674,16.138c-2.005,2.772-1.564,6.615,1.015,8.861l14.258,12.418
	c2.579,2.247,6.447,2.155,8.917-0.212l14.363-13.762c7.311,4.563,15.221,8.329,23.631,11.155l-1.513,19.846
	c-0.26,3.411,2.124,6.457,5.498,7.024l18.646,3.132c3.374,0.567,6.622-1.533,7.491-4.842l5.052-19.252
	c7.517,0.066,14.914-0.623,22.109-2.006l8.451,18.004c1.454,3.097,5.029,4.573,8.244,3.404l17.77-6.459
	c3.215-1.168,5.008-4.597,4.134-7.904l-5.089-19.257c6.169-3.436,12.005-7.44,17.426-11.959l16.138,11.674
	c2.772,2.005,6.615,1.564,8.861-1.015l12.418-14.258c2.247-2.579,2.154-6.447-0.212-8.917l-13.762-14.363
	c4.563-7.311,8.329-15.221,11.154-23.631l19.847,1.514c3.411,0.26,6.457-2.124,7.024-5.498l3.131-18.646
	C420.079,254.375,417.98,251.126,414.67,250.258z M362.352,257.735c-7.305,43.501-48.491,72.843-91.992,65.537
	c-3.655-0.614-7.21-1.467-10.653-2.541l-18.967-8.798c-26.262-16.705-41.397-48.029-35.917-80.654
	c7.305-43.501,48.491-72.843,91.992-65.537C340.315,173.048,369.657,214.234,362.352,257.735z"/>
<path style="fill:#53515E;" d="M481.62,139.501c18.826-18.826,23.743-46.276,14.787-69.626l-35.73,35.73
	c-3.964,3.963-10.389,3.963-14.352,0l-23.203-23.204c-3.963-3.963-3.963-10.389,0-14.352l35.73-35.73
	c-23.351-8.955-50.801-4.038-69.626,14.787c-18.674,18.674-23.662,45.837-14.999,69.065L226.502,251.262
	c-15.169,13.871-15.698,37.593-1.163,52.127l0,0c14.603,14.603,38.462,13.988,52.294-1.347L411.178,153.98
	C434.701,163.367,462.576,158.546,481.62,139.501z"/>
<g>
	<path style="fill:#474756;" d="M428.059,28.407l-13.435,13.435c-3.964,3.963-3.964,10.389,0,14.352l10.178,10.178l34.051-34.051
		C448.999,28.541,438.417,27.243,428.059,28.407z"/>
	<path style="fill:#474756;" d="M496.408,69.875l-4.585,4.585c-1.595,14.187-7.819,27.951-18.701,38.833
		c-19.044,19.044-46.92,23.867-70.444,14.479l-86.855,96.295c-15.653,17.355-39.3,25.172-62.214,20.572
		c-3.51-0.705-5.792-1.16-5.792-1.16c-3.369-0.659-6.524-1.72-9.404-3.109l-11.909,10.891c-9.48,8.669-10.995,24.517-11.615,23.79
		c-0.793,10.131,2.664,20.552,10.449,28.337l0,0c14.603,14.603,38.462,13.988,52.293-1.347l34.546-38.301l0.007-0.004l-0.001-0.001
		l98.995-109.754c23.524,9.387,51.398,4.565,70.444-14.479C500.446,120.676,505.363,93.226,496.408,69.875z M238.232,287.382
		c0.046,0.047,0.09,0.092,0.136,0.138c-0.084-0.009-0.168-0.015-0.253-0.024L238.232,287.382z"/>
</g>
<path style="fill:#FFE1B3;" d="M286.044,269.772l-34.903-6.834c-15.674-3.069-26.759-14.766-26.759-28.236v-33.109h-78.114v33.109
	c0,13.471-11.085,25.168-26.759,28.236l-34.903,6.834c-28.609,5.602-48.842,26.952-48.842,51.541v37.51h299.122v-37.51
	C334.886,296.725,314.654,275.375,286.044,269.772z"/>
<path style="fill:#F0C891;" d="M183.974,245.993L183.974,245.993c15.023,0,28.95-4.685,40.408-12.668v-31.731h-78.114v33.109
	c0,0.137-0.008,0.272-0.01,0.408C157.177,242.001,170.108,245.993,183.974,245.993z"/>
<path style="fill:#FFE1B3;" d="M183.974,229.135L183.974,229.135c-39.086,0-70.771-31.685-70.771-70.771v-57.859
	c0-39.086,31.685-70.771,70.771-70.771l0,0c39.086,0,70.771,31.685,70.771,70.771v57.859
	C254.746,197.449,223.06,229.135,183.974,229.135z"/>
<path style="fill:#C7CAD3;" d="M268.43,166.08c0.275-2.535,0.426-5.108,0.426-7.716v-25.862c-2.49,0.307-4.961,0.69-7.408,1.161
	l-5.961-12.699l-2.49-5.304c-1.454-3.097-5.029-4.573-8.245-3.404l-3.961,1.439v32.714c0,15.395-4.931,29.631-13.28,41.246
	C238.637,176.702,252.85,169.094,268.43,166.08z"/>
<path style="fill:#FAD7A5;" d="M197.021,30.939c17.956,12.836,29.661,33.856,29.661,57.61v57.859
	c0,39.086-31.685,70.771-70.77,70.771l0,0c-4.457,0-8.817-0.416-13.047-1.205c11.588,8.284,25.78,13.161,41.111,13.161l0,0
	c39.086,0,70.77-31.685,70.77-70.771v-57.859C254.746,65.877,229.873,37.063,197.021,30.939z"/>
<path style="fill:#B48765;" d="M110.375,52.664c-3.577,5.731-8.38,14.963-10.922,27.213c-2.205,10.624-1.923,19.734-1.236,26.011
	c8.61-2.125,15.33-5.167,19.986-7.669c1.838-0.988,10.919-5.956,20.391-15.133l0,0L110.375,52.664z"/>
<path style="fill:#966D50;" d="M274.153,92.713c-6.027-22.325-16.033-43.583-32.311-59.328
	c-5.276-5.104-25.103-24.282-54.448-25.798c0,0-30.62-1.582-57.061,20.917c-7.977,6.788-14.545,15.018-19.957,24.161
	c24.611,35.211,61.531,57.603,102.813,57.603c10.166,0,31.408-3.101,41.557-9.762"/>
<path style="fill:#846047;" d="M241.841,33.384c-5.276-5.104-25.103-24.282-54.448-25.798c0,0-8.686-0.448-20.799,2.531
	c20.751,5.72,34.612,19.126,38.893,23.267c16.277,15.745,26.285,37.003,32.312,59.328l-19.407,7.792
	c-5.895,3.869-15.53,6.534-24.565,8.09c6.322,1.098,12.786,1.671,19.362,1.671c10.166,0,31.408-3.101,41.557-9.762l19.407-7.792
	C268.126,70.387,258.119,49.129,241.841,33.384z"/>
<g>
	<circle style="fill:#53515E;" cx="155.909" cy="128.118" r="7.844"/>
	<circle style="fill:#53515E;" cx="209.253" cy="128.118" r="7.844"/>
</g>
<path style="fill:#FF9EA4;" d="M334.885,321.301c-0.007-24.582-20.238-45.927-48.842-51.527l-34.903-6.834
	c-5.425-1.062-10.3-3.16-14.356-6.006c-13.759,12.014-31.758,19.294-51.46,19.294c-19.701,0-37.701-7.281-51.46-19.294
	c-4.056,2.846-8.93,4.943-14.356,6.006l-34.903,6.834c-28.609,5.602-48.842,26.952-48.842,51.54v37.509l0,0v68.33
	c0,16.6,6.452,32.55,17.993,44.48l31.736,32.808h204.705l28.668-35.137c10.36-12.697,16.018-28.582,16.018-44.969v-65.512v-37.51
	C334.886,321.309,334.885,321.305,334.885,321.301z"/>
<path style="fill:#C7CAD3;" d="M290.201,324.113l0.011,32.714c4.655-0.306,9.25-0.9,13.766-1.768l8.451,18.004
	c1.454,3.097,5.029,4.573,8.245,3.404l17.77-6.459c3.215-1.168,5.008-4.597,4.134-7.904l-5.089-19.257
	c3.231-1.799,6.364-3.763,9.399-5.866v-20.374c0-0.004,0-0.008,0-0.012c-0.002-6.496-1.422-12.762-4.03-18.575
	C329.437,312.856,310.679,322.427,290.201,324.113z"/>
<g>
	<path style="fill:#FF7B97;" d="M54.413,283.789c-11.62,9.68-18.648,23.038-18.648,37.524v37.509l0,0v68.33
		c0,16.6,6.452,32.55,17.993,44.48l31.736,32.808h6.958V324.164C92.452,304.312,73.768,287.744,54.413,283.789z"/>
	<path style="fill:#FF7B97;" d="M334.886,424.334v-65.512v-37.509c0-0.004,0-0.008,0-0.012
		c-0.004-14.619-7.162-28.092-18.979-37.791c-19.716,3.382-37.709,20.289-37.709,40.655l0.059,180.276H290.2l28.668-35.137
		C329.228,456.606,334.886,440.721,334.886,424.334z"/>
</g>
<path style="fill:#E9EBF2;" d="M279.919,504.44H90.731c-7.541,0-13.653-6.113-13.653-13.654V358.998
	c0-9.266,7.511-16.776,16.776-16.776h182.942c9.266,0,16.776,7.511,16.776,16.776v131.788
	C293.572,498.327,287.46,504.44,279.919,504.44z"/>
<path style="fill:#DFE2EA;" d="M276.796,342.222h-17.549v19.13c0,62.812-50.92,113.732-113.732,113.732H77.078v15.703
	c0,7.541,6.113,13.654,13.653,13.654h189.187c7.541,0,13.654-6.113,13.654-13.654V358.998
	C293.572,349.733,286.061,342.222,276.796,342.222z"/>
<circle style="fill:#FFFFFF;" cx="185.323" cy="423.334" r="18.377"/>
<path style="fill:#966D50;" d="M355.839,512H11.262c-4.175,0-7.56-3.385-7.56-7.56s3.385-7.56,7.56-7.56h344.576
	c4.175,0,7.56,3.385,7.56,7.56S360.014,512,355.839,512z"/>
<path d="M503.467,67.168c-0.916-2.391-2.982-4.155-5.486-4.687c-2.506-0.532-5.109,0.239-6.919,2.049l-35.73,35.73
	c-1.008,1.008-2.651,1.009-3.66,0l-23.203-23.204c-1.009-1.009-1.009-2.651,0-3.66l35.73-35.73c1.81-1.81,2.582-4.414,2.049-6.919
	c-0.533-2.504-2.297-4.569-4.687-5.486c-26.862-10.302-57.353-3.825-77.679,16.501c-18.895,18.895-25.839,46.718-18.373,72.138
	l-26.461,24.197c-4.001-2.12-8.124-4.022-12.341-5.675l1.078-14.129c0.562-7.36-4.504-13.832-11.784-15.055l-18.646-3.131
	c-7.283-1.222-14.182,3.24-16.055,10.378l-3.597,13.707c-3.962,0.162-7.919,0.521-11.842,1.075l-3.554-7.572v-17.092
	c0-0.004,0-0.007,0-0.011v-0.088c0-0.109-0.01-0.196-0.013-0.295c-0.005-0.126-0.006-0.253-0.017-0.379
	c-0.004-0.048-0.012-0.089-0.018-0.135c-0.123-1.155-0.509-2.3-1.191-3.339c-2.29-3.491-6.978-4.461-10.468-2.173
	c-8.046,5.28-27.211,8.523-37.409,8.523c-24.984,0-49.047-8.926-69.477-25.223l-23.844-25.701c4.561-6.826,9.71-12.71,15.363-17.52
	c23.68-20.15,51.514-19.141,51.772-19.125c17.593,0.908,34.274,8.877,49.582,23.682c13.639,13.193,23.823,31.989,30.269,55.865
	c1.088,4.031,5.238,6.419,9.269,5.328c4.031-1.089,6.417-5.238,5.328-9.269c-7.167-26.549-18.726-47.675-34.355-62.793
	c-18.008-17.42-37.964-26.812-59.312-27.915c-1.369-0.069-33.948-1.46-62.35,22.71c-8.156,6.94-15.374,15.655-21.462,25.902
	c-0.003,0.005-0.006,0.008-0.009,0.013c-0.01,0.017-0.02,0.034-0.03,0.051c-0.02,0.034-0.042,0.068-0.062,0.102
	c-0.005,0.008-0.007,0.016-0.012,0.024c-5.659,9.109-9.634,19.034-11.807,29.503c-1.935,9.328-2.389,18.874-1.348,28.37
	c0.238,2.166,1.399,4.125,3.185,5.374c1.281,0.896,2.795,1.363,4.33,1.363c0.605,0,1.213-0.073,1.81-0.22
	c1.892-0.467,3.764-0.991,5.615-1.57v46.707c0,26.335,13.077,49.66,33.065,63.867v12.471c0,6.148-3.293,11.784-8.71,15.738
	c-0.258,0.154-0.51,0.323-0.751,0.509c-3.149,2.136-6.937,3.738-11.19,4.569l-34.903,6.834c-32.353,6.335-54.95,30.58-54.95,58.959
	v105.839c0,18.661,7.145,36.325,20.119,49.736l19.339,19.992h-56.4c-4.175,0-7.56,3.385-7.56,7.56s3.385,7.56,7.56,7.56h74.232
	h5.238h189.187H290.2h65.639c4.175,0,7.56-3.385,7.56-7.56s-3.385-7.56-7.56-7.56h-49.713l18.601-22.797
	c11.427-14.006,17.721-31.674,17.721-49.749v-75.624c4.388-2.515,8.636-5.298,12.676-8.341l11.5,8.319
	c2.522,1.824,5.433,2.713,8.32,2.713c3.957,0,7.871-1.67,10.673-4.889l12.417-14.258c4.85-5.566,4.653-13.784-0.454-19.113
	l-9.799-10.227c2.614-4.691,4.912-9.56,6.874-14.563l14.13,1.079c7.369,0.553,13.832-4.505,15.054-11.784l3.131-18.647
	c1.222-7.279-3.24-14.181-10.378-16.055l-13.707-3.597c-0.162-3.963-0.521-7.919-1.074-11.842l12.82-6.019
	c6.681-3.136,9.819-10.732,7.297-17.67l-6.459-17.769c-2.256-6.205-8.32-9.895-14.683-9.257l12.62-13.991
	c25.827,8.188,54.196,1.413,73.562-17.954C507.292,124.521,513.769,94.03,503.467,67.168z M183.52,189.164
	c-8.454,0-16.402-3.292-22.381-9.271c-2.952-2.952-2.952-7.739,0-10.691c2.952-2.952,7.739-2.952,10.691,0
	c3.123,3.123,7.274,4.841,11.689,4.841s8.567-1.72,11.689-4.841c2.952-2.952,7.739-2.953,10.691,0c2.952,2.952,2.952,7.738,0,10.691
	C199.922,185.872,191.974,189.164,183.52,189.164z M262.877,141.086c6.769-1.301,13.714-1.93,20.616-1.871c0.022,0,0.044,0,0.067,0
	c3.433,0,6.439-2.315,7.312-5.641l4.832-18.414l16.938,2.845l-1.449,18.983c-0.263,3.45,1.851,6.64,5.131,7.742
	c3.662,1.23,7.258,2.673,10.765,4.303l-14.284,13.063c-4.775-1.686-9.713-2.966-14.738-3.809
	c-11.968-2.01-24.152-1.508-35.795,1.418c0.008-0.449,0.034-0.892,0.034-1.342v-17.216
	C262.496,141.125,262.686,141.123,262.877,141.086z M232.01,235.98c-0.031-0.424-0.069-0.848-0.069-1.278v-14.479
	c13.985-10.868,24.193-26.358,28.322-44.164c11.299-3.857,23.422-4.856,35.297-2.862c1.406,0.236,2.804,0.515,4.191,0.832
	L232.01,235.98z M106.856,81.413c1.051-5.068,2.632-9.975,4.678-14.696c4.869,5.967,10.064,11.464,15.545,16.458
	c-5.554,4.47-10.293,7.222-12.454,8.384c-1.04,0.559-2.102,1.086-3.17,1.598c-0.967,0.23-1.86,0.642-2.643,1.204
	c-1.163,0.504-2.336,0.989-3.526,1.436C105.348,90.967,105.872,86.157,106.856,81.413z M120.764,158.363v-52.959
	c0.339-0.176,0.682-0.346,1.018-0.526c2.891-1.553,9.644-5.488,17.214-11.95c22.044,16.124,47.617,24.899,74.192,24.899
	c8.156,0,22.653-1.71,33.943-5.299l0.054,45.836c0,34.855-28.356,63.211-63.21,63.211S120.764,193.218,120.764,158.363z
	 M327.326,424.334c0,14.602-5.083,28.875-14.316,40.19l-11.878,14.558V358.997c0-11.968-8.686-21.939-20.085-23.956
	c0.486-4.175,2.564-7.981,5.9-10.659l7.984-6.409c3.256-2.614,3.777-7.372,1.163-10.627c-2.614-3.256-7.372-3.778-10.627-1.163
	l-7.984,6.409c-6.839,5.49-10.965,13.426-11.582,22.07H146.259c-4.175,0-7.56,3.385-7.56,7.56s3.385,7.56,7.56,7.56h130.538
	c5.082,0,9.217,4.135,9.217,9.216v131.788c0,3.36-2.734,6.093-6.093,6.093H90.731c-0.933,0-1.815-0.218-2.607-0.595l-2.986-3.087
	c-0.321-0.741-0.501-1.555-0.501-2.413V358.998c0-5.082,4.135-9.216,9.216-9.216h22.521c4.175,0,7.56-3.385,7.56-7.56
	s-3.385-7.56-7.56-7.56h-14.999c-0.617-8.645-4.744-16.581-11.582-22.07l-7.984-6.409c-3.257-2.615-8.015-2.093-10.627,1.163
	c-2.614,3.256-2.093,8.015,1.163,10.627l7.984,6.41c3.554,2.852,5.67,6.99,5.962,11.487c-9.727,3.188-16.774,12.348-16.774,23.128
	V477.05l-10.326-10.675c-10.231-10.577-15.867-24.507-15.867-39.224V321.313c0-21.051,17.574-39.194,42.735-44.122l34.903-6.834
	c4.418-0.865,8.528-2.302,12.246-4.202c4.519,3.457,9.367,6.459,14.472,8.954c1.068,0.522,2.199,0.769,3.314,0.769
	c2.797,0,5.487-1.559,6.798-4.242c1.834-3.751,0.278-8.278-3.473-10.111c-3.017-1.475-5.921-3.171-8.699-5.06
	c5.202-6.108,8.209-13.652,8.209-21.763v-4.048c9.285,3.886,19.468,6.041,30.146,6.041c11.726,0,22.85-2.608,32.847-7.246v5.254
	c0,8.107,3.003,15.648,8.201,21.755c-11.655,7.913-25.466,12.211-39.698,12.211c-2.89,0-5.799-0.175-8.648-0.522
	c-4.145-0.508-7.914,2.446-8.418,6.591c-0.505,4.145,2.446,7.914,6.591,8.418c3.451,0.42,6.975,0.633,10.474,0.633
	c18.895,0,37.179-6.241,52.096-17.643c3.725,1.905,7.84,3.347,12.267,4.213l34.903,6.834c4.954,0.97,9.609,2.46,13.899,4.376
	c0.329,0.178,0.665,0.335,1.011,0.461c16.921,7.936,27.825,22.706,27.825,39.284v103.02H327.326z M354.12,228.527
	c2.066,9.12,2.346,18.604,0.775,27.956c-2.45,14.595-9.274,27.948-19.473,38.425c-4.908-8.704-12.199-16.272-21.28-22.058
	L354.12,228.527z M383.134,196.895l18.418-4.868l5.868,16.142l-17.22,8.083c-3.13,1.47-4.865,4.875-4.211,8.271
	c1.301,6.768,1.93,13.704,1.87,20.616c-0.03,3.46,2.293,6.5,5.641,7.379l18.414,4.832l-2.845,16.939l-18.983-1.449
	c-3.448-0.264-6.639,1.851-7.741,5.131c-2.594,7.72-6.092,15.133-10.401,22.035c-1.832,2.933-1.438,6.737,0.955,9.233l13.163,13.737
	l-11.28,12.952l-15.436-11.166c-2.8-2.026-6.618-1.895-9.273,0.319c-2.446,2.039-4.997,3.968-7.628,5.784v-9.553
	c0-3.785-0.414-7.494-1.187-11.099c15.116-13.254,25.2-31.289,28.548-51.226c2.471-14.713,1.146-29.696-3.798-43.64l16.529-18.326
	C382.737,196.985,382.935,196.948,383.134,196.895z M476.275,134.156c-16.354,16.353-40.807,21.378-62.295,12.804
	c-2.94-1.173-6.297-0.39-8.416,1.958l-53.584,59.408c-0.22,0.217-0.427,0.445-0.618,0.684l-51.302,56.878
	c-3.991-1.48-8.184-2.676-12.564-3.534l-34.903-6.834c-4.252-0.833-8.041-2.433-11.189-4.569c-0.242-0.188-0.494-0.357-0.753-0.511
	c-0.381-0.278-0.741-0.572-1.1-0.866l139.778-127.824c2.274-2.08,3.058-5.333,1.982-8.22c-7.891-21.156-2.685-45.131,13.261-61.077
	c13.168-13.169,31.719-19.001,49.688-16.233l-26.482,26.483c-3.345,3.345-5.187,7.791-5.187,12.521
	c0,4.731,1.842,9.177,5.187,12.521l23.203,23.204c6.905,6.905,18.139,6.905,25.043,0l26.482-26.482
	C495.276,102.434,489.442,120.988,476.275,134.156z"/>
<circle cx="155.909" cy="128.118" r="7.844"/>
<circle cx="209.253" cy="128.118" r="7.844"/>
<path d="M185.325,449.269c14.302,0,25.937-11.635,25.937-25.937c0-14.302-11.635-25.937-25.937-25.937s-25.937,11.635-25.937,25.937
	C159.388,437.633,171.023,449.269,185.325,449.269z M185.325,412.514c5.964,0,10.817,4.853,10.817,10.817
	c0,5.964-4.853,10.817-10.817,10.817c-5.964,0-10.817-4.853-10.817-10.817C174.508,417.366,179.361,412.514,185.325,412.514z"/>
<g>
</g>
<g>
</g>
<g>
</g>
<g>
</g>
<g>
</g>
<g>
</g>
<g>
</g>
<g>
</g>
<g>
</g>
<g>
</g>
<g>
</g>
<g>
</g>
<g>
</g>
<g>
</g>
<g>
</g>
</svg>
