<?xml version="1.0" encoding="iso-8859-1"?>
<!-- Generator: Adobe Illustrator 19.0.0, SVG Export Plug-In . SVG Version: 6.00 Build 0)  -->
<svg version="1.1" id="Capa_1" xmlns="http://www.w3.org/2000/svg" xmlns:xlink="http://www.w3.org/1999/xlink" x="0px" y="0px"
	 viewBox="0 0 512 512" style="enable-background:new 0 0 512 512;" xml:space="preserve">
<circle style="fill:#DEAF73;" cx="181.42" cy="79.14" r="69.61"/>
<path style="fill:#86E56E;" d="M351.137,295.394l-10.321-2.415H176.421l-10.322,2.415c-26.28,6.149-44.866,29.586-44.866,56.576
	v152.466h274.769V351.969C396.003,324.979,377.417,301.543,351.137,295.394z"/>
<path style="fill:#FAD7A5;" d="M258.619,343.395c35.879,0,66.949-20.502,82.197-50.416l-21.74-5.087
	c-14.398-3.369-24.58-16.209-24.58-30.996v-36.344h-71.754v36.344c0,14.787-10.182,27.627-24.58,30.996l-21.74,5.087
	C191.669,322.893,222.74,343.395,258.619,343.395z"/>
<path style="fill:#F0C891;" d="M294.495,256.896v-36.344h-71.754v36.344c0,1.103-0.064,2.194-0.174,3.273
	c10.413,5.185,22.146,8.116,34.568,8.116l0,0c13.567,0,26.316-3.486,37.416-9.598C294.518,258.093,294.495,257.497,294.495,256.896z
	"/>
<path style="fill:#FFE1B3;" d="M257.136,250.785L257.136,250.785c-42.905,0-77.685-34.781-77.685-77.685v-63.511
	c0-42.904,34.781-77.685,77.685-77.685l0,0c42.904,0,77.685,34.781,77.685,77.685V173.1
	C334.821,216.004,300.04,250.785,257.136,250.785z"/>
<path style="fill:#FAD7A5;" d="M270.05,32.992c20.501,13.985,33.965,37.525,33.965,64.215v63.511
	c0,42.904-34.781,77.685-77.685,77.685l0,0c-4.402,0-8.712-0.385-12.914-1.089c12.455,8.497,27.505,13.471,43.72,13.471l0,0
	c42.905,0,77.685-34.781,77.685-77.685v-63.511C334.821,71.086,306.804,39.145,270.05,32.992z"/>
<g>
	<rect x="162.45" y="103.57" style="fill:#CD905A;" width="16.996" height="30.05"/>
	<path style="fill:#CD905A;" d="M176.346,57.073c-3.927,6.29-9.199,16.424-11.989,29.872c-2.42,11.662-2.112,21.662-1.356,28.552
		c9.452-2.333,16.828-5.672,21.938-8.418c2.017-1.084,11.986-6.539,22.384-16.612l0,0L176.346,57.073z"/>
</g>
<path style="fill:#D59F63;" d="M356.124,101.035c-6.616-24.507-17.6-47.842-35.468-65.125c-5.792-5.602-27.556-26.655-59.767-28.319
	c0,0-33.612-1.736-62.636,22.961c-8.757,7.451-15.966,16.485-21.907,26.521c27.015,38.651,67.542,63.231,112.858,63.231
	c11.159,0,34.476-3.404,45.617-10.715L356.124,101.035z"/>
<path style="fill:#CD905A;" d="M320.656,35.91c-5.792-5.602-27.556-26.655-59.767-28.319c0,0-8.149-0.414-19.878,2.103
	c24.232,5.826,40.439,21.498,45.316,26.216c17.868,17.284,28.852,40.619,35.468,65.125l-21.304,8.554
	c-7.074,4.642-19.053,7.707-29.715,9.327c6.038,0.905,12.185,1.388,18.427,1.388c11.159,0,58.17-0.492,69.312-7.804l-2.391-11.465
	C349.509,76.528,338.524,53.193,320.656,35.91z"/>
<path style="fill:#53515E;" d="M351.271,185.937h-16.45v-70.44h16.45c7.823,0,14.165,6.342,14.165,14.165v42.109
	C365.436,179.595,359.094,185.937,351.271,185.937z"/>
<rect x="334.82" y="115.5" style="fill:#474756;" width="13.07" height="70.44"/>
<path style="fill:#53515E;" d="M163.001,115.497h16.45v70.44h-16.45c-7.823,0-14.165-6.342-14.165-14.165v-42.109
	C148.835,121.839,155.177,115.497,163.001,115.497z"/>
<rect x="167.32" y="115.5" style="fill:#474756;" width="12.134" height="70.44"/>
<path style="fill:#E9EBF2;" d="M352.419,504.436H163.133c-7.545,0-13.661-6.116-13.661-13.661V358.919
	c0-9.27,7.515-16.785,16.785-16.785h183.037c9.27,0,16.785,7.515,16.785,16.785v131.857
	C366.079,498.32,359.963,504.436,352.419,504.436z"/>
<path style="fill:#DFE2EA;" d="M349.294,342.133h-18.423v12.981c0,66.129-53.608,119.737-119.737,119.737h-61.661v15.923
	c0,7.544,6.116,13.66,13.661,13.66H352.42c7.544,0,13.661-6.116,13.661-13.66V358.919
	C366.079,349.648,358.564,342.133,349.294,342.133z"/>
<circle style="fill:#FFFFFF;" cx="257.78" cy="423.29" r="18.387"/>
<path style="fill:#966D50;" d="M428.378,512H83.622c-4.177,0-7.564-3.387-7.564-7.564s3.387-7.564,7.564-7.564h344.756
	c4.177,0,7.564,3.387,7.564,7.564C435.942,508.613,432.556,512,428.378,512z"/>
<circle cx="226.33" cy="139.91" r="8.611"/>
<circle cx="284.88" cy="139.91" r="8.611"/>
<path d="M257.776,397.334c-14.309,0-25.951,11.641-25.951,25.951s11.641,25.951,25.951,25.951c14.309,0,25.951-11.641,25.951-25.951
	C283.726,408.975,272.085,397.334,257.776,397.334z M257.776,434.107c-5.967,0-10.823-4.855-10.823-10.823
	c0-5.967,4.855-10.823,10.823-10.823c5.967,0,10.823,4.855,10.823,10.823C268.598,429.252,263.743,434.107,257.776,434.107z"/>
<path d="M428.378,496.872h-24.803v-17.313c0-4.177-3.387-7.564-7.564-7.564s-7.564,3.387-7.564,7.564v17.313h-15.706
	c0.581-1.933,0.902-3.977,0.902-6.097V358.918c0-13.426-10.923-24.349-24.349-24.349h-35.785
	c12.648-8.328,23.337-19.522,31.181-32.908l4.731,1.107c22.978,5.377,39.026,25.613,39.026,49.212v91.944
	c0,4.177,3.387,7.564,7.564,7.564s7.564-3.387,7.564-7.564V351.98c0-30.662-20.852-56.956-50.707-63.942l-32.063-7.502
	c-11.034-2.582-18.74-12.299-18.74-23.631v-11.39c8.43-5.249,15.871-11.929,22.002-19.696c18.346-0.184,33.248-14.976,33.616-33.278
	c8.865-2.74,15.325-11.011,15.325-20.764v-42.11c0-10.198-7.072-18.755-16.562-21.083c0.55-0.023,1.104-0.093,1.658-0.243
	c4.033-1.089,6.42-5.241,5.331-9.274c-7.831-29.013-20.453-52.091-37.513-68.593c-19.636-18.995-41.384-29.236-64.638-30.437
	c-1.132-0.054-21.801-0.928-45.223,10.128c-10.684-5.368-22.607-8.195-34.639-8.195c-42.554,0-77.174,34.62-77.174,77.174
	c0,27.119,14.068,51.938,37.025,65.917v26.716c0,11.982,9.748,21.73,21.73,21.73h11.371c5.671,23.002,20.702,42.346,40.807,53.765
	v9.633c0,11.332-7.706,21.049-18.741,23.631l-32.062,7.502c-29.856,6.985-50.708,33.28-50.708,63.942v144.892H83.622
	c-4.177,0-7.564,3.387-7.564,7.564S79.445,512,83.622,512h37.612h41.899h189.285h43.593h32.367c4.177,0,7.564-3.387,7.564-7.564
	C435.942,500.259,432.556,496.872,428.378,496.872z M335.579,206.484c1.78-4.166,3.225-8.505,4.328-12.978h2.581
	C342.03,198.733,339.436,203.353,335.579,206.484z M357.879,171.776c0,3.64-2.962,6.602-6.602,6.602h-8.886v-5.273v-50.041h8.886
	c3.64,0,6.602,2.962,6.602,6.602V171.776z M119.375,79.144c0-34.212,27.834-62.046,62.046-62.046c6.202,0,12.363,0.939,18.249,2.744
	c-2.118,1.533-4.228,3.173-6.317,4.951c-3.182,2.707-3.566,7.481-0.859,10.662c2.707,3.183,7.481,3.566,10.662,0.859
	c26.233-22.322,57.057-21.186,57.346-21.168c19.497,1.007,37.968,9.823,54.901,26.202c15.069,14.576,26.315,35.323,33.425,61.662
	c0.644,2.386,2.369,4.176,4.498,5.031c-0.676-0.064-1.358-0.104-2.05-0.104h-9.073c-0.756-3.38-3.769-5.908-7.377-5.908
	c-1.505,0-2.904,0.445-4.083,1.203c-0.023,0.015-0.044,0.022-0.067,0.037c-8.947,5.871-30.183,9.476-41.469,9.476
	c-27.61,0-54.198-9.863-76.76-27.874l-26.616-28.692c0.434-0.658,0.868-1.314,1.309-1.952c2.375-3.437,1.514-8.148-1.922-10.523
	s-8.148-1.514-10.523,1.922c-1.641,2.374-3.24,4.876-4.759,7.434c-0.002,0.003-0.005,0.006-0.007,0.009
	c-0.009,0.014-0.016,0.028-0.025,0.042c-0.022,0.037-0.046,0.074-0.068,0.111c-0.005,0.008-0.007,0.016-0.012,0.024
	c-6.172,9.931-10.506,20.751-12.874,32.164c-1.645,7.928-2.294,16-1.967,24.078c-7.124,2.842-12.388,9.341-13.479,17.171
	C127.617,115.011,119.375,97.751,119.375,79.144z M181.36,100.418c-1.174,0.631-2.37,1.224-3.576,1.8
	c-1.024,0.231-1.966,0.67-2.786,1.27c-1.636,0.71-3.294,1.381-4.98,1.991c0.001-5.706,0.584-11.393,1.747-16.995
	c1.248-6.015,3.147-11.833,5.658-17.4c5.728,7.122,11.88,13.638,18.393,19.511C189.383,95.862,183.839,99.086,181.36,100.418z
	 M171.888,178.378h-8.886c-3.64,0-6.602-2.962-6.602-6.602v-28.945c0.37-1.335,0.353-2.717,0-4.006v-9.16
	c0-3.64,2.962-6.602,6.602-6.602h8.886v50.041V178.378z M187.016,173.105V115.5v-0.978c0.502-0.259,1.008-0.511,1.505-0.778
	c3.207-1.723,10.777-6.139,19.211-13.414c24.18,17.829,52.275,27.541,81.476,27.541c9.423,0,25.367-2.087,38.055-6.482v51.715
	c0,13.827-4.039,26.72-10.975,37.594h-51.112c-4.177,0-7.564,3.387-7.564,7.564s3.387,7.564,7.564,7.564h38.123
	c-12.344,10.821-28.493,17.402-46.16,17.402C218.473,243.229,187.016,211.771,187.016,173.105z M199.887,295.266
	c17.912-4.191,30.422-19.966,30.422-38.361v-2.898c8.443,2.807,17.458,4.35,26.831,4.35c10.478,0,20.516-1.911,29.797-5.385v3.932
	c0,18.395,12.51,34.171,30.422,38.361l11.78,2.756c-12.141,18.321-30.827,31.203-52.513,35.901
	c-0.642,0.139-1.242,0.364-1.803,0.646h-32.398c-0.561-0.282-1.161-0.507-1.803-0.646c-21.686-4.698-40.373-17.581-52.514-35.901
	L199.887,295.266z M163.133,496.872c-3.362,0-6.097-2.735-6.097-6.097v-94.841c0-4.177-3.387-7.564-7.564-7.564
	s-7.564,3.387-7.564,7.564v94.841c0,2.12,0.321,4.164,0.902,6.097h-14.012V351.98c0-23.599,16.048-43.836,39.027-49.212l4.73-1.107
	c7.845,13.386,18.533,24.58,31.181,32.908h-37.479c-13.426,0-24.349,10.923-24.349,24.349v8.693c0,4.177,3.387,7.564,7.564,7.564
	s7.564-3.387,7.564-7.564v-8.693c0-5.085,4.137-9.221,9.221-9.221h183.037c5.085,0,9.221,4.137,9.221,9.221v131.857
	c0,3.362-2.735,6.097-6.097,6.097H163.133z"/>
<path d="M257.413,204.229c-9.299,0-18.042-3.621-24.617-10.197c-2.929-2.929-2.929-7.678,0-10.606c2.929-2.929,7.678-2.93,10.606,0
	c3.742,3.743,8.718,5.803,14.01,5.803c5.292,0,10.268-2.061,14.011-5.803c2.929-2.929,7.678-2.929,10.606,0
	c2.929,2.929,2.929,7.678,0,10.606C275.455,200.607,266.712,204.229,257.413,204.229z"/>
<g>
</g>
<g>
</g>
<g>
</g>
<g>
</g>
<g>
</g>
<g>
</g>
<g>
</g>
<g>
</g>
<g>
</g>
<g>
</g>
<g>
</g>
<g>
</g>
<g>
</g>
<g>
</g>
<g>
</g>
</svg>
