<?xml version="1.0" encoding="iso-8859-1"?>
<!-- Generator: Adobe Illustrator 19.0.0, SVG Export Plug-In . SVG Version: 6.00 Build 0)  -->
<svg version="1.1" id="Capa_1" xmlns="http://www.w3.org/2000/svg" xmlns:xlink="http://www.w3.org/1999/xlink" x="0px" y="0px"
	 viewBox="0 0 512 512" style="enable-background:new 0 0 512 512;" xml:space="preserve">
<path style="fill:#C7CAD3;" d="M408.006,195.41h-41.489c-5.642,0-10.215-4.573-10.215-10.215V38.866
	c0-17.098,13.861-30.96,30.96-30.96l0,0c17.098,0,30.96,13.861,30.96,30.96v146.329C418.221,190.837,413.647,195.41,408.006,195.41z
	"/>
<path style="fill:#53515E;" d="M479.806,443.155V150.052c0-18.547-14.747-33.583-32.939-33.583H65.132
	c-18.191,0-32.939,15.036-32.939,33.583v292.905"/>
<path style="fill:#DFE2EA;" d="M299.912,440.788L299.912,440.788c-37.216,0-52.457,0-88.091,0l0,0H7.586v15.866
	c0,26.2,21.239,47.439,47.439,47.439h401.95c26.2,0,47.439-21.239,47.439-47.439v-15.866H299.912z"/>
<path style="fill:#C7CAD3;" d="M10.287,472.441c6.506,18.437,24.075,31.653,44.738,31.653h401.95
	c20.664,0,38.232-13.216,44.738-31.653H299.912c-37.216,0-52.457,0-88.091,0L10.287,472.441L10.287,472.441z"/>
<path style="fill:#B3B5BC;" d="M387.264,7.907h-0.005c-17.097,0.001-30.957,13.862-30.957,30.959v146.329
	c0,5.642,4.573,10.215,10.215,10.215h10.296v-10.215V38.867l0,0c0-13.503,8.648-24.98,20.704-29.213
	C394.307,8.527,390.858,7.907,387.264,7.907z"/>
<path style="fill:#474756;" d="M150.636,367.681h197.468c15.855,0,28.709-12.853,28.709-28.709V185.195V116.47H121.927v222.502
	C121.927,354.827,134.78,367.681,150.636,367.681z"/>
<rect x="69.61" y="153.38" style="fill:#FFFFFF;" width="376.36" height="251.14"/>
<path style="fill:#DFE2EA;" d="M356.302,38.866c0-17.098,13.861-30.959,30.96-30.959H130.125c-15.855,0-28.709,12.853-28.709,28.709
	v302.356c0,15.855,12.853,28.709,28.709,28.709h197.468c15.855,0,28.709-12.853,28.709-28.709V185.195V38.866L356.302,38.866z"/>
<path style="fill:#86E56E;" d="M197.58,117.866h-49c-7.65,0-13.851-6.201-13.851-13.851v-49c0-7.65,6.201-13.851,13.851-13.851h49
	c7.65,0,13.851,6.201,13.851,13.851v49C211.431,111.664,205.229,117.866,197.58,117.866z"/>
<path style="fill:#FF6B5C;" d="M197.58,226.145h-49c-7.65,0-13.851-6.201-13.851-13.851v-49c0-7.65,6.201-13.851,13.851-13.851h49
	c7.65,0,13.851,6.201,13.851,13.851v49C211.431,219.942,205.229,226.145,197.58,226.145z"/>
<path style="fill:#86E56E;" d="M197.58,334.423h-49c-7.65,0-13.851-6.201-13.851-13.851v-49c0-7.65,6.201-13.851,13.851-13.851h49
	c7.65,0,13.851,6.201,13.851,13.851v49C211.431,328.221,205.229,334.423,197.58,334.423z"/>
<g>
	<path style="fill:#FFFFFF;" d="M164.788,92.411c1.481,1.481,3.423,2.222,5.364,2.222s3.883-0.741,5.364-2.222l15.232-15.232
		c2.963-2.962,2.963-7.766,0-10.728c-2.962-2.962-7.766-2.962-10.728,0l-9.868,9.868l-2.199-2.199
		c-2.962-2.962-7.766-2.962-10.728,0c-2.963,2.962-2.963,7.766,0,10.728L164.788,92.411z"/>
	<path style="fill:#FFFFFF;" d="M180.02,283.009l-9.868,9.868l-2.199-2.199c-2.962-2.962-7.766-2.962-10.728,0
		c-2.963,2.962-2.963,7.766,0,10.728l7.563,7.563c1.481,1.481,3.423,2.222,5.364,2.222s3.883-0.741,5.364-2.222l15.232-15.232
		c2.963-2.962,2.963-7.766,0-10.728S182.982,280.047,180.02,283.009z"/>
	<path style="fill:#FFFFFF;" d="M183.533,186.79l7.638-7.638c2.963-2.962,2.963-7.766,0-10.728c-2.962-2.962-7.766-2.962-10.728,0
		l-7.638,7.638l-7.638-7.638c-2.962-2.963-7.765-2.962-10.728,0s-2.963,7.766,0,10.728l7.638,7.638l-7.638,7.638
		c-2.963,2.962-2.963,7.766,0,10.728c1.481,1.481,3.423,2.222,5.364,2.222s3.883-0.741,5.364-2.222l7.638-7.638l7.638,7.638
		c1.481,1.482,3.423,2.222,5.364,2.222s3.883-0.741,5.364-2.222c2.963-2.962,2.963-7.766,0-10.728L183.533,186.79z"/>
</g>
<g>
	<path style="fill:#C7CAD3;" d="M318.562,69.99H240.04c-4.19,0-7.586-3.396-7.586-7.586s3.396-7.586,7.586-7.586h78.522
		c4.19,0,7.586,3.396,7.586,7.586C326.148,66.593,322.752,69.99,318.562,69.99z"/>
	<path style="fill:#C7CAD3;" d="M289.659,101.598H240.04c-4.19,0-7.586-3.396-7.586-7.586s3.396-7.586,7.586-7.586h49.619
		c4.19,0,7.586,3.396,7.586,7.586S293.848,101.598,289.659,101.598z"/>
	<path style="fill:#C7CAD3;" d="M318.562,178.572H240.04c-4.19,0-7.586-3.396-7.586-7.586s3.396-7.586,7.586-7.586h78.522
		c4.19,0,7.586,3.396,7.586,7.586S322.752,178.572,318.562,178.572z"/>
	<path style="fill:#C7CAD3;" d="M289.659,210.18H240.04c-4.19,0-7.586-3.396-7.586-7.586s3.396-7.586,7.586-7.586h49.619
		c4.19,0,7.586,3.396,7.586,7.586S293.848,210.18,289.659,210.18z"/>
	<path style="fill:#C7CAD3;" d="M318.562,286.536H240.04c-4.19,0-7.586-3.396-7.586-7.586s3.396-7.586,7.586-7.586h78.522
		c4.19,0,7.586,3.396,7.586,7.586S322.752,286.536,318.562,286.536z"/>
	<path style="fill:#C7CAD3;" d="M289.659,318.144H240.04c-4.19,0-7.586-3.396-7.586-7.586s3.396-7.586,7.586-7.586h49.619
		c4.19,0,7.586,3.396,7.586,7.586S293.848,318.144,289.659,318.144z"/>
</g>
<path d="M504.414,433.202h-17.022V150.052c0-22.7-18.179-41.169-40.525-41.169h-21.061V38.866c0-21.254-17.291-38.545-38.545-38.545
	H130.125c-20.013,0-36.295,16.281-36.295,36.295v35.199c0,4.19,3.396,7.586,7.586,7.586s7.586-3.396,7.586-7.586V36.616
	c0-11.647,9.476-21.123,21.123-21.123H356.64c-4.965,6.489-7.924,14.59-7.924,23.373l0,0v76.657
	c-0.039,0.311-0.065,0.625-0.065,0.946s0.026,0.636,0.065,0.946v35.019c-0.039,0.311-0.065,0.625-0.065,0.946
	s0.026,0.636,0.065,0.946v184.644c0,11.647-9.476,21.123-21.123,21.123H130.125c-11.647,0-21.123-9.476-21.123-21.123V101.598
	c0-4.19-3.396-7.586-7.586-7.586s-7.586,3.396-7.586,7.586v7.286H65.132c-22.345,0-40.524,18.468-40.524,41.169v254.466
	c0,4.19,3.396,7.586,7.586,7.586s7.586-3.396,7.586-7.586V150.052c0-14.335,11.373-25.997,25.352-25.997H93.83v21.74H69.614
	c-4.19,0-7.586,3.396-7.586,7.586v251.137c0,4.19,3.396,7.586,7.586,7.586h376.357c4.19,0,7.586-3.396,7.586-7.586V245.268
	c0-4.19-3.396-7.586-7.586-7.586s-7.586,3.396-7.586,7.586v151.666H77.2V160.967h16.63v178.004
	c0,20.013,16.281,36.295,36.295,36.295h197.468c20.013,0,36.295-16.282,36.295-36.295V160.967h74.498v39.698
	c0,4.19,3.396,7.586,7.586,7.586s7.586-3.396,7.586-7.586v-47.284c0-4.19-3.396-7.586-7.586-7.586h-82.083v-21.74h54.324
	c0.003,0,0.006,0,0.01,0c0.003,0,0.006,0,0.01,0h28.637c13.98,0,25.353,11.662,25.353,25.997v283.149H7.586
	c-4.19,0-7.586,3.396-7.586,7.586v15.867c0,30.341,24.684,55.025,55.025,55.025h401.95c30.341,0,55.025-24.684,55.025-55.025
	v-15.867C512,436.598,508.604,433.202,504.414,433.202z M410.635,38.866v70.018h-46.747V38.867l0,0
	c0-12.888,10.485-23.373,23.374-23.373C400.149,15.493,410.635,25.978,410.635,38.866z M496.828,456.654
	c0,21.975-17.878,39.853-39.853,39.853H55.025c-21.975,0-39.853-17.878-39.853-39.853v-8.281h462.941
	c0.545,0.125,1.111,0.197,1.694,0.197s1.148-0.072,1.694-0.197h15.328v8.281H496.828z"/>
<path d="M148.58,125.451h49c11.82,0,21.437-9.616,21.437-21.437v-49c0-11.82-9.616-21.437-21.437-21.437h-49
	c-11.82,0-21.437,9.617-21.437,21.437v49C127.143,115.835,136.76,125.451,148.58,125.451z M142.315,55.015
	c0-3.455,2.81-6.265,6.265-6.265h49c3.455,0,6.265,2.811,6.265,6.265v49c0,3.455-2.81,6.265-6.265,6.265h-49
	c-3.455,0-6.265-2.81-6.265-6.265V55.015z"/>
<path d="M164.787,92.411c1.481,1.481,3.423,2.222,5.364,2.222s3.883-0.741,5.364-2.222l15.232-15.232
	c2.963-2.962,2.963-7.766,0-10.728c-2.962-2.962-7.766-2.962-10.728,0l-9.868,9.868l-2.198-2.198c-2.962-2.962-7.766-2.962-10.728,0
	c-2.963,2.962-2.963,7.766,0,10.728L164.787,92.411z"/>
<path d="M127.143,212.292c0,11.82,9.616,21.437,21.437,21.437h49c11.82,0,21.437-9.617,21.437-21.437v-48.999
	c0-11.82-9.616-21.437-21.437-21.437h-49c-11.82,0-21.437,9.617-21.437,21.437C127.143,163.294,127.143,212.292,127.143,212.292z
	 M142.315,163.294c0-3.455,2.81-6.265,6.265-6.265h49c3.455,0,6.265,2.811,6.265,6.265v48.999c0,3.455-2.81,6.265-6.265,6.265h-49
	c-3.455,0-6.265-2.811-6.265-6.265V163.294z"/>
<path d="M127.143,320.572c0,11.82,9.616,21.437,21.437,21.437h49c11.82,0,21.437-9.617,21.437-21.437v-48.999
	c0-11.82-9.616-21.437-21.437-21.437h-49c-11.82,0-21.437,9.617-21.437,21.437C127.143,271.573,127.143,320.572,127.143,320.572z
	 M142.315,271.573c0-3.455,2.81-6.265,6.265-6.265h49c3.455,0,6.265,2.811,6.265,6.265v48.999c0,3.455-2.81,6.265-6.265,6.265h-49
	c-3.455,0-6.265-2.811-6.265-6.265V271.573z"/>
<path d="M164.787,308.969c1.423,1.423,3.352,2.222,5.364,2.222s3.942-0.799,5.364-2.222l15.232-15.232
	c2.963-2.962,2.963-7.766,0-10.728c-2.962-2.962-7.766-2.962-10.728,0l-9.868,9.868l-2.198-2.198c-2.963-2.962-7.766-2.962-10.728,0
	c-2.962,2.963-2.963,7.766,0,10.728L164.787,308.969z"/>
<path d="M154.44,205.156c1.481,1.481,3.423,2.222,5.364,2.222s3.883-0.741,5.364-2.222l7.638-7.638l7.638,7.638
	c1.481,1.481,3.423,2.222,5.364,2.222s3.883-0.741,5.364-2.222c2.963-2.962,2.963-7.766,0-10.728l-7.638-7.638l7.638-7.638
	c2.963-2.962,2.963-7.766,0-10.728c-2.962-2.962-7.766-2.962-10.728,0l-7.638,7.638l-7.638-7.638c-2.962-2.962-7.766-2.962-10.728,0
	c-2.963,2.962-2.963,7.766,0,10.728l7.638,7.638l-7.638,7.638C151.477,197.391,151.477,202.195,154.44,205.156z"/>
<path d="M240.04,69.991h78.522c4.19,0,7.586-3.396,7.586-7.586s-3.396-7.586-7.586-7.586H240.04c-4.19,0-7.586,3.396-7.586,7.586
	S235.851,69.991,240.04,69.991z"/>
<path d="M240.04,101.598h49.619c4.19,0,7.586-3.396,7.586-7.586s-3.396-7.586-7.586-7.586H240.04c-4.19,0-7.586,3.396-7.586,7.586
	S235.851,101.598,240.04,101.598z"/>
<path d="M240.04,178.572h78.522c4.19,0,7.586-3.396,7.586-7.586s-3.396-7.586-7.586-7.586H240.04c-4.19,0-7.586,3.396-7.586,7.586
	S235.851,178.572,240.04,178.572z"/>
<path d="M240.04,210.18h49.619c4.19,0,7.586-3.396,7.586-7.586s-3.396-7.586-7.586-7.586H240.04c-4.19,0-7.586,3.396-7.586,7.586
	S235.851,210.18,240.04,210.18z"/>
<path d="M240.04,286.536h78.522c4.19,0,7.586-3.396,7.586-7.586s-3.396-7.586-7.586-7.586H240.04c-4.19,0-7.586,3.396-7.586,7.586
	S235.851,286.536,240.04,286.536z"/>
<path d="M240.04,318.144h49.619c4.19,0,7.586-3.396,7.586-7.586s-3.396-7.586-7.586-7.586H240.04c-4.19,0-7.586,3.396-7.586,7.586
	S235.851,318.144,240.04,318.144z"/>
<g>
</g>
<g>
</g>
<g>
</g>
<g>
</g>
<g>
</g>
<g>
</g>
<g>
</g>
<g>
</g>
<g>
</g>
<g>
</g>
<g>
</g>
<g>
</g>
<g>
</g>
<g>
</g>
<g>
</g>
</svg>
