<?xml version="1.0" encoding="iso-8859-1"?>
<!-- Generator: Adobe Illustrator 19.0.0, SVG Export Plug-In . SVG Version: 6.00 Build 0)  -->
<svg version="1.1" id="Capa_1" xmlns="http://www.w3.org/2000/svg" xmlns:xlink="http://www.w3.org/1999/xlink" x="0px" y="0px"
	 viewBox="0 0 512 512" style="enable-background:new 0 0 512 512;" xml:space="preserve">
<circle style="fill:#DEAF73;" cx="189.82" cy="72.916" r="63.55"/>
<path style="fill:#FF80BD;" d="M344.77,270.351l-9.423-2.205h-150.09l-9.423,2.205c-23.993,5.614-40.962,27.011-40.962,51.653
	v37.587h250.86v-37.587C385.731,297.362,368.763,275.965,344.77,270.351z"/>
<path style="fill:#FAD7A5;" d="M260.302,314.175c32.757,0,61.124-18.718,75.045-46.029l-19.849-4.644
	c-13.145-3.076-22.441-14.798-22.441-28.298v-33.181h-65.51v33.181c0,13.5-9.296,25.223-22.441,28.298l-19.849,4.644
	C199.178,295.458,227.545,314.175,260.302,314.175z"/>
<path style="fill:#F0C891;" d="M293.056,235.204v-33.181h-65.51v33.181c0,1.007-0.058,2.003-0.159,2.988
	c9.507,4.733,20.219,7.409,31.56,7.409l0,0c12.386,0,24.026-3.182,34.16-8.763C293.077,236.296,293.056,235.752,293.056,235.204z"/>
<path style="fill:#FFE1B3;" d="M258.948,229.624L258.948,229.624c-39.171,0-70.926-31.754-70.926-70.925v-57.985
	c0-39.171,31.754-70.925,70.925-70.925l0,0c39.171,0,70.925,31.754,70.925,70.925v57.985
	C329.873,197.869,298.119,229.624,258.948,229.624z"/>
<path style="fill:#FAD7A5;" d="M270.738,30.782c18.717,12.768,31.01,34.26,31.01,58.627v57.985
	c0,39.171-31.754,70.925-70.926,70.925l0,0c-4.019,0-7.954-0.352-11.79-0.994c11.371,7.757,25.112,12.298,39.916,12.298l0,0
	c39.171,0,70.926-31.754,70.926-70.925v-57.985C329.873,65.561,304.294,36.399,270.738,30.782z"/>
<g>
	<rect x="172.5" y="95.22" style="fill:#CD905A;" width="15.517" height="27.432"/>
	<path style="fill:#CD905A;" d="M185.188,52.768c-3.585,5.743-8.398,14.995-10.946,27.272c-2.209,10.647-1.928,19.777-1.238,26.067
		c8.629-2.13,15.364-5.178,20.029-7.686c1.841-0.99,10.943-5.97,20.436-15.166l0,0L185.188,52.768z"/>
</g>
<path style="fill:#D59F63;" d="M349.323,92.904c-6.04-22.374-16.069-43.679-32.382-59.458c-5.288-5.115-25.158-24.335-54.567-25.855
	c0,0-30.688-1.585-57.186,20.963c-3.997,3.401-7.642,7.164-10.964,11.222s-6.324,8.41-9.036,12.992
	c24.664,35.288,61.665,57.729,103.037,57.729c10.188,0,31.476-3.108,41.648-9.783L349.323,92.904z"/>
<path style="fill:#CD905A;" d="M316.941,33.446c-5.288-5.115-25.158-24.335-54.567-25.855c0,0-7.44-0.378-18.148,1.92
	c22.124,5.319,36.92,19.627,41.373,23.935c16.313,15.78,26.342,37.084,32.382,59.458l-19.45,7.809
	c-6.458,4.238-17.395,7.036-27.129,8.516c5.512,0.827,11.124,1.267,16.823,1.267c10.188,0,31.476-3.108,41.648-9.783l19.45-7.809
	C343.283,70.53,333.254,49.226,316.941,33.446z"/>
<path style="fill:#53515E;" d="M344.891,170.418h-15.018v-64.311h15.018c7.143,0,12.933,5.79,12.933,12.933v38.445
	C357.824,164.628,352.034,170.418,344.891,170.418z"/>
<rect x="329.87" y="106.11" style="fill:#474756;" width="11.937" height="64.31"/>
<path style="fill:#53515E;" d="M173.004,106.108h15.018v64.311h-15.018c-7.143,0-12.933-5.79-12.933-12.933V119.04
	C160.071,111.898,165.861,106.108,173.004,106.108z"/>
<rect x="176.94" y="106.11" style="fill:#474756;" width="11.08" height="64.31"/>
<g>
	<path style="fill:#FF5CA6;" d="M151.154,296.132h-9.527c-4.32,7.668-6.756,16.481-6.756,25.762v37.697h47.148v-32.594
		C182.02,309.951,168.201,296.132,151.154,296.132z"/>
	<path style="fill:#FF5CA6;" d="M369.449,296.132h9.527c4.32,7.668,6.756,16.481,6.756,25.762v37.697h-47.148v-32.594
		C338.583,309.951,352.402,296.132,369.449,296.132z"/>
</g>
<path style="fill:#53515E;" d="M466.528,504.434H45.472c-12.743,0-23.073-10.33-23.073-23.073v-98.642
	c0-12.743,10.33-23.073,23.073-23.073h421.057c12.743,0,23.073,10.33,23.073,23.073v98.642
	C489.602,494.103,479.272,504.434,466.528,504.434z"/>
<path style="fill:#474756;" d="M466.528,483.585H45.472c-12.743,0-23.073-10.33-23.073-23.074v20.849
	c0,12.743,10.33,23.073,23.073,23.073h421.057c12.743,0,23.073-10.33,23.073-23.073v-20.849
	C489.602,473.254,479.272,483.585,466.528,483.585z"/>
<path style="fill:#FFDF47;" d="M107.488,388.15l12.236,24.793c0.484,0.98,1.419,1.659,2.5,1.817l27.361,3.976
	c2.724,0.396,3.811,3.743,1.84,5.664l-19.799,19.299c-0.783,0.763-1.14,1.862-0.955,2.939l4.674,27.251
	c0.465,2.713-2.382,4.781-4.818,3.501l-24.473-12.866c-0.967-0.509-2.123-0.509-3.091,0l-24.47,12.866
	c-2.436,1.281-5.283-0.788-4.818-3.501l4.674-27.251c0.185-1.077-0.172-2.176-0.955-2.939l-19.8-19.299
	c-1.971-1.921-0.883-5.268,1.84-5.664l27.361-3.976c1.082-0.157,2.017-0.836,2.5-1.817l12.236-24.793
	C102.751,385.682,106.27,385.682,107.488,388.15z"/>
<path style="fill:#FFD400;" d="M151.426,424.4c1.971-1.921,0.883-5.268-1.84-5.664l-27.361-3.976
	c-1.082-0.157-2.017-0.836-2.5-1.817l-12.236-24.793c-1.218-2.468-4.737-2.468-5.956,0l-12.236,24.793
	c-0.25,0.506-0.621,0.929-1.069,1.244l3.008,6.096c0.484,0.98,1.419,1.659,2.5,1.817l27.361,3.976
	c2.724,0.396,3.811,3.743,1.84,5.664l-19.799,19.299c-0.783,0.763-1.14,1.862-0.955,2.939l1.753,10.22
	c0.714-0.125,1.46-0.021,2.118,0.326l24.473,12.866c2.436,1.281,5.284-0.788,4.818-3.501l-4.674-27.251
	c-0.185-1.077,0.172-2.176,0.955-2.939L151.426,424.4z"/>
<path style="fill:#FFDF47;" d="M260.659,388.15l12.236,24.793c0.484,0.98,1.419,1.659,2.5,1.817l27.361,3.976
	c2.724,0.396,3.811,3.743,1.84,5.664l-19.799,19.299c-0.783,0.763-1.14,1.862-0.955,2.939l4.674,27.251
	c0.465,2.713-2.382,4.781-4.818,3.501l-24.473-12.866c-0.967-0.509-2.123-0.509-3.091,0l-24.473,12.866
	c-2.436,1.281-5.283-0.788-4.818-3.501l4.674-27.251c0.185-1.077-0.172-2.176-0.955-2.939L210.766,424.4
	c-1.971-1.921-0.883-5.268,1.84-5.664l27.361-3.976c1.082-0.157,2.017-0.836,2.5-1.817l12.236-24.793
	C255.922,385.682,259.441,385.682,260.659,388.15z"/>
<path style="fill:#FFD400;" d="M304.597,424.4c1.971-1.921,0.883-5.268-1.84-5.664l-27.361-3.976
	c-1.082-0.157-2.017-0.836-2.5-1.817L260.66,388.15c-1.218-2.468-4.737-2.468-5.956,0l-12.236,24.793
	c-0.25,0.506-0.621,0.929-1.069,1.244l3.008,6.096c0.484,0.98,1.419,1.659,2.5,1.817l27.361,3.976
	c2.724,0.396,3.811,3.743,1.84,5.664l-19.799,19.299c-0.783,0.763-1.14,1.862-0.955,2.939l1.753,10.22
	c0.714-0.125,1.46-0.021,2.118,0.326l24.473,12.866c2.436,1.281,5.284-0.788,4.818-3.501l-4.674-27.251
	c-0.185-1.077,0.172-2.176,0.955-2.939L304.597,424.4z"/>
<path style="fill:#FFDF47;" d="M413.83,388.15l12.236,24.793c0.484,0.98,1.419,1.659,2.5,1.817l27.361,3.976
	c2.724,0.396,3.811,3.743,1.84,5.664l-19.799,19.299c-0.783,0.763-1.14,1.862-0.955,2.939l4.674,27.251
	c0.465,2.713-2.382,4.781-4.818,3.501l-24.473-12.866c-0.967-0.509-2.123-0.509-3.091,0l-24.473,12.866
	c-2.436,1.281-5.283-0.788-4.818-3.501l4.674-27.251c0.185-1.077-0.172-2.176-0.955-2.939L363.937,424.4
	c-1.971-1.921-0.883-5.268,1.84-5.664l27.361-3.976c1.082-0.157,2.017-0.836,2.5-1.817l12.236-24.793
	C409.093,385.682,412.612,385.682,413.83,388.15z"/>
<path style="fill:#FFD400;" d="M457.768,424.4c1.971-1.921,0.883-5.268-1.84-5.664l-27.361-3.976
	c-1.082-0.157-2.017-0.836-2.5-1.817L413.83,388.15c-1.218-2.468-4.737-2.468-5.956,0l-12.236,24.793
	c-0.25,0.506-0.621,0.929-1.069,1.244l3.008,6.096c0.484,0.98,1.419,1.659,2.5,1.817l27.361,3.976
	c2.724,0.396,3.811,3.743,1.84,5.664l-19.799,19.299c-0.783,0.763-1.14,1.862-0.955,2.939l1.753,10.22
	c0.714-0.125,1.46-0.021,2.118,0.326l24.473,12.866c2.436,1.281,5.284-0.788,4.818-3.501l-4.674-27.251
	c-0.185-1.077,0.172-2.176,0.955-2.939L457.768,424.4z"/>
<path d="M150.674,411.249l-25.152-3.655l-11.248-22.792c-1.848-3.743-5.588-6.069-9.763-6.069c-4.174,0-7.915,2.325-9.763,6.069
	L83.5,407.594l-25.153,3.655c-4.131,0.6-7.498,3.44-8.788,7.41s-0.234,8.246,2.755,11.16l18.2,17.741l-4.296,25.052
	c-0.705,4.114,0.955,8.194,4.331,10.648c3.377,2.453,7.769,2.77,11.466,0.829l22.497-11.828l22.497,11.827
	c1.607,0.845,3.346,1.262,5.076,1.262c2.248,0,4.481-0.704,6.389-2.091c3.377-2.454,5.037-6.534,4.331-10.648l-4.296-25.051
	l18.2-17.741c2.989-2.914,4.045-7.19,2.755-11.16C158.173,414.688,154.805,411.849,150.674,411.249z M126.346,438.281
	c-2.566,2.502-3.737,6.104-3.131,9.636l3.22,18.773l-16.857-8.862c-3.172-1.668-6.961-1.669-10.134-0.001l-16.859,8.863
	l3.219-18.769c0.607-3.533-0.563-7.137-3.13-9.64l-13.638-13.295l18.848-2.739c3.547-0.515,6.612-2.742,8.198-5.955l8.429-17.08
	l8.429,17.079c1.586,3.214,4.651,5.441,8.197,5.956l18.849,2.739L126.346,438.281z"/>
<path d="M303.845,411.249l-25.152-3.655l-11.248-22.792c-1.848-3.743-5.588-6.069-9.763-6.069s-7.915,2.325-9.763,6.069
	l-11.248,22.792l-25.153,3.655c-4.131,0.6-7.499,3.44-8.788,7.41c-1.29,3.97-0.234,8.246,2.755,11.16l18.2,17.741l-4.296,25.05
	c-0.706,4.115,0.954,8.195,4.331,10.649c1.909,1.387,4.141,2.091,6.389,2.091c1.73,0,3.469-0.417,5.076-1.262l22.497-11.828
	l22.497,11.828c3.695,1.943,8.088,1.625,11.465-0.829c3.377-2.454,5.037-6.534,4.331-10.648l-4.296-25.051l18.2-17.741
	c2.989-2.914,4.045-7.19,2.755-11.16C311.344,414.688,307.976,411.849,303.845,411.249z M279.517,438.281
	c-2.567,2.503-3.737,6.106-3.13,9.636l3.22,18.773l-16.857-8.862c-1.587-0.834-3.327-1.252-5.068-1.252
	c-1.74,0-3.48,0.417-5.066,1.251l-16.858,8.863l3.22-18.773c0.606-3.532-0.565-7.134-3.131-9.636l-13.638-13.295l18.848-2.739
	c3.547-0.515,6.612-2.742,8.198-5.955l8.429-17.08l8.429,17.079c1.586,3.214,4.651,5.441,8.197,5.956l18.848,2.739L279.517,438.281z
	"/>
<path d="M457.016,411.249l-25.152-3.655l-11.249-22.792c-1.848-3.743-5.588-6.069-9.763-6.069c-4.174,0-7.915,2.325-9.763,6.069
	l-11.249,22.792l-25.153,3.655c-4.131,0.6-7.498,3.44-8.788,7.41s-0.234,8.246,2.755,11.16l18.2,17.741l-4.296,25.05
	c-0.706,4.115,0.953,8.195,4.33,10.649c3.378,2.453,7.77,2.771,11.466,0.829l22.497-11.828l22.497,11.828
	c1.607,0.845,3.346,1.262,5.076,1.262c2.248,0,4.481-0.705,6.389-2.091c3.377-2.454,5.036-6.534,4.33-10.648l-4.296-25.051
	l18.2-17.741c2.989-2.914,4.045-7.19,2.755-11.16C464.515,414.688,461.148,411.849,457.016,411.249z M432.688,438.281
	c-2.566,2.502-3.737,6.104-3.131,9.636l3.22,18.773l-16.857-8.862c-1.587-0.834-3.327-1.252-5.068-1.252
	c-1.74,0-3.48,0.417-5.066,1.251l-16.858,8.863l3.22-18.773c0.606-3.532-0.565-7.134-3.131-9.636l-13.638-13.295l18.848-2.739
	c3.547-0.515,6.612-2.742,8.198-5.955l8.429-17.079l8.429,17.079c1.586,3.214,4.651,5.441,8.197,5.956l18.848,2.739L432.688,438.281
	z"/>
<circle cx="230.82" cy="128.39" r="7.5"/>
<circle cx="284.28" cy="128.39" r="7.5"/>
<path d="M466.528,352.078h-73.234V322c0-28.301-19.247-52.571-46.804-59.019l-29.271-6.849
	c-9.774-2.287-16.599-10.894-16.599-20.931v-10.038c7.544-4.747,14.221-10.739,19.752-17.689
	c16.805-0.336,30.436-13.816,31.011-30.563c8.125-2.725,14.003-10.395,14.003-19.427V119.04c0-8.732-5.497-16.186-13.205-19.134
	c3.529-1.443,5.438-5.288,4.442-8.974c-7.182-26.604-18.764-47.775-34.425-62.924c-18.043-17.456-38.04-26.868-59.435-27.973
	c-0.992-0.052-19.862-0.853-41.311,9.18c-9.783-4.859-20.634-7.416-31.634-7.416c-39.214,0-71.117,31.903-71.117,71.116
	c0,24.838,12.841,47.631,33.802,60.548v24.02c0,11.303,9.196,20.499,20.499,20.499h9.856c5.283,20.83,18.922,38.35,37.119,48.805
	v8.413c0,10.037-6.825,18.645-16.598,20.931l-29.271,6.849c-27.558,6.448-46.804,30.717-46.804,59.019v30.078H45.472
	c-16.895,0-30.64,13.745-30.64,30.64v98.643c0,16.895,13.745,30.64,30.64,30.64h421.056c16.895,0,30.64-13.745,30.64-30.64v-98.643
	C497.168,365.823,483.423,352.078,466.528,352.078z M332.327,186.516c1.056-2.775,1.967-5.619,2.706-8.534h1.087
	C335.693,181.212,334.341,184.149,332.327,186.516z M350.255,119.039v38.444c0,2.959-2.407,5.366-5.366,5.366h-7.451v-4.154v-45.024
	h7.451C347.847,113.672,350.255,116.08,350.255,119.039z M164.999,100.169c-6.144,2.616-10.755,8.148-12.094,14.848
	c-11.986-10.498-19.071-25.736-19.071-42.102c0-30.87,25.114-55.984,55.984-55.984c5.16,0,10.275,0.719,15.195,2.102
	c-0.135,0.1-0.27,0.193-0.405,0.295c-3.337,2.515-4.004,7.258-1.49,10.596c2.515,3.338,7.259,4.005,10.596,1.49
	c22.833-17.203,48.037-16.281,48.268-16.265c17.636,0.911,34.356,8.897,49.696,23.736c12.419,12.013,21.979,28.661,28.469,49.549
	l-13.096,5.258c-0.466,0.187-0.912,0.42-1.332,0.696c-8.065,5.293-27.275,8.542-37.497,8.542c-25.041,0-49.16-8.947-69.636-25.282
	l-23.903-25.767c0.24-0.36,0.479-0.722,0.722-1.075c2.364-3.446,1.487-8.155-1.959-10.52c-3.446-2.363-8.155-1.487-10.52,1.959
	c-1.43,2.085-2.826,4.276-4.153,6.51c-0.002,0.003-0.004,0.005-0.005,0.008c-0.007,0.012-0.014,0.024-0.021,0.035
	c-0.023,0.04-0.049,0.078-0.072,0.117c-0.005,0.008-0.008,0.016-0.012,0.024c-5.672,9.129-9.654,19.074-11.831,29.564
	C165.352,85.638,164.744,92.9,164.999,100.169z M180.455,158.696v4.154h-7.452c-2.959,0-5.366-2.407-5.366-5.366V119.04
	c0-2.959,2.407-5.367,5.366-5.367h7.452V158.696z M186.273,93.357c-0.969,0.23-1.865,0.644-2.65,1.206
	c-1.17,0.506-2.35,0.994-3.548,1.444c0.062-4.845,0.587-9.672,1.575-14.432c1.055-5.086,2.641-10.009,4.695-14.745
	c4.885,5.989,10.098,11.503,15.597,16.514c-5.571,4.484-10.324,7.246-12.492,8.411C188.407,92.316,187.345,92.845,186.273,93.357z
	 M195.588,158.696v-52.59v-0.49c0.342-0.178,0.688-0.349,1.027-0.531c2.898-1.558,9.668-5.503,17.255-11.981
	c22.092,16.161,47.721,24.957,74.354,24.957c8.435,0,22.56-1.825,34.081-5.662v46.297c0,12.363-3.572,23.9-9.72,33.661h-46.302
	c-4.179,0-7.566,3.388-7.566,7.566s3.388,7.566,7.566,7.566h33.033c-10.97,9.092-25.042,14.565-40.37,14.565
	C224.01,222.055,195.588,193.632,195.588,158.696z M260.037,188.229c-9.299,0-18.041-3.621-24.617-10.197
	c-2.929-2.929-2.929-7.678,0-10.606c2.929-2.929,7.678-2.93,10.606,0c3.742,3.743,8.718,5.803,14.01,5.803
	c5.292,0,10.268-2.061,14.011-5.803c2.929-2.929,7.678-2.93,10.606,0c2.929,2.929,2.929,7.677,0,10.606
	C278.079,184.607,269.336,188.229,260.037,188.229z M482.036,481.36c0,8.551-6.956,15.507-15.507,15.507H45.472
	c-8.551,0-15.507-6.956-15.507-15.507v-98.643c0-8.551,6.956-15.507,15.507-15.507h121.752c4.179,0,7.566-3.388,7.566-7.566
	c0-4.179-3.388-7.566-7.566-7.566h-24.786V322c0-21.236,14.441-39.447,35.119-44.285l3.865-0.904
	c4.276,7.193,9.491,13.77,15.588,19.585c1.465,1.397,3.344,2.091,5.221,2.091c1.996,0,3.99-0.786,5.476-2.344
	c2.884-3.023,2.771-7.813-0.253-10.697c-3.92-3.739-7.411-7.85-10.44-12.283l9.814-2.296c16.653-3.896,28.283-18.563,28.283-35.666
	v-1.724c7.521,2.403,15.527,3.711,23.835,3.711c9.313,0,18.247-1.639,26.542-4.629v2.642c0,17.103,11.631,31.769,28.284,35.666
	l9.815,2.297c-14.181,20.839-37.637,33.442-63.287,33.442c-11.262,0-22.106-2.386-32.23-7.092
	c-3.791-1.762-8.289-0.118-10.051,3.672c-1.761,3.79-0.117,8.289,3.672,10.051c12.138,5.642,25.127,8.502,38.609,8.502
	c32.674,0,62.379-17.069,78.894-44.923l3.849,0.901c20.678,4.838,35.119,23.049,35.119,44.285v30.078H201.188
	c-4.179,0-7.566,3.388-7.566,7.566c0,4.179,3.388,7.566,7.566,7.566h265.34c8.551,0,15.507,6.956,15.507,15.507v98.641H482.036z"/>
<g>
</g>
<g>
</g>
<g>
</g>
<g>
</g>
<g>
</g>
<g>
</g>
<g>
</g>
<g>
</g>
<g>
</g>
<g>
</g>
<g>
</g>
<g>
</g>
<g>
</g>
<g>
</g>
<g>
</g>
</svg>
