<?xml version="1.0" encoding="iso-8859-1"?>
<!-- Generator: Adobe Illustrator 19.0.0, SVG Export Plug-In . SVG Version: 6.00 Build 0)  -->
<svg version="1.1" id="Capa_1" xmlns="http://www.w3.org/2000/svg" xmlns:xlink="http://www.w3.org/1999/xlink" x="0px" y="0px"
	 viewBox="0 0 512.001 512.001" style="enable-background:new 0 0 512.001 512.001;" xml:space="preserve">
<path style="fill:#53515E;" d="M479.713,388.809V95.826c0-18.54-14.741-33.569-32.925-33.569H65.208
	c-18.184,0-32.925,15.029-32.925,33.569v292.786"/>
<path style="fill:#DFE2EA;" d="M299.893,386.443L299.893,386.443c-37.201,0-52.436,0-88.055,0l0,0H7.685v15.86
	c0,26.189,21.231,47.42,47.42,47.42h401.786c26.189,0,47.42-21.231,47.42-47.42v-15.86L299.893,386.443L299.893,386.443z"/>
<path style="fill:#C7CAD3;" d="M10.385,418.083c6.503,18.429,24.065,31.64,44.72,31.64h401.786c20.655,0,38.216-13.211,44.72-31.64
	H299.893c-37.201,0-52.435,0-88.055,0L10.385,418.083L10.385,418.083z"/>
<rect x="69.69" y="99.151" style="fill:#FFFFFF;" width="376.2" height="251.03"/>
<path style="fill:#E9EBF2;" d="M401.307,99.154v24.324c0,103.11-83.587,186.697-186.697,186.697H69.688v40.014h376.204V99.154
	H401.307z"/>
<circle style="fill:#53515E;" cx="256.3" cy="215.491" r="43.09"/>
<path style="fill:#474756;" d="M256.295,172.401c-3.144,0-6.205,0.346-9.158,0.985c19.397,4.2,33.931,21.451,33.931,42.105
	s-14.535,37.905-33.931,42.104c2.952,0.639,6.014,0.985,9.158,0.985c23.798,0,43.089-19.292,43.089-43.089
	C299.384,191.692,280.092,172.401,256.295,172.401z"/>
<path style="fill:#FF6B5C;" d="M205.64,211.156c-1.521,7.26-2.342,14.974-2.342,22.97c0,42.932,23.596,77.735,52.702,77.735
	s52.702-34.803,52.702-77.735c0-7.997-0.821-15.71-2.342-22.97L205.64,211.156L205.64,211.156z"/>
<g>
	<path style="fill:#D85750;" d="M306.36,211.156h-18.021c1.521,7.26,2.342,14.974,2.342,22.97c0,38.398-18.88,70.272-43.691,76.58
		c2.93,0.745,5.937,1.155,9.01,1.155c29.106,0,52.702-34.803,52.702-77.735C308.702,226.13,307.881,218.417,306.36,211.156z"/>
	<path style="fill:#D85750;" d="M256.294,230.233c-4.246,0-7.687,3.442-7.687,7.687v73.165c2.417,0.501,4.882,0.777,7.393,0.777
		c2.713,0,5.378-0.304,7.981-0.887v-73.054C263.981,233.675,260.54,230.233,256.294,230.233z"/>
</g>
<g>
	<circle style="fill:#FFFFFF;" cx="239.98" cy="197.001" r="6.06"/>
	<circle style="fill:#FFFFFF;" cx="271.3" cy="197.001" r="6.06"/>
</g>
<path d="M504.313,378.767H108.414c-4.246,0-7.687,3.442-7.687,7.687s3.441,7.687,7.687,7.687h388.213v8.173
	c0,21.909-17.824,39.733-39.733,39.733H55.107c-21.909,0-39.733-17.824-39.733-39.734v-8.173h60.584
	c4.246,0,7.687-3.442,7.687-7.687s-3.441-7.687-7.687-7.687H39.971V95.837c0-14.272,11.322-25.882,25.238-25.882H446.79
	c13.916,0,25.238,11.611,25.238,25.882V354.24c0,4.245,3.441,7.687,7.687,7.687s7.687-3.442,7.687-7.687V95.837
	c0-22.749-18.218-41.256-40.612-41.256H65.21c-22.394,0-40.612,18.507-40.612,41.256v282.93H7.687c-4.246,0-7.687,3.442-7.687,7.687
	v15.859c0,30.386,24.721,55.107,55.107,55.107h401.787c30.386,0,55.107-24.721,55.107-55.107v-15.86
	C512,382.209,508.559,378.767,504.313,378.767z"/>
<path d="M105.595,106.852c4.246,0,7.687-3.442,7.687-7.687s-3.441-7.687-7.687-7.687H69.69c-4.246,0-7.687,3.442-7.687,7.687V350.2
	c0,4.245,3.441,7.687,7.687,7.687h376.204c4.246,0,7.687-3.442,7.687-7.687V99.165c0-4.245-3.441-7.687-7.687-7.687H132.499
	c-4.246,0-7.687,3.442-7.687,7.687s3.441,7.687,7.687,7.687h305.708v235.662H77.376V106.852H105.595z"/>
<path d="M151.983,247.832c0,4.245,3.441,7.687,7.687,7.687h37.837c1.149,6.391,2.807,12.553,4.956,18.374
	c-17.861,4.754-31.061,21.061-31.061,40.398v6.893c0,4.245,3.441,7.687,7.687,7.687s7.687-3.442,7.687-7.687v-6.893
	c0-13.186,9.706-24.146,22.348-26.114c1.032,1.793,2.107,3.546,3.249,5.23c11.429,16.858,26.923,26.142,43.629,26.142
	c0.058,0,0.116-0.006,0.174-0.006c0.041,0.001,0.08,0.006,0.12,0.006c0.22,0,0.436-0.015,0.651-0.033
	c16.343-0.345,31.471-9.57,42.683-26.109c1.157-1.707,2.247-3.484,3.291-5.303c12.906,1.734,22.894,12.813,22.894,26.187v6.893
	c0,4.245,3.441,7.687,7.687,7.687s7.687-3.442,7.687-7.687v-6.893c0-19.53-13.464-35.971-31.596-40.538
	c2.124-5.78,3.762-11.895,4.902-18.234h37.837c4.246,0,7.687-3.442,7.687-7.687s-3.441-7.687-7.687-7.687h-36.104
	c0.097-1.996,0.163-4,0.163-6.018c0-3.886-0.19-7.75-0.553-11.572c19.662-3.397,34.67-20.564,34.67-41.182v-6.893
	c0-4.245-3.441-7.687-7.687-7.687s-7.687,3.442-7.687,7.687v6.893c0,13.082-9.556,23.969-22.053,26.061
	c-1.326-2.393-3.866-3.965-6.719-3.965h-0.72c-2.93-12.184-10.17-22.523-19.969-29.452v-5.429c0-3.315,2.696-6.012,6.011-6.012
	c11.791,0,21.385-9.593,21.385-21.385v-9.869c0-4.245-3.441-7.687-7.687-7.687s-7.687,3.442-7.687,7.687v9.869
	c0,3.314-2.696,6.011-6.011,6.011c-11.148,0-20.318,8.578-21.288,19.478c-4.481-1.282-9.213-1.967-14.1-1.967
	c-4.716,0-9.284,0.646-13.626,1.843c-1.028-10.842-10.176-19.353-21.282-19.353c-3.315,0-6.012-2.697-6.012-6.011v-9.869
	c0-4.245-3.441-7.687-7.687-7.687s-7.687,3.442-7.687,7.687v9.869c0,11.792,9.593,21.385,21.386,21.385
	c3.315,0,6.011,2.697,6.011,6.012v5.085c-10.045,6.928-17.471,17.412-20.45,29.796h-1.309c-2.744,0-5.204,1.452-6.567,3.694
	c-11.811-2.637-20.669-13.196-20.669-25.79v-6.893c0-4.245-3.441-7.687-7.687-7.687s-7.687,3.442-7.687,7.687v6.893
	c0,20.087,14.244,36.906,33.16,40.9c-0.38,3.914-0.578,7.873-0.578,11.854c0,2.019,0.066,4.023,0.163,6.018H159.67
	C155.424,240.145,151.983,243.587,151.983,247.832z M286.903,284.781c-6.483,9.561-14.426,15.825-22.922,18.251V237.92
	c0-4.245-3.441-7.687-7.687-7.687s-7.687,3.442-7.687,7.687v65.268c-8.718-2.3-16.879-8.626-23.511-18.407
	c-9.1-13.423-14.111-31.412-14.111-50.654c0-5.167,0.367-10.286,1.095-15.284h87.84c0.728,4.998,1.095,10.117,1.095,15.284
	C301.015,253.369,296.003,271.358,286.903,284.781z M238.33,184.948c0.381-0.178,0.748-0.38,1.091-0.616
	c5.025-2.711,10.774-4.245,16.873-4.245c15.291,0,28.401,9.604,33.324,23.382h-66.647
	C225.787,195.59,231.281,189.081,238.33,184.948z"/>
<g>
</g>
<g>
</g>
<g>
</g>
<g>
</g>
<g>
</g>
<g>
</g>
<g>
</g>
<g>
</g>
<g>
</g>
<g>
</g>
<g>
</g>
<g>
</g>
<g>
</g>
<g>
</g>
<g>
</g>
</svg>
