<?xml version="1.0" encoding="iso-8859-1"?>
<!-- Generator: Adobe Illustrator 19.0.0, SVG Export Plug-In . SVG Version: 6.00 Build 0)  -->
<svg version="1.1" id="Capa_1" xmlns="http://www.w3.org/2000/svg" xmlns:xlink="http://www.w3.org/1999/xlink" x="0px" y="0px"
	 viewBox="0 0 512 512" style="enable-background:new 0 0 512 512;" xml:space="preserve">
<path style="fill:#53515E;" d="M402.611,504.364h-293.22c-26.434,0-47.863-21.429-47.863-47.863V55.5
	c0-26.434,21.429-47.863,47.863-47.863h293.22c26.434,0,47.863,21.429,47.863,47.863v401
	C450.475,482.935,429.045,504.364,402.611,504.364z"/>
<path style="fill:#474756;" d="M402.611,7.636h-59.46c26.434,0,47.864,21.429,47.864,47.863V456.5
	c0,26.434-21.429,47.863-47.864,47.863h59.46c26.434,0,47.863-21.429,47.863-47.863v-401
	C450.474,29.066,429.045,7.636,402.611,7.636z"/>
<rect x="91.271" y="71.903" style="fill:#E9EBF2;" width="329.46" height="365.52"/>
<rect x="391.011" y="71.903" style="fill:#DFE2EA;" width="29.719" height="365.52"/>
<g>
	<circle style="fill:#474756;" cx="256.001" cy="470.89" r="7.636"/>
	<path style="fill:#474756;" d="M276.084,47.406h-40.166c-4.218,0-7.636-3.419-7.636-7.636s3.418-7.636,7.636-7.636h40.166
		c4.218,0,7.636,3.419,7.636,7.636S280.302,47.406,276.084,47.406z"/>
</g>
<circle style="fill:#53515E;" cx="257.761" cy="240.49" r="42.806"/>
<path style="fill:#474756;" d="M257.757,197.683c-3.123,0-6.165,0.343-9.098,0.978c19.269,4.172,33.709,21.31,33.709,41.828
	s-14.439,37.656-33.709,41.828c2.933,0.635,5.975,0.978,9.098,0.978c23.641,0,42.806-19.165,42.806-42.806
	S281.399,197.683,257.757,197.683z"/>
<path style="fill:#FF6B5C;" d="M207.435,236.185c-1.511,7.213-2.326,14.875-2.326,22.82c0,42.65,23.441,77.224,52.356,77.224
	s52.356-34.574,52.356-77.224c0-7.944-0.815-15.607-2.326-22.82H207.435z"/>
<g>
	<path style="fill:#D85750;" d="M307.494,236.184h-17.903c1.511,7.213,2.326,14.875,2.326,22.82
		c0,38.146-18.756,69.81-43.404,76.077c2.91,0.74,5.898,1.147,8.951,1.147c28.915,0,52.356-34.574,52.356-77.224
		C309.82,251.06,309.005,243.397,307.494,236.184z"/>
	<path style="fill:#D85750;" d="M257.757,255.136c-4.218,0-7.636,3.419-7.636,7.636v72.684c2.401,0.497,4.85,0.772,7.344,0.772
		c2.695,0,5.343-0.302,7.929-0.881v-72.574C265.393,258.555,261.975,255.136,257.757,255.136z"/>
</g>
<g>
	<circle style="fill:#FFFFFF;" cx="241.561" cy="222.12" r="6.02"/>
	<circle style="fill:#FFFFFF;" cx="272.681" cy="222.12" r="6.02"/>
</g>
<path d="M402.612,0H109.391c-30.603,0-55.5,24.897-55.5,55.5v335.91c0,4.217,3.418,7.636,7.636,7.636s7.636-3.419,7.636-7.636V55.5
	c0-22.182,18.046-40.227,40.228-40.227h293.22c22.181,0,40.227,18.046,40.227,40.227v401c0,22.182-18.046,40.227-40.227,40.227
	h-293.22c-22.182,0-40.228-18.046-40.228-40.227v-25.891c0-4.217-3.418-7.636-7.636-7.636s-7.636,3.419-7.636,7.636V456.5
	c0,30.603,24.897,55.5,55.5,55.5h293.22c30.603,0,55.499-24.897,55.499-55.5v-401C458.111,24.897,433.215,0,402.612,0z"/>
<path d="M83.633,71.903V437.42c0,4.217,3.418,7.636,7.636,7.636h329.464c4.218,0,7.636-3.419,7.636-7.636V71.903
	c0-4.217-3.418-7.636-7.636-7.636H380.43c-4.218,0-7.636,3.419-7.636,7.636s3.418,7.636,7.636,7.636h32.667v350.244H98.905V79.539
	h235.549c4.218,0,7.636-3.419,7.636-7.636s-3.418-7.636-7.636-7.636H91.269C87.051,64.267,83.633,67.686,83.633,71.903z"/>
<circle cx="256.001" cy="470.89" r="7.636"/>
<path d="M276.084,47.406c4.218,0,7.636-3.419,7.636-7.636s-3.418-7.636-7.636-7.636h-40.166c-4.218,0-7.636,3.419-7.636,7.636
	s3.418,7.636,7.636,7.636H276.084z"/>
<path d="M351.347,206.551v-6.848c0-4.217-3.418-7.636-7.636-7.636s-7.636,3.419-7.636,7.636v6.848
	c0,12.996-9.493,23.811-21.908,25.889c-1.317-2.377-3.841-3.938-6.674-3.938h-0.715c-2.911-12.104-10.104-22.375-19.839-29.259
	v-5.393c0-3.293,2.68-5.972,5.973-5.972c11.714,0,21.244-9.53,21.244-21.244v-9.804c0-4.217-3.418-7.636-7.636-7.636
	s-7.636,3.419-7.636,7.636v9.804c0,3.293-2.679,5.972-5.972,5.972c-11.075,0-20.186,8.521-21.149,19.35
	c-4.452-1.274-9.152-1.954-14.006-1.954c-4.685,0-9.223,0.642-13.536,1.831c-1.021-10.77-10.109-19.226-21.143-19.226
	c-3.293,0-5.972-2.679-5.972-5.972v-9.804c0-4.217-3.418-7.636-7.636-7.636s-7.636,3.419-7.636,7.636v9.804
	c0,11.714,9.53,21.244,21.244,21.244c3.293,0,5.973,2.679,5.973,5.972v5.052c-9.979,6.883-17.357,17.297-20.315,29.6h-1.3
	c-2.726,0-5.169,1.442-6.524,3.669c-11.734-2.62-20.533-13.109-20.533-25.62v-6.848c0-4.217-3.418-7.636-7.636-7.636
	s-7.636,3.419-7.636,7.636v6.848c0,19.955,14.15,36.663,32.942,40.631c-0.378,3.888-0.574,7.821-0.574,11.776
	c0,2.006,0.065,3.997,0.162,5.979H161.77c-4.218,0-7.636,3.419-7.636,7.636c0,4.217,3.418,7.636,7.636,7.636h37.588
	c1.142,6.349,2.789,12.471,4.924,18.254c-17.744,4.723-30.858,20.922-30.858,40.132v6.848c0,4.217,3.418,7.636,7.636,7.636
	s7.636-3.419,7.636-7.636v-6.848c0-13.099,9.642-23.987,22.201-25.942c1.025,1.781,2.093,3.523,3.227,5.195
	c11.354,16.747,26.746,25.97,43.342,25.97c0.058,0,0.115-0.006,0.173-0.006c0.04,0.001,0.079,0.006,0.119,0.006
	c0.219,0,0.433-0.015,0.647-0.033c16.235-0.342,31.264-9.508,42.402-25.937c1.15-1.696,2.232-3.461,3.27-5.268
	c12.822,1.722,22.744,12.728,22.744,26.015v6.848c0,4.217,3.418,7.636,7.636,7.636s7.636-3.419,7.636-7.636v-6.848
	c0-19.402-13.376-35.734-31.389-40.272c2.11-5.742,3.737-11.817,4.87-18.114h37.588c4.218,0,7.636-3.419,7.636-7.636
	c0-4.217-3.418-7.636-7.636-7.636h-35.867c0.096-1.983,0.162-3.974,0.162-5.979c0-3.86-0.189-7.699-0.549-11.496
	C336.438,244.088,351.347,227.033,351.347,206.551z M239.913,210.1c0.376-0.176,0.738-0.375,1.077-0.608
	c4.992-2.694,10.704-4.219,16.765-4.219c15.191,0,28.214,9.541,33.105,23.229h-66.209
	C227.448,220.673,232.909,214.206,239.913,210.1z M288.163,309.279c-6.44,9.499-14.331,15.721-22.772,18.132v-64.684
	c0-4.217-3.418-7.636-7.636-7.636c-4.218,0-7.636,3.419-7.636,7.636v64.838c-8.66-2.285-16.768-8.569-23.356-18.286
	c-9.04-13.335-14.019-31.205-14.019-50.321c0-5.133,0.365-10.218,1.088-15.183h87.262c0.723,4.966,1.088,10.05,1.088,15.183
	C302.182,278.074,297.203,295.944,288.163,309.279z"/>
<g>
</g>
<g>
</g>
<g>
</g>
<g>
</g>
<g>
</g>
<g>
</g>
<g>
</g>
<g>
</g>
<g>
</g>
<g>
</g>
<g>
</g>
<g>
</g>
<g>
</g>
<g>
</g>
<g>
</g>
</svg>
