<?xml version="1.0" encoding="iso-8859-1"?>
<!-- Generator: Adobe Illustrator 19.0.0, SVG Export Plug-In . SVG Version: 6.00 Build 0)  -->
<svg version="1.1" id="Capa_1" xmlns="http://www.w3.org/2000/svg" xmlns:xlink="http://www.w3.org/1999/xlink" x="0px" y="0px"
	 viewBox="0 0 512 512" style="enable-background:new 0 0 512 512;" xml:space="preserve">
<path style="fill:#53515E;" d="M304.24,504.431H113.954c-22.03,0-39.889-17.859-39.889-39.889V47.458
	c0-22.03,17.859-39.889,39.889-39.889H304.24c22.03,0,39.889,17.859,39.889,39.889v417.084
	C344.129,486.572,326.27,504.431,304.24,504.431z"/>
<circle cx="234.521" cy="33.686" r="7.71"/>
<circle cx="183.681" cy="33.686" r="7.71"/>
<circle cx="209.101" cy="33.686" r="7.71"/>
<path style="fill:#474756;" d="M344.129,95.534H188.776c-21.155,0-38.305,17.15-38.305,38.305v239.3
	c0,21.155,17.149,38.305,38.305,38.305h155.352L344.129,95.534L344.129,95.534z"/>
<path style="fill:#E9EBF2;" d="M302.638,34.97h-38.213c-2.828,0-5.121,2.293-5.121,5.121v3.675c0,7.042-5.708,12.75-12.75,12.75
	h-74.916c-7.042,0-12.75-5.708-12.75-12.75v-3.675c0-2.828-2.293-5.121-5.121-5.121h-38.213c-6.895,0-12.484,5.589-12.484,12.484
	v416.569c0,6.895,5.589,12.484,12.484,12.484h187.082c6.895,0,12.484-5.589,12.484-12.484V47.454
	C315.122,40.559,309.533,34.97,302.638,34.97z"/>
<path style="fill:#DFE2EA;" d="M315.122,95.534H188.776c-21.155,0-38.305,17.15-38.305,38.305v239.3
	c0,21.155,17.149,38.305,38.305,38.305h126.346V95.534z"/>
<path style="fill:#FFDC64;" d="M405.208,388.451H205.765c-18.076,0-32.729-14.653-32.729-32.729V151.255
	c0-18.076,14.653-32.729,32.729-32.729h199.443c18.076,0,32.729,14.653,32.729,32.729v204.467
	C437.937,373.797,423.284,388.451,405.208,388.451z"/>
<path style="fill:#FFC850;" d="M405.208,118.526h-19.172v76.68c0,78.863-63.931,142.794-142.794,142.794h-70.206v17.723
	c0,18.076,14.653,32.729,32.729,32.729h199.443c18.076,0,32.729-14.653,32.729-32.729V151.255
	C437.937,133.179,423.284,118.526,405.208,118.526z"/>
<circle style="fill:#53515E;" cx="304.521" cy="244.26" r="42.43"/>
<path style="fill:#474756;" d="M304.522,201.83c-3.096,0-6.11,0.34-9.018,0.97c19.099,4.135,33.411,21.122,33.411,41.459
	s-14.312,37.324-33.411,41.459c2.907,0.629,5.922,0.97,9.018,0.97c23.433,0,42.429-18.996,42.429-42.429
	S327.955,201.83,304.522,201.83z"/>
<path style="fill:#FF6B5C;" d="M254.643,239.992c-1.498,7.149-2.306,14.744-2.306,22.618c0,42.274,23.234,76.544,51.894,76.544
	s51.894-34.27,51.894-76.544c0-7.874-0.808-15.469-2.306-22.618L254.643,239.992L254.643,239.992z"/>
<g>
	<path style="fill:#D85750;" d="M353.821,239.992h-17.745c1.498,7.149,2.306,14.744,2.306,22.618
		c0,37.81-18.591,69.195-43.022,75.406c2.885,0.733,5.846,1.137,8.872,1.137c28.66,0,51.894-34.27,51.894-76.544
		C356.126,254.736,355.318,247.141,353.821,239.992z"/>
	<path style="fill:#D85750;" d="M304.522,258.777c-4.181,0-7.569,3.389-7.569,7.569v72.043c2.38,0.493,4.807,0.765,7.279,0.765
		c2.672,0,5.296-0.299,7.859-0.874v-71.935C312.091,262.166,308.702,258.777,304.522,258.777z"/>
</g>
<g>
	<circle style="fill:#FFFFFF;" cx="288.491" cy="226.06" r="5.971"/>
	<circle style="fill:#FFFFFF;" cx="319.331" cy="226.06" r="5.971"/>
</g>
<path d="M405.208,110.957h-53.51v-63.5C351.698,21.289,330.408,0,304.24,0H113.954C87.785,0,66.496,21.289,66.496,47.457v417.085
	c0,26.168,21.289,47.458,47.457,47.458H304.24c26.168,0,47.457-21.29,47.457-47.458V427.9c0-4.18-3.389-7.569-7.569-7.569
	s-7.569,3.389-7.569,7.569v36.642c0,17.821-14.498,32.32-32.319,32.32H113.954c-17.821,0-32.319-14.499-32.319-32.32V47.457
	c0-17.821,14.498-32.319,32.319-32.319h190.287c17.821,0,32.319,14.498,32.319,32.319v63.499H205.765
	c-22.221,0-40.298,18.078-40.298,40.298v204.467c0,22.22,18.077,40.298,40.298,40.298h101.789v68.003
	c0,2.71-2.205,4.915-4.915,4.915H115.556c-2.71,0-4.915-2.205-4.915-4.915V47.454c0-2.71,2.205-4.915,4.915-4.915h35.765v1.227
	c0,11.204,9.115,20.319,20.318,20.319h74.916c11.204,0,20.319-9.115,20.319-20.319v-1.227h35.764c2.71,0,4.915,2.205,4.915,4.915
	v40.851c0,4.18,3.389,7.569,7.569,7.569s7.569-3.389,7.569-7.569V47.454c0-11.057-8.996-20.053-20.053-20.053h-38.213
	c-6.997,0-12.69,5.693-12.69,12.69v3.674c0,2.857-2.324,5.181-5.181,5.181h-74.916c-2.857,0-5.181-2.324-5.181-5.181v-3.674
	c0-6.997-5.693-12.69-12.69-12.69h-38.213c-11.057,0-20.053,8.996-20.053,20.053v416.569c0,11.057,8.996,20.053,20.053,20.053
	h187.083c11.057,0,20.053-8.996,20.053-20.053V396.02h82.516c22.221,0,40.298-18.078,40.298-40.298V151.255
	C445.506,129.034,427.428,110.957,405.208,110.957z M430.368,355.722c0,13.873-11.287,25.16-25.16,25.16h-89.057
	c-0.337-0.046-0.678-0.078-1.028-0.078s-0.691,0.032-1.028,0.078h-108.33c-13.873,0-25.16-11.287-25.16-25.16V151.255
	c0-13.873,11.287-25.16,25.16-25.16H343.25c0.289,0.034,0.581,0.055,0.88,0.055s0.591-0.022,0.88-0.055h60.2
	c13.873,0,25.16,11.287,25.16,25.16v204.467H430.368z"/>
<path d="M398.821,267.482H363.27c0.095-1.965,0.16-3.939,0.16-5.927c0-3.826-0.187-7.631-0.544-11.394
	c19.361-3.345,34.139-20.249,34.139-40.551v-6.787c0-4.18-3.389-7.569-7.569-7.569s-7.569,3.389-7.569,7.569v6.787
	c0,12.882-9.41,23.601-21.715,25.661c-1.306-2.356-3.807-3.904-6.615-3.904h-0.709c-2.885-11.997-10.015-22.178-19.664-29v-5.346
	c0-3.264,2.656-5.919,5.919-5.919c11.611,0,21.058-9.446,21.058-21.057v-9.717c0-4.18-3.389-7.569-7.569-7.569
	s-7.569,3.389-7.569,7.569v9.717c0,3.264-2.656,5.919-5.92,5.919c-10.977,0-20.008,8.446-20.962,19.179
	c-4.413-1.262-9.071-1.937-13.883-1.937c-4.644,0-9.142,0.636-13.417,1.815c-1.012-10.675-10.02-19.057-20.956-19.057
	c-3.264,0-5.92-2.656-5.92-5.919v-9.717c0-4.18-3.389-7.569-7.569-7.569s-7.569,3.389-7.569,7.569v9.717
	c0,11.611,9.446,21.057,21.058,21.057c3.264,0,5.919,2.656,5.919,5.919v5.008c-9.89,6.822-17.203,17.145-20.135,29.339h-1.289
	c-2.702,0-5.123,1.43-6.466,3.637c-11.63-2.597-20.352-12.993-20.352-25.395v-6.787c0-4.18-3.389-7.569-7.569-7.569
	s-7.569,3.389-7.569,7.569v6.787c0,19.779,14.025,36.34,32.651,40.273c-0.374,3.854-0.569,7.752-0.569,11.673
	c0,1.988,0.065,3.961,0.16,5.927h-35.551c-4.18,0-7.569,3.389-7.569,7.569s3.389,7.569,7.569,7.569h37.257
	c1.132,6.293,2.764,12.361,4.88,18.093c-17.587,4.681-30.586,20.738-30.586,39.779v6.787c0,4.18,3.389,7.569,7.569,7.569
	c4.18,0,7.569-3.389,7.569-7.569v-6.787c0-12.983,9.557-23.775,22.006-25.713c1.016,1.766,2.075,3.492,3.199,5.15
	c11.253,16.6,26.51,25.741,42.959,25.741c0.057,0,0.114-0.006,0.172-0.006c0.04,0.001,0.078,0.006,0.118,0.006
	c0.216,0,0.429-0.015,0.641-0.032c16.092-0.339,30.988-9.424,42.029-25.709c1.139-1.681,2.212-3.43,3.241-5.221
	c12.709,1.707,22.544,12.616,22.544,25.785v6.787c0,4.18,3.389,7.569,7.569,7.569s7.569-3.389,7.569-7.569v-6.787
	c0-19.231-13.258-35.419-31.113-39.917c2.091-5.691,3.704-11.713,4.827-17.955h37.257c4.18,0,7.569-3.389,7.569-7.569
	C406.39,270.871,403.001,267.482,398.821,267.482z M286.575,213.127c0.371-0.174,0.729-0.371,1.064-0.6
	c4.949-2.671,10.611-4.182,16.619-4.182c15.057,0,27.965,9.457,32.813,23.024h-65.626
	C274.218,223.607,279.631,217.196,286.575,213.127z M334.397,311.433c-6.383,9.415-14.205,15.583-22.571,17.972v-64.114
	c0-4.18-3.389-7.569-7.569-7.569s-7.569,3.389-7.569,7.569v64.267c-8.584-2.265-16.62-8.494-23.15-18.125
	c-8.961-13.217-13.896-30.93-13.896-49.877c0-5.088,0.362-10.128,1.079-15.049h86.493c0.716,4.921,1.079,9.961,1.079,15.049
	C348.292,280.503,343.358,298.216,334.397,311.433z"/>
<g>
</g>
<g>
</g>
<g>
</g>
<g>
</g>
<g>
</g>
<g>
</g>
<g>
</g>
<g>
</g>
<g>
</g>
<g>
</g>
<g>
</g>
<g>
</g>
<g>
</g>
<g>
</g>
<g>
</g>
</svg>
