<?xml version="1.0" encoding="iso-8859-1"?>
<!-- Generator: Adobe Illustrator 19.0.0, SVG Export Plug-In . SVG Version: 6.00 Build 0)  -->
<svg version="1.1" id="Capa_1" xmlns="http://www.w3.org/2000/svg" xmlns:xlink="http://www.w3.org/1999/xlink" x="0px" y="0px"
	 viewBox="0 0 512.003 512.003" style="enable-background:new 0 0 512.003 512.003;" xml:space="preserve">
<path style="fill:#DFE2EA;" d="M153.165,403.394c82.53,61.077,199.345,57.366,278.037-14.463
	c89.425-81.626,95.746-220.29,14.121-309.715c-81.626-89.425-220.29-95.747-309.715-14.121
	C57.015,136.834,42.624,252.625,95.7,340.33L153.165,403.394z"/>
<circle style="fill:#E9EBF2;" cx="284.361" cy="226.88" r="168.33"/>
<path style="fill:#C7CAD3;" d="M367.662,429.453c-2.042-7.442-5.97-14.27-11.566-19.884c-2.55-2.558-5.406-4.809-8.491-6.689
	c-0.045-0.027-0.09-0.054-0.135-0.081l-58.944-35.113c-19.123-11.358-43.455-8.296-59.226,7.504l-11.434,11.575
	c-40.409-18.488-72.545-50.727-90.903-91.202l11.492-11.444c15.74-15.714,18.803-40.045,7.428-59.197l-35.102-58.816
	c-0.066-0.111-0.134-0.222-0.203-0.331c-1.9-3.009-4.152-5.796-6.697-8.283c-6.755-6.701-15.129-10.819-23.873-12.378
	C54.724,208.051,59.604,280.683,95.7,340.33l57.465,63.064C215.505,449.529,297.404,458.687,367.662,429.453z"/>
<g>
	<path style="fill:#DFE2EA;" d="M138.455,284.12c15.74-15.714,18.803-40.045,7.428-59.197l-24.361-40.818
		c-3.579,13.661-5.492,27.996-5.492,42.779c0,23.477,4.812,45.828,13.494,66.13L138.455,284.12z"/>
	<path style="fill:#DFE2EA;" d="M288.527,367.687c-19.123-11.358-43.455-8.296-59.226,7.504l-7.79,7.886
		c19.421,7.823,40.632,12.138,62.853,12.138c14.376,0,28.329-1.807,41.65-5.197L288.527,367.687z"/>
</g>
<path style="fill:#86E56E;" d="M17.538,297.156c36.78,90.396,108.498,162.115,198.895,198.895
	c40.978,16.698,87.972,7.225,119.282-24.043l9.298-9.518c11.6-11.562,11.63-30.339,0.068-41.939c-1.674-1.68-3.544-3.153-5.57-4.387
	l-58.926-35.102c-12.986-7.712-29.549-5.627-40.219,5.062l-13.37,13.535c-3.362,3.416-8.485,4.401-12.874,2.476
	c-45.826-20.148-82.396-56.797-102.446-102.666c-1.981-4.345-1.085-9.462,2.256-12.875l13.535-13.48
	c10.689-10.67,12.773-27.233,5.062-40.219l-35.102-58.816c-1.264-2.003-2.76-3.85-4.457-5.502
	c-11.592-11.541-30.333-11.541-41.925,0l-9.463,9.298C10.313,209.184,0.84,256.178,17.538,297.156z"/>
<path style="fill:#5FCE6A;" d="M345.013,423.086l-9.298,9.518c-31.31,31.269-78.304,40.741-119.282,24.043
	C126.036,419.868,54.318,348.15,17.538,257.753c-2.903-7.125-4.997-14.435-6.341-21.81c-3.671,20.176-1.734,41.396,6.341,61.212
	c36.78,90.396,108.498,162.115,198.895,198.895c40.978,16.698,87.972,7.225,119.282-24.043l9.298-9.518
	c11.198-11.162,11.611-29.045,1.225-40.706C345.843,422.225,345.438,422.662,345.013,423.086z"/>
<path d="M451.067,73.973c-40.878-44.784-96.75-70.969-157.323-73.73c-60.569-2.768-118.595,18.23-163.379,59.108
	c-12.339,11.262-23.417,23.844-32.927,37.397c-2.467,3.516-1.617,8.366,1.899,10.833c3.516,2.469,8.366,1.618,10.833-1.899
	c8.859-12.624,19.181-24.347,30.681-34.843c86.115-78.605,220.123-72.494,298.728,13.62s72.495,220.123-13.62,298.728
	c-20.121,18.366-43.063,32.415-68.268,41.847c-1.759-3.601-4.119-6.981-7.102-9.974c-2.111-2.118-4.476-3.982-7.097-5.578
	l-19.366-11.536c29.078-6.796,55.807-20.864,78.229-41.331c34.705-31.678,54.996-74.974,57.135-121.914
	c2.14-46.939-14.127-91.903-45.804-126.607c-2.897-3.173-7.816-3.397-10.987-0.501c-3.172,2.896-3.397,7.815-0.501,10.987
	c28.877,31.636,43.706,72.624,41.755,115.413s-20.448,82.258-52.083,111.134c-24.698,22.545-55.122,36.573-88.128,40.676
	l-19.186-11.429c-16.06-9.538-36.496-6.967-49.722,6.283l-13.38,13.545c-1.092,1.109-2.782,1.435-4.202,0.813
	c-44.163-19.418-79.127-54.456-98.45-98.662c-0.016-0.037-0.033-0.074-0.05-0.111c-0.643-1.41-0.346-3.102,0.667-4.139
	l13.542-13.486c13.22-13.197,15.792-33.632,6.245-49.708l-14.313-23.983c5.065-37.108,23.019-71.355,50.758-96.675
	c27.065-24.705,60.652-39.073,97.128-41.551c35.408-2.403,71.031,7.101,100.31,26.768c3.565,2.395,8.397,1.446,10.792-2.119
	s1.447-8.397-2.119-10.792c-32.127-21.581-71.204-32.015-110.037-29.375c-40.022,2.719-76.87,18.481-106.56,45.581
	c-25.891,23.633-44.007,54.358-52.262,88.074l-8.8-14.744c-0.033-0.055-0.067-0.11-0.102-0.166
	c-1.589-2.517-3.476-4.846-5.547-6.862c-4-3.982-8.689-6.864-13.686-8.663c2.81-7.705,6.071-15.261,9.742-22.55
	c1.932-3.836,0.388-8.512-3.448-10.444c-3.835-1.932-8.511-0.387-10.444,3.448c-4.452,8.842-8.339,18.051-11.603,27.44
	c-8.552,0.674-16.908,4.246-23.423,10.733l-9.515,9.35C2.52,205.981-7.585,256.111,10.335,300.087
	c32.908,80.88,93.627,147.728,170.971,188.23c3.806,1.994,8.505,0.522,10.497-3.281c1.993-3.805,0.524-8.505-3.281-10.497
	C114.43,435.74,56.265,371.703,24.74,294.221c-15.555-38.173-6.784-81.685,22.292-110.8l9.5-9.334
	c4.545-4.524,10.607-6.614,16.579-6.31c0.493,0.096,0.986,0.16,1.475,0.16c0.064,0,0.127-0.014,0.191-0.015
	c4.661,0.592,9.177,2.652,12.768,6.227c1.236,1.203,2.332,2.55,3.259,4.006l35.039,58.711c5.901,9.937,4.31,22.58-3.863,30.738
	l-13.605,13.551c-5.531,5.652-7.055,14.276-3.801,21.48C125.47,350.404,163.262,388.268,211,409.257
	c7.297,3.199,15.952,1.534,21.53-4.133l13.342-13.506c8.164-8.179,20.807-9.771,30.735-3.874l21.349,12.718
	c0.013,0.008,0.027,0.016,0.04,0.024l37.469,22.32c1.493,0.91,2.875,1.998,4.109,3.237c8.517,8.544,8.494,22.424-0.123,31.015
	l-9.231,9.45c-29.166,29.129-72.677,37.899-110.852,22.344c-3.975-1.62-8.516,0.29-10.136,4.267
	c-1.621,3.978,0.29,8.516,4.267,10.136c14.444,5.886,29.546,8.748,44.516,8.748c30.611,0,60.652-11.976,83.264-34.559l9.225-9.445
	c7.643-7.619,11.292-17.746,10.96-27.765c27.734-10.13,52.938-25.436,74.982-45.557c44.784-40.879,70.969-96.75,73.73-157.323
	C512.936,176.779,491.944,118.756,451.067,73.973z"/>
<path d="M237.928,222.55L221.7,234.362c-5.38,3.94-9.909,8.33-13.586,13.168c-3.677,4.839-5.515,9.792-5.515,14.857v16.376
	c0,1.691,0.866,3.096,2.601,4.221c1.733,1.126,3.497,1.688,5.288,1.688h59.765c1.566,0,2.938-0.816,4.112-2.452
	c1.176-1.632,1.765-3.52,1.765-5.663c0-2.139-0.592-3.971-1.775-5.493c-1.184-1.522-2.565-2.281-4.142-2.281h-49.697v-6.411
	c0-3.486,1.885-7.087,5.662-10.799c3.774-3.712,8.338-7.396,13.692-11.052c5.351-3.656,10.704-7.536,16.058-11.643
	c5.352-4.103,9.915-9.109,13.692-15.015c3.774-5.906,5.663-12.231,5.663-18.982c0-9.957-3.523-18.073-10.565-24.354
	c-7.045-6.281-15.581-9.421-25.61-9.421c-9.466,0-17.608,2.789-24.425,8.367c-6.82,5.578-10.227,12.763-10.227,21.552
	c0,6.651,2.705,9.973,8.114,9.973c2.815,0,5.097-0.671,6.846-2.012c1.746-1.343,2.62-2.911,2.62-4.703
	c0-5.48,1.577-9.619,4.733-12.416c3.154-2.798,7.268-4.197,12.34-4.197c5.972,0,10.507,1.772,13.607,5.314
	c3.099,3.544,4.649,7.678,4.649,12.4c0,4.725-1.889,9.451-5.663,14.172C247.928,214.283,243.338,218.614,237.928,222.55z"/>
<path d="M327.266,283.059c1.746,1.077,3.859,1.613,6.339,1.613c2.366,0,4.45-0.536,6.255-1.613c1.801-1.078,2.705-2.523,2.705-4.34
	V256.78h8.283c1.577,0,2.984-0.864,4.226-2.593c1.238-1.728,1.859-3.598,1.859-5.605c0-2.229-0.536-4.181-1.606-5.856
	c-1.072-1.675-2.564-2.511-4.479-2.511h-8.283v-23.462c0-1.926-0.875-3.399-2.621-4.419c-1.748-1.02-3.861-1.532-6.339-1.532
	c-5.974,0-8.959,1.984-8.959,5.951v23.462h-24.848l34.822-69.475c0.563-1.125,0.846-2.028,0.846-2.705
	c0-1.915-1.015-3.549-3.043-4.902c-2.028-1.353-4.002-2.028-5.917-2.028c-3.495,0-6.085,1.632-7.776,4.896l-40.907,80.539
	c-0.675,1.239-1.014,2.478-1.014,3.714c0,2.007,0.591,3.597,1.775,4.769c1.183,1.173,2.675,1.757,4.479,1.757h41.584v21.938
	C324.646,280.535,325.518,281.98,327.266,283.059z"/>
<g>
</g>
<g>
</g>
<g>
</g>
<g>
</g>
<g>
</g>
<g>
</g>
<g>
</g>
<g>
</g>
<g>
</g>
<g>
</g>
<g>
</g>
<g>
</g>
<g>
</g>
<g>
</g>
<g>
</g>
</svg>
