<?xml version="1.0" encoding="iso-8859-1"?>
<!-- Generator: Adobe Illustrator 19.0.0, SVG Export Plug-In . SVG Version: 6.00 Build 0)  -->
<svg version="1.1" id="Capa_1" xmlns="http://www.w3.org/2000/svg" xmlns:xlink="http://www.w3.org/1999/xlink" x="0px" y="0px"
	 viewBox="0 0 511.999 511.999" style="enable-background:new 0 0 511.999 511.999;" xml:space="preserve">
<path style="fill:#86E56E;" d="M86.575,149.717c35.029,86.092,103.332,154.395,189.424,189.424
	c39.027,15.903,83.783,6.881,113.602-22.899l8.855-9.065c11.048-11.012,11.076-28.894,0.065-39.942
	c-1.595-1.6-3.376-3.003-5.305-4.178l-56.12-33.431c-12.367-7.344-28.142-5.359-38.304,4.821l-12.733,12.89
	c-3.202,3.253-8.081,4.191-12.261,2.358c-43.644-19.189-78.472-54.093-97.568-97.777c-1.887-4.138-1.033-9.011,2.148-12.261
	l12.89-12.838c10.18-10.162,12.165-25.937,4.821-38.304L162.659,32.5c-1.204-1.908-2.628-3.666-4.244-5.24
	c-11.04-10.992-28.888-10.992-39.928,0l-9.013,8.855C79.694,65.934,70.672,110.69,86.575,149.717z"/>
<path style="fill:#5FCE6A;" d="M398.456,269.651l-8.855,9.065c-29.819,29.78-74.575,38.801-113.602,22.898
	C189.907,266.585,121.604,198.282,86.575,112.19c-2.765-6.786-4.759-13.747-6.039-20.771c-3.496,19.215-1.651,39.425,6.039,58.298
	c35.029,86.092,103.332,154.395,189.424,189.424c39.027,15.903,83.783,6.881,113.602-22.898l8.855-9.065
	c10.665-10.63,11.058-27.662,1.166-38.768C399.247,268.832,398.861,269.247,398.456,269.651z"/>
<path style="fill:#FFDF47;" d="M70.8,382.435l15.088,30.572c0.596,1.209,1.749,2.046,3.083,2.24l33.738,4.902
	c3.359,0.488,4.7,4.615,2.269,6.984l-24.413,23.797c-0.965,0.941-1.405,2.296-1.178,3.624l5.763,33.602
	c0.574,3.345-2.937,5.896-5.941,4.317L69.033,476.61c-1.193-0.627-2.618-0.627-3.811,0l-30.177,15.865
	c-3.004,1.579-6.515-0.972-5.941-4.317l5.763-33.602c0.228-1.328-0.213-2.684-1.178-3.624L9.277,427.134
	c-2.43-2.369-1.089-6.496,2.269-6.984l33.738-4.902c1.334-0.194,2.487-1.031,3.083-2.24l15.088-30.572
	C64.958,379.392,69.298,379.392,70.8,382.435z"/>
<path style="fill:#FFD400;" d="M124.979,427.134c2.43-2.369,1.089-6.496-2.269-6.984l-33.738-4.902
	c-1.334-0.194-2.487-1.031-3.083-2.24L70.8,382.435c-1.502-3.043-5.842-3.043-7.344,0l-15.088,30.572
	c-0.308,0.623-0.765,1.145-1.318,1.534l3.71,7.517c0.597,1.209,1.749,2.046,3.083,2.24l33.738,4.902
	c3.359,0.488,4.699,4.615,2.269,6.984l-24.413,23.797c-0.965,0.941-1.405,2.296-1.178,3.624l2.161,12.602
	c0.881-0.155,1.8-0.026,2.612,0.401l30.177,15.865c3.004,1.579,6.515-0.972,5.941-4.317l-5.763-33.602
	c-0.228-1.328,0.213-2.684,1.178-3.624L124.979,427.134z"/>
<path style="fill:#FFDF47;" d="M259.672,382.435l15.088,30.572c0.596,1.209,1.749,2.046,3.083,2.24l33.738,4.902
	c3.359,0.488,4.7,4.615,2.269,6.984l-24.413,23.797c-0.965,0.941-1.405,2.296-1.178,3.624l5.763,33.602
	c0.574,3.345-2.937,5.896-5.941,4.317l-30.177-15.865c-1.193-0.627-2.618-0.627-3.811,0l-30.177,15.865
	c-3.004,1.579-6.515-0.972-5.941-4.317l5.763-33.602c0.228-1.328-0.213-2.684-1.178-3.624l-24.413-23.797
	c-2.43-2.369-1.089-6.496,2.269-6.984l33.738-4.902c1.334-0.194,2.487-1.031,3.083-2.24l15.088-30.572
	C253.83,379.392,258.17,379.392,259.672,382.435z"/>
<path style="fill:#FFD400;" d="M313.851,427.134c2.43-2.369,1.089-6.496-2.269-6.984l-33.738-4.902
	c-1.334-0.194-2.487-1.031-3.083-2.24l-15.088-30.572c-1.502-3.043-5.842-3.043-7.344,0l-15.088,30.572
	c-0.308,0.623-0.765,1.145-1.318,1.534l3.71,7.517c0.597,1.209,1.749,2.046,3.083,2.24l33.738,4.902
	c3.359,0.488,4.699,4.615,2.269,6.984l-24.413,23.797c-0.965,0.941-1.405,2.296-1.178,3.624l2.161,12.602
	c0.881-0.155,1.8-0.026,2.612,0.401l30.177,15.865c3.004,1.579,6.515-0.972,5.941-4.317l-5.763-33.602
	c-0.228-1.328,0.213-2.684,1.178-3.624L313.851,427.134z"/>
<path style="fill:#FFDF47;" d="M448.544,382.435l15.088,30.572c0.596,1.209,1.749,2.046,3.083,2.24l33.738,4.902
	c3.359,0.488,4.7,4.615,2.269,6.984l-24.413,23.797c-0.965,0.941-1.405,2.296-1.178,3.624l5.763,33.602
	c0.574,3.345-2.937,5.896-5.941,4.317l-30.177-15.865c-1.193-0.627-2.618-0.627-3.811,0l-30.177,15.865
	c-3.004,1.579-6.515-0.972-5.941-4.317l5.763-33.602c0.228-1.328-0.213-2.684-1.178-3.624l-24.413-23.797
	c-2.43-2.369-1.089-6.496,2.269-6.984l33.738-4.902c1.334-0.194,2.487-1.031,3.083-2.24l15.088-30.572
	C442.702,379.392,447.042,379.392,448.544,382.435z"/>
<path style="fill:#FFD400;" d="M502.723,427.134c2.43-2.369,1.089-6.496-2.269-6.984l-33.738-4.902
	c-1.334-0.194-2.487-1.031-3.083-2.24l-15.088-30.572c-1.502-3.043-5.842-3.043-7.344,0l-15.088,30.572
	c-0.308,0.623-0.765,1.145-1.318,1.534l3.71,7.517c0.597,1.209,1.749,2.046,3.083,2.24l33.738,4.902
	c3.359,0.488,4.699,4.615,2.269,6.984l-24.413,23.797c-0.965,0.941-1.405,2.296-1.178,3.624l2.161,12.602
	c0.881-0.155,1.8-0.026,2.612,0.401l30.177,15.865c3.004,1.579,6.515-0.972,5.941-4.317l-5.763-33.602
	c-0.228-1.328,0.213-2.684,1.178-3.624L502.723,427.134z"/>
<path d="M123.865,412.202l-31.691-4.605l-14.172-28.716c-2.058-4.17-6.225-6.76-10.875-6.76c-4.649,0.001-8.816,2.591-10.873,6.76
	l-14.172,28.716l-31.69,4.604c-4.601,0.669-8.352,3.831-9.789,8.253s-0.261,9.185,3.068,12.43l22.931,22.353L21.189,486.8
	c-0.786,4.582,1.062,9.126,4.824,11.859c3.761,2.733,8.655,3.087,12.771,0.923l28.344-14.902l28.345,14.902
	c1.79,0.941,3.727,1.406,5.654,1.405c2.504,0,4.991-0.785,7.117-2.329c3.762-2.733,5.609-7.278,4.823-11.859l-5.413-31.563
	l22.931-22.352c3.33-3.246,4.506-8.008,3.069-12.431C132.217,416.033,128.466,412.871,123.865,412.202z M94.959,445.181
	c-2.857,2.785-4.161,6.796-3.487,10.732l4.415,25.74l-23.114-12.152c-3.534-1.859-7.754-1.859-11.287-0.001L38.37,481.653
	l4.415-25.74c0.675-3.936-0.629-7.948-3.487-10.734L20.597,426.95l25.845-3.756c3.949-0.574,7.362-3.054,9.129-6.633l11.558-23.419
	l11.558,23.42c1.767,3.578,5.179,6.058,9.129,6.632l25.845,3.756L94.959,445.181z"/>
<path d="M312.737,412.202l-31.691-4.605l-14.172-28.716c-2.058-4.17-6.225-6.76-10.875-6.76c-4.649,0.001-8.816,2.591-10.873,6.76
	l-14.172,28.716l-31.69,4.604c-4.601,0.669-8.352,3.831-9.789,8.253s-0.261,9.185,3.068,12.43l22.931,22.353l-5.413,31.563
	c-0.786,4.582,1.063,9.126,4.824,11.859c3.761,2.734,8.655,3.086,12.771,0.923l28.344-14.9l28.345,14.902
	c1.79,0.941,3.727,1.406,5.654,1.405c2.504,0,4.991-0.785,7.117-2.329c3.762-2.733,5.609-7.278,4.823-11.859l-5.413-31.563
	l22.931-22.352c3.33-3.246,4.506-8.008,3.069-12.431C321.089,416.033,317.338,412.871,312.737,412.202z M283.83,445.181
	c-2.857,2.785-4.161,6.796-3.487,10.732l4.415,25.74l-23.114-12.152c-3.534-1.859-7.754-1.859-11.287-0.001l-23.116,12.153
	l4.415-25.74c0.675-3.936-0.629-7.948-3.487-10.734l-18.701-18.229l25.845-3.756c3.949-0.574,7.362-3.054,9.129-6.633L256,393.143
	l11.558,23.42c1.767,3.578,5.179,6.058,9.129,6.632l25.845,3.756L283.83,445.181z"/>
<path d="M511.397,420.455c-1.437-4.422-5.188-7.584-9.789-8.253l-31.691-4.605l-14.172-28.716c-2.058-4.17-6.225-6.76-10.875-6.76
	c-4.649,0.001-8.816,2.591-10.873,6.76l-14.172,28.716l-31.69,4.605c-4.601,0.668-8.352,3.831-9.789,8.253
	c-1.437,4.423-0.261,9.185,3.068,12.43l22.931,22.353l-5.413,31.563c-0.786,4.582,1.063,9.126,4.824,11.859
	c3.761,2.734,8.655,3.086,12.771,0.923l28.344-14.902l28.345,14.902c1.79,0.941,3.727,1.406,5.654,1.405
	c2.504,0,4.991-0.785,7.117-2.329c3.762-2.733,5.609-7.278,4.823-11.859l-5.413-31.562l22.931-22.353
	C511.658,429.64,512.834,424.877,511.397,420.455z M472.704,445.18c-2.858,2.785-4.163,6.797-3.489,10.734l4.415,25.74
	l-23.114-12.152c-3.534-1.859-7.753-1.859-11.287-0.001l-23.116,12.153l4.415-25.74c0.675-3.936-0.629-7.948-3.487-10.734
	l-18.701-18.229l25.845-3.756c3.949-0.574,7.362-3.054,9.129-6.633l11.558-23.419l11.558,23.42c1.767,3.578,5.179,6.058,9.129,6.632
	l25.845,3.756L472.704,445.18z"/>
<path d="M404.135,312.866c14.166-14.12,14.203-37.134,0.082-51.301c-2.046-2.052-4.337-3.857-6.882-5.408l-56.129-33.436
	c-15.544-9.23-35.318-6.742-48.118,6.083l-12.743,12.899c-0.86,0.873-2.191,1.129-3.306,0.641
	c-24.726-10.872-47.103-27.445-64.712-47.928c-2.893-3.363-7.962-3.746-11.326-0.855c-3.364,2.892-3.746,7.962-0.855,11.326
	c19.165,22.292,43.518,40.329,70.435,52.164c7.183,3.149,15.707,1.511,21.201-4.07l12.704-12.86
	c7.574-7.589,19.302-9.063,28.509-3.595l56.049,33.388c1.379,0.841,2.657,1.847,3.797,2.99c7.868,7.894,7.847,20.716-0.121,28.661
	l-8.786,8.994c-6.63,6.621-14.159,12.229-22.377,16.669c-3.902,2.108-5.357,6.981-3.249,10.884c1.453,2.689,4.218,4.215,7.073,4.215
	c1.289,0,2.597-0.311,3.81-0.967c9.584-5.178,18.363-11.717,26.162-19.506L404.135,312.866z"/>
<path d="M332.406,337.379c-17.991,3.184-36.446,1.219-53.372-5.677c-41.847-17.026-79.263-41.857-111.208-73.803
	c-31.946-31.946-56.777-69.361-73.805-111.212c-14.719-36.123-6.42-77.297,21.09-104.843l9.05-8.893
	c7.884-7.849,20.712-7.849,28.658,0.062c1.14,1.111,2.151,2.353,3.007,3.695l33.366,55.907c5.474,9.217,3.998,20.945-3.583,28.513
	l-12.962,12.91c-5.447,5.564-6.947,14.054-3.746,21.148c3.343,7.642,7.208,15.145,11.49,22.3c2.278,3.806,7.21,5.047,11.016,2.768
	c3.806-2.277,5.045-7.209,2.768-11.015c-3.943-6.589-7.502-13.499-10.578-20.537c-0.017-0.038-0.033-0.076-0.051-0.115
	c-0.506-1.11-0.273-2.441,0.508-3.24l12.897-12.844c12.794-12.771,15.282-32.547,6.043-48.104l-33.431-56.015
	c-0.035-0.057-0.069-0.114-0.105-0.17c-1.539-2.439-3.367-4.695-5.37-6.645c-14.132-14.071-37.128-14.071-51.223-0.037l-9.067,8.909
	C71.66,62.621,61.983,110.63,79.145,152.744c17.838,43.843,43.853,83.043,77.323,116.512c33.469,33.469,72.67,59.485,116.509,77.322
	c13.589,5.538,28.025,8.347,42.55,8.347c6.565,0,13.148-0.574,19.678-1.729c4.368-0.773,7.282-4.94,6.509-9.308
	C340.941,339.521,336.772,336.608,332.406,337.379z"/>
<g>
</g>
<g>
</g>
<g>
</g>
<g>
</g>
<g>
</g>
<g>
</g>
<g>
</g>
<g>
</g>
<g>
</g>
<g>
</g>
<g>
</g>
<g>
</g>
<g>
</g>
<g>
</g>
<g>
</g>
</svg>
