<?xml version="1.0" encoding="iso-8859-1"?>
<!-- Generator: Adobe Illustrator 19.0.0, SVG Export Plug-In . SVG Version: 6.00 Build 0)  -->
<svg version="1.1" id="Capa_1" xmlns="http://www.w3.org/2000/svg" xmlns:xlink="http://www.w3.org/1999/xlink" x="0px" y="0px"
	 viewBox="0 0 512.002 512.002" style="enable-background:new 0 0 512.002 512.002;" xml:space="preserve">
<path style="fill:#FF80BD;" d="M303.937,78.042H42.765c-19.171,0-34.712,15.541-34.712,34.712v178.391
	c0,19.171,15.541,34.712,34.712,34.712h9.826c6.242,0,11.302,5.06,11.302,11.302v41.796c0,6.163,7.452,9.25,11.81,4.892l54.68-54.68
	c2.12-2.12,4.994-3.31,7.992-3.31h165.562c19.171,0,34.711-15.541,34.711-34.711V112.754
	C338.649,93.583,323.108,78.042,303.937,78.042z"/>
<path style="fill:#FF5CA6;" d="M100.367,357.266V315.47c0-6.242-5.06-11.302-11.302-11.302h-9.826
	c-19.171,0-34.712-15.541-34.712-34.712V91.066c0-4.607,0.906-9.001,2.536-13.024h-4.297c-19.171,0-34.712,15.541-34.712,34.712
	v178.391c0,19.171,15.541,34.712,34.711,34.712h9.826c6.242,0,11.302,5.06,11.302,11.302v41.796c0,6.163,7.452,9.25,11.81,4.892
	l24.884-24.884C100.456,358.425,100.367,357.865,100.367,357.266z"/>
<path style="fill:#6F4BEF;" d="M208.063,126.121h261.172c19.171,0,34.712,15.541,34.712,34.712v178.391
	c0,19.171-15.541,34.712-34.712,34.712h-9.826c-6.242,0-11.302,5.06-11.302,11.302v41.796c0,6.163-7.452,9.25-11.81,4.892
	l-54.68-54.68c-2.12-2.12-4.994-3.31-7.992-3.31H208.063c-19.171,0-34.711-15.541-34.711-34.711V160.832
	C173.351,141.662,188.892,126.121,208.063,126.121z"/>
<path style="fill:#4628B2;" d="M207.257,126.121c-19.171,0-34.712,15.541-34.712,34.712v165.024h130.586
	c19.171,0,34.711-15.541,34.711-34.711V126.121H207.257z"/>
<path d="M469.235,118.067H346.702v-5.313c0-23.581-19.185-42.766-42.765-42.766H42.765C19.185,69.988,0,89.172,0,112.754v150.413
	c0,4.448,3.605,8.054,8.054,8.054s8.054-3.606,8.054-8.054V112.754c0-14.699,11.958-26.658,26.657-26.658h261.172
	c14.699,0,26.657,11.959,26.657,26.658v178.391c0,14.699-11.958,26.657-26.657,26.657H181.405v-156.97
	c0-14.699,11.958-26.658,26.657-26.658h82.658c4.448,0,8.054-3.606,8.054-8.054s-3.605-8.054-8.054-8.054h-82.658
	c-23.581,0-42.765,19.185-42.765,42.766v156.97h-26.923c-5.171,0-10.032,2.014-13.687,5.67l-52.74,52.74v-39.054
	c0-10.673-8.683-19.356-19.356-19.356h-9.826c-14.699,0-26.657-11.959-26.657-26.658c0-4.448-3.605-8.054-8.054-8.054
	S0,286.696,0,291.144c0,23.581,19.185,42.766,42.765,42.766h9.826c1.791,0,3.249,1.457,3.249,3.248v41.796
	c0,6.078,3.628,11.507,9.243,13.833c1.862,0.772,3.813,1.147,5.745,1.147c3.887,0,7.699-1.521,10.571-4.392l54.68-54.68
	c0.613-0.613,1.429-0.951,2.297-0.951h26.923v5.314c0,23.581,19.185,42.765,42.765,42.765h165.562c0.867,0,1.683,0.338,2.297,0.952
	l54.68,54.68c2.871,2.871,6.682,4.393,10.572,4.392c1.931,0,3.881-0.375,5.744-1.147c5.615-2.325,9.243-7.755,9.243-13.833v-41.796
	c0-1.791,1.458-3.248,3.249-3.248h9.826c23.581,0,42.765-19.185,42.765-42.766V160.832C512,137.251,492.815,118.067,469.235,118.067
	z M495.892,339.223c0,14.699-11.958,26.658-26.657,26.658h-9.826c-10.673,0-19.356,8.683-19.356,19.356v39.054l-52.74-52.74
	c-3.656-3.656-8.516-5.67-13.687-5.67H208.063c-14.699,0-26.657-11.959-26.657-26.657v-5.314h122.532
	c23.581,0,42.765-19.185,42.765-42.765v-156.97h122.533c14.699,0,26.657,11.959,26.657,26.658v178.39H495.892z"/>
<path d="M300.565,162.762h-90.74c-4.448,0-8.054,3.606-8.054,8.054s3.605,8.054,8.054,8.054h90.74c4.448,0,8.054-3.606,8.054-8.054
	C308.618,166.368,305.013,162.762,300.565,162.762z"/>
<path d="M209.825,215.917h24.768c4.448,0,8.054-3.606,8.054-8.054s-3.605-8.054-8.054-8.054h-24.768
	c-4.448,0-8.054,3.606-8.054,8.054S205.376,215.917,209.825,215.917z"/>
<path d="M300.565,199.809h-34.306c-4.448,0-8.054,3.606-8.054,8.054s3.605,8.054,8.054,8.054h34.306
	c4.448,0,8.054-3.606,8.054-8.054S305.013,199.809,300.565,199.809z"/>
<path d="M210.63,267.462c-4.448,0-8.054,3.606-8.054,8.054s3.605,8.054,8.054,8.054h34.306c4.449,0,8.054-3.606,8.054-8.054
	s-3.605-8.054-8.054-8.054H210.63z"/>
<path d="M308.618,241.689c0-4.448-3.605-8.054-8.054-8.054h-90.74c-4.448,0-8.054,3.606-8.054,8.054s3.605,8.054,8.054,8.054h90.74
	C305.013,249.743,308.618,246.137,308.618,241.689z"/>
<g>
</g>
<g>
</g>
<g>
</g>
<g>
</g>
<g>
</g>
<g>
</g>
<g>
</g>
<g>
</g>
<g>
</g>
<g>
</g>
<g>
</g>
<g>
</g>
<g>
</g>
<g>
</g>
<g>
</g>
</svg>
