<?xml version="1.0" encoding="iso-8859-1"?>
<!-- Generator: Adobe Illustrator 19.0.0, SVG Export Plug-In . SVG Version: 6.00 Build 0)  -->
<svg version="1.1" id="Capa_1" xmlns="http://www.w3.org/2000/svg" xmlns:xlink="http://www.w3.org/1999/xlink" x="0px" y="0px"
	 viewBox="0 0 512 512" style="enable-background:new 0 0 512 512;" xml:space="preserve">
<path style="fill:#53515E;" d="M478.673,443.719V152.102c0-18.453-14.672-33.413-32.772-33.413H66.099
	c-18.099,0-32.772,14.959-32.772,33.413v291.422"/>
<path style="fill:#474756;" d="M210.314,265.217l-0.006,0.102c-0.018,0.3-0.04,0.598-0.073,0.913
	c-0.76,7.404-6.145,13.519-13.398,15.217l-33.019,7.726c-34.162,7.993-58.021,38.079-58.021,73.164v79.026h313.575V362.34
	c0-35.084-23.858-65.17-58.02-73.164l-33.02-7.726c-7.499-1.755-13.036-8.348-13.465-16.029c-0.018-0.327-0.033-0.656-0.033-0.986
	l-0.001-7.618c4.054-2.774,7.885-5.856,11.471-9.228h3.32c27.655,0,50.154-22.499,50.154-50.153v-0.181
	c5.145-5.438,8.113-12.693,8.113-20.491v-43.366c0-5.343-1.413-10.361-3.879-14.706h-58.253v15.42h31.528v41.939h-16.226v2.082
	h-15.302c0,9.833-2.144,19.267-6.373,28.042c-0.474,0.984-1.04,2.067-1.731,3.311l-4.165,7.501h-0.272l-4.546,4.94
	c-4.787,5.202-10.343,9.558-16.511,12.949l-7.932,4.359v27.083l0.051,0.201c0.009,0.199,0.019,0.401,0.031,0.608
	c1.182,21.151,16.417,39.296,37.048,44.124l33.019,7.726c20.248,4.738,34.389,22.57,34.389,43.365v27.639H136.402v-27.639
	c0-20.795,14.141-38.627,34.388-43.365l33.02-7.726c19.959-4.67,34.776-21.504,36.868-41.872c0.078-0.748,0.136-1.499,0.185-2.342
	l-0.006,0.111l0.013-0.222c0.045-0.824,0.069-1.652,0.069-2.496v-24.061l-8.516-4.214c-0.62-0.306-1.235-0.618-1.842-0.943
	c-0.294-0.157-0.583-0.322-0.873-0.485l-0.302-0.17c-0.415-0.233-0.828-0.468-1.219-0.7c-0.407-0.242-0.814-0.486-1.202-0.727
	c-0.405-0.253-0.806-0.514-1.201-0.772c-18.427-12.017-29.427-32.289-29.427-54.228h-15.302v-2.082h-16.227v-40.535l-8.127-4.314
	c-6.114-3.246-11.458-7.509-15.88-12.51h-36.327c6.567,13.832,16.747,25.843,29.73,34.648v23.424c0,16.481,13.408,29.89,29.89,29.89
	h5.982c6.513,20.827,20.096,39.03,38.974,51.342c0.419,0.273,0.839,0.545,1.266,0.816v5.628
	C210.335,264.689,210.328,264.939,210.314,265.217z"/>
<path style="fill:#DFE2EA;" d="M299.69,441.364L299.69,441.364c-37.028,0-52.191,0-87.644,0l0,0H8.844v15.786
	c0,26.067,21.132,47.199,47.199,47.199h399.914c26.067,0,47.199-21.132,47.199-47.199v-15.786H299.69z"/>
<path style="fill:#C7CAD3;" d="M11.531,472.857c6.473,18.343,23.953,31.492,44.512,31.492h399.914
	c20.559,0,38.038-13.149,44.512-31.492H299.69c-37.028,0-52.191,0-87.644,0H11.531z"/>
<rect x="70.56" y="155.41" style="fill:#FFFFFF;" width="374.45" height="249.87"/>
<path style="fill:#E9EBF2;" d="M329.627,247.587c27.655,0,50.154-22.499,50.154-50.153v-0.181
	c5.145-5.438,8.113-12.693,8.113-20.491v-21.348H357.29v20.634h-16.226v2.082h-15.302c0,9.833-2.144,19.267-6.373,28.042
	c-0.474,0.984-1.04,2.067-1.731,3.311l-4.165,7.501h-0.272l-4.546,4.94c-4.787,5.202-10.343,9.558-16.511,12.949l-7.932,4.359
	v27.083l0.051,0.201c0.009,0.199,0.019,0.401,0.031,0.608c1.182,21.151,16.417,39.296,37.048,44.124l33.019,7.726
	c20.248,4.738,34.389,22.57,34.389,43.365v27.639H136.402v-27.639c0-20.795,14.141-38.627,34.388-43.365l33.02-7.726
	c19.959-4.67,34.776-21.504,36.868-41.872c0.078-0.748,0.136-1.499,0.185-2.342l-0.006,0.111l0.013-0.222
	c0.045-0.824,0.069-1.652,0.069-2.496v-24.061l-8.516-4.214c-0.62-0.306-1.235-0.618-1.842-0.943
	c-0.294-0.157-0.583-0.322-0.873-0.485l-0.302-0.17c-0.415-0.233-0.828-0.468-1.219-0.7c-0.407-0.242-0.814-0.486-1.202-0.727
	c-0.405-0.253-0.806-0.514-1.201-0.772c-18.427-12.017-29.427-32.289-29.427-54.228h-15.302v-2.082h-16.227V155.41h-30.604v21.348
	c0,16.481,13.408,29.89,29.89,29.89h5.982c6.513,20.827,20.096,39.03,38.974,51.342c0.419,0.273,0.839,0.545,1.266,0.816v5.628
	c0,0.251-0.007,0.501-0.021,0.78l-0.006,0.102c-0.018,0.3-0.04,0.598-0.073,0.913c-0.76,7.404-6.145,13.519-13.398,15.217
	l-33.019,7.726c-34.162,7.993-58.021,38.079-58.021,73.164v42.94h313.575v-42.94c0-35.084-23.858-65.17-58.02-73.164l-33.02-7.726
	c-7.499-1.755-13.036-8.348-13.465-16.029c-0.018-0.327-0.033-0.656-0.033-0.986l-0.001-7.618c4.054-2.774,7.885-5.856,11.471-9.228
	h3.322V247.587z"/>
<circle style="fill:#DEAF73;" cx="183.08" cy="81.37" r="71.69"/>
<path style="fill:#86E56E;" d="M357.866,304.074l-10.629-2.487H177.935l-10.63,2.487c-27.065,6.333-46.205,30.469-46.205,58.265
	v42.94h282.971v-42.941C404.071,334.543,384.931,310.407,357.866,304.074z"/>
<path style="fill:#FAD7A5;" d="M262.586,353.508c36.95,0,68.948-21.114,84.651-51.921l-22.389-5.239
	c-14.828-3.469-25.314-16.693-25.314-31.921v-37.429h-73.896v37.429c0,15.228-10.486,28.451-25.314,31.921l-22.389,5.239
	C193.638,332.395,225.636,353.508,262.586,353.508z"/>
<path style="fill:#F0C891;" d="M299.533,264.427v-37.429h-73.896v37.429c0,1.136-0.066,2.26-0.18,3.37
	c10.724,5.339,22.807,8.358,35.6,8.358l0,0c13.972,0,27.102-3.59,38.533-9.885C299.557,265.66,299.533,265.046,299.533,264.427z"/>
<path style="fill:#FFE1B3;" d="M261.058,258.133L261.058,258.133c-44.185,0-80.004-35.819-80.004-80.004v-65.407
	c0-44.185,35.819-80.004,80.004-80.004l0,0c44.185,0,80.004,35.819,80.004,80.004v65.407
	C341.063,222.314,305.244,258.133,261.058,258.133z"/>
<path style="fill:#FAD7A5;" d="M274.358,33.839c21.113,14.403,34.979,38.645,34.979,66.132v65.407
	c0,44.185-35.819,80.004-80.004,80.004l0,0c-4.534,0-8.972-0.397-13.3-1.121c12.827,8.75,28.326,13.873,45.025,13.873l0,0
	c44.185,0,80.004-35.819,80.004-80.004v-65.407C341.063,73.07,312.21,40.175,274.358,33.839z"/>
<g>
	<rect x="163.55" y="106.53" style="fill:#CD905A;" width="17.503" height="30.944"/>
	<path style="fill:#CD905A;" d="M177.857,58.639c-4.044,6.478-9.473,16.915-12.347,30.763c-2.492,12.01-2.175,22.309-1.397,29.404
		c9.734-2.402,17.33-5.841,22.593-8.67c2.077-1.116,12.343-6.734,23.052-17.108l0,0L177.857,58.639z"/>
</g>
<path style="fill:#D59F63;" d="M363.002,103.913c-6.813-25.238-18.125-49.27-36.527-67.069c-5.965-5.769-28.378-27.45-61.552-29.164
	c0,0-34.616-1.788-64.506,23.647c-9.018,7.674-16.443,16.977-22.561,27.313c27.821,39.805,69.559,65.118,116.227,65.118
	c11.493,0,35.505-3.505,46.979-11.035L363.002,103.913z"/>
<path style="fill:#CD905A;" d="M326.475,36.844c-5.965-5.769-28.379-27.45-61.552-29.164c0,0-8.392-0.426-20.471,2.166
	c24.956,5.999,41.646,22.14,46.669,26.999c18.401,17.8,29.714,41.831,36.527,67.069l-21.939,8.809
	c-7.285,4.781-19.622,7.937-30.602,9.606c6.218,0.932,12.548,1.429,18.977,1.429c11.493,0,35.505-3.505,46.979-11.035l21.939-8.809
	C356.189,78.675,344.876,54.643,326.475,36.844z"/>
<path style="fill:#53515E;" d="M358.003,191.349h-16.941v-72.543h16.941c8.057,0,14.588,6.531,14.588,14.588v43.366
	C372.591,184.818,366.06,191.349,358.003,191.349z"/>
<rect x="341.06" y="118.81" style="fill:#474756;" width="13.465" height="72.54"/>
<path style="fill:#53515E;" d="M164.113,118.807h16.941v72.543h-16.941c-8.057,0-14.588-6.531-14.588-14.588v-43.366
	C149.525,125.338,156.057,118.807,164.113,118.807z"/>
<rect x="168.56" y="118.81" style="fill:#474756;" width="12.497" height="72.54"/>
<g>
	<path style="fill:#5FCE6A;" d="M139.647,332.993h-10.852c-4.921,8.735-7.695,18.773-7.695,29.345v42.94h53.706v-37.127
		C174.806,348.734,159.065,332.993,139.647,332.993z"/>
	<path style="fill:#5FCE6A;" d="M385.524,332.993c-19.418,0-35.159,15.741-35.159,35.159v37.127h53.706v-42.941
		c0-10.572-2.775-20.61-7.695-29.345L385.524,332.993L385.524,332.993z"/>
</g>
<path d="M503.156,433.713H40.978V152.102c0-14.205,11.269-25.762,25.121-25.762h51.622c6.257,9.096,14.439,16.911,24.154,22.823
	v27.599c0,12.262,9.977,22.239,22.24,22.239h11.821c5.818,23.723,21.314,43.672,42.052,55.426v10.001
	c0,11.734-7.98,21.797-19.406,24.471l-33.018,7.726c-30.684,7.179-52.113,34.202-52.113,65.714v35.29h-35.24V163.065h33.187
	c4.226,0,7.651-3.426,7.651-7.651s-3.425-7.651-7.651-7.651h-40.84c-4.226,0-7.651,3.425-7.651,7.651v249.865
	c0,4.225,3.425,7.651,7.651,7.651h374.451c4.226,0,7.651-3.425,7.651-7.651V155.414c0-4.225-3.425-7.651-7.651-7.651h-64.766
	v-14.368c0-2.466-0.409-4.836-1.154-7.055h66.812c13.851,0,25.121,11.557,25.121,25.762v249.75c0,4.225,3.425,7.651,7.651,7.651
	s7.651-3.426,7.651-7.651v-249.75c0-22.643-18.133-41.064-40.423-41.064h-80.115c3.594-1.399,5.631-5.31,4.603-9.118
	c-1.466-5.434-3.119-10.739-4.911-15.768c-8.026-22.512-19.359-40.952-33.682-54.807c-20.197-19.537-42.563-30.07-66.478-31.306
	c-1.166-0.058-22.456-0.955-46.566,10.446c-10.998-5.537-23.278-8.455-35.67-8.455c-43.747,0-79.337,35.59-79.337,79.337
	c0,10.347,2.021,20.391,5.765,29.672H66.099c-22.289,0-40.423,18.421-40.423,41.064v281.611H8.844c-4.226,0-7.651,3.425-7.651,7.651
	v15.786c0,30.244,24.606,54.85,54.85,54.85h399.914c30.244,0,54.85-24.606,54.85-54.85v-15.786
	C510.807,437.139,507.382,433.713,503.156,433.713z M183.085,103.398c-1.214,0.652-2.45,1.265-3.697,1.861
	c-1.051,0.234-2.017,0.685-2.856,1.302c-1.751,0.76-3.525,1.475-5.331,2.124c-0.013-5.951,0.589-11.885,1.801-17.728
	c1.303-6.277,3.293-12.347,5.93-18.153c5.969,7.44,12.387,14.24,19.188,20.359C191.433,98.653,185.658,102.014,183.085,103.398z
	 M173.403,183.699h-9.29c-3.825,0-6.938-3.112-6.938-6.937v-43.366c0-3.825,3.112-6.937,6.938-6.937h9.29v51.671V183.699z
	 M188.705,178.129v-59.322v-1.091c0.542-0.279,1.087-0.551,1.624-0.839c3.31-1.78,11.137-6.348,19.842-13.87
	c24.898,18.385,53.835,28.402,83.912,28.402c9.74,0,26.252-2.166,39.329-6.729v53.45c0,14.294-4.183,27.621-11.365,38.854h-52.712
	c-4.226,0-7.651,3.426-7.651,7.651s3.425,7.651,7.651,7.651h39.631c-12.771,11.311-29.546,18.197-47.907,18.197
	C221.162,250.483,188.705,218.025,188.705,178.129z M358.003,126.458c3.825,0,6.938,3.112,6.938,6.937v43.366
	c0,3.825-3.112,6.937-6.938,6.937h-9.289v-5.569v-51.671C348.714,126.458,358.003,126.458,358.003,126.458z M346.183,199h2.914
	c-0.453,5.674-3.336,10.66-7.609,13.937C343.429,208.471,345.003,203.814,346.183,199z M128.751,362.339
	c0-24.367,16.571-45.263,40.298-50.815l4.988-1.167c5.699,9.735,12.904,18.42,21.508,25.857c1.447,1.25,3.227,1.862,5,1.862
	c2.145,0,4.279-0.898,5.791-2.648c2.764-3.197,2.412-8.029-0.785-10.792c-6.109-5.28-11.38-11.305-15.782-17.961l12.299-2.878
	c18.382-4.302,31.221-20.492,31.221-39.371v-3.178c8.733,2.926,18.065,4.535,27.771,4.535c10.845,0,21.229-1.994,30.824-5.61v4.254
	c0,18.879,12.839,35.069,31.221,39.371l12.319,2.883c-16.079,24.384-43.173,39.176-72.839,39.176
	c-13.41,0-26.269-2.959-38.222-8.794c-3.795-1.852-8.378-0.278-10.231,3.519c-1.854,3.797-0.279,8.378,3.519,10.232
	c14.061,6.864,29.178,10.345,44.934,10.345c36.759,0,70.154-19.321,88.557-50.801l4.981,1.165
	c23.727,5.551,40.297,26.447,40.297,50.815v34.753H128.751V362.339z M437.358,163.065v234.563h-25.636v-35.29
	c0-31.512-21.43-58.535-52.112-65.714l-33.019-7.726c-11.427-2.674-19.406-12.737-19.406-24.471v-11.805
	c8.712-5.415,16.401-12.317,22.728-20.344c18.883-0.153,34.226-15.396,34.551-34.237c9.122-2.775,15.78-11.263,15.78-21.279v-13.697
	L437.358,163.065L437.358,163.065z M264.529,15.321c20.113,1.039,39.165,10.131,56.627,27.022
	c12.618,12.205,22.68,28.673,29.909,48.947c1.658,4.651,3.189,9.569,4.551,14.617c0.659,2.443,2.433,4.28,4.623,5.132h-2.234
	c-0.442,0-0.872,0.046-1.294,0.118h-8.163c-0.191-0.912-0.545-1.805-1.087-2.632c-2.318-3.534-7.062-4.516-10.595-2.199
	c-9.234,6.06-31.141,9.781-42.782,9.781c-28.468,0-55.883-10.17-79.143-28.742l-27.488-29.632
	c5.298-8.038,11.308-14.95,17.924-20.58C232.433,14.128,264.231,15.306,264.529,15.321z M183.082,17.331
	c6.496,0,12.949,0.997,19.105,2.914c-2.256,1.623-4.503,3.362-6.727,5.254c-9.149,7.785-17.249,17.568-24.083,29.073
	c-0.003,0.005-0.007,0.01-0.011,0.015c-0.012,0.02-0.023,0.04-0.035,0.06c-0.019,0.032-0.039,0.062-0.058,0.094
	c-0.004,0.007-0.007,0.015-0.011,0.023c-6.35,10.217-10.807,21.345-13.242,33.083c-1.697,8.181-2.363,16.511-2.019,24.847
	c-7.41,2.915-12.886,9.694-13.936,17.845c-14.427-12.041-23.017-29.972-23.017-49.174C119.047,46.057,147.773,17.331,183.082,17.331
	z M495.505,457.15c0,21.807-17.741,39.548-39.548,39.548H56.043c-21.807,0-39.548-17.741-39.548-39.548v-8.135h479.01V457.15z"/>
<circle cx="229.33" cy="143.94" r="7.5"/>
<circle cx="289.63" cy="143.94" r="7.5"/>
<path d="M260.482,212.71c-9.789,0-19.578-3.726-27.031-11.179c-2.929-2.929-2.929-7.678,0-10.606c2.93-2.929,7.678-2.929,10.607,0
	c9.055,9.057,23.793,9.057,32.848,0c2.93-2.929,7.678-2.929,10.607,0s2.929,7.678,0,10.606
	C280.06,208.984,270.271,212.71,260.482,212.71z"/>
<g>
</g>
<g>
</g>
<g>
</g>
<g>
</g>
<g>
</g>
<g>
</g>
<g>
</g>
<g>
</g>
<g>
</g>
<g>
</g>
<g>
</g>
<g>
</g>
<g>
</g>
<g>
</g>
<g>
</g>
</svg>
