<?xml version="1.0" encoding="iso-8859-1"?>
<!-- Generator: Adobe Illustrator 19.0.0, SVG Export Plug-In . SVG Version: 6.00 Build 0)  -->
<svg version="1.1" id="Capa_1" xmlns="http://www.w3.org/2000/svg" xmlns:xlink="http://www.w3.org/1999/xlink" x="0px" y="0px"
	 viewBox="0 0 512 512" style="enable-background:new 0 0 512 512;" xml:space="preserve">
<path d="M367.472,351.608H202.804c-4.245,0-7.687-3.442-7.687-7.687V153.716c0-4.245,3.442-7.687,7.687-7.687h164.668
	c4.245,0,7.687,3.442,7.687,7.687v190.205C375.159,348.166,371.717,351.608,367.472,351.608z M210.491,336.234h149.294V161.403
	H210.491V336.234z"/>
<path style="fill:#53515E;" d="M479.716,411.565V118.582c0-18.54-14.741-33.569-32.925-33.569H65.21
	c-18.184,0-32.925,15.029-32.925,33.569v292.786"/>
<path style="fill:#474756;" d="M258.233,326.195h103.53c-0.189,1.613-0.297,3.251-0.297,4.914c0,23.105,18.73,41.835,41.835,41.835
	c23.105,0,41.835-18.73,41.835-41.835c0-1.716-0.115-3.404-0.316-5.066c12.028-1.329,21.385-11.523,21.385-23.905V91.475
	c-5.444-4.06-12.153-6.462-19.414-6.462H217.473v200.423C217.473,307.946,235.722,326.195,258.233,326.195z"/>
<path style="fill:#DFE2EA;" d="M299.895,409.198L299.895,409.198c-37.201,0-52.436,0-88.055,0l0,0H7.687v15.86
	c0,26.189,21.231,47.42,47.42,47.42h401.786c26.189,0,47.42-21.231,47.42-47.42v-15.86L299.895,409.198L299.895,409.198z"/>
<path style="fill:#C7CAD3;" d="M10.387,440.838c6.503,18.429,24.065,31.64,44.72,31.64h401.786c20.655,0,38.216-13.211,44.72-31.64
	H299.895c-37.201,0-52.435,0-88.055,0L10.387,440.838L10.387,440.838z"/>
<rect x="69.69" y="121.911" style="fill:#FFFFFF;" width="376.2" height="251.03"/>
<path style="fill:#E9EBF2;" d="M445.894,121.909H217.473v164.039c0,22.511,18.249,40.76,40.76,40.76h103.53
	c-0.189,1.613-0.297,3.251-0.297,4.914c0,20.879,15.296,38.182,35.293,41.322h13.083c19.997-3.141,35.293-20.443,35.293-41.322
	c0-1.716-0.115-3.404-0.316-5.066c0.363-0.04,0.716-0.114,1.074-0.17V121.909H445.894z"/>
<circle style="fill:#00AAF0;" cx="403.32" cy="331.451" r="15.374"/>
<path style="fill:#AAE1FF;" d="M425.744,39.524H257.933c-11.113,0-20.122,9.009-20.122,20.122v222.131
	c0,11.113,9.009,20.122,20.122,20.122h131.564l13.836,13.836l13.836-13.836h8.575c11.113,0,20.122-9.009,20.122-20.122V59.647
	C445.867,48.533,436.857,39.524,425.744,39.524z"/>
<path style="fill:#6F4BEF;" d="M425.744,39.524H257.933c-11.113,0-20.122,9.009-20.122,20.122v61.87h208.056v-61.87
	C445.867,48.533,436.857,39.524,425.744,39.524z"/>
<circle style="fill:#FFF082;" cx="283.92" cy="81.141" r="15.86"/>
<path style="fill:#FF9EA4;" d="M164.979,217.687h-53.744c-2.824,0-5.113-2.289-5.113-5.113V158.83c0-2.824,2.289-5.113,5.113-5.113
	h53.744c2.824,0,5.113,2.289,5.113,5.113v53.744C170.092,215.398,167.803,217.687,164.979,217.687z"/>
<path d="M504.313,401.512h-16.911v-282.93c0-20.408-14.665-37.391-33.849-40.673V59.646c0-15.334-12.475-27.809-27.809-27.809
	H257.933c-15.334,0-27.809,12.475-27.809,27.809v54.576H69.69c-4.245,0-7.687,3.442-7.687,7.687v251.036
	c0,4.245,3.442,7.687,7.687,7.687h376.204c4.245,0,7.687-3.442,7.687-7.687v-35.174c0-4.245-3.442-7.687-7.687-7.687
	s-7.687,3.442-7.687,7.687v27.486H77.376V129.596h152.748v152.182c0,15.334,12.475,27.809,27.809,27.809h128.38l3.321,3.321
	c-5.681,4.204-9.371,10.95-9.371,18.544c0,12.716,10.345,23.06,23.06,23.06c12.716,0,23.06-10.345,23.06-23.06
	c0-7.588-3.685-14.331-9.359-18.535l3.329-3.329h5.391c15.334,0,27.809-12.475,27.809-27.809V93.65
	c10.641,3.04,18.475,13.062,18.475,24.931v282.93h-364.54c-4.245,0-7.687,3.442-7.687,7.687c0,4.245,3.442,7.687,7.687,7.687
	h370.523c0.549,0.124,1.118,0.196,1.704,0.196c0.587,0,1.156-0.072,1.705-0.196h15.206v8.173c0,21.909-17.824,39.733-39.733,39.733
	H55.107c-21.909,0-39.734-17.824-39.734-39.733v-8.173h60.342c4.245,0,7.687-3.442,7.687-7.687c0-4.245-3.442-7.687-7.687-7.687
	H39.971v-282.93c0-14.272,11.322-25.883,25.238-25.883h137.594c4.245,0,7.687-3.442,7.687-7.687s-3.442-7.687-7.687-7.687H65.21
	c-22.393,0-40.612,18.507-40.612,41.256v282.93H7.687c-4.245,0-7.687,3.442-7.687,7.687v15.859
	c0,30.386,24.721,55.107,55.107,55.107h401.786c30.386,0,55.107-24.72,55.107-55.106v-15.86
	C512,404.953,508.558,401.512,504.313,401.512z M257.933,47.211h167.811c6.857,0,12.435,5.578,12.435,12.435v54.183H245.498V59.646
	C245.498,52.789,251.076,47.211,257.933,47.211z M403.323,339.138c-4.239,0-7.687-3.448-7.687-7.687s3.448-7.687,7.687-7.687
	s7.687,3.448,7.687,7.687S407.561,339.138,403.323,339.138z M425.744,294.213h-8.575c-2.039,0-3.994,0.81-5.435,2.251l-8.401,8.401
	l-8.401-8.401c-1.441-1.442-3.397-2.251-5.435-2.251H257.933c-6.857,0-12.435-5.578-12.435-12.435V129.203H438.18v152.574
	C438.18,288.635,432.601,294.213,425.744,294.213z"/>
<circle cx="416.5" cy="153.721" r="7.687"/>
<path d="M270.904,161.403H385.75c4.245,0,7.687-3.442,7.687-7.687s-3.442-7.687-7.687-7.687H270.904
	c-4.245,0-7.687,3.442-7.687,7.687C263.217,157.962,266.659,161.403,270.904,161.403z"/>
<path d="M170.092,247.238h-39.947c-4.245,0-7.687,3.442-7.687,7.687c0,4.245,3.442,7.687,7.687,7.687h39.947
	c4.245,0,7.687-3.442,7.687-7.687S174.337,247.238,170.092,247.238z"/>
<circle cx="270.9" cy="188.651" r="7.687"/>
<circle cx="106.12" cy="254.921" r="7.687"/>
<path d="M170.092,275.935h-39.947c-4.245,0-7.687,3.442-7.687,7.687c0,4.245,3.442,7.687,7.687,7.687h39.947
	c4.245,0,7.687-3.442,7.687-7.687C177.778,279.377,174.337,275.935,170.092,275.935z"/>
<circle cx="106.12" cy="283.621" r="7.687"/>
<path d="M170.092,306.682h-39.947c-4.245,0-7.687,3.442-7.687,7.687c0,4.245,3.442,7.687,7.687,7.687h39.947
	c4.245,0,7.687-3.442,7.687-7.687C177.778,310.124,174.337,306.682,170.092,306.682z"/>
<circle cx="106.12" cy="314.371" r="7.687"/>
<path d="M170.092,336.234h-39.947c-4.245,0-7.687,3.442-7.687,7.687s3.442,7.687,7.687,7.687h39.947
	c4.245,0,7.687-3.442,7.687-7.687S174.337,336.234,170.092,336.234z"/>
<circle cx="106.12" cy="343.921" r="7.687"/>
<path d="M416.497,180.961H301.651c-4.245,0-7.687,3.442-7.687,7.687s3.442,7.687,7.687,7.687h114.845
	c4.245,0,7.687-3.442,7.687-7.687S420.742,180.961,416.497,180.961z"/>
<path d="M367.472,210h-65.821c-4.245,0-7.687,3.442-7.687,7.687s3.442,7.687,7.687,7.687h65.821c4.245,0,7.687-3.442,7.687-7.687
	S371.717,210,367.472,210z"/>
<path d="M283.915,104.69c12.984,0,23.547-10.563,23.547-23.547s-10.563-23.547-23.547-23.547s-23.547,10.563-23.547,23.547
	S270.931,104.69,283.915,104.69z M283.915,72.97c4.507,0,8.173,3.667,8.173,8.173s-3.667,8.173-8.173,8.173
	s-8.173-3.667-8.173-8.173C275.742,76.637,279.409,72.97,283.915,72.97z"/>
<path d="M177.778,153.716c0-4.245-3.442-7.687-7.687-7.687h-63.97c-4.245,0-7.687,3.442-7.687,7.687v63.97
	c0,4.245,3.442,7.687,7.687,7.687h63.97c4.245,0,7.687-3.442,7.687-7.687V153.716z M162.405,210h-48.597v-48.597h48.597V210z"/>
<g>
</g>
<g>
</g>
<g>
</g>
<g>
</g>
<g>
</g>
<g>
</g>
<g>
</g>
<g>
</g>
<g>
</g>
<g>
</g>
<g>
</g>
<g>
</g>
<g>
</g>
<g>
</g>
<g>
</g>
</svg>
