<?xml version="1.0" encoding="iso-8859-1"?>
<!-- Generator: Adobe Illustrator 19.0.0, SVG Export Plug-In . SVG Version: 6.00 Build 0)  -->
<svg xmlns="http://www.w3.org/2000/svg" xmlns:xlink="http://www.w3.org/1999/xlink" version="1.1" id="Layer_1" x="0px" y="0px" viewBox="0 0 512 512" style="enable-background:new 0 0 512 512;" xml:space="preserve">
<polygon style="fill:#FF6465;" points="193.131,156.416 101.396,256 193.131,355.584 502.338,484.42 502.338,27.58 "/>
<path style="fill:#E65A5B;" d="M63.102,156.416c-29.515,0-53.442,23.926-53.442,53.442v92.284c0,29.516,23.927,53.442,53.442,53.442  h130.027V156.416H63.102z"/>
<path d="M502.339,139.653c-5.337,0-9.661,4.326-9.661,9.661v320.615l-63.314-26.381c-4.926-2.052-10.581,0.276-12.634,5.201  c-2.053,4.926,0.277,10.582,5.201,12.634l76.691,31.954c1.195,0.498,2.458,0.743,3.715,0.743c1.881,0,3.75-0.549,5.36-1.623  c2.688-1.792,4.302-4.807,4.302-8.038V149.314C512,143.979,507.674,139.653,502.339,139.653z"/>
<path d="M507.698,19.542c-2.686-1.793-6.092-2.123-9.075-0.88L191.198,146.755H63.102C28.308,146.755,0,175.062,0,209.858v92.285  c0,34.795,28.308,63.103,63.102,63.103h128.096l183.359,76.4c1.215,0.506,2.473,0.746,3.712,0.746c3.784,0,7.376-2.237,8.922-5.947  c2.053-4.926-0.277-10.582-5.201-12.634l-179.198-74.666V245.928c0-5.335-4.326-9.661-9.661-9.661c-5.335,0-9.661,4.326-9.661,9.661  v99.996H63.102c-24.141-0.001-43.781-19.641-43.781-43.782v-92.285c0-24.141,19.64-43.781,43.781-43.781h120.366v32.756  c0,5.335,4.326,9.661,9.661,9.661c5.335,0,9.661-4.326,9.661-9.661v-35.976L492.677,42.07v60.149c0,5.335,4.324,9.661,9.661,9.661  s9.661-4.326,9.661-9.661V27.58C512,24.35,510.386,21.333,507.698,19.542z"/>
<g>
</g>
<g>
</g>
<g>
</g>
<g>
</g>
<g>
</g>
<g>
</g>
<g>
</g>
<g>
</g>
<g>
</g>
<g>
</g>
<g>
</g>
<g>
</g>
<g>
</g>
<g>
</g>
<g>
</g>
</svg>
