<?xml version="1.0" encoding="iso-8859-1"?>
<!-- Generator: Adobe Illustrator 19.0.0, SVG Export Plug-In . SVG Version: 6.00 Build 0)  -->
<svg xmlns="http://www.w3.org/2000/svg" xmlns:xlink="http://www.w3.org/1999/xlink" version="1.1" id="Layer_1" x="0px" y="0px" viewBox="0 0 512 512" style="enable-background:new 0 0 512 512;" xml:space="preserve">
<circle style="fill:#353640;" cx="256.003" cy="256.003" r="173.835"/>
<path style="fill:#FFFFFF;" d="M255.999,116.959c76.667,0,139.042,62.374,139.042,139.042s-62.374,139.042-139.042,139.042  L255.999,116.959L255.999,116.959z"/>
<path d="M255.999,73.468c-100.649,0-182.533,81.883-182.533,182.533s81.883,182.533,182.533,182.533s182.533-81.883,182.533-182.533  S356.648,73.468,255.999,73.468z M255.999,421.137c-91.057,0-165.137-74.08-165.137-165.137s74.08-165.137,165.137-165.137  S421.136,164.944,421.136,256S347.056,421.137,255.999,421.137z"/>
<path d="M255.999,108.261c-4.805,0-8.698,3.893-8.698,8.698v278.083c0,4.805,3.893,8.698,8.698,8.698  c81.464,0,147.74-66.275,147.74-147.74S337.464,108.261,255.999,108.261z M264.698,386.058V125.943  c67.834,4.489,121.646,61.106,121.646,130.058S332.532,381.568,264.698,386.058z"/>
<path d="M255.999,57.537c4.805,0,8.698-3.893,8.698-8.698V8.699c0-4.805-3.893-8.698-8.698-8.698c-4.805,0-8.698,3.893-8.698,8.698  v40.14C247.301,53.644,251.196,57.537,255.999,57.537z"/>
<path d="M424.717,74.981l-28.384,28.384c-3.397,3.398-3.397,8.905,0,12.301c1.699,1.698,3.926,2.547,6.151,2.547  s4.452-0.849,6.151-2.547l28.384-28.384c3.397-3.398,3.397-8.905,0-12.301C433.622,71.586,428.115,71.586,424.717,74.981z"/>
<path d="M503.302,247.302h-40.14c-4.805,0-8.698,3.893-8.698,8.698s3.893,8.698,8.698,8.698h40.14c4.805,0,8.698-3.893,8.698-8.698  S508.106,247.302,503.302,247.302z"/>
<path d="M408.636,396.334c-3.398-3.396-8.905-3.396-12.301,0c-3.397,3.398-3.397,8.905,0,12.301l28.384,28.384  c1.699,1.698,3.926,2.547,6.151,2.547c2.226,0,4.452-0.849,6.151-2.547c3.397-3.398,3.397-8.905,0-12.301L408.636,396.334z"/>
<path d="M255.999,454.463c-4.805,0-8.698,3.893-8.698,8.698v40.14c0,4.805,3.893,8.698,8.698,8.698c4.805,0,8.698-3.893,8.698-8.698  v-40.14C264.698,458.358,260.804,454.463,255.999,454.463z"/>
<path d="M103.364,396.334L74.98,424.718c-3.397,3.398-3.397,8.905,0,12.301c1.699,1.698,3.926,2.547,6.151,2.547  s4.452-0.849,6.151-2.547l28.384-28.384c3.397-3.398,3.397-8.905,0-12.301C112.268,392.938,106.762,392.938,103.364,396.334z"/>
<path d="M48.838,247.302H8.698C3.893,247.302,0,251.195,0,256s3.893,8.698,8.698,8.698h40.14c4.805,0,8.698-3.893,8.698-8.698  S53.643,247.302,48.838,247.302z"/>
<path d="M103.364,115.666c1.699,1.698,3.926,2.547,6.151,2.547c2.226,0,4.452-0.849,6.151-2.547c3.397-3.398,3.397-8.905,0-12.301  L87.283,74.981c-3.398-3.396-8.905-3.396-12.301,0c-3.397,3.398-3.397,8.905,0,12.301L103.364,115.666z"/>
<g>
</g>
<g>
</g>
<g>
</g>
<g>
</g>
<g>
</g>
<g>
</g>
<g>
</g>
<g>
</g>
<g>
</g>
<g>
</g>
<g>
</g>
<g>
</g>
<g>
</g>
<g>
</g>
<g>
</g>
</svg>
