<?xml version="1.0" encoding="iso-8859-1"?>
<!-- Generator: Adobe Illustrator 19.0.0, SVG Export Plug-In . SVG Version: 6.00 Build 0)  -->
<svg xmlns="http://www.w3.org/2000/svg" xmlns:xlink="http://www.w3.org/1999/xlink" version="1.1" id="Layer_1" x="0px" y="0px" viewBox="0 0 512 512" style="enable-background:new 0 0 512 512;" xml:space="preserve">
<path style="fill:#F0C087;" d="M301.001,162.546l-62.456-10.416V39.449c0-17.247-13.981-31.228-31.228-31.228l0,0  c-17.247,0-31.228,13.981-31.228,31.228v149.265l-0.609,4.953l-45.919-19.74c-15.845-6.811-34.211,0.512-41.021,16.357l0,0  c-6.811,15.845,0.512,34.211,16.357,41.021l62.737,26.969c0.334,88.684,54.225,101.743,54.225,101.743v143.761h132.348V360.018  c0,0,54.233-24.163,54.233-113.525l-44.893-63.115L301.001,162.546z"/>
<path style="fill:#E6B273;" d="M269.773,120.901L269.773,120.901c-17.247,0-31.228,13.981-31.228,31.228v63.517  c0,17.247,13.981,31.228,31.228,31.228l0,0c17.247,0,31.228-13.981,31.228-31.228v-63.517  C301.001,134.883,287.02,120.901,269.773,120.901z"/>
<path style="fill:#D9A86C;" d="M332.229,131.318L332.229,131.318c-17.247,0-31.228,13.981-31.228,31.228v63.517  c0,17.247,13.981,31.228,31.228,31.228l0,0c17.247,0,31.228-13.981,31.228-31.228v-63.517  C363.457,145.299,349.476,131.318,332.229,131.318z"/>
<path style="fill:#E6B273;" d="M394.776,152.151L394.776,152.151c-17.247,0-31.228,13.981-31.228,31.228v63.517  c0,17.247,13.981,31.228,31.228,31.228l0,0c17.247,0,31.228-13.981,31.228-31.228v-63.517  C426.003,166.132,412.022,152.151,394.776,152.151z"/>
<path d="M354.204,458.898c-4.541,0-8.222,3.681-8.222,8.222v28.437H230.076V360.018c0-3.793-2.533-7.079-6.22-7.974  c-0.141-0.037-14.364-3.88-27.084-20.027c-2.81-3.567-7.979-4.18-11.546-1.37c-3.567,2.81-4.18,7.979-1.37,11.546  c10.833,13.751,22.714,20.508,29.778,23.571v138.014c0,4.541,3.681,8.222,8.222,8.222h132.348c4.541,0,8.222-3.681,8.222-8.222  V467.12C362.426,462.579,358.744,458.898,354.204,458.898z"/>
<path d="M394.77,143.93c-9.215,0-17.695,3.185-24.418,8.5c-4.479-16.865-19.872-29.332-38.129-29.332  c-10.615,0-20.256,4.222-27.354,11.064c-6.549-12.74-19.818-21.48-35.102-21.48c-8.581,0-16.524,2.762-23.006,7.433V39.449  C246.763,17.697,229.067,0,207.314,0s-39.449,17.697-39.449,39.449v141.997c0,0-35.051-15.066-35.06-15.071  c-19.75-8.489-43.355,0.967-51.821,20.663c-8.591,19.984,0.679,43.231,20.663,51.821l57.849,24.868  c0.476,16.622,2.858,31.767,7.099,45.088c1.378,4.328,6.003,6.717,10.327,5.341c4.327-1.377,6.718-6.002,5.341-10.327  c-4.19-13.162-6.347-28.498-6.412-45.584c-0.012-3.274-1.967-6.23-4.975-7.522c0,0-62.702-26.954-62.736-26.969  c-11.497-4.943-16.995-18.72-12.051-30.222c4.947-11.509,18.701-17.003,30.222-12.05l45.919,19.738  c2.377,1.022,5.095,0.865,7.34-0.423c2.244-1.288,3.75-3.557,4.067-6.125c0.241-1.961,0.672-3.978,0.672-5.959V39.449  c0-12.685,10.321-23.006,23.006-23.006c12.685,0,23.005,10.321,23.005,23.006v112.68v63.517c0,3.399,0.432,6.699,1.244,9.847  c4.385,17.003,19.851,29.602,38.205,29.602c6.343,0,11.043,2.032,14.795,6.394c11.972,13.927,10.054,46.875,8.307,58.39  c-0.687,4.488,2.393,8.684,6.881,9.373c0.422,0.065,0.842,0.095,1.256,0.095c3.99,0,7.493-2.91,8.116-6.976  c0.075-0.49,1.836-12.172,1.409-26.512c-0.601-20.182-5.137-35.345-13.482-45.068c-1.127-1.313-2.332-2.514-3.598-3.62  c0.064,0.056,1.713-1.375,1.867-1.505c0.613-0.522,1.22-1.06,1.8-1.618c0.052,0.1,0.112,0.194,0.163,0.293  c4.343,8.267,11.683,14.865,20.336,18.36c8.005,3.234,17.101,3.667,25.397,1.307c4.724-1.344,9.22-3.619,13.122-6.6  c0.168-0.128,0.339-0.251,0.503-0.382c0.14,0.529,0.293,1.055,0.455,1.576c0.012,0.037,0.025,0.073,0.037,0.111  c1.934,6.145,5.399,11.788,9.997,16.3c4.311,4.231,9.587,7.474,15.331,9.355c3.945,1.292,8.159,1.975,12.312,1.975  c0.375,0,0.75-0.005,1.124-0.015c-11.793,50.344-43.632,65.533-45.039,66.181c-2.964,1.322-4.874,4.263-4.874,7.509v74.216  c0,4.541,3.681,8.222,8.222,8.222c4.541,0,8.222-3.681,8.222-8.222v-69.345c11.857-7.191,41.663-30.162,51.237-83.371  c12.239-6.704,20.558-19.709,20.558-34.622v-63.517C434.22,161.626,416.524,143.93,394.77,143.93z M292.775,162.546v53.1  c0,12.685-10.321,23.006-23.006,23.006c-12.685,0-23.006-10.321-23.006-23.006v-63.517c0-12.685,10.321-23.006,23.006-23.006  c12.685,0,23.006,10.321,23.006,23.006V162.546z M355.231,215.688v10.373c0,12.685-10.321,23.006-23.006,23.006  c-12.685,0-23.006-10.321-23.006-23.006v-10.416v-53.1c0-12.685,10.321-23.006,23.006-23.006c12.685,0,23.006,10.321,23.006,23.006  V215.688z M417.777,246.896c0,10.002-6.427,18.51-15.359,21.671c-0.345,0.122-0.688,0.251-1.037,0.356  c-0.379,0.114-0.768,0.203-1.155,0.297c-0.329,0.08-0.654,0.171-0.987,0.238c-0.46,0.091-0.931,0.151-1.4,0.214  c-0.269,0.036-0.535,0.088-0.806,0.114c-0.745,0.073-1.5,0.114-2.264,0.114c-12.685,0-23.006-10.321-23.006-23.005V215.75v-32.372  c0-12.685,10.321-23.006,23.006-23.006c12.685,0,23.006,10.321,23.006,23.006v63.518H417.777z"/>
<g>
</g>
<g>
</g>
<g>
</g>
<g>
</g>
<g>
</g>
<g>
</g>
<g>
</g>
<g>
</g>
<g>
</g>
<g>
</g>
<g>
</g>
<g>
</g>
<g>
</g>
<g>
</g>
<g>
</g>
</svg>
