<?xml version="1.0" encoding="iso-8859-1"?>
<!-- Generator: Adobe Illustrator 19.0.0, SVG Export Plug-In . SVG Version: 6.00 Build 0)  -->
<svg xmlns="http://www.w3.org/2000/svg" xmlns:xlink="http://www.w3.org/1999/xlink" version="1.1" id="Layer_1" x="0px" y="0px" viewBox="0 0 511.999 511.999" style="enable-background:new 0 0 511.999 511.999;" xml:space="preserve">
<path style="fill:#7DD2F0;" d="M14.447,212.002L228.013,90.347c8.469-5.087,19.25,1.013,19.25,10.893v50.951  c3.351,0.495,6.7,0.994,10.05,1.495c27.885,3.951,55.861,11.105,82.289,20.793c46.747,17.136,90.315,45.172,120.487,85.299  c31.396,41.756,46.374,95.194,43.213,147.203c-0.003,0.053-0.007,0.106-0.01,0.161c-0.598,9.44-8.635,16.679-18.087,16.336  c-0.199-0.007-0.397-0.014-0.594-0.022c-7.769-0.281-14.458-5.641-16.337-13.185c-0.034-0.138-0.066-0.265-0.096-0.378  c-5.323-20.423-14.037-40.077-25.977-57.497c-20.322-29.65-50.299-50.248-85.125-58.98c-35.159-8.816-71.152-6.507-106.507-0.387  c-2.156,0.373-3.307,0.572-3.307,0.572v50.951c0,9.88-10.781,15.98-19.25,10.892L14.447,233.787  C6.229,228.851,6.229,216.938,14.447,212.002z"/>
<path d="M234.553,365.589c-3.688,0-7.371-0.995-10.713-2.981L10.348,240.995c-0.056-0.031-0.112-0.064-0.166-0.097  C3.806,237.068,0,230.342,0,222.904c0-7.438,3.806-14.165,10.183-17.995c0.055-0.033,0.11-0.066,0.166-0.097L223.843,83.196  c6.553-3.892,14.416-3.977,21.056-0.219c6.671,3.775,10.654,10.606,10.654,18.271v43.804c0.995,0.149,1.993,0.297,2.988,0.445  c22.672,3.212,45.637,8.53,68.191,15.798c4.356,1.404,6.749,6.072,5.346,10.427c-1.404,4.356-6.073,6.746-10.427,5.346  c-21.659-6.979-43.696-12.084-65.496-15.172c-3.409-0.509-6.756-1.006-10.102-1.502c-4.063-0.602-7.072-4.089-7.072-8.196v-50.949  c0-2.327-1.569-3.467-2.244-3.848c-0.674-0.382-2.457-1.141-4.454,0.059c-0.054,0.032-0.109,0.065-0.165,0.096L18.654,219.152  c-1.877,1.166-2.082,3.008-2.082,3.752s0.205,2.586,2.082,3.752l213.463,121.596c0.056,0.031,0.112,0.064,0.166,0.097  c1.994,1.196,3.779,0.439,4.453,0.059c0.675-0.382,2.244-1.521,2.244-3.848v-50.951c0-4.032,2.903-7.479,6.877-8.165l3.301-0.571  c43.54-7.539,78.472-7.375,109.936,0.514c15.792,3.96,30.71,10.253,44.34,18.709c3.89,2.412,5.086,7.52,2.674,11.408  c-2.412,3.889-7.523,5.085-11.408,2.674c-12.173-7.55-25.508-13.174-39.636-16.717c-28.293-7.094-59.996-7.378-99.511-0.861v43.961  c0,7.665-3.983,14.496-10.655,18.271C241.644,364.669,238.096,365.589,234.553,365.589z"/>
<path d="M485.88,431.782c-0.323,0-0.645-0.006-0.971-0.018l-0.567-0.021c-11.453-0.415-21.354-8.418-24.104-19.464l-0.081-0.317  c-5.221-20.028-13.562-38.501-24.789-54.877c-4.765-6.952-10.177-13.483-16.089-19.408c-3.233-3.24-3.226-8.487,0.014-11.717  c3.24-3.234,8.487-3.226,11.717,0.014c6.626,6.643,12.692,13.959,18.026,21.745c12.311,17.96,21.449,38.177,27.162,60.091  l0.116,0.458c0.978,3.926,4.512,6.767,8.597,6.915l0.61,0.023c0.11,0.003,0.219,0.006,0.328,0.006c4.783,0,8.871-3.786,9.175-8.585  l0.009-0.144c3.089-50.823-12.062-102.479-41.565-141.718c-23.598-31.382-57.986-57.517-99.446-75.579  c-4.196-1.827-6.115-6.71-4.288-10.905s6.711-6.115,10.905-4.288c44.079,19.203,80.759,47.148,106.073,80.812  c31.833,42.338,48.184,97.989,44.861,152.686l-0.009,0.145C510.699,421.367,499.504,431.782,485.88,431.782z"/>
<g>
</g>
<g>
</g>
<g>
</g>
<g>
</g>
<g>
</g>
<g>
</g>
<g>
</g>
<g>
</g>
<g>
</g>
<g>
</g>
<g>
</g>
<g>
</g>
<g>
</g>
<g>
</g>
<g>
</g>
</svg>
