<?xml version="1.0" encoding="iso-8859-1"?>
<!-- Generator: Adobe Illustrator 19.0.0, SVG Export Plug-In . SVG Version: 6.00 Build 0)  -->
<svg xmlns="http://www.w3.org/2000/svg" xmlns:xlink="http://www.w3.org/1999/xlink" version="1.1" id="Layer_1" x="0px" y="0px" viewBox="0 0 512.001 512.001" style="enable-background:new 0 0 512.001 512.001;" xml:space="preserve">
<path style="fill:#B4BBCC;" d="M256.001,254.77L40.9,321.408V431.14c0,17.961,14.561,32.522,32.522,32.522H438.58  c17.961,0,32.522-14.561,32.522-32.522V321.408L256.001,254.77z"/>
<path style="fill:#C7CFE2;" d="M438.58,83.902H73.421c-17.961,0-32.522,14.561-32.522,32.522v204.984h430.202V116.424  C471.102,98.463,456.541,83.902,438.58,83.902z"/>
<path style="fill:#3F404D;" d="M256.001,254.77l-123.89,66.637v42.012c0,11.104,9.001,20.106,20.106,20.106h207.569  c11.104,0,20.106-9.001,20.106-20.106v-42.012L256.001,254.77z"/>
<path style="fill:#515262;" d="M359.785,188.133H152.216c-11.104,0-20.106,9.001-20.106,20.106v113.169h247.78V208.239  C379.891,197.134,370.889,188.133,359.785,188.133z"/>
<g>
	<path style="fill:#D5DEF2;" d="M132.111,424.756v58.626c0,11.12,9.015,20.134,20.134,20.134h207.511   c11.12,0,20.134-9.015,20.134-20.134v-58.626L132.111,424.756L132.111,424.756z"/>
	<path style="fill:#D5DEF2;" d="M379.891,132.488V28.617c0-11.12-9.015-20.134-20.134-20.134H152.244   c-11.12,0-20.134,9.015-20.134,20.134v103.87H379.891z"/>
</g>
<circle cx="427.45" cy="217.649" r="13.011"/>
<circle cx="427.45" cy="269.952" r="13.011"/>
<path d="M438.58,75.418h-50.206v-46.8C388.374,12.838,375.536,0,359.756,0H222.743c-4.685,0-8.483,3.798-8.483,8.483  s3.798,8.483,8.483,8.483h137.012c6.425,0,11.652,5.227,11.652,11.652v55.283v40.103H140.594V83.902V28.618  c0-6.425,5.227-11.652,11.65-11.652h36.566c4.685,0,8.483-3.798,8.483-8.483S193.495,0,188.81,0h-36.566  c-15.78,0-28.617,12.838-28.617,28.618v46.8H73.421c-22.61,0-41.005,18.395-41.005,41.005v52.061c0,4.685,3.798,8.483,8.483,8.483  s8.483-3.798,8.483-8.483v-52.061c0-13.254,10.784-24.038,24.038-24.038h50.206v31.619H99.763c-4.685,0-8.483,3.798-8.483,8.483  c0,4.685,3.798,8.483,8.483,8.483h312.474c4.685,0,8.483-3.798,8.483-8.483c0-4.685-3.798-8.483-8.483-8.483h-23.864V92.385h50.206  c13.254,0,24.037,10.784,24.037,24.038v196.501h-74.244V208.239c0-15.764-12.825-28.589-28.589-28.589H152.216  c-15.764,0-28.589,12.825-28.589,28.589v104.687H49.383V202.419c0-4.685-3.798-8.483-8.483-8.483s-8.483,3.798-8.483,8.483v118.99  V431.14c0,22.61,18.395,41.005,41.005,41.005h50.206v11.238c0,15.78,12.838,28.618,28.617,28.618h207.511  c15.78,0,28.617-12.838,28.617-28.618v-11.238h50.207c22.61,0,41.004-18.395,41.004-41.005v-32.163c0-4.685-3.798-8.483-8.483-8.483  c-4.685,0-8.483,3.798-8.483,8.483v32.163c0,13.254-10.783,24.038-24.037,24.038h-50.206V433.24h23.864  c4.685,0,8.483-3.798,8.483-8.483s-3.798-8.483-8.483-8.483H99.763c-4.685,0-8.483,3.798-8.483,8.483s3.798,8.483,8.483,8.483  h23.864v21.938H73.421c-13.254,0-24.038-10.784-24.038-24.039V329.892h74.244v33.529c0,15.764,12.825,28.589,28.589,28.589h207.569  c15.764,0,28.589-12.825,28.589-28.589v-33.529h74.244v35.151c0,4.685,3.798,8.483,8.483,8.483s8.483-3.798,8.483-8.483v-43.634  V116.424C479.585,93.814,461.191,75.418,438.58,75.418z M140.594,463.662V433.24h230.813v50.142c0,6.425-5.227,11.652-11.65,11.652  H152.244c-6.425,0-11.651-5.227-11.651-11.652C140.594,483.383,140.594,463.662,140.594,463.662z M140.594,208.239  c0-6.409,5.213-11.622,11.622-11.622h207.569c6.409,0,11.622,5.213,11.622,11.622v104.687H140.594V208.239z M371.407,363.42  c0,6.409-5.213,11.622-11.622,11.622H152.216c-6.409,0-11.622-5.213-11.622-11.622v-33.529h230.813V363.42z"/>
<g>
</g>
<g>
</g>
<g>
</g>
<g>
</g>
<g>
</g>
<g>
</g>
<g>
</g>
<g>
</g>
<g>
</g>
<g>
</g>
<g>
</g>
<g>
</g>
<g>
</g>
<g>
</g>
<g>
</g>
</svg>
