<?xml version="1.0" encoding="iso-8859-1"?>
<!-- Generator: Adobe Illustrator 19.0.0, SVG Export Plug-In . SVG Version: 6.00 Build 0)  -->
<svg xmlns="http://www.w3.org/2000/svg" xmlns:xlink="http://www.w3.org/1999/xlink" version="1.1" id="Layer_1" x="0px" y="0px" viewBox="0 0 512 512" style="enable-background:new 0 0 512 512;" xml:space="preserve">
<path style="fill:#D6AB78;" d="M310.323,173.502c42.08,0,38.758-109.629,77.516-109.629s21.04,109.629,21.04,109.629l-62.012,49.832  L310.323,173.502z"/>
<polygon style="fill:#515262;" points="133.803,173.502 8.996,173.502 8.996,448.127 133.803,448.127 176.661,310.815 "/>
<path style="fill:#F0C087;" d="M503.004,207.831c0-18.959-15.369-34.329-34.329-34.329H219.519l-42.858,137.312l42.858,137.312  h214.355c18.959,0,34.329-15.368,34.329-34.327s-15.369-34.329-34.329-34.329h11.601c18.959,0,34.329-15.368,34.329-34.327  s-15.369-34.329-34.329-34.329h11.601c18.959,0,34.329-15.368,34.329-34.327c0-18.959-15.369-34.329-34.329-34.329h11.601  C487.635,242.158,503.004,226.79,503.004,207.831z"/>
<rect x="133.807" y="173.508" style="fill:#D5DEF2;" width="85.71" height="274.631"/>
<circle cx="176.662" cy="401.889" r="16.27"/>
<path d="M512,207.831c0-23.889-19.435-43.324-43.324-43.324h-49.45c2.953-23.724,7.423-78.567-10.76-99.923  c-5.406-6.35-12.539-9.706-20.628-9.706c-25.436,0-35.617,30.115-45.463,59.239c-8.374,24.773-17.035,50.39-32.053,50.39H8.996  c-4.968,0-8.996,4.028-8.996,8.996v274.625c0,4.968,4.028,8.996,8.996,8.996h31.817c4.968,0,8.996-4.028,8.996-8.996  s-4.028-8.996-8.996-8.996H17.991V182.498h106.816v29.05c0,4.968,4.028,8.996,8.996,8.996s8.996-4.028,8.996-8.996v-29.05h67.724  V327.85c0,4.968,4.028,8.996,8.996,8.996s8.996-4.028,8.996-8.996V182.498h240.161c13.968,0,25.333,11.364,25.333,25.333  c0,13.968-11.365,25.332-25.333,25.332h-11.601c-4.968,0-8.996,4.028-8.996,8.996c0,4.968,4.028,8.996,8.996,8.996  c13.968,0,25.333,11.364,25.333,25.333s-11.364,25.332-25.333,25.332h-11.601c-4.968,0-8.996,4.028-8.996,8.996  s4.028,8.996,8.996,8.996c13.968,0,25.333,11.365,25.333,25.333c0,13.968-11.364,25.332-25.333,25.332h-11.601  c-4.968,0-8.996,4.028-8.996,8.996s4.028,8.996,8.996,8.996c13.968,0,25.333,11.364,25.333,25.333s-11.365,25.332-25.333,25.332  H228.514v-75.298c0-4.968-4.028-8.996-8.996-8.996s-8.996,4.028-8.996,8.996v75.298h-67.724v-191.6c0-4.968-4.028-8.996-8.996-8.996  s-8.996,4.028-8.996,8.996v191.601H76.795v17.991h357.077c23.889,0,43.324-19.435,43.324-43.323c0-11.645-4.619-22.234-12.12-30.026  c14.067-7.167,23.721-21.791,23.721-38.63c0-11.645-4.619-22.234-12.12-30.026c14.064-7.167,23.721-21.792,23.721-38.63  c0-11.645-4.619-22.234-12.12-30.026C502.345,239.295,512,224.669,512,207.831z M401.102,164.507h-60.994  c8.362-12.238,14.024-28.988,19.312-44.628c7.45-22.034,15.892-47.01,28.419-47.01c2.841,0,4.913,1.009,6.927,3.374  C406.397,89.902,405.041,134.701,401.102,164.507z"/>
<g>
</g>
<g>
</g>
<g>
</g>
<g>
</g>
<g>
</g>
<g>
</g>
<g>
</g>
<g>
</g>
<g>
</g>
<g>
</g>
<g>
</g>
<g>
</g>
<g>
</g>
<g>
</g>
<g>
</g>
</svg>
