<?xml version="1.0" encoding="iso-8859-1"?>
<!-- Generator: Adobe Illustrator 19.0.0, SVG Export Plug-In . SVG Version: 6.00 Build 0)  -->
<svg xmlns="http://www.w3.org/2000/svg" xmlns:xlink="http://www.w3.org/1999/xlink" version="1.1" id="Layer_1" x="0px" y="0px" viewBox="0 0 511.997 511.997" style="enable-background:new 0 0 511.997 511.997;" xml:space="preserve">
<g>
	<polygon style="fill:#A5EB78;" points="99.969,258.895 139.062,264.534 108.892,308.211 82.02,302.563  "/>
	<polygon style="fill:#A5EB78;" points="333.948,120.772 337.249,163.613 372.778,152.486 376.01,127.047  "/>
</g>
<circle style="fill:#FFD782;" cx="255.999" cy="256.003" r="156.068"/>
<path style="opacity:0.1;enable-background:new    ;" d="M295.351,382.551c-86.193,0-156.065-69.873-156.065-156.065  c0-42.212,16.765-80.502,43.993-108.596c-49.56,26.148-83.346,78.179-83.346,138.11c0,86.192,69.873,156.065,156.065,156.065  c43.981,0,83.705-18.2,112.073-47.47C346.353,376.054,321.612,382.551,295.351,382.551z"/>
<path style="fill:#A5EB78;" d="M498.574,112.872c-8.56-14.507-24.927-21.864-48.65-21.864c-28.546,0-69.225,10.702-115.977,29.763  c14.604,8.437,27.708,19.176,38.83,31.714c33.796-12.193,60.405-17.973,77.147-17.973c5.237,0,8.46,0.557,10.294,1.054  c-1.688,7.202-11.714,26.287-45.88,58.092c-3.594,3.347-7.349,6.727-11.237,10.13c-33.485,29.316-77.458,60.475-125.503,88.822  c-52.74,31.119-100.159,53.114-138.383,66.904c-33.796,12.194-60.405,17.973-77.147,17.973c-5.237,0-8.46-0.557-10.294-1.054  c1.688-7.202,11.714-26.287,45.879-58.093c3.594-3.347,7.349-6.727,11.237-10.13c-5.488-15.464-8.607-32.046-8.922-49.315  c-15.031,12.136-28.667,24.158-40.572,35.828c-19.045,18.67-32.962,35.775-41.362,50.835c-11.68,20.944-13.233,38.967-4.616,53.572  c8.56,14.506,24.928,21.863,48.65,21.863c28.546,0,69.225-10.702,115.978-29.763c37.661-15.355,79.259-36.13,121.661-61.15  c41.726-24.62,80.214-51.055,112.317-76.974c15.031-12.136,28.667-24.159,40.572-35.828c19.045-18.671,32.962-35.775,41.362-50.836  C505.638,145.5,507.191,127.476,498.574,112.872z"/>
<path d="M505.377,108.857c-10.08-17.085-28.738-25.748-55.452-25.748c-28.436,0-68.32,10.006-115.504,28.953  c-23.569-12.854-50.409-20.026-78.424-20.026c-90.132,0-163.502,73.103-163.953,163.13c-14.152,11.554-26.995,22.953-38.177,33.915  c-6.126,6.008-11.816,11.946-16.911,17.647c-2.907,3.253-2.626,8.246,0.628,11.153c3.253,2.908,8.247,2.624,11.153-0.628  c4.863-5.444,10.31-11.126,16.189-16.892c8.457-8.289,17.901-16.851,28.186-25.556c0.082,0.722,0.181,1.442,0.274,2.162  c0.062,0.482,0.117,0.966,0.183,1.447c0.161,1.177,0.338,2.352,0.524,3.525c0.006,0.04,0.012,0.08,0.018,0.12  c1.283,8.031,3.156,15.949,5.624,23.701c-2.595,2.316-5.093,4.592-7.462,6.797c-10.093,9.397-43.4,41.645-48.187,62.071  c-0.972,4.144,1.514,8.312,5.621,9.426c3.254,0.884,7.413,1.331,12.362,1.331c18.516,0,46.866-6.55,79.846-18.449  c0.029-0.011,0.058-0.021,0.087-0.032c42.509-15.345,90.782-38.68,139.612-67.492c21.864-12.9,43.051-26.474,62.974-40.345  c3.58-2.493,4.461-7.415,1.969-10.995c-2.494-3.579-7.414-4.464-10.995-1.969c-19.599,13.646-40.452,27.005-61.976,39.704  c-46.089,27.195-91.571,49.374-131.947,64.392c-17.515-21.244-28.687-46.833-32.418-73.924c-0.019-0.137-0.035-0.274-0.053-0.412  c-0.754-5.674-1.196-11.391-1.301-17.115c0-0.02-0.005-0.04-0.005-0.06c-0.016-0.896-0.031-1.792-0.031-2.691  c0-81.699,66.467-148.167,148.167-148.167c41.521,0,80.178,17.437,107.623,46.374c12.942,13.645,23.228,29.72,30.158,47.207  c-10.476,8.988-22.005,18.206-34.347,27.456c-3.49,2.616-4.199,7.567-1.583,11.057c2.615,3.491,7.568,4.202,11.057,1.583  c14.3-10.718,27.556-21.41,39.401-31.78c0.066-0.058,0.133-0.114,0.197-0.174c3.962-3.472,7.737-6.876,11.218-10.119  c26.941-25.08,44.955-48.284,48.188-62.069c0.972-4.144-1.514-8.314-5.622-9.427c-3.255-0.884-7.414-1.331-12.363-1.331  c-17.577,0-44.021,5.903-74.86,16.678c-0.238-0.252-0.482-0.495-0.722-0.746c-0.173-0.179-0.346-0.358-0.52-0.536  c-6.968-7.206-14.539-13.745-22.66-19.541c40.517-15.446,74.454-23.562,98.761-23.562c20.728,0,34.809,6.048,41.847,17.98  c14.266,24.184-8.566,54.767-23.465,72.809c-17.851,21.616-39.507,39.719-61.242,57.266  c-31.924,25.774-70.436,52.164-111.371,76.318c-41.103,24.253-82.816,45.221-120.629,60.637  c-46.819,19.09-85.894,29.18-112.996,29.18c-20.728,0-34.807-6.048-41.845-17.976c-7.088-12.016-5.504-27.396,4.711-45.712  c1.705-3.057,3.74-6.33,6.046-9.725c2.451-3.608,1.513-8.521-2.096-10.972c-3.606-2.451-8.519-1.513-10.972,2.096  c-2.565,3.777-4.846,7.446-6.776,10.907c-13.142,23.57-14.664,44.239-4.519,61.434c10.081,17.084,28.738,25.747,55.451,25.747  c28.422,0,68.277-9.996,115.431-28.923c4.764,2.602,9.675,4.991,14.657,7.099c20.015,8.471,42.023,12.894,63.983,12.894  c1.82,0,3.641-0.031,5.46-0.092c4.36-0.147,7.775-3.799,7.629-8.16c-0.147-4.359-3.799-7.778-8.16-7.629  c-21.476,0.728-43.179-3.277-62.755-11.563c-0.492-0.208-0.978-0.435-1.469-0.649c34.152-14.857,70.764-33.678,106.878-54.988  c35.994-21.238,70.166-44.202,99.788-67.015c-1.921,20.466-8.069,40.386-18.071,58.287c-11.842,21.198-28.905,39.358-49.345,52.518  c-11.66,7.507-24.288,13.325-37.531,17.291c-4.179,1.251-6.553,5.653-5.301,9.832c1.026,3.424,4.164,5.635,7.564,5.635  c0.75,0,1.514-0.108,2.268-0.334c14.664-4.391,28.645-10.831,41.552-19.142c22.607-14.556,41.482-34.645,54.583-58.094  c13.428-24.033,20.577-51.342,20.718-79.025c14.148-11.55,26.99-22.95,38.18-33.917c19.587-19.202,33.962-36.91,42.73-52.631  C514.001,146.719,515.522,126.051,505.377,108.857z M103.037,324.123c0.879-0.818,1.779-1.648,2.695-2.487  c5.284,12.097,12.037,23.571,20.162,34.155c-25.825,8.665-47.677,13.506-62.471,13.787  C69.009,360.088,80.912,344.719,103.037,324.123z M448.572,142.424c-5.589,9.491-17.491,24.859-39.616,45.454  c-0.873,0.813-1.766,1.637-2.676,2.47c-5.38-12.306-12.182-23.742-20.179-34.137C411.927,147.547,433.778,142.707,448.572,142.424z"/>
<g>
</g>
<g>
</g>
<g>
</g>
<g>
</g>
<g>
</g>
<g>
</g>
<g>
</g>
<g>
</g>
<g>
</g>
<g>
</g>
<g>
</g>
<g>
</g>
<g>
</g>
<g>
</g>
<g>
</g>
</svg>
