<?xml version="1.0" encoding="iso-8859-1"?>
<!-- Generator: Adobe Illustrator 19.0.0, SVG Export Plug-In . SVG Version: 6.00 Build 0)  -->
<svg xmlns="http://www.w3.org/2000/svg" xmlns:xlink="http://www.w3.org/1999/xlink" version="1.1" id="Layer_1" x="0px" y="0px" viewBox="0 0 512 512" style="enable-background:new 0 0 512 512;" xml:space="preserve">
<path style="fill:#FF6465;" d="M444.239,246.159l-23.93-133.687c-3.406-19.021-18.296-33.912-37.317-37.317l-133.687-23.93  c-14.872-2.662-30.104,2.119-40.788,12.802L22.205,250.337c-18.033,18.033-18.033,47.271,0,65.304l157.618,157.618  c18.033,18.033,47.271,18.033,65.304,0l186.311-186.311C442.12,276.264,446.901,261.031,444.239,246.159z M383.29,146.747  c-9.547,9.547-25.026,9.547-34.574,0c-9.547-9.547-9.547-25.026,0-34.574c9.547-9.547,25.026-9.547,34.574,0  C392.837,121.72,392.837,137.199,383.29,146.747z"/>
<rect x="130.149" y="141.596" transform="matrix(-0.7071 -0.7071 0.7071 -0.7071 198.0113 618.6655)" style="fill:#FFFFFF;" width="193.974" height="253.455"/>
<polygon style="opacity:0.1;enable-background:new    ;" points="248.172,159.231 360.781,271.839 385.33,247.291 248.172,110.133   68.953,289.353 93.501,313.901 "/>
<path d="M254.309,103.958c-1.627-1.627-3.835-2.541-6.137-2.541c-2.302,0-4.51,0.914-6.137,2.541L118.989,227.004  c-3.39,3.391-3.39,8.885,0,12.275c3.39,3.388,8.885,3.388,12.274,0l116.908-116.91l124.884,124.884l-30.072,30.072  c-3.39,3.391-3.39,8.885,0,12.275c1.694,1.694,3.916,2.541,6.137,2.541c2.221,0,4.443-0.847,6.137-2.541l36.21-36.21  c3.389-3.391,3.389-8.885,0-12.275L254.309,103.958z"/>
<path d="M318.466,301.843L206.11,414.2L81.226,289.314l25.641-25.64c3.39-3.391,3.39-8.885,0-12.275  c-3.39-3.388-8.885-3.388-12.274,0l-31.778,31.778c-3.39,3.391-3.39,8.885,0,12.275L199.974,432.61  c1.694,1.694,3.916,2.541,6.137,2.541c2.221,0,4.443-0.847,6.137-2.541l118.494-118.494c3.39-3.391,3.39-8.885,0-12.275  C327.352,298.454,321.856,298.454,318.466,301.843z"/>
<path d="M488.352,40.222c-31.53-31.53-82.835-31.531-114.366,0.001c-6.393,6.393-11.57,13.68-15.479,21.694L250.834,42.643  c-3.184-0.569-6.438-0.859-9.668-0.859c-14.651,0-28.425,5.706-38.787,16.067L16.067,244.163C5.706,254.523,0,268.299,0,282.951  c0,14.653,5.706,28.427,16.067,38.791l157.618,157.618c10.36,10.36,24.134,16.066,38.788,16.067c0.002,0,0.003,0,0.005,0  c14.651,0,28.425-5.707,38.786-16.068l186.31-186.31c12.684-12.684,18.37-30.799,15.208-48.455l-11.984-66.949  c17.392-2.069,34.237-9.738,47.554-23.054C519.883,123.058,519.883,71.753,488.352,40.222z M425.3,280.773L238.989,467.084  c-7.083,7.082-16.498,10.983-26.512,10.983c0,0-0.002,0-0.003,0c-10.017-0.001-19.433-3.901-26.516-10.983L28.341,309.465  c-7.082-7.082-10.982-16.499-10.982-26.513c0-10.016,3.901-19.432,10.983-26.515l186.31-186.311  c7.083-7.083,16.499-10.983,26.512-10.983c2.208,0,4.432,0.198,6.609,0.588l133.687,23.93c15.374,2.752,27.551,14.929,30.303,30.303  l8.221,45.924c-9.51-1.688-18.703-5.542-26.78-11.572c8.972-12.908,7.719-30.819-3.778-42.317  c-6.257-6.256-14.575-9.702-23.424-9.702s-17.166,3.446-23.424,9.702c-12.916,12.916-12.916,33.932,0,46.848  c6.257,6.256,14.575,9.702,23.424,9.702c4.753,0,9.35-1.003,13.56-2.893c12.749,10.585,28.006,16.654,43.636,18.188l12.496,69.809  C437.856,259.721,433.97,272.102,425.3,280.773z M353.463,119.891c2.614,9.122,6.811,17.637,12.451,25.295  c-4.179-0.023-8.103-1.657-11.06-4.614C349.218,134.935,348.764,126.066,353.463,119.891z M369.896,114.154  c2.721,0.689,5.22,2.082,7.257,4.119c4.695,4.695,5.792,11.634,3.315,17.392C375.571,129.211,372.006,121.955,369.896,114.154z   M437.737,160.54l-8.884-49.635c-4.026-22.491-21.843-40.305-44.333-44.333l-8.068-1.444c2.702-4.576,5.981-8.804,9.809-12.631  c24.764-24.764,65.055-24.761,89.818,0c24.763,24.761,24.763,65.055,0,89.816C465.366,153.027,451.746,159.095,437.737,160.54z"/>
<g>
</g>
<g>
</g>
<g>
</g>
<g>
</g>
<g>
</g>
<g>
</g>
<g>
</g>
<g>
</g>
<g>
</g>
<g>
</g>
<g>
</g>
<g>
</g>
<g>
</g>
<g>
</g>
<g>
</g>
</svg>
