<?xml version="1.0" encoding="iso-8859-1"?>
<!-- Generator: Adobe Illustrator 19.0.0, SVG Export Plug-In . SVG Version: 6.00 Build 0)  -->
<svg xmlns="http://www.w3.org/2000/svg" xmlns:xlink="http://www.w3.org/1999/xlink" version="1.1" id="Layer_1" x="0px" y="0px" viewBox="0 0 511.999 511.999" style="enable-background:new 0 0 511.999 511.999;" xml:space="preserve">
<path style="fill:#78C8E6;" d="M465.648,145.416c4.052-21.912,11.094-43.039,15.248-63.762H31.104c2.785,11.648,0.065,0,0,0  c6.67,33.633,17.234,67.67,24.7,103.287l166.489,61.149L465.648,145.416z"/>
<polygon style="fill:#A6E7FF;" points="503.197,145.416 346.206,145.416 334.469,184.941 8.803,184.941 67.489,430.345   444.512,430.345 "/>
<path d="M454.931,379.761c-4.766-0.984-9.417,2.083-10.398,6.846l-7.196,34.936H74.435L38.171,269.896  c-1.13-4.728-5.885-7.643-10.609-6.514c-4.729,1.13-7.646,5.88-6.514,10.609l37.879,158.402c0.947,3.961,4.488,6.756,8.561,6.756  h377.023c4.177,0,7.779-2.935,8.622-7.027l8.643-41.961C462.757,385.396,459.691,380.741,454.931,379.761z"/>
<path d="M503.197,136.614h-26.741c1.783-7.921,11.087-43.332,13.07-53.229c0.519-2.587-0.15-5.269-1.822-7.31  c-1.673-2.041-4.171-3.224-6.809-3.224h-70.169c-4.862,0-8.803,3.941-8.803,8.803s3.941,8.803,8.803,8.803h59.21  c-1.415,5.933-9.475,36.621-11.502,46.156H346.206c-3.897,0-7.33,2.562-8.438,6.297l-9.867,33.229H62.908  c-3.296-14.889-7.054-29.528-10.707-43.748c-3.705-14.423-7.246-28.209-10.262-41.933h321.197c4.862,0,8.803-3.941,8.803-8.803  s-3.941-8.803-8.803-8.803c0,0-332.018,0-332.588,0.018c-5.228,0.157-9.08,5.504-8.079,10.512  c3.514,17.714,8.173,35.85,12.677,53.39c3.302,12.85,6.684,26.047,9.711,39.369H8.803c-2.695,0-5.241,1.235-6.911,3.35  c-1.669,2.116-2.277,4.879-1.651,7.501l12.385,51.79c1.13,4.729,5.885,7.644,10.609,6.514c4.729-1.13,7.646-5.88,6.514-10.609  l-9.791-40.94h314.51c3.897,0,7.33-2.562,8.438-6.297l9.867-33.228h112.845c0.012,0,0.025,0.001,0.038,0.001  c0.013,0,0.026-0.001,0.039-0.001h26.7l-40.612,197.177c-0.98,4.762,2.085,9.417,6.846,10.398c0.6,0.123,1.197,0.183,1.785,0.183  c4.089,0,7.755-2.866,8.613-7.028l42.791-207.755c0.534-2.592-0.127-5.286-1.798-7.337S505.843,136.614,503.197,136.614z"/>
<g>
</g>
<g>
</g>
<g>
</g>
<g>
</g>
<g>
</g>
<g>
</g>
<g>
</g>
<g>
</g>
<g>
</g>
<g>
</g>
<g>
</g>
<g>
</g>
<g>
</g>
<g>
</g>
<g>
</g>
</svg>
