<?xml version="1.0" encoding="iso-8859-1"?>
<!-- Generator: Adobe Illustrator 19.0.0, SVG Export Plug-In . SVG Version: 6.00 Build 0)  -->
<svg xmlns="http://www.w3.org/2000/svg" xmlns:xlink="http://www.w3.org/1999/xlink" version="1.1" id="Layer_1" x="0px" y="0px" viewBox="0 0 512 512" style="enable-background:new 0 0 512 512;" xml:space="preserve">
<path style="fill:#6AB2CC;" d="M445.725,45.335H151.589c-21.916,0-39.682,17.767-39.682,39.682v377.975  c0,21.915,17.767,39.682,39.682,39.682h294.136c21.916,0,39.682-17.767,39.682-39.682V85.017  C485.407,63.102,467.64,45.335,445.725,45.335z"/>
<path style="fill:#7DD2F0;" d="M395.986,9.326H101.85c-21.916,0-39.682,17.767-39.682,39.682v377.975  c0,21.915,17.767,39.682,39.682,39.682h294.136c21.916,0,39.682-17.767,39.682-39.682V49.008  C435.668,27.093,417.901,9.326,395.986,9.326z"/>
<rect x="151.232" y="102.537" style="fill:#FFFFFF;" width="195.375" height="109.638"/>
<g>
	<path style="fill:#515262;" d="M87.783,88.334H43.114c-9.123,0-16.52,7.395-16.52,16.52l0,0c0,9.123,7.396,16.52,16.52,16.52   h44.671c9.123,0,16.52-7.396,16.52-16.52l0,0C104.304,95.73,96.907,88.334,87.783,88.334z"/>
	<path style="fill:#515262;" d="M87.783,177.095H43.114c-9.123,0-16.52,7.395-16.52,16.52l0,0c0,9.123,7.396,16.52,16.52,16.52   h44.671c9.123,0,16.52-7.396,16.52-16.52l0,0C104.304,184.49,96.907,177.095,87.783,177.095z"/>
	<path style="fill:#515262;" d="M87.783,265.856H43.114c-9.123,0-16.52,7.395-16.52,16.52l0,0c0,9.123,7.396,16.52,16.52,16.52   h44.671c9.123,0,16.52-7.396,16.52-16.52l0,0C104.304,273.251,96.907,265.856,87.783,265.856z"/>
	<path style="fill:#515262;" d="M87.783,354.617H43.114c-9.123,0-16.52,7.395-16.52,16.52l0,0c0,9.123,7.396,16.52,16.52,16.52   h44.671c9.123,0,16.52-7.396,16.52-16.52l0,0C104.304,362.012,96.907,354.617,87.783,354.617z"/>
</g>
<path d="M141.902,102.536v109.635c0,5.152,4.176,9.326,9.326,9.326h195.379c5.15,0,9.326-4.174,9.326-9.326V102.536  c0-5.152-4.176-9.326-9.326-9.326H151.228C146.078,93.21,141.902,97.384,141.902,102.536z M160.554,111.862h176.727v90.983H160.554  V111.862z"/>
<path d="M297.693,129.289h-97.551c-5.15,0-9.326,4.174-9.326,9.326c0,5.152,4.176,9.326,9.326,9.326h97.551  c5.15,0,9.326-4.174,9.326-9.326C307.019,133.464,302.843,129.289,297.693,129.289z"/>
<path d="M297.693,166.764h-97.551c-5.15,0-9.326,4.174-9.326,9.326c0,5.152,4.176,9.326,9.326,9.326h97.551  c5.15,0,9.326-4.174,9.326-9.326C307.019,170.939,302.843,166.764,297.693,166.764z"/>
<path d="M485.407,394.215c-5.15,0-9.326,4.174-9.326,9.326v59.451c0,16.738-13.617,30.356-30.356,30.356H151.589  c-12.133,0-22.615-6.993-27.471-17.357h184.471c5.15,0,9.326-4.174,9.326-9.326c0-5.152-4.176-9.326-9.326-9.326H101.85  c-16.738,0-30.356-13.617-30.356-30.356v-30.001h16.29c14.252,0,25.847-11.594,25.847-25.846c0-14.251-11.594-25.846-25.847-25.846  h-16.29v-37.069h16.29c14.252,0,25.847-11.594,25.847-25.846c0-14.252-11.594-25.846-25.847-25.846h-16.29V219.46h16.29  c14.252,0,25.847-11.594,25.847-25.846s-11.594-25.846-25.847-25.846h-16.29V130.7h16.29c14.252,0,25.847-11.594,25.847-25.846  s-11.594-25.846-25.847-25.846h-16.29v-30c0-16.738,13.617-30.356,30.356-30.356h45.581c5.15,0,9.326-4.174,9.326-9.326  S152.581,0,147.431,0H101.85C74.826,0,52.842,21.986,52.842,49.008v30h-9.729c-14.252,0-25.846,11.594-25.846,25.846  S28.861,130.7,43.113,130.7h9.729v37.069h-9.729c-14.252,0-25.846,11.594-25.846,25.846s11.594,25.846,25.846,25.846h9.729v37.069  h-9.729c-14.252,0-25.846,11.594-25.846,25.846c0,14.252,11.594,25.846,25.846,25.846h9.729v37.069h-9.729  c-14.252,0-25.846,11.594-25.846,25.846c0,14.252,11.594,25.846,25.846,25.846h9.729v30.001c0,27.022,21.985,49.008,49.008,49.008  h2.477c5.69,21.024,24.704,36.009,47.262,36.009h294.136c27.023,0,49.008-21.986,49.008-49.008v-59.451  C494.733,398.391,490.557,394.215,485.407,394.215z M35.919,104.854c0-3.967,3.227-7.194,7.194-7.194h44.671  c3.911,0,7.194,3.284,7.194,7.194c0,3.967-3.227,7.194-7.194,7.194H43.113C39.146,112.047,35.919,108.822,35.919,104.854z   M35.919,193.615c0-3.967,3.227-7.194,7.194-7.194h44.671c3.967,0,7.194,3.227,7.194,7.194c0,3.967-3.227,7.194-7.194,7.194H43.113  C39.146,200.808,35.919,197.583,35.919,193.615z M35.919,282.375c0-3.967,3.227-7.194,7.194-7.194h44.671  c3.967,0,7.194,3.227,7.194,7.194c0,3.907-3.285,7.194-7.194,7.194H43.113C39.146,289.569,35.919,286.342,35.919,282.375z   M35.919,371.136c0-3.967,3.227-7.194,7.194-7.194h44.671c3.914,0,7.194,3.289,7.194,7.194c0,3.883-3.31,7.194-7.194,7.194H43.113  C39.146,378.33,35.919,375.103,35.919,371.136z"/>
<path d="M445.725,36.009h-2.494C437.518,15.277,418.508,0,395.986,0H184.735c-5.15,0-9.326,4.174-9.326,9.326  s4.176,9.326,9.326,9.326h211.251c15.78,0,28.78,12.103,30.219,27.512c0.001,0.007,0,0.015,0.001,0.022  c0.045,0.492,0.078,0.965,0.101,1.425c0.021,0.463,0.035,0.928,0.035,1.395v377.975c0,16.738-13.617,30.356-30.356,30.356h-51.507  c-5.15,0-9.326,4.174-9.326,9.326s4.176,9.326,9.326,9.326h51.507c27.023,0,49.008-21.986,49.008-49.008V54.661h0.731  c16.738,0,30.356,13.617,30.356,30.356v281.22c0,5.152,4.176,9.326,9.326,9.326s9.326-4.174,9.326-9.326V85.017  C494.733,57.995,472.748,36.009,445.725,36.009z"/>
<g>
</g>
<g>
</g>
<g>
</g>
<g>
</g>
<g>
</g>
<g>
</g>
<g>
</g>
<g>
</g>
<g>
</g>
<g>
</g>
<g>
</g>
<g>
</g>
<g>
</g>
<g>
</g>
<g>
</g>
</svg>
