<?xml version="1.0" encoding="iso-8859-1"?>
<!-- Generator: Adobe Illustrator 19.0.0, SVG Export Plug-In . SVG Version: 6.00 Build 0)  -->
<svg xmlns="http://www.w3.org/2000/svg" xmlns:xlink="http://www.w3.org/1999/xlink" version="1.1" id="Layer_1" x="0px" y="0px" viewBox="0 0 512 512" style="enable-background:new 0 0 512 512;" xml:space="preserve">
<path style="fill:#FF6465;" d="M146.132,80.423l-35.97,201.684l35.97,221.409H408.13c16.39,0,29.676-13.286,29.676-29.675V112.769  L146.132,80.423z"/>
<path style="fill:#E65A5B;" d="M74.194,80.423v393.418c0,16.389,13.286,29.675,29.676,29.675h42.263V80.423H74.194z"/>
<g>
	<polygon style="fill:#FFFFFF;" points="437.806,112.77 137.533,129.579 96.783,80.422 137.533,31.266 437.806,48.076  "/>
	<path style="fill:#FFFFFF;" d="M146.132,112.769c-17.836,0-32.347-14.51-32.347-32.346s14.511-32.347,32.347-32.347h291.674v64.693   H146.132z"/>
</g>
<path style="fill:#FF8080;" d="M146.132,48.076h291.674V8.484H146.132c-39.731,0-71.938,32.208-71.938,71.938v0.001  c0,39.73,32.208,71.938,71.938,71.938h291.674V112.77H146.132c-17.837,0-32.347-14.51-32.347-32.347S128.297,48.076,146.132,48.076z  "/>
<path d="M437.806,0H211.417c-4.685,0-8.484,3.799-8.484,8.484s3.799,8.484,8.484,8.484h217.905v22.624h-283.19  c-22.514,0-40.83,18.316-40.83,40.832c0,22.514,18.316,40.83,40.83,40.83h193.82c4.685,0,8.484-3.799,8.484-8.484  c0-4.685-3.799-8.484-8.484-8.484h-193.82c-13.158,0-23.863-10.704-23.863-23.863s10.704-23.864,23.863-23.864h283.19v47.725  h-55.434c-4.685,0-8.484,3.799-8.484,8.484c0,4.685,3.799,8.484,8.484,8.484h55.434v22.624h-283.19  c-6.382,0-12.754-0.959-18.849-2.857c-25.814-8.046-44.606-32.169-44.606-60.598c0.001-34.988,28.466-63.453,63.455-63.453h31.362  c4.685,0,8.484-3.799,8.484-8.484S182.18,0,177.495,0h-31.362C101.787,0,65.71,36.078,65.71,80.423v393.418  c0,21.041,17.118,38.159,38.16,38.159h42.263H408.13c21.041,0,38.16-17.118,38.16-38.159V8.484C446.29,3.799,442.492,0,437.806,0z   M137.648,495.032H103.87c-11.685,0-21.192-9.507-21.192-21.191V129.781c0.225,0.288,0.466,0.562,0.695,0.847  c9.812,12.244,22.988,21.202,37.814,26.243c5.308,1.804,10.889,2.943,16.462,3.53V495.032z M429.322,473.841  c0,11.685-9.507,21.191-21.192,21.191H154.616V160.845h274.706V473.841z"/>
<g>
</g>
<g>
</g>
<g>
</g>
<g>
</g>
<g>
</g>
<g>
</g>
<g>
</g>
<g>
</g>
<g>
</g>
<g>
</g>
<g>
</g>
<g>
</g>
<g>
</g>
<g>
</g>
<g>
</g>
</svg>
