<?xml version="1.0" encoding="iso-8859-1"?>
<!-- Generator: Adobe Illustrator 19.0.0, SVG Export Plug-In . SVG Version: 6.00 Build 0)  -->
<svg xmlns="http://www.w3.org/2000/svg" xmlns:xlink="http://www.w3.org/1999/xlink" version="1.1" id="Layer_1" x="0px" y="0px" viewBox="0 0 512 512" style="enable-background:new 0 0 512 512;" xml:space="preserve">
<path style="fill:#353640;" d="M393.554,145.704H118.446v158.291h97.81c4.769,17.481,20.751,30.335,39.744,30.335  s34.974-12.854,39.744-30.335h97.81V145.704H393.554z"/>
<circle style="fill:#515262;" cx="118.446" cy="255.997" r="110.296"/>
<circle style="fill:#A5EB78;" cx="118.446" cy="255.997" r="65.743"/>
<path style="opacity:0.1;enable-background:new    ;" d="M85.303,256.001c0-30.682,21.019-56.452,49.443-63.703  c-5.213-1.33-10.673-2.04-16.3-2.04c-36.309,0-65.743,29.434-65.743,65.743s29.434,65.743,65.743,65.743  c5.627,0,11.087-0.71,16.3-2.04C106.322,312.452,85.303,286.682,85.303,256.001z"/>
<circle style="fill:#515262;" cx="393.557" cy="255.997" r="110.296"/>
<circle style="fill:#A5EB78;" cx="393.557" cy="255.997" r="65.743"/>
<path style="opacity:0.1;enable-background:new    ;" d="M360.41,256.001c0-30.682,21.019-56.452,49.443-63.703  c-5.213-1.33-10.673-2.04-16.3-2.04c-36.309,0-65.743,29.434-65.743,65.743s29.434,65.743,65.743,65.743  c5.627,0,11.087-0.71,16.3-2.04C381.43,312.452,360.41,286.682,360.41,256.001z"/>
<path d="M118.446,329.893c40.744,0,73.893-33.149,73.893-73.893s-33.149-73.893-73.893-73.893S44.553,215.256,44.553,256  S77.702,329.893,118.446,329.893z M118.446,198.407c31.757,0,57.593,25.835,57.593,57.593s-25.837,57.593-57.593,57.593  S60.853,287.758,60.853,256S86.69,198.407,118.446,198.407z"/>
<path d="M118.446,299.379c4.501,0,8.15-3.648,8.15-8.15s-3.649-8.15-8.15-8.15c-14.931,0-27.077-12.148-27.077-27.079  c0-4.502-3.649-8.15-8.15-8.15s-8.15,3.648-8.15,8.15C75.069,279.92,94.528,299.379,118.446,299.379z"/>
<path d="M393.554,182.107c-40.744,0-73.893,33.149-73.893,73.893s33.149,73.893,73.893,73.893s73.893-33.149,73.893-73.893  S434.298,182.107,393.554,182.107z M393.554,313.593c-31.757,0-57.593-25.835-57.593-57.593s25.837-57.593,57.593-57.593  s57.593,25.835,57.593,57.593S425.31,313.593,393.554,313.593z"/>
<path d="M393.554,283.079c-14.931,0-27.079-12.148-27.079-27.079c0-4.502-3.649-8.15-8.15-8.15s-8.15,3.648-8.15,8.15  c0,23.92,19.46,43.379,43.379,43.379c4.501,0,8.15-3.648,8.15-8.15S398.055,283.079,393.554,283.079z"/>
<path d="M393.543,137.554H118.446c-20.139,0-40.038,5.154-57.548,14.905c-3.933,2.191-5.345,7.154-3.155,11.086  c2.191,3.93,7.154,5.344,11.085,3.155c15.089-8.403,32.247-12.845,49.617-12.845c0.88,0,1.757,0.011,2.632,0.034  c48.113,1.223,88.064,35.879,97.435,81.553c2.083,10.152,2.6,20.653,1.553,30.963c-0.002,0.016-0.003,0.034-0.005,0.05  c-5.252,51.432-48.821,91.693-101.615,91.693c-56.324,0-102.146-45.822-102.146-102.146c0-26.482,10.095-51.59,28.424-70.697  c3.115-3.248,3.009-8.408-0.24-11.523c-3.247-3.115-8.406-3.01-11.523,0.239C11.706,196.177,0,225.292,0,256  c0,65.312,53.135,118.446,118.446,118.446c40.653,0,76.584-20.589,97.924-51.885c9.118,12.31,23.658,19.919,39.63,19.919  c15.972,0,30.511-7.608,39.63-19.919c21.34,31.295,57.272,51.885,97.924,51.885c28.828,0,56.613-10.484,78.235-29.524  c3.378-2.974,3.706-8.125,0.731-11.502c-2.974-3.377-8.125-3.707-11.502-0.731c-18.645,16.416-42.605,25.457-67.464,25.457  c-52.794,0-96.363-40.261-101.615-91.693c-0.002-0.017-0.003-0.034-0.005-0.05c-0.807-7.698-0.695-15.519,0.274-23.197  c0.009-0.066,0.014-0.133,0.023-0.198c5.421-42.525,37.095-76.969,78.208-86.517c0.023-0.005,0.046-0.011,0.068-0.016  c7.562-1.758,15.286-2.622,23.048-2.622c56.324,0,102.146,45.822,102.146,102.146c0,18.936-5.224,37.427-15.105,53.475  c-2.36,3.833-1.166,8.853,2.667,11.213c3.835,2.359,8.854,1.165,11.213-2.667C505.941,299.402,512,277.956,512,256  C512,190.689,458.865,137.554,393.543,137.554z M286.303,306.325c-5.204,11.996-17.016,19.856-30.303,19.856  c-13.288,0-25.1-7.861-30.303-19.856c6.14-13.04,9.769-26.851,10.847-41.202c0.003-0.048,0.007-0.097,0.01-0.145  c0.518-6.982,0.437-14.029-0.267-20.995c-0.002-0.021-0.003-0.042-0.005-0.063c-2.895-28.445-16.577-55.563-37.569-74.936  c-6.072-5.604-12.73-10.582-19.829-14.81c-0.175-0.104-0.346-0.215-0.522-0.318H333.64c-0.164,0.097-0.325,0.201-0.489,0.298  c-29.493,17.549-50.697,48.16-56.379,82.037C272.796,259.887,276.061,284.575,286.303,306.325z"/>
<g>
</g>
<g>
</g>
<g>
</g>
<g>
</g>
<g>
</g>
<g>
</g>
<g>
</g>
<g>
</g>
<g>
</g>
<g>
</g>
<g>
</g>
<g>
</g>
<g>
</g>
<g>
</g>
<g>
</g>
</svg>
