<?xml version="1.0" encoding="iso-8859-1"?>
<!-- Generator: Adobe Illustrator 19.0.0, SVG Export Plug-In . SVG Version: 6.00 Build 0)  -->
<svg xmlns="http://www.w3.org/2000/svg" xmlns:xlink="http://www.w3.org/1999/xlink" version="1.1" id="Layer_1" x="0px" y="0px" viewBox="0 0 512 512" style="enable-background:new 0 0 512 512;" xml:space="preserve">
<rect x="41.42" y="130.744" style="fill:#FFFFFF;" width="340.048" height="340.048"/>
<path style="fill:#B4BBCC;" d="M53.912,106.777h315.06c25.142,0,45.597,20.455,45.597,45.597v295.944  c0,25.142-20.455,45.597-45.597,45.597H53.912c-25.142,0-45.597-20.455-45.597-45.597V152.374  C8.315,127.232,28.769,106.777,53.912,106.777z M370.221,152.374c0-0.69-0.561-1.251-1.251-1.251H53.912  c-0.69,0-1.251,0.561-1.251,1.251v295.944c0,0.69,0.561,1.251,1.251,1.251h315.06c0.69,0,1.251-0.561,1.251-1.251V152.374H370.221z"/>
<path style="fill:#7DD2F0;" d="M285.995,228.73v51.865c0,7.811-3.659,15.171-9.886,19.886l-69.231,52.43l24.169,34.111H115.98  l38.152-108.558l23.889,33.718l58.084-43.987V228.73c0-13.776,11.169-24.945,24.945-24.945  C274.827,203.785,285.995,214.952,285.995,228.73z"/>
<path style="opacity:0.1;enable-background:new    ;" d="M261.051,203.785c-13.776,0-24.945,11.169-24.945,24.945v39.465  l-6.446,4.881h56.335V228.73C285.995,214.952,274.827,203.785,261.051,203.785z"/>
<path style="opacity:0.1;enable-background:new    ;" d="M368.971,106.777H96.625v44.346h272.347c0.69,0,1.251,0.561,1.251,1.251  v120.702h44.346V152.374C414.568,127.232,394.114,106.777,368.971,106.777z"/>
<path style="fill:#C7CFE2;" d="M503.686,47.352v163.196c0,16.164-13.103,29.268-29.267,29.268H159.153  c-16.164,0-29.268-13.103-29.268-29.268V47.352c0-16.164,13.103-29.268,29.268-29.268h315.265  C490.582,18.084,503.686,31.188,503.686,47.352z"/>
<path d="M474.418,9.769H233.833c-4.592,0-8.315,3.723-8.315,8.315s3.723,8.315,8.315,8.315h240.585  c11.553,0,20.953,9.399,20.953,20.953v163.196c0,11.553-9.399,20.953-20.953,20.953H159.153c-11.553,0-20.954-9.399-20.954-20.953  V47.352c0-11.553,9.4-20.953,20.954-20.953h41.421c4.592,0,8.315-3.723,8.315-8.315s-3.723-8.315-8.315-8.315h-41.421  c-20.723,0-37.584,16.859-37.584,37.582v51.11H53.912C24.184,98.462,0,122.647,0,152.374v295.944  c0,29.728,24.184,53.912,53.912,53.912h236.355c4.592,0,8.315-3.723,8.315-8.315c0-4.592-3.723-8.315-8.315-8.315H53.912  c-20.558,0.001-37.282-16.724-37.282-37.282V152.374c0-20.558,16.724-37.282,37.282-37.282h67.657v27.716H53.912  c-5.275,0-9.566,4.292-9.566,9.566v295.944c0,5.275,4.291,9.566,9.566,9.566h45.611c4.592,0,8.315-3.723,8.315-8.315  c0-4.592-3.723-8.315-8.315-8.315H60.976V159.439h60.593v51.11c0,20.723,16.86,37.582,37.584,37.582h68.638v15.93l-47.946,36.31  l-18.927-26.714c-1.797-2.537-4.857-3.856-7.938-3.427c-3.079,0.431-5.66,2.544-6.691,5.477l-38.153,108.557  c-0.895,2.544-0.499,5.364,1.06,7.564c1.559,2.2,4.089,3.508,6.785,3.508h115.067c3.109,0,5.958-1.734,7.386-4.496  c1.428-2.762,1.196-6.09-0.601-8.626l-19.511-27.539l62.81-47.566c8.253-6.249,13.181-16.162,13.181-26.515V248.13h67.596v193.124  H132.139c-4.592,0-8.315,3.723-8.315,8.315c0,4.592,3.723,8.315,8.315,8.315h236.832c5.275,0,9.565-4.292,9.565-9.566V248.131  h27.716v200.187c0,20.558-16.724,37.282-37.282,37.282h-45.445c-4.592,0-8.315,3.723-8.315,8.315c0,4.592,3.723,8.315,8.315,8.315  h45.445c29.726,0,53.912-24.184,53.912-53.912V248.131h51.535c20.723,0,37.582-16.859,37.582-37.582V47.352  C512,26.629,495.141,9.769,474.418,9.769z M277.68,280.595c0,5.176-2.463,10.132-6.59,13.257l-69.231,52.43  c-3.579,2.711-4.36,7.773-1.765,11.436l14.872,20.99h-87.249l28.929-82.314c0,0,14.57,20.563,14.592,20.596  c2.681,3.784,8.11,4.62,11.804,1.822l58.084-43.987c2.075-1.572,3.295-4.026,3.295-6.629v-20.063h33.26L277.68,280.595  L277.68,280.595z"/>
<g>
</g>
<g>
</g>
<g>
</g>
<g>
</g>
<g>
</g>
<g>
</g>
<g>
</g>
<g>
</g>
<g>
</g>
<g>
</g>
<g>
</g>
<g>
</g>
<g>
</g>
<g>
</g>
<g>
</g>
</svg>
