<?xml version="1.0" encoding="iso-8859-1"?>
<!-- Generator: Adobe Illustrator 19.0.0, SVG Export Plug-In . SVG Version: 6.00 Build 0)  -->
<svg xmlns="http://www.w3.org/2000/svg" xmlns:xlink="http://www.w3.org/1999/xlink" version="1.1" id="Layer_1" x="0px" y="0px" viewBox="0 0 512 512" style="enable-background:new 0 0 512 512;" xml:space="preserve">
<path style="fill:#C7CFE2;" d="M117.039,172.774v-25.555C117.039,70.596,179.376,8.257,256,8.257s138.961,62.338,138.961,138.961  v102.623c0,18.241-14.788,33.029-33.029,33.029s-33.029-14.788-33.029-33.029V147.218c0-40.199-32.704-72.902-72.902-72.902  c-40.199,0-72.903,32.704-72.903,72.902v25.555h-66.057V172.774z"/>
<path style="opacity:0.1;enable-background:new    ;" d="M328.903,176.271v73.571c0,18.241,14.788,33.029,33.029,33.029  c18.241,0,33.029-14.788,33.029-33.029v-73.571H328.903z"/>
<path style="fill:#FFD782;" d="M399.28,209.301H112.72c-17.01,0-30.799,13.79-30.799,30.799v232.844  c0,17.01,13.789,30.799,30.799,30.799h286.56c17.01,0,30.799-13.789,30.799-30.799V240.1  C430.08,223.09,416.29,209.301,399.28,209.301z"/>
<path d="M430.08,417.551c-4.561,0-8.257,3.697-8.257,8.257v47.136c0,12.43-10.112,22.541-22.542,22.541H190.101  c-4.561,0-8.257,3.697-8.257,8.257S185.54,512,190.101,512H399.28c21.536,0,39.057-17.521,39.057-39.056v-47.136  C438.337,421.248,434.641,417.551,430.08,417.551z"/>
<path d="M438.337,240.1c0-20.206-15.425-36.877-35.118-38.858v-54.024C403.219,66.042,337.177,0,256.001,0  c-30.035,0-58.954,9.036-83.631,26.128c-3.749,2.597-4.684,7.741-2.086,11.49c2.595,3.749,7.74,4.682,11.49,2.086  c21.902-15.171,47.57-23.19,74.228-23.19c72.07,0,130.703,58.634,130.703,130.703v53.826h-49.544v-53.826  c0-44.751-36.407-81.16-81.16-81.16s-81.161,36.408-81.161,81.16v17.297h-49.544v-17.297c0-32.049,11.774-62.904,33.153-86.881  c3.035-3.403,2.736-8.624-0.667-11.658c-3.404-3.038-8.624-2.735-11.658,0.667c-24.081,27.007-37.342,61.765-37.342,97.872v25.555  c0,4.56,3.696,8.257,8.257,8.257h66.059c4.561,0,8.257-3.697,8.257-8.257v-25.555c0-35.645,29-64.645,64.646-64.645  c35.645,0,64.645,29,64.645,64.645v53.826H112.72c-21.536,0-39.057,17.521-39.057,39.056v232.844  C73.663,494.48,91.184,512,112.72,512h44.352c4.561,0,8.257-3.697,8.257-8.257s-3.696-8.257-8.257-8.257H112.72  c-12.43,0-22.542-10.112-22.542-22.541V240.1c0-12.43,10.112-22.541,22.542-22.541h282.241h4.319  c12.43,0,22.542,10.112,22.542,22.541v152.679c0,4.56,3.696,8.257,8.257,8.257s8.257-3.697,8.257-8.257V240.1z"/>
<g>
</g>
<g>
</g>
<g>
</g>
<g>
</g>
<g>
</g>
<g>
</g>
<g>
</g>
<g>
</g>
<g>
</g>
<g>
</g>
<g>
</g>
<g>
</g>
<g>
</g>
<g>
</g>
<g>
</g>
</svg>
