<?xml version="1.0" encoding="iso-8859-1"?>
<!-- Generator: Adobe Illustrator 19.0.0, SVG Export Plug-In . SVG Version: 6.00 Build 0)  -->
<svg xmlns="http://www.w3.org/2000/svg" xmlns:xlink="http://www.w3.org/1999/xlink" version="1.1" id="Layer_1" x="0px" y="0px" viewBox="0 0 512 512" style="enable-background:new 0 0 512 512;" xml:space="preserve">
<g>
	<path style="fill:#353640;" d="M219.536,279.737c0,0,18.924,89.175,18.924,222.204h45.806c0-133.03,18.924-222.204,18.924-222.204   l-41.826-41.46L219.536,279.737z"/>
	<path style="fill:#353640;" d="M176.548,236.822H76.841c-19.152,0-36.075-12.211-42.113-30.385l-13.323-40.09   c-4.55-13.693-2.317-28.258,6.126-39.96s21.561-18.413,35.99-18.413h113.026c9.094,0,16.466,7.373,16.466,16.466v95.914   C193.015,229.451,185.642,236.822,176.548,236.822z M63.521,140.908c-3.721,0-7.104,1.73-9.282,4.748s-2.753,6.775-1.58,10.305   l13.323,40.091c1.557,4.687,5.922,7.835,10.861,7.835h83.239v-62.981H63.521V140.908z"/>
</g>
<path style="fill:#515262;" d="M433.295,41.836c0,0-11.695,166.271-130.106,237.902h-83.652  C101.126,208.107,89.43,41.836,89.43,41.836H433.295z"/>
<path style="opacity:0.1;enable-background:new    ;" d="M103.631,113.843h315.463c12.011-40.996,14.201-72.006,14.201-72.006H89.43  C89.43,41.836,91.62,72.846,103.631,113.843z"/>
<path style="fill:#353640;" d="M469.57,10.057H53.156c-12.888,0-23.336,10.448-23.336,23.334v16.887  c0,12.887,10.448,23.334,23.336,23.334H469.57c12.888,0,23.336-10.448,23.336-23.334V33.393  C492.905,20.505,482.458,10.057,469.57,10.057z"/>
<path d="M469.575,0h-82.051c-5.556,0-10.057,4.502-10.057,10.057s4.502,10.057,10.057,10.057h82.051  c7.322,0,13.278,5.957,13.278,13.278v16.885c0,7.322-5.957,13.278-13.278,13.278h-40.81H184.18c-5.556,0-10.057,4.502-10.057,10.057  c0,5.556,4.502,10.057,10.057,10.057h232.275c-7.721,35.286-22.736,82.027-51.775,123.705c-3.175,4.558-2.056,10.826,2.501,14.001  c1.753,1.22,3.757,1.808,5.741,1.808c3.178,0,6.307-1.503,8.26-4.309c32.088-46.053,47.995-97.569,55.838-135.205h32.555  c18.413,0,33.393-14.98,33.393-33.393V33.393C502.968,14.98,487.988,0,469.575,0z"/>
<path d="M340.051,237.419c-12.125,12.535-25.469,23.378-39.699,32.262c0,0-77.947,0-77.964,0c-8.192,0-24.985-18.354-30.628-23.574  c-40.67-37.624-65.489-88.037-80.106-140.815c-0.118-0.425-0.283-0.827-0.452-1.226c-1.763-6.565-3.414-13.36-4.936-20.393h37.685  c5.556,0,10.057-4.502,10.057-10.057c0-5.556-4.502-10.057-10.057-10.057H93.971h-40.81c-7.322,0-13.277-5.957-13.277-13.278V33.393  c0-7.322,5.955-13.278,13.277-13.278h294.134c5.556,0,10.057-4.502,10.057-10.057S352.85,0,347.295,0H53.161  C34.749,0,19.769,14.98,19.769,33.393v16.885c0,18.413,14.98,33.393,33.392,33.393h32.557c0.936,4.475,2.007,9.239,3.232,14.246  H63.525c-17.698,0-33.788,8.232-44.145,22.586s-13.095,32.22-7.513,49.017l13.323,40.088c7.406,22.294,28.166,37.272,51.657,37.272  h87.138c14.072,15.29,29.606,28.333,46.529,39.048c1.543,8.087,5.061,27.832,8.546,56.562c4.266,35.174,9.349,91.388,9.349,159.452  c0,5.556,4.502,10.057,10.057,10.057h45.805c5.556,0,10.057-4.502,10.057-10.057c0-68.064,5.084-124.28,9.349-159.452  c3.481-28.71,6.996-48.447,8.541-56.545c15.158-9.604,29.377-21.19,42.29-34.539c3.862-3.993,3.756-10.36-0.236-14.221  C350.278,233.32,343.911,233.427,340.051,237.419z M119.134,181.093c2.192,4.354,4.476,8.578,6.805,12.741H76.848  c-0.609,0-1.125-0.373-1.317-0.951l-13.323-40.09c-0.154-0.468-0.095-0.854,0.19-1.25c0.288-0.4,0.637-0.578,1.128-0.578H105.7  C109.588,160.856,114.038,170.971,119.134,181.093z M147.262,226.765H76.848c-14.811,0-27.9-9.443-32.569-23.499l-13.323-40.09  c-3.519-10.59-1.793-21.854,4.736-30.904s16.675-14.24,27.833-14.24h30.86c0.07,0.237,0.145,0.472,0.216,0.708  c0.503,1.683,1.02,3.381,1.556,5.094c0.156,0.499,0.314,0.996,0.471,1.494c0.53,1.674,1.071,3.358,1.635,5.057  c0.051,0.154,0.099,0.31,0.15,0.464H63.525c-6.99,0-13.345,3.252-17.439,8.923c-4.09,5.671-5.169,12.726-2.966,19.361l13.323,40.09  c2.926,8.806,11.126,14.723,20.406,14.723h61.344c1.144,1.716,2.316,3.389,3.487,5.066c0.394,0.565,0.78,1.138,1.177,1.699  c1.153,1.628,2.328,3.224,3.507,4.814C146.664,225.936,146.958,226.359,147.262,226.765z M283.749,339.74  c-4.137,34.041-9.03,87.441-9.498,152.145h-25.764c-0.468-64.705-5.361-118.105-9.499-152.145  c-2.74-22.543-5.463-39.493-7.308-49.944h59.378C289.212,300.246,286.488,317.197,283.749,339.74z"/>
<g>
</g>
<g>
</g>
<g>
</g>
<g>
</g>
<g>
</g>
<g>
</g>
<g>
</g>
<g>
</g>
<g>
</g>
<g>
</g>
<g>
</g>
<g>
</g>
<g>
</g>
<g>
</g>
<g>
</g>
</svg>
