<?xml version="1.0" encoding="iso-8859-1"?>
<!-- Generator: Adobe Illustrator 19.0.0, SVG Export Plug-In . SVG Version: 6.00 Build 0)  -->
<svg xmlns="http://www.w3.org/2000/svg" xmlns:xlink="http://www.w3.org/1999/xlink" version="1.1" id="Layer_1" x="0px" y="0px" viewBox="0 0 512 512" style="enable-background:new 0 0 512 512;" xml:space="preserve">
<path style="fill:#FF6465;" d="M479.882,137.272l0.001-0.007l-0.004,0.003c-27.907-35.488-77.51-86.066-133.571-86.066l0,0  l-30.229,45.155l-60.08,45.154l0,0l0,0L195.92,96.357l-30.229-45.155l0,0c-56.064,0-105.671,50.58-133.575,86.063L32.315,138  c0.002,0.006,0.004,0.012,0.007,0.019l13.922,51l51.068,22.698l16.474-11.432c0,0-4.019,147.481-4.019,260.513h292.467  c0-113.033-4.019-260.513-4.019-260.513l16.474,11.432l51.068-22.698l13.922-51c0.002-0.006,0.006-0.012,0.008-0.019l0.223-0.695  C479.9,137.295,479.891,137.283,479.882,137.272z"/>
<g>
	<path style="fill:#6AB2CC;" d="M313.152,51.203c0,31.514-25.638,57.152-57.152,57.152s-57.152-25.638-57.152-57.152h-33.157   c0,49.876,40.433,90.309,90.309,90.309s90.309-40.433,90.309-90.309L313.152,51.203z"/>
	<path style="fill:#6AB2CC;" d="M32.315,138.001l-0.199-0.735l-1.936,2.491C16.293,157.708,8.288,171.22,8.288,171.22   s5.383,31.219,52.749,65.667l36.275-25.17C52.302,180.059,37.111,150.758,32.315,138.001z"/>
	<path style="fill:#6AB2CC;" d="M481.311,139.1l-1.401-1.797l-0.224,0.699c-4.798,12.757-19.987,42.059-64.997,73.716l36.275,25.17   c47.366-34.448,52.749-65.667,52.749-65.667S495.513,157.377,481.311,139.1z"/>
</g>
<path d="M510.845,166.998c-0.745-1.259-18.575-31.163-47.448-61.502C423.874,63.969,384.48,42.913,346.31,42.913h-33.157  c-4.579,0-8.289,3.71-8.289,8.289c0,26.944-21.919,48.863-48.863,48.863s-48.863-21.919-48.863-48.863  c0-4.579-3.71-8.289-8.289-8.289h-33.157c-38.171,0-77.566,21.056-117.087,62.583C19.729,135.835,1.9,165.741,1.156,166.998  c-1.002,1.694-1.369,3.69-1.036,5.631c0.243,1.409,6.523,34.948,56.041,70.961c2.852,2.073,6.706,2.117,9.601,0.107l36.139-25.076  c0.02-0.013,0.04-0.028,0.06-0.041l3.12-2.165c-1.031,41.604-3.603,154.48-3.603,244.382c0,4.579,3.71,8.289,8.289,8.289h292.466  c4.579,0,8.289-3.71,8.289-8.289c0-89.904-2.572-202.78-3.603-244.382l3.126,2.168c0.018,0.012,0.033,0.024,0.051,0.036  l36.141,25.077c2.898,2.009,6.747,1.966,9.601-0.107c49.519-36.013,55.798-69.552,56.041-70.961  C512.214,170.689,511.847,168.694,510.845,166.998z M61.218,226.672c-31.914-24.568-41.499-46.649-43.985-54.146  c2.322-3.664,6.807-10.512,13.096-19.097c8.072,14.909,23.497,35.751,52.718,58.097L61.218,226.672z M450.781,226.673l-21.833-15.15  c7.604-5.821,14.657-11.825,21.032-17.935c3.305-3.168,3.417-8.414,0.25-11.72c-3.168-3.306-8.414-3.415-11.72-0.25  c-7.107,6.811-15.136,13.503-23.91,19.947l-11.659-8.089c-2.567-1.779-5.917-1.966-8.668-0.482  c-2.749,1.488-4.429,4.394-4.344,7.518c0.039,1.438,3.822,141.515,4.008,251.997H118.064c0.186-110.477,3.969-250.559,4.008-251.997  c0.085-3.123-1.594-6.03-4.344-7.518c-2.75-1.485-6.102-1.299-8.668,0.482l-11.659,8.09c-36.05-26.483-50.427-50.634-55.807-62.785  c25.981-32.201,68.704-74.568,116.199-78.912c1.499,17.2,7.443,33.596,17.439,47.857c2.629,3.747,7.796,4.657,11.546,2.029  c3.749-2.628,4.656-7.797,2.029-11.546c-8.104-11.559-13.015-24.806-14.412-38.717h16.687c4.087,32.185,31.643,57.152,64.919,57.152  s60.831-24.967,64.919-57.152h16.686c-4.168,41.349-39.174,73.731-81.604,73.731c-17.216,0-33.709-5.296-47.693-15.315  c-3.721-2.667-8.899-1.813-11.566,1.911c-2.666,3.721-1.812,8.901,1.911,11.566c16.817,12.048,36.648,18.418,57.35,18.418  c51.447,0,93.809-39.609,98.213-89.931c47.493,4.346,90.215,46.714,116.195,78.912c-2.126,4.852-4.886,9.842-8.393,15.153  c-2.522,3.821-1.47,8.962,2.35,11.486c1.406,0.928,2.992,1.373,4.56,1.373c2.692,0,5.331-1.31,6.925-3.722  c2.174-3.294,4.098-6.498,5.815-9.651c6.288,8.584,10.774,15.432,13.098,19.099C492.251,180.089,482.646,202.142,450.781,226.673z"/>
<g>
</g>
<g>
</g>
<g>
</g>
<g>
</g>
<g>
</g>
<g>
</g>
<g>
</g>
<g>
</g>
<g>
</g>
<g>
</g>
<g>
</g>
<g>
</g>
<g>
</g>
<g>
</g>
<g>
</g>
</svg>
