<?xml version="1.0" encoding="iso-8859-1"?>
<!-- Generator: Adobe Illustrator 19.0.0, SVG Export Plug-In . SVG Version: 6.00 Build 0)  -->
<svg xmlns="http://www.w3.org/2000/svg" xmlns:xlink="http://www.w3.org/1999/xlink" version="1.1" id="Layer_1" x="0px" y="0px" viewBox="0 0 512.001 512.001" style="enable-background:new 0 0 512.001 512.001;" xml:space="preserve">
<path style="fill:#FF6465;" d="M425.233,504.158c-18.806-46.403-56.143-83.315-102.832-101.556l-0.738-0.28H190.336  c-47.031,18.141-84.663,55.192-103.568,101.837L425.233,504.158L425.233,504.158z"/>
<g>
	<path style="fill:#5A4146;" d="M112.753,233.34c0,53.652-21.329,90.862-21.329,90.862s33.009,15.471,103.039,15.471V237.667   L112.753,233.34z"/>
	<path style="fill:#5A4146;" d="M399.248,233.34c0,53.652,21.329,90.862,21.329,90.862s-33.009,15.471-103.039,15.471V237.667   L399.248,233.34z"/>
	<path style="fill:#5A4146;" d="M256,7.842L256,7.842c-79.114,0-143.248,64.134-143.248,143.248v65.179h286.496V151.09   C399.248,71.976,335.114,7.842,256,7.842z"/>
</g>
<path style="opacity:0.1;enable-background:new    ;" d="M256,7.842c-8.928,0-17.663,0.824-26.14,2.387  c66.63,12.287,117.108,70.676,117.108,140.861v65.179h52.28V151.09C399.248,71.976,335.114,7.842,256,7.842z"/>
<path style="fill:#F0C087;" d="M293.233,393.955V327.86h-74.466v66.097c-9.786,2.031-19.287,4.839-28.431,8.366  c7.938,28.82,34.32,49.996,65.664,49.996c31.344,0,57.726-21.176,65.664-49.996C312.519,398.794,303.019,395.987,293.233,393.955z"/>
<g>
	<path style="fill:#E6B273;" d="M133.618,178.651c-19.429,0-35.18,15.751-35.18,35.18l0,0c0,19.429,15.751,35.18,35.18,35.18h17.108   v-70.361L133.618,178.651L133.618,178.651z"/>
	<path style="fill:#E6B273;" d="M378.383,178.651c19.429,0,35.18,15.751,35.18,35.18l0,0c0,19.429-15.751,35.18-35.18,35.18h-17.108   v-70.361L378.383,178.651L378.383,178.651z"/>
</g>
<path style="opacity:0.1;enable-background:new    ;" d="M218.767,383.035c11.927,2.975,24.398,4.564,37.234,4.564  c12.836,0,25.305-1.589,37.233-4.564v-55.177h-74.466v55.177H218.767z"/>
<path style="fill:#F0C087;" d="M375.438,153.989c-127.026-20.506-149.925-91.255-149.925-91.256l0,0  c0,0.002-26.617,86.34-87.708,86.34c-2.816,10.31-4.328,21.157-4.328,32.359v52.275c0,67.668,54.857,122.525,122.525,122.525l0,0  c67.668,0,122.525-54.857,122.525-122.525v-52.275C378.525,171.998,377.457,162.812,375.438,153.989L375.438,153.989z"/>
<path d="M221.87,286.853c7.102,4.721,19.862,7.539,34.132,7.539c14.268,0,27.027-2.818,34.13-7.538  c3.607-2.397,4.588-7.264,2.192-10.871c-2.397-3.607-7.263-4.588-10.871-2.192c-3.683,2.447-12.981,4.916-25.449,4.916  c-12.47,0-21.767-2.47-25.45-4.916c-3.607-2.398-8.474-1.417-10.871,2.191C217.284,279.589,218.262,284.456,221.87,286.853z"/>
<path d="M225.507,198.442c2.272,0,4.525-0.982,6.076-2.878c2.742-3.353,2.246-8.294-1.107-11.035  c-6.126-5.008-17.034-7.999-29.178-7.999s-23.051,2.989-29.177,7.998c-3.353,2.742-3.849,7.682-1.108,11.035  c2.742,3.352,7.682,3.848,11.035,1.108c2.626-2.147,9.769-4.456,19.25-4.456c9.48,0,16.624,2.31,19.25,4.456  C222.006,197.862,223.761,198.442,225.507,198.442z"/>
<circle cx="201.301" cy="216.963" r="13.418"/>
<path d="M340.987,195.564c2.742-3.353,2.246-8.294-1.107-11.035c-6.125-5.008-17.033-7.998-29.178-7.998s-23.051,2.99-29.178,7.999  c-3.353,2.742-3.849,7.682-1.107,11.035c1.55,1.896,3.804,2.878,6.076,2.878c1.745,0,3.503-0.58,4.959-1.771  c2.625-2.147,9.769-4.456,19.25-4.456s16.624,2.31,19.25,4.456C333.304,199.412,338.245,198.916,340.987,195.564z"/>
<circle cx="310.702" cy="216.963" r="13.418"/>
<path d="M121.989,448.528c-3.298-2.805-8.247-2.406-11.054,0.893c-13.238,15.566-23.815,32.991-31.435,51.792  c-0.98,2.417-0.693,5.164,0.763,7.328c1.458,2.163,3.896,3.461,6.504,3.461h338.466c2.609,0,5.046-1.297,6.504-3.461  c1.458-2.163,1.743-4.909,0.763-7.327c-19.588-48.335-58.678-86.939-107.321-105.944c0,0-0.738-0.28-0.751-0.283  c-7.582-2.921-15.411-5.368-23.355-7.299v-31.648c6.409-2.369,12.579-5.232,18.471-8.536c69.58-0.293,102.961-15.542,104.359-16.197  c1.981-0.928,3.481-2.646,4.143-4.73c0.662-2.085,0.421-4.356-0.66-6.257c-0.177-0.31-17.147-30.628-19.904-74.831  c8.552-7.868,13.921-19.144,13.921-31.653c0-12.683-5.536-24.108-14.315-31.994v-30.75C407.088,67.778,339.31,0,255.998,0  c-29.879,0-58.779,8.717-83.573,25.21c-3.606,2.399-4.585,7.267-2.186,10.872c2.399,3.606,7.265,4.585,10.872,2.186  c22.216-14.774,48.11-22.584,74.889-22.584c74.663,0,135.406,60.742,135.406,135.406v21.725c-0.608-0.193-1.225-0.353-1.841-0.519  c-1.163-0.312-2.379-0.603-3.575-0.817c-0.012-0.151-0.03-0.3-0.043-0.451c-0.33-4.167-0.863-8.313-1.591-12.428  c-0.238-1.346-0.491-2.687-0.768-4.026c-0.819-3.966-2.424-7.605-6.901-8.328c-16.419-2.651-31.946-6.323-46.15-10.914  c-4.122-1.33-8.542,0.93-9.874,5.05c-1.315,4.073,0.987,8.561,5.051,9.875c13.403,4.332,27.885,7.88,43.124,10.568  c2.09,0.436,1.846,19.022,1.846,20.605v52.275c0,28.739-11.321,57.327-31.185,78.528c-0.558,0.596-1.127,1.18-1.698,1.765  c-13.545,13.796-30.538,24.191-49.571,29.774c-10.441,3.048-21.35,4.617-32.229,4.617c-10.912,0-21.641-1.674-32.138-4.59  c-19.197-5.614-36.322-16.122-49.933-30.078c-17.114-17.55-28.545-40.872-31.667-65.353c-0.62-4.863-0.944-9.758-0.944-14.66  v-52.275c0-6.382,0.527-12.766,1.583-19.06c0.079-0.472,0.811-5.703,1.11-5.73c25.29-2.231,48.363-18.143,67.059-46.356  c6.792-10.25,11.919-20.458,15.503-28.579c9.692,14.936,29.226,37.258,66.275,55.38c3.889,1.902,8.586,0.292,10.491-3.599  c1.903-3.891,0.292-8.587-3.599-10.491c-7.709-3.77-15.021-8.13-22.219-12.787c-0.104-0.07-0.208-0.14-0.312-0.21  c-34.347-23.292-43.702-48.193-44.219-49.633c-0.009-0.026-0.023-0.066-0.024-0.068c-1.054-3.228-4.064-5.406-7.455-5.406  c-0.02,0-0.04,0-0.06,0c-3.415,0.025-6.421,2.261-7.432,5.523c-0.25,0.808-25.68,80.815-80.216,80.815  c-3.535,0-6.633,2.365-7.565,5.775c-1.829,6.696-3.953,14.363-3.953,21.36c-0.104,1.036-0.196,2.073-0.274,3.113  c-0.005,0.073-1.766,0.374-1.907,0.407c-1.177,0.27-2.358,0.563-3.51,0.927V151.09c0-35.121,13.392-68.415,37.71-93.749  c3-3.124,2.897-8.089-0.227-11.088c-3.125-3-8.089-2.897-11.088,0.227c-27.136,28.27-42.079,65.42-42.079,104.611v30.746  c-8.779,7.886-14.315,19.311-14.315,31.997c0,12.509,5.37,23.784,13.921,31.653c-2.757,44.203-19.727,74.521-19.899,74.82  c-1.09,1.902-1.332,4.172-0.672,6.261c0.661,2.089,2.165,3.807,4.15,4.737c1.399,0.656,34.78,15.906,104.361,16.197  c5.892,3.303,12.061,6.167,18.468,8.535v31.648c-7.961,1.935-15.81,4.388-23.411,7.319c-19.357,7.467-37.304,18.031-53.343,31.403  c-3.326,2.773-3.775,7.719-1.002,11.045c2.774,3.327,7.719,3.775,11.045,1.002c12.611-10.515,26.507-19.138,41.394-25.699  c8.452,20.81,26.18,36.976,47.521,43.852c7.343,2.366,15.155,3.553,22.869,3.553c22.968,0,45.538-10.987,59.702-29.056  c4.309-5.497,7.894-11.569,10.552-18.031c0.045-0.108,0.094-0.213,0.138-0.322c37.791,16.669,68.7,46.488,86.766,83.565H98.842  c6.406-13.157,14.464-25.474,24.042-36.734C125.689,456.282,125.288,451.333,121.989,448.528z M386.268,238.556  c0.06-1.617,0.099-3.231,0.099-4.848v-46.02c11.188,3.429,19.354,13.863,19.354,26.145c0,9.194-4.566,17.336-11.545,22.294  c-0.135,0.096-0.272,0.187-0.408,0.28c-2.267,1.546-4.733,2.75-7.36,3.553c-0.064,0.02-0.13,0.037-0.193,0.055  C386.239,239.529,386.25,239.043,386.268,238.556z M343.49,330.274c1.281-1.165,2.539-2.353,3.771-3.568  c18.979-18.627,32.302-42.994,37.118-70.263c2.746-0.381,5.476-1.033,8.095-1.94c3.043,30.523,11.92,53.784,17.213,65.41  c-10.671,3.49-32.762,9.226-67.113,11.214C342.886,330.848,343.182,330.554,343.49,330.274z M125.634,187.686v46.021  c0,1.617,0.04,3.231,0.099,4.846c0.018,0.488,0.029,0.976,0.053,1.463c-0.063-0.019-0.125-0.035-0.187-0.054  c-2.621-0.806-5.116-2.016-7.379-3.563c-0.129-0.088-0.258-0.175-0.386-0.266c-6.984-4.957-11.554-13.104-11.554-22.301  C106.279,201.548,114.445,191.113,125.634,187.686z M102.285,319.974c5.29-11.605,14.194-34.893,17.241-65.471  c1.751,0.606,3.547,1.087,5.369,1.462c0.031,0.006,0.063,0.014,0.094,0.02c0.871,0.177,1.752,0.338,2.633,0.459  c4.536,25.683,16.616,48.796,33.862,66.96c0.045,0.047,0.089,0.096,0.134,0.143c2.448,2.587,5.097,5.159,7.782,7.558  C137.822,329.235,114.91,324.12,102.285,319.974z M311.707,407.22c-9.232,22.207-31.642,37.256-55.707,37.256  c-18.685,0-36.645-9.024-47.986-23.833c-0.786-1.027-8.329-13.371-7.774-13.557c6.579-2.211,13.318-4.038,20.121-5.45  c3.639-0.755,6.249-3.962,6.249-7.678c0,0,0-33.169,0-33.217c0,2.797,27.619,3.334,29.392,3.334c9.868,0,19.773-1.117,29.39-3.334  v33.217c0,3.717,2.609,6.923,6.249,7.678c6.802,1.412,13.542,3.238,20.121,5.45C311.742,407.129,311.725,407.175,311.707,407.22z"/>
<g>
</g>
<g>
</g>
<g>
</g>
<g>
</g>
<g>
</g>
<g>
</g>
<g>
</g>
<g>
</g>
<g>
</g>
<g>
</g>
<g>
</g>
<g>
</g>
<g>
</g>
<g>
</g>
<g>
</g>
</svg>
