<?xml version="1.0" encoding="iso-8859-1"?>
<!-- Generator: Adobe Illustrator 19.0.0, SVG Export Plug-In . SVG Version: 6.00 Build 0)  -->
<svg xmlns="http://www.w3.org/2000/svg" xmlns:xlink="http://www.w3.org/1999/xlink" version="1.1" id="Layer_1" x="0px" y="0px" viewBox="0 0 512 512" style="enable-background:new 0 0 512 512;" xml:space="preserve">
<path style="fill:#6AB2CC;" d="M466.349,35.849c0-14.914-12.089-27.004-27.004-27.004c-5.611,0-10.821,1.714-15.14,4.643  l-266.769,81.81c-14.914,0-27.004,12.089-27.004,27.004v283.474c-10.382,1.235-21.463,4.189-32.494,8.983  c-37.134,16.137-59.577,46.843-50.129,68.583s47.209,26.284,84.342,10.148c34.245-14.881,55.974-42.149,51.74-63.353  c0.359-1.755,0.547-3.572,0.547-5.433V191.188l227.902-69.89v198.027c-10.382,1.235-21.463,4.189-32.494,8.983  c-37.134,16.137-59.577,46.843-50.129,68.583c9.448,21.741,47.209,26.284,84.342,10.148c34.245-14.881,55.974-42.149,51.74-63.353  c0.359-1.755,0.547-3.572,0.547-5.433V35.849H466.349z"/>
<path d="M135.685,501.569c37.26-16.192,60.955-45.964,57.183-71.428c0.275-1.8,0.414-3.628,0.414-5.453V371.63  c0-4.875-3.952-8.828-8.828-8.828c-4.875,0-8.828,3.952-8.828,8.828v53.057c0,1.236-0.124,2.469-0.368,3.665  c-0.235,1.152-0.239,2.341-0.008,3.496c3.005,15.052-13.605,39.189-46.602,53.529c-35.375,15.373-66.166,9.531-72.729-5.57  c-4.41-10.149,2.259-21.69,6.628-27.666c8.557-11.707,22.381-22.114,38.924-29.303c9.832-4.271,20.212-7.147,30.019-8.313  c4.441-0.529,7.785-4.294,7.785-8.765V122.284c0-10.022,8.153-18.175,18.175-18.175c0.877,0,1.749-0.131,2.588-0.388l31.496-9.659  c4.661-1.429,7.281-6.366,5.852-11.027c-1.429-4.661-6.37-7.281-11.027-5.852l-30.32,9.298  c-19.105,0.744-34.418,16.519-34.418,35.804v275.909c-9.09,1.717-18.203,4.55-27.186,8.453  c-19.375,8.419-35.761,20.877-46.14,35.077c-11.395,15.588-14.436,31.612-8.566,45.121c7.13,16.406,25.877,25.158,49.109,25.156  C103.29,511.999,119.483,508.61,135.685,501.569z"/>
<path d="M475.191,35.832C475.191,16.074,459.118,0,439.361,0c-6.725,0-13.232,1.86-18.906,5.393l-198.786,60.96  c-4.661,1.429-7.281,6.366-5.852,11.027c1.429,4.661,6.369,7.282,11.027,5.852L426.808,21.91c0.842-0.258,1.64-0.64,2.368-1.135  c3.01-2.041,6.531-3.12,10.185-3.12c10.022,0,18.175,8.154,18.175,18.177v302.403c0,1.236-0.124,2.469-0.368,3.666  c-0.235,1.152-0.239,2.341-0.008,3.496c3.005,15.052-13.605,39.189-46.602,53.529c-16.544,7.189-33.585,10.193-47.981,8.462  c-7.349-0.884-20.338-3.883-24.748-14.032s2.259-21.69,6.627-27.666c8.558-11.708,22.381-22.115,38.924-29.303  c9.829-4.271,20.209-7.146,30.017-8.313c4.441-0.528,7.785-4.294,7.785-8.765V121.281c0-2.8-1.328-5.434-3.58-7.099  c-2.252-1.664-5.159-2.162-7.835-1.342l-40.458,12.407c-4.661,1.429-7.281,6.366-5.852,11.027c1.429,4.661,6.365,7.28,11.027,5.852  l29.042-8.906v178.519c-9.091,1.718-18.204,4.55-27.184,8.453c-19.375,8.419-35.761,20.877-46.141,35.077  c-11.395,15.588-14.436,31.612-8.565,45.121c5.87,13.509,19.661,22.217,38.831,24.524c3.325,0.4,6.749,0.598,10.252,0.598  c14.9,0,31.187-3.579,46.875-10.397c37.26-16.192,60.955-45.964,57.183-71.428c0.275-1.8,0.414-3.628,0.414-5.454V35.832H475.191z"/>
<path d="M345.028,141.928c-1.429-4.661-6.366-7.281-11.027-5.852L181.866,182.73c-3.708,1.137-6.239,4.561-6.239,8.439v145.149  c0,4.875,3.952,8.828,8.828,8.828c4.875,0,8.828-3.952,8.828-8.828V197.696l145.894-44.741  C343.838,151.526,346.458,146.589,345.028,141.928z"/>
<g>
</g>
<g>
</g>
<g>
</g>
<g>
</g>
<g>
</g>
<g>
</g>
<g>
</g>
<g>
</g>
<g>
</g>
<g>
</g>
<g>
</g>
<g>
</g>
<g>
</g>
<g>
</g>
<g>
</g>
</svg>
