<?xml version="1.0" encoding="iso-8859-1"?>
<!-- Generator: Adobe Illustrator 19.0.0, SVG Export Plug-In . SVG Version: 6.00 Build 0)  -->
<svg xmlns="http://www.w3.org/2000/svg" xmlns:xlink="http://www.w3.org/1999/xlink" version="1.1" id="Layer_1" x="0px" y="0px" viewBox="0 0 512 512" style="enable-background:new 0 0 512 512;" xml:space="preserve">
<polygon style="fill:#515262;" points="282.592,8.782 282.592,48.242 229.409,48.242 229.409,8.782 134.279,8.782 134.279,503.218   229.409,503.218 229.409,463.756 282.592,463.756 282.592,503.218 377.723,503.218 377.723,8.782 "/>
<g style="opacity:0.1;">
	<rect x="134.283" y="8.782" width="46.837" height="494.438"/>
</g>
<g>
	<rect x="229.41" y="106.157" style="fill:#FFFFFF;" width="53.184" height="120.875"/>
	<rect x="229.41" y="284.958" style="fill:#FFFFFF;" width="53.184" height="120.875"/>
</g>
<g>
	<polygon style="fill:#7DD2F0;" points="422.464,305.005 422.464,206.994 487.496,256  "/>
	<polygon style="fill:#7DD2F0;" points="89.537,305.005 89.537,206.994 24.505,256  "/>
</g>
<path d="M282.592,235.822h-53.184c-4.851,0-8.782-3.931-8.782-8.782V106.159c0-4.851,3.931-8.782,8.782-8.782h53.184  c4.851,0,8.782,3.931,8.782,8.782V227.04C291.374,231.892,287.442,235.822,282.592,235.822z M238.191,218.258h35.62V114.941h-35.62  V218.258z"/>
<path d="M282.592,414.622h-53.184c-4.851,0-8.782-3.931-8.782-8.782V284.958c0-4.851,3.931-8.782,8.782-8.782h53.184  c4.851,0,8.782,3.931,8.782,8.782v120.88C291.374,410.69,287.442,414.622,282.592,414.622z M238.191,397.058h35.62V293.74h-35.62  V397.058z"/>
<path d="M422.463,313.787c-1.336,0-2.677-0.304-3.918-0.923c-2.98-1.486-4.863-4.529-4.863-7.859v-98.011  c0-3.33,1.883-6.373,4.863-7.859c2.98-1.487,6.544-1.158,9.204,0.845l65.032,49.006c2.203,1.66,3.496,4.258,3.496,7.014  s-1.294,5.354-3.496,7.014l-65.032,49.006C426.196,313.19,424.336,313.787,422.463,313.787z M431.246,224.608v62.782l41.658-31.392  L431.246,224.608z"/>
<path d="M89.538,313.787c-1.873,0-3.733-0.598-5.287-1.768l-65.032-49.006c-2.203-1.66-3.496-4.258-3.496-7.014  s1.294-5.354,3.496-7.014l65.032-49.006c2.659-2.003,6.222-2.331,9.204-0.845c2.98,1.486,4.863,4.529,4.863,7.859v98.011  c0,3.33-1.883,6.373-4.863,7.859C92.215,313.483,90.873,313.787,89.538,313.787z M39.097,256l41.658,31.392v-62.783L39.097,256z"/>
<path d="M377.723,388.436c-4.851,0-8.782-3.931-8.782-8.782V17.564h-77.565v30.678c0,4.851-3.931,8.782-8.782,8.782h-53.185  c-4.851,0-8.782-3.931-8.782-8.782V17.564h-77.566V69.01c0,4.851-3.931,8.782-8.782,8.782c-4.851,0-8.782-3.931-8.782-8.782V8.782  c0-4.851,3.931-8.782,8.782-8.782h95.13c4.851,0,8.782,3.931,8.782,8.782V39.46h35.621V8.782c0-4.851,3.931-8.782,8.782-8.782  h95.129c4.851,0,8.782,3.931,8.782,8.782v370.872C386.505,384.505,382.574,388.436,377.723,388.436z"/>
<path d="M377.723,512h-95.129c-4.851,0-8.782-3.931-8.782-8.782V472.54h-35.621v30.678c0,4.851-3.931,8.782-8.782,8.782h-95.13  c-4.851,0-8.782-3.931-8.782-8.782v-399.08c0-4.851,3.931-8.782,8.782-8.782c4.851,0,8.782,3.931,8.782,8.782v390.298h77.566  v-30.678c0-4.851,3.931-8.782,8.782-8.782h53.185c4.851,0,8.782,3.931,8.782,8.782v30.678h77.565v-79.653  c0-4.851,3.931-8.782,8.782-8.782c4.851,0,8.782,3.931,8.782,8.782v88.435C386.505,508.068,382.574,512,377.723,512z"/>
<g>
</g>
<g>
</g>
<g>
</g>
<g>
</g>
<g>
</g>
<g>
</g>
<g>
</g>
<g>
</g>
<g>
</g>
<g>
</g>
<g>
</g>
<g>
</g>
<g>
</g>
<g>
</g>
<g>
</g>
</svg>
