<?xml version="1.0" encoding="iso-8859-1"?>
<!-- Generator: Adobe Illustrator 19.0.0, SVG Export Plug-In . SVG Version: 6.00 Build 0)  -->
<svg xmlns="http://www.w3.org/2000/svg" xmlns:xlink="http://www.w3.org/1999/xlink" version="1.1" id="Layer_1" x="0px" y="0px" viewBox="0 0 512 512" style="enable-background:new 0 0 512 512;" xml:space="preserve">
<path style="fill:#515262;" d="M256,503.403C563.696,419.38,485.123,72.781,485.123,72.781C339.249,99.622,256,8.596,256,8.596  S172.752,99.622,26.877,72.781C26.877,72.781-51.696,419.38,256,503.403z"/>
<path style="fill:#FFD782;" d="M236.419,74.194c-34.983,21.37-87.877,43.648-156.453,43.652c-0.008,0-0.013,0-0.021,0  c-6.387,0-12.83-0.197-19.305-0.589c-3.311,31.332-5.237,79.917,4.794,131.697c0.375,1.935,0.789,3.837,1.191,5.75h169.793V74.194  H236.419z"/>
<g>
	<path style="fill:#FFFFFF;" d="M451.286,117.262c-6.456,0.39-12.878,0.585-19.249,0.585   c-68.582,0.002-121.478-22.277-156.462-43.651v180.509h169.801c0.244-1.161,0.508-2.305,0.742-3.473   C456.584,198.959,454.631,149.197,451.286,117.262z"/>
	<path style="fill:#FFFFFF;" d="M236.419,293.86H77.295c10.563,30.925,25.369,58.241,44.263,81.557   c28.53,35.21,67.083,61.909,114.862,79.628V293.86H236.419z"/>
</g>
<path style="fill:#FFD782;" d="M275.575,293.86v161.189c47.34-17.554,85.625-43.923,114.066-78.648  c19.271-23.526,34.337-51.181,45.049-82.54H275.575z"/>
<path style="opacity:0.1;enable-background:new    ;" d="M146.71,69.249C113.586,77.9,73.426,81.346,26.877,72.781  c0,0-78.573,346.599,229.123,430.623C169.896,383.173,81.535,275.338,146.71,69.249z"/>
<path d="M256.027,512c-0.762,0-1.523-0.101-2.265-0.304c-71.957-19.65-129.161-55.183-170.024-105.613  c-32.662-40.31-54.9-90.059-66.097-147.865c-18.945-97.802,0.062-183.728,0.88-187.337c1.019-4.496,5.404-7.396,9.939-6.553  c24.465,4.501,48.76,5.843,72.211,3.99c4.727-0.364,8.872,3.16,9.246,7.892c0.375,4.732-3.159,8.872-7.892,9.246  c-22.249,1.758-45.182,0.819-68.283-2.793c-4.157,23.418-14.269,95.158,0.878,172.803c10.709,54.9,31.793,102.012,62.666,140.027  c38.11,46.926,91.505,80.223,158.742,98.993c41.852-11.686,78.613-29.111,109.286-51.811c3.815-2.825,9.198-2.022,12.023,1.796  c2.824,3.815,2.019,9.198-1.796,12.022c-32.945,24.38-72.393,42.954-117.248,55.202C257.551,511.899,256.79,512,256.027,512z   M396.759,436.128c-2.278,0-4.552-0.9-6.243-2.685c-3.264-3.447-3.116-8.888,0.331-12.152  c30.68-29.053,54.299-65.209,70.204-107.467c12.805-34.025,20.68-72.075,23.407-113.097c3.634-54.692-2.976-100.29-6.142-118.066  c-73.624,11.503-130.795-6.589-166.256-24.208c-27.964-13.895-46.867-29.403-56.023-37.82  c-14.906,13.749-55.603,46.291-119.111,59.776c-4.65,0.988-9.208-1.979-10.195-6.622s1.979-9.207,6.622-10.193  C207.85,47.773,249.276,3.242,249.685,2.794c1.629-1.78,3.93-2.794,6.343-2.794l0,0c2.413,0,4.714,1.014,6.343,2.794  c0.193,0.211,20.63,22.161,58.021,40.599c34.339,16.93,90.527,34.306,163.204,20.935c4.54-0.832,8.92,2.058,9.939,6.553  c0.527,2.328,12.866,57.841,8.112,130.488c-2.799,42.784-11.008,82.565-24.401,118.237c-16.832,44.835-41.922,83.246-74.577,114.167  C401.007,435.348,398.881,436.128,396.759,436.128z"/>
<path d="M236.446,263.3H66.654c-4.065,0-7.575-2.848-8.411-6.826l-0.277-1.309c-0.322-1.52-0.644-3.038-0.941-4.576  c-10.207-52.695-8.3-102.082-4.903-134.235c0.483-4.572,4.486-7.976,9.067-7.677c6.285,0.381,12.606,0.573,18.786,0.573  c68.278-0.003,120.338-23.054,151.991-42.391c2.652-1.622,5.976-1.684,8.686-0.162c2.712,1.521,4.391,4.387,4.391,7.497v180.51  C245.042,259.453,241.193,263.3,236.446,263.3z M73.669,246.109H227.85V89.07c-34.016,18.487-84.319,37.369-147.856,37.372  c-3.821,0-7.686-0.07-11.559-0.207C65.74,156.817,64.927,200.162,73.669,246.109z"/>
<path d="M445.404,263.3H275.603c-4.747,0-8.596-3.847-8.596-8.596V74.196c0-3.109,1.679-5.976,4.391-7.497  c2.711-1.522,6.033-1.46,8.686,0.162c28.128,17.186,58.774,29.339,91.087,36.123c4.646,0.975,7.622,5.532,6.646,10.179  c-0.975,4.647-5.531,7.622-10.179,6.646c-29.293-6.149-57.295-16.465-83.44-30.721V246.11h154.188  c8.668-45.583,7.858-89.003,5.154-119.87c-3.845,0.135-7.684,0.204-11.476,0.204c-10.234,0-20.578-0.501-30.747-1.487  c-4.725-0.457-8.184-4.66-7.726-9.384c0.457-4.725,4.653-8.189,9.385-7.726c9.619,0.932,19.406,1.406,29.087,1.406  c6.175,0,12.477-0.191,18.731-0.568c4.581-0.301,8.588,3.111,9.067,7.685c3.456,32.99,5.342,83.459-5.289,136.553  c-0.15,0.748-0.311,1.49-0.473,2.229l-0.286,1.324C452.978,260.452,449.469,263.3,445.404,263.3z"/>
<path d="M236.446,463.641c-1.006,0-2.018-0.177-2.988-0.536c-34.8-12.907-65.183-30.699-90.304-52.883  c-3.559-3.143-3.896-8.574-0.754-12.133c3.143-3.559,8.574-3.897,12.133-0.754c20.716,18.293,45.335,33.43,73.318,45.092V302.456  H89.606c9.839,25.316,22.813,47.996,38.657,67.549c0.775,0.957,1.576,1.893,2.375,2.833l0.816,0.959  c3.069,3.621,2.622,9.045-0.999,12.114c-3.621,3.073-9.046,2.622-12.114-0.998l-0.789-0.927c-0.889-1.045-1.78-2.091-2.644-3.158  c-19.46-24.016-34.842-52.342-45.719-84.192c-0.896-2.625-0.471-5.521,1.143-7.779c1.614-2.257,4.218-3.595,6.992-3.595h159.123  c4.747,0,8.596,3.848,8.596,8.596v161.185c0,2.814-1.378,5.45-3.687,7.055C239.895,463.117,238.178,463.641,236.446,463.641z"/>
<path d="M275.603,463.645c-1.732,0-3.449-0.524-4.91-1.54c-2.309-1.606-3.687-4.242-3.687-7.055V293.86  c0-4.748,3.849-8.596,8.596-8.596h159.115c2.774,0,5.378,1.339,6.992,3.596c1.614,2.257,2.039,5.153,1.143,7.779  c-11.04,32.323-26.696,60.991-46.533,85.209c-29.355,35.839-68.965,63.178-117.728,81.26  C277.621,463.468,276.609,463.645,275.603,463.645z M284.198,302.456v139.979c40.568-16.889,73.77-40.897,98.821-71.481  c16.183-19.758,29.413-42.758,39.416-68.498H284.198z"/>
<g>
</g>
<g>
</g>
<g>
</g>
<g>
</g>
<g>
</g>
<g>
</g>
<g>
</g>
<g>
</g>
<g>
</g>
<g>
</g>
<g>
</g>
<g>
</g>
<g>
</g>
<g>
</g>
<g>
</g>
</svg>
