<?xml version="1.0" encoding="iso-8859-1"?>
<!-- Generator: Adobe Illustrator 19.0.0, SVG Export Plug-In . SVG Version: 6.00 Build 0)  -->
<svg xmlns="http://www.w3.org/2000/svg" xmlns:xlink="http://www.w3.org/1999/xlink" version="1.1" id="Layer_1" x="0px" y="0px" viewBox="0 0 512 512" style="enable-background:new 0 0 512 512;" xml:space="preserve">
<path style="fill:#6AB2CC;" d="M16.595,280.443c0,122.822,99.567,222.391,222.391,222.391c70.265,0,132.908-32.596,173.662-83.481  v-48.886L16.595,231.557V280.443z"/>
<path style="fill:#7DD2F0;" d="M238.985,231.557l173.662-138.91C371.893,41.762,309.25,9.166,238.985,9.166  c-122.824,0-222.391,99.568-222.391,222.391s99.567,222.391,222.391,222.391c70.265,0,132.908-32.596,173.662-83.481  L238.985,231.557z"/>
<path style="fill:#E65A5B;" d="M334.973,264.555l128.346,102.662c17.721,0,32.087-45.963,32.087-102.662v-45.22H334.973  L334.973,264.555L334.973,264.555z"/>
<path style="fill:#FF6465;" d="M463.319,321.997L334.973,219.335l128.346-102.662c17.721,0,32.087,45.963,32.087,102.662  S481.039,321.997,463.319,321.997z"/>
<path d="M290.398,487.383c-4.913,1.22-7.909,6.19-6.689,11.103s6.188,7.906,11.103,6.689c48.891-12.13,93.248-40.576,124.9-80.094  c1.302-1.625,2.012-3.647,2.012-5.729v-48.886c0-0.013-0.004-0.027-0.004-0.04c-0.029-2.716-1.31-5.415-3.438-7.117L253.571,231.557  l164.713-131.75c1.899-1.519,3.116-3.731,3.385-6.149c0.268-2.417-0.435-4.841-1.955-6.74C375.473,31.68,309.568,0,238.897,0  c-50.431,0-98.369,15.931-138.632,46.071c-4.053,3.033-4.879,8.779-1.844,12.831c3.033,4.051,8.778,4.879,12.831,1.844  c37.066-27.748,81.205-42.414,127.645-42.414c62.012,0,120.042,26.493,160.624,73.007L233.173,224.399  c-2.175,1.739-3.44,4.374-3.44,7.158c0,2.784,1.266,5.419,3.44,7.158l166.332,133.046c-0.346,0.396-0.688,0.796-1.036,1.189  c-29.906,33.781-70.533,57.541-114.629,67.076c-0.67,0.144-1.339,0.286-2.009,0.424c-14.112,2.909-28.524,4.331-42.932,4.331  c-117.572,0-213.224-95.652-213.224-213.224c0-55.199,21.016-107.553,59.177-147.418c3.5-3.657,3.373-9.46-0.284-12.96  c-3.657-3.5-9.46-3.374-12.96,0.284C30.165,114.756,7.341,171.612,7.341,231.557v48.886C7.341,408.124,111.217,512,238.897,512  c5.711,0,11.679-0.232,17.737-0.692c5.048-0.383,8.83-4.785,8.448-9.832c-0.383-5.048-4.774-8.826-9.832-8.448  c-5.599,0.424-11.101,0.639-16.351,0.639c-97.22,0-179.451-65.394-205.007-154.514c0.357,0.677,0.724,1.348,1.087,2.021  c0.172,0.318,0.341,0.638,0.513,0.954c15.702,28.772,37.544,54.099,63.643,73.926c25.383,19.283,54.673,33.185,85.658,40.674  c17.682,4.274,35.916,6.386,54.105,6.386c24.71,0,49.732-3.998,73.179-11.787c21.224-7.051,41.2-17.223,59.561-29.969  c10.46-7.261,20.239-15.498,29.318-24.42c0.585-0.574,1.172-1.148,1.751-1.729c0.227-0.227,0.46-0.447,0.686-0.676v21.563  C374.387,451.207,334.385,476.469,290.398,487.383z"/>
<path d="M463.231,107.507c-2.081,0-4.1,0.709-5.726,2.008l-36.328,29.057c-3.954,3.162-4.595,8.93-1.432,12.884  c3.162,3.954,8.932,4.594,12.884,1.432l32.577-26.058c2.691,2.102,7.408,8.064,11.965,22.645c5.792,18.529,8.98,43.338,8.98,69.859  c0,3.314-0.05,6.603-0.148,9.855c-0.689,22.769-3.765,43.789-8.833,60.002c-4.557,14.582-9.274,20.543-11.965,22.645  l-115.647-92.503l55.002-43.995c3.954-3.162,4.595-8.93,1.432-12.884c-3.163-3.954-8.932-4.595-12.884-1.432  c-6.93,5.544-13.861,11.086-20.79,16.63c-11.339,9.07-22.678,18.139-34.018,27.209c-4.681,3.743-12.585,7.522-12.585,14.473v45.22  c0,2.785,1.266,5.419,3.44,7.158l128.346,102.662c1.625,1.299,3.644,2.008,5.726,2.008c16.554,0,26.232-19.849,31.438-36.501  c12.129-38.806,9.815-80.402,9.815-120.547c0-28.324-3.486-55.075-9.815-75.327C489.464,127.357,479.785,107.507,463.231,107.507z   M477.171,334.414c-4.557,14.582-9.274,20.543-11.965,22.645l-121.155-96.91v-21.745l113.456,90.75  c1.625,1.299,3.644,2.008,5.726,2.008c2.414,0,4.806-0.442,7.065-1.292c0.043-0.016,0.087-0.032,0.13-0.048  c3.577-1.371,6.858-3.764,9.849-7.012C479.343,326.896,478.308,330.777,477.171,334.414z"/>
<g>
</g>
<g>
</g>
<g>
</g>
<g>
</g>
<g>
</g>
<g>
</g>
<g>
</g>
<g>
</g>
<g>
</g>
<g>
</g>
<g>
</g>
<g>
</g>
<g>
</g>
<g>
</g>
<g>
</g>
</svg>
