<?xml version="1.0" encoding="iso-8859-1"?>
<!-- Generator: Adobe Illustrator 19.0.0, SVG Export Plug-In . SVG Version: 6.00 Build 0)  -->
<svg xmlns="http://www.w3.org/2000/svg" xmlns:xlink="http://www.w3.org/1999/xlink" version="1.1" id="Layer_1" x="0px" y="0px" viewBox="0 0 512 512" style="enable-background:new 0 0 512 512;" xml:space="preserve">
<path style="fill:#7DD2F0;" d="M503.672,255.999C503.672,119.215,392.786,8.329,256,8.329S8.33,119.215,8.33,255.999  S119.215,503.67,256,503.67S503.672,392.785,503.672,255.999z"/>
<path style="opacity:0.1;enable-background:new    ;" d="M74.961,255.999c0-125.486,93.327-229.159,214.355-245.433  C278.418,9.101,267.3,8.329,256,8.329C119.215,8.329,8.33,119.215,8.33,255.999S119.215,503.67,256,503.67  c11.3,0,22.418-0.772,33.316-2.238C168.288,485.159,74.961,381.486,74.961,255.999z"/>
<polygon style="fill:#FFFFFF;" points="214.539,386.8 214.539,288.982 157.202,288.982 256,119.403 354.799,288.982   297.463,288.982 297.463,386.8 "/>
<path d="M256,512c-48.935,0-96.51-13.859-137.579-40.081c-3.877-2.475-5.013-7.625-2.538-11.502  c2.475-3.876,7.625-5.015,11.502-2.538c38.386,24.508,82.861,37.462,128.614,37.462c63.931,0,124.035-24.896,169.24-70.102  c45.206-45.205,70.102-105.309,70.102-169.24c0-69.771-30.363-135.918-83.305-181.481c-3.486-3.001-3.88-8.26-0.88-11.746  s8.259-3.88,11.746-0.88c56.621,48.731,89.096,119.48,89.096,194.107c0,68.379-26.629,132.668-74.98,181.02  C388.668,485.371,324.381,512,256,512z M95.807,453.205c-1.905,0-3.819-0.65-5.386-1.979  c-57.463-48.784-90.42-119.942-90.42-195.227c0-68.38,26.629-132.668,74.98-181.02C123.333,26.629,187.621,0,256,0  c49.539,0,97.614,14.184,139.026,41.019c3.86,2.501,4.962,7.658,2.46,11.518c-2.501,3.861-7.659,4.962-11.519,2.461  C347.26,29.915,302.318,16.658,256,16.658c-63.931,0-124.035,24.896-169.24,70.102c-45.206,45.205-70.102,105.309-70.102,169.24  c0,70.385,30.815,136.913,84.543,182.526c3.507,2.977,3.936,8.233,0.958,11.739C100.513,452.207,98.167,453.205,95.807,453.205z"/>
<path d="M297.463,395.129H214.54c-4.6,0-8.329-3.728-8.329-8.329v-89.489h-49.008c-2.982,0-5.736-1.595-7.221-4.179  c-1.486-2.585-1.477-5.767,0.024-8.343l41.359-70.99c2.315-3.976,7.415-5.318,11.39-3.004c3.975,2.315,5.319,7.415,3.004,11.39  l-34.064,58.468h42.845c4.6,0,8.329,3.728,8.329,8.329v89.49h66.265v-89.49c0-4.601,3.729-8.329,8.329-8.329h42.845l-84.307-144.706  l-33.605,57.68c-2.315,3.975-7.417,5.317-11.39,3.004c-3.975-2.315-5.319-7.415-3.004-11.39l40.802-70.033  c1.493-2.562,4.233-4.137,7.196-4.137c2.963,0,5.705,1.575,7.196,4.137l98.799,169.579c1.501,2.575,1.51,5.758,0.024,8.343  c-1.486,2.584-4.24,4.179-7.221,4.179h-49.007v89.489C305.792,391.4,302.062,395.129,297.463,395.129z"/>
<g>
</g>
<g>
</g>
<g>
</g>
<g>
</g>
<g>
</g>
<g>
</g>
<g>
</g>
<g>
</g>
<g>
</g>
<g>
</g>
<g>
</g>
<g>
</g>
<g>
</g>
<g>
</g>
<g>
</g>
</svg>
