<?xml version="1.0" encoding="iso-8859-1"?>
<!-- Generator: Adobe Illustrator 19.0.0, SVG Export Plug-In . SVG Version: 6.00 Build 0)  -->
<svg xmlns="http://www.w3.org/2000/svg" xmlns:xlink="http://www.w3.org/1999/xlink" version="1.1" id="Layer_1" x="0px" y="0px" viewBox="0 0 512.001 512.001" style="enable-background:new 0 0 512.001 512.001;" xml:space="preserve">
<path style="fill:#6AB2CC;" d="M233.846,130.919v210.869c-21.362-3.276-45.921-1.638-70.793,5.815  c-62.686,18.783-103.534,67.273-91.24,108.303s73.078,59.065,135.764,40.282c62.686-18.783,103.535-67.273,91.241-108.303V168.663  c0.566-0.204,1.343-0.423,2.378-0.625c27.695-5.383,56.782,7.59,74.646,28.628c18.705,22.028,27.627,49.23,34.3,76.852l0.237,0.996  c1.404,5.754,6.219,10.33,12.444,11.137c8.079,1.048,15.479-4.649,16.532-12.728c4.878-37.417,5.03-75.163-8.577-110.945  c-12.531-32.95-35.562-61.001-65.289-79.934c-18.344-11.683-39.244-20.798-60.778-24.439c-0.742-0.117-1.398-0.22-1.964-0.309  c-0.856-0.087-1.575-0.16-2.155-0.219c-0.299-0.027-0.563-0.049-0.789-0.069c-0.092-0.017-0.169-0.03-0.23-0.041  c-0.109-0.021-0.164-0.032-0.164-0.032c-0.195-0.038-0.396-0.066-0.593-0.102V40.864c0-17.942-14.544-32.485-32.485-32.485  s-32.485,14.544-32.485,32.485L233.846,130.919L233.846,130.919z"/>
<path d="M370.27,75.136c-18.816-12.019-39.001-20.1-63.048-25.192v-9.089C307.222,18.328,288.894,0,266.366,0  c-22.529,0-40.855,18.328-40.855,40.855v36.566c0,4.623,3.748,8.37,8.37,8.37c4.623,0,8.37-3.748,8.37-8.37V40.855  c0-13.298,10.818-24.115,24.115-24.115c13.297,0,24.115,10.818,24.115,24.115v15.97c0,4.041,2.887,7.505,6.863,8.233  c24.914,4.561,45.224,12.246,63.914,24.185c28.262,18.053,50.263,45.144,61.95,76.281c11,29.307,13.504,63.086,7.88,106.306  c-0.454,3.491-3.657,5.962-7.155,5.511c-2.602-0.338-4.768-2.276-5.376-4.767l-0.244-1.031  c-6.388-26.442-15.722-56.724-36.507-80.836c-21.018-24.38-53.27-36.51-82.17-30.896c-1.354,0.263-2.574,0.589-3.627,0.969  c-3.318,1.198-5.529,4.347-5.529,7.874v34.882c0,4.623,3.748,8.37,8.37,8.37c4.623,0,8.37-3.748,8.37-8.37v-27.968  c21.953-2.517,45.819,7.408,61.904,26.069c18.408,21.355,26.698,48.107,32.906,73.8l0.249,1.05  c2.25,9.219,10.086,16.233,19.5,17.454c1.004,0.131,2.002,0.194,2.99,0.194c11.436,0,21.406-8.51,22.919-20.146  c5.991-46.043,3.192-82.378-8.809-114.349C425.93,125.138,401.564,95.126,370.27,75.136z"/>
<path d="M272.869,459.802c1.604,1.46,3.621,2.18,5.632,2.18c2.275,0,4.541-0.922,6.193-2.737  c20.807-22.862,28.972-49.226,22.529-72.549V237.019c0-4.623-3.748-8.37-8.37-8.37s-8.37,3.748-8.37,8.37v150.856  c0,0.814,0.118,1.624,0.352,2.403c5.35,17.857-1.4,38.887-18.521,57.7C269.2,451.397,269.45,456.69,272.869,459.802z"/>
<path d="M165.49,355.611c22.891-6.859,46.102-8.783,67.122-5.558c2.414,0.372,4.868-0.333,6.72-1.923  c1.853-1.59,2.919-3.91,2.919-6.352V110.905c0-4.623-3.748-8.37-8.37-8.37c-4.623,0-8.37,3.748-8.37,8.37v221.454  c-20.777-1.778-42.987,0.674-64.825,7.218c-31.859,9.547-59.466,26.747-77.736,48.435c-19.112,22.688-25.903,47.65-19.119,70.289  c6.785,22.639,26.183,39.755,54.622,48.194c12.393,3.676,25.891,5.509,39.934,5.508c16.761,0,34.293-2.609,51.629-7.805  c17.234-5.164,33.174-12.523,47.377-21.875c3.86-2.542,4.93-7.733,2.388-11.595c-2.542-3.86-7.733-4.93-11.594-2.388  c-12.842,8.455-27.301,15.124-42.976,19.82c-28.775,8.624-57.895,9.434-81.994,2.283c-22.845-6.778-38.239-19.9-43.348-36.949  c-5.109-17.049,0.533-36.475,15.886-54.698C111.947,379.571,136.714,364.234,165.49,355.611z"/>
<g>
</g>
<g>
</g>
<g>
</g>
<g>
</g>
<g>
</g>
<g>
</g>
<g>
</g>
<g>
</g>
<g>
</g>
<g>
</g>
<g>
</g>
<g>
</g>
<g>
</g>
<g>
</g>
<g>
</g>
</svg>
