<?xml version="1.0" encoding="iso-8859-1"?>
<!-- Generator: Adobe Illustrator 19.0.0, SVG Export Plug-In . SVG Version: 6.00 Build 0)  -->
<svg xmlns="http://www.w3.org/2000/svg" xmlns:xlink="http://www.w3.org/1999/xlink" version="1.1" id="Layer_1" x="0px" y="0px" viewBox="0 0 511.999 511.999" style="enable-background:new 0 0 511.999 511.999;" xml:space="preserve">
<path style="fill:#D9D9D9;" d="M256,148.495L8.633,211.181v218.561c0,24.019,19.471,43.49,43.49,43.49h407.753  c24.019,0,43.49-19.471,43.49-43.49V211.181L256,148.495z"/>
<path style="fill:#FF6465;" d="M468.368,85.808H43.632c-19.33,0-34.999,15.669-34.999,34.999v90.375h494.733v-90.375  C503.366,101.477,487.697,85.808,468.368,85.808z"/>
<path style="opacity:0.1;enable-background:new    ;" d="M66.185,429.742V120.807c0-19.33,15.669-34.999,34.999-34.999H43.632  c-19.33,0-34.999,15.669-34.999,34.999v308.936c0,24.019,19.471,43.49,43.49,43.49h57.552  C85.656,473.232,66.185,453.761,66.185,429.742z"/>
<g>
	<path style="fill:#515262;" d="M97.732,134.522c-11.125,0-20.143-9.018-20.143-20.143V58.91c0-11.125,9.018-20.143,20.143-20.143   s20.143,9.018,20.143,20.143v55.469C117.875,125.504,108.857,134.522,97.732,134.522z"/>
	<path style="fill:#515262;" d="M203.244,134.522c-11.125,0-20.143-9.018-20.143-20.143V58.91c0-11.125,9.018-20.143,20.143-20.143   c11.125,0,20.143,9.018,20.143,20.143v55.469C223.387,125.504,214.369,134.522,203.244,134.522z"/>
	<path style="fill:#515262;" d="M308.756,134.522c-11.125,0-20.143-9.018-20.143-20.143V58.91c0-11.125,9.018-20.143,20.143-20.143   c11.125,0,20.143,9.018,20.143,20.143v55.469C328.899,125.504,319.881,134.522,308.756,134.522z"/>
	<path style="fill:#515262;" d="M414.268,134.522c-11.125,0-20.143-9.018-20.143-20.143V58.91c0-11.125,9.018-20.143,20.143-20.143   c11.125,0,20.143,9.018,20.143,20.143v55.469C434.411,125.504,425.393,134.522,414.268,134.522z"/>
	<path style="fill:#515262;" d="M183.426,440.908c21.906,0,40.681-13.655,52.629-31.578c12.232-18.207,19.059-42.103,19.059-67.99   c0-26.173-6.828-49.784-19.059-67.991c-11.948-18.206-30.724-31.578-52.629-31.578c-22.473,0-40.965,13.371-52.913,31.578   c-12.516,18.206-19.06,41.819-19.345,67.991c0.284,25.887,6.828,49.783,19.345,67.99   C142.462,427.255,160.952,440.908,183.426,440.908z M156.401,290.704c8.535-11.948,18.207-17.638,27.025-17.353   c8.819-0.285,18.207,5.404,26.457,17.353c7.966,12.233,13.656,30.155,13.656,50.638c0,20.196-5.69,38.404-13.656,50.353   c-8.25,12.232-17.637,17.638-26.457,17.638c-8.818,0-18.49-5.405-27.025-17.638c-7.965-11.948-13.655-30.155-13.655-50.353   C142.746,320.858,148.436,302.937,156.401,290.704z"/>
	<path style="fill:#515262;" d="M354.973,440.908c8.534,0,15.931-6.828,15.931-15.646V257.419c0-0.284,0-0.569,0-0.853   c0-13.411-12.561-17.606-21.62-13.939c0,0-2.456,1.319-2.56,1.423l-34.991,20.766c-7.398,4.268-9.958,14.225-5.121,21.337   c2.844,5.12,7.965,7.965,13.369,7.965c2.56,0,5.405-0.569,7.966-2.277l11.379-6.543v139.964   C339.327,434.082,346.154,440.908,354.973,440.908z"/>
</g>
<path d="M183.426,449.541c-23.167,0-45.055-12.889-60.062-35.371c-13.316-19.397-20.519-44.546-20.827-72.736l-0.001-0.094  l0.001-0.093c0.305-28.174,7.501-53.313,20.81-72.711c14.794-22.496,36.688-35.397,60.08-35.397  c23.238,0,45.052,12.93,59.848,35.473c13.376,19.91,20.475,45.085,20.475,72.728c0,27.246-7.29,53.102-20.527,72.805  C228.231,436.63,206.43,449.541,183.426,449.541z M119.803,341.339c0.287,24.735,6.449,46.554,17.824,63.1l0.069,0.102  c11.75,17.625,28.418,27.733,45.73,27.733c17.132,0,33.696-10.109,45.447-27.733c11.362-16.911,17.609-39.349,17.609-63.202  c0-24.2-6.083-46.047-17.593-63.176c-11.597-17.67-28.149-27.759-45.464-27.759c-17.495,0-34.15,10.09-45.695,27.682l-0.104,0.154  C126.249,294.792,120.087,316.609,119.803,341.339z M183.426,417.965c-12.397,0-24.509-7.575-34.106-21.331l-0.102-0.151  c-9.6-14.4-15.105-34.498-15.105-55.141c0-20.483,5.487-40.656,15.053-55.348l0.21-0.307c9.862-13.808,21.952-21.221,34.051-20.972  c12.083-0.249,23.979,7.207,33.56,21.084l0.13,0.195c9.568,14.691,15.055,34.864,15.055,55.348c0,20.646-5.505,40.744-15.106,55.142  C207.715,410.348,195.777,417.965,183.426,417.965z M163.534,386.831c6.261,8.945,13.322,13.868,19.892,13.868  c6.43,0,13.284-4.913,19.3-13.832c7.618-11.425,12.18-28.459,12.18-45.526c0-17.179-4.443-33.875-12.194-45.828  c-6.098-8.796-13.018-13.716-19.006-13.534l-0.28,0.009l-0.28-0.009c-6.128-0.191-13.26,4.754-19.613,13.592  c-7.727,11.951-12.156,28.621-12.156,45.771C151.379,358.37,155.922,375.368,163.534,386.831z"/>
<path d="M354.973,449.541c-13.615,0-24.279-10.666-24.279-24.28V300.227c-3.209,1.656-6.867,2.523-10.713,2.523  c-8.525,0-16.431-4.616-20.727-12.071c-3.419-5.221-4.564-11.742-3.141-17.954c1.487-6.492,5.607-12.101,11.304-15.387  l34.689-20.589c0.684-0.437,1.602-0.93,3.095-1.73l0.84-0.395c7.831-3.171,16.857-2.335,23.554,2.179  c6.409,4.32,9.938,11.338,9.938,19.762v168.696C379.536,438.649,368.517,449.541,354.973,449.541z M347.96,270.378v154.884  c0,4.064,2.95,7.014,7.013,7.014c3.956,0,7.298-3.213,7.298-7.014V256.566c0-3.88-1.748-5.059-2.323-5.446  c-1.818-1.224-4.673-1.466-7.069-0.625c-0.372,0.2-0.884,0.478-1.26,0.687l-35.481,21.057c-1.645,0.951-2.776,2.513-3.194,4.341  c-0.226,0.986-0.422,2.912,0.807,4.719l0.409,0.663c1.244,2.239,3.366,3.525,5.823,3.525c1.286,0,2.354-0.277,3.176-0.825  l0.488-0.303L347.96,270.378z"/>
<path d="M468.368,77.174h-25.323V58.91c0-15.867-12.909-28.776-28.776-28.776c-15.867,0-28.776,12.909-28.776,28.776v18.264h-47.961  V58.91c0-15.867-12.909-28.776-28.776-28.776c-15.867,0-28.776,12.909-28.776,28.776v18.264h-47.96V58.91  c0-15.867-12.909-28.776-28.776-28.776s-28.776,12.909-28.776,28.776v18.264h-47.96V58.91c0-15.867-12.909-28.776-28.776-28.776  S68.956,43.043,68.956,58.91v18.264H43.632C19.572,77.174,0,96.747,0,120.807v308.936c0,28.742,23.382,52.123,52.123,52.123h29.485  c4.768,0,8.633-3.864,8.633-8.633s-3.865-8.633-8.633-8.633H52.123c-19.22-0.001-34.857-15.638-34.857-34.858V219.813h388.781  c4.768,0,8.633-3.864,8.633-8.633s-3.865-8.633-8.633-8.633H17.266v-81.742c0-14.539,11.827-26.366,26.366-26.366h25.323v19.94  c0,4.463,1.021,8.692,2.842,12.466c4.654,9.642,14.53,16.312,25.934,16.312c15.867,0,28.776-12.909,28.776-28.776V94.439h47.96  v19.94v0.001c0,15.867,12.909,28.776,28.776,28.776s28.776-12.909,28.776-28.776v-0.001v-19.94h47.96v19.94v0.001  c0,15.867,12.909,28.776,28.776,28.776s28.776-12.909,28.776-28.776v-0.001v-19.94h47.961v19.94v0.001  c0,15.867,12.909,28.776,28.776,28.776c15.867,0,28.776-12.909,28.776-28.776v-0.001v-19.94h25.323  c14.538,0,26.366,11.827,26.366,26.366v81.742h-54.156c-4.768,0-8.633,3.864-8.633,8.633s3.865,8.633,8.633,8.633h54.156v209.928  c0,19.22-15.637,34.857-34.857,34.857H116.14c-4.768,0-8.633,3.864-8.633,8.633s3.865,8.633,8.633,8.633h343.736  c28.741,0,52.123-23.381,52.123-52.123V120.807C512,96.747,492.426,77.174,468.368,77.174z M86.222,58.91  c0-6.347,5.164-11.51,11.51-11.51s11.51,5.164,11.51,11.51v55.468c0,6.347-5.164,11.51-11.51,11.51  c-4.364,0-8.168-2.441-10.119-6.028c-0.886-1.631-1.39-3.498-1.39-5.481V58.91H86.222z M191.734,58.91  c0-6.347,5.164-11.51,11.51-11.51c6.347,0,11.51,5.164,11.51,11.51v55.469c0,6.347-5.164,11.51-11.51,11.51  c-6.347,0-11.51-5.164-11.51-11.51V58.91z M297.246,58.91c0-6.347,5.164-11.51,11.51-11.51c6.347,0,11.51,5.164,11.51,11.51v55.469  c0,6.347-5.164,11.51-11.51,11.51c-6.347,0-11.51-5.164-11.51-11.51V58.91z M402.757,58.91c0-6.347,5.164-11.51,11.51-11.51  s11.51,5.164,11.51,11.51v55.469c0,6.347-5.164,11.51-11.51,11.51s-11.51-5.164-11.51-11.51V58.91z"/>
<g>
</g>
<g>
</g>
<g>
</g>
<g>
</g>
<g>
</g>
<g>
</g>
<g>
</g>
<g>
</g>
<g>
</g>
<g>
</g>
<g>
</g>
<g>
</g>
<g>
</g>
<g>
</g>
<g>
</g>
</svg>
