<?xml version="1.0" encoding="iso-8859-1"?>
<!-- Generator: Adobe Illustrator 19.0.0, SVG Export Plug-In . SVG Version: 6.00 Build 0)  -->
<svg xmlns="http://www.w3.org/2000/svg" xmlns:xlink="http://www.w3.org/1999/xlink" version="1.1" id="Layer_1" x="0px" y="0px" viewBox="0 0 511.999 511.999" style="enable-background:new 0 0 511.999 511.999;" xml:space="preserve">
<path style="fill:#806F71;" d="M340.739,180.882H171.261c-12.375,0-22.407-10.032-22.407-22.407V82.889  c0-24.414,19.862-44.274,44.274-44.274h125.742c24.414,0,44.274,19.862,44.274,44.274v75.586  C363.146,170.85,353.114,180.882,340.739,180.882z M193.668,136.068h124.662V83.429H193.668V136.068z"/>
<path style="opacity:0.1;enable-background:new    ;" d="M318.332,96.541v39.527H193.668V96.541h-44.814v61.934  c0,12.375,10.032,22.407,22.407,22.407h169.477c12.375,0,22.407-10.032,22.407-22.407V96.541H318.332z"/>
<path style="fill:#5B4F51;" d="M474.725,130.151H37.275c-15.946,0-28.873,12.927-28.873,28.873v285.488  c0,15.946,12.927,28.873,28.873,28.873h437.449c15.946,0,28.873-12.927,28.873-28.873V159.024  C503.597,143.078,490.671,130.151,474.725,130.151z"/>
<path style="opacity:0.1;enable-background:new    ;" d="M64.42,444.512V159.025c0-15.946,12.927-28.873,28.873-28.873H37.275  c-15.946,0-28.873,12.927-28.873,28.873v285.488c0,15.946,12.927,28.873,28.873,28.873h56.018  C77.347,473.385,64.42,460.458,64.42,444.512z"/>
<path d="M474.725,121.748H371.548V82.889c0-29.046-23.63-52.677-52.677-52.677h-70.401c-4.64,0-8.403,3.762-8.403,8.403  s3.762,8.403,8.403,8.403h70.399c19.78,0,35.871,16.092,35.871,35.871v38.859h-28.009V83.429c0-4.64-3.762-8.403-8.403-8.403  H193.668c-4.64,0-8.403,3.762-8.403,8.403v38.319h-28.009V82.889c0-19.78,16.092-35.871,35.871-35.871h21.733  c4.64,0,8.403-3.762,8.403-8.403s-3.762-8.403-8.403-8.403h-21.733c-29.046,0-52.677,23.63-52.677,52.677v38.859H37.275  C16.721,121.748,0,138.47,0,159.024v42.691c0,4.64,3.762,8.403,8.403,8.403s8.403-3.762,8.403-8.403v-42.691  c0-11.288,9.184-20.47,20.47-20.47h437.449c11.288,0,20.47,9.184,20.47,20.47v285.488c0,11.288-9.184,20.47-20.47,20.47H435.85  c-4.64,0-8.403,3.762-8.403,8.403c0,4.641,3.762,8.403,8.403,8.403h38.874c20.554,0,37.275-16.721,37.275-37.275V159.024  C512,138.47,495.279,121.748,474.725,121.748z M309.929,121.748H202.072V91.832h107.857V121.748z"/>
<path d="M410.643,473.385c0-4.64-3.762-8.403-8.403-8.403H37.275c-11.288,0-20.47-9.182-20.47-20.47V235.325  c0-4.64-3.762-8.403-8.403-8.403S0,230.685,0,235.325v209.186c0,20.554,16.721,37.275,37.275,37.275h364.964  C406.881,481.788,410.643,478.025,410.643,473.385z"/>
<g>
</g>
<g>
</g>
<g>
</g>
<g>
</g>
<g>
</g>
<g>
</g>
<g>
</g>
<g>
</g>
<g>
</g>
<g>
</g>
<g>
</g>
<g>
</g>
<g>
</g>
<g>
</g>
<g>
</g>
</svg>
