<?xml version="1.0" encoding="iso-8859-1"?>
<!-- Generator: Adobe Illustrator 19.0.0, SVG Export Plug-In . SVG Version: 6.00 Build 0)  -->
<svg xmlns="http://www.w3.org/2000/svg" xmlns:xlink="http://www.w3.org/1999/xlink" version="1.1" id="Layer_1" x="0px" y="0px" viewBox="0 0 512 512" style="enable-background:new 0 0 512 512;" xml:space="preserve">
<g>
	<polygon style="fill:#7DD2F0;" points="171.306,205.131 171.306,306.868 114.861,255.999  "/>
	<polygon style="fill:#7DD2F0;" points="340.694,205.131 340.694,306.868 397.139,255.999  "/>
</g>
<g>
	<path style="fill:#515262;" d="M201.507,377.178H61.846V134.822h139.661V96.5H42.686c-10.582,0-19.16,8.579-19.16,19.161v280.676   c0,10.582,8.578,19.161,19.16,19.161h158.821L201.507,377.178L201.507,377.178z"/>
	<path style="fill:#515262;" d="M469.314,96.5H310.493v38.321h139.661v242.357H310.493v38.319h158.821   c10.582,0,19.16-8.579,19.16-19.161V115.661C488.473,105.079,479.896,96.5,469.314,96.5z"/>
	<rect x="236.569" y="8.285" style="fill:#515262;" width="38.852" height="100.825"/>
	<rect x="236.569" y="402.88" style="fill:#515262;" width="38.852" height="100.836"/>
	<rect x="236.569" y="194.469" style="fill:#515262;" width="38.852" height="123.073"/>
</g>
<path d="M171.307,315.153c-2.011,0-3.996-0.731-5.548-2.131l-56.445-50.869c-1.743-1.571-2.739-3.808-2.739-6.154  c0-2.346,0.995-4.583,2.739-6.154l56.445-50.87c2.431-2.192,5.924-2.747,8.915-1.415c2.99,1.331,4.917,4.297,4.917,7.57v101.738  c0,3.273-1.927,6.238-4.917,7.57C173.593,314.919,172.446,315.153,171.307,315.153z M127.237,255.999l35.784,32.248v-64.498  L127.237,255.999z"/>
<path d="M340.693,315.153c-1.139,0-2.286-0.234-3.366-0.715c-2.99-1.331-4.917-4.297-4.917-7.57V205.13  c0-3.273,1.927-6.238,4.917-7.57c2.99-1.33,6.483-0.775,8.915,1.415l56.445,50.87c1.743,1.571,2.739,3.808,2.739,6.154  c0,2.346-0.995,4.583-2.739,6.154l-56.445,50.869C344.688,314.422,342.703,315.153,340.693,315.153z M348.979,223.75v64.498  l35.784-32.248L348.979,223.75z"/>
<path d="M201.507,423.783H42.686c-15.133,0-27.445-12.313-27.445-27.446V115.661c0-15.133,12.312-27.446,27.445-27.446h158.822  c4.576,0,8.285,3.708,8.285,8.285v38.321c0,4.577-3.71,8.285-8.285,8.285H70.131v225.786h131.376c4.576,0,8.285,3.708,8.285,8.285  v38.319C209.793,420.074,206.083,423.783,201.507,423.783z M42.686,104.785c-5.996,0-10.875,4.878-10.875,10.876v280.676  c0,5.997,4.878,10.876,10.875,10.876h150.537v-21.749H61.846c-4.576,0-8.285-3.708-8.285-8.285V134.822  c0-4.577,3.71-8.285,8.285-8.285h131.376v-21.751H42.686z"/>
<path d="M469.314,423.783H310.493c-4.576,0-8.285-3.708-8.285-8.285v-38.319c0-4.577,3.71-8.285,8.285-8.285h131.376V143.107  H310.493c-4.576,0-8.285-3.708-8.285-8.285V96.5c0-4.577,3.71-8.285,8.285-8.285h158.821c15.133,0,27.445,12.313,27.445,27.446  v280.676C496.759,411.471,484.447,423.783,469.314,423.783z M318.778,407.213h150.536c5.996,0,10.875-4.878,10.875-10.876V115.661  c0-5.997-4.878-10.876-10.875-10.876H318.778v21.75h131.376c4.576,0,8.285,3.708,8.285,8.285v242.357  c0,4.577-3.71,8.285-8.285,8.285H318.778V407.213z"/>
<path d="M275.426,117.4h-38.852c-4.576,0-8.285-3.708-8.285-8.285V8.285c0-4.577,3.71-8.285,8.285-8.285h38.852  c4.576,0,8.285,3.708,8.285,8.285v100.829C283.712,113.691,280.002,117.4,275.426,117.4z M244.859,100.829h22.282V16.57h-22.282  V100.829z"/>
<path d="M275.426,512h-38.852c-4.576,0-8.285-3.708-8.285-8.285v-100.83c0-4.577,3.71-8.285,8.285-8.285h38.852  c4.576,0,8.285,3.708,8.285,8.285v100.83C283.712,508.29,280.002,512,275.426,512z M244.859,495.43h22.282v-84.26h-22.282V495.43z"/>
<path d="M275.426,325.818h-38.852c-4.576,0-8.285-3.708-8.285-8.285V194.465c0-4.577,3.71-8.285,8.285-8.285h38.852  c4.576,0,8.285,3.708,8.285,8.285v123.068C283.712,322.11,280.002,325.818,275.426,325.818z M244.859,309.248h22.282V202.75h-22.282  V309.248z"/>
<g>
</g>
<g>
</g>
<g>
</g>
<g>
</g>
<g>
</g>
<g>
</g>
<g>
</g>
<g>
</g>
<g>
</g>
<g>
</g>
<g>
</g>
<g>
</g>
<g>
</g>
<g>
</g>
<g>
</g>
</svg>
