<?xml version="1.0" encoding="iso-8859-1"?>
<!-- Generator: Adobe Illustrator 19.0.0, SVG Export Plug-In . SVG Version: 6.00 Build 0)  -->
<svg xmlns="http://www.w3.org/2000/svg" xmlns:xlink="http://www.w3.org/1999/xlink" version="1.1" id="Layer_1" x="0px" y="0px" viewBox="0 0 512.001 512.001" style="enable-background:new 0 0 512.001 512.001;" xml:space="preserve">
<path style="fill:#7DD2F0;" d="M483.554,85.855H28.447c-11.289,0-20.44,9.151-20.44,20.438v299.413  c0,11.289,9.151,20.44,20.44,20.44h455.107c11.289,0,20.44-9.151,20.44-20.44V106.293C503.992,95.006,494.841,85.855,483.554,85.855  z"/>
<path style="fill:#FFFFFF;" d="M48.886,126.733h186.391v258.534H48.886V126.733z M463.114,385.267H276.723V126.733h186.391V385.267z  "/>
<g>
	<polygon style="fill:#515262;" points="113.96,339.478 113.96,172.523 206.587,256.001  "/>
	<polygon style="fill:#515262;" points="398.041,339.478 398.041,172.523 305.412,256.001  "/>
</g>
<path style="opacity:0.1;enable-background:new    ;" d="M82.745,405.707V106.293c0-11.289,9.151-20.44,20.44-20.44H28.447  c-11.289,0.001-20.44,9.152-20.44,20.44v299.413c0,11.289,9.151,20.44,20.44,20.44h74.737  C91.896,426.145,82.745,416.995,82.745,405.707z"/>
<path d="M40.878,126.733v258.534c0,4.422,3.585,8.008,8.008,8.008h186.391c4.422,0,8.008-3.585,8.008-8.008V126.733  c0-4.422-3.585-8.008-8.008-8.008H48.886C44.463,118.725,40.878,122.311,40.878,126.733z M56.893,134.74h170.376v242.519H56.893  V134.74z"/>
<path d="M483.553,77.847H132.589c-4.422,0-8.008,3.585-8.008,8.008c0,4.422,3.585,8.008,8.008,8.008h350.964  c6.856,0,12.433,5.576,12.433,12.432v299.413c0,6.854-5.578,12.432-12.433,12.432h-72.315c-4.422,0-8.008,3.585-8.008,8.008  s3.585,8.008,8.008,8.008h72.315c15.686,0,28.448-12.761,28.448-28.447V106.293C512,90.608,499.239,77.847,483.553,77.847z"/>
<path d="M379.207,418.139H28.447c-6.854,0-12.432-5.576-12.432-12.432V106.293c0-6.854,5.576-12.432,12.432-12.432h72.112  c4.422,0,8.008-3.585,8.008-8.008c0-4.422-3.585-8.008-8.008-8.008H28.447C12.761,77.847,0,90.608,0,106.293v299.413  c0,15.685,12.761,28.447,28.447,28.447h350.761c4.422,0,8.008-3.585,8.008-8.008S383.629,418.139,379.207,418.139z"/>
<path d="M463.114,393.275c4.422,0,8.008-3.585,8.008-8.008V126.733c0-4.422-3.585-8.008-8.008-8.008H276.723  c-4.422,0-8.008,3.585-8.008,8.008v258.534c0,4.422,3.585,8.008,8.008,8.008H463.114z M284.731,134.74h170.376v242.519H284.731  V134.74z"/>
<path d="M119.32,166.574c-2.349-2.117-5.725-2.653-8.616-1.368c-2.89,1.285-4.752,4.152-4.752,7.316v166.955  c0,3.164,1.862,6.03,4.752,7.316c1.045,0.466,2.153,0.692,3.253,0.692c1.943,0,3.863-0.708,5.362-2.06l92.628-83.477  c1.685-1.518,2.647-3.68,2.647-5.948s-0.961-4.43-2.647-5.948L119.32,166.574z M121.968,321.481V190.519l72.658,65.482  L121.968,321.481z"/>
<path d="M401.295,165.208c-2.89-1.287-6.266-0.751-8.616,1.368l-92.627,83.477c-1.685,1.518-2.647,3.68-2.647,5.948  s0.962,4.43,2.647,5.948l92.627,83.477c1.5,1.353,3.419,2.06,5.362,2.06c1.101,0,2.209-0.226,3.254-0.692  c2.89-1.285,4.752-4.152,4.752-7.316V172.523C406.047,169.36,404.185,166.493,401.295,165.208z M390.032,321.481l-72.658-65.482  l72.658-65.482V321.481z"/>
<g>
</g>
<g>
</g>
<g>
</g>
<g>
</g>
<g>
</g>
<g>
</g>
<g>
</g>
<g>
</g>
<g>
</g>
<g>
</g>
<g>
</g>
<g>
</g>
<g>
</g>
<g>
</g>
<g>
</g>
</svg>
