<?xml version="1.0" encoding="iso-8859-1"?>
<!-- Generator: Adobe Illustrator 19.0.0, SVG Export Plug-In . SVG Version: 6.00 Build 0)  -->
<svg xmlns="http://www.w3.org/2000/svg" xmlns:xlink="http://www.w3.org/1999/xlink" version="1.1" id="Layer_1" x="0px" y="0px" viewBox="0 0 512 512" style="enable-background:new 0 0 512 512;" xml:space="preserve">
<polygon style="fill:#C7CFE2;" points="279.569,503.911 90.445,503.911 90.445,40.759 421.555,40.759 421.555,381.173   350.561,442.541 "/>
<polygon style="opacity:0.1;enable-background:new    ;" points="421.555,348.816 247.212,348.816 247.212,503.911 279.569,503.911   350.561,442.541 421.555,381.173 "/>
<polygon style="fill:#DCE5FA;" points="353.817,503.911 279.569,503.911 279.569,381.173 421.555,381.173 421.555,436.173 "/>
<path d="M149.203,192.511c0,4.467,3.621,8.089,8.089,8.089h197.414c4.468,0,8.089-3.622,8.089-8.089  c0-4.467-3.621-8.089-8.089-8.089H157.292C152.825,184.422,149.203,188.044,149.203,192.511z"/>
<path d="M354.707,142.369c4.468,0,8.089-3.622,8.089-8.089s-3.621-8.089-8.089-8.089H256c-4.468,0-8.089,3.622-8.089,8.089  s3.621,8.089,8.089,8.089H354.707z"/>
<path d="M157.292,246.172h197.414c4.468,0,8.089-3.622,8.089-8.089c0-4.467-3.621-8.089-8.089-8.089H157.292  c-4.468,0-8.089,3.622-8.089,8.089C149.203,242.55,152.825,246.172,157.292,246.172z"/>
<path d="M157.292,291.744h197.414c4.468,0,8.089-3.622,8.089-8.089s-3.621-8.089-8.089-8.089H157.292  c-4.468,0-8.089,3.622-8.089,8.089S152.825,291.744,157.292,291.744z"/>
<path d="M421.555,32.669H205.949C204.541,14.421,189.253,0,170.65,0s-33.889,14.421-35.297,32.669H90.445  c-4.468,0-8.089,3.622-8.089,8.089v344.356c0,4.467,3.621,8.089,8.089,8.089c4.468,0,8.089-3.622,8.089-8.089V48.848h36.701v95.238  c0,11.995,9.758,21.752,21.752,21.752s21.752-9.758,21.752-21.752V82.918c0-4.467-3.621-8.089-8.089-8.089  c-4.468,0-8.089,3.622-8.089,8.089v61.167c0,3.074-2.5,5.574-5.574,5.574s-5.574-2.5-5.574-5.574V48.848h262.052v95.617  c0,4.467,3.621,8.089,8.089,8.089s8.089-3.622,8.089-8.089V40.759C429.644,36.29,426.023,32.669,421.555,32.669z M151.633,32.669  c1.34-9.308,9.345-16.491,19.018-16.491c9.671,0,17.677,7.183,19.017,16.491H151.633z"/>
<path d="M90.445,409.381c-4.468,0-8.089,3.622-8.089,8.089v86.441c0,4.467,3.621,8.089,8.089,8.089h263.371  c2.145,0,4.202-0.852,5.721-2.37l67.739-67.737c1.516-1.516,2.368-3.574,2.368-5.72v-55.001V176.821  c0-4.467-3.621-8.089-8.089-8.089s-8.089,3.622-8.089,8.089v196.262H279.569c-4.468,0-8.089,3.622-8.089,8.089v114.649H98.534  V417.47C98.534,413.003,94.913,409.381,90.445,409.381z M287.658,389.262h125.809v43.562l-62.999,62.998h-62.808v-106.56H287.658z"/>
<g>
</g>
<g>
</g>
<g>
</g>
<g>
</g>
<g>
</g>
<g>
</g>
<g>
</g>
<g>
</g>
<g>
</g>
<g>
</g>
<g>
</g>
<g>
</g>
<g>
</g>
<g>
</g>
<g>
</g>
</svg>
