<?xml version="1.0" encoding="iso-8859-1"?>
<!-- Generator: Adobe Illustrator 19.0.0, SVG Export Plug-In . SVG Version: 6.00 Build 0)  -->
<svg xmlns="http://www.w3.org/2000/svg" xmlns:xlink="http://www.w3.org/1999/xlink" version="1.1" id="Layer_1" x="0px" y="0px" viewBox="0 0 512 512" style="enable-background:new 0 0 512 512;" xml:space="preserve">
<path style="fill:#353640;" d="M285.282,8.291h-58.565c-20.532,0-37.176,16.644-37.176,37.176v28.004h132.917V45.467  C322.458,24.935,305.814,8.291,285.282,8.291z"/>
<path style="opacity:0.1;enable-background:new    ;" d="M259.881,8.291h-33.164c-20.532,0-37.176,16.644-37.176,37.176v28.004  h33.164V45.467C222.705,24.935,239.349,8.291,259.881,8.291z"/>
<path style="fill:#515262;" d="M322.458,48.476H189.541c-27.387,0-49.589,22.202-49.589,49.589V454.12  c0,27.388,22.202,49.589,49.589,49.589h132.917c27.387,0,49.589-22.202,49.589-49.589V98.066  C372.047,70.679,349.845,48.476,322.458,48.476z"/>
<path style="opacity:0.1;enable-background:new    ;" d="M173.116,454.119V98.066c0-27.387,22.202-49.589,49.589-49.589h-33.164  c-27.387,0-49.589,22.202-49.589,49.589V454.12c0,27.388,22.202,49.589,49.589,49.589h33.164  C195.318,503.709,173.116,481.507,173.116,454.119z"/>
<circle style="fill:#FF6465;" cx="255.994" cy="137.775" r="46.717"/>
<path style="opacity:0.1;enable-background:new    ;" d="M231.392,148.83c0-25.802,20.916-46.717,46.717-46.717  c3.107,0,6.142,0.311,9.08,0.889c-8.271-7.423-19.201-11.944-31.19-11.944c-25.801,0-46.717,20.916-46.717,46.717  c0,22.693,16.183,41.601,37.637,45.827C237.39,175.05,231.392,162.642,231.392,148.83z"/>
<circle style="fill:#FFD782;" cx="255.994" cy="276.093" r="46.717"/>
<circle style="fill:#A5EB78;" cx="255.994" cy="414.41" r="46.717"/>
<path style="opacity:0.1;enable-background:new    ;" d="M231.392,287.147c0-25.802,20.916-46.717,46.717-46.717  c3.107,0,6.142,0.311,9.08,0.889c-8.271-7.423-19.201-11.944-31.19-11.944c-25.801,0-46.717,20.916-46.717,46.717  c0,22.693,16.183,41.601,37.637,45.828C237.39,313.368,231.392,300.96,231.392,287.147z"/>
<path style="opacity:0.1;enable-background:new    ;" d="M231.392,425.464c0-25.802,20.916-46.717,46.717-46.717  c3.107,0,6.142,0.311,9.08,0.889c-8.271-7.423-19.201-11.944-31.19-11.944c-25.801,0-46.717,20.916-46.717,46.717  c0,22.693,16.183,41.601,37.637,45.828C237.39,451.685,231.392,439.277,231.392,425.464z"/>
<path d="M255.999,192.784c30.332,0,55.008-24.676,55.008-55.008s-24.676-55.008-55.008-55.008s-55.008,24.676-55.008,55.008  S225.667,192.784,255.999,192.784z M255.999,99.349c21.189,0,38.426,17.238,38.426,38.426s-17.238,38.426-38.426,38.426  s-38.426-17.238-38.426-38.426S234.81,99.349,255.999,99.349z"/>
<path d="M208.881,304.488c2.367,3.92,7.463,5.18,11.383,2.812c3.92-2.367,5.179-7.463,2.812-11.383  c-3.601-5.964-5.504-12.819-5.504-19.824c0-21.189,17.238-38.426,38.426-38.426s38.426,17.238,38.426,38.426  s-17.238,38.426-38.426,38.426c-4.003,0-7.959-0.619-11.76-1.84c-4.358-1.398-9.028,0.999-10.429,5.359  c-1.4,4.36,0.999,9.028,5.359,10.429c5.441,1.748,11.103,2.633,16.83,2.633c30.332,0,55.008-24.676,55.008-55.008  s-24.676-55.008-55.008-55.008s-55.008,24.676-55.008,55.008C200.99,286.118,203.719,295.938,208.881,304.488z"/>
<path d="M255.999,469.418c30.332,0,55.008-24.676,55.008-55.008s-24.676-55.008-55.008-55.008s-55.008,24.676-55.008,55.008  S225.667,469.418,255.999,469.418z M255.999,375.983c21.189,0,38.426,17.238,38.426,38.426s-17.238,38.426-38.426,38.426  s-38.426-17.238-38.426-38.426S234.81,375.983,255.999,375.983z"/>
<path d="M330.505,40.757C328.14,17.891,308.762,0,285.282,0h-58.565c-23.48,0-42.859,17.891-45.223,40.757  c-28.118,3.93-49.833,28.124-49.833,57.309v29.832c0,4.579,3.712,8.291,8.291,8.291s8.291-3.712,8.291-8.291V98.066  c0-22.773,18.527-41.298,41.298-41.298h132.917c22.773,0,41.298,18.527,41.298,41.298v272.257c0,4.579,3.711,8.291,8.291,8.291  s8.291-3.712,8.291-8.291V98.066C380.338,68.882,358.622,44.688,330.505,40.757z M198.316,40.185  c2.488-13.414,14.276-23.603,28.401-23.603h58.565c14.124,0,25.912,10.189,28.401,23.603  C313.683,40.185,198.316,40.185,198.316,40.185z"/>
<path d="M139.952,152.771c-4.579,0-8.291,3.712-8.291,8.291V454.12c0,31.915,25.965,57.88,57.88,57.88h132.917  c31.915,0,57.88-25.965,57.88-57.88v-50.632c0-4.579-3.711-8.291-8.291-8.291s-8.291,3.712-8.291,8.291v50.632  c0,22.772-18.527,41.298-41.298,41.298H189.541c-22.772,0-41.298-18.527-41.298-41.298V161.062  C148.243,156.483,144.53,152.771,139.952,152.771z"/>
<g>
</g>
<g>
</g>
<g>
</g>
<g>
</g>
<g>
</g>
<g>
</g>
<g>
</g>
<g>
</g>
<g>
</g>
<g>
</g>
<g>
</g>
<g>
</g>
<g>
</g>
<g>
</g>
<g>
</g>
</svg>
