<?xml version="1.0" encoding="iso-8859-1"?>
<!-- Generator: Adobe Illustrator 19.0.0, SVG Export Plug-In . SVG Version: 6.00 Build 0)  -->
<svg xmlns="http://www.w3.org/2000/svg" xmlns:xlink="http://www.w3.org/1999/xlink" version="1.1" id="Layer_1" x="0px" y="0px" viewBox="0 0 512.001 512.001" style="enable-background:new 0 0 512.001 512.001;" xml:space="preserve">
<path style="fill:#6AB2CC;" d="M146.133,80.423v71.938l-32.347,137.249l32.347,213.907h261.998c16.39,0,29.676-13.286,29.676-29.675  V112.77L146.133,80.423z"/>
<path style="fill:#5D9CB3;" d="M74.194,80.423v393.418c0,16.389,13.286,29.675,29.676,29.675h42.263V80.423H74.194z"/>
<path style="fill:#FFFFFF;" d="M130.948,28.559l-10.792,32.613c-4,5.383-6.37,12.045-6.37,19.251s2.371,13.867,6.37,19.25  l10.792,32.615l306.859-19.516v-0.002V48.076L130.948,28.559z"/>
<path style="fill:#7DD2F0;" d="M146.133,48.076h291.674V8.484H146.133c-39.731,0-71.938,32.208-71.938,71.938v0.001  c0,39.73,32.208,71.938,71.938,71.938h291.674V112.77H146.133c-17.837,0-32.347-14.51-32.347-32.347S128.297,48.076,146.133,48.076z  "/>
<path style="fill:#FFFFFF;" d="M273.021,255.895v122.452c-12.406-1.903-26.667-0.951-41.11,3.377  c-36.401,10.908-60.123,39.065-52.983,62.891c7.14,23.826,42.437,34.299,78.837,23.391c36.402-10.908,60.123-39.065,52.983-62.892  v-127.3c0.328-0.119,0.777-0.245,1.377-0.362c16.168-3.148,33.066,4.425,43.458,16.748c10.511,12.464,16.641,28.648,19.812,44.502  l0.137,0.578c0.816,3.342,3.611,5.999,7.226,6.468c4.693,0.609,8.991-2.701,9.6-7.394c2.846-21.892,2.925-43.981-5.156-64.88  c-7.555-19.539-21.414-35.91-39.224-46.89c-10.229-6.306-21.871-11.384-33.808-13.262c-0.431-0.068-0.812-0.128-1.14-0.18  c-0.497-0.05-0.915-0.093-1.251-0.127c-0.174-0.016-0.327-0.028-0.458-0.041c-0.053-0.009-0.097-0.017-0.134-0.024  c-0.063-0.012-0.095-0.019-0.095-0.019c-0.113-0.023-0.23-0.038-0.344-0.059V203.6c0-10.418-8.445-18.865-18.864-18.865  c-10.418,0-18.865,8.445-18.865,18.865v52.295H273.021z"/>
<path d="M319.234,205.662v-2.061c0-15.08-12.269-27.348-27.349-27.348c-15.08,0-27.348,12.268-27.348,27.348v165.413  c-11.365-0.486-23.309,1.061-35.061,4.582c-19.168,5.744-35.814,16.137-46.872,29.262C170.691,417,166.5,432.694,170.801,447.05  c3.763,12.56,13.832,22.65,28.351,28.412c8.887,3.527,19.228,5.329,30.117,5.329c5.408,0,10.952-0.445,16.519-1.344  c4.625-0.747,7.77-5.102,7.022-9.728c-0.747-4.625-5.102-7.766-9.728-7.022c-27.126,4.38-51.209-4.44-56.026-20.518  c-5.688-18.979,15.969-42.944,47.291-52.329c12.781-3.83,25.709-4.909,37.388-3.118c2.447,0.374,4.933-0.337,6.811-1.949  c1.878-1.612,2.958-3.963,2.958-6.438V203.6c0-5.724,4.656-10.38,10.38-10.38s10.381,4.656,10.381,10.38v9.274  c0,4.093,2.922,7.602,6.947,8.344c0.928,0.171,1.766,0.264,2.503,0.345c0.379,0.042,0.759,0.081,1.041,0.124  c10.424,1.764,21.499,6.226,32.031,12.907c14.98,9.502,26.538,23.083,33.421,39.275c6.898,16.227,9.211,36.618,6.512,57.419  l-0.775,5.972c-0.007,0.046-0.048,0.077-0.158,0.064l-0.145-0.615c-3.713-15.37-9.137-33.038-21.208-47.538  c-13.116-15.759-33.497-23.628-51.924-20.049c-0.972,0.189-1.862,0.428-2.646,0.712c-3.361,1.215-5.601,4.406-5.601,7.979v127.302  c0,0.825,0.12,1.645,0.356,2.435c4.529,15.116-8.171,33.908-30.885,45.699c-4.158,2.159-5.779,7.28-3.621,11.439  c2.159,4.158,7.281,5.779,11.439,3.621c29.982-15.565,45.761-41.277,39.679-64.362V285.245c0.059,0,0.118,0,0.176,0  c10.789,0,22.28,5.525,29.986,14.781c9.819,11.797,14.336,26.517,17.746,40.63l0.15,0.636c1.659,6.797,7.438,11.969,14.377,12.868  c4.515,0.585,8.991-0.622,12.602-3.403c3.608-2.78,5.918-6.798,6.504-11.315l0.775-5.972c2.18-16.803,2.61-41.933-7.724-66.239  c-8.235-19.372-22.049-35.612-39.948-46.966C342.67,213.158,330.796,208.153,319.234,205.662z"/>
<path d="M146.133,512h261.998c21.041,0,38.16-17.118,38.16-38.159V8.484c0-4.685-3.799-8.484-8.484-8.484H146.133  C101.788,0,65.71,36.078,65.71,80.423v304.091c0,4.685,3.799,8.484,8.484,8.484s8.484-3.799,8.484-8.484V129.781  c0.225,0.288,0.466,0.562,0.695,0.847c10.098,12.603,24.032,22.26,39.571,26.793c4.789,1.397,9.737,2.458,14.703,2.981v334.631  H103.87c-11.685,0-21.192-9.507-21.192-21.191v-55.391c0-4.685-3.799-8.484-8.484-8.484s-8.484,3.799-8.484,8.484v55.391  c0,21.041,17.118,38.159,38.16,38.159h42.263V512z M136.479,143.167c-3.116-0.469-6.197-1.178-9.194-2.147  c-25.814-8.046-44.606-32.169-44.606-60.598c0-34.989,28.465-63.454,63.454-63.454h283.19v22.624H230.309  c-4.685,0-8.484,3.799-8.484,8.484s3.799,8.484,8.484,8.484h199.013v47.725h-283.19c-13.158,0-23.863-10.704-23.863-23.863  s10.704-23.864,23.863-23.864h50.662c4.685,0,8.484-3.799,8.484-8.484s-3.799-8.484-8.484-8.484h-50.662  c-22.514,0-40.83,18.316-40.83,40.832c0,22.514,18.316,40.83,40.83,40.83h283.19v22.624h-35.749c-4.685,0-8.484,3.799-8.484,8.484  c0,4.685,3.799,8.484,8.484,8.484h35.749V473.84c0,11.685-9.507,21.191-21.192,21.191H154.617V160.845H360.48  c4.685,0,8.484-3.799,8.484-8.484c0-4.685-3.799-8.484-8.484-8.484H146.133C142.907,143.877,139.674,143.648,136.479,143.167z"/>
<g>
</g>
<g>
</g>
<g>
</g>
<g>
</g>
<g>
</g>
<g>
</g>
<g>
</g>
<g>
</g>
<g>
</g>
<g>
</g>
<g>
</g>
<g>
</g>
<g>
</g>
<g>
</g>
<g>
</g>
</svg>
