<?xml version="1.0" encoding="iso-8859-1"?>
<!-- Generator: Adobe Illustrator 19.0.0, SVG Export Plug-In . SVG Version: 6.00 Build 0)  -->
<svg xmlns="http://www.w3.org/2000/svg" xmlns:xlink="http://www.w3.org/1999/xlink" version="1.1" id="Layer_1" x="0px" y="0px" viewBox="0 0 512 512" style="enable-background:new 0 0 512 512;" xml:space="preserve">
<path style="fill:#29ABD9;" d="M495.357,285.488c0,120.213-107.163,217.665-239.357,217.665S16.643,405.701,16.643,285.488v-58.977  h478.715v58.977H495.357z"/>
<ellipse style="fill:#2DBFF2;" cx="255.995" cy="226.507" rx="239.352" ry="217.66"/>
<path style="fill:#A6E7FF;" d="M256,402.893c-109.218,0-198.073-79.125-198.073-176.381S146.782,50.13,256,50.13  s198.073,79.125,198.073,176.381S365.218,402.893,256,402.893z"/>
<path style="opacity:0.1;enable-background:new    ;" d="M83.877,252.461c0-97.257,88.855-176.381,198.073-176.381  c51.74,0,98.902,17.765,134.221,46.796C380.125,78.821,321.759,50.13,256,50.13c-109.218,0-198.073,79.125-198.073,176.381  c0,51.183,24.617,97.336,63.852,129.585C97.957,326.981,83.877,291.161,83.877,252.461z"/>
<polygon style="fill:#FF6465;" points="158.193,324.319 222.407,192.918 353.807,128.704 289.593,260.105 "/>
<path d="M256,411.739c114.096,0,206.919-83.093,206.919-185.228S370.096,41.284,256,41.284  c-114.097,0-206.919,83.093-206.919,185.228S141.903,411.739,256,411.739z M256,58.977c104.34,0,189.226,75.155,189.226,167.535  S360.34,394.046,256,394.046S66.774,318.891,66.774,226.512S151.66,58.977,256,58.977z"/>
<circle style="fill:#515262;" cx="255.995" cy="226.507" r="20.642"/>
<path d="M256,255.986c-7.551,0-15.103-2.875-20.852-8.622c-5.57-5.571-8.637-12.976-8.637-20.853s3.068-15.281,8.637-20.851l0,0  c0.001-0.001,0.001-0.001,0.001-0.001c5.57-5.57,12.974-8.637,20.851-8.637c7.877,0,15.282,3.068,20.853,8.637  c11.496,11.497,11.497,30.204,0,41.703C271.104,253.113,263.551,255.986,256,255.986z M256,214.716  c-3.151,0-6.112,1.227-8.339,3.455l-0.001,0.001c-2.228,2.228-3.455,5.189-3.455,8.339s1.227,6.114,3.456,8.341  c4.598,4.598,12.081,4.598,16.682,0c4.598-4.598,4.598-12.082-0.001-16.681C262.114,215.943,259.151,214.716,256,214.716z"/>
<path d="M158.195,333.165c1.318,0,2.645-0.294,3.882-0.899l131.401-64.214c1.769-0.865,3.199-2.294,4.064-4.064l64.214-131.401  c1.66-3.395,0.979-7.469-1.693-10.139c-2.672-2.67-6.746-3.352-10.139-1.693l-131.401,64.214c-1.769,0.865-3.199,2.294-4.064,4.064  l-64.214,131.401c-1.66,3.395-0.979,7.469,1.693,10.139C153.635,332.273,155.898,333.165,158.195,333.165z M229.02,199.532  l105.53-51.572l-51.572,105.53l-105.53,51.572L229.02,199.532z"/>
<path d="M431.203,66.054C384.362,23.459,322.14,0,256,0c-52.592,0-102.852,14.832-145.35,42.892  c-4.078,2.692-5.199,8.18-2.508,12.258c2.693,4.078,8.18,5.197,12.258,2.508c39.595-26.144,86.485-39.964,135.6-39.964  c127.104,0,230.51,93.675,230.51,208.818c0,36.767-10.7,72.919-30.942,104.544c-18.488,28.885-44.5,53.476-75.519,71.461  c-2.068,1.2-4.158,2.369-6.269,3.509c-4.299,2.32-5.904,7.687-3.583,11.988c2.24,4.151,7.767,5.86,11.988,3.583  c36.421-19.658,66.949-47.669,88.286-81.001c4.973-7.77,9.423-15.858,13.391-24.184c0.061-0.13,0.129-0.257,0.19-0.388  C467.697,416.75,371.66,494.308,255.999,494.308c-115.529,0-211.479-77.382-227.997-177.941c0.176,0.37,0.363,0.736,0.54,1.105  c0.374,0.777,0.755,1.553,1.138,2.327c9.486,19.146,21.774,36.891,36.349,52.515c4.732,5.073,9.632,9.986,14.767,14.655  c46.841,42.595,109.063,66.054,175.203,66.054c1.947,0,3.891-0.02,5.832-0.061c29.112-0.61,57.506-5.784,84.487-15.406  c4.603-1.642,7.003-6.702,5.361-11.304c-0.16-0.449-0.362-0.871-0.583-1.275c-1.624-2.971-4.795-4.732-8.111-4.595  c-0.869,0.035-1.748,0.202-2.61,0.51c-26.868,9.581-55.255,14.44-84.376,14.44c-127.104,0-230.51-93.675-230.51-208.818  c0-56.154,24.278-108.854,68.365-148.391c3.638-3.263,3.942-8.855,0.679-12.492c-3.264-3.638-8.857-3.942-12.492-0.679  C34.164,107.887,7.797,165.264,7.797,226.512v58.977c0,60.664,25.925,117.648,73,160.457C127.638,488.541,189.86,512,256,512  s128.362-23.459,175.203-66.054c47.075-42.809,73-99.794,73-160.457v-58.977C504.203,165.848,478.278,108.863,431.203,66.054z"/>
<g>
</g>
<g>
</g>
<g>
</g>
<g>
</g>
<g>
</g>
<g>
</g>
<g>
</g>
<g>
</g>
<g>
</g>
<g>
</g>
<g>
</g>
<g>
</g>
<g>
</g>
<g>
</g>
<g>
</g>
</svg>
