<?xml version="1.0" encoding="iso-8859-1"?>
<!-- Generator: Adobe Illustrator 19.0.0, SVG Export Plug-In . SVG Version: 6.00 Build 0)  -->
<svg xmlns="http://www.w3.org/2000/svg" xmlns:xlink="http://www.w3.org/1999/xlink" version="1.1" id="Layer_1" x="0px" y="0px" viewBox="0 0 512 512" style="enable-background:new 0 0 512 512;" xml:space="preserve">
<path style="fill:#A5EB78;" d="M8.329,256.001c0,136.785,110.886,247.671,247.672,247.671s247.671-110.886,247.671-247.671  S392.785,8.329,256.001,8.329S8.329,119.215,8.329,256.001z"/>
<path style="opacity:0.1;enable-background:new    ;" d="M74.96,255.999c0-125.485,93.327-229.158,214.356-245.433  c-10.899-1.466-22.016-2.238-33.316-2.238C119.215,8.329,8.329,119.215,8.329,255.999S119.215,503.67,256.001,503.67  c11.3,0,22.417-0.772,33.316-2.238C168.288,485.159,74.96,381.486,74.96,255.999z"/>
<path style="fill:#FFFFFF;" d="M350.023,124.388l-90.081,46.736c-2.471,1.282-5.412,1.282-7.883,0l-90.081-46.736  c-7.025-3.645-14.808,3.38-11.901,10.741l97.964,248.063c2.851,7.22,13.069,7.22,15.921,0l97.964-248.063  C364.831,127.767,357.047,120.743,350.023,124.388z"/>
<path d="M255.999,512c-68.38,0-132.668-26.629-181.019-74.98C26.629,388.667,0,324.38,0,255.999  c0-45.308,11.998-89.831,34.697-128.755c22.023-37.762,53.558-69.486,91.196-91.742c3.96-2.338,9.066-1.028,11.408,2.931  c2.341,3.959,1.029,9.067-2.931,11.408c-35.199,20.813-64.69,50.48-85.285,85.795c-21.214,36.38-32.428,78.001-32.428,120.363  c0,63.931,24.896,124.035,70.102,169.24c45.206,45.206,105.31,70.102,169.24,70.102c40.703,0,80.914-10.413,116.284-30.115  c4.02-2.239,9.092-0.795,11.328,3.223c2.239,4.018,0.796,9.091-3.223,11.328C342.547,500.858,299.534,512,255.999,512z   M404.89,462.262c-2.526,0-5.021-1.144-6.659-3.317c-2.767-3.674-2.033-8.896,1.641-11.664  c29.005-21.853,53.033-50.453,69.483-82.711c17.243-33.81,25.986-70.34,25.986-108.571c0-63.931-24.896-124.035-70.102-169.24  c-45.205-45.206-105.309-70.102-169.241-70.102c-31.631,0-62.385,6.086-91.406,18.088c-4.251,1.756-9.122-0.262-10.88-4.513  c-1.758-4.25,0.262-9.122,4.513-10.88C189.277,6.511,222.174,0,255.999,0c68.381,0,132.668,26.629,181.02,74.98  C485.371,123.333,512,187.62,512,256.001c0,40.886-9.355,79.962-27.805,116.139c-17.594,34.496-43.286,65.081-74.3,88.447  C408.394,461.717,406.634,462.262,404.89,462.262z"/>
<path d="M255.999,396.934c-6.979,0-13.144-4.193-15.707-10.684l-97.964-248.061c-2.614-6.618-0.89-13.974,4.392-18.74  c5.283-4.769,12.778-5.729,19.091-2.453l90.081,46.735c0.068,0.034,0.144,0.034,0.208,0.001l90.085-46.736  c6.316-3.276,13.81-2.314,19.091,2.453c5.282,4.766,7.006,12.122,4.392,18.74l-35.586,90.11c-1.689,4.28-6.528,6.378-10.805,4.688  c-4.279-1.689-6.377-6.528-4.688-10.805l35.586-90.11c0.04-0.102,0.043-0.149,0.043-0.149c-0.022-0.048-0.158-0.17-0.242-0.197  c-0.004,0.006-0.049,0.02-0.12,0.057l-90.081,46.735c-4.869,2.528-10.684,2.528-15.557-0.001l-90.078-46.734  c-0.097-0.05-0.142-0.058-0.143-0.059c-0.049,0.018-0.185,0.14-0.219,0.221c0.004,0.006,0.013,0.05,0.043,0.125l97.964,248.061  c0.039,0.098,0.067,0.131,0.068,0.132c0.049,0.023,0.233,0.023,0.307-0.014c-0.001-0.004,0.023-0.042,0.053-0.118l49.039-124.175  c1.689-4.279,6.53-6.376,10.805-4.688c4.279,1.689,6.377,6.528,4.688,10.805l-49.039,124.175  C269.144,392.74,262.979,396.934,255.999,396.934z"/>
<g>
</g>
<g>
</g>
<g>
</g>
<g>
</g>
<g>
</g>
<g>
</g>
<g>
</g>
<g>
</g>
<g>
</g>
<g>
</g>
<g>
</g>
<g>
</g>
<g>
</g>
<g>
</g>
<g>
</g>
</svg>
