<?xml version="1.0" encoding="iso-8859-1"?>
<!-- Generator: Adobe Illustrator 19.0.0, SVG Export Plug-In . SVG Version: 6.00 Build 0)  -->
<svg xmlns="http://www.w3.org/2000/svg" xmlns:xlink="http://www.w3.org/1999/xlink" version="1.1" id="Layer_1" x="0px" y="0px" viewBox="0 0 512 512" style="enable-background:new 0 0 512 512;" xml:space="preserve">
<path style="fill:#353640;" d="M224.574,34.907h-71.129c-11.922,0-21.586,9.665-21.586,21.586v425.545  c0,11.922,9.665,21.586,21.586,21.586h205.111c11.922,0,21.586-9.665,21.586-21.586V56.493c0-11.922-9.665-21.586-21.586-21.586  h-71.129V8.376h-62.851v26.531H224.574z"/>
<g>
	<rect x="165.365" y="360.917" style="fill:#A5EB78;" width="181.268" height="101.149"/>
	<rect x="165.365" y="218.692" style="fill:#A5EB78;" width="181.268" height="101.149"/>
	<rect x="165.365" y="76.467" style="fill:#A5EB78;" width="181.268" height="101.149"/>
</g>
<rect x="165.365" y="76.467" style="opacity:0.1;enable-background:new    ;" width="44.672" height="101.149"/>
<rect x="165.365" y="218.692" style="opacity:0.1;enable-background:new    ;" width="44.672" height="101.149"/>
<rect x="165.365" y="360.917" style="opacity:0.1;enable-background:new    ;" width="44.672" height="101.149"/>
<path d="M287.426,0h-62.851c-4.626,0-8.376,3.75-8.376,8.376v18.155h-62.753c-16.521,0-29.962,13.441-29.962,29.962v425.545  c0,16.521,13.441,29.963,29.962,29.963h45.562c4.626,0,8.376-3.75,8.376-8.376s-3.75-8.376-8.376-8.376h-45.562  c-7.284,0-13.21-5.926-13.21-13.211V56.492c0-7.284,5.926-13.21,13.21-13.21h71.129c4.626,0,8.376-3.75,8.376-8.376V16.752h46.099  v18.155c0,4.626,3.75,8.376,8.376,8.376h71.129c7.284,0,13.21,5.926,13.21,13.21v425.545c0,7.284-5.926,13.211-13.21,13.211H232.51  c-4.626,0-8.376,3.75-8.376,8.376s3.75,8.376,8.376,8.376h126.044c16.521,0,29.962-13.441,29.962-29.963V56.492  c0-16.521-13.441-29.962-29.962-29.962h-62.753V8.376C295.802,3.75,292.051,0,287.426,0z"/>
<path d="M156.988,462.066c0,4.626,3.75,8.376,8.376,8.376h181.273c4.626,0,8.376-3.75,8.376-8.376V360.917  c0-4.626-3.75-8.376-8.376-8.376H165.364c-4.626,0-8.376,3.75-8.376,8.376V462.066z M173.74,369.293H338.26v84.397H173.74V369.293z"/>
<path d="M156.988,319.84c0,4.626,3.75,8.376,8.376,8.376h114.589c4.626,0,8.376-3.75,8.376-8.376s-3.75-8.376-8.376-8.376H173.74  v-84.396H338.26v84.396h-24.803c-4.626,0-8.376,3.75-8.376,8.376s3.75,8.376,8.376,8.376h33.179c4.626,0,8.376-3.75,8.376-8.376  V218.692c0-4.626-3.75-8.376-8.376-8.376H165.364c-4.626,0-8.376,3.75-8.376,8.376V319.84z"/>
<path d="M199.704,84.841c4.626,0,8.376-3.75,8.376-8.376c0-4.626-3.75-8.376-8.376-8.376h-34.341c-4.626,0-8.376,3.75-8.376,8.376  v101.148c0,4.626,3.75,8.376,8.376,8.376h181.273c4.626,0,8.376-3.75,8.376-8.376V76.465c0-4.626-3.75-8.376-8.376-8.376H233.208  c-4.626,0-8.376,3.75-8.376,8.376c0,4.626,3.75,8.376,8.376,8.376h105.053v84.396H173.74V84.841H199.704z"/>
<g>
</g>
<g>
</g>
<g>
</g>
<g>
</g>
<g>
</g>
<g>
</g>
<g>
</g>
<g>
</g>
<g>
</g>
<g>
</g>
<g>
</g>
<g>
</g>
<g>
</g>
<g>
</g>
<g>
</g>
</svg>
