<?xml version="1.0" encoding="iso-8859-1"?>
<!-- Generator: Adobe Illustrator 19.0.0, SVG Export Plug-In . SVG Version: 6.00 Build 0)  -->
<svg xmlns="http://www.w3.org/2000/svg" xmlns:xlink="http://www.w3.org/1999/xlink" version="1.1" id="Layer_1" x="0px" y="0px" viewBox="0 0 511.998 511.998" style="enable-background:new 0 0 511.998 511.998;" xml:space="preserve">
<path style="fill:#515262;" d="M337.394,294.274c48.578,62.146,112.597,76.913,148.063,126.169c35.466,49.258,6.9,71.914,6.9,71.914  s-22.656,28.566-71.914-6.9s-64.023-99.485-126.169-148.064L337.394,294.274z"/>
<path style="opacity:0.1;enable-background:new    ;" d="M453.508,452.395c-49.256-35.466-64.023-99.485-126.169-148.063  l-33.062,33.062c62.146,48.579,76.913,112.598,126.169,148.064c49.257,35.466,71.914,6.9,71.914,6.9s9.116-7.233,10.654-22.408  C491.327,471.133,474.935,467.823,453.508,452.395z"/>
<ellipse transform="matrix(-0.7071 -0.7071 0.7071 -0.7071 297.5616 718.4012)" style="fill:#B4BBCC;" cx="297.567" cy="297.574" rx="39.977" ry="51.935"/>
<path style="opacity:0.1;enable-background:new    ;" d="M285.651,309.499c-12.262-12.262-12.552-32.841-2.289-50.935  c-4.943,2.804-9.702,6.391-14.054,10.742c-20.281,20.281-24.066,49.378-8.454,64.989c15.612,15.612,44.709,11.827,64.99-8.454  c4.352-4.352,7.938-9.111,10.742-14.054C318.492,322.051,297.913,321.761,285.651,309.499z"/>
<circle style="fill:#7DD2F0;" cx="179.7" cy="179.699" r="170.921"/>
<circle style="fill:#E6E6E6;" cx="179.7" cy="179.699" r="120.856"/>
<ellipse style="fill:#FFFFFF;" cx="179.7" cy="179.699" rx="77.991" ry="58.809"/>
<path style="opacity:0.1;enable-background:new    ;" d="M127.299,265.153c-47.198-47.198-47.198-123.719,0-170.917  c19.383-19.383,43.714-30.799,68.927-34.261c-36.178-4.968-74.176,6.448-101.99,34.261c-47.198,47.198-47.197,123.719,0,170.917  c27.813,27.814,65.811,39.229,101.989,34.261C171.014,295.952,146.683,284.537,127.299,265.153z"/>
<path d="M220.145,302.899c19.504-6.358,36.792-16.981,51.386-31.575c50.54-50.54,50.54-132.776,0-183.316  c-24.483-24.482-57.034-37.966-91.658-37.966s-67.175,13.482-91.658,37.966c-50.54,50.54-50.54,132.776,0,183.315  c24.247,24.248,57.489,37.959,91.726,37.959c1.281,0,2.565-0.02,3.848-0.057c4.841-0.146,8.645-4.187,8.499-9.028  c-0.146-4.839-4.212-8.648-9.026-8.499c-31.248,0.951-60.577-10.7-82.649-32.772c-43.704-43.704-43.704-114.814,0-158.517  c21.17-21.172,49.318-32.831,79.259-32.831c29.94,0,58.088,11.659,79.259,32.831c43.703,43.704,43.703,114.814,0,158.517  c-12.623,12.623-27.569,21.809-44.423,27.303c-4.603,1.501-7.119,6.45-5.618,11.052  C210.593,301.885,215.538,304.401,220.145,302.899z"/>
<path d="M266.637,179.667c0-37.261-38.922-67.575-86.763-67.575c-47.842,0-86.764,30.314-86.764,67.575s38.922,67.575,86.764,67.575  C227.715,247.241,266.637,216.928,266.637,179.667z M179.874,229.707c-38.174,0-69.23-22.448-69.23-50.041  s31.056-50.041,69.23-50.041c38.173,0,69.229,22.448,69.229,50.041S218.047,229.707,179.874,229.707z"/>
<circle cx="179.876" cy="179.664" r="27.306"/>
<path d="M492.751,415.293c-9.801-13.612-21.991-25.497-39.521-38.534c-3.885-2.891-9.377-2.083-12.267,1.802  c-2.89,3.884-2.082,9.376,1.802,12.267c16.024,11.916,27.051,22.622,35.755,34.71c29.228,40.593,9.987,58.673,8.52,59.957  c-0.635,0.475-0.865,0.706-1.34,1.34c-1.28,1.465-19.361,20.706-59.957-8.52c-22.404-16.132-37.794-39.316-54.087-63.86  c-14.868-22.398-31.476-47.416-55.625-70.111c5.918-3.329,11.295-7.521,16.131-12.277c0.019-0.018,0.037-0.035,0.055-0.053  c0.025-0.025,0.049-0.051,0.074-0.077c3.594-3.604,6.834-7.577,9.633-11.827c0.259-0.394,2.816-4.08,2.615-4.292  c22.697,24.154,47.717,40.763,70.115,55.633l0.102,0.067c4.033,2.68,9.474,1.579,12.152-2.455c2.678-4.034,1.579-9.475-2.456-12.153  l-0.101-0.067c-24.684-16.387-50.167-33.337-72.842-59.494c3.209-15.176,0.313-30.207-9.159-40.932  c31.408-66.659,19.609-148.785-35.417-203.811C278.788,24.458,243.106,6.807,203.747,1.56C165.657-3.517,126.258,3.891,92.82,22.424  c-4.235,2.347-5.765,7.682-3.418,11.917c2.347,4.234,7.682,5.767,11.918,3.418c30.169-16.72,65.722-23.409,100.112-18.819  c35.509,4.733,67.704,20.662,93.105,46.063c22.775,22.775,38.393,52.168,44.477,83.799c5.951,30.94,2.761,63.437-9.198,92.593  c-8.094,19.732-20.197,37.856-35.278,52.934c-10.559,10.559-22.612,19.653-35.637,26.954c-0.304,0.169-0.611,0.33-0.916,0.498  c-61.587,33.816-140.654,24.67-192.776-27.452c-63.226-63.225-63.226-166.102,0-229.327c2.95-2.95,6.046-5.82,9.198-8.525  c3.674-3.153,4.097-8.689,0.943-12.361c-3.151-3.676-8.687-4.097-12.363-0.944c-3.489,2.995-6.914,6.167-10.178,9.431  c-70.063,70.063-70.063,184.063,0,254.125c35.032,35.032,81.046,52.547,127.063,52.547c26.268,0,52.532-5.718,76.757-17.133  c7.702,6.794,17.98,10.513,29.24,10.514c3.911,0,7.854-0.443,11.769-1.279c26.112,22.657,43.043,48.114,59.413,72.774  c17.203,25.914,33.451,50.391,58.45,68.392c17.975,12.941,34.763,19.457,50.076,19.456c12.059,0,24.957-4.277,33.175-13.453  C521.68,472.947,510.782,440.334,492.751,415.293z M285.866,335.124c-3.371,0-7.655-0.499-11.828-2.375  c0.278-0.171,0.548-0.353,0.825-0.525c0.333-0.207,0.662-0.422,0.994-0.632c11.232-7.105,21.681-15.464,31.079-24.862  c6.979-6.978,13.355-14.51,19.101-22.531c2.006-2.8,3.93-5.655,5.771-8.565c0.206-0.326,0.417-0.65,0.622-0.977  c0.176-0.284,0.364-0.561,0.539-0.846c2.95,6.46,3.18,14.405,0.906,22.497c-0.116,0.278-0.231,0.558-0.319,0.851  C327.542,317.208,307.41,335.124,285.866,335.124z"/>
<g>
</g>
<g>
</g>
<g>
</g>
<g>
</g>
<g>
</g>
<g>
</g>
<g>
</g>
<g>
</g>
<g>
</g>
<g>
</g>
<g>
</g>
<g>
</g>
<g>
</g>
<g>
</g>
<g>
</g>
</svg>
