<?xml version="1.0" encoding="iso-8859-1"?>
<!-- Generator: Adobe Illustrator 19.0.0, SVG Export Plug-In . SVG Version: 6.00 Build 0)  -->
<svg xmlns="http://www.w3.org/2000/svg" xmlns:xlink="http://www.w3.org/1999/xlink" version="1.1" id="Layer_1" x="0px" y="0px" viewBox="0 0 511.997 511.997" style="enable-background:new 0 0 511.997 511.997;" xml:space="preserve">
<polygon style="fill:#E6C275;" points="116.51,424.014 158.682,432.442 195.989,395.135 187.56,352.964 229.733,361.392   310.656,280.47 231.528,201.342 10.766,422.104 19.426,492.571 89.892,501.232 124.939,466.186 "/>
<path style="opacity:0.1;enable-background:new    ;" d="M160.962,271.909c9.795,15.726,21.534,30.538,35.061,44.065  c13.492,13.492,28.344,25.217,44.115,35.012l70.517-70.517l-79.126-79.128L160.962,271.909z"/>
<ellipse transform="matrix(0.7071 -0.7071 0.7071 0.7071 -31.3706 286.929)" style="fill:#FF6465;" cx="330.669" cy="181.332" rx="147.342" ry="173.775"/>
<path style="opacity:0.1;enable-background:new    ;" d="M434.862,77.135c-21.368-21.368-46.087-36.832-71.723-46.203  l-26.268,26.267l-36.916-36.915c-17.29,0.474-34.091,3.819-49.648,10.105l-10.237,241.537l241.537-10.236  c6.285-15.557,9.631-32.357,10.105-49.648l-36.915-36.915l26.267-26.267C471.694,123.222,456.23,98.503,434.862,77.135z"/>
<polygon style="fill:#E6E6E6;" points="393.881,175.127 501.228,67.78 444.218,10.769 336.871,118.115 291.621,72.865   285.092,226.905 439.131,220.376 "/>
<path d="M508.842,60.164l-57.01-57.01C449.813,1.135,447.074,0,444.218,0c-2.856,0-5.595,1.134-7.614,3.153l-34.603,34.603  C370.154,18.52,334.049,8.533,299.427,9.517c-38.471,1.107-73.72,15.777-99.252,41.31c-30.105,30.105-44.595,72.069-40.8,118.163  c1.97,23.924,8.767,47.472,19.811,69.465l-91.415,91.414c-4.205,4.207-4.205,11.024,0,15.23c4.204,4.203,11.023,4.206,15.228,0  l87.277-87.276c5.037,7.786,10.639,15.307,16.775,22.504c0.2,0.234,0.402,0.464,0.602,0.696  c13.108,15.243,28.337,28.708,45.139,39.753c0.467,0.307,0.928,0.626,1.397,0.928l-27.997,27.996l-36.521-7.298  c-3.529-0.705-7.179,0.399-9.725,2.945s-3.65,6.194-2.945,9.725l7.298,36.521l-29.157,29.159l-36.521-7.298  c-3.529-0.706-7.179,0.399-9.725,2.945c-2.546,2.546-3.65,6.194-2.945,9.725l7.298,36.521l-27.256,27.256l-56.903-6.994  l-6.995-56.904l52.198-52.196c4.205-4.207,4.205-11.024,0-15.23c-4.206-4.204-11.024-4.204-15.228,0L3.154,414.486  c-2.345,2.345-3.478,5.638-3.074,8.929l8.661,70.465c0.603,4.906,4.468,8.771,9.374,9.374l70.465,8.661  c0.439,0.053,0.877,0.08,1.315,0.08c2.837,0,5.582-1.121,7.614-3.153l35.045-35.045c2.546-2.546,3.65-6.194,2.945-9.725  l-5.264-26.337l26.337,5.262c3.529,0.706,7.179-0.399,9.725-2.945l37.305-37.305c2.546-2.546,3.65-6.194,2.945-9.725l-5.264-26.337  l26.337,5.262c3.529,0.704,7.179-0.399,9.725-2.945l36.23-36.23c20.142,10.105,41.603,16.684,63.398,19.234  c0.425,0.049,0.847,0.075,1.265,0.075c5.387,0,10.041-4.038,10.682-9.519c0.691-5.906-3.538-11.255-9.445-11.946  c-21.721-2.541-43.11-9.62-62.929-20.613c-19.442-10.783-36.875-25.076-51.508-41.797c-0.155-0.177-0.307-0.356-0.461-0.534  c-8.747-10.087-16.365-20.956-22.717-32.452c-0.082-0.148-0.181-0.283-0.27-0.426c-11.683-21.241-18.834-44.232-20.755-67.574  c-3.266-39.683,9.008-75.611,34.564-101.166c21.942-21.942,51.211-34.049,84.643-35.011c28.894-0.857,59.067,7.08,86.226,22.436  l-49.402,49.404l-37.634-37.637c-2.266-2.266-5.374-3.366-8.468-3.12c-1.031,0.082-2.06,0.314-3.055,0.702  c-3.982,1.551-6.669,5.308-6.85,9.578l-6.529,154.04c-0.126,2.989,1.028,5.954,3.144,8.071c1.993,1.993,4.794,3.153,7.614,3.153  c0.152,0,0.304-0.003,0.457-0.01l154.038-6.53c4.269-0.181,8.026-2.869,9.577-6.85c1.551-3.982,0.602-8.503-2.419-11.524  l-37.634-37.634l49.402-49.402c15.358,27.161,23.269,57.336,22.438,86.228c-0.962,33.432-13.069,62.701-35.009,84.643  c-17.596,17.596-40.543,29.105-66.36,33.288c-5.871,0.951-9.86,6.481-8.908,12.352c0.951,5.871,6.483,9.874,12.352,8.908  c30.309-4.909,57.332-18.505,78.146-39.317c25.532-25.533,40.203-60.782,41.31-99.254c0.996-34.635-9.001-70.73-28.24-102.573  l34.603-34.603C513.048,71.188,513.048,64.371,508.842,60.164z M452.929,100.849l-66.662,66.662c-4.205,4.207-4.205,11.024,0,15.23  l27.914,27.912l-117.833,4.995l4.995-117.834l27.914,27.915c2.019,2.019,4.758,3.153,7.614,3.153s5.595-1.134,7.614-3.153  l99.732-99.733l41.782,41.782L452.929,100.849z"/>
<g>
</g>
<g>
</g>
<g>
</g>
<g>
</g>
<g>
</g>
<g>
</g>
<g>
</g>
<g>
</g>
<g>
</g>
<g>
</g>
<g>
</g>
<g>
</g>
<g>
</g>
<g>
</g>
<g>
</g>
</svg>
