<?xml version="1.0" encoding="iso-8859-1"?>
<!-- Generator: Adobe Illustrator 19.0.0, SVG Export Plug-In . SVG Version: 6.00 Build 0)  -->
<svg xmlns="http://www.w3.org/2000/svg" xmlns:xlink="http://www.w3.org/1999/xlink" version="1.1" id="Layer_1" x="0px" y="0px" viewBox="0 0 512.001 512.001" style="enable-background:new 0 0 512.001 512.001;" xml:space="preserve">
<path style="fill:#FFD782;" d="M214.651,151.639c0,0,57.301,57.301,111.546,111.546s55.517,33.108,121.221,98.812  s61.414,77.635,49.191,89.859L479.8,468.664c-12.224,12.224-24.155,16.515-89.859-49.191s-44.568-66.977-98.812-121.221  S179.582,186.708,179.582,186.708L214.651,151.639z"/>
<g>
	<path style="fill:#515262;" d="M49.993,191.387l0.204,0.204l5.909,44.426l44.426,5.909l0.204,0.204c0,0,8.382-34.161,44.393-70.173   l-24.963-24.963C84.154,183.006,49.993,191.387,49.993,191.387z"/>
	<path style="fill:#515262;" d="M209.719,112.61c0,0,43.007-37.803,115.016-57.264c6.232-1.684,6.387-10.482,0.199-12.324   c-30.826-9.175-90.754-17.767-135.048,33.296L209.719,112.61z"/>
</g>
<path style="opacity:0.1;enable-background:new    ;" d="M214.651,151.64l-35.068,35.068c0,0,15.962,15.962,39.007,39.007l0,0  l35.068-35.068C230.612,167.601,214.651,151.64,214.651,151.64z"/>
<path style="fill:#515262;" d="M131.294,160.829l41.967,41.967c6.188,6.188,16.221,6.188,22.409,0l35.068-35.068  c6.188-6.188,6.188-16.221,0-22.409l-41.967-41.967L131.294,160.829z"/>
<path style="opacity:0.1;enable-background:new    ;" d="M75.089,192.07l24.963,24.963c2.463,2.463,5.138,4.589,7.958,6.396  c6.377-13.271,17.746-32.1,37.118-51.473l-24.963-24.963c-19.373,19.373-38.201,30.742-51.472,37.118  C70.5,186.933,72.625,189.607,75.089,192.07z"/>
<path style="opacity:0.1;enable-background:new    ;" d="M253.498,83.721c-2.177-4.181-5.016-8.106-8.522-11.611l-22.383-22.383  c-11.37,6.16-22.458,14.776-32.708,26.593l19.833,36.291C209.719,112.61,225.337,98.886,253.498,83.721z"/>
<g>
	<path style="fill:#65667A;" d="M175.826,70.067l-77.818,77.818c-5.872,5.872-5.872,15.393,0,21.266l24.963,24.963   c5.872,5.872,15.393,5.872,21.266,0l77.818-77.818c5.872-5.872,5.872-15.393,0-21.266l-24.963-24.963   C191.221,64.195,181.699,64.195,175.826,70.067z"/>
	<path style="fill:#65667A;" d="M32.978,191.592L11.679,212.89c-4.755,4.755-4.755,12.464,0,17.219l50.335,50.335   c4.755,4.755,12.464,4.755,17.219,0l21.298-21.298c4.755-4.755,4.755-12.464,0-17.219l-50.335-50.335   C45.442,186.837,37.733,186.837,32.978,191.592z"/>
</g>
<path d="M458.834,362.004c-3.14-3.19-8.271-3.228-11.459-0.089c-3.19,3.14-3.228,8.271-0.089,11.459  c26.788,27.204,42.13,46.101,46.902,57.774c3.233,7.908,1.199,10.435-3.329,14.965l-16.809,16.809  c-4.661,4.661-7.282,6.732-15.873,2.944c-12.511-5.518-32.963-22.572-62.526-52.134c-33.787-33.787-44.049-50.012-53.972-65.701  c-9.452-14.945-18.38-29.06-44.841-55.521l-5.926-5.927c-3.165-3.165-8.296-3.164-11.461,0c-3.165,3.165-3.165,8.296,0,11.461  l5.927,5.927c25.187,25.187,33.647,38.563,42.604,52.724c10.396,16.438,21.147,33.435,56.209,68.497  c31.866,31.867,52.667,48.984,67.444,55.503c5.383,2.375,10.005,3.366,14.055,3.366c8.597,0,14.612-4.471,19.819-9.679  l16.809-16.809c7.44-7.44,13.422-16.533,6.871-32.558C503.449,410.973,487.918,391.54,458.834,362.004z"/>
<path d="M70.605,292.1c5.416,0,10.51-2.11,14.339-5.94l21.298-21.297c3.83-3.83,5.94-8.923,5.94-14.34  c0-3.509-0.899-6.876-2.564-9.858c1.972-5.886,7.088-18.92,17.915-34.887c1.981,0.534,4.015,0.82,6.053,0.82  c5.925,0,11.852-2.256,16.364-6.767l4.44-4.44l13.121,13.122c4.524,4.523,10.538,7.014,16.934,7.014  c3.587,0,7.042-0.809,10.194-2.296l61.891,61.891c3.165,3.165,8.296,3.165,11.459,0c3.165-3.165,3.165-8.296,0-11.459l-60.881-60.88  l23.608-23.608l89.729,89.728c26.461,26.461,40.578,35.391,55.524,44.846c12.697,8.031,25.825,16.337,48.385,37.25  c1.56,1.446,3.536,2.161,5.507,2.161c2.177,0,4.348-0.872,5.945-2.594c3.043-3.282,2.849-8.409-0.433-11.452  c-23.654-21.928-37.423-30.638-50.739-39.062c-14.163-8.959-27.541-17.423-52.728-42.609l-90.748-90.748  c4.165-8.878,2.614-19.795-4.711-27.12l-13.121-13.121l4.441-4.441c4.819-4.82,7.038-11.253,6.709-17.577  c20.138-13.261,51.443-30.224,92.354-41.279c6.345-1.715,10.662-7.28,10.745-13.849c0.083-6.544-4.077-12.196-10.35-14.063  c-16.28-4.846-32.502-7.303-48.211-7.303c-32.659,0-60.821,10.537-83.807,31.334c-8.37-3.414-18.349-1.733-25.132,5.049  l-35.331,35.331c-3.165,3.165-3.165,8.296,0,11.459c3.165,3.165,8.296,3.165,11.459,0l35.331-35.331  c2.533-2.533,6.555-2.693,9.276-0.479c0.059,0.056,0.113,0.117,0.175,0.171l25.319,25.271c0.178,0.178,0.346,0.366,0.502,0.563  c0.013,0.016,0.024,0.033,0.037,0.051c0.46,0.588,0.824,1.251,1.082,1.984c0.011,0.03,0.026,0.059,0.038,0.09  c0.813,2.418,0.265,5.197-1.659,7.119l-77.818,77.818c-2.389,2.389-6.101,2.663-8.799,0.829c-0.053-0.041-0.103-0.086-0.157-0.126  c-0.364-0.266-0.644-0.496-0.851-0.702l-24.963-24.963c-0.025-0.025-0.046-0.053-0.07-0.079c-0.191-0.201-0.397-0.447-0.63-0.769  c-0.039-0.053-0.083-0.1-0.122-0.152c-1.841-2.698-1.569-6.416,0.822-8.807l19.565-19.565c3.165-3.165,3.165-8.296,0-11.459  c-3.165-3.165-8.296-3.165-11.459,0L92.259,142.14c-6.063,6.063-8.031,14.675-5.947,22.414  c-15.873,10.751-28.994,15.914-34.901,17.909c-2.979-1.66-6.34-2.555-9.844-2.555c-5.416,0-10.51,2.11-14.339,5.94L5.93,207.147  c-7.907,7.906-7.907,20.772,0,28.679l50.335,50.334C60.095,289.991,65.189,292.1,70.605,292.1z M208.044,69.563  c19.586-16.874,43.42-25.416,70.972-25.416c14.518,0,27.811,2.449,37.725,5.003c-38.581,11.163-68.643,27.188-88.868,40.242  c-0.035-0.036-0.069-0.07-0.105-0.106L208.044,69.563z M211.868,137.914l13.121,13.121c3.019,3.019,3.019,7.931,0,10.949  l-35.069,35.069c-1.463,1.462-3.407,2.268-5.475,2.268c-2.068,0-4.012-0.806-5.475-2.268l-13.121-13.121L211.868,137.914z   M95.385,177.993l18.713,18.713c-8.226,12.136-13.499,22.843-16.735,30.598l-32.575-32.575  C72.542,191.492,83.249,186.219,95.385,177.993z M17.391,218.608l21.298-21.298c1.037-1.037,2.25-1.193,2.879-1.193  s1.842,0.156,2.879,1.193l25.615,25.615l24.72,24.72c1.037,1.037,1.193,2.25,1.193,2.879c0,0.63-0.156,1.842-1.193,2.879  l-21.298,21.298c-1.037,1.037-2.25,1.193-2.879,1.193c-0.63,0-1.842-0.156-2.879-1.193l-50.334-50.334  C15.803,222.778,15.803,220.195,17.391,218.608z"/>
<g>
</g>
<g>
</g>
<g>
</g>
<g>
</g>
<g>
</g>
<g>
</g>
<g>
</g>
<g>
</g>
<g>
</g>
<g>
</g>
<g>
</g>
<g>
</g>
<g>
</g>
<g>
</g>
<g>
</g>
</svg>
