<?xml version="1.0" encoding="iso-8859-1"?>
<!-- Generator: Adobe Illustrator 19.0.0, SVG Export Plug-In . SVG Version: 6.00 Build 0)  -->
<svg xmlns="http://www.w3.org/2000/svg" xmlns:xlink="http://www.w3.org/1999/xlink" version="1.1" id="Layer_1" x="0px" y="0px" viewBox="0 0 512 512" style="enable-background:new 0 0 512 512;" xml:space="preserve">
<rect x="47.484" y="121.043" style="fill:#FFFFFF;" width="335.568" height="357.032"/>
<path style="fill:#B4BBCC;" d="M359.626,503.685H63.682c-25.142,0-45.597-20.455-45.597-45.597V143.029  c0-25.142,20.455-45.597,45.597-45.597h295.944c25.142,0,45.597,20.455,45.597,45.597v315.059  C405.223,483.23,384.768,503.685,359.626,503.685z M63.682,141.778c-0.69,0-1.251,0.561-1.251,1.251v315.059  c0,0.69,0.561,1.251,1.251,1.251h295.944c0.69,0,1.251-0.561,1.251-1.251V143.029c0-0.69-0.561-1.251-1.251-1.251H63.682z"/>
<path style="fill:#7DD2F0;" d="M283.271,226.004h-51.865c-7.81,0-15.171,3.659-19.886,9.886l-52.429,69.231l-34.111-24.169v115.066  l108.557-38.152l-33.718-23.889l43.987-58.084h39.465c13.776,0,24.945-11.169,24.945-24.945  C308.216,237.173,297.047,226.004,283.271,226.004z"/>
<path style="opacity:0.1;enable-background:new    ;" d="M283.271,226.004h-44.346v56.335l4.881-6.446h39.465  c13.776,0,24.945-11.169,24.945-24.945C308.216,237.173,297.047,226.004,283.271,226.004z"/>
<path style="opacity:0.1;enable-background:new    ;" d="M359.626,97.432H238.924v44.346h120.702c0.69,0,1.251,0.561,1.251,1.251  v272.346h44.346V143.029C405.223,117.887,384.768,97.432,359.626,97.432z"/>
<path style="fill:#C7CFE2;" d="M464.647,8.315H301.452c-16.164,0-29.267,13.103-29.267,29.267v315.264  c0,16.164,13.103,29.267,29.267,29.267h163.195c16.164,0,29.267-13.103,29.267-29.267V37.582  C493.916,21.418,480.811,8.315,464.647,8.315z"/>
<path d="M63.682,512h201.059c4.592,0,8.315-3.723,8.315-8.315c0-4.592-3.723-8.315-8.315-8.315H63.682  c-20.558,0-37.282-16.724-37.282-37.282V143.029c0-20.557,16.724-37.282,37.282-37.282h200.187v27.716H136.376  c-4.592,0-8.315,3.723-8.315,8.315s3.723,8.315,8.315,8.315h127.493v67.596h-32.463c-10.353,0-20.265,4.927-26.515,13.181  l-47.567,62.81l-27.539-19.512c-2.539-1.797-5.865-2.03-8.626-0.601c-2.762,1.429-4.496,4.277-4.496,7.386v115.066  c0,2.696,1.308,5.225,3.508,6.785c1.425,1.009,3.108,1.53,4.807,1.53c0.927,0,1.859-0.155,2.756-0.47l108.556-38.153  c2.934-1.031,5.045-3.612,5.477-6.691c0.431-3.079-0.89-6.141-3.427-7.938l-26.714-18.927l36.31-47.946h15.93v68.638  c0,20.723,16.859,37.582,37.582,37.582h51.11v60.594H70.746V150.093h32.371c4.592,0,8.315-3.723,8.315-8.315  s-3.723-8.315-8.315-8.315H63.682c-5.275,0-9.565,4.292-9.565,9.565v315.059c0,5.274,4.292,9.565,9.565,9.565h295.944  c5.275,0,9.565-4.292,9.565-9.565V390.43h27.716v67.658c0,20.557-16.724,37.282-37.282,37.282h-61.624  c-4.592,0-8.315,3.723-8.315,8.315c0,4.592,3.723,8.315,8.315,8.315h61.624c29.728,0,53.912-24.184,53.912-53.912V390.43h51.109  c20.723,0,37.582-16.859,37.582-37.582V103.291c0-4.592-3.723-8.315-8.315-8.315c-4.592,0-8.315,3.723-8.315,8.315v249.556  c0,11.553-9.399,20.953-20.953,20.953H301.452c-11.553,0-20.953-9.399-20.953-20.953V37.582c0-11.553,9.399-20.953,20.953-20.953  h163.195c11.553,0,20.953,9.399,20.953,20.953v32.449c0,4.592,3.723,8.315,8.315,8.315c4.592,0,8.315-3.723,8.315-8.315V37.582  C502.23,16.859,485.371,0,464.647,0H301.452c-20.723,0-37.582,16.859-37.582,37.582v51.535H63.682  c-29.728,0-53.912,24.184-53.912,53.912v315.059C9.769,487.815,33.955,512,63.682,512z M263.869,267.579h-20.063  c-2.603,0-5.057,1.22-6.629,3.295l-43.987,58.084c-1.359,1.795-1.932,4.063-1.589,6.288c0.344,2.224,1.573,4.215,3.41,5.517  l20.596,14.592l-82.313,28.929v-87.249l20.99,14.872c3.663,2.595,8.725,1.815,11.436-1.765l52.43-69.231  c3.125-4.126,8.081-6.59,13.257-6.59h32.463V267.579z"/>
<g>
</g>
<g>
</g>
<g>
</g>
<g>
</g>
<g>
</g>
<g>
</g>
<g>
</g>
<g>
</g>
<g>
</g>
<g>
</g>
<g>
</g>
<g>
</g>
<g>
</g>
<g>
</g>
<g>
</g>
</svg>
