<?xml version="1.0" encoding="iso-8859-1"?>
<!-- Generator: Adobe Illustrator 19.0.0, SVG Export Plug-In . SVG Version: 6.00 Build 0)  -->
<svg xmlns="http://www.w3.org/2000/svg" xmlns:xlink="http://www.w3.org/1999/xlink" version="1.1" id="Layer_1" x="0px" y="0px" viewBox="0 0 511.999 511.999" style="enable-background:new 0 0 511.999 511.999;" xml:space="preserve">
<path style="fill:#65667A;" d="M168.894,84.48h-51.629c-11.258,0-20.385,9.127-20.385,20.385v61.861h92.399v-61.861  C189.279,93.606,180.152,84.48,168.894,84.48z"/>
<path style="opacity:0.1;enable-background:new    ;" d="M141.069,84.48h-23.804c-11.258,0-20.385,9.127-20.385,20.385v61.861  h23.804v-61.861C120.684,93.606,129.81,84.48,141.069,84.48z"/>
<path style="fill:#65667A;" d="M462.778,130.484c-26.763,0-12.864-66.312-77.848-66.312h-66.382  c-64.984,0-51.084,66.312-77.848,66.312v36.241H462.78v-36.241H462.778z"/>
<path style="opacity:0.1;enable-background:new    ;" d="M354.254,64.172h-35.707c-64.985,0-51.084,66.312-77.848,66.312v36.241  h35.707v-36.241C303.17,130.484,289.269,64.172,354.254,64.172z"/>
<path style="fill:#515262;" d="M465.294,130.484H46.705c-20.865,0-37.779,16.914-37.779,37.779v241.786  c0,20.865,16.914,37.779,37.779,37.779h418.588c20.865,0,37.779-16.914,37.779-37.779V168.263  C503.073,147.398,486.159,130.484,465.294,130.484z"/>
<circle style="fill:#C7CFE2;" cx="315.516" cy="289.152" r="109.953"/>
<circle style="fill:#65667A;" cx="315.516" cy="289.152" r="74.811"/>
<path style="opacity:0.1;enable-background:new    ;" d="M264.504,312.96c0-41.317,33.494-74.811,74.811-74.811  c14.561,0,28.142,4.175,39.636,11.371c-13.223-21.12-36.684-35.176-63.44-35.176c-41.317,0-74.811,33.495-74.811,74.811  c0,26.756,14.055,50.217,35.176,63.44C268.678,341.102,264.504,327.522,264.504,312.96z"/>
<circle style="fill:#FF6465;" cx="96.884" cy="199.219" r="32.492"/>
<path style="opacity:0.1;enable-background:new    ;" d="M76.29,211.119c0-17.945,14.548-32.492,32.492-32.492  c5.917,0,11.458,1.589,16.237,4.353c-5.618-9.715-16.111-16.255-28.139-16.255c-17.945,0-32.492,14.547-32.492,32.492  c0,12.028,6.541,22.521,16.255,28.139C77.879,222.577,76.29,217.036,76.29,211.119z"/>
<path style="fill:#C7CFE2;" d="M118.202,360.694H75.556c-9.534,0-17.262,7.728-17.262,17.262l0,0  c0,9.534,7.728,17.262,17.262,17.262h42.646c9.534,0,17.262-7.728,17.262-17.262l0,0  C135.464,368.424,127.736,360.694,118.202,360.694z"/>
<path style="opacity:0.1;enable-background:new    ;" d="M82.099,377.956c0-9.534,7.728-17.262,17.262-17.262H75.556  c-9.534,0-17.262,7.728-17.262,17.262c0,9.534,7.728,17.262,17.262,17.262h23.804C89.828,395.218,82.099,387.49,82.099,377.956z"/>
<path d="M386.446,384.561c30.022-22.356,47.946-58.021,47.946-95.403c0-65.55-53.33-118.88-118.88-118.88  s-118.881,53.33-118.881,118.88s53.329,118.881,118.881,118.881c13.178,0,26.136-2.148,38.514-6.384  c4.664-1.596,7.151-6.671,5.555-11.336c-1.596-4.664-6.671-7.154-11.336-5.555c-10.513,3.597-21.525,5.423-32.732,5.423  c-55.706,0-101.027-45.32-101.027-101.027s45.321-101.027,101.027-101.027c55.707,0,101.027,45.32,101.027,101.027  c0,32.243-14.855,61.798-40.756,81.084c-3.954,2.946-4.773,8.537-1.828,12.491C376.9,386.686,382.492,387.502,386.446,384.561z"/>
<path d="M253.874,245.821c-4.336-2.341-9.754-0.722-12.095,3.617c-6.546,12.131-10.007,25.865-10.007,39.718  c0,46.173,37.565,83.738,83.738,83.738s83.738-37.566,83.738-83.738s-37.566-83.738-83.738-83.738  c-16.944,0-33.275,5.045-47.226,14.591c-4.069,2.784-5.111,8.339-2.327,12.408c2.784,4.068,8.339,5.112,12.408,2.326  c10.969-7.504,23.814-11.471,37.144-11.471c36.329,0,65.885,29.556,65.885,65.885s-29.557,65.885-65.885,65.885  s-65.885-29.556-65.885-65.885c0-10.901,2.72-21.704,7.865-31.24C259.833,253.578,258.214,248.164,253.874,245.821z"/>
<path d="M96.879,240.635c22.838,0,41.419-18.579,41.419-41.419s-18.581-41.419-41.419-41.419s-41.419,18.579-41.419,41.419  S74.041,240.635,96.879,240.635z M96.879,175.652c12.994,0,23.565,10.572,23.565,23.565s-10.572,23.565-23.565,23.565  c-12.994,0-23.565-10.572-23.565-23.565S83.886,175.652,96.879,175.652z"/>
<path d="M75.556,404.146h42.646c14.44,0,26.187-11.747,26.187-26.188c0-14.441-11.747-26.188-26.187-26.188H75.556  c-14.44,0-26.188,11.747-26.188,26.188C49.368,392.398,61.117,404.146,75.556,404.146z M75.556,369.622h42.646  c4.595,0,8.334,3.74,8.334,8.335c0,4.595-3.738,8.335-8.334,8.335H75.556c-4.595,0-8.335-3.74-8.335-8.335  C67.221,373.362,70.961,369.622,75.556,369.622z"/>
<path d="M465.294,121.557h-2.516c-4.097,0-6.697-5.181-11.653-17.001c-8.233-19.636-20.677-49.311-66.194-49.311h-66.382  c-45.519,0-57.961,29.676-66.195,49.312c-4.956,11.82-7.557,17-11.653,17h-42.494v-16.693c0-16.162-13.15-29.312-29.312-29.312  h-51.629c-16.162,0-29.312,13.15-29.312,29.312v16.692H46.705C20.953,121.557,0,142.509,0,168.263v69.771  c0,4.931,3.997,8.927,8.927,8.927s8.927-3.996,8.927-8.927v-69.771c0-15.908,12.944-28.852,28.852-28.852h326.536  c4.93,0,8.927-3.996,8.927-8.927c0-4.931-3.997-8.927-8.927-8.927h-108.93c1.654-3.297,3.104-6.753,4.506-10.097  c7.908-18.86,16.085-38.361,49.73-38.361h66.382c33.645,0,41.822,19.502,49.73,38.361c1.402,3.345,2.852,6.801,4.507,10.097h-30.219  c-4.93,0-8.927,3.996-8.927,8.927c0,4.931,3.997,8.927,8.927,8.927h56.346c15.91,0,28.852,12.944,28.852,28.852v241.786  c0,15.909-12.944,28.852-28.852,28.852H46.705c-15.909,0-28.852-12.944-28.852-28.852V273.74c0-4.931-3.997-8.927-8.927-8.927  S0,268.809,0,273.74v136.308c0,25.754,20.953,46.705,46.705,46.705h418.588c25.754,0,46.705-20.953,46.705-46.705V168.263  C512,142.509,491.047,121.557,465.294,121.557z M105.806,121.557v-16.693c0-6.319,5.141-11.458,11.458-11.458h51.629  c6.318,0,11.458,5.139,11.458,11.458v16.692h-74.546V121.557z"/>
<g>
</g>
<g>
</g>
<g>
</g>
<g>
</g>
<g>
</g>
<g>
</g>
<g>
</g>
<g>
</g>
<g>
</g>
<g>
</g>
<g>
</g>
<g>
</g>
<g>
</g>
<g>
</g>
<g>
</g>
</svg>
