<?xml version="1.0" encoding="iso-8859-1"?>
<!-- Generator: Adobe Illustrator 19.0.0, SVG Export Plug-In . SVG Version: 6.00 Build 0)  -->
<svg xmlns="http://www.w3.org/2000/svg" xmlns:xlink="http://www.w3.org/1999/xlink" version="1.1" id="Layer_1" x="0px" y="0px" viewBox="0 0 512 512" style="enable-background:new 0 0 512 512;" xml:space="preserve">
<path style="fill:#7DD2F0;" d="M494.03,185.943H17.97c-5.561,0-10.067,4.507-10.067,10.067v119.98  c0,5.559,4.508,10.067,10.067,10.067H494.03c5.561,0,10.067-4.508,10.067-10.067V196.01  C504.097,190.45,499.589,185.943,494.03,185.943z"/>
<g>
	<rect x="195.909" y="219.987" style="fill:#FFFFFF;" width="120.178" height="72.022"/>
	<rect x="41.577" y="219.987" style="fill:#FFFFFF;" width="120.178" height="72.022"/>
	<rect x="350.238" y="219.987" style="fill:#FFFFFF;" width="120.178" height="72.022"/>
</g>
<path style="opacity:0.1;enable-background:new    ;" d="M81.664,315.99V196.01c0-5.561,4.508-10.067,10.067-10.067H17.97  c-5.559,0-10.067,4.507-10.067,10.067v119.98c0,5.559,4.508,10.067,10.067,10.067h73.761  C86.171,326.057,81.664,321.549,81.664,315.99z"/>
<path d="M494.03,333.96h-60.21c-4.366,0-7.903-3.538-7.903-7.903s3.537-7.903,7.903-7.903h60.21c1.194,0,2.164-0.97,2.164-2.164  V196.01c0-1.193-0.97-2.164-2.164-2.164H109.116c-4.366,0-7.903-3.538-7.903-7.903c0-4.365,3.537-7.903,7.903-7.903H494.03  c9.908,0,17.97,8.061,17.97,17.97v119.98C512,325.898,503.938,333.96,494.03,333.96z"/>
<path d="M402.208,333.96H17.97C8.061,333.96,0,325.898,0,315.989V196.01c0-9.908,8.061-17.97,17.97-17.97h59.534  c4.366,0,7.903,3.538,7.903,7.903c0,4.365-3.537,7.903-7.903,7.903H17.97c-1.194,0-2.164,0.97-2.164,2.164v119.98  c0,1.194,0.97,2.164,2.164,2.164h384.238c4.366,0,7.903,3.538,7.903,7.903S406.573,333.96,402.208,333.96z"/>
<path d="M316.09,299.914H195.909c-4.366,0-7.903-3.538-7.903-7.903v-72.023c0-4.365,3.537-7.903,7.903-7.903H316.09  c4.366,0,7.903,3.538,7.903,7.903v72.023C323.993,296.376,320.454,299.914,316.09,299.914z M203.812,284.108h104.375v-56.217  H203.812V284.108z"/>
<path d="M161.758,299.914H41.577c-4.366,0-7.903-3.538-7.903-7.903v-72.023c0-4.365,3.537-7.903,7.903-7.903h120.181  c4.366,0,7.903,3.538,7.903,7.903v72.023C169.661,296.376,166.122,299.914,161.758,299.914z M49.48,284.108h104.375v-56.217H49.48  V284.108z"/>
<path d="M470.422,299.914H350.241c-4.366,0-7.903-3.538-7.903-7.903v-72.023c0-4.365,3.537-7.903,7.903-7.903h120.181  c4.366,0,7.903,3.538,7.903,7.903v72.023C478.325,296.376,474.787,299.914,470.422,299.914z M358.144,284.108h104.375v-56.217  H358.144V284.108z"/>
<g>
</g>
<g>
</g>
<g>
</g>
<g>
</g>
<g>
</g>
<g>
</g>
<g>
</g>
<g>
</g>
<g>
</g>
<g>
</g>
<g>
</g>
<g>
</g>
<g>
</g>
<g>
</g>
<g>
</g>
</svg>
