<?xml version="1.0" encoding="iso-8859-1"?>
<!-- Generator: Adobe Illustrator 19.0.0, SVG Export Plug-In . SVG Version: 6.00 Build 0)  -->
<svg xmlns="http://www.w3.org/2000/svg" xmlns:xlink="http://www.w3.org/1999/xlink" version="1.1" id="Layer_1" x="0px" y="0px" viewBox="0 0 512 512" style="enable-background:new 0 0 512 512;" xml:space="preserve">
<path style="fill:#FFD782;" d="M297.646,297.89l-83.538-83.538L13.812,414.65l-3.654,65.995  c-0.663,11.971,9.226,21.86,21.197,21.197l65.994-3.655l31.896-31.896v-32.649h32.649l36.391-36.391v-32.649h32.649L297.646,297.89z  "/>
<path style="opacity:0.1;enable-background:new    ;" d="M201.105,310.894c14.301,14.301,30.011,26.666,46.64,36.898l49.901-49.901  l-83.538-83.538l-49.956,49.956C174.386,280.885,186.763,296.552,201.105,310.894z"/>
<path style="fill:#FF6465;" d="M229.729,282.271c-70.682-70.682-79.294-172.804-19.608-232.491S371.93-1.293,442.612,69.388  s79.295,172.804,19.608,232.491S300.411,352.953,229.729,282.271z"/>
<path style="fill:#E65A5B;" d="M258.352,253.648c-54.632-54.632-63.244-131.609-19.608-175.245s120.614-35.024,175.245,19.608  s63.244,131.609,19.608,175.245S312.983,308.28,258.352,253.648z"/>
<path style="opacity:0.1;enable-background:new    ;" d="M265.73,105.389c39.97-39.97,107.902-36.073,161.022,6.845  c-3.937-4.872-8.173-9.633-12.763-14.223C359.357,43.379,282.38,34.767,238.744,78.403s-35.024,120.614,19.608,175.245  c4.59,4.59,9.349,8.827,14.223,12.763C229.656,213.291,225.759,145.359,265.73,105.389z"/>
<polygon style="fill:#FFFFFF;" points="392.003,119.998 374.909,170.403 406.743,213.059 353.522,212.379 322.79,255.836   306.991,205.009 256.164,189.21 299.621,158.478 298.941,105.258 341.598,137.091 "/>
<path d="M326.787,41.767c-37.259-5.127-71.067,5.346-95.206,29.485c-47.648,47.649-39.035,130.913,19.608,189.556  c33.202,33.202,74.288,50.367,112.341,50.364c29.16-0.001,56.544-10.085,77.218-30.756c47.648-47.649,39.035-130.913-19.609-189.557  c-15.432-15.431-32.791-27.666-51.59-36.364c-5.076-2.348-11.087-0.136-13.434,4.936c-2.346,5.073-0.138,11.087,4.934,13.434  c16.634,7.695,32.036,18.565,45.779,32.306c50.62,50.62,59.231,121.31,19.609,160.935c-39.623,39.622-110.314,31.011-160.933-19.608  s-59.234-121.31-19.611-160.933c19.553-19.554,47.309-27.987,78.134-23.746c5.547,0.765,10.643-3.109,11.404-8.646  C336.193,47.634,332.323,42.528,326.787,41.767z"/>
<path d="M399.152,112.845c-2.726-2.723-6.76-3.666-10.406-2.429l-45.369,15.385l-38.393-28.65  c-3.087-2.303-7.212-2.655-10.647-0.907c-3.431,1.749-5.574,5.295-5.524,9.147l0.613,47.901l-39.112,27.661  c-3.145,2.224-4.755,6.041-4.152,9.846c0.602,3.805,3.313,6.937,6.991,8.081l45.747,14.22l14.219,45.745  c1.144,3.68,4.276,6.389,8.081,6.992c0.529,0.084,1.058,0.124,1.584,0.124c3.252,0,6.346-1.569,8.26-4.276l27.661-39.112  l47.901,0.613c3.831,0.078,7.397-2.093,9.146-5.525c1.749-3.431,1.397-7.56-0.907-10.646l-28.65-38.394l15.383-45.367  C402.817,119.604,401.876,115.569,399.152,112.845z M386.362,202.683l-32.718-0.418c-3.302-0.07-6.47,1.556-8.391,4.276  l-18.893,26.715l-9.712-31.246c-0.988-3.18-3.48-5.671-6.66-6.66l-31.246-9.712l26.715-18.893c2.72-1.923,4.319-5.061,4.276-8.393  l-0.418-32.718l26.224,19.569c2.669,1.992,6.145,2.545,9.302,1.473l30.988-10.508l-10.507,30.987  c-1.07,3.155-0.52,6.633,1.473,9.302L386.362,202.683z"/>
<path d="M449.76,62.237C413.888,26.365,368.901,4.48,323.085,0.617C276.643-3.304,233.969,11.62,202.958,42.63  c-31.01,31.01-45.93,73.672-42.013,120.128c2.024,23.996,9,47.762,20.331,70.115L87.94,326.209c-3.952,3.952-3.952,10.36,0,14.311  c3.953,3.952,10.36,3.952,14.312,0c0,0,89.425-89.425,89.429-89.43c-2.131,2.187,19.188,25.796,21.892,28.824  c0.352,0.394,0.708,0.784,1.062,1.175c0.31,0.343,0.618,0.688,0.931,1.03L54.159,443.527c-3.952,3.952-3.952,10.36,0,14.311  c1.977,1.977,4.566,2.964,7.157,2.964c2.589,0,5.18-0.988,7.157-2.964l161.403-161.403c0.425,0.391,0.858,0.769,1.286,1.156  c0.297,0.269,0.595,0.537,0.893,0.803c9.168,8.21,18.808,15.555,28.818,21.958l-34.137,34.136h-28.458  c-5.59,0-10.12,4.531-10.12,10.12v28.457l-30.462,30.462h-28.457c-5.59,0-10.12,4.531-10.12,10.12v28.457L92.922,488.3  l-62.134,3.441c-2.871,0.167-5.583-0.874-7.619-2.912c-2.039-2.037-3.072-4.744-2.913-7.621l3.441-62.134l49.935-49.935  c3.952-3.952,3.952-10.36,0-14.311c-3.953-3.952-10.36-3.952-14.312,0l-52.671,52.67c-1.761,1.761-2.811,4.11-2.948,6.597  l-3.654,65.995c-0.476,8.576,2.735,16.978,8.808,23.051c5.681,5.679,13.396,8.855,21.386,8.855c0.555,0,1.109-0.015,1.666-0.046  l65.994-3.654c2.487-0.138,4.835-1.187,6.597-2.948l31.896-31.896c1.897-1.898,2.963-4.472,2.963-7.155V443.77h22.528  c2.684,0,5.257-1.066,7.157-2.964l36.391-36.391c1.897-1.897,2.963-4.472,2.963-7.155V374.73h22.529  c2.684,0,5.257-1.066,7.157-2.964l41.004-41.002c24.71,12.542,51.115,19.693,77.767,20.756c0.138,0.005,0.274,0.008,0.41,0.008  c5.404,0,9.888-4.269,10.105-9.716c0.223-5.585-4.125-10.292-9.708-10.515c-25.554-1.019-50.933-8.363-74.528-21.269  c-0.309-0.22-0.629-0.424-0.965-0.61c-24.965-13.813-46.984-33.244-64.197-55.969c-20.26-26.757-34.02-58.782-36.853-92.39  c-3.408-40.417,9.432-77.392,36.157-104.116c26.724-26.724,63.704-39.567,104.116-36.156c41.058,3.462,81.565,23.266,114.061,55.764  c66.67,66.67,75.283,162.505,19.608,218.18c-16.915,16.915-37.537,28.167-61.296,33.44c-5.457,1.21-8.899,6.616-7.687,12.072  c1.21,5.457,6.621,8.901,12.072,7.687c27.188-6.035,51.817-19.481,71.223-38.887C533.067,245.341,524.454,136.931,449.76,62.237z"/>
<g>
</g>
<g>
</g>
<g>
</g>
<g>
</g>
<g>
</g>
<g>
</g>
<g>
</g>
<g>
</g>
<g>
</g>
<g>
</g>
<g>
</g>
<g>
</g>
<g>
</g>
<g>
</g>
<g>
</g>
</svg>
