<?xml version="1.0" encoding="iso-8859-1"?>
<!-- Generator: Adobe Illustrator 19.0.0, SVG Export Plug-In . SVG Version: 6.00 Build 0)  -->
<svg xmlns="http://www.w3.org/2000/svg" xmlns:xlink="http://www.w3.org/1999/xlink" version="1.1" id="Layer_1" x="0px" y="0px" viewBox="0 0 511.999 511.999" style="enable-background:new 0 0 511.999 511.999;" xml:space="preserve">
<path style="fill:#7DD2F0;" d="M455.242,28.098H56.758c-26.703,0-48.348,21.645-48.348,48.347v359.107  c0,26.702,21.646,48.347,48.348,48.347h398.485c26.702,0,48.348-21.646,48.348-48.347V76.446  C503.591,49.744,481.944,28.098,455.242,28.098z"/>
<path style="fill:#515262;" d="M72.584,171.813c-4.968,0-9.01-4.041-9.01-9.009V79.067c0-4.967,4.041-9.008,9.01-9.008h374.858  c4.967,0,9.009,4.04,9.009,9.008v83.735c0,4.967-4.041,9.009-9.009,9.009H72.584V171.813z"/>
<g>
	<rect x="63.574" y="217.114" style="fill:#FFFFFF;" width="165.314" height="77.768"/>
	<rect x="63.574" y="349.026" style="fill:#FFFFFF;" width="165.314" height="77.768"/>
	<rect x="282.123" y="217.114" style="fill:#FFFFFF;" width="165.314" height="77.768"/>
	<rect x="282.123" y="349.026" style="fill:#FFFFFF;" width="165.314" height="77.768"/>
</g>
<path style="opacity:0.1;enable-background:new    ;" d="M109.32,435.553V76.446c0-26.702,21.646-48.347,48.348-48.347H56.758  c-26.703,0-48.348,21.645-48.348,48.347v359.107c0,26.701,21.646,48.347,48.348,48.347h100.91  C130.965,483.9,109.32,462.254,109.32,435.553z"/>
<path d="M455.241,492.31H335.334c-4.645,0-8.409-3.764-8.409-8.409c0-4.645,3.764-8.409,8.409-8.409h119.907  c22.023,0,39.939-17.916,39.939-39.938V76.446c0-22.022-17.916-39.938-39.939-39.938h-74.545c-4.645,0-8.409-3.764-8.409-8.409  s3.764-8.409,8.409-8.409h74.545c31.296,0,56.758,25.461,56.758,56.756v359.107C512,466.849,486.538,492.31,455.241,492.31z   M301.697,492.31H56.758C25.462,492.31,0,466.849,0,435.553V76.446C0,45.15,25.462,19.689,56.758,19.689H347.06  c4.645,0,8.409,3.764,8.409,8.409s-3.764,8.409-8.409,8.409H56.758c-22.023,0-39.939,17.916-39.939,39.938v359.107  c0,22.022,17.916,39.938,39.939,39.938h244.94c4.645,0,8.409,3.764,8.409,8.409C310.106,488.546,306.342,492.31,301.697,492.31z"/>
<path d="M447.441,180.222H142.54c-4.645,0-8.409-3.764-8.409-8.409c0-4.645,3.764-8.409,8.409-8.409h304.902  c0.325,0,0.6-0.275,0.6-0.6V79.068c0-0.325-0.275-0.599-0.6-0.599H72.583c-0.325,0-0.6,0.274-0.6,0.599v83.737  c0,0.325,0.275,0.6,0.6,0.6h36.321c4.645,0,8.409,3.764,8.409,8.409c0,4.645-3.764,8.409-8.409,8.409H72.583  c-9.604,0-17.418-7.814-17.418-17.418V79.068c0-9.603,7.814-17.417,17.418-17.417h374.858c9.604,0,17.418,7.814,17.418,17.417  v83.737C464.86,172.409,457.046,180.222,447.441,180.222z"/>
<path d="M228.893,303.294H63.574c-4.645,0-8.409-3.764-8.409-8.409v-77.772c0-4.645,3.764-8.409,8.409-8.409h165.318  c4.645,0,8.409,3.764,8.409,8.409v77.772C237.302,299.53,233.537,303.294,228.893,303.294z M71.983,286.476h148.5v-60.953h-148.5  V286.476z"/>
<path d="M228.893,435.211H63.574c-4.645,0-8.409-3.764-8.409-8.409V349.03c0-4.645,3.764-8.409,8.409-8.409h165.318  c4.645,0,8.409,3.764,8.409,8.409v77.772C237.302,431.447,233.537,435.211,228.893,435.211z M71.983,418.393h148.5V357.44h-148.5  V418.393z"/>
<path d="M447.441,303.294H282.122c-4.645,0-8.409-3.764-8.409-8.409v-77.772c0-4.645,3.764-8.409,8.409-8.409h165.319  c4.645,0,8.409,3.764,8.409,8.409v77.772C455.85,299.53,452.086,303.294,447.441,303.294z M290.531,286.476h148.501v-60.953H290.531  V286.476z"/>
<path d="M447.441,435.211H282.122c-4.645,0-8.409-3.764-8.409-8.409V349.03c0-4.645,3.764-8.409,8.409-8.409h165.319  c4.645,0,8.409,3.764,8.409,8.409v77.772C455.85,431.447,452.086,435.211,447.441,435.211z M290.531,418.393h148.501V357.44H290.531  V418.393z"/>
<g>
</g>
<g>
</g>
<g>
</g>
<g>
</g>
<g>
</g>
<g>
</g>
<g>
</g>
<g>
</g>
<g>
</g>
<g>
</g>
<g>
</g>
<g>
</g>
<g>
</g>
<g>
</g>
<g>
</g>
</svg>
