<?xml version="1.0" encoding="iso-8859-1"?>
<!-- Generator: Adobe Illustrator 19.0.0, SVG Export Plug-In . SVG Version: 6.00 Build 0)  -->
<svg xmlns="http://www.w3.org/2000/svg" xmlns:xlink="http://www.w3.org/1999/xlink" version="1.1" id="Layer_1" x="0px" y="0px" viewBox="0 0 512 512" style="enable-background:new 0 0 512 512;" xml:space="preserve">
<path style="fill:#515262;" d="M367.921,7.902H144.079c-20.006,0-36.223,16.218-36.223,36.224v423.752  c0,20.006,16.217,36.223,36.223,36.223h223.843c20.006,0,36.223-16.217,36.223-36.223V44.124  C404.144,24.119,387.926,7.902,367.921,7.902z"/>
<rect x="150.234" y="77.277" style="fill:#A6E7FF;" width="211.53" height="331.95"/>
<circle style="fill:#E6E6E6;" cx="255.999" cy="457.174" r="21.053"/>
<path style="opacity:0.1;enable-background:new    ;" d="M181.604,467.877V44.124c0-20.006,16.217-36.224,36.223-36.224h-73.748  c-20.006,0-36.223,16.218-36.223,36.224v423.752c0,20.006,16.217,36.223,36.223,36.223h73.748  C197.821,504.099,181.604,487.882,181.604,467.877z"/>
<path d="M367.921,512h-33.362c-4.365,0-7.902-3.537-7.902-7.902s3.537-7.902,7.902-7.902h33.362  c15.616,0,28.321-12.705,28.321-28.32V154.13c0-4.365,3.537-7.902,7.902-7.902c4.365,0,7.902,3.537,7.902,7.902v313.748  C412.045,492.206,392.251,512,367.921,512z M302.953,512H144.079c-24.33,0-44.124-19.794-44.124-44.123V44.125  C99.954,19.794,119.748,0,144.079,0h223.843c24.33,0,44.124,19.794,44.124,44.125v78.398c0,4.365-3.537,7.902-7.902,7.902  c-4.365,0-7.902-3.537-7.902-7.902V44.125c0-15.617-12.706-28.322-28.321-28.322H144.079c-15.616,0-28.321,12.706-28.321,28.322  v423.752c0,15.616,12.706,28.32,28.321,28.32h158.874c4.365,0,7.902,3.537,7.902,7.902S307.316,512,302.953,512z"/>
<path d="M361.766,417.13h-211.53c-4.365,0-7.902-3.537-7.902-7.902V77.277c0-4.365,3.537-7.902,7.902-7.902h32.62  c4.365,0,7.902,3.537,7.902,7.902c0,4.365-3.537,7.902-7.902,7.902h-24.718v316.148h195.727V85.179H214.462  c-4.365,0-7.902-3.537-7.902-7.902c0-4.365,3.537-7.902,7.902-7.902h147.304c4.365,0,7.902,3.537,7.902,7.902v331.951  C369.667,413.592,366.129,417.13,361.766,417.13z"/>
<circle cx="255.999" cy="42.173" r="8.309"/>
<path d="M255.999,486.129c-15.965,0-28.954-12.988-28.954-28.953s12.989-28.954,28.954-28.954s28.954,12.989,28.954,28.954  S271.966,486.129,255.999,486.129z M255.999,444.023c-7.253,0-13.151,5.9-13.151,13.151s5.9,13.15,13.151,13.15  c7.252,0,13.151-5.9,13.151-13.15C269.152,449.923,263.252,444.023,255.999,444.023z"/>
<g>
</g>
<g>
</g>
<g>
</g>
<g>
</g>
<g>
</g>
<g>
</g>
<g>
</g>
<g>
</g>
<g>
</g>
<g>
</g>
<g>
</g>
<g>
</g>
<g>
</g>
<g>
</g>
<g>
</g>
</svg>
