<?xml version="1.0" encoding="iso-8859-1"?>
<!-- Generator: Adobe Illustrator 19.0.0, SVG Export Plug-In . SVG Version: 6.00 Build 0)  -->
<svg xmlns="http://www.w3.org/2000/svg" xmlns:xlink="http://www.w3.org/1999/xlink" version="1.1" id="Layer_1" x="0px" y="0px" viewBox="0 0 512.002 512.002" style="enable-background:new 0 0 512.002 512.002;" xml:space="preserve">
<polygon style="fill:#A6E7FF;" points="503.512,431.815 208.336,167.901 167.902,208.336 431.815,503.512 "/>
<polygon style="opacity:0.1;enable-background:new    ;" points="220.454,267.114 231.52,231.52 267.114,220.454 208.335,167.901   167.901,208.335 "/>
<path style="fill:#FFD782;" d="M221.468,31.897c0.245-19.116-21.538-30.215-36.86-18.781l-46.564,34.749  c-6.084,4.541-14.014,5.796-21.204,3.358L61.818,32.564c-18.106-6.14-35.393,11.147-29.253,29.253l18.659,55.022  c2.437,7.19,1.182,15.119-3.358,21.204l-34.749,46.564c-11.435,15.322-0.336,37.104,18.781,36.86l58.096-0.742  c7.592-0.096,14.744,3.547,19.128,9.746l33.547,47.436c11.038,15.61,35.186,11.786,40.86-6.472l17.246-55.481  c2.253-7.251,7.929-12.928,15.18-15.18l55.481-17.247c18.258-5.674,22.081-29.822,6.472-40.86l-47.436-33.547  c-6.199-4.383-9.842-11.537-9.746-19.128L221.468,31.897z"/>
<path d="M509.168,425.477l-195.484-174.78c-3.497-3.129-8.867-2.827-11.994,0.671c-3.127,3.498-2.827,8.867,0.671,11.994  l188.79,168.793l-58.994,58.994l-38.734-43.324c-3.127-3.498-8.498-3.798-11.994-0.671c-3.498,3.127-3.798,8.497-0.671,11.994  l44.721,50.02c1.556,1.741,3.76,2.764,6.095,2.829c0.079,0.002,0.16,0.003,0.238,0.003c2.249,0,4.411-0.892,6.007-2.487  l71.698-71.698c1.651-1.651,2.55-3.91,2.484-6.244C511.933,429.239,510.91,427.034,509.168,425.477z"/>
<path d="M203.587,235.505l5.295-17.033c1.424-4.581,5.008-8.166,9.591-9.59l17.032-5.295l41.474,37.081  c3.5,3.131,8.867,2.826,11.994-0.671c3.127-3.498,2.827-8.867-0.671-11.994l-33.885-30.296l19.535-6.073  c11.556-3.592,19.911-13.247,21.805-25.2c1.893-11.954-3.068-23.719-12.95-30.706l-47.436-33.547  c-3.917-2.77-6.219-7.289-6.159-12.085L229.954,32c0.155-12.101-6.447-23.031-17.229-28.525  c-10.781-5.497-23.506-4.412-33.204,2.827L132.957,41.05c-3.845,2.868-8.849,3.662-13.395,2.121L64.54,24.513  c-11.459-3.886-23.897-0.984-32.453,7.573c-8.558,8.558-11.459,20.993-7.573,32.453l2.229,6.573  c1.508,4.446,6.335,6.823,10.772,5.316c4.443-1.506,6.823-6.33,5.316-10.772l-2.229-6.573c-1.821-5.372-0.514-10.974,3.496-14.984  c4.011-4.009,9.612-5.316,14.984-3.496l55.022,18.659c9.839,3.338,20.685,1.62,29.011-4.595l46.564-34.749  c4.547-3.393,10.277-3.881,15.331-1.305c5.054,2.574,8.027,7.498,7.954,13.17l-0.742,58.097  c-0.131,10.387,4.853,20.172,13.335,26.17l47.437,33.547c4.63,3.276,6.866,8.575,5.978,14.178  c-0.888,5.602-4.651,9.951-10.068,11.634l-55.48,17.247c-9.924,3.084-17.689,10.849-20.772,20.771l-17.247,55.481  c-1.683,5.416-6.032,9.179-11.634,10.068c-5.602,0.889-10.903-1.347-14.178-5.978l-33.546-47.437  c-5.999-8.481-15.743-13.477-26.172-13.335l-58.096,0.742c-0.069,0-0.135,0.001-0.203,0.001c-5.587,0-10.423-2.963-12.967-7.955  c-2.574-5.054-2.087-10.785,1.305-15.331l34.749-46.564c6.214-8.327,7.932-19.172,4.595-29.011l-4.906-14.471  c-1.506-4.443-6.331-6.821-10.772-5.316c-4.443,1.506-6.823,6.329-5.316,10.772l4.906,14.471c1.54,4.544,0.748,9.551-2.121,13.395  L6.301,179.523c-7.239,9.699-8.321,22.421-2.827,33.204s16.453,17.367,28.525,17.229l58.095-0.742  c4.767-0.037,9.316,2.241,12.086,6.158c0,0,33.523,47.403,33.547,47.437c6.867,9.71,18.968,14.815,30.705,12.949  c11.954-1.893,21.609-10.249,25.201-21.804l6.073-19.535l160.366,179.363c1.677,1.877,4.002,2.833,6.336,2.833  c2.015,0,4.038-0.714,5.659-2.162c3.497-3.127,3.798-8.497,0.671-11.994L203.587,235.505z"/>
<g>
</g>
<g>
</g>
<g>
</g>
<g>
</g>
<g>
</g>
<g>
</g>
<g>
</g>
<g>
</g>
<g>
</g>
<g>
</g>
<g>
</g>
<g>
</g>
<g>
</g>
<g>
</g>
<g>
</g>
</svg>
