<?xml version="1.0" encoding="iso-8859-1"?>
<!-- Generator: Adobe Illustrator 19.0.0, SVG Export Plug-In . SVG Version: 6.00 Build 0)  -->
<svg xmlns="http://www.w3.org/2000/svg" xmlns:xlink="http://www.w3.org/1999/xlink" version="1.1" id="Layer_1" x="0px" y="0px" viewBox="0 0 512 512" style="enable-background:new 0 0 512 512;" xml:space="preserve">
<path style="fill:#E6E6E6;" d="M391.428,8.404H120.573c-17.327,0-31.374,14.046-31.374,31.374v432.443  c0,17.327,14.046,31.374,31.374,31.374h270.855c17.327,0,31.374-14.046,31.374-31.374V39.778  C422.801,22.451,408.755,8.404,391.428,8.404z"/>
<path style="fill:#515262;" d="M367.311,42.021H144.69c-12.081,0-21.875,9.793-21.875,21.875v384.21  c0,12.081,9.794,21.875,21.875,21.875h222.621c12.081,0,21.875-9.793,21.875-21.875V63.895  C389.185,51.814,379.392,42.021,367.311,42.021z"/>
<polygon style="fill:#E6E6E6;" points="256.001,115.391 162.926,256 256.001,396.61 349.075,256 "/>
<path style="opacity:0.1;enable-background:new    ;" d="M156.434,472.222V39.778c0-17.327,14.046-31.374,31.374-31.374h-67.234  c-17.327,0-31.374,14.046-31.374,31.374v432.443c0,17.327,14.046,31.374,31.374,31.374h67.234  C170.48,503.596,156.434,489.549,156.434,472.222z"/>
<path d="M391.428,512H337.04c-4.641,0-8.404-3.762-8.404-8.404c0-4.642,3.763-8.404,8.404-8.404h54.388  c12.666,0,22.969-10.305,22.969-22.97V39.778c0-12.666-10.304-22.969-22.969-22.969H120.572c-12.665,0-22.969,10.304-22.969,22.969  v432.443c0,12.666,10.304,22.97,22.969,22.97h184.623c4.641,0,8.404,3.762,8.404,8.404c0,4.643-3.763,8.404-8.404,8.404H120.572  c-21.933,0-39.778-17.845-39.778-39.779V39.778C80.796,17.845,98.64,0,120.572,0h270.855c21.934,0,39.778,17.845,39.778,39.778  v432.443C431.206,494.155,413.362,512,391.428,512z"/>
<path d="M367.311,478.383H144.69c-16.695,0-30.279-13.582-30.279-30.279V63.896c0-16.695,13.584-30.279,30.279-30.279h39.225  c4.641,0,8.404,3.762,8.404,8.404s-3.763,8.404-8.404,8.404H144.69c-7.427,0-13.47,6.043-13.47,13.47v384.21  c0,7.427,6.043,13.47,13.47,13.47h222.621c7.427,0,13.47-6.043,13.47-13.47V63.896c0-7.427-6.043-13.47-13.47-13.47H216.242  c-4.641,0-8.404-3.762-8.404-8.404s3.763-8.404,8.404-8.404h151.069c16.695,0,30.279,13.582,30.279,30.279v384.21  C397.589,464.801,384.006,478.383,367.311,478.383z"/>
<path d="M256.001,405.014c-2.82,0-5.452-1.414-7.008-3.765L155.918,260.64c-1.862-2.813-1.862-6.466,0-9.277l93.074-140.609  c1.556-2.352,4.188-3.765,7.008-3.765c2.819,0,5.452,1.414,7.008,3.765l41.707,63.008c2.563,3.87,1.502,9.084-2.369,11.647  c-3.87,2.563-9.084,1.5-11.647-2.369l-34.699-52.421L173.005,256l82.995,125.383L338.994,256l-28.465-43.003  c-2.753-3.021-2.959-7.683-0.303-10.952c0.053-0.065,0.126-0.151,0.189-0.225c1.686-1.982,4.195-3.079,6.809-2.946  c2.671,0.13,5.122,1.525,6.598,3.756l32.258,48.732c1.862,2.813,1.862,6.466,0,9.277l-93.074,140.609  C261.452,403.6,258.82,405.014,256.001,405.014z"/>
<g>
</g>
<g>
</g>
<g>
</g>
<g>
</g>
<g>
</g>
<g>
</g>
<g>
</g>
<g>
</g>
<g>
</g>
<g>
</g>
<g>
</g>
<g>
</g>
<g>
</g>
<g>
</g>
<g>
</g>
</svg>
