<?xml version="1.0" encoding="iso-8859-1"?>
<!-- Generator: Adobe Illustrator 19.0.0, SVG Export Plug-In . SVG Version: 6.00 Build 0)  -->
<svg xmlns="http://www.w3.org/2000/svg" xmlns:xlink="http://www.w3.org/1999/xlink" version="1.1" id="Layer_1" x="0px" y="0px" viewBox="0 0 511.999 511.999" style="enable-background:new 0 0 511.999 511.999;" xml:space="preserve">
<path style="fill:#D9D9D9;" d="M8.633,211.181v218.561c0,24.019,19.471,43.49,43.49,43.49h407.753  c24.019,0,43.49-19.471,43.49-43.49V211.181H8.633z"/>
<path style="fill:#FF6465;" d="M43.632,85.808c-19.33,0-34.999,15.669-34.999,34.999v90.375h494.734v-90.375  c0-19.33-15.669-34.999-34.999-34.999H43.632z"/>
<path style="opacity:0.1;enable-background:new    ;" d="M66.185,429.742V120.807c0-19.33,15.669-34.999,34.999-34.999H43.632  c-19.33,0-34.999,15.669-34.999,34.999v308.936c0,24.019,19.471,43.49,43.49,43.49h57.552  C85.656,473.232,66.185,453.761,66.185,429.742z"/>
<g>
	<path style="fill:#515262;" d="M97.732,134.522c-11.125,0-20.143-9.018-20.143-20.143V58.91c0-11.125,9.018-20.143,20.143-20.143   s20.143,9.018,20.143,20.143v55.469C117.875,125.504,108.857,134.522,97.732,134.522z"/>
	<path style="fill:#515262;" d="M203.244,134.522c-11.125,0-20.143-9.018-20.143-20.143V58.91c0-11.125,9.018-20.143,20.143-20.143   c11.125,0,20.143,9.018,20.143,20.143v55.469C223.387,125.504,214.369,134.522,203.244,134.522z"/>
	<path style="fill:#515262;" d="M308.756,134.522c-11.125,0-20.143-9.018-20.143-20.143V58.91c0-11.125,9.018-20.143,20.143-20.143   c11.125,0,20.143,9.018,20.143,20.143v55.469C328.899,125.504,319.881,134.522,308.756,134.522z"/>
	<path style="fill:#515262;" d="M414.268,134.522c-11.125,0-20.143-9.018-20.143-20.143V58.91c0-11.125,9.018-20.143,20.143-20.143   c11.125,0,20.143,9.018,20.143,20.143v55.469C434.411,125.504,425.393,134.522,414.268,134.522z"/>
</g>
<path d="M203.244,30.134c-15.867,0-28.776,12.909-28.776,28.776v18.265h-47.96V58.91c0-15.867-12.909-28.776-28.776-28.776  S68.956,43.043,68.956,58.91v18.265H43.632C19.572,77.175,0,96.747,0,120.807v27.378c0,4.768,3.865,8.633,8.633,8.633  s8.633-3.865,8.633-8.633v-27.378c0-14.539,11.827-26.366,26.366-26.366h25.323v19.938c0,15.867,12.909,28.776,28.776,28.776l0,0  l0,0c15.867,0,28.776-12.909,28.776-28.776V94.441h47.96v19.938c0,15.867,12.909,28.776,28.776,28.776s28.776-12.909,28.776-28.776  V94.441h47.96v19.938c0,15.867,12.909,28.776,28.776,28.776s28.776-12.909,28.776-28.776V94.441h47.961v19.938  c0,15.867,12.909,28.776,28.776,28.776c15.867,0,28.776-12.909,28.776-28.776V94.441h25.323c14.538,0,26.366,11.828,26.366,26.366  v21.929c0,4.768,3.865,8.633,8.633,8.633s8.633-3.865,8.633-8.633v-21.929c0-24.059-19.572-43.632-43.632-43.632h-25.323V58.91  c0-15.867-12.909-28.776-28.776-28.776c-15.867,0-28.776,12.909-28.776,28.776v18.265h-47.961V58.91  c0-15.867-12.909-28.776-28.776-28.776c-15.867,0-28.776,12.909-28.776,28.776v18.265h-47.96V58.91  C232.02,43.043,219.111,30.134,203.244,30.134z M109.241,114.379c0,6.347-5.164,11.51-11.51,11.51c-6.347,0-11.51-5.164-11.51-11.51  V58.91c0-6.347,5.164-11.51,11.51-11.51c6.347,0,11.51,5.164,11.51,11.51V114.379z M214.754,114.379c0,0.397-0.021,0.788-0.06,1.175  c-0.551,5.41-4.865,9.724-10.275,10.275c-0.387,0.039-0.778,0.06-1.175,0.06s-0.788-0.021-1.175-0.06  c-5.411-0.551-9.724-4.865-10.275-10.275c-0.039-0.387-0.06-0.778-0.06-1.175V58.91c0-6.347,5.164-11.51,11.51-11.51  c6.347,0,11.51,5.164,11.51,11.51V114.379z M402.757,58.91c0-6.347,5.164-11.51,11.51-11.51s11.51,5.164,11.51,11.51v55.469  c0,0.397-0.021,0.788-0.06,1.175c-0.551,5.41-4.865,9.724-10.275,10.275c-0.387,0.039-0.778,0.06-1.175,0.06  c-0.397,0-0.788-0.021-1.175-0.06c-5.411-0.551-9.724-4.865-10.275-10.275c-0.039-0.387-0.06-0.778-0.06-1.175V58.91z   M297.246,58.91c0-6.347,5.164-11.51,11.51-11.51c6.347,0,11.51,5.164,11.51,11.51v55.469c0,0.397-0.021,0.788-0.06,1.175  c-0.551,5.41-4.865,9.724-10.275,10.275c-0.387,0.039-0.778,0.06-1.175,0.06c-0.397,0-0.788-0.021-1.175-0.06  c-5.411-0.551-9.724-4.865-10.275-10.275c-0.039-0.387-0.06-0.778-0.06-1.175V58.91z"/>
<path d="M459.876,481.865c28.741,0,52.123-23.382,52.123-52.123V177.267c0-4.768-3.865-8.633-8.633-8.633s-8.633,3.865-8.633,8.633  v25.282H17.266v-19.833c0-4.768-3.865-8.633-8.633-8.633S0,177.948,0,182.716v247.026c0,28.741,23.382,52.123,52.123,52.123H459.876  z M422.901,219.814h71.832v67.115h-71.832V219.814z M422.901,304.194h71.832v68.774h-71.832V304.194z M422.901,390.233h71.832  v39.509c0,19.22-15.637,34.857-34.857,34.857h-36.975L422.901,390.233L422.901,390.233z M317.389,219.814h88.247v67.115h-88.247  V219.814z M317.389,304.194h88.247v68.774h-88.247V304.194z M317.389,390.233h88.247v74.366h-88.247V390.233z M211.877,219.814  h88.246v67.115h-88.246L211.877,219.814L211.877,219.814z M211.877,304.194h88.246v68.774h-88.246L211.877,304.194L211.877,304.194z   M211.877,390.233h88.246v74.366h-88.246L211.877,390.233L211.877,390.233z M106.365,219.814h88.246v67.115h-88.246V219.814z   M106.365,304.194h88.246v68.774h-88.246V304.194z M106.365,390.233h88.246v74.366h-88.246V390.233z M17.266,219.814h71.833v67.115  H17.266V219.814z M17.266,304.194h71.833v68.774H17.266V304.194z M17.266,429.742v-39.509h71.833v74.366H52.123  C32.903,464.599,17.266,448.962,17.266,429.742z"/>
<g>
</g>
<g>
</g>
<g>
</g>
<g>
</g>
<g>
</g>
<g>
</g>
<g>
</g>
<g>
</g>
<g>
</g>
<g>
</g>
<g>
</g>
<g>
</g>
<g>
</g>
<g>
</g>
<g>
</g>
</svg>
