<?xml version="1.0" encoding="iso-8859-1"?>
<!-- Generator: Adobe Illustrator 19.0.0, SVG Export Plug-In . SVG Version: 6.00 Build 0)  -->
<svg xmlns="http://www.w3.org/2000/svg" xmlns:xlink="http://www.w3.org/1999/xlink" version="1.1" id="Layer_1" x="0px" y="0px" viewBox="0 0 511.999 511.999" style="enable-background:new 0 0 511.999 511.999;" xml:space="preserve">
<rect x="30.09" y="121.825" style="fill:#FFFFFF;" width="360.094" height="360.094"/>
<polygon style="fill:#7DD2F0;" points="276.562,195.933 179.588,292.908 148.787,262.108 120.529,390.652 249.073,362.391   218.273,331.592 314.429,235.437 "/>
<path style="fill:#B4BBCC;" d="M368.295,214.075v225.968c0,11.036-8.947,19.983-19.983,19.983H71.956  c-11.036,0-19.983-8.947-19.983-19.983V163.687c0-11.036,8.947-19.983,19.983-19.983h225.319V99.937H30.09  c-12.086,0-21.884,9.797-21.884,21.884V481.91c0,12.086,9.797,21.884,21.884,21.884h360.089c12.086,0,21.884-9.797,21.884-21.884  V214.075H368.295z"/>
<path style="opacity:0.1;enable-background:new    ;" d="M276.562,195.933l-31.134,31.134c4.819,18.898,19.506,33.881,38.223,39.148  l30.776-30.776L276.562,195.933z"/>
<g style="opacity:0.1;">
	<rect x="368.3" y="214.075" width="43.767" height="54.184"/>
	<rect x="243.739" y="99.942" width="53.538" height="43.767"/>
</g>
<path style="fill:#C7CFE2;" d="M481.91,235.437H298.446c-12.086,0-21.884-9.797-21.884-21.884V30.089  c0-12.086,9.797-21.884,21.884-21.884H481.91c12.086,0,21.884,9.797,21.884,21.884v183.463  C503.794,225.64,493.996,235.437,481.91,235.437z"/>
<path d="M481.91,0.001H356.94c-4.532,0-8.206,3.673-8.206,8.206s3.674,8.206,8.206,8.206h124.97c7.542,0,13.677,6.135,13.677,13.677  v183.463c0,7.542-6.135,13.677-13.677,13.677H314.429h-15.982c-7.542,0-13.677-6.135-13.677-13.677v-17.621V30.09  c0-7.542,6.135-13.677,13.677-13.677h25.687c4.532,0,8.206-3.673,8.206-8.206s-3.674-8.206-8.206-8.206h-25.687  c-16.592,0-30.09,13.499-30.09,30.09v61.642H30.09C13.498,91.732,0,105.231,0,121.822v360.086c0,16.591,13.498,30.09,30.09,30.09  h263.035c4.532,0,8.206-3.673,8.206-8.206c0-4.533-3.674-8.206-8.206-8.206H30.09c-7.542,0-13.677-6.135-13.677-13.677V121.822  c0-7.542,6.135-13.677,13.677-13.677h238.266v27.354H136.08c-4.532,0-8.206,3.673-8.206,8.206s3.674,8.206,8.206,8.206h132.277  v40.621l-88.77,88.769l-24.998-24.998c-2.121-2.121-5.228-2.915-8.106-2.073c-2.878,0.841-5.068,3.185-5.712,6.114l-28.258,128.544  c-0.601,2.734,0.233,5.585,2.212,7.565c1.556,1.555,3.65,2.403,5.802,2.403c0.586,0,1.177-0.063,1.762-0.191l128.543-28.26  c2.929-0.644,5.273-2.834,6.114-5.712c0.841-2.879,0.046-5.986-2.075-8.107l-24.998-24.997l87.95-87.949h42.26v196.4  c0,6.494-5.283,11.777-11.777,11.777H71.956c-6.494,0-11.777-5.283-11.777-11.777V163.687c0-6.494,5.283-11.777,11.777-11.777  h31.298c4.532,0,8.206-3.673,8.206-8.206s-3.674-8.206-8.206-8.206H71.956c-15.544,0.001-28.189,12.645-28.189,28.189v276.354  c0,15.544,12.645,28.189,28.189,28.189h276.354c15.544,0,28.189-12.645,28.189-28.189V243.643h27.354v238.265  c0,7.542-6.135,13.677-13.677,13.677h-64.228c-4.532,0-8.206,3.673-8.206,8.206c0,4.533,3.674,8.206,8.206,8.206h64.228  c16.592,0,30.09-13.499,30.09-30.09V243.643h61.642c16.592,0,30.09-13.499,30.09-30.09V30.09C512,13.499,498.502,0.001,481.91,0.001  z M212.47,325.789c-1.54,1.54-2.404,3.626-2.404,5.803s0.864,4.263,2.404,5.804l20.201,20.2l-101.371,22.287l22.285-101.372  l20.201,20.2c3.205,3.204,8.401,3.204,11.605,0l83.039-83.039c0.005,0.08,0.021,0.156,0.027,0.236  c1.093,13.851,12.29,25.707,26.141,27.481c0.079,0.01,0.154,0.03,0.233,0.038L212.47,325.789z"/>
<g>
</g>
<g>
</g>
<g>
</g>
<g>
</g>
<g>
</g>
<g>
</g>
<g>
</g>
<g>
</g>
<g>
</g>
<g>
</g>
<g>
</g>
<g>
</g>
<g>
</g>
<g>
</g>
<g>
</g>
</svg>
