<?xml version="1.0" encoding="iso-8859-1"?>
<!-- Generator: Adobe Illustrator 19.0.0, SVG Export Plug-In . SVG Version: 6.00 Build 0)  -->
<svg xmlns="http://www.w3.org/2000/svg" xmlns:xlink="http://www.w3.org/1999/xlink" version="1.1" id="Layer_1" x="0px" y="0px" viewBox="0 0 511.999 511.999" style="enable-background:new 0 0 511.999 511.999;" xml:space="preserve">
<path style="fill:#FF6465;" d="M392.91,99.398H119.091c-18.348,0-33.223,14.874-33.223,33.222v246.76  c0,18.349,14.874,33.222,33.223,33.222H392.91c18.349,0,33.223-14.874,33.223-33.222v-246.76  C426.132,114.271,411.258,99.398,392.91,99.398z"/>
<path style="fill:#515262;" d="M129.966,198.15c-3.415,0-6.191-2.778-6.191-6.19v-57.539c0-3.414,2.778-6.189,6.191-6.189H387.55  c3.414,0,6.19,2.776,6.19,6.189v57.539c0,3.414-2.778,6.19-6.19,6.19H129.966z"/>
<g>
	<rect x="123.77" y="229.274" style="fill:#FFFFFF;" width="113.602" height="53.438"/>
	<rect x="123.77" y="319.924" style="fill:#FFFFFF;" width="113.602" height="53.438"/>
	<rect x="273.946" y="229.274" style="fill:#FFFFFF;" width="113.602" height="53.438"/>
	<rect x="273.946" y="319.924" style="fill:#FFFFFF;" width="113.602" height="53.438"/>
</g>
<g>
	<polygon style="fill:#515262;" points="7.846,304.329 7.846,225.691 60.024,265.01  "/>
	<polygon style="fill:#515262;" points="504.154,304.329 504.154,225.691 451.976,265.01  "/>
</g>
<path style="opacity:0.1;enable-background:new    ;" d="M169.561,379.38v-246.76c0-18.348,14.874-33.222,33.223-33.222h-83.692  c-18.348,0-33.223,14.874-33.223,33.222v246.761c0,18.348,14.874,33.222,33.223,33.222h83.692  C184.435,412.602,169.561,397.728,169.561,379.38z"/>
<path d="M392.91,420.447H201.816c-4.333,0-7.846-3.512-7.846-7.846c0-4.334,3.513-7.846,7.846-7.846H392.91  c13.992,0,25.377-11.383,25.377-25.376v-246.76c0-13.992-11.383-25.375-25.377-25.375h-44.444c-4.333,0-7.846-3.512-7.846-7.846  c0-4.334,3.513-7.846,7.846-7.846h44.444c22.645,0,41.069,18.423,41.069,41.068v246.761  C433.979,402.025,415.555,420.447,392.91,420.447z M170.431,420.447H119.09c-22.645,0-41.069-18.423-41.069-41.068v-246.76  c0-22.645,18.423-41.068,41.069-41.068h197.991c4.333,0,7.846,3.512,7.846,7.846c0,4.334-3.513,7.846-7.846,7.846H119.09  c-13.992,0-25.377,11.383-25.377,25.375v246.761c0,13.992,11.383,25.376,25.377,25.376h51.341c4.333,0,7.846,3.512,7.846,7.846  C178.277,416.937,174.764,420.447,170.431,420.447z"/>
<path d="M387.55,205.996H129.966c-7.74,0-14.037-6.297-14.037-14.036v-57.539c0-7.738,6.297-14.035,14.037-14.035h26.759  c4.333,0,7.846,3.512,7.846,7.846c0,4.334-3.513,7.846-7.846,7.846h-25.104v54.226h254.274v-54.226H187.715  c-4.333,0-7.846-3.512-7.846-7.846c0-4.334,3.513-7.846,7.846-7.846H387.55c7.739,0,14.036,6.297,14.036,14.035v57.539  C401.586,199.701,395.289,205.996,387.55,205.996z"/>
<path d="M237.373,290.566h-113.6c-4.333,0-7.846-3.512-7.846-7.846v-53.442c0-4.334,3.513-7.846,7.846-7.846h113.599  c4.333,0,7.846,3.512,7.846,7.846v53.442C245.219,287.055,241.706,290.566,237.373,290.566z M131.62,274.874h97.906v-37.749H131.62  C131.62,237.125,131.62,274.874,131.62,274.874z"/>
<path d="M237.373,381.214h-113.6c-4.333,0-7.846-3.512-7.846-7.846v-53.441c0-4.334,3.513-7.846,7.846-7.846h113.599  c4.333,0,7.846,3.512,7.846,7.846v53.441C245.219,377.701,241.706,381.214,237.373,381.214z M131.62,365.521h97.906v-37.748H131.62  C131.62,327.773,131.62,365.521,131.62,365.521z"/>
<path d="M387.55,290.566h-113.6c-4.333,0-7.846-3.512-7.846-7.846v-53.442c0-4.334,3.513-7.846,7.846-7.846h113.599  c4.333,0,7.846,3.512,7.846,7.846v53.442C395.396,287.055,391.883,290.566,387.55,290.566z M281.796,274.874h97.906v-37.749h-97.906  V274.874z"/>
<path d="M387.55,381.214h-113.6c-4.333,0-7.846-3.512-7.846-7.846v-53.441c0-4.334,3.513-7.846,7.846-7.846h113.599  c4.333,0,7.846,3.512,7.846,7.846v53.441C395.396,377.701,391.883,381.214,387.55,381.214z M281.796,365.521h97.906v-37.748h-97.906  V365.521z"/>
<path d="M7.845,312.175c-1.194,0-2.392-0.272-3.5-0.824C1.682,310.024,0,307.304,0,304.329v-78.637c0-2.975,1.682-5.694,4.345-7.022  c2.664-1.329,5.847-1.035,8.223,0.755l52.178,39.319c1.967,1.483,3.124,3.804,3.124,6.266s-1.157,4.783-3.124,6.266l-52.178,39.319  C11.181,311.641,9.519,312.175,7.845,312.175z M15.692,241.429v47.163l31.295-23.581L15.692,241.429z"/>
<path d="M504.155,312.175c-1.674,0-3.335-0.535-4.723-1.58l-52.178-39.319c-1.967-1.483-3.124-3.804-3.124-6.266  s1.157-4.783,3.124-6.266l52.178-39.319c2.376-1.791,5.56-2.083,8.223-0.755c2.662,1.328,4.345,4.047,4.345,7.022v78.637  c0,2.975-1.682,5.694-4.345,7.022C506.546,311.904,505.348,312.175,504.155,312.175z M465.013,265.01l31.295,23.581v-47.163  L465.013,265.01z"/>
<g>
</g>
<g>
</g>
<g>
</g>
<g>
</g>
<g>
</g>
<g>
</g>
<g>
</g>
<g>
</g>
<g>
</g>
<g>
</g>
<g>
</g>
<g>
</g>
<g>
</g>
<g>
</g>
<g>
</g>
</svg>
