<?xml version="1.0" encoding="iso-8859-1"?>
<!-- Generator: Adobe Illustrator 19.0.0, SVG Export Plug-In . SVG Version: 6.00 Build 0)  -->
<svg xmlns="http://www.w3.org/2000/svg" xmlns:xlink="http://www.w3.org/1999/xlink" version="1.1" id="Layer_1" x="0px" y="0px" viewBox="0 0 512.001 512.001" style="enable-background:new 0 0 512.001 512.001;" xml:space="preserve">
<path style="fill:#A5EB78;" d="M503.671,256.002c0-136.786-110.886-247.672-247.671-247.672S8.329,119.217,8.329,256.002  s110.886,247.671,247.671,247.671S503.671,392.787,503.671,256.002z"/>
<path style="fill:#FFFFFF;" d="M161.977,387.615l90.081-46.736c2.471-1.282,5.412-1.282,7.883,0l90.081,46.736  c7.025,3.645,14.808-3.38,11.902-10.741l-97.963-248.063c-2.851-7.22-13.069-7.22-15.921,0l-97.964,248.063  C147.169,384.235,154.953,391.259,161.977,387.615z"/>
<path style="opacity:0.1;enable-background:new    ;" d="M74.96,256.002c0-125.485,93.327-229.158,214.356-245.433  c-10.899-1.466-22.016-2.238-33.316-2.238C119.215,8.331,8.329,119.217,8.329,256.002s110.886,247.671,247.672,247.671  c11.3,0,22.417-0.772,33.316-2.238C168.288,485.16,74.96,381.487,74.96,256.002z"/>
<path d="M383.614,43.552c2.239-4.019,0.795-9.091-3.224-11.33C342.547,11.144,299.534,0.002,255.999,0.002  c-68.379,0-132.667,26.629-181.019,74.98C26.629,123.334,0,187.622,0,256.002c0,45.308,11.998,89.832,34.698,128.755  c22.023,37.762,53.557,69.487,91.196,91.743c1.33,0.786,2.791,1.16,4.231,1.16c2.849,0,5.623-1.461,7.177-4.091  c2.341-3.959,1.029-9.067-2.931-11.408c-35.199-20.813-64.69-50.481-85.285-85.795c-21.215-36.381-32.43-78.002-32.43-120.364  c0-63.931,24.896-124.035,70.102-169.241S192.07,16.66,255.999,16.66c40.703,0,80.914,10.413,116.284,30.115  C376.305,49.016,381.376,47.571,383.614,43.552z"/>
<path d="M409.895,51.417c-3.676-2.767-8.896-2.033-11.664,1.64c-2.767,3.674-2.033,8.896,1.64,11.664  c29.006,21.852,53.032,50.452,69.484,82.71c17.243,33.811,25.986,70.34,25.987,108.571c0,63.931-24.896,124.035-70.102,169.24  c-45.206,45.206-105.31,70.102-169.24,70.102c-31.631,0-62.385-6.086-91.406-18.089c-4.251-1.758-9.122,0.263-10.88,4.513  c-1.758,4.25,0.263,9.122,4.513,10.88c31.05,12.842,63.946,19.353,97.773,19.353c68.381,0,132.667-26.629,181.019-74.98  c48.352-48.352,74.98-112.639,74.98-181.019c0-40.887-9.355-79.961-27.806-116.139C466.601,105.366,440.909,74.782,409.895,51.417z"/>
<path d="M255.787,131.87c0.03-0.076,0.053-0.112,0.052-0.118c0.074-0.037,0.258-0.036,0.307-0.013c0,0,0.028,0.034,0.067,0.131  l49.039,124.176c1.689,4.279,6.527,6.379,10.805,4.688c4.279-1.689,6.377-6.528,4.688-10.805l-49.039-124.176  c-2.563-6.491-8.729-10.685-15.707-10.685c-6.979,0-13.143,4.194-15.706,10.684l-97.964,248.063  c-2.614,6.617-0.89,13.973,4.392,18.74c5.281,4.766,12.773,5.73,19.091,2.453l90.083-46.736c0.067-0.033,0.144-0.033,0.21,0  l90.083,46.736c2.491,1.293,5.164,1.925,7.814,1.925c4.068,0,8.078-1.493,11.277-4.379c5.282-4.766,7.006-12.122,4.392-18.74  l-35.586-90.11c-1.689-4.278-6.525-6.378-10.805-4.688c-4.279,1.689-6.377,6.528-4.688,10.805l35.586,90.11  c0.029,0.074,0.039,0.12,0.043,0.124c-0.033,0.081-0.173,0.205-0.22,0.221c0,0-0.047-0.008-0.142-0.058l-90.081-46.735  c-4.87-2.528-10.685-2.528-15.555,0l-90.081,46.735c-0.071,0.038-0.115,0.051-0.12,0.057c-0.083-0.026-0.221-0.151-0.242-0.197  c0,0,0.002-0.047,0.043-0.148L255.787,131.87z"/>
<g>
</g>
<g>
</g>
<g>
</g>
<g>
</g>
<g>
</g>
<g>
</g>
<g>
</g>
<g>
</g>
<g>
</g>
<g>
</g>
<g>
</g>
<g>
</g>
<g>
</g>
<g>
</g>
<g>
</g>
</svg>
