<?xml version="1.0" encoding="iso-8859-1"?>
<!-- Generator: Adobe Illustrator 19.0.0, SVG Export Plug-In . SVG Version: 6.00 Build 0)  -->
<svg xmlns="http://www.w3.org/2000/svg" xmlns:xlink="http://www.w3.org/1999/xlink" version="1.1" id="Layer_1" x="0px" y="0px" viewBox="0 0 511.999 511.999" style="enable-background:new 0 0 511.999 511.999;" xml:space="preserve">
<g>
	<polygon style="fill:#6AB2CC;" points="255.999,313.244 133.096,175.677 8.909,175.677 255.998,470.198 255.999,470.2  "/>
	<polygon style="fill:#6AB2CC;" points="503.09,175.677 378.904,175.677 378.903,175.677 378.903,175.677 255.999,313.244    255.999,470.2 255.999,470.199 255.999,470.199  "/>
</g>
<g>
	<polygon style="fill:#7DD2F0;" points="133.096,175.677 255.999,470.2 378.904,175.677  "/>
	<polygon style="fill:#7DD2F0;" points="194.917,41.801 88.665,41.801 8.909,175.677 133.096,175.677 133.096,175.677    255.999,108.771  "/>
	<polygon style="fill:#7DD2F0;" points="423.334,41.801 317.082,41.801 317.082,41.801 255.999,108.771 378.904,175.677    378.904,175.677 503.09,175.677  "/>
</g>
<polygon style="fill:#6AB2CC;" points="194.917,41.801 133.096,175.677 378.904,175.677 317.082,41.801 "/>
<path d="M510.745,180.218c0.028-0.049,0.064-0.09,0.091-0.139c0.084-0.148,0.146-0.307,0.221-0.459  c0.082-0.166,0.17-0.328,0.241-0.498c0.091-0.22,0.163-0.443,0.236-0.668c0.052-0.159,0.114-0.315,0.157-0.478  c0.069-0.257,0.113-0.516,0.158-0.776c0.024-0.137,0.059-0.27,0.076-0.408c0.046-0.365,0.067-0.731,0.067-1.097  c0-0.037,0.006-0.072,0.006-0.108c-0.004-0.403-0.038-0.804-0.096-1.203c-0.019-0.127-0.055-0.252-0.078-0.378  c-0.052-0.272-0.105-0.544-0.183-0.811c-0.043-0.148-0.103-0.293-0.154-0.44c-0.084-0.241-0.168-0.482-0.273-0.716  c-0.019-0.043-0.03-0.087-0.049-0.128c-0.055-0.118-0.128-0.222-0.188-0.337c-0.08-0.152-0.144-0.309-0.233-0.457L430.99,37.241  c-1.607-2.698-4.514-4.349-7.654-4.349H88.665c-3.14,0-6.048,1.653-7.654,4.349L1.255,171.117c-0.088,0.149-0.153,0.305-0.233,0.457  c-0.059,0.114-0.133,0.22-0.188,0.337c-0.02,0.042-0.03,0.087-0.049,0.128c-0.106,0.235-0.189,0.475-0.273,0.716  c-0.051,0.147-0.112,0.291-0.154,0.44c-0.077,0.267-0.131,0.539-0.183,0.811c-0.024,0.126-0.061,0.251-0.078,0.378  c-0.058,0.399-0.091,0.801-0.096,1.203c0,0.036,0.006,0.071,0.006,0.108c0.001,0.366,0.021,0.732,0.067,1.097  c0.018,0.137,0.052,0.271,0.076,0.407c0.045,0.26,0.089,0.52,0.158,0.776c0.043,0.162,0.105,0.318,0.157,0.478  c0.074,0.225,0.145,0.448,0.236,0.668c0.071,0.17,0.159,0.333,0.241,0.498c0.075,0.152,0.137,0.309,0.221,0.459  c0.027,0.049,0.063,0.09,0.091,0.139c0.093,0.157,0.2,0.307,0.302,0.457c0.132,0.195,0.265,0.386,0.411,0.568  c0.042,0.051,0.072,0.109,0.116,0.16L129.182,332.9c3.162,3.771,8.784,4.264,12.553,1.1c3.77-3.164,4.263-8.784,1.099-12.553  L28.014,184.588h99.145l98.119,235.131l-59.45-70.86c-3.162-3.771-8.783-4.261-12.553-1.1c-3.77,3.164-4.263,8.784-1.099,12.553  l96.958,115.57c0.004,0.005,0.007,0.008,0.011,0.012l0.027,0.033c0.031,0.038,0.068,0.069,0.1,0.106  c0.152,0.175,0.311,0.345,0.478,0.508c0.064,0.063,0.127,0.127,0.192,0.189c0.029,0.026,0.053,0.055,0.082,0.08  c0.006,0.006,0.012,0.012,0.018,0.017c0.138,0.124,0.286,0.24,0.434,0.356c0.061,0.048,0.118,0.099,0.178,0.145  c0.096,0.072,0.2,0.138,0.299,0.207c0.069,0.048,0.137,0.094,0.206,0.139c0.07,0.045,0.135,0.096,0.207,0.139  c0.006,0.004,0.013,0.006,0.02,0.011c0.216,0.131,0.441,0.245,0.665,0.355c0.057,0.029,0.11,0.062,0.169,0.088  c0.058,0.026,0.116,0.051,0.173,0.077c0.102,0.045,0.207,0.081,0.31,0.122c0.198,0.078,0.396,0.157,0.599,0.221  c0.064,0.02,0.129,0.039,0.195,0.058c0.112,0.033,0.225,0.059,0.336,0.087c0.21,0.052,0.421,0.096,0.633,0.133  c0.088,0.015,0.173,0.037,0.261,0.05c0.063,0.009,0.127,0.015,0.19,0.023c0.343,0.042,0.689,0.068,1.037,0.069  c0.013,0,0.025,0.002,0.038,0.002c0.001,0,0.002,0,0.002,0c0.001,0,0.002,0,0.002,0s0.001,0,0.002,0h0.002  c0.012,0,0.025-0.002,0.037-0.002c0.348-0.001,0.694-0.027,1.038-0.07c0.063-0.007,0.125-0.013,0.188-0.023  c0.089-0.013,0.175-0.036,0.263-0.05c0.214-0.037,0.427-0.081,0.637-0.134c0.111-0.027,0.22-0.053,0.33-0.086  c0.067-0.019,0.132-0.038,0.198-0.059c0.206-0.065,0.405-0.144,0.606-0.223c0.101-0.04,0.202-0.075,0.301-0.119  c0.058-0.025,0.118-0.05,0.175-0.077c0.058-0.027,0.114-0.062,0.171-0.09c0.225-0.11,0.447-0.223,0.663-0.354  c0.007-0.004,0.014-0.006,0.02-0.011c0.071-0.044,0.137-0.094,0.207-0.139c0.07-0.045,0.138-0.091,0.206-0.139  c0.1-0.069,0.203-0.134,0.301-0.207c0.061-0.045,0.118-0.096,0.176-0.144c0.147-0.116,0.296-0.233,0.435-0.358  c0.006-0.006,0.012-0.012,0.018-0.017c0.029-0.026,0.055-0.055,0.083-0.081c0.065-0.061,0.128-0.124,0.191-0.187  c0.166-0.164,0.327-0.334,0.479-0.51c0.032-0.037,0.068-0.069,0.1-0.106l0.027-0.033c0.004-0.004,0.007-0.008,0.011-0.012  l247.053-294.477c0.043-0.051,0.075-0.108,0.116-0.16c0.146-0.182,0.279-0.374,0.411-0.568  C510.546,180.525,510.652,180.375,510.745,180.218z M487.411,166.767H384.603l-2.113-4.575L331.01,50.712h87.259L487.411,166.767z   M24.589,166.767l69.14-116.055h87.259l-13.611,29.476c-2.062,4.468-0.114,9.762,4.354,11.825c4.468,2.061,9.762,0.113,11.824-4.354  l17.061-36.947h110.765l53.592,116.055H147.026l20.073-43.469c0.645-1.396,0.897-2.873,0.804-4.307  c-0.206-3.154-2.086-6.1-5.158-7.519c-0.614-0.284-1.245-0.484-1.879-0.62c-3.695-0.791-7.561,0.848-9.521,4.166  c-0.153,0.259-0.295,0.529-0.424,0.808l-23.523,50.941H24.589z M286.72,419.72l63.915-153.164c1.895-4.542-0.249-9.759-4.791-11.656  c-4.538-1.893-9.758,0.252-11.654,4.791l-78.189,187.37L146.47,184.588H365.53l-16.468,39.464  c-1.895,4.542,0.249,9.759,4.791,11.656c4.539,1.895,9.759-0.251,11.654-4.791l19.332-46.328h99.145L286.72,419.72z"/>
<g>
</g>
<g>
</g>
<g>
</g>
<g>
</g>
<g>
</g>
<g>
</g>
<g>
</g>
<g>
</g>
<g>
</g>
<g>
</g>
<g>
</g>
<g>
</g>
<g>
</g>
<g>
</g>
<g>
</g>
</svg>
