<?xml version="1.0" encoding="iso-8859-1"?>
<!-- Generator: Adobe Illustrator 19.0.0, SVG Export Plug-In . SVG Version: 6.00 Build 0)  -->
<svg xmlns="http://www.w3.org/2000/svg" xmlns:xlink="http://www.w3.org/1999/xlink" version="1.1" id="Layer_1" x="0px" y="0px" viewBox="0 0 512 512" style="enable-background:new 0 0 512 512;" xml:space="preserve">
<path style="fill:#7DD2F0;" d="M502.939,28.748c0-10.872-8.814-19.686-19.686-19.686H28.748c-10.872,0-19.686,8.814-19.686,19.686  v455.637c0,10.872,8.814,19.686,19.686,19.686h454.504c10.872,0,19.686-8.814,19.686-19.686V28.748z"/>
<path style="opacity:0.1;enable-background:new    ;" d="M65.7,483.535V27.898c0-10.872,8.814-19.686,19.686-19.686H28.748  c-10.872,0-19.686,8.814-19.686,19.686v455.637c0,10.872,8.814,19.686,19.686,19.686h56.637  C74.514,503.221,65.7,494.407,65.7,483.535z"/>
<g>
	<path style="fill:#FFFFFF;" d="M310.875,321.48l-0.196-0.253c-4.959-5.951-12.715-9.505-20.744-9.505   c-5.485,0-10.769,1.674-14.88,4.712l-0.137,0.105c-15.972,12.776-34.96,19.254-56.44,19.254c-23.32,0-45.754-8.979-63.097-25.214   c-16.213-15.853-25.511-38.019-25.511-60.817c0-22.693,8.822-43.722,25.512-60.816c17.406-16.259,39.809-25.215,63.096-25.215   c21.528,0,41.031,6.648,56.477,19.285c4.165,3.26,9.533,5.054,15.115,5.054c8.01,0,15.736-3.679,20.666-9.841l0.139-0.184   c8.041-11.168,6.083-26.796-4.458-35.579l-0.119-0.095c-24.954-19.41-55.323-29.669-87.844-29.669   c-76.604,0.383-139.236,61.857-139.615,137.083c0.379,75.563,63.021,137.038,139.638,137.038c32.498,0,62.867-10.259,87.852-29.693   C316.941,348.732,318.98,332.738,310.875,321.48z"/>
	<path style="fill:#FFFFFF;" d="M388.91,234.157v5.392h11.554c11.554,0,21.182,9.243,21.182,21.182   c0,11.554-9.628,21.182-21.182,21.182H388.91v135.951c0,11.554-9.243,21.182-21.182,21.182c-11.939,0-21.182-9.628-21.182-21.182   V281.914h-10.013c-11.939,0-21.567-9.628-21.567-21.182c0-11.939,9.628-21.182,21.567-21.182h10.013v-5.392   c0-14.25,1.541-26.573,7.318-37.742c5.392-11.554,16.176-20.412,27.728-23.878c7.703-2.311,15.02-3.081,23.108-3.081   c11.554,0,21.182,9.628,21.182,21.182c0,11.939-9.628,21.567-21.182,21.567c-5.007,0-8.473,0.385-10.013,1.155   c-1.541,0.385-1.926,0.77-2.311,1.155C391.992,214.517,388.91,219.909,388.91,234.157z"/>
</g>
<path d="M417.517,512h65.734c15.54,0,28.182-12.643,28.182-28.182V28.182C511.434,12.643,498.792,0,483.252,0H116.178  c-4.692,0-8.496,3.804-8.496,8.496s3.804,8.496,8.496,8.496h367.073c6.171,0,11.19,5.02,11.19,11.19v455.637  c0,6.17-5.02,11.19-11.19,11.19h-65.734c-4.692,0-8.496,3.804-8.496,8.496S412.825,512,417.517,512z"/>
<path d="M82.196,0H28.748C13.209,0,0.567,12.643,0.567,28.182v455.637C0.567,499.357,13.209,512,28.748,512h354.787  c4.692,0,8.496-3.804,8.496-8.496s-3.804-8.496-8.496-8.496H28.748c-6.17,0-11.19-5.02-11.19-11.19V28.182  c0-6.171,5.02-11.19,11.19-11.19h53.448c4.692,0,8.496-3.804,8.496-8.496S86.888,0,82.196,0z"/>
<path d="M89.845,196.048c-4.391-1.649-9.29,0.573-10.94,4.966c-5.971,15.895-9.042,32.577-9.128,49.665  c0.403,80.224,66.856,145.491,148.133,145.491c34.406,0,66.588-10.887,93.125-31.528c14.121-11.179,16.887-32.387,6.167-47.276  c-0.06-0.084-0.121-0.167-0.186-0.248l-0.196-0.253c-0.059-0.076-0.12-0.152-0.182-0.227c-6.554-7.866-16.749-12.561-27.271-12.561  c-7.289,0-14.368,2.264-19.929,6.375c-0.045,0.033-0.089,0.067-0.134,0.101l-0.137,0.105c-0.042,0.032-0.083,0.065-0.123,0.096  c-14.427,11.54-31.631,17.392-51.133,17.392c-21.125,0-41.443-8.116-57.224-22.858c-14.547-14.26-22.888-34.184-22.888-54.679  c0-20.367,7.937-39.291,22.96-54.742c15.806-14.701,36.095-22.794,57.154-22.794c19.543,0,37.213,6.005,51.098,17.365  c0.048,0.038,0.095,0.077,0.143,0.114c5.651,4.424,12.879,6.861,20.352,6.861c10.567,0,20.772-4.871,27.3-13.03  c0.046-0.058,0.092-0.116,0.136-0.174l0.139-0.184c0.043-0.055,0.084-0.112,0.125-0.169c10.634-14.77,8.037-35.445-5.914-47.069  c-0.037-0.032-0.075-0.062-0.113-0.093l-0.119-0.095c-0.036-0.029-0.073-0.059-0.11-0.087c-26.46-20.581-58.64-31.459-93.102-31.459  c-48.348,0.241-93.801,23.884-121.585,63.243c-2.706,3.833-1.793,9.133,2.041,11.839c3.834,2.707,9.133,1.793,11.839-2.041  c24.626-34.883,64.921-55.837,107.748-56.052c30.583,0,59.135,9.626,82.574,27.837l0,0c7.063,5.929,8.378,16.425,3.01,23.967  c-3.336,4.119-8.55,6.573-13.968,6.573c-3.666,0-7.15-1.136-9.819-3.202c-16.944-13.829-38.303-21.137-61.774-21.137  c-25.444,0-49.911,9.768-68.896,27.502c-0.095,0.089-0.188,0.18-0.28,0.273c-18.271,18.714-27.929,41.796-27.929,66.751  c0,25.069,10.23,49.45,28.066,66.891c0.044,0.043,0.089,0.086,0.134,0.128c18.95,17.739,43.42,27.508,68.904,27.508  c23.429,0,44.183-7.088,61.685-21.066l0.002-0.001c2.652-1.938,6.119-3.004,9.771-3.004c5.492,0,10.762,2.369,14.131,6.343  c5.393,7.618,4.059,18.314-2.951,23.863c-23.469,18.254-52.045,27.903-82.637,27.903c-71.955,0-130.785-57.683-131.142-128.5  c0.075-14.985,2.782-29.685,8.042-43.691C96.462,202.597,94.238,197.699,89.845,196.048z"/>
<path d="M396.839,291.259h3.058c16.365,0,29.678-13.313,29.678-29.678c0-16.365-13.313-29.678-29.678-29.678h-3.003  c0.187-5.05,0.805-8.251,1.289-10.041c0.885-0.134,2.682-0.313,5.95-0.313c16.365,0,29.678-13.486,29.678-30.063  c0-16.365-13.313-29.678-29.678-29.678c-9.739,0-17.619,1.061-25.549,3.439c-14.304,4.292-26.596,14.85-32.912,28.264  c-5.401,10.507-7.89,22.129-8.164,38.39h-1.543c-16.857,0-30.063,13.036-30.063,29.678c0,16.365,13.486,29.678,30.063,29.678h1.518  v127.455c0,16.365,13.313,29.678,29.678,29.678c16.364,0,29.678-13.313,29.678-29.678V291.259H396.839z M379.848,282.763v135.951  c0,7.114-5.572,12.687-12.687,12.687c-7.115,0-12.687-5.573-12.687-12.687V282.763c0-4.692-3.804-8.496-8.496-8.496h-10.013  c-7.208,0-13.072-5.691-13.072-12.687c0-7.114,5.742-12.687,13.072-12.687h10.013c4.692,0,8.496-3.804,8.496-8.496v-5.392  c0-15.09,1.904-25.21,6.368-33.84c0.053-0.102,0.104-0.206,0.153-0.31c4.215-9.031,12.825-16.439,22.471-19.333  c6.278-1.884,12.652-2.723,20.667-2.723c6.877,0,12.687,5.81,12.687,12.687c0,7.208-5.691,13.072-12.687,13.072  c-7.359,0-10.777,0.768-12.88,1.629c-2.262,0.668-3.926,1.644-5.455,3.175l0.034,0.034c-4.807,4.873-5.984,15.94-5.984,25.609v5.392  c0,4.692,3.804,8.496,8.496,8.496h11.554c7.114,0,12.687,5.572,12.687,12.687c0,6.877-5.81,12.687-12.687,12.687h-11.554  C383.652,274.268,379.848,278.072,379.848,282.763z M396.691,222.308c-1.169,0.838-2.798,1.554-4.881,1.554  c1.723,0,3.436-0.568,4.859-1.546C396.676,222.312,396.684,222.31,396.691,222.308z"/>
<g>
</g>
<g>
</g>
<g>
</g>
<g>
</g>
<g>
</g>
<g>
</g>
<g>
</g>
<g>
</g>
<g>
</g>
<g>
</g>
<g>
</g>
<g>
</g>
<g>
</g>
<g>
</g>
<g>
</g>
</svg>
