<?xml version="1.0" encoding="iso-8859-1"?>
<!-- Generator: Adobe Illustrator 19.0.0, SVG Export Plug-In . SVG Version: 6.00 Build 0)  -->
<svg xmlns="http://www.w3.org/2000/svg" xmlns:xlink="http://www.w3.org/1999/xlink" version="1.1" id="Layer_1" x="0px" y="0px" viewBox="0 0 512.001 512.001" style="enable-background:new 0 0 512.001 512.001;" xml:space="preserve">
<g>
	<path style="fill:#FF6465;" d="M256.001,503.563c-66.127,0-128.294-25.751-175.053-72.51   c-46.759-46.758-72.51-108.927-72.51-175.052S34.188,127.706,80.946,80.948c46.76-46.759,108.927-72.51,175.055-72.51   c66.126,0,128.294,25.751,175.052,72.51c46.759,46.759,72.51,108.927,72.51,175.053s-25.752,128.294-72.51,175.053   S322.126,503.563,256.001,503.563z M256.001,75.937c-99.288,0-180.064,80.776-180.064,180.064s80.776,180.063,180.064,180.063   s180.064-80.776,180.064-180.063S355.287,75.937,256.001,75.937z"/>
	<polygon style="fill:#FF6465;" points="381.562,195.952 256.001,357.017 130.439,195.952  "/>
</g>
<g style="opacity:0.1;">
	<path d="M114.696,431.053c-46.758-46.758-72.509-108.927-72.509-175.052s25.751-128.294,72.509-175.053   c42.76-42.758,98.406-67.935,158.179-71.933c-5.592-0.373-11.217-0.577-16.875-0.577c-66.127,0-128.294,25.751-175.053,72.51   C34.188,127.706,8.437,189.874,8.437,256.001s25.751,128.294,72.509,175.052c46.759,46.758,108.927,72.51,175.053,72.51   c5.658,0,11.282-0.202,16.875-0.577C213.101,498.989,157.455,473.812,114.696,431.053z"/>
</g>
<path d="M256.001,512.001c-68.379,0-132.666-26.628-181.02-74.98C26.628,388.667,0,324.381,0,256.001  C0,192.34,23.465,131.376,66.073,84.342c3.129-3.454,8.464-3.718,11.918-0.588s3.717,8.464,0.588,11.918  c-39.791,43.925-61.704,100.864-61.704,160.33c0,63.872,24.873,123.922,70.037,169.086c45.166,45.165,105.216,70.039,169.088,70.039  c63.872,0,123.922-24.873,169.086-70.039c45.165-45.164,70.038-105.213,70.038-169.086s-24.873-123.923-70.038-169.086  c-45.165-45.166-105.214-70.039-169.085-70.039c-57.206,0-110.436,19.413-153.94,56.137c-3.561,3.007-8.884,2.557-11.89-1.005  c-3.006-3.561-2.556-8.883,1.005-11.889C137.096,21.352,195.633,0.001,256.001,0.001c68.38,0,132.666,26.628,181.019,74.98  C485.372,123.332,512.001,187.62,512.001,256c0,68.379-26.628,132.667-74.981,181.019S324.379,512.001,256.001,512.001z   M256.001,444.501c-103.94,0-188.501-84.561-188.501-188.5S152.061,67.5,256.001,67.5s188.501,84.561,188.501,188.501  c0,30.142-6.936,58.963-20.613,85.664c-13.039,25.453-32.06,48.003-55.007,65.213c-3.727,2.796-9.017,2.041-11.812-1.687  c-2.796-3.727-2.04-9.017,1.687-11.812c20.908-15.68,38.237-36.222,50.113-59.407c12.446-24.297,18.757-50.531,18.757-77.972  c0-94.634-76.991-171.626-171.626-171.626S84.374,161.366,84.374,256.001s76.992,171.627,171.627,171.627  c26.078,0,51.138-5.727,74.485-17.022c4.194-2.032,9.24-0.273,11.27,3.919c2.029,4.195,0.274,9.241-3.921,11.27  C312.178,438.207,284.645,444.501,256.001,444.501z"/>
<path d="M256.001,365.454c-2.601,0-5.056-1.198-6.654-3.25L123.784,201.14c-1.982-2.544-2.342-5.993-0.927-8.89  s4.357-4.735,7.581-4.735h164.795c4.66,0,8.437,3.777,8.437,8.437s-3.778,8.437-8.437,8.437H147.714l108.285,138.904L364.286,204.39  h-35.303c-4.66,0-8.437-3.777-8.437-8.437s3.778-8.437,8.437-8.437h52.58c3.224,0,6.166,1.838,7.581,4.735  c1.415,2.897,1.055,6.347-0.927,8.89L262.655,362.204C261.055,364.255,258.6,365.454,256.001,365.454z"/>
<g>
</g>
<g>
</g>
<g>
</g>
<g>
</g>
<g>
</g>
<g>
</g>
<g>
</g>
<g>
</g>
<g>
</g>
<g>
</g>
<g>
</g>
<g>
</g>
<g>
</g>
<g>
</g>
<g>
</g>
</svg>
