<?xml version="1.0" encoding="iso-8859-1"?>
<!-- Generator: Adobe Illustrator 19.0.0, SVG Export Plug-In . SVG Version: 6.00 Build 0)  -->
<svg xmlns="http://www.w3.org/2000/svg" xmlns:xlink="http://www.w3.org/1999/xlink" version="1.1" id="Layer_1" x="0px" y="0px" viewBox="0 0 512 512" style="enable-background:new 0 0 512 512;" xml:space="preserve">
<rect x="192.679" y="370.358" style="fill:#353640;" width="126.653" height="92.136"/>
<rect x="192.679" y="370.358" style="opacity:0.1;enable-background:new    ;" width="36.552" height="92.136"/>
<path style="fill:#515262;" d="M76.563,394.45c-37.178,0-67.425-30.247-67.425-67.425V96.072c0-37.178,30.247-67.424,67.425-67.424  h358.874c37.178,0,67.424,30.247,67.424,67.424v230.953c0,37.178-30.246,67.425-67.424,67.425L76.563,394.45L76.563,394.45z"/>
<path style="fill:#353640;" d="M435.438,71.292H76.563c-13.686,0-24.781,11.095-24.781,24.781v230.953  c0,13.686,11.095,24.781,24.781,24.781h358.874c13.686,0,24.781-11.095,24.781-24.781V96.072  C460.218,82.386,449.124,71.292,435.438,71.292z"/>
<path style="opacity:0.1;enable-background:new    ;" d="M88.334,132.624c0-13.686,11.095-24.781,24.781-24.781h347.103V96.072  c0-13.686-11.095-24.781-24.781-24.781H76.563c-13.686,0-24.781,11.095-24.781,24.781v230.953c0,13.686,11.095,24.781,24.781,24.781  h11.771V132.624z"/>
<path style="fill:#515262;" d="M350.615,441.632h-189.23c-11.521,0-20.86,9.339-20.86,20.86s9.339,20.86,20.86,20.86h189.23  c11.521,0,20.86-9.339,20.86-20.86C371.475,450.971,362.136,441.632,350.615,441.632z"/>
<path style="opacity:0.1;enable-background:new    ;" d="M177.077,462.492c0-11.521,9.339-20.86,20.86-20.86h-36.552  c-11.521,0-20.86,9.339-20.86,20.86s9.339,20.86,20.86,20.86h36.552C186.416,483.352,177.077,474.013,177.077,462.492z"/>
<path d="M164.01,80.43h271.428c8.625,0,15.643,7.017,15.643,15.642v230.954c0,8.625-7.017,15.642-15.643,15.642h-50.866  c-5.047,0-9.138,4.091-9.138,9.138s4.091,9.138,9.138,9.138h50.866c18.703,0,33.919-15.215,33.919-33.918V96.072  c0-18.703-15.215-33.918-33.919-33.918H164.01c-5.047,0-9.138,4.091-9.138,9.138S158.963,80.43,164.01,80.43z"/>
<path d="M76.563,360.944H348.02c5.047,0,9.138-4.091,9.138-9.138s-4.091-9.138-9.138-9.138H76.563  c-8.625,0-15.643-7.017-15.643-15.642V96.072c0-8.625,7.018-15.642,15.643-15.642h50.894c5.047,0,9.138-4.091,9.138-9.138  s-4.091-9.138-9.138-9.138H76.563c-18.704,0-33.919,15.215-33.919,33.918v230.954C42.644,345.728,57.86,360.944,76.563,360.944z"/>
<path d="M76.563,403.588h106.974v28.905h-22.152c-16.541,0-29.998,13.457-29.998,29.998s13.457,29.998,29.998,29.998h189.23  c16.541,0,29.998-13.457,29.998-29.998s-13.457-29.998-29.998-29.998h-22.152v-28.905h106.975c42.217,0,76.562-34.346,76.562-76.563  V96.072c0-42.217-34.346-76.562-76.562-76.562H76.563C34.346,19.51,0,53.855,0,96.072v230.953  C0,369.242,34.346,403.588,76.563,403.588z M350.615,450.77c6.464,0,11.722,5.259,11.722,11.722c0,6.464-5.259,11.722-11.722,11.722  h-189.23c-6.464,0-11.722-5.259-11.722-11.722c0-6.464,5.259-11.722,11.722-11.722h31.29h126.65H350.615z M201.813,432.493v-28.905  h108.374v28.905H201.813z M18.276,96.072c0-32.139,26.147-58.286,58.287-58.286h358.876c32.139,0,58.286,26.147,58.286,58.286  v230.953c0,32.139-26.147,58.287-58.286,58.287H319.326H192.675H76.563c-32.14,0-58.287-26.147-58.287-58.287V96.072z"/>
<g>
</g>
<g>
</g>
<g>
</g>
<g>
</g>
<g>
</g>
<g>
</g>
<g>
</g>
<g>
</g>
<g>
</g>
<g>
</g>
<g>
</g>
<g>
</g>
<g>
</g>
<g>
</g>
<g>
</g>
</svg>
