<?xml version="1.0" encoding="iso-8859-1"?>
<!-- Generator: Adobe Illustrator 19.0.0, SVG Export Plug-In . SVG Version: 6.00 Build 0)  -->
<svg xmlns="http://www.w3.org/2000/svg" xmlns:xlink="http://www.w3.org/1999/xlink" version="1.1" id="Layer_1" x="0px" y="0px" viewBox="0 0 511.999 511.999" style="enable-background:new 0 0 511.999 511.999;" xml:space="preserve">
<rect x="72.077" y="225.45" style="fill:#FFFFFF;" width="367.853" height="215.629"/>
<path style="fill:#C7CFE2;" d="M482.447,41.741H29.553c-11.871,0-21.493,9.622-21.493,21.493v162.624  c0,11.871,9.622,21.493,21.493,21.493h17.991v201.413c0,11.871,9.622,21.493,21.493,21.493h373.926  c11.871,0,21.493-9.622,21.493-21.493V247.351h17.991c11.871,0,21.493-9.622,21.493-21.493V63.234  C503.94,51.363,494.317,41.741,482.447,41.741z M234.507,247.351v68.468H90.53v-68.468H234.507z M90.53,358.806h143.977v68.466  H90.53V358.806z M277.493,427.272v-68.466H421.47v68.466H277.493z M421.469,315.82H277.493v-68.468H421.47v68.468H421.469z"/>
<g>
	<polygon style="fill:#7DD2F0;" points="460.954,204.365 442.962,204.365 277.493,204.365 277.493,84.727 460.954,84.727  "/>
	<polygon style="fill:#7DD2F0;" points="51.046,84.727 234.507,84.727 234.507,204.365 69.037,204.365 51.046,204.365  "/>
</g>
<rect x="51.046" y="84.725" style="opacity:0.1;enable-background:new    ;" width="183.464" height="32.24"/>
<rect x="277.496" y="84.725" style="opacity:0.1;enable-background:new    ;" width="183.464" height="32.24"/>
<path d="M29.553,255.411h9.931v193.354c0,16.296,13.258,29.553,29.553,29.553h288.042c4.452,0,8.06-3.609,8.06-8.06  s-3.608-8.06-8.06-8.06H69.037c-7.408,0-13.433-6.026-13.433-13.433V247.351c0-4.451-3.608-8.06-8.06-8.06H29.553  c-7.408,0-13.433-6.026-13.433-13.433V63.234c0-7.408,6.026-13.433,13.433-13.433h338.011c4.452,0,8.06-3.608,8.06-8.06  c0-4.451-3.608-8.06-8.06-8.06H29.553C13.257,33.681,0,46.939,0,63.234v162.624C0,242.154,13.257,255.411,29.553,255.411z"/>
<path d="M242.567,247.351c0-4.451-3.608-8.06-8.06-8.06H90.53c-4.452,0-8.06,3.609-8.06,8.06v68.469c0,4.451,3.608,8.06,8.06,8.06  h143.977c4.452,0,8.06-3.609,8.06-8.06V247.351z M226.447,307.76H98.59v-52.349h127.858V307.76z"/>
<path d="M234.507,350.746H90.53c-4.452,0-8.06,3.608-8.06,8.06v68.466c0,4.451,3.608,8.06,8.06,8.06h143.977  c4.452,0,8.06-3.609,8.06-8.06v-68.466C242.567,354.354,238.958,350.746,234.507,350.746z M226.447,419.212H98.59v-52.346h127.858  V419.212z"/>
<path d="M399.803,49.801h82.643c7.408,0,13.433,6.026,13.433,13.433v162.624c0,7.408-6.026,13.433-13.433,13.433h-17.991  c-4.452,0-8.06,3.609-8.06,8.06v201.414c0,7.408-6.026,13.433-13.433,13.433h-53.644c-4.452,0-8.06,3.609-8.06,8.06  s3.608,8.06,8.06,8.06h53.644c16.295,0,29.553-13.257,29.553-29.553V255.411h9.931c16.296,0,29.553-13.257,29.553-29.553V63.234  c0-16.295-13.257-29.553-29.553-29.553h-82.643c-4.452,0-8.06,3.609-8.06,8.06S395.352,49.801,399.803,49.801z"/>
<path d="M277.493,212.425h183.461c4.452,0,8.06-3.608,8.06-8.06V84.727c0-4.451-3.608-8.06-8.06-8.06H277.493  c-4.452,0-8.06,3.609-8.06,8.06v119.638C269.433,208.817,273.041,212.425,277.493,212.425z M285.553,92.787h167.341v103.518H285.553  V92.787z"/>
<path d="M269.433,315.82c0,4.451,3.608,8.06,8.06,8.06H421.47c4.452,0,8.06-3.609,8.06-8.06v-68.469c0-4.451-3.608-8.06-8.06-8.06  H277.493c-4.452,0-8.06,3.609-8.06,8.06V315.82L269.433,315.82z M285.553,255.411H413.41v52.349H285.553V255.411z"/>
<path d="M269.433,427.272c0,4.451,3.608,8.06,8.06,8.06H421.47c4.452,0,8.06-3.609,8.06-8.06v-68.466c0-4.452-3.608-8.06-8.06-8.06  H277.493c-4.452,0-8.06,3.608-8.06,8.06V427.272L269.433,427.272z M285.553,366.866H413.41v52.346H285.553V366.866z"/>
<path d="M242.567,84.727c0-4.451-3.608-8.06-8.06-8.06H116.706c-4.452,0-8.06,3.609-8.06,8.06c0,4.452,3.608,8.06,8.06,8.06h109.741  v103.518H59.106V92.787h25.361c4.452,0,8.06-3.608,8.06-8.06c0-4.451-3.608-8.06-8.06-8.06H51.046c-4.452,0-8.06,3.609-8.06,8.06  v119.638c0,4.452,3.608,8.06,8.06,8.06h183.461c4.452,0,8.06-3.608,8.06-8.06V84.727z"/>
<g>
</g>
<g>
</g>
<g>
</g>
<g>
</g>
<g>
</g>
<g>
</g>
<g>
</g>
<g>
</g>
<g>
</g>
<g>
</g>
<g>
</g>
<g>
</g>
<g>
</g>
<g>
</g>
<g>
</g>
</svg>
