<?xml version="1.0" encoding="iso-8859-1"?>
<!-- Generator: Adobe Illustrator 19.0.0, SVG Export Plug-In . SVG Version: 6.00 Build 0)  -->
<svg xmlns="http://www.w3.org/2000/svg" xmlns:xlink="http://www.w3.org/1999/xlink" version="1.1" id="Layer_1" x="0px" y="0px" viewBox="0 0 512.001 512.001" style="enable-background:new 0 0 512.001 512.001;" xml:space="preserve">
<path style="fill:#7DD2F0;" d="M483.553,85.855H28.447c-11.288,0-20.44,9.151-20.44,20.44v299.413c0,11.289,9.151,20.44,20.44,20.44  h455.106c11.288,0,20.44-9.151,20.44-20.44V106.295C503.992,95.006,494.841,85.855,483.553,85.855z"/>
<path style="fill:#FFFFFF;" d="M48.887,126.733h186.391v258.534H48.887V126.733z M463.113,385.268H276.722V126.733h186.391V385.268z  "/>
<g>
	<polygon style="fill:#515262;" points="113.96,339.478 113.96,172.523 206.588,256.001  "/>
	<polygon style="fill:#515262;" points="398.04,339.478 398.04,172.523 305.413,256.001  "/>
</g>
<path style="opacity:0.1;enable-background:new    ;" d="M82.746,405.706V106.295c0-11.288,9.151-20.44,20.44-20.44H28.448  c-11.288,0-20.44,9.151-20.44,20.44v299.413c0,11.289,9.151,20.44,20.44,20.44h74.737C91.897,426.146,82.746,416.995,82.746,405.706  z"/>
<path d="M483.552,434.153h-72.315c-4.423,0-8.008-3.585-8.008-8.008c0-4.422,3.584-8.008,8.008-8.008h72.315  c6.855,0,12.433-5.576,12.433-12.432V106.295c0-6.854-5.578-12.432-12.433-12.432H132.589c-4.423,0-8.008-3.585-8.008-8.008  c0-4.422,3.584-8.008,8.008-8.008h350.964c15.685,0,28.448,12.761,28.448,28.447v299.413  C512,421.393,499.238,434.153,483.552,434.153z M379.207,434.153H28.447C12.761,434.153,0,421.393,0,405.706V106.295  C0,90.61,12.761,77.848,28.447,77.848h72.112c4.423,0,8.008,3.585,8.008,8.008c0,4.422-3.584,8.008-8.008,8.008H28.447  c-6.854,0-12.432,5.576-12.432,12.432v299.413c0,6.854,5.578,12.432,12.432,12.432h350.76c4.423,0,8.008,3.585,8.008,8.008  C387.215,430.569,383.629,434.153,379.207,434.153z M463.114,393.275H276.722c-4.423,0-8.008-3.585-8.008-8.008V126.733  c0-4.422,3.584-8.008,8.008-8.008h186.392c4.423,0,8.008,3.585,8.008,8.008v258.534C471.122,389.69,467.537,393.275,463.114,393.275  z M284.73,377.26h170.377v-242.52H284.73V377.26z M235.276,393.275H48.885c-4.423,0-8.008-3.585-8.008-8.008V126.733  c0-4.422,3.584-8.008,8.008-8.008h186.391c4.423,0,8.008,3.585,8.008,8.008v258.534C243.284,389.69,239.7,393.275,235.276,393.275z   M56.893,377.26h170.376v-242.52H56.893V377.26z"/>
<path d="M113.959,347.485c-1.101,0-2.209-0.226-3.254-0.692c-2.89-1.285-4.752-4.152-4.752-7.316V172.523  c0-3.164,1.862-6.03,4.752-7.316c2.89-1.287,6.267-0.751,8.616,1.368l92.626,83.477c1.685,1.518,2.647,3.68,2.647,5.948  s-0.962,4.43-2.647,5.948l-92.627,83.477C117.822,346.777,115.902,347.485,113.959,347.485z M121.968,190.52v130.962l72.658-65.48  L121.968,190.52z"/>
<path d="M398.041,347.485c-1.943,0-3.862-0.707-5.361-2.06l-92.627-83.477c-1.685-1.518-2.647-3.68-2.647-5.948  s0.962-4.43,2.647-5.948l92.626-83.477c2.35-2.116,5.726-2.653,8.616-1.368c2.89,1.285,4.752,4.152,4.752,7.316v166.954  c0,3.164-1.862,6.03-4.752,7.316C400.25,347.259,399.142,347.485,398.041,347.485z M317.374,256.001l72.658,65.48V190.52  L317.374,256.001z"/>
<g>
</g>
<g>
</g>
<g>
</g>
<g>
</g>
<g>
</g>
<g>
</g>
<g>
</g>
<g>
</g>
<g>
</g>
<g>
</g>
<g>
</g>
<g>
</g>
<g>
</g>
<g>
</g>
<g>
</g>
</svg>
