<?xml version="1.0" encoding="iso-8859-1"?>
<!-- Generator: Adobe Illustrator 19.0.0, SVG Export Plug-In . SVG Version: 6.00 Build 0)  -->
<svg xmlns="http://www.w3.org/2000/svg" xmlns:xlink="http://www.w3.org/1999/xlink" version="1.1" id="Layer_1" x="0px" y="0px" viewBox="0 0 512.001 512.001" style="enable-background:new 0 0 512.001 512.001;" xml:space="preserve">
<path style="fill:#D6AB78;" d="M201.678,338.498c-42.08,0-38.758,109.629-77.516,109.629s-21.04-109.629-21.04-109.629  l62.012-49.832L201.678,338.498z"/>
<polygon style="fill:#515262;" points="378.197,338.498 503.004,338.498 503.004,63.873 378.197,63.873 335.339,201.186 "/>
<path style="fill:#F0C087;" d="M8.996,304.17c0,18.959,15.369,34.329,34.329,34.329h249.157l42.858-137.312L292.481,63.873H78.127  c-18.959,0-34.329,15.368-34.329,34.327s15.369,34.329,34.329,34.329H66.526c-18.959,0-34.329,15.368-34.329,34.327  s15.369,34.329,34.329,34.329H54.925c-18.959,0-34.329,15.368-34.329,34.327s15.369,34.329,34.329,34.329H43.324  C24.365,269.842,8.996,285.211,8.996,304.17z"/>
<rect x="292.478" y="63.87" style="fill:#D5DEF2;" width="85.711" height="274.631"/>
<circle cx="335.334" cy="110.119" r="16.27"/>
<path d="M503.004,54.878h-31.44c-4.926,0-9.221,3.796-9.369,8.72c-0.152,5.094,3.932,9.272,8.992,9.272h22.821v256.634H387.192  v-28.673c0-4.926-3.796-9.221-8.72-9.369c-5.094-0.152-9.272,3.932-9.272,8.992v29.051h-67.724V184.526  c0-4.926-3.796-9.221-8.72-9.369c-5.094-0.152-9.272,3.932-9.272,8.992v145.353H43.947c-13.718,0-25.418-10.646-25.936-24.354  c-0.546-14.412,11.02-26.31,25.315-26.31H54.55c4.926,0,9.221-3.796,9.369-8.72c0.152-5.094-3.932-9.272-8.992-9.272  c-14.293,0-25.858-11.897-25.315-26.309c0.518-13.708,12.217-24.355,25.935-24.355h10.603c4.926,0,9.221-3.796,9.369-8.72  c0.152-5.094-3.932-9.271-8.992-9.271c-14.293,0-25.858-11.897-25.315-26.309c0.518-13.708,12.217-24.355,25.935-24.355h10.603  c4.926,0,9.221-3.796,9.369-8.72c0.152-5.094-3.932-9.272-8.992-9.272c-14.293,0-25.858-11.897-25.315-26.309  C53.328,83.517,65.028,72.87,78.745,72.87h204.739v74.922c0,4.926,3.796,9.221,8.72,9.369c5.094,0.152,9.272-3.932,9.272-8.992  v-75.3h67.724v191.225c0,4.926,3.796,9.221,8.72,9.369c5.094,0.152,9.272-3.932,9.272-8.992V72.869h39.016  c4.968,0,8.996-4.028,8.996-8.996l0,0c0-4.968-4.028-8.996-8.996-8.996H78.827c-23.377,0-43.081,18.24-43.992,41.599  c-0.481,12.322,4.217,23.575,12.087,31.751C32.857,135.396,23.2,150.02,23.2,166.858c0,11.645,4.62,22.234,12.12,30.026  c-14.064,7.168-23.721,21.792-23.721,38.63c0,11.645,4.62,22.234,12.12,30.026c-14.465,7.372-24.269,22.635-23.696,40.08  c0.772,23.499,20.658,41.873,44.17,41.873h48.58c-2.953,23.722-7.423,78.566,10.76,99.925c5.406,6.35,12.539,9.706,20.629,9.706  c25.435,0,35.616-30.115,45.462-59.239c8.342-24.677,16.968-50.191,31.878-50.39h0.175v-0.001h301.328  c4.968,0,8.996-4.028,8.996-8.996V63.873C512,58.905,507.972,54.878,503.004,54.878z M171.892,347.495  c-8.364,12.238-14.025,28.988-19.313,44.628c-7.45,22.035-15.892,47.009-28.418,47.009c-2.84,0-4.912-1.009-6.925-3.374  c-11.62-13.637-10.268-58.447-6.335-88.265L171.892,347.495z"/>
<g>
</g>
<g>
</g>
<g>
</g>
<g>
</g>
<g>
</g>
<g>
</g>
<g>
</g>
<g>
</g>
<g>
</g>
<g>
</g>
<g>
</g>
<g>
</g>
<g>
</g>
<g>
</g>
<g>
</g>
</svg>
