<?xml version="1.0" encoding="iso-8859-1"?>
<!-- Generator: Adobe Illustrator 19.0.0, SVG Export Plug-In . SVG Version: 6.00 Build 0)  -->
<svg xmlns="http://www.w3.org/2000/svg" xmlns:xlink="http://www.w3.org/1999/xlink" version="1.1" id="Layer_1" x="0px" y="0px" viewBox="0 0 512.001 512.001" style="enable-background:new 0 0 512.001 512.001;" xml:space="preserve">
<path style="fill:#FF6465;" d="M457.127,9.187H54.873c-25.231,0-45.686,20.455-45.686,45.686v402.254  c0,25.233,20.455,45.686,45.686,45.686h402.254c25.231,0,45.686-20.455,45.686-45.686V54.874  C502.814,29.641,482.359,9.187,457.127,9.187z"/>
<polygon style="fill:#FFFFFF;" points="367.788,195.507 316.493,144.213 256.001,204.706 195.507,144.213 144.212,195.507   204.705,256.001 144.212,316.494 195.507,367.789 256.001,307.296 316.493,367.789 367.788,316.494 307.295,256.001 "/>
<path style="opacity:0.1;enable-background:new    ;" d="M70.427,457.127V54.874c0-25.231,20.455-45.686,45.686-45.686H54.872  c-25.231,0-45.686,20.455-45.686,45.686v402.254c0,25.231,20.455,45.686,45.686,45.686h61.241  C90.882,502.814,70.427,482.36,70.427,457.127z"/>
<path d="M54.872,512.001h55.403c5.073,0,9.186-4.113,9.186-9.186c0-5.073-4.113-9.186-9.186-9.186H54.872  c-20.126,0-36.5-16.373-36.5-36.5V54.874c0-20.126,16.373-36.501,36.5-36.501h308.929c5.074,0,9.186-4.113,9.186-9.186  s-4.112-9.186-9.186-9.186H54.872C24.615,0.001,0,24.616,0,54.874v402.254C0,487.384,24.615,512.001,54.872,512.001z"/>
<path d="M400.546,18.373h56.581c20.128,0,36.501,16.375,36.501,36.5v402.254c0,20.126-16.373,36.5-36.501,36.5H147.021  c-5.073,0-9.186,4.113-9.186,9.186s4.113,9.186,9.186,9.186h310.107c30.257,0,54.873-24.615,54.873-54.872V54.874  c0-30.257-24.617-54.872-54.873-54.872h-56.581c-5.074,0-9.186,4.113-9.186,9.186S395.471,18.373,400.546,18.373z"/>
<path d="M309.997,137.717l-53.998,53.996l-53.998-53.996c-3.588-3.588-9.404-3.588-12.99,0l-51.294,51.294  c-3.588,3.588-3.588,9.404,0,12.99L191.714,256l-53.998,53.998c-3.588,3.588-3.588,9.403,0,12.99l51.294,51.294  c1.722,1.723,4.059,2.691,6.495,2.691c2.436,0,4.773-0.968,6.495-2.691l53.998-53.998l53.998,53.998  c1.722,1.723,4.059,2.691,6.495,2.691s4.773-0.968,6.495-2.691l51.296-51.294c3.587-3.587,3.587-9.404,0-12.99L320.286,256  l53.998-53.998c3.587-3.588,3.587-9.404,0-12.99l-51.296-51.294C319.401,134.13,313.585,134.13,309.997,137.717z M300.799,249.505  c-1.723,1.723-2.691,4.059-2.691,6.495s0.968,4.772,2.691,6.495l53.998,53.996l-38.304,38.304l-53.998-53.998  c-1.793-1.794-4.145-2.691-6.495-2.691c-2.35,0-4.702,0.897-6.495,2.691l-53.998,53.998l-38.304-38.304l53.998-53.996  c1.723-1.723,2.691-4.059,2.691-6.495s-0.968-4.772-2.691-6.495l-53.998-53.998l38.304-38.304l53.998,53.998  c3.588,3.588,9.404,3.588,12.99,0l53.998-53.998l38.304,38.304L300.799,249.505z"/>
<g>
</g>
<g>
</g>
<g>
</g>
<g>
</g>
<g>
</g>
<g>
</g>
<g>
</g>
<g>
</g>
<g>
</g>
<g>
</g>
<g>
</g>
<g>
</g>
<g>
</g>
<g>
</g>
<g>
</g>
</svg>
