<?xml version="1.0" encoding="iso-8859-1"?>
<!-- Generator: Adobe Illustrator 19.0.0, SVG Export Plug-In . SVG Version: 6.00 Build 0)  -->
<svg xmlns="http://www.w3.org/2000/svg" xmlns:xlink="http://www.w3.org/1999/xlink" version="1.1" id="Layer_1" x="0px" y="0px" viewBox="0 0 511.999 511.999" style="enable-background:new 0 0 511.999 511.999;" xml:space="preserve">
<path style="fill:#7DD2F0;" d="M474.532,36.855H37.468c-16.022,0-29.012,12.989-29.012,29.01v380.267  c0,16.022,12.989,29.01,29.012,29.01h437.063c16.022,0,29.012-12.989,29.012-29.01V65.866  C503.543,49.843,490.554,36.855,474.532,36.855z"/>
<path style="fill:#A6E7FF;" d="M464.08,255.999V99.34c0-12.714-10.307-23.021-23.021-23.021H70.941  c-12.714,0-23.021,10.307-23.021,23.021v156.641l197.197,109.713L464.08,255.999z"/>
<circle style="fill:#FFE97A;" cx="368.706" cy="162.579" r="44.008"/>
<path style="opacity:0.1;enable-background:new    ;" d="M347.246,173.849c0-24.305,19.704-44.008,44.009-44.008  c2.582,0,5.109,0.235,7.569,0.662c-7.874-7.398-18.463-11.937-30.12-11.937c-24.305,0-44.009,19.704-44.009,44.008  c0,21.723,15.743,39.757,36.44,43.347C352.591,197.893,347.246,186.499,347.246,173.849z"/>
<path style="fill:#FFFFFF;" d="M273.377,223.85c-1.259-24.515-21.535-44.005-46.363-44.005c-5.984,0-11.696,1.144-16.948,3.206  c-1.836-28.504-25.523-51.059-54.492-51.059c-11.69,0-22.514,3.685-31.397,9.938c-7.012-21.45-27.173-36.952-50.966-36.952  c-9.147,0-17.755,2.296-25.29,6.333v112.54h225.456V223.85z"/>
<path style="fill:#7EB35B;" d="M47.92,255.981v179.699h69.398l85.658-33.867l79.374-105.401  C170.197,246.422,47.92,255.981,47.92,255.981z"/>
<path style="opacity:0.1;enable-background:new    ;" d="M266.782,317.087l15.569-20.675  c-112.154-49.991-234.43-40.431-234.43-40.431v22.021C80.137,277.039,176.189,278.008,266.782,317.087z"/>
<path style="fill:#A5EB78;" d="M117.318,435.681h323.74c12.714,0,23.021-10.307,23.021-23.021v-156.66  C464.08,255.999,238.178,250.396,117.318,435.681z"/>
<path style="opacity:0.1;enable-background:new    ;" d="M464.08,279.316v-23.316c0,0-225.901-5.604-346.761,179.68h38.474  C254.743,305.88,407.084,283.196,464.08,279.316z"/>
<path d="M474.531,28.399H136.038c-4.671,0-8.457,3.785-8.457,8.457s3.785,8.457,8.457,8.457h338.493  c11.335,0,20.555,9.221,20.555,20.554v380.267c0,11.334-9.221,20.554-20.555,20.554H37.468c-11.335,0-20.555-9.221-20.555-20.554  V65.866c0-11.334,9.221-20.554,20.555-20.554h64.919c4.671,0,8.457-3.785,8.457-8.457s-3.785-8.457-8.457-8.457H37.468  C16.808,28.399,0,45.206,0,65.866v380.267c0,20.66,16.808,37.467,37.468,37.467h437.063c20.66,0,37.468-16.807,37.468-37.467V65.866  C512,45.206,495.192,28.399,474.531,28.399z"/>
<path d="M368.703,215.039c28.929,0,52.466-23.535,52.466-52.464s-23.536-52.466-52.466-52.466  c-28.929,0-52.464,23.536-52.464,52.466S339.774,215.039,368.703,215.039z M368.703,127.021c19.605,0,35.552,15.949,35.552,35.552  s-15.949,35.551-35.552,35.551c-19.603,0-35.551-15.949-35.551-35.551C333.152,142.97,349.1,127.021,368.703,127.021z"/>
<path d="M39.464,99.34v11.971v112.54V412.66c0,17.357,14.12,31.478,31.478,31.478h370.117c17.357,0,31.478-14.12,31.478-31.478  V99.34c0-17.357-14.12-31.478-31.478-31.478H70.941C53.584,67.863,39.464,81.983,39.464,99.34z M73.21,113.434  c19.591,0,36.843,12.508,42.928,31.123c0.833,2.549,2.827,4.552,5.373,5.398c2.549,0.848,5.342,0.433,7.534-1.109  c7.803-5.493,16.977-8.397,26.529-8.397c24.266,0,44.495,18.953,46.053,43.148c0.173,2.695,1.623,5.145,3.902,6.593  c2.279,1.45,5.112,1.722,7.627,0.735c4.431-1.739,9.094-2.62,13.859-2.62c17.14,0,31.715,11.35,36.395,27.091H56.377v-98.71  C61.702,114.548,67.438,113.434,73.21,113.434z M455.623,99.34v148.299c-13.358,0.182-27.964,0.669-42.045,3.436  c-4.582,0.901-7.568,5.346-6.667,9.929c0.793,4.032,4.329,6.827,8.29,6.827c0.54,0,1.089-0.052,1.639-0.16  c12.663-2.49,25.852-2.939,38.783-3.115v148.106c0,8.03-6.534,14.564-14.564,14.564H133.382  c26.754-37.298,60.667-69.383,101.046-95.489c43.493-28.119,93.44-48.05,144.443-57.639c4.59-0.864,7.611-5.284,6.748-9.874  c-0.864-4.59-5.289-7.611-9.874-6.748c-32.136,6.041-63.859,16.049-93.949,29.477c-15.796-6.833-32.634-12.91-50.139-18.064  c-4.484-1.321-9.182,1.244-10.501,5.723c-1.319,4.48,1.244,9.182,5.723,10.501c11.81,3.477,23.294,7.391,34.336,11.676  c-12.366,6.336-24.392,13.258-35.974,20.746c-45.681,29.534-83.47,66.436-112.435,109.693H70.941  c-8.03,0-14.564-6.534-14.564-14.564V264.123c41.783-1.282,84.986,2.165,125.467,10.046c0.545,0.106,1.089,0.157,1.624,0.157  c3.967,0,7.506-2.803,8.292-6.842c0.892-4.583-2.101-9.024-6.686-9.917c-42.155-8.205-85.409-11.687-128.699-10.368v-14.894h217  c2.318,0,4.534-0.952,6.132-2.633c1.597-1.68,2.433-3.943,2.315-6.258c-1.5-29.174-25.575-52.028-54.809-52.028  c-3.379,0-6.724,0.307-10.011,0.917c-6.519-28.043-31.767-48.772-61.428-48.772c-9.578,0-18.881,2.138-27.368,6.241  c-10.57-20.238-31.564-33.255-54.995-33.255c-5.692,0-11.353,0.817-16.809,2.35c0.25-7.813,6.668-14.095,14.541-14.095h370.117  C449.089,84.776,455.623,91.309,455.623,99.34z"/>
<g>
</g>
<g>
</g>
<g>
</g>
<g>
</g>
<g>
</g>
<g>
</g>
<g>
</g>
<g>
</g>
<g>
</g>
<g>
</g>
<g>
</g>
<g>
</g>
<g>
</g>
<g>
</g>
<g>
</g>
</svg>
