<?xml version="1.0" encoding="iso-8859-1"?>
<!-- Generator: Adobe Illustrator 19.0.0, SVG Export Plug-In . SVG Version: 6.00 Build 0)  -->
<svg xmlns="http://www.w3.org/2000/svg" xmlns:xlink="http://www.w3.org/1999/xlink" version="1.1" id="Layer_1" x="0px" y="0px" viewBox="0 0 512 512" style="enable-background:new 0 0 512 512;" xml:space="preserve">
<path style="fill:#FF6465;" d="M44.141,255.974l35.496,169.577c4.901,23.416,25.549,40.19,49.473,40.19h253.779  c23.924,0,44.572-16.773,49.473-40.19l35.496-169.576H44.141V255.974z"/>
<g>
	<path style="fill:#FFD782;" d="M377.48,327.344c-12.231,0-22.144,9.915-22.144,22.144v55.667c0,12.231,9.915,22.144,22.144,22.144   s22.144-9.915,22.144-22.144v-55.667C399.624,337.258,389.709,327.344,377.48,327.344z"/>
	<path style="fill:#FFD782;" d="M296.492,327.344c-12.231,0-22.144,9.915-22.144,22.144v55.667c0,12.231,9.915,22.144,22.144,22.144   c12.23,0,22.144-9.915,22.144-22.144v-55.667C318.638,337.258,308.723,327.344,296.492,327.344z"/>
	<path style="fill:#FFD782;" d="M215.506,327.344c-12.231,0-22.144,9.915-22.144,22.144v55.667c0,12.231,9.915,22.144,22.144,22.144   s22.144-9.915,22.144-22.144v-55.667C237.652,337.258,227.737,327.344,215.506,327.344z"/>
	<path style="fill:#FFD782;" d="M134.52,327.344c-12.231,0-22.144,9.915-22.144,22.144v55.667c0,12.231,9.915,22.144,22.144,22.144   s22.144-9.915,22.144-22.144v-55.667C156.666,337.258,146.751,327.344,134.52,327.344z"/>
</g>
<path style="opacity:0.1;enable-background:new    ;" d="M123.545,425.551L88.05,255.974H44.141l35.496,169.577  c4.901,23.416,25.549,40.19,49.473,40.19h43.909C149.095,465.74,128.448,448.967,123.545,425.551z"/>
<path style="fill:#FFD782;" d="M466.388,218.596H45.612c-20.644,0-37.379,16.735-37.379,37.379l0,0  c0,20.644,16.735,37.379,37.379,37.379h420.776c20.644,0,37.379-16.735,37.379-37.379l0,0  C503.767,235.33,487.031,218.596,466.388,218.596z"/>
<path style="opacity:0.1;enable-background:new    ;" d="M52.141,255.974c0-20.644,16.735-37.379,37.379-37.379H45.612  c-20.644,0-37.379,16.735-37.379,37.379c0,20.644,16.735,37.379,37.379,37.379h43.909C68.877,293.353,52.141,276.618,52.141,255.974  z"/>
<g>
	<path style="fill:#FF6465;" d="M116.17,260.277c-17.024-6.4-25.637-25.388-19.237-42.412l56.482-150.251   c6.4-17.024,25.389-25.637,42.413-19.237s25.637,25.389,19.237,42.413L158.583,241.04   C152.183,258.064,133.193,266.676,116.17,260.277z"/>
	<path style="fill:#FF6465;" d="M395.83,260.277c17.024-6.4,25.637-25.388,19.237-42.412L358.587,67.613   c-6.4-17.024-25.389-25.637-42.413-19.237s-25.637,25.389-19.237,42.413l56.482,150.251   C359.817,258.064,378.806,266.676,395.83,260.277z"/>
</g>
<circle cx="128.29" cy="228.006" r="11.998"/>
<circle cx="383.717" cy="228.006" r="11.998"/>
<path d="M347.101,349.45v55.667c0,16.75,13.628,30.378,30.378,30.378c16.75,0,30.377-13.627,30.377-30.378V349.45  c0-16.75-13.627-30.377-30.377-30.377C360.73,319.073,347.101,332.7,347.101,349.45z M391.391,349.45v55.667  c0,7.671-6.241,13.912-13.911,13.912c-7.671,0-13.912-6.242-13.912-13.912V349.45c0-7.671,6.242-13.911,13.912-13.911  C385.15,335.538,391.391,341.779,391.391,349.45z"/>
<path d="M266.115,349.45v55.667c0,16.75,13.627,30.378,30.377,30.378c16.75,0,30.377-13.627,30.377-30.378V349.45  c0-16.75-13.627-30.377-30.377-30.377C279.742,319.073,266.115,332.7,266.115,349.45z M310.404,349.45v55.667  c0,7.671-6.241,13.912-13.911,13.912c-7.671,0-13.911-6.242-13.911-13.912V349.45c0-7.671,6.241-13.911,13.911-13.911  C304.163,335.538,310.404,341.779,310.404,349.45z"/>
<path d="M185.129,349.45v55.667c0,16.75,13.627,30.378,30.377,30.378s30.377-13.627,30.377-30.378V349.45  c0-16.75-13.627-30.377-30.377-30.377S185.129,332.7,185.129,349.45z M229.419,349.45v55.667c0,7.671-6.24,13.912-13.911,13.912  c-7.671,0-13.911-6.242-13.911-13.912V349.45c0-7.671,6.241-13.911,13.911-13.911C223.178,335.538,229.419,341.779,229.419,349.45z"/>
<path d="M104.143,349.45v55.667c0,16.75,13.627,30.378,30.377,30.378s30.378-13.627,30.378-30.378V349.45  c0-16.75-13.628-30.377-30.378-30.377S104.143,332.7,104.143,349.45z M148.433,349.45v55.667c0,7.671-6.242,13.912-13.912,13.912  s-13.911-6.242-13.911-13.912V349.45c0-7.671,6.241-13.911,13.911-13.911S148.433,341.779,148.433,349.45z"/>
<path d="M466.388,210.323h-45.344c0,0-54.72-145.566-54.751-145.647c-7.86-20.909-32.137-31.896-53.016-24.047  c-21.246,7.987-32.035,31.77-24.048,53.016l43.86,116.677h-95.552c-4.547,0-8.233,3.686-8.233,8.233  c0,4.547,3.686,8.233,8.233,8.233h101.742c0,0,6.43,17.106,6.432,17.108c5.929,15.772,21.694,26.688,38.539,26.688  c6.721,0,13.48-1.72,19.406-4.885c14.343-7.661,22.669-23.055,21.666-38.911h41.065c16.072,0,29.147,13.075,29.147,29.146  s-13.075,29.146-29.147,29.146H45.612c-16.072-0.001-29.146-13.076-29.146-29.147s13.075-29.146,29.146-29.146h41.065  c-1.003,15.853,7.321,31.245,21.66,38.907c16.366,8.745,37.579,5.093,49.998-8.741c4.515-5.03,7.152-10.922,9.501-17.172  l4.885-12.995h31.887c4.547,0,8.233-3.686,8.233-8.233c0-4.547-3.686-8.233-8.233-8.233h-25.697L222.77,93.646  c7.987-21.246-2.8-45.029-24.048-53.016c-21.009-7.898-45.146,3.108-53.016,24.047l-13.357,35.532  c-1.6,4.256,0.553,9.003,4.809,10.604c4.254,1.599,9.003-0.553,10.604-4.809c0,0,13.342-35.491,13.357-35.532  c4.737-12.601,19.19-19.172,31.808-14.429c12.607,4.738,19.176,19.183,14.429,31.811l-56.482,150.251  c-0.3,0.797-0.636,1.569-1.007,2.315c-5.563,11.197-18.851,16.604-30.803,12.113c-0.39-0.147-0.773-0.302-1.15-0.467  c-11.699-5.09-17.72-18.629-13.467-30.791c0.005-0.015,0.008-0.032,0.013-0.047c0.059-0.168,0.112-0.337,0.176-0.505l30.401-80.872  c1.6-4.256-0.553-9.003-4.809-10.604c-4.256-1.599-9.003,0.552-10.604,4.809l-28.67,76.267H45.612  C20.461,210.323,0,230.785,0,255.935c0,25.038,20.28,45.421,45.275,45.603l26.303,125.66c5.669,27.081,29.864,46.735,57.531,46.735  h253.779c27.667,0,51.863-19.656,57.531-46.735l11.284-53.908c0.932-4.45-1.921-8.814-6.371-9.744  c-4.447-0.933-8.812,1.921-9.744,6.371l-11.285,53.908c-4.08,19.494-21.498,33.643-41.415,33.643H129.11  c-19.917,0-37.334-14.15-41.416-33.643L62.1,301.546h387.8l-7.504,35.852c-0.932,4.45,1.921,8.814,6.371,9.744  c4.45,0.932,8.814-1.92,9.744-6.371l8.212-39.234C491.72,301.355,512,280.972,512,255.934  C512,230.785,491.539,210.323,466.388,210.323z M394.084,252.065c-6.523,2.823-14.275,2.661-20.659-0.471  c-0.021-0.01-0.043-0.021-0.064-0.031c-4.927-2.434-9.005-6.479-11.425-11.564c-0.046-0.098-0.092-0.196-0.137-0.296  c-0.24-0.523-0.468-1.052-0.674-1.6l-6.498-17.288L304.642,87.852c-4.793-12.748,1.681-27.017,14.428-31.811  c12.571-4.725,27.077,1.84,31.81,14.429l56.482,150.251c0.063,0.167,0.115,0.336,0.175,0.504c0.005,0.016,0.009,0.033,0.014,0.048  C411.804,233.437,405.783,246.976,394.084,252.065z"/>
<g>
</g>
<g>
</g>
<g>
</g>
<g>
</g>
<g>
</g>
<g>
</g>
<g>
</g>
<g>
</g>
<g>
</g>
<g>
</g>
<g>
</g>
<g>
</g>
<g>
</g>
<g>
</g>
<g>
</g>
</svg>
