<?xml version="1.0" encoding="iso-8859-1"?>
<!-- Generator: Adobe Illustrator 19.0.0, SVG Export Plug-In . SVG Version: 6.00 Build 0)  -->
<svg xmlns="http://www.w3.org/2000/svg" xmlns:xlink="http://www.w3.org/1999/xlink" version="1.1" id="Layer_1" x="0px" y="0px" viewBox="0 0 512 512" style="enable-background:new 0 0 512 512;" xml:space="preserve">
<g>
	<path style="fill:#AFB6C7;" d="M256,8.107c-13.246,0-23.985,10.738-23.985,23.985v55.673h47.97V32.092   C279.985,18.846,269.247,8.107,256,8.107z"/>
	<path style="fill:#AFB6C7;" d="M103.975,503.892c-3.045,0-6.132-0.733-9.001-2.28c-9.237-4.98-12.687-16.505-7.707-25.743   l127.036-235.613c4.979-9.235,16.505-12.689,25.743-7.707c9.237,4.98,12.687,16.505,7.707,25.743L120.717,493.906   C117.283,500.275,110.736,503.892,103.975,503.892z"/>
	<path style="fill:#AFB6C7;" d="M408.026,503.892c3.045,0,6.132-0.733,9.001-2.28c9.237-4.98,12.687-16.505,7.707-25.743   L297.698,240.256c-4.979-9.235-16.505-12.689-25.743-7.707c-9.237,4.98-12.687,16.505-7.707,25.743l127.036,235.613   C394.718,500.275,401.264,503.892,408.026,503.892z"/>
</g>
<rect x="84.712" y="50.722" style="fill:#FF6465;" width="342.584" height="232.324"/>
<rect x="117.286" y="83.301" style="fill:#FFFFFF;" width="277.438" height="146.645"/>
<polygon style="opacity:0.1;enable-background:new    ;" points="138.999,105.011 394.717,105.011 394.717,83.295 117.284,83.295   117.284,229.944 138.999,229.944 "/>
<path style="fill:#C7CFE2;" d="M436.638,262.517H75.363c-11.334,0-20.523,9.189-20.523,20.523l0,0  c0,11.334,9.189,20.523,20.523,20.523h361.275c11.334,0,20.523-9.189,20.523-20.523l0,0  C457.162,271.706,447.973,262.517,436.638,262.517z"/>
<polygon style="opacity:0.1;enable-background:new    ;" points="137.728,382.283 120.164,414.857 163.338,414.857 180.9,382.283   "/>
<polygon style="opacity:0.1;enable-background:new    ;" points="331.1,382.283 348.663,414.857 391.836,414.857 374.274,382.283   "/>
<path style="fill:#C7CFE2;" d="M419.952,382.282H92.048c-10.494,0-19.001-8.507-19.001-19.001s8.507-19.001,19.001-19.001h327.904  c10.494,0,19.001,8.507,19.001,19.001S430.446,382.282,419.952,382.282z"/>
<path d="M189.838,221.837c-4.498,0-8.143,3.645-8.143,8.143s3.645,8.143,8.143,8.143h204.878c4.498,0,8.143-3.645,8.143-8.143  V83.332c0-4.498-3.645-8.143-8.143-8.143H117.284c-4.498,0-8.143,3.645-8.143,8.143V229.98c0,4.498,3.645,8.143,8.143,8.143h36.615  c4.498,0,8.143-3.645,8.143-8.143s-3.645-8.143-8.143-8.143h-28.471V91.476h261.147v130.362L189.838,221.837L189.838,221.837z"/>
<path d="M436.638,311.743c15.808,0,28.667-12.86,28.667-28.667c0-15.807-12.86-28.667-28.667-28.667h-1.204V50.758  c0-4.498-3.645-8.143-8.143-8.143h-53.923c-4.498,0-8.143,3.645-8.143,8.143s3.645,8.143,8.143,8.143h45.78v195.508H92.854V58.901  h243.444c4.498,0,8.143-3.645,8.143-8.143s-3.645-8.143-8.143-8.143h-48.169V32.128C288.128,14.414,273.716,0,256,0  s-32.128,14.413-32.128,32.128v10.486H84.71c-4.498,0-8.143,3.645-8.143,8.143v203.651h-1.204c-15.808,0-28.667,12.86-28.667,28.667  c0,15.807,12.86,28.667,28.667,28.667h91.165l-13.172,24.43H92.048c-14.967,0-27.144,12.177-27.144,27.144  c0,14.967,12.177,27.144,27.144,27.144h32.037l-43.986,81.581c-7.103,13.175-2.164,29.672,11.009,36.774  c13.034,7.027,29.757,2.012,36.776-11.009l57.878-107.346h140.477c0,0,57.839,107.276,57.878,107.346  c7.007,12.996,23.784,18.016,36.775,11.01c13.174-7.103,18.113-23.6,11.01-36.775l-43.986-81.581h32.037  c14.967,0,27.144-12.177,27.144-27.144s-12.177-27.144-27.144-27.144h-61.308l-13.172-24.43L436.638,311.743L436.638,311.743z   M240.159,32.128c0-8.735,7.106-15.841,15.841-15.841c8.735,0,15.841,7.106,15.841,15.841v10.486h-31.683V32.128z M113.549,490.078  c-2.803,5.199-9.522,7.202-14.71,4.404c-5.27-2.841-7.245-9.44-4.404-14.71l48.153-89.309h24.671  C167.259,390.463,113.604,489.975,113.549,490.078z M413.161,494.483c-5.216,2.813-11.9,0.807-14.709-4.405l-53.71-99.616h24.671  l48.153,89.309C420.407,485.042,418.432,491.641,413.161,494.483z M62.983,283.076c0-6.826,5.554-12.38,12.38-12.38h9.327  c0.008,0,0.014,0.001,0.021,0.001h342.58c0.008,0,0.014-0.001,0.021-0.001h9.327c6.826,0,12.38,5.554,12.38,12.38  c0,6.826-5.554,12.38-12.38,12.38H75.363C68.537,295.456,62.983,289.902,62.983,283.076z M185.031,311.744h24.671l-13.17,24.429  H171.86L185.031,311.744z M430.81,363.317c0,5.987-4.871,10.858-10.858,10.858H92.048c-5.987,0-10.858-4.871-10.858-10.858  c0-5.987,4.871-10.858,10.858-10.858h327.904C425.939,352.459,430.81,357.331,430.81,363.317z M315.47,336.173l-13.17-24.429h24.671  l13.17,24.429H315.47z M296.968,336.173h-81.935l13.172-24.43h55.591L296.968,336.173z"/>
<g>
</g>
<g>
</g>
<g>
</g>
<g>
</g>
<g>
</g>
<g>
</g>
<g>
</g>
<g>
</g>
<g>
</g>
<g>
</g>
<g>
</g>
<g>
</g>
<g>
</g>
<g>
</g>
<g>
</g>
</svg>
