<?xml version="1.0" encoding="iso-8859-1"?>
<!-- Generator: Adobe Illustrator 19.0.0, SVG Export Plug-In . SVG Version: 6.00 Build 0)  -->
<svg xmlns="http://www.w3.org/2000/svg" xmlns:xlink="http://www.w3.org/1999/xlink" version="1.1" id="Layer_1" x="0px" y="0px" viewBox="0 0 512 512" style="enable-background:new 0 0 512 512;" xml:space="preserve">
<path style="fill:#7DD2F0;" d="M197.999,47.933H31.943c-12.941,0-23.433,10.492-23.433,23.433V114.8  c0,12.941,10.492,23.433,23.433,23.433h166.057c12.941,0,23.433-10.492,23.433-23.433V71.366  C221.432,58.424,210.941,47.933,197.999,47.933z"/>
<path style="opacity:0.1;enable-background:new    ;" d="M65.24,114.8V71.366c0-12.941,10.492-23.433,23.433-23.433h-56.73  c-12.941,0-23.433,10.492-23.433,23.433V114.8c0,12.941,10.492,23.433,23.433,23.433h56.73  C75.732,138.233,65.24,127.742,65.24,114.8z"/>
<path style="fill:#7DD2F0;" d="M314.001,47.933h166.057c12.941,0,23.433,10.492,23.433,23.433V114.8  c0,12.941-10.492,23.433-23.433,23.433H314.001c-12.941,0-23.433-10.492-23.433-23.433V71.366  C290.568,58.424,301.058,47.933,314.001,47.933z"/>
<g>
	<path style="fill:#78C9E6;" d="M197.999,210.85H31.943c-12.941,0-23.433,10.492-23.433,23.433v43.434   c0,12.941,10.492,23.433,23.433,23.433h166.057c12.941,0,23.433-10.492,23.433-23.433v-43.434   C221.432,221.342,210.941,210.85,197.999,210.85z"/>
	<path style="fill:#78C9E6;" d="M314.001,210.85h166.057c12.941,0,23.433,10.492,23.433,23.433v43.434   c0,12.941-10.492,23.433-23.433,23.433H314.001c-12.941,0-23.433-10.492-23.433-23.433v-43.434   C290.568,221.342,301.058,210.85,314.001,210.85z"/>
</g>
<g>
	<path style="fill:#6AB2CC;" d="M197.999,373.767H31.943c-12.941,0-23.433,10.492-23.433,23.433v43.434   c0,12.941,10.492,23.433,23.433,23.433h166.057c12.941,0,23.433-10.492,23.433-23.433V397.2   C221.432,384.258,210.941,373.767,197.999,373.767z"/>
	<path style="fill:#6AB2CC;" d="M314.001,373.767h166.057c12.941,0,23.433,10.492,23.433,23.433v43.434   c0,12.941-10.492,23.433-23.433,23.433H314.001c-12.941,0-23.433-10.492-23.433-23.433V397.2   C290.568,384.258,301.058,373.767,314.001,373.767z"/>
</g>
<path style="opacity:0.1;enable-background:new    ;" d="M347.298,114.8V71.366c0-12.941,10.492-23.433,23.433-23.433h-56.73  c-12.941,0-23.433,10.492-23.433,23.433V114.8c0,12.941,10.492,23.433,23.433,23.433h56.73  C357.789,138.233,347.298,127.742,347.298,114.8z"/>
<path style="opacity:0.1;enable-background:new    ;" d="M65.24,277.717v-43.434c0-12.941,10.492-23.433,23.433-23.433h-56.73  c-12.941,0-23.433,10.492-23.433,23.433v43.434c0,12.941,10.492,23.433,23.433,23.433h56.73  C75.732,301.15,65.24,290.658,65.24,277.717z"/>
<path style="opacity:0.1;enable-background:new    ;" d="M347.298,277.717v-43.434c0-12.941,10.492-23.433,23.433-23.433h-56.73  c-12.941,0-23.433,10.492-23.433,23.433v43.434c0,12.941,10.492,23.433,23.433,23.433h56.73  C357.789,301.15,347.298,290.658,347.298,277.717z"/>
<path style="opacity:0.1;enable-background:new    ;" d="M65.24,440.634V397.2c0-12.941,10.492-23.433,23.433-23.433h-56.73  c-12.941,0-23.433,10.492-23.433,23.433v43.434c0,12.941,10.492,23.433,23.433,23.433h56.73  C75.732,464.067,65.24,453.576,65.24,440.634z"/>
<path style="opacity:0.1;enable-background:new    ;" d="M347.298,440.634V397.2c0-12.941,10.492-23.433,23.433-23.433h-56.73  c-12.941,0-23.433,10.492-23.433,23.433v43.434c0,12.941,10.492,23.433,23.433,23.433h56.73  C357.789,464.067,347.298,453.576,347.298,440.634z"/>
<path d="M31.943,146.742h166.057c17.613,0,31.943-14.329,31.943-31.943V71.366c0-17.613-14.329-31.943-31.943-31.943H95.305  c-4.7,0-8.51,3.81-8.51,8.51c0,4.701,3.81,8.51,8.51,8.51h102.695c8.228,0,14.923,6.694,14.923,14.924V114.8  c0,8.228-6.694,14.924-14.923,14.924H31.943c-8.228,0-14.924-6.694-14.924-14.924V71.366c0-8.229,6.694-14.924,14.924-14.924h29.324  c4.7,0,8.51-3.809,8.51-8.51c0-4.7-3.81-8.51-8.51-8.51H31.943C14.329,39.423,0,53.753,0,71.366V114.8  C0,132.413,14.329,146.742,31.943,146.742z"/>
<path d="M314.001,146.742h166.057c17.613,0,31.943-14.329,31.943-31.943V71.366c0-17.613-14.329-31.943-31.943-31.943H314.001  c-17.614,0-31.943,14.33-31.943,31.943V114.8C282.058,132.413,296.387,146.742,314.001,146.742z M299.077,71.366  c0-8.229,6.694-14.924,14.923-14.924h166.057c8.228,0,14.924,6.694,14.924,14.924V114.8c0,8.228-6.694,14.924-14.924,14.924H314.001  c-8.229,0-14.924-6.694-14.924-14.924L299.077,71.366L299.077,71.366z"/>
<path d="M31.943,309.66h166.057c17.613,0,31.943-14.329,31.943-31.943v-43.434c0-17.614-14.329-31.943-31.943-31.943H31.943  C14.329,202.34,0,216.669,0,234.283v43.434C0,295.331,14.329,309.66,31.943,309.66z M17.019,234.283  c0-8.229,6.694-14.924,14.924-14.924h166.057c8.228,0,14.923,6.694,14.923,14.924v43.434c0,8.228-6.694,14.923-14.923,14.923H31.943  c-8.228,0-14.924-6.694-14.924-14.923V234.283z"/>
<path d="M314.001,309.66H421.97c4.7,0,8.51-3.809,8.51-8.51c0-4.7-3.81-8.51-8.51-8.51H314.001c-8.229,0-14.924-6.694-14.924-14.922  v-43.434c0-8.229,6.694-14.924,14.924-14.924h166.057c8.228,0,14.924,6.694,14.924,14.924v43.434  c0,8.228-6.694,14.922-14.924,14.922h-24.049c-4.7,0-8.51,3.81-8.51,8.51c0,4.701,3.81,8.51,8.51,8.51h24.049  c17.613,0,31.943-14.329,31.943-31.941v-43.434c0-17.613-14.329-31.943-31.943-31.943H314.001c-17.614,0-31.943,14.33-31.943,31.943  v43.434C282.058,295.331,296.387,309.66,314.001,309.66z"/>
<path d="M31.943,472.577h166.057c17.613,0,31.943-14.329,31.943-31.943V397.2c0-17.614-14.329-31.943-31.943-31.943h-31.473  c-4.7,0-8.51,3.81-8.51,8.51s3.81,8.51,8.51,8.51h31.473c8.228,0,14.923,6.694,14.923,14.924v43.434  c0,8.229-6.694,14.924-14.923,14.924H31.943c-8.228,0-14.924-6.694-14.924-14.924V397.2c0-8.229,6.694-14.924,14.924-14.924h100.546  c4.7,0,8.51-3.81,8.51-8.51s-3.81-8.51-8.51-8.51H31.943C14.329,365.258,0,379.587,0,397.2v43.434  C0,458.247,14.329,472.577,31.943,472.577z"/>
<path d="M314.001,472.577h166.057c17.613,0,31.943-14.329,31.943-31.943V397.2c0-17.613-14.329-31.943-31.943-31.943H314.001  c-17.614,0-31.943,14.329-31.943,31.943v43.434C282.058,458.247,296.387,472.577,314.001,472.577z M299.077,397.2  c0-8.228,6.694-14.923,14.923-14.923h166.057c8.228,0,14.924,6.694,14.924,14.924v43.434c0,8.228-6.694,14.924-14.924,14.924  H314.001c-8.229,0-14.924-6.694-14.924-14.924L299.077,397.2L299.077,397.2z"/>
<g>
</g>
<g>
</g>
<g>
</g>
<g>
</g>
<g>
</g>
<g>
</g>
<g>
</g>
<g>
</g>
<g>
</g>
<g>
</g>
<g>
</g>
<g>
</g>
<g>
</g>
<g>
</g>
<g>
</g>
</svg>
