<?xml version="1.0" encoding="iso-8859-1"?>
<!-- Generator: Adobe Illustrator 19.0.0, SVG Export Plug-In . SVG Version: 6.00 Build 0)  -->
<svg xmlns="http://www.w3.org/2000/svg" xmlns:xlink="http://www.w3.org/1999/xlink" version="1.1" id="Layer_1" x="0px" y="0px" viewBox="0 0 511.999 511.999" style="enable-background:new 0 0 511.999 511.999;" xml:space="preserve">
<g>
	<path style="fill:#B4BBCC;" d="M208.542,206.213l-56.75,56.75l25.008,25.008l56.75-56.75c6.906-6.906,6.906-18.102,0-25.008l0,0   C226.646,199.307,215.448,199.307,208.542,206.213z"/>
	<path style="fill:#B4BBCC;" d="M305.788,303.458l-56.75,56.75L224.03,335.2l56.75-56.75c6.906-6.906,18.102-6.906,25.008,0l0,0   C312.693,285.355,312.693,296.552,305.788,303.458z"/>
</g>
<path style="fill:#515262;" d="M66.018,318.514c-4.614,4.614-7.11,10.936-6.894,17.457l1.747,52.513  c0.216,6.523-2.279,12.843-6.894,17.457L8.24,451.681l52.08,52.08l45.739-45.737c4.614-4.614,10.936-7.11,17.457-6.894l52.513,1.747  c6.523,0.216,12.843-2.279,17.457-6.894l70.663-70.663L136.681,247.851L66.018,318.514z"/>
<path style="opacity:0.1;enable-background:new    ;" d="M84.177,411.79l-1.747-52.513c-0.216-6.523,2.279-12.843,6.894-17.457  l70.663-70.663l-23.305-23.305l-70.663,70.663c-4.614,4.614-7.11,10.936-6.894,17.457l1.747,52.513  c0.216,6.523-2.279,12.843-6.894,17.457L8.24,451.681l23.305,23.305l45.739-45.739C81.898,424.633,84.394,418.313,84.177,411.79z"/>
<path style="fill:#515262;" d="M318.514,66.019c4.614-4.614,10.936-7.11,17.457-6.894l52.513,1.747  c6.523,0.216,12.843-2.279,17.457-6.894L451.68,8.24l52.08,52.08l-45.737,45.739c-4.614,4.614-7.11,10.936-6.894,17.457  l1.747,52.513c0.216,6.523-2.279,12.843-6.894,17.457l-70.663,70.663L247.851,136.682L318.514,66.019z"/>
<path style="opacity:0.1;enable-background:new    ;" d="M359.278,82.431l52.513,1.747c6.523,0.216,12.843-2.279,17.457-6.894  l45.739-45.739L451.68,8.24l-45.739,45.739c-4.614,4.614-10.936,7.11-17.457,6.894l-52.513-1.747  c-6.523-0.216-12.843,2.279-17.457,6.894l-70.663,70.663l23.305,23.305l70.663-70.663C346.435,84.71,352.755,82.214,359.278,82.431z  "/>
<rect x="227.962" y="309.326" transform="matrix(-0.7071 0.7071 -0.7071 -0.7071 670.3301 376.3575)" style="opacity:0.1;enable-background:new    ;" width="58.513" height="35.365"/>
<rect x="155.723" y="237.091" transform="matrix(-0.7071 0.7071 -0.7071 -0.7071 495.9312 304.1248)" style="opacity:0.1;enable-background:new    ;" width="58.513" height="35.365"/>
<rect x="174.873" y="207.047" transform="matrix(-0.7071 0.7071 -0.7071 -0.7071 562.4651 390.1941)" style="fill:#C7CFE2;" width="51.096" height="209.08"/>
<rect x="112.59" y="232.833" transform="matrix(-0.7071 0.7071 -0.7071 -0.7071 412.1076 327.9247)" style="opacity:0.1;enable-background:new    ;" width="51.096" height="32.959"/>
<rect x="286.03" y="95.875" transform="matrix(0.7071 -0.7071 0.7071 0.7071 -50.456 279.019)" style="fill:#C7CFE2;" width="51.096" height="209.08"/>
<rect x="223.772" y="121.677" transform="matrix(-0.7071 0.7071 -0.7071 -0.7071 523.3069 59.5529)" style="opacity:0.1;enable-background:new    ;" width="51.096" height="32.959"/>
<path d="M509.586,54.494l-52.08-52.081C455.961,0.868,453.865,0,451.68,0s-4.281,0.868-5.826,2.413l-45.739,45.739  c-2.99,2.992-7.125,4.623-11.357,4.485l-52.513-1.747c-8.765-0.298-17.355,3.099-23.557,9.302l-46.772,46.772l-4.359-4.359  c-3.218-3.217-8.435-3.217-11.652,0l-36.131,36.131c-3.218,3.219-3.218,8.435,0,11.653l147.838,147.838  c1.608,1.608,3.718,2.413,5.826,2.413s4.218-0.804,5.826-2.413l36.131-36.131c3.218-3.219,3.218-8.435,0-11.653l-4.359-4.359  l46.771-46.771c6.203-6.203,9.593-14.79,9.302-23.558l-1.746-52.513c-0.141-4.228,1.494-8.366,4.485-11.357l45.737-45.739  C512.804,62.928,512.804,57.712,509.586,54.494z M452.195,100.231c-6.203,6.203-9.593,14.79-9.302,23.557l1.747,52.513  c0.14,4.229-1.494,8.367-4.485,11.358l-46.771,46.771l-18.748-18.748c-3.218-3.217-8.435-3.217-11.652,0  c-3.218,3.219-3.218,8.435,0,11.653l28.934,28.934l-24.478,24.478L231.252,144.561l24.478-24.478l4.348,4.348  c0.003,0.003,0.007,0.008,0.01,0.011l79.587,79.585c3.218,3.217,8.435,3.217,11.652,0c3.218-3.219,3.218-8.435,0-11.653  l-73.76-73.759l46.771-46.771c2.99-2.992,7.146-4.612,11.357-4.485l52.513,1.747c8.747,0.302,17.354-3.099,23.557-9.302  l39.912-39.912l40.427,40.428L452.195,100.231z"/>
<path d="M293.284,265.029c-6.925,0-13.435,2.697-18.331,7.593l-32.858,32.858l-35.575-35.575l32.857-32.858  c4.897-4.897,7.593-11.407,7.594-18.332c0-6.925-2.697-13.434-7.593-18.331c-4.897-4.896-11.406-7.593-18.331-7.593  c-6.925,0-13.434,2.697-18.331,7.593l-32.859,32.858l-19.47-19.47c-3.218-3.216-8.435-3.218-11.652,0l-36.131,36.131  c-1.546,1.546-2.414,3.641-2.414,5.827c0,2.186,0.868,4.28,2.414,5.827l4.359,4.359l-46.771,46.77  c-6.203,6.203-9.593,14.79-9.302,23.558l1.747,52.513c0.14,4.228-1.494,8.366-4.485,11.357L2.413,445.853  c-3.218,3.219-3.218,8.435,0,11.653l52.08,52.08c1.545,1.545,3.641,2.413,5.826,2.413s4.281-0.868,5.826-2.413l45.737-45.739  c2.99-2.992,7.127-4.614,11.358-4.485l52.513,1.747c8.752,0.283,17.355-3.1,23.558-9.302l46.771-46.771l4.359,4.359  c1.608,1.608,3.718,2.413,5.826,2.413c2.108,0,4.218-0.804,5.826-2.413l36.131-36.131c3.218-3.219,3.218-8.435,0-11.653  l-19.47-19.47l32.858-32.858c4.897-4.897,7.593-11.406,7.593-18.331c0-6.926-2.697-13.435-7.593-18.331  C306.718,267.727,300.208,265.029,293.284,265.029z M214.37,212.039c1.783-1.783,4.155-2.766,6.678-2.766  c2.522,0,4.894,0.983,6.679,2.767c1.784,1.783,2.766,4.154,2.766,6.676c0,2.522-0.983,4.894-2.766,6.678l-32.858,32.859  l-13.356-13.356L214.37,212.039z M256.269,391.917l-85.858-85.858c-3.218-3.217-8.435-3.217-11.652,0  c-1.61,1.609-2.414,3.719-2.414,5.827c0,2.109,0.804,4.218,2.414,5.827l75.671,75.671l-46.771,46.77  c-2.99,2.992-7.136,4.614-11.358,4.485l-52.513-1.747c-8.764-0.286-17.354,3.099-23.558,9.302l-39.911,39.912L19.892,451.68  l39.912-39.911c6.203-6.203,9.593-14.79,9.302-23.557l-1.746-52.513c-0.141-4.229,1.494-8.367,4.485-11.358l46.771-46.771  l16.833,16.833c3.218,3.217,8.435,3.217,11.652,0c3.218-3.219,3.218-8.435,0-11.653l-22.659-22.659  c-0.001-0.001-0.003-0.002-0.004-0.004l-4.355-4.355l24.479-24.478l19.466,19.466c0.002,0.002,0.003,0.003,0.005,0.005  l25.008,25.009c0.003,0.003,0.008,0.007,0.011,0.01l47.217,47.217l25.008,25.009c0.002,0.002,0.003,0.003,0.005,0.005l19.465,19.465  L256.269,391.917z M299.962,297.63l-32.858,32.859l-13.356-13.356l32.858-32.857c1.784-1.784,4.156-2.767,6.679-2.767  c2.523,0,4.894,0.983,6.678,2.767c1.784,1.783,2.766,4.154,2.766,6.678C302.728,293.477,301.745,295.847,299.962,297.63z"/>
<g>
</g>
<g>
</g>
<g>
</g>
<g>
</g>
<g>
</g>
<g>
</g>
<g>
</g>
<g>
</g>
<g>
</g>
<g>
</g>
<g>
</g>
<g>
</g>
<g>
</g>
<g>
</g>
<g>
</g>
</svg>
