<?xml version="1.0" encoding="iso-8859-1"?>
<!-- Generator: Adobe Illustrator 19.0.0, SVG Export Plug-In . SVG Version: 6.00 Build 0)  -->
<svg xmlns="http://www.w3.org/2000/svg" xmlns:xlink="http://www.w3.org/1999/xlink" version="1.1" id="Layer_1" x="0px" y="0px" viewBox="0 0 512 512" style="enable-background:new 0 0 512 512;" xml:space="preserve">
<circle style="fill:#FF6465;" cx="256.001" cy="256.001" r="30.055"/>
<path d="M255.999,294.528c21.245,0,38.528-17.284,38.528-38.528s-17.284-38.528-38.528-38.528S217.471,234.755,217.471,256  S234.756,294.528,255.999,294.528z M255.999,234.42c11.9,0,21.581,9.681,21.581,21.581s-9.681,21.581-21.581,21.581  c-11.9,0-21.581-9.681-21.581-21.581S244.1,234.42,255.999,234.42z"/>
<path d="M8.473,264.473h29.428c4.361,113.634,95.992,205.265,209.626,209.626v29.427c0,4.68,3.794,8.473,8.473,8.473  c4.68,0,8.473-3.794,8.473-8.473v-29.427c113.634-4.361,205.265-95.992,209.626-209.626h29.427c4.68,0,8.473-3.794,8.473-8.473  c0-4.68-3.794-8.473-8.473-8.473H474.1c-4.361-113.634-95.992-205.265-209.626-209.626V8.474c0-4.68-3.794-8.473-8.473-8.473  c-4.68,0-8.473,3.794-8.473,8.473v29.427C133.892,42.262,42.262,133.894,37.901,247.527H8.473C3.794,247.527,0,251.32,0,256  S3.794,264.473,8.473,264.473z M83.914,247.527H54.858C59.199,143.238,143.239,59.2,247.526,54.859v29.056  c0,4.681,3.794,8.473,8.473,8.473s8.473-3.793,8.473-8.473V54.859C368.761,59.2,452.8,143.24,457.14,247.527h-29.056  c-4.68,0-8.473,3.794-8.473,8.473s3.794,8.473,8.473,8.473h29.056C452.8,368.762,368.76,452.8,264.473,457.141v-29.056  c0-4.681-3.794-8.473-8.473-8.473s-8.473,3.793-8.473,8.473v29.056C143.239,452.8,59.199,368.76,54.858,264.473h29.056  c4.68,0,8.473-3.794,8.473-8.473S88.595,247.527,83.914,247.527z"/>
<g>
</g>
<g>
</g>
<g>
</g>
<g>
</g>
<g>
</g>
<g>
</g>
<g>
</g>
<g>
</g>
<g>
</g>
<g>
</g>
<g>
</g>
<g>
</g>
<g>
</g>
<g>
</g>
<g>
</g>
</svg>
