<?xml version="1.0" encoding="iso-8859-1"?>
<!-- Generator: Adobe Illustrator 19.0.0, SVG Export Plug-In . SVG Version: 6.00 Build 0)  -->
<svg xmlns="http://www.w3.org/2000/svg" xmlns:xlink="http://www.w3.org/1999/xlink" version="1.1" id="Layer_1" x="0px" y="0px" viewBox="0 0 511.997 511.997" style="enable-background:new 0 0 511.997 511.997;" xml:space="preserve">
<path style="fill:#515262;" d="M377.125,33.84l36.997,64.036l64.036,36.997l0,0c30.641-47.688,30.403-79.195,4.283-105.315  S424.813,3.2,377.125,33.84L377.125,33.84z"/>
<path style="fill:#C7CFE2;" d="M191.759,401.512l0.141-0.156l-25.947-55.311l-55.311-25.947l-0.083,0.073  c-24.655,23.076-67.786,33.87-67.786,33.87c0,62.213-48.574,93.888-26.751,127.251l15.688-0.314l-1.005,14.996  c33.364,21.823,65.038-26.751,127.251-26.751C157.957,469.225,168.729,426.18,191.759,401.512z"/>
<path style="fill:#515262;" d="M135.959,286.496l-0.08,0.109l30.075,59.439l59.439,30.075l1.293-0.973  c48.236-36.388,138.37-107.317,195.971-170.622c11.087-12.184,20.938-23.593,29.611-34.316l0,0l-38.146-72.332L341.789,59.73l0,0  c-10.723,8.672-22.132,18.524-34.316,29.611C243.647,147.419,172.072,238.564,135.959,286.496z"/>
<g>
	<path style="fill:#353640;" d="M193.572,399.61c0,0,12.332-8.811,31.82-23.491l-89.514-89.514   c-14.68,19.488-23.491,31.82-23.491,31.82c-0.566,0.566-1.156,1.118-1.746,1.672l81.258,81.258   C192.454,400.766,193.006,400.176,193.572,399.61z"/>
	<path style="fill:#353640;" d="M377.125,33.84c-10.89,6.997-22.629,15.613-35.335,25.89c19.099,12.865,40.17,30.527,60.061,50.418   s37.552,40.962,50.418,60.061c10.277-12.706,18.892-24.445,25.89-35.335c-13.073-17.738-29.082-36.23-46.943-54.09   S394.861,46.913,377.125,33.84z"/>
</g>
<path style="opacity:0.1;enable-background:new    ;" d="M165.243,315.97l0.08-0.109c36.111-47.932,107.688-139.077,171.515-197.154  c12.184-11.087,23.593-20.938,34.316-29.611l0,0c12.706-10.277,24.445-18.892,35.335-25.89h0.001  c37.99-24.409,65.704-29.202,88.614-16.945c-3.128-5.849-7.352-11.388-12.663-16.701C456.321,3.44,424.814,3.2,377.126,33.841  h-0.001c-10.89,6.997-22.629,15.613-35.335,25.89l0,0c-10.723,8.672-22.132,18.524-34.316,29.611  c-63.827,58.077-135.403,149.223-171.515,197.154l-0.08,0.109c-14.68,19.488-23.491,31.82-23.491,31.82  c-0.566,0.566-1.156,1.118-1.746,1.672l29.364,29.364c0.59-0.554,1.178-1.106,1.746-1.672  C141.752,347.79,150.565,335.458,165.243,315.97z"/>
<path d="M272.35,108.758c-56.888,57.597-115.081,132.164-144.707,171.486c-0.024,0.03-0.112,0.15-0.144,0.195  c-12.528,16.632-20.898,28.214-23.041,31.192c-0.284,0.273-0.583,0.552-0.901,0.851c-0.039,0.035-0.078,0.069-0.116,0.104  c-22.348,20.916-62.812,31.279-63.213,31.38c-4.621,1.156-7.861,5.309-7.861,10.071c0,26.892-10.005,47.86-18.832,66.36  c-11.835,24.803-24.075,50.452,1.754,76.281c10.309,10.309,21.358,15.32,33.775,15.32l0,0c14.074,0,27.886-6.59,42.507-13.567  c18.501-8.827,39.468-18.832,66.36-18.832c4.763,0,8.915-3.241,10.071-7.861c0.101-0.406,10.364-40.702,31.32-63.149  c0.042-0.044,0.083-0.09,0.125-0.137l0.04-0.046c0.282-0.302,0.563-0.602,0.849-0.898c2.98-2.141,14.592-10.536,31.268-23.096  c0.003-0.003,0.007-0.004,0.011-0.007l1.298-0.979c13.177-9.94,26.511-20.22,39.634-30.556c4.504-3.548,5.28-10.075,1.732-14.579  c-3.548-4.504-10.076-5.28-14.581-1.732c-11.052,8.704-22.256,17.371-33.382,25.819l-76.73-76.73  c30.601-40.29,84.735-108.843,137.534-162.301c4.03-4.079,3.988-10.653-0.09-14.682C282.952,104.639,276.378,104.678,272.35,108.758  z M150.036,459.079c-27.781,1.707-49.586,12.112-67.405,20.616c-12.98,6.193-24.191,11.542-33.566,11.542  c-2.906,0-6.506-0.428-10.833-2.816l53.928-53.927c6.525,1.57,13.685-0.169,18.779-5.263c7.786-7.786,7.786-20.412,0-28.2  c-7.786-7.786-20.412-7.786-28.2,0c-5.094,5.094-6.833,12.254-5.263,18.78l-53.913,53.912c-6.308-11.629-1.257-23.492,8.713-44.384  c8.504-17.82,18.908-39.623,20.614-67.404c12.439-3.841,37.573-12.836,57.122-27.766l67.79,67.789  C162.871,421.506,153.876,446.639,150.036,459.079z M192.652,387.442l-68.125-68.125c2.771-3.811,7.014-9.603,12.456-16.907  l49.198,49.198l23.377,23.378C202.254,380.427,196.461,384.671,192.652,387.442z"/>
<path d="M489.757,22.211C474.811,7.265,458.427,0,439.667,0c-19.59,0-41.891,8.21-68.178,25.101  c-11.211,7.204-23.069,15.89-36.251,26.553c-8.513,6.887-17.692,14.713-27.281,23.261c-4.28,3.816-4.657,10.378-0.842,14.659  c3.816,4.28,10.379,4.655,14.658,0.84c7.117-6.344,13.989-12.27,20.511-17.688c0.144,0.104,0.288,0.202,0.432,0.306  c36.401,26.049,69.115,58.78,95.365,95.038c0.289,0.399,0.581,0.8,0.867,1.197c0.101,0.141,0.197,0.28,0.296,0.419  c-7.26,8.743-15.406,18.083-24.288,27.845c-28.38,31.192-67.908,67.732-117.484,108.607c-4.424,3.649-5.054,10.191-1.406,14.616  c2.053,2.49,5.022,3.778,8.016,3.778c2.324,0,4.665-0.778,6.599-2.371c50.339-41.503,90.589-78.733,119.634-110.654  c11.222-12.335,21.318-24.034,30.008-34.78c10.663-13.184,19.348-25.04,26.549-36.247c16.305-25.378,24.504-46.983,25.069-66.05  C512.517,54.796,505.262,37.716,489.757,22.211z M376.707,46.539c0.149,0.115,0.298,0.221,0.447,0.338  c32.119,24.712,61.284,53.776,86.209,85.729c0.587,0.753,1.189,1.509,1.766,2.259c0.102,0.133,0.198,0.264,0.3,0.399  c-3.793,5.587-8.049,11.466-12.737,17.591c-0.075-0.101-0.154-0.202-0.228-0.302c-26.12-35.142-57.835-67.066-93.088-93.077  c-0.087-0.064-0.176-0.134-0.262-0.198C365.239,54.59,371.12,50.333,376.707,46.539z M477.101,116.465  c-0.237-0.298-0.485-0.597-0.724-0.894c-0.523-0.655-1.059-1.31-1.589-1.964c-23.229-28.683-49.615-54.966-78.426-78.042  c-0.28-0.224-0.559-0.457-0.839-0.678c17.13-9.486,31.657-14.122,44.144-14.122c13.152,0,24.403,5.125,35.408,16.129  C495.857,57.677,496.71,81.308,477.101,116.465z"/>
<g>
</g>
<g>
</g>
<g>
</g>
<g>
</g>
<g>
</g>
<g>
</g>
<g>
</g>
<g>
</g>
<g>
</g>
<g>
</g>
<g>
</g>
<g>
</g>
<g>
</g>
<g>
</g>
<g>
</g>
</svg>
