<?xml version="1.0" encoding="iso-8859-1"?>
<!-- Generator: Adobe Illustrator 19.0.0, SVG Export Plug-In . SVG Version: 6.00 Build 0)  -->
<svg xmlns="http://www.w3.org/2000/svg" xmlns:xlink="http://www.w3.org/1999/xlink" version="1.1" id="Layer_1" x="0px" y="0px" viewBox="0 0 512 512" style="enable-background:new 0 0 512 512;" xml:space="preserve">
<path style="fill:#7DD2F0;" d="M307.719,11.041v190.55c0,5.434,4.404,9.838,9.838,9.838h44.565c7.59,0,12.322,8.232,8.501,14.791  L264.501,408.37c-3.795,6.514-13.206,6.514-17.001,0L141.377,226.22c-3.821-6.559,0.911-14.791,8.501-14.791h44.565  c5.434,0,9.838-4.404,9.838-9.838V11.041C92.388,34.815,8.423,134.13,8.329,253.088C8.222,388.148,117.418,499.05,252.465,500.934  c138.405,1.93,251.206-109.685,251.206-247.646C503.671,134.241,419.675,34.828,307.719,11.041z"/>
<g style="opacity:0.1;">
	<path d="M63.855,253.088C63.933,154.81,121.258,69.944,204.281,30V11.041C92.388,34.815,8.423,134.13,8.329,253.088   C8.222,388.148,117.418,499.05,252.465,500.934c10.613,0.148,21.073-0.379,31.346-1.526   C160.148,485.548,63.755,379.985,63.855,253.088z"/>
</g>
<path d="M453.036,411.675c-1.761,0-3.537-0.555-5.045-1.706c-3.657-2.791-4.361-8.017-1.571-11.675  c32.005-41.962,48.923-92.105,48.923-145.006c0-55.158-19.215-108.985-54.106-151.567c-32.217-39.32-76.367-67.518-125.188-80.162  v73.486c0,4.601-3.729,8.329-8.329,8.329s-8.329-3.728-8.329-8.329V11.042c0-2.513,1.134-4.891,3.087-6.472  c1.953-1.582,4.515-2.198,6.973-1.675c56.486,12.001,107.864,43.348,144.67,88.268C491.444,136.716,512,194.292,512,253.288  c0,56.582-18.097,110.219-52.336,155.109C458.025,410.546,455.544,411.675,453.036,411.675z"/>
<path d="M256.041,509.288c-1.23,0-2.459-0.009-3.691-0.026c-67.513-0.942-130.93-28.097-178.568-76.465  C26.15,384.435-0.053,320.612,0,253.082c0.042-53.859,16.625-105.378,47.955-148.984c2.684-3.736,7.888-4.59,11.624-1.905  c3.736,2.684,4.589,7.888,1.905,11.624c-29.286,40.761-44.785,88.922-44.825,139.278c-0.05,63.122,24.452,122.79,68.991,168.013  c44.543,45.227,103.827,70.618,166.932,71.499c1.149,0.017,2.305,0.023,3.452,0.023c63.869,0.002,123.782-24.769,169.061-69.974  c3.255-3.251,8.529-3.246,11.778,0.01c3.251,3.255,3.246,8.529-0.01,11.778C388.437,482.793,324.346,509.287,256.041,509.288z"/>
<path d="M256.001,421.584L256.001,421.584c-6.539,0-12.406-3.372-15.697-9.021L134.18,230.413  c-3.314-5.688-3.334-12.49-0.053-18.198c3.28-5.707,9.168-9.114,15.752-9.114h44.565c0.833,0,1.509-0.676,1.509-1.509V21.553  c-43.48,11.212-82.672,34.351-113.866,67.33c-3.161,3.342-8.432,3.489-11.775,0.329c-3.342-3.162-3.488-8.433-0.328-11.775  c35.913-37.97,81.754-63.746,132.566-74.542c2.458-0.525,5.021,0.092,6.973,1.675c1.952,1.581,3.087,3.959,3.087,6.472v190.55  c0,10.018-8.15,18.167-18.167,18.167h-44.565c-0.58,0-1.019,0.254-1.308,0.757c-0.289,0.502-0.288,1.011,0.004,1.511  l106.123,182.151c0.29,0.496,0.729,0.749,1.304,0.749c0.576,0,1.015-0.252,1.305-0.749l106.122-182.151  c0.292-0.501,0.293-1.009,0.004-1.511c-0.289-0.502-0.73-0.757-1.309-0.757h-44.565c-10.018,0-18.167-8.15-18.167-18.167v-73.23  c0-4.601,3.729-8.329,8.329-8.329s8.329,3.728,8.329,8.329v73.23c0,0.833,0.676,1.509,1.509,1.509h44.565  c6.583,0,12.471,3.407,15.752,9.114c3.28,5.707,3.261,12.51-0.053,18.198L271.699,412.564  C268.406,418.213,262.538,421.584,256.001,421.584z"/>
<g>
</g>
<g>
</g>
<g>
</g>
<g>
</g>
<g>
</g>
<g>
</g>
<g>
</g>
<g>
</g>
<g>
</g>
<g>
</g>
<g>
</g>
<g>
</g>
<g>
</g>
<g>
</g>
<g>
</g>
</svg>
