<?xml version="1.0" encoding="iso-8859-1"?>
<!-- Generator: Adobe Illustrator 19.0.0, SVG Export Plug-In . SVG Version: 6.00 Build 0)  -->
<svg xmlns="http://www.w3.org/2000/svg" xmlns:xlink="http://www.w3.org/1999/xlink" version="1.1" id="Layer_1" x="0px" y="0px" viewBox="0 0 512 512" style="enable-background:new 0 0 512 512;" xml:space="preserve">
<path style="fill:#7DD2F0;" d="M325.587,176.626c0-12.01-9.736-21.746-21.746-21.746h-98.945c-12.01,0-21.746,9.736-21.746,21.746  v156.572c0,12.01,9.736,21.746,21.746,21.746h98.945c12.01,0,21.746-9.736,21.746-21.746V176.626z"/>
<g>
	<rect x="223.376" y="273.392" style="fill:#FFFFFF;" width="61.976" height="43.492"/>
	<rect x="223.376" y="194.019" style="fill:#FFFFFF;" width="61.976" height="43.492"/>
</g>
<g>
	<rect x="184.777" y="36.358" style="fill:#7DD2F0;" width="142.437" height="77.644"/>
	<rect x="184.777" y="397.997" style="fill:#7DD2F0;" width="142.437" height="77.644"/>
	<rect x="8.155" y="36.358" style="fill:#7DD2F0;" width="142.437" height="77.644"/>
	<rect x="8.155" y="156.887" style="fill:#7DD2F0;" width="142.437" height="77.644"/>
	<rect x="8.155" y="277.415" style="fill:#7DD2F0;" width="142.437" height="77.644"/>
	<rect x="361.409" y="156.942" style="fill:#7DD2F0;" width="142.437" height="77.644"/>
	<rect x="361.409" y="277.469" style="fill:#7DD2F0;" width="142.437" height="77.644"/>
	<rect x="361.409" y="397.997" style="fill:#7DD2F0;" width="142.437" height="77.644"/>
</g>
<path d="M206.527,362.555h98.945c16.488,0,29.901-13.413,29.901-29.901V176.083c0-16.488-13.413-29.901-29.901-29.901h-98.945  c-16.488,0-29.901,13.413-29.901,29.901v156.572C176.626,349.142,190.04,362.555,206.527,362.555z M192.936,176.083  c0-7.495,6.097-13.591,13.591-13.591h98.945c7.495,0,13.591,6.097,13.591,13.591v156.572c0,7.495-6.096,13.591-13.591,13.591  h-98.945c-7.495,0-13.591-6.097-13.591-13.591V176.083z"/>
<path d="M225.011,324.5h61.976c4.504,0,8.155-3.651,8.155-8.155v-43.492c0-4.504-3.651-8.155-8.155-8.155h-61.976  c-4.504,0-8.155,3.651-8.155,8.155v43.492C216.856,320.85,220.508,324.5,225.011,324.5z M233.166,281.007h45.667v27.183h-45.667  V281.007z"/>
<path d="M225.011,245.126h61.976c4.504,0,8.155-3.651,8.155-8.155v-43.492c0-4.504-3.651-8.155-8.155-8.155h-61.976  c-4.504,0-8.155,3.651-8.155,8.155v43.492C216.856,241.476,220.508,245.126,225.011,245.126z M233.166,201.634h45.667v27.183  h-45.667V201.634z"/>
<path d="M184.781,122.158h142.437c4.504,0,8.155-3.651,8.155-8.155V36.358c0-4.504-3.651-8.155-8.155-8.155H184.781  c-4.504,0-8.155,3.651-8.155,8.155v77.644C176.626,118.505,180.277,122.158,184.781,122.158z M192.936,44.513h126.127v61.335  H192.936V44.513z"/>
<path d="M184.781,483.796h142.437c4.504,0,8.155-3.651,8.155-8.155v-77.644c0-4.504-3.651-8.155-8.155-8.155H184.781  c-4.504,0-8.155,3.651-8.155,8.155v77.644C176.626,480.145,180.277,483.796,184.781,483.796z M192.936,406.152h126.127v61.335  H192.936V406.152z"/>
<path d="M8.155,122.158h142.437c4.504,0,8.155-3.651,8.155-8.155V36.358c0-4.504-3.651-8.155-8.155-8.155H8.155  C3.651,28.204,0,31.855,0,36.358v77.644C0,118.505,3.651,122.158,8.155,122.158z M16.31,44.513h126.127v61.335H16.31V44.513z"/>
<path d="M8.155,242.683h142.437c4.504,0,8.155-3.65,8.155-8.155v-77.643c0-4.505-3.651-8.155-8.155-8.155H8.155  c-4.504,0-8.155,3.65-8.155,8.155v77.643C0,239.033,3.651,242.683,8.155,242.683z M16.31,165.04h126.127v61.334H16.31V165.04z"/>
<path d="M158.747,355.056v-77.644c0-4.504-3.651-8.155-8.155-8.155H8.155c-4.504,0-8.155,3.651-8.155,8.155v77.644  c0,4.504,3.651,8.155,8.155,8.155h142.437C155.095,363.211,158.747,359.56,158.747,355.056z M142.437,346.901H16.31v-61.335h126.127  V346.901z"/>
<path d="M361.408,242.743h142.437c4.504,0,8.155-3.651,8.155-8.155v-77.644c0-4.504-3.651-8.155-8.155-8.155H361.408  c-4.504,0-8.155,3.651-8.155,8.155v77.644C353.253,239.092,356.905,242.743,361.408,242.743z M369.563,165.099H495.69v61.335  H369.563V165.099z"/>
<path d="M361.408,363.27h142.437c4.504,0,8.155-3.65,8.155-8.155v-77.643c0-4.505-3.651-8.155-8.155-8.155H361.408  c-4.504,0-8.155,3.65-8.155,8.155v77.643C353.253,359.619,356.905,363.27,361.408,363.27z M369.563,285.626H495.69v61.334H369.563  V285.626z"/>
<path d="M361.408,483.796h142.437c4.504,0,8.155-3.651,8.155-8.155v-77.644c0-4.504-3.651-8.155-8.155-8.155H361.408  c-4.504,0-8.155,3.651-8.155,8.155v77.644C353.253,480.145,356.905,483.796,361.408,483.796z M369.563,406.152H495.69v61.335  H369.563V406.152z"/>
<g>
</g>
<g>
</g>
<g>
</g>
<g>
</g>
<g>
</g>
<g>
</g>
<g>
</g>
<g>
</g>
<g>
</g>
<g>
</g>
<g>
</g>
<g>
</g>
<g>
</g>
<g>
</g>
<g>
</g>
</svg>
