<?xml version="1.0" encoding="iso-8859-1"?>
<!-- Generator: Adobe Illustrator 19.0.0, SVG Export Plug-In . SVG Version: 6.00 Build 0)  -->
<svg xmlns="http://www.w3.org/2000/svg" xmlns:xlink="http://www.w3.org/1999/xlink" version="1.1" id="Layer_1" x="0px" y="0px" viewBox="0 0 511.999 511.999" style="enable-background:new 0 0 511.999 511.999;" xml:space="preserve">
<path style="fill:#6AB2CC;" d="M354.165,68.172H73.936c-13.612,0-24.646,11.033-24.646,24.645v386.382  c0,13.612,11.034,24.646,24.646,24.646h280.23c13.612,0,24.646-11.034,24.646-24.646V92.817  C378.812,79.206,367.777,68.172,354.165,68.172z"/>
<rect x="199.903" y="133.491" style="fill:#E6E6E6;" width="262.806" height="370.353"/>
<path style="opacity:0.1;enable-background:new    ;" d="M76.698,74.595v2.863c0,27.567,22.427,49.994,49.993,49.994h174.72  c27.567,0,49.993-22.427,49.993-49.994v-2.863c0-2.167-0.112-4.309-0.317-6.423H77.016C76.81,70.287,76.698,72.428,76.698,74.595z"/>
<path style="fill:#7DD2F0;" d="M285.7,41.512H142.401c-18.271,0-33.084,14.813-33.084,33.084v2.863  c0,9.596,7.778,17.374,17.373,17.374h174.72c9.595,0,17.373-7.778,17.373-17.374v-2.863C318.784,56.324,303.971,41.512,285.7,41.512  z"/>
<path style="fill:#E6E6E6;" d="M214.051,8.155L214.051,8.155c-20.097,0-36.389,16.291-36.389,36.389v30.324h72.778V44.544  C250.439,24.446,234.148,8.155,214.051,8.155z"/>
<path d="M421.266,180.934H241.342c-4.504,0-8.155,3.65-8.155,8.155c0,4.505,3.651,8.155,8.155,8.155h179.924  c4.504,0,8.155-3.65,8.155-8.155C429.421,184.584,425.77,180.934,421.266,180.934z"/>
<path d="M421.266,230.464H241.342c-4.504,0-8.155,3.65-8.155,8.155s3.651,8.155,8.155,8.155h179.924c4.504,0,8.155-3.65,8.155-8.155  S425.77,230.464,421.266,230.464z"/>
<path d="M421.266,279.993H241.342c-4.504,0-8.155,3.65-8.155,8.155s3.651,8.155,8.155,8.155h179.924c4.504,0,8.155-3.65,8.155-8.155  S425.77,279.993,421.266,279.993z"/>
<path d="M421.266,329.523H241.342c-4.504,0-8.155,3.65-8.155,8.155s3.651,8.155,8.155,8.155h179.924c4.504,0,8.155-3.65,8.155-8.155  S425.77,329.523,421.266,329.523z"/>
<path d="M421.266,379.052H241.342c-4.504,0-8.155,3.65-8.155,8.155c0,4.505,3.651,8.155,8.155,8.155h179.924  c4.504,0,8.155-3.65,8.155-8.155C429.421,382.702,425.77,379.052,421.266,379.052z"/>
<path d="M421.266,428.582H241.342c-4.504,0-8.155,3.65-8.155,8.155s3.651,8.155,8.155,8.155h179.924c4.504,0,8.155-3.65,8.155-8.155  S425.77,428.582,421.266,428.582z"/>
<circle cx="214.049" cy="37.513" r="10.541"/>
<path d="M462.708,422.855c4.504,0,8.155-3.65,8.155-8.155V133.494c0-4.505-3.651-8.155-8.155-8.155h-75.742V92.817  c0-18.087-14.715-32.8-32.801-32.8h-29.897c-5.903-15.564-20.96-26.661-38.568-26.661h-28.529C252.195,14.193,234.75,0,214.051,0  c-20.698,0-38.143,14.193-43.119,33.357h-28.529c-17.608,0-32.666,11.096-38.568,26.661H73.936c-18.087,0-32.801,14.714-32.801,32.8  v45.345c0,4.505,3.651,8.155,8.155,8.155s8.155-3.65,8.155-8.155V92.817c0-9.092,7.398-16.49,16.491-16.49h27.228v1.131  c0,2.2,0.279,4.335,0.805,6.373c2.838,11.004,12.846,19.156,24.722,19.156h174.72c14.077,0,25.528-11.452,25.528-25.529v-1.131  h27.228c9.093,0,16.491,7.398,16.491,16.49v32.522H199.899c-4.504,0-8.155,3.65-8.155,8.155v362.195h-51.288  c-4.504,0-8.155,3.65-8.155,8.155s3.651,8.155,8.155,8.155h322.253c4.504,0,8.155-3.65,8.155-8.155v-51.202  c0-4.505-3.651-8.155-8.155-8.155s-8.155,3.65-8.155,8.155v43.048H208.054V141.649h246.5v273.05  C454.553,419.203,458.205,422.855,462.708,422.855z M214.051,16.31c14.758,0,26.899,11.383,28.125,25.828  c0.001,0.015,0,0.03,0.001,0.046c0.035,0.426,0.061,0.826,0.079,1.207c0.015,0.383,0.029,0.767,0.029,1.154v22.169h-56.468V44.544  c0-0.39,0.014-0.777,0.029-1.163c0.017-0.378,0.043-0.774,0.078-1.197c0.001-0.011,0-0.023,0.001-0.034  C187.146,27.698,199.289,16.31,214.051,16.31z M310.629,77.458c0,5.083-4.135,9.219-9.218,9.219h-174.72  c-5.082,0-9.218-4.136-9.218-9.219c0-2.566-0.026-5.102,0.463-7.632c2.232-11.471,12.351-20.16,24.466-20.16h27.105v25.202  c0,4.505,3.651,8.155,8.155,8.155h72.778c4.504,0,8.155-3.65,8.155-8.155V49.667h27.105c12.112,0,22.228,8.683,24.465,20.15  C310.63,72.208,310.629,74.918,310.629,77.458z"/>
<path d="M102.4,495.69H73.936c-9.093,0-16.491-7.398-16.491-16.491V176.218c0-4.505-3.651-8.155-8.155-8.155  s-8.155,3.65-8.155,8.155v302.979c0,18.087,14.715,32.801,32.801,32.801H102.4c4.504,0,8.155-3.65,8.155-8.155  S106.903,495.69,102.4,495.69z"/>
<g>
</g>
<g>
</g>
<g>
</g>
<g>
</g>
<g>
</g>
<g>
</g>
<g>
</g>
<g>
</g>
<g>
</g>
<g>
</g>
<g>
</g>
<g>
</g>
<g>
</g>
<g>
</g>
<g>
</g>
</svg>
