<?xml version="1.0" encoding="iso-8859-1"?>
<!-- Generator: Adobe Illustrator 19.0.0, SVG Export Plug-In . SVG Version: 6.00 Build 0)  -->
<svg xmlns="http://www.w3.org/2000/svg" xmlns:xlink="http://www.w3.org/1999/xlink" version="1.1" id="Layer_1" x="0px" y="0px" viewBox="0 0 512 512" style="enable-background:new 0 0 512 512;" xml:space="preserve">
<polygon style="fill:#C7CFE2;" points="219.242,8.056 30.893,8.056 30.893,469.312 360.647,469.312 360.647,130.292 289.945,69.173   "/>
<polygon style="opacity:0.1;enable-background:new    ;" points="219.242,8.056 187.018,8.056 187.018,162.516 360.647,162.516   360.647,130.292 289.945,69.173 "/>
<polygon style="fill:#DCE5FA;" points="293.187,8.056 219.242,8.056 219.242,130.292 360.647,130.292 360.647,75.516 "/>
<path style="fill:#515262;" d="M384.055,381.659c28.429,36.369,65.894,45.011,86.65,73.836c20.756,28.826,4.038,42.085,4.038,42.085  s-13.259,16.718-42.085-4.038c-28.826-20.756-37.467-58.22-73.836-86.65L384.055,381.659z"/>
<ellipse transform="matrix(-0.7071 -0.7071 0.7071 -0.7071 344.5917 909.9257)" style="fill:#B4BBCC;" cx="360.748" cy="383.596" rx="23.394" ry="30.387"/>
<circle style="fill:#7DD2F0;" cx="291.768" cy="314.604" r="100.024"/>
<circle style="fill:#FFFFFF;" cx="291.768" cy="314.604" r="70.727"/>
<path style="opacity:0.1;enable-background:new    ;" d="M263.239,286.077c23.932-23.932,60.739-27.112,88.112-9.573  c-2.704-4.219-5.884-8.221-9.573-11.91c-27.62-27.62-72.402-27.62-100.022,0c-27.62,27.62-27.62,72.402,0,100.024  c3.689,3.689,7.691,6.869,11.91,9.573C236.127,346.816,239.307,310.009,263.239,286.077z"/>
<path d="M347.466,258.897c-14.88-14.88-34.665-23.075-55.708-23.075c-21.043,0-40.828,8.196-55.708,23.075  c-30.717,30.718-30.717,80.699,0,111.417c14.88,14.88,34.665,23.075,55.708,23.075c21.043,0,40.828-8.196,55.708-23.075  C378.184,339.596,378.184,289.615,347.466,258.897z M336.074,358.921c-11.837,11.837-27.575,18.356-44.315,18.356  c-16.74,0-32.479-6.519-44.316-18.356c-24.436-24.436-24.436-64.196,0-88.631c11.837-11.837,27.575-18.356,44.316-18.356  c16.739,0,32.478,6.519,44.315,18.356C360.509,294.726,360.509,334.485,336.074,358.921z"/>
<path d="M30.885,477.368h329.753c4.449,0,8.056-3.607,8.056-8.056v-42.405c9.717,10.426,17.11,21.543,24.313,32.393  c10.219,15.395,19.873,29.934,34.934,40.78c10.985,7.91,21.451,11.92,31.108,11.921c12.349,0,19.337-6.463,21.406-8.73  c1.772-1.636,6.099-6.291,7.894-14.124c2.643-11.536-1.097-24.442-11.117-38.358c-10.844-15.062-25.385-24.715-40.78-34.934  c-13.947-9.259-28.339-18.813-41.129-33.24c1.463-8.591-0.161-17.05-5.065-23.524c17.822-39.579,10.634-87.761-21.568-120.392  V75.516c0-2.136-0.849-4.185-2.36-5.696L298.874,2.36c-1.51-1.511-3.56-2.36-5.696-2.36H113.359c-4.449,0-8.056,3.607-8.056,8.056  s3.607,8.056,8.056,8.056h97.817v114.18c0,4.449,3.607,8.056,8.056,8.056h63.312c4.449,0,8.056-3.607,8.056-8.056  c0-4.449-3.607-8.056-8.056-8.056h-55.256V16.112h62.552l62.74,62.74v43.383h-37.813c-4.449,0-8.056,3.607-8.056,8.056  c0,4.449,3.607,8.056,8.056,8.056h37.813v86.884c-17.791-12.162-38.802-18.71-60.823-18.71c-69.544,0-121.657,67.52-104.743,134.656  c15.835,62.855,88.906,98.442,148.127,72.481c0.382-0.17,0.765-0.339,1.147-0.51c0.02,0.015,0.042,0.028,0.062,0.044  c0.535,0.401,1.083,0.783,1.661,1.15c4.206,2.678,9.204,4.201,14.568,4.4v42.515H38.941v-67.631c0-4.449-3.607-8.056-8.056-8.056  s-8.056,3.607-8.056,8.056v75.687C22.829,473.762,26.435,477.368,30.885,477.368z M375.664,389.467  c-4.611,7.227-12.48,12.755-21.052,13.167c-0.012,0-0.024,0.002-0.035,0.002c-0.024,0.001-0.046-0.001-0.071,0  c2.379-1.704,4.697-3.511,6.949-5.417c0.061-0.052,0.124-0.103,0.184-0.156c6.744-5.732,12.769-12.27,17.943-19.452  c0.07-0.098,0.146-0.191,0.216-0.29c-0.07,1.725-0.393,3.531-0.955,5.35c-0.125,0.406-0.262,0.809-0.408,1.211  C377.733,385.813,376.797,387.691,375.664,389.467z M385.006,403.703c1.305-1.488,2.516-3.055,3.623-4.685  c12.774,12.906,26.522,22.033,38.914,30.259c14.749,9.791,27.487,18.247,36.615,30.925c15.067,20.926,6.512,30.142,5.493,31.12  c-0.64,0.455-0.719,0.534-1.174,1.173c-0.512,0.531-3.545,3.392-9.428,3.392c-6.12,0-13.622-3.072-21.693-8.884  c-12.678-9.128-21.134-21.866-30.925-36.615c-8.227-12.391-17.354-26.14-30.258-38.914c0.016-0.011,0.031-0.023,0.047-0.033  C379.468,409.277,382.421,406.649,385.006,403.703z M350.641,384.99c-37.333,31.098-94.602,27.285-127.173-8.777  c-31.517-34.895-31.517-88.321,0-123.216c23.409-25.918,59.906-36.118,93.437-26.877c0.067,0.018,0.133,0.037,0.2,0.055  c51.087,14.537,79.454,71.723,60.54,121.322C372.039,362.197,362.565,375.056,350.641,384.99z"/>
<path d="M30.885,369.457c4.449,0,8.056-3.607,8.056-8.056V16.112h42.194c4.449,0,8.056-3.607,8.056-8.056S85.584,0,81.135,0h-50.25  c-4.449,0-8.056,3.607-8.056,8.056v353.345C22.829,365.85,26.435,369.457,30.885,369.457z"/>
<g>
</g>
<g>
</g>
<g>
</g>
<g>
</g>
<g>
</g>
<g>
</g>
<g>
</g>
<g>
</g>
<g>
</g>
<g>
</g>
<g>
</g>
<g>
</g>
<g>
</g>
<g>
</g>
<g>
</g>
</svg>
