<?xml version="1.0" encoding="iso-8859-1"?>
<!-- Generator: Adobe Illustrator 19.0.0, SVG Export Plug-In . SVG Version: 6.00 Build 0)  -->
<svg xmlns="http://www.w3.org/2000/svg" xmlns:xlink="http://www.w3.org/1999/xlink" version="1.1" id="Layer_1" x="0px" y="0px" viewBox="0 0 512.001 512.001" style="enable-background:new 0 0 512.001 512.001;" xml:space="preserve">
<polygon style="fill:#6AB2CC;" points="503.407,244.125 503.407,175.653 256.001,11.736 8.593,175.653 8.593,244.125 73.904,384.18   256.001,405.967 440.123,380.031 "/>
<rect x="96.775" y="73.053" style="fill:#E6E6E6;" width="318.453" height="348.774"/>
<g>
	<polygon style="fill:#7DD2F0;" points="8.593,500.264 8.593,244.125 170.595,360.397 109.178,470.289  "/>
	<polygon style="fill:#7DD2F0;" points="503.407,500.264 503.407,244.125 341.405,360.397 402.823,470.289  "/>
</g>
<polygon style="fill:#99E4FF;" points="503.407,500.264 8.593,500.264 256.001,286.66 "/>
<path d="M170.67,142.672h170.811c4.705,0,8.517-3.813,8.517-8.517s-3.812-8.517-8.517-8.517H170.67  c-4.705,0-8.517,3.813-8.517,8.517S165.965,142.672,170.67,142.672z"/>
<path d="M170.67,182.095h170.811c4.705,0,8.517-3.813,8.517-8.517s-3.812-8.517-8.517-8.517H170.67  c-4.705,0-8.517,3.813-8.517,8.517S165.965,182.095,170.67,182.095z"/>
<path d="M170.67,221.519h170.811c4.705,0,8.517-3.813,8.517-8.517s-3.812-8.517-8.517-8.517H170.67  c-4.705,0-8.517,3.813-8.517,8.517S165.965,221.519,170.67,221.519z"/>
<path d="M508.188,168.553l-84.612-56.058c-0.001-13.013-0.001-26.104-0.001-39.324c0-4.704-3.812-8.517-8.517-8.517h-63.692  L260.78,4.637c-2.853-1.888-6.556-1.888-9.408,0l-90.587,60.017H97.093c-4.705,0-8.517,3.813-8.517,8.517  c0,13.309-0.001,26.368-0.009,39.328c-8.088,5.346-65.525,42.275-85.203,57.23C1.245,171.339,0,173.848,0,176.509l0.151,323.756  c0,0.072,0.014,0.14,0.016,0.21c0.062,2.008,0.861,4.079,2.269,5.567c1.613,1.702,3.887,2.742,6.243,2.739h494.805  c2.377,0,4.655-1.066,6.274-2.784c1.375-1.46,2.181-3.518,2.227-5.521c0.002-0.07,0.016-0.14,0.016-0.21V175.653  C512,172.797,510.568,170.131,508.188,168.553z M256.076,21.953l64.279,42.587H191.797L256.076,21.953z M494.966,180.227v59.526  l-71.149,51.065V133.088L494.966,180.227z M88.451,132.944c0.036,6.506-0.031,46.657-0.111,60.466  c-0.002,0.219-0.002,0.436-0.005,0.655c0,0.011,0.001,0.022,0.001,0.033c0,0.086,0,0.171-0.001,0.258  c-0.027,4.704,3.762,8.54,8.466,8.567c0.018,0,0.034,0,0.052,0c4.68,0,8.489-3.78,8.516-8.467c0.001-0.216,0.002-0.43,0.003-0.646  c0.129-13.967,0.237-88.255,0.237-112.121h300.931c0,75.391,0.009,147.052,0.229,221.366l-64.804,46.51l-80.325-69.35  c-3.198-2.761-7.933-2.761-11.132,0l-80.325,69.35l-64.783-46.496c0.052-6.042,0.089-56.941-0.033-69.193  c-0.047-4.675-3.851-8.432-8.515-8.432c-0.028,0-0.058,0-0.086,0c-4.705,0.047-8.479,3.897-8.433,8.601c0,0.012,0,0.025,0,0.037  c0,0.002,0,0.005,0,0.007c0.122,12.176,0.133,54.977,0.123,56.819l-71.424-51.263v-58.888  C35.219,167.194,83.397,136.227,88.451,132.944z M17.185,261.149c16.174,11.575,108.625,78.001,139.67,99.923L17.185,481.658  V261.149z M31.566,491.747l224.51-193.835l138.499,119.576c1.558,1.346,3.464,2.026,5.371,2.068c2.18,0.049,4.365-0.737,6.038-2.319  c0.209-0.198,0.41-0.408,0.602-0.63c0.384-0.445,0.714-0.919,0.991-1.413c0.69-1.234,1.047-2.596,1.078-3.96  c0.055-2.454-0.946-4.911-2.949-6.641l-50.478-43.582l139.739-100.291v220.937L431.6,426.951c-3.562-3.075-8.937-2.679-12.012,0.88  c-3.074,3.56-2.679,8.939,0.88,12.012l60.116,51.903L31.566,491.747L31.566,491.747z"/>
<g>
</g>
<g>
</g>
<g>
</g>
<g>
</g>
<g>
</g>
<g>
</g>
<g>
</g>
<g>
</g>
<g>
</g>
<g>
</g>
<g>
</g>
<g>
</g>
<g>
</g>
<g>
</g>
<g>
</g>
</svg>
