<?xml version="1.0" encoding="iso-8859-1"?>
<!-- Generator: Adobe Illustrator 19.0.0, SVG Export Plug-In . SVG Version: 6.00 Build 0)  -->
<svg xmlns="http://www.w3.org/2000/svg" xmlns:xlink="http://www.w3.org/1999/xlink" version="1.1" id="Layer_1" x="0px" y="0px" viewBox="0 0 512 512" style="enable-background:new 0 0 512 512;" xml:space="preserve">
<g>
	<path style="fill:#353640;" d="M230.703,8.438H135.28c-15.7,0-28.427,12.727-28.427,28.427v438.272   c0,15.699,12.727,28.427,28.427,28.427h95.423l25.298-247.562L230.703,8.438z"/>
	<path style="fill:#353640;" d="M376.721,8.438h-95.423L256,255.999l25.298,247.562h95.423c15.7,0,28.427-12.727,28.427-28.427   V36.864C405.148,21.165,392.421,8.438,376.721,8.438z"/>
</g>
<g>
	<path style="fill:#7DD2F0;" d="M69.712,246.568l-37.506-32.183c-8.061-6.917-20.521-1.189-20.521,9.431v64.365   c0,10.621,12.461,16.349,20.521,9.432l37.506-32.183C75.492,260.472,75.492,251.528,69.712,246.568z"/>
	<path style="fill:#7DD2F0;" d="M442.289,246.568l37.506-32.183c8.061-6.917,20.521-1.189,20.521,9.431v64.365   c0,10.621-12.461,16.349-20.521,9.432l-37.506-32.183C436.509,260.472,436.509,251.528,442.289,246.568z"/>
</g>
<rect x="230.706" y="8.438" style="fill:#FFD782;" width="50.595" height="495.128"/>
<path d="M75.206,240.165l-37.506-32.182c-3.854-3.306-8.529-5.055-13.519-5.055c-11.544,0-20.934,9.371-20.934,20.889v64.365  c0,11.518,9.39,20.888,20.933,20.889h0.002c4.989,0,9.664-1.748,13.517-5.055l37.507-32.182c4.625-3.968,7.279-9.74,7.279-15.835  C82.485,249.905,79.832,244.133,75.206,240.165z M64.218,259.028l-37.508,32.183c-0.762,0.655-1.612,0.986-2.527,0.986h-0.001  c-1.685,0-4.059-1.245-4.059-4.014v-64.365c0-2.769,2.373-4.014,4.059-4.014c0.915,0,1.766,0.331,2.529,0.986l37.507,32.182  c1.211,1.04,1.392,2.343,1.392,3.029C65.61,256.685,65.429,257.988,64.218,259.028z"/>
<path d="M487.818,202.928c-4.991,0-9.665,1.748-13.518,5.055l-37.507,32.182c-4.625,3.968-7.279,9.74-7.279,15.836  c0,6.094,2.653,11.867,7.279,15.835l37.506,32.182c3.854,3.306,8.529,5.055,13.519,5.055c11.544,0,20.934-9.371,20.934-20.889  v-64.365C508.753,212.298,499.362,202.928,487.818,202.928z M491.877,288.183c0,2.769-2.373,4.014-4.059,4.014  c-0.915,0-1.766-0.331-2.529-0.986l-37.507-32.182c-1.21-1.04-1.392-2.343-1.392-3.027c0-0.685,0.181-1.989,1.392-3.029  l37.508-32.183c0.762-0.655,1.613-0.986,2.528-0.986c1.686,0,4.059,1.245,4.059,4.014L491.877,288.183L491.877,288.183z"/>
<path d="M376.721,0h-95.423h-50.595H135.28c-20.327,0-36.864,16.538-36.864,36.864v38.931c0,4.66,3.777,8.438,8.438,8.438  s8.438-3.778,8.438-8.438V36.864c0-11.022,8.967-19.989,19.989-19.989h86.986v478.25H135.28c-11.022,0-19.989-8.967-19.989-19.989  v-365.59c0-4.66-3.777-8.438-8.438-8.438s-8.438,3.778-8.438,8.438v365.59c0,20.327,16.537,36.864,36.864,36.864h95.423h50.595  h95.423c20.327,0,36.864-16.538,36.864-36.864v-65.775c0-4.66-3.777-8.438-8.438-8.438c-4.661,0-8.438,3.778-8.438,8.438v65.775  c0,11.022-8.967,19.989-19.989,19.989h-86.986V16.875h86.986c11.022,0,19.989,8.967,19.989,19.989v338.746  c0,4.66,3.777,8.438,8.438,8.438c4.661,0,8.438-3.778,8.438-8.438V36.864C413.586,16.538,397.048,0,376.721,0z M272.861,495.125  h-33.72V16.875h33.72L272.861,495.125L272.861,495.125z"/>
<g>
</g>
<g>
</g>
<g>
</g>
<g>
</g>
<g>
</g>
<g>
</g>
<g>
</g>
<g>
</g>
<g>
</g>
<g>
</g>
<g>
</g>
<g>
</g>
<g>
</g>
<g>
</g>
<g>
</g>
</svg>
