<?xml version="1.0" encoding="iso-8859-1"?>
<!-- Generator: Adobe Illustrator 19.0.0, SVG Export Plug-In . SVG Version: 6.00 Build 0)  -->
<svg xmlns="http://www.w3.org/2000/svg" xmlns:xlink="http://www.w3.org/1999/xlink" version="1.1" id="Layer_1" x="0px" y="0px" viewBox="0 0 512 512" style="enable-background:new 0 0 512 512;" xml:space="preserve">
<path style="fill:#C7CFE2;" d="M446.43,49.398H65.569c-31.533,0-57.095,25.563-57.095,57.097v103.672l247.526,50.836l247.526-50.836  V106.495C503.527,74.961,477.964,49.398,446.43,49.398z"/>
<rect x="8.473" y="210.165" style="fill:#515262;" width="495.054" height="101.673"/>
<path style="opacity:0.1;enable-background:new    ;" d="M133.357,49.398H65.569c-31.533,0-57.095,25.563-57.095,57.097v205.344  h67.788V106.495C76.261,74.961,101.824,49.398,133.357,49.398z"/>
<rect x="140.852" y="180.621" style="fill:#DCE5FA;" width="230.298" height="281.986"/>
<circle cx="399.055" cy="138.626" r="16.574"/>
<circle cx="454.246" cy="138.626" r="16.574"/>
<path d="M174.195,269.477h163.609c4.681,0,8.473-3.794,8.473-8.473c0-4.68-3.793-8.473-8.473-8.473H174.195  c-4.681,0-8.473,3.794-8.473,8.473C165.722,265.683,169.515,269.477,174.195,269.477z"/>
<path d="M174.195,320.312h163.609c4.681,0,8.473-3.794,8.473-8.473c0-4.68-3.793-8.473-8.473-8.473H174.195  c-4.681,0-8.473,3.794-8.473,8.473C165.722,316.518,169.515,320.312,174.195,320.312z"/>
<path d="M174.195,371.149h163.609c4.681,0,8.473-3.794,8.473-8.473c0-4.68-3.793-8.473-8.473-8.473H174.195  c-4.681,0-8.473,3.794-8.473,8.473C165.722,367.356,169.515,371.149,174.195,371.149z"/>
<path d="M446.431,40.925H141.978c-4.681,0-8.473,3.794-8.473,8.473s3.793,8.473,8.473,8.473h304.453  c26.81,0,48.622,21.812,48.622,48.623v95.199H379.624v-21.074c0-4.68-3.793-8.473-8.473-8.473H140.849  c-4.681,0-8.473,3.794-8.473,8.473v21.074H16.947v-95.199c0-26.81,21.812-48.623,48.622-48.623h42.515  c4.681,0,8.473-3.794,8.473-8.473s-3.793-8.473-8.473-8.473H65.569C29.414,40.925,0,70.34,0,106.495v103.672V311.84  c0,4.68,3.793,8.473,8.473,8.473h123.903v142.289c0,4.68,3.793,8.473,8.473,8.473h41.799c4.681,0,8.473-3.794,8.473-8.473  s-3.793-8.473-8.473-8.473h-33.326V189.092h213.354v265.036H216.542c-4.681,0-8.473,3.794-8.473,8.473  c0,4.68,3.793,8.473,8.473,8.473h154.608c4.681,0,8.473-3.794,8.473-8.473V320.312h46.54c4.681,0,8.473-3.794,8.473-8.473  c0-4.68-3.793-8.473-8.473-8.473h-46.54v-84.726h115.429v84.726h-34.995c-4.681,0-8.473,3.794-8.473,8.473  c0,4.68,3.793,8.473,8.473,8.473h43.469c4.681,0,8.473-3.794,8.473-8.473V210.166V106.495C512,70.34,482.586,40.925,446.431,40.925z   M132.376,303.365H16.947v-84.726h115.429V303.365z"/>
<g>
</g>
<g>
</g>
<g>
</g>
<g>
</g>
<g>
</g>
<g>
</g>
<g>
</g>
<g>
</g>
<g>
</g>
<g>
</g>
<g>
</g>
<g>
</g>
<g>
</g>
<g>
</g>
<g>
</g>
</svg>
