<?xml version="1.0" encoding="iso-8859-1"?>
<!-- Generator: Adobe Illustrator 19.0.0, SVG Export Plug-In . SVG Version: 6.00 Build 0)  -->
<svg xmlns="http://www.w3.org/2000/svg" xmlns:xlink="http://www.w3.org/1999/xlink" version="1.1" id="Layer_1" x="0px" y="0px" viewBox="0 0 512 512" style="enable-background:new 0 0 512 512;" xml:space="preserve">
<path style="fill:#E6E6E6;" d="M391.428,8.404H120.572c-17.327,0-31.374,14.046-31.374,31.374v432.444  c0,17.327,14.046,31.374,31.374,31.374h270.856c17.327,0,31.374-14.046,31.374-31.374V39.778  C422.802,22.451,408.755,8.404,391.428,8.404z"/>
<path style="fill:#515262;" d="M367.311,42.021H144.69c-12.081,0-21.875,9.793-21.875,21.875v384.21  c0,12.081,9.794,21.875,21.875,21.875h222.621c12.081,0,21.875-9.793,21.875-21.875V63.895  C389.185,51.814,379.391,42.021,367.311,42.021z"/>
<path style="fill:#E6E6E6;" d="M256.002,342.118c165.762-97.558,78.996-205.908,0-162.309  C177.006,136.211,90.24,244.561,256.002,342.118z"/>
<path style="opacity:0.1;enable-background:new    ;" d="M156.432,472.222V39.778c0-17.327,14.046-31.374,31.374-31.374h-67.234  c-17.327,0-31.374,14.046-31.374,31.374v432.444c0,17.327,14.046,31.374,31.374,31.374h67.234  C170.479,503.596,156.432,489.549,156.432,472.222z"/>
<path d="M391.428,0H120.572C98.639,0,80.794,17.844,80.794,39.778v432.444c0,21.934,17.845,39.778,39.778,39.778h270.856  c21.933,0,39.778-17.844,39.778-39.778v-45.133c0-4.641-3.762-8.404-8.404-8.404c-4.643,0-8.404,3.763-8.404,8.404v45.133  c0,12.666-10.304,22.969-22.969,22.969H120.572c-12.666,0-22.969-10.304-22.969-22.969V39.778c0-12.666,10.304-22.969,22.969-22.969  h270.856c12.666,0,22.969,10.304,22.969,22.969v353.694c0,4.641,3.762,8.404,8.404,8.404c4.643,0,8.404-3.763,8.404-8.404V39.778  C431.206,17.844,413.361,0,391.428,0z"/>
<path d="M122.815,129.105c-4.643,0-8.404,3.763-8.404,8.404v310.596c0,16.695,13.584,30.279,30.279,30.279h222.621  c16.694,0,30.278-13.582,30.278-30.279V63.895c0-16.695-13.582-30.279-30.278-30.279h-222.62c-16.695,0-30.279,13.582-30.279,30.279  v40.321c0,4.641,3.762,8.404,8.404,8.404c4.643,0,8.404-3.763,8.404-8.404V63.895c0-7.427,6.043-13.47,13.47-13.47h222.621  c7.427,0,13.469,6.043,13.469,13.47v384.21c0,7.427-6.042,13.47-13.469,13.47H144.691c-7.428,0-13.47-6.043-13.47-13.47V137.509  C131.22,132.868,127.458,129.105,122.815,129.105z"/>
<path d="M251.941,187.169c2.528,1.395,5.594,1.395,8.122,0c17.976-9.922,37.611-11.609,53.871-4.634  c4.271,1.831,9.207-0.146,11.038-4.411c1.83-4.266-0.145-9.208-4.411-11.038c-19.807-8.496-43.103-7.275-64.56,3.25  c-17.307-8.482-35.994-10.974-53.087-7.002c-18.011,4.185-32.754,14.956-41.517,30.326c-20.19,35.416-8.644,97.443,90.342,155.702  c1.316,0.773,2.788,1.161,4.263,1.161c1.475,0,2.947-0.388,4.263-1.161c67.691-39.84,89.623-78.467,96.102-103.857  c4.942-19.371,2.724-37.684-6.416-52.958c-2.381-3.985-7.544-5.28-11.526-2.897c-3.984,2.383-5.28,7.544-2.897,11.527  c6.788,11.346,8.363,25.237,4.552,40.173c-7.806,30.59-37.594,62.783-84.076,90.979c-37.979-23.027-64.763-48.551-77.606-74.007  c-10.448-20.711-11.3-40.719-2.397-56.337C187.926,181.065,218.596,168.764,251.941,187.169z"/>
<g>
</g>
<g>
</g>
<g>
</g>
<g>
</g>
<g>
</g>
<g>
</g>
<g>
</g>
<g>
</g>
<g>
</g>
<g>
</g>
<g>
</g>
<g>
</g>
<g>
</g>
<g>
</g>
<g>
</g>
</svg>
