<?xml version="1.0" encoding="iso-8859-1"?>
<!-- Generator: Adobe Illustrator 19.0.0, SVG Export Plug-In . SVG Version: 6.00 Build 0)  -->
<svg xmlns="http://www.w3.org/2000/svg" xmlns:xlink="http://www.w3.org/1999/xlink" version="1.1" id="Layer_1" x="0px" y="0px" viewBox="0 0 512 512" style="enable-background:new 0 0 512 512;" xml:space="preserve">
<path style="fill:#7DD2F0;" d="M471.286,84.869H40.714c-18.058,0-32.695,14.638-32.695,32.694v276.875  c0,18.057,14.638,32.694,32.695,32.694h430.572c18.058,0,32.695-14.638,32.695-32.694V117.564  C503.981,99.507,489.343,84.869,471.286,84.869z"/>
<path style="fill:#FFFFFF;" d="M439.942,127.635H72.058c-11.749,0-21.274,9.524-21.274,21.273v214.186  c0,11.749,9.524,21.273,21.274,21.273h367.884c11.749,0,21.274-9.524,21.274-21.273V148.908  C461.215,137.159,451.691,127.635,439.942,127.635z"/>
<rect x="95.151" y="171.662" style="fill:#7DD2F0;" width="100.713" height="100.713"/>
<g>
	<rect x="233.886" y="171.662" style="fill:#FFD782;" width="182.963" height="32.746"/>
	<rect x="233.886" y="239.628" style="fill:#FFD782;" width="182.963" height="32.746"/>
	<rect x="95.151" y="307.593" style="fill:#FFD782;" width="321.695" height="32.746"/>
</g>
<path style="opacity:0.1;enable-background:new    ;" d="M147.007,394.438V117.562c0-18.057,14.638-32.694,32.695-32.694H40.714  c-18.058,0-32.695,14.638-32.695,32.694v276.875c0,18.057,14.638,32.694,32.695,32.694h138.989  C161.645,427.132,147.007,412.494,147.007,394.438z"/>
<path d="M471.286,435.151H40.714C18.264,435.151,0,416.887,0,394.438V117.562C0,95.113,18.264,76.85,40.714,76.85h430.572  c22.45,0,40.714,18.264,40.714,40.713v276.875C512,416.887,493.736,435.151,471.286,435.151z M40.714,92.887  c-13.607,0-24.677,11.07-24.677,24.676v276.875c0,13.607,11.07,24.676,24.677,24.676h430.572c13.607,0,24.677-11.07,24.677-24.676  V117.562c0-13.607-11.07-24.676-24.677-24.676H40.714z"/>
<path d="M439.941,392.385H72.058c-16.152,0-29.292-13.14-29.292-29.291V148.908c0-16.152,13.141-29.291,29.291-29.291H439.94  c16.152,0,29.292,13.141,29.292,29.291v214.186C469.233,379.245,456.093,392.385,439.941,392.385z M72.058,135.652  c-7.309,0-13.254,5.947-13.254,13.254v214.186c0,7.309,5.947,13.254,13.254,13.254h367.883c7.309,0,13.255-5.947,13.255-13.254  V148.908c0-7.309-5.947-13.254-13.255-13.254H72.058V135.652z"/>
<path d="M195.862,280.392H95.151c-4.428,0-8.019-3.59-8.019-8.019V171.661c0-4.428,3.59-8.019,8.019-8.019h100.712  c4.428,0,8.019,3.59,8.019,8.019v100.712C203.88,276.802,200.29,280.392,195.862,280.392z M103.169,264.355h84.675V179.68h-84.675  V264.355z"/>
<path d="M416.849,212.427H233.884c-4.428,0-8.019-3.59-8.019-8.019v-32.746c0-4.428,3.59-8.019,8.019-8.019h182.966  c4.428,0,8.019,3.59,8.019,8.019v32.746C424.868,208.836,421.278,212.427,416.849,212.427z M241.902,196.389h166.929v-16.709  H241.902V196.389z"/>
<path d="M416.849,280.392H233.884c-4.428,0-8.019-3.59-8.019-8.019v-32.746c0-4.428,3.59-8.019,8.019-8.019h182.966  c4.428,0,8.019,3.59,8.019,8.019v32.746C424.868,276.802,421.278,280.392,416.849,280.392z M241.902,264.355h166.929v-16.709  H241.902V264.355z"/>
<path d="M416.849,348.359H95.151c-4.428,0-8.019-3.59-8.019-8.019v-32.747c0-4.428,3.59-8.019,8.019-8.019h321.7  c4.428,0,8.019,3.59,8.019,8.019v32.746C424.868,344.768,421.278,348.359,416.849,348.359z M103.169,332.321h305.663v-16.71H103.169  V332.321z"/>
<g>
</g>
<g>
</g>
<g>
</g>
<g>
</g>
<g>
</g>
<g>
</g>
<g>
</g>
<g>
</g>
<g>
</g>
<g>
</g>
<g>
</g>
<g>
</g>
<g>
</g>
<g>
</g>
<g>
</g>
</svg>
