<?xml version="1.0" encoding="iso-8859-1"?>
<!-- Generator: Adobe Illustrator 19.0.0, SVG Export Plug-In . SVG Version: 6.00 Build 0)  -->
<svg xmlns="http://www.w3.org/2000/svg" xmlns:xlink="http://www.w3.org/1999/xlink" version="1.1" id="Layer_1" x="0px" y="0px" viewBox="0 0 511.999 511.999" style="enable-background:new 0 0 511.999 511.999;" xml:space="preserve">
<path style="fill:#D9D9D9;" d="M255.999,148.494L8.633,211.18v218.562c0,24.019,19.471,43.49,43.49,43.49h407.754  c24.019,0,43.49-19.471,43.49-43.49V211.18L255.999,148.494z"/>
<path style="fill:#FF6465;" d="M468.368,85.807H43.631c-19.328,0-34.998,15.67-34.998,35v90.375h494.734v-90.375  C503.367,101.477,487.698,85.807,468.368,85.807z"/>
<path style="opacity:0.1;enable-background:new    ;" d="M66.185,429.742V120.807c0-19.33,15.669-34.999,34.999-34.999H43.632  c-19.33-0.001-34.999,15.669-34.999,34.999v308.936c0,24.019,19.471,43.49,43.49,43.49h57.553  C85.657,473.232,66.185,453.761,66.185,429.742z"/>
<g>
	<path style="fill:#515262;" d="M97.731,134.523c-11.125,0-20.143-9.018-20.143-20.143V58.91c0-11.125,9.018-20.143,20.143-20.143   s20.143,9.018,20.143,20.143v55.469C117.874,125.504,108.856,134.523,97.731,134.523z"/>
	<path style="fill:#515262;" d="M203.243,134.523c-11.125,0-20.143-9.018-20.143-20.143V58.91c0-11.125,9.018-20.143,20.143-20.143   s20.143,9.018,20.143,20.143v55.469C223.387,125.504,214.368,134.523,203.243,134.523z"/>
	<path style="fill:#515262;" d="M308.756,134.523c-11.125,0-20.143-9.018-20.143-20.143V58.91c0-11.125,9.018-20.143,20.143-20.143   c11.125,0,20.143,9.018,20.143,20.143v55.469C328.899,125.504,319.882,134.523,308.756,134.523z"/>
	<path style="fill:#515262;" d="M414.269,134.523c-11.125,0-20.143-9.018-20.143-20.143V58.91c0-11.125,9.018-20.143,20.143-20.143   s20.143,9.018,20.143,20.143v55.469C434.412,125.504,425.394,134.523,414.269,134.523z"/>
</g>
<path d="M468.368,77.174h-25.324V58.909c0-15.867-12.909-28.776-28.776-28.776c-15.867,0-28.776,12.909-28.776,28.776v18.265h-47.96  V58.909c0-15.867-12.909-28.776-28.776-28.776c-15.867,0-28.776,12.909-28.776,28.776v18.265h-47.96V58.909  c0-15.867-12.909-28.776-28.776-28.776s-28.776,12.909-28.776,28.776v18.265h-47.96V58.909c0-15.867-12.909-28.776-28.776-28.776  S68.955,43.042,68.955,58.909v18.265H43.631C19.572,77.174,0,96.748,0,120.807v308.936c0,28.741,23.382,52.123,52.123,52.123h29.484  c4.769,0,8.633-3.865,8.633-8.633s-3.864-8.633-8.633-8.633H52.123c-19.22-0.001-34.857-15.638-34.857-34.858V219.813h388.781  c4.769,0,8.633-3.865,8.633-8.633c0-4.768-3.864-8.633-8.633-8.633H17.266v-81.742c0-14.538,11.827-26.366,26.365-26.366h25.324  v19.94c0,15.867,12.909,28.776,28.776,28.776s28.776-12.909,28.776-28.776V94.44h47.96v19.94c0,15.867,12.909,28.776,28.776,28.776  s28.776-12.909,28.776-28.776V94.44h47.96v19.94c0,15.867,12.909,28.776,28.776,28.776s28.776-12.909,28.776-28.776V94.44h47.96  v19.94c0,15.867,12.909,28.776,28.776,28.776c15.867,0,28.776-12.909,28.776-28.776V94.44h25.324  c14.538,0,26.365,11.828,26.365,26.366v81.742h-54.156c-4.769,0-8.633,3.865-8.633,8.633c0,4.768,3.864,8.633,8.633,8.633h54.156  v209.929c0,19.22-15.637,34.857-34.857,34.857H116.139c-4.769,0-8.633,3.865-8.633,8.633s3.864,8.633,8.633,8.633h343.737  c28.742,0,52.123-23.382,52.123-52.123V120.807C512,96.748,492.428,77.174,468.368,77.174z M109.242,85.807v28.573  c0,6.347-5.164,11.511-11.511,11.511s-11.511-5.164-11.511-11.511V85.807V58.909c0-6.347,5.164-11.511,11.511-11.511  s11.511,5.164,11.511,11.511V85.807z M214.754,85.807v28.573c0,6.347-5.164,11.511-11.51,11.511  c-6.347,0-11.511-5.164-11.511-11.511V85.807V58.909c0-6.347,5.164-11.511,11.511-11.511c6.347,0,11.51,5.164,11.51,11.511V85.807z   M320.266,85.807v28.573c0,6.347-5.164,11.511-11.51,11.511c-6.347,0-11.511-5.164-11.511-11.511V85.807V58.909  c0-6.347,5.164-11.511,11.511-11.511c6.347,0,11.51,5.164,11.51,11.511V85.807z M425.778,85.807v28.573  c0,6.347-5.164,11.511-11.51,11.511s-11.51-5.164-11.51-11.511V85.807V58.909c0-6.347,5.164-11.511,11.51-11.511  s11.51,5.164,11.51,11.511V85.807z"/>
<path d="M141.987,337.034c0-4.768-3.864-8.633-8.633-8.633H77.588c-4.769,0-8.633,3.865-8.633,8.633  c0,4.768,3.864,8.633,8.633,8.633h55.765C138.121,345.667,141.987,341.802,141.987,337.034z"/>
<path d="M327.491,345.667c4.769,0,8.633-3.865,8.633-8.633c0-4.768-3.864-8.633-8.633-8.633h-55.766  c-4.769,0-8.633,3.865-8.633,8.633c0,4.768,3.864,8.633,8.633,8.633H327.491z"/>
<path d="M163.531,412.721c2.973,0,5.868-1.538,7.47-4.293l78.001-134.104c2.396-4.122,0.999-9.405-3.123-11.803  c-4.121-2.398-9.408-1-11.803,3.122l-78.001,134.104c-2.396,4.122-0.999,9.405,3.123,11.803  C160.565,412.344,162.058,412.721,163.531,412.721z"/>
<path d="M357.667,412.721c2.973,0,5.868-1.538,7.47-4.293l78.001-134.104c2.396-4.122,0.999-9.405-3.123-11.803  c-4.123-2.398-9.406-1-11.803,3.122l-78.001,134.104c-2.396,4.122-0.999,9.405,3.123,11.803  C354.701,412.344,356.194,412.721,357.667,412.721z"/>
<g>
</g>
<g>
</g>
<g>
</g>
<g>
</g>
<g>
</g>
<g>
</g>
<g>
</g>
<g>
</g>
<g>
</g>
<g>
</g>
<g>
</g>
<g>
</g>
<g>
</g>
<g>
</g>
<g>
</g>
</svg>
