<?xml version="1.0" encoding="iso-8859-1"?>
<!-- Generator: Adobe Illustrator 19.0.0, SVG Export Plug-In . SVG Version: 6.00 Build 0)  -->
<svg xmlns="http://www.w3.org/2000/svg" xmlns:xlink="http://www.w3.org/1999/xlink" version="1.1" id="Layer_1" x="0px" y="0px" viewBox="0 0 512 512" style="enable-background:new 0 0 512 512;" xml:space="preserve">
<path style="fill:#C7CFE2;" d="M361.932,282.871c-18.241,0-33.029-14.788-33.029-33.029V147.219  c0-40.199-32.704-72.902-72.902-72.902c-40.199,0-72.903,32.704-72.903,72.902v102.623c0,18.241-14.788,33.029-33.029,33.029  s-33.029-14.788-33.029-33.029V147.219c0-76.623,62.338-138.962,138.962-138.962s138.96,62.338,138.96,138.96v102.623  C394.961,268.083,380.173,282.871,361.932,282.871z"/>
<g style="opacity:0.1;">
	<path d="M150.068,282.871c18.241,0,33.029-14.788,33.029-33.029v-73.57h-66.058v73.57   C117.039,268.083,131.826,282.871,150.068,282.871z"/>
	<path d="M328.903,176.271v73.57c0,18.241,14.788,33.029,33.029,33.029c18.241,0,33.029-14.788,33.029-33.029v-73.57   L328.903,176.271L328.903,176.271z"/>
</g>
<path style="fill:#FFD782;" d="M399.28,209.301H112.72c-17.01,0-30.799,13.79-30.799,30.799v232.844  c0,17.01,13.789,30.799,30.799,30.799h286.56c17.01,0,30.799-13.789,30.799-30.799V240.099  C430.079,223.09,416.289,209.301,399.28,209.301z"/>
<rect x="150.074" y="370.83" style="opacity:0.1;enable-background:new    ;" width="211.86" height="64.789"/>
<path d="M191.935,379.093c4.561,0,8.257-3.697,8.257-8.257c0-4.56-3.696-8.257-8.257-8.257h-41.867  c-4.561,0-8.257,3.697-8.257,8.257v64.789c0,4.56,3.696,8.257,8.257,8.257h211.865c4.561,0,8.257-3.697,8.257-8.257v-64.789  c0-4.56-3.696-8.257-8.257-8.257H224.964c-4.561,0-8.257,3.697-8.257,8.257c0,4.56,3.696,8.257,8.257,8.257h128.71v48.274H158.325  v-48.274H191.935z"/>
<path d="M403.218,201.241v-54.023C403.218,66.042,337.176,0,255.999,0c-74.831,0-137.701,56.019-146.241,130.305  c-0.521,4.531,2.729,8.625,7.261,9.146c4.534,0.523,8.626-2.729,9.147-7.26c7.58-65.946,63.397-115.676,129.833-115.676  c72.071,0,130.704,58.633,130.704,130.704v53.824H337.16v-53.824c0-44.751-36.408-81.16-81.16-81.16s-81.16,36.408-81.16,81.16  v53.824h-49.544v-36.767c0-4.56-3.696-8.257-8.257-8.257c-4.561,0-8.257,3.697-8.257,8.257v36.965  c-19.693,1.981-35.117,18.652-35.117,38.858v232.844c0,21.536,17.52,39.057,39.056,39.057h286.559  c21.536,0,39.057-17.521,39.057-39.057v-47.047c0-4.56-3.696-8.257-8.257-8.257s-8.257,3.697-8.257,8.257v47.047  c0,12.43-10.112,22.542-22.542,22.542H112.72c-12.429,0-22.541-10.112-22.541-22.542V240.099c0-12.43,10.112-22.541,22.541-22.541  h286.559c12.43,0,22.542,10.112,22.542,22.541v152.768c0,4.56,3.696,8.257,8.257,8.257s8.257-3.697,8.257-8.257V240.099  C438.336,219.893,422.911,203.223,403.218,201.241z M320.645,201.043H191.355v-53.824c0-35.645,29-64.646,64.646-64.646  s64.646,29,64.646,64.646v53.824H320.645z"/>
<g>
</g>
<g>
</g>
<g>
</g>
<g>
</g>
<g>
</g>
<g>
</g>
<g>
</g>
<g>
</g>
<g>
</g>
<g>
</g>
<g>
</g>
<g>
</g>
<g>
</g>
<g>
</g>
<g>
</g>
</svg>
