<?xml version="1.0" encoding="iso-8859-1"?>
<!-- Generator: Adobe Illustrator 19.0.0, SVG Export Plug-In . SVG Version: 6.00 Build 0)  -->
<svg xmlns="http://www.w3.org/2000/svg" xmlns:xlink="http://www.w3.org/1999/xlink" version="1.1" id="Layer_1" x="0px" y="0px" viewBox="0 0 512 512" style="enable-background:new 0 0 512 512;" xml:space="preserve">
<rect x="8.571" y="81.005" style="fill:#B3BACC;" width="494.853" height="349.989"/>
<g>
	<polygon style="fill:#BEC6D9;" points="185.54,81.005 8.571,81.005 8.571,430.996 185.54,225.943  "/>
	<polygon style="fill:#BEC6D9;" points="326.458,81.005 326.458,225.943 503.429,430.996 503.429,81.005  "/>
</g>
<polygon style="fill:#CAD2E6;" points="503.429,81.005 256,283.647 8.571,81.005 "/>
<path d="M503.429,185.655c4.735,0,8.571-3.838,8.571-8.571V81.005c0-0.059-0.008-0.117-0.009-0.176  c-0.001-0.09-0.009-0.179-0.014-0.27c-0.23-4.4-4.129-8.127-8.548-8.127H132.691c-4.735,0-8.571,3.838-8.571,8.571  s3.836,8.571,8.571,8.571h346.746L256,272.569L32.564,89.577h65.843c4.735,0,8.571-3.838,8.571-8.571s-3.836-8.571-8.571-8.571  c0,0-89.822,0-89.835,0c-4.448,0-8.315,3.65-8.548,8.127c-0.005,0.09-0.011,0.179-0.014,0.27C0.008,80.889,0,80.946,0,81.005  c0,0,0,349.794,0,349.99c0,4.002,3.488,8.53,7.762,8.53c0.25,0.024,0.501,0.037,0.752,0.038c0.019,0,0.038,0.002,0.057,0.002  h372.301c4.735,0,8.571-3.838,8.571-8.571c0-4.734-3.836-8.571-8.571-8.571H27.289l159.282-184.56l63.998,52.414  c1.579,1.294,3.504,1.94,5.431,1.94c1.927,0,3.851-0.647,5.431-1.94l63.997-52.413l159.282,184.56h-69.552  c-4.735,0-8.571,3.838-8.571,8.571c0,4.734,3.836,8.571,8.571,8.571h88.27c0.019,0,0.038-0.002,0.057-0.002  c4.531-0.001,8.514-3.996,8.514-8.569V211.368c0-4.734-3.836-8.571-8.571-8.571s-8.571,3.838-8.571,8.571v196.577L338.695,227  L494.858,99.104v77.979C494.858,181.817,498.694,185.655,503.429,185.655z M17.142,407.945V99.104L173.305,227L17.142,407.945z"/>
<g>
</g>
<g>
</g>
<g>
</g>
<g>
</g>
<g>
</g>
<g>
</g>
<g>
</g>
<g>
</g>
<g>
</g>
<g>
</g>
<g>
</g>
<g>
</g>
<g>
</g>
<g>
</g>
<g>
</g>
</svg>
