<?xml version="1.0" encoding="iso-8859-1"?>
<!-- Generator: Adobe Illustrator 19.0.0, SVG Export Plug-In . SVG Version: 6.00 Build 0)  -->
<svg xmlns="http://www.w3.org/2000/svg" xmlns:xlink="http://www.w3.org/1999/xlink" version="1.1" id="Layer_1" x="0px" y="0px" viewBox="0 0 512.001 512.001" style="enable-background:new 0 0 512.001 512.001;" xml:space="preserve">
<ellipse style="fill:#FF6465;" cx="256.005" cy="157.832" rx="199.05" ry="54.384"/>
<g style="opacity:0.1;">
	<path d="M75.197,180.603c32.292-20.965,91.121-41.566,160.008-53.946c69.271-12.448,131.91-13.566,169.411-5.001   c-36.456-11.172-89.524-18.208-148.615-18.208c-109.935,0-199.055,24.349-199.055,54.384   C56.946,165.962,63.488,173.676,75.197,180.603z"/>
</g>
<g>
	<path style="fill:#FFD782;" d="M431.833,112.206c-0.944,39.715-33.412,71.627-73.355,71.627c-39.942,0-72.41-31.912-73.354-71.627   h-58.249c-0.944,39.715-33.412,71.627-73.354,71.627c-39.943,0-72.41-31.912-73.355-71.627H38.139v146.998h435.723V112.206H431.833   z"/>
	<rect x="38.134" y="255.435" style="fill:#FFD782;" width="435.72" height="178.978"/>
</g>
<path style="fill:#E6C275;" d="M473.861,225.675H38.139c-16.435,0-29.757,13.323-29.757,29.757l0,0  c0,16.435,13.323,29.758,29.757,29.758h435.723c16.435,0,29.757-13.323,29.757-29.758l0,0  C503.619,238.998,490.296,225.675,473.861,225.675z"/>
<path style="opacity:0.1;enable-background:new    ;" d="M64.264,255.431c0-16.434,13.323-29.757,29.757-29.757H38.139  c-16.435,0-29.757,13.323-29.757,29.757c0,16.435,13.323,29.758,29.757,29.758h55.882C77.586,285.189,64.264,271.866,64.264,255.431  z"/>
<path style="fill:#E6C275;" d="M473.861,404.658H38.139c-16.435,0-29.757,13.323-29.757,29.757l0,0  c0,16.435,13.323,29.758,29.757,29.758h435.723c16.435,0,29.757-13.323,29.757-29.758l0,0  C503.619,417.98,490.296,404.658,473.861,404.658z"/>
<path style="opacity:0.1;enable-background:new    ;" d="M53.088,434.414c0-16.434,13.323-29.757,29.757-29.757H38.139  c-16.435,0-29.757,13.323-29.757,29.757c0,16.435,13.323,29.757,29.757,29.757h44.705C66.41,464.172,53.088,450.849,53.088,434.414z  "/>
<g>
	<circle style="fill:#FF6465;" cx="256.005" cy="344.924" r="22.933"/>
	<circle style="fill:#FF6465;" cx="127.79" cy="344.924" r="22.933"/>
	<circle style="fill:#FF6465;" cx="384.209" cy="344.924" r="22.933"/>
</g>
<g>
	<circle style="fill:#FFE3A6;" cx="256.005" cy="90.204" r="42.377"/>
	<circle style="fill:#FFE3A6;" cx="56.946" cy="102.208" r="32.958"/>
	<circle style="fill:#FFE3A6;" cx="455.056" cy="102.208" r="32.958"/>
</g>
<path d="M256.001,313.609c-17.266,0-31.315,14.048-31.315,31.315c0,17.267,14.048,31.315,31.315,31.315s31.315-14.048,31.315-31.315  C287.316,327.656,273.267,313.609,256.001,313.609z M256.001,359.473c-8.023,0-14.55-6.527-14.55-14.551  c0-8.023,6.527-14.55,14.55-14.55c8.023,0,14.55,6.527,14.55,14.55C270.55,352.946,264.023,359.473,256.001,359.473z"/>
<path d="M127.791,313.609c-17.266,0-31.315,14.048-31.315,31.315c0,17.267,14.048,31.315,31.315,31.315s31.315-14.048,31.315-31.315  C159.106,327.656,145.058,313.609,127.791,313.609z M127.791,359.473c-8.023,0-14.55-6.527-14.55-14.551  c0-8.023,6.527-14.55,14.55-14.55s14.55,6.527,14.55,14.55C142.341,352.946,135.815,359.473,127.791,359.473z"/>
<path d="M384.21,313.609c-17.266,0-31.315,14.048-31.315,31.315c0,17.267,14.048,31.315,31.315,31.315  c17.267,0,31.315-14.048,31.315-31.315C415.525,327.656,401.476,313.609,384.21,313.609z M384.21,359.473  c-8.023,0-14.55-6.527-14.55-14.551c0-8.023,6.527-14.55,14.55-14.55s14.55,6.527,14.55,14.55  C398.759,352.946,392.232,359.473,384.21,359.473z"/>
<path d="M482.243,397.215V292.632c17.009-3.831,29.757-19.05,29.757-37.2c0-18.149-12.748-33.368-29.757-37.199v-84.918  c8.664-7.583,14.151-18.71,14.151-31.101c0-22.795-18.546-41.34-41.34-41.34c-22.794,0-41.339,18.545-41.339,41.34  c0,5.095,0.932,9.976,2.626,14.487c-27.769-9.801-66.42-16.829-110.024-19.897c0.282-2.161,0.443-4.36,0.443-6.596  c0-27.989-22.771-50.76-50.76-50.76c-27.989,0-50.76,22.771-50.76,50.76c0,2.239,0.161,4.439,0.444,6.603  c-16.994,1.195-33.359,2.99-48.757,5.368c-4.576,0.706-7.711,4.988-7.005,9.564c0.705,4.576,4.982,7.714,9.564,7.005  c16.123-2.49,33.351-4.331,51.295-5.485c0.536,1.047,1.12,2.081,1.731,3.087c1.405,2.315,3.011,4.59,4.76,6.658  c-0.078,0.4-0.162,0.798-0.247,1.195c-2.754,12.763-9.447,24.63-19.01,33.531c-8.895,8.279-19.832,13.98-31.741,16.436  c-7.327,1.511-14.926,1.664-22.321,0.564c-0.121-0.018-0.24-0.038-0.361-0.056c-21.332-3.34-39.847-17.251-48.986-36.806  c-0.08-0.172-0.16-0.344-0.238-0.517c-0.249-0.547-0.492-1.098-0.726-1.652c-0.039-0.092-0.075-0.186-0.113-0.277  c9.464-3.875,20.86-7.402,33.994-10.516c4.504-1.068,7.289-5.586,6.222-10.09c-1.068-4.503-5.577-7.287-10.09-6.222  c-10.303,2.443-19.656,5.152-27.991,8.096c1.691-4.509,2.622-9.386,2.622-14.478c0-22.795-18.545-41.34-41.339-41.34  s-41.341,18.544-41.341,41.339c0,12.391,5.488,23.518,14.151,31.101v84.918C12.748,222.064,0,237.282,0,255.432  c0,18.15,12.748,33.369,29.757,37.2v104.582C12.748,401.046,0,416.265,0,434.414c0,21.03,17.11,38.14,38.139,38.14h49.103  c4.63,0,8.382-3.753,8.382-8.382s-3.752-8.382-8.382-8.382H38.139c-11.787,0-21.375-9.589-21.375-21.376  c0-11.785,9.588-21.375,21.375-21.375h435.722c11.787,0,21.375,9.588,21.375,21.375c0,11.787-9.588,21.376-21.375,21.376H120.771  c-4.63,0-8.382,3.753-8.382,8.382s3.752,8.382,8.382,8.382h353.09c21.029,0,38.139-17.11,38.139-38.14  C512,416.265,499.252,401.046,482.243,397.215z M455.054,77.637c13.551,0,24.576,11.024,24.576,24.576  c0,8.414-4.251,15.851-10.718,20.283c-8.576,5.878-20.453,5.571-28.714-0.723c-5.901-4.493-9.719-11.588-9.719-19.56  C430.48,88.662,441.504,77.637,455.054,77.637z M301.221,113.259c48.247,3.097,90.148,11.039,117.253,22.16  c-0.037,0.091-0.073,0.181-0.111,0.272c-0.238,0.562-0.483,1.12-0.737,1.674c-0.074,0.163-0.15,0.326-0.225,0.488  c-9.138,19.564-27.661,33.484-49.003,36.823c-0.115,0.018-0.229,0.037-0.344,0.054c-3.165,0.466-6.377,0.721-9.578,0.721  c-5.163,0-10.416-0.611-15.422-1.881c-12.334-3.127-23.716-9.689-32.314-19.109c-8.078-8.852-13.704-19.674-16.013-31.456  c-0.029-0.154,0.462-0.581,0.561-0.703c0.986-1.206,1.925-2.455,2.795-3.746c0.53-0.785,1.035-1.587,1.519-2.401  C300.167,115.207,300.718,114.24,301.221,113.259z M256.001,56.21c18.745,0,33.995,15.25,33.995,33.995  c0,7.219-2.367,14.394-6.667,20.193c-0.106,0.143-0.216,0.284-0.324,0.425c-5.204,6.799-12.908,11.585-21.729,12.966  c-3.467,0.542-6.96,0.549-10.428,0.021c-0.041-0.007-0.082-0.015-0.124-0.021c-8.377-1.311-15.749-5.689-20.925-11.949  c-0.008-0.009-0.016-0.018-0.023-0.028c-4.991-6.048-7.769-13.768-7.769-21.607C222.006,71.46,237.255,56.21,256.001,56.21z   M56.946,77.637c13.55,0,24.575,11.024,24.575,24.576c0,12.787-10.434,23.807-23.183,24.534c-0.032,0.002-0.065,0.006-0.097,0.008  c-13.855,0.758-25.87-10.715-25.87-24.541C32.37,88.662,43.394,77.637,56.946,77.637z M16.764,255.432  c0-11.785,9.588-21.375,21.375-21.375h333.77c4.63,0,8.382-3.753,8.382-8.382c0-4.629-3.752-8.382-8.382-8.382H46.521v-75.067  c0.093,0.025,0.188,0.04,0.281,0.064c5.774,1.461,11.873,1.645,17.726,0.554c0.075-0.013,0.15-0.026,0.225-0.04  c3.299-0.634,6.531-1.679,9.577-3.097c0.05-0.023,0.101-0.045,0.151-0.068c0.76-0.358,1.51-0.732,2.244-1.134  c0.093,0.254,0.197,0.501,0.292,0.753c0.107,0.285,0.219,0.568,0.329,0.851c0.311,0.799,0.633,1.593,0.967,2.378  c0.066,0.153,0.132,0.305,0.198,0.457c11.838,27.343,37.992,46.492,68.283,48.989c14.577,1.201,29.612-1.587,42.703-8.132  c12.238-6.119,22.995-15.139,30.859-26.369c4.71-6.726,8.463-14.134,10.982-21.953c0.082-0.251,0.172-0.498,0.251-0.751  c-0.267,0.861,10.168,4.189,11.29,4.482c4.218,1.101,8.576,1.654,12.934,1.664c9.083,0.022,16.291-2.956,24.564-6.026  c2.673,5.714,4.521,11.637,7.803,17.139c10.017,16.796,26.194,30.206,45.016,36.183c8.177,2.596,16.696,4.045,25.283,4.045  c1.12,0,2.235-0.025,3.346-0.07c0.129-0.006,0.255-0.017,0.383-0.022c1.005-0.046,2.006-0.106,3.012-0.189  c30.284-2.496,56.444-21.652,68.278-49.004c0.406-0.938,0.794-1.882,1.163-2.834c0.206-0.53,0.415-1.057,0.62-1.587  c-0.278,0.715,9.616,3.778,10.525,3.989c3.847,0.892,7.825,1.238,11.766,0.973c2.574-0.173,5.123-0.549,7.626-1.18  c0.093-0.023,0.188-0.039,0.281-0.064v75.067h-60.042c-4.63,0-8.382,3.753-8.382,8.382c0,4.629,3.752,8.382,8.382,8.382h68.424  c11.787,0,21.375,9.588,21.375,21.375c0,11.787-9.588,21.375-21.375,21.375H38.139C26.353,276.806,16.764,267.218,16.764,255.432z   M46.521,396.275V293.571h418.957v102.704L46.521,396.275L46.521,396.275z"/>
<g>
</g>
<g>
</g>
<g>
</g>
<g>
</g>
<g>
</g>
<g>
</g>
<g>
</g>
<g>
</g>
<g>
</g>
<g>
</g>
<g>
</g>
<g>
</g>
<g>
</g>
<g>
</g>
<g>
</g>
</svg>
