<?xml version="1.0" encoding="iso-8859-1"?>
<!-- Generator: Adobe Illustrator 19.0.0, SVG Export Plug-In . SVG Version: 6.00 Build 0)  -->
<svg xmlns="http://www.w3.org/2000/svg" xmlns:xlink="http://www.w3.org/1999/xlink" version="1.1" id="Layer_1" x="0px" y="0px" viewBox="0 0 512.003 512.003" style="enable-background:new 0 0 512.003 512.003;" xml:space="preserve">
<path style="fill:#5A4146;" d="M256.001,7.842L256.001,7.842c-79.114,0-143.248,64.134-143.248,143.248v65.179h286.496V151.09  C399.249,71.976,335.115,7.842,256.001,7.842z"/>
<g>
	<path style="fill:#E6B273;" d="M133.619,178.651c-19.429,0-35.18,15.751-35.18,35.18l0,0c0,19.429,15.751,35.18,35.18,35.18h17.108   v-70.361L133.619,178.651L133.619,178.651z"/>
	<path style="fill:#E6B273;" d="M378.384,178.651c19.429,0,35.18,15.751,35.18,35.18l0,0c0,19.429-15.751,35.18-35.18,35.18h-17.108   v-70.361L378.384,178.651L378.384,178.651z"/>
	<rect x="218.763" y="327.86" style="fill:#E6B273;" width="74.468" height="76.549"/>
</g>
<path style="fill:#DCE5FA;" d="M293.234,393.955h-74.466c0,5.36-41.682,65.194-41.682,65.194l41.682,45.007h20.028l10.456-41.772  l-3.215-39.407h19.931l-4.691,40.589l11.931,40.589h20.027l41.682-45.007C334.916,459.151,293.234,399.315,293.234,393.955z"/>
<path style="fill:#F0C087;" d="M344.217,121.172c-12.18,0-22.054-9.874-22.054-22.054c0,12.179-9.874,22.054-22.054,22.054  c-12.18,0-22.054-9.874-22.054-22.054c0,12.179-9.874,22.054-22.054,22.054c-12.18,0-22.054-9.874-22.054-22.054  c0,12.179-9.874,22.054-22.054,22.054c-12.18,0-22.054-9.874-22.054-22.054c0,12.179-9.874,22.054-22.054,22.054  c-7.112,0-13.419-3.38-17.452-8.606c-10.684,17.258-16.857,37.602-16.857,59.391v61.751c0,67.668,54.857,122.525,122.525,122.525  s122.525-54.857,122.525-122.525v-61.751c0-21.789-6.173-42.134-16.857-59.391C357.636,117.79,351.328,121.172,344.217,121.172z"/>
<g>
	<path style="fill:#515262;" d="M86.769,504.158h131.999V393.955c-9.785,2.031-19.286,4.839-28.431,8.366   C143.306,420.463,105.675,457.515,86.769,504.158z"/>
	<path style="fill:#515262;" d="M425.234,504.158c-18.805-46.403-56.143-83.315-102.832-101.556l-0.738-0.28   c-9.145-3.527-18.645-6.335-28.43-8.366v110.203L425.234,504.158L425.234,504.158z"/>
</g>
<polygon style="fill:#E65A5B;" points="273.207,504.158 265.967,422.979 246.036,422.979 238.796,504.158 "/>
<polygon style="fill:#FF6465;" points="267.784,393.955 275.067,416.368 256.001,430.22 236.936,416.368 244.218,393.955 "/>
<path d="M256.001,292.301c14.268,0,27.027-2.818,34.13-7.538c3.607-2.397,4.589-7.264,2.193-10.871  c-2.397-3.607-7.264-4.588-10.871-2.192c-3.683,2.447-12.981,4.916-25.45,4.916c-12.47,0-21.767-2.47-25.45-4.917  c-3.609-2.397-8.474-1.416-10.871,2.192c-2.398,3.607-1.416,8.474,2.191,10.871C228.972,289.482,241.733,292.301,256.001,292.301z"/>
<path d="M220.55,194.58c3.353,2.741,8.295,2.246,11.035-1.108c2.742-3.353,2.245-8.294-1.108-11.034  c-6.127-5.008-17.035-7.998-29.178-7.998c-12.144,0-23.05,2.99-29.177,7.998c-3.353,2.742-3.85,7.682-1.108,11.035  c1.55,1.896,3.804,2.879,6.076,2.879c1.746,0,3.503-0.58,4.959-1.77c2.626-2.147,9.77-4.457,19.25-4.457  C210.78,190.122,217.924,192.433,220.55,194.58z"/>
<circle cx="201.302" cy="214.872" r="13.418"/>
<path d="M291.453,194.58c2.627-2.147,9.77-4.457,19.251-4.457c9.479,0,16.624,2.31,19.25,4.457c1.458,1.191,3.213,1.77,4.959,1.77  c2.272,0,4.525-0.982,6.076-2.879c2.742-3.353,2.245-8.294-1.108-11.035c-6.126-5.008-17.033-7.998-29.177-7.998  c-12.143,0-23.05,2.989-29.178,7.998c-3.353,2.741-3.85,7.681-1.108,11.034C283.16,196.826,288.099,197.32,291.453,194.58z"/>
<circle cx="310.703" cy="214.872" r="13.418"/>
<path d="M432.503,501.212c-19.588-48.335-58.678-86.939-107.321-105.944l-0.695-0.263c-7.599-2.931-15.45-5.375-23.411-7.311  v-31.658c42.862-15.844,75.187-53.604,83.306-99.611c20.892-2.929,37.024-20.909,37.024-42.595c0-12.677-5.538-24.101-14.315-31.988  V151.09C407.091,67.779,339.313,0,256.001,0s-151.09,67.778-151.09,151.09v30.755c-8.778,7.887-14.314,19.311-14.314,31.988  c0,21.686,16.132,39.666,37.024,42.595c8.119,46.007,40.444,83.766,83.305,99.611v31.658c-7.962,1.935-15.814,4.381-23.411,7.311  C138.577,413.884,99.208,452.595,79.5,501.215c-0.98,2.417-0.693,5.164,0.764,7.328c1.458,2.163,3.895,3.461,6.504,3.461h338.466  c2.609,0,5.046-1.297,6.504-3.461C433.197,506.377,433.482,503.63,432.503,501.212z M280.382,496.316l-6.209-69.606l5.502-3.997  c2.749-1.997,3.899-5.536,2.849-8.767l-3.946-12.147h6.815v94.518h-5.012V496.316z M226.61,496.316v-94.518h6.815l-3.946,12.147  c-1.05,3.231,0.1,6.771,2.849,8.767l5.503,3.998l-6.209,69.606L226.61,496.316L226.61,496.316z M246.155,413.372l3.762-11.575  h12.171l3.761,11.575l-9.846,7.154L246.155,413.372z M386.216,240.027c0.021-0.432,0.03-0.864,0.047-1.296  c0.063-1.675,0.107-3.349,0.107-5.025v-46.01c0.044,0.014,0.089,0.025,0.133,0.039c2.656,0.828,5.197,2.08,7.477,3.672  c0.06,0.041,0.12,0.079,0.179,0.121c6.99,4.961,11.565,13.117,11.565,22.304C405.722,226.186,397.486,236.652,386.216,240.027z   M120.596,172.815V151.09c0-74.662,60.743-135.406,135.406-135.406S391.407,76.426,391.407,151.09v21.726  c-1.212-0.385-2.447-0.696-3.692-0.97c-0.446-0.098-0.896-0.22-1.348-0.295c-0.167-0.031-0.446-10.301-0.529-11.165  c-1.75-18.328-7.81-36.301-17.502-51.948c-1.355-2.187-3.695-3.572-6.264-3.704c-2.581-0.121-5.04,1.004-6.611,3.042  c-2.724,3.53-6.823,5.555-11.244,5.555c-7.836,0-14.212-6.375-14.212-14.212c0-4.331-3.51-7.842-7.842-7.842  s-7.842,3.511-7.842,7.842c0,7.837-6.376,14.212-14.212,14.212c-7.836,0-14.212-6.375-14.212-14.212c0-4.331-3.51-7.842-7.842-7.842  s-7.842,3.511-7.842,7.842c0,7.837-6.376,14.212-14.212,14.212c-7.836,0-14.212-6.375-14.212-14.212c0-4.331-3.51-7.842-7.842-7.842  s-7.842,3.511-7.842,7.842c0,7.837-6.376,14.212-14.212,14.212c-7.836,0-14.212-6.375-14.212-14.212c0-4.331-3.51-7.842-7.842-7.842  s-7.842,3.511-7.842,7.842c0,7.837-6.376,14.212-14.212,14.212c-4.422,0-8.52-2.025-11.244-5.555  c-1.572-2.038-4.038-3.162-6.611-3.042c-2.569,0.132-4.909,1.516-6.264,3.704c-8.828,14.253-14.821,30.585-16.929,47.232  c-0.59,4.662-0.976,9.325-1.063,14.024c-0.012,0.619-0.037,1.237-0.039,1.857c-0.192,0.036-0.381,0.087-0.572,0.125  C123.559,171.98,122.059,172.351,120.596,172.815z M125.787,240.028c-11.27-3.376-19.506-13.842-19.506-26.196  c0-9.191,4.578-17.35,11.573-22.31c0.048-0.035,0.098-0.066,0.147-0.099c2.296-1.59,4.837-2.856,7.504-3.689  c0.043-0.014,0.087-0.024,0.13-0.038v46.01c0,1.568,0.038,3.135,0.094,4.703C125.748,238.949,125.761,239.488,125.787,240.028z   M142.116,247.193c-0.526-4.473-0.797-8.983-0.797-13.486v-55.052v-6.699c0-16.463,3.832-32.59,11.149-47.158  c4.561,2.735,9.819,4.215,15.318,4.215c8.722,0,16.583-3.754,22.054-9.732c5.47,5.978,13.331,9.732,22.054,9.732  s16.583-3.754,22.054-9.732c5.47,5.978,13.331,9.732,22.054,9.732c8.722,0,16.583-3.754,22.054-9.732  c5.47,5.978,13.331,9.732,22.054,9.732s16.583-3.754,22.054-9.732c5.47,5.978,13.331,9.732,22.054,9.732  c5.5,0,10.757-1.481,15.318-4.215c7.317,14.567,11.15,30.696,11.15,47.158v6.699c0,0,0,55.05,0,55.052  c0,4.557-0.277,9.121-0.816,13.646c-4.899,41.171-32.756,77.33-71.193,92.795c-13.53,5.443-28.092,8.241-42.675,8.241  c-38.205,0-74.61-19.712-95.682-51.537c-9.828-14.842-16.11-31.933-18.198-49.613C142.119,247.225,142.117,247.209,142.116,247.193z   M229.779,361.916c8.524,1.606,17.556,2.158,26.223,2.158c9.875,0,19.768-1.117,29.391-3.334v25.376h-17.608h-23.566h-17.609  v-25.375C226.611,361.163,227.892,361.561,229.779,361.916z M193.159,409.638c5.785-2.231,11.733-4.161,17.766-5.77v92.447H98.844  C118.106,456.784,151.934,425.539,193.159,409.638z M247.368,496.316l5.264-59.014c1.037,0.495,2.219,0.76,3.37,0.76  c0.185,0,3.415-0.291,3.371-0.761l5.264,59.015H247.368z M301.076,496.316v-92.447c6.036,1.609,11.993,3.543,17.809,5.785  l0.664,0.251c40.895,15.978,74.466,47.119,93.61,86.41H301.076V496.316z"/>
<g>
</g>
<g>
</g>
<g>
</g>
<g>
</g>
<g>
</g>
<g>
</g>
<g>
</g>
<g>
</g>
<g>
</g>
<g>
</g>
<g>
</g>
<g>
</g>
<g>
</g>
<g>
</g>
<g>
</g>
</svg>
