<?xml version="1.0" encoding="iso-8859-1"?>
<!-- Generator: Adobe Illustrator 19.0.0, SVG Export Plug-In . SVG Version: 6.00 Build 0)  -->
<svg xmlns="http://www.w3.org/2000/svg" xmlns:xlink="http://www.w3.org/1999/xlink" version="1.1" id="Layer_1" x="0px" y="0px" viewBox="0 0 512 512" style="enable-background:new 0 0 512 512;" xml:space="preserve">
<rect x="30.677" y="132.657" style="fill:#FFFFFF;" width="347.907" height="347.907"/>
<path style="fill:#B4BBCC;" d="M378.583,502.877H30.677c-12.322,0-22.31-9.988-22.31-22.31V132.661  c0-12.322,9.988-22.31,22.31-22.31h347.906c12.322,0,22.31,9.988,22.31,22.31v347.906  C400.893,492.889,390.905,502.877,378.583,502.877z M52.987,458.257h303.286V154.971H52.987V458.257z"/>
<path style="opacity:0.1;enable-background:new    ;" d="M378.583,110.35H89.236v44.621h267.037v134.693h44.621V132.661  C400.893,120.339,390.905,110.35,378.583,110.35z"/>
<rect x="145.017" y="31.435" style="fill:#FFFFFF;" width="336.317" height="202.455"/>
<path style="fill:#7DD2F0;" d="M234.805,233.888v42.551l-65.227,49.328l-8.868-11.421c-4.633-5.967-13.925-4.972-17.19,1.841  l-36.788,76.758c-3.62,7.552,2.936,15.993,11.148,14.358l83.479-16.625c7.409-1.476,10.674-10.232,6.043-16.198l-10.456-13.465  l73.626-55.68c5.576-4.217,8.854-10.804,8.854-17.795v-53.651h-44.622V233.888z"/>
<path style="opacity:0.1;enable-background:new    ;" d="M234.805,276.44l-17.487,13.224h61.997c0.067-0.703,0.11-1.411,0.11-2.125  v-53.651h-44.621V276.44z"/>
<path style="fill:#C7CFE2;" d="M481.323,9.123H145.012c-12.322,0-22.31,9.988-22.31,22.31v202.456c0,12.322,9.988,22.31,22.31,22.31  h336.312c12.322,0,22.31-9.988,22.31-22.31V31.433C503.634,19.111,493.645,9.123,481.323,9.123z M346.909,53.743v157.836h-67.483  V53.743H346.909z M167.322,53.743h67.483v157.836h-67.483V53.743z M459.013,211.578H391.53V53.743h67.483V211.578z"/>
<path d="M400.893,384.33c-4.62,0-8.366,3.746-8.366,8.366v87.87c0,7.689-6.255,13.944-13.944,13.944H118.158  c-4.62,0-8.366,3.746-8.366,8.366c0,4.62,3.746,8.366,8.366,8.366h260.425c16.916,0,30.677-13.761,30.677-30.677v-87.87  C409.26,388.076,405.514,384.33,400.893,384.33z"/>
<path d="M459.013,219.944c4.62,0,8.366-3.746,8.366-8.366V53.743c0-4.62-3.746-8.366-8.366-8.366H391.53  c-4.62,0-8.366,3.746-8.366,8.366v157.835c0,4.62,3.746,8.366,8.366,8.366H459.013z M399.896,62.11h50.75v141.102h-50.75V62.11z"/>
<path d="M346.909,219.944c4.62,0,8.366-3.746,8.366-8.366V53.743c0-4.62-3.746-8.366-8.366-8.366h-67.483  c-4.62,0-8.366,3.746-8.366,8.366v157.835c0,4.62,3.746,8.366,8.366,8.366H346.909z M287.792,62.11h50.75v141.102h-50.75V62.11z"/>
<path d="M481.323,0.756H233.515c-4.62,0-8.366,3.746-8.366,8.366s3.746,8.366,8.366,8.366h247.809  c7.689,0,13.944,6.255,13.944,13.944v202.455c0,7.689-6.255,13.944-13.944,13.944H145.012c-7.689,0-13.944-6.255-13.944-13.944  V31.433c0-7.689,6.255-13.944,13.944-13.944h55.597c4.62,0,8.366-3.746,8.366-8.366s-3.746-8.366-8.366-8.366h-55.597  c-16.916,0-30.677,13.761-30.677,30.677v70.551H30.677C13.761,101.984,0,115.745,0,132.661v347.906  c0,16.916,13.761,30.677,30.677,30.677h54.016c4.62,0,8.366-3.746,8.366-8.366c0-4.62-3.746-8.366-8.366-8.366H30.677  c-7.689,0-13.944-6.255-13.944-13.944V132.661c0-7.689,6.255-13.944,13.944-13.944h83.658v27.888H52.987  c-4.62,0-8.366,3.746-8.366,8.366v303.286c0,4.62,3.746,8.366,8.366,8.366h303.286c4.62,0,8.366-3.746,8.366-8.366V264.565h27.888  v94.666c0,4.62,3.746,8.366,8.366,8.366c4.62,0,8.366-3.746,8.366-8.366v-94.666h72.064c16.916,0,30.677-13.761,30.677-30.677  V31.433C512,14.517,498.239,0.756,481.323,0.756z M271.059,264.565v22.975c0,4.344-2.068,8.502-5.533,11.122l-73.626,55.68  c-1.785,1.349-2.954,3.358-3.247,5.575c-0.293,2.218,0.313,4.462,1.686,6.228l10.456,13.467c0.508,0.653,0.424,1.301,0.264,1.728  s-0.52,0.972-1.332,1.133l-83.479,16.626c-0.764,0.152-1.471-0.171-1.885-0.825c-0.513-0.817-0.191-1.489-0.085-1.711l36.788-76.758  c0.426-0.888,1.209-1.021,1.639-1.021c0.57,0,1.041,0.234,1.399,0.696l8.868,11.42c2.808,3.618,8,4.304,11.655,1.542l65.227-49.327  c2.092-1.581,3.32-4.052,3.32-6.673v-11.876H271.059z M347.906,449.89H61.353V163.337h52.981v70.551  c0,16.916,13.761,30.677,30.677,30.677h81.428v7.713l-55.317,41.834l-3.802-4.896c-3.536-4.555-8.863-7.166-14.616-7.166  c-7.207,0-13.617,4.031-16.727,10.522L99.191,389.33c-2.769,5.776-2.389,12.453,1.014,17.857c3.425,5.439,9.265,8.688,15.623,8.689  c0,0,0.001,0,0.002,0c1.226,0,2.466-0.123,3.688-0.367l83.479-16.625c6.344-1.263,11.481-5.636,13.741-11.696  c2.26-6.061,1.242-12.729-2.725-17.838l-5.259-6.772l66.867-50.57c7.622-5.764,12.172-14.911,12.172-24.468v-22.975h60.114V449.89  H347.906z"/>
<path d="M158.956,53.743v157.835c0,4.62,3.746,8.366,8.366,8.366h67.483c4.62,0,8.366-3.746,8.366-8.366V53.743  c0-4.62-3.746-8.366-8.366-8.366h-67.483C162.702,45.377,158.956,49.123,158.956,53.743z M175.688,62.11h50.75v141.102h-50.75V62.11  z"/>
<g>
</g>
<g>
</g>
<g>
</g>
<g>
</g>
<g>
</g>
<g>
</g>
<g>
</g>
<g>
</g>
<g>
</g>
<g>
</g>
<g>
</g>
<g>
</g>
<g>
</g>
<g>
</g>
<g>
</g>
</svg>
