<?xml version="1.0" encoding="iso-8859-1"?>
<!-- Generator: Adobe Illustrator 19.0.0, SVG Export Plug-In . SVG Version: 6.00 Build 0)  -->
<svg xmlns="http://www.w3.org/2000/svg" xmlns:xlink="http://www.w3.org/1999/xlink" version="1.1" id="Layer_1" x="0px" y="0px" viewBox="0 0 512 512" style="enable-background:new 0 0 512 512;" xml:space="preserve">
<path style="fill:#FF6465;" d="M146.057,80.303l-42.291,423.382h304.47c16.401,0,29.696-13.295,29.696-29.695V112.673  L146.057,80.303z"/>
<path style="fill:#E65A5B;" d="M74.069,80.303V473.99c0,16.4,13.295,29.695,29.696,29.695h42.291V80.303H74.069z"/>
<path style="fill:#FFFFFF;" d="M130.861,28.403l-10.799,32.636c-4.003,5.387-6.374,12.053-6.374,19.264s2.373,13.877,6.374,19.263  l10.799,32.637l307.069-19.53v-0.001V47.934L130.861,28.403z"/>
<path style="fill:#FF7374;" d="M146.057,47.933H437.93V8.314H146.057c-39.758,0-71.987,32.23-71.987,71.987v0.001  c0,39.757,32.23,71.987,71.987,71.987H437.93v-39.619H146.057c-17.849,0-32.369-14.52-32.369-32.369S128.209,47.933,146.057,47.933z  "/>
<path style="fill:#FFFFFF;" d="M389.468,444.027l-30.447-53.009c-4.47-7.782-14.332-10.566-22.224-6.293  c-0.293,0.16-0.489,0.263-0.569,0.302c-26.794,14.693-87.826-92.296-61.693-108.038c7.918-4.4,10.705-14.428,6.194-22.284  l-30.776-53.581c-4.427-7.709-14.233-10.424-21.999-6.098c-0.267,0.149-0.426,0.237-0.456,0.255  c-86.017,50.451,67.015,317.419,155.255,271.647c0.034-0.017,0.08-0.041,0.137-0.07  C391.161,462.512,394.122,452.128,389.468,444.027z"/>
<path d="M278.849,284.478c5.731-3.25,9.856-8.528,11.624-14.887c1.787-6.428,0.942-13.155-2.382-18.94l-30.776-53.581  c-4.4-7.659-12.624-12.417-21.465-12.417c-4.193,0-8.352,1.083-12.032,3.133l-0.439,0.245c-0.06,0.033-0.118,0.067-0.175,0.101  c-28.973,16.993-37.028,55.455-22.682,108.3c23.145,85.265,98.269,184.395,160.434,184.414h0.018c9.106,0,17.749-2.089,25.689-6.207  l0.177-0.092c6.039-3.173,10.415-8.536,12.325-15.1c1.918-6.599,1.09-13.515-2.333-19.474l-30.447-53.009  c-4.45-7.745-12.766-12.556-21.71-12.556c-4.141,0-8.263,1.047-11.931,3.033l-0.265,0.145c-0.112,0.054-0.222,0.112-0.332,0.172  c-0.285,0.156-0.707,0.335-1.449,0.336c0,0-0.002,0-0.003,0c-12.825,0-42.274-37.842-51.731-71.844  C275.421,293.513,276.415,286.068,278.849,284.478z M289.884,364.895c10.144,13.768,25.456,30.179,40.811,30.178h0.008  c3.399-0.001,6.596-0.799,9.503-2.37c0.156-0.08,0.37-0.194,0.635-0.337c1.199-0.649,2.489-0.978,3.835-0.978  c2.88,0,5.557,1.545,6.985,4.033l30.447,53.009c1.104,1.921,1.371,4.151,0.752,6.278c-0.608,2.094-2,3.801-3.906,4.804  c-0.036,0.018-0.071,0.036-0.108,0.054c-5.501,2.854-11.513,4.3-17.871,4.3c0,0-0.009,0-0.012,0  c-23.897-0.007-54.145-20.283-82.988-55.628c-27.687-33.927-50.515-77.388-61.065-116.255c-7.033-25.905-14.452-71.913,14.81-89.162  l0.369-0.206c1.172-0.653,2.437-0.984,3.763-0.984c2.779,0,5.361,1.492,6.741,3.894l30.776,53.581  c1.041,1.813,1.306,3.921,0.746,5.936c-0.559,2.014-1.873,3.682-3.702,4.698c-0.087,0.048-0.172,0.097-0.258,0.148  c-7.395,4.455-14.709,15.168-7.55,40.908C267.38,327.969,277.578,348.193,289.884,364.895z"/>
<path d="M74.319,219.293c-4.69,0-8.49,3.801-8.49,8.49v246.383C65.83,495.38,82.493,512,103.766,512h41.867h262.602  c21.272,0,37.936-16.62,37.936-37.835V154.477c0.157-0.646,0.25-1.318,0.25-2.011v-39.619V48.109V8.49c0-4.689-3.8-8.49-8.49-8.49  H146.058c-44.375,0-80.478,36.103-80.478,80.478c0,2.032,0.101,4.04,0.25,6.035v107.31c0,4.689,3.8,8.49,8.49,8.49  c4.69,0,8.49-3.801,8.49-8.49V130.15c3.141,3.991,6.649,7.677,10.476,11.01c0.268,0.235,0.538,0.469,0.808,0.701  c0.551,0.466,1.108,0.926,1.671,1.378c0.616,0.499,1.238,0.989,1.869,1.469c0.223,0.169,0.448,0.335,0.672,0.501  c11.107,8.28,24.396,13.747,38.837,15.294v243.579c0,4.689,3.8,8.49,8.49,8.49s8.49-3.801,8.49-8.49V161.09h182.167  c4.69,0,8.49-3.801,8.49-8.49c0-0.025-0.003-0.05-0.003-0.076c0-0.025,0.003-0.05,0.003-0.076c0-4.689-3.8-8.482-8.49-8.482  c-0.124,0-0.249,0.002-0.372,0.008H146.058c-15.14,0-29.053-5.334-39.977-14.211c-14.186-11.651-23.272-29.414-23.272-49.287  c0-0.629-0.074-1.241-0.204-1.832C83.58,44.48,111.657,16.98,146.058,16.98h283.383v22.639H146.058  c-22.53,0-40.859,18.329-40.859,40.859c0,22.53,18.329,40.858,40.859,40.858h283.383v22.639h-58.818  c-0.123-0.006-0.249-0.008-0.374-0.008c-4.69,0-8.49,3.809-8.49,8.498c0,0.023,0.003,0.045,0.003,0.068s-0.003,0.045-0.003,0.068  c0,4.689,3.8,8.49,8.49,8.49h58.942v313.075c0,11.694-9.205,20.855-20.956,20.855H154.123v-56.98c0-4.689-3.8-8.49-8.49-8.49  c-4.69,0-8.49,3.801-8.49,8.49v56.98h-33.378c-11.752,0-20.957-9.161-20.957-20.855V227.782  C82.809,223.094,79.008,219.293,74.319,219.293z M146.058,104.356c-13.167,0-23.88-10.712-23.88-23.879s10.713-23.88,23.88-23.88  h283.383v47.758H146.058V104.356z"/>
<g>
</g>
<g>
</g>
<g>
</g>
<g>
</g>
<g>
</g>
<g>
</g>
<g>
</g>
<g>
</g>
<g>
</g>
<g>
</g>
<g>
</g>
<g>
</g>
<g>
</g>
<g>
</g>
<g>
</g>
</svg>
