<?xml version="1.0" encoding="iso-8859-1"?>
<!-- Generator: Adobe Illustrator 19.0.0, SVG Export Plug-In . SVG Version: 6.00 Build 0)  -->
<svg xmlns="http://www.w3.org/2000/svg" xmlns:xlink="http://www.w3.org/1999/xlink" version="1.1" id="Layer_1" x="0px" y="0px" viewBox="0 0 512.002 512.002" style="enable-background:new 0 0 512.002 512.002;" xml:space="preserve">
<polygon style="fill:#FF6465;" points="131.13,189.119 69.519,256.001 131.13,322.884 338.801,409.413 338.801,102.588 "/>
<path style="fill:#E65A5B;" d="M43.8,189.119c-19.824,0-35.893,16.069-35.893,35.893v61.98c0,19.824,16.07,35.893,35.893,35.893  h87.329V189.119H43.8z"/>
<path d="M338.801,176.441c-4.367,0-7.908,3.54-7.908,7.908v213.203l-40.558-16.899c-4.032-1.679-8.661,0.227-10.341,4.258  c-1.68,4.032,0.227,8.661,4.257,10.341l51.507,21.461c0.978,0.408,2.012,0.608,3.041,0.608c1.538,0,3.069-0.449,4.387-1.328  c2.199-1.467,3.521-3.935,3.521-6.579V184.349C346.708,179.982,343.168,176.441,338.801,176.441z"/>
<path d="M343.187,96.009c-2.199-1.468-4.987-1.738-7.428-0.72L129.548,181.21H43.8C19.649,181.211,0,200.86,0,225.011v61.98  c0,24.152,19.649,43.8,43.8,43.8h85.748l122.887,51.203c0.994,0.414,2.024,0.61,3.039,0.61c3.097,0,6.037-1.831,7.302-4.868  c1.68-4.032-0.227-8.661-4.257-10.341l-119.481-49.783v-68.377c0-4.367-3.54-7.908-7.907-7.908c-4.367,0-7.908,3.54-7.908,7.908  v65.741H43.8c-15.431,0-27.985-12.554-27.985-27.985v-61.98c0-15.431,12.554-27.985,27.985-27.985h79.422v20.581  c0,4.367,3.54,7.908,7.908,7.908s7.908-3.54,7.908-7.908V194.39l191.856-79.94v38.268c0,4.367,3.54,7.908,7.908,7.908  c4.367,0,7.907-3.54,7.907-7.908v-50.129C346.708,99.945,345.387,97.476,343.187,96.009z"/>
<path style="fill:#C7CFE2;" d="M462.452,256.001l36.236-36.235c7.206-7.205,7.206-18.887,0-26.093  c-7.205-7.207-18.889-7.207-26.093,0l-36.236,36.235l-36.236-36.235c-7.205-7.207-18.887-7.205-26.093,0  c-7.206,7.205-7.206,18.887,0,26.093l36.236,36.235l-36.236,36.235c-7.206,7.205-7.206,18.887,0,26.093  c3.603,3.604,8.324,5.405,13.046,5.405s9.445-1.802,13.046-5.405l36.236-36.235l36.236,36.235c3.603,3.604,8.325,5.405,13.046,5.405  c4.721,0,9.444-1.802,13.046-5.405c7.206-7.205,7.206-18.887,0-26.093L462.452,256.001z"/>
<path d="M485.642,331.642c-7.042,0-13.661-2.742-18.639-7.721l-30.643-30.643l-30.644,30.644  c-4.976,4.979-11.597,7.721-18.637,7.721c-7.041,0-13.661-2.742-18.639-7.721c-4.978-4.978-7.72-11.597-7.72-18.637  c0-7.041,2.742-13.66,7.722-18.639l30.644-30.643l-30.644-30.644c-4.979-4.977-7.721-11.598-7.721-18.637  c0-7.04,2.742-13.66,7.722-18.638c4.978-4.979,11.597-7.72,18.636-7.721c7.042,0,13.661,2.742,18.64,7.722l30.643,30.643  l30.644-30.644c4.975-4.979,11.596-7.722,18.636-7.722c7.041,0,13.661,2.742,18.64,7.722c4.978,4.977,7.72,11.597,7.72,18.637  s-2.742,13.66-7.722,18.638l-30.644,30.643l30.644,30.644c4.979,4.978,7.721,11.598,7.721,18.637c0,7.04-2.742,13.66-7.722,18.639  C499.301,328.9,492.681,331.642,485.642,331.642z M436.359,270.912l41.827,41.826c1.992,1.992,4.638,3.088,7.455,3.088  c2.815,0,5.464-1.098,7.455-3.088c1.992-1.992,3.089-4.639,3.089-7.455c0-2.816-1.098-5.464-3.088-7.454l-41.829-41.827  l41.828-41.826c1.992-1.992,3.089-4.639,3.089-7.455s-1.098-5.464-3.088-7.454c-1.993-1.993-4.64-3.09-7.456-3.09  c-2.815,0-5.462,1.096-7.452,3.088l-41.829,41.829l-41.83-41.826c-1.992-1.993-4.639-3.089-7.454-3.089  c-2.816,0-5.464,1.098-7.455,3.089c-1.992,1.992-3.089,4.639-3.089,7.455s1.098,5.464,3.088,7.454l41.829,41.827l-41.827,41.826  c-1.992,1.992-3.089,4.639-3.089,7.455c0,2.816,1.098,5.464,3.088,7.454c1.992,1.993,4.639,3.089,7.455,3.089  s5.464-1.096,7.454-3.088L436.359,270.912z"/>
<g>
</g>
<g>
</g>
<g>
</g>
<g>
</g>
<g>
</g>
<g>
</g>
<g>
</g>
<g>
</g>
<g>
</g>
<g>
</g>
<g>
</g>
<g>
</g>
<g>
</g>
<g>
</g>
<g>
</g>
</svg>
