<?xml version="1.0" encoding="iso-8859-1"?>
<!-- Generator: Adobe Illustrator 19.0.0, SVG Export Plug-In . SVG Version: 6.00 Build 0)  -->
<svg xmlns="http://www.w3.org/2000/svg" xmlns:xlink="http://www.w3.org/1999/xlink" version="1.1" id="Layer_1" x="0px" y="0px" viewBox="0 0 512 512" style="enable-background:new 0 0 512 512;" xml:space="preserve">
<rect x="30.09" y="121.826" style="fill:#FFFFFF;" width="360.094" height="360.094"/>
<polygon style="fill:#7DD2F0;" points="276.563,195.933 179.588,292.908 148.788,262.108 120.53,390.652 249.074,362.392   218.274,331.593 314.429,235.438 "/>
<path style="fill:#B4BBCC;" d="M368.296,214.076v225.968c0,11.036-8.947,19.983-19.983,19.983H71.957  c-11.036,0-19.983-8.947-19.983-19.983V163.688c0-11.036,8.947-19.983,19.983-19.983h225.319V99.938H30.09  c-12.086,0-21.884,9.797-21.884,21.884V481.91c0,12.086,9.797,21.884,21.884,21.884h360.089c12.086,0,21.884-9.797,21.884-21.884  V214.076H368.296z"/>
<path style="opacity:0.1;enable-background:new    ;" d="M276.563,195.933l-31.134,31.134c4.819,18.898,19.506,33.881,38.223,39.148  l30.776-30.776L276.563,195.933z"/>
<g style="opacity:0.1;">
	<rect x="368.301" y="214.076" width="43.767" height="54.184"/>
	<rect x="243.74" y="99.942" width="53.538" height="43.767"/>
</g>
<path style="fill:#C7CFE2;" d="M481.911,235.438H298.446c-12.086,0-21.884-9.797-21.884-21.884V30.09  c0-12.086,9.797-21.884,21.884-21.884h183.464c12.086,0,21.884,9.797,21.884,21.884v183.463  C503.794,225.64,493.997,235.438,481.911,235.438z"/>
<path d="M481.911,0H356.94c-4.532,0-8.206,3.674-8.206,8.206s3.674,8.206,8.206,8.206h124.97c7.542,0,13.677,6.135,13.677,13.677  v183.463c0,7.542-6.135,13.677-13.677,13.677H298.446c-7.542,0-13.677-6.135-13.677-13.677v-17.621V30.09  c0-7.542,6.135-13.677,13.677-13.677h25.687c4.532,0,8.206-3.674,8.206-8.206S328.665,0,324.133,0h-25.687  c-16.592,0-30.09,13.498-30.09,30.09v61.642H30.09c-16.592,0-30.09,13.498-30.09,30.09V481.91c0,16.592,13.498,30.09,30.09,30.09  h263.035c4.532,0,8.206-3.674,8.206-8.206s-3.674-8.206-8.206-8.206H30.09c-7.542,0-13.677-6.135-13.677-13.677V121.821  c0-7.542,6.135-13.677,13.677-13.677h238.266v27.354H136.08c-4.532,0-8.206,3.674-8.206,8.206s3.674,8.206,8.206,8.206h132.277  v40.622l-88.77,88.769l-24.998-24.998c-2.121-2.121-5.228-2.913-8.106-2.075c-2.878,0.843-5.068,3.186-5.712,6.114l-28.258,128.544  c-0.601,2.734,0.233,5.586,2.212,7.565c1.556,1.556,3.65,2.404,5.802,2.404c0.586,0,1.177-0.062,1.762-0.191l128.543-28.259  c2.928-0.643,5.273-2.834,6.114-5.712c0.841-2.878,0.046-5.986-2.075-8.106l-24.998-24.997l87.949-87.949h42.262v196.4  c0,6.494-5.283,11.777-11.777,11.777H71.957c-6.494,0-11.777-5.283-11.777-11.777V163.688c0-6.494,5.283-11.777,11.777-11.777  h31.298c4.532,0,8.206-3.674,8.206-8.206s-3.674-8.206-8.206-8.206H71.957c-15.544,0-28.189,12.645-28.189,28.189v276.354  c0,15.544,12.645,28.189,28.189,28.189h276.354c15.544,0,28.189-12.645,28.189-28.189V243.644h27.354V481.91  c0,7.542-6.135,13.677-13.677,13.677H325.95c-4.532,0-8.206,3.674-8.206,8.206S321.418,512,325.95,512h64.228  c16.592,0,30.09-13.498,30.09-30.09V243.644h61.642c16.592,0,30.09-13.498,30.09-30.09V30.09C512.001,13.499,498.503,0,481.911,0z   M212.47,325.791c-1.54,1.538-2.404,3.626-2.404,5.802s0.864,4.264,2.404,5.802l20.201,20.2L131.3,379.881l22.285-101.372  l20.201,20.202c3.205,3.205,8.401,3.205,11.605,0l83.039-83.039c0.005,0.08,0.021,0.156,0.027,0.235  c0.804,10.325,7.175,19.766,16.386,24.475c3.056,1.562,6.355,2.572,9.758,3.009c0.078,0.01,0.153,0.028,0.232,0.038L212.47,325.791z  "/>
<g>
</g>
<g>
</g>
<g>
</g>
<g>
</g>
<g>
</g>
<g>
</g>
<g>
</g>
<g>
</g>
<g>
</g>
<g>
</g>
<g>
</g>
<g>
</g>
<g>
</g>
<g>
</g>
<g>
</g>
</svg>
