<?xml version="1.0" encoding="iso-8859-1"?>
<!-- Generator: Adobe Illustrator 19.0.0, SVG Export Plug-In . SVG Version: 6.00 Build 0)  -->
<svg xmlns="http://www.w3.org/2000/svg" xmlns:xlink="http://www.w3.org/1999/xlink" version="1.1" id="Layer_1" x="0px" y="0px" viewBox="0 0 512 512" style="enable-background:new 0 0 512 512;" xml:space="preserve">
<circle style="fill:#FF6465;" cx="243.368" cy="255.996" r="77.089"/>
<path style="opacity:0.1;enable-background:new    ;" d="M189.777,279.495c0-42.577,34.515-77.092,77.092-77.092  c15.273,0,29.496,4.459,41.473,12.121c-13.697-21.41-37.667-35.617-64.969-35.617c-42.577,0-77.092,34.515-77.092,77.092  c0,27.303,14.207,51.272,35.617,64.969C194.238,308.992,189.777,294.768,189.777,279.495z"/>
<circle style="fill:#FFD782;" cx="370.28" cy="61.499" r="35.977"/>
<path style="opacity:0.1;enable-background:new    ;" d="M346.051,73.252c0-19.869,16.107-35.977,35.977-35.977  c6.925,0,13.389,1.961,18.878,5.351c-6.338-10.259-17.68-17.099-30.625-17.099c-19.869,0-35.977,16.107-35.977,35.977  c0,12.945,6.84,24.289,17.099,30.625C348.012,86.641,346.051,80.177,346.051,73.252z"/>
<circle style="fill:#FFD782;" cx="116.468" cy="450.493" r="35.977"/>
<path style="opacity:0.1;enable-background:new    ;" d="M92.237,462.242c0-19.869,16.107-35.977,35.977-35.977  c6.924,0,13.389,1.961,18.878,5.351c-6.338-10.259-17.68-17.099-30.625-17.099c-19.869,0-35.977,16.107-35.977,35.977  c0,12.945,6.84,24.288,17.099,30.625C94.199,475.631,92.237,469.167,92.237,462.242z"/>
<path d="M193.225,196.8c2.706,4.044,8.179,5.127,12.222,2.42c11.238-7.523,24.353-11.501,37.926-11.501  c37.649,0,68.28,30.63,68.28,68.281c0,12.514-3.413,24.748-9.869,35.381c-2.525,4.16-1.201,9.578,2.959,12.104  c1.43,0.868,3.006,1.281,4.565,1.281c2.976,0,5.882-1.508,7.54-4.239c8.131-13.39,12.428-28.787,12.428-44.527  c0-47.366-38.535-85.903-85.901-85.903c-17.075,0-33.579,5.007-47.728,14.479C191.601,187.283,190.517,192.756,193.225,196.8z"/>
<path d="M280.147,313.516c-10.989,7.042-23.705,10.765-36.774,10.765c-37.649,0-68.28-30.63-68.28-68.281  c0-11.917,3.133-23.665,9.062-33.972c2.425-4.219,0.973-9.604-3.246-12.03c-4.22-2.426-9.604-0.974-12.031,3.246  c-7.463,12.977-11.407,27.762-11.407,42.757c0,47.366,38.535,85.903,85.901,85.903c16.447,0,32.451-4.685,46.282-13.55  c4.096-2.626,5.29-8.075,2.664-12.172C289.695,312.081,284.242,310.89,280.147,313.516z"/>
<path d="M62.353,437.018c2.959,2.959,6.197,5.625,9.671,8.018c-0.219,1.79-0.344,3.609-0.344,5.458  c0,24.695,20.092,44.787,44.787,44.787c23.154,0,42.26-17.661,44.556-40.219c26.061-6.004,54.109-17.879,82.35-34.644  c42.165,25.032,83.905,39.15,119.235,39.15c25.668,0,47.032-7.797,61.785-22.549c21.399-21.399,27.697-55.221,18.449-96.742  C487.521,316.256,512,284.705,512,250.77c0-33.463-23.801-64.606-67.302-88.498c6.329-37.203-0.554-67.539-20.305-87.291  c-2.959-2.959-6.197-5.625-9.671-8.018c0.219-1.79,0.344-3.609,0.344-5.458c0-24.695-20.092-44.787-44.787-44.787  c-23.154,0-42.26,17.661-44.556,40.219c-26.061,6.004-54.109,17.879-82.35,34.644c-42.165-25.032-83.905-39.15-119.235-39.15  c-25.669,0-47.032,7.797-61.785,22.549c-22.196,22.196-28.145,57.758-17.35,101.416C15.739,197.886,0,223.561,0,250.768  c0,27.933,16.584,54.25,47.366,76.083C33.499,374.504,38.691,413.357,62.353,437.018z M116.467,477.66  c-13.807,0-25.233-10.357-26.938-23.708c10.303,3.705,21.929,5.615,34.609,5.615c5.935,0,12.054-0.408,18.323-1.188  C139.073,469.525,128.705,477.66,116.467,477.66z M93.163,436.551c4.753-7.915,13.418-13.223,23.304-13.223  c11.515,0,21.372,7.205,25.319,17.34c-6.078,0.832-11.979,1.278-17.648,1.278C112.367,441.945,102.018,440.134,93.163,436.551z   M159.267,437.293c-5.647-18.273-22.697-31.586-42.8-31.586c-16.295,0-30.581,8.751-38.418,21.797  c-1.114-0.941-2.202-1.913-3.234-2.945c-18.135-18.134-22.213-48.97-11.924-87.779c4.584,2.653,9.39,5.224,14.438,7.703  c29.507,14.485,64.94,24.952,103.55,30.857c14.909,12.741,30.15,24.259,45.444,34.386  C203.174,422.684,180.39,432.098,159.267,437.293z M151.338,348.032c1.622,1.622,3.258,3.217,4.894,4.81  c-26.188-5.805-50.267-13.933-71.14-24.179c-5.995-2.943-11.603-6.009-16.844-9.177c5.383-15.277,12.555-30.904,21.316-46.583  C106.619,298.718,127.484,324.178,151.338,348.032z M67.444,190.229c-0.737-2.158-1.42-4.288-2.076-6.405  c6.044-3.803,12.618-7.462,19.725-10.95c24.598-12.074,53.639-21.21,85.348-27.062c-6.452,5.828-12.829,11.878-19.103,18.153  c-23.854,23.854-44.719,49.315-61.774,75.13C80.366,222.636,72.908,206.23,67.444,190.229z M213.901,379.202  c13.786,1.136,27.854,1.721,42.098,1.721c4.965,0,9.906-0.079,14.823-0.219c-9.103,6.782-18.278,13.079-27.45,18.858  C233.522,393.356,223.666,386.564,213.901,379.202z M411.932,424.559c-11.538,11.538-28.133,17.388-49.323,17.388  c-29.684,0-65.485-11.675-102.185-32.222c13.865-9.179,27.686-19.491,41.256-30.83c46.4-4.161,89.437-14.647,124.856-30.595  C433.173,381.691,428.233,408.257,411.932,424.559z M419.301,321.768c1.055,3.09,2.019,6.132,2.909,9.134  c-27.986,13.025-61.333,22.385-97.605,27.598c3.628-3.424,7.233-6.903,10.8-10.47c23.854-23.854,44.72-49.314,61.774-75.13  C406.379,289.362,413.837,305.769,419.301,321.768z M335.407,163.966c-7.907-7.907-15.982-15.453-24.162-22.647  c42.558,4.833,81.619,15.255,113.478,30.51c-1.465,5.947-3.264,12.08-5.422,18.401c-5.464,16.001-12.923,32.406-22.121,48.865  C380.127,213.28,359.262,187.82,335.407,163.966z M440.74,180.268c34.718,20.166,53.638,44.854,53.638,70.5  c0,26.28-19.857,51.555-56.233,71.99c-0.687-2.212-1.399-4.436-2.167-6.685c-6.721-19.681-16.265-39.904-28.217-60.075  c11.952-20.172,21.496-40.394,28.217-60.075C437.795,190.603,439.375,185.384,440.74,180.268z M370.279,34.338  c13.807,0,25.233,10.357,26.938,23.708c-10.303-3.705-21.928-5.615-34.609-5.615c-5.935,0-12.054,0.408-18.323,1.188  C347.672,42.473,358.041,34.338,370.279,34.338z M393.583,75.447c-4.753,7.915-13.418,13.223-23.304,13.223  c-11.515,0-21.372-7.205-25.319-17.34c6.078-0.832,11.979-1.278,17.648-1.278C374.38,70.052,384.728,71.864,393.583,75.447z   M327.479,74.704c5.647,18.273,22.697,31.586,42.8,31.586c16.295,0,30.581-8.751,38.418-21.797c1.114,0.941,2.202,1.913,3.234,2.945  c14.689,14.688,20.164,37.707,16.245,66.548c-39.334-18.019-88.271-29.239-140.869-32.431c-8.906-6.884-17.885-13.324-26.885-19.283  C283.572,89.314,306.355,79.901,327.479,74.704z M280.67,138.841c14.466,11.402,28.669,23.979,42.276,37.585  c25.271,25.27,47.012,52.328,64.184,79.574c-17.171,27.244-38.914,54.303-64.184,79.573c-9.24,9.24-18.76,17.994-28.446,26.243  c-12.611,0.979-25.472,1.486-38.5,1.486c-23.167,0-45.814-1.585-67.44-4.636c-8.417-7.318-16.693-15.028-24.76-23.095  c-25.271-25.27-47.012-52.328-64.183-79.573c17.171-27.244,38.912-54.303,64.183-79.573c12.742-12.742,26.009-24.576,39.522-35.395  c17.092-1.844,34.729-2.795,52.677-2.795C264.297,138.236,272.527,138.441,280.67,138.841z M243.373,112.435  c4.159,2.621,8.317,5.348,12.471,8.18c-8.709,0.002-17.35,0.226-25.904,0.656C234.414,118.203,238.893,115.258,243.373,112.435z   M74.815,87.44c11.536-11.538,28.131-17.388,49.323-17.388c29.683,0,65.484,11.675,102.185,32.222  c-10.108,6.693-20.191,13.993-30.172,21.849c-44.535,5.316-85.464,16.557-118.822,32.933c-5.862,2.878-11.404,5.882-16.64,8.993  C53.34,131.551,58.132,104.122,74.815,87.44z M17.622,250.768c0-19.889,11.373-39.205,32.672-56.28  c0.161,0.479,0.31,0.954,0.475,1.436c6.721,19.681,16.264,39.904,28.217,60.075c-10.588,17.87-19.276,35.776-25.794,53.314  C30.027,291.689,17.622,271.542,17.622,250.768z"/>
<g>
</g>
<g>
</g>
<g>
</g>
<g>
</g>
<g>
</g>
<g>
</g>
<g>
</g>
<g>
</g>
<g>
</g>
<g>
</g>
<g>
</g>
<g>
</g>
<g>
</g>
<g>
</g>
<g>
</g>
</svg>
