<?xml version="1.0" encoding="iso-8859-1"?>
<!-- Generator: Adobe Illustrator 19.0.0, SVG Export Plug-In . SVG Version: 6.00 Build 0)  -->
<svg xmlns="http://www.w3.org/2000/svg" xmlns:xlink="http://www.w3.org/1999/xlink" version="1.1" id="Layer_1" x="0px" y="0px" viewBox="0 0 512 512" style="enable-background:new 0 0 512 512;" xml:space="preserve">
<path style="fill:#FF6465;" d="M465.051,8.861H46.95c-21.036,0-38.089,17.053-38.089,38.089v418.102  c0,21.035,17.053,38.089,38.089,38.089h418.101c21.035,0,38.089-17.053,38.089-38.089V46.95  C503.14,25.913,486.087,8.861,465.051,8.861z"/>
<g>
	<path style="fill:#E6C175;" d="M81.078,230.987c-9.421,0-17.057,7.637-17.057,17.057c0,15.7,12.727,28.427,28.427,28.427h50.137   l4.135-45.485H81.078z"/>
	<path style="fill:#E6C175;" d="M430.922,230.987c9.421,0,17.057,7.637,17.057,17.057c0,15.7-12.727,28.427-28.427,28.427h-50.137   l-4.135-45.485H430.922z"/>
</g>
<rect x="208.095" y="82.535" style="fill:#FFFFFF;" width="95.801" height="65.002"/>
<path style="fill:#F2CC7B;" d="M375.346,323.138c-0.007,0-0.017,0-0.024,0H136.676c-7.179,0-13.969-3.264-18.453-8.871  c-4.485-5.607-6.176-12.948-4.598-19.953l29.056-128.923c5.605-24.869,27.325-42.238,52.818-42.238H316.5  c25.493,0,47.213,17.369,52.818,42.238l28.799,127.786c0.559,2.015,0.858,4.14,0.858,6.332  C398.974,312.559,388.396,323.138,375.346,323.138z"/>
<path style="fill:#B3EBFF;" d="M166.224,275.881h179.554l-22.56-100.1c-0.714-3.164-3.475-5.372-6.718-5.372H195.499  c-3.242,0-6.004,2.208-6.718,5.372L166.224,275.881z"/>
<g>
	<path style="fill:#515262;" d="M118.956,343.222v65.3c0,11.566,9.377,20.943,20.943,20.943h13.642   c11.566,0,20.943-9.377,20.943-20.943v-65.3H118.956z"/>
	<path style="fill:#515262;" d="M393.045,343.222v65.3c0,11.566-9.377,20.943-20.943,20.943H358.46   c-11.566,0-20.943-9.377-20.943-20.943v-65.3H393.045z"/>
</g>
<path style="fill:#FFD782;" d="M361.335,254.025H150.667c-34.731,0-62.887,28.156-62.887,62.886v23.656  c0,12.752,10.337,23.09,23.09,23.09h290.26c12.752,0,23.09-10.337,23.09-23.09V316.91  C424.221,282.18,396.066,254.025,361.335,254.025z"/>
<rect x="201.172" y="339.48" style="fill:#E6C175;" width="109.671" height="48.355"/>
<g>
	<path style="fill:#FFFFFF;" d="M167.837,286.514h-20.982c-10.841,0-19.629,8.787-19.629,19.629l0,0   c0,10.841,8.789,19.629,19.629,19.629h20.982c10.841,0,19.629-8.789,19.629-19.629l0,0   C187.465,295.301,178.678,286.514,167.837,286.514z"/>
	<path style="fill:#FFFFFF;" d="M344.164,286.514h20.982c10.841,0,19.629,8.787,19.629,19.629l0,0   c0,10.841-8.789,19.629-19.629,19.629h-20.982c-10.841,0-19.629-8.789-19.629-19.629l0,0   C324.535,295.301,333.323,286.514,344.164,286.514z"/>
</g>
<path d="M465.051,0H131.817c-4.893,0-8.861,3.967-8.861,8.861s3.967,8.861,8.861,8.861h333.234  c16.116,0,29.227,13.111,29.227,29.228v418.102c0,16.116-13.111,29.227-29.227,29.227h-55.296c-4.893,0-8.861,3.967-8.861,8.861  c0,4.893,3.967,8.861,8.861,8.861h55.296c25.887,0,46.948-21.061,46.948-46.948V46.95C511.999,21.061,490.938,0,465.051,0z"/>
<path d="M374.312,494.279H46.95c-16.116,0-29.228-13.111-29.228-29.227V46.95c0-16.117,13.113-29.228,29.228-29.228h49.425  c4.893,0,8.861-3.967,8.861-8.861S101.268,0,96.375,0H46.95C21.063,0,0.001,21.061,0.001,46.95v418.102  C0.001,490.939,21.062,512,46.949,512h327.364c4.893,0,8.861-3.967,8.861-8.861C383.173,498.246,379.207,494.279,374.312,494.279z"/>
<path d="M167.837,277.653h-20.982c-15.709,0-28.49,12.781-28.49,28.49c0,15.709,12.781,28.489,28.49,28.489h20.982  c15.709,0,28.49-12.779,28.49-28.489C196.327,290.434,183.547,277.653,167.837,277.653z M167.837,316.91h-20.982  c-5.938,0-10.769-4.83-10.769-10.767s4.831-10.769,10.769-10.769h20.982c5.938,0,10.769,4.831,10.769,10.769  S173.775,316.91,167.837,316.91z"/>
<path d="M344.164,334.632h20.982c15.709,0,28.49-12.779,28.49-28.489c0-15.709-12.781-28.49-28.49-28.49h-20.982  c-15.709,0-28.49,12.781-28.49,28.49S328.455,334.632,344.164,334.632z M344.164,295.374h20.982c5.938,0,10.769,4.831,10.769,10.769  c0,5.938-4.831,10.767-10.769,10.767h-20.982c-5.938,0-10.769-4.83-10.769-10.767S338.226,295.374,344.164,295.374z"/>
<path d="M401.906,372.497c17.26-0.415,31.176-14.573,31.176-31.93v-23.656c0-11.519-2.744-22.402-7.588-32.058  c17.747-2.853,31.348-18.271,31.348-36.808c0-14.292-11.626-25.918-25.918-25.918h-39.735l-13.226-58.683  c-6.523-28.939-31.797-49.15-61.461-49.15h-3.737V82.535c0-4.893-3.967-8.861-8.861-8.861h-95.806c-4.893,0-8.861,3.967-8.861,8.861  v31.758h-3.737c-29.665,0-54.939,20.212-61.461,49.15l-13.226,58.683H81.078c-14.292,0-25.918,11.626-25.918,25.918  c0,18.539,13.602,33.955,31.348,36.808c-4.844,9.656-7.588,20.539-7.588,32.058v23.656c0,17.357,13.916,31.517,31.176,31.93v36.025  c0,16.434,13.369,29.804,29.804,29.804h13.642c16.434,0,29.804-13.369,29.804-29.804v-36.006h8.963v15.317  c0,4.893,3.967,8.861,8.861,8.861h109.666c4.893,0,8.861-3.967,8.861-8.861v-15.317h8.963v36.006  c0,16.434,13.369,29.804,29.804,29.804h13.642c16.434,0,29.804-13.369,29.804-29.804v-36.024H401.906z M395.182,239.848h35.74  c4.52,0,8.197,3.678,8.197,8.197c0,10.789-8.778,19.567-19.567,19.567h-6.106c-0.356-0.376-0.737-0.722-1.1-1.089  c-0.258-0.261-0.52-0.517-0.782-0.774c-3.394-3.332-7.116-6.322-11.097-8.923c-0.574-0.375-1.131-0.771-1.717-1.129l-1.328-5.894  L395.182,239.848z M216.958,91.396h78.085v22.897h-78.085V91.396z M151.326,167.339c4.688-20.799,22.852-35.326,44.174-35.326  h121.001c21.321,0,39.487,14.527,44.174,35.326l18.02,79.959c-0.758-0.189-1.52-0.363-2.285-0.528  c-4.942-1.062-10.021-1.607-15.075-1.607H347.94l-16.077-71.33c-1.63-7.233-7.947-12.284-15.361-12.284H195.501  c-7.413,0-13.73,5.052-15.361,12.284l-16.077,71.33h-13.397c-5.843,0-11.69,0.722-17.361,2.135c0,0,3.237-14.364,3.238-14.368  L151.326,167.339z M329.772,245.164H182.229l14.85-65.894h117.842L329.772,245.164z M98.553,267.611h-6.107  c-10.789,0-19.567-8.778-19.567-19.567c0-4.52,3.678-8.197,8.197-8.197h35.743c0,0-3.571,15.845-3.571,15.846  c-0.112,0.496-2.69,1.77-3.179,2.104c-1.23,0.844-2.431,1.726-3.605,2.646C103.673,262.635,100.992,265.032,98.553,267.611z   M165.622,408.523c0,6.662-5.419,12.082-12.082,12.082h-13.642c-6.662,0-12.082-5.419-12.082-12.082v-36.006h37.805v36.006H165.622z   M301.973,378.974h-91.945V348.34h91.945V378.974L301.973,378.974z M310.834,330.618H201.167c-4.893,0-8.861,3.967-8.861,8.861  v15.317h-81.436c-7.846,0-14.229-6.383-14.229-14.229v-23.656c0-21.087,12.151-39.379,29.812-48.274  c7.463-3.758,15.857-5.752,24.213-5.752h210.667c29.427,0,54.026,24.638,54.026,54.025v23.656c0,7.846-6.383,14.229-14.229,14.229  h-81.436v-15.317C319.694,334.585,315.727,330.618,310.834,330.618z M384.184,408.523c0,6.662-5.419,12.082-12.082,12.082H358.46  c-6.662,0-12.082-5.419-12.082-12.082v-36.006h37.805v36.006H384.184z"/>
<g>
</g>
<g>
</g>
<g>
</g>
<g>
</g>
<g>
</g>
<g>
</g>
<g>
</g>
<g>
</g>
<g>
</g>
<g>
</g>
<g>
</g>
<g>
</g>
<g>
</g>
<g>
</g>
<g>
</g>
</svg>
