<?xml version="1.0" encoding="iso-8859-1"?>
<!-- Generator: Adobe Illustrator 19.0.0, SVG Export Plug-In . SVG Version: 6.00 Build 0)  -->
<svg xmlns="http://www.w3.org/2000/svg" xmlns:xlink="http://www.w3.org/1999/xlink" version="1.1" id="Layer_1" x="0px" y="0px" viewBox="0 0 511.999 511.999" style="enable-background:new 0 0 511.999 511.999;" xml:space="preserve">
<path style="fill:#C7CFE2;" d="M48.051,436.638c-52.042-52.042-52.043-136.72-0.001-188.762L216.265,79.66  c7.047-7.047,18.472-7.047,25.519,0c7.047,7.047,7.047,18.472,0,25.519L73.569,273.395c-37.971,37.971-37.971,99.753,0,137.725  c37.971,37.971,99.753,37.972,137.725,0l238.427-238.427c22.913-22.913,22.913-60.194,0-83.107  c-22.913-22.913-60.196-22.913-83.109,0l-205.39,205.391c-8.038,8.038-8.038,21.118,0,29.158c8.038,8.038,21.118,8.038,29.158,0  l135.179-135.181c7.047-7.047,18.472-7.047,25.519,0s7.047,18.472,0,25.519L215.899,349.653c-22.109,22.109-58.086,22.109-80.195,0  c-22.109-22.109-22.109-58.086,0-80.195L341.094,64.065c36.984-36.984,97.162-36.984,134.146,0  c36.984,36.984,36.984,97.162,0,134.146L236.812,436.638C184.77,488.68,100.093,488.68,48.051,436.638z"/>
<path d="M334.711,57.684L129.321,263.075c-25.627,25.628-25.627,67.327,0,92.955c12.398,12.398,28.903,19.225,46.478,19.225  s34.08-6.828,46.478-19.225l135.181-135.181c10.551-10.554,10.551-27.725-0.001-38.279c-10.551-10.551-27.725-10.551-38.279,0  L183.999,317.751c-4.522,4.521-11.877,4.522-16.399,0.001c-4.521-4.522-4.521-11.878,0-16.399L372.991,95.961  c9.377-9.377,21.869-14.542,35.173-14.542c13.306,0,25.797,5.164,35.175,14.542c9.377,9.377,14.542,21.869,14.542,35.174  s-5.164,25.797-14.543,35.175L204.912,404.738c-34.452,34.453-90.513,34.452-124.965,0c-16.661-16.66-25.837-38.85-25.837-62.482  c0-23.632,9.176-45.822,25.837-62.482l168.217-168.218c10.551-10.552,10.552-27.724-0.001-38.279  c-10.552-10.552-27.726-10.551-38.279,0l-79.087,79.088c-3.524,3.524-3.524,9.236,0,12.759c3.525,3.524,9.236,3.521,12.76,0  l79.086-79.087c3.52-3.517,9.244-3.519,12.76,0c3.519,3.518,3.519,9.241,0,12.759L67.186,267.013  c-20.068,20.068-31.121,46.79-31.121,75.241c0,28.452,11.053,55.173,31.121,75.241c20.748,20.748,47.991,31.12,75.244,31.117  c27.245-0.002,54.501-10.374,75.242-31.116L456.099,179.07c12.785-12.786,19.826-29.81,19.826-47.934s-7.042-35.147-19.826-47.932  c-26.432-26.432-69.437-26.431-95.867,0L154.839,288.594c-11.555,11.556-11.555,30.359,0.001,41.918  c11.555,11.555,30.359,11.556,41.918,0l135.178-135.181c3.519-3.518,9.242-3.519,12.76,0c3.519,3.517,3.519,9.242,0,12.76  L209.516,343.27c-8.989,8.99-20.963,13.94-33.717,13.94c-12.754,0-24.73-4.95-33.717-13.94c-18.592-18.592-18.592-48.843,0-67.436  l205.39-205.391c33.464-33.466,87.921-33.466,121.385,0c16.184,16.184,25.096,37.737,25.096,60.694  c0,22.955-8.913,44.51-25.096,60.692L230.43,430.257c-23.465,23.465-54.717,36.389-88,36.389s-64.536-12.924-88.001-36.389  c-48.524-48.524-48.526-127.48,0-176.003l64.672-64.672c3.524-3.523,3.524-9.236,0-12.759c-3.525-3.524-9.236-3.524-12.76,0  L41.67,241.494c-55.559,55.559-55.559,145.962,0,201.522c26.874,26.874,62.659,41.675,100.762,41.675s73.887-14.8,100.761-41.675  l238.425-238.428c19.59-19.592,30.381-45.677,30.381-73.452s-10.791-53.861-30.381-73.452  C441.116,17.182,375.216,17.182,334.711,57.684z"/>
<g>
</g>
<g>
</g>
<g>
</g>
<g>
</g>
<g>
</g>
<g>
</g>
<g>
</g>
<g>
</g>
<g>
</g>
<g>
</g>
<g>
</g>
<g>
</g>
<g>
</g>
<g>
</g>
<g>
</g>
</svg>
