<?xml version="1.0" encoding="iso-8859-1"?>
<!-- Generator: Adobe Illustrator 19.0.0, SVG Export Plug-In . SVG Version: 6.00 Build 0)  -->
<svg xmlns="http://www.w3.org/2000/svg" xmlns:xlink="http://www.w3.org/1999/xlink" version="1.1" id="Layer_1" x="0px" y="0px" viewBox="0 0 512 512" style="enable-background:new 0 0 512 512;" xml:space="preserve">
<path style="fill:#C7CFE2;" d="M485.726,453.123c9.88,0,17.889-8.009,17.889-17.889V287.339c0-9.879-8.009-17.888-17.888-17.888  H465.86V83.286c0-13.481-10.929-24.409-24.409-24.409H70.552c-13.481,0-24.409,10.929-24.409,24.409v186.165H26.276  c-9.88,0-17.888,8.009-17.888,17.888v147.895c0,9.88,8.009,17.889,17.889,17.889H485.726z"/>
<rect x="59.031" y="321.81" style="fill:#FFFFFF;" width="172.334" height="78.96"/>
<rect x="59.031" y="321.81" style="opacity:0.1;enable-background:new    ;" width="44.73" height="78.96"/>
<g>
	<rect x="280.636" y="321.81" style="fill:#FFFFFF;" width="172.334" height="78.96"/>
	<rect x="97.087" y="190.494" style="fill:#FFFFFF;" width="134.28" height="78.96"/>
</g>
<rect x="97.087" y="190.494" style="opacity:0.1;enable-background:new    ;" width="44.73" height="78.96"/>
<rect x="280.636" y="190.494" style="fill:#FFFFFF;" width="134.28" height="78.96"/>
<rect x="97.087" y="97.064" style="fill:#78C8E6;" width="317.818" height="52.458"/>
<rect x="97.087" y="97.064" style="opacity:0.1;enable-background:new    ;" width="44.73" height="52.458"/>
<path d="M130.281,392.381c-4.633,0-8.387,3.755-8.387,8.387c0,4.632,3.754,8.387,8.387,8.387h101.087  c4.633,0,8.387-3.755,8.387-8.387v-78.962c0-4.632-3.754-8.387-8.387-8.387H59.031c-4.633,0-8.387,3.755-8.387,8.387v78.962  c0,4.632,3.754,8.387,8.387,8.387h37.702c4.633,0,8.387-3.755,8.387-8.387c0-4.632-3.754-8.387-8.387-8.387H67.418v-62.188H222.98  v62.188H130.281z"/>
<path d="M272.246,400.768c0,4.632,3.754,8.387,8.387,8.387h172.336c4.633,0,8.387-3.755,8.387-8.387v-78.962  c0-4.632-3.754-8.387-8.387-8.387H280.633c-4.633,0-8.387,3.755-8.387,8.387V400.768z M289.02,330.193h155.562v62.188H289.02  V330.193z"/>
<path d="M239.754,190.49c0-4.632-3.754-8.387-8.387-8.387H97.091c-4.633,0-8.387,3.755-8.387,8.387v78.962  c0,4.632,3.754,8.387,8.387,8.387h134.276c4.633,0,8.387-3.755,8.387-8.387V190.49z M222.98,261.065H105.478v-62.188H222.98V261.065  z"/>
<path d="M280.633,277.838h134.276c4.633,0,8.387-3.755,8.387-8.387V190.49c0-4.632-3.754-8.387-8.387-8.387H280.633  c-4.633,0-8.387,3.755-8.387,8.387v78.962C272.246,274.083,276,277.838,280.633,277.838z M289.02,198.876h117.502v62.188H289.02  V198.876z"/>
<path d="M391.552,453.123c0-4.632-3.754-8.387-8.387-8.387H26.276c-5.24,0-9.502-4.263-9.502-9.502V287.339  c0-5.239,4.263-9.501,9.502-9.501h19.867c4.633,0,8.387-3.755,8.387-8.387V83.286c0-8.834,7.188-16.022,16.022-16.022h42.293  c4.633,0,8.387-3.755,8.387-8.387s-3.754-8.387-8.387-8.387H70.552c-18.084,0-32.796,14.713-32.796,32.796v177.778h-11.48  C11.787,261.065,0,272.851,0,287.339v147.895c0,14.488,11.787,26.276,26.276,26.276h356.89  C387.798,461.51,391.552,457.755,391.552,453.123z"/>
<path d="M485.726,261.065h-11.481V83.286c0-18.083-14.712-32.796-32.796-32.796H146.392c-4.633,0-8.387,3.755-8.387,8.387  s3.754,8.387,8.387,8.387h295.056c8.834,0,16.022,7.188,16.022,16.022v186.165c0,4.632,3.754,8.387,8.387,8.387h19.868  c5.239,0,9.501,4.263,9.501,9.501v147.895c0,5.239-4.263,9.502-9.501,9.502h-69.013c-4.633,0-8.387,3.755-8.387,8.387  c0,4.632,3.754,8.387,8.387,8.387h69.013c14.488,0,26.274-11.787,26.274-26.276V287.339  C512,272.851,500.214,261.065,485.726,261.065z"/>
<path d="M414.909,88.674H97.091c-4.633,0-8.387,3.755-8.387,8.387v52.458c0,4.632,3.754,8.387,8.387,8.387h317.818  c4.633,0,8.387-3.755,8.387-8.387V97.061C423.296,92.429,419.542,88.674,414.909,88.674z M406.522,141.132H105.478v-35.684h301.044  V141.132z"/>
<g>
</g>
<g>
</g>
<g>
</g>
<g>
</g>
<g>
</g>
<g>
</g>
<g>
</g>
<g>
</g>
<g>
</g>
<g>
</g>
<g>
</g>
<g>
</g>
<g>
</g>
<g>
</g>
<g>
</g>
</svg>
