<?xml version="1.0" encoding="iso-8859-1"?>
<!-- Generator: Adobe Illustrator 19.0.0, SVG Export Plug-In . SVG Version: 6.00 Build 0)  -->
<svg xmlns="http://www.w3.org/2000/svg" xmlns:xlink="http://www.w3.org/1999/xlink" version="1.1" id="Layer_1" x="0px" y="0px" viewBox="0 0 512 512" style="enable-background:new 0 0 512 512;" xml:space="preserve">
<path style="fill:#B4BBCC;" d="M383.426,503.183H25.663c-9.448,0-17.108-7.66-17.108-17.108V128.313  c0-9.448,7.66-17.108,17.108-17.108h357.763c9.448,0,17.108,7.66,17.108,17.108v357.763  C400.534,495.524,392.874,503.183,383.426,503.183z"/>
<rect x="42.771" y="145.421" style="fill:#FFFFFF;" width="323.543" height="323.543"/>
<path style="fill:#7DD2F0;" d="M280.513,240.549h-51.397c-4.538,0-8.888,1.802-12.097,5.012l-41.228,41.228l-31.799-31.799  c-4.341-4.341-10.676-6.026-16.599-4.408c-5.923,1.615-10.526,6.28-12.063,12.223L85.585,377.849  c-1.517,5.866,0.182,12.096,4.466,16.38c3.249,3.251,7.618,5.012,12.098,5.012c1.427,0,2.865-0.178,4.282-0.545l115.044-29.746  c5.943-1.537,10.608-6.141,12.223-12.063c1.615-5.923-0.067-12.258-4.408-16.599l-29.304-29.304l36.217-36.217h44.31  c9.448,0,17.108-7.66,17.108-17.108C297.621,248.209,289.962,240.549,280.513,240.549z"/>
<path style="opacity:0.1;enable-background:new    ;" d="M383.426,111.204H229.189v262.321c0,28.301,23.024,51.325,51.325,51.325  h120.02V128.313C400.534,118.863,392.874,111.204,383.426,111.204z"/>
<path style="fill:#C7CFE2;" d="M486.337,8.816H280.513c-4.537,0-8.888,1.802-12.097,5.012c-3.208,3.208-5.012,7.56-5.012,12.097  v347.601c0,9.448,7.66,17.108,17.108,17.108h205.824c9.448,0,17.108-7.66,17.108-17.108V25.924  C503.446,16.476,495.787,8.816,486.337,8.816z"/>
<rect x="297.618" y="43.033" style="fill:#B4BBCC;" width="171.609" height="81.653"/>
<g>
	<rect x="297.618" y="158.902" style="fill:#FFFFFF;" width="171.609" height="81.653"/>
	<rect x="297.618" y="274.772" style="fill:#FFFFFF;" width="171.609" height="81.653"/>
</g>
<path d="M294.502,494.629H25.663c-4.716,0-8.554-3.837-8.554-8.554V128.313c0-4.717,3.838-8.554,8.554-8.554h37.535  c4.724,0,8.554-3.83,8.554-8.554c0-4.724-3.83-8.554-8.554-8.554H25.663C11.512,102.65,0,114.162,0,128.313v357.763  c0,14.151,11.512,25.663,25.663,25.663h268.839c4.724,0,8.554-3.83,8.554-8.554C303.056,498.46,299.226,494.629,294.502,494.629z"/>
<path d="M477.783,43.033c0-4.724-3.83-8.554-8.554-8.554H297.621c-4.724,0-8.554,3.83-8.554,8.554v81.65  c0,4.724,3.83,8.554,8.554,8.554h171.608c4.724,0,8.554-3.83,8.554-8.554L477.783,43.033L477.783,43.033z M460.675,116.129H306.176  V51.587h154.499L460.675,116.129L460.675,116.129z"/>
<path d="M469.229,266.212H297.621c-4.724,0-8.554,3.83-8.554,8.554v81.65c0,4.724,3.83,8.554,8.554,8.554h171.608  c4.724,0,8.554-3.83,8.554-8.554v-81.65C477.783,270.042,473.953,266.212,469.229,266.212z M460.675,347.862H306.176V283.32h154.499  L460.675,347.862L460.675,347.862z"/>
<path d="M477.783,158.9c0-4.724-3.83-8.554-8.554-8.554H297.621c-4.724,0-8.554,3.83-8.554,8.554v81.649  c0,4.724,3.83,8.554,8.554,8.554h171.608c4.724,0,8.554-3.83,8.554-8.554L477.783,158.9L477.783,158.9z M460.675,231.995H306.176  v-64.541h154.499L460.675,231.995L460.675,231.995z"/>
<path d="M486.337,0.262H347.336c-4.724,0-8.554,3.83-8.554,8.554s3.83,8.554,8.554,8.554h139.001c4.717,0,8.554,3.837,8.554,8.554  v347.601c0,4.717-3.837,8.554-8.554,8.554H280.513c-4.717,0-8.554-3.837-8.554-8.554V25.924c0-2.285,0.89-4.433,2.506-6.05  c1.615-1.615,3.763-2.505,6.048-2.505h32.606c4.724,0,8.554-3.83,8.554-8.554s-3.83-8.554-8.554-8.554h-32.606  c-6.856,0-13.3,2.67-18.145,7.516c-4.847,4.847-7.517,11.292-7.517,18.146v76.726H96.412c-4.724,0-8.554,3.83-8.554,8.554  c0,4.724,3.83,8.554,8.554,8.554h158.44v17.108H42.771c-4.724,0-8.554,3.83-8.554,8.554v323.546c0,4.724,3.83,8.554,8.554,8.554  h323.546c4.724,0,8.554-3.83,8.554-8.554v-69.779h17.108v86.888c0,4.717-3.837,8.554-8.554,8.554h-54.813  c-4.724,0-8.554,3.83-8.554,8.554c0,4.724,3.83,8.554,8.554,8.554h54.813c14.151,0,25.663-11.512,25.663-25.663v-86.888h77.249  c14.151,0,25.663-11.512,25.663-25.663V25.924C512,11.773,500.488,0.262,486.337,0.262z M193.938,317.032l29.304,29.304  c2.165,2.164,3.009,5.345,2.204,8.299c-0.805,2.954-3.148,5.265-6.111,6.031l-115.045,29.747c-2.912,0.755-6.064-0.108-8.189-2.234  c-2.132-2.132-2.987-5.271-2.233-8.189l29.746-115.044c0.766-2.964,3.077-5.306,6.035-6.112c0.733-0.201,1.49-0.302,2.247-0.302  c2.283,0,4.432,0.891,6.05,2.507l31.799,31.799c3.341,3.341,8.757,3.341,12.097,0l41.229-41.229  c1.615-1.615,3.763-2.505,6.048-2.505h25.734v17.108h-18.647c-2.269,0-4.445,0.901-6.048,2.506l-36.217,36.217  C190.597,308.276,190.597,313.692,193.938,317.032z M357.763,460.412H51.325V153.975H254.85v78.02h-25.734  c-6.855,0-13.3,2.67-18.146,7.516l-35.179,35.179l-25.75-25.75c-4.847-4.847-11.293-7.517-18.146-7.517  c-2.28,0-4.552,0.305-6.751,0.904c-8.862,2.417-15.796,9.442-18.094,18.335L77.303,375.706c-2.264,8.76,0.302,18.174,6.699,24.569  c6.351,6.349,15.878,8.949,24.571,6.701l115.044-29.746c8.892-2.301,15.918-9.233,18.335-18.095  c2.416-8.863-0.119-18.403-6.613-24.896l-23.256-23.256l27.663-27.663h15.104v90.205c0,14.151,11.512,25.663,25.663,25.663h77.249  v61.225H357.763z"/>
<g>
</g>
<g>
</g>
<g>
</g>
<g>
</g>
<g>
</g>
<g>
</g>
<g>
</g>
<g>
</g>
<g>
</g>
<g>
</g>
<g>
</g>
<g>
</g>
<g>
</g>
<g>
</g>
<g>
</g>
</svg>
