<?xml version="1.0" encoding="iso-8859-1"?>
<!-- Generator: Adobe Illustrator 19.0.0, SVG Export Plug-In . SVG Version: 6.00 Build 0)  -->
<svg xmlns="http://www.w3.org/2000/svg" xmlns:xlink="http://www.w3.org/1999/xlink" version="1.1" id="Layer_1" x="0px" y="0px" viewBox="0 0 512.002 512.002" style="enable-background:new 0 0 512.002 512.002;" xml:space="preserve">
<path style="fill:#B4BBCC;" d="M201.504,295.192H41.47v115.979c0,30.555,70.773,55.326,158.074,55.326  c0.655,0,1.305-0.006,1.958-0.008V295.192H201.504z"/>
<path style="fill:#C7CFE2;" d="M201.504,268.107c0-7.483,5.891-13.639,13.366-13.97l142.75-6.316v-68.608H41.47v115.979  c0,30.555,70.773,55.326,158.074,55.326c0.655,0,1.305-0.006,1.958-0.008v-82.403H201.504z"/>
<path style="fill:#B4BBCC;" d="M357.619,179.213c0,30.555-70.773,55.326-158.074,55.326S41.47,209.768,41.47,179.213V63.234h316.148  V179.213z"/>
<ellipse style="fill:#C7CFE2;" cx="199.548" cy="63.234" rx="158.079" ry="55.322"/>
<path style="opacity:0.1;enable-background:new    ;" d="M104.732,455.442V63.234c0-26.765,54.299-49.089,126.444-54.217  c-5.108-0.363-10.305-0.64-15.578-0.827c-0.008,0-0.018,0-0.018,0c-2.637-0.093-5.285-0.163-7.951-0.21c-0.012,0-0.022,0-0.034,0  c-2.666-0.047-5.351-0.071-8.05-0.071C112.242,7.91,41.47,32.68,41.47,63.236v347.937C41.47,429.276,66.321,445.349,104.732,455.442  z"/>
<path style="fill:#515262;" d="M455.929,243.471l-241.06,10.666c-7.475,0.331-13.366,6.487-13.366,13.97v211.336  c0,7.483,5.891,13.639,13.366,13.97l241.06,10.666c7.958,0.352,14.602-6.005,14.602-13.97V257.441  C470.531,249.475,463.887,243.118,455.929,243.471z"/>
<polygon style="fill:#A5EB78;" points="449.444,357.96 449.444,264.866 351.832,269.184 351.832,357.96 "/>
<polygon style="fill:#FFD782;" points="351.832,389.59 351.832,478.365 449.444,482.685 449.444,389.59 "/>
<polygon style="fill:#FF6465;" points="320.202,357.96 320.202,270.584 222.591,274.903 222.591,357.96 "/>
<polygon style="fill:#7DD2F0;" points="222.591,389.59 222.591,472.647 320.202,476.966 320.202,389.59 "/>
<path d="M455.58,235.571l-90.052,3.984v-60.343V63.234c0-20.363-21.928-38.065-61.746-49.849c-4.186-1.239-8.588,1.151-9.826,5.338  c-1.24,4.188,1.151,8.588,5.338,9.827c31.099,9.203,50.418,22.493,50.418,34.683c0,10.837-15.328,22.671-41.004,31.657  c-29.039,10.164-67.808,15.76-109.164,15.76c-28.397,0-56.138-2.702-80.225-7.817c-0.534-0.113-1.067-0.17-1.592-0.174  c-3.678-0.027-6.991,2.527-7.785,6.267c-0.906,4.272,1.822,8.471,6.093,9.377c25.147,5.339,54.023,8.162,83.509,8.162  c43.089,0,83.714-5.913,114.388-16.648c9.706-3.397,19.254-7.481,27.995-12.935c2.325-1.451,4.589-3.01,6.753-4.693  c0.202-0.157,0.403-0.314,0.601-0.472c0.141-0.113,0.29-0.225,0.429-0.337v87.831c0,10.837-15.328,22.671-41.004,31.657  c-29.039,10.164-67.807,15.76-109.164,15.76s-80.123-5.594-109.162-15.757c-25.676-8.986-41.004-20.821-41.004-31.657V91.361  c5.528,4.47,12.858,8.935,22.499,13.217c1.776,0.783,3.562,1.54,5.361,2.264c0.079,0.032,0.156,0.064,0.236,0.096  c1.946,0.778,3.904,1.556,5.886,2.237c0.022,0.008,0.044,0.013,0.066,0.02c4.905,1.71,10.289-1.907,10.52-7.105  c0.152-3.368-1.88-6.586-5.217-7.791C64.09,85.403,49.378,73.79,49.378,63.234c0-10.837,15.328-22.672,41.004-31.658  c29.038-10.163,67.806-15.76,109.163-15.76c24.251,0,47.468,1.903,69.003,5.657c4.304,0.745,8.399-2.131,9.149-6.433  c0.75-4.302-2.131-8.398-6.433-9.148C248.833,1.982,224.703,0,199.545,0c-43.089,0-83.713,5.913-114.387,16.649  C51.404,28.462,33.563,44.571,33.563,63.234v115.979c0,0,0,115.978,0,115.979v115.979c0,24.448,31.222,44.762,85.66,55.732  c4.275,0.862,8.451-1.908,9.314-6.19c0.862-4.281-1.909-8.451-6.19-9.313c-50.407-10.159-72.969-27.524-72.969-40.229v-87.832  c0.136,0.11,0.282,0.22,0.421,0.33c7.694,6.113,16.564,10.635,25.606,14.39c8.517,3.536,17.302,6.322,26.191,8.751  c18.415,5.033,37.459,7.954,56.448,9.717c11.453,1.064,22.959,1.666,34.459,1.838c0.365,0.005,0.726,0.018,1.092,0.023v100.163  c-13.742-0.181-27.28-0.991-40.323-2.416c-4.342-0.47-8.244,2.662-8.72,7.003c-0.473,4.342,2.661,8.245,7.004,8.72  c13.606,1.486,27.721,2.326,42.038,2.509v5.077c0,11.744,9.191,21.351,20.924,21.87l241.06,10.666  c0.328,0.015,0.654,0.022,0.979,0.022c5.828,0,11.314-2.27,15.448-6.393c4.148-4.136,6.432-9.641,6.432-15.499v-232.67  C478.437,245.044,468.066,235.014,455.58,235.571z M199.546,242.447c43.089,0,83.713-5.913,114.387-16.648  c12.259-4.29,24.426-9.604,34.744-17.624c0.206-0.159,0.409-0.319,0.61-0.479c0.14-0.112,0.287-0.222,0.425-0.334v32.894  l-135.194,5.981c-11.733,0.521-20.923,10.127-20.923,21.87v74.452c-0.307-0.004-0.616-0.003-0.923-0.007  c-26.278-0.394-52.572-3.043-78.229-8.83c-8.136-1.836-16.189-4.116-24.061-6.872c-25.676-8.986-41.005-20.821-41.005-31.658v-87.83  c0.138,0.112,0.286,0.222,0.425,0.334c7.36,5.858,15.771,10.286,24.428,13.896c3.603,1.502,7.24,2.917,10.925,4.207  C115.831,236.534,156.455,242.447,199.546,242.447z M462.623,490.108c0,1.626-0.634,3.154-1.784,4.302  c-1.214,1.21-2.847,1.845-4.56,1.769l-241.06-10.666c-3.257-0.144-5.807-2.811-5.807-6.07v-12.955V350.51v-82.402  c0-0.726,0.144-1.415,0.376-2.061c0.028-0.079,0.041-0.164,0.073-0.242c0.044-0.11,0.112-0.206,0.163-0.312  c0.443-0.928,1.095-1.737,1.925-2.33c0.926-0.662,2.046-1.07,3.269-1.125l241.06-10.666c0.095-0.004,0.188-0.006,0.281-0.006  c3.344,0,6.065,2.726,6.065,6.076v232.668H462.623z"/>
<path d="M449.095,256.965l-97.611,4.319c-4.228,0.187-7.559,3.668-7.559,7.9v88.776c0,4.367,3.539,7.908,7.908,7.908h97.611  c4.368,0,7.908-3.541,7.908-7.908v-93.094c0-2.158-0.881-4.222-2.441-5.714C453.351,257.66,451.232,256.865,449.095,256.965z   M441.536,350.052H359.74V276.75l81.796-3.619V350.052z"/>
<path d="M449.444,381.683h-97.611c-4.368,0-7.908,3.541-7.908,7.908v88.776c0,4.231,3.331,7.713,7.559,7.9l97.611,4.319  c0.116,0.005,0.233,0.007,0.349,0.007c2.033,0,3.992-0.783,5.467-2.194c1.559-1.492,2.441-3.556,2.441-5.714v-93.094  C457.351,385.223,453.812,381.683,449.444,381.683z M441.536,474.419L359.74,470.8v-73.302h81.796V474.419z"/>
<path d="M319.853,262.684l-97.611,4.319c-4.228,0.187-7.559,3.668-7.559,7.9v83.057c0,4.367,3.539,7.908,7.908,7.908h97.611  c4.368,0,7.908-3.541,7.908-7.908v-87.375c0-2.158-0.881-4.222-2.441-5.714C324.109,263.379,321.995,262.589,319.853,262.684z   M312.294,350.052h-81.796v-67.584l81.796-3.619V350.052z"/>
<path d="M320.202,381.683h-97.611c-4.368,0-7.908,3.541-7.908,7.908v83.057c0,4.231,3.331,7.713,7.559,7.9l97.611,4.319  c0.116,0.005,0.233,0.007,0.349,0.007c2.033,0,3.992-0.783,5.467-2.194c1.559-1.492,2.441-3.556,2.441-5.714V389.59  C328.109,385.223,324.57,381.683,320.202,381.683z M312.294,468.701l-81.796-3.619v-67.584h81.796V468.701z"/>
<g>
</g>
<g>
</g>
<g>
</g>
<g>
</g>
<g>
</g>
<g>
</g>
<g>
</g>
<g>
</g>
<g>
</g>
<g>
</g>
<g>
</g>
<g>
</g>
<g>
</g>
<g>
</g>
<g>
</g>
</svg>
