<?xml version="1.0" encoding="iso-8859-1"?>
<!-- Generator: Adobe Illustrator 19.0.0, SVG Export Plug-In . SVG Version: 6.00 Build 0)  -->
<svg xmlns="http://www.w3.org/2000/svg" xmlns:xlink="http://www.w3.org/1999/xlink" version="1.1" id="Layer_1" x="0px" y="0px" viewBox="0 0 512 512" style="enable-background:new 0 0 512 512;" xml:space="preserve">
<rect x="37.607" y="129.015" style="fill:#FFFFFF;" width="345.048" height="345.048"/>
<path style="fill:#B4BBCC;" d="M368.294,214.076v225.967c0,11.036-8.947,19.983-19.983,19.983H71.956  c-11.036,0-19.983-8.947-19.983-19.983V163.689c0-11.036,8.947-19.983,19.983-19.983h225.318V99.939H30.09  c-12.086,0-21.884,9.797-21.884,21.884v360.088c0,12.086,9.797,21.884,21.884,21.884h360.088c12.086,0,21.884-9.797,21.884-21.884  V214.076H368.294z"/>
<polygon style="fill:#7DD2F0;" points="276.563,195.934 179.588,292.908 148.788,262.108 120.529,390.652 249.073,362.393   218.273,331.593 314.428,235.438 "/>
<path style="opacity:0.1;enable-background:new    ;" d="M276.563,195.934l-31.134,31.134c4.819,18.898,19.506,33.881,38.223,39.147  l30.776-30.776L276.563,195.934z"/>
<g style="opacity:0.1;">
	<rect x="368.3" y="214.076" width="43.767" height="54.184"/>
	<rect x="243.739" y="99.943" width="53.538" height="43.767"/>
</g>
<path style="fill:#C7CFE2;" d="M481.909,235.438H298.446c-12.086,0-21.884-9.797-21.884-21.884V30.09  c0-12.086,9.797-21.884,21.884-21.884H481.91c12.086,0,21.884,9.797,21.884,21.884v183.463  C503.793,225.64,493.995,235.438,481.909,235.438z"/>
<path style="fill:#FFFFFF;" d="M334.952,191.671h110.451c8.076,0,14.624-6.546,14.624-14.624V66.598  c0-8.076-6.546-14.624-14.624-14.624H334.952c-8.076,0-14.624,6.546-14.624,14.624v110.449  C320.33,185.123,326.876,191.671,334.952,191.671z"/>
<path d="M312.124,66.598v110.449c0,12.587,10.24,22.829,22.829,22.829h110.449c12.589,0,22.83-10.241,22.83-22.829V66.598  c0-12.588-10.241-22.83-22.83-22.83H334.952C322.364,43.768,312.124,54.009,312.124,66.598z M451.82,66.598v110.449  c0,3.537-2.879,6.416-6.417,6.416H334.952c-3.537,0-6.416-2.879-6.416-6.416V66.598c0-3.539,2.879-6.417,6.416-6.417h110.449  C448.942,60.18,451.82,63.059,451.82,66.598z"/>
<path d="M481.91,0.001h-38.43c-4.533,0-8.206,3.674-8.206,8.206s3.673,8.206,8.206,8.206h38.43c7.542,0,13.677,6.135,13.677,13.677  v183.463c0,7.542-6.135,13.677-13.677,13.677h-69.849h-43.767h-53.865h-15.982c-7.542,0-13.677-6.135-13.677-13.677v-17.621v-52.227  V99.938V30.09c0-7.542,6.135-13.677,13.677-13.677h112.208c4.533,0,8.206-3.674,8.206-8.206s-3.673-8.206-8.206-8.206H298.446  c-16.591,0-30.09,13.498-30.09,30.09v61.642H30.09C13.499,91.732,0,105.23,0,121.822V481.91c0,16.592,13.499,30.09,30.09,30.09  h278.88c4.533,0,8.206-3.674,8.206-8.206s-3.673-8.206-8.206-8.206H30.09c-7.542,0-13.677-6.135-13.677-13.677V121.822  c0-7.542,6.135-13.677,13.677-13.677h238.267v27.354H158.935c-4.533,0-8.206,3.674-8.206,8.206s3.673,8.206,8.206,8.206h109.422  v40.621l-88.768,88.768l-24.998-24.998c-2.121-2.121-5.224-2.916-8.107-2.075c-2.878,0.843-5.067,3.186-5.712,6.114l-28.258,128.544  c-0.601,2.734,0.233,5.586,2.211,7.565c1.556,1.556,3.65,2.404,5.804,2.404c0.586,0,1.177-0.062,1.762-0.191l128.543-28.259  c2.929-0.643,5.273-2.834,6.114-5.712c0.843-2.878,0.047-5.986-2.073-8.106l-24.999-24.996l87.95-87.949h42.26v196.399  c0,6.494-5.283,11.777-11.777,11.777H71.957c-6.495,0-11.778-5.283-11.778-11.777V163.689c0-6.494,5.283-11.777,11.778-11.777  h54.152c4.533,0,8.206-3.674,8.206-8.206s-3.673-8.206-8.206-8.206H71.957c-15.544-0.001-28.19,12.645-28.19,28.189v276.354  c0,15.544,12.646,28.189,28.19,28.189h276.354c15.544,0,28.189-12.645,28.189-28.189V243.644h27.354V481.91  c0,7.542-6.135,13.677-13.677,13.677h-48.382c-4.533,0-8.206,3.674-8.206,8.206s3.673,8.206,8.206,8.206h48.382  c16.591,0,30.09-13.498,30.09-30.09V243.644h61.643c16.591,0,30.09-13.498,30.09-30.09V30.09C512,13.499,498.501,0.001,481.91,0.001  z M212.469,325.79c-1.538,1.538-2.403,3.626-2.403,5.802s0.864,4.264,2.404,5.802l20.201,20.2L131.3,379.881l22.285-101.372  l20.2,20.202c3.206,3.205,8.401,3.205,11.606,0l83.039-83.039c0.005,0.08,0.021,0.156,0.027,0.235  c0.592,7.665,4.243,14.977,9.978,20.092c0.079,0.071,0.16,0.139,0.241,0.209c4.417,3.858,10.106,6.436,15.926,7.182  c0.078,0.01,0.153,0.03,0.232,0.038L212.469,325.79z"/>
<g>
</g>
<g>
</g>
<g>
</g>
<g>
</g>
<g>
</g>
<g>
</g>
<g>
</g>
<g>
</g>
<g>
</g>
<g>
</g>
<g>
</g>
<g>
</g>
<g>
</g>
<g>
</g>
<g>
</g>
</svg>
