<?xml version="1.0" encoding="iso-8859-1"?>
<!-- Generator: Adobe Illustrator 19.0.0, SVG Export Plug-In . SVG Version: 6.00 Build 0)  -->
<svg xmlns="http://www.w3.org/2000/svg" xmlns:xlink="http://www.w3.org/1999/xlink" version="1.1" id="Layer_1" x="0px" y="0px" viewBox="0 0 512.001 512.001" style="enable-background:new 0 0 512.001 512.001;" xml:space="preserve">
<path style="fill:#6AB2CC;" d="M396.116,503.845c13.612,0,24.646-11.034,24.646-24.646V92.817c0-13.612-11.034-24.645-24.646-24.645  h-36.011c0.409,2.078,0.628,4.224,0.628,6.423v2.863c0,9.596-7.778,17.374-17.373,17.374H168.642  c-9.595,0-17.373-7.778-17.373-17.374v-2.863c0-2.199,0.22-4.345,0.628-6.423h-36.011c-13.612,0-24.646,11.033-24.646,24.645  v386.382c0,13.612,11.034,24.646,24.646,24.646L396.116,503.845z"/>
<polygon style="fill:#E6E6E6;" points="378.077,454.346 133.926,454.346 133.926,94.832 168.641,94.832 256.001,48.053   343.362,94.832 378.077,94.832 "/>
<path style="opacity:0.1;enable-background:new    ;" d="M360.734,74.595v2.863c0,9.596-7.778,17.374-17.373,17.374h-174.72  c-9.595,0-17.373-7.778-17.373-17.374v-2.863c0-2.199,0.22-4.345,0.628-6.423h-32.93c-0.206,2.114-0.317,4.256-0.317,6.423v2.863  c0,27.567,22.426,49.994,49.993,49.994h174.72c27.567,0,49.993-22.427,49.993-49.994v-2.863c0-2.167-0.112-4.309-0.317-6.423  h-32.931C360.514,70.251,360.734,72.397,360.734,74.595z"/>
<path style="fill:#7DD2F0;" d="M184.352,41.512c-18.271,0-33.084,14.813-33.084,33.084v2.863c0,9.596,7.778,17.374,17.373,17.374  h174.72c9.596,0,17.373-7.778,17.373-17.374v-2.863c0-18.271-14.813-33.084-33.084-33.084H184.352z"/>
<path style="fill:#E6E6E6;" d="M256.001,8.155L256.001,8.155c-20.097,0-36.389,16.291-36.389,36.389v30.324h72.778V44.544  C292.39,24.446,276.099,8.155,256.001,8.155z"/>
<circle cx="256.001" cy="37.513" r="10.541"/>
<path d="M428.918,92.817c0-18.087-14.715-32.8-32.801-32.8h-29.897c-5.903-15.564-20.96-26.661-38.57-26.661h-28.529  C294.145,14.192,276.701,0,256.002,0s-38.144,14.192-43.12,33.357h-28.529c-17.608,0-32.666,11.096-38.57,26.661h-29.897  c-18.088,0-32.802,14.714-32.802,32.8V479.2c0,18.087,14.715,32.801,32.802,32.801h179.328c4.505,0,8.155-3.651,8.155-8.155  s-3.65-8.155-8.155-8.155H115.887c-9.093,0-16.493-7.398-16.493-16.491V92.817c0-9.093,7.399-16.49,16.493-16.49h27.228v1.131  c0,1.32,0.101,2.616,0.295,3.883c0.284,1.853,0.774,3.636,1.434,5.337h-10.918c-4.505,0-8.155,3.651-8.155,8.155v225.373  c0,4.504,3.65,8.155,8.155,8.155s8.155-3.651,8.155-8.155V102.987h227.84v343.205h-227.84v-93.366c0-4.504-3.65-8.155-8.155-8.155  c-4.505,0-8.155,3.651-8.155,8.155v101.521c0,4.504,3.65,8.155,8.155,8.155h244.15c4.505,0,8.155-3.651,8.155-8.155V94.832  c0-4.504-3.65-8.155-8.155-8.155h-10.917c1.112-2.862,1.729-5.968,1.729-9.219v-1.131h27.228c9.093,0,16.491,7.397,16.491,16.49  v53.416c0,4.504,3.65,8.155,8.155,8.155s8.155-3.651,8.155-8.155V92.817H428.918z M227.767,44.544c0-0.388,0.014-0.773,0.029-1.157  c0.018-0.379,0.043-0.777,0.079-1.203c0.001-0.015,0-0.03,0.001-0.046c1.227-14.447,13.368-25.829,28.125-25.829  c14.765,0,26.91,11.394,28.126,25.851c0,0.008,0,0.015,0,0.023c0.035,0.415,0.06,0.804,0.077,1.176  c0.016,0.394,0.03,0.787,0.03,1.184v22.169h-56.468L227.767,44.544L227.767,44.544z M352.579,77.458  c0,5.083-4.135,9.219-9.218,9.219H168.642c-3.812,0-7.09-2.326-8.493-5.633c-1.366-3.224-0.918-7.848-0.262-11.216  c2.231-11.472,12.351-20.16,24.466-20.16h27.105V74.87c0,4.504,3.65,8.155,8.155,8.155h72.779c4.505,0,8.155-3.651,8.155-8.155  V49.667h27.105c12.103,0,22.215,8.671,24.46,20.127C352.607,72.33,352.579,74.887,352.579,77.458z"/>
<path d="M420.763,170.698c-4.505,0-8.155,3.651-8.155,8.155v300.346c0,9.093-7.398,16.491-16.491,16.491h-68.283  c-4.505,0-8.155,3.651-8.155,8.155s3.65,8.155,8.155,8.155h68.283c18.087,0,32.801-14.715,32.801-32.801V178.853  C428.918,174.349,425.267,170.698,420.763,170.698z"/>
<path d="M175.272,169.557h161.459c4.505,0,8.155-3.651,8.155-8.155s-3.65-8.155-8.155-8.155H175.272  c-4.505,0-8.155,3.651-8.155,8.155S170.767,169.557,175.272,169.557z"/>
<path d="M175.272,210.151h161.459c4.505,0,8.155-3.651,8.155-8.155s-3.65-8.155-8.155-8.155H175.272  c-4.505,0-8.155,3.651-8.155,8.155S170.767,210.151,175.272,210.151z"/>
<path d="M175.272,250.744h161.459c4.505,0,8.155-3.651,8.155-8.155s-3.65-8.155-8.155-8.155H175.272  c-4.505,0-8.155,3.651-8.155,8.155S170.767,250.744,175.272,250.744z"/>
<path d="M175.272,291.337h161.459c4.505,0,8.155-3.651,8.155-8.155s-3.65-8.155-8.155-8.155H175.272  c-4.505,0-8.155,3.651-8.155,8.155S170.767,291.337,175.272,291.337z"/>
<path d="M336.731,386.66h-80.729c-4.505,0-8.155,3.651-8.155,8.155s3.65,8.155,8.155,8.155h80.729c4.505,0,8.155-3.651,8.155-8.155  S341.236,386.66,336.731,386.66z"/>
<g>
</g>
<g>
</g>
<g>
</g>
<g>
</g>
<g>
</g>
<g>
</g>
<g>
</g>
<g>
</g>
<g>
</g>
<g>
</g>
<g>
</g>
<g>
</g>
<g>
</g>
<g>
</g>
<g>
</g>
</svg>
