<?xml version="1.0" encoding="iso-8859-1"?>
<!-- Generator: Adobe Illustrator 19.0.0, SVG Export Plug-In . SVG Version: 6.00 Build 0)  -->
<svg xmlns="http://www.w3.org/2000/svg" xmlns:xlink="http://www.w3.org/1999/xlink" version="1.1" id="Layer_1" x="0px" y="0px" viewBox="0 0 512 512" style="enable-background:new 0 0 512 512;" xml:space="preserve">
<path style="fill:#E6E6E6;" d="M391.428,8.404H120.572c-17.327,0-31.374,14.046-31.374,31.374v432.444  c0,17.327,14.046,31.374,31.374,31.374h270.856c17.327,0,31.374-14.046,31.374-31.374V39.778  C422.802,22.451,408.755,8.404,391.428,8.404z"/>
<path style="fill:#515262;" d="M367.311,42.021H144.69c-12.081,0-21.875,9.793-21.875,21.875v384.21  c0,12.081,9.794,21.875,21.875,21.875h222.621c12.081,0,21.875-9.793,21.875-21.875V63.895  C389.185,51.814,379.391,42.021,367.311,42.021z"/>
<path style="fill:#E6E6E6;" d="M277.777,354.497v-44.606c5.188,1.765,10.748,2.727,16.534,2.727c28.372,0,51.371-23,51.371-51.371  c0-23.371-15.613-43.084-36.973-49.311v-13.13c0-29.11-23.598-52.709-52.709-52.709s-52.709,23.598-52.709,52.709v13.13  c-21.36,6.227-36.973,25.94-36.973,49.311c0,28.372,23,51.371,51.371,51.371c5.785,0,11.346-0.961,16.534-2.727v44.606H277.777z"/>
<path style="opacity:0.1;enable-background:new    ;" d="M156.432,472.222V39.778c0-17.327,14.046-31.374,31.374-31.374h-67.234  c-17.327,0-31.374,14.046-31.374,31.374v432.444c0,17.327,14.046,31.374,31.374,31.374h67.234  C170.479,503.596,156.432,489.549,156.432,472.222z"/>
<path d="M277.777,362.902h-43.553c-4.643,0-8.404-3.763-8.404-8.404v-34.026c-2.685,0.366-5.398,0.551-8.13,0.551  c-32.96,0-59.777-26.815-59.777-59.776c0-24.24,14.919-46.118,36.973-55.252v-7.19c0-33.698,27.416-61.114,61.114-61.114  s61.114,27.415,61.114,61.114v7.19c22.054,9.133,36.973,31.011,36.973,55.252c0,32.96-26.816,59.776-59.777,59.776  c-2.732,0-5.445-0.185-8.13-0.551v34.027C286.181,359.14,282.419,362.902,277.777,362.902z M242.628,346.093h26.745V309.89  c0-2.711,1.308-5.254,3.511-6.833c2.203-1.578,5.034-1.998,7.599-1.124c4.449,1.513,9.101,2.279,13.829,2.279  c23.693,0,42.968-19.275,42.968-42.967c0-18.975-12.716-35.934-30.922-41.242c-3.586-1.045-6.051-4.333-6.051-8.068v-13.13  c0-24.43-19.874-44.305-44.305-44.305s-44.305,19.874-44.305,44.305v13.13c0,3.735-2.465,7.023-6.051,8.068  c-18.206,5.308-30.922,22.268-30.922,41.242c0,23.692,19.275,42.967,42.968,42.967c4.729,0,9.381-0.768,13.828-2.279  c2.568-0.874,5.396-0.454,7.6,1.124c2.203,1.578,3.511,4.123,3.511,6.833v36.203H242.628z"/>
<path d="M391.428,512H212.48c-4.643,0-8.404-3.763-8.404-8.404c0-4.641,3.762-8.404,8.404-8.404h178.948  c12.666,0,22.969-10.304,22.969-22.969V39.778c0-12.666-10.304-22.969-22.969-22.969H120.572c-12.666,0-22.969,10.304-22.969,22.969  v61.817c0,4.641-3.762,8.404-8.404,8.404c-4.643,0-8.404-3.763-8.404-8.404V39.778C80.794,17.844,98.639,0,120.572,0h270.856  c21.933,0,39.778,17.844,39.778,39.778v432.444C431.206,494.156,413.361,512,391.428,512z M178.863,512h-58.291  c-21.933,0-39.778-17.844-39.778-39.778V133.547c0-4.641,3.762-8.404,8.404-8.404c4.643,0,8.404,3.763,8.404,8.404v338.675  c0,12.666,10.304,22.969,22.969,22.969h58.291c4.643,0,8.404,3.763,8.404,8.404C187.267,508.237,183.504,512,178.863,512z"/>
<path d="M367.311,478.384H144.69c-16.695,0-30.279-13.582-30.279-30.279V63.895c0-16.695,13.582-30.279,30.279-30.279h152.544  c4.643,0,8.404,3.763,8.404,8.404s-3.762,8.404-8.404,8.404H144.69c-7.427,0-13.47,6.043-13.47,13.47v384.21  c0,7.427,6.043,13.47,13.47,13.47h222.621c7.427,0,13.47-6.043,13.47-13.47V63.895c0-7.427-6.043-13.47-13.47-13.47h-36.46  c-4.643,0-8.404-3.763-8.404-8.404s3.762-8.404,8.404-8.404h36.46c16.695,0,30.279,13.582,30.279,30.279v384.21  C397.589,464.802,384.006,478.384,367.311,478.384z"/>
<g>
</g>
<g>
</g>
<g>
</g>
<g>
</g>
<g>
</g>
<g>
</g>
<g>
</g>
<g>
</g>
<g>
</g>
<g>
</g>
<g>
</g>
<g>
</g>
<g>
</g>
<g>
</g>
<g>
</g>
</svg>
