<?xml version="1.0" encoding="iso-8859-1"?>
<!-- Generator: Adobe Illustrator 19.0.0, SVG Export Plug-In . SVG Version: 6.00 Build 0)  -->
<svg xmlns="http://www.w3.org/2000/svg" xmlns:xlink="http://www.w3.org/1999/xlink" version="1.1" id="Layer_1" x="0px" y="0px" viewBox="0 0 512 512" style="enable-background:new 0 0 512 512;" xml:space="preserve">
<circle style="fill:#7DD2F0;" cx="255.997" cy="255.997" r="247.512"/>
<path style="opacity:0.1;enable-background:new    ;" d="M31.113,278.627c0-136.698,110.816-247.514,247.515-247.514  c62.591,0,119.745,23.244,163.332,61.556C396.597,41.065,330.107,8.485,256.001,8.485C119.302,8.485,8.485,119.302,8.485,255.999  c0,74.108,32.579,140.598,84.184,185.959C54.357,398.373,31.113,341.218,31.113,278.627z"/>
<path style="fill:#FFFFFF;" d="M256.001,441.289c-102.169,0-185.288-83.12-185.288-185.288S153.831,70.711,256.001,70.711  s185.288,83.12,185.288,185.288S358.169,441.289,256.001,441.289z"/>
<path style="opacity:0.1;enable-background:new    ;" d="M93.339,278.627c0-102.168,83.12-185.288,185.289-185.288  c45.337,0,86.914,16.377,119.15,43.512c-34.017-40.412-84.946-66.139-141.778-66.139c-102.169,0-185.289,83.12-185.289,185.288  c0,56.833,25.728,107.762,66.139,141.778C109.715,365.541,93.339,323.964,93.339,278.627z"/>
<path d="M379.965,478.762c1.444,0,2.909-0.37,4.248-1.146c38.157-22.121,70.155-53.902,92.535-91.909  C499.811,346.546,512,301.694,512,255.999c0-68.379-26.628-132.668-74.98-181.02C388.667,26.629,324.38,0,255.999,0  c-49.149,0-96.898,13.969-138.081,40.397c-3.944,2.531-5.089,7.779-2.559,11.724c2.531,3.945,7.78,5.09,11.724,2.558  c38.444-24.67,83.023-37.709,128.916-37.709c131.801,0,239.029,107.228,239.029,239.029c0,42.668-11.378,84.542-32.905,121.097  c-20.903,35.496-50.788,65.178-86.424,85.839c-4.054,2.35-5.436,7.543-3.085,11.597  C374.189,477.246,377.038,478.762,379.965,478.762z"/>
<path d="M255.999,512c32.605,0,64.382-6.055,94.449-17.996c4.356-1.73,6.483-6.663,4.754-11.019  c-1.731-4.355-6.665-6.484-11.019-4.754c-28.064,11.146-57.733,16.798-88.184,16.798c-131.801,0-239.029-107.228-239.029-239.03  c0-69.849,30.449-136.016,83.541-181.534c3.558-3.05,3.969-8.407,0.919-11.965c-3.049-3.557-8.407-3.969-11.964-0.919  C32.609,110.329,0,181.191,0,255.999c0,68.379,26.628,132.668,74.98,181.02C123.333,485.371,187.62,512,255.999,512z"/>
<path d="M393.02,393.018c0.308-0.308,0.578-0.638,0.828-0.979c34.558-35.013,55.926-83.075,55.926-136.04  s-21.368-101.026-55.926-136.039c-0.251-0.341-0.52-0.671-0.828-0.979s-0.638-0.578-0.979-0.828  c-35.014-34.559-83.076-55.927-136.042-55.927s-101.028,21.368-136.042,55.927c-0.341,0.25-0.671,0.519-0.979,0.827  c-0.308,0.308-0.578,0.639-0.828,0.979c-34.557,35.014-55.925,83.076-55.925,136.04s21.368,101.027,55.926,136.04  c0.25,0.341,0.52,0.671,0.828,0.979s0.639,0.578,0.979,0.828c35.014,34.558,83.075,55.926,136.04,55.926  s101.028-21.368,136.042-55.927C392.382,393.595,392.712,393.326,393.02,393.018z M345.943,357.943l28.875,28.874  c-29.459,26.78-67.968,43.766-110.332,45.778v-40.912c0-4.686-3.798-8.485-8.485-8.485c-4.687,0-8.485,3.799-8.485,8.485v40.912  c-42.365-2.012-80.873-18.998-110.332-45.778l28.875-28.874c3.314-3.314,3.314-8.687,0-11.999c-3.314-3.314-8.686-3.314-12.001,0  l-28.874,28.874c-26.78-29.459-43.766-67.968-45.778-110.332h40.911c4.687,0,8.485-3.799,8.485-8.485  c0-4.686-3.798-8.485-8.485-8.485H79.406c2.012-42.365,18.998-80.873,45.778-110.332l28.874,28.874  c1.657,1.656,3.83,2.486,6.001,2.486s4.343-0.828,6.001-2.486c3.314-3.314,3.314-8.687,0-11.999l-28.875-28.874  c29.459-26.78,67.968-43.766,110.332-45.778v40.912c0,4.686,3.798,8.485,8.485,8.485c4.687,0,8.485-3.799,8.485-8.485V79.405  c42.365,2.012,80.873,18.998,110.332,45.778l-28.875,28.874c-3.314,3.314-3.314,8.687,0,11.999c1.657,1.657,3.829,2.486,6.001,2.486  c2.171,0,4.343-0.828,6.001-2.486l28.874-28.874c26.78,29.459,43.766,67.968,45.778,110.332h-40.911  c-4.687,0-8.485,3.799-8.485,8.485c0,4.686,3.798,8.485,8.485,8.485h40.911c-2.012,42.365-18.998,80.873-45.778,110.332  l-28.874-28.874c-3.315-3.314-8.687-3.314-12.001,0C342.629,349.257,342.629,354.63,345.943,357.943z"/>
<path style="fill:#515262;" d="M272.97,248.97v-78.399c0-9.372-7.598-16.971-16.971-16.971s-16.971,7.598-16.971,16.971v85.429  c0,4.502,1.789,8.818,4.971,11.999l45.864,45.864c3.314,3.314,7.657,4.971,11.999,4.971c4.342,0,8.687-1.657,11.999-4.971  c6.628-6.626,6.628-17.372,0-24L272.97,248.97z"/>
<path d="M301.864,327.32c-6.8,0-13.192-2.647-18-7.456L238,274.001c-4.808-4.807-7.456-11.2-7.456-18v-85.429  c0-14.037,11.419-25.456,25.456-25.456c14.037,0,25.456,11.419,25.456,25.456v74.885l38.408,38.408  c4.808,4.807,7.456,11.199,7.456,18c0,6.801-2.647,13.193-7.457,18C315.056,324.672,308.663,327.32,301.864,327.32z   M255.999,162.086c-4.679,0-8.485,3.806-8.485,8.485v85.429c0,2.266,0.882,4.398,2.484,6l45.865,45.865  c1.603,1.603,3.734,2.486,6,2.486c2.266,0,4.398-0.882,6-2.486c1.603-1.603,2.486-3.734,2.486-6s-0.882-4.397-2.485-6  l-43.379-43.379v-81.914C264.485,165.892,260.679,162.086,255.999,162.086z"/>
<g>
</g>
<g>
</g>
<g>
</g>
<g>
</g>
<g>
</g>
<g>
</g>
<g>
</g>
<g>
</g>
<g>
</g>
<g>
</g>
<g>
</g>
<g>
</g>
<g>
</g>
<g>
</g>
<g>
</g>
</svg>
