<?xml version="1.0" encoding="iso-8859-1"?>
<!-- Generator: Adobe Illustrator 19.0.0, SVG Export Plug-In . SVG Version: 6.00 Build 0)  -->
<svg xmlns="http://www.w3.org/2000/svg" xmlns:xlink="http://www.w3.org/1999/xlink" version="1.1" id="Layer_1" x="0px" y="0px" viewBox="0 0 512.001 512.001" style="enable-background:new 0 0 512.001 512.001;" xml:space="preserve">
<rect x="27.747" y="153.854" style="fill:#FFFFFF;" width="330.403" height="330.403"/>
<path style="fill:#B4BBCC;" d="M358.148,503.676H27.747c-10.727,0-19.423-8.696-19.423-19.423V153.852  c0-10.727,8.696-19.423,19.423-19.423h330.401c10.727,0,19.423,8.696,19.423,19.423v330.401  C377.571,494.98,368.875,503.676,358.148,503.676z M47.17,464.83h291.555V173.275H47.17V464.83z"/>
<path style="fill:#7DD2F0;" d="M284.144,250.68c-12.26,0-22.198-9.938-22.198-22.198v-17.874l-98.367,98.367l-31.242-31.242  l-28.665,130.39l130.39-28.665l-31.242-31.241l97.536-97.536h-16.211V250.68z"/>
<path style="opacity:0.1;enable-background:new    ;" d="M261.946,228.483v-17.874l-81.251,81.251  c4.499,19.414,19.745,34.746,39.113,39.368l80.547-80.547h-16.211C271.884,250.68,261.946,240.742,261.946,228.483z"/>
<path style="opacity:0.1;enable-background:new    ;" d="M358.148,134.429H179.324v38.846h159.401v159.401h13.607  c1.952,0.221,3.898,0.332,5.816,0.332s3.864-0.111,5.816-0.332h13.607V153.852C377.571,143.125,368.875,134.429,358.148,134.429z"/>
<rect x="232.045" y="27.748" style="fill:#FFFFFF;" width="252.211" height="252.211"/>
<path style="fill:#C7CFE2;" d="M484.253,8.325H232.044c-10.727,0-19.423,8.696-19.423,19.423v252.208  c0,10.727,8.696,19.423,19.423,19.423h122.603c1.138,0.208,2.304,0.332,3.502,0.332s2.364-0.124,3.502-0.332h122.602  c10.727,0,19.423-8.696,19.423-19.423V27.748C503.676,17.021,494.98,8.325,484.253,8.325z M251.467,130.586h87.258v46.533h-87.258  L251.467,130.586L251.467,130.586z M377.571,130.586h87.258v46.533h-87.258V130.586z M464.83,91.74h-87.258V47.171h87.258V91.74z   M338.725,47.171V91.74h-87.258V47.171H338.725z M251.467,215.965h87.258v44.569h-87.258L251.467,215.965L251.467,215.965z   M377.571,260.534v-44.569h87.258v44.569H377.571z"/>
<path d="M220.945,173.275c0-4.597-3.727-8.324-8.324-8.324H47.17c-4.597,0-8.324,3.727-8.324,8.324V464.83  c0,4.597,3.727,8.324,8.324,8.324h291.555c4.597,0,8.324-3.727,8.324-8.324V299.38c0-4.597-3.727-8.324-8.324-8.324h-87.069h-19.613  c-2.965,0-5.751-1.155-7.848-3.251c-2.097-2.097-3.251-4.884-3.251-7.848v-20.021V173.275z M215.989,302.581  c4.421,3.129,9.684,4.917,15.096,5.1c0.16,0.006,0.32,0.017,0.479,0.02l-34.631,34.631c-1.562,1.561-2.438,3.678-2.438,5.886  c0,2.208,0.877,4.325,2.438,5.886l20.491,20.49l-102.827,22.606l22.606-102.827l20.491,20.491c3.25,3.251,8.521,3.251,11.771,0  l34.832-34.831c0.007,2.836,0.426,5.755,1.331,8.444C207.527,294.118,211.118,299.134,215.989,302.581z M330.401,456.506H55.494  V181.6h148.802v74.888l-40.717,40.717l-25.357-25.357c-2.151-2.151-5.304-2.956-8.222-2.104c-2.919,0.855-5.141,3.232-5.794,6.202  l-28.665,130.39c-0.609,2.774,0.236,5.665,2.244,7.674c1.578,1.578,3.703,2.438,5.886,2.438c0.595,0,1.194-0.064,1.787-0.194  l130.389-28.665c2.971-0.653,5.349-2.875,6.202-5.794c0.854-2.919,0.047-6.072-2.104-8.222l-25.355-25.355l40.512-40.512h75.296  v148.801H330.401z"/>
<path d="M377.571,100.064h87.258c4.597,0,8.324-3.727,8.324-8.324V47.171c0-4.597-3.727-8.324-8.324-8.324h-87.258  c-4.597,0-8.324,3.727-8.324,8.324V91.74C369.247,96.337,372.974,100.064,377.571,100.064z M385.895,55.495h70.61v27.92h-70.61  V55.495z"/>
<path d="M262.638,495.352H27.747c-6.12,0-11.099-4.979-11.099-11.099V153.852c0-6.12,4.979-11.099,11.099-11.099H77.18  c4.597,0,8.324-3.727,8.324-8.324c0-4.597-3.727-8.324-8.324-8.324H27.747C12.447,126.105,0,138.553,0,153.852v330.401  c0,15.3,12.447,27.747,27.747,27.747h234.89c4.597,0,8.324-3.727,8.324-8.324S267.235,495.352,262.638,495.352z"/>
<path d="M484.253,0.001H232.044c-15.3,0-27.747,12.447-27.747,27.747v98.357h-93.82c-4.597,0-8.324,3.727-8.324,8.324  c0,4.597,3.727,8.324,8.324,8.324h102.145c4.597,0,8.324-3.727,8.324-8.324V27.748c0-6.12,4.979-11.099,11.099-11.099h252.209  c6.12,0,11.099,4.979,11.099,11.099v252.208c0,6.12-4.979,11.099-11.099,11.099H377.572c-4.597,0-8.324,3.727-8.324,8.324v184.874  c0,6.12-4.979,11.099-11.099,11.099h-62.214c-4.597,0-8.324,3.727-8.324,8.324s3.727,8.324,8.324,8.324h62.214  c15.3,0,27.747-12.447,27.747-27.747v-176.55h98.357c15.3,0,27.747-12.447,27.747-27.747V27.748  C512,12.448,499.553,0.001,484.253,0.001z"/>
<path d="M369.247,260.533c0,4.597,3.727,8.324,8.324,8.324h87.258c4.597,0,8.324-3.727,8.324-8.324v-44.569  c0-4.597-3.727-8.324-8.324-8.324h-87.258c-4.597,0-8.324,3.727-8.324,8.324V260.533z M385.895,224.289h70.61v27.92h-70.61V224.289z  "/>
<path d="M243.142,177.119c0,4.597,3.727,8.324,8.324,8.324h87.258c4.597,0,8.324-3.727,8.324-8.324v-46.533  c0-4.597-3.727-8.324-8.324-8.324h-87.258c-4.597,0-8.324,3.727-8.324,8.324L243.142,177.119L243.142,177.119z M259.791,138.91  h70.61v29.885h-70.61V138.91L259.791,138.91z"/>
<path d="M243.142,260.533c0,4.597,3.727,8.324,8.324,8.324h87.258c4.597,0,8.324-3.727,8.324-8.324v-44.569  c0-4.597-3.727-8.324-8.324-8.324h-87.258c-4.597,0-8.324,3.727-8.324,8.324L243.142,260.533L243.142,260.533z M259.791,224.289  h70.61v27.92h-70.61V224.289L259.791,224.289z"/>
<path d="M369.247,177.119c0,4.597,3.727,8.324,8.324,8.324h87.258c4.597,0,8.324-3.727,8.324-8.324v-46.533  c0-4.597-3.727-8.324-8.324-8.324h-87.258c-4.597,0-8.324,3.727-8.324,8.324V177.119z M385.895,138.91h70.61v29.885h-70.61V138.91z"/>
<path d="M251.467,100.064h87.258c4.597,0,8.324-3.727,8.324-8.324V47.171c0-4.597-3.727-8.324-8.324-8.324h-87.258  c-4.597,0-8.324,3.727-8.324,8.324V91.74C243.142,96.337,246.87,100.064,251.467,100.064z M259.791,55.495h70.61v27.92h-70.61  V55.495L259.791,55.495z"/>
<g>
</g>
<g>
</g>
<g>
</g>
<g>
</g>
<g>
</g>
<g>
</g>
<g>
</g>
<g>
</g>
<g>
</g>
<g>
</g>
<g>
</g>
<g>
</g>
<g>
</g>
<g>
</g>
<g>
</g>
</svg>
