<?xml version="1.0" encoding="iso-8859-1"?>
<!-- Generator: Adobe Illustrator 19.0.0, SVG Export Plug-In . SVG Version: 6.00 Build 0)  -->
<svg xmlns="http://www.w3.org/2000/svg" xmlns:xlink="http://www.w3.org/1999/xlink" version="1.1" id="Layer_1" x="0px" y="0px" viewBox="0 0 512 512" style="enable-background:new 0 0 512 512;" xml:space="preserve">
<path style="fill:#FFD782;" d="M164.611,52.008c8.726,30.748,0.993,65.184-23.214,89.391s-58.641,31.939-89.391,23.214  L9.036,207.583l295.381,295.381l42.972-42.972c-8.726-30.749-0.993-65.185,23.214-89.391c24.206-24.206,58.642-31.939,89.391-23.214  l42.972-42.972L207.583,9.036L164.611,52.008z"/>
<rect x="188.026" y="169.399" transform="matrix(-0.7071 0.7071 -0.7071 -0.7071 663.3517 274.7582)" style="fill:#FF6465;" width="173.49" height="210.73"/>
<polygon style="fill:#FFFFFF;" points="233.783,233.783 270.239,246.145 301.092,223.122 300.599,261.614 332.03,283.841   295.269,295.269 283.841,332.03 261.615,300.599 223.121,301.092 246.145,270.239 "/>
<g style="opacity:0.1;">
	<path d="M71.596,167.913c-6.605-0.388-13.177-1.481-19.589-3.301L9.036,207.583l295.381,295.381l42.972-42.972   c-1.819-6.411-2.912-12.983-3.301-19.589L71.596,167.913z"/>
</g>
<path d="M509.353,298.028L275.837,64.511c-0.002-0.002-0.004-0.004-0.006-0.006c-0.002-0.002-0.004-0.004-0.006-0.006L213.972,2.647  c-3.528-3.53-9.249-3.529-12.778,0l-42.972,42.972c-2.317,2.316-3.198,5.705-2.304,8.857c8.13,28.648,0.117,59.507-20.911,80.534  c-15.5,15.5-36.11,24.037-58.033,24.037c-7.622,0-15.191-1.052-22.501-3.126c-3.148-0.894-6.54-0.013-8.857,2.304L2.647,201.194  c-3.529,3.529-3.529,9.25,0,12.778l61.852,61.852c0.002,0.002,0.004,0.004,0.006,0.006s0.004,0.004,0.006,0.006l233.517,233.517  c1.764,1.765,4.077,2.647,6.389,2.647c2.312,0,4.625-0.882,6.389-2.647l42.972-42.972c2.317-2.316,3.198-5.705,2.304-8.857  c-8.13-28.647-0.118-59.505,20.911-80.534c15.5-15.5,36.11-24.037,58.033-24.037c7.622,0,15.191,1.052,22.501,3.126  c3.153,0.896,6.541,0.014,8.857-2.304l42.972-42.972C512.882,307.278,512.882,301.557,509.353,298.028z M457.238,337.365  c-7.277-1.648-14.725-2.482-22.213-2.482c-26.75,0-51.898,10.417-70.811,29.33c-24.384,24.383-34.425,59.594-26.849,93.025  l-32.948,32.947L83.674,269.442l8.519-8.519c3.529-3.529,3.529-9.25,0-12.778c-3.529-3.529-9.25-3.529-12.778,0l-8.519,8.519  l-49.08-49.08l32.948-32.948c7.277,1.648,14.725,2.482,22.213,2.482c26.75,0,51.899-10.417,70.811-29.33  c24.383-24.383,34.425-59.593,26.849-93.024l32.948-32.948l49.08,49.08l-8.519,8.519c-3.529,3.529-3.529,9.25,0,12.778  c1.764,1.764,4.077,2.647,6.389,2.647s4.625-0.882,6.389-2.647l8.519-8.519l220.743,220.743L457.238,337.365z"/>
<path d="M267.994,132.541c-3.529-3.529-9.25-3.529-12.778,0L132.541,255.215c-3.529,3.529-3.529,9.25,0,12.778l149.013,149.013  c1.764,1.764,4.077,2.647,6.389,2.647s4.625-0.882,6.389-2.647l122.674-122.674c3.529-3.529,3.529-9.25,0-12.778L267.994,132.541z   M287.942,397.839L151.709,261.604l109.896-109.896l136.233,136.235L287.942,397.839z"/>
<path d="M227.393,227.393c-2.432,2.432-3.272,6.034-2.167,9.291l10.837,31.957l-20.182,27.045c-2.058,2.757-2.371,6.442-0.81,9.506  s4.74,4.978,8.166,4.934l33.743-0.431l19.484,27.553c1.71,2.417,4.472,3.818,7.377,3.818c0.469,0,0.942-0.036,1.414-0.111  c3.398-0.539,6.194-2.958,7.216-6.243l10.017-32.225l32.225-10.017c3.285-1.022,5.705-3.818,6.243-7.216s-0.9-6.805-3.707-8.791  l-27.553-19.484l0.431-33.743c0.045-3.439-1.869-6.605-4.934-8.166c-3.064-1.563-6.751-1.248-9.506,0.81l-27.045,20.182  l-31.957-10.837C233.427,224.122,229.825,224.96,227.393,227.393z M254.702,267.337l-6.483-19.118l19.118,6.483  c2.816,0.954,5.923,0.464,8.306-1.316l16.179-12.073l-0.258,20.185c-0.037,2.975,1.39,5.776,3.818,7.494l16.482,11.655  l-19.277,5.992c-2.84,0.883-5.064,3.107-5.947,5.947l-5.992,19.277l-11.655-16.482c-1.695-2.396-4.447-3.818-7.377-3.818  c-0.039,0-0.077,0-0.117,0l-20.185,0.258l12.073-16.179C255.166,273.26,255.657,270.154,254.702,267.337z"/>
<path d="M187.041,162.332c2.312,0,4.625-0.882,6.389-2.647l33.745-33.745c3.529-3.529,3.529-9.25,0-12.778  c-3.529-3.529-9.25-3.529-12.778,0l-33.745,33.745c-3.529,3.529-3.529,9.25,0,12.778  C182.416,161.449,184.729,162.332,187.041,162.332z"/>
<path d="M159.685,180.652c-3.529-3.529-9.251-3.529-12.778,0l-33.745,33.745c-3.529,3.529-3.529,9.25,0,12.778  c1.764,1.764,4.077,2.647,6.389,2.647c2.312,0,4.625-0.882,6.389-2.647l33.745-33.745  C163.214,189.903,163.214,184.181,159.685,180.652z"/>
<g>
</g>
<g>
</g>
<g>
</g>
<g>
</g>
<g>
</g>
<g>
</g>
<g>
</g>
<g>
</g>
<g>
</g>
<g>
</g>
<g>
</g>
<g>
</g>
<g>
</g>
<g>
</g>
<g>
</g>
</svg>
