<?xml version="1.0" encoding="iso-8859-1"?>
<!-- Generator: Adobe Illustrator 19.0.0, SVG Export Plug-In . SVG Version: 6.00 Build 0)  -->
<svg xmlns="http://www.w3.org/2000/svg" xmlns:xlink="http://www.w3.org/1999/xlink" version="1.1" id="Layer_1" x="0px" y="0px" viewBox="0 0 511.998 511.998" style="enable-background:new 0 0 511.998 511.998;" xml:space="preserve">
<polygon style="fill:#515262;" points="208.886,503.367 208.886,391.208 142.821,320.539 142.821,168.257 369.177,168.257   369.177,320.539 303.112,391.208 303.112,503.367 "/>
<g>
	<path style="fill:#B4BBCC;" d="M185.277,8.633L185.277,8.633c-15.139,0-27.411,12.272-27.411,27.411v132.213h54.822V36.044   C212.688,20.904,200.415,8.633,185.277,8.633z"/>
	<path style="fill:#B4BBCC;" d="M326.721,8.633L326.721,8.633c15.139,0,27.411,12.272,27.411,27.411v132.213H299.31V36.044   C299.31,20.904,311.583,8.633,326.721,8.633z"/>
</g>
<rect x="299.305" y="95.614" style="opacity:0.1;enable-background:new    ;" width="54.822" height="72.64"/>
<rect x="157.87" y="95.614" style="opacity:0.1;enable-background:new    ;" width="54.822" height="72.64"/>
<rect x="142.815" y="168.253" style="opacity:0.1;enable-background:new    ;" width="226.356" height="72.64"/>
<path style="fill:#C7CFE2;" d="M377.507,130.147H134.491c-14.203,0-25.718,11.515-25.718,25.718v24.783  c0,14.203,11.515,25.718,25.718,25.718h243.016c14.203,0,25.718-11.515,25.718-25.718v-24.783  C403.225,141.662,391.711,130.147,377.507,130.147z"/>
<path d="M296.805,385.313c-1.495,1.6-2.326,3.706-2.326,5.895v37c0,4.767,3.864,8.633,8.633,8.633s8.633-3.865,8.633-8.633v-33.593  l63.739-68.18c1.495-1.6,2.326-3.706,2.326-5.895V214.992c18.802-0.163,34.048-15.504,34.048-34.344v-24.782  c0-18.941-15.41-34.35-34.35-34.35h-14.742V36.042C362.766,16.168,346.597,0,326.721,0c-19.876,0-36.044,16.168-36.044,36.042  v85.471H221.32V36.042C221.32,16.168,205.151,0,185.277,0s-36.044,16.168-36.044,36.042v85.471h-14.742  c-18.941,0-34.35,15.41-34.35,34.35v24.782c0,18.84,15.246,34.179,34.048,34.344v105.548c0,2.189,0.832,4.296,2.326,5.895  l63.739,68.18v108.752c0,4.767,3.864,8.633,8.633,8.633h94.224c4.769,0,8.633-3.865,8.633-8.633v-40.63  c0-4.767-3.864-8.633-8.633-8.633c-4.769,0-8.633,3.865-8.633,8.633v31.998h-76.959V391.206c0-2.189-0.832-4.296-2.326-5.895  l-63.739-68.18V214.997h37.6c4.769,0,8.633-3.865,8.633-8.633c0-4.767-3.864-8.633-8.633-8.633h-54.562  c-9.421,0-17.085-7.665-17.085-17.085v-24.782c0-9.421,7.665-17.085,17.085-17.085h243.017c9.421,0,17.085,7.665,17.085,17.085  v24.782c0,9.421-7.665,17.085-17.085,17.085H223.584c-4.769,0-8.633,3.865-8.633,8.633c0,4.767,3.864,8.633,8.633,8.633h136.961  v102.134L296.805,385.313z M204.055,121.515h-37.558V36.042c0-10.354,8.424-18.777,18.779-18.777s18.779,8.424,18.779,18.777v85.472  H204.055z M345.501,121.515h-37.558V36.042c0-10.354,8.424-18.777,18.779-18.777c10.354,0,18.779,8.424,18.779,18.777v85.472  H345.501z"/>
<g>
</g>
<g>
</g>
<g>
</g>
<g>
</g>
<g>
</g>
<g>
</g>
<g>
</g>
<g>
</g>
<g>
</g>
<g>
</g>
<g>
</g>
<g>
</g>
<g>
</g>
<g>
</g>
<g>
</g>
</svg>
