<?xml version="1.0" encoding="iso-8859-1"?>
<!-- Generator: Adobe Illustrator 19.0.0, SVG Export Plug-In . SVG Version: 6.00 Build 0)  -->
<svg xmlns="http://www.w3.org/2000/svg" xmlns:xlink="http://www.w3.org/1999/xlink" version="1.1" id="Layer_1" x="0px" y="0px" viewBox="0 0 512 512" style="enable-background:new 0 0 512 512;" xml:space="preserve">
<path style="fill:#353640;" d="M96.688,415.313l0.53,52.444L66.275,498.7c-5.145,5.145-13.486,5.144-18.63,0l-34.343-34.343  c-5.144-5.144-5.144-13.485,0-18.63l30.943-30.943L96.688,415.313z"/>
<path style="opacity:0.1;enable-background:new    ;" d="M48.91,481.335l30.943-30.943l17.191,0.174l-0.356-35.252l-52.444-0.53  l-30.943,30.943c-5.145,5.145-5.144,13.486,0,18.63L47.644,498.7c0.214,0.214,0.441,0.405,0.665,0.6  C43.788,494.126,43.978,486.266,48.91,481.335z"/>
<path style="fill:#515262;" d="M233.816,194.388l62.538,21.259l21.259,62.538c-2.898,2.305-5.902,4.688-9.042,7.172  c-77.593,61.377-184.138,151.71-211.353,182.399l-52.974-52.974c30.69-27.215,121.021-133.76,182.401-211.352  C229.127,200.29,231.511,197.287,233.816,194.388z"/>
<path style="opacity:0.1;enable-background:new    ;" d="M262.253,239.039c2.484-3.14,4.866-6.143,7.172-9.042l35.962,12.225  l-9.033-26.576l-62.538-21.259c-2.305,2.898-4.688,5.902-7.172,9.042C165.266,281.021,74.934,387.567,44.244,414.782l35.609,35.609  C110.543,423.177,200.875,316.631,262.253,239.039z"/>
<path style="fill:#353640;" d="M388.478,218.188c0,0-2.145,5.341-70.866,59.997l-83.796-83.796  c54.657-68.721,59.997-70.866,59.997-70.866L388.478,218.188z"/>
<path style="opacity:0.1;enable-background:new    ;" d="M329.422,159.132l-35.609-35.609c0,0-5.341,2.145-59.996,70.866  l35.609,35.609C324.081,161.276,329.422,159.132,329.422,159.132z"/>
<path style="fill:#515262;" d="M311.099,74.968l-23.655,23.655c-16.949,16.949-16.949,44.429,0,61.379l0,0l64.555,64.555l0,0  c16.95,16.949,44.429,16.949,61.379,0l23.655-23.655L311.099,74.968z"/>
<path style="opacity:0.1;enable-background:new    ;" d="M323.053,134.232l23.655-23.655l-35.609-35.609l-23.655,23.655  c-16.949,16.949-16.949,44.429,0,61.379l0,0l35.609,35.609C306.103,178.661,306.103,151.181,323.053,134.232z"/>
<path style="fill:#B4BBCC;" d="M476.476,35.525L476.476,35.525c34.775,34.775,34.776,91.157,0,125.933l-39.443,39.443  L311.098,74.968l39.444-39.443C385.318,0.748,441.699,0.748,476.476,35.525z"/>
<path style="opacity:0.1;enable-background:new    ;" d="M491.71,55.899c-3.985-7.31-9.049-14.189-15.235-20.374  c-34.775-34.775-91.157-34.777-125.933,0l-39.444,39.443l35.609,35.609l39.443-39.443C414.741,42.544,457.925,37.48,491.71,55.899z"/>
<path style="fill:#C7CFE2;" d="M327.185,59.614l125.201,125.201c8.682,8.682,8.683,22.757,0,31.44l0,0  c-8.682,8.682-22.758,8.683-31.441,0L295.744,91.056c-8.682-8.682-8.682-22.758,0-31.441l0,0  C304.428,50.932,318.503,50.932,327.185,59.614z"/>
<path style="opacity:0.1;enable-background:new    ;" d="M331.354,95.223c8.682-8.682,22.758-8.682,31.44,0l-35.609-35.609  c-8.682-8.682-22.757-8.683-31.44,0s-8.683,22.758,0,31.441l35.609,35.609C322.671,117.982,322.671,103.906,331.354,95.223z"/>
<path d="M512,98.491c0-26.307-10.244-51.041-28.848-69.644S439.816,0.001,413.508,0.001s-51.041,10.245-69.644,28.848  l-18.177,18.177c-4.36-2.196-9.201-3.365-14.223-3.365c-8.46,0-16.413,3.295-22.396,9.277c-9.889,9.889-11.851,24.741-5.902,36.61  l-2.398,2.398c-9.981,9.981-15.478,23.251-15.478,37.366c0,3.486,0.339,6.919,0.993,10.266  c-10.351,12.232-23.727,28.652-39.851,48.926c-0.003,0.003-0.004,0.004-0.006,0.006c-2.31,2.906-4.698,5.916-7.186,9.061  C157.313,275.856,67.642,381.413,37.979,407.718c-0.067,0.059-0.126,0.127-0.191,0.189c-0.072,0.068-0.15,0.13-0.22,0.199  L6.625,439.05C2.353,443.321,0,449.001,0,455.041c0,6.041,2.353,11.72,6.625,15.991l34.343,34.343  c4.27,4.272,9.95,6.623,15.99,6.623h0.001c6.041,0,11.72-2.353,15.991-6.625l30.943-30.943c0.071-0.07,0.131-0.147,0.199-0.22  c0.062-0.065,0.128-0.125,0.189-0.191c26.306-29.664,131.863-119.335,210.146-181.26c3.146-2.489,6.156-4.877,9.061-7.186  c20.264-16.117,36.686-29.495,48.932-39.858c3.346,0.656,6.78,0.993,10.266,0.993c14.116,0,27.385-5.497,37.366-15.477l2.39-2.39  c4.36,2.196,9.199,3.365,14.221,3.365c8.46,0,16.416-3.295,22.398-9.277s9.277-13.937,9.277-22.397c0-5.022-1.17-9.863-3.365-14.221  l18.178-18.178C501.755,149.532,512,124.8,512,98.491z M59.598,492.022c-0.952,0.951-2.061,1.093-2.638,1.093  c-0.578,0-1.688-0.142-2.639-1.093l-34.343-34.343c-1.454-1.455-1.454-3.822,0-5.276l24.267-24.267l39.621,39.621L59.598,492.022z   M302.713,277.951c-74.92,59.266-170.665,140.354-205.712,176.236L57.814,415c35.881-35.046,116.97-130.79,176.237-205.712  c0.193-0.244,0.387-0.488,0.578-0.731l68.816,68.815C303.201,277.564,302.957,277.757,302.713,277.951z M318.323,265.542  l-71.866-71.866c10.738-13.441,20.123-24.991,28.057-34.527c-0.534,0.645,5.75,7.028,6.252,7.53  c0.001,0.001,64.555,64.554,64.569,64.567c0.522,0.522,6.966,6.695,7.515,6.238C343.308,245.424,331.758,254.808,318.323,265.542z   M382.688,227.826c-3.359,0-6.644-0.487-9.775-1.423c-0.053-0.018-0.103-0.043-0.156-0.059c-5.279-1.606-10.18-4.561-14.082-8.464  l-64.555-64.555c-3.898-3.898-6.849-8.812-8.464-14.082c-0.016-0.053-0.042-0.102-0.059-0.155c-0.937-3.131-1.424-6.416-1.424-9.775  c0-9.071,3.533-17.599,9.946-24.012l1.258-1.258l112.58,112.581l-1.258,1.258C400.287,224.294,391.758,227.826,382.688,227.826z   M445.709,209.579c-2.416,2.416-5.628,3.747-9.044,3.747c-3.277,0-6.358-1.235-8.737-3.467c-0.031-0.031-0.059-0.065-0.091-0.096  c-0.12-0.115-0.242-0.224-0.374-0.341L302.586,84.544c-0.125-0.14-0.251-0.278-0.38-0.414c-0.02-0.021-0.044-0.04-0.065-0.062  c-4.691-5.007-4.605-12.889,0.281-17.777c2.416-2.415,5.628-3.745,9.043-3.745c3.278,0,6.362,1.236,8.741,3.472  c0.03,0.029,0.057,0.062,0.087,0.092c0.12,0.115,0.242,0.225,0.374,0.341l62.441,62.441l62.446,62.446  c0.116,0.131,0.233,0.261,0.355,0.388c0.025,0.026,0.053,0.048,0.078,0.073c2.232,2.378,3.468,5.459,3.468,8.736  C449.456,203.951,448.125,207.163,445.709,209.579z M452.753,171.829l-56.291-56.29l-56.29-56.291l17.046-17.046  c15.036-15.035,35.027-23.316,56.29-23.316s41.255,8.28,56.29,23.316s23.316,35.027,23.316,56.29s-8.28,41.255-23.316,56.29  L452.753,171.829z"/>
<g>
</g>
<g>
</g>
<g>
</g>
<g>
</g>
<g>
</g>
<g>
</g>
<g>
</g>
<g>
</g>
<g>
</g>
<g>
</g>
<g>
</g>
<g>
</g>
<g>
</g>
<g>
</g>
<g>
</g>
</svg>
