<?xml version="1.0" encoding="iso-8859-1"?>
<!-- Generator: Adobe Illustrator 19.0.0, SVG Export Plug-In . SVG Version: 6.00 Build 0)  -->
<svg xmlns="http://www.w3.org/2000/svg" xmlns:xlink="http://www.w3.org/1999/xlink" version="1.1" id="Layer_1" x="0px" y="0px" viewBox="0 0 511.999 511.999" style="enable-background:new 0 0 511.999 511.999;" xml:space="preserve">
<path style="fill:#4A4B59;" d="M453.418,470.634c0,18.044-14.629,32.673-32.673,32.673H91.255  c-18.046,0-32.673-14.629-32.673-32.673V354.727h394.836V470.634z"/>
<path style="fill:#515262;" d="M420.744,8.693H91.255c-18.046,0-32.673,14.627-32.673,32.673v313.36  c0,18.044,14.629,32.673,32.673,32.673h329.488c18.046,0,32.673-14.629,32.673-32.673V41.366  C453.418,23.32,438.789,8.693,420.744,8.693z"/>
<path style="opacity:0.1;enable-background:new    ;" d="M255.999,361.105c-89.911,0-163.059-73.148-163.059-163.059  S166.089,34.989,255.999,34.989c89.911,0,163.059,73.148,163.059,163.059S345.911,361.105,255.999,361.105z"/>
<circle style="fill:#B4BBCC;" cx="256.003" cy="198.05" r="128.286"/>
<circle style="fill:#515262;" cx="256.003" cy="198.05" r="30.984"/>
<path style="fill:#C7CFE2;" d="M297.651,338.78l-35.567-67.37c-3.422-6.482-0.941-14.509,5.54-17.932  c4.047-2.137,8.772-1.931,12.527,0.072l66.957,36.339c17.635,9.57,24.172,31.625,14.601,49.26  c-9.57,17.634-31.625,24.171-49.259,14.601C305.89,350.189,300.881,344.921,297.651,338.78z"/>
<path d="M255.999,237.725c21.879,0,39.677-17.799,39.677-39.677s-17.799-39.677-39.677-39.677s-39.677,17.799-39.677,39.677  S234.121,237.725,255.999,237.725z M255.999,175.755c12.292,0,22.291,9.999,22.291,22.291s-9.999,22.291-22.291,22.291  s-22.291-9.999-22.291-22.291S243.708,175.755,255.999,175.755z"/>
<circle cx="113.623" cy="61.859" r="14.094"/>
<circle cx="398.383" cy="61.859" r="14.094"/>
<circle cx="113.623" cy="334.241" r="14.094"/>
<circle cx="398.383" cy="334.241" r="14.094"/>
<path d="M255.999,406.41c-4.801,0-8.693,3.892-8.693,8.693v61.97c0,4.801,3.892,8.693,8.693,8.693s8.693-3.892,8.693-8.693v-61.97  C264.692,410.302,260.8,406.41,255.999,406.41z"/>
<path d="M289.745,406.41c-4.801,0-8.693,3.892-8.693,8.693v61.97c0,4.801,3.892,8.693,8.693,8.693c4.801,0,8.693-3.892,8.693-8.693  v-61.97C298.438,410.302,294.545,406.41,289.745,406.41z"/>
<path d="M323.49,406.41c-4.801,0-8.693,3.892-8.693,8.693v61.97c0,4.801,3.892,8.693,8.693,8.693c4.801,0,8.693-3.892,8.693-8.693  v-61.97C332.183,410.302,328.291,406.41,323.49,406.41z"/>
<path d="M357.234,406.41c-4.801,0-8.693,3.892-8.693,8.693v61.97c0,4.801,3.892,8.693,8.693,8.693c4.801,0,8.693-3.892,8.693-8.693  v-61.97C365.927,410.302,362.036,406.41,357.234,406.41z"/>
<path d="M390.979,406.41c-4.801,0-8.693,3.892-8.693,8.693v61.97c0,4.801,3.892,8.693,8.693,8.693c4.801,0,8.693-3.892,8.693-8.693  v-61.97C399.672,410.302,395.78,406.41,390.979,406.41z"/>
<path d="M420.744,0H91.255C68.446,0,49.889,18.557,49.889,41.366v313.36v115.907c0,22.809,18.557,41.366,41.366,41.366h329.488  c22.809,0,41.366-18.557,41.366-41.366V354.726V41.366C462.11,18.557,443.553,0,420.744,0z M67.275,41.366  c0-13.223,10.757-23.98,23.98-23.98h329.488c13.223,0,23.98,10.757,23.98,23.98v313.36c0,13.223-10.757,23.98-23.98,23.98H91.255  c-13.223,0-23.98-10.757-23.98-23.98C67.275,354.726,67.275,41.366,67.275,41.366z M444.724,470.634  c0,13.223-10.757,23.98-23.98,23.98H91.255c-13.223,0-23.98-10.757-23.98-23.98v-82.219c5.092,3.634,11.004,6.093,17.176,7.116  c2.245,0.372,4.528,0.562,6.804,0.562h329.488c6.558,0,13.113-1.582,18.935-4.602c1.751-0.908,3.44-1.931,5.045-3.076  L444.724,470.634L444.724,470.634z"/>
<path d="M255.999,335.026c9.528,0,19.009-1.003,28.282-2.95c0,0,5.674,10.747,5.675,10.749c7.71,14.604,23.258,24.022,39.787,24.022  c16.543,0,31.719-9.025,39.604-23.553c10.228-18.846,5.557-41.837-9.963-55.385c21.737-24.921,33.594-56.45,33.594-89.863  c0-75.531-61.449-136.98-136.98-136.98s-136.98,61.449-136.98,136.98S180.469,335.026,255.999,335.026z M354.068,335.001  c-4.841,8.92-14.161,14.461-24.323,14.461c-10.112,0-19.705-5.803-24.407-14.741L269.77,267.35c-0.294-0.559-0.461-1.15-0.512-1.743  c-0.151-1.777,0.75-3.559,2.436-4.448c1.2-0.62,3.133-0.753,4.309,0.03l65.961,35.799l0.994,0.54  C356.354,304.797,361.337,321.608,354.068,335.001z M255.999,78.454c65.944,0,119.594,53.65,119.594,119.594  c0,30.092-11.017,58.437-31.155,80.502l-5.118-2.777l-55.08-29.894c-6.337-3.38-14.347-3.429-20.677-0.088  c-9.211,4.863-13.523,15.391-10.957,25.057c0.231,0.869,0.497,1.734,0.841,2.585c0.278,0.687,0.593,1.367,0.947,2.036l21.401,40.537  c-6.523,1.087-13.147,1.637-19.797,1.637c-65.944,0-119.594-53.65-119.594-119.594S190.055,78.454,255.999,78.454z"/>
<g>
</g>
<g>
</g>
<g>
</g>
<g>
</g>
<g>
</g>
<g>
</g>
<g>
</g>
<g>
</g>
<g>
</g>
<g>
</g>
<g>
</g>
<g>
</g>
<g>
</g>
<g>
</g>
<g>
</g>
</svg>
