<?xml version="1.0" encoding="iso-8859-1"?>
<!-- Generator: Adobe Illustrator 19.0.0, SVG Export Plug-In . SVG Version: 6.00 Build 0)  -->
<svg xmlns="http://www.w3.org/2000/svg" xmlns:xlink="http://www.w3.org/1999/xlink" version="1.1" id="Layer_1" x="0px" y="0px" viewBox="0 0 511.999 511.999" style="enable-background:new 0 0 511.999 511.999;" xml:space="preserve">
<g>
	<rect x="325.843" y="110.559" style="fill:#FFFFFF;" width="87.67" height="297.955"/>
	<rect x="98.482" y="110.559" style="fill:#FFFFFF;" width="87.67" height="297.955"/>
</g>
<polygon style="fill:#8CE0FF;" points="47.264,336.154 7.843,298.451 47.264,260.749 "/>
<g>
	<rect x="238.77" y="192.634" style="fill:#515262;" width="34.454" height="137.193"/>
	<rect x="238.77" y="46.114" style="fill:#515262;" width="34.454" height="96.119"/>
	<rect x="238.77" y="369.772" style="fill:#515262;" width="34.454" height="96.119"/>
</g>
<path style="fill:#C7CFE2;" d="M192.491,90.132H92.148c-9.336,0-16.903,7.568-16.903,16.903v126.723v178.274  c0,9.336,7.568,16.903,16.903,16.903h100.343c9.336,0,16.903-7.568,16.903-16.903V233.757V107.035  C209.395,97.699,201.826,90.132,192.491,90.132z M109.05,123.937h66.536v92.917H109.05V123.937z M175.588,395.128h-66.536V250.661  h66.536V395.128z"/>
<polygon style="fill:#8CE0FF;" points="464.736,336.154 504.157,298.451 464.736,260.749 "/>
<path style="fill:#C7CFE2;" d="M302.605,107.035v126.723v178.274c0,9.336,7.568,16.903,16.903,16.903h100.343  c9.336,0,16.903-7.568,16.903-16.903V233.757V107.035c0-9.336-7.568-16.903-16.903-16.903H319.509  C310.174,90.132,302.605,97.699,302.605,107.035z M402.948,216.854h-66.536v-92.917h66.536V216.854z M336.412,250.661h66.536  v144.468h-66.536V250.661z"/>
<path d="M47.266,343.997c1.038,0,2.086-0.206,3.08-0.632c2.888-1.234,4.761-4.072,4.761-7.211v-75.405  c0-3.14-1.873-5.978-4.761-7.211c-2.891-1.236-6.234-0.626-8.502,1.544L2.422,292.785C0.875,294.263,0,296.312,0,298.452  s0.875,4.188,2.422,5.668l39.421,37.703C43.332,343.246,45.284,343.997,47.266,343.997z M39.421,317.802l-20.233-19.35l20.233-19.35  V317.802z"/>
<path d="M281.07,192.633c0-4.331-3.51-7.843-7.843-7.843h-34.454c-4.332,0-7.843,3.511-7.843,7.843v137.189  c0,4.331,3.51,7.843,7.843,7.843h34.454c4.332,0,7.843-3.511,7.843-7.843V192.633z M265.384,321.98h-18.769V200.476h18.769V321.98z"/>
<path d="M281.07,46.11c0-4.331-3.51-7.843-7.843-7.843h-34.454c-4.332,0-7.843,3.511-7.843,7.843v96.115  c0,4.331,3.51,7.843,7.843,7.843h34.454c4.332,0,7.843-3.511,7.843-7.843V46.11z M265.384,134.383h-18.769v-80.43h18.769V134.383z"/>
<path d="M273.227,361.931h-34.454c-4.332,0-7.843,3.511-7.843,7.843v96.115c0,4.331,3.51,7.843,7.843,7.843h34.454  c4.332,0,7.843-3.511,7.843-7.843v-96.115C281.07,365.442,277.559,361.931,273.227,361.931z M265.384,458.047h-18.769v-80.43h18.769  V458.047z"/>
<path d="M92.147,82.289c-13.645,0-24.746,11.101-24.746,24.746v304.998c0,13.645,11.101,24.746,24.746,24.746H192.49  c13.645,0,24.746-11.101,24.746-24.746V107.034c0-13.645-11.101-24.746-24.746-24.746H92.147V82.289z M201.551,107.034v304.998  c0,4.996-4.065,9.061-9.061,9.061H92.147c-4.996,0-9.061-4.065-9.061-9.061V107.034c0-4.996,4.065-9.061,9.061-9.061H192.49  C197.487,97.974,201.551,102.039,201.551,107.034z"/>
<path d="M175.587,242.818H109.05c-4.332,0-7.843,3.511-7.843,7.843v144.468c0,4.331,3.51,7.843,7.843,7.843h66.536  c4.332,0,7.843-3.511,7.843-7.843V250.661C183.43,246.33,179.919,242.818,175.587,242.818z M167.744,387.286h-50.851V258.503h50.851  V387.286z"/>
<path d="M175.587,116.095H109.05c-4.332,0-7.843,3.511-7.843,7.843v92.917c0,4.331,3.51,7.843,7.843,7.843h66.536  c4.332,0,7.843-3.511,7.843-7.843v-92.917C183.43,119.606,179.919,116.095,175.587,116.095z M167.744,209.011h-50.851V131.78h50.851  V209.011z"/>
<path d="M470.156,255.082c-2.269-2.17-5.611-2.779-8.502-1.544c-2.888,1.234-4.761,4.072-4.761,7.211v75.405  c0,3.14,1.873,5.978,4.761,7.211c0.993,0.425,2.041,0.632,3.08,0.632c1.983,0,3.934-0.751,5.423-2.175l39.421-37.703  c1.547-1.48,2.422-3.527,2.422-5.668s-0.875-4.188-2.422-5.668L470.156,255.082z M472.579,317.802v-38.701l20.233,19.35  L472.579,317.802z"/>
<path d="M402.948,242.818h-66.536c-4.332,0-7.843,3.511-7.843,7.843v144.468c0,4.331,3.51,7.843,7.843,7.843h66.536  c4.332,0,7.843-3.511,7.843-7.843V250.661C410.791,246.33,407.28,242.818,402.948,242.818z M395.106,387.286h-50.851V258.503h50.851  V387.286z"/>
<path d="M319.509,82.289c-13.645,0-24.746,11.101-24.746,24.746v304.998c0,13.645,11.101,24.746,24.746,24.746h100.343  c13.645,0,24.746-11.101,24.746-24.746V107.034c0-13.645-11.101-24.746-24.746-24.746H319.509V82.289z M428.913,107.034v304.998  c0,4.996-4.065,9.061-9.061,9.061H319.509c-4.996,0-9.061-4.065-9.061-9.061V107.034c0-4.996,4.065-9.061,9.061-9.061h100.343  C424.848,97.974,428.913,102.039,428.913,107.034z"/>
<path d="M402.948,116.095h-66.536c-4.332,0-7.843,3.511-7.843,7.843v92.917c0,4.331,3.51,7.843,7.843,7.843h66.536  c4.332,0,7.843-3.511,7.843-7.843v-92.917C410.791,119.606,407.28,116.095,402.948,116.095z M395.106,209.011h-50.851V131.78h50.851  V209.011z"/>
<g>
</g>
<g>
</g>
<g>
</g>
<g>
</g>
<g>
</g>
<g>
</g>
<g>
</g>
<g>
</g>
<g>
</g>
<g>
</g>
<g>
</g>
<g>
</g>
<g>
</g>
<g>
</g>
<g>
</g>
</svg>
