<?xml version="1.0" encoding="iso-8859-1"?>
<!-- Generator: Adobe Illustrator 19.0.0, SVG Export Plug-In . SVG Version: 6.00 Build 0)  -->
<svg xmlns="http://www.w3.org/2000/svg" xmlns:xlink="http://www.w3.org/1999/xlink" version="1.1" id="Layer_1" x="0px" y="0px" viewBox="0 0 512.001 512.001" style="enable-background:new 0 0 512.001 512.001;" xml:space="preserve">
<path style="fill:#B4BBCC;" d="M471.766,69.651H40.234c-17.622,0-31.908,14.285-31.908,31.907v308.885  c0,17.622,14.286,31.908,31.908,31.908h431.532c17.622,0,31.908-14.286,31.908-31.908V101.558  C503.674,83.936,489.388,69.651,471.766,69.651z"/>
<rect x="55.862" y="177" style="fill:#FFFFFF;" width="400.268" height="216.53"/>
<path style="opacity:0.1;enable-background:new    ;" d="M86.035,410.444V101.558c0-17.622,14.286-31.908,31.908-31.908H40.234  C22.612,69.651,8.326,83.936,8.326,101.558v308.885c0,17.622,14.286,31.908,31.908,31.908h77.709  C100.321,442.352,86.035,428.067,86.035,410.444z"/>
<path d="M471.766,450.678H208.264c-4.598,0-8.326-3.728-8.326-8.326s3.728-8.326,8.326-8.326h263.501  c13.003,0,23.582-10.578,23.582-23.582V101.558c0-13.003-10.578-23.582-23.582-23.582h-332.15c-4.598,0-8.326-3.728-8.326-8.326  c0-4.598,3.728-8.326,8.326-8.326h332.151c22.185,0,40.234,18.048,40.234,40.234v308.885  C512,432.629,493.952,450.678,471.766,450.678z M174.961,450.678H40.234C18.048,450.678,0,432.629,0,410.444V101.558  c0-22.185,18.048-40.233,40.234-40.233h66.077c4.598,0,8.326,3.728,8.326,8.326c0,4.598-3.728,8.326-8.326,8.326H40.234  c-13.004,0-23.582,10.578-23.582,23.581v308.885c0,13.003,10.578,23.582,23.582,23.582h134.726c4.598,0,8.326,3.728,8.326,8.326  S179.559,450.678,174.961,450.678z"/>
<path d="M456.134,401.858h-70.706c-4.598,0-8.326-3.728-8.326-8.326c0-4.598,3.728-8.326,8.326-8.326h62.38V185.329H64.192v199.876  h287.932c4.598,0,8.326,3.728,8.326,8.326c0,4.598-3.728,8.326-8.326,8.326H55.866c-4.598,0-8.326-3.728-8.326-8.326V177.003  c0-4.598,3.728-8.326,8.326-8.326h400.268c4.598,0,8.326,3.728,8.326,8.326v216.528C464.46,398.13,460.732,401.858,456.134,401.858z  "/>
<circle cx="437.701" cy="123.325" r="18.437"/>
<circle cx="382.173" cy="123.325" r="18.437"/>
<circle cx="326.655" cy="123.325" r="18.437"/>
<g>
</g>
<g>
</g>
<g>
</g>
<g>
</g>
<g>
</g>
<g>
</g>
<g>
</g>
<g>
</g>
<g>
</g>
<g>
</g>
<g>
</g>
<g>
</g>
<g>
</g>
<g>
</g>
<g>
</g>
</svg>
