<?xml version="1.0" encoding="iso-8859-1"?>
<!-- Generator: Adobe Illustrator 19.0.0, SVG Export Plug-In . SVG Version: 6.00 Build 0)  -->
<svg xmlns="http://www.w3.org/2000/svg" xmlns:xlink="http://www.w3.org/1999/xlink" version="1.1" id="Layer_1" x="0px" y="0px" viewBox="0 0 512 512" style="enable-background:new 0 0 512 512;" xml:space="preserve">
<path style="fill:#A5EB78;" d="M482.905,143.275c-12.981-23.559-31.38-44.576-54.686-62.467  C381.884,45.24,320.721,25.652,256.001,25.652c-64.722,0-125.883,19.588-172.219,55.157c-23.306,17.89-41.706,38.906-54.687,62.467  C15.261,168.38,8.247,195.156,8.247,222.859s7.014,54.479,20.847,79.584c11.958,21.703,28.526,41.241,49.28,58.173L66.872,469.938  c-1.199,11.39,10.415,19.784,20.855,15.074l145.732-65.753l0,0c7.453,0.53,14.971,0.809,22.541,0.809  c64.721,0,125.883-19.588,172.218-55.157c23.306-17.891,41.706-38.908,54.686-62.467c13.833-25.106,20.847-51.882,20.847-79.584  S496.738,168.381,482.905,143.275z"/>
<path style="fill:#FFFFFF;" d="M391.394,316.939c-35.831,27.505-83.914,42.653-135.394,42.653s-99.564-15.147-135.395-42.653  c-33.456-25.682-51.882-59.094-51.882-94.08s18.426-68.398,51.883-94.08c35.831-27.505,83.914-42.653,135.395-42.653  c51.479,0,99.563,15.147,135.394,42.653c33.457,25.682,51.883,59.094,51.883,94.08S424.851,291.257,391.394,316.939z"/>
<path style="opacity:0.1;enable-background:new    ;" d="M102.808,251.448c0-34.985,18.426-68.398,51.883-94.08  c35.831-27.505,83.914-42.653,135.395-42.653c45.623,0,88.571,11.906,122.695,33.758c-6.24-6.95-13.378-13.545-21.387-19.694  c-35.831-27.505-83.914-42.653-135.394-42.653s-99.564,15.147-135.395,42.653c-33.457,25.682-51.883,59.094-51.883,94.08  s18.426,68.398,51.883,94.08c4.076,3.129,8.318,6.089,12.699,8.894C113.479,303.753,102.808,278.058,102.808,251.448z"/>
<path d="M81.577,494.558c-4.787-0.027-9.563-1.5-13.472-4.325c-6.783-4.902-10.309-12.798-9.434-21.12l11.042-104.939  c-19.984-16.944-36.065-36.341-47.841-57.714C7.358,280.123,0,252.007,0,222.896s7.358-57.227,21.873-83.565  c13.531-24.56,32.671-46.438,56.886-65.028c8.266-6.346,17.189-12.323,26.522-17.767c3.933-2.295,8.983-0.965,11.279,2.968  c2.295,3.934,0.967,8.983-2.969,11.279c-54.522,31.801-97.099,86.88-97.099,152.113c0,51.904,27.588,99.137,67.096,131.368  c2.156,1.759,3.279,4.486,2.989,7.253L75.074,470.839c-0.361,3.424,1.764,5.357,2.693,6.028c0.929,0.672,3.432,2.081,6.569,0.665  l145.731-65.754c1.246-0.562,2.604-0.808,3.977-0.709c32.42,2.304,65.244-0.434,96.736-8.535c4.405-1.138,8.905,1.522,10.041,5.933  c1.134,4.41-1.522,8.906-5.932,10.041c-32.505,8.363-66.446,11.322-99.925,9.155L91.12,492.566  C88.115,493.923,84.842,494.577,81.577,494.558z M368.389,407.098c-3.265,0-6.353-1.949-7.651-5.162  c-1.704-4.223,0.338-9.028,4.56-10.734c21.232-8.569,40.711-19.604,57.899-32.796c43.042-33.041,74.267-83.832,72.192-139.368  c-4.438-118.806-133.907-185.103-239.39-185.103c-39.262,0-78.138,7.585-112.427,21.936c-4.198,1.758-9.033-0.222-10.79-4.423  c-1.759-4.201,0.221-9.033,4.422-10.791c36.287-15.187,77.364-23.215,118.793-23.215c116.782,0,256.001,73.695,256.002,205.454  c0,59.416-32.506,113.085-78.759,148.593c-18.372,14.102-39.153,25.88-61.768,35.008  C370.462,406.905,369.416,407.098,368.389,407.098z M255.999,367.875c-82.558,0-195.523-47.813-195.524-144.978  C60.474,125.72,173.71,77.917,255.999,77.917c53.285,0,103.152,15.753,140.416,44.357c35.537,27.28,55.108,63.014,55.108,100.622  c0,37.607-19.571,73.342-55.108,100.621C359.152,352.121,309.284,367.875,255.999,367.875z M255.999,94.41  c-73.181,0-179.031,40.8-179.031,128.486c0,87.606,106.142,128.486,179.032,128.486c73.193,0,179.03-40.81,179.031-128.486  C435.031,135.281,328.901,94.41,255.999,94.41z"/>
<g>
</g>
<g>
</g>
<g>
</g>
<g>
</g>
<g>
</g>
<g>
</g>
<g>
</g>
<g>
</g>
<g>
</g>
<g>
</g>
<g>
</g>
<g>
</g>
<g>
</g>
<g>
</g>
<g>
</g>
</svg>
