<?xml version="1.0" encoding="iso-8859-1"?>
<!-- Generator: Adobe Illustrator 19.0.0, SVG Export Plug-In . SVG Version: 6.00 Build 0)  -->
<svg xmlns="http://www.w3.org/2000/svg" xmlns:xlink="http://www.w3.org/1999/xlink" version="1.1" id="Layer_1" x="0px" y="0px" viewBox="0 0 512.001 512.001" style="enable-background:new 0 0 512.001 512.001;" xml:space="preserve">
<polygon style="fill:#FFD782;" points="105.871,7.992 105.871,388.026 255.999,417.023 406.127,388.026 406.127,7.992 "/>
<rect x="145.673" y="47.798" style="fill:#FF6465;" width="220.643" height="369.226"/>
<g>
	<circle style="fill:#FFD782;" cx="192.001" cy="234.911" r="19.998"/>
	<polygon style="fill:#FFD782;" points="406.127,446.018 255.999,417.023 105.871,446.018 78.624,446.018 78.624,504.01    433.374,504.01 433.374,446.018  "/>
</g>
<rect x="105.867" y="388.022" style="fill:#F2C76D;" width="300.256" height="57.995"/>
<path d="M192.005,262.899c15.434,0,27.991-12.556,27.991-27.989s-12.556-27.991-27.991-27.991s-27.991,12.557-27.991,27.991  S176.571,262.899,192.005,262.899z M192.005,222.903c6.621,0,12.008,5.387,12.008,12.008s-5.387,12.007-12.008,12.007  s-12.008-5.386-12.008-12.007S185.384,222.903,192.005,222.903z"/>
<path d="M439.026,440.367c-1.499-1.499-3.531-2.341-5.651-2.341h-19.256v-50c0,0,0-379.975,0-380.029  c0-2.935-1.721-5.744-4.318-7.103c-0.215-0.112-0.442-0.195-0.659-0.303c-0.935-0.369-1.923-0.576-2.93-0.587  c-0.028,0-0.055-0.004-0.084-0.004c0,0-300.246,0-300.254,0c-1.702,0-3.393,0.554-4.754,1.577c-1.148,0.862-2.019,1.974-2.601,3.286  c-0.434,0.977-0.638,2.067-0.638,3.134v380.029v50H78.625c-4.414,0-7.991,3.578-7.991,7.991v57.993c0,4.413,3.577,7.991,7.991,7.991  h354.751c4.414,0,7.991-3.578,7.991-7.991v-57.993C441.366,443.898,440.524,441.866,439.026,440.367z M386.835,15.983  l-23.822,23.823H148.987l-23.823-23.823H386.835z M113.862,27.285l23.822,23.823v270.29c0,4.413,3.577,7.991,7.991,7.991  c4.414,0,7.991-3.578,7.991-7.991V55.789h204.664V74.07c0,4.413,3.577,7.991,7.991,7.991c4.414,0,7.991-3.578,7.991-7.991V51.109  l23.822-23.823v352.75h-23.822V105.939c0-4.413-3.577-7.991-7.991-7.991c-4.414,0-7.991,3.578-7.991,7.991v274.096H153.667v-27.222  c0-4.413-3.577-7.991-7.991-7.991c-4.414,0-7.991,3.578-7.991,7.991v27.222h-23.822V27.285z M425.384,496.019H86.615v-42.01h19.246  c0.003,0,0.006,0,0.01,0h218.725c4.414,0,7.991-3.578,7.991-7.991s-3.577-7.991-7.991-7.991H113.862v-42.009h284.275v42.009h-41.891  c-4.414,0-7.991,3.578-7.991,7.991s3.577,7.991,7.991,7.991h49.882c0,0,0.004,0,0.007,0h19.248L425.384,496.019L425.384,496.019z"/>
<g>
</g>
<g>
</g>
<g>
</g>
<g>
</g>
<g>
</g>
<g>
</g>
<g>
</g>
<g>
</g>
<g>
</g>
<g>
</g>
<g>
</g>
<g>
</g>
<g>
</g>
<g>
</g>
<g>
</g>
</svg>
