<?xml version="1.0" encoding="iso-8859-1"?>
<!-- Generator: Adobe Illustrator 19.0.0, SVG Export Plug-In . SVG Version: 6.00 Build 0)  -->
<svg xmlns="http://www.w3.org/2000/svg" xmlns:xlink="http://www.w3.org/1999/xlink" version="1.1" id="Layer_1" x="0px" y="0px" viewBox="0 0 512 512" style="enable-background:new 0 0 512 512;" xml:space="preserve">
<circle style="fill:#FFE6B3;" cx="256" cy="256" r="247.507"/>
<path style="opacity:0.1;enable-background:new    ;" d="M76.433,289.97c0-136.694,110.813-247.507,247.507-247.507  c26.27,0,51.577,4.107,75.333,11.689C358.838,25.4,309.393,8.493,256,8.493C119.306,8.493,8.493,119.306,8.493,256  c0,110.425,72.32,203.945,172.175,235.818C117.585,446.961,76.433,373.271,76.433,289.97z"/>
<path d="M244.966,511.753c0.256,0.024,0.512,0.04,0.767,0.04c0.035,0,0.07-0.007,0.105-0.008C249.215,511.916,252.601,512,256,512  c68.381,0,132.668-26.629,181.02-74.98C485.371,388.668,512,324.38,512,256s-26.629-132.668-74.98-181.02  C388.668,26.628,324.381,0,256,0S123.332,26.628,74.98,74.98C26.629,123.332,0,187.62,0,256s26.629,132.668,74.98,181.02  C120.722,482.761,180.728,509.047,244.966,511.753z M433.354,416.055c-18.732,20.738-41.045,38.176-65.948,51.353  c6.811-22.937,12.019-47.398,15.512-72.99c0.635-4.647-2.619-8.929-7.265-9.563c-4.648-0.633-8.929,2.619-9.563,7.266  c-4.136,30.297-10.758,58.889-19.646,85.106c-27.22,11.169-56.938,17.453-88.063,17.759c5.866-15.135,10.278-30.596,13.544-45.938  c0.219-0.648,0.363-1.327,0.419-2.03c6.215-30.103,8.068-59.656,7.856-85.284c0.006-0.058,0.017-0.114,0.022-0.172  c0.044-0.579,0.028-1.147-0.041-1.702c-0.104-8.555-0.429-16.666-0.898-24.182c-2.422-38.856-8.683-68.619-11.34-79.909  c7.868-7.428,29.102-26.515,59.16-46.125c4.671-3.047,9.7-6.193,15.034-9.366c21.197,49.883,30.561,102.218,27.099,151.935  c-0.326,4.679,3.202,8.736,7.882,9.062c0.2,0.014,0.401,0.022,0.598,0.022c4.421,0,8.151-3.425,8.463-7.903  c3.69-52.982-6.395-108.67-29.179-161.549c18.664-10.079,40.258-19.828,63.776-27.082c5.388,10.596,16.596,35.183,24.149,69.336  C454.228,276.153,459.691,341.732,433.354,416.055z M495.015,256c0,44.176-12.061,85.581-33.042,121.123  c12.728-59.793,7.366-111.648-0.618-147.397c-7.33-32.821-17.688-56.972-23.877-69.591c11.224-2.75,22.802-4.87,34.651-6.127  C486.794,184.96,495.015,219.536,495.015,256z M383.977,54.22c-11.776,2.857-23.35,6.117-34.577,9.759  c-4.461,1.447-6.906,6.237-5.458,10.698c1.164,3.591,4.494,5.875,8.076,5.875c0.868,0,1.752-0.134,2.621-0.417  c15.453-5.012,31.594-9.28,48.031-12.724c24.673,19.232,45.487,43.188,61.074,70.499c-13.845,1.825-27.301,4.704-40.231,8.337  c-0.598,0.103-1.189,0.274-1.766,0.512c-29.801,8.562-56.755,21.049-79.19,33.663c-0.403,0.185-0.779,0.404-1.139,0.641  c-8.71,4.931-16.735,9.872-23.954,14.59c-31.347,20.492-53.04,40.025-61.303,47.865c-10.57-3.228-38.338-12.418-71.096-28.929  c-4.509-2.273-9.232-4.751-14.102-7.424c41.61-59.176,102.291-94.1,146.743-113.16c4.311-1.848,6.306-6.842,4.458-11.152  c-1.848-4.31-6.837-6.308-11.152-4.459c-46.818,20.075-110.928,57.073-154.846,120.274c-18.285-10.974-37.861-24.556-56.33-40.946  c5.528-9.821,19.217-31.569,43.443-55.065c30.133-29.223,82.932-66.746,163.627-80.197C334.696,28.512,360.699,39.403,383.977,54.22  z M256,16.985c0.199,0,0.396,0.007,0.594,0.008c-58.83,18.404-99.642,48.741-125.142,73.472  c-23.144,22.445-37.267,43.365-44.341,55.308c-8.97-8.915-17.516-18.546-25.331-28.921C105.199,56.422,176.078,16.985,256,16.985z   M16.985,256c0-3.945,0.102-7.868,0.292-11.766c17.755,17.701,37.496,36.28,60.024,51.985c1.48,1.032,3.173,1.526,4.849,1.526  c2.684,0,5.323-1.268,6.974-3.636c2.683-3.848,1.738-9.141-2.11-11.823c-25.591-17.84-47.87-40.024-67.636-60.027  c4.647-32.739,15.938-63.367,32.482-90.459C61.415,143.908,71.868,155,82.757,165.13c0.429,0.506,0.918,0.969,1.47,1.37  c22.828,20.978,47.481,37.734,69.794,50.621c0.022,0.014,0.041,0.031,0.062,0.045c0.169,0.111,0.349,0.191,0.522,0.289  c8.108,4.666,15.904,8.828,23.18,12.486c34.237,17.221,62.633,26.575,73.654,29.906c2.817,12.178,10.1,47.452,11.501,91.73  c-47.516-5.107-96.484-21.45-142.227-47.539c-4.075-2.325-9.263-0.905-11.584,3.169c-2.325,4.074-0.905,9.261,3.169,11.584  c48.411,27.611,100.396,44.772,150.864,49.877c-0.115,21.93-1.84,45.471-6.279,69.135c-12.008-0.359-39.253-2.38-73.408-12.559  c-42.411-12.638-103.951-40.777-157.147-103.007C20.252,301.196,16.985,278.973,16.985,256z M178.626,441.523  c33.337,9.935,60.349,12.529,74.612,13.158c-3.293,13.438-7.539,26.798-12.955,39.804c-86.376-5.636-160.378-57.35-197.599-130.75  C90.823,408.272,141.639,430.5,178.626,441.523z"/>
<g>
</g>
<g>
</g>
<g>
</g>
<g>
</g>
<g>
</g>
<g>
</g>
<g>
</g>
<g>
</g>
<g>
</g>
<g>
</g>
<g>
</g>
<g>
</g>
<g>
</g>
<g>
</g>
<g>
</g>
</svg>
