<?xml version="1.0" encoding="iso-8859-1"?>
<!-- Generator: Adobe Illustrator 19.0.0, SVG Export Plug-In . SVG Version: 6.00 Build 0)  -->
<svg xmlns="http://www.w3.org/2000/svg" xmlns:xlink="http://www.w3.org/1999/xlink" version="1.1" id="Layer_1" x="0px" y="0px" viewBox="0 0 512 512" style="enable-background:new 0 0 512 512;" xml:space="preserve">
<path style="fill:#A5EB78;" d="M255.999,503.671c136.785,0,247.671-110.886,247.671-247.672S392.785,8.329,255.999,8.329  S8.329,119.215,8.329,255.999S119.215,503.671,255.999,503.671z"/>
<path style="fill:#FFFFFF;" d="M124.387,161.977l46.736,90.081c1.282,2.471,1.282,5.412,0,7.883l-46.736,90.081  c-3.645,7.025,3.38,14.808,10.741,11.902L383.19,263.96c7.22-2.851,7.22-13.069,0-15.92l-248.063-97.964  C127.767,147.169,120.743,154.953,124.387,161.977z"/>
<path style="opacity:0.1;enable-background:new    ;" d="M74.96,255.999c0-125.485,93.327-229.158,214.356-245.433  c-10.899-1.466-22.016-2.238-33.316-2.238C119.215,8.329,8.329,119.215,8.329,255.999S119.215,503.67,256.001,503.67  c11.3,0,22.417-0.772,33.316-2.238C168.288,485.159,74.96,381.486,74.96,255.999z"/>
<path d="M447.281,112.129c2.77,3.674,7.989,4.409,11.664,1.64c3.675-2.767,4.409-7.99,1.641-11.664  c-23.365-31.014-53.949-56.707-88.447-74.3C335.961,9.355,296.887,0,255.999,0C187.62,0,123.334,26.629,74.982,74.98  C26.629,123.333,0,187.62,0,255.999c0,33.828,6.511,66.724,19.354,97.773c1.327,3.209,4.43,5.148,7.7,5.147  c1.061,0,2.14-0.204,3.179-0.634c4.251-1.758,6.271-6.63,4.513-10.88c-12.004-29.02-18.089-59.774-18.089-91.406  c0-63.931,24.896-124.035,70.102-169.241c45.206-45.205,105.31-70.101,169.24-70.101c38.231,0,74.759,8.743,108.571,25.987  C396.827,59.097,425.428,83.123,447.281,112.129z"/>
<path d="M468.45,128.387c-4.019,2.239-5.462,7.311-3.223,11.33c19.702,35.37,30.115,75.581,30.115,116.284  c0,63.931-24.896,124.035-70.102,169.24c-45.205,45.206-105.309,70.102-169.24,70.102c-42.362,0-83.983-11.214-120.364-32.431  c-35.315-20.594-64.981-50.085-85.795-85.284c-2.341-3.959-7.449-5.269-11.408-2.931c-3.959,2.341-5.272,7.449-2.931,11.408  c22.256,37.639,53.979,69.174,91.742,91.196C166.169,500.001,210.692,512,255.999,512c68.38,0,132.668-26.629,181.02-74.98  C485.371,388.667,512,324.38,512,256.001c0-43.534-11.142-86.547-32.222-124.39C477.543,127.592,472.472,126.148,468.45,128.387z"/>
<path d="M119.447,365.277c3.29,3.646,7.813,5.597,12.476,5.597c2.093,0,4.216-0.393,6.266-1.203l248.063-97.964  c6.49-2.563,10.684-8.728,10.684-15.706c0-6.979-4.193-13.144-10.684-15.707l-124.177-49.04c-4.276-1.69-9.116,0.409-10.805,4.688  c-1.689,4.279,0.409,9.116,4.688,10.805l124.176,49.039c0.074,0.03,0.112,0.053,0.112,0.053c0.043,0.074,0.042,0.258,0.02,0.307  c0,0-0.033,0.028-0.131,0.067L132.07,354.177c-0.076,0.03-0.12,0.039-0.124,0.043c-0.082-0.033-0.205-0.171-0.221-0.219  c0,0,0.008-0.047,0.058-0.142l46.736-90.082c2.525-4.869,2.525-10.683,0-15.554l-46.736-90.081c-0.037-0.071-0.051-0.116-0.057-0.12  c0.026-0.084,0.15-0.221,0.198-0.242c0,0,0.047,0.003,0.148,0.043l90.11,35.586c4.278,1.69,9.117-0.409,10.805-4.688  c1.689-4.279-0.409-9.116-4.688-10.805l-90.11-35.586c-6.619-2.614-13.974-0.888-18.74,4.393  c-4.767,5.282-5.729,12.775-2.453,19.091l46.735,90.08c0.034,0.067,0.034,0.147,0.001,0.212l-46.736,90.081  C113.718,352.502,114.681,359.996,119.447,365.277z"/>
<g>
</g>
<g>
</g>
<g>
</g>
<g>
</g>
<g>
</g>
<g>
</g>
<g>
</g>
<g>
</g>
<g>
</g>
<g>
</g>
<g>
</g>
<g>
</g>
<g>
</g>
<g>
</g>
<g>
</g>
</svg>
