<?xml version="1.0" encoding="iso-8859-1"?>
<!-- Generator: Adobe Illustrator 19.0.0, SVG Export Plug-In . SVG Version: 6.00 Build 0)  -->
<svg xmlns="http://www.w3.org/2000/svg" xmlns:xlink="http://www.w3.org/1999/xlink" version="1.1" id="Layer_1" x="0px" y="0px" viewBox="0 0 512 512" style="enable-background:new 0 0 512 512;" xml:space="preserve">
<path style="fill:#FFD782;" d="M297.644,297.89l-83.535-83.535L13.819,414.646l-3.654,65.993  c-0.662,11.971,9.226,21.859,21.197,21.197l65.992-3.655l31.895-31.895v-32.648h32.648l36.389-36.389v-32.648h32.648L297.644,297.89  z"/>
<path style="fill:#E6C275;" d="M61.328,460.792c-2.589,0-5.18-0.988-7.156-2.964c-3.952-3.952-3.952-10.36,0-14.31l197.022-197.023  c3.952-3.951,10.358-3.953,14.312,0c3.952,3.952,3.952,10.36,0,14.31L68.483,457.827C66.507,459.803,63.917,460.792,61.328,460.792z  "/>
<path style="opacity:0.1;enable-background:new    ;" d="M201.106,310.894c14.301,14.301,30.01,26.665,46.637,36.897l49.899-49.899  l-83.535-83.535l-49.971,49.971C174.253,280.696,186.579,296.365,201.106,310.894z"/>
<path style="fill:#FF6465;" d="M229.728,282.271c-70.679-70.679-79.292-172.799-19.607-232.483S371.925-1.285,442.604,69.395  s79.293,172.799,19.607,232.483S300.407,352.95,229.728,282.271z"/>
<path style="fill:#E65A5B;" d="M258.35,253.649c-54.63-54.63-63.242-131.605-19.607-175.24s120.61-35.023,175.24,19.607  s63.242,131.605,19.607,175.24S312.981,308.279,258.35,253.649z"/>
<ellipse transform="matrix(0.7071 -0.7071 0.7071 0.7071 -12.5108 294.7322)" style="fill:#FFFFFF;" cx="349.518" cy="162.468" rx="42.056" ry="64.715"/>
<path style="opacity:0.1;enable-background:new    ;" d="M317.255,143.701c16.423-16.423,50.225-9.249,75.497,16.024  c3.472,3.472,6.587,7.107,9.361,10.832c-3.424-12.728-11.214-26.177-22.854-37.817c-25.273-25.273-59.074-32.447-75.497-16.024  c-14.167,14.167-10.762,41.264,6.663,64.666C306.416,166.476,308.396,152.559,317.255,143.701z"/>
<path d="M375.121,310.564c0.349,0,0.703-0.018,1.058-0.055c25.173-2.618,47.498-13.022,64.562-30.084  c23.323-23.323,33.959-55.917,29.947-91.778c-3.917-35.012-21.515-69.735-49.555-97.774c-58.64-58.641-141.902-67.254-189.55-19.606  c-47.646,47.646-39.035,130.907,19.607,189.55c23.728,23.728,52.018,39.906,81.811,46.781c5.443,1.262,10.879-2.139,12.135-7.584  c1.258-5.446-2.139-10.879-7.584-12.137c-26.092-6.023-51.007-20.329-72.05-41.374c-50.617-50.617-59.228-121.306-19.606-160.928  c39.624-39.624,110.312-31.009,160.927,19.607c24.806,24.806,40.343,55.245,43.752,85.713c3.314,29.62-5.261,56.333-24.146,75.215  c-13.742,13.742-31.842,22.133-52.342,24.265c-5.559,0.579-9.597,5.554-9.02,11.112  C365.609,306.695,370.002,310.564,375.121,310.564z"/>
<path d="M402.432,215.406c10.449-10.447,14.131-25.962,10.37-43.688c-3.428-16.151-12.8-32.531-26.391-46.122  c-17.412-17.412-39.509-27.807-59.109-27.807c-12.375,0-22.991,4.075-30.7,11.783c-10.449,10.447-14.131,25.962-10.37,43.688  c3.428,16.152,12.8,32.531,26.391,46.122c17.412,17.412,39.509,27.807,59.109,27.807  C384.108,227.189,394.724,223.114,402.432,215.406z M306.032,149.059c-1.326-6.252-2.457-17.836,4.882-25.174  c4.84-4.84,11.583-5.856,16.388-5.856c14.136,0,31.301,8.384,44.797,21.88c10.856,10.856,18.28,23.646,20.904,36.013  c1.326,6.252,2.457,17.836-4.882,25.174c-4.84,4.84-11.583,5.856-16.388,5.856c-14.136,0-31.301-8.384-44.797-21.88  C316.08,174.216,308.657,161.426,306.032,149.059z"/>
<path d="M279.668,2.657c-5.496,1.012-9.133,6.288-8.121,11.783c1.011,5.496,6.277,9.134,11.783,8.121  c51.886-9.546,108.753,10.639,152.111,54.001c66.668,66.668,75.28,162.501,19.607,218.173  c-44.019,44.021-113.148,47.838-173.115,14.553c-21.766-12.081-41.117-28.348-57.169-47.348c-8.406-9.951-15.874-20.7-22.182-32.099  c-0.042-0.076-0.093-0.143-0.138-0.217c-12.004-21.741-19.35-45.057-21.332-68.557c-3.408-40.416,9.431-77.389,36.156-104.112  c9.232-9.233,19.773-16.889,31.332-22.754c4.983-2.53,6.973-8.619,4.444-13.603c-2.53-4.984-8.619-6.973-13.605-4.444  c-13.464,6.834-25.74,15.746-36.484,26.491c-31.009,31.009-45.929,73.671-42.012,120.125c2.024,23.995,8.998,47.761,20.331,70.111  L6.657,407.504c-1.761,1.761-2.81,4.108-2.948,6.597l-3.655,65.993c-0.464,8.382,2.457,16.353,8.225,22.448  C13.967,508.553,21.964,512,30.221,512c0.563,0,1.125-0.016,1.696-0.047l65.992-3.654c2.487-0.139,4.834-1.187,6.597-2.949  l31.895-31.895c1.897-1.897,2.963-4.471,2.963-7.155v-22.529h22.528c2.684,0,5.257-1.066,7.156-2.964l36.388-36.389  c1.897-1.898,2.963-4.471,2.963-7.155v-22.529h22.529c2.684,0,5.257-1.066,7.156-2.964l41.05-41.05  c27.425,13.896,56.416,20.959,84.454,20.957c39.537-0.003,77.169-14.024,105.776-42.631  c63.697-63.697,55.083-172.103-19.607-246.795C401.686,14.183,338.104-8.094,279.668,2.657z M226.735,354.496h-28.457  c-5.59,0-10.119,4.531-10.119,10.119v28.456l-30.459,30.461h-28.457c-5.59,0-10.119,4.531-10.119,10.119v28.456l-26.196,26.196  l-62.132,3.441c-2.976,0.171-5.775-0.955-7.816-3.114c-1.905-2.013-2.871-4.648-2.719-7.42l3.442-62.132  c0,0,167.981-167.981,167.983-167.983c-0.563,0.563,8.816,12.803,9.748,14.04c4.157,5.517,8.568,10.84,13.205,15.96  c0.31,0.343,0.617,0.688,0.93,1.028L54.166,443.529c-3.952,3.952-3.952,10.36,0,14.31c1.977,1.975,4.567,2.964,7.156,2.964  s5.18-0.988,7.156-2.964l161.405-161.403c5.035,4.618,10.277,9.026,15.712,13.169c0.127,0.097,0.252,0.197,0.379,0.293  c4.89,3.721,9.875,7.192,14.938,10.422L226.735,354.496z"/>
<g>
</g>
<g>
</g>
<g>
</g>
<g>
</g>
<g>
</g>
<g>
</g>
<g>
</g>
<g>
</g>
<g>
</g>
<g>
</g>
<g>
</g>
<g>
</g>
<g>
</g>
<g>
</g>
<g>
</g>
</svg>
