<?xml version="1.0" encoding="iso-8859-1"?>
<!-- Generator: Adobe Illustrator 19.0.0, SVG Export Plug-In . SVG Version: 6.00 Build 0)  -->
<svg xmlns="http://www.w3.org/2000/svg" xmlns:xlink="http://www.w3.org/1999/xlink" version="1.1" id="Layer_1" x="0px" y="0px" viewBox="0 0 512 512" style="enable-background:new 0 0 512 512;" xml:space="preserve">
<polygon style="fill:#515262;" points="442.222,8.533 391.619,8.533 240.457,170.667 240.457,170.667 138.459,8.533 21.943,8.533   21.943,502.248 488.838,502.248 488.838,44.314 "/>
<rect x="138.606" y="8.838" style="fill:#DCE5FA;" width="253.391" height="161.573"/>
<rect x="284.038" y="40.229" style="fill:#B4BBCC;" width="69.486" height="98.743"/>
<path style="fill:#FFFFFF;" d="M437.638,232.253c0-10.45-8.471-18.92-18.92-18.92H103.034c-10.448,0-18.92,8.471-18.92,18.92V441.88  c0,10.45,8.471,18.92,18.92,18.92h315.685c10.45,0,18.92-8.471,18.92-18.92V232.253z"/>
<g style="opacity:0.1;">
	<rect x="23.01" y="9.448" width="79.238" height="493.714"/>
</g>
<path d="M354.133,148.724c5.051,0,9.143-4.094,9.143-9.143V40.838c0-5.049-4.092-9.143-9.143-9.143h-69.486  c-5.051,0-9.143,4.094-9.143,9.143v98.743c0,5.049,4.092,9.143,9.143,9.143H354.133z M293.79,49.981h51.2v80.457h-51.2V49.981z"/>
<path d="M103.645,204.8c-15.475,0-28.064,12.589-28.064,28.064V442.49c0,15.473,12.589,28.063,28.064,28.063h315.683  c15.473,0,28.062-12.589,28.062-28.064V232.864c0-15.475-12.589-28.064-28.064-28.064H103.645z M429.105,232.864V442.49  c0,5.391-4.386,9.778-9.778,9.778H103.645c-5.392,0-9.778-4.386-9.778-9.778V232.864c0-5.391,4.386-9.778,9.778-9.778h315.683  C424.719,223.086,429.105,227.472,429.105,232.864z"/>
<path d="M401.067,256H121.905c-5.051,0-9.143,4.094-9.143,9.143c0,5.049,4.092,9.143,9.143,9.143h279.162  c5.051,0,9.143-4.094,9.143-9.143C410.21,260.094,406.117,256,401.067,256z"/>
<path d="M401.067,299.886H121.905c-5.051,0-9.143,4.094-9.143,9.143c0,5.049,4.092,9.143,9.143,9.143h279.162  c5.051,0,9.143-4.094,9.143-9.143C410.21,303.979,406.117,299.886,401.067,299.886z"/>
<path d="M401.067,343.771H121.905c-5.051,0-9.143,4.094-9.143,9.143s4.092,9.143,9.143,9.143h279.162  c5.051,0,9.143-4.094,9.143-9.143S406.117,343.771,401.067,343.771z"/>
<path d="M489.448,406.682c5.051,0,9.143-4.094,9.143-9.143V45.035c0-2.887-1.363-5.604-3.678-7.33l-48.14-35.892  C445.193,0.636,443.276,0,441.307,0H92.315c-5.051,0-9.143,4.094-9.143,9.143s4.092,9.143,9.143,9.143H128v152.99  c0,5.049,4.092,9.143,9.143,9.143h41.894c5.051,0,9.143-4.094,9.143-9.143c0-0.095-0.011-0.187-0.015-0.28  c0.002-0.094,0.015-0.187,0.015-0.28c0-5.049-4.092-9.143-9.143-9.143h-32.349V18.286h234.874v143.287H215.608  c-5.051,0-9.143,4.094-9.143,9.143c0,0.095,0.011,0.187,0.015,0.28c-0.002,0.094-0.015,0.187-0.015,0.28  c0,5.049,4.092,9.143,9.143,9.143h175.097c3.919,0,7.252-2.47,8.553-5.934c0.522-1.151,0.819-2.423,0.819-3.769V18.286h38.196  l42.032,31.338v347.915C480.305,402.588,484.397,406.682,489.448,406.682z"/>
<path d="M22.552,512h466.895c5.051,0,9.143-4.094,9.143-9.143V434.11c0-5.049-4.092-9.143-9.143-9.143  c-5.051,0-9.143,4.094-9.143,9.143v59.604H31.695V18.286h24.048c5.051,0,9.143-4.094,9.143-9.143S60.793,0,55.743,0H22.552  c-5.051,0-9.143,4.094-9.143,9.143v493.714C13.41,507.906,17.502,512,22.552,512z"/>
<g>
</g>
<g>
</g>
<g>
</g>
<g>
</g>
<g>
</g>
<g>
</g>
<g>
</g>
<g>
</g>
<g>
</g>
<g>
</g>
<g>
</g>
<g>
</g>
<g>
</g>
<g>
</g>
<g>
</g>
</svg>
