<?xml version="1.0" encoding="iso-8859-1"?>
<!-- Generator: Adobe Illustrator 19.0.0, SVG Export Plug-In . SVG Version: 6.00 Build 0)  -->
<svg xmlns="http://www.w3.org/2000/svg" xmlns:xlink="http://www.w3.org/1999/xlink" version="1.1" id="Layer_1" x="0px" y="0px" viewBox="0 0 512 512" style="enable-background:new 0 0 512 512;" xml:space="preserve">
<g>
	<polygon style="fill:#DCE5FA;" points="143.667,8.526 89.103,8.526 89.103,63.52 143.667,63.52 162.431,36.023  "/>
	<polygon style="fill:#DCE5FA;" points="143.667,63.52 89.103,63.52 89.103,118.514 143.667,118.514 162.431,91.018  "/>
	<polygon style="fill:#DCE5FA;" points="143.667,118.514 89.103,118.514 89.103,173.508 143.667,173.508 162.431,146.012  "/>
	<polygon style="fill:#DCE5FA;" points="143.667,173.508 89.103,173.508 89.103,228.503 143.667,228.503 162.431,201.006  "/>
	<polygon style="fill:#DCE5FA;" points="143.667,228.503 89.103,228.503 89.103,283.497 143.667,283.497 162.431,256.001  "/>
	<polygon style="fill:#DCE5FA;" points="143.667,283.497 89.103,283.497 89.103,338.491 143.667,338.491 162.431,310.995  "/>
	<polygon style="fill:#DCE5FA;" points="143.667,338.491 89.103,338.491 89.103,393.486 143.667,393.486 162.431,365.989  "/>
	<polygon style="fill:#DCE5FA;" points="143.667,393.486 89.103,393.486 89.103,448.48 143.667,448.48 162.431,420.983  "/>
	<polygon style="fill:#DCE5FA;" points="143.667,448.48 89.103,448.48 89.103,503.474 143.667,503.474 162.431,475.978  "/>
	<polygon style="fill:#DCE5FA;" points="368.333,8.526 422.897,8.526 422.897,63.52 368.333,63.52 349.569,36.023  "/>
	<polygon style="fill:#DCE5FA;" points="368.333,63.52 422.897,63.52 422.897,118.514 368.333,118.514 349.569,91.018  "/>
	<polygon style="fill:#DCE5FA;" points="368.333,118.514 422.897,118.514 422.897,173.508 368.333,173.508 349.569,146.012  "/>
	<polygon style="fill:#DCE5FA;" points="368.333,173.508 422.897,173.508 422.897,228.503 368.333,228.503 349.569,201.006  "/>
	<polygon style="fill:#DCE5FA;" points="368.333,228.503 422.897,228.503 422.897,283.497 368.333,283.497 349.569,256.001  "/>
	<polygon style="fill:#DCE5FA;" points="368.333,283.497 422.897,283.497 422.897,338.491 368.333,338.491 349.569,310.995  "/>
	<polygon style="fill:#DCE5FA;" points="368.333,338.491 422.897,338.491 422.897,393.486 368.333,393.486 349.569,365.989  "/>
	<polygon style="fill:#DCE5FA;" points="368.333,393.486 422.897,393.486 422.897,448.48 368.333,448.48 349.569,420.983  "/>
	<polygon style="fill:#DCE5FA;" points="368.333,448.48 422.897,448.48 422.897,503.474 368.333,503.474 349.569,475.978  "/>
</g>
<rect x="143.673" y="8.526" style="fill:#9DA4B3;" width="224.665" height="247.48"/>
<rect x="177.763" y="42.628" style="fill:#DCE5FA;" width="156.461" height="179.275"/>
<rect x="143.673" y="256.005" style="fill:#9DA4B3;" width="224.665" height="247.48"/>
<rect x="177.763" y="290.107" style="fill:#DCE5FA;" width="156.461" height="179.275"/>
<path d="M177.769,230.424h156.463c4.71,0,8.526-3.817,8.526-8.526V42.628c0-4.708-3.816-8.526-8.526-8.526H244.38  c-4.71,0-8.526,3.817-8.526,8.526s3.816,8.526,8.526,8.526h81.327v162.22H186.295V51.153h24.037c4.71,0,8.526-3.817,8.526-8.526  s-3.816-8.526-8.526-8.526h-32.563c-4.71,0-8.526,3.817-8.526,8.526v179.271C169.243,226.607,173.06,230.424,177.769,230.424z"/>
<path d="M177.769,477.898h156.463c4.71,0,8.526-3.817,8.526-8.526v-179.27c0-4.708-3.816-8.526-8.526-8.526h-26.979  c-4.71,0-8.526,3.817-8.526,8.526s3.816,8.526,8.526,8.526h18.454v162.22H186.295v-162.22h81.821c4.71,0,8.526-3.817,8.526-8.526  s-3.816-8.526-8.526-8.526h-90.347c-4.71,0-8.526,3.817-8.526,8.526v179.271C169.243,474.081,173.06,477.898,177.769,477.898z"/>
<path d="M422.897,0h-54.558h-0.006H143.668c0,0-0.003,0-0.006,0H89.103c-4.71,0-8.526,3.817-8.526,8.526v494.949  c0,4.708,3.816,8.526,8.526,8.526h54.563l0,0l0,0h224.666h54.563c4.71,0,8.526-3.817,8.526-8.526V8.526  C431.422,3.817,427.606,0,422.897,0z M135.141,494.949H97.629v-37.943h37.512V494.949z M135.141,439.955H97.629v-37.943h37.512  V439.955z M135.141,384.96H97.629v-37.943h37.512V384.96z M135.141,329.966H97.629v-37.943h37.512V329.966z M135.141,274.972H97.629  v-37.943h37.512V274.972z M135.141,219.977H97.629v-37.943h37.512V219.977z M135.141,164.983H97.629V127.04h37.512V164.983z   M135.141,109.989H97.629V72.045h37.512V109.989z M135.141,54.994H97.629V17.051h37.512V54.994z M359.808,494.949H152.194V264.526  h207.615v230.423H359.808z M359.808,247.475H152.194V17.051h207.615v230.424H359.808z M414.371,494.949h-37.512v-37.943h37.512  V494.949z M414.371,439.955h-37.512v-37.943h37.512V439.955z M414.371,384.96h-37.512v-37.943h37.512V384.96z M414.371,329.966  h-37.512v-37.943h37.512V329.966z M414.371,274.972h-37.512v-18.971V237.03h37.512V274.972z M414.371,219.977h-37.512v-37.943  h37.512V219.977z M414.371,164.983h-37.512V127.04h37.512V164.983z M414.371,109.989h-37.512V72.045h37.512V109.989z   M414.371,54.994h-37.512V17.051h37.512V54.994z"/>
<g>
</g>
<g>
</g>
<g>
</g>
<g>
</g>
<g>
</g>
<g>
</g>
<g>
</g>
<g>
</g>
<g>
</g>
<g>
</g>
<g>
</g>
<g>
</g>
<g>
</g>
<g>
</g>
<g>
</g>
</svg>
