<?xml version="1.0" encoding="iso-8859-1"?>
<!-- Generator: Adobe Illustrator 19.0.0, SVG Export Plug-In . SVG Version: 6.00 Build 0)  -->
<svg xmlns="http://www.w3.org/2000/svg" xmlns:xlink="http://www.w3.org/1999/xlink" version="1.1" id="Layer_1" x="0px" y="0px" viewBox="0 0 512.001 512.001" style="enable-background:new 0 0 512.001 512.001;" xml:space="preserve">
<path style="fill:#FFD782;" d="M139.541,63.758L88.934,13.15c-6.922-6.922-18.142-6.922-25.064,0L35.675,41.346  c-6.922,6.922-6.922,18.142,0,25.064l50.607,50.607c8.42,8.42,19.125,14.183,30.79,16.576l2.916,0.598l88.229,88.229l36.728-36.728  l-88.229-88.229l-0.598-2.916C153.724,82.882,147.96,72.176,139.541,63.758z"/>
<path style="opacity:0.1;enable-background:new    ;" d="M139.541,63.758L88.934,13.15c-6.922-6.922-18.142-6.922-25.064,0  L35.675,41.346c-6.922,6.922-6.922,18.142,0,25.064l50.607,50.607c8.42,8.42,19.125,14.183,30.79,16.576l2.916,0.598l88.229,88.229  l36.728-36.728l-88.229-88.229l-0.598-2.916C153.724,82.882,147.96,72.176,139.541,63.758z"/>
<g>
	<path style="fill:#FFD782;" d="M117.018,86.281L66.411,35.674c-6.922-6.922-18.142-6.922-25.064,0L13.151,63.869   c-6.922,6.922-6.922,18.142,0,25.064l50.607,50.607c8.42,8.42,19.125,14.183,30.79,16.576l2.916,0.598l88.229,88.229l36.728-36.728   l-88.229-88.229l-0.598-2.916C131.201,105.405,125.437,94.701,117.018,86.281z"/>
	<path style="fill:#FFD782;" d="M235.733,179.887c47.9-47.9,102.047,9.025,120.097,59.007c3.345,9.261,8.789,17.749,18.496,21.038   c9.025,3.058,19.158,2.082,28.527,2.343c42.629,1.187,90.543,27.388,99.416,72.036c5.135,25.835-1.308,54.066-13.884,76.883   c-6.303,11.436-14.338,21.874-23.566,31.101c-9.227,9.227-19.665,17.262-31.101,23.566c-22.817,12.576-51.048,19.018-76.883,13.884   c-44.648-8.873-70.849-56.787-72.036-99.416c-0.261-9.369,0.714-19.502-2.343-28.527c-3.288-9.707-11.777-15.152-21.038-18.496   c-49.982-18.049-106.907-72.197-59.007-120.097L235.733,179.887z"/>
</g>
<path style="opacity:0.1;enable-background:new    ;" d="M235.733,179.887c47.9-47.9,102.047,9.025,120.097,59.007  c3.345,9.261,8.789,17.749,18.496,21.038c9.025,3.058,19.158,2.082,28.527,2.343c42.629,1.187,90.543,27.388,99.416,72.036  c5.135,25.835-1.308,54.066-13.884,76.883c-6.303,11.436-14.338,21.874-23.566,31.101c-9.227,9.227-19.665,17.262-31.101,23.566  c-22.817,12.576-51.048,19.018-76.883,13.884c-44.648-8.873-70.849-56.787-72.036-99.416c-0.261-9.369,0.714-19.502-2.343-28.527  c-3.288-9.707-11.777-15.152-21.038-18.496c-49.982-18.049-106.907-72.197-59.007-120.097L235.733,179.887z"/>
<path style="fill:#FFE3A6;" d="M213.21,202.411c47.9-47.9,102.047,9.025,120.097,59.007c3.345,9.261,8.789,17.749,18.497,21.038  c9.025,3.058,19.158,2.082,28.527,2.343c42.629,1.187,90.543,27.388,99.416,72.036c5.135,25.835-1.308,54.066-13.884,76.883  c-6.303,11.436-14.338,21.874-23.566,31.101c-9.228,9.227-19.665,17.262-31.101,23.566c-22.817,12.575-51.048,19.018-76.883,13.884  c-44.648-8.873-70.849-56.787-72.036-99.416c-0.261-9.369,0.714-19.502-2.343-28.527c-3.288-9.707-11.777-15.152-21.038-18.496  c-49.982-18.049-106.907-72.197-59.007-120.097L213.21,202.411z"/>
<circle style="opacity:0.1;enable-background:new    ;" cx="302.911" cy="325.43" r="33.812"/>
<path d="M302.903,283.657c-11.159,0-21.649,4.345-29.539,12.236c-7.891,7.89-12.236,18.381-12.236,29.539  s4.346,21.649,12.236,29.539c7.89,7.891,18.381,12.236,29.539,12.236c11.158,0,21.649-4.346,29.539-12.236  c16.288-16.287,16.288-42.791,0-59.078C324.552,288.003,314.062,283.657,302.903,283.657z M321.181,343.71  c-4.882,4.882-11.374,7.571-18.278,7.571c-6.905,0-13.396-2.689-18.278-7.571c-4.882-4.882-7.571-11.374-7.571-18.277  c0-6.905,2.689-13.396,7.571-18.278s11.374-7.57,18.278-7.57c6.905,0,13.396,2.688,18.278,7.57  C331.26,317.233,331.26,333.632,321.181,343.71z"/>
<path d="M352.567,421.643c2.038,0,4.076-0.777,5.631-2.333l38.584-38.584c3.11-3.11,3.11-8.152,0-11.261  c-3.11-3.11-8.152-3.11-11.261,0l-38.584,38.584c-3.11,3.11-3.11,8.152,0,11.261C348.491,420.865,350.528,421.643,352.567,421.643z"/>
<path d="M510.077,332.762c-2.448-12.32-7.688-23.845-15.574-34.256c-2.654-3.505-7.649-4.195-11.156-1.54  c-3.506,2.654-4.195,7.65-1.54,11.156c6.417,8.474,10.674,17.809,12.649,27.745c3.549,17.862,1.219,38.104-6.371,57.312  c0.016-0.103,0.025-0.205,0.041-0.308c0.228-1.513,0.432-3.025,0.602-4.534c0.003-0.03,0.005-0.058,0.01-0.087  c1.224-10.949,0.966-22.142-1.184-32.963c-4.559-22.943-18.544-42.788-40.442-57.389c-19.098-12.735-43.359-20.409-66.562-21.055  c-2.32-0.065-4.667-0.058-6.936-0.051c-6.994,0.022-13.599,0.04-19.256-1.874c-11.261-3.814-13.823-17.785-18.102-27.372  c-5.299-11.873-12.006-23.22-19.975-33.496c-15.379-19.835-37.26-37.299-63.46-37.657c-0.042-0.001-0.086-0.004-0.128-0.005  c9.803-6.091,20.102-7.974,30.748-5.602c28.079,6.262,53.903,40.367,64.9,70.819c4.898,13.561,12.781,22.267,23.431,25.875  c8.164,2.766,16.8,2.738,24.417,2.717c2.248-0.005,4.371-0.014,6.444,0.045c22.149,0.617,44.789,8.336,62.114,21.178  c3.532,2.618,8.52,1.878,11.139-1.655c2.619-3.534,1.878-8.521-1.655-11.139c-19.885-14.74-45.819-23.599-71.156-24.305  c-2.319-0.065-4.666-0.059-6.934-0.051c-7.001,0.025-13.604,0.041-19.259-1.875c-5.912-2.002-10.349-7.302-13.562-16.2  c-12.089-33.478-41.158-73.092-76.413-80.954c-17.192-3.834-33.971,0.358-49.032,12.125l-73.839-73.839l-0.118-0.574  c-2.714-13.23-9.196-25.271-18.745-34.82L94.563,7.524C89.711,2.672,83.262,0,76.401,0C69.54,0,63.09,2.672,58.238,7.524  L35.743,30.018c-0.01,0.01-0.019,0.019-0.029,0.029L7.518,58.243c-10.016,10.015-10.016,26.31,0,36.325L21.55,108.6  c3.11,3.111,8.152,3.11,11.261,0c3.11-3.11,3.11-8.152,0-11.261c0,0-14.024-14.024-14.032-14.032  c-3.753-3.753-3.745-10.056,0-13.803c0,0,28.188-28.188,28.196-28.196c3.679-3.679,10.05-3.753,13.802,0l50.607,50.607  c7.339,7.339,12.32,16.591,14.405,26.758c0.522,2.547,0.844,5.023,2.768,6.947l75.091,75.091l-25.466,25.466  c0,0-75.04-75.04-75.091-75.091c-1.909-1.909-4.428-2.251-6.947-2.768c-10.166-2.085-19.42-7.067-26.758-14.405l-14.049-14.051  c-3.11-3.11-8.152-3.11-11.261,0c-3.11,3.11-3.11,8.152,0,11.261l14.051,14.051c9.549,9.549,21.59,16.032,34.821,18.745l0.574,0.118  l73.826,73.826c-8.891,11.326-13.425,23.515-13.498,36.348c-0.079,13.803,4.992,27.679,15.074,41.243  c2.625,3.53,7.612,4.265,11.142,1.64c3.529-2.624,4.264-7.612,1.64-11.142c-16.712-22.484-15.965-43.643,2.198-62.921  c0.032-0.032,0.067-0.061,0.098-0.093c0.497-0.526,0.995-1.052,1.516-1.574l33.321-33.321c5.112-5.111,11.004-9.599,17.679-12.462  c0.057-0.024,0.114-0.048,0.171-0.072c7.818-3.314,15.917-4.059,24.227-2.204c28.079,6.262,53.902,40.367,64.899,70.819  c4.591,12.714,11.808,21.16,21.467,25.138c0.643,0.265,1.299,0.511,1.964,0.736c8.163,2.766,16.802,2.74,24.415,2.717  c2.246-0.006,4.371-0.013,6.446,0.045c38.405,1.068,83.639,24.433,91.826,65.627c4.438,22.333-0.317,48.389-13.048,71.487  c-3.51,6.368-7.611,12.41-12.162,18.079c-0.022,0.028-0.04,0.058-0.063,0.086c-3.09,3.846-6.419,7.571-9.998,11.15  c-8.968,8.968-18.83,16.445-29.314,22.223c-23.098,12.73-49.152,17.486-71.487,13.048c-41.194-8.187-64.558-53.422-65.627-91.826  c-0.057-2.073-0.051-4.196-0.045-6.443c0.022-7.619,0.049-16.253-2.717-24.418c-3.608-10.652-12.313-18.535-25.875-23.431  c-13.477-4.866-27.281-12.479-38.869-21.436c-3.479-2.689-8.481-2.049-11.171,1.431c-2.689,3.479-2.049,8.48,1.431,11.171  c12.863,9.942,28.206,18.4,43.2,23.814c8.898,3.213,14.197,7.649,16.199,13.562c5.139,15.169,1.251,32.208,4.493,47.892  c3.287,15.899,9.47,31.34,18.487,44.865c14.6,21.898,34.446,35.882,57.388,40.442c6.466,1.285,13.184,1.918,20.032,1.918  c20.64,0,42.474-5.74,62.247-16.638c11.795-6.501,22.861-14.882,32.888-24.909c3.83-3.83,7.415-7.814,10.752-11.929  c4.117-3.347,8.079-6.901,11.772-10.594c10.027-10.028,18.408-21.094,24.909-32.889  C509.871,388.708,515.236,358.719,510.077,332.762z M122.646,80.653L72.039,30.047c-1.28-1.28-2.692-2.397-4.202-3.391  c-1.29-0.839-2.64-1.569-4.05-2.159l5.712-5.712c1.843-1.842,4.294-2.858,6.901-2.858c2.607,0,5.057,1.016,6.901,2.858  l50.607,50.607c7.339,7.339,12.321,16.592,14.405,26.76l0.598,2.916c0.313,1.527,1.068,2.928,2.17,4.03l75.091,75.091  l-11.262,11.262l-73.402-73.402l-0.118-0.575C138.677,102.243,132.196,90.204,122.646,80.653z"/>
<g>
</g>
<g>
</g>
<g>
</g>
<g>
</g>
<g>
</g>
<g>
</g>
<g>
</g>
<g>
</g>
<g>
</g>
<g>
</g>
<g>
</g>
<g>
</g>
<g>
</g>
<g>
</g>
<g>
</g>
</svg>
