<?xml version="1.0" encoding="iso-8859-1"?>
<!-- Generator: Adobe Illustrator 19.0.0, SVG Export Plug-In . SVG Version: 6.00 Build 0)  -->
<svg xmlns="http://www.w3.org/2000/svg" xmlns:xlink="http://www.w3.org/1999/xlink" version="1.1" id="Layer_1" x="0px" y="0px" viewBox="0 0 512.001 512.001" style="enable-background:new 0 0 512.001 512.001;" xml:space="preserve">
<path style="fill:#7DD2F0;" d="M203.724,76.795H21.021c-6.819,0-12.347,5.527-12.347,12.347v80.465  c0,6.819,5.528,12.347,12.347,12.347h182.704c6.819,0,12.347-5.527,12.347-12.347V89.143  C216.072,82.323,210.543,76.795,203.724,76.795z"/>
<path style="opacity:0.1;enable-background:new    ;" d="M54.925,169.608V89.143c0-6.819,5.528-12.347,12.347-12.347H21.02  c-6.819,0-12.347,5.527-12.347,12.347v80.465c0,6.819,5.528,12.347,12.347,12.347h46.253  C60.454,181.955,54.925,176.426,54.925,169.608z"/>
<path style="fill:#78C9E6;" d="M215.288,216.939H78.837c-6.819,0-12.347,5.528-12.347,12.348v62.439  c0,6.819,5.528,12.347,12.347,12.347h136.451c6.819,0,12.347-5.527,12.347-12.347v-62.439  C227.635,222.468,222.106,216.939,215.288,216.939z"/>
<path style="opacity:0.1;enable-background:new    ;" d="M112.741,291.727v-62.439c0-6.819,5.528-12.348,12.347-12.348H78.836  c-6.819,0-12.347,5.528-12.347,12.348v62.439c0,6.819,5.528,12.347,12.347,12.347h46.253  C118.27,304.074,112.741,298.547,112.741,291.727z"/>
<path style="fill:#6AB2CC;" d="M226.851,348.072H90.4c-6.819,0-12.347,5.528-12.347,12.348v62.439  c0,6.818,5.528,12.347,12.347,12.347h136.451c6.819,0,12.347-5.528,12.347-12.347v-62.439  C239.198,353.601,233.67,348.072,226.851,348.072z"/>
<path style="opacity:0.1;enable-background:new    ;" d="M124.305,422.858v-62.439c0-6.819,5.528-12.348,12.347-12.348H90.399  c-6.819,0-12.347,5.528-12.347,12.348v62.439c0,6.818,5.528,12.347,12.347,12.347h46.253  C129.833,435.206,124.305,429.677,124.305,422.858z"/>
<path style="fill:#7DD2F0;" d="M308.276,76.795h182.704c6.819,0,12.347,5.527,12.347,12.347v80.465  c0,6.819-5.528,12.347-12.347,12.347H308.276c-6.819,0-12.347-5.527-12.347-12.347V89.143  C295.93,82.323,301.457,76.795,308.276,76.795z"/>
<path style="fill:#78C9E6;" d="M296.712,216.939h136.451c6.819,0,12.347,5.528,12.347,12.348v62.439  c0,6.819-5.528,12.347-12.347,12.347H296.712c-6.819,0-12.347-5.527-12.347-12.347v-62.439  C284.366,222.468,289.894,216.939,296.712,216.939z"/>
<path style="fill:#6AB2CC;" d="M285.15,348.072h136.451c6.819,0,12.347,5.528,12.347,12.348v62.439  c0,6.818-5.528,12.347-12.347,12.347H285.15c-6.819,0-12.347-5.528-12.347-12.347v-62.439  C272.803,353.601,278.33,348.072,285.15,348.072z"/>
<path style="opacity:0.1;enable-background:new    ;" d="M342.182,169.608V89.143c0-6.819,5.528-12.347,12.347-12.347h-46.253  c-6.819,0-12.347,5.527-12.347,12.347v80.465c0,6.819,5.528,12.347,12.347,12.347h46.253  C347.71,181.955,342.182,176.426,342.182,169.608z"/>
<path style="opacity:0.1;enable-background:new    ;" d="M330.619,291.727v-62.439c0-6.819,5.528-12.348,12.347-12.348h-46.253  c-6.819,0-12.347,5.528-12.347,12.348v62.439c0,6.819,5.528,12.347,12.347,12.347h46.253  C336.146,304.074,330.619,298.547,330.619,291.727z"/>
<path style="opacity:0.1;enable-background:new    ;" d="M319.056,422.858v-62.439c0-6.819,5.528-12.348,12.347-12.348H285.15  c-6.819,0-12.347,5.528-12.347,12.348v62.439c0,6.818,5.528,12.347,12.347,12.347h46.253  C324.583,435.206,319.056,429.677,319.056,422.858z"/>
<path d="M203.724,190.626H21.021C9.43,190.626,0,181.197,0,169.608V89.143c0-11.59,9.43-21.02,21.021-21.02h33.662  c4.791,0,8.672,3.882,8.672,8.672c0,4.791-3.882,8.672-8.672,8.672H21.021c-2.027,0-3.676,1.649-3.676,3.675v80.465  c0,2.026,1.649,3.675,3.676,3.675h182.704c2.026,0,3.675-1.649,3.675-3.675V89.143c0-2.026-1.649-3.675-3.675-3.675H89.372  c-4.791,0-8.672-3.882-8.672-8.672s3.882-8.672,8.672-8.672h114.352c11.59,0,21.02,9.429,21.02,21.02v80.465  C224.743,181.197,215.314,190.626,203.724,190.626z"/>
<path d="M215.288,312.747H78.837c-11.59,0-21.021-9.429-21.021-21.02v-62.439c0-11.59,9.43-21.021,21.021-21.021h136.451  c11.59,0,21.02,9.43,21.02,21.021v62.439C236.306,303.318,226.877,312.747,215.288,312.747z M78.837,225.612  c-2.027,0-3.676,1.649-3.676,3.676v62.439c0,2.026,1.649,3.675,3.676,3.675h136.451c2.026,0,3.675-1.649,3.675-3.675v-62.439  c0-2.027-1.649-3.676-3.675-3.676H78.837z"/>
<path d="M226.851,443.878H90.4c-11.591,0-21.021-9.429-21.021-21.02v-62.439c0-11.59,9.43-21.021,21.021-21.021h136.451  c11.59,0,21.02,9.43,21.02,21.021v62.439C247.869,434.449,238.441,443.878,226.851,443.878z M90.4,356.745  c-2.027,0-3.676,1.649-3.676,3.676v62.439c0,2.026,1.649,3.675,3.676,3.675h136.451c2.026,0,3.675-1.649,3.675-3.675v-62.439  c0-2.027-1.649-3.676-3.675-3.676L90.4,356.745L90.4,356.745z"/>
<path d="M490.979,190.626H308.277c-11.59,0-21.02-9.429-21.02-21.02V89.143c0-11.59,9.429-21.02,21.02-21.02H490.98  c11.59,0,21.021,9.429,21.021,21.02v80.465C512,181.197,502.57,190.626,490.979,190.626z M308.277,85.468  c-2.026,0-3.675,1.649-3.675,3.675v80.465c0,2.026,1.649,3.675,3.675,3.675H490.98c2.027,0,3.676-1.649,3.676-3.675V89.143  c0-2.026-1.649-3.675-3.676-3.675H308.277z"/>
<path d="M433.163,312.747h-136.45c-11.59,0-21.02-9.429-21.02-21.02v-62.439c0-11.59,9.429-21.021,21.02-21.021h136.451  c11.59,0,21.021,9.43,21.021,21.021v62.439C454.184,303.318,444.754,312.747,433.163,312.747z M296.714,225.612  c-2.026,0-3.675,1.649-3.675,3.676v62.439c0,2.026,1.649,3.675,3.675,3.675h136.451c2.027,0,3.676-1.649,3.676-3.675v-62.439  c0-2.027-1.649-3.676-3.676-3.676H296.714z"/>
<path d="M421.6,443.878h-29.273c-4.791,0-8.672-3.882-8.672-8.672s3.882-8.672,8.672-8.672H421.6c2.027,0,3.676-1.649,3.676-3.675  v-62.439c0-2.027-1.649-3.676-3.676-3.676H285.15c-2.026,0-3.675,1.649-3.675,3.676v62.439c0,2.026,1.649,3.675,3.675,3.675h72.488  c4.791,0,8.672,3.882,8.672,8.672c0,4.791-3.882,8.672-8.672,8.672H285.15c-11.59,0-21.02-9.429-21.02-21.02v-62.439  c0-11.59,9.429-21.021,21.02-21.021h136.451c11.59,0,21.021,9.43,21.021,21.021v62.439  C442.621,434.449,433.191,443.878,421.6,443.878z"/>
<g>
</g>
<g>
</g>
<g>
</g>
<g>
</g>
<g>
</g>
<g>
</g>
<g>
</g>
<g>
</g>
<g>
</g>
<g>
</g>
<g>
</g>
<g>
</g>
<g>
</g>
<g>
</g>
<g>
</g>
</svg>
