<?xml version="1.0" encoding="iso-8859-1"?>
<!-- Generator: Adobe Illustrator 19.0.0, SVG Export Plug-In . SVG Version: 6.00 Build 0)  -->
<svg xmlns="http://www.w3.org/2000/svg" xmlns:xlink="http://www.w3.org/1999/xlink" version="1.1" id="Layer_1" x="0px" y="0px" viewBox="0 0 511.999 511.999" style="enable-background:new 0 0 511.999 511.999;" xml:space="preserve">
<polygon style="fill:#6AB2CC;" points="53.929,387.978 8.571,464.375 503.431,464.375 458.073,387.978 "/>
<polygon style="fill:#71BDD9;" points="117.358,281.143 75.04,352.419 436.961,352.419 394.643,281.143 "/>
<polygon style="fill:#7DD2F0;" points="310.102,138.748 256.001,47.625 201.9,138.748 "/>
<polygon style="fill:#78C9E6;" points="180.788,174.307 138.47,245.584 373.531,245.584 331.213,174.307 "/>
<polygon style="opacity:0.1;enable-background:new    ;" points="245.183,138.748 256.001,47.625 201.9,138.748 "/>
<polygon style="opacity:0.1;enable-background:new    ;" points="240.962,174.307 180.788,174.307 138.47,245.584 232.501,245.584   "/>
<polygon style="opacity:0.1;enable-background:new    ;" points="228.279,281.143 117.358,281.143 75.04,352.419 219.818,352.419   "/>
<polygon style="opacity:0.1;enable-background:new    ;" points="215.597,387.978 53.929,387.978 8.571,464.375 206.527,464.375 "/>
<path d="M503.431,472.946H117.35c-4.734,0-8.57-3.837-8.57-8.57c0-4.733,3.836-8.57,8.57-8.57h371.025l-35.182-59.256H58.807  l-35.181,59.256H83.07c4.734,0,8.57,3.837,8.57,8.57c0,4.733-3.836,8.57-8.57,8.57H8.571c-3.081,0-5.925-1.654-7.448-4.331  c-1.524-2.677-1.495-5.966,0.078-8.615l45.357-76.397c1.545-2.601,4.346-4.195,7.369-4.195h404.145c3.024,0,5.826,1.594,7.369,4.195  L510.799,460c1.572,2.649,1.602,5.939,0.078,8.616C509.355,471.293,506.512,472.946,503.431,472.946z"/>
<path d="M436.961,360.99H366.14c-4.734,0-8.57-3.837-8.57-8.57c0-4.733,3.836-8.57,8.57-8.57h55.765l-32.141-54.136H122.238  l-32.142,54.136h241.764c4.734,0,8.57,3.837,8.57,8.57c0,4.733-3.836,8.57-8.57,8.57H75.04c-3.081,0-5.925-1.653-7.448-4.331  c-1.524-2.677-1.495-5.966,0.078-8.616l42.318-71.277c1.545-2.601,4.346-4.195,7.369-4.195h277.285c3.024,0,5.826,1.594,7.369,4.195  l42.317,71.277c1.572,2.649,1.602,5.938,0.078,8.615C442.885,359.336,440.042,360.99,436.961,360.99z"/>
<path d="M310.102,147.318H201.9c-3.081,0-5.925-1.654-7.448-4.331c-1.524-2.677-1.495-5.966,0.078-8.616l54.102-91.123  c1.545-2.601,4.346-4.195,7.369-4.195c3.024,0,5.826,1.594,7.369,4.195l54.102,91.123c1.572,2.649,1.602,5.939,0.078,8.616  C316.027,145.665,313.182,147.318,310.102,147.318z M216.954,130.178h78.093L256,64.412L216.954,130.178z"/>
<path d="M373.531,254.154H220.07c-4.734,0-8.57-3.837-8.57-8.57c0-4.733,3.836-8.57,8.57-8.57h138.406l-32.142-54.136H185.666  l-32.142,54.136h33.071c4.734,0,8.57,3.837,8.57,8.57c0,4.733-3.836,8.57-8.57,8.57h-48.126c-3.081,0-5.925-1.654-7.448-4.331  c-1.524-2.677-1.495-5.966,0.078-8.615l42.318-71.278c1.545-2.601,4.346-4.195,7.369-4.195h150.425c3.024,0,5.826,1.594,7.369,4.195  l42.318,71.278c1.572,2.649,1.602,5.938,0.078,8.615C379.455,252.501,376.612,254.154,373.531,254.154z"/>
<g>
</g>
<g>
</g>
<g>
</g>
<g>
</g>
<g>
</g>
<g>
</g>
<g>
</g>
<g>
</g>
<g>
</g>
<g>
</g>
<g>
</g>
<g>
</g>
<g>
</g>
<g>
</g>
<g>
</g>
</svg>
