<?xml version="1.0" encoding="iso-8859-1"?>
<!-- Generator: Adobe Illustrator 19.0.0, SVG Export Plug-In . SVG Version: 6.00 Build 0)  -->
<svg xmlns="http://www.w3.org/2000/svg" xmlns:xlink="http://www.w3.org/1999/xlink" version="1.1" id="Layer_1" x="0px" y="0px" viewBox="0 0 512 512" style="enable-background:new 0 0 512 512;" xml:space="preserve">
<g>
	<rect x="41.305" y="56.045" style="fill:#FFFFFF;" width="263.754" height="264.676"/>
	<rect x="206.619" y="188.377" style="fill:#FFFFFF;" width="263.754" height="264.676"/>
</g>
<path style="fill:#B4BBCC;" d="M312.29,17.443H34.071c-14.476,0-26.209,11.734-26.209,26.209v289.459  c0,14.475,11.733,26.209,26.209,26.209H312.29c14.475,0,26.209-11.734,26.209-26.209V43.652  C338.499,29.178,326.763,17.443,312.29,17.443z M60.28,170.262h86.692v36.239H60.28V170.262z M286.081,117.845H199.39V69.861h86.691  V117.845z M146.972,69.861v47.984H60.28V69.861H146.972z M60.28,258.919h86.692v47.984H60.28V258.919z"/>
<path style="fill:#C7CFE2;" d="M477.929,152.68H199.71c-14.476,0-26.209,11.734-26.209,26.209v289.459  c0,14.475,11.733,26.209,26.209,26.209h278.219c14.475,0,26.209-11.734,26.209-26.209V178.889  C504.137,164.414,492.402,152.68,477.929,152.68z M365.028,305.499h86.691v36.239h-86.691V305.499z M451.72,253.081h-86.691v-47.984  h86.691V253.081z M225.919,394.155h86.692v47.984h-86.692V394.155z M365.028,442.139v-47.984h86.691v47.984H365.028z"/>
<g>
	<rect x="225.919" y="305.499" style="fill:#7DD2F0;" width="86.688" height="36.239"/>
	<rect x="225.919" y="205.099" style="fill:#7DD2F0;" width="86.688" height="47.984"/>
</g>
<path d="M286.081,125.706c4.343,0,7.863-3.519,7.863-7.863V69.861c0-4.343-3.519-7.863-7.863-7.863H199.39  c-4.343,0-7.863,3.519-7.863,7.863v47.984c0,4.343,3.519,7.863,7.863,7.863h86.691V125.706z M207.252,77.723h70.966v32.259h-70.966  V77.723z"/>
<path d="M154.835,69.861c0-4.343-3.519-7.863-7.863-7.863H60.28c-4.343,0-7.863,3.519-7.863,7.863v47.984  c0,4.343,3.519,7.863,7.863,7.863h86.692c4.343,0,7.863-3.519,7.863-7.863V69.861z M139.109,109.981H68.143V77.723h70.967V109.981z"/>
<path d="M154.835,170.261c0-4.342-3.519-7.863-7.863-7.863H60.28c-4.343,0-7.863,3.52-7.863,7.863V206.5  c0,4.343,3.519,7.863,7.863,7.863h86.692c4.343,0,7.863-3.519,7.863-7.863V170.261z M139.109,198.639H68.143v-20.514h70.967V198.639  z"/>
<path d="M146.972,251.056H60.28c-4.343,0-7.863,3.52-7.863,7.863v47.984c0,4.342,3.519,7.863,7.863,7.863h86.692  c4.343,0,7.863-3.52,7.863-7.863v-47.984C154.835,254.576,151.315,251.056,146.972,251.056z M139.109,299.04H68.143v-32.259h70.967  V299.04z"/>
<path d="M312.611,386.293h-86.692c-4.343,0-7.863,3.52-7.863,7.863v47.984c0,4.342,3.519,7.863,7.863,7.863h86.692  c4.343,0,7.863-3.52,7.863-7.863v-47.984C320.473,389.813,316.954,386.293,312.611,386.293z M304.748,434.277h-70.967v-32.259  h70.967V434.277z"/>
<path d="M165.639,468.348c0,18.787,15.284,34.071,34.071,34.071h213.678c4.343,0,7.863-3.52,7.863-7.863s-3.519-7.863-7.863-7.863  H199.71c-10.115,0-18.346-8.231-18.346-18.346V359.32V178.889c0-10.116,8.231-18.346,18.346-18.346h278.219  c10.115,0,18.346,8.231,18.346,18.346v289.459c0,10.115-8.231,18.346-18.346,18.346H444.84c-4.343,0-7.863,3.52-7.863,7.863  s3.519,7.863,7.863,7.863h33.089c18.787,0,34.071-15.284,34.071-34.071V178.889c0-18.787-15.284-34.071-34.071-34.071H346.361  V43.652c0-18.787-15.284-34.071-34.071-34.071H113.054c-4.343,0-7.863,3.519-7.863,7.863c0,4.342,3.519,7.863,7.863,7.863H312.29  c10.115,0,18.346,8.231,18.346,18.346v101.165H199.71c-18.787,0-34.071,15.284-34.071,34.071v172.568H34.071  c-10.115,0-18.346-8.231-18.346-18.346V43.652c0-10.115,8.231-18.346,18.346-18.346h47.532c4.343,0,7.863-3.52,7.863-7.863  c0-4.343-3.519-7.863-7.863-7.863H34.071C15.284,9.581,0,24.865,0,43.652v289.459c0,18.786,15.284,34.071,34.071,34.071h131.568  V468.348z"/>
<path d="M357.165,442.139c0,4.342,3.519,7.863,7.863,7.863h86.691c4.343,0,7.863-3.52,7.863-7.863v-47.984  c0-4.342-3.519-7.863-7.863-7.863h-86.691c-4.343,0-7.863,3.52-7.863,7.863V442.139z M372.891,402.018h70.966v32.259h-70.966  V402.018z"/>
<path d="M320.473,305.498c0-4.342-3.519-7.863-7.863-7.863h-86.692c-4.343,0-7.863,3.52-7.863,7.863v36.239  c0,4.343,3.519,7.863,7.863,7.863h86.692c4.343,0,7.863-3.519,7.863-7.863V305.498z M304.748,333.875h-70.967v-20.514h70.967  V333.875z"/>
<path d="M365.028,260.943h86.691c4.343,0,7.863-3.519,7.863-7.863v-47.984c0-4.343-3.519-7.863-7.863-7.863h-86.691  c-4.343,0-7.863,3.519-7.863,7.863v47.984C357.165,257.424,360.686,260.943,365.028,260.943z M372.891,212.96h70.966v32.259h-70.966  V212.96z"/>
<path d="M320.473,205.098c0-4.343-3.519-7.863-7.863-7.863h-86.692c-4.343,0-7.863,3.519-7.863,7.863v47.984  c0,4.343,3.519,7.863,7.863,7.863h86.692c4.343,0,7.863-3.519,7.863-7.863V205.098z M304.748,245.218h-70.967v-32.259h70.967  V245.218z"/>
<path d="M357.165,341.738c0,4.343,3.519,7.863,7.863,7.863h86.691c4.343,0,7.863-3.519,7.863-7.863v-36.239  c0-4.342-3.519-7.863-7.863-7.863h-86.691c-4.343,0-7.863,3.52-7.863,7.863V341.738z M372.891,313.36h70.966v20.514h-70.966V313.36z  "/>
<g>
</g>
<g>
</g>
<g>
</g>
<g>
</g>
<g>
</g>
<g>
</g>
<g>
</g>
<g>
</g>
<g>
</g>
<g>
</g>
<g>
</g>
<g>
</g>
<g>
</g>
<g>
</g>
<g>
</g>
</svg>
