<?xml version="1.0" encoding="iso-8859-1"?>
<!-- Generator: Adobe Illustrator 19.0.0, SVG Export Plug-In . SVG Version: 6.00 Build 0)  -->
<svg xmlns="http://www.w3.org/2000/svg" xmlns:xlink="http://www.w3.org/1999/xlink" version="1.1" id="Layer_1" x="0px" y="0px" viewBox="0 0 512.001 512.001" style="enable-background:new 0 0 512.001 512.001;" xml:space="preserve">
<path style="fill:#A9AFBF;" d="M259.486,262.366c0.001-0.001,0.002-0.003,0.003-0.004l-41.697,5.995l-8.785-41.593L363.142,8.187  C420.686,48.766,311.782,189.071,259.486,262.366z"/>
<path style="fill:#CC5051;" d="M255.208,268.394c1.378-1.954,2.809-3.968,4.281-6.033l-50.482-35.598l-49.744,70.542  c0.002,0,0.003,0,0.005,0c-0.491-0.01-0.978-0.037-1.472-0.037c-40.593,0-73.618,33.025-73.618,73.619v59.305  c0,40.593,33.025,73.618,73.618,73.618c40.594,0,73.619-33.025,73.619-73.618v-59.305c0-12.978-3.389-25.173-9.306-35.771  c0,0.001,0.001,0.002,0.002,0.003C226.776,317.504,236.389,295.081,255.208,268.394z M188.592,430.194  c0,16.979-13.814,30.792-30.794,30.792c-16.979,0-30.792-13.814-30.792-30.792v-59.305c0-16.98,13.814-30.794,30.792-30.794  c16.98,0,30.794,13.814,30.794,30.794L188.592,430.194L188.592,430.194z"/>
<path style="fill:#C7CFE2;" d="M252.516,262.366c-0.001-0.001-0.002-0.003-0.003-0.004l41.697,5.995l8.785-41.593L148.861,8.187  C91.316,48.766,200.22,189.071,252.516,262.366z"/>
<path style="fill:#E65A5B;" d="M354.204,297.269c-0.495,0-0.981,0.027-1.474,0.037h0.007l-49.744-70.542l-50.482,35.598  c1.473,2.064,2.904,4.078,4.281,6.033c18.819,26.688,28.432,49.109,33.096,66.724c-5.918,10.598-9.305,22.793-9.305,35.768v59.305  c0,40.593,33.025,73.618,73.619,73.618c40.593,0,73.618-33.025,73.618-73.618v-59.305  C427.822,330.294,394.797,297.269,354.204,297.269z M384.997,430.194c0,16.979-13.814,30.792-30.792,30.792  c-16.98,0-30.794-13.814-30.794-30.792v-59.305c0-16.98,13.814-30.794,30.794-30.794c16.979,0,30.792,13.814,30.792,30.794V430.194z  "/>
<path d="M356.989,289.128l-47.305-67.082l-5.55-7.871c45.85-65.073,90.431-136.73,82.637-182.131  c-2.23-12.993-8.592-23.271-18.91-30.546c-1.775-1.252-3.976-1.748-6.113-1.378c-2.141,0.37-4.046,1.574-5.297,3.349  L256.001,145.918L155.551,3.469c-1.251-1.775-3.156-2.979-5.297-3.349c-2.137-0.369-4.337,0.126-6.113,1.378  c-10.386,7.324-16.761,17.686-18.952,30.8c-7.721,46.234,38.553,119.372,82.67,181.89l-5.542,7.86l-47.305,67.084  c-43.821,1.476-79.02,37.585-79.02,81.76v59.305c0,45.107,36.697,81.806,81.806,81.806s81.807-36.697,81.807-81.806V370.89  c0-12.745-3.011-25.369-8.732-36.723c4.803-16.582,13.239-34.143,25.13-52.357c11.886,18.208,20.323,35.769,25.128,52.356  c-5.721,11.354-8.732,23.978-8.732,36.723v59.307c0,45.107,36.698,81.806,81.807,81.806c45.107,0,81.806-36.697,81.806-81.806  v-59.307C436.01,326.711,400.815,290.6,356.989,289.128z M364.474,20.506c3.158,3.927,5.189,8.661,6.158,14.306  c3.065,17.853-4.502,44.415-22.493,78.948c-15.479,29.715-36.219,60.766-54.029,86.2l-28.091-39.836L364.474,20.506z   M214.256,332.802c-0.526,1.791-0.441,3.751,0.329,5.541c0.122,0.285,0.26,0.561,0.412,0.827c5.387,9.669,8.233,20.635,8.233,31.718  v59.305c0,36.078-29.353,65.431-65.432,65.431c-36.078,0-65.431-29.353-65.431-65.431v-59.305c0-36.079,29.353-65.432,65.431-65.432  c0.211,0,0.42,0.009,0.629,0.015l0.567,0.017c0.028,0,0.059,0.001,0.087,0.002h0.021c0.056,0.001,0.115,0.002,0.169,0.002  c2.851,0,5.364-1.458,6.829-3.672l44.881-63.648l17.718,12.494l10.822,7.631c2.184,3.033,4.299,5.979,6.326,8.821  c0.001,0.001,0.001,0.002,0.002,0.003c0.047,0.065,0.092,0.129,0.139,0.194C230.462,289.997,219.795,312.009,214.256,332.802z   M256.001,249.883l-4.8-3.384c-1.798-2.496-24.489-34.05-25.884-36.017c-17.962-25.311-36.995-53.241-52.495-80.353  c-24.327-42.548-34.918-74.556-31.481-95.134c0.956-5.727,2.998-10.521,6.189-14.488l144.056,204.286l-15.361,10.831  L256.001,249.883z M419.635,430.195c0,36.078-29.353,65.431-65.431,65.431c-36.079,0-65.432-29.353-65.432-65.431v-59.307  c0-11.104,2.858-22.092,8.266-31.775c1.035-1.854,1.31-4.036,0.766-6.088c-5.765-21.773-17.158-44.885-33.865-68.701l37.083-26.15  l44.904,63.679c1.456,2.177,3.929,3.616,6.734,3.642c0.005,0,0.009,0,0.014,0c0.134,0.002,0.255,0,0.383-0.007l0.533-0.015  c0.205-0.008,0.409-0.016,0.615-0.016c36.078,0,65.431,29.353,65.431,65.432v59.307H419.635z"/>
<path d="M354.205,331.907c-21.495,0-38.982,17.487-38.982,38.98v59.307c0,21.493,17.487,38.98,38.982,38.98  c21.493,0,38.98-17.487,38.98-38.98v-59.307C393.185,349.394,375.698,331.907,354.205,331.907z M376.81,430.195  c0,12.465-10.14,22.605-22.605,22.605c-12.466,0-22.607-10.14-22.607-22.605v-59.307c0-12.465,10.142-22.605,22.607-22.605  c12.465,0,22.605,10.14,22.605,22.605V430.195z"/>
<path d="M157.798,331.907c-21.493,0-38.98,17.487-38.98,38.981v59.305c0,21.493,17.487,38.98,38.98,38.98  c21.495,0,38.982-17.487,38.982-38.98v-59.305C196.78,349.394,179.293,331.907,157.798,331.907z M180.405,430.195  c0,12.465-10.141,22.605-22.607,22.605c-12.465,0-22.605-10.14-22.605-22.605v-59.305c0-12.466,10.14-22.606,22.605-22.606  c12.466,0,22.607,10.14,22.607,22.606V430.195z"/>
<g>
</g>
<g>
</g>
<g>
</g>
<g>
</g>
<g>
</g>
<g>
</g>
<g>
</g>
<g>
</g>
<g>
</g>
<g>
</g>
<g>
</g>
<g>
</g>
<g>
</g>
<g>
</g>
<g>
</g>
</svg>
