<?xml version="1.0" encoding="iso-8859-1"?>
<!-- Generator: Adobe Illustrator 19.0.0, SVG Export Plug-In . SVG Version: 6.00 Build 0)  -->
<svg xmlns="http://www.w3.org/2000/svg" xmlns:xlink="http://www.w3.org/1999/xlink" version="1.1" id="Layer_1" x="0px" y="0px" viewBox="0 0 511.998 511.998" style="enable-background:new 0 0 511.998 511.998;" xml:space="preserve">
<path style="fill:#B34647;" d="M22.334,200.613c-9.24,0-16.004,8.71-13.714,17.662l6.92,27.068  c1.602,6.266,7.247,10.65,13.714,10.65h69.58v-55.38H22.334z"/>
<path style="fill:#CC5051;" d="M489.664,200.613c9.24,0,16.004,8.71,13.714,17.662l-6.92,27.068  c-1.602,6.266-7.247,10.65-13.714,10.65h-69.579v-55.38H489.664z"/>
<path style="fill:#353640;" d="M82.851,350.275v84.252c0,11.552,9.365,20.917,20.917,20.917h19.693  c11.552,0,20.917-9.364,20.917-20.917v-84.252H82.851z"/>
<path style="fill:#E65A5B;" d="M73.365,311.039l9.998-153.615c3.68-56.56,50.963-100.864,107.642-100.864h129.99  c56.679,0,103.962,44.306,107.642,100.865l9.997,153.615H73.365V311.039z"/>
<path style="fill:#7DD2F0;" d="M385.162,160.252c-2.201-33.822-30.276-60.129-64.168-60.129H191.005  c-33.893,0-61.967,26.307-64.168,60.129l-6.978,107.222h272.282L385.162,160.252z"/>
<path style="opacity:0.1;enable-background:new    ;" d="M267.243,56.558h-76.239c-56.679,0-103.961,44.305-107.642,100.864  l-9.998,153.615h76.239l9.998-153.615C163.283,100.863,210.565,56.558,267.243,56.558z"/>
<path style="fill:#353640;" d="M429.147,350.275v84.252c0,11.552-9.365,20.917-20.917,20.917h-19.693  c-11.552,0-20.917-9.364-20.917-20.917v-84.252H429.147z"/>
<path style="fill:#FF6465;" d="M412.809,229.859H99.191c-26.99,0-48.869,21.88-48.869,48.869v71.547h411.357v-71.547  C461.678,251.738,439.799,229.859,412.809,229.859z"/>
<path style="opacity:0.1;enable-background:new    ;" d="M164.538,229.859H99.191c-26.99,0-48.869,21.88-48.869,48.869v71.547  h65.348v-71.547C115.668,251.738,137.549,229.859,164.538,229.859z"/>
<rect x="82.849" y="350.276" style="opacity:0.1;enable-background:new    ;" width="61.525" height="60.584"/>
<rect x="367.624" y="350.276" style="opacity:0.1;enable-background:new    ;" width="61.525" height="60.584"/>
<rect x="36.017" y="322.361" style="fill:#C7CFE2;" width="439.965" height="55.818"/>
<rect x="36.017" y="322.361" style="opacity:0.1;enable-background:new    ;" width="65.348" height="55.818"/>
<rect x="180.294" y="353.478" style="fill:#FFD782;" width="151.4" height="49.414"/>
<rect x="180.294" y="353.478" style="opacity:0.1;enable-background:new    ;" width="43.565" height="49.414"/>
<g>
	<circle style="fill:#FFD782;" cx="113.301" cy="278.361" r="19.553"/>
	<circle style="fill:#FFD782;" cx="398.708" cy="278.361" r="19.553"/>
</g>
<path d="M113.296,306.086c15.286,0,27.722-12.436,27.722-27.721c0-15.286-12.436-27.722-27.722-27.722s-27.722,12.436-27.722,27.722  C85.574,293.65,98.01,306.086,113.296,306.086z M113.296,266.98c6.278,0,11.385,5.107,11.385,11.385  c0,6.278-5.107,11.384-11.385,11.384c-6.278,0-11.385-5.106-11.385-11.384C101.911,272.088,107.019,266.98,113.296,266.98z"/>
<path d="M398.703,306.086c15.286,0,27.722-12.436,27.722-27.721c0-15.286-12.436-27.722-27.722-27.722s-27.722,12.436-27.722,27.722  C370.982,293.65,383.418,306.086,398.703,306.086z M398.703,266.98c6.278,0,11.385,5.107,11.385,11.385  c0,6.278-5.107,11.384-11.385,11.384c-6.278,0-11.385-5.106-11.385-11.384C387.319,272.088,392.426,266.98,398.703,266.98z"/>
<path d="M489.665,192.445h-50.563l-2.314-35.552C432.829,96.05,381.967,48.39,320.995,48.39H207.807  c-4.512,0-8.168,3.657-8.168,8.168s3.656,8.168,8.168,8.168h113.188c52.388,0,96.09,40.95,99.491,93.227  c0,0,2.81,43.174,2.81,43.189l1.418,21.788c-0.122-0.026-0.246-0.044-0.367-0.069c-3.791-0.779-7.665-1.174-11.536-1.174H397.35  l-4.034-61.968c-2.473-38-34.24-67.767-72.319-67.767h-129.99c-38.08,0-69.847,29.766-72.32,67.766l-4.034,61.969H99.191  c-3.971,0-8.019,0.415-11.905,1.243c0,0,1.419-21.788,1.419-21.805l2.81-43.174c3.027-46.521,38.7-85.271,84.821-92.141  c4.463-0.664,7.541-4.822,6.876-9.283c-0.665-4.463-4.834-7.54-9.282-6.876c-53.678,7.995-95.194,53.095-98.719,107.239  l-2.314,35.552H22.335c-6.946,0-13.372,3.146-17.633,8.632c-4.26,5.486-5.716,12.492-3.996,19.221l6.921,27.069  c2.529,9.887,11.423,16.793,21.628,16.793h14.789c-1.23,4.652-1.892,9.532-1.892,14.566v35.469h-6.138  c-4.512,0-8.168,3.657-8.168,8.168v55.819c0,4.511,3.656,8.168,8.168,8.168h38.67v48.173c0,16.037,13.047,29.085,29.085,29.085  h19.691c16.039,0,29.085-13.048,29.085-29.085V386.35h19.583v16.54c0,4.511,3.656,8.168,8.168,8.168h151.404  c4.512,0,8.168-3.657,8.168-8.168v-16.54h19.583v48.173c0,16.037,13.047,29.085,29.085,29.085h19.691  c16.039,0,29.086-13.048,29.086-29.085V386.35h38.668c4.512,0,8.168-3.657,8.168-8.168v-55.819c0-4.511-3.656-8.168-8.168-8.168  h-6.138v-35.469c0-5.034-0.662-9.914-1.892-14.566h14.789c10.205,0,19.099-6.906,21.629-16.794l6.92-27.069  c1.72-6.73,0.264-13.735-3.996-19.222C503.038,195.591,496.611,192.445,489.665,192.445z M134.988,160.783  c1.916-29.434,26.522-52.491,56.018-52.491h56.825V221.69H131.024L134.988,160.783z M76.073,245.34  c6.724-4.646,14.801-7.314,23.118-7.314h23.116h189.391c4.512,0,8.168-3.657,8.168-8.168s-3.656-8.168-8.168-8.168h-47.529V108.292  h56.826c29.496,0,54.103,23.056,56.017,52.49l3.966,60.908h-36.606c-4.512,0-8.168,3.657-8.168,8.168s3.656,8.168,8.168,8.168  c0,0,68.435,0,68.439,0c14.803,0,28.931,8.522,35.906,21.559c3.056,5.709,4.794,12.225,4.794,19.141v35.469H58.49v-35.469  C58.49,265.456,65.173,252.872,76.073,245.34z M29.255,247.825c-2.738,0-5.123-1.853-5.801-4.505l-6.92-27.069  c-0.632-2.471,0.4-4.29,1.071-5.155c0.672-0.865,2.179-2.315,4.73-2.315h49.5l-1.346,20.673c-0.099,0.058-0.194,0.124-0.293,0.183  c-7.365,4.396-13.801,10.472-18.547,17.625c-0.126,0.189-0.265,0.37-0.388,0.562H29.255V247.825z M136.209,434.527  c0,7.029-5.719,12.748-12.748,12.748h-19.691c-7.029,0-12.748-5.719-12.748-12.748v-48.173h45.188V434.527z M323.533,394.724  H188.467v-33.079h135.067v33.079H323.533z M420.979,434.527c0,7.029-5.719,12.748-12.749,12.748h-19.691  c-7.029,0-12.748-5.719-12.748-12.748v-48.173h45.189L420.979,434.527L420.979,434.527z M467.816,370.016H339.87v-16.54  c0-4.511-3.656-8.168-8.168-8.168H180.298c-4.512,0-8.168,3.657-8.168,8.168v16.54H44.183v-39.482h423.633V370.016z   M495.465,216.252l-6.919,27.068c-0.678,2.653-3.064,4.506-5.802,4.506h-22.006c-0.119-0.184-0.252-0.358-0.374-0.541  c-4.755-7.153-11.167-13.273-18.563-17.648c-0.099-0.059-0.193-0.124-0.291-0.182l-1.346-20.673h49.5  c2.551,0,4.058,1.451,4.729,2.314S496.097,213.782,495.465,216.252z"/>
<g>
</g>
<g>
</g>
<g>
</g>
<g>
</g>
<g>
</g>
<g>
</g>
<g>
</g>
<g>
</g>
<g>
</g>
<g>
</g>
<g>
</g>
<g>
</g>
<g>
</g>
<g>
</g>
<g>
</g>
</svg>
