<?xml version="1.0" encoding="iso-8859-1"?>
<!-- Generator: Adobe Illustrator 19.0.0, SVG Export Plug-In . SVG Version: 6.00 Build 0)  -->
<svg xmlns="http://www.w3.org/2000/svg" xmlns:xlink="http://www.w3.org/1999/xlink" version="1.1" id="Layer_1" x="0px" y="0px" viewBox="0 0 512 512" style="enable-background:new 0 0 512 512;" xml:space="preserve">
<path style="fill:#7DD2F0;" d="M294.9,8.305H217.1c-11.978,0-21.688,9.71-21.688,21.688v452.014c0,11.978,9.71,21.688,21.688,21.688  H294.9c11.978,0,21.688-9.71,21.688-21.688V29.993C316.588,18.015,306.878,8.305,294.9,8.305z"/>
<path style="opacity:0.1;enable-background:new    ;" d="M239.705,482.007V29.993c0-11.978,9.71-21.688,21.688-21.688H217.1  c-11.978,0-21.688,9.71-21.688,21.688v452.014c0,11.978,9.71,21.688,21.688,21.688h44.293  C249.415,503.695,239.705,493.985,239.705,482.007z"/>
<path style="fill:#FF6465;" d="M134.522,255.999H56.723c-11.978,0-21.688,9.71-21.688,21.688v204.32  c0,11.978,9.71,21.688,21.688,21.688h77.799c11.978,0,21.688-9.71,21.688-21.688v-204.32  C156.209,265.71,146.5,255.999,134.522,255.999z"/>
<path style="opacity:0.1;enable-background:new    ;" d="M79.327,482.007v-204.32c0-11.978,9.71-21.688,21.688-21.688H56.723  c-11.978,0-21.688,9.71-21.688,21.688v204.32c0,11.978,9.71,21.688,21.688,21.688h44.293  C89.038,503.695,79.327,493.985,79.327,482.007z"/>
<path style="fill:#FFD782;" d="M455.277,165.119h-77.799c-11.978,0-21.688,9.71-21.688,21.688v295.201  c0,11.978,9.71,21.688,21.688,21.688h77.799c11.978,0,21.688-9.71,21.688-21.688V186.807  C476.965,174.829,467.255,165.119,455.277,165.119z"/>
<path style="opacity:0.1;enable-background:new    ;" d="M400.084,482.007V186.806c0-11.978,9.71-21.688,21.688-21.688h-44.293  c-11.978,0-21.688,9.71-21.688,21.688v295.201c0,11.978,9.71,21.688,21.688,21.688h44.293  C409.794,503.695,400.084,493.985,400.084,482.007z"/>
<path d="M294.9,512h-77.798c-16.539,0-29.993-13.455-29.993-29.993V102.472c0-4.587,3.717-8.305,8.305-8.305  c4.588,0,8.305,3.718,8.305,8.305v379.536c0,7.379,6.004,13.383,13.383,13.383h77.799c7.379,0,13.382-6.004,13.382-13.383V29.993  c0-7.379-6.003-13.383-13.382-13.383h-77.799c-7.379,0-13.383,6.004-13.383,13.383v39.259c0,4.587-3.717,8.305-8.305,8.305  c-4.588,0-8.305-3.718-8.305-8.305V29.993C187.109,13.455,200.563,0,217.101,0h77.799c16.538,0,29.992,13.455,29.992,29.993v452.014  C324.891,498.545,311.438,512,294.9,512z"/>
<path d="M134.521,512H56.723c-16.539,0-29.993-13.455-29.993-29.993v-134.23c0-4.587,3.717-8.305,8.305-8.305  s8.305,3.718,8.305,8.305v134.23c0,7.379,6.004,13.383,13.383,13.383h77.799c7.379,0,13.383-6.004,13.383-13.383v-204.32  c0-7.379-6.004-13.383-13.383-13.383H56.723c-7.379,0-13.383,6.004-13.383,13.383v36.871c0,4.587-3.717,8.305-8.305,8.305  s-8.305-3.718-8.305-8.305v-36.87c0-16.538,13.454-29.993,29.993-29.993h77.799c16.539,0,29.993,13.455,29.993,29.993v204.32  C164.514,498.545,151.06,512,134.521,512z"/>
<path d="M455.277,512h-77.799c-16.539,0-29.993-13.455-29.993-29.993v-295.2c0-16.538,13.454-29.993,29.993-29.993h77.799  c16.539,0,29.993,13.455,29.993,29.993v195.534c0,4.587-3.717,8.305-8.305,8.305s-8.305-3.718-8.305-8.305V186.807  c0-7.379-6.004-13.383-13.383-13.383h-77.799c-7.379,0-13.383,6.004-13.383,13.383v295.2c0,7.379,6.004,13.383,13.383,13.383h77.799  c7.379,0,13.383-6.004,13.383-13.383V415.56c0-4.587,3.717-8.305,8.305-8.305s8.305,3.718,8.305,8.305v66.447  C485.27,498.545,471.816,512,455.277,512z"/>
<g>
</g>
<g>
</g>
<g>
</g>
<g>
</g>
<g>
</g>
<g>
</g>
<g>
</g>
<g>
</g>
<g>
</g>
<g>
</g>
<g>
</g>
<g>
</g>
<g>
</g>
<g>
</g>
<g>
</g>
</svg>
