<?xml version="1.0" encoding="iso-8859-1"?>
<!-- Generator: Adobe Illustrator 19.0.0, SVG Export Plug-In . SVG Version: 6.00 Build 0)  -->
<svg xmlns="http://www.w3.org/2000/svg" xmlns:xlink="http://www.w3.org/1999/xlink" version="1.1" id="Layer_1" x="0px" y="0px" viewBox="0 0 512 512" style="enable-background:new 0 0 512 512;" xml:space="preserve">
<path style="fill:#C7CFE2;" d="M502.344,193.077c0-8.213-6.658-14.87-14.87-14.87H53.993c-8.213,0-14.87,6.658-14.87,14.87v125.844  c0,8.213,6.658,14.87,14.87,14.87h433.48c8.213,0,14.87-6.658,14.87-14.87V193.077H502.344z"/>
<rect x="76.838" y="219.458" style="fill:#FFFFFF;" width="387.786" height="73.078"/>
<path style="opacity:0.1;enable-background:new    ;" d="M39.644,193.6v125.844c0,8.213,6.657,14.87,14.87,14.87h6.59l89.533-78.972  l-86.861-76.614h-9.262C46.301,178.73,39.644,185.387,39.644,193.6z"/>
<polygon style="fill:#7DD2F0;" points="9.135,333.005 9.135,177.683 97.181,255.344 "/>
<path d="M488.29,169.595H158.727c-4.883,0-8.84,3.958-8.84,8.84c0,4.883,3.957,8.84,8.84,8.84H488.29c3.325,0,6.03,2.705,6.03,6.03  v125.845c0,3.325-2.705,6.03-6.03,6.03H54.809c-3.325,0-6.03-2.705-6.03-6.03v-9.29l20.038-17.674v0.581  c0,4.883,3.957,8.84,8.84,8.84h296.115c4.883,0,8.84-3.957,8.84-8.84c0-4.882-3.957-8.84-8.84-8.84H86.496v-7.335l16.239-14.323  c1.902-1.678,2.993-4.094,2.993-6.63c0-2.536-1.09-4.952-2.993-6.63l-16.239-14.323v-6.157h370.106v55.398h-47.47  c-4.883,0-8.84,3.958-8.84,8.84c0,4.883,3.957,8.84,8.84,8.84h56.309c4.883,0,8.84-3.957,8.84-8.84v-73.078  c0-4.882-3.957-8.84-8.84-8.84H77.655c-4.69,0-8.515,3.654-8.812,8.268l-20.066-17.699v-8.112c0-3.325,2.705-6.03,6.03-6.03h68.558  c4.883,0,8.84-3.957,8.84-8.84c0-4.882-3.957-8.84-8.84-8.84H54.809c-10.77,0-19.869,7.225-22.749,17.078L14.688,171.35  c-2.605-2.3-6.314-2.857-9.485-1.429C2.037,171.35,0,174.503,0,177.978v155.321c0,3.475,2.037,6.628,5.203,8.057  c1.166,0.526,2.405,0.783,3.636,0.783c2.113,0,4.201-0.758,5.849-2.21l17.125-15.105c2.553,10.338,11.881,18.037,22.996,18.037  H488.29c13.074,0,23.71-10.636,23.71-23.71V193.305C512,180.231,501.362,169.595,488.29,169.595z M17.68,313.715V197.564  l65.842,58.075L17.68,313.715z"/>
<g>
</g>
<g>
</g>
<g>
</g>
<g>
</g>
<g>
</g>
<g>
</g>
<g>
</g>
<g>
</g>
<g>
</g>
<g>
</g>
<g>
</g>
<g>
</g>
<g>
</g>
<g>
</g>
<g>
</g>
</svg>
