<?xml version="1.0" encoding="iso-8859-1"?>
<!-- Generator: Adobe Illustrator 19.0.0, SVG Export Plug-In . SVG Version: 6.00 Build 0)  -->
<svg xmlns="http://www.w3.org/2000/svg" xmlns:xlink="http://www.w3.org/1999/xlink" version="1.1" id="Layer_1" x="0px" y="0px" viewBox="0 0 511.999 511.999" style="enable-background:new 0 0 511.999 511.999;" xml:space="preserve">
<rect x="27.747" y="153.853" style="fill:#FFFFFF;" width="330.402" height="330.402"/>
<path style="fill:#B4BBCC;" d="M358.148,503.675H27.747c-10.727,0-19.423-8.696-19.423-19.423v-330.4  c0-10.727,8.696-19.423,19.423-19.423h330.4c10.727,0,19.423,8.696,19.423,19.423v330.4  C377.572,494.979,368.876,503.675,358.148,503.675z M47.17,464.829h291.554V173.275H47.17V464.829z"/>
<path style="fill:#7DD2F0;" d="M284.145,250.68c-12.26,0-22.198-9.938-22.198-22.198v-17.874l-98.367,98.367l-31.242-31.242  l-28.665,130.39l130.39-28.665l-31.242-31.241l97.536-97.536h-16.211V250.68z"/>
<path style="opacity:0.1;enable-background:new    ;" d="M261.947,228.481v-17.874l-81.25,81.25  c4.499,19.414,19.745,34.746,39.112,39.368l80.547-80.547h-16.211C271.885,250.679,261.947,240.741,261.947,228.481z"/>
<path style="opacity:0.1;enable-background:new    ;" d="M358.148,134.428H179.325v38.846h159.401v159.401h13.607  c1.952,0.221,3.898,0.332,5.816,0.332c1.918,0,3.864-0.111,5.816-0.332h13.607V153.852  C377.572,143.124,368.876,134.428,358.148,134.428z"/>
<rect x="232.044" y="27.747" style="fill:#FFFFFF;" width="252.211" height="252.211"/>
<path style="fill:#C7CFE2;" d="M484.252,8.324H232.044c-10.727,0-19.423,8.696-19.423,19.423v252.207  c0,10.727,8.696,19.423,19.423,19.423h122.603c1.138,0.208,2.304,0.332,3.502,0.332c1.198,0,2.364-0.124,3.502-0.332h122.602  c10.727,0,19.423-8.696,19.423-19.423V27.747C503.675,17.02,494.979,8.324,484.252,8.324z M251.467,130.585h87.258v46.533h-87.258  V130.585z M377.572,130.585h87.258v46.533h-87.258L377.572,130.585L377.572,130.585z M464.829,91.739H377.57V47.17h87.258V91.739z   M338.725,47.17v44.569h-87.258V47.17H338.725z M251.467,215.964h87.258v44.569h-87.258V215.964z M377.572,260.533v-44.569h87.258  v44.569H377.572z"/>
<path d="M369.246,177.118c0,4.597,3.726,8.324,8.324,8.324h87.258c4.598,0,8.324-3.727,8.324-8.324v-46.533  c0-4.597-3.726-8.324-8.324-8.324H377.57c-4.598,0-8.324,3.727-8.324,8.324V177.118z M385.895,138.909h70.61v29.885h-70.61V138.909z  "/>
<path d="M243.142,153.846c0,0.043,0,0.087,0.001,0.13v23.142c0,4.597,3.726,8.324,8.324,8.324h87.257  c4.598,0,8.324-3.727,8.324-8.324v-46.533c0-4.597-3.726-8.324-8.324-8.324h-87.258c-4.598,0-8.324,3.727-8.324,8.324  L243.142,153.846L243.142,153.846z M259.79,138.909h70.61v29.885h-70.609v-14.942c0-0.043,0-0.087-0.001-0.13V138.909z"/>
<path d="M110.476,142.753H212.62c4.598,0,8.324-3.727,8.324-8.324V27.747c0-6.121,4.979-11.099,11.099-11.099h252.209  c6.12,0,11.099,4.978,11.099,11.099v252.207c0,6.12-4.979,11.099-11.099,11.099H377.57c-4.598,0-8.324,3.727-8.324,8.324v184.874  c0,6.12-4.979,11.099-11.099,11.099h-62.214c-4.598,0-8.324,3.727-8.324,8.324c0,4.597,3.726,8.324,8.324,8.324h62.214  c15.3,0,27.747-12.447,27.747-27.747v-176.55h98.357c15.3,0,27.747-12.447,27.747-27.747V27.747c0-15.3-12.447-27.747-27.747-27.747  H232.043c-15.3,0-27.747,12.447-27.747,27.747v98.357h-93.82c-4.598,0-8.324,3.727-8.324,8.324S105.879,142.753,110.476,142.753z"/>
<path d="M377.57,100.063h87.258c4.598,0,8.324-3.727,8.324-8.324V47.17c0-4.598-3.726-8.324-8.324-8.324H377.57  c-4.598,0-8.324,3.726-8.324,8.324v44.569C369.246,96.336,372.973,100.063,377.57,100.063z M385.895,55.494h70.61v27.92h-70.61  V55.494z"/>
<path d="M369.246,260.533c0,4.597,3.726,8.324,8.324,8.324h87.258c4.598,0,8.324-3.727,8.324-8.324v-44.569  c0-4.597-3.726-8.324-8.324-8.324H377.57c-4.598,0-8.324,3.727-8.324,8.324V260.533z M385.895,224.288h70.61v27.92h-70.61V224.288z"/>
<path d="M27.747,511.999h234.891c4.598,0,8.324-3.727,8.324-8.324c0-4.597-3.726-8.324-8.324-8.324H27.747  c-6.12,0-11.099-4.979-11.099-11.099v-330.4c0-6.12,4.979-11.099,11.099-11.099h49.432c4.598,0,8.324-3.727,8.324-8.324  s-3.726-8.324-8.324-8.324H27.747C12.447,126.104,0,138.552,0,153.852v330.4C0,499.551,12.447,511.999,27.747,511.999z"/>
<path d="M251.466,100.063h87.258c4.598,0,8.324-3.727,8.324-8.324V47.17c0-4.598-3.726-8.324-8.324-8.324h-87.258  c-4.598,0-8.324,3.726-8.324,8.324v44.569C243.142,96.336,246.869,100.063,251.466,100.063z M259.79,55.494h70.61v27.92h-70.61  L259.79,55.494L259.79,55.494z"/>
<path d="M338.724,207.64h-87.257c-4.598,0-8.324,3.727-8.324,8.324v44.569c0,4.597,3.726,8.324,8.324,8.324h87.257  c4.598,0,8.324-3.727,8.324-8.324v-44.569C347.048,211.367,343.323,207.64,338.724,207.64z M330.4,252.209h-70.609v-27.92H330.4  L330.4,252.209L330.4,252.209z"/>
<path d="M220.944,173.275c0-4.597-3.726-8.324-8.324-8.324H47.17c-4.598,0-8.324,3.727-8.324,8.324v291.554  c0,4.597,3.726,8.324,8.324,8.324h291.554c4.598,0,8.324-3.727,8.324-8.324V299.378c0-4.597-3.726-8.324-8.324-8.324h-87.067  h-19.613c-2.966,0-5.753-1.154-7.848-3.251c-2.098-2.097-3.252-4.883-3.252-7.848v-20.021L220.944,173.275L220.944,173.275z   M255.105,307.703H330.4v148.803H55.494V181.599h148.802v74.886l-40.717,40.718l-25.356-25.357  c-2.151-2.151-5.299-2.958-8.223-2.104c-2.919,0.855-5.14,3.232-5.794,6.202l-28.664,130.39c-0.609,2.774,0.236,5.665,2.243,7.674  c1.578,1.578,3.703,2.438,5.887,2.438c0.595,0,1.194-0.064,1.787-0.194l130.388-28.665c2.971-0.654,5.349-2.875,6.202-5.794  c0.855-2.919,0.048-6.071-2.103-8.222l-25.357-25.355L255.105,307.703z M221.316,305.556c0.05,0.021,0.1,0.041,0.15,0.062  c3.049,1.242,6.343,1.948,9.633,2.061c0.155,0.006,0.31,0.017,0.465,0.019l-34.631,34.631c-1.561,1.562-2.437,3.678-2.437,5.886  s0.877,4.324,2.437,5.886l20.491,20.49l-102.827,22.606l22.605-102.828l20.491,20.491c3.252,3.251,8.522,3.251,11.773,0  l34.83-34.831c-0.382,0.382,0.155,2.994,0.221,3.507c0.179,1.413,0.474,2.81,0.877,4.177c0.78,2.646,1.965,5.17,3.484,7.472  C211.896,299.76,216.246,303.453,221.316,305.556z"/>
<g>
</g>
<g>
</g>
<g>
</g>
<g>
</g>
<g>
</g>
<g>
</g>
<g>
</g>
<g>
</g>
<g>
</g>
<g>
</g>
<g>
</g>
<g>
</g>
<g>
</g>
<g>
</g>
<g>
</g>
</svg>
