<?xml version="1.0" encoding="iso-8859-1"?>
<!-- Generator: Adobe Illustrator 19.0.0, SVG Export Plug-In . SVG Version: 6.00 Build 0)  -->
<svg xmlns="http://www.w3.org/2000/svg" xmlns:xlink="http://www.w3.org/1999/xlink" version="1.1" id="Layer_1" x="0px" y="0px" viewBox="0 0 512 512" style="enable-background:new 0 0 512 512;" xml:space="preserve">
<path style="fill:#FF6465;" d="M256.001,8.48c-86.358,0-156.365,70.007-156.365,156.365c0,78.568,60.886,227.415,156.365,338.675  c95.479-111.259,156.365-260.107,156.365-338.675C412.365,78.487,342.358,8.48,256.001,8.48z"/>
<g style="opacity:0.1;">
	<path d="M171.116,130.181c15.214-61.943,65.389-106.106,124.373-116.667c-12.615-3.282-25.846-5.034-39.489-5.034   c-86.358,0-156.365,70.007-156.365,156.365c0,71.273,50.108,200.382,130.69,306.8C173.225,346.072,153.542,201.731,171.116,130.181   z"/>
</g>
<path style="fill:#FFFFFF;" d="M256.001,236.388c-39.458,0-71.563-32.103-71.567-71.563c0.003-39.443,32.109-71.547,71.567-71.547  c39.458,0,71.563,32.103,71.567,71.563C327.563,204.285,295.458,236.388,256.001,236.388z"/>
<path d="M255.999,512c-2.474,0-4.824-1.081-6.434-2.958C150.408,393.497,91.156,243.3,91.156,164.845  c0-35.328,11.023-69.019,31.876-97.433c2.771-3.776,8.078-4.59,11.854-1.819c3.775,2.771,4.59,8.078,1.819,11.854  c-18.703,25.485-28.589,55.707-28.589,87.398c0,38.243,15.179,94.238,41.644,153.627c27.412,61.514,64.937,122.18,106.243,171.905  c16.096-19.366,31.622-40.358,46.239-62.529c2.578-3.91,7.836-4.99,11.747-2.412c3.91,2.578,4.99,7.838,2.412,11.747  c-16.948,25.706-35.104,49.883-53.964,71.86C260.824,510.919,258.473,512,255.999,512z M327.807,411.522  c-1.478,0-2.975-0.387-4.337-1.2c-4.022-2.4-5.337-7.606-2.936-11.628c50.635-84.85,83.352-176.642,83.352-233.851  C403.885,83.301,337.543,16.96,255.999,16.96c-35.96,0-70.624,13.069-97.609,36.798c-3.517,3.092-8.876,2.749-11.967-0.768  c-3.092-3.516-2.75-8.874,0.768-11.967C177.273,14.568,215.915,0,255.999,0c90.896,0,164.845,73.949,164.845,164.845  c0,60.049-33.658,155.254-85.748,242.543C333.51,410.047,330.695,411.522,327.807,411.522z M255.999,244.868  c-44.133,0-80.042-35.907-80.047-80.042c0.005-44.128,35.914-80.028,80.047-80.028c37.948,0,70.945,26.988,78.46,64.173  c0.927,4.59-2.042,9.063-6.632,9.991c-4.59,0.926-9.064-2.042-9.991-6.632c-5.921-29.303-31.927-50.572-61.836-50.572  c-34.783,0-63.084,28.292-63.087,63.067c0.003,34.783,28.304,63.083,63.087,63.083c27.96,0,52.89-18.786,60.626-45.682  c1.295-4.5,5.995-7.1,10.493-5.806c4.501,1.295,7.1,5.992,5.806,10.493C323.111,221.037,291.479,244.868,255.999,244.868z"/>
<g>
</g>
<g>
</g>
<g>
</g>
<g>
</g>
<g>
</g>
<g>
</g>
<g>
</g>
<g>
</g>
<g>
</g>
<g>
</g>
<g>
</g>
<g>
</g>
<g>
</g>
<g>
</g>
<g>
</g>
</svg>
