<?xml version="1.0" encoding="iso-8859-1"?>
<!-- Generator: Adobe Illustrator 19.0.0, SVG Export Plug-In . SVG Version: 6.00 Build 0)  -->
<svg xmlns="http://www.w3.org/2000/svg" xmlns:xlink="http://www.w3.org/1999/xlink" version="1.1" id="Layer_1" x="0px" y="0px" viewBox="0 0 511.999 511.999" style="enable-background:new 0 0 511.999 511.999;" xml:space="preserve">
<path style="fill:#353640;" d="M457.127,9.187H54.873c-25.231,0-45.686,20.455-45.686,45.686v402.254  c0,25.233,20.455,45.686,45.686,45.686h402.254c25.231,0,45.686-20.455,45.686-45.686V54.873  C502.813,29.642,482.358,9.187,457.127,9.187z"/>
<path style="opacity:0.1;enable-background:new    ;" d="M70.427,457.127V54.873c0-25.231,20.455-45.686,45.686-45.686H54.872  c-25.231,0-45.686,20.455-45.686,45.686v402.254c0,25.231,20.455,45.686,45.686,45.686h61.241  C90.882,502.813,70.427,482.358,70.427,457.127z"/>
<g>
	<rect x="134.179" y="219.733" style="fill:#DCE5FA;" width="243.642" height="72.546"/>
	<circle style="fill:#DCE5FA;" cx="256" cy="135.735" r="36.19"/>
	<circle style="fill:#DCE5FA;" cx="256" cy="376.265" r="36.19"/>
</g>
<path d="M134.972,18.372h322.154c20.128,0,36.501,16.375,36.501,36.5v402.254c0,20.126-16.373,36.5-36.501,36.5h-44.972  c-5.074,0-9.186,4.113-9.186,9.186s4.112,9.186,9.186,9.186h44.972c30.257,0,54.873-24.615,54.873-54.872V54.873  c0-30.257-24.616-54.872-54.873-54.872H134.972c-5.074,0-9.186,4.113-9.186,9.186S129.898,18.372,134.972,18.372z"/>
<path d="M54.873,511.999H375.41c5.074,0,9.186-4.113,9.186-9.186c0-5.073-4.112-9.186-9.186-9.186H54.873  c-20.127,0-36.501-16.373-36.501-36.5V54.873c0-20.126,16.373-36.501,36.501-36.501h43.354c5.074,0,9.186-4.113,9.186-9.186  S103.301,0,98.227,0H54.873C24.616,0,0,24.616,0,54.873v402.254C0,487.384,24.616,511.999,54.873,511.999z"/>
<path d="M134.179,301.457h243.642c5.074,0,9.186-4.113,9.186-9.186v-72.543c0-5.073-4.112-9.186-9.186-9.186H134.179  c-5.074,0-9.186,4.113-9.186,9.186v72.543C124.993,297.344,129.105,301.457,134.179,301.457z M143.365,228.914h225.269v54.17  H143.365V228.914z"/>
<path d="M210.624,135.74c0,25.021,20.355,45.376,45.376,45.376c25.021,0,45.376-20.355,45.376-45.376S281.021,90.364,256,90.364  C230.979,90.364,210.624,110.719,210.624,135.74z M283.004,135.74c0,14.889-12.115,27.004-27.004,27.004  s-27.004-12.115-27.004-27.004c0-14.89,12.115-27.004,27.004-27.004S283.004,120.849,283.004,135.74z"/>
<path d="M210.624,376.259c0,25.021,20.355,45.376,45.376,45.376c25.021,0,45.376-20.357,45.376-45.376S281.021,330.883,256,330.883  C230.979,330.883,210.624,351.24,210.624,376.259z M283.004,376.259c0,14.89-12.115,27.004-27.004,27.004  s-27.004-12.113-27.004-27.004c0-14.889,12.115-27.004,27.004-27.004S283.004,361.37,283.004,376.259z"/>
<g>
</g>
<g>
</g>
<g>
</g>
<g>
</g>
<g>
</g>
<g>
</g>
<g>
</g>
<g>
</g>
<g>
</g>
<g>
</g>
<g>
</g>
<g>
</g>
<g>
</g>
<g>
</g>
<g>
</g>
</svg>
