<?xml version="1.0" encoding="iso-8859-1"?>
<!-- Generator: Adobe Illustrator 19.0.0, SVG Export Plug-In . SVG Version: 6.00 Build 0)  -->
<svg xmlns="http://www.w3.org/2000/svg" xmlns:xlink="http://www.w3.org/1999/xlink" version="1.1" id="Layer_1" x="0px" y="0px" viewBox="0 0 511.999 511.999" style="enable-background:new 0 0 511.999 511.999;" xml:space="preserve">
<path style="fill:#9DA4B3;" d="M186.477,305.409c0,10.548,8.551,19.099,19.099,19.099h279.138c10.548,0,19.099-8.551,19.099-19.099  V141.881l-158.669-38.876l-158.668,38.876v163.527H186.477z"/>
<polygon style="fill:#FFFFFF;" points="224.686,286.299 224.686,141.881 345.144,103.005 465.603,141.881 465.603,286.299 "/>
<path style="fill:#B4BBCC;" d="M484.713,64.129H205.576c-10.548,0-19.099,8.551-19.099,19.099v58.653h317.335V83.228  C503.812,72.68,495.261,64.129,484.713,64.129z"/>
<path style="opacity:0.1;enable-background:new    ;" d="M251.978,305.409V83.228c0-10.548,8.551-19.099,19.099-19.099h-65.501  c-10.548,0-19.099,8.551-19.099,19.099v58.653v163.527c0,10.548,8.551,19.099,19.099,19.099h65.501  C260.528,324.508,251.978,315.957,251.978,305.409z"/>
<path style="fill:#9DA4B3;" d="M8.188,428.77c0,10.548,8.551,19.099,19.099,19.099h279.138c10.548,0,19.099-8.551,19.099-19.099  V265.242l-158.668-38.876L8.188,265.242V428.77z"/>
<polygon style="fill:#FFFFFF;" points="46.397,409.66 46.397,265.242 166.856,226.366 287.314,265.242 287.314,409.66 "/>
<path style="fill:#B4BBCC;" d="M306.424,187.49H27.287c-10.548,0-19.099,8.551-19.099,19.099v58.653h317.336v-58.653  C325.523,196.041,316.973,187.49,306.424,187.49z"/>
<path style="opacity:0.1;enable-background:new    ;" d="M73.689,428.77V206.589c0-10.548,8.551-19.099,19.099-19.099H27.287  c-10.548,0-19.099,8.551-19.099,19.099V428.77c0,10.548,8.551,19.099,19.099,19.099h65.501  C82.24,447.869,73.689,439.318,73.689,428.77z"/>
<circle cx="191.963" cy="226.361" r="16.408"/>
<circle cx="238.272" cy="226.361" r="16.408"/>
<circle cx="284.571" cy="226.361" r="16.408"/>
<circle cx="370.257" cy="103.011" r="16.408"/>
<circle cx="416.556" cy="103.011" r="16.408"/>
<circle cx="462.865" cy="103.011" r="16.408"/>
<path d="M27.287,456.056h279.137c15.046,0,27.287-12.241,27.287-27.287v-96.074h151.002c15.046,0,27.286-12.24,27.286-27.287V83.229  c0-15.046-12.24-27.287-27.286-27.287H297.829c-4.523,0-8.188,3.666-8.188,8.188s3.665,8.188,8.188,8.188h186.884  c6.016,0,10.91,4.895,10.91,10.911v50.465H194.665V83.229c0-6.016,4.894-10.911,10.91-10.911h59.504  c4.523,0,8.188-3.666,8.188-8.188s-3.665-8.188-8.188-8.188h-59.503c-15.046,0-27.286,12.241-27.286,27.287v58.653v37.421H27.287  C12.241,179.302,0,191.543,0,206.59v222.181C0,443.815,12.241,456.056,27.287,456.056z M232.873,150.069h224.543v128.042h-23.49  c-4.523,0-8.188,3.666-8.188,8.188c0,4.522,3.665,8.188,8.188,8.188h31.678c4.523,0,8.188-3.666,8.188-8.188v-136.23h21.834v155.34  c0,6.016-4.894,10.911-10.91,10.911H333.712v-21.834h67.464c4.523,0,8.188-3.666,8.188-8.188c0-4.522-3.665-8.188-8.188-8.188  h-67.464c0,0,0-71.518,0-71.526c-0.055-3.627-0.741-7.308-2.162-10.652c-3.266-7.694-10.052-13.419-17.957-15.625  c-2.333-0.652-4.743-1.004-7.167-1.004h-73.551v-29.234H232.873z M194.665,150.069h21.833v29.233h-21.833V150.069z M16.375,206.59  c0-6.017,4.894-10.911,10.911-10.911c0,0,279.136,0,279.137,0c5.861,0,10.907,5.063,10.911,10.911v50.466H16.375V206.59z   M16.375,273.43h21.834v48.1c0,4.522,3.665,8.188,8.188,8.188s8.188-3.666,8.188-8.188v-48.1h224.543v128.042H54.584v-47.529  c0-4.522-3.665-8.188-8.188-8.188s-8.188,3.666-8.188,8.188v55.717c0,4.522,3.665,8.188,8.188,8.188h240.918  c4.523,0,8.188-3.666,8.188-8.188V273.43h21.834v12.869v38.209V428.77c0,6.016-4.894,10.911-10.911,10.911H27.287  c-6.017,0-10.911-4.895-10.911-10.911C16.375,428.77,16.375,273.43,16.375,273.43z"/>
<g>
</g>
<g>
</g>
<g>
</g>
<g>
</g>
<g>
</g>
<g>
</g>
<g>
</g>
<g>
</g>
<g>
</g>
<g>
</g>
<g>
</g>
<g>
</g>
<g>
</g>
<g>
</g>
<g>
</g>
</svg>
