<?xml version="1.0" encoding="utf-8"?>
<!-- Generator: Adobe Illustrator 21.0.0, SVG Export Plug-In . SVG Version: 6.00 Build 0)  -->
<svg xmlns="http://www.w3.org/2000/svg" xmlns:xlink="http://www.w3.org/1999/xlink" version="1.1" id="Layer_1" x="0px" y="0px" viewBox="0 0 64 64" style="enable-background:new 0 0 64 64;" xml:space="preserve" width="512" height="512">
<style type="text/css">
	.st0{fill:#17AFDC;}
	.st1{fill:#FCCC38;}
	.st2{fill:#5358A1;}
	.st3{fill:#DBE6FD;}
</style>
<g>
	<path class="st0" d="M56.5,52H43V37l5,7.3c0.3,0.5,0.6,0.8,1,1.2l8.2,5.8c1.2,0.7,2.7,0.4,3.4-0.8c0.7-1.2,0.4-2.7-0.8-3.4l-8.4-6   l-3-6c-0.6-3-4.6-6-7.7-6H36c0,2.2-1.8,4-4,4s-4-1.8-4-4h-5.1c-2.9,0-5.4,3.2-6.2,6L12,41.3L4.6,46c-1.3,0.7-1.8,2.2-1.1,3.5   s2.2,1.8,3.5,1.1c0,0,0,0,0,0l9.4-5.9c0.4-0.3,0.7-0.6,1-1L22,37v15H7.5C5,52,3,54,3,56.5S5,61,7.5,61h49c2.5,0,4.5-2,4.5-4.5   S59,52,56.5,52z"/>
	<path class="st1" d="M42,16.1c0-5.5-4.5-10-10-10s-10,4.5-10,10c0,2.5,0.9,4.9,2.6,6.7c1.6,1.7,2.4,4,2.4,6.3v0h10   c0-2.3,0.8-4.5,2.3-6.2C41,21,42,18.6,42,16.1z"/>
	<path class="st2" d="M26,53h9c2.2,0,4,1.8,4,4l0,0c0,2.2-1.8,4-4,4h-9l0,0V53L26,53z"/>
	<path class="st3" d="M32,33L32,33c-2.2,0-4-1.8-4-4h8C36,31.2,34.2,33,32,33z"/>
	<rect x="56.4" y="2.6" transform="matrix(0.7071 -0.7071 0.7071 0.7071 14.2377 41.6659)" width="2" height="2"/>
	<rect x="53.6" y="5.5" transform="matrix(0.7071 -0.7071 0.7071 0.7071 11.4096 40.4945)" width="2" height="2"/>
	<rect x="56.4" y="5.5" transform="matrix(0.7071 -0.7071 0.7071 0.7071 12.238 42.4942)" width="2" height="2"/>
	<rect x="53.6" y="2.6" transform="matrix(0.7071 -0.7071 0.7071 0.7071 13.4094 39.6661)" width="2" height="2"/>
	<rect x="5.4" y="28.8" transform="matrix(0.7071 -0.7071 0.7071 0.7071 -19.1702 13.2541)" width="2" height="2"/>
	<rect x="2.6" y="31.6" transform="matrix(0.7069 -0.7074 0.7074 0.7069 -22.0058 12.0917)" width="2" height="2"/>
	<rect x="5.4" y="31.6" transform="matrix(0.7074 -0.7069 0.7069 0.7074 -21.164 14.0731)" width="2" height="2"/>
	<rect x="2.6" y="28.8" transform="matrix(0.7071 -0.7071 0.7071 0.7071 -19.9986 11.2544)" width="2" height="2"/>
	<rect x="8.4" y="2.6" transform="matrix(0.7071 -0.7071 0.7071 0.7071 0.1789 7.7248)" width="2" height="2"/>
	<rect x="5.6" y="5.5" transform="matrix(0.7071 -0.7071 0.7071 0.7071 -2.6493 6.5533)" width="2" height="2"/>
	<rect x="8.4" y="5.5" transform="matrix(0.7071 -0.7071 0.7071 0.7071 -1.8209 8.5531)" width="2" height="2"/>
	<rect x="5.6" y="2.6" transform="matrix(0.7071 -0.7071 0.7071 0.7071 -0.6495 5.725)" width="2" height="2"/>
	<rect x="59.5" y="28.8" transform="matrix(0.7071 -0.7071 0.7071 0.7071 -3.3184 51.5239)" width="2" height="2"/>
	<rect x="56.7" y="31.6" transform="matrix(0.7069 -0.7074 0.7074 0.7069 -6.1409 50.3743)" width="2" height="2"/>
	<rect x="59.5" y="31.6" transform="matrix(0.7074 -0.7069 0.7069 0.7074 -5.3253 52.3296)" width="2" height="2"/>
	<rect x="56.7" y="28.8" transform="matrix(0.7071 -0.7071 0.7071 0.7071 -4.1469 49.5238)" width="2" height="2"/>
	<rect x="38" y="37.1" width="2" height="2"/>
	<rect x="38" y="41.1" width="2" height="8"/>
	<rect x="45" y="14.1" class="st1" width="4" height="2"/>
	<rect x="41.6" y="4.5" transform="matrix(0.7071 -0.7071 0.7071 0.7071 8.8948 32.4232)" class="st1" width="4" height="2"/>
	<rect x="15" y="14.1" class="st1" width="4" height="2"/>
	<rect x="19.5" y="3.4" transform="matrix(0.7071 -0.7071 0.7071 0.7071 2.0724 16.1243)" class="st1" width="2" height="4.2"/>
	<path d="M60,52.3c1.7-0.8,2.5-2.9,1.6-4.7c-0.3-0.6-0.7-1.1-1.2-1.4l-8.2-5.9l-2.8-5.7c-0.8-3.3-5-6.7-8.6-6.7h-2.7   c0.2-1.7,0.9-3.3,2-4.5c4.1-4.4,3.9-11.4-0.6-15.5c-0.1,0-0.1-0.1-0.2-0.1c-4.5-4.1-11.5-3.7-15.5,0.9c-1.6,1.7-2.5,3.9-2.7,6.2   c-0.3,3.1,0.7,6.2,2.8,8.5c1.2,1.3,1.9,2.9,2.1,4.6h-3.1c-3.2,0-6.1,3.3-7.1,6.5l-4.5,6l-7.2,4.6c-1.8,0.9-2.4,3.1-1.5,4.8   c0.1,0.1,0.2,0.3,0.2,0.4c0.5,0.7,1.1,1.2,1.9,1.4c-2.6,1.5-3.5,4.9-2,7.5c1,1.7,2.8,2.8,4.8,2.8h49c3,0,5.5-2.5,5.5-5.5   C62,54.9,61.3,53.4,60,52.3z M25.3,22.1c-3.3-3.7-3-9.4,0.7-12.7c3.4-3.1,8.6-3.1,12,0c3.7,3.3,4,9,0.7,12.7c0,0-0.1,0.1-0.1,0.1   c-1.5,1.6-2.4,3.7-2.5,5.9h-3v-9.7l2.8-3.7l-1.6-1.2L32,16.4l-2.2-2.9l-1.6,1.2l2.8,3.7v9.7h-3C27.7,25.8,26.8,23.7,25.3,22.1z    M34.8,30.1c-0.5,1.6-2.2,2.4-3.8,1.8c-0.9-0.3-1.5-1-1.8-1.8H34.8z M35,60.1h-8v-6h8c1.7,0,3,1.3,3,3S36.7,60.1,35,60.1z    M49.6,44.7c-0.3-0.3-0.6-0.6-0.8-0.9l-5-7.3c-0.3-0.5-0.9-0.6-1.4-0.3c-0.3,0.2-0.4,0.5-0.4,0.8v15c0,0.6,0.4,1,1,1c0,0,0,0,0,0   h13.5c1.9,0,3.5,1.6,3.5,3.5s-1.6,3.5-3.5,3.5H39c0.7-0.9,1-1.9,1-3c0-2.8-2.2-5-5-5h-9c-0.6,0-1,0.4-1,1c0,0,0,0,0,0v7H7.5   c-1.9,0-3.5-1.6-3.5-3.5s1.6-3.5,3.5-3.5H22c0.6,0,1-0.4,1-1c0,0,0,0,0,0v-15c0-0.6-0.4-1-1-1c-0.3,0-0.6,0.2-0.8,0.4l-4.6,6.7   c-0.2,0.3-0.4,0.5-0.7,0.7l-9.4,5.8c-0.7,0.4-1.6,0.2-2.1-0.5c-0.3-0.4-0.4-0.8-0.2-1.3c0.1-0.5,0.4-0.9,0.9-1.1l7.4-4.7   c0.1-0.1,0.2-0.1,0.3-0.2l4.7-6.3c0.1-0.1,0.1-0.2,0.2-0.3c0.7-2.5,2.9-5.3,5.2-5.3h4.2c0.6,2.7,3.2,4.5,5.9,3.9   c2-0.4,3.5-1.9,3.9-3.9h3.9c2.6,0,6.2,2.8,6.7,5.2c0,0.1,0,0.2,0.1,0.2l3,6c0.1,0.1,0.2,0.3,0.3,0.4l8.5,6c0.7,0.4,0.9,1.4,0.5,2.1   c-0.4,0.7-1.3,0.9-2,0.5L49.6,44.7z M55.1,51.1H44V40.3l3.1,4.6c0.3,0.6,0.8,1.1,1.3,1.5L55.1,51.1z M8.2,51.1l8.8-5.5   c0.5-0.3,0.9-0.8,1.2-1.2l2.8-4.1v10.8L8.2,51.1z"/>
</g>
</svg>
