<?xml version="1.0" encoding="utf-8"?>
<!-- Generator: Adobe Illustrator 21.0.0, SVG Export Plug-In . SVG Version: 6.00 Build 0)  -->
<svg xmlns="http://www.w3.org/2000/svg" xmlns:xlink="http://www.w3.org/1999/xlink" version="1.1" id="Layer_1" x="0px" y="0px" viewBox="0 0 64 64" style="enable-background:new 0 0 64 64;" xml:space="preserve" width="512" height="512">
<style type="text/css">
	.st0{fill:#DBE6FD;}
	.st1{fill:#17AFDC;}
	.st2{fill:#FCCC38;}
	.st3{fill:#24DB6A;}
</style>
<g>
	<path class="st0" d="M55.6,10h-12c2,3.8,2,8.2,0,12H50c1.1,0,2-0.9,2-2s-0.9-2-2-2h3c1.1,0,2-0.9,2-2s-0.9-2-2-2h2.6   c1.2,0.1,2.3-0.8,2.4-2C57.9,10.8,56.8,9.9,55.6,10z"/>
	<path class="st0" d="M19,16c0-2.1,0.5-4.1,1.5-6h-12C7.2,9.9,6.1,10.8,6,12c0.1,1.2,1.2,2.1,2.4,2H11c-1.1,0-2,0.9-2,2s0.9,2,2,2h3   c-1.1,0-2,0.9-2,2s0.9,2,2,2h6.5C19.5,20.1,19,18.1,19,16z"/>
	<circle class="st1" cx="32" cy="16" r="13"/>
	<circle class="st2" cx="32" cy="42" r="4"/>
	<circle class="st2" cx="46" cy="33" r="4"/>
	<circle class="st2" cx="18" cy="32" r="4"/>
	<path d="M37,17h-5c-0.6,0-1-0.4-1-1c0,0,0,0,0,0V9h2v6h4V17z"/>
	<path d="M32,47c-0.6,0-1-0.4-1-1c0,0,0,0,0,0c0-1.7-1.3-3-3-3c-0.6,0-1-0.4-1-1s0.4-1,1-1c1.7,0,3-1.3,3-3c0-0.6,0.4-1,1-1   s1,0.4,1,1c0,1.7,1.3,3,3,3c0.6,0,1,0.4,1,1s-0.4,1-1,1c-1.7,0-3,1.3-3,3C33,46.6,32.6,47,32,47C32,47,32,47,32,47z M31,42   c0.4,0.3,0.7,0.6,1,1c0.3-0.4,0.6-0.7,1-1c-0.4-0.3-0.7-0.6-1-1C31.7,41.4,31.4,41.7,31,42z"/>
	<path d="M46,38c-0.6,0-1-0.4-1-1c0,0,0,0,0,0c0-1.7-1.3-3-3-3c-0.6,0-1-0.4-1-1s0.4-1,1-1c1.7,0,3-1.3,3-3c0-0.6,0.4-1,1-1   s1,0.4,1,1c0,1.7,1.3,3,3,3c0.6,0,1,0.4,1,1s-0.4,1-1,1c-1.7,0-3,1.3-3,3C47,37.6,46.6,38,46,38C46,38,46,38,46,38z M45,33   c0.4,0.3,0.7,0.6,1,1c0.3-0.4,0.6-0.7,1-1c-0.4-0.3-0.7-0.6-1-1C45.7,32.4,45.4,32.7,45,33z"/>
	<path d="M18,37c-0.6,0-1-0.4-1-1c0,0,0,0,0,0c0-1.7-1.3-3-3-3c-0.6,0-1-0.4-1-1s0.4-1,1-1c1.7,0,3-1.3,3-3c0-0.6,0.4-1,1-1   s1,0.4,1,1c0,1.7,1.3,3,3,3c0.6,0,1,0.4,1,1s-0.4,1-1,1c-1.7,0-3,1.3-3,3C19,36.6,18.6,37,18,37C18,37,18,37,18,37z M17,32   c0.4,0.3,0.7,0.6,1,1c0.3-0.4,0.6-0.7,1-1c-0.4-0.3-0.7-0.6-1-1C17.7,31.4,17.4,31.7,17,32z"/>
	<path class="st3" d="M61,30.8c0-2.1-1.2-3.8-3-3.8h-0.2c-1.7,0.1-3.1,1.5-3.1,3.3L52,44l0,0.1c-0.8-0.5-1.8-0.5-2.6,0l-7.5,5.3   c-0.5,0.4-0.9,1-0.9,1.7V61h10v-1.8l7-4.5c1.9-1.5,3.1-3.8,3-6.2L61,30.8z"/>
	<path class="st3" d="M3,30.8C3,28.7,4.2,27,6,27h0.2c1.7,0.1,3.1,1.5,3.1,3.3L12,44l0,0.1c0.8-0.5,1.8-0.5,2.6,0l7.5,5.3   c0.5,0.4,0.9,1,0.9,1.7V61H13v-1.8l-7-4.5c-1.9-1.5-3.1-3.8-3-6.2L3,30.8z"/>
	<path d="M51,62H41c-0.6,0-1-0.4-1-1c0,0,0,0,0,0v-9.9c0-1,0.5-1.9,1.3-2.5l7.5-5.3c0.7-0.5,1.5-0.7,2.4-0.6l2.5-12.7   c0.1-2.2,1.9-4,4.1-4.1H58c2.3,0,4,2.1,4,4.8l0,17.7c0.1,2.8-1.2,5.4-3.4,7L52,59.7V61C52,61.6,51.6,62,51,62C51,62,51,62,51,62z    M42,60h8v-0.8c0-0.3,0.2-0.7,0.5-0.8l7-4.5c1.7-1.3,2.6-3.3,2.5-5.4l0-17.7c0-1.6-0.9-2.8-2-2.8h-0.2c-1.2,0.2-2.1,1.2-2.1,2.4   l-2.6,13.3c1.3,1.3,1.3,3.4,0,4.7l-6.4,5.4l-1.3-1.5l6.4-5.4c0.2-0.2,0.3-0.5,0.3-0.9c0-0.7-0.6-1.3-1.3-1.3   c-0.3,0-0.5,0.1-0.8,0.2l-7.5,5.3c-0.3,0.2-0.4,0.5-0.4,0.9V60z"/>
	<path d="M23,62H13c-0.6,0-1-0.4-1-1c0,0,0,0,0,0v-1.3l-6.6-4.2c-2.2-1.6-3.5-4.3-3.4-7.1l0-17.7C2,28.1,3.7,26,6,26h0.2   c2.2,0.1,4,1.9,4.1,4.1l2.4,12.6c0.8-0.1,1.7,0.1,2.4,0.6l7.5,5.3c0.8,0.6,1.3,1.5,1.3,2.5V61C24,61.6,23.6,62,23,62   C23,62,23,62,23,62z M14,60h8v-8.9c0-0.3-0.2-0.7-0.4-0.9L14,44.9c-0.6-0.4-1.4-0.3-1.8,0.3c-0.4,0.5-0.3,1.2,0.1,1.6l7.3,5.3   l-1.2,1.6L11,48.4c0,0-0.1-0.1-0.1-0.1c-1.3-1.3-1.3-3.4,0-4.7L8.3,30.5c0-1.2-0.9-2.3-2.2-2.5H6c-1.1,0-2,1.2-2,2.8l0,17.7   c-0.1,2.1,0.9,4.1,2.5,5.4l7,4.5c0.3,0.2,0.5,0.5,0.5,0.8V60z"/>
	<path d="M59,12c-0.1-1.8-1.7-3.1-3.4-3H44.1C40.3,2.3,31.7,0,25,3.9c-2.1,1.2-3.9,3-5.1,5.1H8.4C6.7,8.9,5.1,10.2,5,12   c0.1,1.7,1.5,3,3.2,3c-0.6,1.6,0.3,3.3,1.8,3.8c0.3,0.1,0.7,0.2,1,0.2h0.2c-0.6,1.6,0.3,3.3,1.8,3.8c0.3,0.1,0.7,0.2,1,0.2h5.9   c3.8,6.7,12.4,9,19.1,5.1c2.1-1.2,3.9-3,5.1-5.1H50c1.7,0,3-1.3,3-3c0-0.3-0.1-0.7-0.2-1H53c1.7,0,3-1.3,3-3c0-0.3-0.1-0.7-0.2-1   C57.5,15,58.9,13.7,59,12z M14,21c-0.6,0-1-0.4-1-1s0.4-1,1-1h2v-2h-5c-0.6,0-1-0.4-1-1c0-0.6,0.4-1,1-1h4v-2H8.4   C7.7,13,7,12.5,7,12s0.7-1,1.4-1h10.5c-1.3,3.2-1.3,6.8,0,10H14z M33,27.9V25h-2v2.9c-5.8-0.5-10.5-5.1-10.9-10.9H23v-2h-2.9   C20.5,9.2,25.2,4.5,31,4.1V7h2V4.1C38.8,4.5,43.5,9.2,43.9,15H41v2h2.9C43.5,22.8,38.8,27.5,33,27.9z M55.6,13H49v2h4   c0.6,0,1,0.4,1,1c0,0.6-0.4,1-1,1h-5v2h2c0.6,0,1,0.4,1,1s-0.4,1-1,1h-4.9c1.3-3.2,1.3-6.8,0-10h10.5c0.8,0,1.4,0.5,1.4,1   S56.3,13,55.6,13z"/>
</g>
</svg>
