<?xml version="1.0"?>
<svg xmlns="http://www.w3.org/2000/svg" viewBox="0 0 64 64" width="512" height="512"><rect fill="#5358a1" height="4" rx="2" width="12" x="41" y="31"/><rect fill="#5358a1" height="4" rx="2" width="12" x="41" y="35"/><path d="m15.5 21a12.5 12.5 0 0 1 12.5 12.5v5.5l4 6h-4v8h-14v8h-11v-27.5a12.5 12.5 0 0 1 12.5-12.5z" fill="#dbe6fd"/><path d="m22.92988 31.93823a6.312 6.312 0 0 0 0-1.87646l-1.50674-.77668a5.65114 5.65114 0 0 0 -.37667-.90181l.51729-1.619a7.03033 7.03033 0 0 0 -1.32794-1.32794l-1.6191.51729a5.64674 5.64674 0 0 0 -.90181-.37672l-.77668-1.50674a6.31165 6.31165 0 0 0 -1.87641 0l-.77668 1.50669a5.64674 5.64674 0 0 0 -.90181.37672l-1.61905-.51729a7.02942 7.02942 0 0 0 -1.328 1.32794l.51729 1.6191a5.64674 5.64674 0 0 0 -.37672.90181l-1.50674.77668a6.31165 6.31165 0 0 0 0 1.87641l1.50669.77668a5.64674 5.64674 0 0 0 .37672.90181l-.51729 1.6191a7.02676 7.02676 0 0 0 1.32788 1.32788l1.6191-.51723a5.64586 5.64586 0 0 0 .90187.37672l.77668 1.50674a6.31165 6.31165 0 0 0 1.87641 0l.77668-1.50669a5.64674 5.64674 0 0 0 .90181-.37672l1.6191.51729a7.0271 7.0271 0 0 0 1.32794-1.32794l-.51729-1.6191a5.64674 5.64674 0 0 0 .37672-.90181z" fill="#f4393d"/><circle cx="16" cy="32" fill="#dbe6fd" r="2"/><path d="m56 18c0-5.52289-4.02942-10-9-10s-9 4.47711-9 10a10.677 10.677 0 0 0 1.89121 6.13138 10.95784 10.95784 0 0 1 2.10879 6.26191v.60671h10v-.60671a10.95784 10.95784 0 0 1 2.10879-6.26191 10.677 10.677 0 0 0 1.89121-6.13138z" fill="#fccc38"/><path d="m14 62h-11a.99974.99974 0 0 1 -1-1v-27.5a13.5 13.5 0 0 1 27 0v5.19727l3.832 5.748a.99992.99992 0 0 1 -.832 1.55473h-3v7a.99974.99974 0 0 1 -1 1h-13v7a.99974.99974 0 0 1 -1 1zm-10-2h9v-7a.99974.99974 0 0 1 1-1h13v-7a.99974.99974 0 0 1 1-1h2.13184l-2.96384-4.44531a1.00091 1.00091 0 0 1 -.168-.55469v-5.5a11.5 11.5 0 0 0 -23 0z"/><path d="m16 35a3 3 0 1 1 3-3 3.00328 3.00328 0 0 1 -3 3zm0-4a1 1 0 1 0 1 1 1.001 1.001 0 0 0 -1-1z"/><path d="m16.93848 39.92969h-1.877a.99905.99905 0 0 1 -.88867-.542l-.5957-1.15528c-.08985-.03515-.17969-.07275-.26856-.1123l-1.24023.396a.99522.99522 0 0 1 -.91113-.15771 7.99745 7.99745 0 0 1 -1.5166-1.51709 1.002 1.002 0 0 1 -.15723-.90967l.39648-1.24023c-.04-.08985-.07715-.1792-.1123-.269l-1.15528-.5957a.99905.99905 0 0 1 -.542-.88867v-1.87652a1.00035 1.00035 0 0 1 .542-.88916l1.15528-.59472c.03515-.08985.07226-.17969.1123-.269l-.39644-1.24028a1.002 1.002 0 0 1 .15723-.90967 8.03659 8.03659 0 0 1 1.51757-1.51806 1.00167 1.00167 0 0 1 .91114-.15723l1.24023.39648c.08887-.03955.17773-.07715.26758-.1123l.5957-1.15528a.99905.99905 0 0 1 .88867-.542h1.877a.99905.99905 0 0 1 .88867.542l.5957 1.15528c.08985.03515.17969.07275.26856.1123l1.24023-.396a1.00363 1.00363 0 0 1 .91113.15771 7.99809 7.99809 0 0 1 1.51661 1.51709 1.002 1.002 0 0 1 .15722.90967l-.39648 1.24023c.04.08936.07715.1792.1123.26905l1.15528.59472a1.00035 1.00035 0 0 1 .542.88916v1.877a1.00035 1.00035 0 0 1 -.542.88916l-1.15528.59472c-.03515.08985-.07226.17969-.1123.26905l.39648 1.24023a1.002 1.002 0 0 1 -.15722.90967 7.97119 7.97119 0 0 1 -1.51856 1.51807 1.00478 1.00478 0 0 1 -.91016.15673l-1.23925-.396c-.08985.03955-.17871.07715-.26856.1123l-.5957 1.15528a.99905.99905 0 0 1 -.88871.54197zm-1.26758-2h.6582l.49707-.96436a1.00046 1.00046 0 0 1 .58692-.4956 4.725 4.725 0 0 0 .74414-.311.99881.99881 0 0 1 .76465-.06494l1.09765.35059a5.8175 5.8175 0 0 0 .42481-.4253l-.35059-1.09814a1.00661 1.00661 0 0 1 .06543-.76514 4.58081 4.58081 0 0 0 .30957-.74072 1.00118 1.00118 0 0 1 .49609-.58936l.96485-.49707v-.65722l-.96485-.49707a1.00118 1.00118 0 0 1 -.49609-.58936 4.58081 4.58081 0 0 0 -.30957-.74072 1.00661 1.00661 0 0 1 -.06543-.76514l.35059-1.09814a5.91626 5.91626 0 0 0 -.42481-.4253l-1.09765.35059a.99885.99885 0 0 1 -.76465-.06494 4.725 4.725 0 0 0 -.74414-.311 1.00046 1.00046 0 0 1 -.58692-.4956l-.49707-.96436h-.6582l-.49707.96436a1.00046 1.00046 0 0 1 -.58692.4956 4.62568 4.62568 0 0 0 -.74121.31055 1.002 1.002 0 0 1 -.7666.06543l-1.09765-.35107a5.73967 5.73967 0 0 0 -.42579.42578l.35059 1.09814a1.00661 1.00661 0 0 1 -.06543.76514 4.58081 4.58081 0 0 0 -.30957.74072 1.00118 1.00118 0 0 1 -.49609.58936l-.96485.49707v.65722l.96485.49756a1.00022 1.00022 0 0 1 .49609.58887 4.58081 4.58081 0 0 0 .30957.74072 1.00661 1.00661 0 0 1 .06543.76514l-.35059 1.09802a5.91626 5.91626 0 0 0 .42481.4253l1.09766-.35059a.99841.99841 0 0 1 .76464.06494 4.725 4.725 0 0 0 .74414.311 1.00046 1.00046 0 0 1 .58692.4956z"/><path d="m57 18c0-6.06543-4.48633-11-10-11s-10 4.93457-10 11a11.64161 11.64161 0 0 0 2.07031 6.70361 14.87645 14.87645 0 0 1 1.8562 6.13733 2.96674 2.96674 0 0 0 -.14624 4.15906 2.98694 2.98694 0 0 0 2.21973 5h8a2.98694 2.98694 0 0 0 2.21973-5 2.96674 2.96674 0 0 0 -.14624-4.15906 14.87664 14.87664 0 0 1 1.85717-6.13879 11.64 11.64 0 0 0 2.06934-6.70215zm-5 15a1.001 1.001 0 0 1 -1 1h-8a1 1 0 0 1 0-2h8a1.001 1.001 0 0 1 1 1zm-1 5h-8a1 1 0 0 1 0-2h8a1 1 0 0 1 0 2zm.15448-7.98437c-.05225-.00275-.10156-.01563-.15448-.01563h-8c-.05292 0-.10223.01288-.15448.01563a16.01273 16.01273 0 0 0 -2.13556-6.458 9.64319 9.64319 0 0 1 -1.70996-5.55763c0-4.9624 3.58887-9 8-9s8 4.0376 8 9a9.64159 9.64159 0 0 1 -1.709 5.55615 16.0152 16.0152 0 0 0 -2.13652 6.45948z"/><path d="m43 17h-2a6.00657 6.00657 0 0 1 6-6v2a4.00427 4.00427 0 0 0 -4 4z"/><g fill="#fccc38"><path d="m46 2h2v3h-2z"/><path d="m59 14h3v2h-3z"/><path d="m32 14h3v2h-3z"/><path d="m36.45421 5.95426h1.99979v2.99968h-1.99979z" transform="matrix(.70710678 -.70710678 .70710678 .70710678 5.69921 28.6673)"/><path d="m55.04606 6.45421h2.99968v1.99979h-2.99968z" transform="matrix(.70710678 -.70710678 .70710678 .70710678 11.29106 42.16724)"/></g><path d="m31 31h2v2h-2z"/><path d="m35 31h2v2h-2z"/><path d="m35 35h2v2h-2z"/><path d="m35 39h2v2h-2z"/><path d="m35 43h2v2h-2z"/><path d="m35 47h2v2h-2z"/><path d="m35 51h2v2h-2z"/><path d="m47 43h2v2h-2z"/><path d="m47 47h2v2h-2z"/><path d="m47 51h2v2h-2z"/><path d="m39 51h2v2h-2z"/><path d="m43 51h2v2h-2z"/></svg>
