<?xml version="1.0"?>
<svg xmlns="http://www.w3.org/2000/svg" viewBox="0 0 64 64" width="512" height="512"><circle cx="51" cy="12.9996" fill="#fccc38" r="10"/><circle cx="51" cy="12.9996" fill="#ff7f00" r="6"/><circle cx="51" cy="12.9996" fill="#f4393d" r="2"/><path d="m21.33342 31.44362 2.66658-12.44402-4 1-2 10-1.60059.80029a3.09751 3.09751 0 0 0 -.8218-2.979 3.47991 3.47991 0 0 0 -2.83146-1.31222 3.49772 3.49772 0 0 0 -1.15051 6.69307l-3.59564 1.79786-5 11 3 2 5-10v23h4l1-15 4 15 4-1-5-25 .87478-.87478a5.38843 5.38843 0 0 0 1.45864-2.6812z" fill="#17afdc"/><path d="m29 15 1 6 5-4z" fill="#f4393d"/><path d="m51 23.99951a11 11 0 1 1 11-11 11.01245 11.01245 0 0 1 -11 11zm0-20a9 9 0 1 0 9 9 9.01016 9.01016 0 0 0 -9-9z"/><path d="m51 15.99951a3 3 0 1 1 3-3 3.00328 3.00328 0 0 1 -3 3zm0-4a1 1 0 1 0 1 1 1.001 1.001 0 0 0 -1-1z"/><path d="m51 19.99951a7 7 0 1 1 7-7 7.00818 7.00818 0 0 1 -7 7zm0-12a5 5 0 1 0 5 5 5.00589 5.00589 0 0 0 -5-5z"/><path d="m35.98438 16.82373a.99978.99978 0 0 0 -.668-.773l-6-2a1.00022 1.00022 0 0 0 -1.30274 1.11328l.352 2.11194-15.21385 2.68133-3.70452-1.85228-.89454 1.789 2.55274 1.27637-2.70508 2.0293 1.19922 1.59961 3.80823-2.8562 5.3731-.947-1.53094 7.6548a5.04649 5.04649 0 0 0 -.91406-1.48193 4.46281 4.46281 0 0 0 -3.66114-1.65772 4.49648 4.49648 0 0 0 -2.98925 7.52734l-2.13282 1.06643a.99752.99752 0 0 0 -.46289.481l-5 11a.999.999 0 0 0 .35547 1.2456l3 2a1.00041 1.00041 0 0 0 1.44922-.38476l3.10547-6.21149v18.76416a.99974.99974 0 0 0 1 1h4a1.00043 1.00043 0 0 0 .998-.93359l.59668-8.95508 2.43945 9.14648a.99935.99935 0 0 0 .96484.74219.987.987 0 0 0 .24317-.02978l4-1a1 1 0 0 0 .73828-1.16651l-4.89448-24.47509.49609-.4961a6.36244 6.36244 0 0 0 1.72852-3.17871l2.51214-11.72192 3.87183-.68238.31915 1.915a1.00011 1.00011 0 0 0 1.61133.61621l5-4a.99906.99906 0 0 0 .35938-.9565zm-15.62891 14.41113a4.37593 4.37593 0 0 1 -1.1875 2.18262l-.875.87451a1.00184 1.00184 0 0 0 -.27344.90381l4.81247 24.06494-2.11914.52979-3.74704-14.04883a1 1 0 0 0 -1.96387.19141l-.9375 14.0664h-2.06445v-22a1.00012 1.00012 0 0 0 -1.89453-.44726l-4.49317 8.98681-1.3496-.8999 4.501-9.90332 3.2793-1.63965a.99991.99991 0 0 0 -.04492-1.81006 2.49749 2.49749 0 0 1 .81933-4.77978 2.46046 2.46046 0 0 1 2.002.96679 2.10826 2.10826 0 0 1 .60644 2.09766 1.00048 1.00048 0 0 0 1.4209 1.12354l1.60059-.8003a.99987.99987 0 0 0 .5332-.69824l1.91443-9.5722 1.80267-.31769zm10.35058-12.08105-.44628-2.68018 2.68066.89307z"/><path d="m58 55.99951h2v2h-2z"/><path d="m58 59.99951h2v2h-2z"/><path d="m60 57.99951h2v2h-2z"/><path d="m56 57.99951h2v2h-2z"/><path d="m3.96716 1.99987h2.00026v1.99977h-2.00026z" transform="matrix(.99987014 -.01611515 .01611515 .99987014 -.0477 .08044)"/><path d="m4.03259 5.99938h2.00026v1.99977h-2.00026z" transform="matrix(.99987014 -.01611515 .01611515 .99987014 -.11214 .08201)"/><path d="m5.99987 3.9669h2.00027v2.00028h-2.00027z" transform="matrix(.99986222 -.01659924 .01659924 .99986222 -.08148 .11688)"/><path d="m1.99987 4.0321h2.00026v2.00024h-2.00026z" transform="matrix(.99987795 -.01562303 .01562303 .99987795 -.07825 .04748)"/><path d="m37 33.99951h2v2h-2z"/><path d="m37 37.99951h2v2h-2z"/><path d="m39 35.99951h2v2h-2z"/><path d="m35 35.99951h2v2h-2z"/></svg>
