<?xml version="1.0" encoding="utf-8"?>
<!-- Generator: Adobe Illustrator 21.0.0, SVG Export Plug-In . SVG Version: 6.00 Build 0)  -->
<svg xmlns="http://www.w3.org/2000/svg" xmlns:xlink="http://www.w3.org/1999/xlink" version="1.1" id="Layer_1" x="0px" y="0px" viewBox="0 0 64 64" style="enable-background:new 0 0 64 64;" xml:space="preserve" width="512" height="512">
<style type="text/css">
	.st0{fill:#F4393D;}
	.st1{fill:#17AFDC;}
	.st2{fill:#DBE6FD;}
</style>
<g>
	<path class="st0" d="M25,32v7c0,2.2-1.8,4-4,4c0,0,0,0,0,0h-2c2.2-1.6,2.7-4.8,1-7s-4.8-2.7-7-1c-2.2,1.6-2.7,4.8-1,7   c0.3,0.4,0.6,0.8,1,1h-2c-2.2,0-4-1.8-4-4c0,0,0,0,0,0v-7H3v9c0,3.9,3.1,7,7,7v13h12V48c3.9,0,7-3.1,7-7v-9H25z"/>
	<path class="st1" d="M56,32v7c0,2.2-1.8,4-4,4c0,0,0,0,0,0h-2c2.2-1.6,2.7-4.8,1-7c-1.6-2.2-4.8-2.7-7-1c-2.2,1.6-2.7,4.8-1,7   c0.3,0.4,0.6,0.8,1,1h-2c-2.2,0-4-1.8-4-4c0,0,0,0,0,0v-7h-4v9c0,3.9,3.1,7,7,7v13h12V48c3.9,0,7-3.1,7-7v-9H56z"/>
	<path class="st1" d="M60.9,17.6c0.1-1.1,0.1-2.1,0-3.2L59,14c-0.1-0.6-0.3-1.2-0.5-1.8l1.5-1.3c-0.4-1-1-1.9-1.6-2.7l-1.9,0.6   c-0.4-0.5-0.8-0.9-1.3-1.3l0.6-1.9C55,5,54.1,4.5,53.1,4l-1.3,1.5C51.2,5.3,50.6,5.2,50,5l-0.4-1.9c-1.1-0.1-2.1-0.1-3.2,0L46,5   c-0.6,0.1-1.2,0.3-1.8,0.5L42.9,4c-1,0.4-1.9,1-2.7,1.6l0.6,1.9c-0.5,0.4-0.9,0.8-1.3,1.3l-1.9-0.6C37,9,36.5,9.9,36,10.9l1.5,1.3   c-0.2,0.6-0.4,1.2-0.5,1.8l-1.9,0.4c-0.1,1.1-0.1,2.1,0,3.2L37,18c0.1,0.6,0.3,1.2,0.5,1.8L36,21.1c0.4,1,1,1.9,1.6,2.7l1.9-0.6   c0.4,0.5,0.8,0.9,1.3,1.3l-0.6,1.9c0.8,0.6,1.8,1.2,2.7,1.6l1.3-1.5c0.6,0.2,1.2,0.4,1.8,0.5l0.4,1.9c1.1,0.1,2.1,0.1,3.2,0L50,27   c0.6-0.1,1.2-0.3,1.8-0.5l1.3,1.5c1-0.4,1.9-1,2.7-1.6l-0.6-1.9c0.5-0.4,0.9-0.8,1.3-1.3l1.9,0.6c0.6-0.8,1.2-1.8,1.6-2.7l-1.5-1.3   c0.2-0.6,0.4-1.2,0.5-1.8L60.9,17.6z"/>
	<circle class="st2" cx="48" cy="16" r="7"/>
	<polygon class="st1" points="46,13 46,19 52,16  "/>
	<path class="st0" d="M28.9,17.6c0.1-1.1,0.1-2.1,0-3.2L27,14c-0.1-0.6-0.3-1.2-0.5-1.8l1.5-1.3c-0.4-1-1-1.9-1.6-2.7l-1.9,0.6   c-0.4-0.5-0.8-0.9-1.3-1.3l0.6-1.9C23,5,22.1,4.5,21.1,4l-1.3,1.5C19.2,5.3,18.6,5.2,18,5l-0.4-1.9c-1.1-0.1-2.1-0.1-3.2,0L14,5   c-0.6,0.1-1.2,0.3-1.8,0.5L10.9,4C9.9,4.5,9,5,8.2,5.6l0.6,1.9C8.3,7.9,7.9,8.3,7.5,8.8L5.6,8.2C5,9,4.5,9.9,4,10.9l1.5,1.3   C5.3,12.8,5.2,13.4,5,14l-1.9,0.4c-0.1,1.1-0.1,2.1,0,3.2L5,18c0.1,0.6,0.3,1.2,0.5,1.8L4,21.1c0.4,1,1,1.9,1.6,2.7l1.9-0.6   c0.4,0.5,0.8,0.9,1.3,1.3l-0.6,1.9C9,27,9.9,27.5,10.9,28l1.3-1.5c0.6,0.2,1.2,0.4,1.8,0.5l0.4,1.9c1.1,0.1,2.1,0.1,3.2,0L18,27   c0.6-0.1,1.2-0.3,1.8-0.5l1.3,1.5c1-0.4,1.9-1,2.7-1.6l-0.6-1.9c0.5-0.4,0.9-0.8,1.3-1.3l1.9,0.6c0.6-0.8,1.2-1.8,1.6-2.7l-1.5-1.3   c0.2-0.6,0.4-1.2,0.5-1.8L28.9,17.6z"/>
	<circle class="st2" cx="16" cy="16" r="7"/>
	<polygon class="st0" points="14,13 14,19 20,16  "/>
	<path d="M22,62H10c-0.6,0-1-0.4-1-1c0,0,0,0,0,0V48.9C5,48.4,2,45,2,41v-9c0-0.6,0.4-1,1-1c0,0,0,0,0,0h4c0.6,0,1,0.4,1,1   c0,0,0,0,0,0v7c0,1.6,1.2,2.9,2.8,3c-0.5-0.9-0.8-1.9-0.8-3c0-3.3,2.7-6,6-6s6,2.7,6,6c0,1.1-0.3,2.1-0.8,3c1.6-0.1,2.8-1.4,2.8-3   v-7c0-0.6,0.4-1,1-1c0,0,0,0,0,0h4c0.6,0,1,0.4,1,1c0,0,0,0,0,0v9c0,4-3,7.4-7,7.9V61C23,61.6,22.6,62,22,62C22,62,22,62,22,62z    M11,60h10V48c0-0.6,0.4-1,1-1c0,0,0,0,0,0c3.3,0,6-2.7,6-6v-8h-2v6c0,2.8-2.2,5-5,5h-2c-0.6,0-1-0.4-1-1c0-0.3,0.1-0.6,0.4-0.8   c1-0.7,1.6-1.9,1.6-3.2c0-2.2-1.8-4-4-4s-4,1.8-4,4c0,1.3,0.6,2.5,1.6,3.2c0.4,0.3,0.5,1,0.2,1.4C13.6,43.9,13.3,44,13,44h-2   c-2.8,0-5-2.2-5-5v-6H4v8c0,3.3,2.7,6,6,6c0.6,0,1,0.4,1,1c0,0,0,0,0,0V60z"/>
	<path d="M53,62H41c-0.6,0-1-0.4-1-1c0,0,0,0,0,0V48.9c-4-0.5-7-3.9-7-7.9v-9c0-0.6,0.4-1,1-1c0,0,0,0,0,0h4c0.6,0,1,0.4,1,1   c0,0,0,0,0,0v7c0,1.6,1.2,2.9,2.8,3c-0.5-0.9-0.8-1.9-0.8-3c0-3.3,2.7-6,6-6s6,2.7,6,6c0,1.1-0.3,2.1-0.8,3c1.6-0.1,2.8-1.4,2.8-3   v-7c0-0.6,0.4-1,1-1c0,0,0,0,0,0h4c0.6,0,1,0.4,1,1c0,0,0,0,0,0v9c0,4-3,7.4-7,7.9V61C54,61.6,53.6,62,53,62C53,62,53,62,53,62z    M42,60h10V48c0-0.6,0.4-1,1-1c0,0,0,0,0,0c3.3,0,6-2.7,6-6v-8h-2v6c0,2.8-2.2,5-5,5h-2c-0.6,0-1-0.4-1-1c0-0.3,0.1-0.6,0.4-0.8   c1-0.7,1.6-1.9,1.6-3.2c0-2.2-1.8-4-4-4s-4,1.8-4,4c0,1.3,0.6,2.5,1.6,3.2c0.4,0.3,0.5,1,0.2,1.4C44.6,43.9,44.3,44,44,44h-2   c-2.8,0-5-2.2-5-5v-6h-2v8c0,3.3,2.7,6,6,6c0.6,0,1,0.4,1,1c0,0,0,0,0,0V60z"/>
	<path d="M49.6,30h-3.2c-0.5,0-0.9-0.3-1-0.8l-0.3-1.4c-0.2,0-0.4-0.1-0.6-0.2l-0.9,1c-0.3,0.3-0.7,0.4-1.1,0.3c-1-0.5-2-1-2.9-1.7   c-0.3-0.3-0.5-0.7-0.3-1.1l0.4-1.3c-0.2-0.1-0.3-0.3-0.5-0.5l-1.3,0.4c-0.4,0.1-0.9,0-1.1-0.3c-0.7-0.9-1.3-1.9-1.7-2.9   c-0.2-0.4-0.1-0.9,0.3-1.1l1-0.9c-0.1-0.2-0.1-0.4-0.2-0.6l-1.4-0.3c-0.5-0.1-0.8-0.5-0.8-1v-3.2c0-0.5,0.3-0.9,0.8-1l1.4-0.3   c0-0.2,0.1-0.4,0.2-0.6l-1-0.9c-0.3-0.3-0.4-0.7-0.3-1.1c0.4-1,1-2,1.7-2.9c0.3-0.3,0.7-0.5,1.1-0.3l1.3,0.4   c0.1-0.2,0.3-0.3,0.5-0.5l-0.4-1.3c-0.1-0.4,0-0.9,0.3-1.1c0.9-0.7,1.9-1.3,2.9-1.7c0.4-0.2,0.9-0.1,1.1,0.3l0.9,1   c0.2-0.1,0.4-0.1,0.6-0.2l0.3-1.4c0.1-0.5,0.5-0.8,1-0.8h3.2c0.5,0,0.9,0.3,1,0.8l0.3,1.4c0.2,0,0.4,0.1,0.6,0.2l0.9-1   c0.3-0.3,0.7-0.4,1.1-0.3c1,0.5,2,1,2.9,1.7c0.3,0.3,0.5,0.7,0.3,1.1l-0.4,1.3c0.2,0.1,0.3,0.3,0.5,0.5l1.3-0.4   c0.4-0.1,0.9,0,1.1,0.3c0.7,0.9,1.3,1.9,1.7,2.9c0.2,0.4,0.1,0.9-0.3,1.1l-1,0.9c0.1,0.2,0.1,0.4,0.2,0.6l1.4,0.3   c0.5,0.1,0.8,0.5,0.8,1v3.2c0,0.5-0.3,0.9-0.8,1l-1.4,0.3c0,0.2-0.1,0.4-0.2,0.6l1,0.9c0.3,0.3,0.4,0.7,0.3,1.1c-0.4,1-1,2-1.7,2.9   c-0.3,0.3-0.7,0.5-1.1,0.3l-1.3-0.4c-0.1,0.2-0.3,0.3-0.5,0.5l0.4,1.3c0.1,0.4,0,0.9-0.3,1.1c-0.9,0.7-1.9,1.3-2.9,1.7   c-0.4,0.2-0.9,0.1-1.1-0.3l-0.9-1c-0.2,0.1-0.4,0.1-0.6,0.2l-0.3,1.4C50.5,29.7,50.1,30,49.6,30z M47.2,28h1.5l0.2-1.2   c0.1-0.4,0.4-0.7,0.8-0.8c0.5-0.1,1.1-0.2,1.6-0.4c0.4-0.1,0.8,0,1.1,0.3l0.8,0.9c0.4-0.2,0.9-0.5,1.3-0.8l-0.4-1.2   c-0.1-0.4,0-0.8,0.3-1.1c0.4-0.4,0.8-0.8,1.2-1.2c0.3-0.3,0.7-0.4,1.1-0.3l1.2,0.4c0.3-0.4,0.5-0.8,0.8-1.3l-0.9-0.8   c-0.3-0.3-0.4-0.7-0.3-1.1c0.2-0.5,0.3-1.1,0.4-1.6c0.1-0.4,0.4-0.7,0.8-0.8l1.2-0.2v-1.5L58.8,15c-0.4-0.1-0.7-0.4-0.8-0.8   c-0.1-0.5-0.2-1.1-0.4-1.6c-0.1-0.4,0-0.8,0.3-1.1l0.9-0.8c-0.2-0.4-0.5-0.9-0.8-1.3l-1.2,0.4c-0.4,0.1-0.8,0-1.1-0.3   C55.4,9,55,8.6,54.6,8.3c-0.3-0.3-0.4-0.7-0.3-1.1L54.6,6c-0.4-0.3-0.8-0.5-1.3-0.8l-0.8,0.9c-0.3,0.3-0.7,0.4-1.1,0.3   c-0.5-0.2-1.1-0.3-1.6-0.4C49.4,6,49.1,5.6,49,5.2L48.8,4h-1.5L47,5.2C46.9,5.6,46.6,6,46.2,6c-0.5,0.1-1.1,0.2-1.6,0.4   c-0.4,0.1-0.8,0-1.1-0.3l-0.8-0.9c-0.4,0.2-0.9,0.5-1.3,0.8l0.4,1.2c0.1,0.4,0,0.8-0.3,1.1C41,8.6,40.6,9,40.3,9.4   c-0.3,0.3-0.7,0.4-1.1,0.3L38,9.4c-0.3,0.4-0.5,0.8-0.8,1.3l0.9,0.8c0.3,0.3,0.4,0.7,0.3,1.1c-0.2,0.5-0.3,1.1-0.4,1.6   c-0.1,0.4-0.4,0.7-0.8,0.8L36,15.2v1.5l1.2,0.2c0.4,0.1,0.7,0.4,0.8,0.8c0.1,0.5,0.2,1.1,0.4,1.6c0.1,0.4,0,0.8-0.3,1.1l-0.9,0.8   c0.2,0.4,0.5,0.9,0.8,1.3l1.2-0.4c0.4-0.1,0.8,0,1.1,0.3c0.4,0.4,0.8,0.8,1.2,1.2c0.3,0.3,0.4,0.7,0.3,1.1L41.4,26   c0.4,0.3,0.8,0.5,1.3,0.8l0.8-0.9c0.3-0.3,0.7-0.4,1.1-0.3c0.5,0.2,1.1,0.3,1.6,0.4c0.4,0.1,0.7,0.4,0.8,0.8L47.2,28z"/>
	<path d="M48,24c-4.4,0-8-3.6-8-8s3.6-8,8-8s8,3.6,8,8C56,20.4,52.4,24,48,24z M48,10c-3.3,0-6,2.7-6,6s2.7,6,6,6s6-2.7,6-6   C54,12.7,51.3,10,48,10z"/>
	<path d="M46,20c-0.6,0-1-0.4-1-1c0,0,0,0,0,0v-6c0-0.6,0.4-1,1-1c0.2,0,0.3,0,0.4,0.1l6,3c0.5,0.2,0.7,0.8,0.4,1.3   c-0.1,0.2-0.3,0.4-0.4,0.4l-6,3C46.3,20,46.2,20,46,20z M47,14.6v2.8l2.8-1.4L47,14.6z"/>
	<path d="M17.6,30h-3.2c-0.5,0-0.9-0.3-1-0.8l-0.3-1.4c-0.2,0-0.4-0.1-0.6-0.2l-0.9,1c-0.3,0.3-0.7,0.4-1.1,0.3c-1-0.5-2-1-2.9-1.7   c-0.3-0.3-0.5-0.7-0.3-1.1l0.4-1.3c-0.2-0.1-0.3-0.3-0.5-0.5l-1.3,0.4c-0.4,0.1-0.9,0-1.1-0.3c-0.7-0.9-1.3-1.9-1.7-2.9   c-0.2-0.4-0.1-0.9,0.3-1.1l1-0.9c-0.1-0.2-0.1-0.4-0.2-0.6l-1.4-0.3c-0.5-0.1-0.8-0.5-0.8-1v-3.2c0-0.5,0.3-0.9,0.8-1l1.4-0.3   c0-0.2,0.1-0.4,0.2-0.6l-1-0.9c-0.3-0.3-0.4-0.7-0.3-1.1c0.4-1,1-2,1.7-2.9c0.3-0.3,0.7-0.5,1.1-0.3l1.3,0.4   c0.1-0.2,0.3-0.3,0.5-0.5L7.2,5.9c-0.1-0.4,0-0.9,0.3-1.1c0.9-0.7,1.9-1.3,2.9-1.7c0.4-0.2,0.9-0.1,1.1,0.3l0.9,1   c0.2-0.1,0.4-0.1,0.6-0.2l0.3-1.4c0.1-0.5,0.5-0.8,1-0.8h3.2c0.5,0,0.9,0.3,1,0.8l0.3,1.4c0.2,0,0.4,0.1,0.6,0.2l0.9-1   c0.3-0.3,0.7-0.4,1.1-0.3c1,0.5,2,1,2.9,1.7c0.3,0.3,0.5,0.7,0.3,1.1l-0.4,1.3c0.2,0.1,0.3,0.3,0.5,0.5l1.3-0.4   c0.4-0.1,0.9,0,1.1,0.3c0.7,0.9,1.3,1.9,1.7,2.9c0.2,0.4,0.1,0.9-0.3,1.1l-1,0.9c0.1,0.2,0.1,0.4,0.2,0.6l1.3,0.3   c0.5,0.1,0.8,0.5,0.8,1v3.2c0,0.5-0.3,0.9-0.8,1l-1.3,0.3c0,0.2-0.1,0.4-0.2,0.6l1,0.9c0.3,0.3,0.4,0.7,0.3,1.1c-0.4,1-1,2-1.7,2.9   c-0.3,0.3-0.7,0.5-1.1,0.3l-1.3-0.4c-0.1,0.2-0.3,0.3-0.5,0.5l0.4,1.3c0.1,0.4,0,0.9-0.3,1.1c-0.9,0.7-1.9,1.3-2.9,1.7   c-0.4,0.2-0.9,0.1-1.1-0.3l-0.9-1c-0.2,0.1-0.4,0.1-0.6,0.2l-0.3,1.4C18.5,29.7,18.1,30,17.6,30z M15.2,28h1.5l0.2-1.2   c0.1-0.4,0.4-0.7,0.8-0.8c0.5-0.1,1.1-0.2,1.6-0.4c0.4-0.1,0.8,0,1.1,0.3l0.8,0.9c0.4-0.2,0.9-0.5,1.3-0.8l-0.4-1.2   c-0.1-0.4,0-0.8,0.3-1.1c0.4-0.4,0.8-0.8,1.2-1.2c0.3-0.3,0.7-0.4,1.1-0.3l1.2,0.4c0.3-0.4,0.5-0.8,0.8-1.3l-0.9-0.8   c-0.3-0.3-0.4-0.7-0.3-1.1c0.2-0.5,0.3-1.1,0.4-1.6c0.1-0.4,0.4-0.7,0.8-0.8l1.1-0.2v-1.5L26.8,15c-0.4-0.1-0.7-0.4-0.8-0.8   c-0.1-0.5-0.2-1.1-0.4-1.6c-0.1-0.4,0-0.8,0.3-1.1l0.9-0.8c-0.2-0.4-0.5-0.9-0.8-1.3l-1.2,0.4c-0.4,0.1-0.8,0-1.1-0.3   C23.4,9,23,8.6,22.6,8.3c-0.3-0.3-0.4-0.7-0.3-1.1L22.6,6c-0.4-0.3-0.8-0.5-1.3-0.8l-0.8,0.9c-0.3,0.3-0.7,0.4-1.1,0.3   c-0.5-0.2-1.1-0.3-1.6-0.4C17.4,6,17.1,5.6,17,5.2L16.8,4h-1.5L15,5.2C14.9,5.6,14.6,6,14.2,6c-0.5,0.1-1.1,0.2-1.6,0.4   c-0.4,0.1-0.8,0-1.1-0.3l-0.8-0.9C10.2,5.5,9.8,5.7,9.4,6l0.4,1.2c0.1,0.4,0,0.8-0.3,1.1C9,8.6,8.6,9,8.3,9.4   C8,9.8,7.6,9.9,7.2,9.8L6,9.4c-0.3,0.4-0.5,0.8-0.8,1.3l0.9,0.8c0.3,0.3,0.4,0.7,0.3,1.1c-0.2,0.5-0.3,1.1-0.4,1.6   C6,14.6,5.6,14.9,5.2,15L4,15.2v1.5L5.2,17C5.6,17.1,6,17.4,6,17.8c0.1,0.5,0.2,1.1,0.4,1.6c0.1,0.4,0,0.8-0.3,1.1l-0.9,0.8   c0.2,0.4,0.5,0.9,0.8,1.3l1.2-0.4c0.4-0.1,0.8,0,1.1,0.3C8.6,23,9,23.4,9.4,23.7c0.3,0.3,0.4,0.7,0.3,1.1L9.4,26   c0.4,0.3,0.8,0.5,1.3,0.8l0.8-0.9c0.3-0.3,0.7-0.4,1.1-0.3c0.5,0.2,1.1,0.3,1.6,0.4c0.4,0.1,0.7,0.4,0.8,0.8L15.2,28z"/>
	<path d="M16,24c-4.4,0-8-3.6-8-8s3.6-8,8-8s8,3.6,8,8C24,20.4,20.4,24,16,24z M16,10c-3.3,0-6,2.7-6,6s2.7,6,6,6s6-2.7,6-6   C22,12.7,19.3,10,16,10z"/>
	<path d="M14,20c-0.6,0-1-0.4-1-1c0,0,0,0,0,0v-6c0-0.6,0.4-1,1-1c0.2,0,0.3,0,0.4,0.1l6,3c0.5,0.2,0.7,0.8,0.4,1.3   c-0.1,0.2-0.3,0.4-0.4,0.4l-6,3C14.3,20,14.2,20,14,20z M15,14.6v2.8l2.8-1.4L15,14.6z"/>
	<rect x="48" y="56" width="2" height="2"/>
	<rect x="13" y="56" width="2" height="2"/>
</g>
</svg>
