<?xml version="1.0"?>
<svg xmlns="http://www.w3.org/2000/svg" viewBox="0 0 64 64" width="512" height="512"><path d="m34 47.31839h-1.01367a2.34216 2.34216 0 0 0 .91443-2.60229 2.422 2.422 0 0 0 -1.7279-1.63186 2.48512 2.48512 0 0 0 -3.17286 2.31486 2.35921 2.35921 0 0 0 1.01367 1.91929h-1.01367a1.96089 1.96089 0 0 0 -2 1.91929v5.75788h2v6.00444h5v-6.00444h2v-5.75788a1.96089 1.96089 0 0 0 -2-1.91929z" fill="#17afdc"/><path d="m18.9991 47.00439c.04905 5.76681-1.90028 8.11172-7.9982 7.99121-.04906-5.76681 1.9001-8.11155 7.9982-7.99121z" fill="#24db6a"/><path d="m3.0009 47.00439c-.04905 5.76681 1.90028 8.11172 7.9982 7.99121.04906-5.76681-1.9001-8.11155-7.9982-7.99121z" fill="#24db6a"/><path d="m38.92987 26.93823a6.31109 6.31109 0 0 0 0-1.87646l-1.50671-.77667a5.64962 5.64962 0 0 0 -.37671-.90186l.51733-1.619a7.03033 7.03033 0 0 0 -1.32794-1.32794l-1.61914.51727a5.64666 5.64666 0 0 0 -.9018-.37671l-.77667-1.50671a6.31069 6.31069 0 0 0 -1.8764 0l-.77667 1.50665a5.64575 5.64575 0 0 0 -.9018.37671l-1.61908-.51727a7.02888 7.02888 0 0 0 -1.328 1.32794l.51733 1.61908a5.64435 5.64435 0 0 0 -.37677.90186l-1.50671.77667a6.31069 6.31069 0 0 0 0 1.8764l1.50665.77667a5.64048 5.64048 0 0 0 .37677.9018l-.51733 1.61914a7.02794 7.02794 0 0 0 1.32788 1.32788l1.61914-.51727a5.64755 5.64755 0 0 0 .90186.37677l.77667 1.50671a6.31069 6.31069 0 0 0 1.8764 0l.77667-1.50671a5.6487 5.6487 0 0 0 .90186-.37671l1.61908.51727a7.02649 7.02649 0 0 0 1.32794-1.32788l-.51727-1.61914a5.649 5.649 0 0 0 .37671-.9018zm-6.92987 1.06177a2 2 0 1 1 2-2 2 2 0 0 1 -2 2z" fill="#dbe6fd"/><path d="m32 3h7v6h-7z" fill="#f4393d"/><path d="m39 4h4v6h-4z" fill="#f4393d"/><path d="m34 62h-5a.99974.99974 0 0 1 -1-1v-5.00488h-1a.99974.99974 0 0 1 -1-1v-5.75782a2.93578 2.93578 0 0 1 2.165-2.80371 3.29924 3.29924 0 0 1 -.165-1.03418 3.34934 3.34934 0 0 1 1.30811-2.65041 3.5787 3.5787 0 0 1 3.10742-.63476 3.443 3.443 0 0 1 2.4458 2.32226 3.35932 3.35932 0 0 1 -.03028 1.9961 2.93642 2.93642 0 0 1 2.16895 2.8047v5.75782a.99974.99974 0 0 1 -1 1h-1v5.00488a.99974.99974 0 0 1 -1 1zm-4-2h3v-5.00488a.99973.99973 0 0 1 1-1h1v-4.75782a.96314.96314 0 0 0 -1-.91894h-1.01367a1 1 0 0 1 -.58154-1.81348 1.33888 1.33888 0 0 0 .53564-1.51074 1.42944 1.42944 0 0 0 -1.01025-.94043 1.6084 1.6084 0 0 0 -1.39112.27149 1.33175 1.33175 0 0 0 .05615 2.17968 1 1 0 0 1 -.58154 1.81348h-1.01367a.96314.96314 0 0 0 -1 .91894v4.75782h1a.99973.99973 0 0 1 1 1z"/><path d="m19.999 46.99512a1.0003 1.0003 0 0 0 -.98047-.99121c-3.28662-.07032-5.50488.56933-6.94824 1.99707a5.83388 5.83388 0 0 0 -1.07029 1.48211 5.83388 5.83388 0 0 0 -1.07031-1.48209c-1.44287-1.42676-3.65479-2.06153-6.94824-1.99707a1.0003 1.0003 0 0 0 -.98047.99121c-.02881 3.39941.60937 5.55957 2.06982 7.0039 1.28729 1.27265 3.19391 1.90692 5.9281 1.98444l.0011 6.01652h2l-.0011-6.01648c2.735-.07721 4.6427-.71149 5.9303-1.9845 1.46045-1.44433 2.09863-3.60449 2.0698-7.0039zm-14.522 5.581c-.90185-.8916-1.37353-2.35644-1.46191-4.56836 2.16064.06641 3.60693.52344 4.5083 1.415s1.373 2.35645 1.46142 4.56836c-2.16059-.06632-3.60639-.52335-4.50776-1.41495zm6.53809 1.415c.08838-2.21191.56006-3.67676 1.46142-4.56836.90186-.8916 2.34717-1.34863 4.5083-1.415-.08838 2.21192-.56006 3.67676-1.46191 4.56836-.90132.89165-2.34712 1.34868-4.50776 1.41509z"/><path d="m32 29a3 3 0 1 1 3-3 3.00328 3.00328 0 0 1 -3 3zm0-4a1 1 0 1 0 1 1 1.001 1.001 0 0 0 -1-1z"/><path d="m32.938 34h-1.87648a.99981.99981 0 0 1 -.897-.55859l-.59717-1.21289q-.12963-.05127-.25879-.1084l-1.24023.39648a1.0085 1.0085 0 0 1 -.90967-.15722 8.03693 8.03693 0 0 1 -1.51806-1.51758 1.00211 1.00211 0 0 1 -.15723-.91114l.39648-1.24023q-.05712-.12744-.1084-.25781l-1.21337-.59668a1.00117 1.00117 0 0 1 -.55808-.89746v-1.877a1.00117 1.00117 0 0 1 .55811-.89746l1.21337-.59668c.03418-.08691.07032-.17285.1084-.25879l-.396-1.24023a1.00086 1.00086 0 0 1 .15771-.91113 8.03789 8.03789 0 0 1 1.5166-1.5166 1.0129 1.0129 0 0 1 .91016-.15723l1.24023.39648c.08643-.03808.17237-.07422.25879-.1084l.59766-1.21289a.99981.99981 0 0 1 .89697-.55855h1.87647a.99981.99981 0 0 1 .897.55859l.59717 1.21289q.12963.05127.25879.1084l1.24023-.39648a1.00823 1.00823 0 0 1 .90967.15723 8.03693 8.03693 0 0 1 1.51807 1.51757 1.00214 1.00214 0 0 1 .15722.91114l-.39648 1.23925c.03808.08594.07422.17188.1084.25879l1.21337.59668a1.00117 1.00117 0 0 1 .55809.89746v1.877a1.00117 1.00117 0 0 1 -.55811.89746l-1.21337.59668c-.03418.08691-.07032.17285-.1084.25879l.396 1.24023a1.00086 1.00086 0 0 1 -.15771.91113 7.9978 7.9978 0 0 1 -1.51709 1.51661 1.00487 1.00487 0 0 1 -.90967.15722l-1.24023-.39648c-.08643.03808-.17237.07422-.25879.1084l-.59763 1.21285a.99981.99981 0 0 1 -.897.55859zm-1.25391-2h.63184l.502-1.01855a.99747.99747 0 0 1 .59717-.5127 4.58081 4.58081 0 0 0 .74072-.30957 1.00566 1.00566 0 0 1 .76514-.06543l1.09814.35059a5.91626 5.91626 0 0 0 .4253-.42481l-.35059-1.09765a.99848.99848 0 0 1 .06494-.76465 4.725 4.725 0 0 0 .311-.74414 1.00366 1.00366 0 0 1 .51172-.59571l1.01853-.50097v-.63282l-1.01855-.501a1.00366 1.00366 0 0 1 -.51172-.59571 4.725 4.725 0 0 0 -.311-.74414.99846.99846 0 0 1 -.06494-.76464l.35107-1.09668a5.73967 5.73967 0 0 0 -.42578-.42579l-1.09814.35059a1.00566 1.00566 0 0 1 -.76514-.06543 4.58081 4.58081 0 0 0 -.74072-.30957 1.00064 1.00064 0 0 1 -.59717-.5127l-.50199-1.01852h-.63184l-.502 1.01855a.99747.99747 0 0 1 -.59717.5127 4.58081 4.58081 0 0 0 -.74072.30957 1.006 1.006 0 0 1 -.76514.06543l-1.09805-.35059a5.91626 5.91626 0 0 0 -.4253.42481l.35059 1.09766a.99846.99846 0 0 1 -.06494.76464 4.725 4.725 0 0 0 -.311.74414 1.00366 1.00366 0 0 1 -.51172.59571l-1.01863.50097v.63282l1.01855.501a1.00366 1.00366 0 0 1 .51172.59571 4.62568 4.62568 0 0 0 .31055.74121 1.00162 1.00162 0 0 1 .06543.7666l-.35107 1.09765a5.73967 5.73967 0 0 0 .42578.42579l1.09814-.35059a1.006 1.006 0 0 1 .76514.06543 4.58081 4.58081 0 0 0 .74072.30957 1.00064 1.00064 0 0 1 .59717.5127z"/><path d="m54 37h-21v-1h-2v1h-20a.99974.99974 0 0 0 -1 1v4h2v-3h19v1h2v-1h20v1h2v-2a.99974.99974 0 0 0 -1-1z"/><path d="m43 3h-3a.99974.99974 0 0 0 -1-1h-7a.99974.99974 0 0 0 -1 1v13h2v-6h5a.99974.99974 0 0 0 1 1h4a.99974.99974 0 0 0 1-1v-6a.99974.99974 0 0 0 -1-1zm-10 5v-4h5v4zm9 1h-2v-4h2z"/><path d="m10 44h2v2h-2z"/><path d="m53 42h2v2h-2z"/><circle cx="54" cy="54" fill="#fccc38" r="7"/><path d="m54 46a8 8 0 1 0 8 8 8.00917 8.00917 0 0 0 -8-8zm-6 8a6.00448 6.00448 0 0 1 5-5.90967v2.05792a2.53947 2.53947 0 0 0 -2 2.35175c0 1.82422 1.73486 2.23047 2.77148 2.47266.95313.22265 1.22852.34082 1.22852.52734 0 .17676-.37988.5-1 .5s-1-.32324-1-.5h-2a2.53947 2.53947 0 0 0 2 2.35175v2.05792a6.00448 6.00448 0 0 1 -5-5.90967zm7 5.90967v-2.05792a2.53947 2.53947 0 0 0 2-2.35175c0-1.82715-1.73633-2.23242-2.77344-2.47559-.95166-.22168-1.22656-.33984-1.22656-.52441 0-.17676.37988-.5 1-.5s1 .32324 1 .5h2a2.53947 2.53947 0 0 0 -2-2.35175v-2.05792a5.99242 5.99242 0 0 1 0 11.81934z"/></svg>
