<?xml version="1.0"?>
<svg xmlns="http://www.w3.org/2000/svg" viewBox="0 0 64 64" width="512" height="512"><circle cx="31" cy="36" fill="#17afdc" r="25"/><circle cx="31" cy="35" fill="#f4393d" r="6"/><path d="m29 3-4 18h9l-3 14 11-19h-7l3-13z" fill="#fccc38"/><path d="m56 3v8l5-4z" fill="#f4393d"/><path d="m51 3v8l5-4z" fill="#f4393d"/><path d="m31.5 62a26.00262 26.00262 0 0 1 -13.00049-48.52051l1.001 1.73047a24.00217 24.00217 0 1 0 25.91894 1.23633l1.16114-1.62891a26.002 26.002 0 0 1 -15.08059 47.18262z"/><path d="m14.5 36a16.92354 16.92354 0 0 1 1.8468-7.69025l1.22449 3.06134 1.85742-.74218-2-5a.99624.99624 0 0 0 -1.125-.60938l-5 1 .39258 1.96094 2.86688-.57343a18.98535 18.98535 0 0 0 9.54767 26.10175l.77832-1.8418a16.975 16.975 0 0 1 -10.38916-15.66699z"/><path d="m50 36a18.83511 18.83511 0 0 0 -5.8584-13.72168l-1.38379 1.44336a16.99549 16.99549 0 0 1 -.75781 25.23566v-2.95734h-2v5a1.00018 1.00018 0 0 0 .80371.98047l5 1 .39258-1.96094-2.86054-.57184a18.9719 18.9719 0 0 0 6.66425-14.44769z"/><path d="m30.99951 36a.98828.98828 0 0 1 -.35937-.06738.99982.99982 0 0 1 -.61814-1.14262l2.74118-12.79h-7.76318a.99925.99925 0 0 1 -.97607-1.2168l4-18a.99937.99937 0 0 1 .97607-.7832h9a1.00053 1.00053 0 0 1 .97461 1.22461l-2.71777 11.77539h5.74316a1.00013 1.00013 0 0 1 .86523 1.501l-11 19a1.00024 1.00024 0 0 1 -.86572.499zm-4.75293-16h7.75342a1 1 0 0 1 .978 1.21l-1.6753 7.81641 6.96293-12.02641h-5.26563a1.00053 1.00053 0 0 1 -.97461-1.22461l2.71777-11.77539h-6.94091z"/><path d="m31 42a7.001 7.001 0 0 1 -2.333-13.60156l.666 1.88672a4.99951 4.99951 0 1 0 5.99854 2.21584l1.73146-1.002a7.00188 7.00188 0 0 1 -6.063 10.501z"/><path d="m61.62451 6.21875-5-4a1.00014 1.00014 0 0 0 -1.62451.78125v1.91913l-3.37549-2.70038a1.00014 1.00014 0 0 0 -1.62451.78125v8a1.00022 1.00022 0 0 0 1.62451.78125l3.37549-2.70038v1.91913a1.00022 1.00022 0 0 0 1.62451.78125l5-4a1.00049 1.00049 0 0 0 0-1.5625zm-9.62451 2.70025v-3.83795l2.39941 1.91895zm5 0v-3.83795l2.39941 1.91895z"/></svg>
