<?xml version="1.0"?>
<svg xmlns="http://www.w3.org/2000/svg" viewBox="0 0 64 64" width="512" height="512"><path d="m41 34-8 16.246 6-4.069v8.823l5-17" fill="#f4393d"/><path d="m50 38 4.999 16.999.001-8.999 6 4.544-8-16.544" fill="#f4393d"/><path d="m57.51076 27.8761-2.13365 1.25817a1.02936 1.02936 0 0 0 -.40205 1.29461l1.01912 2.32986a.99759.99759 0 0 1 -.9848 1.41745l-2.43269-.29561a.96727.96727 0 0 0 -1.05317.80093l-.48171 2.50994a.94882.94882 0 0 1 -1.59333.54178l-1.801-1.73522a.93006.93006 0 0 0 -1.30208 0l-1.801 1.73526a.94882.94882 0 0 1 -1.59333-.54177l-.48179-2.51014a.96727.96727 0 0 0 -1.05314-.80092l-2.43269.29555a.99759.99759 0 0 1 -.98476-1.41749l1.01914-2.32961a1.02937 1.02937 0 0 0 -.402-1.29466l-2.1336-1.25812a1.02905 1.02905 0 0 1 0-1.7522l2.13365-1.25817a1.02936 1.02936 0 0 0 .40205-1.29461l-1.01912-2.32986a.99759.99759 0 0 1 .9848-1.41745l2.43269.29561a.96727.96727 0 0 0 1.05317-.80093l.527-2.50994a.914.914 0 0 1 1.548-.54178l1.801 1.73522a.93006.93006 0 0 0 1.30208 0l1.801-1.73526a.94882.94882 0 0 1 1.59333.54177l.48179 2.51014a.96727.96727 0 0 0 1.05314.80092l2.43269-.29557a.99758.99758 0 0 1 .98475 1.41749l-1.01913 2.32961a1.02937 1.02937 0 0 0 .402 1.29466l2.1336 1.25812a1.02905 1.02905 0 0 1 .00004 1.75222z" fill="#fccc38"/><path d="m16.92987 10.93823a7.02515 7.02515 0 0 0 .07013-.93823 7.0244 7.0244 0 0 0 -.07013-.93823l-1.50671-.77667a5.64962 5.64962 0 0 0 -.37671-.90186l.51733-1.619a7.03033 7.03033 0 0 0 -1.32794-1.32794l-1.61914.51727a5.64666 5.64666 0 0 0 -.9018-.37671l-.77667-1.50671a7.01519 7.01519 0 0 0 -.93823-.07015 7.01429 7.01429 0 0 0 -.93817.07013l-.77667 1.50665a5.64575 5.64575 0 0 0 -.9018.37671l-1.61908-.51727a7.02888 7.02888 0 0 0 -1.328 1.32794l.51733 1.61908a5.64435 5.64435 0 0 0 -.37677.90186l-1.50671.77667a7.0244 7.0244 0 0 0 -.07013.93823 7.02425 7.02425 0 0 0 .07013.93817l1.50665.77667a5.64048 5.64048 0 0 0 .37677.9018l-.51733 1.61914a7.02794 7.02794 0 0 0 1.32788 1.32788l1.61914-.51727a5.64755 5.64755 0 0 0 .90186.37677l.77667 1.50671a7.02515 7.02515 0 0 0 .93823.07013 7.02425 7.02425 0 0 0 .93817-.07013l.77667-1.50671a5.6487 5.6487 0 0 0 .90186-.37671l1.61908.51727a7.02649 7.02649 0 0 0 1.32794-1.32788l-.51727-1.61914a5.649 5.649 0 0 0 .37671-.9018zm-6.92987 1.06177a2 2 0 1 1 2-2 2 2 0 0 1 -2 2z" fill="#17afdc"/><path d="m10 13a3 3 0 1 1 3-3 3.00328 3.00328 0 0 1 -3 3zm0-4a1 1 0 1 0 1 1 1.00067 1.00067 0 0 0 -1-1z"/><path d="m16.15076 27.91805a2.74839 2.74839 0 0 0 -4.10049 0l-2.05027 2.21641-2.05027-2.21641a2.74839 2.74839 0 0 0 -4.10049 0 3.31679 3.31679 0 0 0 0 4.43274l6.15076 6.64921 6.15076-6.64921a3.31679 3.31679 0 0 0 0-4.43274z" fill="#f4393d"/><circle cx="47" cy="27" fill="#dbe6fd" r="4"/><path d="m10.93848 18h-1.877a1.00164 1.00164 0 0 1 -.89746-.55859l-.59668-1.21289c-.08691-.03418-.17285-.07032-.25879-.1084l-1.24121.39648a1.00338 1.00338 0 0 1 -.90918-.15722 8.01085 8.01085 0 0 1 -1.51757-1.51856 1.0015 1.0015 0 0 1 -.15723-.90918l.39648-1.24023c-.03808-.08594-.07422-.17286-.1084-.25879l-1.21289-.59668a1.00164 1.00164 0 0 1 -.55855-.89746v-1.877a1.00164 1.00164 0 0 1 .55859-.89746l1.21289-.59668c.03418-.08691.07032-.17285.1084-.25879l-.39648-1.24117a1.001 1.001 0 0 1 .15723-.90918 8.01051 8.01051 0 0 1 1.51855-1.51757 1.00052 1.00052 0 0 1 .90918-.15723l1.24023.39648c.08594-.03808.17286-.07422.25879-.1084l.59668-1.21289a1.00164 1.00164 0 0 1 .89746-.55859h1.877a1.00164 1.00164 0 0 1 .89746.55859l.59668 1.21289c.08691.03418.17285.07032.25879.1084l1.24121-.39648a1.00286 1.00286 0 0 1 .90918.15723 8.01085 8.01085 0 0 1 1.51758 1.51855.99837.99837 0 0 1 .15625.90918l-.39551 1.24023c.03808.08594.07422.17188.1084.25879l1.21289.59668a1.00164 1.00164 0 0 1 .55855.89746v1.877a1.00164 1.00164 0 0 1 -.55859.89746l-1.21289.59668c-.03418.08691-.07032.17285-.1084.25879l.39648 1.24121a1.001 1.001 0 0 1 -.15722.90918 8.0112 8.0112 0 0 1 -1.51856 1.51758.99837.99837 0 0 1 -.90918.15625l-1.24023-.39551c-.08594.03808-.17188.07422-.25879.1084l-.59668 1.21289a1.00164 1.00164 0 0 1 -.89746.55855zm-1.25489-2h.63282l.501-1.01855a1.00292 1.00292 0 0 1 .59766-.5127 4.613 4.613 0 0 0 .74219-.30957.99521.99521 0 0 1 .76367-.06445l1.09863.34961c.14844-.13379.29-.27637.42481-.42481l-.35059-1.09863a1.00311 1.00311 0 0 1 .06543-.76367 4.613 4.613 0 0 0 .30957-.74219 1.00292 1.00292 0 0 1 .5127-.59766l1.01852-.50097v-.63282l-1.01855-.501a1.00292 1.00292 0 0 1 -.5127-.59766 4.613 4.613 0 0 0 -.30957-.74219.99847.99847 0 0 1 -.06445-.76367l.34961-1.09863c-.13379-.14844-.27637-.29-.42481-.42481l-1.09863.35059a1.00425 1.00425 0 0 1 -.76367-.06543 4.613 4.613 0 0 0 -.74219-.30957 1.00292 1.00292 0 0 1 -.59766-.5127l-.50097-1.01852h-.63282l-.501 1.01855a1.00292 1.00292 0 0 1 -.59766.5127 4.64633 4.64633 0 0 0 -.73926.30859 1.00529 1.00529 0 0 1 -.76562.06641l-1.09958-.35059c-.14844.13379-.29.27637-.42481.42481l.35059 1.09863a1.00311 1.00311 0 0 1 -.06543.76367 4.613 4.613 0 0 0 -.30957.74219 1.00292 1.00292 0 0 1 -.5127.59766l-1.01855.50097v.63282l1.01855.501a1.00292 1.00292 0 0 1 .5127.59766 4.64633 4.64633 0 0 0 .30859.73926 1.00376 1.00376 0 0 1 .06641.76562l-.35059 1.09961c.13379.14844.27637.29.42481.42481l1.09863-.35059a1.00874 1.00874 0 0 1 .76367.06543 4.613 4.613 0 0 0 .74219.30957 1.00292 1.00292 0 0 1 .59766.5127z"/><path d="m10 40a1.00016 1.00016 0 0 1 -.73437-.32129l-6.1504-6.64941a4.33673 4.33673 0 0 1 0-5.79 3.76483 3.76483 0 0 1 2.78321-1.2393h.001a3.768 3.768 0 0 1 2.78418 1.23828l1.31638 1.42383 1.31543-1.42285a3.769 3.769 0 0 1 2.78516-1.23926h.001a3.76483 3.76483 0 0 1 2.78321 1.23926 4.33693 4.33693 0 0 1 -.001 5.791l-6.14941 6.64844a1.0002 1.0002 0 0 1 -.73439.3213zm-4.10059-12a1.785 1.785 0 0 0 -1.31543.59668 2.30165 2.30165 0 0 0 -.001 3.07422l5.41702 5.85644 5.416-5.85546a2.30187 2.30187 0 0 0 0-3.0752 1.785 1.785 0 0 0 -1.31541-.59668 1.78663 1.78663 0 0 0 -1.31739.59766l-2.04882 2.21582a1.03041 1.03041 0 0 1 -1.46875 0l-2.04981-2.2168a1.78551 1.78551 0 0 0 -1.31641-.59668z"/><path d="m8.999 62a.99709.99709 0 0 1 -.55371-.168l-6-4 1.1094-1.664 5.20117 3.46777 7.43555-10.22363 1.61718 1.17578-8 11a.99911.99911 0 0 1 -.80959.41208z"/><path d="m20 31h3v2h-3z"/><path d="m34.707 31.293-4-4-1.414 1.414 2.29294 2.293h-4.58594v-22h-2v46h2v-22h4.58594l-2.293 2.293 1.41406 1.414 4-4a.99962.99962 0 0 0 0-1.414z"/><path d="m47 32a5 5 0 1 1 5-5 5.00588 5.00588 0 0 1 -5 5zm0-8a3 3 0 1 0 3 3 3.00328 3.00328 0 0 0 -3-3z"/><path d="m61.90039 50.1084-7.23779-14.96777.22607.02734a1.9285 1.9285 0 0 0 1.791-.77442 2.04376 2.04376 0 0 0 .23047-2.03515l-1.02539-2.36328 2.13378-1.25782a2.02835 2.02835 0 0 0 0-3.4746l-2.127-1.291 1.01856-2.3291a2.04332 2.04332 0 0 0 -.2295-2.03516 1.92094 1.92094 0 0 0 -1.791-.77637l-2.38379.29883-.48145-2.50976a1.98952 1.98952 0 0 0 -1.34375-1.5293 1.93525 1.93525 0 0 0 -1.92675.45606l-1.71385 1.73533-1.80172-1.73633a1.88148 1.88148 0 0 0 -1.89355-.458 1.9748 1.9748 0 0 0 -1.32715 1.51563l-.48145 2.52247-2.43164-.294a1.91947 1.91947 0 0 0 -1.791.77442 2.04139 2.04139 0 0 0 -.23049 2.03518l1.02539 2.36328-2.13378 1.25782a2.02835 2.02835 0 0 0 0 3.4746l2.127 1.291-1.01861 2.32815a2.04334 2.04334 0 0 0 .22851 2.03515 1.92423 1.92423 0 0 0 1.792.77735l.2196-.02753-7.22057 14.66327a1.00008 1.00008 0 0 0 1.459 1.26855l4.43846-3.00976v6.93652a1.0008 1.0008 0 0 0 .85742.99023 1.01262 1.01262 0 0 0 .14358.00977.9984.9984 0 0 0 .958-.71777l4.85883-16.52a1.96934 1.96934 0 0 0 .42145-.30914l1.71387-1.73536 1.80175 1.73633a1.93973 1.93973 0 0 0 .42536.30152l4.85974 16.52567a.99842.99842 0 0 0 .958.71777 1.01394 1.01394 0 0 0 .14355-.00976 1.00081 1.00081 0 0 0 .85745-.99026l.001-6.98728 4.39648 3.3291a.9999.9999 0 0 0 1.50391-1.23242zm-22.43164-4.8154a.9975.9975 0 0 0 -1.03027.05664l-2.8711 1.94727 5.97571-12.13591.42566 2.21887a2.00214 2.00214 0 0 0 .80425 1.24913l-2.773 9.42666v-1.8789a1.00055 1.00055 0 0 0 -.53125-.88376zm8.87207-10.01563a1.93044 1.93044 0 0 0 -2.68945.001l-1.71778 1.72461-.48144-2.50977a1.982 1.982 0 0 0 -2.15625-1.60551l-2.38086.27148 1.01855-2.33008a2.02394 2.02394 0 0 0 -.80957-2.55664l-2.13379-1.28711 2.13477-1.25781a2.0246 2.0246 0 0 0 .80859-2.55664l-1.07031-2.35352 2.43164.29395a1.96166 1.96166 0 0 0 2.15332-1.58789l.5127-2.43067 1.69043 1.62891a1.931 1.931 0 0 0 2.69043 0l1.71777-1.72461.48145 2.50977a1.982 1.982 0 0 0 2.15625 1.60546l2.38086-.27148-1.01856 2.33008a2.024 2.024 0 0 0 .80957 2.55664l2.124 1.293-2.125 1.25195a2.02641 2.02641 0 0 0 -.80957 2.55664l1.07129 2.35352-2.43164-.294a1.98014 1.98014 0 0 0 -2.15722 1.60451l-.39844 2.52051zm7.2627 9.92579a.99956.99956 0 0 0 -1.60352.79684v2.05664l-2.77435-9.43237a2.00182 2.00182 0 0 0 .79876-1.24439l.39435-2.2843 5.87124 12.14172z"/><path d="m20 8h3v2h-3z"/><path d="m20 54h3v2h-3z"/></svg>
