<?xml version="1.0"?>
<svg xmlns="http://www.w3.org/2000/svg" viewBox="0 0 64 64" width="512" height="512"><path d="m14.62048 23a4.00006 4.00006 0 1 0 -5.241 0h-.8453a5.53416 5.53416 0 0 0 -5.53418 5.53418v9.46582h4v14h10v-24h11v-4z" fill="#24db6a"/><path d="m29 3h32v58h-32z" fill="#dbe6fd"/><path d="m56.92987 32.93823a6.31109 6.31109 0 0 0 0-1.87646l-1.50671-.77667a5.64962 5.64962 0 0 0 -.37671-.90186l.51733-1.619a7.03033 7.03033 0 0 0 -1.32794-1.32794l-1.61914.51727a5.64666 5.64666 0 0 0 -.9018-.37671l-.77667-1.50671a6.31069 6.31069 0 0 0 -1.8764 0l-.77667 1.50665a5.64575 5.64575 0 0 0 -.9018.37671l-1.61908-.51727a7.02888 7.02888 0 0 0 -1.328 1.32794l.51733 1.61908a5.64435 5.64435 0 0 0 -.37677.90186l-1.50671.77667a6.31069 6.31069 0 0 0 0 1.8764l1.50665.77667a5.64048 5.64048 0 0 0 .37677.9018l-.51733 1.61914a7.02794 7.02794 0 0 0 1.32788 1.32788l1.61914-.51727a5.64755 5.64755 0 0 0 .90186.37677l.77667 1.50671a6.31069 6.31069 0 0 0 1.8764 0l.77667-1.50671a5.6487 5.6487 0 0 0 .90186-.37671l1.61908.51727a7.02649 7.02649 0 0 0 1.32794-1.32788l-.51727-1.61914a5.649 5.649 0 0 0 .37671-.9018zm-6.92987 1.06177a2 2 0 1 1 2-2 2 2 0 0 1 -2 2z" fill="#17afdc"/><path d="m46 7v5h5a5 5 0 0 0 -5-5z" fill="#f4393d"/><path d="m42 11a5 5 0 1 0 5 5h-5z" fill="#fccc38"/><path d="m7 52-4 9h18l-4-9z" fill="#5358a1"/><path d="m33.75879 50.65039-1.51758-1.30078 6-7a.99747.99747 0 0 1 1.3584-.14941l3.38086 2.53515 4.39453-3.5166 1.25 1.5625-5 4a.99976.99976 0 0 1 -1.22461.01855l-3.251-2.4375z"/><path d="m34 52h2v6h-2z" fill="#f4393d"/><path d="m38 47h2v11h-2z" fill="#f4393d"/><path d="m46 49h2v9h-2z" fill="#f4393d"/><path d="m51 13h-5a.99943.99943 0 0 1 -1-1v-5a.99943.99943 0 0 1 1-1 6.00657 6.00657 0 0 1 6 6 .99943.99943 0 0 1 -1 1zm-4-2h2.873a4.01392 4.01392 0 0 0 -2.873-2.873z"/><path d="m42 22a6 6 0 0 1 0-12 .99943.99943 0 0 1 1 1v4h4a.99943.99943 0 0 1 1 1 6.00657 6.00657 0 0 1 -6 6zm-1-9.873a4 4 0 1 0 4.87305 4.873h-3.87305a.99943.99943 0 0 1 -1-1z"/><path d="m50 35a3 3 0 1 1 3-3 3.00328 3.00328 0 0 1 -3 3zm0-4a1 1 0 1 0 1 1 1.00067 1.00067 0 0 0 -1-1z"/><path d="m50.93848 40h-1.877a1.00164 1.00164 0 0 1 -.89746-.55859l-.59668-1.21289c-.08691-.03418-.17285-.07032-.25879-.1084l-1.24121.39648a1.00676 1.00676 0 0 1 -.90918-.15722 8.01085 8.01085 0 0 1 -1.51757-1.51856 1.0015 1.0015 0 0 1 -.15723-.90918l.39648-1.24023c-.03808-.08594-.07422-.17286-.1084-.25879l-1.21289-.59668a1.00164 1.00164 0 0 1 -.55855-.89746v-1.877a1.00164 1.00164 0 0 1 .55859-.89746l1.21289-.59668c.03418-.08691.07032-.17285.1084-.25879l-.39648-1.24121a1.001 1.001 0 0 1 .15723-.90918 8.01051 8.01051 0 0 1 1.51855-1.51757 1.00052 1.00052 0 0 1 .90918-.15723l1.24023.39648c.08594-.03808.17286-.07422.25879-.1084l.59668-1.21289a1.00164 1.00164 0 0 1 .89746-.55855h1.877a1.00164 1.00164 0 0 1 .89746.55859l.59668 1.21289c.08691.03418.17285.07032.25879.1084l1.24121-.39648a1.00674 1.00674 0 0 1 .90918.15723 8.01085 8.01085 0 0 1 1.51758 1.51855.99837.99837 0 0 1 .15625.90918l-.39551 1.24023c.03808.08594.07422.17188.1084.25879l1.21289.59668a1.00164 1.00164 0 0 1 .55855.89746v1.877a1.00164 1.00164 0 0 1 -.55859.89746l-1.21289.59668c-.03418.08691-.07032.17285-.1084.25879l.39648 1.24121a1.001 1.001 0 0 1 -.15722.90918 8.0112 8.0112 0 0 1 -1.51856 1.51758 1.00122 1.00122 0 0 1 -.90918.15625l-1.24023-.39551c-.08594.03808-.17188.07422-.25879.1084l-.59668 1.21289a1.00164 1.00164 0 0 1 -.89746.55855zm-1.25489-2h.63282l.501-1.01855a1.00292 1.00292 0 0 1 .59766-.5127 4.613 4.613 0 0 0 .74219-.30957.99049.99049 0 0 1 .76367-.06445l1.09863.34961c.14844-.13379.29-.27637.42481-.42481l-.35059-1.09863a1.00311 1.00311 0 0 1 .06543-.76367 4.613 4.613 0 0 0 .30957-.74219 1.00292 1.00292 0 0 1 .5127-.59766l1.01852-.50097v-.63282l-1.01855-.501a1.00292 1.00292 0 0 1 -.5127-.59766 4.613 4.613 0 0 0 -.30957-.74219.99847.99847 0 0 1 -.06445-.76367l.34961-1.09863c-.13379-.14844-.27637-.29-.42481-.42481l-1.09863.35059a1.00387 1.00387 0 0 1 -.76367-.06543 4.613 4.613 0 0 0 -.74219-.30957 1.00292 1.00292 0 0 1 -.59766-.5127l-.50097-1.01852h-.63282l-.501 1.01855a1.00292 1.00292 0 0 1 -.59766.5127 4.64633 4.64633 0 0 0 -.73926.30859 1.00491 1.00491 0 0 1 -.76562.06641l-1.09961-.35059c-.14844.13379-.29.27637-.42481.42481l.35059 1.09863a1.00311 1.00311 0 0 1 -.06543.76367 4.613 4.613 0 0 0 -.30957.74219 1.00292 1.00292 0 0 1 -.5127.59766l-1.01852.50097v.63282l1.01855.501a1.00292 1.00292 0 0 1 .5127.59766 4.64633 4.64633 0 0 0 .30859.73926 1.00376 1.00376 0 0 1 .06641.76562l-.35059 1.09961c.13379.14844.27637.29.42481.42481l1.09863-.35059a1.008 1.008 0 0 1 .76367.06543 4.613 4.613 0 0 0 .74219.30957 1.00292 1.00292 0 0 1 .59766.5127z"/><path d="m60 7h2v2h-2z"/><path d="m30 21h-2v-18a.99943.99943 0 0 1 1-1h32a.99943.99943 0 0 1 1 1v2h-2v-1h-30z"/><path d="m28 31h2v22h-2z"/><path d="m28 55h2v2h-2z"/><path d="m61 62h-32a.99943.99943 0 0 1 -1-1v-2h2v1h30v-49h2v50a.99943.99943 0 0 1 -1 1z"/><path d="m28.07422 23.00293-11.56445-.86426a4.92754 4.92754 0 0 0 .49023-2.13867 5 5 0 0 0 -10 0 4.92442 4.92442 0 0 0 .46582 2.08691 6.5453 6.5453 0 0 0 -5.46582 6.44727v9.46582a.99943.99943 0 0 0 1 1h3v12.78711l-3.91406 8.80664a.99992.99992 0 0 0 .91406 1.40625h18a.99992.99992 0 0 0 .91406-1.40625l-3.91406-8.80664v-22.78711h10a.99943.99943 0 0 0 1-1v-4a.99971.99971 0 0 0 -.92578-.99707zm-8.61328 36.99707h-14.92188l3.11035-7h8.70118zm7.53906-33h-10a.99943.99943 0 0 0 -1 1v23h-3v-13h-2v13h-3v-24h-2v10h-2v-8.46582a4.53951 4.53951 0 0 1 4.53418-4.53418h.8457a.99987.99987 0 0 0 .65821-1.75293 2.95493 2.95493 0 0 1 -1.03809-2.24707 3 3 0 0 1 6 0 2.95493 2.95493 0 0 1 -1.03809 2.24707 1.00015 1.00015 0 0 0 .584 1.75l12.45409.93066z"/><g fill="#fccc38"><path d="m5.41417 2.58604h1.99979v1.99979h-1.99979z" transform="matrix(.70710678 -.70710678 .70710678 .70710678 -.65701 5.58572)"/><path d="m2.58604 5.41417h1.99979v1.99979h-1.99979z" transform="matrix(.70710678 -.70710678 .70710678 .70710678 -3.48513 4.41428)"/><path d="m5.41417 5.41417h1.99979v1.99979h-1.99979z" transform="matrix(.70710678 -.70710678 .70710678 .70710678 -2.65679 6.41406)"/><path d="m2.58604 2.58604h1.99979v1.99979h-1.99979z" transform="matrix(.70710678 -.70710678 .70710678 .70710678 -1.48534 3.58594)"/><path d="m18.53526 8.46495h1.99979v1.99979h-1.99979z" transform="matrix(.70710678 -.70710678 .70710678 .70710678 -.97094 16.58563)"/><path d="m15.70714 11.29308h1.99979v1.99979h-1.99979z" transform="matrix(.70710678 -.70710678 .70710678 .70710678 -3.79907 15.41418)"/><path d="m18.53526 11.29308h1.99979v1.99979h-1.99979z" transform="matrix(.70710678 -.70710678 .70710678 .70710678 -2.97073 17.41397)"/><path d="m15.70714 8.46495h1.99979v1.99979h-1.99979z" transform="matrix(.70710678 -.70710678 .70710678 .70710678 -1.79928 14.58584)"/></g><path d="m42 50h2v8h-2z" fill="#f4393d"/></svg>
