<?xml version="1.0"?>
<svg xmlns="http://www.w3.org/2000/svg" viewBox="0 0 64 64" width="512" height="512"><path d="m30 26 32 12v7l-32-12z" fill="#dbe6fd"/><path d="m58 11-7 12h-.37952a4.00006 4.00006 0 1 0 -5.241 0h-.37948l-7-12-3 2 8 14v25h10v-25l8-14z" fill="#17afdc"/><path d="m15.46582 32h-.84534a4.00006 4.00006 0 1 0 -5.241 0h-.8453a5.53416 5.53416 0 0 0 -5.53418 5.53418v9.46582h4v14h10v-14h4v-9.46582a5.53416 5.53416 0 0 0 -5.53418-5.53418z" fill="#f4393d"/><circle cx="48" cy="7" fill="#fccc38" r="4"/><path d="m35 62v-6h5v-4h16v4h5v6" fill="#5358a1"/><path d="m30 12-6.027-5 .027 3h-10-4v4 6h4v-6h10v3z" fill="#fccc38"/><path d="m16.53369 31.08691a4.92488 4.92488 0 0 0 .46631-2.08691 5 5 0 0 0 -10 0 4.92488 4.92488 0 0 0 .46631 2.08691 6.54573 6.54573 0 0 0 -5.46631 6.44727v9.46582a.99974.99974 0 0 0 1 1h3v13a.99974.99974 0 0 0 1 1h10a.99974.99974 0 0 0 1-1v-13h3a.99974.99974 0 0 0 1-1v-9.46582a6.54573 6.54573 0 0 0 -5.46631-6.44727zm3.46631 14.91309h-2v-10h-2v24h-3v-14h-2v14h-3v-24h-2v10h-2v-8.46582a4.53951 4.53951 0 0 1 4.53418-4.53418h.84521a1.00012 1.00012 0 0 0 .65821-1.75293 2.95445 2.95445 0 0 1 -1.0376-2.24707 3 3 0 0 1 6 0 2.95445 2.95445 0 0 1 -1.0376 2.24707 1.00012 1.00012 0 0 0 .65821 1.75293h.84521a4.53951 4.53951 0 0 1 4.53418 4.53418z"/><path d="m48 12a.99974.99974 0 0 1 -1-1 3.00328 3.00328 0 0 0 -3-3 1 1 0 0 1 0-2 3.00328 3.00328 0 0 0 3-3 1 1 0 0 1 2 0 3.00328 3.00328 0 0 0 3 3 1 1 0 0 1 0 2 3.00328 3.00328 0 0 0 -3 3 .99974.99974 0 0 1 -1 1zm-1.00293-5a5.04406 5.04406 0 0 1 1.00293 1.00293 5.04406 5.04406 0 0 1 1.00293-1.00293 5.04406 5.04406 0 0 1 -1.00293-1.00293 5.04406 5.04406 0 0 1 -1.00293 1.00293z"/><path d="m61 55h-4v-3a.99974.99974 0 0 0 -1-1h-2v-23.73437l7.86816-13.76954a.99989.99989 0 0 0 -.31347-1.32812l-3-2a1.01557 1.01557 0 0 0 -.78028-.14258 1 1 0 0 0 -.63818.4707l-4.48047 7.68067a5 5 0 0 0 -9.31152 0l-4.48047-7.68067a.99916.99916 0 0 0 -1.41846-.32812l-3 2a.99989.99989 0 0 0 -.31347 1.32812l7.86816 13.76954v23.73437h-2a.99974.99974 0 0 0 -1 1v3h-4a.99974.99974 0 0 0 -1 1v6h2v-5h4a.99974.99974 0 0 0 1-1v-3h14v3a.99974.99974 0 0 0 1 1h4v5h2v-6a.99974.99974 0 0 0 -1-1zm-9-28v24h-3v-12h-2v12h-3v-24a1.00025 1.00025 0 0 0 -.13184-.49609l-7.53662-13.18946 1.33985-.89355 6.46484 11.083a.99934.99934 0 0 0 .86377.4961h.37939a1.00012 1.00012 0 0 0 .65821-1.75293 2.95445 2.95445 0 0 1 -1.0376-2.24707 3 3 0 0 1 6 0 2.95445 2.95445 0 0 1 -1.0376 2.24707 1.00012 1.00012 0 0 0 .65821 1.75293h.37939a.99934.99934 0 0 0 .86377-.49609l6.46484-11.083 1.33985.89355-7.53662 13.18945a1.00025 1.00025 0 0 0 -.13184.49609z"/><path d="m30 25h2v2h-2z"/><path d="m34 27h2v2h-2z"/><path d="m38 29h2v2h-2z"/><path d="m30 32h2v2h-2z"/><path d="m34 34h2v2h-2z"/><path d="m38 36h2v2h-2z"/><path d="m56 35h2v2h-2z"/><path d="m60 37h2v2h-2z"/><path d="m56 42h2v2h-2z"/><path d="m60 44h2v2h-2z"/><path d="m14 21h-4a.99974.99974 0 0 1 -1-1v-10a.99974.99974 0 0 1 1-1h12.99072l-.01806-1.99121a1 1 0 0 1 1.63867-.77832l6.02734 5a1.00036 1.00036 0 0 1 .00147 1.53808l-6 5a1.00036 1.00036 0 0 1 -1.64014-.76855v-2h-8v5a.99974.99974 0 0 1 -1 1zm-3-2h2v-5a.99974.99974 0 0 1 1-1h10a.99974.99974 0 0 1 1 1v.86523l3.436-2.86323-3.44381-2.85649.00781.8457a.99948.99948 0 0 1 -1 1.00879h-13z"/></svg>
