<?xml version="1.0"?>
<svg xmlns="http://www.w3.org/2000/svg" viewBox="0 0 64 64" width="512" height="512"><path d="m40.85238 58h-17.70476a2.09391 2.09391 0 0 1 -2.14762-2.03571v-.07143a1.98175 1.98175 0 0 1 2.14762-1.89286h17.70476a1.98175 1.98175 0 0 1 2.14762 1.89286v.07143a2.09391 2.09391 0 0 1 -2.14762 2.03571z" fill="#5358a1"/><rect fill="#5358a1" height="4" rx="2" width="22" x="21" y="58"/><path d="m32 4c-11.598 0-21 8.37476-21 19.33331 0 5.14862 2.07739 12.19446 5.48175 18.22022 2.04956 3.62762 6.51825 8.28662 6.51825 12.44647h18c0-4.15985 4.46869-8.81885 6.51825-12.44647 3.40436-6.02576 5.48175-13.0716 5.48175-18.22022 0-10.95855-9.402-19.33331-21-19.33331z" fill="#fccc38"/><circle cx="32" cy="14" fill="#f4393d" r="3"/><path d="m30 22h4l1 20h-6z" fill="#f4393d"/><path d="m32 3c-12.33643 0-22 8.93164-22 20.333 0 5.416 2.1499 12.58691 5.61133 18.71289.62158 1.10058 1.4331 2.25781 2.29248 3.48242 1.73266 2.47119 3.658 5.23572 4.02026 7.68579a2.86958 2.86958 0 0 0 -1.92407 2.74977 2.95319 2.95319 0 0 0 .80426 2.00708 2.98913 2.98913 0 0 0 2.19574 5.02905h18a2.98964 2.98964 0 0 0 2.19092-5.03491 3.05879 3.05879 0 0 0 .80908-2.07251 2.82765 2.82765 0 0 0 -1.924-2.67945c.36267-2.44982 2.28778-5.214 4.0202-7.68481.85938-1.22461 1.6709-2.38184 2.29248-3.48242 3.46142-6.12598 5.61132-13.2969 5.61132-18.7129 0-11.40136-9.66357-20.333-22-20.333zm10 52.96387a1.09727 1.09727 0 0 1 -1.14746 1.03613h-17.70508a1.109 1.109 0 0 1 -1.14746-1.10742c0-.61328.59473-.89258 1.14746-.89258h17.70508c.55273 0 1.14746.2793 1.14746.96387zm-1 5.03613h-18a1 1 0 0 1 0-2h18a1 1 0 0 1 0 2zm5.64746-19.93848c-.57422 1.01661-1.3584 2.13477-2.18848 3.31836-1.87698 2.67676-3.97898 5.67383-4.38818 8.62012h-16.1416c-.4092-2.94629-2.5112-5.94336-4.3882-8.62012-.83008-1.18359-1.61426-2.30175-2.18848-3.31836-3.25145-5.75488-5.35252-12.71386-5.35252-17.72852 0-10.28027 8.78516-18.333 20-18.333s20 8.05273 20 18.333c0 5.01466-2.10107 11.97364-5.35254 17.72852z"/><path d="m32 19a4 4 0 1 1 4-4 4.00427 4.00427 0 0 1 -4 4zm0-6a2 2 0 1 0 2 2 2.00229 2.00229 0 0 0 -2-2z"/><path d="m35 43h-6a.9992.9992 0 0 1 -.99854-1.0498l1-20a.99986.99986 0 0 1 .99854-.9502h4a.99986.99986 0 0 1 .99854.9502l1 20a.9992.9992 0 0 1 -.99854 1.0498zm-4.94873-2h3.89746l-.8999-18h-2.09766z"/><g fill="#fccc38"><path d="m57 23h4v2h-4z"/><path d="m3 23h4v2h-4z"/><path d="m52.5858 42.4141h1.99979v3.99992h-1.99979z" transform="matrix(.70704569 -.70716787 .70716787 .70704569 -15.71004 50.90537)"/><path d="m11.90831 2.90842h1.99979v3.99957h-1.99979z" transform="matrix(.70710678 -.70710678 .70710678 .70710678 .3101 10.56506)"/><path d="m49.92021 4.41417h3.99992v1.99979h-3.99992z" transform="matrix(.70710678 -.70710678 .70710678 .70710678 11.37874 38.29884)"/><path d="m8.58573 43.58604h3.99992v1.99979h-3.99992z" transform="matrix(.70710678 -.70710678 .70710678 .70710678 -28.42654 20.54413)"/></g></svg>
