<?xml version="1.0"?>
<svg xmlns="http://www.w3.org/2000/svg" viewBox="0 0 64 64" width="512" height="512"><path d="m56.18756 46.93134a3 3 0 1 0 -4.37512 0 3.20916 3.20916 0 0 0 -2.81244 3.17852l5 2 5-2a3.20916 3.20916 0 0 0 -2.81244-3.17852z" fill="#fccc38"/><path d="m37 43.69v17.31h-10v-16.83z" fill="#ff7f00"/><path d="m54 51.667-7-2.667v9.333l7 2.667 7-2.667v-9.333z" fill="#f4393d"/><path d="m61 23.5c0-2.19427-1.50989-4.13055-3.81555-5.30756a5.01081 5.01081 0 0 0 .81555-2.69244c0-2.87006-2.57867-5.301-6.15161-6.16229-.75971-3.03437-4.42804-5.33771-8.84839-5.33771a11.64774 11.64774 0 0 0 -4.60962.9248 10.92525 10.92525 0 0 0 -6.39038-1.9248 11.37444 11.37444 0 0 0 -5.35754 1.286 12.224 12.224 0 0 0 -2.64246-.286 10.08749 10.08749 0 0 0 -7.674 3.11664c-4.11456.55963-7.23529 3.13885-7.31732 6.25885-3.49775.89142-6.00868 3.29321-6.00868 6.12451a5.91783 5.91783 0 0 0 3.05157 4.8689 5.51692 5.51692 0 0 0 -2.05157 4.1311c0 2.85242 2.54791 5.27 6.08667 6.14514a4.75044 4.75044 0 0 0 -.08667.85486c0 3.58984 4.02942 6.5 9 6.5a11.69282 11.69282 0 0 0 4.39569-.84052c1.08789 2.2262 4.30402 3.84052 8.10431 3.84052 3.49139 0 6.488-1.36328 7.79614-3.311a12.02647 12.02647 0 0 0 2.70386.311c4.755 0 8.639-2.6651 8.96777-6.03882 4.51514-.34888 8.03223-3.10766 8.03223-6.46118a4.81926 4.81926 0 0 0 -.30884-1.66388 5.61768 5.61768 0 0 0 2.30884-4.33612z" fill="#24db6a"/><path d="m17 28h-2v-5a.99974.99974 0 0 1 1-1 3 3 0 1 0 -3-3h-2a5 5 0 1 1 6 4.89941z" fill="#f4393d"/><path d="m15 30h2v2h-2z" fill="#f4393d"/><path d="m25 16h4v-7h13v12h-10.94026a4.28554 4.28554 0 0 1 -3.34645-1.60839z" fill="#dbe6fd"/><circle cx="50.48528" cy="24" fill="#17afdc" r="4"/><g fill="#f4393d"><path d="m24 34h2v4h-2z"/><path d="m28 31h2v7h-2z"/><path d="m32 33h2v5h-2z"/><path d="m36 32h2v6h-2z"/><path d="m12 47v5h5a5 5 0 0 0 -5-5z"/></g><path d="m8 51a5 5 0 1 0 5 5h-5z" fill="#fccc38"/><path d="m42 22h-10.94043a5.26246 5.26246 0 0 1 -4.12793-1.9834l-2.71289-3.39209a1.00014 1.00014 0 0 1 .78125-1.62451h3v-6a.99974.99974 0 0 1 1-1h13a.99974.99974 0 0 1 1 1v12a.99974.99974 0 0 1 -1 1zm-14.91992-5 1.41406 1.76709a3.26987 3.26987 0 0 0 2.56543 1.23291h9.94043v-10h-11v6a.99974.99974 0 0 1 -1 1z"/><path d="m32 12h7v2h-7z"/><path d="m32 16h2v2h-2z"/><path d="m36 16h3v2h-3z"/><path d="m54.02051 20.46436a4.99966 4.99966 0 0 0 -7.70581 6.29264l-5.0217 5.02132 1.414 1.41406 5.02161-5.02118a4.99982 4.99982 0 0 0 6.29187-7.70684zm-1.41406 5.65722a3.07252 3.07252 0 0 1 -4.24219 0 3 3 0 1 1 4.24219 0z"/><path d="m25.78125 31.62451-1.5625-1.249 4-5a.99993.99993 0 0 1 1.48825-.08251l3.38672 3.38672 3.30664-2.47949 1.19922 1.5996-4 3a.99845.99845 0 0 1 -1.30658-.09283l-3.21-3.21z"/><path d="m62 23.5a6.89919 6.89919 0 0 0 -3.48242-5.69434 5.78627 5.78627 0 0 0 .48242-2.30566c0-3.12061-2.53125-5.874-6.35937-6.98584-1.16797-3.22852-5.10352-5.51416-9.64063-5.51416a12.84164 12.84164 0 0 0 -4.4873.79736 12.09785 12.09785 0 0 0 -6.5127-1.79736 12.45273 12.45273 0 0 0 -5.501 1.23535 13.28033 13.28033 0 0 0 -2.499-.23535 11.222 11.222 0 0 0 -8.17969 3.18164c-4.13379.686-7.23828 3.28857-7.74121 6.41992-3.66504 1.16407-6.0791 3.87061-6.0791 6.89844a6.55484 6.55484 0 0 0 2.53223 4.99365 6.228 6.228 0 0 0 -1.53223 4.00635c0 3.01514 2.37793 5.69824 6.002 6.87451-.001.042-.002.084-.002.12549 0 4.13574 4.48633 7.5 10 7.5a12.93687 12.93687 0 0 0 3.96387-.61963 7.89748 7.89748 0 0 0 3.03613 2.41498v16.20465a.99974.99974 0 0 0 1 1h10a.99974.99974 0 0 0 1-1v-16.75787a7.60777 7.60777 0 0 0 1.71-1.4477 13.02093 13.02093 0 0 0 2.29.20557c4.92285 0 8.97168-2.581 9.8252-6.12549 4.71289-.64351 8.1748-3.71631 8.1748-7.37451a5.62884 5.62884 0 0 0 -.165-1.33545 6.41117 6.41117 0 0 0 2.165-4.66455zm-26 36.5h-8v-14.46558a13.48843 13.48843 0 0 0 3.5.46558 13.17089 13.17089 0 0 0 4.5-.78088zm22.06445-32.94336a1.00027 1.00027 0 0 0 -.3125 1.12207 3.84624 3.84624 0 0 1 .24805 1.32129c0 2.75586-3.123 5.15625-7.10937 5.46387a1.00024 1.00024 0 0 0 -.918.8999c-.28122 2.88037-3.78318 5.13623-7.97263 5.13623a11.06785 11.06785 0 0 1 -2.47949-.28564.99807.99807 0 0 0 -1.05469.417c-1.15234 1.71581-3.95117 2.86864-6.96582 2.86864-3.29883 0-6.2627-1.34863-7.20605-3.2793a1.00041 1.00041 0 0 0 -.89844-.561.98952.98952 0 0 0 -.376.07373 10.78074 10.78074 0 0 1 -4.01951.76657c-4.41113 0-8-2.46729-8-5.5a3.69661 3.69661 0 0 1 .07031-.67383.99971.99971 0 0 0 -.74316-1.15185c-3.18652-.7876-5.32715-2.86719-5.32715-5.17432a4.56307 4.56307 0 0 1 1.71094-3.37842 1.00091 1.00091 0 0 0 -.1211-1.5957 4.95664 4.95664 0 0 1 -2.58984-4.02588c0-2.28223 2.1123-4.354 5.25586-5.15527a1.00057 1.00057 0 0 0 .75293-.94287c.06738-2.56836 2.78125-4.79493 6.45215-5.29444a.99644.99644 0 0 0 .62793-.34424 9.18041 9.18041 0 0 1 6.91113-2.76318 11.2293 11.2293 0 0 1 2.42578.26221.99332.99332 0 0 0 .68945-.09522 10.355 10.355 0 0 1 4.88477-1.16699 9.898 9.898 0 0 1 5.80176 1.73291.996.996 0 0 0 .98535.10986 10.70022 10.70022 0 0 1 4.21289-.84277c3.83789 0 7.22461 1.96924 7.87891 4.58057a.99809.99809 0 0 0 .73535.72949c3.22168.77685 5.38574 2.8623 5.38574 5.18994a4.01222 4.01222 0 0 1 -.66113 2.15869.99928.99928 0 0 0 .39062 1.42432c2.04785 1.04541 3.27051 2.69678 3.27051 4.41699a4.64817 4.64817 0 0 1 -1.93555 3.55664z"/><path d="m61.56738 48.17712a.99717.99717 0 0 0 -.92383-.11132l-.74542.28393a4.22084 4.22084 0 0 0 -2.18622-2.86682 3.9637 3.9637 0 0 0 .28809-1.48291 4 4 0 0 0 -8 0 3.9637 3.9637 0 0 0 .28809 1.48291 4.22084 4.22084 0 0 0 -2.18622 2.86682l-.74542-.28393a1.0005 1.0005 0 0 0 -1.35645.93457v9.33349a.99992.99992 0 0 0 .64355.93457l7 2.66651a1.00365 1.00365 0 0 0 .7129 0l7-2.66651a.99992.99992 0 0 0 .64355-.93457v-9.33349a1.00015 1.00015 0 0 0 -.43262-.82325zm-9.62793-1.14392a1.00058 1.00058 0 0 0 .6045-1.67431 2 2 0 1 1 2.9121 0 1.00058 1.00058 0 0 0 .6045 1.67431 2.224 2.224 0 0 1 1.84375 1.54785l-3.9043 1.56153-3.9043-1.56153a2.224 2.224 0 0 1 1.84375-1.54785zm1.06055 12.51599-5-1.90429v-7.19336l5 1.90472zm7-1.90429-5 1.90429v-7.19293l5-1.90472z"/><path d="m17 53h-5a.99974.99974 0 0 1 -1-1v-5a.99974.99974 0 0 1 1-1 6.00657 6.00657 0 0 1 6 6 .99974.99974 0 0 1 -1 1zm-4-2h2.873a4.01456 4.01456 0 0 0 -2.873-2.87354z"/><path d="m8 62a6 6 0 0 1 0-12 .99974.99974 0 0 1 1 1v4h4a.99974.99974 0 0 1 1 1 6.00657 6.00657 0 0 1 -6 6zm-1-9.87354a4.00026 4.00026 0 1 0 4.873 4.87354h-3.873a.99974.99974 0 0 1 -1-1z"/><path d="m5 42h2v6h-2z"/><path d="m5 38h2v2h-2z"/></svg>
