<?xml version="1.0"?>
<svg xmlns="http://www.w3.org/2000/svg" viewBox="0 0 64 64" width="512" height="512"><circle cx="32" cy="33" fill="#dbe6fd" r="29"/><circle cx="32" cy="33" fill="#17afdc" r="11"/><circle cx="32" cy="33" fill="#5358a1" r="3"/><path d="m32 56a.99676.99676 0 0 1 -.707-.293l-4-4 1.414-1.414 3.293 3.29294 3.293-3.293 1.414 1.41406-4 4a.99676.99676 0 0 1 -.707.293z"/><path d="m35.293 15.707-3.293-3.29294-3.293 3.293-1.414-1.41406 4-4a.99962.99962 0 0 1 1.41406 0l4 4z"/><path d="m13.293 37.707-4-4a.99962.99962 0 0 1 0-1.41406l4-4 1.414 1.41406-3.29294 3.293 3.293 3.293z"/><path d="m50 32h-6.05066a12.007 12.007 0 0 0 -10.94934-10.94934v-6.05066h-2v6.05066a12.007 12.007 0 0 0 -10.94934 10.94934h-6.05066v2h6.05066a12.007 12.007 0 0 0 10.94934 10.94934v6.05066h2v-6.05066a12.007 12.007 0 0 0 10.94934-10.94934h6.05066zm-18 11a10 10 0 1 1 10-10 10.01146 10.01146 0 0 1 -10 10z"/><path d="m50.707 37.707-1.414-1.414 3.29294-3.293-3.293-3.293 1.41406-1.414 4 4a.99962.99962 0 0 1 0 1.41406z"/><path d="m32 37a4 4 0 1 1 4-4 4.00427 4.00427 0 0 1 -4 4zm0-6a2 2 0 1 0 2 2 2.00229 2.00229 0 0 0 -2-2z"/><path d="m25.9873 62.397a29.86328 29.86328 0 0 1 -3.94824-1.09082l.66407-1.88672a27.77653 27.77653 0 0 0 3.68261 1.01754z"/><path d="m18.27734 59.68408a30.04719 30.04719 0 0 1 -3.50293-2.11914l1.15039-1.63672a28.09053 28.09053 0 0 0 3.26856 1.97852z"/><path d="m11.59277 54.99072a30.54418 30.54418 0 0 1 -2.80273-2.98l1.54496-1.26951a28.55007 28.55007 0 0 0 2.6191 2.78369z"/><path d="m6.418 48.67773a30.13341 30.13341 0 0 1 -1.89652-3.62353l1.83008-.80469a28.069 28.069 0 0 0 1.77144 3.38135z"/><path d="m3.13574 41.20215a30.084 30.084 0 0 1 -.84472-4.0044l1.98046-.27832a28.14058 28.14058 0 0 0 .78809 3.73682z"/><path d="m58.95508 25.396a27.65738 27.65738 0 0 0 -1.28418-3.59571l1.832-.80078a29.69039 29.69039 0 0 1 1.37796 3.85549z"/><path d="m55.90723 18.416a28.3803 28.3803 0 0 0 -2.21-3.11573l1.54882-1.26465a30.118 30.118 0 0 1 2.36621 3.33643z"/><path d="m51.08594 12.51221a28.48834 28.48834 0 0 0 -2.96582-2.40967l1.15234-1.63379a30.25141 30.25141 0 0 1 3.17676 2.58057z"/><path d="m44.85547 8.11914a27.86071 27.86071 0 0 0 -3.50586-1.52l.668-1.88574a29.98666 29.98666 0 0 1 3.75781 1.62939z"/><path d="m37.668 5.57422a28.01832 28.01832 0 0 0 -3.78516-.51172l.13282-1.99609a30.018 30.018 0 0 1 4.05468.54882z"/><path d="m4 33h-2a30.03406 30.03406 0 0 1 30-30v2a28.03146 28.03146 0 0 0 -28 28z"/><path d="m32 63v-2a28.03146 28.03146 0 0 0 28-28h2a30.03406 30.03406 0 0 1 -30 30z"/></svg>
