<?xml version="1.0"?>
<svg xmlns="http://www.w3.org/2000/svg" viewBox="0 0 64 64" width="512" height="512"><circle cx="32" cy="32" fill="#17afdc" r="29"/><path d="m10 7.37837h-1.01367a2.39166 2.39166 0 0 0 .91443-2.63844 2.43659 2.43659 0 0 0 -1.7279-1.65452 2.49143 2.49143 0 0 0 -3.17286 2.34701 2.40143 2.40143 0 0 0 1.01367 1.946h-1.01367a1.97353 1.97353 0 0 0 -2 1.94589v5.67569h2v7h5v-7h2v-5.67569a1.97353 1.97353 0 0 0 -2-1.94594z" fill="#fccc38"/><path d="m56 47.12838h-1.01367a2.39167 2.39167 0 0 0 .91443-2.63844 2.43658 2.43658 0 0 0 -1.7279-1.65453 2.49143 2.49143 0 0 0 -3.17286 2.34702 2.40145 2.40145 0 0 0 1.01367 1.946h-1.01367a1.97352 1.97352 0 0 0 -2 1.94594v5.83784h2v6.08779h5v-6.08784h2v-5.83784a1.97352 1.97352 0 0 0 -2-1.94594z" fill="#ff7f00"/><circle cx="32" cy="32" fill="#dbe6fd" r="19"/><path d="m35.46582 24h-.84534a4.00006 4.00006 0 1 0 -5.241 0h-.84534a5.53416 5.53416 0 0 0 -5.53414 5.53418v9.46582h4v14h10v-14h4v-9.46582a5.53416 5.53416 0 0 0 -5.53418-5.53418z" fill="#f4393d"/><path d="m36.53369 23.0874a4.92706 4.92706 0 0 0 .46631-2.0874 5 5 0 0 0 -10 0 4.92706 4.92706 0 0 0 .46631 2.0874 6.54483 6.54483 0 0 0 -5.46631 6.44678v9.46582a1 1 0 0 0 1 1h3v13a1 1 0 0 0 1 1h10a1 1 0 0 0 1-1v-13h3a1 1 0 0 0 1-1v-9.46582a6.54483 6.54483 0 0 0 -5.46631-6.44678zm3.46631 14.9126h-2v-10h-2v24h-3v-14h-2v14h-3v-24h-2v10h-2v-8.46582a4.53951 4.53951 0 0 1 4.53418-4.53418h.84521a.99983.99983 0 0 0 .65821-1.75244 2.957 2.957 0 0 1 -1.0376-2.24756 3 3 0 0 1 6 0 2.957 2.957 0 0 1 -1.0376 2.24756.99983.99983 0 0 0 .65821 1.75244h.84521a4.53951 4.53951 0 0 1 4.53418 4.53418z"/><path d="m59.76611 43.37988-1.85058-.75976a28.00616 28.00616 0 0 0 -42.32862-33.30762l-1.17382-1.61914a30.01043 30.01043 0 0 1 45.353 35.68652z"/><path d="m32 62a30.02384 30.02384 0 0 1 -28.96533-37.83789l1.93066.52148a28.01161 28.01161 0 0 0 40.55127 31.84375l.9668 1.751a30.02984 30.02984 0 0 1 -14.4834 3.72166z"/><path d="m40.42139 50.14551-.84278-1.81351a18 18 0 1 0 -15.15722 0l-.84278 1.81348a20 20 0 1 1 16.84278 0z"/><path d="m56 62h-5a1 1 0 0 1 -1-1v-5.08789h-1a1 1 0 0 1 -1-1v-5.83789a2.95914 2.95914 0 0 1 2.17041-2.83106 3.39047 3.39047 0 0 1 1.15576-3.751 3.5669 3.5669 0 0 1 3.09278-.626 3.45829 3.45829 0 0 1 2.44335 2.34815 3.41846 3.41846 0 0 1 -.03662 2.02734 2.9599 2.9599 0 0 1 2.17432 2.83257v5.83789a1 1 0 0 1 -1 1h-1v5.08789a1 1 0 0 1 -1 1zm-4-2h3v-5.08789a1 1 0 0 1 1-1h1v-4.83789a.97524.97524 0 0 0 -1-.9458h-1.01367a1 1 0 0 1 -.58692-1.80957 1.38565 1.38565 0 0 0 .54-1.5542 1.44417 1.44417 0 0 0 -1.01269-.96 1.55831 1.55831 0 0 0 -1.37256.26611 1.38347 1.38347 0 0 0 .04639 2.248 1 1 0 0 1 -.58692 1.80957h-1.01363a.97524.97524 0 0 0 -1 .9458v4.83789h1a1 1 0 0 1 1 1z"/><path d="m10 23h-5a1 1 0 0 1 -1-1v-6h-1a1 1 0 0 1 -1-1v-5.67578a2.95914 2.95914 0 0 1 2.17041-2.83106 3.39047 3.39047 0 0 1 1.15576-3.751 3.56377 3.56377 0 0 1 3.09278-.626 3.45829 3.45829 0 0 1 2.44335 2.3482 3.41846 3.41846 0 0 1 -.03662 2.02734 2.9599 2.9599 0 0 1 2.17432 2.83252v5.67578a1 1 0 0 1 -1 1h-1v6a1 1 0 0 1 -1 1zm-4-2h3v-6a1 1 0 0 1 1-1h1v-4.67578a.97524.97524 0 0 0 -1-.9458h-1.01367a1 1 0 0 1 -.58692-1.80957 1.38565 1.38565 0 0 0 .54-1.5542 1.44417 1.44417 0 0 0 -1.01269-.96 1.55378 1.55378 0 0 0 -1.37252.26615 1.38347 1.38347 0 0 0 .04639 2.24805 1 1 0 0 1 -.58692 1.80957h-1.01367a.97524.97524 0 0 0 -1 .9458v4.67578h1a1 1 0 0 1 1 1z"/><path d="m60 2h2v2h-2z"/><path d="m57 5h2v2h-2z"/><path d="m5 57h2v2h-2z"/><path d="m2 60h2v2h-2z"/></svg>
