<?xml version="1.0"?>
<svg xmlns="http://www.w3.org/2000/svg" viewBox="0 0 64 64" width="512" height="512"><circle cx="32" cy="28.00027" fill="#fccc38" r="24.9999"/><path d="m37.55 19a1.50086 1.50086 0 0 1 0 3h-10.55v-9h2.79v-2.5a1.45569 1.45569 0 1 1 2.91 0v2.5h4.85a1.50086 1.50086 0 0 1 0 3 1.50086 1.50086 0 0 1 0 3z" fill="#dbe6fd"/><path d="m23 13h4v9h-4z" fill="#5358a1"/><circle cx="42" cy="35.00022" fill="#17afdc" r="5.99998"/><path d="m14 45.00013h4v11.9999h-4z" fill="#5358a1"/><path d="m48.45343 46.00012-21.3977 1.9948-3.00342-1.9948h-6.02991v9.99988h3.01123l9.04114 5 19.15661-12.133a1.5373 1.5373 0 0 0 -.77795-2.86688z" fill="#dbe6fd"/><path d="m21.33521 31.90918-.33521.31348-.33521-.31348a3.48316 3.48316 0 0 0 -4.69287 0 2.96317 2.96317 0 0 0 0 4.38875l.3352.31348 4.69288 4.38876 4.69288-4.38876.3352-.31348a2.96317 2.96317 0 0 0 0-4.38875 3.48316 3.48316 0 0 0 -4.69287 0z" fill="#f4393d"/><path d="m50.90869 46.88037a2.53871 2.53871 0 0 0 -2.54053-1.876h-.01074l-21.062 1.97071-2.6543-1.76953a1.01158 1.01158 0 0 0 -.61133-.20555h-5.02979a1 1 0 0 0 -1-1h-4a1 1 0 0 0 -1 1v12a1 1 0 0 0 1 1h4a1 1 0 0 0 1-1h1.77148l8.81446 4.875a.9986.9986 0 0 0 1.01855-.03027l19.12793-12.10987a2.51121 2.51121 0 0 0 1.17627-2.85449zm-33.90869 9.11963h-2v-10h2zm31.69531-7.97461-18.65967 11.813-8.522-4.71338a.99773.99773 0 0 0 -.48385-.12501h-2.02979v-8h4.727l6.583 4.37549a1.4755 1.4755 0 0 1 .36182 2.13232 1.54873 1.54873 0 0 1 -2.03858.34912l-4.05024-2.68993-1.10645 1.666 4.05713 2.69433a3.50336 3.50336 0 0 0 4.73389-.81445 3.47421 3.47421 0 0 0 -.854-5.00537l-1.46673-.97534 18.50336-1.73217a.51691.51691 0 0 1 .52734.40088.52871.52871 0 0 1 -.28223.62451z"/><path d="m53.80371 42.16959-1.67578-1.09179c.35889-.55126.69971-1.1245 1.01221-1.70506l1.76074.94921c-.33888.62841-.70801 1.25048-1.09717 1.84764z"/><path d="m9.17773 40.465c-.34375-.62743-.66406-1.27489-.95214-1.92479l1.82812-.81054c.26563.59863.561 1.19628.87793 1.77538z"/><path d="m55.8418 38.38837-1.834-.79784c.26416-.60742.50537-1.23.7168-1.85057l1.89355.6455c-.22948.67187-.49022 1.34569-.77635 2.00291z"/><path d="m7.437 36.54464c-.23437-.67383-.44287-1.36572-.6206-2.05663l1.9375-.49706c.16357.6372.356 1.27538.57177 1.89646z"/><path d="m57.2251 34.32493-1.94043-.48535c.15967-.63867.29443-1.292.40088-1.94139l1.97363.32226c-.11475.7041-.26118 1.4121-.43408 2.10448z"/><path d="m6.36865 32.38744c-.11914-.69921-.21045-1.416-.272-2.13035l1.99219-.17187c.05713.65966.1416 1.32127.25146 1.96629z"/><path d="m57.91748 30.08863-1.99414-.1582c.05078-.63769.07666-1.28661.07666-1.93016l2-.05371v.05371c0 .69629-.02783 1.39892-.08252 2.08836z"/><path d="m8 28.10818h-2v-.10791c0-.71483.0293-1.43651.0874-2.145l1.99317.16309c-.05323.65429-.08057 1.32127-.08057 1.98191z"/><path d="m55.915 25.96709c-.05518-.66015-.13867-1.32177-.24707-1.96727l1.97266-.33105c.11718.69921.20751 1.416.26757 2.13035z"/><path d="m8.32324 24.05109-1.97265-.32715c.11621-.70116.26318-1.40819.438-2.102l1.93946.48828c-.16116.64058-.29739 1.29341-.40481 1.94087z"/><path d="m55.25977 22.06087c-.16358-.63964-.3545-1.27831-.56885-1.89891l1.89062-.65234c.23194.67187.439 1.36425.61573 2.05711z"/><path d="m9.2915 20.21176-1.8916-.64941c.23047-.67186.49317-1.3452.78076-2.00144l1.832.80175c-.26559.60693-.50827 1.22899-.72116 1.8491z"/><path d="m53.96777 18.31871c-.26513-.60009-.55957-1.19823-.875-1.77781l1.75684-.95605c.34131.62743.66016 1.27587.94727 1.92625z"/><path d="m10.88428 16.5824-1.75782-.95312c.33838-.624.7085-1.24462 1.1001-1.84471l1.67481 1.09374c-.36231.55469-.70459 1.12792-1.01709 1.70409z"/><path d="m52.07422 14.84071c-.36035-.54833-.749-1.09032-1.15576-1.61033l1.57519-1.23238c.44043.56348.86182 1.15039 1.25244 1.74511z"/><path d="m13.0542 13.26553-1.57813-1.22853c.436-.56055.90332-1.11181 1.38819-1.63915l1.47168 1.35448c-.44776.48684-.87894.99567-1.28174 1.5132z"/><path d="m49.63379 11.71965c-.44873-.48584-.92139-.957-1.4043-1.40038l1.35251-1.47362c.52344.48046 1.03516.99071 1.52051 1.51659z"/><path d="m15.73828 10.34954-1.35547-1.47069c.52442-.4834 1.0752-.95068 1.6377-1.38915l1.22949 1.57714c-.519.40478-1.02734.83641-1.51172 1.2827z"/><path d="m46.71387 9.039c-.52051-.40478-1.06348-.792-1.61426-1.15184l1.09277-1.67479c.59717.38964 1.18555.80956 1.749 1.24755z"/><path d="m18.86182 7.91206-1.09571-1.67284c.59619-.39062 1.21582-.76122 1.84278-1.10155l.9541 1.7578c-.57813.31396-1.15088.65624-1.70117 1.01659z"/><path d="m43.39551 6.87252c-.58057-.31348-1.17969-.60595-1.78174-.86914l.80078-1.833c.65332.28564 1.30322.603 1.93213.94335z"/><path d="m22.34229 6.02243-.80665-1.83007c.65186-.2871 1.32471-.55028 2-.7827l.6504 1.89158c-.62304.21387-1.24317.45654-1.84375.72119z"/><path d="m39.76465 5.28415c-.62305-.21289-1.26221-.40234-1.8999-.56249l.48632-1.93944c.6919.17334 1.38526.37841 2.061.60937z"/><path d="m26.08545 4.73435-.49121-1.93846c.68994-.1748 1.39746-.32324 2.10205-.44091l.33008 1.97264c-.65137.10888-1.3042.2456-1.94092.40673z"/><path d="m35.92334 4.32029c-.648-.10693-1.31006-.188-1.96729-.24121l.16016-1.99314c.71289.05713 1.43018.145 2.13233.26074z"/><path d="m29.9917 4.083-.16406-1.99315c.71-.05859 1.43164-.08886 2.14453-.08984l.00293 2c-.65918.00099-1.32666.02878-1.9834.08299z"/><path d="m21 42a.99768.99768 0 0 1 -.68311-.26953l-5.02832-4.70215a3.96366 3.96366 0 0 1 0-5.84961 4.51181 4.51181 0 0 1 5.71143-.29199 4.51193 4.51193 0 0 1 5.71143.292 3.96366 3.96366 0 0 1 0 5.84961l-5.02832 4.70215a.99768.99768 0 0 1 -.68311.26952zm-2.68164-10.00391a2.42961 2.42961 0 0 0 -1.66357.64356 1.96372 1.96372 0 0 0 0 2.92773l4.34521 4.06348 4.34521-4.06348a1.96372 1.96372 0 0 0 0-2.92773 2.47122 2.47122 0 0 0 -3.32714 0l-.335.313a.99844.99844 0 0 1 -1.36622 0l-.335-.31348a2.43141 2.43141 0 0 0 -1.66349-.64308z"/><path d="m39 32h2v2h-2z"/><path d="m43 32h2v2h-2z"/><path d="m42 38.57178a3.82148 3.82148 0 0 1 -2.91113-1.50293l1.53613-1.28028a1.59858 1.59858 0 0 0 2.75 0l1.53613 1.28028a3.82148 3.82148 0 0 1 -2.91113 1.50293z"/><path d="m42 42a6.99976 6.99976 0 1 1 7-7 7.00787 7.00787 0 0 1 -7 7zm0-11.99951a4.99976 4.99976 0 1 0 5 4.99951 5.00546 5.00546 0 0 0 -5-4.99951z"/><path d="m39.50781 16.00049a2.51514 2.51514 0 0 0 .49219-1.5 2.48043 2.48043 0 0 0 -2.45459-2.5h-3.84863v-1.5a2.45476 2.45476 0 1 0 -4.90869 0v1.5h-5.78809a1 1 0 0 0 -1 1v9a1.00005 1.00005 0 0 0 1 1h14.54541a2.48043 2.48043 0 0 0 2.45459-2.5 2.51514 2.51514 0 0 0 -.49219-1.5 2.5318 2.5318 0 0 0 0-3zm-15.50781-2h2v7h-2zm13.54541 3a.50227.50227 0 0 1 0 1 1 1 0 0 0 0 2 .50227.50227 0 0 1 0 1h-9.54541v-7h1.78809a1.00006 1.00006 0 0 0 1-1v-2.5a.45643.45643 0 1 1 .90869 0v2.5a1.00005 1.00005 0 0 0 1 1h4.84863a.50227.50227 0 0 1 0 1 1 1 0 0 0 0 2z"/></svg>
