<?xml version="1.0"?>
<svg xmlns="http://www.w3.org/2000/svg" viewBox="0 0 64 64" width="512" height="512"><path d="m51 42a19.00438 19.00438 0 0 1 -19 19v-38a19.00438 19.00438 0 0 1 19 19z" fill="#5358a1"/><path d="m13 42a19 19 0 0 0 19 19v-38a19 19 0 0 0 -19 19z" fill="#24db6a"/><path d="m52.182 32.0667a35.25156 35.25156 0 0 0 6.818-8.0667c-5.79333-9.21979-15.18-15-27.49091-15s-20.71569 5.78021-26.50909 15a32.11631 32.11631 0 0 0 9.91193 10.11273 18.97643 18.97643 0 0 1 34.55236.02539 28.93889 28.93889 0 0 0 2.71771-2.07142" fill="#dbe6fd"/><path d="m19.34788 22.99995a12.59872 12.59872 0 0 0 -.17631 5.01372 18.91891 18.91891 0 0 1 25.65686-.00006 12.994 12.994 0 0 0 -24.83206-7.0137" fill="#17afdc"/><circle cx="39" cy="17" fill="#5358a1" r="2"/><path d="m59.665 23.46777a34.318 34.318 0 0 0 -5.53674-6.76123l4.52893-3.95263-1.31446-1.50782-4.72522 4.124a31.232 31.232 0 0 0 -7.556-4.62l2.65137-5.30279-1.78906-.89454-2.72937 5.45868a34.45741 34.45741 0 0 0 -10.19445-1.96328v-6.04816h-2v6.00922a32.86583 32.86583 0 0 0 -10.667 1.78378l-2.62012-5.2403-1.78906.89454 2.53785 5.07576a29.02212 29.02212 0 0 0 -7.02545 4.30511l-4.83661-3.62791-1.19922 1.5996 4.5047 3.37891a36.90816 36.90816 0 0 0 -5.93341 7.28906 1.0018 1.0018 0 0 0 0 1.06446 33.17216 33.17216 0 0 0 9.5105 9.941 20.00017 20.00017 0 1 0 37.03821.007c.72735-.51953 1.44482-1.06561 2.131-1.655a36.40329 36.40329 0 0 0 7.01367-8.293 1.0018 1.0018 0 0 0 -.00006-1.06446zm-45.61434 19.53223h6.97626a32.901 32.901 0 0 0 1.59051 9.54089c-1.61267.19355-3.15753.44153-4.62689.73481a17.89774 17.89774 0 0 1 -3.93988-10.2757zm8.57049-11.54047a32.9122 32.9122 0 0 0 -1.59423 9.54047h-6.97626a17.89375 17.89375 0 0 1 3.96307-10.27118c1.46369.29144 3.00196.53809 4.60742.73071zm-3.01815-2.46484a17.99977 17.99977 0 0 1 6.55108-4.00092 16.959 16.959 0 0 0 -2.79419 4.53437c-1.29489-.14563-2.55221-.32233-3.75689-.53345zm-.011 26.01239c1.20526-.21155 2.4635-.38837 3.75928-.5343a16.91949 16.91949 0 0 0 2.80279 4.53345 18.00483 18.00483 0 0 1 -6.56207-3.99915zm11.408 4.86804c-2.1405-.4989-4.07538-2.575-5.50861-5.60931 1.78577-.14643 3.62934-.23187 5.50861-.2544zm0-7.86365c-2.15674.02527-4.27252.12958-6.30975.314a30.62878 30.62878 0 0 1 -1.664-9.32547h7.97375zm0-11.01147h-7.97375a30.63552 30.63552 0 0 1 1.67388-9.32471c2.03418.184 4.14661.288 6.29987.31324zm0-11.01141c-1.87952-.02253-3.72327-.108-5.50922-.25446 1.43079-3.03528 3.36792-5.11013 5.50922-5.60925zm2 29.88653v-5.86371c1.87927.02253 3.72284.108 5.50861.2544-1.43323 3.0343-3.36811 5.11041-5.50861 5.60931zm5.50922-30.141c-1.78595.14642-3.6297.23193-5.50922.25446v-5.8637c2.1413.49912 4.07843 2.57397 5.50922 5.60925zm-.66333-4.74036a17.99977 17.99977 0 0 1 6.55111 4.00093c-1.20465.21112-2.462.38782-3.75689.53345a16.959 16.959 0 0 0 -2.79422-4.53437zm1.454 6.68152a30.63552 30.63552 0 0 1 1.67386 9.32472h-7.97375v-9.01147c2.15332-.02521 4.26563-.12928 6.29987-.31324zm1.67386 11.32472a30.62878 30.62878 0 0 1 -1.664 9.3255c-2.03723-.18445-4.153-.28876-6.30975-.314v-9.0115zm-3.12786 16.00623a16.91949 16.91949 0 0 0 2.80279-4.53345c1.29578.14593 2.554.32275 3.75928.5343a18.00483 18.00483 0 0 1 -6.56207 3.99915zm8.16357-5.73053c-1.46942-.29334-3.01422-.54126-4.62689-.73481a32.901 32.901 0 0 0 1.59051-9.54089h6.97626a17.89774 17.89774 0 0 1 -3.93988 10.2757zm-3.03638-12.2757a32.9122 32.9122 0 0 0 -1.59423-9.54047c1.60553-.19262 3.14373-.43927 4.60742-.73071a17.89375 17.89375 0 0 1 3.96307 10.27118zm8.37555-9.69238c-.54577.46911-1.11322.90728-1.68768 1.32934a20.09652 20.09652 0 0 0 -3.77942-5.00354 13.47936 13.47936 0 0 0 .11847-1.63342 14.00225 14.00225 0 0 0 -26.92676-5.38477l1.84571.76954a11.9851 11.9851 0 0 1 16.65-6.005 2.99177 2.99177 0 1 0 4.2207 3.704 11.9226 11.9226 0 0 1 2.21035 6.91623l-.00165.03668a19.84988 19.84988 0 0 0 -23.9967 0l-.00165-.03668a12.06521 12.06521 0 0 1 .32129-2.77051l-1.94727-.459a14.07722 14.07722 0 0 0 -.37402 3.22951 13.47936 13.47936 0 0 0 .11847 1.63342 20.09689 20.09689 0 0 0 -3.781 5.00684 31.11364 31.11364 0 0 1 -8.33161-8.64126c6.1123-9.41795 14.40137-13.999 25.32129-13.999 11.07812 0 20.39355 4.96582 26.30371 14.001a34.0201 34.0201 0 0 1 -6.28223 7.30662zm-11.34863-13.30762a1 1 0 1 1 -1-1 1.00067 1.00067 0 0 1 1 1z"/><g fill="#fccc38"><path d="m4 56h2v2h-2z"/><path d="m4 60h2v2h-2z"/><path d="m6 58h2v2h-2z"/><path d="m2 58h2v2h-2z"/><path d="m58 56h2v2h-2z"/><path d="m58 60h2v2h-2z"/><path d="m60 58h2v2h-2z"/><path d="m56 58h2v2h-2z"/></g></svg>
