<?xml version="1.0"?>
<svg xmlns="http://www.w3.org/2000/svg" viewBox="0 0 64 64" width="512" height="512"><path d="m43 42h1.65l3.35-3.52631v-13.47369h4v-9.46582a5.53416 5.53416 0 0 0 -5.53418-5.53418h-.84534a4.00006 4.00006 0 1 0 -5.241 0h-.84534a5.53416 5.53416 0 0 0 -5.53414 5.53418v5.46582h1l8 8z" fill="#f4393d"/><path d="m13 39v-18h8v-5.46582a5.53416 5.53416 0 0 0 -5.53418-5.53418h-.84534a4.00006 4.00006 0 1 0 -5.241 0h-.8453a5.53416 5.53416 0 0 0 -5.53418 5.53418v9.46582h4v14z" fill="#24db6a"/><path d="m41 52-3-3 5-5.263v-14.737l-8-8h-22v40h30v-11.105z" fill="#dbe6fd"/><path d="m35 21v8h8z" fill="#5358a1"/><path d="m38 49-4 2-1 6 6-1 2-4z" fill="#5358a1"/><path d="m57 29-19 20 3 3 19-20z" fill="#17afdc"/><path d="m60.707 31.293-3-3a.98169.98169 0 0 0 -.7197-.293 1.00421 1.00421 0 0 0 -.7124.31152l-7.2749 7.65778v-9.9693h3a.99974.99974 0 0 0 1-1v-9.46582a6.54573 6.54573 0 0 0 -5.46631-6.44727 4.92488 4.92488 0 0 0 .46631-2.08691 5 5 0 0 0 -10 0 4.92488 4.92488 0 0 0 .46631 2.08691 6.54573 6.54573 0 0 0 -5.46631 6.44727v4.46582h-11v-4.46582a6.54573 6.54573 0 0 0 -5.46631-6.44727 4.92488 4.92488 0 0 0 .46631-2.08691 5 5 0 0 0 -10 0 4.92488 4.92488 0 0 0 .46631 2.08691 6.54573 6.54573 0 0 0 -5.46631 6.44727v9.46582a.99974.99974 0 0 0 1 1h3v13a.99974.99974 0 0 0 1 1h5v21a.99974.99974 0 0 0 1 1h30a.99974.99974 0 0 0 1-1v-10.70618l16.7251-17.60534a.99972.99972 0 0 0 -.0181-1.39548zm-25.707-15.75882a4.53951 4.53951 0 0 1 4.53418-4.53418h.84521a1.00012 1.00012 0 0 0 .65821-1.75293 2.95445 2.95445 0 0 1 -1.0376-2.24707 3 3 0 0 1 6 0 2.95445 2.95445 0 0 1 -1.0376 2.24707 1.00012 1.00012 0 0 0 .65821 1.75293h.84521a4.53951 4.53951 0 0 1 4.53418 4.53418v8.46582h-2v-10h-2v24.07458l-3 3.1579v-12.23248a.99928.99928 0 0 0 -.293-.707l-4.707-4.70706v-9.58594h-2v7.58594l-1.293-1.293a1.00012 1.00012 0 0 0 -.707-.29294zm1 7.87988 4.58594 4.58594h-4.58594zm-24-2.41406v17h-4v-24h-2v10h-2v-8.46582a4.53951 4.53951 0 0 1 4.53418-4.53418h.84521a1.00012 1.00012 0 0 0 .65821-1.75293 2.95445 2.95445 0 0 1 -1.0376-2.24707 3 3 0 0 1 6 0 2.95445 2.95445 0 0 1 -1.0376 2.24707 1.00012 1.00012 0 0 0 .65821 1.75293h.84521a4.53951 4.53951 0 0 1 4.53418 4.53418v4.46582h-2v-6h-2v6h-3a.99974.99974 0 0 0 -1 1zm30 39h-28v-38h20v7a.99974.99974 0 0 0 1 1h7v13.33771l-4.60364 4.84594-3.84363 1.92182a1.00216 1.00216 0 0 0 -.53906.73047l-1 6a1 1 0 0 0 .98633 1.16406 1.04378 1.04378 0 0 0 .16455-.01367l6-1a1.00046 1.00046 0 0 0 .73-.53906l1.93364-3.86727.17181-.18089zm-5.707-7.707-1.7937 1.7937.40356-2.41968 2.8999-1.45019 1.98047 1.98047-1.4497 2.90039-2.42005.403 1.79352-1.79369zm4.68848-1.72559-1.585-1.585 17.62207-18.5498 1.585 1.585z"/><path d="m18 25h12v2h-12z"/><path d="m16 30h9v2h-9z"/><path d="m27 30h5v2h-5z"/><path d="m16 35h11v2h-11z"/><path d="m29 35h11v2h-11z"/><path d="m16 40h7v2h-7z"/><path d="m25 40h15v2h-15z"/><path d="m16 45h6v2h-6z"/><path d="m24 45h12.875v2h-12.875z"/><path d="m16 50h5.5415v2h-5.5415z"/><path d="m23.125 50h7.875v2h-7.875z"/><path d="m16 55h7.875v2h-7.875z"/><g fill="#fccc38"><path d="m58 56h2v2h-2z"/><path d="m58 60h2v2h-2z"/><path d="m60 58h2v2h-2z"/><path d="m56 58h2v2h-2z"/><path d="m58 2h2v2h-2z"/><path d="m58 6h2v2h-2z"/><path d="m60 4h2v2h-2z"/><path d="m56 4h2v2h-2z"/></g></svg>
