<?xml version="1.0"?>
<svg xmlns="http://www.w3.org/2000/svg" viewBox="0 0 64 64" width="512" height="512"><path d="m15.46582 21h-.84534a4.00006 4.00006 0 1 0 -5.241 0h-.8453a5.53416 5.53416 0 0 0 -5.53418 5.53418v9.46582h4v14h10v-14h4v-9.46582a5.53416 5.53416 0 0 0 -5.53418-5.53418z" fill="#dbe6fd"/><path d="m53 3h8v8h-8z" fill="#fccc38"/><path d="m56 53-5 8h10z" fill="#17afdc"/><circle cx="57" cy="32" fill="#24db6a" r="4"/><g fill="#f4393d"><path d="m49 32-8.027-5 .027 3h-15v4h15v3z"/><path d="m39 8 2 3a23.81647 23.81647 0 0 1 -13.21112 4h-1.78888v4h3.36761a23.81649 23.81649 0 0 0 13.84314-4.43628l2.78925 2.43628 2-9z"/><path d="m39 56 2-3a23.81647 23.81647 0 0 0 -13.21112-4h-1.78888v-4h3.36761a23.81649 23.81649 0 0 1 13.84314 4.43628l2.78925-2.43628 2 9z"/></g><path d="m16.53369 20.0874a4.92706 4.92706 0 0 0 .46631-2.0874 5 5 0 0 0 -10 0 4.92706 4.92706 0 0 0 .46631 2.0874 6.54483 6.54483 0 0 0 -5.46631 6.44678v9.46582a1 1 0 0 0 1 1h3v13a1 1 0 0 0 1 1h10a1 1 0 0 0 1-1v-13h3a1 1 0 0 0 1-1v-9.46582a6.54483 6.54483 0 0 0 -5.46631-6.44678zm3.46631 14.9126h-2v-10h-2v24h-3v-14h-2v14h-3v-24h-2v10h-2v-8.46582a4.53951 4.53951 0 0 1 4.53418-4.53418h.84521a.99983.99983 0 0 0 .65821-1.75244 2.957 2.957 0 0 1 -1.0376-2.24756 3 3 0 0 1 6 0 2.957 2.957 0 0 1 -1.0376 2.24756.99983.99983 0 0 0 .65821 1.75244h.84521a4.53951 4.53951 0 0 1 4.53418 4.53418z"/><path d="m61 12h-8a1 1 0 0 1 -1-1v-8a1 1 0 0 1 1-1h8a1 1 0 0 1 1 1v8a1 1 0 0 1 -1 1zm-7-2h6v-6h-6z"/><path d="m61 62h-10a1.00008 1.00008 0 0 1 -.84814-1.52979l5-8a1.03918 1.03918 0 0 1 1.69628 0l5 8a1.00008 1.00008 0 0 1 -.84814 1.52979zm-8.1958-2h6.3916l-3.1958-5.11328z"/><path d="m57 37a5 5 0 1 1 5-5 5.00588 5.00588 0 0 1 -5 5zm0-8a3 3 0 1 0 3 3 3.00328 3.00328 0 0 0 -3-3z"/><path d="m41 38a1.0002 1.0002 0 0 1 -1-1v-2h-14a1 1 0 0 1 -1-1v-4a1 1 0 0 1 1-1h13.99072l-.01806-1.99072a1 1 0 0 1 1.5288-.85791l8.02735 5a.99991.99991 0 0 1 .001 1.69677l-8 5a.99893.99893 0 0 1 -.52981.15186zm-14-5h14a1 1 0 0 1 1 1v1.1958l5.11084-3.19434-5.12158-3.18994.01074 1.1792a.99948.99948 0 0 1 -1 1.00928h-14z"/><path d="m29.36768 20h-3.36768a1 1 0 0 1 -1-1v-4a1 1 0 0 1 1-1h1.78906a22.73534 22.73534 0 0 0 11.812-3.29541l-1.43306-2.1499a.99992.99992 0 0 1 .832-1.55469h9a.99976.99976 0 0 1 .97607 1.2168l-2 9a.99963.99963 0 0 1 -1.63378.53613l-2.20313-1.92432a24.66316 24.66316 0 0 1 -13.77148 4.17139zm-2.36768-2h2.36768a22.6908 22.6908 0 0 0 13.2622-4.25.99715.99715 0 0 1 1.23877.06055l1.52051 1.32812 1.36426-6.13867h-5.88477l.96338 1.44531a1.00017 1.00017 0 0 1 -.27734 1.38672 24.73635 24.73635 0 0 1 -13.76563 4.16797h-.78906z"/><path d="m48 57h-9a.99992.99992 0 0 1 -.832-1.55469l1.4331-2.1499a22.73534 22.73534 0 0 0 -11.81204-3.29541h-1.78906a1 1 0 0 1 -1-1v-4a1 1 0 0 1 1-1h3.36768a24.66316 24.66316 0 0 1 13.77148 4.17139l2.20313-1.92432a.99963.99963 0 0 1 1.63378.53613l2 9a.99976.99976 0 0 1 -.97607 1.2168zm-7.13135-2h5.88477l-1.36426-6.13867-1.52051 1.32812a.99838.99838 0 0 1 -1.23877.06055 22.6908 22.6908 0 0 0 -13.2622-4.25h-2.36768v2h.78906a24.73635 24.73635 0 0 1 13.76563 4.168 1.00017 1.00017 0 0 1 .27734 1.38672z"/><path d="m8 2h5v2h-5z"/><path d="m4 6h-2v-3a1 1 0 0 1 1-1h3v2h-2z"/><path d="m2 8h2v5h-2z"/><path d="m2 51h2v5h-2z"/><path d="m6 62h-3a1 1 0 0 1 -1-1v-3h2v2h2z"/><path d="m8 60h5v2h-5z"/></svg>
