<?xml version="1.0"?>
<svg xmlns="http://www.w3.org/2000/svg" viewBox="0 0 64 64" width="512" height="512"><path d="m11.90475 32.5c4.91798 0 9.09525 3.80558 9.09525 8.5v5l4 6h-4v5h-8v4h-10v-20a8.70944 8.70944 0 0 1 8.90475-8.5z" fill="#dbe6fd"/><circle cx="35" cy="12" fill="#fccc38" r="9"/><circle cx="52" cy="52" fill="#fccc38" r="9"/><circle cx="52" cy="28" fill="#fccc38" r="9"/><path d="m12 36c-2.76141 0-5 1.79084-5 4h10c0-2.20916-2.23859-4-5-4z" fill="#ff7f00"/><g fill="#f4393d"><path d="m17 9v6l5-3z"/><path d="m34 26v6l5-3z"/><path d="m34 50v6l5-3z"/><path d="m35 6 1.18 3.82h3.82l-3.09 2.36 1.18 3.82-3.09-2.361-3.09 2.361 1.18-3.82-3.09-2.36h3.82z"/></g><circle cx="52" cy="52" fill="#24db6a" r="4"/><path d="m48 24h8v8h-8z" fill="#17afdc"/><path d="m14 43h5v2h-5z"/><path d="m13 62h-10a.99943.99943 0 0 1 -1-1v-20a9.7197 9.7197 0 0 1 9.9043-9.5c5.5664 0 10.0957 4.26172 10.0957 9.5v4.69727l3.832 5.748a.99992.99992 0 0 1 -.832 1.55473h-3v4a.99943.99943 0 0 1 -1 1h-7v3a.99943.99943 0 0 1 -1 1zm-9-2h8v-3a.99943.99943 0 0 1 1-1h7v-4a.99943.99943 0 0 1 1-1h2.13184l-2.96384-4.44531a1.00091 1.00091 0 0 1 -.168-.55469v-5c0-4.06543-3.707-7.5-8.0957-7.5a7.71874 7.71874 0 0 0 -7.9043 7.5z"/><path d="m35 22a10.06166 10.06166 0 0 1 -1.72461-.14844l.34375-1.9707a8.13611 8.13611 0 0 0 2.77734-.00195l.34766 1.96875a10.00884 10.00884 0 0 1 -1.74414.15234zm-4.99023-1.332a10.01488 10.01488 0 0 1 -2.66016-2.22754l1.5293-1.28906a8.0081 8.0081 0 0 0 2.13086 1.78418zm9.99609-.00977-1.002-1.73047a8.02576 8.02576 0 0 0 2.127-1.7871l1.53125 1.28515a9.99088 9.99088 0 0 1 -2.65625 2.23239zm-14.39844-5.21975a9.92631 9.92631 0 0 1 -.60742-3.417l2-.0039a7.982 7.982 0 0 0 .48438 2.7334zm18.793-.01953-1.87891-.6836a7.996 7.996 0 0 0 .47849-2.73535l1.79785-.0332.20117.001a9.98924 9.98924 0 0 1 -.59863 3.4512zm-16.92679-6.13965-1.88086-.67969a9.96477 9.96477 0 0 1 1.73145-3.01074l1.53516 1.2832a7.94842 7.94842 0 0 0 -1.38575 2.40723zm15.03711-.04395a7.963 7.963 0 0 0 -1.39941-2.39941l1.52734-1.291a9.98255 9.98255 0 0 1 1.74903 2.99706zm-11.52832-4.15527-1.00586-1.72852a9.91766 9.91766 0 0 1 3.25977-1.19629l.35156 1.96873a7.93189 7.93189 0 0 0 -2.60547.95608zm7.99414-.02442a7.92126 7.92126 0 0 0 -2.61035-.94043l.33789-1.9707a9.89853 9.89853 0 0 1 3.26856 1.17676z"/><path d="m52 62a10.06166 10.06166 0 0 1 -1.72461-.14844l.34375-1.9707a8.08731 8.08731 0 0 0 2.77734-.002l.34766 1.96875a10.00884 10.00884 0 0 1 -1.74414.15239zm-4.99023-1.332a10.01488 10.01488 0 0 1 -2.66016-2.22754l1.5293-1.28906a8.0081 8.0081 0 0 0 2.13086 1.78418zm9.99609-.00977-1.002-1.73047a8.02576 8.02576 0 0 0 2.127-1.7871l1.53125 1.28515a9.99088 9.99088 0 0 1 -2.65625 2.23239zm-14.39844-5.21975a9.92631 9.92631 0 0 1 -.60742-3.417l2-.0039a7.982 7.982 0 0 0 .48438 2.7334zm18.793-.01953-1.87891-.6836a7.996 7.996 0 0 0 .47849-2.73535l1.79785-.0332.20117.001a9.98924 9.98924 0 0 1 -.59863 3.4512zm-16.92679-6.13965-1.88086-.67969a9.96477 9.96477 0 0 1 1.73145-3.01074l1.53516 1.2832a7.94842 7.94842 0 0 0 -1.38575 2.40723zm15.03711-.044a7.963 7.963 0 0 0 -1.39941-2.39941l1.52734-1.291a9.98255 9.98255 0 0 1 1.749 2.99707zm-11.52832-4.15522-1.00586-1.72852a9.91766 9.91766 0 0 1 3.25977-1.19629l.35156 1.96875a7.93189 7.93189 0 0 0 -2.60547.95606zm7.99414-.02442a7.92126 7.92126 0 0 0 -2.61035-.94043l.33789-1.9707a9.89853 9.89853 0 0 1 3.26856 1.17676z"/><path d="m52 38a10.06166 10.06166 0 0 1 -1.72461-.14844l.34375-1.9707a8.13611 8.13611 0 0 0 2.77734-.002l.34766 1.96875a10.00884 10.00884 0 0 1 -1.74414.15239zm-4.99023-1.332a10.01488 10.01488 0 0 1 -2.66016-2.22754l1.5293-1.28906a8.0081 8.0081 0 0 0 2.13086 1.78418zm9.99609-.00977-1.002-1.73047a8.02576 8.02576 0 0 0 2.127-1.7871l1.53125 1.28515a9.99088 9.99088 0 0 1 -2.65625 2.23239zm-14.39844-5.21975a9.92631 9.92631 0 0 1 -.60742-3.417l2-.0039a7.982 7.982 0 0 0 .48438 2.7334zm18.793-.01953-1.87891-.6836a7.996 7.996 0 0 0 .47849-2.73535l1.79785-.0332.20117.001a9.98924 9.98924 0 0 1 -.59863 3.4512zm-16.92679-6.13965-1.88086-.67969a9.96477 9.96477 0 0 1 1.73145-3.01074l1.53516 1.2832a7.94842 7.94842 0 0 0 -1.38575 2.40723zm15.03711-.04395a7.963 7.963 0 0 0 -1.39941-2.39941l1.52734-1.291a9.98255 9.98255 0 0 1 1.749 2.99707zm-11.52832-4.15527-1.00586-1.72852a9.91766 9.91766 0 0 1 3.25977-1.19629l.35156 1.96875a7.93189 7.93189 0 0 0 -2.60547.95606zm7.99414-.02442a7.92126 7.92126 0 0 0 -2.61035-.94043l.33789-1.9707a9.89853 9.89853 0 0 1 3.26856 1.17676z"/><path d="m22.51465 11.14258-5-3a.99986.99986 0 0 0 -1.51465.85742v2h-6a.99943.99943 0 0 0 -1 1v17h2v-16h5v2a1 1 0 0 0 1.51465.85742l5-3a1 1 0 0 0 0-1.71484zm-4.51465 2.09082v-2.4668l2.05664 1.2334z"/><path d="m39.51465 52.14258-5-3a.99986.99986 0 0 0 -1.51465.85742v2h-3v-14a.99943.99943 0 0 0 -1-1h-5v2h4v14a.99943.99943 0 0 0 1 1h4v2a1 1 0 0 0 1.51465.85742l5-3a1 1 0 0 0 0-1.71484zm-4.51465 2.09082v-2.4668l2.05664 1.2334z"/><path d="m39.51465 28.14258-5-3a.99986.99986 0 0 0 -1.51465.85742v2h-9a.99943.99943 0 0 0 -1 1v3h-2v2h3a.99943.99943 0 0 0 1-1v-3h8v2a1 1 0 0 0 1.51465.85742l5-3a1 1 0 0 0 0-1.71484zm-4.51465 2.09082v-2.4668l2.05664 1.2334z"/></svg>
