<?xml version="1.0"?>
<svg xmlns="http://www.w3.org/2000/svg" viewBox="0 0 64 64" width="512" height="512"><path d="m47.90475 32.5c4.91798 0 9.09525 3.80558 9.09525 8.5v5l4 6h-4v6h-8v3h-10v-20a8.70944 8.70944 0 0 1 8.90475-8.5z" fill="#17afdc"/><path d="m11.90475 32.5c4.91798 0 9.09525 3.80558 9.09525 8.5v5l4 6h-4v6h-8v3h-10v-20a8.70944 8.70944 0 0 1 8.90475-8.5z" fill="#f4393d"/><path d="m27 14a3.98774 3.98774 0 0 0 -2.6853-3.76086 3.98785 3.98785 0 0 0 -5.88977-5.27662 3.9698 3.9698 0 0 0 -6.84986 0 3.99058 3.99058 0 0 0 -5.88977 5.27662 3.97626 3.97626 0 0 0 0 7.52172 3.98781 3.98781 0 0 0 5.88977 5.27655 3.96973 3.96973 0 0 0 6.84986 0 3.99055 3.99055 0 0 0 5.88977-5.27655 3.98774 3.98774 0 0 0 2.6853-3.76086z" fill="#dbe6fd"/><path d="m61 14a3.98774 3.98774 0 0 0 -2.6853-3.76086 3.98785 3.98785 0 0 0 -5.88977-5.27662 3.9698 3.9698 0 0 0 -6.84986 0 3.99058 3.99058 0 0 0 -5.88977 5.27662 3.97626 3.97626 0 0 0 0 7.52172 3.98781 3.98781 0 0 0 5.88977 5.27655 3.96973 3.96973 0 0 0 6.84986 0 3.99055 3.99055 0 0 0 5.88977-5.27655 3.98774 3.98774 0 0 0 2.6853-3.76086z" fill="#dbe6fd"/><path d="m12 36c-2.76141 0-5 1.79084-5 4h10c0-2.20916-2.23859-4-5-4z" fill="#fccc38"/><path d="m9 12h12v4h-12z" fill="#ff7f00"/><path d="m55 12h-4v-4h-4v4h-4v4h4v4h4v-4h4z" fill="#5358a1"/><path d="m13 43h5v2h-5z"/><path d="m25.832 51.44531-3.832-5.74804v-4.69727c0-5.23828-4.52881-9.5-10.09521-9.5a9.71982 9.71982 0 0 0 -9.90479 9.5v20a1 1 0 0 0 1 1h10a1 1 0 0 0 1-1v-2h7a1 1 0 0 0 1-1v-5h3a.99992.99992 0 0 0 .832-1.55469zm-4.832-.44531a1 1 0 0 0 -1 1v.42084a6.38137 6.38137 0 0 0 -5.55469.74713l1.10938 1.66403a4.38908 4.38908 0 0 1 4.44531-.25131v2.41931h-7a1 1 0 0 0 -1 1v2h-8v-19a7.71887 7.71887 0 0 1 7.90479-7.5c4.38821 0 8.09521 3.43457 8.09521 7.5v5a1.00091 1.00091 0 0 0 .168.55469l2.96335 4.44531z"/><path d="m49 43h5v2h-5z"/><path d="m61.832 51.44531-3.832-5.74804v-4.69727c0-5.23828-4.52881-9.5-10.09521-9.5a9.71982 9.71982 0 0 0 -9.90479 9.5v20a1 1 0 0 0 1 1h10a1 1 0 0 0 1-1v-2h7a1 1 0 0 0 1-1v-5h3a.99992.99992 0 0 0 .832-1.55469zm-4.832-.44531a1 1 0 0 0 -1 1v.51111a4.38911 4.38911 0 0 1 -4.44531-.25134l-1.10938 1.66406a6.31733 6.31733 0 0 0 5.55469.74707v2.3291h-7a1 1 0 0 0 -1 1v2h-8v-19a7.71887 7.71887 0 0 1 7.90479-7.5c4.38821 0 8.09521 3.43457 8.09521 7.5v5a1.00091 1.00091 0 0 0 .168.55469l2.96335 4.44531z"/><path d="m35.76807 42.35986-3.3335-4-1.53613 1.28028 1.96649 2.35986h-7.86493v2h7.86493l-1.96649 2.35986 1.53613 1.28028 3.3335-4a.99977.99977 0 0 0 0-1.28028z"/><path d="m35.7998 26.3999-3-4-1.5996 1.2002 1.79986 2.3999h-7.00006v2h7.00006l-1.79986 2.3999 1.5996 1.2002 3-4a.999.999 0 0 0 0-1.2002z"/><path d="m21 17h-12a1 1 0 0 1 -1-1v-4a1 1 0 0 1 1-1h12a1 1 0 0 1 1 1v4a1 1 0 0 1 -1 1zm-11-2h10v-2h-10z"/><path d="m51 21h-4a1 1 0 0 1 -1-1v-3h-3a1 1 0 0 1 -1-1v-4a1 1 0 0 1 1-1h3v-3a1 1 0 0 1 1-1h4a1 1 0 0 1 1 1v3h3a1 1 0 0 1 1 1v4a1 1 0 0 1 -1 1h-3v3a1 1 0 0 1 -1 1zm-3-2h2v-3a1 1 0 0 1 1-1h3v-2h-3a1 1 0 0 1 -1-1v-3h-2v3a1 1 0 0 1 -1 1h-3v2h3a1 1 0 0 1 1 1z"/><path d="m15 26a4.93188 4.93188 0 0 1 -3.65234-1.60156 4.93256 4.93256 0 0 1 -2.34766.60156 5.00184 5.00184 0 0 1 -4.66943-6.79 4.96774 4.96774 0 0 1 0-8.41992 5.00184 5.00184 0 0 1 4.66943-6.79008 4.93256 4.93256 0 0 1 2.34766.60156 4.96534 4.96534 0 0 1 7.30468 0 4.93256 4.93256 0 0 1 2.34766-.60156 5.00184 5.00184 0 0 1 4.66943 6.79 4.96774 4.96774 0 0 1 0 8.41992 5.00184 5.00184 0 0 1 -4.66943 6.79008 4.93256 4.93256 0 0 1 -2.34766-.60156 4.93188 4.93188 0 0 1 -3.65234 1.60156zm-3.4248-3.9624a.97869.97869 0 0 1 .16406.01367 1.00109 1.00109 0 0 1 .69482.47412 2.96974 2.96974 0 0 0 5.13184 0 1.00045 1.00045 0 0 1 1.50586-.25049 2.96336 2.96336 0 0 0 1.92822.7251 3 3 0 0 0 2.48633-4.67871 1.00019 1.00019 0 0 1 .49805-1.5044 2.97615 2.97615 0 0 0 0-5.63378 1.00019 1.00019 0 0 1 -.49805-1.5044 2.98782 2.98782 0 0 0 -4.41455-3.95361 1.00045 1.00045 0 0 1 -1.50586-.25049 2.96974 2.96974 0 0 0 -5.13184 0 1.00045 1.00045 0 0 1 -1.50586.25049 2.96336 2.96336 0 0 0 -1.92822-.7251 3 3 0 0 0 -2.48633 4.67871 1.0002 1.0002 0 0 1 -.498 1.5044 2.97615 2.97615 0 0 0 0 5.63378 1.0002 1.0002 0 0 1 .498 1.5044 2.98782 2.98782 0 0 0 4.41455 3.95361 1.00065 1.00065 0 0 1 .64698-.2373z"/><path d="m49 26a4.93188 4.93188 0 0 1 -3.65234-1.60156 4.93256 4.93256 0 0 1 -2.34766.60156 5.00184 5.00184 0 0 1 -4.66943-6.79 4.96774 4.96774 0 0 1 0-8.41992 5.00184 5.00184 0 0 1 4.66943-6.79008 4.93256 4.93256 0 0 1 2.34766.60156 4.96534 4.96534 0 0 1 7.30468 0 4.93256 4.93256 0 0 1 2.34766-.60156 5.00184 5.00184 0 0 1 4.66943 6.79 4.96774 4.96774 0 0 1 0 8.41992 5.00184 5.00184 0 0 1 -4.66943 6.79008 4.93256 4.93256 0 0 1 -2.34766-.60156 4.93188 4.93188 0 0 1 -3.65234 1.60156zm-3.4248-3.9624a.97869.97869 0 0 1 .16406.01367 1.00109 1.00109 0 0 1 .69482.47412 2.96974 2.96974 0 0 0 5.13184 0 1.00045 1.00045 0 0 1 1.50586-.25049 2.96336 2.96336 0 0 0 1.92822.7251 3 3 0 0 0 2.48633-4.67871 1.00019 1.00019 0 0 1 .498-1.5044 2.97615 2.97615 0 0 0 0-5.63378 1.00019 1.00019 0 0 1 -.498-1.5044 2.98782 2.98782 0 0 0 -4.41455-3.95361 1.00045 1.00045 0 0 1 -1.50586-.25049 2.96974 2.96974 0 0 0 -5.13184 0 1.00045 1.00045 0 0 1 -1.50586.25049 2.96336 2.96336 0 0 0 -1.92822-.7251 3 3 0 0 0 -2.48633 4.67871 1.0002 1.0002 0 0 1 -.498 1.5044 2.97615 2.97615 0 0 0 0 5.63378 1.0002 1.0002 0 0 1 .498 1.5044 2.98782 2.98782 0 0 0 4.41455 3.95361 1.00065 1.00065 0 0 1 .64698-.2373z"/><path d="m19 30h2v2h-2z"/><path d="m21 27h2v2h-2z"/><path d="m55 30h2v2h-2z"/><path d="m57 27h2v2h-2z"/><path d="m48 36c-2.76141 0-5 1.79084-5 4h10c0-2.20916-2.23859-4-5-4z" fill="#fccc38"/></svg>
