<?xml version="1.0" encoding="utf-8"?>
<!-- Generator: Adobe Illustrator 21.0.0, SVG Export Plug-In . SVG Version: 6.00 Build 0)  -->
<svg xmlns="http://www.w3.org/2000/svg" xmlns:xlink="http://www.w3.org/1999/xlink" version="1.1" id="Layer_1" x="0px" y="0px" viewBox="0 0 64 64" style="enable-background:new 0 0 64 64;" xml:space="preserve" width="512" height="512">
<style type="text/css">
	.st0{fill:#17AFDC;}
	.st1{fill:#FCCC38;}
	.st2{fill:#F4393D;}
</style>
<g>
	<path class="st0" d="M35.5,31h-0.8c1.7-1.4,1.8-4,0.4-5.6c-1.4-1.7-4-1.8-5.6-0.4c-1.7,1.4-1.8,4-0.4,5.6c0.1,0.1,0.3,0.3,0.4,0.4   h-0.8c-3.1,0-5.5,2.5-5.5,5.5V46h4v14h10V46h4v-9.5C41,33.5,38.5,31,35.5,31C35.5,31,35.5,31,35.5,31z"/>
	<path class="st1" d="M59,26.3h-1c0.8-0.6,1.2-1.6,0.9-2.6c-0.3-0.8-0.9-1.4-1.7-1.6c-1.3-0.4-2.7,0.4-3.1,1.7   C54,24,54,24.2,54,24.4c0,0.8,0.4,1.5,1,1.9h-1c-1.1,0-2,0.8-2,1.9V34h2v6h5v-6h2v-5.8C61,27.2,60.1,26.3,59,26.3z"/>
	<path class="st1" d="M10,26.3H9c0.8-0.6,1.2-1.6,0.9-2.6c-0.3-0.8-0.9-1.4-1.7-1.6c-1.3-0.4-2.7,0.4-3.1,1.7C5,24,5,24.2,5,24.4   c0,0.8,0.4,1.5,1,1.9H5c-1.1,0-2,0.8-2,1.9V34h2v6h5v-6h2v-5.8C12,27.2,11.1,26.3,10,26.3z"/>
	<path class="st2" d="M16.2,4.9c-1-1.1-2.7-1.2-3.9-0.2c-0.1,0.1-0.2,0.1-0.2,0.2L10,7.1L7.9,4.9c-1-1.1-2.7-1.2-3.9-0.2   C4,4.8,3.9,4.8,3.8,4.9c-1.1,1.3-1.1,3.2,0,4.4L10,16l6.2-6.6C17.3,8.1,17.3,6.2,16.2,4.9z"/>
	<path class="st2" d="M60.2,4.9c-1-1.1-2.7-1.2-3.9-0.2c-0.1,0.1-0.2,0.1-0.2,0.2L54,7.1l-2.1-2.2c-1-1.1-2.7-1.2-3.9-0.2   c-0.1,0.1-0.2,0.1-0.2,0.2c-1.1,1.3-1.1,3.2,0,4.4L54,16l6.2-6.6C61.3,8.1,61.3,6.2,60.2,4.9z"/>
	<path d="M36.5,30.1c0.3-0.7,0.5-1.4,0.5-2.1c0-2.8-2.2-5-5-5s-5,2.2-5,5c0,0.7,0.2,1.4,0.5,2.1c-3.2,0.5-5.5,3.3-5.5,6.4V46   c0,0.6,0.4,1,1,1c0,0,0,0,0,0h3v13c0,0.6,0.4,1,1,1c0,0,0,0,0,0h10c0.6,0,1-0.4,1-1c0,0,0,0,0,0V47h3c0.6,0,1-0.4,1-1c0,0,0,0,0,0   v-9.5C42,33.3,39.7,30.6,36.5,30.1z M40,45h-2V35h-2v24h-3V45h-2v14h-3V35h-2v10h-2v-8.5c0-2.5,2-4.5,4.5-4.5h0.8c0.6,0,1-0.4,1-1   c0-0.3-0.1-0.6-0.3-0.8c-0.7-0.6-1-1.4-1-2.2c0-1.7,1.3-3,3-3c1.7,0,3,1.3,3,3c0,0.9-0.4,1.7-1,2.2c-0.4,0.4-0.5,1-0.1,1.4   c0.2,0.2,0.5,0.3,0.8,0.3h0.8c2.5,0,4.5,2,4.5,4.5V45z"/>
	<path d="M59,41h-5c-0.6,0-1-0.4-1-1c0,0,0,0,0,0v-5h-1c-0.6,0-1-0.4-1-1c0,0,0,0,0,0v-5.8c0-1.3,0.9-2.5,2.2-2.8   c-0.1-0.3-0.2-0.7-0.2-1c0-1,0.5-2,1.3-2.7c0.9-0.7,2-0.9,3.1-0.6c1.2,0.3,2.1,1.2,2.4,2.3c0.2,0.7,0.2,1.3,0,2   c1.3,0.3,2.2,1.5,2.2,2.8V34c0,0.6-0.4,1-1,1c0,0,0,0,0,0h-1v5C60,40.6,59.6,41,59,41C59,41,59,41,59,41z M55,39h3v-5   c0-0.6,0.4-1,1-1c0,0,0,0,0,0h1v-4.8c0-0.5-0.5-0.9-1-0.9h-1c-0.6,0-1-0.4-1-1c0-0.3,0.2-0.6,0.4-0.8c0.5-0.3,0.7-0.9,0.5-1.5   c-0.2-0.5-0.5-0.8-1-0.9c-0.5-0.1-1,0-1.4,0.3c-0.6,0.4-0.7,1.3-0.3,1.9c0.1,0.1,0.2,0.2,0.3,0.3c0.4,0.3,0.6,0.9,0.2,1.4   c-0.2,0.3-0.5,0.4-0.8,0.4h-1c-0.5,0-1,0.4-1,0.9V33h1c0.6,0,1,0.4,1,1c0,0,0,0,0,0V39z"/>
	<path d="M10,41H5c-0.6,0-1-0.4-1-1c0,0,0,0,0,0v-5H3c-0.6,0-1-0.4-1-1c0,0,0,0,0,0v-5.8c0-1.3,0.9-2.5,2.2-2.8   c-0.1-0.3-0.2-0.7-0.2-1c0-1,0.5-2,1.3-2.7c0.9-0.7,2-0.9,3.1-0.6c1.2,0.3,2.1,1.2,2.4,2.3c0.2,0.7,0.2,1.3,0,2   c1.3,0.3,2.2,1.5,2.2,2.8V34c0,0.6-0.4,1-1,1c0,0,0,0,0,0h-1v5C11,40.6,10.6,41,10,41C10,41,10,41,10,41z M6,39h3v-5   c0-0.6,0.4-1,1-1c0,0,0,0,0,0h1v-4.8c0-0.5-0.5-0.9-1-0.9H9c-0.6,0-1-0.4-1-1c0-0.3,0.2-0.6,0.4-0.8c0.5-0.3,0.7-0.9,0.5-1.5   c-0.2-0.5-0.5-0.8-1-0.9c-0.5-0.1-1,0-1.4,0.3c-0.6,0.4-0.7,1.3-0.3,1.9c0.1,0.1,0.2,0.2,0.3,0.3c0.4,0.3,0.6,0.9,0.2,1.4   c-0.2,0.3-0.5,0.4-0.8,0.4H5c-0.5,0-1,0.4-1,0.9V33h1c0.6,0,1,0.4,1,1c0,0,0,0,0,0V39z"/>
	<path d="M10,17c-0.3,0-0.5-0.1-0.7-0.3L3.1,10c-1.5-1.6-1.5-4.1,0-5.8C3.8,3.5,4.8,3,5.9,3h0C7,3,8,3.5,8.7,4.2L10,5.7l1.3-1.4   C12,3.5,13,3,14.1,3h0c1.1,0,2.1,0.5,2.8,1.2c1.5,1.6,1.5,4.1,0,5.8l-6.1,6.6C10.5,16.9,10.3,17,10,17z M5.9,5L5.9,5   c-0.5,0-1,0.2-1.3,0.6c-0.8,0.9-0.8,2.2,0,3.1l5.4,5.9l5.4-5.9c0.8-0.9,0.8-2.2,0-3.1v0C15.1,5.2,14.6,5,14.1,5l0,0   c-0.5,0-1,0.2-1.3,0.6l-2,2.2c-0.4,0.4-1.1,0.4-1.5,0c0,0,0,0,0,0l-2-2.2C6.9,5.2,6.4,5,5.9,5z"/>
	<path d="M54,17c-0.3,0-0.5-0.1-0.7-0.3L47.1,10c-1.5-1.6-1.5-4.1,0-5.8C47.8,3.5,48.8,3,49.9,3h0C51,3,52,3.5,52.7,4.2L54,5.7   l1.3-1.4C56,3.5,57,3,58.1,3h0c1.1,0,2.1,0.5,2.8,1.2c1.5,1.6,1.5,4.1,0,5.8l-6.1,6.6C54.5,16.9,54.3,17,54,17z M49.9,5L49.9,5   c-0.5,0-1,0.2-1.3,0.6c-0.8,0.9-0.8,2.2,0,3.1l5.4,5.9l5.4-5.9c0.8-0.9,0.8-2.2,0-3.1v0C59.1,5.2,58.6,5,58.1,5l0,0   c-0.5,0-1,0.2-1.3,0.6l-2,2.2c-0.4,0.4-1.1,0.4-1.5,0c0,0,0,0,0,0l-2-2.2C50.9,5.2,50.4,5,49.9,5z"/>
	<path d="M61.6,46.2l-4-3c-0.4-0.3-0.8-0.3-1.2,0l-4,3l1.2,1.6L56,46v8H44v2h13c0.6,0,1-0.4,1-1c0,0,0,0,0,0v-9l2.4,1.8L61.6,46.2z"/>
	<path d="M8,54v-8l2.4,1.8l1.2-1.6l-4-3c-0.4-0.3-0.8-0.3-1.2,0l-4,3l1.2,1.6L6,46v9c0,0.6,0.4,1,1,1c0,0,0,0,0,0h13v-2H8z"/>
	<rect x="22" y="54" width="2" height="2"/>
	<rect x="40" y="54" width="2" height="2"/>
</g>
</svg>
