<?xml version="1.0"?>
<svg xmlns="http://www.w3.org/2000/svg" viewBox="0 0 64 64" width="512" height="512"><path d="m62 33h-24l2 9 5 2 5 7-3 10h15z" fill="#dbe6fd"/><path d="m17 61-2-10 4-7 5-2 2-9h-24v28z" fill="#dbe6fd"/><path d="m58.54547 4-5.30286 8.4256a3.30533 3.30533 0 0 0 -.29559-.16046 3 3 0 1 0 -3.894 0 3.30533 3.30533 0 0 0 -.29559.16046l-5.3029-8.4256-2.45453 1.6 6.02 9.56512c-.004.067-.02.13055-.02.19861v17.63627h8v-17.8349l6-9.5651z" fill="#17afdc"/><path d="m5 30a7 7 0 0 1 14 0" fill="#fccc38"/><path d="m9 29a3 3 0 0 1 6 0" fill="#fccc38"/><path d="m26.78027 32.374a1.00145 1.00145 0 0 0 -.78027-.374h-24v2h22.75293l-1.61426 7.26758-4.09308 1.637-3.59832-1.79913-.89454 1.78906 3.05457 1.52728-3.47546 6.0821a.99559.99559 0 0 0 -.11231.69238l2 10 1.96094-.39258-1.92676-9.63279 3.6416-6.37207 4.67578-1.87012a1.00415 1.00415 0 0 0 .60547-.71191l2-9a1.00341 1.00341 0 0 0 -.19629-.8428z"/><path d="m43.92773 16.999-2 .002.00348 3.69665a19.00311 19.00311 0 0 0 -24.13336.54553l1.30664 1.51368a16.99723 16.99723 0 0 1 21.97571-.16968l-3.47473 1.49389.78906 1.8379 4.9336-2.1211a1 1 0 0 0 .60546-.91992z"/><path d="m62 32h-6v-16.57715l5.84668-9.291a1 1 0 0 0 -.30078-1.37012l-2.4541-1.59962a1.00086 1.00086 0 0 0 -1.39258.30566l-3.0625 4.86623a4.00029 4.00029 0 0 0 -7.27344 0l-3.0625-4.86621a1.00086 1.00086 0 0 0 -1.39258-.30566l-2.4541 1.59959a1 1 0 0 0 -.30078 1.37012l5.84668 9.29101v16.57715h-8a.99989.99989 0 0 0 -.97656 1.2168l2 9a1.00415 1.00415 0 0 0 .60547.71191l4.72754 1.89063 4.54492 6.36328-2.85937 9.53027 1.916.57422 3-10a.99985.99985 0 0 0 -.14453-.86816l-5-7a.9988.9988 0 0 0 -.44239-.34766l-4.50976-1.80371-1.61425-7.26758h22.75293zm-8-16.63672v16.63672h-2v-9h-2v9h-2l.001-16.61426c.0039-.02539.01562-.13672.0166-.16308a.99572.99572 0 0 0 -.15137-.58985l-5.49611-8.73242.77929-.50781 4.76172 7.56542a.99865.99865 0 0 0 1.32813.34375l.11523-.06543a.89318.89318 0 0 1 .08887-.04981 1 1 0 0 0 .26172-1.67871 1.96746 1.96746 0 0 1 -.70508-1.5078 2 2 0 0 1 4 0 1.96746 1.96746 0 0 1 -.70508 1.50781 1.00008 1.00008 0 0 0 -.32715.9043 1.01768 1.01768 0 0 0 .58789.77344 1.01213 1.01213 0 0 1 .08985.05078l.11523.06543a.99816.99816 0 0 0 1.32813-.34375l4.76172-7.56543.77929.50781-5.49609 8.73242a.99572.99572 0 0 0 -.15137.58985c.00098.02634.01367.11523.01758.14062z"/><path d="m8.59961 41.7998-1.19922-1.5996 4-3a.99713.99713 0 0 1 .59961-.2002h4v2h-3.667z"/><path d="m5.23535 60.64453-3-3.55566a.9961.9961 0 0 1 -.23535-.64453v-4.44434h2v4.0791l2.76465 3.27637z"/><path d="m2 48h2v2h-2z"/><path d="m60 37h2v2h-2z"/><path d="m60 58.02637h2v2.96484h-2z"/><path d="m53.10547 47.44727-2.83008-5.66016-4.64648-1.8584.74218-1.85742 5 2a1.00071 1.00071 0 0 1 .52344.48144l3 6z"/><path d="m20 30h-2a6 6 0 0 0 -12 0h-2a8 8 0 0 1 16 0z"/><path d="m16 30h-2a2 2 0 0 0 -4 0h-2a4 4 0 0 1 8 0z"/></svg>
