<?xml version="1.0"?>
<svg xmlns="http://www.w3.org/2000/svg" viewBox="0 0 64 64" width="512" height="512"><path d="m48 19.73978a2 2 0 0 0 -2 2v5h-3v-.5a2.5 2.5 0 1 0 -5 0v.5h-5.02747a5 5 0 1 0 -5.94506 0h-5.02747v-.5a2.5 2.5 0 1 0 -5 0v.5h-3v-5a2 2 0 1 0 -4 0v6.48822a2.51178 2.51178 0 0 0 2.51172 2.51178h11.48828v30h12v-30h11.12811a2.872 2.872 0 0 0 2.87189-2.87195v-6.12805a2 2 0 0 0 -2-2z" fill="#17afdc"/><path d="m5 2.74v6l6-3z" fill="#f4393d"/><path d="m56 1.74 1.18 3.819h3.82l-3.09 2.361 1.18 3.82-3.09-2.361-3.09 2.361 1.18-3.82-3.09-2.361h3.82z" fill="#f4393d"/><path d="m51 44.73978h6a0 0 0 0 1 0 0v5a3 3 0 0 1 -3 3 3 3 0 0 1 -3-3v-5a0 0 0 0 1 0 0z" fill="#fccc38"/><path d="m57 60.74h-6l1-4h4z" fill="#fccc38"/><path d="m51 45.73978v5a4 4 0 0 1 -4-4v-1z" fill="#fccc38"/><path d="m57 45.73978h4a0 0 0 0 1 0 0v1a4 4 0 0 1 -4 4 0 0 0 0 1 0 0v-5a0 0 0 0 1 0 0z" fill="#fccc38"/><path d="m48 18.73975a3.00328 3.00328 0 0 0 -3 3v4h-1.03516a3.50085 3.50085 0 0 0 -6.92968 0h-1.84375a5.91678 5.91678 0 0 0 .80859-3 6 6 0 0 0 -12 0 5.91678 5.91678 0 0 0 .80859 3h-1.84375a3.50085 3.50085 0 0 0 -6.92968 0h-1.03516v-4a3 3 0 0 0 -6 0v6.48825a3.5155 3.5155 0 0 0 3.51172 3.51172h10.48828v29a.99974.99974 0 0 0 1 1h12a.99974.99974 0 0 0 1-1v-29h10.12793a3.87653 3.87653 0 0 0 3.87207-3.87204v-6.12793a3.00328 3.00328 0 0 0 -3-3zm1 9.12793a1.87424 1.87424 0 0 1 -1.87207 1.87207h-11.12793a.99974.99974 0 0 0 -1 1v29h-4v-16h-2v16h-4v-29a.99974.99974 0 0 0 -1-1h-11.48828a1.51321 1.51321 0 0 1 -1.51172-1.51175v-6.48825a1 1 0 0 1 2 0v5a.99974.99974 0 0 0 1 1h3a.99974.99974 0 0 0 1-1v-.5a1.5 1.5 0 0 1 3 0v.5a.99974.99974 0 0 0 1 1h5.02734a1 1 0 0 0 .59766-1.80175 3.96194 3.96194 0 0 1 -1.625-3.19825 4 4 0 0 1 8 0 3.96194 3.96194 0 0 1 -1.625 3.19825 1 1 0 0 0 .59766 1.80176h5.02734a.99974.99974 0 0 0 1-1v-.5a1.5 1.5 0 0 1 3 0v.5a.99974.99974 0 0 0 1 1h3a.99974.99974 0 0 0 1-1v-5a1 1 0 0 1 2 0z"/><path d="m11.44727 4.84521-6-3a1.00039 1.00039 0 0 0 -1.44727.89454v11h2v-4.38184l5.44727-2.72363a1.00022 1.00022 0 0 0 0-1.78907zm-5.44727 2.27637v-2.76367l2.76367 1.38184z"/><path d="m61 44.73975h-3a.99974.99974 0 0 0 -1-1h-6a.99974.99974 0 0 0 -1 1h-3a.99974.99974 0 0 0 -1 1v1a4.98962 4.98962 0 0 0 4.53052 4.95251 3.99143 3.99143 0 0 0 2.46948 1.90552v2.142h-1a.99972.99972 0 0 0 -.96973.75732l-1 4a.99985.99985 0 0 0 .96973 1.24265h6a.99985.99985 0 0 0 .96973-1.24268l-1-4a.99972.99972 0 0 0 -.96973-.75732h-1v-2.142a3.99143 3.99143 0 0 0 2.46948-1.90552 4.98962 4.98962 0 0 0 4.53052-4.95248v-1a.99974.99974 0 0 0 -1-1zm-13 2h2v2.81567a2.995 2.995 0 0 1 -2-2.81567zm7.71875 13h-3.4375l.5-2h2.4375zm.28125-10a2 2 0 0 1 -4 0v-4h4zm2-.18427v-2.81573h2a2.99507 2.99507 0 0 1 -2 2.81573z"/><g fill="#fccc38"><path d="m47.74805 4.14063-1.832-.80176a11.03963 11.03963 0 0 1 1.2832-2.19971l1.59961 1.20117a9.047 9.047 0 0 0 -1.05081 1.8003z"/><path d="m56 18.73975a11.01245 11.01245 0 0 1 -11-11 11.14163 11.14163 0 0 1 .21973-2.19875l1.96093.39746a9.00639 9.00639 0 0 0 8.81934 10.80129 8.92331 8.92331 0 0 0 5.40039-1.79932l1.20117 1.59863a10.90531 10.90531 0 0 1 -6.60156 2.20069z"/><path d="m6 18.73975a10.9267 10.9267 0 0 1 -4.40039-.91553l.80078-1.833a9.005 9.005 0 0 0 12.59961-8.25147 9.05286 9.05286 0 0 0 -.18066-1.80127l1.96093-.39748a11.14163 11.14163 0 0 1 .21973 2.19875 11.01245 11.01245 0 0 1 -11 11z"/><path d="m14.252 4.14063a9.047 9.047 0 0 0 -1.05078-1.8003l1.59961-1.20117a11.03963 11.03963 0 0 1 1.28317 2.19971z"/><path d="m17.53223 62.35938-1.57032-1.23926a9.44317 9.44317 0 0 0 1.124-1.8086l1.80664.85645a11.474 11.474 0 0 1 -1.36032 2.19141z"/><path d="m19.67188 57.97754-1.94336-.47554a9.5015 9.5015 0 0 0 -15.10938-9.72368l-1.23828-1.57032a11.38226 11.38226 0 0 1 7.11914-2.46825 11.5092 11.5092 0 0 1 11.17188 14.23779z"/><path d="m40.48535 58.09668a15.00378 15.00378 0 0 1 22.05078-18.02441l-1.07226 1.6875a13.00766 13.00766 0 0 0 -19.11133 15.623z"/><path d="m43.251 62.66211a14.99593 14.99593 0 0 1 -1.74414-2.42236l1.73242-1a13.00423 13.00423 0 0 0 1.50972 2.09814z"/></g><path d="m42 18.73975h2v2h-2z"/><path d="m38 18.73975h2v2h-2z"/><path d="m21 18.73975h2v2h-2z"/><path d="m17 18.73975h2v2h-2z"/><circle cx="9" cy="54.86989" fill="#ff7f00" r="6"/><path d="m9 47.87012a7 7 0 1 0 7 7 7.00818 7.00818 0 0 0 -7-7zm-5 7a5.00837 5.00837 0 0 1 4-4.89893v1.04718a2.53953 2.53953 0 0 0 -2 2.35175c0 1.82422 1.73438 2.23 2.77148 2.47217.95313.22265 1.22852.3413 1.22852.52734 0 .17627-.37988.50049-1 .50049s-1-.32373-1-.5h-2a2.53952 2.53952 0 0 0 2 2.35174v1.04714a5.00836 5.00836 0 0 1 -4-4.89888zm6 4.89888v-1.04714a2.53972 2.53972 0 0 0 2-2.35223c0-1.82666-1.73633-2.23242-2.77344-2.47461-.95117-.22266-1.22656-.34033-1.22656-.5249 0-.17627.37988-.5 1-.5s1 .32373 1 .5h2a2.53953 2.53953 0 0 0 -2-2.35175v-1.04718a4.99993 4.99993 0 0 1 0 9.79781z"/></svg>
