<?xml version="1.0" encoding="iso-8859-1"?>
<!-- Generator: Adobe Illustrator 19.0.0, SVG Export Plug-In . SVG Version: 6.00 Build 0)  -->
<svg version="1.1" id="Capa_1" xmlns="http://www.w3.org/2000/svg" xmlns:xlink="http://www.w3.org/1999/xlink" x="0px" y="0px"
	 viewBox="0 0 512.001 512.001" style="enable-background:new 0 0 512.001 512.001;" xml:space="preserve">
<g>
	<path style="fill:#7387BE;" d="M306.193,110.046c-13.358,0.465-26.866-4.402-37.063-14.617
		c-13.994-14.018-17.948-34.284-11.866-51.835L114.857,186.001c30.826,10.124,53.42,38.436,55.043,72.236l142.242-142.242
		L306.193,110.046z"/>
	<path style="fill:#7387BE;" d="M90.069,342C66.142,341.979,44.675,331.444,30,314.783V502h120V314.991
		C135.356,331.566,113.946,342.02,90.069,342z"/>
</g>
<path style="fill:#EEEEEE;" d="M339.779,95.429c-19.509,19.543-51.14,19.543-70.65,0c-19.509-19.543-19.509-51.228,0-70.771
	s51.141-19.543,70.65,0S359.289,75.886,339.779,95.429z"/>
<path style="fill:#D7D7E6;" d="M450.284,197.569c-15.621,15.621-40.948,15.621-56.568,0L382,185.853V249h80v-79.716
	C462,179.521,458.095,189.758,450.284,197.569L450.284,197.569z"/>
<rect x="352" y="249" style="fill:#898998;" width="140" height="40"/>
<path style="fill:#7387BE;" d="M450.284,141l-99.375-99.375c7.096,17.986,3.392,39.258-11.13,53.804
	c-9.313,9.329-21.388,14.193-33.588,14.616l87.524,87.524c15.621,15.621,40.948,15.621,56.568,0l0,0
	C465.905,181.948,465.905,156.621,450.284,141z"/>
<path style="fill:#EEEEEE;" d="M89.931,182C45.749,181.962,9.962,217.748,10,261.931S45.886,341.962,90.069,342
	s79.969-35.748,79.931-79.931S134.114,182.038,89.931,182z"/>
<path style="fill:#D7D7E6;" d="M89.966,222C67.874,221.981,49.981,239.874,50,261.966c0.019,22.091,17.943,40.015,40.034,40.034
	s39.985-17.874,39.966-39.966S112.057,222.019,89.966,222z"/>
<path d="M90.025,312c0.016,0,0.029,0,0.044,0c13.341,0,25.881-5.192,35.31-14.621c9.44-9.439,14.632-21.995,14.621-35.354
	c-0.024-27.56-22.465-50.001-50.025-50.025c-0.016,0-0.029,0-0.044,0c-13.341,0-25.881,5.192-35.31,14.621
	c-9.439,9.439-14.632,21.995-14.62,35.354C40.024,289.535,62.465,311.976,90.025,312z M68.913,240.911
	C74.383,235.444,81.87,232,89.957,232c16.552,0.014,30.029,13.491,30.043,30.043C120.014,278.172,106.057,292,90.043,292
	C73.491,291.986,60.014,278.509,60,261.957C59.993,253.866,63.445,246.377,68.913,240.911z"/>
<path d="M502,492c-5.51,0-10,4.49-10,10s4.49,10,10,10s10-4.49,10-10S507.51,492,502,492z"/>
<path d="M462,492H160V318.676c12.923-15.911,19.963-35.603,19.995-56.392l130.646-130.646L372,192.995V239h-20
	c-5.523,0-10,4.477-10,10v40c0,5.523,4.477,10,10,10h9.194l-27.002,33.753c-2.922,3.652-2.922,8.842,0,12.494
	c0,0,39.83,49.787,39.999,49.999c3.176,3.97,9.775,4.988,14.056,1.562c4.313-3.45,5.012-9.743,1.562-14.056L354.806,339l32-40H412
	v50c0,5.523,4.477,10,10,10s10-4.477,10-10v-50h25.194l32,40l-35.002,43.753c-3.449,4.311-2.751,10.602,1.558,14.053
	c4.023,3.221,10.611,2.752,14.059-1.559l40-50c2.922-3.652,2.922-8.842,0-12.494L482.806,299H492c5.523,0,10-4.477,10-10v-40
	c0-5.523-4.477-10-10-10h-20c0,0-0.128-71.811-0.362-72.657c-1.307-11.105-6.255-21.386-14.283-29.414L361.23,40.803
	c-2.852-8.487-7.635-16.461-14.373-23.211C335.531,6.248,320.473,0,304.454,0c-16.018,0-31.077,6.248-42.402,17.592
	c-5.998,6.009-10.445,12.988-13.364,20.434L111.965,174.75c-7.052-1.786-14.43-2.743-22.025-2.75h-0.08
	c-24.012,0-46.58,9.343-63.548,26.312C9.324,215.3-0.02,237.896,0,261.94c0.018,21.352,7.516,40.993,20,56.449V492H10
	c-5.51,0-10,4.49-10,10s4.49,10,10,10h452c5.51,0,10-4.49,10-10S467.51,492,462,492z M482,259v20H362v-20H482z M392,239v-26.724
	c8.854,6.65,19.424,9.985,30,9.985s21.147-3.335,30-9.985V239H392z M363.34,71.198l79.873,79.874
	c5.667,5.666,8.787,13.2,8.787,21.213s-3.121,15.547-8.787,21.213l0,0c-11.696,11.697-30.729,11.697-42.426,0l-76.003-76.002
	l1.523-1.523c7.61-2.98,14.598-7.517,20.549-13.478C355.701,93.634,361.191,82.671,363.34,71.198z M276.207,31.722
	C283.753,24.163,293.785,20,304.454,20c10.67,0,20.702,4.163,28.248,11.722c15.589,15.616,15.589,41.025,0,56.642
	c-7.546,7.559-17.578,11.722-28.248,11.722c-10.669,0-20.701-4.163-28.248-11.722C260.617,72.748,260.617,47.338,276.207,31.722z
	 M245.314,69.685c1.937,12.02,7.506,23.561,16.738,32.808c8.993,9.008,20.344,14.788,32.656,16.793L176.556,237.439
	c-2.484-8.699-6.251-16.863-11.074-24.281c0,0,36.227-36.227,36.268-36.268c3.854-3.854,3.83-10.29,0-14.14
	c-3.847-3.867-10.306-3.845-14.151,0l-34.871,34.879c-6.042-5.889-12.902-10.941-20.394-14.964L245.314,69.685z M40.454,212.454
	C53.646,199.262,71.189,192,89.86,192h0.062c38.608,0.033,70.044,31.47,70.078,70.078c0.016,18.694-7.248,36.263-20.454,49.468
	C126.355,324.738,108.811,332,90.14,332h-0.062C51.47,331.967,20.033,300.53,20,261.922
	C19.984,243.228,27.248,225.66,40.454,212.454z M140,492h-40v-70c0-5.51-4.49-10-10-10s-10,4.49-10,10v70H40V336.718
	C54.327,346.35,71.552,351.984,90.06,352h0.08c18.018-0.001,35.223-5.262,49.86-15.058V492z"/>
<path d="M80,382c0,5.51,4.49,10,10,10s10-4.49,10-10s-4.49-10-10-10S80,376.49,80,382z"/>
<circle cx="90" cy="262" r="10"/>
<circle cx="223" cy="142" r="10"/>
<circle cx="304" cy="60" r="10"/>
<g>
</g>
<g>
</g>
<g>
</g>
<g>
</g>
<g>
</g>
<g>
</g>
<g>
</g>
<g>
</g>
<g>
</g>
<g>
</g>
<g>
</g>
<g>
</g>
<g>
</g>
<g>
</g>
<g>
</g>
</svg>
