<?xml version="1.0" encoding="iso-8859-1"?>
<!-- Generator: Adobe Illustrator 19.0.0, SVG Export Plug-In . SVG Version: 6.00 Build 0)  -->
<svg version="1.1" id="Capa_1" xmlns="http://www.w3.org/2000/svg" xmlns:xlink="http://www.w3.org/1999/xlink" x="0px" y="0px"
	 viewBox="0 0 512 512" style="enable-background:new 0 0 512 512;" xml:space="preserve">
<rect x="10" y="50" style="fill:#72D8FF;" width="332" height="292"/>
<polygon style="fill:#D7D7E6;" points="136,182 176,222 216,182 216,90 136,90 "/>
<polygon style="fill:#898998;" points="116,90 136,90 216,90 236,90 236,50 116,50 "/>
<polygon style="fill:#D7D7E6;" points="66,302 66,342 136,342 216,342 286,342 286,302 "/>
<rect x="10" y="342" style="fill:#7387BE;" width="492" height="160"/>
<rect x="342" y="462" style="fill:#D7D7E6;" width="160" height="40"/>
<rect x="342" y="342" style="fill:#E6E6E6;" width="160" height="80"/>
<path style="fill:#FF5A5A;" d="M342,182v160h160V182H342z"/>
<rect x="382" y="222" style="fill:#E6E6E6;" width="80" height="80"/>
<rect x="136" y="342" style="fill:#FF5A5A;" width="80" height="80"/>
<path style="fill:#7387BE;" d="M302,10H50c-22.091,0-40,17.909-40,40h332C342,27.909,324.091,10,302,10z"/>
<g>
	<rect x="422" y="142" style="fill:#898998;" width="40" height="40"/>
	<rect x="342" y="62" style="fill:#898998;" width="40" height="40"/>
</g>
<g>
	<path style="fill:#D7D7E6;" d="M422,102v40h40V82c0-11.046-8.954-20-20-20h-60v40H422z"/>
	<rect x="10" y="462" style="fill:#D7D7E6;" width="40" height="40"/>
</g>
<path d="M382,212c-5.523,0-10,4.477-10,10v80c0,5.523,4.477,10,10,10h80c5.523,0,10-4.477,10-10v-80c0-5.523-4.477-10-10-10H382z
	 M452,292h-60v-60h60V292z"/>
<path d="M462,392c5.52,0,10-4.48,10-10s-4.48-10-10-10s-10,4.48-10,10S456.48,392,462,392z"/>
<path d="M382,392c5.52,0,10-4.48,10-10s-4.48-10-10-10s-10,4.48-10,10S376.48,392,382,392z"/>
<path d="M422,392c5.52,0,10-4.48,10-10s-4.48-10-10-10s-10,4.48-10,10S416.48,392,422,392z"/>
<path d="M502,172h-30V82c0-16.542-13.458-30-30-30c0,0-89.982,0-90,0c1.229,0-1.996-16.084-2.456-17.495
	C343.016,14.506,323.431,0,302,0H50C22.43,0,0,22.43,0,50v452c0,5.523,4.477,10,10,10h492c5.523,0,10-4.477,10-10V182
	C512,176.477,507.523,172,502,172z M352,172v-60h60v60H352z M432,152h20v20h-20V152z M452,82v50h-20v-30c0-5.523-4.477-10-10-10h-30
	V72h50C447.514,72,452,76.486,452,82z M372,72v20h-20V72H372z M50,20h252c13.038,0,24.159,8.359,28.287,20H21.713
	C25.841,28.359,36.962,20,50,20z M146,177.762v-22.644l60-45.094v22.843L146,177.762z M206,157.847v20.011l-30,30l-15.767-15.767
	L206,157.847z M146,130.1V100h40.05L146,130.1z M126,80V60h100v20H126z M20,60h86v30c0,5.523,4.477,10,10,10h10v82
	c0,2.652,1.054,5.196,2.929,7.071L166,226.143c0,0,0,35.664,0,35.857c0,12.812,20,13.072,20,0.001v-35.857l37.071-37.071
	c1.875-1.875,2.929-4.419,2.929-7.071v-82h10c5.523,0,10-4.477,10-10V60h86v272h-36v-30c0-5.523-4.477-10-10-10H66
	c-5.523,0-10,4.477-10,10v30H20V60z M76,332v-20h200v20H76z M206,352v60h-60v-60H206z M40,492H20v-20h20V492z M492,492H352v-20h140
	V492z M492,452H236c-5.51,0-10,4.49-10,10s4.49,10,10,10h96v20H60v-20h96c5.51,0,10-4.49,10-10s-4.49-10-10-10H20V352h106v70
	c0,5.523,4.477,10,10,10h80c5.523,0,10-4.477,10-10v-70h106v70c0,5.523,4.477,10,10,10h150V452z M492,412H352v-60h140V412z M492,332
	H352V192h140V332z"/>
<path d="M196,452c-5.51,0-10,4.49-10,10s4.49,10,10,10s10-4.49,10-10S201.51,452,196,452z"/>
<g>
</g>
<g>
</g>
<g>
</g>
<g>
</g>
<g>
</g>
<g>
</g>
<g>
</g>
<g>
</g>
<g>
</g>
<g>
</g>
<g>
</g>
<g>
</g>
<g>
</g>
<g>
</g>
<g>
</g>
</svg>
