<?xml version="1.0" encoding="iso-8859-1"?>
<!-- Generator: Adobe Illustrator 19.0.0, SVG Export Plug-In . SVG Version: 6.00 Build 0)  -->
<svg version="1.1" id="Capa_1" xmlns="http://www.w3.org/2000/svg" xmlns:xlink="http://www.w3.org/1999/xlink" x="0px" y="0px"
	 viewBox="0 0 512 512" style="enable-background:new 0 0 512 512;" xml:space="preserve">
<rect x="182.01" y="160" style="fill:#D7D7E6;" width="39.998" height="40"/>
<rect x="222.01" y="140" style="fill:#E6E6E6;" width="39.998" height="80"/>
<polygon style="fill:#898998;" points="42.018,462 202.012,462 162.014,502 82.017,502 "/>
<polygon style="fill:#D7D7E6;" points="202.012,462 42.018,462 82.017,422 162.014,422 "/>
<polygon style="fill:#898998;" points="42.018,382 202.012,382 162.014,422 82.017,422 "/>
<polygon style="fill:#D7D7E6;" points="202.012,382 42.018,382 82.017,342 162.014,342 "/>
<polygon style="fill:#898998;" points="42.018,302 202.012,302 162.014,342 82.017,342 "/>
<polygon style="fill:#D7D7E6;" points="202.012,302 42.018,302 82.017,262 162.014,262 "/>
<rect x="102.02" y="222" style="fill:#898998;" width="39.998" height="40"/>
<path style="fill:#72D8FF;" d="M102.016,222h39.998v-22h39.998v-40h-59.998c-11.045,0-19.999,8.954-19.999,20L102.016,222
	L102.016,222z"/>
<rect x="332.01" y="90" style="fill:#898998;" width="100" height="40"/>
<path style="fill:#7387BE;" d="M262.01,130v372H502V130H262.01z"/>
<g>
	<path style="fill:#72D8FF;" d="M362.006,90h39.998V50H502V10H382.005c-11.045,0-19.999,8.954-19.999,20V90z"/>
	<rect x="322.01" y="250" style="fill:#72D8FF;" width="120" height="52"/>
</g>
<g>
	<rect x="402" y="170" style="fill:#FF5A5A;" width="39.998" height="40"/>
	<rect x="322.01" y="170" style="fill:#FF5A5A;" width="39.998" height="40"/>
</g>
<g>
	<path style="fill:#E6E6E6;" d="M342.007,382c-11.045,0-19.999,8.954-19.999,20v20h39.998v-20
		C362.006,390.954,353.052,382,342.007,382z"/>
	<path style="fill:#E6E6E6;" d="M422.004,382c-11.045,0-19.999,8.954-19.999,20v20h39.998v-20
		C442.003,390.954,433.049,382,422.004,382z"/>
</g>
<path d="M10,492c-5.52,0-10,4.49-10,10s4.48,10,10,10c5.51,0,10-4.49,10-10C19.999,496.49,15.509,492,10,492z"/>
<path d="M402.004,452c-5.52,0-10,4.48-10,10s4.479,10,10,10c5.519,0,10-4.48,10-10S407.524,452,402.004,452z"/>
<path d="M362.006,452c-5.52,0-10,4.48-10,10s4.479,10,10,10c5.519,0,10-4.48,10-10S367.525,452,362.006,452z"/>
<path d="M442.003,452c-5.52,0-10,4.48-10,10s4.479,10,10,10c5.519,0,10-4.48,10-10S447.522,452,442.003,452z"/>
<path d="M322.007,472c5.519,0,10-4.48,10-10s-4.48-10-10-10s-10,4.48-10,10S316.487,472,322.007,472z"/>
<path d="M402.004,220h39.998c5.522,0,10-4.477,10-10v-40c0-5.523-4.477-10-10-10h-39.998c-5.522,0-10,4.477-10,10v40
	C392.005,215.523,396.482,220,402.004,220z M412.004,180h19.999v20h-19.999V180z"/>
<path d="M322.007,312h119.995c5.522,0,10-4.477,10-10v-52c0-5.523-4.477-10-10-10H322.007c-5.522,0-10,4.477-10,10v52
	C312.008,307.523,316.485,312,322.007,312z M332.007,260h99.996v32h-99.996V260z"/>
<path d="M322.007,220h39.998c5.522,0,10-4.477,10-10v-40c0-5.523-4.477-10-10-10h-39.998c-5.522,0-10,4.477-10,10v40
	C312.008,215.523,316.485,220,322.007,220z M332.007,180h19.999v20h-19.999V180z"/>
<path d="M322.007,352h79.997c5.51,0,10-4.49,10-10s-4.49-10-10-10h-79.997c-5.51,0-10,4.49-10,10
	C312.008,347.51,316.498,352,322.007,352z"/>
<path d="M442.003,332c-5.51,0-10,4.49-10,10s4.49,10,10,10s10-4.49,10-10C452.002,336.49,447.512,332,442.003,332z"/>
<path d="M322.007,432h39.998c5.522,0,10-4.477,10-10v-20c0-16.542-13.457-30-29.999-30s-29.999,13.458-29.999,30v20
	C312.008,427.523,316.485,432,322.007,432z M332.007,402c0-5.514,4.486-10,10-10s10,4.486,10,10v10h-19.999v-10H332.007z"/>
<path d="M422.004,372c-16.541,0-29.999,13.458-29.999,30v20c0,5.523,4.477,10,10,10h39.998c5.522,0,10-4.477,10-10v-20
	C452.002,385.458,438.545,372,422.004,372z M432.003,412h-19.999v-10c0-5.514,4.486-10,10-10s10,4.486,10,10v10H432.003z"/>
<path d="M502,60c5.522,0,10-4.477,10-10V10c0-5.523-4.477-10-10-10H382.005c-16.541,0-29.999,13.458-29.999,30v50h-19.999
	c-5.522,0-10,4.477-10,10v30H262.01c-5.523,0-10,4.477-10,10h-29.999c-5.523,0-10,4.477-10,10v10h-89.996
	c-16.541,0-29.999,13.458-29.999,30v72h-10c-2.652,0-5.196,1.054-7.071,2.929l-39.998,40c-0.015,0.015-0.026,0.033-0.041,0.048
	c-3.791,3.843-3.777,10.275,0.041,14.095L67.875,342l-32.927,32.929c-0.015,0.015-0.027,0.033-0.042,0.048
	c-3.717,3.783-3.723,10.276,0,14.046c0.015,0.015,0.026,0.033,0.042,0.049L67.875,422c0,0-32.88,32.881-32.927,32.929
	c-3.761,3.761-3.781,10.298-0.052,14.084c0.019,0.019,0.033,0.04,0.052,0.058L57.875,492c0,0-7.81,0-7.877,0
	c-12.784,0-13.068,20,0,20c0,0,451.982,0,452.002,0c5.522,0,10-4.477,10-10V130c0-5.523-4.477-10-10-10h-59.998V90
	c0-5.523-4.477-10-10-10h-19.999V60H502z M192.013,170h19.999v20h-19.999V170z M112.016,180c0-5.514,4.486-10,10-10h49.998v20
	h-29.999c-5.523,0-10,4.477-10,10v12h-19.999L112.016,180L112.016,180z M112.016,232h19.999v20h-19.999V232z M86.159,272h71.713
	l19.999,20H66.16L86.159,272z M66.16,312h111.711l-19.999,20H86.159L66.16,312z M86.159,352h71.713l19.999,20H66.16L86.159,352z
	 M66.16,392h111.711l-19.999,20H86.159L66.16,392z M86.159,432h71.713l19.999,20H66.16L86.159,432z M66.16,472h111.711l-19.999,20
	H86.159L66.16,472z M252.01,496h-65.855l20.952-20.953c0.13,0.056,2.117-2.297,2.281-2.488c3.435-3.985,3.506-9.818-0.306-13.63
	L176.156,426l32.927-32.929c0.014-0.014,0.025-0.031,0.038-0.045c3.599-3.855,3.757-10.234,0.003-14.049
	c-0.015-0.015-0.026-0.033-0.042-0.049L176.156,346c0,0,32.902-32.903,32.927-32.929c3.794-3.794,3.809-10.279,0.043-14.093
	c-0.016-0.016-0.027-0.034-0.043-0.05l-39.998-40c-1.875-1.875-4.419-2.929-7.071-2.929h-10v-42h59.998v10c0,5.523,4.477,10,10,10
	h29.999V496H252.01z M252.01,210h-19.999v-60h19.999L252.01,210L252.01,210z M492.001,140v352H272.009V140H492.001z M422.004,100v20
	h-79.997v-20H422.004z M402.004,40c-5.522,0-10,4.477-10,10v30h-19.999V30c0-5.514,4.486-10,10-10h109.996v20H402.004z"/>
<g>
</g>
<g>
</g>
<g>
</g>
<g>
</g>
<g>
</g>
<g>
</g>
<g>
</g>
<g>
</g>
<g>
</g>
<g>
</g>
<g>
</g>
<g>
</g>
<g>
</g>
<g>
</g>
<g>
</g>
</svg>
