<?xml version="1.0" encoding="iso-8859-1"?>
<!-- Generator: Adobe Illustrator 19.0.0, SVG Export Plug-In . SVG Version: 6.00 Build 0)  -->
<svg version="1.1" id="Capa_1" xmlns="http://www.w3.org/2000/svg" xmlns:xlink="http://www.w3.org/1999/xlink" x="0px" y="0px"
	 viewBox="0 0 512 512" style="enable-background:new 0 0 512 512;" xml:space="preserve">
<rect x="50" y="10" style="fill:#D7D7E6;" width="100" height="40"/>
<rect x="80" y="50" style="fill:#898998;" width="40" height="40"/>
<path style="fill:#D7D7E6;" d="M371.502,422H210l-40-40H97.843L170,462h205.327c-3.424-7.98-5.327-16.767-5.327-26
	C370,431.194,370.527,426.514,371.502,422z"/>
<path style="fill:#FF5A5A;" d="M322,90H10v292h160l40,40h252V230C462,152.68,399.32,90,322,90z"/>
<g>
	<path style="fill:#898998;" d="M461.93,375.487c-8.002-3.523-16.781-5.487-25.929-5.487C400.229,369.999,370,400.275,370,436
		c0,35.521,29.805,66,66,66c36.45,0,66-29.549,66-65.999C502,409.288,485.268,385.76,461.93,375.487z"/>
	<rect x="26" y="382" style="fill:#898998;" width="40" height="120"/>
</g>
<g>
	<rect x="50" y="130" style="fill:#72D8FF;" width="80" height="80"/>
	<rect x="170" y="130" style="fill:#72D8FF;" width="80" height="80"/>
	<path style="fill:#72D8FF;" d="M390,200c0-27.614-22.386-50-50-50l0,0c-27.614,0-50,22.386-50,50v50h100V200z"/>
</g>
<path style="fill:#D7D7E6;" d="M450.192,422.08c-3.662-3.728-8.721-6.079-14.191-6.08C425.439,415.999,416,425.161,416,436
	c0,11.046,8.954,20,20,20c11.045,0,20-8.954,20-19.999C456,430.653,453.76,425.712,450.192,422.08z"/>
<path d="M130,240H50c-5.522,0-10,4.477-10,10s4.478,10,10,10h80c5.522,0,10-4.477,10-10S135.522,240,130,240z"/>
<path d="M250,240h-80c-5.522,0-10,4.477-10,10s4.478,10,10,10h80c5.522,0,10-4.477,10-10S255.522,240,250,240z"/>
<path d="M110,280c-5.521,0-10,4.48-10,10s4.479,10,10,10c5.52,0,10-4.48,10-10S115.52,280,110,280z"/>
<path d="M70,280c-5.521,0-10,4.48-10,10s4.479,10,10,10c5.52,0,10-4.48,10-10S75.52,280,70,280z"/>
<path d="M230,280c-5.521,0-10,4.48-10,10s4.479,10,10,10c5.52,0,10-4.48,10-10S235.52,280,230,280z"/>
<path d="M190,280c-5.521,0-10,4.48-10,10s4.479,10,10,10c5.52,0,10-4.48,10-10S195.52,280,190,280z"/>
<path d="M130,120H50c-5.522,0-10,4.477-10,10v80c0,5.523,4.478,10,10,10h80c5.522,0,10-4.477,10-10v-80
	C140,124.477,135.522,120,130,120z M120,200h-20v-18c0-5.523-4.478-10-10-10s-10,4.477-10,10v18H60v-60h60V200z"/>
<path d="M250,120h-80c-5.522,0-10,4.477-10,10v80c0,5.523,4.478,10,10,10h80c5.522,0,10-4.477,10-10v-80
	C260,124.477,255.522,120,250,120z M240,200h-20v-18c0-5.523-4.478-10-10-10s-10,4.477-10,10v18h-20v-60h60V200z"/>
<path d="M400,250v-50c0-33.084-26.916-60-60-60s-60,26.916-60,60v50c0,5.523,4.478,10,10,10h100C395.522,260,400,255.523,400,250z
	 M380,240h-27.339l7.068-29.684c1.278-5.373-2.04-10.765-7.412-12.044c-5.371-1.28-10.766,2.039-12.045,7.412L332.101,240H300v-40
	c0-22.056,17.944-40,40-40s40,17.944,40,40V240z"/>
<path d="M472,369.086V230c0-82.71-67.29-150-150-150H130V60h20c5.522,0,10-4.477,10-10V10c0-5.523-4.478-10-10-10H50
	c-5.522,0-10,4.477-10,10v40c0,5.523,4.478,10,10,10h20v20H10C4.478,80,0,84.477,0,90c0,0,0,290.717,0,291.996
	C0,391.381,9.001,392,16,392v100c0,0-5.971,0-6,0c-12.615,0-13.007,20,0,20c0,0,71.657,0,71.999,0c12.834,0,12.999-20,0.001-20h-6
	V392h17.396l69.178,76.698C164.471,470.8,167.169,472,170,472h199.085c12.854,23.795,38.025,40,66.915,40c41.906,0,76-34.093,76-76
	C512,407.111,495.795,381.939,472,369.086z M60,40V20h80v20H60z M110,60v20H90V60H110z M56,492H36V392h20V492z M174.447,452
	l-54.118-60h45.528l37.071,37.071c1.876,1.875,4.419,2.929,7.071,2.929h150.106c-0.069,1.325-0.106,2.658-0.106,4
	c0,5.489,0.599,10.838,1.709,16L174.447,452L174.447,452z M363.906,412h-89.348l-62.608-72h56.13c5.51,0,10-4.49,10-10
	s-4.49-10-10-10c0,0-77.874,0-78.08,0c-8.442,0-13.07,10.2-7.55,16.56l65.6,75.44h-33.908l-37.071-37.071
	C175.195,373.054,172.652,372,170,372H20V100h302c71.683,0,130,58.318,130,130v90c0,0-103.741,0-103.92,0c-12.288,0-13.137,20,0,20
	H452v21.709c-5.162-1.111-10.511-1.709-16-1.709C402.48,360,373.979,381.823,363.906,412z M436,492c-30.879,0-56-25.122-56-56
	s25.121-56,56-56s56,25.122,56,56S466.879,492,436,492z"/>
<path d="M436,406c-16.542,0-30,13.458-30,30s13.458,30,30,30s30-13.458,30-30S452.542,406,436,406z M436,446
	c-5.514,0-10-4.486-10-10s4.486-10,10-10s10,4.486,10,10S441.514,446,436,446z"/>
<path d="M308.08,320c-5.511,0-10,4.49-10,10s4.489,10,10,10c5.52,0,10-4.49,10-10S313.6,320,308.08,320z"/>
<g>
</g>
<g>
</g>
<g>
</g>
<g>
</g>
<g>
</g>
<g>
</g>
<g>
</g>
<g>
</g>
<g>
</g>
<g>
</g>
<g>
</g>
<g>
</g>
<g>
</g>
<g>
</g>
<g>
</g>
</svg>
