<?xml version="1.0" encoding="iso-8859-1"?>
<!-- Generator: Adobe Illustrator 19.0.0, SVG Export Plug-In . SVG Version: 6.00 Build 0)  -->
<svg version="1.1" id="Capa_1" xmlns="http://www.w3.org/2000/svg" xmlns:xlink="http://www.w3.org/1999/xlink" x="0px" y="0px"
	 viewBox="0 0 512 512" style="enable-background:new 0 0 512 512;" xml:space="preserve">
<rect x="10" y="244" style="fill:#E6E6E6;" width="80" height="258"/>
<rect x="90" y="462" style="fill:#898998;" width="40" height="40"/>
<rect x="130" y="244" style="fill:#E6E6E6;" width="80" height="258"/>
<rect x="210" y="462" style="fill:#898998;" width="40" height="40"/>
<rect x="250" y="244" style="fill:#E6E6E6;" width="80" height="258"/>
<path style="fill:#72D8FF;" d="M386,54H110c-44.183,0-80,35.817-80,80v56.365C35.885,186.959,42.712,185,50,185l0,0
	c7.288,0,14.115,1.959,20,5.365V134c0-22.091,17.909-40,40-40h40v96.365c5.885-3.406,12.712-5.365,20-5.365l0,0
	c7.288,0,14.115,1.959,20,5.365V94h80v96.365c5.885-3.406,12.712-5.365,20-5.365l0,0c7.288,0,14.115,1.959,20,5.365V94h56
	c22.091,0,40,17.909,40,40v80h60v-80C466,89.817,430.183,54,386,54z"/>
<g>
	<path style="fill:#BEF07D;" d="M70,190.365C64.115,186.959,57.288,185,50,185l0,0c-7.288,0-14.115,1.959-20,5.365
		C18.047,197.282,10,210.197,10,225v19h80v-19C90,210.197,81.953,197.282,70,190.365z"/>
	<path style="fill:#BEF07D;" d="M190,190.365c-5.885-3.406-12.712-5.365-20-5.365l0,0c-7.288,0-14.115,1.959-20,5.365
		c-11.953,6.917-20,19.832-20,34.635v19h80v-19C210,210.197,201.953,197.282,190,190.365z"/>
	<path style="fill:#BEF07D;" d="M310,190.365c-5.885-3.406-12.712-5.365-20-5.365l0,0c-7.288,0-14.115,1.959-20,5.365
		c-11.953,6.917-20,19.832-20,34.635v19h80v-19C330,210.197,321.953,197.282,310,190.365z"/>
</g>
<rect x="330" y="462" style="fill:#898998;" width="40" height="40"/>
<rect x="370" y="422" style="fill:#72D8FF;" width="132" height="80"/>
<polygon style="fill:#BEF07D;" points="466,382 406,382 370,422 502,422 "/>
<rect x="406" y="214" style="fill:#E6E6E6;" width="60" height="168"/>
<path d="M290,295c5.51,0,10-4.49,10-10s-4.49-10-10-10s-10,4.49-10,10S284.49,295,290,295z"/>
<path d="M290,375c5.51,0,10-4.49,10-10v-40c0-5.51-4.49-10-10-10s-10,4.49-10,10v40C280,370.51,284.49,375,290,375z"/>
<path d="M170,295c5.51,0,10-4.49,10-10s-4.49-10-10-10s-10,4.49-10,10S164.49,295,170,295z"/>
<path d="M170,375c5.51,0,10-4.49,10-10v-40c0-5.51-4.49-10-10-10s-10,4.49-10,10v40C160,370.51,164.49,375,170,375z"/>
<path d="M511.996,421.913c-0.001-0.081-0.01-0.161-0.012-0.242c-0.075-2.298-0.951-4.52-2.462-6.247
	c-0.032-0.036-0.056-0.078-0.088-0.114L476,378.163V134c0-49.626-40.374-90-90-90h-46V20h10c5.523,0,10-4.477,10-10s-4.477-10-10-10
	h-40c-5.523,0-10,4.477-10,10s4.477,10,10,10h10v24H110c-49.626,0-90,40.374-90,90v51.027C7.864,194.158,0,208.677,0,225v277
	c0,5.523,4.477,10,10,10h492c5.523,0,10-4.477,10-10v-80C512,421.971,511.996,421.943,511.996,421.913z M479.546,412h-87.093l18-20
	h51.093L479.546,412z M416,372V224h40v148H416z M40,134c0-38.598,31.402-70,70-70h276c38.598,0,70,31.402,70,70v70h-40v-70
	c0-27.57-22.43-50-50-50h-56c-5.523,0-10,4.477-10,10c0,0,0,81.921,0,82.006c0-1.898-18.902-0.176-20.095-0.09
	c0.161,0,0.095-73.829,0.095-81.917c0-5.523-4.477-10-10-10h-80c-5.523,0-10,4.477-10,10c0,0,0,81.912,0,82.003
	c-0.065-1.654-20-1.104-20,0.003c0-0.001,0-82.006,0-82.006c0-5.523-4.477-10-10-10h-40c-27.57,0-50,22.429-50,49.999
	c0,13.933,0.001,27.864,0.11,41.796c-6.862-0.588-13.285-1.181-20.11,0.21V134z M80,492H20V254h60V492z M80,234H20v-9
	c0-16.542,13.458-30,30-30s30,13.458,30,30V234z M120,492h-20v-20h20V492z M120,225v227h-20V225c0-16.323-7.864-30.842-20-39.973
	V134c0-16.542,13.458-30,30-30h30v81.027C127.864,194.158,120,208.677,120,225z M200,492h-60V254h60V492z M200,234h-60v-9
	c0-16.542,13.458-30,30-30s30,13.458,30,30V234z M240,492h-20v-20h20V492z M240,225v227h-20V225c0-16.323-7.864-30.842-20-39.973
	V104h60v81.027C247.864,194.158,240,208.677,240,225z M320,492h-60V254h60V492z M320,234h-60v-9c0-16.542,13.458-30,30-30
	s30,13.458,30,30V234z M360,492h-20v-20h20V492z M362.567,415.311c-0.032,0.036-0.056,0.077-0.088,0.113
	c-1.433,1.642-2.391,4.068-2.463,6.248c-0.003,0.081-0.011,0.16-0.012,0.241c0,0.029-0.004,0.057-0.004,0.087v30h-20V225
	c0-16.323-7.864-30.842-20-39.973V104h46c16.542,0,30,13.458,30,30v244.163L362.567,415.311z M492,492H380v-30v-30h112V492z"/>
<path d="M50,295c5.51,0,10-4.49,10-10s-4.49-10-10-10s-10,4.49-10,10S44.49,295,50,295z"/>
<path d="M50,375c5.51,0,10-4.49,10-10v-40c0-5.51-4.49-10-10-10s-10,4.49-10,10v40C40,370.51,44.49,375,50,375z"/>
<g>
</g>
<g>
</g>
<g>
</g>
<g>
</g>
<g>
</g>
<g>
</g>
<g>
</g>
<g>
</g>
<g>
</g>
<g>
</g>
<g>
</g>
<g>
</g>
<g>
</g>
<g>
</g>
<g>
</g>
</svg>
