<?xml version="1.0" encoding="iso-8859-1"?>
<!-- Generator: Adobe Illustrator 19.0.0, SVG Export Plug-In . SVG Version: 6.00 Build 0)  -->
<svg version="1.1" id="Capa_1" xmlns="http://www.w3.org/2000/svg" xmlns:xlink="http://www.w3.org/1999/xlink" x="0px" y="0px"
	 viewBox="0 0 512 512" style="enable-background:new 0 0 512 512;" xml:space="preserve">
<path style="fill:#898998;" d="M263.24,417.144c-2.329,0.904-4.784,1.356-7.24,1.356c-2.456,0-4.912-0.452-7.24-1.356L196,396.654
	V462h120v-65.346L263.24,417.144z"/>
<rect x="10" y="462" style="fill:#E6E6E6;" width="492" height="40"/>
<g>
	<rect x="10" y="422" style="fill:#F5C86E;" width="40" height="40"/>
	<rect x="462" y="422" style="fill:#F5C86E;" width="40" height="40"/>
</g>
<polygon style="fill:#D7D7E6;" points="338,180 178,180 218,220 298,220 "/>
<polygon style="fill:#898998;" points="298,220 218,220 218,311 256.4,336 298,311 "/>
<path style="fill:#F5C86E;" d="M10,10v170h492V10H10z"/>
<g>
	<circle style="fill:#E6E6E6;" cx="95" cy="95" r="45"/>
	<circle style="fill:#E6E6E6;" cx="225" cy="95" r="45"/>
</g>
<path style="fill:#D7D7E6;" d="M256,418.5c-2.456,0-4.912-0.452-7.24-1.356l-224.644-87.24l14.48-37.287L256,377.045l217.403-84.429
	l14.48,37.287l-224.644,87.24C260.911,418.048,258.456,418.5,256,418.5z"/>
<path d="M502,0H10C4.477,0,0,4.477,0,10v170c0,5.523,4.477,10,10,10h163.857L208,224.143V311c0,3.382,1.709,6.535,4.544,8.38
	l38.4,25c1.656,1.079,3.555,1.62,5.457,1.62c1.78,0,3.563-0.475,5.15-1.429l41.601-25C306.159,317.763,308,314.51,308,311v-86.857
	L342.143,190H502c5.522,0,10-4.477,10-10V10C512,4.477,507.522,0,502,0z M288,305.343l-31.388,18.863L228,305.578V230h60V305.343z
	 M293.857,210h-71.715l-20-20h111.715L293.857,210z M492,170H20V20h472V170z"/>
<path d="M502,412h-40c-5.522,0-10,4.477-10,10v30H326v-48.501c0,0,165.401-64.233,165.504-64.273
	c5.073-1.97,7.673-7.869,5.701-12.942c0,0-14.456-37.224-14.48-37.287c-1.939-4.992-7.971-7.63-12.941-5.702L256,366.317
	c0,0-213.601-82.952-213.783-83.023c-5.021-1.95-11.002,0.706-12.942,5.702c0,0-14.467,37.253-14.48,37.287
	c-1.95,5.022,0.718,11.007,5.702,12.942L186,403.499V452H60v-30c0-5.523-4.477-10-10-10H10c-5.523,0-10,4.477-10,10v80
	c0,5.523,4.477,10,10,10h492c5.522,0,10-4.477,10-10v-80C512,416.477,507.522,412,502,412z M472,432h20v20h-20V432z M44.298,305.558
	l208.082,80.809c2.329,0.904,4.911,0.904,7.24,0l208.082-80.809l7.24,18.644l-215.321,83.62c-2.32,0.9-4.924,0.901-7.241,0
	l-215.322-83.62L44.298,305.558z M206,411.265l39.14,15.2c3.477,1.35,7.13,2.035,10.86,2.035c3.729,0,7.383-0.685,10.86-2.035
	l39.14-15.2V452H206V411.265z M20,432h20v20H20V432z M492,492H20v-20h472V492z"/>
<path d="M95,149.974c14.084,0,28.168-5.361,38.891-16.083c21.444-21.445,21.444-56.337,0-77.782
	c-21.445-21.444-56.337-21.444-77.782,0c-21.444,21.445-21.444,56.337,0,77.782C66.832,144.613,80.916,149.974,95,149.974z
	 M70.251,70.251C77.075,63.428,86.037,60.016,95,60.016c5.736,0,11.468,1.405,16.643,4.199L87.929,87.929
	c-3.905,3.905-3.905,10.237,0,14.142c3.746,3.746,10.297,3.846,14.143,0l23.714-23.714c7.161,13.261,5.153,30.202-6.037,41.391
	c-13.646,13.646-35.851,13.646-49.497,0C56.604,106.102,56.604,83.898,70.251,70.251z"/>
<path d="M225,149.974c14.084,0,28.168-5.361,38.891-16.083c21.444-21.445,21.444-56.337,0-77.782
	c-21.444-21.444-56.336-21.444-77.782,0c-21.444,21.445-21.444,56.337,0,77.782C196.832,144.613,210.916,149.974,225,149.974z
	 M249.749,70.251c13.647,13.646,13.647,35.851,0,49.497c-13.646,13.646-35.851,13.646-49.497,0
	c-11.19-11.19-13.197-28.13-6.037-41.391c0,0,23.672,23.672,23.714,23.714c3.71,3.71,10.329,3.813,14.143,0
	c3.905-3.905,3.905-10.237,0-14.143l-23.714-23.714c5.175-2.794,10.907-4.199,16.643-4.199
	C233.963,60.016,242.925,63.428,249.749,70.251z"/>
<path d="M422,110c5.51,0,10-4.49,10-10V50c0-5.51-4.49-10-10-10s-10,4.49-10,10v50C412,105.51,416.49,110,422,110z"/>
<path d="M422,150c5.51,0,10-4.49,10-10s-4.49-10-10-10s-10,4.49-10,10S416.49,150,422,150z"/>
<path d="M382,110c5.51,0,10-4.49,10-10V50c0-5.51-4.49-10-10-10s-10,4.49-10,10v50C372,105.51,376.49,110,382,110z"/>
<path d="M382,150c5.51,0,10-4.49,10-10s-4.49-10-10-10s-10,4.49-10,10S376.49,150,382,150z"/>
<path d="M342,150c5.51,0,10-4.49,10-10s-4.49-10-10-10s-10,4.49-10,10S336.49,150,342,150z"/>
<path d="M342,110c5.51,0,10-4.49,10-10V50c0-5.51-4.49-10-10-10s-10,4.49-10,10v50C332,105.51,336.49,110,342,110z"/>
<g>
</g>
<g>
</g>
<g>
</g>
<g>
</g>
<g>
</g>
<g>
</g>
<g>
</g>
<g>
</g>
<g>
</g>
<g>
</g>
<g>
</g>
<g>
</g>
<g>
</g>
<g>
</g>
<g>
</g>
</svg>
