<?xml version="1.0" encoding="iso-8859-1"?>
<!-- Generator: Adobe Illustrator 19.0.0, SVG Export Plug-In . SVG Version: 6.00 Build 0)  -->
<svg version="1.1" id="Capa_1" xmlns="http://www.w3.org/2000/svg" xmlns:xlink="http://www.w3.org/1999/xlink" x="0px" y="0px"
	 viewBox="0 0 512 512" style="enable-background:new 0 0 512 512;" xml:space="preserve">
<path style="fill:#F5C86E;" d="M422,10H90c-44.183,0-80,35.817-80,80v412h492V90C502,45.817,466.183,10,422,10z"/>
<g>
	<circle style="fill:#75706B;" cx="125" cy="427" r="35"/>
	<circle style="fill:#75706B;" cx="387" cy="427" r="35"/>
</g>
<path style="fill:#E6E6E6;" d="M256,50C142.229,50,50,142.229,50,256v40h412v-40C462,142.229,369.771,50,256,50z"/>
<path style="fill:#75706B;" d="M256,256c-22.091,0-40,17.909-40,40h80C296,273.909,278.091,256,256,256z"/>
<path d="M422,0H90C40.374,0,0,40.374,0,90v412c0,5.523,4.477,10,10,10h492c5.523,0,10-4.477,10-10V90C512,40.374,471.626,0,422,0z
	 M492,492H20V90c0-38.598,31.402-70,70-70h332c38.598,0,70,31.402,70,70V492z"/>
<path d="M264.977,383.548c-1.236-4.023-6.41-5.28-10.079-5.28c-3.38,0-8.772,1.008-9.96,4.757l-23.185,75.474
	c-0.159,0.685-0.24,1.112-0.24,1.283c0,1.967,1.188,3.613,3.566,4.939c3.109,1.733,11.845,4.093,13.437-1.123l4.472-15.969h25.71
	c0,0,4.525,15.84,4.559,15.96c1.391,4.87,8.806,3.02,11.88,1.201c2.16-1.279,3.24-2.799,3.24-4.56c0-0.159-0.08-0.559-0.24-1.2
	C288.137,459.028,265.112,383.988,264.977,383.548z M246.415,435.388l10.312-36.84l10.439,36.84H246.415z"/>
<path d="M125,382c-24.813,0-45,20.187-45,45s20.187,45,45,45s45-20.187,45-45S149.813,382,125,382z M125,452
	c-13.785,0-25-11.215-25-25s11.215-25,25-25s25,11.215,25,25S138.785,452,125,452z"/>
<path d="M387,382c-24.813,0-45,20.187-45,45s20.187,45,45,45s45-20.187,45-45S411.813,382,387,382z M387,452
	c-13.785,0-25-11.215-25-25s11.215-25,25-25s25,11.215,25,25S400.785,452,387,452z"/>
<path d="M226,336c0-5.51-4.49-10-10-10H50c-5.51,0-10,4.49-10,10s4.49,10,10,10h166C221.51,346,226,341.51,226,336z"/>
<path d="M462,326H296c-5.51,0-10,4.49-10,10s4.49,10,10,10h166c5.51,0,10-4.49,10-10S467.51,326,462,326z"/>
<path d="M256,346c5.51,0,10-4.49,10-10s-4.49-10-10-10c-5.51,0-10,4.49-10,10S250.49,346,256,346z"/>
<path d="M256,40c-57.696,0-111.938,22.468-152.735,63.265S40,198.304,40,256v40c0,5.523,4.477,10,10,10h412c5.523,0,10-4.477,10-10
	v-40c0-57.696-22.468-111.938-63.265-152.735S313.696,40,256,40z M227.713,286c4.127-11.641,15.249-20,28.287-20
	c13.038,0,24.159,8.359,28.287,20H227.713z M452,286H304.994c-2.629-12.898-10.241-24-20.728-31.214l34.914-80.82
	c2.19-5.07-0.145-10.956-5.214-13.146c-5.07-2.188-10.955,0.144-13.146,5.214l-34.968,80.945C262.665,246.34,259.372,246,256,246
	c-24.146,0-44.348,17.205-48.994,40H60v-30c0-108.075,87.925-196,196-196s196,87.925,196,196V286z"/>
<circle cx="386" cy="180.5" r="10"/>
<circle cx="106" cy="256" r="10"/>
<circle cx="111" cy="217" r="10"/>
<circle cx="126" cy="180" r="10"/>
<circle cx="150" cy="149" r="10"/>
<circle cx="181" cy="125" r="10"/>
<circle cx="217" cy="110" r="10"/>
<circle cx="256" cy="105" r="10"/>
<circle cx="294.9" cy="110.19" r="10"/>
<circle cx="331.17" cy="125.25" r="10"/>
<circle cx="362.17" cy="149.29" r="10"/>
<circle cx="400.95" cy="216.8" r="10"/>
<circle cx="406" cy="255.73" r="10"/>
<g>
</g>
<g>
</g>
<g>
</g>
<g>
</g>
<g>
</g>
<g>
</g>
<g>
</g>
<g>
</g>
<g>
</g>
<g>
</g>
<g>
</g>
<g>
</g>
<g>
</g>
<g>
</g>
<g>
</g>
</svg>
