<?xml version="1.0" encoding="iso-8859-1"?>
<!-- Generator: Adobe Illustrator 19.0.0, SVG Export Plug-In . SVG Version: 6.00 Build 0)  -->
<svg version="1.1" id="Capa_1" xmlns="http://www.w3.org/2000/svg" xmlns:xlink="http://www.w3.org/1999/xlink" x="0px" y="0px"
	 viewBox="0 0 512 512" style="enable-background:new 0 0 512 512;" xml:space="preserve">
<rect x="10" y="52" style="fill:#D7D7E6;" width="40" height="42"/>
<rect x="10" y="94" style="fill:#898998;" width="40" height="183"/>
<rect x="462" y="52" style="fill:#D7D7E6;" width="40" height="42"/>
<rect x="462" y="94" style="fill:#FF5A5A;" width="40" height="183"/>
<g>
	<path style="fill:#D7D7E6;" d="M156,450L156,450c-11.046,0-20-8.954-20-20v-20h40v20C176,441.046,167.046,450,156,450z"/>
	<path style="fill:#D7D7E6;" d="M356,450L356,450c-11.046,0-20-8.954-20-20v-20h40v20C376,441.046,367.046,450,356,450z"/>
</g>
<path style="fill:#898998;" d="M96,10v400h320V10H96z"/>
<rect x="136" y="49" style="fill:#E6E6E6;" width="240" height="40"/>
<g>
	<path style="fill:#F5C86E;" d="M199.431,193.431c-26.359,26.359-30.478,66.535-12.36,97.213l109.573-109.573
		C265.966,162.953,225.79,167.073,199.431,193.431z"/>
	<path style="fill:#F5C86E;" d="M312.569,306.569c26.359-26.359,30.478-66.535,12.36-97.213L215.356,318.928
		C246.034,337.047,286.21,332.927,312.569,306.569z"/>
	<path style="fill:#F5C86E;" d="M312.569,193.431c-4.883-4.883-10.241-9.003-15.924-12.36L187.072,290.644
		c3.357,5.684,7.477,11.041,12.36,15.924s10.241,9.003,15.924,12.36l109.573-109.573
		C321.572,203.672,317.452,198.315,312.569,193.431z"/>
</g>
<path d="M502,42h-10V10c0-5.523-4.478-10-10-10s-10,4.477-10,10v32h-10c-5.522,0-10,4.477-10,10v225c0,5.523,4.478,10,10,10h10v163
	c0,23.159-18.841,42-42,42h-23c-20.305,0-37.289-14.485-41.166-33.664C377.559,454.255,386,443.098,386,430v-10h30
	c5.522,0,10-4.477,10-10V10c0-5.523-4.478-10-10-10H96c-5.522,0-10,4.477-10,10v400c0,5.523,4.478,10,10,10h30v10
	c0,13.098,8.441,24.255,20.166,28.336C142.289,477.515,125.305,492,105,492H82c-23.159,0-42-18.841-42-42V287h10
	c5.522,0,10-4.477,10-10V52c0-5.523-4.478-10-10-10H40V10c0-5.523-4.478-10-10-10S20,4.477,20,10v32H10C4.478,42,0,46.477,0,52v225
	c0,5.523,4.478,10,10,10h10v163c0,34.187,27.813,62,62,62h23c31.433,0,57.46-23.519,61.451-53.881
	C177.855,453.866,186,442.868,186,430v-10h140v10c0,12.868,8.145,23.866,19.549,28.119C349.54,488.481,375.567,512,407,512h23
	c34.187,0,62-27.813,62-62V287h10c5.522,0,10-4.477,10-10V52C512,46.477,507.522,42,502,42z M20,62h20v22H20V62z M20,267V104h20v163
	H20z M166,430c0,5.514-4.486,10-10,10s-10-4.486-10-10v-10h20V430z M106,400V20h300v380H106z M356,440c-5.514,0-10-4.486-10-10v-10
	h20v10C366,435.514,361.514,440,356,440z M492,267h-20V104h20V267z M492,84h-20V62h20V84z"/>
<path d="M376,39H136c-5.522,0-10,4.477-10,10v40c0,5.523,4.478,10,10,10h240c5.522,0,10-4.477,10-10V49
	C386,43.477,381.522,39,376,39z M366,79H146V59h220V79z"/>
<path d="M331.382,299.181c18.437-28.214,19.816-65.004,2.157-94.911c-7.679-13.005-18.827-24.143-31.823-31.816
	c-11.208-6.617-23.386-10.551-35.717-11.924V129c0-5.523-4.478-10-10-10s-10,4.477-10,10v31.549
	c-19.764,2.219-38.783,10.956-53.64,25.812c-29.052,29.053-34.769,74.022-13.899,109.37c1.669,2.826,3.506,5.555,5.48,8.187
	L157.958,329.9c-3.905,3.905-3.905,10.236-0.001,14.141c3.649,3.651,10.292,3.853,14.144,0.002l25.539-25.539
	c3.954,3.374,8.177,6.406,12.638,9.04c14.219,8.396,29.997,12.489,45.67,12.489c22.811,0,45.387-8.69,62.623-25.376
	c0,0,29.267,29.267,29.386,29.387c3.649,3.649,10.292,3.851,14.143,0c3.905-3.905,3.905-10.237,0-14.143L331.382,299.181z
	 M190.039,273.534c-8.969-25.079-2.947-53.62,16.464-73.031l0,0c13.508-13.508,31.436-20.532,49.544-20.532
	c7.912,0,15.861,1.342,23.487,4.069l-77.494,77.493L190.039,273.534z M206.502,299.497c-2.373-2.373-4.568-4.905-6.569-7.572
	l97.993-97.992c2.666,2,5.197,4.196,7.571,6.57c0,0,0,0,0.001,0c2.373,2.373,4.568,4.905,6.569,7.572l-97.993,97.992
	C211.408,304.067,208.876,301.871,206.502,299.497z M305.497,299.497L305.497,299.497c-19.41,19.411-47.952,25.431-73.031,16.463
	l77.494-77.493l12.001-12.001C330.931,251.545,324.909,280.086,305.497,299.497z"/>
<circle cx="216.73" cy="136.57" r="10"/>
<circle cx="181.81" cy="155.68" r="10"/>
<circle cx="155.03" cy="185.13" r="10"/>
<circle cx="139.35" cy="221.72" r="10"/>
<circle cx="136.53" cy="261.42" r="10"/>
<circle cx="146.82" cy="299.87" r="10"/>
<circle cx="201.02" cy="356.69" r="10"/>
<circle cx="238.93" cy="368.8" r="10"/>
<circle cx="278.73" cy="367.85" r="10"/>
<circle cx="316.02" cy="353.93" r="10"/>
<circle cx="367.44" cy="294.6" r="10"/>
<circle cx="375.87" cy="256" r="10"/>
<circle cx="371.17" cy="216.18" r="10"/>
<circle cx="353.75" cy="180.38" r="10"/>
<circle cx="325.6" cy="152.23" r="10"/>
<circle cx="289.8" cy="134.83" r="10"/>
<g>
</g>
<g>
</g>
<g>
</g>
<g>
</g>
<g>
</g>
<g>
</g>
<g>
</g>
<g>
</g>
<g>
</g>
<g>
</g>
<g>
</g>
<g>
</g>
<g>
</g>
<g>
</g>
<g>
</g>
</svg>
