<?xml version="1.0" encoding="iso-8859-1"?>
<!-- Generator: Adobe Illustrator 19.0.0, SVG Export Plug-In . SVG Version: 6.00 Build 0)  -->
<svg version="1.1" id="Capa_1" xmlns="http://www.w3.org/2000/svg" xmlns:xlink="http://www.w3.org/1999/xlink" x="0px" y="0px"
	 viewBox="0 0 512 512" style="enable-background:new 0 0 512 512;" xml:space="preserve">
<path style="fill:#72D8FF;" d="M306,102H206c-44.183,0-80,35.817-80,80v320h260V182C386,137.817,350.183,102,306,102z"/>
<circle style="fill:#FF5A5A;" cx="256" cy="204" r="50"/>
<circle style="fill:#898998;" cx="256" cy="350" r="50"/>
<rect x="206" y="62" style="fill:#E6E6E6;" width="100" height="40"/>
<rect x="236" y="10" style="fill:#898998;" width="40" height="52"/>
<path d="M316,92.559V62c0-5.523-4.477-10-10-10h-20V10c0-5.523-4.477-10-10-10h-40c-5.523,0-10,4.477-10,10v42h-20
	c-5.523,0-10,4.477-10,10v30.559c-44.937,4.991-80,43.196-80,89.441v320c0,5.523,4.477,10,10,10h260c5.523,0,10-4.477,10-10V182
	C396,135.754,360.937,97.549,316,92.559z M246,20h20v32h-20V20z M216,72h80v20h-80V72z M136,492v-20h80c5.51,0,10-4.48,10-10
	c0-5.51-4.49-10-10-10h-80V182c0-38.598,31.402-70,70-70h100c38.598,0,70,31.402,70,70v270h-80c-5.51,0-10,4.49-10,10
	c0,5.52,4.49,10,10,10h80v20H136z"/>
<path d="M256,452c-5.51,0-10,4.49-10,10c0,5.52,4.49,10,10,10c5.51,0,10-4.48,10-10C266,456.49,261.51,452,256,452z"/>
<path d="M256,264c33.084,0,60-26.916,60-60s-26.916-60-60-60s-60,26.916-60,60S222.916,264,256,264z M256,164
	c22.056,0,40,17.944,40,40s-17.944,40-40,40s-40-17.944-40-40S233.944,164,256,164z"/>
<path d="M316,350c0-33.084-26.916-60-60-60s-60,26.916-60,60s26.916,60,60,60S316,383.084,316,350z M216,350
	c0-22.056,17.944-40,40-40s40,17.944,40,40s-17.944,40-40,40S216,372.056,216,350z"/>
<g>
</g>
<g>
</g>
<g>
</g>
<g>
</g>
<g>
</g>
<g>
</g>
<g>
</g>
<g>
</g>
<g>
</g>
<g>
</g>
<g>
</g>
<g>
</g>
<g>
</g>
<g>
</g>
<g>
</g>
</svg>
