<?xml version="1.0" encoding="iso-8859-1"?>
<!-- Generator: Adobe Illustrator 19.0.0, SVG Export Plug-In . SVG Version: 6.00 Build 0)  -->
<svg version="1.1" id="Capa_1" xmlns="http://www.w3.org/2000/svg" xmlns:xlink="http://www.w3.org/1999/xlink" x="0px" y="0px"
	 viewBox="0 0 512 512" style="enable-background:new 0 0 512 512;" xml:space="preserve">
<path style="fill:#D7D7E6;" d="M332,162c-93.888,0-166,76.112-166,170c0,92.723,73.722,128.142,166,130H10v40h322
	c93.888,0,170-76.112,170-170S425.888,162,332,162z"/>
<rect x="10" y="20" style="fill:#898998;" width="492" height="40"/>
<g>
	<rect x="252" y="10" style="fill:#72D8FF;" width="160" height="60"/>
	<polygon style="fill:#72D8FF;" points="372,110 292,110 252,70 412,70 	"/>
</g>
<path style="fill:#7387BE;" d="M332,309.5L332,309.5c-22.091,0-40-17.909-40-40V110h80v159.5C372,291.591,354.091,309.5,332,309.5z"
	/>
<path d="M502,492c-5.51,0-10,4.49-10,10s4.49,10,10,10s10-4.49,10-10S507.51,492,502,492z"/>
<path d="M419.071,77.071C420.946,75.196,422,72.652,422,70h80c5.522,0,10-4.477,10-10V20c0-5.523-4.478-10-10-10h-80
	c0-5.523-4.478-10-10-10H252c-5.523,0-10,4.477-10,10H10C4.477,10,0,14.477,0,20v40c0,5.523,4.477,10,10,10h232
	c0,2.652,1.054,5.196,2.929,7.071L282,114.143v45.005c-28.435,8.358-54.29,23.877-75.395,45.692
	C173.972,238.568,156,283.729,156,332c0,47.064,17.736,83.167,52.716,107.305c6.872,4.742,14.349,8.975,22.417,12.695H10
	c-5.523,0-10,4.477-10,10v40c0,5.523,4.477,10,10,10h452c5.51,0,10-4.49,10-10s-4.49-10-10-10h-47.598
	C472.319,462.051,512,401.575,512,332c0-81.908-54.998-151.2-130-172.921v-44.937L419.071,77.071z M422,30h70v20h-70V30z M242,50H20
	V30h222V50z M262,20h140v40H262V20z M332,319.5c12.524,0,23.977-4.639,32.759-12.274c7.281,11.066,7.244,24.458,7.243,24.575
	c-0.001,0.066-0.002,0.133-0.002,0.2c0,19.877-13.739,40-40,40c-31.453,0-54.53-6.648-66.737-19.225
	c-9.149-9.427-9.288-19.194-9.275-20.241c0.02-0.234,0.013-0.26,0.013-0.534c0-30.685,10.631-51.084,26-63.604v1.104
	C282,297.07,304.43,319.5,332,319.5z M302,269.5V120h60v149.5c0,16.542-13.458,30-30,30S302,286.042,302,269.5z M377.277,290.684
	C380.301,284.247,382,277.07,382,269.5v-1.761c28.123,22.452,29.905,61.327,30,64.396c-0.025,24.552-7.021,43.864-20.794,57.402
	c-23.213,22.817-58.651,22.474-58.984,22.465C332.148,412.001,332.074,412,332,412c-38.225,0-67.59-6.965-87.278-20.701
	C225.664,378.002,216,358.051,216,332c0-48.655,26.654-89.664,66-108.658v21.045c-6.071,3.37-11.676,7.386-16.682,12.037
	c-19.136,17.779-29.271,43.834-29.318,75.357c-0.112,3.144,0.079,19.185,14.304,34.288C266.509,383.276,293.995,392,332,392
	c34.185,0,59.969-25.762,60-59.936C392.022,329.898,391.866,307.612,377.277,290.684z M220.075,422.844
	C190.829,402.663,176,372.098,176,332c0-71.703,43.77-130.982,106-151.902v21.34c-50.823,20.109-86,70.323-86,130.562
	c0,64.462,48.268,99.974,135.908,100c3.109,0.043,44.347,0.136,73.167-28.051C422.941,386.475,432,362.268,432,332
	c0-0.074-0.001-0.148-0.003-0.222c-0.022-1.012-0.693-25.069-13.093-49.329c-6.932-13.563-18.368-28.637-36.904-38.749v-20.755
	c41.269,18.997,70,60.724,70,109.054c0,66.14-53.786,119.953-119.915,119.999C284.385,451.024,246.699,441.215,220.075,422.844z
	 M492,332c0,88.224-71.775,160-160,160H20v-20h312c77.196,0,140-62.804,140-140c0-59.588-37.424-110.594-90-130.765v-21.222
	C445.811,201.058,492,261.231,492,332z M367.857,100h-71.715l-20-20h111.715L367.857,100z"/>
<path d="M332,240c5.51,0,10-4.49,10-10v-40c0-5.51-4.49-10-10-10s-10,4.49-10,10v40C322,235.51,326.49,240,332,240z"/>
<path d="M342,270c0-5.51-4.49-10-10-10s-10,4.49-10,10s4.49,10,10,10S342,275.51,342,270z"/>
<g>
</g>
<g>
</g>
<g>
</g>
<g>
</g>
<g>
</g>
<g>
</g>
<g>
</g>
<g>
</g>
<g>
</g>
<g>
</g>
<g>
</g>
<g>
</g>
<g>
</g>
<g>
</g>
<g>
</g>
</svg>
