<?xml version="1.0" encoding="iso-8859-1"?>
<!-- Generator: Adobe Illustrator 19.0.0, SVG Export Plug-In . SVG Version: 6.00 Build 0)  -->
<svg version="1.1" id="Capa_1" xmlns="http://www.w3.org/2000/svg" xmlns:xlink="http://www.w3.org/1999/xlink" x="0px" y="0px"
	 viewBox="0 0 512 512" style="enable-background:new 0 0 512 512;" xml:space="preserve">
<polygon style="fill:#FAE196;" points="160,422 160,170 80,170 80,422 10,422 10,502 462,502 462,422 "/>
<rect x="10" y="50" style="fill:#F5C86E;" width="452" height="120"/>
<circle style="fill:#E6E6E6;" cx="120" cy="307" r="74.98"/>
<g>
	<rect x="302" y="10" style="fill:#BEF07D;" width="80" height="40"/>
	<rect x="312" y="170" style="fill:#BEF07D;" width="60" height="40"/>
</g>
<rect x="302" y="210" style="fill:#D7D7E6;" width="80" height="80"/>
<polygon style="fill:#898998;" points="366,330 318,330 302,290 382,290 "/>
<polygon style="fill:#E6E6E6;" points="362,370 342,385 322,370 322,330 362,330 "/>
<rect x="462" y="90" style="fill:#D7D7E6;" width="40" height="40"/>
<g>
	<rect x="10" y="462" style="fill:#898998;" width="70" height="40"/>
	<rect x="392" y="462" style="fill:#898998;" width="70" height="40"/>
</g>
<g>
	<rect x="352" y="462" style="fill:#F5C86E;" width="40" height="40"/>
	<rect x="80" y="462" style="fill:#F5C86E;" width="40" height="40"/>
</g>
<path d="M502,80h-30V50c0-5.522-4.477-10-10-10h-70V10c0-5.522-4.477-10-10-10h-80c-5.523,0-10,4.478-10,10v30H10
	C4.477,40,0,44.478,0,50v120c0,5.522,4.477,10,10,10h60v58.331C55.999,248.498,44.96,263,39.202,280.673
	c-7.033,21.582-5.24,44.61,5.049,64.845c6.186,12.167,15.014,22.427,25.75,30.219V412H10c-5.523,0-10,4.478-10,10v80
	c0,5.522,4.477,10,10,10h452c5.523,0,10-4.478,10-10v-80c0-5.522-4.477-10-10-10H170v-36.338c14-10.166,25.041-24.664,30.798-42.334
	c7.033-21.582,5.24-44.61-5.049-64.845c-6.186-12.167-15.014-22.427-25.75-30.219V180h132v20c-5.523,0-10,4.478-10,10v80
	c0,1.301,0.786,3.891,0.791,3.903l15.924,39.811c0.696,1.741,1.849,3.202,3.285,4.279V370c0,3.147,1.482,6.111,4,8l20,15
	c1.778,1.333,3.889,2,6,2s4.222-0.667,6-2l20-15c2.518-1.889,4-4.853,4-8v-32.007c1.435-1.077,2.589-2.538,3.285-4.279
	c0,0,15.934-39.835,15.939-39.847c0.481-1.203,0.763-2.496,0.773-3.793C391.996,290.049,392,210,392,210c0-5.522-4.477-10-10-10v-20
	h80c5.523,0,10-4.478,10-10v-30h30c5.523,0,10-4.478,10-10V90C512,84.478,507.523,80,502,80z M312,20h60v20h-60V20z M62.078,336.452
	c-7.867-15.472-9.238-33.081-3.861-49.584c4.33-13.288,12.623-24.573,23.765-32.573l27.227,53.546l-18.61,57.114
	C78.353,358.775,68.413,348.91,62.078,336.452z M70,492H20v-20h50V492z M110,492H90v-20h20V492z M382,492h-20v-20h20V492z M452,492
	h-50v-20h50V492z M452,432v20H352c-5.523,0-10,4.478-10,10v30H130v-30c0-5.522-4.477-10-10-10H20v-20h60c5.523,0,10-4.478,10-10
	v-35.498c1.212,0.456,2.434,0.893,3.672,1.296c8.715,2.84,17.561,4.189,26.267,4.188c10.382,0,20.556-1.931,30.061-5.531V422
	c0,5.522,4.477,10,10,10H452z M181.77,286.81c4.289,13.029,4.343,27.033,0.013,40.322c-5.377,16.503-16.859,29.924-32.331,37.79
	c-12.458,6.335-26.302,8.45-39.838,6.229l18.61-57.114L181.77,286.81z M172.705,268.982l-48.324,24.572l-24.563-48.307
	c6.532-2.15,13.303-3.259,20.114-3.259c6.771,0,13.576,1.071,20.199,3.229C153.42,249.546,164.704,257.84,172.705,268.982z
	 M90,227.536V180h60v47.498c-1.212-0.456-2.434-0.893-3.672-1.296C127.222,219.976,107.473,220.92,90,227.536z M352,365l-10,7.5
	l-10-7.5v-25h20V365z M359.229,320H324.77l-8-20h50.459L359.229,320z M372,280h-60v-60h60V280z M322,200v-20h40v20H322z M452,160H20
	V60h432V160z M492,120h-20v-20h20V120z"/>
<path d="M50,100c5.52,0,10-4.48,10-10c0-5.521-4.48-10-10-10s-10,4.479-10,10C40,95.52,44.48,100,50,100z"/>
<path d="M90,100c5.52,0,10-4.48,10-10c0-5.521-4.48-10-10-10s-10,4.479-10,10C80,95.52,84.48,100,90,100z"/>
<path d="M130,100c5.52,0,10-4.48,10-10c0-5.521-4.48-10-10-10s-10,4.479-10,10C120,95.52,124.48,100,130,100z"/>
<path d="M50,140c5.51,0,10-4.49,10-10s-4.49-10-10-10s-10,4.49-10,10C40,135.51,44.49,140,50,140z"/>
<path d="M90,140h40c5.51,0,10-4.49,10-10s-4.49-10-10-10H90c-5.51,0-10,4.49-10,10C80,135.51,84.49,140,90,140z"/>
<circle cx="342" cy="250" r="10"/>
<g>
</g>
<g>
</g>
<g>
</g>
<g>
</g>
<g>
</g>
<g>
</g>
<g>
</g>
<g>
</g>
<g>
</g>
<g>
</g>
<g>
</g>
<g>
</g>
<g>
</g>
<g>
</g>
<g>
</g>
</svg>
