<?xml version="1.0" encoding="iso-8859-1"?>
<!-- Generator: Adobe Illustrator 19.0.0, SVG Export Plug-In . SVG Version: 6.00 Build 0)  -->
<svg version="1.1" id="Capa_1" xmlns="http://www.w3.org/2000/svg" xmlns:xlink="http://www.w3.org/1999/xlink" x="0px" y="0px"
	 viewBox="0 0 512 512" style="enable-background:new 0 0 512 512;" xml:space="preserve">
<path style="fill:#F5C86E;" d="M10,10v492h492V10H10z"/>
<rect x="302" y="272" style="fill:#E6E6E6;" width="200" height="190"/>
<polygon style="fill:#FAE196;" points="209.333,74 232.667,90 256,74 281.667,90 302.667,74 326,90 326,10 186,10 186,90 "/>
<path style="fill:#898998;" d="M62,319c0,20.501,12.344,38.111,30,45.828V422H62v40h100v-40h-30v-57.172
	c17.656-7.717,30-25.326,30-45.828v-47H62V319z"/>
<path d="M502,0H10C4.478,0,0,4.478,0,10v492c0,5.522,4.478,10,10,10h492c5.522,0,10-4.478,10-10V10C512,4.478,507.522,0,502,0z
	 M316,20v51.018l-7.678-5.265c-3.56-2.442-8.284-2.323-11.716,0.293l-15.508,11.815L261.29,65.514
	c-3.37-2.102-7.667-2.008-10.945,0.239l-17.678,12.122l-17.679-12.122c-1.704-1.169-3.68-1.753-5.655-1.753
	s-3.951,0.584-5.655,1.753L196,71.018V20H316z M20,492V20h156c0,0,0,69.917,0,70c0,7.861,9.176,12.689,15.655,8.247l17.678-12.122
	l17.679,12.122c3.408,2.338,7.902,2.338,11.311,0l17.938-12.301l20.116,12.54c3.525,2.198,8.044,1.986,11.351-0.532l15.248-11.617
	c0,0,17.356,11.901,17.369,11.91C326.765,102.649,336,97.919,336,90V20h156v242H302c-5.522,0-10,4.478-10,10v190
	c0,5.522,4.478,10,10,10h190v20H20z M492,452H312V282h180V452z"/>
<path d="M462,432c5.51,0,10-4.49,10-10c0-5.521-4.49-10-10-10s-10,4.479-10,10C452,427.51,456.49,432,462,432z"/>
<path d="M462,392c5.51,0,10-4.49,10-10v-70c0-5.51-4.49-10-10-10s-10,4.49-10,10v70C452,387.51,456.49,392,462,392z"/>
<path d="M422,432c5.522,0,10-4.478,10-10V312c0-5.522-4.478-10-10-10s-10,4.478-10,10v110C412,427.522,416.478,432,422,432z"/>
<path d="M382,432c5.51,0,10-4.49,10-10v-70c0-5.51-4.49-10-10-10s-10,4.49-10,10v70C372,427.51,376.49,432,382,432z"/>
<path d="M382,322c5.51,0,10-4.49,10-10s-4.49-10-10-10s-10,4.49-10,10S376.49,322,382,322z"/>
<path d="M342,432c5.522,0,10-4.478,10-10V312c0-5.522-4.478-10-10-10s-10,4.478-10,10v110C332,427.522,336.478,432,342,432z"/>
<path d="M162,262H62c-5.522,0-10,4.478-10,10v47c0,21.592,11.582,41.328,30,51.963V412H62c-5.522,0-10,4.478-10,10v40
	c0,5.522,4.478,10,10,10h100c5.522,0,10-4.478,10-10v-40c0-5.522-4.478-10-10-10h-20v-41.037c18.418-10.635,30-30.371,30-51.963v-47
	C172,266.478,167.522,262,162,262z M152,319c0,15.899-9.423,30.292-24.005,36.665c-3.642,1.592-5.995,5.188-5.995,9.163V422
	c0,5.522,4.478,10,10,10h20v20H72v-20h20c5.522,0,10-4.478,10-10v-57.172c0-3.975-2.354-7.571-5.995-9.163
	C81.423,349.292,72,334.899,72,319v-37h80V319z"/>
<g>
</g>
<g>
</g>
<g>
</g>
<g>
</g>
<g>
</g>
<g>
</g>
<g>
</g>
<g>
</g>
<g>
</g>
<g>
</g>
<g>
</g>
<g>
</g>
<g>
</g>
<g>
</g>
<g>
</g>
</svg>
