<?xml version="1.0" encoding="iso-8859-1"?>
<!-- Generator: Adobe Illustrator 19.0.0, SVG Export Plug-In . SVG Version: 6.00 Build 0)  -->
<svg version="1.1" id="Capa_1" xmlns="http://www.w3.org/2000/svg" xmlns:xlink="http://www.w3.org/1999/xlink" x="0px" y="0px"
	 viewBox="0 0 512 512" style="enable-background:new 0 0 512 512;" xml:space="preserve">
<path style="fill:#E6E6E6;" d="M354.006,310.007H110.692v40.348L15.865,453.68c-7.835,7.876-7.818,20.607,0.037,28.463
	l13.964,13.964c7.87,7.87,20.63,7.87,28.5,0l141.752-141.752h165.577c16.311,0,32.512-14.126,39.879-30.41L354.006,310.007z"/>
<path style="fill:#FAE196;" d="M288.004,92.003l58.421-66.083c-34.983-14.357-69.649-15.916-105.86-15.916
	c-62.706,0-189.211,44.106-222.423,134.135c20.632-16.543,95.979-71.136,191.861-71.136
	C250.004,73.003,288.004,92.003,288.004,92.003z"/>
<path style="fill:#F5C86E;" d="M470.007,251.006v-31.081l-70.001-18.919c19.735-52.628,12.976-122.864,12.09-131.132
	c-22.303-21.311-44.048-35.078-65.671-43.953l-58.421,66.083c0,0-38.001-19-78.001-19c-95.882,0-171.229,54.593-191.861,71.137
	C12.921,158.292,10,173.577,10,190.005v120.002h344.005l148.002,40.001L470.007,251.006z"/>
<rect x="10" y="210.003" style="fill:#FAE196;" width="90.001" height="60.001"/>
<rect x="202.003" y="210.003" style="fill:#E6E6E6;" width="60.001" height="60.001"/>
<path style="fill:#FAE196;" d="M400.006,201.005l70.001,18.919v-30.395c0-35.027-12.529-68.884-35.245-95.544
	c-7.629-8.955-15.179-16.957-22.666-24.111C412.982,78.142,419.742,148.377,400.006,201.005z"/>
<path d="M511.523,346.932l-31.516-97.503v-59.9c0-37.313-13.365-73.547-37.633-102.03c-25.336-29.739-55.706-55.871-92.152-70.83
	C312.754,1.291,275.505,0.004,240.566,0.004c-36.687,0-85.281,13.182-126.821,34.402c-33.829,17.281-65.7,40.881-87.386,72.485
	C9.589,131.332,0,160.303,0,190.005v120.002c0,5.522,4.477,10,10,10h90.691v26.454L8.62,446.786
	c-11.539,11.769-11.462,30.755,0.211,42.43l13.964,13.964c5.878,5.878,13.599,8.816,21.321,8.816c7.721,0,15.443-2.939,21.321-8.816
	l138.823-138.824h161.435c18.376,0,35.086-12.733,44.9-28.695c0,0,88.752,23.987,88.803,24
	C506.78,361.657,513.936,354.398,511.523,346.932z M427.151,100.471c21.188,24.867,32.856,56.496,32.856,89.059v17.333
	l-47.122-12.735c10.293-33.814,11.532-72.166,10.857-97.598C424.882,97.828,426.019,99.142,427.151,100.471z M240.566,20.004
	c28.632,0,58.83,0.884,88.632,10.305l-43.791,49.534c-13.31-5.683-43.509-16.84-75.404-16.84
	c-67.773,0-125.572,26.324-162.165,48.444C94.912,50.552,190.15,20.004,240.566,20.004z M20,220.005h70.001v40.001H20V220.005z
	 M365.696,344.355H200.119c-2.652,0-5.196,1.054-7.071,2.929L51.296,489.037c-3.959,3.958-10.401,3.958-14.358,0l-13.964-13.964
	c-3.948-3.948-3.957-10.381-0.019-14.339c0.095-0.096,0.188-0.192,0.278-0.291l94.826-103.325c1.693-1.845,2.632-4.258,2.632-6.762
	v-30.348h231.986l37.366,10.099C383.322,338.359,374.094,344.355,365.696,344.355z M356.615,300.354
	c-0.851-0.23-1.728-0.347-2.609-0.347H20v-19.999h270.004c5.51,0,10-4.49,10-10c0-5.521-4.49-10-10-10h-18v-50.002
	c0-5.522-4.477-10-10-10h-60.001c-5.523,0-10,4.478-10,10v50.002h-82.001v-50.002c0-5.522-4.477-10-10-10H20v-10
	c0-13.673,2.219-27.051,6.599-39.807c22.874-17.9,94.051-67.195,183.404-67.195c37.052,0,73.176,17.769,73.529,17.944
	c4.054,2.026,8.963,1.075,11.964-2.321l53.609-60.641c18.621,8.544,36.175,20.576,53.4,36.59
	c1.475,16.547,5.327,77.079-11.863,122.918c-1.994,5.318,1.063,11.628,6.754,13.165l62.611,16.923v23.425
	c0,1.044,0.164,2.082,0.485,3.075l11.434,35.376c0,0-98.998-29.016-99.111-29.049c-5.148-1.509-10.865,1.548-12.41,6.79
	c-1.55,5.29,1.5,10.851,6.79,12.41l112.171,32.869l7.457,23.069L356.615,300.354z M212.003,260.006v-40.001h40.001v40.001H212.003z"
	/>
<path d="M330.005,260.007c-5.51,0-10,4.479-10,10c0,5.51,4.49,10,10,10s10-4.49,10-10
	C340.005,264.487,335.515,260.007,330.005,260.007z"/>
<g>
</g>
<g>
</g>
<g>
</g>
<g>
</g>
<g>
</g>
<g>
</g>
<g>
</g>
<g>
</g>
<g>
</g>
<g>
</g>
<g>
</g>
<g>
</g>
<g>
</g>
<g>
</g>
<g>
</g>
</svg>
