<?xml version="1.0" encoding="iso-8859-1"?>
<!-- Generator: Adobe Illustrator 19.0.0, SVG Export Plug-In . SVG Version: 6.00 Build 0)  -->
<svg version="1.1" id="Capa_1" xmlns="http://www.w3.org/2000/svg" xmlns:xlink="http://www.w3.org/1999/xlink" x="0px" y="0px"
	 viewBox="0 0 512 512" style="enable-background:new 0 0 512 512;" xml:space="preserve">
<g>
	<rect x="10" y="10" style="fill:#D7D7E6;" width="40" height="492"/>
	<rect x="462" y="10" style="fill:#D7D7E6;" width="40" height="492"/>
</g>
<g>
	<rect x="50" y="422" style="fill:#898998;" width="412" height="40"/>
	<rect x="50" y="252" style="fill:#898998;" width="412" height="40"/>
	<rect x="50" y="92" style="fill:#898998;" width="412" height="40"/>
</g>
<g>
	<rect x="90" y="332" style="fill:#F5C86E;" width="112" height="90"/>
	<rect x="202" y="382" style="fill:#F5C86E;" width="90" height="40"/>
	<rect x="292" y="356" style="fill:#F5C86E;" width="130" height="66"/>
</g>
<rect x="90" y="172" style="fill:#E6E6E6;" width="112" height="80"/>
<g>
	<rect x="202" y="212" style="fill:#F5C86E;" width="100" height="40"/>
	<rect x="342" y="186" style="fill:#F5C86E;" width="80" height="66"/>
	<rect x="90" y="10" style="fill:#F5C86E;" width="101" height="82"/>
</g>
<g>
	<rect x="191" y="52" style="fill:#E6E6E6;" width="96" height="40"/>
	<rect x="287" y="26" style="fill:#E6E6E6;" width="130" height="66"/>
</g>
<path d="M502,0h-40c-5.522,0-10,4.478-10,10v72h-25V26c0-5.522-4.478-10-10-10H287c-5.522,0-10,4.478-10,10v16h-76V10
	c0-5.522-4.477-10-10-10H90c-5.523,0-10,4.478-10,10v72H60V10c0-5.522-4.477-10-10-10H10C4.477,0,0,4.478,0,10v492
	c0,5.522,4.477,10,10,10h40c5.523,0,10-4.478,10-10v-30h392v30c0,5.522,4.478,10,10,10h40c5.522,0,10-4.478,10-10V10
	C512,4.478,507.522,0,502,0z M212,412v-20h70v20H212z M100,412v-20h22c5.51,0,10-4.49,10-10s-4.49-10-10-10h-22v-30h92v40v30H100z
	 M302,382v-16h110v46H302V382z M422,346H292c-5.522,0-10,4.478-10,10v16h-70v-40c0-5.522-4.477-10-10-10H90c-5.523,0-10,4.478-10,10
	v80H60V302h392v110h-20v-56C432,350.478,427.522,346,422,346z M60,262h392v20H60V262z M292,242h-80v-20h80V242z M192,212v30h-92v-60
	h92V212z M412,242h-60v-46h60V242z M432,242v-56c0-5.522-4.478-10-10-10h-80c-5.522,0-10,4.478-10,10v56h-20v-30
	c0-5.522-4.478-10-10-10h-90v-30c0-5.522-4.477-10-10-10H90c-5.523,0-10,4.478-10,10v70H60V142h392v100H432z M297,36h110v46H297V52
	V36z M277,82h-76V62h76V82z M181,20v21h-81V20H181z M100,61h81v21h-81V61z M452,102v20H60v-20H452z M40,492H20V20h20V492z M60,452
	v-20h392v20H60z M492,492h-20V20h20V492z"/>
<path d="M162,372c-5.51,0-10,4.49-10,10s4.49,10,10,10s10-4.49,10-10S167.51,372,162,372z"/>
<g>
</g>
<g>
</g>
<g>
</g>
<g>
</g>
<g>
</g>
<g>
</g>
<g>
</g>
<g>
</g>
<g>
</g>
<g>
</g>
<g>
</g>
<g>
</g>
<g>
</g>
<g>
</g>
<g>
</g>
</svg>
