<?xml version="1.0" encoding="iso-8859-1"?>
<!-- Generator: Adobe Illustrator 19.0.0, SVG Export Plug-In . SVG Version: 6.00 Build 0)  -->
<svg version="1.1" id="Capa_1" xmlns="http://www.w3.org/2000/svg" xmlns:xlink="http://www.w3.org/1999/xlink" x="0px" y="0px"
	 viewBox="0 0 512 512" style="enable-background:new 0 0 512 512;" xml:space="preserve">
<path style="fill:#D7D7E6;" d="M405.942,153.617H106.308l-55,39.85v85.976c0,7.135,1.212,14.043,3.444,20.617
	c11.406,33.596,49.992,58.323,95.86,58.323c39.293,0,73.222-8.16,89.321-34.481c2.561-4.249,4.662-9.408,15.66-9.408
	c11.774,0,14.127,6.034,16.562,9.142c16.031,26.464,50.057,34.748,89.482,34.748c45.868,0,84.452-24.727,95.861-58.323
	c2.23-6.574,3.443-13.482,3.443-20.617v-85.976L405.942,153.617z"/>
<path style="fill:#72D8FF;" d="M139.547,193.617l-44.707,33v17.904c0,5.547,0.813,68.51,56.998,70.117l66.608-121.021
	L139.547,193.617L139.547,193.617z"/>
<path style="fill:#E6E6E6;" d="M373.547,193.617H218.446l-66.608,121.021c0.727,0.021,1.456,0.038,2.201,0.038
	c30.941,0,55.658-21.289,68.336-42.016c2.016-3.345,24.672-8.408,33.331-8.408c9.272,0,32.125,5.751,34.043,8.198
	c8.934,14.749,24.469,29.761,43.789,37.282l56.91-103.4L373.547,193.617z"/>
<path style="fill:#72D8FF;" d="M390.448,206.332l-56.91,103.4c7.979,3.106,16.599,4.943,25.673,4.943
	c56.456,0,58.199-64.537,58.199-70.155v-17.904L390.448,206.332z"/>
<g>
	<polygon style="fill:#898998;" points="502,193.465 460.941,193.465 460.942,193.466 460.942,253.465 502,253.465 	"/>
	<polygon style="fill:#898998;" points="51.309,193.465 10,193.465 10,253.465 51.308,253.465 51.308,193.466 	"/>
</g>
<path d="M502,183.465h-37.817L411.81,145.52c-1.706-1.236-3.76-1.902-5.867-1.902H106.308c-2.107,0-4.161,0.666-5.867,1.902
	l-52.373,37.946H10c-5.522,0-10,4.478-10,10v60c0,5.522,4.478,10,10,10h31.308v15.978c0,8.047,1.338,16.064,3.976,23.831
	c13.015,38.334,56.328,65.107,105.329,65.107c49.685,0,81.692-12.843,97.887-39.319c2.109-3.448,3.915-4.445,8.048-4.445
	c3.933,0,5.034,1.562,7.338,4.661c16.219,26.312,48.202,39.104,97.753,39.104c48.999,0,92.312-26.772,105.331-65.109
	c2.637-7.771,3.974-15.787,3.974-23.829v-15.978H502c5.522,0,10-4.478,10-10v-60C512,187.943,507.522,183.465,502,183.465z
	 M41.308,243.465H20v-40h21.308V243.465z M450.942,279.443c0,5.852-0.98,11.706-2.912,17.4
	c-10.306,30.345-45.831,51.538-86.393,51.538c-42.258,0-68.729-9.79-80.93-29.929c-5.636-9.303-14.261-13.959-25.113-13.96
	c-10.85,0-18.751,5.135-24.192,14.19c-12.224,19.983-38.65,29.698-80.791,29.698c-40.563,0-76.089-21.192-86.392-51.538
	c-1.933-5.691-2.913-11.546-2.913-17.4V198.57l48.242-34.953H402.7l48.242,34.953L450.942,279.443L450.942,279.443z M492,243.465
	h-21.058v-40H492V243.465z"/>
<path d="M373.547,183.617h-234c-2.138,0-4.219,0.685-5.938,1.954l-44.707,33c-2.555,1.886-4.062,4.871-4.062,8.046v17.904
	c0,5.046,0.596,22.882,8.258,40.521c10.912,25.12,31.125,38.811,58.454,39.593c0.033,0.001,0.065,0.001,0.097,0.001
	c32.237,0.484,61.049-18.341,78.154-45c4.826-2.053,19.75-5.383,25.903-5.383c6.286,0,21.493,3.57,26.912,5.653
	c16.374,25.348,45.876,44.77,76.593,44.77c27.537,0,48.08-13.453,59.406-38.904c8.546-19.202,8.793-39.05,8.793-41.25v-17.904
	c0-3.143-1.477-6.102-3.988-7.991l-43.863-33C377.826,184.322,375.716,183.617,373.547,183.617z M146.175,304.188
	c-7.675-0.984-14.245-3.492-19.795-7.523l28.742-47.903c2.841-4.735,1.306-10.878-3.431-13.72c-4.735-2.84-10.879-1.306-13.72,3.431
	l-25.052,41.753c-0.512-1.02-1.007-2.067-1.479-3.152c-6.283-14.464-6.602-29.653-6.602-32.552v-12.856l37.998-28.048h58.69
	L146.175,304.188z M312.178,284.312c0.008,0.007,1.994-3.449,2.178-3.993c0.587-1.732,0.664-3.621,0.26-5.402
	c-0.6-2.6-2.17-4.82-4.439-6.24c-3.292-2.06-7.666-1.983-10.878,0.174c-0.549-0.857-1.05-1.766-1.678-2.568
	c-1.522-1.941-3.607-4.602-19.754-8.561c-3.318-0.813-14.727-3.469-22.161-3.469c-9.656,0-19.729,2.338-28.906,5.248
	c-4.781,1.515-10.2,3.438-12.955,7.942c-8.768,14.334-24.184,29.45-43.887,35.013l54.399-98.838h145.848l7.299,5.491l-48.234,87.637
	C323.187,293.456,317.386,289.217,312.178,284.312z M407.41,231.607v12.914c0,0.704-0.08,17.424-7.064,33.118
	c-8.097,18.192-21.552,27.036-41.135,27.036c-3.631,0-7.273-0.349-10.903-1.04l12.229-22.22l33.112-60.161L407.41,231.607z"/>
<circle cx="326.55" cy="243.619" r="10"/>
<g>
</g>
<g>
</g>
<g>
</g>
<g>
</g>
<g>
</g>
<g>
</g>
<g>
</g>
<g>
</g>
<g>
</g>
<g>
</g>
<g>
</g>
<g>
</g>
<g>
</g>
<g>
</g>
<g>
</g>
</svg>
