<?xml version="1.0" encoding="iso-8859-1"?>
<!-- Generator: Adobe Illustrator 19.0.0, SVG Export Plug-In . SVG Version: 6.00 Build 0)  -->
<svg version="1.1" id="Capa_1" xmlns="http://www.w3.org/2000/svg" xmlns:xlink="http://www.w3.org/1999/xlink" x="0px" y="0px"
	 viewBox="0 0 512 512" style="enable-background:new 0 0 512 512;" xml:space="preserve">
<rect x="10" y="87" style="fill:#E6E6E6;" width="340" height="400"/>
<rect x="216" y="47" style="fill:#72D8FF;" width="80" height="40"/>
<rect x="390" y="447" style="fill:#75706B;" width="80" height="40"/>
<path style="fill:#72D8FF;" d="M350,247v40h60v160h40V267c0-11.046-8.954-20-20-20H350z"/>
<path d="M502,477h-22v-30c0-5.522-4.477-10-10-10h-10V267c0-16.542-13.458-30-30-30h-70V87c0-5.522-4.477-10-10-10h-44V47
	c0-5.522-4.477-10-10-10h-80c-5.523,0-10,4.478-10,10v30H100V25c0-5.522-4.477-10-10-10s-10,4.478-10,10v12H60V25
	c0-5.522-4.477-10-10-10s-10,4.478-10,10v52H10C4.477,77,0,81.478,0,87v400c0,5.522,4.477,10,10,10h492c5.523,0,10-4.478,10-10
	S507.523,477,502,477z M430,257c5.514,0,10,4.486,10,10v170h-20V287c0-5.522-4.477-10-10-10h-50v-20H430z M390,437
	c-5.523,0-10,4.478-10,10v30h-20V297h40v140H390z M340,477H100V97h240V477z M80,217v20H60v-20H80z M60,197v-20h20v20H60z M80,257v20
	H60v-20H80z M80,297v20H60v-20H80z M80,337v20H60v-20H80z M80,377v20H60v-20H80z M80,157H60v-20h20V157z M60,417h20v20H60V417z
	 M80,117H60V97h20V117z M60,457h20v20H60V457z M226,57h60v20h-60V57z M80,57v20H60V57H80z M20,97h20v380H20V97z M400,477v-20h60v20
	H400z"/>
<path d="M310,437h-60c-5.51,0-10,4.49-10,10c0,5.52,4.49,10,10,10h60c5.51,0,10-4.48,10-10C320,441.49,315.51,437,310,437z"/>
<path d="M210,437c-5.51,0-10,4.49-10,10c0,5.52,4.49,10,10,10s10-4.48,10-10C220,441.49,215.51,437,210,437z"/>
<path d="M255,407c0,5.522,4.477,10,10,10h45c5.523,0,10-4.478,10-10s-4.477-10-10-10h-45C259.477,397,255,401.478,255,407z"/>
<g>
</g>
<g>
</g>
<g>
</g>
<g>
</g>
<g>
</g>
<g>
</g>
<g>
</g>
<g>
</g>
<g>
</g>
<g>
</g>
<g>
</g>
<g>
</g>
<g>
</g>
<g>
</g>
<g>
</g>
</svg>
