<?xml version="1.0" encoding="iso-8859-1"?>
<!-- Generator: Adobe Illustrator 19.0.0, SVG Export Plug-In . SVG Version: 6.00 Build 0)  -->
<svg version="1.1" id="Capa_1" xmlns="http://www.w3.org/2000/svg" xmlns:xlink="http://www.w3.org/1999/xlink" x="0px" y="0px"
	 viewBox="0 0 512 512" style="enable-background:new 0 0 512 512;" xml:space="preserve">
<rect x="106" y="223.519" style="fill:#D7D7E6;" width="300" height="40"/>
<rect x="10" y="263.519" style="fill:#F5C86E;" width="492" height="190"/>
<g>
	<rect x="10" y="413.519" style="fill:#D7D7E6;" width="110" height="40"/>
	<rect x="392" y="413.519" style="fill:#D7D7E6;" width="110" height="40"/>
</g>
<path style="fill:#E6E6E6;" d="M393.207,164.798c-31.469,0.521-51.253-33.747-35.068-60.739l4.008-6.685l-6.684,4.008
	c-26.993,16.186-61.26-3.599-60.739-35.068l0.129-7.793l-3.785,6.813c-15.284,27.513-54.852,27.513-70.136,0l-5.785-6.813
	l2.129,7.793c0.521,31.469-33.747,51.253-60.739,35.068l-6.684-4.008l4.008,6.685c16.186,26.993-3.599,61.26-35.068,60.739
	L111,164.669l6.813,3.785c20.708,11.503,25.824,36.759,15.361,55.068h245.651c-10.463-18.309-5.346-43.565,15.361-55.068
	l6.814-3.785L393.207,164.798z"/>
<circle style="fill:#75706B;" cx="256" cy="203.519" r="20"/>
<path d="M422,313.522c5.52,0,10-4.48,10-10c0-5.521-4.48-10-10-10s-10,4.479-10,10C412,309.041,416.48,313.522,422,313.522z"/>
<path d="M462,313.522c5.52,0,10-4.48,10-10c0-5.521-4.48-10-10-10s-10,4.479-10,10C452,309.041,456.48,313.522,462,313.522z"/>
<path d="M257,423.522c5.51,0,10-4.48,10-10c0-5.51-4.49-10-10-10c-5.51,0-10,4.49-10,10C247,419.041,251.49,423.522,257,423.522z"/>
<path d="M502,253.522h-86v-30c0-5.522-4.477-10-10-10h-20.783c-1.089-3.143-1.666-6.509-1.666-10
	c0-11.096,5.791-20.938,15.492-26.326c5.93-3.294,13.86-6.738,11.616-15.113c-2.232-8.332-10.951-7.393-17.618-7.283
	c-11.085,0.169-21.031-5.444-26.579-15.054c-5.548-9.609-5.454-21.027,0.253-30.544c3.497-5.832,8.661-12.738,2.504-18.897
	c-5.99-5.993-13.196-0.917-18.9,2.502c-9.516,5.706-20.934,5.801-30.543,0.253s-15.238-15.483-15.054-26.579
	c0.112-6.792,1.053-15.383-7.281-17.617c-8.372-2.244-11.867,5.768-15.115,11.616c-5.389,9.7-15.23,15.492-26.326,15.492
	c-11.096,0-20.937-5.791-26.326-15.491c-3.497-6.294-11.427-14.893-19.19-10.804c-7.152,3.767-4.904,11.768-3.208,17.977
	c-0.217,10.62-5.782,20.055-15.052,25.406c-9.609,5.548-21.027,5.453-30.545-0.253c-5.819-3.489-12.778-8.62-18.897-2.504
	c-6.088,6.085-0.935,13.166,2.503,18.899c5.706,9.517,5.801,20.935,0.252,30.544c-5.548,9.61-15.472,15.25-26.579,15.054
	c-6.803-0.113-15.375-1.084-17.617,7.281c-2.203,8.217,5.809,11.889,11.616,15.116c9.7,5.388,15.491,15.229,15.491,26.325
	c0,3.495-0.593,6.856-1.688,10H106c-5.523,0-10,4.478-10,10v30H10c-5.523,0-10,4.478-10,10v190c0,5.522,4.477,10,10,10h492
	c5.523,0,10-4.478,10-10v-190C512,257.999,507.523,253.522,502,253.522z M137.134,171.672c10.669-3.966,19.734-11.552,25.724-21.927
	s8.028-22.017,6.126-33.239c11.223,1.901,22.865-0.138,33.239-6.126c10.376-5.99,17.961-15.054,21.927-25.724
	c8.769,7.258,19.87,11.314,31.85,11.314c11.98,0,23.081-4.057,31.85-11.314c3.965,10.67,11.551,19.733,21.927,25.724
	c10.375,5.989,22.014,8.029,33.239,6.126c-1.901,11.223,0.136,22.864,6.126,33.239c5.99,10.376,15.053,17.961,25.724,21.927
	c-7.258,8.769-11.314,19.869-11.314,31.85c0,3.417,0.341,6.76,0.982,10H284.28c1.11-3.13,1.72-6.494,1.72-10
	c0-16.542-13.458-30-30-30s-30,13.458-30,30c0,3.506,0.61,6.87,1.72,10h-80.252c0.643-3.239,0.98-6.583,0.98-10
	C148.448,191.541,144.392,180.441,137.134,171.672z M266,203.522c0,5.514-4.486,10-10,10s-10-4.486-10-10s4.486-10,10-10
	S266,198.008,266,203.522z M116,233.522h280v20H116V233.522z M110,443.522H20v-20h90V443.522z M492,443.522h-90v-20h90V443.522z
	 M492,403.522H297c-5.51,0-10,4.49-10,10c0,5.52,4.49,10,10,10h85v20H130v-20h87c5.51,0,10-4.48,10-10c0-5.51-4.49-10-10-10H20v-130
	h472V403.522z"/>
<g>
</g>
<g>
</g>
<g>
</g>
<g>
</g>
<g>
</g>
<g>
</g>
<g>
</g>
<g>
</g>
<g>
</g>
<g>
</g>
<g>
</g>
<g>
</g>
<g>
</g>
<g>
</g>
<g>
</g>
</svg>
