<?xml version="1.0" encoding="iso-8859-1"?>
<!-- Generator: Adobe Illustrator 19.0.0, SVG Export Plug-In . SVG Version: 6.00 Build 0)  -->
<svg version="1.1" id="Capa_1" xmlns="http://www.w3.org/2000/svg" xmlns:xlink="http://www.w3.org/1999/xlink" x="0px" y="0px"
	 viewBox="0 0 512 512" style="enable-background:new 0 0 512 512;" xml:space="preserve">
<rect x="10" y="184" style="fill:#D7D7E6;" width="40" height="213"/>
<path style="fill:#72D8FF;" d="M175,502h-40l0,0c-46.944,0-85-38.056-85-85v-40c0-46.944,38.056-85,85-85l0,0h40V502z"/>
<rect x="175" y="292" style="fill:#7387BE;" width="40" height="210"/>
<g>
	<rect x="462" y="184" style="fill:#D7D7E6;" width="40" height="213"/>
	<path style="fill:#D7D7E6;" d="M462,244h-40v-91c0-56.794-46.206-103-103-103H193C136.206,50,90,96.206,90,153v91H50v-91
		c0-78.851,64.149-143,143-143h126c78.851,0,143,64.149,143,143V244z"/>
</g>
<path style="fill:#72D8FF;" d="M337,292h40l0,0c46.944,0,85,38.056,85,85v40c0,46.944-38.056,85-85,85l0,0h-40V292z"/>
<rect x="297" y="292" style="fill:#7387BE;" width="40" height="210"/>
<path d="M502,174h-30v-21C472,68.636,403.364,0,319,0H193C108.636,0,40,68.636,40,153v21H10c-5.523,0-10,4.478-10,10v213
	c0,5.522,4.477,10,10,10h30v10c0,52.383,42.617,95,95,95h80c5.523,0,10-4.478,10-10V292c0-5.522-4.477-10-10-10h-80
	c-30.454,0-57.603,14.407-75,36.759V254h30c5.523,0,10-4.478,10-10v-91c0-51.28,41.72-93,93-93h126c51.28,0,93,41.72,93,93v91
	c0,5.522,4.478,10,10,10h30v64.76C434.603,296.407,407.453,282,377,282h-80c-5.522,0-10,4.478-10,10v210c0,5.522,4.478,10,10,10h80
	c52.383,0,95-42.617,95-95v-10h30c5.522,0,10-4.478,10-10V184C512,178.478,507.522,174,502,174z M205,492h-20V302h20V492z
	 M125,302.687V357c0,5.51,4.49,10,10,10s10-4.49,10-10v-55h20v190h-20v-55c0-5.521-4.49-10-10-10s-10,4.479-10,10v54.313
	c-36.641-4.907-65-36.35-65-74.313v-40C60,339.037,88.359,307.593,125,302.687z M40,387H20V194h20V387z M432,234v-81
	c0-62.309-50.691-113-113-113H193C130.691,40,80,90.691,80,153v81H60v-81c0-73.337,59.664-133,133-133h126
	c73.337,0,133,59.663,133,133v81H432z M307,302h20v190h-20V302z M452,417c0,37.963-28.358,69.407-65,74.313V437
	c0-5.51-4.49-10-10-10s-10,4.49-10,10v55h-20V302h20v55c0,5.51,4.49,10,10,10s10-4.49,10-10v-54.313
	c36.642,4.906,65,36.35,65,74.313V417z M492,387h-20V194h20V387z"/>
<path d="M135,407c5.51,0,10-4.49,10-10s-4.49-10-10-10s-10,4.49-10,10S129.49,407,135,407z"/>
<path d="M377,387c-5.51,0-10,4.49-10,10s4.49,10,10,10s10-4.49,10-10S382.51,387,377,387z"/>
<g>
</g>
<g>
</g>
<g>
</g>
<g>
</g>
<g>
</g>
<g>
</g>
<g>
</g>
<g>
</g>
<g>
</g>
<g>
</g>
<g>
</g>
<g>
</g>
<g>
</g>
<g>
</g>
<g>
</g>
</svg>
