<?xml version="1.0" encoding="iso-8859-1"?>
<!-- Generator: Adobe Illustrator 19.0.0, SVG Export Plug-In . SVG Version: 6.00 Build 0)  -->
<svg version="1.1" id="Capa_1" xmlns="http://www.w3.org/2000/svg" xmlns:xlink="http://www.w3.org/1999/xlink" x="0px" y="0px"
	 viewBox="0 0 512 512" style="enable-background:new 0 0 512 512;" xml:space="preserve">
<rect x="55.999" y="27.966" transform="matrix(-0.9297 0.3683 -0.3683 -0.9297 234.5796 71.1603)" style="fill:#FF5A5A;" width="108.999" height="60"/>
<rect x="287.842" y="28.312" transform="matrix(-0.7071 0.7071 -0.7071 -0.7071 618.091 -111.009)" style="fill:#BEF07D;" width="88.389" height="88.389"/>
<circle style="fill:#72D8FF;" cx="218" cy="125" r="30"/>
<g>
	<circle style="fill:#FAE196;" cx="431" cy="144" r="26"/>
	<path style="fill:#FAE196;" d="M212.585,248.699l23.975-23.975l-28.284-28.285l-23.975,23.975c-4.192-2.271-8.648-4.114-13.301-5.5
		V181h-40v33.916c-4.653,1.385-9.109,3.228-13.301,5.5L93.724,196.44L65.44,224.725L89.415,248.7
		c-2.271,4.192-4.114,8.648-5.5,13.301H50v40h33.915c1.385,4.653,3.228,9.108,5.5,13.301L65.44,339.275l28.284,28.285l23.975-23.975
		c4.192,2.271,8.648,4.114,13.301,5.5V383h40v-33.916c4.653-1.385,9.109-3.228,13.301-5.5l23.975,23.975l28.284-28.285
		l-23.975-23.975c2.271-4.192,4.114-8.648,5.5-13.301H252v-40h-33.915C216.699,257.347,214.856,252.892,212.585,248.699z"/>
	<path style="fill:#FAE196;" d="M388.125,229.878c-28.786-12.219-62.027,1.211-74.246,29.998s1.211,62.027,29.997,74.247
		c28.786,12.219,62.027-1.211,74.246-29.998S416.91,242.097,388.125,229.878z"/>
</g>
<g>
	<circle style="fill:#D7D7E6;" cx="366" cy="282" r="20"/>
	<circle style="fill:#D7D7E6;" cx="151" cy="282" r="20"/>
</g>
<circle cx="246" cy="389" r="10"/>
<circle cx="274" cy="417" r="10"/>
<path d="M243.631,332.204l-18.971-18.97c0.174-0.41,0.344-0.821,0.51-1.234H252c5.522,0,10-4.478,10-10v-40c0-5.522-4.478-10-10-10
	h-26.83c-0.166-0.413-0.336-0.824-0.51-1.234l18.971-18.97c3.905-3.905,3.905-10.237,0-14.143l-28.284-28.285
	c-1.875-1.875-4.419-2.929-7.071-2.929s-5.196,1.054-7.071,2.929l-18.97,18.972c-0.41-0.174-0.821-0.344-1.234-0.51V181
	c0-5.522-4.478-10-10-10h-40c-5.522,0-10,4.478-10,10v26.83c-0.413,0.166-0.824,0.336-1.234,0.51l-18.97-18.972
	c-1.875-1.875-4.419-2.929-7.071-2.929s-5.196,1.054-7.071,2.929l-28.284,28.285c-3.905,3.905-3.905,10.237,0,14.143l18.971,18.97
	c-0.174,0.41-0.344,0.821-0.51,1.234H50c-5.522,0-10,4.478-10,10v40c0,5.522,4.478,10,10,10h26.83
	c0.166,0.413,0.336,0.824,0.51,1.234l-18.971,18.97c-3.905,3.905-3.905,10.237,0,14.143l28.284,28.285
	c1.875,1.875,4.419,2.929,7.071,2.929s5.196-1.054,7.071-2.929l18.97-18.972c0.41,0.174,0.821,0.344,1.234,0.51V383
	c0,5.522,4.478,10,10,10h40c5.522,0,10-4.478,10-10v-26.83c0.413-0.166,0.824-0.336,1.234-0.51l18.97,18.972
	c1.875,1.875,4.419,2.929,7.071,2.929s5.196-1.054,7.071-2.929l28.284-28.285C247.536,342.441,247.536,336.109,243.631,332.204z
	 M208.275,353.418l-16.903-16.904c-3.13-3.128-7.944-3.829-11.835-1.721c-3.58,1.939-7.412,3.522-11.39,4.706
	c-4.24,1.263-7.147,5.161-7.147,9.585V373h-20v-23.916c0-4.424-2.907-8.322-7.147-9.585c-3.978-1.184-7.81-2.767-11.39-4.706
	c-3.889-2.106-8.705-1.408-11.835,1.721l-16.903,16.904l-14.143-14.143l16.904-16.903c3.129-3.13,3.829-7.944,1.721-11.835
	c-1.938-3.578-3.522-7.411-4.708-11.392c-1.263-4.239-5.16-7.146-9.584-7.146H60v-20h23.915c4.424,0,8.321-2.906,9.584-7.146
	c1.186-3.98,2.77-7.813,4.708-11.392c2.108-3.891,1.408-8.705-1.721-11.835l-16.904-16.903l14.143-14.143l16.903,16.904
	c3.13,3.128,7.945,3.829,11.835,1.721c3.58-1.939,7.412-3.522,11.39-4.706c4.24-1.263,7.147-5.161,7.147-9.585V191h20v23.916
	c0,4.424,2.907,8.322,7.147,9.585c3.978,1.184,7.81,2.767,11.39,4.706c3.89,2.109,8.704,1.408,11.835-1.721l16.903-16.904
	l14.143,14.143l-16.904,16.903c-3.129,3.13-3.829,7.944-1.721,11.835c1.938,3.578,3.522,7.411,4.708,11.392
	c1.263,4.239,5.16,7.146,9.584,7.146H242v20h-23.915c-4.424,0-8.321,2.906-9.584,7.146c-1.186,3.98-2.77,7.813-4.708,11.392
	c-2.108,3.891-1.408,8.705,1.721,11.835l16.904,16.903L208.275,353.418z"/>
<path d="M192.169,452.238l-62.481-13.885C65.105,424.002,20,367.772,20,301.614V10c0-5.522-4.478-10-10-10S0,4.478,0,10v291.614
	c0,36.286,12.505,71.858,35.21,100.163s54.718,48.229,90.14,56.1L180,470.021V502c0,5.522,4.478,10,10,10s10-4.478,10-10v-40
	C200,457.313,196.745,453.255,192.169,452.238z"/>
<path d="M502,0c-5.522,0-10,4.478-10,10v291.614c0,66.158-45.105,122.388-109.688,136.739l-62.481,13.885
	C315.255,453.255,312,457.313,312,462v40c0,5.522,4.478,10,10,10s10-4.478,10-10v-31.979l54.65-12.145
	c35.422-7.871,67.435-27.795,90.14-56.1S512,337.9,512,301.614V10C512,4.478,507.522,0,502,0z"/>
<path d="M227,412c-5.521,0-10,4.49-10,10s4.479,10,10,10c5.51,0,10-4.49,10-10S232.51,412,227,412z"/>
<path d="M227,452c-5.521,0-10,4.49-10,10v40c0,5.51,4.479,10,10,10c5.51,0,10-4.49,10-10v-40C237,456.49,232.51,452,227,452z"/>
<path d="M292.247,447.191c-4.313-3.451-10.606-2.75-14.056,1.562l-20,25c-3.45,4.312-2.751,10.604,1.561,14.055
	c4.03,3.225,10.711,2.622,14.057-1.561l20-25C297.259,456.935,296.56,450.642,292.247,447.191z"/>
<path d="M151,252c-16.542,0-30,13.458-30,30s13.458,30,30,30s30-13.458,30-30S167.542,252,151,252z M151,292
	c-5.514,0-10-4.486-10-10s4.486-10,10-10s10,4.486,10,10S156.514,292,151,292z"/>
<path d="M61.584,109.611c1.942,4.903,8.081,7.553,12.98,5.614l101.337-40.146c5.134-2.034,7.647-7.846,5.613-12.979
	c0,0-22.085-55.748-22.099-55.783c-1.97-4.973-7.866-7.638-12.98-5.613L45.099,40.85c-5.134,2.034-7.647,7.846-5.613,12.98
	C39.485,53.83,61.537,109.492,61.584,109.611z M144.505,22.98l14.732,37.188l-82.742,32.78L61.763,55.761L144.505,22.98z"/>
<path d="M324.966,142.071c1.86,1.86,4.462,2.811,7.072,2.813c2.585,0.003,5.179-0.923,7.071-2.813l62.5-62.5
	c3.905-3.905,3.905-10.237,0-14.143l-62.5-62.5c-3.906-3.904-10.236-3.904-14.143,0l-62.5,62.5c-3.905,3.905-3.905,10.237,0,14.143
	C262.466,79.571,324.862,141.968,324.966,142.071z M332.037,24.143L380.395,72.5l-48.357,48.357L283.68,72.5L332.037,24.143z"/>
<path d="M218,165c22.056,0,40-17.944,40-40s-17.944-40-40-40s-40,17.944-40,40S195.944,165,218,165z M218,105
	c11.028,0,20,8.972,20,20s-8.972,20-20,20s-20-8.972-20-20S206.972,105,218,105z"/>
<path d="M431,180c19.851,0,36-16.149,36-36s-16.149-36-36-36s-36,16.149-36,36S411.149,180,431,180z M431,128
	c8.822,0,16,7.178,16,16s-7.178,16-16,16s-16-7.178-16-16S422.178,128,431,128z"/>
<path d="M354.278,309.615c3.813,1.618,7.777,2.385,11.681,2.385c11.683,0,22.812-6.864,27.656-18.278
	c6.463-15.227-0.667-32.873-15.894-39.337c-15.227-6.462-32.874,0.666-39.337,15.894
	C331.922,285.505,339.052,303.151,354.278,309.615z M356.795,278.093c2.154-5.075,8.037-7.452,13.112-5.298
	s7.452,8.037,5.298,13.112c-2.155,5.074-8.039,7.449-13.112,5.298C357.018,289.051,354.641,283.168,356.795,278.093z"/>
<path d="M331.057,338.728l-5.869,13.825c-2.158,5.083,0.214,10.954,5.298,13.112c1.275,0.541,2.6,0.798,3.902,0.798
	c3.893,0,7.593-2.287,9.21-6.096l5.869-13.826c5.456,1.401,10.977,2.082,16.443,2.082c5.246,0,10.439-0.634,15.479-1.838
	l5.641,13.961c1.572,3.894,5.318,6.257,9.274,6.257c1.248,0,2.516-0.235,3.743-0.731c5.121-2.068,7.595-7.896,5.525-13.018
	l-5.639-13.956c9.112-5.38,17.009-12.951,22.794-22.354l13.824,5.868c1.275,0.541,2.6,0.798,3.902,0.798
	c3.893,0,7.593-2.287,9.21-6.096c2.158-5.083-0.214-10.954-5.298-13.112l-13.825-5.869c2.746-10.693,2.703-21.631,0.245-31.923
	l13.959-5.64c5.121-2.068,7.595-7.896,5.525-13.018c-2.068-5.12-7.896-7.594-13.018-5.525l-13.959,5.64
	c-5.381-9.112-12.948-17.01-22.352-22.794l5.869-13.825c2.158-5.083-0.214-10.954-5.298-13.112
	c-5.087-2.159-10.954,0.215-13.112,5.298l-5.869,13.825c-10.694-2.746-21.631-2.704-31.923-0.245l-5.64-13.959
	c-2.068-5.121-7.897-7.593-13.018-5.525c-5.121,2.068-7.595,7.896-5.525,13.018l5.64,13.958
	c-9.112,5.381-17.009,12.949-22.794,22.353l-13.825-5.869c-5.087-2.159-10.954,0.214-13.112,5.298
	c-2.158,5.083,0.214,10.954,5.298,13.112l13.825,5.869c-2.746,10.693-2.703,21.631-0.245,31.923l-13.959,5.64
	c-5.121,2.068-7.595,7.896-5.525,13.018c1.572,3.894,5.318,6.257,9.274,6.257c1.247,0,2.516-0.235,3.743-0.731l13.959-5.64
	C314.086,325.045,321.653,332.943,331.057,338.728z M323.083,263.783c4.866-11.464,13.904-20.346,25.451-25.012
	c5.646-2.28,11.561-3.42,17.472-3.42c6.178,0,12.353,1.245,18.211,3.731c11.464,4.866,20.346,13.904,25.012,25.451
	c4.665,11.547,4.555,24.219-0.312,35.683s-13.904,20.346-25.451,25.012c-11.546,4.662-24.22,4.554-35.683-0.312
	c-11.464-4.866-20.346-13.904-25.012-25.451C318.106,287.919,318.217,275.247,323.083,263.783z"/>
<g>
</g>
<g>
</g>
<g>
</g>
<g>
</g>
<g>
</g>
<g>
</g>
<g>
</g>
<g>
</g>
<g>
</g>
<g>
</g>
<g>
</g>
<g>
</g>
<g>
</g>
<g>
</g>
<g>
</g>
</svg>
