<?xml version="1.0" encoding="iso-8859-1"?>
<!-- Generator: Adobe Illustrator 19.0.0, SVG Export Plug-In . SVG Version: 6.00 Build 0)  -->
<svg version="1.1" id="Capa_1" xmlns="http://www.w3.org/2000/svg" xmlns:xlink="http://www.w3.org/1999/xlink" x="0px" y="0px"
	 viewBox="0 0 512 512" style="enable-background:new 0 0 512 512;" xml:space="preserve">
<g>
	<rect x="216.58" y="10" style="fill:#FAE196;" width="79.84" height="120"/>
	<polygon style="fill:#FAE196;" points="288.438,170 224.561,170 201.606,130 311.392,130 	"/>
	<polygon style="fill:#FAE196;" points="311.392,382 201.606,382 224.561,342 288.438,342 	"/>
	<rect x="216.58" y="382" style="fill:#FAE196;" width="79.84" height="120"/>
	<polygon style="fill:#FAE196;" points="336.343,288 336.343,224 376.266,201 376.266,311 	"/>
	<rect x="376.26" y="216" style="fill:#FAE196;" width="39.922" height="80"/>
	<polygon style="fill:#FAE196;" points="130.745,311 130.745,201 170.667,224 170.667,288 	"/>
	<rect x="10.979" y="216" style="fill:#FAE196;" width="119.77" height="80"/>
</g>
<polygon style="fill:#F5C86E;" points="336.343,224 288.438,224 288.438,170 224.561,170 224.561,224 170.667,224 170.667,288 
	224.561,288 224.561,342 288.438,342 288.438,288 336.343,288 "/>
<polygon style="fill:#FAE196;" points="491.041,201 491.041,181 451.119,181 451.119,201 416.188,201 416.188,311 503.018,311 
	503.018,201 "/>
<path d="M256.499,432c5.499,0,9.98-4.49,9.98-10s-4.481-10-9.98-10s-9.98,4.49-9.98,10S251,432,256.499,432z"/>
<path d="M502.02,191h-1.996v-10c0-5.522-4.469-10-9.981-10h-9.98v-20h14.971c5.512,0,9.98-4.478,9.98-10s-4.469-10-9.98-10h-49.903
	c-5.512,0-9.981,4.478-9.981,10s4.469,10,9.981,10h14.971v20h-9.981c-5.512,0-9.98,4.478-9.98,10v10H415.19
	c-5.512,0-9.98,4.478-9.98,10v5h-19.961c0,0,0-4.989,0-5c0-7.487-8.479-12.401-14.955-8.669L332.681,214h-35.262v-41.331
	c0,0,21.593-37.627,21.627-37.685C322.6,128.791,317.97,120,310.395,120h-4.99V10c0-5.522-4.469-10-9.98-10h-79.844
	c-5.512,0-9.981,4.478-9.981,10v110c0,0-4.97,0-4.99,0c-7.381,0-12.327,8.582-8.652,14.984l21.627,37.685V214h-41.25
	c0,0-37.549-21.633-37.612-21.669c-6.526-3.76-14.955,1.136-14.955,8.669v5H9.981C4.469,206,0,210.478,0,216v80
	c0,5.522,4.469,10,9.981,10h109.786c0,0,0,4.994,0,5c0,7.396,8.412,12.441,14.955,8.669L172.333,298h41.25v41.331
	c0,0-21.527,37.511-21.626,37.684c-3.676,6.406,1.319,14.985,8.652,14.985h4.99v110c0,5.522,4.469,10,9.981,10h79.844
	c5.512,0,9.98-4.478,9.98-10V392c0,0,4.967,0,4.99,0c7.488,0,12.383-8.486,8.652-14.984l-21.627-37.685V298h35.262
	c0,0,37.59,21.656,37.612,21.669c6.437,3.709,14.955-1.043,14.955-8.669v-5h19.961v5c0,5.522,4.469,10,9.98,10h86.83
	c5.512,0,9.98-4.478,9.98-10V201C512,195.478,507.531,191,502.02,191z M217.86,140h75.283l-11.478,20h-52.327L217.86,140z
	 M225.559,20h19.961v20c0,5.522,4.469,10,9.981,10c5.512,0,9.98-4.478,9.98-10V20h19.961v100H225.56L225.559,20L225.559,20z
	 M19.961,286v-60h99.805v60H19.961z M139.727,218.285l19.961,11.5v52.43l-19.961,11.5V218.285z M293.142,372H217.86l11.478-20
	h52.327L293.142,372z M285.443,492h-19.961v-30c0-5.51-4.481-10-9.98-10s-9.981,4.49-9.981,10v30H225.56V392h59.883V492z
	 M287.439,278c-5.512,0-9.98,4.478-9.98,10v44h-43.914v-44c0-5.522-4.469-10-9.98-10h-43.914v-44h43.914c5.512,0,9.98-4.478,9.98-10
	v-44h43.914v44c0,5.522,4.469,10,9.98,10h43.914v44H287.439z M345.326,229.785l19.961-11.5v75.43l-19.961-11.5V229.785z
	 M385.248,286v-60h19.961v60H385.248z M492.039,301h-66.869v-90h24.951c5.512,0,9.981-4.478,9.981-10v-10h19.961v10
	c0,5.522,4.469,10,9.98,10h1.996V301z"/>
<g>
</g>
<g>
</g>
<g>
</g>
<g>
</g>
<g>
</g>
<g>
</g>
<g>
</g>
<g>
</g>
<g>
</g>
<g>
</g>
<g>
</g>
<g>
</g>
<g>
</g>
<g>
</g>
<g>
</g>
</svg>
