<?xml version="1.0" encoding="iso-8859-1"?>
<!-- Generator: Adobe Illustrator 19.0.0, SVG Export Plug-In . SVG Version: 6.00 Build 0)  -->
<svg version="1.1" id="Layer_1" xmlns="http://www.w3.org/2000/svg" xmlns:xlink="http://www.w3.org/1999/xlink" x="0px" y="0px"
	 viewBox="0 0 503.607 503.607" style="enable-background:new 0 0 503.607 503.607;" xml:space="preserve">
<g transform="translate(1 1)">
	<path style="fill:#FFDD09;" d="M116.508,452.246h268.59v-50.361h-268.59V452.246z"/>
	<path style="fill:#FD9808;" d="M359.918,452.246h25.18v-50.361h-25.18V452.246z"/>
	<path style="fill:#FFDD09;" d="M99.721,242.41h16.787v-33.574H99.721V242.41z"/>
	<path style="fill:#FFFFFF;" d="M82.934,242.41h16.787v-33.574H82.934V242.41z"/>
	<path style="fill:#FFDD09;" d="M99.721,494.213h16.787V343.131H99.721V494.213z"/>
	<path style="fill:#FFFFFF;" d="M82.934,494.213h16.787V343.131H82.934V494.213z"/>
	<path style="fill:#FFDD09;" d="M99.721,108.115h16.787V74.541H99.721V108.115z"/>
	<path style="fill:#FFFFFF;" d="M82.934,108.115h16.787V74.541H82.934V108.115z"/>
	<path style="fill:#FFDD09;" d="M133.295,40.967c0-18.466-9.233-33.574-20.984-33.574S91.328,22.502,91.328,40.967
		s9.233,33.574,20.984,33.574S133.295,59.433,133.295,40.967"/>
	<path style="fill:#FFFFFF;" d="M92.167,40.967c0-15.948,6.715-29.377,15.948-32.734c-2.518-0.839-5.036-0.839-7.554-0.839
		c-18.466,0-33.574,15.108-33.574,33.574s15.108,33.574,33.574,33.574c2.518,0,5.036,0,7.554-0.839
		C98.882,70.344,92.167,56.915,92.167,40.967"/>
	<path style="fill:#FFDD09;" d="M385.938,242.41h16.787v-33.574h-16.787V242.41z"/>
	<path style="fill:#FD9808;" d="M402.725,242.41h16.787v-33.574h-16.787V242.41z"/>
	<path style="fill:#FFDD09;" d="M385.938,494.213h16.787V343.131h-16.787V494.213z"/>
	<path style="fill:#FD9808;" d="M402.725,494.213h16.787V343.131h-16.787V494.213z"/>
	<path style="fill:#FFDD09;" d="M385.938,108.115h16.787V74.541h-16.787V108.115z"/>
	<path style="fill:#FD9808;" d="M402.725,108.115h16.787V74.541h-16.787V108.115z"/>
	<path style="fill:#FFDD09;" d="M369.151,40.967c0-18.466,9.233-33.574,20.984-33.574c11.751,0,20.984,15.108,20.984,33.574
		s-9.233,33.574-20.984,33.574C378.384,74.541,369.151,59.433,369.151,40.967"/>
	<path style="fill:#FD9808;" d="M410.279,40.967c0-15.948-6.715-29.377-15.948-32.734c2.518-0.839,5.036-0.839,7.554-0.839
		c18.466,0,33.574,15.108,33.574,33.574s-15.108,33.574-33.574,33.574c-2.518,0-5.036,0-7.554-0.839
		C403.564,70.344,410.279,56.915,410.279,40.967"/>
	<g>
		<path style="fill:#FFDD09;" d="M494.213,208.836v-47.843l-47.843,47.843H494.213z"/>
		<path style="fill:#FFDD09;" d="M328.023,208.836H446.37l47.843-47.843v-52.879h-66.308L328.023,208.836z"/>
		<path style="fill:#FFDD09;" d="M72.023,108.115H7.393v64.63L72.023,108.115z"/>
	</g>
	<path style="fill:#54C9FD;" d="M72.023,108.115l-64.63,64.63v36.092h83.095L191.21,108.115H72.023z"/>
	<path style="fill:#FFFFFF;" d="M7.393,208.836h25.18V108.115H7.393V208.836z"/>
	<path style="fill:#FD9808;" d="M469.033,208.836h25.18V108.115h-25.18V208.836z"/>
	<path style="fill:#FFDD09;" d="M208.836,208.836l100.721-100.721H191.21L90.489,208.836H208.836z"/>
	<path style="fill:#54C9FD;" d="M208.836,208.836h118.348l100.721-100.721H309.557L208.836,208.836z"/>
	<g>
		<path style="fill:#FFDD09;" d="M328.023,343.131h149.403l16.787-47.843V242.41h-66.308L328.023,343.131z"/>
		<path style="fill:#FFDD09;" d="M72.023,242.41H7.393v64.63L72.023,242.41z"/>
	</g>
	<path style="fill:#54C9FD;" d="M72.023,242.41l-64.63,64.63v36.092h83.095L191.21,242.41H72.023z"/>
	<path style="fill:#FFFFFF;" d="M7.393,343.131h25.18V242.41H7.393V343.131z"/>
	<path style="fill:#FD9808;" d="M469.033,343.131h25.18V242.41h-25.18V343.131z"/>
	<path style="fill:#FFDD09;" d="M208.836,343.131L309.557,242.41H191.21L90.489,343.131H208.836z"/>
	<path style="fill:#54C9FD;" d="M208.836,343.131h118.348L427.905,242.41H309.557L208.836,343.131z"/>
	<path d="M494.213,217.229H7.393c-5.036,0-8.393-3.357-8.393-8.393V108.115c0-5.036,3.357-8.393,8.393-8.393h486.82
		c5.036,0,8.393,3.357,8.393,8.393v100.721C502.607,213.872,499.249,217.229,494.213,217.229z M15.787,200.443H485.82v-83.934
		H15.787V200.443z"/>
	<path d="M99.721,82.934c-22.662,0-41.967-18.466-41.967-41.967S76.22-1,99.721-1s41.967,18.466,41.967,41.967
		S123.223,82.934,99.721,82.934z M99.721,15.787c-13.43,0-25.18,10.911-25.18,25.18s10.911,25.18,25.18,25.18
		s25.18-10.911,25.18-25.18S113.99,15.787,99.721,15.787z"/>
	<path d="M116.508,502.607H82.934c-5.036,0-8.393-3.357-8.393-8.393V343.131c0-5.036,3.357-8.393,8.393-8.393h33.574
		c5.036,0,8.393,3.357,8.393,8.393v151.082C124.902,499.249,121.544,502.607,116.508,502.607z M91.328,485.82h16.787V351.525H91.328
		V485.82z"/>
	<path d="M116.508,250.803H82.934c-5.036,0-8.393-3.357-8.393-8.393v-33.574c0-5.036,3.357-8.393,8.393-8.393h33.574
		c5.036,0,8.393,3.357,8.393,8.393v33.574C124.902,247.446,121.544,250.803,116.508,250.803z M91.328,234.016h16.787v-16.787H91.328
		V234.016z"/>
	<path d="M418.672,502.607h-33.574c-5.036,0-8.393-3.357-8.393-8.393V343.131c0-5.036,3.357-8.393,8.393-8.393h33.574
		c5.036,0,8.393,3.357,8.393,8.393v151.082C427.066,499.249,423.708,502.607,418.672,502.607z M393.492,485.82h16.787V351.525
		h-16.787V485.82z"/>
	<path d="M418.672,250.803h-33.574c-5.036,0-8.393-3.357-8.393-8.393v-33.574c0-5.036,3.357-8.393,8.393-8.393h33.574
		c5.036,0,8.393,3.357,8.393,8.393v33.574C427.066,247.446,423.708,250.803,418.672,250.803z M393.492,234.016h16.787v-16.787
		h-16.787V234.016z"/>
	<path d="M418.672,116.508h-33.574c-5.036,0-8.393-3.357-8.393-8.393v-38.61c0-3.357,1.679-5.875,4.197-7.554
		c2.518-1.679,5.875-1.679,8.393,0c8.393,5.036,16.787,5.036,25.18,0c2.518-1.679,5.875-1.679,8.393,0
		c2.518,2.518,4.197,5.036,4.197,7.554v38.61C427.066,113.151,423.708,116.508,418.672,116.508z M393.492,99.721h16.787V82.095
		c-5.875,0.839-10.911,0.839-16.787,0V99.721z"/>
	<path d="M385.098,460.639h-268.59c-5.036,0-8.393-3.357-8.393-8.393v-50.361c0-5.036,3.357-8.393,8.393-8.393h268.59
		c5.036,0,8.393,3.357,8.393,8.393v50.361C393.492,457.282,390.134,460.639,385.098,460.639z M124.902,443.852h251.803v-33.574
		H124.902V443.852z"/>
	<path d="M7.393,181.138c-0.839,0-2.518,0-3.357-0.839C1.518,179.459-1,176.102-1,172.744v-64.63c0-5.036,3.357-8.393,8.393-8.393
		h64.63c3.357,0,6.715,1.679,7.554,5.036c1.679,3.357,0.839,6.715-1.679,9.233l-64.63,64.63
		C11.59,180.298,9.911,181.138,7.393,181.138z M15.787,116.508V152.6l36.092-36.092H15.787z"/>
	<path d="M90.489,217.229H7.393c-5.036,0-8.393-3.357-8.393-8.393v-36.092c0-2.518,0.839-4.197,2.518-5.875l64.63-64.629
		c1.679-1.679,4.197-2.518,5.875-2.518H190.37c3.357,0,6.715,1.679,7.554,5.036c1.679,3.357,0.839,6.715-1.679,9.233L95.525,214.711
		C94.685,216.39,92.167,217.229,90.489,217.229z M15.787,200.443h70.505l83.934-83.934H75.38l-59.593,59.593V200.443z"/>
	<path d="M208.836,217.229H90.489c-3.357,0-6.715-1.679-7.554-5.036c-1.679-3.357-0.839-6.715,1.679-9.233l100.721-100.721
		c1.679-1.679,3.357-2.518,5.875-2.518h118.348c3.357,0,6.715,1.679,7.554,5.036c1.679,3.357,0.839,6.715-1.679,9.233
		L214.711,214.711C213.033,216.39,211.354,217.229,208.836,217.229z M110.633,200.443h94.846l83.934-83.934h-94.846L110.633,200.443
		z"/>
	<path d="M328.023,217.229H208.836c-3.357,0-6.715-1.679-7.554-5.036c-1.679-3.357-0.839-6.715,1.679-9.233l100.721-100.721
		c1.679-1.679,3.357-2.518,5.875-2.518h118.348c3.357,0,6.715,1.679,7.554,5.036c1.679,3.357,0.839,6.715-1.679,9.233
		L333.059,214.711C332.22,216.39,329.702,217.229,328.023,217.229z M228.98,200.443h94.846l83.934-83.934h-94.846L228.98,200.443z"
		/>
	<path d="M446.37,217.229H328.023c-3.357,0-6.715-1.679-7.554-5.036c-1.679-3.357-0.839-6.715,1.679-9.233l100.721-100.721
		c1.679-1.679,3.357-2.518,5.875-2.518h65.469c5.036,0,8.393,3.357,8.393,8.393v52.879c0,2.518-0.839,4.197-2.518,5.875
		l-47.843,47.843C450.567,216.39,448.888,217.229,446.37,217.229z M348.167,200.443h94.846l42.807-42.807v-41.128h-53.718
		L348.167,200.443z"/>
	<path d="M494.213,217.229H446.37c-3.357,0-6.715-1.679-7.554-5.036c-1.679-3.357-0.839-6.715,1.679-9.233l47.843-47.843
		c2.518-2.518,5.875-3.357,9.233-1.679c3.357,1.679,5.036,4.197,5.036,7.554v47.843
		C502.607,213.872,499.249,217.229,494.213,217.229z M466.515,200.443h19.305v-19.305L466.515,200.443z"/>
	<path d="M494.213,351.525H7.393c-5.036,0-8.393-3.357-8.393-8.393V242.41c0-5.036,3.357-8.393,8.393-8.393h486.82
		c5.036,0,8.393,3.357,8.393,8.393v100.721C502.607,348.167,499.249,351.525,494.213,351.525z M15.787,334.738H485.82v-83.934
		H15.787V334.738z"/>
	<path d="M7.393,315.433c-0.839,0-2.518,0-3.357-0.839C1.518,313.754-1,310.397-1,307.039v-64.63c0-5.036,3.357-8.393,8.393-8.393
		h64.63c3.357,0,6.715,1.679,7.554,5.036c1.679,3.357,0.839,6.715-1.679,9.233l-64.63,64.63
		C11.59,314.593,9.911,315.433,7.393,315.433z M15.787,250.803v36.092l36.092-36.092H15.787z"/>
	<path d="M90.489,351.525H7.393c-5.036,0-8.393-3.357-8.393-8.393v-36.092c0-2.518,0.839-4.197,2.518-5.875l64.63-64.63
		c1.679-1.679,4.197-2.518,5.875-2.518H190.37c3.357,0,6.715,1.679,7.554,5.036c1.679,3.357,0.839,6.715-1.679,9.233L95.525,349.007
		C94.685,350.685,92.167,351.525,90.489,351.525z M15.787,334.738h70.505l83.934-83.934H75.38l-59.593,59.593V334.738z"/>
	<path d="M208.836,351.525H90.489c-3.357,0-6.715-1.679-7.554-5.036c-0.839-3.357-0.839-6.715,1.679-9.233l100.721-100.721
		c1.679-1.679,3.357-2.518,5.875-2.518h118.348c3.357,0,6.715,1.679,7.554,5.036c1.679,3.357,0.839,6.715-1.679,9.233
		L214.711,349.007C213.033,350.685,211.354,351.525,208.836,351.525z M110.633,334.738h94.846l83.934-83.934h-94.846
		L110.633,334.738z"/>
	<path d="M328.023,351.525H208.836c-3.357,0-6.715-1.679-7.554-5.036c-0.839-3.357-0.839-6.715,1.679-9.233l100.721-100.721
		c1.679-1.679,3.357-2.518,5.875-2.518h118.348c3.357,0,6.715,1.679,7.554,5.036c1.679,3.357,0.839,6.715-1.679,9.233
		L333.059,349.007C332.22,350.685,329.702,351.525,328.023,351.525z M228.98,334.738h94.846l83.934-83.934h-94.846L228.98,334.738z"
		/>
	<path d="M446.37,351.525H328.023c-3.357,0-6.715-1.679-7.554-5.036c-1.679-3.357-0.839-6.715,1.679-9.233l100.721-100.721
		c1.679-1.679,3.357-2.518,5.875-2.518h65.469c5.036,0,8.393,3.357,8.393,8.393v52.879c0,2.518-0.839,4.197-2.518,5.875
		l-47.843,47.843C450.567,350.685,448.888,351.525,446.37,351.525z M348.167,334.738h94.846l42.807-42.807v-41.128h-53.718
		L348.167,334.738z"/>
	<path d="M494.213,351.525H446.37c-3.357,0-6.715-1.679-7.554-5.036c-1.679-3.357-0.839-6.715,1.679-9.233l47.843-47.843
		c2.518-2.518,5.875-3.357,9.233-1.679c3.357,1.679,5.036,4.197,5.036,7.554v47.843
		C502.607,348.167,499.249,351.525,494.213,351.525z M466.515,334.738h19.305v-19.305L466.515,334.738z"/>
	<path d="M116.508,116.508H82.934c-5.036,0-8.393-3.357-8.393-8.393v-38.61c0-3.357,1.679-5.875,4.197-7.554s5.875-1.679,8.393,0
		c8.393,5.036,16.787,5.036,25.18,0c2.518-1.679,5.875-1.679,8.393,0c2.518,2.518,4.197,5.036,4.197,7.554v38.61
		C124.902,113.151,121.544,116.508,116.508,116.508z M91.328,99.721h16.787V82.095c-5.875,0.839-10.911,0.839-16.787,0V99.721z"/>
	<path d="M401.885,82.934c-23.502,0-41.967-18.466-41.967-41.967S378.384-1,401.885-1s41.967,18.466,41.967,41.967
		S425.387,82.934,401.885,82.934z M401.885,15.787c-14.269,0-25.18,10.911-25.18,25.18s10.911,25.18,25.18,25.18
		s25.18-10.911,25.18-25.18S416.154,15.787,401.885,15.787z"/>
</g>
<g>
</g>
<g>
</g>
<g>
</g>
<g>
</g>
<g>
</g>
<g>
</g>
<g>
</g>
<g>
</g>
<g>
</g>
<g>
</g>
<g>
</g>
<g>
</g>
<g>
</g>
<g>
</g>
<g>
</g>
</svg>
