<svg id="Layer_1" enable-background="new 0 0 480 480" height="512" viewBox="0 0 480 480" width="512" xmlns="http://www.w3.org/2000/svg"><path d="m442 322v102c0 26.507-21.479 48-48 48h-308c-26.51 0-48-21.49-48-48v-392c0-13.25 10.75-24 24-24h260c13.25 0 24 10.75 24 24v36.4c-.42.12-.85.73-1.28 1.79.43.11.86.22 1.28.34v227.47h72c13.25 0 24 10.75 24 24z" fill="#d1e7ff"/><path d="m346 32c0 14.098-10.74 25.837-24.774 27.174-130.801 12.466-233.226 122.62-233.226 256.826v108.423c0 32.622-50 34.273-50-.422v-392.001c0-13.255 10.745-24 24-24h260c13.255 0 24 10.745 24 24z" fill="#e8f3ff"/><path d="m346 68.4v2.13c-.42-.12-.85-.23-1.28-.34.43-1.06.86-1.67 1.28-1.79z" fill="#d6f4fc"/><path d="m442 322v102c0 26.507-21.479 48-48 48-26.51 0-48-21.49-48-48v-126h72c13.25 0 24 10.75 24 24z" fill="#b9dcff"/><path d="m417 164c0 53.598-43.461 97-97 97-72.441 0-119.219-76.719-86.47-141 16.062-31.491 48.795-53 86.47-53 53.529 0 97 43.393 97 97z" fill="#d1e7ff"/><path d="m364.121 77.457c14.377 7.263 9.518 29.14-6.584 29.57-51.971 1.39-93.025 42.979-94.503 94.162-.465 16.098-22.203 21.135-29.515 6.786-14.042-27.556-14.03-60.414.011-87.975 25.998-50.972 85.769-65.187 130.591-42.543z" fill="#e8f3ff"/><path d="m215 164c0 57.897 47.103 105 105 105s105-47.103 105-105-47.103-105-105-105-105 47.103-105 105zm194 0c0 49.075-39.925 89-89 89s-89-39.925-89-89 39.925-89 89-89 89 39.925 89 89zm-89-54c4.418 0 8 3.582 8 8v3.376c9.311 3.303 16 12.195 16 22.624 0 4.418-3.582 8-8 8s-8-3.582-8-8c0-4.411-3.589-8-8-8s-8 3.589-8 8v3.237c0 3.518 2.256 6.586 5.614 7.636l9.544 2.982c10.074 3.149 16.842 12.355 16.842 22.908v3.237c0 11.519-8.159 21.166-19 23.473v2.527c0 4.418-3.582 8-8 8s-8-3.582-8-8v-4.68c-7.714-3.996-13-12.05-13-21.32 0-4.418 3.582-8 8-8s8 3.582 8 8c0 4.411 3.589 8 8 8s8-3.589 8-8v-3.237c0-3.518-2.256-6.586-5.614-7.636l-9.544-2.982c-10.074-3.149-16.842-12.355-16.842-22.908v-3.237c0-10.429 6.689-19.321 16-22.624v-3.376c0-4.418 3.582-8 8-8zm130 212v102c0 30.879-25.122 56-56 56h-308c-30.878 0-56-25.121-56-56v-392c0-17.645 14.355-32 32-32h260c17.645 0 32 14.355 32 32 0 4.418-3.582 8-8 8s-8-3.582-8-8c0-8.822-7.178-16-16-16h-260c-8.822 0-16 7.178-16 16v392c0 22.056 17.944 40 40 40h268.862c-10.395-10.172-16.862-24.342-16.862-40v-125c0-4.418 3.582-8 8-8s8 3.582 8 8v125c0 22.056 17.944 40 40 40s40-17.944 40-40v-102c0-8.822-7.178-16-16-16h-34c-4.418 0-8-3.582-8-8s3.582-8 8-8h34c17.645 0 32 14.355 32 32zm-350-107c0-4.418 3.582-8 8-8h68c4.418 0 8 3.582 8 8s-3.582 8-8 8h-68c-4.418 0-8-3.582-8-8zm0-90c0-4.418 3.582-8 8-8h68c4.418 0 8 3.582 8 8s-3.582 8-8 8h-68c-4.418 0-8-3.582-8-8zm184 180c0 4.418-3.582 8-8 8h-168c-4.418 0-8-3.582-8-8s3.582-8 8-8h168c4.418 0 8 3.582 8 8zm0 84c0 4.418-3.582 8-8 8h-168c-4.418 0-8-3.582-8-8s3.582-8 8-8h168c4.418 0 8 3.582 8 8z" fill="#2e58ff"/></svg>