<?xml version="1.0"?>
<svg xmlns="http://www.w3.org/2000/svg" xmlns:xlink="http://www.w3.org/1999/xlink" version="1.1" id="Capa_1" x="0px" y="0px" viewBox="0 0 512 512" style="enable-background:new 0 0 512 512;" xml:space="preserve" width="512px" height="512px"><g><g>
	<g>
		<path d="M436.813,75.188C388.327,26.702,324.113,0,256,0S123.673,26.702,75.188,75.188C26.702,123.673,0,187.887,0,256    s26.702,132.327,75.188,180.812C123.673,485.298,187.887,512,256,512s132.327-26.702,180.813-75.188    C485.298,388.327,512,324.113,512,256S485.298,123.673,436.813,75.188z M256,482C131.383,482,30,380.617,30,256S131.383,30,256,30    s226,101.383,226,226S380.617,482,256,482z" data-original="#000000" class="active-path" data-old_color="#000000" fill="#8BC34A"/>
	</g>
</g><g>
	<g>
		<path d="M359.477,148.888L226,282.365l-83.789-83.789l-63.635,63.635L226,409.635l197.111-197.112L359.477,148.888z     M121.002,262.211l21.209-21.208L226,324.792l133.477-133.477l21.209,21.208L226,367.208L121.002,262.211z" data-original="#000000" class="active-path" data-old_color="#000000" fill="#8BC34A"/>
	</g>
</g></g> </svg>
