<svg id="completed" enable-background="new 0 0 300 300" height="512" viewBox="0 0 300 300" width="512" xmlns="http://www.w3.org/2000/svg"><g><circle cx="112.96" cy="153.304" fill="#e5efef" r="86"/><g><path d="m168.605 262.374h-83.29c-10.137 0-18.355-8.218-18.355-18.355v-153.237c0-10.758 8.721-19.478 19.478-19.478h81.043c10.758 0 19.478 8.721 19.478 19.478v153.236c.001 10.138-8.217 18.356-18.354 18.356z" fill="#fff"/><path d="m168.605 266.373h-83.289c-12.327 0-22.355-10.028-22.355-22.354v-153.237c0-12.946 10.532-23.479 23.479-23.479h81.043c12.946 0 23.479 10.532 23.479 23.479v153.236c-.002 12.327-10.03 22.355-22.357 22.355zm-82.166-191.069c-8.535 0-15.479 6.944-15.479 15.479v153.236c0 7.915 6.439 14.354 14.355 14.354h83.289c7.916 0 14.355-6.439 14.355-14.354v-153.237c0-8.535-6.943-15.479-15.479-15.479h-81.041z" fill="#4c241d"/></g><g><path d="m173.662 263.304h-93.404c-7.344 0-13.298-5.954-13.298-13.298v-18.702h120v18.702c0 7.344-5.954 13.298-13.298 13.298z" fill="#b5a19c"/><path d="m173.662 267.304h-93.404c-9.538 0-17.298-7.76-17.298-17.298v-18.702c0-2.209 1.791-4 4-4h120c2.209 0 4 1.791 4 4v18.702c0 9.538-7.76 17.298-17.298 17.298zm-102.702-32v14.702c0 5.127 4.171 9.298 9.298 9.298h93.404c5.127 0 9.298-4.171 9.298-9.298v-14.702z" fill="#4c241d"/></g><g fill="#4c241d"><circle cx="127.403" cy="246.806" r="5.702"/><circle cx="40.96" cy="53.304" r="4.787"/><circle cx="40.96" cy="73.304" r="4.787"/><circle cx="40.96" cy="93.304" r="4.787"/><path d="m122.96 179.304c-1.06 0-2.077-.42-2.828-1.172l-12-12c-1.562-1.562-1.562-4.095 0-5.656 1.561-1.562 4.096-1.562 5.656 0l8.977 8.977 25.185-28.782c1.455-1.663 3.982-1.829 5.645-.377 1.663 1.455 1.831 3.982.377 5.645l-28 32c-.729.833-1.771 1.327-2.878 1.364-.045 0-.09.001-.134.001z"/></g><g><path d="m176.714 191.167-41.767-77.747c-2.637-4.909-.795-11.026 4.113-13.663 4.909-2.637 11.026-.795 13.663 4.113l26.595 49.505 52.668-28.021 34.78 64.742c4.984 9.277 1.527 20.824-7.72 25.792l-28.815 15.48c-9.726 5.225-21.42 5.247-31.166.059l-59.85-31.859c-4.789-2.549-6.877-8.306-4.836-13.332l.099-.243c2.26-5.566 8.54-8.243 14.071-6.027 11.298 4.529 28.165 11.201 28.165 11.201z" fill="#e7d1c4"/><path d="m214.594 239.314c-5.977 0-11.954-1.451-17.407-4.354l-59.851-31.859c-6.619-3.523-9.483-11.42-6.662-18.368l.098-.242c3.074-7.568 11.717-11.263 19.267-8.235 5.506 2.206 12.389 4.943 17.97 7.159l-36.584-68.101c-1.781-3.315-2.165-7.125-1.08-10.729s3.508-6.569 6.824-8.351c6.842-3.674 15.401-1.101 19.079 5.744l24.71 45.997 49.15-26.149c1.949-1.036 4.36-.301 5.402 1.639l34.78 64.741c6.02 11.204 1.825 25.204-9.35 31.209l-28.816 15.479c-5.484 2.945-11.507 4.42-17.53 4.42zm-70.037-56.117c-2.706 0-5.287 1.631-6.372 4.303l-.098.242c-1.275 3.14.019 6.706 3.008 8.297l59.851 31.859c8.584 4.567 18.825 4.551 27.394-.052l28.815-15.479c7.289-3.917 10.021-13.058 6.089-20.376l-32.896-61.232-49.15 26.149c-1.945 1.033-4.36.302-5.402-1.639l-26.596-49.505c-1.591-2.958-5.29-4.073-8.246-2.483-1.434.77-2.481 2.052-2.95 3.609s-.303 3.204.467 4.637l41.767 77.748c.795 1.479.581 3.297-.535 4.552-1.117 1.255-2.897 1.675-4.46 1.061-.168-.067-17.004-6.728-28.181-11.206-.82-.329-1.668-.485-2.505-.485z" fill="#4c241d"/></g><g><path d="m187.795 169.155-14.757-27.47c-2.595-4.83-.783-10.85 4.048-13.445 4.83-2.595 10.85-.783 13.445 4.048l14.757 27.47" fill="#e7d1c4"/><path d="m187.799 173.156c-1.426 0-2.806-.764-3.527-2.108l-14.757-27.47c-1.761-3.276-2.141-7.043-1.068-10.606 1.072-3.562 3.468-6.494 6.745-8.255 6.767-3.632 15.229-1.087 18.862 5.679l14.758 27.47c1.046 1.945.315 4.371-1.631 5.416-1.946 1.048-4.371.314-5.416-1.631l-14.758-27.47c-1.548-2.879-5.147-3.962-8.029-2.417-1.395.75-2.414 1.998-2.87 3.515-.457 1.516-.295 3.119.454 4.514l14.757 27.471c1.046 1.945.315 4.371-1.631 5.416-.602.322-1.25.476-1.889.476z" fill="#4c241d"/></g><g><path d="m205.288 159.757-14.427-26.855c-2.656-4.944-.801-11.105 4.143-13.761 4.944-2.656 11.105-.801 13.761 4.143l14.427 26.855" fill="#e7d1c4"/><path d="m205.292 163.758c-1.426 0-2.806-.764-3.527-2.108l-14.428-26.855c-1.791-3.331-2.176-7.161-1.085-10.784 1.09-3.622 3.525-6.602 6.858-8.392 3.331-1.791 7.162-2.177 10.784-1.085 3.623 1.091 6.604 3.527 8.394 6.859l14.427 26.854c1.046 1.946.315 4.372-1.63 5.417-1.949 1.048-4.373.316-5.417-1.63l-14.428-26.854c-.779-1.451-2.076-2.511-3.651-2.985-1.577-.474-3.243-.307-4.693.473-1.449.778-2.509 2.075-2.983 3.651s-.307 3.242.472 4.691l14.428 26.856c1.046 1.945.315 4.371-1.631 5.416-.603.323-1.251.476-1.89.476z" fill="#4c241d"/></g><g><path d="m224.651 152.857-10.033-18.676c-2.545-4.738-.768-10.642 3.97-13.188 4.738-2.545 10.642-.768 13.188 3.97l12.695 23.632" fill="#e7d1c4"/><path d="m224.655 156.858c-1.426 0-2.806-.764-3.527-2.108l-10.033-18.676c-3.586-6.673-1.073-15.019 5.6-18.604 3.234-1.737 6.952-2.109 10.463-1.053 3.514 1.058 6.405 3.421 8.142 6.654l12.695 23.632c1.046 1.945.315 4.371-1.631 5.416-1.945 1.048-4.372.315-5.416-1.631l-12.695-23.632c-.726-1.35-1.934-2.337-3.401-2.778-1.468-.442-3.019-.286-4.37.439-2.787 1.497-3.836 4.983-2.339 7.771l10.033 18.677c1.046 1.945.315 4.371-1.631 5.416-.603.323-1.251.477-1.89.477z" fill="#4c241d"/></g><path d="m202.96 81.304c-2.209 0-4-1.791-4-4 0-9.925-8.075-18-18-18-2.209 0-4-1.791-4-4s1.791-4 4-4c14.337 0 26 11.664 26 26 0 2.209-1.791 4-4 4z" fill="#4c241d"/><path d="m221.568 81.304c-2.209 0-4-1.791-4-4 0-20.186-16.423-36.608-36.608-36.608-2.209 0-4-1.791-4-4s1.791-4 4-4c24.597 0 44.608 20.011 44.608 44.608 0 2.209-1.791 4-4 4z" fill="#4c241d"/><circle cx="88.211" cy="94.053" fill="#02eae6" r="5.889"/></g></svg>