<?xml version="1.0" encoding="iso-8859-1"?>
<!-- Generator: Adobe Illustrator 19.0.0, SVG Export Plug-In . SVG Version: 6.00 Build 0)  -->
<svg version="1.1" id="Capa_1" xmlns="http://www.w3.org/2000/svg" xmlns:xlink="http://www.w3.org/1999/xlink" x="0px" y="0px"
	 viewBox="0 0 512 512" style="enable-background:new 0 0 512 512;" xml:space="preserve">
<path style="fill:#FFDECC;" d="M25.6,8.533v494.933h341.333v-1.536c-2.97-0.495-5.888-1.118-8.764-1.877l-0.316-0.085
	c-2.842-0.742-5.623-1.596-8.337-2.56l-0.341-0.128c-2.748-0.998-5.444-2.091-8.073-3.311h-0.068
	c-13.022-6.033-24.636-14.737-34.082-25.549c-0.324-0.367-0.666-0.708-0.973-1.075c-1.34-1.57-2.56-3.217-3.823-4.873
	c-0.657-0.853-1.331-1.707-1.963-2.62c-1.033-1.476-1.997-3.004-2.961-4.54c-0.725-1.152-1.451-2.313-2.133-3.507
	c-0.853-1.434-1.587-2.893-2.347-4.378c-0.759-1.485-1.365-2.756-2.005-4.173s-1.254-2.825-1.826-4.267
	c-0.631-1.57-1.195-3.166-1.707-4.77c-0.469-1.374-0.939-2.748-1.357-4.147c-0.521-1.775-0.956-3.584-1.382-5.402
	c-0.316-1.306-0.649-2.56-0.905-3.925c-0.41-2.082-0.691-4.207-0.973-6.34c-0.145-1.109-0.341-2.202-0.452-3.328
	c-0.358-3.328-0.546-6.647-0.546-10.01c0-3.362,0.188-6.682,0.503-9.958c0.111-1.126,0.307-2.219,0.452-3.328
	c0.282-2.133,0.563-4.267,0.973-6.34c0.256-1.323,0.589-2.62,0.896-3.925c0.435-1.818,0.853-3.627,1.391-5.402
	c0.418-1.399,0.853-2.765,1.357-4.139c0.546-1.613,1.118-3.209,1.707-4.779c0.572-1.442,1.186-2.859,1.826-4.267
	c0.64-1.408,1.306-2.799,2.014-4.181c0.708-1.382,1.519-2.935,2.338-4.369c0.683-1.195,1.408-2.347,2.133-3.507
	c0.956-1.536,1.929-3.063,2.961-4.54c0.631-0.853,1.314-1.758,1.971-2.628c1.237-1.647,2.475-3.294,3.806-4.864
	c0.324-0.375,0.674-0.725,0.998-1.092c9.446-10.812,21.06-19.507,34.082-25.54h0.043c2.637-1.22,5.333-2.313,8.081-3.311
	l0.341-0.119c2.722-0.981,5.495-1.835,8.329-2.56l0.341-0.085c2.842-0.751,5.76-1.374,8.747-1.877V8.533H25.6z"/>
<path style="fill:#98CDF4;" d="M358.187,302.08l-0.341,0.085c-2.842,0.742-5.623,1.596-8.329,2.56l-0.341,0.119
	c-2.748,0.99-5.444,2.091-8.081,3.311h-0.043c-13.022,6.033-24.636,14.737-34.082,25.54c-0.324,0.367-0.674,0.717-0.998,1.092
	c-1.331,1.57-2.56,3.217-3.806,4.864c-0.657,0.853-1.34,1.707-1.971,2.628c-1.033,1.476-2.005,3.004-2.961,4.54
	c-0.725,1.161-1.451,2.313-2.133,3.507c-0.853,1.425-1.587,2.893-2.338,4.369s-1.374,2.765-2.014,4.181
	c-0.64,1.417-1.254,2.825-1.826,4.267c-0.631,1.57-1.203,3.166-1.707,4.779c-0.469,1.365-0.939,2.739-1.357,4.139
	c-0.521,1.775-0.956,3.593-1.391,5.402c-0.307,1.306-0.64,2.56-0.896,3.925c-0.41,2.082-0.691,4.215-0.973,6.34
	c-0.145,1.109-0.341,2.202-0.452,3.328c-0.358,3.328-0.546,6.647-0.546,10.01c0,3.362,0.188,6.682,0.503,9.958
	c0.111,1.126,0.307,2.219,0.452,3.328c0.282,2.125,0.563,4.267,0.973,6.34c0.256,1.323,0.589,2.62,0.905,3.925
	c0.427,1.818,0.853,3.627,1.382,5.402c0.418,1.399,0.853,2.773,1.357,4.147c0.546,1.604,1.118,3.2,1.707,4.77
	c0.572,1.442,1.186,2.859,1.826,4.267c0.64,1.408,1.306,2.799,2.005,4.173s1.527,2.944,2.347,4.378
	c0.683,1.195,1.408,2.355,2.133,3.507c0.964,1.536,1.929,3.063,2.961,4.54c0.631,0.853,1.306,1.707,1.963,2.62
	c1.246,1.655,2.483,3.302,3.823,4.873c0.307,0.367,0.657,0.708,0.973,1.075c9.446,10.803,21.06,19.507,34.082,25.549h0.068
	c2.628,1.22,5.325,2.313,8.073,3.311l0.341,0.128c2.731,0.973,5.513,1.826,8.337,2.56l0.316,0.085
	c2.876,0.742,5.794,1.382,8.764,1.877l0,0c55.706,9.762,108.774-27.486,118.537-83.191s-27.486-108.774-83.191-118.537
	c-11.691-2.048-23.646-2.048-35.337,0l0,0C363.964,300.681,361.062,301.321,358.187,302.08z M418.133,349.867l17.067,17.067
	l-34.133,34.133L435.2,435.2l-17.067,17.067L384,418.133l-34.133,34.133L332.8,435.2l34.133-34.133L332.8,366.933l17.067-17.067
	L384,384L418.133,349.867z"/>
<polygon style="fill:#E69C5A;" points="332.8,366.933 366.933,401.067 332.8,435.2 349.867,452.267 384,418.133 418.133,452.267 
	435.2,435.2 401.067,401.067 435.2,366.933 418.133,349.867 384,384 349.867,349.867 "/>
<path d="M366.933,0H25.6c-4.71,0-8.533,3.823-8.533,8.533v494.933c0,4.71,3.823,8.533,8.533,8.533H384
	c61.269,0,110.933-49.664,110.933-110.933S445.269,290.133,384,290.133c-2.884,0-5.709,0.213-8.533,0.435V8.533
	C375.467,3.823,371.644,0,366.933,0z M34.133,494.933V17.067H358.4v276.164c-59.529,14.012-96.427,73.626-82.415,133.154
	c6.69,28.433,24.354,53.077,49.135,68.548H34.133z M477.867,401.067c0,51.84-42.027,93.867-93.867,93.867
	s-93.867-42.027-93.867-93.867S332.16,307.2,384,307.2C435.814,307.26,477.807,349.252,477.867,401.067z"/>
<rect x="110.933" y="42.667" width="170.667" height="17.067"/>
<rect x="76.8" y="145.067" width="85.333" height="17.067"/>
<rect x="179.2" y="145.067" width="93.867" height="17.067"/>
<rect x="162.133" y="187.733" width="85.333" height="17.067"/>
<rect x="162.133" y="230.4" width="153.6" height="17.067"/>
<rect x="76.8" y="273.067" width="238.933" height="17.067"/>
<rect x="290.133" y="145.067" width="25.6" height="17.067"/>
<rect x="264.533" y="187.733" width="51.2" height="17.067"/>
<rect x="76.8" y="315.733" width="179.2" height="17.067"/>
<rect x="76.8" y="358.4" width="179.2" height="17.067"/>
<rect x="76.8" y="401.067" width="51.2" height="17.067"/>
<rect x="145.067" y="401.067" width="110.933" height="17.067"/>
<rect x="76.8" y="102.4" width="238.933" height="17.067"/>
<rect x="76.8" y="187.733" width="59.733" height="17.067"/>
<rect x="76.8" y="230.4" width="68.267" height="17.067"/>
<path d="M326.767,441.233l17.067,17.067c3.328,3.328,8.738,3.328,12.066,0l28.1-28.1l28.1,28.1c3.328,3.328,8.738,3.328,12.066,0
	l17.067-17.067c3.328-3.328,3.328-8.738,0-12.066l-28.1-28.1l28.1-28.1c3.328-3.328,3.328-8.738,0-12.066l-17.067-17.067
	c-3.328-3.328-8.738-3.328-12.066,0l-28.1,28.1l-28.1-28.1c-3.328-3.328-8.738-3.328-12.066,0L326.767,360.9
	c-3.328,3.328-3.328,8.738,0,12.066l28.1,28.1l-28.1,28.1C323.439,432.495,323.439,437.905,326.767,441.233z M372.966,407.1
	c3.328-3.328,3.328-8.738,0-12.066l-28.1-28.1l5.001-5.001l28.1,28.1c3.328,3.328,8.738,3.328,12.066,0l28.1-28.1l5.001,5.001
	l-28.1,28.1c-3.328,3.328-3.328,8.738,0,12.066l28.1,28.1l-5.001,5.001l-28.1-28.1c-3.328-3.328-8.738-3.328-12.066,0l-28.1,28.1
	l-5.001-5.001L372.966,407.1z"/>
<g>
</g>
<g>
</g>
<g>
</g>
<g>
</g>
<g>
</g>
<g>
</g>
<g>
</g>
<g>
</g>
<g>
</g>
<g>
</g>
<g>
</g>
<g>
</g>
<g>
</g>
<g>
</g>
<g>
</g>
</svg>
