<svg height="512" viewBox="0 0 64 64" width="512" xmlns="http://www.w3.org/2000/svg"><g id="Elearning-globe-laptop-online-education"><circle cx="32" cy="18" fill="#00ddc2" r="15"/><path d="m49 50v8h-14v-8a1 1 0 0 1 1-1h12a1 1 0 0 1 1 1z" fill="#9bfbff"/><path d="m29 50v8h-14v-8a1 1 0 0 1 1-1h12a1 1 0 0 1 1 1z" fill="#9bfbff"/><path d="m15 57v4h-10a2.006 2.006 0 0 1 -2-2v-4h5v2z" fill="#f5e0cd"/><path d="m15 51v6h-7v-2h-5v-2a2.006 2.006 0 0 1 2-2z" fill="#ffda44"/><path d="m15 45h-8a2.006 2.006 0 0 1 2-2 1.956 1.956 0 0 1 .68.13 2.954 2.954 0 0 1 2.32-1.13 3 3 0 0 1 3 3z" fill="#806749"/><path d="m61 53v2h-5v2h-7v-6h10a2.006 2.006 0 0 1 2 2z" fill="#91dc5a"/><path d="m61 55v4a2.006 2.006 0 0 1 -2 2h-10v-4h7v-2z" fill="#f5e0cd"/><path d="m51 44a2.006 2.006 0 0 1 2-2h4v3h-6z" fill="#ffda44"/><path d="m51 45h6a0 0 0 0 1 0 0v3a3 3 0 0 1 -3 3 3 3 0 0 1 -3-3v-3a0 0 0 0 1 0 0z" fill="#f5e0cd"/><path d="m35 58h16v3h-16z" fill="#e9e9ea"/><path d="m7 45h6a0 0 0 0 1 0 0v3a3 3 0 0 1 -3 3 3 3 0 0 1 -3-3v-3a0 0 0 0 1 0 0z" fill="#f5e0cd"/><rect fill="#ffda44" height="2" rx="1" width="2" x="41" y="52"/><rect fill="#ffda44" height="2" rx="1" width="2" x="21" y="52"/><path d="m13 58h16v3h-16z" fill="#e9e9ea"/><path d="m59 50h-1.56a3.906 3.906 0 0 0 .56-2v-6a1 1 0 0 0 -1-1h-4a3.009 3.009 0 0 0 -3 3v4a3.906 3.906 0 0 0 .56 2h-.56v-1a1 1 0 0 0 -1-1h-14a1 1 0 0 0 -1 1v12a1 1 0 0 0 1 1h24a3.009 3.009 0 0 0 3-3v-6a3.009 3.009 0 0 0 -3-3zm-23 0h12v7h-12zm13 10h-13v-1h13zm4-17h3v1h-4a1 1 0 0 1 1-1zm-1 3h4v2a2 2 0 0 1 -4 0zm8 13a1 1 0 0 1 -1 1h-8v-2h5a1 1 0 0 0 1-1v-1h3zm0-5h-3v-1h-2v3h-5v-4h9a1 1 0 0 1 1 1z"/><rect height="2" rx="1" width="2" x="41" y="52"/><path d="m29 48h-14a1 1 0 0 0 -1 1v1h-.56a3.906 3.906 0 0 0 .56-2v-2h1a1 1 0 0 0 1-1 3.987 3.987 0 0 0 -6.65-2.98 3 3 0 0 0 -3.35 2.98v3a3.906 3.906 0 0 0 .56 2h-1.56a3.009 3.009 0 0 0 -3 3v6a3.009 3.009 0 0 0 3 3h24a1 1 0 0 0 1-1v-12a1 1 0 0 0 -1-1zm-18.55-4.25a1.987 1.987 0 0 1 3.28.25h-3.57a.861.861 0 0 0 .29-.25zm-2.45 2.25h4v2a2 2 0 0 1 -4 0zm4 14h-7a1 1 0 0 1 -1-1v-3h3v1a1 1 0 0 0 1 1h4zm-3-4v-3h-2v1h-3v-1a1 1 0 0 1 1-1h9v4zm19 4h-14v-1h14zm0-3h-12v-7h12z"/><rect height="2" rx="1" width="2" x="21" y="52"/><path d="m32 34a16 16 0 1 0 -16-16 16.019 16.019 0 0 0 16 16zm1-15h5.974a24.786 24.786 0 0 1 -.829 5.593 30.936 30.936 0 0 0 -5.145-.567zm0-2v-5.024a30.654 30.654 0 0 0 5.145-.569 24.786 24.786 0 0 1 .829 5.593zm-2 0h-5.974a24.786 24.786 0 0 1 .829-5.593 30.654 30.654 0 0 0 5.145.569zm0 2v5.026a30.925 30.925 0 0 0 -5.145.567 24.777 24.777 0 0 1 -.829-5.593zm0 7.026v5.807c-1.806-.544-3.41-2.521-4.5-5.323a29.032 29.032 0 0 1 4.5-.484zm2 5.807v-5.807a29.045 29.045 0 0 1 4.505.484c-1.095 2.802-2.699 4.779-4.505 5.323zm7.972-12.833h4.977a13.9 13.9 0 0 1 -2.685 7.279 19.034 19.034 0 0 0 -3.17-1.209 26.625 26.625 0 0 0 .878-6.07zm0-2a26.625 26.625 0 0 0 -.878-6.07 19.034 19.034 0 0 0 3.17-1.209 13.9 13.9 0 0 1 2.685 7.279zm-7.972-7.026v-5.807c1.806.544 3.41 2.521 4.505 5.323a29.032 29.032 0 0 1 -4.505.484zm-2-5.807v5.807a29.045 29.045 0 0 1 -4.5-.484c1.09-2.802 2.694-4.779 4.5-5.323zm-7.972 12.833h-4.977a13.9 13.9 0 0 1 2.685-7.279 19.034 19.034 0 0 0 3.17 1.209 26.625 26.625 0 0 0 -.878 6.07zm0 2a26.625 26.625 0 0 0 .878 6.07 19.034 19.034 0 0 0 -3.17 1.209 13.9 13.9 0 0 1 -2.685-7.279zm-.966 8.848a18.024 18.024 0 0 1 2.445-.871 15.232 15.232 0 0 0 2.149 3.958 14.05 14.05 0 0 1 -4.594-3.087zm15.282 3.087a15.232 15.232 0 0 0 2.149-3.958 18.024 18.024 0 0 1 2.445.871 14.05 14.05 0 0 1 -4.594 3.087zm4.594-22.783a18.024 18.024 0 0 1 -2.445.871 15.232 15.232 0 0 0 -2.149-3.958 14.05 14.05 0 0 1 4.594 3.087zm-15.282-3.087a15.232 15.232 0 0 0 -2.149 3.958 18.024 18.024 0 0 1 -2.445-.871 14.05 14.05 0 0 1 4.594-3.087z"/><path d="m11 19h3v-2h-4a1 1 0 0 0 -1 1v4h2z"/><path d="m53 22h2v-4a1 1 0 0 0 -1-1h-4v2h3z"/><path d="m31 54h2v2h-2z"/><path d="m9 24h2v2h-2z"/><path d="m9 28h2v2h-2z"/><path d="m9 32h2v2h-2z"/><path d="m9 36h2v2h-2z"/><path d="m53 24h2v2h-2z"/><path d="m53 28h2v2h-2z"/><path d="m53 32h2v2h-2z"/><path d="m53 36h2v2h-2z"/></g></svg>