<?xml version="1.0" encoding="iso-8859-1"?>
<!-- Generator: Adobe Illustrator 19.0.0, SVG Export Plug-In . SVG Version: 6.00 Build 0)  -->
<svg version="1.1" id="Capa_1" xmlns="http://www.w3.org/2000/svg" xmlns:xlink="http://www.w3.org/1999/xlink" x="0px" y="0px"
	 viewBox="0 0 512.002 512.002" style="enable-background:new 0 0 512.002 512.002;" xml:space="preserve">
<path style="fill:#FFE451;" d="M480.001,53.334c5.66-0.03,11.088,2.242,15.04,6.293l-4.373,4.373l-180.48,139.52l-54.187,41.813
	l-54.187-41.813L21.334,64.001l-7.04-1.28c3.98-5.872,10.613-9.388,17.707-9.387H480.001z"/>
<path style="fill:#FFCE51;" d="M495.041,59.628c4.052,3.952,6.323,9.38,6.293,15.04v298.667c0.03,5.66-2.241,11.088-6.293,15.04
	l-47.04-47.04L310.188,203.521l180.48-139.52L495.041,59.628z"/>
<path style="fill:#FFE451;" d="M17.494,387.841l46.507-46.507l137.813-137.813l54.187,41.813l54.187-41.813l137.813,137.813
	l47.04,47.04c-3.952,4.052-9.38,6.323-15.04,6.293h-224l-64,64v-64h-160c-5.66,0.03-11.088-2.242-15.04-6.293L17.494,387.841z"/>
<path style="fill:#FFCE51;" d="M64.001,341.334l-46.507,46.507l-0.533,0.533c-4.052-3.952-6.323-9.38-6.293-15.04V74.668
	c-0.027-4.257,1.238-8.423,3.627-11.947l7.04,1.28l180.48,139.52L64.001,341.334z"/>
<path style="fill:#4C5B66;" d="M502.582,52.076c-5.945-6.06-14.092-9.454-22.581-9.408h-448
	c-10.609-0.009-20.534,5.241-26.496,14.016C1.887,61.98-0.033,68.253,0.001,74.668v298.667c-0.071,8.444,3.29,16.555,9.312,22.475
	c5.947,6.137,14.143,9.577,22.688,9.525h149.333v53.333c-0.001,4.314,2.596,8.204,6.581,9.856c1.294,0.54,2.683,0.815,4.085,0.811
	c2.829-0.001,5.541-1.125,7.541-3.125l60.875-60.875h219.584c17.637-0.088,31.912-14.363,32-32V74.668
	C512.049,66.173,508.651,58.021,502.582,52.076z M256.001,231.862L38.774,64.001h434.453L256.001,231.862z M487.393,380.94
	c-1.946,1.982-4.615,3.087-7.392,3.061h-224c-2.829,0.001-5.541,1.125-7.541,3.125l-45.792,45.792v-38.251
	c0-5.891-4.776-10.667-10.667-10.667h-160c-2.879,0.006-5.631-1.18-7.605-3.275c-1.982-1.946-3.087-4.615-3.061-7.392V77.473
	l164.405,127.04L56.46,333.793l15.083,15.083l131.2-131.2l46.731,36.117c3.84,2.963,9.195,2.963,13.035,0l46.731-36.117l131.2,131.2
	l15.083-15.083l-129.28-129.28l164.427-127.04v295.861C490.673,376.213,489.488,378.966,487.393,380.94L487.393,380.94z"/>
<g>
</g>
<g>
</g>
<g>
</g>
<g>
</g>
<g>
</g>
<g>
</g>
<g>
</g>
<g>
</g>
<g>
</g>
<g>
</g>
<g>
</g>
<g>
</g>
<g>
</g>
<g>
</g>
<g>
</g>
</svg>
