<?xml version="1.0" encoding="iso-8859-1"?>
<!-- Generator: Adobe Illustrator 19.0.0, SVG Export Plug-In . SVG Version: 6.00 Build 0)  -->
<svg version="1.1" id="Layer_1" xmlns="http://www.w3.org/2000/svg" xmlns:xlink="http://www.w3.org/1999/xlink" x="0px" y="0px"
	 viewBox="0 0 512 512" style="enable-background:new 0 0 512 512;" xml:space="preserve">
<polygon style="fill:#D5C9B3;" points="504.152,356.062 7.848,356.062 7.848,308.031 103.907,139.929 400.089,139.929 
	504.152,300.027 "/>
<polygon style="fill:#5EBAE7;" points="336.049,195.963 280.015,195.963 256.001,219.979 231.985,195.963 175.951,195.963 
	175.951,51.875 336.049,51.875 "/>
<polyline style="fill:#36A9E1;" points="336.049,51.875 336.049,195.963 280.015,195.963 256.001,219.979 231.985,195.963 
	175.951,195.963 "/>
<polygon style="fill:#CBBBA0;" points="504.152,460.125 7.848,460.125 111.911,243.993 392.083,243.993 "/>
<polygon style="fill:#5EBAE7;" points="312.034,300.027 312.034,356.062 199.966,356.062 199.966,300.027 7.848,300.027 
	7.848,460.125 119.917,460.125 199.966,460.125 312.034,460.125 368.069,460.125 504.152,460.125 504.152,300.027 "/>
<polygon style="fill:#36A9E1;" points="256.001,460.125 504.152,460.125 504.152,300.027 305.837,300.027 305.837,356.062 
	256.001,356.062 "/>
<g>
	<rect x="215.98" y="412.257" style="fill:#FFFFFF;" width="16.01" height="15.696"/>
	<rect x="248.001" y="412.257" style="fill:#FFFFFF;" width="16.009" height="15.696"/>
	<rect x="280.011" y="412.257" style="fill:#FFFFFF;" width="16.01" height="15.696"/>
</g>
<path style="fill:#1D1D1B;" d="M404.348,132.081h-60.451V44.027H168.103v88.053H99.464L0,297.854v170.119h512V297.7L404.348,132.081
	z M183.799,59.723H328.2v128.391h-51.433l-20.767,20.765l-20.767-20.765h-51.433L183.799,59.723L183.799,59.723z M108.35,147.777
	h59.754v56.035h60.628l27.269,27.266l27.269-27.266h60.628v-56.035h51.933l93.86,144.402H304.186v56.035h-96.373v-56.035H21.709
	L108.35,147.777z M15.696,452.277V307.876h176.422v56.035h127.765v-56.035h176.422v144.401H15.696z"/>
<polygon style="fill:#FFFFFF;" points="296.025,116.072 263.849,116.072 263.849,83.894 248.152,83.894 248.152,116.072 
	215.976,116.072 215.976,131.768 248.152,131.768 248.152,163.944 263.849,163.944 263.849,131.768 296.025,131.768 "/>
<g>
</g>
<g>
</g>
<g>
</g>
<g>
</g>
<g>
</g>
<g>
</g>
<g>
</g>
<g>
</g>
<g>
</g>
<g>
</g>
<g>
</g>
<g>
</g>
<g>
</g>
<g>
</g>
<g>
</g>
</svg>
