<svg id="_x31__x2C_5" enable-background="new 0 0 24 24" height="512" viewBox="0 0 24 24" width="512" xmlns="http://www.w3.org/2000/svg"><path d="m23.25 4.5v.75h-22.5v-.75c0-1.55 1.26-2.81 2.81-2.81h16.88c1.55 0 2.81 1.26 2.81 2.81z" fill="#607d8b"/><path d="m23.25 5.25v15.87c0 .62-.5 1.13-1.12 1.13h-20.26c-.62 0-1.12-.51-1.12-1.13v-15.87z" fill="#fff"/><path d="m21.25 23h-18.5c-1.517 0-2.75-1.233-2.75-2.75v-1.5c0-.414.336-.75.75-.75s.75.336.75.75v1.5c0 .689.561 1.25 1.25 1.25h18.5c.689 0 1.25-.561 1.25-1.25v-1.5c0-.414.336-.75.75-.75s.75.336.75.75v1.5c0 1.517-1.233 2.75-2.75 2.75z"/><path d="m23.25 8c-.414 0-.75-.336-.75-.75v-3.5c0-.689-.561-1.25-1.25-1.25h-18.5c-.689 0-1.25.561-1.25 1.25v3.5c0 .414-.336.75-.75.75s-.75-.336-.75-.75v-3.5c0-1.517 1.233-2.75 2.75-2.75h18.5c1.517 0 2.75 1.233 2.75 2.75v3.5c0 .414-.336.75-.75.75z"/><path d="m23.25 6h-22.5c-.414 0-.75-.336-.75-.75s.336-.75.75-.75h22.5c.414 0 .75.336.75.75s-.336.75-.75.75z"/><path d="m3.25 13.75h-2.5c-.414 0-.75-.336-.75-.75s.336-.75.75-.75h2.5c.414 0 .75.336.75.75s-.336.75-.75.75z"/><path d="m3.25 16h-1.5c-.965 0-1.75-.785-1.75-1.75v-2.5c0-.965.785-1.75 1.75-1.75h1.5c.414 0 .75.336.75.75s-.336.75-.75.75h-1.5c-.138 0-.25.112-.25.25v2.5c0 .138.112.25.25.25h1.5c.414 0 .75.336.75.75s-.336.75-.75.75z"/><path d="m17.25 16h-.5c-.965 0-1.75-.785-1.75-1.75v-2.5c0-.965.785-1.75 1.75-1.75h.5c.965 0 1.75.785 1.75 1.75v2.5c0 .965-.785 1.75-1.75 1.75zm-.5-4.5c-.138 0-.25.112-.25.25v2.5c0 .138.112.25.25.25h.5c.138 0 .25-.112.25-.25v-2.5c0-.138-.112-.25-.25-.25z"/><path d="m5.75 16c-.414 0-.75-.336-.75-.75v-4.5c0-.414.336-.75.75-.75h1.125c1.172 0 2.125.953 2.125 2.125s-.953 2.125-2.125 2.125h-.375v1c0 .414-.336.75-.75.75zm.75-3.25h.375c.345 0 .625-.28.625-.625s-.28-.625-.625-.625h-.375z"/><path d="m8.25 16c-.192 0-.384-.073-.53-.22l-1.75-1.75c-.293-.293-.293-.768 0-1.061s.768-.293 1.061 0l1.75 1.75c.293.293.293.768 0 1.061-.147.147-.339.22-.531.22z"/><path d="m10.75 16c-.414 0-.75-.336-.75-.75v-4.5c0-.414.336-.75.75-.75h1.125c1.172 0 2.125.953 2.125 2.125s-.953 2.125-2.125 2.125h-.375v1c0 .414-.336.75-.75.75zm.75-3.25h.375c.345 0 .625-.28.625-.625s-.28-.625-.625-.625h-.375z"/><path d="m13.25 16c-.211 0-.421-.089-.569-.262l-1.5-1.75c-.27-.314-.233-.788.081-1.058.315-.269.788-.232 1.058.081l1.5 1.75c.27.314.233.788-.081 1.058-.142.121-.316.181-.489.181z"/><path d="m20.75 16c-.414 0-.75-.336-.75-.75v-4.5c0-.414.336-.75.75-.75h1.125c1.172 0 2.125.953 2.125 2.125s-.953 2.125-2.125 2.125h-.375v1c0 .414-.336.75-.75.75zm.75-3.25h.375c.345 0 .625-.28.625-.625s-.28-.625-.625-.625h-.375z"/><path d="m23.25 16c-.211 0-.421-.089-.569-.262l-1.5-1.75c-.27-.314-.233-.788.081-1.058.315-.269.787-.232 1.058.081l1.5 1.75c.27.314.233.788-.081 1.058-.142.121-.316.181-.489.181z"/></svg>