<?xml version="1.0" encoding="iso-8859-1"?>
<!-- Generator: Adobe Illustrator 19.0.0, SVG Export Plug-In . SVG Version: 6.00 Build 0)  -->
<svg version="1.1" id="Capa_1" xmlns="http://www.w3.org/2000/svg" xmlns:xlink="http://www.w3.org/1999/xlink" x="0px" y="0px"
	 viewBox="0 0 512 512" style="enable-background:new 0 0 512 512;" xml:space="preserve">
<path style="fill:#7F7369;" d="M328.827,247.316H285.02c-6.631,0-12.057-5.426-12.057-12.057l-6.029-102.167
	c0,0-9.755-84.628,40.843-95.748c0,0,20.573-40.034,86.461-27.208c0.901,0.175,1.767,0.499,2.641,0.769
	c27.065,8.395,48.431,27.555,60.217,51.328c15.879,32.047,10.694,55.836,4.343,173.026c0,6.631-5.426,12.057-12.057,12.057h-46.604"
	/>
<path style="fill:#72655A;" d="M336.445,247.316v-14.338c-27.062-11.959-44.211-37.732-45.424-66.206
	c-0.091-2.102-0.104-45.629-0.037-46.433c-0.452-24.075,3.273-74.58,41.564-82.996c0,0,12.608-24.528,49.686-29.034
	c-33.326-3.662-57.143,7.2-70.297,23.082c-2.917,3.522-4.09,5.851-4.159,5.951c-34.474,7.576-42.608,50.123-41.51,85.255
	c0.004,0.146,6.688,112.548,6.694,112.661c0,6.631,5.426,12.057,12.057,12.057C295.632,247.316,324.849,247.316,336.445,247.316z"/>
<path style="fill:#DD9A5E;" d="M229.081,470.812c0.981-8.769,13.324-119.064,14.083-125.842c3.446-23.906,1.433-38.23,12.842-52.074
	c-3.486-4.238-8.46-8.189-11.741-10.193l-0.361-0.089c-12.202-7.309-22.475-7.615-45.15-13.854l0,0l-23.187-11.099l0,0v-27.697
	c-18.302,8.092-40.612,8.79-60.464,0.158l0,0l-0.1,27.653l0,0l0,0l0,0l-23.087,10.984l0,0c-22.529,6.198-32.924,6.53-45.15,13.854
	l-0.361,0.089c-4.719,2.88-10.356,7.757-14.179,13.466c-8.176,12.212-7.107,19.335-15.2,91.651l0,0
	c-9.773,88.74-9.477,81.597-9.477,88.442c-0.153,11.262,6.755,28.266,27.747,28.266c1.371,0,219.363,0.005,220.709-0.016
	C239.928,504.243,227.18,492.789,229.081,470.812z"/>
<g>
	<path style="fill:#D38D54;" d="M32.737,470.812l9.287-82.991c8.287-83.419,6.656-89.89,15.2-102.65
		c2.638-3.939,5.822-7.249,9.571-10.156c-1.735,0.551-10.505,1.895-20.03,7.6l-0.361,0.089
		c-14.202,8.666-19.762,20.577-21.65,36.058C5.977,486.555,7.549,470.895,7.549,476.263c-0.153,11.262,6.755,28.266,27.747,28.266
		c15.474,0,9.522,0,24.998,0C41.358,504.528,31.045,490.418,32.737,470.812z"/>
	<path style="fill:#D38D54;" d="M140.007,281.427v-45.298c-8.52-0.572-16.733-2.454-24.904-6.007l-0.1,27.653l0,0L140.007,281.427z"
		/>
</g>
<path style="fill:#EAB883;" d="M487.257,318.761c-1.801-14.765-7.001-27.113-21.65-36.058l-0.361-0.089
	c-12.847-7.695-22.185-7.379-65.538-18.929c-1.655-0.749-2.8-3.214-2.8-6.023v-24.554c-19.336,8.432-41.701,8.166-60.463-0.129
	v24.682c0,2.81-1.146,5.275-2.8,6.023c-43.062,11.472-52.641,11.204-65.537,18.929l-0.361,0.089
	c-14.754,9.01-19.868,21.446-21.65,36.058c-17.831,160.748-17.308,151.543-17.206,157.467c-0.26,14.976,9.868,28.301,27.747,28.301
	c46.334,0,172.136,0,220.077,0c18.269,0,28.122-13.917,27.747-28.301C504.564,470.312,505.018,478.884,487.257,318.761z"/>
<path style="fill:#D8A373;" d="M253.89,476.228c-0.099-5.768-0.429,1.719,17.206-166.466c1.819-14.916,6.899-26.7,21.225-35.789
	c-4.206,1.274-13.793,2.4-24.212,8.641l-0.361,0.089c-14.755,9.01-19.869,21.447-21.65,36.058
	c-17.836,161.787-17.206,149.655-17.206,157.502c-0.153,11.262,6.755,28.266,27.747,28.266c15.474,0,9.522,0,24.998,0
	C263.506,504.528,253.733,491.023,253.89,476.228z"/>
<path style="fill:#7EBC7E;" d="M494.983,387.802c-8.024-71.226-7.677-70.4-8.952-76.569c-2.58-12.475-10.141-22.252-20.425-28.531
	c-0.102-0.025-0.463-0.114-0.361-0.089c-12.847-7.695-22.186-7.38-65.538-18.929c-1.655-0.75-2.8-3.214-2.8-6.023v-24.554l0,0
	v-0.129c-18.993,8.391-41.219,8.503-60.463,0v0.129l0,0v24.554c0,2.81-1.146,5.275-2.8,6.023
	c-43.062,11.472-52.641,11.204-65.537,18.929c-0.102,0.025-0.463,0.114-0.361,0.089c-13.931,8.504-19.743,20.418-21.65,36.058
	l-7.726,69.041l48.701,5.11c2.59,0.272,4.515,2.521,4.385,5.122l-5.35,106.495c59.613,0,101.845,0,161.434,0l-5.609-106.083
	c-0.15-2.83,1.943-5.281,4.762-5.577L494.983,387.802z"/>
<path style="fill:#5EAA5E;" d="M238.37,387.802l24.21,2.54c8.607-79.774,8.086-80.114,9.739-88.108
	c2.517-12.173,9.627-21.68,19.999-28.262c-3.095,1.004-13.794,2.401-24.212,8.641c-0.102,0.025-0.463,0.114-0.361,0.089
	c-10.226,6.242-17.827,15.967-20.424,28.531C245.754,318.812,246.051,320.466,238.37,387.802z"/>
<path style="fill:#D83D3D;" d="M244.084,282.703c-0.102-0.025-0.463-0.114-0.361-0.089c-12.229-7.325-22.667-7.669-44.991-13.815
	l0.021-0.04l-23.187-11.099l-0.168,0.253c-0.001-0.031-0.003-0.061-0.005-0.091l-30.24,28.472l-30.151-28.52l-23.087,10.984l0,0
	c-22.529,6.198-32.924,6.53-45.15,13.854l-0.361,0.089c-14.247,8.699-19.752,20.495-21.65,36.058l-7.728,69.059l47.77,5.012
	c3.012,0.316,5.252,2.932,5.1,5.956l-5.312,105.739c18.535,0,144.198,0,161.434,0l-5.608-106.07
	c-0.15-2.837,1.949-5.295,4.774-5.592l12.769-1.34l5.211-46.558c3.485-24.554,1.495-38.18,12.756-51.963
	C253.432,289.96,246.797,284.36,244.084,282.703z"/>
<path style="fill:#B72C2C;" d="M42.024,387.821c8.56-86.172,6.434-92.212,17.545-105.815c1.991-2.438,4.336-4.751,7.226-6.991
	c-2.27,0.645-10.804,2.074-20.03,7.6l-0.361,0.089c-6.365,3.888-12.133,9.555-15.897,16.289
	c-7.128,12.758-4.963,20.722-13.483,88.829l24.708,2.592L42.024,387.821z"/>
<path style="fill:#EAB883;" d="M420.095,268.76l-20.386-5.076c-1.655-0.75-2.8-3.214-2.8-6.023v-27.554l0,0v-0.129
	c-18.993,8.391-41.219,8.503-60.463,0v0.129l0,0v27.554c0,2.81-1.146,5.275-2.8,6.023l-20.693,5.152
	C337.822,310.667,395.244,310.683,420.095,268.76z"/>
<path id="SVGCleanerId_0" style="fill:#4C4846;" d="M50.384,128.435c0.025-27.601-0.064-26.485,0.093-30.148
	c3.156-74.422,87.441-116.457,148.86-73.671c41.308,28.841,40.55,64.542,40.586,103.819"/>
<g>
	<path id="SVGCleanerId_0_1_" style="fill:#4C4846;" d="M50.384,128.435c0.025-27.601-0.064-26.485,0.093-30.148
		c3.156-74.422,87.441-116.457,148.86-73.671c41.308,28.841,40.55,64.542,40.586,103.819"/>
</g>
<path style="fill:#3F3B39;" d="M154.602,8.074C100.181,2.672,52.341,44.171,50.447,99.071c-0.117,3.422-0.039,2.632-0.063,29.365
	h18.897v-26.065C69.281,53.653,106.285,12.875,154.602,8.074z"/>
<g>
	<path style="fill:#DD9A5E;" d="M244.639,136.909c0,10.922-10.572,19.774-23.614,19.774v-39.548
		C234.066,117.137,244.639,125.989,244.639,136.909z"/>
	<path style="fill:#DD9A5E;" d="M45.666,136.909c0,10.922,10.572,19.774,23.615,19.774v-39.548
		C56.239,117.137,45.666,125.989,45.666,136.909z"/>
</g>
<g>
	<path style="fill:#D38D54;" d="M221.025,138.91v17.775c17.724,0,28.92-15.663,21.093-28.662
		C238.232,134.479,230.249,138.91,221.025,138.91z"/>
	<path style="fill:#D38D54;" d="M48.187,128.023c-7.835,13.014,3.406,28.662,21.094,28.662V138.91
		C60.057,138.91,52.075,134.479,48.187,128.023z"/>
</g>
<path style="fill:#EDAE6B;" d="M213.925,113.039c-6.858-5.944-10.053-14.264-10.381-23.378c-0.277-7.604-6.311-11.755-13.079-10.71
	c-31.149,4.786-60.973,4.607-91.163-0.083c-5.974-0.931-12.265,3.155-12.537,10.794c-0.22,6.019-1.67,11.805-4.819,16.856
	c-4.697,7.567-10.664,9.806-12.665,10.961c0,47.629-0.953,54.089,3.223,67.918c13.397,44.426,63.339,66.246,104.849,46.769
	c24.123-11.324,41.238-34.893,43.426-62.655c0.344-4.351,0.248-2.515,0.248-52.033C220.666,117.299,217.652,116.264,213.925,113.039
	z"/>
<path style="fill:#DD9A5E;" d="M99.18,199.958c-0.757-2.059-1.74-5.103-2.561-8.311c-3.902-15.255-2.716-24.101-2.739-65.071
	c0-7.37,4.962-7.82,9.943-13.974c5.127-6.322,7.374-14.339,7.563-22.607c0.089-3.764,1.851-6.993,4.453-9.019
	c-5.439-0.544-11.006-1.248-16.537-2.107c-6.426-1.001-12.349,3.826-12.514,10.328c-0.208,7.968-2.584,15.5-7.906,21.391
	c-4.413,4.89-8.643,6.339-9.6,6.891c0,47.23-2.009,59.724,7.848,79.616c5.574,11.246,12.066,17.443,12.535,18.094l0.001,0.001
	c10.598,11.312,24.061,18.757,36.834,21.805C125.099,235.951,105.422,216.924,99.18,199.958z"/>
<path style="fill:#DADADA;" d="M175.567,257.661l-30.412,28.634l16.418,16.545c3.135,3.16,8.33,2.852,11.071-0.656l26.111-33.423
	L175.567,257.661z"/>
<g>
	<polygon style="fill:#CECCCA;" points="187.242,263.251 175.567,257.661 145.155,286.295 156.019,297.243 	"/>
	<path style="fill:#CECCCA;" d="M163.804,304.375c1.374,0.614,2.887,0.788,4.336,0.526L163.804,304.375z"/>
</g>
<path style="fill:#DADADA;" d="M115.003,257.776l30.151,28.52l-16.418,16.545c-3.135,3.16-8.33,2.852-11.071-0.656l-26.111-33.423
	L115.003,257.776z"/>
<polygon style="fill:#CECCCA;" points="123.899,286.185 134.291,297.243 145.155,286.295 115.003,257.776 102.642,263.567 "/>
<path style="fill:#D8A373;" d="M361.57,272.939v-36.818c-8.992-0.616-17.483-2.766-25.124-6.141
	c-0.76,21.862,1.981,31.539-2.8,33.705l-20.693,5.152c5.152,8.664,12.116,15.99,20.328,21.379l21.483-7.899
	C354.763,282.316,361.57,278.937,361.57,272.939z"/>
<path style="fill:#F7CF9C;" d="M435.062,138.631c4.27,0.199,7.634,3.715,7.634,7.988v5.738l0,0l0,0
	c-0.021,10.575,3.422,43.811-27.374,69.439c-35.156,29.269-88.724,20.89-113.065-18.472c-14.869-24.025-11.255-45.128-11.308-78.359
	l0,0v-3.843c0-4.465,3.146-8.282,7.513-9.206c7.749-1.639,20.27-6.09,31.628-18.179c2.855-3.038,7.724-2.88,10.378,0.335
	C351.49,107.424,381.253,136.116,435.062,138.631z"/>
<path style="fill:#EAB883;" d="M316.011,166.441c-0.091-2.333-0.064,2.992-0.064-61.371c-6.675,3.917-12.913,5.879-17.485,6.845
	c-4.368,0.924-7.513,4.742-7.513,9.206v3.843c0.058,36.204-3.067,55.134,11.308,78.359c15.505,25.092,45.28,40.221,77.065,34.953
	C344.579,232.518,317.467,203.011,316.011,166.441z"/>
<g>
	<path style="fill:#5EAA5E;" d="M434.721,272.401l-14.627-3.641c-11.201,18.895-31.009,31.461-53.594,31.461
		C366.5,300.222,435.024,368.754,434.721,272.401z"/>
	<path style="fill:#5EAA5E;" d="M298.602,272.401l14.626-3.641c11.201,18.895,31.009,31.461,53.594,31.461
		C366.823,300.222,298.299,368.754,298.602,272.401z"/>
</g>
<g>
	<path style="fill:#4E9B4E;" d="M334.227,290.626c-12.091,6.437-26.023,9.508-34.946-2.429
		c7.099,72.471,67.541,12.025,67.541,12.025C354.897,300.222,343.746,296.716,334.227,290.626z"/>
	<path style="fill:#4E9B4E;" d="M399.096,290.626c12.091,6.437,26.023,9.508,34.946-2.429
		c-7.099,72.471-67.541,12.025-67.541,12.025C378.426,300.222,389.577,296.716,399.096,290.626z"/>
</g>
<path style="fill:#70BBEF;" d="M263.592,312.479c-0.176-0.056-0.35-0.116-0.526-0.17c-48.693-15.058-99.463,16.966-106.899,67.219
	c-1.876,12.663-0.376,21.462-0.909,75.883c0,10.153,0,38.717,0,49.119h166.406c0.001-4.226,0.046-113.379-0.096-116.528
	C319.987,352.86,296.476,322.892,263.592,312.479z"/>
<path style="fill:#4CAEE5;" d="M180.292,386.969c2.235-38.842,31.374-71.604,70.611-77.426
	c-47.205-6.836-88.215,25.911-94.737,69.985c-1.876,12.663-0.376,21.462-0.909,75.883c0,10.153,0,38.717,0,49.119h24.885
	C180.142,380.513,180.078,390.702,180.292,386.969z"/>
<g>
	<path style="fill:#EFD0A3;" d="M285.964,372.92c5.85,13.683,6.129,29.741,0,44.087c13.033-1.232,23.169-10.629,23.169-22.044
		C309.133,383.549,298.997,374.152,285.964,372.92z"/>
	<path style="fill:#EFD0A3;" d="M190.956,372.92c-13.033,1.232-23.169,10.629-23.169,22.043c0,11.415,10.136,20.812,23.169,22.044
		C184.996,403.058,184.938,386.998,190.956,372.92z"/>
</g>
<g>
	<path style="fill:#E2BF91;" d="M290.313,398.77c-0.433,6.455-1.94,12.6-4.348,18.237c17.431-1.648,27.926-17.199,21.055-30.792
		C303.963,392.262,297.84,396.918,290.313,398.77z"/>
	<path style="fill:#E2BF91;" d="M169.901,386.215c-6.915,13.683,3.743,29.157,21.055,30.792c-2.409-5.638-3.916-11.783-4.348-18.237
		C179.081,396.918,172.956,392.262,169.901,386.215z"/>
</g>
<path style="fill:#FCE3BB;" d="M264.701,348.151L264.701,348.151c-16.181-9.888-36.292-9.894-52.481,0l0,0
	c-47.737,32.14-23.425,101.046,26.241,101.046c28.716,0,51.995-24.281,51.995-54.232
	C290.455,362.38,264.801,348.253,264.701,348.151z"/>
<path style="fill:#EFD0A3;" d="M273.247,435.265c-40.367,9.976-76.757-30.318-64.125-70.426c1.706-5.377,3.799-8.935,3.914-9.197
	l0,0c2.383-4.376,5.409-8.41,9.029-11.957c-3.468,0.969-6.8,2.606-9.845,4.467l0,0c-6.465,4.353-11.127,7.97-16.316,15.673
	c-14.743,21.874-12.066,51.934,6.898,70.59C222.662,453.078,252.637,454.633,273.247,435.265z"/>
<path style="fill:#DD9A5E;" d="M287.338,376.455c-6.968-20.032-22.151-27.815-22.637-28.305l0,0c-16.18-9.888-36.292-9.894-52.481,0
	l0,0c-6.667,4.49-13.65,9.921-19.382,20.814c15.372,19.068,42.503,22.491,61.973,8.926c2.358-1.642,5.473-1.672,7.897-0.13
	c4,2.544,8.884,3.785,14.023,3.159C280.721,380.434,284.356,378.832,287.338,376.455z"/>
<path style="fill:#CE874D;" d="M206.613,380.473c0.06-5.171,0.879-10.455,2.51-15.634c1.706-5.377,3.799-8.935,3.914-9.197l0,0
	c2.383-4.376,5.409-8.41,9.029-11.957c-3.456,0.966-7.147,2.818-9.845,4.467l0,0c-6.667,4.49-13.65,9.921-19.382,20.814
	C196.622,373.661,201.313,377.57,206.613,380.473z"/>
<path d="M494.661,317.638c-0.862-6.957-2.171-13.185-5.136-19.415c-7.007-14.82-21.587-25.247-37.115-29.171l-48.017-11.953v-2.311
	h44.974c10.701,0,19.422-8.639,19.554-19.31l5.927-100.43c0.244-4.135-2.91-7.684-7.045-7.928c-4.153-0.25-7.685,2.91-7.928,7.045
	l-5.938,100.625c-0.009,0.146-0.013,0.294-0.013,0.441c0,2.471-2.087,4.559-4.558,4.559h-44.974v-1.941
	c2.488-1.226,4.165-2.264,4.57-2.495l0,0c0.382-0.245,4.076-2.323,8.547-5.753c10.943-8.381,19.504-19.401,24.63-30.447
	c9.558-20.123,8.017-35.622,8.041-52.563c0-8.293-6.493-15.094-14.784-15.48c-51.279-2.396-79.433-30.059-89.159-41.843
	c-2.637-3.193-6.52-5.101-10.658-5.233c-4.128-0.117-8.133,1.521-10.968,4.538c-9.804,10.435-20.482,14.448-27.715,15.978
	c-7.8,1.649-13.462,8.606-13.462,16.544v42.329c0,21.956,8.949,42.798,22.611,57.082l-0.001,0.001
	c0.104,0.091,9.691,10.778,22.885,17.198v2.092c-0.781-0.01-35.086-0.005-43.925-0.006c-2.471,0-4.558-2.088-4.558-4.559
	c0-0.147-0.004-0.295-0.013-0.441c-6.301-106.712-6.019-102.194-6.065-102.584c-0.089-0.779-8.476-78.009,35.003-87.565
	c2.183-0.479,4.013-1.859,5.034-3.848c0.762-1.429,19.326-34.822,78.38-23.325c0.218,0.042,0.675,0.191,1.078,0.322
	c40.554,13.214,63.374,46.726,65.855,82.341c0.288,4.132,3.85,7.243,8.002,6.959c4.132-0.287,7.247-3.871,6.959-8.002
	c-3.063-43.98-32.766-82.038-75.6-95.376c-1.205-0.391-2.213-0.729-3.426-0.967c-20.11-3.915-49.168-5.392-73.361,9.807
	c-10.416,6.543-16.491,14.094-19.301,18.232c-22.127,6.282-36.625,26.015-42.015,57.3c-3.854,22.353-1.805,43.099-1.532,45.611
	l6.006,101.781c0.133,10.669,8.853,19.309,19.554,19.309c7.91-0.001,43.085,0.005,43.925-0.006v2.316
	c-46.932,11.663-59.029,12.755-72.954,25.061c-15.41-13.529-29.766-13.633-54.686-20.52l-4.236-2.027l-14.004-6.703v-15.222
	c17.748-10.433,30.6-20.771,39.636-43.588c6.462-16.332,5.697-29.532,5.826-30.75c20.502-4.467,30.051-25.242,18.892-40.884
	c0-17.758,1.024-30.006-3.56-46.944l-0.11-0.406C225.302,8.206,145.385-22.259,86.976,18.222L86.69,18.42
	c-3.394,2.376-4.219,7.051-1.844,10.444c2.374,3.394,7.051,4.219,10.444,1.844c62.658-41.073,137.119,4.506,137.119,71.635v9.169
	c-3.232-1.12-6.724-1.777-10.376-1.881c-6.124-3.5-10.501-9.9-11.028-20.652c-0.28-10.989-10.219-19.235-21.17-17.548
	c-27.762,3.429-45.568,5.012-75.186,1.857l-2.524-0.28c-8.297-0.341-17.385-4.974-26.31,2.478
	c-6.735,5.623-6.027,11.47-6.964,18.049c-1.529,9.148-6.704,13.05-6.847,13.321c-1.53,1.415-2.18,1.731-3.754,2.775
	c-3.654,0.104-7.147,0.761-10.38,1.881c0.021-10.099-1.834-33.048,14.785-57.776c2.311-3.438,1.396-8.097-2.041-10.407
	c-3.438-2.311-8.097-1.396-10.407,2.041C50.24,60.202,44.283,78.532,43.174,94.424c-0.406,5.342-0.301,27.934-0.3,28.041
	c-2.987,4.187-4.721,9.126-4.721,14.417c0,12.772,10.07,23.518,23.615,26.468c0.39,32.298,17.34,60.057,45.821,74.515v14.873
	l-18.989,9.089c-29.546,7.781-29.78,5.892-46.127,14.456h-0.001c-0.1,0.063-1.027,0.648-0.927,0.585
	c-2.635,2.207-15.624,9.412-21.428,27.212c-3.99,12.128-3.709,28.846-10.557,82.879c-0.537,4.794-9.294,83.044-9.307,83.184
	c-2.057,23.928,11.701,41.857,35.03,41.857h56.259c4.143,0,7.499-3.357,7.499-7.499c0-4.143-3.357-7.499-7.499-7.499H72.665
	l7.436-140.659c0.219-4.136-2.957-7.665-7.093-7.884c-4.141-0.239-7.666,2.957-7.884,7.093l-1.564,29.585l-38.255-4.014
	l3.222-28.794c3.96-34.207,3.678-38.067,6.612-45.701c3.584-8.998,10.011-13.748,9.438-13.238
	c12.449-10.878,27.709-11.251,38.981-14.852l5.129-1.277l23.055,29.513c2.771,3.548,7.069,5.724,11.733,5.724
	c8.338,0,11.971-6.3,14.166-8.025v36.291c0,4.143,3.357,7.499,7.499,7.499s7.499-3.357,7.499-7.499v-36.29
	c2.194,1.724,6.114,8.503,15.046,7.999c4.267-0.253,8.222-2.33,10.853-5.698l23.084-29.55c16.369,4.531,31.161,6.244,40.316,13.056
	c0.358,0.266,0.753,0.584,0.944,0.721c1.179,0.846,2.297,1.744,3.348,2.685c-2.357,3.834-3.679,7.398-3.729,7.498
	c-44.516-2.003-83.858,28.533-92.929,71.989v0.002c-0.052,0.471-1.92,8.204-1.92,18.607v105.22h-21.113
	c-4.143,0-7.499,3.357-7.499,7.499c0,4.143,3.357,7.499,7.499,7.499c48.686,0,301.497,0,350.162,0
	c22.435,0,35.484-17.042,35.246-35.766C512.036,470.744,494.674,317.739,494.661,317.638z M228.514,126.07
	c11.456,4.726,11.455,16.899,0,21.623V126.07z M61.769,147.694c-11.46-4.725-11.462-16.901,0-21.626V147.694z M62.307,400.085
	l-4.869,96.916c-17.743-0.957-28.609,2.752-36.559-5.307c-3.873-3.926-5.845-9.68-5.845-15.495c0-6.646-0.217,0.573,8.602-80.172
	L62.307,400.085z M97.429,212.396l-0.504-0.509c-24.111-23.921-19.648-52.287-20.157-55.231v-34.645
	c11.265-7.75,17.089-17.856,17.505-32.65c0.05-1.98,1.919-3.425,3.864-3.108c10.984,1.423,11.767,1.802,24.421,2.818
	c37.845,2.893,64.86-2.381,69.592-2.818c1.324-0.212,2.266,0.381,2.708,0.749c2.699,2.251-0.822,8.739,6.096,21.69
	c2.746,5.04,5.916,8.24,9.563,11.229l-0.26-0.201c-0.004,0.024,0.004-0.024,0,0c2.21,1.697,3.058,2.153,3.257,2.291
	c-0.096,26.08,0.175,44.551-0.568,50.299c-4.279,32.859-31.433,57.891-64.572,59.411c-0.117,0.003-3.307,0.074-3.109,0.069
	C126.615,231.124,110.993,225.647,97.429,212.396z M123.488,297.443l-20.193-25.849l10.158-4.862l20.943,19.717L123.488,297.443z
	 M145.142,275.966l-22.552-21.232v-11.04c8.348,2.338,15.4,3.018,22.049,3.092l0,0c0.101,0,1.106,0,1.005,0
	c1.106,0,2.791-0.06,2.745-0.059c5.738-0.191,12.885-1.21,19.484-3.085v10.921L145.142,275.966z M166.795,297.443l-10.907-10.993
	l21.063-19.832l10.135,4.852L166.795,297.443z M423.476,277.305c0.102,0.025,3.889,0.968,3.657,0.91
	c-0.624,20.896-5.085,34.028-12.733,37.218c-8.72,3.641-22.442-4.564-30.118-10.105
	C400.892,300.642,414.067,290.805,423.476,277.305z M323.02,215.927c-30.195-26.196-24.564-54.795-24.585-94.834
	c0-0.905,0.644-1.674,1.566-1.869c9.22-1.95,22.742-6.987,35.09-19.903c11.369,13.591,43.047,44.13,99.608,46.773
	c0.271,0.013,0.484,0.23,0.484,0.497c-0.033,19.416,0.057,15.894-0.067,19.926l-0.003-0.021l-0.028,0.433
	c-1.043,21.116-11.87,41.369-31.476,54.118l-0.086,0.056c-16.524,10.735-38.933,14.118-59.605,6.758c0,0-0.001,0-0.002,0
	C331.008,222.917,327.284,219.069,323.02,215.927z M336.725,270.488c4.377-1.981,7.205-7.027,7.205-12.854v-14.033
	c15.515,4.368,31.014,4.159,45.465,0.083v13.95c0,7.139,4.161,12.223,8.488,13.301c0.966,0.24-3.543-0.882,9.707,2.417
	c-22.175,25.905-59.983,25.621-81.88,0.006C335.671,270.838,335.644,270.979,336.725,270.488z M309.559,277.377
	c9.8,14.024,23.686,23.809,39.373,28.009c-9.969,7.108-22.243,13.288-30.027,10.051c-7.652-3.184-12.116-16.313-12.741-37.214
	L309.559,277.377z M219.125,318.549l0.753-0.19c44.298-11.153,88.077,19.157,93.623,64.224c-4.189-8.12-12.399-14.3-22.539-16.476
	c-22.359-43.771-82.83-43.8-105.21,0c-10.14,2.176-18.349,8.355-22.539,16.477C167.138,350.791,190.108,326.142,219.125,318.549z
	 M297.147,385.469c5.842,5.471,5.842,13.455,0.01,18.923C298.16,397.648,298.007,391.784,297.147,385.469z M228.522,393.574
	c1.143,0,2.291-0.037,3.44-0.111c9.626-0.624,18.887-3.835,26.801-9.286c6.784,4.244,15.353,5.597,23.496,3.154
	c4.42,29.085-16.995,54.338-43.9,54.338c-18.756,0-34.766-12.24-41.317-29.418c-0.102-0.266-0.204-0.532-0.301-0.801
	c-3.378-9.35-3.791-19.577-1.186-29.274C204.904,389.501,216.509,393.574,228.522,393.574z M202.031,367.968
	c19.878-28.637,60.231-25.393,75.64,5.088v0.001c-3.667,1.013-7.667,0.497-11.042-1.65c-5.007-3.186-11.37-3.067-16.212,0.304
	c-5.72,3.985-12.437,6.331-19.427,6.784C220.24,379.191,209.751,375.305,202.031,367.968z M179.557,404.393
	c-5.839-5.475-5.827-13.459,0.01-18.923C179.024,390.605,178.287,395.852,179.557,404.393z M314.061,497.001h-6.716
	c2.479-2.325,4.714-4.525,6.716-6.575V497.001z M314.061,467.775c-3.218,4.188-12.56,15.451-29.539,29.227h-29.764
	c29.281-15.491,48.033-34.917,59.304-50.047v20.82H314.061z M314.061,418.264c-3.765,8.148-28.189,55.526-95.691,77.969
	c-0.581,0.193-1.116,0.457-1.613,0.768h-54.104v-90.864c3.989,8.69,12.496,15.359,23.12,17.633
	c7.531,14.728,20.639,25.923,36.386,30.553c-8.566,2.201-18.491,3.869-29.876,4.539c-4.135,0.243-7.289,3.793-7.046,7.927
	c0.234,3.985,3.54,7.059,7.479,7.059c0.148,0,0.298-0.004,0.447-0.013c37.102-2.184,80.777-16.822,97.777-50.066
	c10.624-2.274,19.131-8.942,23.12-17.633v12.127H314.061z M447.162,355.551c-0.211-4.002-3.521-7.103-7.481-7.103
	c-0.134,0-0.269,0.003-0.402,0.011c-4.137,0.219-7.312,3.749-7.093,7.884l3.167,59.901l4.269,80.758H329.059v-26.716
	c0-0.008,0-0.016,0-0.016c0-85.362,0.063-79.656-0.162-83.755c-0.584-4.875-1.084-31.036-23.298-55.602l-0.436-0.468
	c-12.885-14.022-29.586-23.373-47.116-27.213c0.572-0.538,5.646-13.563,26.627-19.659l6.624-1.649
	c1.277,26.255,8.456,41.792,21.842,47.361c17.415,7.243,39.188-6.324,53.505-18.742c8.82,7.65,26.365,20.772,42.967,20.772
	c3.589,0,7.136-0.614,10.538-2.03c13.387-5.57,20.566-21.109,21.843-47.369c5.029,1.687,31.523,5.512,36.677,30.809
	c1.568,7.583,1.678,13.756,8.004,68.378l-37.954,3.982L447.162,355.551z M491.106,491.694c-7.944,8.054-18.719,4.346-36.466,5.307
	l-5.124-96.918l38.829-4.074c8.754,80.417,8.603,73.22,8.603,80.224C496.949,476.269,494.99,487.757,491.106,491.694z"/>
<g>
</g>
<g>
</g>
<g>
</g>
<g>
</g>
<g>
</g>
<g>
</g>
<g>
</g>
<g>
</g>
<g>
</g>
<g>
</g>
<g>
</g>
<g>
</g>
<g>
</g>
<g>
</g>
<g>
</g>
</svg>
