<?xml version="1.0" encoding="iso-8859-1"?>
<!-- Generator: Adobe Illustrator 19.0.0, SVG Export Plug-In . SVG Version: 6.00 Build 0)  -->
<svg version="1.1" id="Capa_1" xmlns="http://www.w3.org/2000/svg" xmlns:xlink="http://www.w3.org/1999/xlink" x="0px" y="0px"
	 viewBox="0 0 512 512" style="enable-background:new 0 0 512 512;" xml:space="preserve">
<g>
	<path style="fill:#1D80FF;" d="M255.501,51.949c11.587,0,20.98-9.393,20.98-20.98c0-1.272-0.113-2.517-0.33-3.726
		c-1.758-9.809-10.335-17.253-20.65-17.253c-10.315,0-18.892,7.444-20.65,17.253c-0.217,1.209-0.33,2.455-0.33,3.726
		C234.521,42.556,243.914,51.949,255.501,51.949z"/>
	<path style="fill:#FF8E4B;" d="M413.829,142.362H98.17H30.22c-10.989,0-19.98,8.991-19.98,19.98V482.03
		c0,10.989,8.991,19.98,19.98,19.98h451.559c10.989,0,19.98-8.991,19.98-19.98V162.342c0-10.989-8.991-19.98-19.98-19.98H413.829
		L413.829,142.362z M45.205,177.328h421.589v191.078v35.757v62.882H196.196H45.205V352.098V177.328z"/>
	<path style="fill:#72D8FF;" d="M466.795,177.328H45.205v174.77l112.261-112.261c7.77-7.77,20.486-7.77,28.256,0l134.226,134.227
		l62.123-62.123c7.77-7.77,20.486-7.77,28.256,0l56.466,56.466L466.795,177.328L466.795,177.328z M296.824,251.795
		c0-11.587,9.393-20.98,20.98-20.98s20.98,9.393,20.98,20.98c0,11.587-9.393,20.98-20.98,20.98
		C306.216,272.775,296.824,263.382,296.824,251.795z"/>
	<circle style="fill:#FFC66C;" cx="317.799" cy="251.794" r="20.98"/>
	<path style="fill:#A0E557;" d="M319.949,374.064L185.723,239.837c-7.77-7.77-20.486-7.77-28.256,0L45.205,352.098v114.947h150.991
		c50.95-37.963,174.878-72.872,270.598-62.882v-35.757l-56.466-56.466c-7.77-7.77-20.486-7.77-28.256,0L319.949,374.064z"/>
	<path style="fill:#36D28F;" d="M466.795,404.162c-95.72-9.99-219.648,24.919-270.599,62.882h270.599V404.162z"/>
</g>
<path d="M481.779,132.372h-64.227L285.035,21.649C281.07,9.113,269.331,0,255.501,0c-13.829,0-25.568,9.113-29.533,21.649
	L93.45,132.372H30.22c-16.526,0-29.97,13.445-29.97,29.971V482.03c0,16.526,13.444,29.97,29.97,29.97h451.559
	c16.526,0,29.971-13.444,29.971-29.97V162.342C511.75,145.816,498.305,132.372,481.779,132.372z M255.501,19.98
	c6.06,0,10.99,4.93,10.99,10.989s-4.93,10.989-10.99,10.989c-6.059,0-10.988-4.93-10.988-10.989
	C244.512,24.911,249.442,19.98,255.501,19.98z M228.29,45.745c5.255,9.64,15.482,16.194,27.211,16.194
	c11.731,0,21.958-6.556,27.212-16.193l103.677,86.625H124.612L228.29,45.745z M491.769,482.03c0,5.509-4.482,9.989-9.99,9.989H30.22
	c-5.509,0-9.989-4.482-9.989-9.989V162.342c0-5.509,4.482-9.99,9.989-9.99h451.559c5.509,0,9.99,4.482,9.99,9.99V482.03z"/>
<path d="M466.794,167.338H45.205c-5.518,0-9.99,4.473-9.99,9.99v171.176c-0.654,2.011-0.654,4.183,0,6.194v112.348
	c0,5.518,4.473,9.99,9.99,9.99h421.588c5.517,0,9.99-4.473,9.99-9.99V177.328C476.784,171.81,472.311,167.338,466.794,167.338z
	 M456.803,187.318v156.97l-39.909-39.91c-11.686-11.686-30.7-11.684-42.386,0l-55.058,55.059L192.288,232.274
	c-11.686-11.685-30.7-11.685-42.386,0l-94.708,94.707V187.317L456.803,187.318L456.803,187.318z M55.196,355.239l108.836-108.836
	c3.894-3.895,10.233-3.895,14.128,0l134.227,134.226c1.874,1.873,4.415,2.926,7.064,2.926s5.19-1.053,7.064-2.926l62.123-62.123
	c1.871-1.872,4.38-2.902,7.063-2.902c2.685,0,5.193,1.03,7.064,2.902l54.038,54.038v20.275
	c-43.357-3.044-94.362,2.055-144.999,14.607c-49.665,12.31-93.2,30.33-120.045,49.629H55.196V355.239z M231.094,457.055
	c23.534-11.62,53.445-22.285,85.518-30.235c49.224-12.2,98.609-17.092,140.192-13.972v44.208L231.094,457.055L231.094,457.055z"/>
<path d="M317.804,282.765c17.077,0,30.97-13.893,30.97-30.97s-13.892-30.97-30.97-30.97c-17.077,0-30.97,13.892-30.97,30.97
	C286.834,268.871,300.727,282.765,317.804,282.765z M317.804,240.807c6.059,0,10.989,4.93,10.989,10.989s-4.93,10.989-10.989,10.989
	s-10.989-4.93-10.989-10.989C306.815,245.736,311.744,240.807,317.804,240.807z"/>
<path d="M125.128,419.091h-40.96c-5.518,0-9.99,4.473-9.99,9.99c0,5.518,4.473,9.99,9.99,9.99h40.96c5.518,0,9.99-4.473,9.99-9.99
	C135.119,423.564,130.646,419.091,125.128,419.091z"/>
<g>
</g>
<g>
</g>
<g>
</g>
<g>
</g>
<g>
</g>
<g>
</g>
<g>
</g>
<g>
</g>
<g>
</g>
<g>
</g>
<g>
</g>
<g>
</g>
<g>
</g>
<g>
</g>
<g>
</g>
</svg>
