<?xml version="1.0" encoding="iso-8859-1"?>
<!-- Generator: Adobe Illustrator 19.0.0, SVG Export Plug-In . SVG Version: 6.00 Build 0)  -->
<svg version="1.1" id="Capa_1" xmlns="http://www.w3.org/2000/svg" xmlns:xlink="http://www.w3.org/1999/xlink" x="0px" y="0px"
	 viewBox="0 0 511.999 511.999" style="enable-background:new 0 0 511.999 511.999;" xml:space="preserve">
<path style="fill:#78D2FA;" d="M118.804,186.016h117.834c10.659,0,19.3,8.641,19.3,19.3l0,0c0,9.584-7.032,17.715-16.516,19.098
	l-72.637,10.589l0.012,79.977h-0.006H70.816H70.81l0.012-76.645L12.246,134.979c-1.472-2.597-2.245-5.531-2.245-8.516l0,0
	c0-16.542,21.012-23.621,31.022-10.452l56.787,70.005H118.804z"/>
<polygon style="fill:#FFFFFF;" points="97.809,186.016 118.808,253.45 139.799,186.016 "/>
<path style="fill:#FFCDAC;" d="M162.793,125.031v16.996c0,24.295-19.694,43.989-43.989,43.989l0,0l0,0
	c-24.295,0-43.989-19.694-43.989-43.989v-16.996H162.793z"/>
<path style="fill:#878791;" d="M118.804,79.763L118.804,79.763c-24.295,0-43.989,19.694-43.989,43.989v4.493h21.508
	c14.297,0,27.86-6.33,37.043-17.289l0,0c0,9.077,7.192,16.521,16.263,16.834l13.164,0.455v-4.493
	C162.793,99.457,143.099,79.763,118.804,79.763z"/>
<path style="fill:#FFE682;" d="M393.198,186.016H275.365c-10.659,0-19.3,8.641-19.3,19.3l0,0c0,9.584,7.032,17.715,16.516,19.098
	l72.637,10.589l-0.013,79.977h0.006h95.976h0.006l-0.013-76.645l58.577-103.357c1.472-2.597,2.245-5.531,2.245-8.516l0,0
	c0-16.542-21.012-23.621-31.022-10.452l-56.787,70.005H393.198z"/>
<polygon style="fill:#FFFFFF;" points="414.003,186.016 393.004,253.45 372.014,186.016 "/>
<path style="fill:#FFCDAC;" d="M349.082,125.031v16.996c0,24.295,19.694,43.989,43.989,43.989l0,0l0,0
	c24.295,0,43.989-19.694,43.989-43.989v-16.996H349.082z"/>
<path style="fill:#F5B955;" d="M393.071,79.763L393.071,79.763c24.295,0,43.989,19.694,43.989,43.989v4.493h-21.508
	c-14.297,0-27.86-6.33-37.043-17.289l0,0c0,9.077-7.192,16.521-16.263,16.834l-13.164,0.455v-4.493
	C349.082,99.457,368.777,79.763,393.071,79.763z"/>
<g>
	<polygon style="fill:#878791;" points="166.792,437.498 166.792,314.98 70.816,314.98 70.816,476.942 	"/>
	<polygon style="fill:#878791;" points="345.337,437.498 345.337,314.98 441.313,314.98 441.313,476.942 	"/>
</g>
<polygon style="fill:#A5DC69;" points="10.001,501.936 256.065,400.808 501.876,501.936 "/>
<rect x="256.065" y="40.12" style="fill:#FF5A5A;" width="65.709" height="69.982"/>
<polygon style="fill:#FF8C8C;" points="288.93,10.061 377.979,10.061 341.29,46.75 377.979,82.042 288.93,82.042 "/>
<path d="M441.19,376.967c-2.639,0-5.209,1.07-7.068,2.929c-1.87,1.86-2.929,4.439-2.929,7.068s1.06,5.209,2.929,7.068
	c1.86,1.859,4.429,2.929,7.068,2.929c2.629,0,5.209-1.07,7.068-2.929c1.859-1.86,2.929-4.439,2.929-7.068s-1.07-5.209-2.929-7.068
	C446.39,378.037,443.819,376.967,441.19,376.967z"/>
<path d="M505.679,492.69l-54.495-22.419V425.41c0-5.522-4.476-9.997-9.997-9.997s-9.997,4.476-9.997,9.997v36.635l-27.993-11.516
	V344.31c0-5.522-4.476-9.997-9.997-9.997s-9.997,4.476-9.997,9.997v97.993l-27.993-11.516V324.979h75.981v21.009
	c0,5.522,4.476,9.997,9.997,9.997s9.997-4.476,9.997-9.997v-30.889c0-0.019,0.003-0.037,0.003-0.055
	c0-0.021,0.003-0.041,0.003-0.062c0,0,0,0,0-0.001v-0.001l-0.012-74.007l57.276-101.063c2.319-4.093,3.545-8.742,3.545-13.446
	c0-11.899-7.286-22.042-18.562-25.842c-11.221-3.782-23.098-0.169-30.308,9.201l-15.89,19.588c0.045-0.383,0.073-0.771,0.073-1.166
	v-4.493c0-29.767-24.219-53.986-53.986-53.986c-4.203,0-8.29,0.499-12.22,1.412L355.568,46.61l29.482-29.481
	c2.859-2.859,3.714-7.16,2.166-10.895c-1.548-3.736-5.193-6.171-9.237-6.171h-89.05c-5.522,0-9.997,4.476-9.997,9.997v20.059
	h-22.866c-5.522,0-9.997,4.476-9.997,9.997v137.468c-2.961-1.01-6.13-1.566-9.43-1.566h-75.932
	c7.549-9.288,12.084-21.118,12.084-33.991v-12.044c0-0.294-0.019-0.583-0.044-0.871c0.025-0.288,0.044-0.577,0.044-0.869v-4.493
	c0-29.767-24.218-53.986-53.986-53.986l0,0c-29.768,0-53.986,24.218-53.986,53.986v4.493c0,0.294,0.019,0.582,0.044,0.87
	c-0.011,0.129-0.014,0.261-0.02,0.392l-15.967-19.684c-7.21-9.369-19.087-12.98-30.308-9.201
	C7.29,104.421,0.004,114.564,0.004,126.464c0,4.704,1.226,9.353,3.545,13.446l57.275,101.062l-0.006,229.271L6.2,492.689
	c-5.107,2.099-7.545,7.94-5.447,13.048c1.588,3.864,5.318,6.199,9.251,6.199c1.266,0,2.553-0.242,3.796-0.753l242.263-99.565
	l242.009,99.563c5.108,2.101,10.949-0.336,13.05-5.442C513.222,500.634,510.785,494.791,505.679,492.69z M478.745,122.309
	c0.066-0.082,0.131-0.165,0.195-0.249c2.934-3.86,6.952-2.883,8.113-2.491c1.162,0.392,4.952,2.045,4.952,6.894
	c0,1.255-0.327,2.495-0.946,3.586l-58.576,103.358c-0.852,1.504-1.3,3.203-1.3,4.931l0.011,66.645h-75.99l0.011-69.978
	c0.001-4.965-3.642-9.179-8.556-9.894l-72.637-10.589c-4.538-0.662-7.96-4.619-7.96-9.206c0-5.13,4.173-9.303,9.303-9.303h89.417
	l18.803,60.408c1.301,4.179,5.169,7.025,9.546,7.026l0,0c4.376,0,8.244-2.846,9.546-7.025l20.389-65.472L478.745,122.309z
	 M266.063,120.098h55.712c5.522,0,9.997-4.476,9.997-9.997V92.04h17.902c-6.491,8.911-10.334,19.868-10.334,31.711v4.493
	c0,0.056,0.008,0.112,0.008,0.168c-0.081,0.513-0.135,1.035-0.135,1.572v12.044c0,12.874,4.536,24.704,12.084,33.991h-75.932
	c-3.252,0-6.377,0.541-9.303,1.523L266.063,120.098L266.063,120.098z M400.545,196.013l-7.413,23.805l-7.409-23.805H400.545z
	 M427.191,142.027c0,18.743-15.248,33.991-33.991,33.991s-33.991-15.248-33.991-33.991v-4.12l3.638-0.126
	c8.07-0.278,15.168-4.035,19.886-9.812c9.623,6.633,21.108,10.271,33.076,10.271h11.383V142.027z M393.326,89.76
	c16.87,0,30.908,12.352,33.546,28.487h-11.065c-11.37,0-22.078-4.998-29.381-13.712c-1.938-2.312-4.763-3.577-7.665-3.577
	c-1.144,0-2.297,0.196-3.414,0.603c-3.951,1.437-6.581,5.192-6.581,9.396c0,3.709-2.903,6.714-6.61,6.842l-2.313,0.08
	C362.632,101.924,376.584,89.76,393.326,89.76L393.326,89.76z M298.927,20.058h54.917L334.221,39.68
	c-1.898,1.899-2.953,4.481-2.927,7.166c0.026,2.685,1.131,5.247,3.066,7.108l18.806,18.09h-54.238L298.927,20.058L298.927,20.058z
	 M288.93,92.04h22.847v8.062h-45.714V50.114h12.87v31.928C278.932,87.564,283.408,92.04,288.93,92.04z M118.804,176.018
	c-18.743,0-33.991-15.248-33.991-33.991v-3.786h11.51c11.968,0,23.453-3.639,33.076-10.271c4.718,5.777,11.816,9.534,19.886,9.812
	l3.511,0.121v4.125C152.795,160.77,137.546,176.018,118.804,176.018z M126.216,196.013l-7.409,23.805l-7.413-23.805H126.216z
	 M118.804,89.76c16.741,0,30.693,12.164,33.483,28.118l-2.313-0.08c-3.707-0.128-6.61-3.133-6.61-6.842
	c0-4.204-2.63-7.959-6.581-9.396c-3.95-1.436-8.378-0.248-11.079,2.974c-7.302,8.715-18.01,13.713-29.381,13.713H85.257
	C87.896,102.113,101.935,89.76,118.804,89.76z M20.944,130.049c-0.619-1.092-0.946-2.332-0.946-3.586
	c0-4.849,3.79-6.502,4.952-6.894c1.162-0.392,5.18-1.369,8.113,2.491c0.064,0.084,0.129,0.167,0.195,0.249l55.577,68.514
	l20.428,65.599c1.302,4.179,5.17,7.025,9.546,7.025c4.377,0,8.245-2.847,9.546-7.026l18.803-60.408h89.48
	c5.13,0,9.303,4.173,9.303,9.303c0,4.586-3.422,8.544-7.96,9.206l-72.637,10.589c-4.914,0.716-8.557,4.93-8.556,9.894l0.011,69.978
	h-75.99l0.011-66.645c0-1.729-0.448-3.427-1.3-4.931L20.944,130.049z M118.804,334.312c-5.522,0-9.997,4.476-9.997,9.997v106.21
	l-27.993,11.504V324.979h75.981v105.82l-27.993,11.504V344.31C128.801,338.788,124.326,334.312,118.804,334.312z M252.264,391.562
	l-75.476,31.019V315.108c0.001-0.043-0.004-71.459-0.004-71.459l64.08-9.342c1.795-0.262,3.534-0.688,5.204-1.26v87.922
	c0,5.522,4.476,9.997,9.997,9.997c5.522,0,9.997-4.476,9.997-9.997v-87.88c1.631,0.551,3.327,0.964,5.077,1.219l64.08,9.342
	l-0.011,71.33v0.001l0,0c0,0.021,0.003,0.041,0.003,0.062c0,0.022,0.003,0.043,0.003,0.065v107.453l-75.345-30.997
	C257.433,390.561,254.7,390.561,252.264,391.562z"/>
<path d="M256.068,351.974c-2.639,0-5.209,1.07-7.068,2.929c-1.87,1.86-2.929,4.439-2.929,7.068s1.06,5.209,2.929,7.068
	c1.86,1.859,4.439,2.929,7.068,2.929c2.629,0,5.209-1.07,7.068-2.929c1.859-1.86,2.929-4.439,2.929-7.068s-1.07-5.209-2.929-7.068
	C261.277,353.043,258.696,351.974,256.068,351.974z"/>
<g>
</g>
<g>
</g>
<g>
</g>
<g>
</g>
<g>
</g>
<g>
</g>
<g>
</g>
<g>
</g>
<g>
</g>
<g>
</g>
<g>
</g>
<g>
</g>
<g>
</g>
<g>
</g>
<g>
</g>
</svg>
