<?xml version="1.0" encoding="iso-8859-1"?>
<!-- Generator: Adobe Illustrator 19.0.0, SVG Export Plug-In . SVG Version: 6.00 Build 0)  -->
<svg version="1.1" id="Capa_1" xmlns="http://www.w3.org/2000/svg" xmlns:xlink="http://www.w3.org/1999/xlink" x="0px" y="0px"
	 viewBox="0 0 512.002 512.002" style="enable-background:new 0 0 512.002 512.002;" xml:space="preserve">
<polygon style="fill:#FF6E37;" points="77.848,256.001 256.001,77.849 434.153,256.001 502.001,256.001 256.001,10.002 
	10.001,256.001 "/>
<polygon style="fill:#FFFFFF;" points="64.001,256.918 64.001,502.002 448.001,502.002 448.001,256.918 256.001,77.849 "/>
<rect x="204" y="302.001" style="fill:#9BBEFF;" width="104" height="200"/>
<g>
	<rect x="350" y="302.001" style="fill:#F5C86E;" width="56" height="100"/>
	<rect x="106" y="302.001" style="fill:#F5C86E;" width="56" height="100"/>
	<circle style="fill:#F5C86E;" cx="256" cy="210.321" r="36"/>
</g>
<path d="M502.001,492.002h-44v-79c0-5.523-4.478-10-10-10s-10,4.477-10,10v79h-120v-190c0-5.523-4.478-10-10-10h-104
	c-5.522,0-10,4.477-10,10v190h-120V266.001h3.848c2.652,0,5.195-1.054,7.071-2.929L256.001,91.991l171.081,171.081
	c1.876,1.875,4.419,2.929,7.071,2.929h3.848v75c0,5.523,4.478,10,10,10s10-4.477,10-10v-75h44c4.045,0,7.691-2.437,9.239-6.173
	c1.548-3.736,0.691-8.038-2.168-10.898l-246-246c-3.906-3.905-10.236-3.905-14.143,0l-94,94c-3.905,3.905-3.905,10.237,0,14.142
	c3.906,3.906,10.238,3.906,14.143,0l86.929-86.929l221.857,221.858h-39.563L263.072,70.778c-3.906-3.905-10.236-3.905-14.143,0
	L73.706,246.001H34.143l78.929-78.928c3.905-3.905,3.905-10.237,0-14.143c-3.905-3.904-10.237-3.905-14.143,0l-96,96
	c-2.859,2.86-3.716,7.161-2.168,10.898s5.195,6.173,9.24,6.173h44v226h-44c-5.522,0-10,4.477-10,10s4.478,10,10,10h54h140h104h140
	h54c5.522,0,10-4.477,10-10S507.523,492.002,502.001,492.002z M214.001,492.002v-180h84v180H214.001z"/>
<path d="M350.001,292.002c-5.522,0-10,4.477-10,10v100c0,5.523,4.478,10,10,10h56c5.522,0,10-4.477,10-10v-100
	c0-5.523-4.478-10-10-10H350.001z M396.001,392.002h-36v-80h36V392.002z"/>
<path d="M106.001,292.002c-5.522,0-10,4.477-10,10v100c0,5.523,4.478,10,10,10h56c5.522,0,10-4.477,10-10v-100
	c0-5.523-4.478-10-10-10H106.001z M152.001,392.002h-36v-80h36V392.002z"/>
<path d="M210.001,210.322c0,25.364,20.636,46,46,46s46-20.636,46-46s-20.636-46-46-46S210.001,184.958,210.001,210.322z
	 M282.001,210.322c0,14.336-11.663,26-26,26c-14.337,0-26-11.664-26-26s11.663-26,26-26
	C270.338,184.322,282.001,195.986,282.001,210.322z"/>
<path d="M237.001,392.002c-2.63,0-5.21,1.07-7.07,2.93s-2.93,4.44-2.93,7.07s1.069,5.21,2.93,7.07s4.44,2.93,7.07,2.93
	s5.21-1.07,7.069-2.93c1.86-1.86,2.931-4.44,2.931-7.07s-1.07-5.21-2.931-7.07C242.211,393.072,239.63,392.002,237.001,392.002z"/>
<path d="M133.001,143.002c2.63,0,5.21-1.07,7.069-2.93c1.86-1.86,2.931-4.44,2.931-7.07s-1.07-5.21-2.931-7.07
	c-1.859-1.86-4.439-2.93-7.069-2.93s-5.21,1.07-7.07,2.93s-2.93,4.44-2.93,7.07s1.069,5.21,2.93,7.07
	S130.371,143.002,133.001,143.002z"/>
<path d="M448.001,364.331c-2.63,0-5.21,1.07-7.07,2.93c-1.86,1.87-2.93,4.44-2.93,7.07s1.069,5.21,2.93,7.08
	c1.86,1.86,4.44,2.92,7.07,2.92s5.21-1.06,7.069-2.92c1.86-1.87,2.931-4.44,2.931-7.08c0-2.63-1.07-5.21-2.931-7.07
	C453.211,365.402,450.63,364.331,448.001,364.331z"/>
<g>
</g>
<g>
</g>
<g>
</g>
<g>
</g>
<g>
</g>
<g>
</g>
<g>
</g>
<g>
</g>
<g>
</g>
<g>
</g>
<g>
</g>
<g>
</g>
<g>
</g>
<g>
</g>
<g>
</g>
</svg>
