<?xml version="1.0"?>
<svg xmlns="http://www.w3.org/2000/svg" height="512px" version="1.1" viewBox="0 -56 526.26243 526" width="512px" class=""><g><g id="surface1">
<path d="M 374.09375 337.226562 L 374.09375 233.507812 L 339.519531 233.507812 L 339.519531 337.226562 C 339.519531 342 335.648438 345.871094 330.875 345.871094 L 301.75 345.871094 L 356.804688 394.808594 L 411.863281 345.871094 L 382.738281 345.871094 C 377.960938 345.871094 374.09375 342 374.09375 337.226562 Z M 374.09375 337.226562 " style=" stroke:none;fill-rule:nonzero;fill:rgb(0%,86.666667%,76.078431%);fill-opacity:1;" data-original="#00DDC2"/>
<path d="M 149.367188 276.722656 L 149.367188 380.445312 L 183.941406 380.445312 L 183.941406 276.722656 C 183.941406 271.949219 187.8125 268.082031 192.585938 268.082031 L 221.710938 268.082031 L 166.65625 219.140625 L 111.597656 268.082031 L 140.726562 268.082031 C 145.5 268.082031 149.367188 271.949219 149.367188 276.722656 Z M 149.367188 276.722656 " style=" stroke:none;fill-rule:nonzero;fill:rgb(100%,89.411765%,46.666667%);fill-opacity:1;" data-original="#FFE477"/>
<path d="M 497.691406 157.601562 C 489.269531 149.328125 479.394531 142.679688 468.554688 137.992188 C 465.71875 117.332031 456.09375 98.195312 441.199219 83.601562 C 417.613281 60.492188 383.921875 50.917969 351.707031 58.164062 C 346.835938 46.863281 339.832031 36.609375 331.085938 27.957031 C 307.390625 4.792969 273.578125 -4.792969 241.253906 2.5 C 200.972656 11.957031 171.191406 46.019531 167.199219 87.203125 C 149.738281 74.128906 125.351562 75.726562 109.75 90.972656 C 99.539062 101.109375 95.082031 115.679688 97.871094 129.789062 L 97.335938 129.789062 C 52.296875 129.304688 12.890625 159.988281 2.320312 203.773438 C -4.878906 235.726562 4.925781 269.132812 28.25 292.125 C 46.382812 310.039062 70.871094 320.039062 96.359375 319.941406 L 114.796875 319.941406 C 119.570312 319.941406 123.441406 316.070312 123.441406 311.296875 C 123.441406 306.523438 119.570312 302.652344 114.796875 302.652344 L 96.359375 302.652344 C 75.441406 302.722656 55.347656 294.515625 40.464844 279.816406 C 21.351562 260.992188 13.3125 233.636719 19.199219 207.464844 C 28.003906 171.597656 60.40625 146.554688 97.335938 147.074219 L 110.222656 147.074219 C 114.996094 147.078125 118.871094 143.214844 118.875 138.441406 C 118.875 136.917969 118.476562 135.425781 117.714844 134.109375 C 111.972656 124.0625 113.6875 111.410156 121.898438 103.253906 C 132.332031 93.074219 148.980469 93.074219 159.410156 103.253906 L 169.230469 112.933594 C 172.628906 116.285156 178.101562 116.246094 181.453125 112.847656 C 183.042969 111.234375 183.9375 109.0625 183.941406 106.796875 L 183.941406 97.679688 C 183.5 60.546875 208.816406 28.054688 244.925781 19.40625 C 271.542969 13.355469 299.410156 21.207031 318.949219 40.261719 C 327.710938 48.9375 334.308594 59.550781 338.214844 71.246094 C 339.703125 75.710938 344.492188 78.164062 348.984375 76.761719 C 377.183594 67.890625 407.980469 75.253906 429.113281 95.925781 C 442.230469 108.714844 450.3125 125.796875 451.882812 144.050781 C 451.878906 147.65625 454.117188 150.882812 457.492188 152.148438 C 468.003906 156.019531 477.582031 162.074219 485.589844 169.910156 C 504.6875 188.742188 512.707031 216.101562 506.800781 242.265625 C 498.003906 278.132812 465.601562 303.179688 428.671875 302.65625 L 408.664062 302.65625 C 403.890625 302.65625 400.019531 306.523438 400.019531 311.296875 C 400.019531 316.070312 403.890625 319.941406 408.664062 319.941406 L 428.671875 319.941406 C 473.714844 320.429688 513.121094 289.742188 523.6875 245.957031 C 530.875 213.988281 521.042969 180.582031 497.691406 157.601562 Z M 497.691406 157.601562 " style="fill:#222222" data-original="#231F20" class="active-path" data-old_color="#564E50"/>
<path d="M 172.402344 201.121094 C 169.125 198.203125 164.183594 198.203125 160.90625 201.121094 L 83.117188 270.269531 C 79.550781 273.441406 79.234375 278.90625 82.40625 282.46875 C 84.046875 284.3125 86.398438 285.367188 88.863281 285.367188 L 132.082031 285.367188 L 132.082031 389.085938 C 132.082031 393.859375 135.953125 397.730469 140.726562 397.730469 L 192.585938 397.730469 C 197.359375 397.730469 201.230469 393.859375 201.230469 389.085938 L 201.230469 285.367188 L 244.445312 285.367188 C 249.21875 285.371094 253.089844 281.5 253.089844 276.726562 C 253.089844 274.257812 252.035156 271.910156 250.191406 270.269531 Z M 192.585938 268.082031 C 187.8125 268.082031 183.941406 271.949219 183.941406 276.722656 L 183.941406 380.445312 L 149.367188 380.445312 L 149.367188 276.722656 C 149.367188 271.949219 145.5 268.082031 140.726562 268.082031 L 111.597656 268.082031 L 166.65625 219.140625 L 221.710938 268.082031 Z M 192.585938 268.082031 " style="fill:#222222" data-original="#231F20" class="active-path" data-old_color="#564E50"/>
<path d="M 434.59375 328.582031 L 391.378906 328.582031 L 391.378906 224.863281 C 391.378906 220.089844 387.507812 216.222656 382.734375 216.222656 L 330.875 216.222656 C 326.101562 216.222656 322.234375 220.089844 322.234375 224.863281 L 322.234375 328.582031 L 279.015625 328.582031 C 274.242188 328.582031 270.371094 332.453125 270.371094 337.226562 C 270.371094 339.691406 271.425781 342.042969 273.269531 343.683594 L 351.058594 412.828125 C 354.332031 415.746094 359.277344 415.746094 362.550781 412.828125 L 440.339844 343.683594 C 443.90625 340.507812 444.226562 335.046875 441.050781 331.480469 C 439.414062 329.636719 437.0625 328.582031 434.59375 328.582031 Z M 356.804688 394.808594 L 301.75 345.871094 L 330.875 345.871094 C 335.648438 345.871094 339.519531 342 339.519531 337.226562 L 339.519531 233.507812 L 374.09375 233.507812 L 374.09375 337.226562 C 374.09375 342 377.960938 345.871094 382.738281 345.871094 L 411.863281 345.871094 Z M 356.804688 394.808594 " style="fill:#222222" data-original="#231F20" class="active-path" data-old_color="#564E50"/>
</g></g> </svg>
