<?xml version="1.0" encoding="iso-8859-1"?>
<!-- Generator: Adobe Illustrator 19.0.0, SVG Export Plug-In . SVG Version: 6.00 Build 0)  -->
<svg version="1.1" id="Layer_1" xmlns="http://www.w3.org/2000/svg" xmlns:xlink="http://www.w3.org/1999/xlink" x="0px" y="0px"
	 viewBox="0 0 512 512" style="enable-background:new 0 0 512 512;" xml:space="preserve">
<path style="fill:#027372;" d="M438.468,155.234h-32.681l32.681,272.34l32.681-21.787V187.915
	C471.149,169.94,456.443,155.234,438.468,155.234z"/>
<path style="fill:#02ACAB;" d="M405.787,155.234H73.532c-17.974,0-32.681,14.706-32.681,32.681v217.872l397.617,21.787v-239.66
	C438.468,169.94,423.762,155.234,405.787,155.234z"/>
<path style="fill:#B9B9B9;" d="M471.149,427.574l-32.681,76.255h32.681c17.974,0,32.681-14.706,32.681-32.681v-21.787
	L471.149,427.574z"/>
<path style="fill:#DCDCDC;" d="M471.149,471.149v-43.574L8.17,449.362v21.787c0,17.974,14.706,32.681,32.681,32.681h397.617
	C456.443,503.83,471.149,489.123,471.149,471.149z"/>
<polygon style="fill:#D5F6F5;" points="471.149,405.787 438.468,405.787 422.684,427.574 471.149,449.362 503.83,449.362 "/>
<polygon style="fill:#FFFFFF;" points="40.851,405.787 8.17,449.362 471.149,449.362 438.468,405.787 "/>
<polygon style="fill:#FE5F1A;" points="256,302.298 294.128,8.17 326.809,8.17 326.809,187.915 370.383,187.915 "/>
<polygon style="fill:#FE834D;" points="141.617,187.915 185.191,187.915 185.191,8.17 294.128,8.17 294.128,187.915 
	337.702,187.915 256,302.298 "/>
<path d="M510.366,444.46l-31.047-41.396V187.915c0-22.526-18.325-40.851-40.851-40.851h-78.979c-4.513,0-8.17,3.657-8.17,8.17
	s3.657,8.17,8.17,8.17h78.979c13.515,0,24.511,10.996,24.511,24.511v209.702H40.851c-2.571,0-4.994,1.21-6.536,3.268L1.634,444.46
	C0.573,445.874,0,447.594,0,449.362v21.787C0,493.675,18.325,512,40.851,512h430.298C493.675,512,512,493.675,512,471.149v-21.787
	C512,447.594,511.427,445.874,510.366,444.46z M44.936,413.957h422.128l20.426,27.234H24.511L44.936,413.957z M471.149,495.66
	H40.851c-13.515,0-24.511-10.996-24.511-24.511v-13.617H247.83v13.617c0,4.513,3.657,8.17,8.17,8.17s8.17-3.657,8.17-8.17v-13.617
	H495.66v13.617C495.66,484.664,484.664,495.66,471.149,495.66z"/>
<path d="M40.851,381.277c4.513,0,8.17-3.657,8.17-8.17V187.915c0-13.515,10.996-24.511,24.511-24.511h78.979
	c4.513,0,8.17-3.657,8.17-8.17s-3.657-8.17-8.17-8.17H73.532c-22.526,0-40.851,18.325-40.851,40.851v185.191
	C32.681,377.62,36.338,381.277,40.851,381.277z"/>
<path d="M134.069,184.788c-1.265,3.053-0.566,6.567,1.77,8.904l114.383,114.383c1.596,1.595,3.687,2.392,5.778,2.392
	c2.09,0,4.182-0.797,5.778-2.392l114.383-114.383c2.337-2.338,3.035-5.851,1.77-8.904c-1.264-3.053-4.244-5.044-7.548-5.044h-35.404
	V8.17c0-4.513-3.657-8.17-8.17-8.17H185.191c-4.513,0-8.17,3.657-8.17,8.17v171.574h-35.404
	C138.313,179.745,135.332,181.735,134.069,184.788z M185.191,196.085c4.513,0,8.17-3.657,8.17-8.17V16.34h125.277v171.574
	c0,4.513,3.657,8.17,8.17,8.17h23.85L256,290.744l-94.659-94.659H185.191z"/>
<circle cx="256" cy="98.043" r="8.17"/>
<circle cx="217.872" cy="98.043" r="8.17"/>
<circle cx="294.128" cy="98.043" r="8.17"/>
<g>
</g>
<g>
</g>
<g>
</g>
<g>
</g>
<g>
</g>
<g>
</g>
<g>
</g>
<g>
</g>
<g>
</g>
<g>
</g>
<g>
</g>
<g>
</g>
<g>
</g>
<g>
</g>
<g>
</g>
</svg>
