<?xml version="1.0" encoding="iso-8859-1"?>
<!-- Generator: Adobe Illustrator 19.0.0, SVG Export Plug-In . SVG Version: 6.00 Build 0)  -->
<svg version="1.1" id="Capa_1" xmlns="http://www.w3.org/2000/svg" xmlns:xlink="http://www.w3.org/1999/xlink" x="0px" y="0px"
	 viewBox="0 0 480 480" style="enable-background:new 0 0 480 480;" xml:space="preserve">
<g>
	<path style="fill:#5358A1;" d="M168,392v-40h-48v-15c-0.427-12.835-11.164-22.901-24-22.5c-12.836-0.401-23.573,9.665-24,22.5v15
		H24v120h144v-40l-16,2.5c-12.836,0.401-23.573-9.665-24-22.5c0.427-12.835,11.164-22.901,24-22.5L168,392z"/>
	<path style="fill:#5358A1;" d="M312,392v-40h48v-15c0.427-12.835,11.164-22.901,24-22.5c12.836-0.401,23.573,9.665,24,22.5v15h48
		v120H312v-40l16,2.5c12.836,0.401,23.573-9.665,24-22.5c-0.427-12.835-11.164-22.901-24-22.5L312,392z"/>
</g>
<g>
	<path style="fill:#17AFDC;" d="M168,312v40h-48v-15c-0.427-12.835-11.164-22.901-24-22.5c-12.836-0.401-23.573,9.665-24,22.5v15H24
		V232h144v40l16-2.5c12.836-0.401,23.573,9.665,24,22.5c-0.427,12.835-11.164,22.901-24,22.5L168,312z"/>
	<path style="fill:#17AFDC;" d="M312,312v40h48v-15c0.427-12.835,11.164-22.901,24-22.5c12.836-0.401,23.573,9.665,24,22.5v15h48
		V232H312v40l-16-2.5c-12.836-0.401-23.573,9.665-24,22.5c0.427,12.835,11.164,22.901,24,22.5L312,312z"/>
</g>
<path style="fill:#DBE6FD;" d="M312,392v-40h-48v15c-0.427,12.835-11.164,22.901-24,22.5c-12.836,0.401-23.573-9.665-24-22.5v-15
	h-48v40l-16-2.5c-12.836-0.401-23.573,9.665-24,22.5c0.427,12.835,11.164,22.901,24,22.5l16-2.5v40h144v-40l16,2.5
	c12.836,0.401,23.573-9.665,24-22.5c-0.427-12.835-11.164-22.901-24-22.5L312,392z"/>
<path style="fill:#FCCC38;" d="M184,102.095c12.624-0.616,23.357,9.117,23.973,21.741s-9.117,23.357-21.741,23.973
	c-0.744,0.036-1.489,0.036-2.232,0l-16-2.54V184h48v17.143c0.647,13.255,11.916,23.476,25.171,22.829
	c12.35-0.603,22.226-10.479,22.829-22.829V184h48v-38.73l-16,2.54c-12.624,0.616-23.357-9.117-23.973-21.741
	c-0.616-12.624,9.117-23.357,21.741-23.973c0.744-0.036,1.489-0.036,2.232,0l16,2.54V64H168v40.635L184,102.095z"/>
<path d="M456,224H312c-4.417-0.001-7.999,3.579-8,7.996c0,0.001,0,0.003,0,0.004v30.656l-6.766-1.062
	c-0.409-0.062-0.821-0.094-1.234-0.094c-16.845-0.809-31.155,12.191-31.964,29.036c-0.809,16.845,12.191,31.155,29.036,31.964
	c0.975,0.047,1.953,0.047,2.928,0c0.413,0,0.826-0.031,1.234-0.094l6.766-1.062V344h-40c-4.417-0.001-7.999,3.579-8,7.996
	c0,0.001,0,0.003,0,0.004v15c-0.871,8.837-8.741,15.294-17.578,14.422c-7.632-0.753-13.67-6.79-14.422-14.422v-15
	c0.001-4.417-3.579-7.999-7.996-8c-0.001,0-0.003,0-0.004,0h-40v-22.656l6.766,1.062c0.408,0.062,0.821,0.094,1.234,0.094
	c16.845,0.809,31.155-12.191,31.964-29.036c0.809-16.845-12.191-31.155-29.036-31.964c-0.975-0.047-1.953-0.047-2.928,0
	c-0.413,0-0.826,0.031-1.234,0.094L176,262.656V232c0.001-4.417-3.579-7.999-7.996-8c-0.001,0-0.003,0-0.004,0H24
	c-4.417-0.001-7.999,3.579-8,7.996c0,0.001,0,0.003,0,0.004v240c-0.001,4.417,3.579,7.999,7.996,8c0.001,0,0.003,0,0.004,0h432
	c4.417,0.001,7.999-3.579,8-7.996c0-0.001,0-0.003,0-0.004V232c0.001-4.417-3.579-7.999-7.996-8C456.003,224,456.001,224,456,224z
	 M32,240h128v32c-0.001,4.419,3.581,8.001,8,8.002c0.413,0,0.826-0.032,1.234-0.096l15.328-2.398
	c8.004-0.508,14.904,5.569,15.411,13.573s-5.569,14.904-13.573,15.411c-0.612,0.039-1.226,0.039-1.838,0l-15.328-2.398
	c-4.366-0.681-8.458,2.306-9.139,6.672C160.032,311.174,160,311.587,160,312v32h-32v-7c-0.443-17.246-14.752-30.885-32-30.5
	c-17.248-0.385-31.557,13.254-32,30.5v7H32V240z M160,464H32V360h40c4.417,0.001,7.999-3.579,8-7.996c0-0.001,0-0.003,0-0.004v-15
	c0.444-8.408,7.589-14.883,16-14.5c8.411-0.383,15.556,6.092,16,14.5v15c-0.001,4.417,3.579,7.999,7.996,8c0.001,0,0.003,0,0.004,0
	h40v22.656l-6.766-1.062c-0.408-0.062-0.821-0.094-1.234-0.094c-16.845-0.809-31.155,12.191-31.964,29.036
	c-0.809,16.845,12.191,31.155,29.036,31.964c0.975,0.047,1.953,0.047,2.928,0c0.413,0,0.826-0.031,1.234-0.094l6.766-1.062V464z
	 M306.797,425.922c-1.774,1.521-2.795,3.741-2.797,6.078v32H176v-32c0.001-4.419-3.581-8.001-8-8.002
	c-0.413,0-0.826,0.032-1.234,0.096l-15.328,2.398c-8.004,0.508-14.904-5.569-15.411-13.573s5.569-14.904,13.573-15.411
	c0.612-0.039,1.226-0.039,1.838,0l15.328,2.398c4.366,0.681,8.458-2.306,9.139-6.672c0.064-0.408,0.096-0.821,0.096-1.235v-32h32v7
	c0.849,17.673,15.864,31.312,33.537,30.463C258.022,396.672,271.208,383.485,272,367v-7h32v32c-0.001,4.419,3.581,8.001,8,8.002
	c0.413,0,0.826-0.032,1.234-0.096l15.328-2.398c8.004-0.508,14.904,5.569,15.411,13.573s-5.569,14.904-13.573,15.411
	c-0.612,0.039-1.226,0.039-1.838,0l-15.328-2.398C310.925,423.742,308.577,424.409,306.797,425.922z M448,464H320v-22.656
	l6.766,1.062c0.409,0.062,0.821,0.094,1.234,0.094c16.845,0.809,31.155-12.191,31.964-29.036
	c0.809-16.845-12.191-31.155-29.036-31.964c-0.975-0.047-1.953-0.047-2.928,0c-0.413,0-0.826,0.031-1.234,0.094L320,382.656V360h40
	c4.417,0.001,7.999-3.579,8-7.996c0-0.001,0-0.003,0-0.004v-15c0.871-8.837,8.741-15.294,17.578-14.422
	c7.632,0.753,13.67,6.79,14.422,14.422v15c-0.001,4.417,3.579,7.999,7.996,8c0.001,0,0.003,0,0.004,0h40V464z M448,344h-32v-7
	c-0.849-17.673-15.864-31.312-33.537-30.463C365.978,307.328,352.792,320.515,352,337v7h-32v-32c0.001-4.419-3.581-8.001-8-8.002
	c-0.413,0-0.826,0.032-1.234,0.096l-15.328,2.398c-8.004,0.508-14.904-5.569-15.411-13.573s5.569-14.904,13.573-15.411
	c0.612-0.039,1.226-0.039,1.838,0l15.328,2.398c4.366,0.681,8.458-2.306,9.139-6.672c0.064-0.408,0.096-0.821,0.096-1.235v-32h128
	V344z"/>
<path d="M240,232c-17.348,0.289-31.66-13.512-32-30.859V192h-40c-4.417,0.001-7.999-3.579-8-7.996c0-0.001,0-0.003,0-0.004v-38.727
	c-0.003-4.414,3.573-7.995,7.987-7.999c0.424,0,0.848,0.033,1.267,0.1l15.316,2.43c8.202,0.313,15.106-6.082,15.419-14.284
	c0.313-8.202-6.082-15.106-14.284-15.419c-0.378-0.014-0.757-0.014-1.135,0l-15.316,2.43c-4.359,0.696-8.457-2.273-9.154-6.632
	c-0.067-0.419-0.1-0.843-0.1-1.267V64c-0.001-4.417,3.579-7.999,7.996-8c0.001,0,0.003,0,0.004,0h144
	c4.417-0.001,7.999,3.579,8,7.996c0,0.001,0,0.003,0,0.004v40.633c0.003,4.414-3.573,7.995-7.987,7.999
	c-0.424,0-0.848-0.033-1.267-0.1l-15.316-2.43c-8.202-0.313-15.106,6.082-15.419,14.284s6.082,15.106,14.284,15.419
	c0.378,0.014,0.757,0.014,1.135,0l15.316-2.43c4.359-0.696,8.457,2.273,9.154,6.632c0.067,0.419,0.1,0.843,0.1,1.267V184
	c0.001,4.417-3.579,7.999-7.996,8c-0.001,0-0.003,0-0.004,0h-40v9.141C271.66,218.488,257.348,232.289,240,232z M176,176h40
	c4.417-0.001,7.999,3.579,8,7.996c0,0.001,0,0.003,0,0.004v17.141c0.654,8.837,8.348,15.47,17.184,14.816
	c7.927-0.587,14.229-6.889,14.816-14.816V184c-0.001-4.417,3.579-7.999,7.996-8c0.001,0,0.003,0,0.004,0h40v-21.359l-6.746,1.07
	c-0.414,0.069-0.834,0.103-1.254,0.102c-17.043,0.623-31.365-12.687-31.988-29.731s12.687-31.365,29.731-31.988
	c0.752-0.028,1.505-0.028,2.258,0c0.42-0.001,0.84,0.033,1.254,0.102l6.746,1.07V72H176v23.266l6.746-1.07
	c0.414-0.069,0.834-0.103,1.254-0.102c17.043-0.623,31.365,12.687,31.988,29.731s-12.687,31.365-29.731,31.988
	c-0.752,0.028-1.505,0.028-2.258,0c-0.42,0.001-0.84-0.033-1.254-0.102l-6.746-1.07V176z"/>
<g>
	<path style="fill:#FCCC38;" d="M232,0h16v40h-16V0z"/>
	<path style="fill:#FCCC38;" d="M115.743,25.697l12.067-10.51l24,27.555l-12.067,10.51L115.743,25.697z"/>
	<path style="fill:#FCCC38;" d="M326.005,41.956l27.555-24.004l10.508,12.063l-27.555,24.004L326.005,41.956z"/>
	<path style="fill:#FCCC38;" d="M104,120h40v16h-40V120z"/>
	<path style="fill:#FCCC38;" d="M336,120h40v16h-40V120z"/>
</g>
<g>
</g>
<g>
</g>
<g>
</g>
<g>
</g>
<g>
</g>
<g>
</g>
<g>
</g>
<g>
</g>
<g>
</g>
<g>
</g>
<g>
</g>
<g>
</g>
<g>
</g>
<g>
</g>
<g>
</g>
</svg>
