<?xml version="1.0" encoding="iso-8859-1"?>
<!-- Generator: Adobe Illustrator 19.0.0, SVG Export Plug-In . SVG Version: 6.00 Build 0)  -->
<svg version="1.1" id="Capa_1" xmlns="http://www.w3.org/2000/svg" xmlns:xlink="http://www.w3.org/1999/xlink" x="0px" y="0px"
	 viewBox="0 0 512 512" style="enable-background:new 0 0 512 512;" xml:space="preserve">
<path style="fill:#FFB4A9;" d="M188.5,71.294v90c24.853,0,45-20.147,45-45S213.353,71.294,188.5,71.294z"/>
<path style="fill:#FFD9D4;" d="M203.5,116.294c0-24.853-6.716-45-15-45c-24.853,0-45,20.147-45,45s20.147,45,45,45
	C196.784,161.294,203.5,141.146,203.5,116.294z"/>
<path style="fill:#FF6337;" d="M188.5,241.294v90c24.853,0,45-20.147,45-45L188.5,241.294z"/>
<path style="fill:#FF8646;" d="M203.5,286.294l-15-45l-45,45c0,24.853,20.147,45,45,45C196.784,331.294,203.5,311.146,203.5,286.294
	z"/>
<path style="fill:#FFCB63;" d="M213.5,191.294h-30l20,95h30v-75C233.5,200.247,224.546,191.294,213.5,191.294z"/>
<path style="fill:#FFE2A8;" d="M183.5,191.294h-20c-11.046,0-20,8.954-20,20v75h60v-75C203.5,200.247,194.546,191.294,183.5,191.294
	z"/>
<path style="fill:#A8E5FF;" d="M52.5,378.294v90c24.853,0,45-20.147,45-45C97.5,398.44,77.353,378.294,52.5,378.294z"/>
<path style="fill:#DBF4FF;" d="M67.5,423.294c0-24.853-6.716-45-15-45c-24.853,0-45,20.147-45,45c0,24.853,20.147,45,45,45
	C60.784,468.294,67.5,448.146,67.5,423.294z"/>
<g>
	<circle style="fill:#60312C;" cx="370.29" cy="63.708" r="20"/>
	<circle style="fill:#60312C;" cx="446.71" cy="63.708" r="20"/>
</g>
<path style="fill:#85453D;" d="M408.5,71.294v90c24.853,0,45-20.147,45-45S433.353,71.294,408.5,71.294z"/>
<path style="fill:#A45E43;" d="M423.5,116.294c0-24.853-6.716-45-15-45c-24.853,0-45,20.147-45,45s20.147,45,45,45
	C416.784,161.294,423.5,141.146,423.5,116.294z"/>
<path style="fill:#A8E5FF;" d="M433.5,191.294h-30v125h50v-105C453.5,200.247,444.546,191.294,433.5,191.294z"/>
<path style="fill:#DBF4FF;" d="M403.5,191.294h-20c-11.046,0-20,8.954-20,20v105h60v-105
	C423.5,200.247,414.546,191.294,403.5,191.294z"/>
<path style="fill:#CF301B;" d="M453.5,286.294h-30l15,45h30v-5.335C468.5,310.747,462.829,296.869,453.5,286.294z"/>
<path style="fill:#FF4128;" d="M423.5,286.294h-60c-9.329,10.575-15,24.454-15,39.665v5.335h90v-5.335
	C438.5,310.747,432.829,296.869,423.5,286.294z"/>
<path d="M188.5,168.794c28.949,0,52.5-23.551,52.5-52.5s-23.551-52.5-52.5-52.5s-52.5,23.551-52.5,52.5
	S159.551,168.794,188.5,168.794z M188.5,78.794c20.678,0,37.5,16.822,37.5,37.5s-16.822,37.5-37.5,37.5s-37.5-16.822-37.5-37.5
	S167.822,78.794,188.5,78.794z"/>
<path d="M286.872,404.177L226,383.888v-60.902c9.27-9.472,15-22.423,15-36.692v-75c0-15.164-12.336-27.5-27.5-27.5h-50
	c-15.164,0-27.5,12.336-27.5,27.5v27.008c-17.313-1.645-34.175-9.082-47.405-22.311c-2.929-2.929-7.678-2.929-10.606,0
	c-2.929,2.929-2.929,7.678,0,10.606c18.033,18.033,41.72,27.049,65.407,27.049s47.375-9.017,65.407-27.049
	c2.929-2.929,2.929-7.678,0-10.606c-2.929-2.929-7.678-2.929-10.606,0C185.02,229.167,168.24,236.592,151,238.279v-26.985
	c0-6.893,5.607-12.5,12.5-12.5h50c6.893,0,12.5,5.607,12.5,12.5v67.5h-75v-2.659c0-4.142-3.358-7.5-7.5-7.5s-7.5,3.358-7.5,7.5
	v10.159c0,14.269,5.73,27.22,15,36.692v129.902l-24.872,8.291c-3.93,1.31-6.053,5.558-4.744,9.487
	c1.048,3.143,3.974,5.13,7.114,5.13c0.786,0,1.586-0.125,2.373-0.387l30-10c3.062-1.021,5.128-3.887,5.128-7.115V333.718
	c6.824,3.251,14.452,5.076,22.5,5.076s15.676-1.825,22.5-5.076v55.576c0,3.228,2.066,6.094,5.128,7.115L277,416.698v24.594
	c0,4.142,3.357,7.5,7.5,7.5s7.5-3.358,7.5-7.5v-30C292,408.065,289.935,405.198,286.872,404.177z M151.755,293.794h73.491
	c-3.484,17.096-18.635,30-36.745,30S155.239,310.89,151.755,293.794z"/>
<path d="M52.5,370.794c-28.949,0-52.5,23.551-52.5,52.5c0,28.949,23.551,52.5,52.5,52.5s52.5-23.551,52.5-52.5
	C105,394.344,81.449,370.794,52.5,370.794z M52.5,460.794c-20.678,0-37.5-16.822-37.5-37.5c0-20.678,16.822-37.5,37.5-37.5
	s37.5,16.822,37.5,37.5C90,443.971,73.178,460.794,52.5,460.794z"/>
<path d="M362.975,90.196C358.547,97.89,356,106.797,356,116.294c0,28.949,23.552,52.5,52.5,52.5s52.5-23.551,52.5-52.5
	c0-9.496-2.547-18.404-6.975-26.098c5.934-1.648,11.242-5.25,14.929-10.325c8.912-12.267,6.184-29.499-6.084-38.412
	c-4.73-3.437-10.314-5.253-16.147-5.253c-8.783,0-17.106,4.238-22.265,11.337c-3.798,5.228-5.475,11.358-5.207,17.361
	c-3.472-0.725-7.067-1.111-10.751-1.111s-7.279,0.386-10.751,1.111c0.268-6.003-1.409-12.133-5.207-17.362
	c-5.158-7.099-13.481-11.337-22.265-11.337c-5.833,0-11.417,1.816-16.147,5.253c-12.268,8.913-14.996,26.145-6.084,38.412
	C351.733,84.947,357.042,88.548,362.975,90.196z M436.593,56.361c2.345-3.228,6.132-5.154,10.13-5.154
	c2.646,0,5.18,0.826,7.331,2.388c5.575,4.052,6.816,11.884,2.766,17.46c-2.346,3.228-6.132,5.155-10.13,5.155
	c-2.645,0-5.18-0.826-7.331-2.389C433.783,69.769,432.542,61.936,436.593,56.361z M446,116.294c0,20.678-16.822,37.5-37.5,37.5
	s-37.5-16.822-37.5-37.5s16.822-37.5,37.5-37.5S446,95.616,446,116.294z M362.946,53.595c2.151-1.562,4.686-2.389,7.331-2.389
	c3.998,0,7.785,1.927,10.13,5.154c4.051,5.576,2.81,13.409-2.766,17.46c-2.151,1.563-4.687,2.389-7.331,2.389
	c-4.058,0-7.75-1.879-10.13-5.154C356.13,65.479,357.371,57.646,362.946,53.595z"/>
<path d="M506.872,404.177L446,383.888v-45.094h22.5c4.143,0,7.5-3.358,7.5-7.5v-5.335c0-15.472-5.307-30.417-15-42.406v-72.259
	c0-15.164-12.337-27.5-27.5-27.5h-50c-15.163,0-27.5,12.336-27.5,27.5v26.89c-16.961-1.833-33.43-9.22-46.404-22.193
	c-2.93-2.929-7.678-2.929-10.607,0s-2.929,7.678,0,10.606c15.9,15.899,36.196,24.78,57.012,26.661v30.295
	c-9.693,11.989-15,26.935-15,42.406v5.335c0,4.142,3.357,7.5,7.5,7.5H371v114.094l-24.872,8.291c-3.93,1.31-6.053,5.558-4.743,9.487
	c1.048,3.143,3.974,5.13,7.114,5.13c0.786,0,1.586-0.125,2.373-0.387l30-10c3.062-1.021,5.128-3.887,5.128-7.115v-119.5h45v50.5
	c0,3.228,2.065,6.094,5.128,7.115L497,416.698v24.594c0,4.142,3.357,7.5,7.5,7.5s7.5-3.358,7.5-7.5v-30
	C512,408.065,509.935,405.198,506.872,404.177z M383.5,198.794h50c6.893,0,12.5,5.607,12.5,12.5v67.5h-75v-25.408
	c21.439-1.521,42.448-10.433,58.804-26.789c2.929-2.929,2.929-7.678,0-10.606c-2.93-2.929-7.678-2.929-10.607,0
	c-13.431,13.431-30.606,20.877-48.196,22.368v-27.065C371,204.4,376.607,198.794,383.5,198.794z M367.037,293.794h82.925
	c6.691,8.615,10.542,19.088,10.992,30h-104.91C356.495,312.88,360.346,302.409,367.037,293.794z"/>
<g>
</g>
<g>
</g>
<g>
</g>
<g>
</g>
<g>
</g>
<g>
</g>
<g>
</g>
<g>
</g>
<g>
</g>
<g>
</g>
<g>
</g>
<g>
</g>
<g>
</g>
<g>
</g>
<g>
</g>
</svg>
