<?xml version="1.0" encoding="iso-8859-1"?>
<!-- Generator: Adobe Illustrator 19.0.0, SVG Export Plug-In . SVG Version: 6.00 Build 0)  -->
<svg version="1.1" id="Capa_1" xmlns="http://www.w3.org/2000/svg" xmlns:xlink="http://www.w3.org/1999/xlink" x="0px" y="0px"
	 viewBox="0 0 465.68 465.68" style="enable-background:new 0 0 465.68 465.68;" xml:space="preserve">
<g>
	<circle style="fill:#FFFFFF;" cx="135.72" cy="168" r="9.88"/>
	<circle style="fill:#FFFFFF;" cx="135.72" cy="168" r="5.84"/>
	<path style="fill:#FFFFFF;" d="M281.52,228.28c-4.418,0-8-3.582-8-8s3.582-8,8-8h45.64c4.418,0,8,3.582,8,8s-3.582,8-8,8H281.52z"
		/>
	<path style="fill:#FFFFFF;" d="M327.16,216.24h-45.64c-2.209,0-4,1.791-4,4s1.791,4,4,4h45.64c2.209,0,4-1.791,4-4
		S329.369,216.24,327.16,216.24L327.16,216.24z"/>
	<path style="fill:#FFFFFF;" d="M138.52,228.28c-4.418,0-8-3.582-8-8s3.582-8,8-8h45.64c4.418,0,8,3.582,8,8s-3.582,8-8,8H138.52z"
		/>
	<path style="fill:#FFFFFF;" d="M188.16,220.2c0-2.209-1.791-4-4-4h-45.64c-2.209,0-4,1.791-4,4s1.791,4,4,4h45.64
		C186.369,224.2,188.16,222.409,188.16,220.2z"/>
	<path style="fill:#FFFFFF;" d="M185,273.92c-4.418,0-8-3.582-8-8s3.582-8,8-8h95.68c4.418,0,8,3.582,8,8s-3.582,8-8,8H185z"/>
	<path style="fill:#FFFFFF;" d="M280.64,261.88H185c-2.209,0-4,1.791-4,4s1.791,4,4,4h95.64c2.209,0,4-1.791,4-4
		S282.849,261.88,280.64,261.88z"/>
</g>
<g>
	<path style="fill:#3AC3ED;" d="M128.48,287.04c-9.145,0.088-16.631-7.254-16.719-16.399c-0.001-0.054-0.001-0.107-0.001-0.161
		V19.24c0-9.146,7.414-16.56,16.56-16.56H337.2c9.146,0,16.56,7.414,16.56,16.56v251.24c0,9.146-7.414,16.56-16.56,16.56H128.48z
		 M185,259.04c-3.667-0.002-6.641,2.97-6.643,6.637c-0.002,3.667,2.97,6.641,6.637,6.643c0.002,0,0.004,0,0.006,0h95.68
		c3.667-0.002,6.639-2.976,6.637-6.643c-0.002-3.665-2.972-6.636-6.637-6.637H185z M281.52,213.56
		c-3.667-0.002-6.641,2.97-6.643,6.637c-0.002,3.667,2.97,6.641,6.637,6.643c0.002,0,0.004,0,0.006,0h45.64
		c3.667,0.002,6.641-2.97,6.643-6.637c0.002-3.667-2.97-6.641-6.637-6.643c-0.002,0-0.004,0-0.006,0H281.52z M138.56,213.56
		c-3.667-0.002-6.641,2.97-6.643,6.637s2.97,6.641,6.637,6.643c0.002,0,0.004,0,0.006,0h45.6c3.667-0.002,6.639-2.976,6.637-6.643
		c-0.002-3.665-2.972-6.636-6.637-6.637H138.56z M168.56,44.6c-5.015,0-9.08,4.065-9.08,9.08l0,0V184.2
		c0,5.015,4.065,9.08,9.08,9.08l0,0h128.56c5.015,0,9.08-4.065,9.08-9.08V53.68c0-5.015-4.065-9.08-9.08-9.08H168.56z
		 M329.92,159.52c-4.683,0-8.48,3.797-8.48,8.48s3.797,8.48,8.48,8.48c4.683,0,8.48-3.797,8.48-8.48
		C338.378,163.326,334.594,159.542,329.92,159.52z M135.76,159.52c-4.683,0-8.48,3.797-8.48,8.48c0,4.683,3.797,8.48,8.48,8.48
		c4.683,0,8.48-3.797,8.48-8.48c0,0,0,0,0,0C144.218,163.326,140.434,159.542,135.76,159.52z M329.92,110.48
		c-4.683,0-8.48,3.797-8.48,8.48s3.797,8.48,8.48,8.48c4.683,0,8.48-3.797,8.48-8.48C338.4,114.277,334.603,110.48,329.92,110.48
		L329.92,110.48z M135.76,110.48c-4.683,0-8.48,3.797-8.48,8.48c0,4.683,3.797,8.48,8.48,8.48c4.683,0,8.48-3.797,8.48-8.48
		c0,0,0,0,0,0C144.24,114.277,140.443,110.48,135.76,110.48z M329.92,61.4c-4.683,0-8.48,3.797-8.48,8.48s3.797,8.48,8.48,8.48
		c4.683,0,8.48-3.797,8.48-8.48S334.603,61.4,329.92,61.4L329.92,61.4z M135.76,61.4c-4.683,0-8.48,3.797-8.48,8.48
		c0,4.683,3.797,8.48,8.48,8.48c4.683,0,8.48-3.797,8.48-8.48v0C144.24,65.197,140.443,61.4,135.76,61.4z"/>
	<path style="fill:#3AC3ED;" d="M349.68,270.48V19.24c0-6.915-5.605-12.52-12.52-12.52H128.48c-6.915,0-12.52,5.605-12.52,12.52v0
		v251.24c0,6.915,5.605,12.52,12.52,12.52H337.2C344.099,282.978,349.68,277.379,349.68,270.48L349.68,270.48z M329.92,57.36
		c6.937,0,12.56,5.623,12.56,12.56c0,6.937-5.623,12.56-12.56,12.56s-12.56-5.623-12.56-12.56l0,0
		C317.36,62.983,322.983,57.36,329.92,57.36z M329.92,106.4c6.937,0,12.56,5.623,12.56,12.56c0,6.937-5.623,12.56-12.56,12.56
		s-12.56-5.623-12.56-12.56l0,0C317.36,112.023,322.983,106.4,329.92,106.4z M329.92,155.44c6.937,0,12.56,5.623,12.56,12.56
		c0,6.937-5.623,12.56-12.56,12.56s-12.56-5.623-12.56-12.56l0,0c0.022-6.921,5.639-12.52,12.56-12.52V155.44z M155.44,53.68
		c0.022-7.237,5.883-13.098,13.12-13.12h128.56c7.237,0.022,13.098,5.883,13.12,13.12V184.2c-0.022,7.237-5.883,13.098-13.12,13.12
		H168.56c-7.237-0.022-13.098-5.883-13.12-13.12L155.44,53.68z M135.76,57.36c6.937,0,12.56,5.623,12.56,12.56
		c0,6.937-5.623,12.56-12.56,12.56c-6.937,0-12.56-5.623-12.56-12.56l0,0C123.2,62.983,128.823,57.36,135.76,57.36z M135.76,106.4
		c6.937,0,12.56,5.623,12.56,12.56c0,6.937-5.623,12.56-12.56,12.56c-6.937,0-12.56-5.623-12.56-12.56l0,0
		C123.2,112.023,128.823,106.4,135.76,106.4z M123.2,168c0-6.937,5.623-12.56,12.56-12.56c6.937,0,12.56,5.623,12.56,12.56
		c0,6.937-5.623,12.56-12.56,12.56l0,0C128.823,180.56,123.2,174.937,123.2,168z M127.76,220.2c0-5.92,4.8-10.72,10.72-10.72l0,0
		h45.68c5.909-0.362,10.993,4.136,11.355,10.045c0.362,5.909-4.136,10.993-10.045,11.355c-0.436,0.027-0.873,0.027-1.309,0h-45.64
		C132.6,230.902,127.782,226.121,127.76,220.2C127.76,220.2,127.76,220.2,127.76,220.2L127.76,220.2z M280.64,276.56H185
		c-5.909-0.362-10.407-5.445-10.045-11.355c0.331-5.405,4.64-9.715,10.045-10.045h95.64c5.909-0.362,10.993,4.136,11.355,10.045
		c0.362,5.909-4.136,10.993-10.045,11.355C281.513,276.587,281.076,276.587,280.64,276.56z M327.16,230.92h-45.64
		c-5.909,0.362-10.993-4.136-11.355-10.045c-0.362-5.909,4.136-10.993,10.045-11.355c0.436-0.027,0.873-0.027,1.309,0h45.64
		c5.909-0.362,10.993,4.136,11.355,10.045c0.362,5.909-4.136,10.993-10.045,11.355C328.033,230.947,327.596,230.947,327.16,230.92
		L327.16,230.92z"/>
</g>
<g>
	<path style="fill:#FFFFFF;" d="M142.88,285.64H322.8v135.72H142.88L142.88,285.64z"/>
	<path style="fill:#FFFFFF;" d="M146.92,289.68h171.84v127.6H146.92V289.68z"/>
</g>
<g>
	<path style="fill:#3AC3ED;" d="M133.96,463c-11.885,0-21.52-9.635-21.52-21.52c0-11.885,9.635-21.52,21.52-21.52h197.8
		c11.885,0,21.52,9.635,21.52,21.52c0,11.885-9.635,21.52-21.52,21.52H133.96z"/>
	<path style="fill:#3AC3ED;" d="M116.48,441.48c0,9.654,7.826,17.48,17.48,17.48l0,0h197.8c9.643-0.462,17.086-8.653,16.624-18.296
		c-0.431-8.997-7.627-16.194-16.624-16.624h-197.8C124.322,424.04,116.502,431.842,116.48,441.48z"/>
</g>
<g>
	<circle style="fill:#FFFFFF;" cx="329.92" cy="168" r="9.88"/>
	<circle style="fill:#FFFFFF;" cx="329.92" cy="168" r="5.84"/>
	<path style="fill:#FFFFFF;" d="M168.56,43.24h128.52c5.788,0,10.48,4.692,10.48,10.48V184.2c0,5.788-4.692,10.48-10.48,10.48
		H168.56c-5.788,0-10.48-4.692-10.48-10.48V53.72C158.08,47.932,162.772,43.24,168.56,43.24z"/>
	<path style="fill:#FFFFFF;" d="M168.56,47.28h128.6c3.535,0,6.4,2.865,6.4,6.4v130.56c0,3.535-2.865,6.4-6.4,6.4h-128.6
		c-3.535,0-6.4-2.865-6.4-6.4V53.68C162.16,50.145,165.025,47.28,168.56,47.28z"/>
	<circle style="fill:#FFFFFF;" cx="135.72" cy="69.88" r="9.88"/>
	<circle style="fill:#FFFFFF;" cx="135.72" cy="69.88" r="5.84"/>
	<circle style="fill:#FFFFFF;" cx="135.72" cy="118.96" r="9.88"/>
	<circle style="fill:#FFFFFF;" cx="135.72" cy="118.96" r="5.84"/>
	<circle style="fill:#FFFFFF;" cx="329.92" cy="69.88" r="9.88"/>
	<circle style="fill:#FFFFFF;" cx="329.92" cy="69.88" r="5.84"/>
	<circle style="fill:#FFFFFF;" cx="329.92" cy="118.96" r="9.88"/>
	<circle style="fill:#FFFFFF;" cx="329.92" cy="118.96" r="5.84"/>
</g>
<g>
	<path style="fill:#262742;" d="M337.2,289.68c10.626,0,19.24-8.614,19.24-19.24V19.24C356.44,8.614,347.826,0,337.2,0H128.48
		c-10.626,0-19.24,8.614-19.24,19.24c0,0,0,0,0,0v251.24c0,10.626,8.614,19.24,19.24,19.24h11.72v127.6h-6.24
		c-13.354,0-24.18,10.826-24.18,24.18c0,13.354,10.826,24.18,24.18,24.18h197.8c13.354,0,24.18-10.826,24.18-24.18
		s-10.826-24.18-24.18-24.18h-6.28V289.68L337.2,289.68z M115.96,270.48V19.24c0-6.915,5.605-12.52,12.52-12.52l0,0H337.2
		c6.915,0,12.52,5.605,12.52,12.52v251.24c0,6.915-5.605,12.52-12.52,12.52H128.48C121.565,283,115.96,277.395,115.96,270.48z
		 M349.16,441.48c0,9.623-7.777,17.436-17.4,17.48h-197.8c-9.643,0.462-17.834-6.981-18.296-16.624
		c-0.462-9.643,6.981-17.834,16.624-18.296c0.557-0.027,1.115-0.027,1.672,0h197.8c9.623,0.022,17.418,7.817,17.44,17.44
		L349.16,441.48z M318.72,417.48h-172v-127.8h172V417.48z"/>
	<path style="fill:#262742;" d="M168.56,197.36h128.56c7.237-0.022,13.098-5.883,13.12-13.12V53.68
		c-0.022-7.237-5.883-13.098-13.12-13.12H168.56c-7.237,0.022-13.098,5.883-13.12,13.12V184.2
		C155.44,191.452,161.308,197.338,168.56,197.36L168.56,197.36z M162.16,53.68c0-3.535,2.865-6.4,6.4-6.4h128.56
		c3.535,0,6.4,2.865,6.4,6.4V184.2c-0.022,3.526-2.874,6.378-6.4,6.4H168.56c-3.526-0.022-6.378-2.874-6.4-6.4L162.16,53.68z"/>
	<path style="fill:#262742;" d="M135.76,82.44c6.937,0,12.56-5.623,12.56-12.56c0-6.937-5.623-12.56-12.56-12.56
		c-6.937,0-12.56,5.623-12.56,12.56v0C123.2,76.817,128.823,82.44,135.76,82.44z M135.76,64.08c3.225,0,5.84,2.615,5.84,5.84
		c0,3.225-2.615,5.84-5.84,5.84c-3.225,0-5.84-2.615-5.84-5.84l0,0C129.92,66.695,132.535,64.08,135.76,64.08z"/>
	<path style="fill:#262742;" d="M135.76,131.48c6.937,0,12.56-5.623,12.56-12.56c0-6.937-5.623-12.56-12.56-12.56
		c-6.937,0-12.56,5.623-12.56,12.56l0,0C123.2,125.857,128.823,131.48,135.76,131.48z M135.76,113.12c3.225,0,5.84,2.615,5.84,5.84
		c0,3.225-2.615,5.84-5.84,5.84c-3.225,0-5.84-2.615-5.84-5.84c0,0,0,0,0,0C129.92,115.735,132.535,113.12,135.76,113.12z"/>
	<path style="fill:#262742;" d="M148.28,168c0-6.937-5.623-12.56-12.56-12.56c-6.937,0-12.56,5.623-12.56,12.56
		c0,6.937,5.623,12.56,12.56,12.56c0.013,0,0.027,0,0.04,0C142.681,180.538,148.28,174.921,148.28,168z M129.92,168
		c0-3.225,2.615-5.84,5.84-5.84c3.225,0,5.84,2.615,5.84,5.84c0,3.225-2.615,5.84-5.84,5.84c0,0,0,0,0,0
		C132.535,173.84,129.92,171.225,129.92,168z"/>
	<path style="fill:#262742;" d="M329.92,82.44c6.937,0,12.56-5.623,12.56-12.56s-5.623-12.56-12.56-12.56
		c-6.937,0-12.56,5.623-12.56,12.56v0C317.36,76.817,322.983,82.44,329.92,82.44z M329.92,64.08c3.225,0,5.84,2.615,5.84,5.84
		s-2.615,5.84-5.84,5.84s-5.84-2.615-5.84-5.84l0,0C324.08,66.695,326.695,64.08,329.92,64.08z"/>
	<path style="fill:#262742;" d="M329.92,131.48c6.937,0,12.56-5.623,12.56-12.56s-5.623-12.56-12.56-12.56
		c-6.937,0-12.56,5.623-12.56,12.56l0,0C317.36,125.857,322.983,131.48,329.92,131.48z M329.92,113.12c3.225,0,5.84,2.615,5.84,5.84
		s-2.615,5.84-5.84,5.84c-3.225,0-5.84-2.615-5.84-5.84c0,0,0,0,0,0C324.08,115.735,326.695,113.12,329.92,113.12z"/>
	<path style="fill:#262742;" d="M329.92,180.56c6.937,0,12.56-5.623,12.56-12.56s-5.623-12.56-12.56-12.56
		c-6.937,0-12.56,5.623-12.56,12.56l0,0C317.36,174.937,322.983,180.56,329.92,180.56z M329.92,162.2c3.225,0,5.84,2.615,5.84,5.84
		s-2.615,5.84-5.84,5.84c-3.225,0-5.84-2.615-5.84-5.84c0,0,0,0,0,0C324.08,164.815,326.695,162.2,329.92,162.2z"/>
	<path style="fill:#262742;" d="M280.64,255.16H185c-5.909,0.362-10.407,5.445-10.045,11.355c0.331,5.405,4.64,9.715,10.045,10.045
		h95.64c5.909,0.362,10.993-4.136,11.355-10.045c0.362-5.909-4.136-10.993-10.045-11.355
		C281.513,255.133,281.076,255.133,280.64,255.16z M280.64,269.84H185c-2.209,0-4-1.791-4-4s1.791-4,4-4h95.64c2.209,0,4,1.791,4,4
		S282.849,269.84,280.64,269.84z"/>
	<path style="fill:#262742;" d="M327.16,209.52h-45.64c-5.909-0.362-10.993,4.136-11.355,10.045
		c-0.362,5.909,4.136,10.993,10.045,11.355c0.436,0.027,0.873,0.027,1.309,0h45.64c5.909,0.362,10.993-4.136,11.355-10.045
		c0.362-5.909-4.136-10.993-10.045-11.355C328.033,209.493,327.596,209.493,327.16,209.52L327.16,209.52z M327.16,224.2h-45.64
		c-2.209,0-4-1.791-4-4s1.791-4,4-4h45.64c2.209,0,4,1.791,4,4S329.369,224.2,327.16,224.2L327.16,224.2z"/>
	<path style="fill:#262742;" d="M194.88,220.2c0-5.92-4.799-10.72-10.72-10.72l0,0h-45.64c-5.909,0.362-10.407,5.445-10.045,11.355
		c0.331,5.405,4.64,9.715,10.045,10.045h45.64C190.065,230.88,194.858,226.105,194.88,220.2L194.88,220.2z M134.56,220.2
		c0-2.209,1.791-4,4-4h45.6c2.209,0,4,1.791,4,4s-1.791,4-4,4h-45.64c-2.209,0-4-1.791-4-4H134.56z"/>
</g>
<g>
</g>
<g>
</g>
<g>
</g>
<g>
</g>
<g>
</g>
<g>
</g>
<g>
</g>
<g>
</g>
<g>
</g>
<g>
</g>
<g>
</g>
<g>
</g>
<g>
</g>
<g>
</g>
<g>
</g>
</svg>
