<?xml version="1.0"?>
<svg xmlns="http://www.w3.org/2000/svg" xmlns:xlink="http://www.w3.org/1999/xlink" version="1.1" id="Capa_1" x="0px" y="0px" viewBox="0 0 524.8 524.8" style="enable-background:new 0 0 524.8 524.8;" xml:space="preserve" width="512px" height="512px" class=""><g><g>
	<path style="fill:#222222" d="M267.2,385.6l-0.8-16c4.8,0,9.6-0.8,14.4-1.6l3.2,16C279.2,384.8,273.6,384.8,267.2,385.6z    M241.6,384c-5.6-0.8-11.2-2.4-16.8-4l4.8-15.2c4.8,1.6,9.6,2.4,14.4,3.2L241.6,384z M308.8,376l-6.4-15.2c4.8-1.6,8.8-4,13.6-6.4   l8,13.6C319.2,371.2,314.4,374.4,308.8,376z M201.6,369.6c-4.8-3.2-9.6-5.6-14.4-9.6l9.6-12.8c4,3.2,8,5.6,12.8,8L201.6,369.6z    M344.8,353.6l-10.4-12c4-3.2,7.2-7.2,10.4-10.4l12,10.4C353.6,345.6,349.6,349.6,344.8,353.6z M168.8,342.4   c-4-4-7.2-8.8-10.4-13.6L172,320c2.4,4,5.6,8,8.8,12L168.8,342.4z M371.2,320l-14.4-7.2c2.4-4,4-8.8,6.4-13.6l15.2,5.6   C376,309.6,373.6,315.2,371.2,320z M147.2,305.6c-2.4-5.6-4-11.2-4.8-16l16-3.2c0.8,4.8,2.4,9.6,4,14.4L147.2,305.6z M384,279.2   l-16-2.4c0.8-4.8,0.8-9.6,0.8-15.2v-3.2l16-0.8c0,0.8,0,2.4,0,3.2C385.6,268,384.8,273.6,384,279.2z M139.2,264v-1.6   c0-4.8,0-10.4,0.8-15.2l16,1.6c-0.8,4.8-0.8,8.8-0.8,13.6v1.6H139.2z M366.4,237.6c-0.8-4.8-2.4-9.6-4.8-14.4l15.2-5.6   c2.4,5.6,4,10.4,4.8,16L366.4,237.6z M161.6,227.2l-15.2-4.8c1.6-5.6,4-10.4,6.4-16l14.4,7.2C164.8,218.4,163.2,222.4,161.6,227.2z    M352,203.2c-2.4-4-5.6-8-8.8-12l12-10.4c4,4,7.2,8.8,10.4,13.6L352,203.2z M179.2,195.2l-12.8-10.4c3.2-4.8,7.2-8.8,12-12.8   l11.2,12C185.6,187.2,182.4,191.2,179.2,195.2z M326.4,176.8c-4-3.2-8-5.6-12.8-8l8-14.4c4.8,2.4,9.6,5.6,14.4,9.6L326.4,176.8z    M207.2,170.4l-8-13.6c4.8-3.2,9.6-5.6,15.2-8l6.4,14.4C216,165.6,211.2,168,207.2,170.4z M293.6,160c-4.8-1.6-9.6-2.4-14.4-3.2   l2.4-16c5.6,0.8,11.2,2.4,16.8,4L293.6,160z M241.6,157.6l-3.2-16c5.6-0.8,11.2-1.6,16.8-2.4l0.8,16   C251.2,156,246.4,156.8,241.6,157.6z" data-original="#193651" class="active-path" data-old_color="#193651"/>
	<path style="fill:#222222" d="M399.2,437.6l-9.6-12.8c4-3.2,8-6.4,12-9.6l10.4,12C408,430.4,404,434.4,399.2,437.6z M424,415.2   L412,404c3.2-4,7.2-7.2,10.4-11.2l12,10.4C431.2,407.2,428,411.2,424,415.2z M444.8,389.6l-12.8-8.8c2.4-4,4.8-7.2,7.2-11.2l13.6,8   C450.4,381.6,448,385.6,444.8,389.6z" data-original="#193651" class="active-path" data-old_color="#193651"/>
	<path style="fill:#222222" d="M262.4,484.8c-0.8,0-1.6,0-2.4,0v-16c40,0.8,79.2-11.2,112.8-32.8l8.8,13.6   C346.4,472.8,304.8,484.8,262.4,484.8z" data-original="#193651" class="active-path" data-old_color="#193651"/>
	<path style="fill:#222222" d="M88.8,150.4l-13.6-8.8c1.6-2.4,3.2-4.8,4.8-6.4l12.8,8.8C91.2,146.4,90.4,148,88.8,150.4z    M102.4,132l-12-10.4c3.2-4,7.2-8.8,11.2-12.8l12,11.2C108.8,124,105.6,128,102.4,132z M123.2,109.6l-10.4-12c4-4,8-7.2,12.8-10.4   l9.6,12.8C131.2,103.2,127.2,106.4,123.2,109.6z" data-original="#193651" class="active-path" data-old_color="#193651"/>
	<path style="fill:#222222" d="M151.2,88l-8.8-12.8C179.2,52,220.8,40,264,40v16C224.8,55.2,184.8,66.4,151.2,88z" data-original="#193651" class="active-path" data-old_color="#193651"/>
</g><polygon style="fill:#1D8DEB" points="261.6,443.2 205.6,476.8 261.6,510.4 " data-original="#FFFFFF" class="" data-old_color="#1d8deb"/><path style="fill:#222222" d="M269.6,524.8l-79.2-48l79.2-47.2V524.8z M221.6,476.8l32,19.2v-38.4L221.6,476.8z" data-original="#193651" class="active-path" data-old_color="#193651"/><polygon style="fill:#1D8DEB" points="264,81.6 320,48 264,14.4 " data-original="#FFFFFF" class="" data-old_color="#1d8deb"/><g>
	<path style="fill:#222222" d="M256,95.2V0l79.2,47.2L256,95.2z M272,28.8v38.4L304,48L272,28.8z" data-original="#193651" class="active-path" data-old_color="#193651"/>
	<path style="fill:#222222" d="M145.6,452c-4-2.4-7.2-4.8-10.4-7.2L144,432c3.2,2.4,6.4,4.8,9.6,6.4L145.6,452z M121.6,435.2   c-4-3.2-8.8-7.2-12.8-11.2l11.2-12c4,3.2,8,7.2,11.2,10.4L121.6,435.2z M97.6,412c-4-4-7.2-8-10.4-12.8l12.8-9.6   c3.2,4,6.4,8,9.6,12L97.6,412z" data-original="#193651" class="active-path" data-old_color="#193651"/>
	<path style="fill:#222222" d="M75.2,382.4C52,345.6,40,304,40,260.8h16c0,40,11.2,79.2,32.8,112.8L75.2,382.4z" data-original="#193651" class="active-path" data-old_color="#193651"/>
	<path style="fill:#222222" d="M424.8,135.2c-3.2-4-6.4-8-9.6-12l12-10.4c4,4,7.2,8,10.4,12.8L424.8,135.2z M404,112.8   c-4-3.2-8-7.2-11.2-10.4l10.4-12.8c4,3.2,8.8,7.2,12.8,11.2L404,112.8z M380.8,92.8c-2.4-1.6-4.8-3.2-7.2-4.8l8.8-13.6   c2.4,1.6,5.6,3.2,8,5.6L380.8,92.8z" data-original="#193651" class="active-path" data-old_color="#193651"/>
	<path style="fill:#222222" d="M484.8,264h-16c0-40-11.2-79.2-32.8-112.8l13.6-8.8C473.6,179.2,485.6,221.6,484.8,264z" data-original="#193651" class="active-path" data-old_color="#193651"/>
</g><polygon style="fill:#1D8DEB" points="81.6,261.6 48,205.6 14.4,261.6 " data-original="#FFFFFF" class="" data-old_color="#1d8deb"/><path style="fill:#222222" d="M95.2,269.6H0l48-79.2L95.2,269.6z M28.8,253.6h38.4l-19.2-32L28.8,253.6z" data-original="#193651" class="active-path" data-old_color="#193651"/><polygon style="fill:#1D8DEB" points="443.2,264 476.8,320 510.4,264 " data-original="#FFFFFF" class="" data-old_color="#1d8deb"/><path style="fill:#222222" d="M476.8,336l-47.2-79.2h95.2L476.8,336z M457.6,272l19.2,32l19.2-32H457.6z" data-original="#193651" class="active-path" data-old_color="#193651"/></g> </svg>
