<?xml version="1.0" encoding="iso-8859-1"?>
<!-- Generator: Adobe Illustrator 19.0.0, SVG Export Plug-In . SVG Version: 6.00 Build 0)  -->
<svg version="1.1" id="Capa_1" xmlns="http://www.w3.org/2000/svg" xmlns:xlink="http://www.w3.org/1999/xlink" x="0px" y="0px"
	 viewBox="0 0 512 512" style="enable-background:new 0 0 512 512;" xml:space="preserve">
<polygon style="fill:#034285;" points="503.467,464.959 503.467,499.092 443.733,499.092 443.733,422.292 443.733,379.625 
	477.867,379.625 "/>
<path style="fill:#FFD24A;" d="M443.733,379.625v42.667h-42.667c-15.172-11.375-36.028-11.375-51.2,0h-59.733
	c-15.172-11.375-36.028-11.375-51.2,0h-25.6V277.225h230.4V379.625z"/>
<polygon style="fill:#055EBC;" points="426.667,140.692 426.667,208.959 409.6,208.959 341.333,208.959 324.267,208.959 
	324.267,140.692 349.867,140.692 401.067,140.692 "/>
<rect x="341.333" y="208.959" style="fill:#168DE2;" width="68.267" height="68.267"/>
<path style="fill:#ABABAB;" d="M332.8,456.425c0.017-13.423,6.332-26.069,17.067-34.133c15.172-11.375,36.028-11.375,51.2,0
	c18.85,14.14,22.673,40.883,8.533,59.733c-14.14,18.85-40.883,22.673-59.733,8.533C339.123,482.503,332.8,469.857,332.8,456.425z"/>
<path style="fill:#D3D3D3;" d="M401.067,80.959v59.733h-51.2v-25.6c-0.026-9.412-7.654-17.041-17.067-17.067h-8.533
	c-9.395-0.068-16.998-7.671-17.067-17.067c-0.026-9.412-7.654-17.041-17.067-17.067H281.6c-9.412-0.026-17.041-7.654-17.067-17.067
	v-8.533c-0.026-9.412-7.654-17.041-17.067-17.067h-8.533c-4.71,0-8.533-3.823-8.533-8.533h85.333
	c0.026,9.412,7.654,17.041,17.067,17.067h8.533c9.395,0.068,16.998,7.671,17.067,17.067c0.026,9.412,7.654,17.041,17.067,17.067H384
	C393.412,63.926,401.041,71.546,401.067,80.959z"/>
<path style="fill:#ABABAB;" d="M307.2,456.425c0,23.561-19.106,42.667-42.667,42.667s-42.667-19.106-42.667-42.667
	c0-13.431,6.323-26.078,17.067-34.133c15.172-11.375,36.028-11.375,51.2,0C300.868,430.365,307.183,443.003,307.2,456.425z"/>
<polygon style="fill:#EC9821;" points="230.4,132.159 230.4,174.825 213.333,174.825 25.6,174.825 8.533,174.825 8.533,132.159 "/>
<path style="fill:#055EBC;" d="M213.333,277.225v145.067h-17.067c0-42.419-34.381-76.8-76.8-76.8s-76.8,34.381-76.8,76.8H25.6
	V174.825h187.733V277.225z M179.2,285.759v-76.8H59.733v76.8H179.2z"/>
<rect x="119.467" y="208.959" style="fill:#DAEFF6;" width="59.733" height="76.8"/>
<path style="fill:#ABABAB;" d="M119.467,345.492c42.419,0,76.8,34.381,76.8,76.8s-34.381,76.8-76.8,76.8s-76.8-34.381-76.8-76.8
	S77.047,345.492,119.467,345.492z M162.133,422.292c0-23.561-19.106-42.667-42.667-42.667S76.8,398.732,76.8,422.292
	s19.106,42.667,42.667,42.667S162.133,445.861,162.133,422.292z"/>
<circle style="fill:#454545;" cx="119.467" cy="422.309" r="42.667"/>
<rect x="59.733" y="208.959" style="fill:#DAEFF6;" width="59.733" height="76.8"/>
<g>
	<path style="fill:#168DE2;" d="M119.467,294.292H59.733c-4.71,0-8.533-3.823-8.533-8.533v-76.8c0-4.71,3.823-8.533,8.533-8.533
		h59.733v17.067h-51.2v59.733h51.2V294.292z"/>
	<path style="fill:#168DE2;" d="M187.733,285.759c0,4.71-3.823,8.533-8.533,8.533h-59.733c-4.71,0-8.533-3.823-8.533-8.533v-76.8
		c0-4.71,3.823-8.533,8.533-8.533H179.2c4.71,0,8.533,3.823,8.533,8.533 M128,277.225h42.667v-59.733H128V277.225z"/>
</g>
<g>
	<path style="fill:#454545;" d="M119.467,507.625c-47.13,0-85.333-38.204-85.333-85.333s38.204-85.333,85.333-85.333
		s85.333,38.204,85.333,85.333C204.749,469.405,166.571,507.574,119.467,507.625z M119.467,354.025
		c-37.7,0-68.267,30.566-68.267,68.267s30.566,68.267,68.267,68.267s68.267-30.566,68.267-68.267
		C187.691,384.609,157.15,354.068,119.467,354.025z"/>
	<path style="fill:#454545;" d="M119.467,473.492c-28.279,0-51.2-22.921-51.2-51.2c0-28.279,22.921-51.2,51.2-51.2
		s51.2,22.921,51.2,51.2C170.641,450.563,147.729,473.466,119.467,473.492z M119.467,388.159c-18.85,0-34.133,15.283-34.133,34.133
		s15.283,34.133,34.133,34.133s34.133-15.283,34.133-34.133S138.317,388.159,119.467,388.159z"/>
	<path style="fill:#454545;" d="M264.533,507.625c-28.279,0-51.2-22.921-51.2-51.2c0-16.119,7.586-31.292,20.48-40.96
		c18.304-13.423,43.187-13.423,61.491,0c22.622,16.964,27.204,49.058,10.24,71.68C295.868,500.056,280.67,507.643,264.533,507.625z
		 M264.533,422.292c-7.39-0.043-14.592,2.355-20.48,6.827c-15.095,11.298-18.167,32.691-6.869,47.778
		c11.298,15.095,32.691,18.167,47.778,6.869c15.087-11.298,18.167-32.691,6.869-47.778c-1.954-2.603-4.267-4.924-6.869-6.869
		C279.091,424.656,271.906,422.258,264.533,422.292z"/>
	<path style="fill:#454545;" d="M375.467,507.625c-28.279,0-51.2-22.921-51.2-51.2c0-16.119,7.586-31.292,20.48-40.96
		c22.622-16.964,54.716-12.382,71.68,10.24c6.647,8.866,10.24,19.644,10.24,30.72C426.641,484.696,403.729,507.6,375.467,507.625z
		 M375.467,422.292c-7.39-0.043-14.592,2.355-20.48,6.827c-15.095,11.298-18.167,32.691-6.869,47.778
		c11.298,15.095,32.691,18.167,47.778,6.869c15.087-11.298,18.167-32.691,6.869-47.778c-1.954-2.603-4.267-4.924-6.869-6.869l0,0
		C390.025,424.664,382.839,422.266,375.467,422.292z"/>
	<rect x="264.533" y="447.909" style="fill:#454545;" width="119.467" height="17.067"/>
</g>
<g>
	<rect x="238.933" y="302.825" style="fill:#055EBC;" width="17.067" height="42.667"/>
	<rect x="273.067" y="302.825" style="fill:#055EBC;" width="17.067" height="42.667"/>
	<rect x="307.2" y="302.825" style="fill:#055EBC;" width="17.067" height="42.667"/>
</g>
<path d="M179.2,200.425H59.733c-4.71,0-8.533,3.823-8.533,8.533v76.8c0,4.71,3.823,8.533,8.533,8.533H179.2
	c4.71,0,8.533-3.823,8.533-8.533v-76.8C187.733,204.248,183.91,200.425,179.2,200.425z M68.267,217.492h42.667v59.733H68.267
	V217.492z M170.667,277.225H128v-59.733h42.667V277.225z"/>
<path d="M119.467,371.092c-28.279,0-51.2,22.921-51.2,51.2c0,28.279,22.921,51.2,51.2,51.2s51.2-22.921,51.2-51.2
	C170.641,394.03,147.729,371.126,119.467,371.092z M119.467,456.425c-18.85,0-34.133-15.283-34.133-34.133
	s15.283-34.133,34.133-34.133s34.133,15.283,34.133,34.133S138.317,456.425,119.467,456.425z"/>
<path d="M486.042,377.176c-1.084-3.61-4.403-6.084-8.175-6.084h-25.6v-93.867c0-4.71-3.823-8.533-8.533-8.533h-25.6v-51.2h8.533
	c4.71,0,8.533-3.823,8.533-8.533v-68.267c0-4.71-3.823-8.533-8.533-8.533H409.6v-51.2c0-14.14-11.46-25.6-25.6-25.6h-8.533
	c-4.71,0-8.533-3.823-8.533-8.533c-0.068-14.106-11.494-25.532-25.6-25.6H332.8c-4.71,0-8.533-3.823-8.533-8.533
	s-3.823-8.533-8.533-8.533H230.4c-4.71,0-8.533,3.823-8.533,8.533c0,9.429,7.637,17.067,17.067,17.067h8.533
	c4.71,0,8.533,3.823,8.533,8.533v8.533c0,14.14,11.46,25.6,25.6,25.6h8.533c4.71,0,8.533,3.823,8.533,8.533
	c0.068,14.106,11.494,25.532,25.6,25.6h8.533c4.71,0,8.533,3.823,8.533,8.533v17.067h-17.067c-4.71,0-8.533,3.823-8.533,8.533
	v68.267c0,4.71,3.823,8.533,8.533,8.533h8.533v51.2H221.867v-85.333h8.533c4.71,0,8.533-3.823,8.533-8.533v-42.667
	c0-4.71-3.823-8.533-8.533-8.533H8.533c-4.71,0-8.533,3.823-8.533,8.533v42.667c0,4.71,3.823,8.533,8.533,8.533h8.533v238.933
	c0,4.71,3.823,8.533,8.533,8.533h8.969c4.71,46.899,46.541,81.092,93.431,76.39c40.388-4.053,72.329-35.994,76.382-76.382h15.949
	c-14.165,24.422-5.862,55.706,18.56,69.879s55.706,5.862,69.879-18.56c3.081-5.308,5.18-11.127,6.195-17.178h10.069
	c4.582,27.878,30.899,46.763,58.778,42.18c27.878-4.582,46.763-30.899,42.18-58.778c-1.015-6.187-3.157-12.126-6.323-17.536H435.2
	v68.267c0,4.71,3.823,8.533,8.533,8.533h59.733c4.71,0,8.533-3.823,8.533-8.533v-34.133c0-0.828-0.128-1.655-0.358-2.449
	L486.042,377.176z M332.8,89.492h-8.533c-2.304,0.009-4.506-0.939-6.084-2.611c-1.579-1.562-2.466-3.695-2.449-5.922
	c0-14.14-11.46-25.6-25.6-25.6H281.6c-4.71,0-8.533-3.823-8.533-8.533v-8.533c0.009-6.298-2.321-12.382-6.537-17.067h42.129
	c3.627,10.223,13.295,17.05,24.141,17.067h8.533c2.304-0.009,4.506,0.939,6.084,2.611c1.579,1.562,2.466,3.703,2.449,5.922
	c0,14.14,11.46,25.6,25.6,25.6H384c4.71,0,8.533,3.823,8.533,8.533v51.2H358.4v-17.067C358.4,100.952,346.94,89.492,332.8,89.492z
	 M332.8,149.225h85.333v51.2H332.8V149.225z M349.867,217.492h51.2v51.2h-51.2V217.492z M17.067,140.692h204.8v25.6h-204.8V140.692z
	 M119.467,490.559c-37.7,0-68.267-30.566-68.267-68.267s30.566-68.267,68.267-68.267s68.267,30.566,68.267,68.267
	C187.691,459.984,157.15,490.516,119.467,490.559z M204.365,413.759c-4.71-46.891-46.541-81.092-93.431-76.382
	c-40.388,4.053-72.329,35.994-76.382,76.382h-0.418v-230.4H204.8v230.4H204.365z M264.533,490.559
	c-18.85,0-34.133-15.283-34.133-34.133c0-10.743,5.06-20.864,13.653-27.307c12.126-9.079,28.783-9.079,40.909,0
	c6.17,4.668,10.581,11.281,12.527,18.773h-32.956v17.067h32.922C293.572,479.986,280.047,490.499,264.533,490.559z M308.736,430.825
	h22.528c-3.055,5.282-5.154,11.059-6.187,17.067h-10.155C313.89,441.885,311.791,436.108,308.736,430.825z M375.467,490.559
	c-15.514-0.06-29.039-10.573-32.922-25.6H384v-17.067h-41.489c1.937-7.475,6.332-14.089,12.476-18.773
	c12.126-9.071,28.766-9.071,40.892,0l0,0c15.078,11.307,18.133,32.708,6.827,47.787
	C396.271,485.481,386.185,490.542,375.467,490.559z M403.473,413.759c-17.084-10.906-38.938-10.906-56.021,0h-54.921
	c-17.075-10.923-38.938-10.923-56.013,0h-14.652v-128H435.2v128H403.473z M494.933,490.559h-42.667v-102.4h19.251l23.415,78.054
	V490.559z"/>
<rect x="238.933" y="302.825" width="17.067" height="42.667"/>
<rect x="273.067" y="302.825" width="17.067" height="42.667"/>
<rect x="307.2" y="302.825" width="17.067" height="42.667"/>
<g>
</g>
<g>
</g>
<g>
</g>
<g>
</g>
<g>
</g>
<g>
</g>
<g>
</g>
<g>
</g>
<g>
</g>
<g>
</g>
<g>
</g>
<g>
</g>
<g>
</g>
<g>
</g>
<g>
</g>
</svg>
