<svg id="Capa_1" enable-background="new 0 0 512 512" height="512" viewBox="0 0 512 512" width="512" xmlns="http://www.w3.org/2000/svg"><g><g><g><g><path d="m478.854 443.613h-460.149c-6.188 0-11.205-5.017-11.205-11.205v-361.551c0-6.188 5.017-11.205 11.205-11.205h460.149c6.188 0 11.205 5.017 11.205 11.205v361.551c0 6.188-5.017 11.205-11.205 11.205z" fill="#eff5f6"/><path d="m490.054 70.853v361.558c0 6.185-5.009 11.205-11.205 11.205h-40.407c6.185 0 11.205-5.02 11.205-11.205v-361.558c0-6.185-5.02-11.205-11.205-11.205h40.407c6.196 0 11.205 5.02 11.205 11.205z" fill="#cbe5e7"/></g><g><g><g fill="#1475cb"><path d="m94.1 168.175h-27.403c-6.188 0-11.205-5.017-11.205-11.205v-27.403c0-6.188 5.017-11.205 11.205-11.205h27.403c6.188 0 11.205 5.017 11.205 11.205v27.403c-.001 6.189-5.017 11.205-11.205 11.205z"/><path d="m178.29 168.175h-27.403c-6.188 0-11.205-5.017-11.205-11.205v-27.403c0-6.188 5.017-11.205 11.205-11.205h27.403c6.188 0 11.205 5.017 11.205 11.205v27.403c0 6.189-5.017 11.205-11.205 11.205z"/><path d="m262.481 168.175h-27.403c-6.188 0-11.205-5.017-11.205-11.205v-27.403c0-6.188 5.017-11.205 11.205-11.205h27.403c6.188 0 11.205 5.017 11.205 11.205v27.403c0 6.189-5.017 11.205-11.205 11.205z"/><path d="m346.672 168.175h-27.403c-6.188 0-11.205-5.017-11.205-11.205v-27.403c0-6.188 5.017-11.205 11.205-11.205h27.403c6.188 0 11.205 5.017 11.205 11.205v27.403c-.001 6.189-5.017 11.205-11.205 11.205z"/></g><path d="m430.862 168.175h-27.403c-6.188 0-11.205-5.017-11.205-11.205v-27.403c0-6.188 5.017-11.205 11.205-11.205h27.403c6.188 0 11.205 5.017 11.205 11.205v27.403c0 6.189-5.017 11.205-11.205 11.205z" fill="#fb4a59"/></g><g><g fill="#1475cb"><path d="m94.1 258.377h-27.403c-6.188 0-11.205-5.017-11.205-11.205v-27.403c0-6.188 5.017-11.205 11.205-11.205h27.403c6.188 0 11.205 5.017 11.205 11.205v27.403c-.001 6.189-5.017 11.205-11.205 11.205z"/><path d="m178.29 258.377h-27.403c-6.188 0-11.205-5.017-11.205-11.205v-27.403c0-6.188 5.017-11.205 11.205-11.205h27.403c6.188 0 11.205 5.017 11.205 11.205v27.403c0 6.189-5.017 11.205-11.205 11.205z"/><path d="m262.481 258.377h-27.403c-6.188 0-11.205-5.017-11.205-11.205v-27.403c0-6.188 5.017-11.205 11.205-11.205h27.403c6.188 0 11.205 5.017 11.205 11.205v27.403c0 6.189-5.017 11.205-11.205 11.205z"/><path d="m346.672 258.377h-27.403c-6.188 0-11.205-5.017-11.205-11.205v-27.403c0-6.188 5.017-11.205 11.205-11.205h27.403c6.188 0 11.205 5.017 11.205 11.205v27.403c-.001 6.189-5.017 11.205-11.205 11.205z"/></g><path d="m430.862 258.377h-27.403c-6.188 0-11.205-5.017-11.205-11.205v-27.403c0-6.188 5.017-11.205 11.205-11.205h27.403c6.188 0 11.205 5.017 11.205 11.205v27.403c0 6.189-5.017 11.205-11.205 11.205z" fill="#fb4a59"/></g><g fill="#1475cb"><path d="m94.1 348.579h-27.403c-6.188 0-11.205-5.017-11.205-11.205v-27.403c0-6.188 5.017-11.205 11.205-11.205h27.403c6.188 0 11.205 5.017 11.205 11.205v27.403c-.001 6.188-5.017 11.205-11.205 11.205z"/><path d="m178.29 348.579h-27.403c-6.188 0-11.205-5.017-11.205-11.205v-27.403c0-6.188 5.017-11.205 11.205-11.205h27.403c6.188 0 11.205 5.017 11.205 11.205v27.403c0 6.188-5.017 11.205-11.205 11.205z"/><path d="m262.481 348.579h-27.403c-6.188 0-11.205-5.017-11.205-11.205v-27.403c0-6.188 5.017-11.205 11.205-11.205h27.403c6.188 0 11.205 5.017 11.205 11.205v27.403c0 6.188-5.017 11.205-11.205 11.205z"/></g></g></g></g><g><g><path d="m493.295 478.533h-261.777v-49.43h261.777c6.188 0 11.205 5.017 11.205 11.205v27.02c0 6.188-5.017 11.205-11.205 11.205z" fill="#90bac4"/></g><g><path d="m504.497 440.311v27.015c0 6.185-5.009 11.205-11.205 11.205h-33.559c6.185 0 11.205-5.02 11.205-11.205v-27.015c0-6.196-5.02-11.205-11.205-11.205h33.559c6.196 0 11.205 5.009 11.205 11.205z" fill="#7da2b0"/></g></g><g><g><path d="m166.763 440.308v27.02c0 6.188 5.017 11.205 11.205 11.205h63.151c3.094 0 5.602-2.508 5.602-5.602v-38.225c0-3.094-2.508-5.602-5.602-5.602h-63.151c-6.188-.001-11.205 5.015-11.205 11.204z" fill="#3f5959"/></g><g><path d="m246.718 434.709v38.22c0 3.093-2.51 5.602-5.602 5.602h-32.393c3.093 0 5.602-2.51 5.602-5.602v-38.22c0-3.093-2.51-5.602-5.602-5.602h32.393c3.092-.001 5.602 2.509 5.602 5.602z" fill="#384848"/></g></g><g><g fill="#3f5959"><path d="m55.674 83.041c-7.401 0-13.401-6-13.401-13.401v-22.772c0-7.401 6-13.401 13.401-13.401 7.401 0 13.401 6 13.401 13.401v22.773c0 7.401-6 13.4-13.401 13.4z"/><path d="m110.847 83.041c-7.401 0-13.401-6-13.401-13.401v-22.772c0-7.401 6-13.401 13.401-13.401 7.401 0 13.401 6 13.401 13.401v22.773c0 7.401-6 13.4-13.401 13.4z"/><path d="m166.02 83.041c-7.401 0-13.401-6-13.401-13.401v-22.772c0-7.401 6-13.401 13.401-13.401 7.401 0 13.401 6 13.401 13.401v22.773c0 7.401-6 13.4-13.401 13.4z"/><path d="m221.193 83.041c-7.401 0-13.401-6-13.401-13.401v-22.772c0-7.401 6-13.401 13.401-13.401 7.401 0 13.401 6 13.401 13.401v22.773c0 7.401-6 13.4-13.401 13.4z"/><path d="m276.366 83.041c-7.401 0-13.401-6-13.401-13.401v-22.772c0-7.401 6-13.401 13.401-13.401 7.401 0 13.401 6 13.401 13.401v22.773c0 7.401-6 13.4-13.401 13.4z"/><path d="m331.539 83.041c-7.401 0-13.401-6-13.401-13.401v-22.772c0-7.401 6-13.401 13.401-13.401 7.401 0 13.401 6 13.401 13.401v22.773c0 7.401-6 13.4-13.401 13.4z"/><path d="m386.712 83.041c-7.401 0-13.401-6-13.401-13.401v-22.772c0-7.401 6-13.401 13.401-13.401 7.401 0 13.401 6 13.401 13.401v22.773c-.001 7.401-6 13.4-13.401 13.4z"/></g><g><path d="m441.885 83.041c-7.401 0-13.401-6-13.401-13.401v-22.772c0-7.401 6-13.401 13.401-13.401 7.401 0 13.401 6 13.401 13.401v22.773c-.001 7.401-6 13.4-13.401 13.4z" fill="#3f5959"/><g><path d="m7.5 319.345c4.143 0 7.5-3.358 7.5-7.5v-240.988c0-2.043 1.662-3.705 3.705-3.705h16.068v2.488c0 11.525 9.376 20.901 20.9 20.901 11.525 0 20.901-9.376 20.901-20.901v-2.488h13.371v2.488c0 11.525 9.376 20.901 20.9 20.901 11.525 0 20.901-9.376 20.901-20.901v-2.488h13.371v2.488c0 11.525 9.376 20.901 20.9 20.901 11.525 0 20.901-9.376 20.901-20.901v-2.488h13.371v2.488c0 11.525 9.376 20.901 20.901 20.901 11.524 0 20.9-9.376 20.9-20.901v-2.488h13.371v2.488c0 11.525 9.376 20.901 20.901 20.901 11.524 0 20.9-9.376 20.9-20.901v-2.488h13.371v2.488c0 11.525 9.376 20.901 20.901 20.901 11.524 0 20.9-9.376 20.9-20.901v-2.488h13.372v2.488c0 11.525 9.376 20.901 20.9 20.901s20.9-9.376 20.9-20.901v-2.488h13.372v2.488c0 11.525 9.376 20.901 20.9 20.901s20.9-9.376 20.9-20.901v-2.488h16.068c2.043 0 3.705 1.662 3.705 3.705v106.894c0 4.142 3.357 7.5 7.5 7.5s7.5-3.358 7.5-7.5v-106.894c0-10.314-8.391-18.705-18.705-18.705h-16.068v-5.284c0-11.525-9.376-20.901-20.9-20.901s-20.9 9.376-20.9 20.901v5.284h-13.372v-5.284c0-11.525-9.376-20.901-20.9-20.901s-20.9 9.376-20.9 20.901v5.284h-13.372v-5.284c0-11.525-9.376-20.901-20.9-20.901-11.525 0-20.901 9.376-20.901 20.901v5.284h-13.371v-5.284c0-11.525-9.376-20.901-20.9-20.901-11.525 0-20.901 9.376-20.901 20.901v5.284h-13.371v-5.284c0-11.525-9.376-20.901-20.9-20.901-11.525 0-20.901 9.376-20.901 20.901v5.284h-13.371v-5.284c0-11.525-9.376-20.901-20.901-20.901-11.524 0-20.9 9.376-20.9 20.901v5.284h-13.371v-5.284c0-11.525-9.376-20.901-20.901-20.901-11.524 0-20.9 9.376-20.9 20.901v5.284h-13.37v-5.284c0-11.525-9.376-20.901-20.901-20.901-11.524 0-20.9 9.376-20.9 20.901v5.284h-16.069c-10.314 0-18.705 8.391-18.705 18.705v240.987c0 4.143 3.357 7.501 7.5 7.501zm428.484-272.477c0-3.254 2.646-5.901 5.9-5.901s5.9 2.647 5.9 5.901v22.772c0 3.254-2.646 5.901-5.9 5.901s-5.9-2.647-5.9-5.901zm-55.172 0c0-3.254 2.646-5.901 5.9-5.901s5.9 2.647 5.9 5.901v22.772c0 3.254-2.646 5.901-5.9 5.901s-5.9-2.647-5.9-5.901zm-55.174 0c0-3.254 2.647-5.901 5.901-5.901s5.9 2.647 5.9 5.901v22.772c0 3.254-2.646 5.901-5.9 5.901s-5.901-2.647-5.901-5.901zm-55.173 0c0-3.254 2.647-5.901 5.901-5.901s5.9 2.647 5.9 5.901v22.772c0 3.254-2.646 5.901-5.9 5.901s-5.901-2.647-5.901-5.901zm-55.173 0c0-3.254 2.647-5.901 5.901-5.901s5.9 2.647 5.9 5.901v22.772c0 3.254-2.646 5.901-5.9 5.901s-5.901-2.647-5.901-5.901zm-55.173 0c0-3.254 2.646-5.901 5.9-5.901s5.901 2.647 5.901 5.901v22.772c0 3.254-2.647 5.901-5.901 5.901s-5.9-2.647-5.9-5.901zm-55.173 0c0-3.254 2.646-5.901 5.9-5.901s5.901 2.647 5.901 5.901v22.772c0 3.254-2.647 5.901-5.901 5.901s-5.9-2.647-5.9-5.901zm-55.173 0c0-3.254 2.646-5.901 5.9-5.901s5.901 2.647 5.901 5.901v22.772c0 3.254-2.647 5.901-5.901 5.901s-5.9-2.647-5.9-5.901z"/><path d="m66.696 175.675h27.404c10.314 0 18.705-8.391 18.705-18.705v-27.403c0-10.314-8.391-18.705-18.705-18.705h-27.404c-10.313 0-18.704 8.391-18.704 18.705v27.403c0 10.314 8.391 18.705 18.704 18.705zm-3.704-46.108c0-2.042 1.662-3.705 3.704-3.705h27.404c2.043 0 3.705 1.662 3.705 3.705v27.403c0 2.043-1.662 3.705-3.705 3.705h-27.404c-2.042 0-3.704-1.662-3.704-3.705z"/><path d="m196.995 129.567c0-10.314-8.391-18.705-18.705-18.705h-27.402c-10.314 0-18.705 8.391-18.705 18.705v27.403c0 10.314 8.391 18.705 18.705 18.705h27.402c10.314 0 18.705-8.391 18.705-18.705zm-15 27.403c0 2.043-1.662 3.705-3.705 3.705h-27.402c-2.043 0-3.705-1.662-3.705-3.705v-27.403c0-2.042 1.662-3.705 3.705-3.705h27.402c2.043 0 3.705 1.662 3.705 3.705z"/><path d="m235.078 175.675h27.402c10.314 0 18.705-8.391 18.705-18.705v-27.403c0-10.314-8.391-18.705-18.705-18.705h-27.402c-10.314 0-18.705 8.391-18.705 18.705v27.403c0 10.314 8.391 18.705 18.705 18.705zm-3.705-46.108c0-2.042 1.662-3.705 3.705-3.705h27.402c2.043 0 3.705 1.662 3.705 3.705v27.403c0 2.043-1.662 3.705-3.705 3.705h-27.402c-2.043 0-3.705-1.662-3.705-3.705z"/><path d="m319.269 175.675h27.403c10.313 0 18.704-8.391 18.704-18.705v-27.403c0-10.314-8.391-18.705-18.704-18.705h-27.403c-10.314 0-18.705 8.391-18.705 18.705v27.403c-.001 10.314 8.39 18.705 18.705 18.705zm-3.706-46.108c0-2.042 1.662-3.705 3.705-3.705h27.403c2.042 0 3.704 1.662 3.704 3.705v27.403c0 2.043-1.662 3.705-3.704 3.705h-27.403c-2.043 0-3.705-1.662-3.705-3.705z"/><path d="m403.459 175.675h27.403c10.314 0 18.705-8.391 18.705-18.705v-27.403c0-10.314-8.391-18.705-18.705-18.705h-27.403c-10.313 0-18.704 8.391-18.704 18.705v27.403c0 10.314 8.391 18.705 18.704 18.705zm-3.704-46.108c0-2.042 1.662-3.705 3.704-3.705h27.403c2.043 0 3.705 1.662 3.705 3.705v27.403c0 2.043-1.662 3.705-3.705 3.705h-27.403c-2.042 0-3.704-1.662-3.704-3.705z"/><path d="m47.992 247.172c0 10.314 8.391 18.705 18.704 18.705h27.404c10.314 0 18.705-8.391 18.705-18.705v-27.402c0-10.314-8.391-18.705-18.705-18.705h-27.404c-10.313 0-18.704 8.391-18.704 18.705zm15-27.402c0-2.043 1.662-3.705 3.704-3.705h27.404c2.043 0 3.705 1.662 3.705 3.705v27.403c0 2.042-1.662 3.705-3.705 3.705h-27.404c-2.042 0-3.704-1.662-3.704-3.705z"/><path d="m196.995 219.77c0-10.314-8.391-18.705-18.705-18.705h-27.402c-10.314 0-18.705 8.391-18.705 18.705v27.403c0 10.314 8.391 18.705 18.705 18.705h27.402c10.314 0 18.705-8.391 18.705-18.705zm-15 27.402c0 2.042-1.662 3.705-3.705 3.705h-27.402c-2.043 0-3.705-1.662-3.705-3.705v-27.402c0-2.043 1.662-3.705 3.705-3.705h27.402c2.043 0 3.705 1.662 3.705 3.705z"/><path d="m216.373 247.172c0 10.314 8.391 18.705 18.705 18.705h27.402c10.314 0 18.705-8.391 18.705-18.705v-27.402c0-10.314-8.391-18.705-18.705-18.705h-27.402c-10.314 0-18.705 8.391-18.705 18.705zm15-27.402c0-2.043 1.662-3.705 3.705-3.705h27.402c2.043 0 3.705 1.662 3.705 3.705v27.403c0 2.042-1.662 3.705-3.705 3.705h-27.402c-2.043 0-3.705-1.662-3.705-3.705z"/><path d="m300.563 247.172c0 10.314 8.391 18.705 18.705 18.705h27.403c10.313 0 18.704-8.391 18.704-18.705v-27.402c0-10.314-8.391-18.705-18.704-18.705h-27.403c-10.314 0-18.705 8.391-18.705 18.705zm15-27.402c0-2.043 1.662-3.705 3.705-3.705h27.403c2.042 0 3.704 1.662 3.704 3.705v27.403c0 2.042-1.662 3.705-3.704 3.705h-27.403c-2.043 0-3.705-1.662-3.705-3.705z"/><path d="m384.755 247.172c0 10.314 8.391 18.705 18.704 18.705h27.403c10.314 0 18.705-8.391 18.705-18.705v-27.402c0-10.314-8.391-18.705-18.705-18.705h-27.403c-10.313 0-18.704 8.391-18.704 18.705zm15-27.402c0-2.043 1.662-3.705 3.704-3.705h27.403c2.043 0 3.705 1.662 3.705 3.705v27.403c0 2.042-1.662 3.705-3.705 3.705h-27.403c-2.042 0-3.704-1.662-3.704-3.705z"/><path d="m112.805 337.374v-27.403c0-10.314-8.391-18.705-18.705-18.705h-27.404c-10.313 0-18.704 8.391-18.704 18.705v27.403c0 10.314 8.391 18.705 18.704 18.705h27.404c10.314 0 18.705-8.391 18.705-18.705zm-49.813 0v-27.403c0-2.043 1.662-3.705 3.704-3.705h27.404c2.043 0 3.705 1.662 3.705 3.705v27.403c0 2.043-1.662 3.705-3.705 3.705h-27.404c-2.042 0-3.704-1.662-3.704-3.705z"/><path d="m178.29 291.266h-27.402c-10.314 0-18.705 8.391-18.705 18.705v27.403c0 10.314 8.391 18.705 18.705 18.705h27.402c10.314 0 18.705-8.391 18.705-18.705v-27.403c0-10.314-8.391-18.705-18.705-18.705zm3.705 46.108c0 2.043-1.662 3.705-3.705 3.705h-27.402c-2.043 0-3.705-1.662-3.705-3.705v-27.403c0-2.043 1.662-3.705 3.705-3.705h27.402c2.043 0 3.705 1.662 3.705 3.705z"/><path d="m216.373 337.374c0 10.314 8.391 18.705 18.705 18.705h27.402c10.314 0 18.705-8.391 18.705-18.705v-27.403c0-10.314-8.391-18.705-18.705-18.705h-27.402c-10.314 0-18.705 8.391-18.705 18.705zm15-27.403c0-2.043 1.662-3.705 3.705-3.705h27.402c2.043 0 3.705 1.662 3.705 3.705v27.403c0 2.043-1.662 3.705-3.705 3.705h-27.402c-2.043 0-3.705-1.662-3.705-3.705z"/><path d="m55.492 388.61c-4.143 0-7.5 3.358-7.5 7.5s3.357 7.5 7.5 7.5h12.635c4.143 0 7.5-3.358 7.5-7.5s-3.357-7.5-7.5-7.5z"/><path d="m105.305 403.61h12.635c4.143 0 7.5-3.358 7.5-7.5s-3.357-7.5-7.5-7.5h-12.635c-4.143 0-7.5 3.358-7.5 7.5s3.357 7.5 7.5 7.5z"/><path d="m223.873 403.61h234.889c4.143 0 7.5-3.358 7.5-7.5s-3.357-7.5-7.5-7.5h-234.889c-4.143 0-7.5 3.358-7.5 7.5s3.357 7.5 7.5 7.5z"/><path d="m497.559 422.112v-210.537c0-4.142-3.357-7.5-7.5-7.5s-7.5 3.358-7.5 7.5v210.027h-44.047c-4.143 0-7.5 3.358-7.5 7.5s3.357 7.5 7.5 7.5h54.783c2.043 0 3.705 1.662 3.705 3.705v27.02c0 2.043-1.662 3.705-3.705 3.705h-96.897v-9.556c0-4.142-3.357-7.5-7.5-7.5s-7.5 3.358-7.5 7.5v9.556h-16.021v-9.556c0-4.142-3.357-7.5-7.5-7.5s-7.5 3.358-7.5 7.5v9.556h-16.021v-9.556c0-4.142-3.357-7.5-7.5-7.5s-7.5 3.358-7.5 7.5v9.556h-65.134v-34.43h150.466c4.143 0 7.5-3.358 7.5-7.5s-3.357-7.5-7.5-7.5h-226.72c-8.87 0-16.301 6.212-18.213 14.51h-141.05c-2.043 0-3.705-1.662-3.705-3.705v-86.739c0-4.142-3.357-7.5-7.5-7.5s-7.5 3.358-7.5 7.5v86.739c0 10.314 8.391 18.705 18.705 18.705h140.559v16.215c0 10.314 8.391 18.705 18.704 18.705h315.327c10.314 0 18.705-8.391 18.705-18.705v-27.02c0-8.845-6.178-16.258-14.441-18.195zm-323.295 45.216v-27.02c0-2.042 1.662-3.705 3.704-3.705h61.254v34.43h-61.254c-2.042 0-3.704-1.662-3.704-3.705z"/></g></g></g></g></svg>