<svg id="Capa_1" enable-background="new 0 0 505 505" height="512" viewBox="0 0 505 505" width="512" xmlns="http://www.w3.org/2000/svg"><g><g><path d="m497.5 130.61v329.09c0 10-8.1 18.1-18.1 18.1h-453.8c-10 0-18.1-8.1-18.1-18.1v-329.09c0-10 8.1-18.1 18.1-18.1h453.8c10 0 18.1 8.1 18.1 18.1z" fill="#d7d0d6"/><path d="m455.41 130.61v329.09c0 10-8.1 18.1-18.1 18.1h-411.71c-10 0-18.1-8.1-18.1-18.1v-329.09c0-10 8.1-18.1 18.1-18.1h411.71c10 0 18.1 8.1 18.1 18.1z" fill="#e5e1e5"/><path d="m497.5 88.48v62.79c0 9.99-8.1 18.1-18.1 18.1h-453.8c-10 0-18.1-8.11-18.1-18.1v-62.79c0-10 8.1-18.1 18.1-18.1h453.8c10 0 18.1 8.1 18.1 18.1z" fill="#e41f2d"/><path d="m455.41 88.48v62.79c0 9.99-8.1 18.1-18.1 18.1h-411.71c-10 0-18.1-8.11-18.1-18.1v-62.79c0-10 8.1-18.1 18.1-18.1h411.71c10 0 18.1 8.1 18.1 18.1z" fill="#fd4755"/><path d="m439.026 290.976h-369.934c-4.893 0-8.859-3.966-8.859-8.859v-43.41c0-4.893 3.966-8.859 8.859-8.859h369.934c4.893 0 8.859 3.966 8.859 8.859v43.41c0 4.893-3.967 8.859-8.859 8.859z" fill="#596c76"/><path d="m445.776 370.261h-33.709c-1.165 0-2.109-.944-2.109-2.109v-33.709c0-1.165.944-2.109 2.109-2.109h33.709c1.165 0 2.109.944 2.109 2.109v33.709c0 1.164-.945 2.109-2.109 2.109z" fill="#fd4755"/><path d="m357.447 370.261h-33.709c-1.165 0-2.109-.944-2.109-2.109v-33.709c0-1.165.944-2.109 2.109-2.109h33.709c1.165 0 2.109.944 2.109 2.109v33.709c-.001 1.164-.945 2.109-2.109 2.109z" fill="#baafb9"/><path d="m269.118 370.261h-33.709c-1.165 0-2.109-.944-2.109-2.109v-33.709c0-1.165.944-2.109 2.109-2.109h33.709c1.165 0 2.109.944 2.109 2.109v33.709c-.001 1.164-.945 2.109-2.109 2.109z" fill="#fd4755"/><path d="m180.789 370.261h-33.709c-1.165 0-2.109-.944-2.109-2.109v-33.709c0-1.165.944-2.109 2.109-2.109h33.709c1.165 0 2.109.944 2.109 2.109v33.709c-.001 1.164-.945 2.109-2.109 2.109z" fill="#baafb9"/><path d="m445.776 441.571h-33.709c-1.165 0-2.109-.944-2.109-2.109v-33.709c0-1.165.944-2.109 2.109-2.109h33.709c1.165 0 2.109.944 2.109 2.109v33.709c0 1.165-.945 2.109-2.109 2.109z" fill="#fd4755"/><g fill="#baafb9"><path d="m357.447 441.571h-33.709c-1.165 0-2.109-.944-2.109-2.109v-33.709c0-1.165.944-2.109 2.109-2.109h33.709c1.165 0 2.109.944 2.109 2.109v33.709c-.001 1.165-.945 2.109-2.109 2.109z"/><path d="m269.118 441.571h-33.709c-1.165 0-2.109-.944-2.109-2.109v-33.709c0-1.165.944-2.109 2.109-2.109h33.709c1.165 0 2.109.944 2.109 2.109v33.709c-.001 1.165-.945 2.109-2.109 2.109z"/><path d="m180.789 441.571h-33.709c-1.165 0-2.109-.944-2.109-2.109v-33.709c0-1.165.944-2.109 2.109-2.109h33.709c1.165 0 2.109.944 2.109 2.109v33.709c-.001 1.165-.945 2.109-2.109 2.109z"/><path d="m96.05 441.571h-33.708c-1.165 0-2.109-.944-2.109-2.109v-33.709c0-1.165.944-2.109 2.109-2.109h33.708c1.165 0 2.109.944 2.109 2.109v33.709c0 1.165-.944 2.109-2.109 2.109z"/></g></g><g><path d="m479.403 62.879h-49.113v-35.679c0-4.143-3.358-7.5-7.5-7.5s-7.5 3.357-7.5 7.5v35.679h-34.884v-35.679c0-4.143-3.358-7.5-7.5-7.5s-7.5 3.357-7.5 7.5v35.679h-224.647v-35.679c0-4.143-3.358-7.5-7.5-7.5s-7.5 3.357-7.5 7.5v35.679h-34.884v-35.679c0-4.143-3.358-7.5-7.5-7.5s-7.5 3.357-7.5 7.5v35.679h-50.278c-14.114 0-25.597 11.483-25.597 25.598v62.793 221.322c0 4.143 3.358 7.5 7.5 7.5s7.5-3.357 7.5-7.5v-198.032c3.232 1.476 6.818 2.306 10.597 2.306h53.932c4.142 0 7.5-3.357 7.5-7.5s-3.358-7.5-7.5-7.5h-53.932c-5.843 0-10.597-4.754-10.597-10.597 0-13.369 0-49.27 0-62.793 0-5.844 4.754-10.598 10.597-10.598h50.277v34.631c0 4.143 3.358 7.5 7.5 7.5s7.5-3.357 7.5-7.5v-34.63h34.885v34.631c0 4.143 3.358 7.5 7.5 7.5s7.5-3.357 7.5-7.5v-34.631h224.646v34.631c0 4.143 3.358 7.5 7.5 7.5s7.5-3.357 7.5-7.5v-34.631h34.884v34.631c0 4.143 3.358 7.5 7.5 7.5s7.5-3.357 7.5-7.5v-34.631h49.113c5.843 0 10.597 4.754 10.597 10.598v62.793c0 5.843-4.754 10.597-10.597 10.597h-364.714c-4.142 0-7.5 3.357-7.5 7.5s3.358 7.5 7.5 7.5h364.715c3.779 0 7.365-.83 10.597-2.306v285.143c0 5.843-4.754 10.597-10.597 10.597h-453.806c-5.843-.001-10.597-4.755-10.597-10.598v-51.739c0-4.143-3.358-7.5-7.5-7.5s-7.5 3.357-7.5 7.5v51.739c0 14.114 11.483 25.597 25.597 25.597h453.806c14.114 0 25.597-11.482 25.597-25.597v-308.433c0-13.369 0-49.27 0-62.793 0-14.115-11.483-25.598-25.597-25.598z"/><path d="m52.733 238.707v43.41c0 9.021 7.339 16.359 16.359 16.359h369.933c9.021 0 16.359-7.339 16.359-16.359v-43.41c0-9.021-7.338-16.359-16.359-16.359h-369.933c-9.02 0-16.359 7.339-16.359 16.359zm387.651 0v43.41c0 .75-.609 1.359-1.359 1.359h-369.933c-.75 0-1.359-.609-1.359-1.359v-43.41c0-.75.61-1.359 1.359-1.359h369.933c.75 0 1.359.609 1.359 1.359z"/><path d="m455.384 334.443c0-5.298-4.311-9.608-9.608-9.608h-33.708c-5.298 0-9.608 4.311-9.608 9.608v33.709c0 5.298 4.31 9.608 9.608 9.608h33.708c5.298 0 9.608-4.311 9.608-9.608zm-15 28.318h-22.925v-22.926h22.925z"/><path d="m367.056 334.443c0-5.298-4.311-9.608-9.609-9.608h-33.708c-5.298 0-9.608 4.311-9.608 9.608v33.709c0 5.298 4.31 9.608 9.608 9.608h33.708c5.298 0 9.609-4.311 9.609-9.608zm-15 28.318h-22.926v-22.926h22.926z"/><path d="m278.727 334.443c0-5.298-4.311-9.608-9.609-9.608h-33.708c-5.298 0-9.608 4.311-9.608 9.608v33.709c0 5.298 4.31 9.608 9.608 9.608h33.708c5.298 0 9.609-4.311 9.609-9.608zm-15 28.318h-22.926v-22.926h22.926z"/><path d="m190.397 334.443c0-5.298-4.311-9.608-9.609-9.608h-33.708c-5.298 0-9.608 4.311-9.608 9.608v33.709c0 5.298 4.31 9.608 9.608 9.608h33.708c5.298 0 9.609-4.311 9.609-9.608zm-15 28.318h-22.926v-22.926h22.926z"/><path d="m445.776 396.146h-33.708c-5.298 0-9.608 4.311-9.608 9.608v33.709c0 5.298 4.31 9.608 9.608 9.608h33.708c5.298 0 9.608-4.311 9.608-9.608v-33.709c0-5.298-4.31-9.608-9.608-9.608zm-5.392 37.925h-22.925v-22.926h22.925z"/><path d="m357.447 396.146h-33.708c-5.298 0-9.608 4.311-9.608 9.608v33.709c0 5.298 4.31 9.608 9.608 9.608h33.708c5.298 0 9.609-4.311 9.609-9.608v-33.709c0-5.298-4.311-9.608-9.609-9.608zm-5.391 37.925h-22.926v-22.926h22.926z"/><path d="m269.118 396.146h-33.708c-5.298 0-9.608 4.311-9.608 9.608v33.709c0 5.298 4.31 9.608 9.608 9.608h33.708c5.298 0 9.609-4.311 9.609-9.608v-33.709c0-5.298-4.311-9.608-9.609-9.608zm-5.391 37.925h-22.926v-22.926h22.926z"/><path d="m180.789 396.146h-33.709c-5.298 0-9.608 4.311-9.608 9.608v33.709c0 5.298 4.31 9.608 9.608 9.608h33.708c5.298 0 9.609-4.311 9.609-9.608v-33.709c0-5.298-4.31-9.608-9.608-9.608zm-5.392 37.925h-22.926v-22.926h22.926z"/><path d="m52.733 439.463c0 5.298 4.311 9.608 9.609 9.608h33.708c5.298 0 9.608-4.311 9.608-9.608v-33.709c0-5.298-4.31-9.608-9.608-9.608h-33.708c-5.298 0-9.609 4.311-9.609 9.608zm15-28.317h22.926v22.926h-22.926z"/><path d="m324.585 206.761c4.142 0 7.5-3.357 7.5-7.5s-3.358-7.5-7.5-7.5h-127.012c-4.142 0-7.5 3.357-7.5 7.5s3.358 7.5 7.5 7.5z"/></g></g></svg>