<?xml version="1.0"?>
<svg xmlns="http://www.w3.org/2000/svg" xmlns:xlink="http://www.w3.org/1999/xlink" version="1.1" id="Layer_1" x="0px" y="0px" viewBox="0 0 150 150" style="enable-background:new 0 0 150 150;" xml:space="preserve" width="512px" height="512px"><g><g id="XMLID_229_">
	<path id="XMLID_230_" d="M15,30h120c8.284,0,15-6.716,15-15s-6.716-15-15-15H15C6.716,0,0,6.716,0,15S6.716,30,15,30z" data-original="#000000" class="active-path" data-old_color="#009ce6" fill="#009ce6"/>
	<path id="XMLID_231_" d="M135,60H15C6.716,60,0,66.716,0,75s6.716,15,15,15h120c8.284,0,15-6.716,15-15S143.284,60,135,60z" data-original="#000000" class="active-path" data-old_color="#009ce6" fill="#009ce6"/>
	<path id="XMLID_232_" d="M135,120H15c-8.284,0-15,6.716-15,15s6.716,15,15,15h120c8.284,0,15-6.716,15-15S143.284,120,135,120z" data-original="#000000" class="active-path" data-old_color="#009ce6" fill="#009ce6"/>
</g></g> </svg>
