<?xml version="1.0"?>
<svg xmlns="http://www.w3.org/2000/svg" xmlns:xlink="http://www.w3.org/1999/xlink" version="1.1" id="Layer_1" x="0px" y="0px" viewBox="0 0 512 512" style="enable-background:new 0 0 512 512;" xml:space="preserve" width="512px" height="512px"><g><g>
	<g>
		<g>
			<path d="M256,0C114.618,0,0,114.618,0,256s114.618,256,256,256s256-114.618,256-256S397.382,0,256,0z M256,469.333     c-117.818,0-213.333-95.515-213.333-213.333S138.182,42.667,256,42.667S469.333,138.182,469.333,256S373.818,469.333,256,469.333     z" data-original="#000000" class="active-path" data-old_color="#009ce6" fill="#009ce6"/>
			<path d="M192,149.333h128c11.782,0,21.333-9.551,21.333-21.333c0-11.782-9.551-21.333-21.333-21.333H192     c-11.782,0-21.333,9.551-21.333,21.333C170.667,139.782,180.218,149.333,192,149.333z" data-original="#000000" class="active-path" data-old_color="#009ce6" fill="#009ce6"/>
			<path d="M384,192H128c-11.782,0-21.333,9.551-21.333,21.333c0,11.782,9.551,21.333,21.333,21.333h256     c11.782,0,21.333-9.551,21.333-21.333C405.333,201.551,395.782,192,384,192z" data-original="#000000" class="active-path" data-old_color="#009ce6" fill="#009ce6"/>
			<path d="M384,277.333H128c-11.782,0-21.333,9.551-21.333,21.333c0,11.782,9.551,21.333,21.333,21.333h256     c11.782,0,21.333-9.551,21.333-21.333C405.333,286.885,395.782,277.333,384,277.333z" data-original="#000000" class="active-path" data-old_color="#009ce6" fill="#009ce6"/>
			<path d="M320,362.667H192c-11.782,0-21.333,9.551-21.333,21.333c0,11.782,9.551,21.333,21.333,21.333h128     c11.782,0,21.333-9.551,21.333-21.333C341.333,372.218,331.782,362.667,320,362.667z" data-original="#000000" class="active-path" data-old_color="#009ce6" fill="#009ce6"/>
		</g>
	</g>
</g></g> </svg>
