<svg id="Layer_5" enable-background="new 0 0 64 64" height="512" viewBox="0 0 64 64" width="512" xmlns="http://www.w3.org/2000/svg"><g><g><g><path d="m20 2v15.13l-3.56 3.56.66 1.31h-15.1v-20z" fill="#f0d0b4"/></g><g><path d="m6 14h10v4h-10z" fill="#b4dd7f"/></g><g><path d="m62 42v20h-18v-15.13l3.56-3.56-.66-1.31z" fill="#f0d0b4"/></g><g><path d="m48 46h10v4h-10z" fill="#ff826e"/></g><g><path d="m32 16v3c-7.18 0-13 5.82-13 13 0 1.4.22 2.74.63 4h-6.63v-7l2.45-.82c.42-1.86 1.16-3.61 2.15-5.18l-.5-1-.66-1.31 3.56-3.56.69-.69 2.31 1.16c1.57-.99 3.32-1.73 5.18-2.15l.82-2.45h3z" fill="#fcd770"/></g><g><path d="m51 28v7l-2.45.82c-.42 1.86-1.16 3.61-2.15 5.18l.5 1 .66 1.31-3.56 3.56-.69.69-2.31-1.16c-1.57.99-3.32 1.73-5.18 2.15l-.82 2.45h-3v-1-5c7.18 0 13-5.82 13-13 0-1.4-.22-2.74-.63-4z" fill="#fcd770"/></g><g><path d="m25 62h-16c1.28-1.28 2-3.02 2-4.83v-1.17h12v1.17c0 1.81.72 3.55 2 4.83z" fill="#aab2bd"/></g><g><path d="m55 28h-4-6.63-5.37c1.28-1.28 2-3.02 2-4.83v-1.17h12v1.17c0 1.81.72 3.55 2 4.83z" fill="#aab2bd"/></g><g><path d="m32 51v3c0 1.1-.9 2-2 2h-7-12-7c-1.1 0-2-.9-2-2v-4h30z" fill="#ccd1d9"/></g><g><path d="m62 16v4c0 1.1-.9 2-2 2h-7-12-7c-1.1 0-2-.9-2-2v-1-3z" fill="#ccd1d9"/></g><g><path d="m32 45v5h-30v-12c0-1.1.9-2 2-2h9 6.63 10.37c1.1 0 2 .9 2 2z" fill="#69d6f4"/></g><g><path d="m62 4v12h-30v-3-9c0-1.1.9-2 2-2h26c1.1 0 2 .9 2 2z" fill="#69d6f4"/></g></g><g><path d="m54 23h6c1.654 0 3-1.346 3-3v-16c0-1.654-1.346-3-3-3h-26c-1.654 0-3 1.346-3 3v8h-2.721l-.869 2.606c-1.561.411-3.057 1.032-4.46 1.852l-1.95-.976v-14.482h-20v22h15.431c-.805 1.389-1.418 2.868-1.824 4.41l-2.607.869v6.721h-8c-1.654 0-3 1.346-3 3v16c0 1.654 1.346 3 3 3h6v.172c0 1.424-.513 2.767-1.441 3.828h-2.559v2h22v-2h-2.559c-.928-1.062-1.441-2.404-1.441-3.828v-.172h6c1.654 0 3-1.346 3-3v-2h2.721l.869-2.606c1.561-.411 3.057-1.032 4.46-1.852l1.95.976v14.482h20v-22h-15.431c.805-1.389 1.418-2.868 1.824-4.41l2.607-.869v-6.721h6v-2h-2.559c-.928-1.062-1.441-2.404-1.441-3.828zm6-2h-26c-.551 0-1-.448-1-1v-3h28v3c0 .552-.449 1-1 1zm-21.441 6h-2.559v2h7.615c.252.975.385 1.98.385 3 0 6.28-4.851 11.438-11 11.949v-5.949c0-1.654-1.346-3-3-3h-9.615c-.252-.976-.385-1.981-.385-3 0-6.281 4.853-11.441 11.005-11.95.028 1.631 1.358 2.95 2.995 2.95h6v.172c0 1.424-.513 2.766-1.441 3.828zm-4.559-24h26c.551 0 1 .448 1 1v11h-28v-11c0-.552.449-1 1-1zm-31 0h16v13.716l-2 2v-5.716h-12v6h11.716l-1.489 1.489.255.511h-12.482zm12 12v2h-8v-2zm-1 14.721 2.294-.765.125-.548c.396-1.725 1.078-3.367 2.026-4.881l.298-.477-1.083-2.167 3.223-3.224 2.168 1.084.476-.298c1.514-.948 3.156-1.63 4.881-2.026l.547-.126.766-2.293h1.279v4.051c-7.253.516-13 6.567-13 13.949 0 1.015.116 2.018.331 3h-4.331zm-10 7.279h26c.551 0 1 .448 1 1v11h-28v-11c0-.552.449-1 1-1zm19.003 24h-12.006c.651-1.156 1.003-2.464 1.003-3.828v-.172h10v.172c0 1.364.352 2.672 1.003 3.828zm6.997-6h-26c-.551 0-1-.448-1-1v-3h28v3c0 .552-.449 1-1 1zm31 6h-16v-13.715l2-2.001v5.716h12v-6h-11.716l1.489-1.489-.255-.511h12.482zm-12-12v-2h8v2zm1-14.721-2.294.765-.125.548c-.396 1.725-1.078 3.367-2.026 4.881l-.298.477 1.083 2.167-3.223 3.224-2.168-1.084-.476.298c-1.514.948-3.156 1.63-4.881 2.026l-.547.126-.766 2.293h-1.279v-4.051c7.253-.516 13-6.567 13-13.949 0-1.016-.116-2.019-.33-3h4.33zm-9.003-7.279c.651-1.156 1.003-2.464 1.003-3.828v-.172h10v.172c0 1.364.352 2.672 1.003 3.828z"/><path d="m47 53h12v2h-12z"/><path d="m47 57h2v2h-2z"/><path d="m51 57h8v2h-8z"/><path d="m5 9h12v2h-12z"/><path d="m15 5h2v2h-2z"/><path d="m5 5h8v2h-8z"/><path d="m41.939 33.105c.04-.363.061-.731.061-1.105 0-.375-.021-.746-.062-1.111l-1.987.223c.032.29.049.587.049.888 0 .3-.017.596-.049.887z"/><path d="m39.127 39.015-1.426-1.402c-.381.387-.804.737-1.257 1.04l1.112 1.662c.566-.378 1.094-.816 1.571-1.3z"/><path d="m41.453 35.27-1.891-.653c-.193.56-.45 1.098-.763 1.601l1.698 1.057c.392-.631.713-1.305.956-2.005z"/></g></g></svg>