<?xml version="1.0" encoding="iso-8859-1"?>
<!-- Generator: Adobe Illustrator 21.0.0, SVG Export Plug-In . SVG Version: 6.00 Build 0)  -->
<svg xmlns="http://www.w3.org/2000/svg" xmlns:xlink="http://www.w3.org/1999/xlink" version="1.1" id="Capa_1" x="0px" y="0px" viewBox="0 0 512 512" style="enable-background:new 0 0 512 512;" xml:space="preserve" width="512" height="512">
<g>
	<g>
		<g>
			<rect x="40" y="352.5" style="fill:#B2E8B6;" width="64" height="152"/>
			<rect x="160" y="256.5" style="fill:#D5D8DE;" width="64" height="248"/>
			<rect x="280" y="160.5" style="fill:#C0C4CE;" width="64" height="344"/>
			<rect x="400" y="64.5" style="fill:#ABB1BE;" width="64" height="440"/>
		</g>
		<g>
			<circle style="fill:#FB675F;" cx="136" cy="55.5" r="48"/>
			<path style="fill:#FA544B;" d="M152,87.5c-26.51,0-48-21.49-48-48c0-9.154,2.565-17.709,7.012-24.988     C97.212,22.943,88,38.145,88,55.5c0,26.51,21.49,48,48,48c17.355,0,32.557-9.212,40.988-23.012     C169.709,84.935,161.155,87.5,152,87.5z"/>
		</g>
	</g>
	<g>
		<path d="M504,497h-32.5V389.5c0-4.142-3.357-7.5-7.5-7.5s-7.5,3.358-7.5,7.5V497h-49V72h49v280.833c0,4.142,3.357,7.5,7.5,7.5    s7.5-3.358,7.5-7.5V64.5c0-4.142-3.357-7.5-7.5-7.5h-64c-4.143,0-7.5,3.358-7.5,7.5V497h-41V160.5c0-4.142-3.357-7.5-7.5-7.5h-64    c-4.143,0-7.5,3.358-7.5,7.5V497h-41V256.5c0-4.142-3.357-7.5-7.5-7.5h-64c-4.143,0-7.5,3.358-7.5,7.5V497h-41V352.5    c0-4.142-3.357-7.5-7.5-7.5H40c-4.143,0-7.5,3.358-7.5,7.5V497H8c-4.143,0-7.5,3.358-7.5,7.5S3.857,512,8,512h496    c4.143,0,7.5-3.358,7.5-7.5S508.143,497,504,497z M47.5,497V360h49v137H47.5z M167.5,497V264h49v233H167.5z M287.5,497V168h49v329    H287.5z"/>
		<path d="M136,111c30.603,0,55.5-24.897,55.5-55.5S166.603,0,136,0S80.5,24.897,80.5,55.5S105.397,111,136,111z M136,15    c22.332,0,40.5,18.168,40.5,40.5S158.332,96,136,96S95.5,77.832,95.5,55.5S113.668,15,136,15z"/>
		<path d="M136,63c4.143,0,7.5-3.358,7.5-7.5v-24c0-4.142-3.357-7.5-7.5-7.5s-7.5,3.358-7.5,7.5v24C128.5,59.642,131.857,63,136,63z    "/>
		<circle cx="136" cy="79.5" r="7.5"/>
	</g>
</g>















</svg>
