<?xml version="1.0" encoding="iso-8859-1"?>
<!-- Generator: Adobe Illustrator 19.0.0, SVG Export Plug-In . SVG Version: 6.00 Build 0)  -->
<svg version="1.1" id="Layer_1" xmlns="http://www.w3.org/2000/svg" xmlns:xlink="http://www.w3.org/1999/xlink" x="0px" y="0px"
	 viewBox="0 0 512 512" style="enable-background:new 0 0 512 512;" xml:space="preserve">
<path style="fill:#027372;" d="M438.468,155.234h-32.681l32.681,272.34l32.681-21.787V187.915
	C471.149,169.94,456.443,155.234,438.468,155.234z"/>
<path style="fill:#02ACAB;" d="M405.787,155.234H73.532c-17.974,0-32.681,14.706-32.681,32.681v217.872l397.617,21.787v-239.66
	C438.468,169.94,423.762,155.234,405.787,155.234z"/>
<path style="fill:#B9B9B9;" d="M471.149,427.574l-32.681,76.255h32.681c17.974,0,32.681-14.706,32.681-32.681v-21.787
	L471.149,427.574z"/>
<path style="fill:#DCDCDC;" d="M471.149,471.149v-43.574L8.17,449.362v21.787c0,17.974,14.706,32.681,32.681,32.681h397.617
	C456.443,503.83,471.149,489.123,471.149,471.149z"/>
<polygon style="fill:#D5F6F5;" points="471.149,405.787 438.468,405.787 422.684,427.574 471.149,449.362 503.83,449.362 "/>
<polygon style="fill:#FFFFFF;" points="40.851,405.787 8.17,449.362 471.149,449.362 438.468,405.787 "/>
<polygon style="fill:#81E3E2;" points="256,8.17 294.128,302.298 326.809,302.298 326.809,122.553 370.383,122.553 "/>
<polygon style="fill:#ABECEC;" points="141.617,122.553 185.191,122.553 185.191,302.298 294.128,302.298 294.128,122.553 
	337.702,122.553 256,8.17 "/>
<path d="M510.366,444.46l-31.047-41.396V187.915c0-22.526-18.325-40.851-40.851-40.851h-78.979c-4.513,0-8.17,3.657-8.17,8.17
	s3.657,8.17,8.17,8.17h78.979c13.515,0,24.511,10.996,24.511,24.511v209.702H40.851c-2.571,0-4.994,1.21-6.536,3.268L1.634,444.46
	C0.573,445.874,0,447.594,0,449.362v21.787C0,493.674,18.325,512,40.851,512h430.298C493.675,512,512,493.675,512,471.149v-21.787
	C512,447.594,511.427,445.874,510.366,444.46z M44.936,413.957h422.128l20.426,27.234H24.511L44.936,413.957z M471.149,495.66
	H40.851c-13.515,0-24.511-10.996-24.511-24.511v-13.617H247.83v13.617c0,4.513,3.657,8.17,8.17,8.17s8.17-3.657,8.17-8.17v-13.617
	H495.66v13.617C495.66,484.664,484.664,495.66,471.149,495.66z"/>
<path d="M40.851,381.277c4.513,0,8.17-3.657,8.17-8.17V187.915c0-13.515,10.996-24.511,24.511-24.511h78.979
	c4.513,0,8.17-3.657,8.17-8.17s-3.657-8.17-8.17-8.17H73.532c-22.526,0-40.851,18.325-40.851,40.851v185.191
	C32.681,377.618,36.338,381.277,40.851,381.277z"/>
<path d="M141.617,130.723h35.404v171.574c0,4.513,3.657,8.17,8.17,8.17h141.617c4.513,0,8.17-3.657,8.17-8.17V130.723h35.404
	c3.304,0,6.285-1.99,7.548-5.044c1.265-3.053,0.566-6.567-1.77-8.904L261.778,2.392c-3.192-3.19-8.364-3.19-11.555,0L135.84,116.775
	c-2.337,2.338-3.035,5.851-1.77,8.904C135.332,128.733,138.313,130.723,141.617,130.723z M256,19.724l94.659,94.659h-23.85
	c-4.513,0-8.17,3.657-8.17,8.17v171.574H193.362V122.553c0-4.513-3.657-8.17-8.17-8.17h-23.85L256,19.724z"/>
<circle cx="256" cy="212.426" r="8.17"/>
<circle cx="217.872" cy="212.426" r="8.17"/>
<circle cx="294.128" cy="212.426" r="8.17"/>
<g>
</g>
<g>
</g>
<g>
</g>
<g>
</g>
<g>
</g>
<g>
</g>
<g>
</g>
<g>
</g>
<g>
</g>
<g>
</g>
<g>
</g>
<g>
</g>
<g>
</g>
<g>
</g>
<g>
</g>
</svg>
