<?xml version="1.0" encoding="iso-8859-1"?>
<!-- Generator: Adobe Illustrator 21.0.0, SVG Export Plug-In . SVG Version: 6.00 Build 0)  -->
<svg version="1.1" id="Capa_1" xmlns="http://www.w3.org/2000/svg" xmlns:xlink="http://www.w3.org/1999/xlink" x="0px" y="0px"
	 viewBox="0 0 512 512" style="enable-background:new 0 0 512 512;" xml:space="preserve">
<g>
	<path style="fill:#95A5A5;" d="M35.31,0H476.69c9.751,0,17.655,7.904,17.655,17.655v476.69c0,9.751-7.904,17.655-17.655,17.655
		H35.31c-9.751,0-17.655-7.905-17.655-17.655V17.655C17.655,7.904,25.56,0,35.31,0z"/>
	<path style="fill:#7F5B53;" d="M459.034,326.621v44.138c0,4.875-3.952,8.828-8.828,8.828H61.793c-4.875,0-8.828-3.952-8.828-8.828
		v-44.138H459.034z"/>
	<path style="fill:#B0D3F0;" d="M459.034,44.138v282.483H52.966V44.138c0-4.875,3.952-8.828,8.828-8.828h388.414
		C455.082,35.31,459.034,39.263,459.034,44.138z"/>
	<g>
		<path style="fill:#5E5F62;" d="M300.138,414.897H61.793c-4.875,0-8.828,3.952-8.828,8.828c0,4.875,3.952,8.828,8.828,8.828
			h238.345c4.875,0,8.828-3.952,8.828-8.828C308.966,418.849,305.013,414.897,300.138,414.897z"/>
		<path style="fill:#5E5F62;" d="M158.897,459.034H61.793c-4.875,0-8.828,3.952-8.828,8.828s3.952,8.828,8.828,8.828h97.103
			c4.875,0,8.828-3.952,8.828-8.828S163.772,459.034,158.897,459.034z"/>
		<path style="fill:#5E5F62;" d="M203.034,459.034h-8.828c-4.875,0-8.828,3.952-8.828,8.828s3.952,8.828,8.828,8.828h8.828
			c4.875,0,8.828-3.952,8.828-8.828S207.91,459.034,203.034,459.034z"/>
	</g>
	<polyline style="fill:#26B99A;" points="132.414,326.621 238.345,171.785 247.172,158.897 256,171.785 361.931,326.621 	"/>
	<path style="fill:#65DDB9;" d="M256,171.785v48.905c0,4.875-3.952,8.828-8.828,8.828s-8.828-3.952-8.828-8.828v-48.905
		l8.828-12.888L256,171.785z"/>
	<polygon style="fill:#14A085;" points="300.138,326.621 247.172,256 194.207,326.621 	"/>
	<g>
		<path style="fill:#ECF0F1;" d="M459.034,141.241v35.31h-70.621c-9.739-0.029-17.626-7.917-17.655-17.655
			c0.072-9.721,7.935-17.583,17.655-17.655h17.655c9.751,0,17.655-7.904,17.655-17.655s-7.904-17.655-17.655-17.655h-52.966
			c-9.739-0.029-17.626-7.917-17.655-17.655c0.072-9.721,7.935-17.583,17.655-17.655h105.931V141.241z"/>
		<path style="fill:#ECF0F1;" d="M52.966,105.931v-35.31h70.621c9.739,0.029,17.626,7.917,17.655,17.655
			c-0.072,9.721-7.935,17.583-17.655,17.655h-8.828c-9.751,0-17.655,7.904-17.655,17.655s7.904,17.655,17.655,17.655h44.138
			c9.739,0.029,17.626,7.917,17.655,17.655c-0.072,9.721-7.935,17.583-17.655,17.655H52.966V105.931z"/>
	</g>
</g>
<g>
</g>
<g>
</g>
<g>
</g>
<g>
</g>
<g>
</g>
<g>
</g>
<g>
</g>
<g>
</g>
<g>
</g>
<g>
</g>
<g>
</g>
<g>
</g>
<g>
</g>
<g>
</g>
<g>
</g>
</svg>
