<?xml version="1.0" encoding="iso-8859-1"?>
<!-- Generator: Adobe Illustrator 19.0.0, SVG Export Plug-In . SVG Version: 6.00 Build 0)  -->
<svg version="1.1" id="Capa_1" xmlns="http://www.w3.org/2000/svg" xmlns:xlink="http://www.w3.org/1999/xlink" x="0px" y="0px"
	 viewBox="0 0 512.001 512.001" style="enable-background:new 0 0 512.001 512.001;" xml:space="preserve">
<path style="fill:#FF80BD;" d="M454.909,107.333V61.354c0-2.349-1.905-4.675-4.254-4.675c-4.611,0-194.096,0-195.901,0v3.911v43.559
	c0,2.068,1.613,3.746,3.676,3.898c25.536,1.88,45.669,22.193,45.669,48.209s-20.133,46.329-45.669,48.209
	c-2.062,0.152-3.676,1.83-3.676,3.898v47.47v0.421h47.47c2.068,0,3.746,1.613,3.898,3.676c1.88,25.535,23.193,45.669,49.209,45.669
	s47.329-20.133,49.209-45.669c0.152-2.062,1.83-3.676,3.898-3.676h46.47v-50.233c27.253,0,49.344-22.092,49.344-49.344
	C504.253,129.425,482.161,107.333,454.909,107.333z"/>
<path style="fill:#F962B1;" d="M275.755,208.364c0-2.068,1.613-3.746,3.676-3.898c25.536-1.88,45.669-22.194,45.669-48.21
	s-20.133-46.329-45.669-48.209c-2.063-0.152-3.676-1.83-3.676-3.898V60.59v-3.912h-21.001v3.912v43.559
	c0,2.068,1.613,3.746,3.676,3.898c25.536,1.88,45.669,22.193,45.669,48.209s-20.133,46.329-45.669,48.21
	c-2.062,0.152-3.676,1.83-3.676,3.898v47.47v0.421h21.001v-0.421V208.364z"/>
<path style="fill:#FFC850;" d="M255.753,103.149v-46.47h-46.6c-1.993,0-3.69-1.498-3.882-3.482
	c-2.421-24.991-23.469-44.529-49.096-44.529s-46.675,19.538-49.096,44.529c-0.192,1.984-1.889,3.482-3.882,3.482H60.51
	c-2.16,0-3.911,1.751-3.911,3.911v195.244h50.233c0-27.253,22.092-49.344,49.344-49.344s49.344,22.091,49.344,49.344h50.233v-46.47
	c0-2.031,1.554-3.746,3.58-3.891c25.581-1.834,45.765-23.168,45.765-49.216c0-26.049-20.183-47.383-45.765-49.216
	C257.308,106.895,255.753,105.179,255.753,103.149z"/>
<path style="fill:#9BF57D;" d="M355.332,305.178c-26.049,0-47.383-20.184-49.216-45.765c-0.145-2.026-1.86-3.58-3.891-3.58h-46.47
	v50.233c-27.252,0-49.344,22.091-49.344,49.344c0,27.252,22.092,49.344,49.344,49.344v50.233h46.47c2.031,0,3.746,1.554,3.891,3.58
	c1.834,25.581,23.168,45.765,49.216,45.765s47.383-20.184,49.216-45.765c0.145-2.025,1.86-3.58,3.891-3.58h42.559
	c2.16,0,3.911-1.751,3.911-3.911V255.834h-46.47c-2.031,0-3.746,1.554-3.891,3.58C402.713,284.995,381.379,305.178,355.332,305.178z
	"/>
<g>
	<path style="fill:#7CE854;" d="M226.411,355.411c0-25.489,19.324-46.462,44.121-49.071c2.983-0.314,5.224-2.876,5.224-5.876v-44.63
		h-20.001v50.233c-27.252,0-49.344,22.091-49.344,49.344c0,27.252,22.092,49.344,49.344,49.344v50.233h20.001v-45.191
		c0-2.754-2.113-5.01-4.854-5.278C245.927,402.082,226.411,381.026,226.411,355.411z"/>
	<path style="fill:#7CE854;" d="M326.116,458.569c-0.145-2.025-1.86-3.58-3.891-3.58h-20.001c2.031,0,3.746,1.554,3.891,3.58
		c1.834,25.581,23.168,45.765,49.216,45.765c3.427,0,6.77-0.358,10.001-1.023C344.011,498.92,327.709,480.784,326.116,458.569z"/>
</g>
<path style="fill:#00AAF0;" d="M206.41,355.411c0-27.253,22.092-49.344,49.344-49.344v-50.233H205.52
	c0-27.253-22.092-49.344-49.344-49.344s-49.344,22.091-49.344,49.344H56.599v46.47c0,2.068-1.613,3.746-3.676,3.898
	c-25.536,1.88-45.669,23.193-45.669,49.209c0,26.016,20.133,47.329,45.669,49.209c2.062,0.152,3.676,1.83,3.676,3.898v42.559
	c0,2.16,1.751,3.911,3.911,3.911h195.244v-50.233C228.501,404.756,206.41,382.663,206.41,355.411z"/>
<g>
	<path style="fill:#F9B428;" d="M80.178,56.679H60.51c-2.16,0-3.911,1.751-3.911,3.912v195.244h19.668V60.59
		C76.266,58.43,78.018,56.679,80.178,56.679z"/>
	<path style="fill:#F9B428;" d="M126.748,53.197c2.102-21.705,18.261-39.289,39.262-43.54c-3.178-0.643-6.465-0.989-9.834-0.989
		c-25.627,0-46.675,19.538-49.096,44.529c-0.192,1.984-1.889,3.481-3.882,3.481h19.668
		C124.859,56.679,126.556,55.181,126.748,53.197z"/>
</g>
<path style="fill:#039ADD;" d="M76.266,451.078v-42.559c0-2.068-1.613-3.746-3.676-3.898c-25.536-1.88-45.669-23.194-45.669-49.21
	c0-26.017,20.133-47.329,45.669-49.21c2.062-0.152,3.676-1.83,3.676-3.898v-46.47H56.598v46.47c0,2.068-1.613,3.746-3.676,3.898
	c-25.536,1.88-45.669,23.193-45.669,49.21c0,26.016,20.133,47.329,45.669,49.21c2.063,0.152,3.676,1.83,3.676,3.898v42.559
	c0,2.16,1.751,3.911,3.911,3.911h19.668C78.018,454.989,76.266,453.238,76.266,451.078z"/>
<path d="M462.656,99.826V60.853c0-6.481-5.272-11.754-11.755-11.754h-76.854c-4.143,0-7.5,3.358-7.5,7.5s3.357,7.5,7.5,7.5h73.607
	v42.733c0,4.142,3.357,7.5,7.5,7.5c23.072,0,41.844,18.771,41.844,41.844s-18.771,41.844-41.844,41.844c-4.143,0-7.5,3.358-7.5,7.5
	v42.312h-38.969c-5.943,0-10.942,4.668-11.379,10.626c-1.6,21.711-19.93,38.718-41.73,38.718c-21.801,0-40.13-17.007-41.73-38.716
	c-0.437-5.959-5.435-10.628-11.379-10.628h-38.969v-35.724c27.924-3.699,49.345-27.841,49.345-56.352
	c0-28.508-21.417-52.652-49.345-56.352V64.1h75.546c4.143,0,7.5-3.358,7.5-7.5s-3.357-7.5-7.5-7.5
	c-0.599,0-83.186-0.021-83.782,0.037c-2.184-0.634,0.256-0.458-42.694-0.458c-4.273-27.588-27.871-48.011-56.147-48.011
	s-51.873,20.422-56.147,48.011H60.757c-6.293,0-11.413,5.119-11.413,11.413c0,12.627,0,230.87,0,238.468
	C21.42,302.259,0,326.4,0,354.911c0,28.511,21.42,52.653,49.344,56.352v39.313c0,6.292,5.119,11.413,11.413,11.413
	c17.916,0,231.539,0,238.468,0c3.698,27.924,27.841,49.344,56.352,49.344c28.512,0,52.652-21.418,56.353-49.344h39.313
	c6.293,0,11.413-5.119,11.413-11.412v-73.846c0-4.142-3.357-7.5-7.5-7.5s-7.5,3.358-7.5,7.5v70.257h-38.969
	c-5.943,0-10.942,4.668-11.379,10.626c-1.6,21.711-19.93,38.718-41.73,38.718c-21.801,0-40.13-17.007-41.73-38.716
	c-0.437-5.959-5.435-10.628-11.379-10.628H263.5v-42.733c0-4.142-3.357-7.5-7.5-7.5c-23.072,0-41.844-18.771-41.844-41.844
	c0-23.072,18.771-41.844,41.844-41.844c4.143,0,7.5-3.358,7.5-7.5v-42.312h35.725c3.699,27.924,27.841,49.344,56.352,49.344
	c28.512,0,52.652-21.418,56.353-49.344h35.725v78.473c0,4.142,3.357,7.5,7.5,7.5s7.5-3.358,7.5-7.5
	c0-88.581,0.08-82.893-0.172-84.386c0.246-1.138,0.172,1.907,0.172-44.814c27.812-3.682,49.344-27.551,49.344-56.352
	S490.468,103.508,462.656,99.826z M64.345,63.679h39.1c5.892,0,10.774-4.445,11.355-10.34c2.122-21.476,20.016-37.671,41.623-37.671
	s39.5,16.195,41.623,37.67c0.581,5.895,5.463,10.341,11.355,10.341h39.099v38.969c0,5.941,4.667,10.94,10.626,11.379
	c21.537,1.585,38.718,19.793,38.718,41.729c0,21.801-17.007,40.13-38.718,41.73c-5.959,0.439-10.626,5.438-10.626,11.379v38.969
	h-35.726c-3.682-27.812-27.55-49.344-56.351-49.344s-52.67,21.532-56.352,49.344H64.345V63.679z M248.499,298.56
	c-27.812,3.682-49.344,27.551-49.344,56.352c0,28.802,21.532,52.67,49.344,56.352v35.725H64.345V408.02
	c0-5.941-4.667-10.94-10.625-11.379c-21.711-1.6-38.719-19.929-38.719-41.73c0-21.801,17.008-40.13,38.719-41.73
	c5.957-0.438,10.625-5.436,10.625-11.378v-38.969h42.733c4.143,0,7.5-3.358,7.5-7.5c0-23.072,18.772-41.844,41.845-41.844
	s41.844,18.771,41.844,41.844c0,4.142,3.357,7.5,7.5,7.5h42.733V298.56z"/>
<g>
</g>
<g>
</g>
<g>
</g>
<g>
</g>
<g>
</g>
<g>
</g>
<g>
</g>
<g>
</g>
<g>
</g>
<g>
</g>
<g>
</g>
<g>
</g>
<g>
</g>
<g>
</g>
<g>
</g>
</svg>
