<?xml version="1.0" encoding="iso-8859-1"?>
<!-- Generator: Adobe Illustrator 19.0.0, SVG Export Plug-In . SVG Version: 6.00 Build 0)  -->
<svg version="1.1" id="Capa_1" xmlns="http://www.w3.org/2000/svg" xmlns:xlink="http://www.w3.org/1999/xlink" x="0px" y="0px"
	 viewBox="0 0 512 512" style="enable-background:new 0 0 512 512;" xml:space="preserve">
<path style="fill:#FF8C8C;" d="M480.237,361.21H439.77c-5.769,0-9.465,6.239-6.589,11.24c2.602,4.523,4.09,9.768,4.09,15.361v1.282
	c0,17.051-13.823,30.874-30.874,30.874l0,0c-17.051,0-30.874-13.823-30.874-30.874v-1.282c0-5.593,1.488-10.838,4.09-15.361
	c2.877-5.001-0.819-11.24-6.589-11.24h-40.467c-11.826,0-21.442-9.435-21.749-21.187h-91.695v148H502v-148h-0.015
	C501.679,351.775,492.063,361.21,480.237,361.21z"/>
<path style="fill:#F5B955;" d="M476.103,234.707h1.282c4.949,0,9.626,1.165,13.771,3.235c4.986,2.491,10.844-1.221,10.844-6.794
	v-39.381c0-12.02-9.744-21.763-21.763-21.763h-147.68c-12.02,0-21.763,9.744-21.763,21.763v34.168c0,5.574-5.858,9.285-10.845,6.795
	c-4.145-2.07-8.821-3.235-13.771-3.235h-1.282c-17.051,0-30.874,13.823-30.874,30.874l0,0c0,17.051,13.823,30.874,30.874,30.874
	h1.282c4.949,0,9.626-1.165,13.771-3.235c4.986-2.491,10.845,1.221,10.845,6.795v39.432v5.213c0,12.02,9.744,21.763,21.763,21.763
	h40.467c5.769,0,9.465,6.239,6.589,11.24c-2.602,4.523-4.09,9.768-4.09,15.361v1.282c0,17.051,13.823,30.874,30.874,30.874l0,0
	c17.051,0,30.874-13.823,30.874-30.874v-1.282c0-5.593-1.488-10.838-4.09-15.361c-2.877-5.001,0.819-11.24,6.589-11.24h40.467
	c12.02,0,21.763-9.744,21.763-21.763v-39.432c0-5.574-5.858-9.285-10.844-6.794c-4.145,2.07-8.822,3.235-13.771,3.235h-1.282
	c-17.051,0-30.874-13.823-30.874-30.874l0,0C445.229,248.529,459.052,234.707,476.103,234.707z"/>
<rect x="10" y="23.978" style="fill:#78D2FA;" width="282.89" height="148"/>
<path style="fill:#A5DC69;" d="M190.362,274.007c-4.145,2.07-8.821,3.235-13.771,3.235h-1.282
	c-17.051,0-30.874-13.823-30.874-30.874l0,0c0-17.051,13.823-30.874,30.874-30.874h1.282c4.949,0,9.626,1.165,13.771,3.235
	c4.986,2.491,10.845-1.221,10.845-6.795v-39.381c0-12.02-9.744-21.763-21.763-21.763h-40.467c-5.769,0-9.465-6.239-6.589-11.24
	c2.602-4.523,4.09-9.768,4.09-15.361v-1.282c0-17.051-13.823-30.874-30.874-30.874l0,0c-17.051,0-30.874,13.823-30.874,30.874v1.282
	c0,5.593,1.488,10.838,4.09,15.361c2.877,5.001-0.819,11.24-6.589,11.24H31.763c-12.02,0-21.763,9.744-21.763,21.763v39.432
	c0,5.574,5.858,9.285,10.844,6.795c4.145-2.07,8.822-3.235,13.771-3.235h1.282c17.051,0,30.874,13.823,30.874,30.874l0,0
	c0,17.051-13.823,30.874-30.874,30.874h-1.282c-4.949,0-9.626-1.165-13.771-3.235C15.858,271.568,10,275.279,10,280.853v39.381
	c0,12.02,9.744,21.763,21.763,21.763h44.508h103.172c8.38,0,15.654-4.736,19.291-11.678c1.579-3.015,2.473-6.446,2.473-10.085
	v-39.432C201.206,275.227,195.348,271.516,190.362,274.007z"/>
<rect x="244.89" y="23.978" style="fill:#FFFFFF;" width="48" height="148"/>
<g>
	<path style="fill:#FFCDAC;" d="M460.076,10.003h-95.418c-21.759,0-43.046,6.336-61.264,18.234l-10.517,6.869v126.667l22.075,15.327
		c20.635,14.328,45.157,22.006,70.279,22.006h13.21c18.009,0,32.608-14.599,32.608-32.608l0.286,3.505h27.92
		c11.499,0,20.821-8.954,20.821-20s-9.322-20-20.821-20h20.821c11.499,0,20.822-8.954,20.822-20s-9.322-20-20.822-20h0.822
		c11.046,0,20-8.954,20-20s-8.954-20-20-20h-20.822c11.046,0,20-8.954,20-20S471.121,10.003,460.076,10.003z"/>
	<path style="fill:#FFCDAC;" d="M50.822,501.997h34.492h17.251h43.674c21.759,0,43.046-6.336,61.264-18.234l10.517-6.869V350.227
		L195.946,334.9c-20.635-14.328-45.157-22.006-70.279-22.006h-13.21c-18.009,0-32.608,14.599-32.608,32.608l-0.286-3.505h-27.92
		c-11.499,0-20.821,8.954-20.821,20s9.322,20,20.821,20H30.822c-11.499,0-20.822,8.954-20.822,20s9.322,20,20.822,20H30
		c-11.046,0-20,8.954-20,20s8.954,20,20,20h20.822c-11.046,0-20,8.954-20,20S39.776,501.997,50.822,501.997z"/>
</g>
<rect x="219.11" y="340.02" style="fill:#FFFFFF;" width="48" height="148"/>
<path d="M244.89,69.153c2.63,0,5.2-1.06,7.07-2.92c1.859-1.87,2.93-4.45,2.93-7.08s-1.07-5.21-2.93-7.07
	c-1.87-1.86-4.44-2.93-7.07-2.93s-5.21,1.07-7.08,2.93c-1.859,1.86-2.93,4.44-2.93,7.07s1.07,5.21,2.93,7.08
	C239.68,68.093,242.25,69.153,244.89,69.153z"/>
<path d="M488.934,161.224c1.443-3.469,2.245-7.254,2.245-11.22c0-3.878-0.769-7.583-2.151-10.989
	C502.233,135.627,512,123.906,512,110.003c0-7.918-3.173-15.124-8.34-20.491c4.506-5.25,7.238-12.064,7.238-19.509
	c0-14.084-9.758-25.926-22.867-29.136c1.315-3.371,2.044-7.033,2.044-10.864c0-16.542-13.458-30-30-30h-50.641h-1.103H365.76
	c-22.892,0-45.137,6.392-64.525,18.477c-1.789-2.711-4.858-4.502-8.349-4.502H10c-5.522,0-10,4.477-10,10v188.008
	c0,6.136,3.119,11.728,8.344,14.958c5.186,3.207,11.532,3.498,16.97,0.782c2.897-1.447,6.027-2.181,9.302-2.181h1.282
	c11.51,0,20.874,9.364,20.874,20.874s-9.364,20.874-20.874,20.874h-1.282c-3.274,0-6.404-0.734-9.302-2.181
	c-5.439-2.718-11.783-2.426-16.97,0.782C3.119,269.125,0,274.717,0,280.853v39.381c0,14.498,9.768,26.75,23.066,30.543
	c-1.443,3.469-2.245,7.254-2.245,11.22c0,3.878,0.769,7.583,2.151,10.989C9.767,376.373,0,388.094,0,401.997
	c0,7.621,2.94,14.583,7.767,19.881C2.943,427.203,0,434.262,0,441.997c0,14.084,9.758,25.925,22.866,29.136
	c-1.315,3.371-2.044,7.033-2.044,10.864c0,16.542,13.458,30,30,30h51.744h43.675c22.892,0,45.138-6.392,64.525-18.477
	c1.789,2.711,4.858,4.502,8.349,4.502H502c5.522,0,10-4.477,10-10v-148c0-0.065-0.008-0.128-0.01-0.192
	c0.001-0.128,0.01-0.255,0.01-0.383v-39.433c0-6.136-3.119-11.728-8.344-14.958c-5.188-3.208-11.533-3.499-16.97-0.782
	c-2.897,1.447-6.027,2.181-9.302,2.181h-1.282c-11.51,0-20.874-9.364-20.874-20.874s9.364-20.874,20.874-20.874h1.282
	c3.274,0,6.404,0.734,9.302,2.181c5.438,2.717,11.782,2.425,16.97-0.782c5.225-3.23,8.344-8.822,8.344-14.958v-39.381
	C512,177.268,502.232,165.016,488.934,161.224z M442.151,160.003v-20h18.206c5.967,0,10.821,4.486,10.821,10s-4.854,10-10.821,10
	h-6.024H442.151z M481.179,120.003h-20.821h-18.206v-20h38.746h0.281c5.967,0,10.821,4.486,10.821,10
	S487.146,120.003,481.179,120.003z M480.897,80.003h-72.565c-5.514,0-10-4.486-10-10s4.486-10,10-10h51.743h20.822
	c5.514,0,10,4.486,10,10S486.411,80.003,480.897,80.003z M409.435,20.003h50.641c5.514,0,10,4.486,10,10s-4.486,10-10,10h-51.743
	c-5.514,0-10-4.486-10-10s4.486-10,10-10C408.333,20.003,409.435,20.003,409.435,20.003z M365.76,20.003h14.292
	c-1.11,3.13-1.72,6.494-1.72,10c0,7.678,2.902,14.688,7.664,20c-4.761,5.312-7.664,12.322-7.664,20
	c0,11.903,6.968,22.208,17.04,27.053c-4.715,5.513-8.232,12.114-10.086,19.429c-9.28-11.54-22.002-19.973-36.705-24.021
	c-5.327-1.462-10.83,1.663-12.296,6.988s1.663,10.83,6.987,12.295c15.292,4.209,27.606,15.001,33.785,29.609l3.168,7.49
	c1.7,4.023,5.814,6.483,10.165,6.059c4.348-0.417,7.922-3.607,8.827-7.88l5.205-24.555c2.036-9.604,8.917-17.266,17.729-20.624
	v64.651c0,12.466-10.143,22.608-22.608,22.608h-13.21c-23.194,0-45.523-6.992-64.575-20.22l-18.872-13.103V41.233l7.078-4.623
	C326.599,25.746,345.893,20.003,365.76,20.003z M284.896,301.242h1.282c5.069,0,9.969-0.903,14.615-2.69v31.471h-81.68
	c-3.045,0-5.767,1.366-7.601,3.512l-2.495-1.732c1.432-3.671,2.188-7.61,2.188-11.569v-39.432c0-6.136-3.119-11.728-8.343-14.958
	c-5.188-3.208-11.531-3.5-16.972-0.782c-2.896,1.447-6.025,2.181-9.301,2.181h-1.282c-11.51,0-20.873-9.364-20.873-20.874
	s9.363-20.874,20.873-20.874h1.282c3.274,0,6.404,0.734,9.302,2.181c5.438,2.716,11.781,2.426,16.97-0.782
	c5.225-3.23,8.344-8.822,8.344-14.958v-29.957h81.68c3.045,0,5.767-1.366,7.602-3.513l2.495,1.733
	c-1.431,3.653-2.189,7.553-2.189,11.569v30.418c-4.647-1.788-9.547-2.691-14.615-2.691h-1.282
	c-22.538,0-40.874,18.336-40.874,40.875C244.022,282.906,262.358,301.242,284.896,301.242z M282.886,33.978v128H255.99V94.337
	c0-5.523-4.478-10-10-10s-10,4.477-10,10v67.641h-26.601c-4.367-12.329-16.139-21.188-29.945-21.188H142.96
	c2.311-5.201,3.519-10.866,3.519-16.601v-1.282c0-22.538-18.336-40.874-40.874-40.874s-40.874,18.336-40.874,40.874v1.282
	c0,5.735,1.207,11.399,3.518,16.601H31.764c-4.155,0-8.123,0.81-11.764,2.268V33.978H282.886z M20,284.603
	c4.647,1.788,9.547,2.691,14.615,2.691h1.282c22.538,0,40.874-18.336,40.874-40.874s-18.336-40.874-40.874-40.874h-1.282
	c-5.068,0-9.968,0.903-14.615,2.691v-35.682c0-6.486,5.277-11.764,11.764-11.764H72.23c6.254,0,12.087-3.367,15.222-8.788
	c3.16-5.463,3.173-11.982,0.035-17.437c-1.805-3.137-2.758-6.725-2.758-10.376v-1.282c0-11.51,9.364-20.874,20.874-20.874
	s20.874,9.364,20.874,20.874v1.282c0,3.65-0.954,7.238-2.758,10.375c-3.139,5.456-3.126,11.974,0.034,17.438
	c3.136,5.42,8.968,8.788,15.223,8.788h40.467c6.486,0,11.763,5.277,11.763,11.764v35.63c-4.647-1.788-9.547-2.691-14.615-2.691
	h-1.282c-22.537,0-40.873,18.336-40.873,40.875c0,22.538,18.336,40.874,40.873,40.874h1.282c5.069,0,9.969-0.903,14.615-2.69v35.596
	c-19.96-11.307-42.378-17.253-65.539-17.253h-13.21c-18.774,0-34.74,12.211-40.402,29.103H51.644h-19.88
	c-6.486,0-11.764-5.277-11.764-11.763C20,320.236,20,284.603,20,284.603z M40.821,361.997c0-5.514,4.854-10,10.822-10h18.205v20
	H51.644C45.676,371.997,40.821,367.511,40.821,361.997z M30.821,391.997h39.027v20H30.821c-5.967,0-10.821-4.486-10.821-10
	S24.854,391.997,30.821,391.997z M30,431.997h0.821h71.744c5.514,0,10,4.486,10,10s-4.486,10-10,10H50.821H30
	c-5.514,0-10-4.486-10-10S24.486,431.997,30,431.997z M40.821,481.997c0-5.514,4.486-10,10-10h51.744c5.514,0,10,4.486,10,10
	s-4.486,10-10,10H50.821C45.308,491.997,40.821,487.511,40.821,481.997z M146.24,491.997h-15.395c1.11-3.13,1.72-6.494,1.72-10
	c0-7.678-2.902-14.688-7.664-20c4.761-5.312,7.664-12.322,7.664-20c0-11.6-6.622-21.676-16.28-26.665
	c4.885-5.591,8.531-12.327,10.43-19.816c9.28,11.54,22.002,19.972,36.705,24.02c5.327,1.463,10.829-1.663,12.296-6.988
	c1.466-5.325-1.663-10.83-6.987-12.295c-15.292-4.209-27.606-15.001-33.785-29.609l-3.168-7.49c-1.7-4.022-5.813-6.474-10.165-6.059
	c-4.348,0.417-7.922,3.607-8.827,7.88l-5.206,24.555c-2.035,9.604-8.916,17.266-17.729,20.624v-64.651
	c0-12.466,10.143-22.608,22.608-22.608h13.21c23.194,0,45.524,6.992,64.576,20.22l18.871,13.103v114.55l-7.078,4.623
	C185.401,486.254,166.108,491.997,146.24,491.997z M229.114,478.022v-128h28v67.642c0,5.523,4.478,10,10,10s10-4.477,10-10v-67.642
	h25.497c4.367,12.329,16.139,21.188,29.946,21.188h36.484c-2.311,5.201-3.519,10.866-3.519,16.601v1.282
	c0,22.538,18.336,40.874,40.874,40.874s40.874-18.336,40.874-40.874v-1.282c0-5.735-1.208-11.4-3.518-16.601h36.483
	c4.155,0,8.123-0.81,11.764-2.268v109.08L229.114,478.022L229.114,478.022z M492,227.397c-4.647-1.788-9.547-2.691-14.615-2.691
	h-1.282c-22.538,0-40.874,18.336-40.874,40.874s18.336,40.874,40.874,40.874h1.282c5.068,0,9.968-0.903,14.615-2.691v35.683
	c0,6.486-5.277,11.763-11.764,11.763H439.77c-6.254,0-12.086,3.367-15.222,8.788c-3.16,5.464-3.173,11.983-0.034,17.438
	c1.804,3.136,2.757,6.724,2.757,10.375v1.282c0,11.51-9.364,20.874-20.874,20.874s-20.874-9.364-20.874-20.874v-1.282
	c0-3.65,0.954-7.238,2.758-10.375c3.139-5.456,3.126-11.975-0.034-17.438c-3.136-5.42-8.969-8.788-15.223-8.788h-40.467
	c-6.486,0-11.763-5.277-11.763-11.763v-44.645c0-6.136-3.119-11.728-8.343-14.958c-5.188-3.207-11.531-3.5-16.972-0.782
	c-2.896,1.447-6.025,2.181-9.301,2.181h-1.282c-11.51,0-20.874-9.364-20.874-20.874s9.364-20.874,20.874-20.874h1.282
	c3.274,0,6.404,0.734,9.302,2.181c5.438,2.717,11.781,2.425,16.97-0.782c5.225-3.23,8.344-8.822,8.344-14.958v-34.082
	c19.959,11.307,42.378,17.254,65.539,17.254h13.21c18.774,0,34.74-12.211,40.402-29.103h40.292c6.486,0,11.764,5.277,11.764,11.763
	v35.63H492z"/>
<path d="M267.109,442.843c-2.63,0-5.21,1.07-7.069,2.93c-1.86,1.86-2.931,4.44-2.931,7.07s1.07,5.21,2.931,7.07
	c1.87,1.86,4.439,2.93,7.069,2.93c2.631,0,5.21-1.07,7.08-2.93c1.86-1.86,2.92-4.44,2.92-7.07s-1.06-5.21-2.92-7.07
	C272.319,443.913,269.74,442.843,267.109,442.843z"/>
<g>
</g>
<g>
</g>
<g>
</g>
<g>
</g>
<g>
</g>
<g>
</g>
<g>
</g>
<g>
</g>
<g>
</g>
<g>
</g>
<g>
</g>
<g>
</g>
<g>
</g>
<g>
</g>
<g>
</g>
</svg>
