<svg id="Capa_1" enable-background="new 0 0 512 512" height="512" viewBox="0 0 512 512" width="512" xmlns="http://www.w3.org/2000/svg"><g><g><path clip-rule="evenodd" d="m133.298 248.603c-38.217 12.628-81.749-.45-106.131-35.071-29.836-42.355-19.684-100.881 22.667-130.721s100.872-19.687 130.709 22.668c24.381 34.593 22.075 80.014-2.7 111.738l8.38 59.173z" fill="#b8ecbc" fill-rule="evenodd"/></g><g><path clip-rule="evenodd" d="m284.705 133.181c29.668 20.221 66.029 27.843 121.147 28.631 15.636-8.015 42.295-20.953 37.655-106.225-82.424 35.099-157.565-26.69-182.452 29.502-25.731 14.034-25.731 43.733-25.731 76.723 20.472-6.356 33.633-11.784 49.381-28.631z" fill="#cdc0c4" fill-rule="evenodd"/></g><g><path clip-rule="evenodd" d="m325.818 456.414h148.004c25.366 0 31.918-8.409 26.153-34.368-9.618-43.424-28.431-89.857-86.305-111.541l-48.116 73.826-44.882-49.021-44.882 49.021-48.116-73.826c-57.902 21.684-76.715 68.117-86.305 111.541-5.765 25.959.787 34.368 26.153 34.368h61.558 48.369.056z" fill="#a0c8ff" fill-rule="evenodd"/></g><g><path clip-rule="evenodd" d="m275.79 384.331 44.882-49.021-54.021-34.508c-14.679 2.137-27.587 5.456-38.976 9.703z" fill="#e7f9e9" fill-rule="evenodd"/></g><g><path clip-rule="evenodd" d="m365.554 384.331 48.116-73.826c-11.389-4.247-24.325-7.565-38.976-9.703l-54.021 34.508z" fill="#e7f9e9" fill-rule="evenodd"/></g><g><path clip-rule="evenodd" d="m320.672 335.31 54.021-34.508v-50.483c-17.407 16.762-38.639 28.631-54.106 28.631-15.411 0-36.558-11.812-53.937-28.462v50.314z" fill="#ffdcd5" fill-rule="evenodd"/></g><g><path clip-rule="evenodd" d="m374.693 250.319c17.52-16.846 31.159-38.615 31.159-58.189v-30.318c-55.118-.787-91.479-8.409-121.147-28.631-15.748 16.846-28.909 22.274-49.381 28.631v30.318c0 19.631 13.723 41.483 31.327 58.358 17.379 16.65 38.526 28.462 53.937 28.462 15.466-.001 36.698-11.869 54.105-28.631z" fill="#ffdcd5" fill-rule="evenodd"/></g><g><path d="m181.535 285.32c1.473.774 3.083 1.156 4.687 1.156 2.043 0 4.079-.62 5.812-1.842 3.094-2.181 4.706-5.91 4.175-9.658l-7.798-55.061c11.823-16.577 18.644-36.709 19.296-57.171.722-22.678-5.821-44.489-18.919-63.074-15.982-22.687-39.842-37.794-67.184-42.536-27.343-4.742-54.895 1.448-77.58 17.432-46.831 32.997-58.092 97.942-25.103 144.774 13.096 18.596 31.436 32.099 53.035 39.048 19.479 6.267 40.731 6.621 60.326 1.074zm-146.122-77.596c-26.585-37.74-17.51-90.077 20.23-116.669 18.281-12.88 40.484-17.867 62.514-14.046 22.034 3.822 41.261 15.995 54.142 34.28 21.079 29.909 20.09 70.915-2.406 99.72-1.685 2.159-2.421 4.91-2.037 7.622l5.619 39.675-35.488-18.633c-1.461-.766-3.071-1.156-4.688-1.156-1.065 0-2.133.169-3.164.51-35.265 11.652-73.33-.927-94.722-31.303z"/><path d="m101.803 95.646c-16.912 0-30.67 13.76-30.67 30.673v3.994c0 5.57 4.515 10.086 10.085 10.086s10.085-4.516 10.085-10.086v-3.994c0-5.692 4.808-10.501 10.499-10.501s10.499 4.809 10.499 10.501v3.994c0 1.546-3.251 5.43-5.403 8.001-4.772 5.701-10.71 12.796-10.71 22.514v12.599c0 5.57 4.515 10.086 10.085 10.086s10.085-4.515 10.085-10.086v-12.599c0-2.39 3.192-6.203 6.007-9.567 4.503-5.379 10.106-12.074 10.106-20.947v-3.994c.002-16.914-13.757-30.674-30.668-30.674z"/><path d="m106.301 201.872c-5.57 0-10.085 4.515-10.085 10.086v.028c0 5.57 4.515 10.072 10.085 10.072s10.085-4.529 10.085-10.1c.001-5.571-4.515-10.086-10.085-10.086z"/><path d="m509.822 419.867c-11.307-51.093-35.843-111.203-125.043-127.624v-37.723c19.846-20.182 31.158-42.744 31.158-62.39v-24.236c7.937-4.43 17.783-11.43 25.448-25.856 10.331-19.446 14.32-47.904 12.192-87-.179-3.284-1.948-6.275-4.74-8.013-2.791-1.739-6.254-2.007-9.282-.718-35.998 15.329-70.617 10.869-101.159 6.935-18.708-2.41-34.866-4.49-49.329-1.936-16.494 2.914-28.233 11.645-35.795 26.65-28.034 17.47-28.035 51.201-28.035 83.856v30.318c0 19.702 11.377 42.336 31.327 62.562v37.551c-89.201 16.421-113.737 76.53-125.043 127.617-2.527 11.38-4.404 25.718 3.576 35.664 7.806 9.729 21.427 10.977 32.424 10.977h61.557c5.57 0 10.085-4.516 10.085-10.086s-4.515-10.086-10.085-10.086h-61.557c-12.129 0-15.663-2.148-16.69-3.428-1.1-1.372-2.515-5.621.384-18.675 8.654-39.104 24.569-79.932 72.578-101.202l43.546 66.815c1.702 2.612 4.516 4.29 7.624 4.545.276.023.552.034.826.034 2.816 0 5.519-1.18 7.438-3.275l37.443-40.896 37.444 40.896c1.918 2.096 4.622 3.275 7.438 3.275.274 0 .55-.011.826-.034 3.108-.255 5.922-1.933 7.624-4.545l43.546-66.815c48.009 21.27 63.925 62.099 72.579 101.209 2.898 13.047 1.484 17.296.383 18.667-1.027 1.28-4.561 3.428-16.69 3.428h-148.002c-5.57 0-10.085 4.515-10.085 10.086 0 5.57 4.516 10.086 10.085 10.086h148.004c10.996 0 24.618-1.248 32.424-10.977 7.98-9.946 6.102-24.284 3.576-35.656zm-243.939-325.924c1.95-1.063 3.493-2.74 4.392-4.77 9.777-22.074 28.174-20.739 65.544-15.925 27.975 3.604 62.037 7.99 98.1-3.38.412 27.929-3.058 48.983-10.348 62.704-5.904 11.112-13.304 15.582-20.086 19.113-53.775-.988-86.656-8.814-113.101-26.839-1.728-1.178-3.708-1.752-5.676-1.752-2.713 0-5.403 1.092-7.371 3.198-10.315 11.033-19.061 16.566-31.82 21.422.539-27.058 3.628-44.641 20.366-53.771zm-20.474 98.187v-22.958c14.706-4.889 27.249-10.54 40.694-23.118 27.278 16.411 60.234 24.086 109.663 25.619v20.457c0 14.927-10.437 33.91-27.919 50.78-16.086 15.524-35.078 25.953-47.26 25.953s-31.174-10.43-47.26-25.953c-17.481-16.87-27.918-35.853-27.918-50.78zm31.727 175.795-33.831-51.907c6.555-1.866 13.581-3.434 21.125-4.667l40.699 25.999zm-.4-72.648v-23.404c15.389 10.847 31.155 17.163 43.852 17.163 12.743 0 28.578-6.363 44.02-17.284v23.525l-43.936 28.066zm87.472 72.649-27.994-30.576 40.7-25.999c7.544 1.233 14.571 2.801 21.125 4.667z"/><path d="m277.449 446.328c-5.57 0-10.085 4.515-10.085 10.086 0 5.57 4.515 10.086 10.085 10.086h.057c5.57 0 10.057-4.515 10.057-10.086s-4.544-10.086-10.114-10.086z"/></g></g></svg>