<?xml version="1.0" encoding="iso-8859-1"?>
<!-- Generator: Adobe Illustrator 19.0.0, SVG Export Plug-In . SVG Version: 6.00 Build 0)  -->
<svg version="1.1" id="Capa_1" xmlns="http://www.w3.org/2000/svg" xmlns:xlink="http://www.w3.org/1999/xlink" x="0px" y="0px"
	 viewBox="0 0 509.092 509.092" style="enable-background:new 0 0 509.092 509.092;" xml:space="preserve">
<path style="fill:#FDCD3B;" d="M42.897,125.378l339.408,339.408c3.128,3.128,8.192,3.128,11.312,0l50.912-50.912
	c3.128-3.128,3.128-8.192,0-11.312L105.121,63.154c-3.128-3.128-8.192-3.128-11.312,0l-50.912,50.912
	C39.777,117.194,39.777,122.258,42.897,125.378z"/>
<polygon style="fill:#D1E5F1;" points="190.465,26.386 173.489,43.354 193.289,80.13 198.945,85.786 232.889,51.842 227.233,46.186 
	"/>
<rect x="296.585" y="25.451" transform="matrix(-0.7071 0.7071 -0.7071 -0.7071 669.919 69.4097)" style="fill:#21A9F6;" width="48" height="295.997"/>
<rect x="417.717" y="274.608" transform="matrix(-0.7071 0.7071 -0.7071 -0.7071 943.0643 182.5865)" style="fill:#D1E5F1;" width="32" height="24"/>
<path style="fill:#21A9F6;" d="M459.161,278.114l-33.944,33.944l39.6,39.6c3.128,3.128,8.192,3.128,11.312,0l22.624-22.624
	c3.128-3.128,3.128-8.192,0-11.312L459.161,278.114z"/>
<polygon style="fill:#FA5419;" points="13.657,195.194 8.001,200.85 56.081,277.218 231.449,452.578 265.385,418.634 
	90.025,243.274 "/>
<path style="fill:#F2F2F2;" d="M265.385,418.634l-33.944,33.944l45.256,45.256c3.128,3.128,8.192,3.128,11.312,0l22.624-22.624
	c3.128-3.128,3.128-8.192,0-11.312L265.385,418.634z"/>
<polygon style="fill:#344A5D;" points="13.657,195.194 8.001,200.85 34.225,242.506 55.313,221.418 "/>
<polygon style="fill:#FDBBA3;" points="34.225,242.506 53.009,272.33 78.713,265.898 85.137,240.194 55.313,221.418 "/>
<path d="M110.777,57.498c-6.232-6.24-16.392-6.24-22.624,0L37.241,108.41c-3.024,3.024-4.688,7.04-4.688,11.312
	c0,4.28,1.664,8.296,4.688,11.312L376.657,470.45c3.12,3.112,7.216,4.672,11.312,4.672s8.192-1.56,11.312-4.672l50.912-50.912
	c3.024-3.024,4.688-7.04,4.688-11.312s-1.664-8.288-4.688-11.312L110.777,57.498z M387.969,459.138L48.553,119.722L99.465,68.81
	l28.28,28.28l-22.624,22.624l11.312,11.312l22.624-22.624l22.632,22.632l-11.312,11.312l11.312,11.312l11.312-11.312l22.624,22.624
	l-22.624,22.632l11.312,11.312l22.624-22.632l22.632,22.632l-11.312,11.312l11.312,11.312l11.312-11.312l22.624,22.624
	l-22.624,22.632l11.312,11.312l22.624-22.632l22.632,22.632l-11.312,11.312l11.312,11.312l11.312-11.312l22.624,22.624
	l-22.624,22.632l11.312,11.312l22.624-22.632l22.632,22.632l-11.312,11.312l11.312,11.312l11.312-11.312l22.624,22.624
	l-22.624,22.632l11.312,11.312l22.624-22.632l28.288,28.288L387.969,459.138z"/>
<rect x="379.947" y="417.178" transform="matrix(-0.7071 0.7071 -0.7071 -0.7071 962.9136 451.5033)" width="16" height="16"/>
<path d="M504.417,312.058l-39.6-39.6c-3.128-3.128-8.184-3.128-11.312,0l-5.656-5.656l0,0c1.504-1.504,2.344-3.536,2.344-5.656
	s-0.84-4.16-2.344-5.656l-8-8l16.968-16.976c3.128-3.128,3.128-8.184,0-11.312l-73.536-73.536l-11.312,11.312l67.88,67.88
	l-11.312,11.312L238.545,46.186l-5.656-5.656c-0.544-0.552-1.176-1.024-1.864-1.392l-36.776-19.8
	c-3.104-1.672-6.944-1.112-9.448,1.384l-2.824,2.824L159.353,0.914l-11.312,11.312l22.624,22.632l-2.832,2.832
	c-2.496,2.496-3.064,6.336-1.392,9.448l19.8,36.768c0.376,0.68,0.832,1.312,1.392,1.864l5.656,5.656l209.304,209.32
	c1.56,1.56,3.608,2.344,5.656,2.344s4.096-0.784,5.656-2.344l0,0l5.664,5.656c-3.12,3.128-3.12,8.184,0,11.312l39.592,39.608
	c3.12,3.112,7.216,4.672,11.312,4.672s8.192-1.56,11.312-4.672l22.64-22.64C510.649,328.442,510.649,318.29,504.417,312.058z
	 M183.361,44.802l8.544-8.552l29.424,15.832l-11.064,11.064l-11.072,11.072L183.361,44.802z M210.257,85.786l11.312-11.312
	l11.32-11.312l197.992,197.992l-22.632,22.632L210.257,85.786z M430.881,283.77l5.664-5.656l5.656,5.664l-11.312,11.312
	l-5.664-5.656L430.881,283.77z M470.473,346.002l-33.936-33.944l22.624-22.624l33.944,33.944L470.473,346.002z"/>
<path d="M271.049,412.978L95.681,237.618c-0.424-0.424-0.888-0.8-1.392-1.112l-4.864-3.064c-0.008,0-0.008-0.008-0.016-0.016
	L59.577,214.65l-41.656-26.224c-3.16-1.992-7.272-1.528-9.92,1.112l-5.656,5.656c-2.64,2.64-3.104,6.76-1.12,9.92l26.224,41.656
	l18.784,29.832c0,0,0,0,0.008,0.008l3.072,4.88c0.32,0.504,0.696,0.976,1.12,1.392l175.36,175.36l45.256,45.256
	c3.12,3.12,7.216,4.68,11.312,4.68s8.192-1.56,11.312-4.68l22.624-22.632c6.24-6.24,6.24-16.384,0-22.624L271.049,412.978z
	 M254.073,418.634l-11.312,11.312l-11.32,11.312l-164.24-164.24l13.44-3.36c2.864-0.72,5.112-2.952,5.824-5.824l3.36-13.44
	L254.073,418.634z M42.569,222.85l-3.456,3.456l-3.456,3.456l-11.752-18.656L42.569,222.85z M44.401,243.642l6.024-6.024
	l6.024-6.024l19.52,12.296l-3.856,15.408l-15.432,3.856l-2.184-3.472L44.401,243.642z M282.361,492.178l-16.968-16.968
	l16.968-16.968l-11.312-11.312l-16.976,16.976l-11.32-11.312l11.312-11.312l11.32-11.312l39.592,39.6L282.361,492.178z"/>
<g>
</g>
<g>
</g>
<g>
</g>
<g>
</g>
<g>
</g>
<g>
</g>
<g>
</g>
<g>
</g>
<g>
</g>
<g>
</g>
<g>
</g>
<g>
</g>
<g>
</g>
<g>
</g>
<g>
</g>
</svg>
