<?xml version="1.0"?>
<svg xmlns="http://www.w3.org/2000/svg" xmlns:xlink="http://www.w3.org/1999/xlink" version="1.1" id="Capa_1" x="0px" y="0px" viewBox="0 0 511.998 511.998" style="enable-background:new 0 0 511.998 511.998;" xml:space="preserve" width="512px" height="512px" class=""><g transform="matrix(0.509986 0 0 0.509986 125.443 125.443)"><rect x="122.895" y="104.99" transform="matrix(-0.7071 0.7071 -0.7071 -0.7071 340.4769 141.3287)" style="fill:#126099;" width="36.147" height="72.379" data-original="#126099" class=""/><path style="fill:#FFA230;" d="M119.594,188.039c-14.126,0-25.576-11.449-25.576-25.576v-4.007  c-0.017-8.184,3.879-15.891,10.486-20.716l37.341-27.11c31.194-24.05,39.881-67.409,20.375-101.621L8.766,102.787v400.686h383.636  V188.039H119.594z" data-original="#FFA230" class=""/><path style="fill:#FA962A;" d="M8.766,461.699v41.774h383.636V211.825C302.034,365.449,114.479,434.078,8.766,461.699z" data-original="#FA962A"/><g>
	
		<rect x="336.705" y="127.33" transform="matrix(-0.7071 0.7071 -0.7071 -0.7071 729.0525 -11.1778)" style="fill:#126099;" width="60.273" height="36.147" data-original="#126099" class=""/>
	<path style="fill:#126099;" d="M255.998,102.787c-28.253,0-51.151-22.899-51.151-51.151s22.899-51.151,51.151-51.151   c28.253,0,51.151,22.899,51.151,51.151S284.25,102.787,255.998,102.787z M255.998,17.535c-18.832,0-34.101,15.269-34.101,34.101   s15.269,34.101,34.101,34.101c18.832,0,34.101-15.269,34.101-34.101S274.83,17.535,255.998,17.535z" data-original="#126099" class=""/>
</g><g>
	<polygon style="fill:#4398D1;" points="281.573,43.11 230.422,43.11 230.422,60.161 247.473,60.161 247.473,128.363    264.523,128.363 264.523,60.161 281.573,60.161  " data-original="#4398D1"/>
	<circle style="fill:#4398D1;" cx="256.015" cy="273.317" r="161.979" data-original="#4398D1"/>
</g><path style="fill:#3E8CC7;" d="M378.505,167.494C328.974,282.84,228.376,347.205,136.644,382.841  c61.288,65.167,163.804,68.304,228.962,7.016C428.276,330.922,433.936,233.283,378.505,167.494z" data-original="#3E8CC7"/><path style="fill:#DE4C3C;" d="M323.262,157.775l-15.175-7.673l-53.112,106.139c-9.403,0.563-16.565,8.645-15.993,18.039  c0.563,9.403,8.645,16.565,18.039,15.993c8.994-0.537,16.01-7.98,16.027-16.991c0-3.333-0.98-6.59-2.813-9.378L323.262,157.775z" data-original="#DE4C3C"/><g>
	<rect x="247.49" y="136.914" style="fill:#126099;" width="17.05" height="17.05" data-original="#126099" class=""/>
	<rect x="247.49" y="392.671" style="fill:#126099;" width="17.05" height="17.05" data-original="#126099" class=""/>
	
		<rect x="183.554" y="154.058" transform="matrix(-0.8661 0.4998 -0.4998 -0.8661 439.7068 207.3971)" style="fill:#126099;" width="17.05" height="17.05" data-original="#126099" class=""/>
	
		<rect x="136.749" y="200.817" transform="matrix(-0.4998 0.8661 -0.8661 -0.4998 399.2024 188.1478)" style="fill:#126099;" width="17.05" height="17.05" data-original="#126099" class=""/>
	<rect x="119.611" y="264.792" style="fill:#126099;" width="17.05" height="17.05" data-original="#126099" class=""/>
	
		<rect x="136.728" y="328.795" transform="matrix(-0.8661 0.4998 -0.4998 -0.8661 439.2621 556.9902)" style="fill:#126099;" width="16.624" height="17.05" data-original="#126099" class=""/>
	
		<rect x="183.6" y="375.536" transform="matrix(-0.4998 0.8661 -0.8661 -0.4998 620.7998 409.6167)" style="fill:#126099;" width="17.05" height="17.05" data-original="#126099" class=""/>
</g><g>
	<path style="fill:#FDB62F;" d="M324.2,418.221h76.727c23.538,0,42.626,19.088,42.626,42.626l0,0   c0,23.538-19.088,42.626-42.626,42.626H324.2c-23.538,0-42.626-19.088-42.626-42.626l0,0   C281.573,437.309,300.661,418.221,324.2,418.221z" data-original="#FDB62F"/>
	<path style="fill:#FDB62F;" d="M358.301,332.968h76.727c23.538,0,42.626,19.088,42.626,42.626l0,0   c0,23.538-19.088,42.626-42.626,42.626h-76.727c-23.538,0-42.626-19.088-42.626-42.626l0,0   C315.674,352.056,334.762,332.968,358.301,332.968z" data-original="#FDB62F"/>
	<path style="fill:#FDB62F;" d="M383.876,247.716h76.727c23.538,0,42.626,19.088,42.626,42.626l0,0   c0,23.538-19.088,42.626-42.626,42.626h-76.727c-23.538,0-42.626-19.088-42.626-42.626l0,0   C341.25,266.804,360.338,247.716,383.876,247.716z" data-original="#FDB62F"/>
</g><path id="SVGCleanerId_0" style="fill:#FDB62F;" d="M383.876,162.464h76.727c23.538,0,42.626,19.088,42.626,42.626l0,0  c0,23.538-19.088,42.626-42.626,42.626h-76.727c-23.538,0-42.626-19.088-42.626-42.626l0,0  C341.25,181.552,360.338,162.464,383.876,162.464z" data-original="#FDB62F"/><g>
	<path id="SVGCleanerId_0_1_" style="fill:#FDB62F;" d="M383.876,162.464h76.727c23.538,0,42.626,19.088,42.626,42.626l0,0   c0,23.538-19.088,42.626-42.626,42.626h-76.727c-23.538,0-42.626-19.088-42.626-42.626l0,0   C341.25,181.552,360.338,162.464,383.876,162.464z" data-original="#FDB62F"/>
</g><g>
	<path style="fill:#FFA230;" d="M344.831,222.14c6.778,15.524,22.106,25.567,39.046,25.576h76.727   c16.94-0.009,32.268-10.051,39.046-25.576H344.831z" data-original="#FFA230" class=""/>
	<path style="fill:#FFA230;" d="M344.831,307.393c6.778,15.524,22.106,25.567,39.046,25.576h76.727   c16.94-0.009,32.268-10.051,39.046-25.576H344.831z" data-original="#FFA230" class=""/>
	<path style="fill:#FFA230;" d="M319.255,392.645c6.778,15.524,22.106,25.567,39.046,25.576h76.727   c16.94-0.009,32.268-10.051,39.046-25.576H319.255z" data-original="#FFA230" class=""/>
	<path style="fill:#FFA230;" d="M285.154,477.897c6.778,15.524,22.106,25.567,39.046,25.576h76.727   c16.94-0.009,32.268-10.051,39.046-25.576H285.154z" data-original="#FFA230" class=""/>
</g><path d="M254.975,256.241c-9.403,0.563-16.565,8.645-15.993,18.039c0.563,9.403,8.645,16.565,18.039,15.993  c8.994-0.537,16.01-7.98,16.027-16.991c0-3.333-0.98-6.59-2.813-9.378l53.027-106.139l-15.175-7.673L254.975,256.241z" data-original="#000000"/><rect x="247.49" y="136.914" width="17.05" height="17.05" data-original="#000000"/><rect x="247.49" y="392.671" width="17.05" height="17.05" data-original="#000000"/><rect x="183.554" y="154.058" transform="matrix(-0.8661 0.4998 -0.4998 -0.8661 439.7068 207.3971)" width="17.05" height="17.05" data-original="#000000"/><rect x="136.749" y="200.817" transform="matrix(-0.4998 0.8661 -0.8661 -0.4998 399.2024 188.1478)" width="17.05" height="17.05" data-original="#000000"/><rect x="119.611" y="264.792" width="17.05" height="17.05" data-original="#000000"/><rect x="136.728" y="328.795" transform="matrix(-0.8661 0.4998 -0.4998 -0.8661 439.2621 556.9902)" width="16.624" height="17.05" data-original="#000000"/><rect x="183.6" y="375.536" transform="matrix(-0.4998 0.8661 -0.8661 -0.4998 620.7998 409.6167)" width="17.05" height="17.05" data-original="#000000"/><path d="M511.755,205.09c0-28.253-22.899-51.151-51.151-51.151h-64.707l11.083-10.998c3.342-3.316,3.367-8.713,0.051-12.055  c-0.017-0.017-0.034-0.034-0.051-0.051l-25.576-25.576c-3.316-3.342-8.713-3.367-12.055-0.051c-0.017,0.017-0.034,0.034-0.051,0.051  l-23.444,23.103c-24.519-15.26-52.498-24.058-81.331-25.576v-1.194c27.852-4.706,46.616-31.109,41.91-58.961  c-4.706-27.852-31.109-46.616-58.961-41.91s-46.616,31.109-41.91,58.961c3.632,21.467,20.444,38.278,41.91,41.91v1.194  c-28.883,1.407-56.914,10.213-81.416,25.576l-14.834-14.919c31.015-27.349,38.688-72.661,18.415-108.697  c-2.361-4.075-7.579-5.465-11.654-3.103c-0.068,0.043-0.136,0.077-0.196,0.119L4.333,95.541c-2.532,1.543-4.084,4.288-4.092,7.246  v400.686c0,4.706,3.819,8.525,8.525,8.525h392.161c28.253,0,51.151-22.899,51.151-51.151c-0.017-12.626-4.766-24.791-13.299-34.101  c28.167-2.148,49.267-26.718,47.119-54.894c-0.895-11.799-5.857-22.924-14.041-31.467c27.554-6.215,44.851-33.598,38.636-61.16  c-2.899-12.83-10.631-24.058-21.586-31.339C503.238,238.372,511.823,222.294,511.755,205.09z M355.658,247.716  c-23.513,15.661-29.872,47.417-14.203,70.93c1.679,2.523,3.581,4.893,5.678,7.076c-23.351,5.226-39.966,25.942-39.983,49.873  c0.017,12.626,4.766,24.791,13.299,34.101c-11.304,0.921-21.978,5.567-30.35,13.214c-11.185,2.566-22.626,3.853-34.101,3.836  c-84.749,0-153.454-68.705-153.454-153.454s68.705-153.454,153.454-153.454c38.355-0.102,75.32,14.297,103.496,40.324  c-24.817,13.504-33.99,44.561-20.486,69.378C342.998,236.863,348.71,243.104,355.658,247.716z M102.544,162.464v-4.007  c0.034-4.74,2.046-9.25,5.541-12.447l17.562,17.562c-4.041,4.8-7.826,9.804-11.339,15.004  C107.326,176.3,102.586,169.804,102.544,162.464z M375.351,123.333l13.555,13.555l-14.322,14.237  c-4.595-4.45-9.429-8.628-14.493-12.532L375.351,123.333z M221.897,51.636c-0.06-18.832,15.158-34.152,33.99-34.212  c18.832-0.06,34.152,15.158,34.212,33.99c0.051,15.593-10.478,29.233-25.576,33.129V60.161h17.05V43.11h-51.151v17.05h17.05v24.382  C232.46,80.664,221.948,67.143,221.897,51.636z M137.327,151.125l-15.431-15.431l15.686-11.424l14.237,14.322  C146.755,142.489,141.913,146.675,137.327,151.125z M17.291,107.561l141.434-86.446c11.995,29.369,2.967,63.138-22.08,82.61  l-37.255,27.11c-8.781,6.454-13.947,16.727-13.896,27.622v4.007c0.034,13.325,7.826,25.414,19.949,30.947  c-44.118,83.189-12.438,186.396,70.751,230.514c24.578,13.035,51.978,19.855,79.805,19.872c6.837,0,13.674-0.426,20.461-1.279  c-2.225,5.857-3.385,12.063-3.41,18.329c0.026,12.592,4.706,24.74,13.129,34.101H17.291V107.561z M400.927,494.948H324.2  c-18.832,0-34.101-15.269-34.101-34.101s15.269-34.101,34.101-34.101h76.727c18.832,0,34.101,15.269,34.101,34.101  S419.759,494.948,400.927,494.948z M435.028,409.695h-76.727c-18.832,0-34.101-15.269-34.101-34.101s15.269-34.101,34.101-34.101  h76.727c18.832,0,34.101,15.269,34.101,34.101S453.86,409.695,435.028,409.695z M494.704,290.342  c0,18.832-15.269,34.101-34.101,34.101h-76.727c-18.832,0-34.101-15.269-34.101-34.101c0-18.832,15.269-34.101,34.101-34.101h76.727  C479.436,256.241,494.704,271.51,494.704,290.342z M460.603,239.191h-76.727c-18.832,0-34.101-15.269-34.101-34.101  s15.269-34.101,34.101-34.101h76.727c18.832,0,34.101,15.269,34.101,34.101S479.436,239.191,460.603,239.191z" data-original="#000000"/></g> </svg>
