<?xml version="1.0" encoding="iso-8859-1"?>
<!-- Generator: Adobe Illustrator 19.0.0, SVG Export Plug-In . SVG Version: 6.00 Build 0)  -->
<svg version="1.1" id="Capa_1" xmlns="http://www.w3.org/2000/svg" xmlns:xlink="http://www.w3.org/1999/xlink" x="0px" y="0px"
	 viewBox="0 0 480 480" style="enable-background:new 0 0 480 480;" xml:space="preserve">
<g>
	<path style="fill:#FFDE55;" d="M64,176v232l176,64V240L64,176z"/>
	<path style="fill:#FFDE55;" d="M416,176v232l-176,64V240L416,176z"/>
</g>
<path style="fill:#EBBF00;" d="M240,200l33.944-33.944L240,200l-33.944-33.944L240,200v-88L64,176l176,64l176-64l-176-64V200z"/>
<g>
	<path style="fill:#FFCD00;" d="M16,216l176,64l48-40L64,176L16,216z"/>
	<path style="fill:#FFCD00;" d="M288,280l176-64l-48-40l-176,64L288,280z"/>
	<path style="fill:#FFCD00;" d="M288,72l-48,40l176,64l48-40L288,72z"/>
	<path style="fill:#FFCD00;" d="M192,72L16,136l48,40l176-64L192,72z"/>
</g>
<g>
	<path style="fill:#231F20;" d="M428.496,176l40.624-33.848c3.392-2.831,3.848-7.875,1.017-11.268
		c-0.907-1.087-2.086-1.914-3.417-2.396l-176-64c-2.674-0.977-5.666-0.459-7.856,1.36L248,94.92V72h-16v22.92l-34.88-29.072
		c-2.19-1.819-5.182-2.337-7.856-1.36l-176,64c-4.154,1.505-6.301,6.093-4.796,10.247c0.482,1.331,1.309,2.51,2.396,3.417
		L51.504,176L10.88,209.848c-3.392,2.831-3.848,7.875-1.017,11.268c0.907,1.087,2.086,1.914,3.417,2.396L56,239.056V408
		c0.002,3.361,2.105,6.362,5.264,7.512l176,64c1.766,0.651,3.706,0.651,5.472,0l176-64c3.159-1.15,5.262-4.151,5.264-7.512V239.056
		l42.736-15.544c4.154-1.505,6.301-6.093,4.796-10.247c-0.482-1.331-1.309-2.51-2.396-3.417L428.496,176z M289.6,81.096
		l158.592,57.672L414.4,166.904l-158.584-57.672L289.6,81.096z M232,180.688l-20.288-20.28L200.4,171.72l39.6,39.592l39.6-39.592
		l-11.312-11.312L248,180.688v-57.272L392.6,176L240,231.488L87.4,176L232,123.416V180.688z M190.4,81.096l33.776,28.136
		L65.6,166.904l-33.784-28.136L190.4,81.096z M65.6,185.096l158.592,57.672L190.4,270.904L31.816,213.232L65.6,185.096z M72,244.872
		l117.264,42.64C190.14,287.835,191.066,288,192,288c1.87,0.001,3.682-0.652,5.12-1.848L232,257.08v203.496L72,402.4L72,244.872z
		 M408,402.4l-160,58.176V257.08l34.88,29.072c1.438,1.196,3.25,1.849,5.12,1.848c0.934,0,1.86-0.165,2.736-0.488L408,244.872V402.4
		z M289.6,270.904l-33.776-28.136L414.4,185.096l33.776,28.136L289.6,270.904z"/>
	<path style="fill:#231F20;" d="M256,432c0,4.418,3.582,8,8,8c7.888,0,75.576-26.4,130.976-48.568
		c4.105-1.644,6.1-6.303,4.456-10.408c-1.644-4.105-6.303-6.1-10.408-4.456c-55.136,22.064-117.6,46.088-125.488,47.448
		C259.306,424.262,256.001,427.763,256,432z"/>
	<path style="fill:#231F20;" d="M232,0h16v16h-16V0z"/>
	<path style="fill:#231F20;" d="M232,24h16v16h-16V24z"/>
	<path style="fill:#231F20;" d="M232,48h16v16h-16V48z"/>
</g>
<g>
</g>
<g>
</g>
<g>
</g>
<g>
</g>
<g>
</g>
<g>
</g>
<g>
</g>
<g>
</g>
<g>
</g>
<g>
</g>
<g>
</g>
<g>
</g>
<g>
</g>
<g>
</g>
<g>
</g>
</svg>
