<?xml version="1.0"?>
<svg xmlns="http://www.w3.org/2000/svg" xmlns:xlink="http://www.w3.org/1999/xlink" version="1.1" id="Capa_1" x="0px" y="0px" viewBox="0 0 496 496" style="enable-background:new 0 0 496 496;" xml:space="preserve" width="512px" height="512px" class=""><g><g>
	<path style="fill:#FFCB57" d="M216,296c-8.84,0-16,7.16-16,16v144h32V312C232,303.16,224.84,296,216,296z" data-original="#FFCB57" class="active-path" data-old_color="#FF5E3A"/>
	<path style="fill:#FFCB57" d="M152,296c-8.84,0-16,7.16-16,16v144h32V312C168,303.16,160.84,296,152,296z" data-original="#FFCB57" class="active-path" data-old_color="#FF5E3A"/>
	<path style="fill:#FFCB57" d="M88,296c-8.84,0-16,7.16-16,16v144h32V312C104,303.16,96.84,296,88,296z" data-original="#FFCB57" class="active-path" data-old_color="#FF5E3A"/>
</g><path style="fill:#E74C3C" d="M432,184c-13.096,0-25.48-4.464-35.456-12.672C390.12,174.4,383.12,176,376,176  c-26.472,0-48-21.528-48-48c0-12.008,4.416-23.264,12.352-32C332.416,87.264,328,76.008,328,64c0-26.472,21.528-48,48-48  c7.168,0,14.168,1.6,20.592,4.68C407.16,7.608,422.888,0,440,0c30.88,0,56,25.128,56,56c0,15.52-6.456,30.224-17.592,40.728  C484.64,105.928,488,116.776,488,128C488,158.872,462.88,184,432,184z M398.832,151.256l4.576,4.68  C411.008,163.72,421.16,168,432,168c22.056,0,40-17.944,40-40c0-10.032-3.776-19.648-10.632-27.088l-6.248-6.768l7.584-5.24  C473.528,81.432,480,69.128,480,56c0-22.056-17.944-40-40-40c-14.104,0-26.904,7.256-34.24,19.416l-4.424,7.336l-7.016-4.92  C388.872,34.016,382.544,32,376,32c-17.648,0-32,14.352-32,32c0,10.112,4.736,19.432,13,25.584L365.616,96L357,102.416  c-8.264,6.152-13,15.472-13,25.584c0,17.648,14.352,32,32,32c6.112,0,12.112-1.792,17.336-5.176L398.832,151.256z" data-original="#E56565" class="" data-old_color="#e74c3c"/><g>
	<path style="fill:#0B0B0B" d="M288,208H16c-8.824,0-16,7.176-16,16v16c0,8.824,7.176,16,16,16h272c8.824,0,16-7.176,16-16v-16   C304,215.176,296.824,208,288,208z M16,240v-16h272l0.008,16H16z" data-original="#3F3A34" class="" data-old_color="#3F3A34"/>
	<path style="fill:#0B0B0B" d="M250.944,448H240V312c0-13.232-10.768-24-24-24s-24,10.768-24,24v136h-16V312   c0-13.232-10.768-24-24-24s-24,10.768-24,24v136h-16V312c0-13.232-10.768-24-24-24s-24,10.768-24,24v136H53.056l-13.08-176.592   l-15.952,1.184L38.928,473.76C39.84,486.232,50.36,496,62.856,496h178.28c12.496,0,23.016-9.768,23.936-22.224L279.976,272.6   l-15.952-1.184L250.944,448z M208,312c0-4.416,3.592-8,8-8s8,3.584,8,8v136h-16V312z M144,312c0-4.416,3.592-8,8-8s8,3.584,8,8v136   h-16V312z M80,312c0-4.416,3.592-8,8-8s8,3.584,8,8v136H80V312z M241.144,480H62.856c-4.168,0-7.672-3.256-7.984-7.416L54.24,464   h195.52l-0.64,8.592C248.816,476.744,245.312,480,241.144,480z" data-original="#3F3A34" class="" data-old_color="#3F3A34"/>
	<path style="fill:#0B0B0B" d="M55.824,190.32L33.52,86.256l64.568-12.912l5.056,20.232L78.4,97.384l20.624,96.272l15.648-3.36   l-17.08-79.68L186,97.016l3,12c-7.768,4.24-14.04,10.84-17.616,18.984H168c-22.056,0-40,17.944-40,40   c0,11.472,4.936,22.408,13.544,30.008l10.592-12C146.968,181.448,144,174.88,144,168c0-13.232,10.768-24,24-24h8h8   c0-13.232,10.768-24,24-24s24,10.768,24,24h8h8c13.232,0,24,10.768,24,24c0,6.88-2.96,13.448-8.128,18l10.584,12   c8.608-7.592,13.544-18.52,13.544-30c0-22.056-17.944-40-40-40h-3.392c-6.192-14.104-20.248-24-36.608-24   c-1.256,0-2.44,0.256-3.664,0.368l-6.344-25.384l-78.96,12.144l-9.12-36.48L14.48,73.744L40.176,193.68L55.824,190.32z" data-original="#3F3A34" class="" data-old_color="#3F3A34"/>
	<path style="fill:#0B0B0B" d="M360,72c0,13.232,10.768,24,24,24V80c-4.408,0-8-3.584-8-8s3.592-8,8-8V48   C370.768,48,360,58.768,360,72z" data-original="#3F3A34" class="" data-old_color="#3F3A34"/>
	<path style="fill:#0B0B0B" d="M462.624,33.376c-12.088-12.096-33.168-12.096-45.248,0l11.312,11.312   c6.048-6.048,16.576-6.048,22.624,0C454.336,47.712,456,51.728,456,56s-1.664,8.288-4.688,11.312l11.312,11.312   C468.664,72.584,472,64.544,472,56S468.664,39.416,462.624,33.376z" data-original="#3F3A34" class="" data-old_color="#3F3A34"/>
	<path style="fill:#0B0B0B" d="M416,88v16c8.824,0,16,7.176,16,16s-7.176,16-16,16v16c17.648,0,32-14.352,32-32S433.648,88,416,88z   " data-original="#3F3A34" class="" data-old_color="#3F3A34"/>
</g></g> </svg>
