<?xml version="1.0" encoding="iso-8859-1"?>
<!-- Generator: Adobe Illustrator 19.0.0, SVG Export Plug-In . SVG Version: 6.00 Build 0)  -->
<svg version="1.1" id="Capa_1" xmlns="http://www.w3.org/2000/svg" xmlns:xlink="http://www.w3.org/1999/xlink" x="0px" y="0px"
	 viewBox="0 0 511.999 511.999" style="enable-background:new 0 0 511.999 511.999;" xml:space="preserve">
<path style="fill:#B8DBFF;" d="M241.511,52.181l39.424-17.762c2.592-1.168,5.612-0.845,7.899,0.843l27.341,20.19
	c1.713,1.265,3.867,1.781,5.967,1.43l32.006-5.356c4.418-0.739,8.56,2.357,9.101,6.803l4.715,38.73
	c0.267,2.19-0.399,4.391-1.835,6.066l-40.549,47.31c-1.902,2.219-4.878,3.2-7.727,2.546l-32.209-7.39
	c-1.356-0.311-2.77-0.257-4.098,0.157l-42.273,13.182c-2.473,0.771-5.167,0.275-7.203-1.328l-37.156-29.25
	c-4.156-3.272-3.96-9.631,0.389-12.641l31.603-21.873c1.63-1.128,2.773-2.83,3.202-4.765l6.956-31.425
	C237.601,55.227,239.249,53.2,241.511,52.181z"/>
<path style="fill:#FDE27C;" d="M158.095,138.418l-85.564,15.474c-3.812,0.689-7.66-1.013-9.713-4.299L30.436,97.78
	c-3.422-5.475-0.48-12.693,5.793-14.217l25.899-6.293c2.587-0.629,4.789-2.317,6.068-4.651l16.795-30.661
	c2.156-3.935,6.778-5.817,11.069-4.506l53.261,16.27c4.535,1.385,7.346,5.912,6.576,10.591l-5.427,32.991
	c-0.374,2.274,0.094,4.606,1.316,6.559l12.649,20.214C167.989,129.756,164.686,137.226,158.095,138.418z"/>
<path style="opacity:0.1;enable-background:new    ;" d="M293.456,63.247L283.398,33.78c-0.839,0.082-1.671,0.283-2.464,0.64
	l-39.423,17.761c-2.262,1.019-3.91,3.046-4.446,5.468l-6.956,31.425c-0.428,1.935-1.572,3.637-3.202,4.765l-31.603,21.872
	c-4.349,3.01-4.545,9.369-0.389,12.641l37.156,29.25c2.036,1.603,4.73,2.099,7.203,1.328l7.831-2.442l13.76-33.825
	c0.461-1.135,1.093-2.182,1.882-3.117l25.893-30.691C294.594,81.796,296.439,71.983,293.456,63.247z"/>
<path style="opacity:0.1;enable-background:new    ;" d="M164.437,124.079l-12.649-20.214c-1.222-1.953-1.69-4.285-1.316-6.559
	l5.427-32.991c0.77-4.679-2.041-9.206-6.576-10.591l-38.209-11.672l-3.502,4.089c-5.127,5.992-7.307,13.888-5.978,21.669
	l12.564,73.456c0.288,1.681,0.74,3.3,1.319,4.854l42.579-7.7C164.686,137.226,167.989,129.756,164.437,124.079z"/>
<path style="fill:#EEF0F1;" d="M121.823,58.298l41.188-48.1c2.775-3.241,7.646-3.634,10.905-0.88l28.076,23.73
	c1.627,1.375,3.747,2.021,5.863,1.786l47.911-5.301c3.615-0.4,7.024,1.765,8.199,5.207l11.789,34.547
	c0.88,2.578,0.344,5.429-1.413,7.511l-25.89,30.688c-2.054,2.435-3.712,5.178-4.912,8.128l-19.06,46.853
	c-1.503,3.695-5.562,5.648-9.387,4.519l-77.01-22.743c-2.838-0.838-4.953-3.218-5.452-6.135l-12.564-73.456
	C119.679,62.38,120.322,60.05,121.823,58.298z"/>
<g style="opacity:0.1;">
	<path d="M88.326,137.742c-3.028,0-5.88-1.848-7.016-4.848l-7.151-18.898c-2.708-7.157-0.014-15.373,6.406-19.537l13.362-8.666
		c3.475-2.253,8.119-1.263,10.374,2.212c2.254,3.476,1.263,8.12-2.212,10.374l-13.362,8.665c-0.54,0.35-0.767,1.042-0.539,1.645
		l7.151,18.897c1.466,3.874-0.486,8.203-4.36,9.669C90.105,137.584,89.208,137.742,88.326,137.742z"/>
	<path d="M193.464,103.041c-1.278,0-2.573-0.327-3.759-1.015c-3.582-2.079-4.8-6.669-2.721-10.252L197.36,73.9
		c1.342-2.312,3.814-3.734,6.486-3.734h25.596c4.143,0,7.5,3.357,7.5,7.5c0,4.143-3.357,7.5-7.5,7.5h-21.276l-8.208,14.14
		C198.565,101.702,196.05,103.041,193.464,103.041z"/>
	<path d="M293.426,112.147c-1.42,0-2.855-0.402-4.128-1.244c-3.456-2.283-4.406-6.937-2.122-10.392l5.886-8.906
		c2.906-4.396,7.786-7.021,13.055-7.021h19.484c4.143,0,7.5,3.357,7.5,7.5s-3.357,7.5-7.5,7.5h-19.484
		c-0.219,0-0.421,0.109-0.541,0.291l-5.886,8.905C298.247,110.963,295.859,112.147,293.426,112.147z"/>
	<path d="M168.808,76.499c-1.236,0-2.489-0.306-3.645-0.95l-16.025-8.937c-3.618-2.018-4.915-6.586-2.898-10.203
		c2.019-3.619,6.586-4.914,10.203-2.898l16.025,8.937c3.618,2.018,4.915,6.586,2.898,10.203
		C173.992,75.113,171.438,76.499,168.808,76.499z"/>
</g>
<path style="fill:#5B6EA2;" d="M345.76,125.95H46.109c-13.311,0-23.746,11.437-22.527,24.694l28.712,312.172
	c2.172,23.613,21.978,41.681,45.69,41.681h195.9c23.713,0,43.519-18.068,45.69-41.681l28.712-312.172
	C369.505,137.387,359.071,125.95,345.76,125.95z"/>
<path style="fill:#B8DBFF;" d="M48.787,424.683l3.507,38.132c2.172,23.613,21.978,41.681,45.69,41.681h195.9
	c23.713,0,43.519-18.068,45.691-41.681l3.507-38.132H48.787z"/>
<path style="opacity:0.1;enable-background:new    ;" d="M146.021,125.95H46.109c-13.312,0-23.746,11.437-22.527,24.694
	l28.712,312.172c2.172,23.613,21.978,41.681,45.69,41.681h109.009C144.601,439.388,121.298,297.655,146.021,125.95z"/>
<g style="opacity:0.1;">
	<path d="M195.935,357.148c-4.143,0-7.5-3.357-7.5-7.5V191.609c0-4.143,3.357-7.5,7.5-7.5c4.143,0,7.5,3.357,7.5,7.5v158.039
		C203.436,353.791,200.077,357.148,195.935,357.148z"/>
	<path d="M120.412,357.149c-3.774,0-7.023-2.842-7.446-6.68L95.557,192.43c-0.453-4.117,2.517-7.822,6.634-8.276
		c4.129-0.447,7.822,2.518,8.276,6.634l17.408,158.039c0.453,4.117-2.517,7.822-6.634,8.276
		C120.963,357.133,120.686,357.149,120.412,357.149z"/>
	<path d="M271.457,357.149c-0.274,0-0.551-0.016-0.83-0.046c-4.117-0.454-7.087-4.159-6.634-8.276l17.408-158.039
		c0.453-4.118,4.151-7.082,8.276-6.634c4.117,0.454,7.087,4.159,6.634,8.276l-17.408,158.039
		C278.481,354.307,275.231,357.149,271.457,357.149z"/>
</g>
<path style="fill:#B8DBFF;" d="M465.804,486.251l-55.495-314.732c-1.214-6.883-7.777-11.479-14.66-10.265l-19.222,3.389
	c-6.883,1.214-11.479,7.777-10.265,14.66l55.495,314.731c1.214,6.883,7.777,11.479,14.66,10.265l19.222-3.389
	C462.422,499.699,467.017,493.134,465.804,486.251z"/>
<path style="opacity:0.1;enable-background:new    ;" d="M421.655,494.036c1.214,6.883,7.777,11.479,14.66,10.265l19.222-3.39
	c6.883-1.214,11.479-7.777,10.265-14.66l-3.435-19.478c-32.956-17.53-58.381-95.747-72.336-152.072L421.655,494.036z"/>
<path d="M495.541,360.77l-14.371-81.509c-2.273-12.893-12.477-23.015-25.389-25.182l-24.012-4.032l-14.076-79.831
	c-1.93-10.942-12.401-18.287-23.351-16.349l-19.132,3.374l0.544-5.912c0.773-8.413-2.049-16.817-7.742-23.061
	c-2.354-2.579-5.124-4.696-8.156-6.301l11.967-13.963c2.799-3.265,4.105-7.585,3.586-11.853l-4.715-38.731
	c-0.505-4.141-2.711-7.948-6.052-10.445c-3.342-2.498-7.62-3.534-11.733-2.849l-32.006,5.357c-0.094,0.018-0.193-0.008-0.274-0.065
	l-27.339-20.187c-4.464-3.297-10.377-3.929-15.436-1.649l-7.36,3.316c-2.713-5.974-8.885-9.556-15.552-8.818l-47.911,5.302
	c-0.067,0.011-0.141-0.014-0.197-0.062L178.758,3.591c-6.385-5.396-16.004-4.623-21.445,1.729l-29.187,34.086L98.252,30.28
	c-7.649-2.34-15.993,1.061-19.838,8.075l-16.794,30.66c-0.266,0.484-0.726,0.837-1.262,0.967l-25.899,6.293
	c-5.28,1.283-9.656,5.053-11.706,10.084c-2.051,5.031-1.557,10.787,1.323,15.396l11.605,18.569
	c-4.476,1.654-8.551,4.356-11.825,7.945c-5.693,6.242-8.516,14.646-7.742,23.062l2.001,21.749c0.38,4.124,4.022,7.149,8.156,6.781
	c4.124-0.38,7.16-4.031,6.781-8.156l-2.001-21.748c-0.395-4.286,0.986-8.397,3.887-11.577c2.9-3.179,6.867-4.93,11.171-4.93h1.907
	c0.01,0,0.021,0.002,0.031,0.002s0.019-0.002,0.029-0.002h191.197c0.02,0,0.041,0.003,0.062,0.003c0.013,0,0.026-0.003,0.04-0.003
	H345.76c4.304,0,8.271,1.751,11.171,4.93c2.9,3.18,4.281,7.291,3.887,11.577l-24.578,267.226h-27.266c-4.142,0-7.5,3.357-7.5,7.5
	c0,4.143,3.358,7.5,7.5,7.5h25.886l-2.754,29.946c-1.828,19.878-18.26,34.867-38.222,34.867H97.984
	c-19.961,0-36.394-14.989-38.222-34.867l-2.754-29.946h217.433c4.143,0,7.5-3.357,7.5-7.5c0-4.143-3.357-7.5-7.5-7.5H55.629
	L36.173,205.631c-0.38-4.125-4.026-7.174-8.155-6.782c-4.125,0.38-7.161,4.031-6.782,8.155l23.591,256.498
	c2.543,27.647,25.398,48.494,53.159,48.494h195.901c27.763,0,50.616-20.848,53.159-48.494l21.12-229.634l46.105,261.47
	c0.934,5.302,3.877,9.923,8.288,13.011c3.427,2.4,7.42,3.65,11.518,3.65c1.176,0,2.36-0.103,3.543-0.312l19.222-3.39
	c10.945-1.93,18.279-12.404,16.349-23.35l-14.076-79.831l21.184-12.001C491.69,386.664,497.816,373.665,495.541,360.77z
	 M52.197,118.45l-15.4-24.643c-0.441-0.707-0.327-1.362-0.153-1.787c0.173-0.425,0.549-0.973,1.356-1.169l25.9-6.293
	c4.625-1.125,8.588-4.163,10.875-8.336l16.794-30.66c0.445-0.813,1.415-1.21,2.301-0.937l23.611,7.213l-1.353,1.58
	c-2.963,3.458-4.221,8.015-3.452,12.5l8.984,52.53L52.197,118.45L52.197,118.45z M236.593,112.79l-2.302,5.659h-97.414
	l-9.417-55.061c-0.013-0.074,0.009-0.152,0.06-0.211l8.851-10.336c0.008-0.009,0.015-0.018,0.023-0.026l32.313-37.737
	c0.093-0.109,0.255-0.124,0.368-0.029l28.074,23.728c3.184,2.692,7.384,3.972,11.531,3.515l47.911-5.302
	c0.123-0.003,0.236,0.058,0.276,0.176l2.144,6.282c0.002,0.007,0.005,0.013,0.007,0.02l9.639,28.246
	c0.029,0.086,0.011,0.182-0.048,0.252l-25.89,30.689C240.155,105.69,238.095,109.1,236.593,112.79z M343.118,118.45h-92.633
	l0.002-0.006c0.906-2.227,2.15-4.285,3.698-6.12l25.89-30.688c3.434-4.07,4.499-9.729,2.778-14.77l-7.419-21.743l8.582-3.866
	c0.118-0.053,0.257-0.039,0.363,0.039l27.339,20.188c3.328,2.459,7.574,3.475,11.663,2.795l32.004-5.357
	c0.045-0.008,0.153-0.025,0.277,0.067c0.124,0.093,0.138,0.2,0.142,0.245l4.715,38.73c0.013,0.101-0.019,0.201-0.084,0.278
	L343.118,118.45z M454.235,493.526l-19.222,3.39c-1.357,0.237-2.724-0.064-3.852-0.854c-1.128-0.79-1.881-1.972-2.12-3.328
	l-55.496-314.731c-0.493-2.8,1.383-5.479,4.183-5.973l19.221-3.39c0.301-0.053,0.602-0.078,0.897-0.078
	c2.454,0,4.636,1.763,5.076,4.261l55.495,314.732C458.911,490.353,457.034,493.032,454.235,493.526z M472.903,380.066l-16.553,9.378
	l-21.816-123.721l18.764,3.151c6.661,1.118,11.926,6.34,13.1,12.993l14.371,81.509C481.943,370.029,478.781,376.736,472.903,380.066
	z"/>
<g>
</g>
<g>
</g>
<g>
</g>
<g>
</g>
<g>
</g>
<g>
</g>
<g>
</g>
<g>
</g>
<g>
</g>
<g>
</g>
<g>
</g>
<g>
</g>
<g>
</g>
<g>
</g>
<g>
</g>
</svg>
