<?xml version="1.0" encoding="iso-8859-1"?>
<!-- Generator: Adobe Illustrator 19.0.0, SVG Export Plug-In . SVG Version: 6.00 Build 0)  -->
<svg version="1.1" id="Capa_1" xmlns="http://www.w3.org/2000/svg" xmlns:xlink="http://www.w3.org/1999/xlink" x="0px" y="0px"
	 viewBox="0 0 511.999 511.999" style="enable-background:new 0 0 511.999 511.999;" xml:space="preserve">
<path style="fill:#FAEFCA;" d="M504,316.486L394.612,188.574c-5.253-6.142-12.856-9.585-20.938-9.585H138.327
	c-8.082,0-15.686,3.442-20.938,9.585L8,316.486v70.504h496V316.486z"/>
<path style="fill:#F6D36C;" d="M473,387.567l-95.738-111.963c-4.588-5.365-11.425-8.614-18.484-8.614H153.222
	c-7.059,0-13.896,3.249-18.484,8.614L39,387.567v61.423h434V387.567z"/>
<path style="fill:#EDA500;" d="M359.656,340.319v0.294c0,13.3-10.782,24.376-24.082,24.376H176.425
	c-13.3,0-24.082-10.952-24.082-24.252v-0.333c0-13.3-10.782-24.415-24.082-24.415H8v150.334c0,17.575,14.1,31.666,31.675,31.666
	h432.649C489.9,497.99,504,483.899,504,466.324V315.99H383.738C370.438,315.99,359.656,327.019,359.656,340.319z"/>
<path style="fill:#DD9300;" d="M461.517,315.99v0.485c0,76.784-62.246,139.515-139.03,139.515H8v10.334
	c0,17.575,14.1,31.666,31.675,31.666h432.649c17.576,0,31.676-14.091,31.676-31.666V315.99H461.517z"/>
<path style="fill:#5CAF00;" d="M228,114.99v182.666c0,15.059,12.055,27.266,27.114,27.266h-0.19
	c15.059,0,27.076-12.207,27.076-27.266V114.99h27.82c10.507,0,16.535-12.116,10.281-20.56l-55.743-75.342
	c-5.126-6.922-15.489-6.941-20.59,0l-55.323,75.399c-6.21,8.449-0.177,20.503,10.309,20.503H228z"/>
<path d="M511.997,316.42c-0.015-1.84-0.696-3.633-1.881-5.037L400.654,183.397c-6.755-7.899-16.588-12.407-26.981-12.407h-61.412
	c-4.337,0-7.853,3.663-7.853,8s3.516,8,7.853,8h61.412c5.794,0,11.278,2.536,15.044,6.94L487.1,308.99H383.738
	c-17.609,0-31.935,14.244-31.935,31.853c0,8.949-7.28,16.147-16.229,16.147H176.425c-8.949,0-16.229-7.198-16.229-16.147
	c0-17.608-14.326-31.853-31.935-31.853H24.9l98.383-115.06c3.766-4.404,9.249-6.94,15.044-6.94h58.262c4.337,0,7.853-3.663,7.853-8
	s-3.516-8-7.853-8h-58.262c-10.392,0-20.226,4.509-26.981,12.407L1.884,311.393C0.682,312.804,0,314.629,0,316.486v149.838
	C0,488.2,17.798,505.99,39.675,505.99h432.649c21.877,0,39.675-17.789,39.675-39.666V316.486
	C512,316.463,511.997,316.442,511.997,316.42C511.982,314.58,511.997,316.442,511.997,316.42z M496,466.324
	c0,13.217-10.458,23.666-23.675,23.666H39.675C26.458,489.99,16,479.541,16,466.324V323.99h112.262
	c8.949,0,16.229,7.698,16.229,16.647c0,17.608,14.326,32.353,31.935,32.353h159.149c17.609,0,31.935-14.744,31.935-32.353
	c0-8.949,7.28-16.647,16.229-16.647H496V466.324z"/>
<path d="M198.755,122.99H220v174.667c0,19.364,15.635,35.119,35,35.119s35-15.755,35-35.119V122.99h19.82
	c7.845,0,14.91-4.576,18.439-11.582c3.53-7.006,2.822-15.386-1.847-21.69l-55.743-75.323c-3.943-5.324-9.97-8.406-16.63-8.386
	c-6.625,0.012-12.675,3.067-16.598,8.405l-55.323,75.259c-4.636,6.308-5.32,14.787-1.785,21.772
	C183.868,118.429,190.926,122.99,198.755,122.99z M194.772,98.967l55.323-75.115c1.285-1.748,3.04-1.862,3.972-1.862
	c0.003,0,0.006,0,0.009,0c0.934,0,2.683,0.11,3.971,1.848l55.743,75.191c1.635,2.208,0.854,4.386,0.442,5.203
	c-0.412,0.818-1.666,2.758-4.413,2.758h-27.593c-4.337,0-8.228,3.361-8.228,7.698v182.968c0,10.704-8.296,19.413-19,19.413
	s-19-8.709-19-19.413V114.688c0-4.337-3.967-7.698-8.304-7.698h-28.941c-2.741,0-3.996-1.973-4.409-2.788
	C193.933,103.387,193.149,101.176,194.772,98.967z"/>
<g>
</g>
<g>
</g>
<g>
</g>
<g>
</g>
<g>
</g>
<g>
</g>
<g>
</g>
<g>
</g>
<g>
</g>
<g>
</g>
<g>
</g>
<g>
</g>
<g>
</g>
<g>
</g>
<g>
</g>
</svg>
