<?xml version="1.0" encoding="iso-8859-1"?>
<!-- Generator: Adobe Illustrator 19.0.0, SVG Export Plug-In . SVG Version: 6.00 Build 0)  -->
<svg version="1.1" id="Capa_1" xmlns="http://www.w3.org/2000/svg" xmlns:xlink="http://www.w3.org/1999/xlink" x="0px" y="0px"
	 viewBox="0 0 512 512" style="enable-background:new 0 0 512 512;" xml:space="preserve">
<path style="fill:#7CD9F2;" d="M400.282,159.812c-17.459,0-33.912,4.3-48.366,11.889c5.349-13.615,8.288-28.44,8.288-43.952
	c0-66.404-53.831-120.235-120.235-120.235S119.734,61.346,119.734,127.75c0,0.091,0.003,0.181,0.003,0.273
	C57.07,132.146,7.515,184.274,7.515,247.984c0,66.404,53.831,120.235,120.235,120.235h272.532
	c57.55,0,104.204-46.653,104.204-104.204S457.832,159.812,400.282,159.812z"/>
<path style="fill:#3CBDE8;" d="M416.313,336.157H143.781c-66.404,0-120.235-53.831-120.235-120.235
	c0-12.932,2.042-25.388,5.821-37.061c-13.766,19.553-21.853,43.393-21.853,69.124c0,66.404,53.831,120.235,120.235,120.235h272.532
	c47.181,0,87.031-31.359,99.862-74.37C481.163,319.513,450.683,336.157,416.313,336.157z"/>
<polygon style="fill:#ECEEF1;" points="312.11,215.922 135.765,215.922 135.765,504.485 376.235,504.485 376.235,280.047 "/>
<g>
	<rect x="135.765" y="215.922" style="fill:#D9DDE2;" width="24.047" height="288.564"/>
	<polygon style="fill:#D9DDE2;" points="312.11,280.047 376.235,280.047 312.11,215.922 	"/>
</g>
<polygon style="fill:#FF8C78;" points="256,95.687 199.89,151.796 223.937,151.796 223.937,336.157 288.063,336.157 
	288.063,151.796 312.11,151.796 "/>
<polygon style="fill:#DB6B5E;" points="269.359,109.046 256,95.687 199.89,151.796 223.937,151.796 223.937,336.157 
	247.984,336.157 247.984,135.765 "/>
<path d="M400.282,152.297c-12.338,0-24.627,2.063-36.247,6.036c2.448-9.949,3.683-20.183,3.683-30.584
	c0-22.411-5.889-44.462-17.029-63.767c-2.075-3.596-6.673-4.827-10.265-2.753c-3.594,2.074-4.826,6.67-2.752,10.265
	c9.824,17.024,15.017,36.477,15.017,56.255c0,14.223-2.613,28.086-7.768,41.204c-2.488,6.331,4.455,12.571,10.487,9.401
	c13.742-7.215,29.259-11.029,44.874-11.029c53.314,0,96.689,43.375,96.689,96.689s-43.375,96.689-96.689,96.689H383.75v-80.658
	c0-1.974-0.805-3.918-2.2-5.313l-64.125-64.125c-1.397-1.397-3.34-2.201-5.314-2.201h-16.532v-49.096h16.532
	c6.55,0,9.95-8.191,5.314-12.828l-56.11-56.11c-2.936-2.935-7.693-2.935-10.628,0l-56.11,56.11
	c-4.637,4.637-1.237,12.828,5.313,12.828h16.532v49.096h-80.658c-4.151,0-7.515,3.365-7.515,7.515v144.783h-0.501
	c-62.154,0-112.72-50.566-112.72-112.72c0-59.182,46.21-108.582,105.201-112.465c3.982-0.262,7.064-3.59,7.022-7.579l-0.004-0.191
	c0-62.154,50.566-112.72,112.72-112.72c28.009,0,54.86,10.341,75.609,29.118c3.077,2.783,7.829,2.548,10.614-0.529
	c2.784-3.077,2.548-7.829-0.529-10.615C302.145,11.721,271.713,0,239.969,0c-68.232,0-124.14,53.769-127.581,121.16
	C48.829,128.793,0,183.22,0,247.984c0,70.442,57.308,127.75,127.75,127.75h0.501v128.751c0,4.15,3.364,7.515,7.515,7.515h240.47
	c4.151,0,7.515-3.365,7.515-7.515V375.734h16.532c61.601,0,111.718-50.117,111.718-111.718S461.883,152.297,400.282,152.297z
	 M319.624,234.063l38.469,38.469h-38.469V234.063z M256,106.314l37.968,37.968h-5.906c-4.151,0-7.515,3.365-7.515,7.515v176.845
	h-49.096V151.796c0-4.15-3.364-7.515-7.515-7.515h-5.906L256,106.314z M143.28,496.971V223.436h73.143v112.72
	c0,4.15,3.364,7.515,7.515,7.515h64.125c4.151,0,7.515-3.365,7.515-7.515v-112.72h9.018v56.611c0,4.15,3.364,7.515,7.515,7.515
	h56.611v209.409H143.28z"/>
<path d="M296.078,368.72h-80.157c-4.151,0-7.515,3.365-7.515,7.515s3.364,7.515,7.515,7.515h80.157c4.151,0,7.515-3.365,7.515-7.515
	S300.229,368.72,296.078,368.72z"/>
<path d="M296.078,400.783h-80.157c-4.151,0-7.515,3.365-7.515,7.515s3.364,7.515,7.515,7.515h80.157
	c4.151,0,7.515-3.365,7.515-7.515S300.229,400.783,296.078,400.783z"/>
<path d="M296.078,432.845h-80.157c-4.151,0-7.515,3.365-7.515,7.515s3.364,7.515,7.515,7.515h80.157
	c4.151,0,7.515-3.365,7.515-7.515S300.229,432.845,296.078,432.845z"/>
<g>
</g>
<g>
</g>
<g>
</g>
<g>
</g>
<g>
</g>
<g>
</g>
<g>
</g>
<g>
</g>
<g>
</g>
<g>
</g>
<g>
</g>
<g>
</g>
<g>
</g>
<g>
</g>
<g>
</g>
</svg>
