<?xml version="1.0" encoding="iso-8859-1"?>
<!-- Generator: Adobe Illustrator 19.0.0, SVG Export Plug-In . SVG Version: 6.00 Build 0)  -->
<svg version="1.1" id="Capa_1" xmlns="http://www.w3.org/2000/svg" xmlns:xlink="http://www.w3.org/1999/xlink" x="0px" y="0px"
	 viewBox="0 0 512 512" style="enable-background:new 0 0 512 512;" xml:space="preserve">
<path style="fill:#BBE0F1;" d="M177.348,101.356H72.141v65.434h170.641l0,0C242.782,130.651,213.486,101.356,177.348,101.356z"/>
<path style="opacity:0.2;fill:#254A74;enable-background:new    ;" d="M90.614,101.356H72.141v65.434h85.361
	C117.668,148.5,96.654,121.134,90.614,101.356z"/>
<path style="fill:#7F9AE6;" d="M23.986,78.921h31.67c9.105,0,16.486,7.381,16.486,16.485v70.014c0,9.105-7.381,16.486-16.486,16.486
	h-31.67c-9.105,0-16.486-7.381-16.486-16.486V95.406C7.5,86.301,14.881,78.921,23.986,78.921z"/>
<path style="opacity:0.2;fill:#254A74;enable-background:new    ;" d="M72.141,165.42v-12.37
	c-37.592,0.144-50.326-46.496-52.291-73.585C12.751,81.302,7.5,87.732,7.5,95.406v70.014c0,9.105,7.381,16.486,16.486,16.486h31.67
	C64.761,181.905,72.141,174.524,72.141,165.42z"/>
<path style="fill:#6B7BAB;" d="M333.304,166.789H72.141c-28.87,0-52.274,23.404-52.274,52.274v161.744
	c0,28.87,23.404,52.274,52.274,52.274h261.163c28.87,0,52.274-23.404,52.274-52.274V219.063
	C385.578,190.193,362.174,166.789,333.304,166.789z"/>
<path style="opacity:0.2;fill:#254A74;enable-background:new    ;" d="M361.054,425.101
	C177.258,402.363,155.078,227.818,165.245,166.79H72.141c-28.87,0-52.274,23.404-52.274,52.274v161.744
	c0,28.87,23.404,52.274,52.274,52.274h261.163C343.502,433.082,353.011,430.151,361.054,425.101z"/>
<path style="fill:#F0F2FF;" d="M57.482,366.329V233.542c0-16.092,13.045-29.137,29.137-29.137h232.207
	c16.092,0,29.137,13.045,29.137,29.137V366.33c0,16.092-13.045,29.137-29.137,29.137H86.619
	C70.527,395.467,57.482,382.421,57.482,366.329z"/>
<path style="fill:#DBE1FF;" d="M269.352,395.467c-79.413-46.413-103.539-133.056-105.937-191.062H86.619
	c-16.092,0-29.137,13.045-29.137,29.137V366.33c0,16.092,13.045,29.137,29.137,29.137L269.352,395.467L269.352,395.467z"/>
<path style="fill:#72CDA2;" d="M385.578,242.043l99.077-23.513c10.128-2.404,19.845,5.277,19.845,15.686v133.377
	c0,10.484-9.848,18.179-20.021,15.644l-98.901-24.648V242.043z"/>
<path style="fill:#5B9675;" d="M484.655,218.53l-23.666,5.616v153.236l23.49,5.854c10.173,2.535,20.021-5.16,20.021-15.644V234.217
	C504.5,223.808,494.783,216.127,484.655,218.53z"/>
<path style="fill:#E38892;" d="M248.639,319.324l-72.445,36.222c-14.413,7.207-31.372-3.274-31.372-19.389v-72.445
	c0-16.114,16.958-26.595,31.372-19.389l72.445,36.222C264.617,288.535,264.617,311.336,248.639,319.324z"/>
<path style="opacity:0.15;fill:#2C6245;enable-background:new    ;" d="M504.5,367.594V350.44
	c-73.53-7.814-93.708-70.871-99.212-113.074l-19.709,4.677v116.546l98.901,24.648C494.652,385.773,504.5,378.078,504.5,367.594z"/>
<path d="M504.5,251.072c4.143,0,7.5-3.358,7.5-7.5v-9.355c0-7.27-3.271-14.024-8.974-18.532c-5.703-4.507-13.031-6.13-20.103-4.452
	l-89.846,21.322v-13.492c0-32.96-26.814-59.774-59.773-59.774h-83.406c-3.767-36.705-34.866-65.434-72.55-65.434H79.586
	c-0.802-12.505-11.225-22.436-23.93-22.436H23.985C10.76,71.42,0,82.18,0,95.406v70.014c0,12.018,8.884,21.997,20.43,23.72
	c-5.117,8.807-8.063,19.025-8.063,29.923v161.744c0,32.959,26.814,59.774,59.774,59.774h261.163
	c32.959,0,59.773-26.815,59.773-59.774v-12.62l89.587,22.327c1.915,0.477,3.849,0.712,5.766,0.712
	c5.199,0,10.276-1.726,14.491-5.019c5.77-4.508,9.078-11.292,9.078-18.614v-88.522c0-4.142-3.357-7.5-7.5-7.5s-7.5,3.358-7.5,7.5
	v88.522c0,2.672-1.208,5.149-3.314,6.794c-2.106,1.645-4.796,2.217-7.393,1.572l-93.215-23.231V247.972l93.31-22.144
	c2.58-0.614,5.256-0.021,7.337,1.625c2.082,1.645,3.275,4.111,3.275,6.764v9.355C497,247.714,500.357,251.072,504.5,251.072z
	 M79.642,108.856h97.707c29.401,0,53.74,22.021,57.432,50.434H79.642V108.856z M15,165.42V95.406c0-4.955,4.031-8.985,8.985-8.985
	h31.671c4.954,0,8.985,4.031,8.985,8.985v64.371c-12.261,1.543-23.375,6.804-32.173,14.628h-8.483
	C19.031,174.405,15,170.375,15,165.42z M378.078,380.808c0,24.688-20.085,44.774-44.773,44.774H72.142
	c-24.689,0-44.774-20.086-44.774-44.774V219.064c0-24.689,20.086-44.774,44.774-44.774h0.055c0.016,0,0.032,0,0.048,0h261.061
	c24.689,0,44.773,20.085,44.773,44.774v161.744H378.078z M166.482,365.361c4.45,0,8.914-1.031,13.067-3.107l72.444-36.222
	c9.948-4.974,16.128-14.974,16.128-26.097s-6.18-21.122-16.128-26.096l-72.444-36.222c-9.112-4.556-19.725-4.078-28.389,1.277
	c-8.665,5.355-13.838,14.633-13.838,24.82v72.444c0,10.186,5.173,19.464,13.837,24.819
	C155.876,363.892,161.169,365.361,166.482,365.361z M152.323,263.713c0-5.023,2.451-9.419,6.724-12.06
	c2.321-1.434,4.866-2.157,7.426-2.157c2.152,0,4.316,0.51,6.368,1.536l72.444,36.222c4.907,2.454,7.837,7.194,7.837,12.68
	c0,5.487-2.93,10.227-7.837,12.681l-72.443,36.222c-4.492,2.247-9.52,2.022-13.795-0.621c-4.273-2.641-6.724-7.036-6.724-12.06
	L152.323,263.713L152.323,263.713z M318.826,196.904H86.619c-20.201,0-36.637,16.436-36.637,36.637v132.788
	c0,16.204,10.859,30.673,26.407,35.188c3.972,1.152,8.138-1.133,9.293-5.111s-1.133-8.139-5.111-9.294
	c-9.179-2.665-15.589-11.211-15.589-20.782V233.541c0-11.931,9.706-21.637,21.637-21.637h232.207
	c11.931,0,21.637,9.707,21.637,21.637v132.788c0,11.931-9.706,21.637-21.637,21.637h-205.31c-4.143,0-7.5,3.358-7.5,7.5
	s3.357,7.5,7.5,7.5h205.31c20.201,0,36.637-16.435,36.637-36.637V233.541C355.463,213.34,339.027,196.904,318.826,196.904z"/>
<g>
</g>
<g>
</g>
<g>
</g>
<g>
</g>
<g>
</g>
<g>
</g>
<g>
</g>
<g>
</g>
<g>
</g>
<g>
</g>
<g>
</g>
<g>
</g>
<g>
</g>
<g>
</g>
<g>
</g>
</svg>
