<?xml version="1.0" encoding="iso-8859-1"?>
<!-- Generator: Adobe Illustrator 19.0.0, SVG Export Plug-In . SVG Version: 6.00 Build 0)  -->
<svg version="1.1" id="Layer_1" xmlns="http://www.w3.org/2000/svg" xmlns:xlink="http://www.w3.org/1999/xlink" x="0px" y="0px"
	 viewBox="0 0 512 512" style="enable-background:new 0 0 512 512;" xml:space="preserve">
<path style="fill:#9B735A;" d="M351.458,34.712H229.966c0,9.585-7.771,17.356-17.356,17.356s-17.356-7.771-17.356-17.356H73.763
	c-14.378,0-26.034,11.656-26.034,26.034V425.22c0,14.378,11.656,26.034,26.034,26.034h277.695c14.378,0,26.034-11.656,26.034-26.034
	V60.746C377.492,46.367,365.836,34.712,351.458,34.712z"/>
<path style="fill:#8C5F50;" d="M368.814,303.729c-2.93,0-5.805,0.219-8.678,0.438V60.746c0-4.792-3.886-8.678-8.678-8.678h-43.39
	c-4.792,0-8.678-3.886-8.678-8.678v-8.678h-69.424c0,9.585-7.771,17.356-17.356,17.356s-17.356-7.771-17.356-17.356h-69.424v8.678
	c0,4.792-3.886,8.678-8.678,8.678h-43.39c-4.792,0-8.678,3.886-8.678,8.678V425.22c0,4.792,3.886,8.678,8.678,8.678h183.606
	c0.933,5.948,2.316,11.748,4.13,17.356h89.959c14.378,0,26.034-11.656,26.034-26.034V304.167
	C374.618,303.948,371.743,303.729,368.814,303.729z"/>
<path style="fill:#F1F4FB;" d="M334.102,416.542H91.119c-4.792,0-8.678-3.886-8.678-8.678V78.102c0-4.792,3.886-8.678,8.678-8.678
	h242.983c4.792,0,8.678,3.886,8.678,8.678v329.763C342.78,412.657,338.894,416.542,334.102,416.542z"/>
<path style="fill:#E4EAF8;" d="M342.78,407.864V306.869C293.048,318.639,256,363.214,256,416.542h78.102
	C338.894,416.542,342.78,412.657,342.78,407.864z"/>
<path style="fill:#7F8499;" d="M290.712,182.237h-86.78c-4.797,0-8.678-3.881-8.678-8.678c0-4.797,3.881-8.678,8.678-8.678h86.78
	c4.797,0,8.678,3.881,8.678,8.678C299.39,178.356,295.509,182.237,290.712,182.237z"/>
<path style="fill:#5B5D6E;" d="M264.678,147.525h-60.746c-4.797,0-8.678-3.881-8.678-8.678s3.881-8.678,8.678-8.678h60.746
	c4.797,0,8.678,3.881,8.678,8.678S269.475,147.525,264.678,147.525z"/>
<path style="fill:#7F8499;" d="M290.712,269.017h-86.78c-4.797,0-8.678-3.881-8.678-8.678c0-4.797,3.881-8.678,8.678-8.678h86.78
	c4.797,0,8.678,3.881,8.678,8.678C299.39,265.136,295.509,269.017,290.712,269.017z"/>
<path style="fill:#5B5D6E;" d="M264.678,234.305h-60.746c-4.797,0-8.678-3.881-8.678-8.678s3.881-8.678,8.678-8.678h60.746
	c4.797,0,8.678,3.881,8.678,8.678S269.475,234.305,264.678,234.305z"/>
<path style="fill:#7F8499;" d="M290.712,355.797h-86.78c-4.797,0-8.678-3.881-8.678-8.678c0-4.797,3.881-8.678,8.678-8.678h86.78
	c4.797,0,8.678,3.881,8.678,8.678C299.39,351.915,295.509,355.797,290.712,355.797z"/>
<path style="fill:#5B5D6E;" d="M264.678,321.085h-60.746c-4.797,0-8.678-3.881-8.678-8.678c0-4.797,3.881-8.678,8.678-8.678h60.746
	c4.797,0,8.678,3.881,8.678,8.678C273.356,317.204,269.475,321.085,264.678,321.085z"/>
<path style="fill:#FFF082;" d="M264.678,17.356h-22.17C236.495,7.024,225.425,0,212.61,0s-23.885,7.024-29.898,17.356h-22.17
	c-9.585,0-17.356,7.77-17.356,17.356v34.712c0,4.792,3.886,8.678,8.678,8.678h121.492c4.792,0,8.678-3.886,8.678-8.678V34.712
	C282.034,25.126,274.263,17.356,264.678,17.356z M212.61,47.729c-7.189,0-13.017-5.828-13.017-13.017s5.828-13.017,13.017-13.017
	s13.017,5.828,13.017,13.017S219.799,47.729,212.61,47.729z"/>
<g>
	<path style="fill:#FFDC64;" d="M151.864,78.102h121.492c4.792,0,8.678-3.886,8.678-8.678l0,0c0-4.792-3.886-8.678-8.678-8.678
		H151.864c-4.792,0-8.678,3.886-8.678,8.678l0,0C143.186,74.216,147.072,78.102,151.864,78.102z"/>
	<circle style="fill:#FFDC64;" cx="368.814" cy="416.542" r="95.458"/>
</g>
<circle style="fill:#FFFFFF;" cx="368.814" cy="416.542" r="78.102"/>
<g>
	<circle style="fill:#FFDC64;" cx="151.864" cy="156.203" r="26.034"/>
	<circle style="fill:#FFDC64;" cx="151.864" cy="329.763" r="26.034"/>
	<circle style="fill:#FFDC64;" cx="151.864" cy="242.983" r="26.034"/>
</g>
<path style="fill:#5B5D6E;" d="M273.871,355.797h16.841c4.797,0,8.678-3.881,8.678-8.678c0-4.797-3.881-8.678-8.678-8.678h-3.164
	C282.433,343.747,277.873,349.571,273.871,355.797z"/>
<path style="fill:#E4EAF8;" d="M383.391,450.188c-24.206-4.5-43.743-24.048-48.229-48.256c-1.497-8.077-1.361-15.911,0.11-23.265
	c1.084-5.421-5.258-9.137-9.188-5.251c-13.028,12.885-20.258,31.607-17.392,51.947c3.697,26.239,25.062,47.604,51.301,51.301
	c20.34,2.866,39.064-4.364,51.949-17.393c3.887-3.93,0.17-10.271-5.249-9.188C399.326,451.558,391.479,451.691,383.391,450.188z"/>
<path style="fill:#5B5D6E;" d="M404.975,461.381c-2.22,0-4.441-0.847-6.135-2.543l-36.161-36.161c-3.39-3.39-3.39-8.882,0-12.272
	s8.882-3.39,12.272,0l36.161,36.161c3.39,3.39,3.39,8.882,0,12.272C409.416,460.534,407.195,461.381,404.975,461.381z"/>
<path style="fill:#464655;" d="M368.814,425.22L368.814,425.22c-4.792,0-8.678-3.886-8.678-8.678v-60.746
	c0-4.792,3.886-8.678,8.678-8.678l0,0c4.792,0,8.678,3.886,8.678,8.678v60.746C377.492,421.335,373.606,425.22,368.814,425.22z"/>
<g>
</g>
<g>
</g>
<g>
</g>
<g>
</g>
<g>
</g>
<g>
</g>
<g>
</g>
<g>
</g>
<g>
</g>
<g>
</g>
<g>
</g>
<g>
</g>
<g>
</g>
<g>
</g>
<g>
</g>
</svg>
