<svg id="Capa_1" enable-background="new 0 0 511 511" height="512" viewBox="0 0 511 511" width="512" xmlns="http://www.w3.org/2000/svg"><g><g id="Filled_1_"><path d="m361.5 68.5h58v110h-58z" fill="#c4e5f9"/><path d="m361.5 78.845v99.655h58v-49.941z" fill="#9eb6f4"/><path d="m255.5 27.5-180 154.286v321.714h360v-321.714z" fill="#c4e5f9"/><path d="m357.719 288.47 21.781-29.807c-11.04-19.156-12.201-21.17-23.24-40.326l-36.657 3.993c-9.588-5.545-16.398-9.485-25.986-15.03l-14.877-33.8h-46.48l-14.877 33.8c-9.588 5.545-16.398 9.485-25.986 15.03l-36.657-3.993c-11.04 19.156-12.201 21.17-23.24 40.326l21.781 29.807v30.06l-21.781 29.807c11.04 19.156 12.201 21.17 23.24 40.326l36.657-3.993c9.588 5.545 16.398 9.485 25.986 15.03l14.877 33.8h46.48l14.877-33.8c9.588-5.545 16.398-9.485 25.986-15.03l36.657 3.993c11.04-19.156 12.201-21.17 23.24-40.326l-21.781-29.807zm-102.219 65.03c-27.614 0-50-22.386-50-50s22.386-50 50-50 50 22.386 50 50-22.386 50-50 50z" fill="#faef93"/><path d="m313.09 353.78-57.58 33.31-57.6-33.31.004.003-59.537 6.486c5.407 9.382 8.156 14.152 16.364 28.395l36.657-3.993c9.588 5.545 16.398 9.485 25.986 15.03l14.877 33.8h46.48l14.877-33.8c9.588-5.545 16.398-9.485 25.986-15.03l36.657 3.993c8.208-14.242 10.957-19.013 16.364-28.395l-59.538-6.486z" fill="#efc17a"/><path d="m75.5 473.5h360v30h-360z" fill="#9eb6f4"/></g><g id="Outline_1_"><path d="m-1.582 197.341h100.368v15h-100.368z" transform="matrix(.759 -.651 .651 .759 -121.608 80.944)"/><path d="m92.677 140.277h45v15h-45z" transform="matrix(.759 -.651 .651 .759 -68.444 110.533)"/><path d="m427 164.622v-103.622h-73v41.051l-98.5-84.429-116.731 100.056 9.762 11.389 106.969-91.689 240.119 205.816 9.762-11.389zm-15-12.857-43-36.857v-38.908h43z"/><path d="m413.5 30h15v15h-15z"/><path d="m383.5 30h15v15h-15z"/><path d="m352.5 30h15v15h-15z"/><path d="m397.5 0h15v15h-15z"/><path d="m367.5 0h15v15h-15z"/><path d="m428 311.5h15v45h-15z"/><path d="m428 496h-345v-280.5h-15v295.5h375v-139.5h-15z"/><path d="m428 215.5h15v81h-15z"/><path d="m388.435 259.147-28.122-48.796-39.082 4.258-21.738-12.574-15.859-36.035h-56.268l-15.86 36.035-21.738 12.574-39.082-4.258-28.122 48.796 23.216 31.771v25.164l-23.216 31.771 28.122 48.796 39.082-4.258 21.738 12.574 15.86 36.035h56.268l15.86-36.035 21.738-12.574 39.082 4.258 28.122-48.796-23.216-31.771v-25.164zm-17.871 89.674-18.358 31.856-34.233-3.729-30.233 17.487-13.893 31.565h-36.693l-13.893-31.565-30.233-17.487-34.233 3.729-18.358-31.856 20.345-27.842v-34.957l-20.345-27.842 18.358-31.856 34.233 3.729 30.233-17.487 13.892-31.566h36.693l13.893 31.565 30.233 17.487 34.233-3.729 18.358 31.856-20.345 27.842v34.957z"/><path d="m285.553 273.449c8.027 8.027 12.447 18.699 12.447 30.051 0 23.435-19.065 42.5-42.5 42.5s-42.5-19.065-42.5-42.5 19.065-42.5 42.5-42.5c7.01 0 13.683 1.648 19.833 4.9l7.011-13.261c-8.216-4.343-17.498-6.639-26.844-6.639-31.706 0-57.5 25.794-57.5 57.5s25.794 57.5 57.5 57.5 57.5-25.794 57.5-57.5c0-15.358-5.98-29.797-16.839-40.657z"/></g><g fill="#fff"><path d="m248 381h15v15h-15z"/><path d="m321.612 253.5h15v15h-15z"/><path d="m174.388 253.5h15v15h-15z"/><path d="m248 211h15v15h-15z"/><path d="m174.388 338.5h15v15h-15z"/><path d="m321.612 338.5h15v15h-15z"/><g><path d="m104.5 466h15v15h-15z"/><path d="m134.5 466h15v15h-15z"/><path d="m104.5 436h15v15h-15z"/><path d="m391.5 466h15v15h-15z"/><path d="m361.5 466h15v15h-15z"/><path d="m391.5 436h15v15h-15z"/></g></g></g></svg>