<?xml version="1.0" encoding="iso-8859-1"?>
<!-- Generator: Adobe Illustrator 19.0.0, SVG Export Plug-In . SVG Version: 6.00 Build 0)  -->
<svg version="1.1" id="Capa_1" xmlns="http://www.w3.org/2000/svg" xmlns:xlink="http://www.w3.org/1999/xlink" x="0px" y="0px"
	 viewBox="0 0 480 480" style="enable-background:new 0 0 480 480;" xml:space="preserve">
<path style="fill:#F0B77D;" d="M8,96h288v376H8V96z"/>
<path style="fill:#65CECC;" d="M192,472H96v-65.542C96,394.055,106.055,384,118.458,384l0,0h51.084
	C181.945,384,192,394.055,192,406.458l0,0V472z"/>
<path style="fill:#DE2F55;" d="M24,64h256v32H24V64z"/>
<g>
	<path style="fill:#65CECC;" d="M56,8h192v56H56V8z"/>
	<path style="fill:#65CECC;" d="M40,128h32v32H40V128z"/>
	<path style="fill:#65CECC;" d="M136,128h32v32h-32V128z"/>
	<path style="fill:#65CECC;" d="M232,128h32v32h-32V128z"/>
	<path style="fill:#65CECC;" d="M40,216h32v32H40V216z"/>
	<path style="fill:#65CECC;" d="M136,216h32v32h-32V216z"/>
	<path style="fill:#65CECC;" d="M232,216h32v32h-32V216z"/>
	<path style="fill:#65CECC;" d="M40,304h32v32H40V304z"/>
	<path style="fill:#65CECC;" d="M136,304h32v32h-32V304z"/>
	<path style="fill:#65CECC;" d="M232,304h32v32h-32V304z"/>
	<path style="fill:#65CECC;" d="M40,392h32v32H40V392z"/>
	<path style="fill:#65CECC;" d="M232,392h32v32h-32V392z"/>
</g>
<path style="fill:#E9CD4B;" d="M296,208h176v264H296V208z"/>
<g>
	<path style="fill:#65CECC;" d="M416,472h-64v-51.301c0-11.432,9.267-20.699,20.699-20.699h22.602
		c11.432,0,20.699,9.267,20.699,20.699L416,472z"/>
	<path style="fill:#65CECC;" d="M360,240h48v48h-48V240z"/>
	<path style="fill:#65CECC;" d="M360,320h48v48h-48V320z"/>
</g>
<path style="fill:#816892;" d="M381.726,80c-18.301,18.301-16.027,45.699,2.274,64s45.699,20.575,64,2.274L381.726,80z"/>
<path d="M72,168H40c-4.417,0.001-7.999-3.579-8-7.996c0-0.001,0-0.003,0-0.004v-32c-0.001-4.417,3.579-7.999,7.996-8
	c0.001,0,0.003,0,0.004,0h32c4.417-0.001,7.999,3.579,8,7.996c0,0.001,0,0.003,0,0.004v32c0.001,4.417-3.579,7.999-7.996,8
	C72.003,168,72.001,168,72,168z M48,152h16v-16H48V152z"/>
<path d="M168,168h-32c-4.417,0.001-7.999-3.579-8-7.996c0-0.001,0-0.003,0-0.004v-32c-0.001-4.417,3.579-7.999,7.996-8
	c0.001,0,0.003,0,0.004,0h32c4.417-0.001,7.999,3.579,8,7.996c0,0.001,0,0.003,0,0.004v32c0.001,4.417-3.579,7.999-7.996,8
	C168.003,168,168.001,168,168,168z M144,152h16v-16h-16V152z"/>
<path d="M264,168h-32c-4.417,0.001-7.999-3.579-8-7.996c0-0.001,0-0.003,0-0.004v-32c-0.001-4.417,3.579-7.999,7.996-8
	c0.001,0,0.003,0,0.004,0h32c4.417-0.001,7.999,3.579,8,7.996c0,0.001,0,0.003,0,0.004v32c0.001,4.417-3.579,7.999-7.996,8
	C264.003,168,264.001,168,264,168z M240,152h16v-16h-16V152z"/>
<path d="M72,256H40c-4.417,0.001-7.999-3.579-8-7.996c0-0.001,0-0.003,0-0.004v-32c-0.001-4.417,3.579-7.999,7.996-8
	c0.001,0,0.003,0,0.004,0h32c4.417-0.001,7.999,3.579,8,7.996c0,0.001,0,0.003,0,0.004v32c0.001,4.417-3.579,7.999-7.996,8
	C72.003,256,72.001,256,72,256z M48,240h16v-16H48V240z"/>
<path d="M168,256h-32c-4.417,0.001-7.999-3.579-8-7.996c0-0.001,0-0.003,0-0.004v-32c-0.001-4.417,3.579-7.999,7.996-8
	c0.001,0,0.003,0,0.004,0h32c4.417-0.001,7.999,3.579,8,7.996c0,0.001,0,0.003,0,0.004v32c0.001,4.417-3.579,7.999-7.996,8
	C168.003,256,168.001,256,168,256z M144,240h16v-16h-16V240z"/>
<path d="M264,256h-32c-4.417,0.001-7.999-3.579-8-7.996c0-0.001,0-0.003,0-0.004v-32c-0.001-4.417,3.579-7.999,7.996-8
	c0.001,0,0.003,0,0.004,0h32c4.417-0.001,7.999,3.579,8,7.996c0,0.001,0,0.003,0,0.004v32c0.001,4.417-3.579,7.999-7.996,8
	C264.003,256,264.001,256,264,256z M240,240h16v-16h-16V240z"/>
<path d="M72,344H40c-4.417,0.001-7.999-3.579-8-7.996c0-0.001,0-0.003,0-0.004v-32c-0.001-4.417,3.579-7.999,7.996-8
	c0.001,0,0.003,0,0.004,0h32c4.417-0.001,7.999,3.579,8,7.996c0,0.001,0,0.003,0,0.004v32c0.001,4.417-3.579,7.999-7.996,8
	C72.003,344,72.001,344,72,344z M48,328h16v-16H48V328z"/>
<path d="M168,344h-32c-4.417,0.001-7.999-3.579-8-7.996c0-0.001,0-0.003,0-0.004v-32c-0.001-4.417,3.579-7.999,7.996-8
	c0.001,0,0.003,0,0.004,0h32c4.417-0.001,7.999,3.579,8,7.996c0,0.001,0,0.003,0,0.004v32c0.001,4.417-3.579,7.999-7.996,8
	C168.003,344,168.001,344,168,344z M144,328h16v-16h-16V328z"/>
<path d="M264,344h-32c-4.417,0.001-7.999-3.579-8-7.996c0-0.001,0-0.003,0-0.004v-32c-0.001-4.417,3.579-7.999,7.996-8
	c0.001,0,0.003,0,0.004,0h32c4.417-0.001,7.999,3.579,8,7.996c0,0.001,0,0.003,0,0.004v32c0.001,4.417-3.579,7.999-7.996,8
	C264.003,344,264.001,344,264,344z M240,328h16v-16h-16V328z"/>
<path d="M72,432H40c-4.417,0.001-7.999-3.579-8-7.996c0-0.001,0-0.003,0-0.004v-32c-0.001-4.417,3.579-7.999,7.996-8
	c0.001,0,0.003,0,0.004,0h32c4.417-0.001,7.999,3.579,8,7.996c0,0.001,0,0.003,0,0.004v32c0.001,4.417-3.579,7.999-7.996,8
	C72.003,432,72.001,432,72,432z M48,416h16v-16H48V416z"/>
<path d="M264,432h-32c-4.417,0.001-7.999-3.579-8-7.996c0-0.001,0-0.003,0-0.004v-32c-0.001-4.417,3.579-7.999,7.996-8
	c0.001,0,0.003,0,0.004,0h32c4.417-0.001,7.999,3.579,8,7.996c0,0.001,0,0.003,0,0.004v32c0.001,4.417-3.579,7.999-7.996,8
	C264.003,432,264.001,432,264,432z M240,416h16v-16h-16V416z"/>
<path d="M408,296h-48c-4.417,0.001-7.999-3.579-8-7.996c0-0.001,0-0.003,0-0.004v-48c-0.001-4.417,3.579-7.999,7.996-8
	c0.001,0,0.003,0,0.004,0h48c4.417-0.001,7.999,3.579,8,7.996c0,0.001,0,0.003,0,0.004v48c0.001,4.417-3.579,7.999-7.996,8
	C408.003,296,408.001,296,408,296z M368,280h32v-32h-32V280z"/>
<path d="M408,376h-48c-4.417,0.001-7.999-3.579-8-7.996c0-0.001,0-0.003,0-0.004v-48c-0.001-4.417,3.579-7.999,7.996-8
	c0.001,0,0.003,0,0.004,0h48c4.417-0.001,7.999,3.579,8,7.996c0,0.001,0,0.003,0,0.004v48c0.001,4.417-3.579,7.999-7.996,8
	C408.003,376,408.001,376,408,376z M368,360h32v-32h-32V360z"/>
<path d="M472,200h-80v-40.047c7.235,4.076,15.31,6.436,23.602,6.898c0.84,0.047,1.68,0.062,2.512,0.062
	c13.377-0.028,26.183-5.427,35.542-14.984c3.124-3.122,3.125-8.186,0.003-11.309c-0.001-0.001-0.002-0.002-0.003-0.003l-27.48-27.48
	l19.48-19.481l-11.312-11.312l-19.481,19.48l-27.48-27.48c-3.174-3-8.138-3-11.312,0c-19.92,20.148-19.952,52.564-0.07,72.75V200
	h-72V96c0.001-4.417-3.579-7.999-7.996-8c-0.001,0-0.003,0-0.004,0h-8V64c0.001-4.417-3.579-7.999-7.996-8c-0.001,0-0.003,0-0.004,0
	h-24V8c0.001-4.417-3.579-7.999-7.996-8c-0.001,0-0.003,0-0.004,0H56c-4.417-0.001-7.999,3.579-8,7.996C48,7.997,48,7.999,48,8v48
	H24c-4.417-0.001-7.999,3.579-8,7.996c0,0.001,0,0.003,0,0.004v24H8c-4.417-0.001-7.999,3.579-8,7.996C0,95.997,0,95.999,0,96v376
	c-0.001,4.417,3.579,7.999,7.996,8c0.001,0,0.003,0,0.004,0h464c4.417,0.001,7.999-3.579,8-7.996c0-0.001,0-0.003,0-0.004V208
	c0.001-4.417-3.579-7.999-7.996-8C472.003,200,472.001,200,472,200z M64,16h176v40H64V16z M32,72h240v16H32V72z M144,464h-32
	v-57.539c0.007-7.982,6.475-14.452,14.457-14.461H144V464z M192,464h-32v-72h17.543c7.982,0.009,14.45,6.479,14.457,14.461V464z
	 M288,464h-80v-57.539c-0.018-16.814-13.643-30.441-30.457-30.461h-51.086c-16.814,0.02-30.439,13.647-30.457,30.461V464H16V104h272
	V464z M382.336,91.922l53.754,53.758c-5.847,3.777-12.743,5.596-19.691,5.195c-10.16-0.716-19.691-5.182-26.742-12.531
	C376.352,126.653,373.275,107.139,382.336,91.922z M408,464h-48v-43.305c0.009-7.009,5.69-12.689,12.699-12.695h22.602
	c7.009,0.006,12.691,5.686,12.699,12.695L408,464z M464,464h-40v-43.305c-0.02-15.841-12.858-28.677-28.699-28.695h-22.602
	c-15.841,0.018-28.679,12.854-28.699,28.695V464h-40V216h160L464,464z"/>
<g>
</g>
<g>
</g>
<g>
</g>
<g>
</g>
<g>
</g>
<g>
</g>
<g>
</g>
<g>
</g>
<g>
</g>
<g>
</g>
<g>
</g>
<g>
</g>
<g>
</g>
<g>
</g>
<g>
</g>
</svg>
