<svg height="512pt" viewBox="0 0 512.00101 512" width="512pt" xmlns="http://www.w3.org/2000/svg"><path d="m504.386719 56.234375v248.46875c0 26.859375-21.761719 48.636719-48.621094 48.636719h-369.253906c-18.542969 0-34.648438-10.382813-42.851563-25.644532-3.679687-6.84375-5.769531-14.675781-5.769531-22.992187v-248.46875c0-26.863281 21.761719-48.636719 48.621094-48.636719h369.25c26.863281 0 48.625 21.777344 48.625 48.636719zm0 0" fill="#b4e7fd"/><path d="m504.386719 298.847656v5.855469c0 26.859375-21.761719 48.636719-48.621094 48.636719h-284.492187l160.527343-241.625c4.683594-7.046875 11.667969-11.210938 19.085938-12.484375 10.753906-1.875 22.378906 2.289062 29.164062 12.484375zm0 0" fill="#f9d35a"/><path d="m350.886719 99.230469-59.347657 254.109375h-120.265624l160.527343-241.625c4.683594-7.046875 11.671875-11.210938 19.085938-12.484375zm0 0" fill="#f7aa5c"/><path d="m287.53125 353.339844h-201.019531c-18.542969 0-34.648438-10.378906-42.851563-25.644532l89.296875-134.398437c7.175781-10.78125 19.773438-14.816406 31-12.113281 6.726563 1.632812 12.957031 5.65625 17.238281 12.113281zm0 0" fill="#f9d35a"/><path d="m163.957031 181.183594-37.429687 172.15625h-40.015625c-18.542969 0-34.648438-10.378906-42.851563-25.644532l89.296875-134.398437c7.175781-10.78125 19.773438-14.820313 31-12.113281zm0 0" fill="#f7aa5c"/><path d="m254.429688 78.636719c0 18.933593-15.347657 34.28125-34.28125 34.28125-18.933594 0-34.28125-15.347657-34.28125-34.28125 0-18.933594 15.347656-34.28125 34.28125-34.28125 18.933593 0 34.28125 15.347656 34.28125 34.28125zm0 0" fill="#ff435e"/><path d="m337.941406 294v175.941406c0 19.019532-15.410156 34.441406-34.429687 34.441406h-261.472657c-13.132812 0-24.535156-7.351562-30.347656-18.15625-2.605468-4.847656-4.085937-10.394531-4.085937-16.285156v-175.941406c0-19.023438 15.410156-34.441406 34.433593-34.441406h261.472657c19.019531 0 34.429687 15.417968 34.429687 34.441406zm0 0" fill="#d5f1fe"/><path d="m337.941406 465.796875v4.144531c0 19.019532-15.410156 34.441406-34.429687 34.441406h-201.453125l113.671875-171.097656c3.316406-4.988281 8.261719-7.9375 13.515625-8.839844 7.613281-1.328124 15.847656 1.621094 20.652344 8.839844zm0 0" fill="#f9d35a"/><path d="m229.246094 324.445312-42.023438 179.9375h-85.164062l113.671875-171.097656c3.316406-4.988281 8.261719-7.9375 13.515625-8.839844zm0 0" fill="#f7aa5c"/><path d="m184.382812 504.382812h-142.34375c-13.132812 0-24.535156-7.351562-30.347656-18.15625l63.234375-95.171874c5.082031-7.632813 14.003907-10.492188 21.949219-8.578126 4.765625 1.15625 9.175781 4.003907 12.207031 8.578126zm0 0" fill="#f9d35a"/><path d="m96.875 382.476562-26.5 121.90625h-28.335938c-13.132812 0-24.535156-7.351562-30.347656-18.15625l63.234375-95.171874c5.082031-7.632813 14.003907-10.492188 21.949219-8.578126zm0 0" fill="#f7aa5c"/><path d="m160.945312 309.863281c0 13.40625-10.871093 24.273438-24.277343 24.273438s-24.273438-10.867188-24.273438-24.273438 10.867188-24.273437 24.273438-24.273437 24.277343 10.867187 24.277343 24.273437zm0 0" fill="#ff435e"/><path d="m220.148438 120.523438c23.097656 0 41.886718-18.792969 41.886718-41.886719s-18.789062-41.882813-41.886718-41.882813c-23.09375 0-41.882813 18.789063-41.882813 41.882813s18.789063 41.886719 41.882813 41.886719zm0-68.5625c14.710937 0 26.675781 11.964843 26.675781 26.675781 0 14.707031-11.964844 26.675781-26.675781 26.675781-14.707032 0-26.675782-11.96875-26.675782-26.675781 0-14.710938 11.96875-26.675781 26.675782-26.675781zm0 0"/><path d="m455.761719 0h-369.246094c-31.011719 0-56.238281 25.222656-56.238281 56.230469v72.582031c0 4.199219 3.402344 7.605469 7.601562 7.605469 4.199219 0 7.605469-3.40625 7.605469-7.605469v-72.582031c0-22.621094 18.40625-41.023438 41.03125-41.023438h369.246094c22.625 0 41.03125 18.402344 41.03125 41.023438v217.445312l-110.414063-166.167969c-6.796875-10.222656-18.179687-16.324218-30.445312-16.328124-.003906 0-.003906 0-.007813 0-12.269531 0-23.65625 6.101562-30.460937 16.328124l-95.96875 144.449219h-.195313l-41.777343-62.871093c-6.785157-10.21875-18.164063-16.320313-30.4375-16.324219 0 0-.003907 0-.007813 0-12.273437 0-23.65625 6.101562-30.449219 16.320312l-41.78125 62.875h-39.363281v-92.726562c0-4.199219-3.40625-7.605469-7.605469-7.605469-4.199218 0-7.601562 3.40625-7.601562 7.605469v94.414062c-17.472656 5.101563-30.277344 21.253907-30.277344 40.351563v175.953125c0 7.039062 1.75 13.675781 4.820312 19.515625.082032.167968.167969.335937.257813.5 7.128906 13.109375 21.023437 22.023437 36.960937 22.023437h261.472657c23.179687 0 42.039062-18.859375 42.039062-42.039062v-109.007813h110.210938c31.011719 0 56.238281-25.226562 56.238281-56.238281v-248.472656c0-31.007813-25.226562-56.230469-56.238281-56.230469zm-316.46875 197.5c4.027343-6.058594 10.507812-9.53125 17.785156-9.53125h.003906c7.273438 0 13.75 3.476562 17.773438 9.53125l36.183593 54.457031h-107.929687zm-118.511719 288.789062 60.480469-91.027343c2.429687-3.660157 6.347656-5.757813 10.742187-5.757813 4.398438 0 8.316406 2.097656 10.746094 5.757813l67.453125 101.519531h-128.164063c-8.648437 0-16.347656-4.117188-21.257812-10.492188zm282.730469 10.492188h-115.050781l-36.113282-54.351562 69.714844-104.933594c2.4375-3.660156 6.355469-5.761719 10.753906-5.761719 4.394532 0 8.3125 2.101563 10.75 5.757813l25.296875 38.078124c2.324219 3.496094 7.042969 4.449219 10.542969 2.125 3.496094-2.324218 4.449219-7.042968 2.125-10.539062l-25.300781-38.082031c-5.226563-7.855469-13.980469-12.546875-23.414063-12.546875s-18.1875 4.691406-23.417968 12.550781l-66.179688 99.613281-27.800781-41.84375c-5.222657-7.859375-13.972657-12.550781-23.410157-12.550781s-18.191406 4.691406-23.414062 12.550781l-53.386719 80.347656v-173.199218c0-14.796875 12.039063-26.832032 26.832031-26.832032h261.472657c14.792969 0 26.832031 12.039063 26.832031 26.832032v59.253906c0 .03125-.003906.058594-.003906.089844 0 .027344.003906.058594.003906.085937v87.191407l-33.875-50.980469c-2.324219-3.5-7.042969-4.449219-10.539062-2.125-3.5 2.324219-4.449219 7.042969-2.128907 10.539062l46.542969 70.046875v1.851563c0 14.792969-12.039062 26.832031-26.832031 26.832031zm152.25-151.046875h-110.210938v-51.738281c0-23.179688-18.859375-42.039063-42.039062-42.039063h-55.757813l90.375-136.027343c4.035156-6.0625 10.523438-9.542969 17.796875-9.542969h.003907c7.273437 0 13.753906 3.480469 17.785156 9.539062l123.078125 185.230469v3.546875c0 22.625-18.40625 41.03125-41.03125 41.03125zm0 0"/><path d="m136.667969 277.984375c-17.578125 0-31.878907 14.300781-31.878907 31.878906s14.300782 31.878907 31.878907 31.878907 31.878906-14.300782 31.878906-31.878907-14.300781-31.878906-31.878906-31.878906zm0 48.550781c-9.191407 0-16.671875-7.480468-16.671875-16.671875 0-9.191406 7.480468-16.671875 16.671875-16.671875 9.195312 0 16.671875 7.480469 16.671875 16.671875 0 9.191407-7.480469 16.671875-16.671875 16.671875zm0 0"/></svg>