<?xml version="1.0" encoding="iso-8859-1"?>
<!-- Generator: Adobe Illustrator 19.0.0, SVG Export Plug-In . SVG Version: 6.00 Build 0)  -->
<svg version="1.1" id="Capa_1" xmlns="http://www.w3.org/2000/svg" xmlns:xlink="http://www.w3.org/1999/xlink" x="0px" y="0px"
	 viewBox="0 0 512 512" style="enable-background:new 0 0 512 512;" xml:space="preserve">
<path style="fill:#72D8FF;" d="M422,502H90c-44.183,0-80-35.817-80-80V90c0-44.183,35.817-80,80-80h332c44.183,0,80,35.817,80,80
	v332C502,466.183,466.183,502,422,502z"/>
<path style="fill:#C9F3FF;" d="M416,456H96c-22.091,0-40-17.909-40-40V96c0-22.091,17.909-40,40-40h320c22.091,0,40,17.909,40,40
	v320C456,438.091,438.091,456,416,456z"/>
<circle style="fill:#FFFFFF;" cx="256" cy="256" r="140"/>
<g>
	<circle style="fill:#898998;" cx="206.04" cy="256" r="20"/>
	<circle style="fill:#898998;" cx="305.96" cy="256" r="20"/>
</g>
<path d="M422,0H90C40.374,0,0,40.374,0,90v332c0,49.626,40.374,90,90,90h332c49.626,0,90-40.374,90-90V90
	C512,40.374,471.626,0,422,0z M492,422c0,38.598-31.402,70-70,70H90c-38.598,0-70-31.402-70-70V90c0-38.598,31.402-70,70-70h332
	c38.598,0,70,31.402,70,70V422z"/>
<path d="M256,66c2.63,0,5.21-1.07,7.069-2.931C264.93,61.21,266,58.63,266,56s-1.07-5.21-2.931-7.07C261.21,47.069,258.63,46,256,46
	s-5.21,1.069-7.07,2.93S246,53.37,246,56s1.069,5.21,2.93,7.069C250.79,64.93,253.37,66,256,66z"/>
<path d="M416,46H305.959c-5.522,0-10,4.478-10,10s4.478,10,10,10H416c16.542,0,30,13.458,30,30v320c0,16.542-13.458,30-30,30H96
	c-16.542,0-30-13.458-30-30V96c0-16.542,13.458-30,30-30h112.041c5.522,0,10-4.478,10-10s-4.478-10-10-10H96
	c-27.57,0-50,22.43-50,50v320c0,27.57,22.43,50,50,50h320c27.57,0,50-22.43,50-50V96C466,68.43,443.57,46,416,46z"/>
<path d="M356.173,168.195c2.521,0,5.046-0.948,6.991-2.851c3.948-3.861,4.019-10.192,0.157-14.142
	c-0.413-0.422-0.828-0.842-1.246-1.261c-3.901-3.909-10.231-3.917-14.143-0.018c-3.91,3.9-3.918,10.232-0.018,14.143
	c0.371,0.372,0.741,0.745,1.107,1.12C350.981,167.19,353.576,168.195,356.173,168.195z"/>
<path d="M149.934,362.066C179.177,391.309,217.588,405.93,256,405.93s76.823-14.621,106.066-43.863
	c23.165-23.166,37.839-52.51,42.436-84.859c4.443-31.276-1.23-63.789-15.977-91.55c-2.59-4.877-8.642-6.73-13.522-4.14
	c-4.877,2.591-6.73,8.645-4.14,13.522c26.963,50.761,17.744,112.2-22.939,152.884c-22.804,22.804-52.042,35.342-81.924,37.627
	v-15.884c0-5.522-4.478-10-10-10s-10,4.478-10,10v15.884c-29.883-2.285-59.121-14.824-81.924-37.627
	c-50.687-50.687-50.687-133.161,0-183.848c22.581-22.582,51.748-35.472,81.924-37.799v16.056c0,5.522,4.478,10,10,10s10-4.478,10-10
	v-16.051c16.781,1.307,33.497,5.903,49.203,13.939c4.915,2.517,10.941,0.569,13.457-4.348c2.516-4.916,0.569-10.941-4.348-13.457
	c-28.016-14.334-59.353-19.438-90.626-14.757c-31.911,4.776-60.873,19.395-83.753,42.274
	C91.45,208.419,91.45,303.581,149.934,362.066z"/>
<path d="M176.041,256c0,16.542,13.458,30,30,30s30-13.458,30-30s-13.458-30-30-30S176.041,239.458,176.041,256z M216.041,256
	c0,5.514-4.486,10-10,10s-10-4.486-10-10s4.486-10,10-10S216.041,250.486,216.041,256z"/>
<path d="M305.959,226c-16.542,0-30,13.458-30,30s13.458,30,30,30s30-13.458,30-30S322.501,226,305.959,226z M305.959,266
	c-5.514,0-10-4.486-10-10s4.486-10,10-10s10,4.486,10,10S311.473,266,305.959,266z"/>
<g>
</g>
<g>
</g>
<g>
</g>
<g>
</g>
<g>
</g>
<g>
</g>
<g>
</g>
<g>
</g>
<g>
</g>
<g>
</g>
<g>
</g>
<g>
</g>
<g>
</g>
<g>
</g>
<g>
</g>
</svg>
