<?xml version="1.0" encoding="iso-8859-1"?>
<!-- Generator: Adobe Illustrator 19.0.0, SVG Export Plug-In . SVG Version: 6.00 Build 0)  -->
<svg version="1.1" id="Capa_1" xmlns="http://www.w3.org/2000/svg" xmlns:xlink="http://www.w3.org/1999/xlink" x="0px" y="0px"
	 viewBox="0 0 512.001 512.001" style="enable-background:new 0 0 512.001 512.001;" xml:space="preserve">
<path style="fill:#72D8FF;" d="M136.628,339.043l-90.72,28.199C24.552,373.88,10,393.642,10,416.007v85.951h320.377v-85.965
	c0-22.357-14.544-42.115-35.891-48.759L203.769,339L136.628,339.043z"/>
<path style="fill:#FFC66C;" d="M236.468,252.843c0,0,62.164-29.234,62.164-91.478c0-59.879-52.63-110.015-128.275-110.015h-0.168
	c-75.646,0-128.275,50.136-128.275,110.015c0,62.244,62.164,91.478,62.164,91.478"/>
<g>
	<path style="fill:#FFCDAC;" d="M205.234,297.875v31.187c0,19.208-15.794,34.924-35.003,34.924l0,0
		c-19.208,0-35.087-15.716-35.087-34.924v-31.187H205.234z"/>
	<path style="fill:#FFCDAC;" d="M248.449,160.311v70.607c0,43.099-34.994,78.039-78.162,78.039l0,0
		c-43.168,0-78.162-34.939-78.162-78.039v-70.607H248.449z"/>
</g>
<g>
	<path style="fill:#FFFFFF;" d="M68.518,93.01H267.07l2.034-0.354c4.06-6.51,6.414-14.195,6.414-22.433
		c0-23.45-19.01-42.46-42.46-42.46c-7.802,0-15.106,2.114-21.388,5.785c-8.452-14.08-23.864-23.505-41.482-23.505
		c-17.557,0-32.927,9.359-41.398,23.359c-6.225-3.581-13.437-5.64-21.135-5.64c-23.45,0-42.46,19.01-42.46,42.46
		c0,8.238,2.353,15.923,6.414,22.433L68.518,93.01z"/>
	<polygon style="fill:#FFFFFF;" points="281.391,501.957 281.391,363.986 235.292,350.813 235.292,414.85 170.189,414.85 
		170.357,414.85 105.254,414.85 105.254,348.796 59.156,363.986 59.156,501.957 	"/>
</g>
<path style="fill:#FEDA9B;" d="M502.001,409.027L502.001,409.027c0-17.108-13.869-30.977-30.977-30.977h-14.228H441.62h-121.3
	c-28.532,0-51.662,23.13-51.662,51.662v20.583c0,28.532,23.13,51.662,51.662,51.662h136.145h0.331h14.228
	c17.108,0,30.977-13.869,30.977-30.977l0,0c0-17.108-13.869-30.976-30.977-30.976C488.132,440.004,502.001,426.135,502.001,409.027z
	"/>
<path style="fill:#EDF2FA;" d="M470.954,378.051H299.647c-17.147,0-31.047-13.9-31.047-31.047l0,0
	c0-17.147,13.9-31.047,31.047-31.047h171.307c17.147,0,31.047,13.9,31.047,31.047l0,0
	C502.001,364.151,488.101,378.051,470.954,378.051z"/>
<path d="M49.073,217.345c1.848,2.784,3.867,5.552,6.001,8.227c1.975,2.477,4.885,3.765,7.824,3.765c2.186,0,4.388-0.713,6.229-2.183
	c4.317-3.443,5.026-9.735,1.582-14.053c-1.772-2.223-3.445-4.516-4.973-6.816c-9.172-13.819-13.823-28.932-13.823-44.919
	c0-21.403,7.311-41.488,21.193-58.355H267.07c0.118,0,0.236-0.011,0.354-0.015c13.889,16.872,21.208,36.965,21.208,58.371
	c0,16.385-4.882,31.841-14.509,45.938c-2.031,2.973-4.294,5.914-6.728,8.743c-3.602,4.187-3.128,10.5,1.059,14.103
	c1.888,1.624,4.208,2.419,6.517,2.419c2.812,0,5.607-1.18,7.585-3.479c2.915-3.388,5.634-6.922,8.082-10.506
	c11.94-17.483,17.994-36.733,17.994-57.218c0-26.195-9.45-51.678-26.674-72.162c2.339-6.021,3.559-12.448,3.559-18.981
	c0-28.927-23.533-52.46-52.46-52.46c-6.198,0-12.331,1.102-18.104,3.225C203.959,7.892,187.506,0.043,170.189,0.043
	c-17.559,0-33.718,7.653-44.719,20.84c-5.69-2.055-11.724-3.12-17.813-3.12c-28.927,0-52.46,23.533-52.46,52.46
	c0,6.483,1.208,12.858,3.511,18.839c-17.302,20.51-26.794,46.043-26.794,72.303C31.914,181.356,37.687,200.191,49.073,217.345z
	 M107.657,37.763c5.665,0,11.249,1.489,16.148,4.308c4.712,2.711,10.728,1.16,13.542-3.491c7.023-11.606,19.3-18.536,32.842-18.536
	c13.595,0,25.897,6.973,32.908,18.651c2.819,4.697,8.892,6.253,13.62,3.487c4.946-2.891,10.597-4.419,16.342-4.419
	c17.898,0,32.46,14.562,32.46,32.46c0,4.423-0.898,8.768-2.623,12.787H77.819c-1.725-4.02-2.623-8.364-2.623-12.787
	C75.196,52.324,89.758,37.763,107.657,37.763z"/>
<path d="M188.722,444.96c-5.523,0-10,4.478-10,10s4.477,10,10,10h0.072c5.523,0,9.964-4.478,9.964-10S194.245,444.96,188.722,444.96
	z"/>
<path d="M156.013,444.96h-50.756c-5.523,0-10,4.478-10,10s4.477,10,10,10h50.756c5.523,0,10-4.478,10-10
	S161.536,444.96,156.013,444.96z"/>
<path d="M512,409.029c0-12.374-5.521-23.476-14.22-30.996c8.7-7.532,14.22-18.644,14.22-31.028
	c0-22.634-18.414-41.047-41.046-41.047h-48.441c-5.523,0-10,4.478-10,10s4.477,10,10,10h48.441c11.605,0,21.046,9.441,21.046,21.047
	s-9.441,21.047-21.046,21.047h-14.157h-15.176H320.32h-20.674c-11.605,0-21.047-9.441-21.047-21.047s9.441-21.047,21.047-21.047
	h46.367c5.523,0,10-4.478,10-10s-4.477-10-10-10h-46.367c-22.164,0-40.269,17.659-41.011,39.646l-43.513-13.542
	c0.066-0.992,0.111-1.99,0.111-2.999v-22.435c25.853-15.364,43.215-43.547,43.215-75.709v-70.606c0-5.522-4.477-10-10-10H92.125
	c-5.523,0-10,4.478-10,10v70.606c0,32.08,17.274,60.204,43.02,75.593v22.55c0,1.024,0.047,2.037,0.115,3.044l-22.918,7.124
	c-0.04,0.012-0.08,0.024-0.12,0.037L42.94,357.693C17.256,365.676,0,389.111,0,416.007v85.951c0,5.522,4.477,10,10,10h461.024
	c22.595,0,40.977-18.382,40.977-40.977c0-12.364-5.512-23.457-14.198-30.977C506.489,432.485,512,421.391,512,409.029z
	 M274.909,491.957H69.156V370.488l26.098-8.112v52.474c0,5.522,4.477,10,10,10h130.039c5.523,0,10-4.478,10-10v-52.454l19.352,6.023
	c3.763,6.127,9.086,11.198,15.415,14.649c-13.092,11.315-21.401,28.022-21.401,46.644v20.583
	C258.658,466.344,264.826,480.977,274.909,491.957z M102.125,230.918v-60.606H238.45v60.606c0,37.517-30.578,68.039-68.163,68.039
	S102.125,268.435,102.125,230.918z M170.287,318.957c8.662,0,17.033-1.26,24.947-3.595v13.7c0,2.367-0.34,4.656-0.961,6.827
	c-0.015,0.048-0.036,0.092-0.051,0.14c-0.041,0.132-0.067,0.265-0.102,0.398c-3.158,10.159-12.672,17.56-23.888,17.56
	c-11.225,0-20.751-7.363-23.944-17.482c-0.038-0.143-0.065-0.286-0.11-0.429c-0.02-0.064-0.048-0.124-0.069-0.188
	c-0.623-2.171-0.964-4.459-0.964-6.826v-13.758C153.116,317.677,161.554,318.957,170.287,318.957z M170.231,373.987
	c16.749,0,31.379-9.188,39.128-22.774l15.933,4.959v48.678H115.254v-48.69l15.797-4.91
	C138.819,364.815,153.466,373.987,170.231,373.987z M20,416.007c0-18.087,11.604-33.847,28.876-39.215l0.279-0.087v115.253H20
	V416.007z M338.617,430.004c-5.523,0-10,4.478-10,10s4.477,10,10,10h118.18h14.227c11.566,0,20.977,9.41,20.977,20.977
	s-9.41,20.977-20.977,20.977h-14.227c-0.056,0-0.11,0.007-0.166,0.008c-0.056-0.001-0.11-0.008-0.166-0.008H330.377H320.32
	c-22.973,0-41.662-18.689-41.662-41.662v-20.583c0-22.972,18.689-41.661,41.662-41.661h121.301h15.176h14.157h0.07
	c11.566,0,20.977,9.41,20.977,20.977s-9.41,20.977-20.977,20.977h-14.227h-118.18V430.004z"/>
<path d="M385.303,325.96c2.63,0,5.21-1.07,7.07-2.93c1.86-1.86,2.93-4.44,2.93-7.07c0-2.641-1.07-5.21-2.93-7.07
	c-1.86-1.87-4.44-2.93-7.07-2.93c-2.64,0-5.21,1.06-7.07,2.93c-1.86,1.86-2.93,4.43-2.93,7.07c0,2.63,1.07,5.21,2.93,7.07
	S382.663,325.96,385.303,325.96z"/>
<path d="M196.521,263.868c3.905-3.905,3.905-10.237,0-14.143c-3.905-3.904-10.237-3.904-14.143,0
	c-6.628,6.629-17.413,6.629-24.041,0c-3.905-3.904-10.237-3.904-14.143,0c-3.905,3.905-3.905,10.237,0,14.143
	c7.213,7.213,16.688,10.819,26.163,10.819S189.307,271.081,196.521,263.868z"/>
<g>
</g>
<g>
</g>
<g>
</g>
<g>
</g>
<g>
</g>
<g>
</g>
<g>
</g>
<g>
</g>
<g>
</g>
<g>
</g>
<g>
</g>
<g>
</g>
<g>
</g>
<g>
</g>
<g>
</g>
</svg>
