<?xml version="1.0" encoding="iso-8859-1"?>
<!-- Generator: Adobe Illustrator 19.0.0, SVG Export Plug-In . SVG Version: 6.00 Build 0)  -->
<svg version="1.1" id="Capa_1" xmlns="http://www.w3.org/2000/svg" xmlns:xlink="http://www.w3.org/1999/xlink" x="0px" y="0px"
	 viewBox="0 0 511.999 511.999" style="enable-background:new 0 0 511.999 511.999;" xml:space="preserve">
<rect x="209.921" y="214.019" style="fill:#D8D8E4;" width="91.966" height="39.985"/>
<rect x="231.913" y="161.039" style="fill:#EDF2FA;" width="47.982" height="52.48"/>
<g>
	<path style="fill:#FF5D5D;" d="M447.832,193.413v-23.571c0-37.707-30.568-68.274-68.274-68.274H133.009
		c-37.707,0-68.274,30.568-68.274,68.274v23.571c0,11.108,9.005,20.112,20.112,20.112h78.559c11.108,0,20.112-9.005,20.112-20.112
		v-32.372h145.528v32.372c0,11.108,9.005,20.112,20.112,20.112h78.559C438.827,213.526,447.832,204.521,447.832,193.413z"/>
	<path style="fill:#FF5D5D;" d="M361.864,254.007H149.944c-29.812,0-53.98,24.168-53.98,53.98v193.927h319.88V307.987
		C415.844,278.174,391.676,254.007,361.864,254.007z"/>
</g>
<circle style="fill:#FFFFFF;" cx="255.904" cy="377.958" r="79.97"/>
<circle style="fill:#FF5D5D;" cx="255.904" cy="377.958" r="27.99"/>
<path d="M165.938,377.961c0,49.607,40.359,89.966,89.966,89.966s89.966-40.359,89.966-89.966s-40.359-89.966-89.966-89.966
	S165.938,328.353,165.938,377.961z M325.878,377.961c0,38.584-31.39,69.974-69.974,69.974s-69.974-31.39-69.974-69.974
	s31.39-69.974,69.974-69.974S325.878,339.377,325.878,377.961z"/>
<path d="M245.908,330.312v11.008c-6.403,1.749-12.138,5.129-16.724,9.672l-9.547-5.512c-4.782-2.759-10.895-1.123-13.655,3.659
	c-2.761,4.781-1.123,10.895,3.659,13.655l9.528,5.501c-0.814,3.088-1.251,6.327-1.251,9.666s0.437,6.579,1.251,9.666l-9.528,5.501
	c-4.781,2.76-6.42,8.874-3.659,13.655c1.851,3.207,5.211,5,8.666,5c1.695,0,3.415-0.433,4.989-1.341l9.547-5.512
	c4.585,4.543,10.32,7.924,16.724,9.672v11.008c0,5.52,4.475,9.996,9.996,9.996c5.521,0,9.996-4.476,9.996-9.996v-11.008
	c6.403-1.749,12.138-5.129,16.724-9.672l9.547,5.512c1.574,0.909,3.293,1.341,4.989,1.341c3.455,0,6.814-1.793,8.666-5
	c2.761-4.781,1.123-10.895-3.659-13.655l-9.528-5.501c0.814-3.088,1.251-6.327,1.251-9.666s-0.437-6.579-1.251-9.666l9.528-5.501
	c4.781-2.76,6.42-8.874,3.659-13.655c-2.761-4.781-8.875-6.42-13.655-3.659l-9.547,5.512c-4.585-4.543-10.32-7.924-16.724-9.672
	v-11.008c0-5.52-4.475-9.996-9.996-9.996S245.908,324.791,245.908,330.312z M273.897,377.961c0,9.921-8.072,17.993-17.993,17.993
	s-17.993-8.072-17.993-17.993s8.072-17.993,17.993-17.993C265.825,359.967,273.897,368.039,273.897,377.961z"/>
<path d="M255.904,111.564c2.629,0,5.208-1.07,7.067-2.929c1.859-1.859,2.929-4.438,2.929-7.067c0-2.629-1.07-5.208-2.929-7.067
	c-1.859-1.858-4.438-2.929-7.067-2.929c-2.629,0-5.208,1.07-7.067,2.929c-1.859,1.859-2.929,4.438-2.929,7.067
	c0,2.629,1.07,5.208,2.929,7.067C250.696,110.493,253.275,111.564,255.904,111.564z"/>
<path d="M255.904,74.075c5.521,0,9.996-4.476,9.996-9.996V10.085c0-5.52-4.475-9.996-9.996-9.996s-9.996,4.476-9.996,9.996v53.994
	C245.908,69.598,250.383,74.075,255.904,74.075z"/>
<path d="M339.373,73.153c1.358,0.627,2.783,0.924,4.186,0.924c3.777,0,7.392-2.151,9.081-5.806l10.802-23.376
	c2.316-5.011,0.13-10.951-4.881-13.267c-5.011-2.313-10.952-0.131-13.267,4.882l-10.802,23.376
	C332.175,64.896,334.362,70.837,339.373,73.153z"/>
<path d="M159.168,68.271c1.688,3.655,5.303,5.806,9.081,5.806c1.403,0,2.829-0.297,4.186-0.924
	c5.011-2.316,7.197-8.257,4.881-13.267L166.515,36.51c-2.315-5.013-8.255-7.195-13.267-4.882c-5.011,2.316-7.197,8.257-4.881,13.267
	L159.168,68.271z"/>
<path d="M501.915,305.97c-5.521,0-9.996,4.476-9.996,9.996s4.475,9.996,9.996,9.996h0.009c5.521,0,9.991-4.476,9.991-9.996
	S507.435,305.97,501.915,305.97z"/>
<path d="M497.056,175.041c-9.647-9.654-22.477-14.972-36.125-14.972h-3.735c-4.828-38.56-37.792-68.496-77.638-68.496H294.39
	c-5.521,0-9.996,4.476-9.996,9.996c0,5.52,4.475,9.996,9.996,9.996h85.168c32.134,0,58.278,26.143,58.278,58.278v23.571
	c0,5.578-4.538,10.116-10.116,10.116h-78.559c-5.578,0-10.116-4.538-10.116-10.116v-32.372c0-5.52-4.475-9.996-9.996-9.996h-49.154
	h-47.982h-48.394c-5.521,0-9.996,4.476-9.996,9.996v32.372c0,5.578-4.538,10.116-10.117,10.116H84.848
	c-5.578,0-10.116-4.538-10.116-10.116v-23.571c0-32.134,26.143-58.278,58.278-58.278h84.408c5.521,0,9.996-4.476,9.996-9.996
	c0-5.52-4.475-9.996-9.996-9.996H133.01c-43.159,0-78.271,35.112-78.271,78.271v23.571c0,16.602,13.507,30.109,30.109,30.109h78.559
	c16.602,0,30.11-13.507,30.11-30.109v-22.376h28.4v32.988h-11.995c-5.521,0-9.996,4.476-9.996,9.996v29.989h-49.981
	c-35.277,0-63.976,28.699-63.976,63.976v183.931H9.996c-5.521,0-9.996,4.476-9.996,9.996s4.475,9.996,9.996,9.996h85.968h319.88
	h84.968c5.521,0,9.996-4.476,9.996-9.996s-4.475-9.996-9.996-9.996H425.84V379.96h10.75c6.204,0,11.25,5.047,11.25,11.25v48.661
	c0,17.64,14.352,31.993,31.992,31.993c17.627,0,31.979-14.341,31.992-31.968l0.063-86.917c0.004-5.52-4.468-9.999-9.989-10.003
	c-0.003,0-0.005,0-0.007,0c-5.518,0-9.992,4.471-9.996,9.989l-0.063,86.916c-0.005,6.612-5.388,11.991-12,11.991
	c-6.617,0-12-5.384-12-12.001V391.21c0-17.227-14.016-31.242-31.242-31.242h-10.75v-51.98c0-35.277-28.699-63.976-63.976-63.976
	h-49.981v-29.989c0-5.52-4.475-9.996-9.996-9.996h-11.996v-32.988h29.16v22.376c0,16.602,13.507,30.109,30.109,30.109h78.559
	c16.602,0,30.109-13.507,30.109-30.109v-13.352h3.103c8.306,0,16.112,3.235,21.983,9.111c5.871,5.875,9.101,13.684,9.094,21.989
	l-0.056,63.163c-0.005,5.52,4.466,10,9.987,10.005c0.003,0,0.006,0,0.009,0c5.517,0,9.991-4.47,9.996-9.987l0.056-63.164
	C512.01,197.528,506.703,184.695,497.056,175.041z M405.848,307.987v183.931H105.96V307.987c0-24.253,19.731-43.983,43.983-43.983
	h211.921C386.117,264.004,405.848,283.734,405.848,307.987z M291.891,244.011h-71.973v-19.993h71.973V244.011z M269.899,203.53
	h-27.99v-32.492h27.99V203.53z"/>
<g>
</g>
<g>
</g>
<g>
</g>
<g>
</g>
<g>
</g>
<g>
</g>
<g>
</g>
<g>
</g>
<g>
</g>
<g>
</g>
<g>
</g>
<g>
</g>
<g>
</g>
<g>
</g>
<g>
</g>
</svg>
