<?xml version="1.0" encoding="iso-8859-1"?>
<!-- Generator: Adobe Illustrator 19.0.0, SVG Export Plug-In . SVG Version: 6.00 Build 0)  -->
<svg version="1.1" id="Capa_1" xmlns="http://www.w3.org/2000/svg" xmlns:xlink="http://www.w3.org/1999/xlink" x="0px" y="0px"
	 viewBox="0 0 512 512" style="enable-background:new 0 0 512 512;" xml:space="preserve">
<path style="fill:#FFC66C;" d="M329.394,79.779L329.394,79.779c28.399-28.399,74.443-28.399,102.842,0l0,0
	c28.399,28.399,28.399,74.443,0,102.842l0,0c-16.46,16.46-41.42,20.951-62.586,11.26l-117.167-53.645
	c-21.488-9.838-46.828-5.279-63.54,11.432L26.581,314.031c-22.088,22.088-22.088,57.9,0,79.988l91.415,91.415
	c22.088,22.088,57.9,22.088,79.988,0l268.532-268.532c47.332-47.332,47.332-124.071,0-171.403l0,0
	c-47.332-47.332-124.071-47.332-171.403,0l0,0L329.394,79.779z"/>
<rect x="130.701" y="202.402" transform="matrix(-0.7071 -0.7071 0.7071 -0.7071 114.4276 676.6891)" style="fill:#72D8FF;" width="133.319" height="224.488"/>
<path d="M348.745,344.67c-2.63,0-5.21-1.07-7.07-2.93c-1.86-1.86-2.93-4.44-2.93-7.07s1.07-5.21,2.93-7.07
	c1.86-1.859,4.44-2.93,7.07-2.93c2.64,0,5.21,1.07,7.07,2.93c1.86,1.86,2.93,4.44,2.93,7.07s-1.07,5.21-2.93,7.07
	C353.955,343.6,351.385,344.67,348.745,344.67z"/>
<path d="M157.99,512c-17.779,0-34.494-6.924-47.065-19.495L19.51,401.09c-25.951-25.951-25.951-68.178,0-94.131l162.363-162.361
	c19.564-19.565,49.614-24.973,74.773-13.454l117.167,53.646c17.28,7.912,37.916,4.198,51.352-9.239
	c11.847-11.846,18.371-27.596,18.371-44.35c0-16.753-6.524-32.503-18.371-44.35c-24.455-24.454-64.245-24.454-88.7,0
	c-3.904,3.905-10.236,3.906-14.142,0l-34.281-34.28c-1.875-1.876-2.929-4.419-2.929-7.071s1.054-5.195,2.929-7.071
	C312.823,13.647,345.77,0,380.814,0c35.045,0,67.992,13.647,92.773,38.428c51.155,51.155,51.155,134.391,0,185.546l-90.8,90.799
	c-3.905,3.904-10.236,3.904-14.143,0c-3.905-3.905-3.905-10.237,0-14.143l90.8-90.799c43.356-43.356,43.356-113.904,0-157.261
	C438.442,31.567,410.518,20,380.815,20c-26.343,0-51.29,9.1-71.248,25.811l20.252,20.252c32.433-25.428,79.629-23.212,109.487,6.646
	c15.624,15.624,24.229,36.397,24.229,58.492c0,22.096-8.604,42.868-24.229,58.492c-19.316,19.316-48.981,24.651-73.82,13.282
	L248.32,149.329c-17.6-8.061-38.62-4.275-52.305,9.411L33.652,321.102c-18.154,18.154-18.154,47.692,0,65.846l91.415,91.415
	C133.861,487.157,145.554,492,157.99,492c12.437,0,24.129-4.843,32.923-13.638L313.646,355.63c3.904-3.904,10.237-3.904,14.142,0
	c3.905,3.905,3.905,10.237,0,14.143L205.055,492.505C192.484,505.076,175.77,512,157.99,512z"/>
<path d="M152.135,275.609c-2.64,0-5.22-1.06-7.08-2.93c-1.86-1.86-2.93-4.43-2.93-7.07c0-2.63,1.07-5.21,2.93-7.069
	c1.86-1.86,4.44-2.931,7.08-2.931c2.63,0,5.2,1.07,7.06,2.931c1.86,1.87,2.93,4.439,2.93,7.069c0,2.641-1.07,5.21-2.93,7.07
	C157.335,274.55,154.765,275.609,152.135,275.609z"/>
<path d="M165.132,451.154c-2.559,0-5.119-0.977-7.071-2.929l-94.272-94.271c-1.875-1.876-2.929-4.419-2.929-7.071
	s1.054-5.195,2.929-7.071l55.895-55.894c3.905-3.904,10.236-3.903,14.142,0c3.905,3.905,3.905,10.237,0,14.143l-48.823,48.822
	l80.13,80.129l144.594-144.594l-80.13-80.129l-43.396,43.396c-3.905,3.904-10.237,3.904-14.142,0
	c-3.905-3.905-3.905-10.237,0-14.143l50.467-50.468c1.875-1.875,4.419-2.929,7.071-2.929s5.196,1.054,7.071,2.929l94.271,94.271
	c1.875,1.876,2.929,4.419,2.929,7.071s-1.054,5.195-2.929,7.071L172.204,448.226C170.251,450.178,167.691,451.154,165.132,451.154z"
	/>
<path d="M253.385,308.671c-2.559,0-5.118-0.977-7.071-2.929l-39.333-39.333c-3.905-3.905-3.906-10.237,0-14.143
	c3.905-3.904,10.237-3.904,14.142,0l39.333,39.333c3.905,3.905,3.906,10.237,0,14.143
	C258.503,307.694,255.944,308.671,253.385,308.671z"/>
<path d="M217.385,344.671c-2.559,0-5.118-0.977-7.071-2.929l-39.333-39.333c-3.905-3.905-3.906-10.237,0-14.143
	c3.905-3.904,10.237-3.904,14.142,0l39.333,39.333c3.905,3.905,3.906,10.237,0,14.143
	C222.503,343.694,219.944,344.671,217.385,344.671z"/>
<path d="M181.385,380.671c-2.559,0-5.118-0.977-7.071-2.929l-39.333-39.333c-3.905-3.905-3.906-10.237,0-14.143
	c3.905-3.904,10.237-3.904,14.142,0l39.333,39.333c3.905,3.905,3.906,10.237,0,14.143
	C186.503,379.694,183.944,380.671,181.385,380.671z"/>
<g>
</g>
<g>
</g>
<g>
</g>
<g>
</g>
<g>
</g>
<g>
</g>
<g>
</g>
<g>
</g>
<g>
</g>
<g>
</g>
<g>
</g>
<g>
</g>
<g>
</g>
<g>
</g>
<g>
</g>
</svg>
