<?xml version="1.0" encoding="iso-8859-1"?>
<!-- Generator: Adobe Illustrator 19.0.0, SVG Export Plug-In . SVG Version: 6.00 Build 0)  -->
<svg version="1.1" id="Capa_1" xmlns="http://www.w3.org/2000/svg" xmlns:xlink="http://www.w3.org/1999/xlink" x="0px" y="0px"
	 viewBox="0 0 512.001 512.001" style="enable-background:new 0 0 512.001 512.001;" xml:space="preserve">
<g>
	<rect x="92.25" y="405.67" style="fill:#FFCDAC;" width="36" height="56.2"/>
	<rect x="56.25" y="405.67" style="fill:#FFCDAC;" width="36" height="56.2"/>
</g>
<g>
	<path style="fill:#FF8E4B;" d="M356.5,502H428v-40.125h-31.375C374.465,461.875,356.5,479.84,356.5,502L356.5,502z"/>
	<path style="fill:#FF8E4B;" d="M499.5,502H428v-40.125h31.375C481.535,461.875,499.5,479.84,499.5,502L499.5,502z"/>
</g>
<g>
	<path style="fill:#B3B6C3;" d="M428,10L428,10c-24.301,0-44,19.699-44,44v8c0,24.301,19.699,44,44,44l0,0c24.301,0,44-19.699,44-44
		v-8C472,29.699,452.301,10,428,10z"/>
	<circle style="fill:#B3B6C3;" cx="256" cy="256.13" r="38"/>
</g>
<path style="fill:#FFC66C;" d="M84,34L84,34c-24.301,0-44,19.699-44,44v52h88V78C128,53.699,108.301,34,84,34z"/>
<path style="fill:#ADE5FF;" d="M502,274V170c0-35.346-28.654-64-64-64h-20c-35.346,0-64,28.654-64,64v104H502z"/>
<rect x="388" y="259" style="fill:#7D9BFF;" width="80" height="202.87"/>
<path style="fill:#BAEA83;" d="M312,420.333v-77.774c0-26.749-21.684-48.432-48.432-48.432h-15.135
	c-26.748,0-48.432,21.684-48.432,48.432v77.774H312z"/>
<path style="fill:#FE8F8D;" d="M158,194c0-35.346-28.654-64-64-64H74c-35.346,0-64,28.654-64,64v80h22.611L16.173,404.562h135.654
	L135.389,274H158V194z"/>
<g>
	<path style="fill:#686C83;" d="M163.75,502h-71.5v-40.125h31.375C139.295,477.545,148.08,486.33,163.75,502L163.75,502z"/>
	<path style="fill:#686C83;" d="M20.75,502h71.5v-40.125H60.875C45.205,477.545,36.42,486.33,20.75,502L20.75,502z"/>
</g>
<g>
	<path style="fill:#FFCDAC;" d="M282.524,502H265.73c-5.304,0-9.603-4.299-9.603-9.603v-72.063h36v72.063
		C292.128,497.701,287.827,502,282.524,502z"/>
	<path style="fill:#FFCDAC;" d="M229.73,502h16.794c5.304,0,9.603-4.299,9.603-9.603v-72.063h-36v72.063
		C220.127,497.701,224.426,502,229.73,502z"/>
</g>
<path style="fill:#7D9BFF;" d="M220.127,473.5v18.897c0,5.304,4.299,9.603,9.603,9.603h8.397c9.941,0,18-8.059,18-18
	c0,14.565,17.298,25.089,32.47,12.149c2.24-1.91,3.53-4.716,3.53-7.66V473.5H220.127z"/>
<path d="M354,277.28c2.63,0,5.21-1.07,7.069-2.931c1.86-1.859,2.931-4.439,2.931-7.069c0-2.631-1.07-5.211-2.931-7.07
	c-1.859-1.86-4.439-2.93-7.069-2.93s-5.21,1.069-7.07,2.93c-1.86,1.859-2.93,4.439-2.93,7.07c0,2.63,1.069,5.21,2.93,7.069
	C348.79,276.21,351.37,277.28,354,277.28z"/>
<path d="M465.115,101.168C475.503,91.32,482,77.409,482,62v-8c0-29.775-24.225-54-54-54s-54,24.225-54,54v8
	c0,15.409,6.498,29.32,16.885,39.168C363.461,112.01,344,138.766,344,170v57.667c0,5.522,4.478,10,10,10s10-4.478,10-10V170
	c0-29.775,24.225-54,54-54h20c29.775,0,54,24.225,54,54v104c0,5.522,4.478,10,10,10s10-4.478,10-10V170
	C512,138.766,492.539,112.01,465.115,101.168z M394,54c0-18.748,15.252-34,34-34s34,15.252,34,34v8c0,18.748-15.252,34-34,34
	s-34-15.252-34-34V54z"/>
<path d="M20,274v-80c0-29.775,24.225-54,54-54h20c29.775,0,54,24.225,54,54v80c0,5.522,4.478,10,10,10s10-4.478,10-10v-80
	c0-24.696-12.172-46.589-30.819-60.039c0.525-1.215,0.819-2.553,0.819-3.961V78c0-29.775-24.225-54-54-54S30,48.225,30,78v52
	c0,1.408,0.294,2.746,0.819,3.961C12.172,147.411,0,169.304,0,194v80c0,5.522,4.478,10,10,10S20,279.522,20,274z M50,120V78
	c0-18.748,15.252-34,34-34s34,15.252,34,34v42H94H74H50z"/>
<path d="M109.774,375.021h0.071c5.522,0,9.964-4.478,9.964-10s-4.513-10-10.035-10s-10,4.478-10,10S104.252,375.021,109.774,375.021
	z"/>
<path d="M478,455.478V206c0-5.522-4.478-10-10-10s-10,4.478-10,10v43h-60v-43c0-5.522-4.478-10-10-10s-10,4.478-10,10v249.478
	c-18.44,7.41-31.5,25.464-31.5,46.522c0,5.522,4.478,10,10,10h143c5.522,0,10-4.478,10-10C509.5,480.942,496.44,462.887,478,455.478
	z M458,269v182.875h-20V313c0-5.522-4.478-10-10-10s-10,4.478-10,10v138.875h-20V269H458z M396.625,471.875H418V492h-49.794
	C372.339,480.29,383.518,471.875,396.625,471.875z M438,492v-20.125h21.375c13.107,0,24.286,8.415,28.419,20.125H438z"/>
<path d="M364,301c0-5.522-4.478-10-10-10s-10,4.478-10,10c0,13.544-10.979,24.569-24.504,24.65
	c-4.682-15.456-15.608-28.216-29.831-35.348C298.507,281.59,304,269.49,304,256.127c0-26.468-21.532-48-48-48s-48,21.532-48,48
	c0,13.363,5.494,25.463,14.335,34.174c-14.223,7.132-25.149,19.892-29.831,35.348C178.979,325.569,168,314.544,168,301
	c0-5.522-4.478-10-10-10c-4.454,0-8.225,2.914-9.518,6.938l-11.733-93.187c-0.69-5.479-5.681-9.353-11.171-8.673
	c-5.479,0.69-9.362,5.691-8.673,11.171l23.584,187.313H27.511l2.46-19.54h44.268c5.522,0,10-4.478,10-10s-4.478-10-10-10h-41.75
	L51.094,207.25c0.689-5.479-3.193-10.48-8.673-11.171c-5.463-0.679-10.48,3.192-11.171,8.673l-25,198.562
	c-0.358,2.848,0.523,5.711,2.422,7.863s4.63,3.386,7.5,3.386H46.25v47.313c0,0.155,0.016,0.306,0.023,0.459l-32.595,32.594
	c-2.859,2.86-3.715,7.161-2.168,10.898c1.548,3.736,5.194,6.173,9.239,6.173h143c4.045,0,7.691-2.437,9.239-6.173
	c1.547-3.737,0.691-8.038-2.168-10.898l-32.595-32.594c0.007-0.153,0.023-0.304,0.023-0.459v-47.313h13.577
	c2.87,0,5.602-1.233,7.5-3.386s2.78-5.016,2.422-7.863l-10.911-86.661c6.059,16.134,21.198,27.858,39.162,28.916v74.765
	c0,5.522,4.478,10,10,10h10.127v62.063c0,10.81,8.794,19.604,19.604,19.604h16.793c3.49,0,6.762-0.927,9.604-2.532
	c2.841,1.605,6.114,2.532,9.604,2.532h16.793c10.81,0,19.604-8.794,19.604-19.604v-62.063H312c5.522,0,10-4.478,10-10v-74.765
	C345.391,344.189,364,324.731,364,301z M118.25,451.875h-16v-36.204h16V451.875z M82.25,451.875h-16v-36.204h16V451.875z
	 M65.018,471.875H82.25V492H44.893L65.018,471.875z M102.25,492v-20.125h17.232L139.607,492H102.25z M256,228.127
	c15.439,0,28,12.561,28,28s-12.561,28-28,28s-28-12.561-28-28S240.561,228.127,256,228.127z M210,342.56
	c0-21.191,17.241-38.433,38.433-38.433h15.135c21.191,0,38.433,17.241,38.433,38.433v67.773h-9.873h-36h-36H210V342.56z
	 M246.127,430.333v27.334h-16v-27.334H246.127z M230.127,477.667h16V492h-16V477.667z M266.128,492v-14.333h16V492H266.128z
	 M282.128,457.667h-16v-27.334h16V457.667z"/>
<g>
</g>
<g>
</g>
<g>
</g>
<g>
</g>
<g>
</g>
<g>
</g>
<g>
</g>
<g>
</g>
<g>
</g>
<g>
</g>
<g>
</g>
<g>
</g>
<g>
</g>
<g>
</g>
<g>
</g>
</svg>
