<?xml version="1.0" encoding="iso-8859-1"?>
<!-- Generator: Adobe Illustrator 19.0.0, SVG Export Plug-In . SVG Version: 6.00 Build 0)  -->
<svg version="1.1" id="Capa_1" xmlns="http://www.w3.org/2000/svg" xmlns:xlink="http://www.w3.org/1999/xlink" x="0px" y="0px"
	 viewBox="0 0 512 512" style="enable-background:new 0 0 512 512;" xml:space="preserve">
<path style="fill:#99BBFF;" d="M378.04,44.73L378.04,44.73c36.608,14.684,60.603,50.161,60.603,89.604v230.683h-55.416V175.375
	L354,263.804H158.441l-29.669-88.43v189.643H73.357V134.334c0-39.443,23.994-74.92,60.603-89.604l0,0
	C133.96,44.73,378.04,44.73,378.04,44.73z"/>
<polygon style="fill:#6A80FF;" points="255.354,140.326 183.732,10 323.678,10 "/>
<g>
	<polygon style="fill:#C9F3FF;" points="323.678,263.94 183.732,10 133.992,43.177 255.369,263.94 	"/>
	<polygon style="fill:#C9F3FF;" points="255.354,140.326 327.008,10 376.747,43.177 287.186,197.723 	"/>
</g>
<rect x="157.999" y="311.8" style="fill:#99BBFF;" width="196" height="190.2"/>
<g>
	<rect x="267.32" y="313" style="fill:#C9F3FF;" width="46.678" height="188.01"/>
	<rect x="157.999" y="263.8" style="fill:#C9F3FF;" width="196" height="48"/>
</g>
<path d="M430.353,74.645c-11.482-16.978-27.428-30.131-46.216-38.193c-0.539-0.591-1.146-1.132-1.84-1.594l-49.74-33.177
	c-2.331-1.554-5.207-2.059-7.925-1.395c-0.395,0.097-0.778,0.223-1.154,0.365c0.067-0.218,0.125-0.422,0.2-0.651H183.731
	c0,0.004-0.001,0.007-0.002,0.011c-1.956,0.001-3.89,0.565-5.546,1.67l-49.739,33.177c-1.016,0.677-1.862,1.515-2.542,2.453
	c-17.938,8.123-33.173,20.949-44.255,37.334c-11.966,17.691-18.29,38.332-18.29,59.689v230.684c0,5.522,4.478,10,10,10h55.416
	c5.522,0,10-4.478,10-10V236.619l9.226,27.499v47.685v0.001V502c0,5.522,4.478,10,10,10h196c5.522,0,10-4.478,10-10V311.805v-46.39
	l9.227-27.917v127.52c0,5.522,4.478,10,10,10h55.416c5.522,0,10-4.478,10-10V134.334C448.643,112.977,442.318,92.336,430.353,74.645
	z M200.66,20h109.437l-54.654,99.407L200.66,20z M266.868,140.138l63.654-115.774l32.866,21.922l-75.984,131.116L266.868,140.138z
	 M138.253,172.194c-1.56-4.647-6.254-7.485-11.092-6.688c-4.837,0.79-8.389,4.968-8.389,9.869v179.643H83.357V134.334
	c0-32.855,18.215-62.258,47.017-76.982l34.542,62.826c2.661,4.84,8.741,6.604,13.581,3.944c4.839-2.661,6.605-8.741,3.944-13.581
	l-35.264-64.139l33.049-22.044l65.671,119.165c0.191,0.565,0.415,1.121,0.71,1.653l31.81,57.357l28.256,51.272h-45.465
	l-44.728-81.352c-2.66-4.84-8.741-6.604-13.581-3.944c-4.839,2.661-6.605,8.741-3.944,13.581l39.43,71.715h-72.751L138.253,172.194z
	 M255.369,273.94h68.308c0.528,0,1.048-0.055,1.561-0.136H344v28l-176-0.001v-27.999h85.803
	C254.317,273.886,254.839,273.94,255.369,273.94z M167.999,321.805h89.322V492h-89.322V321.805z M344,492h-66.678V321.805H304
	v102.24c0,5.522,4.478,10,10,10s10-4.478,10-10v-102.24h20V492z M428.643,355.018h-35.416V175.375c0-4.909-3.563-9.093-8.411-9.873
	c-4.845-0.779-9.543,2.074-11.084,6.735l-26.958,81.567h-17.264l-30.838-55.958l81.772-141.103
	c29.489,14.516,48.199,44.286,48.199,77.59L428.643,355.018L428.643,355.018z"/>
<path d="M190.398,155.78c2.63,0,5.21-1.07,7.07-2.931c1.87-1.859,2.94-4.439,2.94-7.069c0-2.631-1.07-5.211-2.94-7.07
	c-1.86-1.86-4.44-2.93-7.07-2.93s-5.21,1.069-7.069,2.93c-1.86,1.859-2.931,4.439-2.931,7.07c0,2.63,1.07,5.21,2.931,7.069
	C185.188,154.71,187.77,155.78,190.398,155.78z"/>
<path d="M314,450.08c-2.641,0-5.21,1.069-7.07,2.93s-2.93,4.44-2.93,7.08c0,2.63,1.069,5.2,2.93,7.07
	c1.86,1.859,4.44,2.92,7.07,2.92s5.21-1.061,7.069-2.92c1.86-1.87,2.931-4.44,2.931-7.07c0-2.64-1.07-5.21-2.931-7.08
	C319.21,451.149,316.63,450.08,314,450.08z"/>
<g>
</g>
<g>
</g>
<g>
</g>
<g>
</g>
<g>
</g>
<g>
</g>
<g>
</g>
<g>
</g>
<g>
</g>
<g>
</g>
<g>
</g>
<g>
</g>
<g>
</g>
<g>
</g>
<g>
</g>
</svg>
