<?xml version="1.0" encoding="iso-8859-1"?>
<!-- Generator: Adobe Illustrator 19.0.0, SVG Export Plug-In . SVG Version: 6.00 Build 0)  -->
<svg version="1.1" id="Capa_1" xmlns="http://www.w3.org/2000/svg" xmlns:xlink="http://www.w3.org/1999/xlink" x="0px" y="0px"
	 viewBox="0 0 512 512" style="enable-background:new 0 0 512 512;" xml:space="preserve">
<rect x="429.94" y="201.971" style="fill:#FE8F8D;" width="48" height="68.2"/>
<path style="fill:#FFC66C;" d="M472.625,161.219c0-10.321-18.688-37.646-18.688-37.646s-18.688,27.325-18.688,37.646
	s8.367,18.688,18.688,18.688S472.625,171.54,472.625,161.219z"/>
<path style="fill:#7D9BFF;" d="M212.988,104.107h-48c-11.046,0-20-8.954-20-20l0,0c0-11.046,8.954-20,20-20h48
	c11.046,0,20,8.954,20,20l0,0C232.988,95.154,224.034,104.107,212.988,104.107z"/>
<path style="fill:#ADE5FF;" d="M19.667,270.171l30.09,128.093c8.778,37.367,42.115,63.78,80.499,63.78h252.19
	c38.384,0,71.721-26.414,80.499-63.78l30.09-128.093L19.667,270.171z"/>
<g>
	<polygon style="fill:#B3B6C3;" points="151.808,462.176 105,501.893 64,501.893 95.141,462.176 	"/>
	<polygon style="fill:#B3B6C3;" points="360.192,462.176 407,501.893 448,501.893 416.859,462.176 	"/>
</g>
<path style="fill:#FFFFFF;" d="M412.35,270.171h-156v126.991c0,0.338,0.358,0.556,0.658,0.4l12.349-6.403
	c8.156-4.229,17.858-4.228,26.014,0.001l0.004,0.002c8.155,4.229,17.858,4.229,26.013,0.001l0.069-0.036
	c8.109-4.204,17.759-4.19,25.855,0.039l0,0c8.123,4.243,17.804,4.257,25.94,0.039l0.074-0.038
	c8.156-4.229,17.858-4.228,26.013,0.001l12.353,6.406c0.3,0.156,0.658-0.062,0.658-0.4V270.171z"/>
<path style="fill:#ADE5FF;" d="M161.665,195.663c0,15.095,12.24,27.335,27.335,27.335s27.335-12.24,27.335-27.335
	c0-0.266-0.005-0.53-0.012-0.794c-0.52-26.507-26.817-47.871-27.323-47.871c-0.337,0-26.798,21.362-27.323,47.867
	C161.67,195.131,161.665,195.396,161.665,195.663z"/>
<path d="M502,260.172h-14.063v-58.201c0-5.522-4.478-10-10-10h-48c-5.522,0-10,4.478-10,10v58.201H130.844c-5.522,0-10,4.478-10,10
	s4.478,10,10,10h115.507v116.991c0,3.627,1.926,7.049,5.025,8.932c3.099,1.884,7.023,2.014,10.235,0.346l12.35-6.403
	c5.232-2.713,11.475-2.729,16.721-0.044c0.03,0.016,0.06,0.032,0.09,0.048c11.027,5.718,24.193,5.717,35.289-0.036
	c5.209-2.702,11.423-2.69,16.622,0.024c11.005,5.749,24.153,5.769,35.135,0.072c0.013-0.006,0.1-0.051,0.112-0.057
	c5.262-2.729,11.545-2.729,16.807,0.001l12.357,6.407c1.499,0.776,3.15,1.162,4.801,1.162c1.892,0,3.782-0.508,5.437-1.514
	c3.096-1.883,5.02-5.305,5.02-8.929v-117h58.062L453.21,395.978c-7.755,33.012-36.854,56.067-70.764,56.067h-252.19
	c-33.91,0-63.009-23.056-70.763-56.067L32.289,280.172H50.5c5.522,0,10-4.478,10-10s-4.478-10-10-10H20V64.107
	c0-24.261,19.738-43.999,44-43.999h71c20.822,0,38.299,14.542,42.84,34h-12.852c-16.542,0-30,13.458-30,30s13.458,30,30,30h48
	c16.542,0,30-13.458,30-30s-13.458-30-30-30h-14.775c-4.815-30.556-31.325-54-63.214-54H64c-35.29,0-64,28.71-64,63.999v206.065
	c0,5.522,4.478,10,10,10h1.743l28.278,120.38c4.759,20.257,16.362,38.53,32.672,51.453c3.668,2.906,7.553,5.501,11.596,7.805
	L56.13,495.723c-2.361,3.011-2.797,7.105-1.123,10.546c1.675,3.44,5.166,5.624,8.992,5.624h41c2.37,0,4.663-0.842,6.47-2.375
	l44.164-37.473h200.733l44.164,37.473c1.807,1.533,4.1,2.375,6.47,2.375h41c3.826,0,7.317-2.184,8.992-5.624
	c1.674-3.44,1.238-7.535-1.123-10.546l-27.875-35.55c21.992-12.364,38.561-33.553,44.685-59.621l28.278-120.38H502
	c5.522,0,10-4.478,10-10S507.522,260.172,502,260.172z M222.988,84.107c0,5.514-4.486,10-10,10h-48c-5.514,0-10-4.486-10-10
	c0-5.514,4.486-10,10-10h48C218.502,74.107,222.988,78.594,222.988,84.107z M101.329,491.893H84.548l18.462-23.546
	c0.089-0.113,0.163-0.233,0.246-0.348c7.024,2.142,14.304,3.442,21.671,3.872L101.329,491.893z M408.99,468.347l18.462,23.546
	h-16.781l-23.542-19.975c7.511-0.371,14.807-1.632,21.778-3.689C408.937,468.267,408.96,468.309,408.99,468.347z M402.351,381.511
	c-10.684-4.926-23.124-4.667-33.59,0.76c-0.013,0.006-0.1,0.051-0.112,0.058c-5.235,2.714-11.479,2.704-16.706-0.025
	c-5.498-2.872-11.53-4.31-17.575-4.31c-6.023,0-12.06,1.429-17.582,4.293c-5.231,2.713-11.473,2.729-16.718,0.045
	c-0.031-0.017-0.063-0.032-0.094-0.049c-10.5-5.443-22.94-5.702-33.623-0.781v-61.332h62.956c5.522,0,10-4.478,10-10
	s-4.478-10-10-10h-62.956v-19.997h136V381.511z M439.938,260.172v-48.201h28v48.201H439.938z"/>
<path d="M83.93,263.1c-1.86,1.86-2.93,4.44-2.93,7.07c0,2.64,1.069,5.21,2.93,7.07c1.86,1.859,4.44,2.93,7.07,2.93
	s5.21-1.07,7.069-2.93c1.86-1.86,2.931-4.44,2.931-7.07s-1.07-5.21-2.931-7.07c-1.859-1.859-4.439-2.93-7.069-2.93
	S85.79,261.24,83.93,263.1z"/>
<path d="M372.31,320.168h0.094c5.522,0,9.953-4.478,9.953-10s-4.524-10-10.047-10s-10,4.478-10,10S366.787,320.168,372.31,320.168z"
	/>
<path d="M453.938,189.907c15.818,0,28.688-12.869,28.688-28.688c0-12.105-14.289-34.308-20.434-43.291
	c-1.863-2.725-4.952-4.354-8.254-4.354s-6.391,1.63-8.254,4.354c-6.145,8.983-20.434,31.186-20.434,43.291
	C425.25,177.038,438.119,189.907,453.938,189.907z M453.939,142.31c4.981,8.573,8.549,16.155,8.686,18.933
	c-0.013,4.78-3.905,8.665-8.688,8.665c-4.79,0-8.688-3.897-8.688-8.653C445.376,158.493,448.948,150.9,453.939,142.31z"/>
<path d="M200.297,143.499c-4.76-4.521-7.267-6.502-11.297-6.502c-4.004,0-6.38,1.885-11.236,6.513
	c-2.523,2.404-6.351,6.325-10.252,11.346c-10.1,13-15.574,26.767-15.832,39.752c-0.009,0.351-0.015,0.702-0.015,1.055
	c0,20.587,16.748,37.335,37.335,37.335s37.335-16.748,37.335-37.335c0-0.353-0.006-0.703-0.014-0.99
	c-0.256-13.059-5.705-26.822-15.758-39.803C206.643,149.808,202.816,145.893,200.297,143.499z M189,212.997
	c-9.559,0-17.335-7.776-17.335-17.335c0-0.181,0.004-0.36,0.01-0.6c0.287-14.489,10.616-27.536,17.353-34.523
	c6.682,6.937,17.013,19.991,17.299,34.588c0.005,0.178,0.009,0.356,0.009,0.535C206.335,205.221,198.559,212.997,189,212.997z"/>
<g>
</g>
<g>
</g>
<g>
</g>
<g>
</g>
<g>
</g>
<g>
</g>
<g>
</g>
<g>
</g>
<g>
</g>
<g>
</g>
<g>
</g>
<g>
</g>
<g>
</g>
<g>
</g>
<g>
</g>
</svg>
