<?xml version="1.0" encoding="iso-8859-1"?>
<!-- Generator: Adobe Illustrator 19.0.0, SVG Export Plug-In . SVG Version: 6.00 Build 0)  -->
<svg version="1.1" id="Capa_1" xmlns="http://www.w3.org/2000/svg" xmlns:xlink="http://www.w3.org/1999/xlink" x="0px" y="0px"
	 viewBox="0 0 512 512" style="enable-background:new 0 0 512 512;" xml:space="preserve">
<path style="fill:#72D8FF;" d="M450.23,189.002c0-68.756-55.738-124.494-124.494-124.494s-124.494,55.738-124.494,124.494H450.23z"
	/>
<path style="fill:#C9F3FF;" d="M448.98,229H202.491c-22.09,0-39.998-17.908-39.998-39.998l0,0h326.485l0,0
	C488.978,211.092,471.07,229,448.98,229z"/>
<g>
	<circle style="fill:#6A80FF;" cx="187.062" cy="446.989" r="27.999"/>
	<circle style="fill:#6A80FF;" cx="432.931" cy="446.989" r="27.999"/>
</g>
<path style="fill:#C9F3FF;" d="M469.324,229H150.671c-18.047,0-32.677,14.63-32.677,32.677v157.316H502V261.677
	C502,243.631,487.371,229,469.324,229z"/>
<path style="fill:#FFFFFF;" d="M469.324,229H150.671c-18.047,0-32.677,14.63-32.677,32.677v87.144
	c21.213-21.213,55.606-21.213,76.818,0l0,0c21.213,21.213,55.605,21.213,76.819,0l0,0c21.213-21.213,55.605-21.213,76.818,0l0,0
	c21.212,21.213,55.605,21.213,76.818,0l0,0c21.185-21.185,55.516-21.21,76.735-0.079v-87.064C502,243.631,487.371,229,469.324,229z"
	/>
<path style="fill:#99BBFF;" d="M117.995,418.993h-42.83V141.004H10v-39.998h67.997c22.09,0,39.998,17.908,39.998,39.998v37.998
	V418.993z"/>
<path d="M486.109,222.445c7.994-8.866,12.868-20.595,12.868-33.443c0-5.522-4.478-10-10-10h-29.057
	c-3.808-57.343-43.71-104.972-97.14-120.304c-2.8-17.928-18.345-31.69-37.046-31.69c-18.701,0-34.246,13.761-37.046,31.69
	c-53.43,15.331-93.332,62.96-97.14,120.304h-29.057c-5.522,0-10,4.478-10,10c0,11.246,3.735,21.636,10.027,29.999h-11.848
	c-23.532,0-42.677,19.145-42.677,42.677v147.316h-22.83v-267.99c0-5.522-4.478-10-10-10H19.999v-19.999h57.997
	c16.541,0,29.999,13.457,29.999,29.999v37.998c0,5.522,4.478,10,10,10c5.522,0,10-4.478,10-10v-37.998
	c0-27.569-22.429-49.998-49.998-49.998H10c-5.522,0-10,4.478-10,10v39.998c0,5.522,4.478,10,10,10h55.166v267.99
	c0,5.522,4.478,10,10,10h78.446c-2.896,5.361-4.543,11.49-4.543,17.999c0,6.509,1.647,12.638,4.543,17.999H75.997
	c-5.522,0-10,4.478-10,10s4.478,10,10,10h157.228c5.522,0,10-4.478,10-10s-4.478-10-10-10h-12.702
	c2.896-5.361,4.543-11.49,4.543-17.999c0-6.509-1.647-12.638-4.543-17.999h178.951c-2.896,5.361-4.543,11.49-4.543,17.999
	c0,6.509,1.647,12.638,4.543,17.999h-78.487c-5.522,0-10,4.478-10,10s4.478,10,10,10h154.993c5.522,0,10-4.478,10-10
	s-4.478-10-10-10h-9.595c2.896-5.361,4.543-11.49,4.543-17.999c0-6.509-1.647-12.638-4.543-17.999H502c5.522,0,10-4.478,10-10
	V261.677C512,244.102,501.319,228.978,486.109,222.445z M325.735,47.008c5.817,0,10.965,2.864,14.148,7.244
	c-4.651-0.488-9.371-0.744-14.148-0.744s-9.498,0.255-14.148,0.744C314.771,49.872,319.919,47.008,325.735,47.008z M174.206,199.002
	h112.281c5.522,0,10-4.478,10-10c0-5.522-4.478-10-10-10h-74.894c4.605-58.942,54.039-105.495,114.142-105.495
	s109.537,46.553,114.142,105.495h-72.394c-5.522,0-10,4.478-10,10c0,5.522,4.478,10,10,10h109.781
	c-4.127,11.64-15.248,19.999-28.285,19.999H202.491C189.454,219.001,178.333,210.641,174.206,199.002z M150.672,239h51.819H448.98
	h20.344c12.504,0,22.678,10.174,22.678,22.678v67.824c-24.011-11.754-53.873-7.682-73.807,12.249
	c-17.278,17.28-45.395,17.279-62.676-0.001c-25.076-25.076-65.88-25.077-90.96,0.001c-17.278,17.28-45.397,17.279-62.676-0.001
	c-19.957-19.955-49.865-24.013-73.89-12.207v-50.551h127.994c5.522,0,10-4.478,10-10c0-5.522-4.478-10-10-10H128.159
	C129.492,247.749,139.077,239,150.672,239z M205.066,446.992c0,9.925-8.075,17.999-17.999,17.999s-17.999-8.075-17.999-17.999
	c0-9.925,8.075-17.999,17.999-17.999S205.066,437.068,205.066,446.992z M450.928,446.992c0,9.925-8.075,17.999-17.999,17.999
	c-9.925,0-17.999-8.075-17.999-17.999c0-9.925,8.075-17.999,17.999-17.999C442.853,428.993,450.928,437.068,450.928,446.992z
	 M127.994,408.994v-55.767c17.393-14.551,43.412-13.67,59.747,2.667c25.079,25.077,65.883,25.076,90.96-0.001
	c17.28-17.28,45.397-17.279,62.676,0.001c12.539,12.538,29.01,18.808,45.479,18.808c16.471-0.001,32.943-6.271,45.481-18.809
	c8.37-8.371,19.499-12.979,31.338-12.979c10.471,0,20.383,3.612,28.326,10.238v55.844L127.994,408.994L127.994,408.994z"/>
<path d="M325.735,179.003c-2.63,0-5.21,1.06-7.07,2.93c-1.86,1.86-2.93,4.44-2.93,7.07c0,2.63,1.069,5.21,2.93,7.069
	c1.86,1.86,4.44,2.931,7.07,2.931s5.21-1.07,7.069-2.931c1.86-1.859,2.931-4.439,2.931-7.069c0-2.63-1.07-5.21-2.931-7.07
	C330.945,180.062,328.365,179.003,325.735,179.003z"/>
<path d="M293.841,278.99h0.142c5.522,0,10-4.478,10-10c0-5.522-4.478-10-10-10h-0.142c-5.522,0-10,4.478-10,10
	C283.841,274.512,288.318,278.99,293.841,278.99z"/>
<path d="M38.998,464.991c-2.63,0-5.21,1.069-7.07,2.93c-1.86,1.861-2.93,4.44-2.93,7.07s1.069,5.21,2.93,7.069
	c1.86,1.86,4.44,2.931,7.07,2.931s5.21-1.07,7.069-2.931c1.86-1.859,2.931-4.439,2.931-7.069s-1.07-5.21-2.931-7.07
	C44.208,466.06,41.628,464.991,38.998,464.991z"/>
<g>
</g>
<g>
</g>
<g>
</g>
<g>
</g>
<g>
</g>
<g>
</g>
<g>
</g>
<g>
</g>
<g>
</g>
<g>
</g>
<g>
</g>
<g>
</g>
<g>
</g>
<g>
</g>
<g>
</g>
</svg>
