<?xml version="1.0" encoding="iso-8859-1"?>
<!-- Generator: Adobe Illustrator 19.0.0, SVG Export Plug-In . SVG Version: 6.00 Build 0)  -->
<svg version="1.1" id="Capa_1" xmlns="http://www.w3.org/2000/svg" xmlns:xlink="http://www.w3.org/1999/xlink" x="0px" y="0px"
	 viewBox="0 0 511.999 511.999" style="enable-background:new 0 0 511.999 511.999;" xml:space="preserve">
<path style="fill:#FEDA9B;" d="M424.317,78.204l-52.095-52.095c-21.468-21.468-56.276-21.468-77.744,0L26.312,294.275
	c-21.75,21.75-21.75,57.014,0,78.763l0,0c21.75,21.75,57.014,21.75,78.763,0l0,0c28.677-28.677,47.691-65.587,54.394-105.584
	l3.712-22.154c1.196-7.135,4.588-13.719,9.704-18.835l0,0c13.576-13.576,35.585-13.576,49.16,0l27.006,27.006L424.317,78.204z"/>
<circle style="fill:#FFFFFF;" cx="65.698" cy="333.657" r="23.149"/>
<g>
	<path style="fill:#7D9BFF;" d="M384.648,371.902L268.803,487.746c-18.993,18.993-49.786,18.993-68.779,0l0,0L313.509,374.26"/>
	<path style="fill:#7D9BFF;" d="M453.365,323.206h-252.75c-26.86,0-48.634,21.774-48.634,48.634l0,0h252.75l12.609-29.608
		L453.365,323.206z"/>
</g>
<path d="M173.044,246.953c0.857-5.112,3.247-9.752,6.913-13.417c4.677-4.678,10.896-7.253,17.509-7.253s12.833,2.575,17.508,7.253
	l27.006,27.006c3.905,3.904,10.237,3.904,14.142,0c3.905-3.905,3.905-10.237,0-14.142l-27.006-27.006
	c-8.455-8.454-19.695-13.11-31.651-13.11c-11.957,0-23.197,4.656-31.651,13.111c-6.625,6.626-10.946,15.012-12.495,24.253
	l-3.712,22.153c-6.396,38.165-24.239,72.802-51.602,100.166c-17.815,17.815-46.805,17.815-64.623-0.001
	c-8.632-8.63-13.384-20.104-13.384-32.31s4.753-23.68,13.384-32.311l102.985-102.985c3.905-3.905,3.905-10.237,0-14.142
	c-3.905-3.904-10.238-3.904-14.141,0L19.241,287.204C6.833,299.612,0,316.109,0,333.657c0,17.548,6.833,34.045,19.241,46.453
	c12.808,12.807,29.629,19.209,46.452,19.209c16.822,0,33.646-6.404,46.453-19.21c30.324-30.324,50.098-68.707,57.185-111.003
	L173.044,246.953z"/>
<path d="M161.628,168.953c2.63,0,5.21-1.061,7.07-2.931c1.86-1.859,2.93-4.43,2.93-7.069c0-2.631-1.07-5.21-2.93-7.07
	c-1.86-1.86-4.44-2.93-7.07-2.93c-2.63,0-5.21,1.069-7.07,2.93c-1.86,1.861-2.93,4.439-2.93,7.07c0,2.64,1.07,5.21,2.93,7.069
	C156.418,167.892,158.998,168.953,161.628,168.953z"/>
<path d="M189.295,141.292c2.559,0,5.119-0.977,7.071-2.929L301.549,33.181c8.495-8.495,19.788-13.174,31.802-13.174
	c12.013,0,23.307,4.679,31.802,13.174l52.095,52.095c3.905,3.904,10.237,3.904,14.142,0c3.905-3.905,3.905-10.237,0-14.142
	l-52.097-52.095c-12.272-12.272-28.588-19.03-45.943-19.03s-33.672,6.759-45.943,19.03L182.224,124.221
	c-3.905,3.905-3.905,10.237,0,14.142C184.177,140.315,186.736,141.292,189.295,141.292z"/>
<path d="M42.255,310.218c-12.924,12.924-12.924,33.953,0,46.877c6.462,6.462,14.949,9.692,23.437,9.692s16.976-3.23,23.437-9.692
	l0,0c12.924-12.925,12.924-33.953,0-46.877C76.208,297.295,55.18,297.295,42.255,310.218z M74.99,342.953L74.99,342.953
	c-5.126,5.127-13.467,5.126-18.592,0s-5.126-13.467,0-18.593c2.563-2.563,5.93-3.845,9.297-3.845c3.367,0,6.734,1.282,9.296,3.845
	C80.116,329.486,80.116,337.827,74.99,342.953z"/>
<path d="M395.106,117.416c2.559,0,5.119-0.977,7.071-2.929c3.905-3.905,3.906-10.237,0-14.142l-55.921-55.922
	c-3.906-3.903-10.237-3.904-14.141,0c-3.905,3.905-3.906,10.237,0,14.142l55.921,55.922
	C389.988,116.439,392.546,117.416,395.106,117.416z"/>
<path d="M365.895,146.627c2.559,0,5.119-0.977,7.071-2.929c3.905-3.905,3.905-10.237,0-14.142l-55.922-55.922
	c-3.905-3.904-10.237-3.904-14.142,0c-3.905,3.905-3.905,10.237,0,14.142l55.922,55.922
	C360.777,145.65,363.337,146.627,365.895,146.627z"/>
<path d="M336.684,175.837c2.559,0,5.119-0.977,7.071-2.929c3.905-3.905,3.906-10.237,0-14.142l-55.921-55.922
	c-3.905-3.904-10.237-3.904-14.141,0c-3.905,3.905-3.906,10.237,0,14.142l55.921,55.922
	C331.566,174.861,334.125,175.837,336.684,175.837z"/>
<path d="M307.473,205.048c2.559,0,5.119-0.977,7.071-2.929c3.905-3.905,3.905-10.237,0-14.142l-55.922-55.921
	c-3.905-3.904-10.237-3.904-14.141,0c-3.905,3.905-3.905,10.237,0,14.142l55.922,55.921
	C302.355,204.071,304.914,205.048,307.473,205.048z"/>
<path d="M285.332,231.331c3.905-3.905,3.906-10.237,0-14.142l-55.921-55.922c-3.905-3.903-10.237-3.904-14.141,0
	c-3.905,3.905-3.906,10.237,0,14.142l55.921,55.922c1.953,1.952,4.512,2.929,7.071,2.929
	C280.821,234.26,283.38,233.283,285.332,231.331z"/>
<path d="M457.16,313.342c9.44-10.708,14.607-24.306,14.607-38.707c0-15.661-6.099-30.387-17.173-41.461
	c-22.86-22.859-60.06-22.859-82.92,0l0,0c-11.075,11.075-17.173,25.8-17.173,41.461c0,14.339,5.126,27.884,14.489,38.571h-52.487
	c-5.523,0-10,4.478-10,10s4.477,10,10,10h92.813c-6.978,7.946-11.841,17.782-13.714,28.636H163.293
	c4.418-16.471,19.477-28.636,37.323-28.636h39.391c5.523,0,10-4.478,10-10s-4.477-10-10-10h-39.391
	c-32.331,0-58.634,26.304-58.634,58.635c0,5.522,4.477,10,10,10h139.806l-98.834,98.834c-3.905,3.905-3.905,10.237,0,14.142
	c11.075,11.075,25.799,17.173,41.46,17.173s30.386-6.099,41.459-17.173l112.978-112.976h6.751
	c4.762,27.582,28.843,48.634,57.764,48.634c32.331,0,58.634-26.303,58.634-58.634C512,340.786,487.728,315.306,457.16,313.342z
	 M385.816,301.954c-7.297-7.297-11.316-16.998-11.316-27.318c0-10.32,4.019-20.022,11.316-27.319l0,0
	c15.063-15.062,39.575-15.063,54.638,0c7.298,7.297,11.316,16.999,11.316,27.319c0,10.32-4.019,20.021-11.316,27.318
	c-6.784,6.785-15.647,10.731-25.152,11.253h-4.333C401.463,312.684,392.599,308.738,385.816,301.954z M261.732,480.674
	c-7.297,7.298-16.999,11.316-27.318,11.316c-6.897,0-13.518-1.795-19.329-5.164L320.072,381.84h40.496L261.732,480.674z
	 M453.365,410.475c-21.303,0-38.635-17.331-38.635-38.635c0-21.304,17.331-38.636,38.635-38.636S492,350.536,492,371.84
	C492.001,393.143,474.669,410.475,453.365,410.475z"/>
<path d="M279.514,333.207c2.63,0,5.21-1.07,7.07-2.93c1.86-1.86,2.93-4.44,2.93-7.07s-1.07-5.21-2.93-7.07
	c-1.86-1.859-4.44-2.93-7.07-2.93c-2.63,0-5.21,1.07-7.07,2.93c-1.86,1.86-2.93,4.44-2.93,7.07s1.07,5.21,2.93,7.07
	C274.304,332.136,276.885,333.207,279.514,333.207z"/>
<path d="M380.191,356.116c1.86-1.87,2.93-4.44,2.93-7.07c0-2.64-1.07-5.22-2.93-7.08s-4.44-2.92-7.07-2.92
	c-2.64,0-5.21,1.06-7.07,2.92c-1.86,1.86-2.93,4.44-2.93,7.08c0,2.63,1.07,5.2,2.93,7.07c1.86,1.859,4.43,2.93,7.07,2.93
	C375.751,359.046,378.33,357.975,380.191,356.116z"/>
<g>
</g>
<g>
</g>
<g>
</g>
<g>
</g>
<g>
</g>
<g>
</g>
<g>
</g>
<g>
</g>
<g>
</g>
<g>
</g>
<g>
</g>
<g>
</g>
<g>
</g>
<g>
</g>
<g>
</g>
</svg>
