<?xml version="1.0" encoding="iso-8859-1"?>
<!-- Generator: Adobe Illustrator 19.0.0, SVG Export Plug-In . SVG Version: 6.00 Build 0)  -->
<svg version="1.1" id="Capa_1" xmlns="http://www.w3.org/2000/svg" xmlns:xlink="http://www.w3.org/1999/xlink" x="0px" y="0px"
	 viewBox="0 0 512 512" style="enable-background:new 0 0 512 512;" xml:space="preserve">
<g>
	<path style="fill:#FFC66C;" d="M262.133,13.411l12.12,24.557c0.89,1.803,2.61,3.053,4.6,3.342l27.101,3.938
		c5.011,0.728,7.011,6.886,3.386,10.42l-19.611,19.116c-1.44,1.403-2.097,3.425-1.757,5.407l4.63,26.991
		c0.856,4.99-4.382,8.796-8.864,6.44l-24.239-12.744c-1.78-0.936-3.906-0.936-5.685,0l-24.239,12.744
		c-4.482,2.356-9.719-1.449-8.864-6.44l4.63-26.991c0.34-1.982-0.317-4.004-1.757-5.407l-19.611-19.116
		c-3.626-3.534-1.625-9.692,3.386-10.42l27.101-3.938c1.99-0.289,3.71-1.539,4.6-3.342l12.12-24.557
		C253.418,8.871,259.892,8.871,262.133,13.411z"/>
	<path style="fill:#FFC66C;" d="M364.416,44.576l9.779,19.814c0.718,1.455,2.106,2.463,3.711,2.696l21.865,3.177
		c4.043,0.587,5.657,5.555,2.731,8.407l-15.822,15.422c-1.162,1.132-1.692,2.764-1.417,4.362l3.735,21.776
		c0.691,4.026-3.535,7.096-7.151,5.196l-19.557-10.282c-1.436-0.755-3.151-0.755-4.587,0l-19.557,10.282
		c-3.616,1.901-7.842-1.169-7.151-5.196l3.735-21.776c0.274-1.599-0.256-3.23-1.417-4.362l-15.823-15.422
		c-2.925-2.851-1.311-7.819,2.731-8.407l21.865-3.177c1.605-0.233,2.993-1.241,3.711-2.696l9.779-19.814
		C357.385,40.913,362.609,40.913,364.416,44.576z"/>
	<path style="fill:#FFC66C;" d="M156.664,44.576l9.779,19.814c0.718,1.455,2.106,2.463,3.711,2.696l21.865,3.177
		c4.043,0.587,5.657,5.555,2.731,8.407l-15.822,15.423c-1.162,1.132-1.692,2.764-1.417,4.362l3.735,21.776
		c0.691,4.026-3.535,7.096-7.151,5.196l-19.557-10.282c-1.436-0.755-3.151-0.755-4.587,0l-19.557,10.282
		c-3.616,1.901-7.842-1.169-7.151-5.196l3.735-21.776c0.274-1.599-0.256-3.23-1.417-4.362l-15.822-15.423
		c-2.925-2.851-1.311-7.819,2.731-8.407l21.865-3.177c1.605-0.233,2.993-1.241,3.711-2.696l9.779-19.814
		C149.632,40.913,154.856,40.913,156.664,44.576z"/>
	<path style="fill:#FFC66C;" d="M58.423,111.574l9.779,19.814c0.718,1.455,2.106,2.463,3.711,2.696l21.865,3.177
		c4.043,0.587,5.657,5.555,2.731,8.407l-15.822,15.422c-1.162,1.132-1.692,2.764-1.417,4.362l3.735,21.776
		c0.691,4.026-3.535,7.096-7.151,5.196l-19.557-10.282c-1.436-0.755-3.151-0.755-4.587,0l-19.557,10.282
		c-3.616,1.901-7.842-1.169-7.151-5.196l3.735-21.776c0.274-1.599-0.256-3.23-1.417-4.362l-15.823-15.422
		c-2.925-2.851-1.311-7.819,2.731-8.407l21.865-3.177c1.605-0.233,2.993-1.241,3.711-2.696l9.779-19.814
		C51.393,107.911,56.616,107.911,58.423,111.574z"/>
	<path style="fill:#FFC66C;" d="M462.414,111.574l9.779,19.814c0.718,1.455,2.106,2.463,3.711,2.696l21.865,3.177
		c4.043,0.587,5.657,5.555,2.731,8.407l-15.822,15.423c-1.162,1.132-1.692,2.764-1.417,4.362l3.735,21.776
		c0.691,4.026-3.535,7.096-7.151,5.196l-19.557-10.282c-1.436-0.755-3.151-0.755-4.587,0l-19.557,10.282
		c-3.616,1.901-7.842-1.169-7.151-5.196l3.735-21.776c0.274-1.599-0.256-3.23-1.417-4.362l-15.823-15.423
		c-2.925-2.851-1.311-7.819,2.731-8.407l21.865-3.177c1.605-0.233,2.993-1.241,3.711-2.696l9.779-19.814
		C455.383,107.911,460.607,107.911,462.414,111.574z"/>
</g>
<g>
	<rect x="10.01" y="193.005" style="fill:#7D9BFF;" width="97.998" height="308.993"/>
	<rect x="404" y="193.005" style="fill:#7D9BFF;" width="97.998" height="308.993"/>
</g>
<rect x="108.247" y="126.007" style="fill:#C9F3FF;" width="295.753" height="375.991"/>
<g>
	<path style="fill:#BAEA83;" d="M178.089,501.994c4.876-5.819,7.815-13.315,7.815-21.499c0-18.502-14.998-33.499-33.499-33.499
		c-0.665,0-1.324,0.025-1.98,0.063c-7.494-17.107-24.563-29.062-44.435-29.062c-21.459,0-39.651,13.943-46.042,33.259
		c-4.836-2.709-10.408-4.26-16.346-4.26c-18.502,0-33.499,14.998-33.499,33.499c0,8.185,2.939,15.681,7.815,21.499H178.089z"/>
	<path style="fill:#BAEA83;" d="M480.185,340.756c-0.631-24.521-20.693-44.211-45.366-44.211s-44.736,19.689-45.366,44.21
		c-13.403,12.281-21.808,29.927-21.808,49.538c0,37.099,30.075,67.174,67.174,67.174s67.174-30.075,67.174-67.174
		C501.994,370.683,493.588,353.037,480.185,340.756z"/>
</g>
<rect x="145.666" y="180.006" style="fill:#72D8FF;" width="47.999" height="55.999"/>
<g>
	<rect x="232.654" y="180.006" style="fill:#FFFFFF;" width="47.999" height="55.999"/>
	<rect x="319.642" y="180.006" style="fill:#FFFFFF;" width="47.999" height="55.999"/>
	<rect x="145.666" y="286.003" style="fill:#FFFFFF;" width="47.999" height="55.999"/>
</g>
<g>
	<rect x="232.654" y="286.003" style="fill:#72D8FF;" width="47.999" height="55.999"/>
	<rect x="319.642" y="286.003" style="fill:#72D8FF;" width="47.999" height="55.999"/>
	<rect x="216.655" y="392.001" style="fill:#72D8FF;" width="79.998" height="109.997"/>
</g>
<path d="M434.816,337.988c-2.63,0-5.2,1.069-7.07,2.93c-1.86,1.86-2.92,4.439-2.92,7.07c0,2.63,1.06,5.21,2.92,7.069
	c1.87,1.86,4.44,2.931,7.07,2.931c2.64,0,5.21-1.07,7.08-2.931c1.86-1.859,2.92-4.439,2.92-7.069c0-2.631-1.06-5.21-2.92-7.07
	C440.025,339.057,437.456,337.988,434.816,337.988z"/>
<path d="M193.663,170.002h-47.999c-5.523,0-10,4.478-10,10V236c0,5.522,4.477,10,10,10h47.999c5.523,0,10-4.478,10-10v-55.999
	C203.663,174.479,199.186,170.002,193.663,170.002z M183.663,226.001h-27.999v-35.999h27.999V226.001z"/>
<path d="M280.654,170.002h-47.999c-5.523,0-10,4.478-10,10V236c0,5.522,4.477,10,10,10h47.999c5.523,0,10-4.478,10-10v-55.999
	C290.654,174.479,286.177,170.002,280.654,170.002z M270.654,226.001h-27.999v-35.999h27.999V226.001z"/>
<path d="M367.645,170.002h-47.999c-5.523,0-10,4.478-10,10V236c0,5.522,4.477,10,10,10h47.999c5.523,0,10-4.478,10-10v-55.999
	C377.645,174.479,373.168,170.002,367.645,170.002z M357.645,226.001h-27.999v-35.999h27.999V226.001z"/>
<path d="M193.663,275.999h-47.999c-5.523,0-10,4.478-10,10v55.999c0,5.522,4.477,10,10,10h47.999c5.523,0,10-4.478,10-10v-55.999
	C203.663,280.476,199.186,275.999,193.663,275.999z M183.663,331.998h-27.999v-35.999h27.999V331.998z"/>
<path d="M280.654,275.999h-47.999c-5.523,0-10,4.478-10,10v55.999c0,5.522,4.477,10,10,10h47.999c5.523,0,10-4.478,10-10v-55.999
	C290.654,280.476,286.177,275.999,280.654,275.999z M270.654,331.998h-27.999v-35.999h27.999V331.998z"/>
<path d="M10.006,414.315c2.63,0,5.21-1.069,7.07-2.93c1.86-1.859,2.93-4.439,2.93-7.07c0-2.63-1.07-5.21-2.93-7.069
	c-1.86-1.86-4.44-2.931-7.07-2.931c-2.64,0-5.21,1.07-7.07,2.931c-1.86,1.859-2.93,4.439-2.93,7.069c0,2.631,1.07,5.211,2.93,7.07
	C4.796,413.246,7.375,414.315,10.006,414.315z"/>
<path d="M501.994,183.002h-5.577l-2.85-16.612l13.914-13.562c4.099-3.996,5.546-9.859,3.777-15.303
	c-1.769-5.444-6.386-9.338-12.052-10.162l-19.227-2.793l-8.599-17.423c-2.533-5.133-7.663-8.321-13.387-8.321
	s-10.854,3.188-13.387,8.321l-8.599,17.423l-19.228,2.794c-0.963,0.14-1.893,0.375-2.786,0.685v-2.048c0-5.522-4.477-10-10-10
	h-5.577l-2.849-16.612l13.914-13.562c4.099-3.996,5.546-9.859,3.777-15.303s-6.386-9.338-12.052-10.162l-19.227-2.793l-8.599-17.423
	c-2.533-5.133-7.663-8.321-13.387-8.321c-5.724,0-10.854,3.188-13.387,8.321l-8.599,17.423l-19.228,2.794
	c-0.155,0.022-0.305,0.056-0.458,0.083c2.841-4.086,3.651-9.264,2.069-14.134c-1.909-5.874-6.891-10.075-13.004-10.965
	l-25.076-3.643L271.099,8.985c-2.733-5.539-8.269-8.979-14.445-8.979c-6.176,0-11.712,3.44-14.445,8.979l-11.215,22.724
	l-25.077,3.644c-6.112,0.889-11.095,5.09-13.003,10.964c-1.618,4.982-0.732,10.285,2.27,14.413c-0.565-0.15-1.14-0.277-1.729-0.363
	l-19.227-2.793l-8.599-17.423c-2.533-5.133-7.663-8.321-13.387-8.321c-5.724,0-10.854,3.188-13.387,8.321l-8.599,17.423
	l-19.228,2.794c-5.665,0.823-10.282,4.717-12.05,10.161c-1.769,5.443-0.321,11.307,3.778,15.303l13.913,13.562l-2.849,16.612h-5.819
	c-5.523,0-10,4.478-10,10v2.047c-0.894-0.31-1.824-0.546-2.788-0.686l-19.227-2.793l-8.599-17.423
	c-2.533-5.133-7.663-8.321-13.387-8.321s-10.854,3.188-13.387,8.321l-8.599,17.423l-19.228,2.794
	c-5.665,0.823-10.282,4.717-12.05,10.161c-1.769,5.443-0.321,11.307,3.778,15.303l13.913,13.562l-2.849,16.612h-5.577
	c-5.523,0-10,4.478-10,10v167.996c0,5.522,4.477,10,10,10s10-4.478,10-10V203.002h77.998v205.537
	c-18.428,2.519-34.494,13.648-43.348,29.886c-3.595-0.944-7.313-1.43-11.053-1.43c-23.985,0-43.499,19.514-43.499,43.499
	c0,10.195,3.604,20.111,10.15,27.922c1.9,2.268,4.706,3.577,7.665,3.577h484.076c5.523,0,10-4.478,10-10V193.001
	C511.994,187.478,507.517,183.002,501.994,183.002z M441.524,143.978c4.864-0.707,9.066-3.761,11.24-8.166l5.231-10.599l5.23,10.597
	c2.174,4.407,6.376,7.461,11.241,8.169l11.697,1.699l-8.462,8.249c-3.52,3.429-5.125,8.369-4.295,13.215l1.998,11.649l-10.462-5.501
	c-2.175-1.144-4.56-1.715-6.946-1.715c-2.386,0-4.772,0.572-6.947,1.715l-10.461,5.501l1.999-11.651
	c0.83-4.844-0.776-9.784-4.294-13.212l-8.464-8.25L441.524,143.978z M413.996,158.176l8.427,8.214l-2.849,16.612h-5.577v-24.825
	H413.996z M343.527,76.98c4.864-0.707,9.066-3.761,11.24-8.166l5.231-10.599l5.23,10.597c2.174,4.407,6.376,7.461,11.241,8.169
	l11.697,1.699l-8.462,8.249c-3.52,3.429-5.125,8.369-4.295,13.215l1.998,11.649l-10.462-5.501c-2.175-1.144-4.56-1.715-6.946-1.715
	c-2.386,0-4.772,0.572-6.947,1.715l-10.461,5.501l1.999-11.651c0.83-4.844-0.776-9.784-4.294-13.212l-8.464-8.25L343.527,76.98z
	 M306.207,72.686c-0.812,4.791,0.744,9.672,4.306,13.144l13.913,13.562l-2.849,16.612h-20.885c1.736-3.134,2.401-6.812,1.766-10.512
	l-4.284-24.975L306.207,72.686z M235.895,51.207c5.247-0.763,9.781-4.057,12.129-8.813l8.631-17.488l8.631,17.488
	c2.347,4.755,6.881,8.05,12.129,8.813l19.299,2.804l-13.964,13.612c-3.798,3.701-5.53,9.031-4.634,14.259l3.297,19.221
	l-17.262-9.075c-4.693-2.467-10.298-2.468-14.992,0l-17.262,9.075l3.297-19.222c0.896-5.227-0.836-10.558-4.633-14.258
	l-13.965-13.612L235.895,51.207z M266.779,116.003h-20.248l10.124-5.322L266.779,116.003z M201.73,85.83
	c3.89-3.792,5.386-9.266,4.017-14.467l9.39,9.153l-4.284,24.976c-0.635,3.7,0.03,7.378,1.766,10.512h-21.952l-2.849-16.612
	L201.73,85.83z M135.774,76.98c4.864-0.707,9.066-3.761,11.24-8.166l5.231-10.599l5.23,10.597c2.174,4.407,6.376,7.461,11.241,8.169
	l11.697,1.699l-8.462,8.249c-3.52,3.429-5.125,8.369-4.295,13.215l1.998,11.649l-10.461-5.5c-2.175-1.145-4.561-1.716-6.947-1.716
	c-2.386,0-4.772,0.571-6.948,1.715l-10.461,5.501l1.999-11.651c0.83-4.844-0.776-9.784-4.294-13.212l-8.464-8.25L135.774,76.98z
	 M73.709,153.928c-3.52,3.429-5.125,8.369-4.295,13.215l1.998,11.649l-10.462-5.501c-2.175-1.144-4.56-1.715-6.946-1.715
	s-4.772,0.572-6.947,1.715l-10.461,5.501l1.999-11.651c0.83-4.844-0.776-9.784-4.294-13.212l-8.464-8.25l11.697-1.7
	c4.864-0.707,9.066-3.761,11.24-8.166l5.231-10.599l5.23,10.597c2.174,4.407,6.376,7.461,11.241,8.169l11.697,1.699L73.709,153.928z
	 M92.427,183.002l-2.849-16.612l8.427-8.214v24.825H92.427z M172.894,491.994h-64.891h-84.89c-1.959-3.491-3.01-7.455-3.01-11.5
	c0-12.958,10.542-23.499,23.499-23.499c4.011,0,7.973,1.032,11.457,2.984c2.604,1.458,5.723,1.679,8.507,0.599
	c2.783-1.08,4.938-3.347,5.875-6.182c5.225-15.791,19.913-26.4,36.548-26.4c15.289,0,29.135,9.058,35.275,23.075
	c1.681,3.835,5.575,6.223,9.754,5.97c0.458-0.027,0.92-0.046,1.385-0.046c12.958,0,23.499,10.542,23.499,23.499
	C175.904,484.539,174.853,488.503,172.894,491.994z M286.654,491.994h-44.762l19.304-19.304c3.905-3.905,3.905-10.237,0-14.143
	c-3.905-3.904-10.237-3.904-14.143,0l-20.398,20.398v-26.98c0.054-0.052,0.113-0.097,0.166-0.15l49.82-49.82h10.013V491.994z
	 M226.655,423.698v-21.701h21.701L226.655,423.698z M424.82,491.994H306.654v-99.998c0-5.522-4.477-10-10-10h-79.998
	c-5.523,0-10,4.478-10,10v99.998h-12.31c1.022-3.724,1.557-7.591,1.557-11.5c0-22.562-17.267-41.168-39.28-43.296
	c-8.357-14.443-22.46-24.56-38.62-27.951V136.003h275.993V256c0,5.522,4.477,10,10,10c5.523,0,10-4.478,10-10v-52.999h77.998
	v135.488c-0.682-0.753-1.368-1.503-2.082-2.231c-1.31-12.885-7.045-24.812-16.407-33.956c-10.403-10.16-24.142-15.756-38.686-15.756
	s-28.283,5.596-38.687,15.756c-9.361,9.143-15.097,21.072-16.407,33.956c-0.713,0.728-1.4,1.478-2.082,2.232V286
	c0-5.522-4.477-10-10-10h-47.999c-5.523,0-10,4.478-10,10v55.999c0,5.522,4.477,10,10,10h47.999c0.075,0,0.147-0.01,0.221-0.011
	c-6.611,11.567-10.221,24.768-10.221,38.308c0,39.163,29.33,71.583,67.174,76.504v25.194H424.82z M357.645,295.999v35.999h-27.999
	v-35.999H357.645z M434.82,372.997c-5.523,0-10,4.478-10,10v63.578c-26.772-4.745-47.175-28.167-47.175-56.281
	c0-15.987,6.767-31.355,18.564-42.165c2.001-1.834,3.171-4.402,3.241-7.116c0.497-19.328,16.034-34.468,35.37-34.468
	s34.872,15.141,35.37,34.468c0.07,2.714,1.24,5.282,3.241,7.116c11.797,10.81,18.564,26.178,18.564,42.165
	c0,28.113-20.403,51.536-47.175,56.281v-63.578C444.819,377.474,440.342,372.997,434.82,372.997z M444.819,466.799
	c18.621-2.422,35.158-11.509,47.175-24.779v49.974h-47.175V466.799z"/>
<g>
</g>
<g>
</g>
<g>
</g>
<g>
</g>
<g>
</g>
<g>
</g>
<g>
</g>
<g>
</g>
<g>
</g>
<g>
</g>
<g>
</g>
<g>
</g>
<g>
</g>
<g>
</g>
<g>
</g>
</svg>
