<?xml version="1.0" encoding="iso-8859-1"?>
<!-- Generator: Adobe Illustrator 19.0.0, SVG Export Plug-In . SVG Version: 6.00 Build 0)  -->
<svg version="1.1" id="Capa_1" xmlns="http://www.w3.org/2000/svg" xmlns:xlink="http://www.w3.org/1999/xlink" x="0px" y="0px"
	 viewBox="0 0 512 512" style="enable-background:new 0 0 512 512;" xml:space="preserve">
<path style="fill:#FF5D5D;" d="M134.449,9.999L134.449,9.999c-68.719,0-124.426,55.708-124.426,124.426V337.48
	c0,68.718,55.707,124.426,124.426,124.426l0,0c20.168,0,36.517-16.349,36.517-36.517v-97.722c0-20.168-16.349-36.517-36.517-36.517
	h-12.651c-14.514,0-26.279-11.766-26.279-26.279v-57.836c0-14.514,11.766-26.279,26.279-26.279h12.651
	c20.168,0,36.517-16.349,36.517-36.517V46.517C170.966,26.349,154.617,9.999,134.449,9.999z"/>
<g>
	<path style="fill:#FFFFFF;" d="M134.449,9.999L134.449,9.999c-5.941,0-11.781,0.426-17.5,1.231v169.979
		c1.573-0.294,3.192-0.454,4.85-0.454h12.651c20.168,0,36.517-16.349,36.517-36.517V46.517
		C170.966,26.349,154.617,9.999,134.449,9.999z"/>
	<path style="fill:#FFFFFF;" d="M134.449,461.906c20.168,0,36.517-16.349,36.517-36.517v-97.722
		c0-20.168-16.349-36.517-36.517-36.517h-12.651c-1.658,0-3.277-0.161-4.85-0.454v169.979
		C122.667,461.48,128.508,461.906,134.449,461.906L134.449,461.906z"/>
</g>
<path style="fill:#BAEA83;" d="M382.926,103.993h-64.118c-65.749,0-119.048,53.3-119.048,119.048l0,0
	c0,36.489,16.423,69.137,42.274,90.974l-14.026,46.958l55.854-24.123c11.053,3.391,22.782,5.239,34.948,5.239h64.118
	c65.749,0,119.048-53.3,119.048-119.048l0,0C501.976,157.294,448.676,103.993,382.926,103.993z"/>
<path d="M43.906,276.905c5.523,0,9.999-4.478,9.999-9.999v-75.631c0-5.522-4.477-9.999-9.999-9.999s-9.999,4.478-9.999,9.999v75.631
	C33.907,272.427,38.383,276.905,43.906,276.905z"/>
<path d="M43.91,293.807c-2.64,0-5.21,1.07-7.079,2.931c-1.86,1.859-2.92,4.439-2.92,7.068c0,2.641,1.06,5.21,2.92,7.069
	c1.87,1.87,4.44,2.93,7.079,2.93c2.63,0,5.2-1.06,7.069-2.93c1.86-1.86,2.93-4.44,2.93-7.069s-1.07-5.2-2.93-7.068
	C49.119,294.877,46.541,293.807,43.91,293.807z"/>
<path d="M116.945,64.993c2.63,0,5.21-1.069,7.069-2.93c1.87-1.86,2.93-4.44,2.93-7.069c0-2.63-1.06-5.21-2.93-7.068
	c-1.86-1.86-4.43-2.931-7.069-2.931c-2.63,0-5.21,1.07-7.069,2.931c-1.86,1.859-2.93,4.439-2.93,7.068c0,2.641,1.07,5.21,2.93,7.069
	C111.735,63.923,114.315,64.993,116.945,64.993z"/>
<path d="M230.63,317.254l-12.204,40.858c-1.112,3.724,0.033,7.753,2.938,10.335c1.866,1.659,4.24,2.526,6.646,2.526
	c1.339,0,2.688-0.269,3.963-0.819l52.552-22.696c11.167,3.075,22.683,4.633,34.285,4.633h64.119
	c71.157,0,129.048-57.891,129.048-129.049S454.083,93.994,382.926,93.994h-64.119c-71.158,0-129.048,57.891-129.048,129.049
	C189.76,258.902,204.576,292.873,230.63,317.254z M318.808,113.993h64.119c60.13,0,109.049,48.919,109.049,109.05
	s-48.919,109.049-109.05,109.049h-64.119c-10.861,0-21.632-1.615-32.015-4.8c-2.273-0.697-4.717-0.563-6.896,0.38l-36.172,15.623
	l7.89-26.416c1.139-3.812-0.09-7.934-3.128-10.501c-24.611-20.79-38.727-51.165-38.727-83.336
	C209.759,162.912,258.678,113.993,318.808,113.993z"/>
<path d="M250.423,265.982h30.996c5.523,0,9.999-4.478,9.999-9.999s-4.477-9.999-9.999-9.999h-5.563
	c8.083-9.292,15.562-21.154,15.562-33.238c0-15.25-10.246-25.496-25.497-25.496c-14.059,0-25.497,11.437-25.497,25.496
	c0,5.522,4.477,9.999,9.999,9.999s9.999-4.478,9.999-9.999c0-3.031,2.467-5.498,5.499-5.498c4.622,0,5.499,1.933,5.499,5.498
	c0,11.562-18.142,28.699-26.919,35.181c-3.482,2.561-4.925,7.066-3.578,11.173C242.269,263.206,246.101,265.982,250.423,265.982z"/>
<path d="M311.845,236.64h21.515v19.459c0,5.522,4.477,9.999,9.999,9.999c5.523,0,9.999-4.478,9.999-9.999v-19.721
	c4.44-1.02,7.753-4.988,7.753-9.737c0-4.75-3.314-8.716-7.753-9.737v-19.656c0-5.522-4.477-9.999-9.999-9.999
	c-5.523,0-9.999,4.478-9.999,9.999v19.394h-11.516v-19.394c0-5.522-4.477-9.999-9.999-9.999s-9.999,4.478-9.999,9.999v29.393
	C301.846,232.163,306.323,236.64,311.845,236.64z"/>
<path d="M377.365,276.699c0.681,0.141,1.358,0.208,2.027,0.208c4.646,0,8.809-3.256,9.783-7.983l17.39-84.432
	c1.114-5.409-2.368-10.697-7.776-11.811c-5.409-1.119-10.696,2.367-11.811,7.775l-17.39,84.432
	C368.473,270.296,371.955,275.585,377.365,276.699z"/>
<path d="M431.326,207.235h12.759l-16.413,45.478c-1.875,5.195,0.817,10.925,6.012,12.8c1.121,0.404,2.267,0.597,3.394,0.597
	c4.095,0,7.936-2.534,9.406-6.608l21.246-58.872c1.106-3.064,0.65-6.476-1.223-9.141c-1.872-2.666-4.926-4.253-8.183-4.253h-26.998
	c-5.523,0-9.999,4.478-9.999,9.999S425.803,207.235,431.326,207.235z"/>
<path d="M502.177,480.047c-10.466-11.807-25.518-18.586-41.296-18.6c-0.017,0-0.032,0-0.048,0c-15.761,0-30.807,6.752-41.284,18.53
	l-0.172,0.193c-6.684,7.513-16.283,11.821-26.338,11.822c-10.055,0-19.656-4.309-26.339-11.821l-0.177-0.198
	c-10.477-11.776-25.519-18.527-41.279-18.527c-0.016,0-0.035,0-0.051,0c-15.779,0.015-30.831,6.796-41.297,18.604
	c-6.678,7.534-16.283,11.86-26.351,11.869c-0.01,0-0.02,0-0.03,0c-10.057,0-19.658-4.31-26.359-11.845l-0.151-0.169
	c-10.477-11.779-25.526-18.534-41.289-18.532c-15.764,0.001-30.812,6.759-41.286,18.539l-9.519,10.706
	c-1.607,1.81-3.477,1.459-4.448,1.091c-0.971-0.37-2.601-1.351-2.601-3.771v-16.068c0.862,0.016,1.724,0.033,2.59,0.033
	c25.649,0,46.517-20.867,46.517-46.517v-97.721c0-25.649-20.867-46.517-46.517-46.517H121.8c-8.977,0-16.281-7.303-16.281-16.28
	v-57.836c0-8.978,7.303-16.281,16.281-16.281h12.651c25.649,0,46.517-20.866,46.517-46.517v-97.72C180.968,20.867,160.1,0,134.451,0
	l0,0C60.327,0,0.024,60.303,0.024,134.425V337.48c0,66.425,48.433,121.742,111.837,132.516v17.943
	c0,10.067,6.081,18.886,15.491,22.463c2.828,1.075,5.745,1.598,8.624,1.598c6.703,0,13.199-2.829,17.878-8.092l9.519-10.706
	c6.684-7.516,16.285-11.827,26.342-11.828c10.058-0.001,19.661,4.309,26.363,11.844l0.151,0.169
	c10.477,11.78,25.521,18.533,41.285,18.533c0.016,0,0.032,0,0.047,0c15.78-0.014,30.833-6.795,41.3-18.603
	c6.678-7.533,16.282-11.86,26.35-11.87c0.011,0,0.021,0,0.033,0c10.055,0,19.654,4.308,26.338,11.821l0.177,0.199
	c10.475,11.773,25.522,18.526,41.282,18.526c15.759-0.001,30.806-6.755,41.28-18.53l0.172-0.193
	c6.686-7.515,16.284-11.822,26.34-11.822c0.01,0,0.021,0,0.031,0c10.067,0.009,19.671,4.334,26.349,11.867l7.137,8.052
	c3.664,4.131,9.982,4.514,14.116,0.85c4.133-3.664,4.513-9.982,0.85-14.116L502.177,480.047z M20.023,337.48V134.425
	c0-63.095,51.331-114.427,114.427-114.427c14.622,0,26.518,11.895,26.518,26.518v97.722c0,14.622-11.895,26.518-26.518,26.518h-7.5
	V95.604c0-5.522-4.477-9.999-9.999-9.999s-9.999,4.478-9.999,9.999v78.341c-12.619,5.686-21.43,18.374-21.43,33.089v57.836
	c0,14.715,8.811,27.402,21.43,33.088V417.97c0,5.522,4.477,9.999,9.999,9.999s9.999-4.478,9.999-9.999V301.148h7.5
	c14.622,0,26.518,11.895,26.518,26.518v97.722c0,14.622-11.896,26.518-26.518,26.518C71.354,451.905,20.023,400.575,20.023,337.48z"
	/>
<g>
</g>
<g>
</g>
<g>
</g>
<g>
</g>
<g>
</g>
<g>
</g>
<g>
</g>
<g>
</g>
<g>
</g>
<g>
</g>
<g>
</g>
<g>
</g>
<g>
</g>
<g>
</g>
<g>
</g>
</svg>
