<?xml version="1.0" encoding="iso-8859-1"?>
<!-- Generator: Adobe Illustrator 19.0.0, SVG Export Plug-In . SVG Version: 6.00 Build 0)  -->
<svg version="1.1" id="Capa_1" xmlns="http://www.w3.org/2000/svg" xmlns:xlink="http://www.w3.org/1999/xlink" x="0px" y="0px"
	 viewBox="0 0 511.999 511.999" style="enable-background:new 0 0 511.999 511.999;" xml:space="preserve">
<path style="fill:#FFC66C;" d="M502,351.396V201.063c0-11.046-8.954-20-20-20H298c-11.046,0-20,8.954-20,20v150.333H502z"/>
<path style="fill:#99BBFF;" d="M470,315.063H310c-17.673,0-32,14.327-32,32V475h224V347.063
	C502,329.389,487.673,315.063,470,315.063z"/>
<path style="fill:#EDF2FA;" d="M502,347.063c0-17.673-14.327-32-32-32H310c-17.673,0-32,14.327-32,32v41.508l1,15.948
	c20.435-20.435,53.565-20.435,74,0l0,0c20.435,20.435,53.565,20.435,74,0l0,0c20.435-20.435,53.565-20.435,74,0l0,0
	c0,0,0.361-1.109,1-3.082V347.063z"/>
<path style="fill:#99BBFF;" d="M438.125,243.063h-96.25c-6.558,0-11.875,5.317-11.875,11.875v48.25
	c0,6.558,5.317,11.875,11.875,11.875h96.25c6.558,0,11.875-5.317,11.875-11.875v-48.25C450,248.379,444.683,243.063,438.125,243.063
	z"/>
<path style="fill:#FFC66C;" d="M234,351.396V201.063c0-11.046-8.954-20-20-20H30c-11.046,0-20,8.954-20,20v150.333H234z"/>
<path style="fill:#99BBFF;" d="M202,315.063H42c-17.673,0-32,14.327-32,32V475h224V347.063C234,329.389,219.673,315.063,202,315.063
	z"/>
<path style="fill:#EDF2FA;" d="M234,347.063c0-17.673-14.327-32-32-32H42c-17.673,0-32,14.327-32,32v41.508l1,15.948
	c20.435-20.435,53.565-20.435,74,0l0,0c20.435,20.435,53.565,20.435,74,0l0,0c20.435-20.435,53.565-20.435,74,0l0,0
	c0,0,0.361-1.109,1-3.082V347.063z"/>
<path style="fill:#7D9BFF;" d="M170.125,243.063h-96.25c-6.558,0-11.875,5.317-11.875,11.875v48.25
	c0,6.558,5.317,11.875,11.875,11.875h96.25c6.558,0,11.875-5.317,11.875-11.875v-48.25C182,248.379,176.683,243.063,170.125,243.063
	z"/>
<g>
	<rect x="42" y="37" style="fill:#C9F3FF;" width="160" height="80"/>
	<rect x="310" y="37" style="fill:#C9F3FF;" width="160" height="80"/>
</g>
<path style="fill:#99BBFF;" d="M170.125,243.063h-96.25c-6.558,0-11.875,5.317-11.875,11.875v48.25
	c0,6.558,5.317,11.875,11.875,11.875h96.25c6.558,0,11.875-5.317,11.875-11.875v-48.25C182,248.379,176.683,243.063,170.125,243.063
	z"/>
<path d="M114.93,173.99c-1.86,1.859-2.93,4.439-2.93,7.069s1.07,5.21,2.93,7.07c1.86,1.87,4.44,2.93,7.07,2.93s5.21-1.06,7.07-2.93
	c1.86-1.86,2.93-4.44,2.93-7.07s-1.07-5.21-2.93-7.069c-1.86-1.86-4.44-2.931-7.07-2.931C119.37,171.06,116.79,172.13,114.93,173.99
	z"/>
<path d="M214,171.063h-51c-5.523,0-10,4.478-10,10s4.477,10,10,10h51c5.514,0,10,4.486,10,10v110.242
	c-6.403-3.954-13.938-6.242-22-6.242h-10.086c0.053-0.619,0.086-1.243,0.086-1.875v-48.25c0-12.062-9.813-21.875-21.875-21.875
	h-96.25c-12.062,0-21.875,9.813-21.875,21.875v48.25c0,0.632,0.033,1.256,0.086,1.875H42c-8.062,0-15.597,2.288-22,6.242V201.063
	c0-5.514,4.486-10,10-10h54c5.523,0,10-4.478,10-10s-4.477-10-10-10H30c-16.542,0-30,13.458-30,30V475c0,5.522,4.477,10,10,10h224
	c5.523,0,10-4.478,10-10V201.063C244,184.521,230.542,171.063,214,171.063z M72,303.188v-48.25c0-1.034,0.841-1.875,1.875-1.875
	h96.25c1.034,0,1.875,0.841,1.875,1.875v48.25c0,1.034-0.841,1.875-1.875,1.875h-96.25C72.841,305.063,72,304.221,72,303.188z
	 M42,325.063h31.875h96.25H202c12.131,0,22,9.869,22,22v4.333v34.454c-23.359-11.725-52.603-7.871-72.071,11.598
	c-16.503,16.502-43.355,16.503-59.858-0.001C72.602,377.979,43.359,374.125,20,385.85v-34.454v-4.333
	C20,334.932,29.869,325.063,42,325.063z M20,465v-55.212c16.604-14.669,42.053-14.075,57.929,1.802
	c12.15,12.15,28.11,18.225,44.07,18.225s31.921-6.075,44.071-18.226c15.876-15.875,41.326-16.471,57.929-1.8V465H20z"/>
<path d="M395,465c-2.64,0-5.21,1.069-7.07,2.93c-1.86,1.86-2.93,4.44-2.93,7.07s1.07,5.21,2.93,7.069
	c1.86,1.86,4.44,2.931,7.07,2.931s5.21-1.07,7.07-2.931c1.86-1.859,2.93-4.439,2.93-7.069s-1.07-5.21-2.93-7.07S397.63,465,395,465z
	"/>
<path d="M42,127h160c5.523,0,10-4.478,10-10V37c0-5.522-4.477-10-10-10H42c-5.523,0-10,4.478-10,10v80C32,122.522,36.477,127,42,127
	z M52,47h140v60H52V47z"/>
<path d="M310,127h160c5.523,0,10-4.478,10-10V37c0-5.522-4.477-10-10-10H310c-5.523,0-10,4.478-10,10v80
	C300,122.522,304.477,127,310,127z M320,47h140v60H320V47z"/>
<path d="M482,171.063H298c-16.542,0-30,13.458-30,30V475c0,5.522,4.477,10,10,10h66c5.523,0,10-4.478,10-10s-4.477-10-10-10h-56
	v-55.212c16.604-14.669,42.053-14.075,57.929,1.802c12.15,12.15,28.11,18.225,44.07,18.225s31.921-6.075,44.071-18.226
	c15.876-15.875,41.326-16.471,57.929-1.8V465h-53c-5.523,0-10,4.478-10,10s4.477,10,10,10h63c5.523,0,10-4.478,10-10V201.063
	C512,184.521,498.542,171.063,482,171.063z M298,191.063h184c5.514,0,10,4.486,10,10v110.242c-6.403-3.954-13.938-6.242-22-6.242
	h-10.086c0.053-0.619,0.086-1.243,0.086-1.875v-48.25c0-12.062-9.813-21.875-21.875-21.875h-96.25
	c-12.062,0-21.875,9.813-21.875,21.875v48.25c0,0.632,0.033,1.256,0.086,1.875H310c-8.062,0-15.597,2.288-22,6.242V201.063
	C288,195.549,292.486,191.063,298,191.063z M340,303.188v-48.25c0-1.034,0.841-1.875,1.875-1.875h96.25
	c1.034,0,1.875,0.841,1.875,1.875v48.25c0,1.034-0.841,1.875-1.875,1.875h-96.25C340.841,305.063,340,304.221,340,303.188z
	 M419.929,397.447c-16.503,16.502-43.355,16.503-59.858-0.001c-19.469-19.467-48.712-23.322-72.071-11.597v-34.454v-4.333
	c0-12.131,9.869-22,22-22h31.875h96.25H470c12.131,0,22,9.869,22,22v4.333v34.454C468.641,374.124,439.397,377.979,419.929,397.447z
	"/>
<g>
</g>
<g>
</g>
<g>
</g>
<g>
</g>
<g>
</g>
<g>
</g>
<g>
</g>
<g>
</g>
<g>
</g>
<g>
</g>
<g>
</g>
<g>
</g>
<g>
</g>
<g>
</g>
<g>
</g>
</svg>
