<?xml version="1.0" encoding="iso-8859-1"?>
<!-- Generator: Adobe Illustrator 19.0.0, SVG Export Plug-In . SVG Version: 6.00 Build 0)  -->
<svg version="1.1" id="Capa_1" xmlns="http://www.w3.org/2000/svg" xmlns:xlink="http://www.w3.org/1999/xlink" x="0px" y="0px"
	 viewBox="0 0 512 512" style="enable-background:new 0 0 512 512;" xml:space="preserve">
<circle style="fill:#C9F3FF;" cx="256.007" cy="255.987" r="191.491"/>
<path style="fill:#72D8FF;" d="M10.023,239.05v238.931c0,13.251,10.742,23.994,23.994,23.994l0,0
	c13.257,0,24.004-10.747,24.004-24.004V282.436l-0.008-6.733l32.006-28.53V89.996C90.019,45.815,54.203,10,10.023,10l0,0l0,0V156.96
	C10.023,156.96,10.023,239.05,10.023,239.05z"/>
<circle style="fill:#FFFFFF;" cx="256.007" cy="255.987" r="142.493"/>
<path style="fill:#72D8FF;" d="M394.026,135.201c0,13.33,5.409,26.091,14.988,35.36l0,0c9.58,9.27,14.988,22.03,14.988,35.36v272.08
	c0,13.254,10.744,23.999,23.999,23.999l0,0C461.255,502,472,491.256,472,478.002V205.923c0-13.33,5.409-26.091,14.988-35.36l0,0
	c9.58-9.27,14.988-22.03,14.988-35.36v-7.221H394.026V135.201z"/>
<path style="fill:#CF8670;" d="M288.998,170.588c-22.607-0.638-42.62,10.659-54.201,28.053c-6.431,9.658-16.185,16.644-27.354,19.79
	c-21.756,6.129-39.454,23.925-44.243,47.744c-6.781,33.724,14.576,66.827,48.371,73.247
	c80.428,15.28,138.496-60.946,138.493-106.866C350.061,199.034,322.506,171.533,288.998,170.588z"/>
<path d="M356.696,366.772c2.589,0,5.182-0.989,7.147-2.954c3.902-3.902,3.889-10.209-0.009-14.116
	c-3.898-3.905-10.238-3.901-14.15-0.008c-0.022,0.022-0.112,0.112-0.135,0.136c-3.867,3.923-3.783,10.183,0.127,14.064
	C351.613,365.818,354.152,366.772,356.696,366.772z"/>
<path d="M256.104,408.537c26.543,0,53.263-6.927,77.343-21.138c4.756-2.808,6.336-8.938,3.53-13.693
	c-2.807-4.756-8.938-6.336-13.694-3.53c-52.008,30.695-118.199,22.265-160.961-20.499c-25.026-25.025-38.808-58.298-38.808-93.688
	s13.782-68.664,38.808-93.688c25.025-25.026,58.298-38.808,93.689-38.808s68.664,13.781,93.689,38.808
	c41.618,41.617,50.752,106.577,22.211,157.971c-2.681,4.828-0.94,10.915,3.888,13.596c4.829,2.684,10.915,0.941,13.596-3.888
	c15.763-28.385,22.076-61.835,17.775-94.187c-4.443-33.427-19.426-63.73-43.329-87.634c-28.804-28.803-67.099-44.665-107.831-44.665
	c-40.733,0-79.028,15.862-107.831,44.665c-28.804,28.801-44.666,67.096-44.666,107.829s15.862,79.028,44.665,107.831
	C177.599,393.238,216.656,408.537,256.104,408.537z"/>
<path d="M10.027,209.559c2.63,0,5.2-1.069,7.07-2.93c1.86-1.87,2.93-4.439,2.93-7.07c0-2.64-1.07-5.22-2.93-7.069
	c-1.86-1.87-4.44-2.931-7.07-2.931c-2.64,0-5.21,1.061-7.07,2.931c-1.87,1.85-2.93,4.43-2.93,7.069c0,2.631,1.06,5.2,2.93,7.07
	C4.817,208.49,7.387,209.559,10.027,209.559z"/>
<path d="M96.672,254.639c2.129-1.897,3.346-4.613,3.346-7.465V89.996C100.018,40.372,59.646,0,10.023,0c-5.523,0-10,4.478-10,10
	V156.96c0,5.522,4.477,10,10,10s10-4.478,10-10V20.711c33.876,4.867,59.997,34.083,59.997,69.285v152.697l-28.661,25.547
	c-2.132,1.9-3.35,4.621-3.346,7.477l0.008,6.722v195.535c0,7.723-6.283,14.004-14.004,14.004c-7.717,0-13.994-6.277-13.994-13.993
	V239.051c0-5.522-4.477-10-10-10s-10,4.478-10,10v238.931c0,18.743,15.249,33.992,33.993,33.992
	c18.749,0,34.003-15.254,34.003-34.003V282.424l-0.002-2.244L96.672,254.639z"/>
<path d="M121.423,129.767c2.539,0,5.08-0.961,7.028-2.887c34.188-33.782,79.491-52.387,127.56-52.387
	c34.249,0,67.601,9.586,96.449,27.719c4.675,2.941,10.848,1.531,13.787-3.144c2.939-4.676,1.531-10.849-3.145-13.787
	c-32.04-20.141-69.073-30.786-107.093-30.786c-53.365,0-103.66,20.655-141.617,58.16c-3.928,3.882-3.966,10.213-0.084,14.141
	C116.266,128.776,118.844,129.767,121.423,129.767z"/>
<path d="M289.28,160.592L289.28,160.592c-25.288-0.692-48.779,11.438-62.807,32.506c-5.065,7.605-12.786,13.184-21.742,15.707
	c-26.283,7.405-45.954,28.633-51.335,55.398c-3.879,19.291-0.012,38.836,10.888,55.034c10.636,15.807,26.767,26.464,45.419,30.008
	c7.51,1.427,15.022,2.132,22.484,2.132c28.306,0,55.834-10.152,79.28-29.563c29.069-24.068,48.598-59.938,48.595-89.26
	C360.06,193.976,328.307,161.693,289.28,160.592z M298.714,306.41c-17.653,14.615-46.782,30.5-85.277,23.188
	c-13.365-2.539-24.929-10.185-32.56-21.525c-7.896-11.732-10.691-25.913-7.874-39.927c3.895-19.37,18.13-34.732,37.152-40.092
	c13.548-3.816,25.255-12.295,32.964-23.873c9.901-14.868,26.286-23.62,44.065-23.62c0.509,0,1.021,0.007,1.531,0.021
	c28.312,0.799,51.346,24.114,51.349,51.974C340.066,255.881,323.062,286.251,298.714,306.41z"/>
<path d="M303.768,216.022c-5.523,0-10,4.478-10,10v26.639c0,5.522,4.477,9.999,10,9.999s10-4.478,10-9.999v-26.639
	C313.768,220.5,309.291,216.022,303.768,216.022z"/>
<path d="M216.897,249.988c-5.523,0-10,4.478-10,10v44.897c0,5.522,4.477,10,10,10c5.523,0,10-4.478,10-10v-44.897
	C226.897,254.466,222.42,249.988,216.897,249.988z"/>
<path d="M262.943,212.567c-5.523,0-10,4.478-10,10v56.457c0,5.522,4.477,10,10,10s10-4.478,10-10v-56.457
	C272.943,217.044,268.466,212.567,262.943,212.567z"/>
<path d="M501.977,0c-5.523,0-10,4.478-10,10V117.98h-15.975V10.127c0-5.522-4.477-10-10-10s-10,4.478-10,10V117.98h-15.99V10.127
	c0-5.522-4.477-10-10-10c-5.523,0-10,4.478-10,10V117.98h-15.99V10c0-5.522-4.477-10-10-10s-10,4.478-10,10v125.202
	c0,15.948,6.574,31.456,18.035,42.547c7.59,7.345,11.942,17.613,11.942,28.175v149.368c-3.39-0.232-6.814,1.259-8.897,4.251
	c-6.125,8.796-13.108,17.132-20.756,24.78c-34.28,34.281-79.859,53.16-128.34,53.16s-94.059-18.879-128.341-53.16
	c-6.371-6.37-12.299-13.24-17.623-20.421c-3.289-4.437-9.552-5.366-13.987-2.078c-4.437,3.289-5.367,9.552-2.078,13.987
	c5.907,7.969,12.483,15.59,19.547,22.653c38.058,38.058,88.66,59.018,142.482,59.018s104.423-20.96,142.481-59.018
	c5.501-5.501,10.686-11.329,15.511-17.407v96.946c0,18.747,15.251,33.998,33.998,33.998s33.998-15.251,33.998-33.998V205.923
	c0-10.561,4.353-20.831,11.942-28.175c11.461-11.09,18.035-26.599,18.035-42.547V10C511.977,4.478,507.5,0,501.977,0z
	 M480.036,163.376C468.574,174.466,462,189.975,462,205.923v272.08c0,7.72-6.28,13.999-13.999,13.999
	c-7.72,0-13.999-6.28-13.999-13.999v-272.08c0-15.948-6.574-31.455-18.034-42.547c-6.923-6.698-11.14-15.83-11.83-25.396h87.729
	C491.175,147.546,486.957,156.677,480.036,163.376z"/>
<g>
</g>
<g>
</g>
<g>
</g>
<g>
</g>
<g>
</g>
<g>
</g>
<g>
</g>
<g>
</g>
<g>
</g>
<g>
</g>
<g>
</g>
<g>
</g>
<g>
</g>
<g>
</g>
<g>
</g>
</svg>
