<?xml version="1.0" encoding="iso-8859-1"?>
<!-- Generator: Adobe Illustrator 19.0.0, SVG Export Plug-In . SVG Version: 6.00 Build 0)  -->
<svg version="1.1" id="Capa_1" xmlns="http://www.w3.org/2000/svg" xmlns:xlink="http://www.w3.org/1999/xlink" x="0px" y="0px"
	 viewBox="0 0 512 512" style="enable-background:new 0 0 512 512;" xml:space="preserve">
<circle style="fill:#C9F3FF;" cx="256" cy="256" r="246"/>
<path style="fill:#FFFFFF;" d="M439.707,280.65c0-26.176-16.434-49.398-41.804-63.912c-21.703-12.416-38.949-31.517-48.928-54.444
	C333.018,125.633,296.478,100,253.942,100c-42.948,0-79.791,26.13-95.503,63.359c-9.68,22.936-26.227,42.112-47.406,55.198
	c-23.621,14.595-38.74,36.986-38.74,62.093c0,30.522,22.345,57.02,55.147,70.382c22.408,9.128,40.838,25.643,53.808,46.069
	c15.262,24.035,42.114,39.985,72.694,39.985c30.513,0,57.312-15.881,72.591-39.828c13.262-20.787,33.133-36.566,56.127-45.469
	C416.496,338.688,439.707,311.758,439.707,280.65z"/>
<circle style="fill:#FFC66C;" cx="256" cy="266.11" r="79.63"/>
<path d="M253.941,447.086c-33.061,0-63.392-16.682-81.135-44.625c-12.414-19.549-29.406-34.13-49.14-42.169
	c-37.856-15.42-61.374-45.938-61.374-79.643c0-27.793,15.849-53.526,43.483-70.6c19.561-12.086,34.585-29.576,43.449-50.579
	C167.036,117.269,208.14,90,253.941,90c45.24,0,86.143,26.811,104.202,68.304c9.033,20.752,24.917,38.422,44.726,49.754
	c29.328,16.778,46.838,43.916,46.838,72.592c0,34.482-24.308,65.314-63.438,80.464c-21.252,8.229-39.473,22.976-51.307,41.523
	C317.205,430.47,286.917,447.086,253.941,447.086z M253.941,110c-37.742,0-71.613,22.471-86.29,57.247
	c-10.487,24.851-28.248,45.535-51.363,59.817c-21.604,13.349-33.995,32.879-33.995,53.585c0,25.409,18.744,48.83,48.919,61.121
	c23.603,9.614,43.824,26.894,58.478,49.97c14.055,22.132,38.074,35.346,64.252,35.346c26.11,0,50.096-13.161,64.16-35.207
	c14.108-22.111,35.753-39.661,60.947-49.416c31.247-12.099,50.658-35.783,50.658-61.813c0-21.732-13.402-41.864-36.77-55.231
	c-23.521-13.457-42.391-34.457-53.132-59.132C324.923,132.093,291.22,110,253.941,110z"/>
<path d="M256,355.737c-49.423,0-89.631-40.208-89.631-89.631s40.208-89.631,89.631-89.631s89.631,40.208,89.631,89.631
	S305.423,355.737,256,355.737z M256,196.475c-38.395,0-69.631,31.236-69.631,69.631s31.236,69.631,69.631,69.631
	s69.631-31.236,69.631-69.631C325.631,227.711,294.395,196.475,256,196.475z"/>
<path d="M431.937,437.937c-2.56,0-5.118-0.977-7.071-2.929c-3.905-3.905-3.905-10.237,0-14.143c0.008-0.007,0.086-0.087,0.093-0.095
	c3.87-3.94,10.201-3.998,14.142-0.13c3.941,3.869,3.999,10.201,0.13,14.142l-7.136-7.006l7.104,7.038l-0.19,0.193
	C437.055,436.96,434.496,437.937,431.937,437.937z"/>
<path d="M256,512c-68.38,0-132.667-26.629-181.02-74.98C26.629,388.667,0,324.38,0,256S26.629,123.333,74.98,74.981
	C123.333,26.628,187.62,0,256,0s132.667,26.628,181.02,74.981C485.371,123.333,512,187.62,512,256
	c0,54.171-16.711,105.944-48.326,149.723c-3.234,4.478-9.484,5.484-13.962,2.253c-4.478-3.233-5.486-9.484-2.253-13.962
	C476.598,353.665,492,305.94,492,256c0-130.131-105.869-236-236-236S20,125.869,20,256s105.869,236,236,236
	c50.218,0,98.158-15.559,138.639-44.993c4.467-3.248,10.721-2.26,13.969,2.207s2.26,10.721-2.207,13.969
	C362.479,495.119,310.472,512,256,512z"/>
<path d="M392.261,130.734c-2.571,0-5.142-0.985-7.097-2.955C350.736,93.099,304.865,74,256,74c-13.521,0-27.001,1.488-40.067,4.422
	c-5.395,1.212-10.738-2.177-11.948-7.565c-1.21-5.389,2.177-10.738,7.565-11.948C226.052,55.651,241.008,54,256,54
	c54.234,0,105.146,21.198,143.357,59.688c3.891,3.919,3.868,10.251-0.052,14.142C397.355,129.767,394.808,130.734,392.261,130.734z"
	/>
<path d="M414.5,157c-2.63,0-5.21-1.07-7.07-2.93s-2.93-4.44-2.93-7.07s1.069-5.21,2.93-7.07c1.86-1.86,4.44-2.93,7.07-2.93
	s5.21,1.07,7.069,2.93c1.86,1.86,2.931,4.44,2.931,7.07s-1.07,5.21-2.931,7.07C419.71,155.93,417.13,157,414.5,157z"/>
<path d="M382.5,285.5c-2.63,0-5.21-1.07-7.07-2.931c-1.86-1.859-2.93-4.439-2.93-7.069s1.069-5.21,2.93-7.07s4.44-2.93,7.07-2.93
	s5.21,1.069,7.069,2.93c1.86,1.86,2.931,4.44,2.931,7.07s-1.07,5.21-2.931,7.069C387.71,284.43,385.13,285.5,382.5,285.5z"/>
<path d="M128,285.5c-2.63,0-5.21-1.07-7.07-2.931c-1.86-1.859-2.93-4.439-2.93-7.069s1.069-5.21,2.93-7.07s4.44-2.93,7.07-2.93
	c2.63,0,5.21,1.069,7.069,2.93c1.86,1.86,2.931,4.44,2.931,7.07s-1.07,5.21-2.931,7.069C133.21,284.43,130.63,285.5,128,285.5z"/>
<path d="M82.33,180c-2.63,0-5.21-1.07-7.07-2.93s-2.93-4.44-2.93-7.07s1.069-5.21,2.93-7.07c1.86-1.86,4.44-2.93,7.07-2.93
	s5.21,1.07,7.069,2.93c1.87,1.86,2.931,4.44,2.931,7.07s-1.061,5.21-2.931,7.07C87.54,178.93,84.96,180,82.33,180z"/>
<path d="M128,126.33c-2.63,0-5.21-1.06-7.07-2.93c-1.86-1.86-2.93-4.43-2.93-7.07c0-2.63,1.069-5.21,2.93-7.07s4.44-2.93,7.07-2.93
	c2.63,0,5.21,1.07,7.069,2.93c1.86,1.86,2.931,4.44,2.931,7.07c0,2.64-1.07,5.21-2.931,7.07C133.21,125.27,130.63,126.33,128,126.33
	z"/>
<path d="M124.5,166c-2.641,0-5.221-1.07-7.08-2.93c-1.86-1.86-2.92-4.44-2.92-7.07s1.06-5.21,2.92-7.07
	c1.859-1.86,4.439-2.93,7.08-2.93c2.63,0,5.2,1.07,7.06,2.93c1.87,1.86,2.931,4.44,2.931,7.07s-1.061,5.21-2.931,7.07
	C129.7,164.93,127.13,166,124.5,166z"/>
<path d="M201,173.67c-2.63,0-5.21-1.07-7.07-2.93s-2.93-4.44-2.93-7.07s1.069-5.21,2.93-7.08c1.86-1.86,4.44-2.92,7.07-2.92
	s5.21,1.06,7.069,2.92c1.86,1.87,2.931,4.45,2.931,7.08s-1.07,5.21-2.931,7.07C206.21,172.6,203.63,173.67,201,173.67z"/>
<g>
</g>
<g>
</g>
<g>
</g>
<g>
</g>
<g>
</g>
<g>
</g>
<g>
</g>
<g>
</g>
<g>
</g>
<g>
</g>
<g>
</g>
<g>
</g>
<g>
</g>
<g>
</g>
<g>
</g>
</svg>
