<?xml version="1.0" encoding="iso-8859-1"?>
<!-- Generator: Adobe Illustrator 19.0.0, SVG Export Plug-In . SVG Version: 6.00 Build 0)  -->
<svg version="1.1" id="Capa_1" xmlns="http://www.w3.org/2000/svg" xmlns:xlink="http://www.w3.org/1999/xlink" x="0px" y="0px"
	 viewBox="0 0 512 512" style="enable-background:new 0 0 512 512;" xml:space="preserve">
<path style="fill:#72D8FF;" d="M129.569,256c0-26.51-21.49-48-48-48c-26.509,0-48,21.49-48,48h2.537v34.945h90.927V256H129.569z"/>
<rect x="312.12" y="10" style="fill:#FF5D5D;" width="75.76" height="48.48"/>
<path style="fill:#FE8F8D;" d="M381.683,143.576l42.567,11.25c15.178,4.011,25.75,17.741,25.75,33.439V276H349.937h0.126H250
	v-87.735c0-15.698,10.572-29.428,25.749-33.439l42.567-11.25H381.683z"/>
<polygon style="fill:#FF5D5D;" points="379.63,112.219 379.63,143.576 350,156.687 350,126.526 350,125.369 350,156.687 
	320.37,143.576 320.37,112.219 "/>
<path style="fill:#FFCDAC;" d="M387.879,50.909v32.696c0,20.887-16.959,37.819-37.879,37.819l0,0
	c-20.92,0-37.879-16.932-37.879-37.819V50.909H387.879z"/>
<rect x="10" y="276" style="fill:#FEDA9B;" width="492" height="48"/>
<rect x="54" y="324" style="fill:#FFC66C;" width="404" height="178"/>
<path d="M342.38,358.91c-1.86,1.859-2.93,4.439-2.93,7.069s1.069,5.21,2.93,7.08c1.87,1.86,4.439,2.92,7.07,2.92
	c2.64,0,5.21-1.06,7.069-2.92c1.87-1.87,2.931-4.45,2.931-7.08s-1.061-5.21-2.931-7.069c-1.859-1.86-4.43-2.931-7.069-2.931
	C346.819,355.979,344.25,357.05,342.38,358.91z"/>
<path d="M458,389c-2.63,0-5.21,1.069-7.07,2.93S448,396.37,448,399s1.069,5.21,2.93,7.069c1.86,1.86,4.44,2.931,7.07,2.931
	s5.21-1.07,7.069-2.931C466.93,404.21,468,401.63,468,399s-1.07-5.21-2.931-7.07C463.21,390.069,460.63,389,458,389z"/>
<path d="M43.569,256c0-20.953,17.047-38,38-38s38,17.047,38,38c0,5.522,4.478,10,10,10s10-4.478,10-10
	c0-28.57-20.77-52.365-48-57.119v-4.214c0-0.056-0.007-0.111-0.008-0.167H92c5.522,0,10-4.477,10-10s-4.478-10-10-10H71.138
	c-5.522,0-10,4.477-10,10s4.478,10,10,10h0.44c-0.001,0.056-0.008,0.11-0.008,0.167v4.214c-27.23,4.755-48,28.549-48,57.119
	c0,5.522,4.478,10,10,10S43.569,261.522,43.569,256z"/>
<path d="M502,266h-42v-77.735c0-20.215-13.649-37.941-33.193-43.107l-37.177-9.826v-23.113c0-0.55-0.056-1.086-0.142-1.613
	c5.288-7.689,8.391-16.989,8.391-27.002v-25.12v-7.576V10c0-5.523-4.478-10-10-10h-75.758c-5.522,0-10,4.477-10,10v40.909v7.576
	v25.12c0,10.013,3.103,19.312,8.391,27.002c-0.085,0.526-0.142,1.062-0.142,1.613v23.113l-37.177,9.826
	C253.649,150.324,240,168.05,240,188.265V266H129.569h-96H10c-5.522,0-10,4.478-10,10v48c0,5.522,4.478,10,10,10h34v168
	c0,5.522,4.478,10,10,10h404c5.522,0,10-4.478,10-10v-64.914c0-5.522-4.478-10-10-10s-10,4.478-10,10V492H64V375.983h248.121
	c5.522,0,10-4.478,10-10s-4.478-10-10-10H64V334h384v23c0,5.522,4.478,10,10,10s10-4.478,10-10v-23h34c5.522,0,10-4.478,10-10v-48
	C512,270.478,507.522,266,502,266z M440,188.265V266h-20v-64c0-5.523-4.478-10-10-10s-10,4.477-10,10v64h-40V163.197l21.235-9.397
	l40.46,10.694C432.473,167.343,440,177.118,440,188.265z M360,130.367c3.354-0.715,6.575-1.786,9.63-3.164v9.863l-9.63,4.261
	V130.367z M377.879,83.605c0,15.339-12.507,27.819-27.879,27.819s-27.879-12.479-27.879-27.819v-15.12h55.758V83.605z
	 M330.37,127.203c3.055,1.378,6.276,2.449,9.63,3.164v10.96l-9.63-4.261V127.203z M322.121,20h55.758v28.485h-55.758V20z
	 M260,188.265c0-11.147,7.527-20.922,18.305-23.771l40.46-10.694L340,163.197V266h-38.013v-64c0-5.523-4.478-10-10-10
	s-10,4.477-10,10v64H260V188.265z M492,314H20v-28h472V314z"/>
<path d="M376.93,187.59c-1.86,1.87-2.93,4.44-2.93,7.08c0,2.63,1.069,5.21,2.93,7.07s4.44,2.93,7.07,2.93s5.21-1.07,7.069-2.93
	c1.86-1.86,2.931-4.44,2.931-7.07c0-2.64-1.07-5.21-2.931-7.08c-1.859-1.86-4.439-2.92-7.069-2.92
	C381.359,184.67,378.79,185.73,376.93,187.59z"/>
<g>
</g>
<g>
</g>
<g>
</g>
<g>
</g>
<g>
</g>
<g>
</g>
<g>
</g>
<g>
</g>
<g>
</g>
<g>
</g>
<g>
</g>
<g>
</g>
<g>
</g>
<g>
</g>
<g>
</g>
</svg>
