<?xml version="1.0" encoding="iso-8859-1"?>
<!-- Generator: Adobe Illustrator 19.0.0, SVG Export Plug-In . SVG Version: 6.00 Build 0)  -->
<svg version="1.1" id="Capa_1" xmlns="http://www.w3.org/2000/svg" xmlns:xlink="http://www.w3.org/1999/xlink" x="0px" y="0px"
	 viewBox="0 0 512.001 512.001" style="enable-background:new 0 0 512.001 512.001;" xml:space="preserve">
<path style="fill:#99BBFF;" d="M371.842,348.717h60.132c17.503,0,31.692-14.189,31.692-31.692V225h-69.667v-40.667h108V327.49
	c0,36.718-29.764,66.485-66.482,66.49l-88.394,0.005L371.842,348.717z"/>
<path style="fill:#C9F3FF;" d="M394,150v79.793c0,88.111-36.721,172.236-101.332,232.145l0,0H111.332l0,0
	C46.72,402.029,10,317.904,10,229.793V150H394z"/>
<path style="fill:#99BBFF;" d="M374,502H49.999c-22.091,0-40-17.909-40-40l0,0h404l0,0C414,484.091,396.091,502,374,502z"/>
<path d="M209.969,492c-2.64,0-5.21,1.069-7.07,2.93c-1.869,1.86-2.93,4.44-2.93,7.07s1.061,5.21,2.93,7.069
	c1.86,1.86,4.431,2.931,7.07,2.931c2.63,0,5.21-1.07,7.07-2.931c1.859-1.859,2.93-4.439,2.93-7.069c0-2.641-1.07-5.21-2.93-7.07
	C215.179,493.069,212.599,492,209.969,492z"/>
<path d="M119.709,157.07c1.859-1.86,2.93-4.44,2.93-7.07s-1.07-5.21-2.93-7.07s-4.44-2.93-7.07-2.93s-5.21,1.07-7.07,2.93
	c-1.859,1.86-2.93,4.44-2.93,7.07s1.07,5.21,2.93,7.07s4.44,2.93,7.07,2.93S117.849,158.93,119.709,157.07z"/>
<path d="M502,174.334h-98v-24.333c0-5.523-4.478-10-10-10H225.516c4.982-13.362,2.821-28.63-6.494-40.326l-3.715-4.664
	c-4.619-5.799-4.626-13.905-0.017-19.712c3.433-4.326,2.71-10.616-1.616-14.049c-4.327-3.435-10.616-2.71-14.05,1.616
	c-10.43,13.14-10.414,31.482,0.038,44.605l3.715,4.665c6.292,7.899,6.302,18.941,0.022,26.852l-0.804,1.013h-47.096
	c-5.522,0-10,4.477-10,10s4.478,10,10,10h228.5v69.793c0,83.749-34.681,164.482-95.291,222.145H115.291
	C54.681,394.277,20,313.543,20,229.794v-69.793h52.75c5.522,0,10-4.477,10-10s-4.478-10-10-10H10c-5.522,0-10,4.477-10,10v79.793
	c0,82.43,31.551,162.114,87.278,222.207H10c-5.522,0-10,4.478-10,10c0,27.57,22.43,50,50,50h112.5c5.522,0,10-4.478,10-10
	s-4.478-10-10-10H50c-13.037,0-24.159-8.359-28.286-20h380.572c-4.127,11.641-15.249,20-28.286,20H252c-5.522,0-10,4.478-10,10
	s4.478,10,10,10h122c27.57,0,50-22.43,50-50c0-5.522-4.478-10-10-10h-97.278c13.811-14.893,26.136-30.987,36.865-48.03
	c0.098,0.003,0.194,0.015,0.293,0.015l81.64-0.005c42.172-0.005,76.481-34.317,76.481-76.489V184.334
	C512,178.811,507.522,174.334,502,174.334z M492,327.49c0,31.145-25.339,56.486-56.483,56.489l-70.316,0.004
	c24.355-45.516,37.888-96.622,38.731-148.984h49.735v82.025c0,11.961-9.731,21.691-21.692,21.691H405c-5.522,0-10,4.478-10,10
	s4.478,10,10,10h26.975c22.989,0,41.692-18.703,41.692-41.691v-92.025c0-5.523-4.478-10-10-10H404v-20.667h88L492,327.49L492,327.49
	z"/>
<path d="M106.05,53.053c6.292,7.9,6.302,18.942,0.023,26.852l-3.808,4.796c-3.434,4.325-2.711,10.616,1.614,14.05
	c1.839,1.46,4.032,2.168,6.211,2.168c2.946,0,5.864-1.296,7.839-3.783l3.809-4.797c12.099-15.243,12.081-36.522-0.045-51.747
	l-3.715-4.663c-4.619-5.799-4.625-13.905-0.016-19.712c3.433-4.326,2.71-10.616-1.616-14.049c-4.327-3.435-10.616-2.71-14.05,1.616
	c-10.43,13.14-10.414,31.483,0.038,44.607L106.05,53.053z"/>
<path d="M300.706,53.053c6.291,7.9,6.301,18.942,0.023,26.852l-3.808,4.796c-3.434,4.325-2.711,10.616,1.614,14.05
	c1.839,1.46,4.032,2.168,6.211,2.168c2.946,0,5.864-1.296,7.839-3.783l3.809-4.797c12.098-15.244,12.08-36.522-0.045-51.747
	l-3.715-4.663c-4.619-5.8-4.626-13.906-0.017-19.712c3.433-4.326,2.71-10.616-1.616-14.049c-4.327-3.435-10.616-2.71-14.05,1.616
	c-10.43,13.14-10.414,31.482,0.039,44.607L300.706,53.053z"/>
<g>
</g>
<g>
</g>
<g>
</g>
<g>
</g>
<g>
</g>
<g>
</g>
<g>
</g>
<g>
</g>
<g>
</g>
<g>
</g>
<g>
</g>
<g>
</g>
<g>
</g>
<g>
</g>
<g>
</g>
</svg>
