<?xml version="1.0" encoding="iso-8859-1"?>
<!-- Generator: Adobe Illustrator 19.0.0, SVG Export Plug-In . SVG Version: 6.00 Build 0)  -->
<svg version="1.1" id="Capa_1" xmlns="http://www.w3.org/2000/svg" xmlns:xlink="http://www.w3.org/1999/xlink" x="0px" y="0px"
	 viewBox="0 0 512 512" style="enable-background:new 0 0 512 512;" xml:space="preserve">
<circle style="fill:#C9F3FF;" cx="256.002" cy="256.032" r="245.964"/>
<circle style="fill:#FFFFFF;" cx="256.002" cy="256.032" r="195.901"/>
<circle style="fill:#FE8F8D;" cx="256.002" cy="256.032" r="21.997"/>
<path d="M501.968,246.166c-0.002,0-0.003,0-0.005,0c-5.52,0-9.996,4.473-9.999,9.994c-0.032,62.982-24.576,122.195-69.113,166.731
	c-44.567,44.568-103.824,69.113-166.853,69.113S133.715,467.458,89.146,422.89c-44.568-44.567-69.113-103.825-69.113-166.853
	c0-63.029,24.544-122.285,69.113-166.853c71.522-71.524,180.494-89.558,271.162-44.88c4.95,2.44,10.947,0.403,13.388-4.549
	c2.441-4.953,0.404-10.947-4.549-13.388C270.793-22.098,152.588-2.535,75.006,75.044C26.662,123.389,0.037,187.666,0.037,256.037
	c0,68.37,26.625,132.648,74.969,180.993C123.352,485.376,187.63,512,256,512s132.648-26.625,180.993-74.969
	c48.309-48.31,74.934-112.542,74.969-180.861C511.964,250.647,507.491,246.169,501.968,246.166z"/>
<path d="M391.786,63.007l0.233,0.165c1.749,1.228,3.753,1.818,5.738,1.818c3.147,0,6.244-1.482,8.191-4.252
	c3.174-4.519,2.084-10.754-2.436-13.929l-0.261-0.183c-4.522-3.167-10.758-2.067-13.925,2.458
	C386.162,53.606,387.263,59.84,391.786,63.007z"/>
<path d="M451.749,266.619c0.016,0,0.03,0.001,0.046,0.001c5.501,0,9.974-4.447,9.998-9.955l0.001-0.701
	c0-5.522-4.477-9.999-9.999-9.999c-5.521,0-9.999,4.476-9.999,9.999l-0.001,0.612C441.771,262.098,446.227,266.594,451.749,266.619z
	"/>
<path d="M255.824,441.938c-102.546,0-185.973-83.427-185.973-185.973c0-66.412,34.994-126.743,90.972-159.937
	c-0.65,4.197,1.442,8.509,5.452,10.49c1.425,0.704,2.936,1.038,4.422,1.038c3.684,0,7.228-2.045,8.972-5.571l11.076-22.414
	c2.447-4.95,0.417-10.946-4.533-13.393l-22.415-11.077c-4.952-2.447-10.946-0.416-13.394,4.534
	c-2.447,4.95-0.417,10.946,4.533,13.393l3.168,1.565c-66.356,35.699-108.25,104.896-108.25,181.37
	c0,113.572,92.397,205.97,205.97,205.97c47.535,0,93.914-16.58,130.593-46.685c36.175-29.692,61.375-71.123,70.959-116.661
	c1.138-5.403-2.321-10.706-7.725-11.843c-5.401-1.141-10.705,2.321-11.843,7.725C419.823,379.918,343.287,441.938,255.824,441.938z"
	/>
<path d="M225.612,246.039h-82.597c-5.521,0-9.999,4.476-9.999,9.999c0,5.521,4.477,9.999,9.999,9.999h82.597
	c3.171,9.611,10.777,17.217,20.388,20.388v109.164c0,5.521,4.477,9.999,9.999,9.999c5.521,0,9.999-4.477,9.999-9.999V286.424
	c12.759-4.209,21.997-16.237,21.997-30.387c0-17.642-14.353-31.995-31.995-31.995C241.849,224.042,229.822,233.28,225.612,246.039z
	 M255.999,244.039c6.616,0,11.998,5.382,11.998,11.998c0,6.616-5.382,11.998-11.998,11.998s-11.998-5.382-11.998-11.998
	C244.001,249.421,249.383,244.039,255.999,244.039z"/>
<path d="M249.901,188.804c-3.48,2.56-4.924,7.066-3.577,11.172c1.348,4.105,5.18,6.882,9.501,6.882h46.177
	c5.521,0,9.999-4.476,9.999-9.999s-4.477-9.999-9.999-9.999h-19.487C296.408,172.914,312,152.742,312,132.446
	c0-19.79-13.297-33.087-33.087-33.087c-18.244,0-33.087,14.843-33.087,33.087c0,5.522,4.477,9.999,9.999,9.999
	c5.521,0,9.999-4.476,9.999-9.999c0-7.218,5.872-13.09,13.09-13.09c13.09,0,13.09,9.853,13.09,13.09
	C292.002,153.21,261.607,180.172,249.901,188.804z"/>
<path d="M357.331,143.147v-33.791c0-5.522-4.477-9.999-9.999-9.999c-5.521,0-9.999,4.476-9.999,9.999v43.79
	c0,5.522,4.477,9.999,9.999,9.999h36.951v33.888c0,5.522,4.477,9.999,9.999,9.999c5.521,0,9.999-4.476,9.999-9.999v-33.888h1.554
	c5.521,0,9.999-4.476,9.999-9.999s-4.477-9.999-9.999-9.999h-1.554v-33.791c0-5.522-4.477-9.999-9.999-9.999
	c-5.521,0-9.999,4.476-9.999,9.999v33.791H357.331z"/>
<path d="M454.648,206.858c5.521,0,9.999-4.476,9.999-9.999v-12.223v-9.508c0-6.469,5.263-11.731,11.731-11.731
	c6.47,0,11.732,5.263,11.732,11.731v21.731c0,5.522,4.477,9.999,9.999,9.999c5.521,0,9.999-4.476,9.999-9.999v-21.731
	c0-17.495-14.234-31.728-31.729-31.728c-4.143,0-8.1,0.807-11.731,2.258v-36.302c0-5.522-4.477-9.999-9.999-9.999
	c-5.521,0-9.999,4.476-9.999,9.999v87.503C444.649,202.381,449.127,206.858,454.648,206.858z"/>
<g>
</g>
<g>
</g>
<g>
</g>
<g>
</g>
<g>
</g>
<g>
</g>
<g>
</g>
<g>
</g>
<g>
</g>
<g>
</g>
<g>
</g>
<g>
</g>
<g>
</g>
<g>
</g>
<g>
</g>
</svg>
