<?xml version="1.0" encoding="iso-8859-1"?>
<!-- Generator: Adobe Illustrator 19.0.0, SVG Export Plug-In . SVG Version: 6.00 Build 0)  -->
<svg version="1.1" id="Capa_1" xmlns="http://www.w3.org/2000/svg" xmlns:xlink="http://www.w3.org/1999/xlink" x="0px" y="0px"
	 viewBox="0 0 512 512" style="enable-background:new 0 0 512 512;" xml:space="preserve">
<rect x="256" y="256" style="fill:#EDF2FA;" width="246" height="48"/>
<rect x="290" y="10.001" style="fill:#ADE5FF;" width="212" height="246"/>
<path style="fill:#FEDA9B;" d="M67.75,427.636V277.542c0-31.779,25.762-57.542,57.542-57.542h108.917
	c31.779,0,57.542,25.762,57.542,57.542v150.095H67.75V427.636z"/>
<path style="fill:#FFB954;" d="M285.5,397.938V373c0-17.673-14.327-32-32-32H106c-17.673,0-32,14.327-32,32v24.938
	c0,11.046,8.954,20,20,20h171.5C276.546,417.938,285.5,408.984,285.5,397.938z"/>
<g>
	<polygon style="fill:#EDF2FA;" points="150.246,463.477 122.337,502 78.337,502 94.419,462.823 	"/>
	<polygon style="fill:#EDF2FA;" points="265.081,462.823 281.163,502 237.163,502 209.254,463.477 	"/>
</g>
<path style="fill:#FEDA9B;" d="M317.5,288.325L317.5,288.325c-17.673,0-32,14.327-32,32v28.392v29.221c0,22.091-17.909,40-40,40H114
	c-22.091,0-40-17.909-40-40v-34.781v-22.832c0-17.673-14.327-32-32-32l0,0c-17.673,0-32,14.327-32,32v0.905
	c0,13.155,8.328,24.364,20,28.644v32.064c0,44.183,35.817,80,80,80h139.5c44.183,0,80-35.817,80-80v-32.064
	c11.672-4.28,20-15.489,20-28.644v-0.905C349.5,302.651,335.173,288.325,317.5,288.325z"/>
<path d="M386.33,294c-2.63,0-5.21,1.069-7.07,2.93c-1.86,1.861-2.93,4.44-2.93,7.07s1.07,5.21,2.93,7.069
	c1.86,1.86,4.44,2.931,7.07,2.931s5.21-1.07,7.07-2.931c1.87-1.859,2.93-4.439,2.93-7.069s-1.06-5.21-2.93-7.07
	C391.54,295.07,388.97,294,386.33,294z"/>
<path d="M502,0.001H290c-5.523,0-10,4.477-10,10v217.95c-12.046-11.132-28.135-17.95-45.792-17.95H125.292
	c-37.243,0-67.542,30.299-67.542,67.542v3.858c-4.867-1.977-10.181-3.076-15.75-3.076c-23.159,0-42,18.841-42,42v0.905
	c0,14.855,8.044,27.859,20,34.908v45.8c0,35.256,26.205,64.493,60.157,69.294l-11.071,26.97c-1.266,3.085-0.912,6.598,0.945,9.367
	c1.856,2.769,4.972,4.431,8.306,4.431h44c3.206,0,6.217-1.537,8.098-4.133l26.031-35.93h46.568l26.031,35.93
	c1.881,2.596,4.893,4.133,8.098,4.133h44c3.334,0,6.449-1.662,8.306-4.431c1.857-2.77,2.211-6.282,0.945-9.367l-11.071-26.97
	c33.952-4.801,60.157-34.038,60.157-69.294v-45.8c11.956-7.048,20-20.053,20-34.908v-0.905c0-23.159-18.841-42-42-42
	c-5.569,0-10.883,1.099-15.75,3.076v-3.858c0-3.936-0.358-7.788-1.007-11.542H492v28h-67.667c-5.523,0-10,4.478-10,10
	c0,5.522,4.477,10,10,10H502c5.523,0,10-4.478,10-10v-48v-246C512,4.478,507.523,0.001,502,0.001z M84,397v-24
	c0-12.131,9.869-22,22-22h63.75v24.131c0,5.522,4.477,10,10,10s10-4.478,10-10V351h63.75c12.131,0,22,9.869,22,22v24v0.938
	c0,5.514-4.486,10-10,10H94c-5.514,0-10-4.486-10-10V397z M125.292,230.001h108.917c26.214,0,47.542,21.327,47.542,47.542v20.769
	c-3.959,6.406-6.25,13.945-6.25,22.013v16.917c-6.403-3.954-13.938-6.242-22-6.242H106c-8.062,0-15.597,2.288-22,6.242v-16.917
	c0-8.067-2.291-15.607-6.25-22.013v-20.769C77.75,251.327,99.077,230.001,125.292,230.001z M117.233,492H93.251l8.236-20.063h30.281
	L117.233,492z M242.267,492l-14.535-20.063h30.281L266.249,492H242.267z M317.5,298.325c12.131,0,22,9.869,22,22v0.905
	c0,11.304-9.196,20.5-20.5,20.5c-5.523,0-10,4.478-10,10c0,5.522,4.477,10,10,10c0.168,0,0.333-0.011,0.5-0.013v40.221
	c0,27.57-22.43,50-50,50H90c-27.57,0-50-22.43-50-50v-40.221c0.167,0.002,0.332,0.013,0.5,0.013c5.523,0,10-4.478,10-10
	c0-5.522-4.477-10-10-10c-11.304,0-20.5-9.196-20.5-20.5v-0.905c0-12.131,9.869-22,22-22s22,9.869,22,22V397v0.938
	c0,16.542,13.458,30,30,30h171.5c16.542,0,30-13.458,30-30V397v-76.676C295.5,308.193,305.369,298.325,317.5,298.325z M300,246.001
	v-53.443L426.157,66.4c3.905-3.905,3.905-10.237,0-14.143s-10.237-3.905-14.143,0L300,164.271V20.001h192v226H300z"/>
<path d="M452.929,87.93l-88.5,88.5c-3.905,3.905-3.905,10.237,0,14.143c1.953,1.953,4.512,2.929,7.071,2.929
	s5.119-0.976,7.071-2.929l88.5-88.5c3.905-3.905,3.905-10.237,0-14.143S456.834,84.024,452.929,87.93z"/>
<path d="M348.04,196.961c-2.63,0-5.21,1.07-7.07,2.93c-1.86,1.86-2.93,4.43-2.93,7.07c0,2.63,1.07,5.21,2.93,7.07
	s4.44,2.93,7.07,2.93s5.21-1.07,7.07-2.93c1.87-1.86,2.93-4.44,2.93-7.07s-1.07-5.21-2.93-7.07
	C353.25,198.031,350.67,196.961,348.04,196.961z"/>
<g>
</g>
<g>
</g>
<g>
</g>
<g>
</g>
<g>
</g>
<g>
</g>
<g>
</g>
<g>
</g>
<g>
</g>
<g>
</g>
<g>
</g>
<g>
</g>
<g>
</g>
<g>
</g>
<g>
</g>
</svg>
