<?xml version="1.0" encoding="iso-8859-1"?>
<!-- Generator: Adobe Illustrator 19.0.0, SVG Export Plug-In . SVG Version: 6.00 Build 0)  -->
<svg version="1.1" id="Capa_1" xmlns="http://www.w3.org/2000/svg" xmlns:xlink="http://www.w3.org/1999/xlink" x="0px" y="0px"
	 viewBox="0 0 512 512" style="enable-background:new 0 0 512 512;" xml:space="preserve">
<path style="fill:#D8D8E4;" d="M419,370.5v104.49c0,14.917-12.093,27.01-27.01,27.01H64.01C49.093,502,37,489.907,37,474.99V37.01
	C37,22.093,49.093,10,64.01,10h327.98C406.907,10,419,22.093,419,37.01V141V370.5z"/>
<rect x="363" y="144" style="fill:#7D9BFF;" width="112" height="112"/>
<rect x="363" y="256" style="fill:#FE8F8D;" width="112" height="112"/>
<g>
	<polygon style="fill:#FFFFFF;" points="393.019,222.5 419,177.5 444.981,222.5 	"/>
	<polygon style="fill:#FFFFFF;" points="444.981,289.5 419,334.5 393.019,289.5 	"/>
</g>
<path style="fill:#FFCDAC;" d="M218,64L218,64c-20.987,0-38,17.013-38,38v8c0,20.987,17.013,38,38,38l0,0c20.987,0,38-17.013,38-38
	v-8C256,81.013,238.987,64,218,64z"/>
<path style="fill:#BAEA83;" d="M178.193,298.202L178.193,298.202H143v-89.569c0-20.678,14.885-38.354,35.262-41.873l9.559-1.651
	c8.768-1.514,15.173-9.12,15.173-18.018l0,0h30.01l0,0c0,8.898,6.405,16.504,15.173,18.018l9.561,1.651
	C278.115,170.279,293,187.956,293,208.634v89.568h-35.187l0,0H178.193z"/>
<rect x="176" y="281.92" style="fill:#72D8FF;" width="83.988" height="180.01"/>
<path d="M37,279c2.63,0,5.21-1.07,7.07-2.931C45.93,274.21,47,271.63,47,269s-1.07-5.21-2.93-7.07S39.63,259,37,259
	s-5.21,1.069-7.07,2.93C28.07,263.79,27,266.37,27,269s1.07,5.21,2.93,7.069C31.79,277.93,34.37,279,37,279z"/>
<path d="M475,134h-46V37.01C429,16.603,412.397,0,391.99,0H64.01C43.603,0,27,16.603,27,37.01V231c0,5.523,4.477,10,10,10
	s10-4.477,10-10V37.01C47,27.631,54.631,20,64.01,20h327.98c9.379,0,17.01,7.631,17.01,17.01V134h-46c-5.523,0-10,4.477-10,10v224
	c0,5.522,4.477,10,10,10h46v96.989c0,9.38-7.631,17.011-17.01,17.011H64.01C54.631,492,47,484.369,47,474.989V312
	c0-5.522-4.477-10-10-10s-10,4.478-10,10v162.989C27,495.397,43.603,512,64.01,512h327.98c20.408,0,37.01-16.603,37.01-37.011V378
	h46c5.523,0,10-4.478,10-10V144C485,138.477,480.523,134,475,134z M373,358V154h92v92h-64.667c-5.523,0-10,4.477-10,10
	c0,5.522,4.477,10,10,10H465v92H373z"/>
<path d="M393.019,232.5h51.962c3.573,0,6.874-1.906,8.66-5c1.787-3.094,1.787-6.906,0-10l-25.981-45c-1.786-3.094-5.087-5-8.66-5
	s-6.874,1.906-8.66,5l-25.981,45c-1.787,3.094-1.787,6.906,0,10C386.145,230.594,389.446,232.5,393.019,232.5z M419,197.5l8.66,15
	h-17.32L419,197.5z"/>
<path d="M444.981,279.5h-51.962c-3.573,0-6.874,1.906-8.66,5c-1.787,3.094-1.787,6.906,0,10l25.981,45c1.786,3.094,5.087,5,8.66,5
	s6.874-1.906,8.66-5l25.981-45c1.787-3.094,1.787-6.906,0-10C451.855,281.406,448.554,279.5,444.981,279.5z M419,314.5l-8.66-15
	h17.32L419,314.5z"/>
<path d="M111.008,451.938c-5.523,0-10,4.478-10,10s4.477,10,10,10H293c5.523,0,10-4.478,10-10s-4.477-10-10-10h-23.002V308.202H293
	c5.523,0,10-4.478,10-10v-89.568c0-25.614-18.32-47.369-43.561-51.727l-9.561-1.651c-2.795-0.483-5.048-2.32-6.146-4.768
	C257.105,141.959,266,127.003,266,110v-8c0-26.467-21.533-48-48-48s-48,21.533-48,48v8c0,17.002,8.894,31.957,22.265,40.487
	c-1.098,2.449-3.351,4.286-6.147,4.769l-9.558,1.651C151.32,161.265,133,183.02,133,208.634v89.568c0,5.522,4.477,10,10,10h23.009
	v143.735L111.008,451.938L111.008,451.938z M190,102c0-15.439,12.561-28,28-28s28,12.561,28,28v8c0,15.439-12.561,28-28,28
	s-28-12.561-28-28V102z M153,288.202v-79.568c0-15.855,11.34-29.321,26.963-32.019l9.558-1.651
	c9.997-1.726,17.973-8.519,21.501-17.477c2.28,0.334,4.608,0.513,6.978,0.513c2.369,0,4.697-0.179,6.975-0.513
	c3.528,8.958,11.504,15.75,21.5,17.477l9.561,1.651C271.66,179.313,283,192.779,283,208.634v79.568h-13.002v-62.389
	c0-5.523-4.477-10-10-10s-10,4.477-10,10v46.109H186.01v-46.109c0-5.523-4.477-10-10-10s-10,4.477-10,10v62.389H153z
	 M186.009,291.923h63.988v160.015h-21.994V337.945c0-5.522-4.477-10-10-10s-10,4.478-10,10v113.992h-21.994V291.923z"/>
<path d="M336.74,469.01c1.86-1.86,2.93-4.44,2.93-7.07s-1.07-5.21-2.93-7.069c-1.86-1.86-4.44-2.931-7.07-2.931
	c-2.64,0-5.21,1.07-7.07,2.931c-1.87,1.859-2.93,4.439-2.93,7.069s1.06,5.21,2.93,7.07c1.86,1.86,4.43,2.93,7.07,2.93
	C332.3,471.939,334.88,470.87,336.74,469.01z"/>
<g>
</g>
<g>
</g>
<g>
</g>
<g>
</g>
<g>
</g>
<g>
</g>
<g>
</g>
<g>
</g>
<g>
</g>
<g>
</g>
<g>
</g>
<g>
</g>
<g>
</g>
<g>
</g>
<g>
</g>
</svg>
