<?xml version="1.0" encoding="iso-8859-1"?>
<!-- Generator: Adobe Illustrator 19.0.0, SVG Export Plug-In . SVG Version: 6.00 Build 0)  -->
<svg version="1.1" id="Capa_1" xmlns="http://www.w3.org/2000/svg" xmlns:xlink="http://www.w3.org/1999/xlink" x="0px" y="0px"
	 viewBox="0 0 512.001 512.001" style="enable-background:new 0 0 512.001 512.001;" xml:space="preserve">
<g>
	<polygon style="fill:#C9F3FF;" points="448,278 470.5,238.646 502,238.646 502,278 460,278 	"/>
	<polygon style="fill:#C9F3FF;" points="64,278 41.5,238.646 10,238.646 10,278 52,278 	"/>
</g>
<path style="fill:#B3B6C3;" d="M341.667,22H170.333C155.79,22,144,33.79,144,48.333V114h224V48.333C368,33.79,356.21,22,341.667,22z
	"/>
<g>
	<path style="fill:#898998;" d="M96,490L96,490c-17.673,0-32-14.327-32-32v-25h64v25C128,475.673,113.673,490,96,490z"/>
	<path style="fill:#898998;" d="M416,490L416,490c-17.673,0-32-14.327-32-32v-25h64v25C448,475.673,433.673,490,416,490z"/>
</g>
<path style="fill:#FEDA9B;" d="M448,278H64l-35.005,21.599C17.189,306.884,10,319.767,10,333.641V393c0,22.091,17.909,40,40,40h412
	c22.091,0,40-17.909,40-40v-59.36c0-13.873-7.189-26.756-18.995-34.041L448,278z"/>
<path style="fill:#FFC66C;" d="M448,278l-29.501-120.114C412.17,132.117,389.065,114,362.53,114H149.47
	c-26.534,0-49.64,18.117-55.968,43.886L64,278H448z"/>
<path style="fill:#C9F3FF;" d="M406.123,275.201l-26.469-107.774c-1.936-7.884-9.005-13.426-17.123-13.426H149.469
	c-8.118,0-15.187,5.543-17.123,13.426L105.727,275.81L406.123,275.201z"/>
<path style="fill:#FFFFFF;" d="M318.823,374.688H193.177c-9.487,0-17.177-7.69-17.177-17.177v-13.646
	c0-9.487,7.69-17.177,17.177-17.177h125.646c9.487,0,17.177,7.69,17.177,17.177v13.646C336,366.997,328.31,374.688,318.823,374.688z
	"/>
<g>
	<circle style="fill:#FF5D5D;" cx="76.01" cy="355.5" r="28"/>
	<circle style="fill:#FF5D5D;" cx="436.01" cy="355.5" r="28"/>
</g>
<path d="M256,423c-2.63,0-5.21,1.07-7.07,2.93S246,430.37,246,433s1.069,5.21,2.93,7.07S253.37,443,256,443s5.21-1.07,7.069-2.93
	c1.86-1.86,2.931-4.44,2.931-7.07s-1.07-5.21-2.931-7.07C261.21,424.07,258.63,423,256,423z"/>
<path d="M346,357.51v-13.646c0-14.985-12.191-27.177-27.177-27.177H193.177c-14.985,0-27.177,12.192-27.177,27.177v13.646
	c0,14.985,12.191,27.177,27.177,27.177h125.646C333.809,384.688,346,372.496,346,357.51z M326,343.865v13.646
	c0,3.957-3.22,7.177-7.177,7.177H306v-28h12.823C322.78,336.688,326,339.908,326,343.865z M266,336.688h20v28h-20V336.688z
	 M246,364.688h-20v-28h20V364.688z M186,357.51v-13.646c0-3.958,3.22-7.177,7.177-7.177H206v28h-12.823
	C189.22,364.688,186,361.467,186,357.51z"/>
<path d="M247.99,200.13c2.63,0,5.21-1.06,7.069-2.92c1.86-1.87,2.931-4.44,2.931-7.07c0-2.64-1.07-5.21-2.931-7.08
	c-1.859-1.86-4.439-2.92-7.069-2.92c-2.631,0-5.211,1.06-7.07,2.92c-1.86,1.87-2.93,4.44-2.93,7.08c0,2.63,1.069,5.2,2.93,7.07
	C242.779,199.07,245.359,200.13,247.99,200.13z"/>
<path d="M38.009,355.5c0,20.953,17.047,38,38,38s38-17.047,38-38s-17.047-38-38-38S38.009,334.547,38.009,355.5z M94.009,355.5
	c0,9.925-8.075,18-18,18s-18-8.075-18-18s8.075-18,18-18S94.009,345.576,94.009,355.5z"/>
<path d="M474.015,355.5c0-20.953-17.047-38-38-38s-38,17.047-38,38s17.047,38,38,38S474.015,376.453,474.015,355.5z M418.015,355.5
	c0-9.925,8.075-18,18-18s18,8.075,18,18s-8.075,18-18,18S418.015,365.425,418.015,355.5z"/>
<path d="M512,278v-39.354c0-5.523-4.478-10-10-10h-31.5c-3.588,0-6.9,1.922-8.682,5.037l-10.077,17.626L428.21,155.5
	c-6.182-25.171-25.848-44.026-50.21-49.712V48.333C378,28.299,361.701,12,341.667,12H170.333C150.299,12,134,28.299,134,48.333
	v57.455c-24.362,5.685-44.028,24.541-50.21,49.712l-23.531,95.808l-10.077-17.626c-1.781-3.115-5.094-5.037-8.682-5.037H10
	c-5.522,0-10,4.477-10,10V278c0,5.523,4.478,10,10,10h18.75l-5.006,3.089C8.876,300.263,0,316.171,0,333.641V393
	c0,27.57,22.43,50,50,50h4v15c0,8.062,2.288,15.597,6.242,22h-10.74c-5.522,0-10,4.477-10,10s4.478,10,10,10h178.784
	c5.522,0,10-4.477,10-10s-4.478-10-10-10h-96.528c3.954-6.403,6.242-13.938,6.242-22v-15h74c5.522,0,10-4.477,10-10s-4.478-10-10-10
	H50c-16.542,0-30-13.458-30-30v-59.359c0-10.482,5.326-20.027,14.246-25.531L66.837,288h378.326l32.591,20.109
	c8.92,5.504,14.246,15.049,14.246,25.531V393c0,16.542-13.458,30-30,30H299.581c-5.522,0-10,4.477-10,10s4.478,10,10,10H374v15
	c0,8.062,2.288,15.597,6.242,22h-63.51c-5.522,0-10,4.477-10,10s4.478,10,10,10h178.784c5.522,0,10-4.477,10-10s-4.478-10-10-10
	h-43.757c3.954-6.403,6.242-13.938,6.242-22v-15h4c27.57,0,50-22.43,50-50v-59.359c0-17.471-8.876-33.378-23.744-42.552L483.25,288
	H502C507.522,288,512,283.523,512,278z M118,443v15c0,12.131-9.869,22-22,22s-22-9.869-22-22v-15H118z M438,458
	c0,12.131-9.869,22-22,22s-22-9.869-22-22v-15h44V458z M154,48.333C154,39.327,161.327,32,170.333,32h171.334
	C350.673,32,358,39.327,358,48.333V104H154V48.333z M103.212,160.271C108.458,138.915,127.479,124,149.47,124h213.06
	c21.99,0,41.012,14.915,46.258,36.271L435.247,268h-20.596l-25.286-102.958C386.322,152.653,375.288,144,362.531,144H149.469
	c-12.757,0-23.791,8.652-26.834,21.041L97.348,268H76.753L103.212,160.271z M230.291,207.834c-3.905-3.905-10.235-3.905-14.143,0
	l-59.574,59.574c-0.19,0.19-0.364,0.391-0.535,0.592h-38.098l24.115-98.188c0.841-3.422,3.889-5.812,7.412-5.812h170.055
	l-60.928,60.929c-3.905,3.905-3.905,10.237,0,14.142c1.953,1.953,4.512,2.929,7.071,2.929s5.118-0.977,7.071-2.929L347.808,164
	h14.724c3.523,0,6.571,2.39,7.411,5.812L394.057,268h-209.79l46.024-46.023C234.196,218.071,234.196,211.739,230.291,207.834z
	 M20,248.646h15.698L46.764,268H20V248.646z M492,268h-26.764l11.065-19.354H492V268z"/>
<path d="M331.221,41.75c-5.522,0-10,4.477-10,10v31.5c0,5.523,4.478,10,10,10s10-4.477,10-10v-31.5
	C341.221,46.227,336.743,41.75,331.221,41.75z"/>
<path d="M203.7,41.75h-22.667c-5.522,0-10,4.477-10,10s4.478,10,10,10h1.334v21.5c0,5.523,4.478,10,10,10s10-4.477,10-10v-21.5
	h1.333c5.522,0,10-4.477,10-10S209.223,41.75,203.7,41.75z"/>
<path d="M308.308,44.072c-4.238-3.537-10.544-2.97-14.084,1.271l-5.881,7.049l-5.881-7.049c-3.538-4.242-9.847-4.809-14.084-1.271
	c-4.241,3.539-4.811,9.844-1.271,14.085L275.319,68l-8.213,9.843c-3.539,4.241-2.97,10.546,1.271,14.085
	c1.87,1.561,4.142,2.322,6.401,2.322c2.862,0,5.705-1.224,7.683-3.594l5.881-7.049l5.881,7.049c1.978,2.371,4.819,3.594,7.683,3.594
	c2.26,0,4.532-0.762,6.401-2.322c4.241-3.539,4.811-9.844,1.271-14.085L301.366,68l8.213-9.843
	C313.118,53.916,312.549,47.61,308.308,44.072z"/>
<path d="M244.866,47.754c-1.59-3.646-5.189-6.004-9.167-6.004s-7.577,2.357-9.167,6.004l-14.167,32.5
	c-2.207,5.063,0.108,10.956,5.171,13.163c5.065,2.207,10.956-0.109,13.163-5.171l5-11.471l5.001,11.471
	c1.64,3.762,5.314,6.006,9.172,6.006c1.334,0,2.69-0.269,3.991-0.835c5.063-2.207,7.378-8.101,5.171-13.163L244.866,47.754z"/>
<g>
</g>
<g>
</g>
<g>
</g>
<g>
</g>
<g>
</g>
<g>
</g>
<g>
</g>
<g>
</g>
<g>
</g>
<g>
</g>
<g>
</g>
<g>
</g>
<g>
</g>
<g>
</g>
<g>
</g>
</svg>
