<?xml version="1.0" encoding="iso-8859-1"?>
<!-- Generator: Adobe Illustrator 19.0.0, SVG Export Plug-In . SVG Version: 6.00 Build 0)  -->
<svg version="1.1" id="Capa_1" xmlns="http://www.w3.org/2000/svg" xmlns:xlink="http://www.w3.org/1999/xlink" x="0px" y="0px"
	 viewBox="0 0 512 512" style="enable-background:new 0 0 512 512;" xml:space="preserve">
<circle style="fill:#FF5D5D;" cx="256.002" cy="256.002" r="246.001"/>
<g>
	<path style="fill:#FFFFFF;" d="M100.05,133.987c-60.942,77.696-55.635,190.44,15.944,262.018s184.322,76.887,262.019,15.944
		L100.05,133.987z"/>
	<path style="fill:#FFFFFF;" d="M133.992,100.046l277.963,277.964c60.942-77.696,55.635-190.44-15.944-262.019
		S211.689,39.103,133.992,100.046z"/>
</g>
<rect x="108.001" y="238.001" style="fill:#FFB954;" width="70.98" height="56"/>
<rect x="362.983" y="238.001" style="fill:#898998;" width="41.02" height="56"/>
<path d="M466.421,110.111c-3.152-4.535-9.384-5.657-13.919-2.504c-4.535,3.152-5.656,9.383-2.505,13.918
	c65.153,93.75,53.75,220.486-27.115,301.352c-92.017,92.017-241.739,92.017-333.756,0c-44.575-44.574-69.123-103.84-69.123-166.878
	S44.549,133.695,89.125,89.12c81.523-81.522,208.91-92.474,302.894-26.034c4.511,3.188,10.75,2.116,13.938-2.393
	c3.188-4.51,2.116-10.75-2.394-13.938c-48.7-34.427-108.446-50.738-168.215-45.928c-60.462,4.866-117.415,31.2-160.367,74.151
	C26.629,123.33,0.001,187.618,0.001,255.999S26.63,388.666,74.981,437.02C123.334,485.372,187.622,512,256.002,512
	s132.668-26.629,181.021-74.98c42.699-42.7,69.005-99.307,74.07-159.391C516.1,218.257,500.234,158.766,466.421,110.111z"/>
<path d="M422.966,89.206c1.953,1.958,4.517,2.938,7.08,2.938c2.555,0,5.11-0.973,7.062-2.92c3.911-3.9,3.919-10.232,0.019-14.142
	l-0.189-0.19c-3.899-3.91-10.232-3.918-14.142-0.018c-3.911,3.9-3.919,10.232-0.019,14.142L422.966,89.206z"/>
<path d="M404.004,217.664c5.522,0,10-4.477,10-10v-4.635c0-20.638-16.79-37.428-37.428-37.428h-85.081
	c-9.609,0-17.428-7.818-17.428-17.428c0-5.523-4.478-10-10-10s-10,4.477-10,10c0,20.638,16.79,37.428,37.428,37.428h85.081
	c9.609,0,17.428,7.818,17.428,17.428v4.635C394.004,213.187,398.481,217.664,404.004,217.664z"/>
<path d="M99.45,124.005c-2.856,0.172-5.502,1.559-7.268,3.81c-64.785,82.595-57.588,200.933,16.741,275.262
	c40.358,40.358,93.688,60.924,147.228,60.924c45.066,0,90.285-14.574,128.034-44.183c2.251-1.766,3.638-4.411,3.81-7.267
	c0.173-2.856-0.888-5.649-2.91-7.672L107.122,126.916C105.098,124.893,102.29,123.828,99.45,124.005z M256.143,444.007
	c-48.389-0.002-96.6-18.593-133.077-55.071c-64.492-64.492-73.076-165.631-21.868-239.658l78.721,78.721h-71.917
	c-5.522,0-10,4.477-10,10v56c0,5.523,4.478,10,10,10H255.92l106.804,106.804C330.568,433.047,293.305,444.009,256.143,444.007z
	 M118.002,283.999v-36h50.979v36H118.002z M188.982,247.998h10.938l36,36h-46.938V247.998z"/>
<path d="M199.543,165.597c1.859-1.86,2.93-4.44,2.93-7.07s-1.07-5.21-2.93-7.07c-1.86-1.86-4.431-2.93-7.07-2.93
	c-2.63,0-5.21,1.07-7.07,2.93c-1.859,1.86-2.93,4.44-2.93,7.07s1.07,5.21,2.93,7.07c1.86,1.86,4.44,2.93,7.07,2.93
	S197.682,167.458,199.543,165.597z"/>
<path d="M411.954,388.009c0.2,0,0.401-0.006,0.602-0.018c2.856-0.172,5.502-1.559,7.268-3.81
	c64.785-82.595,57.588-200.933-16.741-275.262c-74.33-74.33-192.666-81.527-275.262-16.741c-2.251,1.766-3.638,4.411-3.81,7.267
	c-0.173,2.856,0.887,5.649,2.91,7.672l35.104,35.104c3.906,3.906,10.236,3.906,14.143,0c3.905-3.905,3.905-10.237,0-14.142
	l-26.886-26.886c74.028-51.208,175.167-42.624,239.657,21.868c64.492,64.492,73.076,165.631,21.868,239.658l-58.721-58.721h51.917
	c5.522,0,10-4.477,10-10v-56c0-5.523-4.478-10-10-10H276.336c-0.08,0-0.158,0.01-0.238,0.012l-52.678-52.679
	c-3.904-3.905-10.236-3.905-14.143,0c-3.905,3.905-3.905,10.237,0,14.142L404.883,385.08
	C406.764,386.961,409.31,388.009,411.954,388.009z M394.004,283.999h-21.02v-36h21.02V283.999z M352.984,247.998v36h-20.897l-36-36
	L352.984,247.998L352.984,247.998z"/>
<g>
</g>
<g>
</g>
<g>
</g>
<g>
</g>
<g>
</g>
<g>
</g>
<g>
</g>
<g>
</g>
<g>
</g>
<g>
</g>
<g>
</g>
<g>
</g>
<g>
</g>
<g>
</g>
<g>
</g>
</svg>
