<?xml version="1.0" encoding="iso-8859-1"?>
<!-- Generator: Adobe Illustrator 19.0.0, SVG Export Plug-In . SVG Version: 6.00 Build 0)  -->
<svg version="1.1" id="Capa_1" xmlns="http://www.w3.org/2000/svg" xmlns:xlink="http://www.w3.org/1999/xlink" x="0px" y="0px"
	 viewBox="0 0 512 512" style="enable-background:new 0 0 512 512;" xml:space="preserve">
<path style="fill:#FE8F8D;" d="M120,364L120,364c-30.928,0-56-25.072-56-56v-70h112v70C176,338.928,150.928,364,120,364z"/>
<path style="fill:#C9F3FF;" d="M462,502H50c-22.091,0-40-17.909-40-40l0,0h492l0,0C502,484.091,484.091,502,462,502z"/>
<path style="fill:#FF5D5D;" d="M383.021,110.368V10h-50.932v100.499c0,7.813-3.411,15.238-9.339,20.327l-21,18.029
	C286.674,161.798,278,180.677,278,200.546v261.392h160V200.879c0-20.061-8.842-39.102-24.167-52.047l-21.308-17.997
	C386.498,125.745,383.021,118.257,383.021,110.368z"/>
<polygon style="fill:#FEDA9B;" points="383.021,10 383.021,10 332.089,10 332.089,10 332.089,110 383.021,110 "/>
<polygon style="fill:#FFB954;" points="383.021,10 383.021,10 332.089,10 332.089,10 332.089,46.667 383.021,46.667 "/>
<circle style="fill:#FFFFFF;" cx="358" cy="290" r="44"/>
<path d="M502,452h-54V341c0-5.523-4.478-10-10-10s-10,4.477-10,10v110.938H288V200.546c0-16.973,7.386-33.048,20.263-44.104
	l21-18.029c5.69-4.885,9.679-11.32,11.573-18.414h33.469c1.932,7.137,5.988,13.593,11.767,18.475l21.308,17.998
	C420.484,167.54,428,183.726,428,200.879V256c0,5.523,4.478,10,10,10s10-4.477,10-10v-55.121c0-23.055-10.102-44.81-27.715-59.686
	l-21.308-17.998c-3.786-3.197-5.957-7.873-5.957-12.828V10c0-5.523-4.478-10-10-10h-50.932c-5.522,0-10,4.477-10,10v100.499
	c0,4.902-2.134,9.546-5.854,12.74l-21,18.029C277.927,156.128,268,177.734,268,200.546V452H130v-78.757
	c31.664-4.833,56-32.249,56-65.243V188c0-5.523-4.478-10-10-10H64c-5.522,0-10,4.477-10,10v120c0,32.994,24.336,60.41,56,65.243V452
	H10c-5.522,0-10,4.477-10,10c0,27.57,22.43,50,50,50h175.667c5.522,0,10-4.477,10-10s-4.478-10-10-10H50
	c-13.038,0-24.159-8.359-28.286-20h468.572c-4.127,11.641-15.248,20-28.286,20H304c-5.522,0-10,4.477-10,10s4.478,10,10,10h158
	c27.57,0,50-22.43,50-50C512,456.477,507.522,452,502,452z M373.021,100h-30.932V58.21h30.932V100z M373.021,20v18.21h-30.932V20
	H373.021z M74,308V198h92v30h-54.333c-5.522,0-10,4.477-10,10s4.478,10,10,10H166v60c0,25.364-20.636,46-46,46S74,333.364,74,308z"
	/>
<path d="M265,492c-2.63,0-5.21,1.07-7.07,2.93c-1.86,1.86-2.93,4.44-2.93,7.07s1.069,5.21,2.93,7.07S262.37,512,265,512
	s5.21-1.07,7.069-2.93c1.86-1.86,2.931-4.44,2.931-7.07s-1.07-5.21-2.931-7.07C270.21,493.07,267.63,492,265,492z"/>
<path d="M438,289c-2.63,0-5.21,1.07-7.07,2.93c-1.86,1.86-2.93,4.44-2.93,7.07s1.069,5.21,2.93,7.07S435.37,309,438,309
	s5.21-1.07,7.069-2.93c1.86-1.86,2.931-4.44,2.931-7.07s-1.07-5.21-2.931-7.07C443.21,290.07,440.63,289,438,289z"/>
<path d="M358,236c-29.775,0-54,24.224-54,54s24.225,54,54,54s54-24.224,54-54S387.775,236,358,236z M358,324
	c-18.748,0-34-15.252-34-34s15.252-34,34-34s34,15.252,34,34S376.748,324,358,324z"/>
<path d="M324.109,366c-5.522,0-10,4.477-10,10s4.478,10,10,10H391c5.522,0,10-4.477,10-10s-4.478-10-10-10H324.109z"/>
<g>
</g>
<g>
</g>
<g>
</g>
<g>
</g>
<g>
</g>
<g>
</g>
<g>
</g>
<g>
</g>
<g>
</g>
<g>
</g>
<g>
</g>
<g>
</g>
<g>
</g>
<g>
</g>
<g>
</g>
</svg>
