<?xml version="1.0" encoding="iso-8859-1"?>
<!-- Generator: Adobe Illustrator 19.0.0, SVG Export Plug-In . SVG Version: 6.00 Build 0)  -->
<svg version="1.1" id="Capa_1" xmlns="http://www.w3.org/2000/svg" xmlns:xlink="http://www.w3.org/1999/xlink" x="0px" y="0px"
	 viewBox="0 0 512 512" style="enable-background:new 0 0 512 512;" xml:space="preserve">
<path style="fill:#EDF2FA;" d="M360,502H152c-66.274,0-120-53.726-120-120l0,0h448l0,0C480,448.274,426.274,502,360,502z"/>
<rect x="52" y="10" style="fill:#4DBAF6;" width="408" height="372"/>
<rect x="91.99" y="50" style="fill:#C9F3FF;" width="328.01" height="332"/>
<path style="fill:#FFFFFF;" d="M320,382h-40v-76c0-13.233-10.767-24-24-24s-24,10.767-24,24h-40c0-35.29,28.71-64,63.999-64
	c35.29,0,64.001,28.71,64.001,64V382z"/>
<path style="fill:#4DBAF6;" d="M182.768,354.665c0,15.095,12.24,27.335,27.335,27.335c15.095,0,27.335-12.24,27.335-27.335
	c0-0.266-0.005-0.53-0.012-0.794C236.906,327.363,210.609,306,210.103,306c-0.337,0-26.798,21.362-27.323,47.867
	C182.772,354.132,182.768,354.398,182.768,354.665z"/>
<path d="M502,492h-72.797C465.703,468.955,490,428.264,490,382c0-5.523-4.477-10-10-10h-10V10c0-5.523-4.477-10-10-10H52
	c-5.523,0-10,4.477-10,10v362H32c-5.523,0-10,4.477-10,10c0,46.264,24.297,86.955,60.797,110H10c-5.523,0-10,4.477-10,10
	s4.477,10,10,10h492c5.523,0,10-4.477,10-10S507.523,492,502,492z M62,20h388v352h-20V50c0-5.523-4.477-10-10-10H91.987
	c-5.523,0-10,4.477-10,10v208.08c0,5.523,4.477,10,10,10s10-4.477,10-10V60h164.204L137.262,188.929
	c-3.905,3.905-3.905,10.237,0,14.143c1.952,1.953,4.512,2.929,7.071,2.929s5.119-0.977,7.071-2.929L294.476,60H410v312h-80v-66
	c0-40.804-33.197-74-74.001-74C215.196,232,182,265.196,182,306c0,3.994,2.347,7.431,5.732,9.033
	c-9.527,12.654-14.699,25.981-14.948,38.539c-0.011,0.363-0.017,0.727-0.017,1.092c0,6.255,1.554,12.151,4.284,17.335h-75.064v-38
	c0-5.523-4.477-10-10-10s-10,4.477-10,10v38H62V20z M243.154,372c2.73-5.184,4.284-11.08,4.284-17.335
	c0-0.358-0.006-0.716-0.014-0.99c-0.242-12.374-5.155-25.38-14.223-37.754c4.955-0.594,8.799-4.805,8.799-9.921
	c0-7.72,6.28-14,14-14c7.72,0,14,6.28,14,14v66L243.154,372L243.154,372z M192.768,354.665c0-0.168,0.003-0.336,0.011-0.6
	c0.287-14.489,10.616-27.535,17.352-34.523c6.682,6.938,17.013,19.997,17.3,34.606c0.005,0.171,0.008,0.343,0.008,0.516
	c0,9.559-7.776,17.335-17.335,17.335S192.768,364.224,192.768,354.665z M256,272c-15.269,0-28.22,10.117-32.5,24h-20.572
	c4.704-25.014,26.712-44,53.071-44C285.775,252,310,276.224,310,306v66h-20v-66C290,287.252,274.748,272,256,272z M152,492
	c-57.285,0-104.483-44.012-109.549-100H469.55c-5.067,55.988-52.265,100-109.55,100H152z"/>
<path d="M91.99,306.3c2.63,0,5.21-1.06,7.07-2.92c1.86-1.86,2.93-4.44,2.93-7.07c0-2.64-1.07-5.21-2.93-7.08
	c-1.86-1.86-4.44-2.93-7.07-2.93s-5.21,1.07-7.07,2.93c-1.86,1.87-2.93,4.44-2.93,7.08c0,2.63,1.07,5.21,2.93,7.07
	S89.36,306.3,91.99,306.3z"/>
<path d="M207,219c2.559,0,5.119-0.976,7.071-2.929l56.333-56.333c3.905-3.905,3.905-10.237,0-14.143
	c-3.905-3.905-10.237-3.905-14.143,0l-56.333,56.333c-3.905,3.905-3.905,10.237,0,14.143C201.881,218.024,204.441,219,207,219z"/>
<path d="M292,134c2.63,0,5.21-1.07,7.07-2.93S302,126.63,302,124s-1.07-5.21-2.93-7.07S294.63,114,292,114s-5.21,1.07-7.07,2.93
	c-1.86,1.86-2.93,4.44-2.93,7.07c0,2.64,1.07,5.21,2.93,7.07C286.79,132.93,289.37,134,292,134z"/>
<g>
</g>
<g>
</g>
<g>
</g>
<g>
</g>
<g>
</g>
<g>
</g>
<g>
</g>
<g>
</g>
<g>
</g>
<g>
</g>
<g>
</g>
<g>
</g>
<g>
</g>
<g>
</g>
<g>
</g>
</svg>
