<?xml version="1.0" encoding="iso-8859-1"?>
<!-- Generator: Adobe Illustrator 19.0.0, SVG Export Plug-In . SVG Version: 6.00 Build 0)  -->
<svg version="1.1" id="Capa_1" xmlns="http://www.w3.org/2000/svg" xmlns:xlink="http://www.w3.org/1999/xlink" x="0px" y="0px"
	 viewBox="0 0 512 512" style="enable-background:new 0 0 512 512;" xml:space="preserve">
<path style="fill:#C9F3FF;" d="M157.333,37c-35.346,0-64,28.654-64,64l0,0h261.18C382.397,101,405,123.603,405,151.486v27.154
	c0,27.883-22.603,50.486-50.486,50.486h-188.5C79.85,229.127,10,298.977,10,385.14V421h492v-28V229.127V165
	c0-70.692-57.308-128-128-128H157.333z"/>
<rect x="10" y="421" style="fill:#72D8FF;" width="492" height="54"/>
<circle style="fill:#FFFFFF;" cx="404.19" cy="325.06" r="44"/>
<path d="M374,27H157.333c-40.804,0-74,33.196-74,74c0,5.523,4.477,10,10,10H193c5.523,0,10-4.477,10-10s-4.477-10-10-10h-88.738
	c4.704-25.014,26.713-44,53.072-44H374c65.065,0,118,52.935,118,118v246H20v-25.86c0-80.512,65.501-146.013,146.013-146.013h188.5
	c33.352,0,60.486-27.134,60.486-60.486v-27.154C415,118.134,387.866,91,354.514,91H269c-5.523,0-10,4.477-10,10s4.477,10,10,10
	h85.514C376.838,111,395,129.162,395,151.486v27.154c0,22.324-18.162,40.486-40.486,40.486h-188.5C74.473,219.127,0,293.6,0,385.14
	V475c0,5.523,4.477,10,10,10h68c5.523,0,10-4.477,10-10s-4.477-10-10-10H20v-34h472v34H168c-5.523,0-10,4.477-10,10s4.477,10,10,10
	h334c5.523,0,10-4.477,10-10V165C512,88.907,450.093,27,374,27z"/>
<path d="M239.07,108.07c1.86-1.86,2.93-4.44,2.93-7.07s-1.07-5.21-2.93-7.07C237.21,92.07,234.63,91,232,91s-5.21,1.07-7.07,2.93
	S222,98.37,222,101s1.07,5.21,2.93,7.07c1.86,1.86,4.44,2.93,7.07,2.93S237.21,109.93,239.07,108.07z"/>
<path d="M125.33,465c-2.63,0-5.21,1.07-7.07,2.93s-2.93,4.44-2.93,7.07s1.07,5.21,2.93,7.07s4.44,2.93,7.07,2.93
	c2.64,0,5.21-1.07,7.07-2.93c1.87-1.86,2.93-4.44,2.93-7.07s-1.06-5.21-2.93-7.07C130.54,466.07,127.97,465,125.33,465z"/>
<path d="M350.193,325.063c0,29.776,24.224,54,54,54s54-24.224,54-54s-24.224-54-54-54S350.193,295.288,350.193,325.063z
	 M438.193,325.063c0,18.748-15.252,34-34,34s-34-15.252-34-34s15.252-34,34-34S438.193,306.316,438.193,325.063z"/>
<path d="M310.93,317.99c-1.86,1.86-2.93,4.44-2.93,7.07c0,2.64,1.07,5.21,2.93,7.07c1.86,1.87,4.44,2.93,7.07,2.93
	s5.21-1.06,7.07-2.93c1.86-1.86,2.93-4.43,2.93-7.07c0-2.63-1.07-5.21-2.93-7.07s-4.44-2.93-7.07-2.93S312.79,316.13,310.93,317.99z
	"/>
<path d="M270.59,317.99c-1.86,1.86-2.92,4.44-2.92,7.07c0,2.64,1.06,5.21,2.92,7.07c1.87,1.87,4.45,2.93,7.08,2.93
	s5.21-1.06,7.07-2.93c1.86-1.86,2.93-4.43,2.93-7.07c0-2.63-1.07-5.21-2.93-7.07s-4.44-2.93-7.07-2.93S272.46,316.13,270.59,317.99z
	"/>
<path d="M199.667,315.063c-5.523,0-10,4.477-10,10s4.477,10,10,10h35.667c5.523,0,10-4.477,10-10s-4.477-10-10-10H199.667z"/>
<g>
</g>
<g>
</g>
<g>
</g>
<g>
</g>
<g>
</g>
<g>
</g>
<g>
</g>
<g>
</g>
<g>
</g>
<g>
</g>
<g>
</g>
<g>
</g>
<g>
</g>
<g>
</g>
<g>
</g>
</svg>
