<?xml version="1.0" encoding="iso-8859-1"?>
<!-- Generator: Adobe Illustrator 19.0.0, SVG Export Plug-In . SVG Version: 6.00 Build 0)  -->
<svg version="1.1" id="Capa_1" xmlns="http://www.w3.org/2000/svg" xmlns:xlink="http://www.w3.org/1999/xlink" x="0px" y="0px"
	 viewBox="0 0 512 512" style="enable-background:new 0 0 512 512;" xml:space="preserve">
<path style="fill:#C9F3FF;" d="M366.833,380H10v-48h361.756l42.695-180.605c3.524-14.907,16.833-25.437,32.151-25.437H502v48
	h-48.292l-39.927,168.899C408.635,364.625,389.201,380,366.833,380z"/>
<g>
	<circle style="fill:#7D9BFF;" cx="104" cy="420" r="40"/>
	<circle style="fill:#7D9BFF;" cx="296.25" cy="420" r="40"/>
</g>
<path style="fill:#FF5D5D;" d="M312.11,102h-256c-13.255,0-24,10.745-24,24v182c0,13.255,10.745,24,24,24h256
	c13.255,0,24-10.745,24-24V126C336.11,112.745,325.364,102,312.11,102z"/>
<g>
	<rect x="80.11" y="102" style="fill:#FE8F8D;" width="48" height="230"/>
	<rect x="240.11" y="102" style="fill:#FE8F8D;" width="48" height="230"/>
</g>
<path d="M502,115.958h-55.398c-20.048,0-37.271,13.626-41.883,33.136L363.844,322h-20.763c1.939-4.273,3.029-9.01,3.029-14V126
	c0-18.748-15.252-34-34-34h-58.548V74.277c0-17.798-14.479-32.277-32.277-32.277h-74.349c-17.798,0-32.277,14.479-32.277,32.277V92
	h-58.55c-18.748,0-34,15.252-34,34v182c0,4.99,1.089,9.727,3.029,14H10c-5.523,0-10,4.477-10,10v48c0,5.523,4.477,10,10,10h54.027
	C57.735,398.363,54,408.753,54,420s3.735,21.637,10.027,30H36.333c-5.523,0-10,4.477-10,10s4.477,10,10,10H159
	c5.523,0,10-4.477,10-10s-4.477-10-10-10h-15.027c6.292-8.363,10.027-18.753,10.027-30s-3.735-21.637-10.027-30h112.301
	c-6.292,8.363-10.027,18.753-10.027,30s3.735,21.637,10.027,30h-20.607c-5.523,0-10,4.477-10,10s4.477,10,10,10h162.667
	c5.523,0,10-4.477,10-10s-4.477-10-10-10H336.22c6.292-8.363,10.027-18.753,10.027-30s-3.735-21.637-10.027-30h30.614
	c27.13,0,50.438-18.44,56.68-44.842l38.107-161.199H502c5.523,0,10-4.477,10-10v-48C512,120.436,507.523,115.958,502,115.958z
	 M326.109,126v182c0,7.72-6.28,14-14,14h-14V112h14C319.829,112,326.109,118.28,326.109,126z M278.109,322h-28v-89.5
	c0-5.523-4.477-10-10-10s-10,4.477-10,10V322h-92V112h92v44.5c0,5.523,4.477,10,10,10s10-4.477,10-10V112h28V322z M146.935,62
	h74.349c6.77,0,12.277,5.508,12.277,12.277V92h-98.904V74.277C134.658,67.508,140.166,62,146.935,62z M118.109,112v210h-28V112
	H118.109z M42.109,308V126c0-7.72,6.28-14,14-14h14v210h-14C48.39,322,42.109,315.72,42.109,308z M134,420c0,16.542-13.458,30-30,30
	s-30-13.458-30-30s13.458-30,30-30S134,403.458,134,420z M326.247,420c0,16.542-13.458,30-30,30s-30-13.458-30-30s13.458-30,30-30
	S326.247,403.458,326.247,420z M492,163.958h-38.292c-4.637,0-8.665,3.187-9.732,7.699l-39.927,168.898
	C399.951,357.892,384.647,370,366.833,370H20v-28h351.756c4.637,0,8.665-3.187,9.732-7.699l42.695-180.605
	c2.469-10.443,11.688-17.737,22.419-17.737H492V163.958z"/>
<path d="M240.11,187.67c-2.63,0-5.21,1.06-7.07,2.93c-1.86,1.86-2.93,4.44-2.93,7.07s1.07,5.21,2.93,7.07
	c1.86,1.86,4.44,2.93,7.07,2.93s5.21-1.07,7.07-2.93c1.86-1.86,2.93-4.44,2.93-7.07c0-2.64-1.07-5.21-2.93-7.07
	C245.32,188.73,242.74,187.67,240.11,187.67z"/>
<path d="M195.67,450c-2.64,0-5.21,1.07-7.07,2.93c-1.87,1.86-2.93,4.44-2.93,7.07s1.06,5.21,2.93,7.07
	c1.86,1.86,4.43,2.93,7.07,2.93c2.63,0,5.21-1.07,7.07-2.93s2.93-4.44,2.93-7.07s-1.07-5.21-2.93-7.07
	C200.88,451.07,198.3,450,195.67,450z"/>
<g>
</g>
<g>
</g>
<g>
</g>
<g>
</g>
<g>
</g>
<g>
</g>
<g>
</g>
<g>
</g>
<g>
</g>
<g>
</g>
<g>
</g>
<g>
</g>
<g>
</g>
<g>
</g>
<g>
</g>
</svg>
