<?xml version="1.0" encoding="iso-8859-1"?>
<!-- Generator: Adobe Illustrator 19.0.0, SVG Export Plug-In . SVG Version: 6.00 Build 0)  -->
<svg version="1.1" id="Capa_1" xmlns="http://www.w3.org/2000/svg" xmlns:xlink="http://www.w3.org/1999/xlink" x="0px" y="0px"
	 viewBox="0 0 512 512" style="enable-background:new 0 0 512 512;" xml:space="preserve">
<path style="fill:#FFCDAC;" d="M478.093,311.966L478.093,311.966c-6.978,0-13.617,3.001-18.228,8.239l-1.829,2.078l-0.007-0.03
	c14.276-15.576,3.227-40.691-17.901-40.691l0,0c-6.978,0-13.617,3.001-18.228,8.239l-57.381,65.188
	c-14.754,16.761-33.133,29.531-53.451,37.544H173.25c4.547-5.822,11.626-9.57,19.586-9.57h66.152
	c14.358,0,25.999-11.64,25.999-25.999l0,0c0-14.358-11.64-25.999-25.999-25.999H120.439c-31.466,0-61.447,13.381-82.458,36.804
	L10,398.962v103.026h265.659c53.182,0,103.924-22.323,139.859-61.529l80.477-87.802
	C510.271,337.082,499.222,311.966,478.093,311.966z"/>
<path style="fill:#72D8FF;" d="M463.978,256c0-114.87-93.121-207.99-207.99-207.99S47.998,141.13,47.998,256H463.978z"/>
<path style="fill:#C9F3FF;" d="M448.979,295.998H62.997c-22.09,0-39.998-17.908-39.998-39.998l0,0h465.978l0,0
	C488.977,278.09,471.07,295.998,448.979,295.998z"/>
<path d="M105.995,491.989H10c-5.523,0-10,4.477-10,10c0,5.523,4.477,10,10,10h95.995c5.523,0,10-4.477,10-10
	C115.995,496.466,111.518,491.989,105.995,491.989z"/>
<path d="M143.493,491.989c-2.63,0-5.21,1.07-7.07,2.93s-2.93,4.44-2.93,7.07s1.07,5.21,2.93,7.07c1.86,1.86,4.44,2.93,7.07,2.93
	s5.21-1.07,7.07-2.93c1.86-1.86,2.93-4.44,2.93-7.07s-1.07-5.21-2.93-7.07C148.703,493.059,146.123,491.989,143.493,491.989z"/>
<path d="M509.026,322.444c-5.557-12.63-17.581-20.478-31.381-20.478c-9.848,0-19.227,4.24-25.734,11.631l-70.067,79.6
	c-16.476,18.718-40.227,29.454-65.164,29.454H192.389c-8.186,0-14.844-6.66-14.844-14.844c0-8.185,6.659-14.844,14.844-14.844
	l117.521-0.052c23.581,0,46.041-10.152,61.621-27.852l34.619-39.33c3.649-4.146,3.247-10.464-0.899-14.113
	c-4.146-3.648-10.464-3.246-14.113,0.899l-34.619,39.33c-11.784,13.388-28.773,21.067-46.609,21.067h-19.107
	c2.388-4.81,3.737-10.223,3.737-15.947c0-19.85-16.148-35.998-35.998-35.998H118.762c-33.475,0-65.497,14.29-87.852,39.206
	L2.557,391.773c-3.688,4.111-3.346,10.433,0.765,14.121c4.11,3.688,10.433,3.347,14.121-0.765l28.353-31.601
	c18.567-20.694,45.163-32.563,72.967-32.563h139.779c8.822,0,15.999,7.178,15.999,15.999c0,8.474-6.628,15.411-14.968,15.947h-5.751
	c-0.347,0-0.689,0.018-1.026,0.052H192.39c-19.212,0-34.843,15.63-34.843,34.843c0,19.213,15.63,34.843,34.843,34.843h124.292
	c30.682,0,59.904-13.208,80.176-36.238l70.067-79.6c2.711-3.08,6.619-4.847,10.721-4.847c5.837,0,10.724,3.19,13.075,8.532
	c2.35,5.343,1.399,11.1-2.545,15.403l-92.216,100.609c-26.491,28.902-64.17,45.478-103.376,45.478H183.991c-5.523,0-10,4.477-10,10
	c0,5.523,4.477,10,10,10h108.593c44.797,0,87.85-18.94,118.119-51.965l92.216-100.609
	C512.243,349.242,514.583,335.075,509.026,322.444z"/>
<path d="M62.997,305.998h385.982c27.569,0,49.998-22.429,49.998-49.998c0-5.523-4.477-10-10-10h-15.232
	c-2.443-54.472-24.808-105.336-63.615-144.142c-33.043-33.044-74.831-54.159-120.143-61.215V34.01
	c0-18.747-15.251-33.998-33.998-33.998S221.99,15.263,221.99,34.01v6.633c-45.312,7.055-87.1,28.171-120.143,61.214
	c-38.807,38.807-61.172,89.67-63.615,144.142H22.999c-5.523,0-10,4.477-10,10C12.999,283.569,35.428,305.998,62.997,305.998z
	 M241.989,34.01c0-7.72,6.28-13.999,13.999-13.999s13.999,6.28,13.999,13.999v4.456c-4.642-0.292-9.308-0.456-13.999-0.456
	c-4.692,0-9.358,0.163-13.999,0.456V34.01z M255.988,58.009c105.821,0,192.518,83.444,197.741,187.991H58.247
	C63.47,141.453,150.167,58.009,255.988,58.009z M47.998,265.999h415.981h13.286c-4.127,11.64-15.248,19.999-28.286,19.999H62.997
	c-13.037,0-24.158-8.359-28.286-19.999H47.998z"/>
<path d="M309.074,92.493c-5.255-1.708-10.894,1.172-12.597,6.425c-1.705,5.253,1.172,10.893,6.425,12.597
	c27.054,8.778,51.075,25,69.467,46.914c1.978,2.357,4.811,3.571,7.665,3.571c2.268,0,4.55-0.768,6.423-2.34
	c4.23-3.551,4.781-9.858,1.231-14.087C366.881,120.783,339.697,102.428,309.074,92.493z"/>
<path d="M256.33,84.135h-0.342c-5.523,0-10,4.477-10,10s4.477,10,10,10h0.242c0.017,0,0.034,0,0.051,0c5.5,0,9.971-4.444,9.999-9.95
	C266.308,88.662,261.853,84.163,256.33,84.135z"/>
<g>
</g>
<g>
</g>
<g>
</g>
<g>
</g>
<g>
</g>
<g>
</g>
<g>
</g>
<g>
</g>
<g>
</g>
<g>
</g>
<g>
</g>
<g>
</g>
<g>
</g>
<g>
</g>
<g>
</g>
</svg>
