<?xml version="1.0" encoding="iso-8859-1"?>
<!-- Generator: Adobe Illustrator 19.0.0, SVG Export Plug-In . SVG Version: 6.00 Build 0)  -->
<svg version="1.1" id="Capa_1" xmlns="http://www.w3.org/2000/svg" xmlns:xlink="http://www.w3.org/1999/xlink" x="0px" y="0px"
	 viewBox="0 0 512 512" style="enable-background:new 0 0 512 512;" xml:space="preserve">
<path style="fill:#4DBAF6;" d="M81.484,325.976h169.862h219.443c17.241,0,31.218-13.977,31.218-31.218V41.343
	c0-17.241-13.977-31.218-31.218-31.218H81.484c-17.241,0-31.218,13.977-31.218,31.218v253.415
	C50.266,311.999,64.243,325.976,81.484,325.976z"/>
<path style="fill:#FFFFFF;" d="M41.212,393.905h169.862h219.443c17.241,0,31.218-13.977,31.218-31.218V109.272
	c0-17.241-13.977-31.218-31.218-31.218H41.212c-17.241,0-31.218,13.977-31.218,31.218v253.415
	C9.994,379.928,23.971,393.905,41.212,393.905z"/>
<rect x="9.994" y="140.02" style="fill:#B3B6C3;" width="451.74" height="76.956"/>
<circle style="fill:#FEA02C;" cx="141.049" cy="305.135" r="40.397"/>
<circle style="fill:#FF5D5D;" cx="90.668" cy="305.135" r="40.397"/>
<path style="fill:#FEDA9B;" d="M100.651,305.14c0,12.782,5.942,24.168,15.207,31.571c9.265-7.403,15.207-18.79,15.207-31.571
	c0-12.781-5.942-24.168-15.207-31.571C106.594,280.971,100.651,292.358,100.651,305.14z"/>
<circle style="fill:#FFB954;" cx="327.731" cy="406.077" r="95.795"/>
<path d="M470.789,0.131H81.483c-22.724,0-41.211,18.487-41.211,41.211v26.741C17.982,68.586,0,86.862,0,109.272v30.746v76.956
	v145.713c0,22.724,18.487,41.211,41.211,41.211h113.699c5.519,0,9.994-4.474,9.994-9.994c0-5.52-4.475-9.994-9.994-9.994H41.211
	c-11.702,0-21.223-9.521-21.223-21.223V226.968H451.74v135.719c0,11.483-9.173,20.842-20.572,21.19
	c-10.231-47.707-52.72-83.586-103.437-83.586c-58.332,0-105.79,47.457-105.79,105.789s47.457,105.789,105.79,105.789
	c58.331,0,105.789-47.457,105.789-105.789c0-0.77-0.013-1.536-0.029-2.302c21.34-1.529,38.238-19.368,38.238-41.091v-26.741
	c22.29-0.503,40.272-18.779,40.272-41.188V41.343C512,18.619,493.513,0.131,470.789,0.131z M327.73,491.881
	c-47.311,0-85.802-38.49-85.802-85.801s38.491-85.801,85.802-85.801s85.801,38.49,85.801,85.801S375.041,491.881,327.73,491.881z
	 M19.988,206.979v-56.967H40.31c5.519,0,9.994-4.474,9.994-9.994c0-5.52-4.475-9.994-9.994-9.994H19.988v-20.752
	c0-11.702,9.521-21.224,21.223-21.224h389.305c11.702,0,21.223,9.521,21.223,21.224v20.752h-335.88
	c-5.519,0-9.994,4.474-9.994,9.994c0,5.52,4.475,9.994,9.994,9.994H451.74v56.967H19.988z M492.012,294.758
	c0,11.385-9.019,20.679-20.283,21.176v-98.96v-76.956v-30.746c0-22.725-18.487-41.212-41.211-41.212H60.26V41.343
	c0-11.702,9.521-21.223,21.223-21.223h389.306c11.702,0,21.223,9.521,21.223,21.223L492.012,294.758L492.012,294.758z"/>
<path d="M77.625,130.023c-2.639,0-5.207,1.069-7.066,2.928c-1.869,1.859-2.928,4.437-2.928,7.066s1.059,5.207,2.928,7.066
	c1.859,1.859,4.427,2.928,7.066,2.928c2.628,0,5.197-1.069,7.066-2.928c1.858-1.859,2.928-4.437,2.928-7.066
	s-1.069-5.207-2.928-7.066C82.822,131.092,80.254,130.023,77.625,130.023z"/>
<path d="M141.051,254.746c-9.174,0-17.775,2.477-25.192,6.777c-7.418-4.301-16.019-6.777-25.192-6.777
	c-27.788,0-50.394,22.606-50.394,50.393c0,27.787,22.606,50.394,50.394,50.394c9.174,0,17.775-2.477,25.192-6.777
	c7.418,4.301,16.019,6.777,25.192,6.777c27.788,0,50.394-22.607,50.394-50.394C191.445,277.352,168.839,254.746,141.051,254.746z
	 M115.858,322.146c-3.29-4.857-5.213-10.712-5.213-17.006c0-6.295,1.923-12.149,5.213-17.006c3.29,4.857,5.213,10.711,5.213,17.006
	C121.071,311.434,119.147,317.289,115.858,322.146z M60.26,305.139c0-16.765,13.639-30.404,30.405-30.404
	c3.204,0,6.293,0.502,9.196,1.425c-5.79,8.204-9.205,18.198-9.205,28.98c0,10.783,3.415,20.776,9.205,28.98
	c-2.902,0.923-5.992,1.425-9.196,1.425C73.899,335.544,60.26,321.905,60.26,305.139z M141.051,335.544
	c-3.205,0-6.293-0.502-9.196-1.425c5.79-8.204,9.205-18.198,9.205-28.98c0-10.783-3.415-20.776-9.205-28.98
	c2.902-0.923,5.992-1.425,9.196-1.425c16.765,0,30.405,13.639,30.405,30.404C171.456,321.905,157.816,335.544,141.051,335.544z"/>
<path d="M190.89,383.906c-2.628,0-5.207,1.069-7.066,2.928c-1.859,1.859-2.928,4.437-2.928,7.066c0,2.638,1.068,5.207,2.928,7.066
	c1.859,1.869,4.437,2.928,7.066,2.928c2.628,0,5.207-1.059,7.065-2.928c1.859-1.859,2.929-4.437,2.929-7.066
	c0-2.629-1.069-5.207-2.929-7.066C196.097,384.976,193.519,383.906,190.89,383.906z"/>
<path d="M327.73,367.646c9.432,0,17.103,6.549,17.103,14.599c0,5.52,4.475,9.994,9.994,9.994c5.519,0,9.994-4.474,9.994-9.994
	c0-15.843-11.486-29.222-27.097-33.302v-6.523c0-5.52-4.475-9.994-9.994-9.994s-9.994,4.474-9.994,9.994v6.523
	c-15.612,4.08-27.098,17.459-27.098,33.302c0,19.072,16.639,34.587,37.093,34.587c9.432,0,17.103,6.549,17.103,14.599
	s-7.673,14.599-17.103,14.599s-17.104-6.549-17.104-14.599c0-5.52-4.475-9.994-9.994-9.994c-5.519,0-9.994,4.474-9.994,9.994
	c0,15.843,11.486,29.222,27.098,33.301v5.009c0,5.52,4.475,9.994,9.994,9.994s9.994-4.474,9.994-9.994v-5.009
	c15.611-4.08,27.097-17.459,27.097-33.301c0-19.072-16.639-34.587-37.092-34.587c-9.432,0-17.104-6.549-17.104-14.599
	S318.299,367.646,327.73,367.646z"/>
<path d="M337.724,270.737v-15.991c0-5.52-4.475-9.994-9.994-9.994s-9.994,4.474-9.994,9.994v15.991c0,5.52,4.475,9.994,9.994,9.994
	S337.724,276.256,337.724,270.737z"/>
<path d="M382.159,298.271c3.777,0,7.392-2.152,9.08-5.805l6.707-14.516c2.315-5.011,0.13-10.95-4.881-13.264
	c-5.014-2.319-10.95-0.129-13.264,4.88l-6.707,14.516c-2.315,5.011-0.13,10.95,4.881,13.264
	C379.331,297.974,380.757,298.271,382.159,298.271z"/>
<path d="M273.301,298.271c1.403,0,2.829-0.297,4.187-0.924c5.01-2.316,7.195-8.254,4.879-13.264l-6.708-14.516
	c-2.315-5.01-8.252-7.198-13.264-4.88c-5.01,2.316-7.195,8.254-4.879,13.264l6.708,14.516
	C265.91,296.12,269.525,298.271,273.301,298.271z"/>
<g>
</g>
<g>
</g>
<g>
</g>
<g>
</g>
<g>
</g>
<g>
</g>
<g>
</g>
<g>
</g>
<g>
</g>
<g>
</g>
<g>
</g>
<g>
</g>
<g>
</g>
<g>
</g>
<g>
</g>
</svg>
