<?xml version="1.0" encoding="iso-8859-1"?>
<!-- Generator: Adobe Illustrator 19.0.0, SVG Export Plug-In . SVG Version: 6.00 Build 0)  -->
<svg version="1.1" id="Capa_1" xmlns="http://www.w3.org/2000/svg" xmlns:xlink="http://www.w3.org/1999/xlink" x="0px" y="0px"
	 viewBox="0 0 512 512" style="enable-background:new 0 0 512 512;" xml:space="preserve">
<path style="fill:#72D8FF;" d="M441,10.127H71c-13.255,0-24,10.745-24,24v443.877c0,13.255,10.745,24,24,24h370
	c13.255,0,24-10.745,24-24V34.127C465,20.872,454.255,10.127,441,10.127z"/>
<path style="fill:#C9F3FF;" d="M465,34c0-13.255-10.745-24-24-24H71c-13.255,0-24,10.745-24,24v62.98v35.848l0.284,0.013
	c115.36,52.215,302.368,52.21,417.716-0.013l0,0V96.98V34z"/>
<circle style="fill:#FFFFFF;" cx="256" cy="293.08" r="144"/>
<circle style="fill:#4DBAF6;" cx="256" cy="293.08" r="100.36"/>
<rect x="192" y="50.21" style="fill:#898998;" width="128" height="47.572"/>
<circle style="fill:#FFFFFF;" cx="400" cy="74" r="23.786"/>
<path d="M502,492h-30.034c1.942-4.276,3.034-9.017,3.034-14.012V34c0-18.748-15.252-34-34-34H71C52.252,0,37,15.252,37,34v443.988
	c0,4.994,1.091,9.736,3.034,14.012H10c-5.522,0-10,4.477-10,10s4.478,10,10,10h492c5.522,0,10-4.477,10-10S507.522,492,502,492z
	 M71,20h370c7.72,0,14,6.28,14,14v92.297c-21.703,9.291-46.261,16.952-73.123,22.791c-5.396,1.173-8.821,6.499-7.647,11.896
	c1.018,4.681,5.159,7.878,9.762,7.878c0.703,0,1.418-0.075,2.134-0.23c24.917-5.416,48.014-12.356,68.875-20.686v330.043
	c0,7.72-6.28,14-14,14H71c-7.72,0-14-6.28-14-14V147.834c24.095,9.648,51.095,17.418,80.506,23.139
	c0.645,0.125,1.287,0.186,1.92,0.186c4.69,0,8.876-3.316,9.806-8.093c1.054-5.421-2.485-10.671-7.907-11.725
	c-31.27-6.082-59.599-14.537-84.324-25.15V34C57,26.28,63.28,20,71,20z"/>
<path d="M147.106,184.192c-23.811,23.812-38.882,53.975-43.582,87.23c-4.545,32.155,1.322,65.566,16.522,94.08
	c2.598,4.874,8.654,6.718,13.528,4.121c4.874-2.598,6.719-8.655,4.12-13.529c-27.912-52.361-18.446-115.759,23.554-157.759
	c52.244-52.247,137.255-52.248,189.503,0c52.247,52.246,52.247,137.257,0,189.503c-43.256,43.254-110.203,51.774-162.806,20.72
	c-4.756-2.808-10.889-1.227-13.695,3.527c-2.808,4.756-1.229,10.888,3.527,13.695c24.326,14.362,51.313,21.359,78.129,21.359
	c39.832,0,79.278-15.451,108.987-45.16c60.044-60.044,60.044-157.744,0-217.789C304.85,124.148,207.151,124.149,147.106,184.192z"/>
<path d="M160.342,386.924c-4.007-4.001-10.253-4.045-14.214-0.091c-3.963,3.951-3.94,10.194,0.05,14.213
	c2.023,2.038,4.626,3.061,7.219,3.061c2.521,0,5.033-0.967,6.995-2.906c3.979-3.933,3.985-10.176,0.013-14.214
	C160.384,386.966,160.362,386.945,160.342,386.924z"/>
<path d="M256,403.448c60.854,0,110.363-49.509,110.363-110.363S316.854,182.722,256,182.722S145.637,232.23,145.637,293.085
	S195.146,403.448,256,403.448z M172.253,259.157l94.129,94.13c1.953,1.953,4.512,2.929,7.071,2.929s5.118-0.976,7.071-2.929
	c3.905-3.905,3.905-10.237,0-14.143l-98.252-98.252c16.388-23.081,43.328-38.17,73.727-38.17c49.826,0,90.363,40.537,90.363,90.363
	c0,11.633-2.211,22.759-6.232,32.981l-67.991-67.991c-3.906-3.904-10.236-3.904-14.143,0c-3.905,3.905-3.905,10.237,0,14.143
	l72.274,72.275c-16.331,23.522-43.531,38.956-74.271,38.956c-49.826,0-90.363-40.537-90.363-90.363
	C165.637,281.091,167.991,269.638,172.253,259.157z"/>
<path d="M239.979,230.052c-2.63,0-5.21,1.07-7.069,2.93c-1.86,1.86-2.931,4.44-2.931,7.07c0,2.64,1.07,5.21,2.931,7.07
	c1.859,1.87,4.439,2.93,7.069,2.93s5.21-1.06,7.07-2.93c1.86-1.86,2.93-4.43,2.93-7.07c0-2.63-1.069-5.21-2.93-7.07
	C245.189,231.122,242.609,230.052,239.979,230.052z"/>
<path d="M192,107.786h128c5.522,0,10-4.477,10-10V50.214c0-5.523-4.478-10-10-10H192c-5.522,0-10,4.477-10,10v47.572
	C182,103.309,186.478,107.786,192,107.786z M202,60.214h108v27.572H202V60.214z"/>
<path d="M399.999,107.786c18.63,0,33.786-15.156,33.786-33.786s-15.156-33.786-33.786-33.786S366.213,55.37,366.213,74
	S381.369,107.786,399.999,107.786z M399.999,60.214c7.602,0,13.786,6.185,13.786,13.786s-6.185,13.786-13.786,13.786
	S386.213,81.602,386.213,74S392.397,60.214,399.999,60.214z"/>
<path d="M88.33,85.172c2.63,0,5.21-1.07,7.069-2.93c1.87-1.87,2.931-4.44,2.931-7.07s-1.061-5.21-2.931-7.07
	c-1.859-1.87-4.439-2.93-7.069-2.93s-5.21,1.06-7.07,2.93c-1.86,1.86-2.93,4.43-2.93,7.07c0,2.63,1.069,5.21,2.93,7.07
	S85.7,85.172,88.33,85.172z"/>
<path d="M122.17,85.172c2.63,0,5.21-1.07,7.07-2.93c1.859-1.86,2.93-4.44,2.93-7.07c0-2.64-1.07-5.21-2.93-7.07
	c-1.86-1.87-4.44-2.93-7.07-2.93c-2.641,0-5.21,1.06-7.07,2.93c-1.87,1.85-2.93,4.43-2.93,7.07c0,2.63,1.06,5.21,2.93,7.07
	C116.96,84.102,119.529,85.172,122.17,85.172z"/>
<path d="M156,85.172c2.63,0,5.21-1.07,7.069-2.93c1.86-1.87,2.931-4.44,2.931-7.07s-1.07-5.21-2.931-7.07
	c-1.859-1.87-4.43-2.93-7.069-2.93c-2.63,0-5.21,1.06-7.07,2.93c-1.86,1.86-2.93,4.43-2.93,7.07c0,2.63,1.069,5.21,2.93,7.07
	S153.37,85.172,156,85.172z"/>
<g>
</g>
<g>
</g>
<g>
</g>
<g>
</g>
<g>
</g>
<g>
</g>
<g>
</g>
<g>
</g>
<g>
</g>
<g>
</g>
<g>
</g>
<g>
</g>
<g>
</g>
<g>
</g>
<g>
</g>
</svg>
