<?xml version="1.0" encoding="iso-8859-1"?>
<!-- Generator: Adobe Illustrator 19.0.0, SVG Export Plug-In . SVG Version: 6.00 Build 0)  -->
<svg version="1.1" id="Capa_1" xmlns="http://www.w3.org/2000/svg" xmlns:xlink="http://www.w3.org/1999/xlink" x="0px" y="0px"
	 viewBox="0 0 511.999 511.999" style="enable-background:new 0 0 511.999 511.999;" xml:space="preserve">
<rect x="10.067" y="172.955" style="fill:#C9F3FF;" width="491.872" height="221.033"/>
<rect x="156.399" y="143.763" style="fill:#EDF2FA;" width="201.578" height="250.225"/>
<path style="fill:#C9F3FF;" d="M501.936,355.865c-6.842-5.431-16.528-5.423-23.361,0.02l-15.615,12.437
	c-6.832,5.442-16.517,5.451-23.359,0.021l-15.729-12.481c-6.842-5.43-16.526-5.421-23.359,0.021l-15.596,12.422
	c-6.842,5.45-16.542,5.45-23.385,0.001l-15.6-12.424c-6.833-5.442-16.517-5.45-23.359-0.02l-15.746,12.496
	c-6.832,5.423-16.5,5.423-23.333,0.001l-15.75-12.498c-6.842-5.43-16.526-5.421-23.359,0.021l-15.615,12.437
	c-6.833,5.443-16.518,5.451-23.361,0.02l-15.746-12.498c-6.834-5.425-16.506-5.424-23.339,0.002l-15.741,12.499
	c-6.843,5.434-16.53,5.426-23.364-0.018l-15.617-12.441c-6.833-5.443-16.518-5.452-23.361-0.021L72.5,368.355
	c-6.833,5.423-16.502,5.423-23.335-0.001l-15.77-12.517c-6.833-5.424-16.502-5.424-23.335-0.001V485.38
	c6.833-5.423,16.502-5.423,23.335,0.001l15.77,12.517c6.833,5.424,16.502,5.424,23.335,0.001l15.743-12.494
	c6.843-5.431,16.528-5.422,23.361,0.021l15.617,12.441c6.834,5.445,16.522,5.452,23.364,0.018l15.741-12.499
	c6.833-5.426,16.505-5.427,23.339-0.002l15.746,12.498c6.842,5.431,16.528,5.423,23.361-0.02l15.615-12.438
	c6.832-5.442,16.517-5.451,23.359-0.021l15.75,12.498c6.833,5.422,16.501,5.422,23.333-0.001l15.746-12.496
	c6.842-5.43,16.526-5.422,23.359,0.02l15.6,12.424c6.842,5.45,16.543,5.449,23.385-0.001l15.596-12.422
	c6.832-5.442,16.517-5.451,23.359-0.021l15.729,12.481c6.842,5.43,16.526,5.421,23.359-0.021l15.615-12.437
	c6.833-5.443,16.518-5.451,23.361-0.02V355.865z"/>
<path d="M508.15,477.577c-10.546-8.372-25.267-8.359-35.804,0.03l-15.614,12.437c-3.212,2.557-7.701,2.562-10.917,0.01
	l-15.728-12.481c-10.546-8.369-25.266-8.357-35.803,0.033l-15.596,12.422c-3.216,2.562-7.71,2.562-10.928,0l-15.6-12.424
	c-10.532-8.388-25.255-8.399-35.802-0.03l-15.746,12.497c-3.21,2.548-7.693,2.547-10.903,0l-15.75-12.498
	c-10.546-8.369-25.267-8.357-35.803,0.033l-15.615,12.437c-3.212,2.558-7.7,2.562-10.916,0.009l-15.746-12.498
	c-10.53-8.36-25.24-8.358-35.771,0.003l-15.741,12.499c-3.216,2.553-7.706,2.551-10.918-0.008l-15.617-12.441
	c-10.532-8.391-25.257-8.404-35.805-0.032l-15.742,12.494c-3.21,2.548-7.694,2.548-10.904-0.001l-15.77-12.517
	c-10.53-8.358-25.236-8.357-35.765-0.001c-4.324,3.432-5.049,9.72-1.616,14.045c3.433,4.325,9.719,5.049,14.046,1.617
	c3.209-2.546,7.693-2.547,10.904,0l15.769,12.517c10.529,8.358,25.236,8.358,35.766,0.001l15.742-12.494
	c3.216-2.552,7.705-2.548,10.917,0.01l15.617,12.441c10.535,8.394,25.261,8.405,35.81,0.028l15.741-12.499
	c3.208-2.549,7.694-2.55,10.906-0.001l15.745,12.498c10.547,8.373,25.269,8.361,35.805-0.03l15.614-12.437
	c3.209-2.557,7.698-2.562,10.917-0.01l15.75,12.497c5.264,4.178,11.571,6.266,17.88,6.266c6.308,0,12.618-2.089,17.882-6.267
	l15.746-12.497c3.213-2.551,7.702-2.548,10.915,0.009l15.6,12.424c10.552,8.403,25.291,8.403,35.842-0.001l15.595-12.422
	c3.209-2.557,7.698-2.562,10.917-0.01l15.728,12.484c10.549,8.368,25.268,8.354,35.803-0.033l15.615-12.437
	c3.21-2.558,7.697-2.563,10.916-0.01c4.325,3.432,10.612,2.708,14.046-1.616C513.198,487.298,512.476,481.01,508.15,477.577z"/>
<path d="M16.278,428.442c3.21-2.548,7.694-2.547,10.904,0l15.769,12.518c10.53,8.358,25.237,8.357,35.766,0.001l15.741-12.494
	c3.217-2.552,7.707-2.547,10.918,0.01l15.617,12.44c10.535,8.394,25.261,8.405,35.81,0.028l15.741-12.499
	c3.208-2.55,7.694-2.55,10.906-0.001l15.745,12.498c10.547,8.373,25.269,8.36,35.805-0.03l15.614-12.437
	c3.214-2.558,7.701-2.561,10.917-0.01l15.75,12.497c5.264,4.178,11.572,6.266,17.88,6.266c6.309,0,12.618-2.089,17.882-6.267
	l15.746-12.497c3.213-2.552,7.702-2.549,10.915,0.009l15.6,12.424c10.551,8.403,25.288,8.402,35.842-0.001l15.595-12.422
	c3.212-2.558,7.701-2.561,10.917-0.01l15.728,12.481c10.547,8.37,25.27,8.355,35.803-0.033l15.615-12.437
	c3.212-2.559,7.701-2.561,10.915-0.009c4.324,3.433,10.613,2.709,14.046-1.615c3.433-4.325,2.71-10.613-1.614-14.045
	c-10.547-8.373-25.269-8.361-35.805,0.029l-15.615,12.437c-3.21,2.558-7.698,2.562-10.916,0.01l-15.728-12.482
	c-10.549-8.368-25.268-8.355-35.803,0.033l-15.596,12.422c-3.217,2.561-7.709,2.562-10.928,0l-15.6-12.424
	c-10.534-8.388-25.255-8.4-35.802-0.03l-15.746,12.497c-3.21,2.547-7.693,2.547-10.903,0l-15.75-12.498
	c-10.549-8.368-25.27-8.355-35.803,0.033l-15.615,12.437c-3.212,2.558-7.7,2.562-10.916,0.009l-15.746-12.498
	c-10.532-8.359-25.24-8.358-35.771,0.003l-15.741,12.499c-3.216,2.553-7.706,2.551-10.918-0.008l-15.617-12.44
	c-10.534-8.391-25.256-8.403-35.805-0.033l-15.742,12.494c-3.21,2.548-7.694,2.547-10.904,0l-15.77-12.518
	c-10.528-8.356-25.234-8.357-35.765,0c-4.325,3.433-5.049,9.721-1.616,14.046C5.665,431.15,11.951,431.874,16.278,428.442z"/>
<path d="M508.15,348.035c-10.547-8.373-25.27-8.36-35.804,0.03l-15.614,12.437c-3.211,2.556-7.7,2.562-10.917,0.01l-15.728-12.481
	c-10.547-8.37-25.268-8.356-35.803,0.033l-15.595,12.422c-3.218,2.562-7.711,2.561-10.929,0l-15.6-12.423
	c-10.532-8.388-25.253-8.401-35.802-0.031l-15.746,12.497c-3.21,2.548-7.693,2.547-10.903,0l-15.75-12.498
	c-10.546-8.369-25.267-8.357-35.803,0.032L222.543,360.5c-3.212,2.557-7.7,2.562-10.916,0.009l-15.746-12.498
	c-10.532-8.36-25.24-8.357-35.771,0.003l-15.74,12.499c-3.218,2.554-7.707,2.55-10.919-0.008l-15.617-12.441
	c-10.532-8.391-25.257-8.403-35.805-0.032l-15.742,12.494c-3.21,2.548-7.694,2.547-10.904,0l-15.77-12.518
	c-10.528-8.355-25.234-8.357-35.765,0c-4.324,3.432-5.049,9.72-1.616,14.045c3.433,4.325,9.719,5.049,14.046,1.617
	c3.21-2.549,7.694-2.546,10.904,0l15.769,12.518c10.529,8.357,25.236,8.358,35.766,0.001l15.742-12.494
	c3.215-2.552,7.704-2.549,10.917,0.01l15.617,12.441c10.535,8.392,25.261,8.404,35.81,0.028l15.741-12.499
	c3.208-2.549,7.694-2.55,10.906-0.001l15.746,12.498c10.547,8.373,25.27,8.36,35.804-0.03l15.614-12.437
	c3.209-2.557,7.698-2.562,10.917-0.01l15.75,12.497c5.264,4.178,11.571,6.266,17.88,6.266c6.308,0,12.618-2.089,17.882-6.267
	l15.746-12.497c3.213-2.551,7.702-2.548,10.915,0.01l15.6,12.423c10.552,8.402,25.289,8.403,35.842-0.001l15.595-12.422
	c3.209-2.557,7.698-2.562,10.917-0.01l15.728,12.481c10.547,8.37,25.268,8.355,35.803-0.032l15.615-12.438
	c3.212-2.558,7.7-2.561,10.916-0.009c4.325,3.432,10.612,2.708,14.046-1.616C513.198,357.755,512.476,351.467,508.15,348.035z"/>
<path d="M429.955,0c-45.203,0-81.979,36.775-81.979,81.979v107.873H168.027v-36.09h107.398c5.521,0,9.997-4.476,9.997-9.997
	s-4.477-9.997-9.997-9.997H168.027V81.979c0-34.178,27.806-61.984,61.984-61.984s61.984,27.806,61.984,61.984v21.195
	c0,5.522,4.477,9.997,9.997,9.997s9.997-4.476,9.997-9.997V81.979C311.989,36.775,275.214,0,230.011,0s-81.979,36.775-81.979,81.979
	v80.979H46.387c-5.521,0-9.997,4.476-9.997,9.997s4.477,9.997,9.997,9.997h101.645v145.962c0,5.522,4.477,9.997,9.997,9.997
	s9.997-4.476,9.997-9.997v-7.196h179.949v7.196c0,5.522,4.477,9.997,9.997,9.997s9.997-4.476,9.997-9.997V81.979
	c0-34.178,27.806-61.984,61.984-61.984s61.984,27.806,61.984,61.984v21.195c0,5.522,4.477,9.997,9.997,9.997
	s9.997-4.476,9.997-9.997V81.979C511.933,36.775,475.157,0,429.955,0z M347.976,209.846v36.09H168.027v-36.09H347.976z
	 M168.027,301.724v-35.793h179.949v35.793H168.027z"/>
<path d="M304.987,143.763c0,2.639,1.069,5.209,2.929,7.068c1.859,1.87,4.429,2.929,7.068,2.929c2.629,0,5.209-1.06,7.067-2.929
	c1.859-1.86,2.93-4.439,2.93-7.068c0-2.629-1.07-5.209-2.93-7.068c-1.859-1.86-4.438-2.929-7.067-2.929
	c-2.629,0-5.209,1.07-7.068,2.929C306.056,138.554,304.987,141.132,304.987,143.763z"/>
<path d="M10.064,182.952c2.629,0,5.209-1.07,7.067-2.929c1.86-1.86,2.93-4.439,2.93-7.068c0-2.629-1.07-5.209-2.93-7.068
	c-1.859-1.86-4.429-2.929-7.067-2.929c-2.629,0-5.209,1.07-7.068,2.929s-2.929,4.439-2.929,7.068c0,2.629,1.069,5.209,2.929,7.068
	C4.855,181.883,7.435,182.952,10.064,182.952z"/>
<path d="M501.936,162.958H400.462c-5.521,0-9.997,4.476-9.997,9.997s4.477,9.997,9.997,9.997h101.474
	c5.521,0,9.997-4.476,9.997-9.997S507.457,162.958,501.936,162.958z"/>
<g>
</g>
<g>
</g>
<g>
</g>
<g>
</g>
<g>
</g>
<g>
</g>
<g>
</g>
<g>
</g>
<g>
</g>
<g>
</g>
<g>
</g>
<g>
</g>
<g>
</g>
<g>
</g>
<g>
</g>
</svg>
