<?xml version="1.0" encoding="iso-8859-1"?>
<!-- Generator: Adobe Illustrator 19.0.0, SVG Export Plug-In . SVG Version: 6.00 Build 0)  -->
<svg version="1.1" id="Capa_1" xmlns="http://www.w3.org/2000/svg" xmlns:xlink="http://www.w3.org/1999/xlink" x="0px" y="0px"
	 viewBox="0 0 512 512" style="enable-background:new 0 0 512 512;" xml:space="preserve">
<circle style="fill:#FEDA9B;" cx="345.998" cy="165.999" r="155.999"/>
<g>
	<circle style="fill:#FFB954;" cx="345.998" cy="165.999" r="118.499"/>
	<circle style="fill:#FFB954;" cx="165.999" cy="345.998" r="155.999"/>
</g>
<circle style="fill:#FEDA9B;" cx="165.999" cy="345.998" r="118.499"/>
<path d="M512,166C512,74.468,437.532,0.001,346.001,0.001S180.002,74.468,180.002,166c0,5.523,4.478,10,10,10s10-4.477,10-10
	c0-80.505,65.495-145.999,145.999-145.999S492,85.495,492,166s-65.495,145.999-145.999,145.999c-5.522,0-10,4.477-10,10
	s4.478,10,10,10C437.532,331.999,512,257.532,512,166z"/>
<path d="M345.956,294.426c33.635,0,66.494-13.202,90.916-37.624c50.087-50.088,50.087-131.585,0-181.674
	c-24.264-24.263-56.523-37.625-90.836-37.625s-66.574,13.363-90.837,37.626c-30.181,30.181-43.107,72.549-35.583,113.76
	c-16.827-5.758-34.863-8.889-53.617-8.889C74.468,180.001,0,254.468,0,346s74.468,165.999,165.999,165.999
	S331.998,437.532,331.998,346c0-18.76-3.133-36.801-8.895-53.633C330.701,293.74,338.348,294.426,345.956,294.426z M269.341,89.271
	c20.485-20.486,47.724-31.768,76.695-31.768c28.971,0,56.209,11.282,76.694,31.768c42.29,42.29,42.29,111.1,0,153.389
	c-27.858,27.858-68.721,38.423-106.636,27.576c-0.874-0.25-1.752-0.365-2.618-0.377c-15.73-30.343-40.552-55.241-70.835-71.071
	C230.355,159.976,240.556,118.057,269.341,89.271z M165.999,491.999C85.495,491.999,20,426.505,20,346
	s65.495-145.999,145.999-145.999S311.998,265.495,311.998,346S246.504,491.999,165.999,491.999z"/>
<path d="M352.863,237.996c10.409,0,20.764-2.888,29.943-8.352c4.745-2.825,6.303-8.962,3.478-13.708
	c-2.823-4.746-8.962-6.304-13.707-3.478c-6.174,3.674-12.807,5.538-19.714,5.538c-16.452,0-30.823-10.733-38.435-26.603h30.573
	c5.522,0,10-4.477,10-10c0-5.523-4.478-10-10-10h-36.06c-0.182-1.932-0.285-3.891-0.285-5.88c0-1.303,0.054-2.591,0.133-3.87h46.556
	c5.522,0,10-4.477,10-10s-4.478-10-10-10h-41.832c7.333-16.968,22.212-28.612,39.35-28.612c6.907,0,13.54,1.863,19.714,5.538
	c4.747,2.825,10.883,1.267,13.707-3.479c2.825-4.746,1.268-10.883-3.479-13.708c-9.18-5.463-19.533-8.351-29.942-8.351
	c-27.997,0-51.851,20.341-60.613,48.612h-10.559c-5.522,0-10,4.477-10,10s4.478,10,10,10h7.058c-0.06,1.282-0.094,2.572-0.094,3.87
	c0,1.981,0.09,3.938,0.229,5.88h-7.194c-5.522,0-10,4.477-10,10c0,5.523,4.478,10,10,10h11.211
	C302.154,218.614,325.534,237.996,352.863,237.996z"/>
<path d="M472.05,349.456c-4.982-2.384-10.953-0.273-13.335,4.709c-18.447,38.589-46.597,70.357-82.177,93.034l1.442-4.244
	c1.776-5.229-1.022-10.909-6.252-12.686c-5.229-1.774-10.909,1.022-12.686,6.252l-9.719,28.609
	c-0.853,2.511-0.674,5.259,0.499,7.638s3.242,4.195,5.753,5.048l28.609,9.719c1.066,0.362,2.151,0.534,3.218,0.534
	c4.165,0,8.054-2.624,9.468-6.787c1.776-5.229-1.022-10.908-6.252-12.685l-6.854-2.328c40.404-24.806,72.305-60.199,92.995-103.478
	C479.142,357.808,477.033,351.838,472.05,349.456z"/>
<path d="M39.621,154.93c1.48,0.775,3.066,1.143,4.63,1.143c3.602,0,7.081-1.952,8.867-5.363
	c18.415-35.165,45.225-64.343,78.325-85.507l-1.305,3.842c-1.776,5.229,1.022,10.909,6.252,12.686
	c1.066,0.362,2.15,0.534,3.218,0.534c4.165,0,8.054-2.624,9.468-6.786l9.719-28.609c1.776-5.229-1.022-10.909-6.252-12.686
	l-28.608-9.719c-5.229-1.774-10.909,1.022-12.686,6.252c-1.777,5.23,1.022,10.909,6.252,12.686l7.178,2.438
	c-37.88,23.212-68.49,55.896-89.275,95.59C32.839,146.325,34.729,152.368,39.621,154.93z"/>
<path d="M166.033,217.504c-34.313,0-66.573,13.363-90.836,37.626c-19.934,19.934-32.519,45.191-36.395,73.042
	c-3.747,26.934,1.257,54.885,14.091,78.704c2.621,4.863,8.688,6.679,13.547,4.06c4.862-2.62,6.68-8.685,4.061-13.546
	c-22.529-41.813-14.783-94.496,18.839-128.117c20.485-20.486,47.723-31.768,76.694-31.768s56.209,11.282,76.694,31.768
	c20.486,20.486,31.77,47.724,31.77,76.695c0,28.972-11.283,56.209-31.77,76.695c-33.621,33.622-86.305,41.369-128.117,18.837
	c-4.865-2.62-10.927-0.802-13.548,4.06c-2.619,4.862-0.802,10.927,4.06,13.547c18.662,10.056,39.858,15.305,61.116,15.305
	c5.876,0,11.757-0.401,17.59-1.212c27.851-3.875,53.108-16.46,73.043-36.394c24.264-24.264,37.627-56.524,37.627-90.837
	c0-34.313-13.363-66.574-37.627-90.836C232.606,230.866,200.347,217.504,166.033,217.504z"/>
<path d="M75.18,422.673l-0.076,0.077c-3.893,3.917-3.872,10.249,0.045,14.142c1.951,1.938,4.5,2.906,7.049,2.906
	c2.569,0,5.14-0.984,7.094-2.952l0.076-0.077c3.893-3.917,3.872-10.249-0.045-14.142C85.404,418.736,79.072,418.754,75.18,422.673z"
	/>
<path d="M139.999,378.216c0-5.523-4.478-10-10-10c-5.522,0-10,4.477-10,10c0,20.343,15.43,37.396,36,41.644v5.869
	c0,5.523,4.478,10,10,10c5.522,0,10-4.477,10-10v-5.869c20.57-4.248,36-21.301,36-41.644s-15.43-37.396-36-41.644v-44.625
	c9.387,3.424,16,11.513,16,20.926c0,5.523,4.478,10,10,10s10-4.477,10-10c0-20.343-15.43-37.396-36-41.644v-4.618
	c0-5.523-4.478-10-10-10c-5.522,0-10,4.477-10,10v4.618c-20.57,4.248-36,21.301-36,41.644s15.43,37.396,36,41.644v44.625
	C146.612,395.718,139.999,387.629,139.999,378.216z M191.999,378.216c0,9.413-6.613,17.502-16,20.926v-41.851
	C185.386,360.714,191.999,368.803,191.999,378.216z M139.999,312.872c0-9.413,6.613-17.502,16-20.926v41.852
	C146.612,330.374,139.999,322.285,139.999,312.872z"/>
<g>
</g>
<g>
</g>
<g>
</g>
<g>
</g>
<g>
</g>
<g>
</g>
<g>
</g>
<g>
</g>
<g>
</g>
<g>
</g>
<g>
</g>
<g>
</g>
<g>
</g>
<g>
</g>
<g>
</g>
</svg>
