<?xml version="1.0" encoding="iso-8859-1"?>
<!-- Generator: Adobe Illustrator 19.0.0, SVG Export Plug-In . SVG Version: 6.00 Build 0)  -->
<svg version="1.1" id="Capa_1" xmlns="http://www.w3.org/2000/svg" xmlns:xlink="http://www.w3.org/1999/xlink" x="0px" y="0px"
	 viewBox="0 0 512 512" style="enable-background:new 0 0 512 512;" xml:space="preserve">
<path style="fill:#C9F3FF;" d="M462,324.999H50c-22.091,0-40-17.909-40-40v-208c0-22.091,17.909-40,40-40h412
	c22.091,0,40,17.909,40,40v208C502,307.091,484.091,324.999,462,324.999z"/>
<rect x="10" y="205" style="fill:#FFFFFF;" width="492" height="68"/>
<path style="fill:#72D8FF;" d="M462,36.999H50c-22.091,0-40,17.909-40,40v128h492v-128C502,54.908,484.091,36.999,462,36.999z"/>
<path d="M462,26.999H50c-27.57,0-50,22.43-50,50v208c0,27.57,22.43,50,50,50h65c5.522,0,10-4.477,10-10s-4.478-10-10-10H50
	c-16.542,0-30-13.458-30-30v-2h472v2c0,16.542-13.458,30-30,30h-67.761c-5.522,0-10,4.477-10,10s4.478,10,10,10H462
	c27.57,0,50-22.43,50-50v-208C512,49.429,489.57,26.999,462,26.999z M20,262.999v-186c0-16.542,13.458-30,30-30h412
	c16.542,0,30,13.458,30,30v118H88c-5.522,0-10,4.477-10,10s4.478,10,10,10h404v48H20z"/>
<path d="M256,316.237c-5.522,0-10,4.477-10,10v112.75c0,5.523,4.478,10,10,10s10-4.477,10-10v-112.75
	C266,320.714,261.522,316.237,256,316.237z"/>
<path d="M256,464.999c-2.63,0-5.21,1.07-7.07,2.93s-2.93,4.44-2.93,7.07s1.069,5.21,2.93,7.07s4.44,2.93,7.07,2.93
	s5.21-1.07,7.069-2.93c1.86-1.86,2.931-4.44,2.931-7.07s-1.07-5.21-2.931-7.07C261.21,466.069,258.63,464.999,256,464.999z"/>
<path d="M455.069,229.249c-1.859-1.86-4.439-2.93-7.069-2.93s-5.21,1.07-7.07,2.93c-1.86,1.86-2.93,4.44-2.93,7.07
	s1.069,5.21,2.93,7.07c1.86,1.86,4.44,2.93,7.07,2.93s5.21-1.07,7.069-2.93c1.86-1.86,2.931-4.44,2.931-7.07
	S456.93,231.109,455.069,229.249z"/>
<path d="M414.13,226.319c-2.64,0-5.21,1.07-7.07,2.93c-1.87,1.86-2.93,4.44-2.93,7.07s1.06,5.21,2.93,7.07
	c1.86,1.86,4.431,2.93,7.07,2.93c2.63,0,5.21-1.07,7.07-2.93c1.859-1.86,2.93-4.44,2.93-7.07s-1.07-5.21-2.93-7.07
	C419.34,227.389,416.76,226.319,414.13,226.319z"/>
<path d="M380.25,226.319c-2.63,0-5.21,1.07-7.07,2.93c-1.86,1.86-2.93,4.44-2.93,7.07s1.069,5.21,2.93,7.07
	c1.86,1.86,4.44,2.93,7.07,2.93s5.21-1.07,7.069-2.93c1.87-1.86,2.931-4.44,2.931-7.07s-1.061-5.21-2.931-7.07
	C385.46,227.389,382.89,226.319,380.25,226.319z"/>
<path d="M52.5,194.999c-2.63,0-5.21,1.07-7.07,2.93c-1.86,1.86-2.93,4.44-2.93,7.07s1.069,5.21,2.93,7.07s4.44,2.93,7.07,2.93
	s5.21-1.07,7.069-2.93c1.86-1.86,2.931-4.44,2.931-7.07s-1.07-5.21-2.931-7.07C57.71,196.069,55.13,194.999,52.5,194.999z"/>
<path d="M169.229,328.51c-5.522,0-10,4.477-10,10v3.089c0,51.232-26.003,97.923-69.559,124.898
	c-4.695,2.908-6.144,9.072-3.236,13.767c1.893,3.056,5.163,4.736,8.512,4.736c1.797,0,3.616-0.484,5.256-1.5
	c24.106-14.93,44.142-35.917,57.938-60.69s21.089-52.855,21.089-81.211v-3.089C179.229,332.987,174.752,328.51,169.229,328.51z"/>
<path d="M422.329,466.498c-43.556-26.976-69.559-73.667-69.559-124.898v-3.089c0-5.523-4.478-10-10-10s-10,4.477-10,10v3.089
	c0,28.356,7.293,56.438,21.089,81.211c13.797,24.773,33.832,45.76,57.938,60.69c1.641,1.016,3.459,1.5,5.256,1.5
	c3.348,0,6.619-1.681,8.512-4.736C428.473,475.57,427.024,469.406,422.329,466.498z"/>
<path d="M89.45,418.464c2.762-4.783,1.123-10.899-3.66-13.66L72.5,397.13l13.29-7.673c4.783-2.761,6.422-8.877,3.66-13.66
	c-2.761-4.783-8.878-6.421-13.66-3.66L62.5,379.81v-15.346c0-5.523-4.478-10-10-10s-10,4.477-10,10v15.346l-13.29-7.673
	c-4.785-2.761-10.9-1.122-13.66,3.66c-2.762,4.783-1.123,10.899,3.66,13.66l13.29,7.673l-13.29,7.673
	c-4.783,2.761-6.422,8.877-3.66,13.66c1.853,3.208,5.213,5.001,8.67,5.001c1.696,0,3.416-0.432,4.99-1.341l13.29-7.673v15.346
	c0,5.523,4.478,10,10,10s10-4.477,10-10V414.45l13.29,7.673c1.575,0.909,3.294,1.341,4.99,1.341
	C84.236,423.465,87.599,421.672,89.45,418.464z"/>
<g>
</g>
<g>
</g>
<g>
</g>
<g>
</g>
<g>
</g>
<g>
</g>
<g>
</g>
<g>
</g>
<g>
</g>
<g>
</g>
<g>
</g>
<g>
</g>
<g>
</g>
<g>
</g>
<g>
</g>
</svg>
