<?xml version="1.0" encoding="iso-8859-1"?>
<!-- Generator: Adobe Illustrator 19.0.0, SVG Export Plug-In . SVG Version: 6.00 Build 0)  -->
<svg version="1.1" id="Capa_1" xmlns="http://www.w3.org/2000/svg" xmlns:xlink="http://www.w3.org/1999/xlink" x="0px" y="0px"
	 viewBox="0 0 512 512" style="enable-background:new 0 0 512 512;" xml:space="preserve">
<path style="fill:#FEDA9B;" d="M502,286.679V184.09c0-13.255-10.745-24-24-24H34c-13.255,0-24,10.745-24,24v102.589v151.283
	c0,13.255,10.745,24,24,24h444c13.255,0,24-10.745,24-24V286.679z"/>
<rect x="10" y="50.039" style="fill:#FFB954;" width="492" height="48"/>
<path d="M256,170.089c2.63,0,5.21-1.07,7.07-2.93c1.86-1.86,2.93-4.44,2.93-7.07s-1.07-5.21-2.93-7.07s-4.44-2.93-7.07-2.93
	s-5.21,1.07-7.07,2.93c-1.86,1.86-2.93,4.44-2.93,7.07s1.07,5.21,2.93,7.07C250.79,169.02,253.37,170.089,256,170.089z"/>
<path d="M502,108.037c5.523,0,10-4.477,10-10v-48c0-5.523-4.477-10-10-10H10c-5.523,0-10,4.477-10,10v48c0,5.523,4.477,10,10,10h44
	v42.053H34c-18.748,0-34,15.252-34,34v253.872c0,18.748,15.252,34,34,34h444c18.748,0,34-15.252,34-34V184.09
	c0-18.748-15.252-34-34-34h-20v-42.053H502z M20,88.037v-28h472v28h-34V84.37c0-5.523-4.477-10-10-10s-10,4.477-10,10v3.667H74
	V84.37c0-5.523-4.477-10-10-10s-10,4.477-10,10v3.667H20z M438,150.09H308.141c-5.523,0-10,4.477-10,10s4.477,10,10,10H438v21.934
	c0,5.523,4.477,10,10,10s10-4.477,10-10V170.09h20c7.72,0,14,6.28,14,14v253.872c0,7.72-6.28,14-14,14H34c-7.72,0-14-6.28-14-14
	V184.09c0-7.72,6.28-14,14-14h20v21.934c0,5.523,4.477,10,10,10s10-4.477,10-10V170.09h131.5c5.523,0,10-4.477,10-10
	s-4.477-10-10-10H74v-42.053h364V150.09z"/>
<path d="M56.167,362.024c5.523,0,10-4.477,10-10v-38h36v38c0,5.523,4.477,10,10,10s10-4.477,10-10v-96c0-5.523-4.477-10-10-10
	s-10,4.477-10,10v38h-36v-38c0-5.523-4.477-10-10-10s-10,4.477-10,10v96C46.167,357.547,50.644,362.024,56.167,362.024z"/>
<path d="M332.833,362.024h42.333c5.523,0,10-4.477,10-10s-4.477-10-10-10h-32.333v-28h32.333c5.523,0,10-4.477,10-10
	s-4.477-10-10-10h-32.333v-28h32.333c5.523,0,10-4.477,10-10c0-5.523-4.477-10-10-10h-42.333c-5.523,0-10,4.477-10,10v96
	C322.833,357.547,327.311,362.024,332.833,362.024z"/>
<path d="M413.5,362.024h42.333c5.523,0,10-4.477,10-10s-4.477-10-10-10H423.5v-86c0-5.523-4.477-10-10-10s-10,4.477-10,10v96
	C403.5,357.547,407.977,362.024,413.5,362.024z"/>
<path d="M245.833,266.024h18v86c0,5.523,4.477,10,10,10s10-4.477,10-10v-86h18c5.523,0,10-4.477,10-10c0-5.523-4.477-10-10-10h-56
	c-5.523,0-10,4.477-10,10S240.311,266.024,245.833,266.024z"/>
<path d="M187.5,246.024c-20.953,0-38,17.047-38,38v40c0,20.953,17.047,38,38,38s38-17.047,38-38v-40
	C225.5,263.071,208.453,246.024,187.5,246.024z M205.5,324.024c0,9.925-8.075,18-18,18s-18-8.075-18-18v-40c0-9.925,8.075-18,18-18
	s18,8.075,18,18V324.024z"/>
<path d="M217.331,392.023c0,5.523,4.477,10,10,10h0.142c5.523,0,10-4.477,10-10s-4.477-10-10-10h-0.142
	C221.808,382.023,217.331,386.5,217.331,392.023z"/>
<path d="M189.477,382.024H56.167c-5.523,0-10,4.477-10,10s4.477,10,10,10h133.311c5.523,0,10-4.477,10-10
	S195,382.024,189.477,382.024z"/>
<g>
</g>
<g>
</g>
<g>
</g>
<g>
</g>
<g>
</g>
<g>
</g>
<g>
</g>
<g>
</g>
<g>
</g>
<g>
</g>
<g>
</g>
<g>
</g>
<g>
</g>
<g>
</g>
<g>
</g>
</svg>
