<?xml version="1.0" encoding="iso-8859-1"?>
<!-- Generator: Adobe Illustrator 19.0.0, SVG Export Plug-In . SVG Version: 6.00 Build 0)  -->
<svg version="1.1" id="Capa_1" xmlns="http://www.w3.org/2000/svg" xmlns:xlink="http://www.w3.org/1999/xlink" x="0px" y="0px"
	 viewBox="0 0 512 512" style="enable-background:new 0 0 512 512;" xml:space="preserve">
<path style="fill:#72D8FF;" d="M502,164.738C502,79.278,432.722,10,347.263,10S192.525,79.278,192.525,164.738
	c0,37.046,13.025,71.046,34.737,97.685h-0.011l120.011,153.824l119.439-153.018h-0.09C488.718,236.471,502,202.156,502,164.738z"/>
<path id="SVGCleanerId_0" style="fill:#FFFFFF;" d="M347.263,267.207c-55.228,0-100-44.772-100-100s44.772-100,100-100
	s100,44.772,100,100S402.491,267.207,347.263,267.207z"/>
<g>
	<path id="SVGCleanerId_0_1_" style="fill:#FFFFFF;" d="M347.263,267.207c-55.228,0-100-44.772-100-100s44.772-100,100-100
		s100,44.772,100,100S402.491,267.207,347.263,267.207z"/>
</g>
<path style="fill:#72D8FF;" d="M355.52,119.316h-28.86v57.719h28.86c15.939,0,28.86-12.921,28.86-28.86l0,0
	C384.379,132.237,371.458,119.316,355.52,119.316z"/>
<path style="fill:#BAEA83;" d="M118.542,475.699h179.505h50.161L394,475.777v-51.136c0-24.774-20.083-44.857-44.857-44.857h-140.85
	h-0.012H54.857C30.083,379.784,10,399.867,10,424.641v51.136l53.263-0.079h55.279V475.699z"/>
<g>
	<path style="fill:#FFFFFF;" d="M10,440.591h24.49c9.855,0,17.844-7.989,17.844-17.844l0,0c0-9.855-7.989-17.844-17.844-17.844
		H15.156L10,440.591z"/>
	<path style="fill:#FFFFFF;" d="M350.938,416.247h42.266c-3.932-20.759-22.156-36.462-44.058-36.463h-9.864L350.938,416.247z"/>
</g>
<path style="fill:#C9F3FF;" d="M253.622,284.688H136.949c-14.4,0-27.405,8.607-33.032,21.862l-31.09,73.234h244.917l-31.09-73.234
	C281.027,293.296,268.022,284.688,253.622,284.688z"/>
<g>
	<circle style="fill:#898998;" cx="93.46" cy="475.7" r="26.301"/>
	<circle style="fill:#898998;" cx="323.13" cy="475.7" r="26.301"/>
</g>
<path d="M259.327,118.491c-5.077-2.184-10.956,0.164-13.136,5.238c-8.592,19.988-11.055,41.905-7.122,63.38
	c4.028,21.997,14.544,42.011,30.412,57.879c21.444,21.444,49.613,32.167,77.782,32.167s56.337-10.722,77.781-32.167
	c20.777-20.776,32.219-48.4,32.219-77.782s-11.442-57.005-32.218-77.782c-16.079-16.079-36.378-26.646-58.703-30.56
	c-21.813-3.822-43.982-1.073-64.112,7.952c-5.04,2.26-7.293,8.177-5.033,13.216c2.258,5.039,8.174,7.291,13.216,5.034
	c33.858-15.182,74.243-7.747,100.49,18.5c16.999,16.999,26.36,39.6,26.36,63.639c0,24.04-9.362,46.641-26.361,63.64
	c-35.091,35.091-92.188,35.09-127.279,0c-26.216-26.216-33.697-65.162-19.058-99.219
	C266.746,126.553,264.401,120.672,259.327,118.491z"/>
<path d="M283.61,103.58l0.371-0.368c3.927-3.883,3.962-10.215,0.079-14.142c-3.883-3.926-10.214-3.961-14.142-0.079l-0.423,0.421
	c-3.912,3.898-3.924,10.229-0.026,14.142c1.954,1.961,4.519,2.942,7.084,2.942C279.105,106.496,281.658,105.524,283.61,103.58z"/>
<path d="M347.263,0c-90.837,0-164.738,73.901-164.738,164.738c0,26.82,6.597,53.448,19.078,77.004
	c2.586,4.88,8.637,6.74,13.518,4.155c4.88-2.586,6.74-8.638,4.155-13.518c-10.958-20.683-16.75-44.072-16.75-67.641
	C202.525,84.929,267.454,20,347.263,20S492,84.929,492,164.738c0,33.571-11.754,66.288-33.098,92.122
	c-0.313,0.379-0.594,0.776-0.842,1.188l-89.879,115.148c-5.934-2.203-12.347-3.411-19.038-3.411h-9.901c-0.02,0-0.04,0-0.061,0
	h-14.819l-28.503-67.141c-7.209-16.982-23.788-27.955-42.237-27.955H136.949c-18.449,0-35.027,10.973-42.237,27.955l-28.503,67.141
	H54.856C24.608,369.784,0,394.393,0,424.641v51.137c0,2.655,1.056,5.201,2.935,7.077c1.875,1.872,4.417,2.923,7.065,2.923
	c0.005,0,0.011,0,0.016,0l48.557-0.076C62.927,500.867,76.914,512,93.461,512c16.548,0,30.535-11.134,34.889-26.301h159.886
	c4.355,15.167,18.342,26.301,34.89,26.301c16.545,0,30.529-11.129,34.887-26.291l35.968,0.068c0.006,0,0.013,0,0.019,0
	c2.648,0,5.189-1.051,7.064-2.922c1.879-1.876,2.936-4.422,2.936-7.078V424.64c0-16.333-7.183-31.012-18.546-41.07l89.131-114.189
	c0.194-0.249,0.375-0.504,0.542-0.767C498.914,239.36,512,202.523,512,164.738C512,73.901,438.099,0,347.263,0z M378.733,406.247
	h-20.494l-5.191-16.238C363.881,391.222,373.224,397.418,378.733,406.247z M277.449,310.458l25.186,59.326h-97.349v-75.096h48.336
	C264.03,294.688,273.382,300.878,277.449,310.458z M113.122,310.458c4.066-9.58,13.419-15.77,23.827-15.77h48.337v75.096h-97.35
	L113.122,310.458z M20,424.641c0-3.38,0.493-6.644,1.394-9.737H34.49c4.325,0,7.844,3.519,7.844,7.844s-3.519,7.844-7.844,7.844H20
	V424.641z M20,450.591h14.49c15.353,0,27.844-12.491,27.844-27.844c0-14.656-11.385-26.695-25.773-27.759
	c5.322-3.296,11.589-5.205,18.296-5.205h130.429v75.915h-56.935c-4.354-15.167-18.341-26.301-34.889-26.301
	c-16.549,0-30.537,11.135-34.89,26.303L20,465.762V450.591z M93.461,492c-8.989,0-16.302-7.313-16.302-16.301
	s7.313-16.301,16.302-16.301s16.301,7.313,16.301,16.301S102.45,492,93.461,492z M323.126,492c-8.989,0-16.301-7.313-16.301-16.301
	s7.313-16.301,16.301-16.301s16.302,7.313,16.302,16.301S332.115,492,323.126,492z M358.019,465.709
	c-4.351-15.173-18.341-26.312-34.893-26.312c-16.548,0-30.535,11.134-34.889,26.301h-82.951v-75.915h112.458h14.236l9.432,29.508
	c1.325,4.143,5.176,6.955,9.525,6.955H384v39.511L358.019,465.709z"/>
<path d="M336.66,218.4v-31.365h18.859c21.427,0,38.86-17.433,38.86-38.86s-17.433-38.859-38.86-38.859H326.66
	c-5.523,0-10,4.477-10,10v28.859v28.86V218.4c0,5.523,4.477,10,10,10S336.66,223.923,336.66,218.4z M336.66,129.316h18.859
	c10.399,0,18.86,8.46,18.86,18.859c0,10.399-8.46,18.86-18.86,18.86H336.66v-18.86V129.316z"/>
<path d="M155.805,432.807c5.523,0,10-4.477,10-10v-0.118c0-5.523-4.477-10-10-10s-10,4.477-10,10v0.118
	C145.805,428.33,150.282,432.807,155.805,432.807z"/>
<g>
</g>
<g>
</g>
<g>
</g>
<g>
</g>
<g>
</g>
<g>
</g>
<g>
</g>
<g>
</g>
<g>
</g>
<g>
</g>
<g>
</g>
<g>
</g>
<g>
</g>
<g>
</g>
<g>
</g>
</svg>
