<?xml version="1.0" encoding="iso-8859-1"?>
<!-- Generator: Adobe Illustrator 19.0.0, SVG Export Plug-In . SVG Version: 6.00 Build 0)  -->
<svg version="1.1" id="Capa_1" xmlns="http://www.w3.org/2000/svg" xmlns:xlink="http://www.w3.org/1999/xlink" x="0px" y="0px"
	 viewBox="0 0 512 512" style="enable-background:new 0 0 512 512;" xml:space="preserve">
<g>
	<rect x="213.316" y="8.533" style="fill:#0684FF;" width="85.333" height="119.467"/>
	<rect x="93.849" y="8.533" style="fill:#0684FF;" width="85.333" height="119.467"/>
	<rect x="332.782" y="8.533" style="fill:#0684FF;" width="85.333" height="119.467"/>
</g>
<polygon style="fill:#FFCD3A;" points="93.849,170.667 230.382,315.733 230.382,409.6 281.582,366.933 281.582,315.733 
	418.116,170.667 "/>
<g>
	<rect x="273.049" y="469.333" style="fill:#0684FF;" width="34.133" height="34.133"/>
	<rect x="298.649" y="401.067" style="fill:#0684FF;" width="34.133" height="34.133"/>
	<rect x="179.182" y="443.733" style="fill:#0684FF;" width="34.133" height="34.133"/>
	<rect x="93.849" y="469.333" style="fill:#0684FF;" width="34.133" height="34.133"/>
</g>
<path d="M298.649,136.533c4.71,0,8.533-3.823,8.533-8.533V8.533c0-4.71-3.823-8.533-8.533-8.533h-85.333
	c-4.71,0-8.533,3.823-8.533,8.533V128c0,4.71,3.823,8.533,8.533,8.533H298.649z M221.849,17.067h68.267v102.4h-68.267
	L221.849,17.067L221.849,17.067z"/>
<rect x="238.916" y="34.133" width="34.133" height="17.067"/>
<rect x="238.916" y="68.267" width="34.133" height="17.067"/>
<path d="M93.849,136.533h85.333c4.71,0,8.533-3.823,8.533-8.533V8.533c0-4.71-3.823-8.533-8.533-8.533H93.849
	c-4.71,0-8.533,3.823-8.533,8.533V128C85.316,132.71,89.138,136.533,93.849,136.533z M102.382,17.067h68.267v102.4h-68.267
	C102.382,119.467,102.382,17.067,102.382,17.067z"/>
<rect x="119.449" y="34.133" width="34.133" height="17.067"/>
<rect x="119.449" y="68.267" width="34.133" height="17.067"/>
<path d="M418.116,0h-85.333c-4.71,0-8.533,3.823-8.533,8.533V128c0,4.71,3.823,8.533,8.533,8.533h85.333
	c4.71,0,8.533-3.823,8.533-8.533V8.533C426.649,3.823,422.826,0,418.116,0z M409.582,119.467h-68.267v-102.4h68.267V119.467z"/>
<rect x="358.382" y="34.133" width="34.133" height="17.067"/>
<rect x="358.382" y="68.267" width="34.133" height="17.067"/>
<path d="M418.116,162.133H93.849c-4.71-0.009-8.542,3.806-8.542,8.525c0,2.185,0.828,4.275,2.321,5.862l134.221,142.626V409.6
	c0,3.311,1.92,6.323,4.915,7.723c1.135,0.538,2.364,0.811,3.618,0.811c1.997,0,3.934-0.7,5.47-1.971l51.2-42.667
	c1.946-1.621,3.063-4.028,3.063-6.562v-47.787l134.221-142.592c3.251-3.413,3.123-8.815-0.29-12.066
	C422.451,162.97,420.326,162.125,418.116,162.133z M275.361,309.879c-1.485,1.587-2.304,3.678-2.313,5.854v47.198l-34.133,28.45
	v-75.648c-0.009-2.176-0.828-4.267-2.313-5.854L113.595,179.2h284.774L275.361,309.879z"/>
<path d="M307.182,460.8h-34.133c-4.71,0-8.533,3.823-8.533,8.533v34.133c0,4.71,3.823,8.533,8.533,8.533h34.133
	c4.71,0,8.533-3.823,8.533-8.533v-34.133C315.716,464.623,311.893,460.8,307.182,460.8z M298.649,494.933h-17.067v-17.067h17.067
	V494.933z"/>
<path d="M332.782,392.533h-34.133c-4.71,0-8.533,3.823-8.533,8.533V435.2c0,4.71,3.823,8.533,8.533,8.533h34.133
	c4.71,0,8.533-3.823,8.533-8.533v-34.133C341.316,396.356,337.493,392.533,332.782,392.533z M324.249,426.667h-17.067V409.6h17.067
	V426.667z"/>
<path d="M213.316,435.2h-34.133c-4.71,0-8.533,3.823-8.533,8.533v34.133c0,4.71,3.823,8.533,8.533,8.533h34.133
	c4.71,0,8.533-3.823,8.533-8.533v-34.133C221.849,439.023,218.026,435.2,213.316,435.2z M204.782,469.333h-17.067v-17.067h17.067
	V469.333z"/>
<path d="M127.982,460.8H93.849c-4.71,0-8.533,3.823-8.533,8.533v34.133c0,4.71,3.823,8.533,8.533,8.533h34.133
	c4.71,0,8.533-3.823,8.533-8.533v-34.133C136.516,464.623,132.693,460.8,127.982,460.8z M119.449,494.933h-17.067v-17.067h17.067
	V494.933z"/>
<path d="M216.729,237.227l34.133,25.6c3.038,2.278,7.202,2.278,10.24,0l34.133-25.6l-10.24-13.653l-20.48,15.36v-42.667h-17.067
	v42.667l-20.48-15.36L216.729,237.227z"/>
<rect x="358.382" y="366.933" width="17.067" height="17.067"/>
<rect x="358.382" y="494.933" width="17.067" height="17.067"/>
<rect x="153.582" y="392.533" width="17.067" height="17.067"/>
<g>
</g>
<g>
</g>
<g>
</g>
<g>
</g>
<g>
</g>
<g>
</g>
<g>
</g>
<g>
</g>
<g>
</g>
<g>
</g>
<g>
</g>
<g>
</g>
<g>
</g>
<g>
</g>
<g>
</g>
</svg>
