<?xml version="1.0" encoding="iso-8859-1"?>
<!-- Generator: Adobe Illustrator 19.0.0, SVG Export Plug-In . SVG Version: 6.00 Build 0)  -->
<svg xmlns="http://www.w3.org/2000/svg" xmlns:xlink="http://www.w3.org/1999/xlink" version="1.1" id="Layer_1" x="0px" y="0px" viewBox="0 0 512 512" style="enable-background:new 0 0 512 512;" xml:space="preserve" width="512" height="512">
<g id="XMLID_910_">
	<g id="XMLID_939_">
		<g id="XMLID_951_">
			<g id="XMLID_952_">
				<path id="XMLID_953_" style="fill:#4AD4FF;" d="M488,152.52v38.54c0,3.88,3.15,7.03,7.03,7.03h2.44c3.88,0,7.03,3.16,7.03,7.03      v292.35c0,3.88-3.15,7.03-7.03,7.03H308.4c-2.18,0-3.94-1.77-3.94-3.94v-9.58c0-3.82-1.54-7.27-4.05-9.77      c-2.5-2.51-5.94-4.06-9.76-4.06c-7.61-0.01-13.83,6.62-13.83,14.23v9.18c0,2.17-1.76,3.94-3.94,3.94h-33.76      c-2.18,0-3.94-1.77-3.94-3.94v-9.58c0-3.82-1.55-7.27-4.04-9.77c-2.51-2.51-5.96-4.06-9.78-4.06c-7.64,0-13.82,6.2-13.82,13.83      v9.58c0,2.17-1.76,3.94-3.94,3.94H14.53c-3.88,0-7.03-3.15-7.03-7.03V14.53c0-3.88,3.15-7.03,7.03-7.03h401.95      c1.87,0,3.66,0.74,4.98,2.06l80.98,80.98c1.32,1.32,2.06,3.11,2.06,4.98v42.94c0,3.88-3.15,7.03-7.03,7.03h-2.44      C491.15,145.49,488,148.65,488,152.52z"/>
				<path id="XMLID_956_" style="fill:#159BFF;" d="M404.51,7.5v156.75c0,6.63-5.38,12-12,12H119.49c-6.62,0-12-5.37-12-12V7.5      H404.51z"/>
				<path id="XMLID_959_" style="fill:#159BFF;" d="M435.96,246.63V504.5H308.4c-2.18,0-3.94-1.77-3.94-3.94v-9.58      c0-3.82-1.54-7.27-4.05-9.77c-2.5-2.51-5.94-4.06-9.76-4.06c-7.61-0.01-13.83,6.62-13.83,14.23v9.18c0,2.17-1.76,3.94-3.94,3.94      h-33.76c-2.18,0-3.94-1.77-3.94-3.94v-9.58c0-3.82-1.55-7.27-4.04-9.77c-2.51-2.51-5.96-4.06-9.78-4.06      c-7.64,0-13.82,6.2-13.82,13.83v9.58c0,2.17-1.76,3.94-3.94,3.94H76.04V246.63c0-6.63,5.38-12,12-12h335.92      C430.58,234.63,435.96,240,435.96,246.63z"/>
				<path id="XMLID_962_" style="fill:#E3E3E3;" d="M423.956,246.626V504.5H308.4c-2.179,0-3.937-1.769-3.937-3.937v-9.585      c0-3.82-1.547-7.265-4.054-9.772c-2.496-2.507-5.941-4.054-9.76-4.054c-7.605-0.012-13.826,6.62-13.826,14.225v9.186      c0,2.168-1.758,3.937-3.937,3.937h-33.769c-2.18,0-3.937-1.769-3.937-3.937v-9.585c0-3.82-1.547-7.265-4.042-9.772      c-2.508-2.507-5.952-4.054-9.772-4.054c-7.64,0-13.826,6.198-13.826,13.826v9.585c0,2.168-1.758,3.937-3.937,3.937H88.044      V246.626H423.956z"/>
				<path id="XMLID_965_" style="fill:#006DF0;" d="M423.956,447.003V504.5H308.4c-2.179,0-3.937-1.769-3.937-3.937v-9.585      c0-3.82-1.547-7.265-4.054-9.772c-2.496-2.507-5.941-4.054-9.76-4.054c-7.605-0.012-13.826,6.62-13.826,14.225v9.186      c0,2.168-1.758,3.937-3.937,3.937h-33.769c-2.18,0-3.937-1.769-3.937-3.937v-9.585c0-3.82-1.547-7.265-4.042-9.772      c-2.508-2.507-5.952-4.054-9.772-4.054c-7.64,0-13.826,6.198-13.826,13.826v9.585c0,2.168-1.758,3.937-3.937,3.937H88.044      v-57.497H423.956z"/>
				<rect id="XMLID_2699_" x="119.494" y="7.5" style="fill:#C8C8C8;" width="273.013" height="156.753"/>
				<rect id="XMLID_2696_" x="119.494" y="7.5" style="fill:#E3E3E3;" width="273.013" height="14.061"/>
				<rect id="XMLID_2693_" x="286.539" y="49.081" style="fill:#4E7693;" width="40.937" height="115.172"/>
			</g>
		</g>
	</g>
	<g id="XMLID_966_">
		<path id="XMLID_970_" d="M497.47,152.994c8.012,0,14.53-6.519,14.53-14.53V95.515c0-3.881-1.512-7.53-4.255-10.274l-36.409-36.409    c-2.931-2.93-7.679-2.928-10.607,0c-2.929,2.93-2.929,7.678,0,10.607L497,95.709v42.285h-1.968c-8.012,0-14.53,6.519-14.53,14.53    v38.538c0,8.013,6.519,14.531,14.53,14.531H497V497h-65.541c0.041-84.023,0.041-168.36,0.041-250c0-4.143-3.357-7.5-7.5-7.5    c-19.631,0-39.929,0-59.647-0.373c-0.048-0.001-0.097-0.001-0.145-0.001c-4.076,0-7.418,3.266-7.496,7.358    c-0.078,4.142,3.216,7.562,7.357,7.641c17.35,0.327,35.089,0.369,52.431,0.374c0,60.643-0.001,122.723-0.019,185.004H95.519    C95.501,377.614,95.5,315.351,95.5,254.5c75.348,0,153.044-0.012,229.04-0.374c4.142-0.02,7.483-3.394,7.464-7.536    c-0.02-4.13-3.374-7.464-7.499-7.464c-0.013,0-0.024,0-0.037,0C245.982,239.5,165.669,239.5,88,239.5c-4.143,0-7.5,3.357-7.5,7.5    c0,82.091,0,166.89,0.041,250H15V15h96.994v149.253c0,4.143,3.357,7.5,7.5,7.5h92.417c4.143,0,7.5-3.357,7.5-7.5    s-3.357-7.5-7.5-7.5h-84.917V15h258.012v141.753h-50.03V49.081c0-4.143-3.357-7.5-7.5-7.5h-40.937c-4.143,0-7.5,3.357-7.5,7.5    v107.672h-32.95c-4.143,0-7.5,3.357-7.5,7.5s3.357,7.5,7.5,7.5h146.417c4.143,0,7.5-3.357,7.5-7.5V15h16.286l20.27,20.271    c2.929,2.929,7.678,2.93,10.606,0.001c2.93-2.929,2.93-7.678,0.001-10.606l-20.41-20.412C424.014,1.511,420.365,0,416.485,0H14.53    C6.519,0,0,6.519,0,14.53V497.47C0,505.481,6.519,512,14.53,512h189.068c6.308,0,11.438-5.131,11.438-11.438v-9.583    c0-3.488,2.838-6.326,6.326-6.326c1.685,0,3.271,0.659,4.457,1.845c1.198,1.204,1.858,2.796,1.858,4.481v9.583    c0,6.308,5.131,11.438,11.438,11.438h33.766c6.308,0,11.438-5.131,11.438-11.438v-9.187c0-1.73,0.717-3.469,1.967-4.768    c0.702-0.73,2.2-1.955,4.35-1.955c0.002,0,0.003,0,0.005,0c1.687,0.001,3.268,0.656,4.462,1.857    c1.198,1.197,1.858,2.785,1.858,4.469v9.583c0,6.308,5.131,11.438,11.438,11.438H497.47c8.012,0,14.53-6.519,14.53-14.53V205.123    c0-8.012-6.519-14.529-14.53-14.529h-1.968v-37.6H497.47z M294.039,56.581h25.937v100.172h-25.937V56.581z M305.724,475.915    c-4.015-4.034-9.367-6.258-15.068-6.263c-0.007,0-0.013,0-0.019,0c-5.71,0-11.094,2.328-15.16,6.558    c-3.97,4.127-6.155,9.513-6.155,15.165V497h-26.643v-6.021c0-5.679-2.212-11.028-6.239-15.076c-4.031-4.03-9.385-6.25-15.076-6.25    c-11.76,0-21.326,9.567-21.326,21.326V497H95.541c-0.007-14.125-0.013-28.296-0.018-42.497h320.953    c-0.005,14.166-0.011,28.335-0.018,42.497H311.963v-6.021C311.963,485.288,309.743,479.934,305.724,475.915z"/>
		<path id="XMLID_974_" d="M129.453,290.45h35.152c4.143,0,7.5-3.357,7.5-7.5s-3.357-7.5-7.5-7.5h-35.152    c-4.143,0-7.5,3.357-7.5,7.5S125.311,290.45,129.453,290.45z"/>
		<path id="XMLID_975_" d="M384.546,329.425H127.454c-4.143,0-7.5,3.357-7.5,7.5s3.357,7.5,7.5,7.5h257.092    c4.143,0,7.5-3.357,7.5-7.5S388.688,329.425,384.546,329.425z"/>
		<path id="XMLID_976_" d="M384.546,360.514H127.454c-4.143,0-7.5,3.357-7.5,7.5s3.357,7.5,7.5,7.5h257.092    c4.143,0,7.5-3.357,7.5-7.5S388.688,360.514,384.546,360.514z"/>
		<path id="XMLID_977_" d="M384.546,391.603H127.454c-4.143,0-7.5,3.357-7.5,7.5s3.357,7.5,7.5,7.5h257.092    c4.143,0,7.5-3.357,7.5-7.5S388.688,391.603,384.546,391.603z"/>
		<path id="XMLID_978_" d="M63.056,71.31l6.804,6.804c1.465,1.465,3.384,2.197,5.304,2.197c1.919,0,3.839-0.732,5.303-2.196    c2.93-2.929,2.93-7.678,0.001-10.606L68.359,55.399c-1.407-1.407-3.314-2.197-5.304-2.197s-3.897,0.79-5.304,2.197L46.328,66.824    c-2.929,2.929-2.929,7.678,0.001,10.606c2.928,2.927,7.677,2.93,10.606-0.001L63.056,71.31z"/>
		<path id="XMLID_979_" d="M472.759,462.279c0-4.143-3.357-7.5-7.5-7.5h-0.093c-4.143,0-7.453,3.357-7.453,7.5s3.403,7.5,7.546,7.5    S472.759,466.422,472.759,462.279z"/>
		<path id="XMLID_980_" d="M46.741,454.779c-4.143,0-7.454,3.357-7.454,7.5s3.404,7.5,7.547,7.5s7.5-3.357,7.5-7.5    s-3.357-7.5-7.5-7.5H46.741z"/>
	</g>
</g>















</svg>
