<?xml version="1.0" encoding="iso-8859-1"?>
<!-- Generator: Adobe Illustrator 19.0.0, SVG Export Plug-In . SVG Version: 6.00 Build 0)  -->
<svg version="1.1" id="Capa_1" xmlns="http://www.w3.org/2000/svg" xmlns:xlink="http://www.w3.org/1999/xlink" x="0px" y="0px"
	 viewBox="0 0 512 512" style="enable-background:new 0 0 512 512;" xml:space="preserve">
<polygon style="fill:#FF44AF;" points="428.388,474.5 83.612,474.5 83.612,213.152 256,116.144 428.388,213.152 "/>
<polygon style="fill:#FF119A;" points="398.388,196.27 398.388,474.5 428.388,474.5 428.388,213.152 "/>
<path style="fill:#A96458;" d="M489.5,504.5h-467c-8.284,0-15-6.716-15-15l0,0c0-8.284,6.716-15,15-15h467c8.284,0,15,6.716,15,15
	l0,0C504.5,497.784,497.784,504.5,489.5,504.5z"/>
<path style="fill:#895C62;" d="M489.5,474.5h-30c8.284,0,15,6.716,15,15s-6.716,15-15,15h30c8.284,0,15-6.716,15-15
	S497.784,474.5,489.5,474.5z"/>
<rect x="91.74" y="7.5" style="fill:#27EEFF;" width="120" height="30"/>
<rect x="181.74" y="7.5" style="fill:#00DCFF;" width="30" height="30"/>
<rect x="109.74" y="37.5" style="fill:#DF905B;" width="84" height="140"/>
<rect x="163.74" y="37.5" style="fill:#CE7A56;" width="30" height="140"/>
<path style="fill:#FFDC5A;" d="M196,474.5v-90c0-33.137,26.863-60,60-60l0,0c33.137,0,60,26.863,60,60v90H196z"/>
<path style="fill:#686370;" d="M226,474.5v-90c0-16.542,13.458-30,30-30s30,13.458,30,30v90H226z"/>
<path style="fill:#56525B;" d="M256,354.5c-5.462,0-10.584,1.475-15,4.036c8.958,5.195,15,14.884,15,25.964v90h30v-90
	C286,367.958,272.542,354.5,256,354.5z"/>
<g>
	<circle style="fill:#27EEFF;" cx="256" cy="248" r="40"/>
	<path style="fill:#27EEFF;" d="M465.905,265c-4.961,0-9.991-1.234-14.631-3.835L256,151.723L60.725,261.165
		c-14.496,8.124-32.81,2.917-40.905-11.629c-8.095-14.547-2.906-32.925,11.588-41.05L241.342,90.829
		c9.111-5.105,20.206-5.105,29.316,0l209.933,117.657c14.495,8.125,19.683,26.503,11.588,41.05
		C486.675,259.426,476.446,264.999,465.905,265z"/>
</g>
<path style="fill:#00DCFF;" d="M480.591,208.486L270.658,90.829c-9.111-5.105-20.206-5.105-29.316,0l-15.475,8.673
	c4.579,0.214,9.121,1.468,13.255,3.784l209.933,117.658c14.495,8.124,19.683,26.502,11.588,41.049
	c-0.432,0.777-0.904,1.517-1.392,2.24c2.205,0.505,4.436,0.767,6.655,0.767c10.541-0.001,20.77-5.574,26.274-15.464
	C500.274,234.988,495.086,216.61,480.591,208.486z"/>
<path d="M489.5,467h-53.61v-7.25c0-4.143-3.357-7.5-7.5-7.5s-7.5,3.357-7.5,7.5V467H323.5v-82.5c0-37.22-30.28-67.5-67.5-67.5
	s-67.5,30.28-67.5,67.5V467H91.11V299.75c0-4.143-3.357-7.5-7.5-7.5s-7.5,3.357-7.5,7.5V467H22.5C10.094,467,0,477.094,0,489.5
	S10.094,512,22.5,512h467c12.406,0,22.5-10.094,22.5-22.5S501.906,467,489.5,467z M203.5,384.5c0-28.948,23.552-52.5,52.5-52.5
	s52.5,23.552,52.5,52.5V467h-15v-82.5c0-20.678-16.822-37.5-37.5-37.5s-37.5,16.822-37.5,37.5V467h-15V384.5z M278.5,467h-45v-82.5
	c0-12.406,10.094-22.5,22.5-22.5s22.5,10.094,22.5,22.5V467z M489.5,482c4.136,0,7.5,3.364,7.5,7.5s-3.364,7.5-7.5,7.5h-467
	c-4.136,0-7.5-3.364-7.5-7.5s3.364-7.5,7.5-7.5H489.5"/>
<path d="M208.5,248c0,26.191,21.309,47.5,47.5,47.5s47.5-21.309,47.5-47.5s-21.309-47.5-47.5-47.5S208.5,221.809,208.5,248z
	 M248.5,216.383V240.5h-24.117C227.208,228.594,236.594,219.208,248.5,216.383z M224.383,255.5H248.5v24.117
	C236.594,276.792,227.208,267.406,224.383,255.5z M263.5,279.617V255.5h24.117C284.792,267.406,275.406,276.792,263.5,279.617z
	 M287.617,240.5H263.5v-24.117C275.406,219.208,284.792,228.594,287.617,240.5z"/>
<path d="M144.388,113.477h-13.721c-4.143,0-7.5,3.357-7.5,7.5s3.357,7.5,7.5,7.5h13.721c4.143,0,7.5-3.357,7.5-7.5
	S148.53,113.477,144.388,113.477z"/>
<path d="M201.24,104.705V45h10.496c4.143,0,7.5-3.357,7.5-7.5v-30c0-4.143-3.357-7.5-7.5-7.5h-120c-4.143,0-7.5,3.357-7.5,7.5v30
	c0,4.143,3.357,7.5,7.5,7.5h10.504l0,0c0,0.026-0.004,25.617-0.004,25.644S102.24,44.974,102.24,45v115.191l-74.498,41.753
	c-18.068,10.126-24.561,33.112-14.475,51.24c4.897,8.799,12.92,15.152,22.589,17.892c3.391,0.961,6.839,1.436,10.268,1.436
	c6.331,0,12.592-1.621,18.27-4.803l11.718-6.567v6.359c0,4.143,3.357,7.5,7.5,7.5s7.5-3.357,7.5-7.5v-14.766L256,160.32
	l164.89,92.413v174.85c0,4.143,3.357,7.5,7.5,7.5s7.5-3.357,7.5-7.5V261.14l11.718,6.567c5.594,3.136,11.921,4.793,18.299,4.793
	c13.617-0.001,26.195-7.402,32.827-19.317c10.086-18.127,3.593-41.112-14.476-51.239l-132.422-74.217
	c-3.615-2.025-8.186-0.736-10.21,2.876c-2.024,3.613-0.737,8.185,2.876,10.21l132.422,74.217
	c10.875,6.095,14.779,19.938,8.703,30.859c-3.986,7.161-11.544,11.61-19.722,11.611c-3.814,0-7.605-0.995-10.964-2.878
	L259.667,145.18c-2.277-1.275-5.057-1.275-7.334,0L57.059,254.622c-5.249,2.942-11.325,3.66-17.114,2.021
	c-5.807-1.646-10.626-5.465-13.57-10.754c-6.077-10.922-2.173-24.766,8.702-30.86l-0.061,0.035c0.062-0.033,0,0,0.061-0.035
	L245.008,97.371c0.044-0.024-0.044,0.025,0,0l0,0c6.885-3.857,15.103-3.857,21.983,0l49.444,27.712
	c3.613,2.022,8.185,0.736,10.209-2.876c2.025-3.613,0.738-8.185-2.875-10.21l-49.445-27.712c-11.301-6.331-25.343-6.331-36.649,0
	L201.24,104.705 M99.236,15h105v15l0,0h-105l0,0C99.236,30,99.236,15,99.236,15z M117.24,78.144h16.427c4.143,0,7.5-3.357,7.5-7.5
	s-3.357-7.5-7.5-7.5H117.24V45h69v46.957h-18.573c-4.143,0-7.5,3.357-7.5,7.5s3.357,7.5,7.5,7.5h18.573v6.155l-69,38.672
	C117.24,151.784,117.24,78.144,117.24,78.144z"/>
<g>
</g>
<g>
</g>
<g>
</g>
<g>
</g>
<g>
</g>
<g>
</g>
<g>
</g>
<g>
</g>
<g>
</g>
<g>
</g>
<g>
</g>
<g>
</g>
<g>
</g>
<g>
</g>
<g>
</g>
</svg>
