<?xml version="1.0" encoding="iso-8859-1"?>
<!-- Generator: Adobe Illustrator 19.0.0, SVG Export Plug-In . SVG Version: 6.00 Build 0)  -->
<svg version="1.1" id="Capa_1" xmlns="http://www.w3.org/2000/svg" xmlns:xlink="http://www.w3.org/1999/xlink" x="0px" y="0px"
	 viewBox="0 0 512 512" style="enable-background:new 0 0 512 512;" xml:space="preserve">
<path style="fill:#27EEFF;" d="M504.5,375.001L504.5,375.001c0,8.284-6.716,15-15,15H228c-61.856,0-112-50.144-112-112v-158
	c0-22.091,17.909-40,40-40h60c8.284,0,15,6.716,15,15l0,0c0,8.284-6.716,15-15,15h-58c-6.627,0-12,5.373-12,12v156
	c0,45.287,36.713,82,82,82h261.5C497.784,360.001,504.5,366.717,504.5,375.001z"/>
<path style="fill:#25C799;" d="M489.5,360.001h-30c8.284,0,15,6.716,15,15s-6.716,15-15,15h30c8.284,0,15-6.716,15-15
	S497.784,360.001,489.5,360.001z"/>
<circle style="fill:#56525B;" cx="57.5" cy="382.001" r="50"/>
<path style="fill:#686370;" d="M57.5,402.001c-11.028,0-20-8.972-20-20s8.972-20,20-20s20,8.972,20,20S68.528,402.001,57.5,402.001z
	"/>
<circle style="fill:#56525B;" cx="424.5" cy="382.501" r="49.5"/>
<path style="fill:#686370;" d="M424.934,399.972c-9.633,0-17.471-7.837-17.471-17.471s7.838-17.471,17.471-17.471
	s17.471,7.837,17.471,17.471S434.567,399.972,424.934,399.972z"/>
<rect x="101" y="152.001" style="fill:#FF44AF;" width="60" height="94"/>
<rect x="131" y="152.001" style="fill:#FF119A;" width="30" height="94"/>
<circle style="fill:#FF44AF;" cx="216" cy="95.001" r="15"/>
<path d="M489.5,352.501h-16.563c-10.065-16.192-28.009-27-48.437-27s-38.372,10.808-48.437,27H228
	c-20.715,0-39.476-8.506-52.992-22.199c3.201-2.061,4.38-6.254,2.61-9.715c-1.885-3.688-6.403-5.147-10.092-3.264l-2.08,1.063
	c-7.545-11.645-11.946-25.507-11.946-40.385v-24.5h7.5c4.142,0,7.5-3.357,7.5-7.5v-94c0-4.143-3.358-7.5-7.5-7.5h-7.5v-22.5
	c0-2.481,2.019-4.5,4.5-4.5h58c0.722,0,1.435-0.038,2.139-0.104c0.045-0.004,0.091-0.006,0.136-0.01
	c0.652-0.066,1.294-0.165,1.929-0.285c0.107-0.02,0.216-0.036,0.323-0.058c0.571-0.117,1.132-0.262,1.687-0.422
	c0.208-0.059,0.415-0.119,0.621-0.185c0.457-0.146,0.905-0.309,1.349-0.483c0.286-0.112,0.568-0.229,0.849-0.352
	c0.371-0.164,0.737-0.337,1.097-0.52c0.298-0.151,0.592-0.308,0.884-0.472c0.356-0.201,0.705-0.411,1.048-0.63
	c0.242-0.155,0.482-0.311,0.718-0.476c0.41-0.284,0.81-0.583,1.2-0.893c0.137-0.11,0.276-0.217,0.411-0.331
	c0.507-0.423,0.996-0.867,1.464-1.333c0.012-0.012,0.026-0.022,0.039-0.035c0.006-0.006,0.011-0.013,0.017-0.019
	c0.489-0.49,0.954-1.002,1.397-1.535c0.082-0.099,0.16-0.2,0.241-0.3c0.352-0.439,0.69-0.891,1.01-1.355
	c0.128-0.185,0.248-0.374,0.37-0.562c0.257-0.399,0.503-0.805,0.735-1.221c0.134-0.241,0.262-0.484,0.387-0.729
	c0.208-0.408,0.406-0.821,0.589-1.243c0.104-0.239,0.202-0.48,0.297-0.723c0.187-0.474,0.362-0.954,0.517-1.442
	c0.057-0.181,0.109-0.364,0.161-0.547c0.163-0.563,0.31-1.134,0.429-1.715c0.021-0.102,0.036-0.206,0.055-0.308
	c0.121-0.638,0.221-1.283,0.287-1.939c0.004-0.045,0.006-0.09,0.01-0.135c0.067-0.705,0.104-1.418,0.104-2.14
	c0-12.406-10.093-22.5-22.5-22.5h-60c-26.191,0-47.5,21.309-47.5,47.5v24.5H101c-4.142,0-7.5,3.357-7.5,7.5v47.875
	c0,4.143,3.358,7.5,7.5,7.5s7.5-3.357,7.5-7.5v-40.373h45v79h-45v-6.375c0-4.143-3.358-7.5-7.5-7.5s-7.5,3.357-7.5,7.5v13.875
	c0,4.143,3.358,7.5,7.5,7.5h7.5v24.5c0,22.245,6.116,43.085,16.746,60.939l-20.427,10.445
	c-10.385-15.019-27.718-24.884-47.319-24.884c-4.142,0-7.5,3.357-7.5,7.5s3.358,7.5,7.5,7.5c13.779,0,26.041,6.596,33.812,16.79
	l-13.685,6.997c-5.025-5.4-12.186-8.787-20.126-8.787c-15.165,0-27.501,12.337-27.501,27.5s12.336,27.5,27.5,27.5
	s27.5-12.337,27.5-27.5c0-1.836-0.184-3.629-0.529-5.365l13.689-6.999c1.193,3.914,1.84,8.064,1.84,12.364
	c0,23.435-19.065,42.5-42.5,42.5S15,405.436,15,382.001c0-13.193,5.976-25.418,16.396-33.541c3.267-2.547,3.85-7.26,1.304-10.526
	c-2.547-3.267-7.259-3.85-10.526-1.304C8.082,347.615,0,364.152,0,382.001c0,31.706,25.794,57.5,57.5,57.5s57.5-25.794,57.5-57.5
	c0-6.758-1.181-13.243-3.332-19.271l22.114-11.307c21.888,28.026,55.983,46.078,94.218,46.078h91.75c4.142,0,7.5-3.357,7.5-7.5
	s-3.358-7.5-7.5-7.5H228c-32.402,0-61.407-14.824-80.59-38.046l13.734-7.022c16.405,18.434,40.296,30.068,66.856,30.068h141.517
	c-1.306,4.783-2.017,9.809-2.017,15H352c-4.142,0-7.5,3.357-7.5,7.5s3.358,7.5,7.5,7.5h17.517c6.603,24.174,28.744,42,54.983,42
	s48.38-17.826,54.983-42H489.5c12.407,0,22.5-10.094,22.5-22.5S501.907,352.501,489.5,352.501z M223.5,95.001
	c0,0.256-0.013,0.508-0.038,0.758c-0.006,0.057-0.018,0.111-0.025,0.168c-0.024,0.193-0.049,0.385-0.088,0.574
	c-0.011,0.055-0.029,0.109-0.041,0.165c-0.042,0.186-0.086,0.37-0.142,0.55c-0.022,0.07-0.051,0.138-0.074,0.207
	c-0.055,0.16-0.109,0.32-0.174,0.475c-0.053,0.126-0.116,0.248-0.177,0.372c-0.044,0.091-0.084,0.184-0.132,0.272
	c-0.346,0.64-0.789,1.234-1.323,1.767c-0.347,0.349-0.724,0.658-1.123,0.928c-0.11,0.074-0.227,0.139-0.341,0.207
	c-0.088,0.053-0.174,0.11-0.264,0.159c-0.181,0.098-0.368,0.186-0.557,0.269c-0.031,0.013-0.06,0.03-0.091,0.043
	c-0.2,0.084-0.405,0.158-0.613,0.225c-0.026,0.008-0.05,0.019-0.076,0.027c-0.2,0.062-0.405,0.112-0.612,0.157
	c-0.036,0.008-0.072,0.02-0.108,0.027c-0.196,0.04-0.397,0.067-0.598,0.091c-0.049,0.006-0.096,0.017-0.146,0.021
	c-0.249,0.025-0.502,0.039-0.758,0.039c-4.136,0-7.5-3.364-7.5-7.5s3.364-7.5,7.5-7.5S223.5,90.865,223.5,95.001z M123.5,120.001
	c0-17.921,14.58-32.5,32.5-32.5h38.79c-0.833,2.348-1.29,4.871-1.29,7.5s0.458,5.152,1.29,7.5H158c-10.752,0-19.5,8.748-19.5,19.5
	v22.5h-15V120.001z M57.5,394.501c-6.893,0-12.5-5.607-12.5-12.5s5.607-12.5,12.5-12.5s12.5,5.607,12.5,12.5
	S64.393,394.501,57.5,394.501z M138.623,332.101c-9.594-15.791-15.123-34.312-15.123-54.1v-24.5h15v24.5
	c0,17.333,4.958,33.527,13.522,47.249L138.623,332.101z M424.5,424.501c-23.159,0-42-18.841-42-42s18.841-42,42-42s42,18.841,42,42
	S447.659,424.501,424.5,424.501z M489.5,382.501h-8c0-5.191-0.711-10.217-2.017-15H489.5c4.136,0,7.5,3.364,7.5,7.5
	S493.636,382.501,489.5,382.501z"/>
<path d="M424.935,357.53c-13.769,0-24.971,11.202-24.971,24.971s11.202,24.971,24.971,24.971s24.97-11.202,24.97-24.971
	S438.703,357.53,424.935,357.53z M424.935,392.472c-5.498,0-9.971-4.473-9.971-9.971s4.473-9.971,9.971-9.971
	c5.498,0,9.97,4.473,9.97,9.971S430.432,392.472,424.935,392.472z"/>
<g>
</g>
<g>
</g>
<g>
</g>
<g>
</g>
<g>
</g>
<g>
</g>
<g>
</g>
<g>
</g>
<g>
</g>
<g>
</g>
<g>
</g>
<g>
</g>
<g>
</g>
<g>
</g>
<g>
</g>
</svg>
