<?xml version="1.0" encoding="iso-8859-1"?>
<!-- Generator: Adobe Illustrator 19.0.0, SVG Export Plug-In . SVG Version: 6.00 Build 0)  -->
<svg version="1.1" id="Capa_1" xmlns="http://www.w3.org/2000/svg" xmlns:xlink="http://www.w3.org/1999/xlink" x="0px" y="0px"
	 viewBox="0 0 511.999 511.999" style="enable-background:new 0 0 511.999 511.999;" xml:space="preserve">
<path style="fill:#A96458;" d="M489.5,414.001h-467c-8.284,0-15-6.716-15-15l0,0c0-8.284,6.716-15,15-15h467c8.284,0,15,6.716,15,15
	l0,0C504.5,407.285,497.784,414.001,489.5,414.001z"/>
<path style="fill:#895C62;" d="M489.5,384.001h-30c8.284,0,15,6.716,15,15s-6.716,15-15,15h30c8.284,0,15-6.716,15-15
	S497.784,384.001,489.5,384.001z"/>
<rect x="25.5" y="184.001" style="fill:#FFDC5A;" width="140" height="200"/>
<rect x="135.5" y="184.001" style="fill:#FFC843;" width="30" height="200"/>
<path style="fill:#FF44AF;" d="M15.31,184.001h160.38c7.198,0,10.549-8.953,5.131-13.707l-80.19-70.36
	c-2.938-2.578-7.324-2.578-10.262,0l-80.19,70.36C4.761,175.048,8.112,184.001,15.31,184.001z"/>
<path style="fill:#FF119A;" d="M180.821,170.294l-80.19-70.36c-2.938-2.578-7.323-2.578-10.261,0l-9.869,8.659l70.321,61.701
	c5.418,4.754,2.067,13.707-5.131,13.707h30C182.888,184.001,186.239,175.048,180.821,170.294z"/>
<circle style="fill:#27EEFF;" cx="95.5" cy="268.001" r="40"/>
<rect x="346.5" y="184.001" style="fill:#FFDC5A;" width="140" height="200"/>
<rect x="456.5" y="184.001" style="fill:#FFC843;" width="30" height="200"/>
<path style="fill:#FF44AF;" d="M336.31,184.001h160.38c7.198,0,10.549-8.953,5.131-13.707l-80.19-70.36
	c-2.938-2.578-7.324-2.578-10.262,0l-80.19,70.36C325.761,175.048,329.112,184.001,336.31,184.001z"/>
<path style="fill:#FF119A;" d="M501.821,170.294l-80.19-70.36c-2.938-2.578-7.323-2.578-10.261,0l-9.869,8.659l70.321,61.701
	c5.418,4.754,2.067,13.707-5.131,13.707h30C503.888,184.001,507.239,175.048,501.821,170.294z"/>
<circle style="fill:#27EEFF;" cx="416.5" cy="268.001" r="40"/>
<rect x="165.5" y="278.001" style="fill:#DF905B;" width="181" height="106"/>
<polygon style="fill:#FF44AF;" points="346.5,212.001 346.5,278.001 165.5,278.001 165.5,212.001 201.7,212.001 201.7,238.001 
	237.9,238.001 237.9,212.001 274.1,212.001 274.1,238.001 310.3,238.001 310.3,212.001 "/>
<path d="M493.997,376.952v-16.953c0-4.143-3.358-7.5-7.5-7.5s-7.5,3.358-7.5,7.5V376.5H353.999v-3.999V191.49l0,0h124.998v136.131
	c0,4.143,3.358,7.5,7.5,7.5s7.5-3.358,7.5-7.5V191.49h2.69c6.425,0,12.042-3.892,14.309-9.914
	c2.272-6.036,0.611-12.682-4.233-16.932l-80.188-70.363c-5.745-5.04-14.409-5.042-20.155,0l-45.161,39.627
	c-3.114,2.733-3.423,7.471-0.691,10.584c2.733,3.115,7.471,3.424,10.584,0.691l45.161-39.627c0.108-0.096,0.259-0.096,0.369,0
	l80.189,70.363c0.13,0.114,0.129,0.138,0.125,0.206c-0.01,0.166-0.107,0.317-0.148,0.347c0,0-0.045,0.017-0.16,0.017l0,0H336.309
	l0,0c-0.127,0-0.155-0.01-0.155-0.014c-0.047-0.032-0.143-0.185-0.153-0.35c-0.004-0.068-0.006-0.092,0.125-0.206l11.416-10.017
	c3.114-2.732,3.423-7.471,0.691-10.584c-2.732-3.115-7.471-3.424-10.584-0.691l-11.416,10.017
	c-4.844,4.25-6.505,10.896-4.233,16.932c2.267,6.022,7.884,9.914,14.309,9.914h2.69v13.001h-28.7c-4.142,0-7.5,3.358-7.5,7.5v18.501
	H281.6v-18.501c0-4.143-3.358-7.5-7.5-7.5h-36.2c-4.142,0-7.5,3.358-7.5,7.5v18.501h-21.199v-18.501c0-4.143-3.358-7.5-7.5-7.5
	h-28.7V191.49h2.69c6.425,0,12.042-3.892,14.309-9.914c2.272-6.036,0.611-12.682-4.233-16.932L105.58,94.282
	c-5.745-5.04-14.409-5.042-20.155,0L5.236,164.645c-4.844,4.25-6.505,10.896-4.233,16.932c2.267,6.022,7.884,9.914,14.309,9.914
	h2.69v7.75c0,4.143,3.358,7.5,7.5,7.5s7.5-3.358,7.5-7.5v-7.75H158l0,0v185.008l0,0H33.003V231.492c0-4.143-3.358-7.5-7.5-7.5
	s-7.5,3.358-7.5,7.5v145.459c-10.258,2.091-18,11.182-18,22.048c0,12.407,10.093,22.501,22.5,22.501h466.994
	c12.407,0,22.5-10.094,22.5-22.501C511.997,388.134,504.254,379.043,493.997,376.952z M15.157,176.476l0.155,0.014
	C15.207,176.49,15.16,176.476,15.157,176.476L15.157,176.476c-0.047-0.032-0.143-0.185-0.153-0.35
	c-0.004-0.068-0.006-0.092,0.125-0.206l80.189-70.363c0.108-0.096,0.259-0.096,0.369,0l80.189,70.363
	c0.13,0.114,0.129,0.138,0.125,0.206c-0.01,0.166-0.107,0.317-0.148,0.347c0,0-0.045,0.017-0.16,0.017l0,0L15.157,176.476z
	 M194.201,219.492v18.501c0,4.143,3.358,7.5,7.5,7.5H237.9c4.142,0,7.5-3.358,7.5-7.5v-18.501h21.2v18.501
	c0,4.143,3.358,7.5,7.5,7.5h36.199c4.142,0,7.5-3.358,7.5-7.5v-18.501h21.2v51.002H173.001v-51.002L194.201,219.492L194.201,219.492
	z M173.001,285.495h165.998v91.004H173.001V285.495z M489.497,406.5H22.503c-4.136,0-7.5-3.364-7.5-7.5s3.364-7.5,7.5-7.5l0,0l0,0
	h466.994l0,0l0,0c4.136,0,7.5,3.364,7.5,7.5S493.633,406.5,489.497,406.5z"/>
<path d="M143.001,267.994c0-26.193-21.308-47.502-47.499-47.502s-47.499,21.31-47.499,47.502s21.308,47.502,47.499,47.502
	S143.001,294.187,143.001,267.994z M103.002,299.612v-24.118h24.117C124.294,287.401,114.908,296.788,103.002,299.612z
	 M127.119,260.494h-24.117v-24.118C114.908,239.2,124.294,248.587,127.119,260.494z M88.002,236.376v24.118H63.886
	C66.71,248.587,76.097,239.2,88.002,236.376z M63.886,275.494h24.116v24.118C76.097,296.788,66.71,287.401,63.886,275.494z"/>
<path d="M368.999,267.994c0,26.193,21.308,47.502,47.499,47.502c26.191,0,47.499-21.31,47.499-47.502s-21.308-47.502-47.499-47.502
	C390.307,220.492,368.999,241.801,368.999,267.994z M408.998,236.376v24.118h-24.116C387.706,248.587,397.092,239.2,408.998,236.376
	z M384.881,275.494h24.116v24.118C397.092,296.788,387.706,287.401,384.881,275.494z M423.998,299.612v-24.118h24.116
	C445.29,287.401,435.903,296.788,423.998,299.612z M448.114,260.494h-24.116v-24.118C435.903,239.2,445.29,248.587,448.114,260.494z
	"/>
<path d="M235.5,305.996c0-4.143-3.358-7.5-7.5-7.5h-30c-4.142,0-7.5,3.358-7.5,7.5s3.358,7.5,7.5,7.5h30
	C232.142,313.496,235.5,310.138,235.5,305.996z"/>
<path d="M317.999,320.496h-30c-4.142,0-7.5,3.358-7.5,7.5s3.358,7.5,7.5,7.5h30c4.142,0,7.5-3.358,7.5-7.5
	S322.141,320.496,317.999,320.496z"/>
<path d="M258,342.497h-30c-4.142,0-7.5,3.358-7.5,7.5s3.358,7.5,7.5,7.5h30c4.142,0,7.5-3.358,7.5-7.5S262.142,342.497,258,342.497z
	"/>
<g>
</g>
<g>
</g>
<g>
</g>
<g>
</g>
<g>
</g>
<g>
</g>
<g>
</g>
<g>
</g>
<g>
</g>
<g>
</g>
<g>
</g>
<g>
</g>
<g>
</g>
<g>
</g>
<g>
</g>
</svg>
