<?xml version="1.0" encoding="iso-8859-1"?>
<!-- Generator: Adobe Illustrator 19.0.0, SVG Export Plug-In . SVG Version: 6.00 Build 0)  -->
<svg version="1.1" id="Capa_1" xmlns="http://www.w3.org/2000/svg" xmlns:xlink="http://www.w3.org/1999/xlink" x="0px" y="0px"
	 viewBox="0 0 512 512" style="enable-background:new 0 0 512 512;" xml:space="preserve">
<rect x="7.5" y="75" style="fill:#A96458;" width="497" height="362"/>
<rect x="474.5" y="75" style="fill:#895C62;" width="30" height="362"/>
<rect x="37.5" y="105" style="fill:#2CE565;" width="437" height="302"/>
<g>
	<path style="fill:#FFC843;" d="M113.5,338h-76V174h76c7.732,0,14,6.268,14,14v136C127.5,331.732,121.232,338,113.5,338z"/>
	<path style="fill:#FFC843;" d="M474.5,338h-76c-7.732,0-14-6.268-14-14V188c0-7.732,6.268-14,14-14h76V338z"/>
</g>
<circle style="fill:#FFDC5A;" cx="256" cy="256" r="50"/>
<path d="M504.5,408.375c-4.143,0-7.5,3.357-7.5,7.5V429.5H15V127.667c0-4.143-3.357-7.5-7.5-7.5s-7.5,3.357-7.5,7.5V437
	c0,4.143,3.357,7.5,7.5,7.5h497c4.143,0,7.5-3.357,7.5-7.5v-21.125C512,411.732,508.643,408.375,504.5,408.375z"/>
<path d="M504.5,67.5H7.5C3.357,67.5,0,70.857,0,75v21c0,4.143,3.357,7.5,7.5,7.5S15,100.143,15,96V82.5h482v301.125
	c0,4.143,3.357,7.5,7.5,7.5s7.5-3.357,7.5-7.5V75C512,70.857,508.643,67.5,504.5,67.5z"/>
<path d="M95.5,399.5c-4.143,0-7.5,3.357-7.5,7.5s3.357,7.5,7.5,7.5h379c4.143,0,7.5-3.357,7.5-7.5l0,0V105l0,0
	c0-4.143-3.357-7.5-7.5-7.5h-437c-4.143,0-7.5,3.357-7.5,7.5l0,0v302l0,0c0,4.143,3.357,7.5,7.5,7.5H64c4.143,0,7.5-3.357,7.5-7.5
	s-3.357-7.5-7.5-7.5H45v-54h68.5c11.855,0,21.5-9.645,21.5-21.5V188c0-11.855-9.645-21.5-21.5-21.5H45v-54h202.882v86.584
	C220.008,203.042,198.5,227.05,198.5,256s21.508,52.958,49.382,56.916V399.5H95.5z M113.5,181.5c3.584,0,6.5,2.916,6.5,6.5v136
	c0,3.584-2.916,6.5-6.5,6.5H45v-149H113.5z M467,330.5h-68.5c-3.584,0-6.5-2.916-6.5-6.5V188c0-3.584,2.916-6.5,6.5-6.5H467V330.5z
	 M262.882,214.065c20.172,3.3,35.618,20.843,35.618,41.935s-15.446,38.635-35.618,41.935V214.065z M213.5,256
	c0-20.658,14.818-37.913,34.382-41.713v83.426C228.318,293.913,213.5,276.658,213.5,256z M262.882,313.074
	C291.353,309.661,313.5,285.376,313.5,256s-22.147-53.661-50.618-57.074V112.5H467v54h-68.5c-11.855,0-21.5,9.645-21.5,21.5v136
	c0,11.855,9.645,21.5,21.5,21.5H467v54H262.882V313.074z"/>
<g>
</g>
<g>
</g>
<g>
</g>
<g>
</g>
<g>
</g>
<g>
</g>
<g>
</g>
<g>
</g>
<g>
</g>
<g>
</g>
<g>
</g>
<g>
</g>
<g>
</g>
<g>
</g>
<g>
</g>
</svg>
