<?xml version="1.0" encoding="iso-8859-1"?>
<!-- Generator: Adobe Illustrator 19.0.0, SVG Export Plug-In . SVG Version: 6.00 Build 0)  -->
<svg version="1.1" id="Capa_1" xmlns="http://www.w3.org/2000/svg" xmlns:xlink="http://www.w3.org/1999/xlink" x="0px" y="0px"
	 viewBox="0 0 512 512" style="enable-background:new 0 0 512 512;" xml:space="preserve">
<path style="fill:#A96458;" d="M489.5,504.5h-467c-8.284,0-15-6.716-15-15l0,0c0-8.284,6.716-15,15-15h467c8.284,0,15,6.716,15,15
	l0,0C504.5,497.784,497.784,504.5,489.5,504.5z"/>
<path style="fill:#895C62;" d="M489.5,474.5h-30c8.284,0,15,6.716,15,15s-6.716,15-15,15h30c8.284,0,15-6.716,15-15
	S497.784,474.5,489.5,474.5z"/>
<rect x="241" y="54.5" style="fill:#686370;" width="30" height="390"/>
<rect x="215" y="444.5" style="fill:#FF44AF;" width="82" height="30"/>
<rect x="267" y="444.5" style="fill:#FF119A;" width="30" height="30"/>
<circle style="fill:#FF44AF;" cx="256" cy="42.5" r="35"/>
<path style="fill:#FF119A;" d="M256,7.5c-5.369,0-10.453,1.212-15,3.373c11.824,5.618,20,17.667,20,31.627s-8.176,26.01-20,31.627
	c4.547,2.16,9.631,3.373,15,3.373c19.33,0,35-15.67,35-35S275.33,7.5,256,7.5z"/>
<path style="fill:#27EEFF;" d="M447.03,276.69c0,27.61-22.39,50-50,50c-17.96,0-33.7-9.46-42.52-23.67
	c-4.74-7.64-7.48-16.67-7.48-26.33c0-27.61,22.38-50,50-50c15.77,0,29.83,7.3,38.99,18.71
	C442.91,253.96,447.03,264.84,447.03,276.69z"/>
<path style="fill:#00DCFF;" d="M436.02,245.4c-9.16-11.41-23.22-18.71-38.99-18.71c-5.235,0-10.281,0.808-15.023,2.3
	c9.558,3,17.885,8.778,24.013,16.41c6.89,8.56,11.01,19.44,11.01,31.29c0,22.373-14.703,41.315-34.971,47.697
	c4.729,1.482,9.752,2.303,14.971,2.303c27.61,0,50-22.39,50-50C447.03,264.84,442.91,253.96,436.02,245.4z"/>
<path style="fill:#55A1FB;" d="M447.03,276.69c0,1.33-0.05,2.65-0.16,3.96c-2.01,25.76-23.56,46.04-49.84,46.04
	c-5.16,0-10.15-0.78-14.84-2.24c-0.56-0.18-1.12-0.36-1.67-0.55c-10.87-3.8-20.03-11.25-26.01-20.88
	c6.05-14.46,16.59-28.15,31.03-38.86c7.73-5.74,15.95-10.15,24.32-13.26c8.7-3.24,17.56-5.07,26.16-5.5
	C442.91,253.96,447.03,264.84,447.03,276.69z"/>
<path style="fill:#4A8BD9;" d="M447.03,276.69c0,1.33-0.05,2.65-0.16,3.96c-2.01,25.76-23.56,46.04-49.84,46.04
	c-5.16,0-10.15-0.78-14.84-2.24c-0.04-0.03-0.09-0.05-0.13-0.06c20.27-6.39,34.97-25.33,34.97-47.7c0-9.44-2.62-18.27-7.17-25.79
	c8.7-3.24,17.56-5.07,26.16-5.5C442.91,253.96,447.03,264.84,447.03,276.69z"/>
<path style="fill:#FF44AF;" d="M446.87,280.65c-2.01,25.76-23.56,46.04-49.84,46.04c-5.16,0-10.15-0.78-14.84-2.24
	c-0.01,0-0.01,0-0.01,0c-0.56-0.18-1.11-0.36-1.66-0.55c5.12-10.76,13.78-20.92,25.53-28.92c3.03-2.06,6.15-3.9,9.33-5.52
	C425.59,284.25,436.43,281.33,446.87,280.65z"/>
<path style="fill:#FF119A;" d="M446.87,280.65c-2.01,25.76-23.56,46.04-49.84,46.04c-5.16,0-10.15-0.78-14.84-2.24
	c-0.01,0-0.01,0-0.01,0c-0.04-0.03-0.08-0.05-0.12-0.06c16.27-5.13,28.95-18.34,33.32-34.93
	C425.59,284.25,436.43,281.33,446.87,280.65z"/>
<path d="M489.5,467h-185v-22.5c0-4.143-3.357-7.5-7.5-7.5h-18.5v-21.5c0-4.143-3.357-7.5-7.5-7.5s-7.5,3.357-7.5,7.5V437h-15V128
	c0-4.143-3.358-7.5-7.5-7.5s-7.5,3.357-7.5,7.5v309H215c-4.142,0-7.5,3.357-7.5,7.5V467H96c-4.142,0-7.5,3.357-7.5,7.5
	s3.358,7.5,7.5,7.5l0,0h393.5l0,0c4.136,0,7.5,3.364,7.5,7.5s-3.364,7.5-7.5,7.5h-467c-4.136,0-7.5-3.364-7.5-7.5s3.364-7.5,7.5-7.5
	H64c4.142,0,7.5-3.357,7.5-7.5S68.142,467,64,467H22.5C10.093,467,0,477.094,0,489.5S10.093,512,22.5,512h467
	c12.406,0,22.5-10.094,22.5-22.5S501.906,467,489.5,467z M222.5,467v-15l0,0h67l0,0v15H222.5z"/>
<path d="M233.5,78.531V95c0,4.143,3.358,7.5,7.5,7.5s7.5-3.357,7.5-7.5V84.324C250.937,84.76,253.44,85,256,85s5.063-0.24,7.5-0.676
	v299.343c0,4.143,3.357,7.5,7.5,7.5s7.5-3.357,7.5-7.5V94.393l82.715,137.362c-13.202,10.545-21.684,26.763-21.684,44.935
	c0,10.737,2.977,21.21,8.607,30.285c0.408,0.657,0.83,1.299,1.26,1.936c0.071,0.105,0.144,0.209,0.216,0.313
	c9.79,14.278,25.199,23.25,42.328,24.74c0.189,0.017,0.379,0.031,0.569,0.045c0.559,0.043,1.12,0.078,1.683,0.105
	c0.207,0.01,0.414,0.022,0.622,0.03c0.736,0.027,1.474,0.046,2.215,0.046c0.953,0,1.901-0.025,2.844-0.072
	c0.579-0.028,1.151-0.081,1.725-0.126c0.344-0.027,0.691-0.045,1.034-0.079c0.814-0.079,1.62-0.183,2.424-0.295
	c0.074-0.01,0.15-0.017,0.224-0.027c0.01-0.001,0.019-0.003,0.029-0.005c20.749-3.006,37.934-17.13,45.32-36.118
	c0.056-0.142,0.114-0.283,0.168-0.425c0.23-0.606,0.446-1.22,0.656-1.835c0.098-0.286,0.198-0.571,0.291-0.859
	c0.168-0.52,0.325-1.045,0.479-1.571c0.113-0.385,0.225-0.77,0.33-1.159c0.126-0.469,0.244-0.941,0.358-1.416
	c0.107-0.443,0.212-0.886,0.308-1.333c0.098-0.453,0.189-0.908,0.276-1.365c0.088-0.46,0.171-0.921,0.248-1.385
	c0.078-0.474,0.15-0.949,0.217-1.426c0.06-0.433,0.116-0.867,0.166-1.303c0.062-0.535,0.118-1.071,0.165-1.609
	c0.015-0.167,0.038-0.333,0.051-0.5c0-0.006,0.001-0.013,0.001-0.02c0.001-0.009,0.002-0.018,0.003-0.026
	c0.001-0.009,0-0.019,0.001-0.028c0.023-0.276,0.034-0.566,0.052-0.847c0.021-0.331,0.046-0.661,0.062-0.994
	c0.041-0.878,0.068-1.769,0.068-2.675c0-1.633-0.07-3.261-0.209-4.88c-0.973-11.335-5.31-22.231-12.453-31.104
	c-10.977-13.674-27.319-21.516-44.838-21.516c-8.167,0-15.936,1.723-22.979,4.806l-90.059-149.56
	C292.876,66.643,298.5,55.219,298.5,42.5C298.5,19.065,279.435,0,256,0s-42.5,19.065-42.5,42.5
	C213.5,57.676,221.501,71.011,233.5,78.531z M432.446,253.197c0.294,0.439,0.582,0.882,0.858,1.331
	c0.032,0.052,0.061,0.104,0.093,0.157c0.262,0.429,0.516,0.862,0.762,1.298c0.091,0.162,0.177,0.326,0.265,0.489
	c0.18,0.331,0.359,0.663,0.53,0.998c0.096,0.188,0.188,0.378,0.281,0.567c0.156,0.317,0.309,0.636,0.457,0.957
	c0.09,0.195,0.178,0.391,0.265,0.587c0.143,0.324,0.281,0.649,0.416,0.977c0.079,0.193,0.159,0.386,0.236,0.581
	c0.136,0.346,0.266,0.695,0.393,1.044c0.064,0.176,0.131,0.352,0.193,0.529c0.148,0.427,0.288,0.857,0.422,1.288
	c0.031,0.101,0.067,0.201,0.097,0.303c0.163,0.537,0.315,1.079,0.456,1.623c0.033,0.126,0.061,0.254,0.092,0.381
	c0.104,0.416,0.204,0.833,0.295,1.252c0.042,0.192,0.079,0.386,0.118,0.579c0.073,0.358,0.142,0.716,0.206,1.077
	c0.038,0.214,0.072,0.429,0.106,0.644c0.055,0.345,0.106,0.691,0.153,1.039c0.03,0.22,0.058,0.44,0.084,0.662
	c0.042,0.353,0.078,0.706,0.111,1.061c0.02,0.214,0.041,0.427,0.058,0.641c0.017,0.219,0.027,0.439,0.041,0.659
	c-13.235,1.963-26.113,7.03-37.604,14.862c-10.292,7.007-18.692,15.735-24.624,25.509c-4.546-2.405-8.634-5.629-12.047-9.491
	c-0.08-0.091-0.159-0.183-0.239-0.275c-0.542-0.623-1.061-1.268-1.566-1.923c-0.092-0.119-0.183-0.239-0.274-0.359
	c5.915-12.308,15.16-23.33,26.929-32.058C402.808,260.688,417.736,254.733,432.446,253.197z M394.578,319.112
	c-0.137-0.008-0.274-0.017-0.41-0.026c-0.216-0.014-0.431-0.038-0.647-0.056c-0.479-0.039-0.956-0.082-1.431-0.137
	c4.649-6.674,10.815-12.699,18.184-17.716c8.288-5.648,17.712-9.66,27.271-11.681c-0.026,0.083-0.05,0.168-0.077,0.251
	c-0.07,0.217-0.146,0.431-0.22,0.646c-0.128,0.375-0.26,0.747-0.399,1.116c-0.084,0.223-0.17,0.445-0.257,0.666
	c-0.143,0.363-0.292,0.724-0.445,1.083c-0.09,0.212-0.181,0.424-0.275,0.634c-0.17,0.381-0.348,0.757-0.529,1.132
	c-0.086,0.178-0.169,0.358-0.257,0.534c-0.259,0.519-0.528,1.032-0.808,1.538c-0.015,0.027-0.029,0.056-0.044,0.083
	c-0.298,0.536-0.609,1.063-0.928,1.585c-0.094,0.153-0.194,0.303-0.29,0.456c-0.23,0.364-0.463,0.726-0.703,1.083
	c-0.123,0.183-0.25,0.362-0.375,0.542c-0.225,0.323-0.454,0.644-0.687,0.959c-0.135,0.184-0.272,0.365-0.41,0.546
	c-0.24,0.314-0.486,0.625-0.735,0.933c-0.136,0.168-0.27,0.336-0.408,0.502c-0.281,0.337-0.57,0.668-0.861,0.997
	c-0.112,0.126-0.22,0.255-0.334,0.379c-0.41,0.452-0.829,0.896-1.257,1.33c-0.038,0.039-0.079,0.075-0.117,0.114
	c-0.389,0.391-0.785,0.773-1.188,1.148c-0.142,0.132-0.288,0.26-0.432,0.39c-0.307,0.278-0.617,0.554-0.932,0.822
	c-0.169,0.145-0.341,0.286-0.512,0.428c-0.301,0.249-0.605,0.495-0.913,0.736c-0.178,0.139-0.357,0.278-0.537,0.414
	c-0.319,0.242-0.643,0.478-0.969,0.711c-0.171,0.123-0.34,0.246-0.513,0.366c-0.385,0.267-0.776,0.525-1.17,0.779
	c-0.117,0.075-0.231,0.154-0.349,0.229c-0.517,0.327-1.04,0.642-1.571,0.946c-0.11,0.063-0.222,0.121-0.333,0.183
	c-0.42,0.236-0.842,0.467-1.27,0.688c-0.187,0.097-0.378,0.189-0.567,0.284c-0.359,0.18-0.72,0.356-1.085,0.525
	c-0.209,0.097-0.42,0.191-0.631,0.285c-0.356,0.159-0.715,0.312-1.076,0.461c-0.213,0.088-0.426,0.175-0.64,0.26
	c-0.379,0.149-0.762,0.291-1.146,0.429c-0.197,0.071-0.392,0.145-0.591,0.213c-0.485,0.167-0.975,0.323-1.467,0.472
	c-0.098,0.03-0.194,0.063-0.293,0.093c-0.592,0.175-1.19,0.335-1.792,0.485c-0.17,0.042-0.342,0.078-0.512,0.118
	c-0.434,0.102-0.87,0.2-1.309,0.289c-0.224,0.045-0.45,0.084-0.675,0.126c-0.393,0.072-0.787,0.141-1.184,0.202
	c-0.239,0.037-0.479,0.072-0.72,0.105c-0.394,0.054-0.79,0.101-1.187,0.144c-0.218,0.024-0.435,0.048-0.654,0.068
	c-0.176,0.016-0.352,0.026-0.528,0.041c-0.273,0.021-0.546,0.043-0.821,0.06c-0.186,0.011-0.371,0.026-0.558,0.035
	c-0.655,0.03-1.313,0.05-1.975,0.05C396.208,319.189,395.391,319.158,394.578,319.112z M419.03,240.326
	c-13.352,3.172-26.426,9.255-37.958,17.81c-10.337,7.667-19.022,16.895-25.659,27.176c-0.581-2.819-0.883-5.707-0.883-8.622
	c0-23.435,19.065-42.5,42.5-42.5C404.921,234.189,412.483,236.354,419.03,240.326z M256,15c15.163,0,27.5,12.337,27.5,27.5
	S271.163,70,256,70c-15.164,0-27.5-12.337-27.5-27.5S240.836,15,256,15z"/>
<g>
</g>
<g>
</g>
<g>
</g>
<g>
</g>
<g>
</g>
<g>
</g>
<g>
</g>
<g>
</g>
<g>
</g>
<g>
</g>
<g>
</g>
<g>
</g>
<g>
</g>
<g>
</g>
<g>
</g>
</svg>
