<?xml version="1.0" encoding="iso-8859-1"?>
<!-- Generator: Adobe Illustrator 19.0.0, SVG Export Plug-In . SVG Version: 6.00 Build 0)  -->
<svg version="1.1" id="Capa_1" xmlns="http://www.w3.org/2000/svg" xmlns:xlink="http://www.w3.org/1999/xlink" x="0px" y="0px"
	 viewBox="0 0 512 512" style="enable-background:new 0 0 512 512;" xml:space="preserve">
<path style="fill:#A96458;" d="M489.5,446h-467c-8.284,0-15-6.716-15-15l0,0c0-8.284,6.716-15,15-15h467c8.284,0,15,6.716,15,15l0,0
	C504.5,439.284,497.784,446,489.5,446z"/>
<path style="fill:#895C62;" d="M489.5,416h-30c8.284,0,15,6.716,15,15s-6.716,15-15,15h30c8.284,0,15-6.716,15-15
	S497.784,416,489.5,416z"/>
<rect x="186" y="374" style="fill:#55A1FB;" width="140" height="42"/>
<rect x="295.25" y="374" style="fill:#4A8BD9;" width="30" height="42"/>
<path style="fill:#686370;" d="M269.667,374h-30c-8.284,0-15-6.716-15-15l0,0c0-8.284,6.716-15,15-15h30c8.284,0,15,6.716,15,15l0,0
	C284.667,367.284,277.951,374,269.667,374z"/>
<path style="fill:#56525B;" d="M269.667,344h-30c8.284,0,15,6.716,15,15s-6.716,15-15,15h30c8.284,0,15-6.716,15-15
	S277.951,344,269.667,344z"/>
<path style="fill:#686370;" d="M269.667,344h-30c-8.284,0-15-6.716-15-15l0,0c0-8.284,6.716-15,15-15h30c8.284,0,15,6.716,15,15l0,0
	C284.667,337.284,277.951,344,269.667,344z"/>
<path style="fill:#56525B;" d="M269.667,314h-30c8.284,0,15,6.716,15,15s-6.716,15-15,15h30c8.284,0,15-6.716,15-15
	S277.951,314,269.667,314z"/>
<path style="fill:#686370;" d="M269.667,314h-30c-8.284,0-15-6.716-15-15l0,0c0-8.284,6.716-15,15-15h30c8.284,0,15,6.716,15,15l0,0
	C284.667,307.284,277.951,314,269.667,314z"/>
<path style="fill:#56525B;" d="M269.667,284h-30c8.284,0,15,6.716,15,15s-6.716,15-15,15h30c8.284,0,15-6.716,15-15
	S277.951,284,269.667,284z"/>
<path style="fill:#FF44AF;" d="M427,284H85c-5.523,0-10-4.477-10-10v-74h352c5.523,0,10,4.477,10,10v64
	C437,279.523,432.523,284,427,284z"/>
<path style="fill:#FF119A;" d="M427,200h-30c5.523,0,10,4.477,10,10v64c0,5.523-4.477,10-10,10h30c5.523,0,10-4.477,10-10v-64
	C437,204.477,432.523,200,427,200z"/>
<path style="fill:#2CE565;" d="M403.75,200H75V96c0-16.569,13.431-30,30-30h268.75c16.569,0,30,13.431,30,30V200z"/>
<path style="fill:#25C799;" d="M373.75,66h-30c16.569,0,30,13.432,30,30v104h30V96C403.75,79.432,390.319,66,373.75,66z"/>
<path style="fill:#27EEFF;" d="M105,200V98c0-1.105,0.895-2,2-2h264.75c1.105,0,2,0.895,2,2v102H105z"/>
<g>
	<path style="fill:#55A1FB;" d="M188,200h-34v-23c0-9.389,7.611-17,17-17l0,0c9.389,0,17,7.611,17,17V200z"/>
	<path style="fill:#55A1FB;" d="M288,200h-34v-23c0-9.389,7.611-17,17-17l0,0c9.389,0,17,7.611,17,17V200z"/>
</g>
<g>
	<circle style="fill:#45414A;" cx="147" cy="284" r="40"/>
	<circle style="fill:#45414A;" cx="368.68" cy="284" r="40"/>
</g>
<g>
	<circle style="fill:#686370;" cx="368.68" cy="284" r="15"/>
	<circle style="fill:#686370;" cx="147" cy="284" r="15"/>
</g>
<path d="M427,207.5c1.378,0,2.5,1.121,2.5,2.5v64c0,1.379-1.122,2.5-2.5,2.5h-11.422c-3.607-22.64-23.263-40-46.902-40
	s-43.295,17.36-46.902,40l0,0H193.902l0,0c-3.607-22.64-23.263-40-46.902-40s-43.295,17.36-46.902,40H85c-1.378,0-2.5-1.121-2.5-2.5
	v-32c0-4.143-3.358-7.5-7.5-7.5s-7.5,3.357-7.5,7.5v32c0,9.649,7.851,17.5,17.5,17.5h15.098c3.607,22.64,23.263,40,46.902,40
	s43.295-17.36,46.902-40h24.554c-0.833,2.348-1.29,4.871-1.29,7.5c0,5.758,2.177,11.016,5.748,15c-3.571,3.984-5.748,9.242-5.748,15
	s2.177,11.016,5.748,15c-3.571,3.984-5.748,9.242-5.748,15c0,2.629,0.458,5.152,1.29,7.5H186c-4.142,0-7.5,3.357-7.5,7.5v34.5h-156
	C10.093,408.5,0,418.594,0,431s10.093,22.5,22.5,22.5h467c12.407,0,22.5-10.094,22.5-22.5s-10.093-22.5-22.5-22.5H384.333
	c-4.142,0-7.5,3.357-7.5,7.5s3.358,7.5,7.5,7.5H489.5c4.136,0,7.5,3.364,7.5,7.5s-3.364,7.5-7.5,7.5h-467
	c-4.136,0-7.5-3.364-7.5-7.5s3.364-7.5,7.5-7.5H352l0,0l0,0c4.142,0,7.5-3.357,7.5-7.5s-3.358-7.5-7.5-7.5h-18.5V374
	c0-4.143-3.358-7.5-7.5-7.5h-35.124c0.833-2.348,1.29-4.871,1.29-7.5c0-5.758-2.177-11.016-5.748-15
	c3.571-3.984,5.748-9.242,5.748-15s-2.177-11.016-5.748-15c3.571-3.984,5.748-9.242,5.748-15c0-2.629-0.458-5.152-1.29-7.5h30.897
	c3.607,22.64,23.263,40,46.902,40s43.295-17.36,46.902-40H427c9.649,0,17.5-7.851,17.5-17.5v-64c0-9.649-7.851-17.5-17.5-17.5
	h-15.75V96c0-20.678-16.822-37.5-37.5-37.5H160c-4.142,0-7.5,3.357-7.5,7.5s3.358,7.5,7.5,7.5h213.75
	c12.407,0,22.5,10.094,22.5,22.5v96.5h-15V98c0-5.238-4.262-9.5-9.5-9.5H107c-5.238,0-9.5,4.262-9.5,9.5v94.5h-15V96
	c0-12.406,10.093-22.5,22.5-22.5h22.5c4.142,0,7.5-3.357,7.5-7.5s-3.358-7.5-7.5-7.5H105c-20.678,0-37.5,16.822-37.5,37.5v104v9.5
	c0,4.143,3.358,7.5,7.5,7.5s7.5-3.357,7.5-7.5v-2H427 M161.5,192.5V177c0-5.238,4.262-9.5,9.5-9.5s9.5,4.262,9.5,9.5v15.5H161.5z
	 M261.5,192.5V177c0-5.238,4.262-9.5,9.5-9.5s9.5,4.262,9.5,9.5v15.5H261.5z M295.5,192.5V177c0-13.51-10.991-24.5-24.5-24.5
	s-24.5,10.99-24.5,24.5v15.5h-51V177c0-13.51-10.991-24.5-24.5-24.5s-24.5,10.99-24.5,24.5v15.5h-34v-89h253.75v89H295.5z
	 M232.167,329c0-4.136,3.364-7.5,7.5-7.5h30c4.136,0,7.5,3.364,7.5,7.5s-3.364,7.5-7.5,7.5h-30
	C235.531,336.5,232.167,333.136,232.167,329z M368.675,251.5c17.92,0,32.5,14.579,32.5,32.5s-14.58,32.5-32.5,32.5
	c-17.899,0-32.463-14.544-32.498-32.436c0-0.021,0.003-0.043,0.003-0.064s-0.003-0.043-0.003-0.064
	C336.212,266.044,350.776,251.5,368.675,251.5z M147,316.5c-17.92,0-32.5-14.579-32.5-32.5s14.58-32.5,32.5-32.5
	s32.5,14.579,32.5,32.5S164.92,316.5,147,316.5z M269.667,291.5c4.136,0,7.5,3.364,7.5,7.5s-3.364,7.5-7.5,7.5h-30
	c-4.136,0-7.5-3.364-7.5-7.5s3.364-7.5,7.5-7.5H269.667z M232.167,359c0-4.136,3.364-7.5,7.5-7.5h30c4.136,0,7.5,3.364,7.5,7.5
	s-3.364,7.5-7.5,7.5h-30C235.531,366.5,232.167,363.136,232.167,359z M193.5,381.5h46.167h30H318.5v27h-125V381.5z"/>
<path d="M368.675,306.5c12.407,0,22.5-10.094,22.5-22.5s-10.093-22.5-22.5-22.5s-22.5,10.094-22.5,22.5S356.269,306.5,368.675,306.5
	z M368.675,276.5c4.136,0,7.5,3.364,7.5,7.5s-3.364,7.5-7.5,7.5s-7.5-3.364-7.5-7.5S364.54,276.5,368.675,276.5z"/>
<path d="M147,261.5c-12.407,0-22.5,10.094-22.5,22.5s10.093,22.5,22.5,22.5s22.5-10.094,22.5-22.5S159.407,261.5,147,261.5z
	 M147,291.5c-4.136,0-7.5-3.364-7.5-7.5s3.364-7.5,7.5-7.5s7.5,3.364,7.5,7.5S151.136,291.5,147,291.5z"/>
<g>
</g>
<g>
</g>
<g>
</g>
<g>
</g>
<g>
</g>
<g>
</g>
<g>
</g>
<g>
</g>
<g>
</g>
<g>
</g>
<g>
</g>
<g>
</g>
<g>
</g>
<g>
</g>
<g>
</g>
</svg>
