<?xml version="1.0" encoding="iso-8859-1"?>
<!-- Generator: Adobe Illustrator 19.0.0, SVG Export Plug-In . SVG Version: 6.00 Build 0)  -->
<svg version="1.1" id="Capa_1" xmlns="http://www.w3.org/2000/svg" xmlns:xlink="http://www.w3.org/1999/xlink" x="0px" y="0px"
	 viewBox="0 0 512 512" style="enable-background:new 0 0 512 512;" xml:space="preserve">
<g>
	<circle style="fill:#2CE565;" cx="216" cy="69" r="25"/>
	<circle style="fill:#2CE565;" cx="296" cy="69" r="25"/>
</g>
<g>
	<path style="fill:#25C799;" d="M216,44c-5.628,0-10.822,1.861-15,5c6.072,4.561,10,11.822,10,20s-3.928,15.439-10,20
		c4.178,3.139,9.372,5,15,5c13.807,0,25-11.193,25-25S229.807,44,216,44z"/>
	<path style="fill:#25C799;" d="M296,44c-5.628,0-10.822,1.861-15,5c6.072,4.561,10,11.822,10,20s-3.928,15.439-10,20
		c4.178,3.139,9.372,5,15,5c13.807,0,25-11.193,25-25S309.807,44,296,44z"/>
</g>
<path style="fill:#55A1FB;" d="M484.5,408h-457c-11.046,0-20-8.954-20-20v-20c0-11.046,8.954-20,20-20h457c11.046,0,20,8.954,20,20
	v20C504.5,399.046,495.546,408,484.5,408z"/>
<path style="fill:#4A8BD9;" d="M484.5,348h-30c11.046,0,20,8.954,20,20v20c0,11.046-8.954,20-20,20h30c11.046,0,20-8.954,20-20v-20
	C504.5,356.954,495.546,348,484.5,348z"/>
<path style="fill:#27EEFF;" d="M484.5,468h-457c-11.046,0-20-8.954-20-20v-20c0-11.046,8.954-20,20-20h457c11.046,0,20,8.954,20,20
	v20C504.5,459.046,495.546,468,484.5,468z"/>
<path style="fill:#00DCFF;" d="M484.5,408h-30c11.046,0,20,8.954,20,20v20c0,11.046-8.954,20-20,20h30c11.046,0,20-8.954,20-20v-20
	C504.5,416.954,495.546,408,484.5,408z"/>
<path style="fill:#FF44AF;" d="M176,348V248c0-44.112,35.888-80,80-80s80,35.888,80,80v100H176z"/>
<path style="fill:#686370;" d="M306,348H206V248c0-27.614,22.386-50,50-50l0,0c27.614,0,50,22.386,50,50V348z"/>
<path style="fill:#56525B;" d="M256,198L256,198c-5.227,0-10.264,0.805-15,2.292c20.285,6.372,35,25.32,35,47.708v100h30V248
	C306,220.386,283.614,198,256,198z"/>
<path style="fill:#27EEFF;" d="M176,348H66c-11.046,0-20-8.954-20-20v-4c0-11.046,8.954-20,20-20h110V348z"/>
<rect x="145.5" y="304" style="fill:#00DCFF;" width="30.5" height="44"/>
<path style="fill:#55A1FB;" d="M176,304H66c-11.046,0-20-8.954-20-20v-4c0-11.046,8.954-20,20-20h110V304z"/>
<rect x="146" y="260" style="fill:#4A8BD9;" width="30" height="44"/>
<path style="fill:#27EEFF;" d="M336,348h110c11.046,0,20-8.954,20-20v-4c0-11.046-8.954-20-20-20H336V348z"/>
<path style="fill:#00DCFF;" d="M446,304h-30c11.046,0,20,8.954,20,20v4c0,11.046-8.954,20-20,20h30c11.046,0,20-8.954,20-20v-4
	C466,312.954,457.046,304,446,304z"/>
<path style="fill:#55A1FB;" d="M336,304h110c11.046,0,20-8.954,20-20v-4c0-11.046-8.954-20-20-20H336V304z"/>
<path style="fill:#4A8BD9;" d="M446,260h-30c11.046,0,20,8.954,20,20v4c0,11.046-8.954,20-20,20h30c11.046,0,20-8.954,20-20v-4
	C466,268.954,457.046,260,446,260z"/>
<circle style="fill:#FFDC5A;" cx="256" cy="120" r="48"/>
<path style="fill:#FFC843;" d="M256,72c-5.24,0-10.279,0.852-15,2.404c19.161,6.3,33,24.327,33,45.596s-13.839,39.296-33,45.596
	c4.721,1.552,9.76,2.404,15,2.404c26.51,0,48-21.49,48-48S282.51,72,256,72z"/>
<circle cx="241" cy="114" r="7.5"/>
<circle cx="271" cy="114" r="7.5"/>
<path d="M512,388v-20c0-15.164-12.336-27.5-27.5-27.5h-14.018c1.924-3.753,3.018-8,3.018-12.5v-4c0-7.875-3.332-14.982-8.655-20
	c5.323-5.018,8.655-12.125,8.655-20v-4c0-15.163-12.336-27.5-27.5-27.5H343.5V248c0-37.397-23.585-69.384-56.66-81.883
	c14.859-9.969,24.66-26.918,24.66-46.117c0-7.129-1.362-14.115-3.972-20.634C319.757,94.684,328.5,82.787,328.5,69
	c0-17.921-14.58-32.5-32.5-32.5c-16.586,0-30.3,12.491-32.253,28.56c-5.135-0.713-10.36-0.713-15.495,0
	C246.3,48.991,232.586,36.5,216,36.5c-17.92,0-32.5,14.579-32.5,32.5c0,13.788,8.743,25.685,20.972,30.367
	c-2.611,6.518-3.972,13.504-3.972,20.633c0,3.099,0.258,6.208,0.767,9.241c0.615,3.665,3.791,6.26,7.388,6.26
	c0.412,0,0.83-0.034,1.25-0.104c4.085-0.686,6.841-4.553,6.155-8.638c-0.372-2.215-0.56-4.489-0.56-6.759
	c0-7.823,2.23-15.409,6.448-21.938c0.001-0.001,0.001-0.002,0.002-0.003c4.918-7.616,12.319-13.427,20.84-16.365
	c0.001,0,0.001,0,0.002,0c8.495-2.912,17.931-2.908,26.406-0.004c8.526,2.937,15.932,8.75,20.853,16.37
	c4.219,6.529,6.449,14.116,6.449,21.939c0,22.332-18.168,40.5-40.5,40.5c-10.559,0-20.553-4.04-28.144-11.375
	c-2.978-2.879-7.727-2.798-10.605,0.181s-2.797,7.727,0.181,10.604c2.401,2.321,4.984,4.389,7.705,6.215
	C192.075,178.63,168.5,210.611,168.5,248v4.5H66c-15.164,0-27.5,12.337-27.5,27.5v4c0,7.875,3.332,14.982,8.655,20
	c-5.323,5.018-8.655,12.125-8.655,20v4c0,4.5,1.093,8.747,3.018,12.5H27.5C12.336,340.5,0,352.836,0,368v20
	c0,7.875,3.332,14.982,8.655,20C3.332,413.018,0,420.125,0,428v20c0,15.164,12.336,27.5,27.5,27.5H64c4.142,0,7.5-3.357,7.5-7.5
	s-3.358-7.5-7.5-7.5H27.5c-6.893,0-12.5-5.607-12.5-12.5v-20c0-6.893,5.607-12.5,12.5-12.5h457c6.893,0,12.5,5.607,12.5,12.5v20
	c0,6.893-5.607,12.5-12.5,12.5H96.667c-4.142,0-7.5,3.357-7.5,7.5s3.358,7.5,7.5,7.5H484.5c15.164,0,27.5-12.336,27.5-27.5v-20
	c0-7.875-3.332-14.982-8.655-20C508.668,402.982,512,395.875,512,388z M212.091,86.052C204.331,84.267,198.5,77.264,198.5,69
	c0-9.649,7.851-17.5,17.5-17.5s17.5,7.851,17.5,17.5c0,0.083,0,0.166-0.002,0.249C225.119,72.978,217.727,78.779,212.091,86.052z
	 M278.515,69.259c-0.001-0.087-0.015-0.172-0.015-0.259c0-9.649,7.851-17.5,17.5-17.5s17.5,7.851,17.5,17.5
	c0,8.265-5.836,15.261-13.599,17.045C294.271,78.783,286.888,72.988,278.515,69.259z M458.5,324v4c0,6.893-5.607,12.5-12.5,12.5
	H343.5v-29H446C452.893,311.5,458.5,317.107,458.5,324z M446,267.5c6.893,0,12.5,5.607,12.5,12.5v4c0,6.893-5.607,12.5-12.5,12.5
	H343.5v-29H446z M183.5,248c0-39.977,32.523-72.5,72.5-72.5s72.5,32.523,72.5,72.5l0,0v92.5l0,0h-15v-20.667
	c0-4.143-3.358-7.5-7.5-7.5s-7.5,3.357-7.5,7.5V340.5h-85V248c0-23.435,19.065-42.5,42.5-42.5s42.5,19.065,42.5,42.5v39.833
	c0,4.143,3.358,7.5,7.5,7.5s7.5-3.357,7.5-7.5V248c0-31.706-25.794-57.5-57.5-57.5s-57.5,25.794-57.5,57.5v92.5h-15l0,0V248
	L183.5,248z M53.5,284v-4c0-6.893,5.607-12.5,12.5-12.5h102.5v29H66C59.107,296.5,53.5,290.893,53.5,284z M53.5,328v-4
	c0-6.893,5.607-12.5,12.5-12.5h102.5v29H66C59.107,340.5,53.5,334.893,53.5,328z M484.5,355.5c6.893,0,12.5,5.607,12.5,12.5v20
	c0,6.893-5.607,12.5-12.5,12.5h-457c-6.893,0-12.5-5.607-12.5-12.5v-20c0-6.893,5.607-12.5,12.5-12.5H484.5"/>
<g>
</g>
<g>
</g>
<g>
</g>
<g>
</g>
<g>
</g>
<g>
</g>
<g>
</g>
<g>
</g>
<g>
</g>
<g>
</g>
<g>
</g>
<g>
</g>
<g>
</g>
<g>
</g>
<g>
</g>
</svg>
