<?xml version="1.0" encoding="iso-8859-1"?>
<!-- Generator: Adobe Illustrator 19.0.0, SVG Export Plug-In . SVG Version: 6.00 Build 0)  -->
<svg version="1.1" id="Capa_1" xmlns="http://www.w3.org/2000/svg" xmlns:xlink="http://www.w3.org/1999/xlink" x="0px" y="0px"
	 viewBox="0 0 512 512" style="enable-background:new 0 0 512 512;" xml:space="preserve">
<path style="fill:#55A1FB;" d="M272.567,102.9V77.767c0-2.209-1.791-4-4-4h-25.133c-2.209,0-4-1.791-4-4V40.633V11.5
	c0-2.209-1.791-4-4-4H210.3c-2.209,0-4,1.791-4,4v25.133c0,2.209-1.791,4-4,4h-25.133c-2.209,0-4-1.791-4-4V11.5
	c0-2.209-1.791-4-4-4h-25.133c-2.209,0-4,1.791-4,4v25.133c0,2.209-1.791,4-4,4H110.9c-2.209,0-4-1.791-4-4V11.5
	c0-2.209-1.791-4-4-4H77.767c-2.209,0-4,1.791-4,4v25.133c0,2.209-1.791,4-4,4H44.633c-2.209,0-4-1.791-4-4V11.5
	c0-2.209-1.791-4-4-4H11.5c-2.209,0-4,1.791-4,4v29.133v29.133c0,2.209,1.791,4,4,4h25.133c2.209,0,4,1.791,4,4V102.9
	c0,2.209-1.791,4-4,4H11.5c-2.209,0-4,1.791-4,4v25.133c0,2.209,1.791,4,4,4h25.133c2.209,0,4,1.791,4,4v25.133c0,2.209-1.791,4-4,4
	H11.5c-2.209,0-4,1.791-4,4V202.3c0,2.209,1.791,4,4,4h25.133c2.209,0,4,1.791,4,4v29.133v29.133c0,2.209,1.791,4,4,4h25.133
	c2.209,0,4-1.791,4-4v-25.133c0-2.209,1.791-4,4-4H102.9c2.209,0,4,1.791,4,4v25.133c0,2.209,1.791,4,4,4h25.133
	c2.209,0,4-1.791,4-4v-25.133c0-2.209,1.791-4,4-4h25.133c2.209,0,4,1.791,4,4v25.133c0,2.209,1.791,4,4,4H202.3
	c2.209,0,4-1.791,4-4v-25.133c0-2.209,1.791-4,4-4h29.133h29.133c2.209,0,4-1.791,4-4V210.3c0-2.209-1.791-4-4-4h-25.133
	c-2.209,0-4-1.791-4-4v-25.133c0-2.209,1.791-4,4-4h25.133c2.209,0,4-1.791,4-4v-25.133c0-2.209-1.791-4-4-4h-25.133
	c-2.209,0-4-1.791-4-4V110.9c0-2.209,1.791-4,4-4h25.133C270.776,106.9,272.567,105.109,272.567,102.9z"/>
<path style="fill:#27EEFF;" d="M471.37,110.9v25.13c0,2.21,1.79,4,4,4h25.13c2.21,0,4,1.79,4,4v25.14c0,2.21-1.79,4-4,4h-25.13
	c-2.21,0-4,1.79-4,4v25.13c0,2.21,1.79,4,4,4h25.13c2.21,0,4,1.79,4,4v25.13c0,2.21-1.79,4-4,4h-58.27c-2.21,0-4,1.79-4,4v25.14
	c0,2.21-1.79,4-4,4H409.1c-2.21,0-4-1.79-4-4v-25.14c0-2.21-1.79-4-4-4h-25.13c-2.21,0-4,1.79-4,4v25.14c0,2.21-1.79,4-4,4h-25.14
	c-2.21,0-4-1.79-4-4v-25.14c0-2.21-1.79-4-4-4H309.7c-2.21,0-4,1.79-4,4v25.14c0,2.21-1.79,4-4,4h-25.13c-2.21,0-4-1.79-4-4V210.3
	c0-2.21-1.79-4-4-4h-25.14c-2.21,0-4-1.79-4-4v-25.13c0-2.21,1.79-4,4-4h25.14c2.21,0,4-1.79,4-4v-25.14c0-2.21-1.79-4-4-4h-25.14
	c-2.21,0-4-1.79-4-4V110.9c0-2.21,1.79-4,4-4h25.14c2.21,0,4-1.79,4-4V77.77c0-2.21-1.79-4-4-4h-25.14c-2.21,0-4-1.79-4-4V11.5
	c0-2.21,1.79-4,4-4h25.14c2.21,0,4,1.79,4,4v25.13c0,2.21,1.79,4,4,4h25.13c2.21,0,4-1.79,4-4V11.5c0-2.21,1.79-4,4-4h25.13
	c2.21,0,4,1.79,4,4v25.13c0,2.21,1.79,4,4,4h25.14c2.21,0,4-1.79,4-4V11.5c0-2.21,1.79-4,4-4h25.13c2.21,0,4,1.79,4,4v25.13
	c0,2.21,1.79,4,4,4h25.13c2.21,0,4-1.79,4-4V11.5c0-2.21,1.79-4,4-4h25.14c2.21,0,4,1.79,4,4v58.27c0,2.21,1.79,4,4,4h25.13
	c2.21,0,4,1.79,4,4v25.13c0,2.21-1.79,4-4,4h-25.13C473.16,106.9,471.37,108.69,471.37,110.9z"/>
<g>
	<path style="fill:#00DCFF;" d="M504.5,77.77v25.13c0,2.21-1.79,4-4,4h-25.13c-2.21,0-4,1.79-4,4V69.77c0,2.21,1.79,4,4,4h25.13
		C502.71,73.77,504.5,75.56,504.5,77.77z"/>
	<path style="fill:#00DCFF;" d="M504.5,144.03v25.14c0,2.21-1.79,4-4,4h-25.13c-2.21,0-4,1.79-4,4v-41.14c0,2.21,1.79,4,4,4h25.13
		C502.71,140.03,504.5,141.82,504.5,144.03z"/>
	<path style="fill:#00DCFF;" d="M504.5,210.3v25.13c0,2.21-1.79,4-4,4h-29.13V202.3c0,2.21,1.79,4,4,4h25.13
		C502.71,206.3,504.5,208.09,504.5,210.3z"/>
</g>
<g>
	<path style="fill:#4A8BD9;" d="M272.565,77.77v25.13c0,2.21-1.79,4-4,4h-25.13c-2.21,0-4,1.79-4,4V69.77c0,2.21,1.79,4,4,4h25.13
		C270.775,73.77,272.565,75.56,272.565,77.77z"/>
	<path style="fill:#4A8BD9;" d="M272.565,144.03v25.14c0,2.21-1.79,4-4,4h-25.13c-2.21,0-4,1.79-4,4v-41.14c0,2.21,1.79,4,4,4h25.13
		C270.775,140.03,272.565,141.82,272.565,144.03z"/>
	<path style="fill:#4A8BD9;" d="M272.565,210.3v25.13c0,2.21-1.79,4-4,4h-29.13V202.3c0,2.21,1.79,4,4,4h25.13
		C270.775,206.3,272.565,208.09,272.565,210.3z"/>
</g>
<path style="fill:#FFDC5A;" d="M272.567,334.833V309.7c0-2.209-1.791-4-4-4h-25.133c-2.209,0-4-1.791-4-4v-29.133v-29.133
	c0-2.209-1.791-4-4-4H210.3c-2.209,0-4,1.791-4,4v25.133c0,2.209-1.791,4-4,4h-25.133c-2.209,0-4-1.791-4-4v-25.133
	c0-2.209-1.791-4-4-4h-25.133c-2.209,0-4,1.791-4,4v25.133c0,2.209-1.791,4-4,4H110.9c-2.209,0-4-1.791-4-4v-25.133
	c0-2.209-1.791-4-4-4H77.767c-2.209,0-4,1.791-4,4v25.133c0,2.209-1.791,4-4,4H44.633c-2.209,0-4-1.791-4-4v-25.133
	c0-2.209-1.791-4-4-4H11.5c-2.209,0-4,1.791-4,4v29.133V301.7c0,2.209,1.791,4,4,4h25.133c2.209,0,4,1.791,4,4v25.133
	c0,2.209-1.791,4-4,4H11.5c-2.209,0-4,1.791-4,4v25.133c0,2.209,1.791,4,4,4h25.133c2.209,0,4,1.791,4,4V401.1c0,2.209-1.791,4-4,4
	H11.5c-2.209,0-4,1.791-4,4v25.133c0,2.209,1.791,4,4,4h25.133c2.209,0,4,1.791,4,4v29.133V500.5c0,2.209,1.791,4,4,4h25.133
	c2.209,0,4-1.791,4-4v-25.133c0-2.209,1.791-4,4-4H102.9c2.209,0,4,1.791,4,4V500.5c0,2.209,1.791,4,4,4h25.133c2.209,0,4-1.791,4-4
	v-25.133c0-2.209,1.791-4,4-4h25.133c2.209,0,4,1.791,4,4V500.5c0,2.209,1.791,4,4,4H202.3c2.209,0,4-1.791,4-4v-25.133
	c0-2.209,1.791-4,4-4h29.133h29.133c2.209,0,4-1.791,4-4v-25.133c0-2.209-1.791-4-4-4h-25.133c-2.209,0-4-1.791-4-4V409.1
	c0-2.209,1.791-4,4-4h25.133c2.209,0,4-1.791,4-4v-25.133c0-2.209-1.791-4-4-4h-25.133c-2.209,0-4-1.791-4-4v-25.133
	c0-2.209,1.791-4,4-4h25.133C270.776,338.833,272.567,337.042,272.567,334.833z"/>
<path style="fill:#FF44AF;" d="M471.37,342.83v25.14c0,2.21,1.79,4,4,4h25.13c2.21,0,4,1.79,4,4v25.13c0,2.21-1.79,4-4,4h-25.13
	c-2.21,0-4,1.79-4,4v25.13c0,2.21,1.79,4,4,4h25.13c2.21,0,4,1.79,4,4v25.14c0,2.21-1.79,4-4,4h-58.27c-2.21,0-4,1.79-4,4v25.13
	c0,2.21-1.79,4-4,4H409.1c-2.21,0-4-1.79-4-4v-25.13c0-2.21-1.79-4-4-4h-25.13c-2.21,0-4,1.79-4,4v25.13c0,2.21-1.79,4-4,4h-25.14
	c-2.21,0-4-1.79-4-4v-25.13c0-2.21-1.79-4-4-4H309.7c-2.21,0-4,1.79-4,4v25.13c0,2.21-1.79,4-4,4h-25.13c-2.21,0-4-1.79-4-4v-58.27
	c0-2.21-1.79-4-4-4h-25.14c-2.21,0-4-1.79-4-4V409.1c0-2.21,1.79-4,4-4h25.14c2.21,0,4-1.79,4-4v-25.13c0-2.21-1.79-4-4-4h-25.14
	c-2.21,0-4-1.79-4-4v-25.14c0-2.21,1.79-4,4-4h25.14c2.21,0,4-1.79,4-4V309.7c0-2.21-1.79-4-4-4h-25.14c-2.21,0-4-1.79-4-4v-58.27
	c0-2.21,1.79-4,4-4h25.14c2.21,0,4,1.79,4,4v25.14c0,2.21,1.79,4,4,4h25.13c2.21,0,4-1.79,4-4v-25.14c0-2.21,1.79-4,4-4h25.13
	c2.21,0,4,1.79,4,4v25.14c0,2.21,1.79,4,4,4h25.14c2.21,0,4-1.79,4-4v-25.14c0-2.21,1.79-4,4-4h25.13c2.21,0,4,1.79,4,4v25.14
	c0,2.21,1.79,4,4,4h25.13c2.21,0,4-1.79,4-4v-25.14c0-2.21,1.79-4,4-4h25.14c2.21,0,4,1.79,4,4v58.27c0,2.21,1.79,4,4,4h25.13
	c2.21,0,4,1.79,4,4v25.13c0,2.21-1.79,4-4,4h-25.13C473.16,338.83,471.37,340.62,471.37,342.83z"/>
<g>
	<path style="fill:#FF119A;" d="M504.5,309.7v25.13c0,2.21-1.79,4-4,4h-25.13c-2.21,0-4,1.79-4,4V301.7c0,2.21,1.79,4,4,4h25.13
		C502.71,305.7,504.5,307.49,504.5,309.7z"/>
	<path style="fill:#FF119A;" d="M504.5,375.97v25.13c0,2.21-1.79,4-4,4h-25.13c-2.21,0-4,1.79-4,4v-41.13c0,2.21,1.79,4,4,4h25.13
		C502.71,371.97,504.5,373.76,504.5,375.97z"/>
	<path style="fill:#FF119A;" d="M504.5,442.23v25.14c0,2.21-1.79,4-4,4h-29.13v-37.14c0,2.21,1.79,4,4,4h25.13
		C502.71,438.23,504.5,440.02,504.5,442.23z"/>
</g>
<g>
	<path style="fill:#FFC843;" d="M272.56,309.711v25.13c0,2.21-1.79,4-4,4h-25.13c-2.21,0-4,1.79-4,4v-41.13c0,2.21,1.79,4,4,4h25.13
		C270.77,305.711,272.56,307.501,272.56,309.711z"/>
	<path style="fill:#FFC843;" d="M272.56,375.971v25.14c0,2.21-1.79,4-4,4h-25.13c-2.21,0-4,1.79-4,4v-41.14c0,2.21,1.79,4,4,4h25.13
		C270.77,371.971,272.56,373.761,272.56,375.971z"/>
	<path style="fill:#FFC843;" d="M272.56,442.241v25.13c0,2.21-1.79,4-4,4h-29.13v-37.13c0,2.21,1.79,4,4,4h25.13
		C270.77,438.241,272.56,440.031,272.56,442.241z"/>
</g>
<path d="M500.5,114.4c6.341,0,11.5-5.159,11.5-11.5V77.767c0-6.341-5.159-11.5-11.5-11.5h-21.634v-2.642c0-4.143-3.357-7.5-7.5-7.5
	s-7.5,3.357-7.5,7.5v6.142c0,6.341,5.159,11.5,11.5,11.5H497V99.4h-21.634c-6.341,0-11.5,5.159-11.5,11.5v25.133
	c0,6.341,5.159,11.5,11.5,11.5H497v18.134h-21.634c-6.341,0-11.5,5.159-11.5,11.5V202.3c0,6.341,5.159,11.5,11.5,11.5H497v18.134
	h-29.634h-25.133c-6.341,0-11.5,5.159-11.5,11.5v21.633H412.6v-21.633c0-6.341-5.159-11.5-11.5-11.5h-25.133
	c-6.341,0-11.5,5.159-11.5,11.5v21.633h-18.134v-21.633c0-6.341-5.159-11.5-11.5-11.5H309.7c-6.341,0-11.5,5.159-11.5,11.5v21.633
	h-18.134v-21.633v-8V210.3c0-6.341-5.159-11.5-11.5-11.5h-21.633v-18.133h21.633c6.341,0,11.5-5.159,11.5-11.5v-25.134
	c0-6.341-5.159-11.5-11.5-11.5h-21.633V114.4h21.633c6.341,0,11.5-5.159,11.5-11.5V77.767c0-6.341-5.159-11.5-11.5-11.5h-21.633V15
	h18.133v21.634c0,6.341,5.159,11.5,11.5,11.5H301.7c6.341,0,11.5-5.159,11.5-11.5V15h18.133v21.634c0,6.341,5.159,11.5,11.5,11.5
	h25.134c6.341,0,11.5-5.159,11.5-11.5V15H397.6v21.634c0,6.341,5.159,11.5,11.5,11.5h25.134c6.341,0,11.5-5.159,11.5-11.5V15h18.133
	v16.625c0,4.143,3.357,7.5,7.5,7.5s7.5-3.357,7.5-7.5V11.5c0-6.341-5.159-11.5-11.5-11.5h-25.133c-6.341,0-11.5,5.159-11.5,11.5
	v21.634H412.6V11.5c0-6.341-5.159-11.5-11.5-11.5h-25.133c-6.341,0-11.5,5.159-11.5,11.5v21.634h-18.134V11.5
	c0-6.341-5.159-11.5-11.5-11.5H309.7c-6.341,0-11.5,5.159-11.5,11.5v21.634h-18.134V11.5c0-6.341-5.159-11.5-11.5-11.5h-25.133
	c-1.408,0-2.752,0.267-4,0.732c-1.248-0.465-2.592-0.732-4-0.732H210.3c-6.341,0-11.5,5.159-11.5,11.5v21.634h-18.133V11.5
	c0-6.341-5.159-11.5-11.5-11.5h-25.134c-6.341,0-11.5,5.159-11.5,11.5v21.634H114.4V11.5c0-6.341-5.159-11.5-11.5-11.5H77.767
	c-6.341,0-11.5,5.159-11.5,11.5v21.634H48.134V11.5c0-6.341-5.159-11.5-11.5-11.5H11.5C5.159,0,0,5.159,0,11.5v58.267
	c0,6.341,5.159,11.5,11.5,11.5h21.634V99.4H11.5C5.159,99.4,0,104.56,0,110.9v25.133c0,6.341,5.159,11.5,11.5,11.5h21.634v18.134
	H11.5c-6.341,0-11.5,5.159-11.5,11.5V202.3c0,6.341,5.159,11.5,11.5,11.5h21.634v18.134H11.5c-6.341,0-11.5,5.159-11.5,11.5V301.7
	c0,6.341,5.159,11.5,11.5,11.5h21.634v18.133H11.5c-6.341,0-11.5,5.159-11.5,11.5v25.134c0,6.341,5.159,11.5,11.5,11.5h21.634V397.6
	H11.5c-6.341,0-11.5,5.159-11.5,11.5v25.134c0,6.341,5.159,11.5,11.5,11.5h21.634V500.5c0,6.341,5.159,11.5,11.5,11.5h25.133
	c6.341,0,11.5-5.159,11.5-11.5v-21.634H99.4V500.5c0,6.341,5.159,11.5,11.5,11.5h25.133c6.341,0,11.5-5.159,11.5-11.5v-21.634
	h18.134V500.5c0,6.341,5.159,11.5,11.5,11.5H202.3c6.341,0,11.5-5.159,11.5-11.5v-21.634h10.075c4.143,0,7.5-3.357,7.5-7.5
	s-3.357-7.5-7.5-7.5H210.3c-6.341,0-11.5,5.159-11.5,11.5V497h-18.133v-21.634c0-6.341-5.159-11.5-11.5-11.5h-25.134
	c-6.341,0-11.5,5.159-11.5,11.5V497H114.4v-21.634c0-6.341-5.159-11.5-11.5-11.5H77.767c-6.341,0-11.5,5.159-11.5,11.5V497H48.134
	v-54.767c0-6.341-5.159-11.5-11.5-11.5H15V412.6h21.634c6.341,0,11.5-5.159,11.5-11.5v-25.133c0-6.341-5.159-11.5-11.5-11.5H15
	v-18.134h21.634c6.341,0,11.5-5.159,11.5-11.5V309.7c0-6.341-5.159-11.5-11.5-11.5H15v-51.267h18.134v21.633
	c0,6.341,5.159,11.5,11.5,11.5h25.133c6.341,0,11.5-5.159,11.5-11.5v-21.633H99.4v21.633c0,6.341,5.159,11.5,11.5,11.5h25.133
	c6.341,0,11.5-5.159,11.5-11.5v-21.633h18.134v21.633c0,6.341,5.159,11.5,11.5,11.5H202.3c6.341,0,11.5-5.159,11.5-11.5v-21.633
	h18.134v4.566c0,4.143,3.357,7.5,7.5,7.5s7.5-3.357,7.5-7.5v-4.566h18.133v21.633c0,6.341,5.159,11.5,11.5,11.5H301.7
	c6.341,0,11.5-5.159,11.5-11.5v-21.633h18.133v21.633c0,6.341,5.159,11.5,11.5,11.5h25.134c6.341,0,11.5-5.159,11.5-11.5v-21.633
	H397.6v21.633c0,6.341,5.159,11.5,11.5,11.5h25.134c6.341,0,11.5-5.159,11.5-11.5v-21.633h18.133V301.7
	c0,6.341,5.159,11.5,11.5,11.5H497v18.133h-21.634c-6.341,0-11.5,5.159-11.5,11.5v25.134c0,6.341,5.159,11.5,11.5,11.5H497V397.6
	h-21.634c-6.341,0-11.5,5.159-11.5,11.5v25.134c0,6.341,5.159,11.5,11.5,11.5H497v18.133h-54.767c-6.341,0-11.5,5.159-11.5,11.5V497
	H412.6v-21.634c0-6.341-5.159-11.5-11.5-11.5h-25.133c-6.341,0-11.5,5.159-11.5,11.5V497h-18.134v-21.634
	c0-6.341-5.159-11.5-11.5-11.5H309.7c-6.341,0-11.5,5.159-11.5,11.5V497h-18.134v-29.634v-25.133c0-6.341-5.159-11.5-11.5-11.5
	h-21.633V412.6h21.633c6.341,0,11.5-5.159,11.5-11.5v-25.133c0-6.341-5.159-11.5-11.5-11.5h-21.633v-18.134h21.633
	c6.341,0,11.5-5.159,11.5-11.5V309.7c0-6.341-5.159-11.5-11.5-11.5h-21.633v-14.575c0-4.143-3.357-7.5-7.5-7.5s-7.5,3.357-7.5,7.5
	V301.7c0,6.341,5.159,11.5,11.5,11.5h21.633v18.133h-21.633c-6.341,0-11.5,5.159-11.5,11.5v25.134c0,6.341,5.159,11.5,11.5,11.5
	h21.633V397.6h-21.633c-6.341,0-11.5,5.159-11.5,11.5v25.134c0,6.341,5.159,11.5,11.5,11.5h21.633v18.133h-8.816
	c-4.143,0-7.5,3.357-7.5,7.5s3.357,7.5,7.5,7.5h8.816V500.5c0,6.341,5.159,11.5,11.5,11.5H301.7c6.341,0,11.5-5.159,11.5-11.5
	v-21.634h18.133V500.5c0,6.341,5.159,11.5,11.5,11.5h25.134c6.341,0,11.5-5.159,11.5-11.5v-21.634H397.6V500.5
	c0,6.341,5.159,11.5,11.5,11.5h25.134c6.341,0,11.5-5.159,11.5-11.5v-21.634H500.5c6.341,0,11.5-5.159,11.5-11.5v-25.133
	c0-6.341-5.159-11.5-11.5-11.5h-21.634V412.6H500.5c6.341,0,11.5-5.159,11.5-11.5v-25.133c0-6.341-5.159-11.5-11.5-11.5h-21.634
	v-18.134H500.5c6.341,0,11.5-5.159,11.5-11.5V309.7c0-6.341-5.159-11.5-11.5-11.5h-21.634v-51.267H500.5
	c6.341,0,11.5-5.159,11.5-11.5V210.3c0-6.341-5.159-11.5-11.5-11.5h-21.634v-18.133H500.5c6.341,0,11.5-5.159,11.5-11.5v-25.134
	c0-6.341-5.159-11.5-11.5-11.5h-21.634V114.4H500.5z M243.434,231.934h-8H210.3c-6.341,0-11.5,5.159-11.5,11.5v21.633h-18.133
	v-21.633c0-6.341-5.159-11.5-11.5-11.5h-25.134c-6.341,0-11.5,5.159-11.5,11.5v21.633H114.4v-21.633c0-6.341-5.159-11.5-11.5-11.5
	H77.767c-6.341,0-11.5,5.159-11.5,11.5v21.633H48.134v-21.633V210.3c0-6.341-5.159-11.5-11.5-11.5H15v-18.133h21.634
	c6.341,0,11.5-5.159,11.5-11.5v-25.134c0-6.341-5.159-11.5-11.5-11.5H15V114.4h21.634c6.341,0,11.5-5.159,11.5-11.5V77.767
	c0-6.341-5.159-11.5-11.5-11.5H15V15h18.134v21.634c0,6.341,5.159,11.5,11.5,11.5h25.133c6.341,0,11.5-5.159,11.5-11.5V15H99.4
	v21.634c0,6.341,5.159,11.5,11.5,11.5h25.133c6.341,0,11.5-5.159,11.5-11.5V15h18.134v21.634c0,6.341,5.159,11.5,11.5,11.5H202.3
	c6.341,0,11.5-5.159,11.5-11.5V15h18.134v54.767c0,6.341,5.159,11.5,11.5,11.5h21.633V99.4h-21.633c-6.341,0-11.5,5.159-11.5,11.5
	v25.133c0,6.341,5.159,11.5,11.5,11.5h21.633v18.134h-21.633c-6.341,0-11.5,5.159-11.5,11.5V202.3c0,6.341,5.159,11.5,11.5,11.5
	h21.633v18.134H243.434z"/>
<g>
</g>
<g>
</g>
<g>
</g>
<g>
</g>
<g>
</g>
<g>
</g>
<g>
</g>
<g>
</g>
<g>
</g>
<g>
</g>
<g>
</g>
<g>
</g>
<g>
</g>
<g>
</g>
<g>
</g>
</svg>
