<?xml version="1.0" encoding="iso-8859-1"?>
<!-- Generator: Adobe Illustrator 19.0.0, SVG Export Plug-In . SVG Version: 6.00 Build 0)  -->
<svg version="1.1" id="Capa_1" xmlns="http://www.w3.org/2000/svg" xmlns:xlink="http://www.w3.org/1999/xlink" x="0px" y="0px"
	 viewBox="0 0 512 512" style="enable-background:new 0 0 512 512;" xml:space="preserve">
<path style="fill:#686370;" d="M271,474.5h-30v-407c0-8.284,6.716-15,15-15l0,0c8.284,0,15,6.716,15,15V474.5z"/>
<path style="fill:#A96458;" d="M489.5,504.5h-467c-8.284,0-15-6.716-15-15l0,0c0-8.284,6.716-15,15-15h467c8.284,0,15,6.716,15,15
	l0,0C504.5,497.784,497.784,504.5,489.5,504.5z"/>
<path style="fill:#895C62;" d="M489.5,474.5h-30c8.284,0,15,6.716,15,15s-6.716,15-15,15h30c8.284,0,15-6.716,15-15
	S497.784,474.5,489.5,474.5z"/>
<path style="fill:#55A1FB;" d="M433.133,278.002H81.113c-8.279,0-14.99-6.711-14.99-14.99v-0.02c0-8.279,6.711-14.99,14.99-14.99
	h352.02c8.279,0,14.99,6.711,14.99,14.99v0.02C448.123,271.291,441.412,278.002,433.133,278.002z"/>
<path style="fill:#4A8BD9;" d="M433.123,248.002h-30c8.284,0,15,6.716,15,15c0,8.284-6.716,15-15,15h30c8.284,0,15-6.716,15-15
	C448.123,254.718,441.408,248.002,433.123,248.002z"/>
<path style="fill:#FFDC5A;" d="M206.635,70.191c-1.692,2.293,0.198,5.309,3.327,5.309h92.076c3.161,0,5.045-3.07,3.289-5.36
	L259.369,9.068c-1.573-2.091-5.164-2.091-6.737,0L206.635,70.191z"/>
<path style="fill:#FFC843;" d="M305.327,70.14L259.369,9.068c-1.573-2.091-5.164-2.091-6.737,0L241,24.525l34.327,45.615
	c1.756,2.29-0.128,5.36-3.289,5.36h30C305.199,75.5,307.083,72.43,305.327,70.14z"/>
<rect x="221" y="408.5" style="fill:#FF44AF;" width="70" height="66"/>
<rect x="261" y="408.5" style="fill:#FF119A;" width="30" height="66"/>
<path d="M489.5,467h-191v-58.5c0-3.56-2.481-6.533-5.807-7.301l0,0c0.084-0.07-0.082,0.073,0,0l129.173-115.697h11.267
	c12.401,0,22.49-10.089,22.49-22.51c0-12.401-10.089-22.49-22.49-22.49h-10.254L309.438,80.432c1.226-0.993,2.244-2.244,2.965-3.706
	c1.793-3.637,1.362-7.909-1.082-11.096l-45.96-61.071C263.213,1.704,259.714,0,256,0s-7.213,1.704-9.36,4.559l-20.92,27.799
	c-2.491,3.31-1.827,8.012,1.482,10.502c3.313,2.493,8.013,1.827,10.502-1.482L256,17.065L294.33,68h-76.659
	c2.48-3.309,1.813-8.003-1.492-10.49c-3.312-2.493-8.013-1.827-10.502,1.482l-5.076,6.745c-2.399,3.251-2.767,7.496-0.958,11.078
	c0.718,1.422,1.719,2.642,2.921,3.615L89.121,240.502h-8.008c-12.401,0-22.49,10.089-22.49,22.51c0,12.401,10.089,22.49,22.49,22.49
	h9.021l129.089,115.627c0.082,0.073,0,0,0.084,0.069l0,0c-3.326,0.768-5.807,3.742-5.807,7.301v15.125c0,4.143,3.357,7.5,7.5,7.5
	s7.5-3.357,7.5-7.5V416l0,0c0.014,0-0.014,0,0,0h55c0.005,0,0,0,0.005,0s0,0,0.005,0h-0.01v51l0,0h-55l0,0v-11.375
	c0-4.143-3.357-7.5-7.5-7.5s-7.5,3.357-7.5,7.5V467h-191C10.094,467,0,477.094,0,489.5S10.094,512,22.5,512h467
	c12.406,0,22.5-10.094,22.5-22.5S501.906,467,489.5,467z M251.952,401l-3.452-6.3v-31.855h15V394.7l-3.452,6.3H251.952z
	 M329.787,347.845h-23.508l14.829-27.062h38.89L329.787,347.845z M298.06,362.845h14.97l-29.4,26.333L298.06,362.845z
	 M278.5,367.326v-4.481h2.456L278.5,367.326z M289.176,347.845H278.5v-27.062h25.505L289.176,347.845z M263.5,285.502v20.281h-15
	v-20.281H263.5z M263.5,320.783v27.062h-15v-27.062H263.5z M278.5,305.783v-20.281h44.838l-11.114,20.281H278.5z M233.5,285.502
	v20.281h-33.724l-11.114-20.281H233.5z M233.5,320.783v27.062h-10.676l-14.829-27.062H233.5z M233.5,362.845v4.481l-2.456-4.481
	H233.5z M205.721,347.845h-23.508l-30.21-27.062h38.889L205.721,347.845z M213.94,362.845l14.43,26.333l-29.4-26.333H213.94z
	 M200.662,199.925H233.5V240.5h-46.951L200.662,199.925z M183.223,133.662h24.606l-17.83,51.263h-43.105L183.223,133.662z
	 M225.45,83l-12.404,35.662h-19.193L219.127,83H225.45z M292.873,83l25.273,35.662h-19.193L286.55,83H292.873z M325.451,240.5H278.5
	v-40.575h32.838L325.451,240.5z M263.5,199.925V240.5h-15v-40.575H263.5z M248.5,184.925v-51.263h15v51.263H248.5z M278.5,184.925
	v-51.263h9.79l17.831,51.263H278.5z M278.5,118.662v-13.145l4.572,13.145H278.5z M304.171,133.662h24.606l36.329,51.263h-43.105
	L304.171,133.662z M263.5,118.662h-15V83h15V118.662z M233.5,118.662h-4.572l4.572-13.145V118.662z M223.71,133.662h9.79v51.263
	h-27.62L223.71,133.662z M341.332,240.5l-14.113-40.575h48.518l28.755,40.575H341.332z M136.263,199.925h48.518L170.668,240.5
	h-63.16L136.263,199.925z M73.623,262.992c0-4.13,3.36-7.49,7.49-7.49h352.02c4.13,0,7.49,3.36,7.49,7.51
	c0,4.13-3.36,7.49-7.49,7.49h-48.8c-4.143,0-7.5,3.357-7.5,7.5s3.357,7.5,7.5,7.5h15.051l-22.641,20.281h-47.415l11.113-20.281
	h11.392c4.143,0,7.5-3.357,7.5-7.5s-3.357-7.5-7.5-7.5l0,0c-0.013,0,0.013,0,0,0H81.105h0.009c-0.009,0,0,0-0.009,0h0.009
	C76.983,270.502,73.623,267.142,73.623,262.992z M171.559,285.502l11.113,20.281h-47.414l-22.641-20.281H171.559z M489.5,482
	c4.136,0,7.5,3.364,7.5,7.5s-3.364,7.5-7.5,7.5h-467c-4.136,0-7.5-3.364-7.5-7.5s3.364-7.5,7.5-7.5H489.5"/>
<g>
</g>
<g>
</g>
<g>
</g>
<g>
</g>
<g>
</g>
<g>
</g>
<g>
</g>
<g>
</g>
<g>
</g>
<g>
</g>
<g>
</g>
<g>
</g>
<g>
</g>
<g>
</g>
<g>
</g>
</svg>
