<?xml version="1.0" encoding="iso-8859-1"?>
<!-- Generator: Adobe Illustrator 19.0.0, SVG Export Plug-In . SVG Version: 6.00 Build 0)  -->
<svg version="1.1" id="Capa_1" xmlns="http://www.w3.org/2000/svg" xmlns:xlink="http://www.w3.org/1999/xlink" x="0px" y="0px"
	 viewBox="0 0 512 512" style="enable-background:new 0 0 512 512;" xml:space="preserve">
<g>
	<path style="fill:#55A1FB;" d="M62,384.5H32V173.483c0-8.275,6.708-14.983,14.983-14.983h0.033c8.275,0,14.983,6.708,14.983,14.983
		L62,384.5L62,384.5z"/>
	<path style="fill:#55A1FB;" d="M480,384.5h-30V173.483c0-8.275,6.708-14.983,14.983-14.983h0.033
		c8.275,0,14.983,6.708,14.983,14.983V384.5H480z"/>
</g>
<path style="fill:#A96458;" d="M489.5,414.5h-467c-8.284,0-15-6.716-15-15l0,0c0-8.284,6.716-15,15-15h467c8.284,0,15,6.716,15,15
	l0,0C504.5,407.784,497.784,414.5,489.5,414.5z"/>
<path style="fill:#895C62;" d="M489.5,384.5h-30c8.284,0,15,6.716,15,15s-6.716,15-15,15h30c8.284,0,15-6.716,15-15
	S497.784,384.5,489.5,384.5z"/>
<path style="fill:#2CE565;" d="M256,274L256,274c-20.435,0-37-16.565-37-37v-93h74v93C293,257.435,276.435,274,256,274z"/>
<path style="fill:#25C799;" d="M263,144v93c0,15.093-9.042,28.066-22,33.822c4.586,2.037,9.658,3.178,15,3.178l0,0
	c20.435,0,37-16.565,37-37v-93H263z"/>
<g>
	<path style="fill:#FF44AF;" d="M131.778,271h-0.556C113.15,271,98.5,256.35,98.5,238.278V157h66v81.278
		C164.5,256.35,149.85,271,131.778,271z"/>
	<path style="fill:#FF44AF;" d="M380.778,271h-0.556c-18.072,0-32.722-14.65-32.722-32.722V157h66v81.278
		C413.5,256.35,398.85,271,380.778,271z"/>
</g>
<g>
	<path style="fill:#FF119A;" d="M384.028,157v81.278c0,12.88-7.445,24.017-18.264,29.355c4.36,2.152,9.267,3.366,14.458,3.366h0.556
		c18.072,0,32.722-14.65,32.722-32.722V157H384.028z"/>
	<path style="fill:#FF119A;" d="M134.896,157v81.278c0,12.88-7.445,24.017-18.264,29.355c4.36,2.152,9.267,3.366,14.458,3.366h0.556
		c18.072,0,32.722-14.65,32.722-32.722V157H134.896z"/>
</g>
<circle style="fill:#FFDC5A;" cx="256" cy="152.5" r="55"/>
<path style="fill:#FFC843;" d="M256,97.5c-5.203,0-10.23,0.738-15,2.088c23.082,6.531,40,27.739,40,52.912s-16.918,46.381-40,52.912
	c4.77,1.35,9.797,2.088,15,2.088c30.376,0,55-24.624,55-55S286.376,97.5,256,97.5z"/>
<circle style="fill:#FFDC5A;" cx="131.5" cy="156.5" r="46"/>
<path style="fill:#FFC843;" d="M131.5,110.5c-5.254,0-10.297,0.893-15,2.515c18.037,6.221,31,23.334,31,43.485
	s-12.963,37.264-31,43.485c4.703,1.622,9.746,2.515,15,2.515c25.405,0,46-20.595,46-46S156.905,110.5,131.5,110.5z"/>
<circle style="fill:#FFDC5A;" cx="380.5" cy="156.5" r="46"/>
<path style="fill:#FFC843;" d="M380.5,110.5c-5.156,0-10.108,0.861-14.736,2.426c18.174,6.145,31.264,23.325,31.264,43.574
	s-13.089,37.429-31.264,43.574c4.628,1.564,9.58,2.426,14.736,2.426c25.405,0,46-20.595,46-46S405.905,110.5,380.5,110.5z"/>
<path d="M489.5,377h-2v-25.333c0-4.143-3.357-7.5-7.5-7.5s-7.5,3.357-7.5,7.5V377h-15V173.483c0-4.126,3.357-7.483,7.517-7.483
	c4.126,0,7.483,3.357,7.483,7.483V319c0,4.143,3.357,7.5,7.5,7.5s7.5-3.357,7.5-7.5V173.483c0-12.397-10.086-22.483-22.517-22.483
	c-12.397,0-22.483,10.086-22.483,22.483v3.536h-12.598c2.636-6.323,4.098-13.253,4.098-20.52c0-29.5-24-53.5-53.5-53.5
	S327,127,327,156.5c0,7.267,1.462,14.197,4.098,20.52h-17.615c3.225-7.533,5.017-15.82,5.017-24.52c0-34.463-28.037-62.5-62.5-62.5
	c-34.462,0-62.5,28.037-62.5,62.5c0,8.699,1.791,16.987,5.017,24.52h-17.615c2.636-6.323,4.098-13.253,4.098-20.52
	c0-29.5-24-53.5-53.5-53.5S78,127,78,156.5c0,7.267,1.462,14.197,4.098,20.52H69.5v-3.536C69.5,161.086,59.414,151,46.983,151
	C34.586,151,24.5,161.086,24.5,173.483V191.5c0,4.143,3.358,7.5,7.5,7.5s7.5-3.357,7.5-7.5v-18.017c0-4.126,3.357-7.483,7.517-7.483
	c4.126,0,7.483,3.357,7.483,7.483V377h-15V223.5c0-4.143-3.358-7.5-7.5-7.5s-7.5,3.357-7.5,7.5V377h-2C10.093,377,0,387.094,0,399.5
	S10.093,422,22.5,422h467c12.406,0,22.5-10.094,22.5-22.5S501.906,377,489.5,377z M355,203.522c7.585,4.13,16.273,6.478,25.5,6.478
	s17.915-2.348,25.5-6.478v34.758c0,13.906-11.313,25.22-25.22,25.22h-0.561c-13.906,0-25.22-11.313-25.22-25.22v-34.758H355z
	 M380.5,118c21.229,0,38.5,17.271,38.5,38.5S401.729,195,380.5,195S342,177.729,342,156.5S359.271,118,380.5,118z M226.5,207.582
	C235.293,212.31,245.337,215,256,215s20.708-2.689,29.5-7.417V237c0,16.267-13.233,29.5-29.5,29.5c-16.266,0-29.5-13.233-29.5-29.5
	V207.582z M256,105c26.191,0,47.5,21.309,47.5,47.5S282.191,200,256,200s-47.5-21.309-47.5-47.5S229.809,105,256,105z M106,203.522
	c7.585,4.13,16.273,6.478,25.5,6.478s17.915-2.348,25.5-6.478v34.758c0,13.906-11.314,25.22-25.22,25.22h-0.56
	c-13.906,0-25.22-11.313-25.22-25.22V203.522z M131.5,118c21.229,0,38.5,17.271,38.5,38.5S152.729,195,131.5,195
	S93,177.729,93,156.5S110.271,118,131.5,118z M489.5,407h-467c-4.136,0-7.5-3.364-7.5-7.5s3.364-7.5,7.5-7.5l0,0H96l0,0
	c4.142,0,7.5-3.357,7.5-7.5s-3.358-7.5-7.5-7.5H69.5V192.02H91v46.261c0,22.177,18.042,40.22,40.22,40.22h0.56
	c22.178,0,40.22-18.043,40.22-40.22V192.02h35.622c1.225,1.498,2.521,2.934,3.878,4.312V237c0,24.537,19.962,44.5,44.5,44.5
	c24.537,0,44.5-19.963,44.5-44.5v-40.669c1.357-1.377,2.653-2.814,3.878-4.312H340v46.261c0,22.177,18.043,40.22,40.22,40.22h0.561
	c22.177,0,40.22-18.043,40.22-40.22v-46.26h21.5V377H128c-4.142,0-7.5,3.357-7.5,7.5s3.358,7.5,7.5,7.5h361.5l0,0l0,0
	c4.136,0,7.5,3.364,7.5,7.5S493.636,407,489.5,407z"/>
<g>
</g>
<g>
</g>
<g>
</g>
<g>
</g>
<g>
</g>
<g>
</g>
<g>
</g>
<g>
</g>
<g>
</g>
<g>
</g>
<g>
</g>
<g>
</g>
<g>
</g>
<g>
</g>
<g>
</g>
</svg>
