<?xml version="1.0" encoding="iso-8859-1"?>
<!-- Generator: Adobe Illustrator 19.0.0, SVG Export Plug-In . SVG Version: 6.00 Build 0)  -->
<svg version="1.1" id="Capa_1" xmlns="http://www.w3.org/2000/svg" xmlns:xlink="http://www.w3.org/1999/xlink" x="0px" y="0px"
	 viewBox="0 0 512 512" style="enable-background:new 0 0 512 512;" xml:space="preserve">
<path style="fill:#FF44AF;" d="M256,402.5c-108.902,0-197.5-88.599-197.5-197.5S147.098,7.5,256,7.5S453.5,96.099,453.5,205
	S364.902,402.5,256,402.5z M256,37.5c-92.36,0-167.5,75.141-167.5,167.5S163.64,372.5,256,372.5S423.5,297.359,423.5,205
	S348.36,37.5,256,37.5z"/>
<path style="fill:#A96458;" d="M489.5,504.5h-467c-8.284,0-15-6.716-15-15l0,0c0-8.284,6.716-15,15-15h467c8.284,0,15,6.716,15,15
	l0,0C504.5,497.784,497.784,504.5,489.5,504.5z"/>
<path style="fill:#895C62;" d="M489.5,474.5h-30c8.284,0,15,6.716,15,15s-6.716,15-15,15h30c8.284,0,15-6.716,15-15
	S497.784,474.5,489.5,474.5z"/>
<rect x="186" y="432.5" style="fill:#FF44AF;" width="140" height="42"/>
<rect x="226" y="402.5" style="fill:#686370;" width="60" height="30"/>
<rect x="296" y="432.5" style="fill:#FF119A;" width="30" height="42"/>
<rect x="256" y="402.5" style="fill:#56525B;" width="30" height="30"/>
<path style="fill:#27EEFF;" d="M256,402.5c-38.426,0-74.151-21.305-100.593-59.988c-25.249-36.938-39.154-85.774-39.154-137.512
	s13.905-100.573,39.154-137.512C181.849,28.805,217.574,7.5,256,7.5s74.151,21.305,100.593,59.988
	c25.249,36.938,39.154,85.774,39.154,137.512s-13.905,100.573-39.154,137.512C330.151,381.195,294.426,402.5,256,402.5z M256,37.5
	c-28.216,0-55.145,16.662-75.826,46.918C158.3,116.419,146.253,159.242,146.253,205s12.047,88.581,33.921,120.582
	C200.855,355.838,227.784,372.5,256,372.5s55.145-16.662,75.826-46.918C353.7,293.581,365.747,250.758,365.747,205
	S353.7,116.419,331.826,84.418C311.145,54.162,284.216,37.5,256,37.5z"/>
<path style="fill:#55A1FB;" d="M256,402.5c-8.554,0-21.254-3.606-33.183-20.787c-7.302-10.517-13.73-25.132-19.107-43.439
	C193.196,302.47,187.405,255.139,187.405,205s5.791-97.47,16.305-133.273c5.376-18.308,11.805-32.923,19.107-43.439
	C234.746,11.106,247.446,7.5,256,7.5c8.554,0,21.254,3.606,33.183,20.787c7.302,10.517,13.73,25.132,19.107,43.439
	c10.515,35.804,16.305,83.135,16.305,133.273s-5.791,97.47-16.305,133.273c-5.376,18.308-11.805,32.923-19.107,43.439
	C277.254,398.894,264.554,402.5,256,402.5z M256,37.5c-2.177,0-13.202,7.595-23.505,42.68c-9.731,33.135-15.09,77.464-15.09,124.82
	s5.359,91.686,15.09,124.82c10.303,35.085,21.328,42.68,23.505,42.68s13.202-7.595,23.505-42.68
	c9.731-33.135,15.09-77.464,15.09-124.82s-5.359-91.686-15.09-124.82C269.202,45.095,258.177,37.5,256,37.5z"/>
<path style="fill:#686370;" d="M451,220H61c-8.284,0-15-6.716-15-15s6.716-15,15-15h390c8.284,0,15,6.716,15,15S459.284,220,451,220
	z"/>
<path style="fill:#56525B;" d="M451,190h-30c8.284,0,15,6.716,15,15s-6.716,15-15,15h30c8.284,0,15-6.716,15-15S459.284,190,451,190
	z"/>
<path d="M489.5,467h-156v-34.5c0-4.143-3.358-7.5-7.5-7.5h-32.5v-18.465c38.299-7.11,73.932-25.053,102.82-52.215
	c36.24-34.076,58.709-79.602,63.639-128.684c7.961-3.47,13.541-11.411,13.541-20.634s-5.581-17.165-13.541-20.634
	c-4.929-49.082-27.399-94.609-63.639-128.684c-37.672-35.423-86.813-55.188-138.383-55.66c-0.336-0.009-0.672-0.011-1.009-0.011
	c-0.013,0-0.025,0-0.038,0c-0.624-0.018-1.272-0.016-1.791,0c-0.009,0-0.018,0-0.027,0c-0.36,0-0.712,0.002-0.991,0.01
	c-0.006,0-0.012,0-0.017,0c-51.57,0.472-100.711,20.237-138.383,55.66c-36.24,34.075-58.709,79.602-63.639,128.684
	c-7.961,3.47-13.541,11.411-13.541,20.634c0,9.223,5.581,17.165,13.541,20.634c4.929,49.082,27.399,94.609,63.639,128.684
	c28.887,27.162,64.521,45.105,102.82,52.215v18.465H186c-4.142,0-7.5,3.357-7.5,7.5V467H84.333c-4.142,0-7.5,3.357-7.5,7.5
	s3.358,7.5,7.5,7.5l0,0H489.5l0,0c4.136,0,7.5,3.364,7.5,7.5s-3.364,7.5-7.5,7.5h-467c-4.136,0-7.5-3.364-7.5-7.5s3.364-7.5,7.5-7.5
	H52c4.142,0,7.5-3.357,7.5-7.5S56.142,467,52,467H22.5C10.093,467,0,477.094,0,489.5S10.093,512,22.5,512h467
	c12.407,0,22.5-10.094,22.5-22.5S501.907,467,489.5,467z M61,212.502c-4.136,0-7.5-3.364-7.5-7.5s3.364-7.5,7.5-7.5h390
	c4.136,0,7.5,3.364,7.5,7.5s-3.364,7.5-7.5,7.5H284.25c-4.142,0-7.5,3.357-7.5,7.5s3.358,7.5,7.5,7.5h2.425
	c-1.42,37.985-6.472,73.323-14.372,100.207c-6.538,22.272-12.998,31.849-16.304,35.601c-3.306-3.752-9.766-13.33-16.304-35.603
	c-7.899-26.882-12.951-62.221-14.371-100.205h26.55c4.142,0,7.5-3.357,7.5-7.5s-3.358-7.5-7.5-7.5H61z M256.478,15.007
	c0.044,0.001,0.081,0.001,0.13,0.002c9.476,0.256,18.609,6.329,26.413,17.561c4.276,6.156,8.3,13.985,11.959,23.265
	c2.168,5.517,4.226,11.576,6.115,18.011c8.649,29.45,14.132,67.784,15.591,108.656h-15.001
	c-1.433-39.855-6.585-75.835-14.988-104.432C276.294,42.63,264.019,30.003,256,30.003s-20.294,12.627-30.696,48.065
	c-8.403,28.599-13.555,64.579-14.988,104.434h-15.001c1.458-40.872,6.942-79.206,15.591-108.657
	c1.889-6.434,3.946-12.493,6.111-18.002c3.662-9.287,7.687-17.116,11.962-23.271c7.804-11.233,16.938-17.307,26.481-17.564
	c0.18-0.005,0.359-0.003,0.539-0.005C256.16,15.002,256.319,15.003,256.478,15.007z M402.385,182.502
	c-1.785-23.246-6.301-45.52-13.354-66.165c13.221,19.829,22.001,42.485,25.38,66.165H402.385z M355.049,78.894
	c18.064,29.248,29.164,64.926,32.294,103.608h-15.069c-3.307-39.004-15.081-74.254-34.25-102.31
	c-8.873-12.991-18.932-23.708-29.919-31.894c-3.873-9.481-8.159-17.654-12.764-24.284c-0.19-0.274-0.382-0.534-0.573-0.802
	c20.892,9.102,39.963,25.586,55.634,48.518C352,74.066,353.561,76.471,355.049,78.894z M331.691,182.502
	c-1.335-38.882-6.07-74.541-13.804-104.152c2.674,3.225,5.261,6.659,7.75,10.304c17.24,25.23,28.323,58.307,31.573,93.848H331.691z
	 M286.675,182.502h-61.35c1.42-37.985,6.472-73.323,14.372-100.207c6.538-22.272,12.998-31.849,16.304-35.601
	c3.306,3.752,9.766,13.33,16.304,35.603C280.203,109.179,285.255,144.517,286.675,182.502z M217.224,23.225
	c-0.188,0.264-0.376,0.52-0.564,0.79c-4.605,6.628-8.889,14.799-12.765,24.284c-10.987,8.186-21.046,18.903-29.919,31.894
	c-3.612,5.287-7.018,10.938-10.125,16.797c-1.94,3.659-0.546,8.198,3.113,10.139c1.12,0.594,2.322,0.876,3.507,0.876
	c2.687,0,5.286-1.449,6.633-3.989c2.845-5.365,5.959-10.534,9.258-15.361c2.489-3.645,5.076-7.078,7.749-10.303
	c-7.734,29.611-12.469,65.27-13.804,104.152h-25.533c1.667-18.43,5.386-36.059,11.085-52.508c1.356-3.914-0.718-8.186-4.632-9.542
	c-3.912-1.354-8.186,0.718-9.542,4.632c-6.237,18.002-10.247,37.287-11.961,57.418h-15.068
	c3.13-38.682,14.231-74.361,32.303-103.624c1.479-2.406,3.039-4.812,4.642-7.153C177.263,48.808,196.321,32.33,217.224,23.225z
	 M109.615,182.502H97.589c3.379-23.68,12.159-46.337,25.381-66.167C115.916,136.982,111.4,159.256,109.615,182.502z M357.21,227.502
	c-3.249,35.541-14.333,68.618-31.574,93.849c-2.489,3.645-5.076,7.078-7.749,10.303c7.734-29.611,12.469-65.27,13.804-104.152
	L357.21,227.502L357.21,227.502z M294.776,386.779c0.188-0.264,0.376-0.52,0.564-0.79c4.605-6.628,8.889-14.799,12.765-24.284
	c10.987-8.186,21.046-18.903,29.918-31.893c19.17-28.056,30.944-63.307,34.251-102.311h15.069
	c-3.13,38.682-14.231,74.361-32.303,103.624c-1.479,2.406-3.039,4.811-4.642,7.153C334.737,361.196,315.679,377.673,294.776,386.779
	z M402.385,227.502h12.026c-3.379,23.68-12.159,46.337-25.381,66.167C396.084,273.022,400.6,250.747,402.385,227.502z
	 M180.309,227.502c1.335,38.882,6.07,74.541,13.804,104.152c-2.674-3.225-5.261-6.659-7.75-10.304
	c-17.24-25.23-28.323-58.307-31.573-93.848L180.309,227.502L180.309,227.502z M109.615,227.502
	c1.785,23.246,6.301,45.52,13.354,66.165c-13.221-19.829-22.001-42.485-25.38-66.165L109.615,227.502L109.615,227.502z
	 M156.951,331.109c-18.064-29.248-29.164-64.926-32.294-103.608h15.069c3.307,39.004,15.081,74.254,34.25,102.31
	c8.873,12.991,18.932,23.708,29.919,31.894c3.873,9.481,8.159,17.653,12.764,24.284c0.19,0.274,0.382,0.534,0.573,0.802
	c-20.892-9.102-39.963-25.586-55.634-48.518C160,335.938,158.439,333.532,156.951,331.109z M255.522,394.996
	c-0.044-0.001-0.081-0.001-0.13-0.002c-9.476-0.256-18.609-6.329-26.413-17.561c-4.276-6.156-8.3-13.985-11.959-23.265
	c-2.168-5.517-4.226-11.576-6.115-18.011c-8.649-29.45-14.132-67.784-15.591-108.656h15.001
	c1.433,39.854,6.585,75.835,14.988,104.432C235.705,367.373,247.98,380,255.999,380s20.294-12.627,30.696-48.065
	c8.403-28.599,13.555-64.579,14.988-104.434h15.001c-1.458,40.872-6.942,79.206-15.591,108.657
	c-1.889,6.434-3.946,12.493-6.111,18.002c-3.662,9.287-7.687,17.116-11.962,23.271c-7.804,11.233-16.938,17.307-26.481,17.564
	c-0.178,0.007-0.357,0.006-0.539,0.005C255.839,395,255.681,395,255.522,394.996z M386.045,343.393
	c-14.75,13.869-31.401,25.137-49.312,33.572c9.392-8.538,18.132-18.637,26.046-30.218c1.502-2.194,2.96-4.445,4.362-6.693
	c34.253-28.235,56.718-68.879,62.396-112.552h15.126C439.426,271.693,418.807,312.587,386.045,343.393z M444.664,182.502h-15.126
	c-5.679-43.675-28.145-84.318-62.398-112.554c-1.406-2.254-2.861-4.502-4.357-6.687c-7.915-11.582-16.656-21.682-26.046-30.221
	c17.909,8.435,34.56,19.703,49.309,33.571C418.807,97.417,439.426,138.311,444.664,182.502z M125.955,66.611
	c14.75-13.869,31.401-25.136,49.312-33.572c-9.392,8.538-18.132,18.637-26.046,30.218c-1.502,2.194-2.96,4.445-4.362,6.694
	c-34.253,28.235-56.718,68.878-62.396,112.552H67.336C72.574,138.311,93.193,97.417,125.955,66.611z M67.336,227.502h15.126
	c5.679,43.675,28.145,84.318,62.398,112.554c1.406,2.254,2.861,4.502,4.357,6.687c7.915,11.582,16.656,21.682,26.046,30.221
	c-17.909-8.436-34.56-19.703-49.309-33.571C93.193,312.587,72.574,271.693,67.336,227.502z M233.5,410.001h45v15h-45V410.001z
	 M193.5,467v-27l0,0h125l0,0v27H193.5z"/>
<g>
</g>
<g>
</g>
<g>
</g>
<g>
</g>
<g>
</g>
<g>
</g>
<g>
</g>
<g>
</g>
<g>
</g>
<g>
</g>
<g>
</g>
<g>
</g>
<g>
</g>
<g>
</g>
<g>
</g>
</svg>
