<?xml version="1.0" encoding="iso-8859-1"?>
<!-- Generator: Adobe Illustrator 19.0.0, SVG Export Plug-In . SVG Version: 6.00 Build 0)  -->
<svg version="1.1" id="Capa_1" xmlns="http://www.w3.org/2000/svg" xmlns:xlink="http://www.w3.org/1999/xlink" x="0px" y="0px"
	 viewBox="0 0 512 512" style="enable-background:new 0 0 512 512;" xml:space="preserve">
<rect x="69" y="61.22" style="fill:#686370;" width="374" height="30"/>
<rect x="413" y="61.22" style="fill:#56525B;" width="30" height="30"/>
<g>
	<path style="fill:#CE7A56;" d="M69,439.5H39v-382c0-8.284,6.716-15,15-15l0,0c8.284,0,15,6.716,15,15V439.5z"/>
	<path style="fill:#CE7A56;" d="M473,439.5h-30v-382c0-8.284,6.716-15,15-15l0,0c8.284,0,15,6.716,15,15V439.5z"/>
</g>
<path style="fill:#A96458;" d="M489.5,469.5h-467c-8.284,0-15-6.716-15-15l0,0c0-8.284,6.716-15,15-15h467c8.284,0,15,6.716,15,15
	l0,0C504.5,462.784,497.784,469.5,489.5,469.5z"/>
<path style="fill:#895C62;" d="M489.5,439.5h-30c8.284,0,15,6.716,15,15s-6.716,15-15,15h30c8.284,0,15-6.716,15-15
	S497.784,439.5,489.5,439.5z"/>
<path style="fill:#FF44AF;" d="M166.425,98h-36c-2.209,0-4-1.791-4-4V58c0-2.209,1.791-4,4-4h36c2.209,0,4,1.791,4,4v36
	C170.425,96.209,168.634,98,166.425,98z"/>
<path style="fill:#2CE565;" d="M274,98h-36c-2.209,0-4-1.791-4-4V58c0-2.209,1.791-4,4-4h36c2.209,0,4,1.791,4,4v36
	C278,96.209,276.209,98,274,98z"/>
<path style="fill:#FFDC5A;" d="M382.391,98h-36c-2.209,0-4-1.791-4-4V58c0-2.209,1.791-4,4-4h36c2.209,0,4,1.791,4,4v36
	C386.391,96.209,384.6,98,382.391,98z"/>
<path d="M489.5,432h-9v-16c0-4.143-3.358-7.5-7.5-7.5s-7.5,3.357-7.5,7.5v16h-15V57.5l0,0l0,0c0-4.136,3.364-7.5,7.5-7.5
	s7.5,3.364,7.5,7.5v326.167c0,4.143,3.358,7.5,7.5,7.5s7.5-3.357,7.5-7.5V57.5c0-12.406-10.093-22.5-22.5-22.5
	c-11.118,0-20.372,8.108-22.176,18.72h-42.768c-1.702-4.226-5.837-7.22-10.665-7.22h-36c-4.828,0-8.963,2.994-10.665,7.22h-51.061
	c-1.702-4.226-5.837-7.22-10.665-7.22h-36c-4.828,0-8.963,2.994-10.665,7.22H177.09c-1.702-4.226-5.837-7.22-10.665-7.22h-36
	c-4.828,0-8.963,2.994-10.665,7.22H76.176C74.372,43.108,65.118,35,54,35c-12.407,0-22.5,10.094-22.5,22.5v38.167
	c0,4.143,3.358,7.5,7.5,7.5s7.5-3.357,7.5-7.5V57.5c0-4.136,3.364-7.5,7.5-7.5s7.5,3.364,7.5,7.5l0,0l0,0V432h-15V127.833
	c0-4.143-3.358-7.5-7.5-7.5s-7.5,3.357-7.5,7.5V432h-9C10.093,432,0,442.094,0,454.5S10.093,477,22.5,477h72.833
	c4.142,0,7.5-3.357,7.5-7.5s-3.358-7.5-7.5-7.5H22.5c-4.136,0-7.5-3.364-7.5-7.5s3.364-7.5,7.5-7.5l0,0l0,0h467l0,0l0,0
	c4.136,0,7.5,3.364,7.5,7.5s-3.364,7.5-7.5,7.5H128.667c-4.142,0-7.5,3.357-7.5,7.5s3.358,7.5,7.5,7.5H489.5
	c12.407,0,22.5-10.094,22.5-22.5S501.907,432,489.5,432z M435.5,83.72h-41.609v-15H435.5V83.72z M349.891,61.5h29v29h-29V61.5z
	 M285.5,83.72v-15h49.391v15H285.5z M270.5,90.5h-29v-29h29V90.5z M177.925,83.72v-15H226.5v15H177.925z M133.925,61.5h29v29h-29
	V61.5z M76.5,83.72v-15h42.425v15H76.5z M76.5,98.72h43.45c1.806,3.991,5.817,6.78,10.475,6.78h10.495v30.82h-12.618
	c-5.629,0-10.398,4.029-11.338,9.581l-7.959,46.999c-0.567,3.345,0.364,6.749,2.553,9.341c2.19,2.593,5.392,4.079,8.785,4.079
	h54.531c3.393,0,6.594-1.486,8.784-4.078c2.189-2.591,3.121-5.996,2.554-9.341l-7.959-46.999c-0.939-5.553-5.708-9.582-11.339-9.582
	H155.92V105.5h10.505c4.658,0,8.669-2.789,10.475-6.78h50.625c1.806,3.991,5.817,6.78,10.475,6.78h10.5v30.82h-11.806
	c-5.631,0-10.399,4.029-11.338,9.581l-7.959,46.999c-0.567,3.345,0.364,6.749,2.553,9.341c2.19,2.593,5.392,4.079,8.785,4.079
	h54.531c3.393,0,6.595-1.486,8.785-4.079c2.189-2.592,3.12-5.996,2.553-9.34l-7.959-46.999c-0.939-5.553-5.708-9.582-11.339-9.582
	H263.5V105.5H274c4.658,0,8.669-2.789,10.475-6.78h51.441c1.806,3.991,5.817,6.78,10.475,6.78h10.499v30.82h-11.805
	c-5.631,0-10.399,4.029-11.338,9.581l-7.96,47c-0.566,3.345,0.365,6.75,2.555,9.341c2.19,2.592,5.392,4.078,8.784,4.078h54.531
	c3.394,0,6.595-1.486,8.785-4.079c2.189-2.592,3.12-5.996,2.553-9.34l-7.959-47.001c-0.94-5.551-5.709-9.58-11.338-9.58H371.89
	V105.5h10.501c4.658,0,8.669-2.789,10.475-6.78H435.5V432h-359V98.72z M163.958,151.32l6.774,40h-46.246l6.774-40H163.958z
	 M272.349,151.32l6.774,40h-46.246l6.774-40H272.349z M380.74,151.32l6.774,40h-46.246l6.774-40H380.74z"/>
<g>
</g>
<g>
</g>
<g>
</g>
<g>
</g>
<g>
</g>
<g>
</g>
<g>
</g>
<g>
</g>
<g>
</g>
<g>
</g>
<g>
</g>
<g>
</g>
<g>
</g>
<g>
</g>
<g>
</g>
</svg>
