<?xml version="1.0" encoding="iso-8859-1"?>
<!-- Generator: Adobe Illustrator 19.0.0, SVG Export Plug-In . SVG Version: 6.00 Build 0)  -->
<svg version="1.1" id="Capa_1" xmlns="http://www.w3.org/2000/svg" xmlns:xlink="http://www.w3.org/1999/xlink" x="0px" y="0px"
	 viewBox="0 0 512 512" style="enable-background:new 0 0 512 512;" xml:space="preserve">
<circle style="fill:#FFDC5A;" cx="296.44" cy="276" r="40"/>
<path style="fill:#FFC843;" d="M336.44,276c0,22.09-17.91,40-40,40c-5.31,0-10.37-1.03-15-2.92c14.66-5.93,25-20.3,25-37.08
	s-10.34-31.15-25-37.08c4.63-1.89,9.69-2.92,15-2.92C318.531,236,336.44,253.91,336.44,276z"/>
<circle style="fill:#FFDC5A;" cx="136" cy="281.94" r="40"/>
<path style="fill:#FFC843;" d="M176,281.937c0,22.09-17.91,40-40,40c-5.31,0-10.37-1.03-15-2.92c14.66-5.93,25-20.3,25-37.08
	s-10.34-31.15-25-37.08c4.63-1.89,9.69-2.92,15-2.92C158.09,241.937,176,259.847,176,281.937z"/>
<circle style="fill:#FF44AF;" cx="215" cy="165.5" r="40"/>
<path style="fill:#FF119A;" d="M255,165.5c0,22.09-17.91,40-40,40c-5.31,0-10.37-1.03-15-2.92c14.66-5.93,25-20.3,25-37.08
	s-10.34-31.15-25-37.08c4.63-1.89,9.69-2.92,15-2.92C237.09,125.5,255,143.41,255,165.5z"/>
<circle style="fill:#55A1FB;" cx="358" cy="86" r="40"/>
<path style="fill:#4A8BD9;" d="M398,86c0,22.09-17.91,40-40,40c-5.31,0-10.37-1.03-15-2.92c14.66-5.93,25-20.3,25-37.08
	s-10.34-31.15-25-37.08c4.63-1.89,9.69-2.92,15-2.92C380.09,46,398,63.91,398,86z"/>
<circle style="fill:#FF44AF;" cx="96" cy="316" r="40"/>
<circle style="fill:#2CE565;" cx="176" cy="316" r="40"/>
<circle style="fill:#FF44AF;" cx="256" cy="316" r="40"/>
<circle style="fill:#2CE565;" cx="336" cy="316" r="40"/>
<circle style="fill:#FF44AF;" cx="416" cy="316" r="40"/>
<g>
	<path style="fill:#FF119A;" d="M456,316c0,22.09-17.91,40-40,40c-5.31,0-10.37-1.03-15-2.92c14.66-5.93,25-20.3,25-37.08
		s-10.34-31.15-25-37.08c4.63-1.89,9.69-2.92,15-2.92C438.09,276,456,293.91,456,316z"/>
	<path style="fill:#FF119A;" d="M296,316c0,22.09-17.91,40-40,40c-5.31,0-10.37-1.03-15-2.92c14.66-5.93,25-20.3,25-37.08
		s-10.34-31.15-25-37.08c4.63-1.89,9.69-2.92,15-2.92C278.09,276,296,293.91,296,316z"/>
	<path style="fill:#FF119A;" d="M136,316c0,22.09-17.91,40-40,40c-5.31,0-10.37-1.03-15-2.92c14.66-5.93,25-20.3,25-37.08
		s-10.34-31.15-25-37.08c4.63-1.89,9.69-2.92,15-2.92C118.09,276,136,293.91,136,316z"/>
</g>
<g>
	<path style="fill:#25C799;" d="M376,316c0,22.09-17.91,40-40,40c-5.31,0-10.37-1.03-15-2.92c14.66-5.93,25-20.3,25-37.08
		s-10.34-31.15-25-37.08c4.63-1.89,9.69-2.92,15-2.92C358.09,276,376,293.91,376,316z"/>
	<path style="fill:#25C799;" d="M216,316c0,22.09-17.91,40-40,40c-5.31,0-10.37-1.03-15-2.92c14.66-5.93,25-20.3,25-37.08
		s-10.34-31.15-25-37.08c4.63-1.89,9.69-2.92,15-2.92C198.09,276,216,293.91,216,316z"/>
</g>
<path style="fill:#27EEFF;" d="M489.5,346h-467c-8.284,0-15-6.716-15-15l0,0c0-8.284,6.716-15,15-15h467c8.284,0,15,6.716,15,15l0,0
	C504.5,339.284,497.784,346,489.5,346z"/>
<path style="fill:#00DCFF;" d="M489.5,316h-30c8.284,0,15,6.716,15,15s-6.716,15-15,15h30c8.284,0,15-6.716,15-15
	S497.784,316,489.5,316z"/>
<path style="fill:#55A1FB;" d="M458,406H54c-11.046,0-20-8.954-20-20v-20c0-11.046,8.954-20,20-20h404c11.046,0,20,8.954,20,20v20
	C478,397.046,469.046,406,458,406z"/>
<path style="fill:#4A8BD9;" d="M458,346h-30c11.046,0,20,8.954,20,20v20c0,11.046-8.954,20-20,20h30c11.046,0,20-8.954,20-20v-20
	C478,354.954,469.046,346,458,346z"/>
<path style="fill:#FFDC5A;" d="M458,466H54c-11.046,0-20-8.954-20-20v-20c0-11.046,8.954-20,20-20h404c11.046,0,20,8.954,20,20v20
	C478,457.046,469.046,466,458,466z"/>
<path style="fill:#FFC843;" d="M458,406h-30c11.046,0,20,8.954,20,20v20c0,11.046-8.954,20-20,20h30c11.046,0,20-8.954,20-20v-20
	C478,414.954,469.046,406,458,406z"/>
<path d="M175.485,175.301c4.136-0.232,7.301-3.772,7.068-7.908c-0.035-0.627-0.054-1.257-0.054-1.893
	c0-17.921,14.579-32.5,32.5-32.5s32.5,14.579,32.5,32.5S232.921,198,215,198c-8.043,0-15.762-2.961-21.734-8.336
	c-3.08-2.773-7.822-2.521-10.592,0.557c-2.771,3.079-2.522,7.821,0.557,10.592C191.962,208.672,203.244,213,215,213
	c26.191,0,47.5-21.309,47.5-47.5S241.191,118,215,118s-47.5,21.309-47.5,47.5c0,0.9,0.026,1.82,0.077,2.732
	C167.811,172.368,171.381,175.523,175.485,175.301z"/>
<path d="M358,133.5c26.191,0,47.5-21.309,47.5-47.5S384.191,38.5,358,38.5S310.5,59.809,310.5,86S331.809,133.5,358,133.5z
	 M358,53.5c17.921,0,32.5,14.579,32.5,32.5s-14.579,32.5-32.5,32.5s-32.5-14.579-32.5-32.5S340.079,53.5,358,53.5z"/>
<path d="M489.5,308.5h-26.598c-3.607-22.64-23.263-40-46.902-40c-16.798,0-31.575,8.772-40.023,21.969
	c-7.181-11.168-18.903-19.188-32.543-21.371c-3.354-22.931-23.146-40.597-46.993-40.597c-23.8,0-43.563,17.596-46.975,40.46
	c-14.039,1.941-26.131,10.037-33.465,21.472c-7.487-11.672-19.931-19.865-34.343-21.583c-5.761-19.99-24.4-34.41-45.658-34.41
	s-39.897,14.419-45.657,34.408c-21.059,2.512-37.931,18.846-41.246,39.651H22.5C10.094,308.5,0,318.594,0,331s10.094,22.5,22.5,22.5
	h7.018c-1.924,3.753-3.018,8-3.018,12.5v20c0,7.875,3.333,14.982,8.655,20c-5.323,5.018-8.655,12.125-8.655,20v20
	c0,15.163,12.337,27.5,27.5,27.5h26c4.143,0,7.5-3.357,7.5-7.5s-3.357-7.5-7.5-7.5H54c-6.893,0-12.5-5.607-12.5-12.5v-20
	c0-6.893,5.607-12.5,12.5-12.5h404c6.893,0,12.5,5.607,12.5,12.5v20c0,6.893-5.607,12.5-12.5,12.5H112.167
	c-4.143,0-7.5,3.357-7.5,7.5s3.357,7.5,7.5,7.5H458c15.163,0,27.5-12.337,27.5-27.5v-20c0-7.875-3.333-14.982-8.655-20
	c5.323-5.018,8.655-12.125,8.655-20v-20c0-4.5-1.094-8.747-3.018-12.5h7.018c12.406,0,22.5-10.094,22.5-22.5
	S501.906,308.5,489.5,308.5z M416,283.5c15.339,0,28.221,10.685,31.617,25h-63.233C387.779,294.185,400.661,283.5,416,283.5z
	 M367.61,308.5h-63.227c3.396-14.315,16.278-25,31.617-25h0.358C351.502,283.666,364.226,294.339,367.61,308.5z M296.44,243.5
	c15.566,0,28.612,11.002,31.771,25.639c-0.363,0.06-0.72,0.136-1.08,0.204c-0.285,0.054-0.571,0.102-0.854,0.161
	c-0.548,0.114-1.089,0.244-1.63,0.377c-0.184,0.045-0.37,0.083-0.553,0.131c-0.716,0.186-1.426,0.388-2.129,0.606
	c-0.22,0.068-0.436,0.146-0.655,0.218c-0.485,0.158-0.969,0.318-1.448,0.491c-0.276,0.1-0.546,0.209-0.82,0.314
	c-0.416,0.159-0.831,0.319-1.24,0.49c-0.288,0.12-0.572,0.247-0.857,0.372c-0.389,0.171-0.776,0.344-1.159,0.525
	c-0.287,0.136-0.572,0.276-0.856,0.417c-0.374,0.186-0.744,0.375-1.112,0.57c-0.282,0.15-0.562,0.301-0.841,0.456
	c-0.365,0.203-0.726,0.412-1.085,0.625c-0.269,0.159-0.538,0.318-0.804,0.482c-0.365,0.226-0.724,0.459-1.083,0.695
	c-0.25,0.165-0.502,0.326-0.75,0.495c-0.379,0.259-0.75,0.528-1.121,0.798c-0.216,0.157-0.436,0.31-0.649,0.47
	c-0.465,0.35-0.921,0.712-1.372,1.079c-0.111,0.09-0.226,0.175-0.336,0.266c-0.556,0.459-1.1,0.932-1.634,1.416
	c-0.17,0.154-0.333,0.316-0.501,0.472c-0.362,0.337-0.722,0.676-1.074,1.024c-0.202,0.201-0.398,0.408-0.597,0.613
	c-0.307,0.315-0.613,0.631-0.911,0.955c-0.206,0.223-0.406,0.452-0.607,0.679c-0.281,0.317-0.559,0.635-0.831,0.959
	c-0.199,0.238-0.395,0.479-0.59,0.72c-0.263,0.326-0.522,0.655-0.777,0.988c-0.189,0.247-0.376,0.495-0.56,0.746
	c-0.25,0.34-0.494,0.685-0.735,1.032c-0.175,0.252-0.35,0.503-0.52,0.759c-0.15,0.226-0.298,0.453-0.445,0.681
	c-6.966-10.856-18.22-18.7-31.358-21.125C267.734,254.584,280.815,243.5,296.44,243.5z M256,283.5c15.339,0,28.221,10.685,31.617,25
	h-63.233C227.779,294.185,240.661,283.5,256,283.5z M207.617,308.5h-63.233c3.396-14.315,16.278-25,31.617-25
	S204.221,294.185,207.617,308.5z M136,249.44c13.304,0,25.105,8.251,30.039,20.119c-12.573,2.694-23.308,10.379-30.039,20.873
	c-6.731-10.493-17.466-18.178-30.039-20.873C110.895,257.692,122.696,249.44,136,249.44z M96,283.5
	c15.339,0,28.221,10.685,31.617,25H64.383C67.779,294.185,80.661,283.5,96,283.5z M489.5,338.5h-41.75c-4.143,0-7.5,3.357-7.5,7.5
	s3.357,7.5,7.5,7.5H458c6.893,0,12.5,5.607,12.5,12.5v20c0,6.893-5.607,12.5-12.5,12.5H54c-6.893,0-12.5-5.607-12.5-12.5v-20
	c0-6.893,5.607-12.5,12.5-12.5h362c4.143,0,7.5-3.357,7.5-7.5s-3.357-7.5-7.5-7.5H22.5c-4.136,0-7.5-3.364-7.5-7.5
	s3.364-7.5,7.5-7.5h467c4.136,0,7.5,3.364,7.5,7.5S493.636,338.5,489.5,338.5z"/>
<g>
</g>
<g>
</g>
<g>
</g>
<g>
</g>
<g>
</g>
<g>
</g>
<g>
</g>
<g>
</g>
<g>
</g>
<g>
</g>
<g>
</g>
<g>
</g>
<g>
</g>
<g>
</g>
<g>
</g>
</svg>
