<?xml version="1.0" encoding="iso-8859-1"?>
<!-- Generator: Adobe Illustrator 19.0.0, SVG Export Plug-In . SVG Version: 6.00 Build 0)  -->
<svg version="1.1" id="Capa_1" xmlns="http://www.w3.org/2000/svg" xmlns:xlink="http://www.w3.org/1999/xlink" x="0px" y="0px"
	 viewBox="0 0 512 512" style="enable-background:new 0 0 512 512;" xml:space="preserve">
<rect x="131" y="212.5" style="fill:#27EEFF;" width="250" height="262"/>
<rect x="351" y="212.5" style="fill:#00DCFF;" width="30" height="262"/>
<path style="fill:#FF44AF;" d="M176,474.5v-120c0-44.183,35.817-80,80-80l0,0c44.183,0,80,35.817,80,80v120H176z"/>
<path style="fill:#686370;" d="M306,474.5H206v-120c0-27.614,22.386-50,50-50l0,0c27.614,0,50,22.386,50,50V474.5z"/>
<path style="fill:#56525B;" d="M256,304.5L256,304.5c-5.227,0-10.264,0.805-15,2.292c20.285,6.372,35,25.32,35,47.708v120h30v-120
	C306,326.886,283.614,304.5,256,304.5z"/>
<path style="fill:#DF905B;" d="M56,474.5c0,0,69.945-44,99.999-44c30.053,0,80.051,22.774,99.997,22.774
	c19.947,0,69.947-22.774,100-22.774c30.055,0,100.005,44,100.005,44H56z"/>
<path style="fill:#CE7A56;" d="M355.995,430.5c-5.236,0-11.086,0.702-17.269,1.844C372.236,440.683,426,474.5,426,474.5h30
	C456,474.5,386.05,430.5,355.995,430.5z"/>
<path style="fill:#A96458;" d="M489.5,504.5h-467c-8.284,0-15-6.716-15-15l0,0c0-8.284,6.716-15,15-15h467c8.284,0,15,6.716,15,15
	l0,0C504.5,497.784,497.784,504.5,489.5,504.5z"/>
<path style="fill:#895C62;" d="M489.5,474.5h-30c8.284,0,15,6.716,15,15s-6.716,15-15,15h30c8.284,0,15-6.716,15-15
	S497.784,474.5,489.5,474.5z"/>
<rect x="143" y="51.5" style="fill:#A96458;" width="60" height="103"/>
<rect x="173" y="51.5" style="fill:#895C62;" width="30" height="103"/>
<path style="fill:#FFDC5A;" d="M131.994,51.5h82.013c3.681,0,5.394-4.58,2.624-7.013L175.624,8.489
	c-1.502-1.319-3.745-1.319-5.247,0L129.37,44.487C126.599,46.92,128.313,51.5,131.994,51.5z"/>
<path style="fill:#FFC843;" d="M216.63,44.487L175.624,8.489c-1.502-1.319-3.745-1.319-5.247,0L158,19.354l28.63,25.133
	c2.771,2.432,1.057,7.013-2.624,7.013h30C217.687,51.5,219.401,46.919,216.63,44.487z"/>
<path style="fill:#FF44AF;" d="M426,209.193c0,43.099-76.112,31.992-170,31.992S86,252.292,86,209.193S162.112,104.47,256,104.47
	S426,166.094,426,209.193z"/>
<path style="fill:#FF119A;" d="M256,104.469c-5.056,0-10.056,0.189-15,0.534c86.861,6.06,155,63.411,155,104.189
	c0,25.773-27.225,32.16-69.187,33.131c58.532,0.913,99.187-1.633,99.187-33.13C426,166.094,349.888,104.469,256,104.469z"/>
<g>
	<path style="fill:#FFDC5A;" d="M333.5,197.5L333.5,197.5c-8.284,0-15-6.716-15-15l0,0c0-8.284,6.716-15,15-15l0,0
		c8.284,0,15,6.716,15,15l0,0C348.5,190.784,341.784,197.5,333.5,197.5z"/>
	<path style="fill:#FFDC5A;" d="M252.833,162L252.833,162c-8.284,0-15-6.716-15-15l0,0c0-8.284,6.716-15,15-15l0,0
		c8.284,0,15,6.716,15,15l0,0C267.833,155.284,261.118,162,252.833,162z"/>
	<path style="fill:#FFDC5A;" d="M155.667,192L155.667,192c-8.284,0-15-6.716-15-15l0,0c0-8.284,6.716-15,15-15l0,0
		c8.284,0,15,6.716,15,15l0,0C170.667,185.284,163.951,192,155.667,192z"/>
	<path style="fill:#FFDC5A;" d="M222.833,213.5L222.833,213.5c-8.284,0-15-6.716-15-15l0,0c0-8.284,6.716-15,15-15l0,0
		c8.284,0,15,6.716,15,15l0,0C237.833,206.784,231.118,213.5,222.833,213.5z"/>
</g>
<path d="M489.5,466.999h-31.362c-5.07-3.123-19.88-12.077-37.422-21.161c-12.025-6.227-22.763-11.171-32.217-14.86v-15.23
	c0-4.143-3.357-7.5-7.5-7.5s-7.5,3.358-7.5,7.5v10.134c-6.819-1.906-12.677-2.883-17.505-2.883c-3.913,0-8.116,0.366-12.495,0.979
	v-69.481c0-23.363-9.101-45.336-25.628-61.877c-16.537-16.524-38.51-25.625-61.872-25.625c-48.248,0-87.5,39.253-87.5,87.502v69.481
	c-4.381-0.614-8.587-0.98-12.501-0.98c-4.826,0-10.682,0.977-17.499,2.882V287.995c0-4.143-3.358-7.5-7.5-7.5s-7.5,3.358-7.5,7.5
	v142.981c-9.454,3.69-20.193,8.634-32.219,14.862c-17.541,9.083-32.35,18.038-37.42,21.161H22.5c-12.407,0-22.5,10.094-22.5,22.5
	S10.093,512,22.5,512h467c12.406,0,22.5-10.094,22.5-22.5S501.906,466.999,489.5,466.999z M183.5,354.497
	c0-39.977,32.523-72.501,72.5-72.501c19.357,0,37.565,7.541,51.265,21.232c13.694,13.703,21.235,31.912,21.235,51.27v72.34
	c-4.941,1.149-9.973,2.478-15,3.9v-76.24c0-15.353-5.983-29.791-16.847-40.653c-10.863-10.864-25.301-16.848-40.653-16.848
	c-31.706,0-57.5,25.794-57.5,57.501v76.242c-5.027-1.422-10.059-2.751-15-3.9V354.497z M298.5,435.174
	c-1.405,0.428-2.802,0.855-4.186,1.278c-15.677,4.794-30.484,9.322-38.319,9.322c-7.833,0-22.641-4.527-38.318-9.322
	c-1.381-0.422-2.775-0.848-4.178-1.275v-80.679c0-23.435,19.065-42.501,42.5-42.501c11.346,0,22.017,4.423,30.047,12.454
	c8.03,8.029,12.453,18.701,12.453,30.047L298.5,435.174L298.5,435.174z M428.428,466.999H83.564
	c15.27-8.479,33.825-17.898,49.503-23.636c0.339-0.097,0.667-0.216,0.984-0.357c8.574-3.076,16.237-5.007,21.947-5.007
	c15.44,0,37.675,6.799,57.293,12.798c17.508,5.354,32.628,9.977,42.704,9.977s25.197-4.623,42.706-9.977
	c19.618-5.999,41.854-12.798,57.294-12.798c5.718,0,13.4,1.94,21.997,5.028c0.288,0.126,0.586,0.234,0.892,0.324
	C394.568,449.087,413.143,458.514,428.428,466.999 M489.5,481.999c4.136,0,7.5,3.364,7.5,7.5s-3.364,7.5-7.5,7.5h-467
	c-4.136,0-7.5-3.364-7.5-7.5s3.364-7.5,7.5-7.5H489.5"/>
<path d="M123.5,247.52v8.142c0,4.143,3.358,7.5,7.5,7.5s7.5-3.357,7.5-7.5v-6.551c19.228,1.355,42.494,0.849,69.142,0.263
	c15.526-0.341,31.58-0.694,48.358-0.694c16.777,0,32.832,0.354,48.358,0.694c14.178,0.313,27.398,0.603,39.566,0.603
	c10.698,0,20.58-0.225,29.575-0.858v134.629c0,4.143,3.357,7.5,7.5,7.5s7.5-3.357,7.5-7.5V247.525
	c15.561-2.318,27.549-6.626,35.416-14.323c6.359-6.221,9.584-14.3,9.584-24.015c0-15.531-8.025-32.562-23.209-49.254
	c-14.836-16.31-35.105-30.731-58.619-41.707c-3.75-1.753-8.217-0.13-9.968,3.624c-1.752,3.753-0.13,8.216,3.624,9.968
	c42.398,19.791,73.172,52.329,73.172,77.369c0,5.683-1.612,9.907-5.073,13.293c-14.284,13.974-58.056,13.012-108.739,11.897
	c-15.606-0.344-31.745-0.698-48.688-0.698s-33.081,0.354-48.688,0.698c-50.683,1.115-94.455,2.077-108.74-11.897
	c-3.461-3.386-5.073-7.611-5.073-13.293c0-38.393,72.8-97.226,162.5-97.226c20.868,0,41.688,3.136,61.883,9.321
	c3.959,1.215,8.155-1.014,9.367-4.975c1.213-3.961-1.014-8.154-4.975-9.367c-21.619-6.621-43.918-9.979-66.275-9.979
	c-15.311,0-30.588,1.579-45.5,4.637V58.991h3.506c4.826,0,9.044-2.921,10.747-7.442c1.706-4.529,0.459-9.517-3.175-12.708
	L180.572,2.843c-4.316-3.79-10.827-3.791-15.144-0.001l-41.007,35.999c-3.634,3.191-4.88,8.179-3.175,12.708
	c1.703,4.521,5.921,7.442,10.747,7.442h3.506v72.886c-1.312,0.844-2.617,1.698-3.908,2.57C98.348,156.919,78.5,184.859,78.5,209.187
	c0,9.714,3.225,17.794,9.583,24.015C95.95,240.898,107.942,245.202,123.5,247.52z M173,16.156l31.707,27.835l0,0h-63.413l0,0
	L173,16.156z M150.5,58.991h45v46.221c-15.687,4.34-30.822,10.343-45,17.883V58.991z"/>
<path d="M311,182.493c0,12.407,10.094,22.5,22.5,22.5s22.5-10.094,22.5-22.5s-10.094-22.5-22.5-22.5S311,170.087,311,182.493z
	 M333.5,174.993c4.136,0,7.5,3.364,7.5,7.5s-3.364,7.5-7.5,7.5s-7.5-3.364-7.5-7.5S329.364,174.993,333.5,174.993z"/>
<path d="M275.333,146.993c0-12.407-10.093-22.5-22.5-22.5s-22.5,10.094-22.5,22.5s10.093,22.5,22.5,22.5
	C265.24,169.493,275.333,159.399,275.333,146.993z M245.333,146.993c0-4.136,3.364-7.5,7.5-7.5c4.135,0,7.5,3.364,7.5,7.5
	s-3.364,7.5-7.5,7.5C248.698,154.493,245.333,151.128,245.333,146.993z"/>
<path d="M133.167,176.993c0,12.407,10.093,22.5,22.5,22.5s22.5-10.094,22.5-22.5s-10.093-22.5-22.5-22.5
	S133.167,164.587,133.167,176.993z M163.167,176.993c0,4.136-3.364,7.5-7.5,7.5s-7.5-3.364-7.5-7.5s3.364-7.5,7.5-7.5
	S163.167,172.857,163.167,176.993z"/>
<path d="M200.333,198.494c0,12.406,10.093,22.5,22.5,22.5s22.5-10.094,22.5-22.5c0-12.407-10.093-22.5-22.5-22.5
	S200.333,186.087,200.333,198.494z M230.333,198.494c0,4.136-3.364,7.5-7.5,7.5s-7.5-3.364-7.5-7.5s3.364-7.5,7.5-7.5
	S230.333,194.358,230.333,198.494z"/>
<g>
</g>
<g>
</g>
<g>
</g>
<g>
</g>
<g>
</g>
<g>
</g>
<g>
</g>
<g>
</g>
<g>
</g>
<g>
</g>
<g>
</g>
<g>
</g>
<g>
</g>
<g>
</g>
<g>
</g>
</svg>
