<?xml version="1.0" encoding="iso-8859-1"?>
<!-- Generator: Adobe Illustrator 19.0.0, SVG Export Plug-In . SVG Version: 6.00 Build 0)  -->
<svg version="1.1" id="Capa_1" xmlns="http://www.w3.org/2000/svg" xmlns:xlink="http://www.w3.org/1999/xlink" x="0px" y="0px"
	 viewBox="0 0 512 512" style="enable-background:new 0 0 512 512;" xml:space="preserve">
<path style="fill:#A96458;" d="M489.5,504.5h-467c-8.284,0-15-6.716-15-15l0,0c0-8.284,6.716-15,15-15h467c8.284,0,15,6.716,15,15
	l0,0C504.5,497.784,497.784,504.5,489.5,504.5z"/>
<path style="fill:#895C62;" d="M489.5,474.5h-30c8.284,0,15,6.716,15,15s-6.716,15-15,15h30c8.284,0,15-6.716,15-15
	S497.784,474.5,489.5,474.5z"/>
<rect x="241" y="132.5" style="fill:#686370;" width="30" height="312"/>
<rect x="215" y="444.5" style="fill:#55A1FB;" width="82" height="30"/>
<g>
	<rect x="267" y="444.5" style="fill:#4A8BD9;" width="30" height="30"/>
	<path style="fill:#4A8BD9;" d="M193.114,87.085c0,0,7.316,36.819,6.506,60.706c-0.151,4.459,3.889,7.886,8.257,6.979L241,147.888
		L193.114,87.085z"/>
	<path style="fill:#4A8BD9;" d="M318.886,87.085c0,0-7.316,36.819-6.506,60.706c0.151,4.459-3.889,7.886-8.257,6.979L271,147.888
		L318.886,87.085z"/>
</g>
<path style="fill:#27EEFF;" d="M186,37.5h140c0,5.075-0.208,10.072-0.611,14.968c-1.664,20.217-6.653,38.757-14.042,54.145
	c-3.703,7.711-8.011,14.631-12.805,20.57c-9.539,11.822-21.014,19.774-33.51,22.381c-2.956,0.617-5.972,0.936-9.032,0.936
	c-3.061,0-6.076-0.32-9.032-0.936c-12.496-2.608-23.97-10.56-33.51-22.381c-4.794-5.939-9.102-12.859-12.805-20.57
	c-7.389-15.388-12.378-33.928-14.042-54.145C186.208,47.572,186,42.575,186,37.5z"/>
<path style="fill:#00DCFF;" d="M296,37.5c0,5.075-0.208,10.072-0.611,14.968c-1.664,20.217-6.653,38.757-14.042,54.145
	c-3.703,7.711-8.011,14.631-12.805,20.57c-7.999,9.912-17.361,17.089-27.542,20.691c1.961,0.694,3.949,1.269,5.968,1.69
	c2.956,0.617,5.972,0.937,9.032,0.937s6.076-0.32,9.032-0.937c12.496-2.608,23.97-10.56,33.51-22.381
	c4.794-5.939,9.102-12.859,12.805-20.57c7.389-15.388,12.378-33.928,14.042-54.145C325.792,47.572,326,42.575,326,37.5H296z"/>
<path style="fill:#FF44AF;" d="M326,37.5H186c-8.284,0-15-6.716-15-15l0,0c0-8.284,6.716-15,15-15h140c8.284,0,15,6.716,15,15l0,0
	C341,30.784,334.284,37.5,326,37.5z"/>
<path style="fill:#FF119A;" d="M326,7.5h-30c8.284,0,15,6.716,15,15s-6.716,15-15,15h30c8.284,0,15-6.716,15-15S334.284,7.5,326,7.5
	z"/>
<ellipse style="fill:#4A8BD9;" cx="256" cy="115.01" rx="27.965" ry="35.487"/>
<path d="M489.5,467h-41.375c-4.142,0-7.5,3.357-7.5,7.5s3.358,7.5,7.5,7.5H489.5c4.136,0,7.5,3.364,7.5,7.5s-3.364,7.5-7.5,7.5h-467
	c-4.136,0-7.5-3.364-7.5-7.5s3.364-7.5,7.5-7.5H416l0,0l0,0c4.142,0,7.5-3.357,7.5-7.5s-3.358-7.5-7.5-7.5H304.5v-22.5
	c0-4.143-3.358-7.5-7.5-7.5h-18.5V157.107l24.091,5.005c0.987,0.205,1.978,0.307,2.961,0.307c3.342-0.001,6.586-1.169,9.207-3.374
	c3.401-2.862,5.267-7.057,5.117-11.511c-0.735-21.544,5.542-54.728,6.299-58.635c0.184-0.597,0.36-1.195,0.529-1.801
	c0.007-0.024,0.01-0.048,0.016-0.072c0.136-0.473,0.267-0.948,0.399-1.423c0.14-0.501,0.275-1.005,0.41-1.508
	c0.215-0.804,0.424-1.612,0.628-2.423c0.15-0.596,0.3-1.191,0.444-1.791c0.177-0.737,0.344-1.479,0.511-2.221
	c0.144-0.637,0.293-1.272,0.43-1.912c0.265-1.241,0.517-2.489,0.756-3.743c0.137-0.717,0.26-1.44,0.388-2.161
	c0.118-0.667,0.238-1.333,0.349-2.003c0.118-0.714,0.229-1.431,0.338-2.149c0.108-0.707,0.213-1.415,0.313-2.125
	c0.096-0.681,0.189-1.362,0.278-2.046c0.103-0.799,0.198-1.6,0.291-2.402c0.07-0.609,0.144-1.216,0.209-1.827
	c0.121-1.15,0.229-2.305,0.329-3.462c0.022-0.251,0.051-0.499,0.071-0.75c0.149-1.823,0.262-3.657,0.359-5.494
	c0.067-1.277,0.122-2.556,0.164-3.838C342.176,40.683,348.5,32.319,348.5,22.5C348.5,10.094,338.407,0,326,0h-22
	c-4.142,0-7.5,3.357-7.5,7.5s3.358,7.5,7.5,7.5h22c4.136,0,7.5,3.364,7.5,7.5S330.136,30,326,30H186c-4.136,0-7.5-3.364-7.5-7.5
	s3.364-7.5,7.5-7.5h86c4.142,0,7.5-3.357,7.5-7.5S276.142,0,272,0h-86c-12.407,0-22.5,10.094-22.5,22.5
	c0,9.819,6.324,18.183,15.112,21.248c0.047,1.435,0.109,2.867,0.187,4.296c0.021,0.389,0.036,0.778,0.06,1.166
	c0.004,0.064,0.01,0.127,0.014,0.191c0.076,1.231,0.163,2.46,0.263,3.684c0.022,0.261,0.052,0.52,0.074,0.781
	c0.098,1.135,0.204,2.269,0.323,3.398c0.065,0.614,0.139,1.225,0.21,1.837c0.091,0.786,0.183,1.571,0.284,2.353
	c0.089,0.691,0.184,1.38,0.281,2.068s0.198,1.375,0.302,2.061c0.111,0.729,0.224,1.457,0.344,2.182
	c0.105,0.638,0.219,1.272,0.331,1.907c0.131,0.743,0.259,1.488,0.4,2.228c0.128,0.672,0.267,1.337,0.402,2.005
	c0.243,1.2,0.497,2.395,0.764,3.583c0.166,0.739,0.33,1.479,0.505,2.213c0.142,0.596,0.293,1.187,0.441,1.779
	c0.197,0.79,0.398,1.576,0.606,2.359c0.137,0.516,0.278,1.03,0.42,1.543c0.255,0.925,0.52,1.844,0.79,2.759
	c0.072,0.243,0.136,0.49,0.209,0.731c0.732,3.778,7.041,37.068,6.304,58.666c-0.15,4.45,1.715,8.645,5.117,11.507
	c2.621,2.205,5.865,3.374,9.207,3.374c0.982,0,1.972-0.101,2.958-0.307l24.095-5.005v34.56c0,4.143,3.358,7.5,7.5,7.5
	s7.5-3.357,7.5-7.5V157.44c2.489,0.366,5,0.56,7.5,0.56s5.011-0.194,7.5-0.56V437h-15V223.667c0-4.143-3.358-7.5-7.5-7.5
	s-7.5,3.357-7.5,7.5V437H215c-4.142,0-7.5,3.357-7.5,7.5V467h-185C10.093,467,0,477.094,0,489.5S10.093,512,22.5,512h467
	c12.407,0,22.5-10.094,22.5-22.5S501.907,467,489.5,467z M255.619,142.987c-11.109-0.28-20.084-12.716-20.084-27.974
	c0-15.432,9.181-27.986,20.465-27.986s20.465,12.555,20.465,27.986c0,15.258-8.976,27.695-20.085,27.974
	C256.126,142.99,255.873,142.99,255.619,142.987z M291.797,144.55c4.436-3.564,8.655-7.791,12.581-12.657
	c0.323-0.401,0.638-0.817,0.958-1.226c-0.411,5.745-0.615,11.418-0.475,16.597L291.797,144.55z M318.34,45
	c-0.037,0.883-0.087,1.765-0.138,2.646c-0.081,1.408-0.173,2.813-0.288,4.206c-0.019,0.235-0.045,0.468-0.065,0.703
	c-0.091,1.054-0.19,2.106-0.3,3.154c-0.057,0.542-0.122,1.081-0.185,1.622c-0.087,0.755-0.177,1.509-0.273,2.26
	c-0.077,0.595-0.158,1.189-0.241,1.781c-0.098,0.702-0.202,1.401-0.309,2.099c-0.091,0.595-0.182,1.19-0.279,1.782
	c-0.125,0.757-0.259,1.509-0.394,2.261c-0.091,0.509-0.177,1.02-0.273,1.526c-0.228,1.206-0.471,2.405-0.725,3.597
	c-0.088,0.411-0.184,0.818-0.274,1.227c-0.194,0.872-0.391,1.743-0.599,2.607c-0.096,0.402-0.197,0.801-0.297,1.201
	c-0.232,0.929-0.47,1.854-0.718,2.773c-0.078,0.29-0.156,0.581-0.236,0.87c-0.334,1.208-0.678,2.41-1.04,3.6
	c-0.001,0.004-0.002,0.009-0.003,0.013c-1.974,6.497-4.352,12.681-7.116,18.437c-3.453,7.189-7.45,13.617-11.881,19.106
	c-0.734,0.91-1.483,1.782-2.237,2.635c0.646-3.24,0.997-6.618,0.997-10.094c0-23.703-15.91-42.986-35.465-42.986
	s-35.465,19.283-35.465,42.986c0,3.477,0.351,6.855,0.997,10.094c-0.755-0.854-1.503-1.726-2.238-2.636
	c-4.43-5.488-8.427-11.916-11.88-19.104c-2.764-5.757-5.143-11.943-7.117-18.441c-0.001-0.003-0.001-0.007-0.002-0.01
	c-0.363-1.191-0.707-2.394-1.041-3.603c-0.079-0.287-0.156-0.576-0.234-0.864c-0.248-0.92-0.487-1.847-0.719-2.777
	c-0.099-0.4-0.2-0.799-0.296-1.2c-0.208-0.863-0.405-1.731-0.598-2.602c-0.091-0.412-0.188-0.821-0.276-1.234
	c-0.255-1.191-0.496-2.388-0.724-3.592c-0.097-0.511-0.183-1.027-0.275-1.541c-0.134-0.747-0.267-1.493-0.391-2.245
	c-0.098-0.596-0.189-1.195-0.281-1.794c-0.106-0.692-0.209-1.386-0.307-2.083c-0.084-0.597-0.165-1.196-0.243-1.795
	c-0.096-0.745-0.185-1.494-0.271-2.243c-0.063-0.545-0.129-1.088-0.186-1.635c-0.111-1.05-0.209-2.104-0.301-3.161
	c-0.02-0.232-0.045-0.462-0.064-0.695c-0.091-1.106-0.171-2.218-0.241-3.334c-0.073-1.171-0.135-2.344-0.185-3.519H318.34V45z
	 M207.14,147.264c0.14-5.179-0.065-10.853-0.476-16.597c0.319,0.408,0.634,0.825,0.957,1.225c3.927,4.867,8.146,9.094,12.583,12.658
	L207.14,147.264z M222.5,452L222.5,452h67l0,0v15h-67V452z"/>
<g>
</g>
<g>
</g>
<g>
</g>
<g>
</g>
<g>
</g>
<g>
</g>
<g>
</g>
<g>
</g>
<g>
</g>
<g>
</g>
<g>
</g>
<g>
</g>
<g>
</g>
<g>
</g>
<g>
</g>
</svg>
