<?xml version="1.0" encoding="iso-8859-1"?>
<!-- Generator: Adobe Illustrator 19.0.0, SVG Export Plug-In . SVG Version: 6.00 Build 0)  -->
<svg version="1.1" id="Capa_1" xmlns="http://www.w3.org/2000/svg" xmlns:xlink="http://www.w3.org/1999/xlink" x="0px" y="0px"
	 viewBox="0 0 512 512" style="enable-background:new 0 0 512 512;" xml:space="preserve">
<path style="fill:#FF44AF;" d="M357.945,274.5h-203.89c-17.427,0-31.555-14.127-31.555-31.555V39.055
	c0-17.427,14.127-31.555,31.555-31.555h203.891c17.427,0,31.555,14.127,31.555,31.555v203.891
	C389.5,260.373,375.373,274.5,357.945,274.5z"/>
<path style="fill:#FF119A;" d="M357.945,7.5h-30c17.427,0,31.555,14.127,31.555,31.554v203.891
	c0,17.427-14.127,31.555-31.555,31.555h30c17.427,0,31.555-14.127,31.555-31.555V39.054C389.5,21.627,375.373,7.5,357.945,7.5z"/>
<path style="fill:#27EEFF;" d="M270.552,56.358c-1.669-6.678-7.669-11.362-14.552-11.362s-12.883,4.685-14.552,11.362l-41,164
	c-2.009,8.036,2.877,16.181,10.914,18.189c8.038,2.012,16.181-2.877,18.19-10.914l8.031-32.126h36.833l8.031,32.126
	c1.704,6.816,7.819,11.366,14.541,11.366c1.204,0,2.428-0.146,3.649-0.452c8.037-2.009,12.923-10.153,10.914-18.189L270.552,56.358z
	 M245.084,165.508L256,121.843l10.916,43.665H245.084z"/>
<path style="fill:#FFDC5A;" d="M242.945,488.5H39.055C21.627,488.5,7.5,474.373,7.5,456.945v-203.89
	c0-17.427,14.127-31.555,31.555-31.555h203.891c17.427,0,31.555,14.127,31.555,31.555v203.891
	C274.5,474.373,260.373,488.5,242.945,488.5z"/>
<path style="fill:#FFC843;" d="M242.945,221.5h-30c17.427,0,31.555,14.127,31.555,31.554v203.891
	c0,17.427-14.127,31.555-31.555,31.555h30c17.427,0,31.555-14.127,31.555-31.555V253.054C274.5,235.627,260.373,221.5,242.945,221.5
	z"/>
<path style="fill:#55A1FB;" d="M477.318,504.5H301.682c-15.012,0-27.182-12.17-27.182-27.182V301.682
	c0-15.012,12.17-27.182,27.182-27.182h175.636c15.012,0,27.182,12.17,27.182,27.182v175.636
	C504.5,492.33,492.33,504.5,477.318,504.5z"/>
<path style="fill:#4A8BD9;" d="M477.318,274.5h-30c15.012,0,27.182,12.17,27.182,27.182v175.636
	c0,15.012-12.17,27.182-27.182,27.182h30c15.012,0,27.182-12.17,27.182-27.182V301.682C504.5,286.67,492.33,274.5,477.318,274.5z"/>
<path style="fill:#55A1FB;" d="M150,258H98c-8.284,0-15,6.716-15,15v82v82c0,8.284,6.716,15,15,15h52c24.813,0,45-20.187,45-45v-22
	c0-11.517-4.353-22.032-11.495-30c7.141-7.968,11.495-18.483,11.495-30v-22C195,278.187,174.813,258,150,258z M113,288h37
	c8.271,0,15,6.729,15,15v22c0,8.271-6.729,15-15,15h-37V288z M165,407c0,8.271-6.729,15-15,15h-37v-52h37c8.271,0,15,6.729,15,15
	V407z"/>
<path style="fill:#FFDC5A;" d="M419.983,441.964h-23.921c-13.801,0-25.028-11.228-25.028-25.03v-54.866
	c0-13.802,11.227-25.03,25.028-25.03h23.921c8.294,0,15.017-6.724,15.017-15.018S428.277,307,419.983,307h-23.921
	C365.701,307,341,331.703,341,362.067v54.866C341,447.297,365.701,472,396.062,472h23.921c8.294,0,15.017-6.724,15.017-15.018
	S428.277,441.964,419.983,441.964z"/>
<path d="M245.084,173.008h21.832c2.31,0,4.49-1.064,5.912-2.885s1.925-4.193,1.364-6.435l-10.916-43.665
	c-0.834-3.339-3.834-5.681-7.276-5.681s-6.441,2.342-7.276,5.681l-10.916,43.665c-0.561,2.241-0.057,4.614,1.364,6.435
	S242.774,173.008,245.084,173.008z M256,152.767l1.31,5.241h-2.62L256,152.767z"/>
<path d="M504.5,327.5c4.142,0,7.5-3.357,7.5-7.5v-18.318C512,282.558,496.442,267,477.318,267h-88.637
	c5.204-6.635,8.319-14.983,8.319-24.05V39.05C397,17.518,379.482,0,357.95,0h-203.9C132.518,0,115,17.518,115,39.05v24.2
	c0,4.143,3.358,7.5,7.5,7.5s7.5-3.357,7.5-7.5v-24.2C130,25.789,140.789,15,154.05,15h203.9C371.211,15,382,25.789,382,39.05v203.9
	c0,13.261-10.789,24.05-24.05,24.05H282l0,0v-13.945c0-5.896-1.321-11.487-3.67-16.504c4.083,6.088,10.991,9.949,18.66,9.949
	c1.809,0,3.639-0.225,5.471-0.675c5.827-1.458,10.739-5.101,13.831-10.255c3.093-5.156,3.993-11.204,2.534-17.029l-41-163.999
	C275.318,44.508,266.343,37.5,256,37.5s-19.318,7.008-21.826,17.041L194.31,214H130V95.25c0-4.143-3.358-7.5-7.5-7.5
	s-7.5,3.357-7.5,7.5V214H39.055C17.52,214,0,231.52,0,253.055v203.891C0,478.48,17.52,496,39.055,496h24.82
	c4.142,0,7.5-3.357,7.5-7.5s-3.358-7.5-7.5-7.5h-24.82C25.791,481,15,470.209,15,456.945v-203.89C15,239.791,25.791,229,39.055,229
	h203.891C256.209,229,267,239.791,267,253.055l0,0v203.891C267,470.209,256.209,481,242.945,481H96.125c-4.142,0-7.5,3.357-7.5,7.5
	s3.358,7.5,7.5,7.5h146.82c9.662,0,18.509-3.534,25.335-9.369C272.36,501.245,285.784,512,301.682,512l0,0h175.637
	C496.442,512,512,496.441,512,477.318V352c0-4.143-3.358-7.5-7.5-7.5s-7.5,3.357-7.5,7.5v125.318
	c0,10.853-8.829,19.682-19.682,19.682H301.682l0,0C290.829,497,282,488.171,282,477.318v-20.373V301.682
	c0-10.853,8.829-19.682,19.682-19.682h56.269h119.368c10.853,0,19.682,8.829,19.682,19.682V320
	C497,324.143,500.358,327.5,504.5,327.5z M248.727,58.179c0.835-3.344,3.827-5.679,7.273-5.679c3.446,0,6.438,2.335,7.274,5.68
	l41,164.002c0.485,1.939,0.185,3.954-0.846,5.673c-1.031,1.72-2.668,2.934-4.578,3.412c-4.23,1.04-8.143-1.516-9.125-5.456
	l-8.03-32.12c-0.834-3.339-3.834-5.681-7.276-5.681h-36.84c-3.441,0-6.441,2.342-7.276,5.681L225.225,214h-15.454L248.727,58.179z
	 M242.945,214h-2.258l2.749-10.99h25.128l6.609,26.434c0.282,1.132,0.657,2.219,1.096,3.268
	C269.398,221.498,257.032,214,242.945,214z"/>
<path d="M113,347.5h37c12.407,0,22.5-10.094,22.5-22.5v-22c0-12.406-10.093-22.5-22.5-22.5h-37c-4.142,0-7.5,3.357-7.5,7.5v52
	C105.5,344.143,108.858,347.5,113,347.5z M120.5,295.5H150c4.136,0,7.5,3.364,7.5,7.5v22c0,4.136-3.364,7.5-7.5,7.5h-29.5V295.5z"/>
<path d="M150,459.5c28.949,0,52.5-23.552,52.5-52.5v-22c0-10.788-3.317-21.231-9.442-30c6.125-8.769,9.442-19.212,9.442-30v-22
	c0-28.948-23.551-52.5-52.5-52.5H98c-12.407,0-22.5,10.094-22.5,22.5v164c0,12.406,10.093,22.5,22.5,22.5H150z M90.5,437V273
	c0-4.136,3.364-7.5,7.5-7.5h52c20.678,0,37.5,16.822,37.5,37.5v22c0,9.226-3.402,18.102-9.58,24.994
	c-2.553,2.849-2.553,7.163,0,10.012c6.178,6.893,9.58,15.769,9.58,24.994v22c0,20.678-16.822,37.5-37.5,37.5H98
	C93.864,444.5,90.5,441.136,90.5,437z"/>
<path d="M113,429.5h37c12.407,0,22.5-10.094,22.5-22.5v-22c0-12.406-10.093-22.5-22.5-22.5h-37c-4.142,0-7.5,3.357-7.5,7.5v52
	C105.5,426.143,108.858,429.5,113,429.5z M120.5,377.5H150c4.136,0,7.5,3.364,7.5,7.5v22c0,4.136-3.364,7.5-7.5,7.5h-29.5V377.5z"/>
<path d="M396.062,344.536h23.921c12.416,0,22.517-10.102,22.517-22.518c0-12.417-10.101-22.519-22.517-22.519h-23.921
	c-34.497,0-62.562,28.067-62.562,62.566v54.867c0,34.499,28.065,62.566,62.562,62.566h23.921c12.416,0,22.517-10.102,22.517-22.519
	c0-12.416-10.101-22.518-22.517-22.518h-23.921c-9.665,0-17.528-7.864-17.528-17.53v-54.867
	C378.534,352.4,386.397,344.536,396.062,344.536z M396.062,449.464h23.921c4.145,0,7.517,3.372,7.517,7.518
	s-3.372,7.519-7.517,7.519h-23.921c-26.226,0-47.562-21.338-47.562-47.566v-54.867c0-26.229,21.336-47.566,47.562-47.566h23.921
	c4.145,0,7.517,3.373,7.517,7.519s-3.372,7.518-7.517,7.518h-23.921c-17.936,0-32.528,14.593-32.528,32.53v54.867
	C363.534,434.871,378.126,449.464,396.062,449.464z"/>
<g>
</g>
<g>
</g>
<g>
</g>
<g>
</g>
<g>
</g>
<g>
</g>
<g>
</g>
<g>
</g>
<g>
</g>
<g>
</g>
<g>
</g>
<g>
</g>
<g>
</g>
<g>
</g>
<g>
</g>
</svg>
