<?xml version="1.0" encoding="iso-8859-1"?>
<!-- Generator: Adobe Illustrator 19.0.0, SVG Export Plug-In . SVG Version: 6.00 Build 0)  -->
<svg version="1.1" id="Capa_1" xmlns="http://www.w3.org/2000/svg" xmlns:xlink="http://www.w3.org/1999/xlink" x="0px" y="0px"
	 viewBox="0 0 512 512" style="enable-background:new 0 0 512 512;" xml:space="preserve">
<path style="fill:#686370;" d="M271,444.5h-30V22.491c0-8.28,6.712-14.991,14.991-14.991h0.017c8.28,0,14.991,6.712,14.991,14.991
	V444.5H271z"/>
<path style="fill:#A96458;" d="M489.5,504.5h-467c-8.284,0-15-6.716-15-15l0,0c0-8.284,6.716-15,15-15h467c8.284,0,15,6.716,15,15
	l0,0C504.5,497.784,497.784,504.5,489.5,504.5z"/>
<path style="fill:#895C62;" d="M489.5,474.5h-30c8.284,0,15,6.716,15,15s-6.716,15-15,15h30c8.284,0,15-6.716,15-15
	S497.784,474.5,489.5,474.5z"/>
<path style="fill:#FF44AF;" d="M441,172H71c-8.284,0-15-6.716-15-15l0,0c0-8.284,6.716-15,15-15h370c8.284,0,15,6.716,15,15l0,0
	C456,165.284,449.284,172,441,172z"/>
<path style="fill:#FF119A;" d="M441,142h-30c8.284,0,15,6.716,15,15s-6.716,15-15,15h30c8.284,0,15-6.716,15-15S449.284,142,441,142
	z"/>
<path style="fill:#2CE565;" d="M366.042,142H145.958c-5.776,0-10.458,6.716-10.458,15s4.682,15,10.458,15h220.083
	c5.776,0,10.458-6.716,10.458-15S371.818,142,366.042,142z"/>
<path style="fill:#25C799;" d="M366.042,142h-30c5.776,0,10.458,6.716,10.458,15s-4.682,15-10.458,15h30
	c5.776,0,10.458-6.716,10.458-15S371.818,142,366.042,142z"/>
<rect x="184" y="444.5" style="fill:#55A1FB;" width="144" height="30"/>
<rect x="298" y="444.5" style="fill:#4A8BD9;" width="30" height="30"/>
<path style="fill:#FFDC5A;" d="M291,78h-70c-8.284,0-15-6.716-15-15l0,0c0-8.284,6.716-15,15-15h70c8.284,0,15,6.716,15,15l0,0
	C306,71.284,299.284,78,291,78z"/>
<path style="fill:#FFC843;" d="M291,48h-30c8.284,0,15,6.716,15,15s-6.716,15-15,15h30c8.284,0,15-6.716,15-15S299.284,48,291,48z"
	/>
<path d="M489.5,467h-154v-22.5c0-4.143-3.357-7.5-7.5-7.5h-49.5V179.5h87.542H392c4.143,0,7.5-3.357,7.5-7.5s-3.357-7.5-7.5-7.5
	h-8.99c0.64-2.337,0.99-4.857,0.99-7.5s-0.35-5.163-0.99-7.5h39.949c0.012,0,0.023,0.002,0.035,0.002
	c0.009,0,0.019-0.002,0.028-0.002H441c4.136,0,7.5,3.364,7.5,7.5s-3.364,7.5-7.5,7.5h-16.375c-4.143,0-7.5,3.357-7.5,7.5
	s3.357,7.5,7.5,7.5H441c12.406,0,22.5-10.094,22.5-22.5s-10.094-22.5-22.5-22.5h-16.285L307.729,78.027
	C311.314,74.04,313.5,68.771,313.5,63c0-12.406-10.094-22.5-22.5-22.5h-12.5V22.49C278.5,10.089,268.411,0,255.99,0
	c-12.401,0-22.49,10.089-22.49,22.49V40.5H221c-12.406,0-22.5,10.094-22.5,22.5c0,5.771,2.186,11.04,5.771,15.027L87.285,134.5H71
	c-12.406,0-22.5,10.094-22.5,22.5s10.094,22.5,22.5,22.5h74.958H233.5V192c0,4.143,3.357,7.5,7.5,7.5s7.5-3.357,7.5-7.5v-12.5h15
	V437h-15V224c0-4.143-3.357-7.5-7.5-7.5s-7.5,3.357-7.5,7.5v213H184c-4.143,0-7.5,3.357-7.5,7.5V467H96.333
	c-4.143,0-7.5,3.357-7.5,7.5s3.357,7.5,7.5,7.5H184h144h161.5c4.136,0,7.5,3.364,7.5,7.5s-3.364,7.5-7.5,7.5h-467
	c-4.136,0-7.5-3.364-7.5-7.5s3.364-7.5,7.5-7.5h41.833c4.143,0,7.5-3.357,7.5-7.5s-3.357-7.5-7.5-7.5H22.5
	C10.094,467,0,477.094,0,489.5S10.094,512,22.5,512h467c12.406,0,22.5-10.094,22.5-22.5S501.906,467,489.5,467z M145.969,164.5
	c-0.695-0.14-2.969-2.742-2.969-7.5c0-4.764,2.279-7.366,2.958-7.5h60.668c0.005,0,0.01,0.001,0.015,0.001s0.01-0.001,0.016-0.001
	h98.688c0.005,0,0.01,0.001,0.016,0.001c0.005,0,0.01-0.001,0.015-0.001h60.66c0.698,0.148,2.966,2.749,2.966,7.5
	c0,4.764-2.279,7.366-2.958,7.5H145.969z M261.97,85.5l1.53,2.499V134.5h-15V87.999l1.53-2.499H261.97z M278.5,112.501
	l13.467,21.999H278.5V112.501z M233.5,134.5h-13.467l13.467-21.999V134.5z M366.042,134.5h-56.487l-29.997-49h9.148l101.505,49
	H366.042z M248.5,22.49c0-4.13,3.36-7.49,7.51-7.49c4.13,0,7.49,3.36,7.49,7.49V40.5h-15V22.49z M221,55.5h70
	c4.136,0,7.5,3.364,7.5,7.5s-3.364,7.5-7.5,7.5h-70c-4.136,0-7.5-3.364-7.5-7.5S216.864,55.5,221,55.5z M223.293,85.5h9.148
	l-29.997,49h-56.487h-24.17L223.293,85.5z M63.5,157c0-4.136,3.364-7.5,7.5-7.5h17.978c0.01,0,0.019,0.002,0.028,0.002
	c0.012,0,0.023-0.002,0.035-0.002h39.949c-0.64,2.337-0.99,4.857-0.99,7.5s0.35,5.163,0.99,7.5H71
	C66.864,164.5,63.5,161.136,63.5,157z M191.5,467v-15H241h30h49.5v15H191.5z"/>
<g>
</g>
<g>
</g>
<g>
</g>
<g>
</g>
<g>
</g>
<g>
</g>
<g>
</g>
<g>
</g>
<g>
</g>
<g>
</g>
<g>
</g>
<g>
</g>
<g>
</g>
<g>
</g>
<g>
</g>
</svg>
