<?xml version="1.0" encoding="iso-8859-1"?>
<!-- Generator: Adobe Illustrator 19.0.0, SVG Export Plug-In . SVG Version: 6.00 Build 0)  -->
<svg version="1.1" id="Capa_1" xmlns="http://www.w3.org/2000/svg" xmlns:xlink="http://www.w3.org/1999/xlink" x="0px" y="0px"
	 viewBox="0 0 512 512" style="enable-background:new 0 0 512 512;" xml:space="preserve">
<path style="fill:#4077BA;" d="M457.7,344H326.81c0-39.03-31.76-70.78-70.81-70.78s-70.81,31.75-70.81,70.78H54.3
	c0-9.06,0.6-17.97,1.77-26.71c4.79-36.07,19.16-69.15,40.46-96.6c10.67-13.76,23.08-26.11,36.89-36.7h0.01
	c27.49-21.1,60.54-35.28,96.54-39.94c8.52-1.1,17.21-1.67,26.03-1.67s17.51,0.57,26.03,1.67c36,4.66,69.05,18.84,96.54,39.94h0.01
	c13.81,10.59,26.22,22.94,36.89,36.7c21.3,27.45,35.67,60.53,40.46,96.6C457.1,326.03,457.7,334.94,457.7,344z"/>
<path style="fill:#4A8BD9;" d="M356.84,344h-30.03c0-39.03-31.76-70.78-70.81-70.78s-70.81,31.75-70.81,70.78h-30.03
	c0-55.58,45.24-100.8,100.84-100.8S356.84,288.42,356.84,344z"/>
<path style="fill:#A96458;" d="M489.5,374h-467c-8.284,0-15-6.716-15-15l0,0c0-8.284,6.716-15,15-15h467c8.284,0,15,6.716,15,15l0,0
	C504.5,367.285,497.784,374,489.5,374z"/>
<path style="fill:#895C62;" d="M489.5,344h-30c8.284,0,15,6.716,15,15s-6.716,15-15,15h30c8.284,0,15-6.716,15-15
	S497.784,344,489.5,344z"/>
<path style="fill:#55A1FB;" d="M462,317.29h-16.07c-8.7,0-15.76,7.06-15.76,15.76V344H326.81c0-39.03-31.76-70.78-70.81-70.78
	s-70.81,31.75-70.81,70.78H81.83v-10.95c0-8.7-7.06-15.76-15.76-15.76H50c4.85-37.76,19.85-72.35,42.18-100.94l4.35,4.34l6.76,6.76
	c6.16,6.16,16.15,6.16,22.3,0l14.51-14.5c6.15-6.15,6.15-16.14,0-22.29l-6.67-6.67h-0.01l-4.34-4.35
	c28.62-22.12,63.19-36.94,100.89-41.64v15.45c0,8.7,7.06,15.76,15.77,15.76h20.52c8.71,0,15.77-7.06,15.77-15.76V138
	c37.7,4.7,72.27,19.52,100.89,41.64l-4.34,4.35h-0.01l-6.67,6.67c-6.15,6.15-6.15,16.14,0,22.29l14.51,14.5
	c6.15,6.16,16.14,6.16,22.3,0l6.76-6.76l4.35-4.34C442.15,244.94,457.15,279.53,462,317.29z"/>
<path style="fill:#686370;" d="M356.84,344h-30.03c0-39.03-31.76-70.78-70.81-70.78s-70.81,31.75-70.81,70.78h-30.03
	c0-55.58,45.24-100.8,100.84-100.8S356.84,288.42,356.84,344z"/>
<path d="M489.5,336.5h-24.438c-0.144-4.036-0.407-8.065-0.782-12.069c1.281-0.409,2.443-1.156,3.35-2.187
	c1.424-1.618,2.083-3.771,1.808-5.909c-4.891-38.084-20.005-74.255-43.707-104.601c-1.322-1.692-3.306-2.737-5.448-2.869
	c-1.41-0.092-2.801,0.232-4.023,0.893c-8.099-9.649-17.047-18.553-26.727-26.594c0.648-1.217,0.962-2.599,0.871-4.004
	c-0.138-2.149-1.193-4.136-2.897-5.452c-30.392-23.49-66.544-38.411-104.549-43.149c-2.133-0.268-4.279,0.396-5.893,1.82
	c-1.032,0.912-1.777,2.081-2.183,3.367c-12.527-1.118-25.238-1.118-37.764,0c-0.406-1.287-1.151-2.456-2.184-3.367
	c-1.613-1.424-3.759-2.088-5.892-1.82c-38.005,4.738-74.158,19.659-104.549,43.149c-1.704,1.316-2.76,3.303-2.898,5.452
	c-0.09,1.405,0.223,2.787,0.871,4.003c-9.679,8.041-18.628,16.945-26.728,26.595c-1.221-0.659-2.609-0.98-4.022-0.893
	c-2.143,0.132-4.126,1.177-5.448,2.869c-10.437,13.361-19.276,27.937-26.274,43.323c-1.715,3.771-0.048,8.218,3.722,9.933
	c3.768,1.715,8.217,0.047,9.932-3.722c5.34-11.74,11.834-22.977,19.355-33.497l4.982,4.983c4.396,4.395,10.24,6.815,16.457,6.815
	c6.219,0,12.062-2.422,16.448-6.814l14.512-14.502c9.069-9.069,9.069-23.826,0-32.896l-4.863-4.863
	c24.453-17.282,52.481-28.85,81.93-33.815v6.772c0,12.825,10.439,23.26,23.27,23.26h20.52c12.831,0,23.271-10.435,23.271-23.26
	v-6.772c29.448,4.966,57.477,16.533,81.93,33.815l-4.863,4.863c-9.069,9.07-9.069,23.827,0.002,32.898l14.505,14.495
	c4.392,4.397,10.234,6.819,16.453,6.819c6.216,0,12.061-2.42,16.457-6.816l4.981-4.982c17.468,24.438,29.199,52.496,34.294,82.019
	h-7.359c-12.825,0-23.26,10.435-23.26,23.26v3.45h-58.596c-1.292-18.76-7.413-36.772-17.913-52.491
	c-2.3-3.444-6.957-4.372-10.402-2.07c-3.444,2.301-4.371,6.958-2.07,10.402c8.846,13.243,14.089,28.377,15.353,44.159h-15.087
	c-3.551-37.18-33.23-66.857-70.421-70.421c-2.479-0.238-4.992-0.359-7.533-0.359c-40.65,0-74.166,31.121-77.954,70.78H162.96
	c3.833-47.952,44.099-85.8,93.041-85.8c21.333,0,42.204,7.412,58.77,20.872c3.215,2.61,7.939,2.122,10.551-1.092
	c2.611-3.215,2.123-7.938-1.092-10.551c-19.231-15.624-43.462-24.229-68.229-24.229c-57.216,0-104.209,44.569-108.075,100.8H89.33
	v-3.45c0-12.825-10.434-23.26-23.26-23.26h-7.36c1.143-6.629,2.622-13.21,4.419-19.653c1.113-3.99-1.219-8.126-5.209-9.239
	c-3.991-1.112-8.127,1.221-9.239,5.21c-2.752,9.869-4.812,20.039-6.12,30.227c-0.274,2.138,0.384,4.291,1.808,5.909
	c0.907,1.031,2.069,1.778,3.35,2.187c-0.375,4.004-0.637,8.033-0.781,12.069H22.5C10.093,336.5,0,346.594,0,359
	s10.093,22.5,22.5,22.5h265.75c4.143,0,7.5-3.357,7.5-7.5s-3.357-7.5-7.5-7.5H22.5c-4.136,0-7.5-3.364-7.5-7.5s3.364-7.5,7.5-7.5
	h31.8h27.53h73.33h30.03h141.62h0.001h30.029h73.33h27.53h31.8c4.136,0,7.5,3.364,7.5,7.5s-3.364,7.5-7.5,7.5H320.25
	c-4.143,0-7.5,3.357-7.5,7.5s3.357,7.5,7.5,7.5H489.5c12.406,0,22.5-10.094,22.5-22.5S501.906,336.5,489.5,336.5z M134.798,207.646
	l-14.515,14.505c-1.558,1.561-3.631,2.419-5.839,2.419c-2.21,0-4.288-0.86-5.85-2.422l-2.004-2.002
	c7.912-9.523,16.708-18.279,26.261-26.128l1.946,1.946C138.018,199.185,138.018,204.426,134.798,207.646z M266.26,161.71h-20.52
	c-4.56,0-8.27-3.705-8.27-8.26v-2.688c12.283-1.161,24.776-1.161,37.06,0v2.687C274.53,158.005,270.82,161.71,266.26,161.71z
	 M397.557,224.57c-2.208,0-4.282-0.858-5.845-2.424l-14.508-14.499c-1.559-1.558-2.417-3.632-2.417-5.842
	c0-2.209,0.858-4.283,2.417-5.841l1.944-1.945c9.553,7.85,18.35,16.604,26.262,26.126l-2.003,2.001
	C401.845,223.709,399.767,224.57,397.557,224.57z M62.76,324.79h3.31c4.555,0,8.26,3.705,8.26,8.26v3.45H61.944
	C62.095,332.581,62.376,328.672,62.76,324.79z M256,280.72c2.182,0,4.338,0.111,6.464,0.327
	c29.41,2.994,52.912,26.199,56.386,55.453h-125.7C196.875,305.132,223.631,280.72,256,280.72z M437.67,336.5v-3.45
	c0-4.555,3.705-8.26,8.26-8.26h3.31c0.384,3.882,0.666,7.791,0.816,11.71L437.67,336.5L437.67,336.5z"/>
<g>
</g>
<g>
</g>
<g>
</g>
<g>
</g>
<g>
</g>
<g>
</g>
<g>
</g>
<g>
</g>
<g>
</g>
<g>
</g>
<g>
</g>
<g>
</g>
<g>
</g>
<g>
</g>
<g>
</g>
</svg>
