<?xml version="1.0" encoding="iso-8859-1"?>
<!-- Generator: Adobe Illustrator 19.0.0, SVG Export Plug-In . SVG Version: 6.00 Build 0)  -->
<svg version="1.1" id="Capa_1" xmlns="http://www.w3.org/2000/svg" xmlns:xlink="http://www.w3.org/1999/xlink" x="0px" y="0px"
	 viewBox="0 0 512 512" style="enable-background:new 0 0 512 512;" xml:space="preserve">
<path style="fill:#2CE565;" d="M446,230H66c-8.284,0-15-6.716-15-15l0,0c0-8.284,6.716-15,15-15h380c8.284,0,15,6.716,15,15l0,0
	C461,223.284,454.284,230,446,230z"/>
<path style="fill:#25C799;" d="M446,200h-30c8.284,0,15,6.716,15,15s-6.716,15-15,15h30c8.284,0,15-6.716,15-15S454.284,200,446,200
	z"/>
<g>
	<path style="fill:#55A1FB;" d="M160.667,176.81V200h-80v-70c0-5.523,4.477-10,10-10h10c5.523,0,10,4.477,10,10v30
		c0,5.523,4.477,10,10,10h33.19C157.618,170,160.667,173.049,160.667,176.81z"/>
	<path style="fill:#55A1FB;" d="M145.667,260L145.667,260c-8.284,0-15-6.716-15-15v-15h30v15
		C160.667,253.284,153.951,260,145.667,260z"/>
	<path style="fill:#55A1FB;" d="M429.67,130v70h-80v-23.19c0-3.76,3.05-6.81,6.81-6.81h33.19c5.52,0,10-4.48,10-10v-30
		c0-5.52,4.47-10,10-10h10C425.19,120,429.67,124.48,429.67,130z"/>
	<path style="fill:#55A1FB;" d="M364.667,260L364.667,260c8.284,0,15-6.716,15-15v-15h-30v15
		C349.667,253.284,356.382,260,364.667,260z"/>
</g>
<path style="fill:#4A8BD9;" d="M429.67,130v70h-30v-70c0-5.52,4.47-10,10-10h10C425.19,120,429.67,124.48,429.67,130z"/>
<path style="fill:#A96458;" d="M489.5,392h-467c-8.284,0-15-6.716-15-15l0,0c0-8.284,6.716-15,15-15h467c8.284,0,15,6.716,15,15l0,0
	C504.5,385.284,497.784,392,489.5,392z"/>
<path style="fill:#895C62;" d="M489.5,362h-30c8.284,0,15,6.716,15,15s-6.716,15-15,15h30c8.284,0,15-6.716,15-15
	S497.784,362,489.5,362z"/>
<rect x="186" y="320" style="fill:#55A1FB;" width="140" height="42"/>
<rect x="296" y="320" style="fill:#4A8BD9;" width="30" height="42"/>
<path style="fill:#686370;" d="M271,320h-30c-8.284,0-15-6.716-15-15l0,0c0-8.284,6.716-15,15-15h30c8.284,0,15,6.716,15,15l0,0
	C286,313.284,279.284,320,271,320z"/>
<path style="fill:#56525B;" d="M271,290h-30c8.284,0,15,6.716,15,15s-6.716,15-15,15h30c8.284,0,15-6.716,15-15S279.284,290,271,290
	z"/>
<path style="fill:#686370;" d="M271,290h-30c-8.284,0-15-6.716-15-15l0,0c0-8.284,6.716-15,15-15h30c8.284,0,15,6.716,15,15l0,0
	C286,283.284,279.284,290,271,290z"/>
<path style="fill:#56525B;" d="M271,260h-30c8.284,0,15,6.716,15,15s-6.716,15-15,15h30c8.284,0,15-6.716,15-15S279.284,260,271,260
	z"/>
<path style="fill:#686370;" d="M271,260h-30c-8.284,0-15-6.716-15-15l0,0c0-8.284,6.716-15,15-15h30c8.284,0,15,6.716,15,15l0,0
	C286,253.284,279.284,260,271,260z"/>
<path style="fill:#56525B;" d="M271,230h-30c8.284,0,15,6.716,15,15s-6.716,15-15,15h30c8.284,0,15-6.716,15-15S279.284,230,271,230
	z"/>
<path d="M446,222.5H66c-4.136,0-7.5-3.364-7.5-7.5s3.364-7.5,7.5-7.5l0,0h125.5l0,0c4.143,0,7.5-3.358,7.5-7.5s-3.357-7.5-7.5-7.5
	h-23.333v-15.69c0-7.891-6.42-14.31-14.311-14.31h-33.189c-1.379,0-2.5-1.122-2.5-2.5v-30c0-9.649-7.851-17.5-17.5-17.5h-10
	c-9.649,0-17.5,7.851-17.5,17.5v30c0,4.142,3.357,7.5,7.5,7.5s7.5-3.358,7.5-7.5v-30c0-1.378,1.121-2.5,2.5-2.5h10
	c1.379,0,2.5,1.122,2.5,2.5v30c0,9.649,7.851,17.5,17.5,17.5h32.5v15h-65V192c0-4.142-3.357-7.5-7.5-7.5s-7.5,3.358-7.5,7.5v0.5H66
	c-12.406,0-22.5,10.093-22.5,22.5s10.094,22.5,22.5,22.5h57.167v7.5c0,12.407,10.094,22.5,22.5,22.5s22.5-10.093,22.5-22.5v-7.5
	h51.623c-0.833,2.347-1.29,4.871-1.29,7.5c0,5.758,2.177,11.016,5.748,15c-3.571,3.984-5.748,9.242-5.748,15s2.177,11.016,5.748,15
	c-3.571,3.984-5.748,9.242-5.748,15c0,2.629,0.458,5.153,1.29,7.5H186c-4.143,0-7.5,3.358-7.5,7.5v34.5h-156
	C10.094,354.5,0,364.593,0,377s10.094,22.5,22.5,22.5h467c12.406,0,22.5-10.093,22.5-22.5s-10.094-22.5-22.5-22.5H384.667
	c-4.143,0-7.5,3.358-7.5,7.5s3.357,7.5,7.5,7.5H489.5c4.136,0,7.5,3.364,7.5,7.5s-3.364,7.5-7.5,7.5h-467
	c-4.136,0-7.5-3.364-7.5-7.5s3.364-7.5,7.5-7.5H352l0,0l0,0c4.143,0,7.5-3.358,7.5-7.5s-3.357-7.5-7.5-7.5h-18.5V320
	c0-4.142-3.357-7.5-7.5-7.5h-33.79c0.833-2.347,1.29-4.871,1.29-7.5c0-5.758-2.177-11.016-5.748-15
	c3.571-3.984,5.748-9.242,5.748-15s-2.177-11.016-5.748-15c3.571-3.984,5.748-9.242,5.748-15c0-2.629-0.458-5.153-1.29-7.5h49.957
	v7.5c0,12.407,10.094,22.5,22.5,22.5s22.5-10.093,22.5-22.5v-7.5H446c12.406,0,22.5-10.093,22.5-22.5s-10.094-22.5-22.5-22.5h-8.833
	V130c0-9.649-7.851-17.5-17.5-17.5h-10c-9.649,0-17.5,7.851-17.5,17.5v30c0,1.378-1.121,2.5-2.5,2.5h-33.19
	c-7.891,0-14.31,6.419-14.31,14.31v15.69H224.188c-4.143,0-7.5,3.358-7.5,7.5s3.357,7.5,7.5,7.5H446l0,0l0,0
	c4.136,0,7.5,3.364,7.5,7.5S450.136,222.5,446,222.5 M357.167,192.5v-15h32.5c9.649,0,17.5-7.851,17.5-17.5v-30
	c0-1.378,1.121-2.5,2.5-2.5h10c1.379,0,2.5,1.122,2.5,2.5v62.5H357.167z M233.5,275c0-4.136,3.364-7.5,7.5-7.5h30
	c4.136,0,7.5,3.364,7.5,7.5s-3.364,7.5-7.5,7.5h-30C236.864,282.5,233.5,279.136,233.5,275z M372.167,237.5v7.5
	c0,4.136-3.364,7.5-7.5,7.5s-7.5-3.364-7.5-7.5v-7.5H372.167z M153.167,245c0,4.136-3.364,7.5-7.5,7.5s-7.5-3.364-7.5-7.5v-7.5h15
	V245z M271,237.5c4.136,0,7.5,3.364,7.5,7.5s-3.364,7.5-7.5,7.5h-30c-4.136,0-7.5-3.364-7.5-7.5s3.364-7.5,7.5-7.5H271z M233.5,305
	c0-4.136,3.364-7.5,7.5-7.5h30c4.136,0,7.5,3.364,7.5,7.5s-3.364,7.5-7.5,7.5h-30C236.864,312.5,233.5,309.136,233.5,305z
	 M193.5,327.5L193.5,327.5h125l0,0v27h-125V327.5z"/>
<g>
</g>
<g>
</g>
<g>
</g>
<g>
</g>
<g>
</g>
<g>
</g>
<g>
</g>
<g>
</g>
<g>
</g>
<g>
</g>
<g>
</g>
<g>
</g>
<g>
</g>
<g>
</g>
<g>
</g>
</svg>
