<?xml version="1.0" encoding="iso-8859-1"?>
<!-- Generator: Adobe Illustrator 19.0.0, SVG Export Plug-In . SVG Version: 6.00 Build 0)  -->
<svg version="1.1" id="Capa_1" xmlns="http://www.w3.org/2000/svg" xmlns:xlink="http://www.w3.org/1999/xlink" x="0px" y="0px"
	 viewBox="0 0 512 512" style="enable-background:new 0 0 512 512;" xml:space="preserve">
<rect x="69" y="41" style="fill:#686370;" width="374" height="30"/>
<rect x="413" y="41" style="fill:#56525B;" width="30" height="30"/>
<g>
	<path style="fill:#CE7A56;" d="M69,479.5H39v-457c0-8.284,6.716-15,15-15l0,0c8.284,0,15,6.716,15,15V479.5z"/>
	<path style="fill:#CE7A56;" d="M473,479.5h-30v-457c0-8.284,6.716-15,15-15l0,0c8.284,0,15,6.716,15,15V479.5z"/>
</g>
<path style="fill:#45414A;" d="M256,272.031c-45.287,0-82,36.713-82,82s36.713,82,82,82s82-36.713,82-82
	S301.287,272.031,256,272.031z M256,406.031c-28.673,0-52-23.327-52-52s23.327-52,52-52s52,23.327,52,52
	S284.673,406.031,256,406.031z"/>
<g>
	<rect x="24" y="404.5" style="fill:#FF44AF;" width="60" height="70"/>
	<rect x="428" y="404.5" style="fill:#FF44AF;" width="60" height="70"/>
</g>
<g>
	<rect x="54" y="404.5" style="fill:#FF119A;" width="30" height="70"/>
	<rect x="458" y="404.5" style="fill:#FF119A;" width="30" height="70"/>
</g>
<path style="fill:#A96458;" d="M489.5,504.5h-467c-8.284,0-15-6.716-15-15l0,0c0-8.284,6.716-15,15-15h467c8.284,0,15,6.716,15,15
	l0,0C504.5,497.784,497.784,504.5,489.5,504.5z"/>
<path style="fill:#895C62;" d="M489.5,474.5h-30c8.284,0,15,6.716,15,15s-6.716,15-15,15h30c8.284,0,15-6.716,15-15
	S497.784,474.5,489.5,474.5z"/>
<path d="M256,294.531c-32.809,0-59.5,26.691-59.5,59.5s26.691,59.5,59.5,59.5s59.5-26.691,59.5-59.5S288.809,294.531,256,294.531z
	 M256,398.531c-24.538,0-44.5-19.962-44.5-44.5s19.962-44.5,44.5-44.5s44.5,19.962,44.5,44.5S280.538,398.531,256,398.531z"/>
<path d="M495.5,467.819V404.5c0-4.142-3.358-7.5-7.5-7.5h-7.5V127.75c0-4.142-3.358-7.5-7.5-7.5s-7.5,3.358-7.5,7.5V397h-15V22.5
	l0,0l0,0c0-4.136,3.364-7.5,7.5-7.5c2,0,3.878,0.779,5.306,2.213c1.415,1.409,2.194,3.287,2.194,5.287v73.25
	c0,4.142,3.358,7.5,7.5,7.5s7.5-3.358,7.5-7.5V22.5c0-6.017-2.346-11.668-6.587-15.894C469.668,2.346,464.017,0,458,0
	c-12.407,0-22.5,10.093-22.5,22.5v11h-359v-11c0-6.017-2.346-11.668-6.587-15.894C65.668,2.346,60.017,0,54,0
	C41.593,0,31.5,10.093,31.5,22.5v329.167c0,4.142,3.358,7.5,7.5,7.5s7.5-3.358,7.5-7.5V22.5c0-4.136,3.364-7.5,7.5-7.5
	c2,0,3.878,0.779,5.306,2.213C60.721,18.622,61.5,20.5,61.5,22.5l0,0l0,0V397h-15v-13c0-4.142-3.358-7.5-7.5-7.5s-7.5,3.358-7.5,7.5
	v13H24c-4.142,0-7.5,3.358-7.5,7.5v63.319C6.998,470.452,0,479.171,0,489.5C0,501.907,10.093,512,22.5,512h467
	c12.407,0,22.5-10.093,22.5-22.5C512,479.171,505.002,470.452,495.5,467.819z M480.5,412v55h-45v-55H480.5z M435.5,63.5h-126v-15
	h126V63.5z M256,264.531c-13.775,0-26.832,3.131-38.5,8.714V78.5h77v194.745C282.832,267.662,269.775,264.531,256,264.531z
	 M217.5,63.5v-15h77v15H217.5z M202.5,48.5v15h-126v-15H202.5z M76.5,78.5h126v203.824c-21.839,16.335-36,42.399-36,71.708
	c0,49.351,40.149,89.5,89.5,89.5c21.773,0,42.759-7.912,59.09-22.278c3.11-2.736,3.414-7.475,0.678-10.585
	s-7.475-3.413-10.585-0.678c-13.592,11.957-31.059,18.541-49.183,18.541c-41.08,0-74.5-33.42-74.5-74.5s33.42-74.5,74.5-74.5
	s74.5,33.42,74.5,74.5c0,10.902-2.299,21.405-6.833,31.216c-1.738,3.76-0.099,8.217,3.662,9.955c3.76,1.735,8.216,0.098,9.955-3.662
	c5.453-11.797,8.217-24.417,8.217-37.509c0-29.309-14.161-55.372-36-71.708V78.5h126V397H428c-4.142,0-7.5,3.358-7.5,7.5V467h-329
	v-62.5c0-4.142-3.358-7.5-7.5-7.5h-7.5V78.5z M31.5,412h45v55h-45V412z M489.5,497h-467c-4.136,0-7.5-3.364-7.5-7.5
	s3.364-7.5,7.5-7.5l0,0H488l0,0l0,0h1.5c4.136,0,7.5,3.364,7.5,7.5S493.636,497,489.5,497z"/>
<g>
</g>
<g>
</g>
<g>
</g>
<g>
</g>
<g>
</g>
<g>
</g>
<g>
</g>
<g>
</g>
<g>
</g>
<g>
</g>
<g>
</g>
<g>
</g>
<g>
</g>
<g>
</g>
<g>
</g>
</svg>
