<?xml version="1.0" encoding="iso-8859-1"?>
<!-- Generator: Adobe Illustrator 19.0.0, SVG Export Plug-In . SVG Version: 6.00 Build 0)  -->
<svg version="1.1" id="Capa_1" xmlns="http://www.w3.org/2000/svg" xmlns:xlink="http://www.w3.org/1999/xlink" x="0px" y="0px"
	 viewBox="0 0 512 512" style="enable-background:new 0 0 512 512;" xml:space="preserve">
<path style="fill:#DF905B;" d="M467,276H45c-8.284,0-15-6.716-15-15l0,0c0-8.284,6.716-15,15-15h422c8.284,0,15,6.716,15,15l0,0
	C482,269.284,475.284,276,467,276z"/>
<path style="fill:#CE7A56;" d="M467,246h-30c8.284,0,15,6.716,15,15s-6.716,15-15,15h30c8.284,0,15-6.716,15-15S475.284,246,467,246
	z"/>
<path style="fill:#A96458;" d="M489.5,380h-467c-8.284,0-15-6.716-15-15l0,0c0-8.284,6.716-15,15-15h467c8.284,0,15,6.716,15,15l0,0
	C504.5,373.284,497.784,380,489.5,380z"/>
<path style="fill:#895C62;" d="M489.5,350h-30c8.284,0,15,6.716,15,15s-6.716,15-15,15h30c8.284,0,15-6.716,15-15
	S497.784,350,489.5,350z"/>
<g>
	<rect x="55.5" y="276" style="fill:#CE7A56;" width="30" height="74"/>
	<rect x="426.5" y="276" style="fill:#CE7A56;" width="30" height="74"/>
	<rect x="55.5" y="202.44" style="fill:#CE7A56;" width="30" height="43.556"/>
	<rect x="426.5" y="202.44" style="fill:#CE7A56;" width="30" height="43.556"/>
</g>
<rect x="85.5" y="276" style="fill:#FFDC5A;" width="341" height="40"/>
<rect x="396.5" y="276" style="fill:#FFC843;" width="30" height="40"/>
<rect x="44" y="132" style="fill:#55A1FB;" width="424" height="70"/>
<rect x="438" y="132" style="fill:#4A8BD9;" width="30" height="70"/>
<rect x="85.5" y="276" style="fill:#27EEFF;" width="341" height="40"/>
<rect x="396.5" y="276" style="fill:#00DCFF;" width="30" height="40"/>
<path d="M489.5,342.5H464v-59h3c12.406,0,22.5-10.093,22.5-22.5s-10.094-22.5-22.5-22.5h-3v-29h4c4.143,0,7.5-3.358,7.5-7.5v-70
	c0-4.142-3.357-7.5-7.5-7.5H96.5c-4.143,0-7.5,3.358-7.5,7.5s3.357,7.5,7.5,7.5h364v55h-409v-55h13c4.143,0,7.5-3.358,7.5-7.5
	s-3.357-7.5-7.5-7.5H44c-4.143,0-7.5,3.358-7.5,7.5v70c0,4.142,3.357,7.5,7.5,7.5h4v29h-3c-12.406,0-22.5,10.093-22.5,22.5
	c0,12.407,10.094,22.5,22.5,22.5h3v59H22.5C10.094,342.5,0,352.593,0,365s10.094,22.5,22.5,22.5h41.833c4.143,0,7.5-3.358,7.5-7.5
	s-3.357-7.5-7.5-7.5H22.5c-4.136,0-7.5-3.364-7.5-7.5s3.364-7.5,7.5-7.5h33h30h341h30h33c4.136,0,7.5,3.364,7.5,7.5
	s-3.364,7.5-7.5,7.5H96.167c-4.143,0-7.5,3.358-7.5,7.5s3.357,7.5,7.5,7.5H489.5c12.406,0,22.5-10.093,22.5-22.5
	S501.906,342.5,489.5,342.5z M449,238.5h-15v-28.556h15V238.5z M419,209.5v29H93v-29H419z M63,209.944h15V238.5H63V209.944z
	 M37.5,261c0-4.136,3.364-7.5,7.5-7.5h10.5h30h341h30H467c4.136,0,7.5,3.364,7.5,7.5s-3.364,7.5-7.5,7.5h-10.5h-30h-341h-30H45
	C40.864,268.5,37.5,265.136,37.5,261z M419,308.5h-34.75c-4.143,0-7.5,3.358-7.5,7.5s3.357,7.5,7.5,7.5H419v19H93v-19h258.25
	c4.143,0,7.5-3.358,7.5-7.5s-3.357-7.5-7.5-7.5H93v-25h326V308.5z M63,342.5v-59h15V316v26.5H63z M434,342.5V316v-32.5h15v59H434z"
	/>
<g>
</g>
<g>
</g>
<g>
</g>
<g>
</g>
<g>
</g>
<g>
</g>
<g>
</g>
<g>
</g>
<g>
</g>
<g>
</g>
<g>
</g>
<g>
</g>
<g>
</g>
<g>
</g>
<g>
</g>
</svg>
