<?xml version="1.0" encoding="iso-8859-1"?>
<!-- Generator: Adobe Illustrator 19.0.0, SVG Export Plug-In . SVG Version: 6.00 Build 0)  -->
<svg version="1.1" id="Capa_1" xmlns="http://www.w3.org/2000/svg" xmlns:xlink="http://www.w3.org/1999/xlink" x="0px" y="0px"
	 viewBox="0 0 512 512" style="enable-background:new 0 0 512 512;" xml:space="preserve">
<path style="fill:#27EEFF;" d="M326.001,394h-140V275.862c0-38.584,31.278-69.862,69.862-69.862h0.277
	c38.583,0,69.861,31.278,69.861,69.862V394z"/>
<path style="fill:#00DCFF;" d="M256.139,206h-0.277c-5.102,0-10.071,0.561-14.862,1.6c31.441,6.814,55,34.78,55,68.262V394h30
	V275.862C326.001,237.278,294.723,206,256.139,206z"/>
<g>
	<path style="fill:#FF44AF;" d="M211.001,504.5L211.001,504.5c-13.807,0-25-11.193-25-25V394h50v85.5
		C236.001,493.307,224.808,504.5,211.001,504.5z"/>
	<path style="fill:#FF44AF;" d="M301.001,504.5L301.001,504.5c-13.807,0-25-11.193-25-25V394h50v85.5
		C326.001,493.307,314.808,504.5,301.001,504.5z"/>
</g>
<g>
	<path style="fill:#F7D3A3;" d="M236.001,394v85.5c0,13.81-11.19,25-25,25s-25-11.19-25-25V394H236.001z"/>
	<path style="fill:#F7D3A3;" d="M326.001,394v85.5c0,13.81-11.19,25-25,25s-25-11.19-25-25V394H326.001z"/>
</g>
<path style="fill:#E8BC82;" d="M296.001,394v85.5c0,8.181-3.928,15.442-10,20.002c4.178,3.138,9.371,4.998,15,4.998
	c13.81,0,25-11.19,25-25V394H296.001z"/>
<path style="fill:#686370;" d="M236.001,450.5v29c0,13.81-11.19,25-25,25s-25-11.19-25-25v-29H236.001z"/>
<g>
	<path style="fill:#F7D3A3;" d="M226.001,330.275v23.63c0,11.253-8.952,20.37-20,20.37s-20-9.118-20-20.37v-23.63H226.001z"/>
	<path style="fill:#F7D3A3;" d="M326.001,330.275v23.63c0,11.253-8.952,20.37-20,20.37s-20-9.118-20-20.37v-23.63H326.001z"/>
</g>
<path style="fill:#686370;" d="M326.001,450.5v29c0,13.81-11.19,25-25,25s-25-11.19-25-25v-29H326.001z"/>
<path style="fill:#56525B;" d="M296.001,450.5v29c0,8.181-3.928,15.442-10,20.002c4.178,3.138,9.371,4.998,15,4.998
	c13.81,0,25-11.19,25-25v-29H296.001z"/>
<path style="fill:#E8BC82;" d="M206.001,394v85.5c0,8.181-3.928,15.442-10,20.002c4.178,3.138,9.371,4.998,15,4.998
	c13.81,0,25-11.19,25-25V394H206.001z"/>
<path style="fill:#56525B;" d="M206.001,450.5v29c0,8.181-3.928,15.442-10,20.002c4.178,3.138,9.371,4.998,15,4.998
	c13.81,0,25-11.19,25-25v-29H206.001z"/>
<path style="fill:#F7D3A3;" d="M352.967,129.651c0,51.831-46.782,93.849-97.584,93.849s-97.584-42.018-97.584-93.849
	s22.531-93.849,97.584-93.849S352.967,77.82,352.967,129.651z"/>
<path style="fill:#E8BC82;" d="M255.383,35.802c-5.073,0-9.898,0.198-14.5,0.572c63.488,5.159,83.084,44.949,83.084,93.277
	c0,46.849-38.221,85.677-83.084,92.709c4.771,0.748,9.617,1.14,14.5,1.14c50.802,0,97.584-42.018,97.584-93.849
	S330.436,35.802,255.383,35.802z"/>
<path style="fill:#FFDC5A;" d="M316.695,50.189c0,0-25.094,74.971-158.897,79.462c-6.835,0.229-16.835-14.988-16.797-38.436
	C141.065,51.476,174.994,7.5,264.608,7.5C308.059,7.5,314.964,28.581,316.695,50.189z"/>
<path style="fill:#FFC843;" d="M264.608,7.5c-6.537,0-12.768,0.24-18.721,0.69c26.78,3.123,35.286,16.646,38.294,32.195
	c1.253,6.474,0.169,13.194-3.128,18.904c-10.576,18.312-43.14,58.692-127.988,68.422c1.637,1.316,3.259,1.99,4.734,1.94
	c133.802-4.491,158.896-79.462,158.896-79.462C314.964,28.581,308.059,7.5,264.608,7.5z"/>
<path style="fill:#FFDC5A;" d="M316.695,50.189c0,0-11.631,50.598,36.272,79.462c0,0,31.215-23.019,11.51-62.883
	C347.568,32.559,316.695,50.189,316.695,50.189z"/>
<path style="fill:#FFC843;" d="M364.477,66.768c-14.642-29.622-39.75-20.376-46.221-17.364c5.483,3.11,10.81,8.49,15.196,17.364
	c10.285,20.808,6.696,37.023,0.915,47.774c4.89,5.391,10.991,10.525,18.599,15.109C352.967,129.651,384.182,106.632,364.477,66.768z
	"/>
<circle cx="256.011" cy="264.5" r="7.5"/>
<circle cx="256.011" cy="309.5" r="7.5"/>
<path d="M289.933,169.228c-0.153,0.141-15.567,14.105-34.458,14.105c-18.502,0-32.983-13.713-33.239-13.958
	c-2.963-2.883-7.701-2.826-10.592,0.129c-2.897,2.96-2.846,7.709,0.115,10.606c0.76,0.744,18.909,18.223,43.716,18.223
	c24.672,0,43.806-17.324,44.609-18.062c3.05-2.803,3.25-7.547,0.447-10.597C297.727,166.626,292.983,166.424,289.933,169.228z"/>
<path d="M178.503,479.5c0,17.92,14.58,32.5,32.501,32.5s32.501-14.58,32.501-32.5l0,0v-78h25.001v78l0,0
	c0,17.92,14.58,32.5,32.501,32.5s32.501-14.58,32.501-32.5v-39.25l0,0c0-4.142-3.358-7.5-7.5-7.5s-7.5,3.358-7.5,7.5V443h-35.002
	v-41.5h35.002v6.625c0,4.142,3.358,7.5,7.5,7.5s7.5-3.358,7.5-7.5l0,0V275.86l0,0l0,0c0-22.886-9.816-43.981-26.766-58.555
	c7.77-4.346,15.063-9.651,21.631-15.832c19.804-18.635,31.089-42.784,32.034-68.331c3.229-3.008,8.441-8.627,12.428-16.644
	c5.629-11.316,9.915-29.706-1.626-53.054c-6.146-12.434-14.708-20.401-25.449-23.682c-8.552-2.612-16.767-1.617-22.839,0.024
	C319.17,19.609,306.998,0,264.615,0c-42.386,0-77.004,9.9-100.112,28.629C144.55,44.8,133.54,67.023,133.501,91.203
	c-0.034,20.678,6.854,34.728,13.31,40.981c1.246,1.207,2.47,2.13,3.647,2.839c1.416,24.85,12.63,48.272,31.944,66.45
	c6.782,6.383,14.336,11.837,22.391,16.259c-16.65,14.56-26.29,35.497-26.29,58.128v3.953c0,4.142,3.358,7.5,7.5,7.5
	s7.5-3.358,7.5-7.5v-3.953c0-20.608,9.917-39.474,26.698-51.158c11.346,4.11,23.281,6.298,35.185,6.298
	c12.192,0,24.416-2.293,36.007-6.597c17.043,11.667,27.116,30.645,27.116,51.457v46.916h-32.501c-4.142,0-7.5,3.358-7.5,7.5v23.629
	c0,15.368,12.337,27.871,27.501,27.871c4.5,0,8.747-1.108,12.501-3.058v7.783l0,0H193.504l0,0v-7.783
	c3.754,1.95,8.001,3.058,12.501,3.058c15.164,0,27.501-12.503,27.501-27.871v-23.629c0-4.142-3.358-7.5-7.5-7.5h-32.501v-10.9
	c0-4.142-3.358-7.5-7.5-7.5s-7.5,3.358-7.5,7.5V479.5 M318.51,458v21.5c0,9.649-7.851,17.5-17.501,17.5s-17.501-7.851-17.501-17.5
	V458H318.51z M218.505,337.775v16.129c0,7.097-5.608,12.871-12.501,12.871s-12.501-5.774-12.501-12.871v-16.129H218.505z
	 M228.505,479.5c0,9.649-7.851,17.5-17.501,17.5s-17.501-7.851-17.501-17.5V458h35.002L228.505,479.5L228.505,479.5z M228.505,443
	h-35.002v-41.5h35.002V443z M306.009,366.775c-6.893,0-12.501-5.774-12.501-12.871v-16.129h25.001v16.129
	C318.51,361.001,312.902,366.775,306.009,366.775z M318.095,190.549C300.907,206.724,278.051,216,255.387,216
	c-22.663,0-45.517-9.276-62.703-25.45c-15.788-14.859-25.227-33.724-27.05-53.745c21.978-1.205,42.366-4.398,60.693-9.523
	c3.989-1.116,6.319-5.254,5.203-9.243c-1.116-3.989-5.255-6.319-9.243-5.203c-19.114,5.345-40.704,8.474-64.176,9.299
	c-2.377-1.448-9.64-11.449-9.608-30.909c0.032-19.579,9.069-37.671,25.446-50.945C194.354,23.742,225.706,15,264.615,15
	C302,15,307.41,30.918,309.081,49.08c-1.16,2.719-4.382,9.416-10.946,17.62c-7.91,9.887-22.445,24.065-46.774,35.461
	c-3.751,1.757-5.367,6.222-3.61,9.973c1.756,3.751,6.222,5.368,9.974,3.61c25.155-11.784,41.231-26.355,51.225-38.54
	c0.162,1.079,0.346,2.176,0.557,3.287c2.948,15.561,11.614,37.077,35.868,53.208C344.288,154.871,334.699,174.924,318.095,190.549z
	 M352.2,120.215c-31.307-21.815-30.142-54.158-28.764-64.853c3.902-1.496,11.004-3.416,18.055-1.22
	c6.58,2.05,12.056,7.416,16.274,15.949C370.531,95.919,358.751,113.26,352.2,120.215z"/>
<g>
</g>
<g>
</g>
<g>
</g>
<g>
</g>
<g>
</g>
<g>
</g>
<g>
</g>
<g>
</g>
<g>
</g>
<g>
</g>
<g>
</g>
<g>
</g>
<g>
</g>
<g>
</g>
<g>
</g>
</svg>
