<?xml version="1.0" encoding="iso-8859-1"?>
<!-- Generator: Adobe Illustrator 19.0.0, SVG Export Plug-In . SVG Version: 6.00 Build 0)  -->
<svg version="1.1" id="Capa_1" xmlns="http://www.w3.org/2000/svg" xmlns:xlink="http://www.w3.org/1999/xlink" x="0px" y="0px"
	 viewBox="0 0 512 512" style="enable-background:new 0 0 512 512;" xml:space="preserve">
<path style="fill:#2CE565;" d="M446,404.5H66c-8.284,0-15-6.716-15-15l0,0c0-8.284,6.716-15,15-15h380c8.284,0,15,6.716,15,15l0,0
	C461,397.784,454.284,404.5,446,404.5z"/>
<path style="fill:#25C799;" d="M446,374.5h-30c8.284,0,15,6.716,15,15s-6.716,15-15,15h30c8.284,0,15-6.716,15-15
	S454.284,374.5,446,374.5z"/>
<path style="fill:#A96458;" d="M489.5,504.5h-467c-8.284,0-15-6.716-15-15l0,0c0-8.284,6.716-15,15-15h467c8.284,0,15,6.716,15,15
	l0,0C504.5,497.784,497.784,504.5,489.5,504.5z"/>
<path style="fill:#895C62;" d="M489.5,474.5h-30c8.284,0,15,6.716,15,15s-6.716,15-15,15h30c8.284,0,15-6.716,15-15
	S497.784,474.5,489.5,474.5z"/>
<path style="fill:#FFDC5A;" d="M253.985,105.5L253.985,105.5c-23.761,0-43.023-19.262-43.023-43.023V50.523
	c0-23.761,19.262-43.023,43.023-43.023l0,0c23.761,0,43.023,19.262,43.023,43.023v11.953
	C297.009,86.238,277.746,105.5,253.985,105.5z"/>
<path style="fill:#FFC843;" d="M253.985,7.5L253.985,7.5c-5.277,0-10.329,0.954-15,2.692c16.364,6.089,28.023,21.846,28.023,40.331
	v11.953c0,18.485-11.66,34.242-28.023,40.331c4.671,1.738,9.723,2.692,15,2.692l0,0c23.761,0,43.023-19.262,43.023-43.023V50.523
	C297.009,26.762,277.746,7.5,253.985,7.5z"/>
<path style="fill:#FF75C4;" d="M86,374.5c0,0,70.652-50,170-50s170,50,170,50H86z"/>
<path style="fill:#FF44AF;" d="M256,324.5c-5.078,0-10.077,0.137-15,0.385c91.381,4.602,155,49.615,155,49.615h30
	C426,374.5,355.348,324.5,256,324.5z"/>
<circle cx="239.99" cy="47.5" r="7.5"/>
<circle cx="269.99" cy="47.5" r="7.5"/>
<path d="M489.5,467h-22.843l-15.863-55.519c10.11-2.203,17.706-11.219,17.706-21.981c0-12.407-10.094-22.5-22.5-22.5h-17.7
	c-5.542-3.663-22.114-14.016-47.166-24.426C353.057,330.907,308.557,317,256,317s-97.057,13.907-125.134,25.574
	C105.814,352.984,89.242,363.337,83.7,367H66c-12.406,0-22.5,10.093-22.5,22.5c0,9.068,5.396,16.895,13.142,20.454L40.343,467H22.5
	C10.094,467,0,477.093,0,489.5S10.094,512,22.5,512h467c12.406,0,22.5-10.093,22.5-22.5S501.906,467,489.5,467z M327.905,412
	l4.898,55H179.198l4.898-55H327.905z M347.862,467l-4.898-55h92.379l15.714,55H347.862z M66,382h285.833c4.143,0,7.5-3.358,7.5-7.5
	s-3.357-7.5-7.5-7.5H113.844c28.145-14.385,79.425-35,142.156-35c62.577,0,113.904,20.615,142.1,35h-13.767
	c-4.143,0-7.5,3.358-7.5,7.5s3.357,7.5,7.5,7.5h41.654c0.002,0,0.004,0,0.006,0c0.003,0,0.006,0,0.008,0H446
	c4.136,0,7.5,3.364,7.5,7.5s-3.364,7.5-7.5,7.5l0,0c-0.004,0,0.004,0,0,0l0,0c-0.009,0,0.009,0,0,0H66c-0.023,0,0.023,0,0,0l0,0
	c-4.136,0-7.5-3.364-7.5-7.5S61.864,382,66,382z M489.5,497h-467c-4.136,0-7.5-3.364-7.5-7.5s3.364-7.5,7.5-7.5h41.833
	c0.009,0-0.009,0,0,0c0.008,0-0.008,0,0,0l0,0c4.143,0,7.5-3.358,7.5-7.5s-3.357-7.5-7.5-7.5h-8.391l15.714-55h97.379l-4.898,55
	H96.333c-4.143,0-7.5,3.358-7.5,7.5s3.357,7.5,7.5,7.5l0,0c0.003,0,0,0,0.003,0s-0.007,0-0.003,0H489.5c0.003,0-0.003,0,0,0
	c0.004,0-0.003,0,0,0l0,0c0.008,0-0.008,0,0,0c0.009,0-0.009,0,0,0l0,0c4.136,0,7.5,3.364,7.5,7.5S493.636,497,489.5,497z"/>
<path d="M253.985,113c27.858,0,50.523-22.665,50.523-50.523V50.523C304.509,22.665,281.844,0,253.985,0
	s-50.523,22.665-50.523,50.523v11.953C203.462,90.335,226.127,113,253.985,113z M218.462,50.523
	c0-19.588,15.936-35.523,35.523-35.523s35.523,15.936,35.523,35.523v11.953c0,19.588-15.936,35.523-35.523,35.523
	s-35.523-15.936-35.523-35.523V50.523z"/>
<path d="M289.5,148.492v128.393c0,4.142,3.357,7.5,7.5,7.5s7.5-3.358,7.5-7.5V148.492c0-4.142-3.357-7.5-7.5-7.5
	S289.5,144.35,289.5,148.492z"/>
<path d="M222.5,148.492c0-4.142-3.357-7.5-7.5-7.5s-7.5,3.358-7.5,7.5v75.175c0,4.142,3.357,7.5,7.5,7.5s7.5-3.358,7.5-7.5V148.492z
	"/>
<path d="M215,248.833c-4.143,0-7.5,3.358-7.5,7.5v20.551c0,4.142,3.357,7.5,7.5,7.5s7.5-3.358,7.5-7.5v-20.551
	C222.5,252.191,219.143,248.833,215,248.833z"/>
<path d="M248.5,148.492v128.393c0,4.142,3.357,7.5,7.5,7.5s7.5-3.358,7.5-7.5V148.492c0-4.142-3.357-7.5-7.5-7.5
	S248.5,144.35,248.5,148.492z"/>
<circle cx="239.99" cy="47.5" r="7.5"/>
<circle cx="269.99" cy="47.5" r="7.5"/>
<g>
</g>
<g>
</g>
<g>
</g>
<g>
</g>
<g>
</g>
<g>
</g>
<g>
</g>
<g>
</g>
<g>
</g>
<g>
</g>
<g>
</g>
<g>
</g>
<g>
</g>
<g>
</g>
<g>
</g>
</svg>
