<?xml version="1.0" encoding="iso-8859-1"?>
<!-- Generator: Adobe Illustrator 19.0.0, SVG Export Plug-In . SVG Version: 6.00 Build 0)  -->
<svg version="1.1" id="Capa_1" xmlns="http://www.w3.org/2000/svg" xmlns:xlink="http://www.w3.org/1999/xlink" x="0px" y="0px"
	 viewBox="0 0 512 512" style="enable-background:new 0 0 512 512;" xml:space="preserve">
<path style="fill:#FFDC5A;" d="M446,366H66c-8.284,0-15-6.716-15-15l0,0c0-8.284,6.716-15,15-15h380c8.284,0,15,6.716,15,15l0,0
	C461,359.284,454.284,366,446,366z"/>
<path style="fill:#FFC843;" d="M446,336h-30c8.284,0,15,6.716,15,15s-6.716,15-15,15h30c8.284,0,15-6.716,15-15S454.284,336,446,336
	z"/>
<path style="fill:#FFDC5A;" d="M467,166H45c-8.284,0-15-6.716-15-15l0,0c0-8.284,6.716-15,15-15h422c8.284,0,15,6.716,15,15l0,0
	C482,159.284,475.284,166,467,166z"/>
<path style="fill:#FFC843;" d="M467,136h-30c8.284,0,15,6.716,15,15s-6.716,15-15,15h30c8.284,0,15-6.716,15-15S475.284,136,467,136
	z"/>
<path style="fill:#A96458;" d="M489.5,456h-467c-8.284,0-15-6.716-15-15l0,0c0-8.284,6.716-15,15-15h467c8.284,0,15,6.716,15,15l0,0
	C504.5,449.284,497.784,456,489.5,456z"/>
<path style="fill:#895C62;" d="M489.5,426h-30c8.284,0,15,6.716,15,15s-6.716,15-15,15h30c8.284,0,15-6.716,15-15
	S497.784,426,489.5,426z"/>
<rect x="191" y="366" style="fill:#686370;" width="130" height="60"/>
<rect x="291" y="366" style="fill:#56525B;" width="30" height="60"/>
<polygon style="fill:#FF75C4;" points="446,336 66,336 51,166 461,166 "/>
<polygon style="fill:#FF44AF;" points="431,166 416,336 446,336 461,166 "/>
<path style="fill:#55A1FB;" d="M241,136V71c0-8.284,6.716-15,15-15l0,0c8.284,0,15,6.716,15,15v65H241z"/>
<path d="M44.13,173.478l1.614,18.295c0.365,4.126,4.01,7.171,8.13,6.812c4.126-0.364,7.176-4.004,6.812-8.13L59.191,173.5h393.618
	l-9.985,113.171c-0.364,4.126,2.686,7.766,6.812,8.13c0.225,0.02,0.446,0.029,0.668,0.029c3.844,0,7.118-2.939,7.462-6.841
	l10.104-114.511c12.004-0.459,21.63-10.363,21.63-22.478c0-12.407-10.094-22.5-22.5-22.5H278.5V91.05H346c4.143,0,7.5-3.358,7.5-7.5
	s-3.357-7.5-7.5-7.5h-67.5V71c0-12.407-10.094-22.5-22.5-22.5c-12.407,0-22.5,10.093-22.5,22.5v5.05H166c-4.142,0-7.5,3.358-7.5,7.5
	s3.358,7.5,7.5,7.5h67.5v37.45H45c-12.407,0-22.5,10.093-22.5,22.5C22.5,163.115,32.126,173.019,44.13,173.478z M248.5,71
	c0-4.136,3.364-7.5,7.5-7.5c4.136,0,7.5,3.364,7.5,7.5v57.5h-15V71z M45,143.5L45,143.5h422l0,0c4.136,0,7.5,3.364,7.5,7.5
	s-3.364,7.5-7.5,7.5l0,0H45l0,0c-4.136,0-7.5-3.364-7.5-7.5S40.864,143.5,45,143.5z"/>
<path d="M489.5,418.5h-161v-45H446c12.406,0,22.5-10.093,22.5-22.5c0-9.567-6.005-17.754-14.442-21.002l0.853-9.663
	c0.364-4.126-2.686-7.766-6.812-8.13c-4.119-0.361-7.767,2.685-8.13,6.812l-0.837,9.483H72.867l-9.275-105.125
	c-0.364-4.126-4.01-7.173-8.13-6.812c-4.126,0.364-7.176,4.004-6.812,8.13l9.292,105.305C49.505,333.246,43.5,341.433,43.5,351
	c0,12.407,10.093,22.5,22.5,22.5h62.167c4.142,0,7.5-3.358,7.5-7.5s-3.358-7.5-7.5-7.5H66c-4.136,0-7.5-3.364-7.5-7.5
	s3.364-7.5,7.5-7.5h380c4.136,0,7.5,3.364,7.5,7.5s-3.364,7.5-7.5,7.5l0,0H160.167l0,0c-4.142,0-7.5,3.358-7.5,7.5
	s3.358,7.5,7.5,7.5H183.5v45h-161C10.093,418.5,0,428.593,0,441s10.093,22.5,22.5,22.5h467c12.406,0,22.5-10.093,22.5-22.5
	S501.906,418.5,489.5,418.5z M198.5,373.5h115v45h-115V373.5z M489.5,448.5h-467c-4.136,0-7.5-3.364-7.5-7.5s3.364-7.5,7.5-7.5l0,0
	h467l0,0c4.136,0,7.5,3.364,7.5,7.5S493.636,448.5,489.5,448.5z"/>
<g>
</g>
<g>
</g>
<g>
</g>
<g>
</g>
<g>
</g>
<g>
</g>
<g>
</g>
<g>
</g>
<g>
</g>
<g>
</g>
<g>
</g>
<g>
</g>
<g>
</g>
<g>
</g>
<g>
</g>
</svg>
