<?xml version="1.0" encoding="iso-8859-1"?>
<!-- Generator: Adobe Illustrator 19.0.0, SVG Export Plug-In . SVG Version: 6.00 Build 0)  -->
<svg version="1.1" id="Capa_1" xmlns="http://www.w3.org/2000/svg" xmlns:xlink="http://www.w3.org/1999/xlink" x="0px" y="0px"
	 viewBox="0 0 512 512" style="enable-background:new 0 0 512 512;" xml:space="preserve">
<g>
	<rect x="49" y="192.5" style="fill:#55A1FB;" width="30" height="247.5"/>
	<rect x="137" y="192.5" style="fill:#55A1FB;" width="30" height="247.5"/>
</g>
<path style="fill:#A96458;" d="M489.5,470h-467c-8.284,0-15-6.716-15-15l0,0c0-8.284,6.716-15,15-15h467c8.284,0,15,6.716,15,15l0,0
	C504.5,463.284,497.784,470,489.5,470z"/>
<path style="fill:#895C62;" d="M489.5,440h-30c8.284,0,15,6.716,15,15s-6.716,15-15,15h30c8.284,0,15-6.716,15-15
	S497.784,440,489.5,440z"/>
<path style="fill:#2CE565;" d="M489.5,440h-84.463L199.24,192.5H22.923c-8.077,0-15.027-6.207-15.407-14.275
	C7.111,169.611,13.975,162.5,22.5,162.5h189.167L417.463,410h71.613c8.077,0,15.027,6.207,15.407,14.275
	C504.889,432.889,498.025,440,489.5,440z"/>
<path style="fill:#25C799;" d="M489.5,410.012h-30c8.284,0,15,6.716,15,15s-6.716,15-15,15h30c8.284,0,15-6.716,15-15
	S497.784,410.012,489.5,410.012z"/>
<path style="fill:#FF75C4;" d="M35.5,136.392V162.5h149V46.017c0-2.218-1.791-4.017-4-4.017h-51.746c-19.882,0-36,16.185-36,36.15
	v8.033c0,8.873-7.163,16.067-16,16.067H69.5C50.722,102.25,35.5,117.536,35.5,136.392z"/>
<path style="fill:#FF44AF;" d="M180.5,42h-30c2.209,0,4,1.798,4,4.017V162.5h30V46.017C184.5,43.798,182.709,42,180.5,42z"/>
<circle style="fill:#27EEFF;" cx="136.5" cy="91.5" r="18"/>
<path d="M506.257,440.005c3.969-4.423,5.999-10.104,5.717-16.083c-0.565-12.013-10.623-21.422-22.897-21.422h-68.095
	L217.434,157.704c-1.425-1.713-3.538-2.705-5.767-2.705H192V95.667c0-4.142-3.357-7.5-7.5-7.5s-7.5,3.358-7.5,7.5V155H43v-18.608
	c0-14.69,11.888-26.642,26.5-26.642h7.254c12.958,0,23.5-10.572,23.5-23.567V78.15c0-15.797,12.785-28.65,28.5-28.65H177v14.167
	c0,4.142,3.357,7.5,7.5,7.5s7.5-3.358,7.5-7.5v-17.65c0-6.35-5.159-11.517-11.5-11.517h-51.746c-23.986,0-43.5,19.581-43.5,43.65
	v8.033c0,4.724-3.813,8.567-8.5,8.567H69.5c-22.883,0-41.5,18.68-41.5,41.642V155h-5.5c-6.121,0-12.056,2.541-16.281,6.971
	c-4.287,4.494-6.486,10.392-6.192,16.607C0.592,190.59,10.649,200,22.924,200H41.5v23.25c0,4.142,3.357,7.5,7.5,7.5
	s7.5-3.358,7.5-7.5V200h15v232.5h-15V255.75c0-4.142-3.357-7.5-7.5-7.5s-7.5,3.358-7.5,7.5V432.5h-19C10.094,432.5,0,442.593,0,455
	s10.094,22.5,22.5,22.5h467c12.406,0,22.5-10.093,22.5-22.5C512,449.244,509.825,443.989,506.257,440.005z M15.009,177.872
	c-0.098-2.08,0.635-4.05,2.063-5.547c1.43-1.5,3.358-2.325,5.428-2.325l0,0c0.003,0,0,0,0.003,0h185.643c0.003,0,0,0,0.003,0l0,0
	l203.548,244.796c1.425,1.713,3.538,2.705,5.767,2.705h71.612c4.179,0,7.729,3.197,7.915,7.128c0.098,2.08-0.635,4.05-2.063,5.547
	c-1.43,1.499-3.357,2.325-5.428,2.325h-80.945L205.007,187.704c-1.425-1.713-3.538-2.705-5.767-2.705H22.924
	C18.745,185,15.194,181.802,15.009,177.872z M167,408.167c-4.143,0-7.5,3.358-7.5,7.5V432.5h-15V200h15v183.5
	c0,4.142,3.357,7.5,7.5,7.5s7.5-3.358,7.5-7.5V200h21.223l193.324,232.5H174.5v-16.833C174.5,411.524,171.143,408.167,167,408.167z
	 M86.5,200h43v232.5h-43V200z M489.5,447.5c4.136,0,7.5,3.364,7.5,7.5s-3.364,7.5-7.5,7.5h-467c-4.136,0-7.5-3.364-7.5-7.5
	s3.364-7.5,7.5-7.5h466.997C489.5,447.5,489.497,447.5,489.5,447.5"/>
<path d="M111,91.5c0,14.061,11.439,25.5,25.5,25.5S162,105.561,162,91.5S150.561,66,136.5,66S111,77.439,111,91.5z M147,91.5
	c0,5.79-4.71,10.5-10.5,10.5S126,97.29,126,91.5S130.71,81,136.5,81S147,85.71,147,91.5z"/>
<g>
</g>
<g>
</g>
<g>
</g>
<g>
</g>
<g>
</g>
<g>
</g>
<g>
</g>
<g>
</g>
<g>
</g>
<g>
</g>
<g>
</g>
<g>
</g>
<g>
</g>
<g>
</g>
<g>
</g>
</svg>
