<?xml version="1.0" encoding="iso-8859-1"?>
<!-- Generator: Adobe Illustrator 19.0.0, SVG Export Plug-In . SVG Version: 6.00 Build 0)  -->
<svg version="1.1" id="Capa_1" xmlns="http://www.w3.org/2000/svg" xmlns:xlink="http://www.w3.org/1999/xlink" x="0px" y="0px"
	 viewBox="0 0 512 512" style="enable-background:new 0 0 512 512;" xml:space="preserve">
<path style="fill:#A96458;" d="M489.5,382.5h-467c-8.284,0-15-6.716-15-15l0,0c0-8.284,6.716-15,15-15h467c8.284,0,15,6.716,15,15
	l0,0C504.5,375.784,497.784,382.5,489.5,382.5z"/>
<path style="fill:#895C62;" d="M489.5,352.5h-30c8.284,0,15,6.716,15,15s-6.716,15-15,15h30c8.284,0,15-6.716,15-15
	S497.784,352.5,489.5,352.5z"/>
<path style="fill:#2CE565;" d="M449.735,235.741L72.659,278.774c-8.208,0.937-15.621-4.957-16.559-13.164l-0.002-0.02
	c-0.938-8.209,4.957-15.625,13.167-16.562l377.076-43.033c8.208-0.937,15.621,4.957,16.559,13.164l0.002,0.02
	C463.84,227.389,457.945,234.804,449.735,235.741z"/>
<path style="fill:#25C799;" d="M462.902,219.18l-0.002-0.019c-0.938-8.208-8.351-14.101-16.559-13.164l-23.337,2.663
	c5.271,2.258,9.366,7.793,10.152,14.669l0.003,0.023c0.664,5.809-1.193,11.218-4.571,14.805l21.149-2.414
	C457.945,234.804,463.84,227.389,462.902,219.18z"/>
<g>
	<path style="fill:#55A1FB;" d="M161.41,215.22l2.628,22.993l-79.376,9.059l-7.932-69.405c-0.626-5.476,3.309-10.422,8.789-11.047
		l9.922-1.132c5.48-0.625,10.429,3.307,11.055,8.783l3.399,29.745c0.626,5.476,5.575,9.408,11.055,8.783l32.931-3.758
		C157.613,208.813,160.984,211.491,161.41,215.22z"/>
	<path style="fill:#55A1FB;" d="M155.956,299.401l-0.01,0.001c-8.216,0.938-15.637-4.962-16.575-13.178l-1.699-14.87l29.766-3.397
		l1.699,14.865C170.075,291.04,164.174,298.463,155.956,299.401z"/>
	<path style="fill:#55A1FB;" d="M430.94,207.75l-29.54,3.37l-49.84,5.69l-2.62-22.99c-0.43-3.73,2.25-7.1,5.98-7.52l32.93-3.76
		c5.47-0.63,9.41-5.56,8.79-11.03l-0.05-0.43l-3.35-29.33c-0.14-1.22-0.05-2.42,0.24-3.55c0.97-3.92,4.29-7.02,8.55-7.5l9.92-1.13
		c5.48-0.63,10.43,3.3,11.06,8.78L430.94,207.75z"/>
</g>
<path style="fill:#4A8BD9;" d="M430.94,207.75l-29.54,3.37l-4.76-39.61l-0.05-0.43l-3.35-29.33l0.24-3.55
	c0.97-3.92,4.29-7.02,8.55-7.5l9.92-1.13c5.48-0.63,10.43,3.3,11.06,8.78L430.94,207.75z"/>
<g>
	<path style="fill:#55A1FB;" d="M373.237,274.604l0.01-0.001c8.218-0.938,14.119-8.361,13.18-16.578l-1.699-14.865l-29.766,3.397
		l1.699,14.87C357.601,269.642,365.022,275.542,373.237,274.604z"/>
	<rect x="191" y="322.5" style="fill:#55A1FB;" width="130" height="30"/>
</g>
<rect x="291" y="322.5" style="fill:#4A8BD9;" width="30" height="30"/>
<path style="fill:#686370;" d="M286,322.5h-60v-80c0-16.569,13.431-30,30-30l0,0c16.569,0,30,13.431,30,30V322.5z"/>
<path style="fill:#56525B;" d="M256,212.5c-5.466,0-10.586,1.469-15,4.023c8.964,5.188,15,14.874,15,25.977v80h30v-80
	C286,225.931,272.569,212.5,256,212.5z"/>
<path d="M489.5,345h-161v-22.5c0-4.142-3.357-7.5-7.5-7.5h-27.5v-15.083c0-4.142-3.357-7.5-7.5-7.5s-7.5,3.358-7.5,7.5V315h-45
	v-72.5c0-0.002,0,0.002,0,0l0,0c0-12.407,10.093-22.5,22.5-22.5c12.406,0,22.5,10.093,22.5,22.5l0,0c0,0.007,0-0.007,0,0v25
	c0,4.142,3.357,7.5,7.5,7.5s7.5-3.358,7.5-7.5v-6.387l54.863-6.259l0.848,7.424c1.308,11.45,11.051,19.925,22.313,19.925
	c0.847,0,1.703-0.048,2.564-0.146c0.019-0.002,0.039-0.004,0.06-0.007c5.945-0.691,11.269-3.651,14.995-8.337
	c3.735-4.7,5.418-10.573,4.736-16.538l-0.848-7.415l15.49-1.767c4.115-0.47,7.07-4.187,6.602-8.302
	c-0.471-4.116-4.2-7.069-8.302-6.602L293.5,246.016V242.5c0-3.939-0.614-7.737-1.745-11.306l155.439-17.743
	c4.042-0.464,7.716,2.42,8.241,6.443c0.004,0.046,0.009,0.093,0.015,0.139c0.467,4.084-2.478,7.788-6.559,8.256l-9.757,1.113
	c-4.115,0.469-7.071,4.186-6.603,8.302c0.437,3.827,3.681,6.651,7.442,6.65c0.284,0,0.571-0.016,0.859-0.049l9.762-1.113
	c12.236-1.403,21.07-12.446,19.778-24.667c-0.006-0.073-0.013-0.145-0.021-0.217c-1.409-12.302-12.557-21.162-24.862-19.758
	l-7.95,0.907l-7.081-61.959c-1.094-9.575-9.764-16.48-19.357-15.383l-9.922,1.132c-4.64,0.53-8.796,2.833-11.702,6.487
	c-2.908,3.655-4.218,8.224-3.688,12.864l3.399,29.746c0.101,0.886-0.284,1.521-0.522,1.821c-0.239,0.301-0.774,0.821-1.666,0.922
	l-32.932,3.758c-7.834,0.895-13.479,7.995-12.585,15.826l0,0l1.777,15.547l-59.763,6.822c-6.854-7.397-16.643-12.039-27.499-12.039
	c-13.906,0-26.06,7.614-32.534,18.887l-52.828,6.027l-1.777-15.546c-0.896-7.832-7.999-13.477-15.83-12.581l-32.932,3.758
	c-1.363,0.151-2.598-0.823-2.753-2.183l-3.399-29.746c-1.095-9.574-9.775-16.473-19.357-15.382l-9.922,1.132
	c-4.64,0.53-8.796,2.833-11.703,6.487c-2.908,3.655-4.217,8.223-3.688,12.863l7.081,61.954l-7.953,0.907
	c-12.237,1.403-21.07,12.446-19.778,24.668c0.006,0.072,0.014,0.145,0.022,0.216c1.31,11.44,11.044,19.906,22.292,19.906
	c0.848,0,1.707-0.048,2.57-0.147l57.559-6.569l0.848,7.424c1.309,11.45,11.052,19.925,22.313,19.924c0.83,0,1.671-0.046,2.515-0.141
	c0.02-0.002,0.041-0.004,0.061-0.007c5.965-0.681,11.308-3.644,15.044-8.343c3.736-4.7,5.418-10.573,4.737-16.538l-0.848-7.416
	l42.76-4.88V315H191c-4.142,0-7.5,3.358-7.5,7.5V345H96.667c-4.142,0-7.5,3.358-7.5,7.5s3.358,7.5,7.5,7.5l0,0H489.5l0,0
	c4.136,0,7.5,3.364,7.5,7.5s-3.364,7.5-7.5,7.5h-467c-4.136,0-7.5-3.364-7.5-7.5s3.364-7.5,7.5-7.5H64c4.142,0,7.5-3.358,7.5-7.5
	S68.142,345,64,345H22.5C10.093,345,0,355.093,0,367.5S10.093,390,22.5,390h467c12.406,0,22.5-10.093,22.5-22.5
	S501.906,345,489.5,345z M377.4,264.377c-1.242,1.563-3.019,2.548-5.003,2.774c-0.016,0.002-0.031,0.004-0.047,0.005
	c-4.086,0.452-7.771-2.5-8.237-6.582l-0.848-7.417l14.863-1.696l0.848,7.415C379.203,260.861,378.644,262.814,377.4,264.377z
	 M388.702,189.99c4.64-0.53,8.796-2.833,11.703-6.487c2.908-3.655,4.217-8.224,3.687-12.863l-3.399-29.745
	c-0.101-0.886,0.284-1.521,0.522-1.822c0.24-0.301,0.774-0.821,1.666-0.922l9.922-1.132c1.354-0.154,2.598,0.823,2.754,2.183
	l7.08,61.952l-64.474,7.358l-1.696-14.843L388.702,189.99z M84.704,175.193c0.239-0.301,0.774-0.821,1.666-0.922l9.921-1.132
	c0.095-0.011,0.19-0.016,0.284-0.016c1.247,0,2.325,0.936,2.469,2.199l3.399,29.745c1.093,9.576,9.78,16.472,19.357,15.383
	l32.238-3.679l1.696,14.842l-64.473,7.358l-7.081-61.954C84.08,176.129,84.465,175.493,84.704,175.193z M160.109,289.175
	c-1.236,1.555-3,2.538-4.971,2.771c-0.014,0.002-0.028,0.003-0.042,0.005c-4.089,0.469-7.805-2.483-8.273-6.577l-0.848-7.417
	l14.862-1.696l0.848,7.415C161.911,285.659,161.352,287.612,160.109,289.175z M71.807,271.319c-4.04,0.456-7.716-2.419-8.241-6.442
	c-0.004-0.047-0.009-0.093-0.015-0.14c-0.467-4.083,2.477-7.787,6.559-8.255l148.518-16.945c-0.077,0.979-0.128,1.965-0.128,2.963
	v12.077L71.807,271.319z M198.5,345v-15l0,0h115l0,0v15H198.5z"/>
<g>
</g>
<g>
</g>
<g>
</g>
<g>
</g>
<g>
</g>
<g>
</g>
<g>
</g>
<g>
</g>
<g>
</g>
<g>
</g>
<g>
</g>
<g>
</g>
<g>
</g>
<g>
</g>
<g>
</g>
</svg>
