<?xml version="1.0" encoding="iso-8859-1"?>
<!-- Generator: Adobe Illustrator 19.0.0, SVG Export Plug-In . SVG Version: 6.00 Build 0)  -->
<svg version="1.1" id="Capa_1" xmlns="http://www.w3.org/2000/svg" xmlns:xlink="http://www.w3.org/1999/xlink" x="0px" y="0px"
	 viewBox="0 0 512 512" style="enable-background:new 0 0 512 512;" xml:space="preserve">
<rect x="69" y="41" style="fill:#A96458;" width="374" height="30"/>
<rect x="413" y="41" style="fill:#895C62;" width="30" height="30"/>
<g>
	<path style="fill:#CE7A56;" d="M69,479.5H39v-457c0-8.284,6.716-15,15-15l0,0c8.284,0,15,6.716,15,15V479.5z"/>
	<path style="fill:#CE7A56;" d="M473,479.5h-30v-457c0-8.284,6.716-15,15-15l0,0c8.284,0,15,6.716,15,15V479.5z"/>
</g>
<path style="fill:#2CE565;" d="M306,395H206c-9.389,0-17-7.611-17-17l0,0c0-9.389,7.611-17,17-17h100c9.389,0,17,7.611,17,17l0,0
	C323,387.389,315.389,395,306,395z"/>
<path style="fill:#25C799;" d="M306,361h-30.083c9.389,0,17,7.611,17,17l0,0c0,9.389-7.611,17-17,17H306c9.389,0,17-7.611,17-17l0,0
	C323,368.611,315.389,361,306,361z"/>
<path style="fill:#A96458;" d="M489.5,504.5h-467c-8.284,0-15-6.716-15-15l0,0c0-8.284,6.716-15,15-15h467c8.284,0,15,6.716,15,15
	l0,0C504.5,497.784,497.784,504.5,489.5,504.5z"/>
<path style="fill:#895C62;" d="M489.5,474.5h-30c8.284,0,15,6.716,15,15s-6.716,15-15,15h30c8.284,0,15-6.716,15-15
	S497.784,474.5,489.5,474.5z"/>
<rect x="24" y="404.5" style="fill:#FF44AF;" width="60" height="70"/>
<rect x="54" y="404.5" style="fill:#FF119A;" width="30" height="70"/>
<rect x="428" y="404.5" style="fill:#FF44AF;" width="60" height="70"/>
<rect x="458" y="404.5" style="fill:#FF119A;" width="30" height="70"/>
<path d="M495.5,467.819V404.5c0-4.142-3.358-7.5-7.5-7.5h-7.5v-44.5c0-4.142-3.358-7.5-7.5-7.5s-7.5,3.358-7.5,7.5V397h-15V22.5l0,0
	l0,0c0-4.136,3.364-7.5,7.5-7.5c2,0,3.878,0.779,5.306,2.213c1.415,1.409,2.194,3.287,2.194,5.287v297.25c0,4.142,3.358,7.5,7.5,7.5
	s7.5-3.358,7.5-7.5V22.5c0-6.017-2.346-11.668-6.587-15.894C469.668,2.346,464.017,0,458,0c-12.407,0-22.5,10.093-22.5,22.5v11h-359
	v-11c0-6.017-2.346-11.668-6.587-15.894C65.668,2.346,60.017,0,54,0C41.593,0,31.5,10.093,31.5,22.5v73c0,4.142,3.358,7.5,7.5,7.5
	s7.5-3.358,7.5-7.5v-73c0-4.136,3.364-7.5,7.5-7.5c2,0,3.878,0.779,5.306,2.213C60.721,18.622,61.5,20.5,61.5,22.5l0,0l0,0V397h-15
	V127.5c0-4.142-3.358-7.5-7.5-7.5s-7.5,3.358-7.5,7.5V397H24c-4.142,0-7.5,3.358-7.5,7.5v63.319C6.998,470.452,0,479.171,0,489.5
	C0,501.907,10.093,512,22.5,512h467c12.407,0,22.5-10.093,22.5-22.5C512,479.171,505.002,470.452,495.5,467.819z M480.5,412v55h-45
	v-55H480.5z M435.5,63.5h-126v-15h126V63.5z M294.5,63.5h-77v-15h77V63.5z M202.5,48.5v15h-126v-15H202.5z M76.5,78.5h126V288
	c0,4.142,3.358,7.5,7.5,7.5s7.5-3.358,7.5-7.5V78.5h77v275h-77V320c0-4.142-3.358-7.5-7.5-7.5s-7.5,3.358-7.5,7.5v33.754
	c-11.857,1.704-21,11.925-21,24.246c0,13.509,10.991,24.5,24.5,24.5h100c13.509,0,24.5-10.991,24.5-24.5
	c0-12.321-9.143-22.542-21-24.246V78.5h126V397H428c-4.142,0-7.5,3.358-7.5,7.5V467h-329v-62.5c0-4.142-3.358-7.5-7.5-7.5h-7.5V78.5
	z M206,368.5h100c5.238,0,9.5,4.262,9.5,9.5s-4.262,9.5-9.5,9.5H206c-5.238,0-9.5-4.262-9.5-9.5S200.762,368.5,206,368.5z M31.5,412
	h45v55h-45V412z M489.5,482c4.136,0,7.5,3.364,7.5,7.5s-3.364,7.5-7.5,7.5h-467c-4.136,0-7.5-3.364-7.5-7.5s3.364-7.5,7.5-7.5H489.5
	"/>
<g>
</g>
<g>
</g>
<g>
</g>
<g>
</g>
<g>
</g>
<g>
</g>
<g>
</g>
<g>
</g>
<g>
</g>
<g>
</g>
<g>
</g>
<g>
</g>
<g>
</g>
<g>
</g>
<g>
</g>
</svg>
