<?xml version="1.0" encoding="iso-8859-1"?>
<!-- Generator: Adobe Illustrator 19.0.0, SVG Export Plug-In . SVG Version: 6.00 Build 0)  -->
<svg version="1.1" id="Capa_1" xmlns="http://www.w3.org/2000/svg" xmlns:xlink="http://www.w3.org/1999/xlink" x="0px" y="0px"
	 viewBox="0 0 512.001 512.001" style="enable-background:new 0 0 512.001 512.001;" xml:space="preserve">
<rect x="65.25" y="184.5" style="fill:#25C799;" width="116" height="119.5"/>
<g>
	<rect x="35.25" y="184.5" style="fill:#DF905B;" width="30" height="290"/>
	<rect x="181.25" y="184.5" style="fill:#DF905B;" width="30" height="290"/>
</g>
<path style="fill:#A96458;" d="M489.5,504.5h-467c-8.284,0-15-6.716-15-15l0,0c0-8.284,6.716-15,15-15h467c8.284,0,15,6.716,15,15
	l0,0C504.5,497.785,497.784,504.5,489.5,504.5z"/>
<path style="fill:#895C62;" d="M489.5,474.5h-30c8.284,0,15,6.716,15,15s-6.716,15-15,15h30c8.284,0,15-6.716,15-15
	S497.784,474.5,489.5,474.5z"/>
<path style="fill:#2CE565;" d="M223.22,184.5H27.28c-1.867,0-2.74-2.298-1.34-3.526l97.97-85.97c0.766-0.672,1.915-0.672,2.681,0
	l97.97,85.97C225.96,182.203,225.087,184.5,223.22,184.5z"/>
<path style="fill:#25C799;" d="M224.56,180.974l-97.97-85.97c-0.766-0.672-1.915-0.672-2.681,0l-13.66,11.986l84.31,73.984
	c1.4,1.228,0.526,3.526-1.34,3.526h30C225.087,184.5,225.96,182.203,224.56,180.974z"/>
<g>
	<path style="fill:#27EEFF;" d="M153.25,244c0,16.57-13.43,30-30,30c-10.5,0-19.75-5.4-25.1-13.58c-3.08-4.69-4.88-10.29-4.9-16.31
		V244c0-16.57,13.43-30,30-30h0.12c6.02,0.02,11.62,1.82,16.3,4.9C147.85,224.24,153.25,233.49,153.25,244z"/>
	<path style="fill:#27EEFF;" d="M470,156.867c0,2.469-0.215,4.89-0.637,7.238C465.948,183.37,449.135,198,428.902,198H316.703
		c0,0-42.703,0.249-42.703-29.739c0-16.504,13.39-29.883,29.916-29.883c1.188,0,2.356,0.067,3.505,0.206
		c-0.053-0.729-0.077-1.467-0.077-2.21c0-17.894,14.496-32.404,32.373-32.404c5.818,0,11.273,1.534,15.99,4.223
		c6.034-15.939,24.395-28.632,45.758-25.794c18.327,2.435,32.66,18.134,35.615,34.144C455.863,120.34,470,136.95,470,156.867z"/>
</g>
<g>
	<path style="fill:#00DCFF;" d="M437.081,116.543c-2.955-16.01-17.288-31.709-35.615-34.144
		c-15.236-2.024-28.94,3.854-37.739,13.173c3.014-0.225,6.124-0.154,9.301,0.268c17.432,2.316,31.251,16.632,35.102,31.803
		c0.359,1.413,1.445,2.515,2.854,2.887c17.603,4.652,30.578,20.697,30.578,39.778c0,2.469-0.215,4.89-0.637,7.238
		c-1.378,7.776-4.942,14.796-10.03,20.404c19.335-0.924,35.166-15.217,38.468-33.845c0.422-2.349,0.637-4.77,0.637-7.238
		C470,136.95,455.863,120.34,437.081,116.543z"/>
	<path style="fill:#00DCFF;" d="M278.984,152.025c-0.006-0.087-0.004-0.177-0.009-0.265c-0.055,0.082-0.106,0.167-0.16,0.25
		C278.871,152.017,278.928,152.018,278.984,152.025z"/>
</g>
<path style="fill:#FF44AF;" d="M125.25,57.5v-50l56.743,23.154c1.676,0.684,1.676,3.009,0,3.692L125.25,57.5z"/>
<rect x="19" y="304" style="fill:#A96458;" width="210" height="30"/>
<path style="fill:#FF44AF;" d="M489.5,474.5h-84.463L280.537,334h-68.863c-8.077,0-15.027-6.207-15.407-14.275
	C195.861,311.112,202.725,304,211.25,304h81.713l124.501,140.5h71.613c8.077,0,15.027,6.207,15.407,14.275
	C504.889,467.389,498.025,474.5,489.5,474.5z"/>
<path style="fill:#FF119A;" d="M489.5,444.5h-30c8.284,0,15,6.716,15,15s-6.716,15-15,15h30c8.284,0,15-6.716,15-15
	S497.784,444.5,489.5,444.5z"/>
<path d="M123.25,281.5c20.678,0,37.5-16.822,37.5-37.5s-16.822-37.5-37.5-37.5s-37.5,16.822-37.5,37.5S102.572,281.5,123.25,281.5z
	 M123.25,221.5c12.407,0,22.5,10.093,22.5,22.5c0,12.407-10.093,22.5-22.5,22.5s-22.5-10.093-22.5-22.5
	C100.75,231.593,110.843,221.5,123.25,221.5z"/>
<path d="M316.614,205.5c0.039,0,0.068,0,0.089,0h19.214c4.142,0,7.5-3.358,7.5-7.5s-3.358-7.5-7.5-7.5h-19.258
	c-5.615,0.065-22.059-1.658-30.218-9.77c-3.325-3.305-4.941-7.384-4.941-12.47c0-12.342,10.056-22.383,22.416-22.383
	c0.897,0,1.773,0.051,2.604,0.152c2.227,0.269,4.454-0.47,6.075-2.016c1.623-1.546,2.468-3.736,2.307-5.971
	c-0.038-0.523-0.057-1.084-0.057-1.668c0-13.732,11.158-24.904,24.873-24.904c4.314,0,8.559,1.12,12.275,3.239
	c1.905,1.086,4.189,1.284,6.253,0.542c2.063-0.742,3.699-2.351,4.475-4.402c6.095-16.098,24.006-22.844,37.756-21.015
	c16.012,2.127,27.009,16.051,29.228,28.071c0.556,3.012,2.887,5.384,5.89,5.99c15.59,3.151,26.905,17.018,26.905,32.972
	c0,2.005-0.175,3.995-0.521,5.929c-2.845,16.053-16.756,27.704-33.077,27.704H368.5c-4.142,0-7.5,3.358-7.5,7.5s3.358,7.5,7.5,7.5
	h60.402c23.607,0,43.729-16.858,47.844-40.071c0.5-2.791,0.754-5.672,0.754-8.563c0-21.415-14.115-40.231-34.19-46.463
	c-5.445-18.367-21.93-32.925-40.856-35.439c-22.82-3.03-41.341,8.714-50.294,23.494c-3.996-1.311-8.2-1.988-12.441-1.988
	c-20.187,0-36.917,15.09-39.521,34.591c-18.893,1.87-33.697,17.84-33.697,37.2c0,9.155,3.151,16.929,9.365,23.107
	C289.794,205.217,314.668,205.501,316.614,205.5z"/>
<path d="M350.341,144.054c-3.946,1.26-6.123,5.48-4.863,9.426s5.479,6.123,9.426,4.863c4.079-1.302,8.36-1.502,12.518-0.63
	c0.362,0.115,0.727,0.197,1.094,0.254c0.449,0.115,0.898,0.229,1.342,0.37c3.111,0.986,5.943,2.54,8.419,4.617
	c1.405,1.179,3.116,1.755,4.817,1.755c2.14,0,4.266-0.911,5.749-2.679c2.663-3.173,2.249-7.903-0.924-10.566
	c-2.755-2.312-5.785-4.209-9.038-5.689c0.469-2.462,0.71-4.972,0.71-7.517c0-4.579-1.083-11.611-4.137-16.359
	c-2.241-3.484-6.883-4.491-10.365-2.251c-3.484,2.241-4.492,6.881-2.251,10.365c0.847,1.316,1.753,4.943,1.753,8.245
	c0,1.339-0.11,2.661-0.317,3.962C359.592,141.994,354.89,142.601,350.341,144.054z"/>
<path d="M511.975,458.423C511.409,446.41,501.351,437,489.076,437h-68.238L298.576,299.026c-1.423-1.606-3.467-2.526-5.613-2.526
	H218.75l0,0v-64.333c0-4.142-3.358-7.5-7.5-7.5s-7.5,3.358-7.5,7.5V296.5h-15V192h15v7.833c0,4.142,3.358,7.5,7.5,7.5
	s7.5-3.358,7.5-7.5V192h4.47c4.006,0,7.505-2.42,8.916-6.165c1.409-3.739,0.377-7.86-2.628-10.499L132.75,90.431V62.54l52.076-21.25
	c3.599-1.468,5.924-4.918,5.924-8.791s-2.325-7.323-5.923-8.791l-56.64-23.112c-0.016-0.007-0.031-0.013-0.047-0.019l-0.056-0.023
	c-0.027-0.011-0.055-0.017-0.081-0.027c-0.231-0.091-0.468-0.171-0.71-0.239c-0.075-0.021-0.15-0.039-0.225-0.058
	c-0.201-0.05-0.405-0.092-0.613-0.126c-0.086-0.014-0.172-0.029-0.259-0.039c-0.204-0.026-0.41-0.04-0.618-0.049
	c-0.081-0.004-0.161-0.011-0.241-0.012c-0.029,0-0.057-0.004-0.086-0.004c-0.556,0-1.097,0.065-1.618,0.18
	c-0.053,0.012-0.104,0.027-0.156,0.04c-0.227,0.055-0.45,0.12-0.669,0.195c-0.067,0.023-0.134,0.048-0.201,0.073
	c-0.21,0.079-0.415,0.168-0.616,0.265c-0.06,0.029-0.121,0.056-0.18,0.087c-0.509,0.263-0.983,0.582-1.415,0.95
	c-0.065,0.055-0.126,0.115-0.189,0.172c-0.146,0.133-0.287,0.271-0.422,0.414c-0.065,0.069-0.128,0.138-0.19,0.209
	c-0.137,0.157-0.266,0.321-0.389,0.49c-0.041,0.056-0.085,0.109-0.124,0.166c-0.161,0.232-0.31,0.473-0.444,0.724
	c-0.009,0.017-0.017,0.036-0.026,0.053c-0.121,0.23-0.229,0.468-0.326,0.712c-0.026,0.067-0.049,0.134-0.074,0.202
	c-0.073,0.2-0.138,0.403-0.194,0.61c-0.021,0.079-0.042,0.159-0.061,0.239c-0.048,0.206-0.086,0.415-0.117,0.627
	c-0.011,0.076-0.026,0.152-0.035,0.229c-0.033,0.284-0.054,0.572-0.054,0.864v50v32.931l-96.758,84.907
	c-3.005,2.638-4.036,6.758-2.627,10.498c1.411,3.745,4.91,6.165,8.916,6.165h0.47v104.5H19c-4.142,0-7.5,3.358-7.5,7.5v30
	c0,4.142,3.358,7.5,7.5,7.5h8.75v10.167c0,4.142,3.358,7.5,7.5,7.5s7.5-3.358,7.5-7.5V341.5h15V467h-15v-83.167
	c0-4.142-3.358-7.5-7.5-7.5s-7.5,3.358-7.5,7.5V467H22.5C10.093,467,0,477.093,0,489.5S10.093,512,22.5,512h467
	c12.407,0,22.5-10.093,22.5-22.5c0-5.756-2.175-11.012-5.743-14.995C510.226,470.082,512.256,464.401,511.975,458.423z
	 M289.588,311.5L411.85,449.474c1.423,1.606,3.467,2.526,5.613,2.526h71.613c4.179,0,7.73,3.197,7.915,7.128
	c0.098,2.08-0.635,4.05-2.063,5.547c-1.43,1.499-3.358,2.325-5.428,2.325h-81.088L286.15,329.026
	c-1.423-1.606-3.467-2.526-5.613-2.526H229h-17.326c-4.179,0-7.73-3.197-7.915-7.128c-0.098-2.08,0.635-4.05,2.063-5.547
	c1.43-1.499,3.358-2.325,5.428-2.325l0,0H289.588z M188.75,341.5h15V467h-15V341.5z M218.75,341.5L218.75,341.5h58.412L388.37,467
	H218.75V341.5z M173.75,296.5h-101V192h101V296.5z M132.75,46.34V18.661L166.666,32.5L132.75,46.34z M125.25,103.806L208.661,177
	l0,0H41.839l0,0L125.25,103.806z M42.75,192h15v104.5h-15V192z M26.5,311.5L26.5,311.5h163.527l0,0
	c-0.955,2.708-1.391,5.605-1.251,8.578c0.106,2.247,0.544,4.402,1.267,6.422H26.5V311.5z M72.75,341.5h101V467h-101V341.5z
	 M489.5,482c4.136,0,7.5,3.364,7.5,7.5s-3.364,7.5-7.5,7.5h-467c-4.136,0-7.5-3.364-7.5-7.5s3.364-7.5,7.5-7.5H489.5"/>
<g>
</g>
<g>
</g>
<g>
</g>
<g>
</g>
<g>
</g>
<g>
</g>
<g>
</g>
<g>
</g>
<g>
</g>
<g>
</g>
<g>
</g>
<g>
</g>
<g>
</g>
<g>
</g>
<g>
</g>
</svg>
