<?xml version="1.0" encoding="iso-8859-1"?>
<!-- Generator: Adobe Illustrator 19.0.0, SVG Export Plug-In . SVG Version: 6.00 Build 0)  -->
<svg version="1.1" id="Capa_1" xmlns="http://www.w3.org/2000/svg" xmlns:xlink="http://www.w3.org/1999/xlink" x="0px" y="0px"
	 viewBox="0 0 496 496" style="enable-background:new 0 0 496 496;" xml:space="preserve">
<path style="fill:#AFB8C9;" d="M315.784,448.624C297.576,416.76,288,380.696,288,344v-48h-80v48
	c0,36.696-9.576,72.76-27.784,104.624L176,456h144L315.784,448.624z"/>
<g>
	<path style="fill:#8C95A4;" d="M307.352,432H188.648c-2.592,5.64-5.336,11.208-8.432,16.624L176,456h144l-4.216-7.376
		C312.688,443.208,309.944,437.64,307.352,432z"/>
	<path style="fill:#8C95A4;" d="M208,296v48c0,6.552-0.416,13.072-1.016,19.56C220.2,366.44,233.92,368,248,368
		c14.08,0,27.8-1.56,41.016-4.44c-0.6-6.488-1.016-13.008-1.016-19.56v-48H208z"/>
</g>
<circle style="fill:#ECECEC;" cx="248" cy="176" r="168"/>
<g>
	<circle style="fill:#B6C1CE;" cx="248" cy="192" r="112"/>
	<path style="fill:#B6C1CE;" d="M248,320c-88.736,0-161.216-68.84-167.392-156C80.32,167.976,80,171.952,80,176
		c0,92.784,75.216,168,168,168s168-75.216,168-168c0-4.048-0.32-8.024-0.608-12C409.216,251.16,336.736,320,248,320z"/>
</g>
<circle style="fill:#39C3FC;" cx="248" cy="176" r="88"/>
<circle style="fill:#148CE0;" cx="248" cy="176" r="24"/>
<path style="fill:#8C95A4;" d="M248,72c-57.44,0-104,46.56-104,104s46.56,104,104,104s104-46.56,104-104S305.44,72,248,72z M248,248
	c-39.768,0-72-32.232-72-72s32.232-72,72-72s72,32.232,72,72S287.768,248,248,248z"/>
<path style="fill:#AFB8C9;" d="M168,456h160c8.84,0,16,7.16,16,16v16H152v-16C152,463.16,159.16,456,168,456z"/>
<path d="M248,96c-44.112,0-80,35.888-80,80s35.888,80,80,80s80-35.888,80-80S292.112,96,248,96z M248,240c-35.288,0-64-28.712-64-64
	s28.712-64,64-64s64,28.712,64,64S283.288,240,248,240z"/>
<path d="M248,144v16c8.824,0,16,7.176,16,16s-7.176,16-16,16s-16-7.176-16-16h-16c0,17.648,14.352,32,32,32s32-14.352,32-32
	S265.648,144,248,144z"/>
<path d="M424,176C424,78.952,345.048,0,248,0S72,78.952,72,176c0,80.392,54.2,148.312,127.96,169.28
	c-0.224,34.8-9.416,69.136-26.688,99.376L171.36,448H168c-13.232,0-24,10.768-24,24v24h208v-24c0-13.232-10.768-24-24-24h-3.36
	l-1.912-3.344c-17.272-30.24-26.464-64.576-26.688-99.376C369.8,324.312,424,256.392,424,176z M407.592,168h-48
	C355.656,112.632,311.368,68.344,256,64.408v-48C337.832,20.48,403.52,86.168,407.592,168z M240,16.408v48
	C184.632,68.344,140.344,112.632,136.408,168h-48C92.48,86.168,158.168,20.48,240,16.408z M306.408,448H288v16h40
	c4.408,0,8,3.584,8,8v8H160v-8c0-4.416,3.592-8,8-8h104v-16h-82.408c16.44-30.432,25.448-64.424,26.248-99
	c10.432,1.936,21.168,3,32.16,3s21.728-1.064,32.16-3C280.96,383.576,289.976,417.568,306.408,448z M248,336
	c-85.52,0-155.384-67.504-159.592-152h48c4.128,58.024,52.536,104,111.592,104c21.208,0,41.856-5.96,59.72-17.232l-8.536-13.528
	C283.88,266.888,266.176,272,248,272c-52.936,0-96-43.064-96-96s43.064-96,96-96s96,43.064,96,96
	c0,22.384-7.864,44.168-22.152,61.336l12.296,10.232c14.96-17.984,23.832-40.304,25.504-63.568h47.944
	C403.384,268.496,333.52,336,248,336z"/>
<g>
</g>
<g>
</g>
<g>
</g>
<g>
</g>
<g>
</g>
<g>
</g>
<g>
</g>
<g>
</g>
<g>
</g>
<g>
</g>
<g>
</g>
<g>
</g>
<g>
</g>
<g>
</g>
<g>
</g>
</svg>
