<?xml version="1.0" encoding="iso-8859-1"?>
<!-- Generator: Adobe Illustrator 19.0.0, SVG Export Plug-In . SVG Version: 6.00 Build 0)  -->
<svg version="1.1" id="Capa_1" xmlns="http://www.w3.org/2000/svg" xmlns:xlink="http://www.w3.org/1999/xlink" x="0px" y="0px"
	 viewBox="0 0 496 496" style="enable-background:new 0 0 496 496;" xml:space="preserve">
<path style="fill:#FCD770;" d="M400,8H249.888c-6.064,0-11.6,3.424-14.312,8.848L224,40H96c-8.84,0-16,7.16-16,16v176
	c0,8.84,7.16,16,16,16h80h144h80c8.84,0,16-7.16,16-16V40V24C416,15.16,408.84,8,400,8z"/>
<path style="fill:#FEA82F;" d="M400,8H249.888c-6.064,0-11.6,3.424-14.312,8.848L224,40H96c-8.84,0-16,7.16-16,16v16h336V40V24
	C416,15.16,408.84,8,400,8z"/>
<path style="fill:#FFC729;" d="M336,192h-8v-88c0-4.424-3.576-8-8-8h-32v152h56v-48C344,195.576,340.424,192,336,192z"/>
<rect x="192" y="104" style="fill:#ECECEC;" width="112" height="96"/>
<rect x="192" y="176" style="fill:#B6C1CE;" width="112" height="24"/>
<path style="fill:#92E0C0;" d="M176,416V200h144v216c0,39.768-32.232,72-72,72l0,0C208.232,488,176,455.768,176,416z"/>
<rect x="176" y="200" style="fill:#48C397;" width="144" height="32"/>
<g>
	<circle style="fill:#FEA82F;" cx="88" cy="304" r="16"/>
	<circle style="fill:#FEA82F;" cx="24" cy="304" r="16"/>
	<circle style="fill:#FEA82F;" cx="56" cy="448" r="16"/>
	<circle style="fill:#FEA82F;" cx="248" cy="416" r="40"/>
	<circle style="fill:#FEA82F;" cx="472" cy="304" r="16"/>
	<circle style="fill:#FEA82F;" cx="408" cy="304" r="16"/>
	<circle style="fill:#FEA82F;" cx="440" cy="448" r="16"/>
</g>
<path d="M400,256c13.232,0,24-10.768,24-24V24c0-13.232-10.768-24-24-24H249.888c-9.152,0-17.368,5.088-21.464,13.264L219.056,32H96
	c-13.232,0-24,10.768-24,24v176c0,13.232,10.768,24,24,24h72v160c0,44.112,35.888,80,80,80s80-35.888,80-80V256H400z M96,240
	c-4.408,0-8-3.584-8-8V80h288V64H88v-8c0-4.416,3.592-8,8-8h132.944l13.792-27.576c1.36-2.728,4.104-4.424,7.152-4.424H400
	c4.408,0,8,3.584,8,8v40h-16v16h16v152c0,4.416-3.592,8-8,8h-72v-48h-16V96H184v96h-16v48H96z M296,192h-96v-80h96V192z M248,480
	c-35.288,0-64-28.712-64-64V240h96v-16h-96v-16h128v16h-16v16h16v176C312,451.288,283.288,480,248,480z"/>
<rect x="264" y="32" width="112" height="16"/>
<rect x="256" y="128" width="16" height="48"/>
<rect x="224" y="128" width="16" height="48"/>
<path d="M280,323.472l-24,14.4V256h-16v65.872l-24-14.4V280h-16v36.528l40,24v28.192c-22.664,3.824-40,23.536-40,47.28
	c0,26.472,21.528,48,48,48s48-21.528,48-48c0-23.736-17.336-43.448-40-47.28v-12.192l40-24V296h-16V323.472z M280,416
	c0,17.648-14.352,32-32,32s-32-14.352-32-32s14.352-32,32-32S280,398.352,280,416z"/>
<path d="M32,416v-89.472c9.288-3.312,16-12.112,16-22.528c0-13.232-10.768-24-24-24S0,290.768,0,304
	c0,10.416,6.712,19.216,16,22.528V416H32z M24,296c4.408,0,8,3.584,8,8s-3.592,8-8,8s-8-3.584-8-8S19.592,296,24,296z"/>
<path d="M88,280c-13.232,0-24,10.768-24,24c0,10.416,6.712,19.216,16,22.528V416h16v-89.472c9.288-3.312,16-12.112,16-22.528
	C112,290.768,101.232,280,88,280z M88,312c-4.408,0-8-3.584-8-8s3.592-8,8-8s8,3.584,8,8S92.408,312,88,312z"/>
<path d="M64,425.472V368H48v57.472c-9.288,3.312-16,12.112-16,22.528c0,13.232,10.768,24,24,24s24-10.768,24-24
	C80,437.584,73.288,428.784,64,425.472z M56,456c-4.408,0-8-3.584-8-8s3.592-8,8-8s8,3.584,8,8S60.408,456,56,456z"/>
<path d="M400,384h16v-57.472c9.288-3.312,16-12.112,16-22.528c0-13.232-10.768-24-24-24s-24,10.768-24,24
	c0,10.416,6.712,19.216,16,22.528V384z M408,296c4.408,0,8,3.584,8,8s-3.592,8-8,8s-8-3.584-8-8S403.592,296,408,296z"/>
<path d="M496,304c0-13.232-10.768-24-24-24s-24,10.768-24,24c0,10.416,6.712,19.216,16,22.528V416h16v-89.472
	C489.288,323.216,496,314.416,496,304z M472,312c-4.408,0-8-3.584-8-8s3.592-8,8-8s8,3.584,8,8S476.408,312,472,312z"/>
<path d="M448,425.472V336h-16v89.472c-9.288,3.312-16,12.112-16,22.528c0,13.232,10.768,24,24,24s24-10.768,24-24
	C464,437.584,457.288,428.784,448,425.472z M440,456c-4.408,0-8-3.584-8-8s3.592-8,8-8s8,3.584,8,8S444.408,456,440,456z"/>
<rect x="400" y="400" width="16" height="16"/>
<rect x="48" y="336" width="16" height="16"/>
<g>
</g>
<g>
</g>
<g>
</g>
<g>
</g>
<g>
</g>
<g>
</g>
<g>
</g>
<g>
</g>
<g>
</g>
<g>
</g>
<g>
</g>
<g>
</g>
<g>
</g>
<g>
</g>
<g>
</g>
</svg>
