<?xml version="1.0" encoding="iso-8859-1"?>
<!-- Generator: Adobe Illustrator 19.0.0, SVG Export Plug-In . SVG Version: 6.00 Build 0)  -->
<svg version="1.1" id="Capa_1" xmlns="http://www.w3.org/2000/svg" xmlns:xlink="http://www.w3.org/1999/xlink" x="0px" y="0px"
	 viewBox="0 0 496 496" style="enable-background:new 0 0 496 496;" xml:space="preserve">
<path style="fill:#AFB8C9;" d="M232,376H24c-8.84,0-16-7.16-16-16V24c0-8.84,7.16-16,16-16h208c8.84,0,16,7.16,16,16v336
	C248,368.84,240.84,376,232,376z"/>
<path style="fill:#8C95A4;" d="M24,376h208c4.416,0,8.416-1.792,11.312-4.688L184,312H72l-59.312,59.312
	C15.584,374.208,19.584,376,24,376z"/>
<g>
	<polygon style="fill:#798699;" points="208,336 184,312 72,312 48,336 	"/>
	<rect x="72" y="120" style="fill:#798699;" width="112" height="192"/>
</g>
<path style="fill:#AFB8C9;" d="M456,488H312c-17.672,0-32-14.328-32-32V184c0-17.672,14.328-32,32-32h144c17.672,0,32,14.328,32,32
	v272C488,473.672,473.672,488,456,488z"/>
<g>
	<path style="fill:#8C95A4;" d="M456,208H312c-4.416,0-8-3.584-8-8v-16h160v16C464,204.416,460.416,208,456,208z"/>
	<path style="fill:#8C95A4;" d="M456,272H312c-4.416,0-8-3.584-8-8v-16h160v16C464,268.416,460.416,272,456,272z"/>
	<path style="fill:#8C95A4;" d="M456,336H312c-4.416,0-8-3.584-8-8v-16h160v16C464,332.416,460.416,336,456,336z"/>
</g>
<g>
	<rect x="280" y="424" style="fill:#ECECEC;" width="208" height="32"/>
	<rect x="40" y="40" style="fill:#ECECEC;" width="176" height="48"/>
</g>
<g>
	<circle style="fill:#FCD770;" cx="128" cy="216" r="24"/>
	<circle style="fill:#FCD770;" cx="384" cy="368" r="24"/>
</g>
<path d="M232,0H24C10.768,0,0,10.768,0,24v336c0,13.232,10.768,24,24,24h208c13.232,0,24-10.768,24-24V24
	C256,10.768,245.232,0,232,0z M24,16h208c4.416,0,8,3.592,8,8v332.688l-48-48V112H64v196.688l-48,48V24C16,19.592,19.584,16,24,16z
	 M80,160h64v-16H80v-16h96v16h-16v16h16v16H80V160z M176,208h-17.136c-1.64-6.32-5.144-11.832-9.92-16H176V208z M128,200
	c8.824,0,16,7.176,16,16s-7.176,16-16,16s-16-7.176-16-16S119.176,200,128,200z M158.864,224H176v16h-27.056
	C153.72,235.832,157.224,230.32,158.864,224z M80,192h27.056c-4.776,4.168-8.28,9.68-9.92,16H80V192z M80,224h17.136
	c1.64,6.32,5.144,11.832,9.92,16H80V224z M80,256h96v16h-64v16h64v16H80v-16h16v-16H80V256z M75.312,320h105.376l48,48H27.312
	L75.312,320z"/>
<path d="M456,144H312c-22.056,0-40,17.944-40,40v272c0,22.056,17.944,40,40,40h144c22.056,0,40-17.944,40-40V184
	C496,161.944,478.056,144,456,144z M312,160h144c13.232,0,24,10.768,24,24v232H288V184C288,170.768,298.768,160,312,160z M456,480
	H312c-10.416,0-19.216-6.712-22.528-16H432v-16H288v-16h192v16h-32v16h30.528C475.216,473.288,466.416,480,456,480z"/>
<path d="M224,32H32v64h192V32z M208,80H48V48h160V80z"/>
<path d="M384,336c-17.648,0-32,14.352-32,32s14.352,32,32,32s32-14.352,32-32S401.648,336,384,336z M384,384
	c-8.824,0-16-7.176-16-16s7.176-16,16-16s16,7.176,16,16S392.824,384,384,384z"/>
<rect x="304" y="176" width="160" height="16"/>
<rect x="304" y="240" width="160" height="16"/>
<rect x="304" y="304" width="160" height="16"/>
<rect x="376" y="208" width="16" height="16"/>
<rect x="376" y="272" width="16" height="16"/>
<g>
</g>
<g>
</g>
<g>
</g>
<g>
</g>
<g>
</g>
<g>
</g>
<g>
</g>
<g>
</g>
<g>
</g>
<g>
</g>
<g>
</g>
<g>
</g>
<g>
</g>
<g>
</g>
<g>
</g>
</svg>
