<?xml version="1.0" encoding="iso-8859-1"?>
<!-- Generator: Adobe Illustrator 19.0.0, SVG Export Plug-In . SVG Version: 6.00 Build 0)  -->
<svg version="1.1" id="Capa_1" xmlns="http://www.w3.org/2000/svg" xmlns:xlink="http://www.w3.org/1999/xlink" x="0px" y="0px"
	 viewBox="0 0 496 496" style="enable-background:new 0 0 496 496;" xml:space="preserve">
<path style="fill:#48C397;" d="M232,232V8h-32c0,13.256-10.744,24-24,24s-24-10.744-24-24h-32c0,13.256-10.744,24-24,24
	S72,21.256,72,8H8v480h64c0-13.256,10.744-24,24-24s24,10.744,24,24h32c0-13.256,10.744-24,24-24s24,10.744,24,24h32V264
	c-8.84,0-16-7.16-16-16S223.16,232,232,232z"/>
<path style="fill:#0FA196;" d="M208,488h24V264c-8.84,0-16-7.16-16-16s7.16-16,16-16V8h-24V488z"/>
<path style="fill:#48C397;" d="M456,232V8h-32v8c0,13.256-10.744,24-24,24s-24-10.744-24-24V8h-64v480h64v-8
	c0-13.256,10.744-24,24-24s24,10.744,24,24v8h32V264c-8.84,0-16-7.16-16-16S447.16,232,456,232z"/>
<path style="fill:#0FA196;" d="M432,488h24V264c-8.84,0-16-7.16-16-16s7.16-16,16-16V8h-24V488z"/>
<g>
	<rect x="456" y="8" style="fill:#FCD770;" width="32" height="224"/>
	<rect x="456" y="264" style="fill:#FCD770;" width="32" height="224"/>
	<rect x="232" y="8" style="fill:#FCD770;" width="32" height="224"/>
	<rect x="232" y="264" style="fill:#FCD770;" width="32" height="224"/>
</g>
<g>
	<rect x="360" y="72" style="fill:#92E0C0;" width="48" height="48"/>
	<rect x="360" y="296" style="fill:#92E0C0;" width="48" height="48"/>
	<rect x="344" y="376" style="fill:#92E0C0;" width="80" height="48"/>
	<rect x="344" y="152" style="fill:#92E0C0;" width="80" height="48"/>
	<rect x="360" y="232" style="fill:#92E0C0;" width="48" height="32"/>
	<rect x="40" y="64" style="fill:#92E0C0;" width="160" height="48"/>
	<rect x="40" y="144" style="fill:#92E0C0;" width="160" height="48"/>
	<rect x="40" y="224" style="fill:#92E0C0;" width="160" height="48"/>
	<rect x="40" y="304" style="fill:#92E0C0;" width="160" height="48"/>
	<rect x="40" y="384" style="fill:#92E0C0;" width="160" height="48"/>
</g>
<path d="M456,240h40V0h-80v16c0,8.824-7.176,16-16,16s-16-7.176-16-16V0h-80v496h80v-16c0-8.824,7.176-16,16-16s16,7.176,16,16v16
	h80V256h-40c-4.408,0-8-3.592-8-8S451.592,240,456,240z M464,176h16v16h-16V176z M464,160v-16h16v16H464z M464,128v-16h16v16H464z
	 M464,96V80h16v16H464z M464,64V48h16v16H464z M464,224v-16h16v16H464z M480,32h-16V16h16V32z M464,432h16v16h-16V432z M464,416v-16
	h16v16H464z M464,384v-16h16v16H464z M464,352v-16h16v16H464z M464,320v-16h16v16H464z M464,480v-16h16v16H464z M480,288h-16v-16h16
	V288z M432,248c0,10.416,6.712,19.216,16,22.528V480h-16c0-17.648-14.352-32-32-32s-32,14.352-32,32h-48V16h48
	c0,17.648,14.352,32,32,32s32-14.352,32-32h16v209.472C438.712,228.784,432,237.584,432,248z"/>
<path d="M416,64h-64v64h64V64z M400,112h-32V80h32V112z"/>
<path d="M352,352h64v-64h-64V352z M368,304h32v32h-32V304z"/>
<path d="M336,432h96v-64h-96V432z M352,384h64v32h-64V384z"/>
<polygon points="336,208 368,208 368,192 352,192 352,160 416,160 416,192 384,192 384,208 432,208 432,144 336,144 "/>
<path d="M416,224h-64v48h64V224z M400,256h-32v-16h32V256z"/>
<path d="M192,8c0,8.824-7.176,16-16,16s-16-7.176-16-16V0h-48v8c0,8.824-7.176,16-16,16S80,16.824,80,8V0H0v496h80v-8
	c0-8.824,7.176-16,16-16s16,7.176,16,16v8h48v-8c0-8.824,7.176-16,16-16s16,7.176,16,16v8h80V256h-40c-4.408,0-8-3.592-8-8
	s3.592-8,8-8h40V0h-80V8z M240,432h16v16h-16V432z M240,416v-16h16v16H240z M240,384v-16h16v16H240z M240,352v-16h16v16H240z
	 M240,320v-16h16v16H240z M240,480v-16h16v16H240z M256,288h-16v-16h16V288z M240,176h16v16h-16V176z M240,160v-16h16v16H240z
	 M240,128v-16h16v16H240z M240,96V80h16v16H240z M240,64V48h16v16H240z M240,224v-16h16v16H240z M256,32h-16V16h16V32z M206.992,16
	H224v209.472c-9.288,3.312-16,12.112-16,22.528c0,10.416,6.712,19.216,16,22.528V480h-17.008c-3.56-13.792-16.104-24-30.992-24
	s-27.424,10.208-30.992,24h-18.024c-3.56-13.792-16.104-24-30.992-24S68.568,466.208,65,480H16V16h49.008
	C68.576,29.784,81.12,40,96,40s27.424-10.216,30.992-24h18.024c3.56,13.784,16.104,24,30.984,24S203.424,29.784,206.992,16z"/>
<polygon points="32,120 160,120 160,104 48,104 48,72 192,72 192,104 176,104 176,120 208,120 208,56 32,56 "/>
<path d="M32,200h176v-64H32V200z M48,152h144v32H48V152z"/>
<path d="M32,216v64h176v-32v-32H32z M192,264H48v-32h144V264z"/>
<polygon points="32,360 64,360 64,344 48,344 48,312 192,312 192,344 80,344 80,360 208,360 208,296 32,296 "/>
<path d="M32,440h176v-64H32V440z M48,392h144v32H48V392z"/>
<rect x="32" y="24" width="16" height="16"/>
<rect x="32" y="456" width="16" height="16"/>
<g>
</g>
<g>
</g>
<g>
</g>
<g>
</g>
<g>
</g>
<g>
</g>
<g>
</g>
<g>
</g>
<g>
</g>
<g>
</g>
<g>
</g>
<g>
</g>
<g>
</g>
<g>
</g>
<g>
</g>
</svg>
