<?xml version="1.0" encoding="iso-8859-1"?>
<!-- Generator: Adobe Illustrator 19.0.0, SVG Export Plug-In . SVG Version: 6.00 Build 0)  -->
<svg version="1.1" id="Capa_1" xmlns="http://www.w3.org/2000/svg" xmlns:xlink="http://www.w3.org/1999/xlink" x="0px" y="0px"
	 viewBox="0 0 496 496" style="enable-background:new 0 0 496 496;" xml:space="preserve">
<path style="fill:#AFB8C9;" d="M241.392,144c-21.4-19.8-49.936-32-81.392-32s-59.992,12.2-81.392,32H40c-17.672,0-32,14.328-32,32
	v144c0,17.672,14.328,32,32,32h416c17.672,0,32-14.328,32-32V176c0-17.672-14.328-32-32-32H241.392z"/>
<path style="fill:#8C95A4;" d="M9.128,328c3.576,13.776,15.976,24,30.872,24h416c14.896,0,27.296-10.224,30.872-24H9.128z"/>
<rect x="8" y="192" style="fill:#48C397;" width="32" height="96"/>
<g>
	<polygon style="fill:#798699;" points="384,352 392,384 440,384 448,352 	"/>
	<polygon style="fill:#798699;" points="56,384 104,384 112,352 48,352 	"/>
</g>
<circle style="fill:#8C95A4;" cx="160" cy="248" r="96"/>
<circle style="fill:#31353D;" cx="160" cy="232" r="88"/>
<circle style="fill:#39C3FC;" cx="160" cy="232" r="56"/>
<circle style="fill:#148CE0;" cx="160" cy="232" r="24"/>
<g>
	<rect x="280" y="176" style="fill:#ECECEC;" width="32" height="80"/>
	<rect x="344" y="176" style="fill:#ECECEC;" width="32" height="80"/>
	<rect x="408" y="176" style="fill:#ECECEC;" width="32" height="80"/>
</g>
<g>
	<circle style="fill:#48C397;" cx="440" cy="304" r="16"/>
	<circle style="fill:#48C397;" cx="376" cy="304" r="16"/>
</g>
<path d="M160,136c-52.936,0-96,43.064-96,96s43.064,96,96,96c19.896,0,38.992-6.04,55.216-17.464L206,297.456
	C192.496,306.968,176.584,312,160,312c-44.112,0-80-35.888-80-80s35.888-80,80-80s80,35.888,80,80
	c0,16.576-5.032,32.488-14.536,46.008l13.08,9.2C249.96,270.984,256,251.888,256,232C256,179.064,212.936,136,160,136z"/>
<path d="M160,168c-35.288,0-64,28.712-64,64s28.712,64,64,64s64-28.712,64-64S195.288,168,160,168z M160,280
	c-26.472,0-48-21.528-48-48s21.528-48,48-48s48,21.528,48,48S186.472,280,160,280z"/>
<path d="M160,200v16c8.824,0,16,7.176,16,16s-7.176,16-16,16s-16-7.176-16-16h-16c0,17.648,14.352,32,32,32s32-14.352,32-32
	S177.648,200,160,200z"/>
<path d="M272,264h48v-96h-48V264z M288,184h16v64h-16V184z"/>
<path d="M384,168h-48v96h48V168z M368,248h-16v-64h16V248z"/>
<path d="M448,168h-48v96h48V168z M432,248h-16v-64h16V248z"/>
<path d="M440,280c-13.232,0-24,10.768-24,24s10.768,24,24,24s24-10.768,24-24S453.232,280,440,280z M440,312c-4.416,0-8-3.584-8-8
	s3.584-8,8-8s8,3.584,8,8S444.416,312,440,312z"/>
<path d="M376,280c-13.232,0-24,10.768-24,24s10.768,24,24,24s24-10.768,24-24S389.232,280,376,280z M376,312c-4.416,0-8-3.584-8-8
	s3.584-8,8-8s8,3.584,8,8S380.416,312,376,312z"/>
<path d="M456,136H244.472c-23.448-20.656-53.312-32-84.472-32s-61.024,11.344-84.472,32H40c-22.056,0-40,17.944-40,40v144
	c0,22.056,17.944,40,40,40h1.76l7.992,32h60.496l7.992-32h259.52l7.992,32h60.496l7.992-32H456c22.056,0,40-17.944,40-40V176
	C496,153.944,478.056,136,456,136z M32,248H16v-16h16V248z M32,264v16H16v-16H32z M32,216H16v-16h16V216z M97.752,376H62.248
	l-4.008-16h43.512L97.752,376z M433.752,376h-35.504l-4.008-16h43.512L433.752,376z M480,320c0,13.232-10.768,24-24,24H40
	c-13.232,0-24-10.768-24-24v-24h32V184H16v-8c0-13.232,10.768-24,24-24h41.744l2.304-2.128C104.856,130.608,131.832,120,160,120
	s55.144,10.608,75.952,29.872l2.304,2.128H456c13.232,0,24,10.768,24,24V320z"/>
<g>
</g>
<g>
</g>
<g>
</g>
<g>
</g>
<g>
</g>
<g>
</g>
<g>
</g>
<g>
</g>
<g>
</g>
<g>
</g>
<g>
</g>
<g>
</g>
<g>
</g>
<g>
</g>
<g>
</g>
</svg>
