<?xml version="1.0" encoding="iso-8859-1"?>
<!-- Generator: Adobe Illustrator 19.0.0, SVG Export Plug-In . SVG Version: 6.00 Build 0)  -->
<svg version="1.1" id="Capa_1" xmlns="http://www.w3.org/2000/svg" xmlns:xlink="http://www.w3.org/1999/xlink" x="0px" y="0px"
	 viewBox="0 0 496 496" style="enable-background:new 0 0 496 496;" xml:space="preserve">
<path style="fill:#8C95A4;" d="M56,120H40c-17.672,0-32,14.328-32,32v256c0,17.672,14.328,32,32,32h416c17.672,0,32-14.328,32-32
	V152c0-17.672-14.328-32-32-32h-16H56z"/>
<path style="fill:#39C3FC;" d="M8,392h480V152c0-17.672-14.328-32-32-32H40c-17.672,0-32,14.328-32,32V392z"/>
<rect x="8" y="368" style="fill:#148CE0;" width="480" height="24"/>
<rect x="160" y="440" style="fill:#8C95A4;" width="176" height="48"/>
<rect x="56" y="8" style="fill:#ECECEC;" width="384" height="352"/>
<path style="fill:#FEA82F;" d="M347.16,328.624c-1.816-5.744-4.16-11.24-6.896-16.496l15.216-25.664l-33.944-33.944l-25.664,15.216
	c-5.264-2.736-10.76-5.08-16.496-6.896L272,232h-48l-7.376,28.84c-5.744,1.816-11.24,4.16-16.496,6.896l-25.664-15.216
	l-33.944,33.944l15.216,25.664c-2.736,5.264-5.08,10.76-6.896,16.496L120,336v24h80c0-26.512,21.488-48,48-48s48,21.488,48,48h80
	v-24L347.16,328.624z"/>
<path style="fill:#FFC729;" d="M248,280c-44.184,0-80,35.816-80,80h32c0-26.512,21.488-48,48-48s48,21.488,48,48h32
	C328,315.816,292.184,280,248,280z"/>
<rect x="56" y="8" style="fill:#FB5968;" width="384" height="64"/>
<polygon style="fill:#CD2C5A;" points="440,72 304,72 336,8 440,8 "/>
<path d="M456,112h-8V0H48v112h-8c-22.056,0-40,17.944-40,40v256c0,22.056,17.944,40,40,40h112v32h-24v16h240v-16h-24v-32h112
	c22.056,0,40-17.944,40-40V152C496,129.944,478.056,112,456,112z M150.568,287.728l25.16-25.168l24.144,14.32l3.944-2.048
	c5.056-2.632,10.184-4.776,15.232-6.376l4.232-1.344L230.208,240h35.576l6.936,27.12l4.232,1.344
	c5.048,1.6,10.168,3.744,15.232,6.376l3.944,2.048l24.144-14.32l25.16,25.168L331.12,311.88l2.048,3.944
	c2.624,5.056,4.768,10.168,6.36,15.224l1.336,4.232L368,342.208V352H128v-9.792l27.128-6.936l1.336-4.232
	c1.6-5.056,3.736-10.168,6.36-15.224l2.048-3.944L150.568,287.728z M353.336,321.944c-1.16-3.168-2.488-6.336-3.976-9.48
	l16.168-27.272L322.8,242.464l-27.272,16.168c-3.152-1.488-6.32-2.816-9.48-3.968L278.208,224h-60.424l-7.84,30.664
	c-3.16,1.16-6.328,2.488-9.48,3.968l-27.272-16.168l-42.728,42.728l16.168,27.272c-1.488,3.144-2.816,6.312-3.976,9.48L112,329.792
	V352H64V80h368v272h-48v-22.208L353.336,321.944z M432,16v48H64V16H432z M40,128h8v240h400V128h8c13.232,0,24,10.768,24,24v232H16
	V152C16,138.768,26.768,128,40,128z M328,480H168v-32h160V480z M456,432H40c-13.232,0-24-10.768-24-24v-8h464v8
	C480,421.232,469.232,432,456,432z"/>
<polygon points="283.56,126.656 321.576,152 283.56,177.344 292.44,190.656 350.424,152 292.44,113.344 "/>
<polygon points="203.56,113.344 145.576,152 203.56,190.656 212.44,177.344 174.424,152 212.44,126.656 "/>
<rect x="197.402" y="144.026" transform="matrix(-0.3164 0.9486 -0.9486 -0.3164 470.6809 -35.1274)" width="101.189" height="16"/>
<rect x="144" y="32" width="16" height="16"/>
<rect x="112" y="32" width="16" height="16"/>
<rect x="80" y="32" width="16" height="16"/>
<g>
</g>
<g>
</g>
<g>
</g>
<g>
</g>
<g>
</g>
<g>
</g>
<g>
</g>
<g>
</g>
<g>
</g>
<g>
</g>
<g>
</g>
<g>
</g>
<g>
</g>
<g>
</g>
<g>
</g>
</svg>
