<?xml version="1.0" encoding="iso-8859-1"?>
<!-- Generator: Adobe Illustrator 19.0.0, SVG Export Plug-In . SVG Version: 6.00 Build 0)  -->
<svg version="1.1" id="Capa_1" xmlns="http://www.w3.org/2000/svg" xmlns:xlink="http://www.w3.org/1999/xlink" x="0px" y="0px"
	 viewBox="0 0 496 496" style="enable-background:new 0 0 496 496;" xml:space="preserve">
<polygon style="fill:#8C95A4;" points="296,440 200,440 56,456 56,488 440,488 440,456 "/>
<polygon style="fill:#798699;" points="176,488 320,488 320,442.664 296,440 200,440 176,442.664 "/>
<rect x="200" y="400" style="fill:#AFB8C9;" width="96" height="88"/>
<rect x="200" y="400" style="fill:#8C95A4;" width="96" height="32"/>
<path style="fill:#AFB8C9;" d="M456,88h-48H88H40c-17.672,0-32,14.328-32,32v256c0,17.672,14.328,32,32,32h416
	c17.672,0,32-14.328,32-32V120C488,102.328,473.672,88,456,88z"/>
<path style="fill:#39C3FC;" d="M448,120h-40H88H48c-4.416,0-8,3.584-8,8v240c0,4.416,3.584,8,8,8h400c4.416,0,8-3.584,8-8V128
	C456,123.584,452.416,120,448,120z"/>
<path style="fill:#148CE0;" d="M40,368c0,4.416,3.584,8,8,8h400c4.416,0,8-3.584,8-8v-16H40V368z"/>
<rect x="88" y="8" style="fill:#ECECEC;" width="320" height="336"/>
<path style="fill:#D3A06C;" d="M248,40c-44.184,0-80,35.816-80,80v40h160v-40C328,75.816,292.184,40,248,40z"/>
<path style="fill:#B27946;" d="M248,40c-4.088,0-8.072,0.408-12,1c38.472,5.8,68,38.904,68,79v40h24v-40
	C328,75.816,292.184,40,248,40z"/>
<path style="fill:#F9E0A6;" d="M192,184L192,184c-13.256,0-24-10.744-24-24l0,0c0-13.256,10.744-24,24-24l0,0h112l0,0
	c13.256,0,24,10.744,24,24l0,0c0,13.256-10.744,24-24,24l0,0H192z"/>
<path style="fill:#FB5968;" d="M360.04,284.144c-4.936-17.28-19.112-30.36-36.736-33.88L272,240h-48l-51.304,10.264
	c-17.624,3.528-31.8,16.6-36.736,33.88L128,312h240L360.04,284.144z"/>
<path style="fill:#CD2C5A;" d="M360.04,284.144c-4.936-17.28-19.112-30.36-36.736-33.88L272,240h-32l51.304,10.264
	c17.624,3.528,31.8,16.6,36.736,33.88L336,312h32L360.04,284.144z"/>
<g>
	<path style="fill:#F9E0A6;" d="M192,136v40c0,30.928,25.072,56,56,56l0,0c30.928,0,56-25.072,56-56v-40l0,0
		c-20.488,0-40.136-8.136-54.624-22.624L248,112l-1.376,1.376C232.136,127.864,212.488,136,192,136L192,136z"/>
	<path style="fill:#F9E0A6;" d="M248,264L248,264c-13.256,0-24-10.744-24-24v-24h48v24C272,253.256,261.256,264,248,264z"/>
</g>
<path style="fill:#EABD8C;" d="M280,132.112V176c0,26.808-18.848,49.184-44,54.68c3.872,0.848,7.88,1.32,12,1.32
	c30.928,0,56-25.072,56-56v-40C295.76,136,287.688,134.624,280,132.112z"/>
<path d="M456,80h-40V0H80v80H40C17.944,80,0,97.944,0,120v256c0,22.056,17.944,40,40,40h152v16.84l-144,16V496h400v-47.16l-144-16
	V416h152c22.056,0,40-17.944,40-40V120C496,97.944,478.056,80,456,80z M96,16h304v320H96V16z M64,463.16l128-14.224V480H64V463.16z
	 M432,463.16V480H304v-31.064L432,463.16z M288,480h-80v-64h80V480z M480,376c0,13.232-10.768,24-24,24H40
	c-13.232,0-24-10.768-24-24V120c0-13.232,10.768-24,24-24h40v16H48c-8.824,0-16,7.176-16,16v240c0,8.824,7.176,16,16,16h368v-16H48
	V128h32v224h336V128h32v240h-16v16h16c8.824,0,16-7.176,16-16V128c0-8.824-7.176-16-16-16h-32V96h40c13.232,0,24,10.768,24,24V376z"
	/>
<path d="M324.872,242.416L280,233.44v-2.104c14.8-8.592,25.824-22.928,30.048-39.952C324.808,188.544,336,175.576,336,160v-40
	c0-48.52-39.48-88-88-88s-88,39.48-88,88v40c0,15.576,11.192,28.544,25.952,31.392c4.224,17.024,15.248,31.36,30.048,39.952v2.104
	l-44.872,8.976c-20.648,4.128-37.072,19.272-42.856,39.52L117.392,320h261.216l-10.872-38.056
	C361.944,261.688,345.52,246.544,324.872,242.416z M232,237.896c5.128,1.328,10.464,2.104,16,2.104c5.536,0,10.872-0.776,16-2.104
	V240c0,8.824-7.176,16-16,16s-16-7.176-16-16V237.896z M312,173.776v-27.544c4.76,2.776,8,7.88,8,13.776S316.76,171,312,173.776z
	 M248,48c39.704,0,72,32.304,72,72v12.448c-4.728-2.752-10.144-4.448-16-4.448c-18.496,0-35.888-7.2-48.976-20.296l-7.024-7
	l-7.032,7.008C227.888,120.8,210.496,128,192,128c-5.856,0-11.272,1.696-16,4.448V120C176,80.304,208.296,48,248,48z M176,160
	c0-5.896,3.24-11,8-13.776v27.544C179.24,171,176,165.896,176,160z M200,176v-32.376c17.824-1.648,34.488-8.776,48-20.592
	c13.52,11.808,30.176,18.944,48,20.592V176c0,26.472-21.528,48-48,48S200,202.472,200,176z M318.24,304l-6.488-25.944l-15.512,3.88
	L301.76,304H194.24l5.512-22.056l-15.512-3.88L177.76,304h-39.144l5.048-17.664c4.136-14.464,15.856-25.288,30.608-28.232
	l43.32-8.664C221.64,262.456,233.664,272,248,272s26.36-9.544,30.416-22.56l43.32,8.664c14.752,2.952,26.48,13.768,30.608,28.232
	L357.392,304H318.24z"/>
<rect x="112" y="32" width="16" height="16"/>
<rect x="144" y="32" width="16" height="16"/>
<rect x="368" y="32" width="16" height="16"/>
<rect x="336" y="32" width="16" height="16"/>
<g>
</g>
<g>
</g>
<g>
</g>
<g>
</g>
<g>
</g>
<g>
</g>
<g>
</g>
<g>
</g>
<g>
</g>
<g>
</g>
<g>
</g>
<g>
</g>
<g>
</g>
<g>
</g>
<g>
</g>
</svg>
