<?xml version="1.0" encoding="iso-8859-1"?>
<!-- Generator: Adobe Illustrator 19.0.0, SVG Export Plug-In . SVG Version: 6.00 Build 0)  -->
<svg version="1.1" id="Capa_1" xmlns="http://www.w3.org/2000/svg" xmlns:xlink="http://www.w3.org/1999/xlink" x="0px" y="0px"
	 viewBox="0 0 496 496" style="enable-background:new 0 0 496 496;" xml:space="preserve">
<path style="fill:#ECECEC;" d="M264,112h-72c-22.088,0-40,17.912-40,40v144h-32V144c0-35.344,28.656-64,64-64h80V112z"/>
<rect x="120" y="256" style="fill:#B6C1CE;" width="32" height="40"/>
<path style="fill:#AFB8C9;" d="M136,280L136,280c-61.856,0-112,50.144-112,112v72h224v-72C248,330.144,197.856,280,136,280z"/>
<rect x="24" y="416" style="fill:#8C95A4;" width="224" height="48"/>
<polygon style="fill:#FCD770;" points="464,8 448,8 440,24 440,96 472,96 472,24 "/>
<rect x="440" y="64" style="fill:#FFC729;" width="32" height="32"/>
<polygon style="fill:#AFB8C9;" points="424,88 424,128 440,152 440,200 472,200 472,152 488,128 488,88 "/>
<path style="fill:#ECECEC;" d="M136,312L136,312c-44.184,0-80,35.816-80,80v72h160v-72C216,347.816,180.184,312,136,312z"/>
<rect x="56" y="416" style="fill:#B6C1CE;" width="160" height="40"/>
<path style="fill:#AFB8C9;" d="M248,488H24c-8.84,0-16-7.16-16-16v-16c0-8.84,7.16-16,16-16h224c8.84,0,16,7.16,16,16v16
	C264,480.84,256.84,488,248,488z"/>
<rect x="224" y="80" style="fill:#B6C1CE;" width="40" height="32"/>
<polygon style="fill:#798699;" points="104,280 168,280 176,328 96,328 "/>
<rect x="104" y="376" style="fill:#AFB8C9;" width="64" height="32"/>
<path style="fill:#8C95A4;" d="M344,128h-64c-17.672,0-32-14.328-32-32l0,0c0-17.672,14.328-32,32-32h64c17.672,0,32,14.328,32,32
	l0,0C376,113.672,361.672,128,344,128z"/>
<path d="M480,80V22.112L468.944,0h-25.888L432,22.112V80h-16v50.424l16,24V208h16v88h-16v16h32V208h16v-53.576l16-24V80H480z
	 M448,25.888L452.944,16h6.112L464,25.888V80h-16V25.888z M448,192v-32h16v32H448z M480,125.576L467.72,144h-23.44L432,125.576V96
	h48V125.576z"/>
<path d="M96,416h80v-48H96V416z M112,384h48v16h-48V384z"/>
<rect x="432" y="328" width="48" height="16"/>
<rect x="432" y="360" width="48" height="16"/>
<path d="M448,456c0,13.232-10.768,24-24,24h-80c-13.232,0-24-10.768-24-24V320c0-22.056-17.944-40-40-40H179.048
	c-1.024-0.392-2.08-0.728-3.128-1.096L174.776,272H160V152c0-17.648,14.352-32,32-32h56v-0.248c7.296,9.8,18.872,16.248,32,16.248
	h64c22.056,0,40-17.944,40-40s-17.944-40-40-40h-64c-13.128,0-24.704,6.448-32,16.248V72h-64c-39.704,0-72,32.304-72,72v128H97.224
	l-1.152,6.904C48,295.808,16,340.584,16,392v41.472C6.712,436.784,0,445.584,0,456v16c0,13.232,10.768,24,24,24h224
	c13.232,0,24-10.768,24-24v-16c0-10.416-6.712-19.216-16-22.528V392c0-38.832-18.272-73.864-47.904-96H280c13.232,0,24,10.768,24,24
	v136c0,22.056,17.944,40,40,40h80c22.056,0,40-17.944,40-40v-48h16v-16h-32V456z M280,72h64c13.232,0,24,10.768,24,24
	s-10.768,24-24,24h-64c-13.232,0-24-10.768-24-24S266.768,72,280,72z M128,144c0-30.88,25.128-56,56-56h56.808
	C240.28,90.584,240,93.264,240,96s0.28,5.416,0.808,8H192c-26.472,0-48,21.528-48,48v120h-16V144z M161.224,288l5.328,32H105.44
	l5.328-32H161.224z M93,297.336l-3.344,20.04C63.944,333.416,48,361.688,48,392v40H32v-40C32,350.504,56.056,314,93,297.336z
	 M256,472c0,4.408-3.584,8-8,8H24c-4.416,0-8-3.592-8-8v-16c0-4.408,3.584-8,8-8h152v-16H64v-40c0-21.856,10.136-42.424,26.944-56
	h90.112c16.8,13.576,26.944,34.144,26.944,56v40h-16v16h56c4.416,0,8,3.592,8,8V472z M240,392v40h-16v-40
	c0-30.32-15.944-58.592-41.656-74.624L179,297.336C215.944,314,240,350.504,240,392z"/>
<g>
</g>
<g>
</g>
<g>
</g>
<g>
</g>
<g>
</g>
<g>
</g>
<g>
</g>
<g>
</g>
<g>
</g>
<g>
</g>
<g>
</g>
<g>
</g>
<g>
</g>
<g>
</g>
<g>
</g>
</svg>
