<?xml version="1.0" encoding="iso-8859-1"?>
<!-- Generator: Adobe Illustrator 19.0.0, SVG Export Plug-In . SVG Version: 6.00 Build 0)  -->
<svg version="1.1" id="Capa_1" xmlns="http://www.w3.org/2000/svg" xmlns:xlink="http://www.w3.org/1999/xlink" x="0px" y="0px"
	 viewBox="0 0 496 496" style="enable-background:new 0 0 496 496;" xml:space="preserve">
<path style="fill:#ECECEC;" d="M472,424H24V40C24,22.328,38.328,8,56,8h384c17.672,0,32,14.328,32,32V424z"/>
<rect x="24" y="208" style="fill:#B6C1CE;" width="448" height="24"/>
<rect x="56" y="40" style="fill:#39C3FC;" width="384" height="192"/>
<rect x="56" y="208" style="fill:#148CE0;" width="384" height="24"/>
<path style="fill:#8C95A4;" d="M440,488H56c-17.672,0-32-14.328-32-32v-32h448v32C472,473.672,457.672,488,440,488z"/>
<path style="fill:#798699;" d="M25.128,464c3.576,13.776,15.976,24,30.872,24h384c14.896,0,27.296-10.224,30.872-24H25.128z"/>
<rect x="56" y="264" style="fill:#8C95A4;" width="384" height="128"/>
<path d="M440,0H56C33.944,0,16,17.944,16,40v416c0,22.056,17.944,40,40,40h384c22.056,0,40-17.944,40-40V40
	C480,17.944,462.056,0,440,0z M56,16h384c13.232,0,24,10.768,24,24v184H32V40C32,26.768,42.768,16,56,16z M440,480H56
	c-13.232,0-24-10.768-24-24v-24h400v-16H32V240h432v176h-16v16h16v24C464,469.232,453.232,480,440,480z"/>
<polygon points="64,48 432,48 432,208 448,208 448,32 48,32 48,208 64,208 "/>
<path d="M448,256H48v144h400V256z M432,288h-32v-16h32V288z M240,320h-32v-16h32V320z M256,304h32v16h-32V304z M192,320h-32v-16h32
	V320z M192,336v16h-32v-16H192z M208,336h32v16h-32V336z M256,336h32v16h-32V336z M304,336h32v16h-32V336z M304,320v-16h32v16H304z
	 M352,304h32v16h-32V304z M352,288v-16h32v16H352z M336,288h-32v-16h32V288z M288,288h-32v-16h32V288z M240,288h-32v-16h32V288z
	 M192,288h-32v-16h32V288z M144,288h-32v-16h32V288z M144,304v16h-32v-16H144z M96,320H64v-16h32V320z M96,336v16H64v-16H96z
	 M112,336h32v16h-32V336z M144,368v16h-32v-16H144z M160,368h176v16H160V368z M352,368h32v16h-32V368z M352,352v-16h32v16H352z
	 M400,336h32v16h-32V336z M400,320v-16h32v16H400z M96,272v16H64v-16H96z M64,368h32v16H64V368z M400,384v-16h32v16H400z"/>
<rect x="48" y="448" width="16" height="16"/>
<rect x="80" y="448" width="16" height="16"/>
<rect x="112" y="448" width="16" height="16"/>
<rect x="80" y="64" width="88" height="16"/>
<rect x="184" y="64" width="16" height="16"/>
<g>
</g>
<g>
</g>
<g>
</g>
<g>
</g>
<g>
</g>
<g>
</g>
<g>
</g>
<g>
</g>
<g>
</g>
<g>
</g>
<g>
</g>
<g>
</g>
<g>
</g>
<g>
</g>
<g>
</g>
</svg>
