<?xml version="1.0" encoding="iso-8859-1"?>
<!-- Generator: Adobe Illustrator 19.0.0, SVG Export Plug-In . SVG Version: 6.00 Build 0)  -->
<svg version="1.1" id="Capa_1" xmlns="http://www.w3.org/2000/svg" xmlns:xlink="http://www.w3.org/1999/xlink" x="0px" y="0px"
	 viewBox="0 0 496 496" style="enable-background:new 0 0 496 496;" xml:space="preserve">
<path style="fill:#8C95A4;" d="M240,184h-64c-8.84,0-16,7.16-16,16v16h96v-16C256,191.16,248.84,184,240,184z"/>
<rect x="160" y="200" style="fill:#798699;" width="96" height="16"/>
<path style="fill:#8C95A4;" d="M299.576,192.848L288,216H24c-8.84,0-16,7.16-16,16v240c0,8.84,7.16,16,16,16h448
	c8.84,0,16-7.16,16-16V200c0-8.84-7.16-16-16-16H313.888C307.832,184,302.288,187.424,299.576,192.848z"/>
<path style="fill:#798699;" d="M8,464v8c0,8.84,7.16,16,16,16h448c8.84,0,16-7.16,16-16v-8H8z"/>
<g>
	<rect x="312" y="312" style="fill:#ECECEC;" width="144" height="144"/>
	<rect x="40" y="312" style="fill:#ECECEC;" width="240" height="144"/>
</g>
<g>
	<rect x="88" y="408" style="fill:#798699;" width="144" height="48"/>
	<rect x="40" y="248" style="fill:#798699;" width="48" height="32"/>
</g>
<rect x="312" y="248" style="fill:#92E0C0;" width="48" height="32"/>
<rect x="360" y="248" style="fill:#FBC3C6;" width="48" height="32"/>
<rect x="408" y="248" style="fill:#FCD770;" width="48" height="32"/>
<g>
	<rect x="136" y="248" style="fill:#ECECEC;" width="144" height="32"/>
	<rect x="440" y="24" style="fill:#ECECEC;" width="48" height="48"/>
</g>
<rect x="440" y="24" style="fill:#B6C1CE;" width="24" height="48"/>
<polygon style="fill:#8C95A4;" points="440,8 392,8 376,24 344,24 344,72 376,72 392,88 440,88 "/>
<path d="M472,176H313.888c-9.144,0-17.368,5.08-21.464,13.264L283.056,208H264v-8c0-13.232-10.768-24-24-24h-24v-8
	c0-22.056-17.944-40-40-40H40c-13.232,0-24-10.768-24-24V80c0-13.232,10.768-24,24-24h80V24h-16v16H40C17.944,40,0,57.944,0,80v24
	c0,22.056,17.944,40,40,40h136c13.232,0,24,10.768,24,24v8h-24c-13.232,0-24,10.768-24,24v8H24c-13.232,0-24,10.768-24,24v240
	c0,13.232,10.768,24,24,24h448c13.232,0,24-10.768,24-24V200C496,186.768,485.232,176,472,176z M480,472c0,4.408-3.592,8-8,8H24
	c-4.408,0-8-3.592-8-8V232c0-4.408,3.592-8,8-8h184v-16h-40v-8c0-4.408,3.592-8,8-8h64c4.408,0,8,3.592,8,8v8h-8v16h52.944
	l13.792-27.576c1.36-2.728,4.104-4.424,7.152-4.424H472c4.408,0,8,3.592,8,8V472z"/>
<path d="M304,464h160V304H304V464z M320,416h32v32h-32V416z M400,368v32h-32v-32H400z M368,352v-32h32v32H368z M416,368h32v32h-32
	V368z M400,416v32h-32v-32H400z M352,400h-32v-32h32V400z M416,448v-32h32v32H416z M448,352h-32v-32h32V352z M352,320v32h-32v-32
	H352z"/>
<path d="M304,288h160v-48H304V288z M368,272v-16h32v16H368z M448,272h-32v-16h32V272z M320,256h32v16h-32V256z"/>
<path d="M32,464h256V304H32V464z M48,416h32v32H48V416z M224,400h-32v-32h32V400z M240,368h32v32h-32V368z M144,400v-32h32v32H144z
	 M224,416v32H96v-32H224z M192,352v-32h32v32H192z M176,352h-32v-32h32V352z M128,352H96v-32h32V352z M128,368v32H96v-32H128z
	 M80,400H48v-32h32V400z M240,448v-32h32v32H240z M272,352h-32v-32h32V352z M80,320v32H48v-32H80z"/>
<path d="M96,240H32v48h64V240z M80,272H48v-16h32V272z"/>
<path d="M128,288h160v-48H128V288z M192,272v-16h32v16H192z M272,272h-32v-16h32V272z M144,256h32v16h-32V256z"/>
<path d="M448,16V0h-59.312l-16,16H336v24H232v32h16V56h88v24h36.688l16,16H448V80h48V16H448z M432,80h-36.688l-16-16H352V32h27.312
	l16-16H432V80z M480,64h-32V32h32V64z"/>
<rect x="136" y="24" width="16" height="48"/>
<rect x="168" y="24" width="16" height="48"/>
<rect x="200" y="24" width="16" height="48"/>
<rect x="432" y="208" width="16" height="16"/>
<rect x="384" y="208" width="16" height="16"/>
<rect x="336" y="208" width="16" height="16"/>
<g>
</g>
<g>
</g>
<g>
</g>
<g>
</g>
<g>
</g>
<g>
</g>
<g>
</g>
<g>
</g>
<g>
</g>
<g>
</g>
<g>
</g>
<g>
</g>
<g>
</g>
<g>
</g>
<g>
</g>
</svg>
