<?xml version="1.0" encoding="iso-8859-1"?>
<!-- Generator: Adobe Illustrator 19.0.0, SVG Export Plug-In . SVG Version: 6.00 Build 0)  -->
<svg version="1.1" id="Capa_1" xmlns="http://www.w3.org/2000/svg" xmlns:xlink="http://www.w3.org/1999/xlink" x="0px" y="0px"
	 viewBox="0 0 496 496" style="enable-background:new 0 0 496 496;" xml:space="preserve">
<path style="fill:#AFB8C9;" d="M24,392h208c8.84,0,16-7.16,16-16V120c0-8.84-7.16-16-16-16H24c-8.84,0-16,7.16-16,16v256
	C8,384.84,15.16,392,24,392z"/>
<path style="fill:#FFEAA7;" d="M8,152v224c0,8.84,7.16,16,16,16h208c8.84,0,16-7.16,16-16V152H8z"/>
<rect x="8" y="152" style="fill:#FCD770;" width="240" height="24"/>
<path style="fill:#ECECEC;" d="M232,136h240c8.84,0,16,7.16,16,16v320c0,8.84-7.16,16-16,16H232c-8.84,0-16-7.16-16-16V152
	C216,143.16,223.16,136,232,136z"/>
<path style="fill:#AFB8C9;" d="M216,200v272c0,8.84,7.16,16,16,16h240c8.84,0,16-7.16,16-16V200H216z"/>
<rect x="216" y="200" style="fill:#8C95A4;" width="272" height="24"/>
<circle style="fill:#ECECEC;" cx="352" cy="288" r="88"/>
<path style="fill:#8C95A4;" d="M370.352,309.648c-3.272-3.272-8.424-3.752-12.24-1.136l-91.52,62.624
	c-7.024,3.248-13.296,8.704-16.496,18.392c-3.512,10.64-1.712,22.816,5.6,31.304c12.272,14.264,33.816,14.864,46.872,1.808
	c2.744-2.744,4.776-5.896,6.312-9.224l62.624-91.52C374.104,318.072,373.624,312.928,370.352,309.648L370.352,309.648z"/>
<rect x="408" y="24" style="fill:#ECECEC;" width="80" height="48"/>
<rect x="408" y="24" style="fill:#B6C1CE;" width="40" height="48"/>
<polygon style="fill:#8C95A4;" points="424,8 376,8 360,24 328,24 328,72 360,72 376,88 424,88 "/>
<rect x="40" y="328" style="fill:#FEA82F;" width="64" height="32"/>
<path style="fill:#8C95A4;" d="M120,72h16c17.672,0,32,14.328,32,32v16H88v-16C88,86.328,102.328,72,120,72z"/>
<rect x="344" y="448" width="112" height="16"/>
<rect x="344" y="416" width="112" height="16"/>
<path d="M356.688,80l16,16H432V80h64V16h-64V0h-59.312l-16,16H320v24h-53.104l-48-40H144c-13.232,0-24,10.768-24,24v40
	c-19.312,0-35.472,13.768-39.192,32H24c-13.232,0-24,10.768-24,24v256c0,13.232,10.768,24,24,24h184v72c0,13.232,10.768,24,24,24
	h240c13.232,0,24-10.768,24-24V152c0-13.232-10.768-24-24-24H256v-8c0-13.232-10.768-24-24-24h-56.808
	c-3.72-18.232-19.88-32-39.192-32V24c0-4.416,3.584-8,8-8h69.104l48,40H320v24H356.688z M24,384c-4.416,0-8-3.584-8-8V160h192v224
	H24z M304,288c0-26.472,21.528-48,48-48s48,21.528,48,48c0,17.456-9.608,33.056-23.992,41.456l2.08-3.04
	c4.168-6.096,4.04-14.024-0.016-19.928C381.864,301.12,384,294.68,384,288c0-17.648-14.352-32-32-32s-32,14.352-32,32
	c0,11.264,5.88,21.136,14.696,26.84l-13.936,9.536C310.208,315.304,304,302.056,304,288z M350.736,303.872
	C342.512,303.216,336,296.384,336,288c0-8.824,7.176-16,16-16s16,7.176,16,16c0,4.08-1.632,7.944-4.4,10.896
	c-3.472-0.016-6.968,0.936-10,3.016L350.736,303.872z M362.632,315.12c0.272-0.192,0.592-0.288,0.912-0.288
	c0.424,0,0.832,0.168,1.152,0.48c0.552,0.552,0.632,1.424,0.184,2.072l-62.616,91.52l-0.656,1.16
	c-1.288,2.784-2.832,5.048-4.712,6.928c-4.768,4.768-10.952,7.192-17.84,7c-6.728-0.248-12.872-3.224-17.304-8.368
	c-5.2-6.04-6.8-15.304-4.072-23.576c2.128-6.424,6.024-10.76,12.264-13.64L362.632,315.12z M262.592,364.168
	c-9.896,4.76-16.664,12.448-20.112,22.84c-0.544,1.648-0.968,3.312-1.304,4.984H224V208h75.048C273.136,225.208,256,254.624,256,288
	c0,23.584,8.88,46.432,24.488,63.928L262.592,364.168z M472,480H232c-4.416,0-8-3.584-8-8v-64h17.064
	c1.256,6.672,4.144,12.928,8.56,18.056c7.368,8.552,17.6,13.504,28.832,13.912c0.496,0.024,0.992,0.032,1.48,0.032
	c10.552,0,20.792-4.216,28.272-11.704c3.04-3.04,5.6-6.704,7.616-10.888l23.496-34.336c4.2,0.552,8.44,0.928,12.68,0.928
	c18.672,0,36.784-5.376,52.368-15.528l-8.736-13.408c-13.592,8.856-29.776,13.208-45.904,12.8l11.384-16.64l0.016,0.136
	C392.416,346.872,416,319.64,416,288c0-35.288-28.712-64-64-64s-64,28.712-64,64c0,17.312,7.104,33.672,19.264,45.608l-13.416,9.176
	C279.776,327.904,272,308.664,272,288c0-44.112,35.888-80,80-80s80,35.888,80,80c0,22.232-8.912,42.896-25.096,58.184l10.984,11.624
	C437.304,339.488,448,314.688,448,288c0-33.376-17.136-62.792-43.048-80H480v264C480,476.416,476.416,480,472,480z M480,152v40H224
	v-40c0-4.416,3.584-8,8-8h240C476.416,144,480,147.584,480,152z M176,128v-16h56c4.416,0,8,3.584,8,8v8h-8
	c-10.416,0-19.216,6.712-22.528,16H16v-24c0-4.416,3.584-8,8-8h56v16H176z M160,104v8H96v-8c0-13.232,10.768-24,24-24h16
	C149.232,80,160,90.768,160,104z M480,32v32h-48V32H480z M336,32h27.312l16-16H416v64h-36.688l-16-16H336V32z"/>
<path d="M32,320v48h80v-48H32z M48,336h16v16H48V336z M96,352H80v-16h16V352z"/>
<rect x="240" y="160" width="16" height="16"/>
<rect x="448" y="160" width="16" height="16"/>
<rect x="240" y="448" width="16" height="16"/>
<g>
</g>
<g>
</g>
<g>
</g>
<g>
</g>
<g>
</g>
<g>
</g>
<g>
</g>
<g>
</g>
<g>
</g>
<g>
</g>
<g>
</g>
<g>
</g>
<g>
</g>
<g>
</g>
<g>
</g>
</svg>
