<?xml version="1.0" encoding="iso-8859-1"?>
<!-- Generator: Adobe Illustrator 19.0.0, SVG Export Plug-In . SVG Version: 6.00 Build 0)  -->
<svg version="1.1" id="Capa_1" xmlns="http://www.w3.org/2000/svg" xmlns:xlink="http://www.w3.org/1999/xlink" x="0px" y="0px"
	 viewBox="0 0 496 496" style="enable-background:new 0 0 496 496;" xml:space="preserve">
<g>
	<path style="fill:#ECECEC;" d="M432,152V56c0-8.84-7.16-16-16-16s-16,7.16-16,16v96l-8,24v128h48V176L432,152z"/>
	<path style="fill:#ECECEC;" d="M352,56c0-8.84-7.16-16-16-16s-16,7.16-16,16v96l-8,24v128h48V176l-8-24V56z"/>
	<path style="fill:#ECECEC;" d="M272,56c0-8.84-7.16-16-16-16s-16,7.16-16,16v96l-8,24v128h48V176l-8-24V56z"/>
</g>
<g>
	<rect x="232" y="272" style="fill:#B6C1CE;" width="48" height="32"/>
	<rect x="312" y="272" style="fill:#B6C1CE;" width="48" height="32"/>
	<rect x="392" y="272" style="fill:#B6C1CE;" width="48" height="32"/>
</g>
<g>
	<polygon style="fill:#798699;" points="352,456 360,488 440,488 448,456 	"/>
	<polygon style="fill:#798699;" points="56,488 136,488 144,456 48,456 	"/>
</g>
<path style="fill:#AFB8C9;" d="M40,296h416c17.672,0,32,14.328,32,32v96c0,17.672-14.328,32-32,32H40c-17.672,0-32-14.328-32-32v-96
	C8,310.328,22.328,296,40,296z"/>
<path style="fill:#8C95A4;" d="M9.128,432c3.576,13.776,15.976,24,30.872,24h416c14.896,0,27.296-10.224,30.872-24H9.128z"/>
<g>
	<path style="fill:#ECECEC;" d="M128,296v16c0,8.84,7.16,16,16,16h208c8.84,0,16-7.16,16-16v-16H128z"/>
	<circle style="fill:#ECECEC;" cx="416" cy="384" r="40"/>
</g>
<rect x="40" y="360" style="fill:#39C3FC;" width="112" height="64"/>
<polygon style="fill:#148CE0;" points="152,424 96,424 120,360 152,360 "/>
<path d="M456,288h-8V174.704l-8-24V56c0-13.232-10.768-24-24-24s-24,10.768-24,24v94.704l-8,24V288h-16V174.704l-8-24V56
	c0-13.232-10.768-24-24-24s-24,10.768-24,24v94.704l-8,24V288h-16V174.704l-8-24V56c0-13.232-10.768-24-24-24s-24,10.768-24,24
	v94.704l-8,24V288H40c-22.056,0-40,17.944-40,40v96c0,22.056,17.944,40,40,40h1.76l7.992,32h92.496l7.992-32h195.52l7.992,32h92.496
	l7.992-32H456c22.056,0,40-17.944,40-40v-96C496,305.944,478.056,288,456,288z M400,177.296l8-24V56c0-4.416,3.584-8,8-8
	s8,3.584,8,8v97.296l8,24V288h-32V177.296z M320,177.296l8-24V56c0-4.416,3.584-8,8-8s8,3.584,8,8v97.296l8,24V288h-32V177.296z
	 M240,177.296l8-24V56c0-4.416,3.584-8,8-8s8,3.584,8,8v97.296l8,24V288h-32V177.296z M129.752,480H62.248l-4.008-16h75.512
	L129.752,480z M433.752,480h-67.504l-4.008-16h75.512L433.752,480z M480,424c0,13.232-10.768,24-24,24H40c-13.232,0-24-10.768-24-24
	v-96c0-13.232,10.768-24,24-24h80v8c0,13.232,10.768,24,24,24h160v-16H144c-4.416,0-8-3.584-8-8v-8h224v8c0,4.416-3.584,8-8,8h-32
	v16h32c13.232,0,24-10.768,24-24v-8h80c13.232,0,24,10.768,24,24V424z"/>
<path d="M96,120c0,13.232,10.768,24,24,24s24-10.768,24-24s-10.768-24-24-24S96,106.768,96,120z M128,120c0,4.416-3.584,8-8,8
	s-8-3.584-8-8s3.584-8,8-8S128,115.584,128,120z"/>
<path d="M424,336.72V328h-16v8.72c-22.664,3.824-40,23.536-40,47.28c0,26.472,21.528,48,48,48s48-21.528,48-48
	C464,360.264,446.664,340.552,424,336.72z M416,416c-17.648,0-32-14.352-32-32c0-14.872,10.232-27.288,24-30.864V376h16v-22.864
	c13.768,3.576,24,15.992,24,30.864C448,401.648,433.648,416,416,416z"/>
<path d="M32,432h128v-80H32V432z M48,368h96v48H48V368z"/>
<rect x="208" y="416" width="136" height="16"/>
<rect x="208" y="384" width="96" height="16"/>
<path d="M120,160c-22.056,0-40-17.944-40-40s17.944-40,40-40V64c-30.872,0-56,25.128-56,56s25.128,56,56,56V160z"/>
<path d="M48,120c0-39.704,32.296-72,72-72V32c-48.52,0-88,39.48-88,88s39.48,88,88,88v-16C80.296,192,48,159.704,48,120z"/>
<path d="M120,240v-16c-57.344,0-104-46.656-104-104S62.656,16,120,16V0C53.832,0,0,53.832,0,120S53.832,240,120,240z"/>
<rect x="176" y="352" width="16" height="16"/>
<rect x="176" y="384" width="16" height="16"/>
<rect x="176" y="416" width="16" height="16"/>
<g>
</g>
<g>
</g>
<g>
</g>
<g>
</g>
<g>
</g>
<g>
</g>
<g>
</g>
<g>
</g>
<g>
</g>
<g>
</g>
<g>
</g>
<g>
</g>
<g>
</g>
<g>
</g>
<g>
</g>
</svg>
