<?xml version="1.0" encoding="iso-8859-1"?>
<!-- Generator: Adobe Illustrator 19.0.0, SVG Export Plug-In . SVG Version: 6.00 Build 0)  -->
<svg version="1.1" id="Capa_1" xmlns="http://www.w3.org/2000/svg" xmlns:xlink="http://www.w3.org/1999/xlink" x="0px" y="0px"
	 viewBox="0 0 496 496" style="enable-background:new 0 0 496 496;" xml:space="preserve">
<g>
	<path style="fill:#F9E0A6;" d="M464,216c-13.256,0-24,10.744-24,24v-16c0-13.256-10.744-24-24-24s-24,10.744-24,24v-16
		c0-13.256-10.744-24-24-24s-24,10.744-24,24V96c0-13.256-10.744-24-24-24s-24,10.744-24,24v128h-16c-17.672,0-32,14.328-32,32
		v94.312c0,16.048,8.024,31.04,21.376,39.936L296,408v80h152v-80l21.984-17.592c11.384-9.104,18.016-22.896,18.016-37.48V240
		C488,226.744,477.256,216,464,216z"/>
	<path style="fill:#F9E0A6;" d="M104,280L104,280c-53.016,0-96-42.984-96-96v-80C8,50.984,50.984,8,104,8l0,0
		c53.016,0,96,42.984,96,96v80C200,237.016,157.016,280,104,280z"/>
</g>
<rect x="296" y="464" style="fill:#EABD8C;" width="152" height="24"/>
<path d="M104,0C46.656,0,0,46.656,0,104h16c0-48.52,39.48-88,88-88s88,39.48,88,88v64.104h16V104C208,46.656,161.344,0,104,0z"/>
<path d="M104,272c-48.52,0-88-39.48-88-88v-64H0v64c0,57.344,46.656,104,104,104s104-46.656,104-104h-16
	C192,232.52,152.52,272,104,272z"/>
<path d="M32,184c0,39.696,32.304,72,72,72s72-32.304,72-72v-56.04h-16V184c0,30.88-25.12,56-56,56s-56-25.12-56-56v-8H32V184z"/>
<path d="M176,113.32V104c0-39.696-32.304-72-72-72s-72,32.304-72,72v56h16v-56c0-30.88,25.12-56,56-56s56,25.12,56,56v9.32H176z"/>
<path d="M464,208c-6.632,0-12.8,2.032-17.912,5.504C441.712,201.024,429.952,192,416,192c-6.632,0-12.8,2.032-17.912,5.504
	C393.712,185.024,381.952,176,368,176c-5.856,0-11.272,1.696-16,4.448V96c0-17.648-14.352-32-32-32s-32,14.352-32,32v120h-8
	c-22.056,0-40,17.944-40,40v94.312c0,18.768,9.328,36.184,24.936,46.592L288,412.28V496h168v-84.16l18.984-15.184
	C488.336,385.976,496,370.032,496,352.928V240C496,222.352,481.648,208,464,208z M480,352.928c0,12.216-5.472,23.6-15.008,31.232
	l-24.992,20V480H304v-76.28l-30.184-20.128C262.664,376.16,256,363.72,256,350.312V256c0-13.232,10.768-24,24-24h8v72h16V96
	c0-8.824,7.176-16,16-16s16,7.176,16,16v112v72h16v-72c0-8.824,7.176-16,16-16s16,7.176,16,16v16v56h16v-56c0-8.824,7.176-16,16-16
	s16,7.176,16,16v16v40h16v-40c0-8.824,7.176-16,16-16s16,7.176,16,16V352.928z"/>
<rect x="96" y="104" width="16" height="80"/>
<path d="M83.208,92l-13.856-8C65.848,90.048,64,96.968,64,104v80c0,22.056,17.944,40,40,40s40-17.944,40-40v-25.12h-16V184
	c0,13.232-10.768,24-24,24s-24-10.768-24-24v-80C80,99.784,81.112,95.632,83.208,92z"/>
<path d="M144,104c0-22.056-17.944-40-40-40c-6.44,0-12.832,1.568-18.496,4.528l7.416,14.176C96.344,80.912,100.08,80,104,80
	c13.232,0,24,10.768,24,24v38.608h16V104z"/>
<g>
</g>
<g>
</g>
<g>
</g>
<g>
</g>
<g>
</g>
<g>
</g>
<g>
</g>
<g>
</g>
<g>
</g>
<g>
</g>
<g>
</g>
<g>
</g>
<g>
</g>
<g>
</g>
<g>
</g>
</svg>
