<?xml version="1.0" encoding="iso-8859-1"?>
<!-- Generator: Adobe Illustrator 19.0.0, SVG Export Plug-In . SVG Version: 6.00 Build 0)  -->
<svg version="1.1" id="Capa_1" xmlns="http://www.w3.org/2000/svg" xmlns:xlink="http://www.w3.org/1999/xlink" x="0px" y="0px"
	 viewBox="0 0 496 496" style="enable-background:new 0 0 496 496;" xml:space="preserve">
<path style="fill:#FF8031;" d="M392,488h40c17.672,0,32-14.328,32-32V216h-72V488z"/>
<path style="fill:#FEA82F;" d="M444,464L444,464c11.048,0,20-8.952,20-20V216h-40v228C424,455.048,432.952,464,444,464z"/>
<rect x="128" y="8" style="fill:#92E0C0;" width="304" height="368"/>
<path style="fill:#48C397;" d="M400,224h-24V72h-48v304h104V256C432,238.328,417.672,224,400,224z"/>
<rect x="48" y="72" style="fill:#ECECEC;" width="304" height="256"/>
<path style="fill:#FCD770;" d="M432,488H64c-17.672,0-32-14.328-32-32V280h368v176C400,473.672,414.328,488,432,488L432,488z"/>
<path style="fill:#B6C1CE;" d="M352,272v-48H244.944l-9.368-18.736c-4.088-8.176-12.32-13.264-21.464-13.264H48v80H352z"/>
<g>
	<path style="fill:#FEA82F;" d="M384,248H240l-11.576-23.152c-2.712-5.424-8.256-8.848-14.312-8.848H48c-8.84,0-16,7.16-16,16v16v32
		h368v-16C400,255.16,392.84,248,384,248z"/>
	<rect x="80" y="104" style="fill:#FEA82F;" width="80" height="80"/>
</g>
<rect x="64" y="344" style="fill:#92E0C0;" width="96" height="96"/>
<rect x="64" y="240" width="136" height="16"/>
<path d="M440,208V0H120v64H40v145.472c-9.288,3.312-16,12.112-16,22.528v224c0,22.056,17.944,40,40,40h368c22.056,0,40-17.944,40-40
	V208H440z M136,16h288v352h-16V264c0-13.232-10.768-24-24-24h-24v-32h48v-16h-48v-16h48v-16h-48v-16h48v-16h-48v-16h48V96h-48V80h48
	V64h-48h-8H136V16z M344,80v160h-99.056l-9.368-18.736C231.488,213.088,223.264,208,214.112,208H56V80H344z M64,480
	c-13.232,0-24-10.768-24-24V288h304v-16H40v-40c0-4.416,3.592-8,8-8h166.112c3.048,0,5.792,1.696,7.152,4.424L235.056,256H384
	c4.408,0,8,3.584,8,8v8h-32v16h32v168c0,9,2.992,17.312,8.016,24H64z M456,456c0,13.232-10.768,24-24,24s-24-10.768-24-24v-72h32
	V224h16V456z"/>
<rect x="152" y="32" width="256" height="16"/>
<path d="M168,96H72v96h96V96z M152,176H88v-64h64V176z"/>
<rect x="184" y="96" width="144" height="16"/>
<rect x="184" y="128" width="144" height="16"/>
<rect x="184" y="160" width="144" height="16"/>
<rect x="248" y="192" width="80" height="16"/>
<path d="M56,448h112V336H56V448z M72,352h80v80H72V352z"/>
<rect x="216" y="432" width="160" height="16"/>
<rect x="216" y="400" width="160" height="16"/>
<rect x="216" y="368" width="160" height="16"/>
<rect x="216" y="336" width="160" height="16"/>
<rect x="184" y="336" width="16" height="16"/>
<rect x="184" y="368" width="16" height="16"/>
<rect x="184" y="400" width="16" height="16"/>
<rect x="184" y="432" width="16" height="16"/>
<g>
</g>
<g>
</g>
<g>
</g>
<g>
</g>
<g>
</g>
<g>
</g>
<g>
</g>
<g>
</g>
<g>
</g>
<g>
</g>
<g>
</g>
<g>
</g>
<g>
</g>
<g>
</g>
<g>
</g>
</svg>
