<?xml version="1.0" encoding="iso-8859-1"?>
<!-- Generator: Adobe Illustrator 19.0.0, SVG Export Plug-In . SVG Version: 6.00 Build 0)  -->
<svg version="1.1" id="Capa_1" xmlns="http://www.w3.org/2000/svg" xmlns:xlink="http://www.w3.org/1999/xlink" x="0px" y="0px"
	 viewBox="0 0 496 496" style="enable-background:new 0 0 496 496;" xml:space="preserve">
<path style="fill:#ECECEC;" d="M216,440v-96c0-17.672-14.328-32-32-32h-40H96H56c-17.672,0-32,14.328-32,32v96H216z"/>
<rect x="24" y="416" style="fill:#B6C1CE;" width="192" height="24"/>
<path style="fill:#39C3FC;" d="M56,440v-88c0-4.416,3.584-8,8-8h24h64h24c4.416,0,8,3.584,8,8v88H56z"/>
<rect x="56" y="416" style="fill:#148CE0;" width="128" height="24"/>
<path style="fill:#ECECEC;" d="M472,440v-96c0-17.672-14.328-32-32-32h-40h-48h-40c-17.672,0-32,14.328-32,32v96H472z"/>
<rect x="280" y="416" style="fill:#B6C1CE;" width="192" height="24"/>
<g>
	<path style="fill:#AFB8C9;" d="M8,440h224v16c0,17.672-14.328,32-32,32H40c-17.672,0-32-14.328-32-32V440z"/>
	<path style="fill:#AFB8C9;" d="M264,440h224v16c0,17.672-14.328,32-32,32H296c-17.672,0-32-14.328-32-32V440z"/>
</g>
<polygon style="fill:#8C95A4;" points="152,376 152,328 144,312 144,280 96,280 96,312 88,328 88,376 "/>
<path style="fill:#39C3FC;" d="M312,440v-88c0-4.416,3.584-8,8-8h24h64h24c4.416,0,8,3.584,8,8v88H312z"/>
<rect x="312" y="416" style="fill:#148CE0;" width="128" height="24"/>
<g>
	<rect x="104" y="368" style="fill:#ECECEC;" width="32" height="40"/>
	<rect x="360" y="368" style="fill:#ECECEC;" width="32" height="40"/>
</g>
<polygon style="fill:#8C95A4;" points="408,376 408,328 400,312 400,280 352,280 352,312 344,328 344,376 "/>
<path d="M224,344c0-22.056-17.944-40-40-40h-32v-32h-24V56c0-13.232,10.768-24,24-24h40V0h-16v16h-24c-22.056,0-40,17.944-40,40v216
	H88v32H56c-22.056,0-40,17.944-40,40v88H0v24c0,22.056,17.944,40,40,40h160c22.056,0,40-17.944,40-40v-24h-16V344z M208,344v88h-16
	v-80c0-8.824-7.176-16-16-16h-16v-9.888L156.944,320H184C197.232,320,208,330.768,208,344z M104,288h32v25.888l8,16V368H96v-38.112
	l8-16V288z M112,384h16v16h-16V384z M32,344c0-13.232,10.768-24,24-24h27.056L80,326.112V336H64c-8.824,0-16,7.176-16,16v80H32V344z
	 M224,456c0,13.232-10.768,24-24,24H40c-13.232,0-24-10.768-24-24v-8h128v-16H64v-80h16v32h16v32h48v-32h16v-32h16v80h-16v16h64V456
	z"/>
<path d="M480,432v-88c0-22.056-17.944-40-40-40h-32v-32h-24V40c0-22.056-17.944-40-40-40h-40v32h16V16h24c13.232,0,24,10.768,24,24
	v232h-24v32h-32c-22.056,0-40,17.944-40,40v88h-16v24c0,22.056,17.944,40,40,40h160c22.056,0,40-17.944,40-40v-24H480z M464,344v88
	h-16v-80c0-8.824-7.176-16-16-16h-16v-9.888L412.944,320H440C453.232,320,464,330.768,464,344z M360,288h32v25.888l8,16V368h-48
	v-38.112l8-16V288z M368,384h16v16h-16V384z M288,344c0-13.232,10.768-24,24-24h27.056L336,326.112V336h-16c-8.824,0-16,7.176-16,16
	v80h-16V344z M480,456c0,13.232-10.768,24-24,24H296c-13.232,0-24-10.768-24-24v-8h128v-16h-80v-80h16v32h16v32h48v-32h16v-32h16v80
	h-16v16h64V456z"/>
<rect x="208" width="16" height="48"/>
<rect x="240" width="16" height="48"/>
<rect x="272" width="16" height="48"/>
<path d="M272,248c0-13.232-10.768-24-24-24s-24,10.768-24,24s10.768,24,24,24S272,261.232,272,248z M248,256c-4.416,0-8-3.584-8-8
	s3.584-8,8-8c4.416,0,8,3.584,8,8C256,252.416,252.416,256,248,256z"/>
<path d="M248,192c-30.872,0-56,25.128-56,56h16c0-22.056,17.944-40,40-40s40,17.944,40,40h16C304,217.128,278.872,192,248,192z"/>
<path d="M336,248c0-48.52-39.48-88-88-88s-88,39.48-88,88h16c0-39.704,32.296-72,72-72s72,32.296,72,72H336z"/>
<g>
</g>
<g>
</g>
<g>
</g>
<g>
</g>
<g>
</g>
<g>
</g>
<g>
</g>
<g>
</g>
<g>
</g>
<g>
</g>
<g>
</g>
<g>
</g>
<g>
</g>
<g>
</g>
<g>
</g>
</svg>
