<?xml version="1.0" encoding="iso-8859-1"?>
<!-- Generator: Adobe Illustrator 19.0.0, SVG Export Plug-In . SVG Version: 6.00 Build 0)  -->
<svg version="1.1" id="Capa_1" xmlns="http://www.w3.org/2000/svg" xmlns:xlink="http://www.w3.org/1999/xlink" x="0px" y="0px"
	 viewBox="0 0 496 496" style="enable-background:new 0 0 496 496;" xml:space="preserve">
<path style="fill:#ECECEC;" d="M424,112c0-35.344-28.656-64-64-64c-16.048,0-30.688,5.952-41.92,15.712
	C310.688,31.808,282.152,8,248,8s-62.688,23.808-70.08,55.712C166.688,53.952,152.048,48,136,48c-35.344,0-64,28.656-64,64
	c0,0.184,0.024,0.36,0.024,0.552C40.456,116.48,16,143.36,16,176c0,35.344,28.656,64,64,64h344c35.344,0,64-28.656,64-64
	S459.344,112,424,112z"/>
<path style="fill:#B6C1CE;" d="M30.08,216c11.728,14.616,29.712,24,49.92,24h344c20.2,0,38.184-9.384,49.92-24H30.08z"/>
<path style="fill:#FCD770;" d="M296,264h-96c-8.84,0-16-7.16-16-16v-80c0-8.84,7.16-16,16-16h96c8.84,0,16,7.16,16,16v80
	C312,256.84,304.84,264,296,264z"/>
<circle style="fill:#FEA82F;" cx="248" cy="200" r="16"/>
<path style="fill:#FFC729;" d="M184,240v8c0,8.84,7.16,16,16,16h96c8.84,0,16-7.16,16-16v-8H184z"/>
<path style="fill:#ECECEC;" d="M456,360H344c-8.84,0-16,7.16-16,16v80h144v-80C472,367.16,464.84,360,456,360z"/>
<rect x="328" y="432" style="fill:#B6C1CE;" width="144" height="24"/>
<rect x="360" y="392" style="fill:#39C3FC;" width="80" height="64"/>
<rect x="360" y="432" style="fill:#148CE0;" width="80" height="24"/>
<path style="fill:#8C95A4;" d="M312,456h176v16c0,8.84-7.16,16-16,16H328c-8.84,0-16-7.16-16-16V456z"/>
<path style="fill:#ECECEC;" d="M152,360H40c-8.84,0-16,7.16-16,16v80h144v-80C168,367.16,160.84,360,152,360z"/>
<rect x="24" y="432" style="fill:#B6C1CE;" width="144" height="24"/>
<rect x="56" y="392" style="fill:#39C3FC;" width="80" height="64"/>
<rect x="56" y="432" style="fill:#148CE0;" width="80" height="24"/>
<path style="fill:#8C95A4;" d="M8,456h176v16c0,8.84-7.16,16-16,16H24c-8.84,0-16-7.16-16-16V456z"/>
<path d="M248,176c-13.232,0-24,10.768-24,24c0,10.416,6.712,19.216,16,22.528V240h16v-17.472c9.288-3.312,16-12.112,16-22.528
	C272,186.768,261.232,176,248,176z M248,208c-4.416,0-8-3.584-8-8s3.584-8,8-8c4.416,0,8,3.584,8,8S252.416,208,248,208z"/>
<path d="M480,376c0-13.232-10.768-24-24-24h-48v-24c0-13.232-10.768-24-24-24h-96c-4.416,0-8-3.584-8-8v-24h16
	c13.232,0,24-10.768,24-24h104c39.704,0,72-32.296,72-72c0-37.136-28.264-67.784-64.408-71.592C427.784,68.264,397.136,40,360,40
	c-13.304,0-26.368,3.792-37.632,10.696C310.64,21.056,281.76,0,248,0c-33.776,0-62.664,21.08-74.384,50.744
	C162.328,43.784,149.328,40,136,40c-37.6,0-68.512,28.976-71.688,65.776C32.136,112.96,8,141.688,8,176c0,39.704,32.296,72,72,72h96
	c0,13.232,10.768,24,24,24h16v24c0,4.416-3.584,8-8,8h-96c-13.232,0-24,10.768-24,24v24H40c-13.232,0-24,10.768-24,24v72H0v24
	c0,13.232,10.768,24,24,24h144c13.232,0,24-10.768,24-24v-24h-16v-72c0-13.232-10.768-24-24-24h-48v-24c0-4.416,3.584-8,8-8h96
	c13.232,0,24-10.768,24-24v-24h32v24c0,13.232,10.768,24,24,24h96c4.416,0,8,3.584,8,8v24h-48c-13.232,0-24,10.768-24,24v72h-16v24
	c0,13.232,10.768,24,24,24h144c13.232,0,24-10.768,24-24v-24h-16V376z M160,376v72h-16v16h32v8c0,4.416-3.584,8-8,8H24
	c-4.416,0-8-3.584-8-8v-8h112v-16H32v-72c0-4.416,3.584-8,8-8h112C156.416,368,160,371.584,160,376z M288,144h-80v-24
	c0-22.056,17.944-40,40-40s40,17.944,40,40V144z M80,232c-30.872,0-56-25.128-56-56s25.128-56,56-56
	c7.272,0,14.336,1.368,20.992,4.072l6.016-14.832c-8.384-3.4-17.256-5.136-26.376-5.208C84.528,76.928,107.84,56,136,56
	c11.928,0,23.536,3.896,33.152,11C168.456,71.24,168,75.568,168,80h16c0-35.288,28.712-64,64-64s64,28.712,64,64h16
	c0-4.424-0.456-8.728-1.144-12.96C336.504,59.896,347.88,56,360,56c30.872,0,56,25.128,56,56c0,12.872-4.248,24.976-12.28,34.992
	l12.488,10.016c8.392-10.472,13.624-23.184,15.224-36.456C458.792,124.2,480,147.648,480,176c0,30.872-25.128,56-56,56H320v-64
	c0-10.416-6.712-19.216-16-22.528V120c0-30.872-25.128-56-56-56s-56,25.128-56,56v25.472c-9.288,3.312-16,12.112-16,22.528v64H80z
	 M192,248v-80c0-4.416,3.584-8,8-8h96c4.416,0,8,3.584,8,8v80c0,4.416-3.584,8-8,8h-96C195.584,256,192,252.416,192,248z M480,472
	c0,4.416-3.584,8-8,8H328c-4.416,0-8-3.584-8-8v-8h112v-16h-96v-72c0-4.416,3.584-8,8-8h112c4.416,0,8,3.584,8,8v72h-16v16h32V472z"
	/>
<path d="M40,176c0,22.056,17.944,40,40,40v-16c-13.232,0-24-10.768-24-24s10.768-24,24-24v-16C57.944,136,40,153.944,40,176z"/>
<path d="M384,112h16c0-22.056-17.944-40-40-40v16C373.232,88,384,98.768,384,112z"/>
<g>
</g>
<g>
</g>
<g>
</g>
<g>
</g>
<g>
</g>
<g>
</g>
<g>
</g>
<g>
</g>
<g>
</g>
<g>
</g>
<g>
</g>
<g>
</g>
<g>
</g>
<g>
</g>
<g>
</g>
</svg>
