<?xml version="1.0" encoding="iso-8859-1"?>
<!-- Generator: Adobe Illustrator 19.0.0, SVG Export Plug-In . SVG Version: 6.00 Build 0)  -->
<svg version="1.1" id="Capa_1" xmlns="http://www.w3.org/2000/svg" xmlns:xlink="http://www.w3.org/1999/xlink" x="0px" y="0px"
	 viewBox="0 0 499.136 499.136" style="enable-background:new 0 0 499.136 499.136;" xml:space="preserve">
<path style="fill:#FB5968;" d="M249.568,490.704L249.568,490.704L249.568,490.704c-114.664-38.224-192-145.52-192-266.384V74.704
	h23.664c62.056,0,121.952-22.776,168.336-64l0,0l0,0c46.384,41.224,106.28,64,168.336,64h23.664V224.32
	C441.568,345.184,364.232,452.48,249.568,490.704z"/>
<path style="fill:#CD2C5A;" d="M417.904,74.704c-0.112,0-0.224-0.008-0.336-0.008v149.568c0,111.336-71.248,210.184-176.872,245.392
	l-23.376,7.792c10.408,4.984,21.096,9.536,32.248,13.256c114.664-38.224,192-145.52,192-266.384V74.704H417.904z"/>
<circle style="fill:#ECECEC;" cx="249.568" cy="250.704" r="128"/>
<path style="fill:#B6C1CE;" d="M249.568,354.704c-66.64,0-121.336-50.944-127.392-116c-0.368,3.952-0.608,7.952-0.608,12
	c0,70.696,57.304,128,128,128s128-57.304,128-128c0-4.048-0.24-8.048-0.608-12C370.904,303.76,316.208,354.704,249.568,354.704z"/>
<path style="fill:#FCD770;" d="M249.568,330.704L249.568,330.704c-22.088,0-40-17.912-40-40v-64c0-22.088,17.912-40,40-40l0,0
	c22.088,0,40,17.912,40,40v64C289.568,312.792,271.656,330.704,249.568,330.704z"/>
<path d="M325.288,274.704l13.624,20.44l13.312-8.872l-18.376-27.568h-36.28v-32c0-18.312-10.312-34.248-25.432-42.336l17.432-8.72
	v-20.944h-16v11.056l-24,12l-24-12v-11.056h-16v20.944L227,184.36c-15.12,8.096-25.432,24.032-25.432,42.344v32h-36.28
	l-18.376,27.56l13.312,8.872l13.624-20.432h27.72v16h-20.28l-18.376,27.56l13.312,8.872l13.624-20.432h14.52
	c6.608,18.616,24.344,32,45.2,32s38.592-13.384,45.2-32h14.52l13.624,20.44l13.312-8.872l-18.376-27.568h-20.28v-16H325.288z
	 M249.568,194.704c17.648,0,32,14.352,32,32h-64C217.568,209.056,231.92,194.704,249.568,194.704z M257.568,321.568v-46.864h-16
	v46.864c-13.768-3.576-24-15.992-24-30.864v-48h64v48C281.568,305.576,271.336,317.992,257.568,321.568z"/>
<path d="M417.904,66.704c-60.16,0-118.056-22.008-163.024-61.984L249.568,0l-5.312,4.72
	C199.288,44.696,141.392,66.704,81.232,66.704H49.568V224.32c0,124.504,79.36,234.608,197.472,273.976l2.528,0.84l2.528-0.84
	C370.208,458.92,449.568,348.824,449.568,224.32V66.704H417.904z M433.568,224.32c0,113.832-70.328,214.736-176,254.832v-68.448h-16
	v68.448c-105.672-40.096-176-141.008-176-254.832V82.704h15.664c58.296,0,114.584-19.424,160.336-54.984v62.984h16V27.72
	c45.752,35.56,102.04,54.984,160.336,54.984h15.664V224.32z"/>
<path d="M97.568,130.704h-16v93.616c0,32.112,5.88,63.504,17.48,93.28l14.904-5.8c-10.872-27.928-16.384-57.36-16.384-87.48V130.704
	z"/>
<path d="M401.568,224.32c0,73.688-32.952,142.256-90.408,188.136l9.984,12.496c61.272-48.928,96.424-122.056,96.424-200.632v-5.616
	h-16V224.32z"/>
<rect x="81.568" y="98.704" width="16" height="16"/>
<rect x="401.568" y="186.704" width="16" height="16"/>
<path d="M329.272,340.416c-21.976,19.528-50.28,30.288-79.704,30.288c-66.168,0-120-53.832-120-120s53.832-120,120-120
	s120,53.832,120,120c0,28.704-10.296,56.488-28.984,78.208l12.128,10.44c21.184-24.632,32.856-56.12,32.856-88.648
	c0-74.992-61.008-136-136-136s-136,61.008-136,136s61.008,136,136,136c33.352,0,65.432-12.192,90.328-34.336L329.272,340.416z"/>
<g>
</g>
<g>
</g>
<g>
</g>
<g>
</g>
<g>
</g>
<g>
</g>
<g>
</g>
<g>
</g>
<g>
</g>
<g>
</g>
<g>
</g>
<g>
</g>
<g>
</g>
<g>
</g>
<g>
</g>
</svg>
