<?xml version="1.0" encoding="iso-8859-1"?>
<!-- Generator: Adobe Illustrator 19.0.0, SVG Export Plug-In . SVG Version: 6.00 Build 0)  -->
<svg version="1.1" id="Capa_1" xmlns="http://www.w3.org/2000/svg" xmlns:xlink="http://www.w3.org/1999/xlink" x="0px" y="0px"
	 viewBox="0 0 511.999 511.999" style="enable-background:new 0 0 511.999 511.999;" xml:space="preserve">
<path style="fill:#FF6E37;" d="M201.848,447.999c0,29.823,24.177,54,54,54s54-24.177,54-54H201.848z"/>
<path style="fill:#F5C86E;" d="M415.848,339.557V223.999c0-88.365-71.634-160-160-160l0,0c-88.365,0-160,71.634-160,160v115.558
	c0,17.467-7.395,34.091-20.287,45.876c-7.198,6.58-11.713,16.046-11.713,26.568l0,0c0,19.881,16.117,35.998,35.998,35.998h312.003
	c19.881,0,35.998-16.117,35.998-35.998l0,0c0-10.522-4.515-19.988-11.713-26.568C423.242,373.647,415.848,357.024,415.848,339.557z"
	/>
<circle style="fill:#FF5A5A;" cx="384.149" cy="127.999" r="64"/>
<path d="M442.881,378.052c-10.825-9.896-17.034-23.927-17.034-38.495v-99.558c0-5.522-4.477-10-10-10s-10,4.478-10,10v99.558
	c0,20.17,8.58,39.581,23.54,53.257c5.377,4.915,8.46,11.908,8.46,19.188c0,14.335-11.663,25.998-25.998,25.998H99.846
	c-14.335,0-25.998-11.663-25.998-25.998c0-7.279,3.083-14.272,8.46-19.188c14.96-13.676,23.54-33.087,23.54-53.257V223.999
	c0-82.71,67.29-150,150-150c22.748,0,45.154,5.173,65.446,15.012c-7.053,11.33-11.143,24.688-11.143,38.988
	c0,40.804,33.196,74,74,74s74-33.196,74-74s-33.196-74-74-74c-19.123,0-36.576,7.292-49.723,19.241
	c-14.906-7.775-30.897-13.273-47.41-16.344c3.684-5.75,5.83-12.576,5.83-19.897c0-20.401-16.598-36.999-37-36.999
	s-37,16.598-37,36.999c0,7.313,2.141,14.131,5.817,19.878C145.769,71.562,85.848,140.91,85.848,223.999v115.558
	c0,14.568-6.208,28.599-17.034,38.495c-9.511,8.694-14.966,21.068-14.966,33.949c0,25.363,20.635,45.998,45.998,45.998h92.788
	c4.816,30.556,31.326,54,63.214,54s58.398-23.444,63.214-54h92.788c25.363,0,45.998-20.635,45.998-45.998
	C457.848,399.12,452.393,386.746,442.881,378.052z M438.15,127.999c0,29.775-24.224,54-54,54s-54-24.225-54-54s24.224-54,54-54
	S438.15,98.224,438.15,127.999z M255.848,19.999c9.374,0,17,7.626,17,16.999c0,9.374-7.626,17-17,17c-9.374,0-17-7.626-17-17
	C238.848,27.625,246.474,19.999,255.848,19.999z M255.848,491.999c-20.821,0-38.298-14.542-42.84-34h85.68
	C294.146,477.457,276.669,491.999,255.848,491.999z"/>
<path d="M143.848,213.791c-5.523,0-10,4.478-10,10v0.208c0,5.522,4.477,10,10,10s10-4.478,10-10v-0.208
	C153.848,218.269,149.371,213.791,143.848,213.791z"/>
<path d="M161.912,184.176c16.034-37.771,52.906-62.177,93.936-62.177c5.523,0,10-4.478,10-10s-4.477-10-10-10
	c-49.071,0-93.17,29.188-112.346,74.362c-2.158,5.083,0.214,10.954,5.297,13.112c1.275,0.541,2.6,0.798,3.903,0.798
	C156.594,190.271,160.295,187.984,161.912,184.176z"/>
<path d="M373.848,126.22v18.112c0,5.522,4.477,10,10,10s10-4.478,10-10v-39.5c0-4.045-2.437-7.691-6.173-9.239
	c-3.735-1.544-8.037-0.692-10.898,2.168l-11.5,11.5c-3.905,3.905-3.905,10.237,0,14.143
	C367.611,125.737,370.814,126.679,373.848,126.22z"/>
<g>
</g>
<g>
</g>
<g>
</g>
<g>
</g>
<g>
</g>
<g>
</g>
<g>
</g>
<g>
</g>
<g>
</g>
<g>
</g>
<g>
</g>
<g>
</g>
<g>
</g>
<g>
</g>
<g>
</g>
</svg>
