<?xml version="1.0" encoding="iso-8859-1"?>
<!-- Generator: Adobe Illustrator 19.0.0, SVG Export Plug-In . SVG Version: 6.00 Build 0)  -->
<svg xmlns="http://www.w3.org/2000/svg" xmlns:xlink="http://www.w3.org/1999/xlink" version="1.1" id="Capa_1" x="0px" y="0px" viewBox="0 0 512 512" style="enable-background:new 0 0 512 512;" xml:space="preserve" width="512" height="512">
<g>
	<g>
		<g>
			<path style="fill:#75DC5E;" d="M167.346,504.5H12.337c-1.196,0-2.124-1.042-1.987-2.23l5.776-49.96     c2.643-22.865,22.004-40.114,45.026-40.114h57.38c23.021,0,42.383,17.249,45.026,40.114l5.776,49.96     C169.47,503.458,168.541,504.5,167.346,504.5z"/>
			<path style="fill:#2AAD52;" d="M163.557,452.311c-2.643-22.865-22.004-40.114-45.026-40.114h-16.062     c23.021,0,42.383,17.249,45.026,40.114l6.034,52.189h13.817c1.196,0,2.124-1.042,1.987-2.23L163.557,452.311z"/>
			<path style="fill:#F2A077;" d="M68.988,377.421v42.033c0,11.517,9.336,20.853,20.853,20.853h0     c11.517,0,20.853-9.336,20.853-20.853v-42.033H68.988z"/>
			<g>
				<path style="fill:#FFCCAA;" d="M158.107,314.255h-12.698v-30.618c0-22.171-17.973-40.145-40.145-40.145H74.418      c-22.171,0-40.145,17.973-40.145,40.145v30.618H21.575c-7.168,0-12.979,5.811-12.979,12.979v6.138      c0,7.168,5.811,12.979,12.979,12.979h12.779c1.515,29.339,25.778,52.659,55.488,52.659c14.855,0,28.346-5.828,38.316-15.326      c9.97-9.499,16.41-22.668,17.172-37.333h12.779c7.168,0,12.979-5.811,12.979-12.979v-6.139      C171.087,320.066,165.276,314.255,158.107,314.255z"/>
				<path style="fill:#F2A077;" d="M158.107,314.255h-12.698v-30.618c0-22.171-17.973-40.145-40.145-40.145h-16.75      c22.171,0,40.145,17.973,40.145,40.145v30.618l-0.08,32.097c-0.762,14.664-7.202,27.834-17.172,37.333      c-8.059,7.678-18.419,12.953-29.94,14.695c2.732,0.413,5.527,0.631,8.374,0.631c14.855,0,28.346-5.828,38.316-15.326      c9.97-9.499,16.41-22.668,17.172-37.333h12.779c7.168,0,12.979-5.811,12.979-12.979v-6.139      C171.087,320.066,165.276,314.255,158.107,314.255z"/>
				<path style="fill:#475D6D;" d="M34.273,287.701H50.25c4.52,0,8.617-2.658,10.46-6.785l4.145-9.285      c1.127-2.525,4.324-3.324,6.507-1.626l19.65,15.284c2.011,1.564,4.485,2.413,7.033,2.413h47.365v-34.505      c0-17.245-13.98-31.226-31.226-31.226H76.221c-5.676,0-10.277,4.601-10.277,10.277v5.498H49.388      c-8.347,0-15.114,6.767-15.114,15.114V287.701z"/>
				<path style="fill:#2C3F4F;" d="M114.183,221.97h-18c17.245,0,31.226,13.98,31.226,31.226v34.505h18v-34.505      C145.409,235.951,131.429,221.97,114.183,221.97z"/>
			</g>
		</g>
		<g>
			<path style="fill:#2BB4F3;" d="M499.663,504.5H344.654c-1.196,0-2.124-1.042-1.987-2.23l5.776-49.96     c2.643-22.865,22.004-40.114,45.026-40.114h57.38c23.021,0,42.383,17.249,45.026,40.114l5.776,49.96     C501.787,503.458,500.859,504.5,499.663,504.5z"/>
			<path style="fill:#1687C4;" d="M495.874,452.311c-2.643-22.865-22.004-40.114-45.026-40.114h-16.062     c23.021,0,42.383,17.249,45.026,40.114l6.034,52.189h13.817c1.196,0,2.124-1.042,1.987-2.23L495.874,452.311z"/>
			<path style="fill:#F2A077;" d="M401.306,377.421v42.033c0,11.517,9.336,20.853,20.853,20.853h0     c11.517,0,20.853-9.336,20.853-20.853v-42.033H401.306z"/>
			<g>
				<path style="fill:#FFCCAA;" d="M490.425,314.255h-12.698v-28.173c0-27.256-22.095-49.351-49.351-49.351h-12.434      c-27.256,0-49.351,22.095-49.351,49.351v28.173h-12.698c-7.168,0-12.979,5.811-12.979,12.979v6.138      c0,7.168,5.811,12.979,12.979,12.979h12.779c1.515,29.339,25.778,52.659,55.488,52.659c14.855,0,28.346-5.828,38.316-15.326      c9.97-9.499,16.41-22.668,17.172-37.333h12.779c7.168,0,12.979-5.811,12.979-12.979v-6.139      C503.404,320.066,497.593,314.255,490.425,314.255z"/>
				<path style="fill:#F2A077;" d="M490.425,314.255h-12.698v-30.618c0-22.171-17.973-40.145-40.145-40.145h-16.75      c22.171,0,40.145,17.973,40.145,40.145v30.618l-0.08,32.097c-0.762,14.664-7.202,27.834-17.172,37.333      c-8.059,7.678-18.419,12.953-29.94,14.695c2.732,0.413,5.527,0.631,8.374,0.631c14.855,0,28.346-5.828,38.316-15.326      c9.97-9.499,16.41-22.668,17.172-37.333h12.779c7.168,0,12.979-5.811,12.979-12.979v-6.139      C503.404,320.066,497.593,314.255,490.425,314.255z"/>
				<path style="fill:#F9DC6A;" d="M349.171,218.59h80.03c26.8,0,48.526,21.726,48.526,48.526v18.967h-96.484      c-17.713,0-32.072-14.359-32.072-32.072V218.59z"/>
				<path style="fill:#E5AC51;" d="M429.2,218.59h-17.75c26.8,0,48.526,21.726,48.526,48.526v18.966h17.75v-18.966      C477.727,240.316,456.001,218.59,429.2,218.59z"/>
			</g>
		</g>
	</g>
	<circle style="fill:#EBEAE6;" cx="256" cy="119.806" r="112.306"/>
	<path style="fill:#C9C5B5;" d="M317.025,25.518c21.134,20.421,34.281,49.057,34.281,80.766   c0,62.025-50.281,112.306-112.306,112.306c-22.502,0-43.455-6.622-61.025-18.018c20.205,19.523,47.71,31.539,78.025,31.539   c62.025,0,112.306-50.281,112.306-112.306C368.306,80.283,347.886,45.533,317.025,25.518z"/>
	<g>
		<path style="fill:#F9DC6A;" d="M294.687,120.615c0-21.746-17.942-39.302-39.831-38.671c-19.499,0.562-35.788,15.919-37.406,35.359    c-1.252,15.041,6.114,28.459,17.691,35.888v15.743c0,2.978,2.414,5.393,5.393,5.393h30.93c2.978,0,5.393-2.414,5.393-5.393V153.19    C287.578,146.312,294.687,134.298,294.687,120.615z"/>
		<path style="fill:#475D6D;" d="M270.483,174.326h-28.966v13.947c0,7.999,6.484,14.483,14.483,14.483h0    c7.999,0,14.483-6.484,14.483-14.483V174.326z"/>
	</g>
	<g>
		<path d="M113.513,341.025c-3.836-1.557-8.211,0.294-9.769,4.131c-2.304,5.681-7.761,9.351-13.903,9.351    c-4.005,0-7.776-1.563-10.614-4.393c-1.432-1.431-2.536-3.096-3.284-4.947c-1.55-3.84-5.918-5.698-9.762-4.146    c-3.841,1.551-5.697,5.922-4.146,9.763c1.506,3.73,3.722,7.074,6.593,9.944c5.676,5.662,13.21,8.78,21.214,8.78    c12.279,0,23.193-7.346,27.804-18.713C119.201,346.956,117.352,342.582,113.513,341.025z"/>
		<path d="M69.524,317.854v-2.684c0-4.142-3.357-7.5-7.5-7.5s-7.5,3.358-7.5,7.5v2.684c0,4.142,3.357,7.5,7.5,7.5    S69.524,321.996,69.524,317.854z"/>
		<path d="M117.658,307.669c-4.143,0-7.5,3.358-7.5,7.5v2.684c0,4.142,3.357,7.5,7.5,7.5s7.5-3.358,7.5-7.5v-2.684    C125.158,311.027,121.801,307.669,117.658,307.669z"/>
		<path d="M158.11,306.76h-5.2v-23.12c0-0.007-0.001-0.013-0.001-0.019v-30.425c0-21.354-17.372-38.726-38.726-38.726H76.221    c-9.125,0-16.667,6.912-17.664,15.775h-9.169c-12.47,0-22.614,10.145-22.614,22.614v30.703c0,0.026-0.004,0.051-0.004,0.077v23.12    H21.58c-11.293,0-20.48,9.183-20.48,20.47v6.14c0,11.292,9.188,20.48,20.48,20.48h6.049c3.351,20.23,16.27,37.077,33.861,45.935    v4.916h-0.34c-26.836,0-49.394,20.098-52.471,46.748L2.9,501.396c-0.315,2.69,0.536,5.394,2.336,7.417    C7.037,510.838,9.627,512,12.34,512h155.01c2.708,0,5.293-1.161,7.093-3.185c1.801-2.024,2.652-4.729,2.338-7.406l-5.771-49.963    c-3.089-26.65-25.65-46.747-52.479-46.747h-0.34v-4.912c5.485-2.765,10.589-6.339,15.141-10.676    c9.989-9.509,16.491-21.834,18.719-35.262h6.061c11.292,0,20.479-9.188,20.479-20.48v-6.14    C178.59,315.943,169.402,306.76,158.11,306.76z M41.773,252.86c0-4.199,3.416-7.614,7.614-7.614h16.557c4.143,0,7.5-3.358,7.5-7.5    v-5.498c0-1.531,1.245-2.777,2.776-2.777h37.963c13.082,0,23.726,10.643,23.726,23.726v27.005H98.045    c-0.875,0-1.737-0.296-2.429-0.833l-19.65-15.284c-2.095-1.629-4.614-2.482-7.194-2.482c-0.957,0-1.922,0.117-2.876,0.355    c-3.529,0.882-6.405,3.292-7.89,6.616l-4.145,9.284c-0.635,1.423-2.053,2.343-3.611,2.343h-8.477V252.86z M156.109,453.17    l5.063,43.83h-14.275v-32.205c0-4.142-3.357-7.5-7.5-7.5s-7.5,3.358-7.5,7.5V497h-84.11v-32.205c0-4.142-3.357-7.5-7.5-7.5    s-7.5,3.358-7.5,7.5V497H18.51l5.07-43.83c2.203-19.081,18.355-33.47,37.57-33.47h0.346c0.135,15.523,12.795,28.11,28.343,28.11    c7.582,0,14.702-2.952,20.044-8.307c5.297-5.298,8.236-12.322,8.301-19.803h0.346C137.742,419.7,153.897,434.091,156.109,453.17z     M103.19,419.45c0,7.33-5.922,13.36-13.351,13.36c-7.361,0-13.35-5.993-13.35-13.36v-14.369c4.308,0.928,8.771,1.428,13.35,1.428    c4.537,0,9.004-0.497,13.351-1.433V419.45z M163.59,333.37c0,3.021-2.458,5.48-5.479,5.48h-12.78c-3.991,0-7.283,3.126-7.49,7.112    c-0.638,12.31-5.911,23.776-14.854,32.288c-8.973,8.55-20.745,13.259-33.146,13.259c-25.593,0-46.677-20.007-48-45.548    c-0.207-3.986-3.499-7.112-7.49-7.112H21.58c-3.021,0-5.48-2.458-5.48-5.48v-6.14c0-3.016,2.459-5.47,5.48-5.47H34.27    c4.143,0,7.5-3.358,7.5-7.5v-19.059h8.48c7.469,0,14.263-4.407,17.309-11.228l2.46-5.512l16.389,12.747    c3.311,2.575,7.443,3.993,11.638,3.993h39.865v19.059c0,4.142,3.357,7.5,7.5,7.5h12.7c3.021,0,5.479,2.454,5.479,5.47V333.37z"/>
		<path d="M449.962,350.794c1.557-3.838-0.293-8.212-4.132-9.769c-3.837-1.557-8.211,0.294-9.769,4.131    c-5.077,12.52-22.806,12.374-27.802,0.011c-1.55-3.84-5.919-5.698-9.762-4.146c-3.841,1.551-5.697,5.922-4.146,9.763    c4.431,10.977,15.211,18.724,27.808,18.724C434.438,369.507,445.352,362.162,449.962,350.794z"/>
		<path d="M401.842,317.854v-2.684c0-4.142-3.357-7.5-7.5-7.5s-7.5,3.358-7.5,7.5v2.684c0,4.142,3.357,7.5,7.5,7.5    S401.842,321.996,401.842,317.854z"/>
		<path d="M449.976,325.354c4.143,0,7.5-3.358,7.5-7.5v-2.684c0-4.142-3.357-7.5-7.5-7.5s-7.5,3.358-7.5,7.5v2.684    C442.476,321.996,445.833,325.354,449.976,325.354z"/>
		<path d="M465.641,389.113c9.987-9.506,16.491-21.831,18.726-35.263h6.063c11.287,0,20.471-9.188,20.471-20.48v-6.14    c0-11.287-9.188-20.47-20.48-20.47h-5.189v-20.68c0-0.026-0.004-0.051-0.004-0.077v-18.886c0-30.893-25.134-56.026-56.026-56.026    h-80.029c-4.143,0-7.5,3.358-7.5,7.5v35.42c0,13.619,6.916,25.651,17.419,32.774v19.976h-5.2c-11.292,0-20.479,9.183-20.479,20.47    v6.14c0,11.292,9.188,20.48,20.479,20.48h6.06c3.351,20.229,16.27,37.076,33.86,45.934v4.916h-0.34    c-26.829,0-49.391,20.097-52.479,46.75l-5.77,49.946c-0.315,2.691,0.536,5.396,2.337,7.419c1.8,2.024,4.385,3.185,7.093,3.185    h155.01c2.713,0,5.303-1.162,7.104-3.187c1.8-2.023,2.651-4.727,2.337-7.405l-5.78-49.958    c-3.077-26.651-25.635-46.75-52.471-46.75h-0.34v-4.916C455.99,397.02,461.092,393.447,465.641,389.113z M356.671,226.09H429.2    c22.622,0,41.026,18.404,41.026,41.026v11.466h-88.983c-13.549,0-24.572-11.023-24.572-24.572V226.09z M374.16,345.962    c-0.207-3.986-3.499-7.112-7.49-7.112h-12.78c-3.021,0-5.479-2.458-5.479-5.48v-6.14c0-3.016,2.458-5.47,5.479-5.47h12.7    c4.143,0,7.5-3.358,7.5-7.5v-21.337c2.322,0.426,4.71,0.66,7.153,0.66h88.987v20.677c0,4.142,3.357,7.5,7.5,7.5h12.689    c3.021,0,5.48,2.454,5.48,5.47v6.14c0,3.021-2.454,5.48-5.471,5.48H477.65c-3.989,0-7.28,3.123-7.489,7.106    c-0.647,12.317-5.926,23.785-14.865,32.294c-4.452,4.242-9.593,7.535-15.155,9.78c-0.037,0.015-0.072,0.031-0.108,0.046    c-5.619,2.252-11.667,3.432-17.872,3.432C396.567,391.51,375.483,371.503,374.16,345.962z M488.42,453.172L493.49,497h-14.276    v-32.205c0-4.142-3.357-7.5-7.5-7.5s-7.5,3.358-7.5,7.5V497h-84.11v-32.205c0-4.142-3.357-7.5-7.5-7.5s-7.5,3.358-7.5,7.5V497    h-14.275l5.063-43.827c2.212-19.083,18.367-33.473,37.579-33.473h0.346c0.135,15.523,12.795,28.11,28.344,28.11    c7.582,0,14.702-2.952,20.044-8.307c5.297-5.298,8.235-12.323,8.3-19.803h0.346C470.064,419.7,486.217,434.089,488.42,453.172z     M435.51,419.45c0,7.331-5.921,13.36-13.35,13.36c-7.361,0-13.351-5.993-13.351-13.36v-14.369    c4.308,0.928,8.772,1.429,13.351,1.429c4.536,0,9.003-0.498,13.35-1.434V419.45z"/>
		<path d="M414.658,149.075V160c0,4.142,3.357,7.5,7.5,7.5s7.5-3.358,7.5-7.5v-10.925c0-4.142-3.357-7.5-7.5-7.5    S414.658,144.933,414.658,149.075z"/>
		<path d="M400.545,127.506c2.505,0.39,4.835,1.325,6.924,2.778c1.305,0.908,2.798,1.343,4.275,1.343    c2.373,0,4.707-1.123,6.164-3.218c2.365-3.4,1.525-8.075-1.875-10.44c-3.917-2.725-8.475-4.552-13.18-5.285    c-4.103-0.638-7.928,2.164-8.565,6.256C393.651,123.034,396.452,126.869,400.545,127.506z"/>
		<path d="M422.158,180.924c-4.143,0-7.5,3.358-7.5,7.5v5c0,4.142,3.357,7.5,7.5,7.5s7.5-3.358,7.5-7.5v-5    C429.658,184.282,426.301,180.924,422.158,180.924z"/>
		<path d="M89.842,200.924c4.143,0,7.5-3.358,7.5-7.5v-5c0-4.142-3.357-7.5-7.5-7.5s-7.5,3.358-7.5,7.5v5    C82.342,197.566,85.699,200.924,89.842,200.924z"/>
		<path d="M89.842,167.519c4.143,0,7.5-3.358,7.5-7.5v-10.925c0-4.142-3.357-7.5-7.5-7.5s-7.5,3.358-7.5,7.5v10.925    C82.342,164.161,85.699,167.519,89.842,167.519z"/>
		<path d="M100.239,131.639c1.479,0,2.975-0.437,4.28-1.347c2.088-1.455,4.416-2.391,6.922-2.784    c4.092-0.642,6.889-4.479,6.247-8.571c-0.642-4.091-4.471-6.887-8.571-6.248c-4.704,0.738-9.259,2.569-13.172,5.295    c-3.398,2.368-4.234,7.042-1.867,10.441C95.536,130.518,97.868,131.639,100.239,131.639z"/>
		<path d="M136.413,126.95c3.709,62.747,55.924,112.661,119.587,112.661s115.877-49.914,119.587-112.661    c3.027-0.965,5.22-3.798,5.22-7.145s-2.193-6.179-5.22-7.145C371.877,49.914,319.662,0,256,0    c-30.48,0-59.525,11.455-81.783,32.256c-3.026,2.828-3.187,7.574-0.358,10.601c2.828,3.026,7.573,3.188,10.601,0.358    C203.928,25.021,229.335,15,256,15c57.79,0,104.806,47.016,104.806,104.806S313.79,224.611,256,224.611    s-104.806-47.016-104.806-104.806c0-19.203,5.237-37.981,15.146-54.305c2.149-3.541,1.021-8.153-2.52-10.303    c-3.539-2.149-8.153-1.021-10.303,2.519c-10.1,16.638-15.943,35.5-17.099,54.942c-3.03,0.964-5.225,3.798-5.225,7.147    C131.194,123.152,133.387,125.984,136.413,126.95z"/>
		<path d="M227.643,157.062v11.872c0,4.73,2.568,8.862,6.375,11.105v8.235c0,12.121,9.861,21.982,21.982,21.982    s21.982-9.861,21.982-21.982v-8.235c3.807-2.243,6.375-6.375,6.375-11.105v-11.869c11.236-8.726,17.83-22.064,17.83-36.45    c0-12.589-4.974-24.354-14.005-33.129c-9.028-8.771-20.943-13.401-33.542-13.039c-23.515,0.678-42.716,18.834-44.664,42.233    C208.668,132.405,215.37,147.514,227.643,157.062z M262.982,188.274c0,3.85-3.132,6.982-6.982,6.982s-6.982-3.132-6.982-6.982    v-6.447h13.965V188.274z M224.926,117.925c1.292-15.522,14.534-28.034,30.146-28.483c8.537-0.25,16.563,2.881,22.658,8.803    c6.099,5.925,9.457,13.87,9.457,22.371c0,10.668-5.376,20.486-14.38,26.263c-2.15,1.379-3.45,3.758-3.45,6.313v13.636h-26.715    V153.19c0-2.554-1.3-4.933-3.45-6.313C229.428,140.612,223.96,129.518,224.926,117.925z"/>
		<path d="M263.5,54.826v-7.888c0-4.142-3.357-7.5-7.5-7.5s-7.5,3.358-7.5,7.5v7.888c0,4.142,3.357,7.5,7.5,7.5    S263.5,58.968,263.5,54.826z"/>
		<path d="M223.282,71.94c1.272,0,2.562-0.324,3.743-1.006c3.587-2.071,4.816-6.658,2.745-10.245l-3.943-6.831    c-2.071-3.587-6.657-4.816-10.245-2.745c-3.587,2.071-4.816,6.658-2.745,10.245l3.943,6.831    C218.169,70.595,220.69,71.94,223.282,71.94z"/>
		<path d="M288.718,71.94c2.592,0,5.113-1.346,6.502-3.751l3.943-6.831c2.071-3.587,0.842-8.174-2.745-10.245    c-3.589-2.072-8.175-0.842-10.245,2.745l-3.943,6.831c-2.071,3.587-0.842,8.174,2.745,10.245    C286.156,71.616,287.445,71.94,288.718,71.94z"/>
	</g>
</g>















</svg>
