<?xml version="1.0" encoding="iso-8859-1"?>
<!-- Generator: Adobe Illustrator 19.0.0, SVG Export Plug-In . SVG Version: 6.00 Build 0)  -->
<svg xmlns="http://www.w3.org/2000/svg" xmlns:xlink="http://www.w3.org/1999/xlink" version="1.1" id="Capa_1" x="0px" y="0px" viewBox="0 0 512 512" style="enable-background:new 0 0 512 512;" xml:space="preserve" width="512" height="512">
<g>
	<g>
		<g>
			<path style="fill:#F2A077;" d="M309.521,405.028h19.282v68.161H313.55c-2.225,0-4.029,1.804-4.029,4.029l0,0     c0,5.899-4.782,10.681-10.681,10.681H199.77v-14.71v-70.84c0-6.677,5.413-12.09,12.09-12.09h76.076     c5.128,0,10.021,2.152,13.486,5.933L309.521,405.028z"/>
			<path style="fill:#D6774D;" d="M309.521,456.878c0-2.225,1.804-4.029,4.029-4.029h15.253v20.34H313.55     c-2.225,0-4.029,1.804-4.029,4.029c0,5.899-4.782,10.681-10.681,10.681H199.77v-14.71v-5.63h99.071     C304.739,467.559,309.521,462.777,309.521,456.878z"/>
			<path style="fill:#75DC5E;" d="M390.631,487.958h-54.789c-3.887,0-7.038-3.151-7.038-7.038v-83.622     c0-3.887,3.151-7.038,7.038-7.038h54.789V487.958z"/>
			<path style="fill:#2AAD52;" d="M328.803,459.552v21.367c0,3.887,3.151,7.038,7.038,7.038h54.789v-21.367h-54.789     C331.954,466.591,328.803,463.44,328.803,459.552z"/>
		</g>
	</g>
	<rect x="222.609" y="328.438" style="fill:#EBEAE6;" width="35.626" height="176.062"/>
	<g>
		<path style="fill:#2BB4F3;" d="M111.355,335.641H56.566v-97.699h54.789c3.887,0,7.038,3.151,7.038,7.038v83.622    C118.393,332.49,115.242,335.641,111.355,335.641z"/>
		<path style="fill:#1687C4;" d="M118.393,307.235v21.367c0,3.887-3.151,7.038-7.038,7.038H56.566v-21.367h54.789    C115.242,314.274,118.393,311.123,118.393,307.235z"/>
		<path style="fill:#D7875F;" d="M137.675,252.711v-2.068c0-8.393,4.075-16.262,10.929-21.106l28.698-20.282    c1.978-1.398,4.34-2.148,6.761-2.148h40.426c9.61,0,17.4,7.79,17.4,17.4v0.42h24.365c7.639,0,13.832,6.193,13.832,13.832v0    c0,7.639-6.193,13.832-13.832,13.832h3.401c7.639,0,13.832,6.193,13.832,13.832v0c0,7.639-6.193,13.832-13.832,13.832h-9.524    c7.639,0,13.832,6.193,13.832,13.832v0c0,7.639-6.193,13.832-13.832,13.832h-8.163c7.639,0,13.832,6.193,13.832,13.832v0    c0,7.639-6.193,13.832-13.832,13.832h-4.541H222.49h-74.134c-5.899,0-10.681-4.782-10.681-10.681c0-2.225-1.804-4.029-4.029-4.029    h-15.253v-68.161H137.675z"/>
		<path style="fill:#B05A3D;" d="M137.675,304.924c0,5.899,4.782,10.681,10.681,10.681h74.134h24.937h4.541    c3.709,0,7.069-1.468,9.552-3.844c2.632,2.518,4.279,6.057,4.279,9.988v0c0,7.639-6.193,13.832-13.832,13.832h-4.541H222.49    h-74.134c-5.899,0-10.681-4.782-10.681-10.681c0-2.225-1.804-4.029-4.029-4.029h-15.253v-19.976h15.253    C135.871,300.896,137.675,302.699,137.675,304.924z"/>
	</g>
	<g>
		<g>
			<path style="fill:#E88E6B;" d="M180.944,377.243h29.478c7.639,0,13.832,6.193,13.832,13.832v0     c0,7.639-6.193,13.832-13.832,13.832h-29.478c-7.639,0-13.832-6.193-13.832-13.832v0     C167.112,383.436,173.304,377.243,180.944,377.243z"/>
			<path style="fill:#F7AA86;" d="M177.542,404.907h29.478c7.639,0,13.832,6.193,13.832,13.832v0     c0,7.639-6.193,13.832-13.832,13.832h-29.478c-7.639,0-13.832-6.193-13.832-13.832v0     C163.71,411.1,169.903,404.907,177.542,404.907z"/>
			<path style="fill:#E88E6B;" d="M187.066,432.571h29.478c7.639,0,13.832,6.193,13.832,13.832v0     c0,7.639-6.193,13.832-13.832,13.832h-29.478c-7.639,0-13.832-6.193-13.832-13.832v0     C173.234,438.764,179.427,432.571,187.066,432.571z"/>
			<path style="fill:#FFCCAA;" d="M195.229,460.235h29.478c7.639,0,13.832,6.193,13.832,13.832v0     c0,7.639-6.193,13.832-13.832,13.832h-29.478c-7.639,0-13.832-6.193-13.832-13.832v0     C181.397,466.427,187.59,460.235,195.229,460.235z"/>
		</g>
		<path style="fill:#FFCCAA;" d="M263.134,359.424c2.422,0,4.784,0.75,6.761,2.148l28.698,20.282    c6.854,4.844,10.929,12.714,10.929,21.106v10.881c0,12.656-10.259,22.915-22.915,22.915h-8.45c-21.351,0-38.66-17.309-38.66-38.66    v-2.404c0-2.981-2.416-5.397-5.397-5.397h0c-2.981,0-5.397,2.416-5.397,5.397v14.042c0,13.111-10.629,23.74-23.74,23.74h0    c-4.222,0-7.644-3.422-7.644-7.644v-49.007c0-9.61,7.79-17.4,17.4-17.4H263.134z"/>
	</g>
	<path style="fill:#FF5A59;" d="M452.422,167.269H258.235V7.5h194.187c2.506,0,3.907,2.89,2.356,4.858l-57.701,73.169   c-0.859,1.089-0.859,2.626,0,3.715l57.701,73.169C456.329,164.379,454.927,167.269,452.422,167.269z"/>
	<rect x="258.235" y="7.5" style="fill:#CE3A4C;" width="24.961" height="159.769"/>
	<rect x="222.609" y="7.5" style="fill:#EBEAE6;" width="35.626" height="217.426"/>
	<path d="M460.666,157.767l-55.503-70.383l55.503-70.382c2.513-3.186,2.974-7.433,1.203-11.083C460.099,2.268,456.479,0,452.421,0   c-11.659,0-218.787,0-229.812,0c-4.142,0-7.5,3.358-7.5,7.5v35.426c0,4.142,3.358,7.5,7.5,7.5s7.5-3.358,7.5-7.5V15h20.626v152.269   v50.158h-20.626v-144.5c0-4.142-3.358-7.5-7.5-7.5s-7.5,3.358-7.5,7.5V199.61h-31.042c-4.009,0-7.849,1.223-11.088,3.525   l-28.696,20.277c-7.335,5.176-12.216,13.073-13.66,21.798h-4.729v-0.23c0-8.016-6.522-14.538-14.539-14.538H56.566   c-4.142,0-7.5,3.358-7.5,7.5s3.358,7.5,7.5,7.5h54.328v82.699H56.566c-4.142,0-7.5,3.358-7.5,7.5s3.358,7.5,7.5,7.5h54.789   c8.017,0,14.539-6.522,14.539-14.538v-0.232h4.615c1.625,8.371,9.01,14.71,17.848,14.71h66.75v8.844h-0.389   c-11.269,0-20.808,7.527-23.867,17.816h-9.903c-5.708,0-11.068,2.226-15.083,6.256c-4.028,4.028-6.247,9.385-6.247,15.083   c0,4.39,1.336,8.474,3.619,11.87c-0.261,0.236-0.531,0.457-0.782,0.707c-4.028,4.028-6.247,9.385-6.247,15.083   c0,8.188,4.646,15.302,11.434,18.876c-1.234,2.727-1.904,5.701-1.904,8.784c0,7.752,4.171,14.531,10.372,18.266   c-1.403,2.841-2.212,6.024-2.212,9.4c0,11.763,9.569,21.332,21.332,21.332h19.877v9.102c0,4.142,3.358,7.5,7.5,7.5   s7.5-3.358,7.5-7.5v-9.821c9.152-2.401,15.932-10.719,15.932-20.613c0-7.748-4.165-14.523-10.361-18.26   c1.425-2.893,2.198-6.087,2.198-9.406c0-6.988-3.393-13.183-8.602-17.076c3.089-3.826,5.299-8.391,6.309-13.386   c3.242,7.706,8.52,14.351,15.153,19.266V504.5c0,4.142,3.358,7.5,7.5,7.5c4.143,0,7.5-3.358,7.5-7.5v-9.1h33.1   c4.854,0,9.419-1.892,12.853-5.326c2.602-2.602,4.318-5.852,4.998-9.384h4.616v0.229c0,8.016,6.521,14.538,14.538,14.538h54.789   c4.143,0,7.5-3.358,7.5-7.5s-3.357-7.5-7.5-7.5h-54.327v-7.209c0-0.02,0.003-0.039,0.003-0.058s-0.003-0.038-0.003-0.058v-68.044   c0-0.02,0.003-0.038,0.003-0.058s-0.003-0.038-0.003-0.058v-7.213h54.327c4.143,0,7.5-3.358,7.5-7.5s-3.357-7.5-7.5-7.5h-54.789   c-8.017,0-14.538,6.522-14.538,14.538v0.233h-4.741c-1.444-8.72-6.311-16.62-13.641-21.801l-28.698-20.282   c-2.544-1.798-5.44-2.925-8.486-3.338v-14.086c0.449-0.381,0.892-0.77,1.313-1.191c4.027-4.028,6.246-9.385,6.246-15.083   c0-3.361-0.781-6.543-2.172-9.375c1.474-0.889,2.852-1.963,4.106-3.213c4.021-4.038,6.235-9.391,6.235-15.073   c0-3.125-0.676-6.097-1.889-8.775c1.879-0.989,3.619-2.268,5.163-3.812c4.027-4.028,6.246-9.385,6.246-15.083   c0-6.251-2.702-11.882-7.001-15.787c2.342-3.483,3.601-7.581,3.601-11.873c0-11.761-9.568-21.33-21.33-21.33h-0.521v-42.662h91.096   c4.143,0,7.5-3.358,7.5-7.5s-3.357-7.5-7.5-7.5h-91.096V15h177.407l-51.957,65.885c-3.015,3.826-3.016,9.171,0.002,13.001   l51.954,65.882h-56.311c-4.143,0-7.5,3.358-7.5,7.5s3.357,7.5,7.5,7.5h65.591c4.058,0,7.678-2.268,9.448-5.919   C463.639,165.199,463.178,160.952,460.666,157.767z M230.107,343.08h20.63v8.844h-20.63V343.08z M216.546,440.07   c3.49,0,6.33,2.84,6.33,6.33c0,1.692-0.658,3.282-1.853,4.477c-1.195,1.195-2.785,1.853-4.477,1.853h-29.48   c-3.49,0-6.33-2.84-6.33-6.33c0-1.692,0.658-3.282,1.853-4.477c1.195-1.195,2.785-1.854,4.477-1.854h12.79   c1.598,0.575,3.312,0.905,5.106,0.905c2.567,0,5.06-0.318,7.448-0.905H216.546z M177.546,425.07c-3.496,0-6.34-2.839-6.34-6.33   c0-1.692,0.658-3.282,1.842-4.466c1.207-1.202,2.804-1.864,4.498-1.864h3.4h8.871v12.66h-2.751H177.546z M176.48,386.593   c1.19-1.195,2.776-1.853,4.467-1.853h8.871v12.67h-8.871c-3.49,0-6.33-2.84-6.33-6.33   C174.617,389.388,175.275,387.798,176.48,386.593z M224.707,480.398h-29.478c-3.492,0-6.332-2.84-6.332-6.332   s2.84-6.332,6.332-6.332h29.478c3.492,0,6.332,2.84,6.332,6.332S228.198,480.398,224.707,480.398z M294.264,387.979   c4.857,3.432,7.757,9.033,7.757,14.981v1.973c0,0.033-0.005,0.064-0.005,0.097s0.004,0.064,0.005,0.097v15.901   c0,4.142,3.357,7.5,7.5,7.5s7.5-3.358,7.5-7.5v-8.498h4.282v53.16h-7.757c-6.357,0-11.53,5.172-11.53,11.53   c0,1.143-0.584,1.897-0.934,2.247c-0.349,0.348-1.104,0.933-2.246,0.933h-33.1v-37.846c3.954,1.106,8.118,1.702,12.42,1.702   c4.143,0,7.5-3.358,7.5-7.5s-3.357-7.5-7.5-7.5c-17.182,0-31.161-13.979-31.161-31.16v-2.403c0-7.112-5.786-12.897-12.897-12.897   s-12.897,5.786-12.897,12.897v14.042c0,8.955-7.285,16.24-16.24,16.24c-0.08,0-0.144-0.065-0.144-0.145v-49.006   c0-5.458,4.441-9.899,9.899-9.899h48.416c0.876,0,1.718,0.267,2.433,0.773L294.264,387.979z M272.586,238.76   c0,1.692-0.658,3.282-1.854,4.477c-1.194,1.195-2.784,1.853-4.477,1.853c-4.143,0-7.5,3.358-7.5,7.5s3.357,7.5,7.5,7.5h3.4   c3.49,0,6.33,2.84,6.33,6.33c0,1.692-0.658,3.282-1.854,4.477c-1.194,1.195-2.784,1.853-4.477,1.853h-9.53   c-4.142,0-7.5,3.358-7.5,7.5s3.358,7.5,7.5,7.5c3.496,0,6.34,2.844,6.34,6.34c0,1.687-0.662,3.281-1.843,4.467   c-1.206,1.202-2.804,1.863-4.497,1.863h-8.16c-4.142,0-7.5,3.358-7.5,7.5s3.358,7.5,7.5,7.5c5.601,0,8.453,6.83,4.477,10.807   c-3.502,3.502-1.623,1.198-108.087,1.854c-1.753,0-3.18-1.427-3.18-3.18c0-6.357-5.172-11.53-11.53-11.53h-7.753v-53.16h11.783   c4.142,0,7.5-3.358,7.5-7.5v-2.07c0-5.95,2.898-11.546,7.758-14.975l28.717-20.292c0.703-0.499,1.538-0.763,2.415-0.763h31.042   v2.816h-14.914c-4.142,0-7.5,3.358-7.5,7.5s3.358,7.5,7.5,7.5h41.614c0.026,0,0.051,0.004,0.077,0.004h24.37   C269.747,232.43,272.586,235.27,272.586,238.76z"/>
</g>















</svg>
