<?xml version="1.0" encoding="iso-8859-1"?>
<!-- Generator: Adobe Illustrator 19.0.0, SVG Export Plug-In . SVG Version: 6.00 Build 0)  -->
<svg xmlns="http://www.w3.org/2000/svg" xmlns:xlink="http://www.w3.org/1999/xlink" version="1.1" id="Capa_1" x="0px" y="0px" viewBox="0 0 512 512" style="enable-background:new 0 0 512 512;" xml:space="preserve" width="512" height="512">
<g>
	<g>
		<g>
			<path style="fill:#F2A077;" d="M437.757,279.382h22.534v79.659h-17.826c-2.6,0-4.708,2.108-4.708,4.708l0,0     c0,6.894-5.589,12.483-12.483,12.483H309.493V359.04v-82.79c0-7.803,6.326-14.129,14.129-14.129h88.909     c5.993,0,11.711,2.515,15.761,6.933L437.757,279.382z"/>
			<path style="fill:#D6774D;" d="M437.757,339.978c0-2.6,2.108-4.708,4.708-4.708h17.826v23.771h-17.826     c-2.6,0-4.708,2.108-4.708,4.708c0,6.894-5.589,12.483-12.483,12.483H309.493V359.04v-6.58h115.782     C432.169,352.461,437.757,346.872,437.757,339.978z"/>
			<path style="fill:#75DC5E;" d="M504.5,376.301h-35.983c-4.543,0-8.225-3.683-8.225-8.226v-97.728     c0-4.543,3.683-8.226,8.225-8.226H504.5V376.301z"/>
			<path style="fill:#2AAD52;" d="M460.292,343.104v24.971c0,4.543,3.683,8.226,8.226,8.226H504.5v-24.971h-35.983     C463.974,351.329,460.292,347.647,460.292,343.104z"/>
		</g>
		<path style="fill:#E88E6B;" d="M287.49,246.911h34.45c8.928,0,16.165,7.237,16.165,16.165v0c0,8.928-7.237,16.165-16.165,16.165    h-34.45c-8.928,0-16.165-7.237-16.165-16.165v0C271.325,254.148,278.563,246.911,287.49,246.911z"/>
		<path style="fill:#F7AA86;" d="M283.515,279.241h34.45c8.928,0,16.165,7.237,16.165,16.165v0c0,8.928-7.237,16.165-16.165,16.165    h-34.45c-8.928,0-16.165-7.237-16.165-16.165v0C267.35,286.478,274.588,279.241,283.515,279.241z"/>
		<path style="fill:#E88E6B;" d="M294.645,311.571h34.45c8.928,0,16.165,7.237,16.165,16.165v0c0,8.928-7.237,16.165-16.165,16.165    h-34.45c-8.928,0-16.165-7.237-16.165-16.165v0C278.48,318.808,285.718,311.571,294.645,311.571z"/>
		<path style="fill:#FFCCAA;" d="M304.186,343.901h34.45c8.928,0,16.165,7.237,16.165,16.165v0c0,8.928-7.237,16.165-16.165,16.165    h-34.45c-8.928,0-16.165-7.237-16.165-16.165v0C288.02,351.139,295.258,343.901,304.186,343.901z"/>
		<path style="fill:#FFCCAA;" d="M383.544,226.086c2.83,0,5.591,0.877,7.902,2.51l33.539,23.703    c8.01,5.661,12.772,14.858,12.772,24.666v12.717c0,14.791-11.99,26.781-26.781,26.781h-9.875    c-24.953,0-45.181-20.228-45.181-45.181v-2.809c0-3.484-2.824-6.307-6.307-6.307h0c-3.484,0-6.308,2.824-6.308,6.307v16.41    c0,15.323-12.422,27.745-27.745,27.745h0c-4.934,0-8.934-4-8.934-8.934V246.42c0-11.23,9.104-20.335,20.335-20.335H383.544z"/>
	</g>
	<g>
		<path style="fill:#2BB4F3;" d="M43.483,376.301H7.5V262.121h35.983c4.543,0,8.226,3.683,8.226,8.226v97.728    C51.708,372.618,48.026,376.301,43.483,376.301z"/>
		<path style="fill:#1687C4;" d="M51.708,343.104v24.971c0,4.543-3.683,8.226-8.226,8.226H7.5v-24.971h35.983    C48.026,351.329,51.708,347.647,51.708,343.104z"/>
		<path style="fill:#D7875F;" d="M74.243,279.382v-2.416c0-9.808,4.762-19.006,12.772-24.666l33.539-23.703    c2.311-1.633,5.072-2.51,7.902-2.51H175.7c11.231,0,20.335,9.104,20.335,20.335v0.49h28.475c8.928,0,16.165,7.237,16.165,16.165v0    c0,8.928-7.237,16.165-16.165,16.165h3.975c8.928,0,16.165,7.237,16.165,16.165v0c0,8.928-7.237,16.165-16.165,16.165h-11.13    c8.928,0,16.165,7.237,16.165,16.165v0c0,8.928-7.237,16.165-16.165,16.165h-9.54c8.928,0,16.165,7.237,16.165,16.165v0    c0,8.928-7.237,16.165-16.165,16.165h-5.307h-29.143H86.725c-6.894,0-12.483-5.589-12.483-12.483c0-2.6-2.108-4.708-4.708-4.708    H51.708v-79.659H74.243z"/>
		<path style="fill:#B05A3D;" d="M74.243,340.403c0,6.894,5.589,12.483,12.483,12.483h86.639h29.143h5.307    c4.334,0,8.261-1.715,11.164-4.492c3.076,2.943,5.001,7.079,5.001,11.673v0c0,8.928-7.237,16.165-16.165,16.165h-5.307h-29.143    H86.725c-6.894,0-12.483-5.589-12.483-12.483c0-2.6-2.108-4.708-4.708-4.708H51.708v-23.346h17.826    C72.135,335.695,74.243,337.803,74.243,340.403z"/>
	</g>
	<g>
		<path d="M504.5,368.801h-35.983c-0.4,0-0.726-0.326-0.726-0.726v-97.728c0-0.4,0.326-0.726,0.726-0.726H504.5    c4.142,0,7.5-3.358,7.5-7.5s-3.358-7.5-7.5-7.5h-35.983c-8.671,0-15.726,7.055-15.726,15.726v1.533h-7.892    c-1.404-10.276-7.001-19.639-15.585-25.706l-33.538-23.702c-3.597-2.543-7.826-3.887-12.231-3.887h-8.264    c-4.142,0-7.5,3.358-7.5,7.5s3.358,7.5,7.5,7.5h8.264c1.287,0,2.522,0.393,3.573,1.136l33.539,23.703    c6.012,4.249,9.601,11.18,9.601,18.542v21.115c0,4.142,3.358,7.5,7.5,7.5s7.5-3.358,7.5-7.5V286.88h7.534v64.66H442.47    c-6.733,0-12.21,5.478-12.21,12.21c0,1.328-0.516,2.573-1.463,3.517c-0.944,0.944-2.196,1.463-3.527,1.463h-64.619    c1.06-2.685,1.65-5.606,1.65-8.664c0-9.015-5.068-16.866-12.503-20.86c1.93-3.467,2.962-7.385,2.962-11.466    c0-8.233-4.226-15.494-10.618-19.736c4.999-5.739,8.176-13.105,8.616-21.188c6.646,21.488,26.701,37.144,50.343,37.144    c4.142,0,7.5-3.358,7.5-7.5s-3.358-7.5-7.5-7.5c-20.777,0-37.68-16.903-37.68-37.68v-2.81c0-7.615-6.195-13.81-13.81-13.81    c-3.68,0-7.144,1.437-9.753,4.046c-2.61,2.609-4.047,6.077-4.047,9.764v16.41c0,11.166-9.084,20.25-20.25,20.25    c-0.292,0-0.501-0.081-0.625-0.148c-0.033-0.018-0.065-0.035-0.099-0.053c-0.086-0.045-0.168-0.106-0.3-0.24    c-0.186-0.184-0.407-0.507-0.407-1v-24.45v-32.82c0-7.075,5.755-12.83,12.83-12.83h17.19c4.142,0,7.5-3.358,7.5-7.5    s-3.358-7.5-7.5-7.5h-17.19c-12.925,0-23.819,8.857-26.935,20.82H287.49c-6.333,0-12.278,2.467-16.733,6.937    c-4.467,4.467-6.927,10.409-6.927,16.733c0,5.261,1.728,10.125,4.643,14.059c-0.58,0.48-1.14,0.989-1.678,1.529    c-4.479,4.464-6.945,10.41-6.945,16.742c0,9.509,5.645,17.721,13.758,21.477c-1.715,3.313-2.628,7.01-2.628,10.853    c0,9.016,5.073,16.868,12.514,20.86c-1.891,3.399-2.973,7.308-2.973,11.466c0,13.049,10.616,23.665,23.665,23.665h34.45    c0.019,0,0.038-0.001,0.058-0.001h86.576c5.337,0,10.356-2.08,14.122-5.845c3.117-3.104,5.081-7.058,5.676-11.345h7.724v1.535    c0,8.671,7.055,15.726,15.726,15.726H504.5c4.142,0,7.5-3.358,7.5-7.5S508.642,368.801,504.5,368.801z M288.533,321.604    c1.628-1.634,3.801-2.534,6.117-2.534h15.116c1.839,0.695,3.808,1.06,5.795,1.06c2.962,0,5.839-0.369,8.589-1.06h4.951    c4.775,0,8.66,3.89,8.66,8.67c0,2.31-0.9,4.479-2.552,6.125c-1.629,1.634-3.798,2.534-6.108,2.534h-34.45    c-4.781,0-8.67-3.885-8.67-8.66C285.98,325.424,286.88,323.251,288.533,321.604z M283.52,304.07c-4.781,0-8.67-3.885-8.67-8.66    c0-2.316,0.9-4.489,2.552-6.136c1.628-1.634,3.801-2.534,6.118-2.534h3.97h11.64v16.95c0,0.127,0.001,0.253,0.004,0.38h-4.484    H283.52z M281.372,256.944c1.629-1.634,3.802-2.534,6.118-2.534h11.64v17.33h-11.64c-4.775,0-8.66-3.885-8.66-8.66    C278.83,260.763,279.73,258.587,281.372,256.944z M295.521,360.066c0-4.778,3.887-8.665,8.665-8.665h34.45    c4.778,0,8.665,3.887,8.665,8.665c0,4.768-3.872,8.648-8.636,8.664H309.49c-0.01,0-0.019,0.001-0.029,0.001h-5.276    C299.408,368.731,295.521,364.844,295.521,360.066z"/>
		<path d="M243.525,277.148c2.92-3.936,4.649-8.806,4.649-14.072c0-13.049-10.616-23.665-23.665-23.665c-7.602,0-14.291,0-21.869,0    c-3.116-11.966-14.014-20.825-26.941-20.825h-47.245c-4.404,0-8.633,1.344-12.23,3.886l-33.539,23.703    c-8.585,6.068-14.195,15.43-15.598,25.708h-7.879v-1.535c0-8.671-7.055-15.726-15.726-15.726H7.5c-4.142,0-7.5,3.358-7.5,7.5    s3.358,7.5,7.5,7.5h35.983c0.4,0,0.726,0.326,0.726,0.726c0,103.847,0.402,98.454-0.726,98.454H7.5c-4.142,0-7.5,3.358-7.5,7.5    s3.358,7.5,7.5,7.5h35.983c8.671,0,15.726-7.055,15.726-15.726v-1.535h7.729c1.362,9.701,9.717,17.191,19.788,17.191h22.243    c4.142,0,7.5-3.358,7.5-7.5s-3.358-7.5-7.5-7.5H86.725c-2.748,0-4.982-2.235-4.982-4.983c0-6.731-5.477-12.208-12.208-12.208    H59.208v-64.659h15.034c4.142,0,7.5-3.358,7.5-7.5v-2.417c0-7.362,3.589-14.293,9.601-18.542l33.539-23.703    c1.051-0.743,2.287-1.136,3.573-1.136H175.7c4.491,0,8.444,2.323,10.738,5.825h-22.782c-4.142,0-7.5,3.358-7.5,7.5    s3.358,7.5,7.5,7.5c23.588,0,38.715,0,60.854,0c4.778,0,8.665,3.887,8.665,8.665s-3.887,8.665-8.665,8.665    c-4.142,0-7.5,3.358-7.5,7.5s3.358,7.5,7.5,7.5h3.975c4.778,0,8.666,3.887,8.666,8.665s-3.887,8.665-8.666,8.665h-11.13    c-4.142,0-7.5,3.358-7.5,7.5s3.358,7.5,7.5,7.5c4.778,0,8.665,3.887,8.665,8.665c0,4.778-3.887,8.666-8.665,8.666h-9.54    c-4.142,0-7.5,3.358-7.5,7.5s3.358,7.5,7.5,7.5c4.778,0,8.665,3.887,8.665,8.665s-3.887,8.665-8.665,8.665h-67.719    c-4.142,0-7.5,3.358-7.5,7.5s3.358,7.5,7.5,7.5h67.719c13.049,0,23.665-10.616,23.665-23.665c0-4.157-1.077-8.066-2.967-11.464    c7.438-3.994,12.507-11.85,12.507-20.866c0-3.903-0.95-7.589-2.631-10.838c8.117-3.755,13.761-11.977,13.761-21.492    C252.15,288.064,248.789,281.492,243.525,277.148z"/>
		<path d="M263.5,193.285v-57.586c0-4.142-3.358-7.5-7.5-7.5s-7.5,3.358-7.5,7.5v57.586c0,4.142,3.358,7.5,7.5,7.5    S263.5,197.427,263.5,193.285z"/>
		<path d="M214.931,211.727c1.389,2.406,3.91,3.751,6.502,3.751c1.272,0,2.562-0.324,3.743-1.006    c3.587-2.071,4.816-6.658,2.745-10.245l-28.793-49.871c-2.071-3.587-6.659-4.817-10.245-2.745    c-3.587,2.071-4.816,6.658-2.745,10.245L214.931,211.727z"/>
		<path d="M286.824,214.472c1.181,0.682,2.471,1.006,3.743,1.006c2.592,0,5.113-1.346,6.502-3.751l28.793-49.871    c2.071-3.587,0.842-8.174-2.745-10.245c-3.588-2.072-8.174-0.843-10.245,2.745l-28.793,49.871    C282.007,207.814,283.236,212.401,286.824,214.472z"/>
	</g>
</g>















</svg>
