<?xml version="1.0" encoding="iso-8859-1"?>
<!-- Generator: Adobe Illustrator 19.0.0, SVG Export Plug-In . SVG Version: 6.00 Build 0)  -->
<svg xmlns="http://www.w3.org/2000/svg" xmlns:xlink="http://www.w3.org/1999/xlink" version="1.1" id="Capa_1" x="0px" y="0px" viewBox="0 0 512 512" style="enable-background:new 0 0 512 512;" xml:space="preserve" width="512" height="512">
<g>
	<g>
		<path style="fill:#E88E6B;" d="M318.55,298.738c0,3.237-0.823,6.513-2.558,9.516l-36.64,63.463l-15.363,6.083l-41.769,16.538    l60.709-105.168c5.273-9.137,16.943-12.257,26.067-6.983c2.767,1.592,4.973,3.759,6.566,6.278    C317.519,291.533,318.55,295.109,318.55,298.738z"/>
		<path style="fill:#F2A077;" d="M352.653,288.552c0,3.237-0.823,6.513-2.558,9.516l-30.113,52.147l-41.769,16.538l-15.363,6.083    L314.42,283.5l2.611-4.516c5.273-9.137,16.943-12.257,26.067-6.983C349.233,275.525,352.653,281.947,352.653,288.552z"/>
		<path style="fill:#FFCCAA;" d="M378.532,267.157c-9.133-5.267-20.804-2.143-26.071,6.991l-34.02,58.918    c-3.459,5.997-9.301,10.235-16.076,11.659l-84.69,23.366c-7.96,2.191-16.304-1.819-19.559-9.397    c-0.91-2.107-1.353-4.321-1.353-6.524c0-4.429,1.796-8.786,5.147-11.97l23.893-22.672c8.99-7.972,9.828-21.714,1.867-30.704    c-4.297-4.86-10.283-7.338-16.292-7.338c-5.135,0-10.283,1.796-14.424,5.47L150.27,326.29    c-6.632,5.877-10.438,14.317-10.438,23.175v34.846c0,3.076-0.599,6.129-1.784,8.966l-19.199,44.744l92.818,39.514l22.455-52.573    c2.131-5.111,6.009-9.301,10.941-11.827l94.589-48.288c4.178-2.143,7.661-5.446,10.007-9.516l35.851-62.102    C390.79,284.095,387.653,272.424,378.532,267.157z"/>
		<path style="fill:#F2A077;" d="M208.049,308.062l-23.893,22.672c-3.352,3.184-5.147,7.541-5.147,11.97    c0,2.203,0.443,4.417,1.353,6.524c3.029,7.05,10.463,11.005,17.895,9.758c-0.045-0.099-0.098-0.191-0.142-0.291    c-0.91-2.107-1.353-4.321-1.353-6.524c0-4.429,1.795-8.786,5.147-11.97l23.893-22.672c8.99-7.972,9.828-21.714,1.867-30.704    c-4.254-4.811-10.162-7.283-16.109-7.333C217.685,288.409,216.356,300.695,208.049,308.062z"/>
		<path style="fill:#F2A077;" d="M378.532,267.157c-3.403-1.963-7.158-2.757-10.803-2.513c3.309,5.714,3.574,12.984,0.029,19.118    l-35.851,62.102c-2.346,4.07-5.829,7.374-10.007,9.516l-94.59,48.288c-4.932,2.526-8.81,6.715-10.941,11.827l-22.455,52.573    l-74.372-31.661l-0.692,1.614l92.818,39.514l22.455-52.573c2.131-5.111,6.009-9.301,10.941-11.827l94.59-48.288    c4.178-2.143,7.661-5.446,10.007-9.516l35.851-62.102C390.79,284.095,387.653,272.424,378.532,267.157z"/>
		<path style="fill:#75DC5E;" d="M107.977,420.006l-12.822,33.407l122.8,51.086l13.1-34.13c2.706-7.049-0.691-14.971-7.663-17.872    l-97.04-40.37C119.102,409.112,110.791,412.675,107.977,420.006z"/>
		<path style="fill:#2AAD52;" d="M223.392,452.498l-17.283-7.19c2.881,3.913,3.774,9.153,1.909,14.01l-13.585,35.396l23.522,9.786    l13.1-34.13C233.76,463.32,230.364,455.398,223.392,452.498z"/>
	</g>
	<g>
		<g>
			<path style="fill:#99462B;" d="M193.45,213.262c0-3.237,0.822-6.513,2.558-9.516l36.64-63.463l15.363-6.083l41.769-16.538     L229.071,222.83c-5.273,9.137-16.943,12.257-26.067,6.983c-2.767-1.592-4.973-3.759-6.566-6.278     C194.481,220.467,193.45,216.891,193.45,213.262z"/>
			<path style="fill:#B05A3D;" d="M159.347,223.448c0-3.237,0.823-6.513,2.558-9.516l30.113-52.147l41.769-16.538l15.363-6.083     L197.58,228.5l-2.611,4.516c-5.273,9.137-16.943,12.257-26.067,6.983C162.767,236.475,159.347,230.053,159.347,223.448z"/>
			<path style="fill:#D7875F;" d="M133.468,244.843c9.133,5.267,20.804,2.143,26.071-6.991l34.02-58.918     c3.459-5.997,9.301-10.235,16.076-11.659l84.69-23.366c7.96-2.191,16.304,1.82,19.559,9.397c0.91,2.107,1.353,4.321,1.353,6.524     c0,4.429-1.796,8.786-5.147,11.97l-23.893,22.672c-8.99,7.972-9.828,21.714-1.867,30.704c4.297,4.86,10.283,7.338,16.292,7.338     c5.135,0,10.283-1.796,14.424-5.47l46.684-41.333c6.632-5.877,10.438-14.317,10.438-23.175V127.69     c0-3.076,0.599-6.129,1.784-8.966l18.381-44.744l-92.818-39.514l-21.637,52.573c-2.131,5.111-6.009,9.301-10.941,11.827     l-94.59,48.288c-4.178,2.143-7.661,5.446-10.007,9.516l-35.851,62.102C121.21,227.905,124.347,239.576,133.468,244.843z"/>
			<path style="fill:#B05A3D;" d="M370.112,64.52l-18.16,44.204c-1.185,2.837-1.783,5.889-1.783,8.966v34.846     c0,8.858-3.807,17.297-10.438,23.175l-46.684,41.333c-3.189,2.83-6.976,4.534-10.894,5.173c0.639,1.027,1.349,2.024,2.178,2.959     c4.297,4.86,10.282,7.338,16.292,7.338c5.135,0,10.283-1.796,14.424-5.47l46.684-41.333c6.632-5.877,10.438-14.317,10.438-23.175     V127.69c0-3.076,0.598-6.129,1.783-8.966l18.381-44.744L370.112,64.52z"/>
			<path style="fill:#2BB4F3;" d="M404.023,91.994l12.822-33.407L294.045,7.5l-13.1,34.13c-2.706,7.049,0.691,14.971,7.663,17.872     l97.04,40.37C392.898,102.888,401.209,99.325,404.023,91.994z"/>
			<path style="fill:#1687C4;" d="M394.804,49.417l-12.342,32.157c-2.617,6.818-9.382,10.791-16.28,10.199l19.465,8.098     c7.251,3.016,15.561-0.547,18.375-7.878l12.822-33.407L394.804,49.417z"/>
		</g>
	</g>
	<g>
		<path d="M382.278,260.665c-6.149-3.55-13.314-4.495-20.172-2.658c-5.358,1.435-10.023,4.44-13.502,8.616    c-0.572-0.392-1.154-0.771-1.757-1.118c-6.15-3.55-13.313-4.495-20.17-2.659c-6.662,1.783-12.255,5.987-15.824,11.86    c-5.703-2.721-12.115-3.328-18.282-1.676c-6.859,1.837-12.591,6.239-16.139,12.391l-24.34,42.16    c-2.071,3.587-0.842,8.174,2.745,10.245c1.182,0.682,2.471,1.006,3.743,1.006c2.592,0,5.113-1.346,6.502-3.751l24.342-42.163    c1.547-2.682,4.042-4.599,7.027-5.398c2.285-0.612,4.646-0.508,6.833,0.266l-33.576,58.164l-54.03,14.909    c-4.318,1.19-8.904-1.014-10.679-5.151c-0.492-1.136-0.742-2.326-0.742-3.538c0-2.453,1.025-4.833,2.813-6.529l23.804-22.589    c11.975-10.713,13.064-29.167,2.41-41.201c-5.544-6.266-13.529-9.86-21.907-9.86c-7.164,0-14.056,2.613-19.401,7.354    l-46.685,41.334c-8.238,7.307-12.963,17.797-12.963,28.781v34.85c0,2.117-0.405,4.166-1.172,6.01l-5.871,13.673    c-4.25-0.879-8.658-0.45-12.742,1.301c-5.368,2.302-9.476,6.573-11.569,12.025l-12.822,33.407    c-1.484,3.867,0.447,8.205,4.314,9.689c3.867,1.484,8.206-0.447,9.689-4.314l12.822-33.407c0.629-1.638,1.863-2.921,3.477-3.613    c1.612-0.691,3.395-0.702,5.016-0.027l95.97,39.925c0.041,0.018,0.079,0.041,0.121,0.059c0.061,0.026,0.122,0.043,0.183,0.068    l0.765,0.318c3.245,1.35,4.801,4.977,3.541,8.259l-13.1,34.13c-1.484,3.867,0.447,8.205,4.314,9.689    c3.859,1.482,8.203-0.44,9.689-4.314l13.1-34.13c3.363-8.761,0.686-18.255-6.078-23.99l9.065-21.221    c1.444-3.465,4.087-6.322,7.426-8.036l29.43-15.02c3.689-1.883,5.154-6.4,3.271-10.089c-1.884-3.69-6.401-5.153-10.09-3.271    l-29.446,15.028c-6.504,3.338-11.631,8.884-14.412,15.556l-8.688,20.34l-79.239-32.964l5.681-13.23    c1.562-3.759,2.354-7.745,2.354-11.849v-34.85c0-6.697,2.885-13.097,7.911-17.555l46.685-41.334    c2.603-2.309,5.961-3.581,9.453-3.581c4.084,0,7.975,1.749,10.675,4.801c5.207,5.881,4.655,14.909-1.23,20.126    c-0.063,0.056-0.126,0.114-0.188,0.172l-23.889,22.67c-4.758,4.516-7.487,10.862-7.487,17.41c0,3.275,0.666,6.473,1.967,9.476    c4.7,10.962,16.922,16.84,28.438,13.674l84.478-23.311c8.742-1.903,16.309-7.428,20.792-15.188l34.021-58.923    c1.547-2.683,4.044-4.601,7.031-5.401c2.987-0.799,6.109-0.388,8.795,1.162c2.677,1.543,4.592,4.039,5.393,7.025    c0.802,2.99,0.39,6.113-1.161,8.798l-35.848,62.098c-1.629,2.819-4.03,5.102-6.925,6.591l-38.17,19.48    c-3.689,1.883-5.154,6.4-3.271,10.089c1.884,3.69,6.4,5.154,10.09,3.271l38.191-19.491c5.481-2.82,10.002-7.121,13.074-12.44    l35.848-62.098c3.556-6.154,4.5-13.322,2.66-20.184C392.824,269.94,388.425,264.21,382.278,260.665z M311.946,329.318    c-2.394,4.143-6.448,7.081-11.124,8.061c-0.153,0.032-0.306,0.069-0.457,0.111l-10.053,2.774l33.214-57.535    c1.546-2.679,4.043-4.594,7.03-5.394c2.988-0.8,6.111-0.388,8.798,1.163c0.489,0.282,0.947,0.606,1.385,0.952L311.946,329.318z"/>
		<path d="M419.531,51.586c-3.866-1.484-8.205,0.448-9.689,4.314l-12.822,33.407c-0.629,1.638-1.863,2.921-3.477,3.613    c-1.613,0.692-3.395,0.702-5.016,0.027l-3.29-1.369c-0.041-0.018-0.079-0.04-0.121-0.057c-0.035-0.014-0.07-0.023-0.104-0.037    l-93.525-38.908c-3.245-1.35-4.801-4.977-3.541-8.259l13.1-34.13c1.484-3.867-0.447-8.205-4.314-9.689    c-3.869-1.485-8.206,0.448-9.689,4.314l-13.1,34.13c-3.322,8.655-0.743,18.021,5.841,23.776l-8.828,21.436    c-1.444,3.465-4.087,6.322-7.425,8.035l-32.97,16.82c-3.689,1.882-5.155,6.399-3.272,10.089c1.325,2.599,3.957,4.093,6.686,4.093    c1.146,0,2.311-0.264,3.402-0.821l32.987-16.828c6.504-3.338,11.631-8.884,14.449-15.646l8.384-20.361l79.294,32.988    l-5.469,13.318c-1.562,3.759-2.354,7.745-2.354,11.849v34.85c0,6.697-2.885,13.097-7.911,17.555l-46.685,41.334    c-2.604,2.309-5.961,3.581-9.453,3.581c-4.084,0-7.975-1.749-10.675-4.801c-5.207-5.881-4.655-14.909,1.23-20.126    c0.063-0.056,0.126-0.114,0.188-0.172l23.889-22.67c4.758-4.516,7.487-10.862,7.487-17.41c0-3.275-0.666-6.473-1.967-9.476    c-4.701-10.963-16.924-16.84-28.438-13.674l-84.479,23.311c-8.741,1.904-16.308,7.428-20.791,15.188l-34.021,58.923    c-1.547,2.683-4.044,4.601-7.031,5.401c-2.99,0.799-6.111,0.388-8.795-1.162c-2.677-1.543-4.592-4.039-5.393-7.025    c-0.802-2.989-0.39-6.113,1.161-8.798l35.848-62.098c1.629-2.819,4.03-5.102,6.926-6.591l34.93-17.83    c3.688-1.883,5.153-6.401,3.27-10.09c-1.883-3.69-6.402-5.153-10.09-3.27l-34.951,17.841c-5.481,2.819-10.002,7.121-13.074,12.44    l-35.848,62.097c-3.556,6.154-4.5,13.323-2.66,20.184c1.839,6.858,6.238,12.588,12.385,16.133    c4.098,2.366,8.645,3.574,13.253,3.574c2.308,0,4.631-0.303,6.919-0.917c5.358-1.435,10.023-4.44,13.502-8.616    c0.572,0.392,1.154,0.771,1.757,1.118c4.099,2.366,8.646,3.574,13.255,3.574c2.307,0,4.628-0.303,6.915-0.915    c6.663-1.783,12.256-5.988,15.825-11.861c3.588,1.712,7.454,2.593,11.366,2.593c2.307,0,4.629-0.303,6.915-0.916    c6.859-1.837,12.591-6.239,16.139-12.391l25.26-43.75c2.071-3.587,0.842-8.174-2.745-10.245    c-3.587-2.072-8.175-0.843-10.245,2.745l-25.262,43.753c-1.546,2.682-4.042,4.599-7.027,5.398    c-2.284,0.612-4.646,0.508-6.833-0.266l33.576-58.164l54.03-14.909c4.321-1.186,8.905,1.014,10.679,5.151    c0.492,1.136,0.742,2.326,0.742,3.538c0,2.453-1.025,4.833-2.813,6.529l-23.804,22.589c-11.975,10.714-13.064,29.168-2.41,41.201    c5.544,6.266,13.529,9.86,21.907,9.86c7.164,0,14.056-2.613,19.401-7.354l46.685-41.334c8.238-7.307,12.963-17.797,12.963-28.781    v-34.85c0-2.117,0.405-4.166,1.218-6.121l5.592-13.618c1.496,0.327,3.01,0.505,4.526,0.505c2.865,0,5.729-0.583,8.449-1.75    c5.368-2.302,9.476-6.573,11.569-12.025l12.822-33.407C425.33,57.409,423.398,53.071,419.531,51.586z M188.474,229.271    c-1.546,2.679-4.043,4.594-7.03,5.394c-2.989,0.8-6.112,0.387-8.798-1.163c-0.489-0.282-0.946-0.606-1.385-0.952l28.793-49.869    c2.394-4.143,6.448-7.081,11.124-8.06c0.153-0.032,0.306-0.069,0.457-0.111l10.053-2.774L188.474,229.271z"/>
	</g>
</g>















</svg>
