<?xml version="1.0" encoding="iso-8859-1"?>
<!-- Generator: Adobe Illustrator 19.0.0, SVG Export Plug-In . SVG Version: 6.00 Build 0)  -->
<svg xmlns="http://www.w3.org/2000/svg" xmlns:xlink="http://www.w3.org/1999/xlink" version="1.1" id="Capa_1" x="0px" y="0px" viewBox="0 0 512.022 512.022" style="enable-background:new 0 0 512.022 512.022;" xml:space="preserve" width="512" height="512">
<g>
	<polygon style="fill:#F2A077;" points="348.599,216.287 348.599,445.174 197.441,445.174 126.715,504.522 103.427,476.775    19.591,376.872 122.838,290.248 198.605,216.287  "/>
	<polygon style="fill:#D6774D;" points="348.599,216.287 348.599,445.174 197.441,445.174 126.715,504.522 103.427,476.775    172.808,418.553 323.965,418.553 323.965,216.287  "/>
	<g>
		<path style="fill:#E88E6B;" d="M324.53,271.37h47.419c15.999,0,28.968,12.969,28.968,28.968c0,15.998-12.969,28.968-28.968,28.968    H324.53c-15.998,0-28.967-12.969-28.967-28.968C295.563,284.34,308.532,271.37,324.53,271.37z"/>
		<path style="fill:#FFCCAA;" d="M324.53,329.306h47.419c15.999,0,28.968,12.969,28.968,28.968    c0,15.998-12.969,28.968-28.968,28.968H324.53c-15.998,0-28.967-12.969-28.967-28.968    C295.563,342.275,308.532,329.306,324.53,329.306z"/>
		<path style="fill:#E88E6B;" d="M324.53,387.241h47.419c15.999,0,28.968,12.969,28.968,28.968    c0,15.998-12.969,28.968-28.968,28.968H324.53c-15.998,0-28.967-12.969-28.967-28.968    C295.563,400.21,308.532,387.241,324.53,387.241z"/>
		<g>
			<path style="fill:#F7AA86;" d="M324.53,213.435h120.668c15.999,0,28.968,12.969,28.968,28.968s-12.969,28.968-28.968,28.968     H324.53c-15.998,0-28.967-12.969-28.967-28.968S308.532,213.435,324.53,213.435z"/>
		</g>
	</g>
	<path style="fill:#75DC5E;" d="M406.574,162.017c8.328,17.084,29.044,24.794,46.508,17.295c4.913-2.11,9.106-5.167,12.458-8.871   c1.291-1.427,3.616-1.07,4.429,0.674l21.067,45.179c3.448,7.395,0.249,16.185-7.146,19.633l-36.988,17.248   c-1.611,0.751-3.52-0.228-3.794-1.984c-0.508-3.256-1.484-6.494-2.944-9.626c-8.884-19.052-32.352-26.668-50.937-15.749   c-14.436,8.482-21.118,26.229-15.869,42.128c1.573,4.765,4.018,8.953,7.073,12.457c1.172,1.345,0.71,3.439-0.906,4.193   l-28.033,13.072c-7.395,3.448-16.185,0.249-19.633-7.146l-21.068-45.179c-0.813-1.744,0.407-3.754,2.33-3.826   c4.992-0.187,10.03-1.434,14.803-3.841c16.97-8.558,24.38-29.383,16.646-46.744c-8.201-18.409-29.872-26.458-48.075-17.97   c-4.472,2.086-8.312,4.979-11.429,8.422c-1.287,1.422-3.609,1.054-4.42-0.685l-21.07-45.184   c-3.448-7.395-0.249-16.185,7.146-19.633l38.761-18.074c2.701-1.26,3.87-4.47,2.61-7.172l-4.232-9.075   c-0.702-1.506-2.06-2.601-3.682-2.967c-11.245-2.538-21.142-10.448-25.684-22.261c-6.395-16.633,0.653-35.811,16.289-44.359   c18.417-10.068,41.203-2.388,49.927,16.321c4.888,10.483,4.292,22.12-0.623,31.662c-0.764,1.483-0.806,3.232-0.101,4.743   l4.237,9.087c1.26,2.701,4.47,3.87,7.172,2.61l47.724-22.254c7.395-3.448,16.185-0.249,19.633,7.146l21.07,45.184   c0.811,1.739-0.399,3.754-2.316,3.826c-4.641,0.175-9.326,1.256-13.798,3.341C405.507,122.127,397.743,143.902,406.574,162.017z"/>
	<path style="fill:#2AAD52;" d="M394.655,72.526l21.07,45.184c0.127,0.271,0.197,0.545,0.242,0.816   c2.311-1.91,4.9-3.561,7.744-4.887c4.472-2.085,9.157-3.167,13.798-3.341c1.917-0.072,3.127-2.087,2.316-3.826l-21.07-45.184   c-3.448-7.395-12.238-10.594-19.633-7.146L377.05,64.434C383.325,61.508,391.207,65.131,394.655,72.526z"/>
	<path style="fill:#2AAD52;" d="M406.574,162.017c-6.822-13.995-3.733-30.167,6.414-40.717c-3.74,0.033-7.453,0.814-10.958,2.448   c-15.447,7.203-20.983,27.938-12.2,46.076c8.283,17.105,26.87,25.808,41.727,19.524c3.901-1.65,7.196-4.147,9.831-7.244   C427.194,183.014,413.091,175.386,406.574,162.017z"/>
	<path style="fill:#2AAD52;" d="M491.036,216.295l-21.068-45.18c-0.813-1.744-3.137-2.101-4.429-0.674   c-3.352,3.704-7.546,6.761-12.458,8.871c-2.518,1.081-5.104,1.836-7.71,2.303c0.19,0.215,0.364,0.453,0.497,0.738l21.068,45.18   c3.448,7.395,1.157,15.761-5.119,18.688l-14.916,6.956h0l36.988-17.248C491.285,232.48,494.484,223.69,491.036,216.295z"/>
	<path style="fill:#2AAD52;" d="M324.405,35.898c4.888,10.483,5.041,21.771,1.291,30.77c-0.583,1.398-0.518,3.098,0.187,4.609   l4.237,9.087c1.26,2.701,4.139,4.024,6.431,2.955l14.847-6.923c-2.701,1.259-5.912,0.091-7.171-2.61l-4.237-9.087   c-0.705-1.512-0.663-3.261,0.101-4.743c4.915-9.542,5.511-21.179,0.623-31.662c-8.724-18.708-31.51-26.389-49.927-16.321   c-1.316,0.719-2.566,1.521-3.758,2.383C301.156,11.272,316.993,20.004,324.405,35.898z"/>
	<path style="fill:#FFCCAA;" d="M353.716,202.732v25.547c0,22.902-18.566,41.468-41.468,41.468h-57.441v23.071   c0,45.199-36.641,81.841-81.841,81.841h-16.371c-15.139,0-27.411-12.272-27.411-27.411v-55.684   c0-51.201,41.507-92.708,92.708-92.708H349.84C351.98,198.856,353.716,200.591,353.716,202.732z"/>
	<g>
		<path d="M497.834,213.124l-21.068-45.175c-1.446-3.107-4.334-5.267-7.725-5.776c-3.389-0.508-6.779,0.704-9.064,3.236    c-2.735,3.021-6.051,5.38-9.86,7.013c-13.739,5.903-30.247-0.235-36.797-13.684c-3.378-6.931-3.821-14.746-1.248-22.005    c2.572-7.256,7.829-13.042,14.806-16.293c3.461-1.615,7.13-2.504,10.942-2.644c3.408-0.142,6.5-1.966,8.273-4.879    c1.776-2.919,1.976-6.511,0.531-9.614l-21.07-45.179c-2.515-5.395-6.979-9.486-12.57-11.521    c-5.59-2.035-11.641-1.771-17.036,0.743l-45.813,21.361l-2.916-6.245c5.748-11.812,5.869-25.358,0.295-37.34    c-5.058-10.842-14.481-19.198-25.854-22.929c-11.534-3.782-23.776-2.648-34.471,3.2c-11.706,6.402-19.702,17.711-21.938,31.027    c-0.686,4.085,2.069,7.953,6.154,8.639c4.089,0.68,7.953-2.071,8.639-6.154c1.448-8.624,6.81-16.231,14.341-20.351    c7.019-3.839,15.046-4.586,22.6-2.108c7.56,2.479,13.574,7.813,16.932,15.01c3.746,8.052,3.565,17.186-0.51,25.089    c-1.821,3.569-1.902,7.693-0.215,11.331l4.239,9.079c3.007,6.444,10.695,9.238,17.136,6.236l47.72-22.25    c1.763-0.822,3.74-0.91,5.566-0.244c1.826,0.665,3.285,2.002,4.107,3.766l18.271,39.177c-3.324,0.676-6.565,1.747-9.69,3.205    c-10.65,4.962-18.679,13.797-22.606,24.876c-3.928,11.082-3.253,23.011,1.901,33.586c7.422,15.236,23.21,24.329,39.435,24.327    c5.646-0.001,11.347-1.102,16.763-3.428c3.606-1.547,6.93-3.527,9.938-5.919l18.27,39.176c0.822,1.763,0.909,3.739,0.244,5.565    s-2.002,3.284-3.765,4.106l-31.634,14.744c-0.581-1.865-1.288-3.698-2.121-5.488c-5.165-11.066-14.821-19.496-26.495-23.128    c-11.668-3.631-24.44-2.142-35.043,4.085c-17.475,10.274-25.546,31.7-19.193,50.939c0.427,1.298,0.93,2.558,1.468,3.798    c0.038,0.097,0.074,0.195,0.116,0.291c0.057,0.138,0.123,0.271,0.188,0.405c0.869,1.911,1.855,3.757,2.987,5.516l-22.678,10.57    c-1.757,0.821-3.73,0.906-5.556,0.243c-1.826-0.664-3.284-2-4.104-3.757l-6.659-14.279c17.19-7.608,29.22-24.818,29.22-44.794    v-25.547c0-5.204-3.517-9.594-8.297-10.941c-0.44-1.322-0.93-2.63-1.501-3.911c-4.785-10.743-13.483-18.925-24.493-23.039    c-11.013-4.117-22.946-3.647-33.592,1.321c-3.123,1.453-6.028,3.248-8.688,5.365l-18.271-39.188    c-0.821-1.757-0.907-3.729-0.243-5.553c0.665-1.826,2.002-3.284,3.767-4.107l38.76-18.08c3.121-1.456,5.488-4.04,6.667-7.275    c1.179-3.238,1.026-6.741-0.431-9.861l-4.239-9.089c-1.7-3.617-4.91-6.202-8.823-7.097c-6.265-1.417-11.91-4.933-15.896-9.898    c-2.592-3.229-7.313-3.746-10.543-1.155c-3.23,2.593-3.748,7.313-1.155,10.544c5.886,7.334,14.122,12.598,23.266,14.897    l2.906,6.23l-36.852,17.189c-5.394,2.516-9.486,6.979-11.521,12.569c-2.037,5.592-1.772,11.641,0.744,17.027l21.075,45.203    c1.45,3.095,4.334,5.247,7.716,5.757c3.373,0.511,6.755-0.693,9.051-3.221c2.553-2.815,5.594-5.056,9.045-6.661    c6.978-3.255,14.794-3.563,22.006-0.867c6.283,2.348,11.415,6.721,14.706,12.464h-114.49c-3.414,0-6.858,0.174-10.236,0.517    c-4.121,0.419-7.123,4.099-6.704,8.22c0.418,4.12,4.103,7.116,8.219,6.704c2.877-0.292,5.812-0.44,8.721-0.44h124.325v21.923    c0,18.729-15.238,33.968-33.968,33.968h-57.441c-4.142,0-7.5,3.357-7.5,7.5v23.071c0,40.991-33.349,74.341-74.34,74.341    c-4.142,0-7.5,3.357-7.5,7.5s3.358,7.5,7.5,7.5c49.262,0,89.34-40.078,89.34-89.341v-15.571h34.006    c-5.157,6.302-8.245,14.35-8.245,23.096c0,11.794,5.634,22.293,14.347,28.961c-8.716,6.67-14.352,17.171-14.352,28.969    c0,11.797,5.635,22.298,14.35,28.968c-8.715,6.67-14.35,17.17-14.35,28.967c0,8.019,2.608,15.437,7.011,21.464h-97.636    c-1.764,0-3.471,0.621-4.821,1.755l-70.72,59.35c-3.173,2.663-3.586,7.394-0.924,10.566c1.483,1.768,3.609,2.679,5.749,2.679    c1.701,0,3.412-0.576,4.817-1.755l68.628-57.595h124.208c0.052,0,0.102,0.004,0.154,0.004h47.418    c20.108,0,36.468-16.359,36.468-36.468c0-11.796-5.635-22.297-14.35-28.967c8.715-6.67,14.35-17.171,14.35-28.968    c0-11.797-5.636-22.299-14.351-28.969c8.716-6.668,14.352-17.167,14.352-28.962c0-8.021-2.558-15.441-6.931-21.471h43.71    c4.167,0,8.256-0.699,12.144-2.076c13.634-4.808,23.076-17.247,24.21-31.5l5.505-2.565c5.395-2.516,9.486-6.979,11.522-12.571    C500.614,224.569,500.349,218.518,497.834,213.124z M371.949,437.676h-23.274c-0.026,0-0.051-0.004-0.077-0.004h-24.144    c-11.801-0.042-21.39-9.653-21.39-21.464c0-11.837,9.63-21.467,21.467-21.467h47.418c11.837,0,21.468,9.63,21.468,21.467    S383.786,437.676,371.949,437.676z M371.949,379.742H324.53c-11.837,0-21.467-9.631-21.467-21.468s9.63-21.468,21.467-21.468    h47.418c11.837,0,21.468,9.631,21.468,21.468S383.786,379.742,371.949,379.742z M371.947,321.802h-47.42    c-11.833,0-21.46-9.626-21.46-21.459c0-9.748,6.506-18.017,15.485-20.604l6.509,13.957c2.516,5.389,6.979,9.477,12.569,11.51    c2.486,0.904,5.061,1.354,7.629,1.354c3.208,0,6.405-0.703,9.396-2.1l28.038-13.068c2.375-1.106,4.213-3.11,5.166-5.519    c3.47,3.82,5.558,8.901,5.558,14.47C393.417,312.176,383.786,321.802,371.947,321.802z M452.343,262.653    c-2.285,0.81-4.689,1.22-7.146,1.22h-65.203c-3.159-12.121,2.125-25.18,13.031-31.592c7.067-4.15,15.231-5.107,22.988-2.694    c7.648,2.38,13.975,7.9,17.353,15.139c1.137,2.446,1.921,5.012,2.328,7.605c0.487,3.177,2.395,5.87,5.234,7.39    c2.82,1.508,6.234,1.601,9.137,0.251l13.338-6.216C460.882,257.799,457.041,260.997,452.343,262.653z"/>
		<path d="M121.684,308.36c0,4.143,3.358,7.5,7.5,7.5c4.142,0,7.5-3.357,7.5-7.5v-16.796c0-33.475,19.729-63.988,50.263-77.736    c3.777-1.701,5.46-6.142,3.76-9.918s-6.142-5.46-9.918-3.76c-32.436,14.605-54.498,45.301-58.459,80.119l-4.528,4.419    L14.768,371.127c-3.173,2.662-3.588,7.394-0.925,10.566c1.483,1.769,3.609,2.68,5.75,2.68c1.701,0,3.412-0.575,4.816-1.754    l97.275-81.608V308.36z"/>
	</g>
</g>















</svg>
