<?xml version="1.0" encoding="iso-8859-1"?>
<!-- Generator: Adobe Illustrator 19.0.0, SVG Export Plug-In . SVG Version: 6.00 Build 0)  -->
<svg xmlns="http://www.w3.org/2000/svg" xmlns:xlink="http://www.w3.org/1999/xlink" version="1.1" id="Capa_1" x="0px" y="0px" viewBox="0 0 512 512" style="enable-background:new 0 0 512 512;" xml:space="preserve" width="512" height="512">
<g>
	<path style="fill:#75DC5E;" d="M428.869,335.899h-201.74c-4.565,0-8.266-3.701-8.266-8.266v-42.417c0-2.403-1.948-4.35-4.35-4.35   h-57.26c-2.403,0-4.35,1.948-4.35,4.35v50.683v33.123c0,18.135,14.701,32.837,32.837,32.837h33.123h60.611   c4.835,0,8.755,3.92,8.755,8.755V500.5c0,2.209,1.791,4,4,4h191.352c2.209,0,4-1.791,4-4V394.61   C487.581,362.185,461.295,335.899,428.869,335.899z"/>
	<path style="fill:#2AAD52;" d="M428.869,335.899h-24c32.425,0,58.711,26.286,58.711,58.711V504.5h20c2.209,0,4-1.791,4-4V394.61   C487.581,362.185,461.295,335.899,428.869,335.899z"/>
	<path style="fill:#EBEAE6;" d="M403.559,324.258h-70.743L314.334,347.3c-3.941,4.914-5.653,11.25-4.722,17.48l7.426,49.684   c0.533,3.565,4.549,5.41,7.601,3.492l43.548-27.373l43.548,27.373c3.051,1.918,7.068,0.073,7.601-3.492l7.426-49.684   c0.931-6.23-0.78-12.566-4.722-17.48L403.559,324.258z"/>
	<path style="fill:#F2A077;" d="M332.815,276.916v68.302c0,1.937,0.671,3.814,1.9,5.311l26.997,32.913   c3.351,4.085,9.6,4.085,12.951,0l26.997-32.913c1.228-1.498,1.9-3.375,1.9-5.311v-68.302H332.815z"/>
	<g>
		<path style="fill:#FFCCAA;" d="M469.77,169.771h-7.327v-47.788c0-46.232-37.479-83.711-83.711-83.711h-21.091    c-46.232,0-83.711,37.479-83.711,83.711v47.788h-7.327c-12.159,0-22.016,9.857-22.016,22.016V202.2    c0,12.159,9.857,22.016,22.016,22.016h7.463c2.569,49.765,43.725,89.322,94.12,89.322c25.197,0,48.081-9.885,64.993-25.997    c16.912-16.112,27.835-38.451,29.128-63.325h7.463c12.159,0,22.016-9.857,22.016-22.016v-10.413    C491.786,179.628,481.929,169.771,469.77,169.771z"/>
		<path style="fill:#F2A077;" d="M469.77,169.771h-7.327v-47.788c0-46.232-37.479-83.711-83.711-83.711h-21.092    c-0.404,0-0.802,0.025-1.204,0.031c45.674,0.646,82.506,37.852,82.506,83.68v47.788l-0.136,54.444    c-1.293,24.874-12.216,47.213-29.128,63.325c-14.241,13.567-32.716,22.718-53.242,25.271c3.849,0.479,7.77,0.727,11.749,0.727    c25.198,0,48.081-9.885,64.993-25.997c16.912-16.112,27.835-38.451,29.128-63.325h7.463c12.159,0,22.016-9.857,22.016-22.016    v-10.413C491.786,179.628,481.929,169.771,469.77,169.771z"/>
		<path style="fill:#F9DC6A;" d="M244.382,7.5h135.75c45.46,0,82.312,36.852,82.312,82.312v32.172h-163.66    c-30.045,0-54.402-24.357-54.402-54.402V7.5z"/>
		<path style="fill:#E5AC51;" d="M380.132,7.5h-24c45.46,0,82.312,36.853,82.312,82.312v32.172h24V89.812    C462.444,44.353,425.591,7.5,380.132,7.5z"/>
	</g>
	<rect x="165.04" y="241.316" style="fill:#FFCCAA;" width="41.687" height="39.55"/>
	<path style="fill:#D2F5FF;" d="M244.076,150.545H118.149c-4.499,0-8.146,3.647-8.146,8.146v74.479c0,4.499,3.647,8.146,8.146,8.146   h125.927c4.499,0,8.146-3.647,8.146-8.146v-74.479C252.222,154.192,248.575,150.545,244.076,150.545z"/>
	<path style="fill:#9CC9D3;" d="M244.075,216.708H118.148c-4.499,0-8.146-3.647-8.146-8.146v24.608c0,4.499,3.647,8.146,8.146,8.146   h125.927c4.499,0,8.146-3.647,8.146-8.146v-24.608C252.222,213.061,248.574,216.708,244.075,216.708z"/>
	<path style="fill:#FFCCAA;" d="M138.939,142.171v10.63c0,11.823,9.585,21.408,21.408,21.408h51.073   c11.823,0,21.408-9.585,21.408-21.408v-10.63c0-4.149-3.363-7.512-7.512-7.512h-78.865   C142.302,134.659,138.939,138.023,138.939,142.171z"/>
	<g>
		<path d="M335.888,244.901c8.642,8.621,20.112,13.369,32.298,13.369c18.691,0,35.304-11.181,42.321-28.484    c1.557-3.838-0.293-8.212-4.132-9.769c-3.838-1.554-8.211,0.294-9.769,4.132c-4.711,11.615-15.866,19.121-28.421,19.121    c-8.186,0-15.894-3.192-21.698-8.982c-2.927-2.927-5.188-6.334-6.719-10.128c-1.551-3.839-5.918-5.699-9.763-4.147    c-3.841,1.551-5.697,5.921-4.147,9.763C328.149,235.449,331.521,240.536,335.888,244.901z"/>
		<path d="M328.501,171.322c0-4.143-3.357-7.5-7.5-7.5s-7.5,3.357-7.5,7.5v4.553c0,4.143,3.357,7.5,7.5,7.5s7.5-3.357,7.5-7.5    V171.322z"/>
		<path d="M422.869,175.875v-4.553c0-4.143-3.357-7.5-7.5-7.5s-7.5,3.357-7.5,7.5v4.553c0,4.143,3.357,7.5,7.5,7.5    S422.869,180.018,422.869,175.875z"/>
		<path d="M469.769,216.72h-7.461c-3.991,0-7.283,3.126-7.49,7.111c-0.676,13.04-4.18,25.459-10.416,36.913    c-2.73,5.015,0.937,11.087,6.58,11.087c2.658,0,5.233-1.416,6.594-3.915c6.175-11.341,10.067-23.488,11.608-36.196h0.585    c16.277,0,29.52-13.242,29.52-29.52v-10.41c0-16.221-13.15-29.429-29.35-29.521v-40.228c0-0.02,0.003-0.039,0.003-0.058V89.812    C469.941,40.289,429.652,0,380.13,0H244.38c-4.143,0-7.5,3.357-7.5,7.5v32.484c0,4.143,3.357,7.5,7.5,7.5s7.5-3.357,7.5-7.5V15    h128.25c41.251,0,74.812,33.561,74.812,74.812v24.672H298.782c-7.524,0-14.631-1.769-20.936-4.904    c-0.273-0.156-0.554-0.297-0.847-0.418c-14.347-7.5-24.321-22.21-25.074-39.498c-0.181-4.139-3.722-7.361-7.819-7.167    c-4.139,0.181-7.347,3.682-7.167,7.819c0.931,21.352,12.522,39.712,29.517,50.099c-0.009,0.522-0.028,1.044-0.028,1.566v40.29    c-2.277,0.013-4.527,0.293-6.71,0.817v-4.397c0-8.63-7.016-15.65-15.64-15.65h-3.753v-0.869c0-8.277-6.734-15.012-15.012-15.012    h-78.865c-8.277,0-15.012,6.734-15.012,15.012v0.869h-13.288c-8.63,0-15.65,7.021-15.65,15.65v29.74h-3.401    c-14.024,0-25.434,11.409-25.434,25.434v33.678c0,5.803-4.721,10.523-10.523,10.523c-5.802,0-10.522-4.721-10.522-10.523v-33.678    c0-14.024-11.41-25.434-25.435-25.434h-6.971c-4.143,0-7.5,3.357-7.5,7.5s3.357,7.5,7.5,7.5h6.971    c5.754,0,10.435,4.681,10.435,10.434v33.678c0,14.073,11.449,25.523,25.522,25.523s25.523-11.45,25.523-25.523v-33.678    c0-5.753,4.681-10.434,10.434-10.434h3.401v29.739c0,8.63,7.021,15.65,15.65,15.65h39.39v24.55h-0.29    c-6.534,0-11.85,5.315-11.85,11.85v83.8c0,22.244,18.097,40.341,40.34,40.341h6.47c4.143,0,7.5-3.357,7.5-7.5s-3.357-7.5-7.5-7.5    h-6.47c-13.973,0-25.34-11.368-25.34-25.341V288.37h50.96v39.26c0,8.696,7.074,15.771,15.77,15.771h80.746    c-4.797,6.408-6.871,14.541-5.684,22.488l7.429,49.674c0.622,4.185,3.287,7.74,7.13,9.512c1.673,0.771,3.457,1.152,5.236,1.152    c2.311,0,4.611-0.645,6.645-1.917l39.558-24.87l39.569,24.883c3.587,2.238,8.02,2.521,11.858,0.755    c3.837-1.766,6.506-5.315,7.141-9.51l7.42-49.68c1.187-7.947-0.887-16.081-5.684-22.487h0.377c28.237,0,51.21,22.973,51.21,51.21    V497H455.64v-55.719c0-4.143-3.357-7.5-7.5-7.5s-7.5,3.357-7.5,7.5V497H295.729v-86.39c0-8.96-7.295-16.25-16.261-16.25h-57.26    c-4.143,0-7.5,3.357-7.5,7.5s3.357,7.5,7.5,7.5h57.26c0.695,0,1.261,0.561,1.261,1.25v89.89c0,6.341,5.159,11.5,11.5,11.5h191.35    c6.341,0,11.5-5.159,11.5-11.5V394.61c0-36.509-29.701-66.21-66.21-66.21h-12.375l-5.435-6.776v-10.046    c9.823-4.562,18.817-10.638,26.784-18.121c3.02-2.836,3.168-7.582,0.332-10.602c-2.837-3.02-7.583-3.166-10.602-0.332    c-7.863,7.386-16.89,13.171-26.835,17.196c-9.046,3.67-18.561,5.756-28.342,6.221c-4.667,0.222-8.883,0.071-13.15-0.365    c-8.116-0.828-16.029-2.777-23.614-5.848c0,0-0.001,0-0.002,0c-31.119-12.607-52.344-42.396-54.072-75.894    c-0.206-3.986-3.498-7.113-7.49-7.113h-7.471c-2.429,0-4.788-0.617-6.88-1.75v-35.946c2.098-1.135,4.456-1.754,6.88-1.754h7.33    c4.143,0,7.5-3.357,7.5-7.5v-42.747c5.509,1.596,11.33,2.461,17.354,2.461h156.156v40.286c0,4.143,3.357,7.5,7.5,7.5h7.33    c8.006,0,14.52,6.514,14.52,14.521v10.41C484.288,210.206,477.774,216.72,469.769,216.72z M146.448,142.159l78.877,0.012v10.63    c0,7.669-6.239,13.908-13.908,13.908h-51.072c-7.669,0-13.908-6.239-13.908-13.908v-2.222c0-0.013,0.002-0.025,0.002-0.039    s-0.002-0.025-0.002-0.039v-8.331L146.448,142.159z M117.498,233.17v-37.201c0-0.013,0.002-0.025,0.002-0.039    s-0.002-0.025-0.002-0.039V158.69c0-0.358,0.292-0.65,0.65-0.65h13.773c2.473,13.446,14.273,23.669,28.424,23.669h51.072    c14.151,0,25.951-10.223,28.424-23.669h4.238c0.353,0,0.64,0.292,0.64,0.65v74.479c0,0.358-0.287,0.65-0.64,0.65h-37.257    c-0.032,0-0.064-0.005-0.097-0.005h-41.687c-0.033,0-0.064,0.004-0.097,0.005h-46.793    C117.79,233.82,117.498,233.528,117.498,233.17z M199.225,248.82v24.545h-26.687V248.82H199.225z M323.891,409.57l-6.864-45.899    c-0.621-4.152,0.528-8.408,3.151-11.677l5.156-6.424c0.079,3.535,1.338,6.973,3.585,9.715l26.987,32.907    c0.229,0.279,0.482,0.532,0.727,0.793L323.891,409.57z M419.34,363.672l-6.855,45.903l-32.748-20.593    c0.243-0.259,0.493-0.509,0.72-0.786l27.001-32.91c2.246-2.739,3.505-6.174,3.586-9.708l5.146,6.416    C418.812,355.263,419.961,359.519,419.34,363.672z M396.059,317.173v28.047c0,0.206-0.067,0.392-0.198,0.553l-27.005,32.915    c-0.347,0.424-0.996,0.427-1.349-0.004l-26.988-32.909c-0.131-0.159-0.2-0.351-0.2-0.555v-28.043    C358.461,322.325,377.964,322.324,396.059,317.173z M266.598,231.72h0.602c4.268,34.672,26.344,65.07,58.119,79.858v10.044    l-5.44,6.778h-92.75c-0.425,0-0.77-0.346-0.77-0.771v-42.41c0-6.534-5.316-11.85-11.851-11.85h-0.283v-24.55h29.854    c8.624,0,15.64-7.021,15.64-15.65v-2.268C261.954,231.438,264.261,231.72,266.598,231.72z"/>
		<path d="M85.355,119.465c1.465,1.464,3.385,2.196,5.304,2.196s3.839-0.732,5.304-2.196c2.929-2.93,2.929-7.678,0-10.607    L77.924,90.818c-2.93-2.928-7.678-2.928-10.607,0c-2.929,2.93-2.929,7.678,0,10.607L85.355,119.465z"/>
		<path d="M47.055,144.285c26.104,6.903,24.833,6.86,26.587,6.86c3.312,0,6.342-2.21,7.239-5.561    c1.072-4.001-1.302-8.114-5.303-9.186l-24.641-6.603c-4.001-1.074-8.113,1.303-9.186,5.303    C40.68,139.101,43.054,143.213,47.055,144.285z"/>
		<path d="M112.897,99.08c0.897,3.351,3.928,5.561,7.239,5.561c0.643,0,1.296-0.083,1.946-0.258    c4.001-1.072,6.375-5.185,5.303-9.186l-6.603-24.641c-1.072-4.001-5.185-6.38-9.186-5.303c-4.001,1.072-6.375,5.185-5.303,9.186    L112.897,99.08z"/>
	</g>
</g>















</svg>
