<?xml version="1.0" encoding="iso-8859-1"?>
<!-- Generator: Adobe Illustrator 19.0.0, SVG Export Plug-In . SVG Version: 6.00 Build 0)  -->
<svg xmlns="http://www.w3.org/2000/svg" xmlns:xlink="http://www.w3.org/1999/xlink" version="1.1" id="Capa_1" x="0px" y="0px" viewBox="0 0 512.009 512.009" style="enable-background:new 0 0 512.009 512.009;" xml:space="preserve" width="512" height="512">
<g>
	
		<rect x="292.65" y="277.606" transform="matrix(0.7071 -0.7071 0.7071 0.7071 -118.2233 352.2377)" style="fill:#F2A077;" width="146.853" height="82.441"/>
	<path style="fill:#D6774D;" d="M388.85,237.759L285.009,341.6l23.177,23.177c1.018-0.843,2.008-1.734,2.961-2.688l101.017-101.017   L388.85,237.759z"/>
	<path style="fill:#D7875F;" d="M410.305,191.959L410.305,191.959c-9.317-9.317-24.423-9.317-33.74-0.001l6.45-6.45   c9.317-9.317,9.317-24.424,0-33.741l0,0c-9.317-9.317-24.423-9.317-33.741,0l8.766-8.766c9.317-9.317,9.317-24.424,0-33.741   c-9.317-9.317-24.423-9.317-33.741,0l6.184-6.184c9.317-9.317,9.317-24.424,0-33.741l0,0c-9.317-9.317-24.423-9.317-33.741,0   l-21.401,21.401l0,0L264.54,101.54l-42.962-10.469c-16.912-4.122-34.648,2.285-45.023,16.263l-53.121,71.572   c-13.461,18.137-11.603,43.399,4.369,59.371l-60.959,60.959l103.841,103.841l65.639-65.639l1.36,1.36   c16.437,16.437,43.086,16.437,59.523,0L410.305,225.7C419.622,216.382,419.622,201.276,410.305,191.959z"/>
	<path style="fill:#B05A3D;" d="M410.305,191.959L410.305,191.959c-3.069-3.069-6.77-5.105-10.681-6.152   c1.626,7.458-0.752,15.963-7,22.212L279.525,321.117c-16.437,16.437-41.75,17.772-56.539,2.983l0,0   c-0.676-0.676-1.772-0.676-2.447,0l-64.415,64.415l-89.279-89.279h0l103.841,103.841l65.639-65.639l1.36,1.36   c16.437,16.437,43.086,16.437,59.523,0L410.305,225.7C419.622,216.382,419.622,201.276,410.305,191.959z"/>
	<g>
		<path style="fill:#FFCCAA;" d="M96.883,161.105L96.883,161.105c-8.917,8.917-8.917,23.373,0,32.29l11.816,11.816    c8.917,8.917,23.373,8.917,32.29,0l0,0c8.917-8.917,8.917-23.373,0-32.29l-11.816-11.816    C120.257,152.188,105.8,152.188,96.883,161.105z"/>
		<g>
			<path style="fill:#F2A077;" d="M185.802,56.284L185.802,56.284c-8.917,8.917-8.917,23.373,0,32.29l18.972,18.972     c8.917,8.917,23.373,8.917,32.29,0l0,0c8.917-8.917,8.917-23.373,0-32.29l-18.972-18.972     C209.175,47.367,194.719,47.367,185.802,56.284z"/>
		</g>
		<g>
			<path style="fill:#F7AA86;" d="M149.094,84.157L149.094,84.157c-8.917,8.917-8.917,23.373,0,32.29l37.702,37.702     c8.917,8.917,23.373,8.917,32.29,0l0,0c8.917-8.917,8.917-23.373,0-32.29l-37.701-37.701     C172.468,75.24,158.011,75.24,149.094,84.157z"/>
		</g>
		<g>
			<path style="fill:#F2A077;" d="M123.872,123.514L123.872,123.514c-8.917,8.917-8.917,23.373,0,32.29l22.749,22.749     c8.917,8.917,23.373,8.917,32.29,0l0,0c8.917-8.917,8.917-23.373,0-32.29l-22.749-22.749     C147.246,114.598,132.789,114.598,123.872,123.514z"/>
		</g>
	</g>
	<g>
		<path style="fill:#FFCCAA;" d="M294.268,71.812l-6.478-12.307c-3.34-6.346-10.301-9.916-17.403-8.926l-57.948,8.076    c-4.779,0.666-8.081,5.123-7.326,9.889l1.297,8.188c2.945,18.594,20.548,31.172,39.093,27.933l19.28-3.367L294.268,71.812z"/>
	</g>
	<path style="fill:#2BB4F3;" d="M46.216,289.541L7.508,328.248l134.164,134.164l38.707-38.707c7.654-7.654,7.654-20.064,0-27.718   L73.934,289.541C66.28,281.886,53.87,281.886,46.216,289.541z"/>
	<path style="fill:#1687C4;" d="M180.38,395.987l-16.039-16.039c6.634,6.634,5.807,18.216-1.848,25.871l-38.707,38.707   l17.886,17.887l38.707-38.708C188.034,416.051,188.034,403.641,180.38,395.987z"/>
	<path style="fill:#75DC5E;" d="M331.637,418.552l38.707,38.707l134.164-134.164l-38.707-38.707c-7.654-7.654-20.064-7.654-27.718,0   L331.637,390.833C323.983,398.487,323.983,410.897,331.637,418.552z"/>
	<path style="fill:#2AAD52;" d="M347.457,375.013l-15.82,15.82c-7.654,7.654-7.654,20.064,0,27.719l38.707,38.707l17.643-17.643   l-38.707-38.707C341.625,393.254,340.81,381.661,347.457,375.013z"/>
	<path d="M509.812,317.791l-38.707-38.707c-5.119-5.118-11.924-7.938-19.163-7.938c-5.313,0-10.389,1.524-14.739,4.355   L404.16,242.46l11.455-11.454c12.214-12.228,12.214-32.124-0.008-44.359c-5.271-5.261-12.083-8.42-19.414-9.054   c3.16-10.673,0.537-22.715-7.87-31.131c-4.908-4.908-11.162-7.987-17.935-8.896c1.406-3.595,2.141-7.459,2.141-11.436   c0-8.378-3.264-16.253-9.187-22.17c-5.46-5.46-12.449-8.481-19.602-9.064c3.039-10.607,0.39-22.518-7.948-30.865   c-5.924-5.924-13.802-9.187-22.183-9.187c-6.173,0-12.072,1.778-17.121,5.083l-2.061-3.916   c-4.797-9.113-14.871-14.288-25.075-12.861l-47.283,6.59c-5.551-4.941-12.627-7.646-20.122-7.646   c-8.103,0-15.722,3.156-21.455,8.89c-5.457,5.463-8.387,12.51-8.802,19.677c-2.097-0.452-4.255-0.691-6.451-0.691   c-8.103,0-15.72,3.155-21.449,8.884v0.001c-8.296,8.296-10.764,20.239-7.421,30.714c-6.511,0.782-12.815,3.657-17.801,8.643   c0,0,0,0,0,0.001c-7.8,7.8-10.453,18.827-7.963,28.825c-6.942,0.551-13.729,3.468-19.027,8.765v0.001   c-11.826,11.826-11.826,31.069,0,42.896l11.816,11.816c1.303,1.303,2.7,2.453,4.163,3.469c1.312,8.692,4.761,16.911,10.011,23.914   l-42.755,42.762c-10.497-6.808-24.708-5.618-33.903,3.577L2.205,322.945c-4.738,4.739-1.319,12.804,5.303,12.804   c1.919,0,3.839-0.732,5.303-2.196l38.707-38.707c4.718-4.718,12.394-4.72,17.112,0l24.081,24.081c2.929,2.928,7.678,2.928,10.606,0   c2.929-2.93,2.929-7.678,0-10.607l-17.474-17.474l47.258-47.266c2.929-2.929,2.928-7.677,0-10.605   c-3.88-3.88-6.836-8.53-8.729-13.599c0.157,0.002,0.314,0.011,0.471,0.011c7.768,0,15.535-2.957,21.449-8.87   c5.091-5.091,8.144-11.674,8.762-18.763c2.488,0.649,5.073,0.99,7.712,0.99c8.102,0,15.719-3.155,21.448-8.885   c4.846-4.846,7.703-10.938,8.577-17.254c3.216,1.139,6.637,1.734,10.149,1.734c8.102,0,15.719-3.155,21.448-8.885   c10.468-10.468,11.663-26.743,3.6-38.546c5.401-1.284,10.358-4.032,14.383-8.057c0.093-0.093,0.177-0.195,0.269-0.289   c1.382-0.102,2.767-0.264,4.152-0.506l17.378-3.034c2.143,0.104,4.258-0.699,5.776-2.278l0.136-0.136   c0.001-0.001,0.002-0.002,0.003-0.003l7.293-7.293l22.192-22.191c0.076-0.075,0.15-0.152,0.222-0.231l2.249-2.248   c3.091-3.092,7.199-4.794,11.567-4.794c4.374,0,8.485,1.702,11.574,4.791c6.376,6.383,6.377,16.762,0.003,23.136l-6.19,6.189   c-2.929,2.929-2.929,7.678,0,10.606c2.93,2.93,7.678,2.929,10.607,0.001l0.025-0.025c6.381-6.352,16.74-6.343,23.111,0.027   c3.089,3.087,4.791,7.192,4.791,11.561c0,4.37-1.702,8.479-4.793,11.57l-8.716,8.717c-0.017,0.017-0.033,0.033-0.049,0.049   c-2.925,2.932-2.921,7.678,0.009,10.604c2.929,2.925,7.675,2.924,10.604-0.003l0.029-0.029c3.071-3.065,7.167-4.754,11.538-4.754   c4.375,0,8.482,1.698,11.563,4.78c6.376,6.383,6.377,16.762,0.002,23.137l-6.45,6.45c-2.928,2.928-2.929,7.674-0.002,10.604   c2.926,2.928,7.673,2.932,10.604,0.008c3.095-3.088,7.205-4.789,11.572-4.789s8.477,1.701,11.563,4.781   c6.375,6.382,6.375,16.767,0.003,23.146l-16.673,16.672c-0.028,0.027-0.059,0.05-0.086,0.078c-0.028,0.028-0.051,0.058-0.078,0.086   l-96.262,96.253c-6.535,6.535-15.222,10.134-24.461,10.134c-9.238,0-17.921-3.598-24.453-10.134l-1.36-1.36   c-2.929-2.928-7.678-2.928-10.606,0l-51.947,51.947l-54.438-54.438c-2.929-2.928-7.678-2.928-10.606,0   c-2.929,2.93-2.929,7.678,0,10.607l61.043,61.043c4.718,4.718,4.718,12.394,0,17.111L136.37,457.11   c-2.929,2.93-2.929,7.678,0,10.607c1.464,1.464,3.384,2.196,5.303,2.196s3.839-0.732,5.303-2.196l38.707-38.707   c9.194-9.194,10.384-23.404,3.578-33.901l47.284-47.284c8.748,7,19.531,10.801,30.899,10.801c13.246,0,25.7-5.159,35.067-14.526   l91.041-91.033l32.623,32.623l-93.233,93.233l-19.45-19.45c-2.929-2.928-7.678-2.928-10.606,0c-2.929,2.93-2.929,7.678,0,10.607   l19.87,19.87c-2.834,4.352-4.359,9.429-4.359,14.745c0,7.238,2.819,14.043,7.938,19.162l38.707,38.708   c2.93,2.929,7.678,2.928,10.606,0c2.929-2.93,2.929-7.678,0-10.606l-38.707-38.709c-2.285-2.285-3.544-5.323-3.544-8.555   c0-3.232,1.259-6.271,3.544-8.556l106.446-106.446c2.286-2.286,5.324-3.545,8.556-3.545s6.271,1.259,8.556,3.545l38.707,38.707   c2.929,2.928,7.678,2.928,10.606,0C512.741,325.469,512.741,320.721,509.812,317.791z M191.102,61.589   c2.684-2.684,6.191-4.234,9.949-4.45c-0.124,0.155-0.258,0.299-0.376,0.459c-2.597,3.506-3.652,7.811-2.969,12.119l1.297,8.188   c1.741,10.994,7.688,20.612,16.744,27.083c0.718,0.513,1.451,0.994,2.193,1.458c-2.958-0.581-5.678-2.022-7.858-4.206   l-10.437-10.431l-8.58-8.58C185.134,77.246,185.146,67.551,191.102,61.589z M135.686,199.909c-5.978,5.978-15.705,5.979-21.684,0   l-11.816-11.815c-5.978-5.979-5.978-15.706,0-21.685v0.001c5.974-5.975,15.693-5.977,21.671-0.013l7.426,7.426l4.403,4.403   c2.896,2.896,4.491,6.745,4.491,10.841S138.582,197.013,135.686,199.909z M173.608,173.251c-2.896,2.896-6.746,4.49-10.842,4.49   c-4.095,0-7.946-1.595-10.842-4.491l-10.034-10.034l-7.413-7.414c-0.008-0.008-0.017-0.016-0.025-0.024l-5.276-5.276   c-5.978-5.979-5.978-15.706,0-21.685v0.001c5.976-5.976,15.698-5.978,21.677-0.007l22.759,22.758   C179.585,157.549,179.585,167.274,173.608,173.251z M213.783,148.846c-2.896,2.896-6.747,4.49-10.842,4.49   s-7.946-1.595-10.842-4.491l-7.879-7.878c-0.002-0.002-0.004-0.004-0.006-0.006l-22.749-22.749   c-0.011-0.011-0.023-0.021-0.034-0.032l-7.034-7.034c-5.978-5.979-5.978-15.706,0-21.685v0.001c5.978-5.979,15.705-5.979,21.684,0   l4.339,4.339c0.026,0.026,0.05,0.054,0.076,0.08l8.227,8.222l25.06,25.059C219.76,133.14,219.76,142.868,213.783,148.846z    M244.212,97.278c-6.97,1.218-13.985-0.378-19.745-4.493c-5.76-4.116-9.542-10.233-10.649-17.225l-1.297-8.189   c-0.061-0.384,0.079-0.671,0.207-0.843c0.128-0.173,0.361-0.39,0.747-0.444l57.948-8.075c0.437-0.062,0.872-0.091,1.305-0.091   c3.492,0,6.771,1.936,8.427,5.082l3.904,7.417l-5.281,5.281L261.148,94.32L244.212,97.278z"/>
</g>















</svg>
