<?xml version="1.0" encoding="iso-8859-1"?>
<!-- Generator: Adobe Illustrator 19.0.0, SVG Export Plug-In . SVG Version: 6.00 Build 0)  -->
<svg xmlns="http://www.w3.org/2000/svg" xmlns:xlink="http://www.w3.org/1999/xlink" version="1.1" id="Capa_1" x="0px" y="0px" viewBox="0 0 512 512" style="enable-background:new 0 0 512 512;" xml:space="preserve" width="512" height="512">
<g>
	<path style="fill:#D2F5FF;" d="M105.612,30.453v451.094c0,12.676,10.276,22.953,22.953,22.953h254.87   c12.676,0,22.953-10.276,22.953-22.953V30.453c0-12.676-10.276-22.953-22.953-22.953h-254.87   C115.889,7.5,105.612,17.776,105.612,30.453z"/>
	<path style="fill:#9CC9D3;" d="M383.435,7.5H356.96c12.677,0,22.953,10.276,22.953,22.953v451.094   c0,12.676-10.276,22.953-22.953,22.953h26.475c12.677,0,22.953-10.276,22.953-22.953V30.453   C406.388,17.776,396.111,7.5,383.435,7.5z"/>
	<path style="fill:#8BA7BC;" d="M182.426,7.5l17.149,37.244c2.89,6.276,9.167,10.296,16.076,10.296h80.698   c6.909,0,13.186-4.02,16.076-10.296L329.574,7.5H182.426z"/>
	<g>
		<g>
			<g>
				<circle style="fill:#F9DC6A;" cx="188.612" cy="142.745" r="53.98"/>
			</g>
			<g>
				<path style="fill:#75DC5E;" d="M459.347,86.291H300.456c-12.758,0-23.101,10.343-23.101,23.101v66.705      c0,12.758,10.343,23.101,23.101,23.101h13.524c0,13.665-7.489,25.573-18.581,31.868c3.971,1.475,8.265,2.284,12.75,2.284      c19.396,0,35.26-15.079,36.533-34.152h114.666c12.758,0,23.101-10.343,23.101-23.101v-66.705      C482.449,96.634,472.106,86.291,459.347,86.291z"/>
				<path style="fill:#2AAD52;" d="M459.347,86.291h-22.5c12.759,0,23.101,10.343,23.101,23.101v66.705      c0,12.758-10.343,23.101-23.101,23.101h22.5c12.759,0,23.101-10.343,23.101-23.101v-66.705      C482.449,96.633,472.106,86.291,459.347,86.291z"/>
			</g>
		</g>
		<g>
			<g>
				<circle style="fill:#F9DC6A;" cx="323.388" cy="335.103" r="53.98"/>
			</g>
			<g>
				<path style="fill:#2BB4F3;" d="M52.653,278.65h158.891c12.758,0,23.101,10.343,23.101,23.101v66.705      c0,12.758-10.343,23.101-23.101,23.101H198.02c0,13.665,7.489,25.573,18.581,31.868c-3.971,1.475-8.265,2.284-12.75,2.284      c-19.396,0-35.26-15.079-36.533-34.152H52.653c-12.758,0-23.101-10.343-23.101-23.101v-66.705      C29.551,288.992,39.894,278.65,52.653,278.65z"/>
				<path style="fill:#1687C4;" d="M187.544,391.557h10.476h13.524c12.759,0,23.101-10.343,23.101-23.101v-66.705      c0-12.758-10.343-23.101-23.101-23.101h-24c12.759,0,23.101,10.343,23.101,23.101v66.705      C210.645,381.214,200.302,391.557,187.544,391.557z"/>
			</g>
		</g>
	</g>
	<g>
		<path d="M406.39,221.55c-4.143,0-7.5,3.358-7.5,7.5v252.5c0,8.519-6.936,15.45-15.46,15.45H128.57    c-8.524,0-15.46-6.931-15.46-15.45v-82.493h47.762c4.553,19.63,22.236,34.152,42.979,34.152c5.274,0,10.442-0.926,15.361-2.753    c2.732-1.016,4.63-3.523,4.863-6.43c0.234-2.906-1.238-5.685-3.774-7.124c-6.883-3.906-11.798-10.398-13.794-17.845h5.036    c16.874,0,30.602-13.728,30.602-30.601v-66.705c0-16.874-13.728-30.601-30.602-30.601H52.652    c-16.873,0-30.601,13.728-30.601,30.601v9.041c0,4.142,3.357,7.5,7.5,7.5s7.5-3.358,7.5-7.5v-9.041    c0-8.603,6.998-15.601,15.601-15.601h158.892c8.603,0,15.602,6.999,15.602,15.601v66.705c0,8.603-6.999,15.601-15.602,15.601    H198.02c-4.143,0-7.5,3.358-7.5,7.5c0,9.604,3.149,18.791,8.704,26.282c-13.148-2.121-23.51-13.125-24.422-26.782    c-0.263-3.939-3.535-7-7.483-7H52.652c-8.603,0-15.601-6.999-15.601-15.601v-27.665c0-4.142-3.357-7.5-7.5-7.5s-7.5,3.358-7.5,7.5    v27.665c0,16.874,13.728,30.601,30.601,30.601H98.11v82.493c0,16.791,13.664,30.45,30.46,30.45H383.43    c16.796,0,30.46-13.66,30.46-30.45v-252.5C413.89,224.908,410.532,221.55,406.39,221.55z"/>
		<path d="M204.265,468.975c0,4.142,3.357,7.5,7.5,7.5h88.471c4.143,0,7.5-3.358,7.5-7.5s-3.357-7.5-7.5-7.5h-88.471    C207.622,461.475,204.265,464.833,204.265,468.975z"/>
		<path d="M250.093,142.745c0-33.9-27.58-61.48-61.48-61.48s-61.48,27.58-61.48,61.48s27.58,61.48,61.48,61.48    S250.093,176.645,250.093,142.745z M142.132,142.745c0-25.629,20.851-46.48,46.48-46.48s46.48,20.851,46.48,46.48    s-20.851,46.48-46.48,46.48S142.132,168.374,142.132,142.745z"/>
		<path d="M214.613,165.097c2.723-3.122,2.399-7.859-0.723-10.582c-3.12-2.722-7.858-2.399-10.582,0.723    c-3.937,4.514-9.156,7-14.696,7s-10.76-2.486-14.696-7c-2.725-3.122-7.462-3.444-10.582-0.723    c-3.122,2.723-3.445,7.46-0.723,10.582c6.729,7.715,16.206,12.14,26.001,12.14S207.884,172.812,214.613,165.097z"/>
		<path d="M172.124,134.776v-4.695c0-4.142-3.357-7.5-7.5-7.5s-7.5,3.358-7.5,7.5v4.695c0,4.142,3.357,7.5,7.5,7.5    S172.124,138.918,172.124,134.776z"/>
		<path d="M211.188,142.276c4.143,0,7.5-3.358,7.5-7.5v-4.695c0-4.142-3.357-7.5-7.5-7.5s-7.5,3.358-7.5,7.5v4.695    C203.688,138.918,207.045,142.276,211.188,142.276z"/>
		<path d="M481.264,88.035c-2.89-2.966-7.639-3.027-10.605-0.137s-3.027,7.639-0.137,10.605c2.854,2.929,4.427,6.796,4.427,10.888    v66.705c0,8.603-6.998,15.601-15.601,15.601H344.682c-3.948,0-7.221,3.061-7.483,7c-0.912,13.657-11.273,24.66-24.422,26.781    c5.555-7.491,8.704-16.678,8.704-26.282c0-4.142-3.357-7.5-7.5-7.5h-13.524c-8.603,0-15.602-6.999-15.602-15.601v-66.705    c0-8.603,6.999-15.601,15.602-15.601h147.156c4.143,0,7.5-3.358,7.5-7.5s-3.357-7.5-7.5-7.5H413.89V30.45    C413.89,13.66,400.226,0,383.43,0h-53.855H182.426H128.57c-16.796,0-30.46,13.66-30.46,30.45v218.2c0,4.142,3.357,7.5,7.5,7.5    s7.5-3.358,7.5-7.5V30.45c0-8.519,6.936-15.45,15.46-15.45h49.052l15.14,32.88c4.101,8.905,13.084,14.659,22.888,14.659h80.699    c9.804,0,18.787-5.754,22.888-14.659L334.378,15h49.052c8.524,0,15.46,6.931,15.46,15.45v48.341h-98.434    c-16.874,0-30.602,13.728-30.602,30.601v66.705c0,16.874,13.728,30.601,30.602,30.601h5.036    c-1.996,7.447-6.911,13.938-13.794,17.845c-2.536,1.439-4.009,4.218-3.774,7.124c0.233,2.907,2.131,5.414,4.863,6.43    c4.919,1.827,10.087,2.753,15.361,2.753c20.743,0,38.427-14.522,42.979-34.152h108.22c16.873,0,30.601-13.728,30.601-30.601    v-66.705C489.948,101.366,486.864,93.782,481.264,88.035z M305.612,41.607c-1.659,3.604-5.295,5.933-9.263,5.933H215.65    c-3.968,0-7.604-2.329-9.263-5.933L194.136,15h123.729L305.612,41.607z"/>
		<path d="M452.216,124.28c0-4.142-3.357-7.5-7.5-7.5H315.088c-4.143,0-7.5,3.358-7.5,7.5s3.357,7.5,7.5,7.5h129.628    C448.858,131.78,452.216,128.422,452.216,124.28z"/>
		<path d="M318.855,153.709c-4.143,0-7.5,3.358-7.5,7.5s3.357,7.5,7.5,7.5h89.686c4.143,0,7.5-3.358,7.5-7.5s-3.357-7.5-7.5-7.5    H318.855z"/>
		<path d="M384.868,335.104c0-33.9-27.58-61.48-61.48-61.48s-61.48,27.58-61.48,61.48s27.58,61.48,61.48,61.48    S384.868,369.004,384.868,335.104z M276.907,335.104c0-25.629,20.851-46.48,46.48-46.48s46.48,20.851,46.48,46.48    s-20.851,46.48-46.48,46.48S276.907,360.733,276.907,335.104z"/>
		<path d="M349.389,357.456c2.723-3.122,2.399-7.859-0.723-10.582c-3.121-2.722-7.857-2.399-10.582,0.723    c-3.937,4.514-9.156,7-14.696,7s-10.76-2.486-14.696-7c-2.724-3.123-7.461-3.444-10.582-0.723    c-3.122,2.723-3.445,7.46-0.723,10.582c6.729,7.715,16.206,12.14,26.001,12.14S342.659,365.171,349.389,357.456z"/>
		<path d="M347.376,334.635c4.143,0,7.5-3.358,7.5-7.5v-4.695c0-4.142-3.357-7.5-7.5-7.5s-7.5,3.358-7.5,7.5v4.695    C339.876,331.277,343.233,334.635,347.376,334.635z"/>
		<path d="M308.313,327.135v-4.695c0-4.142-3.357-7.5-7.5-7.5s-7.5,3.358-7.5,7.5v4.695c0,4.142,3.357,7.5,7.5,7.5    S308.313,331.277,308.313,327.135z"/>
		<path d="M204.412,316.639c0-4.142-3.357-7.5-7.5-7.5H67.284c-4.143,0-7.5,3.358-7.5,7.5s3.357,7.5,7.5,7.5h129.628    C201.055,324.139,204.412,320.781,204.412,316.639z"/>
		<path d="M103.459,346.068c-4.143,0-7.5,3.358-7.5,7.5s3.357,7.5,7.5,7.5h89.686c4.143,0,7.5-3.358,7.5-7.5s-3.357-7.5-7.5-7.5    H103.459z"/>
	</g>
</g>















</svg>
