<?xml version="1.0" encoding="iso-8859-1"?>
<!-- Generator: Adobe Illustrator 19.0.0, SVG Export Plug-In . SVG Version: 6.00 Build 0)  -->
<svg xmlns="http://www.w3.org/2000/svg" xmlns:xlink="http://www.w3.org/1999/xlink" version="1.1" id="Capa_1" x="0px" y="0px" viewBox="0 0 512 512" style="enable-background:new 0 0 512 512;" xml:space="preserve" width="512" height="512">
<g>
	<g>
		<path style="fill:#F2A077;" d="M104.531,62.339l346.628,346.628c6.25,6.25,6.25,16.383,0,22.632v0    c-6.25,6.25-16.383,6.25-22.632,0L81.899,84.971L104.531,62.339z"/>
		
			<rect x="257.574" y="238.014" transform="matrix(-0.7071 0.7071 -0.7071 -0.7071 646.6434 240.1877)" style="fill:#D6774D;" width="32.007" height="32.007"/>
		<g>
			<path style="fill:#8BA7BC;" d="M112.492,92.932c-14.016,14.016-9.94,44.82-31.943,40.418C40.462,125.331,45.51,32.47,48.77,29.21     s96.121-8.308,104.14,31.779C157.312,82.992,126.508,78.916,112.492,92.932z"/>
		</g>
		<path style="fill:#718A9E;" d="M96.847,117.052c-30.658-9.606-39.513-68.823-40.087-89.374c-4.537,0.423-7.46,1.001-7.991,1.532    c-3.26,3.26-8.308,96.121,31.779,104.14c11.89,2.379,16.163-5.526,19.792-15.503C99.277,117.709,98.117,117.449,96.847,117.052z"/>
		<path style="fill:#2BB4F3;" d="M349.716,352.788l-8.704,32.23c-4.086,15.13,0.227,31.29,11.309,42.372l55.275,55.275    c4.56,4.56,12.368,1.87,13.153-4.53l3.333-27.194c1.639-13.373-2.97-26.757-12.497-36.284L349.716,352.788z"/>
		<path style="fill:#1687C4;" d="M367.071,412.638c-11.082-11.082-17.822-24.814-17.673-36.007l0.318-23.843l-8.704,32.229    c-4.086,15.13,0.227,31.29,11.308,42.372l55.275,55.274c4.56,4.56,12.369,1.87,13.153-4.53l1.291-10.529L367.071,412.638z"/>
		<path style="fill:#2BB4F3;" d="M372.348,330.156l32.23-8.704c15.13-4.086,31.29,0.227,42.372,11.309l55.275,55.275    c4.56,4.56,1.87,12.368-4.53,13.153l-27.194,3.333c-13.373,1.639-26.757-2.97-36.284-12.498L372.348,330.156z"/>
	</g>
	<g>
		<path style="fill:#F2A077;" d="M407.469,62.339L60.841,408.966c-6.25,6.25-6.25,16.383,0,22.632l0,0    c6.25,6.25,16.383,6.25,22.632,0L430.101,84.971L407.469,62.339z"/>
		<g>
			<path style="fill:#8BA7BC;" d="M399.508,92.932c14.016,14.016,9.94,44.82,31.943,40.418     c40.086-8.019,35.038-100.881,31.779-104.14s-96.121-8.308-104.14,31.779C354.688,82.992,385.492,78.916,399.508,92.932z"/>
		</g>
		<path style="fill:#718A9E;" d="M463.23,29.21c-0.537-0.537-3.516-1.121-8.135-1.546c-0.647,20.626-9.629,79.518-40.183,89.147    c-1.212,0.382-2.322,0.634-3.347,0.778c3.65,10.098,7.894,18.16,19.885,15.761C471.538,125.331,466.49,32.47,463.23,29.21z"/>
		<path style="fill:#75DC5E;" d="M162.284,352.788l8.704,32.23c4.086,15.13-0.227,31.29-11.309,42.372l-55.275,55.275    c-4.56,4.56-12.368,1.87-13.153-4.53l-3.334-27.194c-1.639-13.373,2.97-26.757,12.498-36.284L162.284,352.788z"/>
		<path style="fill:#2AAD52;" d="M170.989,385.018l-8.704-32.229l-0.126,23.399c-0.059,10.984-6.928,24.589-18.01,35.67    l-54.357,54.357l1.461,11.919c0.785,6.4,8.594,9.09,13.153,4.53l55.275-55.274C170.762,416.308,175.075,400.147,170.989,385.018z"/>
		<path style="fill:#75DC5E;" d="M139.652,330.156l-32.23-8.704c-15.13-4.086-31.29,0.227-42.372,11.309L9.776,388.035    c-4.56,4.56-1.87,12.368,4.53,13.153l27.194,3.333c13.373,1.639,26.756-2.97,36.284-12.498L139.652,330.156z"/>
	</g>
	<path d="M507.524,382.729l-55.274-55.274c-12.941-12.942-31.957-18.019-49.629-13.245l-28.038,7.572l-70.04-70.044   c-2.929-2.929-7.678-2.93-10.606-0.001c-2.93,2.929-2.93,7.678-0.001,10.606l73.081,73.086c0.009,0.009,0.016,0.02,0.025,0.029   l51.19,51.19l27.621,27.624c5.386,5.384,1.478,14.516-6.017,14.516c-6.681,0,2.384,4.61-173.23-169.717l138.177-138.177   c1.724,4.673,3.722,9.198,6.677,12.796c3.006,3.659,8.081,7.58,16.034,7.58c1.677,0,3.483-0.175,5.425-0.563   c15.488-3.099,26.725-15.844,33.398-37.879c5.427-17.921,6.431-37.902,6.545-48.218c0.291-26.075-3.067-29.434-4.332-30.7   c-1.266-1.264-4.636-4.627-30.696-4.333c-10.314,0.114-30.294,1.117-48.214,6.542c-22.041,6.674-34.788,17.911-37.887,33.402   c-2.229,11.142,2.585,17.819,7.017,21.458c3.598,2.956,8.123,4.954,12.797,6.678L256,203.203L140.453,87.656   c4.673-1.724,9.198-3.722,12.796-6.678c4.432-3.639,9.246-10.315,7.017-21.458c-3.1-15.491-15.846-26.728-37.887-33.402   c-17.921-5.425-37.9-6.428-48.214-6.542c-26.037-0.288-29.431,3.069-30.696,4.334s-4.623,4.624-4.332,30.699   c0.114,10.316,1.118,30.297,6.545,48.218c6.673,22.036,17.91,34.781,33.399,37.879c1.941,0.389,3.746,0.563,5.424,0.563   c7.951,0,13.029-3.921,16.034-7.58c2.953-3.597,4.951-8.119,6.675-12.789l100.354,100.354c1.465,1.464,3.385,2.196,5.304,2.196   s3.839-0.732,5.304-2.196c2.929-2.93,2.929-7.678,0-10.607L113.003,105.476c1.332-2.803,2.873-5.316,4.795-7.237v-0.001   c1.919-1.92,4.43-3.46,7.231-4.791L245.393,213.81L137.42,321.783l-28.04-7.573c-1.012-0.273-2.05-0.52-3.084-0.731   c-4.059-0.836-8.021,1.782-8.853,5.84c-0.833,4.058,1.782,8.021,5.84,8.853c0.734,0.151,1.47,0.325,2.186,0.519l19.718,5.325   l-22.913,22.912l-28.039-7.572c-4.423-1.195-8.931-1.773-13.407-1.765l9.529-9.529c2.565-2.566,5.49-4.725,8.694-6.419   c3.662-1.935,5.062-6.473,3.127-10.135c-1.935-3.661-6.47-5.063-10.135-3.127c-4.531,2.395-8.668,5.447-12.294,9.074L4.476,382.729   c-4.153,4.154-5.545,10.184-3.632,15.739c1.913,5.554,6.724,9.448,12.554,10.162c24.094,2.485,27.641,4.173,36.705,3.613   c-3.016,8.317-1.221,18,5.436,24.658c4.441,4.44,10.346,6.887,16.624,6.887c2.782,0,5.491-0.485,8.035-1.412   c-0.19,3.126-0.11,6.293,0.279,9.474l3.334,27.193c0.714,5.83,4.608,10.64,10.162,12.554c1.647,0.568,3.337,0.845,5.007,0.845   c3.959,0,7.809-1.556,10.731-4.477l55.275-55.275c12.942-12.943,18.017-31.96,13.245-49.63l-7.574-28.04L256,269.678l85.343,85.342   l-7.574,28.041c-4.772,17.67,0.303,36.686,13.246,49.63c38.208,38.185,36.168,37.34,40.448,37.34   c6.621,0,10.042-8.065,5.303-12.804c-9.156-9.155-12.747-22.609-9.371-35.112l5.325-19.717l17.559,17.559   c7.949,7.948,11.723,18.907,10.356,30.066l-3.334,27.195c-0.01,0.076-0.024,0.113-0.027,0.118c-0.039,0.057-0.219,0.12-0.282,0.098   c-0.007-0.002-0.04-0.022-0.095-0.077c-2.93-2.928-7.678-2.928-10.607,0c-2.929,2.93-2.929,7.678,0,10.607   c2.922,2.921,6.771,4.477,10.731,4.477c1.67,0,3.359-0.277,5.007-0.845c5.554-1.913,9.448-6.724,10.162-12.553l3.334-27.195   c0.39-3.181,0.469-6.348,0.279-9.473c2.544,0.926,5.253,1.412,8.035,1.412c6.278,0,12.182-2.446,16.624-6.887   c6.657-6.658,8.453-16.342,5.436-24.658c1.05,0.065,2.103,0.109,3.161,0.109c2.105,0,4.226-0.128,6.35-0.389l27.194-3.333   c5.83-0.714,10.64-4.608,12.554-10.162C513.069,392.913,511.677,386.883,507.524,382.729z M94.749,111.151   c-4.825,13.992-6.611,16.068-12.726,14.847c-6.248-1.25-11.404-5.434-15.762-12.79C52.916,90.686,53.312,48.094,54.942,35.383   c12.711-1.63,55.301-2.027,77.824,11.316c7.357,4.359,11.541,9.515,12.791,15.764c1.948,9.733-8.879,9.628-21.786,15.221   C105.651,84.702,100.97,93.107,94.749,111.151z M366.443,62.464c1.25-6.249,5.434-11.405,12.791-15.764   c22.526-13.345,65.117-12.946,77.824-11.316c1.63,12.711,2.026,55.303-11.318,77.825c-4.358,7.356-9.515,11.54-15.762,12.79   c-6.122,1.221-7.903-0.857-12.727-14.847c-2.891-8.386-5.932-17.01-12.441-23.519v0.001c-4.732-4.733-10.678-7.661-16.581-9.947   C375.266,72.068,364.511,72.115,366.443,62.464z M42.416,397.075l-27.194-3.333c-0.076-0.01-0.112-0.023-0.118-0.027   c-0.056-0.037-0.119-0.221-0.098-0.284c0.002-0.006,0.021-0.039,0.077-0.094l20.125-20.125c0.001-0.001,0.002-0.002,0.004-0.003   c9.156-9.157,22.61-12.749,35.113-9.372l19.716,5.325l-17.558,17.558C64.534,394.667,53.578,398.441,42.416,397.075z    M66.146,426.294c-3.315-3.314-3.315-8.708,0-12.022L386.971,93.447c2.801,1.331,5.312,2.871,7.231,4.791v0.001   c1.92,1.919,3.46,4.43,4.792,7.231L78.177,426.286C74.807,429.646,69.449,429.598,66.146,426.294z M99.104,477.358   c-0.055,0.055-0.088,0.075-0.095,0.077c-0.064,0.023-0.243-0.041-0.282-0.098c-0.003-0.005-0.018-0.042-0.027-0.119l-3.334-27.193   c-1.367-11.16,2.407-22.119,10.357-30.067L123.28,402.4l5.325,19.717c3.375,12.498-0.213,25.947-9.362,35.102L99.104,477.358z    M154.378,422.084l-9.529,9.529c0.008-4.476-0.569-8.984-1.764-13.407l-7.573-28.04l22.911-22.912l5.326,19.717   C167.126,399.473,163.535,412.927,154.378,422.084z M368.914,418.206c-1.195,4.424-1.772,8.932-1.764,13.408l-9.529-9.529   c-9.157-9.158-12.748-22.612-9.372-35.113l5.326-19.717l22.911,22.912L368.914,418.206z M406.531,328.691   c12.505-3.374,25.956,0.216,35.112,9.372l9.528,9.528c-4.476-0.008-8.983,0.57-13.406,1.765l-28.038,7.572l-22.911-22.912   L406.531,328.691z M496.896,393.714c-0.006,0.004-0.042,0.018-0.118,0.027l-27.195,3.333c-11.157,1.368-22.117-2.405-30.066-10.356   l-17.558-17.558l19.716-5.325c12.501-3.376,25.956,0.215,35.113,9.372l20.129,20.129c0.056,0.055,0.075,0.088,0.077,0.094   C497.015,393.494,496.952,393.677,496.896,393.714z"/>
</g>















</svg>
