<?xml version="1.0" encoding="iso-8859-1"?>
<!-- Generator: Adobe Illustrator 19.0.0, SVG Export Plug-In . SVG Version: 6.00 Build 0)  -->
<svg xmlns="http://www.w3.org/2000/svg" xmlns:xlink="http://www.w3.org/1999/xlink" version="1.1" id="Capa_1" x="0px" y="0px" viewBox="0 0 512 512" style="enable-background:new 0 0 512 512;" xml:space="preserve" width="512" height="512">
<g>
	<g>
		<path style="fill:#FF5A59;" d="M435.408,273.39H250.609c-13.537,0-24.511-10.974-24.511-24.511V64.08    c0-13.537,10.974-24.511,24.511-24.511h184.799c13.537,0,24.511,10.974,24.511,24.511v184.799    C459.919,262.416,448.945,273.39,435.408,273.39z"/>
		<path style="fill:#CE3A4C;" d="M435.408,39.569h-24.333c13.537,0,24.511,10.974,24.511,24.511v184.799    c0,13.537-10.974,24.511-24.511,24.511h24.333c13.537,0,24.511-10.974,24.511-24.511V64.08    C459.919,50.543,448.945,39.569,435.408,39.569z"/>
		<path style="fill:#EBEAE6;" d="M435.408,319.667H250.609c-13.537,0-24.511-10.974-24.511-24.511V110.357    c0-13.537,10.974-24.511,24.511-24.511h184.799c13.537,0,24.511,10.974,24.511,24.511v184.799    C459.919,308.693,448.945,319.667,435.408,319.667z"/>
		<path style="fill:#C9C5B5;" d="M435.408,85.846h-24c13.537,0,24.511,10.974,24.511,24.511v184.799    c0,13.537-10.974,24.511-24.511,24.511h24c13.537,0,24.511-10.974,24.511-24.511V110.357    C459.919,96.82,448.945,85.846,435.408,85.846z"/>
	</g>
	<g>
		<path style="fill:#FFCCAA;" d="M254.738,342.077l2.064-2.064c8.379-8.379,12.168-20.305,10.161-31.984l-8.403-48.902    c-0.579-3.37-2.188-6.478-4.606-8.895l-40.361-40.361c-9.594-9.594-25.15-9.594-34.744,0l-0.419,0.419l-24.326-24.326    c-7.627-7.627-19.993-7.627-27.62,0l0,0c-7.627,7.627-7.627,19.993,0,27.62l-3.396-3.396c-7.627-7.627-19.993-7.627-27.62,0l0,0    c-7.627,7.627-7.627,19.993,0,27.62l9.508,9.508c-7.627-7.627-19.993-7.627-27.62,0l0,0c-7.627,7.627-7.627,19.993,0,27.62    l8.15,8.15c-7.627-7.627-19.993-7.627-27.62,0l0,0c-7.627,7.627-7.627,19.993,0,27.62l4.534,4.534l24.897,24.897l74.016,74.016    c5.89,5.89,15.438,5.89,21.328,0c2.222-2.222,5.823-2.222,8.045,0l90.348,90.348l68.053-68.053L254.738,342.077z"/>
		<path style="fill:#F2A077;" d="M254.738,342.077l2.064-2.064c8.379-8.379,12.168-20.305,10.161-31.984l-8.403-48.902    c-0.579-3.37-2.188-6.477-4.606-8.895l-40.361-40.361c-9.594-9.594-25.15-9.594-34.744,0l-0.419,0.419l53.021,51.187    c2.418,2.418,4.124,5.428,4.885,8.617l11.033,46.272c2.635,11.051-0.134,21.956-7.425,29.247c-0.991,0.991-0.99,2.599,0.004,3.589    l98.415,97.991l10.745-10.745L254.738,342.077z"/>
		<g>
			<path style="fill:#FF5A59;" d="M242.382,473.054l75.28-75.28c3.388-3.388,3.388-8.881,0-12.269l-16.208-16.208     c-3.388-3.388-8.881-3.388-12.269,0l-75.28,75.28c-3.388,3.388-3.388,8.881,0,12.269l16.208,16.208     C233.501,476.442,238.994,476.442,242.382,473.054z"/>
			
				<rect x="264.298" y="390.505" transform="matrix(0.9855 0.1697 -0.1697 0.9855 71.7412 -43.266)" style="fill:#EBEAE6;" width="49.3" height="15.001"/>
			
				<rect x="240.646" y="414.158" transform="matrix(0.9855 0.1697 -0.1697 0.9855 75.4123 -38.9086)" style="fill:#EBEAE6;" width="49.3" height="15.001"/>
			
				<rect x="216.993" y="437.81" transform="matrix(0.9855 0.1697 -0.1697 0.9855 79.0927 -34.5544)" style="fill:#EBEAE6;" width="49.3" height="15.001"/>
		</g>
	</g>
	<g>
		<path d="M316.717,229.629c-2.687,2.687-6.853,4.029-12.498,4.029c-5.19,0-9.175-1.161-11.951-3.483    c-2.779-2.321-4.166-5.121-4.166-8.399c0-1.912-0.525-3.3-1.571-4.166c-1.048-0.864-3.028-1.298-5.941-1.298    c-2.458,0-4.189,0.434-5.19,1.298c-1.003,0.866-1.502,2.482-1.502,4.849c0,6.193,2.572,11.746,7.717,16.664    c5.144,4.917,12.634,7.375,22.468,7.375c9.288,0,16.8-2.386,22.537-7.16c5.737-4.773,8.605-12.299,8.605-22.575v-2.591    c0-10.457-4.644-17.504-13.932-21.141c3.368-1.635,6.031-4.45,7.99-8.445c1.957-3.995,2.937-8.763,2.937-14.303    c0-16.299-9.151-24.449-27.454-24.449c-5.282,0-9.902,0.775-13.863,2.322c-5.447,2.131-10.669,5.854-13.454,13.386    c-0.911,2.458-1.366,4.917-1.366,7.375c0,2.643,0.478,4.418,1.434,5.327c0.956,0.911,2.981,1.366,6.078,1.366    c4.552,0,6.83-1.942,6.83-5.826c0-6.31,3.99-11.11,14.205-11.11c9.104,0,13.659,4.69,13.659,14.068    c0,5.828-1.208,9.789-3.62,11.883c-2.414,2.096-5.941,3.142-10.585,3.142c-3.097,0-4.644,1.936-4.644,5.805    c0,3.779,1.547,5.668,4.644,5.668c11.108,0,16.664,4.964,16.664,14.888v2.596C320.746,222.642,319.402,226.944,316.717,229.629z"/>
		<path d="M378.249,201.971c3.721,0,6.008-2.46,6.008-5.803c0-3.452-2.395-5.671-6.008-5.671c-3.524,0-6.148,2.141-6.148,5.671    C372.101,199.546,374.557,201.971,378.249,201.971z"/>
		<path d="M378.057,246.497c9.433,0,16.945-2.458,22.537-7.375c5.589-4.918,8.385-12.611,8.385-23.083v-39.747    c0-10.47-2.796-18.166-8.385-23.083c-5.591-4.917-13.104-7.376-22.537-7.376c-9.435,0-16.93,2.459-22.483,7.376    c-5.555,4.917-8.332,12.613-8.332,23.083v39.747c0,10.472,2.776,18.165,8.332,23.083    C361.127,244.039,368.622,246.497,378.057,246.497z M361.72,176.292c0-11.746,5.461-17.619,16.386-17.619    c5.235,0,9.277,1.457,12.124,4.37c2.847,2.916,4.271,7.331,4.271,13.249v39.747c0,5.92-1.424,10.335-4.271,13.248    c-2.847,2.916-6.889,4.371-12.124,4.371c-10.925,0-16.386-5.873-16.386-17.619V176.292z"/>
		<path d="M467.374,110.322V64.08c0-4.143-3.358-7.5-7.5-7.5s-7.5,3.357-7.5,7.5v19.182c-4.932-3.107-10.762-4.913-17.009-4.913    h-184.8c-6.248,0-12.079,1.806-17.012,4.914V64.08c0-9.38,7.631-17.011,17.011-17.011h32.237V55.4c0,4.143,3.358,7.5,7.5,7.5    s7.5-3.357,7.5-7.5v-8.331h90.325V55.4c0,4.143,3.358,7.5,7.5,7.5s7.5-3.357,7.5-7.5v-8.331h32.237    c1.729,0,3.433,0.257,5.063,0.764c3.954,1.229,8.159-0.98,9.388-4.936c1.229-3.956-0.98-8.159-4.936-9.389    c-3.073-0.955-6.274-1.439-9.515-1.439h-32.237V7.5c0-4.143-3.358-7.5-7.5-7.5s-7.5,3.357-7.5,7.5v24.569h-90.325V7.5    c0-4.143-3.358-7.5-7.5-7.5s-7.5,3.357-7.5,7.5v24.569h-32.237c-17.651,0-32.011,14.36-32.011,32.011V161    c0,0.013,0.002,0.026,0.002,0.039v43.26c-10.833-10.568-27.348-11.942-39.64-4.086l-8.34-8.34    c-0.007-0.007-0.014-0.012-0.021-0.019l-11.196-11.197c-10.532-10.53-27.679-10.534-38.234,0.008    c-4.507,4.52-7.225,10.343-7.796,16.609c-1.343-0.203-2.71-0.307-4.093-0.307c-7.219,0-14.006,2.813-19.113,7.92    c-5.105,5.105-7.917,11.894-7.917,19.113c0,3.82,0.787,7.52,2.285,10.912c-4.684,1.177-8.977,3.6-12.471,7.098    c-5.109,5.096-7.923,11.887-7.923,19.12c0,3.252,0.57,6.416,1.664,9.378c-4.972,1.1-9.535,3.592-13.217,7.279    c-5.105,5.105-7.917,11.894-7.917,19.113c0,7.221,2.812,14.009,7.917,19.112l5.644,5.635c2.942,2.916,7.691,2.894,10.606-0.048    c2.916-2.942,2.895-7.69-0.048-10.606l-5.596-5.587c-2.271-2.271-3.523-5.292-3.523-8.506s1.251-6.235,3.527-8.511    c2.269-2.271,5.287-3.522,8.5-3.522c3.214,0,6.236,1.252,8.51,3.526c2.929,2.928,7.678,2.928,10.606,0    c2.929-2.93,2.929-7.678,0-10.607l-8.149-8.148c-2.272-2.272-3.523-5.294-3.523-8.508c0-3.22,1.249-6.238,3.526-8.51    c2.269-2.271,5.287-3.522,8.5-3.522c3.215,0,6.237,1.252,8.511,3.526c2.928,2.927,7.677,2.929,10.606,0    c2.929-2.929,2.929-7.678,0-10.606l-9.51-9.512c-2.272-2.271-3.523-5.292-3.523-8.506s1.251-6.234,3.523-8.507    c2.273-2.273,5.294-3.526,8.506-3.526s6.233,1.253,8.507,3.527l3.39,3.39c2.929,2.928,7.677,2.928,10.606,0    c2.929-2.93,2.929-7.678,0-10.606c0-0.001,0-0.001,0-0.001l-0.018-0.018c-2.261-2.271-3.505-5.284-3.505-8.489    c0-3.207,1.254-6.23,3.52-8.503c4.696-4.688,12.329-4.691,17.017-0.003l24.33,24.33c0.006,0.006,0.012,0.01,0.018,0.016    l41.609,41.61c1.464,1.464,3.384,2.196,5.303,2.196c1.919,0,3.839-0.732,5.303-2.196c2.929-2.93,2.929-7.678,0-10.607    l-35.284-35.284c1.935-0.746,4.007-1.15,6.144-1.15c4.56,0,8.845,1.774,12.067,4.996l40.36,40.36    c1.331,1.33,2.203,3.014,2.521,4.865l8.4,48.902c1.594,9.26-1.424,18.757-8.085,25.418l-2.06,2.07    c-2.917,2.931-2.911,7.67,0.013,10.594l25.528,25.527l-57.443,57.443l-21.508-21.507c-2.49-2.491-5.803-3.863-9.329-3.863    c-3.526,0-6.839,1.372-9.328,3.862c-2.957,2.957-7.768,2.957-10.724,0l-76.38-76.381c-2.929-2.928-7.678-2.928-10.606,0    c-2.929,2.93-2.929,7.678,0,10.607l76.38,76.381c8.374,8.374,21.744,8.785,30.607,1.228l20.419,20.418    c-4.687,6.328-4.183,15.317,1.549,21.05l16.208,16.207c3.153,3.153,7.295,4.729,11.438,4.729c3.387,0,6.765-1.072,9.612-3.181    l29.898,29.898c1.464,1.464,3.384,2.196,5.303,2.196s3.839-0.732,5.303-2.196c2.929-2.93,2.929-7.678,0-10.607l-29.759-29.759    l57.443-57.443l29.759,29.76c1.464,1.464,3.384,2.196,5.303,2.196c1.919,0,3.839-0.732,5.303-2.196    c2.929-2.93,2.929-7.678,0-10.607l-29.896-29.896c0.685-0.921,1.265-1.903,1.734-2.936h26.157c4.142,0,7.5-3.357,7.5-7.5    s-3.358-7.5-7.5-7.5h-27.027c-0.674-1.116-1.471-2.168-2.416-3.113l-2.8-2.8l21.576-21.576c2.929-2.93,2.929-7.678,0-10.607    c-2.929-2.928-7.678-2.928-10.606,0l-21.576,21.577l-2.801-2.801c-5.731-5.731-14.72-6.236-21.047-1.55l-20.538-20.538    c7.925-9.783,11.337-22.607,9.18-35.145l-8.4-48.903c-0.848-4.926-3.164-9.396-6.698-12.931l-25.653-25.653V110.36    c0-9.38,7.63-17.011,17.01-17.011h184.8c9.373,0,16.998,7.621,17.009,16.991v30.343c0,0.007,0.001,0.013,0.001,0.019V295.16    c0,9.379-7.63,17.01-17.01,17.01h-137.06c-4.142,0-7.5,3.357-7.5,7.5s3.358,7.5,7.5,7.5h137.06c17.65,0,32.01-14.359,32.01-32.01    v-184.8C467.375,110.347,467.374,110.335,467.374,110.322z M295.275,374.257c0.301,0,0.602,0.114,0.831,0.343l8.095,8.095    c0.003,0.003,0.006,0.007,0.009,0.01s0.007,0.006,0.01,0.009l8.094,8.094c0.284,0.284,0.344,0.608,0.344,0.83    c0,0.223-0.06,0.547-0.344,0.831l-75.28,75.28c-0.458,0.459-1.204,0.459-1.662,0l-16.207-16.206c-0.458-0.459-0.458-1.205,0-1.663    l3.447-3.447c0.058-0.055,0.12-0.103,0.177-0.16c0.057-0.057,0.106-0.119,0.16-0.177l67.708-67.708    c0.06-0.056,0.124-0.106,0.182-0.165c0.059-0.059,0.109-0.123,0.165-0.183l3.44-3.44    C294.673,374.371,294.974,374.257,295.275,374.257z"/>
	</g>
</g>















</svg>
