<?xml version="1.0" encoding="iso-8859-1"?>
<!-- Generator: Adobe Illustrator 19.0.0, SVG Export Plug-In . SVG Version: 6.00 Build 0)  -->
<svg xmlns="http://www.w3.org/2000/svg" xmlns:xlink="http://www.w3.org/1999/xlink" version="1.1" id="Capa_1" x="0px" y="0px" viewBox="0 0 512 512" style="enable-background:new 0 0 512 512;" xml:space="preserve" width="512" height="512">
<g>
	<path style="fill:#FF5A59;" d="M434.418,128.826c-13.638-96.512-111.294-74.992-130.143-19.356   c-18.849-55.636-116.505-77.157-130.143,19.356C158.886,236.722,279.839,290.49,304.275,296.02   C328.711,290.49,449.664,236.722,434.418,128.826z"/>
	<path style="fill:#CE3A4C;" d="M434.418,128.826c-7.603-53.807-41.32-70.915-72.937-65.89c22.02,4.131,41.817,23.767,47.183,65.89   c12.744,100.03-80.042,153.528-111.195,165.205c2.717,0.918,5.025,1.586,6.806,1.989   C328.711,290.49,449.664,236.722,434.418,128.826z"/>
	<g>
		<path style="fill:#FFCCAA;" d="M440.661,297.447c-8.277-8.894-22.19-9.405-31.084-1.128l-57.423,53.377    c-5.841,5.434-13.71,8.124-21.656,7.398l-101.197-2.941c-9.51-0.283-17.342-7.525-18.362-16.974    c-0.289-2.629-0.027-5.218,0.719-7.644c1.5-4.878,4.953-9.07,9.723-11.442l33.995-16.882c12.602-5.737,18.178-20.59,12.454-33.187    c-3.088-6.808-8.841-11.564-15.46-13.599c-5.656-1.739-11.934-1.504-17.741,1.141l-65.418,29.719    c-9.295,4.228-16.345,12.235-19.345,21.992l-11.8,38.382c-1.042,3.389-2.735,6.548-5.001,9.272l-36.299,42.783l88.857,74.955    l42.537-50.304c4.078-4.908,9.768-8.21,16.056-9.322l120.54-21.158c5.327-0.945,10.283-3.405,14.245-7.093l60.519-56.264    C448.427,320.254,448.925,306.337,440.661,297.447z"/>
		<path style="fill:#F2A077;" d="M239.026,284.772l-33.995,16.882c-4.77,2.372-8.223,6.564-9.723,11.442    c-0.746,2.426-1.008,5.015-0.719,7.644c0.949,8.792,7.799,15.665,16.407,16.808c-0.016-0.124-0.044-0.244-0.057-0.369    c-0.289-2.629-0.026-5.218,0.719-7.644c1.5-4.878,4.953-9.07,9.723-11.442l33.994-16.882c12.602-5.737,18.178-20.59,12.454-33.187    c-3.057-6.739-8.726-11.464-15.261-13.532C256.295,266.388,250.671,279.471,239.026,284.772z"/>
		<path style="fill:#F2A077;" d="M440.661,297.447c-3.084-3.314-6.951-5.461-11.049-6.426c1.71,7.415-0.46,15.512-6.442,21.067    l-60.519,56.264c-3.962,3.688-8.918,6.148-14.245,7.093l-120.54,21.158c-6.287,1.112-11.978,4.414-16.056,9.322l-42.537,50.304    l-71.198-60.059l-1.309,1.543l88.857,74.955l42.536-50.304c4.078-4.908,9.769-8.21,16.056-9.322l120.54-21.158    c5.328-0.945,10.283-3.405,14.245-7.093l60.519-56.264C448.427,320.254,448.925,306.337,440.661,297.447z"/>
		<path style="fill:#75DC5E;" d="M90.892,374.19l-25.435,32.456L183.418,504.5l25.986-33.158c5.367-6.848,4.309-16.725-2.388-22.28    l-93.217-77.327C106.834,365.957,96.474,367.068,90.892,374.19z"/>
		<path style="fill:#2AAD52;" d="M207.016,449.062l-16.602-13.772c1.848,5.286,1.057,11.36-2.641,16.079l-26.95,34.388    l22.596,18.744l25.986-33.158C214.772,464.494,213.713,454.617,207.016,449.062z"/>
	</g>
	<g>
		<path d="M130.157,31.354c4.143,0,7.5-3.357,7.5-7.5V7.5c0-4.143-3.357-7.5-7.5-7.5s-7.5,3.357-7.5,7.5v16.354    C122.657,27.996,126.015,31.354,130.157,31.354z"/>
		<path d="M130.157,81.627c4.143,0,7.5-3.357,7.5-7.5V57.773c0-4.143-3.357-7.5-7.5-7.5s-7.5,3.357-7.5,7.5v16.354    C122.657,78.27,126.015,81.627,130.157,81.627z"/>
		<path d="M147.117,48.313h16.354c4.143,0,7.5-3.357,7.5-7.5s-3.357-7.5-7.5-7.5h-16.354c-4.143,0-7.5,3.357-7.5,7.5    S142.975,48.313,147.117,48.313z"/>
		<path d="M96.844,48.313h16.354c4.143,0,7.5-3.357,7.5-7.5s-3.357-7.5-7.5-7.5H96.844c-4.143,0-7.5,3.357-7.5,7.5    S92.701,48.313,96.844,48.313z"/>
		<path d="M414.019,385.082c-4.143,0-7.5,3.357-7.5,7.5v16.354c0,4.143,3.357,7.5,7.5,7.5s7.5-3.357,7.5-7.5v-16.354    C421.519,388.439,418.161,385.082,414.019,385.082z"/>
		<path d="M414.019,435.355c-4.143,0-7.5,3.357-7.5,7.5v16.354c0,4.143,3.357,7.5,7.5,7.5s7.5-3.357,7.5-7.5v-16.354    C421.519,438.713,418.161,435.355,414.019,435.355z"/>
		<path d="M447.332,418.396h-16.354c-4.143,0-7.5,3.357-7.5,7.5s3.357,7.5,7.5,7.5h16.354c4.143,0,7.5-3.357,7.5-7.5    S451.475,418.396,447.332,418.396z"/>
		<path d="M397.059,418.396h-16.354c-4.143,0-7.5,3.357-7.5,7.5s3.357,7.5,7.5,7.5h16.354c4.143,0,7.5-3.357,7.5-7.5    S401.201,418.396,397.059,418.396z"/>
		<path d="M211.764,75.556c13.404-7.346,30.448-7.916,46.76-1.564c18.052,7.031,32.205,21.194,37.86,37.886    c1.031,3.045,3.889,5.094,7.104,5.094s6.072-2.049,7.104-5.094c8.725-25.752,38.156-44.625,65.608-42.053    c26.739,2.497,44.965,24.386,50.005,60.052c6.479,45.855-12.805,84.58-47.719,115.304c-28.637,25.2-62.079,39.617-74.994,43.11    c-1.103-0.3-2.556-0.734-4.406-1.36c-3.921-1.321-8.18,0.779-9.507,4.704c-1.326,3.924,0.78,8.181,4.704,9.507    c2.891,0.977,5.431,1.715,7.552,2.194c0.544,0.123,1.099,0.185,1.653,0.185c0.556,0,1.11-0.062,1.655-0.185    c13.16-2.979,50.826-18.36,83.252-46.895c41.22-36.272,59.43-80.764,52.661-128.664c-3.186-22.545-10.89-40.429-22.898-53.156    c-10.793-11.438-24.818-18.261-40.563-19.731c-28.979-2.705-58.772,13.002-74.103,37.327    c-8.916-14.181-22.893-25.724-39.524-32.201c-20.451-7.968-42.106-7.097-59.413,2.387c-3.632,1.99-4.963,6.549-2.973,10.182    C203.573,76.214,208.13,77.547,211.764,75.556z"/>
		<path d="M415.469,360.394l28.369-26.369c11.911-11.069,12.597-29.767,1.525-41.683c-5.368-5.771-12.659-9.107-20.529-9.395    c-7.867-0.268-15.387,2.513-21.148,7.88l-57.43,53.38c-4.276,3.975-10.061,5.947-15.856,5.414    c-0.156-0.014-0.313-0.023-0.47-0.028l-101.196-2.939c-5.728-0.169-10.511-4.587-11.126-10.296    c-0.174-1.573-0.028-3.126,0.433-4.619c0.923-2.999,3.074-5.527,5.888-6.931l33.896-16.828    c16.247-7.479,23.445-26.767,16.047-43.063c-3.854-8.481-11.173-14.92-20.097-17.67c-7.186-2.196-14.864-1.85-21.766,0.952    c-28.515-23.961-59.017-63.23-51.239-118.317c2.051-14.481,6.168-26.68,12.238-36.256c2.217-3.499,1.179-8.133-2.319-10.351    c-3.498-2.215-8.131-1.178-10.351,2.319c-7.217,11.387-12.069,25.58-14.421,42.187C157.68,186.122,187.174,228.218,216.965,255    l-51.644,23.461c-11.247,5.108-19.778,14.81-23.407,26.614l-11.795,38.365c-0.772,2.494-1.985,4.746-3.554,6.635l-11.709,13.796    c-4.367-2.63-9.442-3.762-14.617-3.204c-6.383,0.684-12.078,3.844-16.038,8.896L58.765,402.02    c-2.555,3.26-1.983,7.974,1.277,10.529c3.259,2.554,7.974,1.984,10.529-1.277l25.436-32.455c1.439-1.837,3.511-2.985,5.831-3.234    c2.323-0.247,4.589,0.436,6.385,1.925l93.218,77.328c3.597,2.983,4.156,8.202,1.273,11.881l-25.986,33.158    c-2.555,3.26-1.983,7.974,1.277,10.529c1.372,1.075,3.002,1.597,4.621,1.597c2.226,0,4.429-0.986,5.908-2.874l25.986-33.158    c6.542-8.348,6.623-19.57,0.9-27.853l17.715-20.956c2.949-3.542,7.069-5.934,11.594-6.732l120.548-21.161    c6.782-1.198,13.023-4.307,18.04-8.981l9.75-9.06c3.034-2.819,3.208-7.564,0.389-10.6c-2.819-3.033-7.564-3.209-10.6-0.389    l-9.758,9.067c-2.9,2.702-6.507,4.498-10.423,5.189l-120.547,21.161c-8.019,1.415-15.306,5.645-20.484,11.864l-17.187,20.331    l-77.882-64.606l11.475-13.52c2.886-3.473,5.037-7.457,6.4-11.858l11.8-38.381c2.367-7.702,7.934-14.031,15.273-17.365    l62.43-28.361c0.036-0.017,0.073-0.032,0.109-0.05l2.892-1.314c3.895-1.776,8.312-2.061,12.417-0.807    c4.81,1.482,8.761,4.958,10.84,9.533c4.001,8.813,0.085,19.249-8.729,23.265c-0.076,0.035-0.151,0.07-0.226,0.107l-34.013,16.887    c-6.48,3.232-11.416,9.044-13.539,15.939c-1.069,3.463-1.408,7.058-1.011,10.666c1.414,13.102,12.418,23.274,25.6,23.663    l100.978,2.933c9.971,0.844,19.862-2.568,27.196-9.387l57.435-53.385c2.831-2.638,6.502-4.028,10.385-3.871    c3.867,0.141,7.452,1.782,10.09,4.618c5.438,5.854,5.103,15.041-0.752,20.481l-28.37,26.37c-3.033,2.819-3.207,7.565-0.387,10.6    S412.435,363.214,415.469,360.394z"/>
	</g>
</g>















</svg>
