<?xml version="1.0" encoding="iso-8859-1"?>
<!-- Generator: Adobe Illustrator 19.0.0, SVG Export Plug-In . SVG Version: 6.00 Build 0)  -->
<svg xmlns="http://www.w3.org/2000/svg" xmlns:xlink="http://www.w3.org/1999/xlink" version="1.1" id="Capa_1" x="0px" y="0px" viewBox="0 0 512 512" style="enable-background:new 0 0 512 512;" xml:space="preserve" width="512" height="512">
<g>
	<path style="fill:#FF5A59;" d="M459.813,227.499h-18.241v-78.736h18.241c9.699,0,17.562,7.863,17.562,17.562v43.613   C477.375,219.637,469.512,227.499,459.813,227.499z"/>
	<path style="fill:#8BA7BC;" d="M410.832,504.5H93.879c-16.977,0-30.74-13.763-30.74-30.74V38.24c0-16.977,13.763-30.74,30.74-30.74   h316.954c16.977,0,30.74,13.763,30.74,30.74V473.76C441.572,490.737,427.809,504.5,410.832,504.5z"/>
	<path style="fill:#718A9E;" d="M410.832,7.5h-24c16.977,0,30.74,13.763,30.74,30.74V473.76c0,16.977-13.763,30.74-30.74,30.74h24   c16.977,0,30.74-13.763,30.74-30.74V38.24C441.572,21.263,427.809,7.5,410.832,7.5z"/>
	<path style="fill:#2BB4F3;" d="M459.813,155.529h-18.241V76.793h18.241c9.699,0,17.562,7.863,17.562,17.562v43.613   C477.375,147.667,469.512,155.529,459.813,155.529z"/>
	<g>
		<path style="fill:#475D6D;" d="M244.058,238.667h134.671c10.205,0,18.478,8.273,18.478,18.478v155.061    c0,10.205-8.273,18.478-18.478,18.478H244.058c-10.205,0-18.478-8.273-18.478-18.478V257.145    C225.58,246.94,233.853,238.667,244.058,238.667z"/>
		<g>
			<g>
				<path style="fill:#2BB4F3;" d="M354.729,430.684h-86.669v-20.319c0-11.769,9.54-21.309,21.309-21.309h44.051      c11.769,0,21.309,9.541,21.309,21.309V430.684z"/>
			</g>
			<path style="fill:#F2A077;" d="M298.555,367.644v24.792c0,0.703,0.244,1.384,0.69,1.928l9.799,11.947     c1.216,1.483,3.485,1.483,4.701,0l9.799-11.947c0.446-0.544,0.69-1.225,0.69-1.928v-24.792H298.555z"/>
			<g>
				<path style="fill:#FFCCAA;" d="M348.266,328.753h-2.659v-17.346c0-16.781-13.604-30.385-30.385-30.385h-7.656      c-16.781,0-30.385,13.604-30.385,30.385v17.346h-2.659c-4.413,0-7.991,3.578-7.991,7.991v3.779c0,4.413,3.578,7.991,7.991,7.991      h2.709c0.932,18.064,15.871,32.422,34.163,32.422c9.146,0,17.452-3.588,23.591-9.436c6.139-5.848,10.103-13.957,10.573-22.985      h2.709c4.413,0,7.991-3.578,7.991-7.991v-3.779C356.257,332.331,352.679,328.753,348.266,328.753z"/>
				<g>
					<path style="fill:#F9DC6A;" d="M267.863,269.853h47.867c16.501,0,29.877,13.376,29.877,29.877v11.677h-57.997       c-10.906,0-19.747-8.841-19.747-19.747V269.853z"/>
				</g>
			</g>
		</g>
	</g>
	<g>
		<path style="fill:#2BB4F3;" d="M241.924,33.352L131.427,73.569c-7.762,2.825-11.764,11.408-8.939,19.17l28.918,79.453    c2.825,7.762,11.408,11.764,19.169,8.939l110.496-40.217c7.762-2.825,11.764-11.408,8.939-19.17l-28.918-79.453    C258.268,34.529,249.686,30.527,241.924,33.352z"/>
		<path style="fill:#C9C5B5;" d="M282.182,100.233l-34.908-27.294c-5.771-4.512-14.275-1.5-15.918,5.639l-20.207,87.785    l69.923-25.45c7.762-2.825,11.764-11.408,8.939-19.169L282.182,100.233z"/>
		<path style="fill:#EBEAE6;" d="M164.725,127.074l-19.241,28.844l5.923,16.274c2.825,7.762,11.408,11.764,19.17,8.939    l88.384-32.169l-82.927-25.887C171.794,121.751,167.19,123.379,164.725,127.074z"/>
	</g>
	<g>
		<path style="fill:#75DC5E;" d="M295.137,180.764l7.961,19.71c0.671,1.661,2.562,2.464,4.223,1.793l86.961-35.126    c1.661-0.671,2.464-2.562,1.793-4.223l-7.961-19.71c-0.671-1.661-2.562-2.464-4.223-1.793l-86.961,35.126    C295.269,177.212,294.466,179.102,295.137,180.764z"/>
	</g>
	<circle style="fill:#EBEAE6;" cx="158.738" cy="441.255" r="29.258"/>
	<g>
		<path d="M441.572,353.479c-4.142,0-7.5,3.357-7.5,7.5v112.781c0,12.814-10.425,23.239-23.24,23.239H93.878    c-12.814,0-23.239-10.425-23.239-23.239v-30.254c0-4.143-3.358-7.5-7.5-7.5s-7.5,3.357-7.5,7.5v30.254    c0,21.085,17.154,38.239,38.239,38.239h316.954c21.085,0,38.24-17.154,38.24-38.239V360.979    C449.072,356.837,445.714,353.479,441.572,353.479z"/>
		<path d="M484.875,94.354c0-13.819-11.243-25.062-25.062-25.062h-10.741V38.239C449.072,17.154,431.918,0,410.833,0H93.878    C72.793,0,55.639,17.154,55.639,38.239v52.378H34.625c-4.142,0-7.5,3.357-7.5,7.5s3.358,7.5,7.5,7.5h21.014v63.941H34.625    c-4.142,0-7.5,3.357-7.5,7.5s3.358,7.5,7.5,7.5h21.014V248.5H34.625c-4.142,0-7.5,3.357-7.5,7.5s3.358,7.5,7.5,7.5h21.014v63.941    H34.625c-4.142,0-7.5,3.357-7.5,7.5s3.358,7.5,7.5,7.5h21.014v63.941H34.625c-4.142,0-7.5,3.357-7.5,7.5s3.358,7.5,7.5,7.5h57.269    c4.142,0,7.5-3.357,7.5-7.5s-3.358-7.5-7.5-7.5H70.639v-63.941h21.255c4.142,0,7.5-3.357,7.5-7.5s-3.358-7.5-7.5-7.5H70.639V263.5    h21.255c4.142,0,7.5-3.357,7.5-7.5s-3.358-7.5-7.5-7.5H70.639v-63.941h21.255c4.142,0,7.5-3.357,7.5-7.5s-3.358-7.5-7.5-7.5    H70.639v-63.941h21.255c4.142,0,7.5-3.357,7.5-7.5s-3.358-7.5-7.5-7.5H70.639V38.239C70.639,25.425,81.064,15,93.878,15h316.954    c12.814,0,23.24,10.425,23.24,23.239v38.554v71.918c0,0.016-0.002,0.032-0.002,0.048v78.74c0,0.016,0.002,0.032,0.002,0.048    V330.98c0,4.143,3.358,7.5,7.5,7.5s7.5-3.357,7.5-7.5V235h10.738c13.818,0,25.06-11.241,25.06-25.06v-43.62    c0-5.106-1.585-10.041-4.412-14.167c2.782-4.037,4.416-8.923,4.416-14.186V94.354z M459.813,84.293    c5.548,0,10.062,4.514,10.062,10.062v43.613c0,5.548-4.514,10.062-10.062,10.062h-10.741V84.293H459.813z M469.87,209.94    c0,5.547-4.513,10.06-10.06,10.06h-10.738v-56.971h10.741c3.09,0,6.05-0.566,8.786-1.594c0.818,1.467,1.271,3.13,1.271,4.885    V209.94z"/>
		<path d="M404.708,412.206V257.145c0-14.324-11.654-25.978-25.978-25.978H244.058c-14.324,0-25.978,11.653-25.978,25.978v155.062    c0,14.324,11.654,25.978,25.978,25.978h134.671C393.054,438.184,404.708,426.53,404.708,412.206z M275.363,291.661v-14.309h40.367    c12.339,0,22.377,10.039,22.377,22.378v4.177h-50.497C280.856,303.907,275.363,298.414,275.363,291.661z M274.03,336.74    c0-0.266,0.225-0.49,0.49-0.49h2.66c4.142,0,7.5-3.357,7.5-7.5v-10.002c0.963,0.103,1.939,0.16,2.929,0.16h50.5v9.843    c0,4.143,3.358,7.5,7.5,7.5h2.66c0.27,0,0.49,0.22,0.49,0.49v3.779c0,0.275-0.22,0.5-0.49,0.5h-2.71    c-3.99,0-7.282,3.125-7.49,7.109c-0.732,14.039-12.334,25.312-26.68,25.312c-3.477,0-6.802-0.668-9.855-1.879    c-0.092-0.04-0.187-0.074-0.281-0.11c-9.293-3.808-15.987-12.702-16.534-23.317c-0.206-3.987-3.498-7.114-7.49-7.114h-2.71    c-0.271,0-0.49-0.225-0.49-0.5V336.74z M306.05,390.836v-2.738c1.75,0.223,3.531,0.342,5.34,0.342c1.799,0,3.58-0.124,5.34-0.349    v2.746l-5.34,6.511L306.05,390.836z M291.904,396.56c0.389,0.911,0.9,1.775,1.537,2.557l9.811,11.962    c2.012,2.442,4.979,3.842,8.142,3.842c0.006,0,0.013,0,0.02,0c3.166-0.006,6.13-1.414,8.126-3.854l9.761-11.902    c0.657-0.788,1.182-1.669,1.579-2.604h2.54c7.615,0,13.81,6.191,13.81,13.801v12.823h-71.67V410.36    c0-7.609,6.195-13.801,13.81-13.801H291.904z M389.708,412.206c0,6.053-4.925,10.978-10.978,10.978h-16.5V410.36    c0-15.585-12.449-28.309-27.927-28.778c2.066-1.364,4.028-2.912,5.85-4.651c6.131-5.842,10.277-13.279,12.022-21.41    c6.657-1.736,11.584-7.804,11.584-15.001v-3.779c0-6.852-4.472-12.679-10.65-14.716V311.41c0-0.023-0.003-0.045-0.003-0.068    V299.73c0-20.61-16.767-37.378-37.377-37.378h-47.867c-4.142,0-7.5,3.357-7.5,7.5v21.809c0,8.162,3.613,15.492,9.317,20.49v9.873    c-6.178,2.037-10.65,7.864-10.65,14.716v3.779c0,7.195,4.925,13.262,11.58,15c2.329,10.901,8.897,20.164,17.859,26.063    c-15.469,0.479-27.908,13.199-27.908,28.778v12.823h-16.502c-6.053,0-10.978-4.925-10.978-10.978V257.145    c0-6.053,4.925-10.978,10.978-10.978h134.671c6.053,0,10.978,4.925,10.978,10.978V412.206z"/>
		<path d="M233.719,459.347c-4.142,0-7.5,3.357-7.5,7.5s3.358,7.5,7.5,7.5h155.35c4.142,0,7.5-3.357,7.5-7.5s-3.358-7.5-7.5-7.5    H233.719z"/>
		<path d="M133.992,80.617l11.688-4.254c3.893-1.417,5.899-5.721,4.483-9.613c-1.417-3.892-5.721-5.898-9.613-4.482l-11.688,4.254    c-11.635,4.235-17.656,17.147-13.421,28.783l28.918,79.452c3.316,9.109,11.949,14.777,21.125,14.777    c2.544,0,5.132-0.437,7.658-1.355l110.497-40.218c11.635-4.235,17.655-17.146,13.421-28.783l-28.918-79.452    c-2.052-5.637-6.176-10.137-11.612-12.671c-5.436-2.536-11.534-2.802-17.17-0.75l-70.605,25.697    c-3.893,1.417-5.899,5.721-4.483,9.613c1.417,3.893,5.721,5.896,9.613,4.482L244.489,40.4c1.871-0.681,3.895-0.594,5.701,0.249    c1.805,0.841,3.174,2.335,3.855,4.207l12.138,33.349l-14.295-11.174c-4.742-3.706-10.958-4.721-16.631-2.708    c-5.671,2.011-9.861,6.713-11.207,12.573l-11.454,49.735l-34.329-10.716c-7.366-2.302-15.5,0.578-19.782,6.997l-11.021,16.521    l-17.929-49.258C128.13,86.311,130.129,82.023,133.992,80.617z M238.669,80.259c0.268-1.165,1.118-1.627,1.602-1.798    c0.483-0.172,1.436-0.351,2.38,0.389l33.219,25.968l7.094,19.49c1.406,3.864-0.593,8.151-4.456,9.558l-19.731,7.182l-31.819-9.933    L238.669,80.259z M170.964,131.236c0.614-0.92,1.778-1.335,2.834-1.003l61.738,19.272l-67.526,24.577    c-1.872,0.681-3.896,0.593-5.701-0.249c-1.805-0.842-3.174-2.336-3.855-4.208l-4.624-12.705L170.964,131.236z"/>
		<path d="M395.068,140.397c-2.219-5.492-8.494-8.152-13.986-5.937l-86.964,35.126c-5.49,2.221-8.153,8.494-5.935,13.985    l7.961,19.71c1.688,4.179,5.723,6.721,9.976,6.721c1.337,0,2.696-0.252,4.011-0.782l86.96-35.126    c2.661-1.074,4.744-3.121,5.866-5.763c1.122-2.642,1.148-5.563,0.073-8.223L395.068,140.397z M308.459,193.719l-4.774-11.818    l79.069-31.938l4.773,11.817L308.459,193.719z"/>
		<path d="M158.737,463.013c-3.693,0-7.337-0.939-10.538-2.716c-3.622-2.011-8.188-0.705-10.198,2.916    c-2.011,3.621-0.705,8.188,2.917,10.197c5.422,3.011,11.584,4.603,17.819,4.603c20.269,0,36.758-16.489,36.758-36.758    s-16.49-36.758-36.758-36.758s-36.758,16.489-36.758,36.758c0,4.143,3.358,7.5,7.5,7.5s7.5-3.357,7.5-7.5    c0-11.997,9.761-21.758,21.758-21.758c11.998,0,21.758,9.761,21.758,21.758S170.735,463.013,158.737,463.013z"/>
	</g>
</g>















</svg>
