<?xml version="1.0" encoding="iso-8859-1"?>
<!-- Generator: Adobe Illustrator 19.0.0, SVG Export Plug-In . SVG Version: 6.00 Build 0)  -->
<svg xmlns="http://www.w3.org/2000/svg" xmlns:xlink="http://www.w3.org/1999/xlink" version="1.1" id="Capa_1" x="0px" y="0px" viewBox="0 0 511.997 511.997" style="enable-background:new 0 0 511.997 511.997;" xml:space="preserve" width="512" height="512">
<g>
	<path style="fill:#D7875F;" d="M339.439,235.157V119.225h-101.77v89.799c0,26.674,21.624,48.298,48.297,48.298h1.737v28.323   c0,18.235,14.783,33.017,33.018,33.017h8.953c18.235,0,33.018-14.782,33.018-33.017v-50.486H339.439z"/>
	<path style="fill:#475D6D;" d="M318.407,137.126h-80.738V54.007h102.817c28.846,0,52.231,23.384,52.231,52.231v109.217   c0,17.473-14.164,31.637-31.637,31.637h-21.959c-15.125,0-27.386-12.261-27.386-27.386v-35.841c0-3.685,2.987-6.673,6.673-6.673h0   c11.064,0,20.032-8.969,20.032-20.032v0C338.439,146.095,329.471,137.126,318.407,137.126z"/>
	<path style="fill:#2C3F4F;" d="M340.486,54.007h-22.5c28.846,0,52.231,23.385,52.231,52.231v109.217   c0,17.382-14.019,31.484-31.366,31.63c0.091,0.001,0.18,0.007,0.271,0.007h21.959c17.473,0,31.637-14.164,31.637-31.637V106.237   C392.717,77.391,369.332,54.007,340.486,54.007z"/>
	<g>
		<path style="fill:#2BB4F3;" d="M264.978,504.497H83.493V347.01c0-37.35,30.278-67.627,67.627-67.627h46.231    c37.35,0,67.627,30.278,67.627,67.627V504.497z"/>
		<path style="fill:#1687C4;" d="M197.35,279.383h-23.179c34.262,0,62.036,27.775,62.036,62.036v163.078h28.77V347.01    C264.978,309.661,234.7,279.383,197.35,279.383z"/>
		<path style="fill:#F2A077;" d="M178.071,318.661L178.071,318.661c-20.708,0-37.494-16.787-37.494-37.494v-70.188h74.989v70.188    C215.566,301.874,198.779,318.661,178.071,318.661z"/>
	</g>
	<g>
		<path style="fill:#FFCCAA;" d="M287.707,100.516v78.762c0,23.954-9.705,45.647-25.404,61.334    c-15.699,15.711-37.393,25.416-61.346,25.416c-47.919,0-86.762-38.843-86.762-86.75v-1.281H98.265    c-7.856,0-14.225-6.357-14.225-14.212v-9.185c0-5.801,3.469-10.78,8.448-12.992h9.668c2.876,0,5.656-0.423,8.279-1.233    c1.293-0.387,2.55-0.87,3.759-1.45c9.681-4.52,16.376-14.346,16.376-25.73v-4.943c0-4.278,3.456-7.735,7.735-7.735H287.707z"/>
		<path style="fill:#F2A077;" d="M261.068,100.516v78.762c0,23.954-9.705,45.647-25.404,61.335    c-12.731,12.74-29.404,21.529-48.027,24.397c4.342,0.669,8.79,1.019,13.319,1.019c23.954,0,45.647-9.705,61.347-25.416    c15.699-15.687,25.404-37.381,25.404-61.335v-78.762H261.068z"/>
		<path style="fill:#F9DC6A;" d="M338.442,17.802V59.28c0,22.781-18.455,41.236-41.236,41.236H138.305    c-4.278,0-7.735,3.456-7.735,7.735v4.943c0,11.385-6.695,21.21-16.376,25.73c-1.209,0.58-2.466,1.063-3.759,1.45    c-2.623,0.81-5.402,1.233-8.279,1.233H91.896V60.912c0-14.974,11.215-27.555,26.081-29.271L326.961,7.566    C333.076,6.865,338.442,11.651,338.442,17.802z"/>
		<path style="fill:#E5AC51;" d="M326.961,7.566L307.133,9.85c2.29,1.881,3.777,4.723,3.777,7.953V59.28    c0,22.782-18.455,41.236-41.236,41.236h27.532c22.781,0,41.236-18.455,41.236-41.236V17.802    C338.442,11.651,333.076,6.865,326.961,7.566z"/>
	</g>
	<g>
		<path style="fill:#75DC5E;" d="M415.941,504.497H234.456V347.01c0-37.35,30.278-67.627,67.627-67.627h46.231    c37.35,0,67.627,30.278,67.627,67.627V504.497z"/>
		<path style="fill:#2AAD52;" d="M348.314,279.383h-23.179c34.262,0,62.036,27.775,62.036,62.036v163.078h28.77V347.01    C415.941,309.661,385.663,279.383,348.314,279.383z"/>
	</g>
	<path style="fill:#1687C4;" d="M105.028,353.796L105.028,353.796c0,19.756,16.015,35.771,35.771,35.771h59.737v-71.542h-59.737   C121.043,318.025,105.028,334.04,105.028,353.796z"/>
	<path style="fill:#2AAD52;" d="M300.82,302.466L300.82,302.466c-20.108,0-36.409,16.301-36.409,36.409v60.804h72.819v-60.804   C337.229,318.768,320.928,302.466,300.82,302.466z"/>
	<path style="fill:#FFCCAA;" d="M347.085,332.113L347.085,332.113H200.536v43.366h146.549l0,0c0,5.249,4.255,9.504,9.504,9.504   h46.786c13.88,0,25.132-11.252,25.132-25.132v-12.109c0-13.88-11.252-25.132-25.132-25.132h-46.786   C351.34,322.609,347.085,326.864,347.085,332.113z"/>
	<path style="fill:#D7875F;" d="M279.137,399.679v15.097c0,6.936-5.622,12.558-12.558,12.558h-62.061l0,0   c-3.979-6.317-10.923-10.15-18.389-10.15h-29.537c-15.741,0-28.502,12.761-28.502,28.502v6.661   c0,15.741,12.761,28.502,28.502,28.502h29.537c7.466,0,14.409-3.832,18.389-10.149l0,0h74.619h19.195   c13.349,0,24.171-10.822,24.171-24.171v-19.195v-27.655H279.137z"/>
	<g>
		<path d="M180.651,199.832c8.927,9.808,21.653,15.433,34.915,15.433c13.262,0,25.988-5.625,34.915-15.433    c2.788-3.063,2.565-7.807-0.498-10.596c-3.062-2.786-7.806-2.565-10.595,0.498c-6.091,6.692-14.774,10.53-23.822,10.53    c-9.048,0-17.73-3.838-23.822-10.53c-2.788-3.063-7.532-3.285-10.595-0.498C178.085,192.026,177.863,196.769,180.651,199.832z"/>
		<path d="M256.959,152.733c4.142,0,7.5-3.357,7.5-7.5v-3.626c0-4.143-3.358-7.5-7.5-7.5s-7.5,3.357-7.5,7.5v3.626    C249.459,149.375,252.817,152.733,256.959,152.733z"/>
		<path d="M174.172,152.733c4.142,0,7.5-3.357,7.5-7.5v-3.626c0-4.143-3.358-7.5-7.5-7.5s-7.5,3.357-7.5,7.5v3.626    C166.672,149.375,170.03,152.733,174.172,152.733z"/>
		<path d="M415.941,405.224c-4.142,0-7.5,3.357-7.5,7.5v91.773c0,4.143,3.358,7.5,7.5,7.5s7.5-3.357,7.5-7.5v-91.773    C423.441,408.581,420.083,405.224,415.941,405.224z"/>
		<path d="M417.828,318.495c-8.651-21.083-26.387-36.823-47.638-43.323v-21.656c17.312-4.111,30.03-19.638,30.03-38.059v-109.22    c0-21.054-10.758-40.153-28.779-51.092c-3.54-2.149-8.153-1.021-10.303,2.52c-2.149,3.541-1.021,8.153,2.52,10.303    c13.501,8.196,21.562,22.502,21.562,38.27v109.22c0,12.868-10.062,23.454-22.958,24.102c-0.389,0.022-0.786,0.028-1.182,0.028    h-21.96c-10.967,0-19.89-8.918-19.89-19.88v-35.031c7.056-0.205,13.651-3.049,18.636-8.048c5.207-5.191,8.074-12.106,8.074-19.471    c0-15.361-12.472-27.53-27.53-27.53h-23.204v-21.611h2c26.873,0,48.736-21.863,48.736-48.736V17.802    c0-5.067-2.17-9.909-5.955-13.284s-8.838-4.978-13.885-4.403l-161.286,18.58c-4.115,0.475-7.066,4.194-6.592,8.31    s4.198,7.064,8.309,6.593l161.282-18.58c1.083-0.128,1.837,0.382,2.188,0.695c0.351,0.312,0.938,1,0.938,2.09V59.28    c0,18.603-15.134,33.736-33.736,33.736h-9.5H138.305c-8.4,0-15.235,6.835-15.235,15.235v4.942    c0,11.346-9.239,20.913-20.913,20.913h-2.761V60.911c0-11.16,8.358-20.541,19.439-21.82l18.034-2.077    c4.115-0.475,7.067-4.194,6.593-8.31c-0.474-4.114-4.198-7.06-8.309-6.593l-18.037,2.078c-18.654,2.154-32.72,17.941-32.72,36.722    v76.986c-4.892,4.064-7.855,10.15-7.855,16.702v9.186c0,11.972,9.746,21.712,21.725,21.712h8.632    c1.498,22.879,11.201,43.554,26.183,59.112v29.47c-15.016,3.71-28.633,12.034-38.849,23.865    c-11.763,13.623-18.241,31.048-18.241,49.064v157.49c0,4.143,3.358,7.5,7.5,7.5s7.5-3.357,7.5-7.5v-157.49    c0-14.419,5.183-28.361,14.594-39.261c7.533-8.725,17.37-15.065,28.258-18.331c1.472,7.928,5.033,15.179,10.135,21.11h-3.179    c-23.86,0-43.271,19.411-43.271,43.271c0,23.859,19.411,43.271,43.271,43.271h59.737c4.142,0,7.5-3.357,7.5-7.5v-6.588h48.875    v16.698c0,4.143,3.358,7.5,7.5,7.5h7.227v7.599c0,2.789-2.269,5.059-5.058,5.059H241.96v-15.267c0-4.143-3.358-7.5-7.5-7.5    s-7.5,3.357-7.5,7.5v15.267h-18.679c-5.507-6.422-13.516-10.149-22.152-10.149h-29.537c-19.852,0-36.002,16.15-36.002,36.002    v6.661c0,19.852,16.15,36.002,36.002,36.002h29.537c8.635,0,16.645-3.729,22.152-10.149h18.679v26.297c0,4.143,3.358,7.5,7.5,7.5    s7.5-3.357,7.5-7.5v-26.297h56.372c17.463,0,31.671-14.207,31.671-31.671v-39.353h7.227c4.142,0,7.5-3.357,7.5-7.5v-12.025    c3.066,2.987,7.251,4.831,11.859,4.831h46.786c17.994,0,32.632-14.639,32.632-32.633v-12.108    C436.007,334.935,428.589,323.835,417.828,318.495z M315.003,446.53c0,9.192-7.479,16.671-16.671,16.671h-63.814    c-0.02,0-0.038-0.003-0.058-0.003s-0.038,0.003-0.058,0.003h-29.884c-2.577,0-4.973,1.322-6.346,3.503    c-2.622,4.162-7.124,6.646-12.043,6.646h-29.537c-11.581,0-21.002-9.422-21.002-21.002v-6.661c0-11.58,9.421-21.002,21.002-21.002    h29.537c4.919,0,9.421,2.484,12.042,6.646c1.374,2.181,3.77,3.503,6.346,3.503h29.884c0.02,0,0.038,0.003,0.058,0.003    s0.038-0.003,0.058-0.003h32.061c11.06,0,20.058-8.998,20.058-20.059v-7.597h28.366V446.53z M399.276,315.109h-42.687    c-6.224,0-11.675,3.364-14.638,8.367c-6.302-16.886-22.565-28.509-41.131-28.509c-18.978,0-35.548,12.147-41.533,29.646h-12.999    c3.802-9.439,9.992-17.881,17.984-24.354c7.35-5.953,15.754-9.991,24.765-11.967c0.159-0.029,0.315-0.064,0.471-0.103    c4.083-0.861,8.286-1.302,12.573-1.302h46.23C369.253,286.887,388.436,297.845,399.276,315.109z M325.977,324.613h-50.313    c5.013-8.839,14.507-14.646,25.156-14.646S320.964,315.773,325.977,324.613z M208.036,324.613v-6.588    c0-0.992-0.197-1.936-0.547-2.802c6.949-6.009,11.981-14.084,14.243-23.182c6.834,3.02,13.02,7.288,18.307,12.634    c-4.181,6.124-7.452,12.851-9.67,19.939H208.036z M255.793,255.956c7.333,4.71,15.72,7.653,24.407,8.561v10.64    c-9.195,2.8-17.838,7.346-25.37,13.446c-1.774,1.437-3.47,2.958-5.098,4.543c-7.613-7.424-16.656-13.104-26.662-16.733v-5.483    C234.837,268.114,245.918,263.051,255.793,255.956z M318.41,144.627c11.2,0,16.688,13.579,8.849,21.395    c-2.357,2.364-5.5,3.666-8.849,3.666c-7.819,0-14.18,6.361-14.18,14.18v35.84c0,19.232,15.652,34.88,34.89,34.88h16.07v17.629    c-2.273-0.21-4.567-0.33-6.88-0.33h-46.23c-2.303,0-4.598,0.115-6.88,0.327v-14.896c0-4.143-3.358-7.5-7.5-7.5h-1.73    c-6.393,0-12.516-1.438-18.074-4.198c17.613-17.753,27.311-41.294,27.311-66.342v-34.65H318.41z M114.194,170.496H98.265    c-3.708,0-6.725-3.011-6.725-6.712v-9.186c0-2.209,1.087-4.25,2.853-5.492h7.763c19.804,0,35.913-16.135,35.913-35.913v-4.942    c0-0.137,0.099-0.235,0.235-0.235h141.902v71.262c0,21.179-8.241,41.077-23.209,56.033c-1.947,1.948-3.981,3.776-6.087,5.493    c-0.011,0.009-0.022,0.017-0.033,0.026c-14.073,11.462-31.513,17.699-49.922,17.699c-43.706,0-79.263-35.552-79.263-79.251v-1.281    C121.694,173.854,118.336,170.496,114.194,170.496z M148.08,281.167v-23.904c15.088,10.261,33.294,16.265,52.876,16.265    c2.386,0,4.758-0.089,7.113-0.263v7.902c0,14.25-10.009,26.492-23.887,29.357h-12.225    C158.086,307.661,148.08,295.419,148.08,281.167z M193.036,382.067h-52.237c-15.589,0-28.271-12.682-28.271-28.271    s12.682-28.271,28.271-28.271h30.334c0.028,0,0.057,0.004,0.086,0.004c0.03,0,0.059-0.003,0.088-0.004h13.527    c0.03,0,0.059,0.004,0.088,0.004c0.028,0,0.057-0.004,0.086-0.004h8.028v6.588v43.366V382.067z M329.73,382.979v9.198h-57.82    v-9.198H329.73z M421.007,359.85c0,9.723-7.91,17.633-17.632,17.633h-46.786c-1.105,0-2.004-0.899-2.004-2.004    c0-4.143-3.358-7.5-7.5-7.5h-9.836c-0.007,0-0.013-0.001-0.019-0.001s-0.013,0.001-0.019,0.001h-72.781    c-0.007,0-0.013-0.001-0.019-0.001s-0.013,0.001-0.019,0.001h-56.355v-28.366h27.957c0.041,0.001,0.083,0.007,0.124,0.007    c0.027,0,0.053-0.007,0.08-0.007h28.847c0.065,0,0.131,0.002,0.196,0h71.219c0.045,0.001,0.088,0.006,0.133,0.006    c0.042,0,0.085-0.005,0.127-0.006h10.366c4.142,0,7.5-3.357,7.5-7.5c0-1.104,0.899-2.004,2.004-2.004h46.786    c9.723,0,17.632,7.91,17.632,17.633V359.85z"/>
	</g>
</g>















</svg>
