<?xml version="1.0" encoding="iso-8859-1"?>
<!-- Generator: Adobe Illustrator 19.0.0, SVG Export Plug-In . SVG Version: 6.00 Build 0)  -->
<svg xmlns="http://www.w3.org/2000/svg" xmlns:xlink="http://www.w3.org/1999/xlink" version="1.1" id="Capa_1" x="0px" y="0px" viewBox="0 0 511.981 511.981" style="enable-background:new 0 0 511.981 511.981;" xml:space="preserve" width="512" height="512">
<g>
	<g>
		<path style="fill:#2BB4F3;" d="M91.272,65.404v38.674c0,7.718,6.257,13.974,13.974,13.974h265.698    c7.718,0,13.974-6.257,13.974-13.974V65.404c0-7.718-6.257-13.974-13.974-13.974H105.246    C97.528,51.43,91.272,57.686,91.272,65.404z"/>
		<path style="fill:#2BB4F3;" d="M349.129,312.554H127.061c-8.257,0-14.95-6.693-14.95-14.95V118.053h251.968v179.551    C364.079,305.86,357.385,312.554,349.129,312.554z"/>
		<rect x="112.111" y="118.053" style="fill:#1687C4;" width="251.968" height="22.5"/>
		<g>
			<path style="fill:#EBEAE6;" d="M360.901,285.44H314c-6.58,0-11.913-5.334-11.913-11.913v-94.263     c0-6.58,5.334-11.913,11.913-11.913h46.901c6.58,0,11.913,5.334,11.913,11.913v94.263     C372.814,280.107,367.48,285.44,360.901,285.44z"/>
		</g>
		<rect x="216.94" y="118.053" style="fill:#F9DC6A;" width="42.31" height="194.501"/>
		<rect x="216.94" y="118.053" style="fill:#E5AC51;" width="42.31" height="22.5"/>
		<rect x="216.94" y="51.43" style="fill:#F9DC6A;" width="42.31" height="66.623"/>
		<g>
			<g>
				<path style="fill:#FF5A59;" d="M243.914,36.589v29.68l68.016,27.334c15.957,6.412,33.339-5.336,33.339-22.533V31.788      c0-17.197-17.383-28.945-33.339-22.533L243.914,36.589z"/>
				<path style="fill:#FF5A59;" d="M232.276,36.589v29.68L164.26,93.603c-15.957,6.412-33.339-5.336-33.339-22.533V31.788      c0-17.197,17.383-28.945,33.339-22.533L232.276,36.589z"/>
			</g>
			<path style="fill:#CE3A4C;" d="M242.791,25.854h-9.391c-6.3,0-11.408,5.107-11.408,11.408v28.336     c0,6.3,5.107,11.408,11.408,11.408h9.391c6.3,0,11.408-5.107,11.408-11.408V37.262C254.198,30.961,249.091,25.854,242.791,25.854     z"/>
		</g>
	</g>
	<g>
		<g>
			<path style="fill:#FFCCAA;" d="M440.66,297.427c-8.277-8.894-22.19-9.405-31.084-1.128l-57.423,53.377     c-5.841,5.434-13.71,8.124-21.656,7.398L229.3,354.133c-9.51-0.283-17.342-7.525-18.362-16.974     c-0.289-2.629-0.027-5.218,0.719-7.644c1.5-4.878,4.953-9.07,9.723-11.442l33.995-16.882     c12.602-5.737,18.178-20.59,12.454-33.187c-3.088-6.808-8.841-11.564-15.46-13.599c-5.656-1.739-11.934-1.504-17.741,1.141     l-65.418,29.719c-9.295,4.228-16.345,12.235-19.345,21.992l-11.8,38.382c-1.042,3.389-2.735,6.548-5.001,9.272l-36.299,42.783     l88.857,74.955l42.537-50.304c4.078-4.908,9.768-8.21,16.056-9.322l120.54-21.158c5.327-0.945,10.283-3.405,14.245-7.093     l60.519-56.264C448.426,320.235,448.924,306.317,440.66,297.427z"/>
			<path style="fill:#F2A077;" d="M239.025,284.753l-33.995,16.882c-4.77,2.372-8.223,6.564-9.723,11.442     c-0.746,2.426-1.008,5.015-0.719,7.644c0.949,8.792,7.799,15.665,16.407,16.808c-0.016-0.124-0.044-0.244-0.057-0.369     c-0.289-2.629-0.026-5.218,0.719-7.644c1.5-4.878,4.953-9.07,9.723-11.442l33.994-16.882     c12.602-5.737,18.178-20.59,12.454-33.187c-3.057-6.739-8.726-11.464-15.261-13.532     C256.294,266.369,250.67,279.451,239.025,284.753z"/>
			<path style="fill:#F2A077;" d="M440.66,297.427c-3.084-3.314-6.951-5.461-11.049-6.426c1.71,7.415-0.46,15.512-6.442,21.067     l-60.519,56.264c-3.962,3.688-8.918,6.148-14.245,7.093l-120.54,21.158c-6.287,1.112-11.978,4.414-16.056,9.322l-42.537,50.304     l-71.198-60.059l-1.309,1.543l88.857,74.955l42.536-50.304c4.078-4.908,9.769-8.21,16.056-9.322l120.54-21.158     c5.328-0.945,10.283-3.405,14.245-7.093l60.519-56.264C448.426,320.235,448.924,306.317,440.66,297.427z"/>
			<path style="fill:#75DC5E;" d="M90.891,374.171l-25.435,32.456l117.962,97.854l25.986-33.158     c5.367-6.848,4.309-16.725-2.388-22.28l-93.217-77.327C106.833,365.937,96.473,367.048,90.891,374.171z"/>
			<path style="fill:#2AAD52;" d="M207.015,449.042l-16.602-13.772c1.848,5.286,1.057,11.36-2.641,16.079l-26.95,34.388     l22.596,18.744l25.986-33.158C214.771,464.474,213.712,454.598,207.015,449.042z"/>
		</g>
	</g>
	<g>
		<path d="M350.238,227.975c4.143,0,7.5-3.358,7.5-7.5v-26.523c0-4.142-3.357-7.5-7.5-7.5s-7.5,3.358-7.5,7.5v26.523    C342.738,224.617,346.096,227.975,350.238,227.975z"/>
		<path d="M324.662,186.452c-4.143,0-7.5,3.358-7.5,7.5v64.886c0,4.142,3.357,7.5,7.5,7.5s7.5-3.358,7.5-7.5v-64.886    C332.162,189.81,328.805,186.452,324.662,186.452z"/>
		<path d="M446.15,292.322c-5.369-5.771-12.66-9.107-20.529-9.395c-7.88-0.282-15.387,2.513-21.148,7.879l-57.43,53.381    c-4.275,3.974-10.06,5.951-15.857,5.414c-0.156-0.014-0.313-0.023-0.469-0.028l-101.197-2.94    c-5.728-0.168-10.51-4.587-11.125-10.295c-0.174-1.573-0.028-3.126,0.433-4.62c0.924-2.998,3.074-5.526,5.887-6.93l9.543-4.738    h114.872c12.379,0,22.45-10.071,22.45-22.45v-7.877c5.257-3.477,8.735-9.435,8.735-16.196v-94.263    c0-10.705-8.709-19.414-19.414-19.414h-15.95v-34.298h11.629v11.798c0,4.142,3.357,7.5,7.5,7.5s7.5-3.358,7.5-7.5v-11.833    c11.546-0.342,20.84-9.815,20.84-21.437V65.4c0-11.838-9.636-21.47-21.479-21.47h-18.171V31.79c0-10.575-5.229-20.421-13.99-26.34    c-8.756-5.916-19.84-7.095-29.646-3.149l-53.213,21.383c-3.404-3.293-8.03-5.331-13.129-5.331h-9.391    c-5.099,0-9.724,2.038-13.129,5.331L184.397,9.262c-3.843-1.548-8.211,0.317-9.756,4.161c-1.545,3.843,0.318,8.211,4.161,9.756    l35.69,14.348v6.403h-14.603c-4.142,0-7.5,3.358-7.5,7.5s3.358,7.5,7.5,7.5h14.603v6.402l-0.422,0.169    c-0.024,0.01-0.049,0.019-0.073,0.029L161.46,86.642c-5.257,2.114-10.962,1.508-15.654-1.662    c-4.695-3.172-7.387-8.242-7.387-13.911V31.79c0-8.493,6.364-15.67,14.804-16.695c4.112-0.499,7.041-4.237,6.542-8.349    c-0.499-4.112-4.23-7.04-8.349-6.542c-15.96,1.937-27.996,15.516-27.996,31.585v12.14h-18.17c-11.844,0-21.48,9.631-21.48,21.47    v38.68c0,11.623,9.295,21.096,20.842,21.437v172.086c0,7.469,3.698,14.426,9.893,18.611c1.287,0.87,2.747,1.287,4.192,1.287    c2.407,0,4.772-1.157,6.221-3.302c2.319-3.432,1.417-8.094-2.016-10.413c-2.06-1.392-3.29-3.703-3.29-6.183V125.553h89.828    v133.204l-43.332,19.686c-11.247,5.108-19.778,14.809-23.407,26.614l-11.795,38.366c-0.773,2.494-1.985,4.747-3.554,6.636    l-11.709,13.795c-4.369-2.629-9.445-3.759-14.615-3.205c-6.383,0.685-12.08,3.844-16.04,8.896L59.552,402    c-2.555,3.26-1.983,7.975,1.277,10.53c3.261,2.555,7.975,1.982,10.53-1.277l25.436-32.456c1.439-1.837,3.511-2.986,5.832-3.235    c2.318-0.246,4.588,0.435,6.384,1.925l93.218,77.327c3.597,2.984,4.157,8.203,1.273,11.881l-25.986,33.158    c-2.555,3.26-1.983,7.975,1.277,10.53c1.373,1.076,3.003,1.597,4.621,1.597c2.226,0,4.429-0.986,5.909-2.874l25.986-33.158    c6.542-8.348,6.623-19.571,0.9-27.854l17.715-20.955c2.95-3.542,7.069-5.934,11.593-6.732l37.039-6.5    c4.08-0.716,6.808-4.604,6.091-8.684c-0.715-4.08-4.605-6.805-8.683-6.091l-37.047,6.501c-8.017,1.415-15.305,5.643-20.484,11.864    l-17.187,20.33l-77.882-64.606l11.474-13.52c2.885-3.472,5.037-7.457,6.4-11.859l11.8-38.381    c2.368-7.702,7.934-14.032,15.273-17.365l47.517-21.587c0.043-0.018,0.084-0.039,0.126-0.057l17.787-8.081    c3.896-1.776,8.313-2.062,12.419-0.806c4.809,1.482,8.76,4.958,10.839,9.533c4,8.813,0.084,19.25-8.73,23.265    c-0.076,0.035-0.151,0.07-0.226,0.107l-34.014,16.887c-6.479,3.233-11.414,9.044-13.538,15.939    c-1.069,3.464-1.408,7.059-1.01,10.667c1.414,13.102,12.418,23.274,25.599,23.662l100.979,2.934    c9.967,0.847,19.861-2.568,27.196-9.386l57.435-53.386c2.831-2.637,6.53-4.008,10.384-3.871c3.868,0.141,7.452,1.782,10.091,4.618    c5.438,5.854,5.102,15.041-0.753,20.481l-60.526,56.266c-2.9,2.703-6.508,4.498-10.424,5.19l-53.76,9.44    c-4.08,0.717-6.807,4.604-6.09,8.685c0.639,3.641,3.805,6.204,7.378,6.204c0.431,0,0.867-0.038,1.306-0.115l53.768-9.441    c6.783-1.198,13.023-4.307,18.042-8.982l60.519-56.259C456.536,322.935,457.222,304.238,446.15,292.322z M365.315,179.264v94.263    c0,2.434-1.98,4.414-4.414,4.414H314c-2.434,0-4.413-1.98-4.413-4.414v-94.263c0-2.434,1.979-4.414,4.413-4.414h46.9    C363.334,174.85,365.315,176.83,365.315,179.264z M309.13,100.558c3.833,1.542,7.86,2.301,11.868,2.301    c3.027,0,6.041-0.442,8.952-1.299v8.99h-63.201V83.528L309.13,100.558z M251.749,82.242v28.308h-27.31V82.241    c2.669,1.442,5.72,2.264,8.96,2.264h9.391C246.03,84.505,249.081,83.684,251.749,82.242z M370.94,58.93    c3.573,0,6.479,2.902,6.479,6.47v38.68c0,3.567-2.906,6.47-6.479,6.47H344.95V91.941c4.981-5.717,7.818-13.094,7.818-20.871V58.93    H370.94z M314.728,16.218c5.257-2.114,10.963-1.508,15.653,1.662c4.695,3.172,7.388,8.242,7.388,13.911v39.28    c0,4.862-1.985,9.279-5.511,12.44c-0.039,0.037-0.08,0.071-0.118,0.109c-0.551,0.484-1.135,0.941-1.758,1.361    c-4.691,3.17-10.4,3.775-15.655,1.661l-52.533-21.11c-0.025-0.011-0.051-0.02-0.077-0.031l-0.417-0.168V58.93h14.601    c4.143,0,7.5-3.358,7.5-7.5s-3.357-7.5-7.5-7.5h-14.601v-6.403L314.728,16.218z M233.399,33.354h9.391    c2.155,0,3.908,1.753,3.908,3.908v28.336c0,2.155-1.753,3.908-3.908,3.908h-9.391c-2.155,0-3.908-1.753-3.908-3.908V37.262    C229.492,35.107,231.245,33.354,233.399,33.354z M98.769,104.08V65.4c0-3.567,2.907-6.47,6.48-6.47h18.17v12.14    c0,10.575,5.23,20.421,13.99,26.34c5.335,3.604,11.534,5.45,17.781,5.45c4.007,0,8.034-0.759,11.865-2.301l42.384-17.031v27.022    h-104.19C101.676,110.55,98.769,107.648,98.769,104.08z M254.562,247.228c-7.63-2.332-15.814-1.799-23.035,1.494l-7.088,3.22    V125.553h27.31V228.84c0,4.142,3.358,7.5,7.5,7.5c4.143,0,7.5-3.358,7.5-7.5V125.553h63.201v34.298H314    c-10.704,0-19.413,8.709-19.413,19.414v94.263c0,10.705,8.709,19.414,19.413,19.414h42.579v4.66c0,4.108-3.342,7.45-7.45,7.45    h-85.465c12.602-8.816,17.571-25.662,10.993-40.152C270.803,256.416,263.484,249.977,254.562,247.228z"/>
	</g>
</g>















</svg>
