<?xml version="1.0" encoding="iso-8859-1"?>
<!-- Generator: Adobe Illustrator 19.0.0, SVG Export Plug-In . SVG Version: 6.00 Build 0)  -->
<svg xmlns="http://www.w3.org/2000/svg" xmlns:xlink="http://www.w3.org/1999/xlink" version="1.1" id="Capa_1" x="0px" y="0px" viewBox="0 0 512.004 512.004" style="enable-background:new 0 0 512.004 512.004;" xml:space="preserve" width="512" height="512">
<g>
	<g>
		<path style="fill:#FFCCAA;" d="M77.979,275.278l-2.743-0.999c-11.135-4.053-19.609-13.26-22.726-24.693l-13.051-47.871    c-0.899-3.299-0.754-6.795,0.415-10.008l19.522-53.637c4.641-12.75,18.739-19.324,31.489-14.683l0.557,0.203l11.766-32.328    c3.689-10.136,14.896-15.362,25.032-11.673l0,0c10.136,3.689,15.362,14.896,11.673,25.032l1.643-4.513    c3.689-10.136,14.896-15.362,25.032-11.673l0,0c10.136,3.689,15.362,14.896,11.673,25.032l-4.599,12.636    c3.689-10.136,14.896-15.362,25.032-11.673l0,0c10.136,3.689,15.362,14.896,11.673,25.032l-3.942,10.831    c3.689-10.136,14.896-15.362,25.032-11.673l0,0c10.136,3.689,15.362,14.896,11.673,25.032l-2.193,6.025l-12.043,33.087    l-35.801,98.362c-2.849,7.827-11.503,11.862-19.33,9.014c-2.952-1.075-6.217,0.448-7.291,3.4l-43.7,120.066l-90.437-32.916    L77.979,275.278z"/>
		<path style="fill:#F2A077;" d="M231.455,138.621L231.455,138.621c-3.793-1.381-7.735-1.512-11.378-0.605    c3.075,4.853,3.853,11.467,1.544,17.81l-2.193,6.025l-12.042,33.087l-35.801,98.362c-2.849,7.827-10.703,12.153-17.542,9.664    c-2.58-0.939-5.542,0.693-6.617,3.645l-43.701,120.066l-71.393-25.985l0,0l90.437,32.916l43.7-120.066    c1.075-2.952,4.339-4.474,7.291-3.4c7.827,2.849,16.481-1.187,19.33-9.014l35.801-98.362l12.042-33.087l2.193-6.025    C246.817,153.517,241.591,142.31,231.455,138.621z"/>
		<g>
			<path style="fill:#2BB4F3;" d="M144.531,388.761L44.489,352.349c-4.502-1.639-6.824-6.617-5.185-11.119l7.839-21.539     c1.639-4.502,6.617-6.824,11.119-5.185l100.042,36.412c4.502,1.639,6.824,6.617,5.185,11.119l-7.839,21.539     C154.011,388.079,149.033,390.4,144.531,388.761z"/>
			
				<rect x="63.11" y="315.774" transform="matrix(0.5703 0.8214 -0.8214 0.5703 309.9826 88.2826)" style="fill:#EBEAE6;" width="15.001" height="49.301"/>
			
				<rect x="94.542" y="327.215" transform="matrix(0.5703 0.8214 -0.8214 0.5703 332.8871 67.3789)" style="fill:#EBEAE6;" width="15.001" height="49.301"/>
			
				<rect x="125.974" y="338.655" transform="matrix(0.5703 0.8214 -0.8214 0.5703 355.7917 46.4753)" style="fill:#EBEAE6;" width="15.001" height="49.301"/>
		</g>
	</g>
	<g>
		<path style="fill:#FFCCAA;" d="M434.025,275.278l2.743-0.999c11.135-4.053,19.609-13.26,22.726-24.693l13.051-47.871    c0.899-3.299,0.754-6.795-0.415-10.008l-19.522-53.637c-4.641-12.75-18.739-19.324-31.489-14.683l-0.557,0.203l-11.766-32.328    C405.108,81.126,393.9,75.9,383.765,79.589l0,0c-10.136,3.689-15.362,14.896-11.673,25.032l-1.643-4.513    c-3.689-10.136-14.896-15.362-25.032-11.673l0,0c-10.136,3.689-15.362,14.896-11.673,25.032l4.599,12.636    c-3.689-10.136-14.896-15.362-25.032-11.673l0,0c-10.136,3.689-15.362,14.896-11.673,25.032l3.942,10.831    c-3.689-10.136-14.896-15.362-25.032-11.673l0,0c-10.136,3.689-15.362,14.896-11.673,25.032l2.193,6.025l12.043,33.087    l35.801,98.362c2.849,7.827,11.503,11.862,19.33,9.014c2.952-1.075,6.217,0.448,7.291,3.4l43.7,120.066l90.437-32.916    L434.025,275.278z"/>
		<path style="fill:#F2A077;" d="M434.025,275.278l2.743-0.999c11.135-4.053,19.609-13.26,22.726-24.693l13.051-47.871    c0.899-3.299,0.754-6.795-0.415-10.008l-19.522-53.637c-4.641-12.75-18.739-19.324-31.489-14.683l-0.557,0.203l26.421,68.799    c1.17,3.213,1.444,6.663,0.785,9.874l-9.557,46.599c-2.283,11.129-9.4,19.843-19.09,23.369c-1.318,0.48-1.995,1.938-1.513,3.254    l47.782,130.402l14.279-5.197L434.025,275.278z"/>
		<g>
			<path style="fill:#FF5A59;" d="M367.473,388.761l100.042-36.412c4.502-1.639,6.824-6.617,5.185-11.119l-7.839-21.539     c-1.639-4.502-6.617-6.824-11.119-5.185L353.7,350.918c-4.502,1.639-6.824,6.617-5.185,11.119l7.839,21.539     C357.993,388.079,362.971,390.4,367.473,388.761z"/>
			
				<rect x="416.744" y="332.924" transform="matrix(0.8214 0.5703 -0.5703 0.8214 272.9748 -190.944)" style="fill:#EBEAE6;" width="49.301" height="15.001"/>
			
				<rect x="385.312" y="344.365" transform="matrix(0.8214 0.5703 -0.5703 0.8214 273.8864 -170.9745)" style="fill:#EBEAE6;" width="49.301" height="15.001"/>
			
				<rect x="353.879" y="355.805" transform="matrix(0.8214 0.5703 -0.5703 0.8214 274.798 -151.0051)" style="fill:#EBEAE6;" width="49.301" height="15.001"/>
		</g>
	</g>
	<g>
		<path d="M234.019,131.58c-4.902-1.786-10.093-2.113-15.067-1.008c-0.859-10.424-7.754-19.572-17.694-23.183    c-4.659-1.695-9.579-2.077-14.321-1.162c-0.236-11.09-7.323-21.024-17.787-24.837c-8.394-3.058-17.339-1.679-24.26,2.936    c-3.12-5.335-8.037-9.583-14.083-11.787c-6.786-2.469-14.129-2.148-20.673,0.905c-6.546,3.055-11.508,8.476-13.969,15.257    l-5.404,14.839c-0.008,0.02-0.017,0.038-0.025,0.059l-4.031,11.076c-6.015-0.814-12.145,0.108-17.777,2.733    c-7.765,3.619-13.654,10.045-16.583,18.095l-19.519,53.636c-1.709,4.689-1.917,9.722-0.6,14.552l13.049,47.865    c3.341,12.28,11.854,22.463,23.175,27.98l-9.935,27.289c-3.378-0.694-6.873-0.308-10.056,1.175    c-3.916,1.826-6.886,5.068-8.364,9.128l-1.354,3.721l-28.674-10.436c-3.893-1.415-8.196,0.591-9.613,4.482    c-1.417,3.893,0.59,8.196,4.483,9.613l28.674,10.436l-1.355,3.722c-0.461,1.268-0.734,2.556-0.869,3.841L6.888,353.931    c-3.754,1.75-5.378,6.212-3.628,9.967c1.272,2.729,3.978,4.332,6.802,4.332c1.061,0,2.14-0.227,3.165-0.705l23.715-11.059    c0.852,0.732,1.789,1.379,2.804,1.93l-14.461,39.726c-1.417,3.893,0.59,8.196,4.482,9.613c0.847,0.308,1.713,0.454,2.565,0.454    c3.063,0,5.939-1.891,7.048-4.937l14.394-39.541l76.346,27.788l-14.394,39.542c-1.417,3.893,0.59,8.196,4.482,9.613    c0.847,0.308,1.713,0.454,2.565,0.454c3.063,0,5.939-1.891,7.048-4.937l14.46-39.722c1.068,0.218,2.14,0.337,3.202,0.337    c6.609,0,12.828-4.084,15.216-10.645l7.839-21.539c2.772-7.617-0.57-15.977-7.491-19.731l9.878-27.135    c5.171,1.435,10.625,0.986,15.539-1.303c5.466-2.548,9.613-7.074,11.677-12.743l14.53-39.92c1.417-3.893-0.589-8.196-4.482-9.613    c-3.891-1.414-8.196,0.589-9.613,4.482l-14.531,39.921c-1.429,3.926-5.787,5.958-9.724,4.525c-3.307-1.2-6.885-1.043-10.075,0.443    c-3.199,1.49-5.622,4.136-6.82,7.44l-10.406,28.587l-76.342-27.786l12.353-33.93c0.681-1.869,0.591-3.933-0.25-5.735    c-0.841-1.804-2.364-3.198-4.234-3.879l-2.749-0.999c-8.834-3.215-15.581-10.546-18.049-19.615l-13.05-47.869    c-0.496-1.82-0.42-3.712,0.222-5.474l19.52-53.64c1.559-4.282,4.692-7.702,8.824-9.628c1.937-0.903,3.986-1.411,6.061-1.55    l-17.067,46.89c-1.417,3.893,0.59,8.196,4.483,9.613c0.847,0.309,1.712,0.454,2.564,0.454c3.063,0,5.94-1.892,7.048-4.937    l21.051-57.838l10.856-29.81c1.096-3.02,3.302-5.431,6.214-6.789c2.912-1.358,6.18-1.502,9.197-0.403    c4.736,1.726,7.918,6.272,7.918,11.313c0,1.396-0.246,2.785-0.732,4.127c-1.409,3.895,0.604,8.193,4.497,9.604    c3.893,1.409,8.194-0.602,9.605-4.494l0.002-0.005c0-0.002,0.001-0.003,0.001-0.004l1.633-4.501c1.1-3.019,3.31-5.429,6.223-6.788    c2.914-1.357,6.179-1.501,9.192-0.402c4.742,1.728,7.928,6.274,7.928,11.313c0,1.396-0.245,2.777-0.728,4.105l-4.59,12.612    c-0.003,0.009-0.006,0.018-0.01,0.027c-1.417,3.893,0.591,8.196,4.483,9.612c3.893,1.419,8.196-0.591,9.613-4.483l0.009-0.023    c1.102-3.01,3.306-5.412,6.208-6.765c2.911-1.357,6.177-1.5,9.205-0.396c4.731,1.718,7.91,6.255,7.91,11.29    c0,1.403-0.246,2.795-0.729,4.126l-3.94,10.83c-1.416,3.893,0.592,8.196,4.484,9.612c3.893,1.414,8.195-0.591,9.612-4.483    l0.007-0.019c1.101-3.012,3.307-5.415,6.213-6.77c2.913-1.357,6.178-1.498,9.204-0.397c4.736,1.719,7.918,6.264,7.918,11.311    c0,1.396-0.245,2.777-0.725,4.096l-24.874,68.33c-1.417,3.892,0.59,8.195,4.483,9.612c3.892,1.414,8.196-0.591,9.613-4.483    l24.871-68.321c1.083-2.977,1.632-6.084,1.632-9.233C251.812,145.651,244.658,135.44,234.019,131.58z M156.442,359.474    l-7.839,21.538c-0.221,0.609-0.896,0.923-1.506,0.703h0l-95.215-34.656c-0.008-0.003-0.015-0.007-0.023-0.01    c-0.008-0.003-0.016-0.004-0.024-0.007l-4.78-1.74c-0.609-0.222-0.924-0.897-0.702-1.506l3.919-10.767    c0-0.001,0.001-0.002,0.001-0.003c0.001-0.001,0.001-0.003,0.001-0.004l3.918-10.765c0.138-0.378,0.406-0.569,0.608-0.663    c0.201-0.093,0.52-0.177,0.898-0.039l4.741,1.726c0.02,0.007,0.038,0.017,0.058,0.024c0.023,0.008,0.046,0.013,0.068,0.021    l95.175,34.641C156.348,358.189,156.663,358.865,156.442,359.474z"/>
		<path d="M511.55,314.895c-1.417-3.893-5.723-5.897-9.613-4.482l-28.674,10.436l-1.354-3.72c-1.478-4.061-4.448-7.303-8.364-9.129    c-3.183-1.484-6.679-1.87-10.056-1.176l-9.935-27.288c11.32-5.518,19.833-15.7,23.174-27.977l13.05-47.869    c1.317-4.83,1.11-9.862-0.598-14.548l-19.52-53.64c-2.929-8.05-8.818-14.476-16.583-18.095c-5.64-2.629-11.777-3.546-17.779-2.738    l-4.03-11.071c-0.007-0.021-0.018-0.039-0.025-0.06l-5.401-14.83c-2.464-6.789-7.426-12.21-13.972-15.265    c-6.543-3.054-13.886-3.373-20.678-0.904c-6.042,2.203-10.959,6.451-14.078,11.784c-6.921-4.613-15.868-5.99-24.261-2.934    c-10.463,3.813-17.55,13.746-17.786,24.836c-4.741-0.913-9.662-0.532-14.316,1.161c-9.945,3.612-16.84,12.761-17.699,23.185    c-4.973-1.106-10.162-0.778-15.059,1.005c-10.648,3.863-17.802,14.074-17.802,25.41c0,3.149,0.549,6.257,1.636,9.244l2.705,7.429    c1.399,3.898,5.691,5.926,9.592,4.526c3.898-1.399,5.925-5.694,4.526-9.593l-2.73-7.5c-0.483-1.329-0.729-2.711-0.729-4.106    c0-5.047,3.182-9.592,7.926-11.313c3.018-1.099,6.283-0.958,9.196,0.4c2.906,1.354,5.112,3.758,6.213,6.77l0.007,0.019    c1.417,3.892,5.72,5.899,9.612,4.483c3.892-1.416,5.9-5.72,4.484-9.612l-3.937-10.819c-0.486-1.342-0.732-2.733-0.732-4.137    c0-5.035,3.179-9.572,7.915-11.292c3.022-1.099,6.29-0.959,9.2,0.398c2.902,1.353,5.106,3.755,6.208,6.765l0.009,0.023    c1.417,3.893,5.72,5.896,9.613,4.483c3.892-1.416,5.899-5.72,4.483-9.612c-0.003-0.01-0.006-0.019-0.01-0.027l-4.589-12.611    c-0.483-1.329-0.729-2.711-0.729-4.106c0-5.039,3.186-9.586,7.927-11.313c3.016-1.099,6.279-0.955,9.193,0.402    c2.913,1.359,5.124,3.77,6.22,6.778l1.636,4.511c0,0.001,0.001,0.002,0.001,0.004l0.002,0.005    c1.413,3.894,5.711,5.904,9.605,4.494c3.893-1.411,5.906-5.71,4.497-9.604c-0.486-1.342-0.732-2.73-0.732-4.127    c0-5.041,3.182-9.588,7.914-11.313c3.022-1.099,6.29-0.956,9.202,0.402c2.912,1.358,5.118,3.77,6.217,6.797l10.842,29.771    l21.063,57.87c1.109,3.045,3.985,4.937,7.048,4.937c0.852,0,1.718-0.146,2.564-0.454c3.893-1.417,5.899-5.721,4.483-9.613    l-17.068-46.894c2.073,0.141,4.123,0.65,6.063,1.554c4.132,1.926,7.266,5.346,8.824,9.628l19.521,53.644    c0.641,1.758,0.717,3.649,0.221,5.47l-13.051,47.873c-2.467,9.065-9.214,16.396-18.046,19.61l-2.75,1    c-1.87,0.681-3.393,2.075-4.234,3.879c-0.841,1.803-0.931,3.866-0.25,5.735l12.353,33.93l-76.342,27.786l-10.403-28.578    c-1.202-3.313-3.625-5.959-6.824-7.449c-3.189-1.487-6.769-1.644-10.082-0.441c-3.928,1.429-8.289-0.601-9.717-4.528    l-36.938-101.493c-1.413-3.894-5.715-5.906-9.608-4.491c-3.894,1.412-5.905,5.715-4.492,9.608l36.942,101.506    c4.05,11.128,15.995,17.146,27.215,14.047l9.878,27.135c-6.921,3.754-10.263,12.115-7.491,19.732l7.839,21.538    c2.389,6.562,8.607,10.645,15.216,10.645c1.062,0,2.134-0.119,3.202-0.337l14.46,39.722c1.41,3.874,5.699,5.904,9.613,4.482    c3.892-1.417,5.899-5.721,4.482-9.613l-14.394-39.542l76.346-27.788l14.394,39.542c1.108,3.046,3.984,4.937,7.048,4.937    c5.177,0,8.833-5.161,7.047-10.067l-14.461-39.726c1.015-0.551,1.951-1.198,2.804-1.93l23.716,11.059    c1.025,0.479,2.103,0.705,3.165,0.705c2.825,0,5.53-1.604,6.802-4.332c1.75-3.755,0.126-8.217-3.628-9.967l-24.499-11.424    c-0.135-1.285-0.407-2.574-0.869-3.842l-1.355-3.721l28.673-10.436C510.96,323.091,512.966,318.788,511.55,314.895z     M363.402,381.012l-7.839-21.537c-0.222-0.61,0.093-1.286,0.702-1.508l95.179-34.642c0.022-0.008,0.044-0.013,0.065-0.021    c0.019-0.007,0.036-0.016,0.055-0.023l4.744-1.727c0.144-0.053,0.279-0.073,0.403-0.073c0.201,0,0.371,0.055,0.495,0.112    c0.202,0.094,0.47,0.285,0.608,0.664l3.918,10.764c0.001,0.001,0.001,0.003,0.001,0.004c0,0.001,0.001,0.002,0.001,0.003    l3.919,10.766c0.222,0.609-0.093,1.285-0.703,1.507l-4.782,1.74c-0.007,0.003-0.014,0.004-0.021,0.007s-0.014,0.006-0.021,0.009    l-95.218,34.657C364.296,381.935,363.623,381.622,363.402,381.012z"/>
	</g>
</g>















</svg>
