<?xml version="1.0" encoding="iso-8859-1"?>
<!-- Generator: Adobe Illustrator 19.0.0, SVG Export Plug-In . SVG Version: 6.00 Build 0)  -->
<svg xmlns="http://www.w3.org/2000/svg" xmlns:xlink="http://www.w3.org/1999/xlink" version="1.1" id="Capa_1" x="0px" y="0px" viewBox="0 0 512.001 512.001" style="enable-background:new 0 0 512.001 512.001;" xml:space="preserve" width="512" height="512">
<g>
	<path style="fill:#F9DC6A;" d="M76.557,85.144v105.913h235.583V75.871c0-23.304-18.891-42.195-42.195-42.195h-17.131l-1.297-2.67   C244.536,16.628,229.957,7.5,213.974,7.5h-59.773C111.319,7.5,76.557,42.262,76.557,85.144z"/>
	<path style="fill:#E5AC51;" d="M269.945,33.676h-17.131l-1.297-2.67C244.536,16.628,229.957,7.5,213.974,7.5h-22.487   c15.983,0,30.562,9.128,37.543,23.505l1.297,2.67h17.131c23.304,0,42.195,18.891,42.195,42.195v115.186h22.487V75.871   C312.139,52.567,293.248,33.676,269.945,33.676z"/>
	<path style="fill:#2BB4F3;" d="M321.825,478.635H66.871c-1.966,0-3.494-1.714-3.268-3.667l9.5-82.172   c4.347-37.608,36.192-65.978,74.057-65.978h94.376c37.865,0,69.71,28.37,74.057,65.978l9.5,82.172   C325.318,476.921,323.791,478.635,321.825,478.635z"/>
	<path style="fill:#1687C4;" d="M325.093,474.968l-9.5-82.172c-4.347-37.608-36.192-65.978-74.057-65.978h-29.463   c37.865,0,69.71,28.37,74.057,65.978l9.5,82.172c0.226,1.953-1.301,3.667-3.268,3.667h29.463   C323.791,478.635,325.318,476.921,325.093,474.968z"/>
	<path style="fill:#F2A077;" d="M160.05,269.621v69.134c0,18.942,15.356,34.298,34.298,34.298h0   c18.942,0,34.298-15.356,34.298-34.298v-69.134H160.05z"/>
	<path style="fill:#FFCCAA;" d="M327.976,187.073v10.098c0,11.788-9.556,21.343-21.343,21.343h-21.021   c-1.248,24.122-11.84,45.788-28.24,61.413c-16.4,15.615-38.589,25.199-63.023,25.199c-48.868,0-88.776-38.347-91.263-86.612H82.064   c-11.788,0-21.343-9.556-21.343-21.343v-10.098c0-11.788,9.556-21.343,21.343-21.343h20.89v-38.156h76.726   c36.501,0,66.832-26.389,72.944-61.136c0.531-3.016,4.128-4.261,6.399-2.207c16.412,14.845,26.72,36.313,26.72,60.191v41.308h20.89   C318.42,165.73,327.976,175.286,327.976,187.073z"/>
	<path style="fill:#F2A077;" d="M306.632,165.73h-20.89v-41.307c0-23.878-10.308-45.346-26.72-60.191   c-2.271-2.054-5.868-0.809-6.399,2.207c-0.889,5.053-2.304,9.921-4.162,14.565c7.967,12.555,12.585,27.446,12.585,43.419v41.307   l-0.131,52.785c-1.249,24.122-11.84,45.788-28.24,61.413c-13.588,12.937-31.155,21.715-50.675,24.351   c4.04,0.546,8.158,0.848,12.347,0.848c24.434,0,46.623-9.584,63.023-25.199c16.4-15.625,26.991-37.29,28.24-61.413h21.021   c11.788,0,21.343-9.556,21.343-21.343v-10.098C327.976,175.285,318.42,165.73,306.632,165.73z"/>
	<g>
		
			<rect x="369.027" y="405.75" transform="matrix(-0.5 -0.866 0.866 -0.5 224.163 968.8924)" style="fill:#EBEAE6;" width="45.499" height="27.971"/>
		
			<rect x="403.485" y="458.607" transform="matrix(0.5 0.866 -0.866 0.5 625.4041 -129.4206)" style="fill:#8BA7BC;" width="42.597" height="36.597"/>
		
			<rect x="394.209" y="474.673" transform="matrix(0.5 0.866 -0.866 0.5 625.4041 -118.7096)" style="fill:#718A9E;" width="42.597" height="15.175"/>
		<path style="fill:#D2F5FF;" d="M435.993,439.368l-5.377-9.314c-1.548-2.681-4.976-3.6-7.657-2.052l-39.614,22.871    c-2.681,1.548-3.6,4.976-2.052,7.657l5.377,9.314c1.548,2.681,4.976,3.6,7.657,2.052l39.614-22.871    C436.622,445.477,437.541,442.049,435.993,439.368z"/>
		<path style="fill:#9CC9D3;" d="M383.344,450.873l15.847-9.149c-2.681,1.548-3.6,4.976-2.052,7.657l5.377,9.314    c1.548,2.681,4.976,3.6,7.657,2.052l-15.847,9.149c-2.681,1.548-6.109,0.629-7.657-2.052l-5.377-9.314    C379.745,455.849,380.663,452.421,383.344,450.873z"/>
		<circle style="fill:#75DC5E;" cx="351.287" cy="349.606" r="84.244"/>
		<circle style="fill:#D2F5FF;" cx="351.287" cy="349.606" r="61.584"/>
	</g>
	<g>
		<path d="M330.651,457.702c-0.475-4.116-4.2-7.067-8.31-6.593c-4.114,0.474-7.066,4.194-6.593,8.309l1.351,11.722h-32.849v-38.414    c0-4.142-3.357-7.5-7.5-7.5s-7.5,3.358-7.5,7.5v38.414H119.444v-57.81c0-4.142-3.357-7.5-7.5-7.5s-7.5,3.358-7.5,7.5v57.81H71.593    l8.957-77.479c3.913-33.831,32.55-59.342,66.61-59.342h5.39v4.43c0,23.048,18.751,41.8,41.8,41.8    c11.168,0,21.664-4.346,29.554-12.237c7.897-7.898,12.247-18.397,12.247-29.563v-4.43h5.39c0.672,0,1.342,0.009,2.005,0.027    c0.069,0.002,0.14,0.003,0.209,0.003c4.047,0,7.382-3.224,7.493-7.294c0.113-4.141-3.151-7.589-7.292-7.703    c-0.798-0.022-1.606-0.033-2.415-0.033h-5.39v-15.945c9.609-4.486,18.527-10.528,26.395-18.018    c16.659-15.873,27.133-36.729,29.933-59.343h14.155c15.904,0,28.843-12.939,28.843-28.843v-10.098    c0-11.226-6.45-20.968-15.836-25.731V75.87c0-27.399-22.295-49.69-49.699-49.69h-12.463C249.006,10.221,232.118,0,213.97,0H154.2    c-16.253,0-32.05,4.594-45.683,13.286c-3.492,2.227-4.519,6.863-2.292,10.356c2.228,3.494,6.863,4.519,10.356,2.292    C127.801,18.781,140.81,15,154.2,15h59.77c13.025,0,25.116,7.57,30.797,19.272l1.29,2.67c1.251,2.591,3.875,4.238,6.753,4.238    h17.131c19.133,0,34.699,15.562,34.699,34.69v82.36h-11.397v-33.808c0-25.008-10.639-48.975-29.188-65.753    c-3.071-2.78-7.406-3.672-11.313-2.332c-3.911,1.343-6.786,4.716-7.505,8.802c-5.599,31.829-33.166,54.932-65.55,54.935    c-0.002,0-0.005,0-0.007,0H91.326c-3.511,0-6.45,2.416-7.267,5.673V85.14c0-15.092,4.712-29.459,13.627-41.549    c2.458-3.333,1.749-8.029-1.585-10.487c-3.334-2.458-8.029-1.749-10.487,1.585C74.784,49.375,69.06,66.821,69.06,85.14v76.2    c-9.387,4.763-15.84,14.506-15.84,25.733v10.098c0,15.904,12.939,28.843,28.844,28.843h14.152    c4.262,34.533,26.21,63.305,56.334,77.356v15.95h-5.39c-41.68,0-76.722,31.219-81.511,72.619l-9.503,82.192    c-0.344,3.053,0.633,6.119,2.681,8.41c2.045,2.288,4.976,3.6,8.043,3.6h254.95c3.08,0,6.021-1.321,8.068-3.624    c2.045-2.301,3.011-5.372,2.652-8.404L330.651,457.702z M91.326,135.073h4.128v23.157H84.06V129.4    C84.877,132.657,87.815,135.073,91.326,135.073z M110.575,218.128c-0.205-3.987-3.498-7.114-7.49-7.114H82.064    c-7.634,0-13.844-6.21-13.844-13.843v-10.098c0-7.633,6.21-13.843,13.844-13.843h20.891c4.143,0,7.5-3.358,7.5-7.5v-30.656h69.226    c37.416,0,69.586-25.173,78.894-60.755c12.568,13.555,19.669,31.482,19.669,50.104v41.308c0,4.142,3.357,7.5,7.5,7.5h20.891    c7.633,0,13.843,6.21,13.843,13.843v10.098c0,7.633-6.21,13.843-13.843,13.843h-21.021c-3.991,0-7.283,3.126-7.49,7.112    c-1.112,21.484-10.318,41.503-25.922,56.369c-7.766,7.395-16.734,13.137-26.438,17.053c-0.022,0.009-0.044,0.019-0.066,0.028    c-9.852,3.966-20.461,6.05-31.348,6.05c-11.066,0-21.646-2.148-31.34-6.048c-0.094-0.041-0.192-0.073-0.288-0.11    C133.421,279.555,112.297,251.557,110.575,218.128z M194.348,312.626c9.172,0,18.171-1.272,26.803-3.693v29.817    c0,7.16-2.789,13.892-7.854,18.957c-5.057,5.058-11.785,7.843-18.946,7.843c-14.777,0-26.8-12.022-26.8-26.8v-29.803    C176.081,311.34,185.068,312.626,194.348,312.626z"/>
		<path d="M162.869,238.739c8.424,8.402,19.603,13.029,31.479,13.029c18.217,0,34.408-10.897,41.249-27.761    c1.557-3.838-0.293-8.212-4.131-9.77c-3.842-1.556-8.212,0.293-9.77,4.131c-4.533,11.177-15.269,18.399-27.349,18.399    c-7.876,0-15.294-3.072-20.878-8.642c-2.817-2.818-4.992-6.097-6.465-9.746c-1.551-3.84-5.921-5.7-9.762-4.148    c-3.842,1.55-5.698,5.921-4.148,9.762C155.326,229.523,158.612,234.481,162.869,238.739z"/>
		<path d="M156.096,171.646v-4.415c0-4.142-3.357-7.5-7.5-7.5s-7.5,3.358-7.5,7.5v4.415c0,4.142,3.357,7.5,7.5,7.5    S156.096,175.788,156.096,171.646z"/>
		<path d="M240.101,179.146c4.143,0,7.5-3.358,7.5-7.5v-4.415c0-4.142-3.357-7.5-7.5-7.5s-7.5,3.358-7.5,7.5v4.415    C232.601,175.788,235.958,179.146,240.101,179.146z"/>
		<path d="M457.776,482.451l-17.719-30.691c4.372-4.066,5.542-10.757,2.432-16.143c0,0,0,0,0,0l-5.378-9.314    c-3.613-6.256-11.642-8.409-17.902-4.796l-1.199,0.692l-3.507-6.076c14.655-13.882,24.389-32.303,27.501-52.798    c0.622-4.095-2.194-7.919-6.289-8.541c-4.096-0.623-7.92,2.193-8.541,6.289c-2.881,18.97-12.535,35.817-27.047,47.746    c-0.056,0.047-0.117,0.09-0.172,0.138c-3.204,2.618-6.64,5.001-10.294,7.111c-36.648,21.158-83.676,8.557-104.835-28.09    c-10.249-17.752-12.972-38.434-7.666-58.234c5.305-19.801,18.004-36.35,35.757-46.6c17.752-10.25,38.434-12.973,58.234-7.667    s36.35,18.004,46.6,35.757c3.935,6.814,6.787,14.123,8.478,21.724c0.9,4.043,4.91,6.592,8.95,5.692    c4.043-0.899,6.592-4.906,5.692-8.95c-2.023-9.092-5.432-17.829-10.13-25.966c-12.253-21.223-32.037-36.403-55.708-42.746    c-23.666-6.342-48.394-3.088-69.616,9.166c-21.223,12.252-36.403,32.037-42.746,55.708c-6.343,23.67-3.088,48.394,9.165,69.617    c16.975,29.4,47.874,45.855,79.607,45.854c8.638,0,17.338-1.225,25.836-3.735l3.517,6.089l-1.198,0.692    c-3.032,1.75-5.201,4.577-6.107,7.958c-0.906,3.381-0.44,6.913,1.31,9.944l5.377,9.314c1.75,3.032,4.576,5.2,7.958,6.106    c1.129,0.302,2.274,0.452,3.413,0.452c1.297,0,2.579-0.217,3.821-0.601l17.724,30.698c1.39,2.406,3.91,3.751,6.502,3.751    c1.272,0,2.563-0.324,3.743-1.006c3.587-2.071,4.816-6.658,2.745-10.245l-17.549-30.395l9.352-5.399l9.352-5.399l17.549,30.395    c2.071,3.587,6.66,4.817,10.245,2.745C458.617,490.625,459.847,486.038,457.776,482.451z M391.426,432.101    c1.931-0.941,3.844-1.953,5.733-3.043c1.884-1.088,3.714-2.242,5.5-3.446l2.359,4.088l-11.233,6.486L391.426,432.101z     M425.068,435.444l3.483,6.033l-2.316,1.337c-0.001,0-0.002,0.001-0.003,0.001l-15.847,9.149l-18.167,10.488l-3.482-6.032    L425.068,435.444z"/>
		<path d="M378.329,396.444c-25.825,14.91-58.969,6.031-73.879-19.793c-0.203-0.352-0.401-0.705-0.596-1.059    c-1.993-3.631-6.552-4.958-10.184-2.967c-3.631,1.993-4.959,6.552-2.967,10.184c0.245,0.447,0.496,0.892,0.754,1.339    c12.782,22.139,36.05,34.529,59.945,34.529c11.711,0,23.575-2.978,34.426-9.242c32.989-19.047,44.332-61.381,25.286-94.371    c-9.227-15.981-24.124-27.412-41.948-32.188c-17.822-4.776-36.441-2.325-52.422,6.901c-21.317,12.307-34.558,35.259-34.553,59.899    c0.001,4.142,3.359,7.5,7.501,7.499c4.143-0.001,7.5-3.359,7.499-7.501c-0.004-19.296,10.362-37.27,27.053-46.906    c25.823-14.909,58.968-6.031,73.88,19.796C413.036,348.39,404.155,381.533,378.329,396.444z"/>
	</g>
</g>















</svg>
