<?xml version="1.0" encoding="iso-8859-1"?>
<!-- Generator: Adobe Illustrator 19.0.0, SVG Export Plug-In . SVG Version: 6.00 Build 0)  -->
<svg xmlns="http://www.w3.org/2000/svg" xmlns:xlink="http://www.w3.org/1999/xlink" version="1.1" id="Capa_1" x="0px" y="0px" viewBox="0 0 512 512" style="enable-background:new 0 0 512 512;" xml:space="preserve" width="512" height="512">
<g>
	<path style="fill:#F9DC6A;" d="M498.004,185.381c4.769-2.661,7.317-8.092,6.258-13.45c-13.764-69.638-75.175-122.13-148.856-122.13   H156.594c-73.681,0-135.092,52.493-148.856,122.13c-1.059,5.358,1.489,10.788,6.258,13.45l58.303,32.535   c5.833,3.255,13.191,1.41,16.798-4.212l33.25-51.818v285.745c0,8.046,6.522,14.568,14.568,14.568h238.171   c8.046,0,14.568-6.522,14.568-14.568V161.886l33.25,51.818c3.607,5.622,10.966,7.467,16.798,4.212L498.004,185.381z"/>
	<path style="fill:#E5AC51;" d="M375.034,148.215c-2.746-4.28-9.38-2.335-9.38,2.751v296.665c0,8.046-6.523,14.568-14.568,14.568h24   c8.046,0,14.568-6.523,14.568-14.568V171L375.034,148.215z"/>
	<path style="fill:#E5AC51;" d="M504.262,171.931c-13.764-69.638-75.175-122.13-148.856-122.13h-24   c73.681,0,135.092,52.492,148.856,122.13c0.618,3.128,0.902,14.143,0.084,23.303l17.658-9.854   C502.774,182.719,505.321,177.289,504.262,171.931z"/>
	<path style="fill:#475D6D;" d="M250.93,113.683c35.281,0,63.882-28.601,63.882-63.882H187.048   C187.048,85.082,215.649,113.683,250.93,113.683z"/>
	<path style="fill:#2BB4F3;" d="M15.106,146.602l85.712,48.838l-11.717,18.269c-3.612,5.619-10.966,7.458-16.806,4.208   L13.993,185.38c-4.765-2.654-7.315-8.092-6.254-13.452C9.461,163.188,11.934,154.72,15.106,146.602z"/>
	<path style="fill:#2BB4F3;" d="M498.007,185.38l-58.302,32.537c-5.839,3.25-13.193,1.411-16.806-4.208l-11.717-18.269   l85.712-48.838c3.172,8.118,5.645,16.586,7.367,25.325C505.323,177.288,502.772,182.726,498.007,185.38z"/>
	<path style="fill:#1687C4;" d="M503.851,178.305c0.668-2.012,0.842-4.199,0.41-6.377c-0.064-0.323-0.135-0.642-0.201-0.964   c-1.35-6.603-3.129-13.048-5.307-19.308c-0.593-1.698-1.207-3.385-1.859-5.053l-20.077,11.44c1.357,4.545,2.514,9.176,3.446,13.889   c0.618,3.128,0.902,14.143,0.084,23.303l17.658-9.854C500.836,183.801,502.875,181.242,503.851,178.305z"/>
	<g>
		<path d="M389.652,380.243c-4.143,0-7.5,3.358-7.5,7.5v59.89c0,3.897-3.171,7.068-7.068,7.068H136.911    c-3.898,0-7.068-3.171-7.068-7.068V161.885c0-3.329-2.195-6.26-5.39-7.197c-3.195-0.936-6.625,0.345-8.422,3.147l-17.687,27.564    l-73.742-42.017c11.104-25.051,29.304-46.866,52.421-62.18c3.453-2.288,4.398-6.941,2.11-10.395    c-2.287-3.453-6.942-4.398-10.395-2.11c-27.289,18.078-48.37,44.37-60.302,74.469c-0.118,0.229-0.226,0.463-0.321,0.705    c-2.345,6.001-7.963,23.481-8.111,30.101c-0.155,7.343,3.722,14.276,10.328,17.956l58.31,32.541    c9.383,5.221,21.116,2.078,26.766-6.712l11.718-18.269c0.007-0.01,0.012-0.022,0.018-0.032l7.697-11.995v260.171    c0,12.169,9.9,22.069,22.069,22.069h238.173c12.169,0,22.069-9.9,22.069-22.069v-59.89    C397.152,383.601,393.795,380.243,389.652,380.243z M90.231,198.041l-7.451,11.612c-0.562,0.875-1.352,1.52-2.243,1.915    c-1.006,0.443-2.14,0.545-3.233,0.296c-0.463-0.106-0.921-0.256-1.355-0.498c-59.931-34.31-60.333-31.732-60.915-36.371    c-0.314-2.503,3.11-14.154,4.163-17.428L90.231,198.041z"/>
		<path d="M511.62,170.476C497.074,96.828,431.849,42.298,355.405,42.298h-40.594H187.045H156.59    c-20.724,0-40.886,3.922-59.927,11.659c-3.837,1.559-5.684,5.934-4.125,9.772c1.559,3.837,5.932,5.685,9.772,4.125    c17.238-7.004,35.501-10.555,54.28-10.555h23.351c3.761,35.848,34.159,63.883,70.987,63.883c36.828,0,67.226-28.035,70.987-63.883    h33.49c57.974,0,109.405,34.771,132.039,86.055l-73.791,42.046l-17.687-27.564c-1.799-2.803-5.232-4.085-8.423-3.147    c-3.195,0.937-5.39,3.868-5.39,7.197v195.858c0,4.142,3.357,7.5,7.5,7.5c4.143,0,7.5-3.358,7.5-7.5V187.461l7.694,11.99    c0.008,0.012,0.014,0.025,0.021,0.037l11.723,18.276c13.154,20.457,29.42,5.183,85.072-25.836    C509.463,187.579,513.271,178.831,511.62,170.476z M250.928,106.181c-28.547,0-52.207-21.326-55.886-48.883h111.772    C303.135,84.855,279.474,106.181,250.928,106.181z M492.823,157.552c0.861,2.708,4.474,14.996,4.125,17.51    c-0.666,4.745-2.169,2.671-60.903,36.304c-2.442,1.363-5.456,0.43-6.83-1.712l-7.451-11.612L492.823,157.552z"/>
	</g>
	<path d="M197.306,215.642c-5.886,0-6.324,12.957,0,12.957h9.908l-3.287,18.038c0,6.587,13.69,6.875,14.553,2.322l3.744-20.361   h13.451l-3.412,17.993c0,6.609,13.826,7.001,14.69,2.302l3.72-20.295c11.985-0.508,13.177,1.244,15.714-1.87   c3.259-4,0.92-11.087-3.43-11.087h-9.908l2.746-14.99h12.408c4.115,0,6.376-7.002,3.238-11.067   c-2.376-3.075-4.056-1.417-13.274-1.89l3.049-15.708c-0.347-8.259-13.635-6.865-14.353-2.701l-3.43,18.409h-13.689l2.846-15.46   c0-8.412-13.454-7.299-14.589-2.836l-3.335,18.297H202.27c-5.897,0-6.436,12.957,0.127,12.957h9.908l-2.729,14.99H197.306z    M227.363,200.652h13.614l-2.842,14.99h-13.527L227.363,200.652z"/>
	<path d="M305.043,251.337v-82.569c0-4.172-7.129-7.117-10.798-4.065l-14.989,11.433c-5.633,3.606-3.058,12.576,2.159,12.576   c3.048,0,3.742-2.246,7.114-5.208v67.834C288.529,258.296,305.043,258.244,305.043,251.337z"/>
	<path d="M189.43,294.707c3.511,0,3.612-7.698,0-7.698c-19.748,0.216-20.387-0.525-22.358,0.708   c-2.022,1.264-0.751,0.03-1.132,37.952c0,3.644,8.83,3.631,8.83,0v-14.604h8.547c3.596,0,3.509-6.792,0-6.792h-8.547v-9.566H189.43   z"/>
	<path d="M223.448,299.122c0-8.075-4.641-12.113-13.924-12.113h-11.717c-0.792,0-1.443,0.264-1.953,0.792   c-1.438,1.492-0.51,0.629-0.764,37.867c0,3.644,8.83,3.631,8.83,0v-13.641h3.736c8.032,14.479,7.21,16.698,10.585,16.698   c3.577,0,6.546-3.804,5.264-5.604l-6.905-12.509C221.164,308.839,223.448,305.009,223.448,299.122z M203.92,305.235v-10.528   c5.507,0.262,10.698-1.425,10.698,5.264C214.618,307.439,207.682,304.587,203.92,305.235z"/>
	<path d="M228.146,289.669v35.999c0,3.633,8.83,3.64,8.83,0v-35.999C236.976,286.109,228.146,286.095,228.146,289.669z"/>
	<path d="M267.087,294.707c0.83,0,1.48-0.377,1.953-1.132c0.471-0.754,0.707-1.679,0.707-2.774c0-1.019-0.227-1.905-0.678-2.66   c-0.453-0.754-1.113-1.132-1.982-1.132h-20.15c-1.057,0-1.962,0.236-2.717,0.708c-0.755,0.472-1.132,1.142-1.132,2.009v35.943   c0,0.868,0.376,1.538,1.132,2.009c0.754,0.472,1.66,0.708,2.717,0.708h20.15c3.596,0,3.52-7.698,0-7.698h-15.169v-9.623h8.491   c0.867,0,1.527-0.339,1.98-1.019s0.68-1.452,0.68-2.321c0-0.943-0.236-1.755-0.709-2.434c-0.471-0.679-1.123-1.019-1.951-1.019   h-8.491v-9.566H267.087z"/>
	<path d="M273.596,289.726v35.943c0,3.648,8.83,3.628,8.83,0v-19.245l10.754,19.584c1.93,3.524,9.34,2.958,9.34-0.339v-35.999   c0-3.57-8.83-3.569-8.83,0v19.245l-9.17-17.49c-1.019-1.962-1.934-3.189-2.745-3.679   C279.575,286.416,273.596,286.65,273.596,289.726z"/>
	<path d="M312.481,328.386H322.5c4.226,0,7.604-1.075,10.132-3.226c2.527-2.151,3.792-5.528,3.792-10.132v-14.66   c0-4.604-1.265-7.981-3.792-10.132c-2.528-2.151-5.906-3.226-10.132-3.226h-10.019c-1.132,0-2.057,0.264-2.773,0.792   c-0.717,0.529-1.075,1.151-1.075,1.868v36.056c0,0.717,0.358,1.34,1.075,1.868C310.425,328.122,311.35,328.386,312.481,328.386z    M317.463,294.707h5.037c3.397,0,5.095,1.887,5.095,5.66v14.66c0,3.773-1.698,5.66-5.095,5.66h-5.037V294.707z"/>
</g>















</svg>
