<?xml version="1.0" encoding="iso-8859-1"?>
<!-- Generator: Adobe Illustrator 19.0.0, SVG Export Plug-In . SVG Version: 6.00 Build 0)  -->
<svg xmlns="http://www.w3.org/2000/svg" xmlns:xlink="http://www.w3.org/1999/xlink" version="1.1" id="Capa_1" x="0px" y="0px" viewBox="0 0 512 512" style="enable-background:new 0 0 512 512;" xml:space="preserve" width="512" height="512">
<g>
	<path style="fill:#EBEAE6;" d="M290.969,492.194c-3.014,1.267-5.897-2.04-4.264-4.872c37.418-64.898-93.287-81.798-26.103-148.786   c41.115-40.99,30.198-71.404,19.942-104.166c34.631-88.042,135.287-98.537,179.73-16.25   C507.494,305.557,457.322,422.26,290.969,492.194z"/>
	<path style="fill:#C9C5B5;" d="M460.274,218.119c-23.252-43.052-61.891-60.691-98.411-55.13   c27.852,4.27,54.517,22.314,72.241,55.13c44.746,82.858,2.017,191.989-144.14,262.706c-0.901,2.113-1.979,4.276-3.259,6.497   c-1.633,2.832,1.25,6.139,4.264,4.873C457.322,422.26,507.494,305.557,460.274,218.119z"/>
	<path style="fill:#EBEAE6;" d="M233.073,494.289c-0.925,1.276-2.611,1.772-4.072,1.183   C56.287,425.954,3.761,306.938,51.726,218.119c44.442-82.287,145.099-71.792,179.73,16.25   c10.256,32.762,21.173,63.177-19.942,104.166C141.986,407.859,284.39,423.541,233.073,494.289z"/>
	<path style="fill:#C9C5B5;" d="M211.513,338.535c41.115-40.99,30.198-71.404,19.942-104.166   c-20.914-53.169-65.907-78.042-108.058-71.292c33.07,5.259,64.327,29.555,80.744,71.292   c10.256,32.762,21.173,63.177-19.942,104.166c-67.24,67.044,63.734,83.918,26.003,148.951c6.107,2.726,12.359,5.395,18.798,7.987   c1.462,0.588,3.147,0.092,4.072-1.183C284.39,423.541,141.986,407.859,211.513,338.535z"/>
	<g>
		<path d="M429.352,128.952L510.499,20.78c2.486-3.313,1.814-8.014-1.499-10.5c-3.313-2.486-8.015-1.815-10.5,1.499l-81.147,108.172    c-2.492,3.322-5.449,6.136-8.739,8.411c-7.027-9.676-18.42-15.984-31.264-15.984c-7.748,0-14.965,2.302-21.019,6.246    L277.239,11.816c-2.465-3.33-7.162-4.029-10.491-1.564c-3.329,2.465-4.029,7.162-1.564,10.491l79.935,107.947    c0.124,0.168,0.259,0.323,0.385,0.489c-4.275,6.218-6.784,13.739-6.784,21.839c0,3.414,0.469,6.805,1.353,10.078    c-9.295,3.616-18.18,8.671-26.395,15.072c-17.263,13.451-31.134,32.626-40.113,55.454c-0.626,1.593-0.689,3.352-0.178,4.986    l0.76,2.423c9.679,30.814,18.038,57.426-18.84,94.191c-41.06,40.94-14.984,68.184,4.056,88.077    c2.865,2.993,7.612,3.096,10.604,0.233c2.992-2.864,3.096-7.612,0.232-10.604c-21.672-22.644-33.474-37.997-4.302-67.084    c43.261-43.129,32.802-76.701,22.607-109.158c8-19.255,19.853-35.358,34.392-46.685c14.131-11.011,30.491-17.367,47.311-18.381    c6.718-0.405,13.338,0.064,19.785,1.329c-3.734,2.367-8.113,3.699-12.643,3.699c-4.142,0-7.5,3.358-7.5,7.5    c0,4.142,3.358,7.5,7.5,7.5c11.302,0,22.027-5.057,29.289-13.484c18.896,8.274,35.39,23.954,47.036,45.517    c18.339,33.959,21.006,71.846,7.713,109.564c-20.852,59.168-78.702,112.085-163.426,149.753    c5.72-15.585,3.468-30.664-6.774-45.824c-2.319-3.433-6.982-4.334-10.413-2.016c-3.432,2.319-4.334,6.981-2.016,10.413    c9.271,13.721,9.704,25.684,1.449,40.001c-2.346,4.069-1.834,9.17,1.274,12.693c2.116,2.399,5.111,3.692,8.173,3.692    c1.42,0,2.854-0.278,4.222-0.853c94.065-39.545,158.58-97.388,181.659-162.875c14.738-41.818,11.743-83.894-8.662-121.678    c-13.024-24.113-31.506-41.818-52.818-51.537c1.257-3.848,1.924-7.892,1.924-11.998c0-3.051-0.366-6.017-1.038-8.866    C420.427,138.753,425.322,134.323,429.352,128.952z M394.094,134.356c-2.203,0.395-4.461,0.603-6.757,0.603    c-0.04,0-0.081,0-0.122,0c-7.05-0.022-13.738-1.966-19.507-5.515c2.946-1.323,6.208-2.066,9.641-2.066    C383.887,127.378,389.812,130.049,394.094,134.356z M400.98,151.018c0,2.344-0.356,4.651-1.025,6.86    c-9.853-2.73-20.14-3.863-30.648-3.231c-5.013,0.302-9.985,1.005-14.885,2.09c-0.463-1.861-0.701-3.784-0.701-5.719    c0-3.99,0.997-7.75,2.749-11.05c8.789,6.414,19.417,9.955,30.701,9.99c0.057,0,0.113,0,0.17,0c4.626,0,9.138-0.608,13.468-1.743    C400.917,149.135,400.98,150.069,400.98,151.018z"/>
		<path d="M327.514,285.246c-1-0.95-2.806-2.424-4.196-2.424c-1.119,0-2.104,0.581-2.953,1.741c-0.85,1.161-1.274,2.321-1.274,3.481    c0,2.073,1.492,3.938,4.476,5.595c2.984,1.658,6.485,2.486,10.505,2.486c4.641,0,8.392-1.19,11.251-3.57    c2.86-2.381,4.29-5.708,4.29-9.981c0-2.445-0.488-4.621-1.461-6.527c-0.974-1.906-2.187-3.388-3.637-4.445    c-2.88-2.097-6.576-3.965-9.511-5.097c-10.936-4.217-2.234-11.414,6.465-7.18c1.616,0.788,2.673,1.181,3.17,1.181    c1.202,0,2.145-0.59,2.829-1.769c1.285-2.217,1.575-4.66-0.373-6.357c-0.933-0.811-2.135-1.397-3.605-1.761    c-1.472-0.363-2.797-0.609-3.979-0.737c-1.181-0.128-2.311-0.192-3.388-0.192c-4.394,0-8.144,1.088-11.251,3.264    c-3.108,2.175-4.663,5.459-4.663,9.853c0,2.694,0.673,5.015,2.021,6.962c1.346,1.948,2.994,3.45,4.942,4.507    c1.947,1.057,3.885,2.01,5.812,2.859c2.853,1.259,6.931,3.33,6.931,6.434C339.916,288.367,331.378,288.928,327.514,285.246z"/>
		<path d="M381.316,250.062h-26.854c-3.954,0-3.862,8.454,0,8.454h8.579v33.982c0,4.03,9.697,4.017,9.697,0v-33.982h8.579    C385.175,258.517,385.27,250.062,381.316,250.062z"/>
		<path d="M294.003,319.921c-0.83,0.519-1.243,1.254-1.243,2.207v39.473c0,0.954,0.414,1.689,1.243,2.207    c0.829,0.519,1.823,0.777,2.984,0.777h22.13c3.933,0,3.876-8.454,0-8.454h-16.66v-10.568h9.324c0.953,0,1.679-0.373,2.176-1.119    c0.498-0.746,0.746-1.595,0.746-2.549c0-1.035-0.259-1.927-0.777-2.673c-0.519-0.746-1.234-1.119-2.145-1.119h-9.324v-10.505    h16.66c3.855,0,3.955-8.454,0-8.454h-22.13C295.827,319.144,294.832,319.404,294.003,319.921z"/>
		<path d="M348.333,322.066v21.136l-10.071-19.208c-1.119-2.154-2.124-3.501-3.015-4.041c-2.56-1.545-8.982-1.113-8.982,2.176    v39.473c0,3.971,9.697,4.003,9.697,0v-21.135l11.811,21.508c2.144,3.918,10.257,3.188,10.257-0.373v-39.536    C358.03,318.155,348.333,318.141,348.333,322.066z"/>
		<path d="M368.97,319.144c-1.243,0-2.259,0.291-3.046,0.87c-0.788,0.581-1.181,1.265-1.181,2.051v39.598    c0,0.788,0.393,1.472,1.181,2.052c0.787,0.581,1.803,0.87,3.046,0.87h11.003c4.641,0,8.35-1.181,11.127-3.543    c2.776-2.362,4.165-6.07,4.165-11.127c-0.691-12.374,2.111-21.886-4.165-27.227c-2.777-2.362-6.486-3.543-11.127-3.543H368.97z     M385.567,333.815v16.1c0,4.145-1.865,6.216-5.594,6.216h-5.533v-28.533h5.533C383.702,327.598,385.567,329.671,385.567,333.815z"/>
		<path d="M414.038,356.753c-4.47,0-6.665-2.899-8.485-4.095c-0.768-0.502-1.461-0.753-2.083-0.753    c-1.119,0-2.104,0.581-2.953,1.741c-0.85,1.161-1.274,2.321-1.274,3.481c0,2.073,1.492,3.938,4.476,5.595    c2.984,1.658,6.485,2.486,10.505,2.486c4.641,0,8.392-1.19,11.251-3.57c2.86-2.381,4.29-5.708,4.29-9.981    c0-4.867-2.178-8.844-5.098-10.972c-2.88-2.097-6.576-3.965-9.511-5.097c-7.992-3.082-5.893-8.361,1.119-8.361    c6.204,0,8.866,4.866,11.345,0.593c2.341-4.038,0.538-7.002-3.978-8.118c-1.472-0.363-2.797-0.609-3.979-0.737    c-1.181-0.128-2.311-0.192-3.388-0.192c-4.394,0-8.144,1.088-11.251,3.264c-3.108,2.175-4.663,5.459-4.663,9.853    c0,11.504,12.146,12.898,17.686,17.157C421.678,351.84,420.502,356.753,414.038,356.753z"/>
		<path d="M216.809,343.845c43.327-43.194,32.77-76.804,22.561-109.307l-0.756-2.411c-0.054-0.17-0.113-0.338-0.178-0.505    c-13.468-34.239-37.454-59.279-66.502-70.542c0.879-3.27,1.347-6.656,1.347-10.061c0-8.1-2.509-15.621-6.784-21.839    c0.126-0.166,0.26-0.322,0.385-0.489l79.935-107.947c2.465-3.329,1.765-8.026-1.564-10.491c-3.329-2.464-8.026-1.765-10.491,1.564    l-79.092,106.808c-6.054-3.944-13.271-6.246-21.019-6.246c-12.844,0-24.237,6.308-31.264,15.984    c-3.289-2.275-6.247-5.09-8.739-8.411L13.5,11.779C11.015,8.466,6.313,7.794,3,10.28c-3.313,2.486-3.985,7.187-1.499,10.5    l81.147,108.172c4.03,5.372,8.925,9.801,14.41,13.201c-0.672,2.849-1.038,5.815-1.038,8.866c0,4.093,0.667,8.132,1.923,11.979    c-0.389,0.176-0.781,0.342-1.167,0.524c-16.985,7.978-31.592,20.635-43.415,37.62c-2.366,3.399-1.529,8.074,1.871,10.44    c3.4,2.366,8.074,1.528,10.44-1.871c19.298-27.723,48.303-43.478,80.599-39.694c0.683,0.08,1.362,0.183,2.041,0.28    c-3.924,2.781-8.669,4.351-13.662,4.351c-4.142,0-7.5,3.358-7.5,7.5c0,4.142,3.358,7.5,7.5,7.5    c12.12,0,23.342-5.653,30.588-15.062c25.66,9.493,47.035,31.673,59.142,62.283l0.679,2.163    c9.679,30.813,18.037,57.425-18.841,94.19c-41.122,41.002-15.065,68.154,5.872,89.972c21.643,22.553,34.215,37.969,16.717,64.103    c-87.626-35.871-149.531-87.826-174.489-146.521c-15.108-35.528-15.971-71.933-2.497-105.28c1.552-3.84-0.303-8.211-4.144-9.763    c-3.84-1.553-8.212,0.303-9.763,4.144c-14.999,37.119-14.1,77.497,2.6,116.769c12.971,30.503,34.866,59.145,65.078,85.131    c32.052,27.569,72.631,51.339,120.609,70.651c1.331,0.536,2.715,0.793,4.083,0.793c3.425,0,6.747-1.616,8.861-4.53    c28.491-39.28,3.693-65.12-16.232-85.884C201.546,390.542,186.108,374.455,216.809,343.845z M134.65,127.378    c3.433,0,6.695,0.742,9.641,2.066c-5.769,3.549-12.458,5.492-19.507,5.515c-0.041,0-0.081,0-0.122,0    c-2.296,0-4.554-0.207-6.757-0.603C122.188,130.049,128.113,127.378,134.65,127.378z M112.049,157.88    c-0.671-2.211-1.029-4.521-1.029-6.861c0-0.949,0.063-1.883,0.172-2.802c4.33,1.134,8.843,1.742,13.468,1.742    c0.056,0,0.114,0,0.17,0c11.284-0.035,21.912-3.576,30.701-9.99c1.752,3.3,2.749,7.06,2.749,11.05    c0,1.936-0.238,3.861-0.701,5.726c-3.146-0.692-6.332-1.246-9.561-1.624C135.939,153.704,123.739,154.661,112.049,157.88z"/>
		<path d="M172.124,261.126c0-7.376-4.145-11.065-12.433-11.065h-12.743c-1.161,0-2.155,0.259-2.984,0.777    c-0.83,0.519-1.243,1.254-1.243,2.207v39.535c0,0.788,0.382,1.472,1.15,2.052c0.766,0.581,1.792,0.87,3.077,0.87h13.8    c3.812,0,6.848-1.066,9.107-3.201c2.258-2.134,3.388-5.522,3.388-10.164v-1.305c0-2.9-0.539-5.087-1.616-6.558    c-1.078-1.471-2.673-2.6-4.787-3.388C170.362,269.353,172.124,266.1,172.124,261.126z M152.356,258.516h6.527    c4.664,0,4.775,8.641,0,8.641h-6.527V258.516z M163.545,281.329c0,3.813-1.658,5.719-4.973,5.719h-6.216v-12.433h6.216    c3.315,0,4.973,1.907,4.973,5.719V281.329z"/>
		<path d="M204.634,258.516c3.855,0,3.955-8.454,0-8.454h-22.13c-1.161,0-2.155,0.259-2.984,0.777    c-0.83,0.519-1.243,1.254-1.243,2.207v39.473c0,0.954,0.414,1.689,1.243,2.207c0.829,0.519,1.823,0.777,2.984,0.777h22.13    c3.933,0,3.876-8.454,0-8.454h-16.66V276.48h9.324c3.953,0,3.846-7.459,0-7.459h-9.324v-10.505H204.634z"/>
		<path d="M118.324,327.598c3.879,0,3.93-8.454,0-8.454h-21.57c-1.161,0-2.155,0.259-2.984,0.777    c-0.83,0.519-1.243,1.254-1.243,2.207v39.473c0,3.975,9.697,4.008,9.697,0v-16.038h9.387c3.953,0,3.844-7.459,0-7.459h-9.387    v-10.505H118.324z"/>
		<path d="M127.525,319.144c-0.871,0-1.585,0.291-2.145,0.87c-1.576,1.638-0.562,0.938-0.839,41.587c0,3.975,9.697,4.008,9.697,0    V346.62h4.103l8.517,16.535c2.101,4.064,9.2,0.499,9.2-3.232c0-0.456-0.104-0.829-0.311-1.119l-7.584-13.738    c5.014-1.948,7.522-6.154,7.522-12.619c0-8.868-5.098-13.303-15.292-13.303H127.525z M145.987,333.38    c0,2.073-0.477,3.554-1.43,4.444c-0.954,0.892-2.342,1.336-4.165,1.336h-6.154v-11.562h6.154c1.823,0,3.211,0.446,4.165,1.336    C145.51,329.826,145.987,331.308,145.987,333.38z"/>
		<path d="M160.844,322.066v39.536c0,3.975,9.697,4.008,9.697,0v-39.536C170.541,318.136,160.844,318.152,160.844,322.066z"/>
	</g>
</g>















</svg>
