<?xml version="1.0" encoding="iso-8859-1"?>
<!-- Generator: Adobe Illustrator 19.0.0, SVG Export Plug-In . SVG Version: 6.00 Build 0)  -->
<svg xmlns="http://www.w3.org/2000/svg" xmlns:xlink="http://www.w3.org/1999/xlink" version="1.1" id="Capa_1" x="0px" y="0px" viewBox="0 0 512 512" style="enable-background:new 0 0 512 512;" xml:space="preserve" width="512" height="512">
<g>
	<path style="fill:#F9DC6A;" d="M445.939,333.943H334.697H45.507v60.459H317.03v94.079h182.722V387.755   C499.752,358.035,475.659,333.943,445.939,333.943z"/>
	<path style="fill:#E5AC51;" d="M445.939,333.943h-23.036c29.72,0,53.813,24.093,53.813,53.813v100.726h23.036V387.755   C499.752,358.035,475.659,333.943,445.939,333.943z"/>
	<path style="fill:#E5AC51;" d="M271.284,394.402v-6.647c0-29.719-24.091-53.811-53.81-53.812H106.227   c-29.719,0.001-53.81,24.094-53.81,53.812v6.647H271.284z"/>
	<path style="fill:#F2A077;" d="M357.896,279.873v65.353c0,17.906,14.516,32.422,32.422,32.422h0   c17.906,0,32.422-14.516,32.422-32.422v-65.353H357.896z"/>
	<g>
		<path style="fill:#BE6351;" d="M290.722,307.185h199.192c8.055,0,14.586-6.53,14.586-14.586V137.7    c0-63.061-51.121-114.182-114.182-114.182h0c-63.061,0-114.182,51.121-114.182,114.182v154.9    C276.137,300.655,282.667,307.185,290.722,307.185z"/>
		<path style="fill:#AA473A;" d="M390.318,23.518L390.318,23.518c-4.571,0-9.076,0.277-13.507,0.799    C433.505,31,477.486,79.21,477.486,137.7v154.9c0,8.055-6.53,14.586-14.586,14.586h27.014c8.056,0,14.586-6.53,14.586-14.586    V137.7C504.5,74.639,453.379,23.518,390.318,23.518z"/>
		<path style="fill:#FFCCAA;" d="M503.606,201.838v9.546c0,11.144-9.025,20.181-20.169,20.181h-6.845    c-1.184,22.798-11.204,43.275-26.695,58.044c-15.503,14.769-36.477,23.829-59.584,23.829c-46.189,0-83.91-36.252-86.267-81.873    h-6.845c-11.145,0-20.181-9.037-20.181-20.181v-9.546c0-11.144,9.036-20.181,20.181-20.181h6.715v-26.564h37.472    c27.263,0,53.307-11.287,71.948-31.184l9.333-9.96c3.908-4.169,10.896-1.409,10.896,4.311v2.57    c0,18.926,15.349,34.263,34.263,34.263h8.882v26.564h6.727C494.582,181.657,503.606,190.694,503.606,201.838z"/>
		<path style="fill:#F2A077;" d="M483.437,181.657h-6.721h-0.006v-11.958v-14.607h-8.882c-6.41,0-12.411-1.762-17.544-4.829v31.398    l-0.125,49.905c-1.185,22.8-11.197,43.277-26.699,58.045c-12.484,11.894-28.523,20.077-46.357,22.815    c2.633,0.404,5.304,0.693,8.009,0.856c1.721,0.102,3.455,0.154,5.201,0.154c19.324,0,37.157-6.337,51.545-17.05    c2.815-2.096,5.497-4.36,8.034-6.776c1.154-1.099,2.277-2.231,3.369-3.392c10.656-11.339,18.288-25.561,21.604-41.366    c0.55-2.621,0.965-5.29,1.272-7.992c0.037-0.317,0.072-0.634,0.105-0.952c0.051-0.495,0.102-0.989,0.144-1.486    c0.083-0.949,0.155-1.9,0.205-2.858h0c0-0.001,0-0.001,0-0.001l0.124-0.001h6.721c11.144,0,20.169-9.037,20.169-20.181v-9.546    C503.606,190.694,494.582,181.657,483.437,181.657z"/>
	</g>
	<path style="fill:#2BB4F3;" d="M241.676,488.482H22.809V387.755c0-29.72,24.093-53.813,53.813-53.813h111.242   c29.72,0,53.813,24.093,53.813,53.813V488.482z"/>
	<path style="fill:#1687C4;" d="M187.864,333.943h-23.036c29.72,0,53.813,24.093,53.813,53.813v100.726h23.036V387.755   C241.676,358.035,217.583,333.943,187.864,333.943z"/>
	<path style="fill:#F2A077;" d="M99.82,279.873v65.353c0,17.906,14.516,32.422,32.422,32.422h0   c17.906,0,32.422-14.516,32.422-32.422v-65.353H99.82z"/>
	<path style="fill:#FFCCAA;" d="M44.585,403.141H26.259c-10.36,0-18.759-8.398-18.759-18.759V343.44   c0-10.36,8.398-18.759,18.759-18.759h18.326c7.611,0,13.781,6.17,13.781,13.781v50.896   C58.366,396.971,52.196,403.141,44.585,403.141z"/>
	<g>
		<path style="fill:#475D6D;" d="M25.398,287.21h213.689c4.052,0,7.337-3.285,7.337-7.337V137.7    c0-63.061-51.121-114.182-114.182-114.182h0c-63.061,0-114.182,51.121-114.182,114.182v142.173    C18.061,283.925,21.346,287.21,25.398,287.21z"/>
		<path style="fill:#2C3F4F;" d="M132.243,23.518L132.243,23.518c-4.703,0-9.338,0.291-13.892,0.843    c56.508,6.855,100.29,54.981,100.29,113.339v142.173c0,4.052-3.285,7.337-7.337,7.337h27.784c4.052,0,7.337-3.285,7.337-7.337    V137.7C246.424,74.639,195.303,23.518,132.243,23.518z"/>
		<path style="fill:#FFCCAA;" d="M225.35,181.657h-6.715v-26.564h-92.113c-6.967,0-13.133-4.507-15.248-11.146l-7.735-24.282    c-1.154-3.623-6.281-3.623-7.436,0l-7.735,24.282c-2.115,6.638-8.281,11.146-15.248,11.146H45.841v26.564h-6.715    c-11.146,0-20.181,9.035-20.181,20.181v9.546c0,11.146,9.035,20.181,20.181,20.181h6.845c2.357,45.62,40.078,81.873,86.267,81.873    c23.106,0,44.081-9.06,59.584-23.829c15.491-14.769,25.511-35.246,26.695-58.044h6.845c11.139,0,20.169-9.03,20.169-20.169v-9.558    C245.531,190.692,236.495,181.657,225.35,181.657z"/>
		<g>
			<path style="fill:#F2A077;" d="M192.084,231.181c0,0.004,0,0.012,0,0.024c0-0.009,0-0.013,0-0.018     C192.084,231.185,192.084,231.183,192.084,231.181z"/>
			<path style="fill:#F2A077;" d="M192.084,231.521c0-0.025,0-0.051,0-0.073C192.084,231.475,192.084,231.5,192.084,231.521z"/>
			<path style="fill:#F2A077;" d="M225.35,181.657h-6.709h-0.006v-3.667v-22.897h-26.426c-0.1,61.339-0.121,73.946-0.124,76.089     c0-0.004,0-0.001,0,0.006c0,0.055,0,0.104,0,0.145c0-0.052,0-0.099,0-0.128c0,0.036,0,0.112,0,0.242c0-0.002,0-0.004,0-0.006     c0,0.039,0,0.071,0,0.092c0-0.004,0-0.008,0-0.013c0,0.014,0,0.026,0,0.041c0,0.002,0,0.003,0,0.004v0c0,0,0,0,0,0     c-2.137,41.118-32.984,74.703-73.047,80.858c46.799,6.989,87.452-23.525,97.32-65.744h0.005c0.021-0.09,0.037-0.182,0.057-0.272     c0.51-2.215,0.935-4.461,1.273-6.736c0.038-0.253,0.076-0.505,0.112-0.758c0.143-1.028,0.269-2.061,0.375-3.1     c0.033-0.32,0.061-0.642,0.09-0.964c0.097-1.059,0.181-2.122,0.24-3.192c0.002-0.031,0.005-0.061,0.007-0.092     c0,0,0-0.001,0-0.001v-0.001h0.124h6.721c11.139,0,20.169-9.03,20.169-20.169v-9.558     C245.531,190.692,236.495,181.657,225.35,181.657z"/>
		</g>
	</g>
</g>
<g>
	<path d="M489.91,314.69c12.181,0,22.09-9.91,22.09-22.09V137.7c0-67.095-54.585-121.68-121.68-121.68   c-28.214,0-55.703,9.868-77.403,27.785c-21.423,17.678-36.27,42.318-41.805,69.382c-0.83,4.058,1.786,8.021,5.845,8.851   c4.057,0.835,8.021-1.787,8.851-5.845c4.852-23.716,17.869-45.315,36.658-60.82c19.02-15.704,43.118-24.353,67.854-24.353   C449.144,31.02,497,78.876,497,137.7v40.017c-3.8-2.147-8.154-3.422-12.79-3.55v-19.075c0-4.142-3.357-7.5-7.5-7.5h-8.882   c-14.757,0-26.763-12.005-26.763-26.762v-2.57c0-5.703-3.425-10.743-8.725-12.838c-5.299-2.097-11.244-0.761-15.146,3.399   l-9.331,9.96c-17.155,18.31-41.385,28.811-66.476,28.811h-37.473c-4.143,0-7.5,3.358-7.5,7.5v19.075   c-4.631,0.13-8.98,1.404-12.776,3.547V150.26c0-4.142-3.357-7.5-7.5-7.5s-7.5,3.358-7.5,7.5V292.6c0,12.18,9.905,22.09,22.08,22.09   H350.4v11.75H187.86h-15.69v-14.402c9.035-4.249,17.422-9.947,24.827-17.001c0.112-0.107,0.217-0.22,0.329-0.327h41.764   c8.177,0,14.83-6.657,14.83-14.84V137.7c0-67.095-54.585-121.68-121.68-121.68c-23.643,0-46.567,6.79-66.289,19.632   C46.752,48.137,31.499,65.712,21.84,86.477c-1.747,3.755-0.119,8.216,3.637,9.963c3.755,1.748,8.216,0.119,9.963-3.637   c8.472-18.212,21.85-33.626,38.692-44.579C91.417,36.969,111.51,31.02,132.24,31.02c58.823,0,106.68,47.856,106.68,106.68v40.019   c-3.799-2.146-8.151-3.421-12.786-3.551v-19.075c0-4.142-3.358-7.5-7.5-7.5h-92.113c-3.718,0-6.974-2.38-8.102-5.922l-7.735-24.282   c-1.513-4.75-5.879-7.941-10.865-7.941c-4.985,0-9.351,3.192-10.863,7.941l-7.735,24.282c-1.128,3.542-4.384,5.922-8.102,5.922   H45.841c-4.142,0-7.5,3.358-7.5,7.5v19.075c-4.632,0.13-8.983,1.405-12.781,3.549V137.7c0-4.322,0.261-8.661,0.775-12.896   c0.5-4.112-2.429-7.85-6.541-8.35c-4.111-0.497-7.85,2.429-8.35,6.541c-0.587,4.833-0.885,9.781-0.885,14.705v142.17   c0,8.183,6.657,14.84,14.84,14.84h41.715c7.355,7.077,15.868,12.941,25.205,17.328v14.402h-15.7c-4.596,0-9.131,0.511-13.555,1.512   c-3.668-6.422-10.57-10.77-18.48-10.77H26.258C11.779,317.182,0,328.961,0,343.44v40.942c0,10.573,6.284,19.699,15.31,23.858v80.24   c0,4.142,3.358,7.5,7.5,7.5h218.87c4.142,0,7.5-3.358,7.5-7.5V387.76c0-18.482-8.231-35.068-21.206-46.32H350.4v3.79   c0,22.012,17.908,39.92,39.92,39.92c10.67,0,20.694-4.156,28.224-11.697c7.542-7.542,11.696-17.566,11.696-28.223v-3.79h15.7   c25.535,0,46.31,20.779,46.31,46.32v93.22h-21.144v-50.446c0-4.142-3.357-7.5-7.5-7.5s-7.5,3.358-7.5,7.5v50.446H324.53V394.4   c0-4.142-3.357-7.5-7.5-7.5h-44.4c-4.143,0-7.5,3.358-7.5,7.5s3.357,7.5,7.5,7.5h36.9v86.58c0,4.142,3.357,7.5,7.5,7.5h182.72   c4.143,0,7.5-3.358,7.5-7.5V387.76c0-33.812-27.503-61.32-61.31-61.32h-15.7v-11.75H489.91z M238.92,279.71h-28.927   c8.224-12.112,13.5-25.987,15.375-40.645c4.922-0.001,9.544-1.3,13.552-3.563V279.71z M26.445,201.838   c0-6.992,5.688-12.681,12.681-12.681h6.715c4.142,0,7.5-3.358,7.5-7.5v-19.064h19.778c10.275,0,19.275-6.578,22.394-16.369   l4.307-13.52l4.307,13.52c3.119,9.791,12.119,16.369,22.394,16.369h84.613v19.064c0,4.142,3.358,7.5,7.5,7.5h6.715   c6.992,0,12.681,5.689,12.681,12.681v9.558c0,6.986-5.683,12.669-12.669,12.669h-6.846c-3.991,0-7.283,3.125-7.49,7.111   c-1.049,20.192-9.707,39.016-24.378,53.003c-7.285,6.94-15.697,12.332-24.8,16.015c-0.071,0.029-0.14,0.059-0.21,0.09   c-9.241,3.708-19.19,5.654-29.401,5.654c-21.997,0-41.953-9.015-56.295-23.613c-0.228-0.265-0.475-0.512-0.737-0.743   c-12.631-13.2-20.733-30.809-21.745-50.404c-0.206-3.987-3.499-7.113-7.49-7.113h-6.845c-6.992,0-12.681-5.689-12.681-12.681   V201.838z M25.56,235.5c4.009,2.264,8.633,3.564,13.556,3.565c1.908,14.97,7.33,28.782,15.375,40.645H25.56V235.5z    M132.238,320.938c8.527,0,16.894-1.163,24.932-3.368v27.66c0,6.651-2.594,12.907-7.303,17.617s-10.97,7.303-17.626,7.303   c-13.741,0-24.92-11.179-24.92-24.92v-27.649C115.264,319.76,123.617,320.938,132.238,320.938z M15,343.44   c0-6.208,5.05-11.258,11.258-11.258h18.327c3.463,0,6.281,2.818,6.281,6.281v50.896c0,3.463-2.818,6.281-6.281,6.281H26.258   c-6.208,0-11.258-5.05-11.258-11.258V343.44z M234.18,387.76v93.22h-21.15v-50.446c0-4.142-3.358-7.5-7.5-7.5s-7.5,3.358-7.5,7.5   v50.446H66.455v-50.446c0-4.142-3.358-7.5-7.5-7.5s-7.5,3.358-7.5,7.5v50.446H30.31v-70.339h14.275   c11.734,0,21.281-9.547,21.281-21.281v-46.654c3.502-0.834,7.1-1.265,10.754-1.265h15.7v3.79c0,22.012,17.908,39.92,39.92,39.92   c10.664,0,20.69-4.154,28.233-11.697c7.543-7.542,11.697-17.566,11.697-28.223v-3.79h15.69   C213.401,341.44,234.18,362.219,234.18,387.76z M497,292.6c0,3.909-3.181,7.09-7.09,7.09h-40.14   c1.812-1.486,3.59-3.022,5.301-4.653c15.725-14.99,25.644-34.654,28.372-55.972c4.924-0.001,9.547-1.301,13.557-3.567V292.6z    M284.521,201.838c0-6.992,5.688-12.681,12.681-12.681h6.715c4.143,0,7.5-3.358,7.5-7.5v-19.064h29.973   c29.223,0,57.441-12.23,77.422-33.555l7.258-7.747c0.246,22.817,18.885,41.302,41.76,41.302h1.382v19.064   c0,4.142,3.357,7.5,7.5,7.5h6.728c6.985,0,12.669,5.689,12.669,12.681v9.546c0,6.992-5.684,12.681-12.669,12.681h-6.846   c-3.991,0-7.283,3.125-7.49,7.111c-1.049,20.192-9.707,39.016-24.378,53.003c-7.318,6.971-15.772,12.383-24.922,16.067   c-0.062,0.025-0.124,0.052-0.185,0.078c-9.213,3.683-19.129,5.613-29.304,5.613c-10.366,0-20.277-2.007-29.365-5.649   c-0.042-0.018-0.086-0.032-0.129-0.049c-0.015-0.006-0.031-0.01-0.046-0.017c-27.652-11.158-47.61-37.533-49.237-69.044   c-0.206-3.987-3.498-7.113-7.49-7.113h-6.846c-6.992,0-12.681-5.689-12.681-12.681V201.838z M283.64,292.6v-57.098   c4.009,2.263,8.631,3.562,13.553,3.563c3.116,24.455,15.577,45.843,33.617,60.625h-40.09   C286.815,299.69,283.64,296.509,283.64,292.6z M415.24,345.23c0,6.651-2.594,12.907-7.308,17.621   c-4.699,4.707-10.954,7.299-17.612,7.299c-13.741,0-24.92-11.179-24.92-24.92v-27.647c7.943,2.178,16.294,3.355,24.913,3.355   c8.525,0,16.891-1.162,24.927-3.366V345.23z"/>
	<path d="M350.94,236.897c2.131,5.277,5.268,10.01,9.331,14.074c8.04,8.02,18.711,12.436,30.047,12.436   c17.389,0,32.844-10.401,39.373-26.499c1.557-3.838-0.293-8.212-4.131-9.769c-3.842-1.557-8.212,0.294-9.77,4.131   c-4.223,10.41-14.221,17.137-25.473,17.137c-7.337,0-14.245-2.861-19.446-8.049c-2.624-2.625-4.65-5.678-6.021-9.077   c-1.551-3.84-5.919-5.7-9.763-4.147C351.247,228.685,349.391,233.056,350.94,236.897z"/>
	<path d="M347.068,194.757c4.143,0,7.5-3.358,7.5-7.5v-4.174c0-4.142-3.357-7.5-7.5-7.5s-7.5,3.358-7.5,7.5v4.174   C339.568,191.399,342.926,194.757,347.068,194.757z"/>
	<path d="M433.568,194.757c4.143,0,7.5-3.358,7.5-7.5v-4.174c0-4.142-3.357-7.5-7.5-7.5s-7.5,3.358-7.5,7.5v4.174   C426.068,191.399,429.426,194.757,433.568,194.757z"/>
	<path d="M92.865,236.896c2.13,5.279,5.268,10.012,9.331,14.075c8.04,8.02,18.71,12.436,30.046,12.436   c17.389,0,32.843-10.401,39.373-26.499c1.557-3.838-0.293-8.212-4.131-9.769c-3.837-1.556-8.211,0.292-9.769,4.131   c-4.222,10.41-14.221,17.137-25.472,17.137c-7.336,0-14.245-2.861-19.447-8.05c-2.624-2.623-4.649-5.676-6.021-9.075   c-1.55-3.841-5.919-5.699-9.762-4.148C93.172,228.685,91.315,233.055,92.865,236.896z"/>
	<path d="M88.992,194.757c4.142,0,7.5-3.358,7.5-7.5v-4.174c0-4.142-3.358-7.5-7.5-7.5s-7.5,3.358-7.5,7.5v4.174   C81.492,191.399,84.85,194.757,88.992,194.757z"/>
	<path d="M175.493,194.757c4.142,0,7.5-3.358,7.5-7.5v-4.174c0-4.142-3.358-7.5-7.5-7.5s-7.5,3.358-7.5,7.5v4.174   C167.993,191.399,171.351,194.757,175.493,194.757z"/>
</g>















</svg>
