<?xml version="1.0" encoding="iso-8859-1"?>
<!-- Generator: Adobe Illustrator 19.0.0, SVG Export Plug-In . SVG Version: 6.00 Build 0)  -->
<svg xmlns="http://www.w3.org/2000/svg" xmlns:xlink="http://www.w3.org/1999/xlink" version="1.1" id="Capa_1" x="0px" y="0px" viewBox="0 0 512 512" style="enable-background:new 0 0 512 512;" xml:space="preserve" width="512" height="512">
<g>
	<g>
		<path style="fill:#75DC5E;" d="M446.724,329.372H335.283H45.575v60.568h272.009v94.248h183.049V383.281    C500.633,353.508,476.497,329.372,446.724,329.372z"/>
		<path style="fill:#2AAD52;" d="M446.724,329.372h-23.077c29.773,0,53.909,24.136,53.909,53.909v100.907h23.077V383.281    C500.633,353.508,476.497,329.372,446.724,329.372z"/>
		<path style="fill:#2AAD52;" d="M271.757,389.94v-6.659c0-29.772-24.134-53.907-53.906-53.909H106.404    c-29.772,0.001-53.906,24.137-53.906,53.909v6.659H271.757z"/>
		<path style="fill:#EBEAE6;" d="M423.484,318.678h-64.961l-16.971,21.159c-3.619,4.512-5.191,10.33-4.336,16.051l6.819,45.623    c0.489,3.273,4.178,4.968,6.98,3.206l39.988-25.135l39.988,25.135c2.802,1.761,6.49,0.067,6.98-3.206l6.819-45.623    c0.855-5.721-0.716-11.539-4.336-16.051L423.484,318.678z"/>
		<path style="fill:#F2A077;" d="M358.523,275.206v62.72c0,1.779,0.616,3.502,1.744,4.877l24.79,30.223    c3.077,3.751,8.816,3.751,11.892,0l24.79-30.223c1.128-1.375,1.744-3.099,1.744-4.877v-62.72H358.523z"/>
		<g>
			<path style="fill:#FFCCAA;" d="M484.284,176.819h-6.728v-43.882c0-42.453-34.415-76.868-76.868-76.868H381.32     c-42.453,0-76.868,34.415-76.868,76.868v43.882h-6.728c-11.165,0-20.216,9.051-20.216,20.216v9.561     c0,11.165,9.051,20.216,20.216,20.216h6.853c2.359,45.698,40.151,82.021,86.427,82.021c23.138,0,44.151-9.077,59.68-23.872     c15.529-14.795,25.559-35.308,26.747-58.149h6.853c11.165,0,20.216-9.051,20.216-20.216v-9.561     C504.5,185.87,495.449,176.819,484.284,176.819z"/>
			<path style="fill:#F2A077;" d="M484.284,176.819h-6.728v-43.882c0-42.453-34.415-76.869-76.868-76.869H381.32     c-1.271,0-2.533,0.035-3.788,0.096c40.693,1.975,73.08,35.59,73.08,76.773v43.882l-0.125,49.994     c-1.187,22.841-11.217,43.354-26.747,58.149c-12.452,11.863-28.435,20.037-46.207,22.815c4.391,0.687,8.887,1.057,13.471,1.057     c23.138,0,44.151-9.077,59.68-23.872c15.529-14.795,25.559-35.308,26.747-58.149h6.853c11.165,0,20.216-9.051,20.216-20.216     v-9.561C504.5,185.87,495.449,176.819,484.284,176.819z"/>
			<path style="fill:#F9DC6A;" d="M277.318,27.811h124.654c41.744,0,75.584,33.84,75.584,75.584v29.542H327.273     c-27.59,0-49.956-22.366-49.956-49.956V27.811z"/>
			<path style="fill:#E5AC51;" d="M401.972,27.811h-27.647c41.744,0,75.584,33.84,75.584,75.584v29.542h27.647v-29.542     C477.556,61.651,443.716,27.811,401.972,27.811z"/>
		</g>
		<path style="fill:#2BB4F3;" d="M242.095,484.188H22.836V383.281c0-29.773,24.136-53.909,53.909-53.909h111.441    c29.773,0,53.909,24.136,53.909,53.909V484.188z"/>
		<path style="fill:#1687C4;" d="M188.186,329.372h-23.077c29.773,0,53.909,24.136,53.909,53.909v100.907h23.077V383.281    C242.095,353.508,217.959,329.372,188.186,329.372z"/>
		<path style="fill:#F2A077;" d="M99.985,275.206v65.47c0,17.938,14.542,32.48,32.48,32.48h0c17.938,0,32.48-14.542,32.48-32.48    v-65.47H99.985z"/>
		<g>
			<path style="fill:#FFCCAA;" d="M225.746,176.819h-6.728v-47.69c0-34.534-27.995-62.529-62.529-62.529h-48.046     c-34.534,0-62.529,27.995-62.529,62.529v47.69h-6.728c-11.165,0-20.216,9.051-20.216,20.216v9.561     c0,11.165,9.051,20.216,20.216,20.216h6.853c2.359,45.698,40.151,82.021,86.427,82.021c46.086,0,84.041-36.117,86.427-82.021     h6.853c11.165,0,20.216-9.051,20.216-20.216v-9.561C245.962,185.87,236.911,176.819,225.746,176.819z"/>
			<path style="fill:#F2A077;" d="M225.746,176.819h-6.728v-47.69c0-34.534-27.995-62.529-62.529-62.529h-25.758     c34.534,0,62.529,27.995,62.529,62.529v47.69l-0.125,49.994c-2.16,41.55-33.462,75.078-73.556,81.066     c4.205,0.628,8.507,0.956,12.887,0.956c46.086,0,84.041-36.118,86.427-82.021h6.853c11.165,0,20.216-9.051,20.216-20.216v-9.561     C245.962,185.87,236.911,176.819,225.746,176.819z"/>
			<path style="fill:#475D6D;" d="M45.914,135.458h24.885c7.04,0,13.422-4.14,16.292-10.569l6.456-14.462     c1.756-3.933,6.735-5.178,10.135-2.533l30.607,23.806c3.132,2.436,6.986,3.758,10.954,3.758h73.775V81.713     c0-26.861-21.776-48.637-48.637-48.637h-59.13c-8.841,0-16.007,7.167-16.007,16.007v8.564H69.455     c-13.002,0-23.542,10.54-23.542,23.542V135.458z"/>
			<path style="fill:#2C3F4F;" d="M170.381,33.076h-28.037c26.861,0,48.637,21.776,48.637,48.637v53.745h28.037V81.713     C219.018,54.852,197.243,33.076,170.381,33.076z"/>
		</g>
		<path style="fill:#FFCCAA;" d="M44.651,398.694H26.292c-10.379,0-18.792-8.413-18.792-18.792v-41.015    c0-10.379,8.414-18.792,18.792-18.792h18.359c7.625,0,13.806,6.181,13.806,13.806v50.987    C58.457,392.513,52.276,398.694,44.651,398.694z"/>
	</g>
	<g>
		<path d="M430.98,307.427c9.052-4.258,17.455-9.968,24.873-17.037c15.756-15.005,25.696-34.708,28.429-56.081    c15.284-0.001,27.718-12.432,27.718-27.71v-9.56c0-15.024-12.015-27.294-26.94-27.709v-36.391c0-0.029-0.004-0.058-0.004-0.087    v-29.457c0-45.813-37.271-83.084-83.084-83.084H277.317c-4.142,0-7.5,3.358-7.5,7.5v55.171c0,3.122,0.253,6.255,0.752,9.313    c0.667,4.088,4.519,6.86,8.611,6.193c4.088-0.667,6.86-4.522,6.193-8.611c-0.369-2.26-0.556-4.58-0.556-6.895V35.311h117.154    c37.542,0,68.084,30.542,68.084,68.084v22.042H327.273c-6.79,0-13.322-1.59-19.195-4.575c-0.017-0.009-0.034-0.017-0.051-0.026    c-4.023-2.051-7.739-4.75-11.005-8.067c-2.906-2.951-7.655-2.988-10.606-0.081s-2.987,7.655-0.081,10.606    c3.242,3.292,6.815,6.133,10.635,8.515c-0.005,0.378-0.02,0.748-0.02,1.129v36.391c-14.925,0.409-26.94,12.682-26.94,27.709v9.56    c0,15.279,12.431,27.71,27.71,27.71h0.005c4.15,32.6,24.873,59.76,53.295,73.116v8.618l-4.672,5.826H188.19h-15.74v-14.447    c28.416-13.358,49.138-40.516,53.294-73.113h0.006c15.279,0,27.71-12.431,27.71-27.71v-9.56c0-15.027-12.015-27.3-26.94-27.709    v-40.201c0-0.013-0.002-0.026-0.002-0.039V81.713c0-30.954-25.183-56.137-56.137-56.137h-15.952c-4.142,0-7.5,3.358-7.5,7.5    s3.358,7.5,7.5,7.5h15.952c22.683,0,41.137,18.454,41.137,41.137v46.245h-66.275c-2.288,0-4.543-0.773-6.349-2.178l-30.607-23.806    c-3.451-2.686-7.864-3.618-12.107-2.556c-4.243,1.06-7.698,3.958-9.481,7.952l-6.457,14.462c-1.661,3.722-5.368,6.126-9.443,6.126    H53.414V81.19c0-8.846,7.196-16.042,16.042-16.042h25.788c4.142,0,7.5-3.358,7.5-7.5v-8.564c0-4.691,3.816-8.507,8.507-8.507    h13.297c4.142,0,7.5-3.358,7.5-7.5s-3.358-7.5-7.5-7.5h-13.297c-12.962,0-23.507,10.545-23.507,23.507v1.064H69.456    c-17.117,0-31.042,13.925-31.042,31.042v47.872c0,0.023-0.003,0.045-0.003,0.068v40.201c-14.925,0.415-26.94,12.686-26.94,27.709    v9.56c0,15.277,12.433,27.707,27.715,27.71c4.15,32.601,24.877,59.762,53.305,73.118v14.442H76.75    c-4.606,0-9.153,0.513-13.592,1.516c-3.671-6.434-10.584-10.791-18.507-10.791H26.292C11.794,312.595,0,324.389,0,338.887v41.015    c0,10.59,6.297,19.731,15.34,23.893v80.394c0,4.142,3.358,7.5,7.5,7.5H242.1c4.142,0,7.5-3.358,7.5-7.5v-100.91    c0-18.521-8.254-35.141-21.263-46.41h106.096c-4.005,5.857-5.692,13.076-4.631,20.129l6.816,45.597    c0.593,4.051,3.165,7.495,6.88,9.212c3.723,1.72,8.023,1.447,11.513-0.739L391,388.439l35.999,22.631    c1.963,1.233,4.189,1.858,6.428,1.858c1.715,0,3.437-0.367,5.051-1.109c3.721-1.709,6.304-5.149,6.91-9.201l6.819-45.614    c1.059-7.045-0.626-14.256-4.625-20.113c25.193,0.463,45.548,21.086,45.548,46.388v93.41h-21.208v-50.553    c0-4.142-3.358-7.5-7.5-7.5s-7.5,3.358-7.5,7.5v50.553H325.08v-86.75c0-4.142-3.358-7.5-7.5-7.5h-45.82    c-4.142,0-7.5,3.358-7.5,7.5s3.358,7.5,7.5,7.5h38.32v86.75c0,4.142,3.358,7.5,7.5,7.5h183.05c4.142,0,7.5-3.358,7.5-7.5v-100.91    c0-33.861-27.548-61.41-61.41-61.41h-11.068l-4.672-5.826V307.427z M53.53,226.423c-0.206-3.986-3.499-7.113-7.49-7.113h-6.85    c-7.014,0-12.72-5.702-12.72-12.71v-9.56c0-7.014,5.706-12.72,12.72-12.72h6.72c4.142,0,7.5-3.358,7.5-7.5v-33.861h17.389    c9.986,0,19.069-5.892,23.141-15.011l6.007-13.457l29.738,23.129c4.425,3.442,9.951,5.338,15.558,5.338h66.277v33.861    c0,4.142,3.358,7.5,7.5,7.5h6.73c7.008,0,12.71,5.706,12.71,12.72v9.56c0,7.008-5.702,12.71-12.71,12.71h-6.86    c-3.991,0-7.283,3.126-7.49,7.112c-1.633,31.494-21.527,57.871-49.115,69.104c-0.103,0.039-0.207,0.075-0.307,0.118    c-9.129,3.673-19.09,5.696-29.509,5.696C90.374,301.339,55.699,268.432,53.53,226.423z M132.47,316.339    c8.642,0,17.016-1.181,24.98-3.369v27.71c0,6.67-2.601,12.944-7.323,17.667c-4.716,4.716-10.987,7.313-17.657,7.313    c-13.774,0-24.98-11.206-24.98-24.98v-27.708C115.454,315.158,123.828,316.339,132.47,316.339z M15,338.887    c0-6.227,5.065-11.292,11.292-11.292h18.359c3.477,0,6.306,2.829,6.306,6.306v50.987c0,3.477-2.829,6.306-6.306,6.306H26.292    c-6.227,0-11.292-5.065-11.292-11.292V338.887z M234.6,383.279v93.41h-21.215v-50.553c0-4.142-3.358-7.5-7.5-7.5    s-7.5,3.358-7.5,7.5v50.553H66.546v-50.553c0-4.142-3.358-7.5-7.5-7.5s-7.5,3.358-7.5,7.5v50.553H30.34v-70.495h14.312    c11.748,0,21.306-9.558,21.306-21.306v-46.75c3.518-0.837,7.129-1.269,10.793-1.269h15.74v3.81c0,22.045,17.935,39.98,39.98,39.98    c10.676,0,20.714-4.158,28.263-11.707c7.556-7.556,11.717-17.597,11.717-28.273v-3.81h15.74    C213.781,336.869,234.6,357.689,234.6,383.279z M312.07,226.423c-0.206-3.986-3.499-7.113-7.49-7.113h-6.86    c-7.009,0-12.71-5.702-12.71-12.71v-9.56c0-7.014,5.702-12.72,12.71-12.72h6.73c4.142,0,7.5-3.358,7.5-7.5v-38.451    c4.928,1.354,10.067,2.069,15.323,2.069H470.06v36.382c0,4.142,3.358,7.5,7.5,7.5h6.72c7.014,0,12.72,5.706,12.72,12.72v9.56    c0,7.008-5.706,12.71-12.72,12.71h-6.85c-3.99,0-7.282,3.125-7.49,7.11c-1.055,20.248-9.732,39.108-24.434,53.111    c-7.299,6.956-15.726,12.359-24.844,16.051c-0.074,0.03-0.146,0.062-0.218,0.094c-9.255,3.715-19.219,5.664-29.444,5.664    c-10.411,0-20.365-2.02-29.489-5.686c-0.118-0.051-0.24-0.095-0.361-0.141C333.575,284.273,313.696,257.905,312.07,226.423z     M391,316.339c8.543,0,16.927-1.166,24.98-3.377v24.968c0,0.051-0.019,0.089-0.039,0.114l-24.787,30.226    c-0.029,0.036-0.06,0.073-0.153,0.073h0c-0.086,0-0.11-0.029-0.142-0.068l-24.804-30.247c-0.021-0.024-0.036-0.066-0.036-0.097    v-24.958C373.983,315.158,382.357,316.339,391,316.339z M350.8,395.999l-6.163-41.225c-0.547-3.639,0.459-7.371,2.764-10.242    l3.756-4.684c0.362,2.822,1.501,5.51,3.314,7.707l24.786,30.225c0.059,0.073,0.128,0.135,0.188,0.206L350.8,395.999z     M437.373,354.781l-6.162,41.219l-28.648-18.01c0.06-0.071,0.128-0.132,0.187-0.204l24.776-30.213    c1.819-2.206,2.957-4.896,3.318-7.723l3.757,4.685C436.909,347.409,437.919,351.142,437.373,354.781z"/>
		<path d="M391.003,258.697c17.415,0,32.892-10.417,39.431-26.538c1.557-3.838-0.293-8.212-4.131-9.769    c-3.838-1.556-8.212,0.292-9.769,4.131c-4.231,10.434-14.253,17.176-25.53,17.176c-7.353,0-14.277-2.868-19.49-8.067    c-2.63-2.631-4.661-5.691-6.035-9.097c-1.55-3.841-5.92-5.697-9.762-4.148c-3.841,1.55-5.698,5.921-4.148,9.762    c2.133,5.285,5.275,10.025,9.345,14.096C368.964,254.274,379.651,258.697,391.003,258.697z"/>
		<path d="M355.176,182.424v-4.181c0-4.142-3.358-7.5-7.5-7.5s-7.5,3.358-7.5,7.5v4.181c0,4.142,3.358,7.5,7.5,7.5    S355.176,186.566,355.176,182.424z"/>
		<path d="M434.331,189.924c4.142,0,7.5-3.358,7.5-7.5v-4.181c0-4.142-3.358-7.5-7.5-7.5s-7.5,3.358-7.5,7.5v4.181    C426.831,186.566,430.189,189.924,434.331,189.924z"/>
		<path d="M171.896,232.159c1.557-3.838-0.293-8.212-4.131-9.769c-3.838-1.556-8.212,0.292-9.769,4.131    c-4.232,10.434-14.253,17.176-25.53,17.176c-7.353,0-14.277-2.868-19.49-8.067c-2.63-2.631-4.661-5.691-6.035-9.097    c-1.551-3.841-5.921-5.697-9.762-4.148c-3.841,1.55-5.698,5.921-4.148,9.762c2.133,5.285,5.275,10.025,9.345,14.096    c8.051,8.031,18.738,12.454,30.09,12.454C149.88,258.697,165.357,248.28,171.896,232.159z"/>
		<path d="M96.638,182.424v-4.181c0-4.142-3.358-7.5-7.5-7.5s-7.5,3.358-7.5,7.5v4.181c0,4.142,3.358,7.5,7.5,7.5    S96.638,186.566,96.638,182.424z"/>
		<path d="M175.793,189.924c4.142,0,7.5-3.358,7.5-7.5v-4.181c0-4.142-3.358-7.5-7.5-7.5s-7.5,3.358-7.5,7.5v4.181    C168.293,186.566,171.651,189.924,175.793,189.924z"/>
	</g>
</g>















</svg>
