<?xml version="1.0" encoding="iso-8859-1"?>
<!-- Generator: Adobe Illustrator 19.0.0, SVG Export Plug-In . SVG Version: 6.00 Build 0)  -->
<svg xmlns="http://www.w3.org/2000/svg" xmlns:xlink="http://www.w3.org/1999/xlink" version="1.1" id="Capa_1" x="0px" y="0px" viewBox="0 0 512 512" style="enable-background:new 0 0 512 512;" xml:space="preserve" width="512" height="512">
<g>
	<path style="fill:#75DC5E;" d="M480.178,242.159c0-34.444-16.919-64.917-42.881-83.624c1.875-8.588,2.873-17.504,2.873-26.654   c0-68.693-55.687-124.38-124.38-124.38c-49.646,0-92.492,29.089-112.439,71.15c-11.967-3.511-24.627-5.404-37.73-5.404   c-73.892,0-133.794,59.901-133.794,133.794c0,41.88,19.247,79.26,49.373,103.793c-16.316,12.007-26.91,31.338-26.91,53.149   c0,36.427,29.53,65.956,65.956,65.956c1.564,0,3.109-0.074,4.645-0.181c7.495,21.514,27.944,36.957,52.012,36.957   c30.419,0,55.078-24.659,55.078-55.078c0-27.365,40.26-27.365,40.26,0c0,30.419,24.659,55.078,55.078,55.078   c24.068,0,44.517-15.444,52.012-36.957c1.536,0.107,3.082,0.181,4.645,0.181c36.427,0,65.956-29.53,65.956-65.956   c0-14.332-4.586-27.585-12.349-38.403C463.384,306.856,480.178,276.477,480.178,242.159z"/>
	<path style="fill:#2AAD52;" d="M480.178,242.159c0-34.444-16.919-64.917-42.881-83.624c1.875-8.588,2.873-17.504,2.873-26.654   c0-68.693-55.687-124.38-124.38-124.38c-4.823,0-9.579,0.282-14.258,0.816c61.985,7.067,110.139,59.688,110.139,123.564   c0,9.15-0.997,18.067-2.873,26.654c25.962,18.707,42.881,49.181,42.881,83.624c0,34.318-16.794,64.697-42.595,83.421   c7.764,10.818,12.349,24.071,12.349,38.403c0,36.427-29.53,65.956-65.956,65.956c-1.564,0-3.109-0.074-4.645-0.181   c-5.96,17.108-20.116,30.367-37.765,35.085c4.547,1.215,9.322,1.872,14.252,1.872c24.068,0,44.517-15.444,52.012-36.957   c1.536,0.107,3.082,0.181,4.645,0.181c36.427,0,65.956-29.53,65.956-65.956c0-14.332-4.586-27.585-12.349-38.403   C463.384,306.856,480.178,276.477,480.178,242.159z"/>
	<path style="fill:#E49656;" d="M297.303,371.83c0,0,0,67.52,0,132.67h-90.384c0-65.15,0-132.67,0-132.67H297.303z"/>
	<path style="fill:#C67132;" d="M297.303,371.83c0,0,0,67.52,0,132.67h-24.228c0-65.15,0-132.67,0-132.67H297.303z"/>
	<path style="fill:#C67132;" d="M297.303,371.83c0,0,0,12.81,0,25.17h-90.384c0-12.36,0-25.17,0-25.17H297.303z"/>
	<polygon style="fill:#F9DC6A;" points="156.313,193.291 156.313,371.831 347.908,371.831 347.908,193.291 252.111,144.866  "/>
	<polygon style="fill:#E5B751;" points="252.111,144.866 240.361,150.806 324.408,193.291 324.408,371.831 347.908,371.831    347.908,193.291  "/>
	<path style="fill:#EBEAE6;" d="M272.819,255.321h-41.417c-5.558,0-10.063,4.505-10.063,10.063V306.8   c0,5.558,4.505,10.063,10.063,10.063h41.417c5.558,0,10.063-4.505,10.063-10.063v-41.417   C282.882,259.826,278.377,255.321,272.819,255.321z"/>
	<path style="fill:#BE6351;" d="M378.263,216.66c-1.985,0-4.002-0.421-5.921-1.309l-120.231-55.63l-120.231,55.63   c-7.078,3.278-15.471,0.192-18.748-6.887c-3.275-7.079-0.192-15.472,6.887-18.748l126.162-58.374c3.762-1.74,8.098-1.74,11.861,0   l126.162,58.374c7.079,3.275,10.162,11.669,6.887,18.748C388.703,213.623,383.597,216.66,378.263,216.66z"/>
	<g>
		<g>
			<path style="fill:#EBEAE6;" d="M233.794,392.322h-43.375c-2.107,0-3.815,1.708-3.815,3.815v14.623     c0,2.107,1.708,3.815,3.815,3.815h43.375c2.107,0,3.815-1.708,3.815-3.815v-14.623     C237.609,394.03,235.901,392.322,233.794,392.322z"/>
		</g>
		<g>
			<path style="fill:#EBEAE6;" d="M313.802,456.787h-43.375c-2.107,0-3.815,1.708-3.815,3.815v14.622     c0,2.107,1.708,3.815,3.815,3.815h43.375c2.107,0,3.815-1.708,3.815-3.815v-14.622     C317.617,458.495,315.909,456.787,313.802,456.787z"/>
		</g>
	</g>
	<g>
		<path d="M487.678,242.159c0-33.797-15.653-65.876-42.108-86.774c1.394-7.742,2.099-15.627,2.099-23.504    C447.669,59.161,388.508,0,315.789,0c-25.442,0-50.14,7.262-71.424,21.001c-18.939,12.226-34.375,29.006-44.943,48.782    c-35.479-8.664-75.619-3.736-109.826,18.139c-22.08,14.119-39.781,34.023-51.19,57.56c-1.807,3.728-0.25,8.213,3.478,10.021    c3.728,1.806,8.213,0.25,10.021-3.478c10.2-21.043,26.028-38.84,45.773-51.466c44.295-28.326,103.039-26.595,145.948,7.149    c1.374,1.081,3.009,1.605,4.631,1.605c2.221,0,4.42-0.982,5.9-2.864c2.561-3.256,1.997-7.971-1.259-10.531    c-11.905-9.362-24.954-16.627-38.797-21.682c9.307-16.396,22.448-30.336,38.4-40.633C271.354,21.433,293.239,15,315.789,15    c64.448,0,116.88,52.432,116.88,116.88c0,8.421-0.908,16.851-2.7,25.054c-0.638,2.919,0.519,5.938,2.943,7.685    c24.9,17.941,39.766,46.928,39.766,77.54c0,30.485-14.767,59.401-39.5,77.351c-3.34,2.423-4.094,7.09-1.688,10.443    c7.159,9.975,10.943,21.742,10.943,34.03c0,32.233-26.224,58.456-58.457,58.456c-1.221,0-2.531-0.052-4.124-0.163    c-3.386-0.234-6.491,1.819-7.604,5.014c-4.473,12.838-14.249,23.173-26.821,28.357c-3.829,1.579-5.654,5.963-4.075,9.792    c1.193,2.894,3.989,4.643,6.937,4.643c0.952,0,1.921-0.183,2.856-0.568c14.793-6.099,26.643-17.625,33.186-32.077    c40.341-0.192,73.102-33.07,73.102-73.455c0-13.014-3.377-25.564-9.825-36.695C472.82,306.375,487.678,275.059,487.678,242.159z"/>
		<path d="M231.402,324.363h41.417c9.684,0,17.563-7.879,17.563-17.563v-41.417c0-9.684-7.878-17.563-17.563-17.563h-41.417    c-9.684,0-17.563,7.878-17.563,17.563V306.8C213.839,316.484,221.718,324.363,231.402,324.363z M228.839,265.383    c0-1.413,1.15-2.563,2.563-2.563h41.417c1.413,0,2.563,1.149,2.563,2.563V306.8c0,1.413-1.149,2.563-2.563,2.563h-41.417    c-1.413,0-2.563-1.15-2.563-2.563V265.383z"/>
		<path d="M313.802,449.287h-9v-69.956h91.596c4.142,0,7.5-3.358,7.5-7.5s-3.358-7.5-7.5-7.5h-40.986v-148.55l13.781,6.376    c2.871,1.329,5.923,2.002,9.071,2.002c8.4,0,16.106-4.925,19.633-12.547c5.005-10.821,0.275-23.697-10.545-28.703l-57.075-26.408    c-3.759-1.738-8.217-0.102-9.956,3.657s-0.102,8.217,3.657,9.956l57.075,26.408c3.314,1.534,4.763,5.478,3.23,8.792    c-1.081,2.336-3.443,3.845-6.02,3.845c-0.957,0-1.889-0.207-2.772-0.616L255.26,152.915c-1.998-0.925-4.301-0.925-6.299,0    l-120.234,55.63c-1.604,0.743-3.401,0.816-5.061,0.206c-1.661-0.61-2.985-1.831-3.728-3.436c-1.533-3.314-0.084-7.258,3.229-8.792    l126.161-58.373c1.769-0.817,3.796-0.818,5.563,0l41.918,19.396c3.759,1.739,8.217,0.102,9.956-3.657    c1.739-3.759,0.102-8.217-3.657-9.956l-41.919-19.396c-5.77-2.669-12.388-2.668-18.159,0L116.869,182.91    c-10.82,5.007-15.55,17.883-10.544,28.704c2.426,5.242,6.747,9.225,12.168,11.217c2.432,0.894,4.953,1.338,7.468,1.338    c3.094,0,6.177-0.673,9.067-2.012l13.783-6.377v148.551h-40.989c-4.142,0-7.5,3.358-7.5,7.5s3.358,7.5,7.5,7.5h91.599v5.491    h-9.003c-6.239,0-11.314,5.076-11.314,11.315v14.623c0,6.239,5.076,11.315,11.314,11.315h9.003v31.483    c-6.9,3.711-14.607,5.663-22.52,5.663c-20.223,0-38.278-12.831-44.927-31.927c-1.114-3.201-4.23-5.246-7.619-5.015    c-1.512,0.108-2.857,0.161-4.114,0.161c-32.229,0-58.45-26.225-58.45-58.46c0-18.506,8.918-36.117,23.855-47.109    c1.869-1.375,2.996-3.538,3.052-5.857c0.057-2.319-0.963-4.535-2.762-6c-29.625-24.119-46.616-59.829-46.616-97.974    c0-9.68,1.102-19.327,3.275-28.671c0.938-4.035-1.572-8.066-5.606-9.004c-4.034-0.938-8.065,1.572-9.004,5.606    c-2.432,10.457-3.665,21.247-3.665,32.069c0,39.663,16.418,76.972,45.339,103.702c-14.457,13.778-22.869,33.084-22.869,53.238    c0,40.39,32.757,73.271,73.099,73.459c10.045,22.213,32.297,36.781,57.011,36.781c7.765,0,15.381-1.433,22.52-4.186V504.5    c0,4.142,3.358,7.5,7.5,7.5s7.5-3.358,7.5-7.5v-82.425h19.373c6.239,0,11.315-5.076,11.315-11.315v-14.623    c0-6.239-5.076-11.315-11.315-11.315h-19.373v-5.491h75.38v69.956h-19.375c-6.239,0-11.314,5.076-11.314,11.315v14.622    c0,6.239,5.076,11.315,11.314,11.315h19.375V504.5c0,4.142,3.358,7.5,7.5,7.5s7.5-3.358,7.5-7.5v-17.961h9    c6.239,0,11.315-5.076,11.315-11.315v-14.622C325.117,454.363,320.042,449.287,313.802,449.287z M230.109,407.075h-23.091    c-0.033,0-0.064-0.005-0.097-0.005s-0.064,0.004-0.097,0.005h-12.721v-7.252h36.005V407.075z M252.111,167.985l88.301,40.856    v7.909h-16.004c-4.142,0-7.5,3.358-7.5,7.5s3.358,7.5,7.5,7.5h16.004V255h-16.004c-4.142,0-7.5,3.358-7.5,7.5s3.358,7.5,7.5,7.5    h16.004v23.25h-16.004c-4.142,0-7.5,3.358-7.5,7.5s3.358,7.5,7.5,7.5h16.004v23.25h-16.004c-4.142,0-7.5,3.358-7.5,7.5    s3.358,7.5,7.5,7.5h16.004v17.83h-176.6V346.5h16.001c4.142,0,7.5-3.358,7.5-7.5s-3.358-7.5-7.5-7.5h-16.001v-23.25h16.001    c4.142,0,7.5-3.358,7.5-7.5s-3.358-7.5-7.5-7.5h-16.001V270h16.001c4.142,0,7.5-3.358,7.5-7.5s-3.358-7.5-7.5-7.5h-16.001v-23.25    h16.001c4.142,0,7.5-3.358,7.5-7.5s-3.358-7.5-7.5-7.5h-16.001v-7.91L252.111,167.985z M310.117,471.539h-36.005v-7.252h23.131    c0.02,0,0.038,0.003,0.058,0.003s0.038-0.003,0.058-0.003h12.757V471.539z"/>
	</g>
</g>















</svg>
