<?xml version="1.0" encoding="iso-8859-1"?>
<!-- Generator: Adobe Illustrator 19.0.0, SVG Export Plug-In . SVG Version: 6.00 Build 0)  -->
<svg version="1.1" id="Capa_1" xmlns="http://www.w3.org/2000/svg" xmlns:xlink="http://www.w3.org/1999/xlink" x="0px" y="0px"
	 viewBox="0 0 511.999 511.999" style="enable-background:new 0 0 511.999 511.999;" xml:space="preserve">
<g>
	<path style="fill:#FFCDAC;" d="M296.577,501.998l16.383-78.087c7.387-35.205,28.223-66.136,58.074-86.207l34.98-23.52
		c10.423-7.008,24.422-5.221,32.75,4.18l0,0c9.262,10.455,9.017,26.245-0.569,36.404c-19.154,20.297-47.654,50.644-47.654,50.644
		l15.54-16.528l32.642-34.739c10.48-11.154,16.313-25.882,16.313-41.187V189.946c0-11.006,7.646-20.533,18.389-22.918l0,0
		c14.66-3.253,28.562,7.902,28.562,22.918v155.047c0,18.124-5.636,35.801-16.129,50.58l-75.549,106.424H296.577V501.998z"/>
	<path style="fill:#FFCDAC;" d="M215.419,501.998l-16.383-78.087c-7.387-35.205-28.223-66.136-58.074-86.207l-34.98-23.52
		c-10.423-7.008-24.422-5.221-32.75,4.18l0,0c-9.262,10.455-9.017,26.245,0.569,36.404c19.154,20.297,47.654,50.644,47.654,50.644
		l-15.541-16.528l-32.642-34.739c-10.48-11.154-16.313-25.882-16.313-41.187V189.946c0-11.006-7.646-20.533-18.389-22.918l0,0
		c-14.66-3.253-28.562,7.902-28.562,22.918v155.047c0,18.124,5.636,35.801,16.128,50.58l75.549,106.424h113.735V501.998z"/>
</g>
<path style="fill:#FF6E37;" d="M232.215,323.431v-9.12c0-10.994,8.912-19.905,19.905-19.905h14.013
	c10.994,0,19.905,8.912,19.905,19.905v9.12c0,10.994-8.912,19.905-19.905,19.905h-14.013
	C241.127,343.336,232.215,334.425,232.215,323.431z"/>
<g>
	<path style="fill:#4BB9F5;" d="M355.994,279.728h14.727c21.689,0,39.272-17.582,39.272-39.272l0,0
		c0-21.689-17.582-39.272-39.272-39.272h-14.727V279.728z"/>
	<path style="fill:#4BB9F5;" d="M141.274,279.728h14.727v-78.543h-14.727c-21.689,0-39.272,17.582-39.272,39.272l0,0
		C102.002,262.146,119.585,279.728,141.274,279.728z"/>
	<path style="fill:#4BB9F5;" d="M141.274,279.728h14.727v-78.543h-15.457c-21.286,0-38.542,17.255-38.542,38.542v0.73
		C102.002,262.146,119.585,279.728,141.274,279.728z"/>
	<path style="fill:#4BB9F5;" d="M141.274,279.728h14.727v-78.543h-16.456c-20.733,0-37.542,16.808-37.542,37.542v1.73
		C102.002,262.146,119.585,279.728,141.274,279.728z"/>
</g>
<path d="M499.465,163.837c-7.96-6.387-18.237-8.781-28.202-6.571c-15.44,3.427-26.223,16.864-26.223,32.68v120.492
	c-11.723-11.955-30.579-13.983-44.604-4.553l-34.98,23.52c-32.196,21.647-54.314,54.481-62.281,92.452l-16.383,78.087
	c-1.134,5.405,2.328,10.706,7.733,11.84c0.692,0.145,1.384,0.215,2.063,0.215c4.632,0,8.788-3.236,9.777-7.949l16.383-78.087
	c6.891-32.84,26.02-61.238,53.867-79.961l34.98-23.52c6.235-4.194,14.7-3.115,19.685,2.512c5.628,6.354,5.703,15.661,0.347,22.091
	c-0.064,0.07-0.125,0.142-0.189,0.212L408.1,372.135c-13.197,14.028-24.665,26.239-24.846,26.431
	c-3.781,4.026-3.582,10.354,0.443,14.135c4.025,3.781,10.354,3.582,14.135-0.444c0.136-0.144,6.631-7.061,15.438-16.427
	c0.033-0.034,0.07-0.064,0.103-0.099l10.295-10.957c7.354-7.816,15.161-16.107,21.802-23.144c0.541-0.573,1.053-1.164,1.551-1.761
	c11.622-12.908,18.02-29.498,18.02-46.912V189.946c0-6.367,4.341-11.777,10.557-13.156c4.01-0.889,8.148,0.074,11.354,2.646
	c3.204,2.571,5.042,6.402,5.042,10.511v155.047c0,16.141-4.939,31.63-14.283,44.793l-17.832,25.12
	c-3.197,4.503-2.138,10.746,2.365,13.943c1.758,1.247,3.778,1.847,5.78,1.847c3.13,0,6.213-1.466,8.163-4.212l17.832-25.12
	c11.759-16.564,17.974-36.057,17.974-56.369V189.946C511.991,179.74,507.425,170.224,499.465,163.837z"/>
<path d="M451.916,443.436c-4.496-3.208-10.74-2.164-13.949,2.332l-0.064,0.09c-3.207,4.496-2.163,10.741,2.332,13.948
	c1.761,1.256,3.79,1.861,5.8,1.861c3.122,0,6.197-1.458,8.149-4.193l0.064-0.09C457.455,452.888,456.411,446.643,451.916,443.436z"
	/>
<path d="M431.157,472.637c-4.506-3.196-10.746-2.138-13.943,2.366L402.16,496.21c-3.197,4.503-2.138,10.746,2.365,13.943
	c1.758,1.247,3.778,1.847,5.78,1.847c3.13,0,6.213-1.466,8.163-4.212l15.055-21.206C436.719,482.077,435.66,475.834,431.157,472.637
	z"/>
<path d="M208.822,421.859c-7.967-37.971-30.086-70.804-62.281-92.452l-34.98-23.521c-14.026-9.429-32.881-7.402-44.604,4.553
	V189.946c0-15.815-10.783-29.254-26.222-32.68c-9.964-2.211-20.241,0.184-28.203,6.571c-7.96,6.387-12.525,15.904-12.525,26.109
	v155.047c0,20.312,6.216,39.805,17.974,56.369l75.549,106.424c1.95,2.747,5.032,4.212,8.163,4.212c2.002,0,4.023-0.6,5.78-1.847
	c4.503-3.197,5.563-9.439,2.365-13.943l-75.55-106.423c-9.344-13.163-14.283-28.651-14.283-44.793V189.946
	c0-4.108,1.838-7.939,5.042-10.511c3.204-2.57,7.341-3.536,11.354-2.645c6.215,1.379,10.556,6.789,10.556,13.156v123.012
	c0,17.413,6.398,34.004,18.02,46.912c0.498,0.597,1.01,1.188,1.551,1.761c6.641,7.037,14.449,15.329,21.802,23.144l10.295,10.957
	c0.033,0.035,0.069,0.065,0.103,0.099c8.807,9.367,15.302,16.283,15.438,16.427c3.78,4.025,10.11,4.225,14.135,0.444
	c4.025-3.781,4.225-10.109,0.443-14.135c-0.182-0.194-11.888-12.659-25.255-26.867L80.56,347.298
	c-0.058-0.062-0.111-0.127-0.169-0.189c-5.376-6.43-5.309-15.753,0.326-22.114c4.985-5.626,13.449-6.706,19.685-2.513l34.98,23.52
	c27.847,18.724,46.978,47.122,53.867,79.962l16.384,78.087c0.989,4.713,5.146,7.948,9.777,7.948c0.68,0,1.371-0.07,2.063-0.215
	c5.405-1.134,8.867-6.436,7.733-11.841L208.822,421.859z"/>
<path d="M295.532,328.872h38.004c18.031,0,32.702-14.67,32.702-32.702v-6.442h4.483c27.168,0,49.27-22.103,49.27-49.27
	c0-27.168-22.103-49.271-49.27-49.271h-4.728V169.26c0-52.519-42.728-95.247-95.247-95.247h-29.498
	c-15.708,0-31.28,3.908-45.034,11.3c-4.864,2.614-6.688,8.678-4.074,13.542c2.615,4.864,8.679,6.689,13.543,4.074
	c10.854-5.833,23.151-8.917,35.565-8.917h29.498c41.492,0,75.248,33.756,75.248,75.248l0.244,126.911
	c0,7.004-5.698,12.703-12.703,12.703h-38.004c-2.566-13.901-14.77-24.465-29.4-24.465h-14.013
	c-16.489,0-29.904,13.416-29.904,29.905v9.12c0,16.489,13.415,29.905,29.904,29.905h14.013
	C280.763,353.336,292.965,342.771,295.532,328.872z M370.721,211.184c16.141,0,29.271,13.132,29.271,29.272
	s-13.132,29.271-29.271,29.271h-4.483v-9.572c0-0.748-0.088-1.474-0.244-2.175v-17.882v-28.915L370.721,211.184L370.721,211.184z
	 M276.038,323.431c0,5.462-4.444,9.906-9.906,9.906H252.12c-5.462,0-9.905-4.444-9.905-9.906v-9.12c0-5.462,4.443-9.906,9.905-9.906
	h14.013c5.462,0,9.906,4.444,9.906,9.906V323.431z"/>
<path d="M141.274,289.728h14.727c5.522,0,10-4.477,10-10v-110.47c0-6.796,0.904-13.53,2.688-20.012
	c1.465-5.325-1.664-10.83-6.989-12.294c-5.323-1.467-10.829,1.665-12.294,6.989c-2.259,8.211-3.404,16.728-3.404,25.317v21.926
	h-4.727h-0.729h-1c-26.215,0-47.543,21.327-47.543,47.542v1v0.73C92.003,267.625,114.105,289.728,141.274,289.728z M146.001,211.184
	V240.1v29.629h-4.727c-16.141,0-29.272-13.131-29.272-29.271s13.132-29.272,29.272-29.272h4.727V211.184z"/>
<path d="M167.755,125.497c1.768,1.273,3.811,1.886,5.834,1.886c3.033,0,6.023-1.375,7.981-3.965
	c3.34-4.368,2.522-10.612-1.831-13.978c-4.36-3.373-10.633-2.574-14.016,1.777c-0.075,0.097-0.169,0.222-0.241,0.322
	C162.255,116.021,163.272,122.27,167.755,125.497z"/>
<path d="M255.999,55.29c5.522,0,10-4.477,10-10V10c0-5.523-4.478-10-10-10s-10,4.477-10,10v35.291
	C245.999,50.812,250.476,55.29,255.999,55.29z"/>
<path d="M190.306,68.837c1.953,1.953,4.512,2.929,7.071,2.929s5.118-0.976,7.071-2.929c3.905-3.905,3.905-10.237,0-14.143
	l-20.368-20.368c-3.906-3.905-10.236-3.905-14.143,0c-3.905,3.905-3.905,10.237,0,14.143L190.306,68.837z"/>
<path d="M313.938,71.682c2.559,0,5.118-0.977,7.071-2.929l21.05-21.049c3.905-3.905,3.905-10.237,0-14.142
	c-3.904-3.905-10.234-3.905-14.143,0l-21.05,21.049c-3.905,3.905-3.905,10.237,0,14.142
	C308.82,70.706,311.379,71.682,313.938,71.682z"/>
<path d="M220.703,198.101c-16.405,0-29.752,13.347-29.752,29.752v13.168c0,5.523,4.478,10,10,10h36.213c5.522,0,10-4.477,10-10
	c0-5.523-4.478-10-10-10H210.95v-3.168c0-5.378,4.375-9.753,9.753-9.753c14.591,0,26.46-11.87,26.46-26.459
	c0-14.591-11.87-26.46-26.46-26.46H200.95c-5.522,0-10,4.477-10,10c0,5.523,4.478,10,10,10h19.752c3.563,0,6.461,2.898,6.461,6.461
	C227.163,195.204,224.265,198.101,220.703,198.101z"/>
<path d="M274.923,162.285c-5.522,0-10,4.477-10,10v36.213c0,5.523,4.478,10,10,10h26.213v22.524c0,5.523,4.478,10,10,10
	s10-4.477,10-10v-68.737c0-5.523-4.478-10-10-10s-10,4.477-10,10v26.213h-16.213v-26.213
	C284.923,166.762,280.445,162.285,274.923,162.285z"/>
<g>
</g>
<g>
</g>
<g>
</g>
<g>
</g>
<g>
</g>
<g>
</g>
<g>
</g>
<g>
</g>
<g>
</g>
<g>
</g>
<g>
</g>
<g>
</g>
<g>
</g>
<g>
</g>
<g>
</g>
</svg>
