<?xml version="1.0" encoding="iso-8859-1"?>
<!-- Generator: Adobe Illustrator 19.0.0, SVG Export Plug-In . SVG Version: 6.00 Build 0)  -->
<svg version="1.1" id="Capa_1" xmlns="http://www.w3.org/2000/svg" xmlns:xlink="http://www.w3.org/1999/xlink" x="0px" y="0px"
	 viewBox="0 0 512.001 512.001" style="enable-background:new 0 0 512.001 512.001;" xml:space="preserve">
<polyline style="fill:#E6AA46;" points="147.809,394.659 117.224,425.243 86.585,394.603 117.169,364.019 "/>
<rect x="95.57" y="372.972" transform="matrix(-0.7071 0.7071 -0.7071 -0.7071 479.1146 590.8187)" style="fill:#FFFFFF;" width="43.25" height="43.33"/>
<rect x="23.838" y="403.904" transform="matrix(-0.7071 0.7071 -0.7071 -0.7071 431.614 706.0572)" style="fill:#FF6E37;" width="91.479" height="77.029"/>
<circle style="fill:#78D2FA;" cx="246.12" cy="265.879" r="158.88"/>
<circle style="fill:#FFFFFF;" cx="246.12" cy="265.879" r="105.92"/>
<path style="fill:#F0F0FA;" d="M458.501,10h-137c-24.024,0-43.5,19.476-43.5,43.5v89c0,24.024,19.476,43.5,43.5,43.5h66.32v38.751
	L426.819,186H458.5c24.024,0,43.5-19.476,43.5-43.5v-89C502.001,29.475,482.526,10,458.501,10z"/>
<path d="M246.121,361.802c-25.621,0-49.709-9.978-67.826-28.095c-37.399-37.399-37.399-98.252,0-135.651
	c5.729-5.729,12.131-10.703,19.03-14.785c4.753-2.813,6.326-8.946,3.514-13.699c-2.813-4.753-8.944-6.327-13.699-3.514
	c-8.34,4.935-16.073,10.942-22.987,17.855c-21.895,21.895-33.952,51.005-33.952,81.968s12.058,60.074,33.952,81.968
	c21.896,21.895,51.006,33.952,81.969,33.952s60.073-12.058,81.968-33.952c33.489-33.488,43.257-83.332,24.886-126.982
	c-2.143-5.09-8.009-7.479-13.096-5.337c-5.091,2.142-7.48,8.005-5.338,13.096c15.203,36.122,7.119,77.369-20.595,105.082
	C295.83,351.825,271.742,361.802,246.121,361.802z"/>
<path d="M231.065,171.03c0.464,0,0.934-0.033,1.405-0.099l0.188-0.026c5.469-0.769,9.279-5.826,8.51-11.295
	c-0.769-5.47-5.844-9.28-11.295-8.51l-0.188,0.026c-5.469,0.769-9.279,5.826-8.51,11.295
	C221.877,167.418,226.159,171.03,231.065,171.03z"/>
<path d="M405.002,255.882c-5.522,0-10,4.477-10,10c0,82.093-66.788,148.88-148.881,148.88S97.24,347.974,97.24,265.882
	s66.788-148.88,148.881-148.88c5.522,0,10-4.477,10-10s-4.478-10-10-10C153,97.001,77.24,172.761,77.24,265.882
	c0,35.097,10.766,67.724,29.162,94.762l-19.888,19.889l-4.758-4.758c-3.905-3.905-10.235-3.905-14.143,0L2.929,440.457
	c-3.905,3.905-3.905,10.237,0,14.142c3.905,3.906,10.235,3.906,14.143,0l57.613-57.613l40.328,40.328L57.4,494.929
	c-3.905,3.905-3.905,10.237,0,14.142c1.953,1.953,4.512,2.929,7.071,2.929s5.118-0.976,7.071-2.929l64.684-64.684
	c3.905-3.905,3.905-10.237,0-14.142l-4.93-4.93l19.857-19.858c27.078,18.483,59.782,29.305,94.969,29.305
	c93.121,0,168.881-75.759,168.881-168.88C415.002,260.359,410.525,255.882,405.002,255.882z M117.225,411.101l-16.498-16.498
	l17.989-17.989c5.111,5.873,10.622,11.388,16.487,16.508L117.225,411.101z"/>
<path d="M245.987,198.301c-21.716,0-39.384,17.667-39.384,39.384c0,5.523,4.478,10,10,10s10-4.477,10-10
	c0-10.688,8.695-19.384,19.384-19.384s19.384,8.695,19.384,19.384s-8.695,19.384-19.384,19.384c-5.522,0-10,4.477-10,10v19.543
	c0,5.523,4.478,10,10,10s10-4.477,10-10v-10.83c16.89-4.437,29.384-19.835,29.384-38.098
	C285.37,215.968,267.702,198.301,245.987,198.301z"/>
<path d="M253.061,330.41c1.86-1.86,2.931-4.44,2.931-7.07s-1.07-5.21-2.931-7.07c-1.859-1.86-4.439-2.93-7.08-2.93
	c-2.63,0-5.199,1.07-7.069,2.93c-1.86,1.86-2.931,4.44-2.931,7.07s1.07,5.21,2.931,7.07c1.87,1.86,4.439,2.93,7.069,2.93
	C248.621,333.34,251.201,332.27,253.061,330.41z"/>
<path d="M458.501,0h-137c-29.5,0-53.5,24-53.5,53.5v89c0,29.5,24,53.5,53.5,53.5h56.32v28.751c0,4.039,2.43,7.681,6.158,9.233
	c1.242,0.517,2.546,0.768,3.84,0.768c2.592,0,5.14-1.008,7.051-2.907L430.943,196h27.558c29.5,0,53.5-24,53.5-53.5v-89
	C512.001,24,488.001,0,458.501,0z M492.001,142.5c0,18.472-15.028,33.5-33.5,33.5H426.82c-2.642,0-5.175,1.045-7.049,2.907
	l-21.949,21.811v-14.717c0-5.523-4.478-10-10-10h-66.32c-18.472,0-33.5-15.028-33.5-33.5v-89c0-18.472,15.028-33.5,33.5-33.5h137
	c18.472,0,33.5,15.028,33.5,33.5L492.001,142.5L492.001,142.5z"/>
<path d="M457.705,72c0-5.523-4.478-10-10-10H332.297c-5.522,0-10,4.477-10,10s4.478,10,10,10h115.408
	C453.228,82,457.705,77.523,457.705,72z"/>
<path d="M447.701,118c-2.631,0-5.21,1.07-7.07,2.93c-1.86,1.86-2.93,4.44-2.93,7.07s1.069,5.21,2.93,7.07
	c1.87,1.86,4.439,2.93,7.07,2.93c2.63,0,5.21-1.07,7.069-2.93c1.87-1.86,2.94-4.44,2.94-7.07c0-2.63-1.07-5.21-2.94-7.07
	C452.911,119.07,450.341,118,447.701,118z"/>
<path d="M410.668,118h-78.371c-5.522,0-10,4.477-10,10s4.478,10,10,10h78.371c5.522,0,10-4.477,10-10S416.191,118,410.668,118z"/>
<g>
</g>
<g>
</g>
<g>
</g>
<g>
</g>
<g>
</g>
<g>
</g>
<g>
</g>
<g>
</g>
<g>
</g>
<g>
</g>
<g>
</g>
<g>
</g>
<g>
</g>
<g>
</g>
<g>
</g>
</svg>
