<?xml version="1.0" encoding="iso-8859-1"?>
<!-- Generator: Adobe Illustrator 19.0.0, SVG Export Plug-In . SVG Version: 6.00 Build 0)  -->
<svg version="1.1" id="Capa_1" xmlns="http://www.w3.org/2000/svg" xmlns:xlink="http://www.w3.org/1999/xlink" x="0px" y="0px"
	 viewBox="0 0 512.001 512.001" style="enable-background:new 0 0 512.001 512.001;" xml:space="preserve">
<path style="fill:#F5B955;" d="M309.721,490.461l10.419,11.541l64.453-26.734l-0.794-15.543
	c-1.044-20.438,6.619-40.362,21.09-54.833l0,0c14.471-14.471,34.395-22.134,54.833-21.09l15.543,0.794l26.734-64.453l-11.541-10.419
	c-15.2-13.723-23.875-33.242-23.875-53.72l0,0c0-20.478,8.675-39.997,23.875-53.72l11.541-10.42l-26.734-64.453l-15.543,0.794
	c-20.438,1.044-40.362-6.619-54.833-21.09l0,0c-14.471-14.471-22.134-34.395-21.09-54.833l0.794-15.543L320.14,10.005
	l-10.433,11.556c-13.714,15.19-33.221,23.86-53.686,23.86h-0.041c-20.465,0-39.972-8.67-53.686-23.86l-10.433-11.556l-64.453,26.734
	l0.794,15.543c1.044,20.438-6.619,40.362-21.09,54.833l0,0c-14.471,14.471-34.395,22.134-54.833,21.09l-15.543-0.794l-26.734,64.453
	l11.556,10.433c15.19,13.714,23.86,33.221,23.86,53.686v0.041c0,20.465-8.67,39.972-23.86,53.686l-11.557,10.431l26.734,64.453
	l15.543-0.794c20.438-1.044,40.362,6.619,54.833,21.09l0,0c14.471,14.471,22.134,34.395,21.09,54.833l-0.794,15.543L191.86,502
	l10.419-11.541c13.723-15.2,33.242-23.875,53.72-23.875l0,0C276.479,466.586,295.998,475.261,309.721,490.461z"/>
<circle style="fill:#FFFFFF;" cx="256.08" cy="256.001" r="160"/>
<path d="M508.702,312.719L497.161,302.3c-13.076-11.806-20.576-28.681-20.576-46.298c0-17.618,7.5-34.492,20.576-46.298
	l11.541-10.419c3.142-2.836,4.157-7.344,2.536-11.253l-26.733-64.453c-1.62-3.906-5.521-6.381-9.747-6.156l-15.544,0.793
	c-17.6,0.893-34.805-5.727-47.252-18.174c-12.448-12.448-19.072-29.671-18.174-47.253l0.793-15.543
	c0.215-4.224-2.25-8.126-6.156-9.746L323.971,0.765c-3.912-1.623-8.418-0.606-11.254,2.536l-10.433,11.556
	c-11.797,13.066-28.659,20.561-46.305,20.561c-17.604,0-34.466-7.494-46.263-20.561L199.284,3.301
	c-2.837-3.142-7.344-4.158-11.254-2.536l-64.453,26.734c-3.907,1.62-6.372,5.523-6.156,9.747l0.794,15.543
	c0.898,17.581-5.726,34.804-18.174,47.252s-29.676,19.071-47.253,18.174l-15.543-0.793c-4.21-0.221-8.126,2.249-9.747,6.155
	L0.763,188.031c-1.621,3.91-0.605,8.417,2.536,11.254l11.557,10.433c13.066,11.797,20.561,28.659,20.561,46.305
	c0,17.604-7.494,34.467-20.561,46.263L3.299,312.719c-3.142,2.837-4.157,7.344-2.536,11.254l26.734,64.453
	c1.62,3.906,5.536,6.368,9.747,6.155l15.543-0.794c17.59-0.889,34.804,5.727,47.253,18.175
	c12.448,12.448,19.072,29.67,18.174,47.251l-0.794,15.543c-0.216,4.224,2.249,8.127,6.156,9.747l64.453,26.734
	c3.909,1.622,8.416,0.605,11.254-2.536l10.42-11.541c11.805-13.077,28.68-20.576,46.297-20.576c17.618,0,34.493,7.5,46.298,20.576
	l10.419,11.541c1.937,2.145,4.652,3.299,7.426,3.299c1.288,0,2.588-0.249,3.828-0.764l64.453-26.734
	c3.906-1.62,6.371-5.522,6.156-9.746l-0.793-15.544c-0.898-17.581,5.726-34.804,18.174-47.252
	c12.447-12.448,29.654-19.065,47.252-18.175l15.544,0.794c4.203,0.217,8.127-2.249,9.747-6.156l26.733-64.453
	C512.859,320.063,511.843,315.556,508.702,312.719z M468.733,374.248l-8.5-0.434c-23.201-1.186-45.972,7.564-62.414,24.006
	s-25.191,39.192-24.006,62.414l0.434,8.499l-51.415,21.326l-5.688-6.3c-15.591-17.27-37.877-27.174-61.144-27.174
	c-23.266,0-45.552,9.904-61.143,27.174l-5.688,6.3l-51.416-21.327l0.435-8.499c1.186-23.223-7.564-45.973-24.007-62.415
	c-16.442-16.442-39.179-25.192-62.414-24.006l-8.499,0.434L21.942,322.83l6.315-5.701c17.26-15.582,27.158-37.855,27.158-61.15
	c0-23.253-9.898-45.526-27.158-61.109l-6.315-5.701l21.326-51.416l8.499,0.434c23.208,1.191,45.972-7.563,62.415-24.006
	c16.442-16.442,25.191-39.192,24.006-62.415l-0.435-8.499l51.416-21.326l5.701,6.315c15.583,17.259,37.855,27.158,61.149,27.158
	c23.253,0,45.527-9.899,61.109-27.159l5.701-6.315l51.415,21.326l-0.434,8.499c-1.186,23.223,7.563,45.972,24.006,62.415
	c16.442,16.442,39.186,25.193,62.414,24.005l8.5-0.434l21.325,51.416l-6.3,5.688c-17.27,15.59-27.174,37.876-27.174,61.143
	c0,23.265,9.904,45.551,27.174,61.143l6.3,5.688L468.733,374.248z"/>
<path d="M196.411,265.309c21.359,0,38.736-17.377,38.736-38.736s-17.377-38.736-38.736-38.736h-34.483c-5.522,0-10,4.477-10,10
	s4.478,10,10,10h34.483c10.331,0,18.736,8.405,18.736,18.736s-8.405,18.736-18.736,18.736c-24.528,0-44.483,19.955-44.483,44.483
	v22.989c0,5.523,4.478,10,10,10h63.22c5.522,0,10-4.477,10-10s-4.478-10-10-10h-53.22v-12.989
	C171.927,276.293,182.911,265.309,196.411,265.309z"/>
<path d="M266.081,256.002c0,5.523,4.478,10,10,10h53.221v46.78c0,5.523,4.478,10,10,10s10-4.477,10-10v-120c0-5.523-4.478-10-10-10
	s-10,4.477-10,10v53.22h-43.221v-53.22c0-5.523-4.478-10-10-10s-10,4.477-10,10V256.002z"/>
<path d="M391.048,169.431c-4.824,2.688-6.556,8.779-3.867,13.604c32.447,58.224,22.151,131.845-25.037,179.034
	c-28.334,28.334-65.995,43.934-106.063,43.934c-0.026,0-0.053,0.002-0.084,0c-5.521,0-9.997,4.474-10,9.995
	c-0.003,5.522,4.472,10.002,9.995,10.005c0.03,0,0.059,0,0.09,0c45.407,0,88.095-17.681,120.205-49.792
	c26.678-26.678,43.387-60.501,48.318-97.813c4.774-36.118-2.312-73.442-19.953-105.099
	C401.962,168.474,395.872,166.744,391.048,169.431z"/>
<path d="M362.213,150.004c1.944,1.925,4.477,2.886,7.012,2.886c2.56,0,5.122-0.98,7.079-2.938c3.905-3.905,3.888-10.254-0.018-14.16
	c-3.906-3.905-10.236-3.905-14.143,0c-3.905,3.905-3.905,10.237,0,14.143C362.161,149.953,362.189,149.981,362.213,150.004z"/>
<path d="M150.012,149.935c28.334-28.334,65.995-43.934,106.063-43.934c0.026,0,0.057,0.002,0.084,0c5.521,0,9.997-4.474,10-9.995
	c0.003-5.522-4.472-10.002-9.995-10.005c-0.03,0-0.059,0-0.09,0c-45.407,0-88.095,17.681-120.205,49.791
	c-26.678,26.678-43.387,60.501-48.318,97.813c-4.774,36.118,2.312,73.442,19.953,105.099c1.83,3.283,5.234,5.134,8.744,5.134
	c1.647,0,3.318-0.408,4.859-1.267c4.824-2.688,6.556-8.779,3.867-13.604C92.528,270.746,102.824,197.124,150.012,149.935z"/>
<path d="M149.943,361.999c-3.907-3.87-10.195-3.845-14.091,0.051c-3.905,3.905-3.888,10.254,0.018,14.16
	c1.953,1.953,4.512,2.929,7.071,2.929s5.118-0.976,7.071-2.929c3.905-3.905,3.905-10.237,0-14.143
	C149.995,362.05,149.966,362.022,149.943,361.999z"/>
<g>
</g>
<g>
</g>
<g>
</g>
<g>
</g>
<g>
</g>
<g>
</g>
<g>
</g>
<g>
</g>
<g>
</g>
<g>
</g>
<g>
</g>
<g>
</g>
<g>
</g>
<g>
</g>
<g>
</g>
</svg>
