<?xml version="1.0" encoding="iso-8859-1"?>
<!-- Generator: Adobe Illustrator 19.0.0, SVG Export Plug-In . SVG Version: 6.00 Build 0)  -->
<svg version="1.1" id="Capa_1" xmlns="http://www.w3.org/2000/svg" xmlns:xlink="http://www.w3.org/1999/xlink" x="0px" y="0px"
	 viewBox="0 0 511.999 511.999" style="enable-background:new 0 0 511.999 511.999;" xml:space="preserve">
<rect x="194.019" y="461.989" style="fill:#46C373;" width="160.041" height="40.01"/>
<path style="fill:#78D2FA;" d="M157.974,270.14h-46.012c-16.611,0-30.077-13.465-30.077-30.077V40.079
	c0-16.611,13.465-30.077,30.077-30.077h288.074c16.611,0,30.077,13.465,30.077,30.077v199.984c0,16.611-13.465,30.077-30.077,30.077
	l0,0H157.974z"/>
<path d="M255.999,58.573c-2.631,0-5.211-1.07-7.072-2.931c-1.86-1.86-2.931-4.441-2.931-7.072c0-2.641,1.069-5.211,2.931-7.072
	c1.86-1.87,4.441-2.931,7.072-2.931c2.631,0,5.211,1.06,7.071,2.931c1.86,1.86,2.932,4.441,2.932,7.072s-1.07,5.201-2.932,7.072
	C261.21,57.502,258.63,58.573,255.999,58.573z"/>
<path style="fill:#FFCDAC;" d="M340.555,461.987l10.9-34.757c5.427-17.307,8.189-35.34,8.189-53.479v-52.142
	c0-10.262-8.318-18.58-18.58-18.58l0,0c-10.262,0-18.58,8.318-18.58,18.58v9.62v-9.62v-21.747c0-10.262-8.318-18.58-18.58-18.58l0,0
	c-10.262,0-18.58,8.318-18.58,18.58v31.367v-46.137c0-10.262-8.318-18.58-18.58-18.58l0,0c-10.262,0-18.58,8.318-18.58,18.58v46.137
	v-95.264c0-10.262-8.318-18.58-18.58-18.58l0,0c-10.262,0-18.58,8.318-18.58,18.58v120.902l-21.82-40.404
	c-5.04-9.333-16.592-12.96-26.063-8.183l0,0c-8.121,4.097-12.355,13.244-10.222,22.087l14.146,58.634
	c3.051,12.645,8.572,24.561,16.247,35.064l27.712,37.922L340.555,461.987L340.555,461.987z"/>
<path d="M363.716,277.209c1.86-1.86,2.932-4.441,2.932-7.072s-1.07-5.211-2.932-7.072c-1.859-1.86-4.44-2.931-7.071-2.931
	c-2.631,0-5.211,1.07-7.072,2.931c-1.861,1.86-2.931,4.441-2.931,7.072s1.069,5.211,2.931,7.072c1.86,1.87,4.441,2.931,7.072,2.931
	C359.276,280.14,361.856,279.079,363.716,277.209z"/>
<path d="M400.036,0H111.962C89.861,0,71.883,17.98,71.883,40.079v199.985c0,22.1,17.98,40.079,40.079,40.079h46.012
	c5.523,0,10.003-4.478,10.003-10.003s-4.479-10.003-10.003-10.003h-46.012c-11.069,0-20.074-9.005-20.074-20.074V40.079
	c0-11.069,9.005-20.074,20.074-20.074h288.074c11.069,0,20.074,9.005,20.074,20.074v199.985c0,11.069-9.005,20.074-20.074,20.074
	c-5.523,0-10.003,4.478-10.003,10.003s4.479,10.003,10.003,10.003c22.101,0,40.079-17.98,40.079-40.079V40.079
	C440.115,17.98,422.137,0,400.036,0z"/>
<path d="M227.381,159.909c-5.523,0-10.003,4.478-10.003,10.003c0,5.524,4.479,10.003,10.003,10.003h57.238
	c5.523,0,10.003-4.478,10.003-10.003c0-5.524-4.479-10.003-10.003-10.003h-18.616V84.89c0-5.524-4.479-10.003-10.003-10.003h-18.338
	c-5.523,0-10.003,4.478-10.003,10.003c0,5.524,4.479,10.003,10.003,10.003h8.335v65.017H227.381z"/>
<path d="M430.113,491.995h-66.055v-30.008c0-5.484-4.416-9.933-9.885-9.997L361,430.223c5.737-18.298,8.647-37.298,8.647-56.473
	v-52.142c0-15.76-12.821-28.582-28.582-28.582c-3.176,0-6.229,0.528-9.085,1.489c-2.511-13.213-14.141-23.236-28.074-23.236
	c-3.913,0-7.643,0.792-11.042,2.222c-4.456-9.999-14.482-16.99-26.117-16.99c-2.987,0-5.867,0.462-8.576,1.316v-21.862
	c0-15.76-12.821-28.582-28.582-28.582s-28.582,12.821-28.582,28.582v81.328l-3.016-5.584c-7.668-14.201-24.961-19.626-39.369-12.359
	c-12.329,6.22-18.679,19.939-15.44,33.363l14.146,58.634c3.377,14,9.398,26.993,17.895,38.62l16.323,22.338
	c-4.326,1.102-7.531,5.012-7.531,9.682v30.008H81.885c-5.523,0-10.003,4.478-10.003,10.003c0,5.524,4.479,10.003,10.003,10.003
	h348.229c5.523,0,10.003-4.478,10.003-10.003C440.116,496.472,435.637,491.995,430.113,491.995z M176.772,386.655l-14.146-58.634
	c-1.049-4.35,1.008-8.794,5.003-10.811c4.674-2.356,10.274-0.595,12.757,4.004l21.819,40.404c2.176,4.03,6.813,6.066,11.252,4.945
	c4.44-1.122,7.552-5.117,7.552-9.698V235.965c0-4.729,3.848-8.577,8.577-8.577c4.729,0,8.577,3.848,8.577,8.577v95.264
	c0,5.524,4.479,10.003,10.003,10.003c5.523,0,10.003-4.478,10.003-10.003v-46.137c0-4.729,3.848-8.577,8.576-8.577
	c4.73,0,8.577,3.848,8.577,8.577v46.137c0,5.524,4.479,10.003,10.003,10.003s10.003-4.478,10.003-10.003v-31.367
	c0-4.729,3.848-8.577,8.576-8.577c4.73,0,8.577,3.848,8.577,8.577v31.367c0,5.524,4.479,10.003,10.003,10.003
	s10.003-4.478,10.003-10.003v-9.62c0-4.729,3.848-8.577,8.576-8.577c4.73,0,8.577,3.848,8.577,8.577v52.142
	c0,17.141-2.602,34.128-7.731,50.486l-8.702,27.748h-117.12l-24.714-33.822C184.44,408.677,179.527,398.076,176.772,386.655z
	 M204.017,471.99h6.99c0.003,0,0.006,0,0.009,0c0.004,0,0.009,0,0.013,0h129.465c0.022,0,0.044,0.002,0.065,0.002
	c0.021,0,0.041-0.002,0.061-0.002h3.434v20.005H204.018V471.99H204.017z"/>
<g>
</g>
<g>
</g>
<g>
</g>
<g>
</g>
<g>
</g>
<g>
</g>
<g>
</g>
<g>
</g>
<g>
</g>
<g>
</g>
<g>
</g>
<g>
</g>
<g>
</g>
<g>
</g>
<g>
</g>
</svg>
