<?xml version="1.0" encoding="iso-8859-1"?>
<!-- Generator: Adobe Illustrator 19.0.0, SVG Export Plug-In . SVG Version: 6.00 Build 0)  -->
<svg version="1.1" id="Capa_1" xmlns="http://www.w3.org/2000/svg" xmlns:xlink="http://www.w3.org/1999/xlink" x="0px" y="0px"
	 viewBox="0 0 512.001 512.001" style="enable-background:new 0 0 512.001 512.001;" xml:space="preserve">
<path style="fill:#FFF0AA;" d="M74.164,116.121h272.602c35.424,0,64.142,28.717,64.142,64.142v178.383
	c0,35.424-28.717,64.142-64.142,64.142H190.421v57.126l-57.49-57.126H74.164c-35.424,0-64.142-28.717-64.142-64.142V180.263
	C10.022,144.838,38.74,116.121,74.164,116.121z"/>
<path style="fill:#91E696;" d="M437.836,32.09H165.234c-35.424,0-64.142,28.717-64.142,64.142v168.372
	c0,35.424,28.717,64.142,64.142,64.142h156.345v57.126l57.49-57.126h58.767c35.424,0,64.142-28.717,64.142-64.142V96.232
	C501.978,60.808,473.26,32.09,437.836,32.09z"/>
<path d="M437.836,22.068h-99.553c-5.534,0-10.022,4.488-10.022,10.022s4.488,10.022,10.022,10.022h99.553
	c29.841,0,54.12,24.279,54.12,54.12v168.372c0,29.841-24.279,54.12-54.12,54.12h-58.767c-2.648,0-5.186,1.047-7.065,2.912
	l-40.403,40.149v-33.039c0-5.534-4.488-10.022-10.022-10.022H165.234c-29.841,0-54.12-24.279-54.12-54.12V96.232
	c0-29.841,24.279-54.12,54.12-54.12h95.544c5.534,0,10.022-4.488,10.022-10.022s-4.488-10.022-10.022-10.022h-95.544
	c-40.894,0-74.164,33.269-74.164,74.164v9.867H74.164C33.269,106.099,0,139.368,0,180.263v178.383
	c0,40.894,33.269,74.164,74.164,74.164h54.635l54.559,54.214c1.915,1.902,4.469,2.912,7.067,2.912c1.297,0,2.605-0.252,3.848-0.77
	c3.737-1.554,6.172-5.204,6.172-9.252V432.81h146.323c40.894,0,74.164-33.269,74.164-74.164v-19.878h16.906
	c40.894,0,74.164-33.269,74.164-74.164V96.232C512,55.338,478.731,22.068,437.836,22.068z M400.886,358.646
	c0,29.841-24.279,54.12-54.12,54.12H190.421c-5.534,0-10.022,4.488-10.022,10.022v33.039l-40.403-40.149
	c-1.878-1.865-4.417-2.912-7.065-2.912H74.164c-2.033,0-4.038-0.122-6.013-0.342V352.78c0-5.534-4.488-10.022-10.022-10.022
	s-10.022,4.488-10.022,10.022v53.281c-16.713-9.221-28.062-27.016-28.062-47.416V180.263c0-29.841,24.279-54.12,54.12-54.12H91.07
	v138.461c0,40.894,33.269,74.164,74.164,74.164h146.323v47.104c0,4.048,2.435,7.699,6.172,9.252c1.245,0.518,2.552,0.77,3.849,0.77
	c2.598,0,5.151-1.01,7.067-2.912l54.559-54.214h17.683V358.646z"/>
<path d="M301.535,42.11c2.636,0,5.222-1.063,7.085-2.937c1.864-1.863,2.938-4.449,2.938-7.085c0-2.636-1.072-5.222-2.938-7.086
	c-1.863-1.864-4.44-2.936-7.085-2.936c-2.636,0-5.222,1.071-7.086,2.936s-2.936,4.45-2.936,7.086c0,2.636,1.071,5.222,2.936,7.085
	C296.314,41.047,298.899,42.11,301.535,42.11z"/>
<path d="M239.14,245.595c1.158,0.434,2.344,0.639,3.512,0.639c4.06,0,7.88-2.484,9.388-6.511l14.824-39.594h35.632l14.825,39.595
	c1.94,5.181,7.71,7.812,12.901,5.871c5.183-1.941,7.812-7.716,5.871-12.9l-42.027-112.248c-1.465-3.914-5.207-6.507-9.386-6.507
	c-4.179,0-7.92,2.594-9.386,6.508l-42.026,112.248C231.327,237.879,233.956,243.655,239.14,245.595z M284.68,152.544l10.312,27.54
	h-20.623L284.68,152.544z"/>
<path d="M437.497,154.299c0-22.254-18.105-40.36-40.36-40.36s-40.36,18.105-40.36,40.36v51.572c0,22.255,18.105,40.36,40.36,40.36
	c8.302,0,16.026-2.523,22.45-6.838l3.89,3.897c1.957,1.96,4.525,2.941,7.093,2.941c2.563,0,5.124-0.977,7.081-2.929
	c3.917-3.911,3.923-10.256,0.012-14.174l-4.698-4.707c2.889-5.558,4.533-11.864,4.533-18.55L437.497,154.299L437.497,154.299z
	 M410.418,201.835c-3.91-3.916-10.256-3.921-14.174-0.012c-3.917,3.911-3.923,10.256-0.012,14.174l8.637,8.652
	c-2.385,0.985-4.994,1.537-7.731,1.537c-11.203,0-20.316-9.114-20.316-20.316v-51.572c0-11.202,9.114-20.316,20.316-20.316
	c11.202,0,20.316,9.114,20.316,20.316v51.572c0,0.951-0.088,1.88-0.215,2.797L410.418,201.835z"/>
<path d="M178.99,133.983h30.071c5.534,0,10.022-4.488,10.022-10.022s-4.488-10.022-10.022-10.022H178.99
	c-13.526,0-24.53,11.017-24.53,24.559v97.711c0,5.534,4.488,10.022,10.022,10.022c5.534,0,10.022-4.488,10.022-10.022v-36.081
	h34.556c5.534,0,10.022-4.488,10.022-10.022s-4.488-10.022-10.022-10.022h-34.556v-41.586
	C174.505,136.009,176.517,133.983,178.99,133.983z"/>
<path d="M58.127,305.171c-2.636,0-5.222,1.072-7.086,2.938c-1.863,1.863-2.936,4.449-2.936,7.085c0,2.636,1.072,5.222,2.936,7.086
	c1.864,1.864,4.45,2.936,7.086,2.936c2.636,0,5.222-1.071,7.086-2.936c1.863-1.864,2.936-4.45,2.936-7.086
	c0-2.636-1.072-5.222-2.936-7.085C63.349,306.243,60.763,305.171,58.127,305.171z"/>
<g>
</g>
<g>
</g>
<g>
</g>
<g>
</g>
<g>
</g>
<g>
</g>
<g>
</g>
<g>
</g>
<g>
</g>
<g>
</g>
<g>
</g>
<g>
</g>
<g>
</g>
<g>
</g>
<g>
</g>
</svg>
