<?xml version="1.0" encoding="iso-8859-1"?>
<!-- Generator: Adobe Illustrator 19.0.0, SVG Export Plug-In . SVG Version: 6.00 Build 0)  -->
<svg version="1.1" id="Capa_1" xmlns="http://www.w3.org/2000/svg" xmlns:xlink="http://www.w3.org/1999/xlink" x="0px" y="0px"
	 viewBox="0 0 512 512" style="enable-background:new 0 0 512 512;" xml:space="preserve">
<rect x="92.41" y="462" style="fill:#FF8C8C;" width="160" height="40"/>
<path style="fill:#91E696;" d="M255.917,326.442L255.917,326.442L255.917,326.442c0-11.29-9.152-20.442-20.442-20.442H43.917V10
	h191.558c11.29,0,20.442,9.152,20.442,20.442V326.442z"/>
<path style="fill:#C8F5FF;" d="M256,326.442L256,326.442L256,326.442c0-11.29,9.152-20.442,20.442-20.442H468V10H276.442
	C265.152,10,256,19.152,256,30.442V326.442z"/>
<path style="fill:#FFCDAC;" d="M236.917,462l10.897-34.748C253.24,409.948,256,391.92,256,373.786v-52.129
	c0-10.259-8.316-18.575-18.575-18.575l0,0c-10.259,0-18.575,8.316-18.575,18.575v9.618v-9.618v-21.741
	c0-10.259-8.316-18.575-18.575-18.575l0,0c-10.259,0-18.575,8.316-18.575,18.575v6.64v24.72V285.15
	c0-10.259-8.316-18.575-18.575-18.575l0,0c-10.259,0-18.575,8.316-18.575,18.575v46.125v-95.239
	c0-10.259-8.316-18.575-18.575-18.575l0,0c-10.259,0-18.575,8.316-18.575,18.575v120.871l-21.814-40.394
	c-5.039-9.331-16.588-12.957-26.056-8.181l0,0c-8.119,4.096-12.352,13.241-10.219,22.081l14.142,58.619
	c3.05,12.642,8.57,24.555,16.243,35.055L107.402,462H236.917z"/>
<path d="M301.259,54H301c-5.522,0-10,4.478-10,10s4.478,10,10,10h0.259c5.522,0,10-4.478,10-10S306.781,54,301.259,54z"/>
<path d="M424.946,74c5.522,0,10-4.478,10-10s-4.478-10-10-10H337c-5.522,0-10,4.478-10,10s4.478,10,10,10H424.946z"/>
<path d="M291.259,124c0,5.522,4.478,10,10,10h123.688c5.522,0,10-4.478,10-10s-4.478-10-10-10H301.259
	C295.736,114,291.259,118.478,291.259,124z"/>
<path d="M424.946,174H301.259c-5.522,0-10,4.478-10,10s4.478,10,10,10h123.688c5.522,0,10-4.478,10-10S430.469,174,424.946,174z"/>
<path d="M424.946,234h-0.259c-5.522,0-10,4.478-10,10s4.478,10,10,10h0.259c5.522,0,10-4.478,10-10S430.469,234,424.946,234z"/>
<path d="M301,254h87.946c5.522,0,10-4.478,10-10s-4.478-10-10-10H301c-5.522,0-10,4.478-10,10S295.478,254,301,254z"/>
<path d="M151.874,136.822c18.348-4.497,32-21.083,32-40.797c0-23.159-18.841-42-42-42s-42,18.841-42,42c0,5.522,4.478,10,10,10
	s10-4.478,10-10c0-12.131,9.869-22,22-22s22,9.869,22,22s-9.869,22-22,22c-5.522,0-10,4.478-10,10v21.283c0,5.522,4.478,10,10,10
	s10-4.478,10-10V136.822z"/>
<path d="M141.87,176.31c-2.63,0-5.21,1.07-7.07,2.931c-1.86,1.859-2.93,4.439-2.93,7.069s1.069,5.21,2.93,7.07s4.44,2.93,7.07,2.93
	c2.64,0,5.21-1.069,7.069-2.93c1.87-1.86,2.931-4.44,2.931-7.07s-1.061-5.21-2.931-7.069C147.08,177.38,144.51,176.31,141.87,176.31
	z"/>
<path d="M502,492H262.414v-30c0-5.522-4.478-10-10-10h-1.881l6.822-21.756c5.736-18.294,8.645-37.289,8.645-56.458v-47.344
	c0-5.758,4.685-10.442,10.442-10.442H468c5.522,0,10-4.478,10-10V10c0-5.522-4.478-10-10-10H276.442
	C268.581,0,261.407,2.994,256,7.903C250.593,2.994,243.419,0,235.558,0H43.917c-5.522,0-10,4.478-10,10v271.341
	c0,5.522,4.478,10,10,10s10-4.478,10-10V20h181.641C241.315,20,246,24.685,246,30.442V261c0,5.522,4.478,10,10,10s10-4.478,10-10
	V30.442C266,24.685,270.685,20,276.442,20H458v276H276.442c-6.833,0-13.146,2.263-18.232,6.079
	c-5.214-5.533-12.601-8.997-20.786-8.997c-3.175,0-6.227,0.528-9.083,1.489c-2.511-13.21-14.137-23.23-28.066-23.23
	c-3.911,0-7.641,0.792-11.039,2.22c-4.454-9.997-14.478-16.986-26.11-16.986c-2.986,0-5.866,0.462-8.574,1.316v-21.855
	c0-15.757-12.818-28.575-28.575-28.575c-15.756,0-28.574,12.818-28.574,28.575v81.309l-3.016-5.584
	c-7.668-14.196-24.958-19.623-39.359-12.357c-12.326,6.219-18.674,19.935-15.436,33.356l14.143,58.618
	c3.376,13.996,9.395,26.986,17.889,38.61l16.722,22.883c-3.493,1.56-5.931,5.057-5.931,9.129v30H10c-5.522,0-10,4.478-10,10
	s4.478,10,10,10h492c5.522,0,10-4.478,10-10S507.522,492,502,492z M73.176,386.688L59.033,328.07
	c-1.049-4.35,1.008-8.794,5.002-10.81c4.669-2.351,10.27-0.596,12.754,4.005l21.814,40.395c2.176,4.029,6.817,6.065,11.249,4.943
	c4.439-1.122,7.55-5.116,7.55-9.695V236.036c0-4.729,3.847-8.575,8.574-8.575c4.729,0,8.575,3.847,8.575,8.575v95.239
	c0,5.522,4.478,10,10,10s10-4.478,10-10V285.15c0-4.729,3.847-8.575,8.574-8.575c4.729,0,8.575,3.847,8.575,8.575v46.125
	c0,5.522,4.478,10,10,10s10-4.478,10-10v-31.359c0-4.729,3.847-8.575,8.574-8.575c4.729,0,8.575,3.847,8.575,8.575v31.359
	c0,5.522,4.478,10,10,10s10-4.478,10-10v-9.618c0-4.729,3.847-8.575,8.575-8.575s8.574,3.847,8.574,8.575v52.129
	c0,17.138-2.601,34.119-7.729,50.474L229.573,452H112.481l-24.709-33.813C80.842,408.705,75.931,398.106,73.176,386.688z
	 M102.414,472h4.979c0.006,0,0.011,0.001,0.017,0.001c0.009,0,0.017-0.001,0.025-0.001h129.406c0.026,0,0.052,0.003,0.078,0.003
	c0.024,0,0.048-0.003,0.073-0.003h5.421v20h-140L102.414,472L102.414,472z"/>
<g>
</g>
<g>
</g>
<g>
</g>
<g>
</g>
<g>
</g>
<g>
</g>
<g>
</g>
<g>
</g>
<g>
</g>
<g>
</g>
<g>
</g>
<g>
</g>
<g>
</g>
<g>
</g>
<g>
</g>
</svg>
