<?xml version="1.0" encoding="iso-8859-1"?>
<!-- Generator: Adobe Illustrator 19.0.0, SVG Export Plug-In . SVG Version: 6.00 Build 0)  -->
<svg version="1.1" id="Capa_1" xmlns="http://www.w3.org/2000/svg" xmlns:xlink="http://www.w3.org/1999/xlink" x="0px" y="0px"
	 viewBox="0 0 511.999 511.999" style="enable-background:new 0 0 511.999 511.999;" xml:space="preserve">
<path style="fill:#91E696;" d="M309.721,490.458l10.42,11.541l64.453-26.734l-0.794-15.543c-1.044-20.438,6.619-40.362,21.09-54.833
	l0,0c14.471-14.471,34.395-22.134,54.833-21.09l15.543,0.794l26.735-64.454L490.46,309.72c-15.2-13.723-23.875-33.242-23.875-53.72
	l0,0c0-20.478,8.675-39.997,23.875-53.72l11.541-10.42l-26.734-64.453l-15.543,0.794c-20.438,1.044-40.362-6.619-54.833-21.09l0,0
	c-14.471-14.471-22.134-34.395-21.09-54.833l0.794-15.543L320.141,9.999l-10.433,11.556c-13.714,15.19-33.221,23.86-53.686,23.86
	h-0.041c-20.465,0-39.972-8.67-53.686-23.86L191.862,9.999l-64.453,26.734l0.794,15.543c1.044,20.438-6.619,40.362-21.09,54.833l0,0
	c-14.471,14.471-34.395,22.134-54.833,21.09l-15.543-0.794L10.001,191.86l11.556,10.433c15.19,13.714,23.86,33.221,23.86,53.686
	v0.041c0,20.465-8.67,39.972-23.86,53.686l-11.556,10.433l26.734,64.453l15.543-0.794c20.438-1.044,40.362,6.619,54.833,21.09l0,0
	c14.471,14.471,22.134,34.395,21.09,54.833l-0.794,15.543l64.455,26.735l10.419-11.541c13.723-15.2,33.242-23.875,53.72-23.875l0,0
	C276.479,466.583,295.999,475.258,309.721,490.458z"/>
<path style="fill:#FFFFFF;" d="M256.234,111.423c-79.934,0-144.733,64.799-144.733,144.733c0,38.217,14.82,72.968,39.017,98.838l0,0
	l0.043,51.49l58.413-13.495c14.812,5.115,30.709,7.9,47.259,7.9c79.934,0,144.733-64.799,144.733-144.733
	S336.167,111.423,256.234,111.423z"/>
<path d="M320.143,511.999c-2.772,0-5.488-1.153-7.425-3.299l-10.419-11.541l0,0c-11.805-13.076-28.68-20.576-46.297-20.576
	c-17.618,0-34.492,7.5-46.298,20.576L199.285,508.7c-2.837,3.143-7.344,4.154-11.254,2.536l-64.454-26.734
	c-3.906-1.621-6.371-5.523-6.155-9.747l0.794-15.543c0.898-17.582-5.727-34.805-18.174-47.252
	c-12.448-12.448-29.671-19.09-47.252-18.175l-15.543,0.794c-4.238,0.205-8.127-2.25-9.747-6.156L0.764,323.97
	c-1.622-3.909-0.606-8.417,2.536-11.254l11.556-10.434c13.067-11.797,20.561-28.659,20.561-46.263
	c0-17.646-7.494-34.508-20.561-46.304L3.3,199.283c-3.142-2.837-4.157-7.345-2.536-11.254l26.734-64.453
	c1.62-3.906,5.522-6.37,9.747-6.156l15.543,0.794c17.579,0.91,34.804-5.726,47.251-18.175c12.448-12.447,19.073-29.67,18.175-47.252
	l-0.794-15.543c-0.216-4.224,2.249-8.126,6.155-9.747l64.454-26.734c3.908-1.62,8.417-0.606,11.254,2.536l10.433,11.557
	c11.796,13.066,28.659,20.561,46.263,20.561c17.645,0,34.508-7.494,46.304-20.561l10.433-11.557
	c2.837-3.141,7.345-4.155,11.254-2.536l64.454,26.734c3.906,1.621,6.371,5.523,6.155,9.747l-0.794,15.543
	c-0.898,17.581,5.727,34.804,18.175,47.252c12.447,12.449,29.677,19.086,47.252,18.175l15.543-0.794
	c4.224-0.232,8.127,2.25,9.747,6.156l26.734,64.453c1.622,3.909,0.606,8.417-2.536,11.254l-11.542,10.42
	c-13.076,11.806-20.576,28.68-20.576,46.297s7.5,34.491,20.576,46.297l11.542,10.42c3.142,2.837,4.158,7.345,2.536,11.254
	l-26.734,64.453c-1.62,3.906-5.514,6.378-9.747,6.156l-15.543-0.794c-17.582-0.905-34.804,5.727-47.252,18.175
	s-19.073,29.671-18.175,47.252l0.794,15.543c0.216,4.224-2.249,8.126-6.155,9.747l-64.454,26.734
	C322.732,511.75,321.431,511.999,320.143,511.999z M317.143,483.757l5.688,6.3l51.416-21.326l-0.434-8.499
	c-1.187-23.223,7.563-45.972,24.006-62.414c16.443-16.442,39.192-25.196,62.415-24.007l8.499,0.435l21.326-51.416l-6.3-5.688
	c-17.27-15.592-27.174-37.877-27.174-61.143s9.904-45.551,27.174-61.143l6.3-5.688l-21.326-51.416l-8.499,0.435
	c-23.221,1.198-45.972-7.564-62.415-24.007c-16.442-16.442-25.192-39.191-24.006-62.414l0.434-8.499l-51.416-21.325l-5.701,6.315
	c-15.582,17.26-37.855,27.158-61.109,27.158c-23.294,0-45.567-9.898-61.149-27.158l-5.701-6.315l-51.416,21.326l0.434,8.499
	c1.187,23.223-7.563,45.972-24.006,62.414c-16.441,16.443-39.186,25.202-62.414,24.007l-8.499-0.435l-21.327,51.416l6.315,5.701
	c17.26,15.582,27.159,37.855,27.159,61.108c0,23.294-9.899,45.566-27.159,61.149l-6.315,5.701l21.327,51.416l8.499-0.435
	c23.222-1.184,45.972,7.564,62.415,24.007s25.192,39.191,24.006,62.414l-0.434,8.499l51.416,21.326l5.688-6.3
	c15.59-17.27,37.876-27.174,61.143-27.174C279.267,456.583,301.553,466.488,317.143,483.757L317.143,483.757z"/>
<path d="M150.562,416.483c-2.238,0-4.436-0.752-6.222-2.171c-2.385-1.896-3.776-4.774-3.779-7.82l-0.04-47.621
	c-25.194-28.352-39.02-64.667-39.02-102.715c0-25.827,6.493-51.394,18.775-73.937c2.643-4.849,8.717-6.64,13.566-3.996
	c4.85,2.643,6.639,8.717,3.997,13.566c-10.688,19.615-16.338,41.872-16.338,64.366c0,34.291,12.899,66.966,36.32,92.007
	c1.731,1.851,2.695,4.289,2.697,6.822l0.033,38.927l46.172-10.667c1.831-0.423,3.742-0.321,5.515,0.291
	c14.127,4.879,28.929,7.353,43.995,7.353c74.292,0,134.733-60.44,134.733-134.732s-60.441-134.733-134.733-134.733
	c-24.12,0-47.781,6.446-68.424,18.642c-4.754,2.811-10.886,1.231-13.696-3.522c-2.809-4.755-1.232-10.888,3.523-13.696
	c23.722-14.015,50.9-21.423,78.597-21.423c85.32,0,154.733,69.413,154.733,154.733c0,85.319-69.413,154.732-154.733,154.732
	c-16.313,0-32.364-2.529-47.757-7.521l-55.664,12.859C152.068,416.399,151.312,416.483,150.562,416.483z"/>
<path d="M256.078,312.988c-5.523,0-10-4.478-10-10V263.18c0-5.522,4.477-10,10-10c20.953,0,38-17.047,38-38s-17.047-38-38-38
	s-38,17.047-38,38c0,5.522-4.477,10-10,10s-10-4.478-10-10c0-31.981,26.019-58,58-58s58,26.019,58,58
	c0,28.571-20.769,52.384-48,57.138v30.67C266.078,308.51,261.601,312.988,256.078,312.988z"/>
<path d="M256.078,354.819c-2.63,0-5.21-1.069-7.07-2.93c-1.86-1.859-2.93-4.439-2.93-7.07c0-2.63,1.07-5.21,2.93-7.069
	c1.86-1.86,4.44-2.931,7.07-2.931c2.63,0,5.21,1.07,7.07,2.931c1.86,1.859,2.93,4.439,2.93,7.069c0,2.631-1.07,5.211-2.93,7.07
	C261.288,353.749,258.708,354.819,256.078,354.819z"/>
<circle cx="153.901" cy="153.809" r="10"/>
<path d="M304.09,362.732c-3.679,0-7.218-2.037-8.965-5.556c-2.456-4.946-0.436-10.947,4.511-13.403
	c33.525-16.643,54.352-50.215,54.352-87.617c0-5.522,4.477-10,10-10s10,4.478,10,10c0,22.348-6.29,44.098-18.189,62.897
	c-11.573,18.285-27.919,33.028-47.27,42.634C307.1,362.396,305.583,362.732,304.09,362.732z"/>
<g>
</g>
<g>
</g>
<g>
</g>
<g>
</g>
<g>
</g>
<g>
</g>
<g>
</g>
<g>
</g>
<g>
</g>
<g>
</g>
<g>
</g>
<g>
</g>
<g>
</g>
<g>
</g>
<g>
</g>
</svg>
