<?xml version="1.0" encoding="iso-8859-1"?>
<!-- Generator: Adobe Illustrator 19.0.0, SVG Export Plug-In . SVG Version: 6.00 Build 0)  -->
<svg version="1.1" id="Capa_1" xmlns="http://www.w3.org/2000/svg" xmlns:xlink="http://www.w3.org/1999/xlink" x="0px" y="0px"
	 viewBox="0 0 512 512" style="enable-background:new 0 0 512 512;" xml:space="preserve">
<path style="fill:#78D2FA;" d="M384,10H128c-22.091,0-40,17.909-40,40v412c0,22.091,17.909,40,40,40h256c22.091,0,40-17.909,40-40
	V50C424,27.909,406.092,10,384,10z"/>
<rect x="134" y="74" style="fill:#FFFFFF;" width="244" height="330"/>
<path style="fill:#91E696;" d="M93.12,473.741L93.12,473.741c-9.213-3.878-19.638-3.672-28.69,0.568l-6.873,3.219l-23.935-24.234
	l3.301-6.843c4.34-8.997,4.666-19.412,0.896-28.663l0,0c-3.77-9.251-11.282-16.472-20.675-19.873L10,395.329l0.179-34.06
	l7.166-2.502c9.437-3.295,17.037-10.434,20.915-19.647l0,0c3.878-9.213,3.672-19.638-0.568-28.69l-3.219-6.873l24.234-23.935
	l6.843,3.301c8.997,4.34,19.412,4.666,28.663,0.896l0,0c9.251-3.77,16.472-11.282,19.873-20.675l2.586-7.143l34.06,0.179
	l2.502,7.166c3.295,9.437,10.434,17.037,19.647,20.915l0,0c9.213,3.878,19.638,3.672,28.69-0.568l6.873-3.219l23.935,24.234
	l-3.301,6.843c-4.34,8.997-4.666,19.412-0.896,28.663l0,0c3.77,9.251,11.282,16.472,20.675,19.873l7.143,2.586l-0.179,34.06
	l-7.166,2.502c-9.437,3.295-17.037,10.434-20.915,19.647l0,0c-3.878,9.213-3.672,19.638,0.568,28.69l3.219,6.873l-24.234,23.935
	l-6.843-3.301c-8.997-4.34-19.412-4.666-28.663-0.896l0,0c-9.251,3.77-16.472,11.282-19.873,20.675L149.329,502l-34.06-0.179
	l-2.502-7.166C109.472,485.219,102.333,477.619,93.12,473.741z"/>
<circle style="fill:#FFFFFF;" cx="133" cy="379" r="60"/>
<circle style="fill:#F0F0FA;" cx="256" cy="453" r="20"/>
<path style="fill:#F5B955;" d="M455.376,114H336.273c-25.75,0-46.624,20.874-46.624,46.624v60.134
	c0,25.75,20.874,46.624,46.624,46.624h41.297v33.219L411,267.383h44.376c25.75,0,46.624-20.874,46.624-46.624v-60.134
	C502,134.874,481.126,114,455.376,114z"/>
<path d="M212.764,32c-5.523,0-10,4.478-10,10s4.477,10,10,10h72c5.523,0,10-4.478,10-10s-4.477-10-10-10H212.764z"/>
<path d="M88,243.67c2.63,0,5.21-1.07,7.07-2.93c1.86-1.87,2.93-4.45,2.93-7.08s-1.07-5.2-2.93-7.07c-1.86-1.86-4.44-2.93-7.07-2.93
	s-5.21,1.069-7.07,2.93c-1.86,1.86-2.93,4.44-2.93,7.07c0,2.64,1.07,5.21,2.93,7.08C82.79,242.6,85.37,243.67,88,243.67z"/>
<path d="M88,203.999c5.523,0,10-4.478,10-10V50c0-16.542,13.458-30,30-30h256c16.542,0,30,13.458,30,30v14c0,5.522,4.477,10,10,10
	s10-4.478,10-10V50c0-27.57-22.43-50-50-50H128c-27.57,0-50,22.43-50,50v143.999C78,199.522,82.477,203.999,88,203.999z"/>
<path d="M256,463c-5.523,0-10,4.478-10,10s4.477,10,10,10c16.542,0,30-13.458,30-30s-13.458-30-30-30c-5.523,0-10,4.478-10,10
	s4.477,10,10,10c5.514,0,10,4.486,10,10S261.514,463,256,463z"/>
<path d="M63,379c0,38.598,31.402,70,70,70s70-31.402,70-70s-31.402-70-70-70S63,340.402,63,379z M183,379c0,27.57-22.43,50-50,50
	s-50-22.43-50-50s22.43-50,50-50S183,351.43,183,379z"/>
<path d="M455.376,104H388V74c0-5.522-4.477-10-10-10H134c-5.523,0-10,4.478-10,10v172.038L116.723,246c-0.018,0-0.035,0-0.053,0
	c-4.208,0-7.968,2.636-9.402,6.596l-2.586,7.144c-2.433,6.721-7.625,12.121-14.244,14.818c-6.618,2.697-14.106,2.464-20.544-0.642
	l-6.843-3.301c-3.81-1.836-8.362-1.079-11.372,1.892l-24.234,23.935c-3.012,2.975-3.825,7.523-2.029,11.356l3.219,6.873
	c3.034,6.479,3.183,13.976,0.407,20.569s-8.24,11.728-14.996,14.086l-7.166,2.503c-3.996,1.396-6.68,5.155-6.702,9.388L0,395.276
	c-0.022,4.229,2.619,8.015,6.595,9.455l7.145,2.587c6.72,2.434,12.122,7.625,14.818,14.243c2.698,6.619,2.464,14.108-0.642,20.546
	l-3.301,6.843c-1.837,3.81-1.08,8.362,1.892,11.372l23.935,24.233c2.974,3.011,7.522,3.823,11.356,2.028l6.873-3.22
	c6.478-3.033,13.976-3.182,20.569-0.406c6.593,2.775,11.727,8.24,14.085,14.995l2.502,7.165c1.396,3.996,5.156,6.681,9.389,6.703
	l34.061,0.18c0.018,0,0.035,0,0.053,0c4.208,0,7.968-2.636,9.402-6.596l2.586-7.144c2.433-6.721,7.625-12.121,14.244-14.818
	c6.618-2.697,14.106-2.464,20.544,0.642l6.843,3.301c3.812,1.838,8.363,1.08,11.372-1.892l24.234-23.935
	c3.012-2.975,3.825-7.523,2.029-11.356l-3.219-6.873c-3.034-6.479-3.183-13.976-0.407-20.569c1.417-3.366,3.538-6.348,6.17-8.779
	c0.124,0.005,0.246,0.019,0.372,0.019H378c5.523,0,10-4.478,10-10v-59.667c0-5.522-4.477-10-10-10s-10,4.478-10,10V394H265.836
	L266,362.724c0.022-4.229-2.619-8.016-6.595-9.455l-7.144-2.587c-6.721-2.434-12.122-7.625-14.819-14.243
	c-2.697-6.619-2.463-14.108,0.642-20.546l3.301-6.843c1.837-3.81,1.08-8.362-1.892-11.372l-23.935-24.233
	c-2.974-3.012-7.524-3.826-11.356-2.028l-6.873,3.22c-6.478,3.032-13.975,3.182-20.569,0.406
	c-6.593-2.775-11.727-8.24-14.085-14.995l-2.502-7.165c-1.396-3.996-5.156-6.681-9.389-6.703L144,246.143V84h224v20h-31.727
	c-31.223,0-56.625,25.401-56.625,56.624v60.135c0,31.223,25.402,56.624,56.625,56.624h31.296v23.219c0,4.039,2.43,7.682,6.159,9.232
	c1.241,0.517,2.545,0.768,3.839,0.768c2.592,0,5.14-1.008,7.051-2.906L414,278.499V462c0,16.542-13.458,30-30,30H240.32
	c-5.523,0-10,4.478-10,10s4.477,10,10,10H384c27.57,0,50-22.43,50-50V277.383h21.375c31.223,0,56.625-25.401,56.625-56.624v-60.135
	C512,129.401,486.598,104,455.376,104z M169.001,293.476c11.799,4.968,25.216,4.701,36.811-0.729l0.479-0.225l14.016,14.191
	l-0.236,0.489c-5.56,11.525-5.979,24.932-1.15,36.782c4.83,11.851,14.5,21.146,26.531,25.501l0.511,0.186l-0.104,19.946
	l-0.499,0.174c-12.087,4.221-21.868,13.408-26.835,25.208c-4.967,11.801-4.701,25.218,0.729,36.812l0.224,0.479l-14.191,14.017
	l-0.49-0.236c-11.526-5.56-24.934-5.979-36.781-1.149c-11.85,4.828-21.145,14.499-25.502,26.531l-0.185,0.511l-19.946-0.104
	l-0.174-0.499c-4.221-12.087-13.409-21.868-25.208-26.835c-11.799-4.968-25.217-4.702-36.811,0.729l-0.479,0.225l-14.016-14.191
	l0.236-0.489c5.56-11.525,5.979-24.933,1.149-36.782c-4.829-11.851-14.5-21.146-26.531-25.501l-0.511-0.186l0.104-19.946
	l0.499-0.174C32.728,363.987,42.509,354.8,47.476,343c4.967-11.801,4.701-25.218-0.729-36.812l-0.224-0.479l14.191-14.017
	l0.49,0.236c11.526,5.56,24.934,5.978,36.781,1.149c11.85-4.828,21.145-14.499,25.502-26.531l0.185-0.511l19.946,0.104l0.174,0.499
	C148.013,278.728,157.201,288.509,169.001,293.476z M455.376,257.383H411c-2.641,0-5.175,1.045-7.048,2.906l-16.382,16.278v-9.185
	c0-5.522-4.477-10-10-10h-41.296c-20.195,0-36.625-16.43-36.625-36.624v-60.135c0-20.194,16.43-36.624,36.625-36.624h119.103
	c14.211,0,26.549,8.142,32.618,20h-72.488c-5.523,0-10,4.478-10,10s4.477,10,10,10H492v56.759
	C492,240.953,475.57,257.383,455.376,257.383z"/>
<path d="M378,144c-2.63,0-5.21,1.069-7.07,2.93c-1.86,1.86-2.93,4.44-2.93,7.07s1.07,5.21,2.93,7.069
	c1.86,1.86,4.44,2.931,7.07,2.931s5.21-1.07,7.07-2.931c1.86-1.859,2.93-4.439,2.93-7.069s-1.07-5.21-2.93-7.07S380.63,144,378,144z
	"/>
<g>
</g>
<g>
</g>
<g>
</g>
<g>
</g>
<g>
</g>
<g>
</g>
<g>
</g>
<g>
</g>
<g>
</g>
<g>
</g>
<g>
</g>
<g>
</g>
<g>
</g>
<g>
</g>
<g>
</g>
</svg>
