<?xml version="1.0" encoding="iso-8859-1"?>
<!-- Generator: Adobe Illustrator 19.0.0, SVG Export Plug-In . SVG Version: 6.00 Build 0)  -->
<svg version="1.1" id="Capa_1" xmlns="http://www.w3.org/2000/svg" xmlns:xlink="http://www.w3.org/1999/xlink" x="0px" y="0px"
	 viewBox="0 0 512 512" style="enable-background:new 0 0 512 512;" xml:space="preserve">
<circle style="fill:#4BB9F5;" cx="256" cy="256" r="24"/>
<path style="fill:#FF8C8C;" d="M456,256c0,110.456-89.542,199.999-199.999,200C145.218,456,55.999,366.782,56,255.998
	C56.001,145.542,145.544,56,256,56c29.748,0,57.976,6.502,83.349,18.151L314.5,99h88.644V10.356l-29.53,29.53
	c-34.417-18.77-73.813-29.559-115.701-29.879C122.363,8.975,9.999,120.448,10,256.001C10.001,391.863,120.139,502,256,502
	c135.862,0,246-110.138,246-246H456z"/>
<path d="M290,256c0-15.269-10.118-28.217-24-32.497v-86.995c0-5.522-4.477-10-10-10s-10,4.478-10,10v86.995
	c-2.057,0.634-4.028,1.462-5.899,2.456l-27.53-27.53c-3.905-3.904-10.237-3.904-14.143,0c-3.905,3.905-3.905,10.237,0,14.143
	l27.53,27.53C223.436,244.849,222,250.259,222,256c0,18.748,15.252,34,34,34S290,274.748,290,256z M256,270c-7.72,0-14-6.28-14-14
	s6.28-14,14-14s14,6.28,14,14C270,263.719,263.72,270,256,270z"/>
<path d="M350.476,174.342h-3.4c-14.888,0-27,12.112-27,27v17c0,5.522,4.477,10,10,10h37.4c5.523,0,10-4.478,10-10s-4.477-10-10-10
	h-27.4v-7c0-3.859,3.14-7,7-7h3.4c14.888,0,27-12.112,27-27s-12.112-27-27-27h-20.4c-5.523,0-10,4.478-10,10s4.477,10,10,10h20.4
	c3.86,0,7,3.141,7,7S354.335,174.342,350.476,174.342z"/>
<path d="M407.608,147.352c0-5.522-4.477-10-10-10s-10,4.478-10,10v37.399c0,5.522,4.477,10,10,10h27.4v23.591
	c0,5.522,4.477,10,10,10s10-4.478,10-10v-70.99c0-5.522-4.477-10-10-10s-10,4.478-10,10v27.399h-17.4V147.352z"/>
<path d="M476.471,170.942H474.6v-23.59c0-5.522-4.477-10-10-10s-10,4.478-10,10v70.99c0,5.522,4.477,10,10,10s10-4.478,10-10v-27.4
	h1.871c8.563,0,15.529,6.967,15.529,15.529v11.871c0,5.522,4.477,10,10,10s10-4.478,10-10v-11.871
	C512,186.881,496.062,170.942,476.471,170.942z"/>
<path d="M255.61,412.33c-2.63,0-5.21,1.069-7.07,2.93c-1.86,1.86-2.93,4.44-2.93,7.07c0,2.64,1.07,5.21,2.93,7.069
	c1.86,1.87,4.44,2.931,7.07,2.931c2.63,0,5.21-1.061,7.07-2.931c1.86-1.859,2.93-4.439,2.93-7.069s-1.07-5.21-2.93-7.07
	C260.82,413.399,258.24,412.33,255.61,412.33z"/>
<path d="M130.93,366.54c-1.87,1.859-2.93,4.439-2.93,7.08c0,2.63,1.06,5.21,2.93,7.069c1.86,1.86,4.43,2.931,7.07,2.931
	c2.63,0,5.2-1.07,7.07-2.931c1.86-1.87,2.93-4.439,2.93-7.069c0-2.641-1.07-5.21-2.93-7.08c-1.86-1.86-4.44-2.931-7.07-2.931
	C135.36,363.609,132.79,364.679,130.93,366.54z"/>
<path d="M82.21,248.929c-1.87,1.86-2.93,4.44-2.93,7.07c0,2.63,1.06,5.21,2.93,7.069c1.86,1.86,4.44,2.931,7.07,2.931
	s5.21-1.07,7.07-2.931c1.86-1.859,2.93-4.439,2.93-7.069s-1.07-5.21-2.93-7.07s-4.44-2.93-7.07-2.93S84.07,247.069,82.21,248.929z"
	/>
<path d="M145.07,145.46c1.86-1.87,2.93-4.44,2.93-7.08c0-2.63-1.07-5.21-2.93-7.07c-1.86-1.859-4.44-2.93-7.07-2.93
	c-2.64,0-5.21,1.07-7.07,2.93c-1.87,1.87-2.93,4.44-2.93,7.07s1.06,5.21,2.93,7.08c1.86,1.859,4.43,2.93,7.07,2.93
	C140.63,148.389,143.2,147.319,145.07,145.46z"/>
<path d="M255.61,99.67c2.64,0,5.21-1.07,7.07-2.93s2.93-4.44,2.93-7.07s-1.07-5.21-2.93-7.07c-1.86-1.87-4.43-2.93-7.07-2.93
	c-2.63,0-5.21,1.06-7.07,2.93c-1.86,1.86-2.93,4.431-2.93,7.07c0,2.63,1.07,5.21,2.93,7.07C250.4,98.599,252.98,99.67,255.61,99.67z
	"/>
<path d="M373.23,383.62c2.63,0,5.21-1.07,7.07-2.931c1.86-1.87,2.93-4.439,2.93-7.069c0-2.641-1.07-5.21-2.93-7.08
	c-1.86-1.86-4.44-2.931-7.07-2.931c-2.64,0-5.21,1.07-7.08,2.931c-1.86,1.87-2.92,4.439-2.92,7.08c0,2.63,1.06,5.199,2.92,7.069
	C368.02,382.549,370.6,383.62,373.23,383.62z"/>
<path d="M502,246h-46c-5.523,0-10,4.478-10,10c0,104.766-85.233,189.999-189.999,190c-50.909,0-98.666-19.72-134.474-55.527
	C85.72,354.665,66,306.907,66,255.999C66.001,151.233,151.234,66,256,66c22.699,0,44.735,3.917,65.696,11.661l-14.268,14.268
	c-2.86,2.86-3.715,7.161-2.167,10.898c1.548,3.736,5.194,6.173,9.239,6.173h88.644c5.523,0,10-4.478,10-10V10.356
	c0-4.045-2.437-7.691-6.173-9.238c-3.735-1.548-8.037-0.692-10.898,2.167L371.75,27.607C336.695,9.831,297.526,0.308,257.989,0.006
	C203.027-0.371,150.362,16.682,105.64,49.439c-4.455,3.264-5.422,9.521-2.158,13.977c3.263,4.456,9.52,5.423,13.977,2.158
	C158.193,35.738,206.067,20,256.027,20c0.602,0,1.208,0.002,1.81,0.007c38.775,0.295,77.154,10.205,110.989,28.658
	c3.895,2.124,8.722,1.429,11.859-1.708l12.458-12.458V89h-54.501l7.778-7.778c2.314-2.314,3.35-5.615,2.771-8.837
	s-2.696-5.957-5.67-7.322C315.969,52.413,286.522,46,256,46C140.207,46,46.001,140.205,46,255.999
	c0,56.251,21.8,109.03,61.385,148.615C146.971,444.2,199.75,466.001,256.001,466c112.444-0.001,204.529-88.829,209.764-200h26.026
	C486.53,391.508,382.779,492,256,492C125.87,492,20.001,386.132,20,256.002c0-47.236,14.219-92.977,41.122-132.276
	c3.12-4.557,1.954-10.78-2.603-13.9c-4.558-3.121-10.781-1.955-13.901,2.604C15.428,155.069,0,204.716,0,256.002
	c0,68.38,26.629,132.667,74.981,181.019S187.62,512,256,512s132.667-26.629,181.02-74.98S512,324.38,512,256
	C512,250.477,507.523,246,502,246z"/>
<path d="M81.233,93.712c2.602,0,5.199-1.016,7.154-3.043l-7.059-7.083l7.071,7.071c3.905-3.905,3.905-10.237,0-14.143
	c-3.905-3.904-10.237-3.904-14.143,0l-0.206,0.21c-3.834,3.976-3.749,10.337,0.227,14.171
	C76.226,92.774,78.732,93.712,81.233,93.712z"/>
<path d="M256,369c-62.309,0-113-50.691-113-113c0-5.522-4.477-10-10-10s-10,4.478-10,10c0,73.337,59.664,133,133,133
	c5.523,0,10-4.478,10-10S261.523,369,256,369z"/>
<g>
</g>
<g>
</g>
<g>
</g>
<g>
</g>
<g>
</g>
<g>
</g>
<g>
</g>
<g>
</g>
<g>
</g>
<g>
</g>
<g>
</g>
<g>
</g>
<g>
</g>
<g>
</g>
<g>
</g>
</svg>
