<?xml version="1.0" encoding="iso-8859-1"?>
<!-- Generator: Adobe Illustrator 19.0.0, SVG Export Plug-In . SVG Version: 6.00 Build 0)  -->
<svg version="1.1" id="Capa_1" xmlns="http://www.w3.org/2000/svg" xmlns:xlink="http://www.w3.org/1999/xlink" x="0px" y="0px"
	 viewBox="0 0 512 512" style="enable-background:new 0 0 512 512;" xml:space="preserve">
<path style="fill:#FAE196;" d="M217.505,422.218V305.951c0-47.653-38.63-86.284-86.284-86.284l0,0
	c-47.653,0-86.284,38.63-86.284,86.284v116.267H217.505z"/>
<path style="fill:#FFCDAC;" d="M181.454,300h-23.479h-8.001c-20.846,0-41.184-5.827-58.775-16.69H79.351v53.329
	c0,28.719,23.281,52,52,52l0,0c28.719,0,52-23.281,52-52V300H181.454z"/>
<g>
	<path style="fill:#FF5A5A;" d="M183.351,353h7c13.807,0,25-11.193,25-25l0,0c0-13.807-11.193-25-25-25h-7V353z"/>
	<path style="fill:#FF5A5A;" d="M79.091,303h-7c-13.807,0-25,11.193-25,25l0,0c0,13.807,11.193,25,25,25h7V303z"/>
</g>
<path style="fill:#FFCDAC;" d="M380.779,388.639L380.779,388.639c-33.258,0-60.219-26.961-60.219-60.219v-48.535
	c0-33.258,26.961-60.219,60.219-60.219l0,0c33.258,0,60.219,26.961,60.219,60.219v48.535
	C440.998,361.678,414.037,388.639,380.779,388.639z"/>
<path style="fill:#78D2FA;" d="M441.637,341.382h7c13.807,0,25-11.193,25-25l0,0c0-13.807-11.193-25-25-25h-7"/>
<path style="fill:#878791;" d="M426.724,293.527h13.898V279.93c0-33.154-26.877-60.031-60.031-60.031l0,0
	c-33.154,0-60.031,26.877-60.031,60.031v14.076h28.569c22.568,0,44.211-8.965,60.169-24.923l-11.503,12.461
	C405.468,289.217,415.874,293.527,426.724,293.527z"/>
<path style="fill:#78D2FA;" d="M320.56,291.382h-7c-13.807,0-25,11.193-25,25l0,0c0,13.807,11.193,25,25,25h7"/>
<path style="fill:#FFCDAC;" d="M407.803,387.838v11.74c0,9.342,6.734,13.53,16.847,16.916l43.203,9.829
	C488.185,430.608,502,440.653,502,458.33V502H256v-43.67c0-17.677,13.805-27.723,34.137-32.007l43.203-9.829
	c10.113-3.386,16.847-7.574,16.847-16.916v-12.366"/>
<path style="fill:#91E696;" d="M467.854,426.323l-32.115-7.306l-1.705,1.162l0,0c-33.864,16.534-73.459,16.534-107.323,0l0,0
	l-1.314-1.877l-35.26,8.022C269.805,430.608,256,440.653,256,458.331V502h246v-43.669C502,440.653,488.185,430.608,467.854,426.323z
	"/>
<path style="fill:#FFCDAC;" d="M161.803,387.838v11.74c0,9.342,6.734,13.53,16.847,16.916l43.203,9.829
	C242.185,430.608,256,440.653,256,458.33V502H10v-43.67c0-17.677,13.805-27.723,34.136-32.007l43.203-9.829
	c10.113-3.386,16.847-7.574,16.847-16.916v-12.366"/>
<path style="fill:#78D2FA;" d="M221.854,426.323l-32.115-7.306l-1.705,1.162l0,0c-33.864,16.534-73.459,16.534-107.323,0l0,0
	l-1.314-1.877l-35.26,8.022C23.805,430.608,10,440.653,10,458.331V502h246v-43.669C256,440.653,242.185,430.608,221.854,426.323z"/>
<path style="fill:#C8F5FF;" d="M49.351,10h123.298C194.382,10,212,27.618,212,49.351v63.313c0,21.733-17.618,39.351-39.351,39.351
	h-70.006v35.056l-35.279-35.056H49.351C27.618,152.015,10,134.397,10,112.664V49.351C10,27.618,27.618,10,49.351,10z"/>
<path style="fill:#D7D7E6;" d="M462.649,10H339.351C317.618,10,300,27.618,300,49.351v63.313c0,21.733,17.618,39.351,39.351,39.351
	h73.844v35.056l35.279-35.056h14.175c21.733,0,39.351-17.618,39.351-39.351V49.351C502,27.618,484.382,10,462.649,10z"/>
<path d="M469.997,416.556l-42.628-9.699c-9.565-3.268-9.565-5.396-9.565-7.278v-11.53c13.542-8.439,24.005-21.355,29.32-36.667
	h1.514c19.299,0,35-15.701,35-35c0-18.504-14.438-33.692-32.639-34.911v-1.585c0-38.719-31.5-70.219-70.219-70.219
	s-70.219,31.5-70.219,70.219v1.633c-17.899,1.528-32,16.575-32,34.863c0,19.299,15.701,35,35,35h0.875
	c4.853,13.983,14.004,25.964,25.87,34.366c-0.07,0.479-0.119,0.965-0.119,1.464v12.366c0,1.882,0,4.011-9.565,7.278l-42.629,9.699
	c-15.772,3.336-25.743,9.288-31.993,15.963c-5.774-6.166-14.728-11.715-28.496-15.155V305.951c0-53.091-43.193-96.284-96.284-96.284
	s-96.284,43.193-96.284,96.284v112.388C4.75,427.228,0,446.885,0,458.33V502c0,5.522,4.477,10,10,10h492c5.523,0,10-4.478,10-10
	v-43.67C512,446.043,506.542,424.286,469.997,416.556z M463.637,316.382c0,7.49-5.524,13.698-12.709,14.806
	c0.036-0.919,0.07-1.839,0.07-2.767v-26.834C458.148,302.725,463.637,308.916,463.637,316.382z M380.779,229.667
	c27.691,0,50.219,22.528,50.219,50.219v3.64h-5.721c-5.142,0-10.092-1.244-14.51-3.586c1.397-1.244,2.767-2.528,4.101-3.862
	c3.905-3.905,3.906-10.237,0-14.143c-3.906-3.903-10.237-3.904-14.142,0c-14.234,14.233-33.159,22.072-53.288,22.072h-16.88v-4.121
	C330.56,252.195,353.088,229.667,380.779,229.667z M298.56,316.382c0-7.244,5.162-13.304,12-14.698v26.737
	c0,0.895,0.034,1.782,0.068,2.669C303.756,329.722,298.56,323.65,298.56,316.382z M330.56,328.421v-24.414h16.88
	c16.307,0,31.986-4.072,45.886-11.724c9.032,7.28,20.185,11.242,31.951,11.242h5.721v24.896c0,0.995-0.037,1.98-0.095,2.961H420.63
	c-5.523,0-10,4.478-10,10s4.477,10,10,10h4.788c-8.352,16.17-25.219,27.258-44.639,27.258l0,0
	C353.088,378.64,330.56,356.111,330.56,328.421z M380.779,398.64c5.87,0,11.57-0.734,17.024-2.098v3.036
	c0,9.513,4.563,15.648,9.872,19.664c-18.641,4.718-38.082,4.536-56.662-0.543c5.004-4.02,9.173-10.028,9.173-19.121v-4.025
	C366.702,397.556,373.616,398.64,380.779,398.64z M54.937,358.49c5.073,2.866,10.924,4.51,17.154,4.51h2.945
	c4.41,9.315,11.065,17.366,19.268,23.447c-0.064,0.456-0.108,0.918-0.108,1.391v11.74c0,1.882,0,4.011-9.565,7.278l-29.694,6.756
	C54.937,413.612,54.937,358.49,54.937,358.49z M193.351,313.302c6.838,1.394,12,7.454,12,14.698c0,7.353-5.322,13.474-12.313,14.746
	c0.205-2.051,0.313-4.131,0.313-6.236V313.302z M173.351,336.51c0,1.176-0.061,2.338-0.156,3.49h-8.861c-5.523,0-10,4.478-10,10
	s4.477,10,10,10h1.843c-7.575,11.235-20.416,18.64-34.956,18.64c-23.23,0-42.129-18.899-42.129-42.13v-32.25
	c19.842,5.806,40.34,8.744,61.119,8.749l23.141,0.006L173.351,336.51L173.351,336.51z M69.404,342.746
	c-6.991-1.271-12.313-7.393-12.313-14.746c0-7.244,5.162-13.304,12-14.698v23.208C69.091,338.614,69.199,340.694,69.404,342.746z
	 M114.197,399.578v-3.329c5.414,1.545,11.121,2.391,17.024,2.391c7.216,0,14.143-1.25,20.592-3.522v4.461
	c0,9.094,4.169,15.101,9.173,19.121c-18.579,5.079-38.021,5.261-56.662,0.543C109.634,415.227,114.197,409.091,114.197,399.578z
	 M181.378,406.856c-9.565-3.268-9.565-5.396-9.565-7.278v-12.366c0-1.139-0.2-2.229-0.55-3.249
	c6.772-5.724,12.308-12.863,16.143-20.963h2.945c6.23,0,12.081-1.644,17.154-4.51v54.31L181.378,406.856z M131.221,229.667
	c39.107,0,71.418,29.586,75.768,67.548c-4.952-2.687-10.62-4.215-16.638-4.215h-7c-0.194,0-0.388,0.006-0.579,0.017l-32.557-0.008
	c-23.19-0.006-45.997-4.034-67.785-11.974c-4.408-1.604-9.336,0.067-11.857,4.021c-1.301,2.042-1.779,4.408-1.482,6.676v1.406
	c-4.901,0.418-9.519,1.842-13.639,4.078C59.802,259.253,92.113,229.667,131.221,229.667z M20,458.33c0-4.13,0-16.699,26.208-22.222
	c0.052-0.011,0.104-0.022,0.156-0.034l28.242-6.425c18.153,8.675,37.586,13.024,57.021,13.024c19.755,0,39.51-4.484,57.918-13.446
	l30.099,6.848c0.052,0.012,0.104,0.023,0.156,0.034c26.2,5.52,26.2,18.09,26.2,22.221V492H20V458.33z M492,492H266v-33.67
	c0-4.131,0-16.701,26.199-22.222c0.052-0.011,0.104-0.022,0.156-0.034l30.099-6.848c18.41,8.965,38.16,13.446,57.918,13.446
	c19.433,0,38.87-4.35,57.021-13.024l28.242,6.426c0.052,0.012,0.104,0.023,0.156,0.034C492,441.631,492,454.2,492,458.33V492z"/>
<path d="M49.351,162.015H63.24l32.354,32.149c1.911,1.898,4.458,2.906,7.051,2.906c1.293,0,2.598-0.251,3.839-0.768
	c3.729-1.551,6.159-5.193,6.159-9.232v-25.056h60.006c27.212,0,49.351-22.139,49.351-49.351V49.352C222,22.139,199.861,0,172.649,0
	H49.351C22.139,0,0,22.139,0,49.352v63.313C0,139.876,22.139,162.015,49.351,162.015z M20,49.352C20,33.167,33.167,20,49.351,20
	h123.298C188.833,20,202,33.167,202,49.352v63.313c0,16.184-13.167,29.351-29.351,29.351h-70.006c-5.523,0-10,4.478-10,10v11.021
	l-18.231-18.115c-1.874-1.861-4.407-2.906-7.048-2.906H49.351C33.167,142.015,20,128.848,20,112.664V49.352z"/>
<path d="M462.649,0H339.351C312.139,0,290,22.139,290,49.352v63.313c0,27.212,22.139,49.351,49.351,49.351h63.844v25.056
	c0,4.039,2.43,7.682,6.159,9.232c1.241,0.517,2.545,0.768,3.839,0.768c2.591,0,5.14-1.008,7.051-2.906l32.354-32.149h10.051
	c27.212,0,49.351-22.139,49.351-49.351V49.352C512,22.139,489.861,0,462.649,0z M492,112.664c0,16.184-13.167,29.351-29.351,29.351
	h-14.175c-2.641,0-5.175,1.045-7.049,2.906l-18.23,18.115v-11.021c0-5.522-4.477-10-10-10h-73.844
	c-16.184,0-29.351-13.167-29.351-29.351V49.352C310,33.167,323.167,20,339.351,20h123.298C478.833,20,492,33.167,492,49.352V112.664
	z"/>
<path d="M131.63,340c-2.64,0-5.21,1.069-7.07,2.93c-1.86,1.86-2.93,4.44-2.93,7.07s1.07,5.21,2.93,7.069
	c1.86,1.86,4.44,2.931,7.07,2.931s5.21-1.07,7.07-2.931c1.86-1.859,2.93-4.439,2.93-7.069s-1.07-5.21-2.93-7.07
	C136.84,341.069,134.26,340,131.63,340z"/>
<path d="M384,351.38c2.63,0,5.21-1.07,7.07-2.93c1.86-1.86,2.93-4.431,2.93-7.07c0-2.63-1.07-5.21-2.93-7.07
	c-1.86-1.859-4.44-2.93-7.07-2.93s-5.21,1.07-7.07,2.93c-1.86,1.86-2.93,4.44-2.93,7.07s1.07,5.21,2.93,7.07
	C378.79,350.31,381.37,351.38,384,351.38z"/>
<path d="M69.25,67.008h83.5c5.523,0,10-4.478,10-10s-4.477-10-10-10h-83.5c-5.523,0-10,4.478-10,10S63.727,67.008,69.25,67.008z"/>
<path d="M69.25,115.008h83.5c5.523,0,10-4.478,10-10s-4.477-10-10-10h-83.5c-5.523,0-10,4.478-10,10S63.727,115.008,69.25,115.008z"
	/>
<path d="M442.813,47.008h-83.627c-5.523,0-10,4.478-10,10s4.477,10,10,10h83.627c5.523,0,10-4.478,10-10
	S448.336,47.008,442.813,47.008z"/>
<path d="M442.813,95.008h-83.627c-5.523,0-10,4.478-10,10s4.477,10,10,10h83.627c5.523,0,10-4.478,10-10
	S448.336,95.008,442.813,95.008z"/>
<g>
</g>
<g>
</g>
<g>
</g>
<g>
</g>
<g>
</g>
<g>
</g>
<g>
</g>
<g>
</g>
<g>
</g>
<g>
</g>
<g>
</g>
<g>
</g>
<g>
</g>
<g>
</g>
<g>
</g>
</svg>
