<?xml version="1.0" encoding="iso-8859-1"?>
<!-- Generator: Adobe Illustrator 19.0.0, SVG Export Plug-In . SVG Version: 6.00 Build 0)  -->
<svg version="1.1" id="Capa_1" xmlns="http://www.w3.org/2000/svg" xmlns:xlink="http://www.w3.org/1999/xlink" x="0px" y="0px"
	 viewBox="0 0 512 512" style="enable-background:new 0 0 512 512;" xml:space="preserve">
<path style="fill:#AAE6FF;" d="M215.737,10.31L49.961,10.288c-22.066-0.003-39.955,17.876-39.958,39.941
	C9.999,83.825,9.992,131.51,9.988,164.425c-0.003,20.766,16.828,37.598,37.594,37.604l16.358,0.01l53.951,53.965l0.007-53.958
	l97.816,0.004c22.064,0.001,39.951-17.884,39.954-39.947l0.015-111.836C255.686,28.202,237.802,10.313,215.737,10.31z"/>
<path style="fill:#F5C86E;" d="M423.747,396.874V208.062c0-57.369-46.506-103.876-103.876-103.876l0,0
	c-57.369,0-103.876,46.506-103.876,103.876v188.811"/>
<g>
	<path style="fill:#78D2FA;" d="M243.778,233.211h-17.893c-17.652,0-31.962,14.31-31.962,31.962l0,0
		c0,17.652,14.31,31.962,31.962,31.962h17.893V233.211z"/>
	<path style="fill:#78D2FA;" d="M395.967,297.137h17.893c17.652,0,31.962-14.31,31.962-31.962l0,0
		c0-17.652-14.31-31.962-31.962-31.962h-17.893V297.137z"/>
</g>
<g>
	<path style="fill:#FFCDAC;" d="M395.966,233.211h-35.38H348.53c-31.412,0-62.058-8.781-88.566-25.149h-17.854v63.154
		c0,43.275,35.082,78.356,78.356,78.356l0,0c43.275,0,78.356-35.081,78.356-78.356v-38.005L395.966,233.211L395.966,233.211z"/>
	<path style="fill:#FFCDAC;" d="M183.917,501.711h-40.991v-49.147c0-25.803,20.166-40.467,49.843-46.721l63.064-14.348
		c14.761-4.942,24.593-11.055,24.593-24.693v-22.904l84.103-0.914v23.817c0,13.637,9.83,19.75,24.593,24.693l63.064,14.348
		c29.678,6.254,49.829,20.918,49.829,46.721v49.147H280.024h-96.107V501.711z"/>
</g>
<path style="fill:#91E696;" d="M452.184,405.843l-48.948-11.137l-82.768,40.411l-81.491-39.786l-46.207,10.512
	c-29.678,6.254-49.843,20.918-49.843,46.721v49.147h40.992h96.107h221.988v-49.147C502.012,426.761,481.861,412.096,452.184,405.843
	z"/>
<g>
	<circle style="fill:#FFFFFF;" cx="196.725" cy="106.162" r="15.972"/>
	<circle style="fill:#FFFFFF;" cx="132.831" cy="106.152" r="15.972"/>
	<circle style="fill:#FFFFFF;" cx="68.948" cy="106.142" r="15.972"/>
</g>
<path d="M229.292,491.653c-2.627,0-5.204,1.069-7.062,2.926c-1.857,1.858-2.926,4.435-2.926,7.062c0,2.637,1.069,5.204,2.926,7.062
	c1.858,1.868,4.435,2.926,7.062,2.926c2.627,0,5.204-1.059,7.062-2.926c1.868-1.858,2.926-4.435,2.926-7.062
	c0-2.627-1.059-5.194-2.926-7.062C234.496,492.722,231.919,491.653,229.292,491.653z"/>
<path d="M330.033,319.328c1.857-1.857,2.927-4.425,2.927-7.061c0-2.627-1.069-5.204-2.927-7.062
	c-1.868-1.858-4.435-2.927-7.062-2.927c-2.637,0-5.204,1.068-7.072,2.927c-1.858,1.858-2.917,4.435-2.917,7.062
	s1.059,5.204,2.917,7.061c1.868,1.868,4.435,2.928,7.072,2.928C325.597,322.256,328.165,321.197,330.033,319.328z"/>
<path d="M196.729,80.201h-0.006c-6.932,0-13.45,2.699-18.352,7.6c-4.904,4.902-7.605,11.421-7.606,18.355c0,0,0,0,0,0.001
	c-0.001,6.934,2.698,13.454,7.6,18.358c4.903,4.904,11.422,7.605,18.357,7.606h0.003c6.932,0,13.451-2.7,18.354-7.601
	c4.904-4.902,7.605-11.422,7.606-18.356c0.001-6.934-2.699-13.454-7.601-18.357C210.182,82.903,203.662,80.202,196.729,80.201z
	 M200.956,110.394c-1.131,1.13-2.634,1.752-4.231,1.752h-0.001c-1.599,0-3.1-0.623-4.231-1.754c-1.13-1.131-1.752-2.633-1.752-4.231
	c0,0,0,0,0-0.001c0-1.598,0.622-3.1,1.753-4.23c1.131-1.13,2.632-1.752,4.23-1.752h0.002c1.599,0,3.1,0.622,4.231,1.753
	c1.13,1.131,1.752,2.634,1.752,4.232C202.709,107.76,202.085,109.263,200.956,110.394z"/>
<path d="M114.476,124.507c4.902,4.904,11.422,7.605,18.356,7.606c0.001,0,0.003,0,0.003,0c6.933,0,13.452-2.7,18.354-7.601
	c4.904-4.902,7.605-11.422,7.606-18.355c0.002-6.934-2.698-13.455-7.6-18.358c-4.903-4.904-11.422-7.605-18.355-7.606h-0.006
	c-6.932,0-13.45,2.699-18.353,7.6c-4.904,4.903-7.605,11.422-7.606,18.357C106.874,113.084,109.574,119.603,114.476,124.507z
	 M128.605,101.92c1.13-1.13,2.632-1.752,4.23-1.752h0.002c1.598,0,3.1,0.622,4.23,1.753c1.131,1.131,1.752,2.633,1.752,4.232
	c0,1.599-0.622,3.1-1.753,4.231c-1.131,1.13-2.633,1.752-4.231,1.752h-0.001c-1.598,0-3.1-0.623-4.231-1.753
	c-1.13-1.131-1.752-2.634-1.752-4.232C126.851,104.553,127.475,103.051,128.605,101.92z"/>
<path d="M68.95,80.184c-0.001,0-0.003,0-0.003,0c-6.933,0-13.452,2.7-18.354,7.601c-4.904,4.902-7.605,11.421-7.606,18.355
	c0,0,0,0,0,0.001c-0.001,6.934,2.698,13.453,7.601,18.357c4.902,4.904,11.422,7.605,18.356,7.606h0.003
	c6.932,0,13.451-2.7,18.354-7.601c4.904-4.902,7.605-11.422,7.606-18.356s-2.699-13.454-7.601-18.357
	C82.404,82.886,75.884,80.185,68.95,80.184z M73.179,110.376c-1.131,1.13-2.634,1.752-4.231,1.752h-0.001
	c-1.599,0-3.1-0.623-4.231-1.754c-1.131-1.13-1.752-2.633-1.752-4.23c0,0,0,0,0-0.001c0-1.599,0.622-3.1,1.753-4.231
	c1.131-1.13,2.633-1.752,4.231-1.752h0.001c1.599,0,3.1,0.622,4.231,1.753c1.13,1.131,1.752,2.634,1.752,4.232
	C74.931,107.743,74.307,109.245,73.179,110.376z"/>
<path d="M125.436,61.318c1.858-1.858,2.928-4.435,2.928-7.062s-1.069-5.204-2.928-7.062c-1.857-1.857-4.434-2.927-7.061-2.927
	s-5.204,1.069-7.062,2.927c-1.858,1.858-2.926,4.435-2.926,7.062s1.068,5.204,2.926,7.062c1.858,1.857,4.435,2.927,7.062,2.927
	S123.579,63.174,125.436,61.318z"/>
<path d="M454.323,396.087l-20.587-4.683v-89.296c13.131-7.096,22.074-20.988,22.074-36.932c0-15.944-8.942-29.836-22.074-36.932
	v-20.18c0-62.784-51.08-113.864-113.864-113.864c-57.354,0-104.933,42.629-112.734,97.864l-89.238-0.004h-0.001
	c-5.515,0-9.987,4.472-9.988,9.987l-0.004,29.844l-36.902-36.912c-1.872-1.872-4.41-2.924-7.057-2.926l-16.363-0.011
	c-15.226-0.004-27.61-12.391-27.608-27.614L19.99,64.234h59.057c5.515,0,9.988-4.473,9.988-9.988s-4.473-9.988-9.988-9.988H20.585
	c1.153-5.726,3.959-10.989,8.184-15.211c5.659-5.657,13.181-8.772,21.185-8.772h0.005l165.776,0.022
	c16.522,0.002,29.962,13.446,29.96,29.964l-0.016,25.12c-0.003,5.515,4.466,9.991,9.982,9.994h0.006
	c5.513,0,9.984-4.469,9.988-9.982l0.016-25.125c0.002-13.339-5.191-25.881-14.623-35.315c-9.432-9.434-21.972-14.63-35.312-14.632
	L49.961,0.299h-0.007c-13.337,0-25.875,5.192-35.307,14.62C5.214,24.347,0.017,36.887,0.015,50.228L0,164.425
	c-0.004,26.237,21.34,47.587,47.575,47.592l12.224,0.008l51.027,51.042c1.911,1.912,4.467,2.926,7.066,2.926
	c1.286,0,2.584-0.249,3.818-0.76c3.733-1.545,6.167-5.187,6.168-9.226l0.007-43.97l78.123,0.003v16.203
	c-13.13,7.096-22.073,20.988-22.073,36.932s8.941,29.836,22.073,36.932v90.483l-15.377,3.498
	c-37.204,7.863-57.694,27.919-57.694,56.478v49.147c0,5.515,4.473,9.988,9.988,9.988h40.991c5.515,0,9.988-4.473,9.988-9.988
	s-4.473-9.988-9.988-9.988h-31.003v-39.159c0-18.656,14.102-31.087,41.916-36.948c0.052-0.011,0.104-0.022,0.156-0.034l42.772-9.73
	l78.326,38.241c1.383,0.675,2.883,1.013,4.383,1.013s2.999-0.338,4.383-1.013l78.33-38.243c0.397-0.194,0.769-0.417,1.128-0.655
	l45.66,10.388c0.053,0.012,0.104,0.023,0.156,0.034c27.804,5.859,41.901,18.291,41.901,36.948v39.159H280.023
	c-5.515,0-9.988,4.473-9.988,9.988s4.473,9.988,9.988,9.988h221.989c5.515,0,9.988-4.473,9.988-9.988v-49.147
	C512,424.002,491.516,403.947,454.323,396.087z M225.984,208.062c0-51.77,42.118-93.888,93.888-93.888s93.888,42.118,93.888,93.888
	v15.163h-17.755c-0.013,0-0.025-0.002-0.039-0.002h-47.436c-35.602,0-70.572-12.173-98.479-34.28
	c-0.803-0.647-1.706-1.174-2.685-1.55c-0.001-0.001-0.002-0.001-0.002-0.001c-0.003-0.001-0.007-0.003-0.011-0.004
	c-0.004-0.002-0.009-0.004-0.013-0.005c-1.275-0.486-2.633-0.698-3.948-0.647c-1.442,0.056-2.806,0.415-4.028,1.019
	c-1.168,0.574-2.238,1.385-3.138,2.425c-0.8,0.924-1.433,1.995-1.853,3.168c0,0-0.001,0-0.001,0.001
	c-0.001,0.004-0.003,0.008-0.004,0.012c-0.001,0.002-0.001,0.002-0.001,0.004c-0.002,0.003-0.003,0.007-0.004,0.01
	c-0.001,0.002-0.001,0.004-0.002,0.006c-0.001,0.003-0.002,0.005-0.003,0.008c-0.001,0.003-0.002,0.005-0.003,0.008
	c-0.001,0.002-0.001,0.004-0.002,0.005c-0.001,0.004-0.002,0.008-0.004,0.011c0,0.001,0,0.002-0.001,0.003
	c-0.001,0.004-0.003,0.009-0.004,0.013v0.001c-0.383,1.095-0.564,2.237-0.555,3.374v26.422h-7.806v-15.164H225.984z
	 M356.673,322.259h9.088c-11.9,11.495-28.076,18.589-45.889,18.589c-36.45,0-66.106-29.655-66.106-66.107v-58.776
	c28.276,17.665,61.272,27.233,94.764,27.233h37.448v31.542c0,9.833-2.174,19.162-6.041,27.557c-0.107-0.003-0.211-0.016-0.319-0.016
	h-22.947c-5.515,0-9.988,4.473-9.988,9.988S351.156,322.259,356.673,322.259z M221.239,286.647c-1.298-0.804-2.792-1.32-4.396-1.456
	c-7.617-3.455-12.932-11.126-12.932-20.019c0-12.117,9.857-21.974,21.974-21.974h7.905v31.542c0,4.213,0.319,8.352,0.906,12.405
	h-8.81C224.291,287.147,222.738,286.972,221.239,286.647z M225.984,388.043v-80.92h14.15c6.275,15.398,16.882,28.575,30.303,38.027
	v21.654c0,5.024-1.311,9.63-17.315,15.066L225.984,388.043z M320.467,424.002l-53.35-26.048
	c10.287-4.415,23.296-12.969,23.296-31.151v-11.175c9.195,3.359,19.116,5.195,29.459,5.195c12.331,0,24.054-2.626,34.669-7.316
	v13.295c0,16.966,11.328,25.551,21.202,30.212L320.467,424.002z M413.759,386.859l-21.929-4.989
	c-16.003-5.435-17.314-10.042-17.314-15.066v-23.818c0-0.568-0.059-1.121-0.15-1.663c11.037-9.049,19.777-20.788,25.244-34.198
	h14.149L413.759,386.859L413.759,386.859z M413.859,287.149h-8.81c0.587-4.053,0.906-8.193,0.906-12.407v-31.54h7.905
	c12.117,0,21.974,9.857,21.974,21.974C435.833,277.292,425.975,287.149,413.859,287.149z"/>
<g>
</g>
<g>
</g>
<g>
</g>
<g>
</g>
<g>
</g>
<g>
</g>
<g>
</g>
<g>
</g>
<g>
</g>
<g>
</g>
<g>
</g>
<g>
</g>
<g>
</g>
<g>
</g>
<g>
</g>
</svg>
