<?xml version="1.0" encoding="iso-8859-1"?>
<!-- Generator: Adobe Illustrator 19.0.0, SVG Export Plug-In . SVG Version: 6.00 Build 0)  -->
<svg version="1.1" id="Capa_1" xmlns="http://www.w3.org/2000/svg" xmlns:xlink="http://www.w3.org/1999/xlink" x="0px" y="0px"
	 viewBox="0 0 512.001 512.001" style="enable-background:new 0 0 512.001 512.001;" xml:space="preserve">
<path style="fill:#F5B955;" d="M204.91,494.458l6.776,7.505l41.915-17.385l-0.516-10.108c-0.679-13.291,4.304-26.248,13.715-35.659
	l0,0c9.411-9.411,22.368-14.394,35.659-13.715l10.108,0.516l17.384-41.914l-7.505-6.776c-9.884-8.924-15.526-21.618-15.526-34.935
	l0,0c0-13.317,5.641-26.011,15.526-34.935l7.505-6.776l-17.385-41.915l-10.108,0.516c-13.291,0.679-26.248-4.304-35.659-13.715l0,0
	c-9.411-9.411-14.394-22.368-13.715-35.659l0.516-10.108l-41.915-17.385l-6.776,7.506c-8.924,9.885-21.618,15.526-34.935,15.526l0,0
	c-13.317,0-26.011-5.641-34.935-15.526l-6.776-7.506l-41.915,17.385l0.516,10.108c0.679,13.291-4.304,26.248-13.715,35.659l0,0
	c-9.411,9.411-22.368,14.394-35.659,13.715l-10.108-0.516L9.999,300.277l7.505,6.776c9.885,8.924,15.526,21.618,15.526,34.935l0,0
	c0,13.317-5.641,26.01-15.526,34.935l-7.505,6.775l17.385,41.915l10.108-0.516c13.291-0.679,26.248,4.304,35.659,13.715l0,0
	c9.411,9.411,14.394,22.368,13.715,35.659l-0.516,10.107l41.915,17.385l6.776-7.505c8.924-9.885,21.618-15.526,34.935-15.526l0,0
	C183.292,478.932,195.986,484.573,204.91,494.458z"/>
<circle style="fill:#FFFFFF;" cx="169.975" cy="341.989" r="85.987"/>
<circle style="fill:#7D9BFF;" cx="169.975" cy="341.989" r="27.996"/>
<path style="fill:#FF8C8C;" d="M462.008,10.037H276.163c-22.088,0-39.994,17.906-39.994,39.994v131.313
	c0,22.088,17.906,39.994,39.994,39.994h85.547v44.337l44.62-44.337h55.679c22.088,0,39.994-17.906,39.994-39.994V50.031
	C502.002,27.943,484.096,10.037,462.008,10.037z"/>
<path d="M109.173,291.184c-2.563,0-5.124-0.979-7.078-2.937c-3.9-3.909-3.893-10.239,0.016-14.141
	c0.24-0.24,0.481-0.479,0.724-0.715c3.946-3.861,10.278-3.789,14.139,0.16c3.86,3.948,3.788,10.278-0.161,14.139l-0.578,0.572
	C114.284,290.21,111.728,291.184,109.173,291.184z"/>
<path d="M169.975,437.928c-24.579,0-49.16-9.356-67.872-28.068c-25.409-25.409-34.479-62.5-23.67-96.796
	c1.66-5.267,7.275-8.187,12.541-6.531c5.267,1.66,8.191,7.275,6.531,12.542c-8.559,27.159-1.379,56.528,18.738,76.644
	c14.812,14.812,34.275,22.22,53.732,22.222c19.461,0.002,38.916-7.405,53.732-22.222c29.628-29.629,29.628-77.837,0-107.464
	c-19.783-19.783-48.744-27.09-75.572-19.067c-5.291,1.58-10.861-1.426-12.443-6.716c-1.582-5.291,1.425-10.861,6.716-12.443
	c33.885-10.126,70.453-0.899,95.44,24.086c37.424,37.425,37.424,98.319,0,135.746C219.135,428.572,194.556,437.928,169.975,437.928z
	"/>
<path d="M169.975,379.981c-20.95,0-37.994-17.044-37.994-37.994c0-20.95,17.044-37.994,37.994-37.994s37.994,17.044,37.994,37.994
	C207.97,362.937,190.925,379.981,169.975,379.981z M169.975,323.99c-9.924,0-17.997,8.074-17.997,17.997s8.074,17.997,17.997,17.997
	s17.997-8.074,17.997-17.997S179.9,323.99,169.975,323.99z"/>
<path d="M211.689,511.962c-2.773,0.001-5.487-1.153-7.424-3.298l-6.776-7.506c-7.016-7.77-17.043-12.227-27.513-12.227
	c-10.469,0-20.497,4.457-27.514,12.227l-6.775,7.506c-2.837,3.142-7.344,4.153-11.252,2.536L82.52,493.814
	c-3.906-1.621-6.371-5.522-6.155-9.746l0.516-10.107c0.534-10.447-3.402-20.682-10.8-28.079c-7.397-7.398-17.627-11.336-28.079-10.8
	l-10.107,0.517c-4.221,0.21-8.125-2.249-9.746-6.155L0.764,387.528c-1.622-3.908-0.606-8.416,2.535-11.251l7.505-6.776
	c7.771-7.016,12.228-17.043,12.228-27.514c0-10.47-4.457-20.498-12.227-27.513l-7.506-6.777c-3.142-2.836-4.156-7.343-2.535-11.251
	l17.385-41.915c1.62-3.906,5.529-6.368,9.746-6.155l10.107,0.517c10.445,0.536,20.682-3.402,28.079-10.8
	c7.397-7.397,11.333-17.631,10.8-28.078l-0.516-10.108c-0.216-4.223,2.249-8.125,6.155-9.746l41.915-17.385
	c3.907-1.62,8.415-0.606,11.252,2.536l6.776,7.506c7.016,7.77,17.043,12.227,27.513,12.227c10.469,0,20.497-4.457,27.513-12.227
	l6.776-7.506c2.837-3.144,7.343-4.154,11.251-2.536l41.915,17.385c3.906,1.621,6.371,5.522,6.155,9.747l-0.517,10.107
	c-0.533,10.446,3.403,20.682,10.8,28.078c7.396,7.397,17.625,11.326,28.079,10.8l10.108-0.517c4.214-0.213,8.125,2.249,9.746,6.155
	l17.385,41.915c1.622,3.908,0.606,8.416-2.536,11.252l-7.506,6.776c-7.771,7.016-12.227,17.043-12.227,27.513
	c0,10.469,4.457,20.497,12.227,27.513l7.506,6.776c3.142,2.837,4.157,7.344,2.536,11.252l-17.385,41.915
	c-1.62,3.906-5.524,6.367-9.746,6.155l-10.108-0.517c-10.439-0.528-20.682,3.403-28.079,10.8
	c-7.397,7.396-11.333,17.631-10.8,28.079l0.517,10.106c0.216,4.224-2.249,8.126-6.155,9.747l-41.915,17.385
	C214.277,511.712,212.977,511.962,211.689,511.962z M169.975,468.933c16.118,0,31.555,6.861,42.356,18.824l0,0l2.045,2.266
	l28.879-11.977l-0.156-3.064c-0.822-16.09,5.24-31.849,16.631-43.24c11.391-11.391,27.149-17.451,43.238-16.632l3.065,0.157
	l11.978-28.88l-2.266-2.045c-11.963-10.8-18.824-26.238-18.824-42.356c0-16.118,6.861-31.556,18.824-42.356l2.266-2.045
	l-11.978-28.88l-3.065,0.157c-16.087,0.802-31.848-5.24-43.239-16.632c-11.39-11.391-17.452-27.15-16.631-43.238l0.156-3.065
	l-28.879-11.977l-2.046,2.266c-10.8,11.963-26.239,18.824-42.356,18.824c-16.118,0-31.555-6.861-42.356-18.824l-2.045-2.266
	l-28.878,11.976l0.156,3.065c0.822,16.088-5.239,31.848-16.631,43.238c-11.391,11.39-27.16,17.435-43.238,16.631l-3.065-0.157
	l-11.978,28.88l2.266,2.046c11.962,10.799,18.824,26.237,18.824,42.355c0,16.118-6.861,31.556-18.825,42.356l-2.265,2.045
	l11.978,28.88l3.065-0.157c16.084-0.814,31.848,5.24,43.239,16.632s17.452,27.151,16.631,43.24l-0.156,3.064l28.879,11.977
	l2.045-2.266C138.42,475.795,153.859,468.933,169.975,468.933z"/>
<path d="M369.085,149.923c-5.522,0-9.998-4.477-9.998-9.999v-19.95c0-5.521,4.476-9.998,9.998-9.998
	c11.026,0,19.997-8.971,19.997-19.997s-8.971-19.997-19.997-19.997c-11.026,0-19.997,8.971-19.997,19.997
	c0,5.521-4.476,9.998-9.999,9.998c-5.522,0-9.998-4.477-9.998-9.998c0-22.053,17.941-39.994,39.994-39.994
	c22.053,0,39.994,17.941,39.994,39.994c0,18.601-12.765,34.278-29.995,38.728v11.217
	C379.084,145.446,374.607,149.923,369.085,149.923z"/>
<path d="M369.082,187.421c-2.63,0-5.199-1.07-7.069-2.931c-1.86-1.87-2.93-4.438-2.93-7.068c0-2.641,1.07-5.209,2.93-7.069
	c1.86-1.87,4.439-2.93,7.069-2.93c2.64,0,5.209,1.06,7.069,2.93c1.87,1.86,2.93,4.429,2.93,7.069c0,2.63-1.06,5.198-2.93,7.068
	C374.291,186.35,371.722,187.421,369.082,187.421z"/>
<path d="M361.708,275.675c-1.294,0-2.598-0.251-3.838-0.768c-3.728-1.551-6.158-5.192-6.158-9.231v-34.34h-49.347
	c-5.522,0-9.998-4.477-9.998-9.999c0-5.521,4.476-9.998,9.998-9.998h59.344c5.522,0,9.999,4.477,9.999,9.998v20.308l27.574-27.4
	c1.874-1.861,4.407-2.906,7.048-2.906h55.679c16.54,0,29.995-13.456,29.995-29.995V50.031c0-16.54-13.456-29.995-29.995-29.995
	H276.163c-16.54,0-29.995,13.456-29.995,29.995v87.079c0,5.521-4.476,9.998-9.998,9.998c-5.522,0-9.999-4.477-9.999-9.998V50.031
	c0-27.566,22.427-49.992,49.992-49.992h185.845c27.566,0,49.992,22.427,49.992,49.992v131.313c0,27.566-22.427,49.992-49.992,49.992
	h-51.555l-41.696,41.432C366.847,274.667,364.299,275.675,361.708,275.675z"/>
<g>
</g>
<g>
</g>
<g>
</g>
<g>
</g>
<g>
</g>
<g>
</g>
<g>
</g>
<g>
</g>
<g>
</g>
<g>
</g>
<g>
</g>
<g>
</g>
<g>
</g>
<g>
</g>
<g>
</g>
</svg>
