<?xml version="1.0" encoding="iso-8859-1"?>
<!-- Generator: Adobe Illustrator 19.0.0, SVG Export Plug-In . SVG Version: 6.00 Build 0)  -->
<svg version="1.1" id="Capa_1" xmlns="http://www.w3.org/2000/svg" xmlns:xlink="http://www.w3.org/1999/xlink" x="0px" y="0px"
	 viewBox="0 0 512 512" style="enable-background:new 0 0 512 512;" xml:space="preserve">
<path style="fill:#7D9BFF;" d="M244,64H56c-25.405,0-46,20.595-46,46v346c0,25.405,20.595,46,46,46h188c25.405,0,46-20.595,46-46
	V110C290,84.595,269.405,64,244,64z"/>
<rect x="44" y="128" style="fill:#FFFFFF;" width="212" height="310"/>
<path d="M150,227.109c-2.63,0-5.21-1.06-7.07-2.92c-1.86-1.87-2.93-4.439-2.93-7.08c0-2.63,1.07-5.21,2.93-7.069
	c1.86-1.86,4.44-2.92,7.07-2.92s5.21,1.06,7.07,2.92c1.86,1.859,2.93,4.439,2.93,7.069c0,2.641-1.07,5.221-2.93,7.08
	C155.21,226.05,152.63,227.109,150,227.109z"/>
<path style="fill:#AFEBA5;" d="M436,10H296c-36.451,0-66,29.549-66,66v114c0,36.451,29.549,66,66,66h29.86v47.023L373.183,256H436
	c36.451,0,66-29.549,66-66V76C502,39.549,472.451,10,436,10z"/>
<g>
	<path style="fill:#FFFFFF;" d="M350.592,201.151L350.592,201.151c0-8.753,7.096-15.849,15.849-15.849h3.17
		c8.753,0,15.849,7.096,15.849,15.849l0,0c0,8.753-7.096,15.849-15.849,15.849h-3.17C357.688,217,350.592,209.904,350.592,201.151z"
		/>
	<path style="fill:#FFFFFF;" d="M430.981,175.792h22.138c7.03,0,12.73-5.699,12.73-12.73v-25.258c0-7.03-5.699-12.73-12.73-12.73
		h-22.138V175.792z"/>
	<path style="fill:#FFFFFF;" d="M278.881,175.792h22.138v-50.717h-22.138c-7.03,0-12.73,5.699-12.73,12.73v25.258
		C266.151,170.093,271.85,175.792,278.881,175.792z"/>
</g>
<path d="M180,106c5.523,0,10-4.478,10-10s-4.477-10-10-10h-60c-5.523,0-10,4.478-10,10s4.477,10,10,10H180z"/>
<path d="M282.93,301.93c-1.86,1.86-2.93,4.44-2.93,7.07s1.07,5.21,2.93,7.069c1.86,1.86,4.44,2.931,7.07,2.931s5.21-1.07,7.07-2.931
	c1.86-1.859,2.93-4.439,2.93-7.069s-1.07-5.21-2.93-7.07S292.63,299,290,299S284.79,300.069,282.93,301.93z"/>
<path d="M121.389,338.885c-5.523,0-10,4.478-10,10s4.477,10,10,10H150h28.611c5.523,0,10-4.478,10-10s-4.477-10-10-10H160V251
	c0-5.522-4.477-10-10-10h-28.611c-5.523,0-10,4.478-10,10s4.477,10,10,10H140v77.885H121.389z"/>
<path d="M436,0H296c-34.258,0-63.283,22.789-72.741,54H56C25.122,54,0,79.121,0,110v346c0,30.879,25.122,56,56,56h188
	c30.878,0,56-25.121,56-56V348.885c0-5.522-4.477-10-10-10s-10,4.478-10,10V456c0,19.851-16.149,36-36,36H56
	c-19.851,0-36-16.149-36-36V110c0-19.851,16.149-36,36-36h164.051c-0.017,0.667-0.051,1.329-0.051,2v114
	c0,22.773,10.082,43.223,26,57.164V428H54V138h135c5.523,0,10-4.478,10-10s-4.477-10-10-10H44c-5.523,0-10,4.478-10,10v310
	c0,5.522,4.477,10,10,10h212c5.523,0,10-4.478,10-10V259.817c9.209,3.972,19.35,6.183,30,6.183h19.86v37.023
	c0,4.039,2.43,7.682,6.159,9.232c1.241,0.517,2.545,0.768,3.839,0.768c2.592,0,5.14-1.008,7.051-2.906L377.306,266H436
	c41.907,0,76-34.094,76-76V76C512,34.094,477.907,0,436,0z M492,190c0,30.879-25.122,56-56,56h-62.817
	c-2.641,0-5.175,1.045-7.049,2.906l-30.274,30.083V256c0-5.522-4.477-10-10-10H296c-30.878,0-56-25.121-56-56V76
	c0-30.879,25.122-56,56-56h140c30.878,0,56,25.121,56,56V190z"/>
<path d="M142.93,461.26c-1.86,1.86-2.93,4.44-2.93,7.07c0,2.64,1.07,5.21,2.93,7.069c1.86,1.87,4.44,2.931,7.07,2.931
	s5.21-1.061,7.07-2.931c1.86-1.859,2.93-4.439,2.93-7.069s-1.07-5.2-2.93-7.07c-1.86-1.86-4.44-2.93-7.07-2.93
	C147.37,458.33,144.79,459.399,142.93,461.26z"/>
<path d="M453.12,115.075h-12.14V96.15c0-31.513-25.638-57.15-57.151-57.15h-35.66c-31.513,0-57.15,25.638-57.15,57.15v18.925H278.88
	c-12.533,0-22.729,10.196-22.729,22.729v25.258c0,12.533,10.196,22.729,22.729,22.729h22.139c5.523,0,10-4.478,10-10v-25.487
	v-25.229V96.15c0-20.484,16.666-37.15,37.15-37.15h35.66c20.485,0,37.151,16.666,37.151,37.15v54.154c0,0.003,0,0.006,0,0.01v11.967
	c-0.023,0.275-0.042,0.551-0.042,0.832v28.038h-27.493c-3.917-9.302-13.125-15.85-23.835-15.85h-3.169
	c-14.253,0-25.849,11.596-25.849,25.85c0,14.253,11.596,25.849,25.849,25.849h3.169c10.71,0,19.918-6.547,23.835-15.849h37.493
	c5.523,0,10-4.478,10-10v-15.359h12.181c12.533,0,22.729-10.196,22.729-22.729v-25.258
	C475.849,125.271,465.653,115.075,453.12,115.075z M291.019,165.792H278.88c-1.505,0-2.729-1.225-2.729-2.729v-25.258
	c0-1.505,1.225-2.729,2.729-2.729h12.139v15.229V165.792z M369.611,207h-3.169c-3.225,0-5.849-2.624-5.849-5.849
	c0-3.226,2.624-5.85,5.849-5.85h3.169c3.225,0,5.849,2.624,5.849,5.85C375.46,204.376,372.836,207,369.611,207z M455.849,163.063
	c0,1.505-1.225,2.729-2.729,2.729h-12.139v-30.717h12.139c1.505,0,2.729,1.225,2.729,2.729V163.063z"/>
<g>
</g>
<g>
</g>
<g>
</g>
<g>
</g>
<g>
</g>
<g>
</g>
<g>
</g>
<g>
</g>
<g>
</g>
<g>
</g>
<g>
</g>
<g>
</g>
<g>
</g>
<g>
</g>
<g>
</g>
</svg>
