<?xml version="1.0" encoding="iso-8859-1"?>
<!-- Generator: Adobe Illustrator 19.0.0, SVG Export Plug-In . SVG Version: 6.00 Build 0)  -->
<svg version="1.1" id="Capa_1" xmlns="http://www.w3.org/2000/svg" xmlns:xlink="http://www.w3.org/1999/xlink" x="0px" y="0px"
	 viewBox="0 0 512 512" style="enable-background:new 0 0 512 512;" xml:space="preserve">
<path style="fill:#78D2FA;" d="M254.02,360.314V151.539h66.915c14.021,0,25.389-11.367,25.389-25.389V35.493
	c0-14.021-11.367-25.389-25.389-25.389h-36.657c-52.695,0-95.412,42.717-95.412,95.412v301.073
	c0,52.695,42.717,95.412,95.412,95.412h36.657c14.021,0,25.389-11.367,25.389-25.389V385.7c0-14.021-11.367-25.389-25.389-25.389
	H254.02V360.314z"/>
<g>
	<path style="fill:#C8F5FF;" d="M320.936,501.477c14.021,0,25.389-11.367,25.389-25.389v-90.912
		c0-14.021-11.367-25.389-25.389-25.389h-46.763v141.156c3.321,0.35,6.692,0.533,10.106,0.533h36.657V501.477z"/>
	<path style="fill:#C8F5FF;" d="M320.936,10.105h-36.657c-3.413,0-6.785,0.183-10.106,0.533v140.902h46.763
		c14.021,0,25.389-11.367,25.389-25.389V35.493C346.323,21.472,334.957,10.105,320.936,10.105z"/>
</g>
<rect x="10.144" y="155.268" style="fill:#91E696;" width="49.49" height="205.047"/>
<path style="fill:#FFCDAC;" d="M59.633,337.818L59.633,337.818c26.613,14.754,56.543,22.495,86.974,22.495H273.48
	c14.275,0,25.848-11.573,25.848-25.848v-0.499c0-14.275-11.573-25.848-25.848-25.848h-37.748h-9.859h47.607
	c14.275,0,25.848-11.573,25.848-25.848v-0.499c0-14.275-11.573-25.848-25.848-25.848h-47.608h47.607
	c14.275,0,25.848-11.573,25.848-25.848v-0.499c0-14.275-11.573-25.848-25.848-25.848h-47.607h47.607
	c14.275,0,25.848-11.573,25.848-25.848v-0.499c0-14.275-11.573-25.848-25.848-25.848H163.861l25.004-18.92V84.462l-28.653,7.418
	c-15.148,3.922-28.991,11.776-40.129,22.766l-60.527,59.732"/>
<path d="M59.633,247.787c-2.629,0-5.209,1.07-7.069,2.93c-1.86,1.859-2.929,4.438-2.929,7.068c0,2.64,1.07,5.209,2.929,7.069
	c1.86,1.87,4.439,2.939,7.069,2.939s5.209-1.07,7.069-2.939c1.86-1.86,2.929-4.429,2.929-7.069c0-2.629-1.07-5.209-2.929-7.068
	C64.842,248.858,62.263,247.787,59.633,247.787z"/>
<path d="M320.936,0.107h-36.658c-2.611,0-5.201,0.099-7.765,0.287c-0.752-0.181-1.533-0.287-2.341-0.287
	c-1.549,0-3.009,0.363-4.318,0.991c-41.307,5.678-75.055,35.376-86.656,74.504l-25.491,6.6
	c-16.831,4.357-32.269,13.116-44.645,25.329l-44.285,43.702c-1.552-3.51-5.059-5.964-9.144-5.964h-49.49
	c-5.522,0-9.998,4.477-9.998,9.998v205.047c0,5.521,4.476,9.998,9.998,9.998h49.49c5.522,0,9.998-4.477,9.998-9.998v-6.376
	c24.165,10.738,50.466,16.374,76.976,16.374h32.26v36.278c0,58.123,47.287,105.41,105.41,105.41h36.658
	c19.512,0,35.387-15.875,35.387-35.387v-90.912c0-19.512-15.874-35.387-35.387-35.387H305.62c2.368-4.782,3.705-10.161,3.705-15.85
	v-0.499c0-10.15-4.247-19.32-11.049-25.848c6.802-6.528,11.049-15.699,11.049-25.848v-0.499c0-10.149-4.247-19.319-11.049-25.848
	c6.802-6.528,11.049-15.698,11.049-25.848v-0.499c0-10.15-4.247-19.32-11.049-25.848c6.802-6.528,11.049-15.698,11.049-25.848
	v-0.499c0-5.688-1.338-11.067-3.705-15.85h15.316c19.512,0,35.387-15.875,35.387-35.387V35.493
	C356.321,15.982,340.448,0.107,320.936,0.107z M336.325,385.702v90.912c0,8.486-6.904,15.391-15.391,15.391h-36.658
	c-0.036,0-0.071-0.003-0.107-0.003v-53.114c0-5.521-4.476-9.998-9.998-9.998s-9.998,4.477-9.998,9.998v50.704
	c-37.426-9.066-65.311-42.829-65.311-83.002v-36.278h55.156h19.46h47.455C329.422,370.312,336.325,377.215,336.325,385.702z
	 M289.329,177.386v0.499c0,8.739-7.109,15.85-15.85,15.85h-47.607c-5.522,0-9.998,4.477-9.998,9.998s4.476,9.998,9.998,9.998h47.607
	c8.739,0,15.85,7.111,15.85,15.851v0.499c0,8.739-7.109,15.85-15.85,15.85h-47.607c-5.522,0-9.998,4.477-9.998,9.998
	c0,5.521,4.476,9.998,9.998,9.998h47.607c8.739,0,15.85,7.109,15.85,15.85v0.499c0,8.739-7.109,15.851-15.85,15.851h-37.747h-9.859
	c-5.522,0-9.998,4.477-9.998,9.998s4.476,9.998,9.998,9.998h9.859h37.747c8.739,0,15.85,7.109,15.85,15.85v0.499
	c0,8.739-7.109,15.85-15.85,15.85h-16.621c-0.9-0.267-1.854-0.409-2.839-0.409h-65.154c-0.979,0-1.922,0.147-2.816,0.409h-39.443
	c-26.715,0-53.201-6.389-76.976-18.51v-35.556c0-5.521-4.476-9.998-9.998-9.998s-9.998,4.477-9.998,9.998v41.446
	c0,0.022,0,0.043,0,0.065v12.553H20.14V165.266h29.494v53.003c0,5.521,4.476,9.998,9.998,9.998s9.998-4.477,9.998-9.998v-39.784
	l57.476-56.719c9.872-9.742,22.185-16.729,35.612-20.205l16.468-4.263c-0.21,2.713-0.319,5.455-0.319,8.22v22.13l-21.039,15.92
	c-3.425,2.592-4.812,7.083-3.445,11.155s5.183,6.816,9.478,6.816h109.618C282.219,161.537,289.329,168.647,289.329,177.386z
	 M336.325,126.151c0,8.486-6.904,15.391-15.391,15.391H198.863v-36.024c0-40.173,27.885-73.936,65.311-83.002v72.201
	c0,5.521,4.476,9.998,9.998,9.998s9.998-4.477,9.998-9.998v-74.61c0.036,0,0.071-0.003,0.107-0.003h36.658
	c8.486,0,15.391,6.904,15.391,15.391v90.657H336.325z"/>
<path d="M491.852,80.283c-0.282,24.082-9.951,46.859-27.226,64.135c-3.904,3.904-3.905,10.235,0,14.14
	c1.953,1.952,4.511,2.928,7.07,2.928c2.558,0,5.118-0.977,7.07-2.928c20.991-20.991,32.74-48.706,33.082-78.042
	c0.344-29.424-10.818-56.978-31.429-77.589c-3.904-3.903-10.235-3.903-14.139,0c-3.904,3.904-3.904,10.235,0,14.14
	C483.05,33.838,492.132,56.289,491.852,80.283z"/>
<path d="M435.785,129.72c1.953,1.952,4.511,2.928,7.07,2.928c2.559,0,5.118-0.977,7.07-2.928
	c27.097-27.097,27.533-70.751,0.973-97.312c-3.904-3.903-10.235-3.903-14.14,0c-3.904,3.904-3.904,10.235,0,14.14
	c18.765,18.764,18.328,49.732-0.973,69.033C431.88,119.484,431.88,125.815,435.785,129.72z"/>
<path d="M409.363,102.914c1.953,1.953,4.511,2.929,7.07,2.929s5.117-0.977,7.07-2.928c5.789-5.788,9.029-13.445,9.124-21.559
	c0.096-8.202-3.023-15.893-8.784-21.652c-3.904-3.903-10.235-3.903-14.139,0c-3.904,3.905-3.904,10.235,0,14.14
	c1.921,1.921,2.96,4.506,2.928,7.279c-0.033,2.861-1.194,5.58-3.268,7.653C405.459,92.681,405.459,99.01,409.363,102.914z"/>
<path d="M453.591,367.277c3.904-3.904,3.904-10.235,0-14.14c-3.904-3.903-10.235-3.903-14.139,0
	c-43.363,43.364-44.105,113.179-1.654,155.631c1.953,1.952,4.511,2.928,7.07,2.928s5.118-0.977,7.07-2.928
	c3.904-3.904,3.905-10.235,0-14.14C417.281,459.975,418.023,402.844,453.591,367.277z"/>
<path d="M482.429,381.977c-3.904-3.903-10.235-3.903-14.139,0c-27.096,27.097-27.532,70.751-0.972,97.312
	c1.953,1.952,4.511,2.928,7.07,2.928s5.118-0.977,7.07-2.928c3.904-3.904,3.905-10.235,0-14.14
	c-18.764-18.765-18.328-49.733,0.972-69.033C486.334,392.212,486.334,385.881,482.429,381.977z"/>
<path d="M508.851,408.781c-3.904-3.903-10.235-3.903-14.139,0c-12.007,12.008-12.159,31.392-0.34,43.214
	c1.953,1.952,4.511,2.928,7.07,2.928s5.117-0.977,7.07-2.928c3.904-3.904,3.905-10.234,0-14.14
	c-4.023-4.023-3.871-10.724,0.34-14.935C512.755,419.014,512.755,412.685,508.851,408.781z"/>
<path d="M264.17,402.896c0,2.629,1.07,5.209,2.929,7.068c1.86,1.86,4.439,2.93,7.069,2.93c2.639,0,5.209-1.07,7.069-2.93
	c1.87-1.859,2.929-4.438,2.929-7.068s-1.06-5.209-2.929-7.069c-1.86-1.86-4.429-2.929-7.069-2.929c-2.629,0-5.209,1.069-7.069,2.929
	C265.24,397.688,264.17,400.266,264.17,402.896z"/>
<g>
</g>
<g>
</g>
<g>
</g>
<g>
</g>
<g>
</g>
<g>
</g>
<g>
</g>
<g>
</g>
<g>
</g>
<g>
</g>
<g>
</g>
<g>
</g>
<g>
</g>
<g>
</g>
<g>
</g>
</svg>
