<?xml version="1.0" encoding="iso-8859-1"?>
<!-- Generator: Adobe Illustrator 19.0.0, SVG Export Plug-In . SVG Version: 6.00 Build 0)  -->
<svg version="1.1" id="Capa_1" xmlns="http://www.w3.org/2000/svg" xmlns:xlink="http://www.w3.org/1999/xlink" x="0px" y="0px"
	 viewBox="0 0 512 512" style="enable-background:new 0 0 512 512;" xml:space="preserve">
<path style="fill:#78D2FA;" d="M323.407,436.832H188.593c-9.622,0-17.88-6.851-19.656-16.308l-9.25-49.247
	C156.934,356.62,144.134,346,129.22,346H41c-17.121,0-31,13.879-31,31v19c0,58.542,47.458,106,106,106h280
	c58.542,0,106-47.458,106-106v-19c0-17.121-13.879-31-31-31h-88.22c-14.914,0-27.714,10.62-30.467,25.277l-9.25,49.247
	C341.287,429.981,333.029,436.832,323.407,436.832z"/>
<g>
	<path style="fill:#C8F5FF;" d="M471,346h-88.22c-14.914,0-27.714,10.62-30.467,25.277l-6.6,35.139H501.49
		c0.334-3.427,0.51-6.901,0.51-10.417v-19C502,359.879,488.121,346,471,346z"/>
	<path style="fill:#C8F5FF;" d="M159.687,371.277C156.934,356.62,144.134,346,129.22,346H41c-17.121,0-31,13.879-31,31v19
		c0,3.515,0.175,6.989,0.51,10.417h155.777L159.687,371.277z"/>
</g>
<path style="fill:#F0F0FA;" d="M250.32,64H50c-22.091,0-40,17.909-40,40v122c0,22.091,17.909,40,40,40h14v44.344L108.627,266H250.32
	c22.091,0,40-17.909,40-40V104C290.32,81.909,272.412,64,250.32,64z"/>
<path style="fill:#FF5A5A;" d="M462,10H286c-22.091,0-40,17.909-40,40v14h4.32c22.091,0,40,17.909,40,40v109.704L291,216h100
	l43.057,43.057V216H462c22.091,0,40-17.909,40-40V50C502,27.909,484.091,10,462,10z"/>
<path d="M471,336h-88.22c-19.71,0-36.656,14.06-40.295,33.432l-9.25,49.246c-0.888,4.725-5.021,8.154-9.828,8.154H188.593
	c-4.808,0-8.94-3.43-9.828-8.153l-9.25-49.247C165.876,350.06,148.93,336,129.22,336H41c-22.607,0-41,18.393-41,41v19
	c0,63.963,52.037,116,116,116h280c63.963,0,116-52.037,116-116v-19C512,354.393,493.607,336,471,336z M396,492H116
	c-52.935,0-96-43.065-96-96v-19c0-11.579,9.421-21,21-21h88.22c10.096,0,18.775,7.201,20.639,17.123L154.155,396H71.667
	c-5.522,0-10,4.478-10,10s4.478,10,10,10h86.245l1.197,6.371c2.663,14.174,15.063,24.461,29.484,24.461h134.814
	c14.422,0,26.821-10.287,29.484-24.462l9.25-49.247C364.005,363.201,372.685,356,382.78,356H471c11.579,0,21,9.421,21,21v19h-52.333
	c-5.522,0-10,4.478-10,10s4.478,10,10,10h50.231C480.671,459.367,442.078,492,396,492z"/>
<path d="M462,0H286c-27.57,0-50,22.43-50,50v4H50C22.43,54,0,76.43,0,104v122c0,27.57,22.43,50,50,50h4v34.344
	c0,4.039,2.43,7.682,6.158,9.232c1.242,0.517,2.546,0.768,3.84,0.768c2.591,0,5.14-1.008,7.051-2.906L112.75,276h137.57
	c27.57,0,50-22.43,50-50h86.537l40.128,40.128c1.913,1.913,4.471,2.929,7.073,2.929c1.288,0,2.588-0.249,3.825-0.761
	c3.736-1.548,6.173-5.194,6.173-9.239V226H462c27.57,0,50-22.43,50-50V50C512,22.43,489.57,0,462,0z M280.32,226
	c0,16.542-13.458,30-30,30H108.627c-2.642,0-5.175,1.045-7.049,2.906L74,286.31V266c0-5.522-4.478-10-10-10H50
	c-16.542,0-30-13.458-30-30V104c0-16.542,13.458-30,30-30h200.32c16.542,0,30,13.458,30,30V226z M492,176c0,16.542-13.458,30-30,30
	h-27.943c-5.522,0-10,4.477-10,10v18.915l-25.985-25.986c-1.877-1.875-4.42-2.929-7.072-2.929h-90.68V104
	c0-25.649-19.416-46.838-44.32-49.668V50c0-16.542,13.458-30,30-30h176c16.542,0,30,13.458,30,30V176z"/>
<path d="M373.822,53.752c-20.953,0-38,17.047-38,38c0,5.523,4.478,10,10,10s10-4.477,10-10c0-9.925,8.075-18,18-18s18,8.075,18,18
	s-8.075,18-18,18c-5.522,0-10,4.477-10,10v12.623c0,5.523,4.478,10,10,10s10-4.477,10-10v-3.958c16.118-4.4,28-19.171,28-36.665
	C411.822,70.799,394.775,53.752,373.822,53.752z"/>
<path d="M373.819,157.38c-2.63,0-5.21,1.06-7.069,2.93c-1.86,1.86-2.931,4.43-2.931,7.07c0,2.63,1.07,5.2,2.931,7.07
	c1.859,1.86,4.439,2.93,7.069,2.93c2.631,0,5.21-1.07,7.07-2.93c1.86-1.86,2.93-4.44,2.93-7.07c0-2.64-1.069-5.22-2.93-7.07
	C379.029,158.44,376.45,157.38,373.819,157.38z"/>
<path d="M246,102H64c-5.522,0-10,4.477-10,10s4.478,10,10,10h182c5.522,0,10-4.477,10-10S251.522,102,246,102z"/>
<path d="M119.478,198H64c-5.522,0-10,4.477-10,10s4.478,10,10,10h55.478c5.522,0,10-4.477,10-10S125,198,119.478,198z"/>
<path d="M246,150c-2.641,0-5.21,1.07-7.07,2.93c-1.86,1.86-2.93,4.44-2.93,7.07s1.069,5.21,2.93,7.07S243.36,170,246,170
	c2.64,0,5.21-1.07,7.069-2.93c1.86-1.86,2.931-4.44,2.931-7.07s-1.07-5.21-2.931-7.07C251.21,151.07,248.64,150,246,150z"/>
<path d="M203.75,150H64c-5.522,0-10,4.477-10,10s4.478,10,10,10h139.75c5.522,0,10-4.477,10-10S209.272,150,203.75,150z"/>
<path d="M399,396c-2.63,0-5.21,1.069-7.07,2.93S389,403.37,389,406s1.069,5.21,2.93,7.069c1.86,1.86,4.44,2.931,7.07,2.931
	s5.21-1.07,7.069-2.931C407.93,411.21,409,408.63,409,406s-1.07-5.21-2.931-7.07C404.21,397.069,401.63,396,399,396z"/>
<g>
</g>
<g>
</g>
<g>
</g>
<g>
</g>
<g>
</g>
<g>
</g>
<g>
</g>
<g>
</g>
<g>
</g>
<g>
</g>
<g>
</g>
<g>
</g>
<g>
</g>
<g>
</g>
<g>
</g>
</svg>
