<?xml version="1.0" encoding="iso-8859-1"?>
<!-- Generator: Adobe Illustrator 19.0.0, SVG Export Plug-In . SVG Version: 6.00 Build 0)  -->
<svg version="1.1" id="Capa_1" xmlns="http://www.w3.org/2000/svg" xmlns:xlink="http://www.w3.org/1999/xlink" x="0px" y="0px"
	 viewBox="0 0 512 512" style="enable-background:new 0 0 512 512;" xml:space="preserve">
<path style="fill:#9BBEFF;" d="M482,394H30c-11.046,0-20-8.954-20-20V30c0-11.046,8.954-20,20-20h452c11.046,0,20,8.954,20,20v344
	C502,385.046,493.046,394,482,394z"/>
<path style="fill:#FFFFFF;" d="M438,350.036H74c-11.046,0-20-8.954-20-20V73.964c0-11.046,8.954-20,20-20h364
	c11.046,0,20,8.954,20,20v256.071C458,341.081,449.046,350.036,438,350.036z"/>
<path style="fill:#91E696;" d="M205.803,235.874v11.74c0,9.342,6.734,13.53,16.847,16.916l43.203,9.829
	c20.331,4.284,34.146,14.33,34.146,32.007v43.67h-226c-11.046,0-20-8.954-20-20v-23.67c0-17.677,13.805-27.723,34.136-32.007
	l43.203-9.829c10.113-3.386,16.847-7.573,16.847-16.916v-12.366"/>
<path style="fill:#FFCDAC;" d="M205.803,247.614v-11.74l-57.617-0.626v12.366c0,9.343-6.734,13.53-16.847,16.916l-9.67,2.2
	l56.702,27.684l55.827-27.257l-11.547-2.627C212.538,261.144,205.803,256.957,205.803,247.614z"/>
<g>
	<path style="fill:#FF5A5A;" d="M239.637,189.418h7c13.807,0,25-11.193,25-25l0,0c0-13.807-11.193-25-25-25h-7V189.418z"/>
	<path style="fill:#FF5A5A;" d="M118.56,139.418h-7c-13.807,0-25,11.193-25,25l0,0c0,13.807,11.193,25,25,25h7V139.418z"/>
</g>
<path style="fill:#FFCDAC;" d="M178.779,236.68L178.779,236.68c-33.259,0-60.221-26.962-60.221-60.221v-48.536
	c0-33.259,26.962-60.221,60.221-60.221l0,0c33.259,0,60.221,26.962,60.221,60.221v48.536C239,209.718,212.038,236.68,178.779,236.68
	z"/>
<path style="fill:#878791;" d="M225.058,141.564H239v-13.64c0-33.259-26.962-60.221-60.221-60.221l0,0
	c-33.259,0-60.221,26.962-60.221,60.221v14.121h28.66c22.639,0,44.351-8.993,60.36-25.001l-11.539,12.5
	C203.735,137.24,214.174,141.564,225.058,141.564z"/>
<rect x="199.03" y="394" style="fill:#D7D7E6;" width="113.94" height="68"/>
<path style="fill:#7D9BFF;" d="M348,502H164l0,0c0-22.091,17.909-40,40-40h104C330.091,462,348,479.909,348,502L348,502z"/>
<path style="fill:#F5C86E;" d="M301.637,54H428c16.569,0,30,13.431,30,30v82c0,16.569-13.431,30-30,30h-67.873L330,226.127V196
	h-28.363c-16.569,0-30-13.431-30-30V84C271.637,67.431,285.068,54,301.637,54z"/>
<path d="M482,0H30C13.458,0,0,13.458,0,30v344c0,16.542,13.458,30,30,30h159.028v50.292C168.75,460.67,154,479.644,154,502
	c0,5.522,4.478,10,10,10h184c5.522,0,10-4.478,10-10c0-22.357-14.75-41.331-35.03-47.708V404H356c5.522,0,10-4.478,10-10
	s-4.478-10-10-10h-43.03H199.028H30c-5.514,0-10-4.486-10-10V30c0-5.514,4.486-10,10-10h452c5.514,0,10,4.486,10,10v344
	c0,5.514-4.486,10-10,10h-25.5c-5.522,0-10,4.478-10,10s4.478,10,10,10H482c16.542,0,30-13.458,30-30V30C512,13.458,498.542,0,482,0
	z M336.286,492H175.714c4.127-11.641,15.249-20,28.286-20h104C321.037,472,332.159,480.359,336.286,492z M302.97,404v48h-93.941v-48
	H302.97z"/>
<path d="M408,384c-2.641,0-5.21,1.069-7.07,2.93S398,391.37,398,394s1.069,5.21,2.93,7.069c1.86,1.86,4.44,2.931,7.07,2.931
	s5.21-1.07,7.069-2.931C416.93,399.21,418,396.63,418,394s-1.07-5.21-2.931-7.07C413.21,385.069,410.64,384,408,384z"/>
<path d="M468,330v-94.752c0-5.523-4.478-10-10-10s-10,4.477-10,10V330c0,5.514-4.486,10-10,10H310v-33.634
	c0-12.287-5.459-34.044-42.003-41.774l-42.629-9.699c-9.564-3.268-9.564-5.397-9.564-7.279v-11.531
	c13.541-8.439,24.004-21.355,29.319-36.665h1.514c8.976,0,17.17-3.399,23.371-8.974c7.323,9.453,18.773,15.556,31.629,15.556H320
	v20.127c0,4.044,2.437,7.691,6.173,9.239c1.237,0.513,2.537,0.762,3.825,0.762c2.603,0,5.16-1.017,7.073-2.929L364.27,206H428
	c22.056,0,40-17.944,40-40V84c0-22.056-17.944-40-40-40H301.637c-22.056,0-40,17.944-40,40v48.802
	c-3.875-1.846-8.143-2.994-12.639-3.295v-1.585c0-38.719-31.5-70.219-70.219-70.219s-70.219,31.5-70.219,70.219v1.634
	c-17.899,1.528-32,16.575-32,34.863c0,19.299,15.701,35,35,35h0.875c4.854,13.982,14.004,25.963,25.87,34.365
	c-0.071,0.479-0.119,0.966-0.119,1.465v12.366c0,1.882,0,4.011-9.565,7.279l-42.624,9.698c-9.146,1.935-16.344,4.749-21.997,8.073
	V74c0-5.514,4.486-10,10-10h28.561c5.522,0,10-4.477,10-10s-4.478-10-10-10H74c-16.542,0-30,13.458-30,30v232.366V330v0.036
	c0,16.542,13.458,30,30,30h226c0.242,0,0.478-0.019,0.715-0.036H438C454.542,360,468,346.542,468,330z M281.637,84
	c0-11.028,8.972-20,20-20H428c11.028,0,20,8.972,20,20v82c0,11.028-8.972,20-20,20h-67.873c-2.652,0-5.195,1.054-7.071,2.929
	L340,201.985V196c0-5.523-4.478-10-10-10h-28.363c-11.028,0-20-8.972-20-20V84z M261.637,164.418c0,7.49-5.524,13.698-12.709,14.806
	c0.036-0.92,0.07-1.84,0.07-2.768v-26.833C256.149,150.761,261.637,156.952,261.637,164.418z M178.779,77.703
	c27.69,0,50.219,22.528,50.219,50.219v3.64h-5.721c-5.143,0-10.093-1.244-14.51-3.587c1.397-1.245,2.768-2.529,4.102-3.863
	c3.905-3.905,3.905-10.237,0-14.142c-3.906-3.905-10.236-3.905-14.143,0c-14.233,14.233-33.157,22.072-53.286,22.072h-16.88v-4.121
	C128.561,100.23,151.089,77.703,178.779,77.703z M96.561,164.418c0-7.244,5.161-13.304,12-14.698v26.736
	c0,0.895,0.034,1.782,0.068,2.67C101.757,177.758,96.561,171.685,96.561,164.418z M128.561,176.456v-24.414h16.88
	c16.307,0,31.986-4.072,45.885-11.724c9.033,7.28,20.186,11.243,31.951,11.243h5.721v24.895c0,0.995-0.037,1.981-0.095,2.962
	h-10.272c-5.522,0-10,4.477-10,10s4.478,10,10,10h4.787c-8.352,16.17-25.219,27.257-44.639,27.257
	C151.089,226.675,128.561,204.147,128.561,176.456z M178.779,246.675c5.87,0,11.571-0.734,17.024-2.098v3.037
	c0,10.848,5.931,17.308,12.138,21.234l-29.569,14.438l-31.156-15.212c5.762-3.985,10.97-10.295,10.97-20.46v-4.026
	C164.702,245.591,171.616,246.675,178.779,246.675z M90.198,284.145c0.053-0.011,0.104-0.022,0.157-0.034l30.096-6.847
	l53.533,26.137c1.385,0.676,2.886,1.014,4.388,1.014s3.003-0.338,4.388-1.014l52.657-25.71l28.218,6.42
	c0.053,0.012,0.104,0.023,0.157,0.034C290,289.667,290,302.236,290,306.366V340H74c-5.514,0-10-4.486-10-10v-23.634
	C64,302.235,64,289.665,90.198,284.145z"/>
<path d="M344.818,114.442c5.522,0,10-4.477,10-10c0-5.514,4.486-10,10-10s10,4.486,10,10s-4.486,10-10,10c-5.522,0-10,4.477-10,10
	v9.016c0,5.523,4.478,10,10,10s10-4.477,10-10v-0.729c11.641-4.127,20-15.249,20-28.287c0-16.542-13.458-30-30-30s-30,13.458-30,30
	C334.818,109.965,339.296,114.442,344.818,114.442z"/>
<path d="M364.819,148.46c-2.64,0-5.21,1.07-7.069,2.93c-1.86,1.86-2.931,4.43-2.931,7.07c0,2.63,1.07,5.21,2.931,7.07
	c1.859,1.86,4.439,2.93,7.069,2.93c2.631,0,5.21-1.07,7.07-2.93s2.93-4.44,2.93-7.07s-1.069-5.21-2.93-7.07
	C370.029,149.53,367.45,148.46,364.819,148.46z"/>
<path d="M182,199.42c2.63,0,5.21-1.07,7.069-2.93c1.86-1.86,2.931-4.44,2.931-7.07s-1.07-5.21-2.931-7.07
	c-1.859-1.86-4.439-2.93-7.069-2.93s-5.21,1.07-7.07,2.93c-1.86,1.86-2.93,4.44-2.93,7.07s1.069,5.21,2.93,7.07
	S179.37,199.42,182,199.42z"/>
<g>
</g>
<g>
</g>
<g>
</g>
<g>
</g>
<g>
</g>
<g>
</g>
<g>
</g>
<g>
</g>
<g>
</g>
<g>
</g>
<g>
</g>
<g>
</g>
<g>
</g>
<g>
</g>
<g>
</g>
</svg>
