<?xml version="1.0" encoding="iso-8859-1"?>
<!-- Generator: Adobe Illustrator 19.0.0, SVG Export Plug-In . SVG Version: 6.00 Build 0)  -->
<svg version="1.1" id="Capa_1" xmlns="http://www.w3.org/2000/svg" xmlns:xlink="http://www.w3.org/1999/xlink" x="0px" y="0px"
	 viewBox="0 0 512 512" style="enable-background:new 0 0 512 512;" xml:space="preserve">
<path style="fill:#78D2FA;" d="M75.168,323.407V188.593c0-9.622,6.851-17.88,16.308-19.656l58.216-10.935
	c9.457-1.776,16.308-10.034,16.308-19.656V30c0-11.046-8.954-20-20-20l0,0C70.889,10,10,70.889,10,146v220
	c0,75.111,60.889,136,136,136l0,0c11.046,0,20-8.954,20-20V373.654c0-9.622-6.851-17.88-16.308-19.656l-58.216-10.935
	C82.019,341.287,75.168,333.029,75.168,323.407z"/>
<g>
	<path style="fill:#C8F5FF;" d="M146,502c11.046,0,20-8.954,20-20V373.654c0-9.622-6.851-17.88-16.308-19.656L104,345.416V495.38
		C117.229,499.671,131.341,502,146,502L146,502z"/>
	<path style="fill:#C8F5FF;" d="M146,10L146,10c-14.659,0-28.771,2.329-42,6.62v149.964l45.692-8.582
		c9.457-1.776,16.308-10.034,16.308-19.656V30C166,18.954,157.046,10,146,10z"/>
</g>
<path style="fill:#FFCDAC;" d="M365.149,292.5L365.149,292.5c-37.003,0-67-29.997-67-67v-54c0-37.003,29.997-67,67-67l0,0
	c37.003,0,67,29.997,67,67v54C432.149,262.503,402.152,292.5,365.149,292.5z"/>
<path style="fill:#878791;" d="M416.638,186.676h15.511V171.5c0-37.003-29.997-67-67-67l0,0c-37.003,0-67,29.997-67,67v15.711
	h31.886c25.188,0,49.344-10.006,67.155-27.816l-12.838,13.908C392.915,181.865,404.528,186.676,416.638,186.676z"/>
<path style="fill:#91E696;" d="M470.756,407.5H502v-37.461c0-19.668-15.371-30.845-37.992-35.611l-48.068-10.936
	c-11.252-3.767-18.745-8.426-18.745-18.821v-13.062l-64.105-0.696v13.759c0,10.394-7.493,15.054-18.745,18.821l-48.068,10.936
	c-22.621,4.767-37.981,15.944-37.981,35.611v37.46h169.203H470.756z"/>
<path style="fill:#FFCDAC;" d="M424.853,327.591l1.531-1.723l-10.444-2.376c-11.252-3.767-18.745-8.426-18.745-18.821v-13.062
	l-64.105-0.696v13.759c0,10.395-7.493,15.054-18.745,18.821l-10.087,2.295l1.185,1.804l0,0
	C343.122,345.987,387.176,345.987,424.853,327.591L424.853,327.591z"/>
<g>
	<path style="fill:#78D2FA;" d="M298.149,183.921h-9.369c-10.29,0-18.631,8.341-18.631,18.631v18.738
		c0,10.29,8.341,18.631,18.631,18.631h9.369V183.921z"/>
	<path style="fill:#78D2FA;" d="M432.149,239.921h9.369c10.29,0,18.631-8.341,18.631-18.631v-18.738
		c0-10.29-8.341-18.631-18.631-18.631h-9.369V239.921z"/>
</g>
<path d="M151.538,344.17l-58.216-10.935c-4.725-0.888-8.154-5.021-8.154-9.828V188.593c0-4.808,3.429-8.941,8.154-9.828
	l58.216-10.935C165.712,165.168,176,152.768,176,138.346V30c0-16.542-13.458-30-30-30C65.496,0,0,65.496,0,146v220
	c0,80.505,65.496,146,146,146c16.542,0,30-13.458,30-30V373.654C176,359.232,165.712,346.832,151.538,344.17z M156,482
	c0,5.514-4.486,10-10,10c-11.054,0-21.777-1.436-32-4.122v-80.066c0-5.522-4.477-10-10-10s-10,4.478-10,10v72.95
	C50.394,460.925,20,416.946,20,366V146c0-50.946,30.394-94.925,74-114.761v84.709c0,5.523,4.477,10,10,10s10-4.477,10-10V24.122
	C124.223,21.436,134.946,20,146,20c5.514,0,10,4.486,10,10v108.346c0,4.807-3.429,8.94-8.154,9.828L89.63,159.109
	c-14.174,2.662-24.462,15.062-24.462,29.484v134.814c0,14.422,10.288,26.821,24.462,29.484l58.216,10.935
	c4.725,0.888,8.154,5.021,8.154,9.828V482z"/>
<path d="M436.17,397.45c-2.63,0-5.21,1.069-7.07,2.93c-1.86,1.86-2.93,4.43-2.93,7.07c0,2.63,1.07,5.21,2.93,7.069
	c1.86,1.86,4.44,2.931,7.07,2.931s5.21-1.07,7.07-2.931c1.86-1.859,2.93-4.439,2.93-7.069c0-2.631-1.07-5.21-2.93-7.07
	S438.8,397.45,436.17,397.45z"/>
<path d="M466.15,324.659l-47.493-10.805c-11.461-3.91-11.461-6.71-11.461-9.184v-13.063c0-0.534-0.054-1.054-0.135-1.565
	c14.431-9.403,25.521-23.504,31.095-40.122h3.362c15.787,0,28.631-12.844,28.631-28.631v-18.738c0-15.576-12.504-28.277-28-28.615
	V171.5c0-42.458-34.542-77-77-77s-77,34.542-77,77v2.437c-15.496,0.338-28,13.039-28,28.615v18.738
	c0,15.787,12.844,28.631,28.631,28.631h3.362c5.562,16.581,16.613,30.656,30.997,40.059c-0.029,0.307-0.047,0.617-0.047,0.932
	v13.759c0,2.474,0,5.273-11.461,9.184l-47.494,10.805c-39.88,8.435-45.838,32.048-45.838,45.38v37.46c0,5.522,4.477,10,10,10
	h169.203c5.523,0,10-4.478,10-10s-4.477-10-10-10H238.298v-27.461c0-4.822,0-19.496,30.042-25.826
	c0.052-0.011,0.104-0.022,0.156-0.034l32.838-7.471c19.774,9.601,41.832,14.68,63.813,14.68c21.98,0,44.037-5.078,63.81-14.678
	l32.831,7.469c0.052,0.012,0.104,0.023,0.156,0.034C492,350.546,492,365.218,492,370.039V397.5h-21.244c-5.523,0-10,4.478-10,10
	s4.477,10,10,10H502c5.523,0,10-4.478,10-10v-37.461C512,356.708,506.041,333.096,466.15,324.659z M450.149,202.552v18.738
	c0,4.592-3.606,8.346-8.134,8.606c0.083-1.456,0.134-2.92,0.134-4.396v-31.547C446.614,194.279,450.149,198.006,450.149,202.552z
	 M365.149,114.5c31.43,0,57,25.57,57,57v5.176h-5.511c-6.46,0-12.656-1.711-18.077-4.91c1.954-1.689,3.855-3.456,5.7-5.301
	c3.905-3.905,3.905-10.237,0-14.142s-10.237-3.905-14.142,0c-16.049,16.049-37.387,24.888-60.083,24.888H308.15V171.5
	C308.149,140.07,333.719,114.5,365.149,114.5z M280.149,221.291v-18.738c0-4.546,3.535-8.274,8-8.599V225.5
	c0,1.476,0.052,2.94,0.134,4.396C283.755,229.636,280.149,225.882,280.149,221.291z M308.149,225.5v-28.289h21.886
	c18.209,0,35.708-4.61,51.171-13.269c9.951,8.244,22.345,12.734,35.432,12.734h5.511V225.5c0,31.43-25.57,57-57,57l0,0
	C333.719,282.5,308.149,256.93,308.149,225.5z M331.146,326.743c6.304-4.245,11.945-10.994,11.945-22.072v-5.407
	c6.992,2.095,14.393,3.236,22.058,3.236c7.661,0,15.057-1.14,22.046-3.233v5.404c0,11.08,5.644,17.83,11.949,22.074
	C376.86,333.042,353.43,333.041,331.146,326.743z"/>
<path d="M213.546,54.289c46.428-9.708,95.088-3.106,137.014,18.588c1.469,0.76,3.04,1.121,4.587,1.121
	c3.619,0,7.112-1.971,8.89-5.406c2.538-4.905,0.62-10.939-4.286-13.477c-46.001-23.804-99.379-31.05-150.299-20.402
	c-5.406,1.13-8.872,6.429-7.741,11.835S208.141,55.42,213.546,54.289z"/>
<path d="M350.233,439.113c-43.262,22.288-93.314,28.497-140.94,17.482c-5.38-1.24-10.751,2.108-11.996,7.49
	c-1.245,5.381,2.109,10.751,7.49,11.996c16.88,3.903,34.032,5.833,51.129,5.833c35.807,0,71.35-8.472,103.476-25.022
	c4.91-2.529,6.839-8.56,4.31-13.47C361.172,438.515,355.141,436.583,350.233,439.113z"/>
<path d="M206.635,288.346l25.275-25.274c1.875-1.876,2.929-4.419,2.929-7.071s-1.054-5.196-2.929-7.071l-25.275-25.275
	c-3.905-3.905-10.237-3.905-14.143,0s-3.905,10.237,0,14.143l8.204,8.204H150.5c-5.523,0-10,4.477-10,10c0,5.522,4.477,10,10,10
	h50.197l-8.203,8.203c-3.905,3.905-3.906,10.237,0,14.143c1.953,1.952,4.512,2.929,7.071,2.929
	C202.123,291.274,204.683,290.298,206.635,288.346z"/>
<path d="M109.93,248.93c-1.86,1.86-2.93,4.44-2.93,7.07s1.07,5.21,2.93,7.069c1.86,1.86,4.44,2.931,7.07,2.931s5.21-1.07,7.07-2.931
	c1.86-1.859,2.93-4.439,2.93-7.069s-1.07-5.21-2.93-7.07S119.63,246,117,246S111.79,247.07,109.93,248.93z"/>
<g>
</g>
<g>
</g>
<g>
</g>
<g>
</g>
<g>
</g>
<g>
</g>
<g>
</g>
<g>
</g>
<g>
</g>
<g>
</g>
<g>
</g>
<g>
</g>
<g>
</g>
<g>
</g>
<g>
</g>
</svg>
