<?xml version="1.0" encoding="iso-8859-1"?>
<!-- Generator: Adobe Illustrator 19.0.0, SVG Export Plug-In . SVG Version: 6.00 Build 0)  -->
<svg version="1.1" id="Capa_1" xmlns="http://www.w3.org/2000/svg" xmlns:xlink="http://www.w3.org/1999/xlink" x="0px" y="0px"
	 viewBox="0 0 511.999 511.999" style="enable-background:new 0 0 511.999 511.999;" xml:space="preserve">
<path style="fill:#C8F5FF;" d="M502,184.474v-52.942h-5.026c-13.113,0-24.815-8.006-29.806-20.132
	c-0.054-0.132-0.109-0.263-0.163-0.394c-5.044-12.134-2.477-26.091,6.815-35.383l3.551-3.551l-37.435-37.435l-3.551,3.551
	c-9.292,9.292-23.248,11.859-35.382,6.815c-0.131-0.055-0.263-0.109-0.395-0.163c-12.126-4.991-20.133-16.694-20.133-29.806v-5.026
	h-52.942v5.126c0,13.077-7.975,24.754-20.064,29.74c-0.141,0.058-0.282,0.117-0.423,0.175c-12.119,5.052-26.067,2.495-35.351-6.789
	l-3.623-3.623l-37.435,37.435l3.719,3.719c9.265,9.265,11.797,23.175,6.774,35.276c-0.055,0.133-0.11,0.266-0.165,0.4
	c-4.967,12.086-16.628,20.065-29.694,20.065h-5.264v52.942h5.375c13.024,0,24.655,7.945,29.613,19.988
	c0.061,0.149,0.123,0.298,0.185,0.447c5.029,12.08,2.507,25.975-6.745,35.227l-3.799,3.799l37.435,37.435l3.799-3.799
	c9.252-9.252,23.148-11.775,35.227-6.745c0.149,0.062,0.298,0.124,0.447,0.185c12.044,4.958,19.987,16.59,19.987,29.613v5.375
	h52.942v-5.264c0-13.067,7.98-24.727,20.066-29.694c0.133-0.055,0.267-0.11,0.4-0.165c12.101-5.023,26.012-2.49,35.276,6.774
	l3.719,3.719l37.435-37.435l-3.623-3.623c-9.284-9.284-11.841-23.232-6.789-35.351c0.059-0.141,0.117-0.281,0.175-0.422
	c4.986-12.089,16.664-20.064,29.74-20.064H502V184.474z"/>
<circle style="fill:#FFFFFF;" cx="354.001" cy="157.997" r="74.598"/>
<circle style="fill:#FF5A5A;" cx="354.001" cy="157.997" r="23.999"/>
<g>
	<path style="fill:#78D2FA;" d="M108.925,224.001H98.218c-11.759,0-21.291,9.533-21.291,21.291v21.414
		c0,11.759,9.533,21.291,21.291,21.291h10.708"/>
	<path style="fill:#78D2FA;" d="M292.921,287.999h10.708c11.759,0,21.291-9.533,21.291-21.291v-21.414
		c0-11.759-9.533-21.291-21.291-21.291h-10.708V287.999z"/>
</g>
<g>
	<path style="fill:#FFCDAC;" d="M212.923,359.997h-23.999c-44.182,0-79.998-35.816-79.998-79.998v-95.998
		c0-44.182,35.816-79.998,79.998-79.998h23.999c44.182,0,79.998,35.816,79.998,79.998v95.998
		C292.921,324.181,257.104,359.997,212.923,359.997z"/>
	<path style="fill:#FFCDAC;" d="M242.007,346.749v30.897c0,14.167,10.23,20.516,25.591,25.65l65.625,14.905
		c30.883,6.497,51.854,21.729,51.854,48.535l0.015,35.257h-36.578h-72.773H11.416v-35.257c0-26.805,20.97-42.038,51.854-48.535
		l65.625-14.905c15.362-5.134,25.591-11.485,25.591-25.65v-30.897H242.007z"/>
</g>
<path style="fill:#FF5A5A;" d="M333.224,418.202l-60.99-13.852c-33.09,19.798-73.979,44.263-73.979,44.263l-73.983-44.265
	l-61.001,13.855c-30.883,6.497-51.854,21.729-51.854,48.535v35.257h264.325h72.773h36.578l-0.015-35.257
	C385.077,439.931,364.107,424.699,333.224,418.202z"/>
<path style="fill:#FAE196;" d="M212.547,104.004h-23.248c-44.389,0-80.374,35.984-80.374,80.374v46.623h25.251
	c32.02,0,63.15-8.588,90.331-24.467l-0.004,0.091c15.122,15.122,35.632,23.617,57.018,23.617h11.4v-45.864
	C292.921,139.989,256.936,104.004,212.547,104.004z"/>
<path d="M388.003,158c0-18.748-15.252-33.999-33.999-33.999c-18.747,0-33.999,15.252-33.999,33.999s15.252,33.999,33.999,33.999
	C372.752,191.999,388.003,176.746,388.003,158z M340.004,158c0-7.72,6.28-14,14-14c7.72,0,14,6.28,14,14s-6.28,14-14,14
	C346.284,171.999,340.004,165.719,340.004,158z"/>
<path d="M200.968,307.109c-2.63,0-5.21,1.061-7.07,2.921c-1.86,1.869-2.93,4.449-2.93,7.079c0,2.631,1.07,5.2,2.93,7.07
	c1.86,1.86,4.44,2.93,7.07,2.93c2.63,0,5.21-1.069,7.07-2.93c1.86-1.87,2.93-4.439,2.93-7.07c0-2.64-1.07-5.21-2.93-7.079
	C206.178,308.169,203.598,307.109,200.968,307.109z"/>
<path d="M84.88,491.924c-2.63,0-5.21,1.07-7.07,2.93c-1.86,1.86-2.93,4.44-2.93,7.07c0,2.63,1.07,5.21,2.93,7.07
	c1.86,1.859,4.44,2.93,7.07,2.93c2.63,0,5.21-1.07,7.07-2.93c1.87-1.86,2.93-4.44,2.93-7.07c0-2.63-1.06-5.21-2.93-7.07
	C90.091,492.994,87.52,491.924,84.88,491.924z"/>
<path d="M428.62,167.704c0.014,0,0.027,0,0.041,0c5.523-0.022,9.982-4.517,9.96-10.04l-0.008-0.833
	c-0.077-5.522-4.645-9.923-10.139-9.859c-5.522,0.077-9.937,4.616-9.859,10.139l0.006,0.633
	C418.643,163.253,423.116,167.704,428.62,167.704z"/>
<path d="M355.052,242.593c0.047,0,0.094,0,0.141-0.001c25.233-0.349,48.808-11.82,64.676-31.472
	c3.47-4.297,2.799-10.593-1.498-14.063c-4.296-3.47-10.593-2.799-14.063,1.498c-12.121,15.011-30.124,23.772-49.393,24.039
	c-5.522,0.076-9.937,4.615-9.861,10.137C345.132,238.208,349.594,242.593,355.052,242.593z"/>
<path d="M502,121.532h-5.025c-9.005,0-17.075-5.471-20.562-13.947l-0.173-0.419c-3.536-8.505-1.71-18.111,4.652-24.472l3.551-3.551
	c3.905-3.905,3.905-10.237,0-14.143l-37.436-37.436c-3.905-3.905-10.237-3.905-14.143,0l-3.551,3.551
	c-6.362,6.363-15.971,8.187-24.479,4.649l-0.42-0.174c-8.468-3.485-13.939-11.555-13.939-20.559v-5.026c0-5.523-4.477-10-10-10
	h-52.942c-5.523,0-10,4.477-10,10v5.126c0,8.974-5.447,17.02-13.944,20.523l-0.391,0.163c-8.489,3.538-18.081,1.722-24.432-4.631
	l-3.623-3.623c-3.905-3.905-10.237-3.905-14.143,0L223.565,65c-3.905,3.905-3.905,10.237,0,14.143l6.252,6.252
	c3.072,3.072,4.741,7.1,4.866,11.276c-6.971-1.738-14.26-2.666-21.76-2.666h-23.999c-49.625,0-89.998,40.373-89.998,89.998v29.999
	h-0.708c-17.255,0-31.291,14.038-31.291,31.291v21.415c0,17.255,14.038,31.291,31.291,31.291h2.517
	c5.266,25.836,21.636,47.68,43.891,60.317c-0.093,0.548-0.152,1.107-0.152,1.681v16.212c0,5.476-1.407,10.488-18.556,16.309
	l-65.698,14.948C21.383,415.671,0,436.572,0,466.329v35.665c0,5.522,4.477,10,10,10h35.012c5.523,0,10-4.478,10-10
	c0-5.522-4.477-10-10-10H19.999v-25.665c0-19.874,14.947-33.1,44.425-39.312c0.052-0.011,0.104-0.022,0.156-0.034l48.194-10.965
	c0.411,0.284,0.839,0.55,1.301,0.775l82.312,40.187c1.384,0.676,2.886,1.014,4.387,1.014c1.501,0,3.003-0.338,4.387-1.014
	l82.312-40.187c0.049-0.024,0.093-0.054,0.142-0.078l45.13,10.268c0.052,0.012,0.104,0.023,0.156,0.034
	c29.478,6.212,44.424,19.437,44.424,39.315l0.011,25.661H123.51c-5.523,0-10,4.478-10,10c0,5.522,4.477,10,10,10h263.831
	c2.653,0,5.197-1.054,7.073-2.931c1.875-1.876,2.928-4.421,2.927-7.073l-0.016-35.661c0-29.756-21.383-50.658-60.218-58.863
	l-65.699-14.948c-17.152-5.821-18.557-10.833-18.557-16.309v-15.252c0-0.105-0.013-0.207-0.016-0.312
	c24.476-12.164,42.669-35.142,48.275-62.646h2.518c17.254,0,31.291-14.037,31.291-31.291v-21.415
	c0-17.255-14.038-31.291-31.291-31.291h-0.708v-29.999c0-15.701-4.046-30.473-11.143-43.336
	c7.626-27.433,32.842-46.862,61.354-47.256c17.28-0.245,33.566,6.256,45.935,18.288c3.959,3.852,10.29,3.763,14.141-0.195
	c3.851-3.959,3.764-10.29-0.195-14.141c-16.198-15.756-37.56-24.235-60.156-23.949c-32.371,0.448-61.488,19.644-75.173,48.16
	c-6.828-7.08-14.801-13.049-23.619-17.601c2.152-11.435-1.147-23.222-9.296-31.888l23.506-23.506
	c11.927,9.438,28.158,11.729,42.647,5.689l0.362-0.15c14.416-5.946,24.219-19.021,25.97-34.111h33.516
	c1.784,15.085,11.605,28.141,26.025,34.076l0.37,0.153c14.442,6.005,30.641,3.726,42.564-5.666l23.709,23.709
	c-9.391,11.923-11.67,28.122-5.669,42.557l0.153,0.369c5.938,14.427,18.996,24.248,34.079,26.033v33.516
	c-15.092,1.751-28.167,11.561-34.134,26.027l-0.137,0.33c-6.03,14.465-3.739,30.695,5.7,42.622l-23.683,23.682
	c-11.9-9.471-28.149-11.792-42.66-5.769l-0.348,0.144c-14.465,5.944-24.289,19.065-25.998,34.207h-43.208c-5.523,0-10,4.478-10,10
	c0,5.522,4.477,10,10,10h52.942c5.523,0,10-4.478,10-10v-5.264c0-8.959,5.443-16.984,13.861-20.442l0.438-0.181
	c8.483-3.522,18.051-1.713,24.371,4.608l3.72,3.72c1.875,1.876,4.418,2.93,7.071,2.93l0,0c2.652,0,5.196-1.054,7.071-2.929
	l37.436-37.436c3.905-3.905,3.905-10.237,0-14.143l-3.623-3.623c-6.352-6.352-8.17-15.942-4.642-24.406l0.201-0.483
	c3.477-8.431,11.522-13.878,20.496-13.878h5.126c5.523,0,10-4.477,10-10v-52.942C512,126.009,507.523,121.532,502,121.532z
	 M86.926,266.708v-21.415c0-6.227,5.066-11.292,11.292-11.292h0.708v43.999h-0.708C91.992,278,86.926,272.935,86.926,266.708z
	 M258.037,408.909l-57.264,27.958l-59.248-28.927c10.466-4.741,22.946-13.646,22.946-31.731v-9.589
	c7.778,2.198,15.979,3.377,24.45,3.377h23.999c6.847,0,13.517-0.772,19.929-2.228v8.44
	C232.852,395.608,247.208,404.445,258.037,408.909z M212.923,349.998h-23.999c-38.597,0-69.998-31.401-69.998-69.998V241h31.93
	c25.789,0,50.534-6.783,72.209-19.49c13.568,12.109,30.876,18.74,49.209,18.74h10.648v39.749c0,9.606-1.948,18.764-5.464,27.105
	h-42.743c-5.523,0-10,4.478-10,10c0,5.522,4.477,10,10,10h29.939C251.842,341.162,233.395,349.998,212.923,349.998z
	 M303.628,234.001c6.227,0,11.292,5.066,11.292,11.292v21.415c0,6.227-5.065,11.292-11.292,11.292h-0.708v-43.999L303.628,234.001
	L303.628,234.001z M282.921,184.002v36.249h-10.648c-11.705,0-22.841-3.699-32.075-10.543c4.121-3.305,8.092-6.846,11.881-10.636
	c3.905-3.905,3.905-10.237,0-14.143c-3.905-3.905-10.237-3.905-14.143,0c-23.26,23.26-54.187,36.07-87.081,36.07h-31.93v-36.999
	c0-38.597,31.401-69.998,69.998-69.998h23.999C251.52,114.004,282.921,145.405,282.921,184.002z"/>
<g>
</g>
<g>
</g>
<g>
</g>
<g>
</g>
<g>
</g>
<g>
</g>
<g>
</g>
<g>
</g>
<g>
</g>
<g>
</g>
<g>
</g>
<g>
</g>
<g>
</g>
<g>
</g>
<g>
</g>
</svg>
