<?xml version="1.0" encoding="iso-8859-1"?>
<!-- Generator: Adobe Illustrator 19.0.0, SVG Export Plug-In . SVG Version: 6.00 Build 0)  -->
<svg version="1.1" id="Capa_1" xmlns="http://www.w3.org/2000/svg" xmlns:xlink="http://www.w3.org/1999/xlink" x="0px" y="0px"
	 viewBox="0 0 512 512" style="enable-background:new 0 0 512 512;" xml:space="preserve">
<path style="fill:#78D2FA;" d="M384,10H128c-22.091,0-40,17.909-40,40v412c0,22.091,17.909,40,40,40h256c22.091,0,40-17.909,40-40
	V50C424,27.909,406.091,10,384,10z"/>
<rect x="134" y="74" style="fill:#FFFFFF;" width="244" height="330"/>
<circle style="fill:#F0F0FA;" cx="256" cy="453" r="20"/>
<path d="M256,176.58c-2.63,0-5.21-1.06-7.07-2.93c-1.86-1.86-2.93-4.43-2.93-7.07c0-2.63,1.07-5.2,2.93-7.07
	c1.86-1.86,4.44-2.93,7.07-2.93s5.21,1.07,7.07,2.93c1.86,1.87,2.93,4.44,2.93,7.07c0,2.64-1.07,5.21-2.93,7.07
	C261.21,175.52,258.63,176.58,256,176.58z"/>
<path d="M292,52c5.523,0,10-4.477,10-10s-4.477-10-10-10h-72c-5.523,0-10,4.477-10,10s4.477,10,10,10H292z"/>
<path d="M384,0H128c-27.57,0-50,22.43-50,50v412c0,27.57,22.43,50,50,50h256c27.57,0,50-22.43,50-50v-77c0-5.522-4.477-10-10-10
	s-10,4.478-10,10v77c0,16.542-13.458,30-30,30H128c-16.542,0-30-13.458-30-30V50c0-16.542,13.458-30,30-30h256
	c16.542,0,30,13.458,30,30v247c0,5.522,4.477,10,10,10s10-4.478,10-10V50C434,22.43,411.57,0,384,0z"/>
<path d="M424,325c-2.63,0-5.21,1.069-7.07,2.93c-1.86,1.86-2.93,4.44-2.93,7.07s1.07,5.21,2.93,7.069
	c1.86,1.86,4.44,2.931,7.07,2.931s5.21-1.07,7.07-2.931c1.86-1.859,2.93-4.439,2.93-7.069s-1.07-5.21-2.93-7.07S426.63,325,424,325z
	"/>
<path d="M388,404V74c0-5.523-4.477-10-10-10H134c-5.523,0-10,4.477-10,10v67.667c0,5.523,4.477,10,10,10s10-4.477,10-10V84h224v310
	H144V219.333c0-5.523-4.477-10-10-10s-10,4.477-10,10V404c0,5.522,4.477,10,10,10h244C383.523,414,388,409.522,388,404z"/>
<path d="M134,191.99c2.63,0,5.21-1.06,7.07-2.93c1.86-1.86,2.93-4.44,2.93-7.07s-1.07-5.21-2.93-7.07s-4.44-2.93-7.07-2.93
	s-5.21,1.07-7.07,2.93c-1.86,1.86-2.93,4.44-2.93,7.07c0,2.64,1.07,5.21,2.93,7.07C128.79,190.93,131.37,191.99,134,191.99z"/>
<path d="M226,453c0,16.542,13.458,30,30,30s30-13.458,30-30s-13.458-30-30-30S226,436.458,226,453z M266,453c0,5.514-4.486,10-10,10
	s-10-4.486-10-10s4.486-10,10-10S266,447.486,266,453z"/>
<path d="M221.667,320.007c-5.523,0-10,4.478-10,10s4.477,10,10,10h68.667c5.523,0,10-4.478,10-10s-4.477-10-10-10H266V212.674
	c0-5.523-4.477-10-10-10h-34.333c-5.523,0-10,4.477-10,10s4.477,10,10,10H246v97.333H221.667z"/>
<g>
</g>
<g>
</g>
<g>
</g>
<g>
</g>
<g>
</g>
<g>
</g>
<g>
</g>
<g>
</g>
<g>
</g>
<g>
</g>
<g>
</g>
<g>
</g>
<g>
</g>
<g>
</g>
<g>
</g>
</svg>
