<?xml version="1.0" encoding="iso-8859-1"?>
<!-- Generator: Adobe Illustrator 19.0.0, SVG Export Plug-In . SVG Version: 6.00 Build 0)  -->
<svg version="1.1" id="Capa_1" xmlns="http://www.w3.org/2000/svg" xmlns:xlink="http://www.w3.org/1999/xlink" x="0px" y="0px"
	 viewBox="0 0 512 512" style="enable-background:new 0 0 512 512;" xml:space="preserve">
<path style="fill:#FAE196;" d="M309.72,490.461l10.419,11.541l64.453-26.734l-0.794-15.543c-1.044-20.438,6.619-40.362,21.09-54.833
	l0,0c14.471-14.471,34.395-22.134,54.833-21.09l15.543,0.794l26.734-64.453l-11.541-10.42c-15.2-13.723-23.875-33.242-23.875-53.72
	l0,0c0-20.478,8.675-39.997,23.875-53.72l11.541-10.42l-26.734-64.453l-15.543,0.794c-20.438,1.044-40.362-6.619-54.833-21.09l0,0
	c-14.471-14.471-22.134-34.395-21.09-54.833l0.794-15.543l-64.453-26.734L309.706,21.56c-13.714,15.19-33.221,23.86-53.686,23.86
	h-0.041c-20.465,0-39.972-8.67-53.686-23.86L191.86,10.004l-64.453,26.734l0.794,15.543c1.044,20.438-6.619,40.362-21.09,54.833l0,0
	c-14.471,14.471-34.395,22.134-54.833,21.09l-15.543-0.794l-26.734,64.453l11.556,10.433c15.19,13.714,23.86,33.221,23.86,53.686
	v0.041c0,20.465-8.67,39.972-23.86,53.686l-11.556,10.433l26.734,64.453l15.543-0.794c20.438-1.044,40.362,6.619,54.833,21.09l0,0
	c14.471,14.471,22.134,34.395,21.09,54.833l-0.794,15.543l64.453,26.734l10.419-11.541c13.723-15.2,33.242-23.875,53.72-23.875l0,0
	C276.478,466.586,295.998,475.261,309.72,490.461z"/>
<circle style="fill:#FFFFFF;" cx="255.999" cy="256.001" r="104"/>
<polygon style="fill:#FF5A5A;" points="501.844,154.549 456.589,109.294 255.45,310.433 149.915,204.899 104.66,250.154 
	255.45,400.943 "/>
<path d="M174.4,201.5c2.939,0,5.852-1.29,7.826-3.767l0.166-0.209c3.442-4.318,2.732-10.61-1.586-14.053
	c-4.319-3.444-10.611-2.732-14.053,1.586l-0.166,0.209c-3.442,4.318-2.732,10.61,1.586,14.053
	C170.015,200.787,172.216,201.5,174.4,201.5z"/>
<path d="M206.003,176.375c37.332-23.493,85.226-18.081,116.465,13.159c1.953,1.953,4.512,2.929,7.071,2.929
	c2.559,0,5.118-0.977,7.071-2.929c3.905-3.905,3.905-10.237,0-14.142c-18.376-18.377-42.703-30.007-68.498-32.749
	c-25.418-2.701-51.252,3.267-72.762,16.804c-4.674,2.941-6.079,9.115-3.138,13.79C195.153,177.911,201.326,179.318,206.003,176.375z
	"/>
<path d="M156.986,197.827c-3.906-3.905-10.236-3.905-14.143,0l-45.254,45.255c-1.875,1.875-2.929,4.419-2.929,7.071
	s1.054,5.196,2.929,7.071l150.79,150.79c1.953,1.952,4.512,2.929,7.071,2.929c2.559,0,5.118-0.977,7.071-2.929l92.034-92.034
	c3.905-3.905,3.905-10.237,0-14.143c-3.906-3.904-10.236-3.904-14.143,0l-84.962,84.964L118.803,250.154l31.112-31.113
	l98.464,98.464c3.906,3.904,10.236,3.904,14.143,0L456.59,123.436l31.112,31.113l-95.289,95.289c-3.905,3.905-3.905,10.237,0,14.143
	c3.906,3.905,10.236,3.905,14.143,0l102.36-102.36c3.905-3.905,3.905-10.237,0-14.143l-45.255-45.255
	c-3.906-3.904-10.236-3.904-14.143,0L255.45,296.291L156.986,197.827z"/>
<path d="M367.847,274.402c-1.859,1.86-2.93,4.44-2.93,7.07s1.07,5.21,2.93,7.07c1.86,1.86,4.44,2.93,7.07,2.93s5.21-1.07,7.08-2.93
	c1.859-1.86,2.92-4.44,2.92-7.07c0-2.64-1.061-5.21-2.92-7.07c-1.87-1.86-4.44-2.93-7.08-2.93
	C372.287,271.472,369.707,272.542,367.847,274.402z"/>
<path d="M508.701,312.719l-11.541-10.42c-13.014-11.749-20.505-28.52-20.576-46.047c-0.022-5.433-4.27-10.086-9.701-10.245
	c-5.659-0.166-10.3,4.373-10.3,9.996c0,23.267,9.904,45.552,27.174,61.142l6.3,5.688l-21.325,51.416l-8.5-0.434
	c-23.202-1.186-45.972,7.564-62.414,24.006s-25.191,39.191-24.006,62.414l0.434,8.499l-51.415,21.326l-5.688-6.3
	c-15.591-17.27-37.877-27.174-61.144-27.174c-23.266,0-45.552,9.904-61.143,27.174l-5.688,6.3l-51.416-21.327l0.435-8.499
	c1.186-23.223-7.564-45.973-24.007-62.415c-16.441-16.44-39.181-25.195-62.413-24.005l-8.499,0.434l-21.326-51.416l6.315-5.702
	c17.26-15.582,27.158-37.855,27.158-61.149c0-23.253-9.898-45.526-27.158-61.109l-6.315-5.701l21.326-51.416l8.499,0.434
	c23.22,1.191,45.972-7.563,62.415-24.006c16.442-16.442,25.191-39.191,24.006-62.415l-0.435-8.499l51.416-21.326l5.701,6.315
	c15.583,17.259,37.855,27.158,61.149,27.158c23.253,0,45.527-9.899,61.109-27.159l5.701-6.315l51.415,21.326l-0.434,8.499
	c-0.991,19.408,4.957,38.485,16.535,53.827c3.651,4.837,10.755,5.304,15.04,1.018l0,0c3.535-3.535,3.895-9.121,0.887-13.114
	c-8.746-11.608-13.238-26.034-12.488-40.711l0.793-15.543c0.215-4.223-2.249-8.125-6.155-9.746L323.971,0.765
	c-3.911-1.624-8.418-0.606-11.254,2.536l-10.433,11.556c-11.797,13.066-28.659,20.561-46.305,20.561
	c-17.604,0-34.466-7.494-46.263-20.561L199.283,3.301c-2.837-3.142-7.343-4.159-11.254-2.536l-64.453,26.734
	c-3.907,1.62-6.372,5.523-6.156,9.747l0.794,15.543c0.898,17.581-5.726,34.804-18.174,47.252
	c-12.449,12.449-29.657,19.069-47.253,18.175l-15.543-0.794c-4.217-0.223-8.127,2.25-9.747,6.155L0.763,188.031
	c-1.621,3.91-0.605,8.417,2.536,11.254l11.557,10.433c13.066,11.797,20.561,28.659,20.561,46.305
	c0,17.604-7.494,34.467-20.561,46.263L3.299,312.719c-3.142,2.837-4.157,7.344-2.536,11.254l26.734,64.453
	c1.62,3.906,5.528,6.369,9.747,6.155l15.543-0.794c17.584-0.891,34.804,5.727,47.253,18.175
	c12.448,12.448,19.072,29.67,18.174,47.251l-0.794,15.543c-0.216,4.224,2.249,8.127,6.156,9.747l64.453,26.734
	c3.909,1.621,8.415,0.606,11.254-2.536l10.42-11.541c11.805-13.077,28.68-20.576,46.297-20.576c17.618,0,34.493,7.5,46.298,20.576
	l10.419,11.541c1.937,2.145,4.652,3.299,7.426,3.299c1.288,0,2.588-0.249,3.828-0.764l64.454-26.734
	c3.906-1.62,6.371-5.522,6.155-9.746l-0.793-15.544c-0.898-17.581,5.726-34.804,18.174-47.252
	c12.447-12.448,29.654-19.066,47.252-18.175l15.544,0.794c4.199,0.212,8.127-2.249,9.747-6.156l26.733-64.453
	C512.858,320.063,511.843,315.556,508.701,312.719z"/>
<g>
</g>
<g>
</g>
<g>
</g>
<g>
</g>
<g>
</g>
<g>
</g>
<g>
</g>
<g>
</g>
<g>
</g>
<g>
</g>
<g>
</g>
<g>
</g>
<g>
</g>
<g>
</g>
<g>
</g>
</svg>
