<?xml version="1.0" encoding="iso-8859-1"?>
<!-- Generator: Adobe Illustrator 19.0.0, SVG Export Plug-In . SVG Version: 6.00 Build 0)  -->
<svg version="1.1" id="Capa_1" xmlns="http://www.w3.org/2000/svg" xmlns:xlink="http://www.w3.org/1999/xlink" x="0px" y="0px"
	 viewBox="0 0 512 512" style="enable-background:new 0 0 512 512;" xml:space="preserve">
<rect x="215.065" y="50.006" style="fill:#BEBEBE;" width="81.942" height="43.719"/>
<rect x="395.45" y="110.567" transform="matrix(0.7071 -0.7071 0.7071 0.7071 21.757 333.9058)" style="fill:#F5B955;" width="36.976" height="60.246"/>
<circle style="fill:#FF9155;" cx="256.04" cy="297.974" r="204.253"/>
<circle style="fill:#FFFFFF;" cx="256.04" cy="297.974" r="144.006"/>
<path style="fill:#F5B955;" d="M316.048,10.001H196.034c-11.047,0-20.002,8.955-20.002,20.002l0,0
	c0,11.047,8.955,20.002,20.002,20.002h120.014c11.047,0,20.002-8.955,20.002-20.002l0,0
	C336.05,18.956,327.094,10.001,316.048,10.001z"/>
<path d="M205.835,284.317c-24.033,0-43.586,19.553-43.586,43.587v13.38c0,5.524,4.479,10.001,10.001,10.001h57.887
	c5.523,0,10.001-4.478,10.001-10.001c0-5.524-4.479-10.001-10.001-10.001h-47.885v-3.378c0-13.004,10.579-23.585,23.584-23.585
	c18.914,0,34.303-15.388,34.303-34.303c0-18.914-15.389-34.302-34.303-34.302H172.25c-5.523,0-10.001,4.478-10.001,10.001
	s4.479,10.001,10.001,10.001h33.585c7.886,0,14.301,6.416,14.301,14.301S213.72,284.317,205.835,284.317z"/>
<path d="M268.73,236.455c-5.523,0-10.001,4.478-10.001,10.001v47.783c0,5.524,4.479,10.001,10.001,10.001h47.885v37.398
	c0,5.524,4.479,10.001,10.001,10.001c5.523,0,10.001-4.477,10.001-10.001v-95.568c0-5.524-4.478-10.001-10.001-10.001
	c-5.523,0-10.001,4.478-10.001,10.001v38.167h-37.884v-37.782C278.732,240.932,274.254,236.455,268.73,236.455z"/>
<path d="M146.406,394.13c-1.68,2.052-2.476,4.689-2.212,7.328l3.691,36.991c0.515,5.159,4.863,9.009,9.939,9.009
	c0.332,0,0.667-0.017,1.005-0.05c5.496-0.548,9.507-5.449,8.958-10.945l-1.317-13.197c25.996,18.628,57.145,28.718,89.57,28.718
	c84.921,0,154.008-69.089,154.008-154.009c0-70.002-47.236-131.268-114.872-148.989c-5.346-1.4-10.809,1.796-12.209,7.14
	c-1.399,5.344,1.797,10.81,7.141,12.209c58.843,15.418,99.939,68.727,99.939,129.64c0,73.891-60.115,134.007-134.006,134.007
	c-27.637,0-54.212-8.419-76.546-23.997l12.634-1.261c5.496-0.548,9.507-5.449,8.958-10.945c-0.549-5.497-5.445-9.51-10.944-8.959
	l-36.991,3.691C150.512,390.776,148.085,392.077,146.406,394.13z"/>
<path d="M433.346,178.015l22.026-22.026c3.905-3.905,3.905-10.238,0-14.145l-42.602-42.602c-3.906-3.905-10.237-3.905-14.145,0
	l-21.934,21.933c-21.439-14.656-45.08-25.077-69.68-31.115V60.007h9.034c16.544,0,30.003-13.46,30.003-30.003S332.591,0,316.047,0
	H196.033c-16.544,0-30.003,13.46-30.003,30.003s13.46,30.003,30.003,30.003h9.034v30.002c-19.933,4.889-39.406,12.72-57.784,23.578
	c-4.756,2.809-6.334,8.942-3.524,13.698c2.81,4.756,8.943,6.335,13.698,3.524c76.176-44.998,173.132-32.674,235.778,29.973
	c36.646,36.646,56.827,85.369,56.827,137.194S429.88,398.524,393.234,435.17c-36.646,36.646-85.369,56.827-137.195,56.827
	s-100.548-20.181-137.195-56.827c-62.647-62.647-74.972-159.602-29.973-235.778c2.809-4.756,1.23-10.888-3.524-13.698
	c-4.758-2.812-10.889-1.231-13.698,3.524c-49.643,84.037-36.051,190.992,33.052,260.094C145.126,489.738,198.872,512,256.04,512
	s110.914-22.263,151.338-62.686c40.424-40.424,62.686-94.171,62.686-151.338C470.065,254.57,457.219,213.143,433.346,178.015z
	 M186.033,30.003c0-5.515,4.487-10.001,10.001-10.001h120.014c5.515,0,10.001,4.487,10.001,10.001s-4.487,10.001-10.001,10.001
	h-19.035h-81.943h-19.035C190.52,40.005,186.033,35.518,186.033,30.003z M225.07,86.118V60.007h61.941v26.136
	C266.555,83.142,245.684,83.111,225.07,86.118z M392.806,133.352l12.892-12.892l28.457,28.458l-12.937,12.937
	c-4.346-5.254-8.957-10.335-13.839-15.217C402.692,141.95,397.824,137.527,392.806,133.352z"/>
<path d="M111.775,163.712c2.56,0,5.119-0.976,7.072-2.929l0.146-0.146c3.905-3.905,3.905-10.238,0-14.145
	c-3.906-3.905-10.237-3.905-14.145,0l-0.146,0.146c-3.905,3.905-3.905,10.238,0,14.145
	C106.656,162.735,109.214,163.712,111.775,163.712z"/>
<path d="M256.349,143.967h-0.309c-5.523,0-10.001,4.478-10.001,10.001s4.479,10.001,10.001,10.001h0.191c0.02,0,0.04,0,0.06,0
	c5.496,0,9.968-4.439,10-9.942C266.324,148.504,261.874,144,256.349,143.967z"/>
<g>
</g>
<g>
</g>
<g>
</g>
<g>
</g>
<g>
</g>
<g>
</g>
<g>
</g>
<g>
</g>
<g>
</g>
<g>
</g>
<g>
</g>
<g>
</g>
<g>
</g>
<g>
</g>
<g>
</g>
</svg>
