<?xml version="1.0" encoding="iso-8859-1"?>
<!-- Generator: Adobe Illustrator 19.0.0, SVG Export Plug-In . SVG Version: 6.00 Build 0)  -->
<svg version="1.1" id="Capa_1" xmlns="http://www.w3.org/2000/svg" xmlns:xlink="http://www.w3.org/1999/xlink" x="0px" y="0px"
	 viewBox="0 0 512 512" style="enable-background:new 0 0 512 512;" xml:space="preserve">
<path style="fill:#7D9BFF;" d="M183.781,252.073v-32.084c0-11.04-8.949-19.989-19.989-19.989l0,0
	c-11.04,0-19.989,8.949-19.989,19.989v32.045l-52.78,20.83C60.233,285.015,40,314.752,40,347.853V475h432V347.959
	c0-33.154-20.297-62.927-51.158-75.042l-52.645-20.667h-0.325v-32.261c0-11.04-8.949-19.989-19.989-19.989l0,0
	c-11.04,0-19.989,8.949-19.989,19.989v32.222L183.781,252.073z"/>
<path style="fill:#78D2FA;" d="M367.872,130.502v21.859c0,16.286,13.202,29.488,29.488,29.488h74.462
	c16.667,0,30.178-13.511,30.178-30.178v-27.12C502,76.198,462.802,37,414.449,37H97.551C49.198,37,10,76.198,10,124.551v27.12
	c0,16.667,13.511,30.178,30.178,30.178h74.462c16.286,0,29.488-13.202,29.488-29.488v-21.859c0-7.965,6.457-14.421,14.421-14.421
	h194.902C361.416,116.08,367.872,122.537,367.872,130.502z"/>
<g>
	<path style="fill:#C8F5FF;" d="M367.872,133v19.36c0,16.286,13.202,29.488,29.488,29.488h74.461
		c16.667,0,30.178-13.511,30.178-30.178V133H367.872z"/>
	<path style="fill:#C8F5FF;" d="M40.178,181.849h74.462c16.286,0,29.488-13.202,29.488-29.488V133H10v18.671
		C10,168.338,23.511,181.849,40.178,181.849z"/>
</g>
<circle style="fill:#FFFFFF;" cx="256" cy="336.96" r="108"/>
<path d="M414.449,27H293.667c-5.522,0-10,4.477-10,10s4.478,10,10,10h120.782c42.242,0,76.679,33.954,77.511,76h-84.024
	c-5.522,0-10,4.477-10,10c0,5.523,4.478,10,10,10H492v8.671c0,11.126-9.052,20.178-20.178,20.178H397.36
	c-10.746,0-19.488-8.742-19.488-19.488v-21.859c0-13.466-10.955-24.421-24.421-24.421H158.549
	c-13.466,0-24.421,10.956-24.421,24.421v21.859c0,10.746-8.742,19.488-19.488,19.488H40.178c-11.126,0-20.178-9.052-20.178-20.178
	V143h77.128c5.522,0,10-4.477,10-10s-4.478-10-10-10H20.039c0.832-42.046,35.27-76,77.511-76h118.782c5.522,0,10-4.477,10-10
	s-4.478-10-10-10H97.551C43.761,27,0,70.761,0,124.551v27.12c0,22.154,18.023,40.178,40.178,40.178h74.462
	c21.773,0,39.488-17.714,39.488-39.488v-21.859c0-2.438,1.983-4.421,4.421-4.421h194.902c2.438,0,4.421,1.983,4.421,4.421v21.859
	c0,21.774,17.715,39.488,39.488,39.488h74.462c22.154,0,40.178-18.023,40.178-40.178v-27.12C512,70.761,468.239,27,414.449,27z"/>
<path d="M256,47c2.63,0,5.21-1.07,7.069-2.93C264.93,42.21,266,39.63,266,37s-1.07-5.21-2.931-7.07C261.21,28.07,258.63,27,256,27
	s-5.21,1.07-7.07,2.93S246,34.37,246,37s1.069,5.21,2.93,7.07S253.37,47,256,47z"/>
<path d="M502,465h-20V347.959c0-18.285-5.444-35.936-15.743-51.043c-10.3-15.108-24.74-26.625-41.761-33.307l-46.624-18.303V219.99
	c0-16.536-13.453-29.989-29.988-29.989c-16.536,0-29.989,13.453-29.989,29.989v16.465c-18.424-11.393-39.688-17.493-61.894-17.493
	c-0.01,0-0.022,0-0.032,0c-22.81,0.006-44.122,6.524-62.188,17.782V219.99c0-16.536-13.453-29.989-29.988-29.989
	c-16.536,0-29.989,13.453-29.989,29.989v25.241l-46.45,18.332c-16.981,6.701-31.385,18.221-41.654,33.314S30,329.597,30,347.853V465
	H10c-5.522,0-10,4.477-10,10s4.478,10,10,10h30h432h30c5.522,0,10-4.477,10-10S507.522,465,502,465z M255.975,238.961
	c0.01,0,0.017,0,0.026,0c26.166,0,50.771,10.187,69.277,28.685c18.515,18.504,28.715,43.112,28.722,69.289
	c0.007,26.178-10.181,50.791-28.685,69.305c-18.505,18.514-43.112,28.714-69.29,28.721c-0.01,0-0.018,0-0.027,0
	c-26.166,0-50.77-10.187-69.277-28.684c-18.514-18.505-28.714-43.112-28.721-69.29C157.986,282.95,201.937,238.976,255.975,238.961z
	 M50,465V347.853c0-29.188,17.544-54.972,44.694-65.687l52.779-20.83c3.819-1.507,6.329-5.196,6.329-9.302v-32.045
	c0-5.508,4.481-9.989,9.989-9.989s9.988,4.481,9.988,9.989v32.084c0,0.109,0.013,0.214,0.016,0.322
	c-22.072,21.461-35.805,51.455-35.796,84.598c0.008,31.52,12.29,61.149,34.583,83.43c22.285,22.274,51.906,34.539,83.415,34.539
	c0.01,0,0.023,0,0.033,0c65.067-0.018,117.987-52.966,117.97-118.032c-0.008-31.52-12.29-61.149-34.583-83.43
	c-0.502-0.502-1.013-0.993-1.522-1.485v-32.026c0-5.508,4.481-9.989,9.989-9.989s9.988,4.481,9.988,9.989v32.261
	c0,4.777,3.35,8.773,7.83,9.764l51.485,20.212C444.41,292.912,462,318.714,462,347.959V465H50z"/>
<path d="M331.25,346.96c2.63,0,5.21-1.07,7.069-2.93c1.86-1.86,2.931-4.44,2.931-7.07s-1.07-5.21-2.931-7.07
	c-1.859-1.86-4.439-2.93-7.069-2.93s-5.21,1.07-7.07,2.93c-1.86,1.86-2.93,4.44-2.93,7.07s1.069,5.21,2.93,7.07
	S328.62,346.96,331.25,346.96z"/>
<path d="M173.68,329.89c-1.86,1.86-2.93,4.44-2.93,7.07s1.069,5.21,2.93,7.07s4.44,2.93,7.07,2.93s5.21-1.07,7.069-2.93
	c1.86-1.86,2.931-4.44,2.931-7.07s-1.07-5.21-2.931-7.07c-1.859-1.86-4.439-2.93-7.069-2.93S175.54,328.03,173.68,329.89z"/>
<path d="M256,402.21c-2.63,0-5.21,1.07-7.07,2.93s-2.93,4.44-2.93,7.07c0,2.64,1.069,5.21,2.93,7.07s4.44,2.93,7.07,2.93
	s5.21-1.07,7.069-2.93c1.86-1.86,2.931-4.44,2.931-7.07s-1.07-5.21-2.931-7.07C261.21,403.28,258.63,402.21,256,402.21z"/>
<path d="M256,271.71c2.63,0,5.21-1.07,7.069-2.93c1.86-1.86,2.931-4.44,2.931-7.07s-1.07-5.21-2.931-7.07
	c-1.859-1.86-4.439-2.93-7.069-2.93s-5.21,1.07-7.07,2.93s-2.93,4.44-2.93,7.07c0,2.64,1.069,5.21,2.93,7.07
	S253.37,271.71,256,271.71z"/>
<path d="M309.21,380.17c-2.63,0-5.21,1.07-7.07,2.93c-1.859,1.86-2.93,4.44-2.93,7.07s1.07,5.21,2.93,7.07
	c1.86,1.86,4.44,2.93,7.07,2.93s5.21-1.07,7.07-2.93c1.859-1.86,2.93-4.44,2.93-7.07s-1.07-5.21-2.93-7.07
	S311.84,380.17,309.21,380.17z"/>
<path d="M202.79,293.75c2.63,0,5.21-1.07,7.069-2.93c1.86-1.86,2.931-4.44,2.931-7.07s-1.07-5.21-2.931-7.07
	c-1.859-1.86-4.439-2.93-7.069-2.93s-5.21,1.07-7.07,2.93s-2.93,4.44-2.93,7.07s1.069,5.21,2.93,7.07S200.16,293.75,202.79,293.75z"
	/>
<path d="M202.79,400.17c2.63,0,5.21-1.07,7.069-2.93c1.86-1.86,2.931-4.44,2.931-7.07s-1.07-5.21-2.931-7.07
	c-1.859-1.86-4.439-2.93-7.069-2.93s-5.21,1.07-7.07,2.93s-2.93,4.44-2.93,7.07s1.069,5.21,2.93,7.07S200.16,400.17,202.79,400.17z"
	/>
<path d="M309.21,293.75c2.63,0,5.21-1.06,7.07-2.93c1.859-1.86,2.93-4.44,2.93-7.07s-1.07-5.21-2.93-7.07
	c-1.86-1.86-4.44-2.93-7.07-2.93s-5.21,1.07-7.07,2.93c-1.859,1.86-2.93,4.44-2.93,7.07s1.07,5.21,2.93,7.07
	C304,292.69,306.58,293.75,309.21,293.75z"/>
<path d="M256.127,282.667c-5.522,0-10,4.477-10,10v34.295h-34.295c-5.522,0-10,4.477-10,10s4.478,10,10,10h34.295v34.295
	c0,5.523,4.478,10,10,10s10-4.477,10-10v-34.295h34.295c5.522,0,10-4.477,10-10s-4.478-10-10-10h-34.295v-34.295
	C266.127,287.144,261.649,282.667,256.127,282.667z"/>
<g>
</g>
<g>
</g>
<g>
</g>
<g>
</g>
<g>
</g>
<g>
</g>
<g>
</g>
<g>
</g>
<g>
</g>
<g>
</g>
<g>
</g>
<g>
</g>
<g>
</g>
<g>
</g>
<g>
</g>
</svg>
