<?xml version="1.0" encoding="iso-8859-1"?>
<!-- Generator: Adobe Illustrator 19.0.0, SVG Export Plug-In . SVG Version: 6.00 Build 0)  -->
<svg version="1.1" id="Capa_1" xmlns="http://www.w3.org/2000/svg" xmlns:xlink="http://www.w3.org/1999/xlink" x="0px" y="0px"
	 viewBox="0 0 512.002 512.002" style="enable-background:new 0 0 512.002 512.002;" xml:space="preserve">
<path style="fill:#FF8C8C;" d="M256.157,111.423c-79.934,0-144.733,64.799-144.733,144.733c0,38.217,14.82,72.968,39.017,98.838l0,0
	l-17.034,68.608l75.49-30.614c14.812,5.115,30.709,7.9,47.259,7.9c79.934,0,144.733-64.799,144.733-144.733
	S336.091,111.423,256.157,111.423z"/>
<path d="M44.981,300.61c-2.63,0-5.21-1.07-7.07-2.93s-2.93-4.44-2.93-7.07c0-2.64,1.07-5.21,2.93-7.07
	c1.86-1.86,4.44-2.93,7.07-2.93c2.64,0,5.21,1.07,7.07,2.93c1.87,1.86,2.93,4.43,2.93,7.07c0,2.63-1.06,5.21-2.93,7.07
	C50.191,299.54,47.611,300.61,44.981,300.61z"/>
<path d="M266.149,42.338c0-3.565-1.871-6.685-4.678-8.456L223.416,2.305c-4.248-3.526-10.554-2.941-14.082,1.31
	c-3.526,4.25-2.94,10.555,1.31,14.082l19.455,16.144c-49.961,5.744-96.19,27.961-132.244,64.015
	c-42.249,42.249-65.516,98.465-65.516,158.293c0,5.523,4.477,10,10,10s10-4.477,10-10c0-103.903,78.158-189.887,178.768-202.27
	l-18.94,19.782c-3.819,3.989-3.682,10.319,0.307,14.139c1.938,1.855,4.428,2.777,6.915,2.777c2.632,0,5.26-1.033,7.225-3.084
	l35.715-37.301C264.652,48.36,266.149,45.527,266.149,42.338z"/>
<path d="M467.061,232.79c-2.63,0-5.2-1.07-7.07-2.93c-1.86-1.86-2.93-4.44-2.93-7.07s1.07-5.21,2.93-7.07
	c1.86-1.87,4.44-2.93,7.07-2.93c2.64,0,5.21,1.06,7.08,2.93c1.86,1.86,2.93,4.44,2.93,7.07s-1.07,5.21-2.93,7.07
	C472.271,231.72,469.701,232.79,467.061,232.79z"/>
<path d="M479.663,255.853c0-5.523-4.477-10-10-10s-10,4.477-10,10c0,103.903-78.158,189.887-178.768,202.27l18.94-19.782
	c3.819-3.989,3.682-10.319-0.307-14.139c-3.99-3.82-10.319-3.682-14.139,0.307l-35.715,37.301c-2.324,1.831-3.821,4.664-3.821,7.853
	c0,3.565,1.871,6.685,4.678,8.456l38.055,31.578c1.867,1.549,4.13,2.305,6.38,2.305c2.872,0,5.723-1.231,7.701-3.615
	c3.526-4.25,2.94-10.555-1.31-14.082l-19.455-16.144c49.961-5.744,96.19-27.961,132.244-64.015
	C456.395,371.897,479.663,315.681,479.663,255.853z"/>
<path d="M330.898,217.194H181.104c-5.523,0-10-4.477-10-10s4.477-10,10-10h149.794c5.523,0,10,4.477,10,10
	S336.421,217.194,330.898,217.194z"/>
<path d="M311.253,265.386H200.442c-5.523,0-10-4.477-10-10c0-5.523,4.477-10,10-10h110.811c5.523,0,10,4.477,10,10
	C321.253,260.909,316.776,265.386,311.253,265.386z"/>
<path d="M289.562,311.838h-66.809c-5.523,0-10-4.477-10-10s4.477-10,10-10h66.809c5.523,0,10,4.477,10,10
	S295.085,311.838,289.562,311.838z"/>
<path d="M133.409,433.603c-2.367,0-4.702-0.84-6.553-2.445c-2.841-2.464-4.06-6.314-3.154-9.964l15.752-63.447
	c-24.565-28.184-38.03-64.044-38.03-101.59c0-85.32,69.413-154.732,154.732-154.732s154.733,69.413,154.733,154.732
	S341.476,410.89,256.156,410.89c-16.013,0-31.775-2.438-46.912-7.25l-72.079,29.231
	C135.951,433.362,134.676,433.603,133.409,433.603z M256.157,121.423c-74.292,0-134.732,60.441-134.732,134.732
	c0,34.291,12.899,66.967,36.32,92.007c2.314,2.475,3.219,5.953,2.402,9.241l-12.303,49.553l57.295-23.236
	c2.241-0.908,4.736-0.975,7.022-0.185c14.128,4.879,28.931,7.353,43.995,7.353c74.292,0,134.733-60.441,134.733-134.733
	C390.89,181.864,330.449,121.423,256.157,121.423z"/>
<g>
</g>
<g>
</g>
<g>
</g>
<g>
</g>
<g>
</g>
<g>
</g>
<g>
</g>
<g>
</g>
<g>
</g>
<g>
</g>
<g>
</g>
<g>
</g>
<g>
</g>
<g>
</g>
<g>
</g>
</svg>
