<?xml version="1.0" encoding="iso-8859-1"?>
<!-- Generator: Adobe Illustrator 19.0.0, SVG Export Plug-In . SVG Version: 6.00 Build 0)  -->
<svg version="1.1" id="Capa_1" xmlns="http://www.w3.org/2000/svg" xmlns:xlink="http://www.w3.org/1999/xlink" x="0px" y="0px"
	 viewBox="0 0 512 512" style="enable-background:new 0 0 512 512;" xml:space="preserve">
<path style="fill:#FAE196;" d="M403.248,214.066h-22.914L380.66,267l-73.615-52.934h-75.053c-20.987,0-38-17.013-38-38V48
	c0-20.987,17.013-38,38-38H464c20.987,0,38,17.013,38,38v128.066c0,20.987-17.013,38-38,38l0,0H403.248z"/>
<path style="fill:#32C8AF;" d="M115.324,448h25.624l0.039,54l76.916-54h71.605c15.74,0,28.5-12.76,28.5-28.5v-135
	c0-15.74-12.76-28.5-28.5-28.5H38.5C22.76,256,10,268.76,10,284.5v135c0,15.74,12.76,28.5,28.5,28.5l0,0H115.324z"/>
<path d="M79.67,457.28c-2.64,0-5.21-1.06-7.08-2.93c-1.86-1.86-2.92-4.44-2.92-7.07s1.06-5.21,2.92-7.07
	c1.87-1.86,4.44-2.93,7.08-2.93c2.63,0,5.21,1.07,7.07,2.93s2.93,4.44,2.93,7.07s-1.07,5.21-2.93,7.07
	C84.88,456.22,82.3,457.28,79.67,457.28z"/>
<path d="M140.985,512c-1.576,0-3.157-0.372-4.608-1.125c-3.31-1.719-5.389-5.137-5.391-8.867L130.955,458h-15.631
	c-5.523,0-10-4.477-10-10s4.477-10,10-10h25.624c5.52,0,9.996,4.473,10,9.993l0.025,34.778l61.184-42.955
	c1.683-1.182,3.689-1.815,5.746-1.815h71.605c10.201,0,18.5-8.299,18.5-18.5v-135c0-10.201-8.299-18.5-18.5-18.5H38.5
	c-10.201,0-18.5,8.299-18.5,18.5v135c0,10.201,8.299,18.5,18.5,18.5c5.523,0,10,4.477,10,10s-4.477,10-10,10
	C17.271,458,0,440.729,0,419.5v-135C0,263.271,17.271,246,38.5,246h251.008c21.229,0,38.5,17.271,38.5,38.5v135
	c0,21.229-17.271,38.5-38.5,38.5h-68.445l-74.33,52.185C145.018,511.388,143.006,512,140.985,512z"/>
<path d="M435.71,224.71c-2.63,0-5.21-1.07-7.07-2.93c-1.86-1.86-2.93-4.44-2.93-7.07c0-2.64,1.07-5.22,2.93-7.08
	s4.44-2.92,7.07-2.92s5.21,1.06,7.07,2.92c1.87,1.86,2.93,4.44,2.93,7.08c0,2.63-1.06,5.21-2.93,7.07
	C440.92,223.64,438.34,224.71,435.71,224.71z"/>
<path d="M380.661,277c-2.058,0-4.105-0.634-5.839-1.881l-70.999-51.053h-71.831c-26.467,0-48-21.533-48-48V48
	c0-26.467,21.533-48,48-48H464c26.467,0,48,21.533,48,48v128.066c0,26.467-21.533,48-48,48c-5.523,0-10-4.477-10-10s4.477-10,10-10
	c15.439,0,28-12.561,28-28V48c0-15.439-12.561-28-28-28H231.992c-15.439,0-28,12.561-28,28v128.066c0,15.439,12.561,28,28,28h75.053
	c2.095,0,4.137,0.658,5.838,1.881l57.656,41.458l-0.205-33.278c-0.016-2.663,1.03-5.222,2.907-7.111s4.43-2.951,7.093-2.951h22.914
	c5.523,0,10,4.477,10,10s-4.477,10-10,10h-12.852l0.264,42.873c0.023,3.763-2.068,7.22-5.411,8.946
	C383.803,276.631,382.229,277,380.661,277z"/>
<path d="M353.982,139.582L353.982,139.582c-5.523,0-10-4.477-10-10v-14.697c0-5.523,4.477-10,10-10
	c12.462,0,22.601-10.139,22.601-22.601s-10.139-22.601-22.601-22.601s-22.601,10.139-22.601,22.601c0,5.523-4.477,10-10,10
	s-10-4.477-10-10c0-23.49,19.11-42.601,42.601-42.601s42.601,19.111,42.601,42.601c0,20.048-13.918,36.906-32.601,41.416v5.882
	C363.982,135.105,359.505,139.582,353.982,139.582z"/>
<path d="M353.98,180.33c-2.63,0-5.21-1.06-7.07-2.92c-1.86-1.87-2.93-4.44-2.93-7.08c0-2.63,1.07-5.21,2.93-7.07
	s4.44-2.93,7.07-2.93s5.21,1.07,7.07,2.93s2.93,4.44,2.93,7.07c0,2.64-1.07,5.21-2.93,7.08
	C359.19,179.27,356.61,180.33,353.98,180.33z"/>
<path d="M256.504,316.249h-184c-5.523,0-10-4.477-10-10s4.477-10,10-10h184c5.523,0,10,4.477,10,10S262.027,316.249,256.504,316.249
	z"/>
<path d="M256.504,365.872h-184c-5.523,0-10-4.477-10-10s4.477-10,10-10h184c5.523,0,10,4.477,10,10S262.027,365.872,256.504,365.872
	z"/>
<path d="M256.504,412.249h-184c-5.523,0-10-4.477-10-10s4.477-10,10-10h184c5.523,0,10,4.477,10,10S262.027,412.249,256.504,412.249
	z"/>
<g>
</g>
<g>
</g>
<g>
</g>
<g>
</g>
<g>
</g>
<g>
</g>
<g>
</g>
<g>
</g>
<g>
</g>
<g>
</g>
<g>
</g>
<g>
</g>
<g>
</g>
<g>
</g>
<g>
</g>
</svg>
