<?xml version="1.0" encoding="iso-8859-1"?>
<!-- Generator: Adobe Illustrator 19.0.0, SVG Export Plug-In . SVG Version: 6.00 Build 0)  -->
<svg version="1.1" id="Layer_1" xmlns="http://www.w3.org/2000/svg" xmlns:xlink="http://www.w3.org/1999/xlink" x="0px" y="0px"
	 viewBox="0 0 512.001 512.001" style="enable-background:new 0 0 512.001 512.001;" xml:space="preserve">
<rect x="68.671" y="303.157" style="fill:#EC589B;" width="374.651" height="163.485"/>
<polyline style="fill:#D3468D;" points="117.397,303.157 117.397,466.642 68.674,466.642 68.674,303.157 "/>
<polyline style="fill:#F4C063;" points="443.325,354.637 443.325,435.279 68.674,435.279 68.674,354.637 "/>
<polyline style="fill:#D5A03C;" points="117.397,354.637 117.397,435.279 68.674,435.279 68.674,354.637 "/>
<polyline style="fill:#B7744F;" points="443.325,413.438 443.325,466.642 68.674,466.642 68.674,413.438 "/>
<polyline style="fill:#A46141;" points="117.397,413.438 117.397,466.642 68.674,466.642 68.674,413.438 "/>
<path style="fill:#D3468D;" d="M443.325,303.157v25.896c-8.927,8.86-20.195,15.435-33.042,18.604
	c-4.2,1.042-9.039,1.658-14.852,1.658c-34.856,0-34.856-22.401-69.724-22.401c-34.856,0-34.856,22.401-69.713,22.401
	c-34.868,0-34.868-22.401-69.724-22.401s-34.856,22.401-69.713,22.401c-18.067,0-26.77-6.015-35.82-11.806
	c-4.402-2.823-8.434-6.06-12.063-9.677v-24.675H443.325z"/>
<path style="fill:#F9DCA4;" d="M465.16,248.681c0,33.454-22.399,63.231-54.875,71.257c-4.197,1.037-9.038,1.659-14.849,1.659
	c-34.862,0-34.862-22.401-69.724-22.401c-34.861,0-34.861,22.401-69.721,22.401s-34.86-22.401-69.72-22.401
	c-34.858,0-34.858,22.401-69.716,22.401c-18.066,0-26.768-6.016-35.813-11.813c-21.135-13.545-33.906-36.932-33.906-62.035
	c0-8.053,0-16.051,0-23.15c0-13.854,11.231-25.085,25.085-25.085h368.153c13.854,0,25.085,11.231,25.085,25.085V248.681z"/>
<path style="fill:#E7C080;" d="M131.143,309.785c-21.135-13.546-33.906-36.932-33.906-62.035c0-8.053,0-16.051,0-23.15
	c0-13.854,11.231-25.085,25.085-25.085h-50.4c-13.854,0-25.085,11.23-25.085,25.085c0,7.099,0,15.096,0,23.15
	c0,25.103,12.771,48.489,33.906,62.035c9.045,5.796,17.747,11.813,35.813,11.813c11.249,0,18.861-2.338,25.193-5.498
	C137.915,314.186,134.552,311.971,131.143,309.785z"/>
<path style="fill:#E3D3D3;" d="M411.166,503.599H100.835c-20.843,0-40.589-9.342-53.806-25.459l-9.431-11.5h436.806l-9.431,11.5
	C451.755,494.257,432.009,503.599,411.166,503.599z"/>
<path style="fill:#C9BBBB;" d="M114.229,478.14l-9.431-11.5H37.597l9.431,11.5c13.218,16.117,32.964,25.459,53.806,25.459h67.201
	C147.192,503.599,127.447,494.257,114.229,478.14z"/>
<rect x="150.996" y="92.002" style="fill:#EAA0E3;" width="30.241" height="107.526"/>
<path style="fill:#F4C063;" d="M183.343,25.625L166.118,8.4l-17.225,17.225c-9.513,9.513-9.513,24.937,0,34.451l0,0
	c9.513,9.513,24.937,9.513,34.451,0l0,0C192.856,50.563,192.856,35.138,183.343,25.625z"/>
<rect x="250.122" y="92.002" style="fill:#EAA0E3;" width="30.241" height="107.526"/>
<path style="fill:#F4C063;" d="M282.464,25.625L265.238,8.4l-17.226,17.225c-9.513,9.513-9.513,24.937,0,34.451l0,0
	c9.513,9.513,24.937,9.513,34.451,0l0,0C291.977,50.563,291.977,35.138,282.464,25.625z"/>
<rect x="349.236" y="92.002" style="fill:#EAA0E3;" width="30.241" height="107.526"/>
<path style="fill:#F4C063;" d="M381.585,25.625L364.36,8.4l-17.225,17.225c-9.513,9.513-9.513,24.937,0,34.451l0,0
	c9.513,9.513,24.937,9.513,34.451,0l0,0C391.098,50.563,391.098,35.138,381.585,25.625z"/>
<path d="M481.997,463.048c-1.389-2.936-4.346-4.807-7.593-4.807h-22.678V304.81c13.673-14.756,21.835-34.599,21.835-56.129v-24.079
	c0-18.464-15.021-33.485-33.485-33.485H387.88v-99.12c0-4.639-3.761-8.4-8.401-8.4h-30.241c-4.639,0-8.401,3.761-8.401,8.4v99.12
	h-52.08v-99.12c0-4.639-3.761-8.4-8.4-8.4h-30.241c-4.639,0-8.4,3.761-8.4,8.4v99.12h-52.079v-99.12c0-4.639-3.761-8.4-8.4-8.4
	h-30.241c-4.639,0-8.4,3.761-8.4,8.4v35.841c0,4.639,3.761,8.4,8.4,8.4s8.4-3.761,8.4-8.4v-27.44h13.44v90.72h-13.44v-35.279
	c0-4.639-3.761-8.4-8.4-8.4s-8.4,3.761-8.4,8.4v35.279H71.922c-18.464,0-33.485,15.021-33.485,33.485v23.148
	c0,21.057,7.923,40.835,21.838,55.807v154.683H37.597c-3.247,0-6.204,1.872-7.593,4.807c-1.389,2.936-0.961,6.409,1.098,8.92
	l9.431,11.5c14.871,18.133,36.85,28.533,60.302,28.533h310.331c23.451,0,45.43-10.4,60.301-28.533l9.431-11.5
	C482.958,469.457,483.386,465.984,481.997,463.048z M357.64,100.397h13.44v90.72h-13.44V100.397z M258.519,100.397h13.44v90.72
	h-13.44V100.397z M55.237,224.602c0-9.2,7.484-16.684,16.685-16.684h368.153c9.2,0,16.684,7.485,16.684,16.684v24.079
	c0,30.098-19.941,56.047-48.49,63.102c-3.851,0.951-8.049,1.414-12.834,1.414c-14.964,0-22.081-4.573-30.321-9.868
	c-9.143-5.875-19.506-12.534-39.404-12.534c-19.897,0-30.26,6.659-39.402,12.534c-8.239,5.295-15.355,9.868-30.319,9.868
	c-14.963,0-22.079-4.573-30.318-9.868c-9.143-5.875-19.505-12.534-39.401-12.534c-4.639,0-8.4,3.761-8.4,8.4s3.761,8.401,8.4,8.401
	c14.963,0,22.079,4.573,30.318,9.868c9.143,5.875,19.505,12.534,39.402,12.534s30.26-6.659,39.402-12.534
	c8.239-5.295,15.355-9.868,30.319-9.868c14.965,0,22.081,4.573,30.321,9.868c9.143,5.876,19.506,12.534,39.403,12.534
	c6.16,0,11.677-0.623,16.864-1.905c8.155-2.015,15.747-5.255,22.625-9.484v27.626H77.075v-28.823l0.077,0.049
	c9.143,5.876,19.506,12.535,39.403,12.535c19.896,0,30.257-6.659,39.399-12.535l0.214-0.138c3.903-2.508,5.035-7.705,2.526-11.608
	c-2.508-3.903-7.705-5.035-11.608-2.526l-0.215,0.139c-8.239,5.295-15.354,9.868-30.317,9.868c-14.964,0-22.08-4.573-30.319-9.869
	l-0.961-0.617c-18.808-12.054-30.037-32.601-30.037-54.962C55.237,247.749,55.237,224.602,55.237,224.602z M77.075,421.839h263.764
	c4.639,0,8.401-3.761,8.401-8.4s-3.761-8.401-8.401-8.401H77.075v-42h357.85v42h-66.084c-4.639,0-8.4,3.761-8.4,8.401
	s3.761,8.4,8.4,8.4h66.084v36.402H77.075V421.839z M411.166,495.199H100.835c-17.415,0-33.797-7.311-45.393-20.158H456.56
	C444.963,487.888,428.582,495.199,411.166,495.199z"/>
<path d="M166.118,75.595c8.389,0,16.779-3.193,23.165-9.58c12.773-12.773,12.773-33.557,0-46.33L172.058,2.461
	c-3.281-3.281-8.6-3.281-11.879,0l-17.225,17.225c-6.187,6.187-9.596,14.414-9.596,23.165s3.407,16.978,9.596,23.165
	C149.339,72.402,157.729,75.595,166.118,75.595z M154.832,31.565l11.286-11.286l11.286,11.286c6.222,6.223,6.222,16.347,0,22.57
	c-6.223,6.223-16.348,6.223-22.57,0c-3.014-3.014-4.674-7.023-4.674-11.286C150.158,38.587,151.818,34.58,154.832,31.565z"/>
<path d="M265.239,75.595c8.389,0,16.779-3.193,23.165-9.58c12.773-12.773,12.773-33.557,0-46.33L271.179,2.461
	c-3.281-3.281-8.6-3.281-11.879,0l-17.225,17.225c-6.187,6.187-9.596,14.414-9.596,23.165s3.407,16.978,9.596,23.165
	C248.461,72.402,256.849,75.595,265.239,75.595z M253.954,31.565l11.286-11.286l11.286,11.286c6.222,6.223,6.222,16.347,0,22.57
	c-6.223,6.223-16.348,6.223-22.57,0c-3.014-3.014-4.674-7.023-4.674-11.286C249.278,38.587,250.938,34.58,253.954,31.565z"/>
<path d="M364.36,75.595c8.389,0,16.779-3.193,23.165-9.58c12.773-12.773,12.773-33.557,0-46.33L370.299,2.461
	c-3.281-3.281-8.6-3.281-11.879,0l-17.226,17.224c-6.187,6.187-9.596,14.414-9.596,23.165s3.407,16.978,9.596,23.165
	C347.581,72.402,355.97,75.595,364.36,75.595z M353.074,31.565L364.36,20.28l11.286,11.286c6.222,6.223,6.222,16.347,0,22.57
	c-3.014,3.014-7.023,4.674-11.285,4.674c-4.263,0-8.271-1.66-11.286-4.674c-3.015-3.014-4.674-7.023-4.674-11.286
	C348.4,38.587,350.06,34.58,353.074,31.565z"/>
<g>
</g>
<g>
</g>
<g>
</g>
<g>
</g>
<g>
</g>
<g>
</g>
<g>
</g>
<g>
</g>
<g>
</g>
<g>
</g>
<g>
</g>
<g>
</g>
<g>
</g>
<g>
</g>
<g>
</g>
</svg>
