<?xml version="1.0" encoding="iso-8859-1"?>
<!-- Generator: Adobe Illustrator 19.0.0, SVG Export Plug-In . SVG Version: 6.00 Build 0)  -->
<svg version="1.1" id="Capa_1" xmlns="http://www.w3.org/2000/svg" xmlns:xlink="http://www.w3.org/1999/xlink" x="0px" y="0px"
	 viewBox="0 0 512 512" style="enable-background:new 0 0 512 512;" xml:space="preserve">
<rect x="7.5" y="7.5" style="fill:#FEC007;" width="497" height="497"/>
<path style="fill:#FE9700;" d="M50.735,451.866V60.134c0-5.19,4.208-9.398,9.398-9.398h391.734c5.19,0,9.398,4.208,9.398,9.398
	v391.733c0,5.19-4.208,9.398-9.398,9.398H60.133C54.943,461.264,50.735,457.057,50.735,451.866z"/>
<rect x="65.736" y="65.736" style="fill:#FFF4EB;" width="380.53" height="380.53"/>
<path d="M141.073,497H15V15h121.396c4.143,0,7.5-3.358,7.5-7.5s-3.357-7.5-7.5-7.5H7.5C3.357,0,0,3.358,0,7.5v497
	c0,4.142,3.357,7.5,7.5,7.5h133.573c4.143,0,7.5-3.358,7.5-7.5S145.216,497,141.073,497z"/>
<path d="M504.5,0H164.25c-4.143,0-7.5,3.358-7.5,7.5s3.357,7.5,7.5,7.5H497v482H168.927c-4.143,0-7.5,3.358-7.5,7.5
	s3.357,7.5,7.5,7.5H504.5c4.143,0,7.5-3.358,7.5-7.5V7.5C512,3.358,508.643,0,504.5,0z"/>
<path d="M58.236,65.736v380.528c0,4.142,3.357,7.5,7.5,7.5h380.527c4.143,0,7.5-3.358,7.5-7.5v-71.838c0-4.142-3.357-7.5-7.5-7.5
	s-7.5,3.358-7.5,7.5v64.338H73.236V73.236h365.527v273.337c0,4.142,3.357,7.5,7.5,7.5s7.5-3.358,7.5-7.5V65.736
	c0-4.142-3.357-7.5-7.5-7.5H65.736C61.594,58.236,58.236,61.594,58.236,65.736z"/>
<path d="M290.481,325.166c0-4.142-3.357-7.5-7.5-7.5h-53.963c-4.143,0-7.5,3.358-7.5,7.5s3.357,7.5,7.5,7.5h53.963
	C287.124,332.666,290.481,329.308,290.481,325.166z"/>
<path d="M302.159,282.242c1.465,1.464,3.385,2.197,5.304,2.197s3.839-0.732,5.304-2.197l20.521-20.522
	c2.929-2.929,2.929-7.677,0-10.606l-20.521-20.522c-2.929-2.929-7.678-2.929-10.606,0c-2.93,2.929-2.93,7.677-0.001,10.606
	l7.719,7.719H263.5V168.17l7.719,7.719c1.465,1.464,3.385,2.197,5.304,2.197s3.839-0.732,5.304-2.197
	c2.929-2.929,2.929-7.678,0-10.606l-20.522-20.522c-2.93-2.929-7.678-2.929-10.607,0l-20.522,20.522
	c-2.929,2.929-2.929,7.678,0,10.606c2.93,2.929,7.678,2.929,10.607,0l7.719-7.719v88.246c0,4.142,3.357,7.5,7.5,7.5h53.878
	l-7.719,7.719C299.23,274.564,299.23,279.313,302.159,282.242z"/>
<path d="M256,126.62c4.143,0,7.5-3.358,7.5-7.5V93.271c0-4.142-3.357-7.5-7.5-7.5s-7.5,3.358-7.5,7.5v25.849
	C248.5,123.262,251.857,126.62,256,126.62z"/>
<path d="M248.5,388.971v25.849c0,4.142,3.357,7.5,7.5,7.5s7.5-3.358,7.5-7.5v-25.849c0-4.142-3.357-7.5-7.5-7.5
	S248.5,384.829,248.5,388.971z"/>
<path d="M390.926,246.545c-4.143,0-7.5,3.358-7.5,7.5c0,4.142,3.357,7.5,7.5,7.5h25.849c4.143,0,7.5-3.358,7.5-7.5
	s-3.357-7.5-7.5-7.5L390.926,246.545L390.926,246.545z"/>
<path d="M95.226,246.545c-4.143,0-7.5,3.358-7.5,7.5c0,4.142,3.357,7.5,7.5,7.5h25.849c4.143,0,7.5-3.358,7.5-7.5
	s-3.357-7.5-7.5-7.5L95.226,246.545L95.226,246.545z"/>
<path d="M486.603,33.729c0-4.142-3.357-7.5-7.5-7.5h-51.917c-4.143,0-7.5,3.358-7.5,7.5s3.357,7.5,7.5,7.5h44.417v44.417
	c0,4.142,3.357,7.5,7.5,7.5s7.5-3.358,7.5-7.5V33.729z"/>
<path d="M32.897,93.146c4.143,0,7.5-3.358,7.5-7.5V41.229h44.417c4.143,0,7.5-3.358,7.5-7.5s-3.357-7.5-7.5-7.5H32.897
	c-4.143,0-7.5,3.358-7.5,7.5v51.917C25.397,89.788,28.755,93.146,32.897,93.146z"/>
<path d="M25.397,478.271c0,4.142,3.357,7.5,7.5,7.5h51.917c4.143,0,7.5-3.358,7.5-7.5s-3.357-7.5-7.5-7.5H40.397v-44.417
	c0-4.142-3.357-7.5-7.5-7.5s-7.5,3.358-7.5,7.5V478.271z"/>
<path d="M479.103,418.854c-4.143,0-7.5,3.358-7.5,7.5v44.417h-44.417c-4.143,0-7.5,3.358-7.5,7.5s3.357,7.5,7.5,7.5h51.917
	c4.143,0,7.5-3.358,7.5-7.5v-51.917C486.603,422.212,483.245,418.854,479.103,418.854z"/>
<g>
</g>
<g>
</g>
<g>
</g>
<g>
</g>
<g>
</g>
<g>
</g>
<g>
</g>
<g>
</g>
<g>
</g>
<g>
</g>
<g>
</g>
<g>
</g>
<g>
</g>
<g>
</g>
<g>
</g>
</svg>
