<?xml version="1.0" encoding="iso-8859-1"?>
<!-- Generator: Adobe Illustrator 19.0.0, SVG Export Plug-In . SVG Version: 6.00 Build 0)  -->
<svg version="1.1" id="Capa_1" xmlns="http://www.w3.org/2000/svg" xmlns:xlink="http://www.w3.org/1999/xlink" x="0px" y="0px"
	 viewBox="0 0 512.001 512.001" style="enable-background:new 0 0 512.001 512.001;" xml:space="preserve">
<path style="fill:#F9A13E;" d="M270.049,124.261c-10.385,22.995-27.081,36.038-27.081,36.038H107.44c0,0-20.194-9.2-29.65-34.234
	c-5.569-14.747-7.418-34.998,0.786-62.09c22.132-73.072,170.381-74.191,193.62-9.411
	C282.316,82.788,278.065,106.492,270.049,124.261z"/>
<g>
	<path style="fill:#E2780E;" d="M270.049,124.261c-10.385,22.995-27.081,36.038-27.081,36.038h-39.072
		c0-23.66,19.242-42.903,42.903-42.903C255.357,117.397,263.34,119.921,270.049,124.261z"/>
	<path style="fill:#E2780E;" d="M146.512,160.3H107.44c0,0-20.194-9.2-29.65-34.234c7.185-5.436,16.131-8.669,25.819-8.669
		C127.27,117.397,146.512,136.639,146.512,160.3z"/>
</g>
<path style="fill:#D2E3F1;" d="M264.877,347.176v113.962H86.264V347.176c0-18.27,5.49-35.271,14.91-49.421
	c16.01-24.04,43.351-39.881,74.401-39.881c13.87,0,27.02,3.17,38.741,8.82c9.1,4.39,17.35,10.27,24.41,17.33
	c4.19,4.18,7.96,8.79,11.24,13.74c0.05,0.08,0.11,0.17,0.16,0.25C259.447,312.116,264.877,329.016,264.877,347.176z"/>
<g>
	<path style="fill:#A5C6E3;" d="M250.127,298.015c-0.05-0.08-0.11-0.17-0.16-0.25c-3.28-4.95-7.05-9.56-11.24-13.74
		c-7.06-7.06-15.31-12.94-24.41-17.33c-27.99,34.111-29.001,84.451,0.05,119.822c13.13,16,30.861,27.02,50.511,31.811v-71.151
		C264.877,329.016,259.447,312.116,250.127,298.015z"/>
	<path style="fill:#A5C6E3;" d="M249.965,297.765l-34.035,31.986c-5.159,4.849-13.208,4.772-18.268-0.166l-22.088-21.556
		l-22.087,21.556c-5.06,4.938-13.12,5.015-18.268,0.166l-34.046-31.997c16.009-24.036,43.357-39.88,74.401-39.88
		c24.656,0,46.988,9.997,63.152,26.151C242.913,288.21,246.688,292.816,249.965,297.765z"/>
</g>
<path style="fill:#5A9BCC;" d="M239.497,284.815l-32.571,30.611l-11.33-11.06l-20.02-19.55l-31.361,30.611l-32.561-30.611
	c16.2-16.63,38.861-26.95,63.921-26.95c13.93,0,27.12,3.19,38.871,8.89c9.05,4.37,17.25,10.24,24.28,17.27
	C238.977,284.285,239.237,284.545,239.497,284.815z"/>
<path style="fill:#1E70AD;" d="M238.727,284.025c-7.03-7.03-15.23-12.9-24.28-17.27c-0.04-0.02-0.09-0.04-0.13-0.06
	c-9.17,11.18-15.45,24.1-18.72,37.671l11.33,11.06l32.571-30.611C239.237,284.545,238.977,284.285,238.727,284.025z"/>
<g>
	<path style="fill:#FCCE99;" d="M175.571,284.816L175.571,284.816c-10.924,0-19.78-8.856-19.78-19.78V230.92h39.561v34.116
		C195.352,275.961,186.496,284.816,175.571,284.816z"/>
	<circle style="fill:#FCCE99;" cx="246.795" cy="160.303" r="26.3"/>
	<circle style="fill:#FCCE99;" cx="103.602" cy="160.303" r="26.3"/>
</g>
<path style="fill:#FEE6CC;" d="M246.799,90.117l-3.41,40.866l-4.595,55.015c-2.757,33.071-30.403,58.502-63.595,58.502
	c-33.182,0-60.827-25.431-63.584-58.502l-4.816-57.683l-3.189-38.197L246.799,90.117L246.799,90.117z"/>
<path style="fill:#FCCE99;" d="M246.799,90.117l-3.41,40.866c-10.938,2.059-22.043,3.089-33.293,3.089
	c-37.024,0-66.64-11.26-82.173-18.711c-5.137,4.263-12.179,9.09-21.124,12.954l-3.189-38.197L246.799,90.117L246.799,90.117z"/>
<path style="fill:#F9A13E;" d="M233.512,69.648c22.143,16.743,60.894,24.785,60.894,24.785
	c-89.681,51.493-169.396,0.544-169.396,0.544s-10.199,13.272-29.853,20.053V69.648H233.512z"/>
<path style="fill:#A5C6E3;" d="M349.246,326.589c0,34.186-27.716,61.902-61.902,61.902c-13.335,0-25.69-4.223-35.799-11.402
	c-5.247-3.722-9.883-8.242-13.737-13.379c-1.107-1.47-2.147-2.984-3.116-4.553v-0.005c-3.628-5.853-6.31-12.36-7.818-19.298
	c-0.941-4.272-1.432-8.71-1.432-13.263c0-34.186,27.716-61.902,61.902-61.902c4.553,0,8.996,0.49,13.269,1.432
	c6.937,1.509,13.44,4.19,19.292,7.818c1.569,0.969,3.089,2.01,4.559,3.116c5.137,3.849,9.657,8.49,13.379,13.731
	C345.023,300.893,349.246,313.249,349.246,326.589z"/>
<path style="fill:#D2E3F1;" d="M319.906,273.936l-85.215,85.214c-3.628-5.853-6.31-12.36-7.818-19.298l73.74-73.734
	C307.551,267.627,314.053,270.308,319.906,273.936z"/>
<rect x="344.504" y="431.058" transform="matrix(0.6346 0.7728 -0.7728 0.6346 489.1422 -135.4409)" style="fill:#FEC007;" width="86.609" height="37.039"/>
<g>
	
		<rect x="357.563" y="403.418" transform="matrix(0.6346 0.7728 -0.7728 0.6346 459.4927 -128.008)" style="fill:#FE9700;" width="15.12" height="37.039"/>
	
		<rect x="398.691" y="456.68" transform="matrix(0.6346 0.7728 -0.7728 0.6346 516.6282 -142.3333)" style="fill:#FE9700;" width="20.3" height="37.039"/>
</g>
<rect x="333.038" y="379.299" transform="matrix(-0.7728 0.6346 -0.6346 -0.7728 858.9382 482.6733)" style="fill:#003A7F;" width="20.08" height="31.551"/>
<g>
	<path style="fill:#1D71B8;" d="M383.475,405.963l-37.576,30.855c-1.501,1.232-3.716,1.015-4.948-0.486l-4.514-5.497
		c-4.716-5.743-3.883-14.221,1.86-18.937l22.213-18.24c5.743-4.716,14.221-3.883,18.937,1.86l4.514,5.497
		C385.193,402.515,384.976,404.731,383.475,405.963z"/>
	<path style="fill:#1D71B8;" d="M388.869,489.147l37.576-30.855c1.501-1.232,3.716-1.015,4.948,0.486l4.514,5.497
		c4.716,5.743,3.883,14.221-1.86,18.937l-22.213,18.24c-5.743,4.716-14.221,3.883-18.937-1.86l-4.514-5.497
		C387.151,492.595,387.368,490.38,388.869,489.147z"/>
	<path style="fill:#1D71B8;" d="M236.936,265.199c-33.905,27.84-38.821,77.892-10.98,111.797
		c27.84,33.905,77.892,38.821,111.797,10.98s38.821-77.892,10.98-111.797C320.893,242.274,270.841,237.358,236.936,265.199z
		 M326.628,374.429c-26.42,21.694-65.429,17.863-87.124-8.557s-17.863-65.429,8.557-87.124c26.42-21.694,65.429-17.863,87.124,8.557
		C356.88,313.725,353.049,352.734,326.628,374.429z"/>
</g>
<path d="M148.75,156.196v-1.409c0-4.142-3.358-7.5-7.5-7.5c-4.142,0-7.5,3.358-7.5,7.5v1.409c0,4.142,3.358,7.5,7.5,7.5
	C145.392,163.696,148.75,160.338,148.75,156.196z"/>
<path d="M216.486,156.196v-1.409c0-4.142-3.358-7.5-7.5-7.5s-7.5,3.358-7.5,7.5v1.409c0,4.142,3.358,7.5,7.5,7.5
	S216.486,160.338,216.486,156.196z"/>
<path d="M176.256,209.849c7.739,0,14.966-2.268,20.352-6.386c3.29-2.516,3.917-7.223,1.401-10.514
	c-2.517-3.29-7.223-3.917-10.514-1.401c-2.743,2.098-6.84,3.301-11.239,3.301s-8.496-1.203-11.239-3.301
	c-3.29-2.516-7.998-1.888-10.514,1.401c-2.516,3.291-1.889,7.998,1.401,10.514C161.29,207.581,168.518,209.849,176.256,209.849z"/>
<path d="M441.703,459.515l-4.513-5.495c-1.867-2.275-4.509-3.687-7.438-3.974c-2.351-0.233-4.655,0.295-6.65,1.473l-33.635-40.963
	c3.539-3.978,3.774-10.059,0.29-14.302l-4.514-5.496c-6.647-8.096-18.133-9.895-26.877-4.701l-3.683-4.487
	c25.65-31.397,26.539-77.639-0.155-110.148c-14.735-17.946-35.578-29.08-58.687-31.349c-23.113-2.268-45.72,4.595-63.665,19.331
	c-2.068,1.698-4.021,3.483-5.891,5.326c-7.34-4.526-15.182-8.021-23.434-10.434v-7.876c7.516-3.163,14.504-7.608,20.634-13.248
	c11.349-10.442,18.908-24.131,21.757-39.126c0.518,0.024,1.034,0.059,1.554,0.059c18.637,0,33.801-15.163,33.801-33.801
	c0-8.548-3.265-16.698-8.943-22.875c5.395-9.212,9.26-18.848,11.537-28.76c4.943-2.282,9.931-4.849,14.95-7.731
	c2.7-1.55,4.161-4.608,3.671-7.684c-0.489-3.075-2.83-5.528-5.879-6.163c-0.122-0.026-4.211-0.894-10.356-2.591
	c-0.313-10.722-2.426-21.617-6.32-32.471c-6.132-17.09-20.153-31.015-40.55-40.267c-17.911-8.127-40.303-12.288-63.051-11.71
	C135.883,1.059,84.715,17.832,71.407,61.797c-11.325,37.392-4.336,62.783,4.955,78.529c-4.118,5.6-6.557,12.508-6.557,19.976
	c0,18.638,15.163,33.801,33.801,33.801c0.521,0,1.039-0.036,1.557-0.059c0.959,5.033,2.445,9.951,4.471,14.686
	c1.217,2.847,3.987,4.553,6.899,4.553c0.984,0,1.984-0.195,2.946-0.606c3.809-1.628,5.575-6.037,3.946-9.845
	c-2.377-5.559-3.838-11.433-4.34-17.459l-5.897-70.647c5.861-3.614,10.302-7.4,13.277-10.289c8.24,4.386,25.27,12.305,48.128,16.93
	c10.094,2.042,22.017,3.544,35.267,3.543c8.405,0,17.344-0.611,26.682-2.065l-5.22,62.528c-2.417,28.952-27.066,51.63-56.119,51.63
	c-13.819,0-27.121-5.072-37.455-14.282c-3.093-2.756-7.833-2.483-10.589,0.609c-2.756,3.092-2.483,7.833,0.609,10.589
	c6.122,5.456,13.073,9.748,20.523,12.789v7.576c-15.493,4.533-29.632,12.9-41.169,24.438c-0.295,0.295-0.582,0.597-0.873,0.895
	c-0.021,0.022-0.044,0.04-0.065,0.063c-0.009,0.01-0.017,0.021-0.027,0.031c-17.671,18.17-27.392,42.07-27.392,67.465v14.9
	c0,4.142,3.358,7.5,7.5,7.5c4.142,0,7.5-3.358,7.5-7.5v-14.9c0-19.037,6.465-37.08,18.348-51.631l26.965,25.344
	c1.445,1.358,3.291,2.035,5.136,2.035c1.893,0,3.784-0.712,5.239-2.133l18.165-17.731v150.576H93.764v-63.703
	c0-4.142-3.358-7.5-7.5-7.5c-4.142,0-7.5,3.358-7.5,7.5v71.203c0,4.142,3.358,7.5,7.5,7.5h178.614c4.143,0,7.5-3.358,7.5-7.5
	v-14.202c0-4.142-3.357-7.5-7.5-7.5c-4.143,0-7.5,3.358-7.5,7.5v6.702h-74.759V302.176l18.118,17.686
	c-1.221,15.683,1.771,31.701,9.168,46.205h-5.25c-4.142,0-7.5,3.358-7.5,7.5c0,4.142,3.358,7.5,7.5,7.5h14.967
	c0.183,0.228,0.351,0.463,0.537,0.689c9.995,12.171,22.803,21.197,37.219,26.46v10.86c0,4.142,3.357,7.5,7.5,7.5
	c4.143,0,7.5-3.358,7.5-7.5v-6.876c2.136,0.37,4.289,0.688,6.469,0.903c2.897,0.285,5.783,0.426,8.656,0.426
	c14.028,0,27.669-3.375,39.978-9.812l3.776,4.595c-2.974,3.3-4.833,7.431-5.275,11.934c-0.547,5.57,1.108,11.021,4.661,15.346
	l4.512,5.496c1.867,2.275,4.509,3.687,7.438,3.974c0.367,0.036,0.733,0.054,1.098,0.054c1.967,0,3.872-0.528,5.556-1.521
	l33.638,40.948c-1.548,1.73-2.515,3.89-2.747,6.243c-0.288,2.928,0.582,5.793,2.45,8.068l4.514,5.498
	c4.138,5.039,10.152,7.648,16.213,7.647c4.681,0,9.389-1.556,13.279-4.751l22.211-18.241
	C447.737,481.678,449.036,468.447,441.703,459.515z M246.898,179.098l3.115-37.314c2.734,0.47,5.325,1.53,7.619,3.154
	c4.988,3.523,7.967,9.266,7.967,15.363C265.598,170.636,257.218,179.044,246.898,179.098z M84.804,160.303
	c0-9.269,6.75-16.974,15.589-18.505l3.114,37.301C93.186,179.045,84.804,170.637,84.804,160.303z M178.148,106.781
	c-29.565-5.875-48.917-18.007-49.099-18.123c-3.277-2.096-7.615-1.336-9.986,1.749c-0.088,0.115-9.304,11.651-26.352,17.533
	c-3.916,1.351-5.995,5.621-4.644,9.536c1.352,3.917,5.621,5.994,9.536,4.644c0.378-0.13,0.74-0.271,1.112-0.406l0.425,5.092
	c-3.985,0.528-7.752,1.751-11.176,3.546c-9.027-17.051-9.819-39.063-2.203-64.208c10.991-36.308,55.498-50.217,90.272-51.096
	c36.52-0.917,78.223,11.72,89.104,42.045c2.72,7.579,4.41,15.145,5.106,22.605c-10.908-3.848-23.162-9.194-32.208-16.033
	c-3.304-2.499-8.008-1.845-10.506,1.459s-1.845,8.007,1.459,10.506c12.987,9.82,30.918,16.727,44.488,20.967
	c-0.101,0.047-0.201,0.096-0.3,0.148C242.912,109.933,211.03,113.314,178.148,106.781z M265.433,115.754
	c-1.663,4.457-3.715,8.841-6.16,13.13c-2.566-1.021-5.253-1.707-8.011-2.07l0.59-7.067
	C256.314,118.631,260.845,117.307,265.433,115.754z M394.385,474.913l-20.813-25.335l17.04-13.992l20.807,25.339L394.385,474.913z
	 M360.926,434.184l17.043-13.995l3.123,3.804l-17.042,13.994L360.926,434.184z M175.202,252.003c4.276,0,8.505-0.391,12.649-1.135
	v14.168c0,6.771-5.509,12.28-12.28,12.28s-12.28-5.509-12.28-12.28v-4.937c0-0.078,0.002-0.156,0-0.235v-8.878
	C167.202,251.648,171.183,252.003,175.202,252.003z M144.116,305.04l-21.5-20.207c7.737-6.584,16.581-11.647,26.114-14.951
	c1.398,7.761,6.083,14.393,12.565,18.39L144.116,305.04z M189.847,288.271c6.479-3.995,11.163-10.623,12.563-18.38
	c4.868,1.686,9.56,3.819,14.037,6.409c-5.627,7.937-9.804,16.656-12.469,25.766L189.847,288.271z M287.407,398.49
	c-20.804-0.001-41.455-8.958-55.656-26.252c-25.17-30.654-20.709-76.07,9.944-101.241c12.988-10.665,28.929-16.348,45.516-16.348
	c2.377,0,4.768,0.117,7.163,0.352c19.122,1.878,36.368,11.09,48.562,25.939c25.17,30.654,20.709,76.069-9.944,101.24
	C319.633,393.15,303.477,398.491,287.407,398.49z M342.511,393.773c0.557-0.458,1.084-0.938,1.628-1.407l2.466,3.005l-3.922,3.221
	l-2.473-3.01C340.982,394.989,341.754,394.394,342.511,393.773z M342.234,426.075c-1.009-1.229-1.479-2.778-1.324-4.361
	s0.918-3.01,2.147-4.02l3.333-2.737c0.007-0.005,0.014-0.009,0.021-0.014c0.011-0.009,0.021-0.02,0.032-0.029l18.827-15.46
	c1.106-0.908,2.444-1.35,3.774-1.35c1.722,0,3.432,0.741,4.607,2.173l1.985,2.417l-31.418,25.797L342.234,426.075z M429.287,477.416
	l-22.213,18.24c-2.536,2.084-6.297,1.715-8.381-0.823l-1.984-2.418l1.397-1.147c0.001-0.001,0.003-0.002,0.005-0.003
	c0.003-0.002,0.005-0.005,0.008-0.007l30.007-24.64l1.985,2.418C432.195,471.572,431.825,475.332,429.287,477.416z"/>
<path d="M356.413,333.372c1.812-18.449-3.669-36.5-15.434-50.826c-11.764-14.327-28.403-23.215-46.852-25.027
	c-18.454-1.813-36.5,3.668-50.827,15.433c-29.575,24.285-33.879,68.103-9.593,97.678c13.703,16.688,33.625,25.33,53.698,25.33
	c15.5,0,31.094-5.154,43.98-15.735C345.712,368.461,354.601,351.821,356.413,333.372z M321.866,368.632
	c-23.181,19.035-57.53,15.663-76.565-7.521c-19.036-23.182-15.663-57.53,7.52-76.565c9.823-8.066,21.877-12.363,34.423-12.363
	c1.797,0,3.605,0.088,5.417,0.266c14.462,1.42,27.504,8.387,36.727,19.617l0,0c9.221,11.229,13.518,25.378,12.097,39.84
	C340.064,346.367,333.097,359.41,321.866,368.632z"/>
<g>
</g>
<g>
</g>
<g>
</g>
<g>
</g>
<g>
</g>
<g>
</g>
<g>
</g>
<g>
</g>
<g>
</g>
<g>
</g>
<g>
</g>
<g>
</g>
<g>
</g>
<g>
</g>
<g>
</g>
</svg>
