<?xml version="1.0" encoding="iso-8859-1"?>
<!-- Generator: Adobe Illustrator 19.0.0, SVG Export Plug-In . SVG Version: 6.00 Build 0)  -->
<svg version="1.1" id="Capa_1" xmlns="http://www.w3.org/2000/svg" xmlns:xlink="http://www.w3.org/1999/xlink" x="0px" y="0px"
	 viewBox="0 0 512.001 512.001" style="enable-background:new 0 0 512.001 512.001;" xml:space="preserve">
<rect x="154.509" y="18.583" style="fill:#8AE46D;" width="133.07" height="48.75"/>
<polygon style="fill:#FCCE99;" points="456.486,43.596 456.486,368.487 15.807,368.487 15.807,7.501 152.988,7.501 192.048,43.596 
	"/>
<g>
	<rect x="434.449" y="43.592" style="fill:#E8A96B;" width="22.03" height="324.89"/>
	<rect x="15.807" y="7.5" style="fill:#E8A96B;" width="22.03" height="360.99"/>
	<path style="fill:#E8A96B;" d="M414.381,319.161l-7.662-9.334c-7.221-8.804-17.898-13.841-29.285-13.841
		c-6.149,0-12.199,1.512-17.597,4.347l-3.846-4.677c43.096-54.123,44.188-132.975-1.442-188.551
		C325.945,72.281,283.679,52.31,238.58,52.31c-34.563,0-68.335,12.099-95.087,34.063c-30.958,25.419-50.157,61.374-54.073,101.236
		s7.922,78.862,33.341,109.819c28.594,34.824,70.859,54.795,115.969,54.795c0,0,0,0,0.01,0c23.506,0,46.642-5.599,67.464-16.095
		l4.036,4.908c-4.627,5.699-7.492,12.629-8.223,20.111c-0.24,2.474-0.25,4.928-0.02,7.341h85.402l24.087-19.78
		c4.327-3.556,7.021-8.583,7.572-14.172C419.599,328.956,417.946,323.498,414.381,319.161z M328.348,211.075
		c-2.354,23.967-13.891,45.57-32.5,60.844c-16.075,13.21-36.366,20.482-57.128,20.482c-27.122,0-52.531-12.009-69.717-32.941
		c-15.284-18.599-22.395-42.045-20.041-66.002s13.891-45.57,32.5-60.844c16.075-13.21,36.366-20.482,57.128-20.482
		c27.122,0,52.531,12.009,69.717,32.941C323.591,163.672,330.702,187.118,328.348,211.075z"/>
</g>
<path style="fill:#A5C6E3;" d="M343.806,202.268c0,58.071-47.082,105.153-105.153,105.153c-22.652,0-43.64-7.174-60.811-19.369
	c-8.913-6.322-16.788-14.001-23.335-22.727c-1.88-2.497-3.648-5.069-5.294-7.735v-0.009c-6.163-9.942-10.718-20.997-13.281-32.781
	c-1.599-7.258-2.432-14.796-2.432-22.531c0-58.071,47.082-105.153,105.153-105.153c7.735,0,15.282,0.833,22.54,2.432
	c11.784,2.563,22.83,7.117,32.772,13.281c2.666,1.646,5.247,3.414,7.744,5.294c8.726,6.538,16.405,14.422,22.727,23.326
	C336.632,158.619,343.806,179.607,343.806,202.268z"/>
<path style="fill:#D2E3F1;" d="M293.965,112.828L149.213,257.58c-6.163-9.942-10.718-20.997-13.281-32.781L261.193,99.547
	C272.978,102.11,284.023,106.665,293.965,112.828z"/>
<rect x="335.752" y="379.716" transform="matrix(0.6346 0.7728 -0.7728 0.6346 467.3196 -166.0939)" style="fill:#FEC007;" width="147.125" height="62.914"/>
<g>
	
		<rect x="357.939" y="332.786" transform="matrix(0.6346 0.7728 -0.7728 0.6346 416.9717 -153.4608)" style="fill:#FE9700;" width="25.682" height="62.914"/>
	
		<rect x="427.809" y="423.237" transform="matrix(0.6346 0.7728 -0.7728 0.6346 514.0106 -177.8093)" style="fill:#FE9700;" width="34.482" height="62.914"/>
</g>
<rect x="316.289" y="291.829" transform="matrix(-0.7728 0.6346 -0.6346 -0.7728 793.1663 353.3221)" style="fill:#003A7F;" width="34.109" height="53.594"/>
<g>
	<path style="fill:#1D71B8;" d="M401.95,337.1l-63.829,52.412c-2.549,2.093-6.313,1.724-8.406-0.826l-7.668-9.338
		c-8.01-9.755-6.596-24.157,3.16-32.168l37.733-30.984c9.755-8.01,24.157-6.596,32.168,3.159l7.668,9.338
		C404.868,331.244,404.499,335.007,401.95,337.1z"/>
	<path style="fill:#1D71B8;" d="M411.112,478.404l63.829-52.412c2.549-2.093,6.313-1.724,8.406,0.826l7.668,9.338
		c8.01,9.755,6.596,24.157-3.159,32.168l-37.733,30.984c-9.755,8.01-24.157,6.596-32.168-3.159l-7.668-9.338
		C408.193,484.261,408.563,480.497,411.112,478.404z"/>
	<path style="fill:#1D71B8;" d="M153.026,97.986c-57.594,47.292-65.945,132.315-18.653,189.909s132.315,65.945,189.909,18.653
		s65.945-132.315,18.653-189.909C295.642,59.045,210.62,50.694,153.026,97.986z M305.384,283.533
		c-44.88,36.852-111.144,30.344-147.996-14.536s-30.344-111.144,14.536-147.996s111.144-30.344,147.996,14.536
		C356.772,180.416,350.264,246.681,305.384,283.533z"/>
</g>
<path d="M496.811,431.396l-7.667-9.338c-2.284-2.781-5.514-4.507-9.095-4.858c-3.583-0.351-7.085,0.713-9.867,2.996l-1.805,1.482
	l-37.516-45.688h25.626c4.142,0,7.5-3.358,7.5-7.5v-94.06c0-4.142-3.358-7.5-7.5-7.5s-7.5,3.358-7.5,7.5v86.56h-30.443
	l-13.64-16.612l1.804-1.481c2.782-2.283,4.507-5.514,4.859-9.095c0.352-3.582-0.712-7.086-2.996-9.866l-7.667-9.338
	c-5.146-6.267-12.423-10.154-20.493-10.947c-8.025-0.787-15.87,1.579-22.119,6.662l-12.065-14.692
	c44.698-51.455,47.172-129.337,2.5-183.74c-24.143-29.403-58.291-47.644-96.154-51.362c-37.86-3.72-74.907,7.529-104.309,31.673
	c-55.756,45.783-68.505,126.063-29.655,186.739c2.233,3.488,6.87,4.506,10.361,2.272c3.488-2.234,4.505-6.872,2.272-10.361
	c-34.753-54.277-23.342-126.097,26.543-167.058c26.306-21.601,59.451-31.666,93.323-28.337
	c33.875,3.327,64.427,19.647,86.027,45.953c41.23,50.211,37.576,122.778-6.135,168.681c-0.009,0.009-0.017,0.018-0.026,0.027
	c-3.556,3.732-7.371,7.291-11.454,10.643c-50.578,41.529-126.03,37.495-171.774-9.187c-2.9-2.958-7.648-3.006-10.606-0.107
	c-2.958,2.899-3.006,7.648-0.107,10.606c24.823,25.331,58.066,40.391,93.607,42.405c2.715,0.154,5.42,0.23,8.123,0.23
	c24.428,0,48.243-6.259,69.368-18.084l12.207,14.866c-6.151,5.1-9.771,12.14-10.713,19.51H23.307V15h126.756l36.904,34.099
	c1.386,1.28,3.203,1.991,5.09,1.991h256.93v195.48c0,4.142,3.358,7.5,7.5,7.5s7.5-3.358,7.5-7.5V43.59c0-4.142-3.358-7.5-7.5-7.5
	h-161.41V18.58c0-4.142-3.358-7.5-7.5-7.5H167.924l-9.837-9.089C156.701,0.711,154.884,0,152.997,0H15.807
	c-4.142,0-7.5,3.358-7.5,7.5v360.99c0,4.142,3.358,7.5,7.5,7.5h295.672c1.13,2.868,2.713,5.61,4.772,8.118l7.668,9.339
	c2.66,3.24,6.527,4.917,10.424,4.917c3.009,0,6.036-1,8.538-3.055l1.802-1.48l34.638,42.181c1.483,1.806,3.633,2.74,5.801,2.74
	c1.675,0,3.36-0.558,4.755-1.704c3.201-2.629,3.665-7.355,1.037-10.556l-13.161-16.027l37.036-30.411l41.996,51.145l-37.032,30.408
	l-11.07-13.476c-2.629-3.2-7.355-3.664-10.556-1.035s-3.664,7.355-1.035,10.556l11.068,13.474l-1.807,1.483
	c-2.781,2.284-4.507,5.514-4.858,9.095c-0.352,3.581,0.712,7.085,2.996,9.866l7.667,9.338c5.146,6.267,12.423,10.154,20.493,10.947
	c1.012,0.099,2.02,0.148,3.023,0.148c7,0,13.728-2.398,19.208-6.898l37.733-30.984C505.55,463.498,507.433,444.332,496.811,431.396z
	 M280.077,26.08v10.01h-85.085l-10.833-10.01H280.077z M329.039,312.344c2.31-1.897,4.535-3.858,6.694-5.867l10.965,13.353
	l-14.77,12.129l-11.019-13.419C323.68,316.577,326.394,314.515,329.039,312.344z M327.843,374.589
	c-2.603-3.17-3.815-7.164-3.415-11.246c0.401-4.082,2.368-7.764,5.538-10.366l32.002-26.278c0.015-0.012,0.033-0.02,0.048-0.033
	c0.026-0.022,0.049-0.046,0.075-0.068l5.607-4.604c2.772-2.277,6.176-3.49,9.717-3.49c0.507,0,1.017,0.025,1.529,0.075
	c4.082,0.401,7.764,2.368,10.366,5.537l6.698,8.158l-6.387,5.245c-0.011,0.009-0.023,0.016-0.034,0.025s-0.021,0.02-0.032,0.029
	l-48.543,39.86c-0.018,0.015-0.038,0.026-0.056,0.041c-0.018,0.015-0.034,0.032-0.052,0.047l-6.364,5.226L327.843,374.589z
	 M356.275,384.309l37.036-30.412l11.958,14.562l-37.036,30.411L356.275,384.309z M483.095,462.527l-37.732,30.984
	c-6.544,5.374-16.239,4.421-21.612-2.123l-6.698-8.158l6.421-5.272c0.001-0.001,0.003-0.002,0.005-0.003
	c0.002-0.002,0.005-0.004,0.007-0.006l55.035-45.191l6.698,8.157C490.591,447.459,489.639,457.154,483.095,462.527z"/>
<path d="M238.752,314.87c25.161,0,50.47-8.366,71.388-25.542c48.006-39.419,54.992-110.544,15.573-158.549
	c-19.095-23.255-46.104-37.682-76.049-40.623c-29.949-2.944-59.245,5.956-82.5,25.05c-23.255,19.095-37.682,46.104-40.623,76.049
	c-2.941,29.946,5.955,59.245,25.05,82.5C173.834,300.844,206.169,314.871,238.752,314.87z M141.468,192.722
	c2.55-25.958,15.056-49.371,35.214-65.923c17.632-14.479,39.272-22.193,61.791-22.193c3.226,0,6.471,0.158,9.724,0.478
	c25.958,2.549,49.371,15.055,65.923,35.213c16.553,20.159,24.265,45.556,21.715,71.515c-2.549,25.959-15.055,49.371-35.213,65.923
	c-18.135,14.891-40.069,22.143-61.882,22.141c-28.242-0.002-56.277-12.161-75.556-35.64
	C146.631,244.079,138.919,218.681,141.468,192.722z"/>
<path d="M189.043,240.988h1.604c11.999,0,21.761-9.762,21.761-21.761v-46.542c0-4.142-3.358-7.5-7.5-7.5h-23.371
	c-4.142,0-7.5,3.358-7.5,7.5s3.358,7.5,7.5,7.5h15.871v39.042c0,3.728-3.033,6.761-6.761,6.761h-1.604
	c-3.728,0-6.761-3.033-6.761-6.761c0-4.142-3.358-7.5-7.5-7.5s-7.5,3.358-7.5,7.5C167.281,231.226,177.044,240.988,189.043,240.988z
	"/>
<path d="M237.893,240.988c12.493,0,22.657-10.164,22.657-22.657v-30.49c0-12.493-10.164-22.657-22.657-22.657
	s-22.656,10.164-22.656,22.657v30.49C215.236,230.825,225.4,240.988,237.893,240.988z M230.236,187.842
	c0-4.222,3.435-7.657,7.656-7.657c4.222,0,7.657,3.435,7.657,7.657v30.49c0,4.222-3.435,7.657-7.657,7.657s-7.656-3.435-7.656-7.657
	V187.842z"/>
<path d="M270.998,240.988h16.082c13.555,0,24.582-11.027,24.582-24.582c0-8.177-4.017-15.429-10.176-19.9
	c1.814-3.087,2.873-6.669,2.873-10.501c0-11.48-9.34-20.82-20.82-20.82h-12.54c-4.142,0-7.5,3.358-7.5,7.5v60.803
	C263.498,237.63,266.856,240.988,270.998,240.988z M287.08,225.988h-8.582v-19.164h5.04h3.542c5.284,0,9.582,4.298,9.582,9.582
	S292.363,225.988,287.08,225.988z M289.358,186.005c0,3.209-2.611,5.82-5.82,5.82h-5.04v-11.64h5.04
	C286.747,180.185,289.358,182.796,289.358,186.005z"/>
<path d="M394.278,75.582c-4.142,0-7.5,3.358-7.5,7.5s3.358,7.5,7.5,7.5h29.304c4.142,0,7.5-3.358,7.5-7.5s-3.358-7.5-7.5-7.5
	H394.278z"/>
<g>
</g>
<g>
</g>
<g>
</g>
<g>
</g>
<g>
</g>
<g>
</g>
<g>
</g>
<g>
</g>
<g>
</g>
<g>
</g>
<g>
</g>
<g>
</g>
<g>
</g>
<g>
</g>
<g>
</g>
</svg>
