<?xml version="1.0" encoding="iso-8859-1"?>
<!-- Generator: Adobe Illustrator 19.0.0, SVG Export Plug-In . SVG Version: 6.00 Build 0)  -->
<svg version="1.1" id="Capa_1" xmlns="http://www.w3.org/2000/svg" xmlns:xlink="http://www.w3.org/1999/xlink" x="0px" y="0px"
	 viewBox="0 0 512 512" style="enable-background:new 0 0 512 512;" xml:space="preserve">
<path style="fill:#D2E3F1;" d="M336.94,338.519v109.813H175.06V338.519h27.036v0.17c0,9.95,2.705,19.282,7.415,27.286
	c9.361,15.928,26.677,26.617,46.488,26.617s37.126-10.689,46.488-26.617c4.711-8.004,7.415-17.336,7.415-27.286v-0.17H336.94z"/>
<g>
	<rect x="175.061" y="419.593" style="fill:#A5C6E3;" width="161.881" height="28.743"/>
	<path style="fill:#A5C6E3;" d="M202.097,338.688c0,9.95,2.705,19.282,7.415,27.286H175.06V338.52h27.036v0.169H202.097z"/>
	<path style="fill:#A5C6E3;" d="M336.94,338.519v27.455h-34.452c4.711-8.004,7.415-17.336,7.415-27.286v-0.17h27.037V338.519z"/>
</g>
<rect x="119.091" y="437.883" style="fill:#D2E3F1;" width="273.822" height="18.258"/>
<rect x="7.5" y="55.864" style="fill:#1E70AD;" width="497.003" height="292.382"/>
<rect x="487.163" y="55.864" style="fill:#0054A0;" width="17.339" height="292.382"/>
<rect x="7.497" y="55.864" style="fill:#D2E3F1;" width="497.003" height="261.902"/>
<g>
	<rect x="487.163" y="55.864" style="fill:#A5C6E3;" width="17.339" height="261.902"/>
	<rect x="7.5" y="55.864" style="fill:#A5C6E3;" width="497.003" height="32.25"/>
</g>
<circle style="fill:#FEC007;" cx="423.572" cy="209.662" r="49.993"/>
<path style="fill:#1E70AD;" d="M150.606,253.616v32.699H50.88v-32.699c0-10.201,3.065-19.692,8.325-27.593
	c8.939-13.422,24.204-22.266,41.54-22.266c7.744,0,15.086,1.77,21.63,4.924c5.081,2.451,9.687,5.734,13.629,9.676
	c2.339,2.334,4.444,4.908,6.276,7.672c0.028,0.045,0.061,0.095,0.089,0.14C147.574,234.041,150.606,243.477,150.606,253.616z"/>
<path style="fill:#FEE6CC;" d="M138.603,149.482l-2.074,24.863l-0.487,5.858c-1.535,18.465-16.973,32.659-35.511,32.659
	c-18.517,0-33.955-14.194-35.5-32.659l-0.975-11.716l-1.711-20.498L138.603,149.482z"/>
<path style="fill:#FCCE99;" d="M138.603,149.482l-2.074,24.863c-9.746-0.425-19.233-2.125-26.49-3.774
	c-0.933,4.168-4.635,7.03-8.782,7.03c-0.487,0-0.975-0.031-1.462-0.114l-3.193-0.518c-14.64-2.395-25.111-5.474-32.545-8.481
	l-1.711-20.498L138.603,149.482z"/>
<path style="fill:#F9A13E;" d="M56.962,150.17c0,0,7.454,8.933,41.646,14.517l2.135-9.492c0,0,23.611,7.817,44.584,6.7V150.17
	c0-20.221-16.392-36.613-36.613-36.613H93.576C73.354,113.557,56.962,129.949,56.962,150.17L56.962,150.17z"/>
<path d="M504.5,48.364H7.5c-4.142,0-7.5,3.358-7.5,7.5v292.379c0,4.142,3.358,7.5,7.5,7.5h160.058v74.635h-48.469
	c-4.142,0-7.5,3.358-7.5,7.5v18.258c0,4.142,3.358,7.5,7.5,7.5H392.91c4.142,0,7.5-3.358,7.5-7.5v-18.258c0-4.142-3.358-7.5-7.5-7.5
	h-48.472v-74.635h59.134c4.142,0,7.5-3.358,7.5-7.5s-3.358-7.5-7.5-7.5h-66.595c-0.013,0-0.026-0.002-0.039-0.002
	s-0.026,0.002-0.039,0.002h-28.013c-0.01,0-0.019,0-0.029,0H203.145c-0.019,0-0.038,0-0.058,0h-27.99
	c-0.013,0-0.026-0.002-0.039-0.002s-0.026,0.002-0.039,0.002H15v-15.48h482v15.481h-65.574c-4.142,0-7.5,3.358-7.5,7.5
	s3.358,7.5,7.5,7.5H504.5c4.142,0,7.5-3.358,7.5-7.5V55.864C512,51.722,508.642,48.364,504.5,48.364z M385.411,448.637H126.59
	v-3.258h48.42c0.016,0,0.032,0.002,0.048,0.002s0.032-0.002,0.048-0.002H336.89c0.016,0,0.032,0.002,0.048,0.002
	s0.032-0.002,0.048-0.002h48.423v3.258H385.411z M329.439,430.379H182.558v-74.635h14.446c7.479,26.038,31.351,44.348,58.994,44.348
	s51.514-18.31,58.994-44.348h14.446V430.379z M212.826,355.744h86.345c-6.855,17.434-23.784,29.348-43.172,29.348
	S219.681,373.178,212.826,355.744z M497,80.607c-39.42-0.039-78.963-0.064-118.501-0.074V63.364H497V80.607z M15,310.262V95.598
	c44.094-0.097,88.366-0.093,131.715,0.016c0.007,0,0.013,0,0.02,0c4.133,0,7.489-3.346,7.5-7.481
	c0.01-4.143-3.339-7.509-7.481-7.519C103.391,80.505,59.107,80.501,15,80.598V63.364h348.499v17.167
	c-62.631-0.009-125.187,0.017-187.089,0.083c-4.142,0.004-7.497,3.366-7.492,7.508c0.004,4.14,3.361,7.492,7.5,7.492
	c0.002,0,0.005,0,0.008,0C282.338,95.502,390.145,95.501,497,95.607v214.655H15z"/>
<path d="M466.209,270.764c-2.929-2.929-7.678-2.929-10.606,0c-1.96,1.959-2.601,4.733-1.939,7.231H207.738V132.241
	c0.631,0.167,1.279,0.258,1.928,0.258c1.919,0,3.839-0.732,5.303-2.197c2.929-2.929,2.929-7.678,0-10.606l-9.428-9.428
	c-1.406-1.407-3.314-2.197-5.303-2.197c-1.989,0-3.897,0.79-5.303,2.197l-9.428,9.428c-2.929,2.929-2.929,7.678,0,10.606
	c1.959,1.96,4.732,2.601,7.231,1.938v153.255c0,4.142,3.358,7.5,7.5,7.5h253.424c-0.663,2.499-0.021,5.271,1.938,7.231
	c1.464,1.465,3.384,2.197,5.303,2.197c1.919,0,3.839-0.732,5.303-2.197l9.428-9.428c1.407-1.406,2.197-3.314,2.197-5.303
	c0-1.989-0.79-3.897-2.197-5.303L466.209,270.764z"/>
<path d="M216.828,266.981c1.464,1.464,3.384,2.197,5.303,2.197s3.839-0.732,5.303-2.197l58.297-58.297h26.399
	c1.989,0,3.897-0.79,5.303-2.197l65.214-65.214c1.298,2.236,3.713,3.743,6.484,3.743c4.142,0,7.5-3.358,7.5-7.5v-13.333
	c0-4.142-3.358-7.5-7.5-7.5h-13.333c-4.142,0-7.5,3.358-7.5,7.5c0,2.771,1.507,5.186,3.743,6.484l-63.018,63.018h-26.399
	c-1.989,0-3.897,0.79-5.303,2.197l-60.494,60.494C213.899,259.303,213.899,264.052,216.828,266.981z"/>
<path d="M366.078,209.661c0,31.702,25.792,57.493,57.494,57.493s57.493-25.792,57.493-57.493c0-31.702-25.792-57.494-57.493-57.494
	C391.869,152.166,366.078,177.959,366.078,209.661z M423.571,167.166c23.431,0,42.493,19.063,42.493,42.494
	s-19.063,42.493-42.493,42.493c-23.431,0-42.494-19.063-42.494-42.493C381.078,186.23,400.14,167.166,423.571,167.166z"/>
<path d="M423.57,223.698c-0.014,0-0.027,0.002-0.04,0.002c-3.983-0.015-6.419-2.12-6.419-3.269c0-4.142-3.358-7.5-7.5-7.5
	c-4.142,0-7.5,3.358-7.5,7.5c0,7.825,5.82,14.498,13.96,17.096v0.055c0,4.142,3.358,7.5,7.5,7.5s7.5-3.358,7.5-7.5v-0.054
	c8.141-2.597,13.963-9.271,13.963-17.097c0-7.376-7.857-11.764-17.805-17.318c-2.77-1.546-6.973-3.894-9.334-5.582
	c1.018-0.963,2.985-1.898,5.635-1.908c0.014,0,0.027,0.002,0.041,0.002c0.016,0,0.031-0.002,0.047-0.002
	c3.98,0.017,6.415,2.12,6.415,3.269c0,4.142,3.358,7.5,7.5,7.5s7.5-3.358,7.5-7.5c0-7.826-5.821-14.5-13.963-17.097v-0.053
	c0-4.142-3.358-7.5-7.5-7.5s-7.5,3.358-7.5,7.5v0.054c-8.14,2.598-13.96,9.27-13.96,17.096c0,7.376,7.857,11.764,17.805,17.318
	c2.77,1.547,6.973,3.894,9.334,5.582c-1.019,0.965-2.988,1.901-5.642,1.909C423.594,223.7,423.582,223.698,423.57,223.698z"/>
<path d="M352.999,220.501h-10.5c-4.142,0-7.5,3.358-7.5,7.5c0,4.142,3.358,7.5,7.5,7.5h10.5c4.142,0,7.5-3.358,7.5-7.5
	C360.499,223.859,357.141,220.501,352.999,220.501z"/>
<path d="M352.999,237.513h-33.285c-4.142,0-7.5,3.358-7.5,7.5s3.358,7.5,7.5,7.5h33.285c4.142,0,7.5-3.358,7.5-7.5
	S357.141,237.513,352.999,237.513z"/>
<path d="M150.608,263.931c-4.142,0-7.5,3.358-7.5,7.5v7.39h-35.072v-59.136c4.13-0.74,8.075-2.073,11.734-3.918
	c4.044,2.036,7.723,4.686,10.947,7.909c1.972,1.964,3.757,4.147,5.303,6.488c0.031,0.048,0.062,0.097,0.093,0.145
	c2.974,4.495,5.036,9.466,6.129,14.775c0.73,3.546,3.854,5.988,7.338,5.988c0.501,0,1.011-0.051,1.521-0.156
	c4.057-0.835,6.668-4.802,5.833-8.859c-1.473-7.151-4.247-13.854-8.244-19.925c-0.063-0.1-0.126-0.197-0.19-0.291
	c-2.099-3.17-4.521-6.129-7.188-8.785c-2.67-2.67-5.582-5.047-8.693-7.128c6.092-6.783,10.097-15.49,10.894-25.102l0.955-11.395
	c0.42-0.016,0.841-0.024,1.26-0.046c3.981-0.212,7.101-3.502,7.101-7.489V150.17c0-24.324-19.789-44.113-44.113-44.113h-15.14
	c-24.324,0-44.113,19.789-44.113,44.113c0,1.756,0.616,3.457,1.742,4.805c0.495,0.593,1.812,1.975,4.52,3.766l1.84,22.082
	c0.809,9.693,4.873,18.468,11.05,25.275c-6.149,4.154-11.461,9.479-15.649,15.765c-6.272,9.42-9.587,20.402-9.587,31.757v32.7
	c0,4.142,3.358,7.5,7.5,7.5h99.731c4.142,0,7.5-3.358,7.5-7.5v-14.89C158.108,267.289,154.75,263.931,150.608,263.931z
	 M93.576,121.057h15.139c16.053,0,29.113,13.06,29.113,29.113v4.269c-17.254-0.67-34.535-6.301-34.728-6.364
	c-2.01-0.666-4.208-0.45-6.051,0.593c-1.843,1.042-3.159,2.816-3.624,4.882l-0.558,2.482c-16.534-3.285-24.707-7.232-28.195-9.373
	C66.412,132.256,78.71,121.057,93.576,121.057z M97.399,172.089c0.409,0.067,0.815,0.099,1.216,0.099c3.449,0,6.53-2.386,7.31-5.855
	l0.392-1.741c5.757,1.485,14.091,3.313,23.145,4.265l-0.899,10.724c-1.198,14.456-13.508,25.779-28.025,25.779
	c-14.509,0-26.82-11.325-28.026-25.783l-1.137-13.642C77.894,168.122,86.388,170.291,97.399,172.089z M58.377,253.621
	c0-8.387,2.446-16.494,7.072-23.441c4.081-6.125,9.597-11.017,16.078-14.309c3.596,1.789,7.462,3.087,11.508,3.813v59.137H58.377
	V253.621z"/>
<g>
</g>
<g>
</g>
<g>
</g>
<g>
</g>
<g>
</g>
<g>
</g>
<g>
</g>
<g>
</g>
<g>
</g>
<g>
</g>
<g>
</g>
<g>
</g>
<g>
</g>
<g>
</g>
<g>
</g>
</svg>
