<?xml version="1.0" encoding="iso-8859-1"?>
<!-- Generator: Adobe Illustrator 19.0.0, SVG Export Plug-In . SVG Version: 6.00 Build 0)  -->
<svg version="1.1" id="Capa_1" xmlns="http://www.w3.org/2000/svg" xmlns:xlink="http://www.w3.org/1999/xlink" x="0px" y="0px"
	 viewBox="0 0 512 512" style="enable-background:new 0 0 512 512;" xml:space="preserve">
<path style="fill:#D2E3F1;" d="M330.966,395.563V497.27H181.034V395.563h25.041v0.157c0,9.216,2.505,17.859,6.868,25.272
	c8.67,14.753,24.708,24.653,43.057,24.653s34.386-9.9,43.057-24.653c4.363-7.413,6.868-16.056,6.868-25.272v-0.157H330.966z"/>
<g>
	<rect x="181.03" y="470.65" style="fill:#A5C6E3;" width="149.93" height="26.622"/>
	<path style="fill:#A5C6E3;" d="M206.075,395.721c0,9.216,2.505,17.859,6.868,25.272h-31.909v-25.429h25.041V395.721z"/>
	<path style="fill:#A5C6E3;" d="M330.966,395.563v25.429h-31.909c4.363-7.413,6.868-16.056,6.868-25.272v-0.157H330.966z"/>
</g>
<rect x="129.19" y="487.59" style="fill:#D2E3F1;" width="253.61" height="16.91"/>
<rect x="25.842" y="133.77" style="fill:#1E70AD;" width="460.32" height="270.8"/>
<rect x="470.1" y="133.77" style="fill:#0054A0;" width="16.06" height="270.8"/>
<rect x="25.84" y="133.77" style="fill:#D2E3F1;" width="460.32" height="242.57"/>
<g>
	<path style="fill:#A5C6E3;" d="M356.55,133.77H155.44c-0.91,5.48-1.37,11.08-1.37,16.75c0,22.76,7.33,44.28,21.21,62.24
		c4.03,5.23,7.59,9.31,10.72,12.91c0.66,0.75,1.29,1.48,1.93,2.22c7.12,8.22,10.14,12.2,11.32,25.5c-1.24,1.02-2.39,2.19-3.4,3.49
		c-4.07,5.26-5.45,11.97-3.78,18.41l0.654,2.529c-1.96,1.834-3.206,4.543-3.206,7.574c0,4.971,3.342,9.083,7.716,9.857l0.5,1.935
		c-1.198,1.686-1.922,3.789-1.922,6.084c0,4.26,2.456,7.887,5.91,9.328l1.013,3.917c-0.826,1.497-1.312,3.24-1.312,5.113
		c0,3.843,1.998,7.175,4.925,8.849l0.741,2.864c4.14,16.02,18.6,27.21,35.15,27.21h27.79c16.55,0,31.01-11.19,35.15-27.21
		l0.741-2.865c2.926-1.675,4.923-5.006,4.923-8.848c0-1.872-0.486-3.615-1.311-5.112l1.014-3.919
		c3.452-1.442,5.907-5.069,5.907-9.327c0-2.294-0.723-4.397-1.92-6.082l0.501-1.937c4.373-0.776,7.714-4.887,7.714-9.857
		c0-3.03-1.245-5.739-3.205-7.573l0.655-2.53c1.67-6.44,0.29-13.15-3.78-18.41c-1.1-1.41-2.35-2.66-3.72-3.74
		c1.19-13.57,4.5-17.36,12.99-27.08c3.38-3.86,7.21-8.25,11.56-13.98c13.77-18.15,20.92-39.82,20.68-62.67
		C357.87,144.13,357.41,138.9,356.55,133.77z"/>
	<rect x="470.1" y="133.77" style="fill:#A5C6E3;" width="16.06" height="242.57"/>
	<rect x="25.84" y="133.77" style="fill:#A5C6E3;" width="460.32" height="27.73"/>
</g>
<path style="fill:#FEC007;" d="M342.929,149.574c0.215,20.087-6.381,38.617-17.626,53.434
	c-15.861,20.916-25.632,23.999-27.645,49.995c-0.265,3.323-0.39,6.663-0.39,10.019v20.568H214.73v-19.358
	c0-3.754-0.149-7.5-0.456-11.229c-1.467-18.273-6.53-25.151-15.008-34.938c-3.464-4.011-7.508-8.502-12.116-14.469
	c-11.345-14.685-18.082-33.098-18.082-53.078c0-27.074,12.372-51.263,31.781-67.208c15.314-12.58,35.004-20.03,56.451-19.715
	C304.221,64.275,342.424,102.644,342.929,149.574z"/>
<g>
	<path style="fill:#FE9700;" d="M287.617,283.588v-28.282c0-3.359,0.13-6.703,0.391-10.026
		c2.012-25.995,11.778-29.078,27.638-49.999c11.249-14.811,17.844-33.342,17.634-53.43c-0.268-24.808-11.068-47.219-28.123-62.934
		c22.542,15.549,37.461,41.442,37.772,70.651c0.21,20.088-6.385,38.626-17.627,53.437c-15.86,20.913-25.633,24.004-27.645,49.999
		c-0.261,3.323-0.391,6.667-0.391,10.019v20.565L287.617,283.588L287.617,283.588z"/>
	<path style="fill:#FE9700;" d="M214.274,253.003h83.383c-0.262,3.322-0.389,6.665-0.389,10.023v20.561h-82.542v-19.353
		C214.726,260.481,214.578,256.735,214.274,253.003z"/>
</g>
<path style="fill:#D2E3F1;" d="M206.589,271.537l15.019,58.043c2.433,9.404,10.918,15.973,20.632,15.973h27.788
	c9.714,0,18.199-6.569,20.633-15.973l15.019-58.043c1.039-4.016-1.993-7.932-6.141-7.932h-86.81
	C208.581,263.605,205.549,267.521,206.589,271.537z"/>
<path d="M486.16,126.27H347.261c-4.213-15.825-12.534-30.381-24.426-42.321c-17.53-17.603-40.767-27.495-65.429-27.855
	c-25.512-0.401-49.544,9.275-67.693,27.164c-12.238,12.061-20.761,26.849-25.021,43.013H103.43c-4.143,0-7.5,3.358-7.5,7.5
	s3.357,7.5,7.5,7.5h58.581c-0.294,3.054-0.446,6.138-0.446,9.248c0,1.165,0.029,2.325,0.07,3.482H33.342v-12.729h42.231
	c4.143,0,7.5-3.358,7.5-7.5s-3.357-7.5-7.5-7.5H25.842c-4.143,0-7.5,3.358-7.5,7.5v27.69c0,0.013-0.002,0.026-0.002,0.039
	s0.002,0.026,0.002,0.039v243.03c0,4.142,3.357,7.5,7.5,7.5H173.53v20c0,4.142,3.357,7.5,7.5,7.5s7.5-3.358,7.5-7.5v-20h12.421
	c7.125,24.141,29.343,41.08,55.049,41.08s47.924-16.939,55.049-41.08h12.421v68.02H188.53v-20.16c0-4.142-3.357-7.5-7.5-7.5
	s-7.5,3.358-7.5,7.5v20.16h-44.336c-4.143,0-7.5,3.358-7.5,7.5v16.91c0,4.142,3.357,7.5,7.5,7.5h253.611c4.143,0,7.5-3.358,7.5-7.5
	v-16.91c0-4.142-3.357-7.5-7.5-7.5H338.47v-68.02h147.688c4.143,0,7.5-3.358,7.5-7.5v-60.144c0-4.142-3.357-7.5-7.5-7.5
	s-7.5,3.358-7.5,7.5v24.413H33.342V169H163.37c2.796,14.185,8.819,27.495,17.84,39.176c3.964,5.135,7.486,9.173,10.594,12.737
	c9.353,10.721,13.621,15.615,14.994,32.701c0.1,1.23,0.161,2.481,0.227,3.73c-2.026,0.916-3.83,2.307-5.241,4.131
	c-2.642,3.412-3.536,7.765-2.455,11.942l1.29,4.987c-2.805,1.086-4.797,3.802-4.797,6.99c0,4.142,3.357,7.5,7.5,7.5h1.046
	l1.004,3.882c-2.245,1.296-3.76,3.716-3.76,6.495c0,4.101,3.293,7.429,7.379,7.494l1.187,4.586
	c-2.049,1.339-3.405,3.649-3.405,6.279c0,3.961,3.072,7.197,6.963,7.473l0.61,2.359c3.29,12.714,14.761,21.594,27.894,21.594h27.787
	c13.133,0,24.604-8.88,27.894-21.594l0.61-2.359c3.891-0.276,6.963-3.512,6.963-7.473c0-2.63-1.356-4.94-3.405-6.279l1.187-4.586
	c4.086-0.065,7.38-3.392,7.38-7.494c0-2.779-1.515-5.199-3.76-6.495l1.005-3.882h1.047c4.143,0,7.5-3.358,7.5-7.5
	c0-3.188-1.992-5.905-4.797-6.99l1.29-4.987c1.081-4.177,0.186-8.53-2.455-11.942c-1.485-1.918-3.406-3.357-5.563-4.266
	c0.058-1.216,0.118-2.431,0.212-3.625c1.31-16.897,5.855-22.099,14.911-32.463c3.298-3.773,7.035-8.05,11.229-13.58
	c8.758-11.539,14.625-24.62,17.369-38.541H478.66v147.57c0,4.142,3.357,7.5,7.5,7.5s7.5-3.358,7.5-7.5v-182.8
	C493.66,129.628,490.303,126.27,486.16,126.27z M375.306,497H136.694v-1.91h238.611V497H375.306z M256,438.15
	c-17.441,0-32.713-10.549-39.167-26.08h78.333C288.712,427.601,273.441,438.15,256,438.15z M478.658,383.839v13.231H33.342v-13.231
	H478.658z M289.769,271.105v4.982h-67.542v-4.982H289.769z M268.777,226.387l-10.484-3.151c-1.408-0.423-2.908-0.423-4.316,0
	l-10.486,3.151v-3.755l12.645-3.799l12.643,3.799v3.755H268.777z M243.49,242.05l12.645-3.799l12.643,3.799v14.056H243.49V242.05z
	 M225.356,314.128l-0.869-3.359h63.294l-0.869,3.359H225.356z M270.027,338.054H242.24c-5.791,0-10.898-3.606-12.909-8.926h53.606
	C280.926,334.448,275.818,338.054,270.027,338.054z M291.662,295.769h-71.056l-0.744-2.876h72.545L291.662,295.769z
	 M319.325,198.474c-3.881,5.118-7.437,9.187-10.574,12.776c-9.798,11.212-16.877,19.314-18.57,41.165
	c-0.096,1.215-0.154,2.455-0.216,3.691h-6.187v-19.667c0-0.023,0-0.046,0-0.069v-19.348c0-0.023,0-0.046,0-0.069v-14.33
	c0-4.142-3.357-7.5-7.5-7.5s-7.5,3.358-7.5,7.5v4.347l-10.484-3.151c-1.408-0.423-2.908-0.423-4.316,0l-10.486,3.151v-4.347
	c0-4.142-3.357-7.5-7.5-7.5s-7.5,3.358-7.5,7.5v14.329c0,0.023,0,0.046,0,0.069v19.349c0,0.023,0,0.046,0,0.069v19.667h-6.494
	c-0.069-1.242-0.148-2.479-0.247-3.703c-1.769-22.008-8.846-30.121-18.641-41.35c-2.97-3.404-6.336-7.263-10.026-12.044
	c-10.805-13.991-16.517-30.759-16.517-48.491c0-5.122,0.494-10.164,1.433-15.082c0.052-0.23,0.093-0.464,0.123-0.701
	c3.083-15.393,10.674-29.511,22.122-40.793c15.267-15.047,35.496-23.118,56.945-22.849c42.686,0.624,77.784,35.865,78.24,78.558
	C335.617,167.463,330.049,184.345,319.325,198.474z M349.966,141.27H370V154h-19.637c0.053-1.498,0.082-3,0.066-4.51
	C350.399,146.73,350.232,143.99,349.966,141.27z M385,154v-12.73h93.66V154H385z"/>
<path d="M278.342,88.642c-3.985-1.14-8.135,1.164-9.274,5.146c-1.141,3.982,1.164,8.134,5.146,9.274
	c26.995,7.728,32.332,35.277,32.557,36.508c0.644,3.633,3.806,6.192,7.376,6.192c0.427,0,0.859-0.037,1.294-0.112
	c4.081-0.71,6.813-4.594,6.104-8.675C321.274,135.43,314.542,99.005,278.342,88.642z"/>
<path d="M356.627,263.5h8.782c4.143,0,7.5-3.358,7.5-7.5s-3.357-7.5-7.5-7.5h-8.782c-4.143,0-7.5,3.358-7.5,7.5
	S352.484,263.5,356.627,263.5z"/>
<path d="M439.854,248.5h-53.009c-4.143,0-7.5,3.358-7.5,7.5s3.357,7.5,7.5,7.5h53.009c4.143,0,7.5-3.358,7.5-7.5
	S443.997,248.5,439.854,248.5z"/>
<path d="M439.854,269.5h-8.781c-4.143,0-7.5,3.358-7.5,7.5s3.357,7.5,7.5,7.5h8.781c4.143,0,7.5-3.358,7.5-7.5
	S443.997,269.5,439.854,269.5z"/>
<path d="M356.627,284.5h53.009c4.143,0,7.5-3.358,7.5-7.5s-3.357-7.5-7.5-7.5h-53.009c-4.143,0-7.5,3.358-7.5,7.5
	S352.484,284.5,356.627,284.5z"/>
<path d="M72.146,263.5h8.781c4.143,0,7.5-3.358,7.5-7.5s-3.357-7.5-7.5-7.5h-8.781c-4.143,0-7.5,3.358-7.5,7.5
	S68.003,263.5,72.146,263.5z"/>
<path d="M155.373,248.5h-53.009c-4.143,0-7.5,3.358-7.5,7.5s3.357,7.5,7.5,7.5h53.009c4.143,0,7.5-3.358,7.5-7.5
	S159.516,248.5,155.373,248.5z"/>
<path d="M155.373,269.5h-8.782c-4.143,0-7.5,3.358-7.5,7.5s3.357,7.5,7.5,7.5h8.782c4.143,0,7.5-3.358,7.5-7.5
	S159.516,269.5,155.373,269.5z"/>
<path d="M72.146,284.5h53.009c4.143,0,7.5-3.358,7.5-7.5s-3.357-7.5-7.5-7.5H72.146c-4.143,0-7.5,3.358-7.5,7.5
	S68.003,284.5,72.146,284.5z"/>
<path d="M255.999,46.1c4.143,0,7.5-3.358,7.5-7.5V7.5c0-4.142-3.357-7.5-7.5-7.5s-7.5,3.358-7.5,7.5v31.1
	C248.499,42.742,251.856,46.1,255.999,46.1z"/>
<path d="M319.22,60.629c1.919,0,3.839-0.732,5.304-2.197l21.991-21.991c2.929-2.929,2.929-7.678,0-10.606
	c-2.93-2.929-7.678-2.929-10.607,0l-21.991,21.991c-2.929,2.929-2.929,7.678,0,10.606C315.381,59.897,317.3,60.629,319.22,60.629z"
	/>
<path d="M187.476,58.433c1.465,1.464,3.385,2.197,5.304,2.197s3.839-0.732,5.304-2.197c2.929-2.929,2.929-7.678,0-10.606
	l-21.991-21.991c-2.93-2.929-7.678-2.929-10.607,0s-2.929,7.678,0,10.606L187.476,58.433z"/>
<g>
</g>
<g>
</g>
<g>
</g>
<g>
</g>
<g>
</g>
<g>
</g>
<g>
</g>
<g>
</g>
<g>
</g>
<g>
</g>
<g>
</g>
<g>
</g>
<g>
</g>
<g>
</g>
<g>
</g>
</svg>
