<?xml version="1.0" encoding="iso-8859-1"?>
<!-- Generator: Adobe Illustrator 19.0.0, SVG Export Plug-In . SVG Version: 6.00 Build 0)  -->
<svg version="1.1" id="Capa_1" xmlns="http://www.w3.org/2000/svg" xmlns:xlink="http://www.w3.org/1999/xlink" x="0px" y="0px"
	 viewBox="0 0 512.001 512.001" style="enable-background:new 0 0 512.001 512.001;" xml:space="preserve">
<rect x="57.929" y="32.476" style="fill:#D2E3F1;" width="304.883" height="472.025"/>
<g>
	<path style="fill:#A5C6E3;" d="M362.809,32.476v166.577c-55.564-1.395-100.33-47.03-100.33-102.92
		c0-24.012,8.265-46.123,22.092-63.658h78.238V32.476z"/>
	<rect x="57.926" y="32.471" style="fill:#A5C6E3;" width="15.288" height="472.025"/>
	<rect x="347.523" y="32.471" style="fill:#A5C6E3;" width="15.288" height="472.025"/>
</g>
<rect x="98.94" y="66.877" style="fill:#FF2796;" width="93.641" height="130.591"/>
<circle style="fill:#FEE6CC;" cx="146.221" cy="137.001" r="19.923"/>
<path style="fill:#1D71B8;" d="M105.684,197.465c0-22.389,18.15-40.539,40.539-40.539s40.539,18.15,40.539,40.539H105.684z"/>
<circle style="fill:#8AE46D;" cx="365.443" cy="96.131" r="88.631"/>
<polygon style="fill:#FFF4EB;" points="422.24,71.177 399.255,48.192 349.35,98.098 326.366,75.114 303.381,98.098 349.35,144.066 
	"/>
<path d="M107.65,234.037h27.232c4.143,0,7.5-3.357,7.5-7.5s-3.357-7.5-7.5-7.5H107.65c-4.143,0-7.5,3.357-7.5,7.5
	S103.507,234.037,107.65,234.037z"/>
<path d="M180.161,246.604c0-4.143-3.357-7.5-7.5-7.5H107.65c-4.143,0-7.5,3.357-7.5,7.5s3.357,7.5,7.5,7.5h65.012
	C176.803,254.104,180.161,250.746,180.161,246.604z"/>
<path d="M167.34,379.471c-4.143,0-7.5,3.357-7.5,7.5s3.357,7.5,7.5,7.5h86.056c4.143,0,7.5-3.357,7.5-7.5s-3.357-7.5-7.5-7.5H167.34
	z"/>
<path d="M320.587,407.037c0-4.143-3.357-7.5-7.5-7.5H107.65c-4.143,0-7.5,3.357-7.5,7.5c0,4.143,3.357,7.5,7.5,7.5h205.438
	C317.23,414.537,320.587,411.18,320.587,407.037z"/>
<path d="M126.3,273.408h-18.65c-4.143,0-7.5,3.357-7.5,7.5s3.357,7.5,7.5,7.5h18.65c4.143,0,7.5-3.357,7.5-7.5
	S130.443,273.408,126.3,273.408z"/>
<path d="M126.3,295.385h-18.65c-4.143,0-7.5,3.357-7.5,7.5s3.357,7.5,7.5,7.5h18.65c4.143,0,7.5-3.357,7.5-7.5
	S130.443,295.385,126.3,295.385z"/>
<path d="M126.3,317.362h-18.65c-4.143,0-7.5,3.357-7.5,7.5s3.357,7.5,7.5,7.5h18.65c4.143,0,7.5-3.357,7.5-7.5
	S130.443,317.362,126.3,317.362z"/>
<path d="M126.3,339.339h-18.65c-4.143,0-7.5,3.357-7.5,7.5s3.357,7.5,7.5,7.5h18.65c4.143,0,7.5-3.357,7.5-7.5
	S130.443,339.339,126.3,339.339z"/>
<path d="M146.776,280.908c0,4.143,3.357,7.5,7.5,7.5h158.812c4.143,0,7.5-3.357,7.5-7.5s-3.357-7.5-7.5-7.5H154.276
	C150.133,273.408,146.776,276.766,146.776,280.908z"/>
<path d="M196.991,295.385h-42.715c-4.143,0-7.5,3.357-7.5,7.5s3.357,7.5,7.5,7.5h42.715c4.143,0,7.5-3.357,7.5-7.5
	S201.133,295.385,196.991,295.385z"/>
<path d="M146.776,324.862c0,4.143,3.357,7.5,7.5,7.5h111.513c4.143,0,7.5-3.357,7.5-7.5s-3.357-7.5-7.5-7.5H154.276
	C150.133,317.362,146.776,320.72,146.776,324.862z"/>
<path d="M305.776,346.839c0-4.143-3.357-7.5-7.5-7.5h-144c-4.143,0-7.5,3.357-7.5,7.5s3.357,7.5,7.5,7.5h144
	C302.419,354.339,305.776,350.982,305.776,346.839z"/>
<path d="M147.925,452.673c0,2.45-1.993,4.444-4.443,4.444c-2.45,0-4.444-1.994-4.444-4.444c0-10.721-8.723-19.443-19.443-19.443
	c-10.722,0-19.444,8.723-19.444,19.443c0,4.143,3.357,7.5,7.5,7.5c4.143,0,7.5-3.357,7.5-7.5c0-2.45,1.994-4.443,4.444-4.443
	s4.443,1.993,4.443,4.443c0,10.722,8.723,19.444,19.444,19.444s19.443-8.723,19.443-19.444c0-4.143-3.357-7.5-7.5-7.5
	C151.282,445.173,147.925,448.53,147.925,452.673z"/>
<path d="M313.566,445.173c-4.143,0-7.5,3.357-7.5,7.5c0,2.45-1.994,4.444-4.444,4.444s-4.444-1.994-4.444-4.444
	c0-10.721-8.723-19.443-19.443-19.443c-10.722,0-19.444,8.723-19.444,19.443c0,4.143,3.357,7.5,7.5,7.5c4.143,0,7.5-3.357,7.5-7.5
	c0-2.45,1.994-4.443,4.444-4.443c2.45,0,4.443,1.993,4.443,4.443c0,10.722,8.723,19.444,19.444,19.444
	c10.721,0,19.444-8.723,19.444-19.444C321.066,448.53,317.709,445.173,313.566,445.173z"/>
<path d="M98.938,111.453c-4.143,0-7.5,3.357-7.5,7.5v78.512c0,4.143,3.357,7.5,7.5,7.5h6.745h81.08h5.812c4.143,0,7.5-3.357,7.5-7.5
	V66.877c0-4.143-3.357-7.5-7.5-7.5H98.938c-4.143,0-7.5,3.357-7.5,7.5V91.1c0,4.143,3.357,7.5,7.5,7.5c4.143,0,7.5-3.357,7.5-7.5
	V74.377h78.637v94.88c-4.573-6.281-10.626-11.416-17.648-14.885c3.885-4.733,6.22-10.783,6.22-17.37
	c0-15.121-12.303-27.424-27.424-27.424S118.8,121.88,118.8,137.001c0,6.586,2.335,12.637,6.22,17.37
	c-7.506,3.708-13.914,9.314-18.581,16.196v-51.616C106.439,114.811,103.082,111.453,98.938,111.453z M133.8,137.002
	c0-6.851,5.573-12.424,12.423-12.424c6.851,0,12.424,5.573,12.424,12.424c0,6.85-5.573,12.423-12.424,12.423
	C139.374,149.425,133.8,143.852,133.8,137.002z M146.223,164.426c15.64,0,28.776,10.922,32.182,25.539h-64.363
	C117.448,175.348,130.584,164.426,146.223,164.426z"/>
<path d="M157.593,97.343c4.143,0,7.5-3.357,7.5-7.5s-3.357-7.5-7.5-7.5h-22.739c-4.143,0-7.5,3.357-7.5,7.5s3.357,7.5,7.5,7.5
	H157.593z"/>
<path d="M220.604,85.876h35.036c4.143,0,7.5-3.357,7.5-7.5c0-4.143-3.357-7.5-7.5-7.5h-35.036c-4.143,0-7.5,3.357-7.5,7.5
	C213.104,82.519,216.461,85.876,220.604,85.876z"/>
<path d="M233.682,192.258c4.143,0,7.5-3.357,7.5-7.5c0-4.143-3.357-7.5-7.5-7.5h-13.078c-4.143,0-7.5,3.357-7.5,7.5
	c0,4.143,3.357,7.5,7.5,7.5H233.682z"/>
<path d="M365.442,0c-24.832,0-47.494,9.465-64.572,24.976H57.928c-4.143,0-7.5,3.357-7.5,7.5v472.025c0,4.143,3.357,7.5,7.5,7.5
	H198.24c4.143,0,7.5-3.357,7.5-7.5c0-4.143-3.357-7.5-7.5-7.5H65.428V39.976h222.039c-11.416,15.808-18.155,35.208-18.155,56.154
	c0,6.848,0.725,13.528,2.093,19.975h-50.803c-4.143,0-7.5,3.357-7.5,7.5c0,4.143,3.357,7.5,7.5,7.5H275.9
	c0.715,1.823,1.487,3.617,2.307,5.384h-57.605c-4.143,0-7.5,3.357-7.5,7.5c0,4.143,3.357,7.5,7.5,7.5h66.294
	c1.303,1.844,2.671,3.639,4.098,5.385h-70.392c-4.143,0-7.5,3.357-7.5,7.5c0,4.143,3.357,7.5,7.5,7.5h85.715
	c13.812,10.805,30.641,17.919,48.993,19.851v305.275H226.09c-4.143,0-7.5,3.357-7.5,7.5c0,4.143,3.357,7.5,7.5,7.5h136.722
	c4.143,0,7.5-3.357,7.5-7.5V192.122c7.08-0.356,14.088-1.473,20.893-3.362c3.991-1.107,6.329-5.241,5.221-9.232
	c-1.107-3.991-5.243-6.329-9.232-5.221c-7.057,1.958-14.374,2.951-21.751,2.951c-44.734,0-81.129-36.394-81.129-81.128
	c0-44.734,36.394-81.13,81.129-81.13s81.129,36.395,81.129,81.13c0,27.287-13.606,52.591-36.396,67.687
	c-3.453,2.287-4.398,6.941-2.111,10.395c2.287,3.454,6.94,4.397,10.395,2.111c26.996-17.881,43.113-47.859,43.113-80.192
	C461.571,43.123,418.448,0,365.442,0z"/>
<path d="M429.74,71.177c0-1.989-0.79-3.896-2.197-5.304l-22.984-22.983c-2.928-2.928-7.677-2.928-10.606,0L349.35,87.491
	l-17.681-17.682c-1.407-1.406-3.314-2.196-5.304-2.196c-1.99,0-3.896,0.79-5.304,2.197l-22.983,22.984
	c-2.929,2.929-2.929,7.677,0,10.606l45.968,45.968c1.465,1.464,3.385,2.196,5.304,2.196c1.919,0,3.839-0.732,5.304-2.196
	l72.89-72.89C428.95,75.073,429.74,73.166,429.74,71.177z M349.35,133.459l-35.361-35.361l12.377-12.378l17.681,17.682
	c2.93,2.928,7.678,2.928,10.607,0L399.255,58.8l12.378,12.377L349.35,133.459z"/>
<g>
</g>
<g>
</g>
<g>
</g>
<g>
</g>
<g>
</g>
<g>
</g>
<g>
</g>
<g>
</g>
<g>
</g>
<g>
</g>
<g>
</g>
<g>
</g>
<g>
</g>
<g>
</g>
<g>
</g>
</svg>
