<?xml version="1.0" encoding="iso-8859-1"?>
<!-- Generator: Adobe Illustrator 19.0.0, SVG Export Plug-In . SVG Version: 6.00 Build 0)  -->
<svg version="1.1" id="Capa_1" xmlns="http://www.w3.org/2000/svg" xmlns:xlink="http://www.w3.org/1999/xlink" x="0px" y="0px"
	 viewBox="0 0 512 512" style="enable-background:new 0 0 512 512;" xml:space="preserve">
<path style="fill:#59309B;" d="M420.305,144.789l-315.54,315.54c-10.98,10.98-40.743-0.967-66.474-26.698
	c-25.732-25.732-37.678-55.495-26.698-66.474l315.54-315.541L420.305,144.789z"/>
<g>
	<path style="fill:#2E136B;" d="M391.337,173.757l-57.67,57.67c-4.005-0.794-8.373-2.072-13.138-3.988
		c-14.796-5.939-30.738-17.014-44.886-31.161c-14.157-14.157-25.222-30.091-31.161-44.886c-1.916-4.765-3.194-9.133-3.988-13.138
		l58.722-58.723l-1.243,19.939c0.061,2.305,1.278,24.203,25.775,48.702c24.885,24.885,48.684,25.774,48.909,25.775L391.337,173.757z
		"/>
	<path style="fill:#2E136B;" d="M420.305,144.789l-315.54,315.54c-5.041,5.041-14.027,5.257-24.773,1.519l328.687-328.687
		L420.305,144.789z"/>
</g>
<ellipse transform="matrix(0.7071 -0.7071 0.7071 0.7071 40.0289 293.0173)" style="fill:#A288CC;" cx="373.718" cy="98.189" rx="28.129" ry="65.885"/>
<g>
	<path style="fill:#FEC007;" d="M310.804,161.116c-31.998-31.998-31.14-62.035-31.14-62.035l-17.777,17.777
		c-10.985,10.985,0.969,40.747,26.698,66.477c25.73,25.73,55.493,37.683,66.477,26.698l17.777-17.777
		C372.839,192.256,342.25,192.562,310.804,161.116z"/>
	<path style="fill:#FEC007;" d="M373.767,224.079c0,0-33.551,82.901-8.534,169.083l-61.436,5.807c0,0,5.475-113.167,57.68-176.533
		L373.767,224.079z"/>
	<path style="fill:#FEC007;" d="M369.685,202.171c0,0,49.537,74.461,134.814,102.406l-29.854,54.009
		c0,0-90.365-68.345-113.248-147.192L369.685,202.171z"/>
</g>
<circle style="fill:#FE9700;" cx="368.691" cy="212.835" r="23.766"/>
<path d="M511.479,301.837c-0.817-2.08-2.521-3.688-4.645-4.383c-48.965-16.043-85.905-47.697-109.171-72.827
	c1.504-3.695,2.295-7.682,2.295-11.792c0-8.352-3.253-16.203-9.158-22.108c-0.982-0.982-2.023-1.884-3.107-2.717l37.901-37.902
	c0.006-0.006,0.012-0.011,0.018-0.017c12.406-12.407,5.786-38.864-16.474-65.835c-2.636-3.197-7.364-3.646-10.558-1.011
	c-3.195,2.636-3.647,7.363-1.011,10.558c18.609,22.549,22.084,41.004,17.444,45.672c-0.002,0.002-0.005,0.004-0.007,0.006
	l-0.014,0.014c-5.968,5.926-30.673-1.523-55.859-26.709c-25.202-25.201-32.645-49.923-26.698-55.87
	c4.772-4.776,23.627-1.11,46.604,18.192c3.172,2.665,7.901,2.253,10.566-0.918c2.665-3.172,2.254-7.902-0.918-10.566
	c-27.216-22.864-53.941-29.861-66.653-17.505c-0.068,0.063-0.14,0.12-0.206,0.186l-47.316,47.315
	c-0.012,0.011-0.022,0.023-0.034,0.034l-17.9,17.899L71.184,296.947c-2.929,2.93-2.929,7.678,0,10.607
	c1.465,1.464,3.385,2.196,5.304,2.196s3.839-0.732,5.304-2.196l125.209-125.21c3.851,16.345,16.457,35.501,31.763,50.809
	c15.305,15.304,34.457,27.915,50.8,31.769L99.469,455.021c-5.95,5.944-30.676-1.499-55.874-26.697
	c-25.199-25.198-32.644-49.924-26.699-55.872l45.199-45.198c2.929-2.93,2.929-7.678,0-10.607c-2.929-2.927-7.677-2.929-10.607,0
	l-45.202,45.2c-16.354,16.369,1.551,51.933,26.701,77.083c18.442,18.442,42.481,32.988,60.448,32.987
	c6.535-0.001,12.27-1.926,16.637-6.288l233.795-233.796c0.244,0.319,0.492,0.636,0.75,0.947
	c-23.903,36.52-36.057,82.907-42.084,116.119c-0.739,4.075,1.966,7.979,6.041,8.719c0.453,0.082,0.903,0.121,1.348,0.121
	c3.556,0,6.714-2.539,7.371-6.162c5.735-31.612,17.183-75.57,39.408-109.871c1.027,0.425,2.071,0.797,3.13,1.107
	c-7.847,28.5-18.724,84.817-4.146,143.713l-43.744,4.137c0.285-3.146,0.68-7.056,1.219-11.578c0.49-4.113-2.446-7.845-6.56-8.335
	c-4.113-0.495-7.845,2.445-8.335,6.56c-1.543,12.95-1.947,20.954-1.964,21.288c-0.106,2.174,0.736,4.286,2.309,5.79
	c1.402,1.34,3.261,2.078,5.183,2.078c0.234,0,0.47-0.011,0.706-0.033l61.438-5.81c2.225-0.211,4.24-1.402,5.497-3.251
	c1.256-1.849,1.623-4.161,0.999-6.308c-15.47-53.277-7.706-105.66-0.288-136.017c34.591,61.139,95.211,107.426,97.979,109.52
	c1.313,0.994,2.905,1.519,4.524,1.519c0.519,0,1.041-0.054,1.558-0.163c2.128-0.452,3.954-1.806,5.007-3.709l29.849-54.009
	C512.145,306.253,512.298,303.916,511.479,301.837z M267.191,122.155l7.287-7.287c3.324,12.858,11.401,31.927,31.022,51.549
	c13.772,13.772,27.463,21.875,38.971,26.644c-3.151,3.854-5.235,8.291-6.267,12.917c-10.95-2.323-27.537-11.169-44.316-27.948
	C268.69,152.832,261.246,128.106,267.191,122.155z M357.19,224.339c-6.343-6.343-6.343-16.664,0-23.005
	c3.171-3.172,7.336-4.757,11.502-4.757c4.166,0,8.331,1.585,11.502,4.757c6.343,6.342,6.343,16.663,0,23.004
	C373.851,230.679,363.532,230.678,357.19,224.339z M348.528,123.391c15.305,15.304,34.457,27.915,50.8,31.769l-26.665,26.666
	c-1.307-0.165-2.632-0.257-3.971-0.257c-2.844,0-5.628,0.386-8.299,1.117c-11.314-3.046-27.596-10.187-44.285-26.876
	c-23.969-23.968-28.097-46.136-28.8-53.771l29.431-29.43c0.697,3.03,1.689,6.2,3.017,9.508
	C325.167,95.589,335.385,110.247,348.528,123.391z M249.375,222.546c-11.745-11.744-20.786-24.621-25.461-36.26
	c-3.685-9.175-4.159-16.689-1.237-19.61c0.015-0.015,0.027-0.031,0.041-0.046l28.803-28.803
	c3.85,16.346,16.456,35.503,31.762,50.811c16.62,16.62,35.378,28.176,50.792,31.776l-28.839,28.839
	C299.27,255.182,274.563,247.734,249.375,222.546z M472.393,347.17c-17.499-14.459-64.575-56.151-90.663-105.918
	c2.436-1.114,4.755-2.559,6.893-4.331c23.208,24.63,58.607,54.569,105.016,71.807L472.393,347.17z"/>
<path d="M187.993,247.904l13.711-13.711c2.929-2.93,2.929-7.678,0-10.607c-2.93-2.928-7.678-2.928-10.607,0l-13.711,13.711
	c-2.929,2.93-2.929,7.678,0,10.607c1.465,1.464,3.385,2.196,5.304,2.196S186.528,249.368,187.993,247.904z"/>
<path d="M218.596,289.114c1.465,1.464,3.385,2.196,5.304,2.196s3.839-0.732,5.304-2.196l13.711-13.711
	c2.929-2.93,2.929-7.678,0-10.607c-2.93-2.928-7.678-2.928-10.607,0l-13.711,13.711
	C215.667,281.436,215.667,286.184,218.596,289.114z"/>
<path d="M197.856,299.247l-13.711,13.711c-2.929,2.93-2.929,7.678,0,10.607c1.465,1.464,3.385,2.196,5.304,2.196
	c1.919,0,3.839-0.732,5.304-2.196l13.711-13.711c2.929-2.93,2.929-7.678,0-10.607C205.534,296.319,200.786,296.319,197.856,299.247z
	"/>
<path d="M113.334,348.509c1.465,1.464,3.385,2.196,5.304,2.196c1.919,0,3.839-0.732,5.304-2.196l96.039-96.039
	c2.929-2.93,2.929-7.678,0-10.607c-2.93-2.928-7.678-2.928-10.607,0l-96.039,96.039C110.405,340.832,110.405,345.58,113.334,348.509
	z"/>
<g>
</g>
<g>
</g>
<g>
</g>
<g>
</g>
<g>
</g>
<g>
</g>
<g>
</g>
<g>
</g>
<g>
</g>
<g>
</g>
<g>
</g>
<g>
</g>
<g>
</g>
<g>
</g>
<g>
</g>
</svg>
