<?xml version="1.0" encoding="iso-8859-1"?>
<!-- Generator: Adobe Illustrator 19.0.0, SVG Export Plug-In . SVG Version: 6.00 Build 0)  -->
<svg version="1.1" id="Capa_1" xmlns="http://www.w3.org/2000/svg" xmlns:xlink="http://www.w3.org/1999/xlink" x="0px" y="0px"
	 viewBox="0 0 512 512" style="enable-background:new 0 0 512 512;" xml:space="preserve">
<path style="fill:#FEC007;" d="M434.109,160.896c0.233,21.688-6.889,41.695-19.031,57.693
	c-17.125,22.583-27.674,25.912-29.848,53.979c-0.286,3.588-0.421,7.194-0.421,10.817v22.207h-89.116v-20.901
	c0-4.053-0.161-8.097-0.492-12.124c-1.584-19.729-7.051-27.155-16.204-37.722c-3.74-4.331-8.106-9.18-13.081-15.622
	c-12.249-15.855-19.523-35.736-19.523-57.308c0-29.231,13.358-55.349,34.313-72.563c16.535-13.582,37.794-21.626,60.95-21.286
	C392.316,68.8,433.563,110.226,434.109,160.896z"/>
<g>
	<path style="fill:#FE9700;" d="M305.303,155.008l-2.908,1.664c-4.116,2.362-8.276,4.536-12.473,6.559
		c-1.727,6.639-4.152,13.171-7.256,19.532c-0.635,1.297-1.279,2.55-1.942,3.776c5.377,7.364,8.258,16.66,7.364,26.636
		c-0.725,8.196-4.035,15.694-9.091,21.671c-3.74-4.331-8.106-9.18-13.081-15.622c-12.249-15.855-19.523-35.736-19.523-57.308
		c0-29.231,13.358-55.349,34.313-72.563c2.389,3.821,4.357,7.856,5.869,12.07c3.481,9.708,5.565,19.47,6.281,29.16
		c2.219,0.564,4.116,1.002,5.583,1.306l3.284,0.689C312.666,134.841,314.993,149.443,305.303,155.008z"/>
	<path style="fill:#FE9700;" d="M374.389,305.59v-30.536c0-3.626,0.141-7.237,0.422-10.825c2.173-28.066,12.716-31.396,29.84-53.983
		c12.146-15.991,19.266-35.999,19.039-57.688c-0.289-26.784-11.95-50.982-30.364-67.95c24.338,16.788,40.446,44.745,40.782,76.281
		c0.227,21.689-6.893,41.705-19.031,57.696c-17.124,22.58-27.675,25.917-29.848,53.983c-0.281,3.587-0.422,7.198-0.422,10.817
		v22.204h-10.418V305.59z"/>
	<path style="fill:#FE9700;" d="M295.201,272.568h90.028c-0.282,3.587-0.42,7.196-0.42,10.821v22.2h-89.12v-20.895
		C295.69,280.642,295.529,276.597,295.201,272.568z"/>
</g>
<path style="fill:#D2E3F1;" d="M286.904,292.578l16.216,62.669c2.627,10.154,11.788,17.246,22.277,17.246h30.002
	c10.488,0,19.65-7.092,22.277-17.246l16.216-62.669c1.122-4.336-2.151-8.564-6.63-8.564h-93.728
	C289.055,284.015,285.782,288.243,286.904,292.578z"/>
<path style="fill:#F9A13E;" d="M270.605,176.875c-10.2,20.919-25.312,32.721-25.312,32.721H112.442c0,0-18.315-8.348-27.961-30.824
	c-6.29-14.656-8.894-35.324-0.331-63.598c21.688-71.633,167.012-72.724,189.792-9.225
	C284.366,135.028,279.239,159.204,270.605,176.875z"/>
<g>
	<path style="fill:#E2780E;" d="M270.605,176.875c-10.2,20.919-25.312,32.721-25.312,32.721h-35.45
		c0-21.617,17.591-39.199,39.207-39.199C257.005,170.398,264.422,172.777,270.605,176.875z"/>
	<path style="fill:#E2780E;" d="M147.882,209.596h-35.441c0,0-18.315-8.348-27.961-30.824c6.666-5.243,15.076-8.375,24.203-8.375
		C130.301,170.398,147.882,187.979,147.882,209.596z"/>
</g>
<path style="fill:#D2E3F1;" d="M266.771,392.789V504.5H91.677V392.789c0-17.908,5.383-34.578,14.619-48.448
	c15.694-23.562,42.501-39.093,72.933-39.093c24.17,0,46.061,9.8,61.906,25.635c4.103,4.102,7.803,8.617,11.016,13.469
	C261.388,358.222,266.771,374.881,266.771,392.789z"/>
<path style="fill:#A5C6E3;" d="M252.152,344.351l-33.363,31.355c-5.058,4.754-12.948,4.678-17.908-0.163l-21.652-21.131
	l-21.652,21.131c-4.96,4.841-12.861,4.917-17.908,0.163l-33.373-31.366c15.694-23.562,42.501-39.093,72.933-39.093
	c24.17,0,46.061,9.8,61.906,25.635C245.238,334.985,248.939,339.5,252.152,344.351z"/>
<path style="fill:#5A9BCC;" d="M241.893,331.658l-31.927,30.002l-30.737-30.002l-30.737,30.002l-31.926-30.002
	c15.89-16.304,38.101-26.421,62.663-26.421c24.176,0,46.066,9.796,61.902,25.645C241.385,331.137,241.639,331.391,241.893,331.658z"
	/>
<g>
	<path style="fill:#FCCE99;" d="M179.226,331.658L179.226,331.658c-10.709,0-19.39-8.681-19.39-19.39v-33.442h38.78v33.442
		C198.616,322.977,189.935,331.658,179.226,331.658z"/>
	<circle style="fill:#FCCE99;" cx="249.046" cy="209.6" r="25.781"/>
	<circle style="fill:#FCCE99;" cx="108.676" cy="209.6" r="25.781"/>
</g>
<path style="fill:#FEE6CC;" d="M249.048,140.801l-3.343,40.059l-4.504,53.929c-2.702,32.418-29.803,57.348-62.34,57.348
	c-32.527,0-59.627-24.93-62.33-57.348l-4.721-56.545l-3.126-37.443H249.048z"/>
<path style="fill:#FCCE99;" d="M249.048,140.801l-3.343,40.059c-10.723,2.019-21.609,3.028-32.635,3.028
	c-36.293,0-65.325-11.038-80.552-18.342c-5.036,4.178-11.938,8.91-20.708,12.698l-3.126-37.443H249.048z"/>
<path style="fill:#F9A13E;" d="M236.024,120.736c21.706,16.413,59.692,24.296,59.692,24.296
	c-87.91,50.477-166.053,0.533-166.053,0.533s-9.998,13.01-29.263,19.657v-44.487L236.024,120.736L236.024,120.736z"/>
<circle style="fill:#FEC007;" cx="340.136" cy="481.09" r="10.289"/>
<path d="M434.253,166.995c-4.113-0.555-7.878,2.339-8.424,6.445c-1.961,14.735-7.747,28.779-16.732,40.618
	c-4.203,5.543-8.049,9.945-11.443,13.829c-10.501,12.018-18.088,20.701-19.896,44.077c-0.12,1.483-0.21,3.007-0.281,4.55h-7.831
	v-25.066c0-0.024,0-0.048,0-0.071v-17.655c0-0.024,0-0.048,0-0.071v-15.479c0-4.143-3.358-7.5-7.5-7.5s-7.5,3.357-7.5,7.5v5.497
	l-12.089-3.633c-1.407-0.424-2.909-0.424-4.316,0l-12.091,3.633v-5.497c0-4.143-3.358-7.5-7.5-7.5s-7.5,3.357-7.5,7.5v15.482
	c0,0.021,0,0.041,0,0.061v17.665c0,0.021,0,0.041,0,0.061v25.073h-8.174c-0.079-1.526-0.172-3.045-0.295-4.546
	c-1.898-23.576-9.489-32.277-19.995-44.32c-1.13-1.295-2.282-2.618-3.47-4.003c1.997-4.271,3.12-9.029,3.12-14.046
	c0-8.639-3.312-16.519-8.731-22.44c5.245-8.983,9.016-18.387,11.252-28.071c4.826-2.23,9.696-4.739,14.596-7.552
	c2.702-1.551,4.163-4.61,3.672-7.687c-0.491-3.075-2.832-5.528-5.882-6.161c-0.119-0.024-4.076-0.862-10.035-2.502
	c-0.325-10.495-2.399-21.153-6.202-31.768c-0.38-1.059-0.792-2.106-1.233-3.14c16.414-16.095,38.647-25.03,61.774-24.719
	c41.767,0.612,77.057,30.994,83.912,72.241c0.61,3.67,3.788,6.272,7.389,6.271c0.409,0,0.823-0.033,1.239-0.103
	c4.086-0.679,6.848-4.542,6.169-8.628c-3.84-23.11-15.787-44.386-33.64-59.908c-18.047-15.69-41.078-24.524-64.849-24.872
	c-0.494-0.008-0.983-0.011-1.476-0.011c-25.378,0-49.755,9.533-68.366,26.514c-7.323-9.406-17.692-17.283-30.736-23.201
	c-17.574-7.974-39.544-12.057-61.86-11.493c-39.042,0.984-89.274,17.456-102.35,60.637c-11.092,36.631-4.273,61.536,4.827,77.005
	c-4.019,5.5-6.399,12.27-6.399,19.589c0,18.351,14.929,33.28,33.28,33.28c0.469,0,0.934-0.034,1.401-0.053
	c2.816,14.682,10.23,28.084,21.349,38.314c6.193,5.698,13.278,10.157,20.903,13.278v7.193
	c-15.174,4.462-29.016,12.666-40.317,23.967c-17.95,17.962-27.835,41.832-27.835,67.212v20.28c0,4.143,3.358,7.5,7.5,7.5
	s7.5-3.357,7.5-7.5v-20.28c0-18.57,6.291-36.175,17.852-50.396l26.316,24.734c1.444,1.358,3.291,2.035,5.136,2.035
	c1.893,0,3.784-0.713,5.239-2.133l17.555-17.136V497H99.181v-56.072c0-4.143-3.358-7.5-7.5-7.5s-7.5,3.357-7.5,7.5V504.5
	c0,4.143,3.358,7.5,7.5,7.5h126.796c4.142,0,7.5-3.357,7.5-7.5s-3.358-7.5-7.5-7.5h-32.196V349.026l18.443,18.004
	c2.874,2.806,7.447,2.85,10.375,0.098l26.211-24.635c11.27,13.93,17.963,31.57,17.963,50.297V497h-12.94c-4.142,0-7.5,3.357-7.5,7.5
	s3.358,7.5,7.5,7.5h20.44c4.142,0,7.5-3.357,7.5-7.5V392.79c0-21.691-7.5-42.906-21.117-59.738
	c-1.808-2.235-3.721-4.374-5.716-6.426c-0.031-0.034-0.057-0.071-0.089-0.104c-0.132-0.141-0.272-0.269-0.412-0.397
	c-11.313-11.469-25.421-19.944-40.824-24.495v-7.513c7.349-3.104,14.182-7.459,20.179-12.976
	c11.119-10.229,18.533-23.632,21.349-38.314c0.466,0.019,0.931,0.053,1.4,0.053c7.821,0,15.014-2.717,20.702-7.247
	c0.561,0.646,1.107,1.271,1.635,1.877c9.884,11.33,14.846,17.017,16.348,35.673c0.12,1.469,0.21,2.956,0.284,4.45
	c-2.259,0.94-4.272,2.44-5.825,4.447c-2.737,3.536-3.665,8.048-2.544,12.377l1.53,5.911c-3.067,0.941-5.297,3.794-5.297,7.17
	c0,4.143,3.358,7.5,7.5,7.5h1.593l1.318,5.094c-2.463,1.229-4.158,3.767-4.158,6.707c0,4.143,3.358,7.5,7.5,7.5h0.334l1.507,5.823
	c-2.25,1.295-3.768,3.717-3.768,6.499c0,4.105,3.298,7.434,7.389,7.494l0.769,2.97c3.484,13.464,15.63,22.867,29.538,22.867h7.501
	v84.861c-6.206,2.781-10.546,9.004-10.546,16.233c0,9.809,7.98,17.789,17.79,17.789s17.79-7.98,17.79-17.789
	c0-7.026-4.105-13.096-10.033-15.985v-85.108h7.501c13.908,0,26.054-9.403,29.538-22.867l0.769-2.97
	c4.09-0.06,7.389-3.389,7.389-7.494c0-2.782-1.518-5.205-3.768-6.5l1.507-5.823h0.335c4.142,0,7.5-3.357,7.5-7.5
	c0-2.94-1.696-5.478-4.159-6.707l1.318-5.094h1.593c4.142,0,7.5-3.357,7.5-7.5c0-3.376-2.23-6.229-5.297-7.17l1.53-5.911
	c1.121-4.33,0.193-8.841-2.545-12.378c-1.63-2.106-3.763-3.662-6.16-4.588c0.065-1.474,0.15-2.927,0.265-4.343
	c1.426-18.439,6.376-24.104,16.238-35.391c3.555-4.067,7.583-8.679,12.099-14.634c10.551-13.901,17.346-30.397,19.65-47.705
	C441.244,171.313,438.359,167.542,434.253,166.995z M261.188,178.623c-2.412-0.948-4.959-1.623-7.605-1.985l0.557-6.674
	c4.242-1.064,8.549-2.321,12.908-3.787C265.453,170.404,263.496,174.557,261.188,178.623z M91.332,117.354
	c10.757-35.523,54.328-49.131,88.371-49.989c35.754-0.876,76.543,11.465,87.18,41.115c2.629,7.339,4.276,14.67,4.975,21.902
	c-10.615-3.759-22.502-8.968-31.311-15.627c-3.305-2.498-8.008-1.845-10.506,1.459s-1.845,8.008,1.459,10.506
	c12.635,9.553,30.032,16.297,43.303,20.467c-29.625,12.896-60.828,16.202-93.011,9.808c-28.958-5.752-47.913-17.635-48.09-17.747
	c-3.256-2.082-7.581-1.319-9.965,1.722c-0.088,0.113-9.072,11.398-25.784,17.165c-3.916,1.351-5.995,5.62-4.644,9.536
	c1.352,3.916,5.621,5.994,9.536,4.644c0.309-0.107,0.606-0.223,0.911-0.332l0.389,4.657c-3.82,0.523-7.434,1.697-10.729,3.406
	C84.65,163.383,83.9,141.896,91.332,117.354z M90.404,209.6c0-8.956,6.479-16.413,14.994-17.968l3.025,36.235
	C98.464,227.725,90.404,219.592,90.404,209.6z M148.39,351.278l-20.854-19.6c7.495-6.351,16.048-11.248,25.263-14.466
	c1.403,7.514,5.937,13.936,12.196,17.856L148.39,351.278z M210.062,351.278l-16.605-16.209c6.253-3.917,10.785-10.331,12.192-17.835
	c9.335,3.281,17.838,8.254,25.188,14.518L210.062,351.278z M191.116,307.22c-0.001,0.039,0,0.078,0,0.118v4.93
	c0,6.556-5.334,11.89-11.89,11.89s-11.89-5.334-11.89-11.89v-13.596c3.784,0.628,7.635,0.968,11.528,0.968
	c4.141,0,8.237-0.376,12.252-1.086V307.22z M178.864,284.64c-28.402,0-52.501-22.171-54.864-50.475l-5.774-69.161
	c5.668-3.504,9.976-7.168,12.886-9.985c8.122,4.314,24.788,12.041,47.123,16.56c9.903,2.004,21.602,3.478,34.6,3.478
	c8.19,0,16.899-0.591,25.993-1.997l-0.88,10.538c-0.001,0.016-0.003,0.031-0.004,0.046l-4.218,50.522
	C231.365,262.469,207.266,284.64,178.864,284.64z M249.306,227.867l3.025-36.235c8.519,1.554,15.003,9.011,15.003,17.968
	C267.334,219.591,259.269,227.724,249.306,227.867z M340.141,483.876c-1.538,0-2.79-1.251-2.79-2.789s1.251-2.79,2.79-2.79
	s2.79,1.252,2.79,2.79S341.679,483.876,340.141,483.876z M377.314,291.515v6.575h-74.12v-6.575H377.314z M340.398,235.05
	l14.248,4.281v2.064l-12.089-3.633c-1.407-0.424-2.909-0.424-4.316,0l-12.091,3.633v-2.064L340.398,235.05z M326.149,257.058
	l14.25-4.282l14.248,4.281v19.457H326.15L326.149,257.058L326.149,257.058z M355.398,364.993h-30.002
	c-6.792,0-12.746-4.417-14.775-10.832h59.552C368.144,360.576,362.19,364.993,355.398,364.993z M374.09,339.161h-67.386
	l-1.248-4.822h69.882L374.09,339.161z M379.22,319.339h-77.645l-1.113-4.301h79.87L379.22,319.339z"/>
<path d="M364.21,95.684c-3.98-1.145-8.134,1.164-9.274,5.146c-1.14,3.982,1.164,8.135,5.146,9.274
	c29.517,8.45,35.329,38.537,35.574,39.885c0.643,3.635,3.805,6.194,7.376,6.194c0.426,0,0.859-0.036,1.294-0.112
	c4.081-0.71,6.813-4.594,6.104-8.674C410.143,145.742,402.94,106.771,364.21,95.684z"/>
<path d="M340.252,48.578c4.142,0,7.5-3.357,7.5-7.5V7.5c0-4.143-3.358-7.5-7.5-7.5s-7.5,3.357-7.5,7.5v33.578
	C332.752,45.221,336.11,48.578,340.252,48.578z"/>
<path d="M408.51,64.266c1.919,0,3.839-0.732,5.303-2.196l23.744-23.743c2.929-2.93,2.929-7.678,0-10.607
	c-2.929-2.928-7.678-2.928-10.606,0l-23.744,23.743c-2.929,2.93-2.929,7.678,0,10.607C404.672,63.533,406.591,64.266,408.51,64.266z
	"/>
<path d="M266.69,62.069c1.464,1.464,3.384,2.196,5.303,2.196s3.839-0.732,5.303-2.196c2.929-2.93,2.929-7.678,0-10.607
	l-23.743-23.743c-2.929-2.928-7.678-2.928-10.606,0c-2.929,2.93-2.929,7.678,0,10.607L266.69,62.069z"/>
<path d="M249.393,418.657c0-4.143-3.358-7.5-7.5-7.5h-34.159c-4.142,0-7.5,3.357-7.5,7.5s3.358,7.5,7.5,7.5h34.159
	C246.035,426.157,249.393,422.8,249.393,418.657z"/>
<path d="M145.582,196.695c-4.142,0-7.5,3.357-7.5,7.5v1.381c0,4.143,3.358,7.5,7.5,7.5s7.5-3.357,7.5-7.5v-1.381
	C153.082,200.053,149.724,196.695,145.582,196.695z"/>
<path d="M211.982,196.695c-4.142,0-7.5,3.357-7.5,7.5v1.381c0,4.143,3.358,7.5,7.5,7.5s7.5-3.357,7.5-7.5v-1.381
	C219.482,200.053,216.124,196.695,211.982,196.695z"/>
<path d="M190.826,240.111c-2.665,2.037-6.647,3.206-10.928,3.206s-8.264-1.169-10.928-3.206c-3.29-2.515-7.997-1.888-10.514,1.402
	c-2.516,3.29-1.888,7.997,1.402,10.514c5.305,4.056,12.421,6.29,20.04,6.29s14.735-2.234,20.04-6.29
	c3.291-2.517,3.918-7.224,1.402-10.514C198.823,238.224,194.116,237.597,190.826,240.111z"/>
<g>
</g>
<g>
</g>
<g>
</g>
<g>
</g>
<g>
</g>
<g>
</g>
<g>
</g>
<g>
</g>
<g>
</g>
<g>
</g>
<g>
</g>
<g>
</g>
<g>
</g>
<g>
</g>
<g>
</g>
</svg>
