<?xml version="1.0" encoding="iso-8859-1"?>
<!-- Generator: Adobe Illustrator 19.0.0, SVG Export Plug-In . SVG Version: 6.00 Build 0)  -->
<svg version="1.1" id="Capa_1" xmlns="http://www.w3.org/2000/svg" xmlns:xlink="http://www.w3.org/1999/xlink" x="0px" y="0px"
	 viewBox="0 0 512 512" style="enable-background:new 0 0 512 512;" xml:space="preserve">
<rect x="26.26" y="36.179" style="fill:#D2E3F1;" width="459.47" height="274.43"/>
<g>
	<rect x="26.26" y="280.069" style="fill:#A5C6E3;" width="459.47" height="30.534"/>
	<path style="fill:#A5C6E3;" d="M434.141,36.176v19.229c0,4.659-3.781,8.441-8.441,8.441H318.792v13.303
		c0,4.659-3.781,8.441-8.441,8.441H201.649c-4.659,0-8.441-3.781-8.441-8.441V63.846H86.3c-4.659,0-8.441-3.781-8.441-8.441V36.176
		H434.141z"/>
</g>
<g>
	<rect x="207.08" y="34.785" style="fill:#5A9BCC;" width="97.84" height="36.936"/>
	<rect x="91.73" y="21.486" style="fill:#5A9BCC;" width="328.54" height="28.488"/>
</g>
<rect x="7.5" y="296.829" style="fill:#1E70AD;" width="497" height="28.488"/>
<rect x="96.53" y="103.389" style="fill:#A288CC;" width="318.95" height="36.28"/>
<path style="fill:#E2780E;" d="M72.731,270.507c0,0-20.634,8.549-28.655,6.475c0,0,9.737,10.839,27.737,11.405
	S81.798,267.203,72.731,270.507z"/>
<g>
	<circle style="fill:#FCCE99;" cx="81.86" cy="328.079" r="15.318"/>
	<circle style="fill:#FCCE99;" cx="165.26" cy="328.079" r="15.318"/>
</g>
<path style="fill:#E8A96B;" d="M81.863,287.199L83.849,311l2.676,32.042c1.606,19.261,17.707,34.073,37.04,34.073
	c19.326,0,35.428-14.812,37.033-34.073l2.805-33.596l1.857-22.247L81.863,287.199L81.863,287.199z"/>
<path style="fill:#F9A13E;" d="M183.061,293.069c-0.488,26.09-20.034,35.01-20.034,35.01l-30.847,15.049
	c-3.54,1.726-7.655,1.847-11.295,0.328l-36.79-15.377c0,0-30.553-23.862-17.023-61.588c5.975-16.662,26.157-25.836,47.944-27.227
	c27.535-1.747,57.626,8.946,64.82,32.708C182.265,280.001,183.182,287,183.061,293.069z"/>
<path style="fill:#59309B;" d="M71.333,490.512h104.03v-62.84c0-28.727-23.288-52.015-52.015-52.015l0,0
	c-28.727,0-52.015,23.288-52.015,52.015C71.333,427.672,71.333,490.512,71.333,490.512z"/>
<path style="fill:#2E136B;" d="M175.36,427.673v62.841h-14.506v-62.841c0-26.269-19.458-47.975-44.755-51.507
	c2.364-0.331,4.787-0.506,7.248-0.506C152.078,375.66,175.36,398.942,175.36,427.673z"/>
<g>
	<circle style="fill:#FCCE99;" cx="224.28" cy="328.079" r="15.318"/>
	<circle style="fill:#FCCE99;" cx="307.68" cy="328.079" r="15.318"/>
</g>
<path style="fill:#E8A96B;" d="M224.285,287.199L226.271,311l2.676,32.042c1.606,19.261,17.707,34.073,37.04,34.073
	c19.326,0,35.428-14.812,37.033-34.073l2.805-33.596l1.857-22.247L224.285,287.199L224.285,287.199z"/>
<path style="fill:#0054A0;" d="M226.518,328.076c0,0-30.555-23.859-17.023-61.585s99.877-37.075,112.765,5.484
	s-16.808,56.101-16.808,56.101l0,0c-23.151,11.295-50.045,12.075-73.812,2.141L226.518,328.076z"/>
<path style="fill:#59309B;" d="M213.755,490.512h104.03v-62.84c0-28.727-23.288-52.015-52.015-52.015l0,0
	c-28.727,0-52.015,23.288-52.015,52.015L213.755,490.512L213.755,490.512z"/>
<path style="fill:#2E136B;" d="M317.782,427.673v62.841h-14.506v-62.841c0-26.269-19.458-47.975-44.755-51.507
	c2.364-0.331,4.787-0.506,7.248-0.506C294.5,375.66,317.782,398.942,317.782,427.673z"/>
<g>
	<circle style="fill:#FCCE99;" cx="366.71" cy="328.079" r="15.318"/>
	<circle style="fill:#FCCE99;" cx="450.11" cy="328.079" r="15.318"/>
</g>
<path style="fill:#E8A96B;" d="M366.707,287.199L368.693,311l2.676,32.042c1.606,19.261,17.707,34.073,37.04,34.073
	c19.326,0,35.428-14.812,37.033-34.073l2.805-33.596l1.857-22.247L366.707,287.199L366.707,287.199z"/>
<path style="fill:#0054A0;" d="M368.94,328.076c0,0-30.555-23.859-17.023-61.585s99.877-37.075,112.765,5.484
	s-16.808,56.101-16.808,56.101l0,0c-23.151,11.295-50.045,12.075-73.812,2.141L368.94,328.076z"/>
<path style="fill:#59309B;" d="M356.177,490.512h104.03v-62.84c0-28.727-23.288-52.015-52.015-52.015l0,0
	c-28.727,0-52.015,23.288-52.015,52.015V490.512z"/>
<path style="fill:#2E136B;" d="M460.204,427.673v62.841h-14.506v-62.841c0-26.269-19.458-47.975-44.755-51.507
	c2.364-0.331,4.787-0.506,7.248-0.506C436.922,375.66,460.204,398.942,460.204,427.673z"/>
<path d="M26.26,193.07c4.142,0,7.5-3.357,7.5-7.5V43.68h50.47v6.295c0,4.143,3.358,7.5,7.5,7.5h107.85V71.72
	c0,4.143,3.358,7.5,7.5,7.5h97.84c4.142,0,7.5-3.357,7.5-7.5V57.475h107.851c4.142,0,7.5-3.357,7.5-7.5V43.68h50.47v31.391
	c0,4.143,3.358,7.5,7.5,7.5s7.5-3.357,7.5-7.5V36.18c0-4.143-3.358-7.5-7.5-7.5h-57.97v-7.193c0-4.143-3.358-7.5-7.5-7.5H91.729
	c-4.142,0-7.5,3.357-7.5,7.5v7.193H26.26c-4.142,0-7.5,3.357-7.5,7.5v149.391C18.76,189.713,22.118,193.07,26.26,193.07z
	 M297.42,64.22h-82.84v-6.745h82.84V64.22z M412.771,28.986v7.184c0,0.003,0,0.006,0,0.01s0,0.006,0,0.01v6.285H305.017
	c-0.033,0-0.064-0.005-0.097-0.005s-0.064,0.004-0.097,0.005h-97.646c-0.033,0-0.064-0.005-0.097-0.005s-0.064,0.004-0.097,0.005
	H99.229v-6.286c0-0.003,0-0.006,0-0.01s0-0.006,0-0.01v-7.184L412.771,28.986L412.771,28.986z"/>
<path d="M504.5,289.33h-11.26v-186.4c0-4.143-3.358-7.5-7.5-7.5s-7.5,3.357-7.5,7.5v186.4h-2.899
	c-0.245-5.814-1.295-12.308-3.482-19.529c-6.781-22.395-31.766-37.385-63.65-38.188c-13.718-0.345-27.237,2.176-38.088,7.1
	c-12.665,5.747-21.401,14.477-25.264,25.245c-3.239,9.031-4.209,17.548-3.683,25.372h-8.255c-0.245-5.814-1.295-12.308-3.482-19.529
	c-6.781-22.395-31.766-37.385-63.65-38.188c-13.72-0.345-27.237,2.176-38.088,7.1c-12.665,5.747-21.401,14.477-25.264,25.245
	c-3.239,9.031-4.209,17.548-3.683,25.372h-8.255c-0.245-5.814-1.295-12.308-3.482-19.529c-6.782-22.395-31.766-37.385-63.651-38.188
	c-13.715-0.342-27.236,2.177-38.088,7.1c-12.665,5.747-21.4,14.477-25.263,25.245c-0.422,1.176-0.797,2.341-1.144,3.5
	c-7.826,2.343-11.825,2.542-12.91,2.262c-3.2-0.832-6.569,0.537-8.287,3.363s-1.383,6.444,0.826,8.906
	c0.529,0.589,3.753,4.026,9.557,7.341H33.76v-75.9c0-4.143-3.358-7.5-7.5-7.5s-7.5,3.357-7.5,7.5v75.9H7.5
	c-4.142,0-7.5,3.357-7.5,7.5v28.479c0,4.143,3.358,7.5,7.5,7.5h52.036c2.075,9.796,10.459,17.286,20.687,18.015
	c2.402,9.686,7.918,18.115,15.529,24.142c-18.956,9.965-31.92,29.845-31.92,52.706v62.84c0,4.143,3.358,7.5,7.5,7.5h104.03
	c4.142,0,7.5-3.357,7.5-7.5v-62.84c0-22.757-12.844-42.562-31.659-52.572c7.696-6.031,13.272-14.509,15.692-24.275
	c10.228-0.729,18.612-8.219,20.687-18.015h14.383c2.075,9.798,10.458,17.289,20.683,18.015c2.397,9.686,7.912,18.115,15.523,24.142
	c-18.954,9.966-31.918,29.844-31.918,52.705v14.401c0,4.143,3.358,7.5,7.5,7.5s7.5-3.357,7.5-7.5v-14.401
	c0-1.6,0.089-3.179,0.255-4.735h88.521c0.165,1.557,0.255,3.136,0.255,4.735v55.34h-89.03v-13.085c0-4.143-3.358-7.5-7.5-7.5
	s-7.5,3.357-7.5,7.5v20.585c0,4.143,3.358,7.5,7.5,7.5h104.03c4.142,0,7.5-3.357,7.5-7.5v-62.84
	c0-22.756-12.843-42.561-31.657-52.571c7.7-6.031,13.276-14.511,15.692-24.277c10.226-0.73,18.609-8.219,20.684-18.015h14.383
	c2.075,9.796,10.459,17.286,20.687,18.015c2.402,9.682,7.919,18.111,15.529,24.139c-18.958,9.964-31.925,29.845-31.925,52.708v62.84
	c0,4.143,3.358,7.5,7.5,7.5h104.029c4.142,0,7.5-3.357,7.5-7.5v-62.84c0-22.755-12.842-42.559-31.654-52.569
	c7.696-6.033,13.273-14.513,15.693-24.278c10.223-0.729,18.603-8.219,20.678-18.015H504.5c4.142,0,7.5-3.357,7.5-7.5v-28.479
	C512,292.687,508.642,289.33,504.5,289.33z M358.977,269.022c4.949-13.796,25.05-23.018,48.855-22.414
	c19.214,0.484,43.751,7.987,49.672,27.54c8.235,27.195-3.174,40.144-9.31,44.883c-0.264,0.172-0.515,0.36-0.755,0.564
	c-1.458,1.046-2.499,1.57-2.678,1.656c-0.059,0.027-0.118,0.055-0.177,0.084c-0.31,0.151-0.622,0.293-0.934,0.44
	c-0.023,0.01-0.045,0.021-0.067,0.032c-20.98,9.89-45.198,10.448-66.629,1.491l-4.082-1.707c-0.384-0.334-0.906-0.805-1.523-1.401
	c-0.136-0.146-0.278-0.285-0.426-0.419c-1.736-1.719-4.094-4.321-6.431-7.727c-0.143-0.267-0.297-0.53-0.476-0.784
	c-0.104-0.147-0.217-0.284-0.329-0.421C357.729,301.628,352.452,287.213,358.977,269.022z M348.443,314.419
	c-0.799,1.068-1.502,2.202-2.102,3.39h-18.294c-0.256-0.508-0.536-1.005-0.83-1.493c1.776-3.33,3.366-7.315,4.425-11.986h12.484
	C345.321,307.937,346.793,311.313,348.443,314.419z M216.554,269.022c4.949-13.796,25.061-23.018,48.855-22.414
	c19.214,0.484,43.751,7.987,49.672,27.54c8.238,27.205-3.182,40.154-9.316,44.888c-0.258,0.169-0.504,0.353-0.738,0.551
	c-1.463,1.051-2.508,1.576-2.687,1.663c-0.059,0.027-0.118,0.055-0.177,0.084c-21.208,10.349-45.858,11.063-67.63,1.963
	l-4.072-1.703c-0.408-0.358-0.99-0.891-1.684-1.574c-0.01-0.01-0.019-0.019-0.029-0.029
	C222.564,313.893,207.129,295.3,216.554,269.022z M206.022,314.421c-0.799,1.068-1.501,2.201-2.1,3.389h-18.293
	c-0.257-0.509-0.537-1.006-0.832-1.495c1.775-3.33,3.365-7.314,4.424-11.984h12.484
	C202.899,307.938,204.371,311.314,206.022,314.421z M122.987,246.608c19.214,0.484,43.751,7.987,49.672,27.54
	c8.242,27.218-3.194,40.166-9.325,44.895c-0.25,0.165-0.489,0.343-0.717,0.536c-1.469,1.057-2.519,1.585-2.7,1.672
	c-0.059,0.027-0.118,0.055-0.177,0.084l-30.849,15.051c-1.604,0.783-3.466,0.837-5.111,0.148l-35.75-14.943
	c-0.378-0.328-0.889-0.79-1.492-1.371c-0.161-0.174-0.33-0.339-0.506-0.497c-1.728-1.716-4.057-4.294-6.368-7.658
	c-0.145-0.274-0.303-0.544-0.486-0.804c-0.11-0.157-0.23-0.302-0.349-0.448c-5.953-9.212-11.215-23.617-4.696-41.791
	C79.081,255.227,99.163,246.004,122.987,246.608z M15,304.33h44.282c1.195,3.607,2.666,6.984,4.317,10.09
	c-0.8,1.068-1.504,2.202-2.104,3.389H15V304.33z M167.862,483.012h-89.03v-55.34c0-1.6,0.089-3.179,0.255-4.735h88.521
	c0.165,1.557,0.255,3.136,0.255,4.735v55.34H167.862z M163.233,407.937H83.461c6.358-12.797,18.688-22.12,33.325-24.292
	c0.009-0.002,0.019-0.002,0.028-0.004c2.133-0.315,4.314-0.484,6.533-0.484C140.808,383.157,155.945,393.267,163.233,407.937z
	 M130.956,368.66c-2.493-0.32-5.029-0.503-7.608-0.503c-2.487,0-4.933,0.171-7.34,0.469c-12.165-3.186-20.957-13.564-22.014-26.212
	l-0.039-0.47c-0.001-0.014-0.002-0.028-0.004-0.042l-0.137-1.636l24.18,10.107c2.62,1.096,5.399,1.641,8.177,1.641
	c3.187,0,6.369-0.718,9.297-2.146l17.76-8.665l-0.059,0.705c-0.001,0.008-0.001,0.015-0.002,0.023l-0.04,0.484
	C152.06,355.133,143.204,365.529,130.956,368.66z M305.656,407.937h-79.772c6.358-12.798,18.69-22.122,33.329-24.292
	c0.007-0.001,0.014-0.001,0.021-0.003c2.134-0.316,4.316-0.484,6.537-0.484C283.231,383.157,298.368,393.267,305.656,407.937z
	 M273.376,368.66c-2.493-0.32-5.028-0.503-7.607-0.503c-2.487,0-4.934,0.171-7.342,0.469c-12.167-3.186-20.955-13.563-22.004-26.212
	l-0.044-0.526c-0.001-0.007-0.001-0.014-0.002-0.021l-0.165-1.97c9.746,3.164,19.858,4.746,29.963,4.746
	c9.988,0,19.967-1.542,29.569-4.613l-0.157,1.877c0,0-0.001,0.011-0.001,0.017l-0.041,0.492
	C294.488,355.133,285.632,365.527,273.376,368.66z M452.707,483.012h-89.029v-55.34c0-1.6,0.089-3.179,0.255-4.735h88.52
	c0.165,1.557,0.255,3.136,0.255,4.735v55.34H452.707z M448.078,407.937h-79.771c6.358-12.798,18.69-22.122,33.33-24.293
	c0.005-0.001,0.01-0.001,0.015-0.002c2.136-0.316,4.318-0.485,6.54-0.485c2.29,0,4.541,0.175,6.739,0.51
	c0.041,0.008,0.083,0.014,0.124,0.021C429.56,385.942,441.764,395.228,448.078,407.937z M415.827,368.664
	c-2.502-0.322-5.047-0.507-7.635-0.507c-2.487,0-4.933,0.171-7.341,0.469c-12.161-3.192-20.95-13.571-22.007-26.212l-0.041-0.495
	l-0.001-0.008l-0.169-2.014c9.747,3.164,19.86,4.747,29.966,4.747c9.99,0,19.972-1.543,29.577-4.615l-0.157,1.879
	c-0.001,0.007-0.001,0.013-0.002,0.02l-0.041,0.486C436.911,355.122,428.065,365.517,415.827,368.664z M497,317.81h-26.53
	c-0.256-0.509-0.535-1.006-0.829-1.495c1.775-3.33,3.365-7.314,4.424-11.985H497V317.81z"/>
<path d="M422.976,103.386c0-4.143-3.358-7.5-7.5-7.5H96.524c-4.142,0-7.5,3.357-7.5,7.5v36.28c0,4.143,3.358,7.5,7.5,7.5h318.951
	c4.142,0,7.5-3.357,7.5-7.5v-36.28H422.976z M407.976,132.166H104.024v-21.28h303.951v21.28H407.976z"/>
<path d="M162.882,165.773H96.524c-4.142,0-7.5,3.357-7.5,7.5s3.358,7.5,7.5,7.5h66.357c4.142,0,7.5-3.357,7.5-7.5
	S167.024,165.773,162.882,165.773z"/>
<path d="M162.882,186.003H96.524c-4.142,0-7.5,3.357-7.5,7.5s3.358,7.5,7.5,7.5h66.357c4.142,0,7.5-3.357,7.5-7.5
	S167.024,186.003,162.882,186.003z"/>
<path d="M162.882,206.231H96.524c-4.142,0-7.5,3.357-7.5,7.5s3.358,7.5,7.5,7.5h66.357c4.142,0,7.5-3.357,7.5-7.5
	S167.024,206.231,162.882,206.231z"/>
<path d="M289.179,165.773h-66.357c-4.142,0-7.5,3.357-7.5,7.5s3.358,7.5,7.5,7.5h66.357c4.142,0,7.5-3.357,7.5-7.5
	S293.321,165.773,289.179,165.773z"/>
<path d="M289.179,186.003h-66.357c-4.142,0-7.5,3.357-7.5,7.5s3.358,7.5,7.5,7.5h66.357c4.142,0,7.5-3.357,7.5-7.5
	S293.321,186.003,289.179,186.003z"/>
<path d="M289.179,206.231h-66.357c-4.142,0-7.5,3.357-7.5,7.5s3.358,7.5,7.5,7.5h66.357c4.142,0,7.5-3.357,7.5-7.5
	S293.321,206.231,289.179,206.231z"/>
<path d="M415.476,165.773h-66.357c-4.142,0-7.5,3.357-7.5,7.5s3.358,7.5,7.5,7.5h66.357c4.142,0,7.5-3.357,7.5-7.5
	S419.618,165.773,415.476,165.773z"/>
<path d="M415.476,186.003h-66.357c-4.142,0-7.5,3.357-7.5,7.5s3.358,7.5,7.5,7.5h66.357c4.142,0,7.5-3.357,7.5-7.5
	S419.618,186.003,415.476,186.003z"/>
<path d="M415.476,206.231h-66.357c-4.142,0-7.5,3.357-7.5,7.5s3.358,7.5,7.5,7.5h66.357c4.142,0,7.5-3.357,7.5-7.5
	S419.618,206.231,415.476,206.231z"/>
<path d="M110.172,397.275c0,4.143,3.358,7.5,7.5,7.5h12.174c4.142,0,7.5-3.357,7.5-7.5s-3.358-7.5-7.5-7.5h-12.174
	C113.53,389.775,110.172,393.133,110.172,397.275z"/>
<path d="M252.594,397.275c0,4.143,3.358,7.5,7.5,7.5h12.174c4.142,0,7.5-3.357,7.5-7.5s-3.358-7.5-7.5-7.5h-12.174
	C255.952,389.775,252.594,393.133,252.594,397.275z"/>
<path d="M414.69,389.775h-12.174c-4.142,0-7.5,3.357-7.5,7.5s3.358,7.5,7.5,7.5h12.174c4.142,0,7.5-3.357,7.5-7.5
	S418.832,389.775,414.69,389.775z"/>
<g>
</g>
<g>
</g>
<g>
</g>
<g>
</g>
<g>
</g>
<g>
</g>
<g>
</g>
<g>
</g>
<g>
</g>
<g>
</g>
<g>
</g>
<g>
</g>
<g>
</g>
<g>
</g>
<g>
</g>
</svg>
