<?xml version="1.0" encoding="iso-8859-1"?>
<!-- Generator: Adobe Illustrator 19.0.0, SVG Export Plug-In . SVG Version: 6.00 Build 0)  -->
<svg version="1.1" id="Capa_1" xmlns="http://www.w3.org/2000/svg" xmlns:xlink="http://www.w3.org/1999/xlink" x="0px" y="0px"
	 viewBox="0 0 512 512" style="enable-background:new 0 0 512 512;" xml:space="preserve">
<rect x="42.648" y="7.544" style="fill:#D2E3F1;" width="320.96" height="496.91"/>
<g>
	<rect x="42.648" y="7.544" style="fill:#A5C6E3;" width="16.09" height="496.91"/>
	<rect x="347.509" y="7.544" style="fill:#A5C6E3;" width="16.09" height="496.91"/>
</g>
<rect x="94.989" y="57.37" style="fill:#FE9700;" width="216.27" height="34.2"/>
<g>
	<polygon style="fill:#F26200;" points="406.586,370.105 425.663,417.372 443.166,370.105 	"/>
	<path style="fill:#F26200;" d="M436.124,101.167h-22.495V76.784c0-6.212,5.036-11.247,11.247-11.247l0,0
		c6.212,0,11.247,5.036,11.247,11.247L436.124,101.167L436.124,101.167z"/>
</g>
<path style="fill:#FEC007;" d="M443.163,100.715v269.386h-36.574V100.715c0-2.795,2.266-5.061,5.061-5.061h26.453
	C440.897,95.655,443.163,97.92,443.163,100.715z"/>
<path style="fill:#FE9700;" d="M443.166,100.72v269.378h-12.493V100.72c0-2.796-2.263-5.07-5.06-5.07h12.493
	C440.892,95.651,443.166,97.924,443.166,100.72z"/>
<rect x="406.589" y="265.7" style="fill:#5A9BCC;" width="36.579" height="104.4"/>
<rect x="430.669" y="265.7" style="fill:#1E70AD;" width="12.492" height="104.4"/>
<rect x="401.059" y="116.33" style="fill:#0054A0;" width="47.628" height="104.4"/>
<rect x="430.669" y="116.33" style="fill:#003A7F;" width="18.02" height="104.4"/>
<path d="M177.764,496.912H50.192V15.088h252.303c4.167,0,7.544-3.377,7.544-7.544S306.662,0,302.495,0H42.648
	c-4.167,0-7.544,3.377-7.544,7.544v496.912c0,4.167,3.377,7.544,7.544,7.544h135.116c4.167,0,7.544-3.377,7.544-7.544
	S181.931,496.912,177.764,496.912z"/>
<path d="M363.604,0h-33.091c-4.167,0-7.544,3.377-7.544,7.544s3.377,7.544,7.544,7.544h25.547v481.823H205.781
	c-4.167,0-7.544,3.377-7.544,7.544s3.377,7.544,7.544,7.544h157.822c4.167,0,7.544-3.377,7.544-7.544V7.544
	C371.148,3.377,367.771,0,363.604,0z"/>
<path d="M87.448,57.365v34.2c0,4.167,3.377,7.544,7.544,7.544h216.267c4.167,0,7.544-3.377,7.544-7.544v-34.2
	c0-4.167-3.377-7.544-7.544-7.544H94.993C90.826,49.821,87.448,53.198,87.448,57.365z M102.537,64.91h201.179v19.112H102.537V64.91z
	"/>
<path d="M242.821,107.631H94.993c-4.167,0-7.544,3.377-7.544,7.544s3.377,7.544,7.544,7.544h147.828
	c4.167,0,7.544-3.377,7.544-7.544C250.365,111.008,246.988,107.631,242.821,107.631z"/>
<path d="M311.26,122.719c4.167,0,7.544-3.377,7.544-7.544s-3.377-7.544-7.544-7.544h-39.268c-4.167,0-7.544,3.377-7.544,7.544
	s3.377,7.544,7.544,7.544H311.26z"/>
<path d="M155.887,139.316c0,4.167,3.377,7.544,7.544,7.544H311.26c4.167,0,7.544-3.377,7.544-7.544s-3.377-7.544-7.544-7.544
	H163.431C159.264,131.772,155.887,135.149,155.887,139.316z"/>
<path d="M94.993,146.861h39.267c4.167,0,7.544-3.377,7.544-7.544c0-4.167-3.377-7.544-7.544-7.544H94.993
	c-4.167,0-7.544,3.377-7.544,7.544C87.448,143.483,90.826,146.861,94.993,146.861z"/>
<path d="M347.975,174.523c0-4.167-3.377-7.544-7.544-7.544H65.822c-4.167,0-7.544,3.377-7.544,7.544s3.377,7.544,7.544,7.544
	h274.609C344.598,182.067,347.975,178.69,347.975,174.523z"/>
<path d="M94.993,219.384h28.668c4.167,0,7.544-3.377,7.544-7.544c0-4.167-3.377-7.544-7.544-7.544H94.993
	c-4.167,0-7.544,3.377-7.544,7.544C87.448,216.007,90.826,219.384,94.993,219.384z"/>
<path d="M94.993,240.509h68.438c4.167,0,7.544-3.377,7.544-7.544c0-4.167-3.377-7.544-7.544-7.544H94.993
	c-4.167,0-7.544,3.377-7.544,7.544C87.448,237.132,90.826,240.509,94.993,240.509z"/>
<path d="M157.831,373.186c-4.167,0-7.544,3.377-7.544,7.544s3.377,7.544,7.544,7.544h90.591c4.167,0,7.544-3.377,7.544-7.544
	s-3.377-7.544-7.544-7.544H157.831z"/>
<path d="M318.804,401.855c0-4.167-3.377-7.544-7.544-7.544H94.993c-4.167,0-7.544,3.377-7.544,7.544s3.377,7.544,7.544,7.544H311.26
	C315.427,409.399,318.804,406.022,318.804,401.855z"/>
<path d="M94.993,276.621h19.634c4.167,0,7.544-3.377,7.544-7.544s-3.377-7.544-7.544-7.544H94.993c-4.167,0-7.544,3.377-7.544,7.544
	S90.826,276.621,94.993,276.621z"/>
<path d="M94.993,299.756h19.634c4.167,0,7.544-3.377,7.544-7.544s-3.377-7.544-7.544-7.544H94.993c-4.167,0-7.544,3.377-7.544,7.544
	S90.826,299.756,94.993,299.756z"/>
<path d="M94.993,322.892h19.634c4.167,0,7.544-3.377,7.544-7.544s-3.377-7.544-7.544-7.544H94.993c-4.167,0-7.544,3.377-7.544,7.544
	S90.826,322.892,94.993,322.892z"/>
<path d="M94.993,346.027h19.634c4.167,0,7.544-3.377,7.544-7.544s-3.377-7.544-7.544-7.544H94.993c-4.167,0-7.544,3.377-7.544,7.544
	S90.826,346.027,94.993,346.027z"/>
<path d="M318.804,269.077c0-4.167-3.377-7.544-7.544-7.544H144.077c-4.167,0-7.544,3.377-7.544,7.544s3.377,7.544,7.544,7.544
	H311.26C315.427,276.621,318.804,273.244,318.804,269.077z"/>
<path d="M144.077,299.756h44.967c4.167,0,7.544-3.377,7.544-7.544s-3.377-7.544-7.544-7.544h-44.967
	c-4.167,0-7.544,3.377-7.544,7.544S139.91,299.756,144.077,299.756z"/>
<path d="M144.077,322.892h117.391c4.167,0,7.544-3.377,7.544-7.544s-3.377-7.544-7.544-7.544H144.077
	c-4.167,0-7.544,3.377-7.544,7.544S139.91,322.892,144.077,322.892z"/>
<path d="M303.213,338.483c0-4.167-3.377-7.544-7.544-7.544H144.077c-4.167,0-7.544,3.377-7.544,7.544s3.377,7.544,7.544,7.544
	h151.591C299.835,346.027,303.213,342.65,303.213,338.483z"/>
<path d="M137.743,449.896c0,2.773-2.256,5.029-5.029,5.029c-2.773,0-5.029-2.256-5.029-5.029c0-11.093-9.025-20.118-20.118-20.118
	s-20.118,9.025-20.118,20.118c0,4.167,3.377,7.544,7.544,7.544s7.544-3.377,7.544-7.544c0-2.773,2.256-5.029,5.029-5.029
	s5.029,2.256,5.029,5.029c0,11.093,9.025,20.118,20.118,20.118s20.118-9.025,20.118-20.118c0-4.167-3.377-7.544-7.544-7.544
	S137.743,445.729,137.743,449.896z"/>
<path d="M261.468,457.44c4.167,0,7.544-3.377,7.544-7.544c0-2.773,2.256-5.029,5.029-5.029c2.773,0,5.029,2.256,5.029,5.029
	c0,11.093,9.025,20.118,20.118,20.118c11.093,0,20.118-9.025,20.118-20.118c0-4.167-3.377-7.544-7.544-7.544
	s-7.544,3.377-7.544,7.544c0,2.773-2.256,5.029-5.029,5.029c-2.773,0-5.029-2.256-5.029-5.029c0-11.093-9.025-20.118-20.118-20.118
	s-20.118,9.025-20.118,20.118C253.924,454.063,257.301,457.44,261.468,457.44z"/>
<path d="M469.35,104.721c-4.167,0-7.544,3.377-7.544,7.544v17.421h-5.572v-13.36c0-3.466-2.34-6.379-5.525-7.263v-8.344
	c0-4.952-2.877-9.233-7.041-11.293V76.78c0-5.029-1.961-9.75-5.496-13.268c-3.543-3.561-8.264-5.522-13.294-5.522
	c-10.362,0-18.791,8.429-18.791,18.79v12.647c-4.164,2.06-7.041,6.341-7.041,11.293v8.343c-3.187,0.883-5.528,3.796-5.528,7.264
	v104.399c0,3.468,2.342,6.381,5.528,7.264v13.765c0,0.033-0.005,0.064-0.005,0.097s0.004,0.065,0.005,0.097v23.656
	c0,0.033-0.005,0.064-0.005,0.097s0.004,0.065,0.005,0.097v104.094c-0.029,1.027,0.159,2.081,0.543,3.035l19.078,47.266
	c1.153,2.857,3.923,4.721,6.995,4.721c0.037,0,0.074,0,0.11-0.001c3.116-0.045,5.884-2.001,6.966-4.923l17.502-47.266
	c0.305-0.828,0.47-1.733,0.47-2.616v-50.306c0-4.167-3.377-7.544-7.544-7.544s-7.544,3.377-7.544,7.544v42.761h-21.486v-89.318
	h21.486v18.533c0,4.167,3.377,7.544,7.544,7.544s7.544-3.377,7.544-7.544v-63.791c3.185-0.884,5.525-3.796,5.525-7.263v-75.951
	h5.572V268.24c0,4.167,3.377,7.544,7.544,7.544s7.544-3.377,7.544-7.544V112.265C476.894,108.098,473.517,104.721,469.35,104.721z
	 M435.621,234.307h-21.486v-6.037h21.486V234.307z M414.135,103.204h21.486v5.579h-21.486V103.204z M441.146,137.581v75.6h-32.539
	v-89.31h32.539v13.009c-0.005,0.117-0.018,0.232-0.018,0.35C441.128,137.349,441.14,137.464,441.146,137.581z M424.879,73.079
	c0.985,0,1.908,0.382,2.625,1.102c0.694,0.691,1.077,1.614,1.077,2.599v11.336h-7.404V76.78
	C421.176,74.739,422.837,73.079,424.879,73.079z M425.36,396.464l-7.592-18.81h14.558L425.36,396.464z M414.135,258.158v-8.762
	h21.486v8.762H414.135z"/>
<g>
</g>
<g>
</g>
<g>
</g>
<g>
</g>
<g>
</g>
<g>
</g>
<g>
</g>
<g>
</g>
<g>
</g>
<g>
</g>
<g>
</g>
<g>
</g>
<g>
</g>
<g>
</g>
<g>
</g>
</svg>
