<?xml version="1.0" encoding="iso-8859-1"?>
<!-- Generator: Adobe Illustrator 19.0.0, SVG Export Plug-In . SVG Version: 6.00 Build 0)  -->
<svg version="1.1" id="Capa_1" xmlns="http://www.w3.org/2000/svg" xmlns:xlink="http://www.w3.org/1999/xlink" x="0px" y="0px"
	 viewBox="0 0 512 512" style="enable-background:new 0 0 512 512;" xml:space="preserve">
<rect x="199.42" y="278.72" style="fill:#FE9700;" width="274.7" height="194.26"/>
<g>
	<path style="fill:#F26200;" d="M263.043,379.65v93.33h-63.62V278.72h1.37c10.66,5.36,20.52,12.45,29.21,21.13
		c5.31,5.31,10.09,11.16,14.21,17.38C256.523,335.72,263.043,357.32,263.043,379.65z"/>
	<path style="fill:#F26200;" d="M474.122,278.722v40.384l-5.812,15.88c-11.975,32.741-43.457,54.747-78.326,54.747h-106.43
		c-34.869,0-66.351-22.006-78.326-54.747l-5.802-15.852v-40.412L474.122,278.722L474.122,278.722z"/>
</g>
<path style="fill:#FEC007;" d="M474.122,278.72l-18.84,51.5c-10.03,27.4-36.11,45.63-65.29,45.63h-106.44
	c-7.16,0-14.13-1.1-20.72-3.16c-20.29-6.33-37-21.79-44.57-42.47l-18.84-51.5H474.122z"/>
<path style="fill:#FE9700;" d="M262.832,372.69c-20.29-6.33-37-21.79-44.57-42.47l-18.84-51.5h1.37
	c10.66,5.36,20.52,12.45,29.21,21.13c5.31,5.31,10.09,11.16,14.21,17.38C255.242,333.79,261.622,352.85,262.832,372.69z"/>
<path style="fill:#F26200;" d="M345.263,358.299h-16.978c-6.245,0-11.308-5.063-11.308-11.308l0,0
	c0-6.245,5.063-11.308,11.308-11.308h16.978c6.245,0,11.308,5.063,11.308,11.308l0,0
	C356.571,353.236,351.508,358.299,345.263,358.299z"/>
<rect x="291.06" y="266.98" style="fill:#FE9700;" width="91.42" height="27.867"/>
<path style="fill:#F9A13E;" d="M252.332,138.333c-11.4,23.38-28.29,36.57-28.29,36.57H75.562c0,0-20.47-9.33-31.25-34.45
	c-7.03-16.38-9.94-39.48-0.37-71.08c24.24-80.06,186.66-81.28,212.12-10.31C267.712,91.563,261.982,118.583,252.332,138.333z"/>
<g>
	<path style="fill:#E2780E;" d="M252.332,138.333c-11.4,23.38-28.29,36.57-28.29,36.57h-39.62c0-24.16,19.66-43.81,43.82-43.81
		C237.132,131.093,245.422,133.753,252.332,138.333z"/>
	<path style="fill:#E2780E;" d="M115.172,174.903h-39.61c0,0-20.47-9.33-31.25-34.45c7.45-5.86,16.85-9.36,27.05-9.36
		C95.522,131.093,115.172,150.743,115.172,174.903z"/>
</g>
<path style="fill:#D2E3F1;" d="M248.047,379.647v124.854H52.354V379.647c0-20.014,6.016-38.646,16.339-54.148
	c17.54-26.334,47.501-43.692,81.513-43.692c27.013,0,51.48,10.953,69.189,28.651c4.585,4.585,8.721,9.631,12.312,15.053
	C242.03,341.013,248.047,359.633,248.047,379.647z"/>
<path style="fill:#A5C6E3;" d="M231.708,325.511l-37.287,35.043c-5.653,5.313-14.471,5.228-20.014-0.182l-24.199-23.617
	l-24.199,23.617c-5.543,5.41-14.374,5.495-20.014,0.182l-37.3-35.056c17.54-26.334,47.501-43.692,81.513-43.692
	c27.013,0,51.48,10.953,69.189,28.651C223.981,315.043,228.117,320.089,231.708,325.511z"/>
<path style="fill:#5A9BCC;" d="M220.243,311.325l-35.683,33.532l-34.353-33.532l-34.353,33.532l-35.682-33.532
	c17.759-18.222,42.583-29.529,70.036-29.529c27.02,0,51.485,10.948,69.184,28.663C219.675,310.742,219.959,311.026,220.243,311.325z
	"/>
<g>
	<path style="fill:#FCCE99;" d="M150.203,311.325L150.203,311.325c-11.969,0-21.671-9.703-21.671-21.671v-37.376h43.342v37.376
		C171.874,301.622,162.171,311.325,150.203,311.325z"/>
	<circle style="fill:#FCCE99;" cx="228.24" cy="174.91" r="28.814"/>
	<circle style="fill:#FCCE99;" cx="71.36" cy="174.91" r="28.814"/>
</g>
<path style="fill:#FEE6CC;" d="M228.239,98.014l-3.736,44.772l-5.034,60.274c-3.02,36.232-33.309,64.095-69.674,64.095
	c-36.354,0-66.642-27.863-69.662-64.095l-5.276-63.197l-3.494-41.848h156.876V98.014z"/>
<path style="fill:#FCCE99;" d="M228.239,98.014l-3.736,44.772c-11.984,2.256-24.151,3.384-36.475,3.384
	c-40.563,0-73.01-12.336-90.028-20.5c-5.628,4.67-13.343,9.959-23.144,14.192l-3.494-41.848H228.239z"/>
<path style="fill:#F9A13E;" d="M213.683,75.589c24.26,18.344,66.715,27.155,66.715,27.155
	C182.145,159.159,94.81,103.34,94.81,103.34s-11.174,14.54-32.706,21.97V75.59L213.683,75.589L213.683,75.589z"/>
<path d="M283.553,465.48h-28.011v-85.83c0-0.532-0.026-1.063-0.034-1.595c8.9,3.48,18.401,5.294,28.045,5.294h106.439
	c32.196,0,61.265-20.315,72.334-50.553l4.296-11.743v79.017c0,4.143,3.357,7.5,7.5,7.5s7.5-3.357,7.5-7.5V278.72
	c0-4.076-3.42-7.5-7.5-7.5h-42.598v-23.46c0-28.181-22.926-51.106-51.106-51.106H293.13c-28.181,0-51.106,22.926-51.106,51.106
	v23.46h-42.601c-4.08,0-7.5,3.423-7.5,7.5v4.218c-4.078-1.766-8.268-3.273-12.549-4.508v-9.65
	c8.326-3.443,16.065-8.333,22.838-14.565c12.475-11.477,20.742-26.566,23.741-43.082c0.761,0.048,1.523,0.087,2.289,0.087
	c20.021,0,36.311-16.288,36.311-36.31c0-9.658-3.795-18.44-9.963-24.953c6.069-10.255,10.393-21.023,12.904-32.126
	c5.501-2.528,11.052-5.376,16.639-8.584c2.701-1.551,4.161-4.608,3.671-7.684s-2.83-5.528-5.879-6.163
	c-0.137-0.029-4.854-1.028-11.907-2.992c-0.286-11.856-2.594-23.899-6.895-35.881c-6.65-18.537-21.878-33.649-44.036-43.703
	C199.563,3.966,175.14-0.575,150.334,0.058C106.991,1.152,51.241,19.393,36.765,67.206c-12.43,41.036-4.618,68.776,5.601,85.862
	c-4.594,6.083-7.323,13.649-7.323,21.842c0,20.021,16.293,36.31,36.32,36.31c0.763,0,1.522-0.04,2.28-0.087
	c3.001,16.516,11.267,31.605,23.742,43.082c6.993,6.434,15.011,11.445,23.646,14.902v9.297c-15.56,4.477-29.985,12.55-42.009,23.579
	c-1.39,1.275-2.731,2.592-4.044,3.932c-0.091,0.088-0.186,0.17-0.274,0.264c-0.072,0.076-0.133,0.159-0.201,0.237
	c-16.674,17.229-26.987,39.522-29.189,63.457c-0.379,4.125,2.657,7.776,6.781,8.156c0.234,0.021,0.466,0.032,0.696,0.032
	c3.832,0,7.102-2.923,7.46-6.813c1.673-18.188,8.804-35.281,20.363-49.221l30.098,28.289c1.445,1.358,3.291,2.035,5.137,2.035
	c1.893,0,3.783-0.713,5.239-2.133l21.118-20.616V497H59.862v-98.57c0-4.143-3.357-7.5-7.5-7.5s-7.5,3.357-7.5,7.5V504.5
	c0,4.143,3.357,7.5,7.5,7.5h195.68c4.143,0,7.5-3.357,7.5-7.5v-24.02h28.011c4.143,0,7.5-3.357,7.5-7.5
	S287.695,465.48,283.553,465.48z M257.023,247.76c0-19.909,16.197-36.106,36.106-36.106h87.288
	c19.909,0,36.106,16.197,36.106,36.106v23.46h-26.542v-4.244c0-4.143-3.357-7.5-7.5-7.5h-91.418c-4.143,0-7.5,3.357-7.5,7.5v4.244
	h-26.541v-23.46H257.023z M374.982,287.343h-76.418v-12.867h76.418V287.343z M283.565,286.22v8.623c0,4.143,3.357,7.5,7.5,7.5
	h91.418c4.143,0,7.5-3.357,7.5-7.5v-8.623h73.41l-15.153,41.422c-8.913,24.349-32.321,40.708-58.247,40.708h-106.44
	c-10.42,0-20.635-2.628-29.749-7.609c-3.157-17.244-10.57-33.586-21.662-47.3c-1.997-2.469-4.109-4.831-6.312-7.099
	c-0.045-0.05-0.083-0.104-0.13-0.153c-0.18-0.192-0.368-0.371-0.563-0.539c-3.62-3.659-7.488-7.05-11.583-10.132l-3.402-9.297
	h73.413V286.22z M179.044,294.037c11.241,3.802,21.437,9.774,30.155,17.369l-24.544,23.069l-19.984-19.508
	C172.238,310.626,177.688,302.996,179.044,294.037z M228.242,196.22c-0.225,0-0.449-0.019-0.674-0.026l3.539-42.389
	c10.397,1.408,18.445,10.323,18.445,21.104C249.553,186.66,239.993,196.22,228.242,196.22z M242.221,141.393
	c-3.095-1.296-6.407-2.171-9.864-2.563l0.745-8.926c5.493-1.358,11.085-3.007,16.754-4.975
	C247.869,130.541,245.316,136.039,242.221,141.393z M51.12,71.554c12.158-40.155,61.248-55.532,99.592-56.5
	c40.27-1.015,86.253,12.98,98.291,46.539c3.132,8.727,5.035,17.45,5.732,26.051c-12.263-4.261-26.264-10.276-36.529-18.037
	c-3.305-2.499-8.009-1.845-10.506,1.459c-2.498,3.304-1.845,8.008,1.459,10.506c14.753,11.155,35.377,18.866,50.374,23.433
	c-0.391,0.176-0.783,0.343-1.175,0.516c-0.302,0.111-0.596,0.239-0.88,0.386c-33.327,14.536-68.433,18.267-104.65,11.056
	c-32.508-6.47-53.779-19.815-53.981-19.943c-3.259-2.082-7.585-1.32-9.967,1.725c-0.101,0.129-10.274,12.937-29.224,19.476
	c-3.916,1.352-5.995,5.621-4.644,9.536c1.351,3.915,5.62,5.996,9.536,4.644c0.71-0.245,1.399-0.504,2.089-0.763l0.6,7.194
	c-4.778,0.543-9.278,2.011-13.313,4.229C43.628,124.124,42.627,99.595,51.12,71.554z M50.042,174.91
	c0-10.779,8.049-19.693,18.447-21.103l3.538,42.388c-0.222,0.007-0.442,0.025-0.665,0.025
	C59.606,196.22,50.042,186.66,50.042,174.91z M87.6,202.435l-6.498-77.844c6.809-4.151,11.892-8.534,15.175-11.769
	c8.792,4.725,27.587,13.584,52.994,18.725c11.018,2.229,24.031,3.868,38.493,3.868c9.445,0,19.507-0.704,30.027-2.395l-5.795,69.415
	c-2.679,32.088-29.999,57.223-62.198,57.223C117.6,259.658,90.279,234.523,87.6,202.435z M149.798,274.658
	c4.933,0,9.809-0.47,14.576-1.38v10.771c-0.001,0.03,0,0.061,0,0.091v5.515c0,7.813-6.357,14.171-14.172,14.171
	c-7.813,0-14.171-6.357-14.171-14.171v-5.534c0-0.021,0-0.041,0-0.061v-10.64C140.541,274.231,145.144,274.658,149.798,274.658z
	 M115.75,334.475l-24.639-23.159c8.892-7.696,19.188-13.575,30.248-17.3c1.351,8.968,6.802,16.606,14.375,20.951L115.75,334.475z
	 M240.542,497h-83.336V328.643l22.111,21.585c2.876,2.807,7.448,2.849,10.376,0.098l29.973-28.171
	c13.08,15.833,20.876,36.028,20.876,57.497L240.542,497L240.542,497z"/>
<path d="M474.123,420.427c-4.143,0-7.5,3.357-7.5,7.5v37.556H311.409c-4.143,0-7.5,3.357-7.5,7.5s3.357,7.5,7.5,7.5h162.714
	c4.143,0,7.5-3.357,7.5-7.5v-45.056C481.623,423.784,478.266,420.427,474.123,420.427z"/>
<path d="M328.284,365.799h16.979c10.371,0,18.809-8.438,18.809-18.809c0-10.37-8.438-18.808-18.809-18.808h-16.979
	c-10.37,0-18.808,8.438-18.808,18.808C309.477,357.361,317.914,365.799,328.284,365.799z M328.284,343.182h16.979
	c2.1,0,3.809,1.708,3.809,3.808s-1.709,3.809-3.809,3.809h-16.979c-2.1,0-3.808-1.709-3.808-3.809S326.185,343.182,328.284,343.182z
	"/>
<path d="M220.242,401.059h-38.177c-4.143,0-7.5,3.357-7.5,7.5s3.357,7.5,7.5,7.5h38.177c4.143,0,7.5-3.357,7.5-7.5
	S224.385,401.059,220.242,401.059z"/>
<path d="M112.601,161.367c-4.143,0-7.5,3.357-7.5,7.5v1.543c0,4.143,3.357,7.5,7.5,7.5s7.5-3.357,7.5-7.5v-1.543
	C120.101,164.724,116.743,161.367,112.601,161.367z"/>
<path d="M186.812,177.91c4.143,0,7.5-3.357,7.5-7.5v-1.543c0-4.143-3.357-7.5-7.5-7.5s-7.5,3.357-7.5,7.5v1.543
	C179.312,174.553,182.669,177.91,186.812,177.91z"/>
<path d="M172.815,221.625c3.291-2.517,3.918-7.224,1.402-10.514c-2.517-3.29-7.224-3.918-10.514-1.402
	c-3.129,2.393-7.775,3.765-12.75,3.765c-4.974,0-9.621-1.372-12.75-3.765c-3.293-2.518-7.997-1.888-10.514,1.402
	c-2.516,3.291-1.888,7.998,1.402,10.514c5.776,4.416,13.54,6.849,21.861,6.849C159.275,228.473,167.039,226.041,172.815,221.625z"/>
<g>
</g>
<g>
</g>
<g>
</g>
<g>
</g>
<g>
</g>
<g>
</g>
<g>
</g>
<g>
</g>
<g>
</g>
<g>
</g>
<g>
</g>
<g>
</g>
<g>
</g>
<g>
</g>
<g>
</g>
</svg>
