<?xml version="1.0" encoding="iso-8859-1"?>
<!-- Generator: Adobe Illustrator 19.0.0, SVG Export Plug-In . SVG Version: 6.00 Build 0)  -->
<svg version="1.1" id="Capa_1" xmlns="http://www.w3.org/2000/svg" xmlns:xlink="http://www.w3.org/1999/xlink" x="0px" y="0px"
	 viewBox="0 0 512.002 512.002" style="enable-background:new 0 0 512.002 512.002;" xml:space="preserve">
<path style="fill:#59309B;" d="M265.834,182.209l-21.762,7.048c0.46,9.159-0.282,18.224-2.14,26.998l20.373,10.398
	c2.815,1.436,3.932,4.889,2.496,7.704l-19.838,38.879c-1.445,2.815-4.889,3.932-7.714,2.496l-20.373-10.407
	c-6.015,6.653-12.913,12.575-20.598,17.577l7.048,21.762c0.976,3.012-0.676,6.241-3.679,7.217l-25.403,8.23l-16.122,5.227
	c-3.003,0.976-6.24-0.676-7.207-3.688l-7.057-21.762c-9.159,0.46-18.224-0.281-26.998-2.139l-10.398,20.373
	c-1.436,2.815-4.889,3.932-7.704,2.496l-38.879-19.838c-2.815-1.445-3.932-4.889-2.496-7.714l10.407-20.373
	c-6.653-6.015-12.575-12.922-17.577-20.608l-21.762,7.057c-3.012,0.976-6.24-0.676-7.216-3.688L7.775,213.937
	c-0.976-3.003,0.676-6.241,3.688-7.216l21.762-7.048c-0.46-9.159,0.282-18.224,2.14-26.998l-20.373-10.398
	c-2.815-1.436-3.932-4.889-2.496-7.704l19.838-38.879c1.445-2.815,4.889-3.932,7.714-2.496l20.373,10.407
	c6.015-6.653,12.922-12.575,20.608-17.577l-7.057-21.762c-0.976-3.012,0.676-6.241,3.688-7.217l41.516-13.457
	c3.003-0.976,6.241,0.676,7.216,3.688l7.048,21.762c9.159-0.46,18.224,0.282,26.998,2.14l10.398-20.373
	c1.436-2.815,4.889-3.932,7.704-2.496l38.879,19.838c2.815,1.445,3.932,4.889,2.496,7.714l-10.407,20.373
	c6.653,6.015,12.575,12.922,17.577,20.608l21.762-7.057c3.012-0.976,6.24,0.676,7.216,3.688l3.36,10.37l10.097,31.146
	C270.498,177.996,268.847,181.233,265.834,182.209z"/>
<g>
	<path style="fill:#2E136B;" d="M265.834,182.209l-21.762,7.048c0.46,9.159-0.282,18.224-2.14,26.998l20.373,10.398
		c2.815,1.436,3.932,4.889,2.496,7.704l-19.838,38.879c-1.445,2.815-4.889,3.932-7.714,2.496l-20.373-10.407
		c-6.015,6.653-12.913,12.575-20.598,17.577l7.048,21.762c0.976,3.012-0.676,6.241-3.679,7.217l-25.403,8.23
		c-0.16-1.042-0.244-2.102-0.244-3.181v-52.909c0-11.589,9.431-21.021,21.021-21.021h17.389c1.642-4.636,3.519-9.178,5.64-13.617
		l-12.293-12.293c-8.202-8.202-8.202-21.537,0-29.729l37.415-37.415c3.97-3.97,9.243-6.156,14.865-6.156
		c0.469,0,0.929,0.019,1.389,0.056l10.097,31.146C270.498,177.996,268.847,181.233,265.834,182.209z"/>
	<path style="fill:#2E136B;" d="M157.838,253.674c-32.648,10.581-67.818-7.372-78.399-40.019s7.371-67.818,40.019-78.399
		c32.647-10.581,67.818,7.372,78.399,40.019C208.439,207.923,190.486,243.093,157.838,253.674z"/>
</g>
<circle style="fill:#A288CC;" cx="138.651" cy="194.464" r="47.836"/>
<path style="fill:#59309B;" d="M476.867,197.312l-37.413-37.413c-2.712-2.712-7.11-2.712-9.823,0l-19.611,19.611
	c-9.637-5.543-19.838-9.736-30.332-12.563v-27.735c0-3.836-3.11-6.946-6.946-6.946H319.83c-3.836,0-6.946,3.11-6.946,6.946v27.735
	c-10.494,2.827-20.695,7.02-30.332,12.563l-19.611-19.611c-2.712-2.712-7.11-2.712-9.823,0l-37.413,37.413
	c-2.712,2.712-2.712,7.11,0,9.823l19.611,19.611c-5.543,9.637-9.736,19.838-12.563,30.332h-27.735c-3.836,0-6.946,3.11-6.946,6.946
	v52.911c0,3.836,3.11,6.946,6.946,6.946h27.735c2.827,10.494,7.02,20.695,12.563,30.332l-19.611,19.611
	c-2.712,2.712-2.712,7.11,0,9.823l37.413,37.413c2.712,2.712,7.11,2.712,9.823,0l19.611-19.611
	c9.637,5.543,19.838,9.736,30.332,12.563v27.735c0,3.836,3.11,6.946,6.946,6.946h52.911c3.836,0,6.946-3.11,6.946-6.946v-27.735
	c10.494-2.827,20.695-7.02,30.332-12.563l19.611,19.611c2.712,2.712,7.11,2.712,9.823,0l37.413-37.413
	c2.712-2.712,2.712-7.11,0-9.823l-19.611-19.611c5.543-9.637,9.736-19.838,12.563-30.332h27.735c3.836,0,6.946-3.11,6.946-6.946
	v-52.911c0-3.836-3.11-6.946-6.946-6.946h-27.735c-2.827-10.494-7.02-20.695-12.563-30.332l19.611-19.611
	C479.579,204.422,479.579,200.024,476.867,197.312z"/>
<path style="fill:#2E136B;" d="M398.98,343.172c-29.055,29.055-76.332,29.055-105.387,0c-29.055-29.055-29.055-76.332,0-105.387
	c29.055-29.055,76.332-29.055,105.387,0C428.036,266.84,428.036,314.116,398.98,343.172z"/>
<circle style="fill:#A288CC;" cx="346.284" cy="290.475" r="57.994"/>
<path d="M113.49,243.751c7.907,4.036,16.472,6.078,25.099,6.078c5.738,0,11.503-0.903,17.12-2.724
	c29.025-9.407,44.987-40.675,35.579-69.701c-4.557-14.061-14.317-25.505-27.481-32.225c-13.166-6.721-28.159-7.912-42.22-3.354
	c-8.021,2.601-15.156,6.858-21.206,12.656c-2.991,2.866-3.092,7.613-0.226,10.604c2.866,2.99,7.614,3.091,10.604,0.226
	c4.403-4.22,9.603-7.32,15.453-9.217c10.25-3.321,21.178-2.454,30.774,2.444c9.596,4.898,16.71,13.241,20.032,23.49
	c6.857,21.157-4.777,43.949-25.935,50.807c-10.248,3.322-21.177,2.454-30.774-2.444c-9.596-4.898-16.71-13.241-20.032-23.49
	c-2.229-6.879-2.57-14.23-0.985-21.26c0.911-4.041-1.626-8.055-5.667-8.966c-4.041-0.908-8.055,1.626-8.966,5.667
	c-2.177,9.654-1.71,19.745,1.349,29.184C90.566,225.586,100.326,237.03,113.49,243.751z"/>
<path d="M160.004,260.357c-17.601,5.705-36.369,4.213-52.849-4.198c-16.479-8.411-28.696-22.737-34.4-40.338
	c-1.278-3.94-5.507-6.101-9.447-4.822c-3.94,1.277-6.099,5.507-4.822,9.447c6.94,21.412,21.802,38.84,41.85,49.074
	c12.04,6.146,25.083,9.255,38.221,9.255c8.738,0,17.519-1.376,26.071-4.147c3.94-1.277,6.099-5.507,4.822-9.447
	C168.175,261.24,163.943,259.079,160.004,260.357z"/>
<path d="M117.293,128.572c36.333-11.775,75.473,8.204,87.249,44.537c1.028,3.172,3.969,5.189,7.133,5.189
	c0.766,0,1.546-0.118,2.314-0.367c3.94-1.277,6.099-5.507,4.822-9.447c-14.326-44.201-61.941-68.507-106.143-54.182
	c-3.94,1.277-6.099,5.507-4.822,9.447C109.123,127.689,113.349,129.85,117.293,128.572z"/>
<path d="M442.353,407.551l-7.811,7.812l-19.219-19.219c-2.399-2.397-6.105-2.887-9.043-1.198
	c-8.97,5.159-18.573,9.137-28.544,11.822c-3.273,0.883-5.549,3.852-5.549,7.242v27.18h-51.802v-27.18
	c0-3.391-2.275-6.359-5.549-7.242c-9.971-2.686-19.574-6.663-28.544-11.822c-2.938-1.688-6.646-1.199-9.043,1.198l-19.218,19.219
	l-36.627-36.63l19.218-19.22c2.397-2.396,2.888-6.104,1.198-9.042c-5.159-8.969-9.136-18.572-11.822-28.543
	c-0.882-3.273-3.851-5.549-7.242-5.549h-27.18v-0.754c0-0.043,0.001-0.085,0-0.128v-50.921h27.18c3.391,0,6.36-2.275,7.242-5.549
	c2.686-9.971,6.664-19.574,11.822-28.543c1.69-2.938,1.199-6.646-1.198-9.042l-19.218-19.22l36.629-36.629l19.218,19.219
	c2.397,2.396,6.104,2.89,9.043,1.198c8.969-5.158,18.572-9.137,28.544-11.822c3.273-0.883,5.549-3.852,5.549-7.242v-27.18h15.185
	c4.143,0,7.5-3.357,7.5-7.5s-3.357-7.5-7.5-7.5h-15.739c-7.965,0-14.445,6.48-14.445,14.445v22.116
	c-7.404,2.341-14.602,5.322-21.5,8.906l-11.869-11.869l-8.819-27.218c-1.094-3.358-3.428-6.091-6.572-7.695
	c-3.151-1.606-6.738-1.891-10.09-0.797l-16.443,5.327c-3.438-4.731-7.235-9.186-11.354-13.314l7.857-15.397
	c1.608-3.148,1.893-6.734,0.802-10.097c-1.09-3.361-3.424-6.097-6.572-7.703l-38.87-19.841c-6.498-3.318-14.481-0.729-17.801,5.771
	l-7.857,15.398c-5.771-0.917-11.605-1.382-17.443-1.391l-5.33-16.429c-2.237-6.938-9.703-10.765-16.662-8.524l-41.53,13.464
	c-6.938,2.26-10.747,9.739-8.492,16.662l5.326,16.441c-4.726,3.433-9.179,7.23-13.313,11.354l-15.396-7.855
	c-3.149-1.609-6.735-1.896-10.098-0.803c-3.36,1.09-6.096,3.424-7.704,6.572L5.815,151.158c-3.318,6.496-0.73,14.48,5.769,17.801
	l15.393,7.858c-0.913,5.774-1.375,11.608-1.384,17.44l-16.451,5.33c-6.922,2.254-10.738,9.724-8.502,16.664l13.456,41.507
	c1.084,3.365,3.417,6.104,6.569,7.714c3.155,1.612,6.747,1.896,10.101,0.801l16.443-5.327c3.438,4.731,7.235,9.186,11.354,13.314
	l-7.857,15.397c-1.608,3.148-1.893,6.734-0.803,10.097c1.09,3.36,3.423,6.097,6.572,7.704l38.87,19.841
	c3.153,1.608,6.744,1.892,10.108,0.797c3.361-1.095,6.093-3.434,7.681-6.565l7.867-15.4c5.771,0.915,11.604,1.38,17.443,1.389
	l5.33,16.452c1.818,5.584,7.019,9.141,12.589,9.141c1.35,0,2.722-0.209,4.073-0.648l22.692-7.349
	c2.608,3.778,6.963,6.262,11.891,6.262h22.117c2.341,7.404,5.321,14.601,8.905,21.5l-15.638,15.639
	c-2.729,2.729-4.231,6.355-4.231,10.215c0,3.857,1.502,7.485,4.231,10.215l37.413,37.413c5.633,5.632,14.795,5.631,20.429,0
	l15.639-15.64c6.899,3.584,14.096,6.565,21.5,8.906v22.116c0,7.965,6.48,14.445,14.445,14.445h52.911
	c7.965,0,14.445-6.48,14.445-14.445V419.63c7.404-2.341,14.601-5.322,21.5-8.906l15.64,15.641c5.633,5.629,14.797,5.63,20.43-0.001
	l8.203-8.203c2.929-2.93,2.929-7.678,0-10.607C450.031,404.623,445.283,404.623,442.353,407.551z M157.493,317.652l-6.503-20.073
	c-1.045-3.227-4.138-5.358-7.511-5.179c-8.393,0.421-16.823-0.251-25.058-1.996c-3.32-0.703-6.693,0.907-8.235,3.925l-9.604,18.804
	l-35.713-18.228l9.596-18.805c1.541-3.021,0.864-6.699-1.651-8.973c-6.224-5.626-11.712-12.062-16.314-19.129
	c-1.849-2.84-5.372-4.088-8.597-3.043l-20.081,6.506l-12.368-38.15l20.082-6.506c3.226-1.045,5.349-4.124,5.179-7.511
	c-0.421-8.384,0.248-16.817,1.988-25.066c0.699-3.314-0.911-6.688-3.928-8.228l-18.796-9.595l18.232-35.72l18.805,9.596
	c3.021,1.543,6.7,0.863,8.973-1.651c5.638-6.238,12.072-11.726,19.124-16.311c2.842-1.849,4.091-5.374,3.046-8.6l-6.505-20.081
	l38.142-12.365l6.516,20.082c1.046,3.224,4.126,5.345,7.51,5.176c8.394-0.417,16.823,0.251,25.057,1.997
	c3.318,0.704,6.695-0.907,8.237-3.928l9.596-18.806l35.719,18.232l-9.596,18.805c-1.541,3.021-0.864,6.7,1.652,8.974
	c6.223,5.624,11.711,12.059,16.313,19.127c1.85,2.841,5.374,4.089,8.597,3.043l20.081-6.506l4.38,13.517
	c-2.213,0.664-4.297,1.865-6.041,3.609l-37.413,37.414c-2.728,2.729-4.23,6.356-4.23,10.214c0,3.859,1.502,7.486,4.231,10.214
	l15.639,15.64c-3.584,6.899-6.564,14.096-8.905,21.5h-22.117c-7.965,0-14.445,6.48-14.445,14.446v46.155L157.493,317.652z"/>
<path d="M497.554,249.577h-22.117c-2.342-7.405-5.322-14.601-8.905-21.5l15.638-15.638c2.729-2.729,4.231-6.356,4.231-10.216
	c0-3.858-1.502-7.485-4.23-10.214l-37.413-37.415c-5.633-5.629-14.797-5.631-20.43,0.002l-15.639,15.639
	c-6.899-3.584-14.096-6.565-21.5-8.905v-22.117c0-7.965-6.48-14.445-14.445-14.445h-9.317c-4.143,0-7.5,3.357-7.5,7.5
	s3.357,7.5,7.5,7.5h8.763v27.181c0,3.391,2.275,6.36,5.55,7.242c9.97,2.685,19.573,6.662,28.543,11.821
	c2.938,1.69,6.646,1.201,9.043-1.198l19.219-19.219l36.628,36.629l-19.219,19.22c-2.396,2.396-2.888,6.104-1.197,9.042
	c5.157,8.968,9.135,18.57,11.821,28.543c0.883,3.273,3.852,5.549,7.242,5.549h27.181v51.803H469.82
	c-3.391,0-6.359,2.275-7.242,5.549c-2.687,9.973-6.664,19.575-11.821,28.543c-1.69,2.938-1.199,6.646,1.197,9.042l19.219,19.22
	l-9.123,9.122c-2.929,2.93-2.929,7.678,0,10.607c1.465,1.464,3.385,2.196,5.304,2.196s3.839-0.732,5.304-2.196l9.515-9.515
	c2.729-2.729,4.23-6.356,4.23-10.215c0-3.859-1.503-7.487-4.23-10.214l-15.639-15.64c3.583-6.899,6.564-14.096,8.905-21.5h22.117
	c7.965,0,14.445-6.48,14.445-14.446v-52.91C512,256.058,505.519,249.577,497.554,249.577z"/>
<path d="M346.287,355.941c16.77-0.002,33.544-6.386,46.311-19.151c12.371-12.37,19.184-28.817,19.184-46.312
	c0-17.494-6.813-33.941-19.183-46.313c-25.537-25.535-67.085-25.535-92.622,0c-25.535,25.536-25.535,67.087,0,92.623
	C312.745,349.559,329.513,355.942,346.287,355.941z M310.583,254.774c9.843-9.844,22.773-14.766,35.703-14.766
	s25.86,4.922,35.703,14.766c0,0,0,0,0.001,0c9.537,9.536,14.789,22.217,14.789,35.704c0,13.486-5.252,26.167-14.79,35.703
	c-19.686,19.688-51.722,19.688-71.407,0C290.895,306.495,290.895,274.461,310.583,254.774z"/>
<path d="M275.174,350.984c-2.929,2.93-2.929,7.678,0,10.607c18.995,18.994,44.251,29.455,71.113,29.455s52.118-10.461,71.113-29.455
	c2.929-2.93,2.929-7.678,0-10.607c-2.93-2.928-7.678-2.928-10.607,0c-33.361,33.363-87.649,33.363-121.011,0
	C282.851,348.057,278.103,348.057,275.174,350.984z"/>
<path d="M417.399,219.365c-18.995-18.994-44.251-29.456-71.113-29.456s-52.118,10.462-71.113,29.456
	c-2.929,2.93-2.929,7.678,0,10.607c2.93,2.928,7.678,2.929,10.607-0.001c16.161-16.161,37.648-25.063,60.506-25.063
	s44.345,8.901,60.506,25.063c1.465,1.465,3.384,2.197,5.304,2.197c1.919,0,3.839-0.732,5.304-2.196
	C420.329,227.043,420.329,222.295,417.399,219.365z"/>
<g>
</g>
<g>
</g>
<g>
</g>
<g>
</g>
<g>
</g>
<g>
</g>
<g>
</g>
<g>
</g>
<g>
</g>
<g>
</g>
<g>
</g>
<g>
</g>
<g>
</g>
<g>
</g>
<g>
</g>
</svg>
