<?xml version="1.0" encoding="iso-8859-1"?>
<!-- Generator: Adobe Illustrator 19.0.0, SVG Export Plug-In . SVG Version: 6.00 Build 0)  -->
<svg version="1.1" id="Capa_1" xmlns="http://www.w3.org/2000/svg" xmlns:xlink="http://www.w3.org/1999/xlink" x="0px" y="0px"
	 viewBox="0 0 512 512" style="enable-background:new 0 0 512 512;" xml:space="preserve">
<rect x="181.75" y="7.5" style="fill:#5A9BCC;" width="291.2" height="497"/>
<path style="fill:#1E70AD;" d="M227.779,205.98v10.82c0,12.06-9.81,21.86-21.86,21.86h-24.17V7.5h13.39
	c12.79,5.86,24.61,13.99,34.91,24.16c22.21,21.96,34.99,51.09,35.97,82.04C267.149,148.91,253.279,182.14,227.779,205.98z"/>
<rect x="205.35" y="29" style="fill:#D2E3F1;" width="244" height="403.38"/>
<path style="fill:#A5C6E3;" d="M227.779,205.98v10.82c0,12.06-9.81,21.86-21.86,21.86h-0.57V29h21.91c0.94,0.87,1.87,1.76,2.79,2.66
	c22.21,21.96,34.99,51.09,35.97,82.04C267.149,148.91,253.279,182.14,227.779,205.98z"/>
<rect x="205.35" y="29" style="fill:#0054A0;" width="244" height="34.03"/>
<path style="fill:#003A7F;" d="M253.019,63.03h-47.67V29h21.91c0.94,0.87,1.87,1.76,2.79,2.66
	C239.469,40.96,247.179,51.56,253.019,63.03z"/>
<g>
	<rect x="298.01" y="206.5" style="fill:#FCE790;" width="116.62" height="28.954"/>
	<rect x="241.28" y="206.5" style="fill:#FCE790;" width="28.402" height="28.954"/>
	<rect x="298.01" y="264.59" style="fill:#FCE790;" width="116.62" height="28.954"/>
	<rect x="241.28" y="264.59" style="fill:#FCE790;" width="28.402" height="28.954"/>
	<rect x="298.01" y="322.69" style="fill:#FCE790;" width="116.62" height="28.954"/>
	<rect x="241.28" y="322.69" style="fill:#FCE790;" width="28.402" height="28.954"/>
	<path style="fill:#FCE790;" d="M147.291,11.64c56.034,1.149,101.954,46.518,103.739,102.536
		c1.09,34.201-14.03,64.907-38.252,85.036v17.59c0,3.788-3.071,6.858-6.858,6.858h-59.428c-58.23,0-106.667-46.357-107.44-104.582
		C38.257,59.122,87.237,10.409,147.291,11.64z"/>
</g>
<path d="M472.958,0h-291.21c-4.142,0-7.5,3.357-7.5,7.5v0.434c-8.674-2.317-17.66-3.604-26.803-3.792
	C116.363,3.496,87.12,15.2,65.086,37.074C43.05,58.951,31.141,88.109,31.553,119.178c0.469,35.323,17.218,67.823,45.952,89.168
	c3.325,2.47,8.023,1.776,10.493-1.548c2.47-3.325,1.777-8.023-1.548-10.493c-24.949-18.533-39.492-46.718-39.897-77.326
	c-0.358-26.966,9.978-52.272,29.102-71.259c19.122-18.984,44.521-29.092,71.483-28.581c10.911,0.224,21.383,2.222,31.146,5.71
	c0.562,0.293,1.165,0.516,1.799,0.66c7.05,2.676,13.712,6.135,19.88,10.276c0.682,0.704,1.498,1.275,2.41,1.67
	c24.142,17.267,40.149,45.177,41.162,76.961c0.976,30.638-11.981,59.443-35.549,79.029c-1.715,1.426-2.707,3.539-2.707,5.769v16.947
	h-58.787c-12.537,0-24.794-2.29-36.43-6.807c-3.861-1.503-8.207,0.415-9.706,4.277c-1.499,3.861,0.416,8.207,4.278,9.705
	c13.374,5.192,27.457,7.824,41.858,7.824h27.756V504.5c0,4.143,3.358,7.5,7.5,7.5h39.82c4.142,0,7.5-3.357,7.5-7.5
	s-3.358-7.5-7.5-7.5h-32.32V231.16h8.6v201.22c0,4.143,3.358,7.5,7.5,7.5h184.72c4.142,0,7.5-3.357,7.5-7.5s-3.358-7.5-7.5-7.5
	h-177.22V229.371c4.425-2.449,7.431-7.162,7.431-12.568v-14.142c9.315-8.236,17.076-17.77,23.128-28.217
	c0.288,0.034,0.58,0.055,0.877,0.055H257.6c4.142,0,7.5-3.357,7.5-7.5s-3.358-7.5-7.5-7.5h-6.951c1.207-3.05,2.277-6.157,3.216-9.31
	h102.452c4.142,0,7.5-3.357,7.5-7.5s-3.358-7.5-7.5-7.5h-99.08c0.431-2.792,0.766-5.608,0.99-8.447h24.701
	c4.142,0,7.5-3.357,7.5-7.5s-3.358-7.5-7.5-7.5H258.43c-0.737-14.395-4.2-28.337-10.115-41.21h193.532V424.88h-23.92
	c-4.142,0-7.5,3.357-7.5,7.5s3.358,7.5,7.5,7.5h31.42c4.142,0,7.5-3.357,7.5-7.5V63.072c0-0.013,0.002-0.026,0.002-0.039
	s-0.002-0.026-0.002-0.039V29c0-4.143-3.358-7.5-7.5-7.5h-244c-0.024,0-0.047,0.003-0.071,0.004
	c-3.817-2.408-7.763-4.578-11.817-6.504h271.999v482h-216.03c-4.142,0-7.5,3.357-7.5,7.5s3.358,7.5,7.5,7.5h223.53
	c4.142,0,7.5-3.357,7.5-7.5V7.5C480.458,3.357,477.1,0,472.958,0z M441.848,36.5v19.033H239.99
	c-4.364-6.622-9.448-12.837-15.214-18.535c-0.17-0.168-0.345-0.331-0.516-0.498H441.848z"/>
<path d="M352.163,469.068c0-13.683-11.131-24.813-24.813-24.813s-24.813,11.131-24.813,24.813s11.131,24.813,24.813,24.813
	S352.163,482.751,352.163,469.068z M317.536,469.068c0-5.411,4.402-9.813,9.813-9.813s9.813,4.402,9.813,9.813
	s-4.402,9.813-9.813,9.813S317.536,474.479,317.536,469.068z"/>
<path d="M298.008,242.95h116.618c4.142,0,7.5-3.357,7.5-7.5v-28.953c0-4.143-3.358-7.5-7.5-7.5H298.008c-4.142,0-7.5,3.357-7.5,7.5
	v28.953C290.508,239.593,293.866,242.95,298.008,242.95z M305.508,213.997h101.618v13.953H305.508V213.997z"/>
<path d="M277.185,206.497c0-4.143-3.358-7.5-7.5-7.5h-28.402c-4.142,0-7.5,3.357-7.5,7.5v28.953c0,4.143,3.358,7.5,7.5,7.5h28.402
	c4.142,0,7.5-3.357,7.5-7.5V206.497z M262.185,227.95h-13.402v-13.953h13.402V227.95z"/>
<path d="M290.508,293.545c0,4.143,3.358,7.5,7.5,7.5h116.618c4.142,0,7.5-3.357,7.5-7.5v-28.954c0-4.143-3.358-7.5-7.5-7.5H298.008
	c-4.142,0-7.5,3.357-7.5,7.5V293.545z M305.508,272.091h101.618v13.954H305.508V272.091z"/>
<path d="M277.185,264.591c0-4.143-3.358-7.5-7.5-7.5h-28.402c-4.142,0-7.5,3.357-7.5,7.5v28.954c0,4.143,3.358,7.5,7.5,7.5h28.402
	c4.142,0,7.5-3.357,7.5-7.5V264.591z M262.185,286.045h-13.402v-13.954h13.402V286.045z"/>
<path d="M290.508,351.639c0,4.143,3.358,7.5,7.5,7.5h116.618c4.142,0,7.5-3.357,7.5-7.5v-28.953c0-4.143-3.358-7.5-7.5-7.5H298.008
	c-4.142,0-7.5,3.357-7.5,7.5V351.639z M305.508,330.186h101.618v13.953H305.508V330.186z"/>
<path d="M269.685,315.186h-28.402c-4.142,0-7.5,3.357-7.5,7.5v28.953c0,4.143,3.358,7.5,7.5,7.5h28.402c4.142,0,7.5-3.357,7.5-7.5
	v-28.953C277.185,318.543,273.827,315.186,269.685,315.186z M262.185,344.139h-13.402v-13.953h13.402V344.139z"/>
<path d="M115.066,138.181V87.688c0-4.143-3.358-7.5-7.5-7.5H82.212c-4.142,0-7.5,3.357-7.5,7.5s3.358,7.5,7.5,7.5h17.854v42.992
	c0,4.396-3.576,7.972-7.972,7.972h-1.74c-4.396,0-7.972-3.576-7.972-7.972c0-4.143-3.358-7.5-7.5-7.5s-7.5,3.357-7.5,7.5
	c0,12.667,10.305,22.972,22.972,22.972h1.74C104.761,161.152,115.066,150.848,115.066,138.181z"/>
<path d="M167.294,137.21v-33.078c0-13.202-10.741-23.943-23.943-23.943s-23.943,10.741-23.943,23.943v33.078
	c0,13.202,10.741,23.942,23.943,23.942C156.554,161.152,167.294,150.412,167.294,137.21z M134.408,137.21v-33.078
	c0-4.932,4.012-8.943,8.943-8.943s8.943,4.012,8.943,8.943v33.078c0,4.931-4.012,8.942-8.943,8.942l0,0
	C138.42,146.152,134.408,142.141,134.408,137.21z"/>
<path d="M192.871,80.188h-13.604c-4.142,0-7.5,3.357-7.5,7.5v65.964c0,4.143,3.358,7.5,7.5,7.5h17.447
	c14.354,0,26.032-11.678,26.032-26.031c0-8.862-4.454-16.699-11.238-21.403c2.098-3.364,3.314-7.332,3.314-11.579
	C214.821,90.035,204.974,80.188,192.871,80.188z M199.821,102.139c0,3.826-3.108,6.94-6.931,6.95h-6.124v-13.9h6.104
	C196.703,95.188,199.821,98.307,199.821,102.139z M196.713,146.152h-9.947V124.09h6.104c0.013,0,0.026-0.001,0.038-0.001h3.804
	c6.083,0,11.032,4.949,11.032,11.032S202.796,146.152,196.713,146.152z"/>
<g>
</g>
<g>
</g>
<g>
</g>
<g>
</g>
<g>
</g>
<g>
</g>
<g>
</g>
<g>
</g>
<g>
</g>
<g>
</g>
<g>
</g>
<g>
</g>
<g>
</g>
<g>
</g>
<g>
</g>
</svg>
