<?xml version="1.0" encoding="iso-8859-1"?>
<!-- Generator: Adobe Illustrator 19.0.0, SVG Export Plug-In . SVG Version: 6.00 Build 0)  -->
<svg version="1.1" id="Capa_1" xmlns="http://www.w3.org/2000/svg" xmlns:xlink="http://www.w3.org/1999/xlink" x="0px" y="0px"
	 viewBox="0 0 512 512" style="enable-background:new 0 0 512 512;" xml:space="preserve">
<circle style="fill:#FF2796;" cx="256" cy="256" r="192.47"/>
<path style="fill:#E50A82;" d="M256,408.593c-84.14,0-152.593-68.453-152.593-152.593S171.86,103.407,256,103.407
	S408.593,171.86,408.593,256S340.14,408.593,256,408.593z"/>
<circle style="fill:#7A50B4;" cx="256" cy="256" r="136.78"/>
<circle style="fill:#FCCE99;" cx="256" cy="256" r="112.22"/>
<circle style="fill:#FEE6CC;" cx="256" cy="256" r="93.81"/>
<path d="M199.197,297.744h1.807c12.993,0,23.563-10.57,23.563-23.563v-52.425c0-4.143-3.357-7.5-7.5-7.5h-26.324
	c-4.143,0-7.5,3.357-7.5,7.5s3.357,7.5,7.5,7.5h18.824v44.925c0,4.722-3.842,8.563-8.563,8.563h-1.807
	c-4.723,0-8.564-3.842-8.564-8.563c0-4.143-3.357-7.5-7.5-7.5s-7.5,3.357-7.5,7.5C175.633,287.174,186.204,297.744,199.197,297.744z
	"/>
<path d="M254.222,297.744c13.549,0,24.572-11.023,24.572-24.572v-34.344c0-13.549-11.023-24.572-24.572-24.572
	s-24.572,11.023-24.572,24.572v34.344C229.649,286.721,240.673,297.744,254.222,297.744z M244.649,238.828
	c0-5.278,4.294-9.572,9.572-9.572c5.278,0,9.572,4.294,9.572,9.572v34.344c0,5.278-4.294,9.572-9.572,9.572
	s-9.572-4.294-9.572-9.572L244.649,238.828L244.649,238.828z"/>
<path d="M291.511,297.744h18.115c14.745,0,26.741-11.996,26.741-26.741c0-9.202-4.673-17.333-11.771-22.146
	c2.239-3.497,3.543-7.647,3.543-12.098c0-12.408-10.095-22.503-22.504-22.503H291.51c-4.143,0-7.5,3.357-7.5,7.5v68.488
	C284.011,294.387,287.368,297.744,291.511,297.744z M309.626,282.744h-10.615v-23.481h6.625h3.99c6.474,0,11.741,5.267,11.741,11.74
	S316.1,282.744,309.626,282.744z M313.14,236.759c0,4.138-3.366,7.504-7.504,7.504h-6.625v-15.007h6.625
	C309.773,229.256,313.14,232.622,313.14,236.759z"/>
<path d="M148.864,352.529l-3.897,3.897c-2.929,2.93-2.929,7.678,0,10.607c1.465,1.464,3.385,2.196,5.304,2.196
	s3.839-0.732,5.304-2.196l3.897-3.897c25.585,23.075,59.444,37.143,96.529,37.143s70.943-14.068,96.529-37.143l3.897,3.897
	c1.465,1.464,3.385,2.196,5.304,2.196s3.839-0.732,5.304-2.196c2.929-2.93,2.929-7.678,0-10.607l-3.897-3.897
	c23.075-25.585,37.143-59.444,37.143-96.529c0-27.755-7.902-54.71-22.852-77.95c-4.256-6.616-9.033-12.83-14.25-18.62l3.855-3.855
	c2.929-2.93,2.929-7.678,0-10.607c-2.93-2.928-7.678-2.928-10.607,0l-3.853,3.853c-10.261-9.251-21.826-17.036-34.409-23.052
	c-3.736-1.786-8.214-0.207-10.002,3.531c-1.786,3.737-0.206,8.215,3.531,10.002c11.122,5.318,21.263,12.15,30.225,20.174
	l-6.779,6.779c-21.114-18.64-48.826-29.971-79.138-29.971s-58.025,11.331-79.138,29.971l-6.771-6.771
	c22.856-20.366,52.959-32.763,85.909-32.763c10.467,0,20.898,1.262,31.008,3.751c4.023,0.991,8.086-1.467,9.075-5.489
	c0.99-4.021-1.467-8.085-5.489-9.075c-11.281-2.778-22.92-4.187-34.594-4.187c-37.085,0-70.943,14.068-96.529,37.143l-3.897-3.897
	c-2.93-2.928-7.678-2.928-10.607,0c-2.929,2.93-2.929,7.678,0,10.607l3.897,3.897c-23.075,25.585-37.143,59.444-37.143,96.529
	S125.789,326.943,148.864,352.529z M256,385.279c-32.949,0-63.053-12.397-85.909-32.763l6.771-6.771
	c21.114,18.64,48.826,29.971,79.138,29.971s58.024-11.331,79.138-29.971l6.771,6.771C319.053,372.882,288.949,385.279,256,385.279z
	 M385.279,256c0,32.949-12.397,63.053-32.763,85.909l-6.771-6.771c18.64-21.114,29.971-48.826,29.971-79.138
	s-11.331-58.025-29.971-79.138l6.743-6.743C373.159,193.444,385.279,223.939,385.279,256z M248.5,151.554v17.529
	c0,4.143,3.357,7.5,7.5,7.5s7.5-3.357,7.5-7.5v-17.529c54.254,3.858,97.217,49.226,97.217,104.446S317.754,356.587,263.5,360.446
	v-17.529c0-4.143-3.357-7.5-7.5-7.5s-7.5,3.357-7.5,7.5v17.529c-54.254-3.858-97.217-49.226-97.217-104.446
	S194.246,155.413,248.5,151.554z M166.254,176.862c-18.64,21.114-29.971,48.826-29.971,79.138s11.331,58.025,29.971,79.138
	l-6.771,6.771C139.117,319.053,126.72,288.95,126.72,256s12.397-63.053,32.763-85.909L166.254,176.862z"/>
<path d="M414.818,365.018c-3.319-2.479-8.018-1.795-10.496,1.523C369.01,413.844,314.948,440.974,256,440.974
	c-101.995,0-184.974-82.979-184.974-184.974c0-27.734,5.994-54.412,17.817-79.291c1.777-3.741,0.186-8.215-3.556-9.993
	c-3.739-1.773-8.215-0.186-9.993,3.556C63.58,194.926,57.173,221.209,56.179,248.5H7.5c-4.143,0-7.5,3.357-7.5,7.5
	s3.357,7.5,7.5,7.5h48.681c3.867,104.313,88.006,188.452,192.319,192.319V504.5c0,4.143,3.357,7.5,7.5,7.5s7.5-3.357,7.5-7.5
	v-48.678c29.373-1.062,57.47-8.361,83.619-21.77c27.053-13.872,50.989-34.114,69.223-58.539
	C418.82,372.194,418.138,367.495,414.818,365.018z"/>
<path d="M504.5,248.5h-48.681C451.952,144.187,367.813,60.048,263.5,56.181V7.5c0-4.143-3.357-7.5-7.5-7.5s-7.5,3.357-7.5,7.5
	v48.682c-63.686,2.376-122.454,34.897-158.342,88.044c-2.317,3.433-1.414,8.095,2.019,10.413c3.433,2.317,8.094,1.414,10.413-2.019
	c34.5-51.092,91.85-81.594,153.41-81.594c101.995,0,184.974,82.979,184.974,184.974c0,30.489-7.581,60.716-21.924,87.411
	c-1.961,3.649-0.592,8.196,3.057,10.156c1.13,0.607,2.345,0.896,3.543,0.896c2.673,0,5.26-1.433,6.613-3.952
	c14.334-26.679,22.408-56.612,23.553-87.011H504.5c4.143,0,7.5-3.357,7.5-7.5S508.643,248.5,504.5,248.5z"/>
<g>
</g>
<g>
</g>
<g>
</g>
<g>
</g>
<g>
</g>
<g>
</g>
<g>
</g>
<g>
</g>
<g>
</g>
<g>
</g>
<g>
</g>
<g>
</g>
<g>
</g>
<g>
</g>
<g>
</g>
</svg>
