<?xml version="1.0" encoding="iso-8859-1"?>
<!-- Generator: Adobe Illustrator 19.0.0, SVG Export Plug-In . SVG Version: 6.00 Build 0)  -->
<svg version="1.1" id="Capa_1" xmlns="http://www.w3.org/2000/svg" xmlns:xlink="http://www.w3.org/1999/xlink" x="0px" y="0px"
	 viewBox="0 0 512 512" style="enable-background:new 0 0 512 512;" xml:space="preserve">
<path style="fill:#FEC007;" d="M504.5,255.949c0,121.199-98.256,219.454-219.454,219.454c-72.966,0-137.605-35.609-177.511-90.39
	l177.511-129.064L93.721,148.382C131.346,81.599,202.929,36.495,285.046,36.495C406.244,36.495,504.5,134.751,504.5,255.949z"/>
<path style="fill:#FE9700;" d="M504.5,255.949c0,121.199-98.255,219.454-219.454,219.454c-3.418,0-6.826-0.075-10.202-0.236
	c116.462-5.337,209.242-101.438,209.242-219.218c0-117.769-92.769-213.871-209.21-219.208c3.365-0.171,6.762-0.246,10.17-0.246
	C406.245,36.495,504.5,134.751,504.5,255.949z"/>
<path style="fill:#1D71B8;" d="M226.954,255.949L49.443,385.014C23.06,348.793,7.5,304.182,7.5,255.949
	c0-39.081,10.212-75.784,28.13-107.568L226.954,255.949z"/>
<path d="M452.688,102.972c-37.995-41.61-89.683-67.501-145.54-72.902c-4.121-0.419-7.787,2.62-8.187,6.743s2.62,7.788,6.743,8.187
	C414.761,55.546,497,146.235,497,255.949c0,116.872-95.082,211.954-211.954,211.954c-65.029,0-126.867-30.26-166.921-81.316
	l64.653-47.009c3.351-2.437,4.092-7.127,1.656-10.477s-7.127-4.09-10.477-1.656l-70.834,51.502c-1.61,1.171-2.688,2.934-2.998,4.899
	c-0.311,1.966,0.174,3.975,1.347,5.583c20.638,28.33,47.941,51.835,78.958,67.975c32.06,16.682,68.235,25.499,104.615,25.499
	c60.62,0,117.613-23.607,160.479-66.475C488.393,373.563,512,316.57,512,255.949C512,199.187,490.936,144.859,452.688,102.972z"/>
<path d="M90.046,154.918l181.135,101.84l-74.416,54.105c-3.351,2.437-4.092,7.127-1.656,10.477c1.468,2.019,3.754,3.091,6.072,3.091
	c1.529,0,3.073-0.467,4.404-1.435l83.871-60.98c2.066-1.503,3.226-3.953,3.077-6.503c-0.149-2.55-1.585-4.85-3.812-6.101
	L104.059,145.588C141.215,84.842,207.482,46.159,278.79,44.093c4.141-0.12,7.4-3.574,7.28-7.714c-0.12-4.142-3.588-7.382-7.714-7.28
	c-39.691,1.15-78.481,12.729-112.179,33.484c-32.788,20.195-60.103,48.591-78.99,82.116c-0.978,1.734-1.225,3.785-0.688,5.702
	S88.312,153.944,90.046,154.918z"/>
<path d="M234.441,255.513c-0.148-2.55-1.585-4.85-3.812-6.101L39.306,141.844c-3.606-2.029-8.176-0.751-10.209,2.854
	c-5.789,10.269-10.807,21.071-14.914,32.108c-1.444,3.883,0.531,8.2,4.413,9.646c3.88,1.441,8.2-0.531,9.646-4.413
	c2.965-7.969,6.438-15.806,10.36-23.383l174.487,98.103L51.198,374.464C27.492,339.417,15,298.602,15,255.949
	c0-16.271,1.851-32.482,5.5-48.185c0.938-4.035-1.573-8.065-5.607-9.004c-4.036-0.938-8.065,1.573-9.004,5.607
	C1.981,221.183,0,238.537,0,255.949c0,48.361,15.001,94.519,43.38,133.48c1.469,2.016,3.752,3.085,6.068,3.085
	c1.529-0.001,3.073-0.467,4.404-1.435l177.512-129.064C233.431,260.513,234.59,258.063,234.441,255.513z"/>
<path d="M447.705,216.299c4.143,0,7.5-3.357,7.5-7.5s-3.357-7.5-7.5-7.5h-21.433c-4.143,0-7.5,3.357-7.5,7.5s3.357,7.5,7.5,7.5
	H447.705z"/>
<path d="M384.481,238.545c0,4.143,3.357,7.5,7.5,7.5h55.724c4.143,0,7.5-3.357,7.5-7.5s-3.357-7.5-7.5-7.5h-55.724
	C387.839,231.045,384.481,234.403,384.481,238.545z"/>
<path d="M391.981,267.409h55.724c4.143,0,7.5-3.357,7.5-7.5c0-4.143-3.357-7.5-7.5-7.5h-55.724c-4.143,0-7.5,3.357-7.5,7.5
	C384.481,264.052,387.839,267.409,391.981,267.409z"/>
<path d="M51.414,242.658h21.432c4.143,0,7.5-3.357,7.5-7.5s-3.357-7.5-7.5-7.5H51.414c-4.143,0-7.5,3.357-7.5,7.5
	S47.271,242.658,51.414,242.658z"/>
<path d="M51.414,272.405h55.723c4.143,0,7.5-3.357,7.5-7.5s-3.357-7.5-7.5-7.5H51.414c-4.143,0-7.5,3.357-7.5,7.5
	S47.271,272.405,51.414,272.405z"/>
<path d="M51.414,293.769h55.723c4.143,0,7.5-3.357,7.5-7.5s-3.357-7.5-7.5-7.5H51.414c-4.143,0-7.5,3.357-7.5,7.5
	S47.271,293.769,51.414,293.769z"/>
<g>
</g>
<g>
</g>
<g>
</g>
<g>
</g>
<g>
</g>
<g>
</g>
<g>
</g>
<g>
</g>
<g>
</g>
<g>
</g>
<g>
</g>
<g>
</g>
<g>
</g>
<g>
</g>
<g>
</g>
</svg>
