<?xml version="1.0" encoding="iso-8859-1"?>
<!-- Generator: Adobe Illustrator 19.0.0, SVG Export Plug-In . SVG Version: 6.00 Build 0)  -->
<svg version="1.1" id="Capa_1" xmlns="http://www.w3.org/2000/svg" xmlns:xlink="http://www.w3.org/1999/xlink" x="0px" y="0px"
	 viewBox="0 0 511.996 511.996" style="enable-background:new 0 0 511.996 511.996;" xml:space="preserve">
<path style="fill:#FEC007;" d="M504.499,303.158c0,96.491-78.211,174.702-174.702,174.702c-85.041,0-155.892-60.761-171.492-141.242
	c-2.11-10.83-3.21-22.02-3.21-33.46c0-16.22,2.22-31.94,6.36-46.841c6.24-22.47,16.85-43.121,30.86-60.961
	c0.33-0.42,0.66-0.84,0.99-1.25c32.02-40.021,81.261-65.641,136.492-65.641C426.288,128.466,504.499,206.677,504.499,303.158z"/>
<g>
	<path style="fill:#FE9700;" d="M228.776,266.138l-70.471,70.481c-2.11-10.83-3.21-22.02-3.21-33.46c0-16.22,2.22-31.94,6.36-46.841
		c6.24-22.47,16.85-43.121,30.86-60.961c0.33-0.42,0.66-0.84,0.99-1.25v33.5h19.51c9.16,0,17.35,5.47,20.85,13.93
		C237.176,250.008,235.256,259.668,228.776,266.138z"/>
	<path style="fill:#FE9700;" d="M449.569,303.158c0,66.151-53.621,119.772-119.772,119.772
		c-66.141,0-119.772-53.621-119.772-119.772c0-6.79,0.57-13.45,1.66-19.93c2.88-17.21,9.43-33.18,18.83-47.071
		c21.52-31.83,57.961-52.761,99.281-52.761C395.948,183.397,449.569,237.017,449.569,303.158z"/>
</g>
<path style="fill:#F26200;" d="M228.776,266.138l-17.09,17.09c2.88-17.21,9.43-33.18,18.83-47.071c1.27,1.61,2.34,3.41,3.15,5.38
	C237.176,250.008,235.256,259.668,228.776,266.138z"/>
<circle style="fill:#FCE790;" cx="329.804" cy="303.161" r="99.151"/>
<path style="fill:#FF2796;" d="M9.726,255.536L108.59,354.4c2.958,2.958,7.755,2.958,10.713,0l98.864-98.864
	c4.772-4.772,1.392-12.932-5.357-12.932h-34.502v-86.579c0-4.184-3.392-7.575-7.575-7.575H57.16c-4.184,0-7.575,3.392-7.575,7.575
	v86.579H15.083C8.334,242.604,4.953,250.764,9.726,255.536z"/>
<path d="M329.796,120.966c-32.612,0-64.614,8.721-92.543,25.221c-19.883,11.746-37.345,27.199-51.445,45.361v-35.523
	c0-8.313-6.763-15.075-15.075-15.075H57.16c-8.313,0-15.075,6.763-15.075,15.075v79.079H15.083c-6.119,0-11.585,3.652-13.927,9.306
	s-1.06,12.103,3.268,16.431l43.268,43.268c2.929,2.928,7.678,2.928,10.606,0c2.929-2.93,2.929-7.678,0-10.607l-43.305-43.266
	c-0.001-0.043,0.035-0.129,0.09-0.131h34.502c4.142,0,7.5-3.357,7.5-7.5v-86.579c0-0.041,0.034-0.075,0.075-0.075h113.573
	c0.042,0,0.075,0.034,0.075,0.075v59.854c-0.002,0.053,0,0.105,0,0.158v26.568c0,4.143,3.358,7.5,7.5,7.5l34.527-0.027
	c0.031,0.029,0.066,0.115,0.028,0.156l-98.865,98.864c-0.025,0.025-0.081,0.025-0.105-0.001l-35.901-35.9
	c-2.929-2.928-7.678-2.928-10.606,0c-2.929,2.93-2.929,7.678,0,10.607l35.9,35.899c2.847,2.848,6.633,4.416,10.661,4.416
	s7.813-1.568,10.66-4.415l25.614-25.614c6.738,39.385,26.26,75.486,55.96,102.926c33.742,31.177,77.644,48.347,123.616,48.347
	c31.933,0,63.355-8.383,90.867-24.242c3.588-2.069,4.82-6.655,2.752-10.244c-2.069-3.588-6.653-4.819-10.244-2.752
	c-25.236,14.549-54.068,22.238-83.375,22.238c-85.058,0-157.428-65.422-166.277-149.57l6.356-6.356
	c5.804,83.164,75.309,149.054,159.923,149.054c4.143,0,7.5-3.357,7.5-7.5s-3.357-7.5-7.5-7.5
	c-80.132,0-145.325-65.192-145.325-145.325c0-0.986-0.195-1.924-0.541-2.786l20.796-20.796c-1.438,7.645-2.2,15.526-2.2,23.582
	c0,70.176,57.093,127.269,127.27,127.269c70.176,0,127.268-57.093,127.268-127.269c0-18.532-3.903-36.412-11.601-53.141
	c-1.732-3.764-6.188-5.409-9.948-3.679c-3.764,1.731-5.41,6.186-3.679,9.948c6.786,14.748,10.228,30.518,10.228,46.871
	c0,61.905-50.363,112.269-112.268,112.269s-112.27-50.363-112.27-112.269s50.364-112.269,112.27-112.269
	c34.887,0,67.2,15.814,88.656,43.39c2.545,3.271,7.258,3.858,10.524,1.313c3.27-2.544,3.857-7.256,1.313-10.524
	c-24.318-31.253-60.947-49.179-100.494-49.179c-46.141,0-86.622,24.682-108.942,61.535c-2.355-1.486-5.124-2.327-8.046-2.327
	h-27.002v-16.932c30.022-50.749,84.999-82.205,143.988-82.205c92.195,0,167.202,75.002,167.202,167.192
	c0,50.412-22.421,97.636-61.515,129.564c-3.208,2.62-3.685,7.345-1.064,10.553c1.482,1.815,3.639,2.756,5.813,2.756
	c1.668,0,3.347-0.554,4.739-1.691c42.597-34.787,67.026-86.246,67.026-141.181C511.999,202.698,430.263,120.966,329.796,120.966z"/>
<path d="M490.124,303.163c0-88.403-71.922-160.325-160.325-160.325c-4.143,0-7.5,3.357-7.5,7.5c0,4.143,3.357,7.5,7.5,7.5
	c80.133,0,145.325,65.192,145.325,145.325c0,4.143,3.357,7.5,7.5,7.5S490.124,307.306,490.124,303.163z"/>
<path d="M329.798,196.517c-58.806,0-106.646,47.842-106.646,106.647s47.841,106.647,106.646,106.647s106.647-47.842,106.647-106.647
	S388.604,196.517,329.798,196.517z M329.798,394.811c-50.534,0-91.646-41.113-91.646-91.647s41.113-91.647,91.646-91.647
	c50.535,0,91.647,41.113,91.647,91.647S380.334,394.811,329.798,394.811z"/>
<path d="M349.987,281.804c0,4.143,3.357,7.5,7.5,7.5s7.5-3.357,7.5-7.5c0-13.802-11.878-25.366-27.688-28.193v-5.824
	c0-4.143-3.357-7.5-7.5-7.5c-4.143,0-7.5,3.357-7.5,7.5v5.824c-15.81,2.827-27.688,14.391-27.688,28.193
	c0,9.178,9.952,15.754,27.688,25.752v29.786c-7.354-2.093-12.688-7.116-12.688-12.82c0-4.143-3.357-7.5-7.5-7.5s-7.5,3.357-7.5,7.5
	c0,13.802,11.878,25.366,27.688,28.193v5.824c0,4.143,3.357,7.5,7.5,7.5c4.143,0,7.5-3.357,7.5-7.5v-5.824
	c15.811-2.827,27.688-14.391,27.688-28.193c0-9.178-9.951-15.755-27.688-25.753v-29.786
	C344.653,271.076,349.987,276.1,349.987,281.804z M309.641,281.064c0.437-5.396,5.621-10.086,12.657-12.087v21.262
	C316.517,286.793,311.156,283.259,309.641,281.064z M349.957,325.264c-0.437,5.396-5.621,10.087-12.658,12.088v-21.264
	C343.08,319.533,348.441,323.068,349.957,325.264z"/>
<path d="M137.038,131.858c4.142,0,7.5-3.357,7.5-7.5V77.455c0-4.143-3.358-7.5-7.5-7.5c-4.142,0-7.5,3.357-7.5,7.5v46.902
	C129.538,128.5,132.896,131.858,137.038,131.858z"/>
<path d="M113.947,131.858c4.142,0,7.5-3.357,7.5-7.5V34.133c0-4.143-3.358-7.5-7.5-7.5c-4.142,0-7.5,3.357-7.5,7.5v90.225
	C106.447,128.5,109.805,131.858,113.947,131.858z"/>
<path d="M90.856,131.858c4.142,0,7.5-3.357,7.5-7.5V77.455c0-4.143-3.358-7.5-7.5-7.5c-4.142,0-7.5,3.357-7.5,7.5v46.902
	C83.356,128.5,86.714,131.858,90.856,131.858z"/>
<g>
</g>
<g>
</g>
<g>
</g>
<g>
</g>
<g>
</g>
<g>
</g>
<g>
</g>
<g>
</g>
<g>
</g>
<g>
</g>
<g>
</g>
<g>
</g>
<g>
</g>
<g>
</g>
<g>
</g>
</svg>
