<?xml version="1.0" encoding="iso-8859-1"?>
<!-- Generator: Adobe Illustrator 19.0.0, SVG Export Plug-In . SVG Version: 6.00 Build 0)  -->
<svg version="1.1" id="Capa_1" xmlns="http://www.w3.org/2000/svg" xmlns:xlink="http://www.w3.org/1999/xlink" x="0px" y="0px"
	 viewBox="0 0 512 512" style="enable-background:new 0 0 512 512;" xml:space="preserve">
<path style="fill:#FEC007;" d="M504.5,303.163c0,96.487-78.213,174.7-174.7,174.7s-174.7-78.213-174.7-174.7
	c0-16.227,2.214-31.942,6.353-46.842c6.241-22.477,16.853-43.124,30.866-60.968c31.988-40.733,81.679-66.89,137.48-66.89
	C426.287,128.463,504.5,206.676,504.5,303.163z"/>
<g>
	<path style="fill:#FE9700;" d="M192.319,195.354v39.378c0,11.902-9.678,21.59-21.59,21.59h-9.277
		C167.694,233.843,178.306,213.197,192.319,195.354z"/>
	<circle style="fill:#FE9700;" cx="329.806" cy="303.165" r="119.772"/>
</g>
<circle style="fill:#FCE790;" cx="329.806" cy="303.165" r="99.152"/>
<path style="fill:#8AE46D;" d="M218.17,135.216l-98.866-98.865c-2.958-2.958-7.755-2.958-10.713,0L9.727,135.216
	c-4.772,4.772-1.392,12.932,5.357,12.932h34.503v86.579c0,4.184,3.392,7.575,7.575,7.575h113.573c4.184,0,7.575-3.392,7.575-7.575
	v-86.579h34.503C219.562,148.148,222.942,139.988,218.17,135.216z"/>
<path d="M329.798,120.965c-32.613,0-64.614,8.721-92.543,25.221c-19.883,11.746-37.344,27.199-51.444,45.36v-35.899h27.002
	c6.119,0,11.585-3.652,13.927-9.306c2.342-5.654,1.06-12.102-3.268-16.43l-98.865-98.865c-5.877-5.876-15.44-5.878-21.319,0
	L4.423,129.913c-4.327,4.327-5.609,10.775-3.267,16.429s7.809,9.306,13.927,9.306h27.002v21.422c0,4.143,3.358,7.5,7.5,7.5
	s7.5-3.357,7.5-7.5v-28.922c0-4.143-3.358-7.5-7.5-7.5l-34.528,0.027c-0.031-0.029-0.066-0.114-0.028-0.155l98.865-98.865
	c0.03-0.029,0.078-0.029,0.107,0l98.902,98.863c0.001,0.043-0.035,0.128-0.09,0.13H178.31c-4.142,0-7.5,3.357-7.5,7.5v67.722
	c-0.002,0.063,0,0.125,0,0.188v18.67c0,0.041-0.034,0.074-0.075,0.074H57.161c-0.042,0-0.075-0.033-0.075-0.074v-29.804
	c0-4.143-3.358-7.5-7.5-7.5s-7.5,3.357-7.5,7.5v29.804c0,8.312,6.763,15.074,15.075,15.074h98.399
	c-5.276,17.222-7.955,35.122-7.955,53.356c0,100.468,81.731,182.203,182.193,182.203c62.13,0,119.38-31.196,153.142-83.451
	c2.248-3.479,1.25-8.122-2.229-10.37c-3.479-2.247-8.123-1.25-10.37,2.229c-30.987,47.96-83.526,76.592-140.543,76.592
	c-92.19,0-167.193-75.007-167.193-167.203c0-18.307,2.938-36.24,8.72-53.386c8.038-0.314,14.485-6.932,14.485-15.044v-16.557
	c30.022-50.749,84.998-82.204,143.987-82.204c92.195,0,167.203,75.002,167.203,167.193c0,22.92-4.559,45.135-13.549,66.026
	c-1.637,3.805,0.12,8.217,3.924,9.854c0.967,0.416,1.972,0.613,2.961,0.613c2.905,0,5.671-1.699,6.893-4.537
	C507.03,352.34,512,328.131,512,303.159C512,202.698,430.264,120.965,329.798,120.965z"/>
<path d="M482.626,310.663c4.142,0,7.5-3.357,7.5-7.5c0-88.403-71.922-160.326-160.326-160.326c-4.142,0-7.5,3.357-7.5,7.5
	s3.358,7.5,7.5,7.5c80.132,0,145.325,65.192,145.325,145.325C475.126,307.306,478.484,310.663,482.626,310.663z"/>
<path d="M184.475,303.163c0-4.143-3.358-7.5-7.5-7.5c-4.142,0-7.5,3.357-7.5,7.5c0,88.403,71.922,160.326,160.325,160.326
	c4.142,0,7.5-3.357,7.5-7.5s-3.358-7.5-7.5-7.5C249.668,448.49,184.475,383.297,184.475,303.163z"/>
<path d="M457.07,303.163c0-70.176-57.092-127.269-127.269-127.269s-127.269,57.093-127.269,127.269s57.092,127.269,127.269,127.269
	S457.07,373.339,457.07,303.163z M329.801,415.432c-61.905,0-112.269-50.363-112.269-112.269s50.364-112.269,112.269-112.269
	s112.269,50.363,112.269,112.269S391.706,415.432,329.801,415.432z"/>
<path d="M329.801,196.517c-22.169,0-43.43,6.742-61.481,19.498c-3.383,2.391-4.188,7.07-1.797,10.453
	c2.39,3.384,7.071,4.187,10.453,1.797c15.506-10.957,33.773-16.748,52.825-16.748c50.535,0,91.647,41.113,91.647,91.647
	s-41.113,91.647-91.647,91.647s-91.647-41.113-91.647-91.647c0-21.117,6.984-40.963,20.198-57.39
	c2.596-3.228,2.084-7.949-1.144-10.545c-3.229-2.598-7.948-2.086-10.545,1.143c-15.161,18.848-23.51,42.569-23.51,66.792
	c0,58.806,47.842,106.648,106.648,106.648s106.648-47.843,106.648-106.649S388.607,196.517,329.801,196.517z"/>
<path d="M309.612,324.524c0-4.143-3.358-7.5-7.5-7.5s-7.5,3.357-7.5,7.5c0,13.802,11.878,25.366,27.688,28.193v5.824
	c0,4.143,3.358,7.5,7.5,7.5s7.5-3.357,7.5-7.5v-5.824c15.81-2.827,27.688-14.391,27.688-28.193c0-9.178-9.952-15.754-27.688-25.753
	v-29.786c7.355,2.093,12.688,7.116,12.688,12.82c0,4.143,3.358,7.5,7.5,7.5s7.5-3.357,7.5-7.5c0-13.802-11.878-25.366-27.688-28.193
	v-5.824c0-4.143-3.358-7.5-7.5-7.5s-7.5,3.357-7.5,7.5v5.824c-15.81,2.827-27.688,14.391-27.688,28.193
	c0,9.178,9.951,15.754,27.688,25.752v29.786C314.945,335.251,309.612,330.227,309.612,324.524z M349.959,325.264
	c-0.438,5.396-5.621,10.087-12.658,12.088v-21.264C343.083,319.533,348.443,323.068,349.959,325.264z M309.642,281.064
	c0.438-5.396,5.621-10.087,12.658-12.087v21.263C316.518,286.794,311.158,283.259,309.642,281.064z"/>
<path d="M90.857,258.894c-4.142,0-7.5,3.357-7.5,7.5v46.903c0,4.143,3.358,7.5,7.5,7.5c4.142,0,7.5-3.357,7.5-7.5v-46.903
	C98.357,262.251,95,258.894,90.857,258.894z"/>
<path d="M113.948,258.894c-4.142,0-7.5,3.357-7.5,7.5v90.226c0,4.143,3.358,7.5,7.5,7.5c4.142,0,7.5-3.357,7.5-7.5v-90.226
	C121.448,262.251,118.09,258.894,113.948,258.894z"/>
<path d="M137.04,258.894c-4.142,0-7.5,3.357-7.5,7.5v46.903c0,4.143,3.358,7.5,7.5,7.5c4.142,0,7.5-3.357,7.5-7.5v-46.903
	C144.54,262.251,141.182,258.894,137.04,258.894z"/>
<g>
</g>
<g>
</g>
<g>
</g>
<g>
</g>
<g>
</g>
<g>
</g>
<g>
</g>
<g>
</g>
<g>
</g>
<g>
</g>
<g>
</g>
<g>
</g>
<g>
</g>
<g>
</g>
<g>
</g>
</svg>
