<?xml version="1.0" encoding="iso-8859-1"?>
<!-- Generator: Adobe Illustrator 19.0.0, SVG Export Plug-In . SVG Version: 6.00 Build 0)  -->
<svg version="1.1" id="Capa_1" xmlns="http://www.w3.org/2000/svg" xmlns:xlink="http://www.w3.org/1999/xlink" x="0px" y="0px"
	 viewBox="0 0 512.002 512.002" style="enable-background:new 0 0 512.002 512.002;" xml:space="preserve">
<path style="fill:#FCCE99;" d="M329.09,398.439c0,35.762-32.906,63.467-76.967,77.817c-74.41,24.23-180.637,10.384-213.967-67.037
	c-38.271-88.866,32.993-204.356,75.732-261.889c16.55-22.271,28.834-35.859,28.834-35.859s-16.164-13.298-33.63-29.663
	C77.228,51.922,41.08,11.788,91.231,23.609c77.614,18.287,91.385-31.41,120.18-11.146c28.795,20.284,57.591-3.58,60.09,29.76
	c1.119,14.871-12.449,30.243-27.84,42.73c-19.107,15.498-41.012,26.518-41.012,26.518s9.447,14.253,23.169,36.949
	c15.566,25.707,36.631,62.233,55.671,101.102C307.118,301.824,329.09,358.363,329.09,398.439z"/>
<g>
	<path style="fill:#E8A96B;" d="M329.09,398.439c0,35.762-32.906,63.467-76.967,77.817c-25.996-26.16-42.083-62.194-42.083-101.903
		c0-13.153,1.766-26.199,5.259-38.763c5.115-18.413,13.713-35.405,25.553-50.489c11.426-14.552,25.224-26.527,40.636-35.579
		C307.118,301.824,329.09,358.363,329.09,398.439z"/>
	<path style="fill:#E8A96B;" d="M202.648,111.467c0,0,9.452,14.26,23.173,36.957c-0.513,0.025-1.039,0.038-1.552,0.038H122.7
		c-3.042,0-5.997-0.388-8.814-1.127c16.551-22.271,28.831-35.867,28.831-35.867s-16.163-13.296-33.626-29.658
		c4.181-1.79,8.789-2.779,13.609-2.779h101.569c7.174,0,13.847,2.191,19.393,5.922C224.557,100.45,202.648,111.467,202.648,111.467z
		"/>
</g>
<path style="fill:#8AE46D;" d="M224.273,129.677H122.701c-8.799,0-15.933-7.133-15.933-15.933l0,0
	c0-8.799,7.133-15.933,15.933-15.933h101.572c8.799,0,15.933,7.133,15.933,15.933l0,0
	C240.205,122.545,233.073,129.677,224.273,129.677z"/>
<path style="fill:#FEC007;" d="M484.8,374.358c0,71.878-58.265,130.143-130.143,130.143s-130.143-58.265-130.143-130.143
	c0-12.089,1.649-23.794,4.733-34.895c4.649-16.745,12.555-32.125,22.994-45.418c23.829-30.343,60.847-49.83,102.417-49.83
	C426.534,244.215,484.8,302.479,484.8,374.358z"/>
<path style="fill:#FE9700;" d="M354.657,462.693c-48.708,0-88.335-39.627-88.335-88.335s39.627-88.334,88.335-88.334
	s88.334,39.626,88.334,88.334S403.365,462.693,354.657,462.693z"/>
<circle style="fill:#FCE790;" cx="354.653" cy="374.362" r="73.859"/>
<path d="M167.09,479.117c-59.343-3.979-103.828-30.538-122.05-72.87c-17.551-40.761-12.747-92.244,14.277-153.02
	c21.913-49.284,53.506-92.861,71.79-116.049h79.03c5.559,8.937,13.402,21.782,22.279,37.025c1.393,2.393,3.906,3.727,6.488,3.727
	c1.282,0,2.581-0.329,3.768-1.021c3.58-2.084,4.791-6.676,2.707-10.255c-6.674-11.459-12.764-21.568-17.763-29.719
	c11.343-1.627,20.091-11.404,20.091-23.189c0-6.633-2.775-12.627-7.22-16.894c26.827-19.555,39.776-38.086,38.498-55.184
	c-1.929-25.617-18.684-26.36-32.145-26.958c-9.613-0.427-20.508-0.91-31.114-8.38C199.493-5.099,186.25,1.168,172.23,7.803
	c-17.084,8.087-38.347,18.146-79.279,8.499c-12.37-2.915-27.252-4.933-32.592,5.421c-4.576,8.872,1.293,21.27,19.624,41.454
	c9.379,10.328,20.744,21.213,30.81,30.4c-6.89,4.085-11.522,11.594-11.522,20.168c0,9.676,5.896,18,14.284,21.572
	C69.169,193.248-10.021,316.298,31.262,412.179c20.527,47.684,69.667,77.536,134.824,81.905c0.171,0.012,0.341,0.017,0.509,0.017
	c3.914,0,7.21-3.036,7.476-6.998C174.348,482.97,171.222,479.395,167.09,479.117z M224.273,122.178H122.701
	c-4.65,0-8.433-3.783-8.433-8.433c0-4.65,3.783-8.433,8.433-8.433h101.572c4.65,0,8.433,3.783,8.433,8.433
	C232.706,118.395,228.923,122.178,224.273,122.178z M74.021,29.144c1.775-0.299,6.109-0.452,15.488,1.758
	c46.047,10.857,70.951-0.934,89.137-9.54c13.771-6.518,19.708-8.918,28.443-2.768c14.195,9.996,28.581,10.635,39.085,11.101
	c13.674,0.606,16.923,0.751,17.853,13.096c0.933,12.489-13.762,29.744-40.389,47.523h-17.885
	c5.696-8.375,12.331-20.567,16.073-35.852c0.984-4.023-1.479-8.083-5.502-9.068c-4.024-0.987-8.083,1.479-9.068,5.502
	c-4.935,20.163-15.924,34.292-20.403,39.418h-14.89V65.159c0-4.143-3.358-7.5-7.5-7.5s-7.5,3.357-7.5,7.5v25.154h-27.362
	C88.209,53.694,75.424,35.082,74.021,29.144z"/>
<path d="M372.394,237.851c-4.112-0.529-7.868,2.373-8.396,6.48c-0.529,4.108,2.373,7.868,6.481,8.396
	c60.898,7.84,106.82,60.13,106.82,121.63C477.3,441.983,422.282,497,354.657,497s-122.643-55.018-122.643-122.643
	c0-63.219,49.284-116.893,112.2-122.195c4.127-0.348,7.191-3.976,6.844-8.104c-0.348-4.128-3.983-7.186-8.104-6.844
	c-18.281,1.541-35.848,6.689-51.818,15.005c-9.19-19.096-19.726-39.351-31.395-60.337c-2.013-3.62-6.58-4.922-10.2-2.91
	c-3.62,2.013-4.923,6.579-2.91,10.199c11.77,21.166,22.355,41.554,31.549,60.73c-8.933,5.981-17.214,13.037-24.65,21.087
	c-17.778,19.242-29.52,42.856-34.21,68.214c-2.506-10.018-16.545-18.78-38.333-31.021v-47.19
	c13.453,2.479,23.74,11.411,23.74,21.701c0,4.143,3.358,7.5,7.5,7.5c4.142,0,7.5-3.357,7.5-7.5c0-18.549-16.799-33.979-38.74-36.885
	v-10.709c0-4.143-3.358-7.5-7.5-7.5s-7.5,3.357-7.5,7.5v10.709c-21.941,2.907-38.74,18.337-38.74,36.885
	c0,11.446,14.624,20.73,38.74,34.28v47.19c-13.453-2.479-23.74-11.411-23.74-21.7c0-4.143-3.358-7.5-7.5-7.5
	c-4.142,0-7.5,3.357-7.5,7.5c0,18.549,16.799,33.979,38.74,36.885v10.709c0,4.143,3.358,7.5,7.5,7.5s7.5-3.357,7.5-7.5v-10.709
	c17.106-2.266,31.075-12.146,36.405-25.18c-0.249,3.379-0.379,6.777-0.379,10.192c0,36.042,13.932,68.886,36.683,93.449
	c-18.313,6.415-38.7,10.36-59.649,11.476c-4.136,0.221-7.311,3.752-7.09,7.889c0.213,4,3.523,7.101,7.483,7.101
	c0.134,0,0.27-0.003,0.405-0.011c25.07-1.335,49.473-6.481,70.898-14.921c24.002,20.361,55.046,32.662,88.912,32.662
	c75.896,0,137.643-61.747,137.643-137.643C492.3,305.335,440.751,246.651,372.394,237.851z M152.695,301.586
	c-8.524-5.751-10.158-8.528-10.446-9.183c0.189-10.168,10.41-18.959,23.737-21.415v38.741
	C161.153,306.949,156.562,304.196,152.695,301.586z M180.987,374.162v-38.741c4.834,2.782,9.425,5.535,13.292,8.145
	c8.524,5.751,10.158,8.528,10.446,9.183C204.535,362.916,194.315,371.706,180.987,374.162z"/>
<path d="M458.22,381.859c4.142,0,7.5-3.357,7.5-7.5c0-61.241-49.823-111.063-111.063-111.063c-4.142,0-7.5,3.357-7.5,7.5
	c0,4.143,3.358,7.5,7.5,7.5c52.97,0,96.064,43.094,96.064,96.064C450.721,378.501,454.078,381.859,458.22,381.859z"/>
<path d="M258.592,374.359c0-4.143-3.358-7.5-7.5-7.5c-4.142,0-7.5,3.357-7.5,7.5c0,61.241,49.823,111.063,111.063,111.063
	c4.142,0,7.5-3.357,7.5-7.5s-3.358-7.5-7.5-7.5C301.687,470.422,258.592,427.328,258.592,374.359z"/>
<path d="M436.016,374.359c0-44.862-36.498-81.36-81.359-81.36c-44.862,0-81.36,36.498-81.36,81.36
	c0,44.861,36.498,81.359,81.36,81.359S436.016,419.22,436.016,374.359z M354.657,440.718c-36.591,0-66.36-29.769-66.36-66.359
	s29.769-66.36,66.36-66.36s66.359,29.77,66.359,66.36S391.248,440.718,354.657,440.718z"/>
<path d="M367.783,358.445c0,4.143,3.358,7.5,7.5,7.5s7.5-3.357,7.5-7.5c0-10.747-8.748-19.821-20.627-22.559v-2.781
	c0-4.143-3.358-7.5-7.5-7.5c-4.142,0-7.5,3.357-7.5,7.5v2.781c-11.879,2.74-20.627,11.813-20.627,22.559
	c0,7.981,8.45,13.439,20.627,20.308v18.34c-3.498-1.647-5.627-4.323-5.627-6.822c0-4.143-3.358-7.5-7.5-7.5
	c-4.142,0-7.5,3.357-7.5,7.5c0,10.747,8.748,19.821,20.627,22.559v2.781c0,4.143,3.358,7.5,7.5,7.5c4.142,0,7.5-3.357,7.5-7.5
	v-2.781c11.879-2.74,20.627-11.813,20.627-22.559c0-7.981-8.45-13.439-20.627-20.308v-18.34
	C365.654,353.27,367.783,355.947,367.783,358.445z M341.672,357.308c0.53-2.144,2.517-4.278,5.485-5.677v9.687
	C344.762,359.807,342.728,358.383,341.672,357.308z M367.641,391.407c-0.53,2.144-2.517,4.278-5.485,5.677v-9.687
	C364.552,388.908,366.584,390.332,367.641,391.407z"/>
<g>
</g>
<g>
</g>
<g>
</g>
<g>
</g>
<g>
</g>
<g>
</g>
<g>
</g>
<g>
</g>
<g>
</g>
<g>
</g>
<g>
</g>
<g>
</g>
<g>
</g>
<g>
</g>
<g>
</g>
</svg>
