<?xml version="1.0" encoding="iso-8859-1"?>
<!-- Generator: Adobe Illustrator 19.0.0, SVG Export Plug-In . SVG Version: 6.00 Build 0)  -->
<svg version="1.1" id="Capa_1" xmlns="http://www.w3.org/2000/svg" xmlns:xlink="http://www.w3.org/1999/xlink" x="0px" y="0px"
	 viewBox="0 0 511.999 511.999" style="enable-background:new 0 0 511.999 511.999;" xml:space="preserve">
<path style="fill:#0054A0;" d="M491.59,131.489c0,55.38-44.9,100.28-100.28,100.28c-19.43,0-37.57-5.53-52.93-15.1
	c-28.43-17.7-47.35-49.23-47.35-85.18c0-43.73,27.99-80.92,67.04-94.63c10.4-3.66,21.59-5.65,33.24-5.65
	C446.69,31.209,491.59,76.109,491.59,131.489z"/>
<path style="fill:#003A7F;" d="M360.53,149.139c5.28,7.24,8.4,16.14,8.4,25.77c0,19.53-12.85,36.12-30.55,41.76
	c-28.43-17.7-47.35-49.23-47.35-85.18c0-43.73,27.99-80.92,67.04-94.63c3.79,5.33,6.81,11.06,8.99,17.13
	C378.74,86.569,376.47,119.419,360.53,149.139z"/>
<path style="fill:#0054A0;" d="M474.47,360.419v106.45H307.61v-106.45c0-17.07,5.13-32.95,13.94-46.17
	c2.58-3.88,5.47-7.53,8.66-10.91c15.21-16.22,36.85-26.35,60.84-26.35c23.03,0,43.89,9.34,58.99,24.43
	c3.91,3.91,7.44,8.22,10.5,12.84C469.34,327.479,474.47,343.349,474.47,360.419z"/>
<g>
	<path style="fill:#003A7F;" d="M359.93,379.649v87.22h-52.32v-106.45c0-17.07,5.13-32.95,13.94-46.17
		c2.58-3.88,5.47-7.53,8.66-10.91c4,4.34,7.64,9,10.88,13.89C353.41,335.719,359.93,357.319,359.93,379.649z"/>
	<path style="fill:#003A7F;" d="M460.541,314.258l-31.793,29.88c-4.82,4.53-12.339,4.458-17.065-0.155l-20.634-20.137
		l-20.634,20.137c-4.727,4.613-12.256,4.685-17.065,0.155l-31.804-29.89c14.955-22.454,40.502-37.254,69.503-37.254
		c23.033,0,43.894,9.339,58.994,24.429C453.952,305.332,457.479,309.635,460.541,314.258z"/>
</g>
<path style="fill:#1D71B8;" d="M450.765,302.162l-30.425,28.591l-29.291-28.591l-29.291,28.591l-30.425-28.591
	c15.142-15.537,36.309-25.178,59.716-25.178c23.038,0,43.899,9.335,58.99,24.439C450.281,301.665,450.523,301.907,450.765,302.162z"
	/>
<path style="fill:#E8A96B;" d="M391.045,302.162L391.045,302.162c-10.205,0-18.478-8.273-18.478-18.478v-31.869h36.956v31.869
	C409.523,293.889,401.25,302.162,391.045,302.162z"/>
<path style="fill:#FCCE99;" d="M457.58,120.279l-3.18,38.18l-4.3,51.39c-2.57,30.89-28.4,54.65-59.4,54.65
	c-28.18,0-52.1-19.64-58.14-46.42c-0.6-2.68-1.03-5.42-1.26-8.23l-4.5-53.89l-2.98-35.68
	C323.82,120.279,457.58,120.279,457.58,120.279z"/>
<path style="fill:#E8A96B;" d="M360.53,149.139c5.28,7.24,8.4,16.14,8.4,25.77c0,21.62-15.74,39.63-36.37,43.17
	c-0.6-2.68-1.03-5.42-1.26-8.23l-4.5-53.89l-2.98-35.68h47.68C369.21,130.139,365.54,139.789,360.53,149.139z"/>
<path style="fill:#0054A0;" d="M469.07,106.629v49.43c-46.9,3.17-79.82-15.37-79.82-15.37v15.37c-9.84-0.56-18.46-1.51-26.02-2.74
	c-41.99-6.81-51.05-21.83-51.05-21.83v-24.86C312.18,106.629,469.07,106.629,469.07,106.629z"/>
<path style="fill:#003A7F;" d="M360.53,149.139c0.98,1.34,1.88,2.73,2.7,4.18c-41.99-6.81-51.05-21.83-51.05-21.83v-24.86h61.63
	C372.27,121.239,367.84,135.509,360.53,149.139z"/>
<path style="fill:#0054A0;" d="M220.97,131.489c0,37.35-20.43,69.94-50.72,87.18c-14.62,8.34-31.53,13.1-49.56,13.1
	c-55.38,0-100.28-44.9-100.28-100.28s44.9-100.28,100.28-100.28c7.99,0,15.76,0.93,23.21,2.71
	C188.09,44.379,220.97,84.099,220.97,131.489z"/>
<path style="fill:#003A7F;" d="M220.97,131.489c0,37.35-20.43,69.94-50.72,87.18c-0.66,0.03-1.34,0.05-2.01,0.05
	c-24.16,0-43.82-19.66-43.82-43.81c0-8.09,2.21-15.66,6.05-22.17c-9.67-18.38-16.33-47-4.01-87.71
	c3.47-11.45,9.36-21.91,17.44-31.11C188.09,44.379,220.97,84.099,220.97,131.489z"/>
<path style="fill:#0054A0;" d="M203.85,360.419v106.45H36.99v-106.45c0-17.07,5.13-32.95,13.94-46.17
	c14.95-22.46,40.5-37.26,69.5-37.26c19.61,0,37.65,6.77,51.9,18.11c2.48,1.97,4.85,4.08,7.09,6.32c3.91,3.91,7.44,8.22,10.5,12.84
	C198.72,327.479,203.85,343.349,203.85,360.419z"/>
<g>
	<path style="fill:#003A7F;" d="M189.92,314.259c8.8,13.22,13.93,29.09,13.93,46.16v106.45h-69.62v-87.22
		c0-22.34,6.52-43.94,18.86-62.47c5.51-8.27,11.99-15.67,19.24-22.08c2.48,1.97,4.85,4.08,7.09,6.32
		C183.33,305.329,186.86,309.639,189.92,314.259z"/>
	<path style="fill:#003A7F;" d="M189.921,314.258l-31.793,29.88c-4.82,4.53-12.339,4.458-17.065-0.155l-20.634-20.137
		l-20.634,20.137c-4.727,4.613-12.256,4.685-17.065,0.155l-31.804-29.89c14.955-22.454,40.502-37.254,69.503-37.254
		c23.033,0,43.894,9.339,58.994,24.429C183.333,305.332,186.86,309.635,189.921,314.258z"/>
</g>
<path style="fill:#1D71B8;" d="M180.145,302.162l-30.425,28.591l-29.291-28.591l-29.291,28.591l-30.425-28.591
	c15.142-15.537,36.309-25.178,59.716-25.178c23.038,0,43.899,9.335,58.99,24.439C179.661,301.665,179.903,301.907,180.145,302.162z"
	/>
<path style="fill:#E8A96B;" d="M120.426,302.162L120.426,302.162c-10.205,0-18.478-8.273-18.478-18.478v-31.869h36.956v31.869
	C138.904,293.889,130.631,302.162,120.426,302.162z"/>
<path style="fill:#FCCE99;" d="M186.96,120.279l-3.18,38.18l-4.29,51.39c-0.22,2.62-0.6,5.19-1.15,7.69
	c-5.85,27.06-29.89,46.96-58.26,46.96c-31,0-56.83-23.76-59.4-54.65l-4.5-53.89l-2.98-35.68
	C53.2,120.279,186.96,120.279,186.96,120.279z"/>
<path style="fill:#E8A96B;" d="M120.54,120.279h66.42l-3.18,38.18l-4.29,51.39c-0.22,2.62-0.6,5.19-1.15,7.69
	c-3.25,0.77-6.63,1.18-10.1,1.18c-24.16,0-43.82-19.66-43.82-43.81c0-8.09,2.21-15.66,6.05-22.17
	C125.97,144.199,122.13,133.439,120.54,120.279z"/>
<path style="fill:#0054A0;" d="M198.45,106.629v49.43c-33.14,2.24-59.31-6.36-71.8-11.6c-5.19-2.18-8.02-3.77-8.02-3.77v15.37
	c-64.46-3.65-77.07-24.57-77.07-24.57v-24.86C41.56,106.629,198.45,106.629,198.45,106.629z"/>
<path style="fill:#003A7F;" d="M119.76,106.629h78.69v49.43c-33.14,2.24-59.31-6.36-71.8-11.6
	C122.58,134.309,119.71,121.769,119.76,106.629z"/>
<path style="fill:#F9A13E;" d="M349.21,138.329c-11.4,23.39-28.29,36.58-28.29,36.58H172.44c0,0-20.46-9.33-31.25-34.45v-0.01
	c-7.03-16.38-9.94-39.48-0.37-71.08c24.24-80.05,186.67-81.28,212.12-10.31C364.59,91.549,358.86,118.579,349.21,138.329z"/>
<g>
	<path style="fill:#E2780E;" d="M212.05,174.909h-39.61c0,0-20.46-9.33-31.25-34.45v-0.01c7.45-5.86,16.85-9.36,27.05-9.36
		C192.4,131.089,212.05,150.749,212.05,174.909z"/>
	<path style="fill:#E2780E;" d="M349.21,138.329c-11.4,23.39-28.29,36.58-28.29,36.58H281.3c0-24.16,19.66-43.82,43.82-43.82
		C334.01,131.089,342.3,133.749,349.21,138.329z"/>
</g>
<path style="fill:#D2E3F1;" d="M344.927,379.645v124.854H149.234V379.645c0-20.014,6.016-38.646,16.339-54.148
	c17.54-26.334,47.501-43.692,81.513-43.692c27.013,0,51.48,10.953,69.189,28.651c4.585,4.585,8.721,9.631,12.312,15.053
	C338.91,341.012,344.927,359.631,344.927,379.645z"/>
<path style="fill:#A5C6E3;" d="M328.588,325.509L291.3,360.553c-5.653,5.313-14.471,5.228-20.014-0.182l-24.199-23.617
	l-24.199,23.617c-5.543,5.41-14.374,5.495-20.014,0.182l-37.3-35.056c17.54-26.334,47.501-43.692,81.513-43.692
	c27.013,0,51.48,10.953,69.189,28.651C320.861,315.041,324.997,320.087,328.588,325.509z"/>
<path style="fill:#5A9BCC;" d="M317.122,311.323l-35.683,33.532l-34.353-33.532l-34.353,33.532l-35.682-33.532
	c17.759-18.222,42.583-29.529,70.036-29.529c27.02,0,51.485,10.948,69.184,28.663C316.555,310.741,316.839,311.024,317.122,311.323z
	"/>
<g>
	<path style="fill:#FCCE99;" d="M247.082,311.323L247.082,311.323c-11.969,0-21.671-9.703-21.671-21.671v-37.376h43.343v37.376
		C268.754,301.621,259.051,311.323,247.082,311.323z"/>
	<circle style="fill:#FCCE99;" cx="325.12" cy="174.909" r="28.814"/>
	<circle style="fill:#FCCE99;" cx="168.24" cy="174.909" r="28.814"/>
</g>
<path style="fill:#FEE6CC;" d="M325.118,98.012l-3.736,44.772l-5.034,60.274c-3.02,36.232-33.309,64.095-69.674,64.095
	c-36.354,0-66.642-27.863-69.662-64.095l-5.277-63.197l-3.494-41.848L325.118,98.012L325.118,98.012z"/>
<path style="fill:#FCCE99;" d="M325.118,98.012l-3.736,44.772c-11.984,2.256-24.151,3.384-36.475,3.384
	c-40.563,0-73.01-12.336-90.028-20.5c-5.628,4.67-13.343,9.959-23.144,14.192l-3.494-41.848
	C168.241,98.012,325.118,98.012,325.118,98.012z"/>
<path style="fill:#F9A13E;" d="M310.563,75.587c24.26,18.344,66.715,27.155,66.715,27.155
	c-98.253,56.415-185.588,0.596-185.588,0.596s-11.174,14.54-32.706,21.97v-49.72L310.563,75.587L310.563,75.587z"/>
<path d="M456.336,297.157c-0.039-0.043-0.072-0.089-0.112-0.132c-0.168-0.179-0.345-0.347-0.526-0.506
	c-10.74-10.847-24.096-18.88-38.675-23.233v-6.668c6.958-2.968,13.43-7.109,19.117-12.341c10.751-9.89,17.893-22.875,20.533-37.093
	c26.617-20.334,42.416-52.133,42.416-85.695c0-14.448-2.814-28.471-8.366-41.677c-1.605-3.818-6.003-5.61-9.82-4.008
	c-3.818,1.605-5.613,6.002-4.008,9.82c4.773,11.356,7.194,23.423,7.194,35.864c0,23.76-9.206,46.487-25.219,63.55l2.599-31.169
	c2.66-0.051,5.352-0.143,8.106-0.329c4.133-0.28,7.257-3.856,6.978-7.989c-0.28-4.133-3.849-7.232-7.989-6.978
	c-43.916,2.975-75.334-14.254-75.634-14.421c-2.323-1.307-5.165-1.286-7.465,0.061c-2.302,1.345-3.716,3.81-3.716,6.475v7.325
	c-9.884-0.836-18.911-2.164-27.024-3.952c4.383-8.471,7.611-17.245,9.644-26.232c5.502-2.528,11.054-5.376,16.642-8.585
	c2.701-1.551,4.161-4.608,3.671-7.684c-0.489-3.075-2.83-5.528-5.879-6.163c-0.138-0.029-4.855-1.028-11.909-2.992
	C366.607,80.549,364.3,68.508,360,56.527c-1.301-3.628-2.941-7.12-4.887-10.473c11.383-4.821,23.744-7.345,36.197-7.345
	c28.283,0,54.668,12.671,72.39,34.764c1.481,1.847,3.658,2.807,5.855,2.807c1.646,0,3.304-0.539,4.688-1.649
	c3.23-2.592,3.749-7.313,1.157-10.544c-20.584-25.66-51.234-40.377-84.091-40.377c-15.682,0-31.243,3.452-45.374,10.015
	c-7.717-8.311-17.786-15.373-29.965-20.9c-19.52-8.858-43.961-13.396-68.747-12.768c-29.658,0.746-65.121,9.522-89.201,30.301
	c-11.922-4.411-24.457-6.649-37.332-6.649c-59.431,0-107.78,48.35-107.78,107.78c0,32.864,15.272,64.256,41.006,84.611
	c2.472,14.641,9.699,28.036,20.723,38.177c5.875,5.404,12.588,9.644,19.811,12.63v6.36c-14.425,4.289-27.574,12.11-38.313,22.848
	c-0.372,0.372-0.75,0.751-1.094,1.148C38.572,314.305,29.5,336.659,29.5,360.419v8.15c0,4.143,3.357,7.5,7.5,7.5s7.5-3.357,7.5-7.5
	v-8.15c0-17.49,5.886-34.07,16.701-47.503l24.796,23.305c1.445,1.358,3.291,2.035,5.137,2.035c1.893,0,3.783-0.713,5.239-2.133
	l16.129-15.745v138.991H44.5v-62.94c0-4.143-3.357-7.5-7.5-7.5s-7.5,3.357-7.5,7.5v70.44c0,4.143,3.357,7.5,7.5,7.5h104.74v30.13
	c0,4.143,3.357,7.5,7.5,7.5h26.33c4.143,0,7.5-3.357,7.5-7.5s-3.357-7.5-7.5-7.5h-18.83v-117.36
	c0-21.287,7.319-41.439,20.754-57.604l30.097,28.288c1.445,1.358,3.291,2.035,5.137,2.035c1.893,0,3.783-0.713,5.239-2.133
	l21.118-20.616v167.39H203.43c-4.143,0-7.5,3.357-7.5,7.5s3.357,7.5,7.5,7.5h141.5c4.143,0,7.5-3.357,7.5-7.5v-30.13h122.04
	c4.143,0,7.5-3.357,7.5-7.5v-106.45c0-20.751-7.175-41.048-20.201-57.15C460.05,301.144,458.232,299.109,456.336,297.157
	C456.298,297.114,458.232,299.109,456.336,297.157z M183.919,295.326c-10.579-10.356-23.365-17.863-37.518-22.054v-6.718
	c14.161-6.09,25.984-16.933,33.193-30.692c3.894,6.76,8.81,12.96,14.671,18.353c6.993,6.434,15.01,11.445,23.646,14.902v9.299
	C205.629,281.94,194.123,287.664,183.919,295.326z M145.881,288.855c8.514,3.011,16.365,7.512,23.283,13.33l-19.348,18.186
	l-15.268-14.904C140.29,301.731,144.473,295.793,145.881,288.855z M165.37,153.805l3.541,42.388
	c-0.224,0.007-0.446,0.025-0.67,0.025c-11.756,0-21.32-9.56-21.32-21.31C146.92,164.129,154.97,155.215,165.37,153.805z
	 M346.43,174.909c0,11.75-9.56,21.31-21.31,21.31c-0.225,0-0.447-0.018-0.671-0.025l3.54-42.388
	C338.383,155.214,346.43,164.129,346.43,174.909z M365.066,273.293c-14.507,4.338-27.801,12.355-38.495,23.081
	c-0.346,0.285-0.653,0.591-0.943,0.932c-1.962,2.026-3.826,4.149-5.596,6.354c-12.374-11.923-27.287-20.522-43.781-25.241v-9.635
	c8.329-3.444,16.07-8.334,22.846-14.568c12.475-11.478,20.74-26.568,23.739-43.083c0.351,0.022,0.704,0.029,1.057,0.04
	c1.555,16.551,9.119,31.837,21.369,43.105c5.875,5.403,12.586,9.643,19.807,12.628v6.387H365.066z M313.603,145.826
	c-0.003,0.045-0.009,0.09-0.011,0.135l-4.716,56.474c-2.675,32.088-29.994,57.224-62.196,57.224
	c-32.201,0-59.521-25.136-62.196-57.225l-4.715-56.437c-0.005-0.093-0.015-0.184-0.023-0.276l-1.765-21.131
	c6.81-4.152,11.893-8.534,15.176-11.769c8.793,4.725,27.588,13.584,52.995,18.725c11.018,2.229,24.031,3.869,38.493,3.868
	c9.445,0,19.508-0.704,30.028-2.395L313.603,145.826z M232.91,284.086c0-0.004,0-0.008,0-0.012v-10.653
	c4.51,0.812,9.114,1.239,13.77,1.239c4.931,0,9.805-0.47,14.57-1.379v10.793c0,0.004,0,0.008,0,0.012v5.564
	c0,7.813-6.356,14.17-14.17,14.17c-3.788,0-7.343-1.473-10.017-4.154c-2.679-2.678-4.153-6.234-4.153-10.016V284.086z
	 M275.922,294.015c11.145,3.729,21.369,9.578,30.254,17.298l-24.641,23.161l-19.988-19.511
	C269.119,310.618,274.571,302.982,275.922,294.015z M365.591,288.891c1.414,6.923,5.595,12.848,11.329,16.578l-15.266,14.902
	l-19.309-18.148C349.244,296.458,357.131,291.918,365.591,288.891z M416.499,288.887c8.575,3.067,16.402,7.642,23.201,13.377
	l-19.265,18.107l-15.265-14.902C410.905,301.738,415.086,295.812,416.499,288.887z M402.023,278.848c-0.002,0.063,0,0.125,0,0.188
	v4.647c0,6.054-4.925,10.979-10.979,10.979s-10.979-4.925-10.979-10.979v-4.638c0-0.066,0.002-0.131,0-0.197v-7.709
	c3.493,0.558,7.045,0.86,10.634,0.86c3.825,0,7.609-0.34,11.323-0.973v7.822H402.023z M388.827,163.547
	c2.072,0.113,4.076-0.621,5.574-2.038c1.499-1.416,2.349-3.388,2.349-5.45v-3.69c10.508,4.188,27.861,9.62,49.7,11.136
	l-3.813,45.721c-2.239,26.788-25.051,47.773-51.937,47.773s-49.698-20.985-51.937-47.774c-0.018-0.217-0.05-0.43-0.086-0.641
	c13.323-5.383,22.752-18.444,22.752-33.674c0-5.285-1.144-10.306-3.182-14.84C367.551,161.757,377.773,162.923,388.827,163.547z
	 M339.096,141.39c-3.093-1.295-6.403-2.169-9.857-2.561l0.745-8.928c5.491-1.358,11.08-3.006,16.746-4.972
	C344.743,130.535,342.191,136.032,339.096,141.39z M247.601,15.052c33.854-0.859,71.793,8.925,90.145,32.037
	c0.214,0.334,0.451,0.644,0.708,0.933c3.124,4.112,5.654,8.623,7.428,13.57c3.131,8.724,5.034,17.448,5.731,26.049
	c-12.263-4.262-26.262-10.276-36.526-18.037c-3.306-2.499-8.009-1.845-10.506,1.459c-2.498,3.304-1.845,8.008,1.459,10.506
	c14.753,11.155,35.377,18.867,50.374,23.434c-0.39,0.175-0.781,0.342-1.171,0.514c-0.308,0.112-0.607,0.243-0.896,0.394
	c-10.521,4.588-21.219,8.097-32.073,10.525c-0.632,0.058-1.244,0.195-1.826,0.403c-22.956,4.872-46.603,4.925-70.738,0.121
	c-32.508-6.47-53.779-19.815-53.981-19.943c-3.277-2.094-7.614-1.335-9.985,1.749c-0.099,0.128-10.025,12.833-29.206,19.451
	c-3.916,1.352-5.994,5.621-4.644,9.536s5.619,5.995,9.536,4.644c0.71-0.245,1.398-0.504,2.088-0.763l0.601,7.195
	c-4.778,0.542-9.278,2.01-13.313,4.228c-10.296-18.942-11.298-43.475-2.808-71.514c3.15-10.403,8.794-19.129,16.073-26.386
	c0.597-0.429,1.133-0.949,1.589-1.55C186.604,23.968,219.902,15.748,247.601,15.052z M28.015,126.989
	c2.304-49.609,44.007-88.791,93.667-88.275c8.505,0.088,16.827,1.314,24.864,3.647c-5.62,7.202-10.06,15.446-12.903,24.835
	c-9.415,31.091-7.211,54.551-1.147,71.531c-6.48-2.525-10.133-4.542-10.185-4.571c-2.817-1.589-6.406-1.215-8.858,1.105
	c-1.537,1.454-2.323,3.538-2.322,5.654v7.099c-36.493-3.096-52.997-12.085-59.546-17.104c-2.466-1.889-5.827-2.09-8.467-0.453
	c-0.062,0.038-0.124,0.077-0.186,0.116c-4.355,2.7-4.763,8.945-0.72,12.093c1.562,1.216,3.43,2.517,5.655,3.855l3.931,47.164
	C35.476,175.719,26.848,152.11,28.015,126.989z M68.144,209.226l-4.621-55.444c12.446,4.474,30.027,8.369,54.684,9.765
	c0.142,0.008,0.283,0.012,0.424,0.012c1.91,0,3.755-0.729,5.151-2.049c1.499-1.417,2.349-3.389,2.349-5.451v-3.712
	c3.088,1.228,6.77,2.564,10.978,3.878c-3.291,5.463-5.188,11.855-5.188,18.684c0,20.021,16.293,36.31,36.32,36.31
	c0.765,0,1.526-0.04,2.285-0.087c0.228,1.254,0.489,2.499,0.777,3.736c-0.095,0.28-0.179,0.565-0.241,0.861
	c-5.059,23.914-26.5,41.27-50.982,41.27C93.194,256.999,70.382,236.014,68.144,209.226z M120.08,271.999
	c3.843,0,7.625-0.338,11.32-0.977v7.879c0,0.005,0,0.01,0,0.015v4.763c0,6.055-4.922,10.98-10.971,10.98
	c-2.936,0-5.693-1.142-7.759-3.206c-2.077-2.083-3.221-4.844-3.221-7.774v-12.539C112.942,271.698,116.492,271.999,120.08,271.999z
	 M91.035,320.371L71.7,302.198c6.926-5.807,14.797-10.311,23.269-13.323c1.001,4.952,3.43,9.51,7.087,13.177
	c1.303,1.303,2.723,2.445,4.232,3.428L91.035,320.371z M127.502,459.369V319.55l16.977,16.573c1.57,1.532,3.647,2.234,5.685,2.114
	c-5.519,12.913-8.423,26.932-8.423,41.402v79.73L127.502,459.369L127.502,459.369z M212.63,334.474l-24.644-23.164
	c8.895-7.709,19.159-13.573,30.248-17.299c0.915,6.132,3.753,11.791,8.216,16.253c1.858,1.864,3.929,3.437,6.152,4.713
	L212.63,334.474z M337.43,496.999h-83.344V328.641l22.111,21.585c2.876,2.807,7.448,2.849,10.376,0.098l30.082-28.274
	c13.402,16.165,20.774,36.515,20.774,57.589v87.23v30.13H337.43z M352.43,379.639c0-22.562-7.419-44.88-20.914-62.953
	c-0.429-0.575-0.846-1.159-1.287-1.726c0.519-0.691,1.059-1.364,1.6-2.036l24.787,23.297c2.927,2.751,7.5,2.707,10.376-0.098
	l16.13-15.746v138.992H352.43V379.639z M466.97,459.369h-68.848V319.551l16.976,16.572c1.456,1.421,3.347,2.133,5.239,2.133
	c1.846,0,3.691-0.677,5.137-2.035l24.703-23.218c10.544,13.166,16.793,29.784,16.793,47.416L466.97,459.369L466.97,459.369z"/>
<path d="M317.122,401.058h-38.177c-4.143,0-7.5,3.357-7.5,7.5s3.357,7.5,7.5,7.5h38.177c4.143,0,7.5-3.357,7.5-7.5
	S321.265,401.058,317.122,401.058z"/>
<path d="M209.48,161.365c-4.143,0-7.5,3.357-7.5,7.5v1.543c0,4.143,3.357,7.5,7.5,7.5s7.5-3.357,7.5-7.5v-1.543
	C216.98,164.723,213.623,161.365,209.48,161.365z"/>
<path d="M276.191,168.865v1.543c0,4.143,3.357,7.5,7.5,7.5s7.5-3.357,7.5-7.5v-1.543c0-4.143-3.357-7.5-7.5-7.5
	S276.191,164.723,276.191,168.865z"/>
<path d="M260.583,209.707c-3.129,2.393-7.775,3.765-12.75,3.765c-4.974,0-9.62-1.372-12.749-3.765
	c-3.29-2.516-7.997-1.888-10.514,1.402c-2.516,3.29-1.889,7.997,1.402,10.514c5.775,4.416,13.539,6.849,21.86,6.849
	c8.322,0,16.086-2.433,21.861-6.849c3.291-2.517,3.918-7.224,1.402-10.514C268.58,207.819,263.873,207.191,260.583,209.707z"/>
<g>
</g>
<g>
</g>
<g>
</g>
<g>
</g>
<g>
</g>
<g>
</g>
<g>
</g>
<g>
</g>
<g>
</g>
<g>
</g>
<g>
</g>
<g>
</g>
<g>
</g>
<g>
</g>
<g>
</g>
</svg>
