<?xml version="1.0" encoding="iso-8859-1"?>
<!-- Generator: Adobe Illustrator 19.0.0, SVG Export Plug-In . SVG Version: 6.00 Build 0)  -->
<svg version="1.1" id="Capa_1" xmlns="http://www.w3.org/2000/svg" xmlns:xlink="http://www.w3.org/1999/xlink" x="0px" y="0px"
	 viewBox="0 0 512 512" style="enable-background:new 0 0 512 512;" xml:space="preserve">
<rect x="7.5" y="38.563" style="fill:#D2E3F1;" width="497" height="434.87"/>
<g>
	<rect x="7.5" y="38.563" style="fill:#A5C6E3;" width="14.833" height="434.87"/>
	<rect x="256" y="38.563" style="fill:#A5C6E3;" width="248.5" height="434.87"/>
</g>
<rect x="489" y="38.563" style="fill:#5A9BCC;" width="15.5" height="434.87"/>
<rect x="290" y="124.12" style="fill:#1D71B8;" width="181" height="36"/>
<rect x="290" y="194" style="fill:#FF2796;" width="90.5" height="57"/>
<rect x="408.75" y="374" style="fill:#7A50B4;" width="62.25" height="54"/>
<rect x="44.25" y="273.799" style="fill:#1D71B8;" width="62.25" height="54"/>
<path d="M79.207,134.623h-1.669c-4.045,0-7.336-3.291-7.336-7.337c0-4.143-3.358-7.5-7.5-7.5s-7.5,3.357-7.5,7.5
	c0,12.316,10.02,22.337,22.336,22.337h1.669c12.316,0,22.336-10.021,22.336-22.337V78.868c0-4.143-3.358-7.5-7.5-7.5H69.73
	c-4.142,0-7.5,3.357-7.5,7.5s3.358,7.5,7.5,7.5h16.813v40.918C86.542,131.332,83.251,134.623,79.207,134.623z"/>
<path d="M151.625,126.354V94.636c0-12.83-10.438-23.268-23.268-23.268s-23.268,10.438-23.268,23.268v31.719
	c0,12.83,10.438,23.269,23.268,23.269C141.187,149.623,151.625,139.185,151.625,126.354z M120.09,126.354V94.636
	c0-4.559,3.709-8.268,8.268-8.268s8.268,3.709,8.268,8.268v31.719c0,4.56-3.709,8.269-8.268,8.269
	C123.799,134.623,120.09,130.914,120.09,126.354z"/>
<path d="M175.843,71.368h-13.046c-4.142,0-7.5,3.357-7.5,7.5v63.255c0,4.143,3.358,7.5,7.5,7.5h16.73
	c13.935,0,25.271-11.336,25.271-25.271c0-8.506-4.228-16.038-10.689-20.62c1.948-3.22,3.09-6.979,3.09-11.008
	C197.2,80.948,187.619,71.368,175.843,71.368z M182.2,92.725c0,3.506-2.852,6.357-6.357,6.357h-5.546V86.368h5.546
	C179.348,86.368,182.2,89.22,182.2,92.725z M179.527,134.623h-9.23v-20.541h5.546h3.685c5.664,0,10.271,4.607,10.271,10.271
	C189.799,130.017,185.191,134.623,179.527,134.623z"/>
<path d="M504.5,31.063H366.927c-4.143,0-7.5,3.357-7.5,7.5c0,4.143,3.357,7.5,7.5,7.5H497v419.875H263.5V46.063h75.573
	c4.143,0,7.5-3.357,7.5-7.5c0-4.143-3.357-7.5-7.5-7.5H7.5c-4.142,0-7.5,3.357-7.5,7.5v434.875c0,4.143,3.358,7.5,7.5,7.5h91.574
	c4.142,0,7.5-3.357,7.5-7.5s-3.358-7.5-7.5-7.5H15V46.063h233.5v419.875H126.926c-4.142,0-7.5,3.357-7.5,7.5s3.358,7.5,7.5,7.5
	H504.5c4.143,0,7.5-3.357,7.5-7.5V38.563C512,34.42,508.643,31.063,504.5,31.063z"/>
<path d="M282.5,124.123v36c0,4.143,3.357,7.5,7.5,7.5h181c4.143,0,7.5-3.357,7.5-7.5v-36c0-4.143-3.357-7.5-7.5-7.5H290
	C285.857,116.623,282.5,119.98,282.5,124.123z M297.5,131.623h166v21h-166V131.623z"/>
<path d="M388,194c0-4.143-3.357-7.5-7.5-7.5H290c-4.143,0-7.5,3.357-7.5,7.5v57c0,4.143,3.357,7.5,7.5,7.5h46.073
	c4.143,0,7.5-3.357,7.5-7.5s-3.357-7.5-7.5-7.5H297.5v-42H373v42h-9.073c-4.143,0-7.5,3.357-7.5,7.5s3.357,7.5,7.5,7.5H380.5
	c4.143,0,7.5-3.357,7.5-7.5V194z"/>
<path d="M471,366.5h-62.25c-4.143,0-7.5,3.357-7.5,7.5v54c0,4.143,3.357,7.5,7.5,7.5H471c4.143,0,7.5-3.357,7.5-7.5v-54
	C478.5,369.857,475.143,366.5,471,366.5z M463.5,420.5h-47.25v-39h47.25V420.5z"/>
<path d="M36.747,327.799c0,4.143,3.358,7.5,7.5,7.5h62.25c4.142,0,7.5-3.357,7.5-7.5v-54c0-4.143-3.358-7.5-7.5-7.5h-62.25
	c-4.142,0-7.5,3.357-7.5,7.5V327.799z M51.747,281.299h47.25v39h-47.25V281.299z"/>
<path d="M290,78.5h17c4.143,0,7.5-3.357,7.5-7.5s-3.357-7.5-7.5-7.5h-17c-4.143,0-7.5,3.357-7.5,7.5S285.857,78.5,290,78.5z"/>
<path d="M454,78.5h17c4.143,0,7.5-3.357,7.5-7.5s-3.357-7.5-7.5-7.5h-17c-4.143,0-7.5,3.357-7.5,7.5S449.857,78.5,454,78.5z"/>
<path d="M454,99.995h17c4.143,0,7.5-3.357,7.5-7.5s-3.357-7.5-7.5-7.5h-17c-4.143,0-7.5,3.357-7.5,7.5S449.857,99.995,454,99.995z"
	/>
<path d="M282.5,92.495c0,4.143,3.357,7.5,7.5,7.5h57c4.143,0,7.5-3.357,7.5-7.5s-3.357-7.5-7.5-7.5h-57
	C285.857,84.995,282.5,88.353,282.5,92.495z"/>
<path d="M380.5,276.5H290c-4.143,0-7.5,3.357-7.5,7.5s3.357,7.5,7.5,7.5h90.5c4.143,0,7.5-3.357,7.5-7.5S384.643,276.5,380.5,276.5z
	"/>
<path d="M380.5,305.299H290c-4.143,0-7.5,3.357-7.5,7.5s3.357,7.5,7.5,7.5h90.5c4.143,0,7.5-3.357,7.5-7.5
	S384.643,305.299,380.5,305.299z"/>
<path d="M380.5,334.1H290c-4.143,0-7.5,3.357-7.5,7.5s3.357,7.5,7.5,7.5h90.5c4.143,0,7.5-3.357,7.5-7.5S384.643,334.1,380.5,334.1z
	"/>
<path d="M380.5,362.9H290c-4.143,0-7.5,3.357-7.5,7.5s3.357,7.5,7.5,7.5h90.5c4.143,0,7.5-3.357,7.5-7.5S384.643,362.9,380.5,362.9z
	"/>
<path d="M380.5,391.7H290c-4.143,0-7.5,3.357-7.5,7.5s3.357,7.5,7.5,7.5h90.5c4.143,0,7.5-3.357,7.5-7.5S384.643,391.7,380.5,391.7z
	"/>
<path d="M380.5,420.5H290c-4.143,0-7.5,3.357-7.5,7.5s3.357,7.5,7.5,7.5h90.5c4.143,0,7.5-3.357,7.5-7.5S384.643,420.5,380.5,420.5z
	"/>
<path d="M471,186.5h-62.25c-4.143,0-7.5,3.357-7.5,7.5s3.357,7.5,7.5,7.5H471c4.143,0,7.5-3.357,7.5-7.5S475.143,186.5,471,186.5z"
	/>
<path d="M44.247,257.5h62.25c4.142,0,7.5-3.357,7.5-7.5s-3.358-7.5-7.5-7.5h-62.25c-4.142,0-7.5,3.357-7.5,7.5
	S40.105,257.5,44.247,257.5z"/>
<path d="M44.247,235.5h62.25c4.142,0,7.5-3.357,7.5-7.5s-3.358-7.5-7.5-7.5h-62.25c-4.142,0-7.5,3.357-7.5,7.5
	S40.105,235.5,44.247,235.5z"/>
<path d="M44.247,213.5h62.25c4.142,0,7.5-3.357,7.5-7.5s-3.358-7.5-7.5-7.5h-62.25c-4.142,0-7.5,3.357-7.5,7.5
	S40.105,213.5,44.247,213.5z"/>
<path d="M215.497,242.5h-62.25c-4.142,0-7.5,3.357-7.5,7.5s3.358,7.5,7.5,7.5h62.25c4.142,0,7.5-3.357,7.5-7.5
	S219.639,242.5,215.497,242.5z"/>
<path d="M215.497,220.5h-62.25c-4.142,0-7.5,3.357-7.5,7.5s3.358,7.5,7.5,7.5h62.25c4.142,0,7.5-3.357,7.5-7.5
	S219.639,220.5,215.497,220.5z"/>
<path d="M215.497,198.5h-62.25c-4.142,0-7.5,3.357-7.5,7.5s3.358,7.5,7.5,7.5h62.25c4.142,0,7.5-3.357,7.5-7.5
	S219.639,198.5,215.497,198.5z"/>
<path d="M471,215.3h-62.25c-4.143,0-7.5,3.357-7.5,7.5s3.357,7.5,7.5,7.5H471c4.143,0,7.5-3.357,7.5-7.5S475.143,215.3,471,215.3z"
	/>
<path d="M471,244.1h-62.25c-4.143,0-7.5,3.357-7.5,7.5s3.357,7.5,7.5,7.5H471c4.143,0,7.5-3.357,7.5-7.5S475.143,244.1,471,244.1z"
	/>
<path d="M471,272.9h-62.25c-4.143,0-7.5,3.357-7.5,7.5s3.357,7.5,7.5,7.5H471c4.143,0,7.5-3.357,7.5-7.5S475.143,272.9,471,272.9z"
	/>
<path d="M471,301.7h-62.25c-4.143,0-7.5,3.357-7.5,7.5s3.357,7.5,7.5,7.5H471c4.143,0,7.5-3.357,7.5-7.5S475.143,301.7,471,301.7z"
	/>
<path d="M471,330.5h-62.25c-4.143,0-7.5,3.357-7.5,7.5s3.357,7.5,7.5,7.5H471c4.143,0,7.5-3.357,7.5-7.5S475.143,330.5,471,330.5z"
	/>
<path d="M22.5,402c0,4.143,3.358,7.5,7.5,7.5h92.5V428c0,4.143,3.358,7.5,7.5,7.5s7.5-3.357,7.5-7.5v-18.5H236
	c4.142,0,7.5-3.357,7.5-7.5s-3.358-7.5-7.5-7.5h-98.5V287.9H236c4.142,0,7.5-3.357,7.5-7.5s-3.358-7.5-7.5-7.5h-98.5v-90.4H236
	c4.142,0,7.5-3.357,7.5-7.5s-3.358-7.5-7.5-7.5H30c-4.142,0-7.5,3.357-7.5,7.5s3.358,7.5,7.5,7.5h92.5v212H30
	C25.858,394.5,22.5,397.857,22.5,402z"/>
<path d="M215.497,345.1h-62.25c-4.142,0-7.5,3.357-7.5,7.5s3.358,7.5,7.5,7.5h62.25c4.142,0,7.5-3.357,7.5-7.5
	S219.639,345.1,215.497,345.1z"/>
<path d="M215.497,323.1h-62.25c-4.142,0-7.5,3.357-7.5,7.5s3.358,7.5,7.5,7.5h62.25c4.142,0,7.5-3.357,7.5-7.5
	S219.639,323.1,215.497,323.1z"/>
<path d="M215.497,301.1h-62.25c-4.142,0-7.5,3.357-7.5,7.5s3.358,7.5,7.5,7.5h62.25c4.142,0,7.5-3.357,7.5-7.5
	S219.639,301.1,215.497,301.1z"/>
<path d="M215.497,367.1h-62.25c-4.142,0-7.5,3.357-7.5,7.5s3.358,7.5,7.5,7.5h62.25c4.142,0,7.5-3.357,7.5-7.5
	S219.639,367.1,215.497,367.1z"/>
<path d="M153.247,420.5c-4.142,0-7.5,3.357-7.5,7.5s3.358,7.5,7.5,7.5h62.25c4.142,0,7.5-3.357,7.5-7.5s-3.358-7.5-7.5-7.5H153.247z
	"/>
<path d="M44.247,360.1h62.25c4.142,0,7.5-3.357,7.5-7.5s-3.358-7.5-7.5-7.5h-62.25c-4.142,0-7.5,3.357-7.5,7.5
	S40.105,360.1,44.247,360.1z"/>
<path d="M44.247,382.1h62.25c4.142,0,7.5-3.357,7.5-7.5s-3.358-7.5-7.5-7.5h-62.25c-4.142,0-7.5,3.357-7.5,7.5
	S40.105,382.1,44.247,382.1z"/>
<path d="M106.497,420.5h-62.25c-4.142,0-7.5,3.357-7.5,7.5s3.358,7.5,7.5,7.5h62.25c4.142,0,7.5-3.357,7.5-7.5
	S110.639,420.5,106.497,420.5z"/>
<g>
</g>
<g>
</g>
<g>
</g>
<g>
</g>
<g>
</g>
<g>
</g>
<g>
</g>
<g>
</g>
<g>
</g>
<g>
</g>
<g>
</g>
<g>
</g>
<g>
</g>
<g>
</g>
<g>
</g>
</svg>
