<?xml version="1.0" encoding="iso-8859-1"?>
<!-- Generator: Adobe Illustrator 19.0.0, SVG Export Plug-In . SVG Version: 6.00 Build 0)  -->
<svg version="1.1" id="Capa_1" xmlns="http://www.w3.org/2000/svg" xmlns:xlink="http://www.w3.org/1999/xlink" x="0px" y="0px"
	 viewBox="0 0 512 512" style="enable-background:new 0 0 512 512;" xml:space="preserve">
<path style="fill:#D2E3F1;" d="M336.939,371.95v109.812H175.061V371.95h27.036v0.17c0,9.95,2.705,19.282,7.415,27.286
	c9.361,15.928,26.677,26.617,46.488,26.617s37.126-10.689,46.488-26.617c4.711-8.004,7.415-17.336,7.415-27.286v-0.17H336.939z"/>
<g>
	<rect x="175.06" y="453.02" style="fill:#A5C6E3;" width="161.88" height="28.743"/>
	<path style="fill:#A5C6E3;" d="M202.097,372.12c0,9.95,2.705,19.282,7.415,27.286H175.06V371.95h27.036v0.17H202.097z"/>
	<path style="fill:#A5C6E3;" d="M336.939,371.95v27.455h-34.452c4.711-8.004,7.415-17.336,7.415-27.286v-0.17h27.037V371.95z"/>
</g>
<rect x="119.09" y="471.31" style="fill:#D2E3F1;" width="273.82" height="18.258"/>
<rect x="7.502" y="74.3" style="fill:#1E70AD;" width="497" height="307.38"/>
<rect x="487.16" y="74.3" style="fill:#0054A0;" width="17.339" height="307.38"/>
<rect x="7.5" y="74.29" style="fill:#D2E3F1;" width="497" height="276.9"/>
<path style="fill:#F9A13E;" d="M219.276,196.032c-8.539,17.512-21.19,27.392-21.19,27.392H86.871c0,0-15.333-6.988-23.407-25.804
	c-5.266-12.269-7.445-29.572-0.277-53.241C81.343,84.412,203,83.498,222.07,136.657C230.796,161,226.504,181.239,219.276,196.032z"
	/>
<g>
	<path style="fill:#E2780E;" d="M219.276,196.032c-8.539,17.512-21.19,27.392-21.19,27.392H168.41
		c0-18.097,14.726-32.815,32.822-32.815C207.891,190.609,214.1,192.601,219.276,196.032z"/>
	<path style="fill:#E2780E;" d="M116.54,223.424H86.871c0,0-15.333-6.988-23.407-25.804c5.58-4.389,12.621-7.011,20.261-7.011
		C101.821,190.609,116.54,205.327,116.54,223.424z"/>
</g>
<path style="fill:#FCE790;" d="M211.467,351.192H74.077c1.99-5.3,4.56-10.32,7.65-14.97c13.14-19.72,35.58-32.72,61.05-32.72
	c20.24,0,38.56,8.2,51.83,21.46c3.43,3.43,6.53,7.21,9.22,11.27C206.917,340.872,209.487,345.892,211.467,351.192z"/>
<g>
	<path style="fill:#FCCE99;" d="M142.779,325.608L142.779,325.608c-8.965,0-16.232-7.267-16.232-16.232V281.38h32.465v27.996
		C159.011,318.34,151.744,325.608,142.779,325.608z"/>
	<circle style="fill:#FCCE99;" cx="201.23" cy="223.43" r="21.583"/>
	<circle style="fill:#FCCE99;" cx="83.72" cy="223.43" r="21.583"/>
</g>
<path style="fill:#FEE6CC;" d="M201.231,165.829l-2.434,29.19l-0.367,4.352l-3.768,45.144c-0.135,1.633-0.345,3.243-0.629,4.824
	c-4.374,24.748-25.961,43.181-51.563,43.181c-25.437,0-46.912-18.216-51.466-42.739c-0.33-1.723-0.562-3.483-0.712-5.266
	l-3.947-47.339l-0.225-2.666l-2.397-28.68h117.508V165.829z"/>
<g>
	<path style="fill:#FCCE99;" d="M88.196,219.377l2.096,25.137c0.15,1.783,0.382,3.543,0.712,5.266
		c5.708,3.865,12.584,6.12,19.977,6.12c13.408,0,25.1-7.423,31.219-18.374c6.112,10.951,17.812,18.374,31.219,18.374
		c7.67,0,14.786-2.427,20.613-6.561c0.285-1.58,0.494-3.191,0.629-4.824l2.098-25.137L88.196,219.377L88.196,219.377z"/>
	<path style="fill:#FCCE99;" d="M201.23,165.832l-2.798,33.535c-8.977,1.69-18.089,2.535-27.321,2.535
		c-30.382,0-54.687-9.24-67.434-15.355c-4.216,3.498-9.994,7.459-17.335,10.63l-2.617-31.346L201.23,165.832L201.23,165.832z"/>
</g>
<path style="fill:#F9A13E;" d="M190.327,149.035c18.171,13.74,49.971,20.34,49.971,20.34
	c-73.594,42.256-139.011,0.446-139.011,0.446s-8.37,10.891-24.498,16.456v-37.242L190.327,149.035L190.327,149.035z"/>
<g>
	<circle style="fill:#FFF4EB;" cx="110.98" cy="220.16" r="24.503"/>
	<circle style="fill:#FFF4EB;" cx="173.42" cy="220.16" r="24.503"/>
</g>
<rect x="487.16" y="74.3" style="fill:#A5C6E3;" width="17.339" height="276.9"/>
<rect x="371.92" y="104.84" style="fill:#FE9700;" width="80.15" height="111.77"/>
<circle style="fill:#FEE6CC;" cx="412.39" cy="164.87" r="17.05"/>
<path style="fill:#1D71B8;" d="M377.688,216.617c0-19.164,15.535-34.699,34.699-34.699s34.699,15.535,34.699,34.699H377.688z"/>
<circle style="fill:#FF2796;" cx="330.37" cy="115.5" r="16.63"/>
<circle style="fill:#003A7F;" cx="256" cy="62.43" r="40"/>
<circle style="fill:#4FC247;" cx="256" cy="62.43" r="12.308"/>
<polygon style="fill:#1E70AD;" points="292.203,272.787 240.298,255.427 257.658,307.332 "/>
<path d="M114.614,227.558c4.142,0,7.5-3.357,7.5-7.5v-1.155c0-4.143-3.358-7.5-7.5-7.5s-7.5,3.357-7.5,7.5v1.155
	C107.114,224.201,110.472,227.558,114.614,227.558z"/>
<path d="M170.2,227.558c4.142,0,7.5-3.357,7.5-7.5v-1.155c0-4.143-3.358-7.5-7.5-7.5s-7.5,3.357-7.5,7.5v1.155
	C162.7,224.201,166.058,227.558,170.2,227.558z"/>
<path d="M160.858,265.917c3.291-2.516,3.919-7.223,1.404-10.514s-7.223-3.919-10.513-1.404c-1.993,1.524-5.136,2.434-8.408,2.434
	s-6.415-0.909-8.407-2.433c-3.291-2.517-7.998-1.888-10.513,1.403c-2.516,3.29-1.888,7.997,1.403,10.513
	c4.653,3.558,10.874,5.517,17.518,5.517C149.984,271.432,156.205,269.473,160.858,265.917z"/>
<path d="M504.5,66.799h-17.07c-4.142,0-7.5,3.357-7.5,7.5s3.358,7.5,7.5,7.5H497v261.895H216.481
	c-4.003-8.942-9.549-17.019-16.568-24.047c-9.389-9.39-20.843-16.264-33.402-20.107V295c5.999-2.63,11.578-6.249,16.501-10.778
	c9.243-8.503,15.489-19.572,18.041-31.72c0.059,0,0.118,0.007,0.177,0.007c16.035,0,29.08-13.045,29.08-29.08
	c0-7.226-2.654-13.84-7.029-18.932c3.638-6.365,6.94-13.912,8.997-22.51c3.889-1.817,7.81-3.843,11.754-6.108
	c2.7-1.55,4.16-4.608,3.671-7.684c-0.49-3.074-2.83-5.527-5.878-6.163c-0.093-0.019-2.995-0.636-7.442-1.838
	c-0.344-8.109-1.935-16.822-5.254-26.077c-5.157-14.374-16.909-26.065-33.983-33.811c-14.879-6.749-33.463-10.209-52.327-9.726
	c-43.574,1.102-77.648,21.366-86.808,51.626c-9.249,30.559-3.793,51.542,3.753,64.756c-3.229,4.686-5.125,10.358-5.125,16.466
	c0,16.035,13.045,29.08,29.08,29.08c0.062,0,0.124-0.007,0.186-0.007c2.551,12.146,8.797,23.217,18.041,31.72
	c5.086,4.678,10.874,8.378,17.099,11.027v4.294c-22.277,6.801-40.436,22.822-49.984,44.15H15V81.799h197.644
	c7.428,16.562,24.061,28.133,43.356,28.133s35.928-11.571,43.356-28.133H459.57c4.142,0,7.5-3.357,7.5-7.5s-3.358-7.5-7.5-7.5
	H303.291c0.132-1.439,0.209-2.894,0.209-4.367c0-26.191-21.309-47.5-47.5-47.5s-47.5,21.309-47.5,47.5
	c0,1.473,0.077,2.928,0.209,4.367H7.5c-4.142,0-7.5,3.357-7.5,7.5v307.38c0,4.143,3.358,7.5,7.5,7.5h17.57
	c4.142,0,7.5-3.357,7.5-7.5s-3.358-7.5-7.5-7.5H15v-15.485h482v15.485H308.894c-0.011,0-0.023,0-0.034,0H203.138
	c-0.007,0-0.014,0-0.022,0H52.93c-4.142,0-7.5,3.357-7.5,7.5s3.358,7.5,7.5,7.5h114.63v74.631h-48.47c-4.142,0-7.5,3.357-7.5,7.5
	v18.258c0,4.143,3.358,7.5,7.5,7.5h229.984c4.142,0,7.5-3.357,7.5-7.5s-3.358-7.5-7.5-7.5H126.59v-3.258h258.82v3.258h-8.484
	c-4.142,0-7.5,3.357-7.5,7.5s3.358,7.5,7.5,7.5h15.984c4.142,0,7.5-3.357,7.5-7.5V471.31c0-4.143-3.358-7.5-7.5-7.5h-48.47v-74.631
	H504.5c4.142,0,7.5-3.357,7.5-7.5V74.299C512,70.157,508.642,66.799,504.5,66.799z M256,29.932c17.92,0,32.5,14.579,32.5,32.5
	s-14.58,32.5-32.5,32.5s-32.5-14.579-32.5-32.5S238.08,29.932,256,29.932z M134.046,305.275c0-0.057,0.002-0.113,0-0.169v-5.67
	c2.776,0.393,5.593,0.594,8.434,0.594c3.046,0,6.062-0.241,9.031-0.692v5.8c-0.001,0.026,0,0.052,0,0.078v4.16
	c0,4.815-3.917,8.732-8.732,8.732s-8.732-3.917-8.732-8.732v-4.101H134.046z M142.309,212.661h-0.222
	c-3.385-14.039-16.043-24.503-31.107-24.503c-6.427,0-12.412,1.911-17.431,5.185l-0.553-6.619c4.118-2.613,7.367-5.303,9.71-7.503
	c7.134,3.716,20.863,9.904,39.001,13.575c3.795,0.768,7.918,1.435,12.299,1.943C148.267,199.132,144.056,205.419,142.309,212.661z
	 M93.978,220.161c0-1.755,0.268-3.448,0.763-5.041c0.011-0.033,0.025-0.066,0.036-0.1c2.185-6.869,8.62-11.862,16.204-11.862
	c9.375,0,17.003,7.628,17.003,17.003s-7.627,17.003-17.003,17.003S93.978,229.536,93.978,220.161z M173.416,203.158
	c9.375,0,17.003,7.628,17.003,17.003s-7.627,17.003-17.003,17.003s-17.003-7.628-17.003-17.003S164.041,203.158,173.416,203.158z
	 M202.785,237.418l0.476-5.726c1.388-3.581,2.158-7.467,2.158-11.532c0-2.217-0.227-4.382-0.659-6.473l0.317-3.8
	c5.897,1.681,10.233,7.108,10.233,13.542C215.31,230.667,209.819,236.641,202.785,237.418z M210.854,195.984
	c-1.456-0.513-2.965-0.91-4.516-1.186l0.299-3.584c2.495-0.642,5.016-1.362,7.559-2.166
	C213.166,191.51,212.037,193.825,210.854,195.984z M70.368,146.552c8.812-29.108,44.74-40.267,72.831-40.977
	c29.465-0.745,63.111,9.357,71.812,33.605c2.015,5.62,3.249,10.993,3.878,16.107c-8.304-3.052-17.289-7.133-24.038-12.236
	c-3.305-2.499-8.008-1.846-10.506,1.459c-2.498,3.304-1.845,8.008,1.459,10.506c9.625,7.278,22.487,12.622,33.132,16.188
	c-0.011,0.089-0.019,0.18-0.03,0.269c-6.695,2.702-13.487,4.805-20.362,6.334c-0.432,0.061-0.855,0.154-1.262,0.286
	c-16.884,3.574-34.272,3.626-52.02,0.114c-24.043-4.758-39.791-14.616-39.935-14.707c-3.278-2.095-7.615-1.336-9.986,1.749
	c-0.07,0.092-7.378,9.238-20.997,13.937c-3.916,1.351-5.995,5.62-4.644,9.536c1.269,3.677,5.11,5.733,8.816,4.852l0.102,1.222
	c-2.508,0.446-4.907,1.212-7.15,2.26C64.694,183.519,64.307,166.577,70.368,146.552z M69.64,223.429
	c0-6.435,4.338-11.864,10.238-13.543l0.172,2.063c-0.697,2.622-1.073,5.374-1.073,8.212c0,4.698,1.026,9.159,2.853,13.182
	l0.341,4.076C75.134,236.645,69.64,230.669,69.64,223.429z M98.648,249.689c3.798,1.592,7.964,2.475,12.333,2.475
	c15.063,0,27.721-10.464,31.107-24.503h0.222c3.385,14.039,16.043,24.503,31.107,24.503c4.609,0,8.99-0.987,12.953-2.749
	c-4.334,20.363-22.627,35.615-43.889,35.615C121.313,285.03,103.086,269.914,98.648,249.689z M119.755,315.129
	c2.578,10.315,11.921,17.979,23.023,17.979c11.101,0,20.443-7.663,23.023-17.976c8.774,3.269,16.786,8.402,23.502,15.118
	c4.064,4.069,7.516,8.571,10.35,13.444H85.896C93.529,330.521,105.46,320.434,119.755,315.129z M299.169,389.179
	c-6.86,17.43-23.788,29.34-43.169,29.34s-36.308-11.91-43.169-29.34H299.169z M329.44,463.81H182.56v-74.631h14.448
	c7.486,26.033,31.358,44.34,58.992,44.34s51.506-18.306,58.992-44.34h14.448V463.81z"/>
<path d="M459.561,104.844c0-4.143-3.358-7.5-7.5-7.5h-80.146c-4.142,0-7.5,3.357-7.5,7.5v111.773c0,4.143,3.358,7.5,7.5,7.5h5.773
	h69.397h4.975c4.142,0,7.5-3.357,7.5-7.5L459.561,104.844L459.561,104.844z M444.561,112.344v77.012
	c-3.446-4.061-7.642-7.464-12.376-9.991c2.986-4.066,4.755-9.079,4.755-14.5c0-13.538-11.014-24.553-24.553-24.553
	s-24.553,11.015-24.553,24.553c0,5.42,1.769,10.433,4.755,14.5c-5.107,2.725-9.587,6.471-13.174,10.962v-77.983
	C379.415,112.344,444.561,112.344,444.561,112.344z M402.834,164.866c0-5.268,4.285-9.553,9.553-9.553s9.553,4.285,9.553,9.553
	s-4.285,9.553-9.553,9.553S402.834,170.133,402.834,164.866z M386.239,209.118c3.264-11.361,13.75-19.699,26.147-19.699
	s22.883,8.338,26.147,19.699H386.239z"/>
<path d="M306.24,115.5c0,13.306,10.825,24.13,24.13,24.13s24.13-10.824,24.13-24.13s-10.825-24.13-24.13-24.13
	C317.064,91.371,306.24,102.195,306.24,115.5z M339.5,115.5c0,5.034-4.096,9.13-9.13,9.13c-5.035,0-9.13-4.096-9.13-9.13
	s4.096-9.13,9.13-9.13C335.404,106.371,339.5,110.466,339.5,115.5z"/>
<path d="M452.061,234.932H423c-4.142,0-7.5,3.357-7.5,7.5s3.358,7.5,7.5,7.5h29.061c4.142,0,7.5-3.357,7.5-7.5
	S456.203,234.932,452.061,234.932z"/>
<path d="M452.061,259.432H423c-4.142,0-7.5,3.357-7.5,7.5s3.358,7.5,7.5,7.5h29.061c4.142,0,7.5-3.357,7.5-7.5
	S456.203,259.432,452.061,259.432z"/>
<path d="M452.061,283.933H423c-4.142,0-7.5,3.357-7.5,7.5s3.358,7.5,7.5,7.5h29.061c4.142,0,7.5-3.357,7.5-7.5
	S456.203,283.933,452.061,283.933z"/>
<path d="M256,82.24c10.922,0,19.808-8.886,19.808-19.808c0-10.923-8.886-19.809-19.808-19.809s-19.808,8.886-19.808,19.809
	C236.192,73.354,245.078,82.24,256,82.24z M256,57.624c2.651,0,4.808,2.157,4.808,4.809c0,2.652-2.157,4.807-4.808,4.807
	s-4.808-2.156-4.808-4.808S253.349,57.624,256,57.624z"/>
<path d="M294.582,265.675l-51.904-17.36c-2.696-0.902-5.673-0.201-7.682,1.809c-2.011,2.011-2.711,4.986-1.81,7.683l17.36,51.904
	c0.824,2.464,2.865,4.326,5.394,4.921c0.57,0.135,1.146,0.2,1.719,0.2c1.966,0,3.88-0.773,5.303-2.196l34.544-34.544
	c1.837-1.838,2.593-4.494,1.997-7.023C298.907,268.54,297.045,266.499,294.582,265.675z M260.926,293.458l-8.745-26.147
	l26.147,8.745L260.926,293.458z"/>
<g>
</g>
<g>
</g>
<g>
</g>
<g>
</g>
<g>
</g>
<g>
</g>
<g>
</g>
<g>
</g>
<g>
</g>
<g>
</g>
<g>
</g>
<g>
</g>
<g>
</g>
<g>
</g>
<g>
</g>
</svg>
