<?xml version="1.0" encoding="iso-8859-1"?>
<!-- Generator: Adobe Illustrator 19.0.0, SVG Export Plug-In . SVG Version: 6.00 Build 0)  -->
<svg version="1.1" id="Capa_1" xmlns="http://www.w3.org/2000/svg" xmlns:xlink="http://www.w3.org/1999/xlink" x="0px" y="0px"
	 viewBox="0 0 511.999 511.999" style="enable-background:new 0 0 511.999 511.999;" xml:space="preserve">
<path style="fill:#1E70AD;" d="M426.045,128.352l6.194,6.194c22.79,22.79,31.247,56.18,22.076,87.144
	c-16.101,54.369-45.927,104.418-86.246,144.738s-90.368,70.145-144.745,86.253c-30.964,9.171-64.354,0.714-87.144-22.076
	l-6.194-6.194c-14.701-14.701-14.701-38.544,0.007-53.252c0.127-0.127,0.255-0.24,0.382-0.368l-0.007-0.007l32.414-32.414
	c13.23-13.23,34.684-13.23,47.921,0.007l23.632,23.632c34.16-13.386,54.348-22.684,80.49-48.826s35.433-46.323,48.819-80.483
	l-23.632-23.632c-13.237-13.237-13.237-34.691,0-47.928l32.824-32.824C387.543,113.651,411.351,113.658,426.045,128.352z"/>
<g>
	<path style="fill:#0054A0;" d="M210.703,338.377l8.132,8.132l-83.375,83.375l-5.473-5.473
		c-14.701-14.701-14.701-38.544,0.007-53.252c0.127-0.127,0.255-0.24,0.382-0.368l-0.007-0.007l32.414-32.414
		C176.012,325.14,197.466,325.14,210.703,338.377z"/>
	<path style="fill:#0054A0;" d="M426.045,128.352l5.473,5.473L348.143,217.2l-8.132-8.132c-13.237-13.237-13.237-34.691,0-47.928
		l32.824-32.824C387.543,113.651,411.351,113.658,426.045,128.352z"/>
	<path style="fill:#0054A0;" d="M454.32,221.689c-16.11,54.37-45.93,104.42-86.25,144.74s-90.37,70.15-144.74,86.25
		c-30.96,9.17-64.35,0.71-87.14-22.07l-6.2-6.2c-0.67-0.67-1.3-1.35-1.91-2.06c22.65,20.57,54.47,27.92,84.06,19.15
		c54.37-16.11,104.42-45.93,144.74-86.25s70.15-90.37,86.25-144.75c8.77-29.62,1.41-61.45-19.19-84.1c0.72,0.62,1.43,1.27,2.11,1.95
		l6.19,6.2C455.03,157.339,463.49,190.729,454.32,221.689z"/>
</g>
<g>
	<path style="fill:#1E70AD;" d="M424.707,119.417l-94.061,94.061c-3.706,3.706-9.713,3.706-13.419,0l-12.046-12.046
		c-17.981-17.981-17.981-47.134,0-65.115l42.365-42.365c17.981-17.981,47.134-17.981,65.115,0l12.046,12.046
		C428.413,109.704,428.413,115.711,424.707,119.417z"/>
	<path style="fill:#1E70AD;" d="M213.557,330.567l-94.061,94.061c-3.706,3.706-9.713,3.706-13.419,0l-12.046-12.046
		c-17.981-17.981-17.981-47.134,0-65.115l42.365-42.365c17.981-17.981,47.134-17.981,65.115,0l12.046,12.046
		C217.263,320.854,217.263,326.862,213.557,330.567z"/>
</g>
<path d="M274.487,121.472c-1.187-3.97-5.367-6.229-9.333-5.038c-72.516,21.67-129.611,77.569-152.73,149.53
	c-1.267,3.943,0.903,8.167,4.847,9.435c0.763,0.245,1.535,0.361,2.296,0.361c3.17,0,6.117-2.027,7.139-5.208
	c21.606-67.25,74.969-119.492,142.744-139.747C273.417,129.62,275.673,125.441,274.487,121.472z"/>
<path d="M259.126,161.597c-47.953,14.33-85.709,51.295-100.999,98.883c-1.267,3.943,0.903,8.167,4.847,9.435
	c0.763,0.245,1.535,0.361,2.295,0.361c3.171,0,6.117-2.027,7.139-5.208c13.776-42.877,47.799-76.186,91.012-89.1
	c3.969-1.186,6.225-5.364,5.039-9.333C267.273,162.665,263.093,160.403,259.126,161.597z"/>
<path d="M81.129,274.034C110.239,183.426,182.135,113.04,273.45,85.75c3.969-1.186,6.225-5.364,5.039-9.333
	c-1.187-3.97-5.366-6.229-9.333-5.038c-46.827,13.993-90.159,39.526-125.311,73.838c-35.345,34.499-61.97,77.457-76.997,124.23
	c-1.267,3.943,0.903,8.167,4.847,9.435c0.763,0.245,1.535,0.361,2.296,0.361C77.161,279.242,80.107,277.215,81.129,274.034z"/>
<path d="M15.007,254.208c0.709-97.62,59.796-184.579,150.532-221.537c3.836-1.563,5.679-5.939,4.117-9.775
	c-1.563-3.837-5.94-5.677-9.775-4.117c-46.316,18.864-85.91,50.66-114.503,91.95C16.07,153.052,0.381,202.628,0.007,254.098
	c-0.353,48.545,12.938,95.881,38.436,136.89c1.421,2.285,3.87,3.541,6.376,3.541c1.352,0,2.72-0.365,3.953-1.132
	c3.518-2.187,4.596-6.812,2.409-10.329C27.183,344.472,14.674,299.912,15.007,254.208z"/>
<path d="M438.121,76.088C390.172,27.554,326.211,0.534,258.02,0.007c-22.512-0.171-44.869,2.598-66.482,8.241
	c-4.008,1.047-6.409,5.144-5.362,9.151c1.047,4.008,5.145,6.41,9.151,5.362c20.339-5.311,41.392-7.914,62.577-7.755
	C390.425,16.03,497.681,124.71,496.997,257.271c-0.683,132.212-108.779,239.733-240.998,239.728c-0.032,0-0.074,0-0.106,0
	c-41.684-0.019-82.756-10.847-118.777-31.313c-1.961-1.114-3.261-3.046-3.569-5.3c-0.313-2.299,0.444-4.559,2.079-6.199l7.739-7.773
	c16.13,11.373,35.335,17.404,54.916,17.404c9.068,0,18.219-1.293,27.179-3.947c3.972-1.177,6.238-5.35,5.062-9.321
	c-1.177-3.972-5.35-6.236-9.321-5.062c-28.317,8.389-58.861,0.655-79.707-20.181l-6.034-6.035l72.769-72.769l20.809,20.801
	c1.434,1.433,3.351,2.195,5.304,2.195c0.919,0,1.846-0.169,2.734-0.517c33.303-13.044,55.511-22.952,83.048-50.5
	c27.554-27.554,37.46-49.757,50.5-83.048c1.087-2.775,0.428-5.931-1.68-8.039l-20.804-20.804l15.073-15.073
	c2.929-2.93,2.929-7.678,0-10.607c-2.929-2.928-7.678-2.928-10.606,0l-27.263,27.264c-0.776,0.775-2.038,0.775-2.813,0l-9.473-9.473
	l96.873-96.873l9.473,9.472c0.482,0.482,0.583,1.031,0.583,1.407s-0.101,0.924-0.583,1.405l-46.932,46.932
	c-2.929,2.93-2.929,7.678,0,10.607c2.929,2.928,7.678,2.928,10.606,0l37.834-37.834l6.025,6.034
	c20.843,20.844,28.581,51.386,20.192,79.706c-15.758,53.183-44.93,102.136-84.362,141.566
	c-32.588,32.589-72.49,58.661-115.392,75.396c-3.859,1.506-5.767,5.854-4.262,9.713c1.156,2.964,3.989,4.776,6.989,4.776
	c0.906,0,1.829-0.166,2.724-0.515c44.819-17.483,86.504-44.72,120.547-78.764c41.194-41.193,71.671-92.341,88.138-147.913
	c9.952-33.599,0.769-69.838-23.963-94.569l-6.134-6.143c2.307-2.965,3.572-6.581,3.572-10.399c0-4.538-1.767-8.804-4.976-12.014
	l-12.046-12.043c-10.113-10.113-23.559-15.684-37.861-15.684s-27.748,5.57-37.861,15.683l-42.365,42.365
	c-10.113,10.113-15.683,23.559-15.683,37.861c0,14.302,5.569,27.748,15.683,37.861l12.046,12.046
	c3.312,3.312,7.662,4.967,12.012,4.967s8.701-1.655,12.013-4.967l1.583-1.583l17.326,17.326
	c-12.519,31.543-21.823,49.832-45.343,73.353c-23.503,23.513-41.799,32.819-73.351,45.342l-17.329-17.323l0.025-0.025
	c0-0.001,0-0.001,0-0.001c3.208-3.209,4.976-7.475,4.976-12.013s-1.768-8.804-4.976-12.013l-12.045-12.045
	c-20.876-20.875-54.845-20.874-75.722,0l-42.365,42.365c-10.113,10.113-15.683,23.559-15.683,37.861s5.569,27.748,15.683,37.861
	l12.046,12.046c3.312,3.312,7.662,4.967,12.012,4.967s8.701-1.655,12.013-4.967l0.054-0.054l6.035,6.036
	c0.295,0.295,0.596,0.581,0.894,0.872l-6.787,6.817c-4.96,4.982-7.261,11.838-6.311,18.809c0.944,6.925,4.96,12.872,11.021,16.315
	c38.273,21.748,81.906,33.253,126.181,33.272c0.043,0,0.07,0,0.113,0C396.434,511.99,511.27,397.782,511.996,257.35
	C512.349,189.039,486.113,124.666,438.121,76.088z M310.484,141.621l42.365-42.366c7.28-7.279,16.959-11.289,27.254-11.289
	c6.386,0,12.534,1.546,18.021,4.455l-94.474,94.474c-2.909-5.486-4.455-11.634-4.455-18.02
	C299.195,158.579,303.204,148.9,310.484,141.621z M99.334,352.771l42.365-42.365c7.514-7.515,17.384-11.271,27.255-11.271
	c6.198,0,12.395,1.483,18.01,4.446L92.5,398.045c-2.909-5.487-4.454-11.634-4.454-18.02
	C88.045,369.729,92.054,360.051,99.334,352.771z M111.38,419.325l-9.474-9.473l96.874-96.874l9.474,9.474
	c0.481,0.481,0.582,1.029,0.582,1.405s-0.101,0.925-0.583,1.407v-0.001l-94.061,94.062C113.417,420.1,112.155,420.1,111.38,419.325z
	"/>
<path d="M317.1,153.536c1.464,1.464,3.383,2.195,5.302,2.195c1.92,0,3.84-0.732,5.304-2.198c2.929-2.929,2.928-7.678-0.002-10.606
	l-1.175-1.175c-2.93-2.929-7.679-2.929-10.606,0.003c-2.929,2.929-2.928,7.678,0.002,10.606L317.1,153.536z"/>
<path d="M335.439,135.192c1.464,1.466,3.384,2.198,5.304,2.198c1.919,0,3.838-0.732,5.302-2.195
	c2.93-2.929,2.931-7.678,0.002-10.606l-1.175-1.176c-2.928-2.932-7.677-2.929-10.606-0.003c-2.93,2.929-2.931,7.678-0.002,10.606
	L335.439,135.192z"/>
<path d="M353.781,116.852c1.464,1.464,3.384,2.196,5.303,2.196s3.839-0.732,5.303-2.196c2.929-2.93,2.929-7.678,0-10.607
	l-1.175-1.175c-2.929-2.928-7.678-2.928-10.606,0c-2.929,2.93-2.929,7.678,0,10.607L353.781,116.852z"/>
<path d="M106.247,364.387c1.464,1.464,3.384,2.196,5.303,2.196s3.839-0.732,5.303-2.196c2.929-2.93,2.929-7.678,0-10.607
	l-1.175-1.175c-2.929-2.928-7.678-2.928-10.606,0c-2.929,2.93-2.929,7.678,0,10.607L106.247,364.387z"/>
<path d="M124.588,346.046c1.464,1.464,3.384,2.196,5.303,2.196c1.919,0,3.839-0.732,5.303-2.196c2.929-2.93,2.929-7.678,0-10.607
	l-1.175-1.175c-2.929-2.928-7.678-2.928-10.606,0c-2.929,2.93-2.929,7.678,0,10.607L124.588,346.046z"/>
<path d="M142.929,327.704c1.464,1.464,3.384,2.196,5.303,2.196s3.839-0.732,5.303-2.196c2.929-2.93,2.929-7.678,0-10.607
	l-1.175-1.175c-2.929-2.928-7.678-2.928-10.606,0c-2.929,2.93-2.929,7.678,0,10.607L142.929,327.704z"/>
<g>
</g>
<g>
</g>
<g>
</g>
<g>
</g>
<g>
</g>
<g>
</g>
<g>
</g>
<g>
</g>
<g>
</g>
<g>
</g>
<g>
</g>
<g>
</g>
<g>
</g>
<g>
</g>
<g>
</g>
</svg>
