<?xml version="1.0" encoding="iso-8859-1"?>
<!-- Generator: Adobe Illustrator 19.0.0, SVG Export Plug-In . SVG Version: 6.00 Build 0)  -->
<svg version="1.1" id="Capa_1" xmlns="http://www.w3.org/2000/svg" xmlns:xlink="http://www.w3.org/1999/xlink" x="0px" y="0px"
	 viewBox="0 0 511.999 511.999" style="enable-background:new 0 0 511.999 511.999;" xml:space="preserve">
<g>
	<path style="fill:#0054A0;" d="M60.999,88.246c0-23.121,17.312-41.865,38.667-41.865l0,0c21.355,0,38.667,18.743,38.667,41.865
		H60.999z"/>
	<ellipse style="fill:#0054A0;" cx="50.935" cy="137.868" rx="10.82" ry="11.714"/>
	<rect x="76.999" y="182.558" style="fill:#0054A0;" width="48.37" height="25.931"/>
	<path style="fill:#0054A0;" d="M324.879,71.297v184.98H173.837V71.297c0-18.79,15.23-34.02,34.02-34.02h83.002
		C309.649,37.277,324.879,52.507,324.879,71.297z"/>
</g>
<g>
	<rect x="173.839" y="185.378" style="fill:#003A7F;" width="151.04" height="19.54"/>
	<path style="fill:#003A7F;" d="M324.879,99.487v120.43h-32.6v-97.9c0-12.42,10.1-22.53,22.52-22.53
		C314.799,99.487,324.879,99.487,324.879,99.487z"/>
</g>
<rect x="30.799" y="231.998" style="fill:#D2E3F1;" width="450.4" height="220.49"/>
<g>
	<path style="fill:#A5C6E3;" d="M446.689,452.488h-110.5c-1.28-3.16-2.29-6.46-3.02-9.86c-3.35-15.56-0.43-31.5,8.21-44.88
		c11.03-17.07,29.76-27.27,50.11-27.27c11.47,0,22.63,3.3,32.3,9.55C448.199,395.788,457.239,426.508,446.689,452.488z"/>
	<rect x="30.798" y="231.998" style="fill:#A5C6E3;" width="450.4" height="30.993"/>
	<path style="fill:#A5C6E3;" d="M438.55,204.92H307.274v-82.904c0-4.158,3.371-7.529,7.529-7.529H431.02
		c4.158,0,7.529,3.371,7.529,7.529v82.904H438.55z"/>
</g>
<rect x="307.269" y="185.378" style="fill:#5A9BCC;" width="131.28" height="19.539"/>
<circle style="fill:#FCE790;" cx="375.789" cy="159.708" r="11.515"/>
<rect x="7.499" y="201.978" style="fill:#D2E3F1;" width="497" height="43.01"/>
<circle style="fill:#F9A13E;" cx="391.449" cy="430.099" r="44.607"/>
<path d="M356.774,159.704c0,10.485,8.53,19.015,19.015,19.015s19.015-8.53,19.015-19.015s-8.53-19.015-19.015-19.015
	S356.774,149.219,356.774,159.704z M379.804,159.704c0,2.214-1.801,4.015-4.015,4.015s-4.015-1.801-4.015-4.015
	s1.801-4.015,4.015-4.015S379.804,157.49,379.804,159.704z"/>
<path d="M504.499,194.481h-20.573c-4.143,0-7.5,3.358-7.5,7.5s3.357,7.5,7.5,7.5h13.073v28.011h-15.781
	c-0.006,0-0.013-0.001-0.019-0.001s-0.013,0.001-0.019,0.001H30.818c-0.006,0-0.013-0.001-0.019-0.001s-0.013,0.001-0.019,0.001
	H14.999v-28.011h61.99c0.003,0,0.006,0,0.01,0s0.006,0,0.01,0h48.351c0.003,0,0.006,0,0.01,0s0.006,0,0.01,0h181.891
	c0.003,0,0.006,0,0.01,0s0.006,0,0.01,0h131.25c0.003,0,0.006,0,0.01,0s0.006,0,0.01,0h17.514c4.143,0,7.5-3.358,7.5-7.5
	s-3.357-7.5-7.5-7.5h-10.026v-72.47c0-8.282-6.742-15.02-15.03-15.02h-23.59c-4.143,0-7.5,3.358-7.5,7.5s3.357,7.5,7.5,7.5
	l23.62,0.02v72.47H314.781l0.018-72.49h64.771c4.143,0,7.5-3.358,7.5-7.5s-3.357-7.5-7.5-7.5h-47.193V71.297
	c0-22.894-18.625-41.519-41.519-41.519h-82.999c-22.894,0-41.519,18.625-41.519,41.519v123.185h-33.471v-11.93
	c0-4.142-3.357-7.5-7.5-7.5h-23.235l-35.922-26.598c1.919-3.037,3.043-6.672,3.043-10.581c0-4.804-1.702-9.191-4.491-12.564
	l24.433-29.564h49.135c4.143,0,7.5-3.358,7.5-7.5c0-27.22-20.71-49.364-46.166-49.364c-25.457,0-46.167,22.145-46.167,49.365
	c0,4.142,3.357,7.5,7.5,7.5h8.739l-18.943,22.921c-10.036,0.081-18.178,8.662-18.178,19.207c0,10.595,8.218,19.215,18.319,19.215
	c0.545,0,1.082-0.037,1.615-0.086l24.382,18.053c-4.111,0.036-7.433,3.377-7.433,7.497v11.93h-62c-4.143,0-7.5,3.358-7.5,7.5v43.011
	c0,4.142,3.357,7.5,7.5,7.5h15.8v40.069c0,4.142,3.357,7.5,7.5,7.5s7.5-3.358,7.5-7.5v-40.069h435.4v192.499h-32.309
	c2.49-8.304,2.871-17.145,0.996-25.855c-2.927-13.607-10.978-25.26-22.669-32.812s-25.622-10.098-39.23-7.172
	c-13.606,2.927-25.26,10.978-32.812,22.669s-10.1,25.624-7.172,39.23c0.287,1.335,0.638,2.645,1.022,3.94H38.299v-124.57
	c0-4.142-3.357-7.5-7.5-7.5s-7.5,3.358-7.5,7.5v132.07c0,4.142,3.357,7.5,7.5,7.5h317.945c3.813,5.445,8.678,10.156,14.429,13.872
	c8.529,5.51,18.25,8.355,28.168,8.355c3.677,0,7.382-0.391,11.063-1.183c12.963-2.788,24.145-10.236,31.705-21.044h47.09
	c4.143,0,7.5-3.358,7.5-7.5v-200h15.8c4.143,0,7.5-3.358,7.5-7.5v-43.011C511.999,197.839,508.642,194.481,504.499,194.481z
	 M99.666,53.881c14.849,0,27.307,11.511,30.418,26.864H85.683c-0.005,0-0.01,0-0.015,0H69.247
	C72.358,65.392,84.816,53.881,99.666,53.881z M314.799,106.992c-8.282,0-15.02,6.738-15.02,15.02v21.192H181.34v-42.216h136.036
	v6.004H314.799z M207.858,44.778h82.999c14.622,0,26.519,11.896,26.519,26.519v14.69H181.34v-14.69
	C181.34,56.674,193.236,44.778,207.858,44.778z M181.34,158.204h118.439v36.278H181.34V158.204z M50.936,133.659
	c1.799,0,3.319,1.93,3.319,4.214s-1.521,4.215-3.319,4.215s-3.319-1.93-3.319-4.215S49.137,133.659,50.936,133.659z M84.499,190.052
	h15.098c0.021,0,0.042,0.005,0.063,0.005c0.029,0,0.057-0.005,0.085-0.005h18.124v4.43h-33.37V190.052z M424.182,412.609
	c-6.695,4.19-13.217,10.259-18.841,17.533l-3.527-2.278l15.653-24.233C420.162,406.271,422.418,409.294,424.182,412.609z
	 M426.047,443.518l-8.059-5.205c3.278-4.105,6.846-7.666,10.501-10.473C428.827,433.203,427.993,438.531,426.047,443.518z
	 M389.215,419.725l-3.28-2.119c4.346-8.169,7.203-16.666,8.254-24.534c3.655,0.266,7.244,1.089,10.674,2.428L389.215,419.725z
	 M373.287,409.436l-8.305-5.365c3.821-3.901,8.443-6.891,13.595-8.784C377.53,399.854,375.73,404.668,373.287,409.436z
	 M365.149,422.036c-3.345,4.19-6.991,7.811-10.723,10.641c-0.394-5.475,0.431-10.919,2.417-16.006L365.149,422.036z
	 M358.831,447.815c6.737-4.189,13.305-10.286,18.965-17.608l3.28,2.119l-15.653,24.233
	C362.792,453.98,360.577,451.038,358.831,447.815z M393.676,440.464l3.527,2.278c-4.32,8.12-7.171,16.56-8.235,24.383
	c-3.747-0.245-7.431-1.058-10.944-2.429L393.676,440.464z M409.85,450.911l8.059,5.206c-3.745,3.824-8.259,6.776-13.289,8.673
	C405.674,460.306,407.454,455.589,409.85,450.911z"/>
<g>
</g>
<g>
</g>
<g>
</g>
<g>
</g>
<g>
</g>
<g>
</g>
<g>
</g>
<g>
</g>
<g>
</g>
<g>
</g>
<g>
</g>
<g>
</g>
<g>
</g>
<g>
</g>
<g>
</g>
</svg>
