<?xml version="1.0" encoding="iso-8859-1"?>
<!-- Generator: Adobe Illustrator 19.0.0, SVG Export Plug-In . SVG Version: 6.00 Build 0)  -->
<svg version="1.1" id="Capa_1" xmlns="http://www.w3.org/2000/svg" xmlns:xlink="http://www.w3.org/1999/xlink" x="0px" y="0px"
	 viewBox="0 0 512 512" style="enable-background:new 0 0 512 512;" xml:space="preserve">
<rect x="26.26" y="68.631" style="fill:#D2E3F1;" width="459.47" height="274.43"/>
<g>
	<rect x="26.26" y="312.521" style="fill:#A5C6E3;" width="459.47" height="30.534"/>
	<path style="fill:#A5C6E3;" d="M434.141,68.628v19.229c0,4.659-3.781,8.441-8.441,8.441H318.792v13.303
		c0,4.659-3.781,8.441-8.441,8.441H201.649c-4.659,0-8.441-3.781-8.441-8.441V96.298H86.3c-4.659,0-8.441-3.781-8.441-8.441V68.628
		H434.141z"/>
</g>
<g>
	<rect x="207.08" y="67.231" style="fill:#5A9BCC;" width="97.84" height="36.936"/>
	<rect x="91.73" y="53.937" style="fill:#5A9BCC;" width="328.54" height="28.488"/>
</g>
<rect x="7.5" y="329.281" style="fill:#1E70AD;" width="497" height="28.488"/>
<rect x="235.91" y="225.081" style="fill:#FF2796;" width="34.942" height="61.17"/>
<rect x="290.92" y="186.23" style="fill:#FEC007;" width="34.942" height="100.02"/>
<g>
	<rect x="345.93" y="155.23" style="fill:#8AE46D;" width="34.942" height="131.02"/>
	<rect x="400.94" y="124.231" style="fill:#8AE46D;" width="34.942" height="162.02"/>
</g>
<path style="fill:#D2E3F1;" d="M126.652,409.77v48.295H26.928V409.77c0-10.201,3.065-19.692,8.325-27.593
	c8.939-13.422,24.204-22.266,41.54-22.266c7.744,0,15.086,1.77,21.63,4.924c5.081,2.451,9.687,5.734,13.629,9.676
	c2.339,2.334,4.444,4.908,6.276,7.672c0.028,0.045,0.061,0.095,0.089,0.14C123.62,390.195,126.652,399.63,126.652,409.77z"/>
<path style="fill:#FEE6CC;" d="M114.65,305.637l-2.074,24.863l-0.487,5.858c-1.535,18.466-16.973,32.659-35.511,32.659
	c-18.517,0-33.955-14.194-35.5-32.659l-0.975-11.716l-1.711-20.498L114.65,305.637z"/>
<path style="fill:#FCCE99;" d="M114.65,305.637l-2.074,24.863c-9.746-0.425-19.233-2.125-26.49-3.774
	c-0.933,4.168-4.635,7.03-8.782,7.03c-0.487,0-0.975-0.031-1.462-0.114l-3.193-0.518c-14.64-2.395-25.111-5.474-32.545-8.481
	l-1.711-20.498L114.65,305.637z"/>
<path style="fill:#F9A13E;" d="M33.009,306.325c0,0,7.454,8.933,41.646,14.517l2.135-9.492c0,0,23.611,7.817,44.584,6.7v-11.725
	c0-20.221-16.392-36.613-36.613-36.613H69.622C49.401,269.711,33.009,286.104,33.009,306.325L33.009,306.325z"/>
<path style="fill:#D2E3F1;" d="M249.469,409.77v48.295h-99.724V409.77c0-10.201,3.065-19.692,8.325-27.593
	c8.939-13.422,24.204-22.266,41.54-22.266c7.744,0,15.086,1.77,21.63,4.924c5.081,2.451,9.687,5.734,13.629,9.676
	c2.339,2.334,4.444,4.908,6.276,7.672c0.028,0.045,0.061,0.095,0.089,0.14C246.437,390.195,249.469,399.63,249.469,409.77z"/>
<path style="fill:#FEE6CC;" d="M237.467,305.637l-2.074,24.863l-0.487,5.858c-1.535,18.466-16.973,32.659-35.511,32.659
	c-18.517,0-33.955-14.194-35.5-32.659l-0.975-11.716l-1.711-20.498L237.467,305.637z"/>
<path style="fill:#FCCE99;" d="M237.467,305.637l-2.074,24.863c-9.746-0.425-19.233-2.125-26.49-3.774
	c-0.933,4.168-4.635,7.03-8.782,7.03c-0.487,0-0.975-0.031-1.462-0.114l-3.193-0.518c-14.64-2.395-25.111-5.474-32.545-8.481
	l-1.711-20.498L237.467,305.637z"/>
<path style="fill:#0054A0;" d="M155.826,306.325c0,0,7.454,8.933,41.646,14.517l2.135-9.492c0,0,23.611,7.817,44.584,6.7v-11.725
	c0-20.221-16.392-36.613-36.613-36.613h-15.139C172.218,269.711,155.826,286.104,155.826,306.325L155.826,306.325z"/>
<path style="fill:#D2E3F1;" d="M372.286,409.77v48.295h-99.724V409.77c0-10.201,3.065-19.692,8.325-27.593
	c8.939-13.422,24.204-22.266,41.54-22.266c7.744,0,15.086,1.77,21.63,4.924c5.081,2.451,9.687,5.734,13.629,9.676
	c2.339,2.334,4.444,4.908,6.276,7.672c0.028,0.045,0.061,0.095,0.089,0.14C369.254,390.195,372.286,399.63,372.286,409.77z"/>
<path style="fill:#FEE6CC;" d="M360.284,305.637L358.21,330.5l-0.487,5.858c-1.535,18.466-16.973,32.659-35.511,32.659
	c-18.517,0-33.955-14.194-35.5-32.659l-0.975-11.716l-1.711-20.498L360.284,305.637z"/>
<path style="fill:#FCCE99;" d="M360.284,305.637L358.21,330.5c-9.746-0.425-19.233-2.125-26.49-3.774
	c-0.933,4.168-4.635,7.03-8.782,7.03c-0.487,0-0.975-0.031-1.462-0.114l-3.193-0.518c-14.64-2.395-25.111-5.474-32.545-8.481
	l-1.711-20.498L360.284,305.637z"/>
<path style="fill:#0054A0;" d="M278.643,306.325c0,0,7.454,8.933,41.646,14.517l2.135-9.492c0,0,23.611,7.817,44.584,6.7v-11.725
	c0-20.221-16.392-36.613-36.613-36.613h-15.139C295.035,269.711,278.643,286.104,278.643,306.325L278.643,306.325z"/>
<path d="M26.26,209.571c4.142,0,7.5-3.358,7.5-7.5V76.131h50.47v6.295c0,4.142,3.358,7.5,7.5,7.5h107.85v14.245
	c0,4.142,3.358,7.5,7.5,7.5h97.84c4.142,0,7.5-3.358,7.5-7.5V89.926h107.851c4.142,0,7.5-3.358,7.5-7.5v-6.295h50.47v35.94
	c0,4.142,3.358,7.5,7.5,7.5s7.5-3.358,7.5-7.5v-43.44c0-4.142-3.358-7.5-7.5-7.5h-57.97v-7.193c0-4.142-3.358-7.5-7.5-7.5h-47.894
	c-4.142,0-7.5,3.358-7.5,7.5s3.358,7.5,7.5,7.5h40.394v7.184c0,0.003,0,0.006,0,0.01c0,0.004,0,0.006,0,0.01v6.285H305.017
	c-0.033,0-0.064-0.005-0.097-0.005s-0.064,0.004-0.097,0.005h-97.646c-0.033,0-0.064-0.005-0.097-0.005s-0.064,0.004-0.097,0.005
	H99.229v-6.286c0-0.003,0-0.006,0-0.01c0-0.004,0-0.006,0-0.01v-7.184h245.393c4.142,0,7.5-3.358,7.5-7.5s-3.358-7.5-7.5-7.5H91.729
	c-4.142,0-7.5,3.358-7.5,7.5v7.193H26.26c-4.142,0-7.5,3.358-7.5,7.5v133.44C18.76,206.213,22.118,209.571,26.26,209.571z
	 M297.42,96.671h-82.84v-6.745h82.84V96.671z"/>
<path d="M504.5,321.781h-11.26V139.93c0-4.142-3.358-7.5-7.5-7.5s-7.5,3.358-7.5,7.5v181.85H373.506
	c0.634-1.102,1.002-2.374,1.002-3.731v-11.725c0-4.368-0.648-8.586-1.836-12.574h28.213c0.02,0,0.038,0.003,0.058,0.003
	s0.038-0.003,0.058-0.003h34.826c0.02,0,0.038,0.003,0.058,0.003s0.038-0.003,0.058-0.003h13.977c4.142,0,7.5-3.358,7.5-7.5
	s-3.358-7.5-7.5-7.5h-6.535V124.234c0-4.142-3.358-7.5-7.5-7.5h-34.942c-4.142,0-7.5,3.358-7.5,7.5v154.517h-5.073V155.23
	c0-4.142-3.358-7.5-7.5-7.5h-34.94c-4.142,0-7.5,3.358-7.5,7.5v107.727c-1.66-0.307-3.351-0.521-5.07-0.636V186.23
	c0-4.142-3.358-7.5-7.5-7.5h-34.94c-4.142,0-7.5,3.358-7.5,7.5v89.606c-0.895,0.934-1.75,1.905-2.561,2.914h-2.505v-53.671
	c0-4.142-3.358-7.5-7.5-7.5h-34.942c-4.142,0-7.5,3.358-7.5,7.5v42.373c-5.752-3.095-12.266-4.944-19.182-5.2V158.68
	c0-4.142-3.358-7.5-7.5-7.5s-7.5,3.358-7.5,7.5v103.53h-1.791c-24.324,0-44.113,19.789-44.113,44.113
	c0,1.756,0.616,3.457,1.742,4.805c0.494,0.593,1.811,1.974,4.518,3.765l0.574,6.886h-27.287c0.634-1.102,1.002-2.374,1.002-3.731
	v-11.725c0-24.324-19.789-44.113-44.113-44.113h-15.14c-14.766,0-27.851,7.3-35.862,18.474V229.93c0-4.142-3.358-7.5-7.5-7.5
	s-7.5,3.358-7.5,7.5v91.85H7.5c-4.142,0-7.5,3.358-7.5,7.5v28.49c0,4.142,3.358,7.5,7.5,7.5h33.083
	c-4.445,3.618-8.347,7.901-11.576,12.753c-6.266,9.411-9.577,20.388-9.577,31.747v48.29c0,4.142,3.358,7.5,7.5,7.5h49.584
	c0.023,0,0.045,0.003,0.068,0.003s0.045-0.003,0.068-0.003h50c4.142,0,7.5-3.358,7.5-7.5v-48.29c0-11.281-3.273-22.2-9.468-31.577
	c-0.033-0.053-0.067-0.105-0.101-0.157c-2.114-3.188-4.55-6.163-7.228-8.829c-1.392-1.392-2.859-2.698-4.381-3.937h50.425
	c-4.439,3.615-8.34,7.899-11.57,12.753c-6.272,9.42-9.587,20.397-9.587,31.747v48.29c0,4.142,3.358,7.5,7.5,7.5h49.591
	c0.023,0,0.045,0.003,0.068,0.003s0.045-0.003,0.068-0.003h50.004c4.142,0,7.5-3.358,7.5-7.5v-48.29
	c0-11.239-3.25-22.114-9.4-31.459c-0.055-0.087-0.106-0.165-0.152-0.233c-0.009-0.014-0.018-0.028-0.027-0.042
	c-2.126-3.207-4.558-6.181-7.218-8.829c-1.392-1.392-2.859-2.698-4.381-3.937h50.425c-4.439,3.615-8.34,7.899-11.57,12.753
	c-6.272,9.419-9.587,20.397-9.587,31.747v48.29c0,4.142,3.358,7.5,7.5,7.5h49.588c0.023,0,0.045,0.003,0.068,0.003
	s0.045-0.003,0.068-0.003h50.006c4.142,0,7.5-3.358,7.5-7.5v-48.29c0-11.271-3.277-22.19-9.478-31.578
	c-0.033-0.053-0.067-0.105-0.101-0.157c-2.104-3.173-4.533-6.144-7.224-8.836c-1.394-1.39-2.859-2.694-4.379-3.93H504.5
	c4.142,0,7.5-3.358,7.5-7.5v-28.49C512,325.139,508.642,321.781,504.5,321.781z M322.269,361.52c-0.018,0-0.036-0.003-0.054-0.003
	c-0.017,0-0.034,0.002-0.051,0.003c-14.493-0.029-26.774-11.345-27.971-25.792l-1.137-13.639c6.52,2.187,15.012,4.356,26.023,6.154
	c0.408,0.067,0.814,0.099,1.216,0.099c3.449,0,6.53-2.386,7.31-5.855l0.392-1.741c5.758,1.485,14.091,3.313,23.146,4.265
	l-0.291,3.476c-0.003,0.027-0.004,0.054-0.007,0.081l-0.6,7.16C349.041,350.175,336.757,361.494,322.269,361.52z M270.796,293.751
	c0.02,0,0.038,0.003,0.058,0.003s0.038-0.003,0.058-0.003h2.067c-1.188,3.987-1.836,8.205-1.836,12.574
	c0,1.756,0.616,3.457,1.742,4.805c0.495,0.593,1.812,1.975,4.521,3.767l0.574,6.884h-27.29c0.634-1.102,1.002-2.374,1.002-3.731
	v-11.725c0-4.368-0.648-8.586-1.836-12.574H270.796z M330.395,277.211c16.053,0,29.113,13.06,29.113,29.113v4.27
	c-17.254-0.67-34.535-6.301-34.727-6.365c-2.01-0.666-4.209-0.45-6.051,0.593c-1.843,1.042-3.159,2.816-3.624,4.882l-0.558,2.482
	c-16.535-3.285-24.707-7.232-28.195-9.373c1.74-14.403,14.038-25.602,28.903-25.602H330.395z M242.384,336.973l0.016-0.192h36.83
	l0.016,0.189c0.388,4.689,1.546,9.16,3.329,13.301H239.05C240.834,346.131,241.993,341.661,242.384,336.973z M408.443,131.734
	h19.942v147.017h-19.942V131.734z M353.43,162.73h19.94v116.02h-8.578c-3.179-3.958-7.02-7.36-11.362-10.03V162.73z M318.36,193.73
	v68.48h-3.104c-5.96,0-11.645,1.195-16.836,3.346V193.73H318.36z M263.354,232.579v46.171h-19.942v-46.171H263.354z
	 M192.439,277.211h15.139c16.053,0,29.113,13.06,29.113,29.113v4.27c-17.254-0.67-34.534-6.301-34.727-6.365
	c-2.011-0.666-4.208-0.45-6.051,0.593c-1.843,1.042-3.159,2.816-3.624,4.882l-0.558,2.482c-16.535-3.285-24.707-7.232-28.195-9.373
	C165.276,288.41,177.575,277.211,192.439,277.211z M196.264,328.243c0.408,0.067,0.814,0.099,1.216,0.099
	c3.449,0,6.53-2.386,7.31-5.855l0.392-1.741c5.758,1.485,14.091,3.313,23.147,4.266l-0.892,10.716
	c-1.205,14.446-13.492,25.765-27.985,25.792c-0.018,0-0.035-0.003-0.053-0.003c-0.018,0-0.034,0.003-0.052,0.003
	c-14.486-0.028-26.768-11.346-27.973-25.792l-1.137-13.64C176.758,324.276,185.251,326.445,196.264,328.243z M156.426,336.974
	c0.391,4.688,1.55,9.157,3.334,13.297h-43.531c1.784-4.14,2.944-8.61,3.335-13.298l0.016-0.192h36.83L156.426,336.974z
	 M76.634,361.52c-0.017,0-0.034-0.003-0.052-0.003c-0.018,0-0.035,0.003-0.053,0.003c-14.487-0.027-26.77-11.345-27.975-25.792
	l-1.137-13.641c6.521,2.188,15.015,4.357,26.03,6.156c0.408,0.067,0.814,0.099,1.216,0.099c3.449,0,6.53-2.386,7.31-5.855
	l0.392-1.741c5.757,1.485,14.09,3.313,23.144,4.265l-0.892,10.717C103.411,350.174,91.125,361.492,76.634,361.52z M69.622,277.211
	h15.139c16.053,0,29.113,13.06,29.113,29.113v4.27c-17.254-0.67-34.534-6.301-34.727-6.365c-2.01-0.667-4.208-0.449-6.05,0.593
	c-1.843,1.042-3.159,2.816-3.624,4.882l-0.558,2.482c-16.535-3.285-24.707-7.232-28.195-9.373
	C42.459,288.41,54.758,277.211,69.622,277.211z M15,336.781h18.59l0.016,0.193c0.391,4.688,1.55,9.157,3.334,13.297H15V336.781z
	 M34.43,409.771c0-8.391,2.442-16.494,7.063-23.435c4.07-6.115,9.583-11.008,16.067-14.311c3.599,1.793,7.471,3.092,11.521,3.819
	v74.717H34.43V409.771z M119.15,409.771v40.79H84.082v-74.717c4.131-0.741,8.077-2.075,11.737-3.922
	c4.058,2.052,7.736,4.7,10.94,7.904c1.949,1.94,3.718,4.096,5.26,6.408c0.058,0.092,0.116,0.182,0.175,0.268
	C116.745,393.409,119.15,401.454,119.15,409.771z M157.24,409.771c0-8.381,2.446-16.484,7.073-23.435
	c4.076-6.125,9.588-11.018,16.064-14.313c3.599,1.793,7.471,3.093,11.522,3.82v74.717H157.24V409.771z M241.97,409.771v40.79
	h-35.071v-74.717c4.132-0.741,8.079-2.075,11.74-3.923c4.059,2.053,7.737,4.701,10.94,7.904c1.942,1.935,3.719,4.105,5.279,6.453
	c0.011,0.017,0.022,0.034,0.033,0.05c0.028,0.044,0.057,0.089,0.086,0.133C239.552,393.373,241.97,401.433,241.97,409.771z
	 M280.06,409.771c0-8.381,2.446-16.484,7.074-23.435c4.075-6.123,9.586-11.016,16.06-14.311c3.599,1.792,7.471,3.092,11.522,3.818
	v74.717H280.06V409.771z M364.79,409.771v40.79h-35.074v-74.716c4.133-0.741,8.08-2.076,11.741-3.924
	c4.045,2.046,7.724,4.696,10.93,7.894c1.954,1.954,3.724,4.114,5.263,6.422c0.057,0.091,0.115,0.179,0.172,0.264
	C362.381,393.418,364.79,401.464,364.79,409.771z M497,350.271H361.861c1.783-4.139,2.942-8.607,3.333-13.294l0.016-0.196H497
	V350.271z"/>
<path d="M146.105,161.133c0-4.142-3.358-7.5-7.5-7.5h-70.57c-4.142,0-7.5,3.358-7.5,7.5s3.358,7.5,7.5,7.5h70.57
	C142.747,168.633,146.105,165.275,146.105,161.133z"/>
<path d="M91.37,177.723H68.035c-4.142,0-7.5,3.358-7.5,7.5s3.358,7.5,7.5,7.5H91.37c4.142,0,7.5-3.358,7.5-7.5
	S95.512,177.723,91.37,177.723z"/>
<path d="M114.627,192.723h52.911c4.142,0,7.5-3.358,7.5-7.5s-3.358-7.5-7.5-7.5h-52.911c-4.142,0-7.5,3.358-7.5,7.5
	S110.485,192.723,114.627,192.723z"/>
<path d="M91.37,224.715H68.035c-4.142,0-7.5,3.358-7.5,7.5s3.358,7.5,7.5,7.5H91.37c4.142,0,7.5-3.358,7.5-7.5
	S95.512,224.715,91.37,224.715z"/>
<g>
</g>
<g>
</g>
<g>
</g>
<g>
</g>
<g>
</g>
<g>
</g>
<g>
</g>
<g>
</g>
<g>
</g>
<g>
</g>
<g>
</g>
<g>
</g>
<g>
</g>
<g>
</g>
<g>
</g>
</svg>
