<?xml version="1.0" encoding="iso-8859-1"?>
<!-- Generator: Adobe Illustrator 19.0.0, SVG Export Plug-In . SVG Version: 6.00 Build 0)  -->
<svg version="1.1" id="Capa_1" xmlns="http://www.w3.org/2000/svg" xmlns:xlink="http://www.w3.org/1999/xlink" x="0px" y="0px"
	 viewBox="0 0 512 512" style="enable-background:new 0 0 512 512;" xml:space="preserve">
<g>
	<polygon style="fill:#4FC247;" points="406.587,370.105 425.664,417.372 443.167,370.105 	"/>
	<path style="fill:#4FC247;" d="M436.125,101.167H413.63V76.784c0-6.212,5.036-11.247,11.247-11.247l0,0
		c6.212,0,11.247,5.036,11.247,11.247L436.125,101.167L436.125,101.167z"/>
</g>
<path style="fill:#8AE46D;" d="M443.164,100.715v269.386H406.59V100.715c0-2.795,2.266-5.061,5.061-5.061h26.453
	C440.898,95.655,443.164,97.92,443.164,100.715z"/>
<path style="fill:#4FC247;" d="M443.167,100.72v269.378h-12.493V100.72c0-2.796-2.263-5.07-5.06-5.07h12.493
	C440.893,95.651,443.167,97.924,443.167,100.72z"/>
<rect x="406.59" y="265.7" style="fill:#5A9BCC;" width="36.579" height="104.4"/>
<rect x="430.67" y="265.7" style="fill:#1E70AD;" width="12.492" height="104.4"/>
<rect x="401.06" y="116.33" style="fill:#0054A0;" width="47.628" height="104.4"/>
<rect x="430.67" y="116.33" style="fill:#003A7F;" width="18.02" height="104.4"/>
<rect x="42.648" y="7.544" style="fill:#D2E3F1;" width="320.96" height="496.91"/>
<g>
	<rect x="42.648" y="7.544" style="fill:#A5C6E3;" width="16.09" height="496.91"/>
	<rect x="347.51" y="7.544" style="fill:#A5C6E3;" width="16.09" height="496.91"/>
</g>
<rect x="94.99" y="57.37" style="fill:#0054A0;" width="216.27" height="34.2"/>
<g>
	<rect x="94.99" y="226.76" style="fill:#8AE46D;" width="47.659" height="47.659"/>
	<rect x="94.99" y="304.55" style="fill:#8AE46D;" width="47.659" height="47.659"/>
	<rect x="94.99" y="382.34" style="fill:#8AE46D;" width="47.659" height="47.659"/>
</g>
<path d="M469.351,104.722c-4.167,0-7.544,3.378-7.544,7.544v17.421h-5.571v-13.36c0-3.466-2.34-6.378-5.525-7.263v-8.345
	c0-4.952-2.877-9.233-7.041-11.293V76.78c0-5.029-1.961-9.75-5.495-13.268c-3.544-3.561-8.265-5.523-13.295-5.523
	c-10.361,0-18.79,8.429-18.79,18.79v12.648c-4.164,2.06-7.041,6.341-7.041,11.293v8.343c-3.187,0.882-5.529,3.796-5.529,7.264
	v104.399c0,3.468,2.343,6.381,5.529,7.264v13.764c0,0.033-0.005,0.064-0.005,0.097s0.004,0.065,0.005,0.097v23.657
	c0,0.033-0.005,0.064-0.005,0.097s0.004,0.065,0.005,0.097V369.89c-0.03,1.028,0.158,2.083,0.543,3.037l19.077,47.267
	c1.153,2.856,3.923,4.721,6.995,4.721c0.037,0,0.074,0,0.11-0.001c3.116-0.045,5.884-2.001,6.966-4.923l17.503-47.267
	c0.307-0.827,0.469-1.735,0.469-2.616v-36.222c0-4.167-3.378-7.544-7.544-7.544s-7.544,3.378-7.544,7.544v28.678h-21.486v-89.318
	h21.486v32.626c0,4.167,3.378,7.544,7.544,7.544s7.544-3.378,7.544-7.544v-77.884c3.184-0.884,5.525-3.797,5.525-7.263v-75.951
	h5.571V268.24c0,4.167,3.378,7.544,7.544,7.544s7.544-3.378,7.544-7.544V112.266C476.895,108.099,473.517,104.722,469.351,104.722z
	 M435.622,234.307h-21.486v-6.037h21.486V234.307z M414.137,103.205h21.486v5.578h-21.486V103.205z M441.147,137.581v75.601h-32.54
	v-89.31h32.54v13.009c-0.005,0.117-0.018,0.232-0.018,0.35C441.129,137.349,441.141,137.464,441.147,137.581z M424.88,73.078
	c0.985,0,1.908,0.382,2.625,1.103c0.694,0.691,1.077,1.614,1.077,2.599v11.336h-7.403V76.78
	C421.178,74.739,422.838,73.078,424.88,73.078z M425.361,396.464l-7.592-18.811h14.558L425.361,396.464z M414.137,258.158v-8.763
	h21.486v8.763H414.137z"/>
<path d="M363.605,466.661c-4.167,0-7.544,3.378-7.544,7.544v22.707H50.194V128.68c0-4.166-3.378-7.544-7.544-7.544
	s-7.544,3.378-7.544,7.544v375.776c0,4.166,3.378,7.544,7.544,7.544h320.956c4.167,0,7.544-3.378,7.544-7.544v-30.251
	C371.148,470.038,367.772,466.661,363.605,466.661z"/>
<path d="M363.605,0H42.648c-4.167,0-7.544,3.378-7.544,7.544v93.119c0,4.166,3.378,7.544,7.544,7.544s7.544-3.378,7.544-7.544
	V15.088H356.06v431.1c0,4.167,3.378,7.544,7.544,7.544s7.544-3.378,7.544-7.544V7.544C371.148,3.378,367.772,0,363.605,0z"/>
<path d="M318.805,57.365c0-4.167-3.378-7.544-7.544-7.544H94.994c-4.167,0-7.544,3.378-7.544,7.544v34.2
	c0,4.166,3.378,7.544,7.544,7.544H311.26c4.167,0,7.544-3.378,7.544-7.544V57.365z M303.717,84.022H102.538V64.91h201.179V84.022z"
	/>
<path d="M94.994,122.719h147.829c4.167,0,7.544-3.378,7.544-7.544s-3.378-7.544-7.544-7.544H94.994
	c-4.167,0-7.544,3.378-7.544,7.544S90.827,122.719,94.994,122.719z"/>
<path d="M311.26,107.631h-39.268c-4.167,0-7.544,3.378-7.544,7.544s3.378,7.544,7.544,7.544h39.268c4.167,0,7.544-3.378,7.544-7.544
	S315.427,107.631,311.26,107.631z"/>
<path d="M311.26,131.772H163.432c-4.167,0-7.544,3.378-7.544,7.544c0,4.167,3.378,7.544,7.544,7.544H311.26
	c4.167,0,7.544-3.378,7.544-7.544C318.805,135.15,315.427,131.772,311.26,131.772z"/>
<path d="M94.994,146.861h39.268c4.167,0,7.544-3.378,7.544-7.544s-3.378-7.544-7.544-7.544H94.994c-4.167,0-7.544,3.378-7.544,7.544
	C87.449,143.483,90.827,146.861,94.994,146.861z"/>
<path d="M183.492,246.064h87.335c4.167,0,7.544-3.378,7.544-7.544s-3.378-7.544-7.544-7.544h-87.335
	c-4.167,0-7.544,3.378-7.544,7.544S179.326,246.064,183.492,246.064z"/>
<path d="M311.26,230.976h-17.164c-4.167,0-7.544,3.378-7.544,7.544s3.378,7.544,7.544,7.544h17.164c4.167,0,7.544-3.378,7.544-7.544
	S315.427,230.976,311.26,230.976z"/>
<path d="M311.26,255.117h-87.335c-4.167,0-7.544,3.378-7.544,7.544s3.378,7.544,7.544,7.544h87.335c4.167,0,7.544-3.378,7.544-7.544
	S315.427,255.117,311.26,255.117z"/>
<path d="M183.492,270.206h17.164c4.167,0,7.544-3.378,7.544-7.544s-3.378-7.544-7.544-7.544h-17.164
	c-4.167,0-7.544,3.378-7.544,7.544S179.326,270.206,183.492,270.206z"/>
<path d="M183.492,323.854h87.335c4.167,0,7.544-3.378,7.544-7.544s-3.378-7.544-7.544-7.544h-87.335
	c-4.167,0-7.544,3.378-7.544,7.544S179.326,323.854,183.492,323.854z"/>
<path d="M311.26,308.765h-17.164c-4.167,0-7.544,3.378-7.544,7.544s3.378,7.544,7.544,7.544h17.164c4.167,0,7.544-3.378,7.544-7.544
	S315.427,308.765,311.26,308.765z"/>
<path d="M311.26,332.907h-87.335c-4.167,0-7.544,3.378-7.544,7.544s3.378,7.544,7.544,7.544h87.335c4.167,0,7.544-3.378,7.544-7.544
	S315.427,332.907,311.26,332.907z"/>
<path d="M183.492,347.995h17.164c4.167,0,7.544-3.378,7.544-7.544s-3.378-7.544-7.544-7.544h-17.164
	c-4.167,0-7.544,3.378-7.544,7.544S179.326,347.995,183.492,347.995z"/>
<path d="M278.372,394.099c0-4.167-3.378-7.544-7.544-7.544h-87.335c-4.167,0-7.544,3.378-7.544,7.544s3.378,7.544,7.544,7.544
	h87.335C274.995,401.643,278.372,398.265,278.372,394.099z"/>
<path d="M311.26,386.555h-17.164c-4.167,0-7.544,3.378-7.544,7.544s3.378,7.544,7.544,7.544h17.164c4.167,0,7.544-3.378,7.544-7.544
	S315.427,386.555,311.26,386.555z"/>
<path d="M223.925,425.784h87.335c4.167,0,7.544-3.378,7.544-7.544s-3.378-7.544-7.544-7.544h-87.335
	c-4.167,0-7.544,3.378-7.544,7.544S219.758,425.784,223.925,425.784z"/>
<path d="M183.492,410.696c-4.167,0-7.544,3.378-7.544,7.544s3.378,7.544,7.544,7.544h17.164c4.167,0,7.544-3.378,7.544-7.544
	s-3.378-7.544-7.544-7.544H183.492z"/>
<path d="M58.278,174.523c0,4.167,3.378,7.544,7.544,7.544h274.609c4.167,0,7.544-3.378,7.544-7.544s-3.378-7.544-7.544-7.544H65.823
	C61.656,166.978,58.278,170.356,58.278,174.523z"/>
<path d="M160.63,218.298c-2.946-2.946-7.723-2.946-10.669,0l-2.585,2.585c-1.293-1.04-2.934-1.666-4.723-1.666H94.994
	c-4.167,0-7.544,3.378-7.544,7.544v47.659c0,4.167,3.378,7.544,7.544,7.544h47.659c4.167,0,7.544-3.378,7.544-7.544V239.4
	l10.433-10.433C163.576,226.021,163.576,221.244,160.63,218.298z M135.107,266.876h-32.57v-32.571h31.415l-11.819,11.819
	l-3.573-3.572c-2.946-2.947-7.723-2.946-10.669,0s-2.946,7.723,0,10.669l8.907,8.907c1.473,1.473,3.404,2.21,5.334,2.21
	s3.861-0.737,5.334-2.21l7.639-7.64v12.388H135.107z"/>
<path d="M160.63,296.087c-2.946-2.946-7.723-2.946-10.669,0l-2.585,2.585c-1.293-1.04-2.934-1.666-4.723-1.666H94.994
	c-4.167,0-7.544,3.378-7.544,7.544v47.659c0,4.167,3.378,7.544,7.544,7.544h47.659c4.167,0,7.544-3.378,7.544-7.544v-35.021
	l10.433-10.433C163.576,303.81,163.576,299.033,160.63,296.087z M135.107,344.666h-32.57v-32.571h31.415l-11.819,11.819
	l-3.573-3.572c-2.946-2.947-7.723-2.946-10.669,0s-2.946,7.723,0,10.669l8.907,8.907c1.473,1.473,3.404,2.21,5.334,2.21
	s3.861-0.737,5.334-2.21l7.639-7.639v12.387H135.107z"/>
<path d="M149.96,373.876l-2.586,2.586c-1.293-1.04-2.934-1.666-4.723-1.666H94.994c-4.167,0-7.544,3.378-7.544,7.544v47.659
	c0,4.167,3.378,7.544,7.544,7.544h47.659c4.167,0,7.544-3.378,7.544-7.544v-35.021l10.433-10.433c2.946-2.946,2.946-7.723,0-10.669
	S152.906,370.93,149.96,373.876z M135.107,422.455h-32.57v-32.571h31.415l-11.819,11.819l-3.573-3.573
	c-2.946-2.946-7.723-2.946-10.669,0s-2.946,7.723,0,10.669l8.907,8.907c1.415,1.415,3.333,2.21,5.334,2.21s3.92-0.795,5.334-2.21
	l7.639-7.64v12.389H135.107z"/>
<g>
</g>
<g>
</g>
<g>
</g>
<g>
</g>
<g>
</g>
<g>
</g>
<g>
</g>
<g>
</g>
<g>
</g>
<g>
</g>
<g>
</g>
<g>
</g>
<g>
</g>
<g>
</g>
<g>
</g>
</svg>
