<?xml version="1.0" encoding="iso-8859-1"?>
<!-- Generator: Adobe Illustrator 19.0.0, SVG Export Plug-In . SVG Version: 6.00 Build 0)  -->
<svg version="1.1" id="Capa_1" xmlns="http://www.w3.org/2000/svg" xmlns:xlink="http://www.w3.org/1999/xlink" x="0px" y="0px"
	 viewBox="0 0 512 512" style="enable-background:new 0 0 512 512;" xml:space="preserve">
<path style="fill:#A5C6E3;" d="M386.497,284.351c-1.767,69.676-58.886,126.989-130.478,126.989c-7.415,0-14.67-0.608-21.718-1.802
	c-62.501-10.4-108.829-64.992-108.829-128.458c0-6.772,0.528-13.637,1.618-20.57l12.397-78.686l-1.354-105.271
	c-0.23-17.712,10.181-33.851,26.412-40.956l43.527-19.032c27.618-12.087,59.023-12.087,86.641,0l31.475,13.763l15.06,6.589
	c14.681,6.417,24.714,20.294,26.229,36.238l18.481,195.379C386.452,273.802,386.635,279.083,386.497,284.351z"/>
<g>
	<path style="fill:#5A9BCC;" d="M244.033,155.912c-19.348,0-35.088-15.741-35.088-35.088V76.067
		c0-19.347,15.741-35.087,35.088-35.087h14.766c19.347,0,35.087,15.74,35.087,35.087v44.757c0,19.347-15.741,35.088-35.087,35.088
		H244.033z"/>
	<path style="fill:#5A9BCC;" d="M386.497,284.351c-1.767,69.676-58.886,126.989-130.478,126.989c-7.415,0-14.67-0.608-21.718-1.802
		c76.62-0.367,136.493-66.416,129.273-142.795l-18.48-195.379c-1.09-11.433-9.068-29.408-18.905-41.036l15.06,6.589
		c14.681,6.417,24.714,20.294,26.229,36.238l18.481,195.379C386.452,273.802,386.635,279.083,386.497,284.351z"/>
</g>
<g>
	<path style="fill:#FEC007;" d="M258.799,140.99h-14.767c-11.137,0-20.165-9.028-20.165-20.165V76.068
		c0-11.137,9.028-20.165,20.165-20.165h14.767c11.137,0,20.165,9.028,20.165,20.165v44.757
		C278.964,131.962,269.936,140.99,258.799,140.99z"/>
	<path style="fill:#FEC007;" d="M273.603,306.391h-44.376c-4.863,0-8.804,3.942-8.804,8.804l0,0c0,4.863,3.942,8.804,8.804,8.804
		h44.376c4.863,0,8.804-3.942,8.804-8.804l0,0C282.408,310.333,278.466,306.391,273.603,306.391z"/>
</g>
<polygon style="fill:#5A9BCC;" points="305.352,450.529 251.381,504.5 197.41,450.529 "/>
<path d="M393.421,267.823l-12.949-136.889c-0.39-4.123-4.048-7.148-8.173-6.76c-4.124,0.39-7.15,4.049-6.761,8.173l5.006,52.914
	c-0.271,0.406-0.508,0.844-0.701,1.313c-19.096,46.317-63.774,76.245-113.826,76.245c-33.102,0-64.134-12.933-87.377-36.413
	c-9.361-9.467-17.098-20.298-22.992-32.193c-0.125-0.251-0.263-0.49-0.411-0.721l1.655-10.508c0.066-0.417,0.097-0.84,0.091-1.263
	L145.635,76.46c-0.188-14.741,8.417-28.083,21.923-33.99l43.52-19.038c10.475-4.582,21.58-7.288,32.8-8.124v33.097
	c-15.183,0.084-27.511,12.459-27.511,27.662v6.506c0,4.142,3.357,7.5,7.5,7.5s7.5-3.358,7.5-7.5v-6.506
	c0-6.984,5.682-12.666,12.666-12.666H258.8c6.983,0,12.665,5.682,12.665,12.666v44.756c0,6.984-5.682,12.666-12.665,12.666h-14.767
	c-6.984,0-12.666-5.682-12.666-12.666v-10.398c0-4.142-3.357-7.5-7.5-7.5s-7.5,3.358-7.5,7.5v10.398
	c0,15.203,12.327,27.577,27.511,27.662v72.344c0,4.142,3.357,7.5,7.5,7.5s7.5-3.358,7.5-7.5v-72.342
	c15.219-0.042,27.587-12.435,27.587-27.664V76.068c0-15.229-12.368-27.621-27.587-27.664V15.307
	c11.232,0.832,22.349,3.539,32.835,8.127l46.532,20.354c12.172,5.325,20.511,16.849,21.762,30.076l2.88,30.438
	c0.391,4.124,4.069,7.145,8.173,6.76c4.124-0.39,7.15-4.049,6.761-8.173l-2.88-30.438c-1.765-18.649-13.521-34.897-30.684-42.405
	L297.724,9.691c-14.486-6.338-30.021-9.55-45.572-9.651C251.897,0.014,251.639,0,251.377,0c-0.263,0-0.522,0.014-0.778,0.04
	c-15.538,0.106-31.059,3.318-45.533,9.651l-43.52,19.037c-19.042,8.33-31.175,27.141-30.909,47.925l1.339,104.626l-12.297,78.065
	c-5.656,35.902,2.828,71.948,23.89,101.498c1.464,2.053,3.771,3.147,6.114,3.147c1.506,0,3.026-0.452,4.347-1.393
	c3.373-2.404,4.158-7.087,1.754-10.46c-18.769-26.333-26.329-58.458-21.288-90.458l7.055-44.787
	c4.831,7.159,10.308,13.879,16.426,20.066c26.085,26.351,60.902,40.863,98.04,40.863c48.343,0,92.2-24.899,117.136-64.977
	l5.334,56.393c3.256,34.411-8.219,68.81-31.48,94.375c-23.262,25.566-56.427,40.229-90.991,40.229
	c-30.726,0-60.117-11.364-82.761-31.999c-3.06-2.79-7.804-2.57-10.596,0.492c-2.789,3.062-2.569,7.805,0.492,10.595
	c25.412,23.158,58.392,35.912,92.864,35.912c38.779,0,75.988-16.451,102.086-45.134
	C384.199,345.023,397.073,306.431,393.421,267.823z"/>
<path d="M273.604,331.5c8.99,0,16.305-7.314,16.305-16.305s-7.314-16.304-16.305-16.304h-44.376c-8.99,0-16.305,7.314-16.305,16.304
	s7.314,16.305,16.305,16.305H273.604z M227.923,315.195c0-0.719,0.585-1.304,1.305-1.304h44.376c0.72,0,1.305,0.585,1.305,1.304
	s-0.585,1.305-1.305,1.305h-44.376C228.508,316.5,227.923,315.915,227.923,315.195z"/>
<path d="M305.352,443.029H197.409c-3.033,0-5.769,1.827-6.929,4.63c-1.161,2.803-0.52,6.028,1.625,8.173l53.972,53.971
	c1.407,1.407,3.314,2.197,5.304,2.197s3.896-0.79,5.304-2.197l53.971-53.971c2.145-2.145,2.786-5.371,1.625-8.173
	C311.12,444.856,308.385,443.029,305.352,443.029z M251.381,493.894l-35.865-35.865h71.729L251.381,493.894z"/>
<g>
</g>
<g>
</g>
<g>
</g>
<g>
</g>
<g>
</g>
<g>
</g>
<g>
</g>
<g>
</g>
<g>
</g>
<g>
</g>
<g>
</g>
<g>
</g>
<g>
</g>
<g>
</g>
<g>
</g>
</svg>
