<?xml version="1.0" encoding="iso-8859-1"?>
<!-- Generator: Adobe Illustrator 19.0.0, SVG Export Plug-In . SVG Version: 6.00 Build 0)  -->
<svg version="1.1" id="Capa_1" xmlns="http://www.w3.org/2000/svg" xmlns:xlink="http://www.w3.org/1999/xlink" x="0px" y="0px"
	 viewBox="0 0 511.999 511.999" style="enable-background:new 0 0 511.999 511.999;" xml:space="preserve">
<path style="fill:#F9A13E;" d="M348.759,137.66c-11.345,23.266-28.153,36.392-28.153,36.392H172.848c0,0-20.371-9.285-31.098-34.283
	c-6.996-16.3-9.892-39.288-0.368-70.735c24.122-79.671,185.753-80.885,211.089-10.26C364.064,91.117,358.362,118.006,348.759,137.66
	z"/>
<g>
	<path style="fill:#E2780E;" d="M348.759,137.66c-11.345,23.266-28.153,36.392-28.153,36.392h-39.427
		c0-24.043,19.564-43.597,43.607-43.597C333.633,130.455,341.882,133.102,348.759,137.66z"/>
	<path style="fill:#E2780E;" d="M212.265,174.052h-39.418c0,0-20.371-9.285-31.098-34.283c7.414-5.832,16.768-9.315,26.919-9.315
		C192.711,130.455,212.265,150.01,212.265,174.052z"/>
</g>
<path style="fill:#D2E3F1;" d="M344.495,377.802v87.041H149.753v-87.041c0-19.917,5.987-38.458,16.26-53.885
	c17.455-26.206,47.27-43.48,81.117-43.48c26.882,0,51.23,10.9,68.853,28.512c4.563,4.563,8.679,9.584,12.252,14.98
	C338.508,339.355,344.495,357.885,344.495,377.802z"/>
<path style="fill:#5A9BCC;" d="M316.826,309.812l-35.51,33.369l-34.186-33.369l-34.186,33.369l-35.509-33.369
	c17.673-18.133,42.376-29.385,69.696-29.385c26.889,0,51.235,10.895,68.848,28.524C316.26,309.231,316.543,309.514,316.826,309.812z
	"/>
<g>
	<path style="fill:#FCCE99;" d="M247.126,309.812L247.126,309.812c-11.911,0-21.566-9.656-21.566-21.566v-37.194h43.132v37.194
		C268.692,300.156,259.037,309.812,247.126,309.812z"/>
	<circle style="fill:#FCCE99;" cx="324.784" cy="174.059" r="28.674"/>
	<circle style="fill:#FCCE99;" cx="168.666" cy="174.059" r="28.674"/>
</g>
<path style="fill:#FEE6CC;" d="M324.784,97.533l-3.234,38.781l-0.488,5.782l-5.006,59.977c-0.179,2.169-0.458,4.309-0.836,6.409
	c-5.812,32.879-34.492,57.37-68.505,57.37c-33.795,0-62.326-24.202-68.376-56.783c-0.438-2.289-0.746-4.627-0.945-6.996
	l-5.244-62.893l-0.299-3.543l-3.184-38.104L324.784,97.533L324.784,97.533z"/>
<g>
	<path style="fill:#FCCE99;" d="M174.609,168.676l2.784,33.397c0.199,2.368,0.508,4.707,0.945,6.996
		c7.583,5.135,16.718,8.13,26.54,8.13c17.813,0,33.347-9.862,41.477-24.411c8.12,14.549,23.664,24.411,41.477,24.411
		c10.19,0,19.644-3.224,27.386-8.717c0.378-2.1,0.657-4.239,0.836-6.409l2.787-33.397H174.609z"/>
	<path style="fill:#FCCE99;" d="M324.783,97.537l-3.718,44.554c-11.926,2.245-24.034,3.368-36.298,3.368
		c-40.366,0-72.655-12.276-89.591-20.4c-5.601,4.647-13.278,9.911-23.032,14.123l-3.477-41.645H324.783z"/>
</g>
<path style="fill:#F9A13E;" d="M310.298,75.221c24.142,18.255,66.391,27.023,66.391,27.023
	c-97.776,56.141-184.686,0.593-184.686,0.593s-11.12,14.469-32.547,21.863V75.222L310.298,75.221L310.298,75.221z"/>
<g>
	<circle style="fill:#FFF4EB;" cx="204.879" cy="169.721" r="32.554"/>
	<circle style="fill:#FFF4EB;" cx="287.834" cy="169.721" r="32.554"/>
</g>
<rect x="128.373" y="418.954" style="fill:#5A9BCC;" width="236.525" height="45.886"/>
<rect x="35.944" y="461.854" style="fill:#E8A96B;" width="440.111" height="27.008"/>
<path style="fill:#A5C6E3;" d="M364.893,432.182H128.371V314.424c0-5.679,4.604-10.283,10.283-10.283h215.956
	c5.679,0,10.283,4.604,10.283,10.283L364.893,432.182L364.893,432.182z"/>
<circle style="fill:#FCE790;" cx="246.725" cy="372.64" r="20.567"/>
<path d="M209.707,177.045c4.122,0,7.464-3.342,7.464-7.464v-1.536c0-4.122-3.342-7.464-7.464-7.464s-7.464,3.342-7.464,7.464v1.536
	C202.243,173.703,205.585,177.045,209.707,177.045z"/>
<path d="M283.557,177.045c4.122,0,7.464-3.342,7.464-7.464v-1.536c0-4.122-3.342-7.464-7.464-7.464
	c-4.122,0-7.464,3.342-7.464,7.464v1.536C276.094,173.703,279.435,177.045,283.557,177.045z"/>
<path d="M269.628,220.547c3.275-2.504,3.9-7.188,1.396-10.462c-2.504-3.275-7.189-3.899-10.462-1.396
	c-3.114,2.381-7.739,3.747-12.688,3.747c-4.95,0-9.574-1.365-12.688-3.747c-3.274-2.503-7.958-1.88-10.463,1.395
	c-2.504,3.275-1.879,7.959,1.395,10.463c5.748,4.396,13.474,6.816,21.755,6.816C256.154,227.363,263.879,224.942,269.628,220.547z"
	/>
<path d="M476.058,454.394h-76.261v-8.904c0-4.122-3.342-7.464-7.464-7.464h-19.982v-5.748c0-0.032,0.005-0.064,0.005-0.096v-76.246
	c0-4.122-3.342-7.464-7.464-7.464c-4.122,0-7.464,3.342-7.464,7.464v62.92c0,0.032-0.005,0.064-0.005,0.096v5.766H135.836v-5.766
	c0-0.01-0.001-0.019-0.001-0.029v-104.5c0-1.554,1.265-2.819,2.819-2.819h44.756c0.016,0,0.031,0.002,0.047,0.002
	c0.019,0,0.038-0.002,0.056-0.002h48.985c0.018,0,0.036,0.002,0.054,0.002c0.016,0,0.032-0.002,0.048-0.002h29.046
	c0.016,0,0.032,0.002,0.048,0.002c0.018,0,0.036-0.002,0.054-0.002h49.005c0.019,0,0.038,0.002,0.056,0.002
	c0.016,0,0.031-0.002,0.047-0.002h43.754c1.554,0,2.819,1.265,2.819,2.819v13.796c0,4.122,3.342,7.464,7.464,7.464
	c4.122,0,7.464-3.342,7.464-7.464v-13.796c0-9.785-7.961-17.746-17.746-17.746h-41.087c-11.004-9.009-23.781-15.711-37.372-19.622
	v-9.578c8.289-3.427,15.992-8.293,22.735-14.497c12.414-11.422,20.64-26.438,23.624-42.874c0.755,0.047,1.513,0.088,2.274,0.088
	c19.924,0,36.134-16.21,36.134-36.134c0-9.611-3.777-18.35-9.915-24.832c6.042-10.207,10.345-20.923,12.842-31.969
	c5.474-2.516,10.999-5.35,16.559-8.542c2.689-1.543,4.143-4.588,3.654-7.649s-2.818-5.501-5.853-6.132
	c-0.136-0.029-4.829-1.019-11.849-2.971c-0.285-11.801-2.581-23.787-6.862-35.713c-12.173-33.934-54.122-56.013-106.87-56.249
	c-25.374-0.156-50.42,5.19-70.521,14.933c-22.983,11.14-39.049,27.652-46.462,47.751c-1.427,3.867,0.552,8.159,4.419,9.585
	c3.872,1.428,8.159-0.552,9.585-4.419c13.58-36.816,61.441-53.092,102.912-52.924c21.595,0.097,42.509,4.477,58.89,12.333
	c17.216,8.256,28.972,20.024,33.997,34.032c3.118,8.686,5.012,17.369,5.705,25.932c-12.193-4.236-26.117-10.221-36.35-17.957
	c-3.289-2.486-7.97-1.836-10.455,1.452c-2.486,3.288-1.836,7.968,1.452,10.455c14.681,11.101,35.205,18.775,50.129,23.319
	c-0.448,0.202-0.898,0.394-1.346,0.592c-0.167,0.067-0.331,0.138-0.494,0.217c-10.54,4.611-21.259,8.136-32.136,10.569
	c-0.634,0.058-1.246,0.195-1.827,0.403c-22.84,4.845-46.368,4.898-70.382,0.119c-32.35-6.439-53.518-19.719-53.719-19.846
	c-3.243-2.073-7.548-1.316-9.919,1.717c-0.101,0.127-10.223,12.873-29.082,19.379c-3.897,1.344-5.966,5.594-4.621,9.49
	s5.593,5.966,9.49,4.621c0.707-0.244,1.391-0.502,2.077-0.758l0.597,7.158c-4.757,0.54-9.237,2.003-13.253,4.211
	c-7.578-13.824-10.136-30.44-7.578-49.525c0.547-4.085-2.321-7.841-6.407-8.389c-4.096-0.55-7.841,2.322-8.389,6.407
	c-3.165,23.617,0.514,44.248,10.885,61.45c-4.578,6.056-7.298,13.591-7.298,21.75c0,19.924,16.214,36.134,36.144,36.134
	c0.774,0,1.522-0.118,2.223-0.337c2.946,16.529,11.195,31.641,23.674,43.13c6.961,6.399,14.94,11.382,23.531,14.822v9.251
	c-13.597,3.919-26.367,10.619-37.354,19.619h-42.087c-9.785,0-17.746,7.961-17.746,17.746v117.758c0,0.01,0.001,0.019,0.001,0.029
	v22.183H35.941c-4.122,0-7.464,3.342-7.464,7.464v27.007c0,4.122,3.342,7.464,7.464,7.464h37.524c4.122,0,7.464-3.342,7.464-7.464
	c0-4.122-3.342-7.464-7.464-7.464h-30.06v-12.08H384.87v12.08H101.182c-4.122,0-7.464,3.342-7.464,7.464
	c0,4.122,3.342,7.464,7.464,7.464H384.87v8.207c0,4.122,3.342,7.464,7.464,7.464c4.122,0,7.464-3.342,7.464-7.464v-8.208h76.261
	c4.122,0,7.464-3.342,7.464-7.464v-27.007C483.522,457.735,480.18,454.394,476.058,454.394z M274.884,296.678
	c0.407-1.335,0.722-2.701,0.933-4.089c3.433,1.157,6.797,2.523,10.069,4.089H274.884z M313.808,139.315
	c-2.63-2.25-5.547-4.174-8.7-5.688c3.049-0.334,6.143-0.749,9.278-1.253L313.808,139.315z M287.83,144.626
	c13.834,0,25.09,11.256,25.09,25.09s-11.256,25.09-25.09,25.09c-13.834,0-25.091-11.256-25.091-25.09
	S273.995,144.626,287.83,144.626z M324.784,195.266c-0.224,0-0.445-0.019-0.668-0.026l0.898-10.762
	c1.821-4.571,2.834-9.548,2.834-14.761c0-2.883-0.313-5.694-0.896-8.406l0.689-8.253c10.344,1.403,18.35,10.274,18.35,21.001
	C345.99,185.752,336.478,195.266,324.784,195.266z M338.695,140.704c-3.078-1.29-6.373-2.159-9.811-2.551l0.741-8.884
	c5.465-1.351,11.029-2.992,16.669-4.95C344.316,129.905,341.776,135.376,338.695,140.704z M193.462,112.275
	c8.749,4.701,27.453,13.517,52.737,18.634c7.002,1.417,14.822,2.588,23.301,3.254c-10.745,5.562-18.659,15.846-20.98,28.091h-4.333
	c-3.508-18.51-19.794-32.554-39.309-32.554c-9.585,0-18.391,3.39-25.29,9.031l-1.23-14.743
	C185.137,119.855,190.195,115.494,193.462,112.275z M179.789,169.717c0-13.834,11.256-25.09,25.09-25.09
	c13.834,0,25.09,11.256,25.09,25.09s-11.256,25.09-25.09,25.09C191.045,194.807,179.789,183.551,179.789,169.717z M147.45,174.059
	c0-10.727,8.009-19.596,18.356-21l0.503,6.02c-0.936,3.389-1.447,6.955-1.447,10.638c0,6.028,1.347,11.745,3.745,16.877l0.729,8.706
	c-0.221-0.02-0.444-0.034-0.67-0.034C156.967,195.265,147.45,185.752,147.45,174.059z M185.169,204.522
	c5.824,3.311,12.547,5.213,19.711,5.213c19.515,0,35.801-14.044,39.309-32.554h4.333c3.508,18.51,19.794,32.554,39.309,32.554
	c7.491,0,14.505-2.074,20.507-5.67c-3.884,30.673-30.446,54.334-61.612,54.334c-15.616,0-30.553-5.826-42.055-16.398
	C193.939,232.119,187.089,218.912,185.169,204.522z M246.725,273.325c4.906,0,9.757-0.467,14.499-1.372v10.745
	c0,0.001,0,0.002,0,0.003v5.541c0,3.058-1.012,6.016-2.817,8.437h-22.565c-1.821-2.431-2.82-5.357-2.82-8.437v-16.15
	C237.511,272.9,242.093,273.325,246.725,273.325z M218.419,292.596c0.208,1.387,0.513,2.751,0.917,4.082h-10.961
	C211.637,295.115,214.993,293.752,218.419,292.596z M135.836,439.646h221.588v14.748h-20.652v-2.269
	c0-4.122-3.342-7.464-7.464-7.464c-4.122,0-7.464,3.342-7.464,7.464v2.269h-2.985v-2.269c0-4.122-3.342-7.464-7.464-7.464
	c-4.122,0-7.464,3.342-7.464,7.464v2.269H135.836V439.646z M372.352,454.394v-1.44h12.519v1.44H372.352z M468.595,481.401h-68.797
	v-12.08h68.797V481.401z"/>
<path d="M218.697,372.636c0,15.456,12.574,28.03,28.03,28.03s28.03-12.574,28.03-28.03s-12.574-28.03-28.03-28.03
	S218.697,357.18,218.697,372.636z M259.829,372.636c0,7.225-5.877,13.103-13.103,13.103c-7.226,0-13.103-5.877-13.103-13.103
	s5.877-13.103,13.103-13.103C253.952,359.533,259.829,365.411,259.829,372.636z"/>
<g>
</g>
<g>
</g>
<g>
</g>
<g>
</g>
<g>
</g>
<g>
</g>
<g>
</g>
<g>
</g>
<g>
</g>
<g>
</g>
<g>
</g>
<g>
</g>
<g>
</g>
<g>
</g>
<g>
</g>
</svg>
