<?xml version="1.0" encoding="iso-8859-1"?>
<!-- Generator: Adobe Illustrator 19.0.0, SVG Export Plug-In . SVG Version: 6.00 Build 0)  -->
<svg version="1.1" id="Capa_1" xmlns="http://www.w3.org/2000/svg" xmlns:xlink="http://www.w3.org/1999/xlink" x="0px" y="0px"
	 viewBox="0 0 512.001 512.001" style="enable-background:new 0 0 512.001 512.001;" xml:space="preserve">
<path style="fill:#D2E3F1;" d="M291.603,161.757v53.191H181.769v-53.191c0-11.235,3.376-21.689,9.169-30.39
	c9.845-14.783,26.658-24.524,45.751-24.524c8.529,0,16.616,1.949,23.823,5.424c5.596,2.7,10.669,6.315,15.011,10.657
	c2.577,2.57,4.895,5.405,6.912,8.449c0.031,0.049,0.068,0.104,0.098,0.154C288.264,140.197,291.603,150.59,291.603,161.757z"/>
<polygon style="fill:#FF2796;" points="262.637,214.948 211.737,214.948 225.44,138.523 248.934,138.523 "/>
<circle style="fill:#E50A82;" cx="237.47" cy="126.92" r="15.504"/>
<path style="fill:#FEE6CC;" d="M278.384,47.067L276.1,74.45l-0.537,6.452c-1.69,20.337-18.693,35.97-39.111,35.97
	c-20.395,0-37.398-15.633-39.099-35.97l-1.073-12.904l-1.884-22.576L278.384,47.067z"/>
<path style="fill:#FCCE99;" d="M278.384,47.067L276.1,74.45c-10.734-0.468-21.182-2.341-29.176-4.157
	c-1.028,4.591-5.104,7.742-9.672,7.742c-0.537,0-1.073-0.034-1.61-0.126l-3.517-0.571c-16.124-2.638-27.657-6.029-35.845-9.341
	l-1.884-22.576L278.384,47.067z"/>
<path style="fill:#0054A0;" d="M188.467,47.825c0,0,8.21,9.839,45.868,15.988l2.351-10.454c0,0,26.005,8.609,49.104,7.379V47.825
	c0-22.271-18.054-40.325-40.325-40.325h-16.674C206.521,7.5,188.467,25.554,188.467,47.825L188.467,47.825z"/>
<path style="fill:#D2E3F1;" d="M281.241,461.346V504.5h-89.11v-43.154c0-9.115,2.739-17.596,7.439-24.656
	c7.987-11.994,21.628-19.896,37.119-19.896c6.92,0,13.48,1.582,19.328,4.4c4.54,2.19,8.656,5.124,12.178,8.646
	c2.09,2.085,3.971,4.385,5.608,6.855c0.025,0.04,0.055,0.085,0.08,0.125C278.533,443.854,281.241,452.286,281.241,461.346z"/>
<path style="fill:#FEE6CC;" d="M270.516,368.297l-1.853,22.216l-0.435,5.234c-1.371,16.5-15.166,29.183-31.731,29.183
	c-16.546,0-30.341-12.683-31.722-29.183l-0.871-10.469l-1.529-18.316L270.516,368.297z"/>
<path style="fill:#FCCE99;" d="M270.516,368.297l-1.853,22.216c-8.709-0.38-17.186-1.899-23.671-3.372
	c-0.834,3.724-4.141,6.281-7.847,6.281c-0.435,0-0.871-0.028-1.306-0.102l-2.853-0.463c-13.081-2.14-22.439-4.892-29.081-7.578
	l-1.529-18.316L270.516,368.297z"/>
<path style="fill:#F9A13E;" d="M197.565,368.912c0,0,6.661,7.983,37.213,12.972l1.908-8.481c0,0,21.098,6.985,39.839,5.987v-10.477
	c0-18.069-14.647-32.716-32.716-32.716h-13.527C212.213,336.196,197.565,350.843,197.565,368.912L197.565,368.912z"/>
<path style="fill:#D2E3F1;" d="M463.339,461.346V504.5h-89.11v-43.154c0-9.115,2.739-17.596,7.439-24.656
	c7.987-11.994,21.628-19.896,37.119-19.896c6.92,0,13.48,1.582,19.328,4.4c4.54,2.19,8.656,5.124,12.178,8.646
	c2.09,2.085,3.971,4.385,5.608,6.855c0.025,0.04,0.055,0.085,0.08,0.125C460.63,443.854,463.339,452.286,463.339,461.346z"/>
<path style="fill:#FEE6CC;" d="M452.615,368.297l-1.853,22.216l-0.435,5.234c-1.371,16.5-15.166,29.183-31.731,29.183
	c-16.546,0-30.341-12.683-31.722-29.183l-0.871-10.469l-1.529-18.316L452.615,368.297z"/>
<path style="fill:#FCCE99;" d="M452.615,368.297l-1.853,22.216c-8.709-0.38-17.186-1.899-23.671-3.372
	c-0.834,3.724-4.141,6.281-7.847,6.281c-0.435,0-0.871-0.028-1.306-0.102l-2.853-0.463c-13.081-2.14-22.439-4.892-29.081-7.578
	l-1.529-18.316L452.615,368.297z"/>
<path style="fill:#0054A0;" d="M379.663,368.912c0,0,6.661,7.983,37.213,12.972l1.908-8.481c0,0,21.098,6.985,39.839,5.987v-10.477
	c0-18.069-14.647-32.716-32.716-32.716H412.38C394.311,336.196,379.663,350.843,379.663,368.912L379.663,368.912z"/>
<path style="fill:#D2E3F1;" d="M99.142,461.346V504.5h-89.11v-43.154c0-9.115,2.739-17.596,7.439-24.656
	c7.987-11.994,21.628-19.896,37.119-19.896c6.92,0,13.48,1.582,19.328,4.4c4.54,2.19,8.656,5.124,12.178,8.646
	c2.09,2.085,3.971,4.385,5.608,6.855c0.025,0.04,0.055,0.085,0.08,0.125C96.433,443.854,99.142,452.286,99.142,461.346z"/>
<path style="fill:#FEE6CC;" d="M88.418,368.297l-1.853,22.216l-0.435,5.234c-1.371,16.5-15.166,29.183-31.731,29.183
	c-16.546,0-30.341-12.683-31.722-29.183l-0.871-10.469l-1.529-18.316L88.418,368.297z"/>
<path style="fill:#FCCE99;" d="M88.418,368.297l-1.853,22.216c-8.709-0.38-17.186-1.899-23.671-3.372
	c-0.834,3.724-4.141,6.281-7.847,6.281c-0.435,0-0.871-0.028-1.306-0.102l-2.853-0.463c-13.081-2.14-22.439-4.892-29.081-7.578
	l-1.529-18.316L88.418,368.297z"/>
<path style="fill:#0054A0;" d="M15.467,368.912c0,0,6.661,7.983,37.213,12.972l1.908-8.481c0,0,21.098,6.985,39.839,5.987v-10.477
	c0-18.069-14.647-32.716-32.716-32.716H48.183C30.114,336.196,15.467,350.843,15.467,368.912L15.467,368.912z"/>
<path d="M181.768,222.45h109.84c4.143,0,7.5-3.358,7.5-7.5v-48.02c0-4.142-3.357-7.5-7.5-7.5s-7.5,3.358-7.5,7.5v40.52h-15.196
	l-12.186-67.964c2.368-3.615,3.751-7.931,3.751-12.566c0-2.315-0.355-4.586-1.02-6.75c3.953,2.165,7.567,4.864,10.767,8.063
	c2.147,2.139,4.105,4.518,5.825,7.074c0.023,0.041,0.047,0.08,0.069,0.118c0.05,0.081,0.101,0.161,0.152,0.241
	c1.375,2.079,2.584,4.264,3.594,6.497c1.254,2.771,3.982,4.409,6.838,4.409c1.033,0,2.085-0.215,3.088-0.669
	c3.773-1.708,5.448-6.152,3.74-9.925c-1.302-2.875-2.849-5.686-4.6-8.359c-0.011-0.019-0.021-0.036-0.028-0.05
	c-0.07-0.118-0.143-0.234-0.219-0.349c-2.308-3.472-4.957-6.706-7.863-9.602c-3.093-3.093-6.484-5.837-10.135-8.208
	c7.029-7.6,11.484-17.424,12.356-27.885l1.104-13.222c0.681-0.021,1.364-0.038,2.042-0.074c3.981-0.212,7.102-3.502,7.102-7.489
	V47.825C293.29,21.454,271.835,0,245.465,0h-16.673c-26.371,0-47.825,21.454-47.825,47.825c0,1.756,0.616,3.457,1.741,4.805
	c0.548,0.656,2.031,2.207,5.118,4.213l2.057,24.677c0.875,10.563,5.389,20.455,12.516,28.073
	c-6.98,4.589-12.994,10.551-17.705,17.622c-6.821,10.249-10.426,22.194-10.426,34.545v53.19
	C174.268,219.092,177.625,222.45,181.768,222.45z M231.01,124.043c0.757,0.088,1.515,0.16,2.275,0.212
	c0.121,0.008,0.242,0.021,0.363,0.028c0.823,0.049,1.647,0.071,2.471,0.077c0.113,0.001,0.226,0.01,0.339,0.01
	c0.211,0,0.422-0.009,0.633-0.011c0.2-0.003,0.399-0.006,0.599-0.011c0.402-0.01,0.803-0.028,1.204-0.048
	c0.198-0.01,0.397-0.019,0.595-0.032c0.403-0.026,0.804-0.06,1.206-0.096c0.194-0.018,0.389-0.033,0.583-0.053
	c0.411-0.042,0.82-0.094,1.229-0.147c0.182-0.024,0.365-0.044,0.548-0.07c0.459-0.065,0.915-0.141,1.372-0.219
	c0.115-0.02,0.23-0.034,0.344-0.055c0.461,1.021,0.708,2.142,0.708,3.292c0,1.501-0.423,2.902-1.145,4.104h-13.718
	c-0.723-1.202-1.147-2.602-1.147-4.104c0-1.045,0.197-2.056,0.573-2.991c0.137,0.019,0.274,0.031,0.411,0.048
	C230.638,124.001,230.824,124.021,231.01,124.043z M231.175,149.036c2.004,0.572,4.117,0.884,6.302,0.884
	c1.985,0,3.911-0.253,5.75-0.728l10.445,58.256h-32.971L231.175,149.036z M228.792,15h16.673c18.099,0,32.825,14.725,32.825,32.825
	v5.49c-19.383-0.6-39.03-7.003-39.247-7.075c-2.011-0.666-4.208-0.45-6.05,0.593c-1.843,1.042-3.159,2.816-3.624,4.881l-0.777,3.456
	c-19.433-3.789-28.695-8.437-32.441-10.822C197.892,27.876,211.866,15,228.792,15z M233.126,71.215
	c0.408,0.067,0.814,0.099,1.216,0.099c3.449,0,6.53-2.386,7.31-5.855l0.604-2.684c6.478,1.7,16.266,3.887,26.887,4.948
	l-1.048,12.554c-0.837,10.03-6.217,18.868-14.753,24.241c-2.434,1.527-5.061,2.715-7.823,3.535c-0.002,0-0.003,0.001-0.005,0.001
	c-0.807,0.241-1.628,0.438-2.453,0.613c-3.336,0.706-6.797,0.88-10.204,0.496c-1.417-0.16-2.826-0.415-4.212-0.765h-0.002
	c-3.152-0.798-6.155-2.076-8.927-3.798c-8.495-5.278-14.06-14.37-14.884-24.323l-1.349-16.179
	C210.751,66.613,220.384,69.135,233.126,71.215z M189.268,161.76c0-9.384,2.736-18.456,7.911-26.231
	c4.619-6.933,10.879-12.468,18.24-16.164c0.097,0.049,0.194,0.096,0.291,0.144c-0.809,2.37-1.242,4.872-1.242,7.411
	c0,4.338,1.209,8.399,3.306,11.866l-12.312,68.664h-16.194V161.76z"/>
<path d="M279.91,432.346c-1.866-2.795-4.021-5.421-6.416-7.817c-2.213-2.207-4.604-4.192-7.141-5.955
	c5.219-6.084,8.643-13.762,9.349-22.211l0.789-9.469c0.144-0.007,0.289-0.008,0.432-0.016c3.981-0.212,7.102-3.502,7.102-7.489
	v-10.477c0-22.175-18.041-40.216-40.216-40.216h-13.527c-22.175,0-40.216,18.041-40.216,40.216c0,1.756,0.616,3.457,1.742,4.805
	c0.438,0.525,1.576,1.727,3.884,3.289l1.612,19.36c0.713,8.519,4.188,16.254,9.479,22.361c-5.268,3.696-9.827,8.358-13.46,13.81
	c-3.298,4.958-5.704,10.415-7.151,16.217c-1.003,4.019,1.442,8.09,5.461,9.093c0.61,0.152,1.221,0.225,1.822,0.225
	c3.362,0,6.42-2.277,7.271-5.686c1.031-4.133,2.743-8.017,5.084-11.538c3.496-5.247,8.203-9.453,13.722-12.336
	c2.979,1.445,6.154,2.531,9.469,3.185V497h-29.373v-18.57c0-4.142-3.358-7.5-7.5-7.5s-7.5,3.358-7.5,7.5v26.07
	c0,4.142,3.358,7.5,7.5,7.5h89.11c4.143,0,7.5-3.358,7.5-7.5v-43.15c0-10.167-2.931-20.007-8.478-28.474
	C280.15,432.694,280.033,432.518,279.91,432.346z M230.281,343.696h13.527c13.905,0,25.216,11.312,25.216,25.216v2.981
	c-15.014-0.735-29.815-5.556-29.982-5.611c-2.011-0.666-4.208-0.449-6.05,0.593c-1.843,1.042-3.159,2.816-3.624,4.881l-0.328,1.457
	c-13.537-2.756-20.539-5.984-23.727-7.854C207.045,353.131,217.582,343.696,230.281,343.696z M233.569,389.285
	c0.409,0.067,0.815,0.099,1.216,0.099c3.449,0,6.53-2.386,7.31-5.855l0.17-0.755c4.957,1.25,11.795,2.71,19.222,3.542l-0.733,8.799
	c-1.048,12.513-11.702,22.315-24.257,22.315c-12.549,0-23.2-9.802-24.246-22.313l-0.916-10.999
	C217.052,385.966,224.324,387.775,233.569,389.285z M273.738,497H244v-65.304c3.392-0.669,6.638-1.79,9.676-3.285
	c3.388,1.752,6.489,4.011,9.218,6.731c1.737,1.738,3.3,3.651,4.644,5.688c0.022,0.034,0.045,0.068,0.067,0.102
	c0.006,0.008,0.012,0.017,0.018,0.025c4,6.048,6.115,13.1,6.115,20.393L273.738,497L273.738,497z"/>
<path d="M463.337,464.43c-4.143,0-7.5,3.358-7.5,7.5V497h-29.739v-65.303c3.393-0.669,6.639-1.79,9.678-3.285
	c3.39,1.752,6.486,4.01,9.219,6.743c1.732,1.725,3.295,3.635,4.644,5.678c0.021,0.033,0.044,0.066,0.066,0.099
	c0.006,0.01,0.013,0.019,0.019,0.029c1.25,1.887,2.334,3.913,3.223,6.021c1.207,2.867,3.987,4.59,6.914,4.59
	c0.971,0,1.959-0.19,2.909-0.59c3.817-1.608,5.607-6.007,3.999-9.824c-1.222-2.9-2.709-5.693-4.423-8.304
	c-0.103-0.167-0.21-0.33-0.323-0.488c-1.88-2.817-4.047-5.454-6.433-7.83c-2.209-2.209-4.598-4.196-7.138-5.961
	c5.219-6.084,8.643-13.762,9.349-22.211l0.79-9.47c0.143-0.007,0.287-0.008,0.43-0.016c3.981-0.212,7.102-3.502,7.102-7.489v-10.477
	c0-22.175-18.041-40.216-40.216-40.216H412.38c-22.175,0-40.216,18.041-40.216,40.216c0,1.756,0.616,3.457,1.741,4.805
	c0.438,0.526,1.577,1.728,3.887,3.291l1.611,19.354c0.708,8.522,4.182,16.26,9.475,22.369c-5.266,3.695-9.823,8.355-13.453,13.804
	c-5.689,8.546-8.696,18.51-8.696,28.816v43.15c0,4.142,3.357,7.5,7.5,7.5h89.109c4.143,0,7.5-3.358,7.5-7.5v-32.57
	C470.837,467.788,467.48,464.43,463.337,464.43z M412.379,343.696h13.527c13.904,0,25.216,11.312,25.216,25.216v2.981
	c-15.014-0.735-29.814-5.556-29.981-5.611c-2.011-0.666-4.209-0.45-6.051,0.593c-1.843,1.043-3.159,2.816-3.624,4.882l-0.327,1.457
	c-13.537-2.756-20.538-5.984-23.727-7.854C389.145,353.131,399.68,343.696,412.379,343.696z M415.667,389.285
	c0.408,0.067,0.815,0.099,1.217,0.099c3.449,0,6.529-2.387,7.31-5.855l0.17-0.755c4.957,1.25,11.796,2.711,19.224,3.543
	l-0.734,8.799c-1.047,12.513-11.701,22.315-24.257,22.315c-12.557,0-23.207-9.8-24.246-22.313l-0.916-10.999
	C399.151,385.966,406.423,387.776,415.667,389.285z M381.728,461.35c0-7.338,2.138-14.429,6.182-20.502
	c3.494-5.246,8.2-9.452,13.718-12.334c2.979,1.444,6.154,2.53,9.471,3.184V497h-29.37v-35.65H381.728z"/>
<path d="M97.979,432.586c-0.008-0.013-0.017-0.025-0.023-0.035c-1.914-2.882-4.119-5.579-6.555-8.015
	c-2.207-2.207-4.598-4.194-7.142-5.961c5.219-6.084,8.641-13.763,9.342-22.212l0.79-9.47c0.144-0.007,0.289-0.008,0.433-0.016
	c3.982-0.212,7.102-3.502,7.102-7.489v-10.477c0-22.175-18.041-40.216-40.216-40.216H48.183c-22.175,0-40.216,18.041-40.216,40.216
	c0,1.756,0.616,3.457,1.742,4.805c0.438,0.525,1.576,1.726,3.882,3.288l1.613,19.361c0.713,8.519,4.188,16.254,9.479,22.361
	c-5.268,3.696-9.827,8.357-13.458,13.807c-5.683,8.537-8.687,18.501-8.687,28.816v43.15c0,4.142,3.358,7.5,7.5,7.5h89.1
	c4.142,0,7.5-3.358,7.5-7.5v-43.15c0-10.253-2.972-20.167-8.595-28.668C98.022,432.65,98,432.618,97.979,432.586z M48.183,343.696
	H61.71c13.904,0,25.216,11.312,25.216,25.216v2.981c-15.013-0.735-29.814-5.556-29.981-5.611c-2.01-0.666-4.208-0.449-6.05,0.593
	c-1.843,1.042-3.159,2.816-3.624,4.881l-0.328,1.457c-13.537-2.756-20.539-5.984-23.727-7.854
	C24.947,353.131,35.484,343.696,48.183,343.696z M51.471,389.285c0.409,0.067,0.815,0.099,1.216,0.099
	c3.449,0,6.53-2.386,7.31-5.855l0.17-0.755c4.957,1.249,11.794,2.709,19.22,3.54l-0.734,8.805
	C77.614,407.63,66.96,417.43,54.397,417.43c-12.549,0-23.199-9.802-24.246-22.313l-0.916-11
	C34.952,385.966,42.225,387.775,51.471,389.285z M17.538,461.35c0-7.348,2.135-14.438,6.172-20.502
	c3.496-5.247,8.203-9.453,13.721-12.336c2.98,1.445,6.155,2.531,9.471,3.185V497H17.538V461.35z M91.638,497H61.902v-65.303
	c3.393-0.669,6.639-1.789,9.678-3.283c3.4,1.757,6.499,4.014,9.214,6.729c1.713,1.713,3.267,3.61,4.643,5.672
	c0.043,0.066,0.089,0.136,0.137,0.206c3.967,6.025,6.064,13.053,6.064,20.33V497z"/>
<path d="M54.588,320.137c4.142,0,7.5-3.358,7.5-7.5v-31.873h167.098v31.873c0,4.142,3.358,7.5,7.5,7.5s7.5-3.358,7.5-7.5v-31.873
	h167.098v31.873c0,4.142,3.357,7.5,7.5,7.5s7.5-3.358,7.5-7.5v-39.373c0-4.142-3.357-7.5-7.5-7.5H244.186v-24.492
	c0-4.142-3.358-7.5-7.5-7.5s-7.5,3.358-7.5,7.5v24.492H54.588c-4.142,0-7.5,3.358-7.5,7.5v39.373
	C47.088,316.779,50.446,320.137,54.588,320.137z"/>
<path d="M322.951,199.054h13.212c4.143,0,7.5-3.358,7.5-7.5s-3.357-7.5-7.5-7.5h-13.212c-4.143,0-7.5,3.358-7.5,7.5
	S318.809,199.054,322.951,199.054z"/>
<path d="M322.951,221.433h49.674c4.143,0,7.5-3.358,7.5-7.5s-3.357-7.5-7.5-7.5h-49.674c-4.143,0-7.5,3.358-7.5,7.5
	S318.809,221.433,322.951,221.433z"/>
<path d="M303.594,476.615c-4.143,0-7.5,3.358-7.5,7.5s3.357,7.5,7.5,7.5h7.722c4.143,0,7.5-3.358,7.5-7.5s-3.357-7.5-7.5-7.5
	H303.594z"/>
<path d="M320.641,496.015h-17.047c-4.143,0-7.5,3.358-7.5,7.5s3.357,7.5,7.5,7.5h17.047c4.143,0,7.5-3.358,7.5-7.5
	S324.784,496.015,320.641,496.015z"/>
<path d="M119.855,476.615c-4.142,0-7.5,3.358-7.5,7.5s3.358,7.5,7.5,7.5h7.722c4.142,0,7.5-3.358,7.5-7.5s-3.358-7.5-7.5-7.5
	H119.855z"/>
<path d="M136.902,496.015h-17.047c-4.142,0-7.5,3.358-7.5,7.5s3.358,7.5,7.5,7.5h17.047c4.142,0,7.5-3.358,7.5-7.5
	S141.044,496.015,136.902,496.015z"/>
<path d="M484.916,491.615h7.722c4.143,0,7.5-3.358,7.5-7.5s-3.357-7.5-7.5-7.5h-7.722c-4.143,0-7.5,3.358-7.5,7.5
	S480.773,491.615,484.916,491.615z"/>
<path d="M501.962,496.015h-17.047c-4.143,0-7.5,3.358-7.5,7.5s3.357,7.5,7.5,7.5h17.047c4.143,0,7.5-3.358,7.5-7.5
	S506.105,496.015,501.962,496.015z"/>
<g>
</g>
<g>
</g>
<g>
</g>
<g>
</g>
<g>
</g>
<g>
</g>
<g>
</g>
<g>
</g>
<g>
</g>
<g>
</g>
<g>
</g>
<g>
</g>
<g>
</g>
<g>
</g>
<g>
</g>
</svg>
