<?xml version="1.0" encoding="iso-8859-1"?>
<!-- Generator: Adobe Illustrator 19.0.0, SVG Export Plug-In . SVG Version: 6.00 Build 0)  -->
<svg version="1.1" id="Capa_1" xmlns="http://www.w3.org/2000/svg" xmlns:xlink="http://www.w3.org/1999/xlink" x="0px" y="0px"
	 viewBox="0 0 512 512" style="enable-background:new 0 0 512 512;" xml:space="preserve">
<path style="fill:#FEC007;" d="M410.47,69.122v39.829h-40.5V69.122c0-1.759-1.43-3.202-3.189-3.202H145.22
	c-1.759,0-3.189,1.443-3.189,3.202v39.829h-40.5V69.122c0-24.097,19.605-43.702,43.689-43.702h221.56
	C390.865,25.42,410.47,45.025,410.47,69.122z"/>
<g>
	<rect x="369.97" y="83.22" style="fill:#FE9700;" width="40.5" height="25.73"/>
	<rect x="101.53" y="83.22" style="fill:#FE9700;" width="40.5" height="25.73"/>
</g>
<rect x="86.74" y="103.89" style="fill:#FFF4EB;" width="68.47" height="43.875"/>
<rect x="86.74" y="119" style="fill:#FCCE99;" width="68.47" height="28.768"/>
<rect x="356.79" y="103.89" style="fill:#FFF4EB;" width="68.47" height="43.875"/>
<rect x="356.79" y="119" style="fill:#FCCE99;" width="68.47" height="28.768"/>
<rect x="7.5" y="135.11" style="fill:#FE9700;" width="497" height="351.46"/>
<g>
	<path style="fill:#F26200;" d="M256.001,373.801c-26.246,0-47.599-21.352-47.599-47.598v-30.718
		c0-26.246,21.352-47.599,47.599-47.599s47.599,21.352,47.599,47.599v30.718C303.6,352.449,282.248,373.801,256.001,373.801z"/>
	<path style="fill:#F26200;" d="M504.498,135.116v73.065l-10.515,28.73c-21.665,59.236-78.624,99.05-141.711,99.05H159.714
		c-63.087,0-120.046-39.814-141.711-99.05l-10.498-28.68v-73.115H504.498z"/>
</g>
<path style="fill:#FEC007;" d="M504.499,135.112l-34.086,93.176c-18.147,49.573-65.332,82.556-118.126,82.556H159.712
	c-12.954,0-25.565-1.99-37.488-5.717c-36.709-11.453-66.942-39.423-80.638-76.839L7.5,135.112H504.499z"/>
<path style="fill:#FE9700;" d="M303.601,295.483v15.36h-95.202v-15.36c0-26.252,21.349-47.601,47.601-47.601
	S303.601,269.231,303.601,295.483z"/>
<path style="fill:#FFF4EB;" d="M235.542,326.203v-30.718c0-11.299,9.16-20.46,20.46-20.46l0,0c11.299,0,20.46,9.16,20.46,20.46
	v30.718c0,11.3-9.16,20.46-20.46,20.46l0,0C244.702,346.662,235.542,337.502,235.542,326.203z"/>
<g>
	<path style="fill:#F26200;" d="M217.031,155.362h-25.313v-32.906c0-4.194,3.4-7.594,7.594-7.594h10.125
		c4.194,0,7.594,3.4,7.594,7.594L217.031,155.362L217.031,155.362z"/>
	<path style="fill:#F26200;" d="M268.656,155.362h-25.313v-32.906c0-4.194,3.4-7.594,7.594-7.594h10.125
		c4.194,0,7.594,3.4,7.594,7.594V155.362z"/>
	<path style="fill:#F26200;" d="M320.281,155.362h-25.313v-32.906c0-4.194,3.4-7.594,7.594-7.594h10.125
		c4.194,0,7.594,3.4,7.594,7.594V155.362z"/>
</g>
<path d="M505.635,493.985c3.607-0.548,6.369-3.748,6.365-7.411V347.93c0-4.142-3.357-7.5-7.5-7.5s-7.5,3.358-7.5,7.5v120.543
	l-30.72-30.719v-183.62c4.434-7.33,8.186-15.11,11.173-23.276L497,177.434V320.07c0,4.142,3.357,7.5,7.5,7.5s7.5-3.358,7.5-7.5
	V135.11c0-4.076-3.42-7.5-7.5-7.5h-71.74v-23.72c0-4.142-3.357-7.5-7.5-7.5h-7.29V69.12c0-28.232-22.969-51.2-51.2-51.2H191.43
	c-4.143,0-7.5,3.358-7.5,7.5s3.357,7.5,7.5,7.5h175.34c19.961,0,36.2,16.239,36.2,36.2v27.27h-25.5V69.12c0-5.9-4.8-10.7-10.7-10.7
	H145.23c-5.9,0-10.7,4.8-10.7,10.7v27.27h-25.5V69.12c0-19.961,16.239-36.2,36.2-36.2h18.34c4.143,0,7.5-3.358,7.5-7.5
	s-3.357-7.5-7.5-7.5h-18.34c-28.231,0-51.2,22.968-51.2,51.2v27.27h-7.29c-4.143,0-7.5,3.358-7.5,7.5v23.72H7.5
	c-4.08,0-7.5,3.423-7.5,7.5v351.47c0,4.077,3.425,7.5,7.5,7.5h497C504.881,494.08,505.259,494.043,505.635,493.985z M364.29,127.61
	v-16.22h53.47v16.22H364.29z M149.53,73.42h212.94v22.97h-5.68c-4.143,0-7.5,3.358-7.5,7.5v23.72h-21.509v-5.154
	c0-8.323-6.771-15.094-15.094-15.094h-10.125c-8.322,0-15.094,6.771-15.094,15.094v5.154h-11.313v-5.154
	c0-8.323-6.771-15.094-15.094-15.094h-10.125c-8.322,0-15.094,6.771-15.094,15.094v5.154h-11.313v-5.154
	c0-8.323-6.771-15.094-15.094-15.094H199.31c-8.322,0-15.094,6.771-15.094,15.094v5.154H162.71v-23.72c0-4.142-3.357-7.5-7.5-7.5
	h-5.68L149.53,73.42L149.53,73.42z M302.469,135.129c0-0.007,0.001-0.013,0.001-0.019s-0.001-0.013-0.001-0.019v-12.635
	c0-0.052,0.042-0.094,0.094-0.094h10.125c0.052,0,0.094,0.042,0.094,0.094v12.635c0,0.007-0.001,0.013-0.001,0.019
	s0.001,0.013,0.001,0.019v12.733h-10.313V135.129z M261.156,122.456v25.407h-10.313v-25.407c0-0.052,0.042-0.094,0.094-0.094h10.125
	C261.114,122.362,261.156,122.404,261.156,122.456z M199.219,135.129c0-0.007,0.001-0.013,0.001-0.019s-0.001-0.013-0.001-0.019
	v-12.635c0-0.052,0.042-0.094,0.094-0.094h10.125c0.052,0,0.094,0.042,0.094,0.094v12.635c0,0.007-0.001,0.013-0.001,0.019
	s0.001,0.013,0.001,0.019v12.733h-10.313L199.219,135.129L199.219,135.129z M94.24,111.39h53.47v16.22H94.24V111.39z
	 M184.219,142.61v12.752c0,4.142,3.357,7.5,7.5,7.5h25.313c4.143,0,7.5-3.358,7.5-7.5V142.61h11.313v12.752
	c0,4.142,3.357,7.5,7.5,7.5h25.313c4.143,0,7.5-3.358,7.5-7.5V142.61h11.313v12.752c0,4.142,3.357,7.5,7.5,7.5h25.313
	c4.143,0,7.5-3.358,7.5-7.5V142.61H493.77l-30.403,83.094c-2.818,7.706-6.377,14.965-10.554,21.738
	c-0.282,0.371-0.53,0.768-0.739,1.188c-20.725,32.729-56.369,53.5-96.359,54.653c-4.141,0.12-7.4,3.573-7.281,7.713
	c0.117,4.067,3.451,7.284,7.493,7.284c0.073,0,0.146-0.001,0.22-0.003c26.714-0.771,52.305-9.431,74.005-25.045
	c7.761-5.584,14.822-11.936,21.13-18.924V440.86c0,1.989,0.79,3.897,2.196,5.303l32.917,32.917H25.61l32.917-32.917
	c1.406-1.406,2.196-3.314,2.196-5.303V274.209c24.827,27.469,60.625,44.141,98.996,44.141h68.322v7.853
	c0,15.417,12.543,27.96,27.96,27.96s27.96-12.543,27.96-27.96v-7.853h44.108c4.143,0,7.5-3.358,7.5-7.5s-3.357-7.5-7.5-7.5h-44.108
	v-7.865c0-15.417-12.543-27.959-27.96-27.959s-27.96,12.542-27.96,27.959v7.865H159.72c-49.455,0-94.097-31.204-111.087-77.647
	L18.23,142.61H184.219z M15,177.435l19.546,53.422c2.996,8.189,6.755,15.957,11.178,23.236v183.661L15,468.477V177.435z
	 M268.962,310.811c0,0.013-0.002,0.026-0.002,0.039s0.002,0.026,0.002,0.039v15.314c0,7.146-5.813,12.96-12.96,12.96
	s-12.96-5.814-12.96-12.96v-30.718c0-7.146,5.813-12.959,12.96-12.959s12.96,5.813,12.96,12.959V310.811z"/>
<g>
</g>
<g>
</g>
<g>
</g>
<g>
</g>
<g>
</g>
<g>
</g>
<g>
</g>
<g>
</g>
<g>
</g>
<g>
</g>
<g>
</g>
<g>
</g>
<g>
</g>
<g>
</g>
<g>
</g>
</svg>
