<?xml version="1.0" encoding="iso-8859-1"?>
<!-- Generator: Adobe Illustrator 19.0.0, SVG Export Plug-In . SVG Version: 6.00 Build 0)  -->
<svg version="1.1" id="Capa_1" xmlns="http://www.w3.org/2000/svg" xmlns:xlink="http://www.w3.org/1999/xlink" x="0px" y="0px"
	 viewBox="0 0 512 512" style="enable-background:new 0 0 512 512;" xml:space="preserve">
<g>
	<polygon style="fill:#E50A82;" points="406.586,370.105 425.663,417.372 443.166,370.105 	"/>
	<path style="fill:#E50A82;" d="M436.124,101.167h-22.495V76.784c0-6.212,5.036-11.247,11.247-11.247l0,0
		c6.212,0,11.247,5.036,11.247,11.247L436.124,101.167L436.124,101.167z"/>
</g>
<path style="fill:#FF2796;" d="M443.163,100.715v269.386h-36.574V100.715c0-2.795,2.266-5.061,5.061-5.061h26.453
	C440.897,95.655,443.163,97.92,443.163,100.715z"/>
<path style="fill:#E50A82;" d="M443.166,100.72v269.378h-12.493V100.72c0-2.796-2.263-5.07-5.06-5.07h12.493
	C440.892,95.651,443.166,97.924,443.166,100.72z"/>
<rect x="406.589" y="265.7" style="fill:#5A9BCC;" width="36.579" height="104.4"/>
<rect x="430.669" y="265.7" style="fill:#1E70AD;" width="12.492" height="104.4"/>
<rect x="401.059" y="116.33" style="fill:#0054A0;" width="47.628" height="104.4"/>
<rect x="430.669" y="116.33" style="fill:#003A7F;" width="18.02" height="104.4"/>
<rect x="42.648" y="7.544" style="fill:#D2E3F1;" width="320.96" height="496.91"/>
<g>
	<rect x="42.648" y="7.544" style="fill:#A5C6E3;" width="16.09" height="496.91"/>
	<rect x="347.509" y="7.544" style="fill:#A5C6E3;" width="16.09" height="496.91"/>
</g>
<rect x="246.829" y="377.71" style="fill:#FF2796;" width="64.43" height="76.33"/>
<path d="M469.35,104.722c-4.167,0-7.544,3.378-7.544,7.544v17.421h-5.572v-13.36c0-3.466-2.34-6.379-5.525-7.263v-8.345
	c0-4.952-2.877-9.233-7.041-11.292V76.78c0-5.029-1.962-9.751-5.495-13.267c-3.543-3.562-8.264-5.524-13.295-5.524
	c-10.362,0-18.791,8.429-18.791,18.79v12.648c-4.164,2.06-7.041,6.341-7.041,11.292v8.344c-3.187,0.883-5.528,3.796-5.528,7.264
	v104.399c0,3.467,2.342,6.381,5.528,7.264v13.764c0,0.033-0.005,0.064-0.005,0.097s0.004,0.065,0.005,0.097v23.657
	c0,0.033-0.005,0.064-0.005,0.097s0.004,0.065,0.005,0.097v51.127c0,4.167,3.377,7.544,7.544,7.544s7.544-3.378,7.544-7.544v-43.68
	h21.486v89.318h-21.486v-17.613c0-4.167-3.377-7.544-7.544-7.544s-7.544,3.378-7.544,7.544v24.942
	c-0.029,1.028,0.159,2.081,0.543,3.035l19.078,47.267c1.153,2.856,3.923,4.721,6.995,4.721c0.037,0,0.074,0,0.11-0.001
	c3.116-0.045,5.884-2.001,6.966-4.923l17.502-47.267c0.307-0.826,0.47-1.735,0.47-2.616v-142.12
	c3.185-0.884,5.525-3.797,5.525-7.263v-75.951h5.572V268.24c0,4.167,3.377,7.544,7.544,7.544s7.544-3.378,7.544-7.544V112.266
	C476.894,108.099,473.517,104.722,469.35,104.722z M435.621,234.307h-21.486v-6.037h21.486V234.307z M414.135,103.205h21.486v5.578
	h-21.486V103.205z M441.146,137.581v75.6h-32.539v-89.31h32.539v13.009c-0.005,0.117-0.018,0.232-0.018,0.35
	C441.128,137.349,441.14,137.464,441.146,137.581z M424.879,73.078c0.985,0,1.908,0.382,2.625,1.104
	c0.694,0.691,1.077,1.613,1.077,2.598v11.336h-7.404V76.78C421.176,74.739,422.837,73.078,424.879,73.078z M414.135,258.158v-8.763
	h21.486v8.763H414.135z M425.36,396.464l-7.592-18.811h14.558L425.36,396.464z"/>
<path d="M363.604,0H42.648c-4.167,0-7.544,3.378-7.544,7.544v316.93c0,4.167,3.377,7.544,7.544,7.544s7.544-3.378,7.544-7.544
	V15.088h305.867V26.73c0,4.167,3.377,7.544,7.544,7.544s7.544-3.378,7.544-7.544V7.544C371.148,3.378,367.771,0,363.604,0z"/>
<path d="M363.604,47.203c-4.167,0-7.544,3.378-7.544,7.544v442.165H50.192v-144.42c0-4.167-3.377-7.544-7.544-7.544
	s-7.544,3.378-7.544,7.544v151.964c0,4.166,3.377,7.544,7.544,7.544h320.956c4.167,0,7.544-3.378,7.544-7.544V54.747
	C371.148,50.581,367.771,47.203,363.604,47.203z"/>
<path d="M155.887,156.417c0,4.167,3.377,7.544,7.544,7.544H311.26c4.167,0,7.544-3.378,7.544-7.544s-3.377-7.544-7.544-7.544
	H163.431C159.264,148.872,155.887,152.25,155.887,156.417z"/>
<path d="M94.993,163.961h39.267c4.167,0,7.544-3.378,7.544-7.544s-3.377-7.544-7.544-7.544H94.993c-4.167,0-7.544,3.378-7.544,7.544
	S90.826,163.961,94.993,163.961z"/>
<path d="M94.993,219.384h28.668c4.167,0,7.544-3.378,7.544-7.544s-3.377-7.544-7.544-7.544H94.993c-4.167,0-7.544,3.378-7.544,7.544
	S90.826,219.384,94.993,219.384z"/>
<path d="M94.993,240.509h68.438c4.167,0,7.544-3.378,7.544-7.544s-3.377-7.544-7.544-7.544H94.993c-4.167,0-7.544,3.378-7.544,7.544
	S90.826,240.509,94.993,240.509z"/>
<path d="M94.993,276.621h19.634c4.167,0,7.544-3.378,7.544-7.544s-3.377-7.544-7.544-7.544H94.993c-4.167,0-7.544,3.378-7.544,7.544
	S90.826,276.621,94.993,276.621z"/>
<path d="M94.993,299.756h19.634c4.167,0,7.544-3.378,7.544-7.544s-3.377-7.544-7.544-7.544H94.993c-4.167,0-7.544,3.378-7.544,7.544
	S90.826,299.756,94.993,299.756z"/>
<path d="M94.993,322.892h19.634c4.167,0,7.544-3.378,7.544-7.544s-3.377-7.544-7.544-7.544H94.993c-4.167,0-7.544,3.378-7.544,7.544
	S90.826,322.892,94.993,322.892z"/>
<path d="M94.993,346.027h19.634c4.167,0,7.544-3.378,7.544-7.544s-3.377-7.544-7.544-7.544H94.993c-4.167,0-7.544,3.378-7.544,7.544
	S90.826,346.027,94.993,346.027z"/>
<path d="M311.26,261.532H144.077c-4.167,0-7.544,3.378-7.544,7.544s3.377,7.544,7.544,7.544H311.26c4.167,0,7.544-3.378,7.544-7.544
	S315.427,261.532,311.26,261.532z"/>
<path d="M144.077,299.756h44.967c4.167,0,7.544-3.378,7.544-7.544s-3.377-7.544-7.544-7.544h-44.967
	c-4.167,0-7.544,3.378-7.544,7.544S139.91,299.756,144.077,299.756z"/>
<path d="M144.077,322.892h117.391c4.167,0,7.544-3.378,7.544-7.544s-3.377-7.544-7.544-7.544H144.077
	c-4.167,0-7.544,3.378-7.544,7.544S139.91,322.892,144.077,322.892z"/>
<path d="M144.077,346.027h151.591c4.167,0,7.544-3.378,7.544-7.544s-3.377-7.544-7.544-7.544H144.077
	c-4.167,0-7.544,3.378-7.544,7.544S139.91,346.027,144.077,346.027z"/>
<path d="M94.993,389.281h116.395c4.167,0,7.544-3.378,7.544-7.544s-3.377-7.544-7.544-7.544H94.993
	c-4.167,0-7.544,3.378-7.544,7.544S90.826,389.281,94.993,389.281z"/>
<path d="M94.993,418.452h116.395c4.167,0,7.544-3.378,7.544-7.544s-3.377-7.544-7.544-7.544H94.993
	c-4.167,0-7.544,3.378-7.544,7.544S90.826,418.452,94.993,418.452z"/>
<path d="M94.993,461.592h19.634c4.167,0,7.544-3.378,7.544-7.544s-3.377-7.544-7.544-7.544H94.993c-4.167,0-7.544,3.378-7.544,7.544
	S90.826,461.592,94.993,461.592z"/>
<path d="M192.013,69.37c2.947,2.946,7.723,2.946,10.67,0c2.946-2.946,2.946-7.723,0-10.669c-13.593-13.592-35.709-13.592-49.303,0
	c-13.591,13.592-13.592,35.709,0,49.302c6.797,6.796,15.724,10.195,24.651,10.195s17.855-3.398,24.651-10.195
	c2.946-2.946,2.946-7.723,0-10.669c-2.947-2.946-7.723-2.946-10.67,0c-7.708,7.71-20.254,7.709-27.963,0
	c-7.71-7.71-7.71-20.254,0-27.964C171.76,61.661,184.304,61.661,192.013,69.37z"/>
<path d="M237.345,115.099c2.932,0,5.599-1.699,6.838-4.358l22.557-48.405c1.76-3.777,0.126-8.265-3.651-10.025
	c-3.78-1.761-8.265-0.125-10.025,3.652l-15.719,33.731l-15.718-33.731c-1.759-3.777-6.25-5.41-10.025-3.652
	c-3.776,1.76-5.412,6.248-3.651,10.025l22.556,48.405C231.746,113.399,234.413,115.099,237.345,115.099z"/>
<path d="M246.827,461.592h64.433c4.167,0,7.544-3.378,7.544-7.544v-76.335c0-4.167-3.377-7.544-7.544-7.544h-64.433
	c-4.167,0-7.544,3.378-7.544,7.544v76.335C239.282,458.215,242.66,461.592,246.827,461.592z M254.371,385.257h49.345v61.247h-49.345
	L254.371,385.257L254.371,385.257z"/>
<g>
</g>
<g>
</g>
<g>
</g>
<g>
</g>
<g>
</g>
<g>
</g>
<g>
</g>
<g>
</g>
<g>
</g>
<g>
</g>
<g>
</g>
<g>
</g>
<g>
</g>
<g>
</g>
<g>
</g>
</svg>
