<?xml version="1.0" encoding="iso-8859-1"?>
<!-- Generator: Adobe Illustrator 19.0.0, SVG Export Plug-In . SVG Version: 6.00 Build 0)  -->
<svg version="1.1" id="Capa_1" xmlns="http://www.w3.org/2000/svg" xmlns:xlink="http://www.w3.org/1999/xlink" x="0px" y="0px"
	 viewBox="0 0 511.997 511.997" style="enable-background:new 0 0 511.997 511.997;" xml:space="preserve">
<path style="fill:#F9A13E;" d="M435.918,161.892c-10.564,23.384-27.542,36.651-27.542,36.651h-137.83
	c0,0-17.006-7.748-27.318-28.325c-1.026-2.033-1.977-4.196-2.844-6.489c-5.659-15.001-7.543-35.597,0.802-63.149
	c3.226-10.647,9.072-19.785,16.81-27.43C304.269,27.306,417.849,34.56,438.1,91.014
	C448.393,119.712,444.067,143.823,435.918,161.892z"/>
<g>
	<path style="fill:#E2780E;" d="M243.227,170.218c-1.026-2.033-1.977-4.196-2.844-6.489c-5.659-15.001-7.543-35.597,0.802-63.149
		c3.226-10.647,9.072-19.785,16.81-27.43c2.937,9.491,4.615,19.402,4.932,29.528C263.711,127.171,256.709,150.648,243.227,170.218z"
		/>
	<path style="fill:#E2780E;" d="M435.918,161.892c-10.562,23.387-27.542,36.651-27.542,36.651h-39.737
		c0-24.063,19.57-43.632,43.632-43.632C420.976,154.91,429.094,157.478,435.918,161.892z"/>
	<path style="fill:#E2780E;" d="M310.279,198.543h-39.736c0,0-20.538-9.357-30.154-34.816c7.308-5.529,16.406-8.817,26.258-8.817
		C290.709,154.91,310.279,174.48,310.279,198.543z"/>
</g>
<path style="fill:#D2E3F1;" d="M430.659,388.6v115.899H249.002V388.6c0-18.579,5.585-35.874,15.167-50.265
	c16.282-24.445,44.094-40.558,75.667-40.558c25.076,0,47.787,10.168,64.227,26.596c4.256,4.256,8.096,8.94,11.429,13.974
	C425.074,352.737,430.659,370.021,430.659,388.6z"/>
<path style="fill:#A5C6E3;" d="M415.492,338.347l-34.613,32.53c-5.247,4.932-13.433,4.853-18.579-0.169l-22.464-21.923
	l-22.464,21.923c-5.146,5.022-13.343,5.101-18.579,0.169l-34.624-32.541c16.282-24.445,44.094-40.558,75.667-40.558
	c25.076,0,47.787,10.168,64.227,26.596C408.319,328.629,412.159,333.313,415.492,338.347z"/>
<path style="fill:#5A9BCC;" d="M404.849,325.178l-33.124,31.127l-31.889-31.127l-31.889,31.127l-33.123-31.127
	c16.485-16.915,39.529-27.411,65.013-27.411c25.082,0,47.793,10.163,64.222,26.607C404.322,324.637,404.585,324.901,404.849,325.178
	z"/>
<g>
	<path style="fill:#FCCE99;" d="M339.832,325.178L339.832,325.178c-11.11,0-20.117-9.007-20.117-20.117v-34.696h40.234v34.696
		C359.949,316.171,350.943,325.178,339.832,325.178z"/>
	<circle style="fill:#FCCE99;" cx="412.268" cy="198.539" r="26.748"/>
	<circle style="fill:#FCCE99;" cx="266.638" cy="198.539" r="26.748"/>
</g>
<path style="fill:#FEE6CC;" d="M412.272,127.166l-3.468,41.561l-4.673,55.951c-2.804,33.634-30.92,59.498-64.677,59.498
	c-33.746,0-61.862-25.864-64.666-59.498l-4.898-58.664l-3.243-38.847L412.272,127.166L412.272,127.166z"/>
<path style="fill:#FCCE99;" d="M412.272,127.166l-3.468,41.561c-11.125,2.094-22.419,3.142-33.859,3.142
	c-37.653,0-67.774-11.451-83.572-19.029c-5.225,4.335-12.386,9.244-21.484,13.174l-3.243-38.847L412.272,127.166L412.272,127.166z"
	/>
<path style="fill:#F9A13E;" d="M398.76,106.349c22.52,17.028,61.93,25.207,61.93,25.207c-91.206,52.369-172.278,0.553-172.278,0.553
	s-10.373,13.498-30.36,20.394l8.595-46.154H398.76z"/>
<path style="fill:#FCE790;" d="M152.232,7.52c52.244,1.072,95.058,43.372,96.722,95.6c1.016,31.888-13.081,60.517-35.664,79.284
	v16.4c0,3.532-2.863,6.394-6.394,6.394h-55.408c-54.292,0-99.452-43.221-100.172-97.508C50.573,51.79,96.241,6.372,152.232,7.52z"/>
<path d="M369.41,407.938c-4.142,0-7.5,3.358-7.5,7.5s3.358,7.5,7.5,7.5h35.438c4.142,0,7.5-3.358,7.5-7.5s-3.358-7.5-7.5-7.5H369.41
	z"/>
<path d="M468.096,130.374c-0.491-3.076-2.832-5.528-5.882-6.162c-0.125-0.026-4.323-0.914-10.626-2.655
	c-0.312-10.932-2.463-22.032-6.429-33.078c-5.35-14.929-16.847-27.686-33.25-36.891c-3.613-2.026-8.184-0.742-10.211,2.87
	s-0.742,8.184,2.87,10.211c13.393,7.516,22.299,17.229,26.472,28.874c2.794,7.78,4.523,15.554,5.223,23.222
	c-11.141-3.919-23.699-9.382-32.979-16.399c-3.305-2.498-8.008-1.845-10.506,1.459s-1.845,8.008,1.459,10.506
	c13.301,10.057,31.705,17.107,45.534,21.407c-0.176,0.073-0.347,0.155-0.517,0.24c-30.839,13.459-63.326,16.918-96.834,10.258
	c-30.089-5.98-49.782-18.33-49.968-18.447c-3.278-2.096-7.615-1.336-9.986,1.75c-0.09,0.117-9.486,11.88-26.86,17.875
	c-3.916,1.351-5.995,5.621-4.644,9.536c1.351,3.916,5.622,5.993,9.536,4.644c0.437-0.151,0.858-0.313,1.287-0.47l0.456,5.467
	c-4.126,0.532-8.023,1.796-11.557,3.666c-2.354-4.406-4.178-9.139-5.443-14.153c7.851-15.61,11.787-33.119,11.21-51.222
	c-0.154-4.827-0.641-9.602-1.436-14.302c22.634-34.729,82.001-44.552,124.651-33.625c4.014,1.029,8.099-1.391,9.127-5.404
	c1.028-4.012-1.391-8.099-5.404-9.126c-44.505-11.402-103.058-2.721-133.162,29.949c-5.325-14.728-13.926-28.238-25.394-39.571
	c-19.52-19.291-45.249-30.223-72.446-30.78C123.263-0.57,95.872,10.383,75.23,30.876c-20.644,20.495-31.8,47.811-31.414,76.916
	c0.341,25.683,10.119,50.365,27.533,69.5c17.15,18.845,40.494,31.078,65.731,34.447c4.107,0.547,7.878-2.336,8.426-6.442
	c0.548-4.105-2.336-7.878-6.442-8.426c-45.154-6.027-79.654-44.408-80.249-89.278c-0.332-25.004,9.251-48.469,26.983-66.073
	c17.73-17.603,41.244-27.021,66.281-26.501c48.573,0.996,87.833,39.799,89.379,88.34c0.906,28.408-11.108,55.117-32.961,73.277
	c-1.715,1.425-2.707,3.539-2.707,5.768v15.295h-39.866c-4.142,0-7.5,3.358-7.5,7.5s3.358,7.5,7.5,7.5h40.972
	c7.662,0,13.895-6.233,13.895-13.895v-12.957c5.306-4.711,10.07-9.875,14.263-15.405c1.194,2.684,2.549,5.277,4.039,7.787
	c-4.203,5.686-6.694,12.711-6.694,20.309c0,18.886,15.36,34.25,34.24,34.25c0.564,0,1.125-0.037,1.687-0.064
	c2.878,15.267,10.563,29.207,22.113,39.834c6.448,5.933,13.831,10.569,21.777,13.797v7.861
	c-15.785,4.606-30.18,13.118-41.911,24.858c-0.289,0.289-0.57,0.584-0.855,0.876c-0.03,0.031-0.063,0.057-0.092,0.089
	c-0.013,0.014-0.024,0.03-0.038,0.044c-17.942,18.451-27.811,42.722-27.811,68.514v115.9c0,4.142,3.358,7.5,7.5,7.5h181.65
	c4.142,0,7.5-3.358,7.5-7.5v-27.57c0-4.142-3.358-7.5-7.5-7.5s-7.5,3.358-7.5,7.5v20.072h-76.286V342.53l19.612,19.144
	c1.456,1.421,3.346,2.133,5.239,2.133c1.845,0,3.691-0.677,5.136-2.035l27.41-25.762c11.844,14.537,18.888,32.989,18.888,52.589
	v60.47c0,4.142,3.358,7.5,7.5,7.5s7.5-3.358,7.5-7.5v-60.47c0-22.438-7.758-44.386-21.844-61.799
	c-1.869-2.311-3.847-4.522-5.909-6.644c-0.034-0.037-0.063-0.078-0.098-0.115c-0.146-0.155-0.299-0.297-0.454-0.437
	c-11.748-11.902-26.405-20.683-42.404-25.372v-8.189c7.661-3.213,14.783-7.738,21.028-13.483
	c11.552-10.628,19.237-24.568,22.112-39.834c0.559,0.027,1.116,0.064,1.678,0.064c18.886,0,34.25-15.364,34.25-34.25
	c0-8.962-3.466-17.127-9.124-23.237c5.518-9.395,9.469-19.234,11.789-29.364c5.039-2.325,10.124-4.94,15.241-7.878
	C467.126,136.509,468.587,133.45,468.096,130.374z M247.398,198.539c0-9.535,6.979-17.45,16.093-18.96l3.187,38.208
	c-0.013,0-0.027,0.001-0.04,0.001C256.029,217.789,247.398,209.153,247.398,198.539z M325.517,328.67l-17.673,17.252l-22.06-20.734
	c7.94-6.783,17.036-11.992,26.849-15.375C314.023,317.791,318.841,324.608,325.517,328.67z M256.508,496.999v-108.4
	c0-19.438,6.613-37.858,18.773-52.697l27.525,25.871c2.927,2.75,7.502,2.708,10.375-0.098l18.691-18.245v153.569H256.508z
	 M371.821,345.922l-17.673-17.252c6.669-4.059,11.484-10.865,12.88-18.833c9.941,3.45,18.983,8.741,26.77,15.429L371.821,345.922z
	 M352.449,299.842c-0.001,0.024,0,0.047,0,0.071v5.148c0,6.956-5.659,12.615-12.615,12.617c-0.002,0-0.003,0-0.005,0
	c-6.956-0.001-12.614-5.66-12.614-12.617v-5.11c0-0.041,0.001-0.081,0-0.123v-9.202c4.015,0.686,8.105,1.054,12.241,1.054
	c4.393,0,8.738-0.404,12.993-1.177V299.842z M339.456,276.68c-29.606,0-54.733-23.117-57.204-52.626l-0.059-0.706
	c-0.003-0.027-0.004-0.055-0.007-0.082l-5.934-71.142c6.027-3.709,10.583-7.6,13.614-10.551c8.34,4.447,25.684,12.533,48.994,17.25
	c10.258,2.076,22.376,3.602,35.841,3.602c8.591,0,17.731-0.628,27.28-2.124l-5.322,63.754
	C394.197,253.564,369.071,276.68,339.456,276.68z M412.268,217.789c-0.011,0-0.022-0.001-0.032-0.001l3.19-38.207
	c9.114,1.513,16.093,9.426,16.093,18.958C431.518,209.153,422.882,217.789,412.268,217.789z M425.01,166.766
	c-2.633-1.059-5.426-1.799-8.334-2.174l0.617-7.393c4.647-1.16,9.369-2.541,14.151-4.167
	C429.719,157.699,427.574,162.285,425.01,166.766z"/>
<path d="M304.927,185.437c-4.142,0-7.5,3.358-7.5,7.5v1.432c0,4.142,3.358,7.5,7.5,7.5s7.5-3.358,7.5-7.5v-1.432
	C312.427,188.795,309.07,185.437,304.927,185.437z"/>
<path d="M373.816,185.437c-4.142,0-7.5,3.358-7.5,7.5v1.432c0,4.142,3.358,7.5,7.5,7.5s7.5-3.358,7.5-7.5v-1.432
	C381.316,188.795,377.958,185.437,373.816,185.437z"/>
<path d="M352.038,230.423c-2.812,2.15-7.006,3.384-11.508,3.384c-4.501,0-8.696-1.233-11.509-3.384
	c-3.289-2.515-7.996-1.888-10.514,1.402c-2.516,3.291-1.888,7.998,1.402,10.514c5.455,4.171,12.778,6.468,20.62,6.468
	c7.843,0,15.166-2.297,20.621-6.469c3.29-2.516,3.917-7.223,1.401-10.514C360.035,228.534,355.329,227.907,352.038,230.423z"/>
<path d="M100.77,132.427h-1.623c-3.819,0-6.925-3.106-6.925-6.925c0-4.142-3.358-7.5-7.5-7.5s-7.5,3.358-7.5,7.5
	c0,12.09,9.835,21.925,21.925,21.925h1.623c12.09,0,21.925-9.835,21.925-21.925V78.425c0-4.142-3.358-7.5-7.5-7.5H91.556
	c-4.142,0-7.5,3.358-7.5,7.5s3.358,7.5,7.5,7.5h16.139v39.577C107.695,129.32,104.589,132.427,100.77,132.427z"/>
<path d="M171.39,124.596v-30.84c0-12.589-10.242-22.831-22.831-22.831s-22.831,10.241-22.831,22.83v30.84
	c0,12.589,10.242,22.831,22.831,22.831S171.39,137.184,171.39,124.596z M156.39,124.596c0,4.318-3.513,7.831-7.831,7.831
	s-7.831-3.513-7.831-7.831v-30.84c0-4.318,3.513-7.831,7.831-7.831s7.831,3.513,7.831,7.831V124.596z"/>
<path d="M194.729,70.925h-12.684c-4.142,0-7.5,3.358-7.5,7.5v61.502c0,4.142,3.358,7.5,7.5,7.5h16.267
	c13.663,0,24.778-11.116,24.778-24.778c0-8.271-4.077-15.602-10.323-20.106c1.852-3.125,2.935-6.757,2.935-10.645
	C215.702,80.333,206.293,70.925,194.729,70.925z M200.702,91.897c0,3.293-2.68,5.973-5.973,5.973h-5.184V85.925h5.184
	C198.022,85.925,200.702,88.604,200.702,91.897z M198.312,132.427h-8.767V112.87h5.184h3.583c5.392,0,9.778,4.387,9.778,9.778
	C208.09,128.04,203.703,132.427,198.312,132.427z"/>
<g>
</g>
<g>
</g>
<g>
</g>
<g>
</g>
<g>
</g>
<g>
</g>
<g>
</g>
<g>
</g>
<g>
</g>
<g>
</g>
<g>
</g>
<g>
</g>
<g>
</g>
<g>
</g>
<g>
</g>
</svg>
