<?xml version="1.0" encoding="iso-8859-1"?>
<!-- Generator: Adobe Illustrator 19.0.0, SVG Export Plug-In . SVG Version: 6.00 Build 0)  -->
<svg version="1.1" id="Capa_1" xmlns="http://www.w3.org/2000/svg" xmlns:xlink="http://www.w3.org/1999/xlink" x="0px" y="0px"
	 viewBox="0 0 512.003 512.003" style="enable-background:new 0 0 512.003 512.003;" xml:space="preserve">
<path style="fill:#FFFFFF;" d="M501.75,226.001v60l-49.71,10.93c-5.17,24.53-14.84,47.77-28.71,68.66l23.34,38.9l-42.43,42.43
	l-39.37-23.62c-20.74,13.44-43.67,22.89-67.91,27.85l-11.21,50.85h-60l-11.21-50.85c-24.24-4.96-47.17-14.41-67.91-27.85
	l-39.37,23.62l-42.43-42.43l23.34-38.9c-13.88-20.89-23.54-44.13-28.71-68.66l-49.71-10.93v-60l49.32-10.83
	c5.04-24.83,14.75-48.33,28.67-69.48l-22.91-38.18l42.43-42.43l38.18,22.91c21.15-13.92,44.65-23.63,69.48-28.66l10.83-49.33h60
	l10.83,49.33c24.83,5.03,48.33,14.74,69.48,28.66l38.18-22.91l42.43,42.43l-22.91,38.18c13.92,21.15,23.63,44.65,28.66,69.48
	L501.75,226.001z"/>
<path style="fill:#7BD8E8;" d="M394.75,257.001c0,77.32-62.68,140-140,140s-140-62.68-140-140c0-77.309,62.669-140,140-140
	C332.037,117.001,394.75,179.648,394.75,257.001z"/>
<path style="fill:#FFFFFF;" d="M254.75,237.001c11.05,0,20,8.95,20,20c0,11.05-8.95,20-20,20c-11.05,0-20-8.95-20-20
	C234.75,245.951,243.7,237.001,254.75,237.001z"/>
<path d="M7.853,295.768l43.51,9.567c5.224,21.514,13.708,41.792,25.288,60.436l-20.146,33.576c-2.36,3.935-1.74,8.971,1.504,12.216
	l42.43,42.43c3.244,3.245,8.282,3.864,12.216,1.504l34.11-20.464c18.601,11.289,38.605,19.509,59.634,24.504l9.836,44.618
	c1.011,4.583,5.072,7.847,9.766,7.847h60c4.693,0,8.755-3.264,9.766-7.847l9.836-44.618c21.028-4.996,41.033-13.216,59.634-24.504
	l34.11,20.464c3.934,2.36,8.972,1.741,12.216-1.504l42.43-42.43c3.244-3.245,3.864-8.281,1.504-12.216l-20.146-33.577
	c11.583-18.659,20.068-38.937,25.289-60.435l43.51-9.567c4.586-1.008,7.853-5.071,7.853-9.767v-60c0-4.697-3.269-8.76-7.855-9.768
	l-43.076-9.457c-5.104-21.685-13.593-42.233-25.303-61.241l19.729-32.879c2.36-3.935,1.74-8.972-1.504-12.216l-42.43-42.43
	c-3.244-3.245-8.283-3.864-12.217-1.503l-32.879,19.729c-19.008-11.71-39.557-20.2-61.241-25.303L295.77,7.857
	c-1.009-4.587-5.074-7.856-9.77-7.856h-60c-4.696,0-8.761,3.269-9.768,7.855l-9.457,43.076
	c-21.685,5.103-42.233,13.592-61.241,25.303l-32.879-19.729c-3.937-2.362-8.973-1.741-12.217,1.503l-42.43,42.43
	c-3.244,3.245-3.864,8.281-1.504,12.216l19.729,32.879c-11.706,19.002-20.199,39.552-25.31,61.241l-43.069,9.458
	C3.269,217.241,0,221.305,0,226.001v60C0,290.696,3.267,294.759,7.853,295.768z M20,234.043l41.465-9.105
	c3.866-0.849,6.868-3.898,7.655-7.778c4.793-23.611,13.952-45.807,27.224-65.972c2.112-3.21,2.198-7.347,0.222-10.643
	l-18.894-31.484l31.388-31.387l31.485,18.893c3.295,1.977,7.431,1.892,10.644-0.222c20.17-13.275,42.364-22.431,65.967-27.212
	c3.881-0.786,6.933-3.789,7.782-7.656l9.105-41.476h43.914l9.105,41.475c0.85,3.868,3.901,6.87,7.782,7.656
	c23.603,4.781,45.797,13.937,65.967,27.212c3.211,2.113,7.347,2.199,10.644,0.222l31.485-18.893l31.388,31.387l-18.894,31.485
	c-1.977,3.296-1.891,7.433,0.222,10.643c13.275,20.17,22.431,42.365,27.213,65.968c0.786,3.881,3.789,6.933,7.656,7.782L492,234.043
	v43.917l-41.857,9.204c-3.839,0.844-6.827,3.858-7.638,7.704c-4.946,23.468-14.116,45.401-27.256,65.191
	c-2.134,3.213-2.229,7.368-0.244,10.676l19.323,32.205l-31.389,31.388l-32.675-19.604c-3.272-1.963-7.378-1.893-10.583,0.183
	c-19.831,12.851-41.523,21.749-64.477,26.445c-3.869,0.792-6.91,3.787-7.761,7.644l-9.478,43.005h-43.93l-9.479-43.003
	c-0.851-3.857-3.892-6.853-7.761-7.644c-22.953-4.697-44.646-13.594-64.477-26.445c-3.203-2.076-7.31-2.146-10.583-0.183
	L109.06,434.33l-31.388-31.389l19.323-32.205c1.985-3.309,1.89-7.465-0.246-10.679c-13.134-19.767-22.304-41.699-27.254-65.188
	c-0.811-3.846-3.799-6.86-7.638-7.704L20,277.961V234.043z"/>
<path d="M255,287.001c13.036,0,24.152-8.361,28.28-20H315c5.522,0,10-4.477,10-10s-4.478-10-10-10h-31.72
	c-3.018-8.509-9.771-15.262-18.28-18.28v-51.72c0-5.523-4.478-10-10-10s-10,4.477-10,10v51.72c-11.639,4.128-20,15.243-20,28.28
	C225,273.543,238.458,287.001,255,287.001z M255,247.001c5.514,0,10,4.486,10,10s-4.486,10-10,10s-10-4.486-10-10
	S249.486,247.001,255,247.001z"/>
<path d="M255,407.001c82.663,0,150-67.273,150-150c0-82.75-67.065-150-150-150c-82.75,0-150,67.065-150,150
	C105,339.665,172.274,407.001,255,407.001z M135,247.001h-9.621c2.089-27.652,12.823-53.567,30.895-74.588l6.803,6.807
	c3.902,3.904,10.234,3.911,14.142,0.004c3.907-3.904,3.909-10.235,0.005-14.142l-6.805-6.809
	c21.03-18.069,46.942-28.802,74.581-30.892v9.62c0,5.523,4.478,10,10,10s10-4.477,10-10v-9.62
	c27.639,2.089,53.551,12.823,74.581,30.892l-6.805,6.809c-3.904,3.907-3.902,10.238,0.005,14.142
	c3.904,3.902,10.237,3.904,14.142-0.004l6.803-6.807c18.072,21.021,28.806,46.936,30.895,74.588H375c-5.522,0-10,4.477-10,10
	c0,5.523,4.478,9.9,10,9.9h9.619c-2.166,28.34-13.463,54.263-30.941,74.635l-6.757-6.757c-3.906-3.905-10.236-3.905-14.143,0
	c-3.905,3.905-3.905,10.237,0,14.142l6.757,6.757c-20.373,17.478-46.196,28.775-74.535,30.941v-9.618c0-5.523-4.478-10-10-10
	s-10,4.477-10,10v9.619c-28.339-2.166-54.162-13.463-74.535-30.941l6.757-6.757c3.905-3.905,3.905-10.237,0-14.142
	c-3.904-3.905-10.234-3.905-14.143,0l-6.757,6.757c-17.478-20.373-28.775-46.196-30.941-74.535H135c5.522,0,10-4.477,10-10
	S140.522,247.001,135,247.001z"/>
<g>
</g>
<g>
</g>
<g>
</g>
<g>
</g>
<g>
</g>
<g>
</g>
<g>
</g>
<g>
</g>
<g>
</g>
<g>
</g>
<g>
</g>
<g>
</g>
<g>
</g>
<g>
</g>
<g>
</g>
</svg>
