<?xml version="1.0" encoding="iso-8859-1"?>
<!-- Generator: Adobe Illustrator 19.0.0, SVG Export Plug-In . SVG Version: 6.00 Build 0)  -->
<svg version="1.1" id="Capa_1" xmlns="http://www.w3.org/2000/svg" xmlns:xlink="http://www.w3.org/1999/xlink" x="0px" y="0px"
	 viewBox="0 0 512 512" style="enable-background:new 0 0 512 512;" xml:space="preserve">
<g>
	<path style="fill:#FF5249;" d="M315.75,316v20h-120v-20c0-33.14,26.86-60,60-60S315.75,282.86,315.75,316z"/>
	<circle style="fill:#FF5249;" cx="255.75" cy="216" r="40"/>
</g>
<path d="M10,266h36.244C51.326,373.854,138.146,460.674,246,465.756V502c0,5.523,4.478,10,10,10s10-4.477,10-10v-36.244
	C373.854,460.674,460.674,373.854,465.756,266H502c5.522,0,10-4.477,10-10s-4.478-10-10-10h-36.244
	C460.674,138.146,373.854,51.326,266,46.244V10c0-5.523-4.478-10-10-10s-10,4.477-10,10v36.244
	C138.146,51.326,51.326,138.146,46.244,246H10c-5.522,0-10,4.477-10,10C0,261.523,4.478,266,10,266z M66.263,266h40.079
	c4.946,74.758,64.901,134.713,139.659,139.659v40.079C149.176,440.692,71.308,362.824,66.263,266z M136,246h-9.619
	c4.871-63.727,55.892-114.749,119.619-119.619V136c0,5.523,4.478,10,10,10s10-4.477,10-10v-9.619
	c63.727,4.871,114.749,55.892,119.619,119.619H376c-5.522,0-10,4.477-10,10c0,5.523,4.478,9.9,10,9.9h9.619
	c-4.87,63.727-55.892,114.849-119.619,119.719V376c0-5.523-4.478-10-10-10s-10,4.477-10,10v9.619
	c-63.727-4.87-114.749-55.892-119.619-119.619H136c5.522,0,10-4.477,10-10S141.522,246,136,246z M266,445.737v-40.079
	c74.758-4.946,134.713-65,139.659-139.759h40.079C440.692,362.724,362.824,440.692,266,445.737z M445.737,246h-40.079
	c-4.945-74.758-64.9-134.713-139.658-139.659V66.263C362.824,71.308,440.692,149.176,445.737,246z M246,66.263v40.079
	c-74.758,4.946-134.713,64.9-139.659,139.659H66.263C71.308,149.176,149.176,71.308,246,66.263z"/>
<path d="M196,346h120c5.522,0,10-4.477,10-10v-20c0-26.895-15.255-50.281-37.559-61.999C299.176,244.823,306,231.198,306,216
	c0-27.57-22.43-50-50-50s-50,22.43-50,50c0,15.198,6.824,28.823,17.559,38.001C201.255,265.719,186,289.105,186,316v20
	C186,341.523,190.478,346,196,346z M226,216c0-16.542,13.458-30,30-30s30,13.458,30,30s-13.458,30-30,30S226,232.542,226,216z
	 M206,316c0-27.57,22.43-50,50-50s50,22.43,50,50v10H206V316z"/>
<g>
</g>
<g>
</g>
<g>
</g>
<g>
</g>
<g>
</g>
<g>
</g>
<g>
</g>
<g>
</g>
<g>
</g>
<g>
</g>
<g>
</g>
<g>
</g>
<g>
</g>
<g>
</g>
<g>
</g>
</svg>
