<?xml version="1.0" encoding="iso-8859-1"?>
<!-- Generator: Adobe Illustrator 19.0.0, SVG Export Plug-In . SVG Version: 6.00 Build 0)  -->
<svg version="1.1" id="Capa_1" xmlns="http://www.w3.org/2000/svg" xmlns:xlink="http://www.w3.org/1999/xlink" x="0px" y="0px"
	 viewBox="0 0 512 512" style="enable-background:new 0 0 512 512;" xml:space="preserve">
<path style="fill:#FFDD78;" d="M501.75,66c0,16.57-13.43,30-30,30c-22.516,0-413.09,0-432,0c-16.56,0-30-13.44-30-30
	c0-16.57,13.43-30,30-30h432C488.31,36,501.75,49.44,501.75,66z"/>
<path style="fill:#FF5249;" d="M455.75,96l-160,200h-80l-160-200H455.75z"/>
<polygon style="fill:#FFDD78;" points="295.75,296 295.75,436 215.75,476 215.75,296 "/>
<path d="M276,266c5.52,0,10-4.48,10-10s-4.48-10-10-10s-10,4.48-10,10C266,261.52,270.48,266,276,266z"/>
<path d="M40,106h11.194L206,299.508V476c0,3.466,1.795,6.685,4.743,8.506c2.948,1.823,6.63,1.987,9.729,0.438l80-40
	C303.86,443.25,306,439.788,306,436V299.508L460.806,106H472c22.056,0,40-17.944,40-40c0-22.097-17.898-40-40-40H40
	C17.944,26,0,43.944,0,66C0,88.097,17.898,106,40,106z M226,459.82V306h60v123.82L226,459.82z M291.193,286h-70.387l-144-180
	h358.388L291.193,286z M40,46h432c11.045,0,20,8.954,20,20c0,11.028-8.972,20-20,20H40c-11.045,0-20-8.954-20-20
	C20,54.972,28.972,46,40,46z"/>
<path d="M295.203,232.969c4.304,3.443,10.598,2.76,14.056-1.562l71.33-89.16c3.45-4.313,2.751-10.605-1.562-14.056
	c-4.312-3.451-10.606-2.75-14.056,1.562l-71.33,89.16C290.191,223.226,290.891,229.519,295.203,232.969z"/>
<g>
</g>
<g>
</g>
<g>
</g>
<g>
</g>
<g>
</g>
<g>
</g>
<g>
</g>
<g>
</g>
<g>
</g>
<g>
</g>
<g>
</g>
<g>
</g>
<g>
</g>
<g>
</g>
<g>
</g>
</svg>
