<?xml version="1.0" encoding="iso-8859-1"?>
<!-- Generator: Adobe Illustrator 19.0.0, SVG Export Plug-In . SVG Version: 6.00 Build 0)  -->
<svg version="1.1" id="Capa_1" xmlns="http://www.w3.org/2000/svg" xmlns:xlink="http://www.w3.org/1999/xlink" x="0px" y="0px"
	 viewBox="0 0 512.001 512.001" style="enable-background:new 0 0 512.001 512.001;" xml:space="preserve">
<path style="fill:#4D5578;" d="M346.006,461.991h-40.008v-73.014v-0.01c-6.611,0.59-13.283,0.89-20.004,0.89
	s-13.393-0.3-20.004-0.89v0.01v73.014h-40.008c-16.573,0-31.576,1.72-42.438,7.572c-10.852,5.861-17.573,15.863-17.573,32.436
	h240.047C406.018,468.852,379.153,461.991,346.006,461.991z"/>
<path style="fill:#7BD8E8;" d="M399.157,56.772c-61.8-61.769-162.68-62.706-225.464-0.84c-0.29,0.28-0.58,0.56-0.86,0.84
	c-0.28,0.28-0.56,0.57-0.84,0.86c-61.755,62.67-61.053,163.54,0.84,225.464c61.8,61.769,162.68,62.706,225.464,0.84
	c0.29-0.28,0.58-0.56,0.86-0.84c0.28-0.28,0.56-0.57,0.84-0.86C461.752,219.566,461.05,118.696,399.157,56.772z"/>
<path d="M341.005,104.921c-5.521,0-10.002,4.481-10.002,10.002s4.481,10.002,10.002,10.002c5.521,0,10.002-4.481,10.002-10.002
	S346.527,104.921,341.005,104.921z"/>
<path d="M406.244,49.715c-0.005-0.005-0.01-0.011-0.015-0.016c-0.004-0.005-0.01-0.008-0.014-0.013
	c-63.693-63.654-166.142-66.381-233.152-6.829L137.467,7.26c-1.876-1.875-4.42-2.93-7.072-2.93c-2.653,0-5.196,1.054-7.072,2.93
	c-89.693,89.694-89.693,235.643,0.001,325.348c36.396,36.385,82.105,58.85,132.667,65.324v54.058h-30.006
	c-39.112,0-70.014,10.547-70.014,50.01c0,5.523,4.479,10.002,10.002,10.002h240.047c5.523,0,10.002-4.479,10.002-10.002
	c0-39.328-30.692-50.01-70.014-50.01h-30.006v-54.057c50.562-6.475,96.271-28.94,132.667-65.324c1.876-1.875,2.931-4.42,2.931-7.072
	s-1.054-5.197-2.93-7.073l-35.597-35.597C472.404,216.104,470.186,113.702,406.244,49.715z M397.993,267.786l-41.271-41.271
	l32.219-32.219C403.183,224.484,406.425,251.093,397.993,267.786z M187.217,282.857l42.308-42.308
	c15.146,14.253,31.393,26.83,47.826,37.044l-35.638,35.638C221.657,307.076,203.06,296.707,187.217,282.857z M142.698,214.216
	l35.638-35.638c10.213,16.433,22.791,32.681,37.044,47.826l-42.307,42.308C159.223,252.87,148.856,234.273,142.698,214.216z
	 M150.222,106.375c2.04,16.487,8.024,34.83,17.889,54.135l-30.551,30.551C133.49,162.043,138.042,132.563,150.222,106.375z
	 M310.355,272.88l32.22-32.22l41.272,41.272C367.154,290.368,340.543,287.123,310.355,272.88z M291.91,263.036
	c-16.5-9.814-32.938-22.293-48.236-36.635l42.321-42.321l42.435,42.435L291.91,263.036z M229.529,212.255
	c-14.342-15.297-26.821-31.736-36.635-48.236l36.521-36.52l42.435,42.435L229.529,212.255z M183.049,145.573
	c-14.242-30.188-17.484-56.797-9.052-73.49l41.271,41.271L183.049,145.573z M188.143,57.937c16.693-8.435,43.301-5.191,73.491,9.052
	l-32.219,32.219L188.143,57.937z M295.42,287.817c19.296,9.861,37.633,15.857,54.115,17.9
	c-26.181,12.172-55.653,16.721-84.665,12.651L295.42,287.817z M393.658,161.288c-5.013-8.077-10.584-16.11-16.671-23.992
	c-3.377-4.373-9.661-5.18-14.029-1.802c-4.372,3.377-5.179,9.657-1.802,14.029c6.684,8.654,12.69,17.482,17.943,26.324
	l-36.522,36.522l-42.435-42.435l19.663-19.663c3.906-3.906,3.906-10.239,0-14.146c-3.907-3.905-10.238-3.905-14.146,0
	l-19.663,19.663l-42.435-42.435l36.523-36.522c8.842,5.252,17.669,11.259,26.324,17.944c4.371,3.377,10.652,2.569,14.029-1.802
	c3.377-4.372,2.569-10.652-1.802-14.029c-7.882-6.088-15.915-11.658-23.992-16.671l35.634-35.634
	c20.057,6.156,38.655,16.524,54.497,30.374l-22.564,22.564c-3.906,3.906-3.906,10.239,0,14.146c3.908,3.906,10.238,3.905,14.146,0
	l22.564-22.564c13.85,15.841,24.217,34.438,30.375,54.497L393.658,161.288z M307.122,21.501l-30.551,30.55
	c-19.305-9.865-37.649-15.849-54.136-17.888C248.621,21.982,278.101,17.43,307.122,21.501z M394.81,491.997H177.199
	c2.171-7.763,6.863-11.347,11.09-13.629c7.963-4.29,20.292-6.375,37.694-6.375h120.023
	C379.244,471.993,391.318,479.684,394.81,491.997z M275.993,451.989v-52.348c6.826,0.29,13.167,0.291,20.004,0v52.348H275.993z
	 M137.467,318.463c-79.525-79.535-81.829-207.491-6.906-289.819l28.359,28.359c-59.333,66.761-57.114,169.163,6.827,233.15
	c0.005,0.005,0.01,0.011,0.015,0.016c0.004,0.005,0.01,0.008,0.014,0.013c63.694,63.653,166.125,66.396,233.152,6.829l28.362,28.362
	C345.907,399.613,217.827,398.8,137.467,318.463z M421.768,233.492c-2.039-16.487-8.024-34.83-17.889-54.135l30.551-30.551
	C438.5,177.825,433.948,207.305,421.768,233.492z"/>
<g>
</g>
<g>
</g>
<g>
</g>
<g>
</g>
<g>
</g>
<g>
</g>
<g>
</g>
<g>
</g>
<g>
</g>
<g>
</g>
<g>
</g>
<g>
</g>
<g>
</g>
<g>
</g>
<g>
</g>
</svg>
