<?xml version="1.0" encoding="iso-8859-1"?>
<!-- Generator: Adobe Illustrator 19.0.0, SVG Export Plug-In . SVG Version: 6.00 Build 0)  -->
<svg version="1.1" id="Capa_1" xmlns="http://www.w3.org/2000/svg" xmlns:xlink="http://www.w3.org/1999/xlink" x="0px" y="0px"
	 viewBox="0 0 512 512" style="enable-background:new 0 0 512 512;" xml:space="preserve">
<path style="fill:#FFFFFF;" d="M501.75,106v360c0,11.05-8.95,20-20,20h-452c-11.05,0-20-8.95-20-20V106h491.18H501.75z"/>
<path style="fill:#7BD8E8;" d="M501.75,46v60h-0.82H9.75V46c0-11.05,8.95-20,20-20h452C492.8,26,501.75,34.95,501.75,46z"/>
<path style="fill:#4D5578;" d="M305.75,256v10c-27.101,0-84.039,0-100,0v-10c0-27.741,22.529-50,50-50
	C283.4,206,305.75,228.448,305.75,256z"/>
<path style="fill:#4AB5A7;" d="M305.75,266c-27.101,0-84.039,0-100,0c-11.05,0-20,8.95-20,20c0,14.275,0,55.755,0,70
	c0,38.66,31.34,70,70,70s70-31.34,70-70c0-14.245,0-55.725,0-70C325.75,274.95,316.8,266,305.75,266z"/>
<path d="M316,76c5.52,0,10-4.48,10-10s-4.48-10-10-10s-10,4.48-10,10S310.48,76,316,76z"/>
<path d="M156,76c5.52,0,10-4.48,10-10s-4.48-10-10-10s-10,4.48-10,10S150.48,76,156,76z"/>
<path d="M116,76c5.52,0,10-4.48,10-10s-4.48-10-10-10s-10,4.48-10,10S110.48,76,116,76z"/>
<path d="M76,76c5.52,0,10-4.48,10-10s-4.48-10-10-10s-10,4.48-10,10S70.48,76,76,76z"/>
<path d="M482,16H30C13.458,16,0,29.458,0,46v420c0,16.542,13.458,30,30,30h452c16.542,0,30-13.458,30-30V46
	C512,29.458,498.542,16,482,16z M30,36h452c5.514,0,10,4.486,10,10v50H20V46C20,40.486,24.486,36,30,36z M482,476H30
	c-5.514,0-10-4.486-10-10V116h472v350C492,471.514,487.514,476,482,476z"/>
<path d="M356,76h86c5.523,0,10-4.477,10-10s-4.477-10-10-10h-86c-5.523,0-10,4.477-10,10S350.477,76,356,76z"/>
<path d="M376,336c5.523,0,10-4.477,10-10s-4.477-10-10-10h-40v-20h20c3.788,0,7.25-2.14,8.944-5.528l20-40
	c2.47-4.94,0.468-10.947-4.472-13.417s-10.947-0.468-13.417,4.472L349.82,276h-15.54c-3.018-8.509-9.771-15.262-18.28-18.28V256
	c0-23.405-13.304-43.383-32.449-53.302l20.77-31.151c3.063-4.595,1.822-10.804-2.773-13.868c-4.595-3.063-10.804-1.822-13.868,2.773
	l-24.03,36.041c-5.068-0.642-10.233-0.642-15.299,0l-24.03-36.041c-3.063-4.595-9.273-5.837-13.868-2.773
	c-4.595,3.064-5.836,9.272-2.773,13.868l20.765,31.144C208.838,212.806,196,233.164,196,256v1.72
	c-8.509,3.018-15.262,9.771-18.28,18.28h-15.54l-17.236-34.472c-2.469-4.939-8.476-6.941-13.417-4.472
	c-4.94,2.47-6.942,8.477-4.472,13.417l20,40C148.75,293.86,152.212,296,156,296h20v20h-40c-5.523,0-10,4.477-10,10s4.477,10,10,10
	h40v20h-20c-3.788,0-7.25,2.14-8.944,5.528l-20,40c-2.47,4.94-0.468,10.947,4.472,13.417c4.948,2.474,10.951,0.458,13.417-4.472
	L162.18,376h16.351c8.903,34.466,40.26,60,77.468,60s68.565-25.534,77.468-60h16.351l17.236,34.472
	c2.471,4.942,8.478,6.941,13.417,4.472c4.94-2.47,6.942-8.477,4.472-13.417l-20-40C363.25,358.14,359.788,356,356,356h-20v-20H376z
	 M246.15,217.223c6.393-1.623,13.299-1.625,19.709,0.002C282.878,221.528,296,237.017,296,256h-80
	C216,237.668,228.397,221.722,246.15,217.223z M196,356v-70c0-5.514,4.486-10,10-10h40v139.151C217.661,410.374,196,385.676,196,356
	z M266,415.151V276h40c5.514,0,10,4.486,10,10v70C316,385.676,294.339,410.374,266,415.151z"/>
<g>
</g>
<g>
</g>
<g>
</g>
<g>
</g>
<g>
</g>
<g>
</g>
<g>
</g>
<g>
</g>
<g>
</g>
<g>
</g>
<g>
</g>
<g>
</g>
<g>
</g>
<g>
</g>
<g>
</g>
</svg>
