<?xml version="1.0" encoding="iso-8859-1"?>
<!-- Generator: Adobe Illustrator 19.0.0, SVG Export Plug-In . SVG Version: 6.00 Build 0)  -->
<svg version="1.1" id="Capa_1" xmlns="http://www.w3.org/2000/svg" xmlns:xlink="http://www.w3.org/1999/xlink" x="0px" y="0px"
	 viewBox="0 0 512 512" style="enable-background:new 0 0 512 512;" xml:space="preserve">
<path style="fill:#FFFFFF;" d="M501.75,106v360c0,11.05-8.95,20-20,20h-452c-11.05,0-20-8.95-20-20V106h491.18H501.75z"/>
<path style="fill:#7BD8E8;" d="M501.75,46v60h-0.82H9.75V46c0-11.05,8.95-20,20-20h452C492.8,26,501.75,34.95,501.75,46z"/>
<path style="fill:#FFDD78;" d="M355.75,286v120c0,11.05-8.95,20-20,20h-160c-11.05,0-20-8.95-20-20V286c0-11.05,8.95-20,20-20
	c24.114,0,143.846,0,160,0C346.8,266,355.75,274.95,355.75,286z"/>
<path style="fill:#4D5578;" d="M255.75,306c11.03,0,20,8.97,20,20s-8.97,20-20,20s-20-8.97-20-20S244.72,306,255.75,306z"/>
<path d="M316,76c5.52,0,10-4.48,10-10s-4.48-10-10-10s-10,4.48-10,10S310.48,76,316,76z"/>
<path d="M156,76c5.52,0,10-4.48,10-10s-4.48-10-10-10s-10,4.48-10,10S150.48,76,156,76z"/>
<path d="M116,76c5.52,0,10-4.48,10-10s-4.48-10-10-10s-10,4.48-10,10S110.48,76,116,76z"/>
<path d="M76,76c5.52,0,10-4.48,10-10s-4.48-10-10-10s-10,4.48-10,10S70.48,76,76,76z"/>
<path d="M482,16H30C13.458,16,0,29.458,0,46v420c0,16.542,13.458,30,30,30h452c16.542,0,30-13.458,30-30V46
	C512,29.458,498.542,16,482,16z M30,36h452c5.514,0,10,4.486,10,10v50H20V46C20,40.486,24.486,36,30,36z M482,476H30
	c-5.514,0-10-4.486-10-10V116h472v350C492,471.514,487.514,476,482,476z"/>
<path d="M336,256h-10v-30c0-38.625-31.248-70-70-70c-38.598,0-70,31.402-70,70v30h-10c-16.542,0-30,13.458-30,30v120
	c0,16.542,13.458,30,30,30h160c16.542,0,30-13.458,30-30V286C366,269.458,352.542,256,336,256z M206,226c0-27.57,22.43-50,50-50
	c27.699,0,50,22.426,50,50v30H206V226z M346,406c0,5.514-4.486,10-10,10H176c-5.514,0-10-4.486-10-10V286c0-5.514,4.486-10,10-10
	c16.143,0,135.839,0,160,0c5.514,0,10,4.486,10,10V406z"/>
<path d="M356,76h86c5.522,0,10-4.477,10-10s-4.478-10-10-10h-86c-5.522,0-10,4.477-10,10S350.478,76,356,76z"/>
<path d="M256,296c-16.542,0-30,13.458-30,30c0,13.036,8.361,24.152,20,28.28V386c0,5.523,4.478,10,10,10s10-4.477,10-10v-31.72
	c11.639-4.128,20-15.243,20-28.28C286,309.458,272.542,296,256,296z M256,336c-5.514,0-10-4.486-10-10s4.486-10,10-10
	s10,4.486,10,10S261.514,336,256,336z"/>
<g>
</g>
<g>
</g>
<g>
</g>
<g>
</g>
<g>
</g>
<g>
</g>
<g>
</g>
<g>
</g>
<g>
</g>
<g>
</g>
<g>
</g>
<g>
</g>
<g>
</g>
<g>
</g>
<g>
</g>
</svg>
