<?xml version="1.0" encoding="iso-8859-1"?>
<!-- Generator: Adobe Illustrator 19.0.0, SVG Export Plug-In . SVG Version: 6.00 Build 0)  -->
<svg version="1.1" id="Capa_1" xmlns="http://www.w3.org/2000/svg" xmlns:xlink="http://www.w3.org/1999/xlink" x="0px" y="0px"
	 viewBox="0 0 512 512" style="enable-background:new 0 0 512 512;" xml:space="preserve">
<path style="fill:#FFFFFF;" d="M255.75,10c-132.323,0-246,113.198-246,246c0,132.55,113.45,246,246,246
	c132.864,0,246-113.704,246-246C501.75,123.45,388.3,10,255.75,10z M255.75,335.99c-44.152,0.021-80.011-35.83-79.99-79.99
	c0-44.024,35.64-79.99,79.99-79.99c44.16-0.021,80.011,35.83,79.99,79.99C335.74,300.332,299.783,335.99,255.75,335.99z"/>
<path style="fill:#FFDD78;" d="M331.67,281.31l157.45,50.49c-24.9,73.22-84.35,132.67-157.57,157.57l-50.49-157.45
	c11.64-3.87,22.31-10.44,31.24-19.37C321.23,303.61,327.8,292.94,331.67,281.31z"/>
<path style="fill:#4D5578;" d="M335.74,256c0,44.264-35.888,79.99-79.99,79.99c-44.157,0.021-80.011-35.835-79.99-79.99
	c0-43.897,35.517-79.99,79.99-79.99C299.91,175.989,335.761,211.84,335.74,256z M295.75,256c0-22.06-17.94-40-40-40
	c-22.095,0-40,17.899-40,40c0,22.06,17.94,40,40,40C277.845,296,295.75,278.101,295.75,256z"/>
<path style="fill:#FFDD78;" d="M179.95,22.63l50.49,157.45c-11.64,3.87-22.31,10.44-31.24,19.37c-8.93,8.93-15.5,19.6-19.37,31.24
	L22.75,180.08l-0.3-0.1C47.4,106.86,106.8,47.51,179.95,22.63z"/>
<path d="M256,60c5.52,0,10-4.48,10-10s-4.48-10-10-10s-10,4.48-10,10S250.48,60,256,60z"/>
<path d="M256,512c138.277,0,256-118.214,256-256C512,118.098,394.307,0,256,0C117.646,0,0,118.23,0,256
	C0,393.98,117.801,512,256,512z M338.139,476.394l-44.454-138.631c19.274-8.875,35.183-24.779,44.075-44.078l138.633,44.455
	C451.88,401.202,401.202,451.88,338.139,476.394z M233.846,189.569c7.103-2.362,14.557-3.56,22.159-3.56c0.011,0,0.021,0,0.032,0
	c38.599,0,69.971,31.348,69.953,69.99c0,39.003-31.634,69.99-69.995,69.99c-0.011,0-0.021,0-0.032,0
	c-38.608,0-69.971-31.367-69.953-69.99C186.01,224.824,206.349,198.711,233.846,189.569z M492,256
	c0,21.339-3.072,42.556-9.134,63.211l-138.824-44.516c1.288-6.113,1.949-12.366,1.949-18.691
	c0.022-49.659-40.262-89.995-89.948-89.995c-0.013,0-0.028,0-0.042,0c-6.329,0-12.583,0.661-18.695,1.949L192.788,29.134
	C213.442,23.072,234.661,20,256,20C383.925,20,492,128.075,492,256z M173.861,35.606l44.454,138.631
	c-18.733,8.626-34.95,24.262-44.072,44.066L35.68,173.66C60.228,110.697,110.879,60.093,173.861,35.606z M29.192,192.581
	l138.77,44.71c-1.29,6.117-1.952,12.375-1.952,18.704c-0.022,49.66,40.27,89.995,89.948,89.995c0.013,0,0.028,0,0.042,0
	c6.329,0,12.583-0.661,18.695-1.949l44.517,138.824C298.558,488.928,277.339,492,256,492C128.075,492,20,383.925,20,256
	C20,234.596,23.092,213.308,29.192,192.581z"/>
<path d="M256,306c27.623,0,50-22.374,50-50c0-27.57-22.43-50-50-50c-27.623,0-50,22.374-50,50C206,283.57,228.43,306,256,306z
	 M256,226c16.542,0,30,13.458,30,30c0,16.569-13.429,30-30,30c-16.542,0-30-13.458-30-30C226,239.431,239.429,226,256,226z"/>
<path d="M293.829,63.762c42.353,8.556,80.933,31.711,108.636,65.202c3.532,4.27,9.835,4.841,14.079,1.332
	c4.256-3.52,4.852-9.824,1.331-14.08c-30.612-37.008-73.259-62.599-120.085-72.058c-5.415-1.096-10.688,2.407-11.782,7.822
	C284.914,57.394,288.416,62.668,293.829,63.762z"/>
<g>
</g>
<g>
</g>
<g>
</g>
<g>
</g>
<g>
</g>
<g>
</g>
<g>
</g>
<g>
</g>
<g>
</g>
<g>
</g>
<g>
</g>
<g>
</g>
<g>
</g>
<g>
</g>
<g>
</g>
</svg>
