<?xml version="1.0" encoding="iso-8859-1"?>
<!-- Generator: Adobe Illustrator 19.0.0, SVG Export Plug-In . SVG Version: 6.00 Build 0)  -->
<svg version="1.1" id="Capa_1" xmlns="http://www.w3.org/2000/svg" xmlns:xlink="http://www.w3.org/1999/xlink" x="0px" y="0px"
	 viewBox="0 0 512.003 512.003" style="enable-background:new 0 0 512.003 512.003;" xml:space="preserve">
<path style="fill:#FF5249;" d="M484.167,399.562c23.429,23.439,23.429,61.416,0,84.855c-23.451,23.431-61.415,23.42-84.855,0
	L291.109,376.203c-7.82-7.81-7.82-20.479,0-28.288c16.579-16.579,38.912-38.912,56.557-56.557c7.81-7.82,20.479-7.82,28.288,0
	L484.167,399.562z"/>
<path style="fill:#D1F1FF;" d="M494.847,73.471l-64.826,64.826c-26.698-8.909-47.657-29.858-56.557-56.567l64.816-64.826
	c-36.048-14.129-78.375-6.47-107.244,22.399c-28.998,28.998-36.458,71.366-22.399,107.254l-67.026,67.016v0.01l-83.365-83.365
	l-9.899-52.327L38.043,10.015L9.765,38.293l67.876,110.304l52.327,9.899l83.355,83.365L21.484,433.71
	c-15.629,15.619-15.629,40.938,0,56.557c15.619,15.629,40.938,15.629,56.557,0L269.89,298.428l35.358,35.348l28.278-28.278
	l-35.348-35.348v-0.01l67.026-67.026c35.878,14.069,78.245,6.6,107.244-22.399C501.446,151.726,508.906,109.359,494.847,73.471z"/>
<path d="M113.65,398.352c-3.91-3.9-10.239-3.9-14.139,0c-3.91,3.91-3.91,10.239,0,14.139c3.9,3.91,10.229,3.91,14.139,0
	C117.55,408.591,117.55,402.262,113.65,398.352z"/>
<path d="M497.143,63.683c-3.304-0.69-6.731,0.332-9.116,2.717l-60.268,60.268c-19.054-8.045-34.384-23.378-42.418-42.424
	l60.262-60.27c2.386-2.385,3.407-5.813,2.718-9.114c-0.69-3.302-2.999-6.034-6.14-7.266C401.451-8.37,355.147,1.3,324.216,32.231
	c-29.355,29.356-39.561,72.571-26.871,111.726l-55.487,55.479l-74.11-74.109l-9.325-49.296c-0.523-2.766-2.188-5.183-4.585-6.658
	L43.535,1.498C39.591-0.928,34.5-0.331,31.223,2.943L2.944,31.222c-3.274,3.274-3.872,8.368-1.445,12.311l67.876,110.304
	c1.475,2.397,3.892,4.062,6.657,4.585l49.296,9.326l74.105,74.113L14.667,426.637c-19.544,19.53-19.559,51.156-0.005,70.698
	c19.535,19.548,51.16,19.556,70.701,0.002l184.781-184.771l21.213,21.211l-7.063,7.064c-11.732,11.716-11.745,30.708-0.005,42.435
	l108.207,108.218c27.365,27.341,71.613,27.353,98.994-0.004c27.282-27.292,27.282-71.702-0.002-98.995L383.28,284.292
	c-12.13-12.144-31.076-11.376-42.435-0.004l-7.068,7.068l-21.212-21.212l55.486-55.486c39.144,12.697,82.351,2.492,111.717-26.872
	c30.928-30.917,40.601-77.22,24.641-117.963C503.177,66.682,500.445,64.373,497.143,63.683z M71.219,483.198
	c-11.719,11.726-30.682,11.736-42.417-0.004c-11.726-11.719-11.733-30.684,0.003-42.414l184.769-184.778l42.426,42.423
	L71.219,483.198z M369.134,298.429l108.212,108.202c19.489,19.497,19.489,51.22,0.004,70.712
	c-19.549,19.533-51.158,19.544-70.716,0.003L298.425,369.128c-3.9-3.895-3.925-10.217,0.005-14.143
	c3.47-3.47,53.629-53.629,56.56-56.561C358.878,294.533,365.2,294.492,369.134,298.429z M305.498,319.635
	C125.046,139.183,137.902,152.038,137.29,151.425c-1.421-1.421-3.237-2.381-5.212-2.755l-47.985-9.078L22.671,39.779L39.78,22.67
	l99.813,61.42l9.078,47.985c0.373,1.975,1.333,3.791,2.754,5.212l168.209,168.209L305.498,319.635z M465.627,173.643
	c-25.313,25.315-63.199,33.227-96.522,20.161c-3.701-1.453-7.911-0.573-10.721,2.238l-59.96,59.96l-42.424-42.424l59.958-59.95
	c2.811-2.811,3.69-7.019,2.241-10.718c-13.06-33.337-5.147-71.23,20.159-96.536c21.495-21.497,52.062-30.443,81.211-24.647
	L366.642,74.66c-2.678,2.678-3.613,6.639-2.416,10.23c9.838,29.524,33.345,53.035,62.878,62.891
	c3.595,1.199,7.557,0.265,10.236-2.415l52.932-52.932C496.07,121.587,487.122,152.156,465.627,173.643z"/>
<path d="M71.22,426.639l-28.278,28.278c-3.905,3.905-3.905,10.236,0,14.141c3.905,3.905,10.234,3.906,14.142,0l28.278-28.278
	c3.905-3.905,3.905-10.236,0-14.141C81.459,422.735,75.129,422.735,71.22,426.639z"/>
<path d="M441.989,427.851c3.904,3.905,10.236,3.906,14.141,0c3.906-3.905,3.906-10.235,0.001-14.141l-79.926-79.935
	c-3.903-3.904-10.235-3.906-14.141,0c-3.906,3.905-3.906,10.235-0.001,14.141L441.989,427.851z"/>
<path d="M333.775,362.063c-3.905,3.906-3.905,10.236,0.001,14.142l79.935,79.925c3.905,3.905,10.236,3.904,14.141-0.001
	c3.905-3.906,3.905-10.236-0.001-14.142l-79.935-79.925C344.012,358.158,337.679,358.158,333.775,362.063z"/>
<g>
</g>
<g>
</g>
<g>
</g>
<g>
</g>
<g>
</g>
<g>
</g>
<g>
</g>
<g>
</g>
<g>
</g>
<g>
</g>
<g>
</g>
<g>
</g>
<g>
</g>
<g>
</g>
<g>
</g>
</svg>
