<?xml version="1.0" encoding="iso-8859-1"?>
<!-- Generator: Adobe Illustrator 19.0.0, SVG Export Plug-In . SVG Version: 6.00 Build 0)  -->
<svg version="1.1" id="Capa_1" xmlns="http://www.w3.org/2000/svg" xmlns:xlink="http://www.w3.org/1999/xlink" x="0px" y="0px"
	 viewBox="0 0 512 512" style="enable-background:new 0 0 512 512;" xml:space="preserve">
<rect x="65.75" y="40" style="fill:#FFFFFF;" width="380" height="432"/>
<g>
	<circle style="fill:#FF5249;" cx="445.75" cy="40" r="30"/>
	<circle style="fill:#FF5249;" cx="445.75" cy="472" r="30"/>
	<rect x="135.75" y="116" style="fill:#FF5249;" width="240" height="100"/>
	<circle style="fill:#FF5249;" cx="65.75" cy="40" r="30"/>
	<circle style="fill:#FF5249;" cx="65.75" cy="472" r="30"/>
</g>
<path d="M256,266c-5.52,0-10,4.48-10,10s4.48,10,10,10c5.52,0,10-4.48,10-10S261.52,266,256,266z"/>
<path d="M256,326c-5.52,0-10,4.48-10,10s4.48,10,10,10c5.52,0,10-4.48,10-10S261.52,326,256,326z"/>
<path d="M256,386c-5.52,0-10,4.48-10,10s4.48,10,10,10c5.52,0,10-4.48,10-10S261.52,386,256,386z"/>
<path d="M216,266h-80c-5.522,0-10,4.477-10,10s4.478,10,10,10h80c5.522,0,10-4.477,10-10S221.522,266,216,266z"/>
<path d="M376,266h-80c-5.522,0-10,4.477-10,10s4.478,10,10,10h80c5.522,0,10-4.477,10-10S381.522,266,376,266z"/>
<path d="M216,326h-80c-5.522,0-10,4.477-10,10s4.478,10,10,10h80c5.522,0,10-4.477,10-10S221.522,326,216,326z"/>
<path d="M376,326h-80c-5.522,0-10,4.477-10,10s4.478,10,10,10h80c5.522,0,10-4.477,10-10S381.522,326,376,326z"/>
<path d="M216,386h-80c-5.522,0-10,4.477-10,10s4.478,10,10,10h80c5.522,0,10-4.477,10-10S221.522,386,216,386z"/>
<path d="M376,386h-80c-5.522,0-10,4.477-10,10s4.478,10,10,10h80c5.522,0,10-4.477,10-10S381.522,386,376,386z"/>
<path d="M486,40c0-22.056-17.944-40-40-40c-18.604,0-34.282,12.767-38.734,30H104.734C100.282,12.767,84.604,0,66,0
	C43.944,0,26,17.944,26,40c0,18.604,12.767,34.282,30,38.734v354.532c-17.233,4.452-30,20.13-30,38.734c0,22.056,17.944,40,40,40
	c18.604,0,34.282-12.767,38.734-30h302.531c4.452,17.233,20.13,30,38.734,30c22.056,0,40-17.944,40-40
	c0-18.604-12.768-34.282-30-38.734V78.734C473.232,74.282,486,58.604,486,40z M446,20c11.028,0,20,8.972,20,20s-8.972,20-20,20
	s-20-8.972-20-20S434.972,20,446,20z M407.266,462H104.734c-3.626-14.036-14.699-25.108-28.734-28.734V78.734
	C90.035,75.108,101.108,64.036,104.734,50h302.531c3.626,14.036,14.699,25.108,28.734,28.734v354.532
	C421.965,436.892,410.892,447.964,407.266,462z M46,40c0-11.028,8.972-20,20-20s20,8.972,20,20s-8.972,20-20,20S46,51.028,46,40z
	 M66,492c-11.028,0-20-8.972-20-20s8.972-20,20-20s20,8.972,20,20S77.028,492,66,492z M466,472c0,11.028-8.972,20-20,20
	s-20-8.972-20-20s8.972-20,20-20S466,460.972,466,472z"/>
<path d="M376.004,106c-0.001,0-0.002,0-0.004,0H136.01c-5.554-0.003-10.01,4.532-10.01,9.996c0,0.001,0,0.002,0,0.004l0,0
	c0,0.03,0,0.059,0,0.088v99.823c0,0.029,0,0.059,0,0.088l0,0c0,0.001,0,0.002,0,0.004c0,5.498,4.461,9.839,9.906,9.892
	c0.033,0,0.065,0.007,0.098,0.007c0.017,0,0.034-0.002,0.05-0.002h239.892c0.017,0,0.034,0.002,0.05,0.002
	c0.033,0,0.065-0.007,0.098-0.007c5.567-0.054,9.958-4.546,9.906-9.985v-99.82C386.052,110.612,381.611,106.004,376.004,106z
	 M146,131l84,35l-84,35V131z M186,126h140l-70,29.167L186,126z M256,176.833L326,206H186L256,176.833z M282,166l84-35v70L282,166z"
	/>
<g>
</g>
<g>
</g>
<g>
</g>
<g>
</g>
<g>
</g>
<g>
</g>
<g>
</g>
<g>
</g>
<g>
</g>
<g>
</g>
<g>
</g>
<g>
</g>
<g>
</g>
<g>
</g>
<g>
</g>
</svg>
