<?xml version="1.0" encoding="iso-8859-1"?>
<!-- Generator: Adobe Illustrator 19.0.0, SVG Export Plug-In . SVG Version: 6.00 Build 0)  -->
<svg version="1.1" id="Capa_1" xmlns="http://www.w3.org/2000/svg" xmlns:xlink="http://www.w3.org/1999/xlink" x="0px" y="0px"
	 viewBox="0 0 512.001 512.001" style="enable-background:new 0 0 512.001 512.001;" xml:space="preserve">
<path style="fill:#4D5578;" d="M490.044,433.803c15.611,15.601,15.611,40.889,0,56.49c-15.601,15.611-40.889,15.611-56.49,0
	l-97.888-97.878c-7.8-7.8-7.8-20.445,0-28.255c9.879-9.879,18.366-18.366,28.245-28.245c7.81-7.8,20.455-7.8,28.255,0
	L490.044,433.803z"/>
<path style="fill:#FFFFFF;" d="M317.158,62.654c70.343,70.353,70.343,184.401,0,254.744c-70.353,70.353-184.401,70.353-254.754,0
	c-70.343-70.343-70.343-184.391,0-254.744C132.757-7.689,246.806-7.689,317.158,62.654z"/>
<path style="fill:#7BD8E8;" d="M190.136,70.534c-66.188,0-119.851,53.663-119.851,119.851s53.663,119.851,119.851,119.851
	s119.851-53.663,119.851-119.851S256.324,70.534,190.136,70.534z"/>
<path d="M380.15,390.137c5.513,0,9.988-4.474,9.988-9.988c0-5.513-4.474-9.988-9.988-9.988s-9.988,4.474-9.988,9.988
	C370.162,385.663,374.637,390.137,380.15,390.137z"/>
<path d="M449.991,464.116c3.899,3.899,10.223,3.903,14.125,0.001c3.9-3.9,3.901-10.223,0.002-14.124l-48.66-48.67
	c-3.9-3.9-10.224-3.901-14.125-0.001c-3.901,3.9-3.901,10.223-0.002,14.124L449.991,464.116z"/>
<path d="M317.222,331.338l18.692,18.698l-7.066,7.066c-11.673,11.689-11.672,30.698,0.006,42.374l97.885,97.876
	c19.511,19.524,51.095,19.533,70.614,0.004c0.002-0.001,0.005-0.003,0.005-0.004c19.523-19.516,19.525-51.099-0.002-70.611
	l-97.878-97.889c-11.676-11.676-30.685-11.678-42.38,0l-7.059,7.059l-18.692-18.698c67.169-74.538,64.877-189.858-6.876-261.622
	c0,0,0,0-0.001-0.001C250.34-18.528,129.723-18.528,55.592,55.592c-74.123,74.133-74.123,194.746,0,268.868
	C128.089,396.957,243.197,398.123,317.222,331.338z M385.353,342.977l97.881,97.891c11.714,11.707,11.716,30.651,0,42.36
	c-0.002,0.001-0.004,0.003-0.005,0.004c-11.706,11.713-30.648,11.72-42.364-0.002l-97.887-97.878
	c-3.893-3.892-3.891-10.233,0-14.129c10.143-10.143,18.073-18.074,28.24-28.241C375.105,339.099,381.444,339.069,385.353,342.977z
	 M69.717,69.717c66.339-66.331,174.285-66.336,240.628-0.001c66.335,66.344,66.336,174.285,0,240.619
	c-66.498,66.499-174.121,66.507-240.628,0C3.382,244.002,3.383,136.06,69.717,69.717z"/>
<path d="M190.386,320.224c71.594,0,129.839-58.246,129.839-129.839S261.98,60.546,190.386,60.546S60.547,118.792,60.547,190.385
	S118.792,320.224,190.386,320.224z M80.982,200.373h39.707c1.178,29.796,7.592,57.626,18.39,79.225
	c1.963,3.925,4.043,7.582,6.224,10.969C110.029,274.63,84.623,240.595,80.982,200.373z M200.373,297.763v-97.49H240.1
	c-1.137,26.69-6.807,51.457-16.272,70.392C217.065,284.191,208.859,293.566,200.373,297.763z M200.373,180.398V83.008
	c8.485,4.197,16.691,13.572,23.454,27.097c9.466,18.934,15.135,43.603,16.272,70.292H200.373z M180.398,83.008v97.39h-39.727
	c1.137-26.69,6.807-51.357,16.272-70.292C163.707,96.581,171.913,87.205,180.398,83.008z M180.398,200.373v97.389
	c-8.485-4.197-16.691-13.572-23.454-27.097c-9.466-18.934-15.135-43.603-16.272-70.292H180.398z M235.47,290.567
	c2.181-3.388,4.262-7.043,6.224-10.969c10.799-21.598,17.212-49.529,18.39-79.324h39.707
	C296.148,240.495,270.743,274.63,235.47,290.567z M299.791,180.398h-39.707c-1.178-29.796-7.592-57.626-18.39-79.225
	c-1.963-3.925-4.043-7.582-6.224-10.969C270.743,106.14,296.148,140.176,299.791,180.398z M145.302,90.204
	c-2.181,3.388-4.262,7.043-6.224,10.969c-10.799,21.598-17.212,49.43-18.39,79.225H80.982
	C84.623,140.176,110.029,106.14,145.302,90.204z"/>
<g>
</g>
<g>
</g>
<g>
</g>
<g>
</g>
<g>
</g>
<g>
</g>
<g>
</g>
<g>
</g>
<g>
</g>
<g>
</g>
<g>
</g>
<g>
</g>
<g>
</g>
<g>
</g>
<g>
</g>
</svg>
