<?xml version="1.0" encoding="iso-8859-1"?>
<!-- Generator: Adobe Illustrator 19.0.0, SVG Export Plug-In . SVG Version: 6.00 Build 0)  -->
<svg version="1.1" id="Capa_1" xmlns="http://www.w3.org/2000/svg" xmlns:xlink="http://www.w3.org/1999/xlink" x="0px" y="0px"
	 viewBox="0 0 512 512" style="enable-background:new 0 0 512 512;" xml:space="preserve">
<path style="fill:#FFDD78;" d="M465.75,30v452c0,11.05-8.95,20-20,20h-100c-11.05,0-20-8.95-20-20V30c0-11.05,8.95-20,20-20h100
	C456.8,10,465.75,18.95,465.75,30z"/>
<path style="fill:#FFFFFF;" d="M365.75,70c0,36.04,0,144.089,0,180h60c0-36.04,0-144.089,0-180H365.75z"/>
<circle style="fill:#4D5578;" cx="395.75" cy="412" r="30"/>
<path style="fill:#4AB5A7;" d="M325.75,30v452c0,11.05-8.95,20-20,20h-100c-11.05,0-20-8.95-20-20V30c0-11.05,8.95-20,20-20h100
	C316.8,10,325.75,18.95,325.75,30z"/>
<path style="fill:#FFFFFF;" d="M225.75,70c0,41.294,0,143.776,0,180h60c0-41.294,0-143.776,0-180H225.75z"/>
<circle style="fill:#4D5578;" cx="255.75" cy="412" r="30"/>
<path style="fill:#7BD8E8;" d="M165.75,10h-100c-11.05,0-20,8.95-20,20v452c0,11.05,8.95,20,20,20h100c11.05,0,20-8.95,20-20V30
	C185.75,18.95,176.8,10,165.75,10z"/>
<path style="fill:#FFFFFF;" d="M85.75,70c0,41.294,0,143.776,0,180h60c0-41.294,0-143.776,0-180H85.75z"/>
<circle style="fill:#4D5578;" cx="115.75" cy="412" r="30"/>
<path d="M116,372c-22.056,0-40,17.944-40,40s17.944,40,40,40s40-17.944,40-40S138.056,372,116,372z M116,432
	c-11.028,0-20-8.972-20-20s8.972-20,20-20s20,8.972,20,20S127.028,432,116,432z"/>
<path d="M146,60H86c-5.523,0-10,4.477-10,10v180c0,5.523,4.477,10,10,10h60c5.523,0,10-4.477,10-10V70C156,64.477,151.523,60,146,60
	z M96,140h40v40H96V140z M136,80v40H96V80H136z M96,240v-40h40v40H96z"/>
<path d="M256,372c-22.056,0-40,17.944-40,40s17.944,40,40,40s40-17.944,40-40S278.056,372,256,372z M256,432
	c-11.028,0-20-8.972-20-20s8.972-20,20-20c11.028,0,20,8.972,20,20S267.028,432,256,432z"/>
<path d="M286,60h-60c-5.523,0-10,4.477-10,10v180c0,5.523,4.477,10,10,10h60c5.523,0,10-4.477,10-10V70
	C296,64.477,291.523,60,286,60z M236,140h40v40h-40V140z M276,80v40h-40V80H276z M236,240v-40h40v40H236z"/>
<path d="M476,482V30c0-16.542-13.458-30-30-30H346c-7.678,0-14.688,2.902-20,7.663C320.688,2.902,313.678,0,306,0H206
	c-7.678,0-14.688,2.902-20,7.663C180.688,2.902,173.678,0,166,0H66C49.458,0,36,13.458,36,30v452c0,16.542,13.458,30,30,30h100
	c7.678,0,14.688-2.902,20-7.663c5.312,4.761,12.322,7.663,20,7.663h100c7.678,0,14.688-2.902,20-7.663
	c5.312,4.761,12.322,7.663,20,7.663h100C462.542,512,476,498.542,476,482z M166,492H66c-5.514,0-10-4.486-10-10V30
	c0-5.514,4.486-10,10-10h100c5.514,0,10,4.486,10,10v452C176,487.514,171.514,492,166,492z M306,492H206c-5.514,0-10-4.486-10-10V30
	c0-5.514,4.486-10,10-10h100c5.514,0,10,4.486,10,10v452C316,487.514,311.514,492,306,492z M456,482c0,5.514-4.486,10-10,10H346
	c-5.514,0-10-4.486-10-10V30c0-5.514,4.486-10,10-10h100c5.514,0,10,4.486,10,10V482z"/>
<path d="M396,372c-22.056,0-40,17.944-40,40s17.944,40,40,40s40-17.944,40-40S418.056,372,396,372z M396,432
	c-11.028,0-20-8.972-20-20s8.972-20,20-20s20,8.972,20,20S407.028,432,396,432z"/>
<path d="M426,60h-60c-5.523,0-10,4.477-10,10v180c0,5.523,4.477,10,10,10h60c5.523,0,10-4.477,10-10V70
	C436,64.477,431.523,60,426,60z M376,140h40v40h-40V140z M416,80v40h-40V80H416z M376,240v-40h40v40H376z"/>
<g>
</g>
<g>
</g>
<g>
</g>
<g>
</g>
<g>
</g>
<g>
</g>
<g>
</g>
<g>
</g>
<g>
</g>
<g>
</g>
<g>
</g>
<g>
</g>
<g>
</g>
<g>
</g>
<g>
</g>
</svg>
