<?xml version="1.0" encoding="iso-8859-1"?>
<!-- Generator: Adobe Illustrator 19.0.0, SVG Export Plug-In . SVG Version: 6.00 Build 0)  -->
<svg version="1.1" id="Capa_1" xmlns="http://www.w3.org/2000/svg" xmlns:xlink="http://www.w3.org/1999/xlink" x="0px" y="0px"
	 viewBox="0 0 512 512" style="enable-background:new 0 0 512 512;" xml:space="preserve">
<circle style="fill:#FFDD78;" cx="401.75" cy="110" r="100"/>
<path style="fill:#7BD8E8;" d="M109.75,216c44.18,0,80,35.82,80,80v126c0,44.18-35.82,80-80,80h-20c-44.18,0-80-35.82-80-80V296
	c0-44.18,35.82-80,80-80C96.745,216,102.755,216,109.75,216z"/>
<path style="fill:#4D5578;" d="M119.75,286v30c0,11.05-8.95,20-20,20s-20-8.95-20-20v-30c0-11.05,8.95-20,20-20
	C110.79,266,119.75,274.96,119.75,286z"/>
<path d="M150,392c5.52,0,10-4.48,10-10s-4.48-10-10-10s-10,4.48-10,10S144.48,392,150,392z"/>
<path d="M100,462c0,5.523,4.478,10,10,10c27.57,0,50-22.43,50-50c0-5.523-4.478-10-10-10s-10,4.477-10,10c0,16.542-13.458,30-30,30
	C104.478,452,100,456.477,100,462z"/>
<path d="M402,100c-5.514,0-10-4.486-10-10s4.486-10,10-10c3.542,0,7.282,1.807,10.815,5.227c3.971,3.841,10.3,3.736,14.141-0.232
	c3.84-3.969,3.736-10.3-0.232-14.141c-5.075-4.911-10.153-7.689-14.724-9.205V50c0-5.523-4.478-10-10-10s-10,4.477-10,10v11.72
	c-11.639,4.128-20,15.243-20,28.28c0,16.542,13.458,30,30,30c5.514,0,10,4.486,10,10c0,5.514-4.486,10-10,10
	c-4.272,0-8.884-2.687-12.985-7.565c-3.554-4.228-9.862-4.773-14.089-1.219c-4.228,3.554-4.773,9.862-1.22,14.089
	c5.346,6.359,11.632,10.79,18.294,13.024V170c0,5.523,4.478,10,10,10s10-4.477,10-10v-11.72c11.639-4.128,20-15.243,20-28.28
	C432,113.458,418.542,100,402,100z"/>
<path d="M402,0c-60.654,0-110,49.346-110,110c0,57.283,44.015,104.471,100,109.541V326c0,32.523-28.851,60-63,60s-63-27.477-63-60
	V211c0-46.075-40.299-85-88-85c-45.965,0-85.05,36.144-87.835,80H90c-49.626,0-90,40.374-90,90v126c0,49.626,40.374,90,90,90h20
	c49.626,0,90-40.374,90-90V296c0-49.549-40.249-89.871-89.768-89.997C113.006,172.999,142.899,146,178,146c36.859,0,68,29.767,68,65
	v115c0,43.364,38.01,80,83,80s83-36.636,83-80V219.541c55.985-5.07,100-52.258,100-109.541C512,49.346,462.654,0,402,0z M100,326
	c-5.514,0-10-4.486-10-10v-30c0-5.514,4.486-10,10-10c5.521,0,10,4.479,10,10v30C110,321.514,105.514,326,100,326z M180,296v126
	c0,38.598-31.402,70-70,70H90c-38.598,0-70-31.402-70-70V296c0-38.598,31.402-70,70-70v31.72c-11.639,4.128-20,15.243-20,28.28v30
	c0,13.036,8.361,24.152,20,28.28V372c0,5.523,4.478,10,10,10s10-4.477,10-10v-27.72c11.639-4.128,20-15.243,20-28.28v-30
	c0-13.324-8.604-24.276-20-28.296V226C148.598,226,180,257.402,180,296z M402,200c-49.626,0-90-40.374-90-90s40.374-90,90-90
	s90,40.374,90,90S451.626,200,402,200z"/>
<g>
</g>
<g>
</g>
<g>
</g>
<g>
</g>
<g>
</g>
<g>
</g>
<g>
</g>
<g>
</g>
<g>
</g>
<g>
</g>
<g>
</g>
<g>
</g>
<g>
</g>
<g>
</g>
<g>
</g>
</svg>
