<?xml version="1.0" encoding="iso-8859-1"?>
<!-- Generator: Adobe Illustrator 19.0.0, SVG Export Plug-In . SVG Version: 6.00 Build 0)  -->
<svg version="1.1" id="Capa_1" xmlns="http://www.w3.org/2000/svg" xmlns:xlink="http://www.w3.org/1999/xlink" x="0px" y="0px"
	 viewBox="0 0 512 512" style="enable-background:new 0 0 512 512;" xml:space="preserve">
<path style="fill:#7BD8E8;" d="M455.75,68.35v174.4c0,118.61-86.9,223.53-200,259.25c-113.1-35.72-200-140.64-200-259.25V68.35
	c9.85,1.09,19.86,1.65,30,1.65c59.89,0,125.22-27.01,170-60c44.78,32.99,110.11,60,170,60C435.89,70,445.9,69.44,455.75,68.35z"/>
<path style="fill:#FFFFFF;" d="M415.75,109.79v132.96c0,92.71-66.57,182.05-160,216.95c-93.43-34.9-160-124.24-160-216.95V109.79
	c59.47-2.41,117.65-25.87,160-51.7C298.1,83.92,356.28,107.38,415.75,109.79z"/>
<path style="fill:#4AB5A7;" d="M355.75,262c0-52.591-42.147-99.88-100-99.997c-53.427-0.108-100,43.279-100,99.997
	c0,55.23,44.77,106,100,106c0.019,0,0.038,0,0.057,0C310.904,367.965,355.75,317.327,355.75,262z"/>
<path d="M246,162c0,0.17,0,0.33,0.01,0.49c-0.21,0.02-0.43,0.04-0.64,0.06l0.25-0.01l0.39-0.02c0.28,5.28,4.65,9.48,9.99,9.48
	c5.35,0,9.72-4.21,9.99-9.5c0.01-0.16,0.01-0.33,0.01-0.5c0-5.52-4.48-10-10-10S246,156.48,246,162z"/>
<path d="M466,68.35c0-2.844-1.211-5.553-3.329-7.45s-4.948-2.801-7.771-2.49C445.37,59.466,435.647,60,426,60
	c-62.87,0-125.976-29.987-164.068-58.051c-3.527-2.599-8.336-2.599-11.863,0C211.976,30.013,148.87,60,86,60
	c-9.646,0-19.37-0.535-28.9-1.589c-2.821-0.313-5.651,0.592-7.771,2.49C47.211,62.798,46,65.507,46,68.35v174.4
	c0,124.584,91.392,232.277,206.988,268.786c0.98,0.31,1.996,0.464,3.012,0.464s2.031-0.155,3.012-0.464
	C374.506,475.06,466,367.44,466,242.75V68.35z M446,242.75c0,110.153-77.968,212.003-190,248.745
	C143.968,454.754,66,352.903,66,242.75V79.294C72.651,79.763,79.343,80,86,80c64.521,0,128.904-29.052,170-57.7
	C297.096,50.948,361.479,80,426,80c6.657,0,13.35-0.237,20-0.706V242.75z"/>
<path d="M416.405,99.799c-49.57-2.009-106.138-20.323-155.198-50.246c-3.197-1.95-7.217-1.95-10.414,0
	c-49.06,29.923-105.628,48.236-155.198,50.246c-5.36,0.217-9.595,4.626-9.595,9.992v132.96c0,96.633,68.468,189.698,166.501,226.318
	c1.128,0.421,2.313,0.632,3.499,0.632c1.186,0,2.371-0.211,3.499-0.632C357.532,432.448,426,339.383,426,242.75V109.79
	C426,104.425,421.766,100.016,416.405,99.799z M406,242.75c0,87.316-61.493,171.61-150,206.244
	C167.493,414.36,106,330.066,106,242.75V119.224c64.374-4.872,119.512-31.558,150-49.479c30.488,17.921,85.626,44.607,150,49.479
	V242.75z"/>
<path d="M291.261,179.172C324.514,193.423,346,225.935,346,262c0,51.14-42.056,96-90,96c-47.061,0-90.737-44.02-89.982-97.881
	c1.099-36.475,21.551-66.731,54.722-80.948c5.076-2.176,7.428-8.054,5.252-13.131c-2.176-5.076-8.055-7.429-13.131-5.252
	c-39.937,17.116-65.547,54.981-66.837,98.817c-0.001,0.051-0.002,0.104-0.003,0.156C145.134,321.412,194.135,378,256,378
	c61.582,0,110-56.107,110-116c0-44.076-26.244-83.804-66.86-101.211c-5.077-2.176-10.955,0.176-13.131,5.252
	C283.833,171.117,286.185,176.996,291.261,179.172z"/>
<path d="M188.929,254.929c-3.905,3.905-3.905,10.237,0,14.143l40,40c1.953,1.953,4.512,2.929,7.071,2.929s5.118-0.976,7.071-2.929
	l70-70c3.905-3.905,3.905-10.237,0-14.143c-3.906-3.905-10.236-3.905-14.143,0L236,287.858l-32.929-32.929
	C199.165,251.024,192.835,251.024,188.929,254.929z"/>
<g>
</g>
<g>
</g>
<g>
</g>
<g>
</g>
<g>
</g>
<g>
</g>
<g>
</g>
<g>
</g>
<g>
</g>
<g>
</g>
<g>
</g>
<g>
</g>
<g>
</g>
<g>
</g>
<g>
</g>
</svg>
