<?xml version="1.0" encoding="iso-8859-1"?>
<!-- Generator: Adobe Illustrator 19.0.0, SVG Export Plug-In . SVG Version: 6.00 Build 0)  -->
<svg version="1.1" id="Capa_1" xmlns="http://www.w3.org/2000/svg" xmlns:xlink="http://www.w3.org/1999/xlink" x="0px" y="0px"
	 viewBox="0 0 512 512" style="enable-background:new 0 0 512 512;" xml:space="preserve">
<path style="fill:#7BD8E8;" d="M9.75,146v140c0,11.05,8.95,20,20,20h46l360-100v-60H9.75z"/>
<path style="fill:#4AB5A7;" d="M501.75,226v240c0,11.05-8.95,20-20,20h-386c-11.05,0-20-8.95-20-20V306v-80c0-11.05,8.95-20,20-20
	h340h46C492.8,206,501.75,214.95,501.75,226z"/>
<rect x="9.75" y="86" style="fill:#4D5578;" width="426" height="60"/>
<path style="fill:#7BD8E8;" d="M435.75,46v40h-426V46c0-11.05,8.95-20,20-20h386C426.8,26,435.75,34.95,435.75,46z"/>
<path style="fill:#FF5249;" d="M405.75,266c-7.68,0-14.69,2.89-20,7.64l-0.01,0.01v44.7l0.01,0.01c5.31,4.75,12.32,7.64,20,7.64
	c16.57,0,30-13.43,30-30S422.32,266,405.75,266z"/>
<path style="fill:#FFDD78;" d="M395.75,296c0,16.785-13.689,30-30,30c-16.57,0-30-13.43-30-30s13.43-30,30-30
	C382.079,266,395.75,279.233,395.75,296z"/>
<rect x="135.75" y="266" style="fill:#4D5578;" width="100" height="60"/>
<path d="M136,376c-5.52,0-10,4.48-10,10s4.48,10,10,10s10-4.48,10-10S141.52,376,136,376z"/>
<path d="M136,416c-5.52,0-10,4.48-10,10s4.48,10,10,10s10-4.48,10-10S141.52,416,136,416z"/>
<path d="M446,46c0-16.542-13.458-30-30-30H30C13.458,16,0,29.458,0,46v240c0,16.542,13.458,30,30,30h36v150
	c0,16.542,13.458,30,30,30h386c16.542,0,30-13.458,30-30V226c0-16.542-13.458-30-30-30h-36V46z M20,96h406v40H20V96z M30,36h386
	c5.514,0,10,4.486,10,10v30H20V46C20,40.486,24.486,36,30,36z M492,226v240c0,5.514-4.486,10-10,10H96c-5.514,0-10-4.486-10-10V226
	c0-5.514,4.486-10,10-10h386C487.514,216,492,220.486,492,226z M96,196c-16.542,0-30,13.458-30,30v70H30c-5.514,0-10-4.486-10-10
	V156h406v40H96z"/>
<path d="M136,336h100c5.522,0,10-4.477,10-10v-60c0-5.523-4.478-10-10-10H136c-5.522,0-10,4.477-10,10v60
	C126,331.523,130.478,336,136,336z M146,276h80v40h-80V276z"/>
<path d="M436,376H176c-5.522,0-10,4.477-10,10s4.478,10,10,10h260c5.522,0,10-4.477,10-10S441.522,376,436,376z"/>
<path d="M406,256c-7.085,0-13.968,1.88-20.008,5.373C379.956,257.88,373.079,256,366,256c-22.056,0-40,17.944-40,40s17.944,40,40,40
	c7.083,0,13.964-1.882,19.994-5.372C392.034,334.121,398.916,336,406,336c22.056,0,40-17.944,40-40S428.056,256,406,256z M346,296
	c0-11.028,8.972-20,20-20c11.066,0,20,9.032,20,20c0,10.98-8.944,20-20,20C354.972,316,346,307.028,346,296z M406,316
	c-1.707,0-3.387-0.231-5.012-0.652C404.231,309.486,406,302.839,406,296s-1.769-13.486-5.012-19.348
	c1.625-0.42,3.305-0.652,5.012-0.652c11.028,0,20,8.972,20,20S417.028,316,406,316z"/>
<path d="M236,416h-60c-5.522,0-10,4.477-10,10s4.478,10,10,10h60c5.522,0,10-4.477,10-10S241.522,416,236,416z"/>
<path d="M336,416h-60c-5.522,0-10,4.477-10,10s4.478,10,10,10h60c5.522,0,10-4.477,10-10S341.522,416,336,416z"/>
<path d="M436,416h-60c-5.522,0-10,4.477-10,10s4.478,10,10,10h60c5.522,0,10-4.477,10-10S441.522,416,436,416z"/>
<g>
</g>
<g>
</g>
<g>
</g>
<g>
</g>
<g>
</g>
<g>
</g>
<g>
</g>
<g>
</g>
<g>
</g>
<g>
</g>
<g>
</g>
<g>
</g>
<g>
</g>
<g>
</g>
<g>
</g>
</svg>
