<?xml version="1.0" encoding="iso-8859-1"?>
<!-- Generator: Adobe Illustrator 19.0.0, SVG Export Plug-In . SVG Version: 6.00 Build 0)  -->
<svg version="1.1" id="Capa_1" xmlns="http://www.w3.org/2000/svg" xmlns:xlink="http://www.w3.org/1999/xlink" x="0px" y="0px"
	 viewBox="0 0 512 512" style="enable-background:new 0 0 512 512;" xml:space="preserve">
<path style="fill:#4D5578;" d="M501.75,242v-85.84c0-4.79-0.57-9.54-1.7-14.16H11.45c-1.13,4.62-1.7,9.37-1.7,14.16V242
	c0,11.05,8.95,20,20,20c-11.05,0-20,8.95-20,20v80c0,11.05,8.95,20,20,20c-11.05,0-20,8.95-20,20v80c0,11.05,8.95,20,20,20h452
	c11.05,0,20-8.95,20-20v-80c0-11.05-8.95-20-20-20c11.05,0,20-8.95,20-20v-80c0-11.05-8.95-20-20-20
	C492.8,262,501.75,253.05,501.75,242z"/>
<path style="fill:#FFFFFF;" d="M500.05,142H11.45c1.06-4.37,2.61-8.62,4.63-12.67L64.22,21.06C67.61,14.28,74.54,10,82.11,10h347.28
	c7.57,0,14.5,4.28,17.89,11.06l48.14,108.27C497.44,133.38,498.99,137.63,500.05,142z"/>
<g>
	<path style="fill:#7BD8E8;" d="M421.75,182c11.05,0,20,8.95,20,20s-8.95,20-20,20s-20-8.95-20-20S410.7,182,421.75,182z"/>
	<path style="fill:#7BD8E8;" d="M421.75,302c11.05,0,20,8.95,20,20s-8.95,20-20,20s-20-8.95-20-20S410.7,302,421.75,302z"/>
	<path style="fill:#7BD8E8;" d="M421.75,422c11.05,0,20,8.95,20,20s-8.95,20-20,20s-20-8.95-20-20S410.7,422,421.75,422z"/>
</g>
<path d="M230,192c-5.52,0-10,4.48-10,10s4.48,10,10,10s10-4.48,10-10S235.52,192,230,192z"/>
<path d="M230,312c-5.52,0-10,4.48-10,10s4.48,10,10,10s10-4.48,10-10S235.52,312,230,312z"/>
<path d="M230,432c-5.52,0-10,4.48-10,10s4.48,10,10,10s10-4.48,10-10S235.52,432,230,432z"/>
<path d="M422,172c-16.542,0-30,13.458-30,30s13.458,30,30,30s30-13.458,30-30S438.542,172,422,172z M422,212
	c-5.514,0-10-4.486-10-10s4.486-10,10-10s10,4.486,10,10S427.514,212,422,212z"/>
<path d="M110,192H70c-5.522,0-10,4.477-10,10s4.478,10,10,10h40c5.522,0,10-4.477,10-10S115.522,192,110,192z"/>
<path d="M190,192h-40c-5.522,0-10,4.477-10,10s4.478,10,10,10h40c5.522,0,10-4.477,10-10S195.522,192,190,192z"/>
<path d="M422,292c-16.542,0-30,13.458-30,30s13.458,30,30,30s30-13.458,30-30S438.542,292,422,292z M422,332
	c-5.514,0-10-4.486-10-10s4.486-10,10-10s10,4.486,10,10S427.514,332,422,332z"/>
<path d="M110,312H70c-5.522,0-10,4.477-10,10s4.478,10,10,10h40c5.522,0,10-4.477,10-10S115.522,312,110,312z"/>
<path d="M190,312h-40c-5.522,0-10,4.477-10,10s4.478,10,10,10h40c5.522,0,10-4.477,10-10S195.522,312,190,312z"/>
<path d="M422,412c-16.542,0-30,13.458-30,30s13.458,30,30,30s30-13.458,30-30S438.542,412,422,412z M422,452
	c-5.514,0-10-4.486-10-10s4.486-10,10-10s10,4.486,10,10S427.514,452,422,452z"/>
<path d="M30,512h452c16.542,0,30-13.458,30-30v-80c0-7.678-2.902-14.688-7.664-20c4.761-5.312,7.664-12.322,7.664-20v-80
	c0-7.678-2.902-14.688-7.664-20c4.761-5.312,7.664-12.322,7.664-20v-85.84c0-10.48-2.385-21.195-7.279-31.087L456.668,16.997
	c-0.062-0.138-0.126-0.274-0.193-0.41C451.357,6.356,441.075,0,429.64,0H82.36C70.925,0,60.643,6.356,55.525,16.587
	c-0.067,0.135-0.132,0.272-0.193,0.41L7.279,125.073C2.624,134.483,0,145.149,0,156.16V242c0,7.678,2.902,14.688,7.664,20
	C2.902,267.312,0,274.322,0,282v80c0,7.678,2.902,14.688,7.664,20C2.902,387.312,0,394.322,0,402v80C0,498.542,13.458,512,30,512z
	 M492,482c0,5.514-4.486,10-10,10H30c-5.514,0-10-4.486-10-10v-80c0-5.514,4.486-10,10-10h452c5.514,0,10,4.486,10,10V482z M20,362
	v-80c0-5.514,4.486-10,10-10h452c5.514,0,10,4.486,10,10v80c0,5.514-4.486,10-10,10H30C24.486,372,20,367.514,20,362z M20,242
	v-85.84c0-1.391,0.079-2.778,0.195-4.16h471.61c0.116,1.382,0.195,2.769,0.195,4.16V242c0,5.514-4.486,10-10,10H30
	C24.486,252,20,247.514,20,242z M73.499,25.365C75.233,22.051,78.611,20,82.36,20h347.28c3.749,0,7.127,2.051,8.861,5.365
	L485.913,132H26.087L73.499,25.365z"/>
<path d="M110,432H70c-5.522,0-10,4.477-10,10s4.478,10,10,10h40c5.522,0,10-4.477,10-10S115.522,432,110,432z"/>
<path d="M190,432h-40c-5.522,0-10,4.477-10,10s4.478,10,10,10h40c5.522,0,10-4.477,10-10S195.522,432,190,432z"/>
<g>
</g>
<g>
</g>
<g>
</g>
<g>
</g>
<g>
</g>
<g>
</g>
<g>
</g>
<g>
</g>
<g>
</g>
<g>
</g>
<g>
</g>
<g>
</g>
<g>
</g>
<g>
</g>
<g>
</g>
</svg>
