<?xml version="1.0" encoding="iso-8859-1"?>
<!-- Generator: Adobe Illustrator 19.0.0, SVG Export Plug-In . SVG Version: 6.00 Build 0)  -->
<svg version="1.1" id="Capa_1" xmlns="http://www.w3.org/2000/svg" xmlns:xlink="http://www.w3.org/1999/xlink" x="0px" y="0px"
	 viewBox="0 0 512.001 512.001" style="enable-background:new 0 0 512.001 512.001;" xml:space="preserve">
<path style="fill:#FFBFAB;" d="M384.732,307.798h0.01c30.918-13.909,46.458-28.139,61.897-59.007
	c5.11-10.219,15.729-16.509,27.149-16.069c19.919,0.78,33.568,21.029,26.139,39.528C478.968,324.407,437,360.525,391.732,389.634
	c-12.819,8.25-27.809,12.409-43.058,12.399l-134.983-0.04c-17.749-0.01-43.748,12.379-48.738,29.539l-84.246-84.246l-1.18-1.17
	v-0.01C78.468,335.827,129.125,262,184.843,262c39.998,0,48.928,19.999,69.996,19.999h100.195
	C370.173,281.999,382.703,293.219,384.732,307.798z"/>
<circle style="fill:#FFDD78;" cx="315.986" cy="110.005" r="99.995"/>
<polygon style="fill:#7BD8E8;" points="179.093,445.671 122.526,501.988 10.001,389.714 66.569,333.147 "/>
<path d="M315.986,100.008c-5.514,0-10-4.486-10-9.999c0-5.514,4.486-9.999,10-9.999c3.542,0,7.283,1.807,10.815,5.227
	c3.969,3.841,10.299,3.737,14.139-0.233c3.84-3.969,3.736-10.299-0.233-14.139c-5.075-4.911-10.153-7.688-14.723-9.205V50.011
	c0-5.523-4.477-9.999-9.999-9.999c-5.523,0-10,4.477-10,9.999V61.73c-11.638,4.128-19.999,15.242-19.999,28.279
	c0,16.541,13.457,29.998,29.998,29.998c5.514,0,9.999,4.486,9.999,9.999c0,5.514-4.486,9.999-9.999,9.999
	c-4.272,0-8.884-2.687-12.985-7.565c-3.554-4.228-9.86-4.774-14.088-1.219c-4.228,3.554-4.773,9.861-1.219,14.088
	c5.346,6.359,11.631,10.789,18.293,13.023v11.67c0,5.523,4.477,9.999,10,9.999c5.523,0,9.999-4.477,9.999-9.999v-11.719
	c11.638-4.128,19.999-15.242,19.999-28.279C345.984,113.466,332.527,100.008,315.986,100.008z"/>
<path d="M315.986,0.014c-60.651,0-109.994,49.343-109.994,109.994s49.344,109.994,109.994,109.994S425.98,170.659,425.98,110.008
	S376.637,0.014,315.986,0.014z M315.986,200.003c-49.624,0-89.995-40.372-89.995-89.995s40.372-89.995,89.995-89.995
	s89.995,40.372,89.995,89.995S365.609,200.003,315.986,200.003z"/>
<path d="M474.173,222.73c-15.312-0.594-29.624,7.885-36.477,21.588c-12.476,24.945-24.293,37.776-47.036,49.541
	c-6.683-13.042-20.312-21.86-35.627-21.86H254.838c-6.388,0-11.549-2.72-18.694-6.484c-11.429-6.022-25.653-13.515-51.302-13.515
	c-45.82,0-90.335,44.962-108.818,76.46l-2.385-2.385c-3.904-3.903-10.237-3.904-14.142,0L2.929,382.643
	c-1.876,1.876-2.93,4.422-2.929,7.076c0.001,2.654,1.058,5.199,2.937,7.074l112.524,112.274c3.897,3.889,10.21,3.898,14.117,0.008
	l56.567-56.317c3.918-3.901,3.926-10.246,0.016-14.157l-9.158-9.158c6.849-9.687,24.303-17.45,36.666-17.45c0.005,0,0.011,0,0.016,0
	l134.979,0.04c0.02,0,0.04,0,0.061,0c17.452,0,34.192-4.837,48.413-13.988c36.476-23.456,87.779-61.629,112.065-122.069
	C519.312,250.813,500.739,223.77,474.173,222.73z M122.534,487.871l-98.383-98.164l42.418-42.418
	c23.644,23.644,48.61,48.615,98.368,98.368L122.534,487.871z M490.648,268.522c-22.156,55.135-70.15,90.726-104.328,112.703
	c-10.988,7.072-23.987,10.808-37.596,10.808c-0.016,0-0.032,0-0.048,0l-134.98-0.04c-0.009,0-0.018,0-0.028,0
	c-17.466,0-39.099,9.066-50.883,23.229L90.75,343.188C98.683,326.88,140.148,272,184.842,272c20.704,0,31.52,5.699,41.981,11.209
	c8.202,4.321,16.682,8.79,28.016,8.79h100.195c9.921,0,18.431,7.385,19.804,17.245c1.715,11.716-7.485,22.753-19.804,22.753H254.838
	c-5.523,0-9.999,4.477-9.999,10c0,5.523,4.477,9.999,9.999,9.999h100.195c21.365,0,38.871-16.838,39.946-37.941
	c29.643-14.362,45.393-30.379,60.604-60.792c3.348-6.697,10.335-10.835,17.813-10.549
	C486.555,243.229,495.459,256.544,490.648,268.522z"/>
<path d="M108.985,417.988c-3.906-3.903-10.237-3.9-14.142,0.005c-3.904,3.907-3.901,10.237,0.005,14.142l14.149,14.139
	c3.905,3.903,10.235,3.902,14.142-0.005c3.904-3.907,3.901-10.237-0.005-14.142L108.985,417.988z"/>
<g>
</g>
<g>
</g>
<g>
</g>
<g>
</g>
<g>
</g>
<g>
</g>
<g>
</g>
<g>
</g>
<g>
</g>
<g>
</g>
<g>
</g>
<g>
</g>
<g>
</g>
<g>
</g>
<g>
</g>
</svg>
