<?xml version="1.0" encoding="iso-8859-1"?>
<!-- Generator: Adobe Illustrator 19.0.0, SVG Export Plug-In . SVG Version: 6.00 Build 0)  -->
<svg version="1.1" id="Capa_1" xmlns="http://www.w3.org/2000/svg" xmlns:xlink="http://www.w3.org/1999/xlink" x="0px" y="0px"
	 viewBox="0 0 512 512" style="enable-background:new 0 0 512 512;" xml:space="preserve">
<path style="fill:#FF5249;" d="M446,202v20c-7.259,0-52.693,0-60,0v-20c0-11.05,8.95-20,20-20h20C437.05,182,446,190.95,446,202z"/>
<path style="fill:#4D5578;" d="M376,462c11.05,0,20,8.95,20,20s-8.95,20-20,20s-20-8.95-20-20S364.95,462,376,462z"/>
<g>
	<path style="fill:#FF5249;" d="M376,342c-10.046,0-229.811,0-240,0c0-23.101,16.7-62.78,39.46-66.58
		c26.994-4.495,54.031-6.66,80.54-6.66c26.506,0,53.542,2.165,80.54,6.66C359.298,279.22,376,318.892,376,342z"/>
	<path style="fill:#FF5249;" d="M346,70v132c0,11.05-8.95,20-20,20c-29.189,0-110.871,0-140,0c-11.05,0-20-8.95-20-20V70
		c0-33.14,26.86-60,60-60h60C319.14,10,346,36.86,346,70z"/>
</g>
<g>
	<path style="fill:#4D5578;" d="M276,342v80c-13.99,0-26.01,0-40,0v-80H276z"/>
	<path style="fill:#4D5578;" d="M276,222v47.17c-6.66-0.27-13.33-0.41-20-0.41c-6.67,0-13.34,0.14-20,0.41V222H276z"/>
	<path style="fill:#4D5578;" d="M256,462c11.05,0,20,8.95,20,20s-8.95,20-20,20c-11.05,0-20-8.95-20-20S244.95,462,256,462z"/>
	<path style="fill:#4D5578;" d="M136,462c11.05,0,20,8.95,20,20s-8.95,20-20,20s-20-8.95-20-20S124.95,462,136,462z"/>
</g>
<path style="fill:#FF5249;" d="M126,202v20c-7.259,0-52.693,0-60,0v-20c0-11.05,8.95-20,20-20h20C117.05,182,126,190.95,126,202z"/>
<path d="M306,172c5.52,0,10-4.48,10-10s-4.48-10-10-10s-10,4.48-10,10S300.48,172,306,172z"/>
<path d="M456,222v-20c0-16.542-13.458-30-30-30h-20c-16.542,0-30,13.458-30,30v20c0,5.523,4.477,10,10,10h20v70
	c0,13.397-8.828,24.768-20.971,28.609c-1.748-11.05-5.779-23.21-11.378-33.802c-9.47-17.915-22.065-29.013-35.469-31.251
	c-17.188-2.862-34.698-4.827-52.182-5.881V232h40c16.542,0,30-13.458,30-30V70c0-38.598-31.402-70-70-70h-60
	c-38.598,0-70,31.402-70,70v132c0,16.542,13.458,30,30,30h40v27.675c-17.483,1.054-34.994,3.019-52.187,5.882
	c-13.399,2.237-25.994,13.335-35.464,31.25c-5.599,10.593-9.631,22.752-11.378,33.802C114.828,326.768,106,315.397,106,302v-70h20
	c5.523,0,10-4.477,10-10v-20c0-16.542-13.458-30-30-30H86c-16.542,0-30,13.458-30,30v20c0,5.523,4.477,10,10,10h20v70
	c0,27.57,22.43,50,50,50h90v60h-70c-16.542,0-30,13.458-30,30v11.72c-11.639,4.128-20,15.243-20,28.28c0,16.542,13.458,30,30,30
	s30-13.458,30-30c0-13.036-8.361-24.152-20-28.28V442c0-5.514,4.486-10,10-10h90v21.72c-11.639,4.128-20,15.243-20,28.28
	c0,16.542,13.458,30,30,30s30-13.458,30-30c0-13.036-8.361-24.152-20-28.28V432h90c5.514,0,10,4.486,10,10v11.72
	c-11.639,4.128-20,15.243-20,28.28c0,16.542,13.458,30,30,30s30-13.458,30-30c0-13.036-8.361-24.152-20-28.28V442
	c0-16.542-13.458-30-30-30h-70v-60h90c27.57,0,50-22.43,50-50v-70h20C451.523,232,456,227.523,456,222z M76,202
	c0-5.514,4.486-10,10-10h20c5.514,0,10,4.486,10,10v10H76V202z M136,492c-5.514,0-10-4.486-10-10s4.486-10,10-10s10,4.486,10,10
	S141.514,492,136,492z M256,492c-5.514,0-10-4.486-10-10s4.486-10,10-10s10,4.486,10,10S261.514,492,256,492z M376,492
	c-5.514,0-10-4.486-10-10s4.486-10,10-10s10,4.486,10,10S381.514,492,376,492z M176,202V70c0-27.57,22.43-50,50-50h60
	c27.57,0,50,22.43,50,50v132c0,5.514-4.486,10-10,10H186C180.486,212,176,207.514,176,202z M266,232v26.863
	c-3.36-0.068-6.701-0.103-10-0.103c-3.299,0-6.64,0.035-10,0.103V232H266z M266,412h-20v-60h20V412z M147,332
	c1.536-8.4,4.751-17.751,9.031-25.847c6.299-11.917,14.178-19.718,21.071-20.869c25.257-4.205,51.823-6.524,78.898-6.524
	c25.504,0,52.099,2.063,78.893,6.523c6.898,1.152,14.777,8.954,21.076,20.87c4.28,8.096,7.496,17.447,9.031,25.847L147,332L147,332z
	 M436,212h-40v-10c0-5.514,4.486-10,10-10h20c5.514,0,10,4.486,10,10V212z"/>
<path d="M306,132c5.523,0,10-4.477,10-10V70c0-5.523-4.477-10-10-10s-10,4.477-10,10v52C296,127.523,300.477,132,306,132z"/>
<g>
</g>
<g>
</g>
<g>
</g>
<g>
</g>
<g>
</g>
<g>
</g>
<g>
</g>
<g>
</g>
<g>
</g>
<g>
</g>
<g>
</g>
<g>
</g>
<g>
</g>
<g>
</g>
<g>
</g>
</svg>
