<?xml version="1.0" encoding="iso-8859-1"?>
<!-- Generator: Adobe Illustrator 19.0.0, SVG Export Plug-In . SVG Version: 6.00 Build 0)  -->
<svg version="1.1" id="Capa_1" xmlns="http://www.w3.org/2000/svg" xmlns:xlink="http://www.w3.org/1999/xlink" x="0px" y="0px"
	 viewBox="0 0 512 512" style="enable-background:new 0 0 512 512;" xml:space="preserve">
<path style="fill:#FFDD78;" d="M476,309.24V482c0,11.05-8.95,20-20,20H56c-11.05,0-20-8.95-20-20V309.24c0-2.5,0.47-4.95,1.36-7.24
	c41.581,0,378.711,0,437.28,0C475.53,304.29,476,306.74,476,309.24z"/>
<path style="fill:#4D5578;" d="M474.64,302H376V184.33c2.27,1.2,4.32,2.85,6,4.87l89.36,107.24
	C472.76,298.12,473.86,299.99,474.64,302z"/>
<g>
	<path style="fill:#FFFFFF;" d="M376,184.33V302h-80V182h70.63C369.94,182,373.15,182.82,376,184.33z"/>
	<path style="fill:#FFFFFF;" d="M356,362v80H156v-80H356z"/>
</g>
<path style="fill:#7BD8E8;" d="M356,110h-60c0,7.742,0,184.264,0,192h-80c0-7.709,0-184.264,0-192h-60L256,10L356,110z"/>
<path style="fill:#FFFFFF;" d="M216,182v120h-80V184.33c2.85-1.51,6.06-2.33,9.37-2.33H216z"/>
<path style="fill:#4D5578;" d="M136,184.33V302H37.36c0.78-2.01,1.88-3.88,3.28-5.56L130,189.2
	C131.68,187.18,133.73,185.53,136,184.33z"/>
<path d="M216,412c5.52,0,10-4.48,10-10s-4.48-10-10-10s-10,4.48-10,10S210.48,412,216,412z"/>
<path d="M26,482c0,16.542,13.458,30,30,30h400c16.542,0,30-13.458,30-30V309.24c0-7.195-2.605-13.976-6.957-19.202L389.69,182.807
	c-5.781-6.95-14.302-10.807-23.06-10.807H306v-52h50c4.045,0,7.691-2.437,9.239-6.173s0.691-8.038-2.168-10.898l-100-100
	c-3.906-3.905-10.236-3.905-14.143,0l-100,100c-2.86,2.86-3.715,7.161-2.167,10.898S151.956,120,156,120h50v52h-60.63
	c-8.868,0-17.351,3.943-23.053,10.799l-89.36,107.24C28.668,295.187,26,301.948,26,309.24V482z M456,492H56c-5.514,0-10-4.486-10-10
	V312h420v170C466,487.514,461.514,492,456,492z M454.644,292H386v-82.378L454.644,292z M366,192v100h-60V192H366z M180.142,100
	L256,24.142L331.858,100H296c-5.522,0-10,4.477-10,10v182h-60V110c0-5.523-4.477-10-10-10H180.142z M206,292h-60V192h60V292z
	 M126,209.622V292H57.357L126,209.622z"/>
<path d="M356,352H156c-5.523,0-10,4.477-10,10v80c0,5.523,4.477,10,10,10h200c5.522,0,10-4.477,10-10v-80
	C366,356.477,361.523,352,356,352z M346,432H166v-60h180V432z"/>
<path d="M256,412h40c5.522,0,10-4.477,10-10s-4.478-10-10-10h-40c-5.522,0-10,4.477-10,10S250.478,412,256,412z"/>
<g>
</g>
<g>
</g>
<g>
</g>
<g>
</g>
<g>
</g>
<g>
</g>
<g>
</g>
<g>
</g>
<g>
</g>
<g>
</g>
<g>
</g>
<g>
</g>
<g>
</g>
<g>
</g>
<g>
</g>
</svg>
