<?xml version="1.0" encoding="iso-8859-1"?>
<!-- Generator: Adobe Illustrator 19.0.0, SVG Export Plug-In . SVG Version: 6.00 Build 0)  -->
<svg version="1.1" id="Capa_1" xmlns="http://www.w3.org/2000/svg" xmlns:xlink="http://www.w3.org/1999/xlink" x="0px" y="0px"
	 viewBox="0 0 512 512" style="enable-background:new 0 0 512 512;" xml:space="preserve">
<path style="fill:#FFDD78;" d="M481.987,185.985c12.173,0,21.525,10.782,19.804,22.835l-34.297,240.051
	c-1.4,9.852-9.842,17.174-19.804,17.174H64.309c-9.962,0-18.404-7.322-19.804-17.174L10.208,208.82
	c-1.72-12.053,7.632-22.835,19.804-22.835C48.526,185.985,461.586,185.985,481.987,185.985z"/>
<path style="fill:#4D5578;" d="M445.039,85.964H146.977V65.96c0-11.052-8.952-20.004-20.004-20.004H66.96
	c-11.052,0-20.004,8.952-20.004,20.004v120.025h418.088v-80.017C465.044,94.916,456.092,85.964,445.039,85.964z"/>
<g>
	<rect x="86.968" y="135.979" style="fill:#FFFFFF;" width="338.071" height="50.011"/>
	<path style="fill:#FFFFFF;" d="M356.021,266.002v120.025H155.978V266.002H356.021z"/>
</g>
<path d="M215.991,316.013c5.521,0,10.002-4.481,10.002-10.002s-4.481-10.002-10.002-10.002c-5.521,0-10.002,4.481-10.002,10.002
	S210.47,316.013,215.991,316.013z"/>
<path d="M215.991,356.021c5.521,0,10.002-4.481,10.002-10.002s-4.481-10.002-10.002-10.002c-5.521,0-10.002,4.481-10.002,10.002
	S210.47,356.021,215.991,356.021z"/>
<path d="M126.972,35.953H66.96c-16.545,0-30.006,13.461-30.006,30.006v110.023h-6.941c-18.225,0-32.288,16.151-29.705,34.252
	l34.296,240.044c2.088,14.69,14.859,25.767,29.706,25.767h383.382c14.847,0,27.618-11.078,29.705-25.76l34.297-240.053
	c2.58-18.077-11.462-34.25-29.705-34.25h-6.941v-70.015c0-16.545-13.461-30.006-30.006-30.006H156.98V65.96
	C156.979,49.414,143.518,35.953,126.972,35.953z M491.89,207.406l-34.298,240.058c-0.695,4.891-4.952,8.58-9.901,8.58H64.309
	c-4.949,0-9.206-3.689-9.902-8.586L20.11,207.409c-0.856-6.001,3.77-11.419,9.902-11.419h451.976
	C488.145,195.987,492.742,201.434,491.89,207.406z M415.033,175.983H96.966v-30.006h318.067V175.983z M445.039,95.966
	c5.515,0,10.002,4.487,10.002,10.002v70.015h-20.004v-40.008c0-5.524-4.479-10.002-10.002-10.002H86.964
	c-5.523,0-10.002,4.478-10.002,10.002v40.008H56.958V65.96c0-5.515,4.487-10.002,10.002-10.002h60.013
	c5.515,0,10.002,4.487,10.002,10.002v20.004c0,5.524,4.479,10.002,10.002,10.002H445.039z"/>
<path d="M356.021,256H155.978c-5.523,0-10.002,4.478-10.002,10.002v120.025c0,5.524,4.479,10.002,10.002,10.002h200.042
	c5.523,0,10.002-4.478,10.002-10.002V266.002C366.023,260.478,361.545,256,356.021,256z M346.019,376.025H165.981V276.004h180.038
	V376.025z"/>
<path d="M256,356.021h40.008c5.523,0,10.002-4.478,10.002-10.002s-4.479-10.002-10.002-10.002H256
	c-5.523,0-10.002,4.478-10.002,10.002S250.476,356.021,256,356.021z"/>
<path d="M256,316.013h40.008c5.523,0,10.002-4.478,10.002-10.002s-4.479-10.002-10.002-10.002H256
	c-5.523,0-10.002,4.478-10.002,10.002S250.476,316.013,256,316.013z"/>
<g>
</g>
<g>
</g>
<g>
</g>
<g>
</g>
<g>
</g>
<g>
</g>
<g>
</g>
<g>
</g>
<g>
</g>
<g>
</g>
<g>
</g>
<g>
</g>
<g>
</g>
<g>
</g>
<g>
</g>
</svg>
