<?xml version="1.0" encoding="iso-8859-1"?>
<!-- Generator: Adobe Illustrator 19.0.0, SVG Export Plug-In . SVG Version: 6.00 Build 0)  -->
<svg version="1.1" id="Capa_1" xmlns="http://www.w3.org/2000/svg" xmlns:xlink="http://www.w3.org/1999/xlink" x="0px" y="0px"
	 viewBox="0 0 512 512" style="enable-background:new 0 0 512 512;" xml:space="preserve">
<path style="fill:#FFFFFF;" d="M396,98.28V382c0,11.05-8.95,20-20,20H256H136c-11.05,0-20-8.95-20-20V30c0-11.05,8.95-20,20-20
	h171.72c2.88,0,5.71,0.62,8.28,1.8V90h78.2C395.38,92.57,396,95.4,396,98.28z"/>
<path style="fill:#FFDD78;" d="M394.2,90H316V11.8c2.17,0.98,4.15,2.35,5.86,4.06l68.28,68.28C391.85,85.85,393.22,87.83,394.2,90z"
	/>
<circle style="fill:#7BD8E8;" cx="256" cy="472" r="30"/>
<path d="M176,166c5.52,0,10-4.48,10-10s-4.48-10-10-10s-10,4.48-10,10S170.48,166,176,166z"/>
<path d="M176,286h160c5.522,0,10-4.477,10-10s-4.478-10-10-10H176c-5.522,0-10,4.477-10,10S170.478,286,176,286z"/>
<path d="M176,226h160c5.522,0,10-4.477,10-10s-4.478-10-10-10H176c-5.522,0-10,4.477-10,10S170.478,226,176,226z"/>
<path d="M346,336c0-5.523-4.478-10-10-10H176c-5.522,0-10,4.477-10,10s4.478,10,10,10h160C341.522,346,346,341.523,346,336z"/>
<path d="M216,166h120c5.522,0,10-4.477,10-10s-4.478-10-10-10H216c-5.522,0-10,4.477-10,10S210.478,166,216,166z"/>
<path d="M10,482h207.266c4.452,17.233,20.13,30,38.734,30s34.282-12.767,38.734-30H502c5.522,0,10-4.477,10-10s-4.478-10-10-10
	H294.734c-3.626-14.036-14.699-25.108-28.734-28.734V412h110c16.542,0,30-13.458,30-30V98.28c0-7.948-3.202-15.623-8.789-21.21
	L328.932,8.789C323.421,3.279,315.764,0,307.72,0H136c-16.542,0-30,13.458-30,30v352c0,16.542,13.458,30,30,30h110v21.266
	c-14.035,3.626-25.108,14.699-28.734,28.734H10c-5.522,0-10,4.477-10,10S4.478,482,10,482z M371.857,80H326V34.142L371.857,80z
	 M126,382V30c0-5.514,4.486-10,10-10h170v70c0,5.523,4.478,10,10,10h70v282c0,5.514-4.486,10-10,10H136
	C130.486,392,126,387.514,126,382z M256,452c11.028,0,20,8.972,20,20s-8.972,20-20,20s-20-8.972-20-20S244.972,452,256,452z"/>
<g>
</g>
<g>
</g>
<g>
</g>
<g>
</g>
<g>
</g>
<g>
</g>
<g>
</g>
<g>
</g>
<g>
</g>
<g>
</g>
<g>
</g>
<g>
</g>
<g>
</g>
<g>
</g>
<g>
</g>
</svg>
