<?xml version="1.0" encoding="iso-8859-1"?>
<!-- Generator: Adobe Illustrator 19.0.0, SVG Export Plug-In . SVG Version: 6.00 Build 0)  -->
<svg version="1.1" id="Capa_1" xmlns="http://www.w3.org/2000/svg" xmlns:xlink="http://www.w3.org/1999/xlink" x="0px" y="0px"
	 viewBox="0 0 512 512" style="enable-background:new 0 0 512 512;" xml:space="preserve">
<polygon style="fill:#4D5578;" points="175.99,236 10,236 10,356 175.99,356 176,356 176,236 "/>
<path style="fill:#FFDD78;" d="M10,356v80c0,11.05,8.95,20,20,20h452c11.05,0,20-8.95,20-20v-80H10z"/>
<polygon style="fill:#4D5578;" points="336.01,236 336,236 336,356 336.01,356 502,356 502,236 "/>
<path style="fill:#FFDD78;" d="M482,136c-25.431,0-434.978,0-452,0c-11.05,0-20,8.95-20,20v80h492v-80
	C502,144.95,493.05,136,482,136z"/>
<path style="fill:#FFFFFF;" d="M462,116v20h-60v-20c0-11.05,8.95-20,20-20h20C453.05,96,462,104.95,462,116z"/>
<path style="fill:#4D5578;" d="M311.53,67.06L346,136H166l34.47-68.94C203.86,60.28,210.79,56,218.36,56h75.28
	C301.21,56,308.14,60.28,311.53,67.06z"/>
<path style="fill:#FFFFFF;" d="M356,296c0,55.23-44.775,100-100,100c-55.332,0-100-44.878-100-100c0-55.23,44.775-100,100-100
	C311.332,196,356,240.878,356,296z"/>
<path style="fill:#7BD8E8;" d="M256,236c33.09,0,60,26.91,60,60s-26.91,60-60,60s-60-26.91-60-60S222.91,236,256,236z"/>
<path style="fill:#FFFFFF;" d="M110,116v20H50v-20c0-11.05,8.95-20,20-20h20C101.05,96,110,104.95,110,116z"/>
<path d="M130,186c5.52,0,10-4.48,10-10s-4.48-10-10-10s-10,4.48-10,10S124.48,186,130,186z"/>
<path d="M482,126h-10v-10c0-16.542-13.458-30-30-30h-20c-16.542,0-30,13.458-30,30v10h-39.819l-31.706-63.413
	C315.357,52.356,305.075,46,293.64,46h-75.28c-11.436,0-21.718,6.356-26.835,16.588L159.819,126H120v-10c0-16.542-13.458-30-30-30
	H70c-16.542,0-30,13.458-30,30v10H30c-16.542,0-30,13.458-30,30c0,5.842,0,264.764,0,280c0,16.542,13.458,30,30,30h452
	c16.542,0,30-13.458,30-30c0-5.842,0-264.764,0-280C512,139.458,498.542,126,482,126z M20,245.9h137.997
	C150.118,261.269,146,278.357,146,296c0,17.644,4.118,34.633,11.997,50H20V245.9z M183.994,349.992
	C172.222,334.33,166,315.66,166,296s6.222-38.33,17.998-53.997C201.17,219.123,227.414,206,256,206s54.83,13.123,72.002,36.003
	c0.002,0.001,0.003,0.003,0.004,0.005C339.778,257.67,346,276.34,346,296s-6.222,38.33-17.998,53.997
	C310.83,372.877,284.586,386,256,386S201.17,372.877,183.994,349.992z M354.002,246H492v100H354.003
	C361.882,330.631,366,313.643,366,296S361.882,261.369,354.002,246z M412,116c0-5.514,4.486-10,10-10h20c5.514,0,10,4.486,10,10v10
	h-40V116z M209.414,71.533C211.12,68.12,214.549,66,218.36,66h75.279c3.812,0,7.24,2.12,8.946,5.532L329.819,126H182.181
	L209.414,71.533z M60,116c0-5.514,4.486-10,10-10h20c5.514,0,10,4.486,10,10v10H60V116z M30,146c17.022,0,426.57,0,452,0
	c5.514,0,10,4.486,10,10v70H340.841c-20.972-25.481-51.607-40-84.841-40c-33.236,0-63.873,14.521-84.842,40H20v-70
	C20,150.486,24.486,146,30,146z M482,446H30c-5.514,0-10-4.486-10-10v-70h151.159c20.972,25.481,51.607,40,84.841,40
	c33.236,0,63.873-14.521,84.842-40H492v70C492,441.514,487.514,446,482,446z"/>
<path d="M50,186h40c5.522,0,10-4.477,10-10s-4.478-10-10-10H50c-5.522,0-10,4.477-10,10S44.478,186,50,186z"/>
<path d="M256,366c38.598,0,70-31.402,70-70s-31.402-70-70-70s-70,31.402-70,70S217.402,366,256,366z M256,246
	c27.57,0,50,22.43,50,50s-22.43,50-50,50s-50-22.43-50-50S228.43,246,256,246z"/>
<g>
</g>
<g>
</g>
<g>
</g>
<g>
</g>
<g>
</g>
<g>
</g>
<g>
</g>
<g>
</g>
<g>
</g>
<g>
</g>
<g>
</g>
<g>
</g>
<g>
</g>
<g>
</g>
<g>
</g>
</svg>
