<?xml version="1.0" encoding="iso-8859-1"?>
<!-- Generator: Adobe Illustrator 19.0.0, SVG Export Plug-In . SVG Version: 6.00 Build 0)  -->
<svg version="1.1" id="Capa_1" xmlns="http://www.w3.org/2000/svg" xmlns:xlink="http://www.w3.org/1999/xlink" x="0px" y="0px"
	 viewBox="0 0 512 512" style="enable-background:new 0 0 512 512;" xml:space="preserve">
<path style="fill:#D1F1FF;" d="M228.084,227.345l-0.37,0.37c-15.603,15.593-15.603,40.968,0,56.572
	c15.593,15.603,40.968,15.603,56.572,0l-64.833,64.843h-0.01c-12.453-4.881-24.105-12.343-34.167-22.405
	c-10.062-10.062-17.524-21.724-22.405-34.177c-14.063-35.887-6.591-78.276,22.405-107.272l146.03-146.03
	c39.058-39.058,102.391-39.058,141.449,0s39.058,102.391,0,141.449l-146.03,146.03c28.996-28.996,36.467-71.385,22.405-107.272
	l81.187-81.197c15.603-15.593,15.603-40.978,0-56.572c-15.593-15.603-40.978-15.603-56.572,0
	c-0.121,0.121-141.833,141.842-145.29,145.3C228.324,227.105,228.204,227.225,228.084,227.345z"/>
<path style="fill:#4D5578;" d="M349.128,219.453c14.063,35.887,6.591,78.276-22.405,107.272l-146.03,146.03
	c-39.058,39.058-102.391,39.058-141.449,0s-39.058-102.391,0-141.449l146.03-146.03c-28.996,28.996-36.467,71.385-22.405,107.272
	l-81.187,81.197c-15.603,15.593-15.603,40.978,0,56.572c15.593,15.603,40.978,15.603,56.572,0l146.03-146.03
	c15.603-15.603,15.603-40.978,0-56.572c-15.353-15.363-40.178-15.603-55.831-0.73l64.103-64.113
	c12.453,4.881,24.105,12.343,34.167,22.405C336.786,195.338,344.247,207.001,349.128,219.453z"/>
<path d="M32.173,479.828c42.894,42.895,112.695,42.899,155.594,0l146.03-146.03l146.03-146.03
	c42.898-42.898,42.898-112.697,0-155.595c-42.897-42.897-112.696-42.897-155.594,0l-146.03,146.03l-146.03,146.03
	C-10.724,367.132-10.724,436.931,32.173,479.828z M352.083,202.353c-4.916-8.806-11.03-16.893-18.286-24.149
	c-7.255-7.255-15.339-13.369-24.138-18.284l71.16-71.165c11.693-11.701,30.721-11.708,42.426,0.004
	c11.7,11.692,11.708,30.721-0.002,42.425L352.083,202.353z M338.378,46.319c35.097-35.098,92.206-35.098,127.304,0
	c35.097,35.097,35.097,92.206,0,127.303L364.384,274.921c3.038-17.379,1.897-35.513-3.723-52.856l76.724-76.734
	c19.521-19.508,19.533-51.201,0.004-70.716c-19.512-19.525-51.202-19.531-70.719-0.002
	c-5.397,5.398-140.962,140.973-145.261,145.272c-20.779,19.982-20.093,52.151-0.77,71.473c7.75,7.755,17.612,12.639,28.299,14.137
	l-31.735,31.74c-9.19-4.383-17.538-10.262-24.856-17.58c-8.851-8.851-15.635-19.198-20.165-30.753
	c-13.065-33.339-5.149-71.237,20.165-96.55L338.378,46.319z M277.213,277.214c-11.703,11.703-30.723,11.709-42.426-0.001
	c-11.701-11.701-11.713-30.72,0.005-42.431c0.1-0.1,0.465-0.465,0.365-0.365c11.41-11.149,30.456-11.237,42.059,0.372
	C288.918,246.486,288.92,265.506,277.213,277.214z M159.917,309.649c4.916,8.806,11.03,16.893,18.286,24.149
	c7.257,7.257,15.342,13.371,24.141,18.286l-71.163,71.163c-11.693,11.701-30.721,11.709-42.426-0.004
	c-11.7-11.692-11.708-30.721,0.002-42.425L159.917,309.649z M147.615,237.082c-3.038,17.379-1.897,35.513,3.723,52.856
	l-76.724,76.734c-19.525,19.511-19.53,51.204-0.004,70.717c19.512,19.525,51.203,19.53,70.719,0.002l80.93-80.93
	c0.091-0.084,0.18-0.17,0.268-0.258l64.832-64.842l0,0l0,0l0,0c19.515-19.515,19.532-51.197,0.002-70.712
	c-7.734-7.739-17.607-12.626-28.293-14.131l31.74-31.742c9.185,4.383,17.529,10.261,24.844,17.577
	c8.851,8.851,15.635,19.198,20.165,30.753c13.065,33.339,5.149,71.237-20.165,96.55l-146.03,146.03
	c-35.097,35.098-92.206,35.098-127.304,0c-35.097-35.097-35.097-92.206,0-127.303L147.615,237.082z"/>
<path d="M149.909,149.91c3.906-3.906,3.906-10.239,0-14.146L107.48,93.335c-3.906-3.906-10.239-3.906-14.146,0
	c-3.906,3.906-3.906,10.239,0,14.146l42.429,42.429C139.668,153.816,146.003,153.817,149.909,149.91z"/>
<path d="M39.175,191.988c0,5.524,4.478,10.002,10.002,10.002h60.012c5.524,0,10.002-4.478,10.002-10.002
	c0-5.524-4.478-10.002-10.002-10.002H49.177C43.654,181.986,39.175,186.463,39.175,191.988z"/>
<path d="M201.988,109.191V49.178c0-5.524-4.478-10.002-10.002-10.002c-5.524,0-10.002,4.478-10.002,10.002v60.012
	c0,5.524,4.478,10.002,10.002,10.002C197.51,119.193,201.988,114.715,201.988,109.191z"/>
<path d="M362.09,362.092c-3.906,3.906-3.906,10.239,0,14.146l42.429,42.429c3.906,3.906,10.239,3.906,14.146,0
	c3.906-3.906,3.906-10.239,0-14.146l-42.429-42.429C372.329,358.186,365.996,358.186,362.09,362.092z"/>
<path d="M329.014,462.823v-60.012c0-5.524-4.478-10.002-10.002-10.002s-10.002,4.478-10.002,10.002v60.012
	c0,5.524,4.478,10.002,10.002,10.002S329.014,468.347,329.014,462.823z"/>
<path d="M462.822,329.016c5.524,0,10.002-4.478,10.002-10.002s-4.478-10.002-10.002-10.002h-60.012
	c-5.524,0-10.002,4.478-10.002,10.002s4.478,10.002,10.002,10.002H462.822z"/>
<g>
</g>
<g>
</g>
<g>
</g>
<g>
</g>
<g>
</g>
<g>
</g>
<g>
</g>
<g>
</g>
<g>
</g>
<g>
</g>
<g>
</g>
<g>
</g>
<g>
</g>
<g>
</g>
<g>
</g>
</svg>
