<?xml version="1.0" encoding="iso-8859-1"?>
<!-- Generator: Adobe Illustrator 19.0.0, SVG Export Plug-In . SVG Version: 6.00 Build 0)  -->
<svg version="1.1" id="Capa_1" xmlns="http://www.w3.org/2000/svg" xmlns:xlink="http://www.w3.org/1999/xlink" x="0px" y="0px"
	 viewBox="0 0 512 512" style="enable-background:new 0 0 512 512;" xml:space="preserve">
<path style="fill:#7BD8E8;" d="M501.959,30.038L487.82,213.871c0,5.3-2.11,10.389-5.859,14.139L213.835,496.136
	c-7.809,7.809-20.478,7.809-28.287,0L15.863,326.451c-7.809-7.809-7.809-20.478,0-28.287L283.988,30.038
	c3.75-3.75,8.839-5.859,14.139-5.859L481.961,10.04C493.01,10.04,501.959,18.989,501.959,30.038z M445.394,94.882
	c7.809-7.809,7.809-20.468,0-28.277s-20.468-7.809-28.277,0s-7.809,20.468,0,28.277S437.585,102.691,445.394,94.882z"/>
<polygon style="fill:#FFFFFF;" points="303.987,66.605 58.279,312.302 199.696,453.72 445.394,208.012 "/>
<path d="M174.118,207.892c5.52,0,9.999-4.48,9.999-9.999c0-5.478-4.432-9.999-9.999-9.999c-5.52,0-9.999,4.48-9.999,9.999
	C164.119,203.458,168.639,207.892,174.118,207.892z"/>
<path d="M481.194,0.07L297.702,14.182c-7.745,0.113-15.301,3.301-20.785,8.785L8.792,291.092c-11.722,11.722-11.724,30.705,0,42.429
	l169.684,169.685c11.723,11.721,30.704,11.725,42.429,0l268.126-268.125c5.484-5.486,8.672-13.04,8.785-20.785l14.112-183.492
	C513.206,14.138,497.14-1.152,481.194,0.07z M477.821,213.871c0,2.629-1.068,5.206-2.932,7.068L206.763,489.066
	c-3.906,3.906-10.238,3.909-14.146,0L22.934,319.381c-3.908-3.908-3.908-10.238,0-14.146L291.059,37.109
	c1.862-1.863,4.439-2.931,7.068-2.931c0.6,0,22.912-1.741,184.151-14.134c5.262,0.165,9.51,4.415,9.676,9.675
	C479.563,190.958,477.821,213.27,477.821,213.871z"/>
<path d="M431.255,50.748c-8.012,0-15.544,3.121-21.209,8.785c-5.665,5.665-8.785,13.198-8.785,21.209s3.12,15.544,8.785,21.209
	c5.665,5.665,13.197,8.786,21.209,8.786c8.012,0,15.544-3.121,21.209-8.785c5.665-5.665,8.785-13.198,8.785-21.209
	s-3.12-15.544-8.785-21.209C446.799,53.869,439.268,50.748,431.255,50.748z M438.323,87.811L438.323,87.811
	c-1.889,1.889-4.398,2.929-7.067,2.929s-5.18-1.04-7.067-2.929c-1.888-1.889-2.929-4.399-2.929-7.068c0-2.67,1.04-5.18,2.929-7.068
	c1.889-1.888,4.398-2.928,7.067-2.928s5.18,1.04,7.067,2.929c1.888,1.889,2.929,4.399,2.929,7.068
	C441.251,83.413,440.211,85.923,438.323,87.811z"/>
<path d="M190.478,264.955c-3.906-3.905-10.235-3.905-14.142,0l-28.277,28.277c-3.904,3.905-3.905,10.235-0.001,14.14l28.277,28.287
	c3.905,3.907,10.237,3.905,14.143,0.001l21.216-21.216l14.14,14.144l-21.209,21.208c-3.905,3.905-3.905,10.236,0,14.141
	c3.905,3.905,10.234,3.906,14.142,0l28.277-28.277c3.904-3.905,3.905-10.235,0.001-14.14l-28.277-28.287
	c-3.905-3.907-10.237-3.905-14.143-0.001l-21.216,21.216l-14.14-14.144l21.209-21.208
	C194.383,275.191,194.383,268.859,190.478,264.955z"/>
<path d="M247.044,222.53c3.904-3.906,3.903-10.236-0.002-14.141c-3.907-3.905-10.238-3.903-14.142,0.002l-28.277,28.287
	c-3.904,3.905-3.903,10.235,0.001,14.14c5.368,5.368,51.158,51.158,56.555,56.555c3.904,3.904,10.233,3.906,14.141,0.001
	l28.287-28.277c3.905-3.905,3.906-10.235,0.002-14.141c-3.905-3.906-10.234-3.906-14.142-0.002l-21.217,21.209l-14.138-14.138
	l21.207-21.207c3.905-3.905,3.905-10.236,0-14.141c-3.906-3.905-10.235-3.905-14.142,0l-21.206,21.206l-14.139-14.138
	L247.044,222.53z"/>
<path d="M317.743,250.819c3.906,3.905,10.235,3.905,14.142,0l28.287-28.287c3.903-3.904,3.904-10.237,0-14.142l-56.565-56.565
	c-3.906-3.905-10.235-3.905-14.142,0l-28.287,28.287c-3.903,3.904-3.904,10.237,0,14.142L317.743,250.819z M296.536,173.037
	l42.424,42.424l-14.146,14.147l-42.424-42.424L296.536,173.037z"/>
<path d="M311.057,59.534c-1.876-1.875-4.419-2.929-7.07-2.929c-2.652,0-5.195,1.054-7.07,2.929L194.606,161.845
	c-3.905,3.906-3.905,10.236,0,14.142c3.906,3.905,10.235,3.904,14.142,0l95.239-95.241l127.267,127.267L199.696,439.579
	L72.42,312.302l79.801-79.792c3.906-3.905,3.906-10.235,0.001-14.141c-3.902-3.904-10.234-3.906-14.141,0l-86.872,86.862
	c-3.903,3.901-3.906,10.236-0.001,14.141L192.626,460.79c3.904,3.903,10.237,3.906,14.142,0l245.698-245.708
	c3.905-3.905,3.905-10.236,0-14.141L311.057,59.534z"/>
<g>
</g>
<g>
</g>
<g>
</g>
<g>
</g>
<g>
</g>
<g>
</g>
<g>
</g>
<g>
</g>
<g>
</g>
<g>
</g>
<g>
</g>
<g>
</g>
<g>
</g>
<g>
</g>
<g>
</g>
</svg>
