<?xml version="1.0" encoding="iso-8859-1"?>
<!-- Generator: Adobe Illustrator 19.0.0, SVG Export Plug-In . SVG Version: 6.00 Build 0)  -->
<svg version="1.1" id="Capa_1" xmlns="http://www.w3.org/2000/svg" xmlns:xlink="http://www.w3.org/1999/xlink" x="0px" y="0px"
	 viewBox="0 0 512 512" style="enable-background:new 0 0 512 512;" xml:space="preserve">
<path style="fill:#4D5578;" d="M502,366v40c0,22.09-17.91,40-40,40H50c-22.09,0-40-17.91-40-40v-40c15.345,0,171.323,0,180,0v20h132
	v-20C330.723,366,486.647,366,502,366z"/>
<path style="fill:#FFFFFF;" d="M482,86v280H322v20H190v-20H30V86c0-11.05,8.95-20,20-20h412C473.05,66,482,74.95,482,86z"/>
<g>
	<path style="fill:#FF5249;" d="M382,156c0-16.57,13.43-30,30-30s30,13.43,30,30s-13.43,30-30,30C395.299,186,382,172.418,382,156z"
		/>
	<path style="fill:#FF5249;" d="M316,276c0,16.57-13.43,30-30,30s-30-13.43-30-30c0-16.56,13.44-30,30-30S316,259.44,316,276z"/>
	<path style="fill:#FF5249;" d="M196,156c16.57,0,30,13.43,30,30c0,16.56-13.44,30-30,30s-30-13.44-30-30
		C166,169.43,179.43,156,196,156z"/>
	<path style="fill:#FF5249;" d="M130,276c0,16.57-13.43,30-30,30s-30-13.43-30-30s13.43-30,30-30C116.56,246,130,259.44,130,276z"/>
</g>
<path d="M362,396c-5.52,0-10,4.48-10,10s4.48,10,10,10s10-4.48,10-10S367.52,396,362,396z"/>
<path d="M502,356h-10V86c0-16.542-13.458-30-30-30H50c-16.542,0-30,13.458-30,30v270H10c-5.522,0-10,4.477-10,10v40
	c0,27.57,22.43,50,50,50h412c27.57,0,50-22.43,50-50v-40C512,360.477,507.522,356,502,356z M40,86c0-5.514,4.486-10,10-10h412
	c5.514,0,10,4.486,10,10v270H322c-5.522,0-10,4.477-10,10v10H200v-10c0-5.523-4.478-10-10-10H40V86z M492,406
	c0,16.542-13.458,30-30,30H50c-16.542,0-30-13.458-30-30v-30h160v10c0,5.523,4.478,10,10,10h132c5.522,0,10-4.477,10-10v-10h160V406
	z"/>
<path d="M175.231,220.192C181.428,223.974,188.558,226,196,226c7.263,0,14.229-1.929,20.321-5.537l35.216,35.216
	C247.929,261.772,246,268.738,246,276c0,22.056,17.944,40,40,40s40-17.944,40-40c0-7.146-1.872-14.003-5.369-20.025l70.749-65.686
	c6.16,3.721,13.236,5.71,20.621,5.71c22.056,0,40-17.944,40-40s-17.944-40-40-40s-40,17.944-40,40
	c0,7.139,1.871,13.992,5.365,20.014l-70.758,65.691C300.448,237.987,293.376,236,286,236c-7.263,0-14.229,1.929-20.321,5.537
	l-35.216-35.216C234.071,200.228,236,193.262,236,186c0-22.056-17.944-40-40-40s-40,17.944-40,40c0,7.075,1.837,13.866,5.267,19.845
	l-40.498,35.963C114.572,238.026,107.442,236,100,236c-22.056,0-40,17.944-40,40s17.944,40,40,40s40-17.944,40-40
	c0-7.075-1.837-13.866-5.267-19.845L175.231,220.192z M412,136c11.028,0,20,8.972,20,20s-8.972,20-20,20
	c-4.688,0-9.128-1.604-12.695-4.55c-0.681-1.016-1.464-1.893-2.751-2.754C393.605,165.12,392,160.681,392,156
	C392,144.972,400.972,136,412,136z M306,276c0,11.028-8.972,20-20,20s-20-8.972-20-20c0-11.03,8.956-20,20-20
	C297.045,256,306,264.954,306,276z M196,166c11.028,0,20,8.972,20,20c0,11.008-8.934,20-20,20c-11.045,0-20-8.954-20-20
	C176,174.972,184.972,166,196,166z M100,296c-11.028,0-20-8.972-20-20s8.972-20,20-20c11.045,0,20,8.954,20,20
	C120,287.028,111.028,296,100,296z"/>
<path d="M442,396h-40c-5.522,0-10,4.477-10,10s4.478,10,10,10h40c5.522,0,10-4.477,10-10S447.522,396,442,396z"/>
<g>
</g>
<g>
</g>
<g>
</g>
<g>
</g>
<g>
</g>
<g>
</g>
<g>
</g>
<g>
</g>
<g>
</g>
<g>
</g>
<g>
</g>
<g>
</g>
<g>
</g>
<g>
</g>
<g>
</g>
</svg>
