<?xml version="1.0" encoding="iso-8859-1"?>
<!-- Generator: Adobe Illustrator 19.0.0, SVG Export Plug-In . SVG Version: 6.00 Build 0)  -->
<svg version="1.1" id="Capa_1" xmlns="http://www.w3.org/2000/svg" xmlns:xlink="http://www.w3.org/1999/xlink" x="0px" y="0px"
	 viewBox="0 0 512 512" style="enable-background:new 0 0 512 512;" xml:space="preserve">
<path style="fill:#4D5578;" d="M376,502H136c0-16.57,6.72-26.57,17.57-32.43c10.86-5.85,25.86-7.57,42.43-7.57h120
	C349.14,462,376,468.86,376,502z"/>
<path style="fill:#D1F1FF;" d="M256,10C145.72,10,56,99.72,56,210c0,96.59,68.82,177.4,160,195.98c12.93,2.64,26.31,4.02,40,4.02
	s27.07-1.38,40-4.02C387.18,387.4,456,306.59,456,210C456,99.72,366.28,10,256,10z"/>
<g>
	<path style="fill:#7BD8E8;" d="M312.98,458.98c-10.87-10.87-16.98-37.62-16.98-53h-80c0,15.38-6.11,42.13-16.98,53L196,462h120
		L312.98,458.98z"/>
	<path style="fill:#7BD8E8;" d="M256,150c33.09,0,60,26.91,60,60s-26.91,60-60,60s-60-26.91-60-60S222.91,150,256,150z"/>
</g>
<path d="M256,60c5.52,0,10-4.48,10-10s-4.48-10-10-10s-10,4.48-10,10S250.48,60,256,60z"/>
<path d="M466,210C466,94.206,371.794,0,256,0S46,94.206,46,210c0,96.488,66.579,180.855,159.516,203.859
	c-1.591,14.119-6.958,31.441-13.568,38.051l-0.131,0.131c-18.899,0.353-32.638,3.149-42.999,8.73
	C133.677,468.949,126,482.82,126,502c0,5.522,4.478,10,10,10h240c5.522,0,10-4.478,10-10c0-19.187-7.68-33.058-22.824-41.229
	c-10.344-5.58-24.082-8.378-42.992-8.731l-0.132-0.132c-6.61-6.609-11.977-23.931-13.568-38.05C399.423,390.853,466,306.486,466,210
	z M256,420c10.342,0,20.674-0.768,30.845-2.27c1.401,10.804,4.57,23.67,9.638,34.27h-80.966c5.068-10.601,8.238-23.466,9.638-34.27
	C235.326,419.232,245.658,420,256,420z M364.794,492H147.226c2.172-7.762,6.862-11.345,11.087-13.626
	C166.274,474.085,178.603,472,196,472h120C349.23,472,361.303,479.689,364.794,492z M294.015,396.179
	c-0.019,0.004-0.037,0.007-0.056,0.011c-24.788,5.056-51.127,5.057-75.922-0.001c-0.017-0.004-0.035-0.007-0.052-0.01
	C129.918,378.227,66,299.929,66,210c0-104.767,85.233-190,190-190s190,85.233,190,190C446,299.929,382.082,378.227,294.015,396.179z
	"/>
<path d="M389.606,104.994c-23.072-29.303-55.544-50.505-91.434-59.701c-5.355-1.374-10.799,1.855-12.17,7.205
	c-1.37,5.35,1.855,10.798,7.205,12.169c31.66,8.112,60.314,26.828,80.686,52.7c3.426,4.352,9.716,5.077,14.043,1.67
	C392.275,115.621,393.023,109.333,389.606,104.994z"/>
<path d="M256,100c-60.654,0-110,49.346-110,110s49.346,110,110,110s110-49.346,110-110S316.654,100,256,100z M256,300
	c-49.626,0-90-40.374-90-90s40.374-90,90-90s90,40.374,90,90S305.626,300,256,300z"/>
<path d="M256,140c-38.598,0-70,31.402-70,70s31.402,70,70,70s70-31.402,70-70S294.598,140,256,140z M256,260
	c-27.57,0-50-22.43-50-50s22.43-50,50-50s50,22.43,50,50S283.57,260,256,260z"/>
<g>
</g>
<g>
</g>
<g>
</g>
<g>
</g>
<g>
</g>
<g>
</g>
<g>
</g>
<g>
</g>
<g>
</g>
<g>
</g>
<g>
</g>
<g>
</g>
<g>
</g>
<g>
</g>
<g>
</g>
</svg>
