<?xml version="1.0" encoding="iso-8859-1"?>
<!-- Generator: Adobe Illustrator 19.0.0, SVG Export Plug-In . SVG Version: 6.00 Build 0)  -->
<svg version="1.1" id="Capa_1" xmlns="http://www.w3.org/2000/svg" xmlns:xlink="http://www.w3.org/1999/xlink" x="0px" y="0px"
	 viewBox="0 0 512 512" style="enable-background:new 0 0 512 512;" xml:space="preserve">
<path style="fill:#FFFFFF;" d="M482,50v280c-12.752,0-439.255,0-452,0V50C37.943,50,471.506,50,482,50z"/>
<circle style="fill:#4D5578;" cx="256" cy="472" r="30"/>
<path style="fill:#FFDD78;" d="M256,190h-80v-80C220.18,110,256,145.82,256,190z"/>
<path style="fill:#FF5249;" d="M176,190h80c0,44.18-35.82,80-80,80s-80-35.82-80-80s35.82-80,80-80V190z"/>
<path d="M316,140c5.52,0,10-4.48,10-10c0-5.52-4.48-10-10-10s-10,4.48-10,10C306,135.52,310.48,140,316,140z"/>
<path d="M10,320c-5.522,0-10,4.477-10,10s4.478,10,10,10h236v93.266c-17.233,4.452-30,20.13-30,38.734c0,22.056,17.944,40,40,40
	s40-17.944,40-40c0-18.604-12.767-34.282-30-38.734V340h236c5.522,0,10-4.477,10-10s-4.478-10-10-10h-10V60h10
	c5.522,0,10-4.477,10-10s-4.478-10-10-10H386V30c0-16.542-13.458-30-30-30H156c-16.542,0-30,13.458-30,30v10H10
	C4.478,40,0,44.477,0,50s4.478,10,10,10h10v260H10z M276,472c0,11.028-8.972,20-20,20s-20-8.972-20-20s8.972-20,20-20
	C267.028,452,276,460.972,276,472z M146,30c0-5.514,4.486-10,10-10h200c5.514,0,10,4.486,10,10v10H146V30z M40,60h432v260H40V60z"/>
<path d="M176,100c-49.626,0-90,40.374-90,90s40.374,90,90,90s90-40.374,90-90S225.626,100,176,100z M245.274,180H186v-59.274
	C216.608,125.125,240.875,149.391,245.274,180z M176,260c-38.598,0-70-31.402-70-70c0-35.202,26.124-64.406,60-69.274V190
	c0,5.523,4.478,9.9,10,9.9h69.274C240.406,233.777,211.202,260,176,260z"/>
<path d="M356,140h66c5.522,0,10-4.477,10-10s-4.478-10-10-10h-66c-5.522,0-10,4.477-10,10C346,135.523,350.478,140,356,140z"/>
<path d="M316,200h106c5.522,0,10-4.477,10-10s-4.478-10-10-10H316c-5.522,0-10,4.477-10,10S310.478,200,316,200z"/>
<path d="M316,260h106c5.522,0,10-4.477,10-10s-4.478-10-10-10H316c-5.522,0-10,4.477-10,10S310.478,260,316,260z"/>
<g>
</g>
<g>
</g>
<g>
</g>
<g>
</g>
<g>
</g>
<g>
</g>
<g>
</g>
<g>
</g>
<g>
</g>
<g>
</g>
<g>
</g>
<g>
</g>
<g>
</g>
<g>
</g>
<g>
</g>
</svg>
