<?xml version="1.0" encoding="iso-8859-1"?>
<!-- Generator: Adobe Illustrator 19.0.0, SVG Export Plug-In . SVG Version: 6.00 Build 0)  -->
<svg version="1.1" id="Capa_1" xmlns="http://www.w3.org/2000/svg" xmlns:xlink="http://www.w3.org/1999/xlink" x="0px" y="0px"
	 viewBox="0 0 511.999 511.999" style="enable-background:new 0 0 511.999 511.999;" xml:space="preserve">
<path style="fill:#FFFFFF;" d="M82.081,316.943l-19.376,21.015c-17.476,22.165-29.543,48.209-35.122,76.083l-4.889,24.475
	l50.789,50.789l24.475-4.899c27.874-5.569,53.918-17.636,76.083-35.112l30.013-22.375L82.081,316.943z"/>
<path style="fill:#4D5578;" d="M490.27,78.276l-56.548-56.547c-15.627-15.627-40.941-15.627-56.557,0l-56.557,56.547
	c184.538,184.562-31.264-31.264,113.115,113.115c0.162-0.162,56.39-56.4,56.548-56.557
	C505.897,119.217,505.897,93.903,490.27,78.276z"/>
<path style="fill:#FF5249;" d="M320.608,78.276C60.424,339.065,74.232,323.286,62.706,337.959c0.72,6.539,3.589,12.887,8.598,17.896
	c11.717,11.717,30.703,11.717,42.421,0c-11.717,11.717-11.717,30.703,0,42.421c11.717,11.717,30.703,11.717,42.421,0
	c-11.717,11.717-11.717,30.703,0,42.421c5.009,5.009,11.357,7.878,17.896,8.598c14.669-11.522-1.671,2.844,259.682-257.903
	C249.161,6.852,464.987,222.655,320.608,78.276z"/>
<polygon style="fill:#4D5578;" points="73.483,489.305 9.997,502.002 22.694,438.516 "/>
<path d="M370.097,71.208c-3.909,3.909-3.909,10.238,0,14.147c3.899,3.899,10.228,3.899,14.137,0c3.899-3.909,3.899-10.238,0-14.147
	C380.325,67.309,373.996,67.309,370.097,71.208z"/>
<path d="M440.792,14.66c-19.534-19.535-51.155-19.557-70.695-0.001c0,0-302.975,301.517-315.179,317.031
	c-0.007,0.009-0.015,0.018-0.022,0.027c-0.013,0.017-0.028,0.034-0.041,0.051c-18.413,23.352-31.232,51.124-37.076,80.315
	L0.194,500.041c-0.656,3.277,0.37,6.667,2.733,9.03c2.372,2.37,5.767,3.388,9.03,2.733c10.028-2.006,77.073-15.418,87.958-17.595
	c29.182-5.831,56.954-18.647,80.301-37.055c15.547-12.212,292.475-290.6,317.119-315.25c19.548-19.534,19.551-51.151,0.003-70.699
	L440.792,14.66z M320.607,92.415l21.206,21.209l-235.159,235.16c-7.796,7.796-20.485,7.797-28.282,0
	c-2.33-2.33-3.996-5.115-4.943-8.181C82.376,329.845,71.916,341.459,320.607,92.415z M149.075,391.205
	c-7.797,7.798-20.483,7.797-28.281,0c-3.779-3.779-5.861-8.801-5.861-14.141s2.082-10.362,5.861-14.141L355.95,127.767
	l28.282,28.282L149.075,391.205z M28.832,458.793l24.371,24.37l-30.461,6.094L28.832,458.793z M95.995,474.602l-19.228,3.846
	l-43.223-43.222l3.843-19.223c4.076-20.366,11.964-39.951,23.045-57.499c1.156,1.558,2.42,3.039,3.801,4.42
	c8.064,8.064,19.16,12.332,30.792,11.606c-0.725,11.668,3.508,22.694,11.629,30.814c8.107,8.107,19.229,12.334,30.815,11.605
	c-0.697,11.07,3.165,22.374,11.605,30.815c1.381,1.381,2.862,2.645,4.42,3.802C135.942,462.65,116.358,470.534,95.995,474.602z
	 M182.848,428.127c-3.661,3.661-7.498,7.155-11.451,10.443c-3.066-0.948-5.852-2.613-8.182-4.944
	c-7.797-7.797-7.797-20.483,0-28.281l235.158-235.158l21.21,21.205L182.848,428.127z M483.2,127.765l-21.204,21.211L412.509,99.49
	c-3.905-3.904-10.234-3.904-14.14,0c-3.904,3.904-3.904,10.235,0,14.14l49.488,49.488l-14.136,14.136l-28.276-28.269
	c-0.002-0.002-0.003-0.003-0.005-0.005l-70.693-70.702l49.49-49.481c11.718-11.726,30.683-11.729,42.416,0.003l56.548,56.546
	C494.928,97.073,494.936,116.037,483.2,127.765z"/>
<path d="M228.049,511.9c5.521,0,9.998-4.477,9.998-9.998s-4.477-9.998-9.998-9.998h-59.987c-5.521,0-9.998,4.477-9.998,9.998
	s4.477,9.998,9.998,9.998H228.049z"/>
<path d="M348.022,511.9c5.521,0,9.998-4.477,9.998-9.998s-4.477-9.998-9.998-9.998h-59.987c-5.521,0-9.998,4.477-9.998,9.998
	s4.477,9.998,9.998,9.998H348.022z"/>
<path d="M467.995,511.9c5.521,0,9.998-4.477,9.998-9.998s-4.477-9.998-9.998-9.998h-59.987c-5.521,0-9.998,4.477-9.998,9.998
	s4.477,9.998,9.998,9.998H467.995z"/>
<g>
</g>
<g>
</g>
<g>
</g>
<g>
</g>
<g>
</g>
<g>
</g>
<g>
</g>
<g>
</g>
<g>
</g>
<g>
</g>
<g>
</g>
<g>
</g>
<g>
</g>
<g>
</g>
<g>
</g>
</svg>
