<?xml version="1.0" encoding="iso-8859-1"?>
<!-- Generator: Adobe Illustrator 19.0.0, SVG Export Plug-In . SVG Version: 6.00 Build 0)  -->
<svg version="1.1" id="Capa_1" xmlns="http://www.w3.org/2000/svg" xmlns:xlink="http://www.w3.org/1999/xlink" x="0px" y="0px"
	 viewBox="0 0 512 512" style="enable-background:new 0 0 512 512;" xml:space="preserve">
<path style="fill:#FFFFFF;" d="M256,156c-55.136,0-100,44.675-100,100c0,32.065,15.163,61.349,40,80h120
	c24.817-18.636,40-47.904,40-80C356,200.656,311.117,156,256,156z"/>
<path style="fill:#FF5249;" d="M256,276c33.14,0,60,26.86,60,60c-16.71,12.56-37.48,20-60,20c-22.51,0-43.29-7.44-60-20
	C196,302.86,222.86,276,256,276z"/>
<g>
	<path style="fill:#7BD8E8;" d="M469.85,136c8.28,14.35,3.36,32.7-10.98,40.98c-14.377,8.298-32.726,3.329-40.99-10.98
		c-8.337-14.45-3.261-32.772,10.99-40.98C443.21,116.73,461.56,121.65,469.85,136z"/>
	<path style="fill:#7BD8E8;" d="M458.87,335.02c14.34,8.28,19.26,26.63,10.98,40.98c-8.29,14.35-26.64,19.26-40.98,10.98
		c-14.241-8.202-19.332-26.52-10.99-40.98C426.141,331.721,444.438,326.69,458.87,335.02z"/>
</g>
<circle style="fill:#FF5249;" cx="256" cy="236" r="40"/>
<g>
	<path style="fill:#7BD8E8;" d="M286,40c0,16.447-13.325,30-30,30c-16.648,0-30-13.523-30-30c0-16.57,13.43-30,30-30
		S286,23.43,286,40z"/>
	<path style="fill:#7BD8E8;" d="M286,472c0,16.57-13.43,30-30,30s-30-13.43-30-30c0-16.447,13.325-30,30-30
		C272.648,442,286,455.523,286,472z"/>
	<path style="fill:#7BD8E8;" d="M94.12,166c-8.268,14.317-26.622,19.273-40.99,10.98C38.79,168.7,33.87,150.35,42.15,136
		c8.29-14.35,26.64-19.27,40.98-10.98C97.371,133.222,102.462,151.54,94.12,166z"/>
	<path style="fill:#7BD8E8;" d="M94.12,346c8.337,14.45,3.261,32.772-10.99,40.98c-14.34,8.28-32.69,3.37-40.98-10.98
		c-8.28-14.35-3.36-32.7,10.98-40.98C67.586,326.677,85.873,331.745,94.12,346z"/>
</g>
<path d="M423.87,395.641c19.173,11.069,43.65,4.382,54.642-14.643c11.021-19.102,4.454-43.612-14.644-54.64
	c-3.145-1.815-6.513-3.178-9.998-4.081V189.721c3.483-0.901,6.852-2.264,10-4.08c19.095-11.026,25.663-35.537,14.638-54.643
	c-11.068-19.16-35.523-25.688-54.63-14.644c-3.113,1.793-5.954,3.999-8.462,6.535L294.498,50.814C295.482,47.311,296,43.673,296,40
	c0-22.056-17.944-40-40-40s-40,17.944-40,40c0,3.673,0.518,7.311,1.502,10.814L96.584,122.89c-2.506-2.535-5.344-4.739-8.45-6.527
	c-19.133-11.062-43.579-4.516-54.646,14.64c-11.021,19.102-4.454,43.612,14.644,54.64c3.147,1.816,6.515,3.178,9.998,4.079v132.557
	c-3.485,0.903-6.854,2.266-10,4.082c-19.095,11.026-25.663,35.537-14.638,54.643c11.031,19.096,35.543,25.666,54.63,14.644
	c3.113-1.793,5.954-3.999,8.462-6.535l120.918,72.076c-0.984,3.5-1.502,7.138-1.502,10.811c0,22.056,17.944,40,40,40
	s40-17.944,40-40c0-3.673-0.518-7.311-1.502-10.814l120.918-72.076C417.923,391.646,420.762,393.851,423.87,395.641z M266,433.291
	V365.54c33.312-2.976,62.119-20.823,80.049-46.384l59.199,31.457c-1.854,6.937-1.805,14.274,0.129,21.198L284.437,443.9
	C279.363,438.776,272.979,435.105,266,433.291z M227.56,443.898l-120.937-72.087c1.932-6.922,1.982-14.258,0.127-21.198l59.2-31.457
	c17.911,25.535,46.703,43.405,80.049,46.384v67.751C239.017,435.105,232.632,438.777,227.56,443.898z M78.13,189.704
	c7.123-1.851,13.62-5.637,18.743-10.917l59.102,31.404C149.43,224.493,146,240.138,146,256c0,15.861,3.429,31.506,9.975,45.808
	l-59.104,31.406c-5.125-5.282-11.62-9.072-18.741-10.925C78.13,322.289,78.13,189.704,78.13,189.704z M246,78.709v67.762
	c-32.085,2.954-61.495,19.984-80.055,46.37l-59.194-31.454c1.854-6.937,1.805-14.274-0.129-21.198L227.563,68.1
	C232.637,73.224,239.021,76.895,246,78.709z M284.44,68.102l120.937,72.087c-1.933,6.923-1.983,14.26-0.128,21.198l-59.194,31.454
	c-18.56-26.386-47.97-43.416-80.055-46.37V78.709C272.983,76.895,279.368,73.223,284.44,68.102z M433.87,322.288
	c-7.118,1.853-13.613,5.643-18.74,10.927l-59.105-31.406C362.57,287.507,366,271.862,366,256s-3.43-31.507-9.975-45.808
	l59.101-31.404c5.124,5.281,11.621,9.068,18.743,10.918L433.87,322.288L433.87,322.288z M256,346
	c-17.916,0-35.002-5.183-49.749-15.01C208.773,305.763,230.121,286,256,286s47.227,19.763,49.749,44.99
	C291.004,340.817,273.917,346,256,346z M226,236c0-16.542,13.458-30,30-30s30,13.458,30,30s-13.458,30-30,30S226,252.542,226,236z
	 M323.076,316.009c-5.436-18.205-18.091-33.316-34.634-42.008C299.176,264.823,306,251.197,306,236c0-27.57-22.43-50-50-50
	s-50,22.43-50,50c0,15.197,6.824,28.823,17.559,38.001c-16.544,8.692-29.198,23.803-34.635,42.008
	C174.073,299.432,166,278.111,166,256c0-50.441,41.138-90,90-90c32.029,0,61.904,17.242,77.965,44.999v-0.001
	C341.838,224.608,346,240.17,346,256C346,278.126,337.919,299.441,323.076,316.009z M461.191,370.998
	c-5.518,9.55-17.773,12.832-27.33,7.317c-9.662-5.565-12.765-17.88-7.326-27.308c5.43-9.385,17.585-12.955,27.334-7.328
	C463.417,349.192,466.701,361.449,461.191,370.998z M433.875,133.677c9.586-5.539,21.797-2.228,27.314,7.321
	c5.512,9.553,2.229,21.81-7.316,27.321c-9.558,5.514-21.81,2.243-27.33-7.316C421.116,151.597,424.161,139.273,433.875,133.677z
	 M256,20c11.028,0,20,8.972,20,20c0,11.105-9.069,20-20,20c-10.913,0-20-8.882-20-20C236,28.972,244.972,20,256,20z M50.809,141.002
	c5.49-9.501,17.677-12.896,27.33-7.317c9.607,5.534,12.798,17.823,7.322,27.314c-5.45,9.437-17.662,12.9-27.33,7.321
	C48.583,162.808,45.299,150.551,50.809,141.002z M78.13,378.32c-9.549,5.514-21.804,2.228-27.318-7.318
	c-5.512-9.553-2.229-21.81,7.316-27.321c9.717-5.606,21.888-2.091,27.33,7.316C90.903,360.436,87.807,372.746,78.13,378.32z
	 M256,492c-11.028,0-20-8.972-20-20c0-11.105,9.069-20,20-20c10.913,0,20,8.882,20,20C276,483.028,267.028,492,256,492z"/>
<g>
</g>
<g>
</g>
<g>
</g>
<g>
</g>
<g>
</g>
<g>
</g>
<g>
</g>
<g>
</g>
<g>
</g>
<g>
</g>
<g>
</g>
<g>
</g>
<g>
</g>
<g>
</g>
<g>
</g>
</svg>
