<?xml version="1.0" encoding="iso-8859-1"?>
<!-- Generator: Adobe Illustrator 19.0.0, SVG Export Plug-In . SVG Version: 6.00 Build 0)  -->
<svg version="1.1" id="Capa_1" xmlns="http://www.w3.org/2000/svg" xmlns:xlink="http://www.w3.org/1999/xlink" x="0px" y="0px"
	 viewBox="0 0 512 512" style="enable-background:new 0 0 512 512;" xml:space="preserve">
<path style="fill:#FF5249;" d="M462,170c-44.808,0-314.055,0-410.31,0c-17.49,0-34.35-10.3-39.63-26.96
	C10.65,138.6,10,134.22,10,130c0,13.963,0,315.404,0,332c0,22.09,17.91,40,40,40h412c11.05,0,20-8.95,20-20
	c0-36.452,0-287.291,0-292C482,178.95,473.05,170,462,170z"/>
<path style="fill:#FFDD78;" d="M502,296v80c0,11.05-8.95,20-20,20h-80c-33.14,0-60-26.86-60-60c0-33.138,26.859-60,60-60h80
	C493.05,276,502,284.95,502,296z"/>
<g>
	<path style="fill:#4D5578;" d="M422,336c0-11.05-8.95-20-20-20s-20,8.95-20,20s8.95,20,20,20S422,347.05,422,336z"/>
	<path style="fill:#4D5578;" d="M442,110v60h-86V90h66C433.05,90,442,98.95,442,110z"/>
</g>
<path style="fill:#4AB5A7;" d="M236,170V10h120c0,4.514,0,155.488,0,160C348.915,170,242.595,170,236,170z"/>
<rect x="176" y="10" style="fill:#4D5578;" width="60" height="160"/>
<path style="fill:#4AB5A7;" d="M176,10v160h-60c0-4.514,0-155.488,0-160H176z"/>
<path style="fill:#4D5578;" d="M116,90v80H51.69c-17.49,0-34.35-10.3-39.63-26.96C10.65,138.6,10,134.22,10,130
	c0-22.1,17.91-40,40-40H116z"/>
<path d="M442,220c5.52,0,10-4.48,10-10s-4.48-10-10-10s-10,4.48-10,10S436.48,220,442,220z"/>
<path d="M442,452c-5.52,0-10,4.48-10,10s4.48,10,10,10s10-4.48,10-10S447.52,452,442,452z"/>
<path d="M492,267.72V190c0-16.542-13.458-30-30-30h-10v-50c0-16.542-13.458-30-30-30h-56V10c0-5.522-4.478-10-10-10H116
	c-5.523,0-10,4.478-10,10v70H50c-27.57,0-50,22.43-50,50v69.008c0,0.006,0,0.011,0,0.017v251.983c0,0.006,0,0.011,0,0.017V462
	c0,27.57,22.43,50,50,50h412c16.542,0,30-13.458,30-30v-77.72c11.639-4.128,20-15.243,20-28.28v-80
	C512,282.964,503.639,271.848,492,267.72z M422,100c5.514,0,10,4.486,10,10v50h-66v-60H422z M346,160h-20v-30
	c0-5.522-4.478-10-10-10s-10,4.478-10,10v30h-60V20h100V160z M186,160V20h40v140H186z M126,20h40v140h-40V20z M50,100h56v60H51.69
	c-13.993,0-26.369-8.217-30.099-19.986C20.535,136.688,20,133.32,20,130C20,113.458,33.458,100,50,100z M462,492H50
	c-14.919,0-27.324-10.948-29.617-25.23c9.959,3.437,20.552,5.23,31.307,5.23H102c5.523,0,10-4.478,10-10s-4.477-10-10-10H51.69
	c-11.082,0-21.924-2.384-31.69-6.917V214.637C30.07,218.161,40.798,220,51.69,220H102c5.523,0,10-4.478,10-10s-4.477-10-10-10H51.69
	c-11.082,0-21.924-2.384-31.69-6.917v-23.28C28.844,176.226,39.941,180,51.69,180H116h240h86h20c5.514,0,10,4.486,10,10v76h-70
	c-18.691,0-36.27,7.279-49.504,20.502C339.279,299.73,332,317.309,332,336c0,38.598,31.402,70,70,70h70v76
	C472,487.514,467.514,492,462,492z M492,376c0,5.514-4.486,10-10,10h-80c-27.57,0-50-22.43-50-50
	c0-13.352,5.201-25.91,14.639-35.355C376.09,291.201,388.648,286,402,286h80c5.514,0,10,4.486,10,10V376z"/>
<path d="M402,306c-16.542,0-30,13.458-30,30s13.458,30,30,30s30-13.458,30-30S418.542,306,402,306z M402,346
	c-5.514,0-10-4.486-10-10s4.486-10,10-10s10,4.486,10,10S407.514,346,402,346z"/>
<path d="M316,100c5.522,0,10-4.478,10-10V50c0-5.522-4.478-10-10-10s-10,4.478-10,10v40C306,95.522,310.478,100,316,100z"/>
<path d="M202,452h-60c-5.523,0-10,4.478-10,10s4.477,10,10,10h60c5.523,0,10-4.478,10-10S207.523,452,202,452z"/>
<path d="M302,452h-60c-5.523,0-10,4.478-10,10s4.477,10,10,10h60c5.522,0,10-4.478,10-10S307.522,452,302,452z"/>
<path d="M402,452h-60c-5.522,0-10,4.478-10,10s4.478,10,10,10h60c5.522,0,10-4.478,10-10S407.522,452,402,452z"/>
<path d="M202,200h-60c-5.523,0-10,4.478-10,10s4.477,10,10,10h60c5.523,0,10-4.478,10-10S207.523,200,202,200z"/>
<path d="M302,200h-60c-5.523,0-10,4.478-10,10s4.477,10,10,10h60c5.522,0,10-4.478,10-10S307.522,200,302,200z"/>
<path d="M342,220h60c5.522,0,10-4.478,10-10s-4.478-10-10-10h-60c-5.522,0-10,4.478-10,10S336.478,220,342,220z"/>
<g>
</g>
<g>
</g>
<g>
</g>
<g>
</g>
<g>
</g>
<g>
</g>
<g>
</g>
<g>
</g>
<g>
</g>
<g>
</g>
<g>
</g>
<g>
</g>
<g>
</g>
<g>
</g>
<g>
</g>
</svg>
