<?xml version="1.0" encoding="iso-8859-1"?>
<!-- Generator: Adobe Illustrator 19.0.0, SVG Export Plug-In . SVG Version: 6.00 Build 0)  -->
<svg version="1.1" id="Capa_1" xmlns="http://www.w3.org/2000/svg" xmlns:xlink="http://www.w3.org/1999/xlink" x="0px" y="0px"
	 viewBox="0 0 512.001 512.001" style="enable-background:new 0 0 512.001 512.001;" xml:space="preserve">
<path style="fill:#FFDD78;" d="M316,45.997H30c-11.05,0-20,8.95-20,20v160c0,11.05,8.95,20,20,20h40v60l60-60h46l160-120v-60
	C336,54.947,327.05,45.997,316,45.997z"/>
<path style="fill:#FFFFFF;" d="M502,145.997v240c0,11.05-8.95,20-20,20h-46v60l-63.33-60H196c-11.05,0-20-8.95-20-20
	c0-44.887,0-194.644,0-240c0-11.05,8.95-20,20-20c33.784,0,256.561,0,286,0C493.05,125.997,502,134.947,502,145.997z"/>
<g>
	<path style="fill:#FF5249;" d="M396,325.997v20H276v-20c0-33.14,26.86-60,60-60S396,292.857,396,325.997z"/>
	<circle style="fill:#FF5249;" cx="336" cy="226" r="40"/>
</g>
<path d="M70,135.997c5.52,0,10-4.48,10-10c0-5.52-4.48-10-10-10s-10,4.48-10,10C60,131.517,64.48,135.997,70,135.997z"/>
<path d="M482,115.997H346v-50c0-16.542-13.458-30-30-30H30c-16.542,0-30,13.458-30,30v160c0,16.542,13.458,30,30,30h30v50
	c0,4.045,2.437,7.691,6.173,9.239c3.738,1.546,8.038,0.692,10.898-2.168l57.071-57.071H166v130c0,16.542,13.458,30,30,30h172.685
	l60.438,57.26c0.086,0.082,0.179,0.152,0.268,0.23c6.417,5.675,16.61,1.141,16.61-7.49v-50h36c16.542,0,30-13.458,30-30v-240
	C512,129.455,498.542,115.997,482,115.997z M130,235.997c-2.652,0-5.195,1.054-7.071,2.929L80,281.854v-35.857
	c0-5.522-4.478-10-10-10H30c-5.514,0-10-4.486-10-10v-160c0-5.514,4.486-10,10-10h286c5.514,0,10,4.486,10,10v50h-50H110
	c-5.522,0-10,4.478-10,10s4.478,9.9,10,9.9h57.72c-1.11,3.13-1.72,6.494-1.72,10v30.1H70c-5.522,0-10,4.478-10,10s4.478,10,10,10h96
	v40L130,235.997L130,235.997z M492,385.997c0,5.514-4.486,10-10,10h-46c-5.522,0-10,4.478-10,10v36.75l-46.452-44.01
	c-1.857-1.76-4.319-2.74-6.878-2.74H196c-5.514,0-10-4.486-10-10v-240c0-5.514,4.486-10,10-10h80h206c5.514,0,10,4.486,10,10
	V385.997z"/>
<path d="M368.441,263.998C379.176,254.82,386,241.194,386,225.997c0-27.57-22.43-50-50-50s-50,22.43-50,50
	c0,15.198,6.824,28.823,17.559,38.001C281.255,275.716,266,299.102,266,325.997v20c0,5.522,4.478,10,10,10h120
	c5.522,0,10-4.478,10-10v-20C406,299.102,390.745,275.716,368.441,263.998z M306,225.997c0-16.542,13.458-30,30-30s30,13.458,30,30
	s-13.458,30-30,30S306,242.539,306,225.997z M386,335.997H286v-10c0-27.57,22.43-50,50-50s50,22.43,50,50V335.997z"/>
<g>
</g>
<g>
</g>
<g>
</g>
<g>
</g>
<g>
</g>
<g>
</g>
<g>
</g>
<g>
</g>
<g>
</g>
<g>
</g>
<g>
</g>
<g>
</g>
<g>
</g>
<g>
</g>
<g>
</g>
</svg>
