<?xml version="1.0" encoding="iso-8859-1"?>
<!-- Generator: Adobe Illustrator 19.0.0, SVG Export Plug-In . SVG Version: 6.00 Build 0)  -->
<svg version="1.1" id="Capa_1" xmlns="http://www.w3.org/2000/svg" xmlns:xlink="http://www.w3.org/1999/xlink" x="0px" y="0px"
	 viewBox="0 0 512 512" style="enable-background:new 0 0 512 512;" xml:space="preserve">
<path style="fill:#4D5578;" d="M408.43,248.43C419.28,237.57,426,222.57,426,206h-60v-96c16.57,0,31.57-6.72,42.43-17.57
	C419.28,81.57,426,66.57,426,50h-60V30c0-11.05-8.95-20-20-20H166c-11.05,0-20,8.95-20,20v20H86c0,33.14,26.86,60,60,60v96H86
	c0,33.14,26.86,60,60,60v96H86c0,33.14,26.86,60,60,60v60c0,11.05,8.95,20,20,20h180c11.05,0,20-8.95,20-20v-60
	c16.57,0,31.57-6.72,42.43-17.57C419.28,393.57,426,378.57,426,362h-60v-96C382.57,266,397.57,259.28,408.43,248.43z"/>
<g>
	<path style="fill:#FFFFFF;" d="M256,50c-27.61,0-50,22.39-50,50c0,7.11,1.48,13.87,4.16,19.99h91.68
		c2.68-6.12,4.16-12.88,4.16-19.99C306,72.39,283.61,50,256,50z"/>
	<path style="fill:#FFFFFF;" d="M256,206c-27.61,0-50,22.39-50,50c0,7.11,1.48,13.87,4.16,19.99h91.68
		c2.68-6.12,4.16-12.88,4.16-19.99C306,228.39,283.61,206,256,206z"/>
	<path style="fill:#FFFFFF;" d="M256,362c-27.61,0-50,22.39-50,50c0,7.11,1.48,13.87,4.16,19.99h91.68
		c2.68-6.12,4.16-12.88,4.16-19.99C306,384.39,283.61,362,256,362z"/>
</g>
<path style="fill:#FF5249;" d="M301.84,119.99C294.12,137.65,276.5,150,256,150s-38.12-12.35-45.84-30.01
	C217.89,102.34,235.5,90,256,90S294.11,102.34,301.84,119.99z"/>
<path style="fill:#FFDD78;" d="M301.84,275.99C294.12,293.65,276.5,306,256,306s-38.12-12.35-45.84-30.01
	C217.89,258.34,235.5,246,256,246S294.11,258.34,301.84,275.99z"/>
<path style="fill:#4AB5A7;" d="M301.84,431.99C294.12,449.65,276.5,462,256,462s-38.12-12.35-45.84-30.01
	C217.89,414.34,235.5,402,256,402S294.11,414.34,301.84,431.99z"/>
<path d="M256,196c-33.084,0-60,26.916-60,60c0,32.877,26.622,60,60,60c33.041,0,60-26.825,60-60C316,222.916,289.084,196,256,196z
	 M256,216c20.357,0,37.199,15.291,39.675,34.988C284.918,241.516,270.899,236,256,236s-28.918,5.516-39.675,14.988
	C218.801,231.291,235.643,216,256,216z M256,296c-14.388,0-27.522-7.733-34.62-20.006C228.485,263.727,241.618,256,256,256
	c14.381,0,27.516,7.727,34.62,19.993C283.522,288.267,270.389,296,256,296z"/>
<path d="M316,412c0-33.084-26.916-60-60-60s-60,26.916-60,60c0,32.877,26.622,60,60,60C289.041,472,316,445.175,316,412z M256,372
	c20.357,0,37.199,15.291,39.675,34.988C284.918,397.516,270.899,392,256,392s-28.918,5.516-39.675,14.988
	C218.801,387.291,235.643,372,256,372z M256,452c-14.388,0-27.522-7.733-34.62-20.006C228.485,419.727,241.618,412,256,412
	c14.381,0,27.516,7.727,34.62,19.993C283.522,444.267,270.389,452,256,452z"/>
<path d="M256,40c-33.084,0-60,26.916-60,60c0,32.877,26.622,60,60,60c33.041,0,60-26.825,60-60C316,66.916,289.084,40,256,40z
	 M256,60c20.357,0,37.199,15.291,39.675,34.988C284.918,85.516,270.899,80,256,80s-28.918,5.516-39.675,14.988
	C218.801,75.291,235.643,60,256,60z M256,140c-14.388,0-27.522-7.733-34.62-20.006C228.485,107.727,241.618,100,256,100
	c14.381,0,27.516,7.727,34.62,19.993C283.522,132.267,270.389,140,256,140z"/>
<path d="M436,50c0-5.522-4.478-10-10-10h-50V30c0-16.542-13.458-30-30-30H166c-16.542,0-30,13.458-30,30v10H86
	c-5.522,0-10,4.478-10,10c0,35.202,26.124,64.406,60,69.274V196H86c-5.522,0-10,4.478-10,10c0,35.202,26.124,64.406,60,69.274V352
	H86c-5.522,0-10,4.478-10,10c0,35.202,26.124,64.406,60,69.274V482c0,16.542,13.458,30,30,30h180c16.542,0,30-13.458,30-30v-50.713
	c33.609-4.78,60-33.674,60-69.287c0-5.522-4.478-10-10-10h-50v-76.713c33.609-4.78,60-33.674,60-69.287c0-5.522-4.478-10-10-10h-50
	v-76.713C409.609,114.507,436,85.613,436,50z M376,99.006V59.9h39.006C411.013,79.67,395.539,95.059,376,99.006z M97.005,60H136
	v38.995C116.438,95.008,100.992,79.562,97.005,60z M97.005,216H136v38.995C116.438,251.008,100.992,235.562,97.005,216z M97.005,372
	H136v38.995C116.438,407.008,100.992,391.562,97.005,372z M356,482c0,5.514-4.486,10-10,10H166c-5.514,0-10-4.486-10-10
	c0-64.549,0-386.13,0-452c0-5.514,4.486-10,10-10h180c5.514,0,10,4.486,10,10C356,125.211,356,387.848,356,482z M376,411.006V371.9
	h39.006C411.013,391.67,395.539,407.059,376,411.006z M376,255.006V215.9h39.006C411.013,235.67,395.539,251.059,376,255.006z"/>
<g>
</g>
<g>
</g>
<g>
</g>
<g>
</g>
<g>
</g>
<g>
</g>
<g>
</g>
<g>
</g>
<g>
</g>
<g>
</g>
<g>
</g>
<g>
</g>
<g>
</g>
<g>
</g>
<g>
</g>
</svg>
