<?xml version="1.0" encoding="iso-8859-1"?>
<!-- Generator: Adobe Illustrator 19.0.0, SVG Export Plug-In . SVG Version: 6.00 Build 0)  -->
<svg version="1.1" id="Capa_1" xmlns="http://www.w3.org/2000/svg" xmlns:xlink="http://www.w3.org/1999/xlink" x="0px" y="0px"
	 viewBox="0 0 512 512" style="enable-background:new 0 0 512 512;" xml:space="preserve">
<path style="fill:#4AB5A7;" d="M436,376c-23.43,23.43-36.57,36.57-60,60c-6.607,0-229.535,0-240,0c-23.43-23.43-36.57-36.57-60-60
	c0-10.481,0-233.399,0-240c23.43-23.43,36.57-36.57,60-60c6.607,0,229.535,0,240,0c23.43,23.43,36.57,36.57,60,60
	C436,142.607,436,365.535,436,376z"/>
<path style="fill:#4D5578;" d="M376,160.85v190.3L351.15,376h-190.3L136,351.15v-190.3L160.85,136h190.3L376,160.85z"/>
<path d="M316,266c-5.52,0-10,4.48-10,10s4.48,10,10,10s10-4.48,10-10S321.52,266,316,266z"/>
<path d="M196,246c5.52,0,10-4.48,10-10s-4.48-10-10-10s-10,4.48-10,10S190.48,246,196,246z"/>
<path d="M502,146c5.522,0,10-4.478,10-10s-4.478-10-10-10h-61.857L386,71.857V10c0-5.522-4.478-10-10-10s-10,4.478-10,10v56h-60V10
	c0-5.522-4.478-10-10-10s-10,4.478-10,10v56h-60V10c0-5.522-4.478-10-10-10s-10,4.478-10,10v56h-60V10c0-5.522-4.478-10-10-10
	s-10,4.478-10,10v61.857L71.857,126H10c-5.522,0-10,4.478-10,10s4.478,10,10,10h56v60H10c-5.522,0-10,4.478-10,10s4.478,10,10,10h56
	v60H10c-5.522,0-10,4.478-10,10s4.478,10,10,10h56v60H10c-5.522,0-10,4.478-10,10s4.478,10,10,10h61.857L126,440.143V502
	c0,5.522,4.478,10,10,10s10-4.478,10-10v-56h60v56c0,5.522,4.478,10,10,10s10-4.478,10-10v-56h60v56c0,5.522,4.478,10,10,10
	s10-4.478,10-10v-56h60v56c0,5.522,4.478,10,10,10s10-4.478,10-10v-61.857L440.143,386H502c5.522,0,10-4.478,10-10s-4.478-10-10-10
	h-56v-60h56c5.522,0,10-4.478,10-10s-4.478-10-10-10h-56v-60h56c5.522,0,10-4.478,10-10s-4.478-10-10-10h-56v-60H502z M86,140.143
	L140.143,86h231.715L426,140.143v231.715L371.857,426H140.143L86,371.857V140.143z"/>
<path d="M160.85,386h190.3c2.652,0,5.195-1.054,7.071-2.929l24.85-24.85c1.875-1.876,2.929-4.419,2.929-7.071v-190.3
	c0-2.652-1.054-5.195-2.929-7.071l-24.85-24.85c-1.876-1.875-4.419-2.929-7.071-2.929h-190.3c-2.652,0-5.195,1.054-7.071,2.929
	l-24.85,24.85c-1.875,1.876-2.929,4.419-2.929,7.071v190.3c0,2.652,1.054,5.195,2.929,7.071l24.85,24.85
	C155.654,384.946,158.197,386,160.85,386z M146,164.992L164.992,146h182.016L366,164.992v182.016L347.008,366H164.992L146,347.008
	V164.992z"/>
<path d="M196,206h110v30c0,5.522,4.478,10,10,10s10-4.478,10-10v-40c0-5.522-4.478-10-10-10H196c-5.522,0-10,4.478-10,10
	S190.478,206,196,206z"/>
<path d="M196,326h120c5.522,0,10-4.478,10-10s-4.478-10-10-10H206v-30c0-5.522-4.478-10-10-10s-10,4.478-10,10v40
	C186,321.522,190.478,326,196,326z"/>
<g>
</g>
<g>
</g>
<g>
</g>
<g>
</g>
<g>
</g>
<g>
</g>
<g>
</g>
<g>
</g>
<g>
</g>
<g>
</g>
<g>
</g>
<g>
</g>
<g>
</g>
<g>
</g>
<g>
</g>
</svg>
