<?xml version="1.0" encoding="iso-8859-1"?>
<!-- Generator: Adobe Illustrator 19.0.0, SVG Export Plug-In . SVG Version: 6.00 Build 0)  -->
<svg version="1.1" id="Capa_1" xmlns="http://www.w3.org/2000/svg" xmlns:xlink="http://www.w3.org/1999/xlink" x="0px" y="0px"
	 viewBox="0 0 512 512" style="enable-background:new 0 0 512 512;" xml:space="preserve">
<path style="fill:#4D5578;" d="M502,346v40c0,22.09-17.91,40-40,40V306C484.09,306,502,323.91,502,346z"/>
<path style="fill:#7BD8E8;" d="M402,286c13.99,0,26.01,0,40,0c11.05,0,20,8.95,20,20v120c0,11.05-8.95,20-20,20h-40
	c0,11.05-8.95,20-20,20s-20-8.95-20-20V286c0-11.05,8.95-20,20-20S402,274.95,402,286z"/>
<path style="fill:#4D5578;" d="M401.94,106.06l-26.86,26.86C404.06,161.89,422,201.89,422,246v40l40,20v-60
	C462,191.52,438.76,142.12,401.94,106.06z"/>
<g>
	<path style="fill:#7BD8E8;" d="M400.42,104.58c0.51,0.49,1.01,0.98,1.52,1.48c-11.931,11.931-22.08,22.08-27.82,27.82
		c-7.12,7.12-18.35,7.76-26.3,1.58C324.1,117,288.31,106,256,106s-68.1,11-91.82,29.46c-7.95,6.18-19.18,5.54-26.3-1.58l-0.96-0.96
		l-26.86-26.86C147.88,68.99,200.02,46,256,46C311.23,46,362.73,68.38,400.42,104.58z"/>
	<path style="fill:#7BD8E8;" d="M110,286c0-11.05,8.95-20,20-20s20,8.95,20,20v160c0,11.05-8.95,20-20,20s-20-8.95-20-20H70
		c-11.05,0-20-8.95-20-20V306c0-11.05,8.95-20,20-20C83.99,286,96.01,286,110,286z"/>
</g>
<g>
	<path style="fill:#4D5578;" d="M110.06,106.06C73.24,142.12,50,191.52,50,246v60l40-20v-40c0-44.11,17.94-84.11,46.92-113.08
		L110.06,106.06z"/>
	<path style="fill:#4D5578;" d="M50,306v120c-22.09,0-40-17.91-40-40v-40C10,323.91,27.91,306,50,306z"/>
</g>
<path d="M402,356c-5.52,0-10,4.48-10,10s4.48,10,10,10s10-4.48,10-10S407.52,356,402,356z"/>
<path d="M110,356c-5.52,0-10,4.48-10,10s4.48,10,10,10s10-4.48,10-10S115.52,356,110,356z"/>
<path d="M0,386c0,24.661,17.95,45.195,41.468,49.257C45.379,447.281,56.688,456,70,456h31.72c4.128,11.639,15.243,20,28.28,20
	c16.542,0,30-13.458,30-30V286c0-16.542-13.458-30-30-30c-13.036,0-24.152,8.361-28.28,20H100v-30
	c0-37.12,13.459-72.206,38.065-99.729c10.134,5.287,22.799,4.435,32.257-2.919C191.672,126.736,225.303,116,256,116
	s64.328,10.736,85.683,27.354c9.406,7.313,22.063,8.239,32.257,2.921C398.542,173.797,412,208.882,412,246v30h-1.72
	c-4.128-11.639-15.243-20-28.28-20c-16.542,0-30,13.458-30,30v160c0,16.542,13.458,30,30,30c13.036,0,24.152-8.361,28.28-20H442
	c13.312,0,24.621-8.719,28.532-20.743C494.05,431.195,512,410.661,512,386v-40c0-24.146-17.205-44.348-40-48.994V246
	c0-115.887-99.928-210-216-210C141.219,36,40,128.893,40,246v51.006C17.205,301.652,0,321.854,0,346V386z M130,276
	c5.514,0,10,4.486,10,10v160c0,5.514-4.486,10-10,10s-10-4.486-10-10v-40c0-5.522-4.478-10-10-10s-10,4.478-10,10v30H70
	c-5.514,0-10-4.486-10-10V306c0-5.514,4.486-10,10-10h30v30c0,5.522,4.478,10,10,10s10-4.478,10-10v-40
	C120,280.486,124.486,276,130,276z M442,436h-30v-30c0-5.522-4.478-10-10-10s-10,4.478-10,10v40c0,5.514-4.486,10-10,10
	s-10-4.486-10-10V286c0-5.514,4.486-10,10-10s10,4.486,10,10v40c0,5.522,4.478,10,10,10s10-4.478,10-10v-30h30
	c5.514,0,10,4.486,10,10v120C452,431.514,447.514,436,442,436z M492,346v40c0,13.036-8.361,24.152-20,28.28v-96.56
	C483.639,321.848,492,332.964,492,346z M452,277.72c-3.13-1.11-6.494-1.72-10-1.72h-10v-30c0-42.003-15.2-81.704-42.987-112.87
	l12.828-12.828C434.26,155.324,452,199.594,452,246V277.72z M387.537,106.32l-20.489,20.488c-3.563,3.564-9.069,3.883-13.087,0.76
	C328.94,108.096,291.404,96,256,96s-72.94,12.096-97.958,31.565c-4.022,3.127-9.527,2.807-13.091-0.757l-20.492-20.492
	C160.734,74.231,208.117,56,256,56C303.804,56,351.287,74.259,387.537,106.32z M110.159,120.302l12.828,12.828
	C95.2,164.296,80,203.997,80,246v30H70c-3.506,0-6.87,0.61-10,1.72V246C60,199.595,77.74,155.326,110.159,120.302z M20,346
	c0-13.036,8.361-24.152,20-28.28v96.56c-11.639-4.128-20-15.243-20-28.28V346z"/>
<g>
</g>
<g>
</g>
<g>
</g>
<g>
</g>
<g>
</g>
<g>
</g>
<g>
</g>
<g>
</g>
<g>
</g>
<g>
</g>
<g>
</g>
<g>
</g>
<g>
</g>
<g>
</g>
<g>
</g>
</svg>
