<?xml version="1.0" encoding="iso-8859-1"?>
<!-- Generator: Adobe Illustrator 19.0.0, SVG Export Plug-In . SVG Version: 6.00 Build 0)  -->
<svg version="1.1" id="Capa_1" xmlns="http://www.w3.org/2000/svg" xmlns:xlink="http://www.w3.org/1999/xlink" x="0px" y="0px"
	 viewBox="0 0 512 512" style="enable-background:new 0 0 512 512;" xml:space="preserve">
<path style="fill:#FF5249;" d="M482,156c-37.563,0-149.662,0-186,0c0,3.544,0,172.971,0,320h120c11.05,0,20-8.95,20-20V236h66v-60
	C502,164.95,493.05,156,482,156z"/>
<path style="fill:#FFDD78;" d="M256,96c-22.09,0-40,17.91-40,40c0,16.367,0,323.581,0,340h80c0-16.419,0-323.633,0-340
	C296,113.921,278.081,96,256,96z"/>
<path style="fill:#FF5249;" d="M30,156c-11.05,0-20,8.95-20,20v60h66v220c0,11.05,8.95,20,20,20h120c0-176.802,0-311.002,0-320
	C179.664,156,67.563,156,30,156z"/>
<path d="M256,206c5.52,0,10-4.48,10-10s-4.48-10-10-10s-10,4.48-10,10S250.48,206,256,206z"/>
<path d="M482,146h-37.077C457.916,133.284,466,115.572,466,96c0-38.598-31.402-70-70-70c-45.577,0-62.669,35.009-81.933,75.094
	c-3.268,6.799-6.585,13.697-10.127,20.649C297.881,101.286,278.872,86,256,86c-22.627,0-41.781,15.112-47.926,35.771
	c-3.548-6.962-6.869-13.868-10.141-20.677C179.106,61.917,162.041,26,116,26c-38.598,0-70,31.402-70,70
	c0,19.572,8.084,37.284,21.077,50H30c-16.542,0-30,13.458-30,30v60c0,5.522,4.477,10,10,10h56v210c0,16.542,13.458,30,30,30h320
	c16.542,0,30-13.458,30-30V246h56c5.523,0,10-4.478,10-10v-60C512,159.458,498.542,146,482,146z M332.093,109.757
	C352.227,67.862,364.213,46,396,46c27.57,0,50,22.43,50,50s-22.43,50-50,50h-82.355C320.71,133.432,326.662,121.058,332.093,109.757
	z M226,166h60v300h-60V166z M256,106c16.568,0,30,13.429,30,30v10h-60v-10C226,119.458,239.458,106,256,106z M66,96
	c0-27.57,22.43-50,50-50c31.787,0,43.773,21.862,63.907,63.757c5.431,11.301,11.383,23.675,18.448,36.243H116
	C88.43,146,66,123.57,66,96z M20,176c0-5.514,4.486-10,10-10h176v60H20V176z M86,456V246h120v220H96C90.486,466,86,461.514,86,456z
	 M426,456c0,5.514-4.486,10-10,10H306V246h120V456z M492,226H306v-60h176c5.514,0,10,4.486,10,10V226z"/>
<path d="M256,226c-5.523,0-10,4.478-10,10v100c0,5.522,4.477,10,10,10c5.523,0,10-4.478,10-10V236C266,230.478,261.523,226,256,226z
	"/>
<g>
</g>
<g>
</g>
<g>
</g>
<g>
</g>
<g>
</g>
<g>
</g>
<g>
</g>
<g>
</g>
<g>
</g>
<g>
</g>
<g>
</g>
<g>
</g>
<g>
</g>
<g>
</g>
<g>
</g>
</svg>
