<?xml version="1.0" encoding="iso-8859-1"?>
<!-- Generator: Adobe Illustrator 19.0.0, SVG Export Plug-In . SVG Version: 6.00 Build 0)  -->
<svg version="1.1" id="Capa_1" xmlns="http://www.w3.org/2000/svg" xmlns:xlink="http://www.w3.org/1999/xlink" x="0px" y="0px"
	 viewBox="0 0 512 512" style="enable-background:new 0 0 512 512;" xml:space="preserve">
<path style="fill:#FFDD78;" d="M432,182.83h-60c-40.57,5.1-70,20.26-70,38.17v64.22v0.01c-14.19-2.71-29.9-4.23-46-4.23
	s-31.81,1.52-46,4.23v-0.9c0-21.13,0-42.88,0-63.33c0-17.91-29.43-33.07-70-38.17H80c-40.57,5.1-70,20.26-70,38.17
	c0,41.294,0,143.776,0,180c0,22.09,44.77,40,100,40c14.22,0,27.75-1.19,40-3.33V441c0,22.09,50.77,40,106,40s106-17.91,106-40v-3.33
	c12.25,2.14,25.78,3.33,40,3.33c55.23,0,100-17.91,100-40c0-52.964,0-121.16,0-180C502,203.09,472.57,187.93,432,182.83z"/>
<g>
	<path style="fill:#7BD8E8;" d="M402,31l70,80h-40c0,9.871,0,90.316,0,100h-60c0-9.676,0-90.135,0-100h-40L402,31z"/>
	<path style="fill:#7BD8E8;" d="M110,31l70,80h-40c0,9.871,0,90.316,0,100H80c0-9.676,0-90.135,0-100H40L110,31z"/>
</g>
<path d="M256,411c-5.52,0-10,4.48-10,10s4.48,10,10,10c5.52,0,10-4.48,10-10S261.52,411,256,411z"/>
<path d="M442,174.188V121h30c3.924,0,7.485-2.295,9.106-5.868s1.003-7.764-1.581-10.717l-70-80C407.627,22.245,404.884,21,402,21
	s-5.627,1.245-7.525,3.415l-70,80c-2.584,2.953-3.202,7.144-1.581,10.717S328.076,121,332,121h30v53.188
	c-28.14,4.669-70,18.241-70,46.813v52.463c-11.692-1.617-23.936-2.463-36-2.463c-12.065,0-24.311,0.846-36,2.463V221
	c0-28.593-41.916-42.153-70-46.813V121h30c3.924,0,7.485-2.295,9.106-5.868s1.003-7.764-1.581-10.717l-70-80
	C115.627,22.245,112.884,21,110,21s-5.627,1.245-7.526,3.415l-70,80c-2.583,2.953-3.202,7.144-1.581,10.717
	C32.515,118.705,36.076,121,40,121h30v53.188C41.86,178.856,0,192.428,0,221v180c0,15.05,12.634,28.392,35.575,37.568
	C55.616,446.585,82.047,451,110,451c10.737,0,21.235-0.648,31.34-1.925c3.182,9.454,12.87,20.496,37.484,29.589
	C200.046,486.504,228.176,491,256,491s55.954-4.496,77.177-12.336c24.614-9.092,34.302-20.135,37.484-29.589
	C380.765,450.352,391.263,451,402,451c27.953,0,54.385-4.415,74.426-12.432C499.366,429.392,512,416.05,512,401V221
	C512,192.407,470.084,178.847,442,174.188z M492,341c0,5.952-9.029,13.409-23.003,18.999C451.263,367.093,427.47,371,402,371
	c-10.32,0-20.372-0.651-30-1.922v-39.845c9.684,1.166,19.724,1.767,30,1.767c27.953,0,54.385-4.415,74.426-12.432
	c5.884-2.354,11.085-4.984,15.574-7.844V341z M492,281c0,5.952-9.029,13.409-23.003,18.999C451.263,307.093,427.47,311,402,311
	c-11.496,0-22.646-0.801-33.233-2.372c-9.625-17.899-38.343-27.231-56.767-31.504v-26.399c4.489,2.86,9.69,5.49,15.574,7.844
	C347.615,266.585,374.047,271,402,271s54.385-4.415,74.426-12.432c5.884-2.354,11.085-4.984,15.574-7.844V281z M354.038,101
	L402,46.186L449.962,101H432c-5.522,0-10,4.478-10,10v90h-40v-90c0-5.522-4.478-10-10-10H354.038z M362,194.5V211
	c0,5.522,4.478,10,10,10h60c5.522,0,10-4.478,10-10v-16.5c31.164,5.784,50,17.638,50,26.5c0,5.952-9.029,13.409-23.003,18.999
	C451.263,247.093,427.47,251,402,251s-49.263-3.907-66.997-11.001C321.029,234.409,312,226.952,312,221
	C312,212.138,330.836,200.285,362,194.5z M351.879,319.968c0.083,0.342,0.121,0.67,0.121,1.032c0,4.674-7.963,12.331-25.754,18.903
	C307.155,346.955,281.552,351,256,351c-25.551,0-51.155-4.045-70.246-11.097C167.963,333.331,160,325.674,160,321
	c0-0.363,0.039-0.692,0.133-1.085c1.437-6.094,15.424-17.303,47.953-24.103c2.599,0.504,5.157-0.032,7.271-1.378
	C228.287,292.193,242.251,291,256,291C306.609,291,348.763,306.752,351.879,319.968z M143.222,308.63
	C132.638,310.199,121.492,311,110,311c-25.469,0-49.263-3.907-66.997-11.001C29.029,294.409,20,286.952,20,281v-30.276
	c4.489,2.861,9.69,5.49,15.575,7.844C55.616,266.585,82.047,271,110,271s54.384-4.415,74.425-12.432
	c5.885-2.354,11.086-4.984,15.575-7.844v26.399C181.557,281.401,152.819,290.74,143.222,308.63z M20,310.724
	c4.489,2.861,9.69,5.49,15.575,7.844C55.616,326.585,82.047,331,110,331c10.276,0,20.316-0.601,30-1.767v39.845
	c-9.628,1.272-19.68,1.922-30,1.922c-25.469,0-49.263-3.907-66.997-11.001C29.029,354.409,20,346.952,20,341V310.724z M62.038,101
	L110,46.186L157.962,101H140c-5.523,0-10,4.478-10,10v90H90v-90c0-5.522-4.477-10-10-10H62.038z M70,194.5V211
	c0,5.522,4.477,10,10,10h60c5.523,0,10-4.478,10-10v-16.5c31.164,5.784,50,17.638,50,26.5c0,5.952-9.029,13.409-23.003,18.999
	C159.263,247.093,135.469,251,110,251s-49.263-3.907-66.997-11.001C29.029,234.409,20,226.952,20,221
	C20,212.138,38.836,200.285,70,194.5z M43.003,419.999C29.029,414.409,20,406.952,20,401v-30.276
	c4.489,2.861,9.69,5.49,15.575,7.844C55.616,386.585,82.047,391,110,391c10.265,0,20.307-0.601,30-1.769v39.846
	c-9.628,1.272-19.68,1.922-30,1.922C84.531,431,60.737,427.093,43.003,419.999z M326.246,459.903
	C307.155,466.955,281.552,471,256,471c-25.551,0-51.155-4.045-70.246-11.097C167.963,453.331,160,445.674,160,441v-31.97
	c14.454,8.922,34.799,15.097,54.426,18.512c0.58,0.102,1.157,0.15,1.726,0.15c4.771,0,8.994-3.427,9.84-8.287
	c0.947-5.441-2.697-10.62-8.138-11.566C180.603,401.356,160,387.854,160,381v-31.249c5.013,3.088,11.195,6.095,18.824,8.913
	C200.046,366.504,228.176,371,256,371s55.954-4.496,77.177-12.336c7.629-2.818,13.81-5.825,18.823-8.913V381
	c0,6.854-20.603,20.356-57.854,26.839c-5.44,0.946-9.084,6.125-8.137,11.566c0.846,4.86,5.068,8.287,9.84,8.287
	c0.569,0,1.146-0.049,1.727-0.15c19.626-3.415,39.971-9.59,54.425-18.512V441C352,445.674,344.037,453.331,326.246,459.903z
	 M468.997,419.999C451.263,427.093,427.47,431,402,431c-10.32,0-20.372-0.651-30-1.922v-39.846c9.693,1.167,19.735,1.769,30,1.769
	c27.953,0,54.385-4.415,74.426-12.432c5.884-2.354,11.085-4.984,15.574-7.844V401C492,406.952,482.971,414.409,468.997,419.999z"/>
<g>
</g>
<g>
</g>
<g>
</g>
<g>
</g>
<g>
</g>
<g>
</g>
<g>
</g>
<g>
</g>
<g>
</g>
<g>
</g>
<g>
</g>
<g>
</g>
<g>
</g>
<g>
</g>
<g>
</g>
</svg>
