<?xml version="1.0" encoding="iso-8859-1"?>
<!-- Generator: Adobe Illustrator 19.0.0, SVG Export Plug-In . SVG Version: 6.00 Build 0)  -->
<svg version="1.1" id="Capa_1" xmlns="http://www.w3.org/2000/svg" xmlns:xlink="http://www.w3.org/1999/xlink" x="0px" y="0px"
	 viewBox="0 0 512 512" style="enable-background:new 0 0 512 512;" xml:space="preserve">
<path style="fill:#4AB5A7;" d="M482,76H30c-11.05,0-20,8.95-20,20v320c0,11.05,8.95,20,20,20h452c11.05,0,20-8.95,20-20V96
	C502,84.95,493.05,76,482,76z"/>
<rect x="236" y="76" style="fill:#FFFFFF;" width="40" height="360"/>
<path d="M368.93,368.93c-3.91,3.9-3.91,10.24,0,14.14c3.9,3.91,10.24,3.91,14.14,0c3.91-3.9,3.91-10.24,0-14.14
	C379.17,365.02,372.83,365.02,368.93,368.93z"/>
<path d="M482,66c-27.476,0-434.653,0-452,0C13.458,66,0,79.458,0,96c0,54.395,0,235.961,0,320c0,16.542,13.458,30,30,30h452
	c16.542,0,30-13.458,30-30c0-10.866,0-303.626,0-320C512,79.458,498.542,66,482,66z M492,296c0,5.514-4.486,10-10,10h-29.006
	c1.927-9.541,6.608-18.313,13.645-25.355c7.046-7.041,15.819-11.723,25.361-13.65L492,296L492,296z M482,86c5.514,0,10,4.486,10,10
	v28.995c-19.562-3.987-35.008-19.434-38.995-38.995H482z M492,145.274v101.439c-14.899,2.119-28.66,8.955-39.504,19.789
	c-10.829,10.839-17.664,24.599-19.783,39.498H286v-25.138c35.691-12.597,60-46.444,60-84.862s-24.309-72.265-60-84.862V86h146.726
	C437.125,116.608,461.392,140.875,492,145.274z M266,426h-20V326h20V426z M20,266.994c9.541,1.927,18.313,6.608,25.355,13.645
	c7.041,7.046,11.723,15.819,13.65,25.361H30c-5.514,0-10-4.486-10-10V266.994z M20,324.28c3.13,1.11,6.494,1.72,10,1.72
	c3.865,0,190.395,0,196,0v40H30c-5.514,0-10-4.486-10-10V324.28z M246,306V86h20v220H246z M226,259.245
	c-24.072-11.409-40-35.825-40-63.245s15.928-51.837,40-63.245V259.245z M286,132.755c24.072,11.409,40,35.825,40,63.245
	s-15.928,51.837-40,63.245V132.755z M79.287,86H226v25.138c-35.691,12.597-60,46.444-60,84.862s24.309,72.265,60,84.862V306H79.287
	c-2.119-14.899-8.955-28.66-19.789-39.504C48.659,255.667,34.899,248.832,20,246.713V145.287
	c14.899-2.119,28.66-8.955,39.504-19.789C70.333,114.659,77.168,100.899,79.287,86z M20,96c0-5.514,4.486-10,10-10h29.006
	c-1.927,9.541-6.608,18.313-13.645,25.355c-7.046,7.041-15.819,11.723-25.361,13.65V96z M20,416v-31.72
	c3.13,1.11,6.494,1.72,10,1.72h196v40H30C24.486,426,20,421.514,20,416z M482,426H286v-40h50.02c5.522,0,10-4.478,10-10
	s-4.478-10-10-10H286v-40c5.72,0,192.098,0,196,0c3.506,0,6.87-0.61,10-1.72V356c0,5.514-4.486,10-10,10h-66.02
	c-5.522,0-10,4.478-10,10s4.478,10,10,10H482c3.506,0,6.87-0.61,10-1.72V416C492,421.514,487.514,426,482,426z"/>
<path d="M116,226c16.542,0,30-13.458,30-30s-13.458-30-30-30s-30,13.458-30,30S99.458,226,116,226z M116,186c5.514,0,10,4.486,10,10
	s-4.486,10-10,10s-10-4.486-10-10S110.486,186,116,186z"/>
<path d="M396,166c-16.542,0-30,13.458-30,30s13.458,30,30,30s30-13.458,30-30S412.542,166,396,166z M396,206
	c-5.514,0-10-4.486-10-10s4.486-10,10-10s10,4.486,10,10S401.514,206,396,206z"/>
<g>
</g>
<g>
</g>
<g>
</g>
<g>
</g>
<g>
</g>
<g>
</g>
<g>
</g>
<g>
</g>
<g>
</g>
<g>
</g>
<g>
</g>
<g>
</g>
<g>
</g>
<g>
</g>
<g>
</g>
</svg>
