<?xml version="1.0" encoding="iso-8859-1"?>
<!-- Generator: Adobe Illustrator 19.0.0, SVG Export Plug-In . SVG Version: 6.00 Build 0)  -->
<svg version="1.1" id="Capa_1" xmlns="http://www.w3.org/2000/svg" xmlns:xlink="http://www.w3.org/1999/xlink" x="0px" y="0px"
	 viewBox="0 0 512 512" style="enable-background:new 0 0 512 512;" xml:space="preserve">
<path style="fill:#7BD8E8;" d="M416,30v360c0,11.05-8.95,20-20,20c-6.648,0-197.04,0-220,0h-60c-11.05,0-20-8.95-20-20V30
	c0-11.05,8.95-20,20-20h280C407.05,10,416,18.95,416,30z"/>
<path style="fill:#FFFFFF;" d="M376,50v320H136V50H376z"/>
<rect x="176" y="410" style="fill:#4D5578;" width="160" height="92"/>
<polygon style="fill:#FFDD78;" points="313.06,132.92 284.53,160.73 291.27,200 256,181.46 220.73,200 227.47,160.73 198.94,132.92 
	238.37,127.19 256,91.46 273.63,127.19 "/>
<path d="M203.07,277.07c3.91-3.9,3.91-10.24,0-14.14c-3.9-3.91-10.24-3.91-14.14,0c-3.91,3.9-3.91,10.24,0,14.14
	C192.83,280.98,199.17,280.98,203.07,277.07z"/>
<path d="M203.07,317.07c3.91-3.9,3.91-10.24,0-14.14c-3.9-3.91-10.24-3.91-14.14,0c-3.91,3.9-3.91,10.24,0,14.14
	C192.83,320.98,199.17,320.98,203.07,317.07z"/>
<path d="M396,420c16.542,0,30-13.458,30-30V30c0-16.542-13.458-30-30-30H116C99.458,0,86,13.458,86,30v360c0,16.542,13.458,30,30,30
	h50v72h-30c-5.522,0-10,4.478-10,10s4.478,10,10,10c10.723,0,230.174,0,240,0c5.522,0,10-4.478,10-10s-4.478-10-10-10h-30v-72H396z
	 M106,390V30c0-5.514,4.486-10,10-10h280c5.514,0,10,4.486,10,10v360c0,5.514-4.486,10-10,10c-27.175,0-269.429,0-280,0
	C110.486,400,106,395.514,106,390z M186,420h140v72H186V420z"/>
<path d="M386,370V50c0-5.522-4.478-10-10-10H136c-5.522,0-10,4.478-10,10v320c0,5.522,4.478,10,10,10h240
	C381.522,380,386,375.522,386,370z M366,360H146V60h220V360z"/>
<path d="M216.725,164.221l-5.85,34.088c-0.645,3.752,0.897,7.544,3.977,9.781c3.081,2.237,7.164,2.532,10.532,0.762L256,192.758
	l30.616,16.094c3.396,1.785,7.477,1.458,10.532-0.762c3.079-2.237,4.621-6.029,3.977-9.781l-5.85-34.088l24.765-24.14
	c2.726-2.657,3.706-6.632,2.53-10.251c-1.177-3.62-4.306-6.259-8.072-6.807l-34.227-4.973l-15.304-31.016
	c-1.685-3.414-5.161-5.575-8.968-5.575s-7.283,2.161-8.968,5.575l-15.304,31.016l-34.227,4.973
	c-3.767,0.548-6.896,3.187-8.072,6.807c-1.176,3.619-0.195,7.594,2.53,10.251L216.725,164.221z M239.809,137.087
	c3.257-0.474,6.073-2.52,7.529-5.472L256,114.06l8.662,17.556c1.456,2.952,4.272,4.998,7.529,5.472l19.379,2.815l-14.021,13.667
	c-2.356,2.298-3.433,5.608-2.875,8.853l3.312,19.298l-17.333-9.111c-1.457-0.766-3.055-1.148-4.653-1.148s-3.196,0.383-4.653,1.148
	l-17.333,9.111l3.312-19.298c0.558-3.244-0.519-6.555-2.875-8.853l-14.021-13.667L239.809,137.087z"/>
<path d="M236,260c-5.522,0-10,4.478-10,10s4.478,10,10,10h80c5.522,0,10-4.478,10-10s-4.478-10-10-10H236z"/>
<path d="M316,300h-80c-5.522,0-10,4.478-10,10s4.478,10,10,10h80c5.522,0,10-4.478,10-10S321.522,300,316,300z"/>
<g>
</g>
<g>
</g>
<g>
</g>
<g>
</g>
<g>
</g>
<g>
</g>
<g>
</g>
<g>
</g>
<g>
</g>
<g>
</g>
<g>
</g>
<g>
</g>
<g>
</g>
<g>
</g>
<g>
</g>
</svg>
