<?xml version="1.0" encoding="iso-8859-1"?>
<!-- Generator: Adobe Illustrator 19.0.0, SVG Export Plug-In . SVG Version: 6.00 Build 0)  -->
<svg version="1.1" id="Capa_1" xmlns="http://www.w3.org/2000/svg" xmlns:xlink="http://www.w3.org/1999/xlink" x="0px" y="0px"
	 viewBox="0 0 512.001 512.001" style="enable-background:new 0 0 512.001 512.001;" xml:space="preserve">
<path style="fill:#7BD8E8;" d="M317.947,62.836c70.444,70.444,70.624,184.837,0.18,255.281
	c-70.454,70.454-184.847,70.274-255.291-0.17s-70.444-184.667,0-255.111S247.503-7.608,317.947,62.836z"/>
<path style="fill:#FFFFFF;" d="M284.86,113.586l20.004,34.647l-28.316,16.353c2.591,8.382,4.391,17.113,4.391,26.335
	c0,9.222-1.8,17.954-4.391,26.335l28.316,16.353l-20.004,34.647l-28.196-16.283c-12.082,13.013-27.846,22.455-45.739,26.545v32.427
	h-40.008v-32.427c-17.894-4.091-33.657-13.533-45.739-26.545l-28.196,16.283L76.979,233.61l28.316-16.353
	c-2.591-8.382-4.391-17.113-4.391-26.335c0-9.222,1.8-17.954,4.391-26.335l-28.316-16.353l20.004-34.647l28.196,16.283
	c12.082-13.013,27.846-22.455,45.739-26.545V70.897h40.008v32.427c17.894,4.091,33.657,13.533,45.739,26.545L284.86,113.586z
	 M230.929,190.921c0-22.094-17.914-40.008-40.008-40.008s-40.008,17.914-40.008,40.008s17.914,40.008,40.008,40.008
	S230.929,213.016,230.929,190.921z"/>
<path style="fill:#4D5578;" d="M490.262,433.69c15.633,15.623,15.633,40.948,0,56.571c-15.623,15.633-40.948,15.633-56.571,0
	l-97.03-97.02c-7.812-7.812-7.812-20.474,0-28.296c9.893-9.893,18.393-18.393,28.286-28.286c7.822-7.812,20.484-7.812,28.296,0
	L490.262,433.69z"/>
<path d="M380.96,370.958c-5.521,0-10.002,4.481-10.002,10.002c0,5.521,4.481,10.002,10.002,10.002
	c5.521,0,10.002-4.481,10.002-10.002C390.962,375.439,386.481,370.958,380.96,370.958z"/>
<path d="M400.314,329.587c-11.692-11.69-30.728-11.694-42.441,0l-7.069,7.069l-18.72-18.725
	c31.578-35.011,48.833-79.892,48.787-127.466C380.771,85.243,295.716,0,190.392,0C85.166,0,0,85.148,0,190.392
	C0,295.62,85.148,380.772,190.468,380.871c0.063,0,0.124,0,0.187,0c47.505,0,92.317-17.253,127.285-48.793l18.72,18.726
	l-7.075,7.075c-11.69,11.704-11.689,30.741,0.005,42.437l97.026,97.018c19.541,19.553,51.168,19.559,70.717,0.004
	c0.001-0.004,0.003-0.003,0.004-0.004c19.55-19.544,19.554-51.173-0.002-70.714L400.314,329.587z M190.653,360.867
	c-0.053,0-0.113,0-0.167,0c-94.167-0.089-170.482-76.195-170.482-170.474c0-94.171,76.202-170.388,170.388-170.388
	c94.165,0,170.384,76.2,170.475,170.481C360.961,284.64,284.968,360.871,190.653,360.867z M483.191,483.187
	c-0.001,0.001-0.003,0.003-0.004,0.004c-11.723,11.731-30.692,11.737-42.426-0.002l-97.029-97.018c-3.898-3.9-3.897-10.25,0-14.151
	l28.281-28.282c3.898-3.892,10.248-3.91,14.155-0.005l97.022,97.033C494.924,452.489,494.927,471.46,483.191,483.187z"/>
<path d="M416.319,402.163c-3.906-3.906-10.239-3.906-14.146-0.002c-3.906,3.906-3.907,10.239-0.002,14.146l47.73,47.74
	c3.906,3.906,10.237,3.908,14.146,0.002c3.906-3.906,3.907-10.239,0.002-14.146L416.319,402.163z"/>
<path d="M309.866,224.948l-21.626-12.491c1.813-7.559,2.702-14.66,2.702-21.536c0-6.876-0.888-13.979-2.702-21.536l21.626-12.491
	c4.783-2.763,6.422-8.879,3.66-13.662l-20.004-34.648c-1.326-2.297-3.512-3.974-6.073-4.66s-5.293-0.326-7.591,1l-21.569,12.457
	c-10.802-9.941-23.503-17.316-37.362-21.695V70.897c0-5.523-4.479-10.002-10.002-10.002h-40.008
	c-5.523,0-10.002,4.479-10.002,10.002v24.788c-13.858,4.379-26.559,11.754-37.362,21.695l-21.569-12.457
	c-2.296-1.327-5.027-1.688-7.591-1c-2.563,0.687-4.747,2.362-6.073,4.66l-20.004,34.648c-2.763,4.783-1.123,10.899,3.66,13.662
	l21.626,12.491c-1.813,7.559-2.702,14.66-2.702,21.536c0,6.876,0.888,13.979,2.702,21.536l-21.626,12.491
	c-4.783,2.763-6.422,8.879-3.66,13.662l20.004,34.648c1.326,2.297,3.512,3.974,6.073,4.66c2.564,0.688,5.294,0.327,7.591-1
	l21.569-12.457c10.802,9.941,23.503,17.316,37.362,21.695v24.788c0,5.523,4.479,10.002,10.002,10.002h40.008
	c5.523,0,10.002-4.479,10.002-10.002v-24.786c13.858-4.379,26.559-11.754,37.362-21.695l21.569,12.457
	c2.297,1.327,5.027,1.688,7.591,1c2.563-0.687,4.747-2.362,6.073-4.66l20.004-34.648
	C316.289,233.827,314.649,227.711,309.866,224.948z M281.201,254.593l-19.533-11.28c-4.038-2.334-9.156-1.564-12.331,1.854
	c-11.035,11.885-25.088,20.046-40.639,23.602c-4.548,1.039-7.773,5.085-7.773,9.75v22.425H180.92v-22.425
	c0-4.665-3.226-8.711-7.773-9.75c-15.551-3.556-29.604-11.716-40.639-23.602c-3.176-3.419-8.293-4.191-12.331-1.854l-19.533,11.28
	L90.642,237.27l19.655-11.352c4.043-2.334,5.933-7.154,4.554-11.614c-2.691-8.707-3.944-16.137-3.944-23.382
	c0-7.244,1.253-14.675,3.944-23.382c1.379-4.46-0.511-9.28-4.554-11.614l-19.655-11.352l10.002-17.323l19.533,11.28
	c4.039,2.334,9.156,1.563,12.331-1.854c11.035-11.885,25.088-20.046,40.639-23.602c4.548-1.039,7.773-5.085,7.773-9.75V80.899
	h20.004v22.425c0,4.665,3.226,8.711,7.773,9.75c15.551,3.556,29.604,11.716,40.639,23.602c3.175,3.419,8.291,4.189,12.331,1.854
	l19.533-11.28l10.002,17.323l-19.655,11.352c-4.043,2.334-5.933,7.154-4.554,11.614c2.691,8.707,3.944,16.137,3.944,23.382
	c0,7.244-1.253,14.675-3.944,23.382c-1.379,4.46,0.511,9.28,4.554,11.614l19.655,11.352L281.201,254.593z"/>
<path d="M190.921,140.911c-27.576,0-50.01,22.435-50.01,50.01s22.435,50.01,50.01,50.01s50.01-22.435,50.01-50.01
	S218.497,140.911,190.921,140.911z M190.921,220.928c-16.545,0-30.006-13.461-30.006-30.006s13.461-30.006,30.006-30.006
	s30.006,13.461,30.006,30.006S207.467,220.928,190.921,220.928z"/>
<g>
</g>
<g>
</g>
<g>
</g>
<g>
</g>
<g>
</g>
<g>
</g>
<g>
</g>
<g>
</g>
<g>
</g>
<g>
</g>
<g>
</g>
<g>
</g>
<g>
</g>
<g>
</g>
<g>
</g>
</svg>
