<?xml version="1.0" encoding="iso-8859-1"?>
<!-- Generator: Adobe Illustrator 19.0.0, SVG Export Plug-In . SVG Version: 6.00 Build 0)  -->
<svg version="1.1" id="Capa_1" xmlns="http://www.w3.org/2000/svg" xmlns:xlink="http://www.w3.org/1999/xlink" x="0px" y="0px"
	 viewBox="0 0 512.001 512.001" style="enable-background:new 0 0 512.001 512.001;" xml:space="preserve">
<g>
	<path style="fill:#FFDD78;" d="M456.001,402v40h-100v-40C367.683,402,445.393,402,456.001,402z"/>
	<path style="fill:#FFDD78;" d="M306.001,402v40h-100v-40C217.683,402,295.393,402,306.001,402z"/>
	<path style="fill:#FFDD78;" d="M156.001,402v40h-100v-40C67.683,402,145.393,402,156.001,402z"/>
	<path style="fill:#FFDD78;" d="M156.001,210v40c-12.558,0-89.591,0-100,0v-40H156.001z"/>
	<path style="fill:#FFDD78;" d="M306.001,210v40c-12.558,0-89.591,0-100,0v-40H306.001z"/>
	<path style="fill:#FFDD78;" d="M456.001,210v40c-12.558,0-89.591,0-100,0v-40H456.001z"/>
	<path style="fill:#FFDD78;" d="M502.001,150h-492l246-140L502.001,150z"/>
</g>
<g>
	<rect x="76.001" y="250" style="fill:#D1F1FF;" width="60" height="152"/>
	<rect x="226.001" y="250" style="fill:#D1F1FF;" width="60" height="152"/>
	<rect x="376.001" y="250" style="fill:#D1F1FF;" width="60" height="152"/>
	<path style="fill:#D1F1FF;" d="M502.001,462v40h-492v-40c0-11.05,8.95-20,20-20c69.529,0,382.932,0,452,0
		C493.051,442,502.001,450.95,502.001,462z"/>
	<path style="fill:#D1F1FF;" d="M502.001,150v40c0,11.05-8.95,20-20,20c-25.193,0-436.85,0-452,0c-11.05,0-20-8.95-20-20v-40
		H502.001z"/>
</g>
<path d="M256.001,100c-5.52,0-10,4.48-10,10s4.48,10,10,10c5.52,0,10-4.48,10-10S261.521,100,256.001,100z"/>
<path d="M512.001,150c0-3.542-1.939-6.918-5.054-8.691l-246-140c-3.066-1.744-6.826-1.744-9.893,0l-246,140
	c-3.627,2.065-4.645,4.772-5.054,8.762c0,0.007,0,0.015,0,0.022V190c0,16.542,13.458,30,30,30h16v30c0,5.522,4.478,10,10,10h10v132
	h-9.999c-5.522,0-10,4.478-10,10v30h-16c-16.542,0-30,13.458-30,30v40c0,5.522,4.478,10,10,10h492c5.522,0,10-4.478,10-10v-40
	c0-16.542-13.458-30-30-30h-16v-30c0-5.522-4.478-10-10-10h-10V260h10c5.522,0,10-4.478,10-10v-30h16c16.542,0,30-13.458,30-30
	v-39.908c0-0.007,0-0.014,0-0.022V150z M256.001,21.506L464.212,140H47.79L256.001,21.506z M146.001,220v20h-80v-20H146.001z
	 M196.001,220v30c0,5.522,4.478,10,10,10h10v132h-10c-5.522,0-10,4.478-10,10v30h-30v-30c0-5.522-4.478-10-10-10h-10V260h10
	c5.522,0,10-4.478,10-10v-30H196.001z M296.001,220v20h-80v-20H296.001z M346.001,220v30c0,5.522,4.478,10,10,10h10v132h-10
	c-5.522,0-10,4.478-10,10v30h-30v-30c0-5.522-4.478-10-10-10h-10V260h10c5.522,0,10-4.478,10-10v-30H346.001z M216.001,432v-20h80
	v20H216.001z M276.001,260v132h-40V260H276.001z M86.001,260h40v132h-40V260z M66.001,412h80v20h-80V412z M492.001,462v30h-472v-30
	c0-5.514,4.486-10,10-10h452C487.515,452,492.001,456.486,492.001,462z M366.001,432v-20h80v20H366.001z M426.001,392h-40V260h40
	V392z M446.001,240h-80v-20h80V240z M482.001,200h-452c-5.514,0-10-4.486-10-10v-30h472v30C492.001,195.513,487.515,200,482.001,200
	z"/>
<path d="M336.001,100h-40c-5.522,0-10,4.478-10,10s4.478,10,10,10h40c5.522,0,10-4.478,10-10S341.523,100,336.001,100z"/>
<path d="M216.001,100h-40c-5.522,0-10,4.478-10,10s4.478,10,10,10h40c5.522,0,10-4.478,10-10S221.523,100,216.001,100z"/>
<g>
</g>
<g>
</g>
<g>
</g>
<g>
</g>
<g>
</g>
<g>
</g>
<g>
</g>
<g>
</g>
<g>
</g>
<g>
</g>
<g>
</g>
<g>
</g>
<g>
</g>
<g>
</g>
<g>
</g>
</svg>
