<?xml version="1.0" encoding="iso-8859-1"?>
<!-- Generator: Adobe Illustrator 19.0.0, SVG Export Plug-In . SVG Version: 6.00 Build 0)  -->
<svg version="1.1" id="Capa_1" xmlns="http://www.w3.org/2000/svg" xmlns:xlink="http://www.w3.org/1999/xlink" x="0px" y="0px"
	 viewBox="0 0 511.999 511.999" style="enable-background:new 0 0 511.999 511.999;" xml:space="preserve">
<g>
	<path style="fill:#FFDD78;" d="M415.998,170.003c0,52.41-25.27,98.839-64.219,127.999c-9.97,7.46-15.78,19.2-15.78,31.66v32.34H176
		v-32.34c0-12.49-5.86-24.23-15.86-31.73c-45.16-33.85-71.889-90.909-62.14-153.579C108.881,74.413,167.4,18.804,237.74,11.014
		C334.279,0.334,415.998,75.623,415.998,170.003z"/>
	<path style="fill:#FFDD78;" d="M196,442.001h119.999c0,33.14-26.86,60-60,60C222.862,502,196,475.141,196,442.001z"/>
</g>
<path style="fill:#4D5578;" d="M196,402.001c-11.05,0-20-8.95-20-20v-20h159.999v20c0,11.05-8.95,20-20,20c11.05,0,20,8.95,20,20
	c0,11.04-8.96,20-20,20H196c-11.05,0-20-8.95-20-20C176,410.961,184.96,402.001,196,402.001z"/>
<g>
	<path style="fill:#FFFFFF;" d="M255.999,170.003c-33.14,0-60,26.86-60,60v20h119.999v-20
		C315.999,196.862,289.139,170.003,255.999,170.003z"/>
	<circle style="fill:#FFFFFF;" cx="255.997" cy="129.999" r="40"/>
</g>
<path d="M255.999,392.001c-5.52,0-10,4.48-10,10c0,5.52,4.48,10,10,10c5.52,0,10-4.48,10-10
	C265.999,396.481,261.519,392.001,255.999,392.001z"/>
<path d="M10.001,180.003h46c5.522,0,10-4.478,10-10s-4.478-10-10-10h-46c-5.522,0-10,4.478-10,10S4.478,180.003,10.001,180.003z"/>
<path d="M501.998,160.003h-46c-5.522,0-10,4.478-10,10s4.478,10,10,10h46c5.522,0,10-4.478,10-10S507.52,160.003,501.998,160.003z"
	/>
<path d="M39.491,295.002c2.771,4.798,8.891,6.414,13.66,3.66l34.64-20c4.783-2.762,6.422-8.877,3.66-13.66
	c-2.762-4.781-8.876-6.422-13.66-3.66l-34.64,20C38.368,284.103,36.729,290.219,39.491,295.002z"/>
<path d="M434.208,78.663l34.64-20c4.783-2.762,6.422-8.877,3.66-13.66c-2.761-4.782-8.876-6.422-13.66-3.66l-34.64,20
	c-4.783,2.762-6.422,8.877-3.66,13.66C423.319,79.801,429.439,81.417,434.208,78.663z"/>
<path d="M91.451,75.003c2.762-4.783,1.123-10.898-3.66-13.66l-34.64-20c-4.784-2.761-10.898-1.123-13.66,3.66
	c-2.762,4.783-1.123,10.898,3.66,13.66l34.64,20C82.565,81.419,88.683,79.796,91.451,75.003z"/>
<path d="M424.208,278.662l34.64,20c4.774,2.756,10.892,1.133,13.66-3.66c2.762-4.783,1.123-10.898-3.66-13.66l-34.64-20
	c-4.784-2.762-10.898-1.122-13.66,3.66C417.786,269.785,419.425,275.9,424.208,278.662z"/>
<path d="M196,260.002h119.999c5.522,0,10-4.478,10-10v-20c0-26.895-15.255-50.281-37.559-61.999
	c10.735-9.178,17.559-22.803,17.559-38.001c0-27.57-22.43-50-50-50s-50,22.43-50,50c0,15.198,6.824,28.823,17.559,38.001
	C201.256,179.722,186,203.107,186,230.002v20C186,255.524,190.477,260.002,196,260.002z M226,130.003c0-16.542,13.458-30,30-30
	s30,13.458,30,30s-13.458,30-30,30S226,146.545,226,130.003z M206,230.002c0-27.57,22.43-50,50-50s50,22.43,50,50v10H206
	L206,230.002L206,230.002z"/>
<path d="M345.999,329.661c0-9.296,4.4-18.139,11.773-23.655c20.706-15.501,37.864-35.807,49.62-58.722
	c12.347-24.064,18.606-50.066,18.606-77.282c0-100.28-86.841-180.271-189.359-168.929C161.713,9.372,99.663,68.609,88.12,142.815
	c-10.161,65.305,17.085,126.436,66.02,163.116c7.427,5.57,11.86,14.441,11.86,23.73c0,8.658,0,39.661,0,52.34
	c0,7.673,2.899,14.68,7.655,19.99C168.708,407.5,166,414.542,166,422c0,13.231,8.613,24.48,20.523,28.457
	c4.109,34.306,33.273,61.543,69.476,61.543c35.729,0,65.27-26.914,69.468-61.528c11.755-3.899,20.531-15.023,20.531-28.472
	c0-7.678-2.902-14.688-7.664-20c4.761-5.312,7.664-12.322,7.664-20C345.999,372.352,345.999,342.957,345.999,329.661z
	 M107.882,145.89c10.129-65.11,65.205-117.654,130.958-124.936c92.549-10.246,167.159,62.545,167.159,149.05
	c0,47.61-21.946,91.346-60.21,119.992c-12.392,9.271-19.79,24.1-19.79,39.667v22.34H186v-22.34c0-15.551-7.425-30.403-19.862-39.732
	C121.578,256.529,99.256,201.336,107.882,145.89z M255.999,492c-24.243,0-44.366-17.151-49.001-40.1h97.994
	C300.347,474.694,280.145,492,255.999,492z M315.999,432.001H196c-5.514,0-10-4.486-10-10c0-5.52,4.479-10,10-10h20
	c5.522,0,10-4.478,10-10c0-5.522-4.478-10-10-10h-20c-5.514,0-10-4.486-10-10v-10h139.999v10c0,5.514-4.486,10-10,10h-20
	c-5.522,0-10,4.478-10,10c0,5.522,4.478,10,10,10h20c5.514,0,10,4.486,10,10C325.999,427.521,321.52,432.001,315.999,432.001z"/>
<g>
</g>
<g>
</g>
<g>
</g>
<g>
</g>
<g>
</g>
<g>
</g>
<g>
</g>
<g>
</g>
<g>
</g>
<g>
</g>
<g>
</g>
<g>
</g>
<g>
</g>
<g>
</g>
<g>
</g>
</svg>
