<?xml version="1.0" encoding="iso-8859-1"?>
<!-- Generator: Adobe Illustrator 19.0.0, SVG Export Plug-In . SVG Version: 6.00 Build 0)  -->
<svg version="1.1" id="Capa_1" xmlns="http://www.w3.org/2000/svg" xmlns:xlink="http://www.w3.org/1999/xlink" x="0px" y="0px"
	 viewBox="0 0 512 512" style="enable-background:new 0 0 512 512;" xml:space="preserve">
<path style="fill:#4D5578;" d="M309.81,384.73H202.19C129.06,392.35,76,415.11,76,442c0,33.14,80.59,60,180,60s180-26.86,180-60
	C436,415.11,382.94,392.35,309.81,384.73z"/>
<path style="fill:#FF5249;" d="M416,170c0,33.95-10.57,65.43-28.61,91.33C387.143,261.707,256.081,461.876,256,462
	c-0.093-0.142-131.319-200.562-131.39-200.67C106.57,235.43,96,203.95,96,170c0-88.37,71.63-160,160-160S416,81.63,416,170z"/>
<path style="fill:#FFFFFF;" d="M256,70c55.14,0,100,44.86,100,100s-44.86,100-100,100s-100-44.86-100-100S200.86,70,256,70z"/>
<path style="fill:#FF5249;" d="M256,130c22.06,0,40,17.94,40,40s-17.94,40-40,40s-40-17.94-40-40S233.94,130,256,130z"/>
<path d="M266,170c0-5.52-4.48-10-10-10s-10,4.48-10,10s4.48,10,10,10C261.52,180,266,175.52,266,170z"/>
<path d="M66,442c0,20.975,20.595,38.927,59.559,51.914C160.549,505.577,206.873,512,256,512s95.451-6.423,130.441-18.086
	C425.405,480.927,446,462.975,446,442c0-12.054-7.216-29.644-41.595-44.992c-20.99-9.372-48.579-16.446-80.371-20.661l71.643-109.42
	C415.515,238.396,426,204.881,426,170C426,76.262,349.738,0,256,0S86,76.262,86,170c0,34.881,10.485,68.396,30.322,96.927
	l71.643,109.42c-31.792,4.215-59.381,11.289-80.371,20.661C73.216,412.356,66,429.946,66,442z M132.816,255.614
	C115.272,230.428,106,200.822,106,170c0-82.71,67.29-150,150-150s150,67.29,150,150c0,30.822-9.272,60.428-26.816,85.614
	c-0.055,0.079-0.108,0.158-0.16,0.238L256,443.746L132.977,255.853C132.925,255.772,132.871,255.693,132.816,255.614z
	 M247.634,467.479C249.481,470.3,252.627,472,256,472c3.373,0,6.519-1.7,8.366-4.521l47.452-72.473
	C383.361,402.945,426,424.981,426,442c0,20.878-64.674,50-170,50S86,462.878,86,442c0-17.019,42.639-39.055,114.182-46.995
	L247.634,467.479z"/>
<path d="M306,170c0-27.57-22.43-50-50-50s-50,22.43-50,50s22.43,50,50,50S306,197.57,306,170z M226,170c0-16.542,13.458-30,30-30
	s30,13.458,30,30s-13.458,30-30,30S226,186.542,226,170z"/>
<path d="M266,290v-10.459c52.69-4.771,94.77-46.851,99.541-99.541H376c5.522,0,10-4.478,10-10s-4.478-10-10-10h-10.459
	C360.77,107.31,318.69,65.23,266,60.459V50c0-5.522-4.478-10-10-10s-10,4.478-10,10v10.459C193.31,65.23,151.23,107.31,146.459,160
	H136c-5.522,0-10,4.478-10,10s4.478,10,10,10h10.459c4.771,52.69,46.851,94.77,99.541,99.541V290c0,5.522,4.478,10,10,10
	S266,295.522,266,290z M166,170c0-49.626,40.374-90,90-90s90,40.374,90,90s-40.374,90-90,90S166,219.626,166,170z"/>
<g>
</g>
<g>
</g>
<g>
</g>
<g>
</g>
<g>
</g>
<g>
</g>
<g>
</g>
<g>
</g>
<g>
</g>
<g>
</g>
<g>
</g>
<g>
</g>
<g>
</g>
<g>
</g>
<g>
</g>
</svg>
