<?xml version="1.0" encoding="iso-8859-1"?>
<!-- Generator: Adobe Illustrator 19.0.0, SVG Export Plug-In . SVG Version: 6.00 Build 0)  -->
<svg version="1.1" id="Capa_1" xmlns="http://www.w3.org/2000/svg" xmlns:xlink="http://www.w3.org/1999/xlink" x="0px" y="0px"
	 viewBox="0 0 512 512" style="enable-background:new 0 0 512 512;" xml:space="preserve">
<path style="fill:#D1F1FF;" d="M502,77.004h-54.159c-20,15-20,44.999,0,59.999H502c-14.41,35.499-53.599,58.399-96.008,47.089
	c-23.859-6.36-43.499-24.339-52.519-47.089H158.537c-9.02,22.75-28.659,40.729-52.519,47.089
	c-42.409,11.31-81.598-11.59-96.008-47.089h54.159c20-15,20-44.999,0-59.999H10.01C21.9,47.715,50.66,27.005,84.169,27.005
	c33.519,0,62.279,20.71,74.168,49.999h195.336c11.89-29.289,40.649-49.999,74.168-49.999C461.351,27.005,490.11,47.715,502,77.004z"
	/>
<path style="fill:#4AB5A7;" d="M316.004,285c-14.518,0-105.384,0-119.997,0c-11.05,0-20,8.95-20,20c0,23.238,0,81.148,0,99.998
	c0,43.999,35.638,79.998,79.998,79.998c44.301,0,79.998-35.937,79.998-79.998c0-14.698,0-87.782,0-99.998
	C336.003,293.949,327.054,285,316.004,285z"/>
<path style="fill:#4D5578;" d="M256.005,225.001c33.139,0,59.999,26.859,59.999,59.999c-14.518,0-105.384,0-119.997,0
	C196.006,251.86,222.866,225.001,256.005,225.001z"/>
<path d="M116.008,354.998c-5.522,0-10,4.478-10,10c0,5.522,4.478,10,10,10h49.999v29.999c0,2.594,0.121,5.186,0.34,7.758
	l-35.886,23.92c-2.782,1.855-4.453,4.978-4.453,8.321v39.999c0,5.522,4.478,10,10,10c5.522,0,10-4.478,10-10v-34.646l24.749-16.498
	c5.132,15.143,14.264,28.788,26.548,39.367c16.308,14.043,37.153,21.777,58.699,21.777s42.392-7.734,58.699-21.777
	c12.287-10.58,21.419-24.226,26.549-39.367l24.749,16.498v34.646c0,5.522,4.478,10,10,10s10-4.478,10-10v-39.999
	c0-3.344-1.671-6.466-4.453-8.321l-35.886-23.92c0.22-2.573,0.34-5.164,0.34-7.758v-29.999h49.999c5.522,0,10-4.478,10-10
	c0-5.522-4.478-10-10-10h-49.999v-37.977l35.547-23.7c2.781-1.854,4.452-4.977,4.452-8.32v-39.999c0-5.522-4.478-10-10-10
	s-10,4.478-10,10v34.647l-21.979,14.654c-3.2-8.353-10.029-14.918-18.551-17.762c-3.337-27.555-22.729-50.231-48.529-58.337
	l26.13-26.13c3.905-3.905,3.905-10.237,0-14.143c-3.906-3.904-10.236-3.904-14.143,0l-32.928,32.928l-32.928-32.928
	c-3.906-3.904-10.236-3.904-14.143,0c-3.905,3.905-3.905,10.237,0,14.143l26.13,26.13c-25.8,8.106-45.192,30.781-48.529,58.337
	c-8.521,2.843-15.351,9.408-18.551,17.762l-21.979-14.654v-34.647c0-5.522-4.478-10-10-10c-5.522,0-10,4.478-10,10v39.999
	c0,3.344,1.671,6.466,4.452,8.32l35.547,23.7v37.977H116.008z M266.005,474.288V294.999h49.999c5.514,0,10,4.486,10,10
	c0,2.872,0,81.971,0,99.998C326.004,439.939,300.631,469.403,266.005,474.288z M256.005,235.001
	c24.145,0,44.347,17.205,48.993,39.999h-97.985C211.658,252.205,231.86,235.001,256.005,235.001z M196.006,294.999h49.999v179.289
	c-34.666-4.891-59.999-34.391-59.999-69.292c0-15.079,0-89.071,0-99.998C186.007,299.485,190.494,294.999,196.006,294.999z"/>
<path d="M451.459,87.004H502c3.327,0,6.437-1.655,8.295-4.415c1.858-2.76,2.223-6.264,0.971-9.346
	c-13.868-34.163-46.613-56.238-83.424-56.238c-34.524,0-65.473,19.411-80.627,49.999H164.796
	c-15.155-30.588-46.103-49.999-80.627-49.999c-36.731,0-69.411,21.982-83.33,56.019c-0.023,0.055-0.047,0.11-0.07,0.165
	c-0.008,0.018-0.016,0.036-0.023,0.054c-2.66,6.573,2.131,13.621,9.074,13.751c0.064,0.001,0.127,0.01,0.191,0.01h0.086
	c0.029,0,0.058,0,0.087,0h50.363c5.513,5.175,8.624,12.307,8.624,20c0,7.691-3.106,14.826-8.618,20H10.01
	c-3.327,0-6.437,1.655-8.295,4.415s-2.223,6.263-0.971,9.346c16.786,41.356,61.827,65.263,107.849,52.991
	c24.543-6.542,45.214-23.787,56.449-46.752h181.926c11.235,22.964,31.905,40.21,56.447,46.751
	c46.287,12.346,91.166-11.886,107.851-52.99c1.252-3.083,0.888-6.586-0.971-9.346c-1.858-2.76-4.968-4.415-8.295-4.415h-50.541
	c-5.512-5.174-8.618-12.309-8.618-20S445.947,92.178,451.459,87.004z M441.841,69.004c-12.075,9.056-19,22.906-19,37.999
	s6.925,28.943,19,37.999c1.731,1.298,3.836,1.9,6,1.9h37.368c-15.19,21.628-43.376,36.399-76.642,27.526
	c-20.653-5.504-37.773-20.874-45.799-41.111c-1.511-3.812-5.196-6.314-9.296-6.314H158.537c-4.1,0-7.785,2.503-9.296,6.314
	c-8.025,20.238-25.145,35.607-45.801,41.112c-33.256,8.869-61.448-5.8-76.64-27.427h37.368c2.164,0,4.269-0.702,6-2
	c12.075-9.056,19-22.906,19-37.999c0-14.926-6.781-28.628-18.609-37.688c-0.033-0.028-0.068-0.054-0.103-0.082
	c-1.818-1.384-3.653-2.166-6.065-2.219c-0.075-0.002-0.148-0.011-0.224-0.011H26.718C39.62,48.406,60.845,37.004,84.169,37.004
	c28.636,0,54.112,17.178,64.903,43.76c1.531,3.772,5.195,6.239,9.266,6.239h195.336c4.07,0,7.734-2.467,9.266-6.239
	c10.791-26.582,36.267-43.76,64.903-43.76c23.324,0,44.553,11.399,57.454,29.999h-37.454
	C445.677,67.004,443.572,67.706,441.841,69.004z"/>
<g>
</g>
<g>
</g>
<g>
</g>
<g>
</g>
<g>
</g>
<g>
</g>
<g>
</g>
<g>
</g>
<g>
</g>
<g>
</g>
<g>
</g>
<g>
</g>
<g>
</g>
<g>
</g>
<g>
</g>
</svg>
