<?xml version="1.0" encoding="iso-8859-1"?>
<!-- Generator: Adobe Illustrator 19.0.0, SVG Export Plug-In . SVG Version: 6.00 Build 0)  -->
<svg version="1.1" id="Capa_1" xmlns="http://www.w3.org/2000/svg" xmlns:xlink="http://www.w3.org/1999/xlink" x="0px" y="0px"
	 viewBox="0 0 512 512" style="enable-background:new 0 0 512 512;" xml:space="preserve">
<rect x="130" y="305" style="fill:#4D5578;" width="252" height="181"/>
<path style="fill:#FF5249;" d="M130,126v179h252V126C370.913,126,152.022,126,130,126z"/>
<g>
	<path style="fill:#FFDD78;" d="M130,486H90c0-10.131,0-349.908,0-360h40C130,135.632,130,475.765,130,486z"/>
	<path style="fill:#FFDD78;" d="M296,346c0,11.05-8.95,20-20,20h-40c-11.05,0-20-8.95-20-20c0-4.38,0-75.702,0-80h80
		C296,270.293,296,341.621,296,346z"/>
	<path style="fill:#FFDD78;" d="M422,486h-40c0-10.235,0-350.313,0-360h40C422,136.115,422,475.877,422,486z"/>
</g>
<path style="fill:#4D5578;" d="M362,86v40h-40V86c0-11.03-8.97-20-20-20h-92c-11.03,0-20,8.97-20,20v40h-40V86
	c0-33.09,26.91-60,60-60h92C335.09,26,362,52.91,362,86z"/>
<g>
	<path style="fill:#FF5249;" d="M502,166v60c0,41.081-30.847,74.503-70,79.38h-10V126h40C484.09,126,502,143.91,502,166z"/>
	<path style="fill:#FF5249;" d="M90,126v179.38H80C40.818,300.5,10,267.051,10,226v-60c0-22.09,17.91-40,40-40H90z"/>
</g>
<g>
	<path style="fill:#4D5578;" d="M30.01,278.92c12.58,14.26,30.16,23.99,49.99,26.46h10V486H50c-11.05,0-20-8.95-20-20V278.92H30.01z
		"/>
	<path style="fill:#4D5578;" d="M482,278.92V466c0,11.05-8.95,20-20,20h-40V305.38h10c19.83-2.47,37.41-12.2,49.99-26.46H482z"/>
</g>
<path d="M190,436c-5.52,0-10,4.48-10,10s4.48,10,10,10s10-4.48,10-10S195.52,436,190,436z"/>
<path d="M462,116c-14.397,0-78.724,0-90,0V86c0-38.599-31.402-70-70-70h-92c-38.598,0-70,31.401-70,70v30c-10.059,0-80.237,0-90,0
	c-27.57,0-50,22.43-50,50v60c0,20.66,7.079,40.594,20,56.56V466c0,16.542,13.458,30,30,30c46.515,0,358.228,0,412,0
	c16.542,0,30-13.458,30-30V282.559c12.922-15.97,20-35.902,20-56.559v-60C512,138.43,489.57,116,462,116z M372,136v159h-66v-29
	c0-5.522-4.477-10-10-10h-80c-5.523,0-10,4.478-10,10v29h-66V136H372z M312,116H200V86c0-5.514,4.486-10,10-10h92
	c5.514,0,10,4.486,10,10V116z M226,276h60v70c0,5.514-4.486,10-10,10h-40c-5.514,0-10-4.486-10-10V276z M140,315h66v31
	c0,16.542,13.458,30,30,30h40c16.542,0,30-13.458,30-30v-31h66v161H140V315z M160,86c0-27.57,22.43-50,50-50h92
	c27.57,0,50,22.43,50,50v30h-20V86c0-16.542-13.458-30-30-30h-92c-16.542,0-30,13.458-30,30v30h-20V86z M20,166
	c0-16.542,13.458-30,30-30h30v159.28c-34.07-4.867-60-34.172-60-69.28V166z M40,466V300.822c11.548,7.73,24.789,12.74,38.764,14.481
	c0.41,0.052,0.823,0.077,1.236,0.077V476H50C44.486,476,40,471.514,40,466z M100,136h20v340h-20V136z M392,136h20v340h-20V136z
	 M462,476h-30V315.38c0.413,0,0.826-0.025,1.236-0.077c13.976-1.741,27.217-6.751,38.764-14.48V466C472,471.514,467.514,476,462,476
	z M492,226c0,35.038-25.862,64.403-60,69.28V136h30c16.542,0,30,13.458,30,30V226z"/>
<path d="M322,436h-92c-5.523,0-10,4.478-10,10s4.477,10,10,10h92c5.523,0,10-4.478,10-10S327.523,436,322,436z"/>
<g>
</g>
<g>
</g>
<g>
</g>
<g>
</g>
<g>
</g>
<g>
</g>
<g>
</g>
<g>
</g>
<g>
</g>
<g>
</g>
<g>
</g>
<g>
</g>
<g>
</g>
<g>
</g>
<g>
</g>
</svg>
