<?xml version="1.0" encoding="iso-8859-1"?>
<!-- Generator: Adobe Illustrator 19.0.0, SVG Export Plug-In . SVG Version: 6.00 Build 0)  -->
<svg version="1.1" id="Capa_1" xmlns="http://www.w3.org/2000/svg" xmlns:xlink="http://www.w3.org/1999/xlink" x="0px" y="0px"
	 viewBox="0 0 512.001 512.001" style="enable-background:new 0 0 512.001 512.001;" xml:space="preserve">
<path style="fill:#FFFFFF;" d="M256,86C123.45,86,10,226,10,226s113.45,140,246,140c7.51,0,14.94-0.45,22.27-1.3h0.01l145.06-66.81
	C468.16,262.27,502,226,502,226S388.55,86,256,86z"/>
<path style="fill:#7BD8E8;" d="M285.74,321.5c-0.03,0.02-0.07,0.03-0.1,0.03c-9.271,2.848-19.072,4.47-29.64,4.47
	c-55.23,0-100-44.77-100-100c0-0.7,0.01-1.39,0.02-2.08C157.752,166.78,203.722,126,256,126c55.23,0,100,44.77,100,100
	c0,16.352-3.81,26.834-3.81,27.46C342.628,286.592,317.362,311.606,285.74,321.5z"/>
<path style="fill:#FFDD78;" d="M476,386c0,55.23-44.77,100-100,100s-100-44.77-100-100c0-55.223,44.77-100,100-100
	C431.341,286,476,330.879,476,386z"/>
<path style="fill:#4D5578;" d="M256,226h50c0,27.61-22.39,50-50,50s-50-22.39-50-50s22.39-50,50-50V226z"/>
<path d="M176,176c5.52,0,10-4.48,10-10c0-5.539-4.498-10-10-10c-5.52,0-10,4.48-10,10C166,171.533,170.49,176,176,176z"/>
<path d="M376,376c-5.514,0-10-4.486-10-10s4.486-10,10-10c3.542,0,7.283,1.808,10.816,5.227c3.969,3.841,10.3,3.735,14.14-0.232
	c3.84-3.97,3.736-10.301-0.233-14.141c-5.075-4.911-10.153-7.688-14.724-9.205V326c0-5.522-4.477-10-10-10s-10,4.478-10,10v11.72
	c-11.639,4.128-20,15.243-20,28.28c0,16.542,13.458,30,30,30c5.514,0,10,4.486,10,10c0,4.19-2.643,7.969-6.577,9.401
	c-5.138,1.87-11.118-0.666-16.406-6.963c-3.552-4.228-9.86-4.778-14.089-1.226s-4.778,9.859-1.227,14.089
	c5.406,6.437,11.7,10.851,18.298,13.072V446c0,5.522,4.477,10,10,10s10-4.478,10-10v-11.715c0.089-0.032,0.179-0.059,0.268-0.091
	C398.07,429.895,406,418.565,406,406C406,389.458,392.542,376,376,376z"/>
<path d="M256,286c33.084,0,60-26.916,60-60c0-5.522-4.477-10-10-10h-40v-40c0-5.522-4.477-10-10-10c-33.084,0-60,26.916-60,60
	S222.916,286,256,286z M246,187.266V226c0,5.522,4.477,9.9,10,9.9h38.734C290.283,253.133,274.605,266,256,266
	c-22.056,0-40-17.944-40-40C216,207.396,228.767,191.717,246,187.266z"/>
<path d="M2.231,232.296c1.188,1.466,29.604,36.295,74.917,71.593C128.765,344.095,191.098,376,256,376
	c3.469,0,6.972-0.107,10.486-0.291C266.169,379.119,266,382.554,266,386c0,60.654,49.346,110,110,110s110-49.346,110-110
	c0-35.621-17.136-68.606-45.525-89.138c39.295-32.505,67.55-62.662,68.836-64.04c3.403-3.647,3.598-9.243,0.458-13.118
	c-1.188-1.466-29.604-36.295-74.917-71.593C383.236,107.905,320.902,76,256,76c-64.904,0-127.237,31.906-178.852,72.111
	c-45.313,35.298-73.73,70.127-74.917,71.593C-0.744,223.374-0.744,228.626,2.231,232.296z M466,386c0,49.626-40.374,90-90,90
	s-90-40.374-90-90c0-49.543,40.199-90,90-90c24.245,0,40.007,9.695,42.597,10.693c0.001,0.001,0.001,0.001,0.002,0.001
	C447.837,322.438,466,352.825,466,386z M89.791,163.615C129.467,132.77,190.51,96,256,96s126.533,36.77,166.209,67.615
	c32.167,25.008,55.915,50.306,66.273,61.996c-11.08,11.289-35.981,35.811-66.415,60.474C407.714,279.472,391.922,276,376,276
	c-7.93,0-15.726,0.848-23.307,2.477C361.433,262.353,366,244.518,366,226c0-60.654-49.346-110-110-110
	c-19.598,0-38.141,4.974-55.114,14.782c-4.782,2.764-6.417,8.88-3.654,13.662c2.764,4.782,8.881,6.416,13.662,3.654
	C224.785,140.07,239.961,136,256,136c49.626,0,90,40.374,90,90c0,49.732-40.277,90-90,90c-49.626,0-90-40.374-90-90
	c0-6.973,1.055-15.901,2.508-21.229s-1.689-10.826-7.017-12.278c-5.333-1.454-10.826,1.689-12.279,7.017
	C146.993,207.647,146,218.678,146,226c0,60.654,49.346,110,110,110c7.82,0,15.742-0.865,23.347-2.501
	c-3.773,6.935-6.798,14.277-9.003,21.913C265.534,355.793,260.731,356,256,356c-65.49,0-126.533-36.77-166.209-67.615
	C57.262,263.096,33.343,237.511,23.173,226C33.345,214.487,57.264,188.902,89.791,163.615z"/>
<path d="M16.872,145.255C43.966,119.625,141.285,36,256,36s212.034,83.625,239.128,109.255c1.933,1.829,4.404,2.735,6.87,2.735
	c2.653,0,5.3-1.049,7.267-3.128c3.795-4.012,3.62-10.342-0.393-14.137C442.359,67.807,348.833,16,256,16
	C163.012,16,69.479,67.96,3.128,130.726c-4.012,3.795-4.188,10.125-0.393,14.137C6.53,148.873,12.858,149.049,16.872,145.255z"/>
<g>
</g>
<g>
</g>
<g>
</g>
<g>
</g>
<g>
</g>
<g>
</g>
<g>
</g>
<g>
</g>
<g>
</g>
<g>
</g>
<g>
</g>
<g>
</g>
<g>
</g>
<g>
</g>
<g>
</g>
</svg>
