<?xml version="1.0" encoding="iso-8859-1"?>
<!-- Generator: Adobe Illustrator 19.0.0, SVG Export Plug-In . SVG Version: 6.00 Build 0)  -->
<svg version="1.1" id="Capa_1" xmlns="http://www.w3.org/2000/svg" xmlns:xlink="http://www.w3.org/1999/xlink" x="0px" y="0px"
	 viewBox="0 0 512 512" style="enable-background:new 0 0 512 512;" xml:space="preserve">
<polygon style="fill:#7BD8E8;" points="194.53,110 26,110 26,422 286,422 286,301.46 "/>
<path style="fill:#FFDD78;" d="M336,10c82.84,0,150,67.16,150,150s-67.16,150-150,150c-27.168,0-52.611-7.232-74.51-19.79L186,310
	l24.16-68.33C194.88,218.17,186,190.12,186,160c0-17.53,3.01-34.36,8.53-50h0.01C215.294,51.242,271.224,10,336,10z"/>
<path style="fill:#FFFFFF;" d="M365.74,255.5c-0.01,0.01-0.03,0.01-0.04,0.01c-9.761,3.023-19.683,4.49-29.7,4.49
	c-55.23,0-100-44.77-100-100c0-54.967,44.491-100,100-100c55.23,0,100,44.77,100,100C436,204.391,406.849,242.851,365.74,255.5z"/>
<g>
	<path style="fill:#4D5578;" d="M286,422v60c0,11.05-8.95,20-20,20H46c-11.05,0-20-8.95-20-20v-60H286z"/>
	<path style="fill:#4D5578;" d="M46,50h188.02c-17.62,16.35-31.31,36.87-39.48,60h-0.01H26V70C26,58.95,34.95,50,46,50z"/>
</g>
<path d="M266,100c5.52,0,10-4.48,10-10c0-5.503-4.468-10-10-10c-5.52,0-10,4.48-10,10C256,95.538,260.501,100,266,100z"/>
<path d="M166,452h-20c-5.523,0-10,4.478-10,10s4.477,10,10,10h20c5.523,0,10-4.478,10-10S171.523,452,166,452z"/>
<path d="M337,189.29c-4.272,0-8.885-2.687-12.985-7.564c-3.554-4.229-9.863-4.773-14.089-1.22c-4.228,3.554-4.774,9.861-1.22,14.089
	c5.346,6.36,11.632,10.791,18.294,13.025v11.67c0,5.522,4.478,10,10,10s10-4.478,10-10v-11.72c11.639-4.128,20-15.243,20-28.28
	c0-16.542-13.458-30-30-30c-5.514,0-10-4.486-10-10s4.486-10,10-10c3.542,0,7.282,1.808,10.815,5.227
	c3.971,3.841,10.299,3.736,14.141-0.232c3.84-3.969,3.736-10.3-0.232-14.141c-5.075-4.911-10.153-7.689-14.724-9.205V99.29
	c0-5.522-4.478-10-10-10s-10,4.478-10,10v11.72c-11.639,4.128-20,15.243-20,28.28c0,16.542,13.458,30,30,30c5.514,0,10,4.486,10,10
	S342.514,189.29,337,189.29z"/>
<path d="M336,0c-39.153,0-76.574,14.176-105.828,40H46c-16.542,0-30,13.458-30,30v412c0,16.542,13.458,30,30,30h220
	c16.542,0,30-13.458,30-30V314.952c13.006,3.352,26.406,5.048,40,5.048c88.225,0,160-71.775,160-160S424.225,0,336,0z M46,60
	h165.119c-9.715,12.132-17.642,25.641-23.461,40H36V70C36,64.486,40.486,60,46,60z M178.64,316.77
	c2.54,2.761,6.368,3.831,9.896,2.903l71.606-18.771c5.133,2.767,10.439,5.255,15.858,7.451V412H36V119.9h145.044
	C177.695,132.911,176,146.412,176,160c0,29.387,7.979,57.938,23.121,82.894l-22.549,63.772
	C175.338,310.157,176.133,314.045,178.64,316.77z M266,492H46c-5.514,0-10-4.486-10-10v-50h240v50C276,487.514,271.514,492,266,492z
	 M336,300c-24.694,0-48.513-6.408-69.535-18.465c-2.276-1.306-4.973-1.663-7.511-0.998l-57.235,15.004l17.87-50.537
	c1.036-2.932,0.65-6.179-1.044-8.785C203.795,213.537,196,187.181,196,160c0-77.755,63.128-140,140-140c77.196,0,140,62.804,140,140
	S413.196,300,336,300z"/>
<path d="M336,50c-14.024,0-27.779,2.64-40.883,7.847c-5.133,2.039-7.641,7.853-5.601,12.985c2.039,5.132,7.854,7.642,12.985,5.601
	C313.245,72.164,324.516,70,336,70c49.626,0,90,40.374,90,90c0,51.092-41.26,90-90,90c-49.626,0-90-40.374-90-90
	c0-13.427,3.283-26.011,6.356-33.311c2.143-5.09-0.247-10.954-5.337-13.097c-5.091-2.141-10.954,0.246-13.097,5.337
	C228.962,130.715,226,146.068,226,160c0,60.654,49.346,110,110,110c10.812,0,22.048-1.602,32.698-4.949v0.002
	C414.775,250.784,446,208.24,446,160C446,99.346,396.654,50,336,50z"/>
<g>
</g>
<g>
</g>
<g>
</g>
<g>
</g>
<g>
</g>
<g>
</g>
<g>
</g>
<g>
</g>
<g>
</g>
<g>
</g>
<g>
</g>
<g>
</g>
<g>
</g>
<g>
</g>
<g>
</g>
</svg>
