<?xml version="1.0" encoding="iso-8859-1"?>
<!-- Generator: Adobe Illustrator 19.0.0, SVG Export Plug-In . SVG Version: 6.00 Build 0)  -->
<svg version="1.1" id="Capa_1" xmlns="http://www.w3.org/2000/svg" xmlns:xlink="http://www.w3.org/1999/xlink" x="0px" y="0px"
	 viewBox="0 0 512 512" style="enable-background:new 0 0 512 512;" xml:space="preserve">
<path style="fill:#4D5578;" d="M392,196c16.57,0,30,13.43,30,30c0,16.56-13.44,30-30,30h-10v-60H392z"/>
<path style="fill:#D1F1FF;" d="M342,109.99V356c-46.82-30.32-101.35-55.02-160-60V156C240.65,151.03,295.18,140.31,342,109.99z"/>
<path style="fill:#4D5578;" d="M142.51,400.39C157.249,412.226,148.745,436,130,436h-30c-16.57,0-30-13.43-30-30V296l0.1-0.7
	c3.23,0.46,6.54,0.7,9.9,0.7c21.449,0,26.562,0,50,0v74.19C130,381.52,133.68,393.3,142.51,400.39z"/>
<g>
	<path style="fill:#FF5249;" d="M182,156v140h-0.04c-36.842,0-44.05,0-101.96,0c-38.66,0-70-31.34-70-70c0-38.658,31.339-70,70-70
		c9.782,0,90.417,0,101.96,0H182z"/>
	<path style="fill:#FF5249;" d="M382,356c0,11.05-8.95,20-20,20s-20-8.95-20-20c0-22.528,0-248.708,0-260c0-11.05,8.95-20,20-20
		c11.04,0,20,8.96,20,20C382,123.839,382,329.535,382,356z"/>
</g>
<path d="M130,206c5.52,0,10-4.48,10-10s-4.48-10-10-10s-10,4.48-10,10S124.48,206,130,206z"/>
<path d="M362,66c-16.542,0-30,13.458-30,30v8.471C284.221,133.74,229.322,141.933,181.57,146H80c-44.036,0-80,35.621-80,80
	c0,36.626,25.25,68.473,60,77.449V406c0,22.056,17.944,40,40,40h30c28.194,0,40.827-35.698,18.771-53.408
	c-5.574-4.475-8.771-12.64-8.771-22.401V306h41.537c48.424,4.188,99.216,22.972,151.039,55.844C335.303,375.597,347.458,386,362,386
	c16.542,0,30-13.458,30-30v-90c22.098,0,40-17.898,40-40c0-22.056-17.944-40-40-40V96C392,79.425,378.575,66,362,66z M332,337.996
	c-47.629-28.481-94.611-45.603-140-51.018V165.141c44.583-4.234,94.405-12.672,140-37.574V337.996z M20,226
	c0-33.098,26.779-60,60-60h92v120H80c-2.836,0-5.693-0.202-8.501-0.602C42.14,281.25,20,255.714,20,226z M136.249,408.187
	C143.59,414.084,139.44,426,130,426h-30c-11.028,0-20-8.972-20-20V306h40v64.19C120,386.047,125.923,399.896,136.249,408.187z
	 M372,356c0,5.514-4.486,10-10,10s-10-4.486-10-10V96c0-5.514,4.486-10,10-10c5.52,0,10,4.479,10,10V356z M412,226
	c0,11.046-8.954,20-20,20v-40C403.028,206,412,214.972,412,226z"/>
<path d="M502,206h-40c-5.522,0-10,4.478-10,10s4.478,10,10,10h40c5.522,0,10-4.478,10-10S507.522,206,502,206z"/>
<path d="M478.51,91c-2.761-4.781-8.877-6.422-13.66-3.66l-34.64,20c-4.783,2.762-6.422,8.877-3.66,13.66
	c2.771,4.798,8.891,6.414,13.66,3.66l34.64-20C479.633,101.898,481.271,95.783,478.51,91z"/>
<path d="M478.51,341c2.762-4.783,1.123-10.898-3.66-13.66l-34.64-20c-4.784-2.762-10.898-1.122-13.66,3.66
	c-2.762,4.783-1.123,10.898,3.66,13.66l34.64,20c1.575,0.909,3.294,1.342,4.99,1.342C473.296,346.002,476.657,344.208,478.51,341z"
	/>
<path d="M90,206c5.522,0,10-4.478,10-10s-4.478-10-10-10H80c-22.056,0-40,17.944-40,40c0,5.522,4.478,10,10,10s10-4.478,10-10
	c0-11.028,8.972-20,20-20H90z"/>
<g>
</g>
<g>
</g>
<g>
</g>
<g>
</g>
<g>
</g>
<g>
</g>
<g>
</g>
<g>
</g>
<g>
</g>
<g>
</g>
<g>
</g>
<g>
</g>
<g>
</g>
<g>
</g>
<g>
</g>
</svg>
