<?xml version="1.0" encoding="iso-8859-1"?>
<!-- Generator: Adobe Illustrator 19.0.0, SVG Export Plug-In . SVG Version: 6.00 Build 0)  -->
<svg version="1.1" id="Capa_1" xmlns="http://www.w3.org/2000/svg" xmlns:xlink="http://www.w3.org/1999/xlink" x="0px" y="0px"
	 viewBox="0 0 512 512" style="enable-background:new 0 0 512 512;" xml:space="preserve">
<g>
	<rect x="36" y="10" style="fill:#D1F1FF;" width="120" height="160"/>
	<rect x="356" y="10" style="fill:#D1F1FF;" width="120" height="160"/>
</g>
<path style="fill:#FF5249;" d="M476,170v112c0,121.5-98.5,220-220,220S36,403.5,36,282V170h120v112c0,55.23,44.77,100,100,100
	s100-44.77,100-100V170H476z"/>
<path d="M436,252c5.52,0,10-4.48,10-10s-4.48-10-10-10s-10,4.48-10,10S430.48,252,436,252z"/>
<path d="M76,100h10v10c0,5.522,4.478,10,10,10s10-4.478,10-10v-10h10c5.522,0,10-4.478,10-10s-4.478-10-10-10h-10V70
	c0-5.522-4.478-10-10-10s-10,4.478-10,10v10H76c-5.522,0-10,4.478-10,10S70.478,100,76,100z"/>
<path d="M396,100h40c5.522,0,10-4.478,10-10s-4.478-10-10-10h-40c-5.522,0-10,4.478-10,10S390.478,100,396,100z"/>
<path d="M166,10c0-5.522-4.478-10-10-10H36c-5.522,0-10,4.478-10,10v272c0,127.115,102.875,230,230,230
	c127.115,0,230-102.875,230-230V10c0-5.522-4.478-10-10-10H356c-5.522,0-10,4.478-10,10v272c0,49.626-40.374,90-90,90
	s-90-40.374-90-90V10z M146,20v140H46V20H146z M466,20v140H366V20H466z M256,392c60.654,0,110-49.346,110-110V180h100v102
	c0,115.794-94.206,210-210,210S46,397.794,46,282V180h100v102C146,342.654,195.346,392,256,392z"/>
<path d="M390.352,416.352C426.237,380.465,446,332.751,446,282c0-5.522-4.478-10-10-10s-10,4.478-10,10
	c0,45.409-17.683,88.101-49.791,120.209c-3.905,3.905-3.905,10.237,0,14.143C380.116,420.257,386.445,420.256,390.352,416.352z"/>
<path d="M250.453,138.32c3.069,2.048,7.019,2.235,10.266,0.496c3.251-1.74,5.281-5.129,5.281-8.816V68.686l44.453,29.635
	c4.594,3.063,10.803,1.822,13.867-2.773c3.063-4.595,1.822-10.804-2.773-13.867l-60-40c-3.067-2.046-7.013-2.238-10.266-0.496
	C248.03,42.924,246,46.313,246,50v61.314L201.547,81.68c-4.596-3.063-10.804-1.823-13.867,2.773
	c-3.063,4.595-1.822,10.804,2.773,13.867L250.453,138.32z"/>
<g>
</g>
<g>
</g>
<g>
</g>
<g>
</g>
<g>
</g>
<g>
</g>
<g>
</g>
<g>
</g>
<g>
</g>
<g>
</g>
<g>
</g>
<g>
</g>
<g>
</g>
<g>
</g>
<g>
</g>
</svg>
