<?xml version="1.0" encoding="iso-8859-1"?>
<!-- Generator: Adobe Illustrator 19.0.0, SVG Export Plug-In . SVG Version: 6.00 Build 0)  -->
<svg version="1.1" id="Capa_1" xmlns="http://www.w3.org/2000/svg" xmlns:xlink="http://www.w3.org/1999/xlink" x="0px" y="0px"
	 viewBox="0 0 512 512" style="enable-background:new 0 0 512 512;" xml:space="preserve">
<path style="fill:#4D5578;" d="M342,90H50c-22.09,0-40,17.91-40,40v332c0,22.09,17.91,40,40,40h292c22.09,0,40-17.91,40-40V130
	C382,107.91,364.09,90,342,90z"/>
<path style="fill:#FF5249;" d="M472,30c-11.05,0-20,8.95-20,20v27.64l0.01,0.01h39.98l0.01-0.01V50C492,38.95,483.05,30,472,30z"/>
<g>
	<path style="fill:#FFFFFF;" d="M502,100v90h-60v-90c0-16.785,13.689-30,30-30C488.557,70,502,83.438,502,100z"/>
	<path style="fill:#FFFFFF;" d="M442,402h60c0,25.96-8.42,51.23-24,72l-6,8l-6-8C450.42,453.23,442,427.96,442,402z"/>
</g>
<g>
	<rect x="442" y="190" style="fill:#FF5249;" width="60" height="212"/>
	<path style="fill:#FF5249;" d="M296,90v40H96V90c0-11.05,8.95-20,20-20h45.56c-3.44-5.91-5.56-12.68-5.56-20
		c0-22.06,17.94-40,40-40s40,17.94,40,40c0,7.32-2.12,14.09-5.56,20H276C287.05,70,296,78.95,296,90z"/>
</g>
<rect x="50" y="130" style="fill:#FFFFFF;" width="292" height="332"/>
<path d="M196,60c5.52,0,10-4.48,10-10s-4.48-10-10-10s-10,4.48-10,10S190.48,60,196,60z"/>
<path d="M116,220c5.52,0,10-4.48,10-10s-4.48-10-10-10s-10,4.48-10,10S110.48,220,116,220z"/>
<path d="M116,280c5.52,0,10-4.48,10-10s-4.48-10-10-10s-10,4.48-10,10S110.48,280,116,280z"/>
<path d="M116,342c5.52,0,10-4.48,10-10s-4.48-10-10-10s-10,4.48-10,10S110.48,342,116,342z"/>
<path d="M116,402c5.52,0,10-4.48,10-10s-4.48-10-10-10s-10,4.48-10,10S110.48,402,116,402z"/>
<path d="M472,512c5.522,0,10-4.478,10-10v-16.667l3.999-5.332C502.767,457.649,512,429.948,512,402V100
	c0-9.837-3.539-19.128-10-26.44V50c0-16.542-13.458-30-30-30s-30,13.458-30,30v23.573c-6.397,7.251-10,16.644-10,26.427v302
	c0,27.948,9.233,55.649,26,78l4,5.333V502C462,507.522,466.478,512,472,512z M452,200h40v192h-40V200z M452,100
	c0-10.982,8.945-20,20-20c10.769,0,20,8.711,20,20v80h-40V100z M472,40c5.514,0,10,4.486,10,10v11.28
	c-3.24-0.837-6.596-1.28-10-1.28c-3.405,0-6.76,0.442-10,1.279V50C462,44.486,466.486,40,472,40z M452.464,411.9h39.072
	c-1.767,19.053-8.534,37.667-19.536,53.344C460.998,449.568,454.23,430.953,452.464,411.9z"/>
<path d="M156,220h120c5.522,0,10-4.478,10-10s-4.478-10-10-10H156c-5.522,0-10,4.478-10,10S150.478,220,156,220z"/>
<path d="M0,462c0,27.57,22.43,50,50,50h292c27.57,0,50-22.43,50-50V130c0-27.57-22.43-50-50-50h-37.72
	c-4.128-11.639-15.243-20-28.28-20h-31.047c0.696-3.279,1.047-6.617,1.047-10c0-27.57-22.43-50-50-50s-50,22.43-50,50
	c0,3.383,0.351,6.721,1.047,10H116c-13.036,0-24.152,8.361-28.28,20H50c-27.57,0-50,22.43-50,50V462z M332,140v312H60V140H332z
	 M116,80h45.56c3.579,0,6.885-1.912,8.669-5.015s1.774-6.922-0.026-10.016C167.414,60.179,166,55.142,166,50
	c0-16.542,13.458-30,30-30s30,13.458,30,30c0,5.142-1.414,10.179-4.202,14.97c-1.801,3.094-1.811,6.913-0.026,10.016
	S226.861,80,230.44,80H276c5.514,0,10,4.486,10,10v30H106V90C106,84.486,110.486,80,116,80z M20,130c0-16.542,13.458-30,30-30h36v20
	H50c-5.522,0-10,4.478-10,10v332c0,5.522,4.478,10,10,10h292c5.522,0,10-4.478,10-10V130c0-5.522-4.478-10-10-10h-36v-20h36
	c16.542,0,30,13.458,30,30v332c0,16.542-13.458,30-30,30H50c-16.542,0-30-13.458-30-30V130z"/>
<path d="M156,280h120c5.522,0,10-4.478,10-10s-4.478-10-10-10H156c-5.522,0-10,4.478-10,10S150.478,280,156,280z"/>
<path d="M156,342h120c5.522,0,10-4.478,10-10s-4.478-10-10-10H156c-5.522,0-10,4.478-10,10S150.478,342,156,342z"/>
<path d="M156,402h120c5.522,0,10-4.478,10-10s-4.478-10-10-10H156c-5.522,0-10,4.478-10,10S150.478,402,156,402z"/>
<g>
</g>
<g>
</g>
<g>
</g>
<g>
</g>
<g>
</g>
<g>
</g>
<g>
</g>
<g>
</g>
<g>
</g>
<g>
</g>
<g>
</g>
<g>
</g>
<g>
</g>
<g>
</g>
<g>
</g>
</svg>
