<?xml version="1.0" encoding="iso-8859-1"?>
<!-- Generator: Adobe Illustrator 19.0.0, SVG Export Plug-In . SVG Version: 6.00 Build 0)  -->
<svg version="1.1" id="Capa_1" xmlns="http://www.w3.org/2000/svg" xmlns:xlink="http://www.w3.org/1999/xlink" x="0px" y="0px"
	 viewBox="0 0 512 512" style="enable-background:new 0 0 512 512;" xml:space="preserve">
<path style="fill:#4AB5A7;" d="M464.92,443.28c14.1,26.64-5.21,58.72-35.36,58.72H82.44c-30.15,0-49.46-32.08-35.36-58.72
	l91.37-148.03c2.77,1.68,5.47,3.7,8.05,6.06c18.17,16.57,41.83,16.57,60,0s41.83-16.57,60,0s41.83,16.57,60,0
	c13.44-12.26,29.88-15.45,44.88-9.57L464.92,443.28z"/>
<g>
	<path style="fill:#FFFFFF;" d="M356,402c11.05,0,20,8.95,20,20s-8.95,20-20,20s-20-8.95-20-20S344.95,402,356,402z"/>
	<path style="fill:#FFFFFF;" d="M196,362c11.05,0,20,8.95,20,20s-8.95,20-20,20s-20-8.95-20-20S184.95,362,196,362z"/>
</g>
<path style="fill:#D1F1FF;" d="M196,70c-16.57,0-30-13.43-30-30s13.43-30,30-30h120c16.57,0,30,13.43,30,30s-13.43,30-30,30v114.98
	c0,11.13,3.1,22.04,8.94,31.51l46.44,75.25c-15-5.88-31.44-2.69-44.88,9.57c-18.17,16.57-41.83,16.57-60,0s-41.83-16.57-60,0
	s-41.83,16.57-60,0c-2.58-2.36-5.28-4.38-8.05-6.06l48.61-78.76c5.84-9.47,8.94-20.38,8.94-31.51V70z"/>
<path d="M296,352c-5.52,0-10,4.48-10,10s4.48,10,10,10s10-4.48,10-10S301.52,352,296,352z"/>
<path d="M276,212c5.52,0,10-4.48,10-10s-4.48-10-10-10s-10,4.48-10,10S270.48,212,276,212z"/>
<path d="M256,432c-5.52,0-10,4.48-10,10s4.48,10,10,10c5.52,0,10-4.48,10-10S261.52,432,256,432z"/>
<path d="M136,432c-5.52,0-10,4.48-10,10s4.48,10,10,10s10-4.48,10-10S141.52,432,136,432z"/>
<path d="M178.55,211.238L38.571,438.028c-0.116,0.188-0.226,0.379-0.329,0.574c-8.278,15.64-7.77,34.027,1.358,49.188
	C48.729,502.949,64.744,512,82.44,512h347.12c17.696,0,33.711-9.051,42.84-24.21c9.128-15.16,9.636-33.548,1.358-49.188
	c-0.104-0.195-0.213-0.387-0.329-0.575c-1.533-2.483-139.892-226.647-139.978-226.786c-4.875-7.905-7.452-16.986-7.452-26.261
	V78.734c17.233-4.452,30-20.13,30-38.734c0-22.056-17.944-40-40-40H196c-22.056,0-40,17.944-40,40c0,18.604,12.767,34.282,30,38.734
	V184.98C186,194.255,183.423,203.336,178.55,211.238z M455.266,477.473C449.789,486.569,440.179,492,429.56,492H82.44
	c-10.619,0-20.229-5.431-25.706-14.527c-5.425-9.009-5.776-19.917-0.958-29.242l85.374-138.319
	c10.678,9.204,23.01,13.817,35.35,13.817c12.874,0,25.752-5.012,36.738-15.03c14.349-13.084,32.176-13.083,46.523,0
	c21.975,20.042,51.502,20.039,73.478-0.001c9.591-8.749,20.679-11.742,31.528-8.632l91.457,148.166
	C461.042,457.556,460.691,468.464,455.266,477.473z M176,40c0-11.028,8.972-20,20-20h120c11.028,0,20,8.972,20,20s-8.972,20-20,20
	h-20c-5.523,0-10,4.478-10,10s4.477,10,10,10h10v104.98c0,12.983,3.606,25.694,10.43,36.762l35.43,57.41
	c-11.436,1.094-22.61,6.114-32.098,14.769c-14.348,13.084-32.174,13.085-46.523,0c-21.975-20.039-51.502-20.039-73.477,0
	c-14.348,13.086-32.174,13.085-46.513,0.009c-0.476-0.435-0.966-0.848-1.453-1.266l43.776-70.924
	C202.394,210.675,206,197.964,206,184.98V80h10c5.523,0,10-4.478,10-10s-4.477-10-10-10h-20C184.972,60,176,51.028,176,40z"/>
<path d="M196,352c-16.542,0-30,13.458-30,30s13.458,30,30,30s30-13.458,30-30S212.542,352,196,352z M196,392
	c-5.514,0-10-4.486-10-10s4.486-10,10-10s10,4.486,10,10S201.514,392,196,392z"/>
<path d="M356,392c-16.542,0-30,13.458-30,30s13.458,30,30,30s30-13.458,30-30S372.542,392,356,392z M356,432
	c-5.514,0-10-4.486-10-10s4.486-10,10-10s10,4.486,10,10S361.514,432,356,432z"/>
<path d="M276,172c5.523,0,10-4.478,10-10v-52c0-5.522-4.477-10-10-10s-10,4.478-10,10v52C266,167.522,270.477,172,276,172z"/>
<g>
</g>
<g>
</g>
<g>
</g>
<g>
</g>
<g>
</g>
<g>
</g>
<g>
</g>
<g>
</g>
<g>
</g>
<g>
</g>
<g>
</g>
<g>
</g>
<g>
</g>
<g>
</g>
<g>
</g>
</svg>
