<?xml version="1.0" encoding="iso-8859-1"?>
<!-- Generator: Adobe Illustrator 19.0.0, SVG Export Plug-In . SVG Version: 6.00 Build 0)  -->
<svg version="1.1" id="Capa_1" xmlns="http://www.w3.org/2000/svg" xmlns:xlink="http://www.w3.org/1999/xlink" x="0px" y="0px"
	 viewBox="0 0 512 512" style="enable-background:new 0 0 512 512;" xml:space="preserve">
<path style="fill:#4D5578;" d="M290.994,60c13.81,0,25,11.19,25,25s-11.19,25-25,25h-55V35c0,13.81,11.19,25,25,25H290.994z"/>
<path style="fill:#FF5249;" d="M455.994,10h-195c-13.81,0-25,11.19-25,25s11.19,25,25,25h30c13.81,0,25,11.19,25,25s-11.19,25-25,25
	h-55h-100v200h160c11.05,0,20-8.95,20-20v-80h140l-60-100L455.994,10z"/>
<path style="fill:#9E7554;" d="M135.994,502h-40V90c0-11.05,8.95-20,20-20c11.04,0,20,8.96,20,20
	C135.994,96.482,135.994,495.606,135.994,502z"/>
<path d="M275.994,260c-5.52,0-10,4.48-10,10s4.48,10,10,10s10-4.48,10-10S281.514,260,275.994,260z"/>
<path d="M455.994,0h-195c-18.57,0-33.802,14.54-34.926,32.832c-0.045,0.384-0.074,0.772-0.074,1.168v66h-80V90
	c0-16.575-13.425-30-30-30c-16.542,0-30,13.458-30,30v402h-30c-5.522,0-10,4.478-10,10s4.478,10,10,10h120c5.522,0,10-4.478,10-10
	s-4.478-10-10-10h-30V320h150c16.542,0,30-13.458,30-30v-70h130c7.763,0,12.569-8.489,8.575-15.145L407.656,110l56.913-94.855
	C468.564,8.487,463.755,0,455.994,0z M245.994,66.616c4.549,2.167,9.635,3.384,15,3.384h30c8.271,0,15,6.729,15,15s-6.729,15-15,15
	h-45L245.994,66.616L245.994,66.616z M105.994,492V90c0-5.514,4.486-10,10-10c5.52,0,10,4.479,10,10v402H105.994z M305.994,290
	c0,5.514-4.486,10-10,10h-150V120h145c5.365,0,10.451-1.217,15-3.384V290z M387.419,104.855c-1.899,3.166-1.899,7.123,0,10.289
	L438.332,200H325.994V85c0-19.299-15.701-35-35-35h-30c-8.271,0-15-6.729-15-15s6.729-15,15-15h177.338L387.419,104.855z"/>
<path d="M275.994,140c-5.522,0-10,4.478-10,10v80c0,5.522,4.478,10,10,10s10-4.478,10-10v-80
	C285.994,144.478,281.516,140,275.994,140z"/>
<g>
</g>
<g>
</g>
<g>
</g>
<g>
</g>
<g>
</g>
<g>
</g>
<g>
</g>
<g>
</g>
<g>
</g>
<g>
</g>
<g>
</g>
<g>
</g>
<g>
</g>
<g>
</g>
<g>
</g>
</svg>
