<?xml version="1.0" encoding="iso-8859-1"?>
<!-- Generator: Adobe Illustrator 19.0.0, SVG Export Plug-In . SVG Version: 6.00 Build 0)  -->
<svg version="1.1" id="Capa_1" xmlns="http://www.w3.org/2000/svg" xmlns:xlink="http://www.w3.org/1999/xlink" x="0px" y="0px"
	 viewBox="0 0 512 512" style="enable-background:new 0 0 512 512;" xml:space="preserve">
<path style="fill:#FF5249;" d="M502,30v226h-86v37.86c0,19.92-13.62,38.39-33.28,41.59C357.66,339.53,336,320.29,336,296v-40h-80
	v-80h37.86c19.93,0,38.39-13.62,41.59-33.28C339.53,117.66,320.29,96,296,96h-40V10h226C493.05,10,502,18.95,502,30z"/>
<path style="fill:#7BD8E8;" d="M502,256v226c0,11.05-8.95,20-20,20H256v-86h-40c-24.29,0-43.53-21.66-39.45-46.72
	c3.2-19.66,21.66-33.28,41.59-33.28H256v-80h80v40c0,24.29,21.66,43.53,46.72,39.45c19.66-3.2,33.28-21.67,33.28-41.59V256H502z"/>
<path style="fill:#4AB5A7;" d="M296,96c24.29,0,43.53,21.66,39.45,46.72c-3.2,19.66-21.66,33.28-41.59,33.28H256v80h-80v-37.86
	c0-19.93-13.62-38.39-33.28-41.59C117.66,172.47,96,191.71,96,216v40H30c-11.05,0-20,8.95-20,20V30c0-11.05,8.95-20,20-20h226v86
	H296z"/>
<path style="fill:#FFDD78;" d="M256,416v86H30c-11.05,0-20-8.95-20-20V286v-10c0-11.05,8.95-20,20-20h66v-40
	c0-24.29,21.66-43.53,46.72-39.45c19.66,3.2,33.28,21.66,33.28,41.59V256h80v80h-37.86c-19.93,0-38.39,13.62-41.59,33.28
	C172.47,394.34,191.71,416,216,416H256z"/>
<path d="M462,366c5.52,0,10-4.48,10-10s-4.48-10-10-10s-10,4.48-10,10S456.48,366,462,366z"/>
<path d="M482,0C469.248,0,42.745,0,30,0C13.458,0,0,13.458,0,30c0,14.949,0,436.772,0,452c0,16.542,13.458,30,30,30
	c12.752,0,439.255,0,452,0c16.542,0,30-13.458,30-30c0-12.752,0-439.255,0-452C512,13.458,498.542,0,482,0z M492,30v216h-76
	c-5.522,0-10,4.478-10,10v37.86c0,15.773-10.699,29.41-24.888,31.72C361.878,328.707,346,313.884,346,296v-40
	c0-5.522-4.478-10-10-10h-70v-60h27.86c25.47,0,47.593-17.916,51.46-41.673C350.319,113.622,326.869,86,296,86h-30V20h216
	C487.514,20,492,24.486,492,30z M30,20h216v76c0,5.522,4.478,10,10,10h40c17.959,0,32.7,15.947,29.58,35.113
	C323.271,155.301,309.634,166,293.86,166H256c-5.522,0-10,4.478-10,10v70h-60v-27.86c0-25.47-17.916-47.593-41.673-51.46
	C113.68,161.691,86,185.073,86,216v30H30c-3.506,0-6.87,0.61-10,1.72V30C20,24.486,24.486,20,30,20z M20,482c0-7.069,0-193.95,0-206
	c0-5.514,4.486-10,10-10h66c5.522,0,10-4.478,10-10v-40c0-17.906,15.902-32.708,35.113-29.58C155.301,188.73,166,202.366,166,218.14
	V256c0,5.522,4.478,10,10,10h70v60h-27.86c-25.47,0-47.593,17.916-51.46,41.673C161.681,398.378,185.131,426,216,426h30v66H30
	C24.486,492,20,487.514,20,482z M492,482c0,5.514-4.486,10-10,10H266v-76c0-5.522-4.478-10-10-10h-40
	c-17.959,0-32.7-15.947-29.58-35.113C188.73,356.699,202.366,346,218.14,346H256c5.522,0,10-4.478,10-10v-70h60v30
	c0,30.674,27.418,54.356,58.326,49.32C408.084,341.453,426,319.33,426,293.86V266h66V482z"/>
<path d="M462,466c5.522,0,10-4.478,10-10v-60c0-5.522-4.478-10-10-10s-10,4.478-10,10v60C452,461.522,456.478,466,462,466z"/>
<g>
</g>
<g>
</g>
<g>
</g>
<g>
</g>
<g>
</g>
<g>
</g>
<g>
</g>
<g>
</g>
<g>
</g>
<g>
</g>
<g>
</g>
<g>
</g>
<g>
</g>
<g>
</g>
<g>
</g>
</svg>
