<?xml version="1.0" encoding="iso-8859-1"?>
<!-- Generator: Adobe Illustrator 19.0.0, SVG Export Plug-In . SVG Version: 6.00 Build 0)  -->
<svg version="1.1" id="Capa_1" xmlns="http://www.w3.org/2000/svg" xmlns:xlink="http://www.w3.org/1999/xlink" x="0px" y="0px"
	 viewBox="0 0 512 512" style="enable-background:new 0 0 512 512;" xml:space="preserve">
<g>
	<path style="fill:#7BD8E8;" d="M456,266h-80c0-22.079,17.919-40,40-40C438.079,226,456,243.919,456,266z"/>
	<path style="fill:#7BD8E8;" d="M136,266H56c0-22.079,17.919-40,40-40C118.079,226,136,243.919,136,266z"/>
	<path style="fill:#7BD8E8;" d="M502,306v120H10V306H502z"/>
</g>
<g>
	<path style="fill:#4D5578;" d="M10,426h492c0,22.09-17.91,40-40,40H50C27.91,466,10,448.09,10,426z"/>
	<path style="fill:#4D5578;" d="M502,306H10c0-22.09,17.91-40,40-40c49.528,0,363.214,0,412,0C484.09,266,502,283.91,502,306z"/>
</g>
<path style="fill:#7BD8E8;" d="M256,166c11.05,0,20,8.95,20,20s-8.95,20-20,20c-11.05,0-20-8.95-20-20S244.95,166,256,166z"/>
<path d="M442,356c-5.52,0-10,4.48-10,10s4.48,10,10,10s10-4.48,10-10S447.52,356,442,356z"/>
<path d="M402,356c-5.52,0-10,4.48-10,10s4.48,10,10,10s10-4.48,10-10S407.52,356,402,356z"/>
<path d="M362,356c-5.52,0-10,4.48-10,10s4.48,10,10,10s10-4.48,10-10S367.52,356,362,356z"/>
<path d="M236,356c-5.52,0-10,4.48-10,10s4.48,10,10,10s10-4.48,10-10S241.52,356,236,356z"/>
<path d="M465.023,256.1c-3.908-19.536-19.349-35.124-39.023-39.101V66c0-5.522-4.478-10-10-10s-10,4.478-10,10v150.999
	c-19.569,3.956-35.046,19.433-39,39.001H145c-3.955-19.569-19.433-35.045-39-39.001V66c0-5.522-4.478-10-10-10s-10,4.478-10,10
	v150.999c-19.522,3.946-35.086,19.415-39.023,39.101C20.81,257.669,0,279.446,0,306v120c0,27.57,22.43,50,50,50h412
	c27.57,0,50-22.43,50-50V306C512,279.446,491.19,257.669,465.023,256.1z M20,316h472v100H20V316z M416,236
	c13.313,0,24.278,8.606,28.298,20h-56.596C391.727,244.595,402.699,236,416,236z M96,236c13.313,0,24.278,8.606,28.298,20H67.702
	C71.727,244.595,82.699,236,96,236z M50,276c49.528,0,363.214,0,412,0c13.036,0,24.152,8.361,28.28,20H21.72
	C25.848,284.361,36.964,276,50,276z M462,456H50c-13.036,0-24.152-8.461-28.28-20.1h468.56C486.152,447.539,475.036,456,462,456z"/>
<path d="M196,356H70c-5.522,0-10,4.478-10,10s4.478,10,10,10h126c5.522,0,10-4.478,10-10S201.522,356,196,356z"/>
<path d="M361.75,110.483c3.201,4.467,9.44,5.538,13.953,2.307c4.489-3.216,5.522-9.463,2.307-13.953
	C349.827,59.49,304.217,36,256,36s-93.827,23.49-122.01,62.837c-3.216,4.49-2.183,10.737,2.307,13.953
	c4.493,3.218,10.738,2.183,13.953-2.307C174.686,76.367,214.218,56,256,56S337.314,76.367,361.75,110.483z"/>
<path d="M329.211,133.724c3.205,4.476,9.449,5.532,13.952,2.306c4.49-3.216,5.522-9.463,2.306-13.952
	C324.801,93.225,291.354,76,256,76s-68.801,17.225-89.469,46.077c-3.217,4.489-2.185,10.736,2.306,13.952
	c4.49,3.217,10.737,2.185,13.952-2.306C199.711,110.103,227.079,96,256,96S312.289,110.103,329.211,133.724z"/>
<path d="M296.681,156.965c3.195,4.458,9.433,5.541,13.954,2.304c4.489-3.218,5.521-9.465,2.304-13.954
	C299.784,126.959,278.499,116,256,116s-43.784,10.959-56.938,29.314c-3.217,4.489-2.186,10.736,2.304,13.954
	c4.489,3.215,10.736,2.184,13.954-2.304C224.726,143.837,239.934,136,256,136S287.274,143.837,296.681,156.965z"/>
<path d="M226,186c0,16.542,13.458,30,30,30s30-13.458,30-30s-13.458-30-30-30S226,169.458,226,186z M266,186c0,5.514-4.486,10-10,10
	s-10-4.486-10-10s4.486-10,10-10S266,180.486,266,186z"/>
<g>
</g>
<g>
</g>
<g>
</g>
<g>
</g>
<g>
</g>
<g>
</g>
<g>
</g>
<g>
</g>
<g>
</g>
<g>
</g>
<g>
</g>
<g>
</g>
<g>
</g>
<g>
</g>
<g>
</g>
</svg>
