<?xml version="1.0" encoding="iso-8859-1"?>
<!-- Generator: Adobe Illustrator 19.0.0, SVG Export Plug-In . SVG Version: 6.00 Build 0)  -->
<svg version="1.1" id="Capa_1" xmlns="http://www.w3.org/2000/svg" xmlns:xlink="http://www.w3.org/1999/xlink" x="0px" y="0px"
	 viewBox="0 0 512 512" style="enable-background:new 0 0 512 512;" xml:space="preserve">
<path style="fill:#FF5249;" d="M436,262v220c0,11.05-8.95,20-20,20H96c-11.05,0-20-8.95-20-20V262c0-11.05,8.95-20,20-20
	c9.226,0,304.404,0,320,0C427.05,242,436,250.95,436,262z"/>
<path style="fill:#D1F1FF;" d="M166,372c0-49.705,40.279-90,90-90c49.705,0,90,40.279,90,90c0,49.705-40.279,90-90,90
	C206.295,462,166,421.721,166,372z"/>
<path style="fill:#4D5578;" d="M256,352c11.05,0,20,8.95,20,20s-8.95,20-20,20c-11.05,0-20-8.95-20-20S244.95,352,256,352z"/>
<path style="fill:#D1F1FF;" d="M396,150v92h-60v-92c0-44.11-35.89-80-80-80s-80,35.89-80,80v92h-60v-92c0-77.32,62.68-140,140-140
	C333.33,10,396,72.677,396,150z"/>
<path d="M386,372c0,5.52,4.48,10,10,10s10-4.48,10-10s-4.48-10-10-10S386,366.48,386,372z"/>
<path d="M256,0c-82.71,0-150,67.29-150,150v82H96c-16.542,0-30,13.458-30,30v220c0,16.542,13.458,30,30,30h320
	c16.542,0,30-13.458,30-30V262c0-16.542-13.458-30-30-30h-10v-82C406,67.079,338.904,0,256,0z M126,150c0-71.683,58.317-130,130-130
	c71.866,0,130,58.148,130,130v82h-40v-82c0-49.626-40.374-90-90-90s-90,40.374-90,90v82h-40V150z M186,232v-82
	c0-38.598,31.402-70,70-70s70,31.402,70,70v82H186z M426,262v220c0,5.514-4.486,10-10,10H96c-5.514,0-10-4.486-10-10V262
	c0-5.514,4.486-10,10-10c11.142,0,308.636,0,320,0C421.514,252,426,256.486,426,262z"/>
<path d="M256,272c-55.166,0-100,44.708-100,100c0,55.166,44.708,100,100,100c55.166,0,100-44.708,100-100
	C356,316.834,311.292,272,256,272z M326,381.9h9.361c-1.771,14.29-7.322,27.796-16.172,39.147l-6.618-6.618
	c-3.906-3.904-10.236-3.904-14.143,0c-3.905,3.905-3.905,10.237,0,14.143l6.619,6.619c-11.349,8.849-24.756,14.401-39.047,16.171
	V442c0-5.522-4.478-10-10-10s-10,4.478-10,10v9.361c-14.291-1.77-27.696-7.322-39.047-16.172l6.618-6.618
	c3.905-3.905,3.905-10.237,0-14.143c-3.906-3.904-10.236-3.904-14.143,0l-6.619,6.619c-8.849-11.349-14.401-24.756-16.171-39.047
	H186c5.522,0,10-4.478,10-10s-4.478-10-10-10h-9.361c1.771-14.29,7.322-27.696,16.172-39.047l6.618,6.618
	c3.907,3.905,10.236,3.904,14.143,0c3.905-3.905,3.905-10.237,0-14.143l-6.619-6.619c11.349-8.849,24.756-14.401,39.047-16.171V302
	c0,5.522,4.478,10,10,10s10-4.478,10-10v-9.361c14.291,1.77,27.696,7.322,39.047,16.172l-6.618,6.618
	c-3.905,3.905-3.905,10.237,0,14.143c3.907,3.905,10.236,3.904,14.143,0l6.619-6.619c8.849,11.349,14.401,24.756,16.171,39.047H326
	c-5.522,0-10,4.478-10,10S320.478,381.9,326,381.9z"/>
<path d="M256,342c-16.542,0-30,13.458-30,30s13.458,30,30,30s30-13.458,30-30S272.542,342,256,342z M256,382
	c-5.514,0-10-4.486-10-10s4.486-10,10-10s10,4.486,10,10S261.514,382,256,382z"/>
<path d="M396,402c-5.522,0-10,4.478-10,10v50c0,5.522,4.478,10,10,10s10-4.478,10-10v-50C406,406.478,401.522,402,396,402z"/>
<g>
</g>
<g>
</g>
<g>
</g>
<g>
</g>
<g>
</g>
<g>
</g>
<g>
</g>
<g>
</g>
<g>
</g>
<g>
</g>
<g>
</g>
<g>
</g>
<g>
</g>
<g>
</g>
<g>
</g>
</svg>
