<?xml version="1.0" encoding="iso-8859-1"?>
<!-- Generator: Adobe Illustrator 19.0.0, SVG Export Plug-In . SVG Version: 6.00 Build 0)  -->
<svg version="1.1" id="Capa_1" xmlns="http://www.w3.org/2000/svg" xmlns:xlink="http://www.w3.org/1999/xlink" x="0px" y="0px"
	 viewBox="0 0 512 512" style="enable-background:new 0 0 512 512;" xml:space="preserve">
<path style="fill:#FFFFFF;" d="M376,46v260c0,11.05-8.95,20-20,20h-60l-40,60l-40-60h-60c-11.05,0-20-8.95-20-20V46
	c0-11.05,8.95-20,20-20h200C367.05,26,376,34.95,376,46z"/>
<rect x="10" y="426" style="fill:#7BD8E8;" width="366" height="60"/>
<rect x="376" y="426" style="fill:#4D5578;" width="126" height="60"/>
<g>
	<path style="fill:#FF5249;" d="M316,206v20H196v-20c0-33.14,26.86-60,60-60S316,172.86,316,206z"/>
	<circle style="fill:#FF5249;" cx="256" cy="106" r="40"/>
</g>
<path d="M316,276c-5.52,0-10,4.48-10,10s4.48,10,10,10s10-4.48,10-10S321.52,276,316,276z"/>
<path d="M502,416H10c-5.523,0-10,4.478-10,10v60c0,5.522,4.477,10,10,10h492c5.523,0,10-4.478,10-10v-60
	C512,420.478,507.523,416,502,416z M20,436h346v40H20V436z M492,476H386v-40h106V476z"/>
<path d="M288.441,144.001C299.176,134.823,306,121.198,306,106c0-27.57-22.43-50-50-50s-50,22.43-50,50
	c0,15.198,6.824,28.823,17.559,38.001C201.255,155.719,186,179.105,186,206v20c0,5.522,4.477,10,10,10h120c5.523,0,10-4.478,10-10
	v-20C326,179.105,310.745,155.719,288.441,144.001z M226,106c0-16.542,13.458-30,30-30s30,13.458,30,30s-13.458,30-30,30
	S226,122.542,226,106z M306,216H206v-10c0-27.57,22.43-50,50-50s50,22.43,50,50V216z"/>
<path d="M156,16c-16.542,0-30,13.458-30,30v260c0,16.542,13.458,30,30,30h54.648l37.032,55.547c1.854,2.782,4.977,4.453,8.32,4.453
	c3.343,0,6.466-1.671,8.32-4.453L301.352,336H356c16.542,0,30-13.458,30-30V46c0-16.542-13.458-30-30-30H156z M366,46v260
	c0,5.514-4.486,10-10,10h-60c-3.343,0-6.466,1.671-8.32,4.453L256,367.973l-31.68-47.52c-1.854-2.782-4.977-4.453-8.32-4.453h-60
	c-5.514,0-10-4.486-10-10V46c0-5.514,4.486-10,10-10h200C361.514,36,366,40.486,366,46z"/>
<path d="M276,276h-80c-5.523,0-10,4.478-10,10s4.477,10,10,10h80c5.523,0,10-4.478,10-10S281.523,276,276,276z"/>
<g>
</g>
<g>
</g>
<g>
</g>
<g>
</g>
<g>
</g>
<g>
</g>
<g>
</g>
<g>
</g>
<g>
</g>
<g>
</g>
<g>
</g>
<g>
</g>
<g>
</g>
<g>
</g>
<g>
</g>
</svg>
