<?xml version="1.0" encoding="iso-8859-1"?>
<!-- Generator: Adobe Illustrator 19.0.0, SVG Export Plug-In . SVG Version: 6.00 Build 0)  -->
<svg version="1.1" id="Capa_1" xmlns="http://www.w3.org/2000/svg" xmlns:xlink="http://www.w3.org/1999/xlink" x="0px" y="0px"
	 viewBox="0 0 512 512" style="enable-background:new 0 0 512 512;" xml:space="preserve">
<path style="fill:#D1F1FF;" d="M412,130c-11.34,0-22.08,2.33-32.07,6.15C368.48,64.67,300.71,10,226,10
	C151.92,10,84.58,63.74,72.36,134.33c-0.03,0.16-0.05,0.31-0.08,0.47C36.23,146.55,10,180.03,10,220c0,49.71,40.29,90,90,90h312
	c49.71,0,90-40.29,90-90S461.71,130,412,130z"/>
<polygon style="fill:#7BD8E8;" points="256,210 336,310 296,310 296,502 216,502 216,310 176,310 "/>
<path d="M150,60c-5.52,0-10,4.48-10,10s4.48,10,10,10s10-4.48,10-10S155.52,60,150,60z"/>
<path d="M412,120c-8.123,0-16.319,1.079-24.483,3.218C370.247,52.25,301.368,0,226,0C148.89,0,78.952,54.562,63.528,127.319
	C25.29,142.312,0,178.836,0,220c0,55.141,44.859,100,100,100c10.439,0,95.579,0,106,0v182c0,5.522,4.478,10,10,10h80
	c5.522,0,10-4.478,10-10V320c10.419,0,95.561,0,106,0c55.141,0,100-44.859,100-100S467.141,120,412,120z M296,300
	c-5.522,0-10,4.478-10,10v182h-60V310c0-5.522-4.478-10-10-10h-19.193L256,226.008L315.193,300H296z M412,300h-71.194
	l-76.998-96.247c-1.897-2.372-4.77-3.753-7.808-3.753s-5.911,1.381-7.809,3.753L171.194,300H100c-44.112,0-80-35.888-80-80
	c0-34.478,22.255-64.896,55.379-75.692c0.874-0.285,1.691-0.684,2.435-1.178C84.996,141.058,92.446,140,100,140
	c21.369,0,41.459,8.321,56.568,23.432c3.907,3.905,10.236,3.904,14.143,0c3.905-3.905,3.905-10.237,0-14.143
	C151.823,130.401,126.711,120,100,120c-4.776,0-9.518,0.353-14.205,1.021C103.412,63.296,162.07,20,226,20
	c67.407,0,128.419,47.678,142.535,109.915c-10.092,4.867-19.233,11.362-27.245,19.375c-3.905,3.905-3.905,10.236,0.001,14.142
	c3.903,3.905,10.237,3.905,14.142-0.001C371.051,147.812,392.668,140,412,140c44.112,0,80,35.888,80,80S456.112,300,412,300z"/>
<path d="M309.829,68.531C289.51,51.199,256.604,40,226,40c-11.772,0-29.905,1.703-41.897,5.443
	c-5.272,1.645-8.213,7.252-6.569,12.524c1.645,5.272,7.251,8.21,12.524,6.569C199.505,61.59,215.627,60,226,60
	c25.726,0,54.197,9.544,70.851,23.748c4.2,3.584,10.515,3.083,14.098-1.119C314.532,78.428,314.031,72.115,309.829,68.531z"/>
<g>
</g>
<g>
</g>
<g>
</g>
<g>
</g>
<g>
</g>
<g>
</g>
<g>
</g>
<g>
</g>
<g>
</g>
<g>
</g>
<g>
</g>
<g>
</g>
<g>
</g>
<g>
</g>
<g>
</g>
</svg>
