<?xml version="1.0" encoding="iso-8859-1"?>
<!-- Generator: Adobe Illustrator 19.0.0, SVG Export Plug-In . SVG Version: 6.00 Build 0)  -->
<svg version="1.1" id="Capa_1" xmlns="http://www.w3.org/2000/svg" xmlns:xlink="http://www.w3.org/1999/xlink" x="0px" y="0px"
	 viewBox="0 0 512 512" style="enable-background:new 0 0 512 512;" xml:space="preserve">
<path style="fill:#D1F1FF;" d="M412,130c-11.34,0-22.08,2.33-32.07,6.15C368.48,64.67,300.71,10,226,10
	C151.92,10,84.58,63.74,72.36,134.33c-0.03,0.16-0.05,0.31-0.08,0.47C36.23,146.55,10,186.03,10,226c0,49.71,40.29,84,90,84h312
	c49.71,0,90-40.29,90-90S461.71,130,412,130z"/>
<path style="fill:#7BD8E8;" d="M336,402l-80,100l-80-100h40c0-8.857,0-181.43,0-192h80c0,10.546,0,182.947,0,192H336z"/>
<path d="M150,60c-5.52,0-10,4.48-10,10s4.48,10,10,10s10-4.48,10-10S155.52,60,150,60z"/>
<path d="M412,120c-8.123,0-16.319,1.079-24.483,3.218C370.247,52.25,301.368,0,226,0C149.536,0,79.22,53.929,63.582,127.081
	c-0.308,0.198-0.6,0.413-0.88,0.641C25.43,143.385,0,184.632,0,226c0,53.589,42.99,94,100,94h106v72h-30
	c-3.844,0-7.348,2.203-9.013,5.668c-1.666,3.465-1.197,7.577,1.204,10.579l80,100c1.897,2.372,4.771,3.753,7.809,3.753
	c3.038,0,5.911-1.381,7.809-3.753l80-100c2.401-3.002,2.87-7.114,1.204-10.579C343.348,394.203,339.844,392,336,392h-30v-72h106
	c55.141,0,100-44.859,100-100S467.141,120,412,120z M315.193,412L256,485.992L196.807,412H216c5.522,0,10-4.478,10-10V220h60v182
	c0,5.522,4.478,10,10,10H315.193z M412,300H306v-90c0-5.522-4.478-10-10-10h-80c-5.522,0-10,4.478-10,10v90H100
	c-45.607,0-80-31.813-80-74c0-36.282,23.808-71.402,55.379-81.692c0.874-0.285,1.691-0.684,2.435-1.178
	C84.996,141.058,92.446,140,100,140c21.369,0,41.459,8.321,56.568,23.432c3.907,3.905,10.236,3.904,14.143,0
	c3.905-3.905,3.905-10.237,0-14.143C151.823,130.401,126.711,120,100,120c-4.777,0-9.52,0.354-14.205,1.021
	C103.412,63.296,162.07,20,226,20c67.416,0,128.435,47.691,142.54,109.94c-10.108,4.885-19.274,11.372-27.251,19.35
	c-3.905,3.905-3.905,10.237,0.001,14.142c3.903,3.905,10.237,3.905,14.142-0.001c12.201-12.201,22.828-15.573,25.327-17.331
	c4.29-0.356,13.652-6.1,31.241-6.1c44.112,0,80,35.888,80,80S456.112,300,412,300z"/>
<path d="M309.829,68.531C289.51,51.199,256.604,40,226,40c-11.772,0-29.905,1.703-41.897,5.443
	c-5.272,1.645-8.213,7.252-6.569,12.524c1.645,5.272,7.251,8.21,12.524,6.569C199.505,61.59,215.627,60,226,60
	c25.726,0,54.197,9.544,70.851,23.748c4.2,3.584,10.515,3.083,14.098-1.119C314.532,78.428,314.031,72.115,309.829,68.531z"/>
<g>
</g>
<g>
</g>
<g>
</g>
<g>
</g>
<g>
</g>
<g>
</g>
<g>
</g>
<g>
</g>
<g>
</g>
<g>
</g>
<g>
</g>
<g>
</g>
<g>
</g>
<g>
</g>
<g>
</g>
</svg>
