<?xml version="1.0" encoding="iso-8859-1"?>
<!-- Generator: Adobe Illustrator 19.0.0, SVG Export Plug-In . SVG Version: 6.00 Build 0)  -->
<svg version="1.1" id="Layer_1" xmlns="http://www.w3.org/2000/svg" xmlns:xlink="http://www.w3.org/1999/xlink" x="0px" y="0px"
	 viewBox="0 0 512 512" style="enable-background:new 0 0 512 512;" xml:space="preserve">
<polygon style="fill:#FF755C;" points="391.528,179.548 368.361,319.71 391.528,459.873 437.863,459.873 437.863,179.548 "/>
<rect x="11.583" y="179.548" style="fill:#FFB14E;" width="379.946" height="280.326"/>
<g>
	<path style="fill:#01121C;" d="M72.906,300.849h260.968c6.397,0,11.584-5.187,11.584-11.584c0-6.397-5.187-11.584-11.584-11.584
		H72.906c-6.397,0-11.584,5.187-11.584,11.584C61.322,295.661,66.509,300.849,72.906,300.849z"/>
	<path style="fill:#01121C;" d="M284.363,335.183H122.418c-6.397,0-11.584,5.187-11.584,11.584c0,6.397,5.187,11.584,11.584,11.584
		h161.946c6.397,0,11.584-5.187,11.584-11.584C295.948,340.37,290.76,335.183,284.363,335.183z"/>
	<path style="fill:#01121C;" d="M500.416,41.902c-6.397,0-11.584,5.187-11.584,11.584v49.128H356.669v-0.152
		c0-6.397-5.187-11.584-11.584-11.584c-6.397,0-11.584,5.187-11.584,11.584v0.152H73.28v-0.152c0-6.397-5.187-11.584-11.584-11.584
		s-11.584,5.187-11.584,11.584v0.152H11.584C5.187,102.613,0,107.8,0,114.197c0,6.397,5.187,11.584,11.584,11.584h38.529v40.153
		H11.584C5.187,165.933,0,171.12,0,177.517v280.998c0,6.397,5.187,11.584,11.584,11.584h383.614h43.024
		c6.397,0,11.584-5.187,11.584-11.584V177.517c0-6.397-5.187-11.584-11.584-11.584h-43.024h-38.529v-40.153h132.163v49.128
		c0,6.397,5.187,11.584,11.584,11.584c6.397,0,11.584-5.187,11.584-11.584V53.485C512,47.088,506.813,41.902,500.416,41.902z
		 M426.638,446.931h-19.857v-257.83h19.857V446.931z M383.614,446.931H23.167v-257.83h360.447V446.931z M333.502,165.933H73.28
		v-40.153h260.223v40.153H333.502z"/>
</g>
<g>
</g>
<g>
</g>
<g>
</g>
<g>
</g>
<g>
</g>
<g>
</g>
<g>
</g>
<g>
</g>
<g>
</g>
<g>
</g>
<g>
</g>
<g>
</g>
<g>
</g>
<g>
</g>
<g>
</g>
</svg>
