<?xml version="1.0" encoding="iso-8859-1"?>
<!-- Generator: Adobe Illustrator 19.0.0, SVG Export Plug-In . SVG Version: 6.00 Build 0)  -->
<svg version="1.1" id="Layer_1" xmlns="http://www.w3.org/2000/svg" xmlns:xlink="http://www.w3.org/1999/xlink" x="0px" y="0px"
	 viewBox="0 0 512 512" style="enable-background:new 0 0 512 512;" xml:space="preserve">
<polygon style="fill:#FFD86C;" points="364.671,236.631 169.04,236.631 156.324,302.494 377.387,302.494 "/>
<path style="fill:#FFB14E;" d="M446.595,291.358H98.069v41.92h348.527c11.576,0,20.961-9.384,20.961-20.961
	C467.556,300.742,458.172,291.358,446.595,291.358z"/>
<g>
	<rect x="205.135" y="11.584" style="fill:#FF755C;" width="67.533" height="461.68"/>
	<rect x="67.729" y="212.92" style="fill:#FF755C;" width="41.921" height="260.332"/>
</g>
<path style="fill:#FFB14E;" d="M317.031,461.679H44.443v38.737h311.325C355.768,479.022,338.424,461.679,317.031,461.679z"/>
<path style="fill:#01121C;" d="M446.595,279.774h-61.798l-8.755-45.34c-1.052-5.45-5.822-9.387-11.373-9.387h-80.408v-79.355
	h123.493c6.397,0,11.584-5.187,11.584-11.584s-5.187-11.584-11.584-11.584H284.261V11.584C284.261,5.187,279.074,0,272.678,0h-67.54
	c-6.397,0-11.584,5.187-11.584,11.584v213.463H169.04c-5.551,0-10.321,3.937-11.373,9.387l-8.754,45.34h-27.677v-66.848
	c0-6.397-5.187-11.584-11.584-11.584H67.732c-6.397,0-11.584,5.187-11.584,11.584v237.168H44.443
	c-6.397,0-11.584,5.187-11.584,11.584v38.738c0,6.397,5.187,11.584,11.584,11.584h311.325c6.397,0,11.584-5.187,11.584-11.584
	c0-27.748-22.573-50.321-50.32-50.321h-32.769V344.863h162.334c17.944,0,32.544-14.6,32.544-32.544
	C479.141,294.375,464.54,279.774,446.595,279.774z M355.11,248.215l6.008,31.112h-76.856v-31.112H355.11z M121.236,450.095V344.863
	h72.319v105.232H121.236z M178.602,248.215h14.953v31.112h-20.961L178.602,248.215z M193.555,302.942v18.753h-72.319v-18.753
	H193.555z M79.315,224.51h18.753v225.585H79.315V224.51z M341.588,488.833H56.026v-15.57h11.704h41.92h95.487h67.54h44.353
	C327.862,473.263,337.233,479.637,341.588,488.833z M216.723,450.095V23.167h44.373v213.441c0,0.008-0.001,0.015-0.001,0.023
	c0,0.008,0.001,0.015,0.001,0.023v213.441h-44.373V450.095z M446.595,321.696H284.261v-18.753h162.334
	c5.171,0,9.377,4.206,9.377,9.377S451.766,321.696,446.595,321.696z"/>
<g>
</g>
<g>
</g>
<g>
</g>
<g>
</g>
<g>
</g>
<g>
</g>
<g>
</g>
<g>
</g>
<g>
</g>
<g>
</g>
<g>
</g>
<g>
</g>
<g>
</g>
<g>
</g>
<g>
</g>
</svg>
