<?xml version="1.0" encoding="iso-8859-1"?>
<!-- Generator: Adobe Illustrator 19.0.0, SVG Export Plug-In . SVG Version: 6.00 Build 0)  -->
<svg version="1.1" id="Layer_1" xmlns="http://www.w3.org/2000/svg" xmlns:xlink="http://www.w3.org/1999/xlink" x="0px" y="0px"
	 viewBox="0 0 512.001 512.001" style="enable-background:new 0 0 512.001 512.001;" xml:space="preserve">
<path style="fill:#C2E7FF;" d="M11.814,341.236L277.848,74.972c25.276,22.252,47.727,47.659,66.756,75.596l22.895,37.972
	c29.478,55.572,46.328,118.861,46.722,185.987L33.744,412.299L11.814,341.236z"/>
<path style="fill:#3B8BC0;" d="M459.946,394.193h-59.009v23.168h59.009c6.397,0,11.584-5.186,11.584-11.584
	S466.343,394.193,459.946,394.193z"/>
<polygon style="fill:#174461;" points="435.69,437.026 82.212,437.026 47.878,374.527 435.69,374.527 "/>
<path style="fill:#4EB9FF;" d="M385.776,126.793L11.814,341.236l35.083,47.895l35.314-14.603
	c42.966-10.335,89.906-28.873,135.785-55.361c65.335-37.721,117.389-84.662,149.405-130.628l40.529-23.374L385.776,126.793z"/>
<path style="fill:#174461;" d="M497.455,87.898c-6.117-10.596-19.667-14.227-30.264-8.109l-81.415,47.005l22.154,38.373
	l81.415-47.005C499.942,112.043,503.573,98.494,497.455,87.898z"/>
<g>
	<path style="fill:#3B8BC0;" d="M421.873,200.883c-4.005,0-7.897-2.077-10.043-5.793l-36.086-62.504
		c-3.199-5.541-1.301-12.625,4.24-15.824c5.541-3.198,12.625-1.301,15.824,4.24l36.086,62.504c3.199,5.541,1.301,12.625-4.24,15.824
		C425.831,200.382,423.839,200.883,421.873,200.883z"/>
	<polygon style="fill:#3B8BC0;" points="82.212,437.026 11.584,437.026 11.814,341.236 82.212,374.527 	"/>
</g>
<path style="fill:#01121C;" d="M507.487,82.107c-4.506-7.804-11.782-13.388-20.487-15.719c-8.703-2.331-17.796-1.134-25.602,3.371
	l-71.383,41.213l-0.265-0.46c-3.199-5.541-10.284-7.439-15.824-4.24c-5.541,3.198-7.439,10.283-4.24,15.824l0.265,0.46
	l-21.961,12.679c-18.169-25.24-39.144-48.405-62.482-68.957c-4.013-3.533-9.926-3.86-14.305-0.794
	c-0.554,0.387-1.072,0.821-1.549,1.3L3.393,333.046c-0.053,0.053-0.097,0.111-0.148,0.164c-0.108,0.112-0.21,0.229-0.313,0.345
	c-0.205,0.229-0.398,0.465-0.582,0.707c-0.085,0.111-0.168,0.224-0.248,0.338c-0.206,0.294-0.395,0.594-0.571,0.902
	c-0.041,0.072-0.087,0.14-0.126,0.213c-0.219,0.404-0.416,0.817-0.583,1.238c-0.007,0.019-0.013,0.038-0.02,0.057
	c-0.153,0.392-0.28,0.79-0.389,1.192c-0.031,0.115-0.057,0.231-0.085,0.346c-0.078,0.327-0.14,0.655-0.19,0.985
	c-0.019,0.124-0.039,0.246-0.053,0.371C0.034,340.35,0,340.796,0,341.243v95.785c0,6.398,5.187,11.584,11.584,11.584h71.046h353.059
	c6.397,0,11.584-5.186,11.584-11.584v-19.666h12.673c6.397,0,11.584-5.186,11.584-11.584s-5.187-11.584-11.584-11.584h-12.673
	V374.53c0-6.398-5.187-11.584-11.584-11.584h-10.12c-2.001-58.987-16.67-117.284-42.76-169.917l20.879-12.042l8.142,14.103
	c2.146,3.716,6.039,5.793,10.043,5.793c1.965,0,3.957-0.5,5.78-1.553c5.541-3.198,7.439-10.283,4.24-15.824l-8.14-14.099
	l71.384-41.213C511.249,118.894,516.789,98.219,507.487,82.107z M392.104,160.924l-30.489,17.584
	c-1.475,0.85-2.744,2.017-3.718,3.414c-32.382,46.49-84.124,91.67-145.692,127.216c-42.037,24.271-86.336,42.587-128.398,53.152
	l-45.678-21.405l311.983-180.123c0.001,0,0.002-0.001,0.003-0.002l31.421-18.14L392.104,160.924z M278.248,90.955
	c18.26,17.006,34.862,35.758,49.565,55.928L78.214,290.99L278.248,90.955z M23.168,359.458l47.878,22.436v43.55H23.168V359.458z
	 M424.105,425.445H94.213v-39.331h329.891L424.105,425.445L424.105,425.445z M155.211,362.946
	c23.088-9.47,46.157-20.8,68.578-33.745c57.729-33.328,107.369-74.993,141.737-118.691c22.347,47.539,34.973,99.683,36.867,152.437
	H155.211z M483.554,108.131l-71.384,41.213l-7-12.124l-3.571-6.185l71.383-41.213c5.048-2.913,11.526-1.179,14.441,3.869
	C490.337,98.739,488.602,105.217,483.554,108.131z"/>
<g>
</g>
<g>
</g>
<g>
</g>
<g>
</g>
<g>
</g>
<g>
</g>
<g>
</g>
<g>
</g>
<g>
</g>
<g>
</g>
<g>
</g>
<g>
</g>
<g>
</g>
<g>
</g>
<g>
</g>
</svg>
