<?xml version="1.0" encoding="iso-8859-1"?>
<!-- Generator: Adobe Illustrator 19.0.0, SVG Export Plug-In . SVG Version: 6.00 Build 0)  -->
<svg version="1.1" id="Layer_1" xmlns="http://www.w3.org/2000/svg" xmlns:xlink="http://www.w3.org/1999/xlink" x="0px" y="0px"
	 viewBox="0 0 511.999 511.999" style="enable-background:new 0 0 511.999 511.999;" xml:space="preserve">
<polygon style="fill:#3B8BC0;" points="300.765,162.112 267.489,183.328 358.122,432.342 384.482,448.446 394.325,419.165 "/>
<g>
	<polygon style="fill:#4EB9FF;" points="211.234,162.112 117.674,419.165 127.517,448.446 153.876,432.342 244.507,183.336 	"/>
	<rect x="240.29" y="5.791" style="fill:#4EB9FF;" width="31.415" height="89.541"/>
</g>
<circle style="fill:#174461;" cx="255.998" cy="133.548" r="63.336"/>
<circle style="fill:#4EB9FF;" cx="255.998" cy="133.548" r="16.796"/>
<g>
	<path style="fill:#01121C;" d="M412.173,496.451l-15.419-42.364l8.55-25.438c0.836-2.487,0.803-5.186-0.095-7.651l-41.559-114.18
		h36.165c6.398,0,11.584-5.187,11.584-11.584s-5.186-11.584-11.584-11.584h-44.598l-37.23-102.289
		c8.156-11.993,12.931-26.46,12.931-42.024c0-31.684-19.779-58.816-47.63-69.752V11.584C283.289,5.187,278.103,0,271.705,0h-31.414
		c-6.398,0-11.584,5.187-11.584,11.584v58.002c-27.851,10.936-47.63,38.068-47.63,69.752c0,15.565,4.775,30.033,12.931,42.024
		l-37.23,102.289h-44.597c-6.398,0-11.584,5.187-11.584,11.584s5.186,11.584,11.584,11.584h36.165l-41.559,114.18
		c-0.898,2.466-0.931,5.164-0.095,7.651l8.55,25.438l-15.418,42.365c-2.188,6.011,0.912,12.659,6.924,14.846
		c1.308,0.476,2.645,0.702,3.96,0.702c4.731,0,9.174-2.921,10.886-7.626l15.419-42.364l22.901-13.991
		c2.24-1.368,3.949-3.455,4.847-5.923L214,306.817h30.416v19.005c0,6.396,5.186,11.584,11.584,11.584s11.584-5.187,11.584-11.584
		v-19.005H298l49.237,135.279c0.898,2.467,2.606,4.556,4.847,5.923l22.901,13.991l15.419,42.364
		c1.712,4.705,6.154,7.626,10.886,7.626c1.315,0,2.653-0.226,3.96-0.702C411.261,509.11,414.361,502.463,412.173,496.451z
		 M300.071,199.87l30.494,83.781h-16.344l-27.642-75.946C291.361,205.557,295.881,202.929,300.071,199.87z M251.876,23.167h8.246
		v41.369c-1.366-0.074-2.74-0.119-4.124-0.119c-1.384,0-2.758,0.044-4.124,0.119V23.167H251.876z M255.999,87.584
		c28.536,0,51.752,23.216,51.752,51.753c0,28.536-23.216,51.752-51.752,51.752s-51.752-23.216-51.752-51.752
		C204.247,110.8,227.463,87.584,255.999,87.584z M211.928,199.87c4.19,3.059,8.709,5.688,13.491,7.835l-27.642,75.946h-16.343
		L211.928,199.87z M144.379,430.364l-10.509,6.42l-3.923-11.672l43.055-118.294h16.343L144.379,430.364z M267.582,283.651v-19.004
		c0-6.396-5.186-11.584-11.584-11.584c-6.398,0-11.584,5.187-11.584,11.584v19.004h-21.985l25.421-69.845
		c2.677,0.291,5.393,0.451,8.147,0.451c2.753,0,5.469-0.16,8.147-0.451l25.421,69.845H267.582z M322.653,306.818h16.344
		l43.055,118.294l-3.923,11.672l-10.509-6.42L322.653,306.818z"/>
	<path style="fill:#01121C;" d="M255.999,167.717c15.648,0,28.38-12.73,28.38-28.38s-12.732-28.38-28.38-28.38
		s-28.38,12.73-28.38,28.38S240.351,167.717,255.999,167.717z M255.999,134.125c2.874,0,5.213,2.339,5.213,5.213
		s-2.339,5.213-5.213,5.213s-5.213-2.339-5.213-5.213S253.125,134.125,255.999,134.125z"/>
</g>
<g>
</g>
<g>
</g>
<g>
</g>
<g>
</g>
<g>
</g>
<g>
</g>
<g>
</g>
<g>
</g>
<g>
</g>
<g>
</g>
<g>
</g>
<g>
</g>
<g>
</g>
<g>
</g>
<g>
</g>
</svg>
