<?xml version="1.0" encoding="iso-8859-1"?>
<!-- Generator: Adobe Illustrator 19.0.0, SVG Export Plug-In . SVG Version: 6.00 Build 0)  -->
<svg version="1.1" id="Layer_1" xmlns="http://www.w3.org/2000/svg" xmlns:xlink="http://www.w3.org/1999/xlink" x="0px" y="0px"
	 viewBox="0 0 512 512" style="enable-background:new 0 0 512 512;" xml:space="preserve">
<path style="fill:#FF9356;" d="M88.172,11.594L11.961,87.289l413.115,413.115l75.953-75.953L88.172,11.594z M97.424,95.396
	c-4.477,4.477-11.738,4.477-16.215,0c-4.477-4.477-4.477-11.738,0-16.215c4.477-4.477,11.738-4.477,16.215,0
	C101.901,83.659,101.901,90.919,97.424,95.396z M416.97,431.158c-4.477-4.477-4.477-11.738,0-16.215
	c4.477-4.477,11.738-4.477,16.215,0c4.477,4.477,4.477,11.738,0,16.215C428.708,435.635,421.448,435.635,416.97,431.158z"/>
<polygon style="fill:#174461;" points="69.547,469.552 12.849,499.512 42.809,442.814 72.393,439.968 "/>
<polygon style="fill:#FFEBB4;" points="85.542,361.957 42.809,442.814 69.547,469.552 150.404,426.819 "/>
<path style="fill:#FF755C;" d="M486.593,25.768c17.887,17.887,17.887,46.975,0,64.862l-32.85,32.85l-56.564-7.919l-8.298-56.943
	l32.85-32.85C439.617,7.881,468.706,7.881,486.593,25.768z"/>
<path style="fill:#FFB14E;" d="M413.212,164.023L150.404,426.819l-53.201-11.661L380.775,99.156
	C380.775,99.155,413.2,164.011,413.212,164.023z"/>
<polygon style="fill:#FFCE47;" points="396.99,115.371 97.203,415.158 85.542,361.957 348.35,99.161 "/>
<path style="fill:#174461;" d="M388.881,58.617L348.35,99.161l64.851,64.851c0.011,0.011,40.543-40.532,40.543-40.532
	L388.881,58.617z"/>
<g>
	<path style="fill:#01121C;" d="M153.228,245.267c2.239,2.239,5.173,3.358,8.107,3.358c2.934,0,5.869-1.119,8.107-3.358
		c4.477-4.477,4.477-11.738,0-16.216l-21.339-21.339l30.57-30.57c4.477-4.477,4.477-11.738,0-16.215
		c-4.477-4.477-11.738-4.477-16.215,0l-30.569,30.57l-26.852-26.852l30.57-30.57c4.477-4.477,4.477-11.738,0-16.216
		c-4.477-4.477-11.738-4.477-16.216,0l-30.57,30.57L27.709,87.317l59.94-59.536l141.532,141.532c4.477,4.477,11.738,4.477,16.216,0
		c4.477-4.477,4.477-11.738,0-16.215L95.785,3.486C91.318-0.98,84.079-0.992,79.597,3.459L3.386,79.154
		C1.223,81.303,0.005,84.222,0,87.269s1.203,5.971,3.358,8.127L153.228,245.267z"/>
	<path style="fill:#01121C;" d="M508.643,416.344L358.902,266.603c-4.477-4.477-11.738-4.477-16.216,0
		c-4.477,4.477-4.477,11.738,0,16.216l141.634,141.633l-59.738,59.738l-61.139-61.14l30.57-30.57c4.477-4.477,4.477-11.738,0-16.215
		c-4.477-4.477-11.738-4.477-16.215,0l-30.569,30.57l-26.852-26.852l30.57-30.57c4.477-4.477,4.477-11.738,0-16.216
		c-4.477-4.479-11.738-4.477-16.216,0l-30.57,30.57l-21.211-21.211c-4.477-4.476-11.738-4.476-16.216,0
		c-4.477,4.477-4.477,11.738,0,16.216l149.741,149.741c2.239,2.239,5.173,3.358,8.108,3.358c2.934,0,5.869-1.119,8.107-3.358
		l75.953-75.953C513.119,428.081,513.119,420.821,508.643,416.344z"/>
	<path style="fill:#01121C;" d="M88.821,64.357c-6.125,0-11.884,2.385-16.215,6.716c-4.332,4.331-6.717,10.09-6.717,16.216
		c0,6.125,2.386,11.884,6.717,16.215c4.331,4.332,10.09,6.717,16.215,6.717s11.884-2.386,16.216-6.717
		c8.94-8.941,8.94-23.489,0-32.43l0,0C100.705,66.742,94.946,64.357,88.821,64.357z"/>
	<path style="fill:#01121C;" d="M440.797,439.265c8.941-8.941,8.941-23.489,0-32.431c-8.942-8.941-23.489-8.94-32.431,0
		c-8.941,8.941-8.941,23.489,0,32.431c4.471,4.47,10.343,6.705,16.216,6.705C430.454,445.97,436.326,443.736,440.797,439.265z"/>
	<path style="fill:#01121C;" d="M420.88,172.194c0.001-0.001,0.003-0.002,0.005-0.005c0.001-0.002,0.002-0.003,0.005-0.005
		l40.522-40.522c0.003-0.003,0.008-0.007,0.011-0.01c0.003-0.003,0.007-0.008,0.01-0.011l32.839-32.839
		c22.353-22.353,22.353-58.722,0-81.075c-22.353-22.351-58.723-22.353-81.076,0l-32.838,32.838c-0.003,0.003-0.008,0.007-0.011,0.01
		c-0.003,0.003-0.007,0.008-0.01,0.011l-40.522,40.522c-0.001,0.001-0.003,0.002-0.005,0.005c-0.001,0.002-0.002,0.003-0.005,0.005
		L77.004,353.919c-0.022,0.022-0.039,0.048-0.061,0.07c-0.351,0.358-0.676,0.737-0.978,1.136c-0.065,0.086-0.124,0.175-0.187,0.264
		c-0.263,0.37-0.506,0.753-0.723,1.151c-0.024,0.045-0.057,0.084-0.081,0.128l-42.707,80.816c-0.022,0.04-0.044,0.08-0.064,0.122
		L2.289,494.217c-2.35,4.448-1.527,9.908,2.031,13.465c2.204,2.204,5.139,3.358,8.111,3.358c1.824,0,3.662-0.435,5.353-1.329
		l56.617-29.919c0.037-0.018,0.072-0.038,0.109-0.057l80.821-42.71c0.022-0.011,0.041-0.027,0.063-0.039
		c0.44-0.237,0.863-0.506,1.269-0.797c0.071-0.052,0.142-0.102,0.212-0.155c0.398-0.3,0.776-0.625,1.134-0.976
		c0.023-0.023,0.05-0.04,0.073-0.063L420.88,172.194z M71.245,455.522l-14.768-14.768l24.141-45.682l4.957,22.609
		c0.013,0.058,0.037,0.112,0.05,0.171c0.1,0.427,0.225,0.846,0.374,1.261c0.029,0.079,0.053,0.158,0.083,0.236
		c0.177,0.46,0.383,0.909,0.621,1.348c0.037,0.068,0.079,0.131,0.117,0.197c0.204,0.359,0.431,0.707,0.678,1.047
		c0.071,0.097,0.14,0.195,0.213,0.29c0.295,0.381,0.608,0.752,0.956,1.102c0.35,0.35,0.721,0.663,1.103,0.957
		c0.094,0.072,0.19,0.141,0.287,0.211c0.342,0.248,0.693,0.476,1.054,0.682c0.064,0.037,0.125,0.077,0.19,0.112
		c0.44,0.24,0.892,0.446,1.353,0.624c0.076,0.029,0.152,0.053,0.228,0.08c0.417,0.15,0.842,0.276,1.272,0.377
		c0.056,0.014,0.109,0.037,0.166,0.049l22.608,4.956L71.245,455.522z M119.702,408.513l42.148-42.149
		c4.477-4.477,4.477-11.738,0-16.215c-4.477-4.477-11.738-4.477-16.215,0l-42.148,42.148l-5.832-26.598l250.262-250.261
		l16.215,16.215L173.289,322.495c-4.477,4.477-4.477,11.738,0,16.216c2.239,2.239,5.173,3.358,8.107,3.358
		c2.934,0,5.869-1.12,8.107-3.358l190.843-190.843l16.215,16.215L146.3,414.344L119.702,408.513z M388.455,74.901l48.645,48.645
		l-24.322,24.322l-48.645-48.645L388.455,74.901z M429.412,33.944c13.412-13.412,35.233-13.413,48.645,0
		c13.412,13.412,13.412,35.233,0,48.645l-24.741,24.741l-48.645-48.645L429.412,33.944z M45.265,461.973l4.763,4.763l-10.1,5.337
		L45.265,461.973z"/>
</g>
<g>
</g>
<g>
</g>
<g>
</g>
<g>
</g>
<g>
</g>
<g>
</g>
<g>
</g>
<g>
</g>
<g>
</g>
<g>
</g>
<g>
</g>
<g>
</g>
<g>
</g>
<g>
</g>
<g>
</g>
</svg>
