<?xml version="1.0" encoding="iso-8859-1"?>
<!-- Generator: Adobe Illustrator 19.0.0, SVG Export Plug-In . SVG Version: 6.00 Build 0)  -->
<svg version="1.1" id="Layer_1" xmlns="http://www.w3.org/2000/svg" xmlns:xlink="http://www.w3.org/1999/xlink" x="0px" y="0px"
	 viewBox="0 0 512 512" style="enable-background:new 0 0 512 512;" xml:space="preserve">
<path style="fill:#174461;" d="M256,256h116.636c0,64.417-52.219,116.636-116.636,116.636V256z"/>
<path style="fill:#4EB9FF;" d="M256,139.364V256H139.364C139.364,191.583,191.583,139.364,256,139.364z"/>
<path style="fill:#FFCE47;" d="M256,256v116.636c-64.417,0-116.636-52.219-116.636-116.636H256z"/>
<path style="fill:#FF4181;" d="M372.636,256H256V139.364C320.417,139.364,372.636,191.583,372.636,256z"/>
<path style="fill:#01121C;" d="M500.416,244.416h-64.075c-5.75-90.441-78.316-163.007-168.757-168.757V11.584
	C267.584,5.186,262.398,0,256,0c-6.398,0-11.584,5.186-11.584,11.584v64.075c-90.441,5.75-163.007,78.316-168.757,168.757H11.584
	C5.186,244.416,0,249.602,0,256c0,6.398,5.186,11.584,11.584,11.584h64.075c5.75,90.441,78.316,163.007,168.757,168.757v64.075
	c0,6.398,5.186,11.584,11.584,11.584c6.398,0,11.584-5.186,11.584-11.584v-64.075c90.441-5.75,163.007-78.316,168.757-168.757
	h64.075c6.398,0,11.584-5.186,11.584-11.584C512,249.602,506.814,244.416,500.416,244.416z M413.128,244.416h-29.442
	c-5.531-61.472-54.63-110.57-116.101-116.102V98.872C345.246,104.543,407.457,166.754,413.128,244.416z M244.416,244.416h-92.823
	c5.366-48.688,44.134-87.456,92.823-92.821V244.416z M244.416,267.584v92.821c-48.688-5.366-87.457-44.135-92.823-92.821H244.416
	L244.416,267.584z M267.584,267.584h92.821c-5.366,48.688-44.134,87.456-92.821,92.821V267.584L267.584,267.584z M267.584,244.416
	v-92.821c48.688,5.366,87.456,44.135,92.821,92.821H267.584z M244.416,98.872v29.442c-61.472,5.531-110.571,54.63-116.102,116.102
	H98.872C104.543,166.754,166.754,104.543,244.416,98.872z M98.872,267.584h29.442c5.531,61.472,54.63,110.57,116.102,116.102v29.442
	C166.754,407.457,104.543,345.246,98.872,267.584z M267.584,413.128v-29.442c61.472-5.531,110.57-54.63,116.101-116.102h29.442
	C407.457,345.246,345.246,407.457,267.584,413.128z"/>
<g>
</g>
<g>
</g>
<g>
</g>
<g>
</g>
<g>
</g>
<g>
</g>
<g>
</g>
<g>
</g>
<g>
</g>
<g>
</g>
<g>
</g>
<g>
</g>
<g>
</g>
<g>
</g>
<g>
</g>
</svg>
