<?xml version="1.0" encoding="iso-8859-1"?>
<!-- Generator: Adobe Illustrator 19.0.0, SVG Export Plug-In . SVG Version: 6.00 Build 0)  -->
<svg version="1.1" id="Layer_1" xmlns="http://www.w3.org/2000/svg" xmlns:xlink="http://www.w3.org/1999/xlink" x="0px" y="0px"
	 viewBox="0 0 512 512" style="enable-background:new 0 0 512 512;" xml:space="preserve">
<path style="fill:#3B8BC0;" d="M182.443,435.548L30.697,458.715c0,22.936,18.766,41.701,41.701,41.701h220.091
	c22.936,0,41.701-18.766,41.701-41.701L182.443,435.548z"/>
<path style="fill:#4EB9FF;" d="M345.774,69.502V11.584H19.113v447.131h326.661v-94.986c81.248,0,147.113-65.865,147.113-147.113
	S427.022,69.502,345.774,69.502z M345.774,317.394V115.837c55.659,0,100.778,45.12,100.778,100.778S401.432,317.394,345.774,317.394
	z"/>
<g>
	<path style="fill:#01121C;" d="M357.272,55.538V11.584C357.272,5.187,352.086,0,345.688,0H19.526
		C13.128,0,7.942,5.187,7.942,11.584v446.398c0,6.397,5.186,11.584,11.584,11.584h1.462C26.305,493.802,47.933,512,73.743,512
		h217.729c25.81,0,47.436-18.198,52.755-42.435h1.462c6.398,0,11.584-5.187,11.584-11.584v-86.543
		c81.937-5.953,146.786-74.522,146.786-157.95S439.209,61.491,357.272,55.538z M345.688,348.692
		c-6.398,0-11.584,5.187-11.584,11.584v86.124H157.488c-6.398,0-11.584,5.187-11.584,11.584c0,6.397,5.186,11.584,11.584,11.584
		h162.569c-4.589,11.285-15.67,19.266-28.585,19.266H73.743c-12.916,0-23.996-7.981-28.586-19.267h67.502
		c6.398,0,11.584-5.187,11.584-11.584c0-6.397-5.186-11.584-11.584-11.584H31.109V23.167h302.995v43.535
		c0,6.397,5.186,11.584,11.584,11.584c74.55,0,135.203,60.651,135.203,135.203S420.24,348.692,345.688,348.692z"/>
	<path style="fill:#01121C;" d="M345.688,102.159c-6.398,0-11.584,5.187-11.584,11.584v199.491c0,6.397,5.186,11.584,11.584,11.584
		c61.387,0,111.329-49.942,111.329-111.329S407.075,102.159,345.688,102.159z M357.272,300.893V126.085
		c43.159,5.689,76.578,42.717,76.578,87.404S400.432,295.204,357.272,300.893z"/>
	<path style="fill:#01121C;" d="M260.284,328.611c-5.012,0-9.281,3.183-10.894,7.639c-4.455,1.614-7.639,5.882-7.639,10.894
		c0,6.397,5.186,11.584,11.584,11.584h6.95c6.398,0,11.584-5.187,11.584-11.584v-6.95
		C271.867,333.797,266.681,328.611,260.284,328.611z"/>
	<path style="fill:#01121C;" d="M163.417,335.562h-13.158c-6.398,0-11.584,5.187-11.584,11.584c0,6.397,5.186,11.584,11.584,11.584
		h13.158c6.398,0,11.584-5.187,11.584-11.584C175.001,340.749,169.815,335.562,163.417,335.562z"/>
	<path style="fill:#01121C;" d="M214.954,335.562h-13.158c-6.398,0-11.584,5.187-11.584,11.584c0,6.397,5.186,11.584,11.584,11.584
		h13.158c6.398,0,11.584-5.187,11.584-11.584C226.538,340.749,221.352,335.562,214.954,335.562z"/>
	<path style="fill:#01121C;" d="M115.824,336.25c-1.614-4.456-5.882-7.639-10.894-7.639c-6.398,0-11.584,5.187-11.584,11.584v6.95
		c0,6.397,5.186,11.584,11.584,11.584h6.95c6.398,0,11.584-5.187,11.584-11.584C123.464,342.132,120.279,337.863,115.824,336.25z"/>
	<path style="fill:#01121C;" d="M104.93,197.254c6.398,0,11.584-5.187,11.584-11.584v-14.374c0-6.397-5.186-11.584-11.584-11.584
		c-6.398,0-11.584,5.187-11.584,11.584v14.374C93.346,192.068,98.532,197.254,104.93,197.254z"/>
	<path style="fill:#01121C;" d="M104.93,253.554c6.398,0,11.584-5.187,11.584-11.584v-14.374c0-6.397-5.186-11.584-11.584-11.584
		c-6.398,0-11.584,5.187-11.584,11.584v14.374C93.346,248.366,98.532,253.554,104.93,253.554z"/>
	<path style="fill:#01121C;" d="M104.93,309.853c6.398,0,11.584-5.187,11.584-11.584v-14.374c0-6.397-5.186-11.584-11.584-11.584
		c-6.398,0-11.584,5.187-11.584,11.584v14.374C93.346,304.667,98.532,309.853,104.93,309.853z"/>
	<path style="fill:#01121C;" d="M111.88,110.838h-6.95c-6.398,0-11.584,5.187-11.584,11.584v6.95
		c0,6.397,5.186,11.584,11.584,11.584c5.012,0,9.281-3.183,10.894-7.639c4.455-1.614,7.639-5.882,7.639-10.894
		C123.464,116.024,118.278,110.838,111.88,110.838z"/>
	<path style="fill:#01121C;" d="M163.417,110.838h-13.158c-6.398,0-11.584,5.187-11.584,11.584c0,6.397,5.186,11.584,11.584,11.584
		h13.158c6.398,0,11.584-5.187,11.584-11.584C175.001,116.025,169.815,110.838,163.417,110.838z"/>
	<path style="fill:#01121C;" d="M214.954,110.838h-13.158c-6.398,0-11.584,5.187-11.584,11.584c0,6.397,5.186,11.584,11.584,11.584
		h13.158c6.398,0,11.584-5.187,11.584-11.584C226.538,116.025,221.352,110.838,214.954,110.838z"/>
	<path style="fill:#01121C;" d="M260.284,110.838h-6.95c-6.398,0-11.584,5.187-11.584,11.584c0,5.012,3.184,9.282,7.639,10.894
		c1.614,4.456,5.882,7.639,10.894,7.639c6.398,0,11.584-5.187,11.584-11.584v-6.95C271.867,116.024,266.681,110.838,260.284,110.838
		z"/>
	<path style="fill:#01121C;" d="M260.284,159.713c-6.398,0-11.584,5.187-11.584,11.584v14.374c0,6.397,5.186,11.584,11.584,11.584
		c6.398,0,11.584-5.187,11.584-11.584v-14.374C271.867,164.899,266.681,159.713,260.284,159.713z"/>
	<path style="fill:#01121C;" d="M260.284,216.012c-6.398,0-11.584,5.187-11.584,11.584v14.374c0,6.397,5.186,11.584,11.584,11.584
		c6.398,0,11.584-5.187,11.584-11.584v-14.374C271.867,221.199,266.681,216.012,260.284,216.012z"/>
	<path style="fill:#01121C;" d="M260.284,272.311c-6.398,0-11.584,5.187-11.584,11.584v14.374c0,6.397,5.186,11.584,11.584,11.584
		c6.398,0,11.584-5.187,11.584-11.584v-14.374C271.867,277.498,266.681,272.311,260.284,272.311z"/>
</g>
<g>
</g>
<g>
</g>
<g>
</g>
<g>
</g>
<g>
</g>
<g>
</g>
<g>
</g>
<g>
</g>
<g>
</g>
<g>
</g>
<g>
</g>
<g>
</g>
<g>
</g>
<g>
</g>
<g>
</g>
</svg>
