<?xml version="1.0" encoding="iso-8859-1"?>
<!-- Generator: Adobe Illustrator 19.0.0, SVG Export Plug-In . SVG Version: 6.00 Build 0)  -->
<svg version="1.1" id="Layer_1" xmlns="http://www.w3.org/2000/svg" xmlns:xlink="http://www.w3.org/1999/xlink" x="0px" y="0px"
	 viewBox="0 0 512 512" style="enable-background:new 0 0 512 512;" xml:space="preserve">
<polygon style="fill:#3B8BC0;" points="70.683,17.092 47.515,469.992 500.416,446.824 500.416,17.092 "/>
<g>
	<polygon style="fill:#9AD7FF;" points="11.584,17.092 11.584,446.824 41.134,469.992 70.683,446.824 70.683,17.092 	"/>
	<path style="fill:#9AD7FF;" d="M441.65,231.958c0-86.212-69.888-156.1-156.1-156.1c-43.105,0-82.131,17.472-110.379,45.721
		l69.845,94.412l-115.565,15.967c0,86.212,69.888,156.1,156.1,156.1c43.105,0,82.131-17.472,110.379-45.72l-69.845-94.413
		L441.65,231.958z"/>
</g>
<g>
	<path style="fill:#FFFFFF;" d="M175.171,121.579c-28.248,28.248-45.721,67.274-45.721,110.379h156.1L175.171,121.579z"/>
	<path style="fill:#FFFFFF;" d="M285.55,231.958l110.379,110.379c28.248-28.248,45.721-67.274,45.721-110.379H285.55z"/>
</g>
<polygon style="fill:#9AD7FF;" points="500.416,446.824 70.683,446.824 59.099,470.866 70.683,494.908 500.416,494.908 "/>
<g>
	<rect x="11.584" y="446.83" style="fill:#4EB9FF;" width="59.1" height="48.084"/>
	<circle style="fill:#4EB9FF;" cx="285.55" cy="231.964" r="66.722"/>
</g>
<circle style="fill:#3B8BC0;" cx="285.55" cy="231.964" r="26.462"/>
<g>
	<path style="fill:#01121C;" d="M285.55,399.641c45.761,0,87.293-18.433,117.579-48.255c0.338-0.27,0.667-0.556,0.98-0.869
		c0.313-0.314,0.6-0.643,0.87-0.981c29.821-30.287,48.254-71.818,48.254-117.578c0-92.46-75.222-167.683-167.683-167.683
		c-45.729,0-87.233,18.408-117.514,48.193c-0.364,0.286-0.719,0.587-1.054,0.923c-0.336,0.336-0.638,0.69-0.923,1.055
		c-29.784,30.281-48.191,71.785-48.191,117.513C117.867,324.418,193.089,399.641,285.55,399.641z M175.55,138.342l47.069,47.069
		c-7.475,10.08-12.588,22.008-14.518,34.963h-66.603C143.982,189.22,156.391,160.821,175.55,138.342z M285.55,287.101
		c-30.406,0-55.143-24.736-55.143-55.143s24.737-55.143,55.143-55.143s55.143,24.736,55.143,55.143S315.955,287.101,285.55,287.101z
		 M141.499,243.542h66.603c5.616,37.706,38.203,66.727,77.448,66.727c17.421,0,33.526-5.724,46.548-15.381l47.069,47.069
		c-25.237,21.511-57.935,34.517-93.617,34.517C209.762,376.474,147.419,317.833,141.499,243.542z M429.6,220.374h-22.368
		c-6.398,0-11.584,5.187-11.584,11.584s5.186,11.584,11.584,11.584H429.6c-2.482,31.156-14.892,59.553-34.051,82.034l-47.069-47.069
		c7.475-10.08,12.589-22.008,14.518-34.964h7.504c6.398,0,11.584-5.187,11.584-11.584s-5.186-11.584-11.584-11.584h-7.504
		c-5.616-37.706-38.203-66.727-77.448-66.727c-17.421,0-33.526,5.723-46.548,15.381l-47.069-47.069
		c25.237-21.511,57.935-34.517,93.617-34.517C361.336,87.442,423.68,146.083,429.6,220.374z"/>
	<path style="fill:#01121C;" d="M285.55,193.912c-20.978,0-38.046,17.066-38.046,38.046s17.067,38.046,38.046,38.046
		c20.978,0,38.046-17.066,38.046-38.046S306.528,193.912,285.55,193.912z M285.55,246.836c-8.205,0-14.878-6.675-14.878-14.878
		c0-8.204,6.675-14.878,14.878-14.878s14.878,6.675,14.878,14.878C300.428,240.162,293.754,246.836,285.55,246.836z"/>
	<path style="fill:#01121C;" d="M500.416,5.508H70.684h-59.1C5.186,5.508,0,10.695,0,17.092v429.733v48.084
		c0,6.397,5.186,11.584,11.584,11.584h488.833c6.398,0,11.584-5.187,11.584-11.584v-48.084V17.092
		C512,10.694,506.814,5.508,500.416,5.508z M488.833,435.241H82.268V28.675h406.565V435.241z M23.167,28.675H59.1v406.565H23.167
		V28.675z M23.167,458.408H59.1v24.917H23.167V458.408z M488.833,483.325H82.268v-24.917h406.565V483.325z"/>
</g>
<g>
</g>
<g>
</g>
<g>
</g>
<g>
</g>
<g>
</g>
<g>
</g>
<g>
</g>
<g>
</g>
<g>
</g>
<g>
</g>
<g>
</g>
<g>
</g>
<g>
</g>
<g>
</g>
<g>
</g>
</svg>
