<?xml version="1.0" encoding="iso-8859-1"?>
<!-- Generator: Adobe Illustrator 19.0.0, SVG Export Plug-In . SVG Version: 6.00 Build 0)  -->
<svg version="1.1" id="Layer_1" xmlns="http://www.w3.org/2000/svg" xmlns:xlink="http://www.w3.org/1999/xlink" x="0px" y="0px"
	 viewBox="0 0 512 512" style="enable-background:new 0 0 512 512;" xml:space="preserve">
<circle style="fill:#3B8BC0;" cx="256" cy="256" r="116.636"/>
<path style="fill:#01121C;" d="M500.416,244.416h-116.73c-2.4-26.668-12.995-51.007-29.248-70.472l16.323-16.323
	c4.523-4.523,4.523-11.858,0-16.383c-4.525-4.522-11.857-4.522-16.383,0l-16.323,16.323c-19.465-16.253-43.804-26.848-70.472-29.248
	V11.584C267.584,5.187,262.397,0,256,0c-6.398,0-11.584,5.187-11.584,11.584v116.73c-26.668,2.4-51.007,12.995-70.472,29.248
	l-16.323-16.323c-4.523-4.522-11.858-4.522-16.383,0c-4.523,4.523-4.523,11.858,0,16.383l16.323,16.323
	c-16.253,19.465-26.848,43.804-29.248,70.472H11.584C5.186,244.416,0,249.604,0,256c0,6.397,5.186,11.584,11.584,11.584h116.73
	c2.4,26.668,12.995,51.007,29.248,70.472l-16.323,16.323c-4.523,4.523-4.523,11.858,0,16.383c2.262,2.261,5.227,3.393,8.191,3.393
	s5.93-1.132,8.191-3.393l16.323-16.323c19.465,16.253,43.804,26.848,70.472,29.248v116.73c0,6.397,5.186,11.584,11.584,11.584
	c6.397,0,11.584-5.187,11.584-11.584v-116.73c26.668-2.4,51.007-12.995,70.472-29.248l16.323,16.323
	c2.265,2.261,5.228,3.393,8.193,3.393s5.929-1.132,8.191-3.393c4.523-4.523,4.523-11.858,0-16.383l-16.323-16.323
	c16.253-19.465,26.848-43.804,29.248-70.472h116.73c6.397,0,11.584-5.187,11.584-11.584
	C512,249.603,506.813,244.416,500.416,244.416z M360.406,244.416h-76.44l54.016-54.016
	C350.128,205.549,358.169,224.12,360.406,244.416z M321.6,174.019l-54.016,54.015v-76.44
	C287.88,153.831,306.451,161.872,321.6,174.019z M244.416,151.595v76.44L190.4,174.019
	C205.549,161.872,224.12,153.831,244.416,151.595z M174.017,190.4l54.016,54.016h-76.44
	C153.831,224.12,161.872,205.549,174.017,190.4z M151.594,267.584h76.44L174.017,321.6
	C161.872,306.451,153.831,287.88,151.594,267.584z M190.4,337.981l54.016-54.015v76.44
	C224.12,358.169,205.549,350.128,190.4,337.981z M267.584,360.405v-76.44l54.016,54.016
	C306.451,350.128,287.88,358.169,267.584,360.405z M337.981,321.6l-54.015-54.016h76.44
	C358.169,287.88,350.128,306.451,337.981,321.6z"/>
<g>
</g>
<g>
</g>
<g>
</g>
<g>
</g>
<g>
</g>
<g>
</g>
<g>
</g>
<g>
</g>
<g>
</g>
<g>
</g>
<g>
</g>
<g>
</g>
<g>
</g>
<g>
</g>
<g>
</g>
</svg>
