<?xml version="1.0" encoding="iso-8859-1"?>
<!-- Generator: Adobe Illustrator 19.0.0, SVG Export Plug-In . SVG Version: 6.00 Build 0)  -->
<svg version="1.1" id="Layer_1" xmlns="http://www.w3.org/2000/svg" xmlns:xlink="http://www.w3.org/1999/xlink" x="0px" y="0px"
	 viewBox="0 0 512.002 512.002" style="enable-background:new 0 0 512.002 512.002;" xml:space="preserve">
<path style="fill:#FFE290;" d="M490.331,62.712l-41.04-41.04c-13.476-13.476-35.325-13.476-48.8,0l-52.642,52.642l89.841,89.841
	l52.642-52.642C503.807,98.036,503.806,76.187,490.331,62.712z"/>
<rect x="295.755" y="76.285" transform="matrix(-0.7071 0.7071 -0.7071 -0.7071 724.22 -0.329)" style="fill:#FF755C;" width="132.846" height="147.083"/>
<polygon style="fill:#3B8BC0;" points="117.301,322.856 50.664,422.258 89.743,461.337 189.145,394.7 "/>
<g>
	<polygon style="fill:#174461;" points="78.222,316.542 11.585,383.179 50.664,422.258 133.683,339.239 	"/>
	<polygon style="fill:#174461;" points="172.763,378.318 89.743,461.337 128.823,500.416 195.46,433.78 	"/>
</g>
<rect x="96.503" y="194.879" transform="matrix(-0.7071 0.7071 -0.7071 -0.7071 596.2451 308.5755)" style="fill:#FF4181;" width="275.423" height="165.791"/>
<path style="fill:#01121C;" d="M498.523,54.52l-41.042-41.042c-17.972-17.971-47.211-17.973-65.183,0l-28.143,28.144
	c-2.003-1.521-4.461-2.357-7.005-2.357c-3.072,0-6.018,1.221-8.191,3.393l-69.518,69.519c-4.504-3.036-10.671-2.562-14.657,1.423
	L3.394,374.987c-4.524,4.524-4.524,11.859,0,16.384l117.238,117.238c2.172,2.172,5.119,3.393,8.191,3.393
	c3.072,0,6.019-1.221,8.191-3.393l66.557-66.557c0.027-0.025,0.053-0.053,0.08-0.079c0.025-0.027,0.052-0.053,0.079-0.08
	l194.673-194.674c3.985-3.985,4.46-10.154,1.423-14.657l69.519-69.518c2.172-2.173,3.393-5.119,3.393-8.191
	c0-2.544-0.838-5.001-2.357-7.005l28.144-28.144C516.493,101.732,516.493,72.492,498.523,54.52z M128.823,484.033L27.967,383.178
	l50.255-50.254l22.697,22.698l-33.453,33.452c-4.524,4.524-4.525,11.859,0,16.384c4.525,4.522,11.86,4.524,16.382,0l33.453-33.453
	l22.697,22.697l-33.453,33.453c-4.524,4.524-4.524,11.859,0,16.384c4.524,4.522,11.859,4.522,16.384,0l33.453-33.453l22.696,22.697
	L128.823,484.033z M195.458,417.397l-30.829-30.829c-0.02-0.02-0.039-0.038-0.058-0.059c-0.02-0.02-0.039-0.038-0.059-0.058
	l-69.908-69.909l178.371-178.37l100.854,100.854L195.458,417.397z M383.594,216.026l-87.618-87.618l61.175-61.176l87.619,87.619
	L383.594,216.026z M482.139,103.32l-28.067,28.067L380.614,57.93l28.067-28.067c8.938-8.937,23.481-8.936,32.416,0l41.042,41.042
	C491.077,79.84,491.077,94.383,482.139,103.32z"/>
<g>
</g>
<g>
</g>
<g>
</g>
<g>
</g>
<g>
</g>
<g>
</g>
<g>
</g>
<g>
</g>
<g>
</g>
<g>
</g>
<g>
</g>
<g>
</g>
<g>
</g>
<g>
</g>
<g>
</g>
</svg>
