<?xml version="1.0" encoding="iso-8859-1"?>
<!-- Generator: Adobe Illustrator 19.0.0, SVG Export Plug-In . SVG Version: 6.00 Build 0)  -->
<svg version="1.1" id="Layer_1" xmlns="http://www.w3.org/2000/svg" xmlns:xlink="http://www.w3.org/1999/xlink" x="0px" y="0px"
	 viewBox="0 0 512 512" style="enable-background:new 0 0 512 512;" xml:space="preserve">
<polygon style="fill:#FF4181;" points="500.416,27.349 484.652,11.584 430.549,36.939 428.232,83.769 475.061,81.452 "/>
<rect x="362.264" y="65.219" transform="matrix(-0.7071 0.7071 -0.7071 -0.7071 777.3219 -128.5935)" style="fill:#FF755C;" width="106.059" height="62.945"/>
<rect x="308.203" y="104.472" transform="matrix(-0.7071 -0.7071 0.7071 -0.7071 511.8486 512.0521)" style="fill:#FF4181;" width="107.542" height="91.093"/>
<path style="fill:#FFD86C;" d="M397.091,282.586c18.169-18.169,18.169-47.628,0-65.797l-101.88-101.88
	c-18.169-18.169-47.628-18.169-65.797,0L25.211,319.113c-18.169,18.169-18.169,47.628,0,65.797l101.88,101.88
	c18.169,18.169,47.628,18.169,65.797,0L397.091,282.586z"/>
<rect x="168.256" y="175.794" transform="matrix(-0.7071 -0.7071 0.7071 -0.7071 188.1599 646.1387)" style="fill:#FF755C;" width="119.288" height="216.613"/>
<g>
	<path style="fill:#01121C;" d="M508.607,19.157L492.843,3.393c-3.451-3.45-8.691-4.368-13.107-2.297l-53.862,25.242
		c-1.201,0.529-2.332,1.273-3.331,2.231c-0.061,0.059-0.123,0.119-0.184,0.181l-50.426,50.427l-7.573-7.575
		c-4.523-4.522-11.858-4.522-16.382,0l-39.847,39.844l-4.728-4.728c-22.657-22.657-59.522-22.657-82.179,0L17.02,310.922
		C6.044,321.898,0,336.491,0,352.012s6.044,30.114,17.02,41.089l101.879,101.88c10.976,10.976,25.569,17.02,41.09,17.02
		s30.114-6.044,41.09-17.02l204.203-204.203l0,0c22.657-22.657,22.657-59.522,0-82.179l-4.728-4.728l39.844-39.844
		c4.523-4.523,4.523-11.858,0-16.382l-7.575-7.573l50.427-50.426c0.061-0.061,0.12-0.123,0.181-0.184
		c0.958-1.001,1.702-2.13,2.231-3.331l25.242-53.862C512.975,27.847,512.057,22.607,508.607,19.157z M388.9,274.395L184.696,478.599
		c-6.599,6.6-15.374,10.234-24.708,10.234s-18.108-3.635-24.708-10.234L33.4,376.719c-6.598-6.599-10.233-15.374-10.233-24.707
		c0-9.333,3.635-18.108,10.234-24.708L237.605,123.1c6.812-6.812,15.758-10.218,24.708-10.218c8.947,0,17.897,3.407,24.708,10.218
		l12.849,12.847c0.023,0.024,0.047,0.048,0.071,0.072l76.042,76.042c0.023,0.022,0.045,0.044,0.067,0.066l12.852,12.852
		C402.524,238.604,402.524,260.772,388.9,274.395z M384.171,187.488l-59.66-59.66l31.654-31.654l59.66,59.66L384.171,187.488z
		 M416.443,123.688l-28.13-28.13l42.235-42.237l28.131,28.131L416.443,123.688z M471.579,61.587l-21.165-21.165l31.794-14.9
		l4.271,4.271L471.579,61.587z"/>
	<path style="fill:#01121C;" d="M270.504,157.146c-4.523-4.523-11.858-4.523-16.383,0L100.95,310.319
		c-4.523,4.523-4.523,11.858,0,16.382l84.35,84.35c2.262,2.262,5.227,3.393,8.191,3.393s5.93-1.131,8.191-3.393l76.554-76.554
		c4.523-4.523,4.523-11.858,0-16.382c-4.523-4.525-11.858-4.525-16.383,0l-68.364,68.364l-67.969-67.969l136.79-136.79
		l67.969,67.969l-35.663,35.663c-4.525,4.523-4.525,11.858,0,16.383c4.522,4.522,11.858,4.522,16.382,0l43.855-43.854
		c4.523-4.523,4.523-11.858,0-16.383L270.504,157.146z"/>
</g>
<g>
</g>
<g>
</g>
<g>
</g>
<g>
</g>
<g>
</g>
<g>
</g>
<g>
</g>
<g>
</g>
<g>
</g>
<g>
</g>
<g>
</g>
<g>
</g>
<g>
</g>
<g>
</g>
<g>
</g>
</svg>
