<?xml version="1.0" encoding="iso-8859-1"?>
<!-- Generator: Adobe Illustrator 19.0.0, SVG Export Plug-In . SVG Version: 6.00 Build 0)  -->
<svg version="1.1" id="Layer_1" xmlns="http://www.w3.org/2000/svg" xmlns:xlink="http://www.w3.org/1999/xlink" x="0px" y="0px"
	 viewBox="0 0 512.001 512.001" style="enable-background:new 0 0 512.001 512.001;" xml:space="preserve">
<rect x="309.876" y="308.219" style="fill:#4EB9FF;" width="127.838" height="64.865"/>
<path style="fill:#FF755C;" d="M424.194,34.229h-100.79c-15.308,0-27.717,12.41-27.717,27.717v89.731h156.225V61.946
	C451.911,46.638,439.502,34.229,424.194,34.229z"/>
<path style="fill:#FFCE47;" d="M500.416,331.382V156.226c0-15.308-12.41-27.717-27.718-27.717l-369.144,0.005
	c-50.795,0-91.971,41.177-91.971,91.971v194.294l235.598,23.167V331.382H500.416z"/>
<path style="fill:#FFB14E;" d="M11.584,450.054c0,15.308,12.41,27.717,27.718,27.717h433.398c15.308,0,27.718-12.41,27.718-27.717
	v-35.276H11.584V450.054z"/>
<path style="fill:#01121C;" d="M309.877,384.663h127.844c6.397,0,11.584-5.187,11.584-11.584v-30.113h51.112
	c6.397,0,11.584-5.187,11.584-11.584V156.226c0-21.671-17.63-39.301-39.301-39.301h-9.204V61.946
	c0-21.671-17.63-39.301-39.301-39.301h-100.79c-21.671,0-39.301,17.63-39.301,39.301v54.982l-180.548,0.002
	C46.455,116.929,0,163.385,0,220.484v229.571c0,21.671,17.63,39.301,39.301,39.301H472.7c21.671,0,39.301-17.63,39.301-39.301
	v-35.277c0-6.397-5.187-11.584-11.584-11.584H258.765v-60.227h39.528v30.113C298.293,379.477,303.479,384.663,309.877,384.663z
	 M426.137,361.495H321.461v-18.529h104.676V361.495z M307.271,61.946c0-8.896,7.237-16.134,16.134-16.134h100.79
	c8.896,0,16.134,7.238,16.134,16.134v54.98l-133.056,0.001V61.946H307.271z M247.181,319.798c-6.397,0-11.584,5.187-11.584,11.584
	v71.811h-35.594c-6.397,0-11.584,5.187-11.584,11.584c0,6.397,5.187,11.584,11.584,11.584h47.178h241.651v23.693
	c0,8.896-7.237,16.134-16.134,16.134H39.301c-8.896,0-16.134-7.237-16.134-16.134v-23.693h130.501
	c6.397,0,11.584-5.187,11.584-11.584c0-6.397-5.187-11.584-11.584-11.584H23.167V220.484c0-44.326,36.061-80.386,80.386-80.386
	l369.145-0.005c8.896,0,16.134,7.238,16.134,16.134V319.8H247.181V319.798z"/>
<g>
</g>
<g>
</g>
<g>
</g>
<g>
</g>
<g>
</g>
<g>
</g>
<g>
</g>
<g>
</g>
<g>
</g>
<g>
</g>
<g>
</g>
<g>
</g>
<g>
</g>
<g>
</g>
<g>
</g>
</svg>
