<?xml version="1.0" encoding="iso-8859-1"?>
<!-- Generator: Adobe Illustrator 19.0.0, SVG Export Plug-In . SVG Version: 6.00 Build 0)  -->
<svg version="1.1" id="Layer_1" xmlns="http://www.w3.org/2000/svg" xmlns:xlink="http://www.w3.org/1999/xlink" x="0px" y="0px"
	 viewBox="0 0 512 512" style="enable-background:new 0 0 512 512;" xml:space="preserve">
<path style="fill:#FFC0D5;" d="M360.683,201.403l-50.075-50.075L61.301,400.635c-9.757,9.757-12.865,23.566-9.134,35.788
	l-40.733,40.733l23.422,23.422l40.733-40.733c12.222,3.73,26.031,0.621,35.788-9.135L360.683,201.403z"/>
<path style="fill:#FF4181;" d="M488.881,23.132c-15.612-15.612-40.924-15.612-56.536,0S331.608,123.869,331.608,123.869
	l56.536,56.537c0,0,85.124-85.124,100.736-100.736C504.493,64.057,504.493,38.744,488.881,23.132z"/>
<path style="fill:#FF755C;" d="M426.509,234.922l-32.306,32.306L244.784,117.81l32.306-32.306c13.326-13.326,35.133-13.326,48.46,0
	l100.958,100.958C439.835,199.788,439.835,221.595,426.509,234.922z"/>
<g>
	<path style="fill:#01121C;" d="M229.841,280.555c-4.46-4.459-11.693-4.459-16.154,0L78.251,415.992
		c-4.461,4.46-4.461,11.693,0,16.154l1.615,1.615c2.231,2.231,5.154,3.346,8.077,3.346s5.847-1.115,8.077-3.346l135.437-135.437
		c4.46-4.46,4.46-11.693,0-16.154L229.841,280.555z"/>
	<path style="fill:#01121C;" d="M496.957,15.056C487.25,5.347,474.342,0,460.612,0s-26.636,5.347-36.344,15.054l-76.506,76.507
		l-14.135-14.135c-17.814-17.814-46.8-17.813-64.613,0l-32.306,32.308c-4.46,4.46-4.46,11.693,0,16.153l41.595,41.595
		L53.225,392.559c-10.738,10.738-15.635,25.639-13.544,40.198L3.358,469.079c-4.461,4.46-4.461,11.693,0,16.154l23.421,23.421
		c2.231,2.231,5.154,3.346,8.077,3.346c2.923,0,5.847-1.116,8.077-3.346l36.324-36.322c14.561,2.091,29.461-2.808,40.198-13.546
		L344.531,233.71l41.595,41.595c4.461,4.46,11.692,4.46,16.154,0l32.306-32.308l0,0c8.602-8.603,13.341-20.077,13.341-32.308
		c0-12.231-4.738-23.704-13.341-32.306l-14.134-14.135l76.506-76.507C516.998,67.704,516.998,35.096,496.957,15.056z M103.3,442.634
		c-6.487,6.488-15.827,8.896-24.377,6.287c-4.038-1.234-8.425-0.137-11.41,2.848l-32.656,32.656l-7.269-7.269L60.244,444.5
		c2.985-2.985,4.08-7.373,2.848-11.411c-2.609-8.549-0.2-17.891,6.287-24.377l225.078-225.077l33.921,33.921L103.3,442.634z
		 M425.081,210.692c0,6.129-2.361,11.865-6.65,16.153l0,0l-24.23,24.23l-91.603-91.604c-0.023-0.023-0.043-0.045-0.066-0.066
		c-0.023-0.023-0.045-0.045-0.067-0.066l-41.529-41.529l24.231-24.23c8.908-8.907,23.401-8.905,32.306,0l100.958,100.959
		C422.72,198.826,425.081,204.564,425.081,210.692z M480.803,71.592l-76.506,76.506l-40.382-40.383l76.506-76.507
		c5.394-5.394,12.564-8.363,20.191-8.363c7.629,0,14.799,2.971,20.192,8.363C491.937,42.342,491.937,60.459,480.803,71.592z"/>
</g>
<g>
</g>
<g>
</g>
<g>
</g>
<g>
</g>
<g>
</g>
<g>
</g>
<g>
</g>
<g>
</g>
<g>
</g>
<g>
</g>
<g>
</g>
<g>
</g>
<g>
</g>
<g>
</g>
<g>
</g>
</svg>
