<?xml version="1.0" encoding="iso-8859-1"?>
<!-- Generator: Adobe Illustrator 19.0.0, SVG Export Plug-In . SVG Version: 6.00 Build 0)  -->
<svg version="1.1" id="Layer_1" xmlns="http://www.w3.org/2000/svg" xmlns:xlink="http://www.w3.org/1999/xlink" x="0px" y="0px"
	 viewBox="0 0 512 512" style="enable-background:new 0 0 512 512;" xml:space="preserve">
<rect x="51.548" y="119.312" style="fill:#FF80AB;" width="408.905" height="92.67"/>
<path style="fill:#FF4181;" d="M39.964,188.814v265.267c0,25.484,20.851,46.335,46.335,46.335h339.403
	c25.484,0,46.335-20.851,46.335-46.335V188.814H39.964z"/>
<polygon style="fill:#FFD86C;" points="28.381,11.584 28.381,142.48 119.429,142.48 131.01,77.032 119.429,11.584 "/>
<polygon style="fill:#FFCE47;" points="119.429,11.584 119.429,142.48 210.477,142.48 222.058,77.032 210.477,11.584 "/>
<polygon style="fill:#FFD86C;" points="210.477,11.584 210.477,142.48 301.525,142.48 313.106,77.032 301.525,11.584 "/>
<polygon style="fill:#FFCE47;" points="301.525,11.584 301.525,142.48 392.573,142.48 404.154,77.032 392.573,11.584 "/>
<rect x="392.573" y="11.584" style="fill:#FFD86C;" width="91.048" height="130.896"/>
<path style="fill:#FFC0D5;" d="M291.643,253.157c0,0-10.481,18.452-35.642,18.452c-25.161,0-35.642-18.452-35.642-18.452
	l-76.493,36.383l18.105,47.542l34.005-7.974v106.445h120.049V329.108l34.005,7.974l18.105-47.542L291.643,253.157z"/>
<g>
	<path style="fill:#01121C;" d="M132.214,293.583l18.105,47.542c2.064,5.422,7.822,8.482,13.47,7.155l19.777-4.638v91.831
		c0,6.397,5.186,11.584,11.584,11.584h120.049c6.398,0,11.584-5.187,11.584-11.584v-91.831l19.777,4.638
		c5.652,1.332,11.405-1.732,13.47-7.155l18.105-47.542c2.149-5.642-0.397-11.99-5.85-14.583l-76.493-36.383
		c-5.485-2.607-12.049-0.539-15.047,4.739c-0.072,0.126-7.652,12.589-25.571,12.589c-17.233,0-24.895-11.521-25.603-12.651
		c-2.926-5.42-9.44-7.328-15.015-4.677l-76.493,36.383C132.61,281.594,130.065,287.941,132.214,293.583z M216.343,267.422
		c7,6.998,19.574,15.691,38.831,15.691s31.831-8.694,38.831-15.691l58.674,27.909l-10.695,28.081l-24.14-5.661
		c-3.444-0.806-7.067,0.002-9.84,2.199c-2.772,2.196-4.389,5.54-4.389,9.078v94.862h-96.882v-94.862
		c0-3.538-1.617-6.881-4.389-9.078c-2.773-2.199-6.398-3.011-9.84-2.199l-24.14,5.661l-10.695-28.081L216.343,267.422z"/>
	<path style="fill:#01121C;" d="M483.674,0H28.327C21.93,0,16.744,5.187,16.744,11.584v131.189c0,6.397,5.186,11.584,11.584,11.584
		h11.471v22.196h-0.77c-6.398,0-11.584,5.187-11.584,11.584v265.017c0,32.449,26.399,58.848,58.848,58.848h337.762
		c32.448,0,58.848-26.398,58.848-58.848V188.136c0-6.099-4.717-11.087-10.701-11.539v-22.241h11.471
		c6.398,0,11.584-5.187,11.584-11.584V11.584C495.258,5.187,490.072,0,483.674,0z M472.09,131.189h-67.903v-16.603
		c0-6.397-5.186-11.584-11.584-11.584c-6.398,0-11.584,5.187-11.584,11.584v16.603h-67.901V23.167h67.901v45.084
		c0,6.397,5.186,11.584,11.584,11.584c6.398,0,11.584-5.187,11.584-11.584V23.167h67.903V131.189z M222.05,131.189V23.167h67.901
		v108.022H222.05z M130.981,131.189V23.167h67.901v108.022H130.981z M39.911,23.167h67.903v108.022H39.911V23.167z M449.035,176.552
		H150.734c-6.398,0-11.584,5.187-11.584,11.584s5.186,11.584,11.584,11.584h309.001v253.433c0,19.674-16.005,35.68-35.68,35.68
		H86.292c-19.674,0-35.68-16.005-35.68-35.68V199.719h53.785c6.398,0,11.584-5.187,11.584-11.584s-5.186-11.584-11.584-11.584
		H62.966v-22.196h386.068v22.196H449.035z"/>
</g>
<g>
</g>
<g>
</g>
<g>
</g>
<g>
</g>
<g>
</g>
<g>
</g>
<g>
</g>
<g>
</g>
<g>
</g>
<g>
</g>
<g>
</g>
<g>
</g>
<g>
</g>
<g>
</g>
<g>
</g>
</svg>
