<?xml version="1.0" encoding="iso-8859-1"?>
<!-- Generator: Adobe Illustrator 19.0.0, SVG Export Plug-In . SVG Version: 6.00 Build 0)  -->
<svg version="1.1" id="Layer_1" xmlns="http://www.w3.org/2000/svg" xmlns:xlink="http://www.w3.org/1999/xlink" x="0px" y="0px"
	 viewBox="0 0 512 512" style="enable-background:new 0 0 512 512;" xml:space="preserve">
<path style="fill:#FF755C;" d="M241.142,6.758C236.785,2.399,230.981,0,224.796,0s-11.989,2.399-16.346,6.757L58.375,156.832
	l4.074,22.633l229.542,222.541l169.528-174.315L241.142,6.758z"/>
<path style="fill:#FFC0D5;" d="M62.449,179.465l-15.025-0.885c-0.395,2.106-0.607,4.179-0.607,6.153v72.813
	c0,9.47,4.861,21.206,11.558,27.904l220.777,220.778c2.064,2.714,12.839-104.222,12.839-104.222L62.449,179.465z"/>
<path style="fill:#FF80AB;" d="M58.375,156.832c-5.301,5.301-9.44,13.758-10.94,21.75l242.58,242.58
	c1.189-11.341,1.976-19.157,1.976-19.157l5.698-5.86L58.375,156.832z"/>
<polygon style="fill:#9AD7FF;" points="453.624,287.595 453.624,336.9 287.206,498.706 287.206,419.34 "/>
<polygon style="fill:#C2E7FF;" points="453.624,235.563 453.624,287.595 287.206,454.013 287.206,397.369 "/>
<path style="fill:#01121C;" d="M445.453,331.434l-146.69,146.69v-19.319l163.035-163.035c4.513-4.513,4.513-11.832,0-16.346
	c-4.514-4.512-11.83-4.512-16.346,0l-146.689,146.69v-12.549c0-3.29,2.461-9.231,4.787-11.558l150.076-150.076
	c4.358-4.357,6.758-10.163,6.758-16.346c0-6.184-2.399-11.99-6.757-16.346L241.142,6.76c-4.357-4.358-10.161-6.758-16.346-6.758
	s-11.989,2.399-16.346,6.757L58.375,156.835c-6.696,6.698-11.558,18.431-11.558,27.902v80.903c0,9.47,4.861,21.206,11.558,27.904
	l185.989,185.987c4.514,4.514,11.834,4.513,16.346,0c4.513-4.513,4.513-11.832,0-16.346L74.721,277.198
	c-2.327-2.327-4.787-8.267-4.787-11.558v-64.557l206.331,206.331c-0.395,2.105-0.617,4.179-0.617,6.152v40.446
	c0,0.003,0,0.008,0,0.012v40.446c0,11.274,6.67,15.253,9.536,16.441c1.173,0.485,3.125,1.09,5.568,1.09
	c3.532,0,8.087-1.263,12.797-5.973l158.249-158.248c4.513-4.513,4.513-11.832,0-16.346
	C457.285,326.922,449.969,326.92,445.453,331.434z M224.796,23.104L437.28,235.587L287.204,385.663L74.721,173.179L224.796,23.104z"
	/>
<g>
</g>
<g>
</g>
<g>
</g>
<g>
</g>
<g>
</g>
<g>
</g>
<g>
</g>
<g>
</g>
<g>
</g>
<g>
</g>
<g>
</g>
<g>
</g>
<g>
</g>
<g>
</g>
<g>
</g>
</svg>
