<?xml version="1.0" encoding="iso-8859-1"?>
<!-- Generator: Adobe Illustrator 19.0.0, SVG Export Plug-In . SVG Version: 6.00 Build 0)  -->
<svg version="1.1" id="Layer_1" xmlns="http://www.w3.org/2000/svg" xmlns:xlink="http://www.w3.org/1999/xlink" x="0px" y="0px"
	 viewBox="0 0 512.001 512.001" style="enable-background:new 0 0 512.001 512.001;" xml:space="preserve">
<path style="fill:#9AD7FF;" d="M92.814,451.765v42.161c1.224,0.444,2.538,0.698,3.912,0.698h318.552v-42.86l-161.231-11.584
	L92.814,451.765z"/>
<path style="fill:#C2E7FF;" d="M415.278,408.905H96.726c-1.373,0-2.686,0.255-3.912,0.698v42.161h322.464L415.278,408.905
	L415.278,408.905z"/>
<path style="fill:#4EB9FF;" d="M128.002,451.765c0-21.05-15.179-38.544-35.188-42.161c-4.459,1.615-7.672,5.888-7.672,10.885v62.552
	c0,4.997,3.213,9.27,7.672,10.885C112.821,490.307,128.002,472.815,128.002,451.765z"/>
<path style="fill:#FFC0D5;" d="M90.933,5.792c-9.596,0-17.376,7.78-17.376,17.376v397.321l81.086-11.584l46.335-201.557
	L154.643,5.792H90.933z"/>
<polygon style="fill:#FF755C;" points="415.277,28.959 350.408,5.792 154.643,5.792 154.643,408.905 403.693,408.905 
	438.444,309.283 438.444,93.829 "/>
<g>
	<polygon style="fill:#FFCE47;" points="438.444,408.905 350.408,397.321 438.444,309.285 	"/>
	<polygon style="fill:#FFCE47;" points="438.444,5.792 438.444,93.828 350.408,5.792 	"/>
</g>
<g>
	<path style="fill:#01121C;" d="M421.204,427.145h11.584c6.397,0,11.584-5.187,11.584-11.584V11.584
		C444.371,5.187,439.184,0,432.788,0H96.887C82.122,0,67.63,14.371,67.63,29.013v398.453v65.545c0,9.452,7.485,18.99,24.206,18.99
		h340.951c6.397,0,11.584-5.187,11.584-11.584c0-6.397-5.187-11.584-11.584-11.584h-11.584V427.145z M161.328,403.977V23.167
		h177.303l82.573,86.895V320.87l-82.426,83.107L161.328,403.977L161.328,403.977z M421.204,353.769v50.208h-49.797L421.204,353.769z
		 M421.204,76.43l-50.613-53.263h50.614V76.43H421.204z M96.887,23.167h41.275v380.81H91.836c-0.346,0-0.694,0.012-1.039,0.03
		V29.013C90.797,27.047,94.838,23.167,96.887,23.167z M90.797,429.4c11.425,4.64,19.26,15.899,19.26,28.589
		c0,12.836-7.802,23.974-19.26,28.58V429.4z M123.608,488.833c3.972-5.727,6.849-12.25,8.37-19.26h34.914
		c6.397,0,11.584-5.187,11.584-11.584c0-6.397-5.187-11.584-11.584-11.584h-34.935c-1.545-6.986-4.461-13.515-8.468-19.26h274.546
		v19.26H209.156c-6.397,0-11.584,5.187-11.584,11.584c0,6.397,5.187,11.584,11.584,11.584h188.882v19.26H123.608z"/>
	<path style="fill:#01121C;" d="M342.814,195.985H239.719c-6.397,0-11.584,5.187-11.584,11.584c0,6.397,5.187,11.584,11.584,11.584
		h103.095c6.397,0,11.584-5.187,11.584-11.584C354.397,201.172,349.211,195.985,342.814,195.985z"/>
	<path style="fill:#01121C;" d="M360.768,149.65H221.764c-6.397,0-11.584,5.187-11.584,11.584s5.187,11.584,11.584,11.584h139.005
		c6.397,0,11.584-5.187,11.584-11.584S367.166,149.65,360.768,149.65z"/>
</g>
<g>
</g>
<g>
</g>
<g>
</g>
<g>
</g>
<g>
</g>
<g>
</g>
<g>
</g>
<g>
</g>
<g>
</g>
<g>
</g>
<g>
</g>
<g>
</g>
<g>
</g>
<g>
</g>
<g>
</g>
</svg>
