<?xml version="1.0" encoding="iso-8859-1"?>
<!-- Generator: Adobe Illustrator 19.0.0, SVG Export Plug-In . SVG Version: 6.00 Build 0)  -->
<svg version="1.1" id="Layer_1" xmlns="http://www.w3.org/2000/svg" xmlns:xlink="http://www.w3.org/1999/xlink" x="0px" y="0px"
	 viewBox="0 0 511.997 511.997" style="enable-background:new 0 0 511.997 511.997;" xml:space="preserve">
<path style="fill:#FFE290;" d="M13.474,146.332v269.474c66.972-66.972,175.554-66.972,242.526,0l53.895-134.737L256,146.332
	C189.028,79.361,80.446,79.361,13.474,146.332z"/>
<path style="fill:#FFCE47;" d="M256,146.332v269.474c66.972-66.972,175.554-66.972,242.526,0V146.332
	C431.554,79.361,322.972,79.361,256,146.332z"/>
<path style="fill:#01121C;" d="M508.054,136.805C439.031,67.783,328.581,64.821,256,127.919
	c-72.58-63.1-183.029-60.137-252.054,8.886C1.42,139.333,0,142.759,0,146.332v269.474c0,5.449,3.284,10.363,8.317,12.448
	c5.035,2.087,10.83,0.932,14.684-2.92c61.611-61.612,161.861-61.612,223.47,0c0.043,0.043,0.092,0.079,0.135,0.123
	c0.274,0.267,0.554,0.526,0.849,0.768c0.168,0.139,0.346,0.26,0.52,0.389c0.179,0.133,0.353,0.272,0.539,0.396
	c0.201,0.133,0.408,0.251,0.613,0.373c0.172,0.102,0.34,0.21,0.517,0.306c0.208,0.112,0.422,0.206,0.633,0.305
	c0.187,0.088,0.371,0.181,0.562,0.26c0.206,0.085,0.418,0.155,0.628,0.229c0.205,0.073,0.407,0.152,0.617,0.216
	c0.213,0.065,0.428,0.112,0.643,0.166c0.212,0.053,0.42,0.112,0.636,0.155c0.251,0.05,0.504,0.079,0.756,0.116
	c0.183,0.026,0.362,0.061,0.547,0.079c0.887,0.088,1.779,0.088,2.665,0c0.185-0.018,0.365-0.054,0.547-0.079
	c0.253-0.035,0.505-0.066,0.756-0.116c0.216-0.043,0.424-0.102,0.636-0.155c0.214-0.054,0.43-0.101,0.643-0.166
	c0.21-0.063,0.412-0.143,0.617-0.216c0.21-0.075,0.42-0.144,0.628-0.229c0.191-0.079,0.375-0.172,0.562-0.26
	c0.212-0.1,0.426-0.194,0.633-0.305c0.177-0.094,0.345-0.203,0.517-0.306c0.206-0.123,0.414-0.238,0.613-0.373
	c0.186-0.124,0.36-0.263,0.539-0.396c0.174-0.129,0.352-0.251,0.52-0.389c0.295-0.243,0.575-0.501,0.849-0.768
	c0.044-0.043,0.092-0.078,0.135-0.123c61.611-61.612,161.861-61.612,223.471,0c2.578,2.577,6.024,3.946,9.53,3.946
	c1.735,0,3.487-0.337,5.154-1.027c5.034-2.086,8.317-6.998,8.317-12.448V146.332C512,142.759,510.58,139.333,508.054,136.805z
	 M26.947,386.737v-234.69c60.543-56.53,155.038-56.518,215.579,0.016v234.675c-32.084-23.031-69.935-34.547-107.789-34.547
	S59.031,363.705,26.947,386.737z M485.053,386.737c-64.168-46.064-151.415-46.053-215.579,0.011V152.063
	c60.541-56.534,155.035-56.548,215.579-0.016V386.737z"/>
<g>
</g>
<g>
</g>
<g>
</g>
<g>
</g>
<g>
</g>
<g>
</g>
<g>
</g>
<g>
</g>
<g>
</g>
<g>
</g>
<g>
</g>
<g>
</g>
<g>
</g>
<g>
</g>
<g>
</g>
</svg>
