<?xml version="1.0" encoding="iso-8859-1"?>
<!-- Generator: Adobe Illustrator 19.0.0, SVG Export Plug-In . SVG Version: 6.00 Build 0)  -->
<svg version="1.1" id="Layer_1" xmlns="http://www.w3.org/2000/svg" xmlns:xlink="http://www.w3.org/1999/xlink" x="0px" y="0px"
	 viewBox="0 0 512 512" style="enable-background:new 0 0 512 512;" xml:space="preserve">
<path style="fill:#FFCE47;" d="M485.238,325.927c20.617,35.871,22.447,73.745,4.992,103.905
	c-17.443,30.149-51.183,47.441-92.566,47.441H244.163l45.774-50.615l-45.774-50.603h153.142l-62.95-109.511l20.976-65.07
	l66.599,14.316L485.238,325.927z"/>
<path style="fill:#85C250;" d="M242.425,369.106l45.774,50.603l-45.774,50.615H116.073c-41.384,0-75.123-17.292-92.566-47.441
	c-17.455-30.161-15.625-68.035,4.992-103.905l77.312-134.506l20.987,65.058l66.599-14.304l-76.965,133.881H242.425z"/>
<path style="fill:#C9D467;" d="M343.285,75.041l76.907,133.8l-66.599-14.316l-20.976,65.07L256,126.305l-62.603,108.921
	l-66.599,14.304l-20.987-65.058l62.904-109.43C189.367,39.112,221.183,18.507,256,18.507S322.633,39.112,343.285,75.041z"/>
<g>
	<path style="fill:#01121C;" d="M493.541,316.765l-50.752-88.292c4.796-0.554,8.927-4.083,9.997-9.066
		c1.345-6.254-2.636-12.414-8.891-13.758l-87.87-18.882c-5.809-1.251-11.631,2.108-13.456,7.769l-27.581,85.538
		c-1.962,6.088,1.381,12.616,7.468,14.578c1.183,0.381,2.38,0.562,3.557,0.562c3.559,0,6.93-1.66,9.115-4.451l40.421,70.321h-86.275
		c-6.396,0-11.582,5.185-11.582,11.582c0,6.397,5.187,11.582,11.582,11.582h106.293c4.134,0,7.955-2.203,10.025-5.782
		c2.071-3.578,2.077-7.988,0.017-11.573l-60.396-105.072l16.19-50.208l51.318,11.028l60.737,105.665
		c18.507,32.198,20.335,65.85,5.014,92.329c-15.322,26.478-45.409,41.665-82.548,41.665H289.273
		c-6.396,0-11.582,5.185-11.582,11.582c0,6.397,5.187,11.582,11.582,11.582h106.652c45.629,0,83.024-19.4,102.597-53.228
		C518.094,398.413,516.279,356.324,493.541,316.765z"/>
	<path style="fill:#01121C;" d="M296.785,415.507l-60.287-66.655c-4.289-4.744-11.615-5.111-16.359-0.82
		c-3.741,3.383-4.748,8.65-2.907,13.054H136.45l43.677-75.985c3.187-5.546,1.276-12.626-4.27-15.813s-12.626-1.276-15.813,4.27
		l-53.652,93.339c-2.059,3.584-2.054,7.994,0.017,11.573c2.07,3.578,5.891,5.782,10.025,5.782h120.847l35.298,39.027l-35.297,39.027
		H116.077c-37.138,0-67.225-15.186-82.548-41.665c-15.321-26.478-13.493-60.132,5.014-92.329l53.926-93.816
		c3.187-5.546,1.276-12.626-4.27-15.813c-5.544-3.187-12.626-1.275-15.813,4.27l-53.926,93.813
		c-22.739,39.558-24.553,81.648-4.98,115.475s56.969,53.228,102.597,53.228h101.156c-1.84,4.404-0.834,9.67,2.907,13.054
		c2.217,2.004,4.995,2.992,7.766,2.992c3.16,0,6.307-1.285,8.594-3.813l60.286-66.655
		C300.776,426.636,300.776,419.919,296.785,415.507z"/>
	<path style="fill:#01121C;" d="M115.77,256.646c1.568,4.866,6.085,8.03,11.017,8.03c0.805,0,1.623-0.085,2.439-0.261l87.869-18.882
		c6.254-1.344,10.235-7.503,8.891-13.758c-1.07-4.983-5.199-8.511-9.998-9.064l40.011-69.609l43.183,75.124
		c3.188,5.546,10.267,7.458,15.813,4.27c5.546-3.187,7.457-10.268,4.27-15.813l-53.225-92.594c-2.066-3.594-5.897-5.81-10.042-5.81
		s-7.976,2.216-10.042,5.811l-60.038,104.45L134.6,239.569l-16.19-50.206l60.345-104.984c18.531-32.24,46.686-50.73,77.243-50.73
		s58.712,18.49,77.243,50.73l53.597,93.246c3.188,5.546,10.267,7.459,15.813,4.27c5.546-3.187,7.457-10.268,4.27-15.813
		l-53.597-93.246c-22.777-39.624-58.251-62.35-97.327-62.35s-74.55,22.726-97.327,62.35l-50.347,87.592
		c-2.907-3.716-7.914-5.426-12.67-3.894c-6.088,1.963-9.432,8.49-7.468,14.578L115.77,256.646z"/>
</g>
<g>
</g>
<g>
</g>
<g>
</g>
<g>
</g>
<g>
</g>
<g>
</g>
<g>
</g>
<g>
</g>
<g>
</g>
<g>
</g>
<g>
</g>
<g>
</g>
<g>
</g>
<g>
</g>
<g>
</g>
</svg>
