<?xml version="1.0" encoding="iso-8859-1"?>
<!-- Generator: Adobe Illustrator 19.0.0, SVG Export Plug-In . SVG Version: 6.00 Build 0)  -->
<svg version="1.1" id="Layer_1" xmlns="http://www.w3.org/2000/svg" xmlns:xlink="http://www.w3.org/1999/xlink" x="0px" y="0px"
	 viewBox="0 0 512.001 512.001" style="enable-background:new 0 0 512.001 512.001;" xml:space="preserve">
<path style="fill:#174461;" d="M489.837,97.996v301.44L256,421.6L22.162,399.435V97.996c0-6.095,4.987-11.082,11.082-11.082h445.51
	C484.85,86.913,489.837,91.9,489.837,97.996z"/>
<path style="fill:#3B8BC0;" d="M489.837,399.435v33.247c0,6.095-4.987,11.082-11.082,11.082H33.244
	c-6.095,0-11.082-4.987-11.082-11.082v-33.247H489.837z"/>
<path style="fill:#01121C;" d="M508.652,270.553l-7.729-7.527V94.199c0-12.222-9.943-22.165-22.165-22.165H304.837l-8.149-7.937
	c-4.386-4.271-11.402-4.178-15.672,0.206c-2.098,2.154-3.137,4.944-3.137,7.731h-43.752c0-2.787-1.038-5.578-3.137-7.733
	c-4.271-4.384-11.287-4.476-15.672-0.206l-8.151,7.939H33.248c-12.222,0-22.165,9.943-22.165,22.165v168.826l-7.733,7.532
	c-4.384,4.271-4.477,11.287-0.206,15.672c2.172,2.23,5.054,3.349,7.939,3.349v139.307c0,12.222,9.943,22.165,22.165,22.165h445.51
	c12.222,0,22.165-9.943,22.165-22.165v-139.31c2.884-0.001,5.763-1.12,7.934-3.349C513.128,281.841,513.036,274.824,508.652,270.553
	z M478.758,94.199v147.238L327.593,94.199H478.758z M33.248,94.199h151.164L33.248,241.437V94.199z M33.248,428.886V272.379
	l182.931-178.18h79.648l182.932,178.18v156.507H33.248z"/>
<g>
</g>
<g>
</g>
<g>
</g>
<g>
</g>
<g>
</g>
<g>
</g>
<g>
</g>
<g>
</g>
<g>
</g>
<g>
</g>
<g>
</g>
<g>
</g>
<g>
</g>
<g>
</g>
<g>
</g>
</svg>
