<?xml version="1.0" encoding="iso-8859-1"?>
<!-- Generator: Adobe Illustrator 19.0.0, SVG Export Plug-In . SVG Version: 6.00 Build 0)  -->
<svg version="1.1" id="Layer_1" xmlns="http://www.w3.org/2000/svg" xmlns:xlink="http://www.w3.org/1999/xlink" x="0px" y="0px"
	 viewBox="0 0 512 512" style="enable-background:new 0 0 512 512;" xml:space="preserve">
<path style="fill:#3B8BC0;" d="M115.029,426.994c0,0,8.875,58.761,10.461,69.253c0.821,5.439,4.46,9.96,9.96,9.96h241.102
	c5.501,0,9.138-4.521,9.96-9.96c1.734-11.481,10.461-69.253,10.461-69.253l-140.971-57.919L115.029,426.994z"/>
<rect x="102.771" y="131.672" style="fill:#85C250;" width="306.459" height="295.327"/>
<rect x="102.771" y="64.767" style="fill:#3B8BC0;" width="306.459" height="66.901"/>
<path style="fill:#01121C;" d="M431.273,126.092c0-6.018-4.591-10.962-10.461-11.527v-55.59c0-6.397-5.186-11.584-11.584-11.584
	h-77.66V32.575C331.569,14.613,316.956,0,298.994,0h-85.988c-17.962,0-32.575,14.613-32.575,32.575v14.817h-77.66
	c-6.398,0-11.584,5.187-11.584,11.584v55.589c-5.871,0.565-10.461,5.509-10.461,11.527s4.591,10.962,10.461,11.527v283.584
	c0,6.397,5.186,11.584,11.584,11.584h2.291l8.972,59.4C115.798,503.853,124.604,512,135.449,512h241.102
	c10.846,0,19.652-8.147,21.414-19.814l8.972-59.399h2.291c6.398,0,11.584-5.187,11.584-11.584V137.619
	C426.682,137.054,431.273,132.11,431.273,126.092z M203.599,32.575c0-5.187,4.22-9.407,9.407-9.407h85.988
	c5.187,0,9.407,4.221,9.407,9.407v14.817H203.599V32.575z M397.644,70.559v43.949H114.356V70.559H397.644z M375.057,488.725
	c-0.006,0.037-0.012,0.073-0.017,0.108H136.96c-0.006-0.034-0.012-0.071-0.017-0.107l-8.449-55.94h185.736
	c6.398,0,11.584-5.187,11.584-11.584c0-6.397-5.186-11.584-11.584-11.584H114.356V137.676h283.289V409.62h-37.081
	c-6.398,0-11.584,5.187-11.584,11.584c0,6.397,5.186,11.584,11.584,11.584h22.944L375.057,488.725z"/>
<g>
</g>
<g>
</g>
<g>
</g>
<g>
</g>
<g>
</g>
<g>
</g>
<g>
</g>
<g>
</g>
<g>
</g>
<g>
</g>
<g>
</g>
<g>
</g>
<g>
</g>
<g>
</g>
<g>
</g>
</svg>
