<?xml version="1.0" encoding="iso-8859-1"?>
<!-- Generator: Adobe Illustrator 19.0.0, SVG Export Plug-In . SVG Version: 6.00 Build 0)  -->
<svg version="1.1" id="Layer_1" xmlns="http://www.w3.org/2000/svg" xmlns:xlink="http://www.w3.org/1999/xlink" x="0px" y="0px"
	 viewBox="0 0 512 512" style="enable-background:new 0 0 512 512;" xml:space="preserve">
<g>
	<path style="fill:#85C250;" d="M106.372,405.628c113.239,26.897,229.969,1.617,310.248-78.661
		c27.966-27.966,49.251-60.361,63.987-95.485l-176.918-23.169L106.372,405.628z"/>
	<path style="fill:#85C250;" d="M215.7,68.664c-10.708,8.107-20.957,17.005-30.668,26.716
		C104.753,175.66,79.474,292.39,106.372,405.629L238.87,296.3L215.7,68.664z"/>
</g>
<path style="fill:#C9D467;" d="M368.506,166.663L345.337,12.107c-46.984,8.741-91.278,27.515-129.637,56.556v227.636
	L368.506,166.663z"/>
<path style="fill:#FFCE47;" d="M495.281,16.719C444.814,4.732,393.655,3.117,345.337,12.108v154.556L495.281,16.719z"/>
<path style="fill:#C9D467;" d="M495.281,16.719L280.519,231.482h200.087C508.172,165.778,512.808,90.51,495.281,16.719z"/>
<path style="fill:#01121C;" d="M501.42,19.4c-0.459-2.088-1.499-4.073-3.122-5.696c-1.623-1.622-3.609-2.664-5.696-3.122
	C440.667-1.73,387.638-3.303,338.066,5.886c-0.021,0.003-0.043,0.008-0.064,0.012c-6.094,1.132-12.141,2.426-18.122,3.882
	c-42.341,10.306-81.619,28.819-115.538,54.258c-0.543,0.344-1.058,0.732-1.535,1.158c-10.976,8.34-21.386,17.413-31.143,27.169
	c-40.213,40.214-68.771,91.465-82.586,148.215c-12.838,52.734-13.03,110.184-0.606,166.563l-85.08,85.08
	c-4.524,4.524-4.525,11.859,0,16.384C5.655,510.868,8.62,512,11.585,512s5.93-1.132,8.191-3.393l85.081-85.081
	c56.38,12.423,113.828,12.231,166.563-0.605c56.75-13.815,108.002-42.372,148.215-82.586c28.017-28.017,50.377-61.393,66.035-98.253
	c0.32-0.604,0.59-1.238,0.799-1.9c6.45-15.463,11.728-31.531,15.752-48.062C515.527,137.464,515.249,77.743,501.42,19.4z
	 M351.746,27.195c36.888-5.788,75.737-5.361,115.009,1.667L351.746,143.871V27.195z M188.049,108.748
	c3.547-3.548,7.176-6.986,10.891-10.322v33.761c0,6.397,5.186,11.585,11.585,11.585c6.398,0,11.585-5.188,11.585-11.585V79.743
	c31.568-22.808,67.691-38.981,106.466-48.036v135.334L222.109,273.507v-97.894c0-6.397-5.186-11.585-11.585-11.585
	c-6.398,0-11.585,5.188-11.585,11.585v121.063l-90.777,90.776C89.183,281.391,118.347,178.451,188.049,108.748z M403.252,323.951
	c-69.701,69.702-172.641,98.866-278.705,79.885l155.594-155.594h177.112C443.526,276.197,425.441,301.762,403.252,323.951z
	 M467.423,225.073H303.311L483.138,45.246C494.443,108.417,488.669,170.479,467.423,225.073z"/>
<g>
</g>
<g>
</g>
<g>
</g>
<g>
</g>
<g>
</g>
<g>
</g>
<g>
</g>
<g>
</g>
<g>
</g>
<g>
</g>
<g>
</g>
<g>
</g>
<g>
</g>
<g>
</g>
<g>
</g>
</svg>
