<?xml version="1.0" encoding="iso-8859-1"?>
<!-- Generator: Adobe Illustrator 19.0.0, SVG Export Plug-In . SVG Version: 6.00 Build 0)  -->
<svg version="1.1" id="Layer_1" xmlns="http://www.w3.org/2000/svg" xmlns:xlink="http://www.w3.org/1999/xlink" x="0px" y="0px"
	 viewBox="0 0 512.002 512.002" style="enable-background:new 0 0 512.002 512.002;" xml:space="preserve">
<polygon style="fill:#FF755C;" points="317.307,225.881 363.729,425.121 500.416,286.116 500.416,87.619 "/>
<polygon style="fill:#FF4181;" points="340.555,325.501 187.656,302.326 34.757,325.501 11.584,425.121 363.729,425.121 "/>
<polygon style="fill:#FF755C;" points="340.555,325.501 363.729,225.881 187.656,225.881 11.584,225.881 34.757,325.501 "/>
<g>
	<polygon style="fill:#FF9356;" points="289.719,325.501 363.729,425.121 363.729,225.881 	"/>
	<polygon style="fill:#FF9356;" points="11.584,225.881 11.584,425.121 85.593,325.501 	"/>
</g>
<polygon style="fill:#FFCE47;" points="148.271,86.877 11.584,225.881 363.642,225.881 500.416,86.877 "/>
<path style="fill:#01121C;" d="M511.999,87.249c-0.001-0.376-0.02-0.753-0.057-1.127c-0.015-0.154-0.045-0.302-0.067-0.454
	c-0.031-0.227-0.059-0.455-0.104-0.68c-0.041-0.203-0.098-0.398-0.149-0.598c-0.043-0.167-0.079-0.336-0.129-0.502
	c-0.059-0.192-0.132-0.376-0.2-0.563c-0.061-0.169-0.116-0.339-0.185-0.506c-0.071-0.169-0.155-0.331-0.234-0.496
	c-0.085-0.177-0.162-0.357-0.256-0.531c-0.083-0.154-0.18-0.3-0.269-0.449c-0.104-0.175-0.203-0.352-0.316-0.521
	c-0.126-0.189-0.269-0.365-0.405-0.546c-0.101-0.132-0.195-0.268-0.302-0.397c-0.234-0.281-0.481-0.551-0.739-0.809
	c-0.008-0.008-0.014-0.016-0.022-0.024c-0.09-0.089-0.189-0.166-0.281-0.253c-0.18-0.166-0.357-0.334-0.546-0.488
	c-0.147-0.12-0.301-0.227-0.452-0.338c-0.152-0.112-0.301-0.228-0.459-0.334c-0.171-0.114-0.349-0.214-0.525-0.319
	c-0.148-0.088-0.294-0.18-0.447-0.261c-0.182-0.096-0.367-0.18-0.553-0.266c-0.158-0.074-0.313-0.151-0.475-0.218
	c-0.184-0.075-0.371-0.139-0.558-0.205c-0.17-0.06-0.338-0.124-0.512-0.176c-0.191-0.057-0.385-0.101-0.578-0.148
	c-0.173-0.043-0.344-0.089-0.52-0.124c-0.219-0.043-0.439-0.071-0.659-0.101c-0.154-0.021-0.305-0.049-0.46-0.064
	c-0.293-0.028-0.587-0.038-0.882-0.044c-0.081-0.001-0.159-0.012-0.24-0.012h-0.046c-0.01,0-0.02,0-0.03,0H148.36
	c-3.094,0-6.059,1.237-8.235,3.437L3.349,217.393c-0.063,0.063-0.114,0.131-0.175,0.195c-0.14,0.148-0.277,0.298-0.409,0.453
	c-0.05,0.058-0.102,0.114-0.151,0.173c-0.07,0.085-0.133,0.174-0.199,0.261c-0.116,0.151-0.229,0.301-0.337,0.456
	c-0.045,0.066-0.094,0.13-0.138,0.196c-0.067,0.101-0.129,0.205-0.192,0.308c-0.088,0.142-0.175,0.285-0.256,0.431
	c-0.044,0.079-0.09,0.156-0.133,0.235c-0.06,0.114-0.115,0.231-0.171,0.346c-0.065,0.132-0.127,0.265-0.186,0.398
	c-0.042,0.095-0.086,0.189-0.126,0.285c-0.049,0.119-0.092,0.241-0.137,0.361c-0.047,0.127-0.094,0.255-0.137,0.383
	c-0.037,0.109-0.075,0.218-0.109,0.328c-0.035,0.117-0.064,0.235-0.095,0.353c-0.036,0.133-0.068,0.268-0.1,0.402
	c-0.027,0.116-0.056,0.229-0.079,0.346c-0.022,0.11-0.036,0.22-0.054,0.33c-0.025,0.154-0.047,0.307-0.067,0.462
	c-0.014,0.11-0.032,0.219-0.043,0.33c-0.009,0.098-0.012,0.198-0.019,0.297c-0.013,0.184-0.02,0.367-0.024,0.551
	c0,0.09-0.012,0.177-0.012,0.268v199.176c0,0.09,0.012,0.177,0.014,0.265c0.005,0.211,0.015,0.419,0.031,0.629
	c0.014,0.185,0.031,0.368,0.054,0.551c0.023,0.181,0.051,0.361,0.082,0.542c0.035,0.202,0.073,0.401,0.118,0.598
	c0.037,0.162,0.08,0.322,0.124,0.483c0.056,0.203,0.114,0.404,0.18,0.604c0.053,0.16,0.114,0.317,0.174,0.475
	c0.072,0.188,0.145,0.374,0.226,0.556c0.075,0.17,0.159,0.336,0.242,0.503c0.081,0.161,0.162,0.322,0.251,0.478
	c0.101,0.18,0.21,0.353,0.321,0.528c0.088,0.137,0.175,0.275,0.268,0.408c0.123,0.176,0.254,0.348,0.387,0.518
	c0.098,0.126,0.198,0.251,0.302,0.373c0.136,0.159,0.277,0.312,0.422,0.463c0.122,0.129,0.246,0.255,0.373,0.378
	c0.137,0.131,0.277,0.258,0.422,0.383c0.154,0.134,0.312,0.264,0.473,0.39c0.073,0.057,0.138,0.119,0.212,0.175
	c0.08,0.059,0.163,0.11,0.244,0.167c0.117,0.083,0.235,0.164,0.356,0.242c0.182,0.118,0.366,0.229,0.553,0.336
	c0.114,0.065,0.226,0.133,0.342,0.195c0.242,0.129,0.488,0.244,0.736,0.354c0.066,0.029,0.131,0.064,0.198,0.092
	c0.323,0.136,0.65,0.254,0.98,0.359c0.08,0.025,0.162,0.045,0.243,0.068c0.261,0.076,0.522,0.145,0.787,0.203
	c0.103,0.023,0.207,0.042,0.313,0.061c0.264,0.05,0.529,0.09,0.796,0.122c0.09,0.01,0.18,0.023,0.271,0.031
	c0.36,0.034,0.721,0.057,1.082,0.057c0.007,0,0.013-0.001,0.02-0.001H363.63c0.007,0,0.013,0.001,0.02,0.001
	c0.348,0,0.696-0.021,1.044-0.052c0.031-0.002,0.063-0.005,0.094-0.007c0.073-0.007,0.144-0.021,0.217-0.029
	c0.243-0.029,0.485-0.064,0.727-0.108c0.06-0.01,0.12-0.019,0.18-0.03c0.067-0.013,0.133-0.03,0.2-0.045
	c0.222-0.049,0.442-0.105,0.663-0.168c0.08-0.022,0.16-0.041,0.24-0.065c0.043-0.013,0.085-0.025,0.127-0.039
	c0.249-0.079,0.496-0.17,0.741-0.266c0.057-0.023,0.116-0.041,0.173-0.064c0.022-0.009,0.044-0.019,0.066-0.028
	c0.068-0.029,0.133-0.064,0.202-0.094c0.224-0.1,0.447-0.202,0.667-0.315c0.044-0.023,0.087-0.045,0.131-0.068
	c0.095-0.051,0.184-0.11,0.278-0.163c0.168-0.096,0.335-0.193,0.499-0.3c0.066-0.043,0.133-0.081,0.199-0.125
	c0.072-0.049,0.139-0.103,0.21-0.154c0.081-0.057,0.164-0.107,0.244-0.167c0.07-0.052,0.131-0.111,0.199-0.164
	c0.086-0.067,0.176-0.126,0.259-0.196c0.079-0.065,0.148-0.138,0.226-0.205c0.145-0.125,0.285-0.253,0.422-0.383
	c0.064-0.06,0.131-0.117,0.193-0.178c0.009-0.009,0.019-0.016,0.027-0.024l136.776-138.262c2.145-2.17,3.349-5.096,3.349-8.147
	V87.279C512,87.268,511.999,87.259,511.999,87.249z M153.195,98.862h319.467L358.803,213.957H39.336L153.195,98.862z
	 M23.167,260.555l47.976,64.575l-47.976,64.575V260.555z M91.399,336.713h73.994c6.398,0,11.584-5.187,11.584-11.584
	c0-6.397-5.186-11.584-11.584-11.584H91.399l-56.778-76.421h305.981l-56.778,76.421h-73.994c-6.398,0-11.584,5.187-11.584,11.584
	c0,6.397,5.186,11.584,11.584,11.584h73.994l56.778,76.421H34.621L91.399,336.713z M304.082,325.129l47.976-64.575v129.148
	L304.082,325.129z M375.224,396.536V230.303l113.608-114.842v166.234L375.224,396.536z"/>
<g>
</g>
<g>
</g>
<g>
</g>
<g>
</g>
<g>
</g>
<g>
</g>
<g>
</g>
<g>
</g>
<g>
</g>
<g>
</g>
<g>
</g>
<g>
</g>
<g>
</g>
<g>
</g>
<g>
</g>
</svg>
