<?xml version="1.0" encoding="iso-8859-1"?>
<!-- Generator: Adobe Illustrator 19.0.0, SVG Export Plug-In . SVG Version: 6.00 Build 0)  -->
<svg version="1.1" id="Layer_1" xmlns="http://www.w3.org/2000/svg" xmlns:xlink="http://www.w3.org/1999/xlink" x="0px" y="0px"
	 viewBox="0 0 512 512" style="enable-background:new 0 0 512 512;" xml:space="preserve">
<polygon style="fill:#FFCE47;" points="209.804,105.601 11.583,303.821 39.667,331.904 155.159,249.175 237.887,133.683 "/>
<polygon style="fill:#FFB14E;" points="237.887,133.683 39.667,331.904 67.751,359.987 183.242,277.259 265.97,161.767 "/>
<polygon style="fill:#FFCE47;" points="265.97,161.767 67.751,359.987 95.833,388.07 211.325,305.342 294.053,189.85 "/>
<polygon style="fill:#FFB14E;" points="294.053,189.85 95.833,388.07 123.916,416.153 239.408,333.425 322.137,217.933 "/>
<polygon style="fill:#FFCE47;" points="322.137,217.933 123.916,416.153 152,444.237 267.492,361.508 350.219,246.016 "/>
<polygon style="fill:#FFB14E;" points="350.219,246.016 152,444.237 180.082,472.319 295.574,389.592 378.303,274.1 "/>
<rect x="273.379" y="247.092" transform="matrix(-0.7071 -0.7071 0.7071 -0.7071 226.7614 868.4343)" style="fill:#FFCE47;" width="39.72" height="280.323"/>
<path style="fill:#FF755C;" d="M483.329,28.657c-15.833-15.833-41.503-15.833-57.337,0l-126.959,126.96L238.42,95.004
	c-9.01-9.01-23.754-9.01-32.763,0l-24.573,24.573L392.41,330.903l24.573-24.573c9.01-9.01,9.01-23.754,0-32.763l-60.613-60.613
	l126.96-126.96C499.161,70.16,499.161,44.491,483.329,28.657z"/>
<g>
	<path style="fill:#01121C;" d="M114.015,369.856c-4.523-4.522-11.858-4.522-16.383,0l-9.895,9.895
		c-4.523,4.523-4.523,11.858,0,16.383c2.262,2.261,5.227,3.393,8.191,3.393c2.964,0,5.93-1.132,8.191-3.393l9.895-9.895
		C118.539,381.715,118.539,374.38,114.015,369.856z"/>
	<path style="fill:#01121C;" d="M139.683,287.958c-4.525-4.521-11.858-4.521-16.383,0l-63.678,63.678
		c-4.523,4.523-4.523,11.858,0,16.383c2.262,2.261,5.227,3.393,8.191,3.393s5.93-1.132,8.191-3.393l63.678-63.678
		C144.206,299.817,144.206,292.482,139.683,287.958z"/>
	<path style="fill:#01121C;" d="M90.55,280.862c-4.523-4.521-11.858-4.522-16.382,0l-42.66,42.658
		c-4.523,4.523-4.523,11.858,0,16.383c2.262,2.261,5.227,3.393,8.191,3.393c2.964,0,5.93-1.132,8.191-3.393l42.659-42.658
		C95.072,292.721,95.073,285.386,90.55,280.862z"/>
	<path style="fill:#01121C;" d="M183.085,357.016c-4.525-4.522-11.858-4.522-16.383,0l-50.85,50.85
		c-4.523,4.523-4.523,11.858,0,16.383c2.262,2.261,5.227,3.393,8.191,3.393c2.964,0,5.93-1.132,8.191-3.393l50.85-50.85
		C187.608,368.874,187.608,361.539,183.085,357.016z"/>
	<path style="fill:#01121C;" d="M512,51.989c0-13.891-5.408-26.951-15.231-36.771c-20.275-20.274-53.267-20.274-73.543,0
		L294.409,144.035l-51.528-51.527c-14.183-14.182-37.261-14.182-51.444,0l-15.528,15.527c-4.266,4.266-4.508,11.032-0.727,15.584
		l-6.775,6.774c-4.551-3.781-11.317-3.538-15.584,0.729c-4.266,4.267-4.508,11.032-0.727,15.584L3.393,295.406
		c-4.523,4.523-4.523,11.858,0,16.383c4.523,4.522,11.858,4.522,16.383,0l148.667-148.668l39.848,39.848l-60.416,60.415
		c-4.523,4.523-4.523,11.858,0,16.383c4.525,4.522,11.859,4.523,16.382,0l60.416-60.415l67.963,67.963l-20.283,20.283
		c-4.523,4.523-4.523,11.858,0,16.383c4.523,4.522,11.858,4.522,16.383,0l20.283-20.284l39.849,39.849L200.199,492.212
		c-4.525,4.523-4.525,11.858,0,16.383c2.261,2.261,5.227,3.393,8.191,3.393s5.93-1.132,8.191-3.393l148.702-148.702
		c4.551,3.781,11.317,3.536,15.584-0.729c4.266-4.267,4.508-11.032,0.729-15.582l6.774-6.775c2.069,1.714,4.682,2.665,7.392,2.665
		c3.072,0,6.019-1.221,8.191-3.393l15.527-15.527c6.87-6.871,10.655-16.006,10.655-25.723c0-9.718-3.784-18.851-10.655-25.723
		l-51.528-51.527L496.769,88.76C506.591,78.937,512,65.879,512,51.989z M365.248,327.162L232.91,194.825
		c-0.015-0.016-0.031-0.031-0.048-0.047c-0.016-0.016-0.032-0.031-0.049-0.048l-47.991-47.991l6.703-6.705l180.423,180.424
		L365.248,327.162z M480.387,72.377l-137.009,137.01c-4.525,4.523-4.525,11.858,0,16.383l59.717,59.719l0,0
		c2.495,2.494,3.869,5.813,3.869,9.34c0,3.527-1.374,6.845-3.869,9.34l-7.336,7.336L200.481,116.226l7.336-7.336
		c5.151-5.15,13.532-5.15,18.681,0l59.719,59.719c0.009,0.009,0.019,0.019,0.028,0.027l18.291,18.291
		c4.523,4.522,11.858,4.522,16.383,0c4.523-4.523,4.523-11.858,0-16.383l-10.128-10.126L439.608,31.599
		c11.243-11.242,29.536-11.242,40.779,0c5.445,5.446,8.444,12.686,8.444,20.39C488.832,59.69,485.833,66.932,480.387,72.377z"/>
	<path style="fill:#01121C;" d="M448.873,40.866c-6.13,6.134-6.13,16.111,0.002,22.247c3.066,3.065,7.094,4.598,11.122,4.598
		s8.055-1.531,11.122-4.598c0.001-0.001,0.001-0.002,0.002-0.003c6.13-6.132,6.13-16.109-0.002-22.245
		C464.986,34.733,455.009,34.735,448.873,40.866z"/>
	<path style="fill:#01121C;" d="M231.125,421.438c-4.523-4.521-11.857-4.522-16.383,0l-42.658,42.658
		c-4.523,4.523-4.523,11.858,0,16.383c2.262,2.261,5.227,3.393,8.191,3.393s5.93-1.132,8.191-3.393l42.659-42.658
		C235.647,433.296,235.648,425.961,231.125,421.438z"/>
	<path style="fill:#01121C;" d="M255.97,340.361c-4.522-4.522-11.858-4.522-16.382,0l-95.62,95.62
		c-4.523,4.523-4.523,11.858,0,16.383c2.262,2.261,5.227,3.393,8.191,3.393s5.93-1.132,8.191-3.393l95.619-95.62
		C260.494,352.219,260.494,344.884,255.97,340.361z"/>
</g>
<g>
</g>
<g>
</g>
<g>
</g>
<g>
</g>
<g>
</g>
<g>
</g>
<g>
</g>
<g>
</g>
<g>
</g>
<g>
</g>
<g>
</g>
<g>
</g>
<g>
</g>
<g>
</g>
<g>
</g>
</svg>
