<?xml version="1.0" encoding="iso-8859-1"?>
<!-- Generator: Adobe Illustrator 19.0.0, SVG Export Plug-In . SVG Version: 6.00 Build 0)  -->
<svg version="1.1" id="Layer_1" xmlns="http://www.w3.org/2000/svg" xmlns:xlink="http://www.w3.org/1999/xlink" x="0px" y="0px"
	 viewBox="0 0 512 512" style="enable-background:new 0 0 512 512;" xml:space="preserve">
<g>
	<rect x="418.033" y="418.033" style="fill:#9AD7FF;" width="82.383" height="82.383"/>
	<rect x="418.033" y="214.808" style="fill:#9AD7FF;" width="82.383" height="82.383"/>
	<rect x="214.808" y="418.033" style="fill:#9AD7FF;" width="82.383" height="82.383"/>
	<rect x="11.584" y="418.033" style="fill:#9AD7FF;" width="82.383" height="82.383"/>
	<rect x="214.808" y="11.584" style="fill:#9AD7FF;" width="82.383" height="82.383"/>
	<rect x="418.033" y="11.584" style="fill:#9AD7FF;" width="82.383" height="82.383"/>
	<rect x="11.584" y="214.808" style="fill:#9AD7FF;" width="82.383" height="82.383"/>
	<rect x="11.584" y="11.584" style="fill:#9AD7FF;" width="82.383" height="82.383"/>
</g>
<g>
	<path style="fill:#01121C;" d="M500.416,105.555c6.398,0,11.584-5.186,11.584-11.584V11.584C512,5.186,506.814,0,500.416,0h-82.388
		c-6.398,0-11.584,5.186-11.584,11.584v29.61h-97.667v-29.61C308.778,5.186,303.592,0,297.194,0h-82.388
		c-6.398,0-11.584,5.186-11.584,11.584v29.61h-97.667v-29.61C105.555,5.186,100.369,0,93.972,0H11.584C5.186,0,0,5.186,0,11.584
		v82.388c0,6.398,5.186,11.584,11.584,11.584h29.61v97.667h-29.61C5.186,203.222,0,208.408,0,214.806v82.388
		c0,6.398,5.186,11.584,11.584,11.584h29.61v97.667h-29.61C5.186,406.445,0,411.631,0,418.028v82.388
		C0,506.814,5.186,512,11.584,512h82.388c6.398,0,11.584-5.186,11.584-11.584v-29.61h97.667v29.61
		c0,6.398,5.186,11.584,11.584,11.584h82.388c6.398,0,11.584-5.186,11.584-11.584v-29.61h97.667v29.61
		c0,6.398,5.186,11.584,11.584,11.584h82.388c6.398,0,11.584-5.186,11.584-11.584v-82.388c0-6.398-5.186-11.584-11.584-11.584
		h-29.61v-97.667h29.61c6.398,0,11.584-5.186,11.584-11.584v-82.388c0-6.398-5.186-11.584-11.584-11.584h-29.61v-97.667H500.416z
		 M429.612,23.167h59.221v59.221h-59.221V23.167z M226.39,23.167h59.221v29.599c0,0.003,0,0.007,0,0.012s0,0.007,0,0.012v29.599
		H226.39L226.39,23.167L226.39,23.167z M23.167,23.167h59.221v59.221H23.167V23.167z M23.167,226.39h29.599c0.003,0,0.007,0,0.012,0
		s0.007,0,0.012,0h29.599v59.221H23.167V226.39z M82.388,488.833H23.167v-59.221h59.221V488.833z M285.61,488.833H226.39v-59.221
		h59.221L285.61,488.833L285.61,488.833z M488.833,488.833h-59.221v-59.221h59.221V488.833z M488.833,285.61h-29.599
		c-0.003,0-0.007,0-0.012,0c-0.005,0-0.007,0-0.012,0h-29.599V226.39h59.221V285.61z M447.639,203.222h-29.61
		c-6.398,0-11.584,5.186-11.584,11.584v82.388c0,6.398,5.186,11.584,11.584,11.584h29.61v97.667h-29.61
		c-6.398,0-11.584,5.186-11.584,11.584v29.61h-97.667v-29.61c0-6.398-5.186-11.584-11.584-11.584h-82.388
		c-6.398,0-11.584,5.186-11.584,11.584v29.61h-97.667v-29.61c0-6.398-5.186-11.584-11.584-11.584h-29.61v-97.667h29.61
		c6.398,0,11.584-5.186,11.584-11.584v-82.388c0-6.398-5.186-11.584-11.584-11.584h-29.61v-97.667h29.61
		c6.398,0,11.584-5.186,11.584-11.584v-29.61h97.667v29.61c0,6.398,5.186,11.584,11.584,11.584h82.388
		c6.398,0,11.584-5.186,11.584-11.584v-29.61h97.667v29.61c0,6.398,5.186,11.584,11.584,11.584h29.61L447.639,203.222
		L447.639,203.222z"/>
	<path style="fill:#01121C;" d="M289.593,244.416h-22.009v-22.009c0-6.398-5.186-11.584-11.584-11.584
		c-6.398,0-11.584,5.186-11.584,11.584v22.009h-22.009c-6.398,0-11.584,5.186-11.584,11.584c0,6.398,5.186,11.584,11.584,11.584
		h22.009v22.009c0,6.398,5.186,11.584,11.584,11.584c6.398,0,11.584-5.186,11.584-11.584v-22.009h22.009
		c6.398,0,11.584-5.186,11.584-11.584C301.176,249.602,295.99,244.416,289.593,244.416z"/>
</g>
<g>
</g>
<g>
</g>
<g>
</g>
<g>
</g>
<g>
</g>
<g>
</g>
<g>
</g>
<g>
</g>
<g>
</g>
<g>
</g>
<g>
</g>
<g>
</g>
<g>
</g>
<g>
</g>
<g>
</g>
</svg>
