<?xml version="1.0" encoding="iso-8859-1"?>
<!-- Generator: Adobe Illustrator 19.0.0, SVG Export Plug-In . SVG Version: 6.00 Build 0)  -->
<svg version="1.1" id="Layer_1" xmlns="http://www.w3.org/2000/svg" xmlns:xlink="http://www.w3.org/1999/xlink" x="0px" y="0px"
	 viewBox="0 0 512 512" style="enable-background:new 0 0 512 512;" xml:space="preserve">
<rect x="144.692" y="90.724" style="fill:#9AD7FF;" width="222.604" height="330.541"/>
<path style="fill:#4EB9FF;" d="M365.314,425.537h-218.63c-6.398,0-11.584-5.186-11.584-11.584V98.047
	c0-6.398,5.186-11.584,11.584-11.584h218.63c6.397,0,11.584,5.186,11.584,11.584v315.905
	C376.898,420.35,371.712,425.537,365.314,425.537z M158.268,402.369h195.462V109.631H158.268V402.369z"/>
<g>
	<path style="fill:#3B8BC0;" d="M146.685,63.296c-6.398,0-11.584-5.186-11.584-11.584V11.584C135.101,5.186,140.287,0,146.685,0
		c6.398,0,11.584,5.186,11.584,11.584v40.128C158.268,58.11,153.082,63.296,146.685,63.296z"/>
	<path style="fill:#3B8BC0;" d="M100.35,109.631H60.221c-6.398,0-11.584-5.186-11.584-11.584c0-6.398,5.186-11.584,11.584-11.584
		h40.128c6.398,0,11.584,5.186,11.584,11.584C111.933,104.445,106.747,109.631,100.35,109.631z"/>
	<path style="fill:#3B8BC0;" d="M365.314,63.296c-6.397,0-11.584-5.186-11.584-11.584V11.584C353.731,5.186,358.918,0,365.314,0
		c6.397,0,11.584,5.186,11.584,11.584v40.128C376.898,58.11,371.712,63.296,365.314,63.296z"/>
	<path style="fill:#3B8BC0;" d="M451.779,109.631h-40.129c-6.397,0-11.584-5.186-11.584-11.584c0-6.398,5.187-11.584,11.584-11.584
		h40.129c6.397,0,11.584,5.186,11.584,11.584C463.362,104.445,458.175,109.631,451.779,109.631z"/>
	<path style="fill:#3B8BC0;" d="M146.685,512c-6.398,0-11.584-5.186-11.584-11.584v-40.128c0-6.398,5.186-11.584,11.584-11.584
		c6.398,0,11.584,5.186,11.584,11.584v40.128C158.268,506.814,153.082,512,146.685,512z"/>
	<path style="fill:#3B8BC0;" d="M100.35,425.537H60.221c-6.398,0-11.584-5.186-11.584-11.584c0-6.398,5.186-11.584,11.584-11.584
		h40.128c6.398,0,11.584,5.186,11.584,11.584C111.933,420.351,106.747,425.537,100.35,425.537z"/>
	<path style="fill:#3B8BC0;" d="M365.314,512c-6.397,0-11.584-5.186-11.584-11.584v-40.128c0-6.398,5.187-11.584,11.584-11.584
		c6.397,0,11.584,5.186,11.584,11.584v40.128C376.898,506.814,371.712,512,365.314,512z"/>
	<path style="fill:#3B8BC0;" d="M451.779,425.537h-40.129c-6.397,0-11.584-5.186-11.584-11.584c0-6.398,5.187-11.584,11.584-11.584
		h40.129c6.397,0,11.584,5.186,11.584,11.584C463.362,420.351,458.175,425.537,451.779,425.537z"/>
</g>
<g>
	<path style="fill:#01121C;" d="M365.314,86.464h-218.63c-6.398,0-11.584,5.186-11.584,11.584v315.905
		c0,6.398,5.186,11.584,11.584,11.584h218.63c6.397,0,11.584-5.186,11.584-11.584V98.048
		C376.898,91.649,371.712,86.464,365.314,86.464z M353.731,402.369H158.268V109.632h195.462L353.731,402.369L353.731,402.369z"/>
	<path style="fill:#01121C;" d="M146.685,63.297c6.398,0,11.584-5.187,11.584-11.584V11.584C158.268,5.186,153.082,0,146.685,0
		c-6.398,0-11.584,5.186-11.584,11.584v40.129C135.101,58.11,140.287,63.297,146.685,63.297z"/>
	<path style="fill:#01121C;" d="M100.35,86.464H60.221c-6.398,0-11.584,5.186-11.584,11.584c0,6.397,5.186,11.584,11.584,11.584
		h40.128c6.398,0,11.584-5.187,11.584-11.584C111.933,91.649,106.747,86.464,100.35,86.464z"/>
	<path style="fill:#01121C;" d="M365.314,0c-6.397,0-11.584,5.186-11.584,11.584v40.129c0,6.397,5.187,11.584,11.584,11.584
		c6.397,0,11.584-5.187,11.584-11.584V11.584C376.898,5.186,371.712,0,365.314,0z"/>
	<path style="fill:#01121C;" d="M411.649,109.632h40.129c6.397,0,11.584-5.187,11.584-11.584c0-6.398-5.187-11.584-11.584-11.584
		h-40.129c-6.397,0-11.584,5.186-11.584,11.584C400.065,104.445,405.253,109.632,411.649,109.632z"/>
	<path style="fill:#01121C;" d="M146.685,448.704c-6.398,0-11.584,5.186-11.584,11.584v40.128c0,6.398,5.186,11.584,11.584,11.584
		c6.398,0,11.584-5.186,11.584-11.584v-40.128C158.268,453.89,153.082,448.704,146.685,448.704z"/>
	<path style="fill:#01121C;" d="M100.35,402.369H60.221c-6.398,0-11.584,5.186-11.584,11.584c0,6.398,5.186,11.584,11.584,11.584
		h40.128c6.398,0,11.584-5.186,11.584-11.584C111.933,407.555,106.747,402.369,100.35,402.369z"/>
	<path style="fill:#01121C;" d="M365.314,448.704c-6.397,0-11.584,5.186-11.584,11.584v40.128c0,6.398,5.187,11.584,11.584,11.584
		c6.397,0,11.584-5.186,11.584-11.584v-40.128C376.898,453.89,371.712,448.704,365.314,448.704z"/>
	<path style="fill:#01121C;" d="M451.779,402.369h-40.129c-6.397,0-11.584,5.186-11.584,11.584c0,6.398,5.187,11.584,11.584,11.584
		h40.129c6.397,0,11.584-5.186,11.584-11.584C463.362,407.555,458.175,402.369,451.779,402.369z"/>
</g>
<g>
</g>
<g>
</g>
<g>
</g>
<g>
</g>
<g>
</g>
<g>
</g>
<g>
</g>
<g>
</g>
<g>
</g>
<g>
</g>
<g>
</g>
<g>
</g>
<g>
</g>
<g>
</g>
<g>
</g>
</svg>
