<?xml version="1.0" encoding="iso-8859-1"?>
<!-- Generator: Adobe Illustrator 19.0.0, SVG Export Plug-In . SVG Version: 6.00 Build 0)  -->
<svg version="1.1" id="Layer_1" xmlns="http://www.w3.org/2000/svg" xmlns:xlink="http://www.w3.org/1999/xlink" x="0px" y="0px"
	 viewBox="0 0 512 512" style="enable-background:new 0 0 512 512;" xml:space="preserve">
<g>
	<circle style="fill:#3B8BC0;" cx="483.423" cy="157.538" r="21.43"/>
	<circle style="fill:#3B8BC0;" cx="26.063" cy="156.508" r="21.43"/>
</g>
<rect x="215.457" y="113.52" style="fill:#9AD7FF;" width="79.545" height="79.545"/>
<path style="fill:#01121C;" d="M369.217,168.479h90.933c4.36,9.232,13.758,15.638,24.627,15.638
	c15.01,0,27.222-12.212,27.222-27.222s-12.212-27.222-27.222-27.222c-10.869,0-20.267,6.406-24.627,15.638H307.354v-31.406
	c0-6.397-5.187-11.584-11.584-11.584H216.23c-6.397,0-11.584,5.187-11.584,11.584v31.406H51.849
	c-4.36-9.232-13.758-15.638-24.627-15.638C12.212,129.674,0,141.885,0,156.896s12.212,27.222,27.222,27.222
	c10.869,0,20.267-6.406,24.627-15.638h90.936c-30.78,15.206-58.493,36.579-81.198,63.057C21.872,277.85,0,337.003,0,398.094
	c0,6.397,5.187,11.584,11.584,11.584s11.584-5.187,11.584-11.584c0-110.045,75.532-203.475,181.479-227.148v22.503
	c0,6.397,5.187,11.584,11.584,11.584h79.541c6.397,0,11.584-5.187,11.584-11.584v-22.504
	c105.946,23.674,181.479,117.103,181.479,227.15c0,6.397,5.187,11.584,11.584,11.584c6.397,0,11.584-5.187,11.584-11.584
	c0-61.092-21.872-120.245-61.587-166.56C427.709,205.056,399.996,183.685,369.217,168.479z M484.778,152.841
	c2.236,0,4.054,1.819,4.054,4.054c0,2.236-1.819,4.054-4.054,4.054c-2.236,0-4.054-1.819-4.054-4.054
	C480.724,154.66,482.543,152.841,484.778,152.841z M27.222,160.95c-2.236,0-4.054-1.819-4.054-4.054
	c0-2.236,1.819-4.054,4.054-4.054s4.054,1.819,4.054,4.054C31.276,159.131,29.457,160.95,27.222,160.95z M227.813,181.864v-24.878
	c0-0.03,0.005-0.059,0.005-0.089c0-0.03-0.005-0.059-0.005-0.089v-31.317h56.373v31.317c0,0.03-0.005,0.059-0.005,0.089
	c0,0.03,0.005,0.059,0.005,0.089v24.878H227.813z"/>
<g>
</g>
<g>
</g>
<g>
</g>
<g>
</g>
<g>
</g>
<g>
</g>
<g>
</g>
<g>
</g>
<g>
</g>
<g>
</g>
<g>
</g>
<g>
</g>
<g>
</g>
<g>
</g>
<g>
</g>
</svg>
