<?xml version="1.0" encoding="iso-8859-1"?>
<!-- Generator: Adobe Illustrator 19.0.0, SVG Export Plug-In . SVG Version: 6.00 Build 0)  -->
<svg version="1.1" id="Layer_1" xmlns="http://www.w3.org/2000/svg" xmlns:xlink="http://www.w3.org/1999/xlink" x="0px" y="0px"
	 viewBox="0 0 512.004 512.004" style="enable-background:new 0 0 512.004 512.004;" xml:space="preserve">
<path style="fill:#3B8BC0;" d="M511.59,174.16l-142.267,28.987l-156.441,53.84l53.106,30.238c2.851,1.622,6.257,1.966,9.369,0.934
	c1.171-0.385,119.062-39.354,204.512-68.847c13.751-4.742,23.621-12.745,28.576-23.138
	C511.622,189.509,512.67,182.039,511.59,174.16z"/>
<path style="fill:#9AD7FF;" d="M337.841,0.411l-28.987,142.267l-53.84,156.441l-30.238-53.106c-1.622-2.851-1.966-6.257-0.934-9.369
	c0.385-1.171,39.354-119.062,68.847-204.512c4.742-13.751,12.745-23.621,23.138-28.576C322.492,0.379,329.962-0.669,337.841,0.411z"
	/>
<g>
	<path style="fill:#01121C;" d="M458.002,65.581c2.965,0,5.928-1.132,8.19-3.393l23.117-23.117c4.523-4.523,4.523-11.857,0-16.382
		c-4.524-4.522-11.856-4.522-16.382,0L449.81,45.807c-4.523,4.523-4.523,11.857,0,16.382
		C452.074,64.45,455.037,65.581,458.002,65.581z"/>
	<path style="fill:#01121C;" d="M399.269,124.315c2.965,0,5.928-1.132,8.19-3.393l23.117-23.117c4.523-4.523,4.523-11.857,0-16.382
		c-4.524-4.522-11.856-4.522-16.382,0l-23.117,23.117c-4.523,4.523-4.523,11.857,0,16.382
		C393.341,123.184,396.304,124.315,399.269,124.315z"/>
	<path style="fill:#01121C;" d="M508.876,163.502c-2.066-5.68-8.151-8.818-13.978-7.201l-192.594,53.398l53.398-192.594
		c1.615-5.824-1.521-11.912-7.201-13.978c-11.774-4.286-23.084-4.127-32.706,0.458c-10.39,4.95-18.388,14.832-23.132,28.575
		c-25.765,74.648-58.76,174.052-66.95,198.777l-10.772,2.986l-70.295-3.755c-6.769-12.101-18.623-21.08-34.101-25.655
		c-17.123-5.063-36.889-4.089-55.655,2.742c-18.765,6.829-34.533,18.79-44.397,33.673c-10.586,15.975-13.268,33.42-7.553,49.12
		c5.715,15.703,18.983,27.34,37.36,32.774c13.771,4.071,29.249,4.239,44.544,0.597l1.232,3.388c2.188,6.01,8.835,9.111,14.846,6.923
		c6.011-2.188,9.111-8.834,6.923-14.845l-1.232-3.389c14.057-7.04,25.808-17.118,33.74-29.088
		c7.004-10.57,10.548-21.784,10.489-32.71l62.019,3.314l26.843,15.29l15.292,26.845l3.314,62.018
		c-10.933-0.1-22.139,3.484-32.71,10.489c-11.971,7.933-22.049,19.683-29.089,33.74l-3.388-1.232
		c-6.011-2.183-12.658,0.913-14.846,6.924c-2.188,6.01,0.912,12.659,6.923,14.846l3.387,1.231
		c-3.643,15.294-3.475,30.773,0.597,44.544c5.432,18.377,17.072,31.645,32.772,37.36c5.399,1.964,11,2.937,16.68,2.937
		c10.84,0,21.959-3.544,32.44-10.491c14.886-9.864,26.845-25.63,33.675-44.397c6.83-18.765,7.805-38.531,2.742-55.655
		c-4.575-15.479-13.554-27.333-25.655-34.102l-3.755-70.294l2.986-10.773c24.725-8.189,124.129-41.185,198.777-66.95
		c13.742-4.744,23.624-12.742,28.575-23.132C513.003,186.586,513.161,175.276,508.876,163.502z M88.03,298.31
		c-27.489,10.005-56.489,2.593-63.323-16.187s10.614-43.098,38.105-53.105c14.14-5.146,28.759-5.964,41.164-2.293
		c10.488,3.101,18.074,9.091,21.549,16.964c0.227,1.105,0.612,2.154,1.133,3.125C131.973,265.352,114.741,288.587,88.03,298.31z
		 M285.277,408.026c3.667,12.404,2.852,27.024-2.295,41.165c-10.008,27.489-34.326,44.934-53.104,38.104
		c-18.779-6.835-26.192-35.835-16.187-63.325c8.535-23.447,27.48-39.59,44.522-39.59c2.371,0,4.707,0.314,6.972,0.963
		c0.971,0.521,2.023,0.907,3.13,1.134C276.187,389.953,282.176,397.539,285.277,408.026z M274.573,223.005
		c-0.047,0.16-0.091,0.32-0.132,0.481l-11.748,42.371l-4.322-7.588c-0.075-0.138-0.153-0.275-0.234-0.41l-10.712-18.806
		c7.679-23.19,41.11-123.938,67.134-199.339c1.861-5.396,5.318-12.418,11.198-15.221c1.286-0.612,2.681-1.011,4.185-1.195
		L274.573,223.005z M487.506,186.243c-2.803,5.881-9.823,9.337-15.221,11.198c-63.951,22.074-146.134,49.472-183.767,61.97
		l6.564-23.673l193.62-53.68C488.518,183.561,488.118,184.958,487.506,186.243z"/>
	<path style="fill:#01121C;" d="M332.345,163.275c-4.523,4.523-4.523,11.857,0,16.382c2.262,2.261,5.226,3.393,8.19,3.393
		c2.964,0,5.928-1.132,8.19-3.393l23.116-23.117c4.523-4.523,4.523-11.857,0-16.382c-4.524-4.522-11.858-4.522-16.382,0
		L332.345,163.275z"/>
</g>
<g>
</g>
<g>
</g>
<g>
</g>
<g>
</g>
<g>
</g>
<g>
</g>
<g>
</g>
<g>
</g>
<g>
</g>
<g>
</g>
<g>
</g>
<g>
</g>
<g>
</g>
<g>
</g>
<g>
</g>
</svg>
