<?xml version="1.0" encoding="iso-8859-1"?>
<!-- Generator: Adobe Illustrator 19.0.0, SVG Export Plug-In . SVG Version: 6.00 Build 0)  -->
<svg version="1.1" id="Layer_1" xmlns="http://www.w3.org/2000/svg" xmlns:xlink="http://www.w3.org/1999/xlink" x="0px" y="0px"
	 viewBox="0 0 512.003 512.003" style="enable-background:new 0 0 512.003 512.003;" xml:space="preserve">
<path style="fill:#FFD86C;" d="M475.231,337.249H150.24v162.496h324.991c13.482,0,24.513-11.031,24.513-24.513v-113.47
	C499.744,348.28,488.713,337.249,475.231,337.249z"/>
<path style="fill:#3B8BC0;" d="M270.827,439.848v-42.704c0-9.934,8.053-17.988,17.988-17.988h42.703
	c9.934,0,17.988,8.053,17.988,17.988v42.704c0,9.934-8.053,17.988-17.988,17.988h-42.704
	C278.88,457.835,270.827,449.782,270.827,439.848z"/>
<path style="fill:#174461;" d="M379.158,439.848v-42.704c0-9.934,8.053-17.988,17.988-17.988h42.704
	c9.934,0,17.988,8.053,17.988,17.988v42.704c0,9.934-8.053,17.988-17.988,17.988h-42.704
	C387.211,457.835,379.158,449.782,379.158,439.848z"/>
<path style="fill:#FFEBB4;" d="M473.687,264.51l-56.734-98.268c-6.741-11.676-21.809-15.714-33.486-8.973l-247.58,142.941
	l14.354,179.348l314.474-181.561C476.389,291.255,480.428,276.185,473.687,264.51z"/>
<path style="fill:#FF80AB;" d="M241,287.915l40.941-23.637c7.51-4.336,17.114-1.763,21.449,5.747l23.637,40.941
	c4.336,7.51,1.762,17.114-5.747,21.449l-40.941,23.638c-7.511,4.336-17.114,1.762-21.449-5.747l-23.637-40.941
	C230.916,301.854,233.489,292.251,241,287.915z"/>
<path style="fill:#FF4181;" d="M334.558,233.9l41.459-23.936c7.367-4.253,16.788-1.729,21.041,5.638l23.936,41.459
	c4.253,7.367,1.729,16.788-5.638,21.041l-41.459,23.936c-7.367,4.253-16.788,1.729-21.041-5.638l-23.936-41.459
	C324.665,247.574,327.19,238.153,334.558,233.9z"/>
<path style="fill:#FFD86C;" d="M345.759,95.05l-98.267-56.734c-11.676-6.741-26.745-2.704-33.486,8.973l-2.483,4.301L47.806,335.152
	L160.4,465.126l194.331-336.592C361.472,116.859,357.435,101.791,345.759,95.05z"/>
<path style="fill:#FFB14E;" d="M149.323,244.718l37.711-63.305l56.707,31.731c4.756,2.661,6.386,8.555,3.639,13.164l-27.768,46.613
	c-2.745,4.61-8.827,6.188-13.583,3.527L149.323,244.718z"/>
<path style="fill:#FF755C;" d="M210.567,137.059l22.73-39.368c4.586-7.945,14.745-10.666,22.689-6.079l39.368,22.73
	c7.945,4.586,10.667,14.745,6.079,22.689l-22.73,39.368c-4.586,7.945-14.745,10.666-22.689,6.079l-39.368-22.73
	C208.703,155.162,205.98,145.004,210.567,137.059z"/>
<path style="fill:#FFEBB4;" d="M93.932,339.077l39.34-68.138l60.584,34.979c4.171,2.408,5.6,7.742,3.193,11.913l-34.979,60.584
	L93.932,339.077z"/>
<path style="fill:#4EB9FF;" d="M174.753,475.23c0,13.482-11.031,24.513-24.513,24.513H36.77c-13.482,0-24.513-11.031-24.513-24.513
	V36.77c0-13.482,11.031-24.513,24.513-24.513h113.47c13.482,0,24.513,11.031,24.513,24.513L174.753,475.23L174.753,475.23z"/>
<circle style="fill:#174461;" cx="93.506" cy="418.5" r="24.513"/>
<g>
	<path style="fill:#01121C;" d="M475.231,324.992h-32.763l28.374-16.382c8.483-4.898,14.556-12.829,17.103-22.335
		c2.547-9.506,1.253-19.411-3.645-27.893l-56.734-98.268c-4.896-8.482-12.829-14.556-22.335-17.104
		c-9.511-2.549-19.413-1.253-27.895,3.645l-28.374,16.382l16.382-28.374c4.898-8.483,6.192-18.388,3.645-27.893
		c-2.547-9.505-8.62-17.437-17.103-22.334L253.618,27.7c-17.557-10.139-40.091-4.1-50.227,13.458l-2.483,4.301
		c-3.385,5.862-1.376,13.358,4.485,16.744c5.864,3.384,13.358,1.376,16.744-4.486l2.483-4.302
		c3.379-5.851,10.889-7.866,16.742-4.487l98.268,56.736c2.812,1.624,4.829,4.269,5.682,7.45c0.852,3.181,0.428,6.481-1.196,9.293
		l-136.03,235.614c-0.069,0.114-0.135,0.23-0.2,0.347l-6.978,12.086c-1.076,1.863-1.642,3.977-1.642,6.128v5.051
		c0,4.379,2.336,8.425,6.128,10.614c1.896,1.095,4.012,1.642,6.128,1.642c2.117,0,4.232-0.548,6.128-1.642l12.796-7.387
		c2.815-1.625,4.87-4.303,5.71-7.442c0.842-3.14,0.401-6.486-1.224-9.301l-2.185-3.785l17.12-29.652l10.745,18.61
		c2.271,3.932,6.389,6.13,10.626,6.13c2.079,0,4.186-0.53,6.116-1.644l46.908-27.082c2.815-1.625,4.87-4.302,5.71-7.442
		c0.842-3.14,0.401-6.486-1.224-9.3l-27.083-46.908c-1.625-2.815-4.302-4.87-7.442-5.71c-0.601-0.161-1.21-0.26-1.82-0.328
		l32.047-55.507l65.144-37.612c2.812-1.623,6.11-2.048,9.293-1.196c3.182,0.853,5.828,2.87,7.451,5.682l56.734,98.268
		c1.623,2.812,2.048,6.112,1.196,9.293c-0.852,3.181-2.871,5.827-5.682,7.451L222.983,423.406c-0.124,0.069-0.245,0.138-0.366,0.212
		l-17.223,9.944c-3.792,2.189-6.128,6.235-6.128,10.614v1.403c0,6.769,5.488,12.257,12.257,12.257h17.396
		c6.768,0,12.257-5.487,12.257-12.257v-4.369l29.652-17.12v21.489c0,6.769,5.488,12.257,12.257,12.257h54.164
		c6.768,0,12.257-5.487,12.257-12.257v-54.165c0-4.05-1.973-7.631-5.001-9.862l55.506-32.046h75.221
		c6.758,0,12.257,5.498,12.257,12.257v113.47c0,6.758-5.498,12.257-12.257,12.257H206.39c-6.768,0-12.257,5.487-12.257,12.257
		c0,6.769,5.488,12.257,12.257,12.257h268.842c20.275,0,36.77-16.495,36.77-36.77v-113.47
		C512.001,341.487,495.506,324.992,475.231,324.992z M286.566,289.913l14.827,25.68l-25.68,14.826l-11.693-20.253l6.267-10.853
		L286.566,289.913z M324.992,403.671v29.652H295.34v-23.385l10.853-6.266h18.798V403.671z"/>
	<path style="fill:#01121C;" d="M445.58,457.835c6.768,0,12.257-5.487,12.257-12.257v-54.165c0-6.769-5.488-12.257-12.257-12.257
		h-54.165c-6.768,0-12.257,5.487-12.257,12.257v54.165c0,6.769,5.488,12.257,12.257,12.257H445.58z M403.671,403.671h29.652v29.652
		h-29.652V403.671z"/>
	<path style="fill:#01121C;" d="M371.172,303.609l46.908-27.082c2.815-1.625,4.87-4.302,5.71-7.442
		c0.842-3.14,0.401-6.486-1.224-9.3l-27.083-46.908c-3.384-5.861-10.88-7.871-16.742-4.486l-46.908,27.083
		c-2.815,1.625-4.87,4.302-5.71,7.442c-0.842,3.14-0.401,6.486,1.224,9.3l27.083,46.908c2.271,3.932,6.389,6.13,10.626,6.13
		C367.134,305.254,369.241,304.725,371.172,303.609z M354.703,250.573l25.68-14.827l14.827,25.68l-25.68,14.826L354.703,250.573z"/>
	<path style="fill:#01121C;" d="M200.904,261.604c-3.382,5.864-1.369,13.358,4.494,16.741l0.227,0.13
		c1.929,1.113,4.035,1.641,6.111,1.641c4.236,0,8.357-2.198,10.626-6.13l27.083-46.908c1.625-2.815,2.066-6.16,1.224-9.3
		c-0.842-3.14-2.895-5.817-5.71-7.442l-27.309-15.767c-5.864-3.384-13.358-1.375-16.742,4.486
		c-3.385,5.862-1.376,13.358,4.486,16.742l16.695,9.639l-19.69,34.105C201.84,260.162,201.339,260.851,200.904,261.604z"/>
	<path style="fill:#01121C;" d="M212.877,157.573l46.908,27.083c1.93,1.114,4.037,1.644,6.116,1.644
		c4.236,0,8.357-2.198,10.626-6.13l27.083-46.908c1.625-2.815,2.066-6.16,1.224-9.3c-0.842-3.14-2.895-5.817-5.71-7.442
		l-46.909-27.085c-5.864-3.385-13.356-1.376-16.742,4.486l-27.083,46.908c-1.625,2.815-2.066,6.16-1.224,9.3
		C208.008,153.269,210.062,155.946,212.877,157.573z M250.573,116.793l25.68,14.826l-14.827,25.68l-25.68-14.827L250.573,116.793z"
		/>
	<path style="fill:#01121C;" d="M150.24,0H36.77C16.495,0,0.001,16.495,0.001,36.77V475.23c0,20.275,16.495,36.77,36.77,36.77
		h113.47c20.275,0,36.77-16.495,36.77-36.77V36.77C187.01,16.495,170.515,0,150.24,0z M162.497,475.23
		c0,6.758-5.498,12.257-12.257,12.257H36.77c-6.758,0-12.257-5.498-12.257-12.257V36.77c0-6.758,5.498-12.257,12.257-12.257h113.47
		c6.758,0,12.257,5.498,12.257,12.257L162.497,475.23L162.497,475.23z"/>
	<path style="fill:#01121C;" d="M93.505,393.983c-13.517,0-24.513,10.997-24.513,24.513s10.997,24.513,24.513,24.513
		s24.513-10.997,24.513-24.513S107.021,393.983,93.505,393.983z"/>
</g>
<g>
</g>
<g>
</g>
<g>
</g>
<g>
</g>
<g>
</g>
<g>
</g>
<g>
</g>
<g>
</g>
<g>
</g>
<g>
</g>
<g>
</g>
<g>
</g>
<g>
</g>
<g>
</g>
<g>
</g>
</svg>
