<?xml version="1.0" encoding="iso-8859-1"?>
<!-- Generator: Adobe Illustrator 19.0.0, SVG Export Plug-In . SVG Version: 6.00 Build 0)  -->
<svg version="1.1" id="Layer_1" xmlns="http://www.w3.org/2000/svg" xmlns:xlink="http://www.w3.org/1999/xlink" x="0px" y="0px"
	 viewBox="0 0 512 512" style="enable-background:new 0 0 512 512;" xml:space="preserve">
<polygon style="fill:#FF9356;" points="34.751,232.831 11.584,410.919 432.579,410.919 432.579,232.831 "/>
<polygon style="fill:#FFCE47;" points="432.579,101.078 11.584,101.078 34.751,255.998 432.579,255.998 "/>
<path style="fill:#FF755C;" d="M480.588,129.319l-48.01-28.241l-23.167,154.921l23.167,154.921l48.01-28.241
	c10.905-6.415,19.828-22.015,19.828-34.667V163.987C500.416,151.335,491.493,135.734,480.588,129.319z"/>
<polygon style="fill:#FF4181;" points="364.741,140.982 364.741,371.014 432.579,410.919 432.579,101.078 "/>
<path style="fill:#FF755C;" d="M59.594,129.32l-48.01-28.242v309.84l48.01-28.241c10.905-6.415,19.828-22.015,19.828-34.667V163.987
	C79.421,151.335,70.5,135.734,59.594,129.32z"/>
<path style="fill:#01121C;" d="M486.461,119.336L438.578,91.17c-0.017-0.01-0.036-0.021-0.053-0.031l-0.074-0.044
	c-0.035-0.02-0.072-0.034-0.105-0.053c-0.006-0.003-0.012-0.006-0.016-0.009c-0.17-0.097-0.343-0.19-0.519-0.279
	c-0.148-0.075-0.297-0.147-0.447-0.215c-0.198-0.09-0.398-0.174-0.602-0.253c-0.14-0.054-0.28-0.105-0.422-0.154
	c-0.197-0.068-0.396-0.131-0.598-0.188c-0.061-0.017-0.12-0.037-0.182-0.054c-0.103-0.028-0.207-0.049-0.312-0.073
	c-0.206-0.049-0.414-0.093-0.624-0.131c-0.132-0.024-0.264-0.047-0.396-0.066c-0.081-0.012-0.161-0.021-0.243-0.031
	c-0.149-0.019-0.299-0.034-0.451-0.045c-0.217-0.019-0.433-0.027-0.651-0.032c-0.103-0.002-0.203-0.015-0.306-0.015H11.584
	c-0.105,0-0.207,0.013-0.313,0.016c-0.214,0.006-0.427,0.014-0.642,0.032c-0.189,0.015-0.375,0.038-0.562,0.063
	c-0.177,0.024-0.353,0.049-0.529,0.081c-0.211,0.037-0.419,0.082-0.627,0.131c-0.151,0.036-0.299,0.074-0.447,0.116
	c-0.217,0.06-0.43,0.126-0.642,0.199c-0.142,0.049-0.284,0.101-0.425,0.155c-0.202,0.079-0.401,0.161-0.598,0.25
	c-0.153,0.069-0.302,0.142-0.452,0.218c-0.174,0.088-0.344,0.18-0.513,0.276c-0.168,0.096-0.331,0.196-0.495,0.3
	c-0.142,0.092-0.283,0.184-0.42,0.281c-0.175,0.123-0.345,0.251-0.514,0.385c-0.12,0.095-0.24,0.192-0.356,0.292
	c-0.167,0.144-0.33,0.291-0.49,0.445c-0.115,0.11-0.226,0.222-0.335,0.337c-0.144,0.151-0.284,0.303-0.42,0.462
	c-0.12,0.14-0.236,0.284-0.35,0.43c-0.111,0.142-0.221,0.287-0.326,0.436c-0.13,0.183-0.25,0.371-0.37,0.561
	c-0.052,0.083-0.111,0.16-0.161,0.244c-0.028,0.047-0.049,0.097-0.075,0.145c-0.119,0.21-0.229,0.425-0.336,0.643
	c-0.064,0.131-0.131,0.261-0.19,0.394c-0.092,0.206-0.171,0.417-0.251,0.629c-0.058,0.153-0.117,0.305-0.168,0.46
	c-0.061,0.187-0.111,0.376-0.163,0.566c-0.051,0.187-0.103,0.372-0.144,0.559c-0.036,0.162-0.061,0.328-0.09,0.493
	c-0.038,0.219-0.075,0.438-0.101,0.657c-0.017,0.147-0.025,0.298-0.037,0.446c-0.019,0.239-0.032,0.476-0.036,0.714
	C0.008,100.969,0,101.022,0,101.079v309.84c0,0.056,0.008,0.11,0.008,0.167c0.003,0.239,0.019,0.475,0.036,0.714
	c0.012,0.149,0.02,0.299,0.037,0.446c0.025,0.22,0.063,0.438,0.101,0.657c0.029,0.166,0.054,0.331,0.09,0.493
	c0.041,0.188,0.093,0.373,0.144,0.559c0.052,0.19,0.102,0.38,0.163,0.566c0.051,0.154,0.111,0.307,0.168,0.46
	c0.08,0.212,0.16,0.423,0.251,0.629c0.059,0.133,0.125,0.263,0.19,0.394c0.107,0.218,0.215,0.433,0.336,0.643
	c0.027,0.047,0.047,0.097,0.075,0.145c0.035,0.058,0.078,0.108,0.112,0.166c0.198,0.323,0.411,0.636,0.639,0.937
	c0.071,0.094,0.138,0.191,0.211,0.281c0.277,0.344,0.57,0.673,0.884,0.982c0.098,0.097,0.204,0.184,0.305,0.277
	c0.233,0.214,0.471,0.419,0.722,0.614c0.129,0.1,0.258,0.198,0.39,0.292c0.276,0.197,0.559,0.38,0.853,0.553
	c0.089,0.052,0.175,0.111,0.266,0.162c0.393,0.218,0.8,0.411,1.22,0.584c0.075,0.03,0.153,0.054,0.228,0.083
	c0.348,0.133,0.702,0.251,1.065,0.351c0.12,0.034,0.241,0.064,0.361,0.093c0.328,0.08,0.66,0.142,0.999,0.193
	c0.127,0.02,0.254,0.043,0.382,0.058c0.405,0.047,0.817,0.074,1.234,0.079c0.042,0,0.083,0.008,0.126,0.008
	c0.012,0,0.023-0.002,0.035-0.002h420.903c0.012,0,0.023,0.002,0.035,0.002c0.042,0,0.085-0.008,0.126-0.008
	c0.417-0.005,0.828-0.032,1.234-0.079c0.054-0.007,0.109-0.009,0.163-0.016c0.085-0.012,0.168-0.035,0.253-0.047
	c0.327-0.05,0.649-0.112,0.965-0.189c0.086-0.021,0.171-0.036,0.257-0.059c0.06-0.016,0.118-0.036,0.178-0.053
	c0.338-0.096,0.668-0.207,0.993-0.332c0.075-0.029,0.151-0.052,0.226-0.082c0.421-0.171,0.828-0.366,1.221-0.584
	c0.063-0.035,0.122-0.073,0.183-0.109c0.028-0.016,0.058-0.027,0.086-0.043l48.01-28.241C501.021,384.097,512,364.901,512,348.01
	V163.987C512,147.095,501.021,127.9,486.461,119.336z M23.167,121.332l30.553,17.972c7.388,4.346,14.118,16.111,14.118,24.684
	V348.01c0,8.572-6.729,20.338-14.118,24.684l-30.553,17.971V121.332z M358.867,130.998c-3.538,2.082-5.711,5.879-5.711,9.984
	v103.432H91.005v-80.428c0-16.891-10.979-36.087-25.539-44.652l-11.344-6.673h335.916L358.867,130.998z M65.468,392.662
	c14.56-8.565,25.539-27.76,25.539-44.652v-80.428h262.151v103.432c0,4.105,2.172,7.902,5.711,9.984l31.172,18.336H54.123
	L65.468,392.662z M376.325,364.388v-216.78l44.67-26.276v269.334L376.325,364.388z M488.833,348.01
	c0,8.572-6.729,20.338-14.118,24.684l-30.553,17.972V121.333l30.553,17.972c7.388,4.346,14.118,16.111,14.118,24.684V348.01z"/>
<g>
</g>
<g>
</g>
<g>
</g>
<g>
</g>
<g>
</g>
<g>
</g>
<g>
</g>
<g>
</g>
<g>
</g>
<g>
</g>
<g>
</g>
<g>
</g>
<g>
</g>
<g>
</g>
<g>
</g>
</svg>
