<?xml version="1.0" encoding="iso-8859-1"?>
<!-- Generator: Adobe Illustrator 19.0.0, SVG Export Plug-In . SVG Version: 6.00 Build 0)  -->
<svg version="1.1" id="Layer_1" xmlns="http://www.w3.org/2000/svg" xmlns:xlink="http://www.w3.org/1999/xlink" x="0px" y="0px"
	 viewBox="0 0 512 512" style="enable-background:new 0 0 512 512;" xml:space="preserve">
<polygon style="fill:#FF9356;" points="500.416,403.692 11.584,403.692 11.584,108.308 256,143.059 500.416,108.308 "/>
<polygon style="fill:#FFCE47;" points="11.584,108.308 69.502,210.244 442.498,210.244 500.416,108.308 "/>
<path style="fill:#01121C;" d="M511.984,108.129c-0.007-0.243-0.015-0.487-0.037-0.729c-0.016-0.177-0.042-0.35-0.065-0.525
	c-0.027-0.192-0.052-0.383-0.087-0.573c-0.038-0.205-0.087-0.405-0.136-0.606c-0.038-0.158-0.076-0.315-0.122-0.471
	c-0.06-0.21-0.13-0.416-0.203-0.621c-0.052-0.148-0.104-0.297-0.162-0.444c-0.078-0.193-0.162-0.383-0.249-0.572
	c-0.073-0.156-0.146-0.314-0.225-0.468c-0.086-0.164-0.176-0.326-0.27-0.485c-0.1-0.171-0.2-0.342-0.309-0.509
	c-0.087-0.134-0.18-0.265-0.272-0.395c-0.127-0.18-0.258-0.357-0.396-0.531c-0.09-0.114-0.185-0.221-0.28-0.331
	c-0.149-0.174-0.302-0.344-0.463-0.51c-0.104-0.108-0.214-0.21-0.322-0.313c-0.159-0.151-0.319-0.3-0.487-0.442
	c-0.138-0.117-0.282-0.226-0.424-0.336c-0.149-0.115-0.297-0.231-0.453-0.338c-0.189-0.132-0.386-0.251-0.583-0.372
	c-0.097-0.06-0.188-0.127-0.288-0.184c-0.029-0.016-0.059-0.028-0.087-0.044c-0.225-0.125-0.456-0.237-0.689-0.348
	c-0.117-0.056-0.232-0.117-0.349-0.168c-0.217-0.094-0.439-0.174-0.663-0.254c-0.142-0.051-0.283-0.11-0.425-0.155
	c-0.18-0.058-0.364-0.101-0.547-0.149c-0.192-0.051-0.383-0.108-0.577-0.148c-0.138-0.029-0.279-0.046-0.419-0.071
	c-0.243-0.042-0.485-0.085-0.729-0.111c-0.12-0.013-0.244-0.016-0.366-0.025c-0.263-0.02-0.526-0.038-0.788-0.039
	c-0.032,0-0.064-0.005-0.096-0.005H11.584c-0.025,0-0.051,0.003-0.076,0.003c-0.292,0.001-0.584,0.02-0.876,0.044
	c-0.095,0.008-0.19,0.009-0.285,0.02c-0.268,0.029-0.534,0.074-0.8,0.122c-0.117,0.021-0.236,0.035-0.352,0.059
	c-0.21,0.044-0.416,0.104-0.624,0.16c-0.169,0.045-0.339,0.085-0.505,0.138c-0.149,0.049-0.297,0.109-0.445,0.163
	c-0.218,0.079-0.436,0.156-0.646,0.248c-0.118,0.051-0.235,0.114-0.352,0.169c-0.232,0.11-0.463,0.221-0.687,0.346
	c-0.029,0.016-0.059,0.028-0.088,0.044c-0.1,0.057-0.19,0.124-0.288,0.184c-0.197,0.12-0.393,0.241-0.583,0.372
	c-0.153,0.111-0.301,0.227-0.449,0.342c-0.142,0.11-0.287,0.219-0.424,0.336c-0.169,0.142-0.328,0.292-0.487,0.442
	c-0.109,0.103-0.218,0.205-0.322,0.313c-0.161,0.166-0.314,0.337-0.463,0.51c-0.096,0.109-0.191,0.218-0.281,0.331
	c-0.139,0.173-0.269,0.35-0.396,0.531c-0.093,0.13-0.185,0.261-0.272,0.395c-0.109,0.167-0.21,0.337-0.309,0.509
	c-0.093,0.16-0.184,0.321-0.27,0.485c-0.08,0.154-0.153,0.31-0.225,0.468c-0.087,0.189-0.171,0.378-0.249,0.572
	c-0.058,0.146-0.11,0.294-0.162,0.444c-0.072,0.205-0.141,0.41-0.203,0.621c-0.045,0.156-0.082,0.314-0.122,0.471
	c-0.049,0.2-0.097,0.402-0.136,0.606c-0.036,0.19-0.061,0.381-0.088,0.573c-0.023,0.175-0.05,0.348-0.065,0.525
	c-0.022,0.242-0.03,0.485-0.037,0.729C0.013,108.234,0,108.336,0,108.441v295.118c0,6.397,5.187,11.584,11.584,11.584h488.833
	c6.397,0,11.584-5.187,11.584-11.584V108.441C512,108.336,511.987,108.234,511.984,108.129z M480.482,120.025l-44.715,78.465H76.234
	l-44.715-78.465C31.518,120.025,480.482,120.025,480.482,120.025z M23.167,391.975V152.164l36.271,63.646
	c2.061,3.615,5.903,5.849,10.064,5.849h372.995c4.162,0,8.003-2.233,10.064-5.849l36.271-63.646v239.812H23.167z"/>
<g>
</g>
<g>
</g>
<g>
</g>
<g>
</g>
<g>
</g>
<g>
</g>
<g>
</g>
<g>
</g>
<g>
</g>
<g>
</g>
<g>
</g>
<g>
</g>
<g>
</g>
<g>
</g>
<g>
</g>
</svg>
