<?xml version="1.0" encoding="iso-8859-1"?>
<!-- Generator: Adobe Illustrator 19.0.0, SVG Export Plug-In . SVG Version: 6.00 Build 0)  -->
<svg version="1.1" id="Layer_1" xmlns="http://www.w3.org/2000/svg" xmlns:xlink="http://www.w3.org/1999/xlink" x="0px" y="0px"
	 viewBox="0 0 512 512" style="enable-background:new 0 0 512 512;" xml:space="preserve">
<rect x="11.584" y="19.692" style="fill:#FFB14E;" width="488.833" height="231.848"/>
<rect x="227.041" y="310.617" style="fill:#174461;" width="57.919" height="179.768"/>
<g>
	<path style="fill:#01121C;" d="M500.416,9.648H11.584C5.186,9.648,0,14.835,0,21.232v231.847c0,6.397,5.186,11.584,11.584,11.584
		h488.833c6.398,0,11.584-5.187,11.584-11.584V21.232C512,14.834,506.814,9.648,500.416,9.648z M488.833,241.495H23.167V32.816
		h465.665V241.495z"/>
	<path style="fill:#01121C;" d="M500.416,278.786c-6.398,0-11.584,5.187-11.584,11.584v9.043h-74.599v-9.043
		c0-6.397-5.186-11.584-11.584-11.584c-6.398,0-11.584,5.187-11.584,11.584v9.043h-74.599v-9.043
		c0-6.397-5.186-11.584-11.584-11.584c-6.398,0-11.584,5.187-11.584,11.584v9.043H218.7v-9.043c0-6.397-5.186-11.584-11.584-11.584
		s-11.584,5.187-11.584,11.584v9.043h-74.599v-9.043c0-6.397-5.186-11.584-11.584-11.584s-11.584,5.187-11.584,11.584v9.043H23.167
		v-9.043c0-6.397-5.186-11.584-11.584-11.584S0,283.974,0,290.37v20.627c0,6.397,5.186,11.584,11.584,11.584h203.873v168.187
		c0,6.397,5.186,11.584,11.584,11.584c6.398,0,11.584-5.187,11.584-11.584V322.581h34.751v168.187
		c0,6.397,5.186,11.584,11.584,11.584s11.584-5.187,11.584-11.584V322.581h203.873c6.398,0,11.584-5.187,11.584-11.584V290.37
		C512,283.974,506.814,278.786,500.416,278.786z"/>
</g>
<g>
</g>
<g>
</g>
<g>
</g>
<g>
</g>
<g>
</g>
<g>
</g>
<g>
</g>
<g>
</g>
<g>
</g>
<g>
</g>
<g>
</g>
<g>
</g>
<g>
</g>
<g>
</g>
<g>
</g>
</svg>
