<?xml version="1.0" encoding="iso-8859-1"?>
<!-- Generator: Adobe Illustrator 19.0.0, SVG Export Plug-In . SVG Version: 6.00 Build 0)  -->
<svg version="1.1" id="Layer_1" xmlns="http://www.w3.org/2000/svg" xmlns:xlink="http://www.w3.org/1999/xlink" x="0px" y="0px"
	 viewBox="0 0 511.998 511.998" style="enable-background:new 0 0 511.998 511.998;" xml:space="preserve">
<polygon style="fill:#C2E7FF;" points="183.673,113.624 218.425,184.713 111.356,155.754 "/>
<polygon style="fill:#9AD7FF;" points="400.648,155.754 400.648,416.144 256.002,500.416 232.835,205.274 "/>
<polygon style="fill:#C2E7FF;" points="328.331,77.286 400.648,155.754 256.002,240.026 183.673,161.546 250.06,92.962 "/>
<polygon style="fill:#4EB9FF;" points="256.002,240.026 256.002,500.416 111.356,416.144 111.356,155.754 183.673,161.546 "/>
<polygon style="fill:#9AD7FF;" points="328.331,11.583 328.331,77.286 183.673,161.546 183.673,95.855 "/>
<path style="fill:#01121C;" d="M412.218,155.543c-0.007-0.375-0.031-0.748-0.074-1.122c-0.01-0.091-0.015-0.184-0.029-0.276
	c-0.064-0.458-0.155-0.912-0.275-1.361c-0.019-0.071-0.043-0.138-0.064-0.208c-0.108-0.376-0.235-0.747-0.381-1.114
	c-0.042-0.103-0.083-0.206-0.127-0.308c-0.154-0.356-0.326-0.703-0.518-1.045c-0.037-0.067-0.071-0.137-0.109-0.203
	c-0.233-0.396-0.489-0.782-0.773-1.155c-0.057-0.074-0.12-0.142-0.18-0.215c-0.17-0.212-0.337-0.426-0.525-0.63l-69.257-75.148
	V11.583c0-4.147-2.216-7.978-5.812-10.043c-3.594-2.065-8.019-2.053-11.605,0.034L177.847,85.842
	c-3.561,2.075-5.752,5.887-5.752,10.009v11.113l-66.57,38.783c-0.022,0.013-0.041,0.028-0.063,0.041
	c-0.12,0.072-0.235,0.154-0.353,0.231c-0.218,0.14-0.438,0.278-0.643,0.43c-0.094,0.069-0.181,0.148-0.272,0.22
	c-0.224,0.175-0.445,0.352-0.652,0.541c-0.014,0.013-0.029,0.023-0.043,0.036c-0.066,0.06-0.122,0.129-0.187,0.19
	c-0.209,0.2-0.412,0.404-0.604,0.617c-0.078,0.087-0.147,0.178-0.221,0.268c-0.176,0.21-0.348,0.42-0.507,0.641
	c-0.079,0.108-0.149,0.22-0.224,0.33c-0.14,0.208-0.277,0.417-0.403,0.632c-0.076,0.131-0.145,0.265-0.217,0.398
	c-0.108,0.203-0.212,0.407-0.308,0.615c-0.07,0.151-0.132,0.303-0.193,0.458c-0.081,0.199-0.159,0.401-0.228,0.604
	c-0.056,0.163-0.108,0.329-0.156,0.495c-0.059,0.203-0.114,0.407-0.162,0.613c-0.039,0.168-0.075,0.336-0.108,0.505
	c-0.041,0.215-0.074,0.432-0.102,0.651c-0.021,0.161-0.042,0.321-0.056,0.482c-0.021,0.24-0.031,0.48-0.037,0.721
	c-0.002,0.097-0.015,0.193-0.015,0.292v260.39c0,4.123,2.192,7.935,5.752,10.009l144.646,84.268
	c0.035,0.021,0.073,0.034,0.108,0.053c0.411,0.234,0.834,0.449,1.275,0.632c0.01,0.005,0.021,0.007,0.031,0.012
	c0.415,0.171,0.843,0.313,1.28,0.436c0.114,0.031,0.226,0.059,0.339,0.087c0.345,0.086,0.697,0.155,1.054,0.21
	c0.119,0.019,0.239,0.041,0.358,0.054c0.455,0.054,0.915,0.09,1.384,0.09c0.469,0,0.93-0.036,1.384-0.09
	c0.12-0.014,0.239-0.036,0.358-0.054c0.357-0.054,0.708-0.123,1.054-0.21c0.114-0.029,0.227-0.056,0.339-0.087
	c0.437-0.123,0.866-0.264,1.28-0.436c0.01-0.005,0.021-0.007,0.031-0.012c0.44-0.183,0.864-0.398,1.275-0.632
	c0.035-0.02,0.073-0.034,0.108-0.053l144.646-84.268c3.561-2.075,5.752-5.887,5.752-10.009v-260.39
	C412.232,155.685,412.219,155.615,412.218,155.543z M316.741,31.738v38.887l-98.011,57.097c-5.527,3.22-7.399,10.312-4.177,15.841
	c3.219,5.527,10.312,7.397,15.841,4.177l95.721-55.764l56.245,61.029l-124.146,72.325l-62.951-68.306v-54.515L316.741,31.738z
	 M172.094,149.001l-22.973-1.839l22.973-13.384V149.001z M389.064,409.491l-121.478,70.771v-58.122
	c0-6.397-5.187-11.584-11.584-11.584c-6.397,0-11.584,5.187-11.584,11.584v58.122L122.94,409.491V168.306l55.294,4.427
	l66.185,71.814v131.255c0,6.397,5.187,11.584,11.584,11.584c6.397,0,11.584-5.187,11.584-11.584V246.682l121.478-70.77V409.491z"/>
<g>
</g>
<g>
</g>
<g>
</g>
<g>
</g>
<g>
</g>
<g>
</g>
<g>
</g>
<g>
</g>
<g>
</g>
<g>
</g>
<g>
</g>
<g>
</g>
<g>
</g>
<g>
</g>
<g>
</g>
</svg>
