<?xml version="1.0" encoding="iso-8859-1"?>
<!-- Generator: Adobe Illustrator 19.0.0, SVG Export Plug-In . SVG Version: 6.00 Build 0)  -->
<svg version="1.1" id="Layer_1" xmlns="http://www.w3.org/2000/svg" xmlns:xlink="http://www.w3.org/1999/xlink" x="0px" y="0px"
	 viewBox="0 0 512 512" style="enable-background:new 0 0 512 512;" xml:space="preserve">
<polygon style="fill:#FFCE47;" points="500.416,19.751 11.584,19.751 11.584,60.294 256,83.461 500.416,60.294 "/>
<polygon style="fill:#FFE290;" points="500.416,60.294 11.584,60.294 11.584,100.837 256,124.004 500.416,100.837 "/>
<polygon style="fill:#FFCE47;" points="500.416,100.837 11.584,100.837 11.584,141.38 256,164.547 500.416,141.38 "/>
<polygon style="fill:#FFE290;" points="500.416,141.38 11.584,141.38 11.584,181.923 256,205.09 500.416,181.923 "/>
<polygon style="fill:#FFCE47;" points="500.416,181.923 11.584,181.923 11.584,222.466 256,245.633 500.416,222.466 "/>
<polygon style="fill:#FFE290;" points="500.416,222.466 11.584,222.466 11.584,263.009 256,286.176 500.416,263.009 "/>
<polygon style="fill:#FFCE47;" points="404.771,263.009 107.229,263.009 57.919,303.552 256,326.719 454.081,303.552 "/>
<polygon style="fill:#FFE290;" points="454.081,303.552 57.919,303.552 57.919,344.095 256,367.262 454.081,344.095 "/>
<rect x="57.919" y="344.095" style="fill:#FFCE47;" width="396.163" height="40.543"/>
<path style="fill:#3B8BC0;" d="M404.771,263.009C393.232,328.679,331.023,378.846,256,378.846s-137.232-50.167-148.771-115.837
	H11.584v192.174h488.833V263.009H404.771z"/>
<g>
	<path style="fill:#01121C;" d="M500.416,256.785h-92.413c-5.625,0-10.438,4.042-11.41,9.583
		C385.516,329.551,326.388,375.411,256,375.411s-129.517-45.86-140.594-109.043c-0.971-5.542-5.784-9.583-11.41-9.583H11.584
		C5.186,256.785,0,261.972,0,268.368v192.079c0,6.397,5.186,11.584,11.584,11.584H35.91v14.602c0,6.397,5.186,11.584,11.584,11.584
		s11.584-5.187,11.584-11.584v-14.602h393.846v14.602c0,6.397,5.186,11.584,11.584,11.584s11.584-5.187,11.584-11.584v-14.602
		h24.326c6.398,0,11.584-5.187,11.584-11.584V268.369C512,261.971,506.814,256.785,500.416,256.785z M488.833,448.864H23.167
		V279.952h71.446c7.889,31.804,26.768,60.656,53.889,82.045c29.913,23.589,68.09,36.581,107.498,36.581
		s77.585-12.992,107.498-36.581c27.121-21.389,46-50.241,53.889-82.045h71.446V448.864z"/>
	<path style="fill:#01121C;" d="M380.773,268.369c0-6.397-5.186-11.584-11.584-11.584H142.811c-6.398,0-11.584,5.187-11.584,11.584
		s5.186,11.584,11.584,11.584H369.19C375.587,279.952,380.773,274.765,380.773,268.369z"/>
	<path style="fill:#01121C;" d="M500.416,175.955H11.584C5.186,175.955,0,181.142,0,187.539s5.186,11.584,11.584,11.584h488.833
		c6.398,0,11.584-5.187,11.584-11.584S506.814,175.955,500.416,175.955z"/>
	<path style="fill:#01121C;" d="M500.416,95.125H11.584C5.186,95.125,0,100.312,0,106.709s5.186,11.584,11.584,11.584h488.833
		c6.398,0,11.584-5.187,11.584-11.584S506.814,95.125,500.416,95.125z"/>
	<path style="fill:#01121C;" d="M500.416,135.54H11.584C5.186,135.54,0,140.728,0,147.124s5.186,11.584,11.584,11.584h488.833
		c6.398,0,11.584-5.187,11.584-11.584S506.814,135.54,500.416,135.54z"/>
	<path style="fill:#01121C;" d="M500.416,54.454H11.584C5.186,54.454,0,59.642,0,66.038c0,6.397,5.186,11.584,11.584,11.584h488.833
		c6.398,0,11.584-5.187,11.584-11.584S506.814,54.454,500.416,54.454z"/>
	<path style="fill:#01121C;" d="M11.584,36.95h488.833c6.398,0,11.584-5.187,11.584-11.584s-5.186-11.584-11.584-11.584H11.584
		C5.186,13.783,0,18.97,0,25.367S5.186,36.95,11.584,36.95z"/>
	<path style="fill:#01121C;" d="M500.416,216.369H11.584C5.186,216.369,0,221.556,0,227.953c0,6.397,5.186,11.584,11.584,11.584
		h488.833c6.398,0,11.584-5.187,11.584-11.584C512,221.556,506.814,216.369,500.416,216.369z"/>
	<path style="fill:#01121C;" d="M362.541,308.783c0-6.397-5.186-11.584-11.584-11.584H161.043c-6.398,0-11.584,5.187-11.584,11.584
		c0,6.397,5.186,11.584,11.584,11.584h189.915C357.355,320.367,362.541,315.181,362.541,308.783z"/>
	<path style="fill:#01121C;" d="M226.463,337.615c-6.398,0-11.584,5.187-11.584,11.584c0,6.397,5.186,11.584,11.584,11.584h59.073
		c6.398,0,11.584-5.187,11.584-11.584c0-6.397-5.186-11.584-11.584-11.584H226.463z"/>
</g>
<g>
</g>
<g>
</g>
<g>
</g>
<g>
</g>
<g>
</g>
<g>
</g>
<g>
</g>
<g>
</g>
<g>
</g>
<g>
</g>
<g>
</g>
<g>
</g>
<g>
</g>
<g>
</g>
<g>
</g>
</svg>
