<?xml version="1.0" encoding="iso-8859-1"?>
<!-- Generator: Adobe Illustrator 19.0.0, SVG Export Plug-In . SVG Version: 6.00 Build 0)  -->
<svg version="1.1" id="Layer_1" xmlns="http://www.w3.org/2000/svg" xmlns:xlink="http://www.w3.org/1999/xlink" x="0px" y="0px"
	 viewBox="0 0 512 512" style="enable-background:new 0 0 512 512;" xml:space="preserve">
<path style="fill:#3B8BC0;" d="M471.781,323.843h-58.258v95.416h58.258c15.815,0,28.635-12.821,28.635-28.635V352.48
	C500.416,336.663,487.595,323.843,471.781,323.843z"/>
<rect x="33.431" y="151.527" style="fill:#C2E7FF;" width="393.001" height="132.159"/>
<rect x="82.175" y="29.42" style="fill:#FFCE47;" width="295.512" height="254.262"/>
<polygon style="fill:#4EB9FF;" points="448.278,323.848 448.278,482.58 11.584,482.58 11.584,323.848 229.931,289.097 "/>
<rect x="11.584" y="260.518" style="fill:#174461;" width="436.694" height="63.328"/>
<g>
	<path style="fill:#01121C;" d="M471.78,312.257h-11.923v-51.741c0-6.398-5.187-11.584-11.584-11.584h-10.262v-97.409
		c0-6.398-5.187-11.584-11.584-11.584h-37.161V29.418c0-6.398-5.187-11.584-11.584-11.584H82.174
		c-6.397,0-11.584,5.186-11.584,11.584V139.94H33.429c-6.397,0-11.584,5.186-11.584,11.584v97.409H11.584
		C5.187,248.933,0,254.119,0,260.517v222.066c0,6.398,5.187,11.584,11.584,11.584h436.69c6.397,0,11.584-5.186,11.584-11.584
		v-51.741h11.923c22.178,0,40.22-18.042,40.22-40.219v-38.145C512,330.299,493.958,312.257,471.78,312.257z M414.844,163.108v85.825
		h-25.577v-85.825H414.844z M93.757,41.002h272.341v207.931h-23.357v-17.893c0-22.177-18.042-40.219-40.22-40.219h-99.077
		c-22.178,0-40.22,18.042-40.22,40.219v17.893h-22.943v-39.371c0-6.398-5.187-11.584-11.584-11.584s-11.584,5.186-11.584,11.584
		v39.371H93.757V41.002z M186.392,248.933v-17.893c0-9.403,7.65-17.051,17.052-17.051h99.078c9.402,0,17.052,7.65,17.052,17.051
		v17.893H186.392z M45.013,163.108H70.59v85.825H45.013V163.108z M436.69,470.998H23.167V335.425h69.501
		c6.397,0,11.584-5.186,11.584-11.584s-5.187-11.584-11.584-11.584H23.167V272.1h59.006h295.509h59.006v40.157H140.393
		c-6.397,0-11.584,5.186-11.584,11.584s5.187,11.584,11.584,11.584H436.69V470.998z M488.833,390.621
		c0,9.402-7.65,17.051-17.052,17.051h-11.923v-72.249h11.923c9.402,0,17.052,7.65,17.052,17.051V390.621z"/>
	<path style="fill:#01121C;" d="M137.409,98.775h185.038c6.397,0,11.584-5.186,11.584-11.584c0-6.397-5.187-11.584-11.584-11.584
		H137.409c-6.397,0-11.584,5.187-11.584,11.584C125.826,93.591,131.013,98.775,137.409,98.775z"/>
	<path style="fill:#01121C;" d="M137.409,156.55h185.038c6.397,0,11.584-5.186,11.584-11.584c0-6.398-5.187-11.584-11.584-11.584
		H137.409c-6.397,0-11.584,5.186-11.584,11.584S131.013,156.55,137.409,156.55z"/>
	<path style="fill:#01121C;" d="M309.269,387.202c-6.397,0-11.584,5.186-11.584,11.584v20.471c0,6.398,5.187,11.584,11.584,11.584
		c6.397,0,11.584-5.186,11.584-11.584v-20.471C320.853,392.388,315.667,387.202,309.269,387.202z"/>
	<path style="fill:#01121C;" d="M355.604,387.202c-6.397,0-11.584,5.186-11.584,11.584v20.471c0,6.398,5.187,11.584,11.584,11.584
		s11.584-5.186,11.584-11.584v-20.471C367.187,392.388,362.001,387.202,355.604,387.202z"/>
	<path style="fill:#01121C;" d="M401.939,387.202c-6.397,0-11.584,5.186-11.584,11.584v20.471c0,6.398,5.187,11.584,11.584,11.584
		c6.397,0,11.584-5.186,11.584-11.584v-20.471C413.522,392.388,408.336,387.202,401.939,387.202z"/>
</g>
<g>
</g>
<g>
</g>
<g>
</g>
<g>
</g>
<g>
</g>
<g>
</g>
<g>
</g>
<g>
</g>
<g>
</g>
<g>
</g>
<g>
</g>
<g>
</g>
<g>
</g>
<g>
</g>
<g>
</g>
</svg>
