<?xml version="1.0" encoding="iso-8859-1"?>
<!-- Generator: Adobe Illustrator 19.0.0, SVG Export Plug-In . SVG Version: 6.00 Build 0)  -->
<svg version="1.1" id="Layer_1" xmlns="http://www.w3.org/2000/svg" xmlns:xlink="http://www.w3.org/1999/xlink" x="0px" y="0px"
	 viewBox="0 0 512 512" style="enable-background:new 0 0 512 512;" xml:space="preserve">
<path style="fill:#9AD7FF;" d="M315.626,497.689c-5.677,0-147.091,0.656-147.091,0.656s98.023-105.405,102.037-109.419
	c4.014-4.015,10.523-4.016,14.536-0.001c26.308,26.305,40.797,61.281,40.797,98.486
	C325.904,493.087,321.303,497.689,315.626,497.689z"/>
<path style="fill:#FF9356;" d="M92.657,100.807c-108.098,108.098-108.098,283.361,0,391.458l391.459-391.458
	C376.018-7.291,200.755-7.291,92.657,100.807z M148.314,156.464c57.469-57.469,141.756-72.178,212.951-44.124L104.192,369.414
	C76.136,298.22,90.845,213.933,148.314,156.464z"/>
<g>
	<path style="fill:#01121C;" d="M495.699,100.807c0-3.072-1.221-6.018-3.393-8.191c-43.511-43.511-98.481-71.385-158.101-80.847
		c-0.321-0.079-0.644-0.153-0.975-0.205c-0.307-0.049-0.61-0.073-0.915-0.097c-14.409-2.189-29.082-3.315-43.929-3.315
		c-14.889,0-29.602,1.134-44.051,3.335c-0.441,0.02-0.886,0.057-1.333,0.127c-0.456,0.073-0.9,0.177-1.334,0.3
		c-29.443,4.769-57.74,14.028-84.072,27.455c-0.13,0.06-0.261,0.109-0.389,0.174c-0.174,0.088-0.334,0.192-0.5,0.287
		c-25.81,13.275-49.713,30.551-70.936,51.514c-0.535,0.378-1.051,0.795-1.53,1.273c-0.487,0.485-0.909,1.01-1.29,1.553
		c-20.947,21.257-38.204,45.192-51.45,71.032c-0.083,0.147-0.175,0.286-0.251,0.438c-0.057,0.111-0.098,0.226-0.152,0.338
		c-13.41,26.361-22.645,54.689-27.384,84.16c-0.122,0.433-0.226,0.875-0.299,1.33c-0.071,0.444-0.108,0.885-0.127,1.324
		C1.116,267.142,0,281.752,0,296.537c0,14.949,1.143,29.719,3.363,44.223c0.024,0.31,0.051,0.622,0.1,0.935
		c0.058,0.363,0.132,0.717,0.22,1.066c9.525,59.464,37.371,114.284,80.782,157.696c2.262,2.261,5.227,3.393,8.191,3.393
		s5.93-1.132,8.191-3.393l391.461-391.458C494.48,106.826,495.699,103.88,495.699,100.807z M288.387,280.154l-19.638-19.638
		c-4.523-4.522-11.858-4.522-16.382,0c-4.523,4.523-4.523,11.858,0,16.383l19.638,19.637L92.834,475.707
		c-13.827-15.076-25.579-31.384-35.282-48.544l13.866-7.066c5.7-2.905,7.966-9.88,5.062-15.58c-2.905-5.701-9.882-7.965-15.58-5.062
		l-13.862,7.064c-8.358-18.394-14.495-37.554-18.439-57.075l15.215-2.411c6.319-1.001,10.629-6.934,9.63-13.253
		c-1.002-6.318-6.932-10.634-13.253-9.63l-15.193,2.406c-2.25-19.912-2.265-40.032-0.023-59.945l15.164,2.401
		c0.614,0.097,1.224,0.144,1.827,0.144c5.598,0,10.523-4.068,11.427-9.773c1.001-6.319-3.311-12.252-9.63-13.253l-15.187-2.406
		c3.935-19.515,10.077-38.668,18.423-57.058l13.757,7.009c1.684,0.858,3.48,1.265,5.25,1.265c4.218,0,8.285-2.311,10.33-6.327
		c2.904-5.7,0.637-12.676-5.063-15.58l-13.79-7.026c9.689-17.153,21.446-33.441,35.255-48.514l10.905,10.904
		c2.262,2.261,5.227,3.393,8.191,3.393c2.964,0,5.93-1.132,8.191-3.393c4.523-4.523,4.523-11.858,0-16.383l-10.912-10.912
		c15.057-13.826,31.329-25.608,48.469-35.318l7.022,13.781c2.047,4.016,6.113,6.327,10.33,6.327c1.769,0,3.565-0.407,5.249-1.265
		c5.7-2.904,7.967-9.88,5.063-15.58l-7.015-13.768c18.381-8.369,37.524-14.535,57.035-18.495l2.404,15.177
		c0.904,5.705,5.828,9.773,11.427,9.773c0.602,0,1.213-0.046,1.827-0.144c6.319-1.001,10.629-6.934,9.63-13.253l-2.405-15.18
		c19.911-2.266,40.03-2.27,59.946-0.046l-2.404,15.177c-1.001,6.319,3.311,12.252,9.63,13.253c0.614,0.097,1.224,0.144,1.827,0.144
		c5.598,0,10.523-4.068,11.427-9.773l2.412-15.229c19.527,3.921,38.697,10.033,57.1,18.367l-7.058,13.853
		c-2.904,5.7-0.638,12.676,5.063,15.58c1.684,0.858,3.48,1.265,5.249,1.265c4.218,0,8.285-2.311,10.33-6.327l7.071-13.877
		c17.263,9.734,33.666,21.535,48.823,35.438L288.387,280.154z"/>
	<path style="fill:#01121C;" d="M365.512,101.564c-77.863-30.678-166.333-12.346-225.389,46.709
		C81.067,207.329,62.733,295.8,93.415,373.662c1.432,3.633,4.596,6.299,8.419,7.095c0.784,0.163,1.573,0.242,2.358,0.242
		c3.041,0,5.997-1.198,8.191-3.393l257.074-257.075c2.76-2.762,3.944-6.728,3.15-10.549
		C371.812,106.161,369.145,102.995,365.512,101.564z M109.16,348.066c-18.592-64.826-0.905-135.159,47.346-183.41
		c35.627-35.628,83.292-54.591,131.892-54.591c17.219,0,34.558,2.382,51.517,7.244L109.16,348.066z"/>
	<path style="fill:#01121C;" d="M500.416,480.682H333.296c-2.444-33.725-15.537-65.336-37.656-90.91l212.968-212.967
		c4.523-4.523,4.523-11.858,0-16.383c-4.523-4.522-11.858-4.522-16.383,0L271.448,381.2c-0.029,0.028-0.06,0.052-0.089,0.08
		c-0.028,0.028-0.052,0.06-0.08,0.088L168.573,484.073c-3.313,3.313-4.303,8.295-2.51,12.624c1.793,4.328,6.017,7.151,10.702,7.151
		h323.651c6.398,0,11.584-5.187,11.584-11.584C512,485.868,506.814,480.682,500.416,480.682z M279.201,406.211
		c17.81,21.129,28.501,46.937,30.846,74.471H204.731L279.201,406.211z"/>
</g>
<g>
</g>
<g>
</g>
<g>
</g>
<g>
</g>
<g>
</g>
<g>
</g>
<g>
</g>
<g>
</g>
<g>
</g>
<g>
</g>
<g>
</g>
<g>
</g>
<g>
</g>
<g>
</g>
<g>
</g>
</svg>
