<?xml version="1.0" encoding="iso-8859-1"?>
<!-- Generator: Adobe Illustrator 19.0.0, SVG Export Plug-In . SVG Version: 6.00 Build 0)  -->
<svg version="1.1" id="Layer_1" xmlns="http://www.w3.org/2000/svg" xmlns:xlink="http://www.w3.org/1999/xlink" x="0px" y="0px"
	 viewBox="0 0 512.001 512.001" style="enable-background:new 0 0 512.001 512.001;" xml:space="preserve">
<path style="fill:#174461;" d="M427.368,280.626H84.632c-11.717,0-21.214,9.499-21.214,21.214V492.41h385.165V301.84
	C448.583,290.123,439.085,280.626,427.368,280.626z"/>
<g>
	<path style="fill:#3B8BC0;" d="M310.171,492.41c0,7.481-6.064,13.545-13.545,13.545h-81.253c-7.481,0-13.545-6.064-13.545-13.545
		v-28.328c0-7.481,6.064-13.545,13.545-13.545h81.253c7.481,0,13.545,6.064,13.545,13.545V492.41z"/>
	<path style="fill:#3B8BC0;" d="M153.113,492.41c0,7.481-6.064,13.545-13.545,13.545H58.316c-7.481,0-13.545-6.064-13.545-13.545
		v-28.328c0-7.481,6.064-13.545,13.545-13.545h81.253c7.481,0,13.545,6.064,13.545,13.545V492.41z"/>
	<path style="fill:#3B8BC0;" d="M467.23,492.41c0,7.481-6.064,13.545-13.545,13.545h-81.253c-7.481,0-13.545-6.064-13.545-13.545
		v-28.328c0-7.481,6.064-13.545,13.545-13.545h81.253c7.481,0,13.545,6.064,13.545,13.545V492.41z"/>
</g>
<path style="fill:#01121C;" d="M460.166,433.567V296.302c0-18.086-14.714-32.798-32.798-32.798H325.479
	c-5.535-32.025-10.948-61.175-15.579-82.229c-7.074-32.156,11.757-47.776,31.694-64.312c15.926-13.209,32.394-26.867,32.394-48.647
	c0-20.263-14.181-38.49-39.929-51.324C312.391,6.194,283.94,0,256,0c-27.94,0-56.391,6.194-78.06,16.993
	c-25.749,12.834-39.929,31.059-39.929,51.324c0,21.78,16.469,35.438,32.394,48.647c19.937,16.536,38.768,32.154,31.694,64.312
	c-4.631,21.056-10.012,50.204-15.498,82.229H84.632c-18.086,0-32.798,14.714-32.798,32.798v137.264
	c-12.573,1.368-22.394,12.046-22.394,24.978v28.328c0,13.855,11.272,25.129,25.129,25.129h95.026
	c9.679,0,18.093-5.505,22.288-13.545h32.787c4.196,8.04,12.609,13.545,22.288,13.545h58.087c9.679,0,18.093-5.505,22.288-13.545
	h32.787c4.196,8.04,12.609,13.545,22.288,13.545h95.026c13.855,0,25.129-11.272,25.129-25.129v-28.328
	C482.56,445.613,472.741,434.935,460.166,433.567z M427.368,286.671c5.31,0,9.631,4.321,9.631,9.631v137.113h-74.594
	c-3.359,0-6.564,0.667-9.496,1.87c-6.014-39.934-14.708-96.323-23.486-148.613L427.368,286.671L427.368,286.671z M285.043,433.415
	h-58.087c-13.855,0-25.129,11.272-25.129,25.129v16.744H177.05c5.02-34.632,17.038-116.221,29.124-188.618h99.761
	c12.205,72.388,24.407,153.966,29.512,188.618H310.17v-16.744C310.171,444.688,298.899,433.415,285.043,433.415z M185.195,99.131
	c-12.887-10.688-24.017-19.919-24.017-30.815c0-23.628,45.196-45.149,94.822-45.149s94.822,21.52,94.822,45.15
	c0,10.896-11.13,20.127-24.017,30.815c-20.948,17.374-49.64,41.171-39.531,87.12c4.375,19.892,9.465,47.148,14.699,77.252h-91.87
	c5.188-30.104,10.248-57.36,14.623-77.252C234.834,140.302,206.143,116.505,185.195,99.131z M84.632,286.671h98.062
	c-8.702,52.358-17.286,108.827-23.213,148.774c-3.036-1.304-6.378-2.031-9.888-2.031H75.001V296.302
	C75.001,290.992,79.322,286.671,84.632,286.671z M149.594,488.833H54.569c-1.082,0-1.961-0.879-1.961-1.961v-28.328
	c0-1.082,0.879-1.961,1.961-1.961h95.026c1.082,0,1.961,0.88,1.961,1.961v28.328C151.555,487.953,150.676,488.833,149.594,488.833z
	 M285.043,488.833h-58.087c-1.082,0-1.961-0.879-1.961-1.961v-28.328c0-1.082,0.879-1.961,1.961-1.961h58.087
	c1.082,0,1.961,0.88,1.961,1.961v28.328C287.004,487.953,286.125,488.833,285.043,488.833z M459.393,486.871
	c0,1.082-0.879,1.961-1.961,1.961h-95.026c-0.739,0-1.376-0.415-1.71-1.021c-0.066-0.453-0.149-1.027-0.251-1.727v-27.54
	c0-1.082,0.879-1.961,1.961-1.961h95.026c1.082,0,1.961,0.88,1.961,1.961L459.393,486.871L459.393,486.871z"/>
<g>
</g>
<g>
</g>
<g>
</g>
<g>
</g>
<g>
</g>
<g>
</g>
<g>
</g>
<g>
</g>
<g>
</g>
<g>
</g>
<g>
</g>
<g>
</g>
<g>
</g>
<g>
</g>
<g>
</g>
</svg>
