<?xml version="1.0" encoding="iso-8859-1"?>
<!-- Generator: Adobe Illustrator 19.0.0, SVG Export Plug-In . SVG Version: 6.00 Build 0)  -->
<svg version="1.1" id="Layer_1" xmlns="http://www.w3.org/2000/svg" xmlns:xlink="http://www.w3.org/1999/xlink" x="0px" y="0px"
	 viewBox="0 0 512 512" style="enable-background:new 0 0 512 512;" xml:space="preserve">
<polygon style="fill:#FFE290;" points="126.674,28.822 94.342,124.316 126.674,147.15 159.005,124.316 "/>
<polygon style="fill:#FFCE47;" points="159.005,124.316 94.342,124.316 94.342,241.1 181.84,241.1 "/>
<polygon style="fill:#FFE290;" points="191.338,28.822 159.005,124.316 191.338,147.15 223.669,124.316 "/>
<polygon style="fill:#85C250;" points="223.669,124.316 159.005,124.316 159.005,241.1 246.504,241.1 "/>
<polygon style="fill:#FFE290;" points="256.001,28.822 223.669,124.316 256.001,147.15 288.332,124.316 "/>
<polygon style="fill:#FF755C;" points="288.332,124.316 223.669,124.316 223.669,241.1 311.167,241.1 "/>
<polygon style="fill:#FFE290;" points="320.664,28.822 288.332,124.316 320.664,147.15 352.995,124.316 "/>
<polygon style="fill:#FF4181;" points="352.995,124.316 288.332,124.316 288.332,241.1 375.83,241.1 "/>
<polygon style="fill:#FFE290;" points="385.326,28.822 352.995,124.316 385.326,147.15 417.658,124.316 "/>
<g>
	<rect x="353" y="124.311" style="fill:#4EB9FF;" width="64.663" height="116.787"/>
	<polygon style="fill:#4EB9FF;" points="54.718,310.067 54.718,494.875 457.282,494.875 457.282,310.067 256.001,275.815 	"/>
</g>
<path style="fill:#9AD7FF;" d="M411.612,206.848H100.388c-25.222,0-45.669,20.447-45.669,45.669v57.55h402.563v-57.55
	C457.282,227.294,436.834,206.848,411.612,206.848z"/>
<path style="fill:#01121C;" d="M501.953,225.15c-5.656-2.789-12.5-0.461-15.289,5.194l-17.965,36.446v-8.564
	c0-25.387-16.662-46.948-39.623-54.344v-73.857c0-0.353-0.021-0.704-0.054-1.055c-0.011-0.131-0.032-0.26-0.048-0.392
	c-0.027-0.211-0.057-0.422-0.096-0.633c-0.029-0.156-0.061-0.311-0.096-0.465c-0.041-0.179-0.088-0.356-0.137-0.533
	c-0.045-0.161-0.089-0.322-0.14-0.48c-0.011-0.035-0.019-0.071-0.031-0.106L396.746,32.65V11.417C396.746,5.113,391.633,0,385.329,0
	s-11.417,5.113-11.417,11.417v21.234l-20.914,61.772l-20.914-61.772V11.417C332.083,5.113,326.97,0,320.666,0
	s-11.417,5.113-11.417,11.417v21.234l-20.917,61.771L267.418,32.65V11.417C267.418,5.113,262.305,0,256.001,0
	c-6.306,0-11.417,5.113-11.417,11.417v21.234l-20.914,61.772l-20.914-61.772V11.417C202.755,5.113,197.643,0,191.338,0
	S179.92,5.113,179.92,11.417v21.234l-20.914,61.772l-20.914-61.772V11.417C138.092,5.113,132.981,0,126.675,0
	c-6.306,0-11.417,5.113-11.417,11.417v21.234l-31.729,93.712c-0.011,0.035-0.019,0.071-0.031,0.106
	c-0.051,0.156-0.095,0.316-0.139,0.476c-0.05,0.179-0.098,0.36-0.139,0.541c-0.034,0.152-0.066,0.303-0.095,0.457
	c-0.04,0.212-0.071,0.427-0.098,0.642c-0.016,0.128-0.035,0.256-0.047,0.385c-0.033,0.351-0.054,0.702-0.054,1.056v73.857
	c-22.961,7.396-39.624,28.957-39.624,54.344v8.564l-17.966-36.447c-2.787-5.657-9.634-7.98-15.289-5.194
	c-5.656,2.788-7.981,9.634-5.193,15.289l38.447,77.998v182.146c0,6.305,5.112,11.417,11.417,11.417s11.417-5.113,11.417-11.417
	v-173.39h43.615c6.306,0,11.417-5.113,11.417-11.417s-5.112-11.417-11.417-11.417H66.136v-46.133
	c0-18.886,15.365-34.252,34.252-34.252h311.224c18.886,0,34.252,15.365,34.252,34.252v46.133H155.419
	c-6.306,0-11.417,5.113-11.417,11.417s5.112,11.417,11.417,11.417h290.444v173.39c0,6.305,5.113,11.417,11.417,11.417
	s11.417-5.113,11.417-11.417V318.437l38.448-77.998C509.934,234.784,507.609,227.939,501.953,225.15z M126.674,70.133l16.412,48.474
	h-32.825L126.674,70.133z M191.337,70.133l16.412,48.474h-32.825L191.337,70.133z M256.001,70.133l16.412,48.474h-32.825
	L256.001,70.133z M320.662,70.133l16.412,48.474h-32.824L320.662,70.133z M385.326,70.133l16.412,48.474h-32.825L385.326,70.133z
	 M147.589,141.442v59.698h-41.83v-59.698H147.589z M170.424,141.442h41.828v59.698h-41.828V141.442z M235.086,141.442h41.828v59.698
	h-41.828V141.442z M299.749,141.442h41.828v59.698h-41.828V141.442z M364.412,141.442h41.829v59.698h-41.829V141.442z"/>
<g>
</g>
<g>
</g>
<g>
</g>
<g>
</g>
<g>
</g>
<g>
</g>
<g>
</g>
<g>
</g>
<g>
</g>
<g>
</g>
<g>
</g>
<g>
</g>
<g>
</g>
<g>
</g>
<g>
</g>
</svg>
