<?xml version="1.0" encoding="iso-8859-1"?>
<!-- Generator: Adobe Illustrator 19.0.0, SVG Export Plug-In . SVG Version: 6.00 Build 0)  -->
<svg version="1.1" id="Layer_1" xmlns="http://www.w3.org/2000/svg" xmlns:xlink="http://www.w3.org/1999/xlink" x="0px" y="0px"
	 viewBox="0 0 512 512" style="enable-background:new 0 0 512 512;" xml:space="preserve">
<polygon style="fill:#FFCE47;" points="425.153,500.416 86.846,500.416 86.846,11.584 314.868,11.584 349.619,87.118 
	425.153,121.869 "/>
<polygon style="fill:#FFEBB4;" points="314.868,11.584 314.868,121.869 425.153,121.869 "/>
<path style="fill:#01121C;" d="M436.679,120.713c-0.028-0.284-0.076-0.561-0.125-0.839c-0.016-0.095-0.024-0.191-0.044-0.285
	c-0.067-0.336-0.153-0.665-0.249-0.989c-0.01-0.035-0.016-0.071-0.027-0.105c-0.101-0.33-0.219-0.652-0.348-0.971
	c-0.013-0.03-0.022-0.064-0.035-0.094c-0.125-0.301-0.268-0.594-0.417-0.882c-0.024-0.047-0.044-0.096-0.069-0.145
	c-0.14-0.261-0.295-0.511-0.454-0.759c-0.045-0.072-0.085-0.146-0.132-0.217c-0.153-0.228-0.321-0.444-0.489-0.66
	c-0.065-0.082-0.122-0.17-0.189-0.251c-0.21-0.255-0.433-0.497-0.664-0.733c-0.034-0.034-0.061-0.072-0.095-0.105L323.06,3.393
	c-0.03-0.03-0.064-0.056-0.095-0.086c-0.239-0.234-0.485-0.461-0.744-0.674c-0.081-0.067-0.169-0.124-0.253-0.189
	c-0.215-0.168-0.432-0.336-0.659-0.488c-0.073-0.049-0.149-0.089-0.224-0.136c-0.246-0.158-0.493-0.312-0.752-0.449
	c-0.051-0.028-0.105-0.049-0.156-0.075c-0.284-0.147-0.572-0.287-0.869-0.41c-0.036-0.015-0.073-0.025-0.109-0.039
	c-0.313-0.126-0.63-0.243-0.956-0.343c-0.039-0.012-0.079-0.019-0.118-0.03c-0.321-0.094-0.645-0.18-0.976-0.246
	c-0.097-0.02-0.197-0.028-0.294-0.045c-0.275-0.047-0.549-0.096-0.829-0.124C315.642,0.02,315.256,0,314.868,0H86.846
	c-6.398,0-11.584,5.186-11.584,11.584v488.833c0,6.398,5.186,11.584,11.584,11.584h338.308c6.397,0,11.584-5.186,11.584-11.584
	V121.869C436.737,121.482,436.717,121.096,436.679,120.713z M326.452,39.55l70.736,70.735h-70.736V39.55z M98.43,488.833V23.167
	h204.854v98.701c0,6.398,5.187,11.584,11.584,11.584h98.701v355.38H98.43z"/>
<g>
</g>
<g>
</g>
<g>
</g>
<g>
</g>
<g>
</g>
<g>
</g>
<g>
</g>
<g>
</g>
<g>
</g>
<g>
</g>
<g>
</g>
<g>
</g>
<g>
</g>
<g>
</g>
<g>
</g>
</svg>
