<?xml version="1.0" encoding="iso-8859-1"?>
<!-- Generator: Adobe Illustrator 19.0.0, SVG Export Plug-In . SVG Version: 6.00 Build 0)  -->
<svg version="1.1" id="Layer_1" xmlns="http://www.w3.org/2000/svg" xmlns:xlink="http://www.w3.org/1999/xlink" x="0px" y="0px"
	 viewBox="0 0 512 512" style="enable-background:new 0 0 512 512;" xml:space="preserve">
<polygon style="fill:#FFE290;" points="11.584,453.088 11.584,496.224 500.416,496.224 500.416,453.088 256,418.336 "/>
<polygon style="fill:#FFCE47;" points="11.584,398.367 11.584,441.504 500.416,441.504 500.416,398.367 256,363.616 "/>
<polygon style="fill:#FFE290;" points="11.584,343.647 11.584,386.784 500.416,386.784 500.416,343.647 256,308.896 "/>
<rect x="11.584" y="11.584" style="fill:#FFCE47;" width="488.833" height="316.293"/>
<g>
	<path style="fill:#01121C;" d="M500.416,470.593c-6.397,0-11.584,5.187-11.584,11.584v6.656H23.167v-6.657
		c0-6.398-5.187-11.584-11.584-11.584S0,475.778,0,482.175v18.241C0,506.814,5.187,512,11.584,512h488.833
		c6.397,0,11.584-5.186,11.584-11.584v-18.24C512,475.779,506.813,470.593,500.416,470.593z"/>
	<path style="fill:#01121C;" d="M500.416,415.874c-6.397,0-11.584,5.186-11.584,11.584v6.656H23.167v-6.657
		c0-6.398-5.187-11.584-11.584-11.584S0,421.059,0,427.456v18.241c0,6.398,5.187,11.584,11.584,11.584h488.833
		c6.397,0,11.584-5.186,11.584-11.584v-18.24C512,421.059,506.813,415.874,500.416,415.874z"/>
	<path style="fill:#01121C;" d="M500.416,361.152c-6.397,0-11.584,5.187-11.584,11.584v6.656H23.167v-6.657
		c0-6.398-5.187-11.584-11.584-11.584S0,366.337,0,372.735v18.241c0,6.398,5.187,11.584,11.584,11.584h488.833
		c6.397,0,11.584-5.186,11.584-11.584v-18.24C512,366.339,506.813,361.152,500.416,361.152z"/>
	<path style="fill:#01121C;" d="M500.416,306.432c-6.397,0-11.584,5.187-11.584,11.584v6.657H23.167v-6.657
		c0-6.397-5.187-11.584-11.584-11.584S0,311.619,0,318.016v18.241c0,6.398,5.187,11.584,11.584,11.584h488.833
		c6.397,0,11.584-5.186,11.584-11.584v-18.241C512,311.619,506.813,306.432,500.416,306.432z"/>
	<path style="fill:#01121C;" d="M500.416,0H11.584C5.187,0,0,5.186,0,11.584v269.953c0,6.398,5.187,11.584,11.584,11.584h488.833
		c6.397,0,11.584-5.186,11.584-11.584V11.584C512,5.186,506.813,0,500.416,0z M488.833,269.953H23.167V23.167h465.665V269.953z"/>
	<path style="fill:#01121C;" d="M92.638,232.319c6.397,0,11.584-5.186,11.584-11.584V72.383c0-6.397-5.187-11.584-11.584-11.584
		s-11.584,5.187-11.584,11.584v148.353C81.055,227.133,86.241,232.319,92.638,232.319z"/>
	<path style="fill:#01121C;" d="M150.557,232.319c6.397,0,11.584-5.186,11.584-11.584V72.383c0-6.397-5.187-11.584-11.584-11.584
		s-11.584,5.187-11.584,11.584v148.353C138.973,227.133,144.159,232.319,150.557,232.319z"/>
	<path style="fill:#01121C;" d="M208.476,232.319c6.397,0,11.584-5.186,11.584-11.584V72.383c0-6.397-5.187-11.584-11.584-11.584
		s-11.584,5.187-11.584,11.584v148.353C196.892,227.133,202.078,232.319,208.476,232.319z"/>
	<path style="fill:#01121C;" d="M266.394,232.319c6.397,0,11.584-5.186,11.584-11.584V72.383c0-6.397-5.187-11.584-11.584-11.584
		c-6.397,0-11.584,5.187-11.584,11.584v148.353C254.81,227.133,259.996,232.319,266.394,232.319z"/>
	<path style="fill:#01121C;" d="M324.313,232.319c6.397,0,11.584-5.186,11.584-11.584v-74.176c0-6.398-5.187-11.584-11.584-11.584
		c-6.397,0-11.584,5.186-11.584,11.584v74.176C312.729,227.133,317.915,232.319,324.313,232.319z"/>
</g>
<g>
</g>
<g>
</g>
<g>
</g>
<g>
</g>
<g>
</g>
<g>
</g>
<g>
</g>
<g>
</g>
<g>
</g>
<g>
</g>
<g>
</g>
<g>
</g>
<g>
</g>
<g>
</g>
<g>
</g>
</svg>
