<?xml version="1.0" encoding="iso-8859-1"?>
<!-- Generator: Adobe Illustrator 19.0.0, SVG Export Plug-In . SVG Version: 6.00 Build 0)  -->
<svg version="1.1" id="Layer_1" xmlns="http://www.w3.org/2000/svg" xmlns:xlink="http://www.w3.org/1999/xlink" x="0px" y="0px"
	 viewBox="0 0 512 512" style="enable-background:new 0 0 512 512;" xml:space="preserve">
<polygon style="fill:#9AD7FF;" points="124.16,11.584 11.658,137.583 177.248,183.918 342.838,137.583 455.34,11.584 "/>
<polygon style="fill:#174461;" points="169.16,419.418 11.658,500.416 342.838,500.416 500.341,419.418 "/>
<polygon style="fill:#4EB9FF;" points="169.16,378.719 11.658,459.718 342.838,459.718 500.341,378.719 "/>
<polygon style="fill:#174461;" points="169.16,338.021 11.658,419.019 342.838,419.019 500.341,338.021 "/>
<polygon style="fill:#4EB9FF;" points="342.838,297.321 342.838,378.32 500.341,297.321 "/>
<polygon style="fill:#9AD7FF;" points="124.16,252.321 11.658,378.32 342.838,378.32 455.34,252.321 289.75,205.986 "/>
<polygon style="fill:#4EB9FF;" points="342.838,137.583 11.658,137.583 124.16,252.331 455.34,252.331 "/>
<path style="fill:#01121C;" d="M511.6,335.295c-1.259-5.198-5.912-8.858-11.259-8.858h-31.288l36.585-18.814
	c4.755-2.445,7.219-7.829,5.961-13.026c-1.259-5.198-5.912-8.858-11.259-8.858h-59.309l22.948-25.702
	c0.015-0.016,0.025-0.036,0.041-0.052c0.723-0.818,1.307-1.713,1.76-2.657c0.027-0.054,0.053-0.109,0.079-0.164
	c0.43-0.936,0.727-1.915,0.894-2.913c0.017-0.102,0.032-0.205,0.047-0.307c0.067-0.483,0.115-0.968,0.122-1.455
	c0-0.01,0.001-0.021,0.002-0.031c0.005-0.484-0.03-0.967-0.086-1.449c-0.015-0.133-0.034-0.264-0.053-0.396
	c-0.067-0.447-0.154-0.893-0.273-1.332c-0.01-0.039-0.016-0.08-0.028-0.119c-0.133-0.471-0.308-0.932-0.503-1.388
	c-0.025-0.06-0.039-0.123-0.066-0.183c-0.03-0.066-0.072-0.124-0.102-0.19c-0.18-0.382-0.379-0.755-0.602-1.12
	c-0.045-0.073-0.083-0.152-0.13-0.225c-0.244-0.379-0.522-0.744-0.816-1.098c-0.13-0.156-0.266-0.306-0.403-0.455
	c-0.085-0.091-0.159-0.189-0.247-0.279L358.702,137.213L463.979,19.298c3.042-3.406,3.797-8.28,1.932-12.448
	C464.047,2.682,459.907,0,455.339,0H124.159c-3.3,0-6.443,1.407-8.64,3.869L3.016,129.867c-0.034,0.037-0.058,0.08-0.09,0.118
	c-0.336,0.386-0.649,0.784-0.924,1.201c-0.023,0.035-0.041,0.071-0.064,0.105c-0.257,0.396-0.482,0.806-0.686,1.224
	c-0.045,0.094-0.09,0.187-0.134,0.281c-0.414,0.91-0.702,1.862-0.866,2.833c-0.021,0.119-0.038,0.239-0.056,0.358
	c-0.064,0.463-0.108,0.928-0.116,1.395c0,0.024-0.003,0.049-0.005,0.073c-0.006,0.487,0.03,0.973,0.087,1.457
	c0.014,0.122,0.031,0.243,0.049,0.365c0.071,0.48,0.162,0.957,0.293,1.427c0.002,0.007,0.003,0.015,0.005,0.022
	c0.139,0.495,0.322,0.979,0.528,1.456c0.019,0.043,0.029,0.089,0.047,0.132c0.021,0.047,0.052,0.089,0.073,0.137
	c0.211,0.454,0.442,0.899,0.715,1.327c0.007,0.01,0.013,0.022,0.019,0.032c0.265,0.416,0.568,0.814,0.892,1.2
	c0.087,0.104,0.178,0.203,0.269,0.303c0.112,0.124,0.214,0.255,0.332,0.375l104.909,107.005L3.016,370.606
	c-0.036,0.039-0.061,0.086-0.096,0.125c-0.327,0.375-0.634,0.767-0.91,1.183c-0.032,0.049-0.058,0.098-0.089,0.147
	c-0.244,0.38-0.463,0.775-0.663,1.183c-0.046,0.095-0.093,0.188-0.137,0.284c-0.209,0.456-0.394,0.923-0.542,1.41
	c-0.002,0.008-0.003,0.017-0.007,0.025c-0.138,0.456-0.24,0.928-0.322,1.406c-0.021,0.122-0.039,0.243-0.056,0.366
	c-0.057,0.41-0.092,0.826-0.104,1.249c-0.002,0.086-0.013,0.17-0.013,0.256c0,0.027-0.003,0.053-0.003,0.08
	c0,0.471,0.036,0.934,0.092,1.39c0.013,0.11,0.034,0.218,0.05,0.328c0.064,0.424,0.148,0.841,0.256,1.249
	c0.023,0.087,0.042,0.174,0.067,0.261c0.144,0.497,0.319,0.98,0.525,1.448c0.008,0.02,0.013,0.039,0.021,0.059
	c0.02,0.044,0.046,0.081,0.067,0.124c0.193,0.417,0.41,0.819,0.65,1.207c0.05,0.08,0.095,0.162,0.146,0.241
	c0.268,0.411,0.559,0.805,0.876,1.178c0.067,0.08,0.14,0.153,0.21,0.232c0.271,0.303,0.557,0.591,0.858,0.864
	c0.083,0.075,0.164,0.153,0.249,0.226c0.368,0.314,0.754,0.607,1.161,0.875c0.067,0.044,0.137,0.082,0.204,0.124
	c0.365,0.229,0.744,0.437,1.135,0.626c0.088,0.043,0.174,0.087,0.262,0.126c0.456,0.206,0.924,0.387,1.41,0.533
	c0.042,0.013,0.085,0.021,0.125,0.032c0.434,0.125,0.882,0.221,1.336,0.297c0.12,0.02,0.241,0.039,0.363,0.056
	c0.498,0.066,1.003,0.111,1.52,0.111h331.181c0.44,0,0.876-0.029,1.308-0.078c0.136-0.015,0.269-0.044,0.404-0.065
	c0.297-0.045,0.591-0.093,0.882-0.159c0.158-0.036,0.312-0.083,0.467-0.126c0.265-0.073,0.527-0.149,0.785-0.241
	c0.16-0.057,0.316-0.12,0.474-0.183c0.249-0.1,0.495-0.207,0.736-0.324c0.08-0.038,0.163-0.066,0.242-0.107l75.869-39.017h28.483
	L340.03,407.436H11.658c-6.398,0-11.584,5.187-11.584,11.584c0,6.397,5.186,11.584,11.584,11.584h331.181
	c1.843,0,3.658-0.44,5.297-1.282l75.869-39.017h28.482l-112.452,57.831H11.658c-6.398,0-11.584,5.187-11.584,11.584
	c0,6.397,5.186,11.584,11.584,11.584h331.181c1.843,0,3.658-0.44,5.297-1.282l75.867-39.016h28.483l-112.452,57.829H11.658
	c-6.398,0-11.584,5.187-11.584,11.584C0.074,506.813,5.26,512,11.658,512h331.181c1.843,0,3.658-0.44,5.297-1.282l157.503-80.998
	c4.755-2.445,7.219-7.828,5.961-13.026c-1.259-5.198-5.912-8.858-11.259-8.858h-31.288l36.585-18.814
	c4.755-2.445,7.219-7.828,5.961-13.026c-1.259-5.198-5.912-8.858-11.259-8.858h-31.288l36.585-18.814
	C510.394,345.876,512.858,340.492,511.6,335.295z M452.487,308.905l-59.431,30.564l27.289-30.564H452.487z M37.53,366.737
	l91.816-102.831h157.419c6.397,0,11.584-5.187,11.584-11.584s-5.187-11.584-11.584-11.584h-157.75l-89.778-91.572h42.503
	c6.398,0,11.584-5.187,11.584-11.584s-5.186-11.584-11.584-11.584H37.53l91.815-102.832h300.122l-91.816,102.831h-209.59
	c-6.398,0-11.584,5.187-11.584,11.584c0,6.397,5.186,11.584,11.584,11.584h209.912l89.777,91.572h-94.666
	c-6.397,0-11.584,5.187-11.584,11.584s5.187,11.584,11.584,11.584h96.382l-91.816,102.831H37.53V366.737z"/>
<g>
</g>
<g>
</g>
<g>
</g>
<g>
</g>
<g>
</g>
<g>
</g>
<g>
</g>
<g>
</g>
<g>
</g>
<g>
</g>
<g>
</g>
<g>
</g>
<g>
</g>
<g>
</g>
<g>
</g>
</svg>
