<?xml version="1.0" encoding="iso-8859-1"?>
<!-- Generator: Adobe Illustrator 19.0.0, SVG Export Plug-In . SVG Version: 6.00 Build 0)  -->
<svg version="1.1" id="Layer_1" xmlns="http://www.w3.org/2000/svg" xmlns:xlink="http://www.w3.org/1999/xlink" x="0px" y="0px"
	 viewBox="0 0 512.001 512.001" style="enable-background:new 0 0 512.001 512.001;" xml:space="preserve">
<polygon style="fill:#174461;" points="68.418,470.422 11.506,500.495 41.579,443.582 71.275,440.726 "/>
<polygon style="fill:#FFEBB4;" points="84.473,362.421 41.579,443.582 68.418,470.422 149.58,427.527 "/>
<path style="fill:#FF755C;" d="M487.036,24.965c17.954,17.954,17.954,47.153,0,65.107l-32.973,32.973l-56.777-7.949l-8.329-57.157
	l32.973-32.973C439.884,7.01,469.082,7.01,487.036,24.965z"/>
<path style="fill:#FFB14E;" d="M413.378,163.74L149.58,427.527l-53.402-11.705L380.819,98.629
	C380.819,98.629,413.367,163.729,413.378,163.74z"/>
<polygon style="fill:#FFCE47;" points="397.095,114.905 96.178,415.823 84.473,362.421 348.272,98.634 "/>
<path style="fill:#174461;" d="M388.956,57.938l-40.684,40.696l65.095,65.095c0.012,0.012,40.696-40.684,40.696-40.684
	L388.956,57.938z"/>
<path style="fill:#01121C;" d="M495.173,16.828c-22.437-22.437-58.945-22.437-81.382,0l-32.958,32.958
	c-0.005,0.005-0.009,0.009-0.014,0.014s-0.009,0.009-0.014,0.014l-40.641,40.641c-0.012,0.012-0.024,0.024-0.036,0.036
	c-0.013,0.013-0.024,0.024-0.037,0.037L76.47,354.15c-0.627,0.608-1.183,1.286-1.656,2.014l0,0c-0.01,0.015-0.02,0.029-0.029,0.045
	v0.001c-0.19,0.295-0.365,0.598-0.527,0.908l-42.724,80.846c-0.089,0.159-0.174,0.32-0.256,0.482L1.334,495.114
	c-2.359,4.464-1.533,9.945,2.037,13.516c2.213,2.212,5.158,3.371,8.141,3.371c1.831,0,3.676-0.436,5.374-1.334l56.682-29.955
	c0.151-0.075,0.3-0.154,0.449-0.237l80.869-42.736c0.189-0.098,0.375-0.201,0.557-0.311c0.002-0.001,0.006-0.003,0.009-0.006
	c0.005-0.002,0.009-0.005,0.013-0.007c0.204-0.122,0.404-0.25,0.6-0.383c0.002-0.001,0.005-0.003,0.007-0.005
	c0.005-0.002,0.009-0.006,0.014-0.009c0.005-0.003,0.009-0.007,0.014-0.009c0.001-0.001,0.002-0.002,0.005-0.003
	c0.626-0.432,1.211-0.924,1.742-1.473L495.173,98.209C517.61,75.772,517.61,39.264,495.173,16.828z M39.115,472.886l5.359-10.138
	l4.781,4.781L39.115,472.886z M70.552,456.272l-14.824-14.824l24.232-45.854l4.939,22.529c0.421,2.079,1.42,4.062,2.998,5.694
	c0.001,0.001,0.001,0.001,0.002,0.002c0.003,0.003,0.007,0.007,0.01,0.01c0.085,0.089,0.171,0.175,0.26,0.26
	c0.003,0.003,0.007,0.007,0.01,0.01c0.001,0.001,0.001,0.001,0.002,0.002c1.632,1.578,3.616,2.577,5.694,2.998l22.529,4.94
	L70.552,456.272z M145.89,414.939l-26.699-5.852l42.308-42.307c4.494-4.494,4.494-11.782,0-16.277
	c-4.494-4.495-11.782-4.494-16.277,0l-42.307,42.308l-5.852-26.699l251.203-251.206l16.276,16.277L172.98,322.743
	c-4.494,4.494-4.494,11.782,0,16.277c4.494,4.495,11.782,4.494,16.277,0l191.561-191.562l16.276,16.276L145.89,414.939z
	 M413.37,147.459l-48.828-48.829l24.414-24.414l48.828,48.829L413.37,147.459z M478.897,81.933l-24.835,24.835l-48.828-48.829
	l24.834-24.835c13.462-13.461,35.366-13.462,48.829,0.001C492.358,46.567,492.358,68.471,478.897,81.933z"/>
<g>
</g>
<g>
</g>
<g>
</g>
<g>
</g>
<g>
</g>
<g>
</g>
<g>
</g>
<g>
</g>
<g>
</g>
<g>
</g>
<g>
</g>
<g>
</g>
<g>
</g>
<g>
</g>
<g>
</g>
</svg>
