<?xml version="1.0" encoding="iso-8859-1"?>
<!-- Generator: Adobe Illustrator 19.0.0, SVG Export Plug-In . SVG Version: 6.00 Build 0)  -->
<svg version="1.1" id="Layer_1" xmlns="http://www.w3.org/2000/svg" xmlns:xlink="http://www.w3.org/1999/xlink" x="0px" y="0px"
	 viewBox="0 0 512 512" style="enable-background:new 0 0 512 512;" xml:space="preserve">
<rect x="179.316" y="11.584" style="fill:#4EB9FF;" width="153.739" height="160.979"/>
<path style="fill:#3B8BC0;" d="M442.7,206.826c-31.211-25.222-88.153-61.262-110.017-69.012H179.319
	c-21.864,7.751-78.806,43.79-110.017,69.012c-21.381,17.278-27.36,36.996-23.962,61.039c3.604,25.508,29.693,198.152,29.693,198.152
	c2.835,18.918,20.807,34.399,39.937,34.399h282.063c19.132,0,37.104-15.48,39.938-34.4c0,0,26.088-172.642,29.691-198.152
	C470.059,243.822,464.081,224.104,442.7,206.826z"/>
<polygon style="fill:#174461;" points="101.134,288.466 125.084,448.29 387.29,448.29 411.24,288.466 "/>
<g>
	<path style="fill:#01121C;" d="M449.98,197.816c-27.514-22.235-77.72-55.005-105.341-67.589v-22.907
		c6.397,0,11.584-5.186,11.584-11.584c0-6.398-5.187-11.584-11.584-11.584V65.244c6.397,0,11.584-5.186,11.584-11.584
		s-5.187-11.584-11.584-11.584V11.584C344.639,5.186,339.452,0,333.055,0H179.319c-6.398,0-11.584,5.186-11.584,11.584v30.493
		c-6.398,0-11.584,5.186-11.584,11.584s5.186,11.584,11.584,11.584v18.909c-6.398,0-11.584,5.186-11.584,11.584
		c0,6.398,5.186,11.584,11.584,11.584v22.734c-27.541,12.459-78.078,45.428-105.715,67.761
		c-23.438,18.942-32.383,41.715-28.152,71.67c3.571,25.272,29.448,196.535,29.706,198.248C67.232,492.142,90.287,512,114.97,512
		h282.063c24.681,0,47.736-19.858,51.391-44.253c0.262-1.727,26.137-172.99,29.708-198.262
		C482.365,239.531,473.419,216.758,449.98,197.816z M190.902,23.167h130.569v18.909H190.902V23.167z M190.902,65.244h130.569v18.909
		H190.902V65.244z M321.472,107.321v18.909H190.902v-18.909H321.472z M455.193,266.245c-3.555,25.163-29.417,196.316-29.679,198.056
		c-1.992,13.297-15.036,24.532-28.482,24.532H114.969c-13.446,0-26.49-11.235-28.484-24.547
		c-0.261-1.726-26.121-172.879-29.676-198.041c-3.06-21.659,2.853-36.735,19.773-50.409c29.942-24.196,83.493-58.051,104.841-66.437
		h149.155c21.349,8.387,74.899,42.241,104.841,66.437C452.339,229.509,458.253,244.585,455.193,266.245z"/>
	<path style="fill:#01121C;" d="M417.614,227.214H183.748c-6.398,0-11.584,5.186-11.584,11.584c0,6.398,5.186,11.584,11.584,11.584
		h233.866c6.397,0,11.584-5.186,11.584-11.584C429.198,232.401,424.011,227.214,417.614,227.214z"/>
	<path style="fill:#01121C;" d="M137.413,250.382c6.398,0,11.584-5.186,11.584-11.584c0-6.398-5.186-11.584-11.584-11.584H94.761
		c-6.398,0-11.584,5.186-11.584,11.584c0,6.398,5.186,11.584,11.584,11.584H137.413z"/>
	<path style="fill:#01121C;" d="M411.24,276.882H101.134c-3.372,0-6.576,1.47-8.777,4.024c-2.201,2.555-3.179,5.941-2.679,9.276
		l23.948,159.824c0.85,5.671,5.721,9.867,11.456,9.867H287.81c6.397,0,11.584-5.186,11.584-11.584s-5.187-11.584-11.584-11.584
		h-152.75l-20.478-136.656H397.79l-20.477,136.656h-43.167c-6.397,0-11.584,5.186-11.584,11.584s5.187,11.584,11.584,11.584h53.144
		c5.734,0,10.606-4.196,11.456-9.867l23.949-159.824c0.5-3.335-0.478-6.722-2.679-9.276
		C417.816,278.351,414.612,276.882,411.24,276.882z"/>
</g>
<g>
</g>
<g>
</g>
<g>
</g>
<g>
</g>
<g>
</g>
<g>
</g>
<g>
</g>
<g>
</g>
<g>
</g>
<g>
</g>
<g>
</g>
<g>
</g>
<g>
</g>
<g>
</g>
<g>
</g>
</svg>
