<?xml version="1.0" encoding="iso-8859-1"?>
<!-- Generator: Adobe Illustrator 19.0.0, SVG Export Plug-In . SVG Version: 6.00 Build 0)  -->
<svg version="1.1" id="Layer_1" xmlns="http://www.w3.org/2000/svg" xmlns:xlink="http://www.w3.org/1999/xlink" x="0px" y="0px"
	 viewBox="0 0 512 512" style="enable-background:new 0 0 512 512;" xml:space="preserve">
<path style="fill:#4EB9FF;" d="M295.277,249.588l-185.249,1.643c-54.369,0-98.444,44.075-98.444,98.444
	c0,67.96,55.093,123.054,123.055,123.054c59.012,0,110.262-33.231,136.059-82.001L346.6,260.769
	C328.281,260.769,310.898,256.767,295.277,249.588z"/>
<path style="fill:#9AD7FF;" d="M300.04,290.946l-23.167,23.166v4.8c0,78.429-63.805,142.234-142.234,142.234
	c-61.465,0-111.47-50.006-111.47-111.47c0-47.895,38.965-86.859,86.859-86.859c37.039,0,67.17,30.133,67.17,67.17
	c0,28.353-23.067,51.42-51.42,51.42c-24.056,0-43.071-21.994-37.992-46.929c2.604-12.788,14.495-21.044,27.539-20.635
	c6.713,0.211,12.195-5.293,11.949-12.013c-0.233-6.356-5.776-11.212-12.136-11.145c-28.364,0.302-51.345,23.47-51.345,51.903
	c0,34.18,27.807,61.987,61.987,61.987c20.565,0,39.212-8.366,52.717-21.872c-0.003,0.052,211.984-211.934,211.984-211.934
	c14.087-14.088,21.845-32.819,21.845-52.741c0-49.812-40.526-90.339-90.338-90.339c-29.389,0-57.02,11.445-77.801,32.226
	L32.279,271.894l-0.085,0.085C12.312,291.896,0,319.374,0,349.675c0,74.24,60.399,134.637,134.637,134.637
	c45.874,0,87.441-18.777,117.432-49.044l0.074,0.05l211.411-211.411C494.795,192.667,512,151.13,512,106.951l0,0
	c0-10.32-12.477-15.489-19.775-8.191L300.04,290.946z"/>
<path style="fill:#01121C;" d="M504.849,96.249c-4.329-1.794-9.312-0.802-12.624,2.51L280.264,310.72
	c-1.114,1.114-1.954,2.4-2.519,3.772c-0.555,1.341-0.864,2.81-0.873,4.35c0,0.006,0,0.012,0,0.016c0,0.002,0,0.003,0,0.005
	c0,0.005,0,0.008,0,0.013c0,0.003,0,0.006,0,0.009c0,0.003,0,0.005,0,0.008c0,0.006,0,0.012,0,0.019
	c0,78.429-63.805,142.234-142.234,142.234c-61.465,0-111.47-50.006-111.47-111.47c0-47.895,38.965-86.859,86.859-86.859
	c37.039,0,67.17,30.133,67.17,67.17c0,28.353-23.067,51.42-51.42,51.42c-21.406,0-38.819-17.415-38.819-38.819
	c0-15.846,12.893-28.739,28.739-28.739c6.397,0,11.584-5.186,11.584-11.584c0-6.398-5.187-11.584-11.584-11.584
	c-28.621,0-51.907,23.286-51.907,51.907c0,34.18,27.807,61.987,61.987,61.987c20.212,0,38.571-8.081,52.018-21.182
	c0.248-0.21,0.489-0.431,0.723-0.664L390.48,170.767c14.087-14.088,21.846-32.818,21.846-52.741
	c0-49.812-40.526-90.339-90.338-90.339c-29.389,0-57.02,11.445-77.801,32.226L32.226,271.874c-0.277,0.277-0.537,0.565-0.781,0.862
	C12.004,292.589,0,319.759,0,349.675c0,74.24,60.399,134.637,134.637,134.637c45.395,0,86.574-18.379,116.49-48.091
	c0.352-0.278,0.692-0.579,1.016-0.905l211.411-211.41C494.795,192.667,512,151.13,512,106.951
	C512,102.266,509.177,98.042,504.849,96.249z M260.569,76.295c16.405-16.405,38.217-25.44,61.418-25.44
	c37.039,0,67.17,30.133,67.17,67.172c0,13.735-5.348,26.647-15.061,36.36L200.347,328.135
	c-0.988-48.963-41.124-88.488-90.321-88.488c-4.621,0-9.181,0.287-13.654,0.843L260.569,76.295z M447.173,207.526L294.934,359.765
	c2.948-11.558,4.674-23.606,5.035-35.984l185.4-185.401C479.537,164.369,466.467,188.232,447.173,207.526z"/>
<g>
</g>
<g>
</g>
<g>
</g>
<g>
</g>
<g>
</g>
<g>
</g>
<g>
</g>
<g>
</g>
<g>
</g>
<g>
</g>
<g>
</g>
<g>
</g>
<g>
</g>
<g>
</g>
<g>
</g>
</svg>
