<?xml version="1.0" encoding="iso-8859-1"?>
<!-- Generator: Adobe Illustrator 19.0.0, SVG Export Plug-In . SVG Version: 6.00 Build 0)  -->
<svg version="1.1" id="Layer_1" xmlns="http://www.w3.org/2000/svg" xmlns:xlink="http://www.w3.org/1999/xlink" x="0px" y="0px"
	 viewBox="0 0 512.001 512.001" style="enable-background:new 0 0 512.001 512.001;" xml:space="preserve">
<rect x="99.458" y="59.216" style="fill:#9AD7FF;" width="119.868" height="115.559"/>
<g>
	<path style="fill:#C2E7FF;" d="M267.263,465.489c0,19.289-15.637,34.927-34.927,34.927H86.446
		c-19.289,0-34.927-15.637-34.927-34.927v-278.96c0-19.289,15.637-34.927,34.927-34.927h145.89
		c19.289,0,34.927,15.637,34.927,34.927L267.263,465.489L267.263,465.489z"/>
	<polygon style="fill:#C2E7FF;" points="350.082,292.73 352.456,500.416 401.114,500.416 412.698,396.573 401.114,292.73 	"/>
</g>
<polygon style="fill:#9AD7FF;" points="452.146,292.73 401.114,292.73 401.114,500.416 449.772,500.416 "/>
<rect x="107.301" y="207.383" style="fill:#FFFFFF;" width="104.184" height="237.258"/>
<polygon style="fill:#C2E7FF;" points="380.522,11.584 421.707,11.584 425.268,92.922 376.961,92.922 "/>
<g>
	<path style="fill:#01121C;" d="M472.644,292.73c0-6.397-5.187-11.584-11.584-11.584h-48.942v-176.64h12.569
		c3.161,0,6.183-1.29,8.368-3.574c2.186-2.283,3.343-5.36,3.205-8.517l-3.56-81.339C432.43,4.883,427.327,0,421.128,0h-41.185
		c-6.201,0-11.301,4.883-11.572,11.078l-3.561,81.339c-0.138,3.158,1.019,6.234,3.205,8.518c2.185,2.283,5.207,3.574,8.368,3.574
		h12.569v176.64H340.01c-6.397,0-11.584,5.187-11.584,11.584c0,5.728,4.162,10.473,9.625,11.405l2.245,196.413
		c0.073,6.346,5.237,11.452,11.583,11.452h97.316c6.347,0,11.511-5.106,11.583-11.452l2.245-196.413
		C468.482,303.202,472.644,298.458,472.644,292.73z M391.03,23.167h19.009l2.546,58.171h-24.101L391.03,23.167z M412.118,488.833
		v-160.5c0-6.397-5.187-11.584-11.584-11.584c-6.397,0-11.584,5.187-11.584,11.584v160.5h-25.621l-2.111-184.519h78.63
		l-2.108,184.519H412.118z"/>
	<path style="fill:#01121C;" d="M210.904,195.797H106.719c-6.397,0-11.584,5.187-11.584,11.584v237.256
		c0,6.397,5.187,11.584,11.584,11.584h104.185c6.397,0,11.584-5.187,11.584-11.584V207.381
		C222.488,200.984,217.302,195.797,210.904,195.797z M199.32,433.055h-81.018v-214.09h81.018V433.055z"/>
	<path style="fill:#01121C;" d="M231.757,140.018h-1.428V116.99c6.397,0,11.584-5.187,11.584-11.584s-5.187-11.584-11.584-11.584
		V59.21c0-6.397-5.187-11.584-11.584-11.584H98.879c-6.397,0-11.584,5.187-11.584,11.584v34.662
		c-5.935,0.502-10.598,5.47-10.598,11.534s4.664,11.032,10.598,11.534v23.078h-1.428c-25.646,0-46.51,20.865-46.51,46.51v278.961
		c0,25.646,20.865,46.51,46.51,46.51h145.89c25.646,0,46.51-20.865,46.51-46.51V186.528
		C278.268,160.883,257.403,140.018,231.757,140.018z M110.463,116.99h13.932c6.397,0,11.584-5.187,11.584-11.584
		s-5.187-11.584-11.584-11.584h-13.932V70.794h96.699v23.028h-47.163c-6.397,0-11.584,5.187-11.584,11.584
		s5.187,11.584,11.584,11.584h47.163v23.028h-96.699V116.99z M255.101,465.49c0,12.871-10.472,23.342-23.342,23.342H85.867
		c-12.871,0-23.342-10.472-23.342-23.342V186.528c0-12.871,10.472-23.342,23.342-23.342h13.012h119.866h13.012
		c12.871,0,23.342,10.472,23.342,23.342V465.49H255.101z"/>
</g>
<g>
</g>
<g>
</g>
<g>
</g>
<g>
</g>
<g>
</g>
<g>
</g>
<g>
</g>
<g>
</g>
<g>
</g>
<g>
</g>
<g>
</g>
<g>
</g>
<g>
</g>
<g>
</g>
<g>
</g>
</svg>
