<?xml version="1.0" encoding="iso-8859-1"?>
<!-- Generator: Adobe Illustrator 19.0.0, SVG Export Plug-In . SVG Version: 6.00 Build 0)  -->
<svg version="1.1" id="Layer_1" xmlns="http://www.w3.org/2000/svg" xmlns:xlink="http://www.w3.org/1999/xlink" x="0px" y="0px"
	 viewBox="0 0 512 512" style="enable-background:new 0 0 512 512;" xml:space="preserve">
<rect x="404.218" y="36.078" transform="matrix(-0.7071 0.7071 -0.7071 -0.7071 817.5851 -229.638)" style="fill:#3B8BC0;" width="104.268" height="36.86"/>
<polygon style="fill:#4EB9FF;" points="435.769,140.24 147.598,428.411 98.727,412.121 82.437,363.25 370.61,75.079 "/>
<path style="fill:#3B8BC0;" d="M82.437,363.25l65.161,65.161c-61.406,61.406-87.918,58.693-105.886,40.725
	S21.032,424.656,82.437,363.25z"/>
<rect x="384.919" y="55.657" transform="matrix(-0.7071 0.7071 -0.7071 -0.7071 768.3607 -114.8024)" style="fill:#174461;" width="46.075" height="92.15"/>
<path style="fill:#01121C;" d="M508.626,29.439L482.562,3.374c-2.16-2.16-5.09-3.374-8.145-3.374s-5.984,1.214-8.145,3.374
	L408.837,60.81l-11.402-11.403c-4.499-4.498-11.791-4.498-16.291,0l-24.435,24.435l-8.145-8.145l8.145-8.145
	c4.498-4.498,4.498-11.792,0-16.29c-4.499-4.497-11.791-4.497-16.291,0L218.946,162.735c-4.498,4.498-4.498,11.792,0,16.291
	c4.499,4.498,11.791,4.498,16.291,0l97.037-97.038l8.144,8.145L76.68,353.87c-29.97,29.97-47.323,54.24-53.053,74.2
	c-4.221,14.701-2.603,27.572,4.967,39.048L3.374,492.336c-4.498,4.498-4.498,11.792,0,16.29c2.25,2.25,5.197,3.374,8.145,3.374
	s5.895-1.125,8.145-3.374l25.218-25.218c11.477,7.569,24.344,9.185,39.048,4.967c19.959-5.731,44.23-23.084,74.2-53.053
	l271.815-271.816c0.023-0.022,0.046-0.045,0.069-0.067c0.023-0.022,0.045-0.046,0.068-0.068l32.513-32.513
	c2.16-2.16,3.374-5.089,3.374-8.145c0-3.056-1.214-5.985-3.374-8.145l-11.402-11.403l57.435-57.436
	C513.124,41.229,513.124,33.937,508.626,29.439z M77.574,466.231c-10.41,2.988-17.745,1.11-25.329-6.476
	c-7.586-7.585-9.463-14.924-6.475-25.329c4.082-14.221,17.237-33.039,39.149-56.026l48.681,48.681
	C110.613,448.994,91.795,462.148,77.574,466.231z M149.984,410.886l-48.87-48.87l255.593-255.594l48.87,48.87L149.984,410.886z
	 M421.868,139.003l-48.87-48.87l16.29-16.29l37.412,37.412c0.018,0.018,0.037,0.037,0.055,0.055c0.02,0.018,0.037,0.037,0.056,0.055
	l11.347,11.347L421.868,139.003z M434.9,86.874l-9.774-9.774l49.291-49.291l9.774,9.774L434.9,86.874z"/>
<g>
</g>
<g>
</g>
<g>
</g>
<g>
</g>
<g>
</g>
<g>
</g>
<g>
</g>
<g>
</g>
<g>
</g>
<g>
</g>
<g>
</g>
<g>
</g>
<g>
</g>
<g>
</g>
<g>
</g>
</svg>
