<?xml version="1.0" encoding="iso-8859-1"?>
<!-- Generator: Adobe Illustrator 19.0.0, SVG Export Plug-In . SVG Version: 6.00 Build 0)  -->
<svg version="1.1" id="Layer_1" xmlns="http://www.w3.org/2000/svg" xmlns:xlink="http://www.w3.org/1999/xlink" x="0px" y="0px"
	 viewBox="0 0 512 512" style="enable-background:new 0 0 512 512;" xml:space="preserve">
<path style="fill:#FFD86C;" d="M227.901,86.878h226.18c25.484,0,46.335,20.851,46.335,46.335v57.919H227.901V86.878z"/>
<path style="fill:#FFB14E;" d="M454.081,144.796H256v-34.751c0-25.484-20.851-46.335-46.335-46.335H57.919
	c-25.484,0-46.335,20.851-46.335,46.335v326.661c0,6.371,5.213,11.584,11.584,11.584h465.665c6.371,0,11.584-5.213,11.584-11.584
	V191.131C500.416,165.647,479.566,144.796,454.081,144.796z"/>
<path style="fill:#01121C;" d="M454.081,75.294H255.969c-10.577-14.058-27.395-23.167-46.304-23.167H57.919
	C25.982,52.127,0,78.109,0,110.045v326.661c0,12.775,10.393,23.167,23.167,23.167h465.665c12.775,0,23.167-10.393,23.167-23.167
	V191.131v-57.919C512,101.276,486.018,75.294,454.081,75.294z M454.081,98.462c19.162,0,34.751,15.589,34.751,34.751v11.615
	c-9.687-7.288-21.723-11.615-34.751-11.615H267.584v-23.167c0-3.966-0.402-7.84-1.165-11.584H454.081z M488.833,436.706H23.167
	V110.045c0-19.162,15.589-34.751,34.751-34.751h151.747c12.571,0,23.604,6.709,29.708,16.736c0.233,0.468,0.487,0.923,0.778,1.352
	c2.716,4.951,4.265,10.629,4.265,16.663v34.751c0,6.398,5.186,11.584,11.584,11.584h198.081c19.162,0,34.751,15.589,34.751,34.751
	V436.706z"/>
<g>
</g>
<g>
</g>
<g>
</g>
<g>
</g>
<g>
</g>
<g>
</g>
<g>
</g>
<g>
</g>
<g>
</g>
<g>
</g>
<g>
</g>
<g>
</g>
<g>
</g>
<g>
</g>
<g>
</g>
</svg>
