<?xml version="1.0" encoding="iso-8859-1"?>
<!-- Generator: Adobe Illustrator 19.0.0, SVG Export Plug-In . SVG Version: 6.00 Build 0)  -->
<svg version="1.1" id="Layer_1" xmlns="http://www.w3.org/2000/svg" xmlns:xlink="http://www.w3.org/1999/xlink" x="0px" y="0px"
	 viewBox="0 0 512 512" style="enable-background:new 0 0 512 512;" xml:space="preserve">
<path style="fill:#3B8BC0;" d="M85.134,243.62l-63.395,63.395c-13.567,13.567-13.567,35.564,0,49.131l134.116,134.116
	c13.567,13.567,35.564,13.567,49.131,0l63.395-63.395L85.134,243.62z"/>
<path style="fill:#4EB9FF;" d="M85.134,243.62c-13.567,13.567-13.567,35.564,0,49.131L219.25,426.867
	c13.567,13.567,35.564,13.567,49.131,0l110.941-110.941l-75.24-108.006l-108.006-75.24L85.134,243.62z"/>
<path style="fill:#FF4181;" d="M490.262,155.854L356.146,21.738c-13.567-13.567-35.564-13.567-49.131,0L196.075,132.678
	l183.246,183.246l110.941-110.941C503.829,191.417,503.829,169.422,490.262,155.854z"/>
<path style="fill:#01121C;" d="M498.454,147.662L364.339,13.546c-18.065-18.063-47.452-18.061-65.515,0L187.91,124.46
	c-0.009,0.009-0.019,0.019-0.027,0.027c-0.008,0.008-0.019,0.019-0.027,0.027L76.969,235.401c-0.009,0.009-0.019,0.019-0.027,0.027
	c-0.019,0.019-0.035,0.036-0.053,0.054l-63.343,63.342c-18.062,18.062-18.062,47.451,0,65.515l134.116,134.116
	c9.033,9.031,20.894,13.546,32.757,13.546s23.725-4.516,32.757-13.546l63.342-63.343c0.019-0.019,0.036-0.035,0.054-0.053
	c0.009-0.009,0.019-0.019,0.027-0.027l110.886-110.886c0.009-0.009,0.019-0.019,0.027-0.027c0.008-0.008,0.019-0.019,0.027-0.027
	l110.914-110.914C516.515,195.115,516.515,165.725,498.454,147.662z M260.189,418.674c-4.373,4.374-10.189,6.783-16.374,6.783
	c-6.185,0-11.999-2.408-16.374-6.783l-79.44-79.438c-4.525-4.523-11.858-4.523-16.384,0c-4.524,4.524-4.524,11.859,0,16.384
	l79.44,79.437c5.842,5.843,12.968,9.933,20.742,12.005l-35.008,35.008c-9.027,9.027-23.718,9.029-32.748,0L29.929,347.954
	c-9.028-9.029-9.028-23.72,0-32.748l35.008-35.008c2.073,7.774,6.162,14.9,12.004,20.742l21.909,21.91
	c4.525,4.522,11.858,4.524,16.384,0c4.524-4.524,4.524-11.859,0-16.384l-21.91-21.91c-4.373-4.373-6.782-10.189-6.782-16.374
	c0-6.185,2.408-11.999,6.783-16.374l102.748-102.748l166.865,166.865L260.189,418.674z M482.071,196.793L379.321,299.542
	L212.458,132.68L315.207,29.93c9.027-9.027,23.718-9.028,32.748,0l134.116,134.116C491.099,173.074,491.099,187.765,482.071,196.793
	z"/>
<g>
</g>
<g>
</g>
<g>
</g>
<g>
</g>
<g>
</g>
<g>
</g>
<g>
</g>
<g>
</g>
<g>
</g>
<g>
</g>
<g>
</g>
<g>
</g>
<g>
</g>
<g>
</g>
<g>
</g>
</svg>
