<?xml version="1.0" encoding="iso-8859-1"?>
<!-- Generator: Adobe Illustrator 19.0.0, SVG Export Plug-In . SVG Version: 6.00 Build 0)  -->
<svg version="1.1" id="Layer_1" xmlns="http://www.w3.org/2000/svg" xmlns:xlink="http://www.w3.org/1999/xlink" x="0px" y="0px"
	 viewBox="0 0 512.002 512.002" style="enable-background:new 0 0 512.002 512.002;" xml:space="preserve">
<polygon style="fill:#FF9356;" points="227.07,34.75 227.07,196.389 363.744,286.333 500.418,311.078 500.418,126.27 "/>
<polygon style="fill:#FFB14E;" points="227.07,11.582 146.887,45.224 420.23,159.911 500.418,126.27 "/>
<polygon style="fill:#FF755C;" points="106.307,336.263 284.933,424.656 417.279,360.54 227.07,272.147 "/>
<polygon style="fill:#FF9356;" points="227.07,295.315 238.653,245.852 227.07,196.389 11.585,286.8 74.257,359.431 "/>
<polygon style="fill:#FF4181;" points="382.528,360.54 500.418,311.078 227.07,196.389 227.07,295.315 "/>
<polygon style="fill:#FFB14E;" points="11.585,286.8 11.585,385.726 284.933,500.415 308.1,450.951 284.933,401.489 "/>
<polygon style="fill:#FFCE47;" points="284.933,401.489 284.933,500.415 500.418,410.004 500.418,311.078 "/>
<path style="fill:#01121C;" d="M512.001,310.992V126.356c0.005-0.546-0.042-1.095-0.116-1.644c-0.014-0.105-0.029-0.211-0.046-0.315
	c-0.083-0.504-0.189-1.005-0.341-1.505c-0.003-0.01-0.008-0.021-0.012-0.031c-0.111-0.36-0.239-0.717-0.387-1.071
	c-0.043-0.102-0.096-0.195-0.141-0.295c-0.057-0.125-0.117-0.248-0.178-0.372c-0.197-0.397-0.411-0.781-0.648-1.146
	c-0.032-0.051-0.06-0.103-0.094-0.153c-0.286-0.427-0.6-0.827-0.934-1.206c-0.063-0.071-0.127-0.137-0.191-0.206
	c-0.309-0.335-0.635-0.65-0.978-0.942c-0.054-0.047-0.105-0.096-0.161-0.142c-0.388-0.319-0.797-0.607-1.22-0.871
	c-0.098-0.061-0.199-0.118-0.3-0.176c-0.393-0.229-0.797-0.438-1.213-0.62c-0.049-0.021-0.092-0.051-0.141-0.072L231.553,0.9
	c-0.025-0.01-0.051-0.017-0.076-0.028c-0.107-0.044-0.218-0.078-0.327-0.118c-1.676-0.631-3.41-0.857-5.092-0.708
	c-0.032,0.002-0.064,0.001-0.096,0.005c-0.766,0.074-1.519,0.224-2.25,0.445c-0.044,0.014-0.088,0.032-0.132,0.047
	c-0.32,0.101-0.637,0.213-0.946,0.341c-0.014,0.006-0.029,0.009-0.044,0.016l-80.182,33.641c-4.302,1.806-7.102,6.015-7.102,10.682
	s2.8,8.877,7.102,10.682l73.08,30.663v102.117L7.103,276.117c-0.146,0.061-0.28,0.137-0.422,0.203
	c-0.138,0.065-0.276,0.127-0.411,0.198c-0.329,0.169-0.645,0.353-0.951,0.55c-0.049,0.031-0.1,0.053-0.148,0.086
	c-0.012,0.008-0.021,0.017-0.032,0.024c-0.385,0.257-0.749,0.534-1.095,0.831c-0.036,0.03-0.067,0.064-0.102,0.095
	c-0.295,0.261-0.576,0.534-0.841,0.82c-0.079,0.085-0.153,0.171-0.229,0.258c-0.217,0.248-0.422,0.505-0.615,0.769
	c-0.073,0.098-0.146,0.196-0.215,0.297c-0.209,0.305-0.401,0.617-0.579,0.938c-0.032,0.059-0.071,0.115-0.102,0.174
	c-0.202,0.379-0.379,0.77-0.537,1.168c-0.043,0.108-0.076,0.218-0.116,0.328c-0.109,0.301-0.207,0.605-0.292,0.914
	c-0.036,0.134-0.07,0.268-0.101,0.403c-0.074,0.317-0.134,0.638-0.182,0.963c-0.016,0.108-0.036,0.215-0.049,0.324
	c-0.053,0.455-0.085,0.913-0.083,1.375v98.892c0,4.666,2.8,8.877,7.102,10.683L280.38,511.07c0.722,0.309,1.48,0.546,2.268,0.703
	c0.073,0.015,0.147,0.021,0.22,0.034c0.3,0.054,0.6,0.105,0.908,0.136c0.383,0.038,0.769,0.058,1.155,0.058
	c0.386,0,0.77-0.02,1.155-0.058c0.307-0.03,0.608-0.081,0.908-0.136c0.073-0.013,0.147-0.019,0.22-0.034
	c0.788-0.158,1.548-0.394,2.268-0.703l215.416-90.382c4.302-1.806,7.102-6.015,7.102-10.682v-98.891
	C512.001,311.073,512.001,311.032,512.001,310.992z M382.528,347.978l-73.152-30.692c-5.902-2.484-12.689,0.3-15.163,6.2
	c-2.474,5.9,0.3,12.688,6.2,15.164l52.176,21.891l-67.655,28.386l-125.518-52.663l67.653-28.386l41.15,17.266
	c5.901,2.475,12.689-0.301,15.163-6.201c2.475-5.9-0.3-12.688-6.2-15.164l-38.53-16.166v-73.8l231.822,97.266L382.528,347.978z
	 M215.486,287.613l-86.011,36.088L41.526,286.8l173.96-72.988L215.486,287.613L215.486,287.613z M227.07,24.144L470.477,126.27
	l-50.242,21.081L231.628,68.216c-0.035-0.015-0.071-0.029-0.107-0.044l-54.694-22.948L227.07,24.144z M415.669,170.559
	c1.455,0.624,3.009,0.938,4.566,0.938c1.522,0,3.045-0.3,4.482-0.901l64.117-26.903v149.96l-250.18-104.968V96.289L415.669,170.559z
	 M23.169,304.222l250.18,104.969v73.801L23.169,378.024V304.222z M488.834,402.302l-192.317,80.69v-73.801L488.834,328.5V402.302z"
	/>
<g>
</g>
<g>
</g>
<g>
</g>
<g>
</g>
<g>
</g>
<g>
</g>
<g>
</g>
<g>
</g>
<g>
</g>
<g>
</g>
<g>
</g>
<g>
</g>
<g>
</g>
<g>
</g>
<g>
</g>
</svg>
