<?xml version="1.0" encoding="iso-8859-1"?>
<!-- Generator: Adobe Illustrator 19.0.0, SVG Export Plug-In . SVG Version: 6.00 Build 0)  -->
<svg version="1.1" id="Layer_1" xmlns="http://www.w3.org/2000/svg" xmlns:xlink="http://www.w3.org/1999/xlink" x="0px" y="0px"
	 viewBox="0 0 512 512" style="enable-background:new 0 0 512 512;" xml:space="preserve">
<path style="fill:#FFCE47;" d="M70.661,91.728c0,0,0,228.3,0,292.481c0,64.18,82.979,116.208,185.339,116.208
	s185.339-52.028,185.339-116.209c0-64.18,0-292.481,0-292.481H70.661V91.728z"/>
<path style="fill:#FF4181;" d="M256,11.584c-102.359,0-185.339,35.882-185.339,80.144s82.98,80.144,185.339,80.144
	c5.465,0,10.871-0.109,16.217-0.309v221.504c0,10.237,8.299,18.534,18.534,18.534c10.237,0,18.534-8.297,18.534-18.534V168.504
	c13.015-1.687,25.429-3.976,37.068-6.79v127.101c0,10.237,8.299,18.534,18.534,18.534c10.237,0,18.534-8.297,18.534-18.534V149.923
	c35.666-14.607,57.919-35.277,57.919-58.195C441.339,47.465,358.361,11.584,256,11.584z"/>
<path style="fill:#FF80AB;" d="M256,129.011c-75.351,0-135.277-15.523-135.277-37.283c0-21.761,59.926-37.284,135.277-37.284
	s135.277,15.523,135.277,37.284C391.277,113.489,331.351,129.011,256,129.011z"/>
<g>
	<path style="fill:#01121C;" d="M157.08,129.712c25.943,7.019,61.074,10.884,98.92,10.884s72.977-3.865,98.92-10.884
		c31.811-8.606,47.94-21.385,47.94-37.984c0-16.598-16.129-29.379-47.94-37.984C328.976,46.725,293.846,42.86,256,42.86
		s-72.976,3.865-98.92,10.884c-31.811,8.606-47.94,21.386-47.94,37.984S125.269,121.105,157.08,129.712z M163.13,76.107
		c24.027-6.501,57.009-10.08,92.87-10.08s68.843,3.579,92.87,10.08c25.464,6.889,30.823,14.423,30.823,15.621
		s-5.357,8.732-30.823,15.621c-24.027,6.5-57.009,10.08-92.87,10.08s-68.843-3.579-92.87-10.08
		c-25.464-6.889-30.823-14.423-30.823-15.621S137.664,82.995,163.13,76.107z"/>
	<path style="fill:#01121C;" d="M391.652,24.424C355.227,8.674,307.052,0,256,0s-99.227,8.674-135.652,24.424
		C80.837,41.51,59.077,65.412,59.077,91.728v292.481c0,35.174,21.207,67.841,59.715,91.986C155.618,499.283,204.346,512,256,512
		s100.382-12.717,137.208-35.806c38.508-24.144,59.715-56.812,59.715-91.986V91.728C452.923,65.412,431.163,41.51,391.652,24.424z
		 M129.543,45.69C163.13,31.166,208.04,23.167,256,23.167s92.87,7.999,126.457,22.522c30.059,12.998,47.299,29.777,47.299,46.038
		c0,16.969-18.489,34.274-50.725,47.476c-4.351,1.782-7.193,6.018-7.193,10.72v138.89c0,3.833-3.117,6.95-6.95,6.95
		s-6.95-3.117-6.95-6.95v-127.1c0-3.552-1.629-6.906-4.42-9.102c-2.792-2.196-6.436-2.992-9.887-2.156
		c-11.336,2.742-23.391,4.95-35.833,6.562c-5.773,0.748-10.095,5.666-10.095,11.488v224.563c0,3.833-3.117,6.95-6.95,6.95
		c-3.833,0-6.95-3.117-6.95-6.95V171.564c0-3.147-1.28-6.159-3.548-8.343c-2.163-2.083-5.044-3.241-8.036-3.241
		c-0.145,0-0.29,0.002-0.434,0.008c-5.327,0.199-10.637,0.301-15.783,0.301c-47.96,0-92.87-7.999-126.457-22.522
		c-30.059-13-47.299-29.779-47.299-46.039S99.484,58.688,129.543,45.69z M380.901,456.566
		c-33.186,20.807-77.544,32.266-124.901,32.266s-91.715-11.46-124.901-32.266c-31.504-19.754-48.854-45.451-48.854-72.359V135.989
		c9.801,8.553,22.574,16.325,38.103,23.04c36.425,15.752,84.6,24.425,135.652,24.425c1.533,0,3.078-0.008,4.633-0.025v209.637
		c0,16.606,13.511,30.118,30.118,30.118c16.606,0,30.118-13.511,30.118-30.118V178.548c4.702-0.736,9.339-1.553,13.9-2.449v112.714
		c0,16.606,13.511,30.118,30.118,30.118c16.606,0,30.118-13.511,30.118-30.118V157.542c14.024-6.361,25.669-13.595,34.751-21.504
		v248.168C429.756,411.115,412.406,436.812,380.901,456.566z"/>
</g>
<g>
</g>
<g>
</g>
<g>
</g>
<g>
</g>
<g>
</g>
<g>
</g>
<g>
</g>
<g>
</g>
<g>
</g>
<g>
</g>
<g>
</g>
<g>
</g>
<g>
</g>
<g>
</g>
<g>
</g>
</svg>
