<?xml version="1.0" encoding="iso-8859-1"?>
<!-- Generator: Adobe Illustrator 19.0.0, SVG Export Plug-In . SVG Version: 6.00 Build 0)  -->
<svg version="1.1" id="Layer_1" xmlns="http://www.w3.org/2000/svg" xmlns:xlink="http://www.w3.org/1999/xlink" x="0px" y="0px"
	 viewBox="0 0 512 512" style="enable-background:new 0 0 512 512;" xml:space="preserve">
<path style="fill:#4EB9FF;" d="M436.562,58.719h-41.408v23.167h41.408c5.091,0,11.308,5.386,11.308,11.673v56.976
	c0,7.206-6.226,14.621-13.325,15.866l-156.291,27.426c-18.218,3.197-32.488,20.189-32.488,38.685v72.463h23.167v-72.463
	c0-7.206,6.226-14.621,13.325-15.866l156.291-27.424c18.218-3.197,32.488-20.189,32.488-38.685V93.559
	C471.037,75,454.926,58.719,436.562,58.719z"/>
<path style="fill:#FF755C;" d="M291.963,342.165l10.023-60.358L291.963,342.165z"/>
<path style="fill:#4EB9FF;" d="M52.543,58.719c-6.397,0-11.584,5.186-11.584,11.584s5.187,11.584,11.584,11.584h40.756V58.719
	H52.543z"/>
<path style="fill:#FF4181;" d="M222.736,342.165v136.531c0,11.995,9.725,21.719,21.719,21.719h25.789
	c11.995,0,21.719-9.725,21.719-21.719V342.165l-34.613-23.167L222.736,342.165z M268.934,465.665
	c0,6.398-5.187,11.584-11.584,11.584c-6.397,0-11.584-5.186-11.584-11.584v-15.629c0-6.398,5.187-11.584,11.584-11.584
	c6.397,0,11.584,5.186,11.584,11.584V465.665z"/>
<polygon style="fill:#FF80AB;" points="212.712,281.806 222.736,342.165 291.963,342.165 301.987,281.806 "/>
<path style="fill:#FFCE47;" d="M418.321,99.952c0,16.055-13.015,29.07-29.07,29.07H99.202c-16.055,0-29.07-13.015-29.07-29.07
	V40.654c0-16.055,13.015-29.07,29.07-29.07h290.049c16.055,0,29.07,13.015,29.07,29.07v59.298H418.321z"/>
<g>
	<path style="fill:#01121C;" d="M245.766,450.036v15.629c0,6.398,5.187,11.584,11.584,11.584c6.397,0,11.584-5.186,11.584-11.584
		v-15.629c0-6.398-5.187-11.584-11.584-11.584C250.954,438.453,245.766,443.639,245.766,450.036z"/>
	<path style="fill:#01121C;" d="M436.562,58.719h-6.657V40.654C429.905,18.237,411.667,0,389.25,0H99.202
		C76.786,0,58.548,18.237,58.548,40.654V58.72h-6.005c-6.397,0-11.584,5.186-11.584,11.584c0,6.398,5.187,11.584,11.584,11.584
		h6.005v18.065c0,22.417,18.237,40.654,40.654,40.654h290.049c22.417,0,40.654-18.237,40.654-40.654V81.886h6.657
		c5.091,0,11.308,5.386,11.308,11.673v56.976c0,7.206-6.226,14.621-13.325,15.866l-156.291,27.426
		c-18.218,3.197-32.488,20.189-32.488,38.685v37.712h-33.054c-3.403,0-6.636,1.497-8.836,4.094c-2.201,2.596-3.15,6.029-2.591,9.387
		l9.868,59.416v135.576c0,18.364,14.94,33.303,33.303,33.303h25.789c18.364,0,33.303-14.939,33.303-33.303V343.12l9.868-59.416
		c0.557-3.358-0.39-6.792-2.591-9.387c-2.2-2.597-5.432-4.094-8.836-4.094h-33.053v-37.712c0-7.206,6.226-14.621,13.325-15.866
		l156.291-27.424c18.218-3.197,32.488-20.189,32.488-38.685V93.559C471.037,75,454.926,58.719,436.562,58.719z M406.737,99.952
		c0,9.642-7.843,17.487-17.487,17.487H99.202c-9.642,0-17.487-7.844-17.487-17.487V40.654c0-9.642,7.843-17.487,17.487-17.487
		h290.049c9.642,0,17.487,7.844,17.487,17.487v59.298H406.737z M280.536,340.268c-0.104,0.628-0.156,1.261-0.156,1.897v136.531
		c0,5.589-4.547,10.136-10.136,10.136h-25.789c-5.589,0-10.136-4.547-10.136-10.136V353.749h11.309
		c6.397,0,11.584-5.186,11.584-11.584c0-6.398-5.187-11.584-11.584-11.584h-13.073l-6.176-37.191h61.943L280.536,340.268z"/>
</g>
<g>
</g>
<g>
</g>
<g>
</g>
<g>
</g>
<g>
</g>
<g>
</g>
<g>
</g>
<g>
</g>
<g>
</g>
<g>
</g>
<g>
</g>
<g>
</g>
<g>
</g>
<g>
</g>
<g>
</g>
</svg>
