<?xml version="1.0" encoding="iso-8859-1"?>
<!-- Generator: Adobe Illustrator 19.0.0, SVG Export Plug-In . SVG Version: 6.00 Build 0)  -->
<svg version="1.1" id="Layer_1" xmlns="http://www.w3.org/2000/svg" xmlns:xlink="http://www.w3.org/1999/xlink" x="0px" y="0px"
	 viewBox="0 0 512 512" style="enable-background:new 0 0 512 512;" xml:space="preserve">
<polygon style="fill:#C9D467;" points="93.057,57.919 93.057,500.416 256.003,454.081 256.003,11.584 "/>
<polygon style="fill:#85C250;" points="256.003,11.584 256.003,454.081 418.943,500.416 418.943,57.919 "/>
<polygon style="fill:#174461;" points="372.606,429.321 372.606,276.416 302.336,256.434 302.336,409.339 "/>
<g>
	<path style="fill:#01121C;" d="M422.111,46.776L259.172,0.441c-0.065-0.019-0.131-0.024-0.196-0.042
		c-0.378-0.101-0.762-0.181-1.154-0.243c-0.126-0.02-0.253-0.042-0.38-0.058c-0.465-0.058-0.935-0.096-1.414-0.098
		c-0.009,0.001-0.02,0-0.029,0c-0.492,0-0.974,0.041-1.45,0.101c-0.115,0.015-0.229,0.035-0.344,0.052
		c-0.414,0.065-0.82,0.149-1.219,0.257c-0.05,0.014-0.102,0.017-0.152,0.032l-0.258,0.073c-0.009,0.003-0.02,0.006-0.03,0.008
		L89.888,46.776c-4.98,1.417-8.414,5.966-8.414,11.142v442.498c0,3.633,1.704,7.054,4.602,9.243c2.898,2.19,6.655,2.892,10.15,1.899
		l159.779-45.434l159.771,45.434c1.043,0.297,2.108,0.441,3.168,0.441c2.492,0,4.949-0.804,6.982-2.34
		c2.898-2.189,4.602-5.611,4.602-9.244V57.919C430.526,52.742,427.091,48.193,422.111,46.776z M104.641,66.668l139.775-39.746
		v418.412l-139.775,39.746V66.668z M407.359,485.079l-139.776-39.748V26.919l139.776,39.748L407.359,485.079L407.359,485.079z"/>
	<path style="fill:#01121C;" d="M299.168,93.821l70.269,19.982c1.06,0.301,2.126,0.445,3.174,0.445
		c5.046,0,9.687-3.323,11.137-8.418c1.75-6.154-1.82-12.56-7.973-14.311l-70.269-19.982c-6.154-1.749-12.56,1.821-14.311,7.973
		C289.445,85.664,293.015,92.071,299.168,93.821z"/>
	<path style="fill:#01121C;" d="M299.168,151.74l70.269,19.982c1.06,0.301,2.126,0.445,3.174,0.445
		c5.046,0,9.687-3.323,11.137-8.418c1.75-6.154-1.82-12.56-7.973-14.311l-70.269-19.982c-6.154-1.753-12.56,1.821-14.311,7.973
		C289.445,143.582,293.015,149.989,299.168,151.74z"/>
	<path style="fill:#01121C;" d="M299.168,209.658l70.269,19.982c1.06,0.301,2.126,0.445,3.174,0.445
		c5.046,0,9.687-3.323,11.137-8.418c1.75-6.154-1.82-12.56-7.973-14.311l-70.269-19.982c-6.154-1.751-12.56,1.821-14.311,7.973
		C289.445,201.501,293.015,207.908,299.168,209.658z"/>
	<path style="fill:#01121C;" d="M299.168,420.482l70.269,19.982c1.043,0.297,2.108,0.441,3.168,0.441
		c2.492,0,4.949-0.804,6.982-2.341c2.898-2.189,4.602-5.611,4.602-9.243V276.416c0-5.177-3.436-9.726-8.416-11.142l-70.269-19.982
		c-3.494-0.993-7.251-0.291-10.15,1.899c-2.898,2.189-4.602,5.611-4.602,9.243v152.905
		C290.753,414.516,294.188,419.065,299.168,420.482z M313.92,271.771l47.102,13.394v128.819L313.92,400.59V271.771z"/>
	<path style="fill:#01121C;" d="M206.499,398.196l-70.277,19.983c-6.153,1.75-9.723,8.157-7.973,14.311
		c1.448,5.095,6.09,8.418,11.137,8.418c1.048,0,2.115-0.144,3.174-0.445l70.277-19.983c6.153-1.75,9.723-8.157,7.973-14.311
		C219.059,400.017,212.651,396.447,206.499,398.196z"/>
	<path style="fill:#01121C;" d="M139.384,114.248c1.048,0,2.115-0.144,3.174-0.445l70.277-19.983
		c6.153-1.75,9.723-8.157,7.973-14.311c-1.749-6.153-8.158-9.723-14.311-7.973L136.22,91.519c-6.153,1.75-9.723,8.157-7.973,14.311
		C129.696,110.924,134.337,114.248,139.384,114.248z"/>
	<path style="fill:#01121C;" d="M206.499,129.454l-70.277,19.983c-6.153,1.75-9.723,8.157-7.973,14.311
		c1.448,5.094,6.09,8.418,11.137,8.418c1.048,0,2.115-0.144,3.174-0.445l70.277-19.983c6.153-1.75,9.723-8.157,7.973-14.311
		C219.059,131.275,212.651,127.705,206.499,129.454z"/>
</g>
<g>
</g>
<g>
</g>
<g>
</g>
<g>
</g>
<g>
</g>
<g>
</g>
<g>
</g>
<g>
</g>
<g>
</g>
<g>
</g>
<g>
</g>
<g>
</g>
<g>
</g>
<g>
</g>
<g>
</g>
</svg>
