<?xml version="1.0" encoding="iso-8859-1"?>
<!-- Generator: Adobe Illustrator 19.0.0, SVG Export Plug-In . SVG Version: 6.00 Build 0)  -->
<svg version="1.1" id="Layer_1" xmlns="http://www.w3.org/2000/svg" xmlns:xlink="http://www.w3.org/1999/xlink" x="0px" y="0px"
	 viewBox="0 0 511.999 511.999" style="enable-background:new 0 0 511.999 511.999;" xml:space="preserve">
<polygon style="fill:#FFE290;" points="173.921,97.89 154.453,157.446 177.622,179.137 200.79,154.493 "/>
<polygon style="fill:#4EB9FF;" points="200.79,154.493 154.453,157.446 161.567,269.091 208.093,269.083 "/>
<path style="fill:#FF4181;" d="M277.984,48.363c0,0,1.65-32.037-21.984-32.037s-21.985,32.037-21.985,32.037v9.664l21.984,24.134
	l21.984-24.132v-9.665H277.984z"/>
<rect x="233.99" y="58.023" style="fill:#FF80AB;" width="44.018" height="222.407"/>
<rect x="315.597" y="66.932" transform="matrix(-0.9975 -0.0704 0.0704 -0.9975 668.2418 223.3086)" style="fill:#3B8BC0;" width="44.918" height="65.893"/>
<polygon style="fill:#174461;" points="313.346,131.151 303.616,269.085 348.648,269.085 358.154,134.311 "/>
<polygon style="fill:#FF4181;" points="161.013,505.159 350.986,505.159 353.519,463.457 255.999,440.29 158.48,463.457 "/>
<polygon style="fill:#FF755C;" points="145.954,257.267 158.48,463.457 353.519,463.457 366.045,257.267 "/>
<path style="fill:#01121C;" d="M374.475,244.824c-2.19-2.329-5.244-3.649-8.44-3.649h-4.14l12.449-176.523
	c0.449-6.381-4.359-11.92-10.739-12.37l-10.849-0.766l2.611-37.019c0.451-6.383-4.359-11.921-10.739-12.371
	c-6.383-0.436-11.92,4.359-12.371,10.739l-2.611,37.02l-10.848-0.766c-3.08-0.218-6.091,0.795-8.41,2.809
	c-2.32,2.013-3.745,4.866-3.962,7.933l-12.788,181.312h-3.794V43.878c0.138-3.481,0.326-22.424-11.052-34.418
	C272.922,3.271,265.003,0,255.894,0c-9.109,0-17.028,3.271-22.899,9.46c-11.376,11.994-11.19,30.935-11.052,34.418l0,197.296h-3.72
	l-5.873-92.161c-0.093-1.468-0.465-2.903-1.095-4.23L185.341,90.19l-0.822-12.901c-0.407-6.386-5.934-11.234-12.296-10.824
	c-6.385,0.407-11.23,5.912-10.824,12.296l0.822,12.902l-18.777,57.44c-0.458,1.398-0.644,2.869-0.55,4.336l5.59,87.734h-2.521
	c-3.196,0-6.251,1.321-8.44,3.649s-3.319,5.458-3.122,8.648l15.293,247.659c0.378,6.108,5.442,10.87,11.562,10.87h189.486
	c6.12,0,11.184-4.761,11.562-10.87l15.293-247.659C377.795,250.281,376.665,247.151,374.475,244.824z M266.677,65.834v175.339
	h-21.567V65.834H266.677z M249.83,25.376c0.986-1.029,2.565-2.209,6.064-2.209s5.079,1.182,6.064,2.209
	c3.855,4.026,4.842,13.115,4.741,17.29h-21.611C244.988,38.49,245.976,29.403,249.83,25.376z M339.557,73.81
	c0.003,0,0.008,0.001,0.012,0.001c0.006,0,0.012,0,0.016,0l10.833,0.765l-3.006,42.62l-21.697-1.53l3.006-42.62L339.557,73.81z
	 M324.085,138.777l21.697,1.53l-7.114,100.866h-21.806L324.085,138.777z M166.154,154.187l9.755-29.84l13.463,28.358l5.638,88.467
	h-23.312L166.154,154.187z M172.146,488.833l-1.206-19.536h93.633c6.397,0,11.584-5.187,11.584-11.584
	c0-6.397-5.187-11.584-11.584-11.584H169.51l-11.225-181.788h2.392c0.047,0,0.093,0.007,0.14,0.007c0.071,0,0.142-0.006,0.213-0.007
	h192.683l-11.225,181.788h-31.581c-6.397,0-11.584,5.187-11.584,11.584c0,6.397,5.187,11.584,11.584,11.584h30.15l-1.206,19.536
	H172.146z"/>
<g>
</g>
<g>
</g>
<g>
</g>
<g>
</g>
<g>
</g>
<g>
</g>
<g>
</g>
<g>
</g>
<g>
</g>
<g>
</g>
<g>
</g>
<g>
</g>
<g>
</g>
<g>
</g>
<g>
</g>
</svg>
