<?xml version="1.0" encoding="iso-8859-1"?>
<!-- Generator: Adobe Illustrator 19.0.0, SVG Export Plug-In . SVG Version: 6.00 Build 0)  -->
<svg version="1.1" id="Layer_1" xmlns="http://www.w3.org/2000/svg" xmlns:xlink="http://www.w3.org/1999/xlink" x="0px" y="0px"
	 viewBox="0 0 512 512" style="enable-background:new 0 0 512 512;" xml:space="preserve">
<g>
	<path style="fill:#3B8BC0;" d="M270.265,62.371c-4.018-9.457-15.641-17.195-25.831-17.195h-93.432
		c-10.189,0-21.96,7.672-26.158,17.049l-23.487,52.453l95.566,23.167l95.566-23.167L270.265,62.371z"/>
	<path style="fill:#3B8BC0;" d="M419.33,79.928h-23.167c-19.193,0-34.751,15.558-34.751,34.751l46.335,23.167l46.335-23.167
		C454.081,95.486,438.523,79.928,419.33,79.928z"/>
</g>
<path style="fill:#4EB9FF;" d="M57.919,114.679c-25.484,0-46.335,20.851-46.335,46.335v259.475
	c0,25.484,20.851,46.335,46.335,46.335h396.163c25.484,0,46.335-20.851,46.335-46.335V161.014c0-25.484-20.851-46.335-46.335-46.335
	H57.919z"/>
<circle style="fill:#174461;" cx="196.923" cy="290.751" r="116.995"/>
<circle style="fill:#C2E7FF;" cx="196.923" cy="290.751" r="82.244"/>
<rect x="361.412" y="161.014" style="fill:#FFD86C;" width="92.67" height="55.602"/>
<g>
	<path style="fill:#01121C;" d="M457.004,103.139c-5.267-17.83-21.604-30.596-41.136-30.596h-28.886
		c-19.51,0-35.842,12.748-41.133,30.556h-44.01l-19.194-44.729c-5.878-13.695-21.55-24.023-36.454-24.023h-93.354
		c-14.812,0-30.586,10.177-36.691,23.675l-20.387,45.078H56.612C25.396,103.099,0,128.509,0,159.742v261.269
		c0,31.233,25.396,56.643,56.612,56.643h398.79c31.208,0,56.598-25.411,56.598-56.643V159.742
		C512,129.047,487.473,103.993,457.004,103.139z M386.982,95.71h28.886c6.13,0,11.665,2.898,15.31,7.388h-59.509
		C375.318,98.609,380.854,95.71,386.982,95.71z M488.833,421.011c0,18.46-14.996,33.476-33.431,33.476H56.612
		c-18.441,0-33.444-15.017-33.444-33.476V159.742c0-18.46,15.003-33.476,33.444-33.476h69.757c6.397,0,11.584-5.187,11.584-11.584
		c0-6.397-5.187-11.584-11.584-11.584h-5.184l16.069-35.531c2.339-5.169,9.911-10.056,15.582-10.056h93.354
		c5.589,0,12.96,4.856,15.164,9.993l15.274,35.593H166.954c-6.397,0-11.584,5.187-11.584,11.584c0,6.397,5.187,11.584,11.584,11.584
		h127.21c0.015,0,0.031,0.003,0.046,0.003c0.023,0,0.045-0.003,0.068-0.003h161.124c18.434,0,33.431,15.017,33.431,33.476V421.011z"
		/>
	<path style="fill:#01121C;" d="M199.546,158.491c-70.817,0-128.431,57.627-128.431,128.46c0,70.792,57.614,128.386,128.431,128.386
		c70.801,0,128.402-57.594,128.402-128.386C327.946,216.117,270.346,158.491,199.546,158.491z M199.546,392.17
		c-58.042,0-105.263-47.2-105.263-105.218c0-58.059,47.221-105.292,105.263-105.292c58.026,0,105.235,47.234,105.235,105.292
		C304.779,344.97,257.571,392.17,199.546,392.17z"/>
	<path style="fill:#01121C;" d="M199.547,192.913c-51.845,0-94.025,42.186-94.025,94.04c0,51.819,42.18,93.977,94.025,93.977
		c51.819,0,93.977-42.159,93.977-93.978C293.524,235.098,251.365,192.913,199.547,192.913z M199.547,357.763
		c-39.071,0-70.858-31.765-70.858-70.81c0-39.079,31.786-70.873,70.858-70.873c39.045,0,70.81,31.793,70.81,70.873
		C270.357,325.998,238.592,357.763,199.547,357.763z"/>
	<path style="fill:#01121C;" d="M235.961,275.359c-6.397,0-11.584,5.187-11.584,11.584c0,13.69-11.142,24.829-24.839,24.829
		c-13.715,0-24.874-11.138-24.874-24.829c0-13.722,11.159-24.884,24.874-24.884c6.397,0,11.584-5.187,11.584-11.584
		s-5.187-11.584-11.584-11.584c-26.49,0-48.041,21.556-48.041,48.052c0,26.465,21.55,47.996,48.041,47.996
		c26.471,0,48.006-21.531,48.006-47.996C247.545,280.545,242.359,275.359,235.961,275.359z"/>
	<path style="fill:#01121C;" d="M447.203,152.758h-91.572c-6.397,0-11.584,5.187-11.584,11.584v56.655
		c0,6.397,5.187,11.584,11.584,11.584h91.572c6.397,0,11.584-5.187,11.584-11.584v-56.655
		C458.787,157.945,453.6,152.758,447.203,152.758z M435.619,209.413h-68.404v-33.487h68.404V209.413z"/>
</g>
<g>
</g>
<g>
</g>
<g>
</g>
<g>
</g>
<g>
</g>
<g>
</g>
<g>
</g>
<g>
</g>
<g>
</g>
<g>
</g>
<g>
</g>
<g>
</g>
<g>
</g>
<g>
</g>
<g>
</g>
</svg>
