<?xml version="1.0" encoding="iso-8859-1"?>
<!-- Generator: Adobe Illustrator 19.0.0, SVG Export Plug-In . SVG Version: 6.00 Build 0)  -->
<svg version="1.1" id="Layer_1" xmlns="http://www.w3.org/2000/svg" xmlns:xlink="http://www.w3.org/1999/xlink" x="0px" y="0px"
	 viewBox="0 0 512 512" style="enable-background:new 0 0 512 512;" xml:space="preserve">
<rect x="45.724" y="442.069" style="fill:#174461;" width="420.547" height="58.347"/>
<path style="fill:#FF755C;" d="M320.928,76.512c0-35.859-29.069-64.928-64.928-64.928s-64.928,29.069-64.928,64.928
	c0,58.985,51.015,154.946,0,199.352L256,310.615l64.928-34.751C269.913,231.459,320.928,135.497,320.928,76.512z"/>
<rect x="191.073" y="275.866" style="fill:#FF9356;" width="129.853" height="92.322"/>
<path style="fill:#FFCE47;" d="M320.928,345.023H191.072c-20.991,0-38.008,17.016-38.008,38.008L256,417.783l102.936-34.751
	C358.936,362.04,341.92,345.023,320.928,345.023z"/>
<rect x="11.584" y="383.027" style="fill:#FF9356;" width="488.833" height="82.208"/>
<path style="fill:#01121C;" d="M500.416,371.448H369.14c-4.338-18.054-18.573-32.29-36.629-36.629v-58.955
	c0-0.415-0.024-0.822-0.066-1.226c-0.008-0.076-0.025-0.152-0.035-0.228c-0.042-0.329-0.09-0.656-0.159-0.975
	c-0.019-0.086-0.045-0.169-0.065-0.254c-0.073-0.307-0.153-0.61-0.249-0.908c-0.032-0.097-0.072-0.192-0.107-0.29
	c-0.098-0.277-0.203-0.55-0.321-0.817c-0.05-0.114-0.107-0.222-0.161-0.334c-0.117-0.241-0.237-0.48-0.371-0.712
	c-0.072-0.125-0.147-0.246-0.224-0.368c-0.131-0.21-0.265-0.415-0.408-0.615c-0.092-0.129-0.186-0.255-0.284-0.38
	c-0.145-0.185-0.294-0.365-0.449-0.542c-0.108-0.123-0.217-0.244-0.33-0.363c-0.166-0.173-0.338-0.337-0.514-0.499
	c-0.081-0.074-0.153-0.156-0.235-0.228c-29.427-25.615-18.022-75.046-6.992-122.851c5.641-24.452,10.971-47.549,10.971-67.764
	C332.512,34.323,298.189,0,256,0s-76.512,34.323-76.512,76.512c0,20.215,5.33,43.311,10.971,67.764
	c11.029,47.805,22.435,97.236-6.992,122.851c-0.083,0.073-0.155,0.154-0.235,0.228c-0.176,0.162-0.35,0.327-0.514,0.499
	c-0.114,0.118-0.221,0.24-0.33,0.363c-0.155,0.176-0.305,0.356-0.449,0.542c-0.097,0.125-0.192,0.251-0.284,0.38
	c-0.142,0.2-0.278,0.405-0.408,0.615c-0.076,0.122-0.152,0.243-0.224,0.368c-0.133,0.232-0.254,0.47-0.371,0.712
	c-0.053,0.111-0.11,0.22-0.161,0.334c-0.118,0.266-0.222,0.54-0.321,0.817c-0.035,0.097-0.074,0.192-0.107,0.29
	c-0.096,0.297-0.176,0.601-0.249,0.908c-0.02,0.085-0.048,0.168-0.065,0.254c-0.068,0.32-0.117,0.646-0.159,0.975
	c-0.009,0.076-0.027,0.152-0.035,0.228c-0.043,0.403-0.066,0.812-0.066,1.226v58.955c-18.056,4.338-32.291,18.573-36.629,36.629
	H11.584C5.187,371.449,0,376.635,0,383.033v82.207c0,6.398,5.187,11.584,11.584,11.584h22.557v23.593
	c0,6.398,5.187,11.584,11.584,11.584h420.552c6.397,0,11.584-5.186,11.584-11.584v-23.594h22.556
	c6.397,0,11.584-5.186,11.584-11.584v-82.207C512,376.634,506.813,371.448,500.416,371.448z M256,23.167
	c29.415,0,53.344,23.93,53.344,53.344c0,17.576-5.041,39.424-10.378,62.556c-9.882,42.83-20.843,90.371-1.988,125.213h-2.759
	c-6.397,0-11.584,5.186-11.584,11.584c0,6.398,5.187,11.584,11.584,11.584h15.126v45.992H202.657v-45.992h45.227
	c6.397,0,11.584-5.186,11.584-11.584c0-6.398-5.187-11.584-11.584-11.584h-32.862c18.855-34.841,7.893-82.383-1.988-125.213
	c-5.337-23.132-10.378-44.98-10.378-62.556C202.656,47.097,226.585,23.167,256,23.167z M191.072,356.607h129.856
	c10.418,0,19.444,6.062,23.745,14.841H167.328C171.628,362.667,180.655,356.607,191.072,356.607z M454.692,488.833H57.308v-12.01
	h397.385v12.01H454.692z M488.833,453.655H23.167v-59.04h465.665V453.655z"/>
<g>
</g>
<g>
</g>
<g>
</g>
<g>
</g>
<g>
</g>
<g>
</g>
<g>
</g>
<g>
</g>
<g>
</g>
<g>
</g>
<g>
</g>
<g>
</g>
<g>
</g>
<g>
</g>
<g>
</g>
</svg>
