<?xml version="1.0" encoding="iso-8859-1"?>
<!-- Generator: Adobe Illustrator 19.0.0, SVG Export Plug-In . SVG Version: 6.00 Build 0)  -->
<svg version="1.1" id="Layer_1" xmlns="http://www.w3.org/2000/svg" xmlns:xlink="http://www.w3.org/1999/xlink" x="0px" y="0px"
	 viewBox="0 0 512 512" style="enable-background:new 0 0 512 512;" xml:space="preserve">
<path style="fill:#3B8BC0;" d="M477.249,34.751c12.8,0,23.167,10.367,23.167,23.167s-10.367,23.167-23.167,23.167H98.079V34.751
	H477.249z"/>
<path style="fill:#174461;" d="M477.249,81.086v136.78c0,10.877-8.815,19.692-19.692,19.692l-52.636-0.093
	c-34.554,0-62.575,28.021-62.575,62.587v157.504c0,10.877-8.815,19.692-19.692,19.692H98.079V81.086H477.249z"/>
<path style="fill:#FF4181;" d="M89.971,11.584H57.536c-10.877,0-19.692,8.815-19.692,19.692v449.448
	c0,10.877,8.815,19.692,19.692,19.692h32.434c10.877,0,19.692-8.815,19.692-19.692V31.276
	C109.663,20.399,100.848,11.584,89.971,11.584z"/>
<path style="fill:#01121C;" d="M477.249,23.167H120.171C116.589,9.842,104.407,0,89.967,0H57.533
	C40.287,0,26.257,14.03,26.257,31.276v38.226H11.584C5.186,69.502,0,74.688,0,81.086C0,87.484,5.186,92.67,11.584,92.67h14.673
	v257.158H11.584C5.186,349.828,0,355.014,0,361.412c0,6.398,5.186,11.584,11.584,11.584h14.673v46.335H11.584
	C5.186,419.33,0,424.516,0,430.914c0,6.398,5.186,11.584,11.584,11.584h14.673v38.226c0,17.246,14.03,31.276,31.276,31.276h32.434
	c14.441,0,26.623-9.841,30.203-23.167h202.479c17.246,0,31.276-14.03,31.276-31.276V300.051c0-28.122,22.879-51.001,50.98-51.001
	l52.651,0.096c17.246,0,31.276-14.03,31.276-31.276V90.684C502.317,85.904,512,73.02,512,57.919
	C512,38.757,496.411,23.167,477.249,23.167z M98.076,480.724c0,4.471-3.637,8.109-8.109,8.109H57.533
	c-4.471,0-8.109-3.637-8.109-8.109V31.276c0-4.471,3.637-8.109,8.109-8.109h32.434c4.471,0,8.109,3.637,8.109,8.109V480.724z
	 M477.249,69.502H217.388c-6.398,0-11.584,5.186-11.584,11.584c0,6.398,5.186,11.584,11.584,11.584h248.277v125.2
	c0,4.471-3.637,8.109-8.088,8.109l-52.651-0.096c-40.896,0-74.168,33.272-74.168,74.168v157.506c0,4.471-3.637,8.109-8.109,8.109
	H121.243V92.67h49.81c6.398,0,11.584-5.186,11.584-11.584c0-6.398-5.186-11.584-11.584-11.584h-49.81V46.335h356.006
	c6.387,0,11.584,5.196,11.584,11.584C488.833,64.306,483.636,69.502,477.249,69.502z"/>
<g>
</g>
<g>
</g>
<g>
</g>
<g>
</g>
<g>
</g>
<g>
</g>
<g>
</g>
<g>
</g>
<g>
</g>
<g>
</g>
<g>
</g>
<g>
</g>
<g>
</g>
<g>
</g>
<g>
</g>
</svg>
