<?xml version="1.0" encoding="iso-8859-1"?>
<!-- Generator: Adobe Illustrator 19.0.0, SVG Export Plug-In . SVG Version: 6.00 Build 0)  -->
<svg version="1.1" id="Layer_1" xmlns="http://www.w3.org/2000/svg" xmlns:xlink="http://www.w3.org/1999/xlink" x="0px" y="0px"
	 viewBox="0 0 512 512" style="enable-background:new 0 0 512 512;" xml:space="preserve">
<path style="fill:#3B8BC0;" d="M176.072,32.434H46.335c-19.193,0-34.751,15.558-34.751,34.751v34.751l165.647,23.167l165.647-23.167
	C251.367,32.476,242.1,32.434,176.072,32.434z"/>
<polygon style="fill:#4EB9FF;" points="11.584,157.538 11.584,379.946 500.416,379.946 500.416,157.538 256,134.371 "/>
<path style="fill:#174461;" d="M500.416,136.688c0-19.113-15.638-34.751-34.751-34.751H11.584v55.602h488.833V136.688z"/>
<polygon style="fill:#FFCE47;" points="403.692,479.566 108.308,479.566 108.308,305.81 256,282.643 403.692,305.81 "/>
<path style="fill:#FFFFFF;" d="M368.941,246.432H143.059c-19.113,0-34.751,15.638-34.751,34.751v23.167h295.385v-23.167
	C403.692,262.07,388.054,246.432,368.941,246.432z"/>
<g>
	<path style="fill:#01121C;" d="M465.893,90.184H346.772c-11.488-8.699-21.796-16.384-31.174-23.145h103.877
		c6.397,0,11.584-5.187,11.584-11.584s-5.187-11.584-11.584-11.584H281.09c-9.772-5.872-18.541-10.349-26.921-13.655
		c-24.058-9.491-44.398-9.491-78.097-9.491H46.107C20.683,20.726,0,41.407,0,66.83v34.938v277.788
		c0,6.397,5.187,11.584,11.584,11.584h85.078v88.552c0,6.397,5.187,11.584,11.584,11.584h295.509
		c6.397,0,11.584-5.187,11.584-11.584v-88.552h85.079c6.397,0,11.584-5.187,11.584-11.584V136.29
		C512,110.868,491.317,90.184,465.893,90.184z M488.833,136.29v9.538H23.167v-32.477h319.673c0.009,0,0.019,0.001,0.029,0.001
		c0.007,0,0.013-0.001,0.02-0.001h123.005C478.542,113.351,488.833,123.642,488.833,136.29z M46.107,43.893h129.966
		c43.488,0,60.777,0.001,94.357,20.436c0.854,0.717,1.812,1.311,2.848,1.76c9.852,6.161,21.133,14.038,34.821,24.096H23.167V66.83
		C23.167,54.182,33.458,43.893,46.107,43.893z M392.171,294.783H119.829v-13.271c0-12.648,10.291-22.939,22.939-22.939h226.464
		c12.648,0,22.939,10.291,22.939,22.939L392.171,294.783L392.171,294.783z M392.171,468.107H119.829V317.951H392.17v150.156H392.171
		z M415.339,367.972v-61.604v-24.855c0-25.423-20.683-46.107-46.107-46.107H142.768c-25.423,0-46.107,20.683-46.107,46.107v24.855
		v61.604H23.167V168.997h465.665v198.975H415.339z"/>
	<path style="fill:#01121C;" d="M348.519,410.333H163.481c-6.397,0-11.584,5.187-11.584,11.584c0,6.397,5.187,11.584,11.584,11.584
		h185.038c6.397,0,11.584-5.187,11.584-11.584C360.103,415.52,354.917,410.333,348.519,410.333z"/>
	<path style="fill:#01121C;" d="M348.519,352.558H256c-6.397,0-11.584,5.187-11.584,11.584c0,6.397,5.187,11.584,11.584,11.584
		h92.519c6.397,0,11.584-5.187,11.584-11.584C360.103,357.746,354.917,352.558,348.519,352.558z"/>
	<path style="fill:#01121C;" d="M454.081,193.425h-34.606c-6.397,0-11.584,5.187-11.584,11.584s5.187,11.584,11.584,11.584h34.606
		c6.397,0,11.584-5.187,11.584-11.584S460.478,193.425,454.081,193.425z"/>
</g>
<g>
</g>
<g>
</g>
<g>
</g>
<g>
</g>
<g>
</g>
<g>
</g>
<g>
</g>
<g>
</g>
<g>
</g>
<g>
</g>
<g>
</g>
<g>
</g>
<g>
</g>
<g>
</g>
<g>
</g>
</svg>
