<?xml version="1.0" encoding="iso-8859-1"?>
<!-- Generator: Adobe Illustrator 19.0.0, SVG Export Plug-In . SVG Version: 6.00 Build 0)  -->
<svg version="1.1" id="Layer_1" xmlns="http://www.w3.org/2000/svg" xmlns:xlink="http://www.w3.org/1999/xlink" x="0px" y="0px"
	 viewBox="0 0 512 512" style="enable-background:new 0 0 512 512;" xml:space="preserve">
<path style="fill:#4EB9FF;" d="M378.208,162.808h122.208V86.935c0-25.484-20.851-46.335-46.335-46.335H57.919
	c-25.484,0-46.335,20.851-46.335,46.335v75.873h122.208H378.208z"/>
<polygon style="fill:#FFCE47;" points="133.792,101.706 133.792,370.563 256,370.563 378.208,248.355 378.208,101.706 "/>
<path style="fill:#FFEBB4;" d="M378.208,248.355c0,67.498-54.71,122.208-122.208,122.208c23.862-23.862,35.794-55.138,35.794-86.414
	C323.07,284.149,354.346,272.218,378.208,248.355z"/>
<g>
	<path style="fill:#01121C;" d="M458.715,74.772c-6.707,0-12.163,5.456-12.163,12.163s5.456,12.163,12.163,12.163
		c6.707,0,12.163-5.456,12.163-12.163S465.422,74.772,458.715,74.772z"/>
	<path style="fill:#01121C;" d="M458.715,115.894c-6.707,0-12.163,5.456-12.163,12.163s5.456,12.163,12.163,12.163
		c6.707,0,12.163-5.456,12.163-12.163S465.422,115.894,458.715,115.894z"/>
	<path style="fill:#01121C;" d="M454.081,34.808H57.919C25.982,34.808,0,60.791,0,92.727V168.6c0,6.398,5.187,11.584,11.584,11.584
		h30.118v273.84H18.534c-6.397,0-11.584,5.186-11.584,11.584s5.187,11.584,11.584,11.584h69.502c6.397,0,11.584-5.186,11.584-11.584
		s-5.187-11.584-11.584-11.584H64.869v-273.84h57.339v196.17c0,6.398,5.187,11.584,11.584,11.584H256
		c73.773,0,133.792-60.019,133.792-133.792v-73.962h57.339v273.84h-23.167c-6.397,0-11.584,5.186-11.584,11.584
		c0,6.398,5.187,11.584,11.584,11.584h69.502c6.397,0,11.584-5.186,11.584-11.584c0-6.398-5.187-11.584-11.584-11.584h-23.167
		v-273.84h30.118c6.397,0,11.584-5.186,11.584-11.584V92.727C512,60.791,486.018,34.808,454.081,34.808z M251.054,364.77H145.376
		V119.08h221.249V249.2c-20.463,18.834-46.851,29.156-74.831,29.156c-6.397,0-11.584,5.186-11.584,11.584
		C280.21,317.919,269.889,344.308,251.054,364.77z M282.676,361.52c11.525-18.13,18.474-38.761,20.247-60.45
		c21.687-1.775,42.319-8.723,60.45-20.247C353.531,320.432,322.284,351.675,282.676,361.52z M488.833,157.017h-99.041V119.08h23.167
		c6.397,0,11.584-5.186,11.584-11.584s-5.187-11.584-11.584-11.584H99.041c-6.397,0-11.584,5.186-11.584,11.584
		s5.187,11.584,11.584,11.584h23.167v37.937H23.167v-64.29c0-19.162,15.589-34.751,34.751-34.751h396.163
		c19.162,0,34.751,15.589,34.751,34.751V157.017z"/>
</g>
<g>
</g>
<g>
</g>
<g>
</g>
<g>
</g>
<g>
</g>
<g>
</g>
<g>
</g>
<g>
</g>
<g>
</g>
<g>
</g>
<g>
</g>
<g>
</g>
<g>
</g>
<g>
</g>
<g>
</g>
</svg>
