<?xml version="1.0" encoding="iso-8859-1"?>
<!-- Generator: Adobe Illustrator 19.0.0, SVG Export Plug-In . SVG Version: 6.00 Build 0)  -->
<svg version="1.1" id="Layer_1" xmlns="http://www.w3.org/2000/svg" xmlns:xlink="http://www.w3.org/1999/xlink" x="0px" y="0px"
	 viewBox="0 0 512 512" style="enable-background:new 0 0 512 512;" xml:space="preserve">
<rect x="108.25" y="74.217" style="fill:#174461;" width="295.512" height="155.291"/>
<rect x="85.082" y="306.679" style="fill:#3B8BC0;" width="341.835" height="117.297"/>
<path style="fill:#4EB9FF;" d="M500.416,229.278v208.507H403.75v-13.808v-59.378h-295.5v59.378v13.808H11.584V229.278
	c0-19.067,15.453-34.531,34.519-34.531h419.794C484.964,194.747,500.416,210.211,500.416,229.278z"/>
<path style="fill:#FFFFFF;" d="M403.75,339.74v24.859h-295.5V339.74c0-19.067,15.453-34.519,34.519-34.519h226.462
	C388.298,305.22,403.75,320.673,403.75,339.74z"/>
<g>
	<path style="fill:#01121C;" d="M465.895,183.167h-50.556V74.213c0-6.397-5.186-11.584-11.584-11.584h-295.51
		c-6.398,0-11.584,5.187-11.584,11.584v108.953H46.105C20.683,183.167,0,203.849,0,229.273v208.514
		c0,6.397,5.186,11.584,11.584,11.584h96.661c6.398,0,11.584-5.187,11.584-11.584v-2.225H392.17v2.225
		c0,6.397,5.186,11.584,11.584,11.584h96.663c6.398,0,11.584-5.187,11.584-11.584V229.273
		C512,203.849,491.317,183.167,465.895,183.167z M119.829,85.797H392.17v97.369h-50.71v-50.629c0-6.398-5.186-11.584-11.584-11.584
		s-11.584,5.186-11.584,11.584v50.629h-50.709v-50.629c0-6.398-5.186-11.584-11.584-11.584c-6.398,0-11.584,5.186-11.584,11.584
		v50.629h-50.71v-50.629c0-6.398-5.186-11.584-11.584-11.584c-6.398,0-11.584,5.186-11.584,11.584v50.629h-50.71
		C119.829,183.166,119.829,85.797,119.829,85.797z M392.171,353.016H119.829v-13.273c0-12.648,10.29-22.938,22.938-22.938h226.465
		c12.648,0,22.938,10.29,22.938,22.938v13.273H392.171z M119.829,412.394v-36.211H392.17v36.211H119.829z M488.833,426.203h-73.494
		v-86.46c0-25.423-20.683-46.105-46.105-46.105H142.768c-25.423,0-46.105,20.683-46.105,46.105v86.46H23.167v-196.93
		c0-12.648,10.29-22.938,22.938-22.938h419.789c12.648,0,22.938,10.29,22.938,22.938V426.203z"/>
	<path style="fill:#01121C;" d="M441.807,238.513c-6.707,0-12.163,5.456-12.163,12.163c0,6.707,5.456,12.163,12.163,12.163
		c6.707,0,12.163-5.456,12.163-12.163C453.97,243.969,448.513,238.513,441.807,238.513z"/>
	<path style="fill:#01121C;" d="M395.473,238.513c-6.707,0-12.163,5.456-12.163,12.163c0,6.707,5.456,12.163,12.163,12.163
		c6.707,0,12.163-5.456,12.163-12.163C407.635,243.969,402.178,238.513,395.473,238.513z"/>
</g>
<g>
</g>
<g>
</g>
<g>
</g>
<g>
</g>
<g>
</g>
<g>
</g>
<g>
</g>
<g>
</g>
<g>
</g>
<g>
</g>
<g>
</g>
<g>
</g>
<g>
</g>
<g>
</g>
<g>
</g>
</svg>
