<?xml version="1.0" encoding="iso-8859-1"?>
<!-- Generator: Adobe Illustrator 19.0.0, SVG Export Plug-In . SVG Version: 6.00 Build 0)  -->
<svg version="1.1" id="Layer_1" xmlns="http://www.w3.org/2000/svg" xmlns:xlink="http://www.w3.org/1999/xlink" x="0px" y="0px"
	 viewBox="0 0 512 512" style="enable-background:new 0 0 512 512;" xml:space="preserve">
<polygon style="fill:#4EB9FF;" points="488.832,452.921 488.832,362.568 384.591,359.095 373.003,407.747 384.579,456.398 "/>
<path style="fill:#3B8BC0;" d="M331.294,315.077v185.339c22.477-0.008,42.201-17.728,53.272-44.022l0.013-97.303
	C373.469,332.801,353.813,315.043,331.294,315.077z"/>
<polygon style="fill:#FFCE47;" points="488.832,149.428 488.832,59.075 384.591,55.602 373.003,104.253 384.579,152.905 "/>
<path style="fill:#FFB14E;" d="M331.294,11.584v185.339c22.477-0.008,42.201-17.728,53.272-44.022l0.013-97.303
	C373.469,29.308,353.813,11.55,331.294,11.584z"/>
<polygon style="fill:#FF80AB;" points="25.484,210.827 25.484,301.18 129.724,304.653 141.313,256.001 129.737,207.35 "/>
<path style="fill:#FF4181;" d="M183.022,163.331c-22.477,0.008-42.201,17.728-53.272,44.022l-0.013,97.303
	c11.11,26.29,30.765,44.048,53.285,44.015V163.331z"/>
<g>
	<path style="fill:#01121C;" d="M494.978,452.923v-99.996c0-6.397-5.187-11.584-11.584-11.584c-5.715,0-10.453,4.143-11.401,9.588
		l-85.139-2.748c-13.782-27.61-36.033-43.865-60.601-43.874c-0.002,0-0.003,0-0.005,0c-3.071,0-6.017,1.22-8.189,3.392
		c-2.174,2.172-3.395,5.119-3.395,8.192l-0.002,80.678H167.288c-6.398,0-11.584,5.187-11.584,11.584s5.186,11.584,11.584,11.584
		h147.374l-0.001,80.678c0,6.391,5.176,11.573,11.566,11.584c0.028,0,0.054,0,0.083,0c24.5-0.001,46.73-16.248,60.548-43.865
		l85.138-2.743c0.953,5.439,5.688,9.575,11.398,9.575c6.397,0,11.584-5.187,11.584-11.584v-9.703
		c0.005-0.206,0.019-0.411,0.012-0.62C494.988,453.013,494.98,452.969,494.978,452.923z M378.964,445.21
		c-4.515,0.146-8.535,2.904-10.296,7.066c-7.433,17.574-18.486,29.708-30.842,34.398l0.005-156.947
		c11.834,4.611,22.633,16.093,29.91,32.253l0.012,52.899c0.001,6.397,5.188,11.581,11.584,11.581c0.001,0,0.002,0,0.002,0
		c6.398-0.001,11.583-5.188,11.581-11.586l-0.009-43.38l80.899,2.612v68.112L378.964,445.21z"/>
	<path style="fill:#01121C;" d="M167.288,115.428h147.374l-0.002,80.678c0,6.391,5.176,11.573,11.566,11.584
		c0.028,0,0.054,0,0.083,0c24.5-0.001,46.73-16.248,60.548-43.865l85.138-2.743c0.953,5.439,5.688,9.575,11.398,9.575
		c6.397,0,11.584-5.187,11.584-11.584v-9.703c0.005-0.206,0.019-0.411,0.012-0.62c-0.001-0.046-0.009-0.09-0.012-0.137V48.618
		c0-6.397-5.187-11.584-11.584-11.584c-5.715,0-10.453,4.143-11.401,9.588l-85.139-2.748C373.071,16.265,350.82,0.009,326.252,0
		c-0.002,0-0.003,0-0.005,0c-3.071,0-6.017,1.22-8.189,3.392c-2.174,2.172-3.395,5.119-3.395,8.192l-0.002,80.677H167.288
		c-6.398,0-11.584,5.187-11.584,11.584S160.891,115.428,167.288,115.428z M367.742,57.67l0.012,52.898
		c0.001,6.397,5.187,11.581,11.584,11.581c0.001,0,0.002,0,0.002,0c6.398-0.001,11.583-5.188,11.581-11.586l-0.009-43.379
		l80.899,2.612v68.112l-92.846,2.992c-4.515,0.146-8.535,2.904-10.296,7.066c-7.433,17.574-18.486,29.708-30.842,34.398
		l0.005-156.947C349.667,30.028,360.466,41.51,367.742,57.67z"/>
	<path style="fill:#01121C;" d="M185.773,359.845c6.391-0.01,11.565-5.193,11.565-11.584l-0.001-80.677H344.71
		c6.397,0,11.584-5.187,11.584-11.584c0-6.397-5.187-11.584-11.584-11.584H197.336l-0.002-80.677c0-3.073-1.221-6.02-3.394-8.192
		c-2.172-2.172-5.118-3.392-8.19-3.392c-0.001,0-0.002,0-0.003,0c-24.569,0.009-46.819,16.265-60.603,43.873l-85.139,2.748
		c-0.948-5.444-5.684-9.588-11.4-9.588c-6.398,0-11.584,5.187-11.584,11.584v99.996c-0.002,0.046-0.009,0.09-0.012,0.137
		c-0.007,0.21,0.007,0.415,0.012,0.622v9.701c0,6.397,5.186,11.584,11.584,11.584c5.712,0,10.446-4.138,11.398-9.576l85.138,2.744
		c13.819,27.619,36.044,43.866,60.547,43.864C185.714,359.845,185.745,359.845,185.773,359.845z M143.329,300.121
		c-1.761-4.162-5.779-6.92-10.296-7.066l-92.846-2.993V221.95l80.899-2.611l-0.009,43.379c-0.001,6.397,5.184,11.585,11.581,11.586
		c0.001,0,0.001,0,0.002,0c6.395,0,11.583-5.185,11.584-11.581l0.012-52.897c7.276-16.16,18.076-27.642,29.91-32.254l0.003,156.945
		C161.817,329.826,150.761,317.694,143.329,300.121z"/>
</g>
<g>
</g>
<g>
</g>
<g>
</g>
<g>
</g>
<g>
</g>
<g>
</g>
<g>
</g>
<g>
</g>
<g>
</g>
<g>
</g>
<g>
</g>
<g>
</g>
<g>
</g>
<g>
</g>
<g>
</g>
</svg>
