<?xml version="1.0" encoding="iso-8859-1"?>
<!-- Generator: Adobe Illustrator 19.0.0, SVG Export Plug-In . SVG Version: 6.00 Build 0)  -->
<svg version="1.1" id="Layer_1" xmlns="http://www.w3.org/2000/svg" xmlns:xlink="http://www.w3.org/1999/xlink" x="0px" y="0px"
	 viewBox="0 0 512.001 512.001" style="enable-background:new 0 0 512.001 512.001;" xml:space="preserve">
<g>
	<polygon style="fill:#4EB9FF;" points="97.012,122.546 131.763,209.667 97.012,311.418 5.791,263.415 5.791,122.546 	"/>
	<path style="fill:#4EB9FF;" d="M303.884,5.795v102.979L97.012,74.022V47.612c0-23.098,18.719-41.817,41.817-41.817
		C138.829,5.795,303.884,5.795,303.884,5.795z"/>
</g>
<polygon style="fill:#9AD7FF;" points="383.29,74.416 383.29,122.546 240.151,168.881 97.012,122.546 97.012,74.416 "/>
<polygon style="fill:#174461;" points="97.012,122.546 97.012,473.635 199.863,473.635 383.29,311.418 383.29,122.546 "/>
<polygon style="fill:#4EB9FF;" points="383.29,311.418 383.29,365.49 291.577,388.658 199.863,365.49 199.863,311.418 "/>
<polygon style="fill:#C2E7FF;" points="383.29,419.563 383.29,473.635 199.863,473.635 199.863,419.563 291.577,396.395 "/>
<rect x="199.864" y="365.489" style="fill:#9AD7FF;" width="183.427" height="54.073"/>
<path style="fill:#01121C;" d="M494.685,192.449l-94.02,53.505V198.43l105.48-60.025c5.56-3.163,7.503-10.236,4.338-15.797
	c-3.165-5.561-10.236-7.503-15.798-4.338l-94.02,53.504V80.202c0-6.398-5.187-11.584-11.584-11.584h-67.818V11.586
	c0-6.398-5.187-11.584-11.584-11.584H144.617c-29.444,0-53.401,23.955-53.401,53.399v26.41c0,0.066,0.009,0.13,0.01,0.195
	c-0.001,0.066-0.01,0.129-0.01,0.195v36.55H11.584C5.187,116.751,0,121.937,0,128.335v140.875c0,4.301,2.384,8.249,6.19,10.252
	l85.026,44.741v155.224c0,6.398,5.187,11.584,11.584,11.584v9.405c0,6.398,5.187,11.584,11.584,11.584s11.584-5.186,11.584-11.584
	v-9.405h239.946v9.405c0,6.398,5.187,11.584,11.584,11.584c6.396,0,11.584-5.186,11.584-11.584v-9.405
	c6.397,0,11.584-5.186,11.584-11.584V272.609l105.48-60.025c5.56-3.163,7.503-10.236,4.338-15.797
	C507.317,191.226,500.245,189.284,494.685,192.449z M377.497,467.845H217.243v-30.905h160.254V467.845z M217.243,413.771v-30.905
	h160.254v30.905H217.243z M217.243,359.698v-30.905h160.254v30.905H217.243z M114.384,53.402c0-16.67,13.562-30.232,30.233-30.232
	h153.479v45.058H114.384V53.402z M114.384,91.786h263.114v24.966h-30.539c-6.396,0-11.584,5.186-11.584,11.584
	s5.187,11.584,11.584,11.584h30.539v165.705H205.66c-6.396,0-11.584,5.186-11.584,11.584v150.635h-79.692V317.108
	c0-0.022,0-0.044,0-0.066V139.919h186.239c6.397,0,11.584-5.186,11.584-11.584s-5.187-11.584-11.584-11.584H114.384V91.786z
	 M23.167,262.217V139.919h68.049v158.104L23.167,262.217z"/>
<g>
</g>
<g>
</g>
<g>
</g>
<g>
</g>
<g>
</g>
<g>
</g>
<g>
</g>
<g>
</g>
<g>
</g>
<g>
</g>
<g>
</g>
<g>
</g>
<g>
</g>
<g>
</g>
<g>
</g>
</svg>
