<?xml version="1.0" encoding="iso-8859-1"?>
<!-- Generator: Adobe Illustrator 19.0.0, SVG Export Plug-In . SVG Version: 6.00 Build 0)  -->
<svg version="1.1" id="Layer_1" xmlns="http://www.w3.org/2000/svg" xmlns:xlink="http://www.w3.org/1999/xlink" x="0px" y="0px"
	 viewBox="0 0 512 512" style="enable-background:new 0 0 512 512;" xml:space="preserve">
<polygon style="fill:#9AD7FF;" points="478.832,493.059 37.945,493.059 37.945,437.572 478.832,403.033 "/>
<path d="M442.116,392.823c-6.666,0-12.089-5.423-12.089-12.089s5.423-12.089,12.089-12.089c6.666,0,12.089,5.423,12.089,12.089
	S448.781,392.823,442.116,392.823z M442.116,369.797c-6.03,0-10.937,4.907-10.937,10.937c0,6.03,4.907,10.937,10.937,10.937
	c6.03,0,10.937-4.907,10.937-10.937C453.053,374.704,448.146,369.797,442.116,369.797z"/>
<path d="M396.064,392.823c-6.666,0-12.089-5.423-12.089-12.089s5.423-12.089,12.089-12.089c6.666,0,12.089,5.423,12.089,12.089
	S402.73,392.823,396.064,392.823z M396.064,369.797c-6.03,0-10.937,4.907-10.937,10.937c0,6.03,4.907,10.937,10.937,10.937
	c6.03,0,10.937-4.907,10.937-10.937C407.001,374.704,402.095,369.797,396.064,369.797z"/>
<g>
	<path style="fill:#4EB9FF;" d="M478.832,323.895H37.945v113.677h462.542V345.55C500.487,333.59,490.792,323.895,478.832,323.895z"
		/>
	<path style="fill:#4EB9FF;" d="M347.248,22.28L11.513,257.365l26.431,37.748L388.77,49.463l-15.866-22.658
		C367.069,18.47,355.583,16.444,347.248,22.28z"/>
</g>
<g>
	<path style="fill:#01121C;" d="M442.116,392.823c6.666,0,12.089-5.423,12.089-12.089s-5.423-12.089-12.089-12.089
		c-6.666,0-12.089,5.423-12.089,12.089S435.451,392.823,442.116,392.823z"/>
	<path style="fill:#01121C;" d="M396.064,392.823c6.666,0,12.089-5.423,12.089-12.089s-5.423-12.089-12.089-12.089
		c-6.666,0-12.089,5.423-12.089,12.089S389.399,392.823,396.064,392.823z"/>
	<path style="fill:#01121C;" d="M259.268,231.826v46.018c0,6.359,5.154,11.513,11.513,11.513s11.513-5.154,11.513-11.513v-46.018
		c0-6.359-5.154-11.513-11.513-11.513S259.268,225.468,259.268,231.826z"/>
	<path style="fill:#01121C;" d="M213.217,231.826v46.018c0,6.359,5.154,11.513,11.513,11.513s11.513-5.154,11.513-11.513v-46.018
		c0-6.359-5.154-11.513-11.513-11.513S213.217,225.468,213.217,231.826z"/>
	<path style="fill:#01121C;" d="M305.32,231.826v46.018c0,6.359,5.154,11.513,11.513,11.513c6.359,0,11.513-5.154,11.513-11.513
		v-46.018c0-6.359-5.154-11.513-11.513-11.513C310.474,220.313,305.32,225.468,305.32,231.826z"/>
	<path style="fill:#01121C;" d="M478.832,312.382H52.588v-13.468L395.373,58.893c2.501-1.751,4.204-4.424,4.734-7.432
		c0.53-3.007-0.155-6.101-1.908-8.602l-15.866-22.658c-4.586-6.55-11.447-10.921-19.322-12.31
		c-7.872-1.388-15.818,0.372-22.367,4.959l0,0L4.909,247.933c-2.501,1.751-4.204,4.424-4.734,7.432
		c-0.53,3.007,0.155,6.102,1.908,8.602l26.431,37.748c0.321,0.458,0.676,0.877,1.049,1.274v20.904v113.677v55.487
		c0,6.359,5.154,11.513,11.513,11.513h437.757c6.359,0,11.513-5.154,11.513-11.513v-43.975h10.142
		c6.359,0,11.513-5.154,11.513-11.513v-92.022C512,327.262,497.121,312.382,478.832,312.382z M488.974,345.55v80.509h-10.142H52.588
		v-90.651h426.244C484.424,335.408,488.974,339.958,488.974,345.55z M27.547,260.192L353.852,31.711
		c1.512-1.058,3.344-1.464,5.161-1.144c1.817,0.32,3.401,1.33,4.459,2.84l9.262,13.228L40.771,279.079L27.547,260.192z
		 M467.32,481.547H52.588v-32.462H467.32V481.547z"/>
</g>
<g>
</g>
<g>
</g>
<g>
</g>
<g>
</g>
<g>
</g>
<g>
</g>
<g>
</g>
<g>
</g>
<g>
</g>
<g>
</g>
<g>
</g>
<g>
</g>
<g>
</g>
<g>
</g>
<g>
</g>
</svg>
