<?xml version="1.0" encoding="iso-8859-1"?>
<!-- Generator: Adobe Illustrator 19.0.0, SVG Export Plug-In . SVG Version: 6.00 Build 0)  -->
<svg version="1.1" id="Layer_1" xmlns="http://www.w3.org/2000/svg" xmlns:xlink="http://www.w3.org/1999/xlink" x="0px" y="0px"
	 viewBox="0 0 512 512" style="enable-background:new 0 0 512 512;" xml:space="preserve">
<polygon style="fill:#FF9356;" points="478.257,11.584 478.257,500.416 396.974,500.416 362.223,256 396.974,11.584 "/>
<path style="fill:#FFD86C;" d="M396.974,11.584v488.833H33.743V11.584H396.974z"/>
<g>
	<polygon style="fill:#FF4181;" points="270.248,115.941 270.248,432.814 220.392,432.814 197.224,115.941 	"/>
	<polygon style="fill:#FF4181;" points="345.125,79.186 345.125,139.109 295.269,139.109 272.101,109.148 295.269,79.186 	"/>
</g>
<polygon style="fill:#FF9356;" points="85.592,79.186 85.592,139.109 160.469,139.109 160.469,432.814 220.392,432.814 
	220.392,139.109 295.269,139.109 295.269,79.186 "/>
<g>
	<path style="fill:#01121C;" d="M478.252,0H396.97H33.748c-6.397,0-11.584,5.186-11.584,11.584v488.833
		c0,6.398,5.187,11.584,11.584,11.584H396.97h81.282c6.397,0,11.584-5.186,11.584-11.584V11.584C489.836,5.186,484.65,0,478.252,0z
		 M45.332,23.167h340.055v465.665H45.332V23.167z M466.668,488.833h-58.114V23.167h58.114V488.833z"/>
	<path style="fill:#01121C;" d="M345.124,67.603h-49.856H85.594c-6.397,0-11.584,5.186-11.584,11.584v59.919
		c0,6.398,5.187,11.584,11.584,11.584h63.295v282.125c0,6.398,5.187,11.584,11.584,11.584h59.919h49.856
		c6.397,0,11.584-5.186,11.584-11.584V150.688h13.438h49.856c6.397,0,11.584-5.186,11.584-11.584V79.186
		C356.708,72.789,351.522,67.603,345.124,67.603z M270.247,127.52h-49.856c-6.397,0-11.584,5.186-11.584,11.584v58.977
		c0,6.398,5.187,11.584,11.584,11.584s11.584-5.186,11.584-11.584v-47.394h26.689V421.23h-26.689V244.416
		c0-6.398-5.187-11.584-11.584-11.584s-11.584,5.186-11.584,11.584V421.23h-36.752V139.104c0-6.398-5.187-11.584-11.584-11.584
		H97.178V90.77h186.507v36.752h-13.438V127.52z M333.54,127.52h-26.689V90.77h26.689V127.52z"/>
</g>
<g>
</g>
<g>
</g>
<g>
</g>
<g>
</g>
<g>
</g>
<g>
</g>
<g>
</g>
<g>
</g>
<g>
</g>
<g>
</g>
<g>
</g>
<g>
</g>
<g>
</g>
<g>
</g>
<g>
</g>
</svg>
