<?xml version="1.0" encoding="iso-8859-1"?>
<!-- Generator: Adobe Illustrator 19.0.0, SVG Export Plug-In . SVG Version: 6.00 Build 0)  -->
<svg version="1.1" id="Layer_1" xmlns="http://www.w3.org/2000/svg" xmlns:xlink="http://www.w3.org/1999/xlink" x="0px" y="0px"
	 viewBox="0 0 511.998 511.998" style="enable-background:new 0 0 511.998 511.998;" xml:space="preserve">
<g>
	<polygon style="fill:#FFB14E;" points="185.421,38.226 185.421,178.922 147.194,178.922 147.194,49.81 	"/>
	<polygon style="fill:#FFB14E;" points="359.175,49.81 359.175,178.922 320.949,178.922 320.949,38.226 	"/>
</g>
<g>
	<polygon style="fill:#FF755C;" points="359.175,49.81 147.194,49.81 185.421,11.584 320.949,11.584 	"/>
	<polygon style="fill:#FF755C;" points="72.457,155.754 72.457,387.382 256,422.133 439.542,387.382 439.542,155.754 	"/>
	<polygon style="fill:#FF755C;" points="439.543,387.382 439.543,500.415 318.471,443.898 	"/>
	<polygon style="fill:#FF755C;" points="193.529,443.898 72.457,500.415 72.457,387.382 	"/>
</g>
<polygon style="fill:#FFB14E;" points="439.543,387.382 364.806,443.898 256,467.066 147.194,443.898 72.457,387.382 "/>
<polygon style="fill:#FFD86C;" points="439.543,500.415 72.457,500.415 147.194,443.898 364.806,443.898 "/>
<path style="fill:#01121C;" d="M439.538,144.173h-68.782V49.808c0-0.129-0.015-0.253-0.02-0.379
	c-0.005-0.139-0.012-0.278-0.021-0.417c-0.032-0.477-0.087-0.949-0.175-1.409c-0.005-0.023-0.006-0.045-0.01-0.068
	c-0.101-0.509-0.243-1.001-0.409-1.484c-0.032-0.094-0.067-0.186-0.102-0.279c-0.168-0.451-0.358-0.891-0.578-1.314
	c-0.017-0.034-0.031-0.07-0.049-0.103c-0.24-0.448-0.514-0.873-0.809-1.285c-0.068-0.096-0.14-0.19-0.212-0.284
	c-0.309-0.404-0.635-0.795-0.993-1.154c-0.006-0.006-0.009-0.012-0.014-0.016L329.139,3.393C326.966,1.221,324.021,0,320.949,0
	H185.417c-3.072,0-6.018,1.221-8.191,3.393l-38.224,38.224c-0.006,0.006-0.009,0.012-0.014,0.016
	c-0.358,0.359-0.683,0.749-0.993,1.154c-0.072,0.094-0.144,0.188-0.212,0.284c-0.294,0.41-0.569,0.836-0.809,1.285
	c-0.017,0.034-0.031,0.068-0.05,0.103c-0.221,0.423-0.41,0.863-0.578,1.314c-0.035,0.094-0.071,0.185-0.102,0.279
	c-0.166,0.482-0.308,0.975-0.409,1.484c-0.005,0.023-0.006,0.045-0.01,0.068c-0.089,0.46-0.142,0.931-0.175,1.409
	c-0.009,0.139-0.016,0.277-0.021,0.417c-0.005,0.127-0.02,0.251-0.02,0.379v94.365h-63.15c-6.397,0-11.584,5.187-11.584,11.584
	v344.659c0,0.094,0.012,0.184,0.014,0.278c0.005,0.22,0.016,0.439,0.034,0.658c0.014,0.168,0.03,0.335,0.051,0.5
	c0.025,0.207,0.058,0.414,0.095,0.621c0.031,0.175,0.066,0.348,0.104,0.519c0.044,0.191,0.094,0.381,0.147,0.571
	c0.051,0.181,0.104,0.359,0.163,0.535c0.059,0.176,0.124,0.351,0.192,0.525c0.072,0.184,0.147,0.365,0.227,0.544
	c0.073,0.161,0.151,0.321,0.231,0.48c0.095,0.187,0.193,0.37,0.298,0.549c0.085,0.146,0.171,0.29,0.263,0.433
	c0.118,0.185,0.241,0.365,0.37,0.543c0.054,0.076,0.1,0.155,0.156,0.23c0.039,0.052,0.086,0.096,0.126,0.147
	c0.186,0.237,0.383,0.466,0.587,0.688c0.09,0.1,0.177,0.203,0.271,0.298c0.284,0.288,0.579,0.564,0.892,0.821
	c0.101,0.083,0.21,0.154,0.313,0.234c0.225,0.173,0.452,0.343,0.689,0.499c0.141,0.093,0.286,0.175,0.43,0.261
	c0.215,0.129,0.434,0.254,0.659,0.368c0.144,0.073,0.29,0.142,0.436,0.21c0.241,0.111,0.487,0.213,0.736,0.307
	c0.136,0.051,0.27,0.103,0.407,0.149c0.273,0.092,0.553,0.169,0.834,0.241c0.122,0.031,0.242,0.067,0.365,0.094
	c0.303,0.067,0.614,0.116,0.927,0.159c0.107,0.015,0.211,0.037,0.317,0.049c0.378,0.041,0.76,0.061,1.148,0.065
	c0.038,0,0.075,0.006,0.114,0.006c0.009,0,0.02-0.001,0.029-0.001h367c0.009,0,0.02,0.001,0.029,0.001
	c0.036,0,0.072-0.006,0.108-0.006c0.39-0.003,0.776-0.024,1.156-0.066c0.097-0.01,0.193-0.031,0.29-0.044
	c0.322-0.043,0.642-0.094,0.956-0.163c0.115-0.025,0.228-0.059,0.342-0.088c0.291-0.073,0.578-0.154,0.859-0.249
	c0.13-0.044,0.257-0.093,0.386-0.141c0.257-0.097,0.511-0.203,0.759-0.317c0.141-0.065,0.28-0.131,0.418-0.202
	c0.23-0.118,0.455-0.247,0.678-0.379c0.139-0.083,0.279-0.163,0.415-0.253c0.243-0.16,0.476-0.334,0.707-0.512
	c0.098-0.076,0.202-0.144,0.299-0.224c0.313-0.258,0.609-0.535,0.893-0.824c0.093-0.094,0.178-0.197,0.268-0.295
	c0.205-0.222,0.402-0.452,0.59-0.689c0.041-0.051,0.086-0.095,0.125-0.147c0.057-0.075,0.102-0.155,0.156-0.231
	c0.129-0.177,0.251-0.358,0.37-0.543c0.092-0.142,0.178-0.287,0.263-0.433c0.104-0.181,0.203-0.363,0.298-0.549
	c0.081-0.159,0.158-0.317,0.231-0.48c0.081-0.18,0.155-0.36,0.227-0.544c0.068-0.175,0.133-0.349,0.192-0.525
	c0.059-0.176,0.112-0.354,0.163-0.534c0.053-0.19,0.103-0.381,0.147-0.573c0.038-0.171,0.073-0.344,0.104-0.518
	c0.037-0.206,0.069-0.414,0.095-0.621c0.021-0.166,0.037-0.332,0.051-0.5c0.017-0.22,0.028-0.439,0.034-0.658
	c0.002-0.093,0.014-0.184,0.014-0.278V155.757C451.121,149.359,445.934,144.173,439.538,144.173z M84.045,410.669l43.944,33.231
	l-43.944,33.231V410.669z M151.081,455.484h31.987c6.397,0,11.584-5.187,11.584-11.584s-5.187-11.584-11.584-11.584h-31.987
	l-44.097-33.347h298.031l-44.097,33.347H229.404c-6.396,0-11.584,5.187-11.584,11.584s5.187,11.584,11.584,11.584h131.514
	l44.097,33.347H106.984L151.081,455.484z M384.01,443.901l43.944-33.231v66.463L384.01,443.901z M197.001,144.173V61.391h112.364
	v82.782H197.001z M332.532,61.391h15.056v82.782h-15.056V61.391z M190.215,23.167h125.934l15.056,15.056h-10.257H185.417H175.16
	L190.215,23.167z M158.777,61.391h15.056v82.782h-15.056V61.391z M147.193,167.34h38.224h135.531h38.224h68.782v208.462H84.045
	V167.34H147.193z"/>
<g>
</g>
<g>
</g>
<g>
</g>
<g>
</g>
<g>
</g>
<g>
</g>
<g>
</g>
<g>
</g>
<g>
</g>
<g>
</g>
<g>
</g>
<g>
</g>
<g>
</g>
<g>
</g>
<g>
</g>
</svg>
