<?xml version="1.0" encoding="iso-8859-1"?>
<!-- Generator: Adobe Illustrator 19.0.0, SVG Export Plug-In . SVG Version: 6.00 Build 0)  -->
<svg version="1.1" id="Layer_1" xmlns="http://www.w3.org/2000/svg" xmlns:xlink="http://www.w3.org/1999/xlink" x="0px" y="0px"
	 viewBox="0 0 512 512" style="enable-background:new 0 0 512 512;" xml:space="preserve">
<polygon style="fill:#FF755C;" points="349.398,157.782 384.149,331.995 349.398,506.208 53.758,506.208 53.758,157.782 "/>
<polygon style="fill:#FFD86C;" points="458.238,157.782 458.238,506.208 392.234,480.643 403.818,157.782 "/>
<polygon style="fill:#FFB14E;" points="403.818,157.782 403.818,480.643 349.398,506.208 349.398,157.782 "/>
<polygon style="fill:#FF755C;" points="458.238,506.208 349.398,506.208 403.818,457.475 "/>
<path style="fill:#01121C;" d="M469.817,151.996c0-6.398-5.186-11.584-11.584-11.584h-58.509V89.309
	C399.724,40.063,359.661,0,310.416,0c-20.47,0-39.339,6.939-54.418,18.564C240.92,6.939,222.05,0,201.58,0
	c-49.245,0-89.308,40.063-89.308,89.309v51.103H53.763c-6.398,0-11.584,5.186-11.584,11.584v348.421
	c0,6.398,5.186,11.584,11.584,11.584H349.4h108.835c1.22,0,2.394-0.191,3.499-0.541c0.083-0.027,0.163-0.061,0.247-0.09
	c0.284-0.097,0.565-0.198,0.839-0.315c0.136-0.059,0.266-0.13,0.401-0.193c0.214-0.103,0.429-0.204,0.636-0.319
	c0.152-0.085,0.299-0.181,0.447-0.272c0.183-0.112,0.366-0.225,0.542-0.348c0.147-0.102,0.288-0.213,0.431-0.322
	c0.174-0.133,0.345-0.269,0.511-0.411c0.13-0.111,0.255-0.227,0.38-0.345c0.174-0.163,0.342-0.332,0.505-0.506
	c0.063-0.067,0.131-0.124,0.192-0.193c0.05-0.056,0.09-0.116,0.139-0.171c0.14-0.162,0.272-0.329,0.403-0.499
	c0.105-0.137,0.211-0.273,0.309-0.414c0.117-0.166,0.225-0.337,0.332-0.509c0.095-0.153,0.191-0.305,0.279-0.46
	c0.095-0.169,0.182-0.343,0.269-0.517c0.082-0.166,0.166-0.33,0.24-0.498c0.076-0.174,0.144-0.352,0.212-0.531
	c0.066-0.175,0.134-0.349,0.192-0.525c0.059-0.178,0.108-0.361,0.158-0.543c0.05-0.183,0.101-0.366,0.141-0.55
	c0.039-0.178,0.069-0.359,0.101-0.541c0.034-0.197,0.066-0.393,0.09-0.591c0.021-0.173,0.034-0.348,0.046-0.522
	c0.015-0.212,0.028-0.423,0.032-0.634c0.001-0.074,0.012-0.147,0.012-0.222V151.996H469.817z M446.65,474.493l-31.251-27.986V268.58
	c0-6.398-5.186-11.584-11.584-11.584c-6.398,0-11.584,5.186-11.584,11.584v177.927l-31.251,27.986V163.579h31.251v58.667
	c0,6.398,5.186,11.584,11.584,11.584c6.398,0,11.584-5.186,11.584-11.584v-58.667h31.251V474.493z M403.817,467.232l24.12,21.6
	h-48.239L403.817,467.232z M376.557,89.309v51.103h-27.158H290.89V89.309c0-20.354-6.858-39.127-18.366-54.164
	c10.742-7.536,23.805-11.978,37.893-11.978C346.886,23.167,376.557,52.839,376.557,89.309z M244.273,140.412V89.309
	c0-13.932,4.34-26.863,11.725-37.536c7.385,10.672,11.725,23.604,11.725,37.536v51.103H244.273z M135.44,89.309
	c0-36.47,29.671-66.142,66.142-66.142c14.088,0,27.151,4.441,37.891,11.978c-11.507,15.037-18.366,33.811-18.366,54.164v51.103
	H135.44C135.44,140.412,135.44,89.309,135.44,89.309z M65.347,163.579h272.47v325.253H65.347V163.579z"/>
<g>
</g>
<g>
</g>
<g>
</g>
<g>
</g>
<g>
</g>
<g>
</g>
<g>
</g>
<g>
</g>
<g>
</g>
<g>
</g>
<g>
</g>
<g>
</g>
<g>
</g>
<g>
</g>
<g>
</g>
</svg>
