<?xml version="1.0" encoding="iso-8859-1"?>
<!-- Generator: Adobe Illustrator 19.0.0, SVG Export Plug-In . SVG Version: 6.00 Build 0)  -->
<svg version="1.1" id="Layer_1" xmlns="http://www.w3.org/2000/svg" xmlns:xlink="http://www.w3.org/1999/xlink" x="0px" y="0px"
	 viewBox="0 0 512 512" style="enable-background:new 0 0 512 512;" xml:space="preserve">
<polygon style="fill:#9AD7FF;" points="28.342,310.862 32.636,359.946 99.122,371.459 294.993,354.322 341.321,283.48 "/>
<polygon style="fill:#3B8BC0;" points="330.744,69.868 290.568,67.586 297.933,151.759 337.435,146.343 "/>
<g>
	
		<rect x="285.713" y="141.515" transform="matrix(-0.9962 0.0872 -0.0872 -0.9962 672.7971 463.2968)" style="fill:#4EB9FF;" width="81.133" height="209.656"/>
	
		<rect x="73.184" y="208.893" transform="matrix(-0.9962 0.0872 -0.0872 -0.9962 335.7186 438.6361)" style="fill:#4EB9FF;" width="170.189" height="35.515"/>
</g>
<polygon style="fill:#3B8BC0;" points="99.122,359.945 11.584,359.945 11.584,433.336 99.122,456.503 "/>
<path style="fill:#9AD7FF;" d="M362.387,23.277l-110.431,9.662c-26.724,2.338-46.492,25.898-44.154,52.621l207.206-18.129
	C412.671,40.707,389.111,20.938,362.387,23.277z"/>
<path style="fill:#4EB9FF;" d="M444.843,433.336H11.584v55.573h488.833C500.416,458.216,475.536,433.336,444.843,433.336z"/>
<path style="fill:#01121C;" d="M444.843,421.752H110.706v-39.679l185.296-16.211l69.279-6.061l0.101,1.154
	c0.528,6.03,5.585,10.576,11.527,10.576c0.338,0,0.679-0.015,1.023-0.045c6.373-0.557,11.088-6.176,10.53-12.549l-1.105-12.624
	c-0.001-0.023-0.003-0.046-0.006-0.07c-0.002-0.024-0.003-0.047-0.006-0.072l-18.266-208.786
	c-0.557-6.373-6.159-11.097-12.549-10.531l-8.965,0.784l-3.706-42.356l72.158-6.313c3.06-0.268,5.889-1.74,7.864-4.094
	c1.975-2.353,2.933-5.395,2.665-8.456c-2.891-33.043-32.125-57.566-65.17-54.683l-110.431,9.661
	c-33.044,2.891-57.576,32.126-54.684,65.171c0.528,6.029,5.585,10.575,11.527,10.575c0.338,0,0.679-0.015,1.023-0.045l72.158-6.313
	l3.706,42.356l-8.965,0.784c-3.06,0.268-5.889,1.74-7.864,4.094c-1.975,2.353-2.934,5.395-2.665,8.455l5.14,58.753l-16.758,1.467
	l-0.537-6.15c-0.268-3.062-1.74-5.89-4.094-7.864c-2.353-1.975-5.395-2.931-8.455-2.667L82.477,203.836l0,0
	c-0.557-6.372-6.169-11.091-12.549-10.53c-6.373,0.557-11.088,6.176-10.53,12.55l1.01,11.539v0.001l1.548,17.689l2.558,29.229
	c0.528,6.029,5.585,10.575,11.527,10.575c0.338,0,0.679-0.015,1.023-0.045c6.373-0.557,11.088-6.176,10.53-12.549l11.54-1.01
	l2.757,31.517l-74.556,6.523c-6.373,0.557-11.088,6.176-10.53,12.549l3.192,36.49h-8.413C5.186,348.363,0,353.55,0,359.947v73.39
	v55.573c0,6.397,5.186,11.584,11.584,11.584h488.833c6.398,0,11.584-5.187,11.584-11.584
	C512,451.878,481.874,421.752,444.843,421.752z M252.965,44.477l110.431-9.661c1.091-0.095,2.175-0.142,3.252-0.142
	c14.979,0,28.233,9.086,33.96,22.389l-70.304,6.15c-0.001,0-0.003,0-0.005,0l-22.265,1.948l-87.852,7.686
	C223.752,57.741,236.676,45.902,252.965,44.477z M23.167,371.529h9.258c0.029,0,0.059,0,0.088,0h55.025v50.222H23.167V371.529z
	 M363.263,336.722l-57.74,5.052l-4.789-54.742c0-0.001,0-0.003-0.001-0.005l-6.324-72.275c0-0.001,0-0.002,0-0.003
	c0-0.001,0-0.002,0-0.003l-5.14-58.749l57.74-5.052L363.263,336.722z M304.049,88.766l16.73-1.464l3.706,42.356l-16.73,1.464
	L304.049,88.766z M230.955,214.101l1.076,12.298L85.572,239.213l-0.35-3.996l-0.726-8.302L230.955,214.101z M122.21,259.265
	l123.379-10.794c6.373-0.557,11.088-6.176,10.53-12.549l-0.537-6.15l16.758-1.467l4.305,49.205l-151.677,13.27L122.21,259.265z
	 M40.892,321.393l237.773-20.803l3.17,36.234l0.609,6.968l-171.796,15.031c-0.565-5.869-5.508-10.461-11.527-10.461H43.251
	L40.892,321.393z M23.167,477.325v-32.405h75.954h345.722c20.248,0,37.345,13.751,42.442,32.405H23.167z"/>
<g>
</g>
<g>
</g>
<g>
</g>
<g>
</g>
<g>
</g>
<g>
</g>
<g>
</g>
<g>
</g>
<g>
</g>
<g>
</g>
<g>
</g>
<g>
</g>
<g>
</g>
<g>
</g>
<g>
</g>
</svg>
