<?xml version="1.0" encoding="iso-8859-1"?>
<!-- Generator: Adobe Illustrator 19.0.0, SVG Export Plug-In . SVG Version: 6.00 Build 0)  -->
<svg version="1.1" id="Layer_1" xmlns="http://www.w3.org/2000/svg" xmlns:xlink="http://www.w3.org/1999/xlink" x="0px" y="0px"
	 viewBox="0 0 512.003 512.003" style="enable-background:new 0 0 512.003 512.003;" xml:space="preserve">
<path style="fill:#9AD7FF;" d="M297.797,319.624c8.174-22.458,3.139-46.503-11.135-63.626H100.854v83.984l322.246,94.12
	l22.135-60.816L297.797,319.624z"/>
<path style="fill:#4EB9FF;" d="M445.236,138.713l-22.135-60.816L100.854,195.186c-33.587,12.225-50.905,49.363-38.68,82.949
	s49.362,50.903,82.949,38.68l113.992-41.49c33.587-12.225,50.905-49.362,38.68-82.948L445.236,138.713z"/>
<circle style="fill:#174461;" cx="122.988" cy="256.006" r="16.837"/>
<g>
	<path style="fill:#FFCE47;" d="M433.474,13.487L50.163,153.001c-16.353,5.952-24.785,24.034-18.833,40.388l8.71,23.931
		L482.572,56.252l-8.71-23.931C467.91,15.968,449.827,7.536,433.474,13.487z"/>
	<path style="fill:#FFCE47;" d="M473.862,479.68l8.71-23.931L40.039,294.68l-8.71,23.931c-5.952,16.353,2.48,34.436,18.833,40.388
		l383.311,139.514C449.827,504.465,467.91,496.034,473.862,479.68z"/>
</g>
<g>
	<path style="fill:#01121C;" d="M486.533,444.864l-48.584-17.684l31.644-86.944c2.189-6.011-0.911-12.659-6.924-14.846
		c-6.01-2.188-12.66,0.912-14.846,6.924l-9.51,26.128l-126.509-46.045c3.838-19.396-0.022-39.714-10.78-56.383
		c1.897-2.941,3.605-6.031,5.11-9.257c6.96-14.924,8.886-31.315,5.694-47.161l126.484-46.037l9.51,26.128
		c2.187,6.011,8.835,9.108,14.846,6.924c6.012-2.188,9.112-8.835,6.924-14.846l-31.644-86.944l48.584-17.684
		c6.012-2.188,9.112-8.835,6.925-14.846l-8.711-23.932C476.621,6.03,451.842-5.525,429.512,2.601v0.001L46.2,142.117
		c-22.327,8.127-33.882,32.905-25.755,55.235l8.711,23.931c2.187,6.013,8.835,9.112,14.846,6.924l9.404-3.422
		c-7.848,17.487-9.175,37.922-2.116,57.314c0.632,1.738,1.323,3.439,2.065,5.102l-9.353-3.403
		c-6.01-2.187-12.659,0.912-14.846,6.924l-8.712,23.931c-8.126,22.328,3.429,47.107,25.757,55.235l383.311,139.515
		c4.85,1.764,9.81,2.601,14.695,2.601c17.608,0,34.177-10.878,40.539-28.356c0-0.001,0.001-0.001,0.001-0.001l8.71-23.931
		C495.645,453.699,492.545,447.052,486.533,444.864z M430.389,380.212l-14.211,39.044l-250.04-91.007l-9.28-3.377l106.219-38.661
		c7.93-2.886,15.199-6.979,21.605-12.097c6.253,12.823,7.206,27.872,2.228,41.549c-1.051,2.888-0.912,6.073,0.386,8.858
		c1.299,2.784,3.65,4.939,6.538,5.989L430.389,380.212z M293.834,181.491c-2.887,1.05-5.238,3.205-6.538,5.989
		c-1.297,2.785-1.436,5.97-0.386,8.858c4.854,13.337,4.224,27.764-1.773,40.626c-1.897,4.068-4.259,7.826-7.023,11.216
		c-0.249,0.271-0.483,0.554-0.702,0.843c-5.886,6.917-13.491,12.227-22.256,15.418l-113.992,41.489
		c-27.529,10.018-58.081-4.225-68.102-31.756c-10.002-27.481,4.175-57.971,31.607-68.048l311.51-113.382l14.211,39.044
		L293.834,181.491z M46.963,202.473l-4.748-13.046c-3.758-10.325,1.585-21.783,11.908-25.541L437.436,24.372v0.001
		c10.323-3.761,21.783,1.585,25.54,11.908l4.749,13.047L96.892,184.301c-0.053,0.02-0.104,0.037-0.158,0.057L46.963,202.473z
		 M462.977,475.718c-3.758,10.325-15.213,15.665-25.542,11.911L54.124,348.115c-10.325-3.759-15.667-15.217-11.911-25.542
		l4.749-13.046l49.869,18.151c0.021,0.007,0.041,0.015,0.061,0.022l370.832,134.973L462.977,475.718z"/>
	<path style="fill:#01121C;" d="M122.989,227.58c-15.671,0-28.42,12.749-28.42,28.42s12.749,28.42,28.42,28.42
		S151.41,271.671,151.41,256S138.66,227.58,122.989,227.58z M122.989,261.252c-2.896,0-5.252-2.356-5.252-5.252
		s2.356-5.252,5.252-5.252c2.897,0,5.253,2.356,5.253,5.252S125.886,261.252,122.989,261.252z"/>
</g>
<g>
</g>
<g>
</g>
<g>
</g>
<g>
</g>
<g>
</g>
<g>
</g>
<g>
</g>
<g>
</g>
<g>
</g>
<g>
</g>
<g>
</g>
<g>
</g>
<g>
</g>
<g>
</g>
<g>
</g>
</svg>
