<?xml version="1.0" encoding="iso-8859-1"?>
<!-- Generator: Adobe Illustrator 19.0.0, SVG Export Plug-In . SVG Version: 6.00 Build 0)  -->
<svg version="1.1" id="Layer_1" xmlns="http://www.w3.org/2000/svg" xmlns:xlink="http://www.w3.org/1999/xlink" x="0px" y="0px"
	 viewBox="0 0 512 512" style="enable-background:new 0 0 512 512;" xml:space="preserve">
<path style="fill:#FFEBB4;" d="M491.264,189.532L305.65,305.648L189.537,491.266c21.133,5.957,43.425,9.15,66.463,9.15
	c134.987,0,244.416-109.429,244.416-244.416C500.416,232.96,497.224,210.666,491.264,189.532z"/>
<path style="fill:#FF9356;" d="M256,11.584C121.013,11.584,11.584,121.013,11.584,256c0,111.95,75.266,206.314,177.954,235.266
	l301.727-301.734C462.312,86.847,367.947,11.584,256,11.584z"/>
<path style="fill:#FFB14E;" d="M491.276,189.52L189.542,491.262c-5.96-21.134-9.146-43.43-9.146-66.47
	c0-134.987,109.429-244.416,244.416-244.416C447.849,180.375,470.143,183.562,491.276,189.52z"/>
<path style="fill:#01121C;" d="M437.02,74.98C388.667,26.629,324.38,0,256,0S123.333,26.629,74.98,74.98S0,187.62,0,256
	s26.629,132.667,74.98,181.02S187.62,512,256,512s132.667-26.629,181.02-74.98S512,324.38,512,256S485.371,123.333,437.02,74.98z
	 M23.167,256C23.167,127.615,127.615,23.167,256,23.167c99.334,0,184.322,62.535,217.705,150.296
	c-16.042-3.101-32.414-4.672-48.893-4.672c-68.38,0-132.667,26.629-181.02,74.98c-48.352,48.352-74.98,112.64-74.98,181.02
	c0,16.489,1.573,32.871,4.679,48.924C85.715,440.34,23.167,355.343,23.167,256z M191.979,424.792
	c0-128.385,104.448-232.833,232.833-232.833c14.687,0,29.273,1.366,43.573,4.071L196.051,468.371
	C193.345,454.068,191.979,439.48,191.979,424.792z M256,488.833c-14.88,0-29.433-1.42-43.545-4.102l272.276-272.282
	c2.682,14.114,4.102,28.669,4.102,43.551C488.833,384.385,384.385,488.833,256,488.833z"/>
<g>
</g>
<g>
</g>
<g>
</g>
<g>
</g>
<g>
</g>
<g>
</g>
<g>
</g>
<g>
</g>
<g>
</g>
<g>
</g>
<g>
</g>
<g>
</g>
<g>
</g>
<g>
</g>
<g>
</g>
</svg>
