<?xml version="1.0" encoding="iso-8859-1"?>
<!-- Generator: Adobe Illustrator 19.0.0, SVG Export Plug-In . SVG Version: 6.00 Build 0)  -->
<svg version="1.1" id="Layer_1" xmlns="http://www.w3.org/2000/svg" xmlns:xlink="http://www.w3.org/1999/xlink" x="0px" y="0px"
	 viewBox="0 0 512 512" style="enable-background:new 0 0 512 512;" xml:space="preserve">
<polygon style="fill:#FFCE47;" points="67.043,411.213 11.584,466.692 68.499,492.684 108.519,452.69 "/>
<path style="fill:#174461;" d="M89.684,308.268c0,0-0.826,62.959-43.313,105.447c-4.103,4.103-1.077,8.514-1.077,8.514
	l52.209,52.209c0,0,4.411,3.026,8.514-1.077c42.487-42.487,105.447-43.313,105.447-43.313l-28.124-93.655L89.684,308.268z"/>
<path style="fill:#FFCE47;" d="M493.614,112.43l-13.15-13.149l-54.58-5.432l-5.432-54.58l-13.149-13.149
	c-9.547-9.014-21.245-8.597-30.053-1.696c-96.44,79.352-297.416,273.995-297.416,273.995L221.313,439.9
	c0,0,194.643-200.977,273.995-297.416C502.21,133.674,502.627,121.976,493.614,112.43z"/>
<path style="fill:#FFE290;" d="M420.452,39.268l-219.33,219.33c-8.704,8.704-8.704,22.817,0,31.522l28.49,28.489
	c8.704,8.704,22.817,8.704,31.522,0l219.33-219.329L420.452,39.268z"/>
<path style="fill:#01121C;" d="M502.035,104.476c-0.075-0.08-0.153-0.16-0.231-0.237L488.746,91.18
	c-0.03-0.03-0.06-0.061-0.09-0.092s-0.061-0.06-0.092-0.09L428.72,31.153c-0.024-0.025-0.051-0.051-0.075-0.076
	c-0.025-0.025-0.052-0.051-0.076-0.075l-13.073-13.073c-0.078-0.079-0.159-0.155-0.239-0.232
	c-13.072-12.344-31.218-13.307-45.151-2.391c-0.073,0.057-0.145,0.115-0.217,0.173C274.194,94.216,73.787,288.147,71.774,290.095
	c-2.23,2.16-3.5,5.125-3.525,8.229c-0.025,3.105,1.198,6.089,3.393,8.284l6.192,6.191c-1.17,14.634-7.361,60.431-39.653,92.724
	c-6.838,6.839-6.625,15.609-3.437,21.61L3.391,458.502c-2.682,2.684-3.881,6.513-3.207,10.247c0.674,3.735,3.136,6.902,6.588,8.478
	l56.915,25.992c1.543,0.704,3.183,1.047,4.809,1.047c3.008,0,5.969-1.171,8.19-3.388l15.91-15.892
	c6.002,3.189,14.772,3.403,21.613-3.435c32.136-32.137,78.086-38.432,92.736-39.641l6.178,6.178
	c2.195,2.195,5.141,3.432,8.284,3.392c3.105-0.024,6.069-1.295,8.229-3.524c1.95-2.013,195.88-202.421,274.618-298.115
	c0.059-0.072,0.117-0.144,0.174-0.217C515.342,135.695,514.382,117.55,502.035,104.476z M66,478.807L31.57,463.083l19.092-19.104
	l25.087,25.088L66,478.807z M101.281,461.835l-0.933-0.932c-0.005-0.006-0.01-0.012-0.016-0.016
	c-0.009-0.009-0.019-0.019-0.027-0.027l-41.39-41.39c-0.022-0.022-0.044-0.044-0.066-0.066c-0.021-0.021-0.041-0.041-0.061-0.061
	l-0.891-0.89c25.931-27.821,36.359-62.169,40.553-85.034l87.864,87.864C163.45,425.474,129.101,435.905,101.281,461.835z
	 M486.265,135.243c-68.978,83.806-227.342,248.937-265.097,288.127l-1.477-1.478c-0.023-0.023-0.046-0.046-0.07-0.069
	L97.893,300.094c-0.013-0.012-0.024-0.024-0.036-0.036l-1.494-1.494c39.189-37.755,204.319-196.116,288.125-265.096
	c3.447-2.661,8.768-4.598,14.754,0.972l4.828,4.828L192.931,250.406c-6.397,6.398-9.921,14.904-9.921,23.953
	c0,9.048,3.524,17.555,9.921,23.953l28.489,28.49c13.21,13.207,34.698,13.205,47.905,0l42.284-42.284
	c4.524-4.524,4.524-11.859,0-16.384c-4.525-4.524-11.858-4.524-16.384,0l-42.284,42.284c-4.174,4.174-10.967,4.175-15.139,0
	l-28.489-28.49c-2.023-2.023-3.136-4.71-3.136-7.57c0-2.859,1.113-5.548,3.136-7.569L420.452,55.651l43.629,43.63L327.992,235.369
	c-4.524,4.524-4.524,11.859,0,16.384c4.525,4.523,11.858,4.523,16.384,0l136.089-136.089l4.827,4.827
	C490.859,126.473,488.926,131.795,486.265,135.243z"/>
<g>
</g>
<g>
</g>
<g>
</g>
<g>
</g>
<g>
</g>
<g>
</g>
<g>
</g>
<g>
</g>
<g>
</g>
<g>
</g>
<g>
</g>
<g>
</g>
<g>
</g>
<g>
</g>
<g>
</g>
</svg>
