<?xml version="1.0" encoding="iso-8859-1"?>
<!-- Generator: Adobe Illustrator 19.0.0, SVG Export Plug-In . SVG Version: 6.00 Build 0)  -->
<svg version="1.1" id="Layer_1" xmlns="http://www.w3.org/2000/svg" xmlns:xlink="http://www.w3.org/1999/xlink" x="0px" y="0px"
	 viewBox="0 0 512.001 512.001" style="enable-background:new 0 0 512.001 512.001;" xml:space="preserve">
<rect x="312.296" y="41.553" transform="matrix(-0.7071 -0.7071 0.7071 -0.7071 583.5629 482.3743)" style="fill:#4EB9FF;" width="158.776" height="157.549"/>
<path style="fill:#FF4181;" d="M282.387,89.68L29.595,342.471c-19.872,19.872-19.872,52.091,0,71.963l67.987,67.987
	c19.872,19.872,52.091,19.872,71.963,0l252.791-252.791L282.387,89.68z"/>
<rect x="135.755" y="261.336" transform="matrix(-0.7071 0.7071 -0.7071 -0.7071 578.9924 350.2844)" style="fill:#FFFFFF;" width="162.391" height="67.44"/>
<rect x="267.765" y="187.993" transform="matrix(-0.7071 0.7071 -0.7071 -0.7071 652.3447 173.2155)" style="fill:#FF80AB;" width="45.066" height="67.44"/>
<g>
	<path style="fill:#01121C;" d="M379.954,77.215l-21.219,21.219c-4.523,4.523-4.523,11.858,0,16.383
		c2.262,2.262,5.227,3.393,8.191,3.393s5.929-1.131,8.191-3.393l21.219-21.22c4.523-4.523,4.523-11.858,0-16.382
		C391.811,72.691,384.478,72.691,379.954,77.215z"/>
	<path style="fill:#01121C;" d="M508.607,115.679L396.336,3.408c-4.525-4.523-11.857-4.523-16.383,0l-86.836,86.836l-5.648-5.648
		c-2.173-2.172-5.119-3.393-8.191-3.393s-6.018,1.221-8.191,3.393L18.296,337.387C6.497,349.186,0,364.873,0,381.559
		c0,16.685,6.497,32.373,18.296,44.172l6.57,6.57l-8.158,8.158c-15.12,15.121-15.12,39.725,0,54.847
		c15.121,15.121,39.725,15.121,54.847,0l8.158-8.158l6.57,6.57c12.179,12.178,28.175,18.267,44.172,18.267
		s31.994-6.088,44.172-18.267l252.79-252.791c4.523-4.523,4.523-11.858,0-16.382l-5.648-5.647l86.837-86.836
		C513.132,127.537,513.132,120.203,508.607,115.679z M55.172,478.923c-6.087,6.088-15.995,6.088-22.082,0
		c-6.088-6.087-6.088-15.994,0-22.082l8.158-8.158l22.082,22.082L55.172,478.923z M158.245,477.335
		c-15.324,15.324-40.256,15.324-55.58,0l-67.987-67.987c-7.423-7.422-11.511-17.292-11.511-27.789
		c0-10.497,4.088-20.368,11.511-27.789l244.6-244.602l123.568,123.568L158.245,477.335z M405.389,202.515l-95.889-95.89
		l78.645-78.645l95.889,95.89L405.389,202.515z"/>
	<path style="fill:#01121C;" d="M271.087,176.855l-23.668,23.669l-0.255-0.255c-4.525-4.523-11.858-4.523-16.382,0
		s-4.523,11.858,0,16.383l0.256,0.255L124.395,323.549c-4.523,4.523-4.523,11.858,0,16.383l47.689,47.689
		c2.262,2.261,5.227,3.393,8.191,3.393s5.93-1.132,8.191-3.393l106.642-106.642l0.255,0.255c4.525,4.525,11.859,4.525,16.383,0
		c4.523-4.523,4.523-11.858,0-16.383l-0.256-0.255l23.67-23.669c2.172-2.172,3.393-5.118,3.393-8.191
		c0-3.073-1.221-6.019-3.393-8.191l-47.69-47.689C282.945,172.332,275.612,172.332,271.087,176.855z M180.275,363.047
		l-31.307-31.307l98.451-98.451l31.307,31.307L180.275,363.047z M310.586,232.736l-15.477,15.478l-31.307-31.307l15.477-15.478
		L310.586,232.736z"/>
	<path style="fill:#01121C;" d="M397.199,153.28c2.262,2.261,5.227,3.393,8.191,3.393s5.929-1.132,8.191-3.393l21.219-21.22
		c4.523-4.523,4.523-11.858,0-16.382c-4.525-4.525-11.857-4.525-16.383,0l-21.219,21.219
		C392.674,141.422,392.674,148.756,397.199,153.28z"/>
</g>
<g>
</g>
<g>
</g>
<g>
</g>
<g>
</g>
<g>
</g>
<g>
</g>
<g>
</g>
<g>
</g>
<g>
</g>
<g>
</g>
<g>
</g>
<g>
</g>
<g>
</g>
<g>
</g>
<g>
</g>
</svg>
