<?xml version="1.0" encoding="iso-8859-1"?>
<!-- Generator: Adobe Illustrator 19.0.0, SVG Export Plug-In . SVG Version: 6.00 Build 0)  -->
<svg version="1.1" id="Layer_1" xmlns="http://www.w3.org/2000/svg" xmlns:xlink="http://www.w3.org/1999/xlink" x="0px" y="0px"
	 viewBox="0 0 512.001 512.001" style="enable-background:new 0 0 512.001 512.001;" xml:space="preserve">
<path style="fill:#174461;" d="M500.416,353.819c0,20.387-16.681,37.068-37.068,37.068H48.652
	c-20.387,0-37.068-16.681-37.068-37.068V54.959c0-20.387,16.681-37.068,37.068-37.068h414.697c20.387,0,37.068,16.681,37.068,37.068
	V353.819z"/>
<g>
	<rect x="103.095" y="64.221" style="fill:#3B8BC0;" width="350.986" height="280.326"/>
	<path style="fill:#3B8BC0;" d="M441.339,456.464H398.06v28.959h43.279c7.997,0,14.48-6.483,14.48-14.48
		S449.337,456.464,441.339,456.464z"/>
</g>
<g>
	<polygon style="fill:#174461;" points="67.765,466.628 67.765,475.261 129.158,494.111 152.326,470.944 129.158,447.776 	"/>
	<polygon style="fill:#174461;" points="421.068,450.672 240.362,448.88 217.195,470.944 240.362,493.009 421.068,491.215 	"/>
</g>
<polygon style="fill:#3B8BC0;" points="129.158,447.776 129.158,494.111 240.362,493.009 240.362,448.88 "/>
<g>
	<path style="fill:#01121C;" d="M464.204,6.209H47.796C21.441,6.209,0,27.65,0,54.004v301.618c0,26.354,21.441,47.796,47.796,47.796
		h416.41c26.354,0,47.796-21.441,47.796-47.796V54.004C512,27.65,490.559,6.209,464.204,6.209z M488.833,355.622
		c0,13.581-11.047,24.628-24.628,24.628H47.796c-13.581,0-24.628-11.047-24.628-24.628V54.004c0-13.581,11.047-24.628,24.628-24.628
		h416.41c13.581,0,24.628,11.047,24.628,24.628v301.618H488.833z"/>
	<path style="fill:#01121C;" d="M57.842,182.719c-12.183,0-22.094,9.912-22.094,22.094c0,12.184,9.912,22.095,22.094,22.095
		c12.184,0,22.095-9.912,22.095-22.095C79.937,192.631,70.025,182.719,57.842,182.719z M57.842,205.887
		c-0.592,0-1.073-0.482-1.073-1.074s0.481-1.073,1.073-1.073c0.592,0,1.074,0.481,1.074,1.073S58.433,205.887,57.842,205.887z"/>
	<path style="fill:#01121C;" d="M46.627,169.967h21.022c6.397,0,11.584-5.187,11.584-11.584c0-6.397-5.187-11.584-11.584-11.584
		H46.627c-6.397,0-11.584,5.187-11.584,11.584C35.043,164.779,40.229,169.967,46.627,169.967z"/>
	<path style="fill:#01121C;" d="M46.627,134.046h21.022c6.397,0,11.584-5.187,11.584-11.584c0-6.397-5.187-11.584-11.584-11.584
		H46.627c-6.397,0-11.584,5.187-11.584,11.584C35.043,128.858,40.229,134.046,46.627,134.046z"/>
	<path style="fill:#01121C;" d="M67.649,275.582H46.627c-6.397,0-11.584,5.187-11.584,11.584c0,6.397,5.187,11.584,11.584,11.584
		h21.022c6.397,0,11.584-5.187,11.584-11.584C79.233,280.769,74.047,275.582,67.649,275.582z"/>
	<path style="fill:#01121C;" d="M67.649,239.662H46.627c-6.397,0-11.584,5.187-11.584,11.584c0,6.397,5.187,11.584,11.584,11.584
		h21.022c6.397,0,11.584-5.187,11.584-11.584C79.233,244.85,74.047,239.662,67.649,239.662z"/>
	<path style="fill:#01121C;" d="M453.691,52.934H102.692c-6.397,0-11.584,5.187-11.584,11.584v280.591
		c0,6.397,5.187,11.584,11.584,11.584h350.999c6.397,0,11.584-5.187,11.584-11.584V64.518
		C465.275,58.121,460.089,52.934,453.691,52.934z M442.107,333.526H114.276V76.102h327.832V333.526z"/>
	<path style="fill:#01121C;" d="M438.664,444.406H427.42c-1.991-3.406-5.661-5.712-9.887-5.752L125.984,435.9
		c-0.023,0-0.044,0.002-0.067,0.002c-0.014,0-0.028-0.002-0.043-0.002c-0.065,0-0.126,0.008-0.191,0.009
		c-0.332,0.003-0.661,0.017-0.983,0.05c-0.016,0.001-0.032,0.005-0.049,0.007c-0.354,0.037-0.704,0.09-1.049,0.16
		c-0.093,0.019-0.183,0.044-0.275,0.064c-0.247,0.057-0.493,0.116-0.737,0.189c-0.18,0.053-0.354,0.115-0.529,0.176
		c-0.107,0.037-0.214,0.066-0.32,0.107l-49.764,19.01c-1.975,0.754-3.654,2.011-4.915,3.591h-8.584
		c-6.397,0-11.584,5.187-11.584,11.584c0,6.397,5.187,11.584,11.584,11.584h8.585c1.261,1.579,2.94,2.836,4.914,3.59l49.764,19.01
		c0.097,0.037,0.199,0.064,0.298,0.098c0.192,0.067,0.385,0.134,0.58,0.192c0.163,0.049,0.329,0.087,0.495,0.127
		c0.187,0.045,0.371,0.094,0.561,0.13c0.204,0.039,0.41,0.066,0.615,0.094c0.156,0.021,0.31,0.049,0.469,0.065
		c0.37,0.036,0.743,0.057,1.116,0.057c0.036,0,0.073,0,0.11,0l291.549-2.753c4.226-0.041,7.895-2.347,9.887-5.752h11.243
		c14.579,0,26.441-11.862,26.441-26.441C465.105,456.266,453.243,444.406,438.664,444.406z M405.84,479.98l-156.432,1.477v-21.223
		l156.432,1.477V479.98z M137.458,459.178l88.783,0.839v21.66l-88.783,0.839V459.178z M114.291,464.309v13.075l-17.113-6.538
		L114.291,464.309z M438.664,474.12h-9.656v-6.546h9.656c1.806,0,3.274,1.469,3.274,3.272
		C441.938,472.651,440.469,474.12,438.664,474.12z"/>
</g>
<g>
</g>
<g>
</g>
<g>
</g>
<g>
</g>
<g>
</g>
<g>
</g>
<g>
</g>
<g>
</g>
<g>
</g>
<g>
</g>
<g>
</g>
<g>
</g>
<g>
</g>
<g>
</g>
<g>
</g>
</svg>
