<?xml version="1.0" encoding="iso-8859-1"?>
<!-- Generator: Adobe Illustrator 19.0.0, SVG Export Plug-In . SVG Version: 6.00 Build 0)  -->
<svg version="1.1" id="Layer_1" xmlns="http://www.w3.org/2000/svg" xmlns:xlink="http://www.w3.org/1999/xlink" x="0px" y="0px"
	 viewBox="0 0 511.999 511.999" style="enable-background:new 0 0 511.999 511.999;" xml:space="preserve">
<rect x="197.41" y="361.828" style="fill:#9AD7FF;" width="117.181" height="107.752"/>
<path style="fill:#4EB9FF;" d="M500.416,65.446v263.68L256,363.877L11.584,329.126V65.446c0-15.916,12.904-28.82,28.82-28.82
	h431.192C487.512,36.626,500.416,49.53,500.416,65.446z"/>
<rect x="178.482" y="128.069" style="fill:#FFFFFF;" width="155.036" height="107.3"/>
<path style="fill:#C2E7FF;" d="M500.416,329.126v21.256c0,15.916-12.904,28.82-28.82,28.82H40.404
	c-15.916,0-28.82-12.904-28.82-28.82v-21.256H500.416z"/>
<g>
	<path style="fill:#01121C;" d="M471.598,25.041H40.402C18.124,25.041,0,43.165,0,65.443v284.944
		c0,22.278,18.124,40.402,40.402,40.402h145.423v73.002h-54.704c-6.397,0-11.584,5.186-11.584,11.584
		c0,6.398,5.187,11.584,11.584,11.584h249.758c6.397,0,11.584-5.186,11.584-11.584c0-6.398-5.187-11.584-11.584-11.584h-54.704
		v-73.002h145.423c22.277,0,40.402-18.124,40.402-40.402V65.443C512,43.165,493.876,25.041,471.598,25.041z M40.402,48.208h431.197
		c9.503,0,17.234,7.731,17.234,17.234V317.54H23.167V65.443C23.167,55.939,30.898,48.208,40.402,48.208z M303.008,463.79h-94.016
		v-73.002h94.016V463.79z M471.598,367.621H40.402c-9.503,0-17.234-7.731-17.234-17.234v-9.679h465.665v9.679
		C488.833,359.89,481.102,367.621,471.598,367.621z"/>
	<path style="fill:#01121C;" d="M178.48,248.107h155.041c6.397,0,11.584-5.186,11.584-11.584V129.225
		c0-6.398-5.187-11.584-11.584-11.584H178.48c-6.397,0-11.584,5.186-11.584,11.584v107.299
		C166.896,242.92,172.083,248.107,178.48,248.107z M190.063,140.809h131.874v84.131H190.063V140.809z"/>
	<path style="fill:#01121C;" d="M367.844,140.809h8.111c6.397,0,11.584-5.186,11.584-11.584c0-6.398-5.187-11.584-11.584-11.584
		h-8.111c-6.397,0-11.584,5.186-11.584,11.584C356.261,135.623,361.447,140.809,367.844,140.809z"/>
	<path style="fill:#01121C;" d="M333.521,106.484c6.397,0,11.584-5.186,11.584-11.584v-8.11c0-6.398-5.187-11.584-11.584-11.584
		c-6.397,0-11.584,5.186-11.584,11.584v8.11C321.937,101.298,327.123,106.484,333.521,106.484z"/>
	<path style="fill:#01121C;" d="M367.844,248.107h8.111c6.397,0,11.584-5.186,11.584-11.584c0-6.398-5.187-11.584-11.584-11.584
		h-8.111c-6.397,0-11.584,5.186-11.584,11.584C356.261,242.921,361.447,248.107,367.844,248.107z"/>
	<path style="fill:#01121C;" d="M333.521,259.264c-6.397,0-11.584,5.186-11.584,11.584v8.11c0,6.398,5.187,11.584,11.584,11.584
		c6.397,0,11.584-5.186,11.584-11.584v-8.11C345.104,264.45,339.917,259.264,333.521,259.264z"/>
	<path style="fill:#01121C;" d="M136.045,140.809h8.111c6.397,0,11.584-5.186,11.584-11.584c0-6.398-5.187-11.584-11.584-11.584
		h-8.111c-6.397,0-11.584,5.186-11.584,11.584C124.461,135.623,129.648,140.809,136.045,140.809z"/>
	<path style="fill:#01121C;" d="M178.48,106.484c6.397,0,11.584-5.186,11.584-11.584v-8.11c0-6.398-5.187-11.584-11.584-11.584
		s-11.584,5.186-11.584,11.584v8.11C166.896,101.298,172.083,106.484,178.48,106.484z"/>
	<path style="fill:#01121C;" d="M136.045,248.107h8.111c6.397,0,11.584-5.186,11.584-11.584c0-6.398-5.187-11.584-11.584-11.584
		h-8.111c-6.397,0-11.584,5.186-11.584,11.584C124.461,242.921,129.648,248.107,136.045,248.107z"/>
	<path style="fill:#01121C;" d="M178.48,290.541c6.397,0,11.584-5.186,11.584-11.584v-8.11c0-6.398-5.187-11.584-11.584-11.584
		s-11.584,5.186-11.584,11.584v8.11C166.896,285.355,172.083,290.541,178.48,290.541z"/>
</g>
<g>
</g>
<g>
</g>
<g>
</g>
<g>
</g>
<g>
</g>
<g>
</g>
<g>
</g>
<g>
</g>
<g>
</g>
<g>
</g>
<g>
</g>
<g>
</g>
<g>
</g>
<g>
</g>
<g>
</g>
</svg>
