<?xml version="1.0" encoding="iso-8859-1"?>
<!-- Generator: Adobe Illustrator 19.0.0, SVG Export Plug-In . SVG Version: 6.00 Build 0)  -->
<svg version="1.1" id="Layer_1" xmlns="http://www.w3.org/2000/svg" xmlns:xlink="http://www.w3.org/1999/xlink" x="0px" y="0px"
	 viewBox="0 0 511.999 511.999" style="enable-background:new 0 0 511.999 511.999;" xml:space="preserve">
<g>
	<polygon style="fill:#FF755C;" points="11.584,428.76 83.239,500.417 140.579,486.838 99.253,412.748 25.162,371.422 	"/>
	<polygon style="fill:#FF755C;" points="500.412,83.244 428.756,11.587 371.418,25.166 412.744,99.256 486.833,140.582 	"/>
</g>
<g>
	<polygon style="fill:#FF9356;" points="486.838,140.586 371.415,25.162 255.998,140.579 297.328,214.673 371.422,256.002 	"/>
	<polygon style="fill:#FF9356;" points="25.159,371.418 140.582,486.842 255.998,371.425 214.668,297.331 140.575,256.002 	"/>
</g>
<g>
	<polygon style="fill:#FF755C;" points="256.003,371.43 242.427,428.756 314.082,500.412 371.409,486.837 330.088,412.751 	"/>
	<polygon style="fill:#FF755C;" points="500.415,314.079 428.76,242.424 371.422,256.002 412.748,330.092 486.837,371.418 	"/>
</g>
<path style="fill:#FF9356;" d="M486.837,371.418L371.421,256.002l-74.094,41.329l-41.322,74.086
	c-0.003,0.012,115.404,115.419,115.404,115.419C371.422,486.834,486.837,371.418,486.837,371.418z"/>
<g>
	<polygon style="fill:#FF755C;" points="140.57,255.997 83.244,269.573 11.587,197.918 25.163,140.59 99.249,181.913 	"/>
	<polygon style="fill:#FF755C;" points="197.921,11.585 269.577,83.241 255.998,140.579 181.908,99.253 140.582,25.164 	"/>
</g>
<path style="fill:#FF9356;" d="M140.582,25.164L255.998,140.58l-41.329,74.094l-74.086,41.322
	C140.572,256,25.165,140.593,25.165,140.593C25.166,140.579,140.582,25.164,140.582,25.164z"/>
<rect x="174.38" y="174.382" transform="matrix(-0.7071 0.7071 -0.7071 -0.7071 618.0342 256.0013)" style="fill:#FFB14E;" width="163.236" height="163.236"/>
<path style="fill:#01121C;" d="M508.607,305.888l-71.656-71.656c-2.841-2.841-6.95-4.009-10.861-3.08l-17.606,4.169l86.544-86.544
	c1.61-1.611,2.697-3.645,3.152-5.842l13.503-57.022c0.926-3.909-0.241-8.019-3.081-10.861L436.947,3.397
	c-2.841-2.84-6.954-4.01-10.86-3.08l-57,13.497c-2.149,0.438-4.198,1.491-5.865,3.158l-86.544,86.545l4.17-17.606
	c0.926-3.909-0.241-8.019-3.081-10.861L206.112,3.393c-2.841-2.84-6.95-4.008-10.86-3.08L138.088,13.85
	c-2.072,0.455-4.043,1.483-5.66,3.086c-0.001,0.001-0.002,0.002-0.003,0.003c-0.003,0.005-0.008,0.008-0.013,0.013
	c-0.001,0.001-0.003,0.003-0.005,0.005c-0.006,0.006-0.01,0.012-0.016,0.016L16.975,132.389c-0.085,0.085-0.168,0.17-0.25,0.258
	c-0.905,0.96-1.615,2.036-2.129,3.179c-0.363,0.802-0.628,1.636-0.797,2.486L0.315,195.248c-0.926,3.91,0.241,8.021,3.081,10.861
	l71.656,71.654c2.84,2.84,6.953,4.01,10.86,3.08l17.607-4.169l-86.552,86.551c-1.612,1.614-2.7,3.651-3.154,5.852L0.312,426.09
	c-0.926,3.909,0.241,8.019,3.081,10.861l71.656,71.656c2.197,2.197,5.155,3.393,8.192,3.393c0.888,0,1.784-0.102,2.669-0.313
	l57.043-13.507c2.189-0.459,4.216-1.543,5.822-3.148l86.551-86.552l-4.17,17.606c-0.926,3.91,0.241,8.019,3.081,10.861
	l71.656,71.656c2.84,2.84,6.949,4.011,10.861,3.08l56.93-13.482c1.051-0.21,2.078-0.564,3.049-1.067
	c1.068-0.553,2.065-1.279,2.949-2.181l115.346-115.345c0.006-0.006,0.012-0.012,0.016-0.017c0.001-0.001,0.002-0.002,0.003-0.003
	c0.005-0.005,0.01-0.01,0.015-0.015c0,0,0-0.001,0.001-0.001c1.603-1.617,2.632-3.591,3.087-5.663l13.537-57.162
	C512.614,312.84,511.448,308.73,508.607,305.888z M425.136,24.349l62.515,62.515l-7.306,30.849l-86.057-86.058L425.136,24.349z
	 M288.762,156.96l-16.382-16.382l99.035-99.034l99.042,99.04l-99.035,99.035l-58.088-58.088c-4.523-4.521-11.858-4.522-16.382,0
	c-4.523,4.523-4.523,11.858,0,16.383l58.088,58.088l-99.042,99.042l-99.042-99.042l99.042-99.042l16.381,16.382
	c4.525,4.522,11.858,4.523,16.383,0C293.284,168.819,293.284,161.484,288.762,156.96z M194.3,24.346l62.515,62.515l-7.305,30.849
	l-86.058-86.058L194.3,24.346z M86.864,256.812l-62.515-62.514l7.302-30.837l51.588,51.587c4.523,4.522,11.858,4.522,16.382,0
	c4.523-4.523,4.523-11.858,0-16.383L41.54,140.586l99.042-99.042l99.035,99.034l-99.042,99.042l-16.382-16.382
	c-4.522-4.522-11.858-4.522-16.382,0c-4.525,4.523-4.523,11.858,0,16.383l9.888,9.888L86.864,256.812z M86.86,487.655L24.346,425.14
	l7.306-30.849l86.057,86.057L86.86,487.655z M140.582,470.459L41.54,371.417l99.035-99.034l99.04,99.042L140.582,470.459z
	 M317.704,487.651l-62.515-62.515l7.302-30.837l86.048,86.048L317.704,487.651z M371.415,470.459l-99.035-99.034l99.042-99.042
	l99.034,99.035L371.415,470.459z M480.349,348.549l-86.057-86.059l30.847-7.306l62.515,62.515L480.349,348.549z"/>
<g>
</g>
<g>
</g>
<g>
</g>
<g>
</g>
<g>
</g>
<g>
</g>
<g>
</g>
<g>
</g>
<g>
</g>
<g>
</g>
<g>
</g>
<g>
</g>
<g>
</g>
<g>
</g>
<g>
</g>
</svg>
