<?xml version="1.0" encoding="iso-8859-1"?>
<!-- Generator: Adobe Illustrator 19.0.0, SVG Export Plug-In . SVG Version: 6.00 Build 0)  -->
<svg version="1.1" id="Layer_1" xmlns="http://www.w3.org/2000/svg" xmlns:xlink="http://www.w3.org/1999/xlink" x="0px" y="0px"
	 viewBox="0 0 512 512" style="enable-background:new 0 0 512 512;" xml:space="preserve">
<polygon style="fill:#FF4181;" points="405.364,59.876 339.117,59.876 339.117,338.494 463.282,338.494 "/>
<polygon style="fill:#FFCE47;" points="106.636,26.187 40.388,338.494 339.117,338.494 405.364,26.187 "/>
<g>
	<path style="fill:#01121C;" d="M511.745,477.642l-28.803-135.785l-45.426-214.151c-1.327-6.257-7.476-10.255-13.735-8.927
		c-6.257,1.327-10.256,7.477-8.927,13.735l42.459,200.162h-76.554c-6.396,0-11.584,5.186-11.584,11.584
		c0,6.398,5.187,11.584,11.584,11.584h81.469l26.855,126.605c1.155,5.448,5.964,9.182,11.32,9.182c0.797,0,1.605-0.082,2.415-0.255
		c5.445-1.155,9.179-5.961,9.182-11.313C512.001,479.266,511.919,478.455,511.745,477.642z"/>
	<path style="fill:#01121C;" d="M416.887,33.116c0.01-0.098,0.009-0.197,0.017-0.297c0.024-0.319,0.041-0.637,0.039-0.952
		c-0.001-0.114-0.01-0.226-0.015-0.338c-0.01-0.3-0.029-0.599-0.063-0.895c-0.014-0.122-0.034-0.242-0.052-0.364
		c-0.042-0.284-0.092-0.564-0.154-0.842c-0.029-0.13-0.061-0.257-0.095-0.386c-0.069-0.264-0.147-0.525-0.234-0.782
		c-0.045-0.133-0.089-0.268-0.14-0.4c-0.095-0.251-0.202-0.497-0.314-0.74c-0.059-0.127-0.113-0.257-0.177-0.383
		c-0.136-0.268-0.285-0.527-0.44-0.783c-0.054-0.09-0.102-0.184-0.16-0.273c-0.219-0.339-0.455-0.667-0.708-0.982
		c-0.009-0.012-0.017-0.024-0.027-0.037c-0.052-0.064-0.112-0.119-0.166-0.182c-0.203-0.24-0.41-0.473-0.631-0.696
		c-0.093-0.093-0.19-0.178-0.285-0.269c-0.205-0.192-0.414-0.379-0.632-0.557c-0.104-0.085-0.211-0.164-0.317-0.246
		c-0.222-0.168-0.451-0.328-0.686-0.48c-0.111-0.072-0.222-0.142-0.335-0.21c-0.239-0.142-0.484-0.276-0.734-0.402
		c-0.12-0.06-0.239-0.123-0.361-0.178c-0.246-0.114-0.499-0.213-0.755-0.31c-0.134-0.051-0.268-0.107-0.404-0.152
		c-0.246-0.082-0.498-0.149-0.752-0.215c-0.151-0.039-0.3-0.087-0.452-0.12c-0.029-0.006-0.056-0.016-0.085-0.023
		c-0.276-0.058-0.549-0.094-0.824-0.132c-0.103-0.014-0.204-0.037-0.307-0.049c-0.423-0.047-0.844-0.07-1.263-0.071
		c-0.003,0-0.007-0.001-0.01-0.001H106.74c-0.025,0-0.052,0-0.078,0h-0.025c-0.046,0-0.092,0.006-0.138,0.007
		c-0.342,0.003-0.682,0.017-1.018,0.051c-0.101,0.01-0.199,0.03-0.299,0.043c-0.276,0.035-0.551,0.071-0.822,0.125
		c-0.161,0.032-0.316,0.078-0.474,0.116c-0.204,0.05-0.41,0.096-0.61,0.156c-0.193,0.059-0.381,0.131-0.571,0.2
		c-0.16,0.058-0.322,0.11-0.478,0.175c-0.198,0.081-0.388,0.176-0.58,0.269c-0.145,0.07-0.291,0.133-0.432,0.209
		c-0.181,0.096-0.352,0.203-0.527,0.308c-0.147,0.088-0.297,0.173-0.439,0.266c-0.151,0.1-0.294,0.21-0.44,0.316
		c-0.158,0.116-0.317,0.228-0.469,0.351c-0.119,0.097-0.231,0.202-0.346,0.303c-0.167,0.147-0.335,0.292-0.492,0.448
		c-0.094,0.093-0.18,0.191-0.27,0.287c-0.167,0.176-0.334,0.352-0.489,0.539c-0.079,0.095-0.151,0.196-0.226,0.292
		c-0.153,0.196-0.306,0.39-0.446,0.597c-0.079,0.115-0.147,0.236-0.221,0.353c-0.123,0.195-0.248,0.388-0.36,0.592
		c-0.09,0.164-0.168,0.336-0.25,0.505c-0.08,0.164-0.166,0.326-0.239,0.495c-0.107,0.247-0.197,0.503-0.286,0.759
		c-0.035,0.101-0.078,0.197-0.11,0.299c-0.105,0.329-0.191,0.666-0.268,1.007c-0.008,0.037-0.022,0.073-0.029,0.111l-0.005,0.021
		c-0.006,0.029-0.013,0.057-0.019,0.086L29.059,341.849c-0.009,0.045-0.02,0.09-0.029,0.136L0.254,477.642
		c-1.327,6.259,2.67,12.407,8.927,13.735c0.811,0.171,1.618,0.255,2.415,0.255c5.354,0,10.165-3.735,11.32-9.182l26.855-126.605
		h113.726l26.855,126.605c1.155,5.448,5.964,9.182,11.32,9.182c0.797,0,1.605-0.082,2.415-0.255
		c6.257-1.327,10.256-7.477,8.927-13.735l-25.836-121.798h137.638l-25.836,121.798c-1.327,6.259,2.67,12.407,8.927,13.735
		c0.811,0.171,1.618,0.255,2.415,0.255c5.354,0,10.165-3.735,11.319-9.182l95.053-448.091
		C416.784,33.943,416.845,33.528,416.887,33.116z M116.02,43.539h275.046l-61.333,289.14H54.687L116.02,43.539z"/>
	<path style="fill:#01121C;" d="M304.798,101.842H172.637c-6.396,0-11.584,5.186-11.584,11.584s5.187,11.584,11.584,11.584h132.161
		c6.396,0,11.584-5.186,11.584-11.584S311.194,101.842,304.798,101.842z"/>
	<path style="fill:#01121C;" d="M294.237,151.63H162.076c-6.396,0-11.584,5.186-11.584,11.584s5.187,11.584,11.584,11.584h132.161
		c6.396,0,11.584-5.186,11.584-11.584S300.634,151.63,294.237,151.63z"/>
	<path style="fill:#01121C;" d="M283.676,201.417H151.516c-6.396,0-11.584,5.186-11.584,11.584c0,6.398,5.187,11.584,11.584,11.584
		h132.161c6.396,0,11.584-5.186,11.584-11.584C295.26,206.603,290.073,201.417,283.676,201.417z"/>
	<path style="fill:#01121C;" d="M273.114,251.206h-132.16c-6.396,0-11.584,5.186-11.584,11.584c0,6.398,5.187,11.584,11.584,11.584
		h132.161c6.396,0,11.584-5.186,11.584-11.584C284.699,256.392,279.512,251.206,273.114,251.206z"/>
</g>
<g>
</g>
<g>
</g>
<g>
</g>
<g>
</g>
<g>
</g>
<g>
</g>
<g>
</g>
<g>
</g>
<g>
</g>
<g>
</g>
<g>
</g>
<g>
</g>
<g>
</g>
<g>
</g>
<g>
</g>
</svg>
