<?xml version="1.0" encoding="iso-8859-1"?>
<!-- Generator: Adobe Illustrator 19.0.0, SVG Export Plug-In . SVG Version: 6.00 Build 0)  -->
<svg version="1.1" id="Layer_1" xmlns="http://www.w3.org/2000/svg" xmlns:xlink="http://www.w3.org/1999/xlink" x="0px" y="0px"
	 viewBox="0 0 512 512" style="enable-background:new 0 0 512 512;" xml:space="preserve">
<path style="fill:#C2E7FF;" d="M488.833,99.62h-57.919V53.285c0-6.371-5.213-11.584-11.584-11.584H23.167
	c-6.371,0-11.584,5.213-11.584,11.584v370.679c0,25.484,20.851,46.335,46.335,46.335h396.163c25.484,0,46.335-20.851,46.335-46.335
	v-312.76C500.416,104.833,495.204,99.62,488.833,99.62z"/>
<rect x="81.086" y="169.122" style="fill:#4EB9FF;" width="111.204" height="116.995"/>
<g>
	<path style="fill:#01121C;" d="M198.081,389.213H81.086c-6.398,0-11.584,5.186-11.584,11.584c0,6.398,5.186,11.584,11.584,11.584
		h116.995c6.398,0,11.584-5.186,11.584-11.584C209.665,394.399,204.479,389.213,198.081,389.213z"/>
	<path style="fill:#01121C;" d="M372.995,389.213H256c-6.398,0-11.584,5.186-11.584,11.584c0,6.398,5.186,11.584,11.584,11.584
		h116.995c6.397,0,11.584-5.186,11.584-11.584C384.579,394.399,379.392,389.213,372.995,389.213z"/>
	<path style="fill:#01121C;" d="M372.995,99.62H81.086c-6.398,0-11.584,5.186-11.584,11.584c0,6.398,5.186,11.584,11.584,11.584
		h291.91c6.397,0,11.584-5.186,11.584-11.584C384.579,104.806,379.392,99.62,372.995,99.62z"/>
	<path style="fill:#01121C;" d="M372.995,157.538H256c-6.398,0-11.584,5.186-11.584,11.584s5.186,11.584,11.584,11.584h116.995
		c6.397,0,11.584-5.186,11.584-11.584S379.392,157.538,372.995,157.538z"/>
	<path style="fill:#01121C;" d="M372.995,215.457H256c-6.398,0-11.584,5.186-11.584,11.584c0,6.398,5.186,11.584,11.584,11.584
		h116.995c6.397,0,11.584-5.186,11.584-11.584C384.579,220.643,379.392,215.457,372.995,215.457z"/>
	<path style="fill:#01121C;" d="M372.995,273.376H256c-6.398,0-11.584,5.186-11.584,11.584s5.186,11.584,11.584,11.584h116.995
		c6.397,0,11.584-5.186,11.584-11.584S379.392,273.376,372.995,273.376z"/>
	<path style="fill:#01121C;" d="M372.995,331.294H256c-6.398,0-11.584,5.186-11.584,11.584s5.186,11.584,11.584,11.584h116.995
		c6.397,0,11.584-5.186,11.584-11.584S379.392,331.294,372.995,331.294z"/>
	<path style="fill:#01121C;" d="M198.081,331.294H81.086c-6.398,0-11.584,5.186-11.584,11.584s5.186,11.584,11.584,11.584h116.995
		c6.398,0,11.584-5.186,11.584-11.584S204.479,331.294,198.081,331.294z"/>
	<path style="fill:#01121C;" d="M198.081,157.538H81.086c-6.398,0-11.584,5.186-11.584,11.584v116.995
		c0,6.398,5.186,11.584,11.584,11.584h116.995c6.398,0,11.584-5.186,11.584-11.584V169.122
		C209.665,162.725,204.479,157.538,198.081,157.538z M186.498,274.534H92.67v-93.828h93.828V274.534z"/>
	<path style="fill:#01121C;" d="M488.833,88.036h-34.751V53.285c0-12.775-10.393-23.167-23.167-23.167H23.167
		C10.393,30.118,0,40.511,0,53.285v370.679c0,31.936,25.982,57.919,57.919,57.919h396.163c31.936,0,57.919-25.982,57.919-57.919
		v-312.76C512,98.429,501.607,88.036,488.833,88.036z M488.833,423.964c0,19.162-15.589,34.751-34.751,34.751H57.919
		c-19.162,0-34.751-15.589-34.751-34.751V53.285h407.747v353.303c0,15.968,12.991,28.959,28.959,28.959
		c6.397,0,11.584-5.186,11.584-11.584c0-6.398-5.187-11.584-11.584-11.584c-3.194,0-5.792-2.598-5.792-5.792V111.204h34.751V423.964
		z"/>
</g>
<g>
</g>
<g>
</g>
<g>
</g>
<g>
</g>
<g>
</g>
<g>
</g>
<g>
</g>
<g>
</g>
<g>
</g>
<g>
</g>
<g>
</g>
<g>
</g>
<g>
</g>
<g>
</g>
<g>
</g>
</svg>
