<?xml version="1.0" encoding="iso-8859-1"?>
<!-- Generator: Adobe Illustrator 19.0.0, SVG Export Plug-In . SVG Version: 6.00 Build 0)  -->
<svg version="1.1" id="Layer_1" xmlns="http://www.w3.org/2000/svg" xmlns:xlink="http://www.w3.org/1999/xlink" x="0px" y="0px"
	 viewBox="0 0 512 512" style="enable-background:new 0 0 512 512;" xml:space="preserve">
<circle style="fill:#FFCE47;" cx="198.406" cy="211.669" r="134.371"/>
<circle style="fill:#FFEBB4;" cx="198.406" cy="211.669" r="99.62"/>
<circle style="fill:#FFC0D5;" cx="198.406" cy="211.669" r="64.869"/>
<path style="fill:#FF4181;" d="M467.763,138.155H441.38c0,0-32.137,103.212-42.312,138.501
	c-3.387,11.747-14.064,17.71-25.281,12.852L44.722,146.989c-11.218-4.858-20.397,1.17-20.397,13.395v267.364h465.665V160.384
	C489.991,148.159,479.988,138.155,467.763,138.155z"/>
<path style="fill:#01121C;" d="M500.866,419.661V174.924c6.187-0.237,11.134-5.316,11.134-11.561
	c0-6.397-5.187-11.584-11.584-11.584h-1.593c-4.741-12.98-17.211-22.271-31.811-22.271h-26.214c-0.015,0-0.031,0-0.046,0h-0.174
	c-0.188,0-0.372,0.014-0.558,0.023c-0.205,0.01-0.409,0.023-0.613,0.043c-0.263,0.027-0.525,0.058-0.782,0.102
	c-0.126,0.022-0.253,0.051-0.379,0.078c-0.231,0.048-0.459,0.1-0.685,0.161c-0.119,0.032-0.237,0.066-0.356,0.103
	c-0.255,0.078-0.505,0.164-0.752,0.258c-0.064,0.024-0.127,0.041-0.191,0.066l-99.04,39.762
	c-19.054-58.506-74.108-100.911-138.89-100.911c-55.148,0-104.902,30.692-129.823,79.106l-20.75-8.987
	c-9.002-3.898-18.258-3.447-25.395,1.238c-7.136,4.687-11.228,13-11.228,22.811v256.299C4.947,419.898,0,424.977,0,431.223
	c0,6.397,5.186,11.584,11.584,11.584h488.833c6.397,0,11.584-5.187,11.584-11.584C512,424.977,507.053,419.898,500.866,419.661z
	 M422.295,160.915c-10.132,32.708-28.121,91.032-35.242,115.726c-0.797,2.765-2.312,4.849-4.156,5.719
	c-1.535,0.723-3.365,0.636-5.441-0.264l-41.491-17.969c5.571-15.655,8.401-32.065,8.401-48.902c0-7.594-0.584-15.054-1.707-22.339
	L422.295,160.915z M198.332,92.36c67.748,0,122.866,55.118,122.866,122.865c0,13.647-2.201,26.953-6.545,39.672l-9.434-4.086
	c3.811-11.431,5.742-23.363,5.742-35.586c0-62.104-50.526-112.63-112.63-112.63c-13.284,0-26.296,2.294-38.675,6.82
	c-6.008,2.196-9.099,8.848-6.902,14.856s8.849,9.105,14.857,6.902c9.822-3.591,20.157-5.411,30.72-5.411
	c49.329,0,89.462,40.133,89.462,89.462c0,9.028-1.323,17.852-3.935,26.336l-9.482-4.106c2.1-7.183,3.182-14.624,3.182-22.229
	c0-43.686-35.541-79.227-79.227-79.227c-28.49,0-54.172,14.965-68.263,38.96l-9.438-4.088c5.454-9.522,12.655-18.043,21.21-25.018
	c4.958-4.043,5.7-11.339,1.658-16.297c-4.044-4.959-11.34-5.701-16.297-1.658c-11.426,9.317-20.928,20.833-27.926,33.725
	l-9.44-4.088C111.035,117.603,152.461,92.36,198.332,92.36z M252.883,228.146L151.567,184.27
	c10.237-15.529,27.599-25.103,46.763-25.103c30.911,0,56.059,25.148,56.059,56.059C254.39,219.625,253.874,223.944,252.883,228.146z
	 M35.077,159.919c0.175-0.092,1.345-0.27,3.475,0.653l329.699,142.783c8.215,3.556,16.927,3.542,24.53-0.043
	c7.982-3.764,13.853-10.957,16.533-20.253c8.377-29.05,31.995-105.276,39.794-130.384h17.905c5.893,0,10.687,4.794,10.687,10.687
	v256.276H34.303V163.362C34.303,161.04,34.93,160.038,35.077,159.919z"/>
<g>
</g>
<g>
</g>
<g>
</g>
<g>
</g>
<g>
</g>
<g>
</g>
<g>
</g>
<g>
</g>
<g>
</g>
<g>
</g>
<g>
</g>
<g>
</g>
<g>
</g>
<g>
</g>
<g>
</g>
</svg>
