<?xml version="1.0" encoding="iso-8859-1"?>
<!-- Generator: Adobe Illustrator 19.0.0, SVG Export Plug-In . SVG Version: 6.00 Build 0)  -->
<svg version="1.1" id="Layer_1" xmlns="http://www.w3.org/2000/svg" xmlns:xlink="http://www.w3.org/1999/xlink" x="0px" y="0px"
	 viewBox="0 0 512 512" style="enable-background:new 0 0 512 512;" xml:space="preserve">
<path style="fill:#FF4181;" d="M390.897,61.221c-20.992,25.642-73.47,43.817-134.897,43.817S142.095,86.863,121.103,61.221H12.116
	v99.066l24.231,95.714l-24.231,95.714v99.066h108.988c20.992-25.642,73.47-43.817,134.897-43.817s113.904,18.176,134.897,43.817
	h108.987V61.221H390.897z"/>
<path style="fill:#C2E7FF;" d="M416.519,293.611L214.317,269.38L12.116,293.611v58.103h316.372
	C367.996,351.714,401.905,327.774,416.519,293.611z"/>
<path style="fill:#4EB9FF;" d="M424.202,256.001c0-52.861-42.853-95.714-95.714-95.714H12.116v133.324H416.52
	C421.46,282.065,424.202,269.354,424.202,256.001z"/>
<circle style="fill:#174461;" cx="218.154" cy="226.951" r="22.178"/>
<g>
	<path style="fill:#01121C;" d="M218.158,192.656c-18.909,0-34.293,15.383-34.293,34.293s15.383,34.293,34.293,34.293
		s34.293-15.383,34.293-34.293S237.068,192.656,218.158,192.656z M218.158,237.011c-5.548,0-10.062-4.514-10.062-10.062
		c0-5.548,4.514-10.062,10.062-10.062s10.062,4.514,10.062,10.062C228.22,232.496,223.707,237.011,218.158,237.011z"/>
	<path style="fill:#01121C;" d="M499.884,49.105H390.897c-3.632,0-7.073,1.631-9.374,4.44C362.241,77.097,311.797,92.922,256,92.922
		S149.76,77.097,130.477,53.546c-2.301-2.81-5.742-4.44-9.374-4.44H12.116C5.425,49.105,0,54.531,0,61.221v389.558
		c0,6.69,5.425,12.116,12.116,12.116h108.988c3.632,0,7.073-1.631,9.374-4.44c19.282-23.552,69.726-39.376,125.523-39.376
		s106.24,15.824,125.523,39.376c2.301,2.81,5.742,4.44,9.374,4.44h108.987c6.69,0,12.116-5.425,12.116-12.116V61.221
		C512,54.531,506.575,49.105,499.884,49.105z M24.231,305.727h371.41c-15.246,20.536-39.669,33.872-67.153,33.872H24.231V305.727z
		 M408.096,281.496H24.231V172.403h304.257c46.096,0,83.598,37.502,83.598,83.598C412.086,264.89,410.678,273.453,408.096,281.496z
		 M487.769,438.663h-91.456C370.426,411.89,316.367,394.847,256,394.847s-114.425,17.043-140.313,43.816H24.231v-74.835h304.257
		c44.164,0,82.203-26.691,98.855-64.786c0.191-0.38,0.362-0.774,0.514-1.178c5.446-12.879,8.46-27.028,8.46-41.867
		c0-59.458-48.372-107.829-107.829-107.829H24.231V73.337h91.456c25.886,26.773,79.945,43.816,140.313,43.816
		s114.425-17.043,140.313-43.816h91.456V438.663z"/>
</g>
<g>
</g>
<g>
</g>
<g>
</g>
<g>
</g>
<g>
</g>
<g>
</g>
<g>
</g>
<g>
</g>
<g>
</g>
<g>
</g>
<g>
</g>
<g>
</g>
<g>
</g>
<g>
</g>
<g>
</g>
</svg>
