<?xml version="1.0" encoding="iso-8859-1"?>
<!-- Generator: Adobe Illustrator 19.0.0, SVG Export Plug-In . SVG Version: 6.00 Build 0)  -->
<svg version="1.1" id="Layer_1" xmlns="http://www.w3.org/2000/svg" xmlns:xlink="http://www.w3.org/1999/xlink" x="0px" y="0px"
	 viewBox="0 0 512 512" style="enable-background:new 0 0 512 512;" xml:space="preserve">
<path style="fill:#FF755C;" d="M461.032,23.167v465.665c0,6.371-5.213,11.584-11.584,11.584H183.023L148.271,256l34.751-244.416
	h266.425C455.819,11.584,461.032,16.796,461.032,23.167z"/>
<path style="fill:#FFC0D5;" d="M183.023,11.584v488.833H99.62c-6.371,0-11.584-5.213-11.584-11.584V23.167
	c0-6.371,5.213-11.584,11.584-11.584H183.023z"/>
<path style="fill:#01121C;" d="M449.448,0H99.62C86.845,0,76.452,10.393,76.452,23.167v44.597H50.968
	c-6.397,0-11.584,5.186-11.584,11.584c0,6.398,5.187,11.584,11.584,11.584h25.484v47.493H50.968
	c-6.397,0-11.584,5.186-11.584,11.584s5.187,11.584,11.584,11.584h25.484v47.493H50.968c-6.397,0-11.584,5.186-11.584,11.584
	s5.187,11.584,11.584,11.584h25.484v47.493H50.968c-6.397,0-11.584,5.186-11.584,11.584c0,6.398,5.187,11.584,11.584,11.584h25.484
	v47.493H50.968c-6.397,0-11.584,5.186-11.584,11.584s5.187,11.584,11.584,11.584h25.484v47.493H50.968
	c-6.397,0-11.584,5.186-11.584,11.584c0,6.398,5.187,11.584,11.584,11.584h25.484v44.597C76.452,501.607,86.845,512,99.62,512
	h349.828c12.775,0,23.167-10.393,23.167-23.167V23.167C472.615,10.393,462.223,0,449.448,0z M449.448,488.833H194.606V187.656
	c0-6.398-5.187-11.584-11.584-11.584s-11.584,5.186-11.584,11.584v301.177H99.62v-44.597h25.484c6.397,0,11.584-5.186,11.584-11.584
	c0-6.398-5.187-11.584-11.584-11.584H99.62v-47.493h25.484c6.397,0,11.584-5.186,11.584-11.584s-5.187-11.584-11.584-11.584H99.62
	v-47.493h25.484c6.397,0,11.584-5.186,11.584-11.584c0-6.398-5.187-11.584-11.584-11.584H99.62v-47.493h25.484
	c6.397,0,11.584-5.186,11.584-11.584s-5.187-11.584-11.584-11.584H99.62v-47.493h25.484c6.397,0,11.584-5.186,11.584-11.584
	c0-6.398-5.187-11.584-11.584-11.584H99.62V90.932h25.484c6.397,0,11.584-5.186,11.584-11.584s-5.187-11.584-11.584-11.584H99.62
	V23.167h71.819v124.979c0,6.398,5.187,11.584,11.584,11.584s11.584-5.186,11.584-11.584V23.167h254.842V488.833z"/>
<g>
</g>
<g>
</g>
<g>
</g>
<g>
</g>
<g>
</g>
<g>
</g>
<g>
</g>
<g>
</g>
<g>
</g>
<g>
</g>
<g>
</g>
<g>
</g>
<g>
</g>
<g>
</g>
<g>
</g>
</svg>
