<?xml version="1.0" encoding="iso-8859-1"?>
<!-- Generator: Adobe Illustrator 19.0.0, SVG Export Plug-In . SVG Version: 6.00 Build 0)  -->
<svg version="1.1" id="Layer_1" xmlns="http://www.w3.org/2000/svg" xmlns:xlink="http://www.w3.org/1999/xlink" x="0px" y="0px"
	 viewBox="0 0 512 512" style="enable-background:new 0 0 512 512;" xml:space="preserve">
<polygon style="fill:#9AD7FF;" points="107.226,11.584 202.867,404.851 407.747,404.851 500.416,312.181 500.416,11.584 "/>
<path style="fill:#4EB9FF;" d="M11.584,107.149c0,0,0,244.923,0,297.701c0,52.78,42.787,95.566,95.566,95.566
	c52.78,0,95.566-42.786,95.566-95.566c0-52.779,0-297.701,0-297.701H11.584z"/>
<circle style="fill:#C2E7FF;" cx="107.149" cy="107.149" r="95.566"/>
<circle style="fill:#4EB9FF;" cx="107.149" cy="107.149" r="56.181"/>
<circle style="fill:#174461;" cx="107.149" cy="107.149" r="17.376"/>
<polygon style="fill:#C2E7FF;" points="407.747,312.181 407.747,404.851 500.416,312.181 "/>
<g>
	<path style="fill:#01121C;" d="M78.805,107.225c0,15.67,12.749,28.421,28.421,28.421s28.419-12.749,28.419-28.421
		s-12.749-28.419-28.419-28.419S78.805,91.554,78.805,107.225z M112.478,107.225c0,2.897-2.356,5.253-5.252,5.253
		c-2.896,0-5.253-2.356-5.253-5.253c0-2.896,2.356-5.252,5.253-5.252C110.122,101.973,112.478,104.329,112.478,107.225z"/>
	<path style="fill:#01121C;" d="M62.571,107.225c0-24.623,20.032-44.655,44.655-44.655c6.398,0,11.584-5.187,11.584-11.584
		s-5.186-11.584-11.584-11.584c-37.398,0-67.823,30.426-67.823,67.823c0,6.397,5.186,11.584,11.584,11.584
		S62.571,113.622,62.571,107.225z"/>
	<path style="fill:#01121C;" d="M134.785,72.085c10.864,8.536,17.095,21.344,17.095,35.139c0,24.624-20.032,44.656-44.655,44.656
		c-6.398,0-11.584,5.187-11.584,11.584s5.186,11.584,11.584,11.584c37.398,0,67.823-30.426,67.823-67.824
		c0-20.951-9.458-40.399-25.95-53.357c-5.031-3.954-12.312-3.077-16.266,1.953C128.88,60.852,129.755,68.133,134.785,72.085z"/>
	<path style="fill:#01121C;" d="M512,11.584C512,5.187,506.814,0,500.416,0H107.226C48.101,0,0,48.1,0,107.225
		c0,0.115,0.003,0.228,0.005,0.343c0,0.029-0.005,0.057-0.005,0.087v297.121C0,463.9,48.101,512,107.226,512
		c55.21,0,100.803-41.945,106.598-95.641h194.289c0.39,0,0.778-0.02,1.163-0.059c2.354-0.235,4.5-1.175,6.225-2.605
		c0.098-0.081,0.189-0.174,0.285-0.259c0.187-0.166,0.375-0.33,0.55-0.507c0.012-0.012,0.024-0.022,0.037-0.034l92.205-93.803
		c0.023-0.023,0.046-0.047,0.069-0.071l0.03-0.031c0.042-0.042,0.076-0.088,0.117-0.131c0.214-0.224,0.423-0.453,0.617-0.693
		c0.051-0.064,0.096-0.131,0.146-0.195c0.181-0.232,0.358-0.467,0.52-0.712c0.041-0.063,0.075-0.127,0.116-0.191
		c0.161-0.254,0.319-0.512,0.46-0.778c0.027-0.051,0.049-0.104,0.075-0.155c0.144-0.281,0.281-0.568,0.402-0.862
		c0.019-0.044,0.031-0.09,0.049-0.134c0.119-0.301,0.232-0.607,0.326-0.921c0.016-0.053,0.027-0.109,0.042-0.163
		c0.087-0.302,0.167-0.608,0.229-0.921c0.021-0.105,0.03-0.212,0.049-0.317c0.044-0.264,0.09-0.526,0.117-0.796
		c0.035-0.343,0.049-0.689,0.052-1.037c0-0.036,0.006-0.072,0.006-0.108v-0.001v-0.001L512,11.584L512,11.584z M488.833,23.167
		v276.123h-80.721c-6.398,0-11.584,5.187-11.584,11.584v82.317H214.45V107.654c0-0.029-0.005-0.057-0.005-0.086
		c0-0.115,0.005-0.228,0.005-0.343c0-34.027-15.936-64.401-40.733-84.057h315.115V23.167z M472.783,322.458l-53.088,54.009v-54.009
		H472.783z M107.226,23.167c46.35,0,84.057,37.708,84.057,84.057c0,46.351-37.708,84.058-84.057,84.058
		c-46.35,0.001-84.058-37.707-84.058-84.058C23.167,60.876,60.876,23.167,107.226,23.167z M107.226,488.833
		c-46.35,0-84.058-37.708-84.058-84.057V173.719c19.656,24.797,50.03,40.733,84.058,40.733c34.027,0,64.401-15.936,84.057-40.733
		v231.057C191.283,451.124,153.576,488.833,107.226,488.833z"/>
</g>
<g>
</g>
<g>
</g>
<g>
</g>
<g>
</g>
<g>
</g>
<g>
</g>
<g>
</g>
<g>
</g>
<g>
</g>
<g>
</g>
<g>
</g>
<g>
</g>
<g>
</g>
<g>
</g>
<g>
</g>
</svg>
