<?xml version="1.0" encoding="iso-8859-1"?>
<!-- Generator: Adobe Illustrator 19.0.0, SVG Export Plug-In . SVG Version: 6.00 Build 0)  -->
<svg version="1.1" id="Layer_1" xmlns="http://www.w3.org/2000/svg" xmlns:xlink="http://www.w3.org/1999/xlink" x="0px" y="0px"
	 viewBox="0 0 512 512" style="enable-background:new 0 0 512 512;" xml:space="preserve">
<rect x="236.076" y="385.529" style="fill:#FF755C;" width="39.847" height="120.679"/>
<polygon style="fill:#85C250;" points="402.524,408.7 338.972,303.897 387.871,303.897 324.318,199.094 373.219,199.094 
	256.001,5.792 138.782,199.094 187.683,199.094 124.13,303.897 173.031,303.897 109.478,408.7 "/>
<g>
	<path style="fill:#01121C;" d="M412.616,420.175c2.051-3.644,1.98-8.113-0.189-11.69l-52.885-87.213h28.328
		c4.183,0,8.04-2.255,10.094-5.9c2.051-3.644,1.98-8.113-0.189-11.69l-52.885-87.213h28.329c4.183,0,8.04-2.255,10.094-5.9
		c2.051-3.644,1.98-8.113-0.189-11.69L265.905,5.578C263.806,2.115,260.05,0,256,0c-4.05,0-7.805,2.115-9.905,5.578L128.878,198.88
		c-2.17,3.577-2.241,8.045-0.189,11.69c2.051,3.644,5.91,5.9,10.093,5.9h28.328l-52.885,87.213
		c-2.168,3.577-2.241,8.045-0.189,11.69c2.051,3.644,5.91,5.9,10.093,5.9h28.329l-52.885,87.213
		c-2.17,3.577-2.241,8.045-0.189,11.69c2.051,3.644,5.91,5.9,10.093,5.9h115.016v74.342c0,6.398,5.186,11.584,11.584,11.584
		c6.398,0,11.584-5.186,11.584-11.584v-74.341h16.679v74.341c0,6.398,5.187,11.584,11.584,11.584s11.584-5.186,11.584-11.584
		v-74.341h115.016C406.706,426.076,410.564,423.82,412.616,420.175z M130.049,402.908l52.885-87.213
		c2.168-3.577,2.241-8.045,0.189-11.69c-2.051-3.644-5.91-5.9-10.093-5.9h-28.329l52.885-87.213
		c2.168-3.577,2.241-8.045,0.189-11.69c-2.051-3.644-5.91-5.9-10.093-5.9h-28.328L256,33.924l96.648,159.378h-28.329
		c-4.183,0-8.04,2.255-10.094,5.9c-2.051,3.644-1.98,8.113,0.189,11.69l52.885,87.213h-28.328c-4.183,0-8.04,2.255-10.094,5.9
		c-2.051,3.644-1.98,8.113,0.189,11.69l52.885,87.213H130.049V402.908z"/>
	<path style="fill:#01121C;" d="M310.674,470.201c-6.397,0-11.584,5.186-11.584,11.584v18.631c0,6.398,5.187,11.584,11.584,11.584
		c6.397,0,11.584-5.186,11.584-11.584v-18.631C322.258,475.387,317.072,470.201,310.674,470.201z"/>
	<path style="fill:#01121C;" d="M345.425,470.201c-6.397,0-11.584,5.186-11.584,11.584v18.631c0,6.398,5.187,11.584,11.584,11.584
		c6.397,0,11.584-5.186,11.584-11.584v-18.631C357.009,475.387,351.823,470.201,345.425,470.201z"/>
	<path style="fill:#01121C;" d="M380.176,470.201c-6.397,0-11.584,5.186-11.584,11.584v18.631c0,6.398,5.187,11.584,11.584,11.584
		c6.397,0,11.584-5.186,11.584-11.584v-18.631C391.76,475.387,386.574,470.201,380.176,470.201z"/>
	<path style="fill:#01121C;" d="M414.927,470.201c-6.397,0-11.584,5.186-11.584,11.584v18.631c0,6.398,5.187,11.584,11.584,11.584
		s11.584-5.186,11.584-11.584v-18.631C426.511,475.387,421.325,470.201,414.927,470.201z"/>
	<path style="fill:#01121C;" d="M449.678,470.201c-6.397,0-11.584,5.186-11.584,11.584v18.631c0,6.398,5.187,11.584,11.584,11.584
		c6.397,0,11.584-5.186,11.584-11.584v-18.631C461.262,475.387,456.076,470.201,449.678,470.201z"/>
	<path style="fill:#01121C;" d="M484.43,470.201c-6.397,0-11.584,5.186-11.584,11.584v18.631c0,6.398,5.187,11.584,11.584,11.584
		c6.397,0,11.584-5.186,11.584-11.584v-18.631C496.013,475.387,490.827,470.201,484.43,470.201z"/>
	<path style="fill:#01121C;" d="M201.326,470.201c-6.398,0-11.584,5.186-11.584,11.584v18.631c0,6.398,5.186,11.584,11.584,11.584
		c6.398,0,11.584-5.186,11.584-11.584v-18.631C212.91,475.387,207.723,470.201,201.326,470.201z"/>
	<path style="fill:#01121C;" d="M166.575,470.201c-6.398,0-11.584,5.186-11.584,11.584v18.631c0,6.398,5.186,11.584,11.584,11.584
		c6.398,0,11.584-5.186,11.584-11.584v-18.631C178.159,475.387,172.971,470.201,166.575,470.201z"/>
	<path style="fill:#01121C;" d="M131.824,470.201c-6.398,0-11.584,5.186-11.584,11.584v18.631c0,6.398,5.186,11.584,11.584,11.584
		s11.584-5.186,11.584-11.584v-18.631C143.408,475.387,138.22,470.201,131.824,470.201z"/>
	<path style="fill:#01121C;" d="M97.073,470.201c-6.398,0-11.584,5.186-11.584,11.584v18.631c0,6.398,5.186,11.584,11.584,11.584
		c6.398,0,11.584-5.186,11.584-11.584v-18.631C108.656,475.387,103.469,470.201,97.073,470.201z"/>
	<path style="fill:#01121C;" d="M62.322,470.201c-6.398,0-11.584,5.186-11.584,11.584v18.631c0,6.398,5.186,11.584,11.584,11.584
		s11.584-5.186,11.584-11.584v-18.631C73.905,475.387,68.718,470.201,62.322,470.201z"/>
	<path style="fill:#01121C;" d="M27.57,470.201c-6.398,0-11.584,5.186-11.584,11.584v18.631c0,6.398,5.186,11.584,11.584,11.584
		s11.584-5.186,11.584-11.584v-18.631C39.154,475.387,33.967,470.201,27.57,470.201z"/>
</g>
<g>
</g>
<g>
</g>
<g>
</g>
<g>
</g>
<g>
</g>
<g>
</g>
<g>
</g>
<g>
</g>
<g>
</g>
<g>
</g>
<g>
</g>
<g>
</g>
<g>
</g>
<g>
</g>
<g>
</g>
</svg>
