<?xml version="1.0" encoding="iso-8859-1"?>
<!-- Generator: Adobe Illustrator 19.0.0, SVG Export Plug-In . SVG Version: 6.00 Build 0)  -->
<svg version="1.1" id="Layer_1" xmlns="http://www.w3.org/2000/svg" xmlns:xlink="http://www.w3.org/1999/xlink" x="0px" y="0px"
	 viewBox="0 0 512.001 512.001" style="enable-background:new 0 0 512.001 512.001;" xml:space="preserve">
<polygon style="fill:#174461;" points="456.248,374.315 256.001,500.415 256.001,445.659 369.289,374.315 256.001,302.983 
	209.666,229.021 268.349,256 "/>
<polygon style="fill:#3B8BC0;" points="180.392,189.992 55.754,137.684 55.754,374.315 256.001,500.415 256.001,263.772 "/>
<polygon style="fill:#174461;" points="256.001,11.584 55.754,137.684 256.001,263.772 456.248,137.684 "/>
<path style="fill:#C2E7FF;" d="M199.354,173.35c-31.155-19.618-31.155-51.722,0-71.34s82.138-19.618,113.293,0
	s31.155,51.721,0,71.34C281.492,192.968,230.51,192.968,199.354,173.35z"/>
<g>
	<path style="fill:#01121C;" d="M462.421,364.518L290.087,256l172.334-108.518c3.369-2.121,5.412-5.822,5.412-9.802
		s-2.043-7.681-5.412-9.802L262.172,1.782c-3.772-2.376-8.572-2.376-12.344,0L49.581,127.878c-0.181,0.114-0.345,0.242-0.518,0.364
		c-0.104,0.074-0.212,0.144-0.314,0.221c-0.378,0.286-0.737,0.59-1.07,0.913c-0.028,0.028-0.053,0.058-0.081,0.086
		c-0.308,0.306-0.593,0.627-0.862,0.96c-0.07,0.086-0.136,0.174-0.202,0.261c-0.236,0.312-0.455,0.631-0.657,0.963
		c-0.044,0.072-0.092,0.141-0.134,0.214c-0.234,0.403-0.445,0.818-0.628,1.244c-0.032,0.074-0.057,0.152-0.087,0.227
		c-0.142,0.353-0.268,0.711-0.374,1.075c-0.038,0.129-0.074,0.257-0.108,0.387c-0.101,0.389-0.182,0.782-0.242,1.18
		c-0.009,0.06-0.024,0.119-0.032,0.181c-0.063,0.464-0.089,0.935-0.095,1.405c0,0.041-0.008,0.081-0.008,0.122v236.64
		c0,3.98,2.043,7.681,5.412,9.802l200.248,126.095c0.083,0.052,0.174,0.088,0.258,0.138c0.292,0.174,0.59,0.331,0.894,0.478
		c0.176,0.085,0.35,0.169,0.529,0.244c0.299,0.125,0.604,0.232,0.91,0.331c0.186,0.06,0.371,0.127,0.558,0.178
		c0.334,0.09,0.672,0.154,1.012,0.214c0.162,0.029,0.322,0.069,0.484,0.092c0.509,0.067,1.021,0.108,1.535,0.108
		c0.124,0,0.248-0.022,0.373-0.025c0.372-0.012,0.744-0.029,1.114-0.076c0.219-0.029,0.436-0.082,0.653-0.124
		c0.284-0.053,0.566-0.103,0.847-0.178c0.22-0.059,0.436-0.139,0.653-0.212c0.277-0.093,0.554-0.185,0.825-0.299
		c0.205-0.086,0.405-0.188,0.607-0.286c0.171-0.083,0.348-0.151,0.515-0.243c0.103-0.057,0.195-0.131,0.295-0.19
		c0.092-0.054,0.188-0.092,0.278-0.148l200.248-126.098c3.369-2.121,5.412-5.822,5.412-9.802S465.789,366.638,462.421,364.518z
		 M267.584,323.962l79.97,50.358l-79.97,50.358V323.962L267.584,323.962z M256.001,25.272L434.51,137.679L256.001,250.086
		L77.49,137.679L256.001,25.272z M244.417,479.433L67.336,367.925V158.663l177.081,111.508V479.433z M267.584,479.433v-27.379
		l107.881-67.932c3.369-2.121,5.412-5.822,5.412-9.802s-2.043-7.681-5.412-9.802l-107.881-67.932v-26.415l0.766-0.482
		l166.161,104.632L267.584,479.433z"/>
	<path style="fill:#01121C;" d="M193.182,183.152L193.182,183.152c16.891,10.637,39.201,16.496,62.817,16.496
		s45.926-5.859,62.819-16.496c18.557-11.686,28.777-27.834,28.777-45.472s-10.22-33.786-28.779-45.472
		c-16.892-10.637-39.203-16.496-62.818-16.496s-45.926,5.859-62.817,16.496c-18.558,11.686-28.779,27.834-28.779,45.472
		S174.624,171.467,193.182,183.152z M205.527,111.812C219.206,103.197,237.602,98.89,256,98.89s36.794,4.307,50.474,12.922
		c11.579,7.291,17.956,16.478,17.956,25.869s-6.377,18.577-17.955,25.869c-27.361,17.228-73.589,17.227-100.947,0
		c-0.001,0-0.001,0-0.001,0c-11.578-7.291-17.955-16.478-17.955-25.869C187.571,128.29,193.948,119.103,205.527,111.812z"/>
</g>
<g>
</g>
<g>
</g>
<g>
</g>
<g>
</g>
<g>
</g>
<g>
</g>
<g>
</g>
<g>
</g>
<g>
</g>
<g>
</g>
<g>
</g>
<g>
</g>
<g>
</g>
<g>
</g>
<g>
</g>
</svg>
