<svg id="Capa_1" enable-background="new 0 0 512 512" height="512" viewBox="0 0 512 512" width="512" xmlns="http://www.w3.org/2000/svg"><g><g><path d="m384.258 408h-352.71c-13.281 0-24.048-2.444-24.048-15.726v-320.645c0-13.282 10.767-24.048 24.048-24.048h352.71c13.282 0 24.048 10.767 24.048 24.048v320.645c0 13.282-10.766 15.726-24.048 15.726z" fill="#eceaec"/><path d="m31.548 111.71h-24.048v280.565c0 13.282 10.767 24.048 24.048 24.048h352.71c13.282 0 24.048-10.767 24.048-24.048h-368.741c-4.427 0-8.016-3.589-8.016-8.016v-272.549z" fill="#dad8db"/><path d="m384.258 47.581h-352.71c-13.281 0-24.048 10.766-24.048 24.048v40.081h400.806v-40.081c0-13.282-10.766-24.048-24.048-24.048z" fill="#ffa95f"/><path d="m63.613 79.645c-8.854 0-16.032-7.178-16.032-16.032v-32.065c0-8.854 7.178-16.032 16.032-16.032 8.854 0 16.032 7.178 16.032 16.032v32.065c0 8.854-7.178 16.032-16.032 16.032z" fill="#eceaec"/><path d="m63.613 79.645c-8.854 0-16.032-7.178-16.032-16.032v-16.032h32.065v16.032c-.001 8.854-7.179 16.032-16.033 16.032z" fill="#dad8db"/><path d="m352.194 79.645c-8.854 0-16.032-7.178-16.032-16.032v-32.065c0-8.854 7.178-16.032 16.032-16.032 8.854 0 16.032 7.178 16.032 16.032v32.065c0 8.854-7.178 16.032-16.032 16.032z" fill="#eceaec"/><path d="m352.194 79.645c-8.854 0-16.032-7.178-16.032-16.032v-16.032h32.065v16.032c-.001 8.854-7.179 16.032-16.033 16.032z" fill="#dad8db"/><path d="m31.548 71.629v-24.048c-13.281 0-24.048 10.766-24.048 24.048v40.081h400.806v-24.049h-360.725c-8.855 0-16.033-7.178-16.033-16.032z" fill="#ff8b5a"/><circle cx="392.274" cy="384.258" fill="#fff" r="112.226"/><circle cx="392.274" cy="384.258" fill="#eceaec" r="88.177"/><circle cx="392.274" cy="384.258" fill="#fff" r="40.081"/></g><g><path d="m247.986 408.822h-216.438c-9.125 0-16.548-7.423-16.548-16.548v-273.064h385.807v120.756c0 4.143 3.358 7.5 7.5 7.5s7.5-3.357 7.5-7.5v-168.337c0-17.396-14.152-31.548-31.548-31.548h-8.533v-8.532c0-12.976-10.557-23.532-23.532-23.532s-23.532 10.556-23.532 23.532v8.532h-216.953c-4.142 0-7.5 3.358-7.5 7.5s3.358 7.5 7.5 7.5h216.952v8.533c0 12.976 10.557 23.532 23.532 23.532s23.532-10.557 23.532-23.532v-8.533h8.533c9.125 0 16.548 7.423 16.548 16.548v32.581h-385.806v-32.581c0-9.125 7.423-16.548 16.548-16.548h8.532v8.533c0 12.976 10.557 23.532 23.532 23.532s23.532-10.557 23.532-23.532v-32.066c0-12.976-10.557-23.532-23.532-23.532s-23.531 10.556-23.531 23.532v8.532h-8.532c-17.397.001-31.549 14.153-31.549 31.549v320.646c0 17.396 14.152 31.548 31.548 31.548h216.438c4.142 0 7.5-3.357 7.5-7.5 0-4.142-3.358-7.501-7.5-7.501zm104.207-336.676c-4.705 0-8.532-3.828-8.532-8.532v-32.066c0-4.705 3.828-8.532 8.532-8.532s8.532 3.828 8.532 8.532v32.065c.001 4.704-3.827 8.533-8.532 8.533zm-297.112-40.598c0-4.705 3.828-8.532 8.532-8.532s8.532 3.828 8.532 8.532v32.065c0 4.704-3.828 8.532-8.532 8.532s-8.532-3.828-8.532-8.532z"/><path d="m392.274 264.532c-66.017 0-119.726 53.709-119.726 119.726s53.709 119.726 119.726 119.726 119.726-53.709 119.726-119.726-53.708-119.726-119.726-119.726zm0 224.452c-57.746 0-104.726-46.98-104.726-104.726s46.98-104.726 104.726-104.726 104.726 46.98 104.726 104.726-46.979 104.726-104.726 104.726z"/><path d="m471.535 357.838c-1.311-3.93-5.558-6.054-9.487-4.743l-50.996 16.999c-4.3-5.686-11.116-9.368-18.777-9.368-3.758 0-7.309.89-10.464 2.463l-40.346-40.347c-2.929-2.929-7.678-2.929-10.606 0-2.929 2.929-2.929 7.678 0 10.606l40.346 40.347c-1.573 3.154-2.463 6.706-2.463 10.463 0 12.976 10.557 23.532 23.533 23.532 12.955 0 23.497-10.523 23.531-23.47l50.986-16.995c3.929-1.31 6.052-5.557 4.743-9.487zm-79.261 34.952c-4.705 0-8.533-3.827-8.533-8.532 0-4.704 3.828-8.532 8.533-8.532s8.532 3.828 8.532 8.532c.001 4.705-3.827 8.532-8.532 8.532z"/><path d="m235.571 344.193c.982.432 2.006.636 3.014.636 2.884 0 5.635-1.674 6.87-4.484l66.843-152.059c1.02-2.319.799-4.997-.585-7.118s-3.747-3.4-6.28-3.4h-83.652c-4.142 0-7.5 3.358-7.5 7.5s3.358 7.5 7.5 7.5h72.162l-62.219 141.542c-1.667 3.792.055 8.216 3.847 9.883z"/><path d="m168.765 257.282c-24.202 34.58-38.655 53.504-46.419 63.671-8.966 11.74-10.832 14.183-9.366 18.949.791 2.569 2.771 4.551 5.434 5.439 1.008.336 2.981.995 31.65.995 11.368 0 26.937-.104 48.303-.372 4.142-.052 7.457-3.452 7.405-7.594s-3.485-7.439-7.594-7.405c-23.977.302-50.216.449-64.822.285.298-.392.603-.79.91-1.192 7.831-10.253 22.407-29.339 46.788-64.174 9-12.859 14.83-24.842 17.328-35.617.057-.246.102-.494.133-.744l.751-5.882c.041-.315.061-.633.061-.951 0-25.59-20.819-46.409-46.409-46.409-22.127 0-41.279 15.738-45.538 37.421-.798 4.064 1.85 8.006 5.914 8.805 4.063.798 8.006-1.85 8.805-5.914 2.881-14.667 15.842-25.313 30.819-25.313 17.168 0 31.163 13.846 31.406 30.957l-.638 4.995c-2.113 8.814-7.131 18.921-14.921 30.05z"/></g></g></svg>