<svg id="Capa_1" enable-background="new 0 0 512 512" height="512" viewBox="0 0 512 512" width="512" xmlns="http://www.w3.org/2000/svg"><g><g><path d="m384.258 410h-352.71c-13.281 0-24.048-4.444-24.048-17.726v-320.645c0-13.282 10.767-24.048 24.048-24.048h352.71c13.282 0 24.048 10.767 24.048 24.048v320.645c0 13.282-10.766 17.726-24.048 17.726z" fill="#eceaec"/><path d="m31.548 111.71h-24.048v280.565c0 13.282 10.767 24.048 24.048 24.048h352.71c13.282 0 24.048-10.767 24.048-24.048h-368.741c-4.427 0-8.016-3.589-8.016-8.016v-272.549z" fill="#dad8db"/><path d="m384.258 47.581h-352.71c-13.281 0-24.048 10.766-24.048 24.048v40.081h400.806v-40.081c0-13.282-10.766-24.048-24.048-24.048z" fill="#b3e59f"/><path d="m63.613 79.645c-8.854 0-16.032-7.178-16.032-16.032v-32.065c0-8.854 7.178-16.032 16.032-16.032 8.854 0 16.032 7.178 16.032 16.032v32.065c0 8.854-7.178 16.032-16.032 16.032z" fill="#c8c5c9"/><path d="m63.613 79.645c-8.854 0-16.032-7.178-16.032-16.032v-16.032h32.065v16.032c-.001 8.854-7.179 16.032-16.033 16.032z" fill="#b6b1b7"/><path d="m352.194 79.645c-8.854 0-16.032-7.178-16.032-16.032v-32.065c0-8.854 7.178-16.032 16.032-16.032 8.854 0 16.032 7.178 16.032 16.032v32.065c0 8.854-7.178 16.032-16.032 16.032z" fill="#c8c5c9"/><path d="m352.194 79.645c-8.854 0-16.032-7.178-16.032-16.032v-16.032h32.065v16.032c-.001 8.854-7.179 16.032-16.033 16.032z" fill="#b6b1b7"/><path d="m31.548 71.629v-24.048c-13.281 0-24.048 10.766-24.048 24.048v40.081h400.806v-24.049h-360.725c-8.855 0-16.033-7.178-16.033-16.032z" fill="#95d6a4"/><path d="m344.177 376.242h-240.483c-8.854 0-16.032-7.178-16.032-16.032v-160.323c0-8.854 7.178-16.032 16.032-16.032h240.484c8.854 0 16.032 7.178 16.032 16.032v160.323c0 8.854-7.178 16.032-16.033 16.032z" fill="#dad8db"/><path d="m312.113 344.177h-240.484c-8.854 0-16.032-7.178-16.032-16.032v-160.322c0-8.854 7.178-16.032 16.032-16.032h240.484c8.854 0 16.032 7.178 16.032 16.032v160.323c0 8.854-7.178 16.031-16.032 16.031z" fill="#fff"/><circle cx="392.274" cy="384.258" fill="#b3e59f" r="112.226"/><path d="m408.306 480.452c-61.98 0-112.226-50.245-112.226-112.226 0-26.906 9.49-51.584 25.276-70.917-25.202 20.579-41.309 51.875-41.309 86.949 0 61.981 50.246 112.226 112.226 112.226 35.074 0 66.37-16.107 86.949-41.309-19.331 15.787-44.01 25.277-70.916 25.277z" fill="#95d6a4"/></g><g><path d="m247.986 408.822h-216.438c-9.125 0-16.548-7.423-16.548-16.548v-273.064h385.807v120.756c0 4.143 3.358 7.5 7.5 7.5s7.5-3.357 7.5-7.5v-168.337c0-17.396-14.152-31.548-31.548-31.548h-8.533v-8.532c0-12.976-10.557-23.532-23.532-23.532s-23.532 10.556-23.532 23.532v8.532h-216.953c-4.142 0-7.5 3.358-7.5 7.5s3.358 7.5 7.5 7.5h216.952v8.533c0 12.976 10.557 23.532 23.532 23.532s23.532-10.557 23.532-23.532v-8.533h8.533c9.125 0 16.548 7.423 16.548 16.548v32.581h-385.806v-32.581c0-9.125 7.423-16.548 16.548-16.548h8.532v8.533c0 12.976 10.557 23.532 23.532 23.532s23.532-10.557 23.532-23.532v-32.066c0-12.976-10.557-23.532-23.532-23.532s-23.531 10.556-23.531 23.532v8.532h-8.532c-17.397.001-31.549 14.153-31.549 31.549v320.646c0 17.396 14.152 31.548 31.548 31.548h216.438c4.142 0 7.5-3.357 7.5-7.5 0-4.142-3.358-7.501-7.5-7.501zm104.207-336.676c-4.705 0-8.532-3.828-8.532-8.532v-32.066c0-4.705 3.828-8.532 8.532-8.532s8.532 3.828 8.532 8.532v32.065c.001 4.704-3.827 8.533-8.532 8.533zm-297.112-40.598c0-4.705 3.828-8.532 8.532-8.532s8.532 3.828 8.532 8.532v32.065c0 4.704-3.828 8.532-8.532 8.532s-8.532-3.828-8.532-8.532z"/><path d="m392.274 264.532c-8.418 0-16.633.878-24.565 2.539v-67.184c0-12.976-10.557-23.533-23.532-23.533h-8.532v-8.532c0-12.976-10.557-23.532-23.532-23.532h-240.484c-12.976 0-23.532 10.557-23.532 23.532v160.323c0 12.976 10.557 23.532 23.532 23.532h8.532v8.532c0 12.976 10.557 23.532 23.532 23.532h168.862c-.001.172-.007.343-.007.516 0 66.017 53.709 119.726 119.726 119.726s119.726-53.708 119.726-119.725-53.708-119.726-119.726-119.726zm-48.097-73.178c4.705 0 8.532 3.828 8.532 8.533v71.372c-5.912 2.076-11.615 4.6-17.064 7.538v-87.442h8.532zm-281.08 136.792v-160.324c0-4.704 3.828-8.532 8.532-8.532h240.484c4.705 0 8.532 3.828 8.532 8.532v120.558c-16.593 12.428-29.861 29.061-38.225 48.298h-210.791c-4.705 0-8.532-3.828-8.532-8.532zm40.596 40.596c-4.705 0-8.532-3.828-8.532-8.532v-8.532h181.894c-1.568 5.537-2.745 11.235-3.503 17.064zm288.581 120.242c-57.746 0-104.726-46.98-104.726-104.726s46.98-104.726 104.726-104.726 104.726 46.98 104.726 104.726-46.979 104.726-104.726 104.726z"/><path d="m448.387 376.758h-48.613v-48.612c0-4.143-3.358-7.5-7.5-7.5s-7.5 3.357-7.5 7.5v48.612h-48.613c-4.142 0-7.5 3.358-7.5 7.5 0 4.143 3.358 7.5 7.5 7.5h48.613v48.613c0 4.142 3.358 7.5 7.5 7.5s7.5-3.358 7.5-7.5v-48.613h48.613c4.142 0 7.5-3.357 7.5-7.5 0-4.142-3.358-7.5-7.5-7.5z"/><path d="m103.693 215.403h16.032c4.142 0 7.5-3.358 7.5-7.5s-3.358-7.5-7.5-7.5h-16.032c-4.142 0-7.5 3.358-7.5 7.5s3.358 7.5 7.5 7.5z"/><path d="m103.693 255.484h16.032c4.142 0 7.5-3.358 7.5-7.5s-3.358-7.5-7.5-7.5h-16.032c-4.142 0-7.5 3.358-7.5 7.5s3.358 7.5 7.5 7.5z"/><path d="m103.693 295.564h16.032c4.142 0 7.5-3.358 7.5-7.5s-3.358-7.5-7.5-7.5h-16.032c-4.142 0-7.5 3.358-7.5 7.5s3.358 7.5 7.5 7.5z"/><path d="m151.791 215.403h128.258c4.142 0 7.5-3.358 7.5-7.5s-3.358-7.5-7.5-7.5h-128.258c-4.142 0-7.5 3.358-7.5 7.5s3.357 7.5 7.5 7.5z"/><path d="m151.791 255.484h128.258c4.142 0 7.5-3.358 7.5-7.5s-3.358-7.5-7.5-7.5h-128.258c-4.142 0-7.5 3.358-7.5 7.5s3.357 7.5 7.5 7.5z"/><path d="m151.791 295.564h128.258c4.142 0 7.5-3.358 7.5-7.5s-3.358-7.5-7.5-7.5h-128.258c-4.142 0-7.5 3.358-7.5 7.5s3.357 7.5 7.5 7.5z"/></g></g></svg>