<?xml version="1.0" encoding="iso-8859-1"?>
<!-- Generator: Adobe Illustrator 19.0.0, SVG Export Plug-In . SVG Version: 6.00 Build 0)  -->
<svg version="1.1" id="Capa_1" xmlns="http://www.w3.org/2000/svg" xmlns:xlink="http://www.w3.org/1999/xlink" x="0px" y="0px"
	 viewBox="0 0 512 512" style="enable-background:new 0 0 512 512;" xml:space="preserve">
<path style="fill:#DFF3FF;" d="M316.141,225.855H195.859c-68.433,0-123.909,55.476-123.909,123.909v54.455h368.1v-54.455
	C440.05,281.331,384.574,225.855,316.141,225.855z"/>
<polygon style="fill:#FFFFFF;" points="324.658,225.855 256,294.513 187.342,225.855 "/>
<circle style="fill:#FFC870;" cx="34" cy="477.94" r="24"/>
<circle style="fill:#BAEE83;" cx="107.72" cy="404.22" r="24"/>
<circle style="fill:#FE6663;" cx="276" cy="404.22" r="24"/>
<path style="fill:#FFCDAC;" d="M330.351,93.766v57.497c0,41.202-33.401,74.603-74.602,74.603l0,0
	c-41.202,0-74.602-33.401-74.602-74.603V93.766H330.351z"/>
<path style="fill:#5CC1FF;" d="M220.745,10h116.367v50.18c0,26.027-21.099,47.127-47.127,47.127h-85.458
	c-17.839,0-32.301-14.461-32.301-32.301V58.519C172.226,31.723,193.949,10,220.745,10z"/>
<circle style="fill:#FFBC53;" cx="424" cy="424" r="78"/>
<path d="M71.95,366.069c2.63,0,5.21-1.069,7.069-2.93c1.86-1.87,2.931-4.439,2.931-7.07c0-2.63-1.07-5.21-2.931-7.079
	c-1.859-1.86-4.439-2.921-7.069-2.921c-2.631,0-5.21,1.061-7.07,2.921c-1.86,1.869-2.93,4.439-2.93,7.079
	c0,2.631,1.069,5.2,2.93,7.07C66.74,365,69.319,366.069,71.95,366.069z"/>
<path d="M72.9,331.343c0.762,0.177,1.522,0.262,2.272,0.262c4.546,0,8.658-3.12,9.731-7.738
	c11.126-47.876,50.926-82.387,98.94-87.366l65.084,65.084c1.953,1.952,4.512,2.929,7.071,2.929c2.559,0,5.118-0.977,7.071-2.929
	l65.092-65.091c18.378,1.928,35.943,8.261,51.376,18.619c4.585,3.078,10.798,1.857,13.876-2.729
	c3.078-4.586,1.856-10.799-2.729-13.876c-22.077-14.818-47.854-22.651-74.544-22.651h-5.84
	c18.36-15.531,30.049-38.717,30.049-64.593V87.107c4.309-8.028,6.761-17.195,6.761-26.927V10c0-5.522-4.478-10-10-10H220.745
	c-32.268,0-58.519,26.251-58.519,58.519v16.488c0,9.769,3.337,18.767,8.919,25.935v50.321c0,25.875,11.688,49.062,30.049,64.593
	h-5.336c-30.42,0-60.202,10.479-83.862,29.507c-23.301,18.738-39.841,45.011-46.572,73.977
	C64.174,324.719,67.521,330.093,72.9,331.343z M182.227,58.519C182.227,37.28,199.506,20,220.746,20h106.366v40.181
	c0,20.472-16.655,37.127-37.127,37.127h-85.458c-12.296,0-22.3-10.004-22.3-22.301L182.227,58.519L182.227,58.519z M191.146,151.263
	v-36.137c4.208,1.408,8.705,2.182,13.381,2.182h85.458c11.153,0,21.563-3.225,30.366-8.774v42.729
	c0,35.493-28.773,64.384-64.218,64.593h-0.77C219.918,215.646,191.146,186.756,191.146,151.263z M255.748,235.865
	c0.129,0,0.256-0.009,0.385-0.01h44.383L256,280.371l-44.515-44.516h43.878C255.492,235.856,255.619,235.865,255.748,235.865z"/>
<path d="M276,370.219c-15.269,0-28.217,10.117-32.497,24H140.216c-4.28-13.883-17.228-24-32.497-24c-18.748,0-34,15.252-34,34
	c0,5.741,1.436,11.151,3.958,15.899l-27.778,27.778c-4.748-2.523-10.158-3.958-15.899-3.958c-18.748,0-34,15.252-34,34
	s15.252,34,34,34s34-15.252,34-34c0-5.741-1.436-11.151-3.958-15.899L91.82,434.26c4.748,2.523,10.158,3.958,15.899,3.958
	c15.269,0,28.217-10.117,32.497-24h103.287c4.28,13.883,17.228,24,32.497,24c18.748,0,34-15.252,34-34S294.748,370.219,276,370.219z
	 M34,491.938c-7.72,0-14-6.28-14-14s6.28-14,14-14s14,6.28,14,14S41.72,491.938,34,491.938z M107.719,418.219c-7.72,0-14-6.28-14-14
	s6.28-14,14-14s14,6.28,14,14S115.438,418.219,107.719,418.219z M276,418.219c-7.72,0-14-6.28-14-14s6.28-14,14-14s14,6.28,14,14
	S283.72,418.219,276,418.219z"/>
<path d="M321.02,353.2c-2.64,0-5.22,1.069-7.08,2.93c-1.859,1.86-2.93,4.439-2.93,7.07c0,2.63,1.07,5.21,2.93,7.069
	c1.86,1.87,4.44,2.931,7.08,2.931c2.63,0,5.2-1.061,7.07-2.931c1.86-1.859,2.92-4.439,2.92-7.069c0-2.631-1.06-5.2-2.92-7.07
	C326.229,354.27,323.649,353.2,321.02,353.2z"/>
<path d="M502,172.05h-35.891c-5.522,0-10,4.478-10,10s4.478,10,10,10h11.917L341.288,328.788c-3.905,3.905-3.905,10.237,0,14.143
	c1.953,1.952,4.512,2.929,7.071,2.929s5.118-0.977,7.071-2.929L492,206.361v11.579c0,5.522,4.478,10,10,10s10-4.478,10-10v-35.89
	C512,176.527,507.522,172.05,502,172.05z"/>
<path d="M235.42,142.1c-1.86-1.859-4.44-2.93-7.07-2.93c-2.64,0-5.21,1.07-7.07,2.93c-1.869,1.86-2.93,4.44-2.93,7.08
	c0,2.63,1.061,5.2,2.93,7.07c1.86,1.859,4.431,2.92,7.07,2.92c2.63,0,5.21-1.061,7.07-2.92c1.859-1.87,2.93-4.44,2.93-7.07
	C238.35,146.54,237.279,143.96,235.42,142.1z"/>
<path d="M283.37,159.17c2.63,0,5.21-1.061,7.069-2.92c1.86-1.86,2.931-4.44,2.931-7.07c0-2.64-1.07-5.22-2.931-7.08
	c-1.859-1.859-4.439-2.93-7.069-2.93s-5.21,1.07-7.07,2.93c-1.86,1.86-2.93,4.44-2.93,7.08c0,2.63,1.069,5.21,2.93,7.07
	C278.16,158.109,280.74,159.17,283.37,159.17z"/>
<path d="M424,336c-48.523,0-88,39.477-88,88s39.477,88,88,88s88-39.477,88-88S472.523,336,424,336z M424,492
	c-37.495,0-68-30.505-68-68s30.505-68,68-68s68,30.505,68,68S461.495,492,424,492z"/>
<path d="M424,401.01c4.62,0,8.523,3.119,8.523,6.811c0,5.522,4.478,10,10,10s10-4.478,10-10c0-11.489-7.73-21.31-18.557-25.118
	c-0.347-5.208-4.67-9.329-9.966-9.329s-9.619,4.121-9.966,9.329c-10.827,3.808-18.557,13.629-18.557,25.118
	c0,14.784,12.796,26.812,28.523,26.812c4.62,0,8.523,3.119,8.523,6.811s-3.903,6.811-8.523,6.811s-8.523-3.119-8.523-6.811
	c0-5.522-4.478-10-10-10s-10,4.478-10,10c0,11.513,7.762,21.352,18.624,25.143c0.657,4.887,4.833,8.66,9.9,8.66
	s9.243-3.773,9.9-8.66c10.862-3.791,18.624-13.63,18.624-25.143c0-14.783-12.796-26.811-28.523-26.811
	c-4.62,0-8.523-3.119-8.523-6.812C415.477,404.129,419.38,401.01,424,401.01z"/>
<g>
</g>
<g>
</g>
<g>
</g>
<g>
</g>
<g>
</g>
<g>
</g>
<g>
</g>
<g>
</g>
<g>
</g>
<g>
</g>
<g>
</g>
<g>
</g>
<g>
</g>
<g>
</g>
<g>
</g>
</svg>
