<?xml version="1.0" encoding="iso-8859-1"?>
<!-- Generator: Adobe Illustrator 19.0.0, SVG Export Plug-In . SVG Version: 6.00 Build 0)  -->
<svg version="1.1" id="Capa_1" xmlns="http://www.w3.org/2000/svg" xmlns:xlink="http://www.w3.org/1999/xlink" x="0px" y="0px"
	 viewBox="0 0 512 512" style="enable-background:new 0 0 512 512;" xml:space="preserve">
<g>
	<path style="fill:#FFCDAC;" d="M62,92L62,92c-17.673,0-32,14.327-32,32v8c0,17.673,14.327,32,32,32l0,0c17.673,0,32-14.327,32-32
		v-8C94,106.327,79.673,92,62,92z"/>
	<path style="fill:#FFCDAC;" d="M450,92L450,92c17.673,0,32,14.327,32,32v8c0,17.673-14.327,32-32,32l0,0c-17.673,0-32-14.327-32-32
		v-8C418,106.327,432.327,92,450,92z"/>
</g>
<g>
	<path style="fill:#58BFFF;" d="M106,316h44.75c21.125,0,38.25,17.125,38.25,38.25V480.5c0,11.874-9.626,21.5-21.5,21.5l0,0
		c-11.874,0-21.5-9.626-21.5-21.5V375H56.833C30.968,375,10,354.032,10,328.167V316"/>
	<path style="fill:#58BFFF;" d="M406,316h-44.75c-21.125,0-38.25,17.125-38.25,38.25V480.5c0,11.874,9.626,21.5,21.5,21.5l0,0
		c11.874,0,21.5-9.626,21.5-21.5V375h89.167C481.032,375,502,354.032,502,328.167V316"/>
</g>
<path style="fill:#A5DDFF;" d="M114,269v47H10V216c0-28.719,23.281-52,52-52l0,0c28.719,0,52,23.281,52,52l0,0h55
	c11.046,0,20,8.954,20,20l0,0c0,11.046-8.954,20-20,20h-58.235C91.207,256,73.236,245.24,64,228l0,0"/>
<path style="fill:#BAEE83;" d="M398,269v47h104V216c0-28.719-23.281-52-52-52l0,0c-28.719,0-52,23.281-52,52l0,0h-55
	c-11.046,0-20,8.954-20,20l0,0c0,11.046,8.954,20,20,20h58.235c19.558,0,37.529-10.76,46.765-28l0,0"/>
<path style="fill:#FFDAA0;" d="M334,316H178c-16.569,0-30-13.431-30-30l0,0c0-16.569,13.431-30,30-30h156c16.569,0,30,13.431,30,30
	l0,0C364,302.569,350.569,316,334,316z"/>
<g>
	<rect x="236" y="316" style="fill:#FFBC53;" width="40" height="186"/>
	<path style="fill:#FFBC53;" d="M328,10H184c-11.046,0-20,8.954-20,20v98c0,11.046,8.954,20,20,20h39l33,33l33-33h39
		c11.046,0,20-8.954,20-20V30C348,18.954,339.046,10,328,10z"/>
</g>
<path d="M55.67,492c-2.64,0-5.21,1.069-7.07,2.93c-1.87,1.86-2.93,4.44-2.93,7.07s1.06,5.21,2.93,7.069
	c1.86,1.86,4.431,2.931,7.07,2.931c2.63,0,5.21-1.07,7.07-2.931c1.859-1.859,2.93-4.439,2.93-7.069s-1.07-5.21-2.93-7.07
	C60.88,493.069,58.3,492,55.67,492z"/>
<path d="M366,421.33c-2.63,0-5.21,1.069-7.07,2.93s-2.93,4.44-2.93,7.07c0,2.64,1.069,5.21,2.93,7.069
	c1.86,1.86,4.44,2.931,7.07,2.931s5.21-1.07,7.069-2.931c1.86-1.859,2.931-4.43,2.931-7.069c0-2.63-1.07-5.21-2.931-7.07
	C371.21,422.399,368.63,421.33,366,421.33z"/>
<path d="M479.747,161.62C487.314,154.02,492,143.547,492,132v-8c0-23.159-18.841-42-42-42s-42,18.841-42,42v8
	c0,11.549,4.687,22.022,12.256,29.623c-16.413,9.014-28.333,25.234-31.45,44.377H343c-16.542,0-30,13.458-30,30
	c0,3.506,0.61,6.87,1.72,10H197.28c1.11-3.13,1.72-6.494,1.72-10c0-16.542-13.458-30-30-30h-45.806
	c-3.117-19.143-15.037-35.364-31.45-44.377C99.313,154.022,104,143.549,104,132v-8c0-23.159-18.841-42-42-42s-42,18.841-42,42v8
	c0,11.547,4.686,22.02,12.253,29.62C13.049,172.167,0,192.586,0,216v100v12.167C0,359.505,25.495,385,56.833,385H136v95.5
	c0,4.058,0.78,7.935,2.183,11.5H98.667c-5.522,0-10,4.478-10,10s4.478,10,10,10h357.666c5.522,0,10-4.478,10-10s-4.478-10-10-10
	h-82.516c1.403-3.565,2.183-7.442,2.183-11.5V469c0-5.522-4.478-10-10-10s-10,4.478-10,10v11.5c0,6.341-5.159,11.5-11.5,11.5
	s-11.5-5.159-11.5-11.5V354.25c0-15.577,12.673-28.25,28.25-28.25H398h8h86v2.167c0,20.31-16.523,36.833-36.833,36.833H366
	c-5.522,0-10,4.478-10,10v16c0,5.522,4.478,10,10,10s10-4.478,10-10v-6h79.167C486.505,385,512,359.505,512,328.167V316V216
	C512,192.586,498.951,172.167,479.747,161.62z M428,132v-8c0-12.131,9.869-22,22-22s22,9.869,22,22v8c0,12.131-9.869,22-22,22
	S428,144.131,428,132z M343,226h55c5.522,0,10-4.478,10-10c0-23.159,18.841-42,42-42s42,18.841,42,42v90h-84v-37
	c0-1.157-0.197-2.27-0.559-3.304c20.814-2.044,39.362-14.287,49.373-32.974c2.608-4.869,0.776-10.93-4.092-13.537
	c-4.87-2.608-10.929-0.774-13.537,4.092c-7.509,14.016-22.05,22.723-37.95,22.723H343c-5.514,0-10-4.486-10-10S337.486,226,343,226z
	 M178,306c-11.028,0-20-8.972-20-20s8.972-20,20-20h156c11.028,0,20,8.972,20,20s-8.972,20-20,20H178z M189.829,326H226v166h-29.183
	c1.404-3.565,2.183-7.442,2.183-11.5V354.25C199,343.706,195.591,333.948,189.829,326z M123.542,266h19.84
	c-3.415,5.888-5.382,12.717-5.382,20s1.966,14.112,5.382,20H124v-37C124,267.955,123.84,266.947,123.542,266z M368.618,266h19.84
	c-0.298,0.947-0.458,1.955-0.458,3v37h-19.382c3.415-5.888,5.382-12.717,5.382-20S372.034,271.888,368.618,266z M40,132v-8
	c0-12.131,9.869-22,22-22s22,9.869,22,22v8c0,12.131-9.869,22-22,22S40,144.131,40,132z M20,216c0-23.159,18.841-42,42-42
	s42,18.841,42,42c0,5.522,4.478,10,10,10h55c5.514,0,10,4.486,10,10s-4.486,10-10,10h-58.235c-15.9,0-30.441-8.707-37.95-22.723
	c-2.607-4.868-8.669-6.701-13.537-4.092c-4.868,2.607-6.7,8.668-4.092,13.537c10.011,18.687,28.559,30.93,49.373,32.974
	C104.197,266.73,104,267.843,104,269v37H20V216z M156,480.5V375c0-5.522-4.478-10-10-10H56.833C36.523,365,20,348.477,20,328.167
	V326h86h8h36.75c15.577,0,28.25,12.673,28.25,28.25V480.5c0,6.341-5.159,11.5-11.5,11.5S156,486.841,156,480.5z M246,492V326h20v166
	H246z M286,492V326h36.171c-5.761,7.948-9.171,17.706-9.171,28.25V480.5c0,4.058,0.78,7.935,2.183,11.5H286z"/>
<path d="M184,158h34.857l30.071,30.071C250.882,190.023,253.44,191,256,191s5.118-0.977,7.071-2.929L293.143,158H328
	c16.542,0,30-13.458,30-30V30c0-16.542-13.458-30-30-30H184c-16.542,0-30,13.458-30,30v98C154,144.542,167.458,158,184,158z M174,30
	c0-5.514,4.486-10,10-10h144c5.514,0,10,4.486,10,10v98c0,5.514-4.486,10-10,10h-39c-2.652,0-5.195,1.054-7.071,2.929L256,166.857
	l-25.929-25.929C228.195,139.054,225.652,138,223,138h-39c-5.514,0-10-4.486-10-10V30z"/>
<path d="M209,85.17c2.63,0,5.21-1.07,7.069-2.93c1.86-1.86,2.931-4.44,2.931-7.07s-1.07-5.21-2.931-7.07
	c-1.859-1.87-4.439-2.93-7.069-2.93s-5.21,1.06-7.07,2.93c-1.86,1.86-2.93,4.44-2.93,7.07s1.069,5.21,2.93,7.07
	C203.79,84.1,206.37,85.17,209,85.17z"/>
<path d="M256,85.17c2.63,0,5.21-1.07,7.069-2.93c1.86-1.86,2.931-4.44,2.931-7.07s-1.07-5.21-2.931-7.07
	c-1.859-1.859-4.439-2.93-7.069-2.93s-5.21,1.07-7.07,2.93S246,72.54,246,75.17s1.069,5.21,2.93,7.07
	C250.79,84.1,253.37,85.17,256,85.17z"/>
<path d="M303,85.17c2.63,0,5.21-1.07,7.069-2.93c1.86-1.86,2.931-4.44,2.931-7.07s-1.07-5.21-2.931-7.07
	c-1.859-1.87-4.439-2.93-7.069-2.93s-5.21,1.06-7.07,2.93c-1.86,1.86-2.93,4.44-2.93,7.07s1.069,5.21,2.93,7.07
	C297.79,84.1,300.37,85.17,303,85.17z"/>
<g>
</g>
<g>
</g>
<g>
</g>
<g>
</g>
<g>
</g>
<g>
</g>
<g>
</g>
<g>
</g>
<g>
</g>
<g>
</g>
<g>
</g>
<g>
</g>
<g>
</g>
<g>
</g>
<g>
</g>
</svg>
