<?xml version="1.0" encoding="iso-8859-1"?>
<!-- Generator: Adobe Illustrator 19.0.0, SVG Export Plug-In . SVG Version: 6.00 Build 0)  -->
<svg version="1.1" id="Capa_1" xmlns="http://www.w3.org/2000/svg" xmlns:xlink="http://www.w3.org/1999/xlink" x="0px" y="0px"
	 viewBox="0 0 512 512" style="enable-background:new 0 0 512 512;" xml:space="preserve">
<rect x="10" y="256" style="fill:#FFC870;" width="106" height="246"/>
<polygon style="fill:#58BFFF;" points="396.172,140.12 502,246 502,502 396,502 "/>
<rect x="84" y="448" style="fill:#7ACCFF;" width="344" height="54"/>
<path style="fill:#A5DDFF;" d="M386,64H126c-5.523,0-10,4.477-10,10v374h280V74C396,68.477,391.523,64,386,64z"/>
<rect x="156" y="10" style="fill:#DFF3FF;" width="200" height="54"/>
<path d="M256.13,20c2.63,0,5.2-1.07,7.07-2.931c1.859-1.859,2.93-4.439,2.93-7.069s-1.07-5.21-2.93-7.07
	C261.33,1.07,258.76,0,256.13,0s-5.21,1.069-7.07,2.93c-1.87,1.86-2.93,4.44-2.93,7.07s1.06,5.21,2.93,7.069
	C250.92,18.93,253.5,20,256.13,20z"/>
<path d="M509.073,238.931L406,135.807V74c0-11.028-8.972-20-20-20h-20V10c0-5.522-4.478-10-10-10h-62.333c-5.522,0-10,4.478-10,10
	s4.478,10,10,10H346v34H166V20h52.666c5.522,0,10-4.478,10-10s-4.478-10-10-10H156c-5.522,0-10,4.478-10,10v44h-20
	c-11.028,0-20,8.972-20,20v364H84c-5.522,0-10,4.478-10,10v44H20V266h64c5.522,0,10-4.478,10-10s-4.478-10-10-10H10
	c-5.522,0-10,4.478-10,10v246c0,5.522,4.478,10,10,10h492c5.522,0,10-4.478,10-10V246C512,243.349,510.947,240.806,509.073,238.931z
	 M219.333,438v-76h73.334v76H219.333z M292.667,170v76h-73.334v-76H292.667z M219.333,150V74h73.334v76H219.333z M386,342h-73.333
	v-76H386V342z M386,246h-73.333v-76H386V246z M199.333,246H126v-76h73.333L199.333,246L199.333,246z M126,266h73.333v76H126V266z
	 M219.333,266h73.334v76h-73.334V266z M312.667,362H386v76h-73.333V362z M386,74v76h-73.333V74H386z M199.333,74v76H126V74H199.333z
	 M126,362h73.333v76H126V362z M94,492v-34h302h22v34H94z M492,492h-54v-44c0-5.522-4.478-10-10-10h-22v-28.127h31.838
	c5.522,0,10-4.478,10-10s-4.478-10-10-10H406v-27.958h31.838c5.522,0,10-4.478,10-10s-4.478-10-10-10H406v-27.957h31.838
	c5.522,0,10-4.478,10-10s-4.478-10-10-10H406V266h31.838c5.522,0,10-4.478,10-10s-4.478-10-10-10H406v-81.901l86,86.042V492z"/>
<path d="M63,397.67c-2.63,0-5.21,1.06-7.07,2.93c-1.86,1.86-2.93,4.44-2.93,7.07s1.069,5.21,2.93,7.07
	c1.86,1.859,4.44,2.93,7.07,2.93c2.63,0,5.21-1.07,7.069-2.93c1.86-1.86,2.931-4.44,2.931-7.07s-1.07-5.21-2.931-7.07
	C68.21,398.729,65.63,397.67,63,397.67z"/>
<path d="M73,298.724c0-5.522-4.478-10-10-10s-10,4.478-10,10V370c0,5.522,4.478,10,10,10s10-4.478,10-10V298.724z"/>
<g>
</g>
<g>
</g>
<g>
</g>
<g>
</g>
<g>
</g>
<g>
</g>
<g>
</g>
<g>
</g>
<g>
</g>
<g>
</g>
<g>
</g>
<g>
</g>
<g>
</g>
<g>
</g>
<g>
</g>
</svg>
