<?xml version="1.0" encoding="iso-8859-1"?>
<!-- Generator: Adobe Illustrator 19.0.0, SVG Export Plug-In . SVG Version: 6.00 Build 0)  -->
<svg version="1.1" id="Capa_1" xmlns="http://www.w3.org/2000/svg" xmlns:xlink="http://www.w3.org/1999/xlink" x="0px" y="0px"
	 viewBox="0 0 512 512" style="enable-background:new 0 0 512 512;" xml:space="preserve">
<path style="fill:#BAEE83;" d="M65.998,37.007h376.003c33.136,0,59.998,26.862,59.998,59.998v237.994
	c0,33.136-26.862,59.998-59.998,59.998h-74.011v79.998l-79.998-79.998H65.998C35.071,394.997,10,369.926,10,338.999V93.005
	C10,62.078,35.071,37.007,65.998,37.007z"/>
<path style="fill:#DFF3FF;" d="M204.572,285.099v62.642c0,4.007-3.249,7.256-7.256,7.256H66.709c-4.007,0-7.256-3.249-7.256-7.256
	v-62.642H204.572z"/>
<path style="fill:#A5DDFF;" d="M171.009,287.548l24.483,0.032c8.018,0.005,14.521-6.494,14.521-14.512v-34.731H54.012v34.74
	c0,8.015,6.497,14.512,14.512,14.512h25.154L171.009,287.548z"/>
<rect x="355.501" y="77.009" style="fill:#FE6663;" width="56.999" height="47.059"/>
<path d="M132.01,47.006c2.64,0,5.21-1.07,7.07-2.931c1.87-1.859,2.93-4.439,2.93-7.069c0-2.63-1.06-5.21-2.93-7.07
	c-1.86-1.86-4.43-2.93-7.07-2.93c-2.63,0-5.21,1.069-7.07,2.93c-1.86,1.86-2.93,4.44-2.93,7.07c0,2.63,1.07,5.21,2.93,7.069
	C126.8,45.935,129.38,47.006,132.01,47.006z"/>
<path d="M442.002,27.007H173.009c-5.523,0-10,4.478-10,10s4.477,10,10,10h268.993c27.569,0,49.999,22.429,49.999,49.999v237.994
	c0,27.569-22.429,49.999-49.999,49.999h-74.011c-5.523,0-10,4.478-10,10v55.856l-62.927-62.927
	c-1.875-1.875-4.419-2.929-7.071-2.929H65.998c-25.363,0-45.999-20.635-45.999-45.999V93.004c0-25.363,20.635-45.999,45.999-45.999
	h24.012c5.523,0,10-4.478,10-10s-4.477-10-10-10H65.998C29.606,27.006,0,56.612,0,93.004v245.994
	c0,36.392,29.606,65.998,65.998,65.998h217.852l77.069,77.069c1.914,1.913,4.471,2.93,7.073,2.929c1.288,0,2.588-0.249,3.825-0.761
	c3.737-1.548,6.173-5.194,6.173-9.239v-69.998h64.011c38.597,0,69.998-31.401,69.998-69.998V97.004
	C512,58.408,480.599,27.007,442.002,27.007z"/>
<path d="M262.963,103.479h-2.339c-3.134,0-6.276,0.271-9.338,0.805c-5.441,0.949-9.083,6.129-8.134,11.569
	c0.848,4.859,5.07,8.284,9.84,8.284c0.57,0,1.148-0.049,1.729-0.15c1.932-0.337,3.917-0.508,5.903-0.508h2.339
	c5.523,0,10-4.478,10-10C272.963,107.957,268.486,103.479,262.963,103.479z"/>
<path d="M216.531,147.635c1.388,0.662,2.853,0.975,4.294,0.975c3.736,0,7.32-2.104,9.035-5.7c1.105-2.32,2.48-4.522,4.088-6.546
	c3.435-4.324,2.714-10.615-1.611-14.05c-4.323-3.435-10.615-2.715-14.05,1.61c-2.547,3.206-4.728,6.699-6.483,10.383
	C209.429,139.293,211.545,145.26,216.531,147.635z"/>
<path d="M236.67,195.848c-1.818,5.216,0.937,10.917,6.152,12.734c3.86,1.345,7.882,2.25,11.954,2.689
	c0.365,0.039,0.727,0.059,1.085,0.059c5.041,0,9.376-3.802,9.93-8.928c0.593-5.491-3.378-10.423-8.869-11.016
	c-2.563-0.276-5.092-0.846-7.518-1.691C244.189,187.881,238.488,190.632,236.67,195.848z"/>
<path d="M256,292.474c-5.523,0-10,4.478-10,10c0,5.522,4.477,10,10,10h10c5.523,0,10-4.478,10-10c0-5.522-4.477-10-10-10H256z"/>
<path d="M208.698,172.585c1.136,3.925,2.727,7.728,4.726,11.303c1.833,3.276,5.233,5.121,8.737,5.121
	c1.652,0,3.328-0.41,4.872-1.274c4.82-2.695,6.542-8.788,3.847-13.608c-1.258-2.248-2.257-4.639-2.971-7.104
	c-1.536-5.305-7.083-8.36-12.387-6.824C210.218,161.734,207.162,167.28,208.698,172.585z"/>
<path d="M329.835,191.586c-5.523,0-10,4.478-10,10c0,5.522,4.477,10,10,10h10c5.523,0,10-4.478,10-10c0-5.522-4.477-10-10-10
	H329.835z"/>
<path d="M381.997,312.474h4.646c2.13,0,4.279-0.112,6.387-0.334c5.493-0.578,9.477-5.499,8.899-10.991
	c-0.578-5.493-5.5-9.481-10.991-8.899c-1.416,0.149-2.861,0.225-4.295,0.225h-4.646c-5.523,0-10,4.478-10,10
	C371.997,307.997,376.474,312.474,381.997,312.474z"/>
<path d="M339.998,292.474c-5.523,0-10,4.478-10,10c0,5.522,4.477,10,10,10h10c5.523,0,10-4.478,10-10c0-5.522-4.477-10-10-10
	H339.998z"/>
<path d="M391.833,201.585c0-5.522-4.477-10-10-10h-10c-5.523,0-10,4.478-10,10c0,5.522,4.477,10,10,10h10
	C387.356,211.585,391.833,207.107,391.833,201.585z"/>
<path d="M417.669,200.145c-4.735-2.836-10.879-1.299-13.718,3.438s-1.3,10.88,3.438,13.719c2.29,1.372,4.454,2.979,6.432,4.774
	c1.916,1.739,4.321,2.597,6.719,2.597c2.721,0,5.433-1.104,7.406-3.277c3.713-4.089,3.408-10.414-0.681-14.126
	C424.314,204.589,421.085,202.193,417.669,200.145z"/>
<path d="M433.252,273.79c-4.454-3.269-10.71-2.308-13.979,2.145c-1.58,2.151-3.381,4.157-5.354,5.961
	c-4.077,3.726-4.362,10.051-0.636,14.128c1.973,2.158,4.674,3.254,7.385,3.254c2.408,0,4.825-0.865,6.743-2.618
	c2.943-2.688,5.63-5.68,7.986-8.891C438.664,283.315,437.704,277.057,433.252,273.79z"/>
<path d="M304.962,103.479h-10c-5.523,0-10,4.478-10,10c0,5.522,4.477,10,10,10h10c5.523,0,10-4.478,10-10
	C314.962,107.957,310.485,103.479,304.962,103.479z"/>
<path d="M447.088,251.931c-0.006-3.997-0.407-7.997-1.19-11.889c-1.09-5.414-6.369-8.918-11.777-7.83
	c-5.415,1.091-8.92,6.363-7.83,11.777c0.524,2.605,0.792,5.288,0.797,7.973c0.009,5.518,4.484,9.984,10,9.984
	c0.005,0,0.011,0,0.016,0C442.627,261.938,447.097,257.454,447.088,251.931z"/>
<path d="M297.999,292.474c-5.523,0-10,4.478-10,10c0,5.522,4.477,10,10,10h10c5.523,0,10-4.478,10-10c0-5.522-4.477-10-10-10
	H297.999z"/>
<path d="M277.836,201.585c0,5.522,4.477,10,10,10h10c5.523,0,10-4.478,10-10c0-5.522-4.477-10-10-10h-10
	C282.313,191.586,277.836,196.063,277.836,201.585z"/>
<path d="M86.879,209.472v18.865H54.012c-5.523,0-10,4.478-10,10v34.74c0,5.819,2.042,11.168,5.442,15.377v59.289
	c0,9.515,7.741,17.256,17.256,17.256h130.606c9.515,0,17.256-7.741,17.256-17.256v-59.275c3.524-4.347,5.442-9.725,5.442-15.4
	v-34.731c0-5.522-4.477-10-10-10h-32.867v-18.865c0-9.863-8.024-17.888-17.888-17.888h-54.491
	C94.904,191.586,86.879,199.609,86.879,209.472z M200.014,273.069c0,1.627-0.829,2.697-1.322,3.191
	c-0.494,0.493-1.564,1.32-3.184,1.32c-0.001,0-0.002,0-0.003,0l-24.483-0.031c-0.004,0-0.009,0-0.013,0
	c-5.517,0-9.993,4.469-10,9.987c-0.007,5.522,4.464,10.006,9.987,10.013l23.575,0.03v47.42H69.453v-47.409h24.224
	c5.523,0,10-4.478,10-10c0-5.522-4.477-10-10-10H68.523c-2.488,0-4.512-2.024-4.512-4.513v-24.74h136.003V273.069z M157.147,211.585
	v16.753h-50.269v-16.753H157.147z"/>
<path d="M132.01,297.589c2.64,0,5.21-1.07,7.07-2.93c1.87-1.86,2.93-4.44,2.93-7.07s-1.06-5.21-2.93-7.07
	c-1.86-1.859-4.43-2.93-7.07-2.93c-2.63,0-5.21,1.07-7.07,2.93c-1.86,1.86-2.93,4.44-2.93,7.07s1.07,5.21,2.93,7.07
	C126.8,296.519,129.38,297.589,132.01,297.589z"/>
<path d="M412.503,67.006h-56.999c-5.523,0-10,4.478-10,10v76.605c0,5.522,4.477,10,10,10c5.523,0,10-4.478,10-10v-19.548h46.999
	c5.523,0,10-4.478,10-10V77.005C422.502,71.483,418.025,67.006,412.503,67.006z M402.503,114.064h-36.999V87.004h36.999V114.064z"/>
<g>
</g>
<g>
</g>
<g>
</g>
<g>
</g>
<g>
</g>
<g>
</g>
<g>
</g>
<g>
</g>
<g>
</g>
<g>
</g>
<g>
</g>
<g>
</g>
<g>
</g>
<g>
</g>
<g>
</g>
</svg>
