<?xml version="1.0" encoding="iso-8859-1"?>
<!-- Generator: Adobe Illustrator 19.0.0, SVG Export Plug-In . SVG Version: 6.00 Build 0)  -->
<svg version="1.1" id="Capa_1" xmlns="http://www.w3.org/2000/svg" xmlns:xlink="http://www.w3.org/1999/xlink" x="0px" y="0px"
	 viewBox="0 0 512 512" style="enable-background:new 0 0 512 512;" xml:space="preserve">
<path style="fill:#BAEE83;" d="M250.116,121.493l-41.505-96.839l18.144-10.674c10.283-6.05,23.247-5.055,32.487,2.493l2.771,2.264
	c10.508,8.583,25.61,8.571,36.103-0.031l0,0c10.492-8.6,25.592-8.614,36.1-0.033l0.116,0.095
	c10.493,8.569,25.569,8.569,36.061-0.001l2.726-2.227c9.277-7.577,22.3-8.546,32.596-2.426l17.672,10.504l-41.197,96.875H250.116z"
	/>
<path style="fill:#E2F8CC;" d="M242.39,121.374C195.637,136.621,164,180.216,164,229.392v272.533h304V229.392
	c0-49.176-31.637-92.771-78.39-108.018H242.39z"/>
<path style="fill:#A5DDFF;" d="M190.323,361.323H101.5c-50.534,0-91.5,40.966-91.5,91.5v49.102h271.823v-49.102
	C281.823,402.289,240.857,361.323,190.323,361.323z"/>
<polygon style="fill:#FFFFFF;" points="196.612,361.323 145.912,412.023 95.211,361.323 "/>
<path style="fill:#FFBC53;" d="M131.637,201.925h74.075v36.761c0,19.067-15.457,34.524-34.524,34.524H86.111v-25.758
	C86.111,222.308,106.494,201.925,131.637,201.925z"/>
<path style="fill:#FFCDAC;" d="M205.713,273.209v28.312c0,33.027-26.774,59.801-59.801,59.801l0,0
	c-33.027,0-59.801-26.774-59.801-59.801v-28.312H205.713z"/>
<path style="fill:#FFA71C;" d="M366,445.925h108c15.464,0,28,12.536,28,28l0,0c0,15.464-12.536,28-28,28H366
	c-15.464,0-28-12.536-28-28l0,0C338,458.461,350.536,445.925,366,445.925z"/>
<path style="fill:#FFBC53;" d="M366,389.925h108c15.464,0,28,12.536,28,28l0,0c0,15.464-12.536,28-28,28H366
	c-15.464,0-28-12.536-28-28l0,0C338,402.461,350.536,389.925,366,389.925z"/>
<path style="fill:#FFA71C;" d="M366,333.925h108c15.464,0,28,12.536,28,28l0,0c0,15.464-12.536,28-28,28H366
	c-15.464,0-28-12.536-28-28l0,0C338,346.461,350.536,333.925,366,333.925z"/>
<path d="M175.663,178.257c4.7,2.899,10.861,1.44,13.762-3.26c12.595-20.412,31.94-35.855,54.593-43.623h143.966
	C429.929,145.74,458,184.934,458,229.393v26.532c0,5.522,4.477,10,10,10s10-4.478,10-10v-26.532
	c0-52.289-32.554-98.458-81.421-116.178l36.012-84.684c1.959-4.606,0.21-9.951-4.093-12.509L410.827,5.519
	c-13.854-8.236-31.549-6.918-44.031,3.275l-2.728,2.227c-6.782,5.541-16.627,5.541-23.417-0.004l-0.109-0.089
	C326.404-0.617,305.896-0.6,291.778,10.972c-6.787,5.563-16.644,5.569-23.438,0.02l-2.771-2.264
	c-12.423-10.147-30.058-11.5-43.883-3.366l-18.144,10.674c-4.339,2.553-6.104,7.932-4.121,12.559l36.237,84.548
	c-26.212,9.466-48.578,27.571-63.253,51.353C169.504,169.195,170.963,175.357,175.663,178.257z M231.826,22.6
	c6.643-3.91,15.119-3.259,21.09,1.618l2.771,2.263c14.138,11.549,34.648,11.532,48.769-0.041c6.785-5.562,16.641-5.569,23.442-0.016
	l0.109,0.089c14.113,11.525,34.599,11.525,48.711-0.002l2.727-2.227c5.999-4.898,14.502-5.531,21.161-1.574l10.158,6.038
	l-35.137,82.626h-118.97l-35.388-82.565L231.826,22.6z"/>
<path d="M468,283.705c-2.63,0-5.21,1.069-7.07,2.93c-1.86,1.87-2.93,4.439-2.93,7.07c0,2.63,1.07,5.21,2.93,7.069
	c1.86,1.87,4.44,2.94,7.07,2.94s5.21-1.07,7.07-2.94c1.86-1.859,2.93-4.439,2.93-7.069c0-2.631-1.07-5.211-2.93-7.07
	C473.21,284.775,470.63,283.705,468,283.705z"/>
<path d="M145.91,443.145c-2.63,0-5.21,1.07-7.07,2.93s-2.93,4.44-2.93,7.07s1.07,5.21,2.93,7.07c1.86,1.859,4.44,2.93,7.07,2.93
	s5.21-1.07,7.07-2.93s2.93-4.44,2.93-7.07s-1.07-5.21-2.93-7.07C151.12,444.215,148.54,443.145,145.91,443.145z"/>
<path d="M512,417.925c0-11.071-4.761-21.048-12.341-28c7.579-6.952,12.341-16.929,12.341-28c0-20.953-17.047-38-38-38H366
	c-20.953,0-38,17.047-38,38c0,11.071,4.761,21.048,12.341,28c-7.579,6.952-12.341,16.929-12.341,28s4.761,21.048,12.341,28
	c-7.579,6.952-12.341,16.929-12.341,28c0,6.509,1.647,12.639,4.543,18h-40.72v-39.102c0-52.884-40.655-96.443-92.351-101.084
	c-1.402-0.417-2.876-0.51-4.315-0.299c-0.168-0.008-0.337-0.012-0.505-0.019c12.981-12.682,21.061-30.361,21.061-49.899v-99.597
	c0-5.522-4.477-10-10-10h-74.076c-30.618,0-55.527,24.909-55.527,55.526v54.07c0,19.538,8.08,37.217,21.061,49.899
	c-0.168,0.007-0.337,0.011-0.505,0.019c-1.439-0.21-2.913-0.118-4.315,0.299C40.655,356.38,0,399.94,0,452.823v49.102
	c0,5.522,4.477,10,10,10h154h117.823H366h102h6c20.953,0,38-17.047,38-38c0-11.071-4.761-21.048-12.341-28
	C507.239,438.973,512,428.996,512,417.925z M348,361.925c0-9.925,8.075-18,18-18h108c9.925,0,18,8.075,18,18s-8.075,18-18,18H366
	C356.075,379.925,348,371.85,348,361.925z M172.469,371.322l-26.558,26.558l-26.558-26.558H172.469z M96.11,247.451
	c0-19.589,15.938-35.526,35.527-35.526h64.076v26.761c0,13.522-11.001,24.523-24.524,24.523H96.11v-1.751V247.451z M96.11,301.522
	v-18.313h75.079c9.057,0,17.486-2.725,24.524-7.388v25.7c0,27.46-22.341,49.801-49.801,49.801S96.11,328.982,96.11,301.522z
	 M164,491.925H20v-28.78h81.603c5.523,0,10-4.478,10-10s-4.477-10-10-10H20.595c4.42-37.167,33.938-66.726,71.087-71.21
	l47.159,47.159c1.953,1.952,4.512,2.929,7.071,2.929s5.119-0.977,7.071-2.929l47.159-47.159
	c40.323,4.867,71.681,39.274,71.681,80.889v39.102H164V491.925z M492,473.925c0,9.925-8.075,18-18,18h-6H366
	c-9.925,0-18-8.075-18-18s8.075-18,18-18h108C483.925,455.925,492,464,492,473.925z M366,435.925c-9.925,0-18-8.075-18-18
	s8.075-18,18-18h108c9.925,0,18,8.075,18,18s-8.075,18-18,18H366z"/>
<path d="M374,203.491c8.005,0,14.518,5.496,14.518,12.251c0,5.522,4.477,10,10,10s10-4.478,10-10
	c0-14.535-10.346-26.85-24.518-30.866v-1.493c0-5.522-4.477-10-10-10s-10,4.478-10,10v1.493
	c-14.171,4.016-24.518,16.331-24.518,30.866c0,17.783,15.484,32.251,34.518,32.251c8.005,0,14.518,5.496,14.518,12.251
	s-6.513,12.251-14.518,12.251s-14.518-5.496-14.518-12.251c0-5.522-4.477-10-10-10s-10,4.478-10,10
	c0,14.535,10.346,26.85,24.518,30.866v0.641c0,5.522,4.477,10,10,10s10-4.478,10-10v-0.641
	c14.171-4.016,24.518-16.331,24.518-30.866c0-17.783-15.484-32.251-34.518-32.251c-8.005,0-14.518-5.496-14.518-12.251
	S365.995,203.491,374,203.491z"/>
<g>
</g>
<g>
</g>
<g>
</g>
<g>
</g>
<g>
</g>
<g>
</g>
<g>
</g>
<g>
</g>
<g>
</g>
<g>
</g>
<g>
</g>
<g>
</g>
<g>
</g>
<g>
</g>
<g>
</g>
</svg>
