<?xml version="1.0" encoding="iso-8859-1"?>
<!-- Generator: Adobe Illustrator 19.0.0, SVG Export Plug-In . SVG Version: 6.00 Build 0)  -->
<svg version="1.1" id="Capa_1" xmlns="http://www.w3.org/2000/svg" xmlns:xlink="http://www.w3.org/1999/xlink" x="0px" y="0px"
	 viewBox="0 0 512 512" style="enable-background:new 0 0 512 512;" xml:space="preserve">
<path style="fill:#FFC870;" d="M428,502H84c-11.046,0-20-8.954-20-20V30c0-11.046,8.954-20,20-20h344c11.046,0,20,8.954,20,20v452
	C448,493.046,439.046,502,428,502z"/>
<path style="fill:#FFDAA0;" d="M442.979,495.222l-31.981-43.174c-1.886-2.546-4.867-4.048-8.036-4.048H109.037
	c-3.169,0-6.15,1.502-8.036,4.048L69.02,495.222C72.686,499.37,78.03,502,84,502h344C433.97,502,439.314,499.37,442.979,495.222z"/>
<path style="fill:#FFBC53;" d="M428,10H84c-11.046,0-20,8.954-20,20v45.563c0,30.928,25.072,56,56,56h272c30.928,0,56-25.072,56-56
	V30C448,18.954,439.046,10,428,10z"/>
<g>
	<path style="fill:#FFFFFF;" d="M256,131.563L256,131.563c-22.091,0-40-17.909-40-40l0,0c0-22.091,17.909-40,40-40l0,0
		c22.091,0,40,17.909,40,40l0,0C296,113.655,278.091,131.563,256,131.563z"/>
	<path style="fill:#FFFFFF;" d="M256,256L256,256c-22.091,0-40-17.909-40-40l0,0c0-22.091,17.909-40,40-40l0,0
		c22.091,0,40,17.909,40,40l0,0C296,238.091,278.091,256,256,256z"/>
</g>
<path d="M428,0H84C67.458,0,54,13.458,54,30v45.563V256c0,5.522,4.478,10,10,10s10-4.478,10-10V122.828
	c11.897,11.582,28.125,18.736,46,18.736h86V216c0,27.57,22.43,50,50,50s50-22.43,50-50v-74.437h86c17.875,0,34.103-7.154,46-18.736
	V471.7l-18.966-25.605c-3.755-5.069-9.763-8.096-16.071-8.096H109.037c-6.309,0-12.316,3.026-16.07,8.096L74,471.701V332
	c0-5.522-4.478-10-10-10s-10,4.478-10,10v150c0,7.619,2.86,14.579,7.556,19.876c0.008,0.009,0.015,0.017,0.023,0.026
	C67.078,508.091,75.089,512,84,512h344c8.911,0,16.922-3.909,22.421-10.098c0.008-0.009,0.015-0.017,0.023-0.026
	C455.14,496.579,458,489.619,458,482V75.563V30C458,13.458,444.542,0,428,0z M226,131.536c8.363,6.292,18.752,10.027,30,10.027
	c11.248,0,21.637-3.735,30-10.027v44.491C277.637,169.735,267.248,166,256,166s-21.637,3.735-30,10.027V131.536z M256,121.563
	c-16.542,0-30-13.458-30-30s13.458-30,30-30s30,13.458,30,30S272.542,121.563,256,121.563z M256,246c-16.542,0-30-13.458-30-30
	s13.458-30,30-30s30,13.458,30,30S272.542,246,256,246z M392,121.563h-86v-30c0-27.57-22.43-50-50-50s-50,22.43-50,50v30h-86
	c-25.364,0-46-20.636-46-46V30c0-5.514,4.486-10,10-10h344c5.514,0,10,4.486,10,10v45.563C438,100.928,417.364,121.563,392,121.563z
	 M84,492c-0.048,0-0.095-0.007-0.143-0.007L109.037,458h293.926l25.18,33.993c-0.048,0-0.095,0.007-0.143,0.007H84z"/>
<path d="M64,305.03c2.63,0,5.21-1.07,7.069-2.931C72.93,300.24,74,297.66,74,295.03c0-2.631-1.07-5.2-2.931-7.07
	c-1.859-1.86-4.439-2.93-7.069-2.93s-5.21,1.069-7.07,2.93c-1.86,1.859-2.93,4.439-2.93,7.07c0,2.64,1.069,5.21,2.93,7.069
	C58.79,303.96,61.37,305.03,64,305.03z"/>
<path d="M256,81.56c-2.63,0-5.21,1.07-7.07,2.931C247.07,86.35,246,88.93,246,91.56c0,2.641,1.069,5.21,2.93,7.07
	c1.86,1.87,4.44,2.93,7.07,2.93s5.21-1.06,7.069-2.93c1.86-1.86,2.931-4.44,2.931-7.07s-1.07-5.21-2.931-7.069
	C261.21,82.63,258.63,81.56,256,81.56z"/>
<path d="M256,206c-2.63,0-5.21,1.069-7.07,2.93S246,213.37,246,216s1.069,5.21,2.93,7.069c1.86,1.86,4.44,2.931,7.07,2.931
	s5.21-1.07,7.069-2.931C264.93,221.21,266,218.63,266,216s-1.07-5.21-2.931-7.07C261.21,207.069,258.63,206,256,206z"/>
<path d="M418,295.032V195c0-5.522-4.478-10-10-10s-10,4.478-10,10v100.032c0,5.522,4.478,10,10,10S418,300.555,418,295.032z"/>
<path d="M400.93,339.069c1.86,1.86,4.44,2.931,7.07,2.931s5.21-1.07,7.069-2.931C416.93,337.21,418,334.63,418,332
	s-1.07-5.21-2.931-7.07C413.21,323.07,410.63,322,408,322s-5.21,1.069-7.07,2.93S398,329.37,398,332S399.069,337.21,400.93,339.069z
	"/>
<g>
</g>
<g>
</g>
<g>
</g>
<g>
</g>
<g>
</g>
<g>
</g>
<g>
</g>
<g>
</g>
<g>
</g>
<g>
</g>
<g>
</g>
<g>
</g>
<g>
</g>
<g>
</g>
<g>
</g>
</svg>
