<?xml version="1.0" encoding="iso-8859-1"?>
<!-- Generator: Adobe Illustrator 19.0.0, SVG Export Plug-In . SVG Version: 6.00 Build 0)  -->
<svg version="1.1" id="Capa_1" xmlns="http://www.w3.org/2000/svg" xmlns:xlink="http://www.w3.org/1999/xlink" x="0px" y="0px"
	 viewBox="0 0 512 512" style="enable-background:new 0 0 512 512;" xml:space="preserve">
<path style="fill:#A5DDFF;" d="M180.97,140.706h-72.835c-41.438,0-75.03,33.592-75.03,75.03V256H256v-40.264
	C256,174.298,222.408,140.706,180.97,140.706z"/>
<polygon style="fill:#FFFFFF;" points="186.127,140.706 144.552,182.28 102.978,140.706 "/>
<path style="fill:#5CC1FF;" d="M132.848,10h60.742v30.144c0,15.635-12.675,28.309-28.309,28.309H95.516V47.332
	C95.516,26.714,112.23,10,132.848,10z"/>
<path style="fill:#FFCDAC;" d="M193.589,68.453v23.216c0,27.082-21.955,49.037-49.037,49.037l0,0
	c-27.082,0-49.037-21.955-49.037-49.037V68.453H193.589z"/>
<path style="fill:#58BFFF;" d="M403.992,140.706h-72.835c-41.438,0-75.03,33.592-75.03,75.03V256h222.895v-40.264
	C479.022,174.298,445.43,140.706,403.992,140.706z"/>
<polygon style="fill:#FFFFFF;" points="409.149,140.706 367.574,182.28 326,140.706 "/>
<path style="fill:#5CC1FF;" d="M355.87,10h60.742v30.144c0,15.635-12.675,28.309-28.31,28.309h-69.764V47.332
	C318.538,26.714,335.252,10,355.87,10z"/>
<path style="fill:#FFCDAC;" d="M416.611,68.453v23.216c0,27.082-21.955,49.037-49.037,49.037l0,0
	c-27.082,0-49.037-21.955-49.037-49.037V68.453H416.611z"/>
<path style="fill:#FFBC53;" d="M492,312H20c-5.523,0-10-4.477-10-10v-36c0-5.523,4.477-10,10-10h472c5.523,0,10,4.477,10,10v36
	C502,307.523,497.523,312,492,312z"/>
<rect x="38" y="312" style="fill:#FFC870;" width="436" height="190"/>
<path d="M492,246h-2.978v-30.264c0-44.235-33.958-80.672-77.171-84.653c-0.101-0.028-0.203-0.049-0.305-0.074
	c9.36-10.451,15.065-24.24,15.065-39.34V10c0-5.522-4.478-10-10-10h-60.742c-26.099,0-47.332,21.233-47.332,47.332v44.337
	c0,15.1,5.706,28.889,15.065,39.34c-0.102,0.025-0.204,0.046-0.305,0.075c-29.159,2.687-54.094,20.15-67.233,44.821
	c-13.14-24.671-38.074-42.135-67.233-44.821c-0.101-0.028-0.204-0.05-0.305-0.075c9.36-10.451,15.065-24.24,15.065-39.34V10
	c0-5.522-4.478-10-10-10h-60.742C106.75,0,85.517,21.233,85.517,47.332v44.337c0,15.1,5.706,28.889,15.065,39.34
	c-0.102,0.025-0.204,0.046-0.305,0.074c-43.214,3.981-77.171,40.418-77.171,84.653V246H20c-11.028,0-20,8.972-20,20v36
	c0,11.028,8.972,20,20,20h8v29.577c0,5.522,4.478,10,10,10s10-4.478,10-10V322h416v28H354.333c-5.522,0-10,4.478-10,10
	s4.478,10,10,10H464v122H48v-56c0-5.522-4.478-10-10-10s-10,4.478-10,10v66c0,5.522,4.478,10,10,10h436c5.522,0,10-4.478,10-10V322
	h8c11.028,0,20-8.972,20-20v-36C512,254.972,503.028,246,492,246z M328.537,78.453h59.765c6.627,0,12.866-1.693,18.31-4.667v17.883
	c0,21.525-17.512,39.037-39.037,39.037s-39.037-17.512-39.037-39.037V78.453H328.537z M385.006,150.706l-17.432,17.432
	l-17.432-17.432H385.006z M328.537,47.332c0-15.071,12.261-27.332,27.332-27.332h50.742v20.144c0,10.096-8.214,18.31-18.31,18.31
	h-59.765L328.537,47.332L328.537,47.332z M266.127,215.736c0-32.906,24.573-60.164,56.33-64.431l38.046,38.046
	c1.953,1.952,4.512,2.929,7.071,2.929s5.118-0.977,7.071-2.929l38.047-38.047c31.756,4.267,56.33,31.525,56.33,64.431V246H266.127
	V215.736z M105.516,78.453h59.765c6.627,0,12.866-1.693,18.31-4.667v17.883c0,21.525-17.512,39.037-39.037,39.037
	s-39.037-17.512-39.037-39.037L105.516,78.453L105.516,78.453z M161.984,150.706l-17.432,17.432l-17.432-17.432H161.984z
	 M105.516,47.332c0-15.071,12.261-27.332,27.332-27.332h50.742v20.144c0,10.096-8.214,18.31-18.31,18.31h-59.765L105.516,47.332
	L105.516,47.332z M43.104,215.736c0-32.906,24.574-60.164,56.33-64.431l38.047,38.047c1.953,1.952,4.512,2.929,7.071,2.929
	s5.118-0.977,7.071-2.929l38.046-38.046c31.756,4.267,56.33,31.525,56.33,64.431V246H43.104V215.736z M492,302h-18H38H20v-36h13.104
	H256h0.127h222.896H492l0.013,35.999C492.013,302,492.009,302,492,302z"/>
<path d="M38,402.27c2.63,0,5.21-1.069,7.069-2.93c1.86-1.86,2.931-4.44,2.931-7.07c0-2.64-1.07-5.21-2.931-7.069
	c-1.859-1.87-4.439-2.931-7.069-2.931s-5.21,1.061-7.07,2.931c-1.86,1.859-2.93,4.43-2.93,7.069c0,2.63,1.069,5.21,2.93,7.07
	S35.37,402.27,38,402.27z"/>
<path d="M315.069,367.069C316.93,365.21,318,362.63,318,360s-1.07-5.21-2.931-7.07C313.21,351.07,310.63,350,308,350
	s-5.21,1.069-7.07,2.93S298,357.37,298,360s1.069,5.21,2.93,7.069c1.86,1.86,4.44,2.931,7.07,2.931S313.21,368.93,315.069,367.069z"
	/>
<g>
</g>
<g>
</g>
<g>
</g>
<g>
</g>
<g>
</g>
<g>
</g>
<g>
</g>
<g>
</g>
<g>
</g>
<g>
</g>
<g>
</g>
<g>
</g>
<g>
</g>
<g>
</g>
<g>
</g>
</svg>
