<?xml version="1.0" encoding="iso-8859-1"?>
<!-- Generator: Adobe Illustrator 19.0.0, SVG Export Plug-In . SVG Version: 6.00 Build 0)  -->
<svg version="1.1" id="Capa_1" xmlns="http://www.w3.org/2000/svg" xmlns:xlink="http://www.w3.org/1999/xlink" x="0px" y="0px"
	 viewBox="0 0 512.001 512.001" style="enable-background:new 0 0 512.001 512.001;" xml:space="preserve">
<path style="fill:#A5DDFF;" d="M340.003,502L340.003,502H171.997l0,0c0-22.127,17.938-40.064,40.064-40.064h87.879
	C322.066,461.936,340.003,479.873,340.003,502z"/>
<rect x="216.979" y="396.946" style="fill:#5CC1FF;" width="78.043" height="64.989"/>
<path style="fill:#DFF3FF;" d="M412.327,63.999h44.877c9.833,0,17.806,7.949,17.806,17.755v296.487
	c0,9.805-7.972,17.755-17.806,17.755H54.798c-9.833,0-17.806-7.949-17.806-17.755V81.753c0-9.805,7.972-17.755,17.806-17.755h47.184
	C101.982,63.999,412.327,63.999,412.327,63.999z"/>
<path style="fill:#FFFFFF;" d="M388.006,331.993H123.996V20.001c0-5.523,4.477-10,10-10h244.01c5.523,0,10,4.477,10,10V331.993z"/>
<rect x="36.992" y="331.994" style="fill:#A5DDFF;" width="438.018" height="64.003"/>
<path style="fill:#FFCDAC;" d="M276.294,105.809v5.073c0,11.207-9.085,20.294-20.294,20.294l0,0l0,0
	c-11.207,0-20.294-9.085-20.294-20.294v-5.073c0-11.207,9.085-20.294,20.294-20.294l0,0
	C267.208,85.516,276.294,94.602,276.294,105.809z"/>
<path style="fill:#FE6663;" d="M256.001,131.176L256.001,131.176c-19.81,0-36.734,12.307-43.578,29.685
	c11.426,10.632,26.738,17.146,43.578,17.146s32.151-6.513,43.578-17.146C292.736,143.482,275.811,131.176,256.001,131.176z"/>
<path d="M256.001,353.985c-2.63,0-5.21,1.07-7.07,2.93c-1.86,1.86-2.93,4.44-2.93,7.07c0,2.63,1.069,5.2,2.93,7.07
	c1.86,1.859,4.44,2.93,7.07,2.93c2.63,0,5.21-1.07,7.069-2.93c1.86-1.86,2.931-4.44,2.931-7.07c0-2.64-1.07-5.21-2.931-7.07
	C261.211,355.055,258.631,353.985,256.001,353.985z"/>
<path d="M457.204,53.998h-59.197V20.001C398.007,8.972,389.034,0,378.006,0h-244.01c-11.028,0-20.001,8.972-20.001,20.001v33.997
	H54.797c-15.332,0-27.806,12.451-27.806,27.755v296.488c0,15.305,12.475,27.755,27.806,27.755h152.181v46.196
	c-25.228,2.555-44.982,23.918-44.982,49.808c0,5.522,4.478,10,10,10h168.007c5.522,0,10-4.478,10-10
	c0-25.889-19.754-47.252-44.981-49.808v-46.196h152.181c15.332,0,27.806-12.451,27.806-27.755V81.753
	C485.01,66.449,472.536,53.998,457.204,53.998z M285.022,451.936h-58.043v-45.94h58.043V451.936z M328.293,491.999H183.707
	c4.13-11.676,15.28-20.064,28.354-20.064h4.918h78.044h4.916C313.013,471.936,324.163,480.324,328.293,491.999z M457.204,73.999
	c4.304,0,7.805,3.479,7.805,7.754v240.239h-67.003V73.999H457.204z M54.797,73.999h59.197v67.007c0,5.523,4.478,10,10,10
	c5.522,0,10-4.477,10-10V20.001h244.01v301.991h-244.01V213.373c0-5.523-4.478-10-10-10c-5.522,0-10,4.477-10,10v108.619H46.991
	V81.753C46.992,77.478,50.494,73.999,54.797,73.999z M457.204,385.995H54.797c-4.304,0-7.805-3.479-7.805-7.754v-36.247h77.003
	h264.011h77.003v36.247C465.01,382.517,461.508,385.995,457.204,385.995z"/>
<path d="M205.003,167.553c0.361,0.401,0.75,0.781,1.178,1.123c13.159,12.001,30.648,19.332,49.82,19.332s36.661-7.33,49.82-19.332
	c0.428-0.342,0.816-0.722,1.178-1.123c14.156-13.488,23.005-32.498,23.005-53.548c0-40.806-33.197-74.003-74.003-74.003
	s-74.003,33.197-74.003,74.003C181.998,135.055,190.846,154.065,205.003,167.553z M224.986,158.171
	c6.672-10.497,18.204-16.995,31.015-16.995c12.811,0,24.343,6.498,31.015,16.995c-8.784,6.187-19.479,9.835-31.015,9.835
	S233.77,164.359,224.986,158.171z M245.708,110.883v-5.073c0-5.675,4.617-10.292,10.293-10.292c5.676,0,10.293,4.617,10.293,10.292
	v5.073c0,5.676-4.617,10.293-10.293,10.293C250.325,121.176,245.708,116.559,245.708,110.883z M256.001,60.002
	c29.776,0,54.002,24.225,54.002,54.002c0,10.883-3.247,21.018-8.808,29.506c-5.257-6.929-11.991-12.496-19.673-16.338
	c3.016-4.708,4.773-10.296,4.773-16.291v-5.073c0-16.704-13.591-30.293-30.294-30.293s-30.294,13.59-30.294,30.293v5.073
	c0,5.994,1.757,11.582,4.773,16.291c-7.681,3.843-14.417,9.408-19.673,16.338c-5.561-8.488-8.808-18.623-8.808-29.506
	C201.999,84.227,226.224,60.002,256.001,60.002z"/>
<path d="M123.996,185.008c2.63,0,5.21-1.07,7.069-2.93c1.86-1.86,2.931-4.44,2.931-7.07s-1.07-5.21-2.931-7.07
	c-1.859-1.86-4.439-2.93-7.069-2.93c-2.63,0-5.21,1.07-7.07,2.93c-1.86,1.86-2.93,4.44-2.93,7.07s1.069,5.21,2.93,7.07
	S121.365,185.008,123.996,185.008z"/>
<path d="M318.004,212.009H201.999c-5.522,0-10,4.477-10,10c0,5.523,4.478,10,10,10h116.005c5.522,0,10-4.477,10-10
	C328.004,216.486,323.526,212.009,318.004,212.009z"/>
<path d="M318.004,256.01c-2.63,0-5.21,1.069-7.07,2.93c-1.86,1.861-2.93,4.44-2.93,7.07c0,2.63,1.069,5.21,2.93,7.069
	c1.86,1.86,4.44,2.931,7.07,2.931c2.63,0,5.21-1.07,7.069-2.931c1.86-1.859,2.931-4.439,2.931-7.069c0-2.63-1.07-5.21-2.931-7.07
	C323.214,257.08,320.634,256.01,318.004,256.01z"/>
<path d="M279.673,256.01h-77.674c-5.522,0-10,4.478-10,10c0,5.522,4.478,10,10,10h77.674c5.522,0,10-4.478,10-10
	C289.673,260.489,285.195,256.01,279.673,256.01z"/>
<g>
</g>
<g>
</g>
<g>
</g>
<g>
</g>
<g>
</g>
<g>
</g>
<g>
</g>
<g>
</g>
<g>
</g>
<g>
</g>
<g>
</g>
<g>
</g>
<g>
</g>
<g>
</g>
<g>
</g>
</svg>
