<?xml version="1.0" encoding="iso-8859-1"?>
<!-- Generator: Adobe Illustrator 19.0.0, SVG Export Plug-In . SVG Version: 6.00 Build 0)  -->
<svg version="1.1" id="Capa_1" xmlns="http://www.w3.org/2000/svg" xmlns:xlink="http://www.w3.org/1999/xlink" x="0px" y="0px"
	 viewBox="0 0 512 512" style="enable-background:new 0 0 512 512;" xml:space="preserve">
<path style="fill:#C7EAFF;" d="M228.201,503v-39.952c0-16.015-12.983-28.998-28.998-28.998h-33.855
	c-27.204,0-49.258-22.054-49.258-49.258v-57.173H41.157l56.517-132.037v-0.874C97.675,93.249,179.923,11,281.382,11l0,0
	C382.841,11,465.09,93.249,465.09,194.708V503"/>
<g>
	<path style="fill:#FE6663;" d="M317.966,320.378L317.966,320.378c-11.046,0-20-8.954-20-20v-43.233
		c0-17.065,11.677-31.596,28.395-35.335c18.521-4.144,31.012-20.974,29.699-40.018c-1.3-18.85-16.494-34.044-35.345-35.344
		c-10.75-0.739-20.979,2.871-28.799,10.169c-7.827,7.307-12.139,17.225-12.139,27.925l0,0c0,11.046-8.954,20-20,20l0,0
		c-11.046,0-20-8.954-20-20l0,0c0-21.591,9.056-42.427,24.845-57.165c16.012-14.947,36.907-22.345,58.844-20.834
		c38.667,2.666,69.834,33.834,72.499,72.499c1.306,18.943-4.258,37.662-15.666,52.708c-10.578,13.95-25.524,23.953-42.333,28.395
		v40.233C337.966,311.423,329.012,320.378,317.966,320.378z"/>
	<path style="fill:#FE6663;" d="M317.966,353.99L317.966,353.99c-11.046,0-20,8.954-20,20l0,0c0,11.046,8.954,20,20,20l0,0
		c11.046,0,20-8.954,20-20l0,0C337.966,362.944,329.012,353.99,317.966,353.99z"/>
</g>
<path d="M467.968,512c-2.63,0-5.21-1.07-7.07-2.931c-1.859-1.859-2.93-4.439-2.93-7.069s1.07-5.21,2.93-7.07
	c1.86-1.86,4.44-2.93,7.07-2.93s5.21,1.069,7.07,2.93c1.859,1.86,2.93,4.44,2.93,7.07s-1.07,5.21-2.93,7.069
	C473.178,510.93,470.598,512,467.968,512z"/>
<path d="M231.076,512c-5.522,0-10-4.478-10-10v-39.952c0-10.476-8.522-18.998-18.998-18.998h-33.854
	c-32.675,0-59.258-26.583-59.258-59.258v-47.173H44.032c-3.36,0-6.496-1.688-8.348-4.493c-1.851-2.806-2.168-6.353-0.846-9.441
	l55.715-130.162C91.197,86.258,177.844,0,284.257,0c106.811,0,193.708,86.897,193.708,193.708v268.209c0,5.522-4.478,10-10,10
	s-10-4.478-10-10V193.708C457.965,97.925,380.041,20,284.257,20S110.549,97.925,110.549,193.708v0.874
	c0,1.353-0.274,2.691-0.807,3.935L59.19,316.619h59.775c5.522,0,10,4.478,10,10v57.173c0,21.646,17.611,39.258,39.258,39.258h33.854
	c21.504,0,38.998,17.494,38.998,38.998V502C241.076,507.522,236.598,512,231.076,512z"/>
<path d="M324.023,116.583c-0.252,0-0.506-0.009-0.762-0.029l-0.492-0.036c-5.51-0.385-9.663-5.164-9.278-10.673
	s5.147-9.672,10.673-9.278l0.6,0.043c5.507,0.415,9.636,5.215,9.221,10.722C333.589,112.584,329.205,116.583,324.023,116.583z"/>
<path d="M317.966,330.378c-16.542,0-30-13.458-30-30v-43.233c0-21.782,14.891-40.326,36.212-45.094
	c13.663-3.057,22.876-15.493,21.905-29.571c-0.958-13.896-12.16-25.097-26.056-26.055c-7.97-0.551-15.518,2.117-21.288,7.503
	c-5.779,5.395-8.962,12.716-8.962,20.614c0,16.542-13.458,30-30,30s-30-13.458-30-30c0-24.352,10.213-47.853,28.021-64.475
	c7.975-7.445,17.058-13.267,26.997-17.304c5.117-2.079,10.95,0.385,13.027,5.502c2.078,5.117-0.385,10.95-5.502,13.028
	c-7.668,3.114-14.691,7.621-20.875,13.394c-13.771,12.854-21.669,31.026-21.669,49.855c0,5.514,4.486,10,10,10
	c5.514,0,10-4.486,10-10c0-13.502,5.438-26.016,15.314-35.235c9.867-9.209,22.755-13.766,36.31-12.835
	c23.805,1.642,42.993,20.829,44.635,44.632c1.654,24.011-14.113,45.234-37.492,50.464c-12.116,2.71-20.578,13.228-20.578,25.577
	v43.233c0,5.514,4.486,10,10,10s10-4.486,10-10v-40.233c0-4.539,3.057-8.508,7.445-9.668c14.627-3.866,27.739-12.662,36.92-24.769
	c9.946-13.119,14.797-29.447,13.657-45.979c-1.64-23.793-16.003-45.305-37.484-56.141c-4.931-2.487-6.912-8.501-4.425-13.432
	s8.502-6.913,13.433-4.424c27.749,13.998,46.307,41.825,48.43,72.622c1.472,21.356-4.805,42.465-17.674,59.438
	c-10.286,13.565-24.398,23.917-40.302,29.69v32.896C347.966,316.92,334.508,330.378,317.966,330.378z"/>
<path d="M317.966,403.99c-16.542,0-30-13.458-30-30s13.458-30,30-30s30,13.458,30,30S334.508,403.99,317.966,403.99z
	 M317.966,363.99c-5.514,0-10,4.486-10,10s4.486,10,10,10s10-4.486,10-10S323.48,363.99,317.966,363.99z"/>
<g>
</g>
<g>
</g>
<g>
</g>
<g>
</g>
<g>
</g>
<g>
</g>
<g>
</g>
<g>
</g>
<g>
</g>
<g>
</g>
<g>
</g>
<g>
</g>
<g>
</g>
<g>
</g>
<g>
</g>
</svg>
