<?xml version="1.0" encoding="iso-8859-1"?>
<!-- Generator: Adobe Illustrator 19.0.0, SVG Export Plug-In . SVG Version: 6.00 Build 0)  -->
<svg version="1.1" id="Capa_1" xmlns="http://www.w3.org/2000/svg" xmlns:xlink="http://www.w3.org/1999/xlink" x="0px" y="0px"
	 viewBox="0 0 512 512" style="enable-background:new 0 0 512 512;" xml:space="preserve">
<path style="fill:#FFBC53;" d="M93.324,386.706h72.835c41.438,0,75.03,33.592,75.03,75.03V502H18.294v-40.264
	C18.294,420.298,51.887,386.706,93.324,386.706z"/>
<polygon style="fill:#FFFFFF;" points="88.167,386.706 129.742,428.28 171.315,386.706 "/>
<path style="fill:#5CC1FF;" d="M141.447,256H80.704v30.144c0,15.635,12.675,28.309,28.309,28.309h69.764v-21.121
	C178.779,272.714,162.064,256,141.447,256z"/>
<path style="fill:#FFCDAC;" d="M80.704,314.453v23.216c0,27.082,21.955,49.037,49.037,49.037l0,0
	c27.082,0,49.037-21.955,49.037-49.037v-23.216H80.704z"/>
<path style="fill:#FE6663;" d="M378.755,386.706h40.183c41.293,0,74.767,33.474,74.767,74.767V502H303.988v-40.527
	C303.988,420.181,337.463,386.706,378.755,386.706z"/>
<path style="fill:#FFBC53;" d="M398.846,256L398.846,256c31.89-2.44,57.981,21.732,57.981,53.715v15.4l0,0v29.524
	c0,17.71-14.357,32.067-32.067,32.067h-51.827c-17.71,0-32.067-14.357-32.067-32.067v-36.053
	C340.866,286.603,366.957,258.44,398.846,256z"/>
<path style="fill:#A5DDFF;" d="M252.118,10H96.652c-20.69,0-37.462,16.772-37.462,37.462v100.21
	c0,20.69,16.772,37.462,37.462,37.462h4.058v33.404l33.404-33.404h118.005c20.69,0,37.462-16.772,37.462-37.462V47.462
	C289.581,26.772,272.809,10,252.118,10z"/>
<path style="fill:#95E540;" d="M276.47,47.462h155.467c20.69,0,37.462,16.772,37.462,37.462v100.21
	c0,20.69-16.772,37.462-37.462,37.462h-4.058V256l-33.404-33.404H276.47c-20.69,0-37.462-16.772-37.462-37.462V84.924
	C239.007,64.234,255.779,47.462,276.47,47.462z"/>
<path d="M174.018,377.083c-0.101-0.028-0.203-0.049-0.305-0.074c9.36-10.451,15.065-24.24,15.065-39.34v-44.337
	c0-26.099-21.233-47.332-47.332-47.332H80.704c-5.522,0-10,4.477-10,10v81.669c0,15.1,5.706,28.889,15.065,39.34
	c-0.102,0.025-0.204,0.046-0.305,0.075c-43.213,3.981-77.17,40.419-77.17,84.653V502c0,5.522,4.478,10,10,10h222.895
	c5.522,0,10-4.478,10-10v-40.264C251.189,417.501,217.231,381.064,174.018,377.083z M90.704,319.786
	c5.443,2.974,11.682,4.667,18.31,4.667h59.765v13.216c0,21.525-17.512,39.037-39.037,39.037s-39.037-17.512-39.037-39.037
	L90.704,319.786L90.704,319.786z M147.173,396.706l-17.432,17.432l-17.432-17.432H147.173z M90.704,266h50.742
	c15.071,0,27.332,12.261,27.332,27.332v11.121h-59.765c-10.096,0-18.31-8.214-18.31-18.31L90.704,266L90.704,266z M231.189,492
	H28.294v-30.264c0-32.906,24.573-60.164,56.33-64.431l38.046,38.046c1.953,1.952,4.512,2.929,7.071,2.929s5.118-0.977,7.071-2.929
	l38.047-38.047c31.756,4.267,56.33,31.525,56.33,64.431V492H231.189z"/>
<path d="M454.365,384.493c7.691-7.627,12.463-18.193,12.463-29.854V313.98c0-23.074-11.566-43.488-29.194-55.782
	c0.16-0.712,0.245-1.448,0.245-2.198v-23.774c23.378-2.931,41.521-22.932,41.521-47.092V84.924c0-26.17-21.291-47.462-47.462-47.462
	H276.469c-26.171,0-47.462,21.292-47.462,47.462v100.21c0,26.17,21.291,47.462,47.462,47.462h113.863l13.615,13.615
	c-1.686-0.126-3.383-0.211-5.1-0.211c-37.485,0-67.981,30.496-67.981,67.98v40.658c0,11.662,4.772,22.227,12.463,29.854
	c-29.094,13.443-49.341,42.883-49.341,76.98V502c0,5.522,4.478,10,10,10h189.718c5.522,0,10-4.478,10-10v-40.526
	C503.706,427.376,483.458,397.936,454.365,384.493z M394.475,212.596H276.469c-15.143,0-27.462-12.319-27.462-27.462V84.924
	c0-15.143,12.319-27.462,27.462-27.462h155.468c15.143,0,27.462,12.319,27.462,27.462v0.538h-63.438c-5.522,0-10,4.477-10,10
	s4.478,10,10,10h63.438v79.672c0,15.143-12.319,27.462-27.462,27.462h-4.059c-5.522,0-10,4.477-10,10v9.261l-16.332-16.332
	C399.67,213.65,397.127,212.596,394.475,212.596z M372.933,376.706c-12.168,0-22.067-9.899-22.067-22.067V313.98
	c0-26.456,21.524-47.98,47.981-47.98c26.456,0,47.98,21.524,47.98,47.98v40.658c0,12.168-9.899,22.067-22.067,22.067h-5.821h-40.184
	h-5.822V376.706z M483.706,492H313.988v-30.526c0-35.713,29.055-64.768,64.768-64.768h40.184c35.713,0,64.767,29.055,64.767,64.768
	V492H483.706z"/>
<path d="M90.71,194.764v23.774c0,4.044,2.437,7.691,6.173,9.239c1.237,0.513,2.537,0.762,3.825,0.762c2.603,0,5.16-1.017,7.073-2.93
	l30.475-30.475h51.967c5.522,0,10-4.477,10-10s-4.478-10-10-10h-56.109c-2.652,0-5.195,1.054-7.071,2.929l-16.332,16.332v-9.261
	c0-5.523-4.478-10-10-10h-4.059c-15.143,0-27.462-12.319-27.462-27.462V47.462C69.189,32.319,81.508,20,96.652,20h116.31
	c5.522,0,10-4.477,10-10s-4.478-10-10-10H96.652C70.48,0,49.189,21.292,49.189,47.462v100.21
	C49.189,171.832,67.333,191.833,90.71,194.764z"/>
<path d="M252.124,20c2.63,0,5.2-1.07,7.069-2.93c1.86-1.86,2.931-4.44,2.931-7.07s-1.07-5.21-2.931-7.07
	c-1.869-1.86-4.44-2.93-7.069-2.93c-2.641,0-5.221,1.07-7.07,2.93c-1.87,1.86-2.94,4.44-2.94,7.07s1.07,5.21,2.94,7.07
	C246.904,18.93,249.483,20,252.124,20z"/>
<path d="M354.204,85.46c-2.63,0-5.21,1.07-7.07,2.93c-1.86,1.86-2.93,4.44-2.93,7.07s1.069,5.21,2.93,7.07s4.44,2.93,7.07,2.93
	s5.21-1.07,7.069-2.93c1.86-1.86,2.931-4.44,2.931-7.07s-1.07-5.21-2.931-7.07C359.415,86.53,356.834,85.46,354.204,85.46z"/>
<g>
</g>
<g>
</g>
<g>
</g>
<g>
</g>
<g>
</g>
<g>
</g>
<g>
</g>
<g>
</g>
<g>
</g>
<g>
</g>
<g>
</g>
<g>
</g>
<g>
</g>
<g>
</g>
<g>
</g>
</svg>
