<?xml version="1.0" encoding="iso-8859-1"?>
<!-- Generator: Adobe Illustrator 19.0.0, SVG Export Plug-In . SVG Version: 6.00 Build 0)  -->
<svg version="1.1" id="Capa_1" xmlns="http://www.w3.org/2000/svg" xmlns:xlink="http://www.w3.org/1999/xlink" x="0px" y="0px"
	 viewBox="0 0 512.001 512.001" style="enable-background:new 0 0 512.001 512.001;" xml:space="preserve">
<path style="fill:#A5DDFF;" d="M461,502H51c-22.644,0-41-18.356-41-41v-13h492v13C502,483.645,483.644,502,461,502z"/>
<path style="fill:#DFF3FF;" d="M432,121.938H80c-24.301,0-44,19.699-44,44V448h440V165.938C476,141.637,456.301,121.938,432,121.938
	z"/>
<path style="fill:#FE6663;" d="M424.685,10h-57.802c-42.7,0-77.315,34.615-77.315,77.315v6.366
	c0,25.649,11.544,48.598,29.715,63.948V187.5l29.401-13.82c7.77,2.384,16.014,3.683,24.565,3.683h51.436
	c42.7,0,77.315-34.615,77.315-77.315V87.315C502,44.615,467.385,10,424.685,10z"/>
<path d="M502,438h-16V217.667c0-5.523-4.478-10-10-10s-10,4.477-10,10V438H46V165.938c0-18.748,15.252-34,34-34h162.333
	c5.522,0,10-4.477,10-10s-4.478-10-10-10H80c-29.775,0-54,24.224-54,54V438H10c-5.522,0-10,4.478-10,10v13c0,28.121,22.879,51,51,51
	h410c28.121,0,51-22.879,51-51v-13C512,442.478,507.522,438,502,438z M492,461c0,17.094-13.906,31-31,31H51
	c-17.094,0-31-13.906-31-31v-3h16h440h16V461z"/>
<path d="M424.685,0h-57.802c-48.146,0-87.314,39.169-87.314,87.315v6.366c0,26.054,10.771,50.732,29.715,68.435V187.5
	c0,3.423,1.75,6.607,4.64,8.442c1.629,1.034,3.491,1.558,5.361,1.558c1.448,0,2.901-0.314,4.253-0.95l26.019-12.23
	c7.732,2.02,15.685,3.042,23.693,3.042h51.436c48.146,0,87.315-39.169,87.315-87.315V87.315C512,39.169,472.83,0,424.685,0z
	 M492,100.047c0,37.118-30.197,67.315-67.315,67.315h-51.436c-7.339,0-14.617-1.091-21.632-3.243
	c-2.375-0.728-4.938-0.547-7.187,0.511l-15.147,7.12v-14.121c0-2.944-1.298-5.739-3.547-7.639
	c-16.63-14.048-26.168-34.572-26.168-56.309v-6.366c0-37.118,30.197-67.315,67.314-67.315h57.802C461.803,20,492,50.197,492,87.315
	V100.047z"/>
<path d="M395.784,88.75c-5.522,0-10,4.477-10,10v23.188c0,5.523,4.478,10,10,10s10-4.477,10-10V98.75
	C405.784,93.227,401.307,88.75,395.784,88.75z"/>
<path d="M395.78,70.6c2.64,0,5.21-1.06,7.069-2.92c1.87-1.87,2.931-4.44,2.931-7.08c0-2.63-1.061-5.21-2.931-7.07
	c-1.859-1.86-4.43-2.93-7.069-2.93c-2.631,0-5.211,1.07-7.07,2.93c-1.86,1.86-2.93,4.44-2.93,7.07c0,2.64,1.069,5.21,2.93,7.08
	C390.569,69.54,393.149,70.6,395.78,70.6z"/>
<path d="M98.385,272.779c-5.144,0-9.328-4.185-9.328-9.329c0-5.522-4.478-10-10-10s-10,4.478-10,10
	c0,16.172,13.157,29.329,29.329,29.329s29.328-13.157,29.328-29.329V216h9.329c5.522,0,10-4.477,10-10s-4.478-10-10-10H98.385
	c-5.522,0-10,4.477-10,10s4.478,10,10,10h9.329v47.449C107.714,268.594,103.529,272.779,98.385,272.779z"/>
<path d="M193.353,292.779c26.683,0,48.39-21.707,48.39-48.389S220.036,196,193.353,196c-26.682,0-48.389,21.708-48.389,48.389
	C144.964,271.072,166.671,292.779,193.353,292.779z M193.353,216c15.654,0,28.39,12.735,28.39,28.389s-12.735,28.389-28.39,28.389
	c-15.653,0-28.389-12.735-28.389-28.389S177.699,216,193.353,216z"/>
<path d="M265.385,296h18.658c16.542,0,30-13.458,30-30c0-7.678-2.902-14.688-7.664-20c4.761-5.312,7.664-12.322,7.664-20
	c0-16.542-13.458-30-30-30h-18.658c-5.522,0-10,4.477-10,10v40v40C255.385,291.522,259.862,296,265.385,296z M284.043,276h-8.658
	v-20h8.658c5.514,0,10,4.486,10,10S289.557,276,284.043,276z M275.385,216h8.658c5.514,0,10,4.486,10,10s-4.486,10-10,10h-8.658V216
	z"/>
<path d="M304.943,325.918H117.714c-5.522,0-10,4.478-10,10s4.478,10,10,10h187.229c5.522,0,10-4.478,10-10
	S310.466,325.918,304.943,325.918z"/>
<path d="M71.979,328.85c-1.859,1.86-2.92,4.431-2.92,7.07c0,2.63,1.061,5.21,2.92,7.07c1.87,1.859,4.44,2.93,7.08,2.93
	c2.63,0,5.21-1.07,7.07-2.93c1.86-1.87,2.93-4.44,2.93-7.07s-1.069-5.21-2.93-7.07c-1.86-1.87-4.44-2.93-7.07-2.93
	C76.42,325.921,73.85,326.979,71.979,328.85z"/>
<path d="M355.889,345.918h77.055c5.522,0,10-4.478,10-10s-4.478-10-10-10h-77.055c-5.522,0-10,4.478-10,10
	S350.366,345.918,355.889,345.918z"/>
<path d="M79.057,394h225.887c5.522,0,10-4.478,10-10s-4.478-10-10-10H79.057c-5.522,0-10,4.478-10,10S73.534,394,79.057,394z"/>
<path d="M355.889,394h77.055c5.522,0,10-4.478,10-10s-4.478-10-10-10h-77.055c-5.522,0-10,4.478-10,10S350.366,394,355.889,394z"/>
<g>
</g>
<g>
</g>
<g>
</g>
<g>
</g>
<g>
</g>
<g>
</g>
<g>
</g>
<g>
</g>
<g>
</g>
<g>
</g>
<g>
</g>
<g>
</g>
<g>
</g>
<g>
</g>
<g>
</g>
</svg>
