<?xml version="1.0" encoding="iso-8859-1"?>
<!-- Generator: Adobe Illustrator 19.0.0, SVG Export Plug-In . SVG Version: 6.00 Build 0)  -->
<svg version="1.1" id="Capa_1" xmlns="http://www.w3.org/2000/svg" xmlns:xlink="http://www.w3.org/1999/xlink" x="0px" y="0px"
	 viewBox="0 0 512 512" style="enable-background:new 0 0 512 512;" xml:space="preserve">
<circle style="fill:#FE6663;" cx="228.977" cy="255.993" r="159.984"/>
<circle style="fill:#FFFFFF;" cx="228.977" cy="255.993" r="91.991"/>
<g>
	<polygon style="fill:#BAEE83;" points="10.099,103.694 87.192,181.153 154.223,181.153 76.939,103.694 	"/>
	<polygon style="fill:#BAEE83;" points="154.223,181.153 76.939,103.694 76.939,37.028 154.223,114.121 	"/>
</g>
<path style="fill:#7ACCFF;" d="M479.581,474.984H248.98c-7.075,0-12.812-5.735-12.812-12.812V269.005h256.224v193.167
	C492.392,469.248,486.657,474.984,479.581,474.984z"/>
<path style="fill:#C7EAFF;" d="M226.56,269.005v61.338c0,14.151,11.472,25.622,25.622,25.622h87.757l48.683-0.072l87.74,0.056
	c14.158,0.009,25.638-11.465,25.638-25.622v-61.322H226.56z"/>
<g>
	<path style="fill:#FFFFFF;" d="M382.216,334.812h-35.871c-1.061,0-1.922,0.86-1.922,1.922v25.654
		c0,10.967,8.89,19.857,19.857,19.857l0,0c10.967,0,19.857-8.89,19.857-19.857v-25.654
		C384.138,335.673,383.277,334.812,382.216,334.812z"/>
	<path style="fill:#FFFFFF;" d="M311.785,267.674V238.32c0-4.55,3.688-8.237,8.237-8.237h88.515c4.55,0,8.237,3.688,8.237,8.237
		v29.354H311.785z"/>
</g>
<path d="M431.969,206.103l0.06,0.243c1.109,4.576,5.2,7.645,9.709,7.645c0.78,0,1.573-0.092,2.364-0.284
	c5.366-1.301,8.663-6.706,7.361-12.073l-0.082-0.336c-1.327-5.361-6.748-8.63-12.108-7.304
	C433.913,195.321,430.642,200.742,431.969,206.103z"/>
<path d="M144.963,217.155c-5.233-1.76-10.904,1.054-12.666,6.287c-3.522,10.464-5.308,21.416-5.308,32.552
	c0,36.063,18.456,68.73,49.368,87.383c1.617,0.975,3.397,1.439,5.156,1.439c3.388,0,6.692-1.724,8.57-4.836
	c2.854-4.729,1.333-10.874-3.396-13.728c-24.86-15-39.702-41.266-39.702-70.26c0-8.962,1.435-17.768,4.264-26.172
	C153.011,224.587,150.197,218.916,144.963,217.155z"/>
<path d="M200.412,179.113c9.124-3.392,18.734-5.111,28.567-5.111c20.975,0,40.932,7.914,56.194,22.285
	c1.931,1.819,4.394,2.72,6.852,2.72c2.66,0,5.314-1.055,7.282-3.145c3.786-4.021,3.595-10.349-0.425-14.135
	c-18.987-17.877-43.813-27.723-69.904-27.723c-12.219,0-24.175,2.142-35.535,6.364c-5.176,1.925-7.812,7.68-5.888,12.857
	C189.479,178.401,195.234,181.038,200.412,179.113z"/>
<path d="M512,269.005c0-5.521-4.477-9.999-9.999-9.999h-75.226V238.32c0-10.055-8.181-18.236-18.236-18.236h-13.423
	c-6.874-31.95-22.705-61.05-45.94-84.286c-39.427-39.427-95.76-57.01-150.693-47.043c-5.433,0.986-9.039,6.19-8.053,11.624
	c0.986,5.434,6.191,9.036,11.624,8.053c48.479-8.798,98.193,6.718,132.981,41.508c19.479,19.479,33.065,43.621,39.574,70.145
	h-54.585c-10.055,0-18.236,8.181-18.236,18.236v20.686h-75.226c-5.522,0-9.999,4.478-9.999,9.999v61.339
	c0,9.386,3.655,17.929,9.608,24.299v51.314c-39.008-0.666-75.437-16.097-103.246-43.907
	c-35.695-35.695-50.987-86.578-40.906-136.114c1.101-5.411-2.393-10.691-7.804-11.792c-5.413-1.102-10.691,2.393-11.792,7.804
	c-11.422,56.129,5.908,113.789,46.36,154.242c31.126,31.126,73.519,48.994,117.387,49.749v36.233c0,0.938,0.063,1.86,0.174,2.768
	c-114.021-1.418-206.346-94.595-206.346-208.946c0-35.757,9.095-70.709,26.37-101.683l33.737,33.897
	c1.877,1.886,4.428,2.946,7.087,2.946h62.89l61.653,61.653c1.953,1.953,4.512,2.929,7.07,2.929s5.118-0.976,7.07-2.929
	c3.905-3.905,3.905-10.236,0-14.142l-61.654-61.653v-62.89c0-2.656-1.057-5.203-2.938-7.079l-33.831-33.748
	c30.934-17.217,65.828-26.281,101.524-26.281c81.116,0,155.58,47.573,189.709,121.199c1.692,3.65,5.304,5.796,9.078,5.796
	c1.408,0,2.838-0.299,4.199-0.93c5.01-2.323,7.189-8.267,4.867-13.277c-18.119-39.088-46.821-72.211-83.006-95.787
	c-37.147-24.205-80.319-36.998-124.846-36.998c-41.022,0-81.088,10.929-116.198,31.641L84.001,29.949
	c-2.863-2.855-7.161-3.707-10.894-2.157c-3.734,1.549-6.166,5.193-6.166,9.235v56.667H10.099c-4.041,0-7.683,2.431-9.233,6.161
	c-1.55,3.731-0.704,8.027,2.146,10.891l28.733,28.869C10.965,174.772,0,214.901,0,255.994c0,61.162,23.818,118.664,67.066,161.912
	c43.248,43.249,100.75,67.066,161.912,67.066l250.603,0.011c12.578,0,22.811-10.232,22.811-22.811V354.648
	c6.2-6.62,9.608-15.207,9.608-24.322v-61.322H512z M86.938,61.126l57.286,57.144v38.704L86.938,99.559V61.126z M72.791,113.693
	l57.292,57.46H91.347l-57.189-57.46C34.158,113.693,72.791,113.693,72.791,113.693z M321.784,240.082h84.991v18.924h-84.991V240.082
	z M236.559,279.004h255.443v51.323c0,4.176-1.626,8.1-4.579,11.051c-2.951,2.949-6.872,4.573-11.044,4.573c-0.003,0-0.006,0-0.01,0
	l-82.232-0.052v-9.164c0-6.573-5.347-11.921-11.921-11.921h-35.871c-6.573,0-11.921,5.347-11.921,11.921v9.232h-82.242
	c-8.615,0-15.623-7.009-15.623-15.623L236.559,279.004L236.559,279.004z M374.139,344.811v17.577c0,5.436-4.423,9.858-9.858,9.858
	c-5.435,0-9.858-4.423-9.858-9.858v-17.577H374.139z M479.581,464.985H261.237c-0.072-0.001-0.141-0.011-0.213-0.011h-12.152
	c-1.501-0.057-2.706-1.287-2.706-2.802v-96.726c1.957,0.334,3.965,0.518,6.015,0.518h82.464c1.773,14.783,14.383,26.28,29.635,26.28
	c15.275,0,27.901-11.534,29.643-26.349l82.432,0.052c0.008,0,0.015,0,0.023,0c2.037,0,4.046-0.18,6.014-0.513v51.548h-65.618
	c-5.522,0-9.999,4.478-9.999,9.999c0,5.521,4.477,9.999,9.999,9.999h65.618v25.191C482.393,463.723,481.132,464.985,479.581,464.985
	z"/>
<path d="M367.785,416.983c-2.64,0-5.209,1.069-7.079,2.93c-1.86,1.86-2.92,4.44-2.92,7.069s1.06,5.209,2.92,7.068
	c1.87,1.86,4.44,2.931,7.079,2.931c2.63,0,5.199-1.07,7.069-2.931c1.86-1.859,2.93-4.439,2.93-7.068s-1.07-5.209-2.93-7.069
	C372.994,418.053,370.414,416.983,367.785,416.983z"/>
<g>
</g>
<g>
</g>
<g>
</g>
<g>
</g>
<g>
</g>
<g>
</g>
<g>
</g>
<g>
</g>
<g>
</g>
<g>
</g>
<g>
</g>
<g>
</g>
<g>
</g>
<g>
</g>
<g>
</g>
</svg>
