<?xml version="1.0" encoding="iso-8859-1"?>
<!-- Generator: Adobe Illustrator 19.0.0, SVG Export Plug-In . SVG Version: 6.00 Build 0)  -->
<svg version="1.1" id="Capa_1" xmlns="http://www.w3.org/2000/svg" xmlns:xlink="http://www.w3.org/1999/xlink" x="0px" y="0px"
	 viewBox="0 0 512 512" style="enable-background:new 0 0 512 512;" xml:space="preserve">
<circle style="fill:#FFFFFF;" cx="256" cy="256" r="226"/>
<circle style="fill:#FE6663;" cx="256" cy="256" r="226"/>
<circle style="fill:#FFFFFF;" cx="256" cy="256" r="186"/>
<path d="M256,492c-63.038,0-122.303-24.548-166.877-69.123C44.548,378.303,20,319.038,20,256S44.548,133.697,89.123,89.123
	C133.697,44.548,192.962,20,256,20s122.303,24.548,166.877,69.123C467.452,133.697,492,192.962,492,256
	s-24.548,122.303-69.123,166.877C378.303,467.452,319.038,492,256,492z M256,40C136.897,40,40,136.897,40,256s96.897,216,216,216
	s216-96.897,216-216S375.103,40,256,40z"/>
<path d="M438.375,229.328c-4.669,0-8.844-3.287-9.795-8.041c-11.085-55.431-48.56-102.454-100.246-125.786
	c-5.034-2.272-7.272-8.195-5-13.229s8.194-7.273,13.229-5c57.552,25.98,99.282,78.352,111.628,140.093
	c1.083,5.416-2.429,10.684-7.845,11.767C439.685,229.264,439.024,229.328,438.375,229.328z"/>
<path d="M300.011,85.238c-0.792,0-1.597-0.095-2.4-0.293l-0.25-0.06c-5.37-1.291-8.676-6.69-7.386-12.061
	c1.291-5.37,6.69-8.678,12.061-7.386l0.359,0.087c5.363,1.321,8.639,6.739,7.317,12.102
	C308.589,82.187,304.504,85.238,300.011,85.238z"/>
<path d="M75.17,222.304c-0.775,0-1.563-0.091-2.349-0.28c-5.37-1.293-8.674-6.694-7.381-12.063
	c8.533-35.44,26.838-67.777,52.937-93.517c26.122-25.762,58.744-43.621,94.339-51.646c5.384-1.214,10.74,2.167,11.954,7.556
	c1.215,5.387-2.168,10.74-7.556,11.955c-64.78,14.605-116.683,65.764-132.23,130.334C83.781,219.225,79.685,222.304,75.17,222.304z"
	/>
<path d="M175.994,433.967c-1.444,0-2.91-0.313-4.299-0.977c-55.529-26.495-95.86-78.217-107.886-138.355
	c-1.083-5.416,2.429-10.684,7.845-11.767c5.415-1.085,10.684,2.43,11.767,7.845c10.797,53.992,47.017,100.432,96.887,124.227
	c4.985,2.378,7.098,8.347,4.719,13.332C183.311,431.866,179.728,433.967,175.994,433.967z"/>
<path d="M212.303,446.84c-0.78,0-1.572-0.093-2.365-0.285l-0.138-0.034c-5.362-1.322-8.637-6.741-7.315-12.104
	c1.321-5.362,6.739-8.64,12.103-7.314c5.366,1.305,8.697,6.723,7.392,12.09C220.867,443.766,216.802,446.84,212.303,446.84z"/>
<path d="M297.075,447.449c-4.572,0-8.698-3.155-9.746-7.803c-1.215-5.388,2.168-10.739,7.556-11.954
	c64.78-14.605,116.683-65.765,132.23-130.334c1.293-5.37,6.695-8.676,12.063-7.381c5.37,1.292,8.674,6.693,7.381,12.063
	c-8.533,35.439-26.838,67.777-52.937,93.516c-26.122,25.763-58.744,43.621-94.339,51.646
	C298.543,447.369,297.804,447.449,297.075,447.449z"/>
<path d="M256,95c-5.523,0-10-4.477-10-10V10c0-5.523,4.477-10,10-10c5.523,0,10,4.477,10,10v75C266,90.523,261.523,95,256,95z"/>
<path d="M256,512c-5.523,0-10-4.478-10-10v-75c0-5.522,4.477-10,10-10c5.523,0,10,4.478,10,10v75C266,507.522,261.523,512,256,512z"
	/>
<path d="M502,266h-75c-5.523,0-10-4.478-10-10c0-5.523,4.477-10,10-10h75c5.523,0,10,4.477,10,10C512,261.522,507.523,266,502,266z"
	/>
<path d="M85,266H10c-5.523,0-10-4.478-10-10c0-5.523,4.477-10,10-10h75c5.523,0,10,4.477,10,10C95,261.522,90.523,266,85,266z"/>
<path style="fill:#7ACCFF;" d="M292.417,255.206h-72.835c-41.438,0-75.03,33.592-75.03,75.03V365.5h222.895v-35.264
	C367.448,288.798,333.855,255.206,292.417,255.206z"/>
<polygon style="fill:#FFFFFF;" points="297.574,255.206 256,296.78 214.426,255.206 "/>
<path style="fill:#5CC1FF;" d="M244.295,124.5h60.742v30.144c0,15.635-12.675,28.309-28.31,28.309h-69.764v-21.121
	C206.963,141.214,223.677,124.5,244.295,124.5z"/>
<path style="fill:#FFCDAC;" d="M305.037,182.953v23.216c0,27.082-21.955,49.037-49.037,49.037l0,0
	c-27.082,0-49.037-21.955-49.037-49.037v-23.216H305.037z"/>
<path d="M300.281,245.583c-0.102-0.029-0.206-0.05-0.309-0.075c9.359-10.451,15.064-24.239,15.064-39.339V124.5
	c0-5.523-4.477-10-10-10h-60.742c-26.099,0-47.332,21.233-47.332,47.332v44.337c0,15.1,5.705,28.888,15.064,39.339
	c-0.103,0.025-0.207,0.047-0.309,0.075c-43.211,3.983-77.166,40.42-77.166,84.653V365.5c0,5.522,4.477,10,10,10h222.896
	c5.523,0,10-4.478,10-10v-35.264C377.448,286.003,343.493,249.567,300.281,245.583z M216.963,192.953h59.765
	c6.628,0,12.866-1.693,18.31-4.667v17.884c0,21.525-17.512,39.037-39.037,39.037s-39.037-17.512-39.037-39.037v-13.217H216.963z
	 M273.432,265.206L256,282.638l-17.432-17.432H273.432z M216.963,161.832c0-15.071,12.261-27.332,27.332-27.332h50.742v20.144
	c0,10.096-8.214,18.31-18.31,18.31h-59.765v-11.122H216.963z M357.448,355.5H154.552v-25.264c0-32.906,24.573-60.164,56.33-64.431
	l38.047,38.047c1.953,1.952,4.512,2.929,7.071,2.929c2.559,0,5.119-0.977,7.071-2.929l38.047-38.047
	c31.757,4.267,56.33,31.525,56.33,64.431V355.5z"/>
<g>
</g>
<g>
</g>
<g>
</g>
<g>
</g>
<g>
</g>
<g>
</g>
<g>
</g>
<g>
</g>
<g>
</g>
<g>
</g>
<g>
</g>
<g>
</g>
<g>
</g>
<g>
</g>
<g>
</g>
</svg>
