<?xml version="1.0" encoding="iso-8859-1"?>
<!-- Generator: Adobe Illustrator 19.0.0, SVG Export Plug-In . SVG Version: 6.00 Build 0)  -->
<svg version="1.1" id="Capa_1" xmlns="http://www.w3.org/2000/svg" xmlns:xlink="http://www.w3.org/1999/xlink" x="0px" y="0px"
	 viewBox="0 0 512 512" style="enable-background:new 0 0 512 512;" xml:space="preserve">
<path style="fill:#A5DDFF;" d="M312.999,501.99L312.999,501.99h-168l0,0c0-22.126,17.937-40.062,40.062-40.062h87.875
	C295.062,461.927,312.999,479.864,312.999,501.99z"/>
<rect x="189.98" y="396.94" style="fill:#5CC1FF;" width="78.04" height="64.986"/>
<path style="fill:#DFF3FF;" d="M385.32,63.99h44.875c9.833,0,17.805,7.949,17.805,17.754v296.492
	c0,9.805-7.972,17.754-17.805,17.754H27.805c-9.833,0-17.805-7.949-17.805-17.754V81.744c0-9.805,7.972-17.754,17.805-17.754h47.182
	C74.987,63.99,385.32,63.99,385.32,63.99z"/>
<rect x="10" y="331.99" style="fill:#A5DDFF;" width="438" height="64"/>
<path style="fill:#FFBC53;" d="M191.37,232.677h-62.74c-35.694,0-64.63,28.936-64.63,64.63v34.683h192v-34.683
	C256,261.613,227.064,232.677,191.37,232.677z"/>
<polygon style="fill:#FFFFFF;" points="195.812,232.677 160,268.488 124.188,232.677 "/>
<path style="fill:#5CC1FF;" d="M149.918,120.087h52.322v25.966c0,13.468-10.918,24.386-24.386,24.386H117.76v-18.194
	C117.76,134.485,132.157,120.087,149.918,120.087z"/>
<path style="fill:#FFCDAC;" d="M202.24,170.438v19.998c0,23.328-18.912,42.24-42.24,42.24l0,0c-23.329,0-42.24-18.912-42.24-42.24
	v-19.998H202.24z"/>
<path style="fill:#BAEE83;" d="M462,10.01H318c-22.091,0-40,17.909-40,40v107c0,22.091,17.909,40,40,40h4.333v35.667L358,197.01h104
	c22.091,0,40-17.909,40-40v-107C502,27.919,484.091,10.01,462,10.01z"/>
<path d="M229,353.98c-2.63,0-5.21,1.06-7.07,2.93c-1.86,1.86-2.93,4.43-2.93,7.07c0,2.63,1.069,5.21,2.93,7.07
	c1.86,1.86,4.44,2.93,7.07,2.93s5.21-1.07,7.069-2.93c1.86-1.86,2.931-4.44,2.931-7.07s-1.07-5.21-2.931-7.07
	C234.21,355.04,231.63,353.98,229,353.98z"/>
<path d="M448,268.01c-5.522,0-10,4.477-10,10v43.979H266v-24.683c0-38.026-28.594-69.478-65.405-74.04
	c7.275-8.978,11.646-20.401,11.646-32.831v-70.35c0-5.523-4.478-10-10-10h-52.322c-23.246,0-42.158,18.912-42.158,42.158v38.192
	c0,12.429,4.37,23.852,11.646,32.831C82.594,227.829,54,259.281,54,297.307v24.683H20V81.744c0-4.276,3.501-7.754,7.805-7.754
	h207.862c5.522,0,10-4.477,10-10s-4.478-10-10-10H27.805C12.474,53.99,0,66.44,0,81.744v296.492
	c0,15.304,12.474,27.754,27.805,27.754H179.98v46.194C154.753,454.739,135,476.101,135,501.99c0,5.523,4.478,10,10,10h168
	c5.522,0,10-4.477,10-10c0-25.888-19.753-47.25-44.979-49.806V405.99h152.175c15.331,0,27.805-12.45,27.805-27.754V278.01
	C458,272.488,453.522,268.01,448,268.01z M192.24,190.437c0,17.777-14.463,32.24-32.24,32.24s-32.24-14.463-32.24-32.24v-9.999
	h50.095c5.135,0,10.006-1.139,14.386-3.166L192.24,190.437L192.24,190.437z M171.669,242.677L160,254.346l-11.669-11.669
	L171.669,242.677L171.669,242.677z M127.76,152.245c0-12.218,9.94-22.158,22.158-22.158h42.322v15.966
	c0,7.932-6.453,14.385-14.386,14.385H127.76V152.245z M74,297.307c0-27.407,20.29-50.159,46.636-54.04l32.292,32.292
	c1.953,1.953,4.512,2.929,7.071,2.929s5.118-0.976,7.071-2.929l32.292-32.292C225.71,247.148,246,269.9,246,297.307v24.683H74
	V297.307z M301.289,491.99h-144.58c4.13-11.676,15.279-20.063,28.353-20.063h4.918h78.041h4.916
	C286.01,471.927,297.159,480.313,301.289,491.99z M258.021,451.927H199.98V405.99h58.041V451.927z M430.195,385.99H27.805
	c-4.304,0-7.805-3.479-7.805-7.754V341.99h418v36.246C438,382.511,434.499,385.99,430.195,385.99z"/>
<path d="M448,230.34c-2.63,0-5.21,1.07-7.07,2.93c-1.86,1.87-2.93,4.44-2.93,7.07c0,2.64,1.069,5.21,2.93,7.07
	c1.86,1.87,4.44,2.93,7.07,2.93s5.21-1.06,7.069-2.93c1.86-1.86,2.931-4.43,2.931-7.07c0-2.63-1.07-5.21-2.931-7.07
	C453.21,231.41,450.63,230.34,448,230.34z"/>
<path d="M448,47.01h-75c-5.522,0-10,4.477-10,10s4.478,10,10,10h75c5.522,0,10-4.477,10-10S453.522,47.01,448,47.01z"/>
<path d="M332,67.01c2.63,0,5.21-1.07,7.069-2.93c1.86-1.86,2.931-4.44,2.931-7.07s-1.07-5.21-2.931-7.07
	c-1.859-1.86-4.439-2.93-7.069-2.93s-5.21,1.07-7.07,2.93c-1.86,1.86-2.93,4.44-2.93,7.07s1.069,5.21,2.93,7.07
	C326.791,65.94,329.37,67.01,332,67.01z"/>
<path d="M448,91.01H332c-5.522,0-10,4.477-10,10s4.478,10,10,10h116c5.522,0,10-4.477,10-10S453.522,91.01,448,91.01z"/>
<path d="M448,135.01H332c-5.522,0-10,4.477-10,10s4.478,10,10,10h116c5.522,0,10-4.477,10-10S453.522,135.01,448,135.01z"/>
<path d="M462,0.01H318c-27.57,0-50,22.43-50,50v107c0,25.655,19.42,46.859,44.333,49.681v25.985c0,4.044,2.437,7.691,6.173,9.239
	c1.237,0.513,2.537,0.762,3.825,0.762c2.603,0,5.16-1.017,7.073-2.929l32.737-32.738H462c27.57,0,50-22.43,50-50v-107
	C512,22.44,489.57,0.01,462,0.01z M492,157.01c0,16.542-13.458,30-30,30H358c-2.652,0-5.195,1.054-7.071,2.929l-18.596,18.596
	V197.01c0-5.523-4.478-10-10-10H318c-16.542,0-30-13.458-30-30v-107c0-16.542,13.458-30,30-30h144c16.542,0,30,13.458,30,30V157.01z
	"/>
<g>
</g>
<g>
</g>
<g>
</g>
<g>
</g>
<g>
</g>
<g>
</g>
<g>
</g>
<g>
</g>
<g>
</g>
<g>
</g>
<g>
</g>
<g>
</g>
<g>
</g>
<g>
</g>
<g>
</g>
</svg>
