<?xml version="1.0" encoding="iso-8859-1"?>
<!-- Generator: Adobe Illustrator 19.0.0, SVG Export Plug-In . SVG Version: 6.00 Build 0)  -->
<svg version="1.1" id="Capa_1" xmlns="http://www.w3.org/2000/svg" xmlns:xlink="http://www.w3.org/1999/xlink" x="0px" y="0px"
	 viewBox="0 0 512 512" style="enable-background:new 0 0 512 512;" xml:space="preserve">
<path style="fill:#FFBC53;" d="M336,50h72c22.091,0,40,17.909,40,40v372c0,22.091-17.909,40-40,40H104c-22.091,0-40-17.909-40-40V90
	c0-22.091,17.909-40,40-40h68.333H336z"/>
<path style="fill:#FFFFFF;" d="M398,462H114c-5.523,0-10-4.477-10-10V100c0-5.523,4.477-10,10-10h284c5.523,0,10,4.477,10,10v352
	C408,457.523,403.523,462,398,462z"/>
<path style="fill:#A5DDFF;" d="M295.475,39.5C290.862,22.504,275.334,10,256.877,10h-1.755c-18.457,0-33.985,12.504-38.598,29.5
	H193.25c-9.527,0-17.25,7.723-17.25,17.25V90h160V56.75c0-9.527-7.723-17.25-17.25-17.25H295.475z"/>
<path d="M408,40h-67.779c-4.992-6.384-12.757-10.5-21.471-10.5h-16.266C294.525,11.806,276.742,0,256.877,0h-1.755
	c-19.865,0-37.647,11.806-45.606,29.5H193.25c-8.714,0-16.479,4.116-21.471,10.5H104c-27.57,0-50,22.43-50,50v372
	c0,27.57,22.43,50,50,50h304c27.57,0,50-22.43,50-50V331.937c0-5.523-4.477-10-10-10s-10,4.477-10,10V462c0,16.542-13.458,30-30,30
	H104c-16.542,0-30-13.458-30-30V90c0-16.542,13.458-30,30-30h62v20h-52c-11.028,0-20,8.972-20,20v352c0,11.028,8.972,20,20,20h284
	c11.028,0,20-8.972,20-20V100c0-11.028-8.972-20-20-20h-52V60h62c16.542,0,30,13.458,30,30v158.102c0,5.523,4.477,10,10,10
	s10-4.477,10-10V90C458,62.43,435.57,40,408,40z M398.013,452c0,0-0.004,0-0.013,0H114V100h62h160h62L398.013,452z M186,80V56.75
	c0-3.998,3.252-7.25,7.25-7.25h23.275c4.514,0,8.468-3.024,9.651-7.38C229.711,29.096,241.614,20,255.123,20h1.755
	c13.508,0,25.412,9.096,28.947,22.12c1.183,4.356,5.137,7.38,9.651,7.38h23.275c3.998,0,7.25,3.252,7.25,7.25V80H186z"/>
<path d="M448,280.9c-2.63,0-5.21,1.07-7.07,2.93c-1.86,1.86-2.93,4.44-2.93,7.07c0,2.64,1.07,5.21,2.93,7.07
	c1.86,1.87,4.44,2.93,7.07,2.93s5.21-1.06,7.07-2.93c1.86-1.86,2.93-4.43,2.93-7.07c0-2.63-1.07-5.2-2.93-7.07
	C453.21,281.97,450.63,280.9,448,280.9z"/>
<path d="M263,196c2.63,0,5.21-1.07,7.07-2.93S273,188.63,273,186s-1.07-5.21-2.93-7.07S265.63,176,263,176s-5.21,1.07-7.07,2.93
	c-1.86,1.86-2.93,4.44-2.93,7.07s1.07,5.21,2.93,7.07C257.79,194.93,260.37,196,263,196z"/>
<path d="M297,186c0,5.523,4.477,10,10,10h59.484c5.523,0,10-4.477,10-10s-4.477-10-10-10H307C301.477,176,297,180.477,297,186z"/>
<path d="M366.484,284H263c-5.523,0-10,4.477-10,10s4.477,10,10,10h103.484c5.523,0,10-4.477,10-10S372.007,284,366.484,284z"/>
<path d="M366.484,392H263c-5.523,0-10,4.477-10,10s4.477,10,10,10h103.484c5.523,0,10-4.477,10-10S372.007,392,366.484,392z"/>
<path d="M152,196h48c5.523,0,10-4.477,10-10s-4.477-10-10-10h-38v-38c0-5.523-4.477-10-10-10s-10,4.477-10,10v48
	C142,191.523,146.477,196,152,196z"/>
<path d="M206.884,127.714l-13.788,13.788l-1.169-1.169c-3.905-3.905-10.237-3.905-14.143,0s-3.905,10.237,0,14.143l8.24,8.24
	c1.953,1.953,4.512,2.929,7.071,2.929s5.119-0.976,7.071-2.929l20.859-20.859c3.905-3.905,3.905-10.237,0-14.143
	C217.121,123.809,210.789,123.809,206.884,127.714z"/>
<path d="M152,303.709h48c5.523,0,10-4.477,10-10s-4.477-10-10-10h-38v-38c0-5.523-4.477-10-10-10s-10,4.477-10,10v48
	C142,299.232,146.477,303.709,152,303.709z"/>
<path d="M206.884,235.423l-13.788,13.788l-1.169-1.169c-3.905-3.905-10.237-3.905-14.143,0s-3.905,10.237,0,14.143l8.24,8.24
	c1.953,1.953,4.512,2.929,7.071,2.929s5.119-0.976,7.071-2.929l20.859-20.859c3.905-3.905,3.905-10.237,0-14.143
	C217.121,231.518,210.789,231.518,206.884,235.423z"/>
<path d="M200,392h-38v-38c0-5.523-4.477-10-10-10s-10,4.477-10,10v48c0,5.523,4.477,10,10,10h48c5.523,0,10-4.477,10-10
	S205.523,392,200,392z"/>
<path d="M206.884,343.714l-13.788,13.788l-1.169-1.169c-3.905-3.905-10.237-3.905-14.143,0s-3.905,10.237,0,14.143l8.24,8.24
	c1.953,1.953,4.512,2.929,7.071,2.929s5.119-0.976,7.071-2.929l20.859-20.859c3.905-3.905,3.905-10.237,0-14.143
	C217.121,339.809,210.789,339.809,206.884,343.714z"/>
<g>
</g>
<g>
</g>
<g>
</g>
<g>
</g>
<g>
</g>
<g>
</g>
<g>
</g>
<g>
</g>
<g>
</g>
<g>
</g>
<g>
</g>
<g>
</g>
<g>
</g>
<g>
</g>
<g>
</g>
</svg>
