<?xml version="1.0" encoding="iso-8859-1"?>
<!-- Generator: Adobe Illustrator 19.0.0, SVG Export Plug-In . SVG Version: 6.00 Build 0)  -->
<svg version="1.1" id="Capa_1" xmlns="http://www.w3.org/2000/svg" xmlns:xlink="http://www.w3.org/1999/xlink" x="0px" y="0px"
	 viewBox="0 0 512 512" style="enable-background:new 0 0 512 512;" xml:space="preserve">
<path style="fill:#FFDAA0;" d="M52,502L52,502c-23.196,0-42-18.804-42-42V166h84v294C94,483.196,75.196,502,52,502z"/>
<path style="fill:#DFF3FF;" d="M124,32.174v363.652c0,12.246,9.928,22.174,22.174,22.174h310.631
	c12.246,0,22.174-9.928,22.174-22.174V108.674L380.305,10H146.174C133.928,10,124,19.928,124,32.174z"/>
<path style="fill:#FFC870;" d="M52,502h410c22.091,0,40-17.909,40-40V236H310l-69-70H94v294C94,483.196,75.196,502,52,502"/>
<path style="fill:#A5DDFF;" d="M478.979,108.674L380.305,10v76.5c0,12.246,9.928,22.174,22.174,22.174
	C402.479,108.674,478.979,108.674,478.979,108.674z"/>
<path style="fill:#FFFFFF;" d="M418,441H178c-11.046,0-20-8.954-20-20V317c0-11.046,8.954-20,20-20h240c11.046,0,20,8.954,20,20v104
	C438,432.045,429.046,441,418,441z"/>
<path d="M502,226H314.142l-67.072-67.071c-1.875-1.875-4.418-2.929-7.07-2.929H94c-5.523,0-10,4.477-10,10v294
	c0,17.645-14.355,32-32,32s-32-14.355-32-32V176h29c5.523,0,10-4.477,10-10s-4.477-10-10-10H10c-5.523,0-10,4.477-10,10v294
	c0,28.673,23.327,52,52,52h410c27.57,0,50-22.43,50-50V236C512,230.477,507.523,226,502,226z M492,462c0,16.542-13.458,30-30,30
	H92.961C99.875,483.17,104,472.058,104,460V176h131.857l67.072,67.071c1.875,1.875,4.418,2.929,7.071,2.929h182V462z"/>
<path d="M124,132c5.523,0,10-4.477,10-10V32.174C134,25.461,139.461,20,146.174,20h224.131v66.5
	c0,17.741,14.433,32.174,32.174,32.174h66.5v70.689c0,5.523,4.477,10,10,10s10-4.477,10-10v-80.689c0-2.652-1.054-5.196-2.929-7.071
	L387.376,2.929C385.501,1.054,382.958,0,380.305,0H146.174C128.433,0,114,14.433,114,32.174V122C114,127.523,118.477,132,124,132z
	 M390.305,86.5V34.142l64.532,64.532h-52.358C395.766,98.674,390.305,93.213,390.305,86.5z"/>
<path d="M188,132h142.515c5.523,0,10-4.477,10-10s-4.477-10-10-10H188c-5.523,0-10,4.477-10,10S182.477,132,188,132z"/>
<path d="M330.515,64H228c-5.523,0-10,4.477-10,10s4.477,10,10,10h102.515c5.523,0,10-4.477,10-10S336.038,64,330.515,64z"/>
<path d="M188,84c2.63,0,5.21-1.07,7.07-2.93S198,76.63,198,74s-1.07-5.21-2.93-7.07C193.21,65.07,190.63,64,188,64
	s-5.21,1.07-7.07,2.93C179.07,68.79,178,71.37,178,74s1.07,5.21,2.93,7.07C182.79,82.93,185.37,84,188,84z"/>
<path d="M333,431c-2.63,0-5.21,1.07-7.07,2.93c-1.86,1.86-2.93,4.44-2.93,7.07s1.07,5.21,2.93,7.07c1.86,1.86,4.44,2.93,7.07,2.93
	s5.21-1.07,7.07-2.93S343,443.63,343,441s-1.07-5.21-2.93-7.07C338.21,432.07,335.63,431,333,431z"/>
<path d="M148,317v104c0,16.542,13.458,30,30,30h115.5c5.523,0,10-4.477,10-10s-4.477-10-10-10H178c-5.514,0-10-4.486-10-10V317
	c0-5.514,4.486-10,10-10h240c5.514,0,10,4.486,10,10v104c0,5.514-4.486,10-10,10h-44.5c-5.523,0-10,4.477-10,10s4.477,10,10,10H418
	c16.542,0,30-13.458,30-30V317c0-16.542-13.458-30-30-30H178C161.458,287,148,300.458,148,317z"/>
<path d="M364.776,323.51c-5.239-1.739-10.902,1.095-12.644,6.335l-14.442,43.451l-14.442-43.451
	c-1.743-5.241-7.401-8.079-12.644-6.335c-5.241,1.742-8.077,7.402-6.335,12.644l23.932,72c1.359,4.087,5.182,6.846,9.49,6.846
	s8.131-2.758,9.49-6.846l23.932-72C372.853,330.913,370.017,325.252,364.776,323.51z"/>
<path d="M247.879,344h16.242c3.204,0,5.811,2.607,5.811,5.811c0,5.523,4.477,10,10,10s10-4.477,10-10
	c0-14.232-11.579-25.811-25.811-25.811h-16.242c-14.232,0-25.811,11.579-25.811,25.811v39.378c0,14.232,11.579,25.811,25.811,25.811
	h16.242c14.232,0,25.811-11.579,25.811-25.811c0-5.523-4.477-10-10-10s-10,4.477-10,10c0,3.204-2.606,5.811-5.811,5.811h-16.242
	c-3.204,0-5.811-2.607-5.811-5.811v-39.378C242.068,346.607,244.675,344,247.879,344z"/>
<g>
</g>
<g>
</g>
<g>
</g>
<g>
</g>
<g>
</g>
<g>
</g>
<g>
</g>
<g>
</g>
<g>
</g>
<g>
</g>
<g>
</g>
<g>
</g>
<g>
</g>
<g>
</g>
<g>
</g>
</svg>
