<?xml version="1.0" encoding="iso-8859-1"?>
<!-- Generator: Adobe Illustrator 19.0.0, SVG Export Plug-In . SVG Version: 6.00 Build 0)  -->
<svg version="1.1" id="Capa_1" xmlns="http://www.w3.org/2000/svg" xmlns:xlink="http://www.w3.org/1999/xlink" x="0px" y="0px"
	 viewBox="0 0 512 512" style="enable-background:new 0 0 512 512;" xml:space="preserve">
<path style="fill:#FFFFFF;" d="M438,502H74c-11.046,0-20-8.954-20-20V30c0-11.046,8.954-20,20-20h364c11.046,0,20,8.954,20,20v452
	C458,493.046,449.046,502,438,502z"/>
<path style="fill:#FFDAA0;" d="M458,99.833V30c0-11.046-8.954-20-20-20h-69.833L458,99.833z"/>
<path style="fill:#FFBC53;" d="M367,11.294v69.833c0,11.046,8.954,20,20,20h69.833L367,11.294z"/>
<path d="M438,0H74C57.458,0,44,13.458,44,30v452c0,16.542,13.458,30,30,30h364c16.542,0,30-13.458,30-30V30
	C468,13.458,454.542,0,438,0z M448,30v48.151L389.849,20H438C443.514,20,448,24.486,448,30z M377,35.436l55.691,55.691H387
	c-5.514,0-10-4.486-10-10V35.436z M438,492H74c-5.514,0-10-4.486-10-10V30c0-5.514,4.486-10,10-10h283v61.127
	c0,16.542,13.458,30,30,30h61V482C448,487.514,443.514,492,438,492z"/>
<path d="M384.941,438H128c-5.523,0-10,4.477-10,10s4.477,10,10,10h256.941c5.523,0,10-4.477,10-10S390.464,438,384.941,438z"/>
<path d="M384.941,382H169c-5.523,0-10,4.477-10,10s4.477,10,10,10h215.941c5.523,0,10-4.477,10-10S390.464,382,384.941,382z"/>
<path d="M384.941,326H127.059c-5.523,0-10,4.477-10,10s4.477,10,10,10h257.883c5.523,0,10-4.477,10-10S390.464,326,384.941,326z"/>
<path d="M127.06,290c2.63,0,5.21-1.07,7.07-2.93s2.93-4.44,2.93-7.07s-1.07-5.21-2.93-7.07c-1.86-1.86-4.44-2.93-7.07-2.93
	s-5.21,1.07-7.07,2.93s-2.93,4.44-2.93,7.07s1.07,5.21,2.93,7.07C121.85,288.93,124.43,290,127.06,290z"/>
<path d="M127.06,402c2.63,0,5.21-1.07,7.07-2.93s2.93-4.44,2.93-7.07s-1.07-5.21-2.93-7.07c-1.86-1.86-4.44-2.93-7.07-2.93
	s-5.21,1.07-7.07,2.93s-2.93,4.44-2.93,7.07s1.07,5.21,2.93,7.07C121.85,400.93,124.43,402,127.06,402z"/>
<path d="M384.941,270H169c-5.523,0-10,4.477-10,10s4.477,10,10,10h215.941c5.523,0,10-4.477,10-10S390.464,270,384.941,270z"/>
<path d="M157.723,224.457c17.238,0,31.262-14.024,31.262-31.262V140h11.262c5.523,0,10-4.477,10-10s-4.477-10-10-10h-42.523
	c-5.523,0-10,4.477-10,10c0,5.523,4.477,10,10,10h11.262v53.195c0,6.21-5.052,11.262-11.262,11.262s-11.262-5.052-11.262-11.262
	c0-5.523-4.477-10-10-10s-10,4.477-10,10C126.461,210.433,140.485,224.457,157.723,224.457z"/>
<path d="M258.533,224.457c28.799,0,52.228-23.43,52.228-52.229S287.332,120,258.533,120s-52.228,23.429-52.228,52.228
	S229.734,224.457,258.533,224.457z M258.533,140c17.771,0,32.228,14.458,32.228,32.228c0,17.771-14.458,32.229-32.228,32.229
	s-32.228-14.458-32.228-32.229C226.305,154.458,240.763,140,258.533,140z"/>
<path d="M333,228h20.523c17.645,0,32-14.355,32-32c0-8.517-3.351-16.26-8.795-22c5.444-5.74,8.795-13.483,8.795-22
	c0-17.645-14.355-32-32-32H333c-5.523,0-10,4.477-10,10v44v44C323,223.523,327.477,228,333,228z M353.523,208H343v-24h10.523
	c6.617,0,12,5.383,12,12S360.14,208,353.523,208z M343,140h10.523c6.617,0,12,5.383,12,12s-5.383,12-12,12H343V140z"/>
<g>
</g>
<g>
</g>
<g>
</g>
<g>
</g>
<g>
</g>
<g>
</g>
<g>
</g>
<g>
</g>
<g>
</g>
<g>
</g>
<g>
</g>
<g>
</g>
<g>
</g>
<g>
</g>
<g>
</g>
</svg>
