<?xml version="1.0" encoding="iso-8859-1"?>
<!-- Generator: Adobe Illustrator 19.0.0, SVG Export Plug-In . SVG Version: 6.00 Build 0)  -->
<svg version="1.1" id="Capa_1" xmlns="http://www.w3.org/2000/svg" xmlns:xlink="http://www.w3.org/1999/xlink" x="0px" y="0px"
	 viewBox="0 0 512 512" style="enable-background:new 0 0 512 512;" xml:space="preserve">
<rect x="322.168" y="329.927" transform="matrix(-0.7071 -0.7071 0.7071 -0.7071 350.4185 846.1037)" style="fill:#C7EAFF;" width="56.551" height="41.101"/>
<path style="fill:#FE6663;" d="M496.521,470.921l-25.637,25.637c-7.272,7.272-19.063,7.272-26.334,0l-99.534-99.534l51.971-51.971
	l99.534,99.534C503.793,451.859,503.793,463.649,496.521,470.921z"/>
<circle style="fill:#A5DDFF;" cx="198.024" cy="198.004" r="188.005"/>
<circle style="fill:#FFFFFF;" cx="198.024" cy="198.004" r="138.554"/>
<path style="fill:#FFBC53;" d="M224.824,207.305h-53.591c-30.49,0-55.206,24.717-55.206,55.206v21.495H280.03v-21.495
	C280.03,232.022,255.313,207.305,224.824,207.305z"/>
<polygon style="fill:#FFFFFF;" points="236.378,208.98 198.028,247.33 159.678,208.98 "/>
<path style="fill:#5CC1FF;" d="M189.416,111.133h44.693v22.18c0,11.504-9.326,20.83-20.83,20.83h-51.332v-15.54
	C161.947,123.431,174.245,111.133,189.416,111.133z"/>
<path style="fill:#FFCDAC;" d="M234.109,154.142v17.082c0,19.926-16.154,36.081-36.081,36.081l0,0
	c-19.927,0-36.081-16.154-36.081-36.081v-17.082H234.109z"/>
<path d="M449.654,407.719c2.63,0,5.21-1.07,7.07-2.93c1.86-1.86,2.93-4.44,2.93-7.07s-1.07-5.21-2.93-7.07
	c-1.86-1.86-4.44-2.93-7.07-2.93s-5.21,1.07-7.07,2.93c-1.86,1.86-2.93,4.44-2.93,7.07s1.07,5.21,2.93,7.07
	C444.444,406.649,447.014,407.719,449.654,407.719z"/>
<path d="M503.592,437.515l-21.057-21.057c-3.905-3.905-10.237-3.905-14.142,0c-3.905,3.905-3.905,10.237,0,14.142l21.057,21.057
	c1.628,1.628,2.525,3.793,2.525,6.096c0,2.302-0.897,4.467-2.525,6.096l-25.637,25.637c-3.362,3.36-8.831,3.362-12.191,0
	l-92.462-92.462l37.829-37.829l19.438,19.438c3.905,3.905,10.237,3.905,14.142,0s3.905-10.237,0-14.142l-26.509-26.508
	c-3.905-3.905-10.237-3.904-14.142,0l-4.383,4.383l-27.655-27.655c23.976-32.75,38.155-73.1,38.155-116.706
	C396.034,88.824,307.21,0,198.029,0S0.024,88.824,0.024,198.005S88.848,396.01,198.029,396.01
	c43.574,0,83.898-14.159,116.635-38.104l27.665,27.665l-4.383,4.383c-3.905,3.905-3.905,10.237,0,14.143l99.534,99.534
	c5.58,5.58,12.908,8.37,20.239,8.369c7.328-0.001,14.659-2.791,20.239-8.37l25.637-25.637c5.406-5.406,8.383-12.593,8.383-20.239
	C511.976,450.109,508.998,442.922,503.592,437.515z M20.023,198.004c0-98.151,79.853-178.005,178.005-178.005
	s178.005,79.853,178.005,178.005s-79.853,178.005-178.005,178.005S20.023,296.155,20.023,198.004z M330.276,345.234
	c5.233-4.706,10.215-9.684,14.923-14.915l26.19,26.19l-14.919,14.919L330.276,345.234z"/>
<path d="M198.028,70.058l0.471,0.001c0.01,0,0.02,0,0.03,0c5.509,0,9.983-4.458,10-9.971c0.016-5.523-4.448-10.013-9.971-10.029
	l-0.529-0.001c-5.523,0-10,4.477-10,10S192.505,70.058,198.028,70.058z"/>
<path d="M315.585,108.167c-19.241-25.144-46.516-43.76-76.8-52.421c-5.31-1.519-10.845,1.555-12.364,6.865
	c-1.519,5.31,1.555,10.845,6.865,12.364c54.574,15.607,92.689,66.2,92.689,123.029c0,34.789-13.962,66.373-36.571,89.46
	c0.398-1.079,0.627-2.24,0.627-3.458v-21.495c0-32.362-23.703-59.281-54.656-64.341c5.488-7.584,8.735-16.891,8.735-26.947v-60.092
	c0-5.523-4.477-10-10-10h-44.693c-20.661,0-37.469,16.808-37.469,37.469v32.623c0,10.056,3.247,19.362,8.735,26.947
	c-30.954,5.059-54.656,31.978-54.656,64.341v21.495c0,1.217,0.228,2.379,0.627,3.458c-22.608-23.088-36.571-54.671-36.571-89.46
	c0-56.364,36.126-105.471,89.893-122.195c5.273-1.641,8.219-7.246,6.579-12.519c-1.641-5.273-7.245-8.221-12.519-6.579
	c-29.491,9.173-55.968,27.914-74.557,52.769c-19.233,25.716-29.398,56.327-29.398,88.524c0,81.578,66.369,147.947,147.947,147.947
	s147.947-66.369,147.947-147.947C345.975,165.211,335.465,134.146,315.585,108.167z M213.91,217.305l-15.882,15.882l-15.882-15.882
	H213.91z M171.947,171.224v-7.082h41.332c3.81,0,7.458-0.699,10.83-1.969v9.05c0,14.38-11.7,26.081-26.081,26.081
	C183.649,197.304,171.947,185.606,171.947,171.224z M171.947,138.601c0-9.632,7.836-17.468,17.468-17.468h34.693v12.179
	c0,5.972-4.858,10.83-10.83,10.83h-41.332v-5.541H171.947z M126.026,262.512c0-19.724,12.702-36.528,30.353-42.687l34.577,34.577
	c1.953,1.952,4.512,2.929,7.071,2.929c2.559,0,5.119-0.977,7.071-2.929l34.577-34.577c17.65,6.159,30.353,22.963,30.353,42.687
	v11.494H126.024v-11.494H126.026z M113.034,293.55c0.945,0.296,1.95,0.456,2.992,0.456H280.03c1.042,0,2.047-0.16,2.992-0.456
	c-22.617,20.142-52.398,32.4-84.994,32.4S135.65,313.691,113.034,293.55z"/>
<g>
</g>
<g>
</g>
<g>
</g>
<g>
</g>
<g>
</g>
<g>
</g>
<g>
</g>
<g>
</g>
<g>
</g>
<g>
</g>
<g>
</g>
<g>
</g>
<g>
</g>
<g>
</g>
<g>
</g>
</svg>
