<?xml version="1.0" encoding="iso-8859-1"?>
<!-- Generator: Adobe Illustrator 19.0.0, SVG Export Plug-In . SVG Version: 6.00 Build 0)  -->
<svg version="1.1" id="Capa_1" xmlns="http://www.w3.org/2000/svg" xmlns:xlink="http://www.w3.org/1999/xlink" x="0px" y="0px"
	 viewBox="0 0 512 512" style="enable-background:new 0 0 512 512;" xml:space="preserve">
<polygon style="fill:#FE6663;" points="502,187 413.734,123.132 98.267,123.132 10,187 98.267,250.868 413.734,250.868 "/>
<path style="fill:#A5DDFF;" d="M64,336.501h384V30c0-11.046-8.954-20-20-20H84c-11.046,0-20,8.954-20,20V336.501z"/>
<path style="fill:#FE9492;" d="M10,187v275c0,22.091,17.909,40,40,40h412c22.091,0,40-17.909,40-40V187L260.084,385.461L10,187z"/>
<path style="fill:#FFBDBC;" d="M11.278,472.062C15.74,489.282,31.384,502,50,502h412c18.616,0,34.26-12.718,38.722-29.938
	L279.448,311.953c-13.993-10.125-32.904-10.125-46.897,0L11.278,472.062z"/>
<circle style="fill:#FFFFFF;" cx="256" cy="154.48" r="90.48"/>
<path d="M177.25,20c2.63,0,5.21-1.07,7.069-2.93c1.86-1.86,2.931-4.44,2.931-7.07s-1.07-5.21-2.931-7.07
	C182.46,1.07,179.88,0,177.25,0c-2.641,0-5.21,1.07-7.07,2.93s-2.93,4.44-2.93,7.07c0,2.64,1.069,5.21,2.93,7.07
	S174.62,20,177.25,20z"/>
<path d="M511.982,186.504c-0.147-2.923-1.564-5.756-4.12-7.605L458,142.82V30c0-16.542-13.458-30-30-30H216.5
	c-5.522,0-10,4.477-10,10s4.478,10,10,10H428c5.514,0,10,4.486,10,10v196.344l-122.067,99.664l-30.622-22.157
	c-17.532-12.686-41.091-12.686-58.621,0l-30.623,22.158L74,226.345V30c0-5.514,4.486-10,10-10h54.5c5.522,0,10-4.477,10-10
	s-4.478-10-10-10H84C67.458,0,54,13.458,54,30v112.819l-49.862,36.08c0.003,0.002,0.006,0.003,0.01,0.005
	C1.638,180.721,0,183.666,0,187v275c0,27.57,22.43,50,50,50h412c27.57,0,50-22.43,50-50V187
	C512,186.819,511.994,186.655,511.982,186.504z M458,167.506l27.603,19.972L458,210.015V167.506z M492,208.074v245.333
	L332.698,338.139L492,208.074z M20,208.074L179.302,338.14L20,453.407V208.074z M54,210.015l-27.603-22.537L54,167.506V210.015z
	 M462,492H50c-11.611,0-21.695-6.635-26.68-16.309l215.094-155.637c10.518-7.611,24.654-7.611,35.172,0L444.882,444H345
	c-5.522,0-10,4.477-10,10s4.478,10,10,10h127.522l16.158,11.691C483.695,485.365,473.611,492,462,492z"/>
<path d="M235,189.622c1.876,1.875,4.419,2.929,7.071,2.929s5.195-1.054,7.071-2.929l56.142-56.142
	c3.905-3.905,3.905-10.237,0-14.142c-3.906-3.905-10.236-3.905-14.143,0l-49.07,49.071l-21.213-21.213
	c-3.906-3.905-10.236-3.905-14.143,0c-3.905,3.905-3.905,10.237,0,14.143L235,189.622z"/>
<path d="M256,254.959c55.404,0,100.479-45.075,100.479-100.479S311.404,54,256,54S155.521,99.075,155.521,154.479
	S200.596,254.959,256,254.959z M256,74c44.377,0,80.479,36.103,80.479,80.479s-36.102,80.48-80.479,80.48
	s-80.479-36.103-80.479-80.479S211.623,74,256,74z"/>
<path d="M299.67,444c-2.64,0-5.21,1.07-7.07,2.93c-1.87,1.86-2.93,4.44-2.93,7.07s1.06,5.21,2.93,7.07
	c1.86,1.86,4.431,2.93,7.07,2.93c2.63,0,5.21-1.07,7.07-2.93c1.859-1.86,2.93-4.44,2.93-7.07s-1.07-5.21-2.93-7.07
	C304.88,445.07,302.3,444,299.67,444z"/>
<g>
</g>
<g>
</g>
<g>
</g>
<g>
</g>
<g>
</g>
<g>
</g>
<g>
</g>
<g>
</g>
<g>
</g>
<g>
</g>
<g>
</g>
<g>
</g>
<g>
</g>
<g>
</g>
<g>
</g>
</svg>
