<?xml version="1.0" encoding="iso-8859-1"?>
<!-- Generator: Adobe Illustrator 19.0.0, SVG Export Plug-In . SVG Version: 6.00 Build 0)  -->
<svg version="1.1" id="Capa_1" xmlns="http://www.w3.org/2000/svg" xmlns:xlink="http://www.w3.org/1999/xlink" x="0px" y="0px"
	 viewBox="0 0 512 512" style="enable-background:new 0 0 512 512;" xml:space="preserve">
<rect x="322.176" y="329.926" transform="matrix(-0.7071 -0.7071 0.7071 -0.7071 350.4334 846.1061)" style="fill:#C7EAFF;" width="56.551" height="41.101"/>
<path style="fill:#FE6663;" d="M496.528,470.922l-25.637,25.637c-7.272,7.272-19.063,7.272-26.334,0l-99.534-99.534l51.971-51.971
	l99.534,99.534C503.801,451.86,503.801,463.65,496.528,470.922z"/>
<circle style="fill:#A5DDFF;" cx="198.035" cy="198.005" r="188.005"/>
<circle style="fill:#FFFFFF;" cx="198.035" cy="198.005" r="138.554"/>
<path d="M503.601,437.516l-99.534-99.534c-3.906-3.905-10.236-3.905-14.143,0l-4.383,4.383l-27.617-27.617
	c16.114-22.065,27.644-47.346,33.52-74.145c1.184-5.395-2.23-10.727-7.625-11.91c-5.398-1.179-10.728,2.231-11.91,7.626
	c-17.751,80.942-90.874,139.69-173.872,139.69c-98.152,0-178.005-79.853-178.005-178.005S99.884,20.001,198.036,20.001
	c85.396,0,158.938,60.786,174.864,144.535c1.032,5.425,6.265,8.988,11.692,7.956c5.426-1.032,8.987-6.267,7.956-11.692
	C374.829,67.626,293.024,0,198.036,0C88.855,0,0.031,88.824,0.031,198.005S88.855,396.01,198.036,396.01
	c41.935,0,82.974-13.45,116.694-38.045l27.606,27.606l-4.383,4.383c-3.905,3.905-3.905,10.237,0,14.143l99.534,99.534
	c5.58,5.579,12.909,8.369,20.239,8.369c7.328,0,14.657-2.79,20.238-8.369l25.638-25.638
	C514.759,466.834,514.759,448.676,503.601,437.516z M330.348,345.298c5.243-4.718,10.219-9.703,14.91-14.928l26.14,26.14
	l-14.919,14.919L330.348,345.298z M489.457,463.851l-25.638,25.638c-3.362,3.362-8.83,3.36-12.19,0l-92.462-92.462l37.828-37.829
	l92.462,92.461C492.818,455.021,492.818,460.49,489.457,463.851z"/>
<path d="M130.665,217.201v-53.196h11.262c5.522,0,10-4.477,10-10s-4.478-10-10-10H99.402c-5.522,0-10,4.477-10,10s4.478,10,10,10
	h11.262v53.196c0,6.21-5.052,11.262-11.262,11.262c-6.21,0-11.262-5.052-11.262-11.262c0-5.523-4.478-10-10-10s-10,4.477-10,10
	c0,17.238,14.024,31.263,31.263,31.263S130.665,234.439,130.665,217.201z"/>
<path d="M148.34,196.233c0,28.8,23.431,52.23,52.23,52.23s52.23-23.431,52.23-52.23s-23.432-52.229-52.231-52.229
	S148.34,167.433,148.34,196.233z M232.799,196.233c0,17.771-14.458,32.23-32.23,32.23s-32.23-14.458-32.23-32.23
	s14.458-32.229,32.23-32.229S232.799,178.463,232.799,196.233z"/>
<path d="M295.931,144.004h-20.525c-5.522,0-10,4.477-10,10v44.001v44.001c0,5.523,4.478,10,10,10h20.524
	c17.645,0,32.001-14.355,32.001-32.001c0-8.517-3.351-16.26-8.795-22.001c5.444-5.74,8.795-13.483,8.795-22.001
	C327.932,158.359,313.576,144.004,295.931,144.004z M285.407,164.004h10.523c6.617,0,12,5.383,12,12s-5.383,12-12,12h-10.523
	V164.004z M295.931,232.006h-10.524v-24.001h10.523c6.617,0,12,5.383,12,12S302.548,232.006,295.931,232.006z"/>
<path d="M376.04,198.005l-0.002,0.711c-0.021,5.523,4.438,10.018,9.961,10.039c0.014,0,0.026,0,0.04,0
	c5.504,0,9.978-4.452,9.999-9.961l0.002-0.79c0-5.523-4.478-10-10-10C380.518,188.004,376.04,192.482,376.04,198.005z"/>
<path d="M295.535,110.506c2.56,0,5.118-0.977,7.071-2.929c3.905-3.905,3.905-10.237,0-14.142
	c-57.661-57.658-151.481-57.658-209.142,0c-3.905,3.905-3.905,10.237,0,14.142c3.905,3.906,10.235,3.906,14.143,0
	c49.862-49.861,130.993-49.861,180.857,0C290.417,109.53,292.976,110.506,295.535,110.506z"/>
<path d="M93.465,288.433c-3.905,3.905-3.905,10.237,0,14.143c0.009,0.008,0.084,0.083,0.092,0.091l0.046,0.045
	c1.956,1.967,4.527,2.952,7.1,2.952c2.546,0,5.094-0.966,7.042-2.9c3.918-3.889,3.948-10.212,0.062-14.132l-0.198-0.199
	C103.701,284.528,97.371,284.528,93.465,288.433z"/>
<path d="M124.672,326.449c22.827,13.055,48.071,19.409,73.164,19.409c38.342,0,76.326-14.838,104.772-43.282
	c3.905-3.905,3.905-10.237,0-14.143c-3.905-3.904-10.235-3.905-14.143,0c-40.698,40.698-103.97,49.19-153.862,20.655
	c-4.795-2.742-10.903-1.079-13.646,3.716C118.214,317.598,119.878,323.707,124.672,326.449z"/>
<g>
</g>
<g>
</g>
<g>
</g>
<g>
</g>
<g>
</g>
<g>
</g>
<g>
</g>
<g>
</g>
<g>
</g>
<g>
</g>
<g>
</g>
<g>
</g>
<g>
</g>
<g>
</g>
<g>
</g>
</svg>
