<?xml version="1.0" encoding="iso-8859-1"?>
<!-- Generator: Adobe Illustrator 19.0.0, SVG Export Plug-In . SVG Version: 6.00 Build 0)  -->
<svg version="1.1" id="Capa_1" xmlns="http://www.w3.org/2000/svg" xmlns:xlink="http://www.w3.org/1999/xlink" x="0px" y="0px"
	 viewBox="0 0 512 512" style="enable-background:new 0 0 512 512;" xml:space="preserve">
<path style="fill:#FFDAA0;" d="M484.5,287h-457c-9.665,0-17.5-7.835-17.5-17.5v-61c0-9.665,7.835-17.5,17.5-17.5h457
	c9.665,0,17.5,7.835,17.5,17.5v61C502,279.165,494.165,287,484.5,287z"/>
<path style="fill:#FE6663;" d="M292.797,367.115h-73.341c-41.726,0-75.552,33.826-75.552,75.552V502h224.445v-59.333
	C368.349,400.941,334.524,367.115,292.797,367.115z"/>
<path style="fill:#5CC1FF;" d="M305.505,256.127h-61.164c-20.761,0-37.592,16.83-37.592,37.592v0.035v23.983
	c0,27.271,22.107,49.378,49.378,49.378l0,0c27.271,0,49.378-22.107,49.378-49.378V256.127z"/>
<path style="fill:#FFBC53;" d="M118.795,106.17h-53.59C34.716,106.17,10,130.886,10,161.375V191h164v-29.625
	C174,130.886,149.284,106.17,118.795,106.17z"/>
<polygon style="fill:#FFFFFF;" points="122.589,106.17 92,136.759 61.411,106.17 "/>
<path style="fill:#5CC1FF;" d="M83.388,10h44.692v22.179c0,11.504-9.326,20.829-20.829,20.829H55.92v-15.54
	C55.92,22.298,68.218,10,83.388,10z"/>
<path style="fill:#FFCDAC;" d="M128.08,53.008V70.09c0,19.926-16.154,36.08-36.08,36.08l0,0c-19.926,0-36.08-16.154-36.08-36.08
	V53.008H128.08z"/>
<path style="fill:#95E540;" d="M282.795,106.17h-53.59c-30.489,0-55.205,24.716-55.205,55.205V191h164v-29.625
	C338,130.886,313.284,106.17,282.795,106.17z"/>
<polygon style="fill:#FFFFFF;" points="286.589,106.17 256,136.759 225.411,106.17 "/>
<path style="fill:#FFC870;" d="M247.388,10h44.692v22.179c0,11.504-9.326,20.829-20.829,20.829H219.92v-15.54
	C219.92,22.298,232.218,10,247.388,10z"/>
<path style="fill:#FFCDAC;" d="M292.08,53.008V70.09c0,19.926-16.154,36.08-36.08,36.08l0,0c-19.926,0-36.08-16.154-36.08-36.08
	V53.008H292.08z"/>
<path style="fill:#7ACCFF;" d="M446.795,106.17h-53.59c-30.489,0-55.205,24.716-55.205,55.205V191h164v-29.625
	C502,130.886,477.284,106.17,446.795,106.17z"/>
<polygon style="fill:#FFFFFF;" points="450.589,106.17 420,136.759 389.411,106.17 "/>
<path style="fill:#FFC870;" d="M411.388,10h44.692v22.179c0,11.504-9.326,20.829-20.829,20.829H383.92v-15.54
	C383.92,22.298,396.218,10,411.388,10z"/>
<path style="fill:#FFCDAC;" d="M456.08,53.008V70.09c0,19.926-16.154,36.08-36.08,36.08l0,0c-19.926,0-36.08-16.154-36.08-36.08
	V53.008H456.08z"/>
<path d="M358.07,294.07c1.86-1.86,2.93-4.44,2.93-7.07s-1.07-5.21-2.93-7.07c-1.86-1.86-4.44-2.93-7.07-2.93s-5.21,1.07-7.07,2.93
	c-1.86,1.86-2.93,4.44-2.93,7.07s1.07,5.21,2.93,7.07c1.86,1.86,4.44,2.93,7.07,2.93S356.21,295.93,358.07,294.07z"/>
<path d="M300.22,357.458c9.494-10.529,15.285-24.46,15.285-39.72v-61.61c0-5.523-4.477-10-10-10h-61.164
	c-26.242,0-47.592,21.35-47.592,47.591v24.019c0,15.26,5.791,29.191,15.285,39.72c-43.709,3.777-78.13,40.538-78.13,85.209V502
	c0,5.523,4.477,10,10,10H368.35c5.523,0,10-4.477,10-10v-59.333C378.35,397.996,343.929,361.235,300.22,357.458z M216.749,293.718
	c0-15.214,12.377-27.591,27.592-27.591h51.164v51.61c0,21.713-17.665,39.377-39.378,39.377s-39.378-17.665-39.378-39.377
	L216.749,293.718L216.749,293.718z M358.35,444h-77.683c-5.523,0-10,4.477-10,10s4.477,10,10,10h77.683v28H153.904v-49.333
	c0-36.146,29.407-65.552,65.552-65.552h73.341c36.146,0,65.552,29.406,65.552,65.552V444H358.35z"/>
<path d="M512,161.375c0-32.361-23.702-59.28-54.655-64.339c5.488-7.584,8.735-16.891,8.735-26.946V10c0-5.523-4.477-10-10-10
	h-44.692c-20.66,0-37.468,16.808-37.468,37.468V70.09c0,10.056,3.247,19.362,8.735,26.946c-18.786,3.07-34.89,14.194-44.655,29.701
	c-9.765-15.508-25.869-26.631-44.655-29.701c5.488-7.584,8.735-16.891,8.735-26.946V10c0-5.523-4.477-10-10-10h-44.692
	c-20.66,0-37.468,16.808-37.468,37.468V70.09c0,10.056,3.247,19.362,8.735,26.946c-18.786,3.07-34.89,14.194-44.655,29.701
	c-9.765-15.508-25.869-26.631-44.655-29.701c5.488-7.584,8.735-16.891,8.735-26.946V10c0-5.523-4.477-10-10-10H83.388
	C62.728,0,45.92,16.808,45.92,37.468V70.09c0,10.056,3.247,19.362,8.735,26.946C23.702,102.095,0,129.014,0,161.375V191
	c0,2.446,0.881,4.684,2.339,6.422C0.839,200.813,0,204.56,0,208.5v61C0,284.664,12.336,297,27.5,297h132.167c5.523,0,10-4.477,10-10
	s-4.477-10-10-10H27.5c-4.136,0-7.5-3.364-7.5-7.5v-61c0-4.136,3.364-7.5,7.5-7.5H174h164h146.5c4.136,0,7.5,3.364,7.5,7.5v61
	c0,4.136-3.364,7.5-7.5,7.5h-95.089c-5.523,0-10,4.477-10,10s4.477,10,10,10H484.5c15.164,0,27.5-12.336,27.5-27.5v-61
	c0-3.94-0.839-7.687-2.339-11.078c1.458-1.738,2.339-3.976,2.339-6.422V161.375z M446.08,70.09c0,14.38-11.7,26.08-26.08,26.08
	s-26.08-11.7-26.08-26.08v-7.082h41.331c3.81,0,7.458-0.699,10.83-1.969v9.051H446.08z M426.447,116.17L420,122.617l-6.447-6.447
	H426.447z M393.92,37.468c0-9.632,7.836-17.468,17.468-17.468h34.692v12.179c0,5.972-4.858,10.83-10.83,10.83h-41.33V37.468z
	 M282.08,70.09c0,14.38-11.7,26.08-26.08,26.08s-26.08-11.7-26.08-26.08v-7.082h41.331c3.81,0,7.458-0.699,10.83-1.969L282.08,70.09
	L282.08,70.09z M262.447,116.17L256,122.617l-6.447-6.447H262.447z M229.92,37.468c0-9.632,7.836-17.468,17.468-17.468h34.692
	v12.179c0,5.972-4.858,10.83-10.83,10.83h-41.33V37.468z M118.08,70.09c0,14.38-11.7,26.08-26.08,26.08s-26.08-11.7-26.08-26.08
	v-7.082h41.331c3.81,0,7.458-0.699,10.83-1.969L118.08,70.09L118.08,70.09z M98.447,116.17L92,122.617l-6.447-6.447H98.447z
	 M65.92,37.468C65.92,27.836,73.756,20,83.388,20h34.692v12.179c0,5.972-4.858,10.83-10.83,10.83H65.92V37.468z M20,181v-19.625
	c0-22.429,16.422-41.087,37.873-44.601l27.056,27.056c1.875,1.875,4.419,2.929,7.071,2.929s5.196-1.054,7.071-2.929l27.057-27.057
	c21.45,3.515,37.872,22.172,37.872,44.601V181H27.5H20z M184,161.375c0-22.429,16.422-41.087,37.873-44.601l27.056,27.056
	c1.875,1.875,4.419,2.929,7.071,2.929c2.652,0,5.196-1.054,7.071-2.929l27.057-27.057c21.45,3.515,37.872,22.172,37.872,44.601V181
	H184V161.375z M348,181v-19.625c0-22.429,16.422-41.087,37.873-44.601l27.056,27.056c1.875,1.875,4.419,2.929,7.071,2.929
	s5.196-1.054,7.071-2.929l27.057-27.057c21.45,3.515,37.872,22.172,37.872,44.601V181h-7.5H348z"/>
<path d="M243,444c-2.63,0-5.21,1.07-7.07,2.93S233,451.37,233,454s1.07,5.21,2.93,7.07c1.86,1.86,4.44,2.93,7.07,2.93
	s5.21-1.07,7.07-2.93S253,456.63,253,454s-1.07-5.21-2.93-7.07C248.21,445.07,245.63,444,243,444z"/>
<g>
</g>
<g>
</g>
<g>
</g>
<g>
</g>
<g>
</g>
<g>
</g>
<g>
</g>
<g>
</g>
<g>
</g>
<g>
</g>
<g>
</g>
<g>
</g>
<g>
</g>
<g>
</g>
<g>
</g>
</svg>
