<?xml version="1.0" encoding="iso-8859-1"?>
<!-- Generator: Adobe Illustrator 19.0.0, SVG Export Plug-In . SVG Version: 6.00 Build 0)  -->
<svg version="1.1" id="Capa_1" xmlns="http://www.w3.org/2000/svg" xmlns:xlink="http://www.w3.org/1999/xlink" x="0px" y="0px"
	 viewBox="0 0 512 512" style="enable-background:new 0 0 512 512;" xml:space="preserve">
<path style="fill:#5CC1FF;" d="M207.925,326.125h-91.477c-52.044,0-94.235,42.19-94.235,94.235V502H302.16v-81.641
	C302.16,368.315,259.969,326.125,207.925,326.125z"/>
<polygon style="fill:#FFFFFF;" points="108.153,327.998 163.653,422.064 219.153,327.998 "/>
<path style="fill:#BAEE83;" d="M489.787,50v133.972c0,22.091-17.909,40-40,40h-36.455l-64.309,64.278v-64.278h-85.236
	c-22.091,0-40-17.909-40-40V50c0-22.091,17.909-40,40-40h186C471.878,10,489.787,27.909,489.787,50z"/>
<path style="fill:#FFCDAC;" d="M155.063,223.256c11.222,7.795,24.661,12.105,38.605,12.105h30.118v29.164
	c0,34.021-27.579,61.6-61.6,61.6l0,0c-34.021,0-61.6-27.579-61.6-61.6v-29.164l20.604-12.105l20.604-12.105L155.063,223.256z"/>
<path style="fill:#FFC870;" d="M151.239,155.263h82.415v40.899c0,21.213-17.197,38.41-38.41,38.41h-94.656v-28.657
	C100.587,177.941,123.264,155.263,151.239,155.263z"/>
<path d="M211.67,316.199c13.614-13.042,22.116-31.378,22.116-51.675V225.41c6.185-8.131,9.867-18.266,9.867-29.248v-40.899
	c0-5.523-4.477-10-10-10h-82.415c-33.443,0-60.652,27.208-60.652,60.652v58.609c0,20.296,8.503,38.633,22.116,51.675
	c-55.747,1.979-100.489,47.939-100.489,104.16V502c0,5.523,4.477,10,10,10h279.946c5.523,0,10-4.477,10-10v-81.641
	C312.159,364.139,267.417,318.179,211.67,316.199z M110.587,205.916c0-22.416,18.236-40.652,40.652-40.652h72.415v30.899
	c0,15.666-12.745,28.411-28.41,28.411h-84.656v-1.317L110.587,205.916L110.587,205.916z M110.587,264.525v-19.952h84.656
	c6.566,0,12.829-1.32,18.543-3.699v23.651c0,28.453-23.147,51.6-51.6,51.6S110.587,292.978,110.587,264.525z M202.747,336.125
	l-39.094,66.26l-39.094-66.26H202.747z M292.159,492h-22.506v-69.936c0-5.523-4.477-10-10-10s-10,4.477-10,10V492h-172v-69.936
	c0-5.523-4.477-10-10-10s-10,4.477-10,10V492H32.214v-71.641c0-41.546,30.242-76.139,69.862-82.982l52.964,89.769
	c1.798,3.048,5.074,4.918,8.613,4.918s6.814-1.871,8.613-4.918l52.683-89.29c38.314,7.894,67.211,41.888,67.211,82.504V492H292.159z
	"/>
<path d="M449.786,0h-56.549c-5.523,0-10,4.477-10,10s4.477,10,10,10h56.549c16.542,0,30,13.458,30,30v133.973
	c0,16.542-13.458,30-30,30h-36.455c-2.651,0-5.194,1.053-7.069,2.927l-47.239,47.216v-40.144c0-5.523-4.477-10-10-10h-85.237
	c-5.523,0-10,4.477-10,10s4.477,10,10,10h75.237v54.277c0,4.044,2.436,7.69,6.172,9.238c1.238,0.513,2.537,0.762,3.826,0.762
	c2.602,0,5.159-1.016,7.072-2.928l61.38-61.35h32.314c27.57,0,50-22.43,50-50V50C499.786,22.43,477.357,0,449.786,0z"/>
<path d="M356.786,20c2.63,0,5.21-1.07,7.07-2.93c1.86-1.86,2.93-4.44,2.93-7.07s-1.07-5.21-2.93-7.07S359.416,0,356.786,0
	s-5.21,1.07-7.07,2.93c-1.86,1.86-2.93,4.44-2.93,7.07s1.07,5.21,2.93,7.07S354.156,20,356.786,20z"/>
<path d="M223.786,115.477c5.523,0,10-4.477,10-10V50c0-16.542,13.458-30,30-30h56.45c5.523,0,10-4.477,10-10s-4.477-10-10-10h-56.45
	c-27.57,0-50,22.43-50,50v55.477C213.786,111,218.263,115.477,223.786,115.477z"/>
<path d="M226.153,427.086h-14c-5.523,0-10,4.477-10,10s4.477,10,10,10h14c5.523,0,10-4.477,10-10S231.676,427.086,226.153,427.086z"
	/>
<path d="M138.516,278.64c2.64,0,5.21-1.07,7.07-2.93c1.87-1.86,2.93-4.44,2.93-7.07s-1.06-5.21-2.93-7.07
	c-1.86-1.86-4.43-2.93-7.07-2.93c-2.63,0-5.21,1.07-7.07,2.93s-2.93,4.44-2.93,7.07s1.07,5.21,2.93,7.07
	C133.306,277.57,135.886,278.64,138.516,278.64z"/>
<path d="M185.856,278.64c2.63,0,5.21-1.07,7.07-2.93s2.93-4.44,2.93-7.07s-1.07-5.21-2.93-7.07s-4.44-2.93-7.07-2.93
	c-2.64,0-5.21,1.07-7.07,2.93c-1.87,1.86-2.93,4.43-2.93,7.07c0,2.63,1.06,5.21,2.93,7.07
	C180.646,277.57,183.226,278.64,185.856,278.64z"/>
<path d="M319.774,92.097c0,5.523,4.477,10,10,10s10-4.477,10-10c0-4.767,1.92-9.186,5.408-12.441
	c3.483-3.251,8.033-4.856,12.831-4.53c8.396,0.579,15.165,7.347,15.744,15.744c0.585,8.485-4.979,15.983-13.231,17.829
	c-8.09,1.811-13.74,8.843-13.74,17.102v20.07c0,5.523,4.477,10,10,10s10-4.477,10-10v-18.129
	c16.918-4.705,28.147-20.484,26.923-38.248c-1.262-18.304-16.017-33.058-34.321-34.32c-10.376-0.718-20.274,2.787-27.854,9.862
	C324.061,72.012,319.774,81.876,319.774,92.097z"/>
<path d="M356.786,168.92c-2.63,0-5.21,1.06-7.07,2.92c-1.86,1.87-2.93,4.44-2.93,7.08c0,2.63,1.07,5.21,2.93,7.07
	s4.44,2.93,7.07,2.93s5.21-1.07,7.07-2.93c1.86-1.86,2.93-4.44,2.93-7.07c0-2.64-1.07-5.21-2.93-7.08
	C361.996,169.98,359.416,168.92,356.786,168.92z"/>
<g>
</g>
<g>
</g>
<g>
</g>
<g>
</g>
<g>
</g>
<g>
</g>
<g>
</g>
<g>
</g>
<g>
</g>
<g>
</g>
<g>
</g>
<g>
</g>
<g>
</g>
<g>
</g>
<g>
</g>
</svg>
