<svg id="Capa_1" enable-background="new 0 0 512 512" height="512" viewBox="0 0 512 512" width="512" xmlns="http://www.w3.org/2000/svg"><g><g><path d="m393.546 151.547v263.953c0 22.091-17.909 40-40 40h-275c-22.091 0-40-17.909-40-40v-368c0-22.091 17.909-40 40-40h171.197c7.968 0 15.608 3.17 21.236 8.809l113.803 114.047c5.612 5.625 8.764 13.246 8.764 21.191z" fill="#f9f8f9"/><path d="m393.546 151.55v17.59h-104.32c-31.45 0-57.04-25.62-57.04-57.1v-104.54h17.56c7.96 0 15.6 3.17 21.23 8.81l113.81 114.05c5.61 5.62 8.76 13.24 8.76 21.19z" fill="#e3e0e4"/><path d="m108.546 455.5h-30c-22.09 0-40-17.91-40-40v-368c0-22.09 17.91-40 40-40h30c-22.09 0-40 17.91-40 40v368c0 22.09 17.91 40 40 40z" fill="#e3e0e4"/><g fill="#a29aa5"><path d="m219.654 157.5h-123.7c-4.142 0-7.5-3.358-7.5-7.5s3.358-7.5 7.5-7.5h123.7c4.142 0 7.5 3.358 7.5 7.5s-3.358 7.5-7.5 7.5z"/><path d="m219.654 337.5h-123.7c-4.142 0-7.5-3.358-7.5-7.5s3.358-7.5 7.5-7.5h123.7c4.142 0 7.5 3.358 7.5 7.5s-3.358 7.5-7.5 7.5z"/><path d="m317.954 217.5h-224c-4.142 0-7.5-3.358-7.5-7.5s3.358-7.5 7.5-7.5h224c4.142 0 7.5 3.358 7.5 7.5s-3.358 7.5-7.5 7.5z"/><path d="m317.954 277.5h-224c-4.142 0-7.5-3.358-7.5-7.5s3.358-7.5 7.5-7.5h224c4.142 0 7.5 3.358 7.5 7.5s-3.358 7.5-7.5 7.5z"/><path d="m390.856 139.14h-101.63c-14.93 0-27.04-12.14-27.04-27.1v-101.82c3.24 1.46 6.23 3.52 8.79 6.09l113.81 114.05c2.55 2.56 4.61 5.54 6.07 8.78z"/></g><circle cx="371.954" cy="403" fill="#dc4955" r="101.5"/><path d="m453.026 464.07c-18.52 24.56-47.94 40.43-81.07 40.43-56.06 0-101.5-45.44-101.5-101.5 0-33.13 15.87-62.55 40.43-81.08-12.83 16.99-20.43 38.15-20.43 61.08 0 56.06 45.44 101.5 101.5 101.5 22.93 0 44.08-7.6 61.07-20.43z" fill="#c42430"/><path d="m412.954 423h-82c-11.046 0-20-8.954-20-20 0-11.046 8.954-20 20-20h82c11.046 0 20 8.954 20 20 0 11.046-8.955 20-20 20z" fill="#f9f8f9"/></g><g><path d="m38.546 134.5c4.142 0 7.5-3.358 7.5-7.5v-79.5c0-17.92 14.58-32.5 32.5-32.5h68.5c4.142 0 7.5-3.358 7.5-7.5s-3.358-7.5-7.5-7.5h-68.5c-26.191 0-47.5 21.309-47.5 47.5v79.5c0 4.142 3.358 7.5 7.5 7.5z"/><path d="m219.654 142.5h-123.7c-4.142 0-7.5 3.358-7.5 7.5s3.358 7.5 7.5 7.5h123.7c4.142 0 7.5-3.358 7.5-7.5s-3.358-7.5-7.5-7.5z"/><path d="m95.954 322.5c-4.142 0-7.5 3.358-7.5 7.5s3.358 7.5 7.5 7.5h123.7c4.142 0 7.5-3.358 7.5-7.5s-3.358-7.5-7.5-7.5z"/><path d="m317.954 202.5h-224c-4.142 0-7.5 3.358-7.5 7.5s3.358 7.5 7.5 7.5h224c4.142 0 7.5-3.358 7.5-7.5s-3.358-7.5-7.5-7.5z"/><path d="m325.454 270c0-4.142-3.358-7.5-7.5-7.5h-224c-4.142 0-7.5 3.358-7.5 7.5s3.358 7.5 7.5 7.5h224c4.142 0 7.5-3.358 7.5-7.5z"/><path d="m463.914 344.458c-2.228-3.492-6.865-4.517-10.356-2.29-3.492 2.228-4.518 6.864-2.29 10.356 9.608 15.063 14.687 32.518 14.687 50.476 0 51.832-42.168 94-94 94s-94-42.168-94-94 42.168-94 94-94c6.659 0 13.201.686 19.562 2.024.233.065.47.12.712.163 13.432 2.936 26.037 8.797 37.156 17.391 3.277 2.533 7.988 1.93 10.521-1.348 2.533-3.277 1.93-7.987-1.348-10.521-11.345-8.769-24.024-15.076-37.511-18.79v-146.372c0-10.002-3.891-19.409-10.955-26.488l-113.805-114.047c-7.086-7.101-16.513-11.012-26.545-11.012h-66.122c-4.142 0-7.5 3.358-7.5 7.5s3.358 7.5 7.5 7.5h66.122c1.687 0 3.339.203 4.945.562v96.474c0 19.08 15.496 34.603 34.542 34.603h96.263c.354 1.595.553 3.235.553 4.908v143.355c-4.636-.592-9.338-.902-14.092-.902-60.103 0-109 48.897-109 109 0 16.037 3.483 31.275 9.73 45h-194.137c-17.92 0-32.5-14.58-32.5-32.5v-253.5c0-4.142-3.358-7.5-7.5-7.5s-7.5 3.358-7.5 7.5v253.5c0 26.191 21.309 47.5 47.5 47.5h202.455c19.526 29.501 53.003 49 90.953 49 60.103 0 109-48.897 109-109 0-20.821-5.893-41.064-17.04-58.542zm-194.226-232.421v-86.402l105.779 106.005h-86.237c-10.776-.001-19.542-8.794-19.542-19.603z"/><path d="m412.954 415.5h-31.908c-4.142 0-7.5 3.358-7.5 7.5s3.358 7.5 7.5 7.5h31.908c15.164 0 27.5-12.336 27.5-27.5s-12.336-27.5-27.5-27.5h-82c-15.164 0-27.5 12.336-27.5 27.5s12.336 27.5 27.5 27.5h15.092c4.142 0 7.5-3.358 7.5-7.5s-3.358-7.5-7.5-7.5h-15.092c-6.893 0-12.5-5.607-12.5-12.5s5.607-12.5 12.5-12.5h82c6.893 0 12.5 5.607 12.5 12.5s-5.608 12.5-12.5 12.5z"/></g></g></svg>